<svg xmlns="http://www.w3.org/2000/svg" xmlns:xlink="http://www.w3.org/1999/xlink" viewBox="0 0 188 156.67"><defs><style>.cls-1{fill:none;}.cls-2{clip-path:url(#clip-path);}.cls-3{fill:#e27f60;}.cls-4{clip-path:url(#clip-path-2);}.cls-5{fill:#d37659;}.cls-6{fill:#c16544;}.cls-7{clip-path:url(#clip-path-3);}.cls-8{fill:#914e37;}.cls-9{clip-path:url(#clip-path-4);}.cls-10{fill:#713d25;}</style><clipPath id="clip-path"><polygon class="cls-1" points="132.58 66.74 132.58 66.74 149.58 66.74 149.58 100.65 132.58 100.65 132.58 66.74"/></clipPath><clipPath id="clip-path-2"><polygon class="cls-1" points="61.15 66.74 61.15 66.74 44.15 66.74 44.15 100.65 61.15 100.65 61.15 66.74"/></clipPath><clipPath id="clip-path-3"><polygon class="cls-1" points="134.83 71.81 134.83 71.81 145.04 71.81 145.04 85.24 134.83 85.24 134.83 71.81"/></clipPath><clipPath id="clip-path-4"><polygon class="cls-1" points="57.62 71.81 57.62 71.81 47.41 71.81 47.41 85.24 57.62 85.24 57.62 71.81"/></clipPath></defs><g id="Calque_7" data-name="Calque 7"><g class="cls-2"><path class="cls-3" d="M132.58,99.68l3-28.25s6.56-7.83,12.25-3.25c3.78,3,.87,30.23-3.5,31.5C136.85,101.86,132.58,99.68,132.58,99.68Z"/></g><g class="cls-4"><path class="cls-3" d="M61.15,99.68l-3-28.25S51.59,63.6,45.9,68.18c-3.79,3-.87,30.23,3.5,31.5C56.88,101.86,61.15,99.68,61.15,99.68Z"/></g><path class="cls-5" d="M96,140c-2.54,0-9.86-1.25-9.86-1.25l-22.64-18.5L58,93.2,56.47,69V62.66A38.92,38.92,0,0,1,95.39,23.75h1.43a38.91,38.91,0,0,1,38.92,38.91V69l-1.5,24.19-5.5,27.05-22.63,18.5S98.58,140,96,140Z"/><path class="cls-6" d="M96,140c-2.54,0-9.86-1.25-9.86-1.25l-22.64-18.5L58,93.2,62.47,98,68,111.16l11.92-7.91,17.35,4.25,19.08-3.75,9.92,6.91,6-14.15,2-3.31-5.5,27.05-22.63,18.5S98.58,140,96,140Z"/><g id="_Repetition_miroir_" data-name="&lt;Repetition miroir&gt;"><g class="cls-7"><path class="cls-8" d="M135.09,79.65c0-.23.63-1.57,4.76-5.14a12,12,0,0,1,4.74-2.7,2.17,2.17,0,0,1,.42,1.82c-.11.82-3.71,2.8-4.83,3.88a48,48,0,0,0-5.35,7.73Z"/></g></g><g id="_Repetition_miroir_2" data-name="&lt;Repetition miroir&gt;"><g class="cls-9"><path class="cls-8" d="M57.36,79.65c0-.23-.63-1.57-4.76-5.14a12,12,0,0,0-4.74-2.7,2.17,2.17,0,0,0-.42,1.82c.11.82,3.72,2.8,4.84,3.88a48.41,48.41,0,0,1,5.34,7.73Z"/></g></g><path class="cls-10" d="M59.11,48.55s6.65-13.11,10.22-18.17c5.3-7.52,20-20.51,37.43-25.8,56.69-17.17,52.55,22.23,52.55,22.23l-25.63-6.75s9,2.56,12.34,10.77c1.69,4.22.93,13.55.56,18.05-.9,11.19-11.17,25.45-11.17,25.45s-.61-25.36-7.9-35.15C123.74,34.11,111.78,29.05,104.8,28,78.32,23.87,59.11,48.55,59.11,48.55Z"/><path class="cls-10" d="M64,44.43c0-4.69,17.65-7.67,34.54-1.91S124,29.78,134.29,53c3.87,8.68,5.67-25,4.19-24.38s-30.8-12.44-35.84-12.15S75,31.54,72.7,31,64,44.43,64,44.43Z"/></g></svg>