<?xml version="1.0" encoding="utf-8"?>
<!-- Generator: Adobe Illustrator 26.0.1, SVG Export Plug-In . SVG Version: 6.00 Build 0)  -->
<svg version="1.1" id="Calque_1" xmlns="http://www.w3.org/2000/svg" xmlns:xlink="http://www.w3.org/1999/xlink" x="0px" y="0px"
	 viewBox="0 0 788 1005" style="enable-background:new 0 0 788 1005;" xml:space="preserve">
<style type="text/css">
	.st0{clip-path:url(#SVGID_00000127764810265800267120000017923639194017668763_);}
	.st1{fill:#E27F60;}
	.st2{clip-path:url(#SVGID_00000053507890632774070800000009479776111825460115_);}
	.st3{fill:#D37659;}
	.st4{fill:#C16544;}
	.st5{clip-path:url(#SVGID_00000129894849679583444810000016240216437890175163_);}
	.st6{fill:#6B3A25;}
	.st7{clip-path:url(#SVGID_00000077287356662395882790000011730808484700443327_);}
	.st8{fill:#6F3C25;}
</style>
<g id="Calque_7">
	<g>
		<defs>
			<polygon id="SVGID_1_" points="430.9,98.5 430.9,98.5 447.9,98.5 447.9,132.4 430.9,132.4 			"/>
		</defs>
		<clipPath id="SVGID_00000134213685754381676500000012292534362687996317_">
			<use xlink:href="#SVGID_1_"  style="overflow:visible;"/>
		</clipPath>
		<g style="clip-path:url(#SVGID_00000134213685754381676500000012292534362687996317_);">
			<path class="st1" d="M430.9,131.5l3-28.2c0,0,6.6-7.8,12.2-3.2c3.8,3,0.9,30.2-3.5,31.5C435.2,133.7,430.9,131.5,430.9,131.5z"/>
		</g>
	</g>
	<g>
		<defs>
			<polygon id="SVGID_00000003100410938662454300000006575484667341229986_" points="359.5,98.5 359.5,98.5 342.5,98.5 342.5,132.4 
				359.5,132.4 			"/>
		</defs>
		<clipPath id="SVGID_00000054975657639415167440000011167495345429364104_">
			<use xlink:href="#SVGID_00000003100410938662454300000006575484667341229986_"  style="overflow:visible;"/>
		</clipPath>
		<g style="clip-path:url(#SVGID_00000054975657639415167440000011167495345429364104_);">
			<path class="st1" d="M359.5,131.5l-3-28.2c0,0-6.6-7.8-12.2-3.2c-3.8,3-0.9,30.2,3.5,31.5C355.2,133.7,359.5,131.5,359.5,131.5z"
				/>
		</g>
	</g>
	<path class="st3" d="M394.3,171.8c-3.3-0.3-6.6-0.7-9.9-1.2L361.8,152l-5.5-27l-1.5-24.2v-6.3c0-21.5,17.4-38.9,38.9-38.9h1.4
		c21.5,0,38.9,17.4,38.9,38.9v6.3l-1.5,24.2l-5.5,27l-22.6,18.5C401.1,171.1,397.7,171.5,394.3,171.8z"/>
	<path class="st4" d="M394.3,171.8c-3.3-0.3-6.6-0.7-9.9-1.2L361.8,152l-5.5-27l4.5,4.8l5.5,13.1l11.9-8l17.4,4.3l19.1-3.8l9.9,6.9
		l6-14.1l2-3.3l-5.5,27l-22.6,18.5C401.1,171.1,397.7,171.5,394.3,171.8z"/>
	<g>
		<defs>
			<polygon id="SVGID_00000084503450794365540530000016083361431228834492_" points="433.2,103.6 433.2,103.6 443.4,103.6 
				443.4,117 433.2,117 			"/>
		</defs>
		<clipPath id="SVGID_00000041289848838494304630000007681988279494950050_">
			<use xlink:href="#SVGID_00000084503450794365540530000016083361431228834492_"  style="overflow:visible;"/>
		</clipPath>
		<g style="clip-path:url(#SVGID_00000041289848838494304630000007681988279494950050_);">
			<path class="st6" d="M433.4,111.4c0-0.2,0.6-1.6,4.8-5.1c1.4-1.3,3-2.2,4.7-2.7c0.4,0.5,0.6,1.2,0.4,1.8
				c-0.1,0.8-3.7,2.8-4.8,3.9c-2,2.4-3.8,5-5.3,7.7L433.4,111.4z"/>
		</g>
	</g>
	<g>
		<defs>
			<polygon id="SVGID_00000160896605331558497090000015668981441667254418_" points="356,103.6 356,103.6 345.8,103.6 345.8,117 
				356,117 			"/>
		</defs>
		<clipPath id="SVGID_00000130606349396244885690000002220897940839961234_">
			<use xlink:href="#SVGID_00000160896605331558497090000015668981441667254418_"  style="overflow:visible;"/>
		</clipPath>
		<g style="clip-path:url(#SVGID_00000130606349396244885690000002220897940839961234_);">
			<path class="st6" d="M355.7,111.4c0-0.2-0.6-1.6-4.8-5.1c-1.4-1.3-3-2.2-4.7-2.7c-0.4,0.5-0.6,1.2-0.4,1.8
				c0.1,0.8,3.7,2.8,4.8,3.9c2,2.4,3.8,5,5.4,7.7L355.7,111.4z"/>
		</g>
	</g>
	<path class="st8" d="M355.1,110.3c0,0,4.8-28.7,14.1-33c6-2.8,18,2.8,24.1,2.9s19.5-5.3,24.5-3.6c17.1,6.1,15.9,33.1,15.9,33.1
		s4.5-16.9,3.9-23c-0.8-8.2-4.8-11.2-4.8-11.2s6.5-3.8,4.3-9.1s-12.7-10.4-18.9-13c-8.6-3.6-23.4,2-39.2-8.3
		c1.8,8.9-18,12.9-20.7,18.7c-1.3,2.8,0.4,11.9,0.4,11.9s-3.9,6.3-4.5,8.4C350.8,95.1,355.1,110.3,355.1,110.3z"/>
</g>
</svg>
