<?xml version="1.0" encoding="utf-8"?>
<!-- Generator: Adobe Illustrator 26.0.1, SVG Export Plug-In . SVG Version: 6.00 Build 0)  -->
<svg version="1.1" id="Calque_1" xmlns="http://www.w3.org/2000/svg" xmlns:xlink="http://www.w3.org/1999/xlink" x="0px" y="0px"
	 viewBox="0 0 788 1005" style="enable-background:new 0 0 788 1005;" xml:space="preserve">
<style type="text/css">
	.st0{clip-path:url(#SVGID_00000016794864655299462050000006350988841371283081_);}
	.st1{fill:#E27F60;}
	.st2{clip-path:url(#SVGID_00000111152886858065822250000010363586072546884011_);}
	.st3{fill:#D37659;}
	.st4{clip-path:url(#SVGID_00000082348253446576824830000018022209778726379673_);}
	.st5{fill:#6B3A25;}
	.st6{clip-path:url(#SVGID_00000018918603549733152790000001994108094305004190_);}
	.st7{fill:#713D25;}
</style>
<g id="Calque_5">
	<g>
		<g>
			<defs>
				<polygon id="SVGID_1_" points="418.7,97.2 418.7,97.2 435.7,97.2 435.7,131.1 418.7,131.1 				"/>
			</defs>
			<clipPath id="SVGID_00000018212195975153370000000014525420760593809025_">
				<use xlink:href="#SVGID_1_"  style="overflow:visible;"/>
			</clipPath>
			<g style="clip-path:url(#SVGID_00000018212195975153370000000014525420760593809025_);">
				<path class="st1" d="M418.7,130.1l3-28.2c0,0,6.6-7.8,12.2-3.2c3.8,3,0.9,30.2-3.5,31.5C423,132.3,418.7,130.1,418.7,130.1z"/>
			</g>
		</g>
	</g>
	<g>
		<g>
			<defs>
				<polygon id="SVGID_00000019670766842492029830000008439010044516138921_" points="347.3,97.2 347.3,97.2 330.3,97.2 
					330.3,131.1 347.3,131.1 				"/>
			</defs>
			<clipPath id="SVGID_00000160192855692668462830000002917459609586481591_">
				<use xlink:href="#SVGID_00000019670766842492029830000008439010044516138921_"  style="overflow:visible;"/>
			</clipPath>
			<g style="clip-path:url(#SVGID_00000160192855692668462830000002917459609586481591_);">
				<path class="st1" d="M347.3,130.1l-3-28.2c0,0-6.6-7.9-12.3-3.2c-3.8,3-0.9,30.2,3.5,31.5C343,132.3,347.3,130.1,347.3,130.1z"
					/>
			</g>
		</g>
	</g>
	<path class="st3" d="M382.1,170.4c-2.5,0-9.9-1.2-9.9-1.2l-22.6-18.5l-5.5-27l-1.5-24.2v-6.4c0-21.5,17.4-38.9,38.9-38.9h1.4
		c21.5,0,38.9,17.4,38.9,38.9v6.3l-1.5,24.2l-5.5,27l-22.6,18.5C388.9,169.7,385.5,170.2,382.1,170.4z"/>
	<path class="st3" d="M382.1,170.4c-2.5,0-9.9-1.2-9.9-1.2l-22.6-18.5l-5.5-27l4.5,4.8l5.5,13.1l11.9-8l17.4,4.3l19.1-3.8l9.9,6.9
		l6-14.2l2-3.3l-5.5,27L392.3,169C388.9,169.7,385.5,170.2,382.1,170.4z"/>
	<g>
		<g>
			<defs>
				<polygon id="SVGID_00000107567538328888850350000002859122375922872469_" points="420.9,102.2 420.9,102.2 431.1,102.2 
					431.1,115.7 420.9,115.7 				"/>
			</defs>
			<clipPath id="SVGID_00000096043777485642758010000014536229194795222706_">
				<use xlink:href="#SVGID_00000107567538328888850350000002859122375922872469_"  style="overflow:visible;"/>
			</clipPath>
			<g style="clip-path:url(#SVGID_00000096043777485642758010000014536229194795222706_);">
				<path class="st5" d="M421.2,110.1c0-0.2,0.6-1.6,4.8-5.1c1.4-1.2,3-2.2,4.7-2.7c0.4,0.5,0.6,1.2,0.4,1.8
					c-0.1,0.8-3.7,2.8-4.8,3.9c-2,2.4-3.8,5-5.3,7.7L421.2,110.1z"/>
			</g>
		</g>
	</g>
	<g>
		<g>
			<defs>
				<polygon id="SVGID_00000151516836899581948240000004429888174938655146_" points="343.7,102.2 343.7,102.2 333.5,102.2 
					333.5,115.7 343.7,115.7 				"/>
			</defs>
			<clipPath id="SVGID_00000101791440243269226390000014968200322815017636_">
				<use xlink:href="#SVGID_00000151516836899581948240000004429888174938655146_"  style="overflow:visible;"/>
			</clipPath>
			<g style="clip-path:url(#SVGID_00000101791440243269226390000014968200322815017636_);">
				<path class="st5" d="M343.5,110.1c0-0.2-0.6-1.6-4.8-5.1c-1.4-1.2-3-2.2-4.7-2.7c-0.4,0.5-0.6,1.2-0.4,1.8
					c0.1,0.8,3.7,2.8,4.8,3.9c2,2.4,3.8,5,5.4,7.7L343.5,110.1z"/>
			</g>
		</g>
	</g>
	<path class="st7" d="M342.7,105.1c0,0-5.5-10.8-6.5-14.7c-1.9-7,1.8-15.9,1.8-15.9s2.2,5.6,4.3,5c-3.8-4.2-0.7-16.7-0.7-16.7
		l5.3,6.8c0,0-2.4-9.8-1.8-13.6c0.9-5.9,10.6-14,10.6-14l4.1,6.6c-0.1-3.1,0.6-6.2,2.2-8.9c1.7-2.7,9.5-9.3,9.5-9.3l5.6,15.5
		c0,0,5.4-13.9,4.3-18.8c1.6,1.8,13.2,9.1,10.2,18c3.8,0.7,9.6-9.2,10.5-9.2c-2.9,8.9,10.2,12.1,7,20.7c1.6,0.6,5-4.8,5-4.8
		s5.4,7.3,3.4,13.5c2.3,0.2,3.5-7.8,3.5-7.8s4.4,10.2,5,13.3c0.6,3.2-0.5,11.2-0.5,11.2l3.8-5c0,0,0.5,7.9,0.2,10.7
		c-1.4,10.6-7.8,15.1-7.8,15.1s-3.2-30.8-12.6-32.7c-5.1-1.1-21.4,2.2-27.4,2.1c-8.9-0.1-21-0.8-24-0.4
		C345.8,73.5,342.7,105.1,342.7,105.1z"/>
</g>
</svg>
