<svg xmlns="http://www.w3.org/2000/svg" xmlns:xlink="http://www.w3.org/1999/xlink" viewBox="0 0 788 1005"><defs><style>.cls-1{fill:none;}.cls-2{clip-path:url(#clip-path);}.cls-3{fill:#e27f60;}.cls-4{clip-path:url(#clip-path-2);}.cls-5{fill:#d37659;}.cls-6{clip-path:url(#clip-path-3);}.cls-7{fill:#6b3a25;}.cls-8{clip-path:url(#clip-path-4);}.cls-9{fill:#713d25;}</style><clipPath id="clip-path"><polygon class="cls-1" points="445.69 97.17 445.69 97.17 462.69 97.17 462.69 131.08 445.69 131.08 445.69 97.17"/></clipPath><clipPath id="clip-path-2"><polygon class="cls-1" points="374.26 97.17 374.26 97.17 357.26 97.17 357.26 131.08 374.26 131.08 374.26 97.17"/></clipPath><clipPath id="clip-path-3"><polygon class="cls-1" points="447.94 102.23 447.94 102.23 458.15 102.23 458.15 115.67 447.94 115.67 447.94 102.23"/></clipPath><clipPath id="clip-path-4"><polygon class="cls-1" points="370.73 102.23 370.73 102.23 360.52 102.23 360.52 115.67 370.73 115.67 370.73 102.23"/></clipPath></defs><g id="Calque_5" data-name="Calque 5"><g class="cls-2"><path class="cls-3" d="M445.69,130.11l3-28.25s6.56-7.83,12.25-3.25c3.78,3,.87,30.22-3.5,31.5C450,132.29,445.69,130.11,445.69,130.11Z"/></g><g class="cls-4"><path class="cls-3" d="M374.26,130.11l-3-28.25S364.69,94,359,98.61c-3.79,3-.87,30.22,3.5,31.5C370,132.29,374.26,130.11,374.26,130.11Z"/></g><path class="cls-5" d="M409.08,170.42c-2.54,0-9.86-1.25-9.86-1.25l-22.64-18.5-5.5-27-1.5-24.19V93.09A38.93,38.93,0,0,1,408.5,54.17h1.43a38.92,38.92,0,0,1,38.92,38.92v6.35l-1.5,24.19-5.5,27-22.63,18.5A101.92,101.92,0,0,1,409.08,170.42Z"/><path class="cls-5" d="M409.08,170.42c-2.54,0-9.86-1.25-9.86-1.25l-22.64-18.5-5.5-27,4.5,4.81,5.5,13.15L393,133.67l17.35,4.26,19.08-3.76,9.92,6.92,6-14.15,2-3.31-5.5,27-22.63,18.5A101.92,101.92,0,0,1,409.08,170.42Z"/><g class="cls-6"><path class="cls-7" d="M448.2,110.08c0-.24.63-1.57,4.76-5.14a12.26,12.26,0,0,1,4.74-2.71,2.18,2.18,0,0,1,.42,1.83c-.11.82-3.72,2.8-4.84,3.87a48.84,48.84,0,0,0-5.34,7.74Z"/></g><g class="cls-8"><path class="cls-7" d="M370.47,110.08c0-.24-.63-1.57-4.76-5.14a12.26,12.26,0,0,0-4.74-2.71,2.18,2.18,0,0,0-.42,1.83c.11.82,3.72,2.8,4.83,3.87a48.38,48.38,0,0,1,5.35,7.74Z"/></g><path class="cls-9" d="M369.74,105.14s-5.49-10.84-6.55-14.67c-1.94-7,1.82-15.88,1.82-15.88s2.21,5.58,4.28,5c-3.8-4.15-.74-16.7-.74-16.7l5.31,6.83s-2.39-9.84-1.83-13.56c.92-6.07,10.68-14.13,10.68-14.13l4.11,6.58A16.72,16.72,0,0,1,389,39.75c1.73-2.74,9.45-9.32,9.45-9.32l5.64,15.49s5.43-13.87,4.27-18.78c1.58,1.76,13.21,9.14,10.22,18,3.76.68,9.65-9.24,10.51-9.19-2.89,8.87,10.25,12.06,7,20.7,1.58.63,5-4.82,5-4.82s5.4,7.27,3.37,13.46c2.33.17,3.51-7.82,3.51-7.82s4.42,10.22,5,13.32c.63,3.25-.45,11.22-.45,11.22L456.33,77s.55,7.87.17,10.69c-1.4,10.57-7.77,15.08-7.77,15.08S445.5,72,436.1,70.06C431,69,414.67,72.24,408.73,72.19c-8.94-.07-21-.79-24-.37C372.81,73.47,369.74,105.14,369.74,105.14Z"/></g></svg>