<svg xmlns="http://www.w3.org/2000/svg" xmlns:xlink="http://www.w3.org/1999/xlink" viewBox="0 0 788 1005"><defs><style>.cls-1{fill:none;}.cls-2{clip-path:url(#clip-path);}.cls-3{fill:#e27f60;}.cls-4{clip-path:url(#clip-path-2);}.cls-5{fill:#d37659;}.cls-6{fill:#c16544;}.cls-7{clip-path:url(#clip-path-3);}.cls-8{fill:#6b3a25;}.cls-9{clip-path:url(#clip-path-4);}.cls-10{fill:#6f3c25;}</style><clipPath id="clip-path"><polygon class="cls-1" points="427.93 98.54 427.93 98.54 444.92 98.54 444.92 132.45 427.93 132.45 427.93 98.54"/></clipPath><clipPath id="clip-path-2"><polygon class="cls-1" points="356.49 98.54 356.49 98.54 339.5 98.54 339.5 132.45 356.49 132.45 356.49 98.54"/></clipPath><clipPath id="clip-path-3"><polygon class="cls-1" points="430.18 103.61 430.18 103.61 440.39 103.61 440.39 117.04 430.18 117.04 430.18 103.61"/></clipPath><clipPath id="clip-path-4"><polygon class="cls-1" points="352.96 103.61 352.96 103.61 342.75 103.61 342.75 117.04 352.96 117.04 352.96 103.61"/></clipPath></defs><g id="Calque_7" data-name="Calque 7"><g class="cls-2"><path class="cls-3" d="M427.93,131.48l3-28.25s6.56-7.83,12.25-3.25c3.78,3,.87,30.23-3.5,31.5C432.2,133.66,427.93,131.48,427.93,131.48Z"/></g><g class="cls-4"><path class="cls-3" d="M356.49,131.48l-3-28.25s-6.56-7.83-12.25-3.25c-3.78,3-.87,30.23,3.5,31.5C352.22,133.66,356.49,131.48,356.49,131.48Z"/></g><path class="cls-5" d="M391.32,171.79a99.3,99.3,0,0,1-9.87-1.25L358.82,152l-5.5-27-1.5-24.19V94.46a38.92,38.92,0,0,1,38.92-38.92h1.43a38.93,38.93,0,0,1,38.92,38.92v6.35L429.59,125l-5.5,27-22.64,18.5A101.62,101.62,0,0,1,391.32,171.79Z"/><path class="cls-6" d="M391.32,171.79a99.3,99.3,0,0,1-9.87-1.25L358.82,152l-5.5-27,4.5,4.81,5.5,13.15L375.24,135l17.35,4.26,19.08-3.76,9.92,6.92,6-14.15,2-3.31-5.5,27-22.64,18.5A101.62,101.62,0,0,1,391.32,171.79Z"/><g class="cls-7"><path class="cls-8" d="M430.44,111.45c0-.24.63-1.57,4.76-5.14a12,12,0,0,1,4.74-2.7,2.17,2.17,0,0,1,.42,1.82c-.11.82-3.72,2.8-4.84,3.88a47.09,47.09,0,0,0-5.34,7.73Z"/></g><g class="cls-9"><path class="cls-8" d="M352.71,111.45c0-.24-.63-1.57-4.76-5.14a12.05,12.05,0,0,0-4.74-2.7,2.17,2.17,0,0,0-.42,1.82c.11.82,3.71,2.8,4.83,3.88A47.09,47.09,0,0,1,353,117Z"/></g><path class="cls-10" d="M352.13,110.32s4.81-28.7,14.08-33c6.05-2.79,18,2.8,24.1,2.91s19.5-5.33,24.46-3.56c17.06,6.06,15.86,33.06,15.86,33.06s4.45-16.91,3.85-23c-.8-8.21-4.81-11.19-4.81-11.19s6.5-3.85,4.27-9.14S421.27,56,415.07,53.39c-8.57-3.56-23.37,2-39.21-8.34,1.81,8.93-18,12.86-20.69,18.7-1.27,2.79.41,11.86.41,11.86s-3.86,6.33-4.46,8.36C347.84,95.11,352.13,110.32,352.13,110.32Z"/></g></svg>