<svg xmlns="http://www.w3.org/2000/svg" xmlns:xlink="http://www.w3.org/1999/xlink" viewBox="0 0 188 156.67"><defs><style>.cls-1{fill:none;}.cls-2{clip-path:url(#clip-path);}.cls-3{fill:#e27f60;}.cls-4{clip-path:url(#clip-path-2);}.cls-5{fill:#d37659;}.cls-6{fill:#c16544;}.cls-7{clip-path:url(#clip-path-3);}.cls-8{fill:#6b3a25;}.cls-9{clip-path:url(#clip-path-4);}.cls-10{fill:#6f3c25;}</style><clipPath id="clip-path"><polygon class="cls-1" points="127.93 68.11 127.93 68.11 144.92 68.11 144.92 102.02 127.93 102.02 127.93 68.11"/></clipPath><clipPath id="clip-path-2"><polygon class="cls-1" points="56.49 68.11 56.49 68.11 39.5 68.11 39.5 102.02 56.49 102.02 56.49 68.11"/></clipPath><clipPath id="clip-path-3"><polygon class="cls-1" points="130.18 73.18 130.18 73.18 140.39 73.18 140.39 86.61 130.18 86.61 130.18 73.18"/></clipPath><clipPath id="clip-path-4"><polygon class="cls-1" points="52.97 73.18 52.97 73.18 42.76 73.18 42.76 86.61 52.97 86.61 52.97 73.18"/></clipPath></defs><g id="Calque_7" data-name="Calque 7"><g class="cls-2"><path class="cls-3" d="M127.93,101.05l3-28.25s6.56-7.83,12.25-3.25c3.78,3,.87,30.23-3.5,31.5C132.2,103.24,127.93,101.05,127.93,101.05Z"/></g><g class="cls-4"><path class="cls-3" d="M56.49,101.05l-3-28.25S46.93,65,41.24,69.55c-3.78,3-.87,30.23,3.5,31.5C52.22,103.24,56.49,101.05,56.49,101.05Z"/></g><path class="cls-5" d="M91.32,141.37c-2.55,0-9.87-1.25-9.87-1.25l-22.63-18.5-5.5-27.05-1.5-24.19V64A38.91,38.91,0,0,1,90.74,25.12h1.43A38.92,38.92,0,0,1,131.09,64v6.34l-1.5,24.19-5.5,27.05-22.64,18.5A101.62,101.62,0,0,1,91.32,141.37Z"/><path class="cls-6" d="M91.32,141.37c-2.55,0-9.87-1.25-9.87-1.25l-22.63-18.5-5.5-27.05,4.5,4.81,5.5,13.16,11.92-7.92,17.35,4.25,19.08-3.75,9.92,6.92,6-14.16,2-3.31-5.5,27.05-22.64,18.5A101.62,101.62,0,0,1,91.32,141.37Z"/><g class="cls-7"><path class="cls-8" d="M130.44,81c0-.24.63-1.58,4.76-5.15a12,12,0,0,1,4.74-2.7,2.17,2.17,0,0,1,.42,1.82c-.11.82-3.72,2.81-4.84,3.88a47.09,47.09,0,0,0-5.34,7.73Z"/></g><g class="cls-9"><path class="cls-8" d="M52.71,81c0-.24-.63-1.58-4.76-5.15a12.05,12.05,0,0,0-4.74-2.7A2.17,2.17,0,0,0,42.79,75c.11.82,3.71,2.81,4.83,3.88A47.09,47.09,0,0,1,53,86.61Z"/></g><path class="cls-10" d="M52.13,79.89s4.81-28.7,14.08-33c6.05-2.79,18,2.8,24.1,2.92s19.5-5.34,24.46-3.57c17.06,6.07,15.86,33.06,15.86,33.06s4.45-16.9,3.85-23c-.8-8.2-4.81-11.19-4.81-11.19s6.5-3.85,4.27-9.14S121.27,25.53,115.07,23c-8.57-3.55-23.37,2-39.21-8.34,1.81,8.93-18,12.87-20.69,18.71-1.27,2.79.41,11.85.41,11.85s-3.86,6.33-4.46,8.36C47.84,64.69,52.13,79.89,52.13,79.89Z"/></g></svg>