<svg xmlns="http://www.w3.org/2000/svg" xmlns:xlink="http://www.w3.org/1999/xlink" viewBox="0 0 788 1005"><defs><style>.cls-1{fill:none;}.cls-2{clip-path:url(#clip-path);}.cls-3{fill:#e27f60;}.cls-4{clip-path:url(#clip-path-2);}.cls-5{fill:#d37659;}.cls-6{fill:#c16544;}.cls-7{clip-path:url(#clip-path-3);}.cls-8{fill:#6b3a25;}.cls-9{clip-path:url(#clip-path-4);}.cls-10{fill:#6f3c25;}</style><clipPath id="clip-path"><polygon class="cls-1" points="432.58 97.17 432.58 97.17 449.58 97.17 449.58 131.08 432.58 131.08 432.58 97.17"/></clipPath><clipPath id="clip-path-2"><polygon class="cls-1" points="361.15 97.17 361.15 97.17 344.15 97.17 344.15 131.08 361.15 131.08 361.15 97.17"/></clipPath><clipPath id="clip-path-3"><polygon class="cls-1" points="434.83 102.23 434.83 102.23 445.04 102.23 445.04 115.67 434.83 115.67 434.83 102.23"/></clipPath><clipPath id="clip-path-4"><polygon class="cls-1" points="357.62 102.23 357.62 102.23 347.41 102.23 347.41 115.67 357.62 115.67 357.62 102.23"/></clipPath></defs><g id="Calque_5" data-name="Calque 5"><g class="cls-2"><path class="cls-3" d="M432.58,130.11l3-28.25s6.56-7.83,12.25-3.25c3.78,3,.87,30.22-3.5,31.5C436.85,132.29,432.58,130.11,432.58,130.11Z"/></g><g class="cls-4"><path class="cls-3" d="M361.15,130.11l-3-28.25S351.58,94,345.9,98.61c-3.79,3-.87,30.22,3.5,31.5C356.88,132.29,361.15,130.11,361.15,130.11Z"/></g><path class="cls-5" d="M396.73,170.42c-2.55,0-9.87-1.25-9.87-1.25l-22.63-18.5-5.5-27-1.5-24.19V93.09a38.92,38.92,0,0,1,38.92-38.92h1.43A38.93,38.93,0,0,1,436.5,93.09v6.35L435,123.63l-5.5,27-22.64,18.5A101.62,101.62,0,0,1,396.73,170.42Z"/><path class="cls-6" d="M396.73,170.75c-2.55,0-9.87-1.25-9.87-1.25L364.23,151l-5.5-27,4.5,4.81,5.5,13.15L380.65,134,398,138.26l19.08-3.76,9.92,6.92,6-14.15,2-3.31-5.5,27-22.64,18.5A101.62,101.62,0,0,1,396.73,170.75Z"/><g class="cls-7"><path class="cls-8" d="M435.09,110.08c0-.24.63-1.57,4.76-5.14a12.26,12.26,0,0,1,4.74-2.71,2.18,2.18,0,0,1,.42,1.83c-.11.82-3.71,2.8-4.83,3.87a48.38,48.38,0,0,0-5.35,7.74Z"/></g><g class="cls-9"><path class="cls-8" d="M357.36,110.08c0-.24-.63-1.57-4.76-5.14a12.26,12.26,0,0,0-4.74-2.71,2.18,2.18,0,0,0-.42,1.83c.11.82,3.72,2.8,4.84,3.87a48.84,48.84,0,0,1,5.34,7.74Z"/></g><path class="cls-10" d="M418.43,59.73s-14.15,13.58-20,17C393.32,79.63,376.26,85,376.26,85l2.95-7.33S368,84.6,365,87.64c-6.2,6.26-7.36,15.89-7.36,15.89s-7-20.24-3.09-31c-1.6,1.42-6.05,2.54-6.05,2.54s5.29-16.55,11.41-22.37c9.41-9,19.29-7.78,19.29-7.78l-6.55-3.25s16.15-4.41,26.78-2.85c13.95,2.06,19,10.48,19,10.48s10.78-4.48,19.33,8.15c6.49,9.58,3.62,21.59,3.62,21.59l-5.45,23.46s-2.39-15.71-3-18.49c-.44-2.18-.77-10-.77-10l-1.88,5.54s-5.29-2.81-8.86-11.2C420.72,66.68,418.43,59.73,418.43,59.73Z"/></g></svg>