<?xml version="1.0" encoding="utf-8"?>
<!-- Generator: Adobe Illustrator 26.0.1, SVG Export Plug-In . SVG Version: 6.00 Build 0)  -->
<svg version="1.1" id="Calque_1" xmlns="http://www.w3.org/2000/svg" xmlns:xlink="http://www.w3.org/1999/xlink" x="0px" y="0px"
	 viewBox="0 0 788 1005" style="enable-background:new 0 0 788 1005;" xml:space="preserve">
<style type="text/css">
	.st0{clip-path:url(#SVGID_00000140702627809266696990000004841210064811884682_);}
	.st1{fill:#E27F60;}
	.st2{clip-path:url(#SVGID_00000092419251270222371830000001172636842378364309_);}
	.st3{fill:#D37659;}
	.st4{clip-path:url(#SVGID_00000001649813172009232450000008380241514397220749_);}
	.st5{fill:#6B3A25;}
	.st6{clip-path:url(#SVGID_00000018213252289314472230000010280313357985514382_);}
	.st7{fill:#713D25;}
</style>
<g id="Calque_5">
	<g>
		<g>
			<defs>
				<polygon id="SVGID_1_" points="422.7,97.2 422.7,97.2 439.7,97.2 439.7,131.1 422.7,131.1 				"/>
			</defs>
			<clipPath id="SVGID_00000146466196083928874820000002988716653955897773_">
				<use xlink:href="#SVGID_1_"  style="overflow:visible;"/>
			</clipPath>
			<g style="clip-path:url(#SVGID_00000146466196083928874820000002988716653955897773_);">
				<path class="st1" d="M422.7,130.1l3-28.2c0,0,6.6-7.8,12.2-3.2c3.8,3,0.9,30.2-3.5,31.5C427,132.3,422.7,130.1,422.7,130.1z"/>
			</g>
		</g>
	</g>
	<g>
		<g>
			<defs>
				<polygon id="SVGID_00000062194036907301968650000015684423608366326712_" points="351.3,97.2 351.3,97.2 334.3,97.2 
					334.3,131.1 351.3,131.1 				"/>
			</defs>
			<clipPath id="SVGID_00000158727024860763218790000002289749610868020392_">
				<use xlink:href="#SVGID_00000062194036907301968650000015684423608366326712_"  style="overflow:visible;"/>
			</clipPath>
			<g style="clip-path:url(#SVGID_00000158727024860763218790000002289749610868020392_);">
				<path class="st1" d="M351.3,130.1l-3-28.2c0,0-6.6-7.9-12.3-3.2c-3.8,3-0.9,30.2,3.5,31.5C347,132.3,351.3,130.1,351.3,130.1z"
					/>
			</g>
		</g>
	</g>
	<path class="st3" d="M386.1,170.4c-2.5,0-9.9-1.2-9.9-1.2l-22.6-18.5l-5.5-27l-1.5-24.2v-6.4c0-21.5,17.4-38.9,38.9-38.9h1.4
		c21.5,0,38.9,17.4,38.9,38.9v6.3l-1.5,24.2l-5.5,27l-22.6,18.5C392.9,169.7,389.5,170.2,386.1,170.4z"/>
	<path class="st3" d="M386.1,170.4c-2.5,0-9.9-1.2-9.9-1.2l-22.6-18.5l-5.5-27l4.5,4.8l5.5,13.1l11.9-8l17.4,4.3l19.1-3.8l9.9,6.9
		l6-14.2l2-3.3l-5.5,27L396.3,169C392.9,169.7,389.5,170.2,386.1,170.4z"/>
	<g>
		<g>
			<defs>
				<polygon id="SVGID_00000133514308467224024530000010372385962666604723_" points="424.9,102.2 424.9,102.2 435.1,102.2 
					435.1,115.7 424.9,115.7 				"/>
			</defs>
			<clipPath id="SVGID_00000173122849459245235430000000601995471057634697_">
				<use xlink:href="#SVGID_00000133514308467224024530000010372385962666604723_"  style="overflow:visible;"/>
			</clipPath>
			<g style="clip-path:url(#SVGID_00000173122849459245235430000000601995471057634697_);">
				<path class="st5" d="M425.2,110.1c0-0.2,0.6-1.6,4.8-5.1c1.4-1.2,3-2.2,4.7-2.7c0.4,0.5,0.6,1.2,0.4,1.8
					c-0.1,0.8-3.7,2.8-4.8,3.9c-2,2.4-3.8,5-5.3,7.7L425.2,110.1z"/>
			</g>
		</g>
	</g>
	<g>
		<g>
			<defs>
				<polygon id="SVGID_00000083065080484226699640000004432378060402690446_" points="347.7,102.2 347.7,102.2 337.5,102.2 
					337.5,115.7 347.7,115.7 				"/>
			</defs>
			<clipPath id="SVGID_00000170269061498523138130000013617728819819817094_">
				<use xlink:href="#SVGID_00000083065080484226699640000004432378060402690446_"  style="overflow:visible;"/>
			</clipPath>
			<g style="clip-path:url(#SVGID_00000170269061498523138130000013617728819819817094_);">
				<path class="st5" d="M347.5,110.1c0-0.2-0.6-1.6-4.8-5.1c-1.4-1.2-3-2.2-4.7-2.7c-0.4,0.5-0.6,1.2-0.4,1.8
					c0.1,0.8,3.7,2.8,4.8,3.9c2,2.4,3.8,5,5.4,7.7L347.5,110.1z"/>
			</g>
		</g>
	</g>
	<path class="st7" d="M346.7,105.1c0,0-5.5-10.8-6.5-14.7c-1.9-7,1.8-15.9,1.8-15.9s2.2,5.6,4.3,5c-3.8-4.2-0.7-16.7-0.7-16.7
		l5.3,6.8c0,0-2.4-9.8-1.8-13.6c0.9-5.9,10.6-14,10.6-14l4.1,6.6c-0.1-3.1,0.6-6.2,2.2-8.9c1.7-2.7,9.5-9.3,9.5-9.3l5.6,15.5
		c0,0,5.4-13.9,4.3-18.8c1.6,1.8,13.2,9.1,10.2,18c3.8,0.7,9.6-9.2,10.5-9.2c-2.9,8.9,10.2,12.1,7,20.7c1.6,0.6,5-4.8,5-4.8
		s5.4,7.3,3.4,13.5c2.3,0.2,3.5-7.8,3.5-7.8s4.4,10.2,5,13.3c0.6,3.2-0.5,11.2-0.5,11.2l3.8-5c0,0,0.5,7.9,0.2,10.7
		c-1.4,10.6-7.8,15.1-7.8,15.1s-3.2-30.8-12.6-32.7c-5.1-1.1-21.4,2.2-27.4,2.1c-8.9-0.1-21-0.8-24-0.4
		C349.8,73.5,346.7,105.1,346.7,105.1z"/>
</g>
</svg>
