<svg xmlns="http://www.w3.org/2000/svg" xmlns:xlink="http://www.w3.org/1999/xlink" viewBox="0 0 788 1005"><defs><style>.cls-1{fill:none;}.cls-2{clip-path:url(#clip-path);}.cls-3{fill:#b8775c;}.cls-4{clip-path:url(#clip-path-2);}.cls-5{fill:#d48f72;}.cls-6{fill:#b87051;}.cls-7{fill:#6d3b25;}.cls-8{fill:#522a19;}.cls-9{clip-path:url(#clip-path-3);}.cls-10{fill:#6b3a25;}.cls-11{clip-path:url(#clip-path-4);}</style><clipPath id="clip-path"><polygon class="cls-1" points="432.58 97.17 432.58 97.17 449.58 97.17 449.58 131.08 432.58 131.08 432.58 97.17"/></clipPath><clipPath id="clip-path-2"><polygon class="cls-1" points="361.15 97.17 361.15 97.17 344.15 97.17 344.15 131.08 361.15 131.08 361.15 97.17"/></clipPath><clipPath id="clip-path-3"><polygon class="cls-1" points="434.83 102.23 434.83 102.23 445.04 102.23 445.04 115.67 434.83 115.67 434.83 102.23"/></clipPath><clipPath id="clip-path-4"><polygon class="cls-1" points="357.62 102.23 357.62 102.23 347.41 102.23 347.41 115.67 357.62 115.67 357.62 102.23"/></clipPath></defs><g id="Calque_5" data-name="Calque 5"><g class="cls-2"><path class="cls-3" d="M432.58,130.11l3-28.25s6.56-7.83,12.25-3.25c3.78,3,.87,30.22-3.5,31.5C436.85,132.29,432.58,130.11,432.58,130.11Z"/></g><g class="cls-4"><path class="cls-3" d="M361.15,130.11l-3-28.25S351.58,94,345.9,98.61c-3.79,3-.87,30.22,3.5,31.5C356.88,132.29,361.15,130.11,361.15,130.11Z"/></g><path class="cls-5" d="M396,170.42c-2.54,0-9.86-1.25-9.86-1.25l-22.64-18.5-5.5-27-1.5-24.19V93.09a38.93,38.93,0,0,1,38.92-38.92h1.43a38.92,38.92,0,0,1,38.92,38.92v6.35l-1.5,24.19-5.5,27-22.63,18.5A101.92,101.92,0,0,1,396,170.42Z"/><path class="cls-6" d="M396,170.42c-2.54,0-9.86-1.25-9.86-1.25l-22.64-18.5-5.5-27,4.5,4.81,5.5,13.15,11.92-7.92,17.35,4.26,19.08-3.76,9.92,6.92,6-14.15,2-3.31-5.5,27-22.63,18.5A101.92,101.92,0,0,1,396,170.42Z"/><path class="cls-7" d="M363,72.71l-.23,16.62-5.44,22.35s-2.15-11-3.24-13c-6.63-12.2-.37-40.68,2.53-47,1.66-3.62,72.76-20.82,79.59,2,.33,1.11-2.17,7.43-.67,8.19,12.36,6.28,3.63,37,3.63,37l-3.91,10.84s.84-5.33-6.2-20.35c-1.65-3.54-.23-16.62-.23-16.62s-25.17-2.09-33.35-2.07C387,70.66,363,72.71,363,72.71Z"/><path class="cls-8" d="M428.57,75s7.92-11.56-7.29-12.23-58.09,10-58.09,10,24-1.24,32-1.35C419.44,71,428.57,75,428.57,75Z"/><g class="cls-9"><path class="cls-10" d="M435.09,110.08c0-.24.63-1.57,4.76-5.14a12.26,12.26,0,0,1,4.74-2.71,2.18,2.18,0,0,1,.42,1.83c-.11.82-3.71,2.8-4.83,3.87a48.38,48.38,0,0,0-5.35,7.74Z"/></g><g class="cls-11"><path class="cls-10" d="M357.36,110.08c0-.24-.63-1.57-4.76-5.14a12.26,12.26,0,0,0-4.74-2.71,2.18,2.18,0,0,0-.42,1.83c.11.82,3.72,2.8,4.84,3.87a48.84,48.84,0,0,1,5.34,7.74Z"/></g></g></svg>