<?xml version="1.0" encoding="utf-8"?>
<!-- Generator: Adobe Illustrator 26.0.1, SVG Export Plug-In . SVG Version: 6.00 Build 0)  -->
<svg version="1.1" id="Calque_1" xmlns="http://www.w3.org/2000/svg" xmlns:xlink="http://www.w3.org/1999/xlink" x="0px" y="0px"
	 viewBox="0 0 127.6 141.7" style="enable-background:new 0 0 127.6 141.7;" xml:space="preserve">
<style type="text/css">
	.st0{clip-path:url(#SVGID_00000042018545347248891800000008187673091807113100_);fill:#573623;}
	.st1{clip-path:url(#SVGID_00000009567413383643580370000015014583512428930188_);fill:#573623;}
	.st2{clip-path:url(#SVGID_00000132081978214084021860000017728498760579233214_);fill:#573623;}
	.st3{clip-path:url(#SVGID_00000183930689749815047000000011859498081690832829_);fill:#573623;}
	.st4{clip-path:url(#SVGID_00000158712269757271044330000015278240354901467283_);fill:#FFFFFF;}
	.st5{clip-path:url(#SVGID_00000059275610497200741940000009930169368101912713_);fill:#FFFFFF;}
	.st6{clip-path:url(#SVGID_00000063608204947534291510000012456430396218991541_);fill:#090909;}
	.st7{clip-path:url(#SVGID_00000146480899647923770760000011540447025460540317_);fill:#090909;}
	.st8{fill:#9D5E70;}
</style>
<g>
	<g>
		<defs>
			<polygon id="SVGID_1_" points="84.8,16.5 84.8,16.5 128.1,16.5 128.1,29.7 84.8,29.7 			"/>
		</defs>
		<clipPath id="SVGID_00000155125074142112210790000016325481067236958372_">
			<use xlink:href="#SVGID_1_"  style="overflow:visible;"/>
		</clipPath>
		<path style="clip-path:url(#SVGID_00000155125074142112210790000016325481067236958372_);fill:#573623;" d="M126.1,29.7
			c-0.3,0-0.6-0.1-0.8-0.2c-4.3-1.8-8.8-3.2-13.3-4.3c-14.6-3.3-15.5-1-20.5,0c-1.5,0.3-5-0.6-5.7-1.4s-1.4-4-0.5-4.7
			c0.4-0.3,6.9-4.8,23.5-1c6.9,1.6,17.9,7.6,18.2,7.7c1.1,0.4,1.6,1.6,1.2,2.7C127.8,29.2,127,29.8,126.1,29.7L126.1,29.7z"/>
	</g>
</g>
<g>
	<g>
		<defs>
			<polygon id="SVGID_00000119820933837270877030000014144337485263987386_" points="42.6,16.5 42.6,16.5 -0.7,16.5 -0.7,29.7 
				42.6,29.7 			"/>
		</defs>
		<clipPath id="SVGID_00000090266342963072987140000014365082233581108639_">
			<use xlink:href="#SVGID_00000119820933837270877030000014144337485263987386_"  style="overflow:visible;"/>
		</clipPath>
		<path style="clip-path:url(#SVGID_00000090266342963072987140000014365082233581108639_);fill:#573623;" d="M1.3,29.7
			c0.3,0,0.6-0.1,0.8-0.2c4.3-1.8,8.8-3.2,13.4-4.3c14.6-3.3,15.5-1,20.5,0c1.5,0.3,5-0.6,5.7-1.4s1.4-4,0.5-4.7
			c-0.4-0.3-6.9-4.8-23.5-1c-6.9,1.6-17.9,7.6-18.2,7.7c-1.1,0.4-1.6,1.6-1.2,2.7C-0.3,29.2,0.5,29.8,1.3,29.7L1.3,29.7z"/>
	</g>
</g>
<g>
	<g>
		<defs>
			<rect id="SVGID_00000075860573673633356590000017816933165114907048_" x="83.5" y="16.5" width="40.1" height="9.2"/>
		</defs>
		<clipPath id="SVGID_00000180359758813605615370000016814355611247915451_">
			<use xlink:href="#SVGID_00000075860573673633356590000017816933165114907048_"  style="overflow:visible;"/>
		</clipPath>
		<path style="clip-path:url(#SVGID_00000180359758813605615370000016814355611247915451_);fill:#573623;" d="M89.6,24.8
			c-1.4,0.3-5.2-0.6-5.9-1.5s0.6-3.6,1.5-4.3c0.4-0.3,6.9-4.8,23.5-1c8,1.8,15.6,5.7,14.8,7.6C123.2,26.4,110,20.8,89.6,24.8z"/>
	</g>
</g>
<g>
	<g>
		<defs>
			<rect id="SVGID_00000059303681254609760170000001612923895673597882_" x="3.8" y="16.5" width="40.1" height="9.2"/>
		</defs>
		<clipPath id="SVGID_00000009586979944748946130000001661429782238460827_">
			<use xlink:href="#SVGID_00000059303681254609760170000001612923895673597882_"  style="overflow:visible;"/>
		</clipPath>
		<path style="clip-path:url(#SVGID_00000009586979944748946130000001661429782238460827_);fill:#573623;" d="M37.8,24.8
			c1.5,0.3,5.2-0.6,5.9-1.5s-0.6-3.6-1.5-4.3c-0.4-0.3-6.9-4.8-23.5-1c-8,1.8-15.6,5.7-14.8,7.6C4.2,26.4,17.4,20.8,37.8,24.8z"/>
	</g>
</g>
<g>
	<g>
		<defs>
			<polygon id="SVGID_00000177461025335966249230000014100547990452628413_" points="87.3,41.5 87.3,41.5 115.2,41.5 115.2,68.3 
				87.3,68.3 			"/>
		</defs>
		<clipPath id="SVGID_00000117655791910324477620000000591751972124999860_">
			<use xlink:href="#SVGID_00000177461025335966249230000014100547990452628413_"  style="overflow:visible;"/>
		</clipPath>
		
			<ellipse style="clip-path:url(#SVGID_00000117655791910324477620000000591751972124999860_);fill:#FFFFFF;" cx="101.2" cy="54.9" rx="14" ry="13.4"/>
	</g>
</g>
<g>
	<g>
		<defs>
			<polygon id="SVGID_00000074443531884097690110000008264075538480286629_" points="40.1,41.5 40.1,41.5 12.2,41.5 12.2,68.3 
				40.1,68.3 			"/>
		</defs>
		<clipPath id="SVGID_00000155110417981329988400000004987884031269397653_">
			<use xlink:href="#SVGID_00000074443531884097690110000008264075538480286629_"  style="overflow:visible;"/>
		</clipPath>
		
			<ellipse style="clip-path:url(#SVGID_00000155110417981329988400000004987884031269397653_);fill:#FFFFFF;" cx="26.2" cy="54.9" rx="14" ry="13.4"/>
	</g>
</g>
<g>
	<g>
		<defs>
			<polygon id="SVGID_00000154413000245144981010000005539768310511095458_" points="91.8,47.5 91.8,47.5 110.4,47.5 110.4,66.2 
				91.8,66.2 			"/>
		</defs>
		<clipPath id="SVGID_00000160906031476570734740000011874474349174214846_">
			<use xlink:href="#SVGID_00000154413000245144981010000005539768310511095458_"  style="overflow:visible;"/>
		</clipPath>
		
			<circle style="clip-path:url(#SVGID_00000160906031476570734740000011874474349174214846_);fill:#090909;" cx="101.1" cy="56.9" r="9.3"/>
	</g>
</g>
<g>
	<g>
		<defs>
			<polygon id="SVGID_00000114043496718754308960000002080164103632726157_" points="35.6,47.5 35.6,47.5 17,47.5 17,66.2 
				35.6,66.2 			"/>
		</defs>
		<clipPath id="SVGID_00000004539956144601258650000001785618441892557232_">
			<use xlink:href="#SVGID_00000114043496718754308960000002080164103632726157_"  style="overflow:visible;"/>
		</clipPath>
		
			<circle style="clip-path:url(#SVGID_00000004539956144601258650000001785618441892557232_);fill:#090909;" cx="26.3" cy="56.9" r="9.3"/>
	</g>
</g>
<path class="st8" d="M51.9,104.3c0-1.7,1.3-3.8,11.8-3.8s13,1.8,13,3.4s-2.9,6.6-13.4,6.6S51.9,105.9,51.9,104.3z"/>
</svg>
