<?xml version="1.0" encoding="utf-8"?>
<!-- Generator: Adobe Illustrator 26.0.1, SVG Export Plug-In . SVG Version: 6.00 Build 0)  -->
<svg version="1.1" id="Calque_1" xmlns="http://www.w3.org/2000/svg" xmlns:xlink="http://www.w3.org/1999/xlink" x="0px" y="0px"
	 viewBox="0 0 788 1005" style="enable-background:new 0 0 788 1005;" xml:space="preserve">
<style type="text/css">
	.st0{clip-path:url(#SVGID_00000031188801563557338620000012650250500636323969_);fill:#573623;}
	.st1{clip-path:url(#SVGID_00000116216914288166506740000015110571427514002574_);fill:#573623;}
	.st2{clip-path:url(#SVGID_00000134958060104082919910000008460848900878814109_);fill:#573623;}
	.st3{clip-path:url(#SVGID_00000021121251555805289270000007680743937402843280_);fill:#573623;}
	.st4{clip-path:url(#SVGID_00000163039899632492355050000001455680112964895651_);fill:#FFFFFF;}
	.st5{clip-path:url(#SVGID_00000033344919783685259510000013813549907391679617_);fill:#FFFFFF;}
	.st6{clip-path:url(#SVGID_00000007393549569903355350000009382588560106166449_);fill:#090909;}
	.st7{clip-path:url(#SVGID_00000062151745504634744670000011988716150579865524_);fill:#090909;}
	.st8{fill:#9D5E70;}
	.st9{fill:none;stroke:#6A2C18;stroke-width:2;stroke-linecap:round;stroke-miterlimit:10;}
</style>
<g>
	<defs>
		<polygon id="SVGID_1_" points="413.3,293 413.3,293 456.6,293 456.6,306.2 413.3,306.2 		"/>
	</defs>
	<clipPath id="SVGID_00000085953362372201652220000016308692837806955159_">
		<use xlink:href="#SVGID_1_"  style="overflow:visible;"/>
	</clipPath>
	<path style="clip-path:url(#SVGID_00000085953362372201652220000016308692837806955159_);fill:#573623;" d="M454.6,306.2
		c-0.3,0-0.6-0.1-0.8-0.2c-4.3-1.8-8.8-3.2-13.3-4.3c-14.6-3.3-15.5-1-20.5,0c-1.5,0.3-5-0.6-5.7-1.4s-1.4-4-0.5-4.7
		c0.4-0.3,6.9-4.8,23.5-1c6.9,1.6,17.9,7.6,18.2,7.7c1.1,0.4,1.6,1.6,1.2,2.7C456.3,305.7,455.5,306.3,454.6,306.2L454.6,306.2z"/>
</g>
<g>
	<defs>
		<polygon id="SVGID_00000058571989405278839620000013041674342455517848_" points="371.1,293 371.1,293 327.8,293 327.8,306.2 
			371.1,306.2 		"/>
	</defs>
	<clipPath id="SVGID_00000073715186586073908650000000544416924558191751_">
		<use xlink:href="#SVGID_00000058571989405278839620000013041674342455517848_"  style="overflow:visible;"/>
	</clipPath>
	<path style="clip-path:url(#SVGID_00000073715186586073908650000000544416924558191751_);fill:#573623;" d="M329.8,306.2
		c0.3,0,0.6-0.1,0.8-0.2c4.3-1.8,8.8-3.2,13.4-4.3c14.6-3.3,15.5-1,20.5,0c1.5,0.3,5-0.6,5.7-1.4s1.4-4,0.5-4.7
		c-0.4-0.3-6.9-4.8-23.5-1c-6.9,1.6-17.9,7.6-18.2,7.7c-1.1,0.4-1.6,1.6-1.2,2.7C328.2,305.7,329,306.3,329.8,306.2L329.8,306.2z"/>
</g>
<g>
	<defs>
		<rect id="SVGID_00000008860499259259532950000010673411744640624012_" x="412" y="293" width="40.1" height="9.2"/>
	</defs>
	<clipPath id="SVGID_00000091714751597519801940000001322934907887098501_">
		<use xlink:href="#SVGID_00000008860499259259532950000010673411744640624012_"  style="overflow:visible;"/>
	</clipPath>
	<path style="clip-path:url(#SVGID_00000091714751597519801940000001322934907887098501_);fill:#573623;" d="M418.1,301.3
		c-1.4,0.3-5.2-0.6-5.9-1.5s0.6-3.6,1.5-4.3c0.4-0.3,6.9-4.8,23.5-1c8,1.8,15.6,5.7,14.8,7.6C451.7,302.9,438.5,297.3,418.1,301.3z"
		/>
</g>
<g>
	<defs>
		<rect id="SVGID_00000106848964237650715870000006346011292154038417_" x="332.3" y="293" width="40.1" height="9.2"/>
	</defs>
	<clipPath id="SVGID_00000067928727884316218400000013692270859059889319_">
		<use xlink:href="#SVGID_00000106848964237650715870000006346011292154038417_"  style="overflow:visible;"/>
	</clipPath>
	<path style="clip-path:url(#SVGID_00000067928727884316218400000013692270859059889319_);fill:#573623;" d="M366.3,301.3
		c1.5,0.3,5.2-0.6,5.9-1.5s-0.6-3.6-1.5-4.3c-0.4-0.3-6.9-4.8-23.5-1c-8,1.8-15.6,5.7-14.8,7.6C332.7,302.9,345.9,297.3,366.3,301.3
		z"/>
</g>
<g>
	<defs>
		<polygon id="SVGID_00000170963146931499905190000014273966746337634719_" points="415.8,318 415.8,318 443.7,318 443.7,344.8 
			415.8,344.8 		"/>
	</defs>
	<clipPath id="SVGID_00000011030399174659386080000015242084993460688795_">
		<use xlink:href="#SVGID_00000170963146931499905190000014273966746337634719_"  style="overflow:visible;"/>
	</clipPath>
	
		<ellipse style="clip-path:url(#SVGID_00000011030399174659386080000015242084993460688795_);fill:#FFFFFF;" cx="429.7" cy="331.4" rx="14" ry="13.4"/>
</g>
<g>
	<defs>
		<polygon id="SVGID_00000080902315043550250060000012942653398309357204_" points="368.6,318 368.6,318 340.7,318 340.7,344.8 
			368.6,344.8 		"/>
	</defs>
	<clipPath id="SVGID_00000119797779733893352440000002734887110299270074_">
		<use xlink:href="#SVGID_00000080902315043550250060000012942653398309357204_"  style="overflow:visible;"/>
	</clipPath>
	
		<ellipse style="clip-path:url(#SVGID_00000119797779733893352440000002734887110299270074_);fill:#FFFFFF;" cx="354.7" cy="331.4" rx="14" ry="13.4"/>
</g>
<g>
	<defs>
		<polygon id="SVGID_00000152953960227739379270000009774485364795188621_" points="420.3,324 420.3,324 438.9,324 438.9,342.7 
			420.3,342.7 		"/>
	</defs>
	<clipPath id="SVGID_00000091728601005908874590000012131323543113315985_">
		<use xlink:href="#SVGID_00000152953960227739379270000009774485364795188621_"  style="overflow:visible;"/>
	</clipPath>
	
		<circle style="clip-path:url(#SVGID_00000091728601005908874590000012131323543113315985_);fill:#090909;" cx="429.6" cy="333.4" r="9.3"/>
</g>
<g>
	<defs>
		<polygon id="SVGID_00000091013947953586693480000014171193705340652959_" points="364.1,324 364.1,324 345.5,324 345.5,342.7 
			364.1,342.7 		"/>
	</defs>
	<clipPath id="SVGID_00000129199707006268737080000018124979428004373123_">
		<use xlink:href="#SVGID_00000091013947953586693480000014171193705340652959_"  style="overflow:visible;"/>
	</clipPath>
	
		<circle style="clip-path:url(#SVGID_00000129199707006268737080000018124979428004373123_);fill:#090909;" cx="354.8" cy="333.4" r="9.3"/>
</g>
<path class="st8" d="M380.4,380.8c0-1.7,1.3-3.8,11.8-3.8s13,1.8,13,3.4s-2.9,6.6-13.4,6.6S380.4,382.4,380.4,380.8z"/>
<path class="st9" d="M387.5,1117c3.1,0.1,7.2,0.2,11.3,0.2c4.1,0,8.1-0.1,11-0.2"/>
</svg>
