<?xml version="1.0" encoding="utf-8"?>
<!-- Generator: Adobe Illustrator 26.0.1, SVG Export Plug-In . SVG Version: 6.00 Build 0)  -->
<svg version="1.1" id="Calque_1" xmlns="http://www.w3.org/2000/svg" xmlns:xlink="http://www.w3.org/1999/xlink" x="0px" y="0px"
	 viewBox="0 0 788 1005" style="enable-background:new 0 0 788 1005;" xml:space="preserve">
<style type="text/css">
	.st0{clip-path:url(#SVGID_00000093859302244788994620000003555612847724771200_);}
	.st1{fill:#573623;}
	.st2{clip-path:url(#SVGID_00000040552185323216469000000008506253580813995924_);}
	.st3{clip-path:url(#SVGID_00000166674964516784907790000017633063592403326336_);}
	.st4{fill:#FFFFFF;}
	.st5{clip-path:url(#SVGID_00000013889086823568011140000005372062697284194472_);}
	.st6{clip-path:url(#SVGID_00000079480248974494101810000002181528270651962004_);}
	.st7{fill:#090909;}
	.st8{clip-path:url(#SVGID_00000109728807455820979560000007925728202829444511_);}
	.st9{fill:#840048;}
	.st10{fill:#C5C5C5;}
</style>
<g>
	<defs>
		<polygon id="SVGID_1_" points="411.9,293 411.9,293 455.3,293 455.3,306.2 411.9,306.2 		"/>
	</defs>
	<clipPath id="SVGID_00000113314755937552749310000000411638988248951426_">
		<use xlink:href="#SVGID_1_"  style="overflow:visible;"/>
	</clipPath>
</g>
<g>
	<defs>
		<polygon id="SVGID_00000106149836447186993990000007215280194055994040_" points="369.8,293 369.8,293 326.4,293 326.4,306.2 
			369.8,306.2 		"/>
	</defs>
	<clipPath id="SVGID_00000005959985455725236020000010822409747510188446_">
		<use xlink:href="#SVGID_00000106149836447186993990000007215280194055994040_"  style="overflow:visible;"/>
	</clipPath>
</g>
<g>
	<defs>
		<rect id="SVGID_00000060719677062489672700000000483153445920250788_" x="410.6" y="293" width="40.1" height="9.2"/>
	</defs>
	<clipPath id="SVGID_00000140692549866284916320000006674114314414437532_">
		<use xlink:href="#SVGID_00000060719677062489672700000000483153445920250788_"  style="overflow:visible;"/>
	</clipPath>
	<g style="clip-path:url(#SVGID_00000140692549866284916320000006674114314414437532_);">
		<path class="st1" d="M416.8,301.3c-1.4,0.3-5.2-0.6-5.9-1.5c-0.7-0.9,0.6-3.6,1.5-4.3c0.4-0.3,6.9-4.8,23.5-1
			c8,1.8,15.6,5.7,14.8,7.6C450.4,302.9,437.2,297.3,416.8,301.3z"/>
	</g>
</g>
<g>
	<defs>
		<path id="SVGID_00000070796914699649581660000014618475027714181558_" d="M335.5,293h31c2.5,0,4.6,2.1,4.6,4.6l0,0
			c0,2.5-2.1,4.6-4.6,4.6h-31c-2.5,0-4.6-2.1-4.6-4.6l0,0C331,295.1,333,293,335.5,293z"/>
	</defs>
	<clipPath id="SVGID_00000093888964398633687810000002372170827439203757_">
		<use xlink:href="#SVGID_00000070796914699649581660000014618475027714181558_"  style="overflow:visible;"/>
	</clipPath>
	<g style="clip-path:url(#SVGID_00000093888964398633687810000002372170827439203757_);">
		<path class="st1" d="M365,301.3c1.5,0.3,5.2-0.6,5.9-1.5s-0.6-3.6-1.5-4.3c-0.4-0.3-6.9-4.8-23.5-1c-8,1.8-15.6,5.7-14.8,7.6
			C331.4,302.9,344.5,297.3,365,301.3z"/>
	</g>
</g>
<g>
	<defs>
		<polygon id="SVGID_00000069392680546019235190000010348336730441258641_" points="414.4,318 414.4,318 442.3,318 442.3,344.8 
			414.4,344.8 		"/>
	</defs>
	<clipPath id="SVGID_00000171693639988877801610000004051831456565220496_">
		<use xlink:href="#SVGID_00000069392680546019235190000010348336730441258641_"  style="overflow:visible;"/>
	</clipPath>
	<g style="clip-path:url(#SVGID_00000171693639988877801610000004051831456565220496_);">
		<ellipse class="st4" cx="428.4" cy="331.4" rx="14" ry="13.4"/>
	</g>
</g>
<g>
	<defs>
		<polygon id="SVGID_00000111190632846980624230000005312521455574179510_" points="367.3,318 367.3,318 339.4,318 339.4,344.8 
			367.3,344.8 		"/>
	</defs>
	<clipPath id="SVGID_00000183235447107371906450000009177604150296005542_">
		<use xlink:href="#SVGID_00000111190632846980624230000005312521455574179510_"  style="overflow:visible;"/>
	</clipPath>
	<g style="clip-path:url(#SVGID_00000183235447107371906450000009177604150296005542_);">
		<ellipse class="st4" cx="353.4" cy="331.4" rx="14" ry="13.4"/>
	</g>
</g>
<g>
	<defs>
		<polygon id="SVGID_00000024719622857489976990000009319367494008944812_" points="414.5,319.3 414.5,319.3 433.1,319.3 433.1,338 
			414.5,338 		"/>
	</defs>
	<clipPath id="SVGID_00000092442614564484038200000008186073096580565182_">
		<use xlink:href="#SVGID_00000024719622857489976990000009319367494008944812_"  style="overflow:visible;"/>
	</clipPath>
	<g style="clip-path:url(#SVGID_00000092442614564484038200000008186073096580565182_);">
		<circle class="st7" cx="423.8" cy="328.6" r="9.3"/>
	</g>
</g>
<g>
	<defs>
		<polygon id="SVGID_00000111173427535681507910000016552561647686310278_" points="358.7,319.3 358.7,319.3 340.1,319.3 340.1,338 
			358.7,338 		"/>
	</defs>
	<clipPath id="SVGID_00000116205434123906046990000001238106510493063851_">
		<use xlink:href="#SVGID_00000111173427535681507910000016552561647686310278_"  style="overflow:visible;"/>
	</clipPath>
	<g style="clip-path:url(#SVGID_00000116205434123906046990000001238106510493063851_);">
		<circle class="st7" cx="349.4" cy="328.6" r="9.3"/>
	</g>
</g>
<g>
	<path class="st9" d="M375.9,381.5c0.3-0.6,1.4-1.6,3.5-2.5c2.3-1,5.8-1.9,10.6-2.1c9.6-0.4,15.9,6.1,15.9,6.1s-4.6,11.7-15.8,10.9
		C381.9,393.1,375.9,381.5,375.9,381.5z"/>
	<path class="st10" d="M390.4,381.8l-8.2-0.4l-2.2-0.9c0,0,5.3-2.3,11.4-2c6.7,0.4,10.3,2.9,10.3,2.9l-1.7,0.8L390.4,381.8z"/>
</g>
</svg>
