<?xml version="1.0" encoding="utf-8"?>
<!-- Generator: Adobe Illustrator 26.0.1, SVG Export Plug-In . SVG Version: 6.00 Build 0)  -->
<svg version="1.1" id="Calque_1" xmlns="http://www.w3.org/2000/svg" xmlns:xlink="http://www.w3.org/1999/xlink" x="0px" y="0px"
	 viewBox="0 0 211.9 233.1" style="enable-background:new 0 0 211.9 233.1;" xml:space="preserve">
<style type="text/css">
	.st0{fill:#D68F72;}
	.st1{fill:#DDC796;}
	.st2{fill:#423632;}
	.st3{fill:#C7DAEA;}
</style>
<g id="Calque_13">
	<path class="st0" d="M22.9,114.7c-10.3,0.1-16.2,2.8-17.8,7.2c0,0,11,11.2,10.8,19.4c-0.4,13.2-4.5,29.1,0,42.1
		c1,2.8,0,30.7,0,30.7c0.7,2.6,5.1,4.4,10.1,4.3l0,0c4.9-0.1,8.9-2.1,9.2-4.6c0,0,2.8-24,3.5-27.3c2.5-11.9,0.9-25.6,1.5-37.6
		c0.3-7.2,2.8-25.3,2.8-25.3C41.7,116.2,31.7,114.8,22.9,114.7L22.9,114.7z"/>
	<path class="st1" d="M140,110.6c10.1-0.7,5.8-10,8.6-5.7c0,0,14.6,64.3,17.3,72.5c4.3,13.2,8.1,30.4,8.1,30.4
		c0.1,2.6,10.2,7.3,5.3,7.6l-9.5-0.7c-4.9,0.3-10.9-0.8-11.9-3.3c0,0-21.3-50.6-25.4-62.6C130,141.6,123,121,123,121
		C121.9,113.6,131.4,111.4,140,110.6L140,110.6z"/>
	<path class="st2" d="M23.3,209.6L23.3,209.6c-4.6,0-8.7,1.4-10.7,3.5l0,0c-4.4,4.8-8.4,7.3-9.9,10.6c-0.7,1.4-0.5,4,0.3,6.2h28
		l2.6-0.4c3-0.5,4.9-1.9,4.6-3.5l-2.6-11.6C34.1,211.5,29.1,209.5,23.3,209.6z"/>
	<path class="st2" d="M168,212.4c4.7-1.1,4.2-3.3,6-4.5c1.1-0.8,2.4-2,3.2-1.1c9,10.3,29.8,16,29.8,16c4.2,1.7,5.3,4.1,4.8,6.7l0,0
		c0,0-8.6,6.3-27.9,2.2c-3.9-0.8-12.6-1.5-12.6-1.5s-16.2,0.3-15.5-2.9l-0.5-16.6C156.3,207.1,159.8,214.3,168,212.4z"/>
	<path class="st3" d="M14,209.1l24.5,0.3C37.9,207.1,66,67.6,66,67.6l0,0c0,0,39.2,62.6,42.7,67.2s42.6,75.7,42.6,75.7l0,0l24.2-6.9
		l-19.6-72l-1.5-7l-23.6-93L125,5.3c0,0-109.1-9.2-109.1-3.4S0.7,47.6,0.1,58.5C-1.5,91.6,14,209.1,14,209.1"/>
</g>
</svg>
