<?xml version="1.0" encoding="utf-8"?>
<!-- Generator: Adobe Illustrator 26.0.1, SVG Export Plug-In . SVG Version: 6.00 Build 0)  -->
<svg version="1.1" id="Calque_1" xmlns="http://www.w3.org/2000/svg" xmlns:xlink="http://www.w3.org/1999/xlink" x="0px" y="0px"
	 viewBox="0 0 220.9 292.5" style="enable-background:new 0 0 220.9 292.5;" xml:space="preserve">
<style type="text/css">
	.st0{fill:#5E6D70;}
	.st1{fill:#D68F72;}
	.st2{fill:#83B5C6;}
	.st3{fill:#6999AA;}
	.st4{fill:#87B6C7;}
	.st5{fill:#6639AE;}
</style>
<g id="Calque_9">
	<path class="st0" d="M149.3,158.4c0.5,7-5.4,13-13.8,13.9l0,0c-8,0.9-16-3.1-19-9.4c0,0-19.9-45.6-24.1-62.3
		c-1-4-2.2-15.9-2.2-15.9l-2.8-27.9c0,0-0.4-13.2,15.8-16.5c18.6-3.7,21,4.7,21,4.7s16.6,43.1,19.7,57
		C146.9,114.8,149.3,158.4,149.3,158.4z"/>
	<path class="st1" d="M41.5,156.7c-8.8-0.4-14.1,2.5-15.8,7.7c0,0-2.8,23.2-3.6,33c-1.3,15.7-0.5,48,2.4,63.7
		c0.6,3.5,1.8,13.8,1.8,13.8c0.4,3.1,4,5.6,8.3,5.7l0,0c4.2,0.1,7.7-2,8.2-5c0,0,1.5-11.8,2.3-15.7c3-14.1,11.6-42,12.9-56.3
		c0.8-8.6-0.1-35.2-0.1-35.2C57.5,159.5,49.1,157.2,41.5,156.7L41.5,156.7z"/>
	<path class="st1" d="M144.3,153.3c9-1.9,9.3,4.4,12.2,9.2c0,0,6.9,13.8,10.1,23.3c5.1,15.3,18.3,80.7,18.3,80.7
		c0.3,3.1,0.9,7.2-3.5,8.1l0,0c-4.3,0.8-9.8,0.1-11-2.8c0,0-27-55.7-31.9-69.6c-2.9-8.4-8.4-34.8-8.4-34.8
		C128.4,158.7,136.6,155.1,144.3,153.3L144.3,153.3z"/>
	<path class="st2" d="M34.4,265.3L34.4,265.3c-4.1,0.1-7.9,1.7-9.6,4.3l0,0C20.8,275.3,4,283,4,283c-3,1.6-4.5,4.2-3.8,6.8l0,0
		l41.1-0.2l2.3-0.5c2.6-0.5,4.4-2.3,4.1-4.2L45.3,271C44.1,267.6,39.6,265.2,34.4,265.3z"/>
	<path class="st3" d="M1.3,289.6L1.3,289.6c-0.6-2.3,1.8-4.5,5.1-4.8l24.4-2.5c3.1-0.3,6.1,1,6.9,3.2l1.4,4L1.3,289.6z"/>
	<path class="st4" d="M176.5,269.6c3.7-1.1,3.4-3.3,4.8-4.6c0.9-0.8,4.5-1.6,5.1-0.7c6.5,10.7,31,19.1,31,19.1
		c3.2,1.8,3.9,4.3,3.4,7l0,0c0,0-19.3,5.2-32.7-0.8c-2.7-1.2-9.7-1.7-9.7-1.7s-12.5,0.1-11.8-3.2l0.2-17.1
		C167.8,264,170.2,271.5,176.5,269.6z"/>
	<path class="st5" d="M18.6,0C18.6,0,26.1,0,18.6,0s3.1,252.9,3.1,252.9s0.7,4.8,21.4-2.5C55.3,246.1,73.3,121,85.5,115
		c10.8-5.3,62.9,137.7,75.2,135c21.1-4.7,24-5,23.3-4.6c-0.6,0.3-1.4,0.1-1.7-0.5c-0.1-0.2-0.1-0.4-0.2-0.6
		c-1.2-44.4-46.7-207.2-45.6-202.8L123,1.9l0,0L20.1,0.1"/>
</g>
</svg>
