<?xml version="1.0" encoding="utf-8"?>
<!-- Generator: Adobe Illustrator 26.0.1, SVG Export Plug-In . SVG Version: 6.00 Build 0)  -->
<svg version="1.1" id="Calque_1" xmlns="http://www.w3.org/2000/svg" xmlns:xlink="http://www.w3.org/1999/xlink" x="0px" y="0px"
	 viewBox="0 0 138.9 245.1" style="enable-background:new 0 0 138.9 245.1;" xml:space="preserve">
<style type="text/css">
	.st0{fill:#D68F72;}
	.st1{fill:#83B5C6;}
	.st2{fill:none;stroke:#6699AA;stroke-width:2;stroke-linecap:round;stroke-miterlimit:10;}
	.st3{fill:#4E6566;}
</style>
<g id="Calque_9">
	<path class="st0" d="M112.7,126.7c9.8,0.1,15.6,2.8,17.1,7.2c0,0,1.6,19.5,1.8,27.7c0.4,13.2-2.6,40-6.9,53c-0.9,2.8-3,11.4-3,11.4
		c-0.7,2.6-4.9,4.4-9.6,4.3l0,0c-4.7-0.1-8.5-2.1-8.8-4.6c0,0-0.9-9.9-1.5-13.2c-2.4-11.9-10.1-35.7-10.7-47.7
		c-0.3-7.2,2.5-29.3,2.5-29.3C94.6,128.2,104.2,126.8,112.7,126.7L112.7,126.7z"/>
	<path class="st1" d="M112.4,221.6L112.4,221.6c4.4,0,8.4,1.4,10.3,3.5l0,0c4.2,4.8,14,14,14,14c3.2,1.3,2.3,3.8,1.5,6l0,0
		l-33.1-0.1l-2.5-0.4c-2.8-0.5-4.6-1.9-4.4-3.5l2.5-14.8C102,223.5,106.9,221.5,112.4,221.6z"/>
	<path class="st2" d="M121.6,226.2c-2.1-0.8-4.2-1.3-6.4-1.4c-2.5,0-4.9,0.4-7.3,1.1"/>
	<path class="st2" d="M124.7,228.8c-2.1-0.8-4.3-1.2-6.5-1.3c-2.5,0.1-4.9,0.5-7.2,1.2"/>
	<path class="st0" d="M26.4,119.4c-9.8,0.1-15.6,2.8-17.1,7.2c0,0-1.6,19.5-1.8,27.7c-0.4,13.2,2.6,40,6.9,53
		c0.9,2.8,2.9,11.4,2.9,11.4c0.7,2.5,4.9,4.4,9.7,4.3l0,0c4.7-0.1,8.5-2.1,8.8-4.6c0,0,0.9-9.9,1.5-13.2
		c2.4-11.9,10.1-35.7,10.7-47.7c0.3-7.2-2.5-29.3-2.5-29.3C44.4,120.9,34.8,119.5,26.4,119.4L26.4,119.4z"/>
	<path class="st1" d="M26.6,214.2L26.6,214.2c-4.4,0.1-8.4,1.4-10.3,3.6l0,0c-4.3,4.8-14,14-14,14c-3.2,1.3-2.3,3.8-1.5,6l0,0
		l33.2-0.1l2.5-0.4c2.8-0.5,4.7-1.9,4.4-3.5L38.4,219C37,216.2,32.2,214.1,26.6,214.2z"/>
	<path class="st2" d="M17.4,218.8c2.1-0.8,4.2-1.3,6.4-1.4c2.5,0,4.9,0.4,7.3,1.1"/>
	<path class="st2" d="M14.3,221.4c2.1-0.8,4.3-1.2,6.5-1.3c2.5,0.1,4.9,0.5,7.2,1.2"/>
	<path class="st3" d="M138.9,171.2c-5.3,0.8-61.4,5.9-61.4,5.9l-15.7-1.4l-60.4,2.1L3.1,0.1h3.8c2,0.4,4.1,0.4,6.2,0.2
		c2.8-0.4,69.2-0.2,99.8-0.2l4.5-0.1l10,94.7L138.9,171.2z"/>
</g>
</svg>
