<?xml version="1.0" encoding="utf-8"?>
<!-- Generator: Adobe Illustrator 26.0.3, SVG Export Plug-In . SVG Version: 6.00 Build 0)  -->
<svg version="1.1" id="Layer_1" xmlns="http://www.w3.org/2000/svg" xmlns:xlink="http://www.w3.org/1999/xlink" x="0px" y="0px"
	 viewBox="0 0 588 387" style="enable-background:new 0 0 588 387;" xml:space="preserve">
<style type="text/css">
	.st0{fill:#A85B3B;}
	.st1{fill:#6D323A;}
	.st2{fill:none;stroke:#000000;stroke-width:3;stroke-miterlimit:10;}
	.st3{fill:#944E31;}
	.st4{fill:#473415;}
	.st5{fill:#472E1D;}
	.st6{fill:#4C443F;}
	.st7{fill:#5A5A5A;}
	.st8{fill:#3D3D3D;}
	.st9{fill:#161615;}
</style>
<polygon points="141.9,390.5 142,390.4 141.9,390.4 "/>
<polygon points="142,390.4 142.1,390.5 142.1,390.4 "/>
<polygon points="141.9,390.5 142,390.4 141.9,390.4 "/>
<polygon points="142,390.4 142.1,390.5 142.1,390.4 "/>
<path class="st0" d="M427.5,154.7c-0.6,38.4-26.2,33.2-36.9,42.3c-12.6,10.8-8.3,50-17.2,64c-2.5,3.8-11.4,10.1-15.8,9.1
	c-12.5-2.9-24-30.7-34.8-37.7c-6.3-4.1-23.6-3.6-30.2,0c-11.2,6.2-22.3,34.9-34.8,37.7c-4.4,1-13.4-5.2-15.8-9.1
	c-8.9-14-4.6-53.2-17.2-64c-10.6-9.1-36.2-3.9-36.9-42.3c-0.4-26.6,35-37.3,35-37.3L263,97.5c2.6-1.3,5-2.9,7.1-4.8
	c0.8-0.7,1.6-1.5,2.3-2.3l0.6-0.7v-0.1c3.9-4.7,6.5-10.4,7.2-16.4c0.2-1.4,0.3-2.8,0.2-4.2v-2.8v-4.5H334l0.1,5v1.5v3.2
	c0,0.3,0,0.7,0,1l0,0c0,0.6,0.1,1.3,0.2,2c0.2,1.5,0.5,3.1,0.9,4.6c2.2,7.7,7.6,14,14.7,17.6l40.6,20.1c1,0.5,2.1,1,3.2,1.3
	C400.6,120.3,427.8,131.4,427.5,154.7z"/>
<path class="st0" d="M335.1,109.9l-27.5,32.5l-14.8-17.7l-12.4-14.8l0.7-41.6v-2.2l0.1-4.5h53v0.2l0.1,4.7l0,0v1.6l0.1,4.2l0,0v1.3
	l0.1,6.8L335.1,109.9z"/>
<path class="st1" d="M335.6,79.2l-1,1.2c-5.2,6.3-28.8,35-41.8,44.3c-3.2,2.3-5.7,3.4-7.2,2.7c-6.8-3.3-14.8-35.1-14.8-35.1l0.1-0.1
	c0.6-0.6,1.2-1.2,1.7-1.9c0.3-0.4,0.7-0.8,1-1.3l0.1-0.1c3.3-4.5,5.5-9.7,6.7-15.2c0-0.2,0.1-0.4,0.1-0.6c0.3-1.4,0.5-3,0.7-4.8
	c0.1-0.7,0.1-1.4,0.2-2.2c0.1-1.4,0.2-2.9,0.3-4.5h52.7v0.2v4.3v6.7l0.1,0.8l0.1,0.7l0.9,4.6L335.6,79.2z"/>
<path class="st2" d="M369.6,161.5c11.9,25,40.9,38.8,40.9,38.8s53,32.8,70.4,44c8.2,5.3,25.2,16.6,39-3.6l0,0
	c11.3-16.6-2.8-30.4-10.2-36.2c-15-11.8-47.9-32.6-60.5-46.7c-9.4-10.5-19.8-30.3-43.1-36.2c0,0-18.6-6.9-31.8,8.3l-0.5,0.6
	C366.4,139,364.7,151.2,369.6,161.5L369.6,161.5z"/>
<path class="st3" d="M505.9,206.7c-18.6-7.2-32.7,11.8-37.4,19s-10.7,23.9-13.6,32.1c-7.5,21-17.5,57.3-25.2,77.8
	c-5,13.5-8.1,20.4-0.3,25.9c7,5,16.1-5.8,19.7-9.9c14.8-17.2,44.3-50.4,56.8-70.9c5.2-8.4,14-26.4,16.1-36
	C528,217.7,511.3,208.7,505.9,206.7z"/>
<path class="st3" d="M134.6,269.7c16.7-6.4,14.8-30,13.7-38.4c-1.1-8.5-7-25.1-10-33.4c-7.5-20.9-31.2-83.8-33-105.5
	c-1.2-15.1-26,2.2-26,2.2s5.6,17.1,7.1,27.7c3,22.4,0.5,53.3,4.2,90.7c1,9.9,6.4,29.1,10.7,37.9
	C113.2,275.3,129.8,271.6,134.6,269.7z"/>
<path class="st2" d="M247,161.8c-8.5,26.3-35.5,43.8-35.5,43.8s-48.2,39.4-64.1,52.8c-7.5,6.3-22.8,19.7-39.1,1.5l0,0
	c-13.4-15-1.2-30.5,5.4-37.2c13.3-13.7,43.2-38.6,53.9-54.2c7.9-11.6,15.6-32.7,38-41.5c0,0,17.5-9.3,32.6,4l0.6,0.5
	C247.3,139,250.5,150.9,247,161.8z"/>
<polygon class="st3" points="434.7,321.2 418.6,352.2 422,364.7 426,376.7 431.5,370.7 452,348.3 "/>
<polygon points="142.6,394.7 142.7,394.6 142.6,394.6 "/>
<polygon points="142.7,394.6 142.8,394.7 142.8,394.6 "/>
<polygon points="142.6,394.7 142.7,394.6 142.6,394.6 "/>
<polygon points="142.7,394.6 142.8,394.7 142.8,394.6 "/>
<polygon class="st4" points="229.1,366.4 230.6,343.9 385.6,343.9 387.6,363.4 "/>
<circle class="st5" cx="376.3" cy="337.2" r="4.7"/>
<path class="st3" d="M432.5,357.9c2,3.2,3.1,9-3,14.8c0,0-17.6,20.2-25.4,24.3c-3.5,1.8-12.8,6.3-15.4,3.3
	c-7.3-8.4-12.1-28.6-9.7-41.7c0.7-3.9,9.4-8,13.3-8.8c4.3-0.8,13,2.6,17.3,2.8c2.4,0,4.8-0.1,7.2-0.4
	C422.8,351.7,429.7,353.5,432.5,357.9z"/>
<path class="st6" d="M115.3,169c1-1.8,2.2-3.5,3.1-5.4c0.7-1.4,0.6-2.9-0.4-4.3c-0.9-1.3-2-1.5-3.2-0.6c-1.8,1.3-3.6,2.6-5.4,3.9
	c-1.6,1.1-3.4,2-5.4,2.2c-5.4,0.4-9.4-4.1-8.9-9.8c0.3-3.6,2.8-6.5,6.7-7.5c2.1-0.6,4.2-0.7,6.3-1.2c1.2-0.3,2.3-0.7,3.4-1.3
	c0.9-0.5,1.6-1.5,1.1-2.6c-0.4-1-1.6-1.2-2.5-1c-1.6,0.5-3.1,1.1-4.6,1.8c-1.8,0.8-3.5,1.9-5.3,2.7c-4.1,1.7-9.1-0.6-10.5-4.7
	c-1.1-3.2,0.7-7.2,4.1-8.6c2.6-1.1,5.2-1.3,7.9-0.6c1.1,0.3,2.2,1.1,3.1,1.8c0.7,0.5,0.9,1.3-0.1,1.8c-1.1,0.6-2.3,1.3-3.5,1.5
	c-0.8,0.2-1.8-0.3-2.5-0.7c-1.2-0.7-2.4-1.8-3.9-0.8c-1.4,0.8-2.5,1.9-2.4,3.7s1,3.3,2.6,4c0.6,0.3,1.5,0.2,2.2-0.1
	c3.1-1.5,6.1-3.2,9.1-4.8c0.9-0.5,1.9-1,2.8-1.4c3.4-1.2,7.2,0.9,8.4,4.5c1.1,3.4-0.8,7-4.4,7.8c-1.1,0.3-2.3,0.1-3.5,0
	c-3.1-0.3-6.1,0.1-8.8,1.9c-1.6,1.2-2.5,2.7-2.7,4.7c-0.4,4,4.5,6.7,7.5,4.8c1.9-1.2,3.6-2.9,5.5-4.2c1.2-0.9,2.5-1.8,3.9-2.2
	c3.3-1,6.1,1.1,6,4.6C120.8,163.4,118.5,166.5,115.3,169z M100.2,135.8c0.1-0.1,0.1-0.2,0.2-0.3c-0.3-0.2-0.7-0.5-1-0.7
	c-0.1,0.1-0.2,0.2-0.2,0.4C99.5,135.4,99.9,135.6,100.2,135.8z"/>
<path class="st3" d="M99.1,90c0.9-0.4,5.4,1.5,6,0.8c-1.8-3.7,7.3-18.2,7.9-20.8c0.6-3.2,1.2-17.3,2.1-19.8
	c0.9-2.5,9.6-15.2,8.1-15.9c-0.9-0.4-3.4-1.3-5.4-2.2c-1.9-0.7-4-0.1-5.3,1.5l-5.7,6.5c-0.4,0.6-0.8,1.3-1.1,1.9l-1.6,5.9
	c-0.8,2.6-4.3,2.7-5.2,0.3l-0.2-4.2c-0.1-0.2-5.1-8.1-5.1-8.3c-2.3-3.4-10.3-0.1-10.3-0.1c-0.1-0.1-6.6,2.8-8.8,4
	c-0.6,0.3-1.1,0.6-1.6,1l-5,2.9c-4.4,2.5-7.8,6.2-9.7,10.7c-0.9,2.1-1.2,4-0.3,5.2c0.2,0.3,0.4,0.6,0.5,1l13.4,30.6
	c0.4,1,1.3,1.8,2,2.4l5,2.9c1.3,0.6,2.7,0.8,4,0.3L99.1,90z"/>
<path class="st7" d="M107.9,38.2c-1.8-1.8-3.6-3.6-5.5-5.4c-0.4-0.4-1-0.4-1.4-0.1c-0.1,0.1-0.2,0.2-0.3,0.3
	c-0.5,0.4-1.1,0.3-1.5-0.2c-0.5-0.7-1.1-1.3-1.6-2c-0.4-0.4-0.3-1.1,0.1-1.4c0.4-0.4,0.8-0.8,1.3-1.2c0.4-0.4,0.4-1,0.1-1.4
	c-1.2-1.5-2.9-2.8-0.9-4.7c2-1.8,3.2,0,4.6,1.3c0.4,0.4,1,0.4,1.4,0l1.7-1.5c0.4-0.4,1.1-0.3,1.5,0.2c0.5,0.6,1,1.3,1.5,2
	c0.3,0.4,0.3,1,0,1.3c-0.3,0.3-0.6,0.8-1.1,1.3c-0.3,0.4-0.3,1,0,1.4c1.6,1.7,3,3.9,4.9,4.7c1.9,0.7,3.4,1.3,4.6,2.8
	c0.1,0.1,0.1,0.1,0.2,0.3c0,1.1-3,2-0.1,3.4c0.5-0.5,1.1-1.2,1.7-1.8c0.3-0.3,0.4-0.7,0.2-1.1c-1.2-3.3-0.9-4.2,2.2-7.1
	c4.1-3.8,8.4-7.6,12.5-11.5c2.6-2.4,3.9-2.6,6.8-1.1c0.4,0.2,0.9,0.1,1.2-0.2c0.4-0.4,0.9-0.9,1.6-1.5c0.4-0.4,0.4-1.1,0-1.6
	c-1.6-1.5-3.2-2.9-4.6-4.3c-1.4-1.4-3.4-2.9-1.2-4.9c2.1-1.9,3.4,0.3,4.6,1.6c0.3,0.3,0.6,0.6,0.9,1c1,0.9,1.9,1,2.9-0.3
	c4.1-5.2,9-4.9,12.6,0.4c0.4,0.6,1.4,1.1,2.1,1.2c0.7,0.1,1.5,0.2,2.3,0.2c0.6,0,1,0.5,1,1.1c0,0.9,0,1.7-0.1,2.5c0,0.5-0.5,1-1,1
	c-0.6,0-1.2,0-1.8,0c-1.4-0.1-2.4,0.2-3.5,1.5c-0.9,1-2.1,1.8-3.2,2.5c-0.5,0.4-0.6,1.1-0.2,1.6c3.5,3.8,7.2,7.8,11,12
	c0.3,0.4,0.9,0.5,1.4,0.2c2-1.3,3.4,0.5,4.9,2.1c1.3,1.4,1.7,2.8,0.5,4.2c-0.3,0.4-0.4,0.9-0.1,1.3c0.1,0.2,0.2,0.3,0.3,0.5
	c0.3,0.4,0.2,1-0.2,1.3c-1.3,1.2-2.3,2.9-4.6,1.9c-0.5-0.2-1.6,0.6-2.3,1.2c-7.3,6.6-14.5,13.3-21.7,20c-0.8,0.8-0.8,2.4-1.4,3.4
	c-0.5,1-1.2,1.9-1.8,2.7c-0.4,0.5-1.2,0.6-1.6,0.1c-8.7-9.5-17.2-18.9-25.7-28.2c-0.3-0.3-0.7-0.4-1.1-0.3c0,0,0,0,0,0
	c-0.4,0.1-0.7,0.5-0.7,0.9c0,0.6-0.1,1.2,0.1,1.5c2.3,3.4,2.2,5.2-0.8,8c-6.7,6.2-13.4,12.4-20.1,18.6C87.3,73,85,73,82.2,69.9
	c-1.6-1.7-3.2-3.4-4.6-5c-2.8-3.1-2.8-5.5,0.2-8.2c6.7-6.3,13.5-12.5,20.3-18.7c2.8-2.6,5-2.6,7.8,0c0.3,0.4,0.8,0.7,1.1,0.9
	C107.6,38.5,107.7,38.3,107.9,38.2z M145.2,19.9c-0.4,0.3-0.6,0.8-0.4,1.3c1.3,2.9,0.9,4.3-1.6,6.6c-4.1,3.8-8.2,7.4-12.2,11.4
	c-2.3,2.2-4.6,3.6-7.3,1.8c-0.3-0.2-0.8-0.2-1.1,0c-0.4,0.3-0.8,0.5-1.1,0.7c-0.5,0.4-0.6,1.1-0.2,1.6c2.5,2.6,4.7,5.1,6.9,7.4
	c0.4,0.4,0.9,0.5,1.4,0.2c0.4-0.3,0.8-0.5,1.2-0.8c0.4-0.3,0.5-0.8,0.3-1.3c-1.3-2.8-0.9-4.2,1.3-6.3c4.4-4,8.7-8,13.1-12
	c2.8-2.5,4-2.8,6.9-1.3c0.4,0.2,0.9,0.1,1.2-0.1l0.6-0.6c0.5-0.4,0.5-1.1,0.1-1.6c-2.4-2.6-4.7-5.1-6.8-7.5c-0.4-0.4-1-0.5-1.4-0.1
	C145.8,19.5,145.5,19.7,145.2,19.9z M158.2,31.7c-0.4,0.3-0.9,0.6-1.3,0.8c-0.4,0.3-0.6,0.8-0.4,1.3c1.3,2.9,0.9,4.2-1.5,6.4
	c-4.1,3.8-8.2,7.4-12.2,11.4c-2.3,2.2-4.6,3.8-7.5,1.9c-0.4-0.3-1-0.2-1.3,0.1c-0.3,0.3-0.6,0.6-0.8,0.8c-0.4,0.4-0.4,1.1,0,1.5
	c1.1,1.2,2.2,2.4,3.2,3.5c0.4,0.4,1.1,0.4,1.5,0.1c8.2-7.6,16.4-15.2,24.7-22.8c0.4-0.4,0.5-1.1,0-1.5c-1-1-2-2.1-3-3.2
	C159.2,31.4,158.6,31.4,158.2,31.7z M151.3,12.4c0.4,0.6,1.2,0.6,1.6,0.2c0.9-0.9,1.7-1.6,1.7-2.2c0.1-0.8-1.3-2.4-2-2.4
	c-0.8-0.1-2.3,1.2-2.4,2C150,10.5,150.6,11.3,151.3,12.4z"/>
<path class="st7" d="M65.6,76.3c3.2-3,6.4-6,9.5-8.9c0.4-0.3,0.9-0.3,1.2,0.1c1,1.1,2,2.2,3,3.2c0.3,0.4,0.3,0.9,0,1.2
	c-3.1,2.9-6.4,5.8-9.7,8.9c-0.4,0.3-0.9,0.3-1.3-0.1c-0.8-1-1.7-2.1-2.7-3.1C65.2,77.2,65.2,76.7,65.6,76.3z"/>
<path class="st8" d="M58.4,87.4c1.9-2.6,4-5.3,6-8c0.3-0.4,0.8-0.4,1.2-0.1c0.4,0.3,0.8,0.7,1.2,1c0.4,0.3,0.4,0.9,0,1.2
	c-2.6,2.3-5.1,4.4-7.7,6.6C58.8,87.8,58.6,87.6,58.4,87.4z"/>
<path class="st3" d="M97,56.8l-17.8,9.4c-4.9,2.6-11,0.7-13.6-4.2l0,0c-2.6-4.9-0.7-11,4.2-13.6l23.7-13l6.7,11.1
	C102.1,50.1,100.6,54.8,97,56.8z"/>
<path class="st6" d="M452.1,327.7c1.7,3.7-1.6,5.5-3.1,8.1c-0.7,1.7-1.9,3-3,4.6c-1,1.2-0.5,2.3,0.5,3.1c0.2,0.2,0.6,0.3,0.8,0.5
	c0.3,0.9,0.9,1.6,0.9,2.8c0.2,0.2-1.2,0.9-1.2,0.9c-0.8-0.5-1.1-1.5-2-2.7c-1.3-0.2-2,0.4-2.1,2.3c-0.1,0.9-0.2,1.7-0.5,2.3
	c-3.8,5.2-7.9,9.9-13.2,13.5c-0.7,0.6-1.4,0.7-2.6,1.2c0.3-2.1,0-3.5,0.7-5.2c2-5,4.4-9.9,6.6-15.1c0.3-0.6,1.3-1.4,2.2-1.7
	c1.6-0.9,1.8-1.7,1.3-2.9c-1.5-0.4-2.3-0.5-3.2-0.7c0,0-0.3-1.3,0-1.5c0.9-0.3,1.6-0.4,2.5-0.8c0,0,0.2,0.2,0.4,0.1
	c-0.7,0.1-1.2,0.5-1.8,0.6c1.2,0.6,2.3,1,3.7,1.4c-0.6-0.7-1.1-1.5-1.9-2c3.3,1.3,3.1,1.1,5.1-1.9c0.8-1.4,1.9-3,3-4.2
	c0.4,0.5,0.7,1,1.1,1.9c0.8-1,1.1-1.6,1.8-2.2c-0.2-0.2-0.2-0.2-0.4-0.5c-0.9,0.3-1.8,0.6-2.8,0.9c0.8-1,1.4-2.2,2.4-3.4
	c0.4,0.5,0.7,1,0.9,1.6c0.2-0.2,0.5-0.8,0.8-1c-0.6-0.3-1.2-0.6-1.9-0.5c0.8-1,1.6-2,1.9-3c0.5-1.9,2.4-1.9,3.8-2.5
	c0.2-0.2,1.4,0.8,1.8,1.3c0.6,0.7,0.6,1.8,0.9,2.8C454.4,326.7,454.6,330,452.1,327.7c0.3-0.6,0.7-1.7,0.7-1.7
	c-0.8-0.5-1.7-0.7-2.3-1c-0.2,0.2-0.3,0.6-0.5,0.8C450.8,326.4,451.6,327,452.1,327.7z M438.7,346c0.9-0.3,1.3-0.3,2.4-0.3
	c-1.2,2.5-3.8,3.6-3.3,6.8c-3.2,0.9-6.7,4.3-8.9,9.5c3.7-1.7,6.1-4.6,8.8-7.1c2.8-2.9,4.1-6.2,4.6-10.1c-0.7,0.1-1.5,0-2.2,0.1
	c-0.3-0.9-0.7-1.4-0.8-2.1c-7.1,3.9-9.3,10.5-10.5,18c2.2-3.6,6.3-6.4,5-11.1c2.9-0.7,3.2-3.9,5.4-5.6
	C438.4,344.6,438.6,345.3,438.7,346z M442,340.8c1.6-0.4,3.1-0.5,2.9-2.2c-0.1-0.7-1.4-1.3-2-1.2C441.1,337.6,442,339.2,442,340.8z
	 M449.8,331.8c-0.2-0.2-0.4-0.1-0.6-0.3c-0.3,0.6-0.7,1.7-1,2.7C450.6,333.8,449.9,332.4,449.8,331.8z M447.6,346.1
	c0.2-0.2,0.5-0.4,0.7-0.6c-1-0.8-1.7-1.8-2.7-2.6l-0.2,0.2C445.9,344.3,446.9,345.1,447.6,346.1z M451.7,329.2
	c-0.5,0.4-1.2,0.5-1.2,0.9c-0.2,0.2,0.1,0.7,0.3,0.9c0.2-0.2,1.1-0.1,1.2-0.5C452.2,330.3,451.8,329.8,451.7,329.2z M446,333.9
	c-0.2-0.2-0.1-0.7-0.3-0.9c-0.7,0.1-1.2,0.5-2.1,0.8c0.2,0.2,0.4,0.5,0.1,0.7C444.6,334.5,445.3,334.4,446,333.9z M447.7,334.5
	c-0.2,0.2-0.4-0.1-0.7,0.1c0.1,0.7,0,1.5,0.1,2.2c0.2-0.2,0.4,0.1,0.7-0.1C447.7,336.1,447.8,335.2,447.7,334.5z"/>
<g>
	<path class="st6" d="M101,117.1c0,0.6,0.5,0.9,0.9,1.2c0.3,0.2,0.6,0.6,0.7,0.9c0.2,0.7,0.2,1.5,1.2,1.8c-0.7,0.3-1.1,0.2-1.5-0.6
		c-0.3-0.6-0.7-1.1-1.3-1.4c-0.4-0.2-0.8-0.3-1.3-0.5c0.2,1.5,0.4,3.1,0.5,4.6c-0.1,0-0.2,0.1-0.3,0.1c-0.5-1.5-1-2.9-1.7-4.3
		c-0.3,0.4-0.6,0.7-0.9,1.1c-0.5,0.4-0.5,1-0.5,1.7c0,0.8-0.2,1.1-1.1,1.3c0.8-0.8,0.4-1.5,0.2-2.3c-0.1-0.3,0.1-0.7,0.2-1.1
		c0.2-0.4,0.2-0.9,0.4-1.3c-0.1,0-0.2,0-0.2-0.1c-1,1.3-2.1,2.7-3,3.9c-0.1,0-0.2-0.1-0.3-0.1c0.7-1.5,1.4-3,2.1-4.6
		c-0.6-0.1-0.8,0.3-1.1,0.7c-0.4,0.6-0.8,0.9-1.4,0.9c-0.7,0-1.1,0.5-1.4,1c-0.3-0.6-0.1-1,0.6-1.4c0.4-0.2,0.8-0.6,1.2-1
		c0.1-0.2,0.2-0.5,0.3-0.7c0.1-0.3,0.3-0.6,0.4-0.9c-1.5,0.2-3.1,0.4-4.6,0.5c0-0.1-0.1-0.2-0.1-0.3c1.5-0.5,2.9-1,4.3-1.7
		c-0.9-0.7-1.6-1.6-2.9-1.5c-0.7,0.1-1-0.2-1.1-1c0.7,0.6,1.4,0.4,2.1,0.2c0.3-0.1,0.8,0.1,1.2,0.2c0.5,0.2,0.9,0.4,1.4,0.2
		c-1.4-1.1-2.7-2.1-4-3.1c0-0.1,0.1-0.2,0.1-0.3c1.5,0.7,3,1.4,4.6,2.1c0.1-0.5-0.3-0.8-0.7-1.1c-0.7-0.4-0.8-0.9-0.9-1.5
		c-0.1-0.5-0.5-1-0.7-1.4c0.4-0.1,0.7,0,1.2,0.7c0.3,0.4,0.8,1,1.2,1.4c0.4,0.2,0.9,0.4,1.4,0.6c-0.2-1.5-0.4-3.1-0.5-4.6
		c0.1,0,0.2-0.1,0.3-0.1c0.5,1.5,1,2.9,1.7,4.3c0.3-0.4,0.6-0.6,0.9-1c0.5-0.5,0.6-1.1,0.5-1.7c0-0.8,0.2-1.1,0.9-1.3
		c-0.1,0.4-0.3,0.8-0.3,1.2c0,0.4,0.3,0.7,0.3,1.1c0.1,0.3-0.1,0.7-0.2,1c-0.2,0.5-0.5,0.8-0.2,1.4c1.1-1.4,2.1-2.7,3.1-3.9
		c0.1,0,0.2,0.1,0.3,0.1c-0.7,1.5-1.4,3-2.1,4.6c0.5,0.1,0.7,0,1-0.6c0.4-0.7,0.9-0.9,1.6-1c0.5-0.1,1-0.5,1.4-0.7
		c0.2,0.2,0.1,0.4-0.1,0.8c-0.2,0.2-0.5,0.4-0.8,0.5c-0.6,0.3-1.1,0.9-1.3,1.5c-0.1,0.3-0.3,0.7-0.4,1c1.5-0.2,3.1-0.4,4.6-0.6
		c0,0.1,0.1,0.2,0.1,0.2c-1.5,0.5-2.9,1-4.3,1.7c0.4,0.3,0.7,0.8,1.2,1c0.5,0.3,1.1,0.3,1.6,0.4c0.8,0.1,1.2,0.3,1.3,1
		c-0.4-0.2-0.8-0.3-1.2-0.3c-0.4-0.1-0.7,0.3-1.1,0.3c-0.3,0.1-0.7-0.1-1-0.2c-0.5-0.2-0.8-0.5-1.5-0.2c1.4,1.1,2.7,2.1,4,3.1
		c0,0.1-0.1,0.2-0.1,0.3C104,118.5,102.5,117.8,101,117.1z M95.1,115.4c-0.7,0.5-0.7,0.7-0.2,1.3c1.1,1.4,3,1.7,4.5,0.9
		c1.8-1,2.2-2.5,2-4.2c-0.4-1.9-2.1-3.1-3.9-2.9c-1.9,0.2-3.4,1.7-3.5,3.5c-0.1,0.6-0.1,1.2,0.4,1.8
		C94.7,115.6,94.9,115.6,95.1,115.4z M99.1,107.1c0.2,1.3-1.3,2-1.5,3.1c0.5,0.1,1,0.1,1.3,0.2c0.2-0.6,0.2-1.1,0.5-1.5
		C99.7,108.2,99.4,107.7,99.1,107.1z M94,116c-0.8,0.9-0.7,2.5-2.2,2.8c0.9,0,1.6-0.2,2.1-1c0.1-0.3,0.6-0.5,0.9-0.7
		C94.5,116.7,94.4,116.4,94,116z M93.3,108.5c-0.1,0.7,0,1.2,0.7,1.7c0.4,0.2,0.7,0.7,1.1,1.1c0.3-0.2,0.7-0.4,1.1-0.8
		C95.3,109.7,93.7,109.9,93.3,108.5z M96.7,118.2c-0.2,0.5-0.2,1.1-0.4,1.5c-0.4,0.7-0.3,1.2,0.2,1.8c-0.2-1.4,1.3-2,1.5-3.1
		C97.5,118.3,97.1,118.3,96.7,118.2z M101.7,115.3c0.4,0.1,0.9,0,1.2,0.3c0.7,0.5,1.5,0.4,2.3-0.1c-1.1,0.1-1.8-0.3-2.5-1
		c-0.2-0.2-0.6-0.4-0.9-0.5C101.8,114.5,101.7,115,101.7,115.3z M90.3,113c1-0.1,1.8,0.3,2.4,1c0.3,0.2,0.7,0.4,0.9,0.5
		c0.1-0.6,0.1-1,0.2-1.4c-0.4-0.1-0.8,0-1.2-0.3C92,112.5,91.3,112.5,90.3,113z M102.3,120c0-0.7,0-1.2-0.7-1.7
		c-0.4-0.2-0.7-0.7-1.1-1.1c-0.3,0.2-0.7,0.5-1.1,0.8C100.3,118.9,101.8,118.8,102.3,120z M100.8,111.5c0.3,0.3,0.5,0.7,0.8,1.1
		c0.8-0.8,0.7-2.4,2.2-2.8c-1,0.2-1.4-0.1-2.1,1C101.5,111.1,101.1,111.2,100.8,111.5z M93.6,120.9c0.1,0,0.1,0,0.2,0.1
		c0.7-1,1.5-2,2.2-3c-0.1,0-0.1-0.1-0.2-0.1c-0.2,0.4-0.5,0.6-0.7,1c0,0-0.1,0-0.1-0.1c0.2-0.4,0.4-0.8,0.6-1.1
		c-0.1,0-0.1,0-0.2-0.1C94.7,118.7,94.1,119.8,93.6,120.9z M102.3,116.9L102.3,116.9c-0.4-0.1-0.8-0.2-1.2-0.5c0,0.1,0,0.2-0.1,0.3
		c1.1,0.6,2.3,1.1,3.4,1.7c0-0.1,0-0.1,0.1-0.2c-1-0.7-2-1.5-3-2.2c0,0.1-0.1,0.1-0.1,0.2C101.6,116.4,102,116.7,102.3,116.9z
		 M98.6,118.3c-0.1,0-0.1,0.1-0.2,0.1c0.5,1.2,0.8,2.4,1.3,3.6c0.1,0,0.1,0,0.2-0.1c-0.1-1.2-0.4-2.5-0.5-3.8c-0.1,0-0.2,0-0.2,0.1
		c0,0.5,0.2,1.1,0.2,1.6l0,0C98.9,119.3,98.7,118.8,98.6,118.3z M96.4,110.4c0.1,0,0.2,0,0.2-0.1c-0.1-0.6-0.2-1.1-0.3-1.8l0,0
		c0.2,0.5,0.4,1.1,0.6,1.6c0.1,0,0.1-0.1,0.2-0.1c-0.5-1.2-0.8-2.4-1.3-3.6c-0.1,0-0.1,0-0.2,0.1C96.1,108,96.2,109.2,96.4,110.4z
		 M93.2,111.5L93.2,111.5c0.4,0.1,0.8,0.3,1.2,0.5c0-0.1,0-0.1,0.1-0.2c-1.1-0.6-2.2-1.1-3.3-1.6c0,0.1,0,0.1-0.1,0.2
		c1,0.7,2,1.5,3,2.2c0-0.1,0.1-0.1,0.1-0.2C93.9,112,93.6,111.8,93.2,111.5z M100,111c0.1,0,0.2,0,0.2,0.1c0.6-1.1,1.1-2.3,1.7-3.4
		c-0.1,0-0.1,0-0.2-0.1c-0.7,1-1.5,2-2.2,3c0.1,0,0.1,0.1,0.2,0.1c0.2-0.4,0.5-0.6,0.7-1l0.1,0C100.3,110.1,100.2,110.5,100,111z
		 M90.2,116c0,0.1,0.1,0.1,0.1,0.2c1.2-0.1,2.4-0.4,3.6-0.5c0-0.1,0-0.1-0.1-0.2c-0.5,0-0.9,0.1-1.4,0.2l0-0.1
		c0.4-0.1,0.9-0.3,1.4-0.4c0-0.1-0.1-0.1-0.1-0.2C92.5,115.2,91.4,115.6,90.2,116z M101.7,112.9c0,0.1,0,0.1,0.1,0.2
		c0.5,0,0.9-0.2,1.4-0.2l0,0.1c-0.4,0.1-1,0.4-1.4,0.5c0,0.1,0.1,0.1,0.1,0.2c1.2-0.4,2.3-0.8,3.5-1.2c0-0.1,0-0.1-0.1-0.2
		C104.1,112.5,102.8,112.8,101.7,112.9z"/>
	<path class="st6" d="M98.8,113.9c-0.1,0-0.3-0.1-0.4-0.2c0.1-0.3,0.2-0.4,0.5-0.2c0.3,0.1,0.8,0.2,1-0.4c0-0.1,0.2-0.1,0.3-0.2
		l0.2,0.1c0,0.1-0.1,0.3-0.1,0.3C99.8,113.5,99.4,113.6,98.8,113.9z"/>
	<path class="st6" d="M96.9,113.7c-0.2,0.7-0.2,0.7-0.8,0.6c-0.2,0-0.5,0.1-0.7,0.1c-0.1,0-0.3,0-0.4-0.2l0-0.2c0.1,0,0.2,0.1,0.3,0
		c0.3,0,0.5,0,0.8-0.1C96.4,114,96.5,113.9,96.9,113.7z"/>
	<path class="st6" d="M95.8,112.5c0-0.2,0-0.3,0.1-0.4c0.1,0.1,0.2,0.2,0.3,0.2c0.1-0.2,0.2-0.4,0.4-0.5c0.1,0.1,0.2,0.2,0.3,0.3
		C96.4,112.2,96.1,112.3,95.8,112.5z"/>
	<path class="st6" d="M97.1,113.5c-0.3-0.1-0.7-0.3-1-0.4c0-0.1,0-0.1,0.1-0.2c0.3,0.1,0.6,0.4,0.9,0.5
		C97.1,113.4,97.1,113.4,97.1,113.5z"/>
	<path class="st6" d="M95.4,115.9c-0.2,0.2-0.3,0.3-0.6,0.4c0-0.2,0-0.3,0.2-0.5C95.1,115.9,95.3,115.9,95.4,115.9z"/>
	<path class="st6" d="M98,113c0.1-0.3,0.4-0.5,0.5-0.7c0.1,0,0.1,0.1,0.2,0.1c-0.1,0.3-0.4,0.5-0.5,0.7C98.1,113.1,98,113,98,113z"
		/>
	<path class="st6" d="M97.5,116.5c0.5-0.1,0.9-0.3,1.5-0.3C98.4,116.3,98,116.4,97.5,116.5z"/>
	<path class="st6" d="M98.8,111.7c-0.2,0.1-0.4,0-0.5,0.1l0,0c0.1-0.1,0.1-0.3,0.2-0.4C98.5,111.5,98.6,111.6,98.8,111.7z"/>
	<path class="st6" d="M97.9,111.9c-0.1-0.1-0.1-0.3-0.1-0.4c0.1,0,0.1,0,0.2-0.1c0.1,0.1,0.1,0.3,0.1,0.4
		C98,111.9,97.9,111.9,97.9,111.9z"/>
	<path class="st6" d="M97.8,115.3c-0.1,0-0.3,0-0.4-0.1l0-0.1c0.1,0,0.2-0.1,0.4,0C97.9,115.2,97.8,115.3,97.8,115.3z"/>
	<path class="st6" d="M98.6,115c-0.1,0.1-0.2,0.2-0.3,0.3l-0.1-0.1C98.3,115.1,98.4,115,98.6,115C98.5,115,98.6,115,98.6,115z"/>
</g>
<path class="st7" d="M407.3,423.2L400,272.5c0-0.2,0-0.4,0-0.6c0-0.3,0-0.7,0-1l0.9-57.6c0-2.6,2.9-4.3,5.2-3l45.6,24.6
	c4,2.2,5.9,6.9,4.5,11.2l-22.3,70c-0.3,0.9,0.1,1.8,1,2.2l33.9,15.3c0.8,0.3,1.7,0.1,2.2-0.6l35-47.5c7.5-10.2,12.7-21.8,15.2-34.2
	l3.5-17.5c2.1-12.1-2.1-24.5-11.3-32.8l-77.1-69.4c-9.1-8.2-19.9-14.2-31.6-17.6L364,102c-2.4-0.7-5-0.4-7.1,0.7l-43.2,23.1
	c-2.9,1.5-6.3,1.5-9.1-0.1L260.7,101c-2.7-1.5-5.9-1.6-8.6-0.3l-39.9,18.5c-8.7,4-16.7,9.6-23.5,16.4l-12,12.1
	c-0.2,0.2-0.4,0.4-0.6,0.7l-28.2,37.2c-2.2,2.7-6.5,1.7-7.2-1.7l-10.5-31.5c-0.6-1.9-2.5-3-4.3-2.4L91,160.7
	c-3.3,1.2-5.7,4.1-6.3,7.6l4.2,60.8c-1.6,10.5,8,22.9,15.1,30.8l13.2,14.8c3.2,2.8,7.8,3.2,11.4,0.9l84-53.7
	c2.2-1.4,5.1,0.1,5.2,2.7l2.3,59.2c0,0.1,0,0.3,0,0.4l-9,135.2c-0.2,2.3,1.6,4.3,3.9,4.4l55.4,9.8c23.6,4.2,47.7,4.8,71.4,1.7
	l61.3-7.9C405.5,427.5,407.4,425.5,407.3,423.2z"/>
<g>
	<path class="st9" d="M342.6,200.1c13.3-5.9,26.4-11.8,39.7-17.7c0.3,0.9,0.9,1.9,1.2,2.8c-13,6.5-24.5,15.8-38.8,19.2
		C344.1,203.2,343.5,201.6,342.6,200.1z"/>
	<path class="st9" d="M346.6,167.2c-2.5,10.6-4.7,21.1-7.1,32c-1.6-0.3-3.1-0.9-5-1.2c2.8-10.6,5.9-21.1,8.7-31.3
		C344.4,166.6,345.4,166.9,346.6,167.2z"/>
	<path class="st9" d="M370.2,212.2c-6.5,0.3-13,0.6-19.5,0.9c0-1.2-0.3-2.5-0.3-3.7c6.5-0.3,13-0.6,19.9-1.2
		C370.2,209.7,370.2,210.9,370.2,212.2z"/>
	<path class="st9" d="M328.9,202.2c-4-2.8-8.1-5.6-12.1-8.4c0.6-0.9,1.2-1.9,1.9-2.8c4,2.8,8.1,5.6,12.1,8.4
		C330.2,200.4,329.5,201.3,328.9,202.2z"/>
</g>
</svg>
