<?xml version="1.0" encoding="utf-8"?>
<!-- Generator: Adobe Illustrator 26.0.2, SVG Export Plug-In . SVG Version: 6.00 Build 0)  -->
<svg version="1.1" id="Calque_1" xmlns="http://www.w3.org/2000/svg" xmlns:xlink="http://www.w3.org/1999/xlink" x="0px" y="0px"
	 viewBox="0 0 588 387" style="enable-background:new 0 0 588 387;" xml:space="preserve">
<style type="text/css">
	.st0{fill:#7A919E;}
	.st1{fill:#9D9B88;}
	.st2{fill:#6D323A;}
	.st3{fill:#2E858E;}
	.st4{fill:#9F9D8A;stroke:#000000;stroke-width:3;stroke-miterlimit:10;}
	.st5{fill:#25686B;}
	.st6{fill:#E8E0BF;}
	.st7{fill:#A85B3B;}
	.st8{fill:#3B9E9E;}
</style>
<path d="M130.4,364.8h0.1H130.4z"/>
<polygon points="130.5,364.8 130.6,364.8 130.6,364.8 "/>
<path d="M130.4,364.8h0.1H130.4z"/>
<polygon points="130.5,364.8 130.6,364.8 130.6,364.8 "/>
<g>
	<polygon class="st0" points="204.1,82.1 205,53.1 265.5,52.5 265.1,82.1 	"/>
	<path d="M69.5,367.7h0.1H69.5z"/>
	<polygon points="69.6,367.7 69.7,367.7 69.7,367.7 	"/>
	<path d="M69.5,367.7h0.1H69.5z"/>
	<polygon points="69.6,367.7 69.7,367.7 69.7,367.7 	"/>
	<path class="st1" d="M250.5,209.7c10.8,7,22.3,34.9,34.8,37.7c4.4,1,13.4-5.2,15.8-9.1c8.9-14,4.6-53.2,17.2-64
		c10.6-9.1,36.2-3.9,36.9-42.3c0.4-23.3-26.9-34.5-33.5-36.8c-1.1-0.4-2.1-0.8-3.2-1.3L278,73.8c-9.6-4.7-15.7-14.5-15.8-25.1
		L262,30.5l-27,2.1l-26.5-2.1l0.1,15.7c0.1,12.1-6.7,23.1-17.5,28.5L151,94.6c0,0-35.4,10.7-35,37.3c0.6,38.4,26.2,33.2,36.9,42.3
		c12.6,10.8,8.3,50,17.2,64c2.5,3.8,11.4,10.1,15.8,9.1c12.5-2.9,23.5-31.6,34.8-37.7C226.9,206.1,244.2,205.6,250.5,209.7z"/>
	<polygon class="st2" points="236.8,25.2 261.8,29.2 262.8,87.2 235.3,119.7 208.1,87.2 209.1,29.2 	"/>
	<path class="st3" d="M297.3,138.8c11.9,25,40.9,38.8,40.9,38.8s53,32.8,70.4,44c8.2,5.3,25.2,16.6,39-3.6l0,0
		c11.3-16.6-2.8-30.4-10.2-36.2c-15-11.8-47.9-32.6-60.5-46.7c-9.4-10.5-23.3-34.1-46.7-39.9c0,0-15.1-3.1-28.2,12l-0.5,0.6
		C294.1,116.2,292.4,128.5,297.3,138.8z"/>
	<path class="st4" d="M165.1,112.2c17.8,21.2,18.2,53.4,18.2,53.4s7.8,61.8,10.7,82.3c1.4,9.7,4.6,29.8-19.5,33.9l0,0
		c-19.8,3.4-26.4-15.2-28.7-24.3c-4.5-18.6-9.8-57.1-17.4-74.5c-5.6-12.9-19.4-30.6-15-54.3c0,0,1.5-19.8,20.7-25.4l0.8-0.2
		C146,99.9,157.8,103.5,165.1,112.2L165.1,112.2z"/>
	<path class="st3" d="M152.2,298.7l1.6-132.2l-20.5-65.7l65-33.6l42.8,52.5l36.3-49.2l64.7,30l-10.4,101l-26.6,72.1l13.2,10.8
		c4.8,6.3,6.2,51.1,3.5,58.5l0,0c-1.6,3.6-5.2,5.8-9,5.7l-75.4,7.6c-13.7,1.4-27.5,0.3-40.8-3.1l-38.3-9.9c-2,0-3.7-1.5-3.8-3.5
		l-0.3-4.7C152.8,332,152.2,301.8,152.2,298.7z"/>
	<path class="st5" d="M297.4,235.1l1.2,10.2L290,251l1.1,3.1c-26.6,13.1-93,45.3-93.6,45.5c-1.6,0.6-10.8,31.8-16.1,31.8
		c-8.8,0-29.4-39.2-29.4-39.2s-2.1-13.9,0.2-13.4s123-45.9,125.8-45.2S297.4,235.1,297.4,235.1z"/>
	<path class="st6" d="M292.5,134.2l202.9-23.9c5.8-0.7,11.1,3.5,11.7,9.3l15.8,134.2c0.7,5.8-3.5,11.1-9.3,11.7l-202.9,23.9
		c-5.8,0.7-11.1-3.5-11.7-9.3l-15.8-134.2C282.5,140.2,286.7,134.9,292.5,134.2z"/>
	<path class="st7" d="M504.8,256.7l2.2-1c3.4-1.6,7.5-0.1,9,3.3l6.5,14.1c1.6,3.4,0.1,7.5-3.3,9l0,0c-3.4,1.6-7.5,0.1-9-3.3
		l-7.5-16.3C501.7,260.2,502.6,257.7,504.8,256.7z"/>
	<path class="st5" d="M447,273.3l40.5-6.7l-2.1,20.9c-0.2,2-2,3.5-4,3.3c-0.2,0-0.4,0-0.5-0.1l-9.6-2.4c-6.3-1.6-12.1-4.6-17-8.9
		L447,273.3z"/>
	<path class="st7" d="M470.7,256.3l9.3-4.4c8.4-3.9,18.4-0.3,22.4,8.1l0,0l2.2,4.8c3.7,8,0.3,17.4-7.6,21.1l0,0l-8,3.8
		c-5.1,2.4-11.1,0.2-13.5-4.8l0,0l-8.5-18.2C465.1,262.7,466.8,258.1,470.7,256.3L470.7,256.3L470.7,256.3z"/>
	<path class="st7" d="M291.1,210.9l12.6,19.5c0.2,0.4,0.7,0.6,1.1,0.5l10.8-2.1l24.2-3.7c6.1-0.9,11.1-5.2,13.2-11l6.5-18.6
		c0.1-0.4,0.5-0.7,0.9-0.7l29.1-4.3c4.2-0.7,7.2-4.2,7.3-8.5v-1.2l-33.2,2.4c-0.8,0.1-1.4-0.7-1.1-1.5l0.7-1.8
		c0.3-0.7-0.3-1.5-1.1-1.5l-16.1,0.3h-10.4c-5.7,0-11.2,1.6-16,4.6l-9.3,5.6c-0.1,0.1-0.2,0.1-0.3,0.2c-1.9,2.1-2.6,3.2-6.3,8.3
		l-5.4,7.5"/>
	<path class="st7" d="M150,261.4c-3.8-19.5,17.3-30.1,25.2-33.5s25.4-6.4,34-7.9c22-3.8,59.5-7.3,81-11.3
		c14.1-2.6,21.5-4.4,25.6,4.2c3.7,7.8-4.1,13.7-8.9,16.5c-19.5,11.6-61.6,36.1-84,44.9c-9.2,3.6-28.4,9.2-38.3,9.6
		C157.1,285.1,151.1,267.1,150,261.4z"/>
	<path class="st3" d="M159.4,89.8c0,0-43.2,16.3-50.8,26.3c-7.3,9.6-3.1,48.9-3.1,48.9s16.6,94.1,37.8,116c5,5.1,22.4,9.9,31.4,12.1
		c3.4,0.8,7,0.5,10.2-1l100.9-45.6l-8.5-40l-91.1,11.9l-18-67.6"/>
	<polygon class="st8" points="195,71.5 205,53.1 232.7,99.6 216.7,124.1 	"/>
	<polygon class="st8" points="279.4,73.4 265.5,52.5 244.8,98.9 263.5,122.2 	"/>
	<polygon class="st5" points="232.7,99.6 240.8,119.7 229.8,110.6 216.7,124.1 	"/>
	<polygon class="st5" points="240.8,119.7 244.8,98.9 263.5,122.2 250.1,111.7 	"/>
	<g>
		<path class="st5" d="M167.9,148.4c0.2,0.2,0.3,0.4,0.4,0.7c0.2,0.4,0.6,1.8,0.8,2.2c4.4,14.7,8.3,30.5,12,45.3l3,12.1
			c0.8,5.6,4.6,9.4,10.5,8.2l3.1-0.4c12.7-1.8,54.8-7.1,68.2-8.8c1.7-0.2,4.5-0.7,6.2-0.7c3.3,0,6.3,2.6,6.8,5.8
			c1.4,6.4,5.5,27,6.9,33.7c-1-4.7-5.9-26.4-6.7-30.5l-0.7-3.1c-0.5-3-3.3-5.4-6.4-5.4c-1.7,0.1-4.5,0.5-6.2,0.7
			c-13.6,1.8-55.2,7.4-68.2,9l-3.1,0.4c-6.1,1.2-10.3-2.8-11.1-8.7l-3-12.1c-3.2-12.6-8-33.1-11.5-45.4l-0.5-1.5l-0.3-0.7
			C168.2,148.8,168.1,148.6,167.9,148.4L167.9,148.4z"/>
	</g>
	<path class="st7" d="M499.9,258.4c0,0,2.5,1,5.5,0.6s11.4,21.1,11.4,21.1l-3.2,2.1c0,0-6.8-3.2-15,2.9
		C499.6,278.8,499.9,258.4,499.9,258.4z"/>
</g>
</svg>
