<?xml version="1.0" encoding="utf-8"?>
<!-- Generator: Adobe Illustrator 26.0.3, SVG Export Plug-In . SVG Version: 6.00 Build 0)  -->
<svg version="1.1" id="Layer_1" xmlns="http://www.w3.org/2000/svg" xmlns:xlink="http://www.w3.org/1999/xlink" x="0px" y="0px"
	 viewBox="0 0 788 1005" style="enable-background:new 0 0 788 1005;" xml:space="preserve">
<style type="text/css">
	.st0{fill:#718985;}
	.st1{fill:#944E31;}
	.st2{fill:#A85B3B;}
	.st3{fill:#6D323A;}
	.st4{fill:#DBDBDB;}
	.st5{fill:#95C1BE;}
	.st6{fill:#87AAA7;}
	.st7{fill:#444444;}
	.st8{fill:none;stroke:#444444;stroke-miterlimit:10;}
	.st9{fill:#D3D3D3;}
	.st10{fill:#7C9995;}
	.st11{fill:#E8E8E8;}
	.st12{fill:#888215;}
	.st13{fill:#9E9520;}
</style>
<path class="st0" d="M343.9,187.4l13.6-13.4c0,0,20.3-6.6,38.5-6.4c18.2,0.2,36.3,4.3,36.3,4.3l16.5,15.5l1.9,19l-108.4,4.1
	L343.9,187.4z"/>
<path class="st1" d="M454.2,236.8c-1.2,27.7,17.9,53.5,17.9,53.5s31.3,53.8,41.5,71.9c4.8,8.5,14.5,26.5,36.1,15.1l0,0
	c17.8-9.4,11.8-28.1,8-36.7c-7.7-17.5-26.9-51.3-31.4-69.7c-2.3-9.5-2.9-23.2-9.1-36.1c-4.1-8.7-11-15.8-19.4-20.5
	c-6.2-3.4-15.9-8.5-27.7-13.7l2.6,10.7C461.9,215.4,454.7,225.4,454.2,236.8L454.2,236.8z"/>
<g>
	<path class="st2" d="M556.9,352c-11.5-13.1-33.8-6.8-41.7-4.1s-22.1,11.2-29.1,15.4c-17.9,10.6-46.2,30.5-63.9,40.7
		c-11.6,6.8-18,10.1-14.6,17.1c3.1,6.4,16.7,3.3,21.9,2.2c21.8-4.8,64.7-13.9,86.6-21.9c8.9-3.3,26.2-11.4,33.3-16.9
		C569.2,369.3,560.2,355.8,556.9,352z"/>
</g>
<ellipse transform="matrix(0.5823 -0.813 0.813 0.5823 -89.3865 197.8849)" class="st2" cx="147.9" cy="185.9" rx="12.2" ry="12.1"/>
<path class="st2" d="M461.5,240.2c-0.6,38.4-3.3,44.3,2.6,45.4c-12.6,10.8,6.2,49.8-2.7,63.8c-2.5,3.8-11.4,10.1-15.8,9.1
	c-12.5-2.9-24-30.7-34.8-37.7c-6.3-4.1-23.6-3.6-30.2,0c-11.2,6.2-22.3,34.9-34.8,37.7c-4.4,1-13.4-5.2-15.8-9.1
	c-8.9-14-4.6-53.2-17.2-64c-10.6-9.1-36.2-3.9-36.9-42.3c-0.4-26.6,35-37.3,35-37.3l40.1-19.9c2.6-1.3,5-2.9,7.1-4.8
	c0.8-0.7,1.6-1.5,2.3-2.3l0.6-0.7V178c3.9-4.7,6.5-10.4,7.2-16.4c0.2-1.4,0.3-2.8,0.2-4.2v-2.8V150H422l0.1,5v1.5v3.2
	c0,0.3,0,0.7,0,1l0,0c0,0.6,0.1,1.3,0.2,1.9c0.2,1.5,0.5,3.1,0.9,4.6c2.2,7.7,7.6,14,14.7,17.6l40.5,20.1c1,0.5,2.1,1,3.2,1.3
	C488.8,208.5,461.9,216.9,461.5,240.2z"/>
<path class="st2" d="M423.3,198.2l-27.5,32.5L381,213l-12.4-14.8l0.7-41.6v-2.2l0.1-4.5h53v0.2l0.1,4.7l0,0v1.6l0.1,4.2l0,0v1.3
	l0.1,6.8L423.3,198.2z"/>
<path class="st3" d="M423.8,167.4l-1,1.2c-5.2,6.3-28.8,35-41.8,44.3c-3.2,2.3-5.7,3.4-7.2,2.7c-6.8-3.3-14.8-35.1-14.8-35.1
	l0.1-0.1c0.6-0.6,1.2-1.2,1.7-1.9c0.3-0.4,0.7-0.8,1-1.3l0.1-0.1c3.3-4.5,5.5-9.7,6.7-15.2c0-0.2,0.1-0.4,0.1-0.6
	c0.3-1.4,0.5-3,0.7-4.8c0.1-0.7,0.1-1.4,0.2-2.2c0.1-1.4,0.2-2.9,0.3-4.5h52.7v0.2v4.3v6.7l0.1,0.8l0.1,0.7l0.9,4.6L423.8,167.4z"/>
<path class="st2" d="M220.3,355.5c15.5-9,9.7-32,7.2-40.2c-2.4-8.2-11.1-23.6-15.3-31.2c-10.8-19.4-45.3-70.4-50.6-91.5
	c-3.7-14.7-24.5-0.7-24.5-0.7s8.3,15.9,11.5,26.2c6.6,21.7,9.3,52.5,19,88.8c2.5,9.5,11.1,27.7,16.7,35.7
	C200.1,364.6,215.9,358.2,220.3,355.5z"/>
<path class="st2" d="M332,253.2c-8.5,26.3-35.5,43.8-35.5,43.8s-48.2,39.4-64.1,52.8c-7.5,6.3-22.8,19.7-39.1,1.5l0,0
	c-13.4-15-1.2-30.5,5.4-37.2c13.3-13.7,43.2-38.6,53.9-54.2c7.9-11.6,15.6-32.7,38-41.5c0,0,17.5-9.3,32.5,4l0.6,0.5
	C332.3,230.4,335.5,242.3,332,253.2z"/>
<path class="st2" d="M161,186.6c-0.6-4.9-0.3-9.8,0.9-14.5l3.9-15.1c0.1-0.3,0.1-0.6,0-0.9l-5.8-24c-0.3-1.4-2.1-2-3.2-1
	c-1.3,1.1-2.6,2.4-3,3.2c-2.5,5,0.5,14.5,0.8,20c0.1,0.7-2.4,2.6-3.1,2.8c-1.8,0.7-6.4-1.3-9.4-2.8c-1.9-0.9-3.4-2.6-4.1-4.6
	c-0.8-2.3-1.9-5.4-2.5-6.9c-0.2-0.6-0.1-1.3,0.3-1.9l15.1-13.2c1.2-1.6,1.6-3.5,1.7-4.9c0.1-1.5-0.7-2.9-2-3.5
	c-1.3-0.6-2.7-1.1-3.3-0.5L124,138.8c-1.4,1.5-2.9,5.7-2.9,7.8v7.3c0,2.3,0.5,4.5,1.5,6.6l14.6,31.3v0.1h0.1l0.6,1.3l0,0
	c0.4-0.7,1.2-1.1,1.9-1l19.8,2.5c1.3,0.2,2.3-0.9,2.2-2.2L161,186.6z"/>
<path class="st4" d="M306.9,206.5c0,0-23.2,4.8-32.6,12.7s-30,47.6-33,49.9c-3,2.2,36.4,46.9,37.3,46.5s12.4-5.2,18.4-10.9
	c6-5.6,14.6-18.6,14.6-18.6L332,297L306.9,206.5z"/>
<path class="st4" d="M477.6,205.1c0,0,23.2,4.8,32.6,12.7c9.4,7.9,22.7,59.7,25.7,62s-42.9,50.3-43.8,49.9s-3.2-4.2-9.2-9.8
	c-6-5.6-10-35.1-10-35.1l-20.5,10.9L477.6,205.1z"/>
<path class="st5" d="M305.1,205.4c-2.5,4.9,9.2,80.8,9.2,80.8l-6.1,192c0.1,2.6,2,4.9,4.6,5.4l35.2,4.7c32,6,64.9,5.4,96.7-1.5
	l31-5.7c3.5-0.8,5.9-3.9,5.8-7.4c-1.3-32.7-3.9-179-3.9-179l5.8-88.4l-34.5-18.8l-53,124.5l-52-124.6L305.1,205.4z"/>
<g>
	<path class="st6" d="M389.9,323.4c1.1,44.1,1.1,88.7,0.8,132.8l-0.3,22.1c-0.5,6.7,2.2,9.9,8.5,11.9c1.7,0.6,3.5,1.2,5.2,1.8
		c-1.8-0.5-3.6-1-5.3-1.5c-3.5-1-7.4-2.8-8.6-6.6c-0.6-1.8-0.7-3.8-0.7-5.6l-0.3-22.1C388.8,412.1,388.8,367.5,389.9,323.4
		L389.9,323.4z"/>
</g>
<g>
	<circle class="st7" cx="399" cy="325.8" r="3.9"/>
	<circle class="st0" cx="399" cy="325.8" r="2.6"/>
</g>
<g>
	<circle class="st7" cx="399" cy="393.3" r="3.9"/>
	<circle class="st0" cx="399" cy="393.3" r="2.6"/>
</g>
<line class="st8" x1="402.4" y1="325.8" x2="404.7" y2="325.8"/>
<line class="st8" x1="401.8" y1="393.3" x2="404.1" y2="393.3"/>
<path class="st9" d="M360.8,178.5l26.6,6.5c2.5,0.6,4.7,2.2,6,4.5l3,5.3l3.4-5.7c1.2-2,3-3.5,5.2-4.2l23.5-7.7l13.1,13.2L395.9,312
	l-51.1-126L360.8,178.5z"/>
<path class="st6" d="M432.3,171.9l-42.4,151.5c0,0,35.8-43.8,62.5-109.9C453,212.7,432.3,171.9,432.3,171.9z"/>
<path class="st6" d="M357.5,174l39,133.5l-2.5,5.6c0,0-53.2-66.1-59.4-97.9C334.6,215.8,357.5,174,357.5,174z"/>
<path class="st10" d="M339.6,206.5l-7.6-13.6c0,0,17-14.9,25.5-18.9L339.6,206.5z"/>
<path class="st10" d="M448.9,205.1l8.1-13.3c0,0-16.3-15.6-24.7-20L448.9,205.1z"/>
<path class="st11" d="M373.7,202.4v-8.6c0-3.4,2.9-6.1,6.3-5.9c6,0.5,14,2.6,14,10.2s-8,9.7-14,10.2
	C376.6,208.6,373.7,205.8,373.7,202.4z"/>
<path class="st11" d="M419.2,202.4v-8.6c0-3.4-2.9-6.1-6.3-5.9c-6,0.5-14,2.6-14,10.2c0,7.6,8,9.7,14,10.2
	C416.3,208.6,419.2,205.8,419.2,202.4z"/>
<path class="st4" d="M396.9,205.2h-1.1c-2,0-3.6-1.6-3.6-3.6v-5c0-2,1.6-3.6,3.6-3.6h1.1c2,0,3.6,1.6,3.6,3.6v5
	C400.5,203.6,398.9,205.2,396.9,205.2z"/>
<path class="st11" d="M278.6,316.6l-2.4,2c-0.8,0.6-1.9,0.5-2.6-0.2l-36.4-44.1c-0.6-0.8-0.5-1.9,0.2-2.6l2.4-2
	c0.8-0.6,1.9-0.5,2.6,0.2l36.4,44.1C279.5,314.8,279.4,316,278.6,316.6z"/>
<path class="st11" d="M537.4,281.2l2.3,2.1c0.7,0.7,0.8,1.8,0.1,2.6l-43.5,47.4c-0.7,0.7-1.8,0.8-2.6,0.1l-2.3-2.1
	c-0.7-0.7-0.8-1.8-0.1-2.6l43.5-47.4C535.5,280.5,536.6,280.5,537.4,281.2z"/>
<g id="GcAfxX_00000158726393485427391440000013673085389559127732_">
	<g>
		<path class="st12" d="M155.4,99.2c0.5,0.8,0.9,1.6,1.4,2.4c0.2,0.2,0.4,0.4,0.9,1c-0.2-0.9-0.3-1.1-0.4-1.3
			c-0.4-1.8-0.7-3.5-1.2-5.2c0.1,0,0.3,0,0.5-0.1c0.5,1.6,1.1,3.2,1.6,4.9c0.1,1.1,0.1,2.4,0.2,3.5c0.1,1.4,0.3,2.8,0.4,4.1
			c0.1,0.6,0.1,1.1,0.1,1.8s0.1,1.4,0.2,2.5c0.5-1.7,0.9-3,1.4-4.3c0.1,0.3,0.3,0.5,0.8,1.4c3.1-5.3,5.7-10.1,8.4-14.8
			c0.6-0.3,1.2-0.8,2.1-1.4c-0.3,1.8-0.5,3.2-0.7,4.4c-0.2,0.2-0.2,0.4-0.2,0.5c0,0.1,0.1,0.2,0,0.2c-1.1,1.5-2.2,2.9-3.4,4.3
			c0,0.1,0.2,0.2,0.2,0.2c-0.8,1-1.6,2.1-2.7,3.6c-0.3,0.9-0.7,2.3-1.3,3.7c-1.5,1.3-3.1,2.6-3.9,3.4c-1.2,5.4-2.1,10.1-3.2,14.8
			c-0.1,0,0.1,0.2,0.2,0.2c0,0,0.1,0,0.2-0.1c4.6-3.8,9-7.7,13.5-11.5c0.4-0.1,0.8-0.3,1.7-0.5c-1,1.9-1.7,3.2-2.5,4.5
			c-0.5,0-1.2,0-1.7,0c-0.3,0.7-0.4,1.2-0.4,1.1c-3,2.5-6.5,3.8-7.9,7.4c-8.6,3.2-8.5,15.4-19.1,18.1c6.9-5.8,11.8-11.7,14.6-19.1
			c-0.5-0.6-1-1.1-1.5-1.7c-0.2-0.2-0.4-0.4-0.5-0.6l0-0.1c-2.4-6.7-5.6-12.9-9.7-18.7c0-0.8,0-1.6,0-2.9c1.2,0.9,2.1,1.8,3,2.5
			c0.1,0.1,0.2,0.2,0.3,0.3c0.1,0.1,0.3,0.2,0.5,0.4c2.6,5.3,5.1,10.7,7.7,16c0.2,1.2,0.4,2.4,0.8,5.1c0.8-4.5,1.4-7.5,1.9-10.6
			c0.2-1.6,0.4-3.1,0.6-4.7l0-0.1c0.1-0.1,0.1-0.1,0.1-0.3c-0.1-1.6-0.1-3.3-0.2-4.8c-0.2-2-0.5-3.9-0.7-5.7c-1.2-0.5-2.3-1-3.3-1.4
			c-0.3-0.1-0.4-0.2-0.6-0.3l-0.1,0c-3.1-5.2-8.5-7.8-13.2-11.4c-0.2-0.5-0.4-0.9-0.9-1.9c2.3,0.8,4.2,1.4,5.9,2.1
			C147.5,94.4,151.4,96.9,155.4,99.2z"/>
		<path class="st13" d="M162.8,95.7c2.1-0.4,2.3,1.6,2.7,3c1.6-1.2,3-2.4,4.4-3.6c-2.7,4.7-5.4,9.4-8.4,14.8
			c-0.5-0.9-0.6-1.2-0.8-1.4c0.4-1,0.7-2.1,1.1-3.3c-1.1-0.2-2.2-0.5-3.3-0.7c-0.1-1.1-0.1-2.4-0.2-3.5
			C159.1,98.4,160.4,96.3,162.8,95.7z"/>
		<path class="st12" d="M155.7,94.1c-0.1-0.2-0.2-0.5-0.3-0.8c-0.2,0.2-0.3,0.3-0.5,0.4c0-1.3,0-2.5,0-3.7c0.1,0.4,0.3,0.8,0.4,1.1
			c0.1,0.2,0.2,0.2,0.3,0.4c0.1,0.2,0.1,0.3-1.1-2.1c1.4,2.3,1.2,2.2,1.2,2c0,0,0-0.1-0.1-0.2c-0.1-0.9-0.1-1.8-0.2-2.7
			c0.9-5.3,1.8-10.6,2.8-15.8c0.4-0.7,0.8-1.4,1.4-2.3c3.1,8.3,1.1,15.5-3,22.3C156.3,93.3,156.1,93.8,155.7,94.1z"/>
		<path class="st13" d="M154.4,120.4c0,0.1,0,0.6,0.1,1.1c0.1,0.3,0.1,0.5,0.2,0.8c0.1,0.6,0.2,1.2,0.3,1.8
			c-2.6-5.3-5.1-10.7-7.7-16c1.1,1.1,2.2,2.3,3.4,3.4c1.5-1.8,3-1,4.6,0c1.1,0.8,2.2,1.5,3.2,2.3c-0.2,1.6-0.4,3.1-0.6,4.7
			C156.8,119.1,155.8,119.7,154.4,120.4z"/>
		<path class="st13" d="M153.3,95.9c0.7,1,1.5,2.2,2.2,3.3c-4.1-2.3-7.9-4.9-10.2-9.1c0.7,0.3,1.5,0.5,2.2,0.8
			c-0.2-7.1,3.5-3.4,6.2-2.4c0.2-0.1,0.3,0,0.5-0.1c0.1,0.6,0.4,1.3,0.6,1.8c0,1.3,0,2.5,0,3.7C154.3,94.6,153.8,95.2,153.3,95.9z"
			/>
		<path class="st12" d="M152.8,85.1c0.3,0.4,0.4,0.9,0.7,1.3c-0.2,0.1-0.2,0.2-0.4,0.3c-0.9-0.4-1.9-0.8-2.8-1.2
			c-0.2,0-0.4-0.2-0.5-0.2c-0.8-0.4-1.7-0.8-2.5-1.2c-2.3-4.8-6.6-7.5-10.8-10.4c-0.2-0.7-0.6-1.3-1.1-2.4c1.6,0.6,2.8,1,4,1.4
			c3,3.5,6.1,6.7,10.4,8.5c0.6,0.7,1.2,1.4,1.7,2.1C152.1,83.9,152.5,84.5,152.8,85.1z"/>
		<path class="st13" d="M143.8,107.8c4.1,5.7,7.3,12,9.7,18.7C148.3,121.3,144,115.5,143.8,107.8z"/>
		<path class="st12" d="M137.7,61.1L137.7,61.1c-0.1-0.3-0.2-0.5-0.3-0.8c0-0.6-0.1-1.1-0.2-2c0.7,0.4,1.1,0.7,1.5,0.9
			c3.2,4.7,6.6,9.4,9.8,14.1c0.4,1.4,0.7,2.8,1.2,5c-1.2-1.2-1.9-1.7-2.6-2.4C144.7,70.6,141.9,65.5,137.7,61.1z"/>
		<path class="st13" d="M140.4,89.8c4.5,3.7,10,6.2,13.2,11.4C147.8,99,143,95.6,140.4,89.8z"/>
		<path class="st13" d="M137.7,61c4.2,4.3,7,9.5,9.5,14.9C142.5,72.1,138.5,67.6,137.7,61z"/>
		<path class="st13" d="M170.9,117.2c-4.6,3.8-9,7.7-13.5,11.5C160.5,123.3,164.5,118.8,170.9,117.2z"/>
		<path class="st13" d="M136.6,73.6c4.1,2.8,8.5,5.6,10.8,10.4C142.6,81.7,138.8,78.5,136.6,73.6z"/>
		<path class="st13" d="M148.6,73.4c-3.2-4.7-6.6-9.4-9.8-14.1C144.2,62.6,147.1,67.5,148.6,73.4z"/>
		<path class="st13" d="M158.2,72.8c-0.9,5.3-1.8,10.6-2.8,15.8C154.7,83.1,155,77.8,158.2,72.8z"/>
		<path class="st13" d="M160.1,129.7c1.3-3.6,4.8-4.9,7.9-7.4c-0.1,0.1,0.2-0.4,0.4-1.1c0.5,0,1.2,0,1.7,0
			C167.8,125.3,164.3,128,160.1,129.7z"/>
		<path class="st13" d="M163.9,110.5c0.5-1.5,1-2.8,1.3-3.7c1.2-1.5,1.9-2.5,2.7-3.6c0-0.1-0.2-0.2-0.2-0.2c1.1-1.5,2.2-2.9,3.4-4.3
			C170.2,103.5,167.6,107.2,163.9,110.5z"/>
		<path class="st13" d="M149.9,81.2c-4.2-2-7.4-5-10.4-8.5C144,74.2,147.4,77.2,149.9,81.2z"/>
		<path class="st13" d="M151,81.4c0.1,0,0.3-0.1,0.4-0.1c0.5,1.3,1.1,2.6,1.5,3.9c-0.5-0.7-0.9-1.3-1.3-1.9
			C151.4,82.6,151.1,82,151,81.4z"/>
		<path class="st13" d="M156.8,96c-0.1,0-0.3,0-0.5,0.1c-0.2-0.6-0.4-1.3-0.6-1.8c0.3-0.4,0.6-1,0.9-1.4
			C156.6,93.9,156.7,94.9,156.8,96z"/>
		<path class="st13" d="M158.4,108.7c0.1,1.6,0.1,3.3,0.2,4.8C158.5,112,158.4,110.3,158.4,108.7z"/>
		<path class="st12" d="M153.1,86.7c0.2-0.1,0.2-0.2,0.4-0.3c0.2,0.7,0.5,1.3,0.7,2c-0.2,0.1-0.3,0-0.5,0.1
			C153.6,87.9,153.3,87.2,153.1,86.7z"/>
		<path class="st13" d="M150.9,80.7C150.1,79.5,150,79.3,150.9,80.7C150.2,79.1,150.3,79.4,150.9,80.7z"/>
		<path class="st13" d="M153.7,101.3c0.3,0.1,0.4,0.2,0.6,0.3C154.1,101.5,153.9,101.4,153.7,101.3z"/>
		<path class="st13" d="M137.4,60.4c0.1,0.3,0.2,0.5,0.3,0.8C137.6,60.9,137.5,60.7,137.4,60.4z"/>
		<path class="st13" d="M153.5,126.5c0.2,0.2,0.4,0.4,0.5,0.6C153.9,126.9,153.7,126.7,153.5,126.5z"/>
		<path class="st13" d="M171.2,98.5c0.2-0.2,0.2-0.4,0.2-0.5C171.4,98.2,171.4,98.4,171.2,98.5z"/>
		<path class="st13" d="M147,107.7c-0.1-0.1-0.2-0.2-0.3-0.3C146.8,107.4,147,107.6,147,107.7z"/>
		<path class="st13" d="M155.6,91.4c0,0.1,0,0.1,0.1,0.2l-0.2,0.2c-0.1-0.2-0.2-0.2-0.3-0.4C155.4,91.4,155.5,91.3,155.6,91.4z"/>
		<path class="st13" d="M149.8,85.2c0.2,0,0.4,0.2,0.5,0.2C150.2,85.4,150,85.3,149.8,85.2z"/>
		<path class="st13" d="M149.6,78.2c0.1,0.2,0.1,0.3,0.1,0.3l-0.1,0C149.6,78.4,149.7,78.2,149.6,78.2L149.6,78.2z"/>
		<path class="st13" d="M159.1,108.6c0.1,0.6,0.1,1.1,0.1,1.8C159.2,109.8,159.2,109.2,159.1,108.6z"/>
		<path class="st13" d="M157.8,102.6c-0.6-0.6-0.8-0.9-0.9-1c0.2-0.1,0.3-0.2,0.5-0.3C157.5,101.6,157.6,101.8,157.8,102.6z"/>
		<path class="st13" d="M155.6,91.7c0,0.1,0.2,0.2-1.2-2C155.6,92,155.6,91.9,155.6,91.7C155.5,91.8,155.7,91.6,155.6,91.7z"/>
		<path class="st12" d="M154.6,121.5c0.1,0.3,0.1,0.5,0.2,0.8C154.7,122,154.7,121.8,154.6,121.5z"/>
	</g>
</g>
</svg>
