<?xml version="1.0" encoding="utf-8"?>
<!-- Generator: Adobe Illustrator 26.0.3, SVG Export Plug-In . SVG Version: 6.00 Build 0)  -->
<svg version="1.1" id="Calque_1" xmlns="http://www.w3.org/2000/svg" xmlns:xlink="http://www.w3.org/1999/xlink" x="0px" y="0px"
	 viewBox="0 0 788 1005" style="enable-background:new 0 0 788 1005;" xml:space="preserve">
<style type="text/css">
	.st0{fill:#7A919E;}
	.st1{fill:#A85B3B;}
	.st2{fill:#6D323A;}
	.st3{fill:#36344D;}
	.st4{fill:#FFE2F8;}
	.st5{fill:#4D4C68;}
	.st6{fill:#211843;}
	.st7{fill:#221944;}
</style>
<polygon class="st0" points="362.4,194.2 363.2,165.3 423.7,164.6 423.4,194.2 "/>
<path class="st1" d="M514.2,244.7c-0.6,38.4-26.2,33.2-36.9,42.3c-12.6,10.8-8.3,50-17.2,64c-2.5,3.8-11.4,10.1-15.8,9.1
	c-12.5-2.9-24-30.7-34.8-37.7c-6.3-4.1-23.6-3.6-30.2,0c-11.2,6.2-22.3,34.9-34.8,37.7c-4.4,1-13.4-5.2-15.8-9.1
	c-8.9-14-4.6-53.2-17.2-64c-10.6-9.1-36.2-3.9-36.9-42.3c-0.4-26.6,35-37.3,35-37.3l40.1-19.9c2.6-1.3,5-2.9,7.1-4.8
	c0.8-0.7,1.6-1.5,2.3-2.3l0.6-0.7v-0.1c3.9-4.7,6.5-10.4,7.2-16.4c0.2-1.4,0.3-2.8,0.2-4.2v-2.8v-4.5H421l0.1,5v1.5v3.2
	c0,0.3,0,0.7,0,1l0,0c0,0.6,0.1,1.3,0.2,2c0.2,1.5,0.5,3.1,0.9,4.6c2.3,7.7,7.7,14,14.9,17.5l40.5,20.1c1,0.5,2.1,1,3.2,1.3
	C487.3,210.2,514.5,221.4,514.2,244.7z"/>
<path class="st1" d="M421.8,199.9l-27.5,32.5l-14.8-17.7l-12.4-14.8l0.7-41.6v-2.2l0.1-4.5h53v0.2l0.1,4.7l0,0v1.6l0.1,4.2l0,0v1.3
	l0.1,6.8L421.8,199.9z"/>
<path class="st2" d="M422.3,169.1l-1,1.2c-5.2,6.3-28.8,35-41.8,44.3c-3.2,2.3-5.7,3.4-7.2,2.7c-6.8-3.3-14.8-35.1-14.8-35.1
	l0.1-0.1c0.6-0.6,1.2-1.2,1.7-1.9c0.3-0.4,0.7-0.8,1-1.3l0.1-0.1c3.3-4.5,5.5-9.7,6.7-15.2c0-0.2,0.1-0.4,0.1-0.6
	c0.3-1.4,0.5-3,0.7-4.8c0.1-0.7,0.1-1.4,0.2-2.2c0.1-1.4,0.2-2.9,0.3-4.5H421v0.2v4.3v6.7l0.1,0.8l0.1,0.7l0.9,4.6L422.3,169.1z"/>
<path class="st1" d="M456.9,238.7c2.5,27.6,25,50.5,25,50.5s38.5,49,50.9,65.6c5.9,7.8,17.9,24.3,37.9,10.1l0,0
	c16.4-11.7,7.9-29.4,2.9-37.4c-10-16.3-33.6-47.2-40.6-64.7c-5.2-13.1-8-35.3-28-48.9c0,0-15.1-12.9-32.7-3.2l-0.7,0.4
	C461.6,216.5,455.8,227.3,456.9,238.7L456.9,238.7z"/>
<path class="st1" d="M227.5,352.7c14.5-10.5,6.6-31.7,3.3-39.8c-3.3-8-13.4-22.5-18.2-29.6c-12.6-18.4-51.8-72.9-59.1-93.4
	c-5.1-14.4-20.9,9.1-20.9,9.1s6.2,14.8,10.3,24.7c8.7,20.9,14.3,51.4,27.4,86.5c3.4,9.2,13.6,26.5,20.1,33.9
	C208.2,364.7,223.3,355.7,227.5,352.7z"/>
<path class="st1" d="M333.7,251.7c-8.5,26.3-35.5,43.8-35.5,43.8s-48.2,39.4-64.1,52.8c-7.5,6.3-22.8,19.7-39.1,1.5l0,0
	c-13.4-15-1.2-30.5,5.4-37.2c13.3-13.7,43.2-38.6,53.9-54.2c7.9-11.6,25.9-35.6,48.3-44.4c0,0,7.3-6.4,22.3,7l0.6,0.5
	C334,229,337.2,240.9,333.7,251.7L333.7,251.7z"/>
<path class="st3" d="M490.5,200.7l12.8,5.4c3,1.3,5.7,3.2,7.9,5.7c10.9,12.7,45.3,53.1,44.1,55.2c0,7.2-37,44.3-48,57.3
	c-1.6,1.9-4.5,1.7-5.8-0.4c-6.6-10.2-23.2-36-24.1-36.9c-1.2-1.1-11.3-40.4-12.1-40s13.1-40.6,13.5-42.5s-3.9,1.8-3.9,1.8"/>
<path class="st3" d="M306.4,475.2l4.9-60.1l174.1-6.1l2.9,35.3c0.2,2.4,0,4.8-0.8,7.1c-3.3,9.4-14.2,13.7-22.9,14.9L315.7,487
	c-4.6,0.7-8.8-3.5-9.3-9.4C306.3,476.8,306.3,476,306.4,475.2z"/>
<path class="st3" d="M310.4,410.8l-12.2-115.3l-6.7-82.5l11.1-5.8l53.9-27.9l42.8,52.5l36.3-49.2l54.8,18l-0.6,113l-4.4,60.2v35.3
	c-12.4,12.6-17,32-19.7,39.4l-18.7,4.2l-131.1-24.5l-3.6-8.3C311,417.1,310.4,414,310.4,410.8z"/>
<polygon class="st4" points="353.2,183.6 363.2,165.3 390.9,211.8 375,236.2 "/>
<polygon class="st4" points="437.6,185.5 423.7,164.6 403,211 421.7,234.4 "/>
<polygon class="st5" points="390.9,211.8 399.1,231.8 388,222.7 375,236.2 "/>
<polygon class="st5" points="399.1,231.8 403,211 421.7,234.4 408.3,223.8 "/>
<path class="st3" d="M304.3,298.4c-1.8,0.7-40.6,51-50.8,43.7c-10.4-7.4-27.8-59-27.5-63.5c0.3-5.2,65.5-65.6,65.5-65.6"/>
<path class="st1" d="M129.9,186.9l-17.7-15.6c0,0,6.7,2.9,8.8,0.1c0.5-0.8,0.3-4.7-0.3-5.3c-3.8-5.2-10.2-13.1-10.8-19.4
	c-0.3-2,3.5-7.3,3.5-7.3l23.4,22.8l11.8,20.6L129.9,186.9z"/>
<path class="st1" d="M105.9,152.1c-9.3-8.3-23.2-30-35.2-34.5c-2.3-0.8-9.4,0.6-9.4,0.6L83.3,152c4.2,6.3,9.4,12,15.7,16.9
	l32.7,29.2l15-18.1C146.8,179.9,115.8,161.2,105.9,152.1z"/>
<ellipse transform="matrix(0.7269 -0.6867 0.6867 0.7269 -92.583 149.0157)" class="st1" cx="141.1" cy="190.9" rx="11.7" ry="11.6"/>
<path class="st6" d="M140.5,188.9c0.9-1.3,0.8-3.4-0.4-4.5L18.4,51.5l117.8,138.3c1.1,1.3,2.8,1.3,3.7-0.1L140.5,188.9z"/>
<path class="st1" d="M111.9,187.2l-17.4-19.1c-3-3.3-2.8-8.4,0.5-11.5l5-4.5c3.3-3,8.4-2.8,11.5,0.5l17.2,19c3,3.3,2.8,8.4-0.5,11.5
	l8.9,15C133.9,201.1,114.8,190.5,111.9,187.2z"/>
<g>
	<path class="st7" d="M427.1,422V288.9c0-3.6,2.5-6.8,6-7.7l68.6-17.8c5.1-1.3,10,2.5,10,7.7v133.2c0,3.6-2.5,6.8-6,7.7l-68.6,17.8
		C432.1,431.1,427.1,427.3,427.1,422z"/>
	<g id="I971h2_00000067219755369311645200000005868042954794575240_">
		<g>
			<path class="st4" d="M476.2,402.2c-3.2-2.2-4.2-6.2-2.4-10c1.5-3.2,5-4.7,8.7-3.7c3.5,1,5.7,3.2,6.4,6.7
				c0.8,4.5-0.5,8.5-4.3,11.3c-5.1,3.9-13.3,4-18.6,0.2c-2.8-1.9-5-4.6-4.9-8c0.1-4.6,0.4-9.3,1.7-13.6c1.4-5,0.7-8.3-3.6-11.6
				c-6.8-5.2-8.3-11.8-5.7-19.8c2.6-7.7,8.1-12,16.4-12.7c0.7,0,1.6-0.2,2-0.7c2.8-3.7,2.8-10.3-0.3-14c-6.8-8.3-9.7-18-10.8-28.3
				c-0.5-4.7-0.2-9.3,2.6-13.4c4.1-6,10.8-6.2,15-0.4c1.2,1.7,2.2,3.8,2.8,5.8c2.5,8.2,2.4,16.6,0.2,24.8c-1,3.7,0,6,2.3,8.6
				c4.1,4.5,8.4,9,11.7,14.1c6.1,9.3,6.3,19.3,0.9,28.9c-5.5,10-14.6,14-25.7,13.7c-1.4-0.1-2.7-0.3-3.3,1.5
				c-2.3,6.2-2.8,12.5,0,18.7c2.1,4.8,6.3,6.2,11.6,3.7C477.8,403.3,477,402.8,476.2,402.2z M468.9,374.5c6.5,1.8,12.1,0.7,17-3.3
				c5.3-4.4,7.6-10.2,6.1-16.9c-0.8-3.6-2.5-7.2-4.6-10.4c-2.4-3.6-5.6-6.8-8.8-10.7c-0.9,3.2-1.7,5.8-2.4,8.3
				c8,6.5,10.8,14.6,7.8,22.3c-1.8,4.6-5.6,7.2-10.9,6.9c1.2-1.3,1.9-2.5,2.9-3.4c5.8-5.1,5.1-10.8-2.3-14.7
				C472.2,360,470.7,367.2,468.9,374.5z M474.3,292.6c-0.6-1.5-3-3.4-3.9-3.1c-1.6,0.5-3,2.4-3.9,4.1c-0.5,1.1-0.3,2.9,0,4.3
				c1.4,6.9,5,12.6,10.6,18.1C478.3,307.4,477.8,299.8,474.3,292.6z M469.5,352c-4-0.4-6.9,1.7-8.4,5.9c-2.1,5.8-0.6,11.9,4.1,15.2
				C466.7,365.8,468.1,358.9,469.5,352z"/>
		</g>
	</g>
</g>
<g id="I971h2_00000031198194278168428470000017436679332327562150_">
	<g>
		<path class="st7" d="M95.7,215.2c-1.5-0.5-2.4-1.8-2.3-3.6c0.1-1.5,1.3-2.5,2.9-2.7c1.5-0.1,2.8,0.5,3.5,1.7
			c0.9,1.6,0.9,3.3-0.1,5c-1.5,2.2-4.7,3.3-7.3,2.7c-1.4-0.3-2.5-1-3-2.4c-0.6-1.8-1-3.7-1.2-5.5c-0.1-2.2-0.8-3.3-3-4
			c-3.3-1-4.8-3.5-5-6.9c-0.1-3.5,1.5-5.9,4.6-7.3c0.2-0.1,0.6-0.3,0.7-0.6c0.6-1.8-0.3-4.4-2.1-5.4c-3.8-2.2-6.3-5.5-8.2-9.5
			c-0.8-1.7-1.3-3.6-0.8-5.5c0.7-2.9,3.3-3.9,5.8-2.2c0.8,0.5,1.4,1.2,2,1.8c2.2,2.9,3.3,6.2,3.6,9.7c0.1,1.5,0.8,2.3,2.1,3
			c2.2,1.3,4.5,2.4,6.5,3.9c3.7,2.9,5.2,6.7,4.4,11.2c-0.8,4.6-3.8,7.5-8.2,8.9c-0.5,0.1-1,0.2-1,1c-0.1,2.8,0.6,5.2,2.5,7.3
			c1.5,1.6,3.3,1.6,5.1-0.1C96.5,215.6,96.2,215.5,95.7,215.2z M89.1,205.7c2.8-0.2,4.7-1.5,6.1-3.7c1.4-2.4,1.5-5,0-7.4
			c-0.8-1.4-2-2.5-3.2-3.5c-1.5-1.2-3.1-2-5-3c0.1,1.4,0.1,2.5,0.2,3.6c4,1.5,6.2,4.1,6.1,7.6c-0.1,2.1-1.3,3.7-3.3,4.3
			c0.3-0.7,0.5-1.3,0.7-1.7c1.6-2.8,0.6-5-2.9-5.4C88.3,199.6,88.8,202.5,89.1,205.7z M79.9,172.8c-0.5-0.5-1.6-0.9-2-0.7
			c-0.6,0.5-0.8,1.4-0.9,2.2c-0.1,0.6,0.2,1.3,0.6,1.7c1.4,2.5,3.7,4.3,6.6,5.6C83.5,178.2,82.2,175.4,79.9,172.8z M86.1,196.8
			c-1.6,0.5-2.4,1.6-2.4,3.5c0,2.5,1.4,4.7,3.7,5.3C86.9,202.5,86.6,199.7,86.1,196.8z"/>
	</g>
</g>
<path class="st7" d="M10.9,115.4c1.3-0.9,2.5-0.9,3.5-0.1c0.6,0.5,0.8,1,0.7,1.7c-0.1,0.6-0.6,1-1.2,1.3c-1.6,0.6-3.1-0.3-3.6-2
	c-0.3-1.6-0.7-3.2-1-4.8c-0.1-0.6-0.3-0.9-0.9-1c-1.2-0.3-2.2-0.7-3.3-1c-0.5-0.1-1-0.2-1.6-0.5c0.1,1.5,0.3,2.9,0.5,4.4
	c1.2-0.8,2.2-0.9,3.2-0.2c0.7,0.3,1,0.9,0.9,1.7c-0.1,0.7-0.6,1.2-1.2,1.4c-1.5,0.7-3.2-0.2-3.6-1.7c-0.2-0.9-0.3-1.7-0.6-2.7
	c-0.6-2.2-1-4.5-1.6-6.8c2.9,0.3,5.8,0.7,8.8,1C10.2,109.2,10.4,112.3,10.9,115.4z M4.3,108.5c1.4,0.3,2.9,0.7,4.3,1
	c0.1-0.9-0.1-1.2-0.8-1.4c-1.5-0.3-3-0.7-4.6-1.2C3,108.3,3,108.3,4.3,108.5z"/>
<path class="st7" d="M31.9,148.7c0.2-0.3,0.3-0.9,0.2-1.3c-0.5-1.5-0.1-2.9,0.8-3.9c0.9-1,2.2-1.8,3.2-2.9c0.8-0.8,1.7-1.6,2.1-2.5
	c0.6-1.4,1.3-1.8,2.7-1.4c0.2,0.1,0.6,0.1,0.8,0.1c0.9,0,1.3,0.3,1,1.3c-0.2,0.8-0.3,1.6-0.6,2.4c-1.3,4.7-2.4,9.5-3.7,14.4
	c2.4-0.9,4.4-0.3,5.9,1.4c1,1,1.4,2.4,0.8,3.9c-0.6,1.4-1.7,1.8-3.1,2c-3,0.1-5.5-2.8-5.2-5.8c0.5-3.5,0.9-6.9,1.4-10.6
	c-2.5,1.7-6.1,2.2-5.9,6.3C31.5,151,31.7,149.9,31.9,148.7z M32.9,147.6c2-2.1,4.7-2.9,5.6-6C36.1,143.2,33,143.7,32.9,147.6z"/>
<path class="st7" d="M7.3,72.6c0.9-0.7,1.8-0.7,2.8-0.1c0.5,0.3,0.8,0.8,0.7,1.4c-0.1,0.6-0.5,0.9-1,1.2c-1.4,0.5-2.8-0.5-3-1.8
	c-0.3-1.4-0.6-2.7-0.8-4c-0.2-1.4-0.6-2.8-0.8-4.3c0.6-0.1,1-0.2,1.6-0.3C7,67.3,7.2,69.8,7.3,72.6z"/>
<g>
	<path class="st1" d="M578.9,335.9c-8.6-17.9-32-13.7-40.3-11.7c-8.4,2-24.2,10.2-31.9,14.2c-19.8,10.2-51.9,29.9-71.5,39.7
		c-12.9,6.4-19.9,9.4-18,18.7c1.8,8.5,15.7,6.9,21.2,6.2c22.6-2.5,66.8-6.6,89.9-13c9.5-2.6,28.3-9.7,36.3-15.3
		C587.6,359,581.5,341.1,578.9,335.9z"/>
	<path class="st1" d="M422.1,396.3c-0.7,3.7-3.9,8.7-12.4,8.8c0,0-26.7,2.7-35.2,0.4c-3.8-1.1-13.6-4.1-13.5-8.1
		c0.3-11.1,10.8-29.2,21.4-37.1c3.2-2.4,12.4,0.5,15.7,2.7c3.7,2.4,7.6,10.8,10.8,13.9c1.8,1.7,3.6,3.2,5.5,4.6
		C419.2,385.1,423,391.2,422.1,396.3z"/>
	<polygon class="st1" points="423.4,380.5 415.9,382.6 409.7,394 404.5,405.5 412.7,405 424.8,406.8 	"/>
	<path class="st4" d="M419.3,380.7l15.1-3.5c0.9-0.2,1.8,0.5,1.8,1.4l0,26.8c0,0.7-0.6,1.4-1.3,1.4l-14.1,1.4
		c-0.8,0.1-1.5-0.6-1.6-1.4l-0.9-24.7C418.1,381.4,418.6,380.8,419.3,380.7z"/>
</g>
</svg>
