<?xml version="1.0" encoding="utf-8"?>
<!-- Generator: Adobe Illustrator 26.0.3, SVG Export Plug-In . SVG Version: 6.00 Build 0)  -->
<svg version="1.1" id="Calque_1" xmlns="http://www.w3.org/2000/svg" xmlns:xlink="http://www.w3.org/1999/xlink" x="0px" y="0px"
	 viewBox="0 0 588 387" style="enable-background:new 0 0 588 387;" xml:space="preserve">
<style type="text/css">
	.st0{fill:#563935;}
	.st1{fill:#A85B3B;}
	.st2{fill:#6D323A;}
	.st3{fill:none;stroke:#000000;stroke-width:3;stroke-miterlimit:10;}
	.st4{fill:#434957;}
	.st5{fill:#547687;}
	.st6{fill:#634B47;}
	.st7{fill:#7081AF;}
	.st8{fill:#293040;}
	.st9{fill:#343D4F;}
	.st10{fill:#7787B3;}
	.st11{fill:#FFFFFF;}
	.st12{fill:#F49595;}
	.st13{fill:#D2DAE4;}
	.st14{fill:none;stroke:#D2DAE4;stroke-width:2;stroke-miterlimit:10;}
	.st15{fill:none;stroke:#EAD3D3;stroke-width:3;stroke-linecap:round;stroke-miterlimit:10;}
	.st16{fill:#EAD3D3;}
</style>
<path d="M223.8,464.2h0.1H223.8z"/>
<polygon points="223.9,464.2 224,464.2 224,464.2 "/>
<path d="M223.8,464.2h0.1H223.8z"/>
<polygon points="223.9,464.2 224,464.2 224,464.2 "/>
<path class="st0" d="M509.4,228.5c-0.6,38.4-26.2,33.2-36.9,42.3c-12.6,10.8-8.3,50-17.2,64c-2.5,3.8-11.4,10.1-15.8,9.1
	c-12.5-2.9-24-30.7-34.8-37.7c-6.3-4.1-23.6-3.6-30.2,0c-11.2,6.2-22.3,34.9-34.8,37.7c-4.4,1-13.4-5.2-15.8-9.1
	c-8.9-14-4.6-53.2-17.2-64c-10.6-9.1-36.2-3.9-36.9-42.3c-0.4-26.6,35-37.3,35-37.3l40.1-19.9c9.8-4.8,16.3-14.4,17.4-25.2
	c0-0.3,0-0.6,0.1-0.9s0-0.5,0-0.8s0-0.3,0-0.5c0-0.4,0-0.8,0-1.2v-2.3v-4.7l-0.1-8.7l1.6,0.1l25,1.9l26.2-2l0.7-0.1l0.1,8.7v2.2
	l0.1,7.1c0.1,10.7,6.2,20.4,15.8,25.1l40.5,20.1c1,0.5,2.1,1,3.2,1.3C482.6,194.1,509.8,205.2,509.4,228.5z"/>
<polygon class="st1" points="417.8,183.7 390.4,216.2 363.2,183.7 363.4,172 364,135.8 364.1,127.2 389.2,129.1 415.4,127.1 
	415.4,125.5 416.8,125.7 417,135.8 417.3,152 "/>
<path class="st2" d="M415.4,127.1l-0.2,8.7l-0.2,9.4l-13.4,14.2c0,0-23.5,19.8-31.6,15.9c-2-1-4.3-2.1-6.5-3.3
	c-5.5-2.9-10.7-5.9-10.7-5.9c0.6-0.6,1.3-1.3,1.8-1.9c3.9-4.8,6.5-10.5,7.8-16.6c0-0.1,0.1-0.3,0.1-0.5V147c0-0.3,0.1-0.6,0.1-1
	s0-0.6,0.1-0.9s0-0.5,0-0.8s0-0.3,0-0.5c0-0.7,0-1.4,0-2.1v-1.3c0-0.6,0-1.2,0-1.9c0-1,0-1.9,0-2.8l0,0l-0.1-8.7l1.6,0.1l25,1.9
	L415.4,127.1z"/>
<path class="st3" d="M449.8,221c-1.3,27.6,17.7,53.5,17.7,53.5s31.2,53.9,41.3,72c4.8,8.5,14.4,26.5,36,15.2l0,0
	c17.8-9.3,11.9-28.1,8.1-36.7c-7.6-17.5-26.8-51.4-31.2-69.8c-3.3-13.7-3.1-36.1-20.9-52.3c0,0-13.1-14.9-31.9-7.7l-0.7,0.3
	C457.6,199.5,450.3,209.5,449.8,221L449.8,221z"/>
<path class="st1" d="M201.1,329.5c-19.6,3.6-29.9-17.7-33.2-25.6s-6.1-25.5-7.4-34.1c-3.5-22.1-6.6-59.6-10.3-81.1
	c-2.5-14.2-4.2-21.6,4.5-25.5c7.9-3.6,14.8,8.6,17.6,13.4c11.4,19.6,34.2,57.7,42.7,80.2c3.5,9.2,8.9,28.5,9.1,38.4
	C224.8,322.7,206.8,328.5,201.1,329.5z"/>
<path class="st3" d="M327.3,239.3c-11.9,25-40.9,38.8-40.9,38.8s-52.9,32.8-70.4,44c-8.2,5.3-25.2,16.6-38.9-3.6l0,0
	c-11.3-16.6,2.8-30.4,10.2-36.2c15-11.8,47.9-32.6,60.5-46.7c9.4-10.5,19.8-30.3,43.1-36.2c0,0,18.6-6.9,31.8,8.2l0.5,0.6
	C330.6,216.8,332.2,229,327.3,239.3L327.3,239.3z"/>
<polygon class="st4" points="310.3,436 311.8,413.5 466.8,413.5 468.8,433 "/>
<polygon class="st5" points="388.2,474.6 383.2,434.6 398.2,434.6 397.2,466.8 "/>
<path class="st6" d="M555.7,329.4c-9-17.7-32.2-13-40.5-10.8c-8.3,2.2-23.9,10.7-31.6,14.8c-19.7,10.6-51.3,31-70.7,41.1
	c-12.7,6.7-19.6,9.8-17.6,19.1c1.9,8.4,15.8,6.5,21.3,5.8c22.5-2.9,66.6-8,89.7-14.9c9.5-2.8,28-10.3,36-16.1
	C564.7,352.4,558.3,334.6,555.7,329.4z"/>
<path class="st1" d="M166.8,163.6l-3.6-17.9c0-0.1-0.1-0.3-0.1-0.4l-12-23.4c-0.5-0.9-1.6-1.1-2.4-0.5c-1.4,1.1-3.2,2.8-3.4,3.9
	c-1.2,5.4,1.9,13.7,3.5,18.9c0.2,0.7-0.6,4-1.2,4.4c-0.7,0.5-1.7,0.5-2.6,0.2c-1.3-0.4-2.4,1.1-1.7,2.3l7,12.1
	c0.2,0.4,0.7,0.7,1.2,0.8l13.7,1.5C166.1,165.6,167,164.6,166.8,163.6z"/>
<ellipse class="st1" cx="155.3" cy="168" rx="12.1" ry="12.1"/>
<path class="st4" d="M338.6,176.2c1.3-1.3,17.4-20.3,18.9-20.3c0.7,0,13.8,31.6,29,32.1c18.5,0.5,36.1-32.1,36.1-32.1l8.9,14
	l5,160.5l-97.9,1.3V176.2z"/>
<path class="st4" d="M153.7,228.7l-5.6-31c0,0,28-19.1,29.5-18.2s8.4,20.9,8.4,20.9L153.7,228.7z"/>
<path class="st7" d="M379.1,204.5l18.3-0.1c0,0,14.2,67.7,13.6,69.8s-9.3,53.4-9.2,54.6s-12.6,16-12.6,16s-12.8-18.5-13.4-20.5
	s-4.7-46.4-5.7-48S379.1,204.5,379.1,204.5z"/>
<path class="st8" d="M476.8,400.4l17.9,88c0.5,2.2-1,4.4-3.2,4.9c-0.1,0-0.3,0-0.4,0.1c-16.6,1.8-58,14-72.7,9.6
	c-8.5-2.6-16.7-24.8-18.1-29.7c-0.3-0.6-0.5-1.3-0.6-2c-0.5-15.5-6.8-169.8-4.1-191.9s22.2-89.8,27.1-111.9c0.6-2.6,1.2-4.9,1.2-4.9
	l53.8,24.7l0.2,0.1l25.5,9.9c0.8,0.3,1.5,0.9,2,1.7l14.1,22.6c0.2,0.3,0.3,0.5,0.4,0.8l39.3,112.1c0.7,2-0.2,4.2-2.2,5.1l-84,38.9
	c-1.9,0.9-2.9,3.1-2.1,5.1l5.7,16.2C476.7,400,476.7,400.2,476.8,400.4z"/>
<path class="st8" d="M355.6,161.9c0,0,29.5,101.4,29.5,116.9s0.3,182.9-7.5,192.1s-20.4,27.1-34,27.1s-46.6-7.9-46.6-7.9
	c-6.7-1.1-11.2-7.5-10-14.1c0-0.3,0.1-0.5,0.2-0.8l15.8-86.9l5.5-54l-9.3-60.2c0,0-98.5,62.4-101.8,61.8
	c-21.1-3.8-30.3-26.4-30.3-26.4l-27-85.2c0,0,42.7-30.1,43.8-31c4-3,30.8,62.8,30.8,62.8l55.1-55.3L355.6,161.9z"/>
<path class="st9" d="M354.5,158.1l-9.8,8.7l-5.7,84.8c-0.3,4.7,2.2,9,6.4,11.1l10.2,5.1V282c0,4.3,0.7,8.5,2,12.6
	c6.1,19,24.3,75.3,25.6,73.2c1.6-2.5,2-75.9,2-75.9v-13.3l-15.1-65.5L354.5,158.1z"/>
<path class="st10" d="M374.2,195.5c0.9-1.8,6.7-13.2,8.9-15.3c1.7-1.6,11.8,0,11.8,0l8.9,14.2c0,0-3.7,9.6-6.6,11
	c-1.5,0.7-8.8,0.4-17.2,0C377.7,205.2,375,196.2,374.2,195.5z"/>
<path class="st9" d="M425,159.6l8.1,7.3l5.6,83.5c0.4,5.5-2.6,10.6-7.5,13.1l-9,4.5v14.2c0,4.3-0.7,8.5-2,12.6
	c-6.1,19-24.3,75.3-25.6,73.2c-1.6-2.5-2-75.9-2-75.9v-13.3l15.1-65.5L425,159.6z"/>
<path class="st11" d="M417.2,147.6l7.8,12l-19.2,42.8c0,0-7.8-18-11-22.1C393.4,178.4,417.2,147.6,417.2,147.6z"/>
<path class="st12" d="M369.3,298.2l6.9,125.4c0.2,3.2,2.9,5.6,6,5.5l93.3-4.2c2.9-0.1,5.2-2.4,5.5-5.3l10.6-122.5
	c0.3-3.4-2.4-6.3-5.8-6.3L375,292.2C371.7,292.2,369.1,295,369.3,298.2z"/>
<path class="st11" d="M362.3,147.6l-7.8,10.5l18,44.2c0,0,7.1-18,11.8-22.7C386,178.1,362.3,147.6,362.3,147.6z"/>
<polygon class="st1" points="411.8,375.5 392.2,362 370,356.5 373,365.4 383.2,370.1 387.3,376.4 373.6,376.8 373.3,366.7 
	366.9,365.8 355.6,379.8 360,409.9 379.4,416.8 413.5,400.2 423.4,397 443.8,392 426.7,371.1 417.8,374.6 "/>
<path class="st4" d="M457.5,401.7l-31.4,2.2c0,0-16.3-28.7-15.2-30s21.6-6,21.6-6L457.5,401.7z"/>
<path class="st8" d="M422.9,369c2.7,4.2,25.5,56.9,27.4,54.8s98.2-58.4,98.2-58.4l0.2-0.1c6.2-3.7,10-10.4,10.2-17.6l0.3-12.2
	c0,0-21.8-19.2-24.1-19.2s-39.3,9.7-42.7,9.3S422.9,369,422.9,369z"/>
<circle class="st7" cx="152.8" cy="230.8" r="4.7"/>
<circle class="st7" cx="157.5" cy="246.2" r="4.7"/>
<circle class="st7" cx="472.1" cy="397.4" r="4.7"/>
<circle class="st7" cx="457.5" cy="406.8" r="4.7"/>
<g>
	<path class="st12" d="M158.9,175.3L130.2,186c-4.2,1.6-8.8-0.5-10.4-4.8L92.8,109c-1.6-4.2,0.5-8.8,4.8-10.4l28.7-10.7
		c4.2-1.6,8.8,0.5,10.4,4.8l26.9,72.2C165.2,169,163.1,173.7,158.9,175.3z"/>
	<path class="st11" d="M159.5,168.9l-34.1,12.7c-1.1,0.4-2.5-0.1-3-1.4l-25.9-69.5c-0.4-1.1,0.1-2.5,1.4-3L132,95
		c1.1-0.4,2.5,0.1,3,1.4l25.9,69.5C161.3,167,160.8,168.4,159.5,168.9z"/>
	<path class="st11" d="M121.9,94.7l-16.4,6.1c-0.3,0.1-0.7-0.1-0.8-0.4l-0.1-0.3c-0.1-0.3,0.1-0.7,0.4-0.8l16.4-6.1
		c0.3-0.1,0.7,0.1,0.8,0.4l0.1,0.3C122.4,94.3,122.2,94.6,121.9,94.7z"/>
	<ellipse transform="matrix(0.937 -0.3494 0.3494 0.937 -38.3703 52.6)" class="st13" cx="126.6" cy="132.7" rx="9.9" ry="9.9"/>
	<path class="st13" d="M154.9,170.7l-24.7,9.2l-7.5-20.2c-2.1-5.6,0.7-11.8,6.3-13.9l4.5-1.7c5.6-2.1,11.8,0.7,13.9,6.3L154.9,170.7
		L154.9,170.7z"/>
	<path class="st14" d="M127.1,115c-2.2-1-4.7-1.1-7.1-0.2s-4.2,2.6-5.2,4.8"/>
	<path class="st14" d="M128,111.9c-2.8-1.5-6.1-1.9-9.3-0.7c-3.2,1.2-5.6,3.7-6.6,6.7"/>
	<path class="st14" d="M129.4,108.1c-3.5-2.3-8.1-2.9-12.5-1.3c-4.3,1.6-7.4,5.1-8.5,9.3"/>
	<path class="st14" d="M126.2,118.1c-1.5-0.8-3.4-1-5-0.4c-1.8,0.7-3,2-3.7,3.6"/>
</g>
<path class="st12" d="M89.9,69.8c4.1-6.6,6.5-14.3,6.5-22.6c0-23.6-19.1-42.8-42.8-42.8S10.8,23.6,10.8,47.2S29.9,90,53.6,90
	c7.1,0,13.8-1.8,19.7-4.8l18.4,4.5c0.6,0.2,1.2-0.4,1.1-1L89.9,69.8z"/>
<path class="st15" d="M53.6,4.4C30,4.4,10.8,23.5,10.8,47.2C10.8,70.8,29.9,90,53.6,90c7.1,0,13.8-1.8,19.7-4.8l18.4,4.5
	c0.6,0.2,1.2-0.4,1.1-1l-2.9-18.8c4.1-6.6,6.5-14.3,6.5-22.6"/>
<path class="st16" d="M69.6,33.9c-4.4-3.2-10.4-2.4-14.2,1.4l-1.8,1.8l0,0L51.5,35c-4.2-4.2-11.1-4.2-15.4,0l0,0
	c-4.2,4.2-4.2,11.1,0,15.4l2.1,2.1l0,0L53,67.3c0.3,0.3,0.8,0.3,1.1,0l14.8-14.8l0,0l2-2C75.7,45.8,75.2,37.9,69.6,33.9z"/>
<path class="st1" d="M113.7,161.9L113.7,161.9c-2.2,1.1-4.9,0.2-6-2.1l-0.7-1.3c-1.1-2.2-0.2-4.9,2.1-6h0c2.2-1.1,4.9-0.2,6,2.1
	l0.7,1.3C116.8,158.1,115.9,160.8,113.7,161.9z"/>
<path class="st1" d="M109.6,153.7L109.6,153.7c-2.2,1.1-4.9,0.2-6-2.1l-0.7-1.3c-1.1-2.2-0.2-4.9,2.1-6h0c2.2-1.1,4.9-0.2,6,2.1
	l0.7,1.3C112.8,149.9,111.8,152.6,109.6,153.7z"/>
<path class="st1" d="M106,144.6L106,144.6c-2.2,1.1-4.9,0.2-6-2.1l-0.7-1.3c-1.1-2.2-0.2-4.9,2.1-6h0c2.2-1.1,4.9-0.2,6,2.1l0.7,1.3
	C109.2,140.8,108.3,143.5,106,144.6z"/>
</svg>
