<?xml version="1.0" encoding="utf-8"?>
<!-- Generator: Adobe Illustrator 26.0.3, SVG Export Plug-In . SVG Version: 6.00 Build 0)  -->
<svg version="1.1" id="Calque_1" xmlns="http://www.w3.org/2000/svg" xmlns:xlink="http://www.w3.org/1999/xlink" x="0px" y="0px"
	 viewBox="0 0 788 1005" style="enable-background:new 0 0 788 1005;" xml:space="preserve">
<style type="text/css">
	.st0{fill:#A85B3B;}
	.st1{fill:#6D323A;}
	.st2{fill:none;stroke:#000000;stroke-width:3;stroke-miterlimit:10;}
	.st3{fill:#473415;}
	.st4{fill:none;stroke:#4F3742;stroke-miterlimit:10;}
	.st5{fill:#913323;}
	.st6{fill:#893024;}
</style>
<polygon points="231.5,477.2 231.6,477.2 231.5,477.1 "/>
<polygon points="231.6,477.2 231.7,477.2 231.7,477.1 "/>
<polygon points="231.5,477.2 231.6,477.2 231.5,477.1 "/>
<polygon points="231.6,477.2 231.7,477.2 231.7,477.1 "/>
<path class="st0" d="M517.1,241.5c-0.6,38.4-26.2,33.2-36.9,42.3c-12.6,10.8-8.3,50-17.2,64c-2.5,3.8-11.4,10.1-15.8,9.1
	c-12.5-2.9-24-30.7-34.8-37.7c-6.3-4.1-23.6-3.6-30.2,0c-11.3,6.2-22.3,34.9-34.8,37.7c-4.4,1-13.4-5.2-15.8-9.1
	c-8.9-14-4.6-53.2-17.2-64c-10.6-9.1-36.2-3.9-36.9-42.3c-0.4-26.6,35-37.3,35-37.3l40.1-19.9c2.6-1.3,5-2.9,7.1-4.8
	c0.8-0.7,1.6-1.5,2.3-2.3l0.6-0.7v-0.1c3.9-4.7,6.5-10.4,7.2-16.4c0.2-1.4,0.3-2.8,0.2-4.2V153v-4.5h54l0.1,5v1.5v3.2
	c0,0.3,0,0.7,0,1l0,0c0,0.6,0.1,1.3,0.2,1.9c0.2,1.5,0.5,3.1,0.9,4.6c2.2,7.7,7.6,14,14.7,17.6l40.5,20.1c1,0.5,2.1,1,3.2,1.3
	C490.2,207,517.5,218.1,517.1,241.5z"/>
<path class="st0" d="M424.7,196.7l-27.5,32.5l-14.8-17.7L370,196.7l0.7-41.6v-2.2l0.1-4.5h53v0.2l0.1,4.7l0,0v1.6l0.1,4.2l0,0v1.3
	l0.1,6.8L424.7,196.7z"/>
<path class="st1" d="M425.2,165.9l-1,1.2c-5.2,6.3-28.8,35-41.8,44.3c-3.2,2.3-5.7,3.4-7.2,2.7c-6.8-3.3-14.8-35.1-14.8-35.1
	l0.1-0.1c0.6-0.6,1.2-1.2,1.7-1.9c0.3-0.4,0.7-0.8,1-1.3l0.1-0.1c3.3-4.5,5.6-9.7,6.7-15.2c0-0.2,0.1-0.4,0.1-0.6
	c0.3-1.4,0.5-3,0.7-4.8c0.1-0.7,0.1-1.4,0.2-2.2c0.1-1.4,0.2-2.9,0.3-4.5H424v0.2v4.3v6.7l0.1,0.8l0.1,0.7l0.9,4.6L425.2,165.9z"/>
<path class="st2" d="M467,404c-0.9-4-5.7-25.3-5.6-33.8c0.1-9.2,4-27.7,1.8-36.7c-9.8-39.6-123.5-39.6-133.3,0
	c-2.2,9,1.8,27.5,1.8,36.7c0,8.5-4.7,29.8-5.6,33.8c-11,50.3,70.3,71,70.3,71S478,454.3,467,404z"/>
<path class="st0" d="M282.3,349.4c-9.7-15-32.4-8.3-40.5-5.5s-23.1,12.1-30.5,16.7c-18.9,11.6-75.5,47.9-96.4,54.1
	c-14.6,4.4,6.9,25.4,6.9,25.4s17.5-4.6,27.7-8.2c21.4-7.6,50.8-16.3,86.6-27.6c9.4-3,27.2-12.2,34.9-18.3
	C292.3,369.2,285.1,353.8,282.3,349.4z"/>
<path class="st2" d="M338.7,238c2.8,27.5-14.9,54.4-14.9,54.4s-28.3,55.5-37.4,74.1c-4.3,8.8-13,27.2-35.2,17.1l0,0
	c-18.3-8.4-13.3-27.4-10-36.2c6.7-17.9,24-52.8,27.5-71.3c2.6-13.8,1.2-36.2,18.1-53.3c0,0,12.3-15.6,31.4-9.4l0.8,0.2
	C329.8,217.1,337.5,226.7,338.7,238z"/>
<path class="st0" d="M517.7,349.4c9.7-15,32.4-8.3,40.5-5.5s23.1,12.1,30.5,16.7c19,11.6,75.5,47.9,96.4,54.1
	c14.6,4.4-7.8,25.2-7.8,25.2s-16.9-4.7-27.1-8.3c-21.4-7.6-50.4-16-86.2-27.3c-9.4-3-27.2-12.2-34.9-18.3
	C507.7,369.2,514.8,353.8,517.7,349.4z"/>
<path class="st2" d="M458.8,238c-2.8,27.5,14.9,54.4,14.9,54.4s28.3,55.5,37.5,74.1c4.3,8.8,13,27.2,35.2,17.1l0,0
	c18.3-8.4,13.3-27.4,10-36.2c-6.7-17.9-24-52.8-27.5-71.3c-2.6-13.8-1.2-36.2-18.1-53.3c0,0-12.3-15.6-31.4-9.4l-0.8,0.2
	C467.7,217.1,459.9,226.7,458.8,238z"/>
<polygon class="st3" points="319.5,456.5 318.6,427.3 473.6,427.3 472.9,454.5 "/>
<path class="st4" d="M393.5,474.4l-3.4-18.9h14.5l-1,21.6l0,0C399.9,479.4,394.1,477.8,393.5,474.4z"/>
<path class="st5" d="M173.1,382.6l11,35.5c0.7,2.2,2.9,3.6,5.2,3.2l22.4-4.2c11-2,21.7-5.5,31.9-10.3c10.6-5.1,24.4-11.6,33.2-15.8
	c5.9-2.8,10.5-7.8,12.8-13.8c5.3-13.7,13.7-37,13.7-37c0.5-1.6,2.9-1.1,2.7,0.6l-0.4,19.4l-4.9,95.5c-1.2,12.2,5.9,18.3,9.1,30.1
	c0.1,0.2,0,0,0,0l55.1-4.7c21.5-1.8,43.1-1.9,64.5-0.1l48.4,3.9c0,0,0,0.2,0,0c3.4-14.1,8.1-14.9,5.3-29.2l-5.2-135.1
	c0-1.1,1.5-1.5,2-0.5l29.1,61.1c4.8,10.1,13.2,18.2,23.5,22.5l79.3,33.6c2.2,0.9,4.8-0.1,5.8-2.2l20.5-40.9c1.1-2.1,0.3-4.7-1.7-6
	l-66.1-40.5c-0.9-0.5-1.5-1.3-1.9-2.3l-43.6-113.2c-0.4-1.1-9.7-15.9-25.4-21L442,184.4c-1.6-0.7-3.4-0.5-4.7,0.6l-1.3,1
	c-25.6,20.2-61.6,20.2-87.3,0.2l-0.5-0.4c-1.4-1.1-3.2-1.3-4.8-0.5c0,0-23.4,10.4-42,18.8c-14.2,6.4-25.2,18.3-30.4,32.9
	c0,0-25.5,70.9-34.7,95.4c-2,5.2-5.5,9.6-10.2,12.6l-50.9,32.3C173.3,378.4,172.5,380.6,173.1,382.6z"/>
<path class="st6" d="M354.5,276.8l5.9,44.7c0.1,1-1.4,1.8-3.4,1.8h-29.1c-1.8,0-3.3-0.7-3.4-1.6l-4.9-42.1c-0.1-0.9,1.1-1.6,2.8-1.8
	l28.1-2.6C352.4,275,354.3,275.8,354.5,276.8z"/>
<g>
	<path class="st0" d="M103.8,413.1l-14.1-2.8c-0.2,0-0.6-0.1-0.8-0.2l-21.7-1c-2.5-0.9-5.3,0.3-6,2.9c-0.1,0.5-0.2,1-0.1,1.4
		c0.2,2.1,1.9,3.6,3.9,3.8l14.7,1.7c2.8,1.7,2.9,5.8,0.1,7.6L75,430c-0.8,0.5-1.7,0.8-2.7,0.8c0,0-7.3,0.8-10.8-5.7l0.9-5.9
		c1.2-2.4,0.3-5.4-2-6.8c-0.9-0.6-1.9-0.9-2.5-0.6c-2.2,1-7.6,12.2-6.4,14.1c0,0,1.7,3.5,4.1,7c0.3,0.5,0.8,1.2,1,1.9
		c0.6,1.3,2,5.8,3.6,6l14.4,4.1l0,0c1.5,0.2,3,0.2,4.5,0l40.7-4.4l2-0.3c3.2-0.5,2-6.4,0.3-10.9c-1.2-3.1-3-6-5.6-8.2l-5-4.3
		C109.4,414.9,106.7,413.7,103.8,413.1z"/>
	<path class="st0" d="M74.4,445.3l-38,6c-2.5,0.5-5-1.4-5.4-3.9l0,0c-0.5-2.5,1.4-5,3.9-5.4l38-6c2.5-0.5,5,1.4,5.4,3.9l0,0
		C78.8,442.5,77,444.9,74.4,445.3z"/>
	<path class="st0" d="M77.7,441.6l-38,6c-2.5,0.5-5-1.4-5.4-3.9l0,0c-0.5-2.5,1.4-5,3.9-5.4l38-6c2.5-0.5,5,1.4,5.4,3.9l0,0
		C82,438.8,80.3,441.2,77.7,441.6z"/>
	<path class="st0" d="M55.9,441.3l-10.8,1.7c-2.5,0.5-5-1.4-5.4-3.9l0,0c-0.5-2.5,1.4-5,3.9-5.4l10.8-1.7c2.5-0.5,5,1.4,5.4,3.9l0,0
		C60.3,438.5,58.4,440.9,55.9,441.3z"/>
</g>
<g>
	<path class="st0" d="M687.5,416.5l-5,4.3c-2.5,2.2-4.4,5.1-5.6,8.2c-1.6,4.5-3,10.4,0.3,10.9l2,0.3l40.7,4.4c1.5,0.2,3,0.1,4.5,0
		l0,0l14.4-4.1c1.7-0.1,3-4.6,3.6-6c0.2-0.7,0.7-1.4,1-1.9c2.3-3.5,4.1-7,4.1-7c1.3-2-4.2-13.1-6.4-14.1c-0.7-0.3-1.6,0-2.5,0.6
		c-2.3,1.4-3.1,4.4-2,6.8l0.9,5.9c-3.5,6.5-10.8,5.7-10.8,5.7c-0.9,0-1.9-0.3-2.7-0.8l-4.9-3.5c-2.8-1.9-2.7-5.9,0.1-7.6l14.7-1.7
		c2.1-0.2,3.8-1.9,3.9-3.8c0-0.5,0-0.9-0.1-1.4c-0.7-2.7-3.5-3.8-6-2.9l-21.7,1c-0.2,0.1-0.6,0.2-0.8,0.2l-14.1,2.8
		C692.4,413.3,689.7,414.6,687.5,416.5z"/>
	<path class="st0" d="M725.1,444.6l38,6c2.5,0.5,5-1.4,5.4-3.9l0,0c0.5-2.5-1.4-5-3.9-5.4l-38-6c-2.5-0.5-5,1.4-5.4,3.9l0,0
		C720.7,441.8,722.5,444.3,725.1,444.6z"/>
	<path class="st0" d="M721.8,441l38,6c2.5,0.5,5-1.4,5.4-3.9l0,0c0.5-2.5-1.4-5-3.9-5.4l-38-6c-2.5-0.5-5,1.4-5.4,3.9l0,0
		C717.4,438.1,719.2,440.6,721.8,441z"/>
	<path class="st0" d="M742.9,440.6l11.5,1.9c2.5,0.5,5-1.4,5.4-3.9l0,0c0.5-2.5-1.4-5-3.9-5.4l-11.5-1.9c-2.5-0.5-5,1.4-5.4,3.9l0,0
		C738.5,437.7,740.4,440.1,742.9,440.6z"/>
</g>
</svg>
