<?xml version="1.0" encoding="utf-8"?>
<!-- Generator: Adobe Illustrator 26.0.2, SVG Export Plug-In . SVG Version: 6.00 Build 0)  -->
<svg version="1.1" id="Calque_1" xmlns="http://www.w3.org/2000/svg" xmlns:xlink="http://www.w3.org/1999/xlink" x="0px" y="0px"
	 viewBox="0 0 588 387" style="enable-background:new 0 0 588 387;" xml:space="preserve">
<style type="text/css">
	.st0{fill:#82382E;}
	.st1{fill:#A85B3B;}
	.st2{fill:#473415;}
	.st3{fill:#823F1D;}
	.st4{fill:#FFFFFF;stroke:#547687;stroke-width:0.5;stroke-miterlimit:10;}
	.st5{fill:#547687;}
</style>
<g>
	<g>
		<path class="st0" d="M402.5,122.4c-0.6,38.4-13.2,39.2-23.9,48.3c-12.6,10.8-8.3,50-17.2,64c-2.5,3.8-11.4,10.1-15.8,9.1
			c-12.5-2.9-24-30.7-34.8-37.7c-6.3-4.1-23.6-3.6-30.2,0c-11.2,6.2-22.3,34.9-34.8,37.7c-4.4,1-13.4-5.2-15.8-9.1
			c-8.9-14-4.6-53.2-17.2-64c-10.6-9.1-20.2-6.9-20.9-45.3C191.6,98.8,211,91,211,91l40.1-19.9c10.8-5.4,17.6-16.4,17.5-28.5l0-7
			h53.6l0.1,6.1V45c0,0.3,0,0.7,0,1l0,0c0.5,10.3,6.6,19.5,15.8,24.1l40.5,20.1c1,0.5,2.1,1,3.2,1.3
			C388.6,93.9,402.8,99,402.5,122.4z"/>
		<path class="st1" d="M353.3,98.2C375.5,81.7,407.6,83,407.6,83s62.1-4.3,82.8-6.1c9.7-0.8,30-2.9,32.8,21.4l0,0
			c2.3,20-16.7,25.5-25.9,27.2c-18.8,3.5-57.6,6.6-75.3,13.1c-13.2,4.9-31.6,17.6-55,11.9c0,0-19.7-2.6-24.2-22.1l-0.2-0.8
			C339.9,116.6,344.2,105.1,353.3,98.2L353.3,98.2z"/>
		<path class="st1" d="M485.9,121.3c-17.9-8.7-13.7-31.9-11.6-40.3s10.2-24.1,14.2-31.9c10.2-19.9,30-52,39.7-71.5
			c6.4-12.9,9.4-19.8,18.7-17.9c8.5,1.7,6.8,15.7,6.2,21.2c-2.4,22.6-6.6,66.8-13,89.9c-2.6,9.5-9.7,28.2-15.3,36.4
			C509.1,129.8,491.1,123.8,485.9,121.3z"/>
		<polygon class="st2" points="216.4,335.8 217.9,313.3 372.9,313.3 374.9,332.8 		"/>
		<path class="st1" d="M236.5,100.5c-22.2-16.6-54.3-15.2-54.3-15.2s-62.1-4.3-82.8-6c-9.8-0.8-30-2.9-32.8,21.4l0,0
			c-2.3,20,16.6,25.5,25.9,27.2c18.8,3.5,57.6,6.5,75.3,13.1c13.2,4.9,31.6,17.6,55,11.9c0,0,19.7-2.6,24.2-22.1l0.2-0.8
			C249.9,119,245.7,107.4,236.5,100.5z"/>
		<path class="st1" d="M103.9,123.5c17.9-8.7,13.7-31.9,11.6-40.3s-10.2-24.1-14.2-31.9c-10.2-19.9-29.9-52-39.7-71.5
			c-6.4-12.9-9.4-19.8-18.7-18c-8.5,1.7-6.8,15.7-6.2,21.2c2.4,22.6,6.6,66.8,13,89.9c2.6,9.5,9.8,28.2,15.3,36.4
			C80.7,132.1,98.6,126,103.9,123.5z"/>
		<path class="st1" d="M34.2-26.8c-1.9-4.1-2.9-8.6-3.1-13.1l-1.4-24.1c0-2,0.7-4,2-5.5l0,0c2-2.1,4.7-3.4,7.6-3.4L60-76
			c3.4-0.1,5.1,0.8,6.6,3.6L66-65.9c0,0,1.9,8.9,2,6.2c0.4-9.3,1.9-15.7,10-14.8L76.6-59c0.1,1.3-1.2,3.9-1.8,5
			c-2,3.5-3.4,11.5-5.4,14.2c0,0-10,10.2-11.1,12.7c-1.1,2.6,1.2,6,1.2,6l0,0C58.8-16,54.1-12.3,49-13c-0.4-0.1-0.9-0.1-1.3-0.3
			l-8.8-2.4L34.2-26.8z"/>
		<path class="st3" d="M66.6-72.3l-1.3,12.6l-7.9,13.1l-8-1.3l1.3,1c2.7,2.2,4.1,5.6,3.7,9.1l-0.5,4.3l4.9-9.8l2.6-1.8L68.5-60
			l-0.3-6.6L66.6-72.3z"/>
		<path class="st1" d="M553.8-26.8c1.8-4.1,2.9-8.6,3.1-13.1l1.4-24.1c0-2-0.7-4-2-5.5l0,0c-2-2.1-4.7-3.4-7.7-3.4L528-76
			c-3.4-0.1-5.1,0.8-6.6,3.6l0.5,6.5c0,0-1.9,8.9-2,6.2c-0.4-9.3-1.8-15.7-10-14.8l1.5,15.5c-0.1,1.3,1.2,3.9,1.8,5
			c2,3.5,3.4,11.5,5.5,14.2c0,0,10,10.2,11.1,12.7c1.1,2.6-1.2,6-1.2,6l0,0c0.7,5.1,5.4,8.7,10.5,8.1c0.4-0.1,0.9-0.1,1.3-0.3
			l8.8-2.4L553.8-26.8z"/>
		<path class="st3" d="M521.4-72.3l1.3,12.6l7.9,13.1l8-1.3l-1.3,1c-2.7,2.2-4.1,5.7-3.7,9.1l0.5,4.3l-4.9-9.8l-2.6-1.8L519.6-60
			l0.3-6.6L521.4-72.3z"/>
		<path class="st4" d="M163.4,81.6l28,88.2c0,0,12.7,51.3,14.7,69.9c2.2,20.8,6.8,86.6,6.8,86.6l-1.4,27l170.3,4.4
			c0,0-3.8-65.4-0.5-107.5c1.5-19,14.9-75.6,14.9-75.6l29.1-93.3l-68.5-2.9l0,0c-36.6,20.1-81.2,19.3-117.1-2l-1.2-0.7L163.4,81.6z"
			/>
	</g>
	<polygon class="st5" points="232,353.8 227.1,353.8 227.1,76.5 232,76.1 	"/>
	<polygon class="st5" points="248,354.3 243.1,354.2 243.1,78.4 248,80.8 	"/>
</g>
</svg>
