<svg xmlns="http://www.w3.org/2000/svg" viewBox="0 0 388 327.1"><defs><style>.cls-1{fill:#e78367;}.cls-2{fill:#b85d40;}.cls-3{fill:#ffc145;}.cls-4{fill:#c35959;}.cls-5{fill:#baa535;}.cls-6{fill:#4f626c;}.cls-7{fill:#3c3d4e;}</style></defs><g id="Calque_4" data-name="Calque 4"><path class="cls-1" d="M240.43,123l2.16,18.26-21.08,75.33h-92.1L106.89,141l2.64-18.74-17-36.82,51.25-20.58A20.34,20.34,0,0,0,156.48,46V33.19H195V45.72A20.32,20.32,0,0,0,208.27,64.8l51.37,18.94Z"/><path class="cls-2" d="M156.86,32.76h38.48V43.34h0c-8.64,11-14.34,15.83-20.89,15.77-4.94,0-12.67-9.72-17.67-13.57l.08-1.93Z"/></g><g id="Calque_3" data-name="Calque 3"><path class="cls-1" d="M100.47,158.92,67.27,207.8l-2.59,3.29a13.87,13.87,0,0,1-18.6,3h0a13.88,13.88,0,0,1-5.19-16.71l2.18-5.42s18.29-39,22.81-52.57C71.42,122.69,82.08,71,110.6,85.22h0c10.4,5.18,18.73,18.46,13.12,28.64Z"/><path class="cls-1" d="M52.14,216.31h0a15.22,15.22,0,0,0,13.41-8.86,9.46,9.46,0,0,0,.73-1.58c1.68-9.06-.48-27.75-2.37-36.77-4.39-20.94-24.13-83.54-24.13-83.54h0a8.89,8.89,0,0,0-11.3-4.4l-1,.38a8.88,8.88,0,0,0-5.42,10c.16.77.29,1.47.37,2,1.36,9.46,5.58,71,7.19,83.77.94,7.46,5.72,21.95,9.17,28.62C40.77,209.72,47.12,216.45,52.14,216.31Z"/><path class="cls-1" d="M39,84.16S40,100.1,35.16,99l-1.8-.4L-5.82,88.38-50.25,66.92l6.53-5.55,7.6.4L-4.35,74.68,8.91,71.4l-15.06-20,5.74-5.08L16.36,61.55l15.53,9.58Z"/><rect class="cls-3" x="23.26" y="113.62" width="28.4" height="10.59" transform="translate(-14.08 5.39) rotate(-6.93)"/><path class="cls-4" d="M240.67,140.22c0,14.3-19.29,41.29-33.59,41.29a25.89,25.89,0,0,1,0-51.77C221.38,129.74,240.67,125.92,240.67,140.22Z"/><circle class="cls-4" cx="175.49" cy="77.77" r="25.89"/><path class="cls-1" d="M259.64,83.93l-17,57.48-21.08,75.33h-92.1l-22.52-75.57,2.64-18.74-17-36.82L143.73,65a20.33,20.33,0,0,0,12.75-18.87V33.38H195V45.91A20.32,20.32,0,0,0,208.27,65l51.37,18.94Z"/><path class="cls-2" d="M156.56,33.37H195V44h0c-8.64,11-14.34,15.83-20.89,15.77-4.94,0-12.67-9.72-17.67-13.57l.08-1.93Z"/><path class="cls-5" d="M174.89,218.8H221s20.93,57.81,21,62.84-62.31,67.52-61.29,70-6.41-4.3-6.41-5S174.89,218.8,174.89,218.8Z"/><path class="cls-5" d="M173.93,218.8H127.85s-20.92,57.81-21,62.84,62.31,67.52,61.28,70,6.41-4.3,6.41-5S173.93,218.8,173.93,218.8Z"/><path class="cls-6" d="M142.51,63.4,105.92,139a.48.48,0,0,0,0,.29l.06.56c5.16,41.7-1,108.59-13.76,148.64l-7.75,24.4a8.83,8.83,0,0,0,5.36,11l178.82,66a.52.52,0,0,0,.7-.44h0c1.93-23.19-2.59-60.19-10.06-82.23l-3.07-9.08c-14.39-42.49-21-113.58-14.73-158l.09-.63a.46.46,0,0,0,0-.28L207.41,63.38a.52.52,0,0,0-.59-.29l-31.67,7.59a.49.49,0,0,1-.24,0L143.1,63.13A.52.52,0,0,0,142.51,63.4Z"/><path class="cls-1" d="M262.72,158.13l38.84,44.53,3,3a13.89,13.89,0,0,0,18.83.7h0a13.87,13.87,0,0,0,3.13-17.22L323.67,184s-22.85-36.49-29-49.44c-7.5-15.87-24.3-65.89-50.91-48.35h0c-9.7,6.4-16.36,20.58-9.57,30Z"/><polygon class="cls-7" points="165.88 173.29 220.92 293.43 312.53 252.48 275.67 128.47 165.88 173.29"/><path class="cls-1" d="M324.82,187.51h0A17.26,17.26,0,0,1,323.64,203a9.93,9.93,0,0,1-.84,1.38c-5.77,5.83-19.8,13.21-26.88,16.06-16.47,6.63-68.19,20.95-68.19,20.95h0c-3.74.39-7-2.76-7.39-7.19l-.09-1c-.39-4.1,1.74-8.07,5.05-9.41.6-.25,1.14-.48,1.55-.68,7.2-3.51,52.32-30.2,61.94-35.1,5.62-2.88,17.67-6,23.69-6.43C315.86,181.33,323,183.28,324.82,187.51Z"/><polygon class="cls-1" points="222.45 225.3 205.18 217.12 186.85 215.69 190.35 222.34 199.04 224.74 203.13 229.23 192.31 231.32 190.74 223.3 185.6 223.42 178.44 236 185.87 259.34 202.11 262.3 227.02 244.62 234.45 240.85 249.94 234.24 233.66 219.86 227.1 223.81 222.45 225.3"/></g></svg>