<svg xmlns="http://www.w3.org/2000/svg" viewBox="0 0 388 327.1"><defs><style>.cls-1{fill:#e78367;}.cls-2{fill:#b85d40;}.cls-3{fill:none;}.cls-4{fill:#c67864;}.cls-5{fill:#2d2a29;}</style></defs><g id="Calque_4" data-name="Calque 4"><path class="cls-1" d="M240.43,123l2.16,18.26-21.08,75.33h-92.1L106.89,141l2.64-18.74-17-36.82,51.25-20.58A20.34,20.34,0,0,0,156.48,46V33.19H195V45.72A20.32,20.32,0,0,0,208.27,64.8l51.37,18.94Z"/><path class="cls-2" d="M156.86,32.76h38.48V43.34h0c-8.64,11-14.34,15.83-20.89,15.77-4.94,0-12.67-9.72-17.67-13.57l.08-1.93Z"/></g><g id="Calque_3" data-name="Calque 3"><path class="cls-3" d="M224.51,270.18c15.55,5,22.34,9.27,26,15.94,3,5.41,5.82,17.79,6,24,.52,14.51-7.48,51-21.11,63.13-13.86,12.38-81.63,12.38-95.49,0-13.63-12.16-21.64-48.62-21.11-63.13.22-6.18,3-18.56,6-24,3.7-6.67,10.48-10.91,26-15.94,17.8-5.76,35.9-4.85,35.9-4.85S206.71,264.42,224.51,270.18Z"/><path class="cls-1" d="M35.84,97.94c-.59-2.34-15.16-37-15.16-37S37.84,40.54,37.74,40.31c-1-2.21-7.63-34.05-7.63-34.05l6-1.88L47.39,43,54,8.56l5.48,3.19L56.63,49.18,64.1,66.56,53.68,96Z"/><path class="cls-3" d="M215.67,253.41c15.55,5,22.33,9.27,26,16,3,5.41,5.82,17.79,6,24,.52,14.5-7.48,51-21.11,63.13-13.87,12.38-81.63,12.38-95.5,0C117.51,344.3,109.5,307.83,110,293.33c.23-6.18,3-18.56,6-24,3.7-6.68,10.48-10.92,26-16,17.79-5.75,35.9-4.84,35.9-4.84S197.87,247.66,215.67,253.41Z"/><path class="cls-1" d="M303.65,197.25l2.85,2.88a12.72,12.72,0,0,0,17.76.53h0a14,14,0,0,0,2.63-16.93l-2.74-5S271.76,65.94,247,83.38h0c-9,6.36-15.05,20.35-8.47,29.55Z"/><path class="cls-1" d="M103.56,159.41l-28.4,51.81-2.26,3.52a13.87,13.87,0,0,1-18.23,4.72h0a13.88,13.88,0,0,1-6.76-16.15l1.65-5.6s14.51-40.54,17.71-54.5c3.93-17.11,9.63-69.57,39.37-58.14h0c10.85,4.17,20.4,16.6,15.78,27.26Z"/><path class="cls-1" d="M322.93,180.45h0a17.29,17.29,0,0,1,5.55,14.47,9.29,9.29,0,0,1-.17,1.61c-2.7,7.74-12.21,20.42-17.39,26-12,13-52.62,48.17-52.62,48.17h0c-3.21,1.94-7.47.49-9.75-3.34l-.51-.85c-2.11-3.53-1.89-8,.52-10.67.44-.48.83-.92,1.12-1.28,5-6.25,34.31-49.71,40.89-58.27,3.85-5,13.39-13,18.66-16C312.18,178.71,319.49,177.41,322.93,180.45Z"/><path class="cls-1" d="M59.8,221.58h0a15.22,15.22,0,0,0,13.75-8.32,8.67,8.67,0,0,0,.79-1.56c2-9,.64-27.74-.89-36.83-1.07-6.34-3.38-16.5-6.08-27.61-6.29-25.85-14.72-56.83-14.72-56.83h0a8.89,8.89,0,0,0-11.11-4.84l-1,.34a8.89,8.89,0,0,0-5.81,9.82c.13.78.23,1.48.29,2,1,9.51.31,60.09,3.85,84,1.1,7.43,4.84,22.15,8,28.95C48.71,214.54,54.78,221.52,59.8,221.58Z"/><path class="cls-4" d="M77.45,184.45c-1-10.12-4.93-29.46-10.77-39.21l.84-2.63L96.4,173.09S74.23,214.66,71.67,216.2C71.67,216.2,79,200.32,77.45,184.45Z"/><path class="cls-5" d="M67,142.6s7.22-44.8,18.59-55.16,167-9.14,167-9.14,18.65,8.56,28,22.85a262.44,262.44,0,0,1,15.54,27.12L267.24,152,245.5,124.41l.45,18.33-16.79,77.55,16.14,64s-11.31,15.61-9.76,14.33S120.22,296,120.22,296L104.49,285.1l12.92-63.52-7.52-72.87-13.31,25Z"/><path class="cls-1" d="M263.23,253.61c1.66,1.88,2.94,5.6-.44,10,0,0-9.47,13.61-14.13,17.1-2.09,1.57-20.32,11.45-20.32,11.45s-15.65-6.54-17.43-10.23c-1-2.15,25.69-18.49,26.75-20.43.41-.75-8.6-6.93-8.6-6.93l-.18-6s16,4.24,18.86,3.89a47.44,47.44,0,0,0,4.66-1C256.22,250.54,261,251,263.23,253.61Z"/><polygon class="cls-1" points="255.56 246.47 253.54 251.28 257.03 259.12 260.87 266.62 263.91 262.1 269.83 256.45 255.56 246.47"/></g></svg>