<?xml version="1.0" encoding="utf-8"?>
<!-- Generator: Adobe Illustrator 26.0.3, SVG Export Plug-In . SVG Version: 6.00 Build 0)  -->
<svg version="1.1" id="Calque_1" xmlns="http://www.w3.org/2000/svg" xmlns:xlink="http://www.w3.org/1999/xlink" x="0px" y="0px"
	 viewBox="0 0 788 371" style="enable-background:new 0 0 788 371;" xml:space="preserve">
<style type="text/css">
	.st0{fill:#A85B3B;}
	.st1{fill:#E2B440;}
	.st2{fill:#FEBC6E;}
	.st3{fill:#FFFFFF;}
	.st4{fill:#35912D;}
	.st5{fill:#E0AA4B;}
	.st6{fill:#7097BA;}
	.st7{fill:#BA3E35;}
	.st8{fill:#854532;}
	.st9{fill:#473415;}
	.st10{fill:#E2E2E2;}
	.st11{fill:#DB7C00;}
	.st12{fill:#1D1D1B;}
	.st13{fill:#AD6400;}
	.st14{fill:#1C1938;}
	.st15{fill:#FF9603;}
	.st16{fill:#D8C5A7;}
</style>
<path class="st0" d="M501.2,232.1c-1.3,29.2,18.8,56.2,18.8,56.2s32.9,56.6,43.6,75.6c5.1,8.9,15.2,27.9,37.9,15.9l0,0
	c18.8-9.9,12.4-29.6,8.4-38.6c-8.1-18.4-28.3-53.9-33-73.3c-3.4-14.5-3.4-37.9-22.1-54.9c0,0-13.8-15.6-33.5-8l-0.8,0.3
	C509.3,209.5,501.7,220,501.2,232.1L501.2,232.1z"/>
<path class="st1" d="M529.6,308.6l-2.8-4.7c-0.8-1.3-0.3-2.9,0.9-3.7l50.2-29.1c1.3-0.8,2.9-0.3,3.7,0.9l2.8,4.7
	c0.8,1.3,0.3,2.9-0.9,3.7l-50.2,29.1C532,310.4,530.3,309.9,529.6,308.6z"/>
<path class="st0" d="M497.5,484.6l4.4,12.7c0.1,0.3,0.3,0.5,0.3,0.8l9.4,18c0.5,2.4,2.8,4.1,5.2,3.4c0.5-0.1,0.9-0.4,1.3-0.5
	c1.5-1.1,2-3.2,1.3-4.9l-5.6-12.7c0.1-3.2,3.3-5.1,6.1-3.8l5.1,2.3c0.8,0.5,1.4,1,1.9,1.8l6.1,12.9c1.3,1.9,1.4,4.3,0.4,6.3
	l-3.3,9.4c-0.6,1.5-0.4,3.7,1.1,4.7c1.9,1.4,4.4,0.5,5.5-1.4c0,0,4.6-9.6,6.2-13.2c0.3-0.5,0.5-1.3,1-1.8c0.8-1.1,1-2.7,0.4-4.1
	l-7.1-21.6l0,0c-0.5-1.4-1.3-2.5-2.2-3.7l-22.7-30.7l-1.3-1.4c-1.9-2.4-6,1.4-8.9,4.9c-2,2.4-3.4,5.3-4.1,8.5l-1.1,6.1
	C496.5,479.2,496.6,482,497.5,484.6z"/>
<path class="st2" d="M423.3,518c-0.6,28.2,21.9,51.3,50,51.3c5.6,0,10.8-0.9,15.7-2.5c4.6-1.5,8-5.3,9-10
	c3.2-14.7-3.3-36.7,3.6-39.6c5.1-2.2,9.4,3.3,13.6,6.3c3.4,2.4,8.2,0,8.2-4.2l0,0c0-28-23.1-50.6-51.3-50
	C445.8,469.8,424.1,491.5,423.3,518z M508.3,510.1c0-3.2,2.4-5.6,5.6-5.6s5.6,2.4,5.6,5.6c0,3.2-2.4,5.6-5.6,5.6
	C510.7,515.6,508.3,513.2,508.3,510.1z"/>
<path class="st0" d="M510.6,513.9l3.8,7.6c0.5,0.9,0.8,1.8,1.1,2.7c0.8,1.9,2.8,3,4.9,2.4c0.5-0.1,0.9-0.4,1.3-0.5
	c1.5-1.1,2-3.2,1.3-4.9l-4.7-9.9C515.4,512.2,513,512.8,510.6,513.9z"/>
<g>
	<g>
		<path class="st3" d="M492.8,514c3.7,0.6,4.4-12.8,0-13.4c-1.9-0.4-4.2-1.3-6.1-0.4c-4.4,2.2-4.1,9.3-3.3,13.1
			c0.8,3.7,1.4,7.4,2.2,11c0.4,2,2.3,4.7,4.1,2.4c2.2-2.3,1.6-6.6,1.1-9.4c-0.5-3-1.1-5.8-1.6-8.8c-0.1-0.6-0.1-1.4-0.4-2
			c-0.1-0.3-0.1-0.4-0.1-0.5c-0.1,2.3-0.3,4.8-0.4,7.1c0.3-0.1,0.5,0,0.8,0C490.2,513.7,491.6,513.7,492.8,514L492.8,514z"/>
	</g>
</g>
<g>
	<g>
		<path class="st4" d="M449.7,514.5c-3.3-2.3-5.1,10.8-1.6,13.1c2.3,1.5,4.4,3.2,6.7,4.7c0.3-4.6,0.5-9,0.8-13.4
			c-4.6-0.5-9.3-1.1-13.8-1.6c-4.1-0.5-3.8,11.9-0.8,13.4c6.5,3.2,12.9,6.5,19.3,9.6c0.3-4.6,0.5-9,0.8-13.4
			c-5.3,0.1-10.7,0.3-16,0.4c-4.3,0.1-4.1,13.8,0,13.7c5.3-0.1,10.7-0.3,16-0.4c4.2-0.1,3.9-11.9,0.8-13.4
			c-6.5-3.2-12.9-6.5-19.3-9.6c-0.3,4.6-0.5,9-0.8,13.4c4.6,0.5,9.3,1.1,13.8,1.6c2.3,0.4,2.9-4.4,3-5.8c0.3-2.3,0-6-2.2-7.5
			C454.1,517.7,452,516,449.7,514.5L449.7,514.5z"/>
	</g>
</g>
<g>
	<g>
		<path class="st5" d="M469,490.4c-0.4-1.6-1.9-4.1-3.6-2.2c-1.6,2.2-1.4,5.6-0.9,8c0.6,3,1.4,6.1,2,9.3c0.4,1.5,1.9,4.1,3.6,2.2
			c1.6-2.2,1.4-5.6,0.9-8C470.3,496.6,469.6,493.6,469,490.4L469,490.4z"/>
	</g>
</g>
<g>
	<g>
		<path class="st6" d="M445.5,498.4c1-3,1.4-6.7,0-9.6c-1-2.3-3.3-2.7-4.2,0c-2.2,6-2.3,14.5,2.5,19.2c3.4,3.4,9,4.3,13.6,5.8
			c4.6,1.4,5.2-12.1,1.5-13.2c-2.7-0.9-5.2-1.6-7.7-2.5c-1.5-0.5-3.3-1-4.6-2.2c-0.4-0.4-0.5-0.5-0.8-0.9c-0.4-0.4-0.1,0.5,0,0.1
			c0.1-0.6,0.1,1.3,0.1,1.4c-0.1-1.4-0.1,1.5,0,0.4C445.6,499.7,446.7,495.1,445.5,498.4L445.5,498.4z"/>
	</g>
</g>
<g>
	<g>
		<path class="st7" d="M481.4,546.5c2.3,1.5,3.6-3.6,3.8-4.7c0.4-2.5,0.3-6.7-2.2-8.5c-3.3-2.3-8.1-3.8-11.2-0.5
			c-3.7,3.9-4.4,10.1-4.8,15.2c-0.1,1.4,0.5,6.9,3,6.7c2.7,0,2.9-4.9,3-6.7c-0.3,3.2-0.1,1.4,0,0.5c0,0,0.1-1.4,0-0.5
			c-0.1,0.9,0.3-0.8,0.3-0.8c0.1-0.5,0.5-2.2,1.6-2.8C476.9,543.7,479.8,545.3,481.4,546.5L481.4,546.5z"/>
	</g>
</g>
<path class="st0" d="M452.4,312.5c10.8,6.5,22.3,32.3,34.8,34.9c4.4,1,13.4-4.9,15.8-8.4c8.9-12.9,4.6-49.3,17.2-59.3
	c10.6-8.4,23.2-9.2,23.9-44.7c0.4-21.6-13.9-26.4-20.5-28.6c-1.1-0.3-2.1-0.8-3.2-1.2l-40.5-18.6c-9.6-4.4-15.7-13.4-15.8-23.3
	l-0.2-16.7l-27,1.9l-26.6-1.9l0.1,14.6c0.1,11.2-6.7,21.4-17.5,26.4L352.8,206c0,0-19.4,7.2-19,31.8c0.6,35.5,10.2,33.5,20.9,41.9
	c12.6,10,8.3,46.3,17.2,59.3c2.5,3.6,11.4,9.4,15.8,8.4c12.5-2.7,23.5-29.2,34.8-34.9C428.8,309.1,446.1,308.6,452.4,312.5z"/>
<polygon class="st0" points="438.7,141.6 463.7,145.3 464.7,199 437.2,229.1 410,199 411,145.3 "/>
<path class="st8" d="M454.6,128.2l9,1.3l0.2,35.2l1.3,5.8c0,0-41.9,48.3-50,44.7c-6.8-3-14.8-32.5-14.8-32.5s8.4-5.3,9.6-17.1
	c1.2-12,0.1-36,0.1-36l12.7-1.7C433.3,126.5,444,126.6,454.6,128.2z"/>
<polygon class="st9" points="357.9,432.7 359.4,411.8 514.4,411.8 516.4,429.9 "/>
<path class="st0" d="M378.1,214.7c-22.2-15.3-54.3-14.1-54.3-14.1s-62.1-4-82.8-5.6c-9.8-0.8-30-2.7-32.8,19.8l0,0
	c-2.3,18.5,16.6,23.7,25.9,25.2c18.8,3.2,57.6,6.1,75.3,12.2c13.2,4.5,31.6,16.3,55,11c0,0,19.7-2.4,24.2-20.5l0.2-0.7
	C391.4,231.7,387.2,221,378.1,214.7L378.1,214.7z"/>
<path class="st0" d="M245.4,236.1c17.9-8,13.7-29.6,11.6-37.3c-2.1-7.7-10.2-22.4-14.2-29.6c-10.2-18.4-29.9-48.1-39.7-66.2
	c-6.4-11.9-9.4-18.4-18.7-16.6c-8.5,1.6-6.8,14.5-6.2,19.6c2.4,20.9,6.6,61.9,13,83.3c2.6,8.8,9.8,26.1,15.3,33.7
	C222.3,244,240.2,238.4,245.4,236.1z"/>
<path class="st0" d="M175.8,96.9c-1.8-3.8-2.9-7.9-3.1-12.1l-1.4-22.3c0-1.9,0.7-3.7,2-5.1l0,0c2-2,4.8-3.1,7.6-3.1l20.7-2.9
	c3.4-0.1,5.1,0.7,6.6,3.3l-0.6,6c0,0,1.9,8.2,2,5.8c0.4-8.7,1.9-14.5,10-13.7l-1.5,14.4c0.1,1.2-1.2,3.6-1.8,4.6
	c-2,3.2-3.4,10.6-5.4,13.2c0,0-10,9.4-11.1,11.7c-1.1,2.4,1.2,5.6,1.2,5.6l0,0c-0.7,5.2-6.3,8.7-11.8,7.2l-8.8-2.3L175.8,96.9z"/>
<path class="st10" d="M306.7,202.2L333,279c0,0,12.7,47.5,14.7,64.7c2.2,19.2,6.8,80.2,6.8,80.2l-0.8,14.2
	c-0.3,5.9,4.3,10.9,10.3,11.1l139.8,3.3c10.5,0.3,19.1-8.4,18.6-19c-0.9-21.1-1.7-55.1,0.4-80.2c1.5-17.5,14.9-70.1,14.9-70.1
	l16.9-74.4c0.9-2.6-2.4-4.4-5.1-4.5l-51.3-10.2l-51.5,26.1c-4.8,2.4-10.5,2.3-15.2-0.3l-51.3-28.3l-70,5.2
	C307.5,197.1,305.8,199.7,306.7,202.2z"/>
<g>
	<g>
		<g>
			<g>
				<path class="st11" d="M430.3,237.7c0,0-3.7,2.2-5.1,4.7l-1.1,1.7c-0.1,1.1,1.3,2.6,1.3,2.6c1.5,1.3,3.1,3.3,4.8,4.2
					c0,0-3.5,2.1-4.8,3.7l-0.8,1.3c-0.4,0.8-0.4,1.8,0.1,2.5l0.6,0.9c1.7,1.4,3,2.4,4.6,4c0,0-2.4,2.7-4.4,4.1l-1,1.2
					c-0.5,1.1-0.1,2.6,1,3.1c0.1,0,3.2,3.1,5.1,4.9c0,0-4.4,2.8-6.2,5.5c0,0-0.5,1.8-0.4,2l0.7,2c1.7,2.3,3.1,2.8,5.4,4.7
					c0,0-2.4,1.6-4.7,4l-0.7,0.7c-0.8,0.7-0.8,1.8-0.4,2.9l1.3,1.8c1,1,3.4,3.1,4.7,3.7h5.3c-0.6-0.9-0.7-1.7-1.5-2.4
					c0.1,0.1-2.1-2.2-2.1-2.1c-1.3-1.3-2.5-2.4-2.5-2.4c1.1-1.1,1.9-1.4,2.9-2.4c0.9-0.9,1.7-1.7,2.6-2.8l0.2-1.7
					c-0.1-0.6-0.5-1.2-1.1-1.5l-1.5-1c-1.8-1.5-4.2-3.6-4.2-3.6c2.2-1.2,4-3.3,6.1-4.7l1-2c0.1-0.6,0-1.1-0.3-1.6l-0.9-1.4
					c-2.3-2.3-4.3-4.7-4.3-4.7c2-1.6,2.6-2.2,4.6-3.8l0.7-1.7c-0.1-0.5-0.3-1.8-0.6-2.1l-0.8-1c-1.3-1.5-3.7-3.9-3.7-3.9
					c1.5-1.2,3-2.4,4.3-3.7l1.2-2c0-0.6-0.3-1.6-0.6-2.1l-1.2-1.4c-1.8-1.5-4.2-3.5-4.2-3.5s2.1-2,3.6-3.3l1.1-1.2
					c0.5-0.5,1.4-1.6,1.5-2.3L430.3,237.7z"/>
				<path class="st12" d="M436.6,299.4c-1.2,0-2.1-1-2.1-2.3s1-2.3,2.1-2.3c1.2,0,2.1,1,2.1,2.3
					C438.8,298.3,437.8,299.4,436.6,299.4z"/>
				<path class="st12" d="M436.6,285.3c-1.2,0-2.1-1-2.1-2.3s1-2.3,2.1-2.3c1.2,0,2.1,1,2.1,2.3
					C438.8,284.3,437.8,285.3,436.6,285.3z"/>
				<path class="st12" d="M436.6,271.7c-1.2,0-2.1-1-2.1-2.3s1-2.3,2.1-2.3c1.2,0,2.1,1,2.1,2.3
					C438.8,270.7,437.8,271.7,436.6,271.7z"/>
				<path class="st12" d="M437,259.9c-1.2,0-2.1-1-2.1-2.3s1-2.3,2.1-2.3c1.2,0,2.1,1,2.1,2.3S438.2,259.9,437,259.9z"/>
				<path class="st12" d="M436.8,246.1c-1.2,0-2.1-1-2.1-2.3s1-2.3,2.1-2.3c1.2,0,2.1,1,2.1,2.3S438,246.1,436.8,246.1z"/>
				<path class="st13" d="M437.5,237.7c0.1,0.5,1,1.9,1,1.9c1.9,2.6,4.9,5.3,4.9,5.3s-2.9,1.6-4.3,4.1l-0.8,1.9
					c-0.1,1.1,1.1,2.1,1.1,2.1c1.5,1.3,2.3,2.6,4,3.6c0,0-2.9,2.1-4.3,3.8l-0.8,1.3c-0.4,0.8-0.4,1.8,0.1,2.5l0.6,0.9
					c1.7,1.4,2.6,2.7,4.2,4.3c0,0-2.7,2.4-4.7,3.8l-1,1.2c-0.5,1.1,0.6,2.8,0.6,2.8c1.9,1.8,3.5,3.6,5.4,5.4c0,0-4.4,2.5-6.2,5.2
					l-0.4,2c0.1,1.5,1.1,2.1,1.1,2.1c1.7,2.3,2.5,3.8,4.9,5.2c0,0-2.6,2.7-4.7,5.2c0,0-0.6,0.8-0.8,1.8h5.1c2.1-2.1,3.4-3.3,5.1-5.5
					l0.6-1.7c0-0.7-0.6-2.2-1.2-2.5l-1.5-1c-1.8-1.5-3.6-3.7-3.6-3.7s3.4-3.2,5.5-4.6l1-2c0.1-0.6,0-1.1-0.3-1.6l-0.9-1.4
					c-2.3-2.3-4.4-4.7-4.4-4.7s2.2-1.8,4.2-3.5l1.1-1.5c-0.1-0.5,0.5-1.1-0.3-2.2l-1.1-1.5c-1.3-1.5-3.7-3.9-3.7-3.9
					c1.5-1.2,3-2.4,4.3-3.7l1-2.5c0-0.6-0.2-1.1-0.5-1.5l-1.2-1.4c-1.8-1.5-3.3-3-3.3-3c1.3-1.7,2.5-1.9,4-3.2l0.9-0.8
					c0.8-0.8,0.9-2.1,0.3-3.1l-0.9-1.1c-2.2-1.4-5-4.7-5-4.7L437.5,237.7L437.5,237.7z"/>
			</g>
			<g>
				<path class="st11" d="M430.3,304c0,0-3.7,2.2-5.1,4.7l-1.1,1.7c-0.1,1.1,1.3,2.6,1.3,2.6c1.5,1.3,3.1,3.3,4.8,4.2
					c0,0-3.5,2.1-4.8,3.7l-0.8,1.3c-0.4,0.8-0.4,1.8,0.1,2.5l0.6,0.9c1.7,1.4,3,2.4,4.6,4c0,0-2.4,2.7-4.4,4.1l-1,1.2
					c-0.5,1.1-0.1,2.6,1,3.1c0.1,0,3.2,3.1,5.1,4.9c0,0-4.4,2.8-6.2,5.5c0,0-0.5,1.8-0.4,2l0.7,2c1.7,2.3,3.1,2.8,5.4,4.7
					c0,0-2.4,1.6-4.7,4l-0.7,0.7c-0.8,0.7-0.8,1.8-0.4,2.9l1.3,1.8c1,1,3.4,3.1,4.7,3.7h5.3c-0.6-0.9-0.7-1.7-1.5-2.4
					c0.1,0.1-2.1-2.2-2.1-2.1c-1.3-1.3-2.5-2.4-2.5-2.4c1.1-1.1,1.9-1.4,2.9-2.4c0.9-0.9,1.7-1.7,2.6-2.8l0.2-1.7
					c-0.1-0.6-0.5-1.2-1.1-1.5l-1.5-1c-1.8-1.5-4.2-3.6-4.2-3.6c2.2-1.2,4-3.3,6.1-4.7l1-2c0.1-0.6,0-1.1-0.3-1.6l-0.9-1.4
					c-2.3-2.3-4.3-4.7-4.3-4.7c2-1.6,2.6-2.2,4.6-3.8l0.7-1.7c-0.1-0.5-0.3-1.8-0.6-2.1l-0.8-1c-1.3-1.5-3.7-3.9-3.7-3.9
					c1.5-1.2,3-2.4,4.3-3.7l1.2-2c0-0.6-0.3-1.6-0.6-2.1l-1.2-1.4c-1.8-1.5-4.2-3.5-4.2-3.5s2.1-2,3.6-3.3l1.1-1.2
					c0.5-0.5,1.4-1.6,1.5-2.3L430.3,304z"/>
				<path class="st12" d="M436.6,365.7c-1.2,0-2.1-1-2.1-2.3s1-2.3,2.1-2.3c1.2,0,2.1,1,2.1,2.3
					C438.8,364.7,437.8,365.7,436.6,365.7z"/>
				<path class="st12" d="M436.6,351.7c-1.2,0-2.1-1-2.1-2.3s1-2.3,2.1-2.3c1.2,0,2.1,1,2.1,2.3
					C438.8,350.6,437.8,351.7,436.6,351.7z"/>
				<path class="st12" d="M436.6,338.1c-1.2,0-2.1-1-2.1-2.3s1-2.3,2.1-2.3c1.2,0,2.1,1,2.1,2.3C438.8,337,437.8,338.1,436.6,338.1z
					"/>
				<path class="st12" d="M437,326.3c-1.2,0-2.1-1-2.1-2.3s1-2.3,2.1-2.3c1.2,0,2.1,1,2.1,2.3S438.2,326.3,437,326.3z"/>
				<path class="st12" d="M436.8,312.5c-1.2,0-2.1-1-2.1-2.3s1-2.3,2.1-2.3c1.2,0,2.1,1,2.1,2.3S438,312.5,436.8,312.5z"/>
				<path class="st13" d="M437.5,304c0.1,0.5,1,1.9,1,1.9c1.9,2.6,4.9,5.3,4.9,5.3s-2.9,1.6-4.3,4.1l-0.8,1.9
					c-0.1,1.1,1.1,2.1,1.1,2.1c1.5,1.3,2.3,2.6,4,3.6c0,0-2.9,2.1-4.3,3.8l-0.8,1.3c-0.4,0.8-0.4,1.8,0.1,2.5l0.6,0.9
					c1.7,1.4,2.6,2.7,4.2,4.3c0,0-2.7,2.4-4.7,3.8l-1,1.2c-0.5,1.1,0.6,2.8,0.6,2.8c1.9,1.8,3.5,3.6,5.4,5.4c0,0-4.4,2.5-6.2,5.2
					l-0.4,2c0.1,1.5,1.1,2.1,1.1,2.1c1.7,2.3,2.5,3.8,4.9,5.2c0,0-2.6,2.7-4.7,5.2c0,0-0.6,0.8-0.8,1.8h5.1c2.1-2.1,3.4-3.3,5.1-5.5
					l0.6-1.7c0-0.7-0.6-2.2-1.2-2.5l-1.5-1c-1.8-1.5-3.6-3.7-3.6-3.7s3.4-3.2,5.5-4.6l1-2c0.1-0.6,0-1.1-0.3-1.6l-0.9-1.4
					c-2.3-2.3-4.4-4.7-4.4-4.7s2.2-1.8,4.2-3.5l1.1-1.5c-0.1-0.5,0.5-1.1-0.3-2.2l-1.1-1.5c-1.3-1.5-3.7-3.9-3.7-3.9
					c1.5-1.2,3-2.4,4.3-3.7l1-2.5c0-0.6-0.2-1.1-0.5-1.5l-1.2-1.4c-1.8-1.5-3.3-3-3.3-3c1.3-1.7,2.5-1.9,4-3.2l0.9-0.8
					c0.8-0.8,0.9-2.1,0.3-3.1l-0.9-1.1c-2.2-1.4-5-4.7-5-4.7L437.5,304L437.5,304z"/>
			</g>
			<g>
				<path class="st11" d="M430.3,370.4c0,0-3.7,2.2-5.1,4.7l-1.1,1.7c-0.1,1.1,1.3,2.6,1.3,2.6c1.5,1.3,3.1,3.3,4.8,4.2
					c0,0-3.5,2.1-4.8,3.7l-0.8,1.3c-0.4,0.8-0.4,1.8,0.1,2.5l0.6,0.9c1.7,1.4,3,2.4,4.6,4c0,0-2.4,2.7-4.4,4.1l-1,1.2
					c-0.5,1.1-0.1,2.6,1,3.1c0.1,0,3.2,3.1,5.1,4.9c0,0-4.4,2.8-6.2,5.5c0,0-0.5,1.8-0.4,2l0.7,2c1.7,2.3,3.1,2.8,5.4,4.7
					c0,0-2.4,1.6-4.7,4l-0.7,0.7c-0.8,0.7-0.8,1.8-0.4,2.9l1.3,1.8c1,1,3.4,3.1,4.7,3.7h5.3c-0.6-0.9-0.7-1.7-1.5-2.4
					c0.1,0.1-2.1-2.2-2.1-2.1c-1.3-1.3-2.5-2.4-2.5-2.4c1.1-1.1,1.9-1.4,2.9-2.4c0.9-0.9,1.7-1.7,2.6-2.8l0.2-1.7
					c-0.1-0.6-0.5-1.2-1.1-1.5l-1.5-1c-1.8-1.5-4.2-3.6-4.2-3.6c2.2-1.2,4-3.3,6.1-4.7l1-2c0.1-0.6,0-1.1-0.3-1.6l-0.9-1.4
					c-2.3-2.3-4.3-4.7-4.3-4.7c2-1.6,2.6-2.2,4.6-3.8l0.7-1.7c-0.1-0.5-0.3-1.8-0.6-2.1l-0.8-1c-1.3-1.5-3.7-3.9-3.7-3.9
					c1.5-1.2,3-2.4,4.3-3.7l1.2-2c0-0.6-0.3-1.6-0.6-2.1l-1.2-1.4c-1.8-1.5-4.2-3.5-4.2-3.5s2.1-2,3.6-3.3l1.1-1.2
					c0.5-0.5,1.4-1.6,1.5-2.3L430.3,370.4z"/>
				<path class="st12" d="M436.6,432.1c-1.2,0-2.1-1-2.1-2.3s1-2.3,2.1-2.3c1.2,0,2.1,1,2.1,2.3
					C438.8,431.1,437.8,432.1,436.6,432.1z"/>
				<path class="st12" d="M436.6,418.1c-1.2,0-2.1-1-2.1-2.3s1-2.3,2.1-2.3c1.2,0,2.1,1,2.1,2.3C438.8,417,437.8,418.1,436.6,418.1z
					"/>
				<path class="st12" d="M436.6,404.4c-1.2,0-2.1-1-2.1-2.3s1-2.3,2.1-2.3c1.2,0,2.1,1,2.1,2.3
					C438.8,403.4,437.8,404.4,436.6,404.4z"/>
				<path class="st12" d="M437,392.7c-1.2,0-2.1-1-2.1-2.3s1-2.3,2.1-2.3c1.2,0,2.1,1,2.1,2.3C439.1,391.6,438.2,392.7,437,392.7z"
					/>
				<path class="st12" d="M436.8,378.9c-1.2,0-2.1-1-2.1-2.3s1-2.3,2.1-2.3c1.2,0,2.1,1,2.1,2.3C438.9,377.8,438,378.9,436.8,378.9z
					"/>
				<path class="st13" d="M437.5,370.4c0.1,0.5,1,1.9,1,1.9c1.9,2.6,4.9,5.3,4.9,5.3s-2.9,1.6-4.3,4.1l-0.8,1.9
					c-0.1,1.1,1.1,2.1,1.1,2.1c1.5,1.3,2.3,2.6,4,3.6c0,0-2.9,2.1-4.3,3.8l-0.8,1.3c-0.4,0.8-0.4,1.8,0.1,2.5l0.6,0.9
					c1.7,1.4,2.6,2.7,4.2,4.3c0,0-2.7,2.4-4.7,3.8l-1,1.2c-0.5,1.1,0.6,2.8,0.6,2.8c1.9,1.8,3.5,3.6,5.4,5.4c0,0-4.4,2.5-6.2,5.2
					l-0.4,2c0.1,1.5,1.1,2.1,1.1,2.1c1.7,2.3,2.5,3.8,4.9,5.2c0,0-2.6,2.7-4.7,5.2c0,0-0.6,0.8-0.8,1.8h5.1c2.1-2.1,3.4-3.3,5.1-5.5
					l0.6-1.7c0-0.7-0.6-2.2-1.2-2.5l-1.5-1c-1.8-1.5-3.6-3.7-3.6-3.7s3.4-3.2,5.5-4.6l1-2c0.1-0.6,0-1.1-0.3-1.6l-0.9-1.4
					c-2.3-2.3-4.4-4.7-4.4-4.7s2.2-1.8,4.2-3.5l1.1-1.5c-0.1-0.5,0.5-1.1-0.3-2.2l-1.1-1.5c-1.3-1.5-3.7-3.9-3.7-3.9
					c1.5-1.2,3-2.4,4.3-3.7l1-2.5c0-0.6-0.2-1.1-0.5-1.5l-1.2-1.4c-1.8-1.5-3.3-3-3.3-3c1.3-1.7,2.5-1.9,4-3.2l0.9-0.8
					c0.8-0.8,0.9-2.1,0.3-3.1l-0.9-1.1c-2.2-1.4-5-4.7-5-4.7L437.5,370.4L437.5,370.4z"/>
			</g>
		</g>
	</g>
</g>
<g>
	<path class="st14" d="M237.5,15.2C208.7,72.7,174.8,128,136.7,179.8C165.3,122.3,199.2,67,237.5,15.2L237.5,15.2z"/>
</g>
<path class="st15" d="M244,16.5c-0.3-2-0.9-3.5-0.8-4.9c0.3-2.9,7.1-7.5,7.1-7.5c-3.5-1.4-12.3,1-17.8,5.8
	C237.8,11.4,238.3,17,244,16.5z"/>
<path class="st16" d="M232.4,10c-0.7,0.4-1.3,1-1.8,1.6c-5.3,5.9-0.1,14.8,1.2,15.6c1.4,0.7,6.9,1.9,10.4-3c2-2.6,2-5.2,1.6-7.6
	C238.3,17,237.8,11.4,232.4,10z"/>
<polygon class="st0" points="208.2,54.7 211.1,73.6 194.9,94.6 196.3,87.4 197.3,81.1 189.3,76.2 194.9,60.4 "/>
<path class="st8" d="M208.2,54.7l-1.3,11.7L199,78.5l-8-1.2l1.3,1c2.7,1.9,4.1,5.2,3.7,8.4l-0.5,4l4.9-9.1l2.6-1.7l7.1-13.7
	l-0.3-6.1L208.2,54.7z"/>
<path class="st0" d="M599.8,334.7c-17.5-5.6-34.1,12.1-39.8,18.8c-5.7,6.7-14,22.1-18,29.7c-10.4,19.3-25.4,52.4-35.8,71.2
	c-6.9,12.3-10.8,18.8-3.9,23.3c6.3,4.2,16.9-6,20.9-9.8c17.1-16.1,51-47.4,66.3-66.5c6.2-7.7,17.5-24.4,20.9-33.2
	C620.2,343.6,604.9,336.4,599.8,334.7z"/>
</svg>
