<?xml version="1.0" encoding="utf-8"?>
<!-- Generator: Adobe Illustrator 26.0.3, SVG Export Plug-In . SVG Version: 6.00 Build 0)  -->
<svg version="1.1" id="Layer_1" xmlns="http://www.w3.org/2000/svg" xmlns:xlink="http://www.w3.org/1999/xlink" x="0px" y="0px"
	 viewBox="0 0 788 371" style="enable-background:new 0 0 788 371;" xml:space="preserve">
<style type="text/css">
	.st0{fill:#7A919E;}
	.st1{fill:#A85B3B;}
	.st2{fill:#2E858E;}
	.st3{fill:#9F9D8A;stroke:#000000;stroke-width:3.3889;stroke-miterlimit:10;}
	.st4{fill:#25686B;}
	.st5{fill:#E8E0BF;}
	.st6{fill:#854532;}
	.st7{fill:#3B9E9E;}
</style>
<polygon class="st0" points="285,74.8 285.9,45.5 346.9,44.9 346.6,74.8 "/>
<polygon class="st1" points="318,17.4 343.2,21.4 344.2,79.9 320.3,116.9 289,79.9 290,21.4 "/>
<path class="st2" d="M379,132c12,25.2,41.3,39.1,41.3,39.1s53.5,33.1,71,44.4c8.3,5.4,25.4,16.8,39.4-3.7l0,0
	c11.4-16.8-2.9-30.6-10.3-36.5c-15.1-11.9-48.3-32.9-61-47.1c-9.5-10.6-23.5-34.4-47.1-40.3c0,0-15.3-3.1-28.5,12.1l-0.5,0.6
	C375.7,109.2,374.1,121.6,379,132z"/>
<path class="st3" d="M245.7,105.2c17.9,21.3,18.4,53.8,18.4,53.8s7.9,62.3,10.8,83c1.4,9.8,4.6,30.1-19.6,34.2l0,0
	c-20,3.4-26.6-15.4-28.9-24.6c-4.6-18.8-9.9-57.6-17.6-75.2c-5.7-12.9-19.6-30.8-15.2-54.7c0,0,1.5-20,20.9-25.6l0.8-0.2
	C226.4,92.8,238.3,96.4,245.7,105.2L245.7,105.2z"/>
<path class="st2" d="M232.6,293.3l1.6-133.3l-20.7-66.3L279,59.8l43.1,52.9l36.6-49.6L424,93.4l-10.4,101.9l-26.8,72.6l13.3,10.9
	c4.8,6.3,6.3,51.5,3.6,59l0,0c-1.6,3.7-5.3,5.9-9.1,5.7l-76.1,7.7c-13.8,1.4-27.8,0.3-41.2-3.1l-38.7-10c-2.1,0-3.8-1.5-3.8-3.6
	l-0.3-4.7C233.2,326.9,232.6,296.4,232.6,293.3z"/>
<path class="st4" d="M379.1,229.1l1.3,10.3l-8.7,5.7l1.1,3.1c-26.8,13.2-93.8,45.7-94.4,45.9c-1.6,0.6-10.9,32.1-16.3,32.1
	c-8.8,0-29.6-39.6-29.6-39.6s-2.1-14,0.2-13.5s124-46.3,126.9-45.6C362.4,228.2,379.1,229.1,379.1,229.1z"/>
<path class="st5" d="M374.1,127.3l204.7-24.1c5.9-0.7,11.2,3.6,11.8,9.4L606.5,248c0.7,5.9-3.6,11.2-9.4,11.8l-204.7,24
	c-5.9,0.7-11.2-3.6-11.8-9.4l-15.8-135.3C364.1,133.4,368.3,128,374.1,127.3z"/>
<path class="st1" d="M588.3,250.9l2.2-1c3.4-1.6,7.6-0.1,9.1,3.3l6.5,14.2c1.6,3.4,0.1,7.6-3.3,9.1l0,0c-3.4,1.6-7.6,0.1-9.1-3.3
	l-7.6-16.4C585.1,254.5,586.1,251.9,588.3,250.9z"/>
<path class="st4" d="M529.9,267.7l40.9-6.8l-2.1,21.1c-0.2,2.1-2.1,3.6-4,3.3c-0.2,0-0.4,0-0.5-0.1l-9.6-2.4
	c-6.3-1.6-12.2-4.6-17.1-9L529.9,267.7z"/>
<path class="st1" d="M553.9,250.5l9.4-4.5c8.5-3.9,18.6-0.3,22.6,8.2l0,0l2.2,4.8c3.8,8,0.3,17.6-7.7,21.3l0,0l-8,3.8
	c-5.2,2.4-11.2,0.2-13.7-4.8l0,0l-8.6-18.4C548.3,257,550,252.3,553.9,250.5L553.9,250.5L553.9,250.5z"/>
<path class="st1" d="M372.7,204.7l12.7,19.6c0.2,0.4,0.7,0.6,1.1,0.5l10.9-2.1l24.4-3.8c6.2-0.9,11.2-5.3,13.3-11.1l6.5-18.8
	c0.1-0.4,0.5-0.7,0.9-0.7l29.4-4.4c4.2-0.7,7.2-4.2,7.3-8.6V174l-33.5,2.4c-0.8,0.1-1.4-0.7-1.1-1.5l0.7-1.8
	c0.3-0.7-0.3-1.5-1.1-1.5l-16.3,0.3h-10.4c-5.7,0-11.3,1.6-16.2,4.6l-9.4,5.6c-0.1,0.1-0.2,0.1-0.3,0.2c-1.9,2.1-2.6,3.2-6.3,8.4
	l-5.4,7.6"/>
<path class="st1" d="M230.4,255.6c-3.8-19.6,17.4-30.4,25.4-33.8c7.9-3.4,25.6-6.4,34.3-7.9c22.2-3.8,60-7.3,81.7-11.4
	c14.2-2.6,21.7-4.5,25.8,4.2c3.8,7.9-4.1,13.8-9,16.6c-19.6,11.7-62.1,36.4-84.7,45.3c-9.3,3.7-28.7,9.3-38.7,9.6
	C237.6,279.6,231.5,261.4,230.4,255.6z"/>
<path class="st2" d="M239.9,82.6c0,0-43.6,16.4-51.3,26.5c-7.3,9.6-3.1,49.3-3.1,49.3s16.8,94.9,38.1,117c5,5.2,22.6,10,31.7,12.2
	c3.4,0.8,7.1,0.5,10.3-1l101.8-46l-8.6-40.4l-91.9,12l-18.1-68.1"/>
<polygon class="st4" points="313.9,92.4 322,112.8 310.9,103.6 297.7,117.1 "/>
<polygon class="st4" points="322,112.8 326,91.8 344.9,115.3 331.4,104.6 "/>
<g>
	<path class="st4" d="M248.5,141.7c0.2,0.2,0.3,0.4,0.4,0.7c0.2,0.4,0.6,1.8,0.8,2.2c4.5,14.8,8.4,30.8,12.1,45.7l3,12.2
		c0.8,5.6,4.6,9.5,10.6,8.3l3.1-0.4c12.8-1.8,55.3-7.1,68.8-8.8c1.7-0.2,4.6-0.7,6.3-0.7c3.3,0,6.3,2.6,6.9,5.9
		c1.4,6.4,5.5,27.2,7,34c-1-4.7-6-26.6-6.8-30.8l-0.7-3.1c-0.5-3-3.3-5.4-6.4-5.4c-1.7,0.1-4.6,0.5-6.3,0.7
		c-13.8,1.8-55.7,7.5-68.8,9.1l-3.1,0.4c-6.2,1.3-10.4-2.9-11.2-8.8l-3-12.2c-3.2-12.7-8-33.4-11.6-45.8l-0.5-1.5l-0.3-0.7
		C248.8,142,248.7,141.9,248.5,141.7L248.5,141.7z"/>
</g>
<path class="st1" d="M583.3,252.6c0,0,2.5,1,5.5,0.6s11.5,21.3,11.5,21.3l-3.2,2.1c0,0-6.9-3.2-15.1,2.9
	C583.1,273.2,583.3,252.6,583.3,252.6z"/>
<path class="st6" d="M343.3,56.1l-0.6-32.9c-0.1-0.3-0.2-0.5-0.4-0.8l-24.8-3.9l-27.9,4l-0.9,54.2c5.4,2.8,11.4,4.2,17.9,4.2
	C322.9,80.8,337.2,70.6,343.3,56.1z"/>
<polygon class="st7" points="275.8,64.1 285.9,45.5 313.9,92.4 297.7,117.1 "/>
<polygon class="st7" points="360.9,66 346.9,44.9 326,91.8 344.9,115.3 "/>
</svg>
