<?xml version="1.0" encoding="utf-8"?>
<!-- Generator: Adobe Illustrator 26.0.3, SVG Export Plug-In . SVG Version: 6.00 Build 0)  -->
<svg version="1.1" id="Calque_1" xmlns="http://www.w3.org/2000/svg" xmlns:xlink="http://www.w3.org/1999/xlink" x="0px" y="0px"
	 viewBox="0 0 788 455" style="enable-background:new 0 0 788 455;" xml:space="preserve">
<style type="text/css">
	.st0{fill:#C9C9C9;}
	.st1{fill:#A85B3B;}
	.st2{fill:#854532;}
	.st3{fill:#D3D3D3;}
	.st4{fill:#B7B7B7;}
	.st5{fill:#353535;}
</style>
<g>
	<polygon class="st0" points="426.6,43.2 350.8,43.2 350.9,11.4 426.8,10 	"/>
	<path class="st1" d="M496.2,90.7c-0.6,39.3-13.5,40.1-24.4,49.4c-12.9,11-8.5,51.1-17.6,65.4c-2.6,3.9-11.7,10.3-16.2,9.3
		c-12.8-3-24.5-31.4-35.6-38.5c-6.4-4.2-24.1-3.7-30.9,0c-11.4,6.3-22.8,35.7-35.6,38.5c-4.5,1-13.6-5.3-16.2-9.3
		c-9.1-14.3-4.7-54.4-17.6-65.4c-10.9-9.3-20.6-7.1-21.4-46.3c-0.4-27.2,19.4-35.1,19.4-35.1l41-20.3c2.7-1.3,5.2-3,7.6-5
		c0.7-0.6,1.3-1.2,2-1.8c0.2-0.2,0.4-0.4,0.7-0.6c0,0,0,0,0-0.1c5.7-5.9,9.5-13.7,9.4-21.8l-0.7-7H414l0.1,5.4v0.8v4.3
		c0,0.5,0.1,1,0.1,1.5c0.2,1.9,0.6,3.9,1.2,5.8c0.8,2.6,1.9,4.9,3.4,7.2c2.8,4.3,6.6,7.8,11.4,10.1l41.4,20.5c1,0.5,2.1,1,3.3,1.3
		C482.1,61.6,496.6,66.9,496.2,90.7z"/>
	<path class="st1" d="M490.2,62c25.1,13.1,38.1,43.2,38.1,43.2s31.6,55.3,42.4,73.5c5,8.6,15.9,26.4-5.1,39.7l0,0
		c-17.4,11-30.9-4.1-36.6-11.8c-11.6-15.7-31.7-50.1-45.5-63.5c-10.3-10-30.3-21.3-35.4-45.4c0,0-6.3-19.3,9.6-32.1l0.6-0.5
		C467.3,57.9,479.9,56.6,490.2,62L490.2,62z"/>
	<path class="st1" d="M320.6,60.9l-0.7-0.4c-17.9-10-33.3,3.2-33.3,3.2c-20.3,13.8-23.4,36.5-28.7,49.9c-7.2,17.9-31.5,49.4-41.7,66
		c-5.1,8.2-13.9,26.3,2.9,38.3l0,0c20.3,14.5,32.6-2.1,38.7-10.1c12.9-16.9,52.2-66.9,52.2-66.9s23.1-23.4,25.8-51.6
		C336.8,77.7,330.9,66.5,320.6,60.9z"/>
	<path class="st2" d="M415.7,20l-1,1.2c-5.3,6.4-29.4,35.8-42.7,45.3c-3.3,2.4-5.8,3.5-7.4,2.8c-5.8-2.8-13.3-28-15.5-35.9
		c0.7-0.6,1.3-1.2,2-1.8c0.1,0,0.1,0,0.2-0.1c0.1-0.2,0.3-0.4,0.5-0.5c0,0,0,0,0-0.1c0.2-0.2,0.4-0.5,0.5-0.7l0.1-0.1
		c3.4-4.6,5.6-9.9,6.8-15.5c0-0.2,0.1-0.4,0.1-0.6c0.3-1.4,0.5-3.1,0.7-4.9c0.1-0.7,0.1-1.4,0.2-2.2c0.1-1.4,0.2-3,0.3-4.6h53.8
		v11.4l0.1,0.7v0.1l0.1,0.7l0.9,4.7L415.7,20z"/>
	<path class="st3" d="M573.5,177.6c-0.5-1.2-1.1-2.2-1.5-3.4L539.4,123c-1.1-1.8-2.1-3.8-3-5.7c-2.4-5.4-6-10.5-9.3-15.4l-13.6-21.1
		c-5.5-8.5-13.6-15.1-23.2-19.2l-64.8-27.1l-33.6,70l-32.7-71.4L292,61.3c-10,4.2-18.4,11.2-23.9,20.2l-8.9,14.6
		c-7.5,12.1-15.2,28.6-24,40.9l-22.5,40.5c-5.5,13.6,20.1-8.3,30.2-0.2c10.1,8.1,10.9,42.1,19.5,32.3c0.1-0.1,0.3-0.3,0.3-0.4
		l44.5-62.4l-2.8,79.5c0.1,10.3-13.2,27.4-14.4,37.6l-18,142c-1.5,12.3,6.8,23.5,19.3,26.2c0,0,76.2,17.9,99.6,18.8
		c24.1,0.9,103.9-12.4,103.9-12.4c0.1,0,0.3,0,0.3,0c13.5-1.9,22.7-14,20.8-27.1l-22.6-148.8c-1.8-12.3-19.7-31.6-19.6-43.9
		c0.3-28.9,9.2-70.6,9.2-70.6l35.3,62.4c9.3,9.7,8.4-25.2,18.5-34.1C546,167.8,579.6,190.6,573.5,177.6z"/>
	<path class="st3" d="M350.9,11.4l-10.7,25.2L275,65.2L301.9,180c1.6,6.6,7.5,12.9,11.2,18.5l4.2,6.3l138.6,1.9l6.2-9.6
		c3.5-5.2,12-11.1,13.7-17.3L497.2,60l-65-23.3l-5.3-26.8l-41.4,82.4L350.9,11.4z"/>
	<g>
		<path class="st4" d="M426.6,10.3c-31.8,65.1-65.4,130.1-100.3,193.6C358.2,138.7,391.8,73.7,426.6,10.3L426.6,10.3z"/>
	</g>
	<g>
		<path class="st4" d="M275.7,67.6c9.8,30.9,17.3,70.2,23.8,101.8c-9.8-30.8-16.1-64.7-22.6-96.5L275.7,67.6z"/>
	</g>
	<g>
		<path class="st4" d="M496.4,63.1c-6.4,31-8.2,73.6-18,103.8c6.4-30.9,6.2-67,16-97L496.4,63.1z"/>
	</g>
	<g>
		<path class="st5" d="M477,243.3H299.5c-3.8,0-7-2.5-7-5.8v-17.5c0-3.2,2.9-5.8,7-5.8H477c3.8,0,7,2.5,7,5.8v17.5
			C483.7,240.6,480.8,243.3,477,243.3z"/>
		<path class="st5" d="M403.2,244.9h-18.5c-5.9,0-10.8-4.8-10.8-10.8v-13c0-5.9,4.8-10.8,10.8-10.8h18.5c5.9,0,10.8,4.8,10.8,10.8
			v13C414.3,240,409.4,244.9,403.2,244.9z"/>
		<path class="st5" d="M388.3,228.7l-45.8,50.8c-2.4,2.5-2.1,6.4,0.3,8.8l8,7.7c2.7,2.7,7.1,2.1,9.4-0.8l39.8-53.1l-16.8-2
			l23.9,45.5c1.7,3.3,6.1,4.4,9.2,2.1l8.8-6.1c2.7-1.8,3.5-5.5,1.8-8.3l-29.5-51L388.3,228.7z"/>
	</g>
	<path class="st1" d="M576.5,206.1c-2.8,17.7-23.8,20.1-31.6,20.4s-23.3-2.5-31.1-3.9c-19.7-3.6-52.4-12.2-71.8-15.4
		c-12.8-2.1-19.4-2.9-20.2-11.3c-0.7-7.8,11.7-9.9,16.6-10.8c20-3.9,59.1-11.8,80.5-12.4c8.8-0.2,26.8,0.9,35.3,3.6
		C577.8,184,577.3,201,576.5,206.1z"/>
	<path class="st1" d="M211.1,204.7c2.1,17.7,23.1,21,30.9,21.6c7.8,0.7,23.4-1.6,31.2-2.8c19.8-2.9,52.8-10.2,72.3-12.9
		c12.8-1.6,19.5-2.2,20.8-10.6c1-7.7-11.3-10.3-16.2-11.4c-19.8-4.6-58.6-13.9-80-15.1c-8.8-0.6-26.8,0.1-35.4,2.4
		C210.5,182.5,210.5,199.5,211.1,204.7z"/>
	<path class="st1" d="M341.4,204.5l-2.8-7.7c-0.2-0.3-0.2-0.8-0.4-1.1c-1-4.6,3.9-7.3,3.9-7.3s5.8-0.9,8.1-2
		c2.1-1.1,10.5-10.8,10.5-10.8c2.2-1.9,9.3-3.8,12.3-5.8c0.9-0.6,3.2-1.9,4.3-1.9l13.8-2.5c1.4,7.2-4.2,9-12.5,10
		c-2.5,0.3,5.7,1.3,5.7,1.3l5.7-1c2.7,1.1,3.6,2.6,3.7,5.6l-1.3,18.7c0.2,2.6-0.7,5.1-2.5,7.1l0,0c-1.2,1.2-3,2-4.8,2.1l-21.7,0.4
		c-4.1,0.1-8.2-0.4-12-1.8L341.4,204.5z"/>
	<path class="st1" d="M384.7,174.5l-5.9,0.2l-12.8,7.5l-1.4,2.5l-8.4,5.1l3.8-0.7c3.1-0.6,6.2,0.4,8.4,2.7l1,1.1l-1.7-7.1l11.1-8
		l11.1-2L384.7,174.5z"/>
	<path class="st1" d="M444.8,205.1l2.8-7.7c0.2-0.3,0.2-0.8,0.4-1.1c0.9-4.5-1.9-9-6.4-10l0,0c0,0-3.2,1.8-5.4,0.6
		c-2.1-1.1-10.5-10.8-10.5-10.8c-2.2-2-9.3-3.9-12.3-5.9c-0.9-0.6-3.2-1.9-4.3-1.9l-13.8-2.5c-1.4,7.3,4.2,9,12.5,10
		c2.5,0.3-5.7,1.3-5.7,1.3l-5.8-0.9c-2.7,1.1-3.6,2.6-3.7,5.6l1.3,18.7c-0.2,2.7,0.7,5.2,2.5,7.2l0,0c1.2,1.2,3,2,4.8,2.1l21.7,0.5
		c4.1,0.2,8.2-0.5,12-1.8L444.8,205.1z"/>
	<path class="st1" d="M401.6,175.2l5.9,0.2l12.7,7.4l1.4,2.5l8.4,5.1l-3.8-0.7c-3-0.6-6.2,0.4-8.4,2.7l-1,1.1l1.7-7.1l-11.1-8.1
		l-11.1-2L401.6,175.2z"/>
</g>
</svg>
