<?xml version="1.0" encoding="utf-8"?>
<!-- Generator: Adobe Illustrator 26.0.3, SVG Export Plug-In . SVG Version: 6.00 Build 0)  -->
<svg version="1.1" id="Layer_1" xmlns="http://www.w3.org/2000/svg" xmlns:xlink="http://www.w3.org/1999/xlink" x="0px" y="0px"
	 viewBox="0 0 788 371" style="enable-background:new 0 0 788 371;" xml:space="preserve">
<style type="text/css">
	.st0{fill:none;stroke:#333333;stroke-miterlimit:10;}
	.st1{fill:#D31149;}
	.st2{fill:#C60C4B;}
	.st3{fill:#708C88;}
	.st4{fill:#A85B3B;}
	.st5{fill:#854532;}
	.st6{fill:#9599BA;}
	.st7{fill:#DBDBDB;}
	.st8{fill:#95C1BE;}
	.st9{fill:#85A8A5;}
	.st10{fill:#444444;}
	.st11{fill:none;stroke:#444444;stroke-miterlimit:10;}
	.st12{fill:#D3D3D3;}
	.st13{fill:#7A9995;}
	.st14{fill:#E8E8E8;}
</style>
<polygon points="188,488.8 188.1,488.8 188,488.7 "/>
<polygon points="188.1,488.8 188.2,488.8 188.2,488.7 "/>
<polygon points="188,488.8 188.1,488.8 188,488.7 "/>
<polygon points="188.1,488.8 188.2,488.8 188.2,488.7 "/>
<polygon points="187.2,488.3 187.3,488.2 187.2,488.2 "/>
<polygon points="187.3,488.2 187.4,488.3 187.4,488.2 "/>
<polygon points="187.2,488.3 187.3,488.2 187.2,488.2 "/>
<polygon points="187.3,488.2 187.4,488.3 187.4,488.2 "/>
<polygon points="189,488.2 189.1,488.1 189,488.1 "/>
<polygon points="189.1,488.1 189.2,488.2 189.2,488.1 "/>
<polygon points="189,488.2 189.1,488.1 189,488.1 "/>
<polygon points="189.1,488.1 189.2,488.2 189.2,488.1 "/>
<path class="st0" d="M618.3,154.2c0,0-19,52.4-39.3,65.2c-20.2,12.8-60.8,4-79.9,18.9s-9.6,80.3-31.7,96.1
	c-22,15.8-63.2,5.8-91.3,18.4"/>
<path class="st0" d="M434.4,394.2c0,0,47.8-28.5,56.7-50.8c8.8-22.3-7.6-39.5,3.7-61.1c11.1-21.6,77.1-24.5,88.5-49.2
	c11.4-24.7-6.1-63.2,0.9-93.1"/>
<path class="st1" d="M691.1,120.9c-35.4,24.1-107.5,21.9-107.5,21.9s-29-65.4-21.9-107.5c7.4-43.5,94.8-51.6,85.7,11.2
	C702.9,13.2,728.5,95.4,691.1,120.9z"/>
<path class="st2" d="M690.5,157.9c-26.7,18.2-81.5,16.6-81.5,16.6s-21.9-49.4-16.6-81.5c5.6-32.9,71.7-39.1,64.9,8.4
	C699.5,76.4,718.9,138.6,690.5,157.9z"/>
<path class="st3" d="M305.3,197.5l13.6-13.4c0,0,20.3-6.6,38.5-6.4s36.3,4.3,36.3,4.3l16.5,15.5l1.9,19l-108.4,4.1L305.3,197.5z"/>
<path class="st4" d="M476.6,253.1c-0.6,38.4-26.2,33.2-36.9,42.3c-12.6,10.8-8.3,50-17.2,64c-2.5,3.8-11.4,10.1-15.8,9.1
	c-12.5-2.9-24-30.7-34.8-37.7c-6.3-4.1-23.6-3.6-30.2,0c-11.2,6.2-22.3,34.9-34.8,37.7c-4.4,1-13.4-5.2-15.8-9.1
	c-8.9-14-4.6-53.2-17.2-64c-10.6-9.1-36.2-3.9-36.9-42.3c-0.4-26.6,35-37.3,35-37.3l40.1-19.9c2.6-1.3,5-2.9,7.1-4.8
	c0.8-0.7,1.6-1.5,2.3-2.3l0.6-0.7V188c3.9-4.7,6.5-10.4,7.2-16.4c0.2-1.4,0.3-2.8,0.2-4.2v-2.8v-4.5h53.6l0.1,5v1.5v3.2
	c0,0.3,0,0.7,0,1l0,0c0,0.6,0.1,1.3,0.2,2c0.2,1.5,0.5,3.1,0.9,4.6c2.3,7.7,7.7,14,14.9,17.5l40.5,20.1c1,0.5,2.1,1,3.2,1.3
	C449.7,218.6,476.9,229.8,476.6,253.1z"/>
<path class="st4" d="M384.2,208.3l-27.5,32.5l-14.8-17.7l-12.4-14.8l0.7-41.6v-2.2l0.1-4.5h53v0.2l0.1,4.7l0,0v1.6l0.1,4.2l0,0v1.3
	l0.1,6.8L384.2,208.3z"/>
<path class="st5" d="M384.7,177.5l-1,1.2c-5.2,6.3-28.8,35-41.8,44.3c-3.2,2.3-5.7,3.4-7.2,2.7c-6.8-3.3-14.8-35.1-14.8-35.1
	l0.1-0.1c0.6-0.6,1.2-1.2,1.7-1.9c0.3-0.4,0.7-0.8,1-1.3l0.1-0.1c3.3-4.5,5.5-9.7,6.7-15.2c0-0.2,0.1-0.4,0.1-0.6
	c0.3-1.4,0.5-3,0.7-4.8c0.1-0.7,0.1-1.4,0.2-2.2c0.1-1.4,0.2-2.9,0.3-4.5h52.7v0.2v4.3v6.7l0.1,0.8l0.1,0.7l0.9,4.6L384.7,177.5z"/>
<path class="st4" d="M418.3,250.4c-1.4,27.7,17.5,53.6,17.5,53.6s31,54,41,72.2c4.7,8.6,14.3,26.6,36,15.4l0,0
	c17.9-9.2,12-28,8.3-36.7c-7.6-17.5-26.6-51.5-31-69.9c-3.3-13.7-2.9-36.1-20.7-52.4c0,0-13.1-14.9-31.9-7.8l-0.7,0.3
	C426.2,229.1,418.9,239.1,418.3,250.4L418.3,250.4z"/>
<path class="st4" d="M181.5,366c15.5-9,9.7-31,7.3-39.2s-11-23.7-15.2-31.3c-10.7-19.5-44.1-77.8-49.3-98.9
	c-3.6-14.8-25.3,6.3-25.3,6.3s8.2,15.9,11.3,26.2c6.5,21.7,9,52.6,18.5,88.9c2.5,9.5,10.9,27.8,16.5,35.7
	C161.1,376,177,368.7,181.5,366z"/>
<path class="st4" d="M296.1,260.1c-8.5,26.3-35.5,43.8-35.5,43.8s-48.2,39.4-64.1,52.8c-7.5,6.3-22.8,19.7-39.1,1.5l0,0
	c-13.4-15-1.2-30.5,5.4-37.2c13.3-13.7,43.2-38.6,53.9-54.2c7.9-11.6,25.9-35.6,48.3-44.4c0,0,7.3-6.4,22.3,7l0.6,0.5
	C296.4,237.4,299.6,249.3,296.1,260.1L296.1,260.1z"/>
<polygon class="st6" points="353.3,220.2 361.5,240.2 350.4,231.1 337.4,244.6 "/>
<polygon class="st6" points="361.5,240.2 365.4,219.4 384.1,242.7 370.7,232.2 "/>
<g>
	<path class="st4" d="M518.2,362.2c-11.5-13.1-33.8-6.8-41.7-4.1s-22.1,11.2-29.1,15.4c-17.9,10.6-46.2,30.5-63.9,40.7
		c-11.6,6.8-18,10.1-14.6,17.1c3.1,6.4,16.7,3.3,21.9,2.2c21.8-4.8,64.7-13.9,86.6-21.9c8.9-3.3,26.2-11.4,33.3-16.9
		C530.6,379.4,521.6,365.9,518.2,362.2z"/>
</g>
<ellipse transform="matrix(0.5823 -0.813 0.813 0.5823 -113.7554 170.8346)" class="st4" cx="109.4" cy="196.1" rx="12.2" ry="12.1"/>
<path class="st4" d="M122.4,196.7c-0.6-4.9-0.3-9.8,0.9-14.5l3.9-15.1c0.1-0.3,0.1-0.6,0-0.9l-5.8-24c-0.3-1.4-2.1-2-3.2-1
	c-1.3,1.1-2.6,2.4-3,3.2c-2.5,5,0.5,14.5,0.8,20c0.1,0.7-2.4,2.6-3.1,2.8c-1.8,0.7-6.4-1.3-9.4-2.8c-1.9-0.9-3.4-2.6-4.1-4.6
	c-0.8-2.3-1.9-5.4-2.5-6.9c-0.2-0.6-0.1-1.3,0.3-1.9l7.7-10c2.3-3,3.2-7,2.4-10.7l0,0c-0.3-1.6-2.3-2.1-3.4-0.9l-19.3,21.8
	c-1.4,1.5-2.1,3.5-2.1,5.6v7.3c0,2.3,0.5,4.5,1.5,6.6L98.6,202v0.1h0.1l0.6,1.3l0,0c0.4-0.7,1.2-1.1,1.9-1l19.8,2.5
	c1.3,0.2,2.3-0.9,2.2-2.2L122.4,196.7z"/>
<path class="st7" d="M268.2,216.6c0,0-23.2,4.8-32.6,12.7c-9.4,7.9-30,47.6-33,49.9c-3,2.2,36.4,46.9,37.3,46.5s12.4-5.2,18.4-10.9
	c6-5.6,14.6-18.6,14.6-18.6l20.5,10.9L268.2,216.6z"/>
<path class="st7" d="M439,215.3c0,0,23.2,4.8,32.6,12.7c9.4,7.9,22.7,59.7,25.7,62c3,2.2-42.9,50.3-43.8,49.9s-3.2-4.2-9.2-9.8
	s-10-35.1-10-35.1l-20.5,10.9L439,215.3z"/>
<path class="st8" d="M266.5,215.5c-2.5,4.9,3.7,84.6,3.7,84.6l-9.6,188.2c0.1,2.6,2,4.9,4.6,5.4l37.6,4c3.5,0.4,7.1,0.8,10.6,1.4
	c30.7,5.2,62.2,4.4,92.7-2.2l37-5.7c3.5-0.8,5.9-3.9,5.8-7.4c-1.3-32.7-5.7-174.8-5.7-174.8l1.6-92.6l-34.5-18.8l-52.9,124.6
	l-52-124.6L266.5,215.5z"/>
<g>
	<path class="st9" d="M351.3,333.6c1.1,44.1,1.1,88.7,0.8,132.8l-0.3,22.1c-0.5,6.7,2.2,9.9,8.5,11.9c1.7,0.6,3.5,1.2,5.2,1.8
		c-1.8-0.5-3.6-1-5.3-1.5c-3.5-1-7.4-2.8-8.6-6.6c-0.6-1.8-0.7-3.8-0.7-5.6l-0.3-22.1C350.2,422.3,350.2,377.6,351.3,333.6
		L351.3,333.6z"/>
</g>
<g>
	<circle class="st10" cx="360.4" cy="335.9" r="3.9"/>
	<circle class="st9" cx="360.4" cy="335.9" r="2.6"/>
</g>
<g>
	<circle class="st10" cx="360.4" cy="403.4" r="3.9"/>
	<circle class="st9" cx="360.4" cy="403.4" r="2.6"/>
</g>
<line class="st11" x1="363.8" y1="335.9" x2="366.1" y2="335.9"/>
<line class="st11" x1="363.2" y1="403.4" x2="365.5" y2="403.4"/>
<path class="st12" d="M322.2,199.6l26.6,6.5c2.5,0.6,4.7,2.2,6,4.5l3,5.3l3.4-5.7c1.2-2,3-3.5,5.2-4.2l23.5-7.7l13.1,13.2L357.9,321
	l-51.6-113.8L322.2,199.6z"/>
<path class="st9" d="M393.7,182.1l-42.4,151.5c0,0,35.8-43.8,62.5-109.9C414.4,222.8,393.7,182.1,393.7,182.1z"/>
<path class="st9" d="M318.9,184.1l39,133.5l-2.5,5.6c0,0-53.2-66.1-59.4-97.9C296,225.9,318.9,184.1,318.9,184.1z"/>
<path class="st13" d="M301,216.6l-7.6-13.6c0,0,17-14.9,25.5-18.9L301,216.6z"/>
<path class="st13" d="M410.2,215.3l8.1-13.3c0,0-16.3-15.6-24.7-20L410.2,215.3z"/>
<path class="st14" d="M335.1,223.6V215c0-3.4,2.9-6.1,6.3-5.9c6,0.5,14,2.6,14,10.2s-8,9.7-14,10.2C338,229.7,335.1,227,335.1,223.6
	z"/>
<path class="st14" d="M380.6,223.6V215c0-3.4-2.9-6.1-6.3-5.9c-6,0.5-14,2.6-14,10.2s8,9.7,14,10.2
	C377.7,229.7,380.6,227,380.6,223.6z"/>
<path class="st7" d="M358.3,226.4h-1.1c-2,0-3.6-1.6-3.6-3.6v-5c0-2,1.6-3.6,3.6-3.6h1.1c2,0,3.6,1.6,3.6,3.6v5
	C361.9,224.7,360.3,226.4,358.3,226.4z"/>
<path class="st14" d="M240,326.8l-2.4,2c-0.8,0.6-1.9,0.5-2.6-0.2l-36.4-44.1c-0.6-0.8-0.5-1.9,0.2-2.6l2.4-2
	c0.8-0.6,1.9-0.5,2.6,0.2l36.4,44.1C240.9,325,240.8,326.1,240,326.8z"/>
<path class="st14" d="M498.8,291.3l2.3,2.1c0.7,0.7,0.8,1.8,0.1,2.6l-43.5,47.4c-0.7,0.7-1.8,0.8-2.6,0.1l-2.3-2.1
	c-0.7-0.7-0.8-1.8-0.1-2.6l43.5-47.4C496.9,290.7,498,290.6,498.8,291.3z"/>
<path class="st2" d="M140.6,135.9c-10.1,6.9-30.8,6.3-30.8,6.3s-8.3-18.7-6.3-30.8c2.2-12.5,27.1-14.8,24.6,3.2
	C143.9,105.1,151.3,128.6,140.6,135.9z"/>
</svg>
