<?xml version="1.0" encoding="utf-8"?>
<!-- Generator: Adobe Illustrator 26.0.3, SVG Export Plug-In . SVG Version: 6.00 Build 0)  -->
<svg version="1.1" id="Layer_1" xmlns="http://www.w3.org/2000/svg" xmlns:xlink="http://www.w3.org/1999/xlink" x="0px" y="0px"
	 viewBox="0 0 788 1005" style="enable-background:new 0 0 788 1005;" xml:space="preserve">
<style type="text/css">
	.st0{fill:#934D35;}
	.st1{fill:none;stroke:#000000;stroke-width:3;stroke-miterlimit:10;}
	.st2{fill:#A85B3B;}
	.st3{fill:#2B2B2B;}
	.st4{fill:#473415;}
	.st5{fill:#472E1D;}
	.st6{fill:none;}
	.st7{fill:#547A87;}
	.st8{fill:#FA9980;}
	.st9{fill:none;stroke:#ECF2F2;stroke-width:3;stroke-miterlimit:10.0002;}
	.st10{fill:none;stroke:#ECF2F2;stroke-width:2.9998;stroke-miterlimit:9.9995;}
	.st11{fill:none;stroke:#ECF2F2;stroke-width:5.4389;stroke-miterlimit:10;}
	.st12{fill:#ECF2F2;}
	.st13{fill:none;stroke:#BCBCBC;stroke-width:5;stroke-linecap:round;stroke-miterlimit:10;}
	.st14{fill:none;stroke:#2B2B2B;stroke-width:2;stroke-miterlimit:10;}
</style>
<polygon points="230.2,535.9 230.3,535.8 230.2,535.8 "/>
<polygon points="230.3,535.8 230.4,535.9 230.4,535.8 "/>
<polygon points="230.2,535.9 230.3,535.8 230.2,535.8 "/>
<polygon points="230.3,535.8 230.4,535.9 230.4,535.8 "/>
<path class="st0" d="M515.8,300.1c-0.6,38.4-26.2,33.2-36.9,42.3c-12.6,10.8-8.3,50-17.2,64c-2.5,3.8-11.4,10.1-15.8,9.1
	c-12.5-2.9-24-30.7-34.8-37.7c-6.3-4.1-23.6-3.6-30.2,0c-11.2,6.2-22.3,34.9-34.8,37.7c-4.4,1-13.4-5.2-15.8-9.1
	c-8.9-14-4.6-53.2-17.2-64c-10.6-9.1-36.2-3.9-36.9-42.3c-0.4-26.6,35-37.3,35-37.3l40.1-19.9c2.6-1.3,5-2.9,7.1-4.8
	c0.8-0.7,1.6-1.5,2.3-2.3l0.6-0.7V235c3.9-4.7,6.5-10.4,7.2-16.4c0.2-1.4,0.3-2.8,0.2-4.2v-2.8v-4.5h53.6l0.1,5v1.5v3.2
	c0,0.3,0,0.7,0,1l0,0c0,0.6,0.1,1.3,0.2,2c0.2,1.5,0.5,3.1,0.9,4.6c2.2,7.7,7.6,14,14.7,17.6l40.6,20.1c1,0.5,2.1,1,3.2,1.3
	C488.9,265.7,516.1,276.8,515.8,300.1z"/>
<path class="st0" d="M423.4,255.3l-27.5,32.5l-14.8-17.7l-12.4-14.8l0.7-41.6v-2.2l0.1-4.5h53v0.2l0.1,4.7l0,0v1.6l0.1,4.2l0,0v1.3
	l0.1,6.8L423.4,255.3z"/>
<path class="st0" d="M423.9,224.6l-1,1.2c-5.2,6.3-28.8,35-41.8,44.3c-3.2,2.3-5.7,3.4-7.2,2.7c-6.8-3.3-14.8-35.1-14.8-35.1
	l0.1-0.1c0.6-0.6,1.2-1.2,1.7-1.9c0.3-0.4,0.7-0.8,1-1.3l0.1-0.1c3.3-4.5,5.5-9.7,6.7-15.2c0-0.2,0.1-0.4,0.1-0.6
	c0.3-1.4,0.5-3,0.7-4.8c0.1-0.7,0.1-1.4,0.2-2.2c0.1-1.4,0.2-2.9,0.3-4.5h52.7v0.2v4.3v6.7l0.1,0.8l0.1,0.7l0.9,4.6L423.9,224.6z"/>
<path class="st1" d="M457.9,306.9c11.9,25,40.9,38.8,40.9,38.8s53,32.8,70.4,44c8.2,5.3,25.2,16.6,39-3.6l0,0
	c11.3-16.6-2.8-30.4-10.2-36.2c-15-11.8-47.9-32.6-60.5-46.7c-9.4-10.5-19.8-30.3-43.1-36.2c0,0-18.6-6.9-31.8,8.3l-0.5,0.6
	C454.7,284.4,453,296.6,457.9,306.9L457.9,306.9z"/>
<path class="st2" d="M594.2,352.1c-18.6-7.2-32.7,11.8-37.4,19c-4.7,7.2-10.7,23.9-13.6,32.1c-7.5,21-17.5,57.3-25.2,77.8
	c-5,13.5-8.1,20.4-0.3,25.9c7,5,16.1-5.8,19.7-9.9c14.8-17.2,44.3-50.4,56.8-70.9c5.2-8.4,14-26.4,16.1-36
	C616.3,363.1,599.6,354.1,594.2,352.1z"/>
<path class="st1" d="M335.3,307.2c-8.5,26.3-35.5,43.8-35.5,43.8s-48.2,39.4-64.1,52.8c-7.5,6.3-22.8,19.7-39.1,1.5l0,0
	c-13.4-15-1.2-30.5,5.4-37.2c13.3-13.7,43.2-38.6,53.9-54.2c7.9-11.6,15.6-32.7,38-41.5c0,0,17.5-9.3,32.6,4l0.6,0.5
	C335.6,284.4,338.8,296.3,335.3,307.2z"/>
<path class="st2" d="M520.8,503.3c2,3.2,3.1,9-3,14.8c0,0-17.6,20.2-25.4,24.3c-3.5,1.8-12.8,6.3-15.4,3.3
	c-7.3-8.4-12.1-28.6-9.7-41.7c0.7-3.9,9.4-8,13.3-8.8c4.3-0.8,13,2.6,17.3,2.8c2.4,0,4.8-0.1,7.2-0.4
	C511.1,497.1,518,498.9,520.8,503.3z"/>
<polygon class="st2" points="511.1,490.9 506.9,497.6 510.3,510.1 514.3,522.1 519.8,516.1 530,509.1 "/>
<path class="st3" d="M508.8,494.5l8.2-13.8c0.4-0.6,1.2-0.7,1.7-0.2l18.8,20.1c0.4,0.4,0.4,1,0,1.4l-9.8,11.1
	c-0.4,0.5-1.1,0.5-1.6,0l-17.2-17.5C508.6,495.5,508.5,494.9,508.8,494.5z"/>
<polygon points="230.9,540.1 231,540 230.9,540 "/>
<polygon points="231,540 231.1,540.1 231.1,540 "/>
<polygon points="230.9,540.1 231,540 230.9,540 "/>
<polygon points="231,540 231.1,540.1 231.1,540 "/>
<polygon class="st4" points="317.4,511.8 318.9,489.3 473.9,489.3 475.9,508.8 "/>
<circle class="st5" cx="464.6" cy="482.6" r="4.7"/>
<polygon points="230.4,535.6 230.5,535.6 230.4,535.5 "/>
<polygon points="230.5,535.6 230.6,535.6 230.6,535.5 "/>
<polygon points="230.4,535.6 230.5,535.6 230.4,535.5 "/>
<polygon points="230.5,535.6 230.6,535.6 230.6,535.5 "/>
<path class="st1" d="M458.2,306.6c11.9,25,40.9,38.8,40.9,38.8s53,32.8,70.4,44c8.2,5.3,25.2,16.6,39-3.6l0,0
	c11.3-16.6-2.8-30.4-10.2-36.2c-15-11.8-47.9-32.6-60.5-46.7c-9.4-10.5-19.8-30.3-43.1-36.2c0,0-18.6-6.9-31.8,8.2l-0.5,0.6
	C455,284.1,453.3,296.3,458.2,306.6z"/>
<path class="st1" d="M465.9,462.4c-0.9-4-5.7-25.3-5.6-33.8c0.1-9.2,4-27.7,1.8-36.6c-9.8-39.6-123.5-39.7-133.3,0
	c-2.2,8.9,1.7,27.5,1.8,36.6c0.1,8.6-4.7,29.8-5.6,33.8c-11,50.3,70.4,73.4,70.4,73.4S476.9,512.7,465.9,462.4z"/>
<path class="st6" d="M434.5,447.6c16.2,5.2,23.2,9.6,27,16.6c3.1,5.6,6,18.5,6.3,24.9c0.5,15.1-7.8,52.9-21.9,65.6
	c-14.4,12.9-84.8,12.9-99.2,0c-14.1-12.6-22.5-50.5-21.9-65.6c0.2-6.4,3.2-19.3,6.3-24.9c3.8-6.9,10.9-11.3,27-16.6
	c18.5-6,37.3-5,37.3-5S416,441.6,434.5,447.6z"/>
<path class="st1" d="M335.5,306.9c-8.5,26.3-35.5,43.8-35.5,43.8s-48.2,39.4-64.1,52.8c-7.5,6.3-22.8,19.7-39.1,1.5l0,0
	c-13.4-15-1.2-30.5,5.4-37.2c13.3-13.7,43.2-38.6,53.9-54.2c7.9-11.6,15.6-32.6,38-41.5c0,0,17.6-9.3,32.6,4l0.6,0.5
	C335.7,284.1,339,296,335.5,306.9L335.5,306.9z"/>
<path class="st7" d="M419,211.3c2.2,0,4,1.5,4.5,3.6c1.3,6.4,4.6,19.2,10.9,23.1c7,4.3,39.2,20.9,61.2,26.8
	c33.9,8.9,68.8,60.7,106.5,85.5c3.7,2.4,6.8,5.5,9,9.3c4.7,8.1,3.1,14.7,2.8,19.4c-0.8,11.1-6.4,32.6-12,43.8
	c-9.1,18.5-43.7-25.1-51.7-38c-1.5-2.4-0.8-5.4-3.2-6.8l-58.8-34.7c-2.4-1.4-5.5,0-5.9,2.8l-9,58.1c-0.3,1.7-0.3,3.5,0,5.2
	l16.3,108.7c0.6,4.1-0.3,8.3-2.5,11.8l-4.8,7.6c-3.2,5-8.7,8.1-14.6,8.1l-34.8,10.7c-25.3,7.8-52.3,7.9-77.7,0.3l-35.7-10.7
	c-6.8,0-13-3.9-15.8-10.1l0,0c-1.3-2.9-1.8-6.1-1.5-9.3l14.1-120.6c0.2-1.4,0.2-2.7,0-4.1l-5.8-47.3c-0.4-3.1-4-4.6-6.4-2.6
	c-13.8,11.5-50.4,45.6-63.4,56.1c-6.6,5.4-18.8,15.2-27.2,13.5c-17.1-1.5-25.2-17.8-27.5-25c-3.4-11-2.8-34.6-0.7-45.9
	c2.6-14,36.4-21.7,51.7-24.6c4.8-0.9,9-3.7,11.6-7.9c7.6-12.2,24.2-37.4,34.3-43.1c31.5-17.6,70.7-33.3,76.2-37.7s8.2-16.3,9.3-22.4
	c0.4-2.2,2.3-3.8,4.5-3.8L419,211.3z"/>
<path class="st7" d="M511.3,490.6l2.1-3.5c2.3-3.9,7.7-4.5,10.8-1.2l10,10.8c2.4,2.5,2.4,6.5,0.1,9.1l-2.3,2.7
	c-2.6,2.9-7.1,3.1-9.9,0.3l-9.8-9.9C510.1,496.5,509.7,493.2,511.3,490.6z"/>
<path class="st8" d="M229.7,252.6l1.6-17.5l-13.9,0.9l-12.8-6.2l2.3,9.2c0.1,1.2,0.1,2.5,0,3.7l-0.2,17.3L229.7,252.6z"/>
<path class="st2" d="M230.3,238.2c0.9-0.2,0.8-4.2,1.4-4.8c3-3,12.5-12.3,13.4-14.6c1-2.8,3.9-15.3,5-17.3c1.2-2.1,11-12,9.8-12.9
	c-0.7-0.6-2.8-1.7-4.4-2.8c-1.6-0.9-3.5-0.8-4.9,0.4l-6.2,4.8c-0.5,0.4-1,1-1.2,1.5l-2.4,5c-1.1,2.2-4.3,1.7-4.7-0.7l-2.5-14.6
	c0-0.2-0.1-0.5,0-0.7c0-3.4-9.2-1.8-9.2-1.8c-0.1-0.1-6.3,1.5-8.6,2.1c-0.6,0.2-1.1,0.4-1.6,0.5l-5,1.8c-4.3,1.5-8,4.3-10.4,8
	c-1.1,1.7-1.8,3.4-1.2,4.5c0.1,0.3,0.3,0.6,0.3,1l6.9,33.1c0.2,1,0.8,1.8,1.4,2.5l4,3.3c1,0.8,2.3,1.1,3.5,0.9L230.3,238.2z"/>
<path class="st2" d="M218,416.8c17.7-2.3,21.5-25.6,22.4-34.1s-0.9-26.1-1.8-34.8c-2.3-22.1-10.5-88.8-7.1-110.3
	c2.4-15-25.8-4-25.8-4s1.4,17.9,0.3,28.6c-2.4,22.5-12.1,51.9-17.4,89.1c-1.4,9.8-0.7,29.8,1.4,39.3
	C195.9,417.2,212.9,417.5,218,416.8z"/>
<path class="st3" d="M465.2,569.2l9-2c11.9-2.7,19.7-14.2,17.9-26.3l-14.2-94.3c0,0-5.1-19.4-11.3-43c-2.2-11.1-7.4-68.5-7.6-90.6
	c-0.1-5.7-4.7-10.5-10.6-10.5H344.7c-5.6,0-10.4,4.5-10.6,10.1c-0.9,22.3-5.6,72.8-7.2,85.1c-4.4,13.3-9.5,40.4-13.4,51.1
	c-2.8,7.8-9.1,58.6-12.4,86.6c-1.2,10.8,5.1,21.1,15.3,24.8l0,0C364.2,577.4,415.8,580.4,465.2,569.2z"/>
<g>
	<path class="st3" d="M361.6,234.7c-6.2,16.7-10,34.2-12.3,51.8c-0.9,7-2,14.1-3.3,21.1c-0.6,3.5-1.2,7-2,10.6h-0.4
		c-1.3-14.4,0.5-28.8,4-42.8c2.5-10.5,5.4-20.9,9.3-30.9c1.3-3.3,2.7-6.7,4.3-9.9L361.6,234.7L361.6,234.7z"/>
</g>
<g>
	<path class="st3" d="M431.9,235.2c6.4,12.8,10.5,26.6,13.9,40.5c3.5,13.9,5.4,28.2,4.1,42.6h-0.4c-0.9-3.5-1.4-7-2-10.5
		c-1.2-6.8-2.4-14.1-3.3-20.9c-1.3-10.5-3.4-20.9-6.1-31.2c-1.8-6.8-3.9-13.6-6.5-20.2L431.9,235.2L431.9,235.2z"/>
</g>
<g>
	
		<ellipse transform="matrix(0.9939 -0.1104 0.1104 0.9939 -44.0519 45.0436)" class="st9" cx="384.7" cy="420.3" rx="6.6" ry="11.1"/>
	
		<ellipse transform="matrix(0.5527 -0.8334 0.8334 0.5527 -198.6389 497.1665)" class="st10" cx="363.8" cy="433.6" rx="6.6" ry="11.1"/>
	<polyline class="st11" points="386,430.9 389.2,449.6 372.9,439.5 	"/>
	<g>
		<path class="st12" d="M385,445.2c11.6,7.1,22.3,22.4,24.8,35.7C398.2,473.8,387.6,458.5,385,445.2L385,445.2z"/>
	</g>
	<g>
		<path class="st12" d="M386.7,444c11.6,7.1,22.3,22.4,24.8,35.7C399.9,472.7,389.3,457.4,386.7,444L386.7,444z"/>
	</g>
</g>
<path class="st7" d="M438.7,489.2l-17.1,1.3c-15.6,1.2-31.3,1.2-47-0.1l-15.6-1.3c-3.2-0.6-5.6-3.8-5.6-7.6v-28.4
	c0-4.7,3.6-8.3,7.6-7.6c0,0,6.8,0.5,14.5,1.1c14.6,1.1,29.3,1.1,43.9,0.1l17.4-1.3c4-0.7,7.5,2.9,7.5,7.6v28.6
	C444.3,485.4,441.9,488.6,438.7,489.2z"/>
<path class="st7" d="M220.5,220.9l4,1.4c3.2,1.2,6.7-0.2,8.1-3.1l20-46.1c1.3-2.9-0.2-6.2-3.4-7.4l-4-1.4c-3.2-1.2-6.7,0.2-8.1,3.1
	l-20,46.1C215.7,216.5,217.3,219.8,220.5,220.9z"/>
<line class="st13" x1="232" y1="175.3" x2="229" y2="183.4"/>
<ellipse transform="matrix(0.3797 -0.9251 0.9251 0.3797 16.322 324.9553)" class="st7" cx="250.5" cy="150.3" rx="24.7" ry="29.9"/>
<path class="st7" d="M236.9,164.8l-39.1-21.6c-4.7-1.9-6.9-7.3-4.9-12l3.5-8.3c1.9-4.7,7.3-6.9,12-4.9l42.1,13.6L236.9,164.8z"/>
<path class="st7" d="M248.9,169.3l27,6c2.9,1.2,6.8-1.6,8.7-6.3l3.5-8.3c1.9-4.7,1.2-9.4-1.7-10.6l-23.5-13.8L248.9,169.3z"/>
<g>
	<polygon class="st3" points="224.3,221.4 211,249.9 220.6,220 	"/>
</g>
<path class="st14" d="M217.9,231.4c0,0-13.2,37.4-16.8,49.2c-18,59,12.4,78.8-1.1,115.6c-5.1,14-18.8,33.7-16,49.5
	c2.8,15.7,17.8,30.3,34.6,14.6c34.9-32.4,105.5-3.3,105.5-3.3"/>
<path class="st2" d="M201.6,197.1c0,0,4.4,15.6,7.7,16.4s23-3.2,25.1-8c2-4.8-0.6-24.2-0.6-24.2l0,0c-1.7-5.1-20,0.9-21.5,1.8
	L201.6,197.1z"/>
</svg>
