<svg xmlns="http://www.w3.org/2000/svg" xmlns:xlink="http://www.w3.org/1999/xlink" viewBox="0 0 150 116.92"><defs><style>.cls-1{fill:none;}.cls-2{clip-path:url(#clip-path);}.cls-3{fill:#2b2b2b;}.cls-4{clip-path:url(#clip-path-2);}.cls-5{fill:#fff;}.cls-6{clip-path:url(#clip-path-3);}.cls-7{fill:#090909;}.cls-8{fill:#7f2c00;}.cls-9{fill:#b85d40;}</style><clipPath id="clip-path"><rect class="cls-1" x="91.23" y="22.27" width="4.56" height="19.86" transform="translate(37.15 113.46) rotate(-74.26)"/></clipPath><clipPath id="clip-path-2"><polygon class="cls-1" points="63.71 39.27 63.71 39.27 49.89 39.27 49.89 52.6 63.71 52.6 63.71 39.27"/></clipPath><clipPath id="clip-path-3"><polygon class="cls-1" points="61.48 41.3 61.48 41.3 52.22 41.3 52.22 50.56 61.48 50.56 61.48 41.3"/></clipPath></defs><g id="Calque_3" data-name="Calque 3"><g class="cls-2"><path class="cls-3" d="M86.39,32.09a4.91,4.91,0,0,1-2.63-1.48c-.24-.5.8-1.64,1.29-1.83.25-.1,3.91-1.34,11.34,2.67,3.57,1.93,6.69,4.8,6,5.6C102.19,37.39,96.64,32.94,86.39,32.09Z"/></g><path class="cls-3" d="M61.18,32.45a4.88,4.88,0,0,0,2.73-1.34c.24-.49-.7-1.63-1.19-1.93-.2-.1-3.82-1.53-11.49,2.08-3.67,1.73-6.93,4.46-6.34,5.3C45.14,36.91,50.88,32.75,61.18,32.45Z"/><path d="M102.09,46.85a2.12,2.12,0,0,1-2.93.65c-1.78-1.14-7-1.24-9-.55-2.67.89-5.84,2.18-6.68.4-.15-.3,1.48-3.37,6.93-3.72s9.21,2.92,11.69,3.22Z"/><g class="cls-4"><ellipse class="cls-5" cx="56.78" cy="45.96" rx="6.93" ry="6.64"/></g><g class="cls-6"><circle class="cls-7" cx="56.87" cy="45.9" r="4.61"/></g><path class="cls-8" d="M88.24,79.29c0,3.82-11.64,7.46-13.81,7.46S62,83.11,62,79.29c0,0,7.48,4.18,13.77,3.55A37.72,37.72,0,0,0,88.24,79.29Z"/><path class="cls-9" d="M82.87,66.08s-4.69,3.69-7.42,3.69c-2.58,0-7-3.6-7-3.6s5.4.73,7.21.72S82.87,66.08,82.87,66.08Z"/></g></svg>