<svg xmlns="http://www.w3.org/2000/svg" viewBox="0 0 150 116.92"><defs><style>.cls-1{fill:#b85d40;}.cls-2{fill:#731e00;}.cls-3{fill:#fff;}.cls-4{fill:#040404;}.cls-5{fill:#4ca7f7;}</style></defs><g id="Calque_3" data-name="Calque 3"><path class="cls-1" d="M82,71s-4.7,3.69-7.43,3.69c-2.58,0-7-3.6-7-3.6s5.4.73,7.21.72S82,71,82,71Z"/><path d="M87.13,38.35a5.15,5.15,0,0,1-2.76-1.56c-.26-.52.83-1.71,1.35-1.92.26-.1,4.11-1.4,11.91,2.81,3.74,2,7,5,6.34,5.87C103.71,43.92,97.94,39.24,87.13,38.35Z"/><path d="M60.47,38.72a5.14,5.14,0,0,0,2.86-1.41c.26-.52-.72-1.71-1.24-2-.21-.1-4-1.61-12.07,2.19-3.85,1.82-7.28,4.68-6.66,5.56C43.62,43.4,49.66,39,60.47,38.72Z"/><path class="cls-2" d="M59.33,86.77c0-1.82,12.22-3.54,14.51-3.54s13,1.72,13,3.54A59,59,0,0,0,72.39,85.1,76.79,76.79,0,0,0,59.33,86.77Z"/><path class="cls-3" d="M100,46a7.39,7.39,0,0,1-14.77,0Z"/><path class="cls-3" d="M62,46a7.39,7.39,0,0,1-14.77,0Z"/><path class="cls-4" d="M59,46.63a4.37,4.37,0,1,1-8.73,0,2.56,2.56,0,0,1,.05-.62h8.63A2.56,2.56,0,0,1,59,46.63Z"/><path class="cls-4" d="M97.21,46.63a4.37,4.37,0,1,1-8.73,0,2.56,2.56,0,0,1,0-.62h8.63A2.56,2.56,0,0,1,97.21,46.63Z"/><ellipse class="cls-5" cx="48.75" cy="57.39" rx="4.21" ry="4.78"/></g></svg>