<svg xmlns="http://www.w3.org/2000/svg" xmlns:xlink="http://www.w3.org/1999/xlink" viewBox="0 0 150 116.92"><defs><style>.cls-1,.cls-5{fill:none;}.cls-2{fill:#fff;}.cls-3{fill:#070808;}.cls-3,.cls-5,.cls-8{stroke:#000;stroke-miterlimit:10;}.cls-4{clip-path:url(#clip-path);}.cls-5,.cls-8{stroke-linecap:round;}.cls-5{stroke-width:2px;}.cls-6{clip-path:url(#clip-path-2);}.cls-7{fill:#b55943;}.cls-8{fill:#090a0a;}</style><clipPath id="clip-path"><rect class="cls-1" x="81.84" y="26.6" width="22.15" height="6.68"/></clipPath><clipPath id="clip-path-2"><rect class="cls-1" x="42.55" y="26.6" width="22.15" height="6.68"/></clipPath></defs><g id="Calque_3" data-name="Calque 3"><circle class="cls-2" cx="90.05" cy="43.5" r="6.75"/><circle class="cls-2" cx="55.2" cy="43.5" r="6.75"/><circle class="cls-3" cx="57.28" cy="43.64" r="4"/><circle class="cls-3" cx="92.22" cy="43.64" r="4"/><g class="cls-4"><path class="cls-5" d="M82.84,30.88A14.87,14.87,0,0,1,103,32.28"/></g><g class="cls-6"><path class="cls-5" d="M63.71,30.88a14.87,14.87,0,0,0-20.16,1.4"/></g><path class="cls-7" d="M81.17,65.73s-4.69,3.69-7.42,3.69-7-3.6-7-3.6,5.4.73,7.21.72S81.17,65.73,81.17,65.73Z"/><ellipse class="cls-8" cx="73.59" cy="85.19" rx="2.88" ry="4.5"/></g></svg>