<svg xmlns="http://www.w3.org/2000/svg" xmlns:xlink="http://www.w3.org/1999/xlink" viewBox="0 0 150 116.92"><defs><style>.cls-1{fill:none;}.cls-2{clip-path:url(#clip-path);}.cls-3{fill:#fff;}.cls-4{clip-path:url(#clip-path-2);}.cls-5{clip-path:url(#clip-path-3);}.cls-6{fill:#090909;}.cls-7{clip-path:url(#clip-path-4);}.cls-8{fill:#936170;}.cls-9{fill:#b85d40;}.cls-10{fill:#d8d5d4;}</style><clipPath id="clip-path"><polygon class="cls-1" points="84.98 39.12 84.98 39.12 97.72 39.12 97.72 51.36 84.98 51.36 84.98 39.12"/></clipPath><clipPath id="clip-path-2"><polygon class="cls-1" points="63.42 39.12 63.42 39.12 50.68 39.12 50.68 51.36 63.42 51.36 63.42 39.12"/></clipPath><clipPath id="clip-path-3"><polygon class="cls-1" points="87.03 41.86 87.03 41.86 95.53 41.86 95.53 50.4 87.03 50.4 87.03 41.86"/></clipPath><clipPath id="clip-path-4"><polygon class="cls-1" points="61.37 41.86 61.37 41.86 52.87 41.86 52.87 50.4 61.37 50.4 61.37 41.86"/></clipPath></defs><g id="Calque_3" data-name="Calque 3"><path d="M86,31.49a4.33,4.33,0,0,1-2.7-.68c-.32-.41.28-1.65.69-2,.18-.13,3.15-2.19,10.73-.45,3.65.82,7.12,2.6,6.76,3.47C101.37,32.22,95.34,29.66,86,31.49Z"/><path d="M62.37,31.49a4.23,4.23,0,0,0,2.69-.68c.32-.41-.27-1.65-.68-2-.18-.13-3.15-2.19-10.73-.45-3.66.82-7.13,2.6-6.76,3.47C47,32.22,53.05,29.66,62.37,31.49Z"/><g class="cls-2"><ellipse class="cls-3" cx="91.32" cy="45.24" rx="6.39" ry="6.12"/></g><g class="cls-4"><ellipse class="cls-3" cx="57.07" cy="45.24" rx="6.39" ry="6.12"/></g><g class="cls-5"><circle class="cls-6" cx="91.28" cy="46.15" r="4.25"/></g><g class="cls-7"><circle class="cls-6" cx="57.12" cy="46.15" r="4.25"/></g><path class="cls-8" d="M68.54,83.64c0-.77.59-1.73,5.38-1.73s5.94.82,5.94,1.55-1.32,3-6.12,3S68.54,84.38,68.54,83.64Z"/><path class="cls-9" d="M81.42,66.57s-4.7,3.69-7.42,3.69-7-3.6-7-3.6,5.4.73,7.22.72S81.42,66.57,81.42,66.57Z"/><path class="cls-10" d="M43.93,84.19c.61-2.55,8.71-20.79,8.94-22s21.91-6.69,21.91-6.69l20.75,7.18s4.92,22.63,4.92,23.83-17,21.58-19,21.58-20.05-1.22-20.05-1.22Z"/></g></svg>