<svg xmlns="http://www.w3.org/2000/svg" xmlns:xlink="http://www.w3.org/1999/xlink" viewBox="0 0 788 1005.07"><defs><style>.cls-1,.cls-4,.cls-6{fill:#645d5d;}.cls-1,.cls-3,.cls-6,.cls-7{stroke:#645d5d;}.cls-1,.cls-10,.cls-11,.cls-15,.cls-3,.cls-6,.cls-7,.cls-9{stroke-miterlimit:10;}.cls-11,.cls-15,.cls-2,.cls-3,.cls-7{fill:none;}.cls-10,.cls-11,.cls-15,.cls-3,.cls-6,.cls-9{stroke-width:2px;}.cls-5{clip-path:url(#clip-path);}.cls-8{clip-path:url(#clip-path-2);}.cls-9{fill:#d9d9d9;}.cls-10,.cls-9{stroke:#802d31;}.cls-10,.cls-11,.cls-15,.cls-9{stroke-linecap:round;}.cls-11{stroke:#ad7469;}.cls-12{clip-path:url(#clip-path-3);}.cls-13{clip-path:url(#clip-path-4);}.cls-14{clip-path:url(#clip-path-5);}.cls-15{stroke:#cdcdcd;}.cls-16{clip-path:url(#clip-path-6);}.cls-17{clip-path:url(#clip-path-7);}.cls-18{fill:#fff;}.cls-19{clip-path:url(#clip-path-8);}.cls-20{clip-path:url(#clip-path-9);}.cls-21{fill:#050505;}.cls-22{clip-path:url(#clip-path-10);}.cls-23{fill:#b85d40;}</style><clipPath id="clip-path"><rect class="cls-1" x="414.6" y="158.58" width="5.95" height="10.32"/></clipPath><clipPath id="clip-path-2"><rect class="cls-1" x="324.71" y="158.58" width="5.95" height="10.32"/></clipPath><clipPath id="clip-path-3"><rect class="cls-2" x="381.51" y="188.25" width="7.75" height="7.93"/></clipPath><clipPath id="clip-path-4"><rect class="cls-2" x="357.12" y="188.25" width="7.75" height="7.93"/></clipPath><clipPath id="clip-path-5"><rect class="cls-2" x="384.1" y="151.81" width="20.08" height="6.37"/></clipPath><clipPath id="clip-path-6"><rect class="cls-2" x="341.73" y="151.81" width="20.08" height="6.37"/></clipPath><clipPath id="clip-path-7"><polygon class="cls-2" points="382.12 159.76 382.12 159.76 395.58 159.76 395.58 172.72 382.12 172.72 382.12 159.76"/></clipPath><clipPath id="clip-path-8"><polygon class="cls-2" points="360.79 159.76 360.79 159.76 347.33 159.76 347.33 172.72 360.79 172.72 360.79 159.76"/></clipPath><clipPath id="clip-path-9"><polygon class="cls-2" points="387.15 160.47 387.15 160.47 396.15 160.47 396.15 169.47 387.15 169.47 387.15 160.47"/></clipPath><clipPath id="clip-path-10"><polygon class="cls-2" points="360.76 160.47 360.76 160.47 351.76 160.47 351.76 169.47 360.76 169.47 360.76 160.47"/></clipPath></defs><g id="Calque_5" data-name="Calque 5"><ellipse class="cls-3" cx="395.72" cy="165.7" rx="19.64" ry="19.88"/><ellipse class="cls-3" cx="350.1" cy="165.7" rx="19.64" ry="19.88"/><rect class="cls-4" x="414.6" y="158.58" width="5.95" height="10.32"/><g class="cls-5"><rect class="cls-6" x="415.74" y="159.72" width="3.68" height="8.03"/></g><rect class="cls-7" x="414.6" y="158.58" width="5.95" height="10.32"/><rect class="cls-4" x="324.71" y="158.58" width="5.95" height="10.32"/><g class="cls-8"><rect class="cls-6" x="325.84" y="159.72" width="3.68" height="8.03"/></g><rect class="cls-7" x="324.71" y="158.58" width="5.95" height="10.32"/><path class="cls-3" d="M369.66,166.91s-.23-3.62,3.13-3.59c3,0,3.31,3.38,3.31,3.38"/><path class="cls-9" d="M363.52,203.19s9.92,6.92,13.54,6.1c2-.45,5.19-6.16,5.19-6.16"/><polyline class="cls-10" points="382.25 202.96 372.68 201.54 363.52 203.36"/><path class="cls-11" d="M365.77,190.36s5.66,3.37,7.56,3.32,7.06-3.3,7.06-3.3"/><g class="cls-12"><path class="cls-11" d="M382.51,189.25s4.22,4.54,5.75,5.93"/></g><g class="cls-13"><path class="cls-11" d="M363.87,189.25s-4.22,4.54-5.75,5.93"/></g><g class="cls-14"><path class="cls-15" d="M385.1,154.08s4.56-2.86,11.88,0a44.53,44.53,0,0,1,6.2,3.11"/></g><g class="cls-16"><path class="cls-15" d="M360.81,154.08s-4.55-2.86-11.88,0a44.53,44.53,0,0,0-6.2,3.11"/></g><g class="cls-17"><ellipse class="cls-18" cx="388.85" cy="166.24" rx="6.73" ry="6.48"/></g><g class="cls-19"><ellipse class="cls-18" cx="354.06" cy="166.24" rx="6.73" ry="6.48"/></g><g class="cls-20"><circle class="cls-21" cx="391.65" cy="164.97" r="4.5"/></g><g class="cls-22"><circle class="cls-21" cx="356.26" cy="164.97" r="4.5"/></g></g><g id="Calque_3" data-name="Calque 3"><path class="cls-23" d="M380.48,189.54s-4.69,3.69-7.42,3.69c-2.58,0-7-3.6-7-3.6s5.4.73,7.21.72S380.48,189.54,380.48,189.54Z"/></g></svg>