<svg xmlns="http://www.w3.org/2000/svg" xmlns:xlink="http://www.w3.org/1999/xlink" viewBox="0 0 788 1005.07"><defs><style>.cls-1,.cls-4,.cls-6{fill:#645d5d;}.cls-1,.cls-3,.cls-6,.cls-7{stroke:#645d5d;}.cls-1,.cls-10,.cls-14,.cls-3,.cls-6,.cls-7,.cls-9{stroke-miterlimit:10;}.cls-10,.cls-14,.cls-2,.cls-3,.cls-7{fill:none;}.cls-10,.cls-14,.cls-3,.cls-6,.cls-9{stroke-width:2px;}.cls-5{clip-path:url(#clip-path);}.cls-8{clip-path:url(#clip-path-2);}.cls-9{fill:#d9d9d9;stroke:#802d31;}.cls-10,.cls-14,.cls-9{stroke-linecap:round;}.cls-10{stroke:#ad7469;}.cls-11{clip-path:url(#clip-path-3);}.cls-12{clip-path:url(#clip-path-4);}.cls-13{clip-path:url(#clip-path-5);}.cls-14{stroke:#cdcdcd;}.cls-15{clip-path:url(#clip-path-6);}.cls-16{clip-path:url(#clip-path-7);}.cls-17{fill:#fff;}.cls-18{clip-path:url(#clip-path-8);}.cls-19{clip-path:url(#clip-path-9);}.cls-20{fill:#050505;}.cls-21{clip-path:url(#clip-path-10);}.cls-22{fill:#b85d40;}</style><clipPath id="clip-path"><rect class="cls-1" x="414.47" y="158.42" width="5.95" height="10.32"/></clipPath><clipPath id="clip-path-2"><rect class="cls-1" x="324.58" y="158.42" width="5.95" height="10.32"/></clipPath><clipPath id="clip-path-3"><rect class="cls-2" x="381.38" y="188.09" width="7.75" height="7.93"/></clipPath><clipPath id="clip-path-4"><rect class="cls-2" x="356.99" y="188.09" width="7.75" height="7.93"/></clipPath><clipPath id="clip-path-5"><rect class="cls-2" x="383.97" y="151.65" width="20.08" height="6.37"/></clipPath><clipPath id="clip-path-6"><rect class="cls-2" x="341.6" y="151.65" width="20.08" height="6.37"/></clipPath><clipPath id="clip-path-7"><polygon class="cls-2" points="381.99 159.6 381.99 159.6 395.45 159.6 395.45 172.56 381.99 172.56 381.99 159.6"/></clipPath><clipPath id="clip-path-8"><polygon class="cls-2" points="360.66 159.6 360.66 159.6 347.2 159.6 347.2 172.56 360.66 172.56 360.66 159.6"/></clipPath><clipPath id="clip-path-9"><polygon class="cls-2" points="384.52 161.58 384.52 161.58 393.52 161.58 393.52 170.58 384.52 170.58 384.52 161.58"/></clipPath><clipPath id="clip-path-10"><polygon class="cls-2" points="358.13 161.58 358.13 161.58 349.13 161.58 349.13 170.58 358.13 170.58 358.13 161.58"/></clipPath></defs><g id="Calque_5" data-name="Calque 5"><ellipse class="cls-3" cx="395.59" cy="165.54" rx="19.64" ry="19.88"/><ellipse class="cls-3" cx="349.97" cy="165.54" rx="19.64" ry="19.88"/><rect class="cls-4" x="414.47" y="158.42" width="5.95" height="10.32"/><g class="cls-5"><rect class="cls-6" x="415.61" y="159.57" width="3.68" height="8.03"/></g><rect class="cls-7" x="414.47" y="158.42" width="5.95" height="10.32"/><rect class="cls-4" x="324.58" y="158.42" width="5.95" height="10.32"/><g class="cls-8"><rect class="cls-6" x="325.71" y="159.57" width="3.68" height="8.03"/></g><rect class="cls-7" x="324.58" y="158.42" width="5.95" height="10.32"/><path class="cls-3" d="M369.53,166.75s-.23-3.61,3.13-3.59c3,0,3.32,3.38,3.32,3.38"/><path class="cls-9" d="M363.39,203l9.36.17c4.34.08,9.37-.23,9.37-.23"/><path class="cls-10" d="M365.64,190.2s5.66,3.37,7.56,3.32,7.06-3.29,7.06-3.29"/><g class="cls-11"><path class="cls-10" d="M382.38,189.09s4.23,4.54,5.75,5.93"/></g><g class="cls-12"><path class="cls-10" d="M363.74,189.09s-4.22,4.54-5.75,5.93"/></g><g class="cls-13"><path class="cls-14" d="M385,153.92s4.56-2.85,11.88,0a43.84,43.84,0,0,1,6.2,3.1"/></g><g class="cls-15"><path class="cls-14" d="M360.68,153.92s-4.55-2.85-11.88,0a43.84,43.84,0,0,0-6.2,3.1"/></g><g class="cls-16"><ellipse class="cls-17" cx="388.72" cy="166.08" rx="6.73" ry="6.48"/></g><g class="cls-18"><ellipse class="cls-17" cx="353.93" cy="166.08" rx="6.73" ry="6.48"/></g><g id="_Répétition_miroir_" data-name="&lt;Répétition miroir&gt;"><g class="cls-19"><circle class="cls-20" cx="389.02" cy="166.08" r="4.5"/></g></g><g id="_Répétition_miroir_2" data-name="&lt;Répétition miroir&gt;"><g class="cls-21"><circle class="cls-20" cx="353.63" cy="166.08" r="4.5"/></g></g></g><g id="Calque_3" data-name="Calque 3"><path class="cls-22" d="M380.48,189.54s-4.69,3.69-7.42,3.69c-2.58,0-7-3.6-7-3.6s5.4.73,7.21.72S380.48,189.54,380.48,189.54Z"/></g></svg>