<?xml version="1.0" encoding="utf-8"?>
<!-- Generator: Adobe Illustrator 26.0.2, SVG Export Plug-In . SVG Version: 6.00 Build 0)  -->
<svg version="1.1" id="Calque_1" xmlns="http://www.w3.org/2000/svg" xmlns:xlink="http://www.w3.org/1999/xlink" x="0px" y="0px"
	 viewBox="0 0 788 1005" style="enable-background:new 0 0 788 1005;" xml:space="preserve">
<style type="text/css">
	.st0{fill:#D79072;}
	.st1{fill:#9CCBF2;}
	.st2{fill:#4D6FAA;}
	.st3{fill:#614652;}
	.st4{fill:none;stroke:#4F3742;stroke-miterlimit:10;}
</style>
<g>
	<path class="st0" d="M336.7,631.5c-13.9-0.2-22.3,6.7-24.9,18.2c0,0-7.1,55.4-8.3,77c-1.9,34.7,2.5,101.6,7.2,136
		c1,7.5,3,30.3,3,30.3c0.6,6.8,6.4,12,13.2,11.9l0,0c6.7-0.1,12.2-5.2,12.9-11.8c0,0,2.2-26.1,3.5-34.8c4.6-31.3,18-93.5,20-125.1
		c1.2-19-0.4-77.5-0.4-77.5C362.1,636.3,348.6,632.1,336.7,631.5L336.7,631.5z"/>
	<path class="st1" d="M326.2,884.9L326.2,884.9c-6.1,0.2-11.5,3.7-14.1,9.2l0,0c-5.8,12.3-30.5,28.9-30.5,28.9
		c-4.4,3.5-6.6,9.1-5.6,14.6l0,0l60.3-0.3l3.4-1c3.9-1.2,6.4-5,6-9l-3.5-30C340.4,889.9,333.7,884.7,326.2,884.9z"/>
	<path class="st2" d="M277.7,937.3L277.7,937.3c-0.8-4.9,2.5-9.5,7.4-10.4h0.1l35.9-5.4c4.6-0.7,9,2.2,10.1,6.8l2.1,8.5L277.7,937.3
		z"/>
	<path class="st0" d="M452.5,631.5c12.4-0.2,19.9,6.7,22.2,18.2c0,0,14.4,53.4,15.5,75c1.7,34.7-10.2,103.6-14.5,138
		c-0.9,7.5-2.7,30.3-2.7,30.3c-0.6,6.8-5.7,11.9-11.8,11.8l0,0c-6-0.1-10.9-5.2-11.5-11.8c0,0-2-26.1-3.1-34.8
		c-4.1-31.3-16.1-93.5-17.9-125.1c-1.1-19,0.4-77.5,0.4-77.5C429.8,636.3,441.8,632,452.5,631.5L452.5,631.5z"/>
	<path class="st1" d="M475.5,881.1c-1.2,34,40,38.4,40,38.4c4.4,3.5-67,21.8-66.6,17.8c0,0,1.5-52-1-65.2
		C446.1,862.8,476.2,861.1,475.5,881.1z"/>
	<path class="st1" d="M462.6,899.9c6.4-2.2,5.9-6.8,8.5-9.4c1.5-1.5,7.9-3.2,8.8-1.2c10.7,22.7,61.2,35.4,61.2,35.4
		c5.4,3.8,6.6,9.1,5.5,14.6l0,0c0,0-43.8,9.4-67.8-1.3c-4.8-2.2-9,3-9,3s-22.4,3.7-21.1-3l-2.5-42.7
		C447.9,887.9,451.7,903.6,462.6,899.9z"/>
	<path class="st2" d="M547.1,939.8c0.8-9-4.3-14.7-6-14.4c-2.5,0.3-6.5,2.4-9,2.8c-4,0.7-16-0.3-16-0.3c-3.1-0.3-5.6,2.8-5.9,7.1
		l-0.2,8.6c0,0,7.3,1,24.6-1.6C537.6,941.6,547.1,939.8,547.1,939.8z"/>
	<path class="st3" d="M361.1,902c0,0.1,0,0.1,0,0.2C361.2,902.2,361.2,902.1,361.1,902z"/>
	<path class="st3" d="M361.1,902.2c0,0.2,0,0.4,0,0.7C361.1,902.7,361.1,902.4,361.1,902.2z"/>
	<path class="st3" d="M361.2,901.9v0.2C361.2,902,361.2,901.9,361.2,901.9z"/>
	<path class="st3" d="M361.2,901.5c0,0.1,0,0.2,0,0.4V901.5z"/>
	<path class="st3" d="M361.3,900.8L361.3,900.8C361.3,901,361.3,900.9,361.3,900.8z"/>
	<path class="st3" d="M361.2,901L361.2,901L361.2,901z"/>
	<path class="st3" d="M361.2,901.1c0,0,0,0.1,0,0.2S361.2,901.2,361.2,901.1z"/>
	<path class="st3" d="M361.2,901.3v0.2C361.2,901.4,361.2,901.4,361.2,901.3z"/>
	<polygon class="st4" points="394.5,490 389.5,450 404.5,450 403.5,482.2 	"/>
	<path class="st2" d="M438.2,398c17.9,6,25.7,11.1,30,19c3.5,6.5,6.7,21.2,7,28.6c0.6,17.3-8.6,60.8-24.3,75.4
		c-16,14.8-93.9,14.8-109.9,0c-15.7-14.5-24.9-58-24.3-75.4c0.3-7.4-0.2-9.3,0.4-16.6c1.5-18.2,18.7-25,36.5-31
		c20.5-6.9,41.3-5.8,41.3-5.8S417.7,391.1,438.2,398z"/>
	<path class="st2" d="M495.2,804.5c-0.5-17,2.9-89-2.3-100s-1.3-47.7-0.2-59.3c1-11.7,2.2-74.7-0.8-83.7
		c-3.1-9-18.9-130.1-18.9-130.1l-2-7.4c-0.7-10.9-15.2-17.3-26.2-17.3h-99.9c-10.7,0-24.6,3.2-25.7,13.9l-2.5,23.1
		c-4.5,7.2-5.6,39.2-7,47.6c-6.3,37.1-28.8,112.1-23.9,130.2c6,22-5,71.6,0,82.7c4.8,10.6,3.4,75.2,10.4,89.2c7.1,14,5,22.6,4,39.6
		s1.6,26.9,5.2,35.4c3.6,8.5,8.3,24.6,8.3,24.6l26.1,0.1c0,0,22-25.7,27-31.7s10-74,8.5-88s1.7-62,3.6-76c1.9-14-0.3-59,0.8-80
		s-1.8-51.1,1-60c3-9.4-0.9-18,4.1-24s3,11,7,30s-6,33,2,56s8,79,13,96s17.1,50,16.1,68c-1.1,18,2,39.5,8.9,53.5s2.6,16.4,9.6,28.5
		c7,12.1,4.8,29.9,4.8,29.9l33.7-6l0.7-34.8C480.5,854.5,495.6,821.5,495.2,804.5z"/>
</g>
</svg>
