<?xml version="1.0" encoding="utf-8"?>
<!-- Generator: Adobe Illustrator 26.0.2, SVG Export Plug-In . SVG Version: 6.00 Build 0)  -->
<svg version="1.1" id="Calque_1" xmlns="http://www.w3.org/2000/svg" xmlns:xlink="http://www.w3.org/1999/xlink" x="0px" y="0px"
	 viewBox="0 0 788 1005" style="enable-background:new 0 0 788 1005;" xml:space="preserve">
<style type="text/css">
	.st0{fill:#547687;}
	.st1{fill:#634B47;}
	.st2{fill:#95ACBA;}
	.st3{fill:#7081AF;}
</style>
<polygon points="230.2,479.5 230.3,479.5 230.2,479.4 "/>
<polygon points="230.3,479.5 230.4,479.5 230.4,479.4 "/>
<polygon points="230.2,479.5 230.3,479.5 230.2,479.4 "/>
<polygon points="230.3,479.5 230.4,479.5 230.4,479.4 "/>
<path class="st0" d="M323.1,648.7c1,13.4,10.3,23.8,21.8,24.4l0,0c11,0.6,20.8-7.9,23.4-20.3c0,0,16.1-88.8,17.9-120.8
	c0.4-7.6-0.7-30.4-0.7-30.4l-2.8-53.1c0,0-2.5-25.1-25.1-29c-26-4.5-27.2,11.8-27.2,11.8s-12.8,78.9-13.7,105.5
	C315.8,561.3,323.1,648.7,323.1,648.7z"/>
<path class="st1" d="M336.7,631.4c-13.9-0.2-22.3,6.7-24.9,18.2c0,0-7.1,55.4-8.3,77c-1.9,34.7,2.5,101.6,7.2,136
	c1,7.5,3,30.3,3,30.3c0.6,6.8,6.4,12,13.2,11.9l0,0c6.7-0.1,12.2-5.2,12.9-11.8c0,0,2.2-26.1,3.5-34.8c4.6-31.3,18-93.5,20-125.1
	c1.2-19-0.4-77.5-0.4-77.5C362.1,636.2,348.6,632,336.7,631.4L336.7,631.4z"/>
<path class="st2" d="M326.2,884.8L326.2,884.8c-6.1,0.1-11.5,3.7-14.1,9.2l0,0c-5.8,12.3-30.5,28.9-30.5,28.9
	c-4.4,3.5-6.6,9.1-5.6,14.6l0,0l60.3-0.3l3.4-1c3.9-1.2,6.4-5,6-9l-3.5-30C340.4,889.8,333.8,884.6,326.2,884.8z"/>
<path class="st3" d="M277.7,937.2L277.7,937.2c-0.8-4.9,2.5-9.5,7.4-10.4c0,0,0.1,0,0.1,0l35.9-5.4c4.6-0.7,9,2.2,10.1,6.8l2.1,8.5
	L277.7,937.2z"/>
<path class="st1" d="M452.5,631.4c12.4-0.2,19.9,6.7,22.2,18.2c0,0,9.1,50.9,11.2,72.5c4.5,46-5.4,107.1-10.2,140.6
	c-1.1,7.5-2.7,30.3-2.7,30.3c-0.6,6.8-5.7,11.9-11.8,11.8l0,0c-6-0.1-10.9-5.2-11.5-11.8c0,0-2-26.1-3.1-34.8
	c-4.1-31.3-16.1-93.5-17.9-125.1c-1.1-19,0.4-77.5,0.4-77.5C429.8,636.2,441.9,632,452.5,631.4L452.5,631.4z"/>
<path class="st1" d="M475.5,881c-1.2,34,40,38.4,40,38.4c4.4,3.5-67,21.8-66.6,17.8c0,0,1.5-52-1-65.2
	C446.1,862.6,476.2,861,475.5,881z"/>
<path class="st2" d="M464.2,899.8c6.4-2.2,5.9-6.8,8.5-9.4c1.5-1.5,7.9-3.2,8.8-1.2c10.7,22.7,61.2,35.4,61.2,35.4
	c5.4,3.8,6.6,9.1,5.5,14.6l0,0c0,0-26.5,13.5-66,3.8c-5.1-1.3-10.8-2.1-10.8-2.1s-25.4,3.3-24.1-3.5l0.4-42.3
	C449.4,887.8,453.2,903.5,464.2,899.8z"/>
<path class="st3" d="M547.1,939.7c0.9-9-4.3-14.7-6-14.4c-2.5,0.3-6.5,2.4-9,2.8c-4,0.7-13.4,2.8-13.4,2.8c-3.1-0.3-5.6,2.8-5.9,7.1
	l-0.2,8.6c0,0,3.1,0.1,20.5-2.5C536.1,943.6,547.1,939.7,547.1,939.7z"/>
<path class="st3" d="M316.6,438.5l-1.4,13.4c0,0.2,0,0.3,0,0.5c0,0-35.2,470.7-28.3,466.5c6.9-4.1,20.5-17.2,20.5-17.2
	c0.3-0.3,0.6-0.5,1-0.8c6-3.8,13.6-3.8,19.6,0c0.6,0.4,1.1,0.9,1.6,1.5l15.4,18.2c0,0,22.1-163.2,24.9-197
	c1.6-19.6,3.9-58.2,6.7-77.7c3.9-26.9,18-103.3,19.4-111c0.1-0.4,0.1-0.9,0.1-1.3l1.6-94.7c0.1-4.5-3.5-8.1-8-8.1l-65.3,0.7
	C320.4,431.5,317,434.5,316.6,438.5z"/>
<path class="st3" d="M393.5,439.1l1.6,95.6l27.6,165.7l20.6,173.2l3.8,49l13.7-17.6c4.6-3.6,9.9-6,15.6-6.9
	c14.5-2.2,16.3,7.1,28.6,11.8l-3.9-27.3l-8.2-197l-12.7-249.1l-80.4,3L393.5,439.1z"/>
<path class="st3" d="M438.2,397.9c17.9,6,47,29.7,42,38.7c-8.5,15.1-13.7,69.8-29.4,84.3c-16,14.8-93.9,14.8-109.9,0
	c-15.7-14.5-24.9-58-24.3-75.4c0.3-7.4-0.2-9.3,0.4-16.6c1.5-18.2,18.7-25,36.5-31c20.5-6.9,41.3-5.8,41.3-5.8
	S417.7,391,438.2,397.9z"/>
<polygon points="244.6,477 244.7,476.9 244.6,476.9 "/>
<polygon points="244.7,476.9 244.8,477 244.8,476.9 "/>
<polygon points="244.6,477 244.7,476.9 244.6,476.9 "/>
<polygon points="244.7,476.9 244.8,477 244.8,476.9 "/>
</svg>
