<?xml version="1.0" encoding="utf-8"?>
<!-- Generator: Adobe Illustrator 26.0.2, SVG Export Plug-In . SVG Version: 6.00 Build 0)  -->
<svg version="1.1" id="Calque_1" xmlns="http://www.w3.org/2000/svg" xmlns:xlink="http://www.w3.org/1999/xlink" x="0px" y="0px"
	 viewBox="0 0 388 581.4" style="enable-background:new 0 0 388 581.4;" xml:space="preserve">
<style type="text/css">
	.st0{fill:none;}
	.st1{fill:#944E31;}
	.st2{fill:#212121;}
	.st3{fill:#333333;}
	.st4{fill:none;stroke:#DBDBDB;stroke-width:2.0159;stroke-linecap:round;stroke-miterlimit:10;}
</style>
<polygon points="28.6,112.6 28.7,112.6 28.6,112.6 "/>
<polygon points="28.7,112.6 28.8,112.6 28.8,112.6 "/>
<polygon points="28.6,112.6 28.7,112.6 28.6,112.6 "/>
<polygon points="28.7,112.6 28.8,112.6 28.8,112.6 "/>
<polygon points="27.8,112.1 27.9,112.1 27.8,112 "/>
<polygon points="27.9,112.1 28,112.1 28,112 "/>
<polygon points="27.8,112.1 27.9,112.1 27.8,112 "/>
<polygon points="27.9,112.1 28,112.1 28,112 "/>
<g>
	<path class="st0" d="M231.7,30.4c15.7,5,22.6,9.4,26.3,16.1c3,5.4,5.8,17.9,6.1,24.2c0.5,14.6-7.6,51.4-21.4,63.7
		c61-54.2-176.7-71.3-96.7,0c-13.8-12.3-21.9-49-21.4-63.7c0.2-6.2,3.1-18.7,6.1-24.2c3.7-6.8,10.6-11,26.3-16.1
		c18-5.8,36.3-4.8,36.3-4.8S213.8,24.7,231.7,30.4z"/>
	<path class="st1" d="M137.3,262.7c-13.6-0.2-21.8,6.6-24.2,17.6c0,0-10.1,60.4-11.3,82.2c-1.9,35,2.5,102.4,7.3,137.1
		c1,7.6,3,30.5,3,30.5c0.7,6.9,6.5,12,13.3,11.9l0,0c6.8-0.1,12.3-5.2,13-11.9c0,0,2.2-26.3,3.5-35.1c4.6-31.5,18.1-94.2,20.2-126.1
		c1.2-19.2,0.7-83,0.7-83C162,267.4,148.8,263.3,137.3,262.7z"/>
	<path class="st2" d="M124.6,522.1L124.6,522.1c-6.1,0.1-11.6,3.7-14.2,9.3l0,0c-5.9,12.5-30.7,29.1-30.7,29.1
		c-4.4,3.5-6.7,9.2-5.5,14.7l0,0l60.8-0.3l3.4-1c3.9-1.2,6.5-5,6-9.1l-3.5-30.2C139,527.1,132.2,521.8,124.6,522.1z"/>
	<path class="st3" d="M232.3,29.8c15.7,5,22.6,9.4,26.3,16c3,5.4,5.8,17.9,6.1,24.2c0.5,14.6-7.6,51.4-21.4,63.7
		c61-54.2-176.7-71.3-96.7,0c-13.8-12.3-21.9-49-21.4-63.7c0.2-6.2,3.1-18.7,6.1-24.2c3.7-6.8,10.6-11,26.3-16
		c18-5.8,36.3-4.8,36.3-4.8S214.3,24,232.3,29.8z"/>
	<path class="st3" d="M272.5,279.5c-1.1,13-11.7,23.1-24.8,23.7l0,0c-12.5,0.6-23.6-7.7-26.6-19.8c0,0-25.5-142.6-27.6-173.7
		c-0.5-7.7,11.2-24.6,11.2-24.6S202,63.4,233.2,57c27.9-5.6,30.9,11.4,30.9,11.4s14.5,75.6,15.6,101.4
		C280.7,193.7,272.5,279.5,272.5,279.5z"/>
	<path class="st1" d="M250.1,262.7c12.1-0.2,19.5,6.6,21.7,17.6c0,0,17.1,58.4,18.2,80.2c1.7,35-10.4,104.4-14.6,139.1
		c-0.9,7.6-2.7,30.5-2.7,30.5c-0.6,6.9-5.7,12-11.9,11.9l0,0c-6-0.1-11-5.2-11.6-11.9c0,0-2-26.3-3.1-35.1
		c-4-31.5-16.1-94.2-18-126.1c-1.1-19.2-0.7-83-0.7-83C228,267.4,239.7,263.3,250.1,262.7L250.1,262.7z"/>
	<path class="st1" d="M275.1,518.2c-1.2,34.3,40.4,38.7,40.4,38.7c4.4,3.5-67.5,22-67.1,17.9c0,0,1.5-52.4-1-65.7
		C245.5,499.7,275.8,498,275.1,518.2z"/>
	<path class="st2" d="M262.2,537.2c6.5-2.2,5.9-6.9,8.6-9.5c1.5-1.5,8-3.2,8.9-1.2c10.8,22.9,61.7,35.7,61.7,35.7
		c5.4,3.8,6.7,9.2,5.5,14.7l0,0c0,0-44.1,9.5-68.3-1.3c-4.8-2.2-9.1,3.1-9.1,3.1s-22.6,3.7-21.4-3.1l-2.5-43
		C247.2,525,251.1,541,262.2,537.2z"/>
	<path class="st3" d="M125.4,70.1L72.6,534.8c4.3,6.7,95.9-1.5,96.1-3.6L196.2,152l17.9-79.8L125.4,70.1z"/>
	<path class="st3" d="M197,47.7l-5.6,114L211.9,540c0.2,2.9,103.2,0.5,103.2-11.4l-36.4-371.9L203.2,48.1L197,47.7z"/>
	<path class="st4" d="M107.5,541.8c0,0,4.7-3.4,9-3.3c5.1,0,10.1,3.1,10.1,3.1"/>
	<path class="st4" d="M290.1,537.4c0,0-5.1,2.1-9.1,2.2"/>
	<path class="st4" d="M295.8,542.5c0,0-5,2.4-9,2.7"/>
</g>
</svg>
