<?xml version="1.0" encoding="utf-8"?>
<!-- Generator: Adobe Illustrator 26.0.2, SVG Export Plug-In . SVG Version: 6.00 Build 0)  -->
<svg version="1.1" id="Calque_1" xmlns="http://www.w3.org/2000/svg" xmlns:xlink="http://www.w3.org/1999/xlink" x="0px" y="0px"
	 viewBox="0 0 388 581.4" style="enable-background:new 0 0 388 581.4;" xml:space="preserve">
<style type="text/css">
	.st0{fill:#FA9980;}
	.st1{fill:#547687;}
	.st2{fill:#352B28;}
	.st3{fill:#0C0C0C;}
	.st4{fill:#161616;}
	.st5{fill:#DDC345;}
	.st6{fill:none;stroke:#DDC345;stroke-width:1.0129;stroke-miterlimit:10;}
</style>
<path class="st0" d="M135.9,259.5c-14.1-0.2-22.6,6.8-25.2,18.4c0,0-7.2,56.1-8.4,78c-1.9,35.1,2.5,102.9,7.3,137.7
	c1,7.6,3,30.7,3,30.7c0.6,6.9,6.5,12.2,13.4,12.1l0,0c6.8-0.1,12.4-5.3,13.1-12c0,0,2.2-26.4,3.5-35.2
	c4.7-31.7,18.2-94.7,20.3-126.7c1.2-19.2-0.4-78.5-0.4-78.5C161.6,264.4,147.9,260.1,135.9,259.5L135.9,259.5z"/>
<path class="st1" d="M234.5,27.8c16.4,5.7,23.5,10.4,27.4,17.8c3.2,6.1,6.2,19.9,6.4,26.8c0.5,16.2-7.9,57-22.3,70.8
	c-14.7,13.9-86,13.9-100.7,0c-14.4-13.6-22.8-54.4-22.3-70.8c0.3-7-0.2-8.7,0.4-15.6c1.4-17.1,17.1-23.5,33.4-29.1
	c18.7-6.5,37.8-5.5,37.8-5.5S215.7,21.3,234.5,27.8z"/>
<path class="st0" d="M253.1,259.5c12.6-0.2,20.2,6.8,22.5,18.4c0,0,14.6,54.1,15.7,76c1.7,35.1-10.3,104.9-14.7,139.8
	c-0.9,7.6-2.7,30.7-2.7,30.7c-0.6,6.9-5.8,12.1-12,12l0,0c-6.1-0.1-11-5.3-11.6-12c0,0-2-26.4-3.1-35.2
	c-4.2-31.7-16.3-94.7-18.1-126.7c-1.1-19.2,0.4-78.5,0.4-78.5C230.2,264.4,242.3,260,253.1,259.5L253.1,259.5z"/>
<path class="st2" d="M276.1,507.8c-3.5,34.2,37.8,41.5,37.8,41.5c4.3,3.8-69.3,17.4-68.6,13.4c0,0,5.1-52.5,3.5-65.9
	C247.8,487.2,278.3,487.7,276.1,507.8z"/>
<path class="st3" d="M123,61.9L121.5,76c0,0.1,0,0.2,0,0.3L89.2,275.3c-0.5,3.3,1.9,6.4,5.3,6.6l79.8,5.6c3,0.2,5.7-2,6.1-5
	l15.3-123.7c0-0.2,0-0.4,0-0.6l1.5-96.2c0.1-3.2-2.6-5.9-5.8-5.8l-62.7,0.7C125.7,56.8,123.3,59,123,61.9z"/>
<path class="st3" d="M188.9,74.7l1.2,88.8c0,0.2,0,0.5,0.1,0.7l17.4,124.1c0.4,2.8,2.8,4.9,5.7,4.9l89.6,0.2c3.6,0,6.3-3.2,5.7-6.8
	L268.9,71.3c-0.5-2.8-3-4.8-5.8-4.7l-67.4,2.3c-0.2,0-0.4,0-0.6,0h0C191.7,68.6,188.9,71.3,188.9,74.7z"/>
<path class="st4" d="M152.2,444.1l-13.3,80.4c-0.2,1.5-1.6,2.5-3.1,2.3l-20.9-2.3c-1.3-0.1-2.3-1.2-2.5-2.5l-8.8-81.2
	c-0.2-1.7,1.2-3.2,3-3.1l43.1,3.1C151.2,440.9,152.4,442.4,152.2,444.1z"/>
<path class="st4" d="M237,431.2l10.5,93.2c0.2,2.1,2.1,3.7,4.2,3.5l18.7-1.2c1.9-0.1,3.5-1.6,3.7-3.5l11.9-92.6
	c0.3-2.4-1.6-4.5-4-4.5l-41.1,0.5C238.6,426.8,236.8,428.9,237,431.2z"/>
<path class="st5" d="M261.8,526.1c6.6-1.8,6.5-6.6,9.2-9c1.6-1.5,8.2-2.7,9-0.6c9.2,24,59.3,40.5,59.3,40.5c5.2,4.3,6,9.8,4.6,15.4
	l0,0c0,0-44.9,6.6-68.4-6.1c-4.7-2.5-9.3,2.5-9.3,2.5s-22.9,2.2-21.2-4.7l0.5-44C247.8,512.8,250.4,529.2,261.8,526.1z"/>
<path class="st3" d="M234.5,27.8c16.4,5.7,23.5,10.4,27.4,17.8c3.2,6.1,6.2,19.9,6.4,26.8c0.5,16.2-7.9,57-22.3,70.8
	c-14.7,13.9-86,13.9-100.7,0c-14.4-13.6-22.8-54.4-22.3-70.8c0.3-7-0.2-8.7,0.4-15.6c1.4-17.1,17.1-23.5,33.4-29.1
	c18.7-6.5,37.8-5.5,37.8-5.5S215.7,21.3,234.5,27.8z"/>
<path class="st2" d="M344.4,572.2c1.5-9-3.2-15.1-5.1-15c-2.5,0.1-6.8,1.9-9.3,2.2c-4.1,0.4-16.1-1.4-16.1-1.4
	c-3-0.5-5.9,2.4-6.4,6.8l-0.8,8.7c0,0,7.3,1.5,25,0.1C334.7,573.3,344.4,572.2,344.4,572.2z"/>
<path class="st5" d="M125.2,516.2L125.2,516.2c-6.2,0.2-11.6,3.7-14.3,9.3l0,0c-5.9,12.5-30.9,29.3-30.9,29.3
	c-4.5,3.5-6.7,9.2-5.7,14.8l0,0l61.1-0.3l3.4-1c4-1.2,6.5-5.1,6.1-9.1l-3.5-30.4C139.6,521.2,132.8,516,125.2,516.2z"/>
<path class="st2" d="M76.1,569.2L76.1,569.2c-0.8-5,2.5-9.6,7.5-10.5h0.1l36.4-5.5c4.7-0.7,9.1,2.2,10.2,6.9l2.1,8.6L76.1,569.2z"/>
<ellipse class="st6" cx="126.7" cy="462.4" rx="5.7" ry="9.7"/>
<ellipse class="st6" cx="268" cy="448.2" rx="5.7" ry="9.7"/>
<path class="st5" d="M134.5,466.8h-16.2c-1.1,0-2-0.9-2-2v-3.1c0-1.1,0.9-2,2-2h16.2c1.1,0,2,0.9,2,2v3.1
	C136.5,465.9,135.6,466.8,134.5,466.8z"/>
<path class="st5" d="M276.2,452.3h-16.2c-1.1,0-2-0.9-2-2v-3.1c0-1.1,0.9-2,2-2h16.2c1.1,0,2,0.9,2,2v3.1
	C278.2,451.4,277.3,452.3,276.2,452.3z"/>
</svg>
