<?xml version="1.0" encoding="utf-8"?>
<!-- Generator: Adobe Illustrator 26.0.2, SVG Export Plug-In . SVG Version: 6.00 Build 0)  -->
<svg version="1.1" id="Calque_1" xmlns="http://www.w3.org/2000/svg" xmlns:xlink="http://www.w3.org/1999/xlink" x="0px" y="0px"
	 viewBox="0 0 388 581.4" style="enable-background:new 0 0 388 581.4;" xml:space="preserve">
<style type="text/css">
	.st0{fill:#295446;}
	.st1{fill:#944E31;}
	.st2{fill:#9C3A26;}
	.st3{fill:#315B4C;}
</style>
<polygon points="30.2,111.8 30.3,111.7 30.2,111.7 "/>
<polygon points="30.3,111.7 30.4,111.8 30.4,111.7 "/>
<polygon points="30.2,111.8 30.3,111.7 30.2,111.7 "/>
<polygon points="30.3,111.7 30.4,111.8 30.4,111.7 "/>
<g>
	<g id="Calque_1_00000178182368817975012350000009247453862008056196_">
		<path class="st0" d="M241,30.1c17.5,5.4,25.1,9.9,29.2,17.1c3.3,5.8,6.6,19,6.8,25.7c0.6,15.6-2.8,62.1-19.3,76.8
			c54.7-48.6-157-36.4-115.9,0c-16.6-14.7-20-61.2-19.4-76.8c0.2-6.6-0.2-8.4,0.3-14.9c1.4-16.3,18.2-22.5,35.7-27.9
			c20-6.2,40.4-5.2,40.4-5.2S220.9,23.9,241,30.1z"/>
	</g>
	<path class="st1" d="M136.7,260c-14.1-0.2-22.6,6.8-25.2,18.4c0,0-7.2,56-8.4,77.9c-1.9,35.1,2.5,102.8,7.3,137.6
		c1,7.6,3,30.6,3,30.6c0.7,6.9,6.5,12,13.4,11.9l0,0c6.8-0.1,12.3-5.3,13-11.9c0,0,2.2-26.4,3.5-35.2c4.7-31.7,18.2-94.6,20.2-126.6
		c1.2-19.2-0.4-78.4-0.4-78.4C162.4,264.9,148.7,260.6,136.7,260L136.7,260z"/>
	<path class="st2" d="M126.1,516.3L126.1,516.3c-6.2,0.1-11.6,3.7-14.3,9.3l0,0c-6,12.4-31,29.2-31,29.2c-4.5,3.5-6.7,9.2-5.6,14.8
		l0,0l61-0.3l3.4-1c3.9-1.2,6.5-5.1,6.1-9.1l-3.5-30.3C140.5,521.4,133.7,516.1,126.1,516.3z"/>
	<path class="st0" d="M77,569.3L77,569.3c-0.8-5,2.5-9.6,7.5-10.4h0.1l36.2-5.5c4.7-0.7,9.1,2.2,10.2,6.9l2.1,8.6L77,569.3z"/>
	<path class="st1" d="M253.8,260c12.5-0.2,20.1,6.8,22.5,18.4c0,0,9.2,51.5,11.3,73.3c4.6,46.5-5.5,108.3-10.3,142.2
		c-1.1,7.6-2.7,30.6-2.7,30.6c-0.6,6.9-5.8,12-11.9,11.9l0,0c-6.1-0.1-11-5.3-11.6-11.9c0,0-2-26.4-3.1-35.2
		c-4.1-31.7-16.3-94.6-18.1-126.6c-1.1-19.2,0.4-78.4,0.4-78.4C230.8,264.9,243.1,260.6,253.8,260L253.8,260z"/>
	<path class="st1" d="M277.1,512.5c-1.2,34.4,40.6,38.8,40.6,38.8c4.5,3.5-67.8,22.1-67.4,18c0,0,1.5-52.6-1-65.9
		C247.4,494,277.8,492.2,277.1,512.5z"/>
	<path class="st2" d="M265.6,531.5c6.5-2.2,6-6.9,8.6-9.5c1.5-1.5,8-3.2,8.9-1.2c10.8,23,61.9,35.8,61.9,35.8
		c5.4,3.8,6.7,9.2,5.6,14.8l0,0c0,0-26.9,13.7-66.8,3.8c-5.2-1.3-10.9-2.1-10.9-2.1s-25.7,3.3-24.4-3.5l0.4-42.8
		C250.7,519.3,254.5,535.3,265.6,531.5z"/>
	<path class="st0" d="M349.5,571.8c0.8-9.1-4.3-14.9-6.1-14.6c-2.5,0.3-6.6,2.4-9.1,2.8c-4,0.7-13.5,2.8-13.5,2.8
		c-3.1-0.3-5.7,2.8-6,7.2l-0.2,8.7c0,0,3.1,0.1,20.7-2.5C338.4,575.8,349.5,571.8,349.5,571.8z"/>
	<path class="st0" d="M299.7,337.8c-1-41.5-24.8-271-24.8-271.1l-0.5-7.5c-0.8-11-10.4-19.6-21.8-19.6h-105
		c-11.2,0-20.7,8.2-21.8,19l-1.2,12.1h-0.9c0,0-28.6,240.7-27.5,269.1s10.1,190.3,10.1,190.3l45.5-1.6c0,0,26-177.5,26-201.8
		s21.1-184.1,21.1-184.1s23,149.7,21.9,174c-1,24.3,19.1,219.3,19.1,219.3l54.6-5.6C294.6,530.3,300.7,379.3,299.7,337.8z"/>
	<path class="st0" d="M149.5,539.4l-47.2-4.9c-1.8-0.2-3.1-1.8-2.9-3.6l0.3-3.3c0.2-1.8,1.8-3.1,3.6-2.9l47.2,4.9
		c1.8,0.2,3.1,1.8,2.9,3.6l-0.3,3.3C153.1,538.3,151.3,539.6,149.5,539.4z"/>
	<path class="st3" d="M152.6,534.6l-51.4-5.3c-1.8-0.2-3.1-1.8-2.9-3.6l0.5-4.8c0.2-1.8,1.8-3.1,3.6-2.9l51.4,5.3
		c1.8,0.2,3.1,1.8,2.9,3.6l-0.5,4.8C156,533.5,154.3,534.8,152.6,534.6z"/>
	<path class="st0" d="M295.1,534.8l-49.8,10.6c-2.2,0.5-4.5-0.8-4.9-2.8l-0.8-3.7c-0.4-2,1.1-4.1,3.3-4.6l49.8-10.6
		c2.2-0.5,4.5,0.8,4.9,2.8l0.8,3.7C298.8,532.3,297.3,534.3,295.1,534.8z"/>
	<path class="st3" d="M296.5,528.7l-54.2,11.5c-2.2,0.5-4.5-0.8-4.9-2.8l-1.1-5.3c-0.4-2,1.1-4.1,3.3-4.6l54.2-11.5
		c2.2-0.5,4.5,0.8,4.9,2.8l1.1,5.3C300.3,526.1,298.8,528.1,296.5,528.7z"/>
</g>
</svg>
