<?xml version="1.0" encoding="utf-8"?>
<!-- Generator: Adobe Illustrator 26.0.2, SVG Export Plug-In . SVG Version: 6.00 Build 0)  -->
<svg version="1.1" id="Calque_1" xmlns="http://www.w3.org/2000/svg" xmlns:xlink="http://www.w3.org/1999/xlink" x="0px" y="0px"
	 viewBox="0 0 788 1005" style="enable-background:new 0 0 788 1005;" xml:space="preserve">
<style type="text/css">
	.st0{fill:none;}
	.st1{fill:#FA9980;}
	.st2{fill:#E2B440;}
	.st3{fill:#6C9AAB;}
	.st4{fill:#87B6C7;}
	.st5{fill:#944E31;}
	.st6{fill:#699AAB;}
	.st7{fill:none;stroke:#699AAB;stroke-width:2;stroke-linecap:round;stroke-miterlimit:10;}
	.st8{fill:none;stroke:#669AAB;stroke-width:2;stroke-linecap:round;stroke-miterlimit:10;}
	.st9{fill:#FAB948;}
</style>
<path class="st0" d="M434,402.7c15.7,4.3,22.5,7.9,26.2,13.5c3,4.6,5.8,15.1,6.1,20.3c0.5,12.3-5.6,56.6-19.8,69.2
	c-14.4,12.9-84.8,12.9-99.2,0c-14.1-12.6-20.3-56.9-19.8-69.2c0.2-5.2,3.1-15.8,6.1-20.3c3.7-5.7,10.6-9.3,26.2-13.5
	c17.9-4.9,36.2-4.1,36.2-4.1S416.1,397.8,434,402.7z"/>
<polygon points="231.6,486.2 231.7,486.1 231.6,486.1 "/>
<polygon points="231.7,486.1 231.8,486.2 231.8,486.1 "/>
<polygon points="231.6,486.2 231.7,486.1 231.6,486.1 "/>
<polygon points="231.7,486.1 231.8,486.2 231.8,486.1 "/>
<path class="st1" d="M338.1,638c-13.9-0.2-22.3,6.7-24.9,18.2c0,0-7.1,55.4-8.3,77c-1.9,34.7,2.5,101.6,7.2,136c1,7.5,3,30.3,3,30.3
	c0.7,6.8,6.4,11.9,13.2,11.8l0,0c6.7-0.1,12.2-5.2,12.9-11.8c0,0,2.2-26.1,3.5-34.8c4.6-31.3,18-93.5,20-125.1
	c1.2-19-0.5-77.5-0.5-77.5C363.5,642.8,350,638.6,338.1,638z"/>
<path class="st2" d="M327.6,891.5L327.6,891.5c-6.1,0.1-11.5,3.7-14.1,9.2l0,0c-5.9,12.4-30.5,28.9-30.5,28.9
	c-4.4,3.5-6.6,9.1-5.5,14.6l0,0l60.3-0.3l3.4-1c3.9-1.2,6.4-5,6-9l-3.5-30C341.9,896.4,335.2,891.2,327.6,891.5z"/>
<path class="st3" d="M279.1,943.8L279.1,943.8c-0.8-4.9,2.5-9.5,7.4-10.3h0.1l35.8-5.5c4.6-0.7,9,2.2,10.1,6.8l2.1,8.5L279.1,943.8z
	"/>
<path class="st4" d="M434.5,402.2c15.7,4.3,22.5,7.9,26.2,13.5c3,4.6,5.8,15.1,6.1,20.4c0.5,12.3-5.6,56.5-19.8,69.1
	c-14.4,12.9-84.8,12.9-99.2,0c-14.1-12.6-20.3-56.8-19.8-69.1c0.2-5.2,3.1-15.8,6.1-20.4c3.7-5.7,10.6-9.3,26.2-13.5
	c17.9-4.9,36.2-4.1,36.2-4.1S416.6,397.3,434.5,402.2z"/>
<path class="st4" d="M477,655.3c-1.2,13.4-12.1,23.8-25.5,24.4l0,0c-12.8,0.6-24.3-7.9-27.3-20.3c0,0-18.9-88.8-20.9-120.8
	c-0.5-7.9,3.8-89.8,3.8-89.8s-2.7-18.3,28.4-23.7c27.8-4.8,30.8,9.6,30.8,9.6s17,81.1,18.1,107.7C485.5,566.9,477,655.3,477,655.3z"
	/>
<path class="st5" d="M453.9,638c12.4-0.2,19.9,6.7,22.2,18.2c0,0,14.4,53.4,15.5,75c1.7,34.7-10.3,103.6-14.5,138
	c-0.9,7.5-2.7,30.3-2.7,30.3c-0.6,6.8-5.7,11.9-11.8,11.8l0,0c-6-0.1-10.9-5.2-11.5-11.8c0,0-2-26.1-3.1-34.8
	c-4-31.3-16-93.5-17.9-125.1c-1.1-19,0.4-77.5,0.4-77.5C431.3,642.9,443.3,638.6,453.9,638L453.9,638z"/>
<path class="st1" d="M476.9,887.6c-1.2,34,40.1,38.4,40.1,38.4c4.4,3.5-67,21.8-66.6,17.8c0,0,1.5-52-1-65.2
	C447.6,869.3,477.6,867.6,476.9,887.6z"/>
<path class="st2" d="M464.1,906.5c6.4-2.2,5.9-6.8,8.5-9.4c1.5-1.5,7.9-3.2,8.8-1.2c10.7,22.7,61.2,35.4,61.2,35.4
	c5.4,3.8,6.6,9.1,5.5,14.6l0,0c0,0-43.8,9.4-67.8-1.3c-4.8-2.2-9,3.1-9,3.1s-22.4,3.7-21.2-3.1l-2.5-42.7
	C449.3,894.4,453.1,910.2,464.1,906.5z"/>
<path class="st6" d="M548.6,946.3c0.8-9-4.3-14.7-6-14.4c-2.5,0.3-6.5,2.4-9,2.8c-4,0.7-16-0.3-16-0.3c-3.1-0.3-5.6,2.8-5.9,7.1
	l-0.2,8.6c0,0,7.3,1,24.6-1.6C539.1,948.1,548.6,946.3,548.6,946.3z"/>
<path class="st4" d="M326.6,449.6L282.7,833c-0.8,6.6,3,12.9,9.1,15.5l10.7,4.4c5,2.1,8.5,6.7,9.1,12l1.3,10.8c0.2,2,2,3.5,4.1,3.3
	l25.7-2.3c1.7-0.2,3.1-1.5,3.4-3.1l2.3-14.4c0.7-4.3,3.2-8,6.8-10.3l9.9-6.2c3.8-2.4,6.4-6.4,6.9-10.9l34-293.2l8.7-84.6
	c0.9-8.7-5.8-16.3-14.5-16.4l-58.5-1.2C334,436.2,327.4,441.9,326.6,449.6z"/>
<path class="st4" d="M403.6,417.5c-2.2-0.1-4.1,1.6-4.1,3.9l1.6,103.1l12.8,309.4c0.3,7.4,4.4,14.2,10.8,18l11,6.4
	c4.1,2.4,7.1,6.4,8.1,11.1l3,13.6c0.4,1.9,2.2,3.2,4.1,3l22.4-2.3c1.8-0.2,3.3-1.7,3.4-3.5l1.2-14.5c0.4-4.7,3.1-9,7.2-11.4
	l13.1-7.7c11.5-6.7,17.9-19.5,16.5-32.7l-31.5-284.1c-0.1-0.6-0.3-1.3-0.7-1.8l-76.2-108.8C405.8,418.2,404.7,417.6,403.6,417.5
	L403.6,417.5z"/>
<path class="st7" d="M310.7,910c0,0,4.7-3.4,8.9-3.3c5.1,0,10,3.1,10,3.1"/>
<path class="st8" d="M491.8,905.7c0,0-5.1,2.1-9,2.2"/>
<path class="st8" d="M497.5,910.7c0,0-5,2.4-8.9,2.7"/>
<polygon points="230.6,478.1 230.7,478 230.6,478 "/>
<polygon points="230.7,478 230.8,478.1 230.8,478 "/>
<polygon points="230.6,478.1 230.7,478 230.6,478 "/>
<polygon points="230.7,478 230.8,478.1 230.8,478 "/>
<path class="st4" d="M323.2,488.6c0,0-66.6,258.2-60.7,277.6c5.9,19.4,13.4,32.9,16.8,50.6c3.4,17.7,6.7,27.8,10.1,27.8
	s58.2-10.1,58.2-10.1L362,728.2l-6.7-81L323.2,488.6z"/>
<path class="st4" d="M470,459.9c0,0,70,270,64.1,289.4c-5.9,19.4-8.4,5.9-11.8,23.6c-3.4,17.7-7.2,56.9-10.6,56.9
	S454,790.6,454,790.6l-14.3-106.3l6.7-81L470,459.9z"/>
<path class="st4" d="M371.2,744c0-1.1,21.4-61.9,24.7-60.7s4.5-2.2,5.6,0.4c1.1,2.6,21,67.9,21,67.9l-12.4-217.1L388,533L371.2,744z
	"/>
<g>
	<g>
		<g>
			<g>
				<g>
					<polygon class="st9" points="331.2,507.4 321.6,494.2 331.3,481.2 341,494.3 					"/>
				</g>
			</g>
			<g>
				<g>
					<polygon class="st9" points="350.7,507.5 341,494.3 350.8,481.2 360.5,494.4 					"/>
				</g>
			</g>
			<g>
				<g>
					<polygon class="st9" points="370.2,507.5 360.5,494.4 370.3,481.3 380,494.4 					"/>
				</g>
			</g>
			<g>
				<g>
					<polygon class="st9" points="389.7,507.6 380,494.4 389.8,481.4 399.5,494.5 					"/>
				</g>
			</g>
			<g>
				<g>
					<polygon class="st9" points="409.1,507.7 399.5,494.5 409.2,481.4 418.9,494.6 					"/>
				</g>
			</g>
			<g>
				<g>
					<polygon class="st9" points="428.6,507.7 418.9,494.6 428.7,481.5 438.4,494.7 					"/>
				</g>
			</g>
			<g>
				<g>
					<polygon class="st9" points="448.1,507.8 438.4,494.7 448.2,481.6 457.9,494.7 					"/>
				</g>
			</g>
			<g>
				<g>
					<polygon class="st9" points="467.6,507.9 457.9,494.7 467.7,481.7 477.4,494.8 					"/>
				</g>
			</g>
		</g>
	</g>
</g>
</svg>
