<svg xmlns="http://www.w3.org/2000/svg" viewBox="0 0 388 581.43"><defs><style>.cls-1{fill:#614652;}.cls-2{fill:#944e31;}.cls-3{fill:#87b6c7;}.cls-4{fill:#6c9aab;}.cls-5{fill:#699aab;}.cls-6,.cls-7,.cls-8{fill:none;stroke-miterlimit:10;}.cls-6{stroke:#699aab;}.cls-6,.cls-7{stroke-linecap:round;stroke-width:2px;}.cls-7{stroke:#669aab;}.cls-8{stroke:#4f3742;}</style></defs><g id="Calque_1" data-name="Calque 1"><path class="cls-1" d="M238.28,30.1c17.9,6,25.7,11.06,30,19,3.45,6.45,6.69,21.23,6.95,28.6.6,17.31-8.61,60.83-24.29,75.35-15.95,14.77-93.92,14.77-109.87,0-15.68-14.52-24.89-58-24.29-75.35.26-7.37-.25-9.3.35-16.59,1.5-18.18,18.66-25,36.55-31,20.48-6.87,41.31-5.79,41.31-5.79S217.8,23.23,238.28,30.1Z"/></g><g id="Calque_7" data-name="Calque 7"><path class="cls-2" d="M137.11,262.12c-13.93-.19-22.34,6.71-24.88,18.16,0,0-7.1,55.37-8.31,77-1.93,34.69,2.48,101.6,7.19,136,1,7.53,3,30.27,3,30.27a13.12,13.12,0,0,0,13.21,11.83h0a13.12,13.12,0,0,0,12.9-11.81s2.23-26.14,3.49-34.79c4.58-31.35,18-93.52,20-125.14,1.22-19-.44-77.51-.44-77.51C162.49,267,149,262.7,137.11,262.12Z"/><path class="cls-3" d="M126.61,515.55h0a16,16,0,0,0-14.11,9.16h0c-5.85,12.34-30.56,28.87-30.56,28.87a15.14,15.14,0,0,0-5.55,14.63h0l60.27-.33,3.39-1a8.53,8.53,0,0,0,6-9l-3.46-30A16,16,0,0,0,126.61,515.55Z"/><path class="cls-4" d="M78.12,567.91h0a9,9,0,0,1,7.53-10.36l35.84-5.41a9,9,0,0,1,10.07,6.76l2.06,8.51Z"/><path class="cls-2" d="M252.92,262.12c12.43-.19,19.94,6.71,22.21,18.16,0,0,14.38,53.37,15.45,75,1.73,34.69-10.25,103.6-14.45,138-.92,7.53-2.67,30.27-2.67,30.27-.6,6.77-5.72,11.91-11.79,11.83h0c-6-.08-10.93-5.16-11.52-11.81,0,0-2-26.14-3.12-34.79-4.09-31.35-16.08-93.52-17.88-125.14-1.09-19,.4-77.51.4-77.51.7-19.22,12.72-23.47,23.37-24.05Z"/><path class="cls-2" d="M275.92,511.71c-1.21,34,40.06,38.37,40.06,38.37,4.42,3.47-67,21.84-66.62,17.8,0,0,1.46-52-1-65.21C246.56,493.39,276.63,491.74,275.92,511.71Z"/><path class="cls-3" d="M263.06,530.56c6.38-2.18,5.92-6.82,8.46-9.37,1.54-1.54,7.87-3.19,8.8-1.22,10.68,22.66,61.16,35.37,61.16,35.37,5.35,3.82,6.56,9.1,5.55,14.63h0s-43.78,9.37-67.77-1.33c-4.81-2.15-9,3.06-9,3.06s-22.42,3.73-21.15-3.06l-2.54-42.71C248.3,518.55,252.1,534.3,263.06,530.56Z"/><path class="cls-5" d="M347.54,570.41c.85-9-4.26-14.65-6-14.43-2.5.32-6.5,2.39-9,2.82-4,.68-15.95-.29-15.95-.29-3.08-.32-5.62,2.76-5.86,7.09l-.2,8.64s7.32,1,24.63-1.59C338.06,572.22,347.54,570.41,347.54,570.41Z"/><path class="cls-1" d="M117.44,61.35,115.27,82l-31,419.91a26,26,0,0,0,27.11,27.93l3.66-.16,14.23-.24a29.6,29.6,0,0,0,29.07-28.21l11.14-126s8.75-76.5,11.56-96C185.12,250.78,196.18,164,196.18,164l1.76-103.55Z"/><path class="cls-1" d="M188.9,72l1.64,95.62,6.17.77,30.34,330.88A33.67,33.67,0,0,0,271.22,530L282,526.44a33.68,33.68,0,0,0,22.93-35.93L301,456.83l-8.92-129.65L271.25,83.06,195.12,72.44Z"/><path class="cls-6" d="M109.64,534.16s4.74-3.36,8.91-3.36c5.11,0,10,3.12,10,3.12"/><path class="cls-7" d="M290.83,529.81s-5.11,2.07-9,2.15"/><path class="cls-7" d="M296.49,534.77s-5,2.4-8.87,2.74"/><polygon class="cls-8" points="194.93 120.59 189.93 80.59 204.93 80.59 203.93 112.87 194.93 120.59"/></g></svg>