<?xml version="1.0" encoding="utf-8"?>
<!-- Generator: Adobe Illustrator 26.0.2, SVG Export Plug-In . SVG Version: 6.00 Build 0)  -->
<svg version="1.1" id="Calque_1" xmlns="http://www.w3.org/2000/svg" xmlns:xlink="http://www.w3.org/1999/xlink" x="0px" y="0px"
	 viewBox="0 0 788 1005" style="enable-background:new 0 0 788 1005;" xml:space="preserve">
<style type="text/css">
	.st0{fill:none;}
	.st1{fill:#944E31;}
	.st2{fill:#212121;}
	.st3{fill:#333333;}
	.st4{fill:none;stroke:#DBDBDB;stroke-width:2.0055;stroke-linecap:round;stroke-miterlimit:10;}
</style>
<g>
	<path class="st0" d="M432.6,401.8c15.6,5,22.5,9.3,26.2,16c3,5.4,5.8,17.8,6.1,24.1c0.5,14.5-7.5,51.1-21.3,63.4
		c60.7-53.9-175.8-70.9-96.2,0c-13.7-12.2-21.8-48.7-21.3-63.4c0.2-6.2,3.1-18.7,6.1-24.1c3.7-6.7,10.5-10.9,26.2-16
		c17.9-5.8,36.1-4.8,36.1-4.8S414.8,396.1,432.6,401.8z"/>
	<path class="st1" d="M338.7,632.8c-13.5-0.2-21.7,6.5-24.1,17.5c0,0-10,60.1-11.2,81.8c-1.9,34.8,2.5,101.9,7.2,136.4
		c1,7.5,3,30.4,3,30.4c0.7,6.8,6.4,11.9,13.2,11.8l0,0c6.7-0.1,12.2-5.2,12.9-11.8c0,0,2.2-26.2,3.5-34.9
		c4.6-31.4,18-93.8,20.1-125.4c1.2-19.1,0.7-82.5,0.7-82.5C363.2,637.5,350.1,633.4,338.7,632.8z"/>
	<path class="st2" d="M326,890.9L326,890.9c-6.1,0.1-11.5,3.7-14.1,9.2l0,0c-5.9,12.4-30.6,29-30.6,29c-4.4,3.5-6.6,9.1-5.5,14.6
		l0,0l60.5-0.3l3.4-1c3.9-1.2,6.4-5,6-9l-3.5-30.1C340.4,895.8,333.6,890.6,326,890.9z"/>
	<path class="st3" d="M433.2,401.2c15.6,5,22.5,9.3,26.2,15.9c3,5.4,5.8,17.8,6.1,24.1c0.5,14.5-7.5,51.1-21.3,63.4
		c60.7-53.9-175.8-70.9-96.2,0c-13.7-12.2-21.8-48.7-21.3-63.4c0.2-6.2,3.1-18.7,6.1-24.1c3.7-6.7,10.5-10.9,26.2-15.9
		c17.9-5.8,36.1-4.8,36.1-4.8S415.3,395.4,433.2,401.2z"/>
	<path class="st3" d="M473.2,649.6c-1.1,12.9-11.6,23-24.7,23.6l0,0c-12.4,0.6-23.5-7.6-26.5-19.7c0,0-25.4-141.9-27.5-172.8
		c-0.5-7.6,11.1-24.5,11.1-24.5s-2.7-21.7,28.4-28c27.8-5.6,30.8,11.3,30.8,11.3s14.4,75.2,15.5,100.9
		C481.3,564.2,473.2,649.6,473.2,649.6z"/>
	<path class="st1" d="M450.9,632.8c12-0.2,19.4,6.5,21.6,17.5c0,0,17,58.1,18.1,79.8c1.7,34.8-10.3,103.9-14.5,138.4
		c-0.9,7.5-2.7,30.4-2.7,30.4c-0.6,6.8-5.7,11.9-11.8,11.8l0,0c-6-0.1-10.9-5.2-11.5-11.8c0,0-2-26.2-3.1-34.9
		c-4-31.4-16-93.8-17.9-125.4c-1.1-19.1-0.7-82.5-0.7-82.5C428.9,637.5,440.5,633.4,450.9,632.8L450.9,632.8z"/>
	<path class="st1" d="M475.7,887c-1.2,34.1,40.2,38.5,40.2,38.5c4.4,3.5-67.2,21.9-66.8,17.8c0,0,1.5-52.1-1-65.4
		C446.3,868.7,476.4,867,475.7,887z"/>
	<path class="st2" d="M462.9,906c6.4-2.2,5.9-6.8,8.5-9.4c1.5-1.5,7.9-3.2,8.8-1.2c10.7,22.8,61.4,35.5,61.4,35.5
		c5.4,3.8,6.6,9.1,5.5,14.6l0,0c0,0-43.9,9.4-68-1.3c-4.8-2.2-9,3.1-9,3.1s-22.5,3.7-21.3-3.1l-2.5-42.8
		C448.1,893.8,451.9,909.7,462.9,906z"/>
	<path class="st3" d="M326.8,441.2l-52.5,462.4c4.3,6.6,95.4-1.5,95.6-3.6l27.5-377.2l17.8-79.4L326.8,441.2z"/>
	<path class="st3" d="M398.1,418.9l-5.6,113.4l20.4,376.3c0.2,2.9,102.7,0.5,102.7-11.3l-36.2-370l-75.1-108L398.1,418.9z"/>
	<path class="st4" d="M309.1,910.5c0,0,4.7-3.4,8.9-3.3c5.1,0,10,3.1,10,3.1"/>
	<path class="st4" d="M490.7,906.2c0,0-5.1,2.1-9,2.2"/>
	<path class="st4" d="M496.4,911.2c0,0-5,2.4-8.9,2.7"/>
</g>
</svg>
