<?xml version="1.0" encoding="utf-8"?>
<!-- Generator: Adobe Illustrator 26.0.2, SVG Export Plug-In . SVG Version: 6.00 Build 0)  -->
<svg version="1.1" id="Calque_1" xmlns="http://www.w3.org/2000/svg" xmlns:xlink="http://www.w3.org/1999/xlink" x="0px" y="0px"
	 viewBox="0 0 788 1005" style="enable-background:new 0 0 788 1005;" xml:space="preserve">
<style type="text/css">
	.st0{fill:#FA9980;}
	.st1{fill:#547687;}
	.st2{fill:#352B28;}
	.st3{fill:#0C0C0C;}
	.st4{fill:#161616;}
	.st5{fill:#DDC345;}
	.st6{fill:none;stroke:#DDC345;stroke-miterlimit:10;}
</style>
<path class="st0" d="M336.8,631.4c-13.9-0.2-22.3,6.7-24.9,18.2c0,0-7.1,55.4-8.3,77c-1.9,34.7,2.5,101.6,7.2,136
	c1,7.5,3,30.3,3,30.3c0.6,6.8,6.4,12,13.2,11.9l0,0c6.7-0.1,12.2-5.2,12.9-11.8c0,0,2.2-26.1,3.5-34.8c4.6-31.3,18-93.5,20-125.1
	c1.2-19-0.4-77.5-0.4-77.5C362.2,636.2,348.7,632,336.8,631.4L336.8,631.4z"/>
<path class="st1" d="M434.2,402.6c16.2,5.6,23.2,10.3,27.1,17.6c3.2,6,6.1,19.6,6.3,26.5c0.5,16-7.8,56.3-22,69.9
	c-14.5,13.7-84.9,13.7-99.4,0c-14.2-13.4-22.5-53.7-22-69.9c0.3-6.9-0.2-8.6,0.4-15.4c1.4-16.9,16.9-23.2,33-28.7
	c18.5-6.4,37.3-5.4,37.3-5.4S415.6,396.2,434.2,402.6z"/>
<path class="st0" d="M452.6,631.4c12.4-0.2,19.9,6.7,22.2,18.2c0,0,14.4,53.4,15.5,75c1.7,34.7-10.2,103.6-14.5,138
	c-0.9,7.5-2.7,30.3-2.7,30.3c-0.6,6.8-5.7,11.9-11.8,11.8l0,0c-6-0.1-10.9-5.2-11.5-11.8c0,0-2-26.1-3.1-34.8
	c-4.1-31.3-16.1-93.5-17.9-125.1c-1.1-19,0.4-77.5,0.4-77.5C429.9,636.2,441.9,631.9,452.6,631.4L452.6,631.4z"/>
<path class="st2" d="M475.3,876.5c-3.5,33.8,37.3,41,37.3,41c4.2,3.8-68.4,17.2-67.7,13.2c0,0,5-51.8,3.5-65.1
	C447.3,856.2,477.4,856.7,475.3,876.5z"/>
<path class="st3" d="M324.1,436.3l-1.5,13.9c0,0.1,0,0.2,0,0.3L290.7,647c-0.5,3.3,1.9,6.3,5.2,6.6l78.7,5.5c3,0.2,5.7-2,6-5
	l15.1-122.2c0-0.2,0-0.4,0-0.6l1.5-95c0.1-3.2-2.5-5.8-5.7-5.8l-61.9,0.7C326.8,431.3,324.4,433.5,324.1,436.3z"/>
<path class="st3" d="M389.2,448.9l1.2,87.6c0,0.2,0,0.5,0.1,0.7l17.2,122.5c0.4,2.8,2.8,4.9,5.6,4.9l88.5,0.2c3.5,0,6.2-3.2,5.6-6.7
	l-39.1-212.5c-0.5-2.8-3-4.7-5.8-4.6l-66.5,2.2c-0.2,0-0.4,0-0.6,0h0C392,442.9,389.1,445.6,389.2,448.9z"/>
<path class="st4" d="M352.9,813.6L339.7,893c-0.2,1.5-1.6,2.5-3,2.3L316,893c-1.3-0.1-2.3-1.2-2.5-2.5l-8.7-80.2
	c-0.2-1.7,1.2-3.2,3-3.1l42.5,3C352,810.5,353.2,812,352.9,813.6z"/>
<path class="st4" d="M436.7,800.9l10.4,92.1c0.2,2.1,2.1,3.6,4.2,3.5l18.4-1.2c1.9-0.1,3.4-1.6,3.7-3.4l11.7-91.4
	c0.3-2.4-1.6-4.5-3.9-4.4l-40.5,0.5C438.2,796.6,436.4,798.6,436.7,800.9z"/>
<path class="st5" d="M461.1,894.6c6.5-1.8,6.4-6.5,9.1-8.9c1.6-1.5,8.1-2.7,8.9-0.6c9.1,23.7,58.5,40,58.5,40
	c5.1,4.2,5.9,9.7,4.5,15.2l0,0c0,0-44.3,6.5-67.5-6c-4.6-2.5-9.2,2.5-9.2,2.5s-22.6,2.2-20.9-4.6l0.5-43.4
	C447.3,881.5,449.9,897.7,461.1,894.6z"/>
<path class="st3" d="M434.2,402.6c16.2,5.6,23.2,10.3,27.1,17.6c3.2,6,6.1,19.6,6.3,26.5c0.5,16-7.8,56.3-22,69.9
	c-14.5,13.7-84.9,13.7-99.4,0c-14.2-13.4-22.5-53.7-22-69.9c0.3-6.9-0.2-8.6,0.4-15.4c1.4-16.9,16.9-23.2,33-28.7
	c18.5-6.4,37.3-5.4,37.3-5.4S415.6,396.2,434.2,402.6z"/>
<path class="st2" d="M542.7,940.1c1.5-8.9-3.2-14.9-5-14.8c-2.5,0.1-6.7,1.9-9.2,2.2c-4,0.4-15.9-1.4-15.9-1.4
	c-3-0.5-5.8,2.4-6.3,6.7l-0.8,8.6c0,0,7.2,1.5,24.7,0.1C533.1,941.2,542.7,940.1,542.7,940.1z"/>
<path class="st5" d="M326.3,884.8L326.3,884.8c-6.1,0.2-11.5,3.7-14.1,9.2l0,0c-5.8,12.3-30.5,28.9-30.5,28.9
	c-4.4,3.5-6.6,9.1-5.6,14.6l0,0l60.3-0.3l3.4-1c3.9-1.2,6.4-5,6-9l-3.5-30C340.5,889.8,333.8,884.6,326.3,884.8z"/>
<path class="st2" d="M277.8,937.2L277.8,937.2c-0.8-4.9,2.5-9.5,7.4-10.4h0.1l35.9-5.4c4.6-0.7,9,2.2,10.1,6.8l2.1,8.5L277.8,937.2z
	"/>
<ellipse class="st6" cx="327.7" cy="831.7" rx="5.6" ry="9.6"/>
<ellipse class="st6" cx="467.2" cy="817.7" rx="5.6" ry="9.6"/>
<path class="st5" d="M335.4,836h-16c-1.1,0-2-0.9-2-2v-3c0-1.1,0.9-2,2-2h16c1.1,0,2,0.9,2,2v3C337.5,835.1,336.6,836,335.4,836z"/>
<path class="st5" d="M475.3,821.8h-16c-1.1,0-2-0.9-2-2v-3c0-1.1,0.9-2,2-2h16c1.1,0,2,0.9,2,2v3
	C477.4,820.9,476.4,821.8,475.3,821.8z"/>
</svg>
