<?xml version="1.0" encoding="utf-8"?>
<!-- Generator: Adobe Illustrator 26.0.2, SVG Export Plug-In . SVG Version: 6.00 Build 0)  -->
<svg version="1.1" id="Calque_1" xmlns="http://www.w3.org/2000/svg" xmlns:xlink="http://www.w3.org/1999/xlink" x="0px" y="0px"
	 viewBox="0 0 388 581.4" style="enable-background:new 0 0 388 581.4;" xml:space="preserve">
<style type="text/css">
	.st0{fill:#9B8762;}
	.st1{fill:#DDBF9E;}
	.st2{fill:#685D5A;}
	.st3{fill:#B28A81;}
	.st4{fill:none;stroke:#000000;stroke-width:3;stroke-miterlimit:10;}
	.st5{fill:#B1887F;}
	.st6{fill:#A37636;}
	.st7{fill:none;stroke:#B1887F;stroke-width:2;stroke-linecap:round;stroke-miterlimit:10;}
	.st8{fill:none;stroke:#B0877D;stroke-width:2;stroke-linecap:round;stroke-miterlimit:10;}
	.st9{fill:none;stroke:#927C54;stroke-miterlimit:10;}
</style>
<polygon points="28,115.1 28.1,115.1 28,115 "/>
<polygon points="28.1,115.1 28.2,115.1 28.2,115 "/>
<polygon points="28,115.1 28.1,115.1 28,115 "/>
<polygon points="28.1,115.1 28.2,115.1 28.2,115 "/>
<path class="st0" d="M141.7,287.5c3.3,13,15.6,21.6,28.9,20.2l0,0c12.7-1.4,22.7-11.6,23.8-24.4c0,0,4.7-90.7,1.8-122.6
	c-0.7-7.6-5.6-29.9-5.6-29.9L179.2,79c0,0-6.8-24.3-33.4-24.1c-30.6,0.3-29.5,16.6-29.5,16.6s-2.4,80.3,0.7,106.7
	C119.7,202.6,141.7,287.5,141.7,287.5z"/>
<path class="st1" d="M162.9,266.7c-13.8,2-21,10.1-21.7,21.8c0,0,1.6,55.8,3.8,77.4c3.5,34.6,18.3,100,28.4,133.2
	c2.2,7.3,7.7,29.4,7.7,29.4c1.7,6.6,8.2,10.8,14.9,9.6l0,0c6.6-1.1,11.3-7,10.9-13.7c0,0-1.9-26.2-2-34.9
	c-0.4-31.7,3.2-95.2,0.2-126.7c-1.8-19-12.6-76.5-12.6-76.5C188.7,267.5,174.7,265.4,162.9,266.7L162.9,266.7z"/>
<path class="st2" d="M192.8,520.3L192.8,520.3c-6.1,0.1-11.5,3.6-14.2,9.1l0,0c-5.9,12.3-30.7,28.7-30.7,28.7
	c-4.4,3.4-6.6,9.1-5.6,14.6l0,0h60.3l3.4-1c3.9-1.2,6.4-4.9,6.1-8.9l-3.3-30C207.1,525.4,200.4,520.2,192.8,520.3z"/>
<path class="st3" d="M144.1,572.5L144.1,572.5c-0.8-4.9,2.6-9.5,7.5-10.3c0,0,0.1,0,0.1,0l35.9-5.2c4.6-0.6,8.9,2.3,10,6.8l2,8.5
	L144.1,572.5z"/>
<path class="st4" d="M232.1,26.5c16.1,4.6,23.2,8.5,27,14.7c3.1,5,6,16.4,6.3,22c0.5,13.3-7.8,46.9-21.9,58.1
	c-14.4,11.4-84.8,11.4-99.2,0c-14.2-11.2-22.5-44.7-21.9-58.1c0.2-5.7,3.2-17.1,6.3-22c3.8-6.2,10.9-10,27-14.7
	c18.5-5.3,37.3-4.5,37.3-4.5S213.6,21.2,232.1,26.5z"/>
<path class="st1" d="M260.7,282.1c-44.7,5.5-42.5,59.1-42.5,59.1c-3.6,5.3-43.4-66.2-38-66.6c0,0,68.3-8.9,85-14.1
	C277,256.7,287,278.8,260.7,282.1z"/>
<path class="st2" d="M234.4,279.9c3,6,7.5,5,10.4,7.2c1.7,1.3,4.2,7.4,2.3,8.6c-21.1,13.5-27.2,65.2-27.2,65.2
	c-3.1,5.8-8.2,7.7-13.8,7.4l0,0c0,0-14.9-42.2-7.4-67.4c1.5-5-4.2-8.5-4.2-8.5s-6.6-21.8,0.3-21.4l42-8
	C244.4,263.7,229.3,269.5,234.4,279.9z"/>
<path class="st5" d="M197.1,337.3c9-0.3,14-6.1,13.6-7.8c-0.6-2.4-3.2-6.1-4-8.5c-1.2-3.8-1.8-15.9-1.8-15.9
	c-0.1-3.1-3.5-5.2-7.8-4.9l-8.6,0.9c0,0-0.1,7.4,4.7,24.2C194.1,328.1,197.1,337.3,197.1,337.3z"/>
<polygon class="st6" points="114.4,86.9 115.9,64.4 265.5,55.8 264.5,83.7 "/>
<path class="st7" d="M175.8,538.8c0,0,4.8-3.3,8.9-3.3c5.1,0,10,3.2,10,3.2"/>
<path class="st8" d="M230.1,309.4c0,0-2.7-4.8-3.3-8.7"/>
<path class="st8" d="M225.9,315.6c0,0-3-4.6-3.9-8.4"/>
<polygon class="st9" points="192.3,125.4 187.3,85.4 202.3,85.4 201.3,117.7 "/>
<path class="st6" d="M111.6,130.2c0,0,58-10.8,148.5-14.2c69.7-2.6,179.6,34.6,188.9,46.6s15.8,39.1,6.8,44.2
	c-30.3,17.1-83.7,81.2-110.4,93.4c-65.9,30.1-77-15-85.1-11.8c-4.7,1.8-9.1,4.3-13.2,7.3L236.9,263c0,0,7-11.2,18-10.4
	c0.9,0.1,5.4-8.3,19.3-29.1c9.4-14,38.8-11.6,48.9-11.6c0,0-60,32.5-135.6-10.4C147.8,179,111.6,130.2,111.6,130.2z"/>
<path class="st6" d="M119.2,54.9c-1.3,2.3-9.6,71.2-10.5,120.8s-20.7,225.3,5.3,257.5s59.2,65.9,59.2,65.9l4.2,19.7
	c8.6-3.7,29.7-6.4,29.7-6.4l-1.8-15.6c4.6-7.8,29.9-72.8,25.1-105s-16-17.6-23.3-57.5s-4.7-96.4-4.7-96.4c17.5-25,16.1-65.9,24.7-87
	s1.1-99-7-98.4S126,42.6,119.2,54.9z"/>
<path class="st6" d="M119,103c-1.3-2.3-4.6-16.1-4.6-16.1s-0.7-25.7,4.6-39.5s38.8-28.2,83.3-25.4s54.1,12.8,61.6,22.4
	s7.3,80.1,5.3,81.1s-147.4-8.5-150.2-20"/>
</svg>
