<svg xmlns="http://www.w3.org/2000/svg" viewBox="0 0 788 513.97"><defs><style>.cls-1{fill:#d68f72;}.cls-2{fill:#acdafb;}.cls-3{fill:#83b5c6;}.cls-4{fill:#6999aa;}.cls-5{fill:#87b6c7;}.cls-6{fill:#69a;}.cls-7{fill:#54b2f6;}</style></defs><g id="Calque_10" data-name="Calque 10"><path class="cls-1" d="M348.28,48.15C355.21,77.24,392,124,392,124s38-46.59,44.77-75.84"/><path class="cls-2" d="M334.37,273.09c1.21,10.93,8.45,19.2,16.94,19.37h0c8.12.16,15.06-7.14,16.58-17.43,0,0,8.81-73.38,9-99.72.05-6.23-1.58-24.89-1.58-24.89L371.39,107s-2.75-20.49-19.52-23c-19.32-2.9-19.65,10.51-19.65,10.51s-6.18,69.05-6,90.9C326.46,205.51,334.37,273.09,334.37,273.09Z"/><path class="cls-2" d="M472.24,264.94c.76,11-4.87,20.41-13.19,22.1h0c-8,1.61-16.1-4.32-19.44-14.17,0,0-21.83-70.61-26.76-96.48-1.16-6.12-2.91-24.78-2.91-24.78L406,108.16S405,87.51,421.09,82c18.48-6.32,21.22,6.81,21.22,6.81s18.46,66.81,22.17,88.35C467.9,197,472.24,264.94,472.24,264.94Z"/><path class="cls-1" d="M351.25,255.73c-9.22.2-14.6,5.29-16,13.44,0,0-1.46,36.39-1.7,51.71-.38,24.58,2.47,74.71,6.47,98.93.88,5.31,2.76,21.33,2.76,21.33a8.92,8.92,0,0,0,9,8.05h0a8.94,8.94,0,0,0,8.23-8.66s.8-18.54,1.41-24.68c2.22-22.28,9.49-66.56,10-89,.31-13.49-2.3-54.79-2.3-54.79-1-13.57-10-16.25-17.93-16.37Z"/><path class="cls-1" d="M456.44,248.09c9.12-1.34,15.14,2.87,17.66,10.82,0,0,7.51,34.33,9.9,49.68,3.84,24.62,3.37,122,3.37,122,.07,4.9.24,11.39-4.22,11.92h0c-4.39.53-9.78-1.46-10.71-6.15,0,0-22.24-91-25.91-113.39-2.21-13.49-5.46-55.41-5.46-55.41-.91-13.8,7.6-18,15.37-19.45Z"/><path class="cls-1" d="M286.17,0h0"/><path class="cls-3" d="M363.33,415.75l-24.21-2.05c-4.13.1,2.56,21.71.79,25.68h0c-4,8.94-20.83,20.91-20.83,20.91a11.3,11.3,0,0,0-3.79,10.59h0l41.09-.23,2.31-.75a6.18,6.18,0,0,0,4.1-6.5l-2.36-21.7C359.25,436.35,364.91,416.08,363.33,415.75Z"/><path class="cls-4" d="M316.47,470.67h0a6.47,6.47,0,0,1,5.13-7.51L346,459.24a6.14,6.14,0,0,1,6.86,4.9l1.41,6.17Z"/><path class="cls-5" d="M464.61,413.7c4.14-2.31,25.87-10.67,27.39-7,.65,1.57.16,19.84.86,21.51,8.1,19.23,42.79,28.38,42.79,28.38,3.78,3.11,4.8,7.64,4.32,12.47h0s-29.75,11-45.67.45c-3.19-2.1-11.33-2.8-11.33-2.8s-14.52.55-13.92-5.38l1.17-26.72C464.2,415.75,462.52,414.87,464.61,413.7Z"/><path class="cls-6" d="M540.32,469c.23-7.83-3.45-12.54-4.61-12.28-1.69.37-4.32,2.3-6,2.77-2.65.74-10.82.34-10.82.34-2.09-.16-3.7,2.6-3.7,6.36l.2,7.48s5,.6,16.63-2.28C534,470.91,540.32,469,540.32,469Z"/><rect class="cls-7" x="335.04" y="25.6" width="115.32" height="23.41"/><path class="cls-7" d="M282,335.07l51.45,47.77,29.28,2.27,24.71-12.9,14.39-79.75,34.42,82.74,31.22,20.5s5,3,22.82-17.22c26.34-29.79,36.08-46.21,36.08-46.21L450.76,54.33l-2.05-11.71L334,44.21Z"/><polygon class="cls-7" points="332.72 378.88 367.91 377.21 363.33 409.71 337.16 405.17 332.72 378.88"/><path class="cls-7" d="M456.09,373.3l32.13-13.46c1.26-1.86.31,38.71.31,38.71L465,405.17Z"/></g></svg>