<svg xmlns="http://www.w3.org/2000/svg" xmlns:xlink="http://www.w3.org/1999/xlink" viewBox="0 0 788 513.97"><defs><style>.cls-1,.cls-12,.cls-9{fill:none;}.cls-2{clip-path:url(#clip-path);}.cls-3{fill:#decf90;}.cls-4{clip-path:url(#clip-path-2);}.cls-5{fill:#d4c06d;}.cls-6{fill:#d68f72;}.cls-7{fill:#83b5c6;}.cls-8{fill:#6999aa;}.cls-9{stroke:#69a;}.cls-12,.cls-9{stroke-linecap:round;stroke-miterlimit:10;stroke-width:2px;}.cls-10{fill:#87b6c7;}.cls-11{fill:#69a;}.cls-12{stroke:#6399aa;}</style><clipPath id="clip-path"><rect class="cls-1" x="335.63" y="17.35" width="58.75" height="128.31"/></clipPath><clipPath id="clip-path-2"><rect class="cls-1" x="394.37" y="17.35" width="58.75" height="128.31"/></clipPath></defs><g id="Calque_10" data-name="Calque 10"><g id="random" data-name="&lt;Repetition miroir&gt;"><g class="cls-2"><path class="cls-3" d="M426.4,22.59c13.23,5.37,19,9.9,22.14,17,2.55,5.78,4.95,34.36,5.14,41,.44,15.5-25.89,46.8-37.48,59.8-11.79,13.23-6.53-2.85-22.63-.85-18.16,2.25-58.38-40.89-57.94-56.4.19-6.6,3.52-37.73,6.07-43.51,3.14-7.14,8.91-11.67,22.14-17a77.88,77.88,0,0,1,30.53-5.18S411.27,16.44,426.4,22.59Z"/></g></g><g id="random2" data-name="&lt;Repetition miroir&gt;"><g class="cls-4"><path class="cls-3" d="M362.35,22.59c-13.23,5.37-19,9.9-22.14,17-2.55,5.78-4.95,34.36-5.14,41-.44,15.5,25.89,46.8,37.48,59.8,11.79,13.23,6.52-2.85,22.63-.85,18.16,2.25,58.38-40.89,57.94-56.4-.19-6.6-3.52-37.73-6.07-43.51-3.14-7.14-8.91-11.67-22.14-17a77.88,77.88,0,0,0-30.53-5.18S377.48,16.44,362.35,22.59Z"/></g></g><path class="cls-5" d="M340.37,273.09c1.21,10.93,8.45,19.2,16.94,19.37h0c8.12.16,15.06-7.14,16.58-17.43,0,0,8.81-73.38,9-99.72.05-6.23-1.58-24.89-1.58-24.89L377.39,107s-2.75-20.49-19.52-23c-19.32-2.9-19.65,10.51-19.65,10.51s-6.18,69.05-6,90.9C332.46,205.51,340.37,273.09,340.37,273.09Z"/><path class="cls-5" d="M472.49,266.08c.46,11-5.43,20.26-13.8,21.72h0c-8,1.39-16-4.77-19-14.71,0,0-19.87-71.19-24.08-97.18-1-6.15-2.22-24.85-2.22-24.85l-2.72-43.54s-.39-20.67,15.8-25.71c18.65-5.8,21,7.4,21,7.4s16.6,67.3,19.71,88.94C470,198.08,472.49,266.08,472.49,266.08Z"/><path class="cls-6" d="M357.25,255.73c-9.22.2-14.6,5.29-16,13.44,0,0-1.46,36.39-1.7,51.71-.38,24.58,2.47,74.71,6.47,98.93.88,5.31,2.76,21.33,2.76,21.33a8.92,8.92,0,0,0,9,8.05h0a8.94,8.94,0,0,0,8.23-8.66s.8-18.54,1.41-24.68c2.22-22.28,9.49-66.56,10-89,.31-13.49-2.3-54.79-2.3-54.79-1-13.57-10-16.25-17.93-16.37Z"/><path class="cls-6" d="M457.17,248.79c9.14-1.08,15.05,3.29,17.34,11.31,0,0,6.56,34.52,8.53,49.93,3.16,24.72,0,122,0,122-.07,4.9-.07,11.39-4.55,11.8h0c-4.4.4-9.73-1.73-10.53-6.45,0,0-19.71-91.55-22.76-114.06-1.84-13.55-3.92-55.55-3.92-55.55-.53-13.81,8.1-17.78,15.91-19Z"/><path class="cls-7" d="M357.53,432.74h0a10.91,10.91,0,0,0-9.62,6.64h0c-4,8.94-20.83,20.91-20.83,20.91a11.3,11.3,0,0,0-3.79,10.59h0l41.09-.23,2.31-.75a6.18,6.18,0,0,0,4.1-6.5l-2.36-21.7A11.07,11.07,0,0,0,357.53,432.74Z"/><path class="cls-8" d="M324.47,470.67h0a6.47,6.47,0,0,1,5.13-7.51L354,459.24a6.14,6.14,0,0,1,6.86,4.9l1.41,6.17Z"/><path class="cls-9" d="M348.87,441.33s3.17-2.53,6-2.6a13.87,13.87,0,0,1,6.84,2.06"/><path class="cls-9" d="M346,446.22s3.23-2.44,6.07-2.43a14.09,14.09,0,0,1,6.79,2.25"/><path class="cls-3" d="M337.32,67.43,326,203a139.56,139.56,0,0,0,57.41,124.73L509.84,419,451.17,67.43"/><path class="cls-10" d="M477,439.34c4.29-2,3.92-6,5.61-8.27,1-1.37,5.29-2.91,5.94-1.22,7.57,19.45,42,29.56,42,29.56,3.69,3.21,4.58,7.77,4,12.58h0s-30,10.13-45.66-.81c-3.14-2.19-11.25-3.12-11.25-3.12s-14.53.15-13.77-5.76l1.92-26.68C466.84,429.19,469.64,442.77,477,439.34Z"/><path class="cls-11" d="M534.88,471.93c.45-7.82-3.09-12.62-4.27-12.4-1.69.32-4.38,2.18-6.05,2.6-2.68.67-10.83,0-10.83,0-2.09-.22-3.77,2.5-3.88,6.25v7.49s5,.74,16.69-1.81C528.47,473.67,534.88,471.93,534.88,471.93Z"/><path class="cls-12" d="M493.16,440a17.88,17.88,0,0,1-6.09,2"/><path class="cls-12" d="M497.07,444.2a18.49,18.49,0,0,1-6,2.52"/></g></svg>