<svg xmlns="http://www.w3.org/2000/svg" viewBox="0 0 788 354.46"><defs><style>.cls-1{fill:#d68f72;}.cls-2{fill:#bf673c;}.cls-3{fill:#9baa5e;}.cls-4{fill:#3a1d20;}.cls-5{fill:#4e6566;}</style></defs><g id="Calque_10" data-name="Calque 10"><path class="cls-1" d="M394,164.18c-5.48-3.58-8-.63-13.73,2.52-9.75,5.34-15.83,23.72-26.67,26.21-3.85.88-12.68-15.07-13.71-21.32-1.53-9.32,2.52-27.51-8.39-36.85-9.24-7.91-21.45-3.69-25.46-16.3-7-22,13.45-38.49,23.4-42.34C344.61,70.22,366.58,71,373,61.87l.94-27.71L374.59,14l18.32-.81h2.18l18.32.81.69,20.18L415,61.87c6.38,9.13,28.35,8.35,43.52,14.23C468.51,80,489,96.47,482,118.44c-4,12.61-16.22,8.39-25.46,16.3-10.91,9.34-6.86,27.53-8.39,36.85-1,6.25-9.86,22.2-13.71,21.32-10.84-2.49-16.92-20.87-26.67-26.21-5.74-3.15-8.25-6.1-13.73-2.52"/><path class="cls-2" d="M373.51,62.18s31.77,11.4,41.17-10.81L413.41,14H374.59Z"/><path class="cls-1" d="M350.41,92.33c.21,19.81-12.47,25.35-19,32.41-10.29,11.21-20.73,39.5-28.47,52.2-3.64,6-14.53,18.68-24.52,13.58h0c-12.55-7.12-5.81-23.26-2.89-29.32,5.95-12.34,25.54-66,38.76-77.1,0,0,12.85-12,25-8,7.81,2.61,11,8,11.08,16.19Z"/><path class="cls-1" d="M274.72,173.48c5.16-10.45,15.63-6.67,24.24-2.11,6.13,3.24,62.74,41,78.25,51.1,8.76,5.69,13.56,8.47,11,14.22-2.34,5.22-12.52,2.43-16.52,1.38C334,228.16,306,218.7,283.27,199.16,268.34,186.33,273,177.06,274.72,173.48Z"/><path class="cls-1" d="M438,88.9c-8.39,17.95.86,28.24,3.84,37.36,4.73,14.46,2.54,44.53,4.32,59.29.85,7,5.51,23,16.7,22.52h0c14.38-1.3,14.92-18.78,14.77-25.51-.31-13.68,4.05-70.61-3.38-86.22,0,0-6.72-16.27-19.47-17.59C446.6,77.9,441.46,81.51,438,88.9Z"/><path class="cls-1" d="M459.25,208.08c10.64,3.53,15.78-6.16,19.06-15.1,2.34-6.37,18.73-70.44,23.41-87.81,2.64-9.8,4.31-15-1.35-17.07-5.16-1.93-10.74,6.89-13,10.33-20.93,32.35-35.11,57.81-38.83,86.5C446.13,203.76,455.6,206.87,459.25,208.08Z"/><path class="cls-1" d="M505.41,58.75a82.33,82.33,0,0,0,9.77-12.87s2.3,4.38,2,7c-.28,2.14-5.49,11.22-5.49,11.22h0C536.91,50,557.06,42.89,560,42.17c2.09-.52,8,2.3,8,2.3S544,58.72,537.55,63.14c-21.95,15-27.23,23-34,36.3-1.19,2.33-15.07-.2-13-5.29.73-1.79-.46-12,1.29-14.73C498.85,68.59,505.14,59,505.41,58.75Z"/><path class="cls-3" d="M350.66,69.55c7.88,4.26,44.22,41.25,44.22,41.25l43.26-41.25L456.6,73.2s-7.89,101.94-8,111.73,1.6,63.16,1.6,63.16H334.85L331.5,134.74l-2.17-61.87Z"/><rect class="cls-4" x="334.85" y="224.68" width="115.32" height="23.41"/><rect class="cls-5" x="334.85" y="224.68" width="115.32" height="23.41"/></g></svg>