<svg xmlns="http://www.w3.org/2000/svg" viewBox="0 0 788 354.46"><defs><style>.cls-1{fill:#d68f72;}.cls-2{fill:#bf673c;}.cls-3{fill:#4e6566;}</style></defs><g id="Calque_10" data-name="Calque 10"><path class="cls-1" d="M393,167c-5.48-3.57-8-.62-13.73,2.52-9.75,5.34-15.83,23.72-26.67,26.21-3.85.89-12.68-15.06-13.71-21.32-1.53-9.32,2.52-27.51-8.39-36.85-9.24-7.91-21.45-3.68-25.46-16.29-7-22,13.45-38.49,23.4-42.35,15.17-5.88,37.14-5.09,43.52-14.23L372.9,37l.69-20.19L391.91,16h2.18l18.32.81L413.1,37l.94,27.7c6.38,9.14,28.35,8.35,43.52,14.23C467.51,82.8,488,99.31,481,121.29c-4,12.61-16.22,8.38-25.46,16.29-10.91,9.34-6.86,27.53-8.39,36.85-1,6.26-9.86,22.21-13.71,21.32-10.84-2.49-16.92-20.87-26.67-26.21C401,166.4,398.48,163.45,393,167"/><path class="cls-2" d="M372.51,65s31.77,11.39,41.17-10.81l-1.27-37.4H373.59Z"/><path class="cls-1" d="M354.82,101.88c-17.5,22.72-64.1,60.86-76.1,71.35-5.66,5-20.62,14.31-28.08,5.43h0c-9.1-11.92.35-24,5.35-29.34,10.18-10.74,32.79-30.28,41.1-42.56,6.19-9.15,10.4-19.44,27-26.34,0,0,16.55-8,26.43.62,6.34,5.51,7.31,12.29,4.34,20.84Z"/><path class="cls-1" d="M259.44,174.65c14.87,2.34,17-9.08,18.73-15.12,1.9-6.52,6-72.65,7.5-90.57.87-10.12,1.6-15.48-4.35-16.56-5.41-1-9.74,8.54-10.93,12.46-11.43,37.65-14.42,46.38-22.91,92C244,175.53,255.63,174.05,259.44,174.65Z"/><path class="cls-1" d="M284.57,70.14s11.09-5.35,12.52-7,8.39-10.19,9.76-11.26,11.19-5.74,10.39-6.76c-.32-.41-1.08-1.21-1.88-2a5.59,5.59,0,0,0-5.82-1.39l-2.53.86a13.47,13.47,0,0,0-5,3.06l-5.52,5.31,2.29-16.39,6.81-19.75a3.17,3.17,0,0,0-1.4-3.78h0a3.19,3.19,0,0,0-4.56,1.56l-8.45,21.05,3.15-26a3.52,3.52,0,0,0-3.08-3.92h0a3.53,3.53,0,0,0-3.92,3.07l-3.37,27.84L282.53,7.79a3.49,3.49,0,0,0-3.85-3.29h0A3.48,3.48,0,0,0,275.57,8l.5,25.27-4.46-15.92a3.4,3.4,0,0,0-4.53-2.23h0A3.39,3.39,0,0,0,265,18.85L267.91,37l-1.43,24.72,2.88,6.63Z"/><path class="cls-1" d="M436.69,97.66c1.65,19.74,14.8,24.07,21.92,30.49,11.29,10.2,24.34,37.38,33.24,49.3,4.19,5.61,16.22,17.23,25.68,11.22h0c11.83-8.27,3.61-23.7.13-29.47-7.08-11.72-31.61-63.27-45.82-73.11,0,0-13.92-10.78-25.64-5.59-7.53,3.34-10.19,9-9.51,17.16Z"/><path class="cls-1" d="M517.43,165.62c-9.66-5.68-16.72,2.71-21.81,10.76-3.62,5.74-33.09,65-41.32,80.94-4.64,9-7.35,13.72-2.26,17,4.63,3,13.8-5,16.36-8.21,26.94-33.7,45-48.32,54.61-75.59C529.35,172.6,520.75,167.58,517.43,165.62Z"/><path class="cls-3" d="M284.42,85.45s-19-4.36-21,2.38S242.06,175,242.06,175s16,17.49,21.18,15.39,58.89-54.9,62.43-52.47,14,58.11,14.29,61.51,2.59,34.11,2.59,34.11h99.69s.67-37.42.84-40.23,15.68-62.36,18.72-58.55,30.78,47.2,30.78,47.2L461,240.71l19.17,14.11,42.13-49.25,7.6-26.26L475,84.06l-24.71-9.4L411.13,64.28s-13.31,17.36-42.08,0h0L317.28,79.09l-35.37,41.37,2.51-35"/><path class="cls-3" d="M334.85,236.39h0c0-6.47,6.92-13.4,6.06-24.92H442.65c-.22,11.52,7.52,18.45,7.52,24.92h0a11.7,11.7,0,0,1-11.7,11.7H346.56A11.7,11.7,0,0,1,334.85,236.39Z"/><path class="cls-1" d="M400.39,251.52l14.18-6.73,24.69-2.61,15.9,16.14,8.34-3s4.74,10.76,2.45,12.81c-3.5,3.14-7.8,6.91-11.05,6.82-5.24-.15-18.29-10.25-18.29-10.25l-11,3.52s-8.27,5.55-8.75,5.75c-4.21,1.68-15.13-7.74-15.13-7.74l10.86-10.57,10-5.88-7,1.1s-7.63,3.88-8.36,3.84C405.68,254.66,400.39,251.52,400.39,251.52Z"/></g></svg>