<svg xmlns="http://www.w3.org/2000/svg" viewBox="0 0 788 354.46"><defs><style>.cls-1{fill:#d68f72;}.cls-2{fill:#bf673c;}.cls-3{fill:#decf90;}.cls-4{fill:#b5aa79;}</style></defs><g id="Calque_10" data-name="Calque 10"><path class="cls-1" d="M393,167c-5.48-3.57-8-.62-13.73,2.52-9.75,5.34-15.83,23.72-26.67,26.21-3.85.89-12.68-15.06-13.71-21.32-1.53-9.32,2.52-27.51-8.39-36.85-9.24-7.91-21.45-3.68-25.46-16.29-7-22,17.26-35.8,27.21-39.65,15.17-5.88,33.33-7.79,39.71-16.93L372.9,37l.69-20.19L391.91,16h2.18l18.32.81L413.1,37l.94,27.7c6.38,9.14,28.35,8.35,43.52,14.23C467.51,82.8,488,99.31,481,121.29c-4,12.61-16.22,8.38-25.46,16.29-10.91,9.34-19.25,27.09-20.78,36.42-1,6.25-13.33,15.25-17.18,14.36-10.84-2.49-1.06-13.48-10.81-18.82C401,166.4,398.48,163.45,393,167"/><path class="cls-2" d="M371.88,65s32.38,10.58,41.78-11.63L412.5,16,373,16.82Z"/><path class="cls-1" d="M357.38,100.42c-4.3,21.54-18,24.69-25.91,30.89-12.62,9.84-29.26,38.17-39.71,50.2-4.93,5.67-18.47,17-27.07,9.21l-3.84-2.5c-10.65-10.56.89-21.37,5.12-27.29,8.62-12,28.34-34.48,34.89-47.78,4.89-9.91,9.84-18.14,25.31-27.24,0,0,16.9-9.5,27.86-2.35,7,4.6,5.13,8,3.35,16.86Z"/><path class="cls-1" d="M282.54,189c9.87-13.63,1-17.16-.77-23.21-5.28-18.51-46.59-56.06-58-69.93C217.26,88,214,83.68,209,87.08c-4.55,3.08-.6,12.74.92,16.55,3.34,8.4,44.22,75.79,48,81.74C265.94,197.76,279.59,193.08,282.54,189Z"/><path class="cls-1" d="M187.54,55.71l-1.08,2.66a6.82,6.82,0,0,0,.41,6,17.47,17.47,0,0,0,1.25,1.91c1.21,1.58,3.12,4.77,3.12,4.77L195,78.68c-5.48.85-7.54,2-14.1,2.47-5.05.39-16.44-2.57-21.24-4.67-2.62-1.15-6.88-5.88-9.65-6.29-2-.28-7.12,2.84-7.12,2.84L154,83.28s19.56,9.8,26.31,12.41c7.21,2.8,22.3,6.84,29.83,7,2.43,0,7.21.06,9.94-4.23,2.36-3.69.42-8-1-10.59C216.91,83.78,187.9,55.82,187.54,55.71Z"/><path class="cls-1" d="M433.05,102c4.3,21.53,18,24.69,25.91,30.89,12.62,9.84,29.26,38.16,39.71,50.2,4.93,5.67,18.47,17,27.07,9.21h0c10.65-10.56,3-23.87-1.28-29.79-8.62-12-28.34-34.49-34.89-47.79-4.89-9.9-7.65-20.68-23.11-29.77,0,0-15.3-10.16-26.26-3-7,4.6-8.93,11.19-7.15,20.06Z"/><polyline class="cls-3" points="458.96 315.15 442.07 187.84 458.96 132.84 496.15 120.82 477.07 86.27 390.09 97.88 311.38 82.23 286.17 114.77 327.58 137.15 339.52 199.17 336.35 299.97"/><path class="cls-4" d="M327.59,137.15c5.55-1.1,61.58,6.9,65.57,8.23S459,132.84,459,132.84l-6.6,21.49L394,164.69l-61.75-9.09-4.66-18.45"/><path class="cls-1" d="M526.45,182.2c-3.9-14.54-15.19-11.82-21.43-11-6.72.91-68.8,24.07-85.8,29.94-9.6,3.32-14.79,4.84-13.37,10.71,1.31,5.34,11.74,5,15.83,4.92,38.52-.84,67.55-3.41,93.38-16.45C532,191.8,527.45,185.92,526.45,182.2Z"/><path class="cls-1" d="M379.39,201.38c-7.6,4.14-19.14,9.26-19.14,9.26s5.85,4.62,8.28,4.9c2,.23,10.47-4,10.47-4l15.1,2.61c-3.2,4.53-10.84,6.8-15,11.86-3.23,3.9-13.27,10-18.12,12-2.64,1.08-9,.86-11.23,2.57-1.57,1.22-2.9,7.09-2.9,7.09l15.09-.87s20.64-7.26,27.21-10.3c7-3.24,20.41-11.28,25.75-16.6,1.72-1.71,5.05-5.13,3.87-10.08-1-4.26-5.44-5.83-8.31-6.66C406,202,379.72,201.2,379.39,201.38Z"/></g></svg>