<?xml version="1.0" encoding="utf-8"?>
<!-- Generator: Adobe Illustrator 26.0.1, SVG Export Plug-In . SVG Version: 6.00 Build 0)  -->
<svg version="1.1" id="Calque_1" xmlns="http://www.w3.org/2000/svg" xmlns:xlink="http://www.w3.org/1999/xlink" x="0px" y="0px"
	 viewBox="0 0 201.4 258.6" style="enable-background:new 0 0 201.4 258.6;" xml:space="preserve">
<style type="text/css">
	.st0{fill:#5E5E5E;}
	.st1{clip-path:url(#SVGID_00000020386612375379373550000018101318410585610651_);}
	.st2{fill:#B9785C;}
	.st3{clip-path:url(#SVGID_00000168811597828276884470000006643778328241518251_);}
	.st4{clip-path:url(#SVGID_00000135669854310328326920000013280500242643090580_);}
	.st5{fill:#99533D;}
	.st6{clip-path:url(#SVGID_00000091695832431504530750000003804382071060809351_);}
	.st7{clip-path:url(#SVGID_00000048479927358231981710000012832159086167788991_);}
	.st8{fill:#573623;}
	.st9{clip-path:url(#SVGID_00000182500631515897440340000016921067898841556397_);}
	.st10{clip-path:url(#SVGID_00000148630213408842114030000007632912615792906128_);}
	.st11{fill:#FFFFFF;}
	.st12{clip-path:url(#SVGID_00000101085327408868849990000006260800138896726145_);}
	.st13{clip-path:url(#SVGID_00000003822428744866241970000004982122497939657610_);}
	.st14{fill:#090909;}
	.st15{clip-path:url(#SVGID_00000062150964139002526200000009998899447670320062_);}
	.st16{fill:none;stroke:#573623;stroke-width:2;stroke-linecap:round;stroke-miterlimit:10;}
	.st17{fill:#D68F72;}
	.st18{fill:#C98841;}
	.st19{fill:#AD6542;}
	.st20{fill:#28211A;}
	.st21{fill:#493C2F;}
</style>
<path class="st0" d="M71.6,186.6c0,0,0,3.2,0,2.1v-0.2C71.6,187.9,71.6,187.2,71.6,186.6z"/>
<path class="st0" d="M71.6,186.6c0,0,0,3.2,0,2.1v-0.2C71.6,187.9,71.6,187.2,71.6,186.6z"/>
<path class="st0" d="M71.6,186.6c0,0,0,3.2,0,2.1v-0.2C71.6,187.9,71.6,187.2,71.6,186.6z"/>
<path class="st0" d="M71.6,186.6c0,0,0,3.2,0,2.1v-0.2C71.6,187.9,71.6,187.2,71.6,186.6z"/>
<path class="st0" d="M71.6,186.6c0,0,0,3.2,0,2.1v-0.2C71.6,187.9,71.6,187.2,71.6,186.6z"/>
<path class="st0" d="M71.6,186.6c0,0,0,3.2,0,2.1v-0.2C71.6,187.9,71.6,187.2,71.6,186.6z"/>
<g id="_Répétition_miroir_">
	<g>
		<g>
			<defs>
				<polygon id="SVGID_1_" points="164.2,151.9 164.2,151.9 201.4,151.9 201.4,216.6 164.2,216.6 				"/>
			</defs>
			<clipPath id="SVGID_00000139294493158081561000000004843176497190703784_">
				<use xlink:href="#SVGID_1_"  style="overflow:visible;"/>
			</clipPath>
			<g style="clip-path:url(#SVGID_00000139294493158081561000000004843176497190703784_);">
				<path class="st2" d="M164.2,212.4l8.1-49c0,0,12.8-17.9,25.7-9c8.6,5.9-0.8,56.6-9.9,60C172.4,220.3,164.2,212.4,164.2,212.4z"
					/>
			</g>
		</g>
	</g>
</g>
<g id="_Répétition_miroir_2">
	<g>
		<g>
			<defs>
				<polygon id="SVGID_00000061467086066268237230000000492044069338914185_" points="37.2,151.9 37.2,151.9 0,151.9 0,216.6 
					37.2,216.6 				"/>
			</defs>
			<clipPath id="SVGID_00000091705743416740328010000018063190543167766442_">
				<use xlink:href="#SVGID_00000061467086066268237230000000492044069338914185_"  style="overflow:visible;"/>
			</clipPath>
			<g style="clip-path:url(#SVGID_00000091705743416740328010000018063190543167766442_);">
				<path class="st2" d="M37.2,212.4l-8.1-49c0,0-12.8-17.9-25.7-9c-8.6,5.9,0.8,56.6,9.9,60C29,220.3,37.2,212.4,37.2,212.4z"/>
			</g>
		</g>
	</g>
</g>
<g id="_Répétition_miroir_3">
	<g>
		<g>
			<defs>
				<polygon id="SVGID_00000094602651834633490360000006814345852726742682_" points="175.1,160.3 175.1,160.3 197.1,160.3 
					197.1,187 175.1,187 				"/>
			</defs>
			<clipPath id="SVGID_00000029023135541703244040000004797630089889674146_">
				<use xlink:href="#SVGID_00000094602651834633490360000006814345852726742682_"  style="overflow:visible;"/>
			</clipPath>
			<g style="clip-path:url(#SVGID_00000029023135541703244040000004797630089889674146_);">
				<path class="st5" d="M175.7,175.9c0-0.5,1.4-3.1,10.2-10.2c3-2.5,6.5-4.3,10.2-5.4c0.9,1,1.2,2.3,0.9,3.6
					c-0.2,1.6-8,5.6-10.4,7.7c-3.6,3.2-11.5,15-11.5,15.4L175.7,175.9z"/>
			</g>
		</g>
	</g>
</g>
<g id="_Répétition_miroir_4">
	<g>
		<g>
			<defs>
				<polygon id="SVGID_00000134219909040945139790000017540937907855830185_" points="26.3,160.3 26.3,160.3 4.3,160.3 4.3,187 
					26.3,187 				"/>
			</defs>
			<clipPath id="SVGID_00000183225775104917778500000011308590069429883820_">
				<use xlink:href="#SVGID_00000134219909040945139790000017540937907855830185_"  style="overflow:visible;"/>
			</clipPath>
			<g style="clip-path:url(#SVGID_00000183225775104917778500000011308590069429883820_);">
				<path class="st5" d="M25.7,175.9c0-0.5-1.4-3.1-10.2-10.2c-3-2.5-6.5-4.3-10.2-5.4c-0.9,1-1.2,2.3-0.9,3.6
					c0.2,1.6,8,5.6,10.4,7.7c3.6,3.2,11.5,15,11.5,15.4L25.7,175.9z"/>
			</g>
		</g>
	</g>
</g>
<g>
	<g>
		<defs>
			<polygon id="SVGID_00000088127170453378672190000006049558350294517127_" points="122.6,125.5 122.6,125.5 167.6,125.5 
				167.6,139.2 122.6,139.2 			"/>
		</defs>
		<clipPath id="SVGID_00000126318274555138336160000015279472153030590132_">
			<use xlink:href="#SVGID_00000088127170453378672190000006049558350294517127_"  style="overflow:visible;"/>
		</clipPath>
		<g style="clip-path:url(#SVGID_00000126318274555138336160000015279472153030590132_);">
			<path class="st8" d="M165.4,139.2c-0.3,0-0.6-0.1-0.8-0.2c-4.5-1.9-9.1-3.4-13.8-4.5c-15.1-3.4-16.1-1-21.3,0
				c-1.5,0.3-5.2-0.6-6-1.5s-1.4-4.1-0.5-4.9c0.4-0.3,7.1-4.9,24.4-1c7.2,1.6,18.6,7.9,18.9,8c1.1,0.5,1.6,1.7,1.1,2.8
				C167.1,138.7,166.3,139.3,165.4,139.2L165.4,139.2z"/>
		</g>
	</g>
</g>
<g>
	<g>
		<defs>
			<polygon id="SVGID_00000004521510687148269440000017553554612319007915_" points="78.8,125.5 78.8,125.5 33.8,125.5 33.8,139.2 
				78.8,139.2 			"/>
		</defs>
		<clipPath id="SVGID_00000127029689389322313180000009533496426098734997_">
			<use xlink:href="#SVGID_00000004521510687148269440000017553554612319007915_"  style="overflow:visible;"/>
		</clipPath>
		<g style="clip-path:url(#SVGID_00000127029689389322313180000009533496426098734997_);">
			<path class="st8" d="M36,139.2c0.3,0,0.6-0.1,0.8-0.2c4.5-1.9,9.1-3.4,13.8-4.5c15.1-3.4,16.1-1,21.3,0c1.5,0.3,5.2-0.6,6-1.5
				s1.4-4.1,0.5-4.9c-0.4-0.3-7.1-4.9-24.5-1c-7.2,1.6-18.5,7.9-18.9,8c-1.1,0.5-1.6,1.7-1.1,2.8C34.3,138.7,35.1,139.3,36,139.2
				L36,139.2z"/>
		</g>
	</g>
</g>
<g>
	<g>
		<defs>
			<polygon id="SVGID_00000113355434045508344450000008694547337014942129_" points="132.2,152.6 132.2,152.6 161.2,152.6 
				161.2,180.5 132.2,180.5 			"/>
		</defs>
		<clipPath id="SVGID_00000052809706934771869390000018387508081832309940_">
			<use xlink:href="#SVGID_00000113355434045508344450000008694547337014942129_"  style="overflow:visible;"/>
		</clipPath>
		<g style="clip-path:url(#SVGID_00000052809706934771869390000018387508081832309940_);">
			<ellipse class="st11" cx="146.7" cy="166.6" rx="14.5" ry="13.9"/>
		</g>
	</g>
</g>
<g>
	<g>
		<defs>
			<polygon id="SVGID_00000064323313501338595780000010812354553944444813_" points="69.2,152.6 69.2,152.6 40.2,152.6 40.2,180.5 
				69.2,180.5 			"/>
		</defs>
		<clipPath id="SVGID_00000134247083798151660330000007893915705271886210_">
			<use xlink:href="#SVGID_00000064323313501338595780000010812354553944444813_"  style="overflow:visible;"/>
		</clipPath>
		<g style="clip-path:url(#SVGID_00000134247083798151660330000007893915705271886210_);">
			<ellipse class="st11" cx="54.7" cy="166.6" rx="14.5" ry="13.9"/>
		</g>
	</g>
</g>
<g>
	<g>
		<defs>
			<polygon id="SVGID_00000151525915644064966730000009435931691997454522_" points="136.9,158.9 136.9,158.9 156.3,158.9 
				156.3,178.3 136.9,178.3 			"/>
		</defs>
		<clipPath id="SVGID_00000037691053352130927550000009184560233093155223_">
			<use xlink:href="#SVGID_00000151525915644064966730000009435931691997454522_"  style="overflow:visible;"/>
		</clipPath>
		<g style="clip-path:url(#SVGID_00000037691053352130927550000009184560233093155223_);">
			<circle class="st14" cx="146.6" cy="168.6" r="9.7"/>
		</g>
	</g>
</g>
<g>
	<g>
		<defs>
			<polygon id="SVGID_00000085952438548687766200000000745173237507896978_" points="64.5,158.9 64.5,158.9 45.1,158.9 45.1,178.3 
				64.5,178.3 			"/>
		</defs>
		<clipPath id="SVGID_00000174567603957961125240000007508295066005048219_">
			<use xlink:href="#SVGID_00000085952438548687766200000000745173237507896978_"  style="overflow:visible;"/>
		</clipPath>
		<g style="clip-path:url(#SVGID_00000174567603957961125240000007508295066005048219_);">
			<circle class="st14" cx="54.8" cy="168.6" r="9.7"/>
		</g>
	</g>
</g>
<path class="st16" d="M87.2,202.9c0,0,10.4,2.6,13.5,2.6s13.5-3.3,13.5-3.3"/>
<path class="st16" d="M72.4,215.8c1.5,1,3.1,1.7,4.8,2.3c4.4,1.6,12,3.4,23.5,3.2c10.4-0.2,17.5-1.9,22-3.7c2.3-0.8,4.4-1.9,6.4-3.4
	"/>
<path class="st17" d="M173.5,234c-0.2,0.4-4.5,5-7,5.8c-15.9,9.2-49.5,15.1-63.4,18.5c-0.7,0.2-1.4,0.3-2.1,0.3c-0.1,0-0.3,0-0.4,0
	s-0.3,0-0.4,0c-0.7,0-1.4-0.1-2.1-0.3C81.5,254.1,37,246.7,27.7,234c-15.9-22-1.2-44.1-3.1-57c-0.9-6.3-1.6-15.9-2.1-25.2
	c-0.8-14.7-1.1-28.8-1.1-28.8c0-45.5,31.5-74.9,76.5-75.8l0,0h5.3l0,0c45,0.9,76.5,30.3,76.5,75.8c0,0-0.3,13.6-1.1,28
	c-0.5,9.6-1.2,19.6-2.1,26.1C174.8,189.9,189.5,212,173.5,234z"/>
<path class="st18" d="M92.2,71.6C64.8,60,53,20.9,82.6,23.1c7.9,0.6-24,14,43.4,25.9c24,4.3,29.7,16.5,29.7,16.5
	S107.5,78.1,92.2,71.6z"/>
<path class="st5" d="M89.2,194.2c-1,0.1-1.4,0.7-0.6,1c3,1.2,8.7,3.4,12.5,3.4c3.6,0,9-2.1,11.8-3.3c0.8-0.3,0.4-1-0.6-1
	c-3.4-0.2-4.8,0.6-11.6,0.6C94.8,194.9,92.6,194,89.2,194.2z"/>
<path class="st19" d="M178.8,101.1c0,0-0.3,13.6-1.1,28c-10.1,7.1-36.3-19.8-77.7-19.8c-39.4,0-66.4,24.4-78.4,20.6
	c-0.8-14.7-1.1-28.8-1.1-28.8C20.5,55.6,52,26.2,97,25.3l0,0h5.3l0,0C147.4,26.3,178.8,55.6,178.8,101.1z"/>
<path class="st20" d="M197.1,81.8c0,45.5-44.1,23.6-98.5,23.6S0.1,127.3,0.1,81.8s44.1-66,98.5-66S197.1,36.3,197.1,81.8z"/>
<path class="st21" d="M197.1,81.8c0,45.5-44.1,0-98.5,0s-98.5,45.5-98.5,0S44.2,0,98.6,0S197.1,36.3,197.1,81.8z"/>
</svg>
