<?xml version="1.0" encoding="utf-8"?>
<!-- Generator: Adobe Illustrator 26.0.1, SVG Export Plug-In . SVG Version: 6.00 Build 0)  -->
<svg version="1.1" id="Calque_1" xmlns="http://www.w3.org/2000/svg" xmlns:xlink="http://www.w3.org/1999/xlink" x="0px" y="0px"
	 viewBox="0 0 201.4 235.6" style="enable-background:new 0 0 201.4 235.6;" xml:space="preserve">
<style type="text/css">
	.st0{fill:#5E5E5E;}
	.st1{clip-path:url(#SVGID_00000115498183595251670700000007753385309744593545_);}
	.st2{fill:#B9785C;}
	.st3{clip-path:url(#SVGID_00000067924539984597133520000008909453571955098520_);}
	.st4{clip-path:url(#SVGID_00000127045159482953385820000012418983906020697260_);}
	.st5{fill:#99533D;}
	.st6{clip-path:url(#SVGID_00000003785926587450625990000014886884735012955794_);}
	.st7{clip-path:url(#SVGID_00000121969638480420075370000017040592980825939842_);}
	.st8{fill:#573623;}
	.st9{clip-path:url(#SVGID_00000065783823882105239490000011010129985953698191_);}
	.st10{clip-path:url(#SVGID_00000087383211267427325860000016154247723074192060_);}
	.st11{fill:#FFFFFF;}
	.st12{clip-path:url(#SVGID_00000060016896285993577650000018322810496851067061_);}
	.st13{clip-path:url(#SVGID_00000024724705370219009830000008395475992499425673_);}
	.st14{fill:#090909;}
	.st15{clip-path:url(#SVGID_00000031196637230017442700000015120037335160076941_);}
	.st16{fill:none;stroke:#573623;stroke-width:2;stroke-linecap:round;stroke-miterlimit:10;}
	.st17{fill:#D68F72;}
	.st18{fill:#C98841;}
</style>
<path class="st0" d="M71.6,163.6c0,0,0,3.2,0,2.1v-0.2C71.6,164.9,71.6,164.2,71.6,163.6z"/>
<path class="st0" d="M71.6,163.6c0,0,0,3.2,0,2.1v-0.2C71.6,164.9,71.6,164.2,71.6,163.6z"/>
<path class="st0" d="M71.6,163.6c0,0,0,3.2,0,2.1v-0.2C71.6,164.9,71.6,164.2,71.6,163.6z"/>
<path class="st0" d="M71.6,163.6c0,0,0,3.2,0,2.1v-0.2C71.6,164.9,71.6,164.2,71.6,163.6z"/>
<path class="st0" d="M71.6,163.6c0,0,0,3.2,0,2.1v-0.2C71.6,164.9,71.6,164.2,71.6,163.6z"/>
<path class="st0" d="M71.6,163.6c0,0,0,3.2,0,2.1v-0.2C71.6,164.9,71.6,164.2,71.6,163.6z"/>
<g id="_Répétition_miroir_">
	<g>
		<g>
			<defs>
				<polygon id="SVGID_1_" points="164.2,128.9 164.2,128.9 201.4,128.9 201.4,193.6 164.2,193.6 				"/>
			</defs>
			<clipPath id="SVGID_00000055698839846446657780000004538772938911311769_">
				<use xlink:href="#SVGID_1_"  style="overflow:visible;"/>
			</clipPath>
			<g style="clip-path:url(#SVGID_00000055698839846446657780000004538772938911311769_);">
				<path class="st2" d="M164.2,189.4l8.1-49c0,0,12.8-17.9,25.7-9c8.6,5.9-0.8,56.6-9.9,60C172.4,197.3,164.2,189.4,164.2,189.4z"
					/>
			</g>
		</g>
	</g>
</g>
<g id="_Répétition_miroir_2">
	<g>
		<g>
			<defs>
				<polygon id="SVGID_00000065070824202764559430000014190803948643097986_" points="37.2,128.9 37.2,128.9 0,128.9 0,193.6 
					37.2,193.6 				"/>
			</defs>
			<clipPath id="SVGID_00000163071113507249966310000005185944304159562385_">
				<use xlink:href="#SVGID_00000065070824202764559430000014190803948643097986_"  style="overflow:visible;"/>
			</clipPath>
			<g style="clip-path:url(#SVGID_00000163071113507249966310000005185944304159562385_);">
				<path class="st2" d="M37.2,189.4l-8.1-49c0,0-12.8-17.9-25.7-9c-8.6,5.9,0.8,56.6,9.9,60C29,197.3,37.2,189.4,37.2,189.4z"/>
			</g>
		</g>
	</g>
</g>
<g id="_Répétition_miroir_3">
	<g>
		<g>
			<defs>
				<polygon id="SVGID_00000020395077160987757970000011137357344835120062_" points="175.1,137.3 175.1,137.3 197.1,137.3 
					197.1,164 175.1,164 				"/>
			</defs>
			<clipPath id="SVGID_00000080192774919401707830000013726423217921822127_">
				<use xlink:href="#SVGID_00000020395077160987757970000011137357344835120062_"  style="overflow:visible;"/>
			</clipPath>
			<g style="clip-path:url(#SVGID_00000080192774919401707830000013726423217921822127_);">
				<path class="st5" d="M175.7,152.9c0-0.5,1.4-3.1,10.2-10.2c3-2.5,6.5-4.3,10.2-5.4c0.9,1,1.2,2.3,0.9,3.6
					c-0.2,1.6-8,5.6-10.4,7.7c-3.6,3.2-11.5,15-11.5,15.4L175.7,152.9z"/>
			</g>
		</g>
	</g>
</g>
<g id="_Répétition_miroir_4">
	<g>
		<g>
			<defs>
				<polygon id="SVGID_00000178920376862306134810000009702023967280904580_" points="26.3,137.3 26.3,137.3 4.3,137.3 4.3,164 
					26.3,164 				"/>
			</defs>
			<clipPath id="SVGID_00000103224232847809369080000018354217365884934279_">
				<use xlink:href="#SVGID_00000178920376862306134810000009702023967280904580_"  style="overflow:visible;"/>
			</clipPath>
			<g style="clip-path:url(#SVGID_00000103224232847809369080000018354217365884934279_);">
				<path class="st5" d="M25.7,152.9c0-0.5-1.4-3.1-10.2-10.2c-3-2.5-6.5-4.3-10.2-5.4c-0.9,1-1.2,2.3-0.9,3.6
					c0.2,1.6,8,5.6,10.4,7.7c3.6,3.2,11.5,15,11.5,15.4L25.7,152.9z"/>
			</g>
		</g>
	</g>
</g>
<g>
	<g>
		<defs>
			<polygon id="SVGID_00000005966182496212834530000002498483688495051673_" points="122.6,102.5 122.6,102.5 167.6,102.5 
				167.6,116.2 122.6,116.2 			"/>
		</defs>
		<clipPath id="SVGID_00000011003391707687733570000013888491823460510860_">
			<use xlink:href="#SVGID_00000005966182496212834530000002498483688495051673_"  style="overflow:visible;"/>
		</clipPath>
		<g style="clip-path:url(#SVGID_00000011003391707687733570000013888491823460510860_);">
			<path class="st8" d="M165.4,116.2c-0.3,0-0.6-0.1-0.8-0.2c-4.5-1.9-9.1-3.4-13.8-4.5c-15.1-3.4-16.1-1-21.3,0
				c-1.5,0.3-5.2-0.6-6-1.5s-1.4-4.1-0.5-4.9c0.4-0.3,7.1-4.9,24.4-1c7.2,1.6,18.6,7.9,18.9,8c1.1,0.5,1.6,1.7,1.1,2.8
				C167.1,115.7,166.3,116.3,165.4,116.2L165.4,116.2z"/>
		</g>
	</g>
</g>
<g>
	<g>
		<defs>
			<polygon id="SVGID_00000026165294972945524910000005904368937990860476_" points="78.8,102.5 78.8,102.5 33.8,102.5 33.8,116.2 
				78.8,116.2 			"/>
		</defs>
		<clipPath id="SVGID_00000085972859973527372400000017249170717625426080_">
			<use xlink:href="#SVGID_00000026165294972945524910000005904368937990860476_"  style="overflow:visible;"/>
		</clipPath>
		<g style="clip-path:url(#SVGID_00000085972859973527372400000017249170717625426080_);">
			<path class="st8" d="M36,116.2c0.3,0,0.6-0.1,0.8-0.2c4.5-1.9,9.1-3.4,13.8-4.5c15.1-3.4,16.1-1,21.3,0c1.5,0.3,5.2-0.6,6-1.5
				s1.4-4.1,0.5-4.9c-0.4-0.3-7.1-4.9-24.5-1c-7.2,1.6-18.5,7.9-18.9,8c-1.1,0.5-1.6,1.7-1.1,2.8C34.3,115.7,35.1,116.3,36,116.2
				L36,116.2z"/>
		</g>
	</g>
</g>
<g>
	<g>
		<defs>
			<polygon id="SVGID_00000038389586101512170740000016105022555915969194_" points="132.2,129.6 132.2,129.6 161.2,129.6 
				161.2,157.5 132.2,157.5 			"/>
		</defs>
		<clipPath id="SVGID_00000003104432736386751680000001452056925562148763_">
			<use xlink:href="#SVGID_00000038389586101512170740000016105022555915969194_"  style="overflow:visible;"/>
		</clipPath>
		<g style="clip-path:url(#SVGID_00000003104432736386751680000001452056925562148763_);">
			<ellipse class="st11" cx="146.7" cy="143.6" rx="14.5" ry="13.9"/>
		</g>
	</g>
</g>
<g>
	<g>
		<defs>
			<polygon id="SVGID_00000057839908476399103040000002911520455684054186_" points="69.2,129.6 69.2,129.6 40.2,129.6 40.2,157.5 
				69.2,157.5 			"/>
		</defs>
		<clipPath id="SVGID_00000036968668995707026900000016271548534937571518_">
			<use xlink:href="#SVGID_00000057839908476399103040000002911520455684054186_"  style="overflow:visible;"/>
		</clipPath>
		<g style="clip-path:url(#SVGID_00000036968668995707026900000016271548534937571518_);">
			<ellipse class="st11" cx="54.7" cy="143.6" rx="14.5" ry="13.9"/>
		</g>
	</g>
</g>
<g>
	<g>
		<defs>
			<polygon id="SVGID_00000043427615677681113510000008213002746191588253_" points="136.9,135.9 136.9,135.9 156.3,135.9 
				156.3,155.3 136.9,155.3 			"/>
		</defs>
		<clipPath id="SVGID_00000034775201709600864320000008342644951613434029_">
			<use xlink:href="#SVGID_00000043427615677681113510000008213002746191588253_"  style="overflow:visible;"/>
		</clipPath>
		<g style="clip-path:url(#SVGID_00000034775201709600864320000008342644951613434029_);">
			<circle class="st14" cx="146.6" cy="145.6" r="9.7"/>
		</g>
	</g>
</g>
<g>
	<g>
		<defs>
			<polygon id="SVGID_00000011742793386332629490000005832271015429967291_" points="64.5,135.9 64.5,135.9 45.1,135.9 45.1,155.3 
				64.5,155.3 			"/>
		</defs>
		<clipPath id="SVGID_00000121265116019170492660000003192160529991394436_">
			<use xlink:href="#SVGID_00000011742793386332629490000005832271015429967291_"  style="overflow:visible;"/>
		</clipPath>
		<g style="clip-path:url(#SVGID_00000121265116019170492660000003192160529991394436_);">
			<circle class="st14" cx="54.8" cy="145.6" r="9.7"/>
		</g>
	</g>
</g>
<path class="st16" d="M87.2,179.9c0,0,10.4,2.6,13.5,2.6s13.5-3.3,13.5-3.3"/>
<path class="st16" d="M72.4,192.8c1.5,1,3.1,1.7,4.8,2.3c4.4,1.6,12,3.4,23.5,3.2c10.4-0.2,17.5-1.9,22-3.7c2.3-0.8,4.4-1.9,6.4-3.4
	"/>
<path class="st17" d="M176.6,154c2.3-16.1,3.2-54,3.2-54c0-45.5-31.5-74.9-76.5-75.8l0,0H98l0,0C53,25.1,21.5,54.5,21.5,100
	c0,0,0.9,38,3.2,54c1.8,12.9-12.8,35,3.1,57c9.2,12.7,53.8,20.1,70.4,24.3c0.7,0.2,1.4,0.3,2.1,0.3c0.1,0,0.3,0,0.4,0s0.3,0,0.4,0
	c0.7,0,1.4-0.1,2.1-0.3c13.9-3.5,47.5-9.3,63.4-18.5c2.5-0.8,4.7-2.4,6.1-4.7c0.3-0.3,0.6-0.7,0.9-1
	C189.5,189,174.8,166.9,176.6,154z"/>
<path class="st18" d="M92.2,48.6C64.8,37,53-2.1,82.6,0.1c7.9,0.6-24,14,43.4,25.9c24,4.3,29.7,16.5,29.7,16.5S107.5,55.1,92.2,48.6
	z"/>
<path class="st5" d="M88.4,169c-1,0.1-1.4,0.7-0.6,1c3,1.2,8.7,3.4,12.5,3.4c3.6,0,9-2.1,11.8-3.3c0.8-0.3,0.4-1-0.6-1
	c-3.4-0.2-4.8,0.6-11.6,0.6C94.1,169.7,91.8,168.8,88.4,169z"/>
</svg>
