<?xml version="1.0" encoding="utf-8"?>
<!-- Generator: Adobe Illustrator 26.0.1, SVG Export Plug-In . SVG Version: 6.00 Build 0)  -->
<svg version="1.1" id="Calque_1" xmlns="http://www.w3.org/2000/svg" xmlns:xlink="http://www.w3.org/1999/xlink" x="0px" y="0px"
	 viewBox="0 0 788 1005" style="enable-background:new 0 0 788 1005;" xml:space="preserve">
<style type="text/css">
	.st0{fill:#5E5E5E;}
	.st1{clip-path:url(#SVGID_00000025435027185207739960000006877721587553429151_);}
	.st2{fill:#B9785C;}
	.st3{clip-path:url(#SVGID_00000167355159303685121820000017156301461891414448_);}
	.st4{clip-path:url(#SVGID_00000163771350937201410640000002123629229041097884_);}
	.st5{fill:#99533D;}
	.st6{clip-path:url(#SVGID_00000125600662240323403260000018309988120819144083_);}
	.st7{clip-path:url(#SVGID_00000042725116147005341410000011751372358834173321_);}
	.st8{fill:#573623;}
	.st9{clip-path:url(#SVGID_00000076601790170531673710000001127343508657898430_);}
	.st10{clip-path:url(#SVGID_00000111187822634417885460000004916609906368921527_);}
	.st11{fill:#FFFFFF;}
	.st12{clip-path:url(#SVGID_00000060714513462312556080000005531432380561577886_);}
	.st13{clip-path:url(#SVGID_00000074412992943415372620000004389960135529259426_);}
	.st14{fill:#090909;}
	.st15{clip-path:url(#SVGID_00000080196423891480386790000002665236121241413029_);}
	.st16{fill:none;stroke:#573623;stroke-width:2;stroke-linecap:round;stroke-miterlimit:10;}
	.st17{fill:#D68F72;}
	.st18{fill:#C98841;}
	.st19{fill:#664E46;}
	.st20{fill:#493C2F;}
</style>
<path class="st0" d="M364.9,340.6c0,0,0,3.2,0,2.1v-0.2C364.9,341.9,364.9,341.2,364.9,340.6z"/>
<path class="st0" d="M364.9,340.6c0,0,0,3.2,0,2.1v-0.2C364.9,341.9,364.9,341.2,364.9,340.6z"/>
<path class="st0" d="M364.9,340.6c0,0,0,3.2,0,2.1v-0.2C364.9,341.9,364.9,341.2,364.9,340.6z"/>
<path class="st0" d="M364.9,340.6c0,0,0,3.2,0,2.1v-0.2C364.9,341.9,364.9,341.2,364.9,340.6z"/>
<path class="st0" d="M364.9,340.6c0,0,0,3.2,0,2.1v-0.2C364.9,341.9,364.9,341.2,364.9,340.6z"/>
<path class="st0" d="M364.9,340.6c0,0,0,3.2,0,2.1v-0.2C364.9,341.9,364.9,341.2,364.9,340.6z"/>
<g id="_Répétition_miroir_">
	<g>
		<defs>
			<polygon id="SVGID_1_" points="457.5,305.9 457.5,305.9 494.7,305.9 494.7,370.6 457.5,370.6 			"/>
		</defs>
		<clipPath id="SVGID_00000176037493465927990220000012169378368196258964_">
			<use xlink:href="#SVGID_1_"  style="overflow:visible;"/>
		</clipPath>
		<g style="clip-path:url(#SVGID_00000176037493465927990220000012169378368196258964_);">
			<path class="st2" d="M457.5,366.4l8.1-49c0,0,12.8-17.9,25.7-9c8.6,5.9-0.8,56.6-9.9,60C465.7,374.3,457.5,366.4,457.5,366.4z"/>
		</g>
	</g>
</g>
<g id="_Répétition_miroir_2">
	<g>
		<defs>
			<polygon id="SVGID_00000073683937841643821530000004991022543733225397_" points="330.5,305.9 330.5,305.9 293.3,305.9 
				293.3,370.6 330.5,370.6 			"/>
		</defs>
		<clipPath id="SVGID_00000043426661878577250980000008305560240270420621_">
			<use xlink:href="#SVGID_00000073683937841643821530000004991022543733225397_"  style="overflow:visible;"/>
		</clipPath>
		<g style="clip-path:url(#SVGID_00000043426661878577250980000008305560240270420621_);">
			<path class="st2" d="M330.5,366.4l-8.1-49c0,0-12.8-17.9-25.7-9c-8.6,5.9,0.8,56.6,9.9,60C322.3,374.3,330.5,366.4,330.5,366.4z"
				/>
		</g>
	</g>
</g>
<g id="_Répétition_miroir_3">
	<g>
		<defs>
			<polygon id="SVGID_00000007426458709117423290000016964838874568563365_" points="468.4,314.3 468.4,314.3 490.4,314.3 
				490.4,341 468.4,341 			"/>
		</defs>
		<clipPath id="SVGID_00000115492436315426290020000006059341687782333847_">
			<use xlink:href="#SVGID_00000007426458709117423290000016964838874568563365_"  style="overflow:visible;"/>
		</clipPath>
		<g style="clip-path:url(#SVGID_00000115492436315426290020000006059341687782333847_);">
			<path class="st5" d="M469,329.9c0-0.5,1.4-3.1,10.2-10.2c3-2.5,6.5-4.3,10.2-5.4c0.9,1,1.2,2.3,0.9,3.6c-0.2,1.6-8,5.6-10.4,7.7
				c-3.6,3.2-11.5,15-11.5,15.4L469,329.9z"/>
		</g>
	</g>
</g>
<g id="_Répétition_miroir_4">
	<g>
		<defs>
			<polygon id="SVGID_00000052088299757683624710000007732658999810401926_" points="319.6,314.3 319.6,314.3 297.6,314.3 
				297.6,341 319.6,341 			"/>
		</defs>
		<clipPath id="SVGID_00000152249909180737014820000003605244584231722147_">
			<use xlink:href="#SVGID_00000052088299757683624710000007732658999810401926_"  style="overflow:visible;"/>
		</clipPath>
		<g style="clip-path:url(#SVGID_00000152249909180737014820000003605244584231722147_);">
			<path class="st5" d="M319,329.9c0-0.5-1.4-3.1-10.2-10.2c-3-2.5-6.5-4.3-10.2-5.4c-0.9,1-1.2,2.3-0.9,3.6c0.2,1.6,8,5.6,10.4,7.7
				c3.6,3.2,11.5,15,11.5,15.4L319,329.9z"/>
		</g>
	</g>
</g>
<g>
	<defs>
		<polygon id="SVGID_00000111896165175861580940000017768768343881472187_" points="415.9,279.5 415.9,279.5 460.9,279.5 
			460.9,293.2 415.9,293.2 		"/>
	</defs>
	<clipPath id="SVGID_00000159447357813551496130000002607768903094060979_">
		<use xlink:href="#SVGID_00000111896165175861580940000017768768343881472187_"  style="overflow:visible;"/>
	</clipPath>
	<g style="clip-path:url(#SVGID_00000159447357813551496130000002607768903094060979_);">
		<path class="st8" d="M458.7,293.2c-0.3,0-0.6-0.1-0.8-0.2c-4.5-1.9-9.1-3.4-13.8-4.5c-15.1-3.4-16.1-1-21.3,0
			c-1.5,0.3-5.2-0.6-6-1.5s-1.4-4.1-0.5-4.9c0.4-0.3,7.1-4.9,24.4-1c7.2,1.6,18.6,7.9,18.9,8c1.1,0.5,1.6,1.7,1.1,2.8
			C460.4,292.7,459.6,293.3,458.7,293.2L458.7,293.2z"/>
	</g>
</g>
<g>
	<defs>
		<polygon id="SVGID_00000133530760761512658130000014279434703974310282_" points="372.1,279.5 372.1,279.5 327.1,279.5 
			327.1,293.2 372.1,293.2 		"/>
	</defs>
	<clipPath id="SVGID_00000059296177703637945170000002652352199349774487_">
		<use xlink:href="#SVGID_00000133530760761512658130000014279434703974310282_"  style="overflow:visible;"/>
	</clipPath>
	<g style="clip-path:url(#SVGID_00000059296177703637945170000002652352199349774487_);">
		<path class="st8" d="M329.3,293.2c0.3,0,0.6-0.1,0.8-0.2c4.5-1.9,9.1-3.4,13.8-4.5c15.1-3.4,16.1-1,21.3,0c1.5,0.3,5.2-0.6,6-1.5
			s1.4-4.1,0.5-4.9c-0.4-0.3-7.1-4.9-24.5-1c-7.2,1.6-18.5,7.9-18.9,8c-1.1,0.5-1.6,1.7-1.1,2.8
			C327.6,292.7,328.4,293.3,329.3,293.2L329.3,293.2z"/>
	</g>
</g>
<g>
	<defs>
		<polygon id="SVGID_00000070105468462653827330000007113254978794802343_" points="425.5,306.6 425.5,306.6 454.5,306.6 
			454.5,334.5 425.5,334.5 		"/>
	</defs>
	<clipPath id="SVGID_00000170970575894551453150000007259566351352086169_">
		<use xlink:href="#SVGID_00000070105468462653827330000007113254978794802343_"  style="overflow:visible;"/>
	</clipPath>
	<g style="clip-path:url(#SVGID_00000170970575894551453150000007259566351352086169_);">
		<ellipse class="st11" cx="440" cy="320.6" rx="14.5" ry="13.9"/>
	</g>
</g>
<g>
	<defs>
		<polygon id="SVGID_00000101081790600165674370000005366276044357220256_" points="362.5,306.6 362.5,306.6 333.5,306.6 
			333.5,334.5 362.5,334.5 		"/>
	</defs>
	<clipPath id="SVGID_00000142164937922906994640000011637233016290207631_">
		<use xlink:href="#SVGID_00000101081790600165674370000005366276044357220256_"  style="overflow:visible;"/>
	</clipPath>
	<g style="clip-path:url(#SVGID_00000142164937922906994640000011637233016290207631_);">
		<ellipse class="st11" cx="348" cy="320.6" rx="14.5" ry="13.9"/>
	</g>
</g>
<g>
	<defs>
		<polygon id="SVGID_00000126307650048595739710000015361353980871246997_" points="430.2,312.9 430.2,312.9 449.6,312.9 
			449.6,332.3 430.2,332.3 		"/>
	</defs>
	<clipPath id="SVGID_00000043416073409723440370000011302540715000454811_">
		<use xlink:href="#SVGID_00000126307650048595739710000015361353980871246997_"  style="overflow:visible;"/>
	</clipPath>
	<g style="clip-path:url(#SVGID_00000043416073409723440370000011302540715000454811_);">
		<circle class="st14" cx="439.9" cy="322.6" r="9.7"/>
	</g>
</g>
<g>
	<defs>
		<polygon id="SVGID_00000170978860780753143990000009351429328357314693_" points="357.8,312.9 357.8,312.9 338.4,312.9 
			338.4,332.3 357.8,332.3 		"/>
	</defs>
	<clipPath id="SVGID_00000121279412230959307370000009967937736360147871_">
		<use xlink:href="#SVGID_00000170978860780753143990000009351429328357314693_"  style="overflow:visible;"/>
	</clipPath>
	<g style="clip-path:url(#SVGID_00000121279412230959307370000009967937736360147871_);">
		<circle class="st14" cx="348.1" cy="322.6" r="9.7"/>
	</g>
</g>
<path class="st16" d="M380.5,356.9c0,0,10.4,2.6,13.5,2.6s13.5-3.3,13.5-3.3"/>
<path class="st16" d="M365.7,369.8c1.5,1,3.1,1.7,4.8,2.3c4.4,1.6,12,3.4,23.5,3.2c10.4-0.2,17.5-1.9,22-3.7
	c2.3-0.8,4.4-1.9,6.4-3.4"/>
<path class="st17" d="M469.9,331c2.3-16.1,3.2-54,3.2-54c0-45.5-31.5-74.9-76.5-75.8l0,0h-5.3l0,0c-45,0.9-76.5,30.3-76.5,75.8
	c0,0,0.9,38,3.2,54c1.8,12.9-12.8,35,3.1,57c9.2,12.7,53.8,20.1,70.4,24.3c0.7,0.2,1.4,0.3,2.1,0.3c0.1,0,0.3,0,0.4,0s0.3,0,0.4,0
	c0.7,0,1.4-0.1,2.1-0.3c13.9-3.5,47.5-9.3,63.4-18.5c2.5-0.8,4.7-2.4,6.1-4.7c0.3-0.3,0.6-0.7,0.9-1
	C482.8,366,468.1,343.9,469.9,331z"/>
<path class="st18" d="M326.9,283.4c-18.9,23-59.7,23.2-49.3-4.5c2.8-7.4,6.6,27,37.1-34.3c10.9-21.9,24.2-23.8,24.2-23.8
	S337.5,270.6,326.9,283.4z"/>
<rect x="312.7" y="183" class="st19" width="159.5" height="67.8"/>
<polygon class="st20" points="527.4,260.5 302.5,255.6 302.5,246 527.4,250.8 "/>
<path class="st5" d="M382.5,348.2c-1,0.1-1.4,0.7-0.6,1c3,1.2,8.7,3.4,12.5,3.4c3.6,0,9-2.1,11.8-3.3c0.8-0.3,0.4-1-0.6-1
	c-3.4-0.2-4.8,0.6-11.6,0.6C388.1,348.9,385.9,348,382.5,348.2z"/>
</svg>
