<?xml version="1.0" encoding="utf-8"?>
<!-- Generator: Adobe Illustrator 26.0.1, SVG Export Plug-In . SVG Version: 6.00 Build 0)  -->
<svg version="1.1" id="Calque_1" xmlns="http://www.w3.org/2000/svg" xmlns:xlink="http://www.w3.org/1999/xlink" x="0px" y="0px"
	 viewBox="0 0 248.3 217.5" style="enable-background:new 0 0 248.3 217.5;" xml:space="preserve">
<style type="text/css">
	.st0{fill:#5E5E5E;}
	.st1{clip-path:url(#SVGID_00000162326566022200951930000004112746849097028235_);}
	.st2{fill:#B9785C;}
	.st3{clip-path:url(#SVGID_00000038384818468721877910000001475881527677987239_);}
	.st4{clip-path:url(#SVGID_00000089556684126295764170000016290917846424695732_);}
	.st5{fill:#573623;}
	.st6{clip-path:url(#SVGID_00000072964388411624969220000015123396600202214321_);}
	.st7{clip-path:url(#SVGID_00000097480384325311365730000010558516108685535402_);}
	.st8{fill:#FFFFFF;}
	.st9{clip-path:url(#SVGID_00000171707387150875684830000017823781546499225001_);}
	.st10{clip-path:url(#SVGID_00000062178145859443533210000016206850665925333683_);}
	.st11{fill:#090909;}
	.st12{clip-path:url(#SVGID_00000091717645198968962840000003033327135691512727_);}
	.st13{fill:none;stroke:#573623;stroke-width:2;stroke-linecap:round;stroke-miterlimit:10;}
	.st14{fill:#D68F72;}
	.st15{fill:#99533D;}
	.st16{fill:#C98841;}
</style>
<path class="st0" d="M97.5,145.5c0,0,0,3.2,0,2.1v-0.2C97.5,146.8,97.5,146.1,97.5,145.5z"/>
<path class="st0" d="M97.5,145.5c0,0,0,3.2,0,2.1v-0.2C97.5,146.8,97.5,146.1,97.5,145.5z"/>
<path class="st0" d="M97.5,145.5c0,0,0,3.2,0,2.1v-0.2C97.5,146.8,97.5,146.1,97.5,145.5z"/>
<path class="st0" d="M97.5,145.5c0,0,0,3.2,0,2.1v-0.2C97.5,146.8,97.5,146.1,97.5,145.5z"/>
<path class="st0" d="M97.5,145.5c0,0,0,3.2,0,2.1v-0.2C97.5,146.8,97.5,146.1,97.5,145.5z"/>
<path class="st0" d="M97.5,145.5c0,0,0,3.2,0,2.1v-0.2C97.5,146.8,97.5,146.1,97.5,145.5z"/>
<g id="_Répétition_miroir_">
	<g>
		<g>
			<defs>
				<polygon id="SVGID_1_" points="190.1,110.8 190.1,110.8 227.3,110.8 227.3,175.5 190.1,175.5 				"/>
			</defs>
			<clipPath id="SVGID_00000179643251568349818120000009391036722892424096_">
				<use xlink:href="#SVGID_1_"  style="overflow:visible;"/>
			</clipPath>
			<g style="clip-path:url(#SVGID_00000179643251568349818120000009391036722892424096_);">
				<path class="st2" d="M190.1,171.3l8.1-49c0,0,12.8-17.9,25.7-9c8.6,5.9-0.8,56.6-9.9,60C198.3,179.2,190.1,171.3,190.1,171.3z"
					/>
			</g>
		</g>
	</g>
</g>
<g id="_Répétition_miroir_2">
	<g>
		<g>
			<defs>
				<polygon id="SVGID_00000032611053805468006830000007600492000024203700_" points="63.1,110.8 63.1,110.8 25.9,110.8 25.9,175.5 
					63.1,175.5 				"/>
			</defs>
			<clipPath id="SVGID_00000170248134186541559510000004038932982064046496_">
				<use xlink:href="#SVGID_00000032611053805468006830000007600492000024203700_"  style="overflow:visible;"/>
			</clipPath>
			<g style="clip-path:url(#SVGID_00000170248134186541559510000004038932982064046496_);">
				<path class="st2" d="M63.1,171.3l-8.1-49c0,0-12.8-17.9-25.7-9c-8.6,5.9,0.8,56.6,9.9,60C54.9,179.2,63.1,171.3,63.1,171.3z"/>
			</g>
		</g>
	</g>
</g>
<g>
	<g>
		<defs>
			<polygon id="SVGID_00000026857020989480941050000014645436935257075611_" points="148.5,84.4 148.5,84.4 193.5,84.4 193.5,98.1 
				148.5,98.1 			"/>
		</defs>
		<clipPath id="SVGID_00000111173916764655316730000016153537826179233201_">
			<use xlink:href="#SVGID_00000026857020989480941050000014645436935257075611_"  style="overflow:visible;"/>
		</clipPath>
		<g style="clip-path:url(#SVGID_00000111173916764655316730000016153537826179233201_);">
			<path class="st5" d="M191.3,98.1c-0.3,0-0.6-0.1-0.8-0.2c-4.5-1.9-9.1-3.4-13.8-4.5c-15.1-3.4-16.1-1-21.3,0
				c-1.5,0.3-5.2-0.6-6-1.5s-1.4-4.1-0.5-4.9c0.4-0.3,7.1-4.9,24.4-1c7.2,1.6,18.6,7.9,18.9,8c1.1,0.5,1.6,1.7,1.1,2.8
				C193,97.6,192.2,98.2,191.3,98.1L191.3,98.1z"/>
		</g>
	</g>
</g>
<g>
	<g>
		<defs>
			<polygon id="SVGID_00000060733822152764380010000006591771467304119451_" points="104.7,84.4 104.7,84.4 59.7,84.4 59.7,98.1 
				104.7,98.1 			"/>
		</defs>
		<clipPath id="SVGID_00000088811220261142206020000011357976151055389853_">
			<use xlink:href="#SVGID_00000060733822152764380010000006591771467304119451_"  style="overflow:visible;"/>
		</clipPath>
		<g style="clip-path:url(#SVGID_00000088811220261142206020000011357976151055389853_);">
			<path class="st5" d="M61.9,98.1c0.3,0,0.6-0.1,0.8-0.2c4.5-1.9,9.1-3.4,13.8-4.5c15.1-3.4,16.1-1,21.3,0c1.5,0.3,5.2-0.6,6-1.5
				s1.4-4.1,0.5-4.9c-0.4-0.3-7.1-4.9-24.4-1c-7.2,1.6-18.6,7.9-18.9,8c-1.1,0.5-1.6,1.7-1.1,2.8C60.2,97.6,61,98.2,61.9,98.1
				L61.9,98.1z"/>
		</g>
	</g>
</g>
<g>
	<g>
		<defs>
			<polygon id="SVGID_00000095314686210181839850000012889725037548951945_" points="158.1,111.5 158.1,111.5 187.1,111.5 
				187.1,139.4 158.1,139.4 			"/>
		</defs>
		<clipPath id="SVGID_00000047750922808077013680000005614025044656374673_">
			<use xlink:href="#SVGID_00000095314686210181839850000012889725037548951945_"  style="overflow:visible;"/>
		</clipPath>
		<g style="clip-path:url(#SVGID_00000047750922808077013680000005614025044656374673_);">
			<ellipse class="st8" cx="172.6" cy="125.5" rx="14.5" ry="13.9"/>
		</g>
	</g>
</g>
<g>
	<g>
		<defs>
			<polygon id="SVGID_00000042009723584376732360000010387094717566678662_" points="95.1,111.5 95.1,111.5 66.1,111.5 66.1,139.4 
				95.1,139.4 			"/>
		</defs>
		<clipPath id="SVGID_00000064346458626217041150000015571621292726675640_">
			<use xlink:href="#SVGID_00000042009723584376732360000010387094717566678662_"  style="overflow:visible;"/>
		</clipPath>
		<g style="clip-path:url(#SVGID_00000064346458626217041150000015571621292726675640_);">
			<ellipse class="st8" cx="80.6" cy="125.5" rx="14.5" ry="13.9"/>
		</g>
	</g>
</g>
<g>
	<g>
		<defs>
			<polygon id="SVGID_00000042710699556263929350000009591203604074512776_" points="162.8,117.8 162.8,117.8 182.2,117.8 
				182.2,137.2 162.8,137.2 			"/>
		</defs>
		<clipPath id="SVGID_00000081630312830963001850000001235715926840160936_">
			<use xlink:href="#SVGID_00000042710699556263929350000009591203604074512776_"  style="overflow:visible;"/>
		</clipPath>
		<g style="clip-path:url(#SVGID_00000081630312830963001850000001235715926840160936_);">
			<circle class="st11" cx="172.5" cy="127.5" r="9.7"/>
		</g>
	</g>
</g>
<g>
	<g>
		<defs>
			<polygon id="SVGID_00000100344365414149807850000011979042999338007964_" points="90.4,117.8 90.4,117.8 71,117.8 71,137.2 
				90.4,137.2 			"/>
		</defs>
		<clipPath id="SVGID_00000085952225218999611100000005573651711393665176_">
			<use xlink:href="#SVGID_00000100344365414149807850000011979042999338007964_"  style="overflow:visible;"/>
		</clipPath>
		<g style="clip-path:url(#SVGID_00000085952225218999611100000005573651711393665176_);">
			<circle class="st11" cx="80.7" cy="127.5" r="9.7"/>
		</g>
	</g>
</g>
<path class="st13" d="M113.1,161.8c0,0,10.4,2.6,13.5,2.6c3.1,0,13.5-3.3,13.5-3.3"/>
<path class="st13" d="M98.3,174.7c1.5,1,3.1,1.7,4.8,2.3c4.4,1.6,12,3.4,23.5,3.2c10.4-0.2,17.5-1.9,22-3.7c2.3-0.8,4.4-1.9,6.4-3.4
	"/>
<path class="st14" d="M202.5,135.9c2.3-16.1,3.2-54,3.2-54c0-45.5-31.5-74.9-76.5-75.8l0,0h-5.3l0,0C78.9,7,47.4,36.4,47.4,81.9
	c0,0,0.9,38,3.2,54c1.8,12.9-12.8,35,3.1,57c9.2,12.7,53.8,20.1,70.4,24.3c0.7,0.2,1.4,0.3,2.1,0.3c0.1,0,0.3,0,0.4,0s0.3,0,0.4,0
	c0.7,0,1.4-0.1,2.1-0.3c13.9-3.5,47.5-9.3,63.4-18.5c2.5-0.8,4.7-2.4,6.1-4.7c0.3-0.3,0.6-0.7,0.9-1
	C215.4,170.9,200.7,148.8,202.5,135.9z"/>
<path class="st15" d="M114.3,150.9c-1,0.1-1.4,0.7-0.6,1c3,1.2,8.7,3.4,12.5,3.4c3.6,0,9-2.1,11.8-3.3c0.8-0.3,0.4-1-0.6-1
	c-3.4-0.2-4.8,0.6-11.6,0.6C120,151.6,117.7,150.7,114.3,150.9z"/>
<path class="st16" d="M247.8,145.6c-1.1-6.5-7.6,15.9-20.3-15.8C227.5,110.5,221,0,221,0L33.4,3.3l-9,122.2
	c-15,37.9-22.6,13.3-23.9,20.1c-5.5,29.1,34.7,21.8,49.3-4.1c8.1-14.4,1-63.8,1-63.8l-0.2,0.1l1.7-26.1c0,0,66.2,1,76.7,2.3
	c8.2,1,61.8-1.2,66.2-0.4c2.1,0.4,4.4,12.9,6,25.1c-0.9,7-5.8,49.6,1.1,62.8C215.9,167.4,252.9,174.7,247.8,145.6z"/>
</svg>
