<?xml version="1.0" encoding="utf-8"?>
<!-- Generator: Adobe Illustrator 26.0.1, SVG Export Plug-In . SVG Version: 6.00 Build 0)  -->
<svg version="1.1" id="Calque_1" xmlns="http://www.w3.org/2000/svg" xmlns:xlink="http://www.w3.org/1999/xlink" x="0px" y="0px"
	 viewBox="0 0 788 1005" style="enable-background:new 0 0 788 1005;" xml:space="preserve">
<style type="text/css">
	.st0{fill:#5E5E5E;}
	.st1{clip-path:url(#SVGID_00000043418064578294780730000009230410902749898909_);}
	.st2{fill:#B9785C;}
	.st3{clip-path:url(#SVGID_00000100343668341747317810000016960231399606907543_);}
	.st4{clip-path:url(#SVGID_00000031193808969077155900000009261540579445682329_);}
	.st5{fill:#573623;}
	.st6{clip-path:url(#SVGID_00000075877746802110517320000007495258115438405775_);}
	.st7{clip-path:url(#SVGID_00000049198236859181566510000010652713174028632250_);}
	.st8{fill:#FFFFFF;}
	.st9{clip-path:url(#SVGID_00000099648459750538523340000004294346168921159074_);}
	.st10{clip-path:url(#SVGID_00000157303316233255799870000007717533948967807664_);}
	.st11{fill:#090909;}
	.st12{clip-path:url(#SVGID_00000004542608562729411460000001106782228049639312_);}
	.st13{fill:none;stroke:#573623;stroke-width:2;stroke-linecap:round;stroke-miterlimit:10;}
	.st14{fill:#D68F72;}
	.st15{fill:#C98841;}
	.st16{fill:#99533D;}
</style>
<path class="st0" d="M364.9,339.6c0,0,0,3.2,0,2.1v-0.2C364.9,340.9,364.9,340.2,364.9,339.6z"/>
<path class="st0" d="M364.9,339.6c0,0,0,3.2,0,2.1v-0.2C364.9,340.9,364.9,340.2,364.9,339.6z"/>
<path class="st0" d="M364.9,339.6c0,0,0,3.2,0,2.1v-0.2C364.9,340.9,364.9,340.2,364.9,339.6z"/>
<path class="st0" d="M364.9,339.6c0,0,0,3.2,0,2.1v-0.2C364.9,340.9,364.9,340.2,364.9,339.6z"/>
<path class="st0" d="M364.9,339.6c0,0,0,3.2,0,2.1v-0.2C364.9,340.9,364.9,340.2,364.9,339.6z"/>
<path class="st0" d="M364.9,339.6c0,0,0,3.2,0,2.1v-0.2C364.9,340.9,364.9,340.2,364.9,339.6z"/>
<g id="random">
	<g>
		<defs>
			<polygon id="SVGID_1_" points="457.5,304.9 457.5,304.9 494.7,304.9 494.7,369.6 457.5,369.6 			"/>
		</defs>
		<clipPath id="SVGID_00000140011548398004538090000007819263069782845360_">
			<use xlink:href="#SVGID_1_"  style="overflow:visible;"/>
		</clipPath>
		<g style="clip-path:url(#SVGID_00000140011548398004538090000007819263069782845360_);">
			<path class="st2" d="M457.5,365.4l8.1-49c0,0,12.8-17.9,25.7-9c8.6,5.9-0.8,56.6-9.9,60C465.7,373.3,457.5,365.4,457.5,365.4z"/>
		</g>
	</g>
</g>
<g id="random2">
	<g>
		<defs>
			<polygon id="SVGID_00000052813513136129436610000014046305859468775811_" points="330.5,304.9 330.5,304.9 293.3,304.9 
				293.3,369.6 330.5,369.6 			"/>
		</defs>
		<clipPath id="SVGID_00000109010385910909828990000000066516121617865632_">
			<use xlink:href="#SVGID_00000052813513136129436610000014046305859468775811_"  style="overflow:visible;"/>
		</clipPath>
		<g style="clip-path:url(#SVGID_00000109010385910909828990000000066516121617865632_);">
			<path class="st2" d="M330.5,365.4l-8.1-49c0,0-12.8-17.9-25.7-9c-8.6,5.9,0.8,56.6,9.9,60C322.3,373.3,330.5,365.4,330.5,365.4z"
				/>
		</g>
	</g>
</g>
<g>
	<defs>
		<polygon id="SVGID_00000065069292491447021840000009873669466626082949_" points="415.9,278.5 415.9,278.5 460.9,278.5 
			460.9,292.2 415.9,292.2 		"/>
	</defs>
	<clipPath id="SVGID_00000178188836951768873350000007260352441064129189_">
		<use xlink:href="#SVGID_00000065069292491447021840000009873669466626082949_"  style="overflow:visible;"/>
	</clipPath>
	<g style="clip-path:url(#SVGID_00000178188836951768873350000007260352441064129189_);">
		<path class="st5" d="M458.7,292.2c-0.3,0-0.6-0.1-0.8-0.2c-4.5-1.9-9.1-3.4-13.8-4.5c-15.1-3.4-16.1-1-21.3,0
			c-1.5,0.3-5.2-0.6-6-1.5s-1.4-4.1-0.5-4.9c0.4-0.3,7.1-4.9,24.4-1c7.2,1.6,18.6,7.9,18.9,8c1.1,0.5,1.6,1.7,1.1,2.8
			C460.4,291.7,459.6,292.2,458.7,292.2L458.7,292.2z"/>
	</g>
</g>
<g>
	<defs>
		<polygon id="SVGID_00000046311761803382353250000004309134449245255813_" points="372.1,278.5 372.1,278.5 327.1,278.5 
			327.1,292.2 372.1,292.2 		"/>
	</defs>
	<clipPath id="SVGID_00000096054565619506956830000012450245548083982525_">
		<use xlink:href="#SVGID_00000046311761803382353250000004309134449245255813_"  style="overflow:visible;"/>
	</clipPath>
	<g style="clip-path:url(#SVGID_00000096054565619506956830000012450245548083982525_);">
		<path class="st5" d="M329.3,292.2c0.3,0,0.6-0.1,0.8-0.2c4.5-1.9,9.1-3.4,13.8-4.5c15.1-3.4,16.1-1,21.3,0c1.5,0.3,5.2-0.6,6-1.5
			s1.4-4.1,0.5-4.9c-0.4-0.3-7.1-4.9-24.4-1c-7.2,1.6-18.6,7.9-18.9,8c-1.1,0.5-1.6,1.7-1.1,2.8
			C327.6,291.7,328.4,292.2,329.3,292.2L329.3,292.2z"/>
	</g>
</g>
<g>
	<defs>
		<polygon id="SVGID_00000000185830773828962310000015668832094629810580_" points="425.5,305.6 425.5,305.6 454.5,305.6 
			454.5,333.5 425.5,333.5 		"/>
	</defs>
	<clipPath id="SVGID_00000001647397175076049080000011159172788572626057_">
		<use xlink:href="#SVGID_00000000185830773828962310000015668832094629810580_"  style="overflow:visible;"/>
	</clipPath>
	<g style="clip-path:url(#SVGID_00000001647397175076049080000011159172788572626057_);">
		<ellipse class="st8" cx="440" cy="319.5" rx="14.5" ry="13.9"/>
	</g>
</g>
<g>
	<defs>
		<polygon id="SVGID_00000124127777839264069600000009696486341447945916_" points="362.5,305.6 362.5,305.6 333.5,305.6 
			333.5,333.5 362.5,333.5 		"/>
	</defs>
	<clipPath id="SVGID_00000015319620469610134230000001660628124795712412_">
		<use xlink:href="#SVGID_00000124127777839264069600000009696486341447945916_"  style="overflow:visible;"/>
	</clipPath>
	<g style="clip-path:url(#SVGID_00000015319620469610134230000001660628124795712412_);">
		<ellipse class="st8" cx="348" cy="319.5" rx="14.5" ry="13.9"/>
	</g>
</g>
<g>
	<defs>
		<polygon id="SVGID_00000078034980506547600160000012614176315989494445_" points="430.2,311.9 430.2,311.9 449.6,311.9 
			449.6,331.3 430.2,331.3 		"/>
	</defs>
	<clipPath id="SVGID_00000021083772214655303910000003359215406081015709_">
		<use xlink:href="#SVGID_00000078034980506547600160000012614176315989494445_"  style="overflow:visible;"/>
	</clipPath>
	<g style="clip-path:url(#SVGID_00000021083772214655303910000003359215406081015709_);">
		<circle class="st11" cx="439.9" cy="321.6" r="9.7"/>
	</g>
</g>
<g>
	<defs>
		<polygon id="SVGID_00000106113778135747040350000018137370753881463204_" points="357.8,311.9 357.8,311.9 338.4,311.9 
			338.4,331.3 357.8,331.3 		"/>
	</defs>
	<clipPath id="SVGID_00000148662004562690736660000002739385079901320887_">
		<use xlink:href="#SVGID_00000106113778135747040350000018137370753881463204_"  style="overflow:visible;"/>
	</clipPath>
	<g style="clip-path:url(#SVGID_00000148662004562690736660000002739385079901320887_);">
		<circle class="st11" cx="348.1" cy="321.6" r="9.7"/>
	</g>
</g>
<path class="st13" d="M380.5,355.8c0,0,10.4,2.7,13.5,2.6s13.5-3.3,13.5-3.3"/>
<path class="st13" d="M365.7,368.7c1.5,1,3.1,1.7,4.8,2.3c4.4,1.6,12,3.4,23.5,3.2c10.4-0.2,17.5-1.9,22-3.7
	c2.3-0.8,4.4-1.9,6.4-3.4"/>
<path class="st14" d="M469.9,330c2.3-16.1,3.2-54,3.2-54c0-45.5-31.5-74.9-76.5-75.8l0,0h-5.3l0,0c-45,0.9-76.5,30.3-76.5,75.8
	c0,0,0.9,38,3.2,54c1.8,12.9-12.8,35,3.1,57c9.2,12.7,53.8,20.1,70.4,24.3c0.7,0.2,1.4,0.3,2.1,0.3h0.8c0.7,0,1.4-0.1,2.1-0.3
	c13.9-3.5,47.5-9.2,63.4-18.5c2.5-0.8,4.7-2.5,6.1-4.8c0.3-0.4,0.6-0.7,0.9-1C482.8,365,468.1,342.9,469.9,330z"/>
<path class="st15" d="M385.5,224.6c-27.4-11.6-39.2-50.7-9.6-48.5c7.9,0.6-24,14,43.4,25.9c24,4.3,29.7,16.5,29.7,16.5
	S400.8,231.1,385.5,224.6z"/>
<path class="st15" d="M366.6,223.5c-27.4-11.6-39.2-50.7-9.6-48.5c7.9,0.6-24,14,43.4,25.9c24,4.3,29.7,16.5,29.7,16.5
	S381.8,230,366.6,223.5z"/>
<path class="st16" d="M381.7,346c-1,0.1-1.4,0.7-0.6,1c3,1.2,8.7,3.4,12.5,3.4c3.6,0,9-2.1,11.8-3.3c0.8-0.3,0.4-1-0.6-1
	c-3.4-0.2-4.8,0.6-11.6,0.6C387.4,346.7,385.1,345.8,381.7,346z"/>
<path class="st15" d="M316.3,312.9c-3.6-6-23.1-93.2,45-114.3s97.6,24.3,97.6,24.3s26.9,35.4,12.5,89.1c0,0-3.4-28.6-13.3-50.6
	s-3.7-26.3-3.5-28.2S391,227,391,227s-33.3-0.3-36.7-0.3c-10.7,0.1-19.4,0.5-18.9,1.5C339,235.9,316.3,312.9,316.3,312.9z"/>
</svg>
