<?xml version="1.0" encoding="utf-8"?>
<!-- Generator: Adobe Illustrator 26.0.1, SVG Export Plug-In . SVG Version: 6.00 Build 0)  -->
<svg version="1.1" id="Calque_1" xmlns="http://www.w3.org/2000/svg" xmlns:xlink="http://www.w3.org/1999/xlink" x="0px" y="0px"
	 viewBox="0 0 256 235.6" style="enable-background:new 0 0 256 235.6;" xml:space="preserve">
<style type="text/css">
	.st0{fill:#5E5E5E;}
	.st1{clip-path:url(#SVGID_00000054962925784991566560000004242767344820436357_);}
	.st2{fill:#B9785C;}
	.st3{clip-path:url(#SVGID_00000021815568062439696060000015169496780671952533_);}
	.st4{clip-path:url(#SVGID_00000024695239104275218170000005696810870553063844_);}
	.st5{fill:#99533D;}
	.st6{clip-path:url(#SVGID_00000060004239617314433280000014111732881058386059_);}
	.st7{clip-path:url(#SVGID_00000034053601756200839730000000341095936784199348_);}
	.st8{fill:#573623;}
	.st9{clip-path:url(#SVGID_00000111876906558532295170000010568870033657907613_);}
	.st10{clip-path:url(#SVGID_00000031183682897097565270000008446810674284574095_);}
	.st11{fill:#FFFFFF;}
	.st12{clip-path:url(#SVGID_00000182500719116919572560000006303217627357018246_);}
	.st13{clip-path:url(#SVGID_00000145750170992025723370000008289195474893151160_);}
	.st14{fill:#090909;}
	.st15{clip-path:url(#SVGID_00000036215633787860147430000017578156469193183360_);}
	.st16{fill:none;stroke:#573623;stroke-width:2;stroke-linecap:round;stroke-miterlimit:10;}
	.st17{fill:#D68F72;}
	.st18{fill:#AD6542;}
	.st19{fill:#263535;}
</style>
<path class="st0" d="M126.2,163.6c0,0,0,3.2,0,2.1v-0.2C126.2,164.9,126.2,164.2,126.2,163.6z"/>
<path class="st0" d="M126.2,163.6c0,0,0,3.2,0,2.1v-0.2C126.2,164.9,126.2,164.2,126.2,163.6z"/>
<path class="st0" d="M126.2,163.6c0,0,0,3.2,0,2.1v-0.2C126.2,164.9,126.2,164.2,126.2,163.6z"/>
<path class="st0" d="M126.2,163.6c0,0,0,3.2,0,2.1v-0.2C126.2,164.9,126.2,164.2,126.2,163.6z"/>
<path class="st0" d="M126.2,163.6c0,0,0,3.2,0,2.1v-0.2C126.2,164.9,126.2,164.2,126.2,163.6z"/>
<path class="st0" d="M126.2,163.6c0,0,0,3.2,0,2.1v-0.2C126.2,164.9,126.2,164.2,126.2,163.6z"/>
<g id="_Répétition_miroir_">
	<g>
		<g>
			<defs>
				<polygon id="SVGID_1_" points="218.8,128.9 218.8,128.9 256,128.9 256,193.6 218.8,193.6 				"/>
			</defs>
			<clipPath id="SVGID_00000178904428375949282910000007457590166606859188_">
				<use xlink:href="#SVGID_1_"  style="overflow:visible;"/>
			</clipPath>
			<g style="clip-path:url(#SVGID_00000178904428375949282910000007457590166606859188_);">
				<path class="st2" d="M218.8,189.4l8.1-49c0,0,12.8-17.9,25.7-9c8.6,5.9-0.8,56.6-9.9,60C227,197.3,218.8,189.4,218.8,189.4z"/>
			</g>
		</g>
	</g>
</g>
<g id="_Répétition_miroir_2">
	<g>
		<g>
			<defs>
				<polygon id="SVGID_00000065785821661961569180000018287970693247835264_" points="91.8,128.9 91.8,128.9 54.6,128.9 54.6,193.6 
					91.8,193.6 				"/>
			</defs>
			<clipPath id="SVGID_00000064337285040924276640000000073994157010303618_">
				<use xlink:href="#SVGID_00000065785821661961569180000018287970693247835264_"  style="overflow:visible;"/>
			</clipPath>
			<g style="clip-path:url(#SVGID_00000064337285040924276640000000073994157010303618_);">
				<path class="st2" d="M91.8,189.4l-8.1-49c0,0-12.8-17.9-25.7-9c-8.6,5.9,0.8,56.6,9.9,60C83.6,197.3,91.8,189.4,91.8,189.4z"/>
			</g>
		</g>
	</g>
</g>
<g id="_Répétition_miroir_3">
	<g>
		<g>
			<defs>
				<polygon id="SVGID_00000124844623062526914740000010880239360267390096_" points="229.7,137.3 229.7,137.3 251.7,137.3 
					251.7,164 229.7,164 				"/>
			</defs>
			<clipPath id="SVGID_00000070800296279574987060000000245407164950298015_">
				<use xlink:href="#SVGID_00000124844623062526914740000010880239360267390096_"  style="overflow:visible;"/>
			</clipPath>
			<g style="clip-path:url(#SVGID_00000070800296279574987060000000245407164950298015_);">
				<path class="st5" d="M230.3,152.9c0-0.5,1.4-3.1,10.2-10.2c3-2.5,6.5-4.3,10.2-5.4c0.9,1,1.2,2.3,0.9,3.6
					c-0.2,1.6-8,5.6-10.4,7.7c-3.6,3.2-11.5,15-11.5,15.4L230.3,152.9z"/>
			</g>
		</g>
	</g>
</g>
<g id="_Répétition_miroir_4">
	<g>
		<g>
			<defs>
				<polygon id="SVGID_00000070097279527001443220000003439389824102471304_" points="80.9,137.3 80.9,137.3 58.9,137.3 58.9,164 
					80.9,164 				"/>
			</defs>
			<clipPath id="SVGID_00000042699179406746887170000017954351039215116973_">
				<use xlink:href="#SVGID_00000070097279527001443220000003439389824102471304_"  style="overflow:visible;"/>
			</clipPath>
			<g style="clip-path:url(#SVGID_00000042699179406746887170000017954351039215116973_);">
				<path class="st5" d="M80.3,152.9c0-0.5-1.4-3.1-10.2-10.2c-3-2.5-6.5-4.3-10.2-5.4c-0.9,1-1.2,2.3-0.9,3.6
					c0.2,1.6,8,5.6,10.4,7.7c3.6,3.2,11.5,15,11.5,15.4L80.3,152.9z"/>
			</g>
		</g>
	</g>
</g>
<g>
	<g>
		<defs>
			<polygon id="SVGID_00000023993081527771663470000010609740597249249717_" points="177.2,102.5 177.2,102.5 222.2,102.5 
				222.2,116.2 177.2,116.2 			"/>
		</defs>
		<clipPath id="SVGID_00000140008503600637960970000006118064276454040201_">
			<use xlink:href="#SVGID_00000023993081527771663470000010609740597249249717_"  style="overflow:visible;"/>
		</clipPath>
		<g style="clip-path:url(#SVGID_00000140008503600637960970000006118064276454040201_);">
			<path class="st8" d="M220,116.2c-0.3,0-0.6-0.1-0.8-0.2c-4.5-1.9-9.1-3.4-13.8-4.5c-15.1-3.4-16.1-1-21.3,0
				c-1.5,0.3-5.2-0.6-6-1.5s-1.4-4.1-0.5-4.9c0.4-0.3,7.1-4.9,24.4-1c7.2,1.6,18.6,7.9,18.9,8c1.1,0.5,1.6,1.7,1.1,2.8
				C221.7,115.7,220.9,116.3,220,116.2L220,116.2z"/>
		</g>
	</g>
</g>
<g>
	<g>
		<defs>
			<polygon id="SVGID_00000118371592071042704980000004955401244744592791_" points="133.4,102.5 133.4,102.5 88.4,102.5 
				88.4,116.2 133.4,116.2 			"/>
		</defs>
		<clipPath id="SVGID_00000035525539991436918320000002131018298620419743_">
			<use xlink:href="#SVGID_00000118371592071042704980000004955401244744592791_"  style="overflow:visible;"/>
		</clipPath>
		<g style="clip-path:url(#SVGID_00000035525539991436918320000002131018298620419743_);">
			<path class="st8" d="M90.6,116.2c0.3,0,0.6-0.1,0.8-0.2c4.5-1.9,9.1-3.4,13.8-4.5c15.1-3.4,16.1-1,21.3,0c1.5,0.3,5.2-0.6,6-1.5
				s1.4-4.1,0.5-4.9c-0.4-0.3-7.1-4.9-24.5-1c-7.2,1.6-18.5,7.9-18.9,8c-1.1,0.5-1.6,1.7-1.1,2.8C88.9,115.7,89.7,116.3,90.6,116.2
				L90.6,116.2z"/>
		</g>
	</g>
</g>
<g>
	<g>
		<defs>
			<polygon id="SVGID_00000027600443064205075980000010100757211699775876_" points="186.8,129.6 186.8,129.6 215.8,129.6 
				215.8,157.5 186.8,157.5 			"/>
		</defs>
		<clipPath id="SVGID_00000158005632306716710530000010559390912982461856_">
			<use xlink:href="#SVGID_00000027600443064205075980000010100757211699775876_"  style="overflow:visible;"/>
		</clipPath>
		<g style="clip-path:url(#SVGID_00000158005632306716710530000010559390912982461856_);">
			<ellipse class="st11" cx="201.3" cy="143.6" rx="14.5" ry="13.9"/>
		</g>
	</g>
</g>
<g>
	<g>
		<defs>
			<polygon id="SVGID_00000123427828857875972240000001832236179928386947_" points="123.8,129.6 123.8,129.6 94.8,129.6 
				94.8,157.5 123.8,157.5 			"/>
		</defs>
		<clipPath id="SVGID_00000134228726834811807780000017383668397320797085_">
			<use xlink:href="#SVGID_00000123427828857875972240000001832236179928386947_"  style="overflow:visible;"/>
		</clipPath>
		<g style="clip-path:url(#SVGID_00000134228726834811807780000017383668397320797085_);">
			<ellipse class="st11" cx="109.3" cy="143.6" rx="14.5" ry="13.9"/>
		</g>
	</g>
</g>
<g>
	<g>
		<defs>
			<polygon id="SVGID_00000146499862061079729720000016699212035697185162_" points="191.5,135.9 191.5,135.9 210.9,135.9 
				210.9,155.3 191.5,155.3 			"/>
		</defs>
		<clipPath id="SVGID_00000165948297290126701600000016706281013617337760_">
			<use xlink:href="#SVGID_00000146499862061079729720000016699212035697185162_"  style="overflow:visible;"/>
		</clipPath>
		<g style="clip-path:url(#SVGID_00000165948297290126701600000016706281013617337760_);">
			<circle class="st14" cx="201.2" cy="145.6" r="9.7"/>
		</g>
	</g>
</g>
<g>
	<g>
		<defs>
			<polygon id="SVGID_00000008114731571748301490000013370149025198038436_" points="119.1,135.9 119.1,135.9 99.7,135.9 
				99.7,155.3 119.1,155.3 			"/>
		</defs>
		<clipPath id="SVGID_00000153688874207066857180000018336787998169250189_">
			<use xlink:href="#SVGID_00000008114731571748301490000013370149025198038436_"  style="overflow:visible;"/>
		</clipPath>
		<g style="clip-path:url(#SVGID_00000153688874207066857180000018336787998169250189_);">
			<circle class="st14" cx="109.4" cy="145.6" r="9.7"/>
		</g>
	</g>
</g>
<path class="st16" d="M141.8,179.9c0,0,10.4,2.6,13.5,2.6s13.5-3.3,13.5-3.3"/>
<path class="st16" d="M127,192.8c1.5,1,3.1,1.7,4.8,2.3c4.4,1.6,12,3.4,23.5,3.2c10.4-0.2,17.5-1.9,22-3.7c2.3-0.8,4.4-1.9,6.4-3.4"
	/>
<path class="st17" d="M231.2,154c2.3-16.1,3.2-54,3.2-54c0-45.5-31.5-74.9-76.5-75.8l0,0h-5.3l0,0c-45,0.9-76.5,30.3-76.5,75.8
	c0,0,0.9,38,3.2,54c1.8,12.9-12.8,35,3.1,57c9.2,12.7,53.8,20.1,70.4,24.3c0.7,0.2,1.4,0.3,2.1,0.3c0.1,0,0.3,0,0.4,0s0.3,0,0.4,0
	c0.7,0,1.4-0.1,2.1-0.3c13.9-3.5,47.5-9.3,63.4-18.5c2.5-0.8,4.7-2.4,6.1-4.7c0.3-0.3,0.6-0.7,0.9-1
	C244.1,189,229.4,166.9,231.2,154z"/>
<path class="st5" d="M143,169c-1,0.1-1.4,0.7-0.6,1c3,1.2,8.7,3.4,12.5,3.4c3.6,0,9-2.1,11.8-3.3c0.8-0.3,0.4-1-0.6-1
	c-3.4-0.2-4.8,0.6-11.6,0.6C148.7,169.7,146.4,168.8,143,169z"/>
<path class="st18" d="M235.1,77.1c0,0,0,5.8-0.8,18.1c-5.3,4.8-69.4-3.9-111.4-1.9c-8.6,0.4-34.9,16-46.3,20.3
	c-0.8-12.6-1.5-36.5-1.5-36.5c0-39.1,31.8-64.3,77.3-65.1l0,0h5.3l0,0C203.3,12.9,235.1,38.1,235.1,77.1z"/>
<path class="st19" d="M132.9,0.8L169.7,0c35.2-0.8,64.4,27.1,65.2,62.2l0,0l0.5,21.8l0,0L71.2,87.8l0,0L70.7,66
	C69.8,30.8,97.7,1.6,132.9,0.8z"/>
<path class="st19" d="M116.2,86.7c-2.7-1.2-49.5,23.8-76.6,31.6c-10.2,3-28.9-5.9-37.1-12.8c-1.6-1.3-2.6-2.4-2.5-3
	c0.4-2.1,71-24.4,71-24.4L116.2,86.7z"/>
</svg>
