<svg id="Calque_1" data-name="Calque 1" xmlns="http://www.w3.org/2000/svg" xmlns:xlink="http://www.w3.org/1999/xlink" viewBox="0 0 788 1005"><defs><style>.cls-1{fill:none;}.cls-2{fill:#6d3b25;}.cls-3{fill:#fff;}.cls-4{clip-path:url(#clip-path);}.cls-5{fill:#b8775c;}.cls-6{clip-path:url(#clip-path-2);}.cls-7{fill:#d48f72;}</style><clipPath id="clip-path"><polygon class="cls-1" points="429.72 177.02 429.72 177.02 446.06 177.02 446.06 209.96 429.72 209.96 429.72 177.02"/></clipPath><clipPath id="clip-path-2"><polygon class="cls-1" points="358.28 177.02 358.28 177.02 341.94 177.02 341.94 209.96 358.28 209.96 358.28 177.02"/></clipPath></defs><path class="cls-2" d="M446.06,162.27c41.06,31.93-18.21,58.54-18.21,58.54l4.49-31.29s.84-5.33-6.19-20.34c-1.66-3.54,1.87-13-.23-16.62-4.64-7.9-9.35-11.07-9.35-11.07S437.63,155.72,446.06,162.27Z"/><path class="cls-2" d="M341.94,158.31c-42.55,24.82,19,64.45,19,64.45l-6.77-34.24s-.84-5.24,6.19-20c1.66-3.48-1.87-12.82.23-16.35,4.64-7.77,9.35-10.89,9.35-10.89S351.1,153,341.94,158.31Z"/><path class="cls-3" d="M423.63,220.81l7.81,11.07-19.17,39.63s-7.76-16.68-11-20.49C399.81,249.34,423.63,220.81,423.63,220.81Z"/><path class="cls-3" d="M368.69,220.81l-7.75,9.75,18,40.95s7.06-16.67,11.8-21C392.43,249,368.69,220.81,368.69,220.81Z"/><polygon points="227.91 535.66 228.01 535.62 227.91 535.57 227.91 535.66"/><polygon points="228.01 535.62 228.11 535.66 228.11 535.57 228.01 535.62"/><polygon points="227.91 535.66 228.01 535.62 227.91 535.57 227.91 535.66"/><polygon points="228.01 535.62 228.11 535.66 228.11 535.57 228.01 535.62"/><g class="cls-4"><path class="cls-5" d="M429.72,210l3-28.25s6.56-7.84,12.25-3.25c3.78,3-3.13,28.22-7.5,29.5C430,210.14,429.72,210,429.72,210Z"/></g><g class="cls-6"><path class="cls-5" d="M358.28,210l-3-28.25s-6.56-7.84-12.25-3.25c-3.78,3,3.13,28.22,7.5,29.5C358,210.14,358.28,210,358.28,210Z"/></g><path class="cls-7" d="M383.24,254.94l-22.63-24.42-5.5-27-1.5-24.2v-6.34A38.91,38.91,0,0,1,392.53,134H394a38.92,38.92,0,0,1,38.92,38.92v6.34l-1.5,24.2-5.5,27-22.64,24.42Z"/></svg>