<?xml version="1.0" encoding="utf-8"?>
<!-- Generator: Adobe Illustrator 26.0.0, SVG Export Plug-In . SVG Version: 6.00 Build 0)  -->
<svg version="1.1" id="Calque_1" xmlns="http://www.w3.org/2000/svg" xmlns:xlink="http://www.w3.org/1999/xlink" x="0px" y="0px"
	 viewBox="0 0 788 1005" style="enable-background:new 0 0 788 1005;" xml:space="preserve">
<style type="text/css">
	.st0{fill:#6D3B25;}
	.st1{clip-path:url(#SVGID_00000014615111807366458880000016926663570068221870_);}
	.st2{fill:#B8775C;}
	.st3{clip-path:url(#SVGID_00000109743139440132868780000016537456296973506719_);}
	.st4{fill:#D48F72;}
</style>
<path class="st0" d="M446.1,162.3c41.1,31.9-18.2,58.5-18.2,58.5l4.5-31.3c0,0,0.8-5.3-6.2-20.3c-1.7-3.5,1.9-13-0.2-16.6
	c-4.6-7.9-9.4-11.1-9.4-11.1S437.6,155.7,446.1,162.3z"/>
<path class="st0" d="M341.9,158.3c-42.5,24.8,19,64.4,19,64.4l-6.8-34.2c0,0-0.8-5.2,6.2-20c1.7-3.5-1.9-12.8,0.2-16.4
	c4.6-7.8,9.4-10.9,9.4-10.9S351.1,153,341.9,158.3z"/>
<polygon points="227.9,535.7 228,535.6 227.9,535.6 "/>
<polygon points="228,535.6 228.1,535.7 228.1,535.6 "/>
<polygon points="227.9,535.7 228,535.6 227.9,535.6 "/>
<polygon points="228,535.6 228.1,535.7 228.1,535.6 "/>
<g>
	<defs>
		<polygon id="SVGID_1_" points="429.7,177 429.7,177 446.1,177 446.1,210 429.7,210 		"/>
	</defs>
	<clipPath id="SVGID_00000067217708154631493490000002719206086618549133_">
		<use xlink:href="#SVGID_1_"  style="overflow:visible;"/>
	</clipPath>
	<g style="clip-path:url(#SVGID_00000067217708154631493490000002719206086618549133_);">
		<path class="st2" d="M429.7,210l3-28.2c0,0,6.6-7.8,12.2-3.2c3.8,3-3.1,28.2-7.5,29.5C430,210.1,429.7,210,429.7,210z"/>
	</g>
</g>
<g>
	<defs>
		<polygon id="SVGID_00000103962495018773337860000010825936658203109309_" points="358.3,177 358.3,177 341.9,177 341.9,210 
			358.3,210 		"/>
	</defs>
	<clipPath id="SVGID_00000076580601499883650890000012600410182547013010_">
		<use xlink:href="#SVGID_00000103962495018773337860000010825936658203109309_"  style="overflow:visible;"/>
	</clipPath>
	<g style="clip-path:url(#SVGID_00000076580601499883650890000012600410182547013010_);">
		<path class="st2" d="M358.3,210l-3-28.2c0,0-6.6-7.8-12.2-3.2c-3.8,3,3.1,28.2,7.5,29.5C358,210.1,358.3,210,358.3,210z"/>
	</g>
</g>
<path class="st4" d="M383.2,254.9l-22.6-24.4l-5.5-27l-1.5-24.2V173c0-21.5,17.4-38.9,38.8-39c0,0,0.1,0,0.1,0h1.5
	c21.5,0,38.9,17.4,38.9,38.9v6.3l-1.5,24.2l-5.5,27l-22.6,24.4L383.2,254.9z"/>
</svg>
