<svg xmlns="http://www.w3.org/2000/svg" xmlns:xlink="http://www.w3.org/1999/xlink" viewBox="0 0 788 1005"><defs><style>.cls-1{fill:none;}.cls-2{fill:#1a1818;}.cls-3{fill:#bf7764;}.cls-4{clip-path:url(#clip-path);}.cls-5{fill:#b8775c;}.cls-6{clip-path:url(#clip-path-2);}.cls-7{fill:#d48f72;}.cls-8{fill:#6d3b25;}</style><clipPath id="clip-path"><polygon class="cls-1" points="429.72 177.02 429.72 177.02 446.06 177.02 446.06 209.96 429.72 209.96 429.72 177.02"/></clipPath><clipPath id="clip-path-2"><polygon class="cls-1" points="358.28 177.02 358.28 177.02 341.94 177.02 341.94 209.96 358.28 209.96 358.28 177.02"/></clipPath></defs><g id="Calque_1" data-name="Calque 1"><polygon class="cls-2" points="230.32 514.01 230.22 514.05 230.22 513.97 230.32 514.01"/><polygon points="230.42 513.97 230.42 514.05 230.32 514.01 230.42 513.97"/><polygon class="cls-2" points="230.32 514.01 230.22 514.05 230.22 513.97 230.32 514.01"/><polygon points="230.42 513.97 230.42 514.05 230.32 514.01 230.42 513.97"/><path class="cls-3" d="M397.45,170l25,3.71-1,44.83L408,231.77s-23.53,18.32-31.65,14.69c-6.75-3-17.19-8.52-17.19-8.52s6.9-5.59,9.58-17.13a39.7,39.7,0,0,0,.33-8.33c-.6-36,.75-38.9.74-38.81Z"/><g class="cls-4"><path class="cls-5" d="M429.72,210l3-28.25s6.56-7.84,12.25-3.25c3.78,3-3.13,28.22-7.5,29.5C430,210.14,429.72,210,429.72,210Z"/></g><g class="cls-6"><path class="cls-5" d="M358.28,210l-3-28.25s-6.56-7.84-12.25-3.25c-3.78,3,3.13,28.22,7.5,29.5C358,210.14,358.28,210,358.28,210Z"/></g><path class="cls-7" d="M383.24,254.94l-22.63-24.42-5.5-27-1.5-24.2v-6.34A38.91,38.91,0,0,1,392.53,134H394a38.92,38.92,0,0,1,38.92,38.92v6.34l-1.5,24.2-5.5,27-22.64,24.42Z"/><path class="cls-8" d="M429.63,149.22c12,10.39,6.63,29.47,6.63,29.47l-3.92,10.83s.84-5.33-6.19-20.34c-1.66-3.54,1.87-13-.23-16.62-4.64-7.9-9.35-11.07-9.35-11.07S421.57,142.22,429.63,149.22Z"/><path class="cls-8" d="M356.88,148.88c-12,10.22-6.62,29-6.62,29l3.91,10.66s-.84-5.24,6.19-20c1.66-3.48-1.87-12.82.23-16.35,4.64-7.77,9.35-10.89,9.35-10.89S364.94,142,356.88,148.88Z"/></g><g id="Calque_5" data-name="Calque 5"><path class="cls-8" d="M377.5,222.41c.12-3.33,9.84-7.1,18.56-5.95,8.9,1.17,16.41,7.4,15.76,9.11-.45,1.19-5.2.82-8.75-.35-5.15-1.7-5.14-4.19-8.41-4.56-5.71-.64-7.76,5-12.66,3.65C380.24,223.82,377.46,223.87,377.5,222.41Z"/></g><g id="Calque_7" data-name="Calque 7"><path class="cls-8" d="M431.08,206.05c-.25,1.14-20.15,11.48-20.15,11.48s-13.46-2.51-16.76-2.7-18,2.9-18,2.9l-20.38-11.68c.36,1.64,4.35,39.63,4,40.31s31.18,18.48,33.67,18.32,33.72-17.83,33.72-17.86S431.33,204.91,431.08,206.05Zm-22.14,29.3-17.5,4.23L377.5,234l-1.76-7.72,17.68-3.17,17,3.17Z"/></g></svg>