<svg id="Calque_1" data-name="Calque 1" xmlns="http://www.w3.org/2000/svg" xmlns:xlink="http://www.w3.org/1999/xlink" viewBox="0 0 188 192.88"><defs><style>.cls-1{fill:none;}.cls-2{clip-path:url(#clip-path);}.cls-3{fill:#b8775c;}.cls-4{clip-path:url(#clip-path-2);}.cls-5{fill:#d48f72;}.cls-6{fill:#6d3b25;}</style><clipPath id="clip-path"><polygon class="cls-1" points="129.72 83.44 129.72 83.44 146.06 83.44 146.06 116.39 129.72 116.39 129.72 83.44"/></clipPath><clipPath id="clip-path-2"><polygon class="cls-1" points="58.28 83.44 58.28 83.44 41.94 83.44 41.94 116.39 58.28 116.39 58.28 83.44"/></clipPath></defs><g class="cls-2"><path class="cls-3" d="M129.72,116.38l3-28.25s6.56-7.83,12.25-3.25c3.78,3.05-3.13,28.23-7.5,29.5C130,116.56,129.72,116.38,129.72,116.38Z"/></g><g class="cls-4"><path class="cls-3" d="M58.28,116.38l-3-28.25S48.72,80.3,43,84.88c-3.78,3.05,3.13,28.23,7.5,29.5C58,116.56,58.28,116.38,58.28,116.38Z"/></g><path class="cls-5" d="M83.24,161.37,60.61,137l-5.5-27-1.5-24.19V79.37A38.91,38.91,0,0,1,92.53,40.45H94a38.92,38.92,0,0,1,38.92,38.92v6.34l-1.5,24.19-5.5,27-22.64,24.42Z"/><path class="cls-6" d="M129.63,55.64c12,10.4,6.63,29.47,6.63,29.47L132.34,96s.84-5.33-6.19-20.35c-1.66-3.53,1.87-13-.23-16.62-4.64-7.9-9.35-11.07-9.35-11.07S121.57,48.65,129.63,55.64Z"/><path class="cls-6" d="M56.88,55.3c-12,10.23-6.62,29-6.62,29L54.17,95s-.84-5.24,6.19-20c1.66-3.48-1.87-12.83.23-16.35,4.64-7.77,9.35-10.89,9.35-10.89S64.94,48.42,56.88,55.3Z"/><path class="cls-6" d="M133.1,55.71q-1.08.48-2.37,1c10.52,10.58,5.52,28.44,5.52,28.44L132.34,96s.84-5.33-6.19-20.35c-1.66-3.53,1.87-13-.23-16.62l-.35-.58c-10.47,3.17-25.31,6-33.68,5.95-7.09,0-25.44-3-31.85-4.15-.73,4.2,1.77,11.7.32,14.74-7,14.76-6.19,20-6.19,20L50.25,84.29S47.62,75.05,50.19,66a14.48,14.48,0,0,1,.41-4.34c.83-2.68,5.6-7.75,5.6-7.75s-.59-4.86.09-6.14c3.69-7,23.65-12.85,33.76-13,22.2-.37,28.47,10.44,39.07,11.77,3.79.48,15.06-2.21,15.06-2.21A20.78,20.78,0,0,1,133.1,55.71Z"/></svg>