<svg id="Calque_1" data-name="Calque 1" xmlns="http://www.w3.org/2000/svg" xmlns:xlink="http://www.w3.org/1999/xlink" viewBox="0 0 788 1005"><defs><style>.cls-1{fill:none;}.cls-2{fill:#6d3b25;}.cls-3{clip-path:url(#clip-path);}.cls-4{fill:#b8775c;}.cls-5{clip-path:url(#clip-path-2);}.cls-6{fill:#d48f72;}</style><clipPath id="clip-path"><polygon class="cls-1" points="429.72 176.4 429.72 176.4 446.06 176.4 446.06 209.34 429.72 209.34 429.72 176.4"/></clipPath><clipPath id="clip-path-2"><polygon class="cls-1" points="358.28 176.4 358.28 176.4 341.94 176.4 341.94 209.34 358.28 209.34 358.28 176.4"/></clipPath></defs><path class="cls-2" d="M446.78,194.48c0,41-22.9,29.83-52.47,29.83s-54.6,11.15-54.6-29.83,0-58.41,54.29-58.55C443,135.8,446.78,153.5,446.78,194.48Z"/><polygon points="229.24 536.53 229.34 536.49 229.24 536.44 229.24 536.53"/><polygon points="229.34 536.49 229.44 536.53 229.44 536.44 229.34 536.49"/><polygon points="229.24 536.53 229.34 536.49 229.24 536.44 229.24 536.53"/><polygon points="229.34 536.49 229.44 536.53 229.44 536.44 229.34 536.49"/><g class="cls-3"><path class="cls-4" d="M429.72,209.34l3-28.25s6.56-7.83,12.25-3.25c3.78,3-3.13,28.23-7.5,29.5C430,209.52,429.72,209.34,429.72,209.34Z"/></g><g class="cls-5"><path class="cls-4" d="M358.28,209.34l-3-28.25s-6.56-7.83-12.25-3.25c-3.78,3,3.13,28.23,7.5,29.5C358,209.52,358.28,209.34,358.28,209.34Z"/></g><path class="cls-6" d="M383.24,254.33,360.61,229.9l-5.5-27-1.5-24.19v-6.35a38.92,38.92,0,0,1,38.92-38.92H394a38.93,38.93,0,0,1,38.92,38.92v6.35l-1.5,24.19-5.5,27-22.64,24.43Z"/><path class="cls-2" d="M429.63,148.6c12,10.39,6.63,29.47,6.63,29.47l-3.92,10.84s.84-5.33-6.19-20.35c-1.66-3.53,1.87-13-.23-16.62-4.64-7.9-9.35-11.07-9.35-11.07S421.57,141.6,429.63,148.6Z"/><path class="cls-2" d="M356.88,148.26c-12,10.22-6.62,29-6.62,29l3.91,10.66s-.84-5.25,6.19-20c1.66-3.48-1.87-12.83.23-16.36,4.64-7.76,9.35-10.88,9.35-10.88S364.94,141.38,356.88,148.26Z"/></svg>