<svg id="Calque_1" data-name="Calque 1" xmlns="http://www.w3.org/2000/svg" xmlns:xlink="http://www.w3.org/1999/xlink" viewBox="0 0 788 1005"><defs><style>.cls-1{fill:none;}.cls-2{clip-path:url(#clip-path);}.cls-3{fill:#b8775c;}.cls-4{clip-path:url(#clip-path-2);}.cls-5{fill:#d48f72;}.cls-6{fill:#6d3b25;}</style><clipPath id="clip-path"><polygon class="cls-1" points="429.72 177.02 429.72 177.02 446.06 177.02 446.06 209.96 429.72 209.96 429.72 177.02"/></clipPath><clipPath id="clip-path-2"><polygon class="cls-1" points="358.28 177.02 358.28 177.02 341.94 177.02 341.94 209.96 358.28 209.96 358.28 177.02"/></clipPath></defs><g class="cls-2"><path class="cls-3" d="M429.72,210l3-28.25s6.56-7.84,12.25-3.25c3.78,3-3.13,28.22-7.5,29.5C430,210.14,429.72,210,429.72,210Z"/></g><g class="cls-4"><path class="cls-3" d="M358.28,210l-3-28.25s-6.56-7.84-12.25-3.25c-3.78,3,3.13,28.22,7.5,29.5C358,210.14,358.28,210,358.28,210Z"/></g><path class="cls-5" d="M383.24,254.94l-22.63-24.42-5.5-27-1.5-24.2v-6.34A38.91,38.91,0,0,1,392.53,134H394a38.92,38.92,0,0,1,38.92,38.92v6.34l-1.5,24.2-5.5,27-22.64,24.42Z"/><path class="cls-6" d="M429.63,149.22c12,10.39,6.63,29.47,6.63,29.47l-3.92,10.83s.84-5.33-6.19-20.34c-1.66-3.54,1.87-13-.23-16.62-4.64-7.9-9.35-11.07-9.35-11.07S421.57,142.22,429.63,149.22Z"/><path class="cls-6" d="M356.88,148.88c-12,10.22-6.62,29-6.62,29l3.91,10.66s-.84-5.24,6.19-20c1.66-3.48-1.87-12.82.23-16.35,4.64-7.77,9.35-10.89,9.35-10.89S364.94,142,356.88,148.88Z"/><path class="cls-6" d="M372,146.17s-.94,8.77-3.94,13c-4.51,6.42-10.28,8.47-12.66,11.89-2.12,3.05-2.53,13.84-2.53,13.84s-5.31-8.9-5.49-12.12c-.13-2.34,2.95-9,2.95-9l-5.62,3.09s-.67-7.61.15-10.06c.75-2.22,5.19-7.21,5.19-7.21l-4.29.19s4.93-9.11,12.31-11c2.47-.65,10.27,1.14,10.27,1.14s1.84-10.4,23.92-11.23c26-1,41.65,12.84,41.65,12.84l-5.49,1.94a14,14,0,0,1,9.39,7.79c1.62,3.69,3.64,14.66,3.64,14.66l-4.73-2.32a27.21,27.21,0,0,1-.47,16.66c-.68,1.9-4.88,9.52-4.88,9.52s0-11.09-4.36-19.67a35.16,35.16,0,0,0-7.16-9.15l-1,5.07S410,154,394,154C388,153.94,372,146.17,372,146.17Z"/></svg>