<svg xmlns="http://www.w3.org/2000/svg" xmlns:xlink="http://www.w3.org/1999/xlink" viewBox="0 0 788 1005"><defs><style>.cls-1{fill:none;}.cls-2{clip-path:url(#clip-path);}.cls-3{fill:#b8775c;}.cls-4{clip-path:url(#clip-path-2);}.cls-5{fill:#d48f72;}.cls-6{fill:#6d3b25;}</style><clipPath id="clip-path"><polygon class="cls-1" points="429.72 176.4 429.72 176.4 446.06 176.4 446.06 209.34 429.72 209.34 429.72 176.4"/></clipPath><clipPath id="clip-path-2"><polygon class="cls-1" points="358.28 176.4 358.28 176.4 341.94 176.4 341.94 209.34 358.28 209.34 358.28 176.4"/></clipPath></defs><g id="Calque_1" data-name="Calque 1"><g class="cls-2"><path class="cls-3" d="M429.72,209.34l3-28.25s6.56-7.83,12.25-3.25c3.78,3-3.13,28.23-7.5,29.5C430,209.52,429.72,209.34,429.72,209.34Z"/></g><g class="cls-4"><path class="cls-3" d="M358.28,209.34l-3-28.25s-6.56-7.83-12.25-3.25c-3.78,3,3.13,28.23,7.5,29.5C358,209.52,358.28,209.34,358.28,209.34Z"/></g><path class="cls-5" d="M383.24,254.33,360.61,229.9l-5.5-27-1.5-24.19v-6.35a38.92,38.92,0,0,1,38.92-38.92H394a38.93,38.93,0,0,1,38.92,38.92v6.35l-1.5,24.19-5.5,27-22.64,24.43Z"/><path class="cls-6" d="M429.63,148.6c12,10.39,6.63,29.47,6.63,29.47l-3.92,10.84s.84-5.33-6.19-20.35c-1.66-3.53,1.87-13-.23-16.62-4.64-7.9-9.35-11.07-9.35-11.07S421.57,141.6,429.63,148.6Z"/><path class="cls-6" d="M356.88,148.26c-12,10.22-6.62,29-6.62,29l3.91,10.66s-.84-5.25,6.19-20c1.66-3.48-1.87-12.83.23-16.36,4.64-7.76,9.35-10.88,9.35-10.88S364.94,141.38,356.88,148.26Z"/></g><g id="Calque_5" data-name="Calque 5"><path class="cls-6" d="M354.14,187.12s-5.49-24.8-3.53-32.05c.82-3.06,5.6-8.86,5.6-8.86s-.6-5.56.08-7c3.69-8,23.65-14.69,33.77-14.89,22.19-.42,28.46,11.94,39.06,13.47,3.79.54,15.07-2.54,15.07-2.54a23.1,23.1,0,0,1-11.09,13c-9.19,4.66-30.5,9.93-41.21,9.89-8.66,0-34.1-5.19-34.1-5.19s-1.2,10.85-1.74,14.69C355.43,172.12,354.14,187.12,354.14,187.12Z"/></g></svg>