<svg id="Calque_1" data-name="Calque 1" xmlns="http://www.w3.org/2000/svg" viewBox="0 0 150 122.67"><defs><style>.cls-1{fill:#f7e4ec;}.cls-2{fill:#3d332f;}.cls-3{fill:#211616;}.cls-4{fill:#b53535;}.cls-5{fill:#f77777;}</style></defs><path class="cls-1" d="M87,51.54s12.38,7.21,14.91-4.42l-.16-.88-6.55-2.42-5.7,2.06-3.86,4.95Z"/><circle class="cls-2" cx="94.32" cy="48.2" r="3.69"/><path class="cls-2" d="M84.67,52.6s5.8-6.76,9.87-7.25A7.43,7.43,0,0,1,99.91,47s2.49,3.34,5.78-1.74a14.09,14.09,0,0,1-5.38-.74C94.57,42.26,89.38,43.36,84.67,52.6Z"/><polygon class="cls-3" points="63.94 85.21 60.41 81.65 66.75 81.8 74.99 83.43 82.43 81.98 89.59 81.5 82.43 87.79 74.91 90.37 67.24 88.01 63.94 85.21"/><path class="cls-1" d="M63.9,83l.39.91c.27.63.81,2.42,1.51,2.64L73,89.38a5.16,5.16,0,0,0,3.46.18l7.25-2.81c.87-.27,1.25-2.54,1.39-3.37l0-.09-10.21.18Z"/><path class="cls-2" d="M66.22,37.86c.41-.37,1.94-.76.64-2.61a9.08,9.08,0,0,0-4.6-2.93c-2.7-.82-8.9-.77-11.65,0-3.1.82-7.67,5.22-7.67,5.22s6.15-2.28,8.39-2.5a33.57,33.57,0,0,1,8.19.77C61.17,36.17,66.22,37.86,66.22,37.86Z"/><path class="cls-2" d="M83.78,37.77c-.41-.36-1.94-.75-.64-2.57a9,9,0,0,1,4.6-2.88c2.7-.82,8.9-.77,11.65,0,3.1.81,7.67,5.14,7.67,5.14s-6.15-2.25-8.39-2.46a34.06,34.06,0,0,0-8.19.76C88.83,36.1,83.78,37.77,83.78,37.77Z"/><path class="cls-1" d="M63.52,51.66S51.14,58.88,48.6,47.24l.16-.87,6.7-2.55L61,46l3.87,5Z"/><circle class="cls-2" cx="55.25" cy="48.2" r="3.69"/><path class="cls-4" d="M90.64,81.05s-12.45,5.38-15.75,5.38S59.33,81.2,59.33,81.2c3.91.6,10.16-1.17,12.35-.53A10.15,10.15,0,0,1,74.89,82a30.74,30.74,0,0,1,3.78-1.31C81.2,79.93,87.37,81.65,90.64,81.05Z"/><path class="cls-5" d="M89.59,81.5S83,89.06,79.67,89.77a19.18,19.18,0,0,1-9.52,0c-3.31-.71-9.74-8.15-9.74-8.15s11.17,4.49,14.47,4.49S89.59,81.5,89.59,81.5Z"/><path class="cls-2" d="M66.28,52.6S60.42,46,56.35,45.46A7.34,7.34,0,0,0,51.05,47s-2.5,3.34-5.79-1.74a14.15,14.15,0,0,0,5.39-.74C56.39,42.26,61.58,43.36,66.28,52.6Z"/></svg>