<svg id="Calque_1" data-name="Calque 1" xmlns="http://www.w3.org/2000/svg" viewBox="0 0 788 1005.07"><defs><style>.cls-1{fill:#f7e4ec;}.cls-2{fill:#3d332f;}.cls-3{fill:#310800;}.cls-4{fill:#993131;}.cls-5{fill:#ebb4c9;}.cls-6{fill:#b53535;}</style></defs><path class="cls-1" d="M418.83,144.09s12.38,7.22,14.92-4.41l-5.86-2.87L422,138.27l-4.54,5.12Z"/><path class="cls-2" d="M437.54,137.82c-3.29,5.08-5.78,1.74-5.78,1.74a6.85,6.85,0,0,0-5.13-1.47l-.21,0c-1.93.33-4.25,1.92-6.17,3.52a42,42,0,0,0-3.73,3.52,24.75,24.75,0,0,1,3.75-5.61,11.51,11.51,0,0,1,3.32-2.57c2.71-1.34,5.57-1.08,8.57.1A13.87,13.87,0,0,0,437.54,137.82Z"/><path class="cls-2" d="M397.7,128.4c.41-.34,1.93-.71.64-2.43-1-1.38-2.79-3.71-5.59-4.63a14.47,14.47,0,0,0-10.35.3c-2.92,1.27-8,6.43-8,6.43s6-3.42,8.19-3.94a18.24,18.24,0,0,1,9.26.06C394.32,125.06,397.7,128.4,397.7,128.4Z"/><path class="cls-3" d="M394.32,172.82s10.68-2.15,10.84-2.21,3.91,0,3.91,0l10.29,2.3-7.74,10.68-9.49.17Z"/><path class="cls-1" d="M395.37,144.22s-12.38,7.21-14.91-4.42l7.17-3,5.24,1.75,3.87,5Z"/><path class="cls-2" d="M427.41,140.62a3.65,3.65,0,0,1-7.16,1,3.86,3.86,0,0,1-.14-1,3.79,3.79,0,0,1,.16-1.07,11.51,11.51,0,0,1,3.32-2.57h.17a3.65,3.65,0,0,1,3.65,3.65Z"/><circle class="cls-2" cx="386.26" cy="140.46" r="3.65"/><path class="cls-4" d="M417.77,173.38l3.41-1s-6.84,11.93-9.91,12.81a13.63,13.63,0,0,1-8.86,0c-3.08-.88-9.36-12.81-9.36-12.81l2.87,1s4.39,9,10.75,9.42C412.87,183.18,417.77,173.38,417.77,173.38Z"/><path class="cls-2" d="M398.13,145.16s-5.18-6.74-9.25-7.23a9.86,9.86,0,0,0-6,1.63s-2.49,3.34-5.78-1.75a14,14,0,0,0,5.38-.73C388.24,134.82,393.43,135.92,398.13,145.16Z"/><path class="cls-5" d="M396.77,171.31l1,1.53a3.35,3.35,0,0,0,2,.58s5.35.18,7.13.18,6.88-.18,6.88-.18a3.27,3.27,0,0,0,2-.6l.4-1.19Z"/><path class="cls-6" d="M421.18,172.37l-3.41,1s-8.22-1.84-11-1.83-10.84,1.83-10.84,1.83l-2.87-1c.44-.59,8.18-5,10.53-4.28a23.19,23.19,0,0,1,3.16,1.15s1-.42,3.35-1.15S420.74,171.78,421.18,172.37Z"/><path class="cls-2" d="M415.26,128.4c-.41-.34-1.94-.71-.64-2.43,1.05-1.38,2.79-3.71,5.59-4.63a14.47,14.47,0,0,1,10.35.3c2.92,1.27,8,6.43,8,6.43s-6-3.42-8.19-3.94a18.24,18.24,0,0,0-9.26.06C418.64,125.06,415.26,128.4,415.26,128.4Z"/></svg>