<svg xmlns="http://www.w3.org/2000/svg" viewBox="0 0 788 1005.07"><defs><style>.cls-1{fill:#3d332f;}.cls-2{fill:#b53535;}.cls-3{fill:#f77777;}.cls-4{fill:#f4e7df;}</style></defs><g id="Calque_3" data-name="Calque 3"><path class="cls-1" d="M416.19,145.16s7.72-3.58,10.51-3.78,7.22,1.52,10.51-3.57c0,0-8.73,1-11.6,1.55C422.9,139.91,418.67,141.25,416.19,145.16Z"/><path class="cls-1" d="M398.08,130.42c.4-.37,1.93-.76.63-2.61a9,9,0,0,0-4.6-2.93c-2.7-.82-8.9-.78-11.65,0-3.09.83-7.66,5.23-7.66,5.23s6.15-2.29,8.38-2.5a33,33,0,0,1,8.19.77C393,128.73,398.08,130.42,398.08,130.42Z"/><path class="cls-1" d="M415.63,130.33c-.4-.37-1.93-.75-.63-2.57a9,9,0,0,1,4.6-2.89c2.7-.81,8.9-.76,11.64,0,3.1.81,7.67,5.14,7.67,5.14s-6.15-2.25-8.39-2.46a34,34,0,0,0-8.18.76C420.69,128.66,415.63,130.33,415.63,130.33Z"/><path class="cls-2" d="M425.61,170.74s-15.56,6.47-18.86,6.47-18.58-6.47-18.58-6.47c4.89,1.54,13-.88,15.19-.24a5.79,5.79,0,0,1,3.39,2.26,7,7,0,0,1,3.6-2.26C412.88,169.76,420.58,172.28,425.61,170.74Z"/><path class="cls-3" d="M421.44,172.28s-6.62,8.61-9.91,9.33a19.5,19.5,0,0,1-9.52,0c-3.31-.72-9.74-9.2-9.74-9.2s11.16,4.48,14.46,4.48S421.44,172.28,421.44,172.28Z"/><path class="cls-4" d="M395.81,143.92s-12.38,7.22-14.91-4.41l.16-.88,12.25-.36,3.86,4.95Z"/><path class="cls-1" d="M398.13,145.16s-5.86-6.66-9.92-7.14a7.37,7.37,0,0,0-5.31,1.54s-2.49,3.34-5.78-1.75a14,14,0,0,0,5.38-.73C388.24,134.82,393.43,135.92,398.13,145.16Z"/><path class="cls-1" d="M393.18,141.54c-.73,3.9-9.25,6.18-10.35-2.47l2.21-2.85,4.51.37,3.87,1.83S393.75,138.46,393.18,141.54Z"/></g></svg>