<svg id="Calque_1" data-name="Calque 1" xmlns="http://www.w3.org/2000/svg" viewBox="0 0 788 1005.07"><defs><style>.cls-1{fill:#f7e4ec;}.cls-2{fill:#3d332f;}.cls-3{fill:#310800;}.cls-4{fill:#993131;}.cls-5{fill:#ebb4c9;}.cls-6{fill:#b53535;}</style></defs><path class="cls-1" d="M418.83,144.09s12.38,7.22,14.92-4.41l-.16-.88-12.25-.36-3.87,4.95Z"/><path class="cls-2" d="M421.42,142c.73,3.9,9.24,6.18,10.34-2.47l-2.21-2.85-4.5.37-3.87,1.82S420.84,139,421.42,142Z"/><circle class="cls-2" cx="426.04" cy="139.64" r="2.8"/><path class="cls-2" d="M416.53,145.16s5.85-7.6,9.92-8.08c3.1-.37,5.31,2.48,5.31,2.48s2.5,3.34,5.79-1.75a14,14,0,0,1-5.39-.73C426.42,134.82,421.23,135.92,416.53,145.16Z"/><path class="cls-2" d="M398,133.49c.41-.34,1.94-.71.64-2.44a9.15,9.15,0,0,0-4.6-2.73,31.26,31.26,0,0,0-11.65,0c-3.1.77-7.66,4.87-7.66,4.87s6.14-2.13,8.38-2.33a35.62,35.62,0,0,1,8.19.72C393,131.91,398,133.49,398,133.49Z"/><path class="cls-3" d="M394.32,172.82s10.68-2.15,10.84-2.21,3.91,0,3.91,0l10.29,2.3-9.69,10.42h-4.95Z"/><path class="cls-2" d="M415.57,133.4c-.41-.34-1.93-.7-.64-2.4a9.2,9.2,0,0,1,4.6-2.69,32.12,32.12,0,0,1,11.65,0c3.1.76,7.67,4.8,7.67,4.8s-6.15-2.1-8.39-2.3a36.18,36.18,0,0,0-8.19.71C420.62,131.84,415.57,133.4,415.57,133.4Z"/><path class="cls-1" d="M395.37,144.22s-12.38,7.21-14.91-4.42l.16-.87,12.25-.37,3.87,5Z"/><circle class="cls-2" cx="388.2" cy="139.58" r="2.8"/><path class="cls-4" d="M417.77,173.38l3.41-1s-6.84,11.93-9.91,12.81a13.63,13.63,0,0,1-8.86,0c-3.08-.88-9.36-12.81-9.36-12.81l2.87,1s7.29,8,10.85,8S417.77,173.38,417.77,173.38Z"/><path class="cls-2" d="M392.63,141.69c-.73,3.9-9.24,6.18-10.35-2.47l2.21-2.85,4.51.36,3.87,1.83S393.21,138.61,392.63,141.69Z"/><path class="cls-2" d="M398.13,145.16s-5.85-7.6-9.91-8.08c-3.11-.37-5.32,2.48-5.32,2.48s-2.49,3.34-5.78-1.75a14,14,0,0,0,5.38-.73C388.24,134.82,393.43,135.92,398.13,145.16Z"/><path class="cls-5" d="M397.12,172.37l.67,1.43a2.37,2.37,0,0,0,2,1.35s5.35.42,7.13.42,6.88-.41,6.88-.41a2.39,2.39,0,0,0,2-1.41l.4-.94Z"/><path class="cls-6" d="M421.18,172.37l-3.41,1s-8.21-.79-11-.79-10.85.79-10.85.79l-2.87-1c.44-.59,8.18-5,10.53-4.28a23.19,23.19,0,0,1,3.16,1.15s1-.42,3.35-1.15S420.74,171.78,421.18,172.37Z"/></svg>