<?xml version="1.0" encoding="utf-8"?>
<!-- Generator: Adobe Illustrator 26.0.3, SVG Export Plug-In . SVG Version: 6.00 Build 0)  -->
<svg version="1.1" id="Calque_1" xmlns="http://www.w3.org/2000/svg" xmlns:xlink="http://www.w3.org/1999/xlink" x="0px" y="0px"
	 viewBox="0 0 788 1005" style="enable-background:new 0 0 788 1005;" xml:space="preserve">
<style type="text/css">
	.st0{fill:#718985;}
	.st1{fill:#AF5228;}
	.st2{fill:#B85727;}
	.st3{fill:#A85B3B;}
	.st4{fill:#924125;}
	.st5{fill:#DBDBDB;}
	.st6{fill:#95C1BE;}
	.st7{fill:#87AAA7;}
	.st8{fill:#444444;}
	.st9{fill:none;stroke:#444444;stroke-miterlimit:10;}
	.st10{fill:#D3D3D3;}
	.st11{fill:#7C9995;}
	.st12{fill:#E8E8E8;}
	.st13{fill:#888215;}
	.st14{fill:#9E9520;}
</style>
<path class="st0" d="M345.1,188.8l13.6-13.4c0,0,20.3-6.6,38.5-6.4s36.3,4.3,36.3,4.3l16.5,15.5l1.9,19l-108.4,4.1L345.1,188.8z"/>
<path class="st1" d="M455.4,238.2c-1.2,27.7,17.9,53.5,17.9,53.5s31.3,53.8,41.5,71.9c4.8,8.5,14.5,26.5,36.1,15.1l0,0
	c17.8-9.4,11.8-28.1,8-36.7c-7.7-17.5-26.9-51.3-31.4-69.7c-2.3-9.5-2.9-23.2-9.1-36.1c-4.1-8.7-11-15.8-19.4-20.5
	c-6.2-3.4-15.9-8.5-27.7-13.7l2.6,10.7C463.1,216.8,455.9,226.8,455.4,238.2L455.4,238.2z"/>
<g>
	<path class="st2" d="M558.1,353.4c-11.5-13.1-33.8-6.8-41.7-4.1s-22.1,11.2-29.1,15.4c-17.9,10.6-46.2,30.5-63.9,40.7
		c-11.6,6.8-18,10.1-14.6,17.1c3.1,6.4,16.7,3.3,21.9,2.2c21.8-4.8,64.7-13.9,86.6-21.9c8.9-3.3,26.2-11.4,33.3-16.9
		C570.4,370.7,561.4,357.2,558.1,353.4z"/>
</g>
<ellipse transform="matrix(0.5823 -0.813 0.813 0.5823 -89.9607 199.3972)" class="st3" cx="149.1" cy="187.2" rx="12.2" ry="12.1"/>
<path class="st2" d="M462.7,241.6c-0.6,38.4-3.3,44.3,2.6,45.4c-12.6,10.8,6.2,49.8-2.7,63.8c-2.5,3.8-11.4,10.1-15.8,9.1
	c-12.5-2.9-24-30.7-34.8-37.7c-6.3-4.1-23.6-3.6-30.2,0c-11.2,6.2-22.3,34.9-34.8,37.7c-4.4,1-13.4-5.2-15.8-9.1
	c-8.9-14-4.6-53.2-17.2-64c-10.6-9.1-36.2-3.9-36.9-42.3c-0.4-26.6,35-37.3,35-37.3l40.1-19.9c2.6-1.3,5-2.9,7.1-4.8
	c0.8-0.7,1.6-1.5,2.3-2.3l0.6-0.7v-0.1c3.9-4.7,6.5-10.4,7.2-16.4c0.2-1.4,0.3-2.8,0.2-4.2V156v-4.6h53.6l0.1,5v1.5v3.2
	c0,0.3,0,0.7,0,1l0,0c0,0.6,0.1,1.3,0.2,1.9c0.2,1.5,0.5,3.1,0.9,4.6c2.2,7.7,7.6,14,14.7,17.6l40.5,20.1c1,0.5,2.1,1,3.2,1.3
	C490,209.9,463.1,218.3,462.7,241.6z"/>
<path class="st4" d="M425,168.8l-1,1.2c-5.2,6.3-28.8,35-41.8,44.3c-3.2,2.3-5.7,3.4-7.2,2.7c-6.8-3.3-14.8-35.1-14.8-35.1l0.1-0.1
	c0.6-0.6,1.2-1.2,1.7-1.9c0.3-0.4,0.7-0.8,1-1.3l0.1-0.1c3.3-4.5,5.5-9.7,6.7-15.2c0-0.2,0.1-0.4,0.1-0.6c0.3-1.4,0.5-3,0.7-4.8
	c0.1-0.7,0.1-1.4,0.2-2.2c0.1-1.4,0.2-2.9,0.3-4.5h52.7v0.2v4.3v6.7l0.1,0.8l0.1,0.7l0.9,4.6L425,168.8z"/>
<path class="st2" d="M221.5,356.9c15.5-9,9.7-32,7.2-40.2c-2.4-8.2-11.1-23.6-15.3-31.2c-10.8-19.4-45.3-70.4-50.6-91.5
	c-3.7-14.7-24.5-0.7-24.5-0.7s8.3,15.9,11.5,26.2c6.6,21.7,9.3,52.5,19,88.8c2.5,9.5,11.1,27.7,16.7,35.7
	C201.3,366,217.1,359.6,221.5,356.9z"/>
<path class="st2" d="M333.2,254.6c-8.5,26.3-35.5,43.8-35.5,43.8s-48.2,39.4-64.1,52.8c-7.5,6.3-22.8,19.7-39.1,1.5l0,0
	c-13.4-15-1.2-30.5,5.4-37.2c13.3-13.7,43.2-38.6,53.9-54.2c7.9-11.6,15.6-32.7,38-41.5c0,0,17.5-9.3,32.5,4l0.6,0.5
	C333.5,231.8,336.7,243.7,333.2,254.6z"/>
<path class="st2" d="M162.2,188c-0.6-4.9-0.3-9.8,0.9-14.5l3.9-15.1c0.1-0.3,0.1-0.6,0-0.9l-5.8-24c-0.3-1.4-2.1-2-3.2-1
	c-1.3,1.1-2.6,2.4-3,3.2c-2.5,5,0.5,14.5,0.8,20c0.1,0.7-2.4,2.6-3.1,2.8c-1.8,0.7-6.4-1.3-9.4-2.8c-1.9-0.9-3.4-2.6-4.1-4.6
	c-0.8-2.3-1.9-5.4-2.5-6.9c-0.2-0.6-0.1-1.3,0.3-1.9l15.1-13.2c1.2-1.6,1.6-3.5,1.7-4.9c0.1-1.5-0.7-2.9-2-3.5s-2.7-1.1-3.3-0.5
	l-23.3,20c-1.4,1.5-2.9,5.7-2.9,7.8v7.3c0,2.3,0.5,4.5,1.5,6.6l14.6,31.3v0.1h0.1l0.6,1.3l0,0c0.4-0.7,1.2-1.1,1.9-1l19.8,2.5
	c1.3,0.2,2.3-0.9,2.2-2.2L162.2,188z"/>
<path class="st5" d="M308.1,207.9c0,0-23.2,4.8-32.6,12.7c-9.4,7.9-30,47.6-33,49.9c-3,2.2,36.4,46.9,37.3,46.5
	c0.9-0.4,12.4-5.2,18.4-10.9c6-5.6,14.6-18.6,14.6-18.6l20.4,10.9L308.1,207.9z"/>
<path class="st5" d="M478.8,206.5c0,0,23.2,4.8,32.6,12.7s22.7,59.7,25.7,62c3,2.3-42.9,50.3-43.8,49.9s-3.2-4.2-9.2-9.8
	c-6-5.6-10-35.1-10-35.1l-20.5,10.9L478.8,206.5z"/>
<path class="st6" d="M306.3,206.8c-2.5,4.9,9.2,80.8,9.2,80.8l-6.1,192c0.1,2.6,2,4.9,4.6,5.4l35.2,4.7c32,6,64.9,5.4,96.7-1.5
	l31-5.7c3.5-0.8,5.9-3.9,5.8-7.4c-1.3-32.7-3.9-179-3.9-179l5.8-88.4l-34.5-18.8l-53,124.5l-52-124.6L306.3,206.8z"/>
<g>
	<path class="st7" d="M391.1,324.8c1.1,44.1,1.1,88.7,0.8,132.8l-0.3,22.1c-0.5,6.7,2.2,9.9,8.5,11.9c1.7,0.6,3.5,1.2,5.2,1.8
		c-1.8-0.5-3.6-1-5.3-1.5c-3.5-1-7.4-2.8-8.6-6.6c-0.6-1.8-0.7-3.8-0.7-5.6l-0.3-22.1C390,413.5,390,368.9,391.1,324.8L391.1,324.8z
		"/>
</g>
<g>
	<circle class="st8" cx="400.2" cy="327.2" r="3.9"/>
	<circle class="st0" cx="400.2" cy="327.2" r="2.6"/>
</g>
<g>
	<circle class="st8" cx="400.2" cy="394.7" r="3.9"/>
	<circle class="st0" cx="400.2" cy="394.7" r="2.6"/>
</g>
<line class="st9" x1="403.6" y1="327.2" x2="405.9" y2="327.2"/>
<line class="st9" x1="403" y1="394.7" x2="405.3" y2="394.7"/>
<path class="st10" d="M362,179.9l26.6,6.5c2.5,0.6,4.7,2.2,6,4.5l3,5.3l3.4-5.7c1.2-2,3-3.5,5.2-4.2l23.5-7.7l13.1,13.2l-45.7,121.6
	l-51.1-126L362,179.9z"/>
<path class="st7" d="M433.5,173.3l-42.4,151.5c0,0,35.8-43.8,62.5-109.9C454.2,214.1,433.5,173.3,433.5,173.3z"/>
<path class="st7" d="M358.7,175.4l39,133.5l-2.5,5.6c0,0-53.2-66.1-59.4-97.9C335.8,217.2,358.7,175.4,358.7,175.4z"/>
<path class="st11" d="M340.8,207.9l-7.6-13.6c0,0,17-14.9,25.5-18.9L340.8,207.9z"/>
<path class="st11" d="M450.1,206.5l8.1-13.3c0,0-16.3-15.6-24.7-20L450.1,206.5z"/>
<path class="st12" d="M374.9,203.8v-8.6c0-3.4,2.9-6.1,6.3-5.9c6,0.5,14,2.6,14,10.2s-8,9.7-14,10.2
	C377.8,210,374.9,207.2,374.9,203.8z"/>
<path class="st12" d="M420.4,203.8v-8.6c0-3.4-2.9-6.1-6.3-5.9c-6,0.5-14,2.6-14,10.2c0,7.6,8,9.7,14,10.2
	C417.5,210,420.4,207.2,420.4,203.8z"/>
<path class="st5" d="M398.1,206.6H397c-2,0-3.6-1.6-3.6-3.6v-5c0-2,1.6-3.6,3.6-3.6h1.1c2,0,3.6,1.6,3.6,3.6v5
	C401.7,205,400.1,206.6,398.1,206.6z"/>
<path class="st12" d="M279.8,318l-2.4,2c-0.8,0.6-1.9,0.5-2.6-0.2l-36.4-44.1c-0.6-0.8-0.5-1.9,0.2-2.6l2.4-2
	c0.8-0.6,1.9-0.5,2.6,0.2l36.4,44.1C280.7,316.2,280.6,317.4,279.8,318z"/>
<path class="st12" d="M538.6,282.6l2.3,2.1c0.7,0.7,0.8,1.8,0.1,2.6l-43.5,47.4c-0.7,0.7-1.8,0.8-2.6,0.1l-2.3-2.1
	c-0.7-0.7-0.8-1.8-0.1-2.6l43.5-47.4C536.7,281.9,537.8,281.9,538.6,282.6z"/>
<g id="GcAfxX_00000158726393485427391440000013673085389559127732_">
	<g>
		<path class="st13" d="M156.6,100.5c0.5,0.8,0.9,1.6,1.4,2.4c0.2,0.2,0.4,0.4,0.9,1c-0.2-0.9-0.3-1.1-0.4-1.3
			c-0.4-1.8-0.7-3.5-1.2-5.2c0.1,0,0.3,0,0.5-0.1c0.5,1.6,1.1,3.2,1.6,4.9c0.1,1.1,0.1,2.4,0.2,3.5c0.1,1.4,0.3,2.8,0.4,4.1
			c0.1,0.6,0.1,1.1,0.1,1.8c0,0.7,0.1,1.4,0.2,2.5c0.5-1.7,0.9-3,1.4-4.3c0.1,0.3,0.3,0.5,0.8,1.4c3.1-5.3,5.7-10.1,8.4-14.8
			c0.6-0.3,1.2-0.8,2.1-1.4c-0.3,1.8-0.5,3.2-0.7,4.4c-0.2,0.2-0.2,0.4-0.2,0.5s0.1,0.2,0,0.2c-1.1,1.5-2.2,2.9-3.4,4.3
			c0,0.1,0.2,0.2,0.2,0.2c-0.8,1-1.6,2.1-2.7,3.6c-0.3,0.9-0.7,2.3-1.3,3.7c-1.5,1.3-3.1,2.6-3.9,3.4c-1.2,5.4-2.1,10.1-3.2,14.8
			c-0.1,0,0.1,0.2,0.2,0.2c0,0,0.1,0,0.2-0.1c4.6-3.8,9-7.7,13.5-11.5c0.4-0.1,0.8-0.3,1.7-0.5c-1,1.9-1.7,3.2-2.5,4.5
			c-0.5,0-1.2,0-1.7,0c-0.3,0.7-0.4,1.2-0.4,1.1c-3,2.5-6.5,3.8-7.9,7.4c-8.6,3.2-8.5,15.4-19.1,18.1c7-5.8,11.8-11.8,14.6-19.2
			c-0.5-0.6-1-1.1-1.5-1.7c-0.2-0.2-0.4-0.4-0.5-0.6v-0.1c-2.4-6.7-5.6-12.9-9.7-18.7c0-0.8,0-1.6,0-2.9c1.2,0.9,2.1,1.8,3,2.5
			c0.1,0.1,0.2,0.2,0.3,0.3c0.1,0.1,0.3,0.2,0.5,0.4c2.6,5.3,5.1,10.7,7.7,16c0.2,1.2,0.4,2.4,0.8,5.1c0.8-4.5,1.4-7.5,1.9-10.6
			c0.2-1.6,0.4-3.1,0.6-4.7V115c0.1-0.1,0.1-0.1,0.1-0.3c-0.1-1.6-0.1-3.3-0.2-4.8c-0.2-2-0.5-3.9-0.7-5.7c-1.2-0.5-2.3-1-3.3-1.4
			c-0.3-0.1-0.4-0.2-0.6-0.3h-0.1c-3.1-5.2-8.5-7.8-13.2-11.4c-0.2-0.5-0.4-0.9-0.9-1.9c2.3,0.8,4.2,1.4,5.9,2.1
			C148.7,95.7,152.6,98.2,156.6,100.5z"/>
		<path class="st14" d="M164,97c2.1-0.4,2.3,1.6,2.7,3c1.6-1.2,3-2.4,4.4-3.6c-2.7,4.7-5.4,9.4-8.4,14.8c-0.5-0.9-0.6-1.2-0.8-1.4
			c0.4-1,0.7-2.1,1.1-3.3c-1.1-0.2-2.2-0.5-3.3-0.7c-0.1-1.1-0.1-2.4-0.2-3.5C160.2,99.8,161.6,97.6,164,97z"/>
		<path class="st13" d="M156.9,95.5c-0.1-0.2-0.2-0.5-0.3-0.8c-0.2,0.2-0.3,0.3-0.5,0.4c0-1.3,0-2.5,0-3.7c0.1,0.4,0.3,0.8,0.4,1.1
			c0.1,0.2,0.2,0.2,0.3,0.4c0.1,0.2,0.1,0.3-1.1-2.1c1.4,2.3,1.2,2.2,1.2,2c0,0,0-0.1-0.1-0.2c-0.1-0.9-0.1-1.8-0.2-2.7
			c0.9-5.3,1.8-10.6,2.8-15.8c0.4-0.7,0.8-1.4,1.4-2.3c3.1,8.3,1.1,15.5-3,22.3C157.5,94.6,157.2,95.2,156.9,95.5z"/>
		<path class="st14" d="M155.6,121.8c0,0.1,0,0.6,0.1,1.1c0.1,0.3,0.1,0.5,0.2,0.8c0.1,0.6,0.2,1.2,0.3,1.8
			c-2.6-5.3-5.1-10.7-7.7-16c1.1,1.1,2.2,2.3,3.4,3.4c1.5-1.8,3-1,4.6,0c1.1,0.8,2.2,1.5,3.2,2.3c-0.2,1.6-0.4,3.1-0.6,4.7
			C158,120.5,157,121,155.6,121.8z"/>
		<path class="st14" d="M154.5,97.2c0.7,1,1.5,2.2,2.2,3.3c-4.1-2.3-7.9-4.9-10.2-9.1c0.7,0.3,1.5,0.5,2.2,0.8
			c-0.2-7.1,3.5-3.4,6.2-2.4c0.2-0.1,0.3,0,0.5-0.1c0.1,0.6,0.4,1.3,0.6,1.8c0,1.3,0,2.5,0,3.7C155.5,95.9,155,96.5,154.5,97.2z"/>
		<path class="st13" d="M154,86.4c0.3,0.4,0.4,0.9,0.7,1.3c-0.2,0.1-0.2,0.2-0.4,0.3c-0.9-0.4-1.9-0.8-2.8-1.2
			c-0.2,0-0.4-0.2-0.5-0.2c-0.8-0.4-1.7-0.8-2.5-1.2c-2.3-4.8-6.6-7.5-10.8-10.4c-0.2-0.7-0.6-1.3-1.1-2.4c1.6,0.6,2.8,1,4,1.4
			c3,3.5,6.1,6.7,10.4,8.5c0.6,0.7,1.2,1.4,1.7,2.1C153.3,85.2,153.7,85.8,154,86.4z"/>
		<path class="st14" d="M145,109.1c4.1,5.7,7.3,12,9.7,18.7C149.5,122.6,145.2,116.9,145,109.1z"/>
		<path class="st13" d="M138.9,62.5L138.9,62.5c-0.1-0.3-0.2-0.5-0.3-0.8c0-0.6-0.1-1.1-0.2-2c0.7,0.4,1.1,0.7,1.5,0.9
			c3.2,4.7,6.6,9.4,9.8,14.1c0.4,1.4,0.7,2.8,1.2,5c-1.2-1.2-1.9-1.7-2.6-2.4C145.9,71.9,143,66.8,138.9,62.5z"/>
		<path class="st14" d="M141.6,91.1c4.5,3.7,10,6.2,13.2,11.4C149,100.3,144.2,97,141.6,91.1z"/>
		<path class="st14" d="M138.8,62.4c4.2,4.3,7,9.5,9.5,14.9C143.7,73.4,139.7,68.9,138.8,62.4z"/>
		<path class="st14" d="M172.1,118.6c-4.6,3.8-9,7.7-13.5,11.5C161.6,124.7,165.6,120.2,172.1,118.6z"/>
		<path class="st14" d="M137.8,74.9c4.1,2.8,8.5,5.6,10.8,10.4C143.8,83.1,140,79.9,137.8,74.9z"/>
		<path class="st14" d="M149.8,74.8c-3.2-4.7-6.6-9.4-9.8-14.1C145.4,63.9,148.3,68.8,149.8,74.8z"/>
		<path class="st14" d="M159.4,74.2c-0.9,5.3-1.8,10.6-2.8,15.8C155.9,84.5,156.2,79.1,159.4,74.2z"/>
		<path class="st14" d="M161.2,131.1c1.3-3.6,4.8-4.9,7.9-7.4c-0.1,0.1,0.2-0.4,0.4-1.1c0.5,0,1.2,0,1.7,0
			C169,126.6,165.5,129.3,161.2,131.1z"/>
		<path class="st14" d="M165.1,111.9c0.5-1.5,1-2.8,1.3-3.7c1.2-1.5,1.9-2.5,2.7-3.6c0-0.1-0.2-0.2-0.2-0.2c1.1-1.5,2.2-2.9,3.4-4.3
			C171.4,104.9,168.8,108.6,165.1,111.9z"/>
		<path class="st14" d="M151.1,82.5c-4.2-2-7.4-5-10.4-8.5C145.2,75.5,148.5,78.5,151.1,82.5z"/>
		<path class="st14" d="M152.2,82.7c0.1,0,0.3-0.1,0.4-0.1c0.5,1.3,1.1,2.6,1.5,3.9c-0.5-0.7-0.9-1.3-1.3-1.9
			C152.6,84,152.3,83.3,152.2,82.7z"/>
		<path class="st14" d="M157.9,97.3c-0.1,0-0.3,0-0.5,0.1c-0.2-0.6-0.4-1.3-0.6-1.8c0.3-0.4,0.6-1,0.9-1.4
			C157.8,95.3,157.9,96.3,157.9,97.3z"/>
		<path class="st14" d="M159.6,110.1c0.1,1.6,0.1,3.3,0.2,4.8C159.7,113.3,159.6,111.7,159.6,110.1z"/>
		<path class="st13" d="M154.3,88c0.2-0.1,0.2-0.2,0.4-0.3c0.2,0.7,0.5,1.3,0.7,2c-0.2,0.1-0.3,0-0.5,0.1
			C154.7,89.3,154.5,88.6,154.3,88z"/>
		<path class="st14" d="M152.1,82C151.3,80.8,151.1,80.7,152.1,82C151.4,80.5,151.5,80.8,152.1,82z"/>
		<path class="st14" d="M154.9,102.6c0.3,0.1,0.4,0.2,0.6,0.3C155.3,102.8,155.1,102.8,154.9,102.6z"/>
		<path class="st14" d="M138.6,61.7c0.1,0.3,0.2,0.5,0.3,0.8C138.8,62.2,138.7,62,138.6,61.7z"/>
		<path class="st14" d="M154.7,127.9c0.2,0.2,0.4,0.4,0.5,0.6C155.1,128.3,154.9,128,154.7,127.9z"/>
		<path class="st14" d="M172.4,99.9c0.2-0.2,0.2-0.4,0.2-0.5C172.6,99.6,172.6,99.7,172.4,99.9z"/>
		<path class="st14" d="M148.2,109c-0.1-0.1-0.2-0.2-0.3-0.3C148,108.8,148.2,109,148.2,109z"/>
		<path class="st14" d="M156.8,92.8c0,0.1,0,0.1,0.1,0.2l-0.2,0.2c-0.1-0.2-0.2-0.2-0.3-0.4C156.6,92.7,156.7,92.7,156.8,92.8z"/>
		<path class="st14" d="M151,86.6c0.2,0,0.4,0.2,0.5,0.2C151.4,86.8,151.2,86.6,151,86.6z"/>
		<path class="st14" d="M150.8,79.5c0.1,0.2,0.1,0.3,0.1,0.3h-0.1C150.8,79.7,150.9,79.6,150.8,79.5L150.8,79.5z"/>
		<path class="st14" d="M160.2,109.9c0.1,0.6,0.1,1.1,0.1,1.8C160.4,111.2,160.4,110.5,160.2,109.9z"/>
		<path class="st14" d="M159,104c-0.6-0.6-0.8-0.9-0.9-1c0.2-0.1,0.3-0.2,0.5-0.3C158.7,102.9,158.8,103.1,159,104z"/>
		<path class="st14" d="M156.8,93.1c0,0.1,0.2,0.2-1.2-2C156.8,93.4,156.8,93.3,156.8,93.1C156.7,93.1,156.9,92.9,156.8,93.1z"/>
		<path class="st13" d="M155.8,122.9c0.1,0.3,0.1,0.5,0.2,0.8C155.9,123.4,155.9,123.2,155.8,122.9z"/>
	</g>
</g>
</svg>
