<?xml version="1.0" encoding="utf-8"?>
<!-- Generator: Adobe Illustrator 26.0.3, SVG Export Plug-In . SVG Version: 6.00 Build 0)  -->
<svg version="1.1" id="Calque_1" xmlns="http://www.w3.org/2000/svg" xmlns:xlink="http://www.w3.org/1999/xlink" x="0px" y="0px"
	 viewBox="0 0 788 455" style="enable-background:new 0 0 788 455;" xml:space="preserve">
<style type="text/css">
	.st0{fill:#B85727;}
	.st1{fill:#924125;}
	.st2{fill:none;stroke:#000000;stroke-width:3;stroke-miterlimit:10;}
	.st3{fill:#473415;}
	.st4{fill:#472E1D;}
	.st5{fill:#4C443F;}
	.st6{fill:#5A5A5A;}
	.st7{fill:#3D3D3D;}
	.st8{fill:#161615;}
</style>
<path class="st0" d="M532.6,157.8c-0.6,39.9-27.2,34.5-38.3,43.9c-13.1,11.2-8.6,51.9-17.9,66.5c-2.6,3.9-11.8,10.5-16.4,9.4
	c-13-3-24.9-31.9-36.1-39.1c-6.5-4.3-24.5-3.7-31.4,0c-11.6,6.4-23.2,36.2-36.1,39.1c-4.6,1-13.9-5.4-16.4-9.4
	c-9.2-14.5-4.8-55.2-17.9-66.5c-11-9.4-37.6-4-38.3-43.9c-0.4-27.6,36.3-38.7,36.3-38.7l41.6-20.7c2.7-1.3,5.2-3,7.4-5
	c0.8-0.7,1.7-1.6,2.4-2.4l0.6-0.7v-0.1c4-4.9,6.7-10.8,7.5-17c0.2-1.5,0.3-2.9,0.2-4.4v-2.9v-4.7h55.7l0.1,5.2v1.6v3.3
	c0,0.3,0,0.7,0,1l0,0c0,0.6,0.1,1.3,0.2,2.1c0.2,1.6,0.5,3.2,0.9,4.8c2.3,8,7.9,14.5,15.3,18.3l42.2,20.9c1,0.5,2.2,1,3.3,1.3
	C504.7,122,532.9,133.6,532.6,157.8z"/>
<path class="st1" d="M437.2,79.4l-1,1.2c-5.4,6.5-29.9,36.3-43.4,46c-3.3,2.4-5.9,3.5-7.5,2.8C378.2,126,369.9,93,369.9,93l0.1-0.1
	c0.6-0.6,1.2-1.2,1.8-2c0.3-0.4,0.7-0.8,1-1.3l0.1-0.1c3.4-4.7,5.7-10.1,7-15.8c0-0.2,0.1-0.4,0.1-0.6c0.3-1.5,0.5-3.1,0.7-5
	c0.1-0.7,0.1-1.5,0.2-2.3c0.1-1.5,0.2-3,0.3-4.7H436v0.2v4.5v7l0.1,0.8l0.1,0.7l0.9,4.8L437.2,79.4z"/>
<path class="st2" d="M472.5,164.8c12.4,26,42.5,40.3,42.5,40.3s55,34.1,73.1,45.7c8.5,5.5,26.2,17.2,40.5-3.7l0,0
	c11.7-17.2-2.9-31.6-10.6-37.6c-15.6-12.3-49.7-33.8-62.8-48.5c-9.8-10.9-20.6-31.5-44.8-37.6c0,0-19.3-7.2-33,8.6l-0.5,0.6
	C469.2,141.5,467.4,154.1,472.5,164.8L472.5,164.8z"/>
<path class="st0" d="M614,211.8c-19.3-7.5-34,12.3-38.8,19.7c-4.9,7.5-11.1,24.8-14.1,33.3c-7.8,21.8-18.2,59.5-26.2,80.8
	c-5.2,14-8.4,21.2-0.3,26.9c7.3,5.2,16.7-6,20.5-10.3c15.4-17.9,46-52.3,59-73.6c5.4-8.7,14.5-27.4,16.7-37.4
	C637,223.2,619.6,213.8,614,211.8z"/>
<path class="st0" d="M228.5,277.2c17.3-6.6,15.4-31.1,14.2-39.9c-1.1-8.8-7.3-26.1-10.4-34.7c-7.8-21.7-32.4-87-34.3-109.5
	c-1.2-15.7-27,2.3-27,2.3s5.8,17.8,7.4,28.8c3.1,23.3,0.5,55.3,4.4,94.2c1,10.3,6.6,30.2,11.1,39.4
	C206.3,283,223.5,279.1,228.5,277.2z"/>
<path class="st2" d="M345.2,165.1c-8.8,27.3-36.9,45.5-36.9,45.5s-50,40.9-66.6,54.8c-7.8,6.5-23.7,20.5-40.6,1.6l0,0
	c-13.9-15.6-1.2-31.7,5.6-38.6c13.8-14.2,44.9-40.1,56-56.3c8.2-12,16.2-34,39.5-43.1c0,0,18.2-9.7,33.8,4.2l0.6,0.5
	C345.5,141.5,348.8,153.8,345.2,165.1z"/>
<polygon class="st0" points="540.1,330.6 523.4,362.8 526.9,375.8 531.1,388.3 536.8,382 558.1,358.8 "/>
<polygon class="st3" points="326.6,377.6 328.2,354.2 489.1,354.2 491.2,374.5 "/>
<circle class="st4" cx="479.5" cy="347.2" r="4.9"/>
<path class="st0" d="M537.8,368.7c2.1,3.3,3.2,9.3-3.1,15.4c0,0-18.3,21-26.4,25.2c-3.6,1.9-13.3,6.5-16,3.4
	c-7.6-8.7-12.6-29.7-10.1-43.3c0.7-4,9.8-8.3,13.8-9.1c4.5-0.8,13.5,2.7,18,2.9c2.5,0,5-0.1,7.5-0.4
	C527.7,362.3,534.9,364.2,537.8,368.7z"/>
<path class="st5" d="M208.5,172.6c1-1.9,2.3-3.6,3.2-5.6c0.7-1.5,0.6-3-0.4-4.5c-0.9-1.3-2.1-1.6-3.3-0.6c-1.9,1.3-3.7,2.7-5.6,4
	c-1.7,1.1-3.5,2.1-5.6,2.3c-5.6,0.4-9.8-4.3-9.2-10.2c0.3-3.7,2.9-6.7,7-7.8c2.2-0.6,4.4-0.7,6.5-1.2c1.2-0.3,2.4-0.7,3.5-1.3
	c0.9-0.5,1.7-1.6,1.1-2.7c-0.4-1-1.7-1.2-2.6-1c-1.7,0.5-3.2,1.1-4.8,1.9c-1.9,0.8-3.6,2-5.5,2.8c-4.3,1.8-9.4-0.6-10.9-4.9
	c-1.1-3.3,0.7-7.5,4.3-8.9c2.7-1.1,5.4-1.3,8.2-0.6c1.1,0.3,2.3,1.1,3.2,1.9c0.7,0.5,0.9,1.3-0.1,1.9c-1.1,0.6-2.4,1.3-3.6,1.6
	c-0.8,0.2-1.9-0.3-2.6-0.7c-1.2-0.7-2.5-1.9-4-0.8c-1.5,0.8-2.6,2-2.5,3.8c0.1,1.9,1,3.4,2.7,4.2c0.6,0.3,1.6,0.2,2.3-0.1
	c3.2-1.6,6.3-3.3,9.4-5c0.9-0.5,2-1,2.9-1.5c3.5-1.2,7.5,0.9,8.7,4.7c1.1,3.5-0.8,7.3-4.6,8.1c-1.1,0.3-2.4,0.1-3.6,0
	c-3.2-0.3-6.3,0.1-9.1,2c-1.7,1.2-2.6,2.8-2.8,4.9c-0.4,4.2,4.7,7,7.8,5c2-1.2,3.7-3,5.7-4.4c1.2-0.9,2.6-1.9,4-2.3
	c3.4-1,6.3,1.1,6.2,4.8C214.2,166.8,211.8,170,208.5,172.6z M192.8,138.1c0.1-0.1,0.1-0.2,0.2-0.3c-0.3-0.2-0.7-0.5-1-0.7
	c-0.1,0.1-0.2,0.2-0.2,0.4C192.1,137.7,192.5,137.9,192.8,138.1z"/>
<path class="st0" d="M191.6,90.6c0.9-0.4,5.6,1.6,6.2,0.8c-1.9-3.8,7.6-18.9,8.2-21.6c0.6-3.3,1.2-18,2.2-20.6
	c0.9-2.6,10-15.8,8.4-16.5c-0.9-0.4-3.5-1.3-5.6-2.3c-2-0.7-4.2-0.1-5.5,1.6l-5.9,6.7c-0.4,0.6-0.8,1.3-1.1,2l-1.7,6.1
	c-0.8,2.7-4.5,2.8-5.4,0.3l-0.2-4.4c-0.1-0.2-5.3-8.4-5.3-8.6c-2.4-3.5-10.7-0.1-10.7-0.1c-0.1-0.1-6.9,2.9-9.1,4.2
	c-0.6,0.3-1.1,0.6-1.7,1l-5.2,3c-4.6,2.6-8.1,6.4-10.1,11.1c-0.9,2.2-1.2,4.2-0.3,5.4c0.2,0.3,0.4,0.6,0.5,1l13.9,31.8
	c0.4,1,1.3,1.9,2.1,2.5l5.2,3c1.3,0.6,2.8,0.8,4.2,0.3L191.6,90.6z"/>
<path class="st6" d="M200.8,36.8c-1.9-1.9-3.7-3.7-5.7-5.6c-0.4-0.4-1-0.4-1.5-0.1c-0.1,0.1-0.2,0.2-0.3,0.3
	c-0.5,0.4-1.1,0.3-1.6-0.2c-0.5-0.7-1.1-1.3-1.7-2.1c-0.4-0.4-0.3-1.1,0.1-1.5c0.4-0.4,0.8-0.8,1.3-1.2c0.4-0.4,0.4-1,0.1-1.5
	c-1.2-1.6-3-2.9-0.9-4.9c2.1-1.9,3.3,0,4.8,1.3c0.4,0.4,1,0.4,1.5,0l1.8-1.6c0.4-0.4,1.1-0.3,1.6,0.2c0.5,0.6,1,1.3,1.6,2.1
	c0.3,0.4,0.3,1,0,1.3c-0.3,0.3-0.6,0.8-1.1,1.3c-0.3,0.4-0.3,1,0,1.5c1.7,1.8,3.1,4,5.1,4.9c2,0.7,3.5,1.3,4.8,2.9
	c0.1,0.1,0.1,0.1,0.2,0.3c0,1.1-3.1,2.1-0.1,3.5c0.5-0.5,1.1-1.2,1.8-1.9c0.3-0.3,0.4-0.7,0.2-1.1c-1.2-3.4-0.9-4.4,2.3-7.4
	c4.3-3.9,8.7-7.9,13-11.9c2.7-2.5,4-2.7,7.1-1.1c0.4,0.2,0.9,0.1,1.2-0.2c0.4-0.4,0.9-0.9,1.7-1.6c0.4-0.4,0.4-1.1,0-1.7
	c-1.7-1.6-3.3-3-4.8-4.5s-3.5-3-1.2-5.1c2.2-2,3.5,0.3,4.8,1.7c0.3,0.3,0.6,0.6,0.9,1c1,0.9,2,1,3-0.3c4.3-5.4,9.3-5.1,13.1,0.4
	c0.4,0.6,1.5,1.1,2.2,1.2c0.7,0.1,1.6,0.2,2.4,0.2c0.6,0,1,0.5,1,1.1c0,0.9,0,1.8-0.1,2.6c0,0.5-0.5,1-1,1c-0.6,0-1.2,0-1.9,0
	c-1.5-0.1-2.5,0.2-3.6,1.6c-0.9,1-2.2,1.9-3.3,2.6c-0.5,0.4-0.6,1.1-0.2,1.7c3.6,3.9,7.5,8.1,11.4,12.5c0.3,0.4,0.9,0.5,1.5,0.2
	c2.1-1.3,3.5,0.5,5.1,2.2c1.3,1.5,1.8,2.9,0.5,4.4c-0.3,0.4-0.4,0.9-0.1,1.3c0.1,0.2,0.2,0.3,0.3,0.5c0.3,0.4,0.2,1-0.2,1.3
	c-1.3,1.2-2.4,3-4.8,2c-0.5-0.2-1.7,0.6-2.4,1.2c-7.6,6.9-15.1,13.8-22.5,20.8c-0.8,0.8-0.8,2.5-1.5,3.5c-0.5,1-1.2,2-1.9,2.8
	c-0.4,0.5-1.2,0.6-1.7,0.1c-9-9.9-17.9-19.6-26.7-29.3c-0.3-0.3-0.7-0.4-1.1-0.3l0,0c-0.4,0.1-0.7,0.5-0.7,0.9
	c0,0.6-0.1,1.2,0.1,1.6c2.4,3.5,2.3,5.4-0.8,8.3c-7,6.4-13.9,12.9-20.9,19.3c-3.3,3.2-5.7,3.2-8.6,0c-1.7-1.8-3.3-3.5-4.8-5.2
	c-2.9-3.2-2.9-5.7,0.2-8.5c7-6.5,14-13,21.1-19.4c2.9-2.7,5.2-2.7,8.1,0c0.3,0.4,0.8,0.7,1.1,0.9C200.5,37.1,200.6,36.9,200.8,36.8z
	 M239.5,17.8c-0.4,0.3-0.6,0.8-0.4,1.3c1.3,3,0.9,4.5-1.7,6.9c-4.3,3.9-8.5,7.7-12.7,11.8c-2.4,2.3-4.8,3.7-7.6,1.9
	c-0.3-0.2-0.8-0.2-1.1,0c-0.4,0.3-0.8,0.5-1.1,0.7c-0.5,0.4-0.6,1.1-0.2,1.7c2.6,2.7,4.9,5.3,7.2,7.7c0.4,0.4,0.9,0.5,1.5,0.2
	c0.4-0.3,0.8-0.5,1.2-0.8c0.4-0.3,0.5-0.8,0.3-1.3c-1.3-2.9-0.9-4.4,1.3-6.5c4.6-4.2,9-8.3,13.6-12.5c2.9-2.6,4.2-2.9,7.2-1.3
	c0.4,0.2,0.9,0.1,1.2-0.1l0.6-0.6c0.5-0.4,0.5-1.1,0.1-1.7c-2.5-2.7-4.9-5.3-7.1-7.8c-0.4-0.4-1-0.5-1.5-0.1
	C240.1,17.4,239.8,17.6,239.5,17.8z M253,30.1c-0.4,0.3-0.9,0.6-1.3,0.8c-0.4,0.3-0.6,0.8-0.4,1.3c1.3,3,0.9,4.4-1.6,6.6
	c-4.3,3.9-8.5,7.7-12.7,11.8c-2.4,2.3-4.8,3.9-7.8,2c-0.4-0.3-1-0.2-1.3,0.1c-0.3,0.3-0.6,0.6-0.8,0.8c-0.4,0.4-0.4,1.1,0,1.6
	c1.1,1.2,2.3,2.5,3.3,3.6c0.4,0.4,1.1,0.4,1.6,0.1c8.5-7.9,17-15.8,25.6-23.7c0.4-0.4,0.5-1.1,0-1.6c-1-1-2.1-2.2-3.1-3.3
	C254,29.7,253.4,29.7,253,30.1z M245.8,10c0.4,0.6,1.2,0.6,1.7,0.2c0.9-0.9,1.8-1.7,1.8-2.3c0.1-0.8-1.3-2.5-2.1-2.5
	c-0.8-0.1-2.4,1.2-2.5,2.1C244.5,8,245.1,8.9,245.8,10z"/>
<path class="st6" d="M156.9,76.4c3.3-3.1,6.6-6.2,9.9-9.2c0.4-0.3,0.9-0.3,1.2,0.1c1,1.1,2.1,2.3,3.1,3.3c0.3,0.4,0.3,0.9,0,1.2
	c-3.2,3-6.6,6-10.1,9.2c-0.4,0.3-0.9,0.3-1.3-0.1c-0.8-1-1.8-2.2-2.8-3.2C156.4,77.3,156.4,76.8,156.9,76.4z"/>
<path class="st7" d="M149.4,87.9c2-2.7,4.2-5.5,6.2-8.3c0.3-0.4,0.8-0.4,1.2-0.1c0.4,0.3,0.8,0.7,1.2,1s0.4,0.9,0,1.2
	c-2.7,2.4-5.3,4.6-8,6.9C149.8,88.3,149.6,88.1,149.4,87.9z"/>
<path class="st0" d="M189.5,56.1L171,65.9c-5.1,2.7-11.4,0.7-14.1-4.4l0,0c-2.7-5.1-0.7-11.4,4.4-14.1l24.6-13.5l7,11.5
	C194.8,49.2,193.2,54,189.5,56.1z"/>
<path class="st5" d="M558.2,337.4c1.8,3.8-1.7,5.7-3.2,8.4c-0.7,1.8-2,3.1-3.1,4.8c-1,1.2-0.5,2.4,0.5,3.2c0.2,0.2,0.6,0.3,0.8,0.5
	c0.3,0.9,0.9,1.7,0.9,2.9c0.2,0.2-1.2,0.9-1.2,0.9c-0.8-0.5-1.1-1.6-2.1-2.8c-1.3-0.2-2.1,0.4-2.2,2.4c-0.1,0.9-0.2,1.8-0.5,2.4
	c-3.9,5.4-8.2,10.3-13.7,14c-0.7,0.6-1.5,0.7-2.7,1.2c0.3-2.2,0-3.6,0.7-5.4c2.1-5.2,4.6-10.3,6.9-15.7c0.3-0.6,1.3-1.5,2.3-1.8
	c1.7-0.9,1.9-1.8,1.3-3c-1.6-0.4-2.4-0.5-3.3-0.7c0,0-0.3-1.3,0-1.6c0.9-0.3,1.7-0.4,2.6-0.8c0,0,0.2,0.2,0.4,0.1
	c-0.7,0.1-1.2,0.5-1.9,0.6c1.2,0.6,2.4,1,3.8,1.5c-0.6-0.7-1.1-1.6-2-2.1c3.4,1.3,3.2,1.1,5.3-2c0.8-1.5,2-3.1,3.1-4.4
	c0.4,0.5,0.7,1,1.1,2c0.8-1,1.1-1.7,1.9-2.3c-0.2-0.2-0.2-0.2-0.4-0.5c-0.9,0.3-1.9,0.6-2.9,0.9c0.8-1,1.5-2.3,2.5-3.5
	c0.4,0.5,0.7,1,0.9,1.7c0.2-0.2,0.5-0.8,0.8-1c-0.6-0.3-1.2-0.6-2-0.5c0.8-1,1.7-2.1,2-3.1c0.5-2,2.5-2,3.9-2.6
	c0.2-0.2,1.5,0.8,1.9,1.3c0.6,0.7,0.6,1.9,0.9,2.9C560.5,336.3,560.8,339.8,558.2,337.4c0.3-0.6,0.7-1.8,0.7-1.8
	c-0.8-0.5-1.8-0.7-2.4-1c-0.2,0.2-0.3,0.6-0.5,0.8C556.8,336,557.6,336.7,558.2,337.4z M544.2,356.4c0.9-0.3,1.3-0.3,2.5-0.3
	c-1.2,2.6-3.9,3.7-3.4,7.1c-3.3,0.9-7,4.5-9.2,9.9c3.8-1.8,6.3-4.8,9.1-7.4c2.9-3,4.3-6.4,4.8-10.5c-0.7,0.1-1.6,0-2.3,0.1
	c-0.3-0.9-0.7-1.5-0.8-2.2c-7.4,4-9.7,10.9-10.9,18.7c2.3-3.7,6.5-6.6,5.2-11.5c3-0.7,3.3-4,5.6-5.8
	C543.9,354.9,544.1,355.7,544.2,356.4z M547.7,351c1.7-0.4,3.2-0.5,3-2.3c-0.1-0.7-1.5-1.3-2.1-1.2
	C546.7,347.7,547.7,349.3,547.7,351z M555.8,341.6c-0.2-0.2-0.4-0.1-0.6-0.3c-0.3,0.6-0.7,1.8-1,2.8
	C556.6,343.7,555.9,342.3,555.8,341.6z M553.5,356.5c0.2-0.2,0.5-0.4,0.7-0.6c-1-0.8-1.8-1.9-2.8-2.7l-0.2,0.2
	C551.7,354.6,552.8,355.5,553.5,356.5z M557.7,338.9c-0.5,0.4-1.2,0.5-1.2,0.9c-0.2,0.2,0.1,0.7,0.3,0.9c0.2-0.2,1.1-0.1,1.2-0.5
	C558.3,340.1,557.8,339.6,557.7,338.9z M551.8,343.8c-0.2-0.2-0.1-0.7-0.3-0.9c-0.7,0.1-1.2,0.5-2.2,0.8c0.2,0.2,0.4,0.5,0.1,0.7
	C550.4,344.4,551.1,344.3,551.8,343.8z M553.6,344.4c-0.2,0.2-0.4-0.1-0.7,0.1c0.1,0.7,0,1.6,0.1,2.3c0.2-0.2,0.4,0.1,0.7-0.1
	C553.6,346.1,553.7,345.2,553.6,344.4z"/>
<g>
	<path class="st5" d="M193.6,118.7c0,0.6,0.5,0.9,0.9,1.2c0.3,0.2,0.6,0.6,0.7,0.9c0.2,0.7,0.2,1.6,1.2,1.9
		c-0.7,0.3-1.1,0.2-1.6-0.6c-0.3-0.6-0.7-1.1-1.3-1.5c-0.4-0.2-0.8-0.3-1.3-0.5c0.2,1.6,0.4,3.2,0.5,4.8c-0.1,0-0.2,0.1-0.3,0.1
		c-0.5-1.6-1-3-1.8-4.5c-0.3,0.4-0.6,0.7-0.9,1.1c-0.5,0.4-0.5,1-0.5,1.8c0,0.8-0.2,1.1-1.1,1.3c0.8-0.8,0.4-1.6,0.2-2.4
		c-0.1-0.3,0.1-0.7,0.2-1.1c0.2-0.4,0.2-0.9,0.4-1.3c-0.1,0-0.2,0-0.2-0.1c-1,1.3-2.2,2.8-3.1,4c-0.1,0-0.2-0.1-0.3-0.1
		c0.7-1.6,1.5-3.1,2.2-4.8c-0.6-0.1-0.8,0.3-1.1,0.7c-0.4,0.6-0.8,0.9-1.5,0.9c-0.7,0-1.1,0.5-1.5,1c-0.3-0.6-0.1-1,0.6-1.5
		c0.4-0.2,0.8-0.6,1.2-1c0.1-0.2,0.2-0.5,0.3-0.7c0.1-0.3,0.3-0.6,0.4-0.9c-1.6,0.2-3.2,0.4-4.8,0.5c0-0.1-0.1-0.2-0.1-0.3
		c1.6-0.5,3-1,4.5-1.8c-0.9-0.7-1.7-1.7-3-1.6c-0.7,0.1-1-0.2-1.1-1c0.7,0.6,1.5,0.4,2.2,0.2c0.3-0.1,0.8,0.1,1.2,0.2
		c0.5,0.2,0.9,0.4,1.5,0.2c-1.5-1.1-2.8-2.2-4.2-3.2c0-0.1,0.1-0.2,0.1-0.3c1.6,0.7,3.1,1.5,4.8,2.2c0.1-0.5-0.3-0.8-0.7-1.1
		c-0.7-0.4-0.8-0.9-0.9-1.6c-0.1-0.5-0.5-1-0.7-1.5c0.4-0.1,0.7,0,1.2,0.7c0.3,0.4,0.8,1,1.2,1.5c0.4,0.2,0.9,0.4,1.5,0.6
		c-0.2-1.6-0.4-3.2-0.5-4.8c0.1,0,0.2-0.1,0.3-0.1c0.5,1.6,1,3,1.8,4.5c0.3-0.4,0.6-0.6,0.9-1c0.5-0.5,0.6-1.1,0.5-1.8
		c0-0.8,0.2-1.1,0.9-1.3c-0.1,0.4-0.3,0.8-0.3,1.2c0,0.4,0.3,0.7,0.3,1.1c0.1,0.3-0.1,0.7-0.2,1c-0.2,0.5-0.5,0.8-0.2,1.5
		c1.1-1.5,2.2-2.8,3.2-4c0.1,0,0.2,0.1,0.3,0.1c-0.7,1.6-1.5,3.1-2.2,4.8c0.5,0.1,0.7,0,1-0.6c0.4-0.7,0.9-0.9,1.7-1
		c0.5-0.1,1-0.5,1.5-0.7c0.2,0.2,0.1,0.4-0.1,0.8c-0.2,0.2-0.5,0.4-0.8,0.5c-0.6,0.3-1.1,0.9-1.3,1.6c-0.1,0.3-0.3,0.7-0.4,1
		c1.6-0.2,3.2-0.4,4.8-0.6c0,0.1,0.1,0.2,0.1,0.2c-1.6,0.5-3,1-4.5,1.8c0.4,0.3,0.7,0.8,1.2,1c0.5,0.3,1.1,0.3,1.7,0.4
		c0.8,0.1,1.2,0.3,1.3,1c-0.4-0.2-0.8-0.3-1.2-0.3c-0.4-0.1-0.7,0.3-1.1,0.3c-0.3,0.1-0.7-0.1-1-0.2c-0.5-0.2-0.8-0.5-1.6-0.2
		c1.5,1.1,2.8,2.2,4.2,3.2c0,0.1-0.1,0.2-0.1,0.3C196.7,120.2,195.2,119.4,193.6,118.7z M187.5,117c-0.7,0.5-0.7,0.7-0.2,1.3
		c1.1,1.5,3.1,1.8,4.7,0.9c1.9-1,2.3-2.6,2.1-4.4c-0.4-2-2.2-3.2-4-3c-2,0.2-3.5,1.8-3.6,3.6c-0.1,0.6-0.1,1.2,0.4,1.9
		C187.1,117.2,187.3,117.2,187.5,117z M191.6,108.3c0.2,1.3-1.3,2.1-1.6,3.2c0.5,0.1,1,0.1,1.3,0.2c0.2-0.6,0.2-1.1,0.5-1.6
		C192.3,109.5,192,109,191.6,108.3z M186.3,117.6c-0.8,0.9-0.7,2.6-2.3,2.9c0.9,0,1.7-0.2,2.2-1c0.1-0.3,0.6-0.5,0.9-0.7
		C186.9,118.3,186.8,118,186.3,117.6z M185.6,109.8c-0.1,0.7,0,1.2,0.7,1.8c0.4,0.2,0.7,0.7,1.1,1.1c0.3-0.2,0.7-0.4,1.1-0.8
		C187.7,111,186,111.2,185.6,109.8z M189.1,119.9c-0.2,0.5-0.2,1.1-0.4,1.6c-0.4,0.7-0.3,1.2,0.2,1.9c-0.2-1.5,1.3-2.1,1.6-3.2
		C190,120,189.6,120,189.1,119.9z M194.3,116.9c0.4,0.1,0.9,0,1.2,0.3c0.7,0.5,1.6,0.4,2.4-0.1c-1.1,0.1-1.9-0.3-2.6-1
		c-0.2-0.2-0.6-0.4-0.9-0.5C194.4,116,194.3,116.5,194.3,116.9z M182.5,114.5c1-0.1,1.9,0.3,2.5,1c0.3,0.2,0.7,0.4,0.9,0.5
		c0.1-0.6,0.1-1,0.2-1.5c-0.4-0.1-0.8,0-1.2-0.3C184.3,113.9,183.5,113.9,182.5,114.5z M195,121.7c0-0.7,0-1.2-0.7-1.8
		c-0.4-0.2-0.7-0.7-1.1-1.1c-0.3,0.2-0.7,0.5-1.1,0.8C192.9,120.6,194.4,120.5,195,121.7z M193.4,112.9c0.3,0.3,0.5,0.7,0.8,1.1
		c0.8-0.8,0.7-2.5,2.3-2.9c-1,0.2-1.5-0.1-2.2,1C194.1,112.5,193.7,112.6,193.4,112.9z M185.9,122.7c0.1,0,0.1,0,0.2,0.1
		c0.7-1,1.6-2.1,2.3-3.1c-0.1,0-0.1-0.1-0.2-0.1c-0.2,0.4-0.5,0.6-0.7,1c0,0-0.1,0-0.1-0.1c0.2-0.4,0.4-0.8,0.6-1.1
		c-0.1,0-0.1,0-0.2-0.1C187.1,120.4,186.4,121.5,185.9,122.7z M195,118.5L195,118.5c-0.4-0.1-0.8-0.2-1.2-0.5c0,0.1,0,0.2-0.1,0.3
		c1.1,0.6,2.4,1.1,3.5,1.8c0-0.1,0-0.1,0.1-0.2c-1-0.7-2.1-1.6-3.1-2.3c0,0.1-0.1,0.1-0.1,0.2C194.2,118,194.7,118.3,195,118.5z
		 M191.1,120c-0.1,0-0.1,0.1-0.2,0.1c0.5,1.2,0.8,2.5,1.3,3.7c0.1,0,0.1,0,0.2-0.1c-0.1-1.2-0.4-2.6-0.5-3.9c-0.1,0-0.2,0-0.2,0.1
		c0,0.5,0.2,1.1,0.2,1.7l0,0C191.4,121,191.2,120.5,191.1,120z M188.8,111.8c0.1,0,0.2,0,0.2-0.1c-0.1-0.6-0.2-1.1-0.3-1.9l0,0
		c0.2,0.5,0.4,1.1,0.6,1.7c0.1,0,0.1-0.1,0.2-0.1c-0.5-1.2-0.8-2.5-1.3-3.7c-0.1,0-0.1,0-0.2,0.1
		C188.5,109.3,188.6,110.5,188.8,111.8z M185.5,112.9L185.5,112.9c0.4,0.1,0.8,0.3,1.2,0.5c0-0.1,0-0.1,0.1-0.2
		c-1.1-0.6-2.3-1.1-3.4-1.7c0,0.1,0,0.1-0.1,0.2c1,0.7,2.1,1.6,3.1,2.3c0-0.1,0.1-0.1,0.1-0.2C186.2,113.4,185.9,113.2,185.5,112.9z
		 M192.6,112.4c0.1,0,0.2,0,0.2,0.1c0.6-1.1,1.1-2.4,1.8-3.5c-0.1,0-0.1,0-0.2-0.1c-0.7,1-1.6,2.1-2.3,3.1c0.1,0,0.1,0.1,0.2,0.1
		c0.2-0.4,0.5-0.6,0.7-1h0.1C192.9,111.5,192.8,111.9,192.6,112.4z M182.4,117.6c0,0.1,0.1,0.1,0.1,0.2c1.2-0.1,2.5-0.4,3.7-0.5
		c0-0.1,0-0.1-0.1-0.2c-0.5,0-0.9,0.1-1.5,0.2v-0.1c0.4-0.1,0.9-0.3,1.5-0.4c0-0.1-0.1-0.1-0.1-0.2
		C184.8,116.7,183.6,117.2,182.4,117.6z M194.3,114.4c0,0.1,0,0.1,0.1,0.2c0.5,0,0.9-0.2,1.5-0.2v0.1c-0.4,0.1-1,0.4-1.5,0.5
		c0,0.1,0.1,0.1,0.1,0.2c1.2-0.4,2.4-0.8,3.6-1.2c0-0.1,0-0.1-0.1-0.2C196.8,113.9,195.5,114.3,194.3,114.4z"/>
	<path class="st5" d="M191.3,115.4c-0.1,0-0.3-0.1-0.4-0.2c0.1-0.3,0.2-0.4,0.5-0.2c0.3,0.1,0.8,0.2,1-0.4c0-0.1,0.2-0.1,0.3-0.2
		l0.2,0.1c0,0.1-0.1,0.3-0.1,0.3C192.4,115,192,115.1,191.3,115.4z"/>
	<path class="st5" d="M189.4,115.2c-0.2,0.7-0.2,0.7-0.8,0.6c-0.2,0-0.5,0.1-0.7,0.1c-0.1,0-0.3,0-0.4-0.2v-0.2c0.1,0,0.2,0.1,0.3,0
		c0.3,0,0.5,0,0.8-0.1C188.8,115.5,188.9,115.4,189.4,115.2z"/>
	<path class="st5" d="M188.2,113.9c0-0.2,0-0.3,0.1-0.4c0.1,0.1,0.2,0.2,0.3,0.2c0.1-0.2,0.2-0.4,0.4-0.5c0.1,0.1,0.2,0.2,0.3,0.3
		C188.8,113.6,188.5,113.7,188.2,113.9z"/>
	<path class="st5" d="M189.6,115c-0.3-0.1-0.7-0.3-1-0.4c0-0.1,0-0.1,0.1-0.2c0.3,0.1,0.6,0.4,0.9,0.5
		C189.6,114.9,189.6,114.9,189.6,115z"/>
	<path class="st5" d="M187.8,117.5c-0.2,0.2-0.3,0.3-0.6,0.4c0-0.2,0-0.3,0.2-0.5C187.5,117.5,187.7,117.5,187.8,117.5z"/>
	<path class="st5" d="M190.5,114.5c0.1-0.3,0.4-0.5,0.5-0.7c0.1,0,0.1,0.1,0.2,0.1c-0.1,0.3-0.4,0.5-0.5,0.7
		C190.6,114.6,190.5,114.5,190.5,114.5z"/>
	<path class="st5" d="M190,118.1c0.5-0.1,0.9-0.3,1.6-0.3C190.9,117.9,190.5,118,190,118.1z"/>
	<path class="st5" d="M191.3,113.1c-0.2,0.1-0.4,0-0.5,0.1l0,0c0.1-0.1,0.1-0.3,0.2-0.4C191,112.9,191.1,113,191.3,113.1z"/>
	<path class="st5" d="M190.4,113.3c-0.1-0.1-0.1-0.3-0.1-0.4c0.1,0,0.1,0,0.2-0.1c0.1,0.1,0.1,0.3,0.1,0.4
		C190.5,113.3,190.4,113.3,190.4,113.3z"/>
	<path class="st5" d="M190.3,116.9c-0.1,0-0.3,0-0.4-0.1v-0.1c0.1,0,0.2-0.1,0.4,0C190.4,116.7,190.3,116.9,190.3,116.9z"/>
	<path class="st5" d="M191.1,116.5c-0.1,0.1-0.2,0.2-0.3,0.3l-0.1-0.1C190.8,116.6,190.9,116.5,191.1,116.5
		C191,116.5,191.1,116.5,191.1,116.5z"/>
</g>
<path class="st6" d="M511.6,436.5l-7.6-156.5c0-0.2,0-0.4,0-0.6c0-0.3,0-0.7,0-1l0.9-59.8c0-2.7,3-4.5,5.4-3.1l47.3,25.5
	c4.2,2.3,6.1,7.2,4.7,11.6l-23.2,72.7c-0.3,0.9,0.1,1.9,1,2.3l35.2,15.9c0.8,0.3,1.8,0.1,2.3-0.6l36.3-49.3
	c7.8-10.6,13.2-22.6,15.8-35.5l3.6-18.2c2.2-12.6-2.2-25.4-11.7-34.1l-80.1-72.1c-9.4-8.5-20.7-14.7-32.8-18.3L466.7,103
	c-2.5-0.7-5.2-0.4-7.4,0.7l-44.9,24c-3,1.6-6.5,1.6-9.4-0.1L359.4,102c-2.8-1.6-6.1-1.7-8.9-0.3l-41.4,19.2c-9,4.2-17.3,10-24.4,17
	l-12.5,12.6c-0.2,0.2-0.4,0.4-0.6,0.7l-29.3,38.6c-2.3,2.8-6.7,1.8-7.5-1.8l-10.9-32.7c-0.6-2-2.6-3.1-4.5-2.5L183.2,164
	c-3.4,1.2-5.9,4.3-6.5,7.9L181,235c-1.7,10.9,8.3,23.8,15.7,32l13.7,15.4c3.3,2.9,8.1,3.3,11.8,0.9l87.2-55.8
	c2.3-1.5,5.3,0.1,5.4,2.8l2.4,61.5c0,0.1,0,0.3,0,0.4l-9.3,140.4c-0.2,2.4,1.7,4.5,4,4.6l57.5,10.2c24.5,4.4,49.5,5,74.1,1.8
	l63.6-8.2C509.8,441,511.7,438.9,511.6,436.5z"/>
<g>
	<path class="st8" d="M444.5,204.9c13.8-6.1,27.4-12.3,41.2-18.4c0.3,0.9,0.9,2,1.2,2.9c-13.5,6.7-25.4,16.4-40.3,19.9
		C446,208.1,445.4,206.5,444.5,204.9z"/>
	<path class="st8" d="M448.6,170.7c-2.6,11-4.9,21.9-7.4,33.2c-1.7-0.3-3.2-0.9-5.2-1.2c2.9-11,6.1-21.9,9-32.5
		C446.3,170.1,447.4,170.4,448.6,170.7z"/>
	<path class="st8" d="M473.1,217.5c-6.7,0.3-13.5,0.6-20.2,0.9c0-1.2-0.3-2.6-0.3-3.8c6.7-0.3,13.5-0.6,20.7-1.2
		C473.1,214.9,473.1,216.1,473.1,217.5z"/>
	<path class="st8" d="M430.2,207.1c-4.2-2.9-8.4-5.8-12.6-8.7c0.6-0.9,1.2-2,2-2.9c4.2,2.9,8.4,5.8,12.6,8.7
		C431.6,205.2,430.9,206.1,430.2,207.1z"/>
</g>
</svg>
