<?xml version="1.0" encoding="utf-8"?>
<!-- Generator: Adobe Illustrator 26.0.3, SVG Export Plug-In . SVG Version: 6.00 Build 0)  -->
<svg version="1.1" id="Calque_1" xmlns="http://www.w3.org/2000/svg" xmlns:xlink="http://www.w3.org/1999/xlink" x="0px" y="0px"
	 viewBox="0 0 788 1005" style="enable-background:new 0 0 788 1005;" xml:space="preserve">
<style type="text/css">
	.st0{fill:#B85727;}
	.st1{fill:#924125;}
	.st2{fill:none;stroke:#000000;stroke-width:3;stroke-miterlimit:10;}
	.st3{fill:#473415;}
	.st4{fill:#472E1D;}
	.st5{fill:#4C443F;}
	.st6{fill:#5A5A5A;}
	.st7{fill:#3D3D3D;}
	.st8{fill:#161615;}
</style>
<path class="st0" d="M514.8,235.4c-0.6,38.4-26.2,33.2-36.9,42.3c-12.6,10.8-8.3,50-17.2,64c-2.5,3.8-11.4,10.1-15.8,9.1
	c-12.5-2.9-24-30.7-34.8-37.7c-6.3-4.1-23.6-3.6-30.2,0c-11.2,6.2-22.3,34.9-34.8,37.7c-4.4,1-13.4-5.2-15.8-9.1
	c-8.9-14-4.6-53.2-17.2-64c-10.6-9.1-36.2-3.9-36.9-42.3c-0.4-26.6,35-37.3,35-37.3l40.1-19.9c2.6-1.3,5-2.9,7.1-4.8
	c0.8-0.7,1.6-1.5,2.3-2.3l0.6-0.7v-0.1c3.9-4.7,6.5-10.4,7.2-16.4c0.2-1.4,0.3-2.8,0.2-4.2v-2.8v-4.5h53.6l0.1,5v1.5v3.2
	c0,0.3,0,0.7,0,1l0,0c0,0.6,0.1,1.3,0.2,2c0.2,1.5,0.5,3.1,0.9,4.6c2.2,7.7,7.6,14,14.7,17.6l40.6,20.1c1,0.5,2.1,1,3.2,1.3
	C487.9,201,515.1,212.1,514.8,235.4z"/>
<path class="st1" d="M422.9,159.9l-1,1.2c-5.2,6.3-28.8,35-41.8,44.3c-3.2,2.3-5.7,3.4-7.2,2.7c-6.8-3.3-14.8-35.1-14.8-35.1
	l0.1-0.1c0.6-0.6,1.2-1.2,1.7-1.9c0.3-0.4,0.7-0.8,1-1.3l0.1-0.1c3.3-4.5,5.5-9.7,6.7-15.2c0-0.2,0.1-0.4,0.1-0.6
	c0.3-1.4,0.5-3,0.7-4.8c0.1-0.7,0.1-1.4,0.2-2.2c0.1-1.4,0.2-2.9,0.3-4.5h52.7v0.2v4.3v6.7l0.1,0.8l0.1,0.7l0.9,4.6L422.9,159.9z"/>
<path class="st2" d="M456.9,242.2c11.9,25,40.9,38.8,40.9,38.8s53,32.8,70.4,44c8.2,5.3,25.2,16.6,39-3.6l0,0
	c11.3-16.6-2.8-30.4-10.2-36.2c-15-11.8-47.9-32.6-60.5-46.7c-9.4-10.5-19.8-30.3-43.1-36.2c0,0-18.6-6.9-31.8,8.3l-0.5,0.6
	C453.7,219.7,452,231.9,456.9,242.2L456.9,242.2z"/>
<path class="st0" d="M593.2,287.4c-18.6-7.2-32.7,11.8-37.4,19c-4.7,7.2-10.7,23.9-13.6,32.1c-7.5,21-17.5,57.3-25.2,77.8
	c-5,13.5-8.1,20.4-0.3,25.9c7,5,16.1-5.8,19.7-9.9c14.8-17.2,44.3-50.4,56.8-70.9c5.2-8.4,14-26.4,16.1-36
	C615.3,298.4,598.6,289.4,593.2,287.4z"/>
<path class="st0" d="M221.9,350.4c16.7-6.4,14.8-30,13.7-38.4c-1.1-8.5-7-25.1-10-33.4c-7.5-20.9-31.2-83.8-33-105.5
	c-1.2-15.1-26,2.2-26,2.2s5.6,17.1,7.1,27.7c3,22.4,0.5,53.3,4.2,90.7c1,9.9,6.4,29.1,10.7,37.9C200.5,356,217.1,352.3,221.9,350.4z
	"/>
<path class="st2" d="M334.3,242.5c-8.5,26.3-35.5,43.8-35.5,43.8s-48.2,39.4-64.1,52.8c-7.5,6.3-22.8,19.7-39.1,1.5l0,0
	c-13.4-15-1.2-30.5,5.4-37.2c13.3-13.7,43.2-38.6,53.9-54.2c7.9-11.6,15.6-32.7,38-41.5c0,0,17.5-9.3,32.6,4l0.6,0.5
	C334.6,219.7,337.8,231.6,334.3,242.5z"/>
<polygon class="st0" points="522,401.9 505.9,432.9 509.3,445.4 513.3,457.4 518.8,451.4 539.3,429 "/>
<polygon class="st3" points="316.4,447.1 317.9,424.6 472.9,424.6 474.9,444.1 "/>
<circle class="st4" cx="463.6" cy="417.9" r="4.7"/>
<path class="st0" d="M519.8,438.6c2,3.2,3.1,9-3,14.8c0,0-17.6,20.2-25.4,24.3c-3.5,1.8-12.8,6.3-15.4,3.3
	c-7.3-8.4-12.1-28.6-9.7-41.7c0.7-3.9,9.4-8,13.3-8.8c4.3-0.8,13,2.6,17.3,2.8c2.4,0,4.8-0.1,7.2-0.4
	C510.1,432.4,517,434.2,519.8,438.6z"/>
<path class="st5" d="M202.6,249.7c1-1.8,2.2-3.5,3.1-5.4c0.7-1.4,0.6-2.9-0.4-4.3c-0.9-1.3-2-1.5-3.2-0.6c-1.8,1.3-3.6,2.6-5.4,3.9
	c-1.6,1.1-3.4,2-5.4,2.2c-5.4,0.4-9.4-4.1-8.9-9.8c0.3-3.6,2.8-6.5,6.7-7.5c2.1-0.6,4.2-0.7,6.3-1.2c1.2-0.3,2.3-0.7,3.4-1.3
	c0.9-0.5,1.6-1.5,1.1-2.6c-0.4-1-1.6-1.2-2.5-1c-1.6,0.5-3.1,1.1-4.6,1.8c-1.8,0.8-3.5,1.9-5.3,2.7c-4.1,1.7-9.1-0.6-10.5-4.7
	c-1.1-3.2,0.7-7.2,4.1-8.6c2.6-1.1,5.2-1.3,7.9-0.6c1.1,0.3,2.2,1.1,3.1,1.8c0.7,0.5,0.9,1.3-0.1,1.8c-1.1,0.6-2.3,1.3-3.5,1.5
	c-0.8,0.2-1.8-0.3-2.5-0.7c-1.2-0.7-2.4-1.8-3.9-0.8c-1.4,0.8-2.5,1.9-2.4,3.7c0.1,1.8,1,3.3,2.6,4c0.6,0.3,1.5,0.2,2.2-0.1
	c3.1-1.5,6.1-3.2,9.1-4.8c0.9-0.5,1.9-1,2.8-1.4c3.4-1.2,7.2,0.9,8.4,4.5c1.1,3.4-0.8,7-4.4,7.8c-1.1,0.3-2.3,0.1-3.5,0
	c-3.1-0.3-6.1,0.1-8.8,1.9c-1.6,1.2-2.5,2.7-2.7,4.7c-0.4,4,4.5,6.7,7.5,4.8c1.9-1.2,3.6-2.9,5.5-4.2c1.2-0.9,2.5-1.8,3.9-2.2
	c3.3-1,6.1,1.1,6,4.6C208.1,244.1,205.8,247.2,202.6,249.7z M187.5,216.5c0.1-0.1,0.1-0.2,0.2-0.3c-0.3-0.2-0.7-0.5-1-0.7
	c-0.1,0.1-0.2,0.2-0.2,0.4C186.8,216.1,187.2,216.3,187.5,216.5z"/>
<path class="st0" d="M186.4,170.7c0.9-0.4,5.4,1.5,6,0.8c-1.8-3.7,7.3-18.2,7.9-20.8c0.6-3.2,1.2-17.3,2.1-19.8
	c0.9-2.5,9.6-15.2,8.1-15.9c-0.9-0.4-3.4-1.3-5.4-2.2c-1.9-0.7-4-0.1-5.3,1.5l-5.7,6.5c-0.4,0.6-0.8,1.3-1.1,1.9l-1.6,5.9
	c-0.8,2.6-4.3,2.7-5.2,0.3l-0.2-4.2c-0.1-0.2-5.1-8.1-5.1-8.3c-2.3-3.4-10.3-0.1-10.3-0.1c-0.1-0.1-6.6,2.8-8.8,4
	c-0.6,0.3-1.1,0.6-1.6,1l-5,2.9c-4.4,2.5-7.8,6.2-9.7,10.7c-0.9,2.1-1.2,4-0.3,5.2c0.2,0.3,0.4,0.6,0.5,1l13.4,30.6
	c0.4,1,1.3,1.8,2,2.4l5,2.9c1.3,0.6,2.7,0.8,4,0.3L186.4,170.7z"/>
<path class="st6" d="M195.2,118.9c-1.8-1.8-3.6-3.6-5.5-5.4c-0.4-0.4-1-0.4-1.4-0.1c-0.1,0.1-0.2,0.2-0.3,0.3
	c-0.5,0.4-1.1,0.3-1.5-0.2c-0.5-0.7-1.1-1.3-1.6-2c-0.4-0.4-0.3-1.1,0.1-1.4c0.4-0.4,0.8-0.8,1.3-1.2c0.4-0.4,0.4-1,0.1-1.4
	c-1.2-1.5-2.9-2.8-0.9-4.7c2-1.8,3.2,0,4.6,1.3c0.4,0.4,1,0.4,1.4,0l1.7-1.5c0.4-0.4,1.1-0.3,1.5,0.2c0.5,0.6,1,1.3,1.5,2
	c0.3,0.4,0.3,1,0,1.3c-0.3,0.3-0.6,0.8-1.1,1.3c-0.3,0.4-0.3,1,0,1.4c1.6,1.7,3,3.9,4.9,4.7c1.9,0.7,3.4,1.3,4.6,2.8
	c0.1,0.1,0.1,0.1,0.2,0.3c0,1.1-3,2-0.1,3.4c0.5-0.5,1.1-1.2,1.7-1.8c0.3-0.3,0.4-0.7,0.2-1.1c-1.2-3.3-0.9-4.2,2.2-7.1
	c4.1-3.8,8.4-7.6,12.5-11.5c2.6-2.4,3.9-2.6,6.8-1.1c0.4,0.2,0.9,0.1,1.2-0.2c0.4-0.4,0.9-0.9,1.6-1.5c0.4-0.4,0.4-1.1,0-1.6
	c-1.6-1.5-3.2-2.9-4.6-4.3c-1.4-1.4-3.4-2.9-1.2-4.9c2.1-1.9,3.4,0.3,4.6,1.6c0.3,0.3,0.6,0.6,0.9,1c1,0.9,1.9,1,2.9-0.3
	c4.1-5.2,9-4.9,12.6,0.4c0.4,0.6,1.4,1.1,2.1,1.2c0.7,0.1,1.5,0.2,2.3,0.2c0.6,0,1,0.5,1,1.1c0,0.9,0,1.7-0.1,2.5c0,0.5-0.5,1-1,1
	c-0.6,0-1.2,0-1.8,0c-1.4-0.1-2.4,0.2-3.5,1.5c-0.9,1-2.1,1.8-3.2,2.5c-0.5,0.4-0.6,1.1-0.2,1.6c3.5,3.8,7.2,7.8,11,12
	c0.3,0.4,0.9,0.5,1.4,0.2c2-1.3,3.4,0.5,4.9,2.1c1.3,1.4,1.7,2.8,0.5,4.2c-0.3,0.4-0.4,0.9-0.1,1.3c0.1,0.2,0.2,0.3,0.3,0.5
	c0.3,0.4,0.2,1-0.2,1.3c-1.3,1.2-2.3,2.9-4.6,1.9c-0.5-0.2-1.6,0.6-2.3,1.2c-7.3,6.6-14.5,13.3-21.7,20c-0.8,0.8-0.8,2.4-1.4,3.4
	c-0.5,1-1.2,1.9-1.8,2.7c-0.4,0.5-1.2,0.6-1.6,0.1c-8.7-9.5-17.2-18.9-25.7-28.2c-0.3-0.3-0.7-0.4-1.1-0.3l0,0
	c-0.4,0.1-0.7,0.5-0.7,0.9c0,0.6-0.1,1.2,0.1,1.5c2.3,3.4,2.2,5.2-0.8,8c-6.7,6.2-13.4,12.4-20.1,18.6c-3.2,3.1-5.5,3.1-8.3,0
	c-1.6-1.7-3.2-3.4-4.6-5c-2.8-3.1-2.8-5.5,0.2-8.2c6.7-6.3,13.5-12.5,20.3-18.7c2.8-2.6,5-2.6,7.8,0c0.3,0.4,0.8,0.7,1.1,0.9
	C194.9,119.2,195,119,195.2,118.9z M232.5,100.6c-0.4,0.3-0.6,0.8-0.4,1.3c1.3,2.9,0.9,4.3-1.6,6.6c-4.1,3.8-8.2,7.4-12.2,11.4
	c-2.3,2.2-4.6,3.6-7.3,1.8c-0.3-0.2-0.8-0.2-1.1,0c-0.4,0.3-0.8,0.5-1.1,0.7c-0.5,0.4-0.6,1.1-0.2,1.6c2.5,2.6,4.7,5.1,6.9,7.4
	c0.4,0.4,0.9,0.5,1.4,0.2c0.4-0.3,0.8-0.5,1.2-0.8c0.4-0.3,0.5-0.8,0.3-1.3c-1.3-2.8-0.9-4.2,1.3-6.3c4.4-4,8.7-8,13.1-12
	c2.8-2.5,4-2.8,6.9-1.3c0.4,0.2,0.9,0.1,1.2-0.1l0.6-0.6c0.5-0.4,0.5-1.1,0.1-1.6c-2.4-2.6-4.7-5.1-6.8-7.5c-0.4-0.4-1-0.5-1.4-0.1
	C233.1,100.2,232.8,100.4,232.5,100.6z M245.5,112.4c-0.4,0.3-0.9,0.6-1.3,0.8c-0.4,0.3-0.6,0.8-0.4,1.3c1.3,2.9,0.9,4.2-1.5,6.4
	c-4.1,3.8-8.2,7.4-12.2,11.4c-2.3,2.2-4.6,3.8-7.5,1.9c-0.4-0.3-1-0.2-1.3,0.1c-0.3,0.3-0.6,0.6-0.8,0.8c-0.4,0.4-0.4,1.1,0,1.5
	c1.1,1.2,2.2,2.4,3.2,3.5c0.4,0.4,1.1,0.4,1.5,0.1c8.2-7.6,16.4-15.2,24.7-22.8c0.4-0.4,0.5-1.1,0-1.5c-1-1-2-2.1-3-3.2
	C246.5,112.1,245.9,112.1,245.5,112.4z M238.6,93.1c0.4,0.6,1.2,0.6,1.6,0.2c0.9-0.9,1.7-1.6,1.7-2.2c0.1-0.8-1.3-2.4-2-2.4
	c-0.8-0.1-2.3,1.2-2.4,2C237.3,91.2,237.9,92,238.6,93.1z"/>
<path class="st6" d="M152.9,157c3.2-3,6.4-6,9.5-8.9c0.4-0.3,0.9-0.3,1.2,0.1c1,1.1,2,2.2,3,3.2c0.3,0.4,0.3,0.9,0,1.2
	c-3.1,2.9-6.4,5.8-9.7,8.9c-0.4,0.3-0.9,0.3-1.3-0.1c-0.8-1-1.7-2.1-2.7-3.1C152.5,157.9,152.5,157.4,152.9,157z"/>
<path class="st7" d="M145.7,168.1c1.9-2.6,4-5.3,6-8c0.3-0.4,0.8-0.4,1.2-0.1c0.4,0.3,0.8,0.7,1.2,1c0.4,0.3,0.4,0.9,0,1.2
	c-2.6,2.3-5.1,4.4-7.7,6.6C146.1,168.5,145.9,168.3,145.7,168.1z"/>
<path class="st0" d="M184.3,137.5l-17.8,9.4c-4.9,2.6-11,0.7-13.6-4.2l0,0c-2.6-4.9-0.7-11,4.2-13.6l23.7-13l6.7,11.1
	C189.4,130.8,187.9,135.5,184.3,137.5z"/>
<path class="st5" d="M539.4,408.4c1.7,3.7-1.6,5.5-3.1,8.1c-0.7,1.7-1.9,3-3,4.6c-1,1.2-0.5,2.3,0.5,3.1c0.2,0.2,0.6,0.3,0.8,0.5
	c0.3,0.9,0.9,1.6,0.9,2.8c0.2,0.2-1.2,0.9-1.2,0.9c-0.8-0.5-1.1-1.5-2-2.7c-1.3-0.2-2,0.4-2.1,2.3c-0.1,0.9-0.2,1.7-0.5,2.3
	c-3.8,5.2-7.9,9.9-13.2,13.5c-0.7,0.6-1.4,0.7-2.6,1.2c0.3-2.1,0-3.5,0.7-5.2c2-5,4.4-9.9,6.6-15.1c0.3-0.6,1.3-1.4,2.2-1.7
	c1.6-0.9,1.8-1.7,1.3-2.9c-1.5-0.4-2.3-0.5-3.2-0.7c0,0-0.3-1.3,0-1.5c0.9-0.3,1.6-0.4,2.5-0.8c0,0,0.2,0.2,0.4,0.1
	c-0.7,0.1-1.2,0.5-1.8,0.6c1.2,0.6,2.3,1,3.7,1.4c-0.6-0.7-1.1-1.5-1.9-2c3.3,1.3,3.1,1.1,5.1-1.9c0.8-1.4,1.9-3,3-4.2
	c0.4,0.5,0.7,1,1.1,1.9c0.8-1,1.1-1.6,1.8-2.2c-0.2-0.2-0.2-0.2-0.4-0.5c-0.9,0.3-1.8,0.6-2.8,0.9c0.8-1,1.4-2.2,2.4-3.4
	c0.4,0.5,0.7,1,0.9,1.6c0.2-0.2,0.5-0.8,0.8-1c-0.6-0.3-1.2-0.6-1.9-0.5c0.8-1,1.6-2,1.9-3c0.5-1.9,2.4-1.9,3.8-2.5
	c0.2-0.2,1.4,0.8,1.8,1.3c0.6,0.7,0.6,1.8,0.9,2.8C541.7,407.4,541.9,410.7,539.4,408.4c0.3-0.6,0.7-1.7,0.7-1.7
	c-0.8-0.5-1.7-0.7-2.3-1c-0.2,0.2-0.3,0.6-0.5,0.8C538.1,407.1,538.9,407.7,539.4,408.4z M526,426.7c0.9-0.3,1.3-0.3,2.4-0.3
	c-1.2,2.5-3.8,3.6-3.3,6.8c-3.2,0.9-6.7,4.3-8.9,9.5c3.7-1.7,6.1-4.6,8.8-7.1c2.8-2.9,4.1-6.2,4.6-10.1c-0.7,0.1-1.5,0-2.2,0.1
	c-0.3-0.9-0.7-1.4-0.8-2.1c-7.1,3.9-9.3,10.5-10.5,18c2.2-3.6,6.3-6.4,5-11.1c2.9-0.7,3.2-3.9,5.4-5.6
	C525.7,425.3,525.9,426,526,426.7z M529.3,421.5c1.6-0.4,3.1-0.5,2.9-2.2c-0.1-0.7-1.4-1.3-2-1.2
	C528.4,418.3,529.3,419.9,529.3,421.5z M537.1,412.5c-0.2-0.2-0.4-0.1-0.6-0.3c-0.3,0.6-0.7,1.7-1,2.7
	C537.9,414.5,537.2,413.1,537.1,412.5z M534.9,426.8c0.2-0.2,0.5-0.4,0.7-0.6c-1-0.8-1.7-1.8-2.7-2.6l-0.2,0.2
	C533.2,425,534.2,425.8,534.9,426.8z M539,409.9c-0.5,0.4-1.2,0.5-1.2,0.9c-0.2,0.2,0.1,0.7,0.3,0.9c0.2-0.2,1.1-0.1,1.2-0.5
	C539.5,411,539.1,410.5,539,409.9z M533.3,414.6c-0.2-0.2-0.1-0.7-0.3-0.9c-0.7,0.1-1.2,0.5-2.1,0.8c0.2,0.2,0.4,0.5,0.1,0.7
	C531.9,415.2,532.6,415.1,533.3,414.6z M535,415.2c-0.2,0.2-0.4-0.1-0.7,0.1c0.1,0.7,0,1.5,0.1,2.2c0.2-0.2,0.4,0.1,0.7-0.1
	C535,416.8,535.1,415.9,535,415.2z"/>
<g>
	<path class="st5" d="M188.3,197.8c0,0.6,0.5,0.9,0.9,1.2c0.3,0.2,0.6,0.6,0.7,0.9c0.2,0.7,0.2,1.5,1.2,1.8
		c-0.7,0.3-1.1,0.2-1.5-0.6c-0.3-0.6-0.7-1.1-1.3-1.4c-0.4-0.2-0.8-0.3-1.3-0.5c0.2,1.5,0.4,3.1,0.5,4.6c-0.1,0-0.2,0.1-0.3,0.1
		c-0.5-1.5-1-2.9-1.7-4.3c-0.3,0.4-0.6,0.7-0.9,1.1c-0.5,0.4-0.5,1-0.5,1.7c0,0.8-0.2,1.1-1.1,1.3c0.8-0.8,0.4-1.5,0.2-2.3
		c-0.1-0.3,0.1-0.7,0.2-1.1c0.2-0.4,0.2-0.9,0.4-1.3c-0.1,0-0.2,0-0.2-0.1c-1,1.3-2.1,2.7-3,3.9c-0.1,0-0.2-0.1-0.3-0.1
		c0.7-1.5,1.4-3,2.1-4.6c-0.6-0.1-0.8,0.3-1.1,0.7c-0.4,0.6-0.8,0.9-1.4,0.9c-0.7,0-1.1,0.5-1.4,1c-0.3-0.6-0.1-1,0.6-1.4
		c0.4-0.2,0.8-0.6,1.2-1c0.1-0.2,0.2-0.5,0.3-0.7c0.1-0.3,0.3-0.6,0.4-0.9c-1.5,0.2-3.1,0.4-4.6,0.5c0-0.1-0.1-0.2-0.1-0.3
		c1.5-0.5,2.9-1,4.3-1.7c-0.9-0.7-1.6-1.6-2.9-1.5c-0.7,0.1-1-0.2-1.1-1c0.7,0.6,1.4,0.4,2.1,0.2c0.3-0.1,0.8,0.1,1.2,0.2
		c0.5,0.2,0.9,0.4,1.4,0.2c-1.4-1.1-2.7-2.1-4-3.1c0-0.1,0.1-0.2,0.1-0.3c1.5,0.7,3,1.4,4.6,2.1c0.1-0.5-0.3-0.8-0.7-1.1
		c-0.7-0.4-0.8-0.9-0.9-1.5c-0.1-0.5-0.5-1-0.7-1.4c0.4-0.1,0.7,0,1.2,0.7c0.3,0.4,0.8,1,1.2,1.4c0.4,0.2,0.9,0.4,1.4,0.6
		c-0.2-1.5-0.4-3.1-0.5-4.6c0.1,0,0.2-0.1,0.3-0.1c0.5,1.5,1,2.9,1.7,4.3c0.3-0.4,0.6-0.6,0.9-1c0.5-0.5,0.6-1.1,0.5-1.7
		c0-0.8,0.2-1.1,0.9-1.3c-0.1,0.4-0.3,0.8-0.3,1.2c0,0.4,0.3,0.7,0.3,1.1c0.1,0.3-0.1,0.7-0.2,1c-0.2,0.5-0.5,0.8-0.2,1.4
		c1.1-1.4,2.1-2.7,3.1-3.9c0.1,0,0.2,0.1,0.3,0.1c-0.7,1.5-1.4,3-2.1,4.6c0.5,0.1,0.7,0,1-0.6c0.4-0.7,0.9-0.9,1.6-1
		c0.5-0.1,1-0.5,1.4-0.7c0.2,0.2,0.1,0.4-0.1,0.8c-0.2,0.2-0.5,0.4-0.8,0.5c-0.6,0.3-1.1,0.9-1.3,1.5c-0.1,0.3-0.3,0.7-0.4,1
		c1.5-0.2,3.1-0.4,4.6-0.6c0,0.1,0.1,0.2,0.1,0.2c-1.5,0.5-2.9,1-4.3,1.7c0.4,0.3,0.7,0.8,1.2,1c0.5,0.3,1.1,0.3,1.6,0.4
		c0.8,0.1,1.2,0.3,1.3,1c-0.4-0.2-0.8-0.3-1.2-0.3c-0.4-0.1-0.7,0.3-1.1,0.3c-0.3,0.1-0.7-0.1-1-0.2c-0.5-0.2-0.8-0.5-1.5-0.2
		c1.4,1.1,2.7,2.1,4,3.1c0,0.1-0.1,0.2-0.1,0.3C191.3,199.2,189.8,198.5,188.3,197.8z M182.4,196.1c-0.7,0.5-0.7,0.7-0.2,1.3
		c1.1,1.4,3,1.7,4.5,0.9c1.8-1,2.2-2.5,2-4.2c-0.4-1.9-2.1-3.1-3.9-2.9c-1.9,0.2-3.4,1.7-3.5,3.5c-0.1,0.6-0.1,1.2,0.4,1.8
		C182,196.3,182.2,196.3,182.4,196.1z M186.4,187.8c0.2,1.3-1.3,2-1.5,3.1c0.5,0.1,1,0.1,1.3,0.2c0.2-0.6,0.2-1.1,0.5-1.5
		C187,188.9,186.7,188.4,186.4,187.8z M181.3,196.7c-0.8,0.9-0.7,2.5-2.2,2.8c0.9,0,1.6-0.2,2.1-1c0.1-0.3,0.6-0.5,0.9-0.7
		C181.8,197.4,181.7,197.1,181.3,196.7z M180.6,189.2c-0.1,0.7,0,1.2,0.7,1.7c0.4,0.2,0.7,0.7,1.1,1.1c0.3-0.2,0.7-0.4,1.1-0.8
		C182.6,190.4,181,190.6,180.6,189.2z M184,198.9c-0.2,0.5-0.2,1.1-0.4,1.5c-0.4,0.7-0.3,1.2,0.2,1.8c-0.2-1.4,1.3-2,1.5-3.1
		C184.8,199,184.4,199,184,198.9z M189,196c0.4,0.1,0.9,0,1.2,0.3c0.7,0.5,1.5,0.4,2.3-0.1c-1.1,0.1-1.8-0.3-2.5-1
		c-0.2-0.2-0.6-0.4-0.9-0.5C189.1,195.2,189,195.7,189,196z M177.6,193.7c1-0.1,1.8,0.3,2.4,1c0.3,0.2,0.7,0.4,0.9,0.5
		c0.1-0.6,0.1-1,0.2-1.4c-0.4-0.1-0.8,0-1.2-0.3C179.3,193.2,178.6,193.2,177.6,193.7z M189.6,200.7c0-0.7,0-1.2-0.7-1.7
		c-0.4-0.2-0.7-0.7-1.1-1.1c-0.3,0.2-0.7,0.5-1.1,0.8C187.6,199.6,189.1,199.5,189.6,200.7z M188.1,192.2c0.3,0.3,0.5,0.7,0.8,1.1
		c0.8-0.8,0.7-2.4,2.2-2.8c-1,0.2-1.4-0.1-2.1,1C188.8,191.8,188.4,191.9,188.1,192.2z M180.9,201.6c0.1,0,0.1,0,0.2,0.1
		c0.7-1,1.5-2,2.2-3c-0.1,0-0.1-0.1-0.2-0.1c-0.2,0.4-0.5,0.6-0.7,1c0,0-0.1,0-0.1-0.1c0.2-0.4,0.4-0.8,0.6-1.1
		c-0.1,0-0.1,0-0.2-0.1C182,199.4,181.4,200.5,180.9,201.6z M189.6,197.6L189.6,197.6c-0.4-0.1-0.8-0.2-1.2-0.5c0,0.1,0,0.2-0.1,0.3
		c1.1,0.6,2.3,1.1,3.4,1.7c0-0.1,0-0.1,0.1-0.2c-1-0.7-2-1.5-3-2.2c0,0.1-0.1,0.1-0.1,0.2C188.9,197.1,189.3,197.4,189.6,197.6z
		 M185.9,199c-0.1,0-0.1,0.1-0.2,0.1c0.5,1.2,0.8,2.4,1.3,3.6c0.1,0,0.1,0,0.2-0.1c-0.1-1.2-0.4-2.5-0.5-3.8c-0.1,0-0.2,0-0.2,0.1
		c0,0.5,0.2,1.1,0.2,1.6l0,0C186.2,200,186,199.5,185.9,199z M183.7,191.1c0.1,0,0.2,0,0.2-0.1c-0.1-0.6-0.2-1.1-0.3-1.8l0,0
		c0.2,0.5,0.4,1.1,0.6,1.6c0.1,0,0.1-0.1,0.2-0.1c-0.5-1.2-0.8-2.4-1.3-3.6c-0.1,0-0.1,0-0.2,0.1
		C183.4,188.7,183.5,189.9,183.7,191.1z M180.5,192.2L180.5,192.2c0.4,0.1,0.8,0.3,1.2,0.5c0-0.1,0-0.1,0.1-0.2
		c-1.1-0.6-2.2-1.1-3.3-1.6c0,0.1,0,0.1-0.1,0.2c1,0.7,2,1.5,3,2.2c0-0.1,0.1-0.1,0.1-0.2C181.2,192.7,180.9,192.5,180.5,192.2z
		 M187.3,191.7c0.1,0,0.2,0,0.2,0.1c0.6-1.1,1.1-2.3,1.7-3.4c-0.1,0-0.1,0-0.2-0.1c-0.7,1-1.5,2-2.2,3c0.1,0,0.1,0.1,0.2,0.1
		c0.2-0.4,0.5-0.6,0.7-1h0.1C187.6,190.8,187.5,191.2,187.3,191.7z M177.5,196.7c0,0.1,0.1,0.1,0.1,0.2c1.2-0.1,2.4-0.4,3.6-0.5
		c0-0.1,0-0.1-0.1-0.2c-0.5,0-0.9,0.1-1.4,0.2v-0.1c0.4-0.1,0.9-0.3,1.4-0.4c0-0.1-0.1-0.1-0.1-0.2
		C179.8,195.9,178.7,196.3,177.5,196.7z M189,193.6c0,0.1,0,0.1,0.1,0.2c0.5,0,0.9-0.2,1.4-0.2v0.1c-0.4,0.1-1,0.4-1.4,0.5
		c0,0.1,0.1,0.1,0.1,0.2c1.2-0.4,2.3-0.8,3.5-1.2c0-0.1,0-0.1-0.1-0.2C191.4,193.2,190.1,193.5,189,193.6z"/>
	<path class="st5" d="M186.1,194.6c-0.1,0-0.3-0.1-0.4-0.2c0.1-0.3,0.2-0.4,0.5-0.2c0.3,0.1,0.8,0.2,1-0.4c0-0.1,0.2-0.1,0.3-0.2
		l0.2,0.1c0,0.1-0.1,0.3-0.1,0.3C187.1,194.2,186.7,194.3,186.1,194.6z"/>
	<path class="st5" d="M184.2,194.4c-0.2,0.7-0.2,0.7-0.8,0.6c-0.2,0-0.5,0.1-0.7,0.1c-0.1,0-0.3,0-0.4-0.2v-0.2c0.1,0,0.2,0.1,0.3,0
		c0.3,0,0.5,0,0.8-0.1C183.7,194.7,183.8,194.6,184.2,194.4z"/>
	<path class="st5" d="M183.1,193.2c0-0.2,0-0.3,0.1-0.4c0.1,0.1,0.2,0.2,0.3,0.2c0.1-0.2,0.2-0.4,0.4-0.5c0.1,0.1,0.2,0.2,0.3,0.3
		C183.7,192.9,183.4,193,183.1,193.2z"/>
	<path class="st5" d="M184.4,194.2c-0.3-0.1-0.7-0.3-1-0.4c0-0.1,0-0.1,0.1-0.2c0.3,0.1,0.6,0.4,0.9,0.5
		C184.4,194.1,184.4,194.1,184.4,194.2z"/>
	<path class="st5" d="M182.7,196.6c-0.2,0.2-0.3,0.3-0.6,0.4c0-0.2,0-0.3,0.2-0.5C182.4,196.6,182.6,196.6,182.7,196.6z"/>
	<path class="st5" d="M185.3,193.7c0.1-0.3,0.4-0.5,0.5-0.7c0.1,0,0.1,0.1,0.2,0.1c-0.1,0.3-0.4,0.5-0.5,0.7
		C185.4,193.8,185.3,193.7,185.3,193.7z"/>
	<path class="st5" d="M184.8,197.2c0.5-0.1,0.9-0.3,1.5-0.3C185.7,197,185.3,197.1,184.8,197.2z"/>
	<path class="st5" d="M186.1,192.4c-0.2,0.1-0.4,0-0.5,0.1l0,0c0.1-0.1,0.1-0.3,0.2-0.4C185.8,192.2,185.9,192.3,186.1,192.4z"/>
	<path class="st5" d="M185.2,192.6c-0.1-0.1-0.1-0.3-0.1-0.4c0.1,0,0.1,0,0.2-0.1c0.1,0.1,0.1,0.3,0.1,0.4
		C185.3,192.6,185.2,192.6,185.2,192.6z"/>
	<path class="st5" d="M185.1,196c-0.1,0-0.3,0-0.4-0.1v-0.1c0.1,0,0.2-0.1,0.4,0C185.2,195.9,185.1,196,185.1,196z"/>
	<path class="st5" d="M185.9,195.7c-0.1,0.1-0.2,0.2-0.3,0.3l-0.1-0.1C185.6,195.8,185.7,195.7,185.9,195.7
		C185.8,195.7,185.9,195.7,185.9,195.7z"/>
</g>
<path class="st6" d="M494.6,503.9l-7.3-150.7c0-0.2,0-0.4,0-0.6c0-0.3,0-0.7,0-1l0.9-57.6c0-2.6,2.9-4.3,5.2-3l45.6,24.6
	c4,2.2,5.9,6.9,4.5,11.2l-22.3,70c-0.3,0.9,0.1,1.8,1,2.2l33.9,15.3c0.8,0.3,1.7,0.1,2.2-0.6l35-47.5c7.5-10.2,12.7-21.8,15.2-34.2
	l3.5-17.5c2.1-12.1-2.1-24.5-11.3-32.8l-77.1-69.4c-9.1-8.2-19.9-14.2-31.6-17.6l-40.7-12c-2.4-0.7-5-0.4-7.1,0.7L401,206.5
	c-2.9,1.5-6.3,1.5-9.1-0.1L348,181.7c-2.7-1.5-5.9-1.6-8.6-0.3l-39.9,18.5c-8.7,4-16.7,9.6-23.5,16.4l-12,12.1
	c-0.2,0.2-0.4,0.4-0.6,0.7l-28.2,37.2c-2.2,2.7-6.5,1.7-7.2-1.7l-10.5-31.5c-0.6-1.9-2.5-3-4.3-2.4l-34.9,10.7
	c-3.3,1.2-5.7,4.1-6.3,7.6l4.2,60.8c-1.6,10.5,8,22.9,15.1,30.8l13.2,14.8c3.2,2.8,7.8,3.2,11.4,0.9l84-53.7
	c2.2-1.4,5.1,0.1,5.2,2.7l2.3,59.2c0,0.1,0,0.3,0,0.4l-9,135.2c-0.2,2.3,1.6,4.3,3.9,4.4l55.4,9.8c23.6,4.2,47.7,4.8,71.4,1.7
	l61.3-7.9C492.8,508.2,494.7,506.2,494.6,503.9z"/>
<g>
	<path class="st8" d="M429.9,280.8c13.3-5.9,26.4-11.8,39.7-17.7c0.3,0.9,0.9,1.9,1.2,2.8c-13,6.5-24.5,15.8-38.8,19.2
		C431.4,283.9,430.8,282.3,429.9,280.8z"/>
	<path class="st8" d="M433.9,247.9c-2.5,10.6-4.7,21.1-7.1,32c-1.6-0.3-3.1-0.9-5-1.2c2.8-10.6,5.9-21.1,8.7-31.3
		C431.7,247.3,432.7,247.6,433.9,247.9z"/>
	<path class="st8" d="M457.5,292.9c-6.5,0.3-13,0.6-19.5,0.9c0-1.2-0.3-2.5-0.3-3.7c6.5-0.3,13-0.6,19.9-1.2
		C457.5,290.4,457.5,291.6,457.5,292.9z"/>
	<path class="st8" d="M416.2,282.9c-4-2.8-8.1-5.6-12.1-8.4c0.6-0.9,1.2-1.9,1.9-2.8c4,2.8,8.1,5.6,12.1,8.4
		C417.5,281.1,416.8,282,416.2,282.9z"/>
</g>
</svg>
