<?xml version="1.0" encoding="utf-8"?>
<!-- Generator: Adobe Illustrator 26.0.3, SVG Export Plug-In . SVG Version: 6.00 Build 0)  -->
<svg version="1.1" id="Calque_1" xmlns="http://www.w3.org/2000/svg" xmlns:xlink="http://www.w3.org/1999/xlink" x="0px" y="0px"
	 viewBox="0 0 788 1005" style="enable-background:new 0 0 788 1005;" xml:space="preserve">
<style type="text/css">
	.st0{fill:#A86282;}
	.st1{fill:#B85727;}
	.st2{fill:#A45F5E;}
	.st3{fill:none;stroke:#000000;stroke-width:3;stroke-miterlimit:10;}
	.st4{fill:#473415;}
	.st5{fill:none;stroke:#4F3742;stroke-miterlimit:10;}
	.st6{fill:#8C5E77;}
	.st7{fill:#211843;}
	.st8{fill:#221944;}
</style>
<path class="st0" d="M323.8,176.6c0-24.9,33.1-12.5,73.8-12.5s73.7-12.5,73.7,12.5s-37.6,49.6-78.3,49.6S323.8,201.5,323.8,176.6z"
	/>
<path class="st1" d="M515.3,244.5c-0.6,38.4-26.2,33.2-36.9,42.3c-12.6,10.8-8.3,50-17.2,64c-2.5,3.8-11.4,10.1-15.8,9.1
	c-12.5-2.9-24-30.7-34.8-37.7c-6.3-4.1-23.6-3.6-30.2,0c-11.2,6.2-22.3,34.9-34.8,37.7c-4.4,1-13.4-5.2-15.8-9.1
	c-8.9-14-4.6-53.2-17.2-64c-10.6-9.1-36.2-3.9-36.9-42.3c-0.4-26.6,35-37.3,35-37.3l40.1-19.9c2.6-1.3,5-2.9,7.1-4.8
	c0.8-0.7,1.6-1.5,2.3-2.3l0.6-0.7v-0.1c3.9-4.7,6.5-10.4,7.2-16.4c0.2-1.4,0.3-2.8,0.2-4.2V156v-4.5h53.6l0.1,5v1.5v3.2
	c0,0.3,0,0.7,0,1l0,0c0,0.6,0.1,1.3,0.2,1.9c0.2,1.5,0.5,3.1,0.9,4.6c2.2,7.7,7.6,14,14.7,17.6l40.5,20.1c1,0.5,2.1,1,3.2,1.3
	C488.4,210,515.6,221.1,515.3,244.5z"/>
<path class="st2" d="M423.4,168.9l-1,1.2c-5.2,6.3-28.8,35-41.8,44.3c-3.2,2.3-5.7,3.4-7.2,2.7c-6.8-3.3-14.8-35.1-14.8-35.1
	l0.1-0.1c0.6-0.6,1.2-1.2,1.7-1.9c0.3-0.4,0.7-0.8,1-1.3l0.1-0.1c3.3-4.5,5.5-9.7,6.7-15.2c0-0.2,0.1-0.4,0.1-0.6
	c0.3-1.4,0.5-3,0.7-4.8c0.1-0.7,0.1-1.4,0.2-2.2c0.1-1.4,0.2-2.9,0.3-4.5h52.7v0.2v4.3v6.7l0.1,0.8l0.1,0.7l0.9,4.6L423.4,168.9z"/>
<path class="st3" d="M465.2,407c-0.9-4-5.7-25.3-5.6-33.8c0.1-9.2,4-27.7,1.8-36.6c-9.8-39.6-123.5-39.6-133.3,0
	c-2.2,9,1.7,27.5,1.8,36.6c0.1,8.6-4.7,29.8-5.6,33.8c-11,50.3,70.3,73.4,70.3,73.4S476.2,457.3,465.2,407z"/>
<path class="st1" d="M334.8,251.5c-8.5,26.3-35.5,43.8-35.5,43.8s-48.2,39.4-64.1,52.8c-7.5,6.3-22.8,19.7-39.1,1.5l0,0
	c-13.4-15-1.2-30.5,5.4-37.2c13.3-13.7,43.2-38.6,53.9-54.2c7.9-11.6,15.6-32.6,38-41.5c0,0,17.6-9.3,32.6,4l0.6,0.5
	C335.1,228.7,338.3,240.6,334.8,251.5L334.8,251.5z"/>
<path class="st1" d="M458,241.6c-1.2,27.7,17.9,53.4,17.9,53.4s31.3,53.8,41.5,71.9c4.8,8.5,14.5,26.5,36.1,15.1l0,0
	c17.8-9.4,11.8-28.1,8-36.7c-7.7-17.5-26.9-51.3-31.4-69.7c-3.3-13.7-3.2-36.1-21-52.2c0,0-13.2-14.8-31.9-7.6l-0.7,0.3
	C465.7,220.1,458.5,230.1,458,241.6z"/>
<path class="st3" d="M465.7,406.3c-0.9-4-5.7-25.3-5.6-33.8c0.1-9.2,4-27.7,1.8-36.6c-9.8-39.6-123.5-39.7-133.3,0
	c-2.2,8.9,1.7,27.5,1.8,36.6c0.1,8.6-4.7,29.8-5.6,33.8c-11,50.3,70.3,73.4,70.3,73.4S476.8,456.7,465.7,406.3z"/>
<polygon class="st4" points="316.7,451.3 318.2,428.8 473.2,428.8 475.2,448.3 "/>
<polygon class="st5" points="394.6,489.9 389.6,449.9 404.6,449.9 403.6,482.1 "/>
<path class="st0" d="M300.1,206.5c0.4,15.5,7.9,65.7,9.6,76.9c0.2,1.5,0.3,3,0.1,4.4l-15.3,162.8c-0.5,5.2,1.3,10.3,4.8,14.1l5,5.4
	c3.2,3.4,4.9,7.8,4.9,12.5v1.6c0,10.1,8.1,18.2,18.2,18.2h133.1c10.2,0,18.5-8.5,18.2-18.7l0,0c-0.1-2.8,0.5-5.6,1.7-8.2l6.6-14.3
	c1.4-2.9,1.9-6.2,1.6-9.4l-15.2-155.6c-0.2-1.6-0.1-3.2,0.2-4.7l13.7-83.1c0.5-2.9-1.2-5.8-4-6.8L438,186.2l-25.1,30.4
	c-3.8,4.6-9.6,7-15.5,6.5l-7.8-0.6c-6-0.5-11.4-4-14.4-9.3L358,182.4L303.9,201C301.6,201.8,300,204,300.1,206.5z"/>
<path class="st1" d="M560.3,368.6c2.8-17.2-16.2-30.4-23.3-34.8s-22.7-10-30.4-12.7c-19.6-7.1-52.9-16.4-72-23.6
	c-12.6-4.7-19.2-7.6-22.5-0.4c-3,6.5,7.9,15,12.2,18.3c17.6,13.8,51.8,41.2,71.9,52.9c8.2,4.8,25.4,13,34.2,15
	C554.8,389.1,559.5,373.6,560.3,368.6z"/>
<path class="st1" d="M447.6,303.5l-5.2-2.8c-0.4-0.2-0.8-0.5-1.1-0.8c-3-3.3-20-22.3-20.8-23.1c-0.9-0.9-16.2-13.7-17.3-14.8
	c-0.6-0.6-2.7-3.3-4.7-5.9c-1.8-2.3-5.4-2-6.7,0.7l-0.9,1.9c-0.6,1.3-0.5,2.8,0.3,4l6.3,9.2c0.1,0.2,0.3,0.4,0.5,0.6l0,0
	c2.8,2.8,0.3,7.4-3.5,6.7l-10.9-2c-0.1,0-0.2-0.1-0.4-0.1c-2.7-0.8-35.5-10.3-36.1-9.1c-0.6,1.2-1.5,8.1-0.3,8.7
	c0.9,0.4,18.3,6,28.2,9.2c0.7,0.2,0.5,1.3-0.3,1.2c-12-1.6-35.7-4.4-35.9-2.9c-0.3,2.1-0.6,9.6,1.2,9.6c1.3,0,20.7,2,31.2,3.1
	c0.7,0.1,0.7,1.2,0,1.2c-11,0.9-31.7,2.6-31.2,3.5c0.5,1,2.3,6.4,2.9,8c0.1,0.3,0.3,0.4,0.6,0.4l33-1.1c0.7,0,0.9,1,0.2,1.2
	l-17.6,5.8c-2.5,0.8-3.5,3.9-2,6.1c1.1,1.6,2.3,3,2.8,3c1.1,0,25.2-7,29.8-8.3c0.5-0.1,1-0.2,1.5-0.1c4.6,0.5,29,2.9,30.3,2.2
	c3-1.5,8.6,1,11.9,2.7c1.5,0.8,3.4,0.5,4.6-0.7l10.7-10.6C450.4,307.9,450,304.7,447.6,303.5z"/>
<path class="st6" d="M327.9,192.9c0,0,40,53.5,68.1,47.5c0,0-26.3,15.4-46.3,5s-38.4-46.9-37.6-47.3S327.9,192.9,327.9,192.9z"/>
<path class="st6" d="M309.2,475.5h170v23.3c0,2-1.7,3.7-3.7,3.7H312.9c-2,0-3.7-1.7-3.7-3.7L309.2,475.5L309.2,475.5z"/>
<path class="st1" d="M226.5,354.3c14.5-10.5,6.6-31.7,3.3-39.8c-3.3-8-13.4-22.5-18.2-29.6c-12.6-18.4-51.8-72.9-59.1-93.4
	c-5.1-14.4-20.9,9.1-20.9,9.1s6.2,14.8,10.3,24.7c8.7,20.9,14.3,51.4,27.4,86.5c3.4,9.2,13.6,26.5,20.1,33.9
	C207.2,366.2,222.3,357.3,226.5,354.3z"/>
<path class="st1" d="M128.9,188.4l-17.8-15.6c0,0,6.7,2.9,8.8,0.1c0.5-0.8,0.3-4.7-0.3-5.3c-3.8-5.2-10.2-13.1-10.8-19.4
	c-0.3-2,3.5-7.3,3.5-7.3l23.4,22.8l11.8,20.6L128.9,188.4z"/>
<path class="st1" d="M104.8,153.7c-9.3-8.3-23.2-30-35.2-34.5c-2.3-0.7-9.5,0.6-9.5,0.6l22.2,33.8c4.2,6.3,9.4,12,15.7,16.9
	l32.7,29.2l15-18.1C145.7,181.5,114.8,162.8,104.8,153.7z"/>
<ellipse transform="matrix(0.7269 -0.6867 0.6867 0.7269 -93.9586 148.7085)" class="st1" cx="140" cy="192.5" rx="11.7" ry="11.6"/>
<path class="st7" d="M139.4,190.4c0.9-1.3,0.8-3.4-0.4-4.5L17.3,53.1l117.8,138.3c1.1,1.3,2.8,1.3,3.7-0.1L139.4,190.4z"/>
<path class="st1" d="M110.9,188.8l-17.4-19.1c-3-3.3-2.8-8.4,0.5-11.5l5-4.5c3.3-3,8.4-2.8,11.5,0.5l17.2,19c3,3.3,2.8,8.4-0.5,11.5
	l8.9,15C132.9,202.7,113.8,192.1,110.9,188.8z"/>
<g id="I971h2_00000067219755369311645200000005868042954794575240_">
	<g>
		<path class="st6" d="M448.8,296.3c-1.2-0.8-1.5-2.2-0.9-3.6c0.5-1.1,1.8-1.7,3.1-1.4c1.3,0.3,2,1.1,2.3,2.4c0.3,1.6-0.1,3-1.5,4
			c-1.8,1.4-4.7,1.5-6.6,0.2c-1-0.7-1.8-1.6-1.8-2.8c0-1.6,0.1-3.3,0.5-4.9c0.5-1.8,0.2-3-1.3-4.1c-2.4-1.8-3-4.2-2.1-7
			c0.9-2.8,2.8-4.3,5.8-4.6c0.2,0,0.6-0.1,0.7-0.3c1-1.3,0.9-3.7-0.2-5c-2.5-2.9-3.5-6.4-4-10c-0.2-1.7-0.1-3.3,0.9-4.8
			c1.4-2.2,3.8-2.3,5.3-0.2c0.4,0.6,0.8,1.3,1,2.1c0.9,2.9,0.9,5.9,0.2,8.8c-0.3,1.3,0,2.1,0.9,3.1c1.5,1.6,3,3.2,4.2,5
			c2.2,3.3,2.3,6.8,0.5,10.3c-1.9,3.6-5.1,5.1-9.1,5c-0.5,0-1-0.1-1.2,0.6c-0.8,2.2-0.9,4.5,0.1,6.7c0.8,1.7,2.3,2.2,4.2,1.3
			C449.4,296.7,449.1,296.5,448.8,296.3z M446.1,286.5c2.3,0.6,4.3,0.2,6-1.3c1.9-1.6,2.7-3.7,2.1-6.1c-0.3-1.3-0.9-2.6-1.7-3.7
			c-0.9-1.3-2-2.4-3.2-3.8c-0.3,1.1-0.6,2.1-0.8,3c2.9,2.3,3.9,5.2,2.9,7.9c-0.6,1.6-2,2.6-3.9,2.5c0.4-0.5,0.7-0.9,1-1.2
			c2-1.8,1.8-3.9-0.9-5.2C447.2,281.3,446.7,283.9,446.1,286.5z M447.6,257.3c-0.2-0.5-1.1-1.2-1.4-1.1c-0.6,0.2-1.1,0.9-1.4,1.5
			c-0.2,0.4-0.1,1,0,1.5c0.5,2.5,1.8,4.5,3.9,6.4C449.1,262.5,448.9,259.8,447.6,257.3z M446.2,278.5c-1.4-0.1-2.5,0.6-3,2.1
			c-0.7,2.1-0.2,4.2,1.5,5.4C445.3,283.4,445.7,280.9,446.2,278.5z"/>
	</g>
</g>
<g id="I971h2_00000031198194278168428470000017436679332327562150_">
	<g>
		<path class="st8" d="M94.7,216.8c-1.5-0.5-2.4-1.8-2.3-3.6c0.1-1.5,1.3-2.5,2.9-2.7c1.5-0.1,2.8,0.5,3.5,1.7
			c0.9,1.6,0.9,3.3-0.1,5c-1.5,2.2-4.7,3.3-7.3,2.7c-1.4-0.3-2.5-1-3-2.4c-0.6-1.8-1-3.7-1.2-5.5c-0.1-2.2-0.8-3.3-3-4
			c-3.3-1-4.8-3.5-5-6.9c-0.1-3.5,1.5-5.9,4.6-7.3c0.2-0.1,0.6-0.3,0.7-0.6c0.6-1.8-0.3-4.4-2.1-5.4c-3.8-2.2-6.3-5.5-8.2-9.5
			c-0.8-1.7-1.3-3.6-0.8-5.5c0.7-2.9,3.3-3.9,5.8-2.2c0.8,0.5,1.4,1.2,2,1.8c2.2,2.9,3.3,6.2,3.6,9.7c0.1,1.5,0.8,2.3,2.1,3
			c2.2,1.3,4.5,2.4,6.5,3.9c3.7,2.9,5.2,6.7,4.4,11.2c-0.8,4.6-3.8,7.5-8.2,8.9c-0.5,0.1-1,0.2-1,1c-0.1,2.8,0.6,5.2,2.5,7.3
			c1.5,1.6,3.3,1.6,5.1-0.1C95.5,217.2,95.1,217,94.7,216.8z M88.1,207.2c2.8-0.2,4.7-1.5,6.1-3.7c1.4-2.4,1.5-5,0-7.4
			c-0.8-1.4-2-2.5-3.2-3.5c-1.5-1.2-3.1-2-5-3c0.1,1.4,0.1,2.5,0.2,3.6c4,1.5,6.2,4.1,6.1,7.6c-0.1,2.1-1.3,3.7-3.3,4.3
			c0.3-0.7,0.5-1.3,0.7-1.7c1.6-2.8,0.6-5-2.9-5.4C87.3,201.1,87.7,204.1,88.1,207.2z M78.9,174.4c-0.5-0.5-1.6-0.9-2-0.7
			c-0.6,0.5-0.8,1.4-0.9,2.2c-0.1,0.6,0.2,1.3,0.6,1.7c1.4,2.5,3.7,4.3,6.6,5.6C82.4,179.8,81.2,176.9,78.9,174.4z M85.1,198.4
			c-1.6,0.5-2.4,1.6-2.4,3.5c0,2.5,1.4,4.7,3.7,5.3C85.9,204.1,85.6,201.2,85.1,198.4z"/>
	</g>
</g>
<path class="st8" d="M9.8,117c1.3-0.9,2.5-0.9,3.5-0.1c0.6,0.5,0.8,1,0.7,1.7c-0.1,0.6-0.6,1-1.2,1.3c-1.6,0.6-3.1-0.3-3.6-2
	c-0.3-1.6-0.7-3.2-1-4.8c-0.1-0.6-0.3-0.9-0.9-1c-1.2-0.3-2.2-0.7-3.3-1c-0.5-0.1-1-0.2-1.6-0.5c0.1,1.5,0.3,2.9,0.5,4.4
	c1.2-0.8,2.2-0.9,3.2-0.2c0.7,0.3,1,0.9,0.9,1.7c-0.1,0.7-0.6,1.2-1.2,1.4c-1.5,0.7-3.2-0.2-3.6-1.7c-0.2-0.9-0.3-1.7-0.6-2.7
	c-0.6-2.2-1-4.5-1.6-6.8c2.9,0.3,5.8,0.7,8.8,1C9.1,110.8,9.4,113.9,9.8,117z M3.3,110.1c1.4,0.3,2.9,0.7,4.3,1
	c0.1-0.9-0.1-1.2-0.8-1.4c-1.5-0.3-3-0.7-4.6-1.2C2,109.9,2,109.9,3.3,110.1z"/>
<path class="st8" d="M30.8,150.3c0.2-0.3,0.3-0.9,0.2-1.3c-0.5-1.5-0.1-2.9,0.8-3.9s2.2-1.8,3.2-2.9c0.8-0.8,1.7-1.6,2.1-2.5
	c0.6-1.4,1.3-1.8,2.7-1.4c0.2,0.1,0.6,0.1,0.8,0.1c0.9,0,1.3,0.3,1,1.3c-0.2,0.8-0.3,1.6-0.6,2.4c-1.3,4.7-2.4,9.5-3.7,14.4
	c2.4-0.9,4.4-0.3,5.9,1.4c1,1,1.4,2.4,0.8,3.9c-0.6,1.4-1.7,1.8-3.1,2c-3,0.1-5.5-2.8-5.2-5.8c0.5-3.5,0.9-6.9,1.4-10.6
	c-2.5,1.7-6.1,2.2-5.9,6.3C30.5,152.6,30.7,151.5,30.8,150.3z M31.8,149.2c2-2.1,4.7-2.9,5.6-6C35.1,144.8,32,145.2,31.8,149.2z"/>
<path class="st8" d="M6.3,74.1c0.9-0.7,1.8-0.7,2.8-0.1c0.5,0.3,0.8,0.8,0.7,1.4c-0.1,0.6-0.5,0.9-1,1.2c-1.4,0.5-2.8-0.5-3-1.8
	c-0.3-1.4-0.6-2.7-0.8-4c-0.2-1.4-0.6-2.8-0.8-4.3c0.6-0.1,1-0.2,1.6-0.3C5.9,68.8,6.1,71.4,6.3,74.1z"/>
</svg>
