<?xml version="1.0" encoding="utf-8"?>
<!-- Generator: Adobe Illustrator 26.0.2, SVG Export Plug-In . SVG Version: 6.00 Build 0)  -->
<svg version="1.1" id="Calque_1" xmlns="http://www.w3.org/2000/svg" xmlns:xlink="http://www.w3.org/1999/xlink" x="0px" y="0px"
	 viewBox="0 0 788 1005.1" style="enable-background:new 0 0 788 1005.1;" xml:space="preserve">
<style type="text/css">
	.st0{fill:#E2927D;}
	.st1{fill:#F7A386;}
	.st2{fill:#D79072;}
	.st3{fill:#8D4B51;}
	.st4{fill:#B47D7C;}
	.st5{fill:#93273E;}
	.st6{fill:url(#SVGID_1_);}
</style>
<path class="st0" d="M371.1,141.4l-5.2-1.5c-1.1-0.3-2.4,0-3.2,0.9v0c-0.6,0.6-0.9,1.5-0.9,2.4l0.8,11.9c0,0.5,0.2,1.1,0.5,1.5
	c1.3,2,5.1,7.8,5.6,8.5c0.2,0.4,1.2,0.7,2.3,1c1.7,0.5,3.5-0.6,4-2.3l2.5-10.7c0.2-0.7,0.1-1.5-0.3-2.2L373,143
	C372.6,142.2,371.9,141.7,371.1,141.4z"/>
<path class="st0" d="M442.1,141.4l5.2-1.5c1.1-0.3,2.4,0,3.2,0.9v0c0.6,0.6,0.9,1.5,0.9,2.4l-0.8,11.9c0,0.5-0.2,1.1-0.5,1.5
	c-1.3,2-5.1,7.8-5.6,8.5c-0.2,0.4-1.2,0.7-2.3,1c-1.7,0.5-3.5-0.6-4-2.3l-2.5-10.7c-0.2-0.7-0.1-1.5,0.3-2.2l4.1-7.9
	C440.6,142.2,441.3,141.7,442.1,141.4z"/>
<polygon class="st1" points="406.7,93.2 406.7,93.2 406.5,93.2 "/>
<path class="st1" d="M406.5,199.8h0.3v0.1h-0.1C406.6,199.9,406.5,199.9,406.5,199.8z"/>
<path class="st1" d="M445.1,125.5c0,0.5-2.8,14.8-2.8,14.8v8l-0.1,0.9l-3.8,25.5c-0.4,2.7-1.6,5.2-3.4,7.2c0,0-12.4,11.4-16.8,14.9
	c-1.3,1-7.4,2.2-10.3,2.8l-0.6,0.1l-0.5,0.1h-0.3c-0.1,0-0.1,0-0.2,0c-2.1-0.4-9.7-1.7-11.2-2.9c-4.4-3.4-16.5-14.9-16.5-14.9
	c-1.8-2-3-4.6-3.4-7.3l-3.7-25.3l-0.2-1.1v-8c0,0-2.7-14.3-2.7-14.8c0-0.2,0.4-2.2,0.9-4.6c1.4-6.8,5-12.9,10.4-17.2l4.2-3.5
	c4.8-3.9,10.8-6.3,17-6.6l5.2-0.3h0.3h0.2l5.4,0.3c6.3,0.4,12.3,2.7,17.3,6.6l4.3,3.5c5.4,4.3,9.2,10.4,10.6,17.2
	C444.7,123.4,445.1,125.4,445.1,125.5z"/>
<path class="st1" d="M406.2,199.8c0.1,0,0.1,0,0.2,0H406.2L406.2,199.8L406.2,199.8z"/>
<polygon class="st1" points="406.5,93.2 406.2,93.2 406.2,93.2 406.3,93.2 "/>
<path class="st2" d="M406.8,162.1c0,0-5.7-2.3-5.9-2.5s-1,1.2-1,1.2l-3.8,1.2l0.5,3.1l3.2,1.2l4.2-1.2l2.8,1.2L406.8,162.1z"/>
<path class="st3" d="M402.7,164.1l-2.2-2.1l-3,1c0,0,0.4,1.5,0.8,1.6l2.6,0.9L402.7,164.1z"/>
<path class="st2" d="M406.2,162.1c0,0,5.7-2.3,5.9-2.5s1,1.2,1,1.2l3.9,1.2l-0.5,3.1l-3.2,1.2l-4.2-1.2l-2.8,1.2L406.2,162.1z"/>
<path class="st3" d="M410,164.1l2.2-2.1l3,1c0,0-0.4,1.5-0.8,1.6l-2.6,0.9L410,164.1z"/>
<path class="st4" d="M440.3,161.4l1.9-13.2c0,0,4.7-4.7,5.1-4.8s0.6,2.1,0.6,2.1l-1.1,9.4l-2.7,4.7L440.3,161.4z"/>
<path class="st4" d="M373.4,162.4l-1.9-13.2c0,0-4.7-4.7-5.1-4.8s-0.6,2.1-0.6,2.1l1.1,9.4l2.7,4.7L373.4,162.4z"/>
<g>
	<path class="st5" d="M370.3,96.9c0,0-12.6,4.1-7.1,25.6s10.2,30.9,10.2,30.9s-5.2-32-2.4-36.2c2.7-4.2,9.2-7.8,8.2-12.1
		c0,0,11.1,8.6,23.6,4.2c-0.2,0,8.4,3.4,12.8,1c0,0.2,8.2,2.6,12.1,0.2c0.2,0.2,2.7,1.9,4.7,1.6c-0.3,0.2,3.4,2.7,5,2.1
		c-0.2,0,6.4,10.8,3.7,37c0,0.2,6.7-32,6.7-32S451.6,86,422.2,80c-29.4-6-45.1,8.6-47.2,13.9c0.3,0-2.5-2.4,2.5-7.1
		c0,0-5.7,3.6-4.6,8c0.1,0-4.1-0.6-8.8,2.2C364.1,97,369.4,95.7,370.3,96.9z"/>
	<linearGradient id="SVGID_1_" gradientUnits="userSpaceOnUse" x1="436.1316" y1="59.0274" x2="422.3006" y2="102.3082">
		<stop  offset="0.2487" style="stop-color:#76273E"/>
		<stop  offset="0.6694" style="stop-color:#89273E"/>
		<stop  offset="1" style="stop-color:#93273E"/>
	</linearGradient>
	<path class="st6" d="M401.2,92.7c0,0,16.8-11.5,20.4-23.9c-0.2,0,0.5,11.1-0.6,15.5s-1.3,9.8-8,17.2c0-0.1,12.8-17.3,13.6-30
		c0,0,9.1,18.7-2.1,31.1c0,0.2,7.6-8.7,8.5-23.9c0,0,1.1,5.1,2.1,7c1,1.9,2.5,11.7-2.1,17.6c0.2,0.1,6.8-7.5,8.2-13.9
		c0.1,0,0.6,3.8,1,5.5c0.5,2.2-0.1,9.6-4.7,13.4c0,0.1,7.4-6.2,9.2-10.8c0,0-0.4,4.4-0.5,5.3c-0.1,1.4-1.8,8.2-6.1,9.5"/>
</g>
</svg>
