<?xml version="1.0" encoding="utf-8"?>
<!-- Generator: Adobe Illustrator 26.0.2, SVG Export Plug-In . SVG Version: 6.00 Build 0)  -->
<svg version="1.1" id="Calque_1" xmlns="http://www.w3.org/2000/svg" xmlns:xlink="http://www.w3.org/1999/xlink" x="0px" y="0px"
	 viewBox="0 0 108.2 165.4" style="enable-background:new 0 0 108.2 165.4;" xml:space="preserve">
<style type="text/css">
	.st0{fill:none;stroke:#2E858E;stroke-width:3;stroke-miterlimit:10;}
	.st1{fill:#F7A386;}
	.st2{fill:#D79072;}
	.st3{fill:#3D332F;}
	.st4{fill:#A16559;}
	.st5{fill:#93273E;}
	.st6{fill:#2E858E;}
</style>
<g>
	<path class="st0" d="M5.7,102.5c-1-3.9-1.5-7.9-1.5-12.1c0-27,22.4-48.9,50-48.9s50,21.9,50,48.9c0,4.3-0.6,8.5-1.7,12.5"/>
	<g>
		<path class="st1" d="M18.7,107l-5.2-1.5c-1.1-0.3-2.4,0-3.2,0.9l0,0c-0.6,0.6-0.9,1.5-0.9,2.4l0.8,11.9c0,0.5,0.2,1.1,0.5,1.5
			c1.3,2,5.1,7.8,5.6,8.5c0.2,0.4,1.2,0.7,2.3,1c1.7,0.5,3.5-0.6,4-2.3l2.5-10.7c0.2-0.7,0.1-1.5-0.3-2.2l-4.2-7.9
			C20.2,107.8,19.5,107.3,18.7,107z"/>
		<path class="st1" d="M89.7,107l5.2-1.5c1.1-0.3,2.4,0,3.2,0.9l0,0c0.6,0.6,0.9,1.5,0.9,2.4l-0.8,11.9c0,0.5-0.2,1.1-0.5,1.5
			c-1.3,2-5.1,7.8-5.6,8.5c-0.2,0.4-1.2,0.7-2.3,1c-1.7,0.5-3.5-0.6-4-2.3l-2.5-10.7c-0.2-0.7-0.1-1.5,0.3-2.2l4.1-7.9
			C88.2,107.8,88.9,107.3,89.7,107z"/>
		<path class="st1" d="M54.4,165.4L54.4,165.4L54.4,165.4z"/>
		<polygon class="st1" points="54.5,58.7 54.4,58.7 54.4,58.7 54.2,58.7 54.4,58.7 		"/>
		<path class="st1" d="M92.3,91.1c0,0.5-2.7,14.8-2.7,14.8v8l-0.1,0.9l-3.3,22.5l-0.4,3c-0.4,2.7-1.6,5.2-3.4,7.3
			c-0.2,0.2-1.1,1.1-2.5,2.3c-1.4,1.3-3.2,2.9-5.1,4.7c-3.3,3.1-7,6.3-9,7.9c-0.3,0.2-0.6,0.4-0.9,0.5c-3,1-6.1,1.7-9.2,2.2h-0.1
			l-0.5,0.1l-0.7,0.1h-0.1l0,0c-0.1,0-0.1,0-0.2,0c-1.7-0.3-9.3-1.6-11.2-2.8l-0.2-0.1c-1.6-1.3-4.4-3.8-7.2-6.3
			c-4.6-4.2-9.3-8.6-9.3-8.6c-1.8-2-3-4.6-3.4-7.3L19.1,115l-0.2-1.1v-8c0,0-2.7-14.3-2.7-14.8c0-0.2,0.4-2.1,0.9-4.6
			c1.4-6.8,5-12.8,10.4-17.2l4.2-3.5c4.8-3.9,10.8-6.3,17-6.7l5.4-0.3h0.1h0.2l5.4,0.3c4.9,0.3,9.6,1.8,13.8,4.4
			c1.1,0.7,2.1,1.4,3.1,2.2l4.2,3.5c5.4,4.4,9,10.4,10.4,17.2C91.9,88.9,92.3,90.9,92.3,91.1z"/>
		<polygon class="st1" points="54.2,58.7 54.1,58.7 54.1,58.7 		"/>
		<path class="st1" d="M54.4,165.4h-0.1h-0.1v-0.1C54.2,165.4,54.3,165.4,54.4,165.4z"/>
		<path class="st2" d="M54.1,127.6c0,0-5.4-2.2-5.6-2.4s-1,1.2-1,1.2l-3.9,1.3l0.5,3.1l3.2,1.2l4.2-1.2l2.5,1.1L54.1,127.6z"/>
		<path class="st3" d="M50.3,129.7l-2.2-2.1l-3,1c0,0,0.4,1.5,0.8,1.6l2.6,0.9L50.3,129.7z"/>
		<path class="st2" d="M54.1,127.6c0,0,5.4-2.2,5.6-2.4s1,1.2,1,1.2l3.9,1.2l-0.5,3.1l-3.2,1.2l-4.2-1.2l-2.5,1.1L54.1,127.6z"/>
		<path class="st3" d="M57.6,129.7l2.2-2.1l3,1c0,0-0.4,1.5-0.8,1.6l-2.6,0.9L57.6,129.7z"/>
		<path class="st4" d="M87.9,127l1.9-13.2c0,0,4.7-4.7,5.1-4.8s0.6,2.1,0.6,2.1l-1.1,9.4l-2.7,4.7L87.9,127z"/>
		<path class="st4" d="M21,128l-1.9-13.2c0,0-4.7-4.7-5.1-4.8s-0.6,2.1-0.6,2.1l1.1,9.4l2.7,4.7L21,128z"/>
		<path class="st5" d="M27.7,40c0,0-27.6,18.4-24.4,35.1S19,110,20.2,112.9c1,2.4-3.9-21.1-3.9-21.1s9.4-1.5,15.4-8.2
			c0,0-2.1,8.2-11.1,10.7c0,0.2,22.3-6.7,30.7-15.2c0,0.2-1.3,3.2-3,5.2c0.2,0,5.4-3,8.6-7.9c0.2,0.4-1.5,8.2-6.2,12
			c0.4-0.2,15.9-1.3,23.4-18.7c0,0.4-1.3,12.6,3.9,16.5c11.1,8.2,12,21.7,11.5,26.9c0.2,0.4,6.7-12.5,9.9-17.9
			c3.2-5.4,6-11.8,5.6-16.9s-3.2-14.1-6.2-17.6C99,60.9,95,41,71.6,40.1c-0.2-0.6,2.2-3,6.6-3c0.4,0-7.7-1.1-11.1,1.9
			c0,0-0.2-5.6-8.8-7.7c0,0.4,4.3,5.8,2.4,7.1c0.2,0.2-23.8-13.5-40.7,2.4C20.2,40.6,27.7,38.5,27.7,40z"/>
	</g>
	<g>
		<path class="st6" d="M19.7,134.6l-1.7,0.4c-1.8,0.4-3.6-0.8-3.9-2.6l-5.4-26.5c-0.4-1.8,0.8-3.6,2.6-3.9l1.7-0.4
			c1.8-0.4,3.6,0.8,3.9,2.6l5.4,26.5C22.7,132.4,21.5,134.2,19.7,134.6z"/>
		<path class="st6" d="M13.7,132.8l-3.5,0.7c-1.8,0.4-3.6-0.8-3.9-2.6l-4.2-20.5c-0.4-1.8,0.8-3.6,2.6-3.9l3.5-0.7L13.7,132.8z"/>
		<path class="st6" d="M3.7,100.7l2.1-1.2c0.5-0.3,1.1,0,1.2,0.5l1.5,7.3c0.1,0.4-0.2,0.8-0.5,0.9h0c-0.4,0.1-0.7,0-0.9-0.4
			l-3.6-6.1C3.2,101.5,3.3,101,3.7,100.7z"/>
	</g>
	<g>
		<path class="st6" d="M88.7,134.6l1.7,0.4c1.8,0.4,3.6-0.8,3.9-2.6l5.4-26.5c0.4-1.8-0.8-3.6-2.6-3.9l-1.7-0.4
			c-1.8-0.4-3.6,0.8-3.9,2.6l-5.4,26.5C85.7,132.4,86.9,134.2,88.7,134.6z"/>
		<path class="st6" d="M94.7,132.8l3.5,0.7c1.8,0.4,3.6-0.8,3.9-2.6l4.2-20.5c0.4-1.8-0.8-3.6-2.6-3.9l-3.5-0.7L94.7,132.8z"/>
		<path class="st6" d="M104.7,100.7l-2.1-1.2c-0.5-0.3-1.1,0-1.2,0.5l-1.5,7.3c-0.1,0.4,0.2,0.8,0.5,0.9l0,0c0.4,0.1,0.7,0,0.9-0.4
			l3.6-6.1C105.2,101.5,105.1,101,104.7,100.7z"/>
	</g>
	<path class="st0" d="M17.2,134L2.4,145.8c-2.5,2-2,5.9,0.9,7.2l10.1,4.4"/>
	<circle class="st6" cx="17.2" cy="157.4" r="5.8"/>
</g>
</svg>
