<?xml version="1.0" encoding="utf-8"?>
<!-- Generator: Adobe Illustrator 26.0.2, SVG Export Plug-In . SVG Version: 6.00 Build 0)  -->
<svg version="1.1" id="Calque_1" xmlns="http://www.w3.org/2000/svg" xmlns:xlink="http://www.w3.org/1999/xlink" x="0px" y="0px"
	 viewBox="0 0 788 1005.1" style="enable-background:new 0 0 788 1005.1;" xml:space="preserve">
<style type="text/css">
	.st0{fill:#D79072;}
	.st1{fill:#F7A386;}
	.st2{fill:#3D332F;}
	.st3{fill:#A06B58;}
	.st4{fill:#93273E;}
</style>
<g>
	<path class="st0" d="M371.1,141.4l-5.3-1.5c-1.1-0.3-2.3,0-3.1,0.8l0,0c-0.6,0.6-0.9,1.5-0.9,2.4l0.8,11.9c0,0.5,0.2,1,0.5,1.5
		c1.3,2,5.1,7.8,5.6,8.5c0.2,0.4,1.2,0.7,2.3,1.1c1.7,0.5,3.5-0.6,3.9-2.3l2.5-10.7c0.2-0.7,0.1-1.5-0.3-2.2l-4.1-8
		C372.6,142.2,371.9,141.7,371.1,141.4z"/>
	<path class="st0" d="M442.1,141.4l5.3-1.5c1.1-0.3,2.3,0,3.1,0.8l0,0c0.6,0.6,0.9,1.5,0.9,2.4l-0.8,11.9c0,0.5-0.2,1-0.5,1.5
		c-1.3,2-5.1,7.8-5.6,8.5c-0.2,0.4-1.2,0.7-2.3,1.1c-1.7,0.5-3.5-0.6-3.9-2.3l-2.5-10.7c-0.2-0.7-0.1-1.5,0.3-2.2l4.1-8
		C440.6,142.2,441.3,141.7,442.1,141.4z"/>
	<path class="st1" d="M445,125.5c0,0.5-2.7,14.8-2.7,14.8v8l-0.1,0.9l-3.7,25.5c-0.4,2.7-1.6,5.2-3.5,7.2c0,0-12.2,11.4-16.5,14.9
		c-1.3,1-7.3,2.2-10.1,2.8l-0.6,0.1l-0.9,0.2l0,0l0,0h-0.1c-1-0.2-10-1.7-11.6-3c-4.4-3.4-16.5-14.9-16.5-14.9c-1.8-2-3-4.6-3.4-7.3
		l-3.7-25.3l-0.2-1.1v-8c0,0-2.7-14.3-2.7-14.8c0-0.2,0.4-2.2,0.9-4.6c1.4-6.8,5-12.8,10.4-17.2l4.2-3.5c4.8-3.9,10.8-6.3,17-6.6
		l5.6-0.4h0.1l0,0l5.6,0.4c6.2,0.4,12.2,2.7,17,6.6l4.3,3.5c5.4,4.4,9,10.5,10.4,17.2C444.6,123.3,445,125.3,445,125.5z"/>
	<path class="st0" d="M406.8,162.1c0,0-5.7-2.3-5.9-2.5s-1,1.2-1,1.2l-3.8,1.2l0.5,3.1l3.2,1.2l4.2-1.2l2.8,1.2L406.8,162.1z"/>
	<path class="st2" d="M402.7,164.1l-2.2-2.1l-3,1c0,0,0.4,1.5,0.8,1.6l2.6,0.9L402.7,164.1z"/>
	<path class="st0" d="M406.2,162.1c0,0,5.7-2.3,5.9-2.5s1,1.2,1,1.2l3.9,1.2l-0.5,3.1l-3.2,1.2l-4.2-1.2l-2.8,1.2L406.2,162.1z"/>
	<path class="st2" d="M410,164.1l2.2-2.1l3,1c0,0-0.4,1.5-0.8,1.6l-2.6,0.9L410,164.1z"/>
	<path class="st3" d="M440.3,161.4l1.9-13.2c0,0,4.7-4.7,5.1-4.8s0.6,2.1,0.6,2.1l-1.1,9.4l-2.7,4.7L440.3,161.4z"/>
	<path class="st3" d="M373.4,162.4l-1.9-13.2c0,0-4.7-4.7-5.1-4.8s-0.6,2.1-0.6,2.1l1.1,9.4l2.7,4.7L373.4,162.4z"/>
	<path class="st4" d="M386.9,118.8c0,0-20.3,11.8-14.4,29.7c2.9,9.7-10.4,0.7-10.1-1.9c0.3-2.6-1.6-8.7-6.9-10.8
		c-5.5-2.1-4.4-6.2-4.4-6.2c0.3-1.5,0.7-2.7,1.5-3.8c1.2-2.2,1.3-2.8,1.3-4c0-1.2-0.7-2.7-3-3.8c-2.3-1.2-2.6-2.5-2.7-3.6
		c-0.2-1.1,1-2.9,4.7-6.2c3.6-3.3,2-8.1,2-8.1s-3.5-4.8-4.5-8.2c-0.9-3.5,5.3-4.2,5.9-4.6s3.7-1.6,3.5-4.7c-0.2-3.1-2.5-6.7-1.3-8.2
		s8.1-0.9,8.1-0.9s3.5,0,5.5-2.5c2-2.5,2.7-9.2,5.1-10.8c2.5-1.6,8,1.6,9,2.3c2,1,4.2,1.6,6.4,1.5c2-0.2,3.9-1.3,6.3-4.5
		c2.3-3.2,3.7-6.4,7.6-6.7c3.8-0.3,6.6,5.5,7.2,6.2c0.5,0.7,3.4,4.4,7.5,4.5c4,0.1,7-2.6,9.6-3.2c2.6-0.7,4-0.5,5.3,0.3
		c1.2,0.8,2.1,3.9,2.5,5.7c0.4,1.7,0.5,3.5,3.2,5.5c2.7,1.9,5.4,1.6,7.8,1.6s3.3-0.5,4.6,0.8c1.2,1.3,0.5,3.5-0.4,5.6
		c-0.8,1.6-0.8,3.5,0,5.1c0.7,1.6,2.5,2.2,4.6,2.9c2.1,0.7,3.9,1.6,4.1,4.2c0.2,2.7-2,4.6-2.7,5.7c-0.6,1.1-2.2,2.6-1.9,5.4
		c0.4,2.6,1.7,4.9,3.7,6.6c1.5,1.1,3.1,2.4,3.1,4.8c0,2.4-2.5,3.2-3.4,3.7c-0.9,0.5-2.6,2.3-2.6,4.1s1,3.1,1.8,4.1
		c0.8,1.1,1.3,2.6,1.2,3.9c0,1.9-0.8,3.3-3.1,4.8c-2.3,1.5-5.8,2.9-5.9,5.1c-0.1,2.3-2,14.4-1.6,10.4c2-19.6-6.8-5.5-10.2-8.1
		c-3.3-2.6-2.7-10.8-8.9-16.7c-1-1-0.9-2-1.9-2.7c-0.7-0.6-1.5-1.5-2-2.3c-0.2-0.4-1.6-6.6-1.1-8.1c0.5-1.6-2.7-2.5-3.9-3.3
		c-1-0.6-1.7-1.6-2.1-2.7c-0.5-1.2-0.6-2.8-1.6-2.8c-0.8,0-1.6,1.8-2.7,3.4c-1,1.6-1.6,2.5-3.3,3c-1.7,0.5-4.8-1-6.8-0.3
		c-2.1,0.7-1.8,2.1-2.4,3.1c-0.5,1-0.5,2.2-1.9,2.3c-1.3,0.1-1.2,0.5-3.3-0.2c-2.1-0.7-2.1-0.7-2.9-0.5c-0.8,0.3-1.7,1.6-2.2,2.5
		c-0.5,0.9-0.5,1.6-1.3,1.9C391.5,119.2,388.7,118.3,386.9,118.8z"/>
	<g>
		<path class="st4" d="M370.3,163.5c-1.2,1.3-1.4,3.1-1.7,4.8c-0.5,3.4-0.4,6.9,0.1,10.2c1.8,10.1,4.1,3.5,4.6-2.2
			c0.3-3.4,0.3-6.9-0.5-10.3c1.6,5,1.7,10.5,0.5,15.6c-0.4,1.2-1,3.4-2.7,3.2c-0.7-0.2-1-0.6-1.3-1c-1-1.7-1.3-3.4-1.5-5.2
			c-0.4-3.5-0.3-7,0.4-10.5C368.6,166.6,369,164.7,370.3,163.5L370.3,163.5z"/>
	</g>
	<g>
		<path class="st4" d="M443.4,163.5c1.3,1.2,1.7,3.1,2.1,4.6c0.7,3.5,0.8,7,0.4,10.5c-0.2,1.8-0.5,3.5-1.5,5.2
			c-0.3,0.4-0.6,0.8-1.3,1c-1.7,0.2-2.3-2-2.7-3.2c-1.2-5.1-1.1-10.6,0.5-15.6c-0.8,3.4-0.8,6.9-0.5,10.3c0.5,5.7,2.8,12.3,4.6,2.2
			c0.5-3.3,0.6-6.8,0.1-10.2C444.8,166.6,444.6,164.8,443.4,163.5L443.4,163.5z"/>
	</g>
</g>
</svg>
