<?xml version="1.0" encoding="utf-8"?>
<!-- Generator: Adobe Illustrator 26.0.2, SVG Export Plug-In . SVG Version: 6.00 Build 0)  -->
<svg version="1.1" id="Calque_1" xmlns="http://www.w3.org/2000/svg" xmlns:xlink="http://www.w3.org/1999/xlink" x="0px" y="0px"
	 viewBox="0 0 788 1005.1" style="enable-background:new 0 0 788 1005.1;" xml:space="preserve">
<style type="text/css">
	.st0{fill:#93273E;}
	.st1{fill:#F7A386;}
	.st2{fill:#E2927D;}
	.st3{fill:#D79072;}
	.st4{fill:#8D4B51;}
	.st5{fill:#B47D7C;}
	.st6{fill:#ED5875;}
</style>
<g>
	<rect x="361.7" y="123.4" class="st0" width="92" height="27"/>
	<path class="st1" d="M406.5,199.8h0.3v0.1h-0.1C406.6,199.9,406.5,199.9,406.5,199.8z"/>
	<path class="st1" d="M406.2,199.8c0.1,0,0.1,0,0.2,0H406.2L406.2,199.8L406.2,199.8z"/>
	<path class="st2" d="M372.4,141.8l-8.4-2.4l-2.3,2.4l1,14.1c0,0,5.4,8.3,6,9.2s5.5,1.8,5.5,1.8l3.5-14.9L372.4,141.8z"/>
	<path class="st2" d="M440.8,141.8l8.4-2.4l2.3,2.4l-1,14.1c0,0-5.4,8.3-6,9.2s-5.5,1.8-5.5,1.8l-3.5-14.9L440.8,141.8z"/>
	<polygon class="st1" points="406.7,93.2 406.7,93.2 406.5,93.2 	"/>
	<path class="st1" d="M445.1,125.5c0,0.5-2.8,14.8-2.8,14.8v8l-0.1,0.9l-3.8,25.5c-0.4,2.7-1.6,5.2-3.4,7.2c0,0-12.4,11.4-16.8,14.9
		c-1.3,1-7.4,2.2-10.3,2.8l-0.6,0.1l-0.5,0.1h-0.3c-0.1,0-0.1,0-0.2,0c-2.1-0.4-9.7-1.7-11.2-2.9c-4.4-3.4-16.5-14.9-16.5-14.9
		c-1.8-2-3-4.6-3.4-7.3l-3.7-25.3l-0.2-1.1v-8c0,0-2.7-14.3-2.7-14.8c0-0.2,0.4-2.2,0.9-4.6c1.4-6.8,5-12.9,10.4-17.2l4.2-3.5
		c4.8-3.9,10.8-6.3,17-6.6l5.2-0.3h0.3h0.2l5.4,0.3c6.3,0.4,12.3,2.7,17.3,6.6l4.3,3.5c5.4,4.3,9.2,10.4,10.6,17.2
		C444.7,123.4,445.1,125.4,445.1,125.5z"/>
	<polygon class="st1" points="406.5,93.2 406.2,93.2 406.2,93.2 406.3,93.2 	"/>
	<path class="st3" d="M406.8,162.1c0,0-5.7-2.3-5.9-2.5s-1,1.2-1,1.2l-3.8,1.2l0.5,3.1l3.2,1.2l4.2-1.2l2.8,1.2L406.8,162.1z"/>
	<path class="st4" d="M402.7,164.1l-2.2-2.1l-3,1c0,0,0.4,1.5,0.8,1.6l2.6,0.9L402.7,164.1z"/>
	<path class="st3" d="M406.2,162.1c0,0,5.7-2.3,5.9-2.5s1,1.2,1,1.2l3.9,1.2l-0.5,3.1l-3.2,1.2l-4.2-1.2l-2.8,1.2L406.2,162.1z"/>
	<path class="st4" d="M410,164.1l2.2-2.1l3,1c0,0-0.4,1.5-0.8,1.6l-2.6,0.9L410,164.1z"/>
	<path class="st5" d="M440.3,161.4l1.9-13.2c0,0,4.7-4.7,5.1-4.8s0.6,2.1,0.6,2.1l-1.1,9.4l-2.7,4.7L440.3,161.4z"/>
	<path class="st5" d="M373.4,162.4l-1.9-13.2c0,0-4.7-4.7-5.1-4.8s-0.6,2.1-0.6,2.1l1.1,9.4l2.7,4.7L373.4,162.4z"/>
	<g>
		<path class="st6" d="M454.1,167.3c-1.1-4.2-5.7-7.7-9.8-4.5l0,0c4.1-3.8,9.2-0.1,10.6,4.3c1.9,5.2,1.1,12.5-4,15.7
			c-3.3,2-7.4-0.1-9-3.4c-2.1-4.1-2.1-9.1-0.2-13.2c-2.1,5.4-1,15.1,5.7,16.4"/>
	</g>
	<g>
		<path class="st6" d="M366.6,183.1c6.4-1.8,7.4-11.2,5.1-16.6l0,0c2.9,5.5,2,15.6-5,17.5c-5.1,1-8.3-4.7-8.8-9
			c-0.3-2.3-0.1-4.6,0.6-6.8c1.2-4.3,6-8.6,10.3-5.3c-4.2-2.8-8.6,1.3-9.5,5.5"/>
	</g>
	<path class="st0" d="M426.9,84.7c0,0-31.3-17.9-47.7-14.4c-5.8,1.5-4,7.1-2.6,9.7c0.2,0-14.1-2.7-16.8,6c0.2,0.2-4.2,4.8-7.5,4.9
		c-3.3,0.2-6.4,2.7-6.4,5.5s2.8,4.2,5.1,5.1c2.2,0.9,4.2,1.9,4.1,3.5c-0.1,1.6-2.8,3.9-8.4,4.2c-5.6,0.3-10.5,5.2-10.5,8.9
		s4,7.7,9.3,8.7c5.3,1,8.6,1.6,8.5,3.2c-0.1,1.6-7.2,3.6-7,7.1c0.1,3.5,2.5,4.2,3,5.7s-1.5,7.2-5.2,10.5c-3.7,3.3-3.2,4.8-3.2,5.8
		s1.1,4.8,11.1,7c10,2.2,10.3,2.2,10.3,3.2c0,1.1-3.7,4.7-3.7,7c0,2.3,4.5,3.5,7.2,4.2s4.1,1.1,4,2.1c0,1-2.4,3.1-2.4,4.1
		c0,1,2.4,3.9,2.4,4.5c0,0.6-0.6,2.1-0.6,2.1s1.3-1.8,1.5-2.6c0.1-0.8-1.2-2.6-1.1-3.4c0-0.8,2.1-2,2.5-3.4c0,0,2.9-5.6-1.8-9
		c-4.8-3.5-0.7-4.4,0.3-6.5s5.2-10.3,3.5-13.8c-1.7-3.5-12.5-8.1-9.3-10.7c3.2-2.6,5.9-12.6,5.3-17.4c-0.6-4.8-9.7-13-5.8-14.9
		s5.8-8,11-6.1C380.9,107.4,426.9,84.7,426.9,84.7z"/>
	<path class="st0" d="M394,91.9c0,0,22.7-25.1,39.1-21.6c5.8,1.5,4,7.1,2.6,9.7c-0.2,0,14.1-2.7,16.8,6c-0.2,0.2,4.2,4.8,7.5,4.9
		c3.3,0.2,6.4,2.7,6.4,5.5s-2.8,4.2-5.1,5.1c-2.2,0.9-4.2,1.9-4.1,3.5c0.1,1.6,2.8,3.9,8.4,4.2c5.6,0.3,10.5,5.2,10.5,8.9
		s-4,7.7-9.3,8.7c-5.3,1-8.6,1.6-8.5,3.2c0.1,1.6,7.2,3.6,7,7.1c-0.1,3.5-2.5,4.2-3,5.7s1.5,7.2,5.2,10.5c3.7,3.3,3.2,4.8,3.2,5.8
		s-1.1,4.8-11.1,7c-10,2.2-10.3,2.2-10.3,3.2c0,1.1,3.7,4.7,3.7,7c0,2.3-4.5,3.5-7.2,4.2s-4.1,1.1-4,2.1c0,1,2.4,3.1,2.4,4.1
		c0,1-2.4,3.9-2.4,4.5c0,0.6,0.6,2.1,0.6,2.1s-1.3-1.8-1.5-2.6c-0.1-0.8,1.2-2.6,1.1-3.4c0-0.8-2.1-2-2.5-3.4c0,0-2.9-5.6,1.8-9
		c4.8-3.5,0.7-4.4-0.3-6.5s-5.2-10.3-3.5-13.8c1.7-3.5,12.5-8.1,9.3-10.7c-3.2-2.6-5.9-12.6-5.3-17.4c0.6-4.8,9.7-13,5.8-14.9
		s-5.8-8-11-6.1C431.4,107.4,394,91.9,394,91.9z"/>
	<path class="st6" d="M372,127.8l11.6-4.6c14.4-5.7,30.8-6,45.3-0.6l14.3,5.3c2.7,1,5.7-0.4,6.4-3l2.5-9.8
		c0.9-3.4-9.2-11.7-16.4-17.1c-5.1-3.8-11.1-6.2-17.5-7c-6-0.7-12-0.8-18-0.2c-5.7,0.5-11.1,2.5-15.9,5.6
		c-9,5.8-23.6,15.7-22.7,18.4l3.9,10.4C366.4,127.6,369.4,128.8,372,127.8z"/>
	<path class="st0" d="M388.4,91.5c0,0-7.5-27-21.8-9.2s14.9,18.1,14.9,24.4c0,6.3-15.4,10.7-13.4,15.5c2,4.8,12.2,8.8,12.7,11.9
		c0.5,0.1-9.7-8.4-6.7-12c3-3.6,12.3-4.3,12.7-10.5c0.3-6.2-19.2-19.7-15.8-25.6S381.7,81.8,388.4,91.5z"/>
</g>
</svg>
