<?xml version="1.0" encoding="utf-8"?>
<!-- Generator: Adobe Illustrator 26.0.2, SVG Export Plug-In . SVG Version: 6.00 Build 0)  -->
<svg version="1.1" id="Calque_1" xmlns="http://www.w3.org/2000/svg" xmlns:xlink="http://www.w3.org/1999/xlink" x="0px" y="0px"
	 viewBox="0 0 788 1005.1" style="enable-background:new 0 0 788 1005.1;" xml:space="preserve">
<style type="text/css">
	.st0{fill:#93273E;}
	.st1{fill:#F7A386;}
	.st2{fill:#D79072;}
	.st3{fill:#3D332F;}
	.st4{fill:#A16559;}
</style>
<g>
	<path class="st0" d="M370.2,148l2.2-6.2l3.6-27.9l28,1.9l32.4-0.7l6.1,17.7L441,149c0,0,10.5-32.5,12.1-35.6s8-31-30.1-38.4
		c-47.3-9.1-60.2,4.4-64.2,23.9S369.1,146.4,370.2,148z"/>
	<path class="st1" d="M371.2,141.5l-5.6-1.6c-1-0.3-2.1,0-2.8,0.8l-0.3,0.3c-0.5,0.6-0.8,1.3-0.8,2.1l0.9,12.1
		c0,0.5,0.2,0.9,0.4,1.3c1.3,1.9,5.1,7.8,5.6,8.6c0.3,0.4,1.5,0.8,2.7,1.2c1.5,0.4,3.1-0.5,3.4-2.1l2.6-11.2
		c0.2-0.7,0.1-1.3-0.2-1.9l-4.3-8.2C372.6,142.2,372,141.7,371.2,141.5z"/>
	<path class="st1" d="M442,141.5l5.6-1.6c1-0.3,2.1,0,2.8,0.8l0.3,0.3c0.5,0.6,0.8,1.3,0.8,2.1l-0.9,12.1c0,0.5-0.2,0.9-0.4,1.3
		c-1.3,1.9-5.1,7.8-5.6,8.6c-0.3,0.4-1.5,0.8-2.7,1.2c-1.5,0.4-3.1-0.5-3.4-2.1l-2.6-11.2c-0.2-0.7-0.1-1.3,0.2-1.9l4.3-8.2
		C440.6,142.2,441.2,141.7,442,141.5z"/>
	<path class="st1" d="M445,125.5c0,0.5-2.7,14.8-2.7,14.8v8l-0.1,0.9l-3.7,25.5c-0.4,2.7-1.6,5.2-3.5,7.2c0,0-12.2,11.4-16.5,14.9
		c-1.3,1-7.3,2.2-10.1,2.8l-0.6,0.1l-0.9,0.2l0,0l0,0h-0.1c-1-0.2-10-1.7-11.6-3c-4.4-3.4-16.5-14.9-16.5-14.9c-1.8-2-3-4.6-3.4-7.3
		l-3.7-25.3l-0.2-1.1v-8c0,0-2.7-14.3-2.7-14.8c0-0.2,0.4-2.2,0.9-4.6c1.4-6.8,5-12.8,10.4-17.2l4.2-3.5c4.8-3.9,10.8-6.3,17-6.6
		l5.6-0.4h0.1l0,0l5.6,0.4c6.2,0.4,12.2,2.7,17,6.6l4.3,3.5c5.4,4.4,9,10.5,10.4,17.2C444.6,123.3,445,125.3,445,125.5z"/>
	<path class="st2" d="M406.5,162c0,0-5.4-2.2-5.6-2.4s-1,1.2-1,1.2l-3.9,1.3l0.5,3.1l3.2,1.2l4.2-1.2l2.5,1.1L406.5,162z"/>
	<path class="st3" d="M402.7,164.1l-2.2-2.1l-3,1c0,0,0.4,1.5,0.8,1.6l2.6,0.9L402.7,164.1z"/>
	<path class="st2" d="M406.5,162c0,0,5.4-2.2,5.6-2.4s1,1.2,1,1.2l3.9,1.2l-0.5,3.1l-3.2,1.2l-4.2-1.2l-2.5,1.1L406.5,162z"/>
	<path class="st3" d="M410,164.1l2.2-2.1l3,1c0,0-0.4,1.5-0.8,1.6l-2.6,0.9L410,164.1z"/>
	<path class="st4" d="M440.3,161.4l1.9-13.2c0,0,4.7-4.7,5.1-4.8s0.6,2.1,0.6,2.1l-1.1,9.4l-2.7,4.7L440.3,161.4z"/>
	<path class="st4" d="M373.4,162.4l-1.9-13.2c0,0-4.7-4.7-5.1-4.8s-0.6,2.1-0.6,2.1l1.1,9.4l2.7,4.7L373.4,162.4z"/>
	<path class="st0" d="M416.7,106.8l28.6-5.6l-36.4-21.8l-39.1,25.1l29.9,3C405.3,108.1,411.1,107.9,416.7,106.8z"/>
	<circle class="st0" cx="371.2" cy="163.8" r="1.3"/>
	<circle class="st0" cx="368.4" cy="161.4" r="0.8"/>
	<circle class="st0" cx="366.4" cy="158.8" r="0.6"/>
	<circle class="st0" cx="441.9" cy="163.8" r="1.1"/>
	<circle class="st0" cx="445" cy="161.4" r="0.9"/>
	<circle class="st0" cx="447" cy="158.2" r="0.6"/>
</g>
</svg>
