<?xml version="1.0" encoding="utf-8"?>
<!-- Generator: Adobe Illustrator 26.0.2, SVG Export Plug-In . SVG Version: 6.00 Build 0)  -->
<svg version="1.1" id="Calque_1" xmlns="http://www.w3.org/2000/svg" xmlns:xlink="http://www.w3.org/1999/xlink" x="0px" y="0px"
	 viewBox="0 0 158 161.8" style="enable-background:new 0 0 158 161.8;" xml:space="preserve">
<style type="text/css">
	.st0{fill:#93273E;}
	.st1{fill:#D79072;}
	.st2{fill:#F7A386;}
	.st3{fill:#3D332F;}
	.st4{fill:#A06B58;}
	.st5{fill:#7A2914;}
</style>
<path class="st0" d="M75.5,131.1c-38.3,2-44.5-23.3-46.5-37c-1-7.1-0.7-14.3,1.1-21.2C38,42.4,57.3,32.2,90.8,37.4
	c17.9,2.8,26.8,3.6,32.8,17.2c15.5,34.6-8.7,73.8-46.5,76.4C76.6,131,76,131.1,75.5,131.1z"/>
<path class="st1" d="M45.3,103.3l-6.3-1.8c-0.7-0.2-1.5,0-2.1,0.6l-0.8,0.8c-0.4,0.4-0.6,1-0.6,1.6l0.9,12.6c0,0.4,0.1,0.7,0.3,1
	c1.1,1.7,5.2,8,5.7,8.8c0.3,0.5,2,1,3.5,1.4c1.1,0.3,2.2-0.4,2.5-1.5l2.9-12.2c0.1-0.5,0.1-1-0.2-1.4l-4.5-8.7
	C46.3,103.8,45.9,103.4,45.3,103.3z"/>
<path class="st1" d="M115.4,103.3l6.3-1.8c0.7-0.2,1.5,0,2.1,0.6l0.8,0.8c0.4,0.4,0.6,1,0.6,1.6l-0.9,12.6c0,0.4-0.1,0.7-0.3,1
	c-1.1,1.7-5.2,8-5.7,8.8c-0.3,0.5-2,1-3.5,1.4c-1.1,0.3-2.2-0.4-2.5-1.5l-2.9-12.2c-0.1-0.5-0.1-1,0.2-1.4l4.5-8.7
	C114.4,103.8,114.9,103.4,115.4,103.3z"/>
<path class="st2" d="M118.8,87.2c0,0.5-2.7,14.8-2.7,14.8v8l-0.1,0.9l-3.7,25.5c-0.4,2.7-1.6,5.2-3.5,7.2c0,0-12.2,11.4-16.5,14.9
	c-1.3,1-7.3,2.2-10.1,2.8l-0.6,0.1l-0.9,0.2l0,0l0,0h-0.1c-1-0.2-10-1.7-11.6-3c-4.4-3.4-16.5-14.9-16.5-14.9c-1.8-2-3-4.6-3.4-7.3
	l-3.7-25.3l-0.2-1.1v-8c0,0-2.7-14.3-2.7-14.8c0-0.2,0.4-2.2,0.9-4.6c1.4-6.8,5-12.8,10.4-17.2l4.2-3.5c4.8-3.9,10.8-6.3,17-6.6
	l5.6-0.4h0.1l0,0l5.6,0.4c6.2,0.4,12.2,2.7,17,6.6l4.3,3.5c5.4,4.4,9,10.5,10.4,17.2C118.4,85,118.8,87,118.8,87.2z"/>
<path class="st1" d="M80.6,123.8c0,0-5.7-2.3-5.9-2.5s-1,1.2-1,1.2l-3.8,1.2l0.5,3.1l3.2,1.2l4.2-1.2l2.8,1.2L80.6,123.8z"/>
<path class="st3" d="M76.5,125.8l-2.2-2.1l-3,1c0,0,0.4,1.5,0.8,1.6l2.6,0.9L76.5,125.8z"/>
<path class="st1" d="M80,123.8c0,0,5.7-2.3,5.9-2.5s1,1.2,1,1.2l3.9,1.2l-0.5,3.1l-3.2,1.2l-4.2-1.2l-2.8,1.2L80,123.8z"/>
<path class="st3" d="M83.8,125.8l2.2-2.1l3,1c0,0-0.4,1.5-0.8,1.6l-2.6,0.9L83.8,125.8z"/>
<path class="st4" d="M114.1,123.1l1.9-13.2c0,0,4.7-4.7,5.1-4.8s0.6,2.1,0.6,2.1l-1.1,9.4l-2.7,4.7L114.1,123.1z"/>
<path class="st4" d="M47.2,124.1l-1.9-13.2c0,0-4.7-4.7-5.1-4.8s-0.6,2.1-0.6,2.1l1.1,9.4l2.7,4.7L47.2,124.1z"/>
<path class="st0" d="M44.9,49.2c21.2-10.4,41.5-12.6,45.3-4.9S79.8,66.8,58.6,77.2S24.8,97.1,24.8,97.1C25,97.4,23.6,59.6,44.9,49.2
	z"/>
<ellipse class="st5" cx="45.9" cy="134.1" rx="1.3" ry="8.7"/>
<ellipse class="st5" cx="116.3" cy="134.1" rx="1.3" ry="8.7"/>
<g>
	<path class="st5" d="M123.3,107.8c3.2,2.5,5.6-2.8,1.6-3.5c0.8-0.3,1.8-0.1,2.4,0.6c1.4,1.5,0.2,4.3-1.9,4.2
		C124.5,109.2,123.6,108.6,123.3,107.8L123.3,107.8z"/>
</g>
</svg>
