<?xml version="1.0" encoding="utf-8"?>
<!-- Generator: Adobe Illustrator 26.0.2, SVG Export Plug-In . SVG Version: 6.00 Build 0)  -->
<svg version="1.1" id="Calque_1" xmlns="http://www.w3.org/2000/svg" xmlns:xlink="http://www.w3.org/1999/xlink" x="0px" y="0px"
	 viewBox="0 0 788 1005.1" style="enable-background:new 0 0 788 1005.1;" xml:space="preserve">
<style type="text/css">
	.st0{fill:#93273E;}
	.st1{fill:#E2927D;}
	.st2{fill:#F7A386;}
	.st3{fill:#D79072;}
	.st4{fill:#3D332F;}
	.st5{fill:#A06B58;}
	.st6{fill:#D3D3D3;stroke:#D34B1C;stroke-miterlimit:10;}
	.st7{fill:#D3D3D3;}
	.st8{fill:#D34B1C;}
</style>
<g>
	<path class="st0" d="M368.7,139.8L368.7,139.8c0-0.1,0-0.2,0-0.3l3.8-29.5c0.1-0.8,0.8-1.3,1.6-1.2l10.5-13.9l19.4,15.9l29.9-12.7
		c0.7,0,13.9,5.8,14,6.5l-3.1,34.9c0,0.1,0,0.1,0,0.2v0.6c0,1.6,2.2,1.9,2.8,0.4c4.2-11.9,14.8-16.7,13.3-28.1
		c0.3-14.9-16.6-48.9-52.4-33.2c-25.5-15.2-49.3,11.4-52.1,24.9c-3.2,15.6,4.8,24.8,9.7,36.2C366.5,142,368.9,141.4,368.7,139.8z"/>
	<path class="st1" d="M371.1,141.4l-5.2-1.5c-1.1-0.3-2.4,0-3.2,0.9l0,0c-0.6,0.6-0.9,1.5-0.9,2.4l0.8,11.9c0,0.5,0.2,1.1,0.5,1.5
		c1.3,2,5.1,7.8,5.6,8.5c0.2,0.4,1.2,0.7,2.3,1c1.7,0.5,3.5-0.6,4-2.3l2.5-10.7c0.2-0.7,0.1-1.5-0.3-2.2L373,143
		C372.6,142.2,371.9,141.7,371.1,141.4z"/>
	<path class="st1" d="M442.1,141.4l5.2-1.5c1.1-0.3,2.4,0,3.2,0.9l0,0c0.6,0.6,0.9,1.5,0.9,2.4l-0.8,11.9c0,0.5-0.2,1.1-0.5,1.5
		c-1.3,2-5.1,7.8-5.6,8.5c-0.2,0.4-1.2,0.7-2.3,1c-1.7,0.5-3.5-0.6-4-2.3l-2.5-10.7c-0.2-0.7-0.1-1.5,0.3-2.2l4.1-7.9
		C440.6,142.2,441.3,141.7,442.1,141.4z"/>
	<polygon class="st2" points="406.7,93.2 406.7,93.2 406.5,93.2 	"/>
	<path class="st2" d="M406.5,199.8h0.3v0.1h-0.1C406.6,199.9,406.5,199.9,406.5,199.8z"/>
	<path class="st2" d="M445.1,125.5c0,0.5-2.8,14.8-2.8,14.8v8l-0.1,0.9l-3.8,25.5c-0.4,2.7-1.6,5.2-3.4,7.2c0,0-12.4,11.4-16.8,14.9
		c-1.3,1-7.4,2.2-10.3,2.8l-0.6,0.1l-0.5,0.1h-0.3c-0.1,0-0.1,0-0.2,0c-2.1-0.4-9.7-1.7-11.2-2.9c-4.4-3.4-16.5-14.9-16.5-14.9
		c-1.8-2-3-4.6-3.4-7.3l-3.7-25.3l-0.2-1.1v-8c0,0-2.7-14.3-2.7-14.8c0-0.2,0.4-2.2,0.9-4.6c1.4-6.8,5-12.9,10.4-17.2l4.2-3.5
		c4.8-3.9,10.8-6.3,17-6.6l5.2-0.3h0.3h0.2l5.4,0.3c6.3,0.4,12.3,2.7,17.3,6.6l4.3,3.5c5.4,4.3,9.2,10.4,10.6,17.2
		C444.7,123.4,445.1,125.4,445.1,125.5z"/>
	<path class="st2" d="M406.2,199.8c0.1,0,0.1,0,0.2,0H406.2L406.2,199.8L406.2,199.8z"/>
	<polygon class="st2" points="406.5,93.2 406.2,93.2 406.2,93.2 406.3,93.2 	"/>
	<path class="st3" d="M406.8,162.1c0,0-5.7-2.3-5.9-2.5s-1,1.2-1,1.2l-3.8,1.2l0.5,3.1l3.2,1.2l4.2-1.2l2.8,1.2L406.8,162.1z"/>
	<path class="st4" d="M402.7,164.1l-2.2-2.1l-3,1c0,0,0.4,1.5,0.8,1.6l2.6,0.9L402.7,164.1z"/>
	<path class="st3" d="M406.2,162.1c0,0,5.7-2.3,5.9-2.5s1,1.2,1,1.2l3.9,1.2l-0.5,3.1l-3.2,1.2l-4.2-1.2l-2.8,1.2L406.2,162.1z"/>
	<path class="st4" d="M410,164.1l2.2-2.1l3,1c0,0-0.4,1.5-0.8,1.6l-2.6,0.9L410,164.1z"/>
	<path class="st5" d="M440.3,161.4l1.9-13.2c0,0,4.7-4.7,5.1-4.8s0.6,2.1,0.6,2.1l-1.1,9.4l-2.7,4.7L440.3,161.4z"/>
	<path class="st5" d="M373.4,162.4l-1.9-13.2c0,0-4.7-4.7-5.1-4.8s-0.6,2.1-0.6,2.1l1.1,9.4l2.7,4.7L373.4,162.4z"/>
	<path class="st0" d="M355.2,109.7c-3.2,39.2,21,51.9,22.1,52.9c0.4,0.4,0.9,0.8,1.3,1.2c0.4,0.3-4.7-9-3.3-15.5
		c0.4-1.7-2.1-11.4-1.9-19.5c0.2-8.2,1.8-18.4,1.8-18.4s-1.5,6-0.7,8.9c0.1,0.1,0.3-5,1.8-7.6c0,0-0.7,7.3,1.1,8.7
		c0.1,0.1,0.7-5.1,1.8-5.6c0,0,0.7,5.1,3,5.6c0,0-0.5-8.5,3.1-13.4c0,0,0.6,10.5,3.9,13.8c0,0.1,3.9-0.1,5.6-1.5s3.8,1,5.9,0.7
		s5.8-0.1,5.8-0.1l0.2-28L369.6,97C369.6,97,355.8,102.1,355.2,109.7z"/>
	<path class="st0" d="M460.8,114.7c0.5,23.7-22.9,45.8-22.9,45.8s-1.4,3.2-3.9,3.2c-0.4,0.3,2.3-0.4,2.7-6.8
		c0.1-1.7,4.7-19.9,4.5-28.1c-0.2-8.2-3.9-18.6-3.9-18.6s1.5,6,0.7,8.9c-0.1,0.1-0.3-5-1.8-7.6c0,0,0.7,7.3-1.1,8.7
		c-0.1,0.1-1.5-0.3-3.1-0.2c-1,0-2-0.1-2.9-0.5c-1-0.4-2.5-0.7-4.1,0c-2,0.9-4.4,1.1-6.4,0.1c-0.3-0.2-0.6-0.3-0.8-0.5
		c-1.7-1.4-3.8,1-5.9,0.7s-5.8-0.1-5.8-0.1l-0.2-28L443,97C443,97,460.3,91,460.8,114.7z"/>
	<g>
		<path class="st6" d="M435.5,66.4c0,0,28.3-1.2,17.2-34.9c-11.2-33.7-36.4-11.2-36.4-11.2s-9-12.2-31.1-7.9s-28.7,18.2-28.7,18.2
			S318,17,319.8,62.2c1.8,45.2,48,13,48,13"/>
		<path class="st6" d="M347.4,72.8l7.7,39.7c0,0,43-42.4,89-31.4c0-12.7-9.3-25.2-9.3-25.2S384.6,43.3,347.4,72.8z"/>
		<g>
			<path class="st7" d="M364.4,57.6c0,0,7.5,14,28.4,10.7c20.9-3.3,25.1-21,25.1-21"/>
			<path class="st8" d="M364.4,57.6c9.6,14.1,32,13.4,44.2,3.1c4.2-3.5,7.5-8.3,9.2-13.5C416,54.7,410.7,61.3,404,65
				C391.5,71.9,372.2,71,364.4,57.6L364.4,57.6z"/>
		</g>
	</g>
</g>
</svg>
