<?xml version="1.0" encoding="utf-8"?>
<!-- Generator: Adobe Illustrator 26.0.2, SVG Export Plug-In . SVG Version: 6.00 Build 0)  -->
<svg version="1.1" id="Calque_1" xmlns="http://www.w3.org/2000/svg" xmlns:xlink="http://www.w3.org/1999/xlink" x="0px" y="0px"
	 viewBox="0 0 788 1005.1" style="enable-background:new 0 0 788 1005.1;" xml:space="preserve">
<style type="text/css">
	.st0{fill:#F7A386;}
	.st1{fill:#E59690;}
	.st2{fill:#B07671;}
	.st3{fill:#93273E;}
	.st4{fill:#D79072;}
	.st5{fill:#3D332F;}
</style>
<g>
	<path class="st0" d="M414.2,92.4l16.8-3.2c0,0,7.8,0.9,8.1,1.6c0.4,0.7,2.3,13.5,1.6,15.1c-0.7,1.6-8.1,4.4-8.1,4.4
		s-0.6-1.7-1.8-1.7c-1.2,0-6.5-1.5-7.3-2.2S414.2,92.4,414.2,92.4z"/>
	<path class="st0" d="M371.1,141.4l-5.2-1.5c-1.1-0.3-2.4,0-3.2,0.9v0c-0.6,0.6-0.9,1.5-0.9,2.4l0.8,11.9c0,0.5,0.2,1.1,0.5,1.5
		c1.3,2,5.1,7.8,5.6,8.5c0.2,0.4,1.2,0.7,2.3,1c1.7,0.5,3.5-0.6,4-2.3l2.5-10.7c0.2-0.7,0.1-1.5-0.3-2.2L373,143
		C372.6,142.2,371.9,141.7,371.1,141.4z"/>
	<path class="st0" d="M442.1,141.4l5.2-1.5c1.1-0.3,2.4,0,3.2,0.9v0c0.6,0.6,0.9,1.5,0.9,2.4l-0.8,11.9c0,0.5-0.2,1.1-0.5,1.5
		c-1.3,2-5.1,7.8-5.6,8.5c-0.2,0.4-1.2,0.7-2.3,1c-1.7,0.5-3.5-0.6-4-2.3l-2.5-10.7c-0.2-0.7-0.1-1.5,0.3-2.2l4.1-7.9
		C440.6,142.2,441.3,141.7,442.1,141.4z"/>
	<path class="st0" d="M445,125.5c0,0.5-2.7,14.8-2.7,14.8v8l-0.1,0.9l-3.7,25.5c-0.4,2.7-1.6,5.2-3.4,7.3c0,0-3.6,3.4-7.6,7
		c-3.4,3-7,6.3-9,7.9c-1.3,1-7,2.2-10,2.7h-0.2l-0.6,0.1l-0.9,0.2h-0.1c-1.1-0.2-10-1.7-11.6-3c-1.3-1-3.2-2.6-5.2-4.5l-2-1.8
		c-4.6-4.2-9.3-8.6-9.3-8.6c-1.8-2-3-4.6-3.4-7.3l-3.7-25.3l-0.2-1.1v-8c0,0-2.7-14.3-2.7-14.8c0-0.2,0.4-2.1,0.9-4.6
		c1.4-6.8,5-12.8,10.4-17.2l4.2-3.5c4.8-3.9,10.8-6.2,17-6.7l5.6-0.3h0.1l0,0l2.2,0.1l3.4,0.2c6.2,0.4,12.2,2.7,17,6.7l4.2,3.5
		c5.4,4.4,9,10.4,10.4,17.2C444.6,123.3,445,125.3,445,125.5z"/>
	<path class="st0" d="M406.8,199.8L406.8,199.8L406.8,199.8L406.8,199.8L406.8,199.8z"/>
	<path class="st1" d="M408.3,199.5l-0.6,0.1C407.7,199,408.1,199.5,408.3,199.5z"/>
	<path class="st0" d="M401.5,162.9L401.5,162.9c-0.6-0.5-1.4-0.7-2.1-0.4l-1,0.3c-0.5,0.2-1.1,0.1-1.6-0.1c-0.4-0.2-0.9-0.4-1.3-0.6
		c0.4,1.1,0.7,2.2,0.8,3.3c0.2,1.2,1.3,1.9,2.5,1.7c0.1,0,0.1,0,0.2,0h5.8C406.4,166.5,402.8,164,401.5,162.9z"/>
	<path class="st0" d="M411.2,163L411.2,163c0.6-0.6,1.5-0.8,2.3-0.5l1,0.3c0.5,0.2,1,0.2,1.5,0c0.9-0.3,2.2-0.8,2-0.8
		c-0.5,1.2-0.8,2.4-1,3.6c-0.3,1.2-1.5,2-2.7,1.8c-0.1,0-0.1,0-0.1,0l-5.2,0.1C407.2,167,409.9,164.2,411.2,163z"/>
	<path class="st2" d="M440.3,161.4l1.9-13.2c0,0,4.7-4.7,5.1-4.8s0.6,2.1,0.6,2.1l-1.1,9.4l-2.7,4.7L440.3,161.4z"/>
	<path class="st2" d="M373.4,162.4l-1.9-13.2c0,0-4.7-4.7-5.1-4.8s-0.6,2.1-0.6,2.1l1.1,9.4l2.7,4.7L373.4,162.4z"/>
	<path class="st3" d="M429.9,88.5c-1.5,13.9-14.1,15.3-6.5,19.2c14.1,7.2,17.1,26.2,18.9,33.7c0,0,9.3-20.2,7.5-29.7
		C442.7,83.5,429.9,88.5,429.9,88.5z"/>
	<path class="st3" d="M422.5,100.6c-0.6,0.5-3,3.2-5.4,4.7c-4.5,3-12.8,6.3-18,8c-10.9,3.5-16.9,6.1-20.6,11.5
		c-5.6,8.5-5.8,10-7.8,20.1c0,0-18.9-32.5,4.9-50.8c32.6-28.1,54.5-5.7,54.5-5.7C429.8,89,428.1,96,422.5,100.6z"/>
	<g>
		<path class="st4" d="M407,162.2c0,0-5.7-2.3-5.9-2.5s-1,1.2-1,1.2l-3.8,1.2l0.5,3.1l3.2,1.2l4.2-1.2l2.8,1.2L407,162.2z"/>
		<path class="st5" d="M403,164.2l-2.2-2.1l-3,1c0,0,0.4,1.5,0.8,1.6l2.6,0.9L403,164.2z"/>
		<path class="st4" d="M406.5,162.2c0,0,5.7-2.3,5.9-2.5s1,1.2,1,1.2l3.9,1.2l-0.5,3.1l-3.2,1.2l-4.2-1.2l-2.8,1.2L406.5,162.2z"/>
		<path class="st5" d="M410.2,164.2l2.2-2.1l3,1c0,0-0.4,1.5-0.8,1.6l-2.6,0.9L410.2,164.2z"/>
	</g>
</g>
</svg>
