<?xml version="1.0" encoding="utf-8"?>
<!-- Generator: Adobe Illustrator 26.0.2, SVG Export Plug-In . SVG Version: 6.00 Build 0)  -->
<svg version="1.1" id="Calque_1" xmlns="http://www.w3.org/2000/svg" xmlns:xlink="http://www.w3.org/1999/xlink" x="0px" y="0px"
	 viewBox="0 0 788 1005.1" style="enable-background:new 0 0 788 1005.1;" xml:space="preserve">
<style type="text/css">
	.st0{fill:#F7A386;}
	.st1{fill:#B07671;}
	.st2{fill:#93273E;}
	.st3{fill:#D79072;}
	.st4{fill:#3D332F;}
</style>
<path class="st0" d="M371.5,141.5l-6.2-1.8c-0.8-0.2-1.6,0-2.2,0.6l-0.7,0.7c-0.4,0.4-0.6,1.1-0.6,1.7l0.9,12.6c0,0.4,0.1,0.7,0.3,1
	c1.2,1.8,5.2,8,5.7,8.7c0.3,0.5,1.9,1,3.3,1.3c1.2,0.3,2.4-0.4,2.7-1.6l2.8-12c0.1-0.5,0.1-1-0.2-1.5l-4.5-8.6
	C372.6,142.1,372.1,141.7,371.5,141.5z"/>
<path class="st0" d="M441.6,141.6l6.5-1.8c0.7-0.2,1.4,0,1.9,0.5l0.9,0.9c0.4,0.4,0.6,0.9,0.5,1.5l-0.9,12.7c0,0.3-0.1,0.6-0.3,0.9
	c-1.1,1.7-5.2,8-5.7,8.8c-0.3,0.5-2.1,1-3.6,1.4c-1,0.3-2.1-0.4-2.3-1.4l-2.9-12.3c-0.1-0.5,0-0.9,0.2-1.3l4.6-8.8
	C440.7,142.1,441.1,141.7,441.6,141.6z"/>
<path class="st0" d="M445,125.5c0,0.5-2.7,14.8-2.7,14.8v8l-0.1,0.9l-3.7,25.5c-0.4,2.7-1.6,5.2-3.5,7.2c0,0-12.2,11.4-16.5,14.9
	c-1.3,1-7.3,2.2-10.1,2.8l-0.6,0.1l-0.9,0.2l0,0l0,0h-0.1c-1-0.2-10-1.7-11.6-3c-4.4-3.4-16.5-14.9-16.5-14.9c-1.8-2-3-4.6-3.4-7.3
	l-3.7-25.3l-0.2-1.1v-8c0,0-2.7-14.3-2.7-14.8c0-0.2,0.4-2.2,0.9-4.6c1.4-6.8,5-12.8,10.4-17.2l4.2-3.5c4.8-3.9,10.8-6.3,17-6.6
	l5.6-0.4h0.1l0,0l5.6,0.4c6.2,0.4,12.2,2.7,17,6.6l4.3,3.5c5.4,4.4,9,10.5,10.4,17.2C444.6,123.3,445,125.3,445,125.5z"/>
<path class="st0" d="M408.3,199.5l-0.6,0.1l-0.9,0.2h-0.1l0,0c-1-0.2-10-1.7-11.6-3c-4.4-3.4-16.5-14.9-16.5-14.9
	c-1.8-2-3-4.6-3.4-7.3l-3.7-25.3l3.2,4.6c0,0,5.1,3.3,5.7,3.7s9.3,20.3,9.3,20.3l10,20l6.9,0.4h0.1h1
	C408.1,198.7,408.2,199.1,408.3,199.5z"/>
<path class="st1" d="M440.3,161.4l1.9-13.2c0,0,4.7-4.7,5.1-4.8s0.6,2.1,0.6,2.1l-1.1,9.4l-2.7,4.7L440.3,161.4z"/>
<path class="st1" d="M373.4,162.4l-1.9-13.2c0,0-4.7-4.7-5.1-4.8s-0.6,2.1-0.6,2.1l1.1,9.4l2.7,4.7L373.4,162.4z"/>
<path class="st2" d="M415.8,74c-0.1,1.9,20.1,25.4-18.5,38.1c-24.4,8-25.8,29.4-25.8,29.4c-26.8-24-2.1-67.3,28.2-72.1
	S415.8,74,415.8,74z"/>
<path class="st2" d="M422.7,71.8c6.5-0.3,12.7,2.5,17.2,7.3c6.8,7.2,16.9,21.8,17.5,46.5c0.2,10-5.3,36.6-23.1,34.1
	c0,0,13.8,5.2,5.4-30.5c-7.3-30.6-27.5-24.3-28.6-44C410.5,74.8,416.7,72.1,422.7,71.8z"/>
<g>
	<path class="st3" d="M406.5,162.1c0,0-5.4-2.2-5.6-2.4s-1,1.2-1,1.2l-3.9,1.3l0.5,3.1l3.2,1.2l4.2-1.2l2.5,1.1L406.5,162.1z"/>
	<path class="st4" d="M402.7,164.2l-2.2-2.1l-3,1c0,0,0.4,1.5,0.8,1.6l2.6,0.9L402.7,164.2z"/>
	<path class="st3" d="M406.5,162.1c0,0,5.4-2.2,5.6-2.4s1,1.2,1,1.2l3.9,1.2l-0.5,3.1l-3.2,1.2l-4.2-1.2l-2.5,1.1L406.5,162.1z"/>
	<path class="st4" d="M410,164.2l2.2-2.1l3,1c0,0-0.4,1.5-0.8,1.6l-2.6,0.9L410,164.2z"/>
</g>
</svg>
