<?xml version="1.0" encoding="utf-8"?>
<!-- Generator: Adobe Illustrator 26.0.2, SVG Export Plug-In . SVG Version: 6.00 Build 0)  -->
<svg version="1.1" id="Calque_1" xmlns="http://www.w3.org/2000/svg" xmlns:xlink="http://www.w3.org/1999/xlink" x="0px" y="0px"
	 viewBox="0 0 158 161.8" style="enable-background:new 0 0 158 161.8;" xml:space="preserve">
<style type="text/css">
	.st0{fill:#D79072;}
	.st1{fill:#F7A386;}
	.st2{fill:#3D332F;}
	.st3{fill:#A06B58;}
	.st4{fill:#93273E;}
</style>
<g>
	<path class="st0" d="M43.6,103.3l-5.4-1.6c-1.1-0.3-2.2,0-3,0.8l-0.1,0.1c-0.6,0.6-0.9,1.4-0.8,2.3l0.9,12c0,0.5,0.2,1,0.5,1.4
		c1.3,2,5.1,7.8,5.6,8.6c0.3,0.4,1.3,0.8,2.5,1.1c1.6,0.5,3.3-0.5,3.7-2.2l2.6-10.9c0.2-0.7,0.1-1.4-0.3-2.1l-4.2-8.1
		C45.1,104.1,44.4,103.6,43.6,103.3z"/>
	<path class="st0" d="M114.5,103.3l5.4-1.6c1.1-0.3,2.2,0,3,0.8l0.1,0.1c0.6,0.6,0.9,1.4,0.8,2.3l-0.9,12c0,0.5-0.2,1-0.5,1.4
		c-1.3,2-5.1,7.8-5.6,8.6c-0.3,0.4-1.3,0.8-2.5,1.1c-1.6,0.5-3.3-0.5-3.7-2.2l-2.6-10.9c-0.2-0.7-0.1-1.4,0.3-2.1l4.2-8.1
		C113.1,104.1,113.7,103.6,114.5,103.3z"/>
	<path class="st1" d="M117.5,87.4c0,0.5-2.7,14.8-2.7,14.8v8l-0.1,0.9l-3.7,25.5c-0.4,2.7-1.6,5.2-3.5,7.2c0,0-12.2,11.4-16.5,14.9
		c-1.3,1-7.3,2.2-10.1,2.8l-0.6,0.1l-0.9,0.2l0,0l0,0h-0.1c-1-0.2-10-1.7-11.6-3c-4.4-3.4-16.5-14.9-16.5-14.9c-1.8-2-3-4.6-3.4-7.3
		l-3.7-25.3l-0.2-1.1v-8c0,0-2.7-14.3-2.7-14.8c0-0.2,0.4-2.2,0.9-4.6c1.4-6.8,5-12.8,10.4-17.2l4.2-3.5c4.8-3.9,10.8-6.3,17-6.6
		l5.6-0.4h0.1l0,0l5.6,0.4c6.2,0.4,12.2,2.7,17,6.6l4.3,3.5c5.4,4.4,9,10.5,10.4,17.2C117.1,85.2,117.5,87.2,117.5,87.4z"/>
	<path class="st0" d="M79.3,124c0,0-5.7-2.3-5.9-2.5s-1,1.2-1,1.2l-3.8,1.2l0.5,3.1l3.2,1.2l4.2-1.2l2.8,1.2L79.3,124z"/>
	<path class="st2" d="M75.2,126l-2.2-2.1l-3,1c0,0,0.4,1.5,0.8,1.6l2.6,0.9L75.2,126z"/>
	<path class="st0" d="M78.7,124c0,0,5.7-2.3,5.9-2.5s1,1.2,1,1.2l3.9,1.2L89,127l-3.2,1.2l-4.2-1.2l-2.8,1.2L78.7,124z"/>
	<path class="st2" d="M82.5,126l2.2-2.1l3,1c0,0-0.4,1.5-0.8,1.6l-2.6,0.9L82.5,126z"/>
	<path class="st3" d="M112.8,123.3l1.9-13.2c0,0,4.7-4.7,5.1-4.8s0.6,2.1,0.6,2.1l-1.1,9.4l-2.7,4.7L112.8,123.3z"/>
	<path class="st3" d="M45.9,124.3L44,111.1c0,0-4.7-4.7-5.1-4.8s-0.6,2.1-0.6,2.1l1.1,9.4l2.7,4.7L45.9,124.3z"/>
	<g id="Calque_3_00000054967740952224312310000011279630545253458600_">
		<path class="st4" d="M44.9,103.7c-0.5-0.6-28.3-38.9,11.9-58.6c5.9-2.9,12.2-4.7,18.7-5.3c12.7-1.3,11.2-1.9,9.6-4.4
			c0,0,4.7,1.5,6,4c0,0,54.5,21.8,23.4,65.9c0,0,0.2-34.7-6-37.8c-0.5,4.9-0.5,10-0.5,10c-8.9,2.2-18.1,3.2-27.3,3
			c-6.8-0.1-13.6-0.7-20.3-1.7c-0.3,0-0.7-0.1-1-0.1c-0.7-0.1-0.6-5.9-1.3-6c-0.5-0.1-1.6,5.5-2.1,5.4c-1.9-0.3-3.8-0.7-5.7-1.1
			v-9.7C42.5,74,44.9,103.7,44.9,103.7z"/>
	</g>
</g>
</svg>
