<?xml version="1.0" encoding="utf-8"?>
<!-- Generator: Adobe Illustrator 26.0.2, SVG Export Plug-In . SVG Version: 6.00 Build 0)  -->
<svg version="1.1" id="Calque_1" xmlns="http://www.w3.org/2000/svg" xmlns:xlink="http://www.w3.org/1999/xlink" x="0px" y="0px"
	 viewBox="0 0 158 161.8" style="enable-background:new 0 0 158 161.8;" xml:space="preserve">
<style type="text/css">
	.st0{fill:#E2927D;}
	.st1{fill:#F7A386;}
	.st2{fill:#D79072;}
	.st3{fill:#3D332F;}
	.st4{fill:#A06B58;}
	.st5{fill:#93273E;}
</style>
<g>
	<path class="st0" d="M43.5,103.3l-5.2-1.5c-1.1-0.3-2.4,0-3.2,0.9l0,0c-0.6,0.6-0.9,1.5-0.9,2.4l0.8,11.9c0,0.5,0.2,1.1,0.5,1.5
		c1.3,2,5.1,7.8,5.6,8.5c0.2,0.4,1.2,0.7,2.3,1c1.7,0.5,3.5-0.6,4-2.3l2.5-10.7c0.2-0.7,0.1-1.5-0.3-2.2l-4.1-7.9
		C45.1,104.1,44.4,103.6,43.5,103.3z"/>
	<path class="st0" d="M114.6,103.3l5.2-1.5c1.1-0.3,2.4,0,3.2,0.9l0,0c0.6,0.6,0.9,1.5,0.9,2.4L123,117c0,0.5-0.2,1.1-0.5,1.5
		c-1.3,2-5.1,7.8-5.6,8.5c-0.2,0.4-1.2,0.7-2.3,1c-1.7,0.5-3.5-0.6-4-2.3l-2.5-10.7c-0.2-0.7-0.1-1.5,0.3-2.2l4.1-7.9
		C113,104.1,113.7,103.6,114.6,103.3z"/>
	<polygon class="st1" points="81.2,55 79.3,55.1 79.3,55 79.4,55 	"/>
	<path class="st1" d="M117.6,87.4c0,0.5-2.7,14.8-2.7,14.8v8l-0.1,0.9l-3.7,25.5c-0.4,2.7-1.6,5.2-3.4,7.3c0,0-12.1,11.4-16.5,14.8
		c-1.3,1-7.3,2.2-10.1,2.8l-0.6,0.1l-0.9,0.2h-0.1v-0.1l0,0h-0.1c-1-0.2-10-1.7-11.6-3c-4.4-3.4-16.5-14.9-16.5-14.9
		c-1.8-2-3-4.6-3.4-7.3l-3.7-25.3l-0.2-1.1v-8c0,0-2.7-14.3-2.7-14.8c0-0.2,0.4-2.2,0.9-4.6c1.4-6.8,5-12.8,10.4-17.2l4.2-3.5
		c4.8-3.9,10.8-6.3,17-6.6l7.6-0.4v0.2l3.9,0.2c6.2,0.4,12.2,2.7,17,6.6l4.2,3.5c5.3,4.4,9,10.4,10.4,17.2
		C117.2,85.3,117.6,87.3,117.6,87.4z"/>
	<path class="st2" d="M79.3,124c0,0-5.7-2.3-5.9-2.5s-1,1.2-1,1.2l-3.8,1.2l0.5,3.1l3.2,1.2l4.2-1.2l2.8,1.2L79.3,124z"/>
	<path class="st3" d="M75.2,126l-2.2-2.1l-3,1c0,0,0.4,1.5,0.8,1.6l2.6,0.9L75.2,126z"/>
	<path class="st2" d="M78.7,124c0,0,5.7-2.3,5.9-2.5s1,1.2,1,1.2l3.9,1.2L89,127l-3.2,1.2l-4.2-1.2l-2.8,1.2L78.7,124z"/>
	<path class="st3" d="M82.5,126l2.2-2.1l3,1c0,0-0.4,1.5-0.8,1.6l-2.6,0.9L82.5,126z"/>
	<path class="st4" d="M112.8,123.3l1.9-13.2c0,0,4.7-4.7,5.1-4.8s0.6,2.1,0.6,2.1l-1.1,9.4l-2.7,4.7L112.8,123.3z"/>
	<path class="st4" d="M45.9,124.3L44,111.1c0,0-4.7-4.7-5.1-4.8s-0.6,2.1-0.6,2.1l1.1,9.4l2.7,4.7L45.9,124.3z"/>
	<path class="st5" d="M79.3,44.6c-16.1-0.5-46.6-0.1-53.4,32.1c-3.2,15.3-5.1,34.8,24.2,44.2c0.8,0.3,1.5-0.6,1-1.4
		c-3.5-5.5-11.5-28.6-4.8-44.7c0.2-0.5,31-14.6,31-14.6"/>
	<path class="st5" d="M26.5,77.3c0-0.1-0.6-0.5-0.6-0.6c5.2-31.1,38.6-50,54.7-36.6c18.5-13.5,46.4,6.3,52.3,35.7
		c7.3,36.1-17.7,43.1-25.9,44.5c-0.5,0.1-1.1-0.2-1.2-0.8c-0.1-0.3,0-0.5,0.1-0.8c13.7-18.6,6.1-46.9,5.4-47.7s-28.7-10.7-34-10.7
		c-0.4,0-6.2-1.3-6.2-1.3c-0.2-0.6-1.2,1.6-1.8,1.8c-0.2,0.1-3.9-1.2-4.1-1c-0.5,0.9,0.4,5-0.4,5.6c-2.1,1-4.3,2.7-7.3,2.4
		c-0.6,0-1-0.5-0.9-1.1c0-0.2,0.1-0.3,0.2-0.5l0,0c0.7-1-0.6-2.1-1.6-1.3c-5.5,4.2-9.6,9.9-11.9,16.4c-0.3,1.1-0.4,2.3-0.3,3.4
		c0,0.6-0.6,1.1-1.2,1c-0.3,0-0.6-0.2-0.8-0.4l-6.5-7.7c-0.2-0.3-0.6-0.4-1-0.4l-6.8,0.8c-0.6,0.1-0.7,0.3-0.8-0.3L26.5,77.3z"/>
	<circle class="st5" cx="41.2" cy="127" r="3"/>
	<circle class="st5" cx="117" cy="127" r="3"/>
</g>
</svg>
