<?xml version="1.0" encoding="utf-8"?>
<!-- Generator: Adobe Illustrator 26.0.2, SVG Export Plug-In . SVG Version: 6.00 Build 0)  -->
<svg version="1.1" id="Calque_1" xmlns="http://www.w3.org/2000/svg" xmlns:xlink="http://www.w3.org/1999/xlink" x="0px" y="0px"
	 viewBox="0 0 788 1005.1" style="enable-background:new 0 0 788 1005.1;" xml:space="preserve">
<style type="text/css">
	.st0{fill:#93273E;}
	.st1{fill:#D79072;}
	.st2{fill:#F7A386;}
	.st3{fill:#3D332F;}
	.st4{fill:#A06B58;}
	.st5{fill:#7A2914;}
</style>
<path class="st0" d="M401.7,169.4c-38.3,2-44.5-23.3-46.5-37c-1-7.1-0.7-14.3,1.1-21.2c7.9-30.5,27.2-40.7,60.6-35.5
	c17.9,2.8,26.8,3.6,32.8,17.2c15.5,34.6-8.7,73.8-46.5,76.4C402.8,169.3,402.3,169.4,401.7,169.4z"/>
<path class="st1" d="M371.5,141.6l-6.3-1.8c-0.7-0.2-1.5,0-2.1,0.6l-0.8,0.8c-0.4,0.4-0.6,1-0.6,1.6l0.9,12.6c0,0.4,0.1,0.7,0.3,1
	c1.1,1.7,5.2,8,5.7,8.8c0.3,0.5,2,1,3.5,1.4c1.1,0.3,2.2-0.4,2.5-1.5l2.9-12.2c0.1-0.5,0.1-1-0.2-1.4l-4.5-8.7
	C372.5,142.1,372.1,141.7,371.5,141.6z"/>
<path class="st1" d="M441.7,141.6l6.3-1.8c0.7-0.2,1.5,0,2.1,0.6l0.8,0.8c0.4,0.4,0.6,1,0.6,1.6l-0.9,12.6c0,0.4-0.1,0.7-0.3,1
	c-1.1,1.7-5.2,8-5.7,8.8c-0.3,0.5-2,1-3.5,1.4c-1.1,0.3-2.2-0.4-2.5-1.5l-2.9-12.2c-0.1-0.5-0.1-1,0.2-1.4l4.5-8.7
	C440.7,142.1,441.1,141.7,441.7,141.6z"/>
<path class="st2" d="M445,125.5c0,0.5-2.7,14.8-2.7,14.8v8l-0.1,0.9l-3.7,25.5c-0.4,2.7-1.6,5.2-3.5,7.2c0,0-12.2,11.4-16.5,14.9
	c-1.3,1-7.3,2.2-10.1,2.8l-0.6,0.1l-0.9,0.2l0,0l0,0h-0.1c-1-0.2-10-1.7-11.6-3c-4.4-3.4-16.5-14.9-16.5-14.9c-1.8-2-3-4.6-3.4-7.3
	l-3.7-25.3l-0.2-1.1v-8c0,0-2.7-14.3-2.7-14.8c0-0.2,0.4-2.2,0.9-4.6c1.4-6.8,5-12.8,10.4-17.2l4.2-3.5c4.8-3.9,10.8-6.3,17-6.6
	l5.6-0.4h0.1l0,0l5.6,0.4c6.2,0.4,12.2,2.7,17,6.6l4.3,3.5c5.4,4.4,9,10.5,10.4,17.2C444.6,123.3,445,125.3,445,125.5z"/>
<path class="st1" d="M406.8,162.1c0,0-5.7-2.3-5.9-2.5s-1,1.2-1,1.2l-3.8,1.2l0.5,3.1l3.2,1.2l4.2-1.2l2.8,1.2L406.8,162.1z"/>
<path class="st3" d="M402.7,164.1l-2.2-2.1l-3,1c0,0,0.4,1.5,0.8,1.6l2.6,0.9L402.7,164.1z"/>
<path class="st1" d="M406.2,162.1c0,0,5.7-2.3,5.9-2.5s1,1.2,1,1.2l3.9,1.2l-0.5,3.1l-3.2,1.2l-4.2-1.2l-2.8,1.2L406.2,162.1z"/>
<path class="st3" d="M410,164.1l2.2-2.1l3,1c0,0-0.4,1.5-0.8,1.6l-2.6,0.9L410,164.1z"/>
<path class="st4" d="M440.3,161.4l1.9-13.2c0,0,4.7-4.7,5.1-4.8s0.6,2.1,0.6,2.1l-1.1,9.4l-2.7,4.7L440.3,161.4z"/>
<path class="st4" d="M373.4,162.4l-1.9-13.2c0,0-4.7-4.7-5.1-4.8s-0.6,2.1-0.6,2.1l1.1,9.4l2.7,4.7L373.4,162.4z"/>
<path class="st0" d="M371.1,87.5c21.2-10.4,41.5-12.6,45.3-4.9s-10.3,22.4-31.5,32.9c-21.2,10.4-33.9,19.8-33.9,19.8
	C351.2,135.7,349.9,97.9,371.1,87.5z"/>
<ellipse class="st5" cx="372.1" cy="172.4" rx="1.3" ry="8.7"/>
<ellipse class="st5" cx="442.5" cy="172.4" rx="1.3" ry="8.7"/>
<g>
	<path class="st5" d="M449.6,146.1c3.2,2.5,5.6-2.8,1.6-3.5c0.8-0.3,1.8-0.1,2.4,0.6c1.4,1.5,0.2,4.3-1.9,4.2
		C450.7,147.5,449.8,146.9,449.6,146.1L449.6,146.1z"/>
</g>
</svg>
