<svg xmlns="http://www.w3.org/2000/svg" xmlns:xlink="http://www.w3.org/1999/xlink" viewBox="0 0 788 1005"><defs><style>.cls-1,.cls-8{fill:none;}.cls-2{fill:#fff;}.cls-3{fill:#844f3d;}.cls-4{fill:#663a3a;}.cls-5{fill:#bfbfbf;}.cls-6{fill:#423435;}.cls-7{clip-path:url(#clip-path);}.cls-8{stroke:#9e5b3e;stroke-linecap:round;stroke-miterlimit:10;stroke-width:2px;}.cls-9{clip-path:url(#clip-path-2);}</style><clipPath id="clip-path"><rect class="cls-1" x="402.98" y="195.98" width="18.49" height="6.03"/></clipPath><clipPath id="clip-path-2"><rect class="cls-1" x="366.53" y="195.98" width="18.49" height="6.03"/></clipPath></defs><g id="Calque_6" data-name="Calque 6"><circle class="cls-2" cx="375.87" cy="188.21" r="6.75"/><circle class="cls-2" cx="412.1" cy="188.21" r="6.75"/><circle cx="373.65" cy="186.49" r="3.29"/><circle cx="410" cy="186.49" r="3.29"/><path class="cls-3" d="M401.21,208.67s-4.69,3.69-7.42,3.69-7-3.59-7-3.59,5.4.73,7.21.72S401.21,208.67,401.21,208.67Z"/><path class="cls-4" d="M378.22,221.1c.28-.63,1.42-1.63,3.5-2.54a29.16,29.16,0,0,1,10.55-2.1,22.74,22.74,0,0,1,15.87,6.06s-4.59,11.74-15.81,10.88C384.19,232.77,378.22,221.1,378.22,221.1Z"/><path class="cls-5" d="M393.17,221.61l-8.25-.38-2.21-.91a28.1,28.1,0,0,1,11.44-2c6.69.35,10.31,2.91,10.31,2.91l-1.71.81Z"/><path class="cls-6" d="M412,220.73a6.27,6.27,0,0,1-7,2.24c-2.85-.76-2.85-3.15-11.25-3.73l-.21,0-.22,0c-8.4.58-8.4,3-11.25,3.73a6.27,6.27,0,0,1-7-2.24c-3.18-5.2,0,0,6.11-3.9,4.14-2.64,10.22-3.77,12.39-2.9h0c2.17-.87,8.25.26,12.39,2.9C412,220.73,415.22,215.53,412,220.73Z"/><path class="cls-6" d="M405.1,168.82c-3,.81-1.42,5.76.74,4.82a15.41,15.41,0,0,1,8.61-1.22c3.87.34,7.87,3.07,8.63,3.63s2.3.22,1.16-1.53C421,169.52,414.48,166.29,405.1,168.82Z"/><path class="cls-6" d="M382.9,168.82c3,.81,1.42,5.76-.74,4.82a15.41,15.41,0,0,0-8.61-1.22c-3.87.34-7.87,3.07-8.63,3.63s-2.3.22-1.16-1.53C367,169.52,373.52,166.29,382.9,168.82Z"/><g id="random" data-name="&lt;Répétition miroir&gt;"><g class="cls-7"><path class="cls-8" d="M404,199.14s4.8,2.15,8.5,1.84a13,13,0,0,0,8-4"/></g></g><g id="random2" data-name="&lt;Répétition miroir&gt;"><g class="cls-9"><path class="cls-8" d="M384,199.14s-4.8,2.15-8.5,1.84a13,13,0,0,1-8-4"/></g></g></g></svg>