<svg xmlns="http://www.w3.org/2000/svg" xmlns:xlink="http://www.w3.org/1999/xlink" viewBox="0 0 88 110.97"><defs><style>.cls-1,.cls-8{fill:none;}.cls-2{fill:#fff;}.cls-3{fill:#080808;stroke:#000;}.cls-3,.cls-8{stroke-miterlimit:10;}.cls-4{fill:#844f3d;}.cls-5{fill:#663a3a;}.cls-6{fill:#423435;}.cls-7{clip-path:url(#clip-path);}.cls-8{stroke:#9e5b3e;stroke-linecap:round;stroke-width:2px;}.cls-9{clip-path:url(#clip-path-2);}</style><clipPath id="clip-path"><rect class="cls-1" x="51.75" y="52.1" width="18.49" height="6.03"/></clipPath><clipPath id="clip-path-2"><rect class="cls-1" x="15.3" y="52.1" width="18.49" height="6.03"/></clipPath></defs><g id="Calque_6" data-name="Calque 6"><circle class="cls-2" cx="60.65" cy="43.48" r="6.75"/><circle class="cls-2" cx="25.8" cy="43.48" r="6.75"/><circle class="cls-3" cx="29.97" cy="43.48" r="4"/><circle class="cls-3" cx="64.9" cy="43.48" r="4"/><path class="cls-4" d="M51.77,65.71s-4.69,3.69-7.42,3.69-7-3.6-7-3.6,5.4.73,7.21.72S51.77,65.71,51.77,65.71Z"/><ellipse class="cls-5" cx="44.56" cy="83.41" rx="2.88" ry="5.72"/><path class="cls-6" d="M63.07,81.19a6.27,6.27,0,0,1-7,2.24c-2.85-.76-2.85-6.35-11.25-6.93a1.52,1.52,0,0,1-.21,0l-.22,0c-8.4.58-8.4,6.17-11.25,6.93a6.27,6.27,0,0,1-7-2.24c-3.18-5.2,0,0,6.11-3.9,4.13-2.64,5.18-6.12,12.39-6.11h0c7.2.35,8.26,3.47,12.4,6.11C63.07,81.19,66.25,76,63.07,81.19Z"/><path class="cls-6" d="M55,26.63c-3,.81-1.43,5.76.73,4.82a15.46,15.46,0,0,1,8.62-1.22c3.87.34,7.87,3.07,8.63,3.63s2.3.22,1.15-1.53C70.85,27.33,64.36,24.1,55,26.63Z"/><path class="cls-6" d="M32.78,26.63c3,.81,1.42,5.76-.74,4.82a15.42,15.42,0,0,0-8.61-1.22c-3.87.34-7.87,3.07-8.63,3.63s-2.3.22-1.16-1.53C16.9,27.33,23.4,24.1,32.78,26.63Z"/><g id="random" data-name="&lt;Répétition miroir&gt;"><g class="cls-7"><path class="cls-8" d="M52.75,55.27s4.8,2.14,8.5,1.84a13.08,13.08,0,0,0,8-4"/></g></g><g id="random2" data-name="&lt;Répétition miroir&gt;"><g class="cls-9"><path class="cls-8" d="M32.79,55.27s-4.8,2.14-8.5,1.84a13.12,13.12,0,0,1-8-4"/></g></g></g></svg>