<?xml version="1.0" encoding="utf-8"?>
<!-- Generator: Adobe Illustrator 26.0.3, SVG Export Plug-In . SVG Version: 6.00 Build 0)  -->
<svg version="1.1" id="Calque_1" xmlns="http://www.w3.org/2000/svg" xmlns:xlink="http://www.w3.org/1999/xlink" x="0px" y="0px"
	 viewBox="0 0 788 1005" style="enable-background:new 0 0 788 1005;" xml:space="preserve">
<style type="text/css">
	.st0{fill:#CA9072;}
	.st1{fill:#AF7C66;}
	.st2{fill:#A0725D;}
	.st3{fill:#63402B;}
	.st4{fill:#543526;}
	.st5{fill:#277A9B;}
	.st6{fill:#22677C;}
</style>
<g>
	<path class="st0" d="M359.6,121.3l-2.4-1.6c-1.6-1-3.7-0.9-5.1,0.3l-0.6,0.5c-1,0.9-1.6,2.2-1.5,3.5l0.8,10.9
		c0.1,0.7,0.3,1.4,0.7,2c1.4,2.2,4.9,7.6,5.4,8.3c0.1,0.2,0.3,0.3,0.6,0.5c2.4,1.2,5.3-0.3,5.9-2.9l2.2-9.2c0.2-1,0.1-2-0.4-2.9
		l-4.1-7.9C360.7,122.3,360.2,121.7,359.6,121.3z"/>
	<path class="st0" d="M430,121.3l3-1.7c1.7-1,3.9-0.6,5.2,0.8l0.1,0.2c0.8,0.9,1.2,2,1.1,3.1l-0.8,11.2c-0.1,0.7-0.3,1.4-0.7,2
		c-1.4,2.2-4.9,7.6-5.4,8.3c-0.1,0.2-0.3,0.3-0.6,0.5c-2.4,1.2-5.3-0.3-5.9-2.9l-2.2-9.2c-0.2-1-0.1-2,0.4-2.9l4-7.7
		C428.7,122.3,429.3,121.7,430,121.3z"/>
	<path class="st0" d="M432.1,100.1c-1.4-6.8-5-12.9-10.4-17.2l-4.2-3.5c-4.8-3.9-10.8-6.3-17-6.7l-5.6-0.3h-0.1l-5.6,0.3
		c-6.2,0.4-12.2,2.7-17,6.7l-4.3,3.5c-5.3,4.4-9,10.4-10.4,17.2c-0.5,2.5-0.9,4.5-0.9,4.6c0,0.5,2.7,14.8,2.7,14.8v8l0.2,1.1
		l3.7,25.3c0.4,2.7,1.6,5.2,3.4,7.3c0,0,12.2,11.4,16.5,14.9c1.6,1.3,10.6,2.8,11.6,3l0,0h0.1l0.9-0.2l0.6-0.1
		c2.9-0.5,8.8-1.7,10.1-2.8c4.4-3.4,16.5-14.9,16.5-14.9c1.8-2,3-4.6,3.4-7.3l3.7-25.5l0.1-0.9v-8c0,0,2.7-14.3,2.7-14.8
		C433,104.5,432.6,102.5,432.1,100.1z"/>
	<path class="st1" d="M428.3,140.3l1.9-13.2c0,0,4.7-4.7,5.1-4.8s0.6,2,0.6,2l-1.1,9.4l-2.7,4.7L428.3,140.3z"/>
	<path class="st1" d="M361.4,141.3l-1.9-13.2c0,0-4.7-4.7-5.1-4.8s-0.6,2-0.6,2l1.1,9.4l2.7,4.7L361.4,141.3z"/>
	<g>
		<path class="st1" d="M403.9,142.2c2-0.8-0.5-3,1.3-3.9c2.5,4.9,1.5,6.1-4.9,6.1C400.2,141.8,402.3,142.5,403.9,142.2z"/>
		<path class="st2" d="M403.9,142.2c-1.2,0.8-2.4,1.5-3.6,2.3c-0.4,0.1-0.7,0.1-1.1,0.1c-1.2,0.4-1.5-0.1-1.2-1.2
			C399.7,141.8,401.3,139.7,403.9,142.2z"/>
		<path class="st1" d="M386.2,142.1c-2-0.8,0.5-3-1.3-3.9c-2.5,4.9-1.5,6.1,4.9,6.1C389.9,141.7,387.7,142.4,386.2,142.1z"/>
		<path class="st2" d="M386.2,142.1c1.2,0.8,2.4,1.5,3.6,2.3c0.4,0.1,0.7,0.1,1.1,0.1c1.2,0.4,1.5-0.1,1.2-1.2
			C390.4,141.8,388.8,139.7,386.2,142.1z"/>
		<path class="st1" d="M391,144.6c0.4-0.4,0.8-0.9,1.2-1.2c2,1.1,3.8,1.4,5.8,0c0.4,0.4,0.8,0.8,1.2,1.2
			C396.4,146.3,393.7,146.4,391,144.6z"/>
	</g>
</g>
<path class="st0" d="M371.3,63.1l-1.2,0.2c-1.7,0.3-3.4,0.9-4.9,1.7l-0.9,0.5c-1.6,0.9-2.4,2.7-2,4.4l2.7,12.8
	c0.7,3.1,4.4,4.3,6.7,2.1l7.6-7c1.4-1.3,1.7-3.4,0.7-5l-4.6-7.7C374.6,63.6,373,62.8,371.3,63.1z"/>
<path class="st3" d="M356.6,115.7c2.8,4.8,1.6,5,4.2,10.3c0.2,0.4,0.9,0.3,0.9-0.2c0.8-9.7,2-20.5,2.9-30.4c0.1-0.8-1.1-4.4-1.9-4.2
	l-1.5,2.6c12-8.5,13.4-19.4,8.2-31.6C355.1,67.3,352,82.2,350,94.9c-0.3,2.2,1.5,10,3.2,14.1l0.9,2
	C354.8,112.5,355.7,114.1,356.6,115.7z"/>
<path class="st4" d="M436.4,103.4l6.7,4.1l-10.5-21.3l-16-11.7l-5,4.3c0,0,6.9,0.4,11.4,5.1S436.4,103.4,436.4,103.4z"/>
<path class="st3" d="M436,108.6c-4.6,4-4.6,12.9-7.3,18.5c-0.2,0.4-0.8,0.3-0.8-0.1c-1.7-12.2,4.6-23.7-8.1-45.4
	c4.6,1.2,14.7,11.3,19.4,22.6l-0.4,0.8C438.3,106.4,437.2,107.6,436,108.6z"/>
<path class="st3" d="M441.5,106.6c-21.9-43.6-29-18.3-69.6-28.9c-0.2,0-0.3-0.2-0.4-0.3c-11.3-26.7,6.9-28.9,37.6-27.7
	c1.2,0,1.5,1.7,0.4,2.2l-3.3,1.2c-0.5,0.2-0.5,1,0.1,1.1c8.4,1.3,17,2,21.4,10.5c6.8,13.7,12.2,27.5,16.3,42.3
	c0.1,0.5-0.4,0.9-0.8,0.7l-1.3-0.7C441.6,106.8,441.5,106.7,441.5,106.6z"/>
<g>
	<path class="st5" d="M435.3,78.9c-1.1,4.1-0.6,8.7-2.1,13c-0.7,1.8-2,2.3-4.2,2.2c-2.6-0.2-5.2-1-7.7-1.7
		c-3.5-0.9-7.1-1.8-10.6-2.8c-9.8-2.9-19.3-2.4-29.2-0.3c-6.7,1.6-13.3,3.4-20.2,4.4c-5.4,0.9-6.3,0.4-7.5-3.8c-0.3-1-0.4-2-0.7-3
		c-0.5-3-0.4-6.2-1.4-9.2l16.5-2.1c17.2-2.2,34.8-2,51.9,0.8L435.3,78.9z"/>
	<path class="st6" d="M435.1,80.1c0.2-0.9,0.4-1.8,0.9-2.5c-0.9-9.1-3-17.5-6.6-25.6c-2.3-5.3-6.6-8.6-12.5-10.7
		c-2.8-1-5.8-1.7-8.7-2.3c-4.4-1-9.2-0.4-13.4-2.3c-1-0.5-2.2-0.2-2.9,0.4c-1.2,0.9-2.4,0.9-3.8,1c-4.7,0.2-9.2,1.1-13.6,2.2
		c-7.6,2.1-13.7,5.8-16.3,12.8c-2.1,5.4-3.9,10.8-5,16.5c-0.5,3.2-2.1,6.4-1,9.6L367,77c18.6-2.5,37.4-2.1,55.9,1L435.1,80.1z"/>
</g>
</svg>
