<?xml version="1.0" encoding="utf-8"?>
<!-- Generator: Adobe Illustrator 26.0.3, SVG Export Plug-In . SVG Version: 6.00 Build 0)  -->
<svg version="1.1" id="Calque_1" xmlns="http://www.w3.org/2000/svg" xmlns:xlink="http://www.w3.org/1999/xlink" x="0px" y="0px"
	 viewBox="0 0 788 1005" style="enable-background:new 0 0 788 1005;" xml:space="preserve">
<style type="text/css">
	.st0{fill:#CA9072;}
	.st1{fill:#AF7C66;}
	.st2{fill:#A0725D;}
	.st3{fill:#63402B;}
	.st4{fill:#D3D3D3;stroke:#D34B1C;stroke-width:0.958;stroke-miterlimit:10;}
	.st5{fill:#D3D3D3;}
	.st6{fill:#D34B1C;}
	.st7{fill:#CE3E17;}
</style>
<polygon class="st0" points="369.4,124.7 357.8,124.7 353.8,113.4 356.6,92.1 363.5,72.5 396.2,74.2 423.7,73.7 432.9,92.1 "/>
<g>
	<path class="st0" d="M359.6,121.4l-2.4-1.6c-1.6-1-3.7-0.9-5.1,0.3l-0.6,0.5c-1,0.9-1.6,2.2-1.5,3.5l0.8,10.9
		c0.1,0.7,0.3,1.4,0.7,2c1.4,2.2,4.9,7.6,5.4,8.3c0.1,0.2,0.3,0.3,0.6,0.5c2.4,1.2,5.3-0.3,5.9-2.9l2.2-9.2c0.2-1,0.1-2-0.4-2.9
		l-4.1-7.9C360.7,122.4,360.2,121.8,359.6,121.4z"/>
	<path class="st0" d="M430,121.4l3-1.7c1.7-1,3.9-0.6,5.2,0.8l0.1,0.2c0.8,0.9,1.2,2,1.1,3.1l-0.8,11.2c-0.1,0.7-0.3,1.4-0.7,2
		c-1.4,2.2-4.9,7.6-5.4,8.3c-0.1,0.2-0.3,0.3-0.6,0.5c-2.4,1.2-5.3-0.3-5.9-2.9l-2.2-9.2c-0.2-1-0.1-2,0.4-2.9l4-7.7
		C428.7,122.4,429.3,121.8,430,121.4z"/>
	<path class="st0" d="M432.1,100.2c-1.4-6.8-5-12.9-10.4-17.2l-4.2-3.5c-4.8-3.9-10.8-6.3-17-6.7l-5.6-0.3h-0.1l-5.6,0.3
		c-6.2,0.4-12.2,2.7-17,6.7l-4.3,3.5c-5.3,4.4-9,10.4-10.4,17.2c-0.5,2.5-0.9,4.5-0.9,4.6c0,0.5,2.7,14.8,2.7,14.8v8l0.2,1.1
		l3.7,25.3c0.4,2.7,1.6,5.2,3.4,7.3c0,0,12.2,11.4,16.5,14.9c1.6,1.3,10.6,2.8,11.6,3l0,0h0.1l0.9-0.2l0.6-0.1
		c2.9-0.5,8.8-1.7,10.1-2.8c4.4-3.4,16.5-14.9,16.5-14.9c1.8-2,3-4.6,3.4-7.3l3.7-25.5l0.1-0.9v-8c0,0,2.7-14.3,2.7-14.8
		C433,104.6,432.6,102.6,432.1,100.2z"/>
	<path class="st1" d="M428.3,140.4l1.9-13.2c0,0,4.7-4.7,5.1-4.8s0.6,2,0.6,2l-1.1,9.4l-2.7,4.7L428.3,140.4z"/>
	<path class="st1" d="M361.4,141.4l-1.9-13.2c0,0-4.7-4.7-5.1-4.8s-0.6,2-0.6,2l1.1,9.4l2.7,4.7L361.4,141.4z"/>
	<g>
		<path class="st1" d="M403.8,142.3c2-0.8-0.5-3,1.3-3.9c2.5,4.9,1.5,6.1-4.9,6.1C400.2,141.9,402.3,142.6,403.8,142.3z"/>
		<path class="st2" d="M403.8,142.3c-1.2,0.8-2.4,1.5-3.6,2.3c-0.4,0.1-0.7,0.1-1.1,0.1c-1.2,0.4-1.5-0.1-1.2-1.2
			C399.6,141.9,401.3,139.8,403.8,142.3z"/>
		<path class="st1" d="M386.2,142.2c-2-0.8,0.5-3-1.3-3.9c-2.5,4.9-1.5,6.1,4.9,6.1C389.8,141.8,387.7,142.5,386.2,142.2z"/>
		<path class="st2" d="M386.2,142.2c1.2,0.8,2.4,1.5,3.6,2.3c0.4,0.1,0.7,0.1,1.1,0.1c1.2,0.4,1.5-0.1,1.2-1.2
			C390.4,141.9,388.7,139.8,386.2,142.2z"/>
		<path class="st1" d="M390.9,144.7c0.4-0.4,0.8-0.9,1.2-1.2c2,1.1,3.8,1.4,5.8,0c0.4,0.4,0.8,0.8,1.2,1.2
			C396.4,146.4,393.6,146.5,390.9,144.7z"/>
	</g>
</g>
<g id="Calque_7">
	<path class="st3" d="M357.4,121.8c0,0-0.5-15.6,0.9-20.4c1.9-6.7,5.9-18.1,11.3-20.5c5.7-2.6,20.5,1.9,26.6,2
		c5.8,0.1,17.4-5.7,22.9-3.3c3.4,1.5,7.8,9.8,9.3,13.9c2.8,7.3,1.6,25.9,1.6,25.9l-0.1,2c1.4-0.5,3.1-1.4,4.3-2.3
		c2-13.2,4.2-42.8-8.8-50.8c-5.6-3.5-22-8.6-28-9.3s-18.5,1-24.7,2.5c-6.4,1.5-8.2,5.2-13.3,9.8c-7.6,6.7-7.9,38.1-4.9,46.7
		L357.4,121.8z"/>
</g>
<g>
	<path class="st4" d="M417.6,55.5c0,0,22.5-0.9,13.7-27.8c-8.8-26.8-29-8.9-29-8.9s-7.2-9.8-24.8-6.3c-17.6,3.4-22.9,14.4-22.9,14.4
		s-30.7-10.7-29.2,25.3s38.2,10.3,38.2,10.3"/>
	<path class="st4" d="M347.4,60.5l6.1,31.6c0,0,34.3-33.8,71-25.1c0-10.1-7.4-20.1-7.4-20.1S376.9,37.1,347.4,60.5z"/>
	<g>
		<path class="st5" d="M360.9,48.5c0,0,5.9,11.1,22.6,8.4c16.7-2.7,20-16.8,20-16.8"/>
		<path class="st6" d="M360.9,48.5c7.8,11.2,25.4,10.5,35.3,2.5c3.4-2.8,5.9-6.6,7.4-10.7c-1.3,5.4-5,10.2-9.6,13.3
			C383.9,60,367.5,59.7,360.9,48.5L360.9,48.5z"/>
	</g>
</g>
<circle class="st7" cx="358.9" cy="143.4" r="1.8"/>
<circle class="st7" cx="430.5" cy="142.8" r="1.8"/>
</svg>
