<?xml version="1.0" encoding="utf-8"?>
<!-- Generator: Adobe Illustrator 26.0.3, SVG Export Plug-In . SVG Version: 6.00 Build 0)  -->
<svg version="1.1" id="Calque_1" xmlns="http://www.w3.org/2000/svg" xmlns:xlink="http://www.w3.org/1999/xlink" x="0px" y="0px"
	 viewBox="0 0 788 1005" style="enable-background:new 0 0 788 1005;" xml:space="preserve">
<style type="text/css">
	.st0{fill:#CA9072;}
	.st1{fill:#AF7C66;}
	.st2{fill:#A0725D;}
	.st3{fill:#63402B;}
	.st4{fill:#724833;}
</style>
<g>
	<path class="st0" d="M359.8,121.2l-2.4-1.6c-1.6-1-3.7-0.9-5.1,0.3l-0.6,0.5c-1,0.9-1.6,2.2-1.5,3.5l0.8,10.9
		c0.1,0.7,0.3,1.4,0.7,2c1.4,2.2,4.9,7.6,5.4,8.3c0.1,0.2,0.3,0.3,0.6,0.5c2.4,1.2,5.3-0.3,5.9-2.9l2.2-9.2c0.2-1,0.1-2-0.4-2.9
		l-4.1-7.9C360.9,122.2,360.4,121.6,359.8,121.2z"/>
	<path class="st0" d="M430.2,121.2l3-1.7c1.7-1,3.9-0.6,5.2,0.8l0.1,0.2c0.8,0.9,1.2,2,1.1,3.1l-0.8,11.2c-0.1,0.7-0.3,1.4-0.7,2
		c-1.4,2.2-4.9,7.6-5.4,8.3c-0.1,0.2-0.3,0.3-0.6,0.5c-2.4,1.2-5.3-0.3-5.9-2.9l-2.2-9.2c-0.2-1-0.1-2,0.4-2.9l4-7.7
		C428.9,122.2,429.5,121.6,430.2,121.2z"/>
	<path class="st0" d="M432.3,100c-1.4-6.8-5-12.9-10.4-17.2l-4.2-3.5c-4.8-3.9-10.8-6.3-17-6.7l-5.6-0.3H395l-5.6,0.3
		c-6.2,0.4-12.2,2.7-17,6.7l-4.3,3.5c-5.3,4.4-9,10.4-10.4,17.2c-0.5,2.5-0.9,4.5-0.9,4.6c0,0.5,2.7,14.8,2.7,14.8v8l0.2,1.1
		l3.7,25.3c0.4,2.7,1.6,5.2,3.4,7.3c0,0,12.2,11.4,16.5,14.9c1.6,1.3,10.6,2.8,11.6,3l0,0h0.1l0.9-0.2l0.6-0.1
		c2.9-0.5,8.8-1.7,10.1-2.8c4.4-3.4,16.5-14.9,16.5-14.9c1.8-2,3-4.6,3.4-7.3l3.7-25.5l0.1-0.9v-8c0,0,2.7-14.3,2.7-14.8
		C433.2,104.4,432.8,102.4,432.3,100z"/>
	<path class="st1" d="M428.5,140.2l1.9-13.2c0,0,4.7-4.7,5.1-4.8s0.6,2,0.6,2l-1.1,9.4l-2.7,4.7L428.5,140.2z"/>
	<path class="st1" d="M361.6,141.2l-1.9-13.2c0,0-4.7-4.7-5.1-4.8s-0.6,2-0.6,2l1.1,9.4l2.7,4.7L361.6,141.2z"/>
	<g>
		<path class="st1" d="M404,142.1c2-0.8-0.5-3,1.3-3.9c2.5,4.9,1.5,6.1-4.9,6.1C400.4,141.7,402.5,142.4,404,142.1z"/>
		<path class="st2" d="M404,142.1c-1.2,0.8-2.4,1.5-3.6,2.3c-0.4,0.1-0.7,0.1-1.1,0.1c-1.2,0.4-1.5-0.1-1.2-1.2
			C399.8,141.7,401.5,139.6,404,142.1z"/>
		<path class="st1" d="M386.4,142c-2-0.8,0.5-3-1.3-3.9c-2.5,4.9-1.5,6.1,4.9,6.1C390,141.6,387.9,142.3,386.4,142z"/>
		<path class="st2" d="M386.4,142c1.2,0.8,2.4,1.5,3.6,2.3c0.4,0.1,0.7,0.1,1.1,0.1c1.2,0.4,1.5-0.1,1.2-1.2
			C390.6,141.7,388.9,139.6,386.4,142z"/>
		<path class="st1" d="M391.1,144.5c0.4-0.4,0.8-0.9,1.2-1.2c2,1.1,3.8,1.4,5.8,0c0.4,0.4,0.8,0.8,1.2,1.2
			C396.6,146.2,393.8,146.3,391.1,144.5z"/>
	</g>
</g>
<polygon class="st0" points="359.4,76.6 371.5,73.8 414.2,67.1 421.7,66.8 427.3,70.7 434.9,98 427.6,111.4 358.2,97.2 "/>
<path class="st3" d="M429.6,127.8c-1.1-10.9,0.9-22.4-0.1-32.8c-0.6-6.6-2.2-12.6-7.9-16.5c-0.7-0.4-0.8-1.4-0.3-2
	c1.8-2,3.4-4,5.4-6.2c0.7-0.8,1.9-0.8,2.6-0.1c2,2.1,4.2,4,5.1,6.3C441,93.4,435.8,111.1,429.6,127.8z"/>
<path class="st3" d="M360.8,76.8c2.3,3,2.2,5.9,1.6,9.8c-2.2,13-1,27-2.7,40.3c-4.2-12.1-9.3-25.3-7.3-38.3c0.3-1.9,0.6-3.8,0.9-5.7
	c0.7-4.5,2.8-7,7.7-5.9C361.1,77,360.8,76.8,360.8,76.8z"/>
<path class="st4" d="M363.9,61.7l-10.4,4.5c0,0,3.4,0.7,4.5,2.4c1.1,1.7,24.6,10.7,24.6,10.7l10.4,9.3l3.7-14.5l-16.2-12.7
	L363.9,61.7z"/>
<path class="st3" d="M352.8,65.9c2.7-7,5.5-9.3,16.2-12.8c0.6-0.2,0.5-1-0.1-1.1c-1.4-0.2-2.6-0.4-3.8-0.6c-0.5-0.1-0.7-0.7-0.3-1
	c12-9.4,24.2-9.4,41.7,0.1c0.5,0.3,1.1-0.4,0.7-0.8c-0.5-0.7-1.1-1.4-1.7-2.2c-0.3-0.5,0.1-1.1,0.7-0.9c6.6,2.5,11.1,6.2,14.3,11.7
	c5.3,9.1,2.8,15.3-7.3,19.3c-1.8,0.7-3,3-4.6,4.3c-1.5,1.1-3.2,1.9-5.3,3c-0.3,0.2-0.8,0-0.8-0.4l-0.5-3.1c-0.1-0.5-0.7-0.6-1-0.3
	c-2.2,2.4-4.4,4.9-7,7.8c-0.3,0.3-0.8,0.2-1-0.2c-1.6-4.7-2.4-8.6-4.4-11.8c-2.8-4.7-4.9-10.2-12.9-9.2c-5.9,0.8-12.1-1.2-18.2-1.7
	c-1.3-0.1-2.6,0.4-4,0.8C353,66.8,352.6,66.4,352.8,65.9z"/>
<path class="st3" d="M361.1,77c-3.3-0.3-6.6-0.7-9.9-1c-0.7-0.1-1.1-0.7-0.9-1.4c1.1-4,4.6-6.3,11.8-7.1
	c11.1-1.2,22.1,5.2,26.3,14.6c0.3,0.6-0.1,1.4-0.7,1.5c-10,2.6-18.1-3.4-26.8-6.9C360.8,76.8,361.1,77,361.1,77z"/>
</svg>
