<?xml version="1.0" encoding="utf-8"?>
<!-- Generator: Adobe Illustrator 26.0.3, SVG Export Plug-In . SVG Version: 6.00 Build 0)  -->
<svg version="1.1" id="Calque_1" xmlns="http://www.w3.org/2000/svg" xmlns:xlink="http://www.w3.org/1999/xlink" x="0px" y="0px"
	 viewBox="0 0 788 1005" style="enable-background:new 0 0 788 1005;" xml:space="preserve">
<style type="text/css">
	.st0{fill:#CA9072;}
	.st1{fill:#AF7C66;}
	.st2{fill:#A0725D;}
	.st3{fill:#63402B;}
	.st4{fill:#F78491;}
	.st5{fill:#CC3E63;}
</style>
<g>
	<path class="st0" d="M359.6,121.3l-2.4-1.6c-1.6-1-3.7-0.9-5.1,0.3l-0.6,0.5c-1,0.9-1.6,2.2-1.5,3.5l0.8,10.9
		c0.1,0.7,0.3,1.4,0.7,2c1.4,2.2,4.9,7.6,5.4,8.3c0.1,0.2,0.3,0.3,0.6,0.5c2.4,1.2,5.3-0.3,5.9-2.9l2.2-9.2c0.2-1,0.1-2-0.4-2.9
		l-4.1-7.9C360.7,122.3,360.2,121.7,359.6,121.3z"/>
	<path class="st0" d="M430,121.3l3-1.7c1.7-1,3.9-0.6,5.2,0.8l0.1,0.2c0.8,0.9,1.2,2,1.1,3.1l-0.8,11.2c-0.1,0.7-0.3,1.4-0.7,2
		c-1.4,2.2-4.9,7.6-5.4,8.3c-0.1,0.2-0.3,0.3-0.6,0.5c-2.4,1.2-5.3-0.3-5.9-2.9l-2.2-9.2c-0.2-1-0.1-2,0.4-2.9l4-7.7
		C428.7,122.3,429.3,121.7,430,121.3z"/>
	<path class="st0" d="M432.1,100.1c-1.4-6.8-5-12.9-10.4-17.2l-4.2-3.5c-4.8-3.9-10.8-6.3-17-6.7l-5.6-0.3h-0.1l-5.6,0.3
		c-6.2,0.4-12.2,2.7-17,6.7l-4.3,3.5c-5.3,4.4-9,10.4-10.4,17.2c-0.5,2.5-0.9,4.5-0.9,4.6c0,0.5,2.7,14.8,2.7,14.8v8l0.2,1.1
		l3.7,25.3c0.4,2.7,1.6,5.2,3.4,7.3c0,0,12.2,11.4,16.5,14.9c1.6,1.3,10.6,2.8,11.6,3l0,0h0.1l0.9-0.2l0.6-0.1
		c2.9-0.5,8.8-1.7,10.1-2.8c4.4-3.4,16.5-14.9,16.5-14.9c1.8-2,3-4.6,3.4-7.3l3.7-25.5l0.1-0.9v-8c0,0,2.7-14.3,2.7-14.8
		C433,104.5,432.6,102.5,432.1,100.1z"/>
	<path class="st1" d="M428.3,140.3l1.9-13.2c0,0,4.7-4.7,5.1-4.8s0.6,2,0.6,2l-1.1,9.4l-2.7,4.7L428.3,140.3z"/>
	<path class="st1" d="M361.4,141.3l-1.9-13.2c0,0-4.7-4.7-5.1-4.8s-0.6,2-0.6,2l1.1,9.4l2.7,4.7L361.4,141.3z"/>
	<g>
		<path class="st1" d="M403.8,142.2c2-0.8-0.5-3,1.3-3.9c2.5,4.9,1.5,6.1-4.9,6.1C400.2,141.8,402.3,142.5,403.8,142.2z"/>
		<path class="st2" d="M403.8,142.2c-1.2,0.8-2.4,1.5-3.6,2.3c-0.4,0.1-0.7,0.1-1.1,0.1c-1.2,0.4-1.5-0.1-1.2-1.2
			C399.7,141.8,401.3,139.7,403.8,142.2z"/>
		<path class="st1" d="M386.2,142.1c-2-0.8,0.5-3-1.3-3.9c-2.5,4.9-1.5,6.1,4.9,6.1C389.9,141.7,387.7,142.4,386.2,142.1z"/>
		<path class="st2" d="M386.2,142.1c1.2,0.8,2.4,1.5,3.6,2.3c0.4,0.1,0.7,0.1,1.1,0.1c1.2,0.4,1.5-0.1,1.2-1.2
			C390.4,141.8,388.8,139.7,386.2,142.1z"/>
		<path class="st1" d="M390.9,144.6c0.4-0.4,0.8-0.9,1.2-1.2c2,1.1,3.8,1.4,5.8,0c0.4,0.4,0.8,0.8,1.2,1.2
			C396.4,146.3,393.7,146.4,390.9,144.6z"/>
	</g>
</g>
<path class="st0" d="M360.2,95.2c1.2,2.7,4.6,3.5,6.9,1.7c4.6-3.8,13-8.8,25-9.1c14.1-0.4,24.1,3.5,29.8,7.6
	c2.4,1.8,5.9,0.7,6.9-2.1l2.1-5.8c0.4-1,0.4-2.1,0-3.1l-1.6-4.1c-0.6-1.6-2-2.7-3.7-2.9l-33-3.6c-0.4,0-0.8,0-1.2,0l-29.7,5.1
	c-1.4,0.2-2.7,1.2-3.3,2.5l-1.3,2.8c-0.6,1.2-0.6,2.6,0,3.8L360.2,95.2z"/>
<path d="M-400-99.5c-6.4-3-13.7-4.5-17.1-11.9c-0.2,0.5-0.4,1-0.7,1.4c-1-0.3-2.2-0.3-3-0.9c-6.2-5.1-9.1-12.1-9-19.8
	c0.1-9.1,1.7-18.2,1.8-27.3c0.1-11.1-1.2-22.3-0.8-33.3c0.3-6.3,2-12.9,4.7-18.6c1.7-3.6,6-7.1,9.9-8.3c6.4-2,13.3-2.2,20.1-2.8
	c3.4-0.3,6.9,0.4,10.9,0.7c-1.2,2.8-2.3,5.4-3.4,8.1c0.2,0.2,0.4,0.3,0.6,0.5c2.2-2.8,4.5-5.6,7.1-8.9c0.4,2.9,0.8,5.4,1,6.8
	c1.7,0.9,3.2,1.2,3.9,2.2c7.4,10.9,8,22.6,6.3,35.6c-1.5,11,0.3,22.5,1.3,33.8c1,11.6,1,22.8-8.6,31.3c-0.8,0.7-2,0.8-3.4,0.5
	c-3.9,6.4-11.2,8-17.6,10.9C-397.3-99.5-398.7-99.5-400-99.5z M-375.2-198.5c-12.6,2.2-14.1,2.3-14.7,1c-2.5,0.9-5.1,2.9-7.4,2.6
	c-6.9-1.2-13.7-3.2-20.7-5c0.3,0.7,0.6,1.4,1,2.4c-1.2-0.2-2.2-0.4-3.5-0.7c-1.2,6.7-2.7,13.4-3.5,20.1c-1.1,9-1.5,18.2,6.1,25
	c2.7,2.4,4.9,4.4,2.7,9.4c11.8-11.5,22.8-10.7,32.6-2.1c1.3-2.2,2.5-4.2,3.7-6.3c2.2-3.8,5.4-7.3,6.5-11.3c2.9-11.1-0.3-22-1.7-33
	C-374.2-197.1-374.8-197.7-375.2-198.5z M-410.3-138.4c3.2,2.2,5.9,3.3,9.4,1c1.5-0.9,4.4-0.7,6.1,0.2c3.7,2,6.3,1.2,9-1.7
	C-393.9-146.4-403.4-146.2-410.3-138.4z"/>
<path d="M-195-256.5c-0.9,1.1-1.8,2.1-2.9,3.3c-1.1-1.8-2.2-3.7-3.4-5.7c-0.3,0.1-0.7,0.2-1,0.3c0.8,2.6,1.6,5.3,2.5,8.3
	c-4.2-1.1-5.8-3.9-6.2-7.9c-0.4-3.6-0.9-7.1-2.4-10.5c0.5,5.2,0.9,10.5,1.2,13.7c-2.2,5.4-3.8,9.3-5.9,14.5c-0.8-2.1-1.1-3-1.5-4.1
	c-0.4,0.6-0.8,1.1-1.1,1.7c-2.6,5.1-2.6,5.1-9.2,6.6c-0.4,0.1-0.7,0.6-1.1,0.9c-8.3,6.2-10.3,6-18.4-1.2c-2.6,2.3-5.5,0.1-10-8.1
	c-0.3,1-0.6,1.8-1.4,4.1c-2.1-5.1-3.7-9.1-6-14.7c0.6-6.4,1.4-15.2,2.2-24c0.3,0,0.7,0,1,0c2.2,5.1,4.4,10.2,7,16.2
	c4.8-5.8,10.2-8.6,17.2-8.6c6.8,0.1,12.2,2.4,17.1,8.7c2.6-6,4.8-11.2,7.3-16.9c0.6,1.4,1.2,2.7,1.6,3.7c0.2-0.6,0.2-1.9,0.8-2.2
	c5.5-3.2,5.4-8.7,5.7-14c0.1-1-1.2-2-1.8-3.1c-1.1,0.9-2.7,1.6-3.1,2.7c-0.8,2.7-1,5.5-2.7,8.5c-1.1-8.3-2.3-16.6-3.4-24.9
	c0.3-0.2,0.6-0.3,1-0.5c1.9,2.6,3.6,5.2,5.6,7.7c1.5,1.9,3.3,3.6,4.9,5.3c0.2,0.2,0.3,0.4,0.5,0.6c0.7,7.1,1.4,14.1,2.2,21.6
	c-1.2-0.5-2-0.8-3.8-1.5c2.9,4.2,5.3,7.6,7.7,11.1C-195-261.8-195-259.2-195-256.5z M-234.5-268.5c-2.8,0.9-5.8,1.3-8.1,2.7
	c-1.3,0.9-1.6,3.4-2.3,5.2c1.5,0.4,3,1.2,4.6,1.3c3.9,0.2,7.7,0.2,11.6,0c1.5-0.1,3-0.9,4.5-1.4c-0.6-1.7-0.8-4.2-2-4.9
	C-228.6-267.1-231.7-267.6-234.5-268.5z"/>
<path d="M-299.9-278.7c-7.2,2.7-11.5,0.5-14.1-6.9c-0.4-1.2-1.6-2.1-2.4-3.2c-0.9,1.1-2.3,2-2.8,3.3c-2.5,7.2-7.8,9.8-13.3,6.4
	c2.6-0.1,5.4,0.4,7.7-0.5c4.9-2,6-9.1,2.2-11.9c-2.8-2-10.3-2.3-12.9-0.2c-3.6,3-1.9,6.6-0.6,10c0.1,0.2,0.1,0.3,0.1,0.5
	c-1.7-3-3.4-6-5.1-8.9c-0.3,0.1-0.6,0.2-0.9,0.3c-0.2,1.6-0.3,3.1-0.5,5c-3.9-5.4-0.7-14.4-10.4-17.1c1.8-0.6,2.3-0.9,2.8-0.8
	c8.4,0.2,13.6-4.1,17-11.5c2.5-5.6,5.2-11.3,12.2-12.8c-0.2-0.5-0.4-1-0.6-1.5c-2.5,1-5.9,1.2-7.4,3c-3.6,4.2-6.7,9-9.4,13.9
	c-2.5,4.5-5.6,7.3-11,6.9c-2.6-25.4,11.9-41.1,34.7-38.5c-1.8-0.7-3.6-1.5-5.4-2.2c3,0,6,0,9,0c3.6,1.9,7.6,3.4,10.8,5.8
	c8.4,6.2,7.9,15.7-1.1,21.9c0.1-2.2,0.3-4.2,0.4-6.3c-2.6,3.2-5.2,6.3-7.7,9.4c1.9-10.5,0.2-14.3-7.9-16.6c1.7,2.2,4.3,4.4,5,7
	c0.7,2.7-0.7,5.8-1.3,9.7c-5-5.6-7-5.2-9.5,0.5c-1.8,3.9-3.4,8-5.6,11.6c-1.2,1.9-3.6,3-5.9,3.7c0.3-0.7,0.5-1.4,1.2-3
	c-3.4,3.3-9.6,2-9.1,8.5c4.1-0.4,8-1.1,12-1c2.9,0.1,5.8,1.2,8.7,1.7c2.5,0.4,5.7,1.7,7.6,0.6c6.4-3.5,12.9-2.4,19.5-1.6
	c0.8,0.1,1.6,0.2,3.7,0.4c-1.7-7.8-3.7-15.1-4.8-22.4c-0.3-2.2,1.4-4.7,2.2-7.2c7.7,4.8,8.8,24.7,2.4,37.9c-0.2-1.7-0.3-3.3-0.5-4.9
	c-0.3-0.1-0.6-0.2-0.9-0.3c-1.7,3-3.4,5.9-5.1,8.9c0.4-1.3,0.9-2.5,1.2-3.8c1-4.8-0.3-7-5.1-7.6c-2.2-0.3-4.7-0.3-6.9,0.1
	c-4.4,1-5.8,4-4.4,8.3C-310.7-279.7-307.7-278.3-299.9-278.7z"/>
<path d="M-431-309.5c1.4-4.8,2.8-9.5,4.3-14.3c1.6-5.2,5.1-9,10-10.4c6.3-1.8,12.9-2.6,19.5-3.3c4.6-0.5,9.3-0.1,14.6-0.1
	c-0.9,3.1-1.6,5.5-2.3,7.9c0.3,0.2,0.6,0.3,0.9,0.5c1.8-2.5,3.6-4.9,5.9-8.2c0.6,3,1,5.5,1.5,7.9c1,0.2,2.8,0.1,3.3,0.8
	c9.7,13.6,11.1,30.7,4.4,45.9c-1.6-9.7-3.3-20.4-5.1-31.4c-5.4,1.2-10.1,2.2-14.9,3.2c0-0.7,0-1.5,0-2.3c-0.3,0-0.7-0.1-0.9,0
	c-3.7,2.8-7.3,3.6-12,1.8c-4.6-1.7-9.7-2.4-14.6-3.1c-1.5-0.2-3.3,1-5.6,1.8c-1.5,9.7-3.1,19.9-4.7,29.9c-1.2-3.8-2.7-8.3-4.1-12.8
	C-431-300.2-431-304.8-431-309.5z"/>
<path d="M-340.1-254.1c-0.7,1.5-1,2-1.3,2.6c-3.9-5.2-4-10.7-0.1-26.8c2.9,5,5.3,8.9,8.2,13.9c5.3,0.6,9.2-6.4,16.7-6.5
	c7.6,0,11.6,6.2,17.2,6.4c2.6-4.7,4.9-8.7,7.2-12.8c2.2,8.9,5.4,17.3,0.7,26.3c-0.6-0.9-1.1-1.5-1.5-2.2c-0.2,0.2-0.5,0.4-0.5,0.6
	c-0.1,0.7,0,1.3-0.1,2c-0.5,6.2-8.2,16-14.2,17.7c-3,0.9-6.1,1.6-10,2.6c-0.9-0.7-1.3-5.4-5.1-2.2c-0.2,0.2-1.2-0.4-1.8-0.7
	C-334.3-238.6-340-241.3-340.1-254.1z M-327.4-259.4c1.3,5.1,3,5.6,7.7,3.6c1.9-0.8,4.7-0.7,6.7,0.1c4.8,1.9,6.4,1.3,7.5-3.7
	c2.2-0.3,4.4-0.7,6.6-1c-6.1-1.2-11.8-2.4-17.4-3.5c-5.3,1.1-10.9,2.3-16.2,3.4c-0.1-0.2,0,0.2,0.3,0.3
	C-330.6-260-329-259.7-327.4-259.4z"/>
<path class="st3" d="M403.8,56.2c1.5-2.1,2.9-4.1,4.4-6.2c-1.8,7.5,3.7,8.4,8.8,10.3c3.1,1.2,6.1,3.2,8.4,5.6
	c8.5,8.7,6.5,17-6.4,25.2c0.9-2.4,1.5-4.2,2.8-7.7c-19,15.7-37.1,13-56.2,0.3c1.4,3,2.3,5,3.3,7.3c-10.1-3.4-13.2-10-9.1-18.9
	c3.7-8.2,10.9-11.8,19.1-14c2.6-0.7,5.2-1.1,7.8-1.7c-6.6-10.6-6.9-17.4-1.1-22.8c4.6-4.3,12.8-5,17.7-1.4c6.2,4.5,6,9.9-0.7,22.8
	C402.9,55.5,403.4,55.8,403.8,56.2z"/>
<path d="M-248.8-131.5c10.3-9.3,16.7-9.3,28.1,0c3.6-5,7.1-9.9,10.3-14.3c4.1,12.5-0.5,24.3-7.6,35.2c-2.3,3.5-6.5,6.5-10.4,7.8
	c-4.2,1.3-9.4,1.3-13.5-0.2c-3.9-1.4-7.9-4.7-10.2-8.2c-6.7-10.6-11.1-22-7.2-34.3C-256.2-141.3-252.6-136.5-248.8-131.5z
	 M-243.9-123.5c1.1-0.3,1.8-0.2,2-0.5c4.6-5.2,9-5.3,13.8-0.2c0.6,0.6,3.2-0.7,4.8-1.1c-0.7-1.5-1.1-3.5-2.2-4.3
	c-6.4-4.5-13.2-4.4-19.3,0.2c-1,0.8-2.1,2.5-1.9,3.5C-246.4-124.8-244.6-124.1-243.9-123.5z"/>
<path d="M-351.6-199.2c2.4-6.5,4.5-8.1,14.7-11.4c-2.5-0.4-4.1-0.6-5.8-0.9c10-8.3,20.1-8.2,35.1,0.5c-1.3-1.7-2.1-2.8-3.4-4.6
	c5.9,1.9,9.8,5,12.5,9.6c4.1,7.1,2.1,11.9-5.7,15c-1.4,0.6-2.3,2.4-3.6,3.3c-1.3,1-2.8,1.6-4.7,2.6c-0.3-1.7-0.5-2.9-0.6-4
	c-2,2.2-4.1,4.5-6.6,7.3c-1.4-3.9-2-7.2-3.6-9.9c-2.2-3.7-3.8-8-10-7.2c-4.6,0.6-9.4-0.9-14.1-1.3
	C-348.9-200.2-350.2-199.6-351.6-199.2z"/>
<path d="M-201.1-295.7c-0.1-0.2-0.3-0.4-0.5-0.6c-0.8-1.5-1.5-3-2.3-4.4c-7.6-13.9-12.6-16.2-28.4-13.2c-1.5,0.3-3.2-0.1-4.8-0.4
	c-4.6-0.7-9.1-1.4-14.1-2.2c-4.1-8.5-1-16.6,8.6-18.7c5.9-1.3,12.1-0.9,18.1-1.3c0.1,0.5,0.2,1.1,0.2,1.6c-1,0.4-2.1,0.8-3.6,1.3
	c0.9,0.2,1.3,0.4,1.7,0.4c6,0.5,12,1.6,15,7.3c3.4,6.5,5.9,13.5,8.6,20.4c1.3,3.4,2.1,7,3.2,10.7
	C-200-295.1-200.5-295.4-201.1-295.7z"/>
<path d="M-271.4-251.8c0.9-1.9,1.7-3.8,2.6-5.6c-0.2-0.2-0.4-0.3-0.7-0.5c-0.9,0.7-1.8,1.5-2.6,2.1c-2.2-0.3-3.7-9.5-1.9-14.1
	c1.8-4.6,4.4-8.8,7.2-14.2c-1.6,0.8-2.3,1.1-3.7,1.8c1.5-10.8,2.7-21.3,4.7-31.6c1.1-5.5,3.8-10.6,9.9-12.7c3.8,8.7,4,16.4-4.6,22.5
	c0.7-0.2,1.5-0.5,2.7-0.9c-0.6,6.9-1.1,13.6-1.7,20.3c-0.4,0-0.8,0-1.2-0.1c-0.5-2.6-0.7-5.2-1.5-7.7c-0.4-1.1-2.1-1.8-3.1-2.6
	c-0.6,1.1-1.9,2.3-1.7,3.2c1.3,4.5,2.9,8.9,4.5,13.3c0.3,1,1.3,1.9,1.2,2.8c-0.4,5.6-0.9,11.3-1.7,16.9
	C-263.8-253.5-266.1-251.8-271.4-251.8z"/>
<path d="M-346-140.8c4.4,7.2,8.4,14.4,13,21.2c1.7,2.4,4.6,4.2,7.3,5.6c1,0.6,3-0.5,4.5-0.8c-0.4-1.7-0.5-3.6-1.4-4.9
	c-1.1-1.5-2.9-2.4-4.7-3.8c6.1,0,11.6,0,17.2,0c-0.3,0.4-0.8,1.2-1.5,1.9c-0.7,0.7-2,0.9-2.4,1.7c-0.8,1.5-1.2,3.2-1.7,4.8
	c1.6,0.4,3.8,1.6,4.8,1c2.9-1.8,5.9-3.9,7.7-6.7c4.6-6.8,8.5-14,12.4-20.6c0.5,13.3-6.4,23.5-16.5,32.1c-4.6,3.9-16.6,4.3-21.4,0.6
	C-339.1-116.9-346.3-127.1-346-140.8z"/>
<path d="M-330.5-159.9c-2.7-0.3-5.4-0.7-7.9-1c3.4-2.7,10.8-2,13.9,1.4c3.9,4.3,8.5,4.2,12.4-0.1c2.9-3.2,9.8-3.9,14-1.4
	c-2.7,0.4-5.5,0.8-8.3,1.2c0,0.3,0.1,0.7,0.1,1c4.1,0.2,8.1,0.3,12.2,0.7c2.8,0.3,4.6,1.5,2,4.5c-0.6,0.7-0.9,1.8-1.2,2.7
	c-2.5,7.4-3.4,8.2-10.3,8.3c-7.2,0.2-8.9-1-11.6-7.6c-0.6-1.3-1.9-2.4-2.9-3.5c-1,1.1-2.4,2.1-2.9,3.4c-3,7.4-11.7,10.6-18.3,6.1
	c-1.9-1.3-2.6-4.4-3.6-6.7c-0.9-2-1.5-4.1-2.2-6.2c2.7-0.5,5.4-1.2,8.2-1.5c2.1-0.2,4.3,0,6.5,0C-330.6-159-330.6-159.5-330.5-159.9
	z M-304.8-142.9c6.9-0.8,10-3.6,9.9-9.9c-0.2-6.6-5.5-4-8.9-4.7c-1.1-0.2-2.4-0.3-3.5,0.1c-2.4,0.8-6.4,1.4-6.7,2.8
	c-0.6,2.5,0.4,6.1,2,8.2C-310.5-144.6-307.3-144-304.8-142.9z M-332.4-157.5v-0.1c-1.7,0.1-3.3,0.1-5,0.3c-3.9,0.3-4.9,2.3-4.4,6.1
	c1.1,6.9,5.1,8.7,13.5,7.1c3.6-0.7,7.3-6.1,5.9-9.5c-0.8-1.9-4.2-2.7-6.6-3.7C-329.9-157.8-331.2-157.5-332.4-157.5z"/>
<path d="M-289.2-152.9c-0.8-8.4-1.7-16.5-2.4-24.5c-0.5-5.5-1.9-10.4-7.2-13.4c2-2.3,3.7-4.2,6-6.9c1.8,2.1,4.1,3.8,5,6
	C-282.8-178.7-284.4-165.9-289.2-152.9z"/>
<path d="M-344.9-191.5c-2.9-0.3-5.8-0.6-8.6-0.9c0.6-3.7,3.2-5.8,9.4-6.5c9-0.9,17.9,4.4,20.8,12.2c-8.2,2.7-14.7-2.3-21.8-5.1
	C-345.1-191.6-344.9-191.5-344.9-191.5z"/>
<path d="M-345.1-191.6c1.8,2.3,1.7,4.6,1.2,7.6c-1.7,10.1-2.7,20.3-4,30.7c-3.3-9.4-5.3-19-3.7-29.1c0.2-1.5,0.5-2.9,0.7-4.4
	c0.5-3.5,2.2-5.5,6-4.6C-344.9-191.5-345.1-191.6-345.1-191.6z"/>
<path d="M-385.4-240.7c-2.6,6.6-8.1,7.3-14,7.1c-5.2-0.2-9.3-1.9-11.3-7.3c3,2.8,6.3,4,9.3,0.9c3.6-3.8,0.2-6.3-3.6-9
	c5,0,8.9,0,13.9,0c-3.7,2.6-7.2,5-3.6,8.9C-391.7-237.1-388.4-237.8-385.4-240.7z"/>
<path class="st3" d="M430,123.2c-1.4-10.1-3.4-20.2-4-30.3c-0.2-3.5,3.1-7.1,5.3-11.7C436.6,93.9,435.9,107.2,430,123.2z"/>
<path d="M-303.6-129.1c-9.9,0-19.9,0-29.3,0C-328.3-136.4-311-136.8-303.6-129.1z"/>
<path class="st3" d="M355.7,83.8c5.7,4.1,7.6,8.7,5.8,15.7c-1.9,7.3-0.7,15-1.9,24.5C355.1,109.5,351.1,97,355.7,83.8z"/>
<path d="M-413.3-252.5c3.3-5.7,8.3-6.7,13.3-7c6.4-0.4,12.7,0.3,17.6,7.1C-393-256-402.5-256.1-413.3-252.5z"/>
<path d="M-402.5-285.8c-5.9-0.7-11-1.3-15.9-1.8C-415.1-290.7-407.5-290.2-402.5-285.8z"/>
<path d="M-377.4-287.7c-5.2,0.6-10.2,1.2-15.3,1.8C-389.7-289.9-381.6-290.7-377.4-287.7z"/>
<path d="M-240.2-158.8c-4.5-1.1-8.7-2.2-12.7-3.2C-248.8-164.4-242.9-163.2-240.2-158.8z"/>
<path d="M-217-162c-4,1-8.2,2-12.6,3.1C-227.1-163.1-221.2-164.4-217-162z"/>
<path d="M-230.6-293.1c4.3-0.8,8.7-1.6,13-2.3c0.1,0.5,0.2,1,0.3,1.6c-4.3,0.9-8.6,1.8-13,2.7C-230.3-291.8-230.4-292.4-230.6-293.1
	z"/>
<path d="M-251.3-295.6c4.3,0.9,8.5,1.7,12.8,2.6c-0.1,0.6-0.3,1.2-0.4,1.9c-4.3-0.9-8.6-1.8-12.8-2.7
	C-251.5-294.4-251.4-295-251.3-295.6z"/>
<path d="M-404.6-169.8c-4.2-1.4-8.4-2.8-12.2-4.1c1.9-1.8,10.8-2.2,12.6,0.3C-403.7-172.8-404.5-171.1-404.6-169.8
	C-404.7-169.8-404.6-169.8-404.6-169.8z"/>
<path d="M-391.4-169.8c-1.6-2.7-1.1-4.5,2.2-4.8c3.7-0.4,7.7-2.5,10.8,0.6C-382.7-172.6-387-171.2-391.4-169.8L-391.4-169.8z"/>
<path d="M-391.4-169.8c-1.2,2.3-2.3,4.6-3.2,6.3c0,0.1-0.2-1.3-0.9-2.4c-0.7-1.2-1.8-2.2-2.8-3.3c-0.8,1.1-1.6,2.2-2.2,3.3
	c-0.4,0.7-0.5,1.5-0.6,1.6c-1.1-1.7-2.3-3.6-3.6-5.4v0.1C-400.2-169.8-395.8-169.8-391.4-169.8L-391.4-169.8z"/>
<path class="st4" d="M403,56.6h-17.4c-0.7,0-1.3-0.6-1.3-1.3l0,0c0-0.7,0.6-1.3,1.3-1.3H403c0.7,0,1.3,0.6,1.3,1.3l0,0
	C404.2,56,403.7,56.6,403,56.6z"/>
<path class="st5" d="M402.9,54.4h-17.4c-0.7,0-1.3-0.6-1.3-1.3l0,0c0-0.7,0.6-1.3,1.3-1.3h17.4c0.7,0,1.3,0.6,1.3,1.3l0,0
	C404.2,53.8,403.6,54.4,402.9,54.4z"/>
</svg>
