<?xml version="1.0" encoding="utf-8"?>
<!-- Generator: Adobe Illustrator 26.0.3, SVG Export Plug-In . SVG Version: 6.00 Build 0)  -->
<svg version="1.1" id="Layer_1" xmlns="http://www.w3.org/2000/svg" xmlns:xlink="http://www.w3.org/1999/xlink" x="0px" y="0px"
	 viewBox="0 0 188 167.8" style="enable-background:new 0 0 188 167.8;" xml:space="preserve">
<style type="text/css">
	.st0{fill:#CA9072;}
	.st1{fill:#AF7C66;}
	.st2{fill:#A0725D;}
	.st3{fill:#63402B;}
	.st4{fill:#543526;}
	.st5{fill:#277A9B;}
	.st6{fill:#22677C;}
</style>
<g>
	<path class="st0" d="M57.2,101.7l-2.4-1.6c-1.6-1-3.7-0.9-5.1,0.3l-0.6,0.5c-1,0.9-1.6,2.2-1.5,3.5l0.8,10.9c0.1,0.7,0.3,1.4,0.7,2
		c1.4,2.2,4.9,7.6,5.4,8.3c0.1,0.2,0.3,0.3,0.6,0.5c2.4,1.2,5.3-0.3,5.9-2.9l2.2-9.2c0.2-1,0.1-2-0.4-2.9l-4.1-7.9
		C58.3,102.7,57.8,102.1,57.2,101.7z"/>
	<path class="st0" d="M127.6,101.7l3-1.7c1.7-1,3.9-0.6,5.2,0.8l0.1,0.2c0.8,0.9,1.2,2,1.1,3.1l-0.8,11.2c-0.1,0.7-0.3,1.4-0.7,2
		c-1.4,2.2-4.9,7.6-5.4,8.3c-0.1,0.2-0.3,0.3-0.6,0.5c-2.4,1.2-5.3-0.3-5.9-2.9l-2.2-9.2c-0.2-1-0.1-2,0.4-2.9l4-7.7
		C126.3,102.7,126.9,102.1,127.6,101.7z"/>
	<path class="st0" d="M129.7,80.5c-1.4-6.8-5-12.9-10.4-17.2l-4.2-3.5c-4.8-3.9-10.8-6.3-17-6.7l-5.6-0.3h-0.1l-5.6,0.3
		c-6.2,0.4-12.2,2.7-17,6.7l-4.3,3.5c-5.3,4.4-9,10.4-10.4,17.2c-0.5,2.5-0.9,4.5-0.9,4.6c0,0.5,2.7,14.8,2.7,14.8v8l0.2,1.1
		l3.7,25.3c0.4,2.7,1.6,5.2,3.4,7.3c0,0,12.2,11.4,16.5,14.9c1.6,1.3,10.6,2.8,11.6,3l0,0h0.1l0.9-0.2l0.6-0.1
		c2.9-0.5,8.8-1.7,10.1-2.8c4.4-3.4,16.5-14.9,16.5-14.9c1.8-2,3-4.6,3.4-7.3l3.7-25.5l0.1-0.9v-8c0,0,2.7-14.3,2.7-14.8
		C130.6,84.9,130.2,82.9,129.7,80.5z"/>
	<path class="st1" d="M125.9,120.7l1.9-13.2c0,0,4.7-4.7,5.1-4.8s0.6,2,0.6,2l-1.1,9.4l-2.7,4.7L125.9,120.7z"/>
	<path class="st1" d="M59,121.7l-1.9-13.2c0,0-4.7-4.7-5.1-4.8s-0.6,2-0.6,2l1.1,9.4l2.7,4.7L59,121.7z"/>
	<g>
		<path class="st1" d="M101.4,122.6c2-0.8-0.5-3,1.3-3.9c2.5,4.9,1.5,6.1-4.9,6.1C97.8,122.2,99.9,122.9,101.4,122.6z"/>
		<path class="st2" d="M101.4,122.6c-1.2,0.8-2.4,1.5-3.6,2.3c-0.4,0.1-0.7,0.1-1.1,0.1c-1.2,0.4-1.5-0.1-1.2-1.2
			C97.3,122.2,98.9,120.1,101.4,122.6z"/>
		<path class="st1" d="M83.8,122.6c-2-0.8,0.5-3-1.3-3.9c-2.5,4.9-1.5,6.1,4.9,6.1C87.5,122.1,85.3,122.9,83.8,122.6z"/>
		<path class="st2" d="M83.8,122.6c1.2,0.8,2.4,1.5,3.6,2.3c0.4,0.1,0.7,0.1,1.1,0.1c1.2,0.4,1.5-0.1,1.2-1.2
			C88,122.2,86.4,120.1,83.8,122.6z"/>
		<path class="st1" d="M88.5,125c0.4-0.4,0.8-0.9,1.2-1.2c2,1.1,3.8,1.4,5.8,0c0.4,0.4,0.8,0.8,1.2,1.2
			C94,126.7,91.3,126.8,88.5,125z"/>
	</g>
</g>
<path class="st0" d="M68.9,43.5l-1.2,0.2c-1.7,0.3-3.4,0.9-4.9,1.7l-0.9,0.5c-1.6,0.9-2.4,2.7-2,4.4l2.7,12.8
	c0.7,3.1,4.4,4.3,6.7,2.1l7.6-7c1.4-1.3,1.7-3.4,0.7-5L73,45.5C72.2,44,70.6,43.2,68.9,43.5z"/>
<path class="st3" d="M54.2,96.1c2.8,4.8,1.6,5,4.2,10.3c0.2,0.4,0.9,0.3,0.9-0.2c0.8-9.7,2-20.5,2.9-30.4c0.1-0.8-1.1-4.4-1.9-4.2
	l-1.5,2.6c12-8.5,13.4-19.4,8.2-31.6c-14.3,5.1-17.4,19.9-19.4,32.6c-0.3,2.2,1.5,10,3.2,14.1l0.9,2C52.4,92.9,53.3,94.5,54.2,96.1z
	"/>
<path class="st4" d="M134,83.8l6.7,4.1l-10.5-21.3l-16-11.7l-5,4.3c0,0,6.9,0.4,11.4,5.1S134,83.8,134,83.8z"/>
<path class="st3" d="M133.6,89c-4.6,4-4.6,12.9-7.3,18.5c-0.2,0.4-0.8,0.3-0.8-0.1c-1.7-12.2,4.6-23.7-8.1-45.4
	c4.6,1.2,14.7,11.3,19.4,22.6l-0.4,0.8C135.9,86.8,134.8,88,133.6,89z"/>
<path class="st3" d="M139.1,87c-21.9-43.6-29-18.3-69.6-28.9c-0.2,0-0.3-0.2-0.4-0.3C57.8,31.1,76,28.9,106.7,30.1
	c1.2,0,1.5,1.7,0.4,2.2l-3.3,1.2c-0.5,0.2-0.5,1,0.1,1.1c8.4,1.3,17,2,21.4,10.5c6.8,13.7,12.2,27.5,16.3,42.3
	c0.1,0.5-0.4,0.9-0.8,0.7l-1.3-0.7C139.2,87.2,139.1,87.1,139.1,87z"/>
<g>
	<path class="st5" d="M132.8,59.4c-1.1,4.1-0.6,8.7-2.1,13c-0.7,1.8-2,2.3-4.2,2.2c-2.6-0.2-5.2-1-7.7-1.7
		c-3.5-0.9-7.1-1.8-10.6-2.8c-9.8-2.9-19.3-2.4-29.2-0.3c-6.7,1.6-13.3,3.4-20.2,4.4c-5.4,0.9-6.3,0.4-7.5-3.8c-0.3-1-0.4-2-0.7-3
		c-0.5-3-0.4-6.2-1.4-9.2L65.7,56c17.2-2.2,34.8-2,51.9,0.8L132.8,59.4z"/>
	<path class="st6" d="M132.7,60.5c0.2-0.9,0.4-1.8,0.9-2.5c-0.9-9.1-3-17.5-6.6-25.6c-2.3-5.3-6.6-8.6-12.5-10.7
		c-2.8-1-5.8-1.7-8.7-2.3c-4.4-1-9.2-0.4-13.4-2.3c-1-0.5-2.2-0.2-2.9,0.4c-1.2,0.9-2.4,0.9-3.8,1c-4.7,0.2-9.2,1.1-13.6,2.2
		c-7.6,2.1-13.7,5.8-16.3,12.8c-2.1,5.4-3.9,10.8-5,16.5c-0.5,3.2-2.1,6.4-1,9.6l14.8-2.1c18.6-2.5,37.4-2.1,55.9,1L132.7,60.5z"/>
</g>
</svg>
