<?xml version="1.0" encoding="utf-8"?>
<!-- Generator: Adobe Illustrator 26.0.3, SVG Export Plug-In . SVG Version: 6.00 Build 0)  -->
<svg version="1.1" id="Layer_1" xmlns="http://www.w3.org/2000/svg" xmlns:xlink="http://www.w3.org/1999/xlink" x="0px" y="0px"
	 viewBox="0 0 188 167.8" style="enable-background:new 0 0 188 167.8;" xml:space="preserve">
<style type="text/css">
	.st0{fill:#CA9072;}
	.st1{fill:#AF7C66;}
	.st2{fill:#A0725D;}
	.st3{fill:none;stroke:#2E858E;stroke-width:3;stroke-miterlimit:10;}
	.st4{fill:#63402B;}
	.st5{fill:#2E858E;}
</style>
<g>
	<path class="st0" d="M63.3,97.7l-2.4-1.6c-1.6-1-3.7-0.9-5.1,0.3l-0.6,0.5c-1,0.9-1.6,2.2-1.5,3.5l0.8,10.9c0.1,0.7,0.3,1.4,0.7,2
		c1.4,2.2,4.9,7.6,5.4,8.3c0.1,0.2,0.3,0.3,0.6,0.5c2.4,1.2,5.3-0.3,5.9-2.9l2.2-9.2c0.2-1,0.1-2-0.4-2.9l-4.1-7.9
		C64.4,98.7,63.9,98.1,63.3,97.7z"/>
	<path class="st0" d="M133.7,97.7l3-1.7c1.7-1,3.9-0.6,5.2,0.8L142,97c0.8,0.9,1.2,2,1.1,3.1l-0.8,11.2c-0.1,0.7-0.3,1.4-0.7,2
		c-1.4,2.2-4.9,7.6-5.4,8.3c-0.1,0.2-0.3,0.3-0.6,0.5c-2.4,1.2-5.3-0.3-5.9-2.9l-2.2-9.2c-0.2-1-0.1-2,0.4-2.9l4-7.7
		C132.4,98.7,133,98.1,133.7,97.7z"/>
	<path class="st0" d="M135.8,76.5c-1.4-6.8-5-12.9-10.4-17.2l-4.2-3.5c-4.8-3.9-10.8-6.3-17-6.7l-5.6-0.3h-0.1l-5.6,0.3
		c-6.2,0.4-12.2,2.7-17,6.7l-4.3,3.5c-5.3,4.4-9,10.4-10.4,17.2c-0.5,2.5-0.9,4.5-0.9,4.6c0,0.5,2.7,14.8,2.7,14.8v8l0.2,1.1
		l3.7,25.3c0.4,2.7,1.6,5.2,3.4,7.3c0,0,12.2,11.4,16.5,14.9c1.6,1.3,10.6,2.8,11.6,3l0,0h0.1l0.9-0.2l0.6-0.1
		c2.9-0.5,8.8-1.7,10.1-2.8c4.4-3.4,16.5-14.9,16.5-14.9c1.8-2,3-4.6,3.4-7.3l3.7-25.5l0.1-0.9v-8c0,0,2.7-14.3,2.7-14.8
		C136.7,80.9,136.3,78.9,135.8,76.5z"/>
	<path class="st1" d="M132,116.7l1.9-13.2c0,0,4.7-4.7,5.1-4.8s0.6,2,0.6,2l-1.1,9.4l-2.7,4.7L132,116.7z"/>
	<path class="st1" d="M65.1,117.7l-1.9-13.2c0,0-4.7-4.7-5.1-4.8s-0.6,2-0.6,2l1.1,9.4l2.7,4.7L65.1,117.7z"/>
	<g>
		<path class="st1" d="M107.5,118.6c2-0.8-0.5-3,1.3-3.9c2.5,4.9,1.5,6.1-4.9,6.1C103.9,118.1,106,118.8,107.5,118.6z"/>
		<path class="st2" d="M107.5,118.6c-1.2,0.8-2.4,1.5-3.6,2.3c-0.4,0.1-0.7,0.1-1.1,0.1c-1.2,0.4-1.5-0.1-1.2-1.2
			C103.3,118.2,105,116.1,107.5,118.6z"/>
		<path class="st1" d="M89.9,118.5c-2-0.8,0.5-3-1.3-3.9c-2.5,4.9-1.5,6.1,4.9,6.1C93.5,118.1,91.4,118.8,89.9,118.5z"/>
		<path class="st2" d="M89.9,118.5c1.2,0.8,2.4,1.5,3.6,2.3c0.4,0.1,0.7,0.1,1.1,0.1c1.2,0.4,1.5-0.1,1.2-1.2
			C94.1,118.2,92.4,116.1,89.9,118.5z"/>
		<path class="st1" d="M94.6,121c0.4-0.4,0.8-0.9,1.2-1.2c2,1.1,3.8,1.4,5.8,0c0.4,0.4,0.8,0.8,1.2,1.2
			C100.1,122.7,97.3,122.8,94.6,121z"/>
	</g>
</g>
<path class="st3" d="M49.2,91.9c-1-3.1-1.5-6.4-1.5-9.7c0-21.7,22.4-39.4,50-39.4s50,17.6,50,39.4c0,3.5-0.6,6.8-1.7,10.1"/>
<path class="st0" d="M68,50.4L59.9,64c-1,1.7-1.2,3.6-0.7,5.5l1.9,6.6c0.8,2.9,3.4,4.9,6.4,5l5.5,0.2c3.9,0.2,7.1-2.8,7.2-6.7
	l0.7-20.3c0.2-4.7-4.2-8.2-8.8-7l0,0C70.5,47.7,69,48.9,68,50.4z"/>
<path class="st4" d="M53.1,70.3c0-3.5,0.5-7,1.5-10.3c1.4-4.6,2.8-9.2,4.2-13.8c2.1-6.8,6.7-11.9,13.2-13.7
	c8.4-2.3,17.1-3.5,25.8-4.4c4.9-0.5,9.8-0.3,15.2-0.2c2,0,3.5,2,2.9,4c-0.7,2.4-1.3,4.4-1.9,6.5c0.7,0.3,6.9-7.4,6.9-7.4
	c0.7-1,2.4-0.7,2.6,0.6l1,5.3c0.2,1.1,1.1,1.9,2.1,2c1.1,0.1,2.1,0.3,2.6,0.9c19.6,26.1,11.9,41.1,3,61.3c-1.7-10.7-1.7-22.6-3-34.7
	c-0.4-3.9-4.2-6.6-8.1-5.8l-11,2.4c-0.8,0.2-1.6-0.4-1.6-1.3v-1.4c-0.4,0-1-0.2-1.2,0c-4.9,3.7-9.7,4.8-15.9,2.4
	c-6.1-2.3-12.8-3.1-19.4-4.1c-0.6-0.1-1.2,0-1.8,0.2c-3.5,0.9-5.9,4-6.2,7.6c-0.8,11.2,0.9,22.8-0.9,34.1c-1.1-3.4-4.4-7.1-7-11
	c-2.1-3-3.1-6.6-3.1-10.2L53.1,70.3L53.1,70.3z"/>
<g>
	<path class="st5" d="M63.2,123.9l-1.7,0.4c-1.8,0.4-3.6-0.8-3.9-2.6l-5.4-26.5c-0.4-1.8,0.8-3.6,2.6-3.9l1.7-0.4
		c1.8-0.4,3.6,0.8,3.9,2.6l5.4,26.5C66.2,121.7,65,123.5,63.2,123.9z"/>
	<path class="st5" d="M57.2,122.1l-3.5,0.7c-1.8,0.4-3.6-0.8-3.9-2.6l-4.2-20.5c-0.4-1.8,0.8-3.6,2.6-3.9l3.5-0.7L57.2,122.1z"/>
	<path class="st5" d="M47.2,90l2.1-1.2c0.5-0.3,1.1,0,1.2,0.5l1.5,7.3c0.1,0.4-0.2,0.8-0.5,0.9l0,0c-0.4,0.1-0.7,0-0.9-0.4L47,91
		C46.7,90.8,46.8,90.3,47.2,90z"/>
</g>
<g>
	<path class="st5" d="M132.2,123.9l1.7,0.4c1.8,0.4,3.6-0.8,3.9-2.6l5.4-26.5c0.4-1.8-0.8-3.6-2.6-3.9l-1.7-0.4
		c-1.8-0.4-3.6,0.8-3.9,2.6l-5.4,26.5C129.2,121.7,130.4,123.5,132.2,123.9z"/>
	<path class="st5" d="M138.2,122.1l3.5,0.7c1.8,0.4,3.6-0.8,3.9-2.6l4.2-20.5c0.4-1.8-0.8-3.6-2.6-3.9l-3.5-0.7L138.2,122.1z"/>
	<path class="st5" d="M148.2,90l-2.1-1.2c-0.5-0.3-1.1,0-1.2,0.5l-1.5,7.3c-0.1,0.4,0.2,0.8,0.5,0.9l0,0c0.4,0.1,0.7,0,0.9-0.4
		l3.6-6.1C148.7,90.8,148.6,90.3,148.2,90z"/>
</g>
<path class="st3" d="M60.7,123.3l-14.8,11.8c-2.5,2-2,5.9,0.9,7.2l10.1,4.4"/>
<circle class="st5" cx="60.7" cy="146.7" r="5.8"/>
</svg>
