<?xml version="1.0" encoding="utf-8"?>
<!-- Generator: Adobe Illustrator 26.0.3, SVG Export Plug-In . SVG Version: 6.00 Build 0)  -->
<svg version="1.1" id="Layer_1" xmlns="http://www.w3.org/2000/svg" xmlns:xlink="http://www.w3.org/1999/xlink" x="0px" y="0px"
	 viewBox="0 0 788 1005" style="enable-background:new 0 0 788 1005;" xml:space="preserve">
<style type="text/css">
	.st0{fill:#CA9072;}
	.st1{fill:#AF7C66;}
	.st2{fill:#63402B;}
	.st3{fill:#A0725D;}
</style>
<circle class="st0" cx="420.5" cy="89.5" r="14.1"/>
<path class="st0" d="M359.6,121.3l-2.4-1.6c-1.6-1-3.7-0.9-5.1,0.3l-0.6,0.5c-1,0.9-1.6,2.2-1.5,3.5l0.8,10.9c0.1,0.7,0.3,1.4,0.7,2
	c1.4,2.2,4.9,7.6,5.4,8.3c0.1,0.2,0.3,0.3,0.6,0.5c2.4,1.2,5.3-0.3,5.9-2.9l2.2-9.2c0.2-1,0.1-2-0.4-2.9l-4.1-7.9
	C360.7,122.3,360.2,121.7,359.6,121.3z"/>
<path class="st0" d="M430,121.3l3-1.7c1.7-1,3.9-0.6,5.2,0.8l0.1,0.2c0.8,0.9,1.2,2,1.1,3.1l-0.8,11.2c-0.1,0.7-0.3,1.4-0.7,2
	c-1.4,2.2-4.9,7.6-5.4,8.3c-0.1,0.2-0.3,0.3-0.6,0.5c-2.4,1.2-5.3-0.3-5.9-2.9l-2.2-9.2c-0.2-1-0.1-2,0.4-2.9l4-7.7
	C428.7,122.3,429.3,121.7,430,121.3z"/>
<path class="st0" d="M432.1,100.1c-1.4-6.8-5-12.9-10.4-17.2l-4.2-3.5c-4.8-3.9-10.8-6.3-17-6.7l-5.6-0.3h-0.1l-5.6,0.3
	c-6.2,0.4-12.2,2.7-17,6.7l-4.3,3.5c-5.3,4.4-9,10.4-10.4,17.2c-0.5,2.5-0.9,4.5-0.9,4.6c0,0.5,2.7,14.8,2.7,14.8v8l0.2,1.1
	l3.7,25.3c0.4,2.7,1.6,5.2,3.4,7.3c0,0,12.2,11.4,16.5,14.9c1.6,1.3,10.6,2.8,11.6,3l0,0h0.1l0.9-0.2l0.6-0.1
	c2.9-0.5,8.8-1.7,10.1-2.8c4.4-3.4,16.5-14.9,16.5-14.9c1.8-2,3-4.6,3.4-7.3l3.7-25.5l0.1-0.9v-8c0,0,2.7-14.3,2.7-14.8
	C433,104.5,432.6,102.5,432.1,100.1z"/>
<path class="st1" d="M428.3,140.3l1.9-13.2c0,0,4.7-4.7,5.1-4.8s0.6,2,0.6,2l-1.1,9.4l-2.7,4.7L428.3,140.3z"/>
<path class="st1" d="M361.4,141.3l-1.9-13.2c0,0-4.7-4.7-5.1-4.8s-0.6,2-0.6,2l1.1,9.4l2.7,4.7L361.4,141.3z"/>
<path class="st2" d="M368,63.4c-0.2,0.2-0.5,0.3-0.8,0.3c-2.1-0.2-10.2,0-13.5,11.5c-3.8,13-2.9,28.4-2.9,28.8l0,0
	c0.1,0.4,4.6,13,8.3,20.5c0.2,0.5,0.9,0.2,0.8-0.3c-0.7-4.2-1.7-12.1-0.4-14.6c1.8-3.3,3.4-3.4,3.9-6.3c0.5-2.8-1.4-7.2,1.3-11
	c2.7-3.8,7.5-7.4,10.9-7.4s12.9,9.3,26.3,9.7c13.4,0.4,34.4-11.5,34.4-19.4c0-4.9-1.3-8.1-2.3-9.8c-0.4-0.7-1.4-0.6-1.7,0.1
	c-0.9,2-2.9,5.2-6,5.4c-4.6,0.3-17.6-14.9-35.9-14.4C374.7,57.1,369.3,62,368,63.4z"/>
<path class="st2" d="M426.6,91.1c1.3-1,4.8-3.6,7-5.9c0.8-0.8,2-0.3,2.1,0.9c0.5,6.8-1.3,22.4-5.6,37.4c-0.1,0.5-0.9,0.3-0.8-0.2
	c0.8-5.2,1.6-12.3-0.2-15.5c-2.8-5-3-3.3-3.1-15.6C426,91.8,426.2,91.3,426.6,91.1z"/>
<g>
	<path class="st1" d="M403.8,142.2c2-0.8-0.5-3,1.3-3.9c2.5,4.9,1.5,6.1-4.9,6.1C400.2,141.8,402.3,142.5,403.8,142.2z"/>
	<path class="st3" d="M403.8,142.2c-1.2,0.8-2.4,1.5-3.6,2.3c-0.4,0.1-0.7,0.1-1.1,0.1c-1.2,0.4-1.5-0.1-1.2-1.2
		C399.6,141.8,401.3,139.7,403.8,142.2z"/>
	<path class="st1" d="M386.2,142.1c-2-0.8,0.5-3-1.3-3.9c-2.5,4.9-1.5,6.1,4.9,6.1C389.8,141.7,387.7,142.4,386.2,142.1z"/>
	<path class="st3" d="M386.2,142.1c1.2,0.8,2.4,1.5,3.6,2.3c0.4,0.1,0.7,0.1,1.1,0.1c1.2,0.4,1.5-0.1,1.2-1.2
		C390.4,141.8,388.7,139.7,386.2,142.1z"/>
	<path class="st1" d="M390.9,144.6c0.4-0.4,0.8-0.9,1.2-1.2c2,1.1,3.8,1.4,5.8,0c0.4,0.4,0.8,0.8,1.2,1.2
		C396.4,146.3,393.6,146.4,390.9,144.6z"/>
</g>
</svg>
