<svg xmlns="http://www.w3.org/2000/svg" xmlns:xlink="http://www.w3.org/1999/xlink" viewBox="0 0 112.9 101.97"><defs><style>.cls-1,.cls-3,.cls-8{fill:none;}.cls-2{clip-path:url(#clip-path);}.cls-3{stroke:#000;}.cls-3,.cls-8{stroke-linecap:round;stroke-miterlimit:10;stroke-width:2px;}.cls-4{clip-path:url(#clip-path-2);}.cls-5{clip-path:url(#clip-path-3);}.cls-6{clip-path:url(#clip-path-4);}.cls-7{fill:#814e3d;}.cls-8{stroke:#522a19;}</style><clipPath id="clip-path"><rect class="cls-1" x="72.7" y="38.18" width="18.47" height="6.31"/></clipPath><clipPath id="clip-path-2"><rect class="cls-1" x="34.74" y="38.18" width="18.47" height="6.31"/></clipPath><clipPath id="clip-path-3"><rect class="cls-1" x="32.95" y="26.67" width="22.15" height="6.06"/></clipPath><clipPath id="clip-path-4"><rect class="cls-1" x="71.92" y="26.67" width="22.15" height="6.06"/></clipPath></defs><g id="yeux"><g class="cls-2"><path class="cls-3" d="M73.7,43.5a10.24,10.24,0,0,1,8.24-4.32,10.65,10.65,0,0,1,8.23,4.32"/></g><g class="cls-4"><path class="cls-3" d="M52.2,43.5A10.24,10.24,0,0,0,44,39.18a10.65,10.65,0,0,0-8.23,4.32"/></g><g class="cls-5"><path class="cls-3" d="M54.11,28.59s-6.36-1.88-12.1-.25A38.93,38.93,0,0,0,34,31.73"/></g><g class="cls-6"><path class="cls-3" d="M72.92,28.59s6.36-1.88,12.1-.25a38.93,38.93,0,0,1,8.06,3.39"/></g><path class="cls-7" d="M70.35,65.43s-4.69,3.69-7.42,3.68-7-3.59-7-3.59,5.4.73,7.21.72S70.35,65.43,70.35,65.43Z"/><path class="cls-8" d="M49.69,77.27A18.62,18.62,0,0,0,63.3,82.8a19,19,0,0,0,13.29-6.49"/></g></svg>