<svg xmlns="http://www.w3.org/2000/svg" xmlns:xlink="http://www.w3.org/1999/xlink" viewBox="0 0 122.58 101.97"><defs><style>.cls-1,.cls-5,.cls-7{fill:none;}.cls-2{fill:#fff;}.cls-3{fill:#080808;}.cls-4{clip-path:url(#clip-path);}.cls-5{stroke:#000;}.cls-5,.cls-7{stroke-linecap:round;stroke-miterlimit:10;stroke-width:2px;}.cls-6{clip-path:url(#clip-path-2);}.cls-7{stroke:#522a19;}.cls-8{fill:#6d323a;}.cls-9{fill:#4f9ffd;}</style><clipPath id="clip-path"><rect class="cls-1" x="76.88" y="29.04" width="21.58" height="7.06"/></clipPath><clipPath id="clip-path-2"><rect class="cls-1" x="37.66" y="29.04" width="21.58" height="7.06"/></clipPath></defs><g id="yeux"><path class="cls-2" d="M91.59,43.43a6.75,6.75,0,0,1-13.5,0Z"/><path class="cls-2" d="M56.74,43.43a6.75,6.75,0,0,1-13.5,0Z"/><path class="cls-3" d="M54.07,44a4,4,0,0,1-8,0,2.78,2.78,0,0,1,0-.58H54A2.78,2.78,0,0,1,54.07,44Z"/><path class="cls-3" d="M89,44a4,4,0,1,1-8,0,2.78,2.78,0,0,1,0-.58H89A2.78,2.78,0,0,1,89,44Z"/><g class="cls-4"><path class="cls-5" d="M77.88,30c9.84.17,19.58,5.05,19.58,5.05"/></g><g class="cls-6"><path class="cls-5" d="M58.24,30c-9.84.17-19.58,5.05-19.58,5.05"/></g><path class="cls-7" d="M56.77,82.19c3.1.14,7.19.21,11.26.21s8.06-.1,11-.25"/><path class="cls-8" d="M76,65.59s-4.7,3.69-7.42,3.69-7-3.59-7-3.59,5.4.73,7.22.72S76,65.59,76,65.59Z"/><ellipse class="cls-9" cx="44.69" cy="53.84" rx="3.87" ry="4.38"/></g></svg>