<svg xmlns="http://www.w3.org/2000/svg" xmlns:xlink="http://www.w3.org/1999/xlink" viewBox="0 0 116.13 101.97"><defs><style>.cls-1,.cls-4{fill:none;}.cls-2{fill:#fff;}.cls-3{clip-path:url(#clip-path);}.cls-4{stroke:#000;stroke-linecap:round;stroke-miterlimit:10;stroke-width:2px;}.cls-5{clip-path:url(#clip-path-2);}.cls-6{fill:#814e3d;}.cls-7{fill:#522a19;}.cls-8{fill:#bebebe;}</style><clipPath id="clip-path"><rect class="cls-1" x="30.25" y="25.81" width="23.15" height="6.96"/></clipPath><clipPath id="clip-path-2"><rect class="cls-1" x="70.28" y="25.81" width="23.15" height="6.96"/></clipPath></defs><g id="yeux"><circle class="cls-2" cx="43.3" cy="45.39" r="6.75"/><circle class="cls-2" cx="79.53" cy="45.39" r="6.75"/><circle cx="41.09" cy="43.67" r="3.29"/><circle cx="77.43" cy="43.67" r="3.29"/><g class="cls-3"><path class="cls-4" d="M52.4,31.77c-2.89-2.32-8.24-5.86-14.35-4.75-5.33,1-6.8,4.64-6.8,4.64"/></g><g class="cls-5"><path class="cls-4" d="M71.28,31.77c2.88-2.32,8.24-5.86,14.35-4.75,5.33,1,6.8,4.64,6.8,4.64"/></g><path class="cls-6" d="M68.64,65.86S64,69.55,61.22,69.54c-2.58,0-7-3.59-7-3.59s5.4.73,7.21.72S68.64,65.86,68.64,65.86Z"/><path class="cls-7" d="M45.65,80.28c.28-.63,1.42-1.63,3.5-2.54a29.22,29.22,0,0,1,10.56-2.1A22.78,22.78,0,0,1,75.57,81.7S71,93.44,59.76,92.58C51.62,92,45.65,80.28,45.65,80.28Z"/><path class="cls-8" d="M60.11,80.66l-8.25-.37-2.21-.91a28.2,28.2,0,0,1,11.44-2c6.7.36,10.31,2.92,10.31,2.92l-1.7.8Z"/></g></svg>