<?xml version="1.0" encoding="utf-8"?>
<!-- Generator: Adobe Illustrator 26.0.3, SVG Export Plug-In . SVG Version: 6.00 Build 0)  -->
<svg version="1.1" id="Calque_9" xmlns="http://www.w3.org/2000/svg" xmlns:xlink="http://www.w3.org/1999/xlink" x="0px" y="0px"
	 viewBox="0 0 788 1005" style="enable-background:new 0 0 788 1005;" xml:space="preserve">
<style type="text/css">
	.st0{fill:#924125;}
	.st1{fill:#B85727;}
	.st2{fill:#C18544;}
	.st3{fill:#7EA885;}
</style>
<path class="st0" d="M426.3,269l6.8-22.8c0,0,9.2-9.9,14.9-4.2c3.8,3.8-5.1,29-10,30C429.7,273.8,426.3,269,426.3,269z"/>
<path class="st0" d="M360.9,269l-8.2-24.5c0,0-7.9-8.1-13.6-2.5c-3.8,3.8,5.1,29,10,30C357.4,273.8,360.9,269,360.9,269z"/>
<path class="st1" d="M392.6,180.9c-23.9,0-43.3,11.2-43.3,45.6c0,46,27.5,79,43.3,79s43.3-33.1,43.3-79
	C435.9,192,416.6,180.9,392.6,180.9z"/>
<path class="st2" d="M351.5,244.2l-2-13.1c-0.6-3.2-0.6-7.2,0.9-10l10.8-21.4l32.2,3.7c0,0,32.1-1.8,32.5-1.4c0.4,0.4,5.1,11.1,8,18
	c1.5,3.5,2,7.6,1.4,11.5l-2,11.6v1.1c0,0,9.7-10.8,5.6-27.6c-1.4-6.3,1.1-23-7.9-34.4c-8.3-10.4-54.3-13.5-69.5-4.7
	c-6.3,3.7-11.5,11-14.5,26.4c-5.1,12.2-3.4,17.5-2,26.8C345.7,235.6,348.1,240.3,351.5,244.2L351.5,244.2z"/>
<path class="st2" d="M347.1,224.1l-3.9-14.5c0.1-0.6,2.1-3.9,2.6-4.1l6.4-12.5c-15.1-8,54-11.7,57.7-4.3l14.2,4.1
	c0.2,0.1,8.9,6.6,9.2,6.8l4.3,21.2c0.3,0.6,0.9,0.9,1.6,0.7l6.5-1.9c1-0.3,1.5-1.9,0.8-2.8l-0.9-1.3c-0.5-0.6-0.5-1.4-0.1-2l3.1-5.9
	c0.2-0.5,0.7-0.8,1.3-0.8l7-0.1c1.2,0,1.9-1.6,1.2-2.7l-2.6-4.1c-0.5-0.7-0.3-1.7,0.2-2.3l13.9-12.9c0.9-0.8,0.7-2.4-0.3-2.9
	l-5.8-2.7c-0.3-0.1-0.6-0.3-0.7-0.7l-10-18.7c-0.5-0.9-1.6-1-2.2-0.3l-3.8,4.1c-0.5,0.5-1.2,0.6-1.7,0.2l-7.4-5.2
	c-1.2-0.8-2.7,0.6-2.1,2.1l0,0c0.2,0.8,0,1.7-0.7,2.1l-1.4,0.8c-0.6,0.3-1.2,0.2-1.6-0.2l-4.6-4.6c-0.2-0.2-0.5-0.6-0.5-1l-2-14.9
	c-0.1-1.2-1.3-1.9-2.2-1.3l-12,7.8c-0.7,0.5-1.5,0.2-2-0.6l-5-9.1c-0.5-0.8-1.4-1-2.1-0.5l-5.2,4.3c-0.7,0.6-1.5,0.3-2.1-0.3
	l-3.8-5.7c-0.6-0.9-1.7-0.9-2.3,0l-1.6,2.4c-0.2,0.3-0.6,0.6-1,0.6l-17.9,2.1c-1.2,0.1-1.7,1.6-1,2.7l0.8,1.4
	c0.5,0.8,0.2,1.9-0.5,2.4l-21.1,15.2c-0.7,0.5-1.5,0.2-2-0.5l-4.5-7.1c-0.7-1-2.2-0.8-2.6,0.5l-2.6,7.8c-0.3,0.9-1.2,1.4-2,0.9
	l-2.4-1.2c-1-0.5-2.1,0.3-2.1,1.6l0.7,23.6c0,0.6-0.2,1.3-0.7,1.5l-8.7,5.8c-0.9,0.6-1,2.2-0.1,2.9l12.8,9.3
	c0.5,0.3,0.7,0.9,0.7,1.5l-0.3,6.6c0,0.8,0.5,1.6,1.2,1.7l9.2,2c0.3,0.1,0.7,0.3,0.9,0.7l1.6,2.6
	C345.3,225.7,346.8,225.4,347.1,224.1z"/>
<path class="st3" d="M349.7,214.5l13.9-5c17.3-6.2,36.9-6.4,54.3-0.7l17.2,5.7c3.2,1,6.8-0.5,7.8-3.2l3.1-10.6
	c1-3.7-10.9-12.6-19.7-18.5c-6.2-4.2-13.3-6.7-21-7.5c-7.2-0.8-14.4-0.8-21.6-0.2c-6.8,0.6-13.3,2.7-19,6
	c-11,6.3-28.5,16.9-27.4,19.8l4.6,11.3C343,214.2,346.6,215.6,349.7,214.5z"/>
</svg>
