<?xml version="1.0" encoding="utf-8"?>
<!-- Generator: Adobe Illustrator 26.0.3, SVG Export Plug-In . SVG Version: 6.00 Build 0)  -->
<svg version="1.1" id="Calque_9" xmlns="http://www.w3.org/2000/svg" xmlns:xlink="http://www.w3.org/1999/xlink" x="0px" y="0px"
	 viewBox="0 0 788 1005" style="enable-background:new 0 0 788 1005;" xml:space="preserve">
<style type="text/css">
	.st0{fill:#353535;}
	.st1{fill:#924125;}
	.st2{fill:#B85727;}
	.st3{fill:#C18544;}
</style>
<path class="st0" d="M350.9,214.1l-24.2-18.4c-1.2-0.9-2.9-0.7-3.8,0.4l-3.1,3.8c-1,1.2-0.7,3.2,0.7,4.1l25,15.7l0.3-7.5l-19.4,12.3
	c-1.3,0.9-1.8,2.9-0.6,4.1l3,3.6c0.9,1.1,2.6,1.3,3.7,0.5l21.6-15L350.9,214.1z"/>
<path class="st1" d="M427.8,267.1l6.8-22.8c0,0,9.2-9.9,14.9-4.2c3.8,3.8-5.1,29-10,30C431.2,271.9,427.8,267.1,427.8,267.1z"/>
<path class="st1" d="M362.4,267.1l-8.2-24.5c0,0-7.9-8.1-13.6-2.5c-3.8,3.8,5.1,29,10,30C358.9,271.9,362.4,267.1,362.4,267.1z"/>
<path class="st2" d="M394.1,179c-23.9,0-43.3,11.2-43.3,45.6c0,46,27.5,79,43.3,79s43.3-33.1,43.3-79
	C437.4,190.1,418.1,179,394.1,179z"/>
<path class="st3" d="M352.5,248.2l-6.9-43.8c0,0,11.8-33.3,50.7-32.3s46.2,29.3,46.2,29.3l-6.9,44.2l-3.9-38.4
	c0,0-38.5-15.9-74.2-1.9L352.5,248.2z"/>
<path class="st0" d="M350.5,218.5l13.3-5.3c16.5-6.5,35.3-6.8,51.9-0.7l16.4,6c3.1,1.1,6.5,4.1,7.4,1.1l0.8-3.3
	c1-3.9-8.5-21.3-16.7-27.5c-5.8-4.4-12.8-7.1-20-8c-7.1-0.7-13.9-0.8-20.7-0.2c-6.5,0.6-13.2,2.7-18.6,6.2
	c-10.3,6.7-23.5,26.8-22.5,29.9l1.2,3.3C344.1,222.8,347.5,219.6,350.5,218.5z"/>
</svg>
