<?xml version="1.0" encoding="utf-8"?>
<!-- Generator: Adobe Illustrator 26.0.3, SVG Export Plug-In . SVG Version: 6.00 Build 0)  -->
<svg version="1.1" id="Calque_9" xmlns="http://www.w3.org/2000/svg" xmlns:xlink="http://www.w3.org/1999/xlink" x="0px" y="0px"
	 viewBox="0 0 188 259" style="enable-background:new 0 0 188 259;" xml:space="preserve">
<style type="text/css">
	.st0{fill:none;stroke:#2E858E;stroke-width:3;stroke-miterlimit:10;}
	.st1{fill:#924125;}
	.st2{fill:#B85727;}
	.st3{fill:#C18544;}
	.st4{fill:#2E858E;}
</style>
<path class="st0" d="M36.8,130.6c-1.2-3.4-1.9-7-1.9-10.6c0-23.7,27.6-43,61.7-43s61.7,19.3,61.7,43c0,3.9-0.7,7.5-2.1,10.9"/>
<path class="st1" d="M132,160.7l7.1-23.7c0,0,9.6-10.3,15.5-4.4c4,4-5.3,30.2-10.4,31.2C135.6,165.7,132,160.7,132,160.7z"/>
<path class="st1" d="M63.9,160.7l-8.5-25.5c0,0-8.2-8.4-14.2-2.6c-4,4,5.3,30.2,10.4,31.2C60.3,165.7,63.9,160.7,63.9,160.7z"/>
<path class="st2" d="M96.9,69C72,69,51.8,80.6,51.8,116.5c0,47.9,28.6,82.3,45.1,82.3s45.1-34.5,45.1-82.3
	C142,80.5,121.9,69,96.9,69z"/>
<path class="st3" d="M53.7,141l-7.2-45.6c0,0,12.3-34.7,52.8-33.7c40.5,1,48.1,30.5,48.1,30.5l-7.2,46l-4-40c0,0-40.2-16.6-77.3-2
	L53.7,141z"/>
<g>
	<path class="st4" d="M55.6,168.2l-2.4,0.6c-2.5,0.6-5.1-1.1-5.5-3.6l-7.9-37c-0.6-2.5,1.1-5.1,3.6-5.5l2.4-0.6
		c2.5-0.6,5.1,1.1,5.5,3.6l7.9,37.1C59.8,165.1,58.1,167.6,55.6,168.2z"/>
	<path class="st4" d="M47.1,165.8l-4.9,0.9c-2.5,0.6-5.1-1.1-5.5-3.6l-6.2-28.6c-0.6-2.5,1.1-5.1,3.6-5.5l4.9-0.9L47.1,165.8z"/>
	<path class="st4" d="M32.7,121l2.9-1.7c0.6-0.4,1.5,0,1.7,0.6l2.2,10.2c0.2,0.5-0.2,1-0.7,1.2l0,0c-0.5,0.2-0.9,0-1.2-0.5l-5.2-8.5
		C32,122.1,32.1,121.4,32.7,121z"/>
</g>
<g>
	<path class="st4" d="M138.9,168.8l2.4,0.5c2.5,0.5,5-1.4,5.4-3.9L153,128c0.5-2.5-1.4-5-3.9-5.4l-2.4-0.5c-2.5-0.5-5,1.4-5.4,3.9
		l-6.4,37.4C134.7,165.7,136.3,168.2,138.9,168.8z"/>
	<path class="st4" d="M147.3,165.9l4.9,0.8c2.5,0.5,5-1.4,5.4-3.9l4.9-28.9c0.5-2.5-1.4-5-3.9-5.4l-4.9-0.8L147.3,165.9z"/>
	<path class="st4" d="M159.9,120.5l-3-1.6c-0.7-0.4-1.6,0.1-1.7,0.7l-1.8,10.3c-0.2,0.5,0.3,1,0.8,1.2l0,0c0.5,0.2,0.9,0,1.2-0.5
		l4.8-8.6C160.5,121.7,160.4,120.8,159.9,120.5z"/>
</g>
<path class="st0" d="M49.6,164.2l-20.8,16.6c-3.4,2.8-2.8,8.3,1.2,10.1l14.3,6.1"/>
<circle class="st4" cx="49.6" cy="196.9" r="8.1"/>
</svg>
