<?xml version="1.0" encoding="utf-8"?>
<!-- Generator: Adobe Illustrator 26.0.3, SVG Export Plug-In . SVG Version: 6.00 Build 0)  -->
<svg version="1.1" id="Calque_9" xmlns="http://www.w3.org/2000/svg" xmlns:xlink="http://www.w3.org/1999/xlink" x="0px" y="0px"
	 viewBox="0 0 188 259" style="enable-background:new 0 0 188 259;" xml:space="preserve">
<style type="text/css">
	.st0{fill:#924125;}
	.st1{fill:#B85727;}
	.st2{fill:#C18544;}
</style>
<path class="st0" d="M130.9,169.7l6.8-22.8c0,0,9.2-9.9,14.9-4.2c3.8,3.8-5.1,29-10,30C134.3,174.5,130.9,169.7,130.9,169.7z"/>
<path class="st0" d="M65.5,169.7l-8.2-24.5c0,0-7.9-8.1-13.6-2.5c-3.8,3.8,5.1,29,10,30C62,174.5,65.5,169.7,65.5,169.7z"/>
<path class="st1" d="M97.2,81.6c-23.9,0-43.3,11.2-43.3,45.6c0,46,27.5,79,43.3,79s43.3-33.1,43.3-79
	C140.5,92.7,121.2,81.6,97.2,81.6z"/>
<g id="Calque_6_00000138574580992109259530000004055695868823735972_">
	<path class="st2" d="M119.4,96.7c0,0-14.2,7.6-21,11.1c-5.8,3-21.9,1-21.9,1s-12.6,7-16.1,10.1c-7,6.3-8.3,16.1-8.3,16.1
		s-8-20.5-3.6-31.4c-1.7,1.4,28.3-28,28.3-28s11-7.8,23-6.2c15.9,2,21.6,10.6,21.6,10.6s12.3-4.5,22.1,8.3
		c7.4,9.7,4.2,21.8,4.2,21.8l-6.3,23.8c0,0-2.7-15.9-3.3-18.7c-0.5-1.7-2.5-1.8-3.6-3.1c0,0-6.8-7.2-9.5-12.8
		C123.9,97.6,119.4,96.7,119.4,96.7z"/>
</g>
<path class="st2" d="M120.8,85.6l-16-16.2c-0.1-0.1-0.1-0.1-0.2-0.2c-2.1-1.2-28.5-15.4-41-4.4c-0.7,0.6-0.4,1.7,0.5,1.9
	c2.9,0.7,8.5,1.7,13,2.5c1.2,0.2,1.2,1.9,0.1,2.1c-9.5,2.1-26.9,7.9-33.4,23.1C43.4,95.3,44,96.1,45,96c2-0.2,5-0.4,5-0.4
	s-16.5,6.3-14.9,11.2c0.2,0.6,1,1,1.6,0.6c0,0,0,0,0.1,0c1.1-0.5,2.1,0.7,1.3,1.7c-3.2,3.9-6.4,9.4-3.2,12.8
	c0.4,0.4,1.1,0.5,1.6,0.1c1-0.8,2.9-2.4,4.7-3.9c1-0.8,2.3,0.2,1.7,1.3c-4.2,7.5-9.7,20-2,23.1c0.6,0.2,1.2,0,1.4-0.6
	c0.5-1.2,1.4-3.6,2.4-6c0.5-1.2,2.3-0.7,2.1,0.5c-0.6,7.3,0.2,16.2,7.8,14.9c0.6-0.1,1-0.6,1-1.1c0-2.4-0.2-8.7-0.4-9.9
	c0-0.1,0-0.2,0-0.4c1.1-3.2,16.7-49,65.3-52.5C121,87.4,121.5,86.3,120.8,85.6z"/>
<path class="st2" d="M116.6,88.9c-1.6-9.3-3.7-29.6,7.6-28.4c1,0.1,1.6,1,1.4,1.9c-0.1,1.4-0.5,3.5-0.8,5.5
	c-0.2,1.7,1.8,2.6,2.9,1.4c5.1-5.2,13.8-12,18.5-2.4c0.4,0.7,0.1,1.7-0.6,2.1c-1.8,1.2-5.4,3.7-8.8,6c-1.4,1-0.7,3.1,1,3.1
	c0.6,0,1.2,0,1.8,0.1c2.1,0.4,1.6,3.6-0.6,3.3c-5.4-0.7-13.7-0.1-19.4,7.9C118.9,91,116.9,90.5,116.6,88.9z"/>
<path class="st2" d="M119.4,96.7c0,0,34.7,1.9,36.5,32.6c0,1-1.6,1.1-2.4,0.5c-1.2-0.7-3-1.9-4.7-3.1c-1.4-1-3.1,0.5-2.5,2
	c2.6,6.8,5,17.8-5.7,17.8c-0.8,0-1.6-0.6-1.7-1.4c-0.4-2.1-1-6.4-1.7-10.5c-0.2-1.7-2.5-2-3.2-0.5c-0.2,0.6-0.6,1.1-0.8,1.6
	c-1.3,1.8-3.9-0.1-2.7-1.9C133.7,128.5,127.6,106.6,119.4,96.7z"/>
</svg>
