<?xml version="1.0" encoding="utf-8"?>
<!-- Generator: Adobe Illustrator 26.0.3, SVG Export Plug-In . SVG Version: 6.00 Build 0)  -->
<svg version="1.1" id="Layer_1" xmlns="http://www.w3.org/2000/svg" xmlns:xlink="http://www.w3.org/1999/xlink" x="0px" y="0px"
	 viewBox="0 0 788 1005" style="enable-background:new 0 0 788 1005;" xml:space="preserve">
<style type="text/css">
	.st0{fill:#924125;}
	.st1{fill:#B85727;}
	.st2{fill:#C18544;}
	.st3{fill:#F78491;}
	.st4{fill:#CC3E63;}
</style>
<path class="st0" d="M427.6,268.5l6.8-22.8c0,0,9.2-9.9,14.9-4.2c3.8,3.8-5.1,29-10,30C431,273.3,427.6,268.5,427.6,268.5z"/>
<path class="st0" d="M362.2,268.5L354,244c0,0-7.9-8.1-13.6-2.5c-3.8,3.8,5.1,29,10,30C358.7,273.3,362.2,268.5,362.2,268.5z"/>
<path class="st1" d="M393.9,180.4c-23.9,0-43.3,11.2-43.3,45.6c0,46,27.5,79,43.3,79c15.8,0,43.3-33.1,43.3-79
	C437.2,191.5,417.9,180.4,393.9,180.4z"/>
<path class="st2" d="M404.7,169.9c1.8-2.5,3.4-4.8,5.2-7.3c-2.1,8.8,4.3,9.9,10.3,12.1c3.6,1.4,7.2,3.8,9.9,6.6
	c10,10.2,7.6,20-7.5,29.6c1.1-2.8,1.8-4.9,3.3-9.1c-22.3,18.5-43.6,15.3-66.1,0.4c1.6,3.5,2.7,5.9,3.9,8.6
	c-11.9-4-15.5-11.8-10.7-22.2c4.3-9.6,12.8-13.9,22.5-16.5c3.1-0.8,6.1-1.3,9.2-2c-7.8-12.5-8.1-20.5-1.3-26.8
	c5.4-5.1,15-5.9,20.8-1.6c7.3,5.3,7.1,11.6-0.8,26.8C403.7,169.1,404.2,169.5,404.7,169.9z"/>
<path class="st2" d="M435.5,248.7c-1.6-11.9-4-24.8-4.7-36.7c-0.2-4.1,1.8-10.3,5.2-17C442.2,210.1,442.4,229.9,435.5,248.7z"/>
<path class="st2" d="M350.9,196.9c6.7,4.8,6.2,15.9,4.1,24.1c-2.2,8.6-0.8,17.6-2.2,28.8C347.5,232.6,345.5,212.3,350.9,196.9z"/>
<path class="st3" d="M403.8,170.4h-20.5c-0.8,0-1.5-0.7-1.5-1.5l0,0c0-0.8,0.7-1.5,1.5-1.5h20.5c0.8,0,1.5,0.7,1.5,1.5l0,0
	C405.2,169.7,404.6,170.4,403.8,170.4z"/>
<path class="st4" d="M403.7,167.8h-20.5c-0.8,0-1.5-0.7-1.5-1.5l0,0c0-0.8,0.7-1.5,1.5-1.5h20.5c0.8,0,1.5,0.7,1.5,1.5l0,0
	C405.2,167.1,404.5,167.8,403.7,167.8z"/>
</svg>
