<?xml version="1.0" encoding="utf-8"?>
<!-- Generator: Adobe Illustrator 26.0.3, SVG Export Plug-In . SVG Version: 6.00 Build 0)  -->
<svg version="1.1" id="Calque_9" xmlns="http://www.w3.org/2000/svg" xmlns:xlink="http://www.w3.org/1999/xlink" x="0px" y="0px"
	 viewBox="0 0 788 1005" style="enable-background:new 0 0 788 1005;" xml:space="preserve">
<style type="text/css">
	.st0{fill:#924125;}
	.st1{fill:#B85727;}
	.st2{fill:#C18544;}
</style>
<path class="st0" d="M427.1,268.8l6.8-22.8c0,0,9.2-9.9,14.9-4.2c3.8,3.8-5.1,29-10,30C430.5,273.6,427.1,268.8,427.1,268.8z"/>
<path class="st0" d="M361.7,268.8l-8.2-24.5c0,0-7.9-8.1-13.6-2.5c-3.8,3.8,5.1,29,10,30C358.2,273.6,361.7,268.8,361.7,268.8z"/>
<path class="st1" d="M393.4,180.7c-23.9,0-43.3,11.2-43.3,45.6c0,46,27.5,79,43.3,79s43.3-33.1,43.3-79
	C436.7,191.8,417.4,180.7,393.4,180.7z"/>
<path class="st2" d="M351.9,249.9L345,206c0,0,11.8-33.3,50.7-32.3s46.2,29.3,46.2,29.3l-6.9,44.2l-3.9-38.4c0,0-38.5-15.9-74.2-1.9
	L351.9,249.9z"/>
</svg>
