<?xml version="1.0" encoding="utf-8"?>
<!-- Generator: Adobe Illustrator 26.0.3, SVG Export Plug-In . SVG Version: 6.00 Build 0)  -->
<svg version="1.1" id="Layer_1" xmlns="http://www.w3.org/2000/svg" xmlns:xlink="http://www.w3.org/1999/xlink" x="0px" y="0px"
	 viewBox="0 0 788 1005" style="enable-background:new 0 0 788 1005;" xml:space="preserve">
<style type="text/css">
	.st0{fill:#772A1F;}
	.st1{fill:#924125;}
	.st2{fill:#B85727;}
	.st3{fill:#C18544;}
	.st4{fill:#893024;}
	.st5{fill:#913323;}
</style>
<polygon class="st0" points="341.5,215.8 350.9,218.8 436,216.9 445.8,214.3 402.7,192.9 355.1,194.8 "/>
<path class="st1" d="M427.3,267l6.8-22.8c0,0,9.2-9.9,14.9-4.2c3.8,3.8-5.1,29-10,30C430.7,271.8,427.3,267,427.3,267z"/>
<path class="st1" d="M361.9,267l-8.2-24.5c0,0-7.9-8.1-13.6-2.5c-3.8,3.8,5.1,29,10,30C358.4,271.8,361.9,267,361.9,267z"/>
<path class="st2" d="M393.6,178.9c-23.9,0-43.3,11.2-43.3,45.6c0,46,27.5,79,43.3,79s43.3-33.1,43.3-79
	C436.9,190,417.6,178.9,393.6,178.9z"/>
<path class="st3" d="M352.1,248.1l-6.9-43.8c0,0,11.8-33.3,50.7-32.3c38.9,0.9,46.2,29.3,46.2,29.3l-6.9,44.2l-3.9-38.4
	c0,0-38.5-15.9-74.2-1.9L352.1,248.1z"/>
<path class="st4" d="M349.3,192.9c0,0,9.1-21.7,12.9-24.4c4-2.7,31.2-6.1,31.2-6.1s26.9,3.4,29,4.6c2.1,1.2,17,26.7,17,26.7
	l-46.2-4.5L349.3,192.9z"/>
<path class="st5" d="M341.8,216c0,0,22-11,51.9-11.2c29.8-0.2,50.7,9.8,50.7,9.8s2.1,0.3,2.1-1.1c0-1.1-5.3-15.3-7.7-21.5
	c-0.7-1.9-2-3.3-3.6-4c-5.8-2.2-21.3-7.4-41.5-7.6c-20.6-0.2-35.5,4.4-40.6,6.3c-1.3,0.4-2.4,1.5-3,3
	C346.9,196.6,338.4,216.6,341.8,216z"/>
</svg>
