<?xml version="1.0" encoding="utf-8"?>
<!-- Generator: Adobe Illustrator 26.0.3, SVG Export Plug-In . SVG Version: 6.00 Build 0)  -->
<svg version="1.1" id="Calque_9" xmlns="http://www.w3.org/2000/svg" xmlns:xlink="http://www.w3.org/1999/xlink" x="0px" y="0px"
	 viewBox="0 0 188 259" style="enable-background:new 0 0 188 259;" xml:space="preserve">
<style type="text/css">
	.st0{fill:#924125;}
	.st1{fill:#B85727;}
	.st2{fill:#C18544;}
</style>
<path class="st0" d="M127.9,163.2l7-23.6c0,0,9.5-10.3,15.4-4.4c3.9,3.9-5.3,30-10.4,31.1C131.4,168.2,127.9,163.2,127.9,163.2z"/>
<path class="st0" d="M60.2,163.2l-8.5-25.4c0,0-8.2-8.4-14.1-2.6c-3.9,3.9,5.3,30,10.4,31.1C56.6,168.2,60.2,163.2,60.2,163.2z"/>
<path class="st1" d="M93,71.9c-24.8,0-44.9,11.6-44.9,47.2c0,47.7,28.5,81.8,44.9,81.8s44.9-34.3,44.9-81.8
	C137.9,83.4,117.9,71.9,93,71.9z"/>
<path class="st2" d="M50,143.6l-7.2-45.4c0,0,12.3-34.5,52.6-33.5c40.3,1,47.8,30.3,47.8,30.3l-7.2,45.8l-4-39.8
	c0,0-39.9-16.5-76.8-1.9L50,143.6z"/>
</svg>
