<?xml version="1.0" encoding="utf-8"?>
<!-- Generator: Adobe Illustrator 26.0.3, SVG Export Plug-In . SVG Version: 6.00 Build 0)  -->
<svg version="1.1" id="Calque_9" xmlns="http://www.w3.org/2000/svg" xmlns:xlink="http://www.w3.org/1999/xlink" x="0px" y="0px"
	 viewBox="0 0 788 1005" style="enable-background:new 0 0 788 1005;" xml:space="preserve">
<style type="text/css">
	.st0{fill:none;stroke:#2E858E;stroke-width:3;stroke-miterlimit:10;}
	.st1{fill:#924125;}
	.st2{fill:#B85727;}
	.st3{fill:#C18544;}
	.st4{fill:#2E858E;}
</style>
<path class="st0" d="M336.2,237.2c-1.2-3.3-1.8-6.7-1.8-10.2c0-22.8,26.5-41.3,59.2-41.3s59.2,18.5,59.2,41.3c0,3.7-0.7,7.2-2,10.5"
	/>
<path class="st1" d="M427.6,266.1l6.8-22.8c0,0,9.2-9.9,14.9-4.2c3.8,3.8-5.1,29-10,30C431,270.9,427.6,266.1,427.6,266.1z"/>
<path class="st1" d="M362.2,266.1l-8.2-24.5c0,0-7.9-8.1-13.6-2.5c-3.8,3.8,5.1,29,10,30C358.7,270.9,362.2,266.1,362.2,266.1z"/>
<path class="st2" d="M393.9,178c-23.9,0-43.3,11.2-43.3,45.6c0,46,27.5,79,43.3,79s43.3-33.1,43.3-79
	C437.2,189.1,417.9,178,393.9,178z"/>
<path class="st3" d="M352.4,247.2l-6.9-43.8c0,0,11.8-33.3,50.7-32.3s46.2,29.3,46.2,29.3l-6.9,44.2l-3.9-38.4
	c0,0-38.5-15.9-74.2-1.9L352.4,247.2z"/>
<g>
	<path class="st4" d="M354.3,273.3l-2.3,0.6c-2.4,0.6-4.9-1.1-5.3-3.5l-7.6-35.5c-0.6-2.4,1.1-4.9,3.5-5.3l2.3-0.6
		c2.4-0.6,4.9,1.1,5.3,3.5l7.6,35.6C358.3,270.3,356.7,272.7,354.3,273.3z"/>
	<path class="st4" d="M346.1,271l-4.7,0.9c-2.4,0.6-4.9-1.1-5.3-3.5l-6-27.5c-0.6-2.4,1.1-4.9,3.5-5.3l4.7-0.9L346.1,271z"/>
	<path class="st4" d="M332.3,228l2.8-1.6c0.6-0.4,1.4,0,1.6,0.6l2.1,9.8c0.2,0.5-0.2,1-0.7,1.2l0,0c-0.5,0.2-0.9,0-1.2-0.5l-5-8.2
		C331.6,229,331.7,228.3,332.3,228z"/>
</g>
<g>
	<path class="st4" d="M434.3,273.8l2.3,0.5c2.4,0.5,4.8-1.3,5.2-3.7l6-35.9c0.5-2.4-1.3-4.8-3.7-5.2l-2.3-0.5
		c-2.4-0.5-4.8,1.3-5.2,3.7l-6.1,35.9C430.2,270.9,431.8,273.3,434.3,273.8z"/>
	<path class="st4" d="M442.3,271.1l4.7,0.8c2.4,0.5,4.8-1.3,5.2-3.7l4.7-27.7c0.5-2.4-1.3-4.8-3.7-5.2l-4.7-0.8L442.3,271.1z"/>
	<path class="st4" d="M454.4,227.5l-2.9-1.5c-0.7-0.4-1.5,0.1-1.6,0.7l-1.7,9.9c-0.2,0.5,0.3,1,0.8,1.2l0,0c0.5,0.2,0.9,0,1.2-0.5
		l4.6-8.3C455,228.6,454.9,227.8,454.4,227.5z"/>
</g>
<path class="st0" d="M348.5,269.4l-20,15.9c-3.3,2.7-2.7,8,1.2,9.7l13.7,5.9"/>
<circle class="st4" cx="348.5" cy="300.8" r="7.8"/>
</svg>
