<?xml version="1.0" encoding="utf-8"?>
<!-- Generator: Adobe Illustrator 26.0.2, SVG Export Plug-In . SVG Version: 6.00 Build 0)  -->
<svg version="1.1" id="Calque_1" xmlns="http://www.w3.org/2000/svg" xmlns:xlink="http://www.w3.org/1999/xlink" x="0px" y="0px"
	 viewBox="0 0 788 1005.1" style="enable-background:new 0 0 788 1005.1;" xml:space="preserve">
<style type="text/css">
	.st0{fill:none;stroke:#802D31;stroke-width:2;stroke-linecap:round;stroke-miterlimit:10;}
	.st1{clip-path:url(#SVGID_00000027592490335644980520000000547417204258998455_);}
	.st2{fill:none;stroke:#D3D3D3;stroke-width:2;stroke-linecap:round;stroke-miterlimit:10;}
	.st3{clip-path:url(#SVGID_00000033355883570795659630000011467971986290625714_);}
	.st4{clip-path:url(#SVGID_00000079468440749009559350000017929884837573706399_);}
	.st5{fill:#FFFFFF;}
	.st6{clip-path:url(#SVGID_00000134224764895218117820000002636603473820402326_);}
	.st7{clip-path:url(#SVGID_00000035522154296568199110000013466157919060619666_);}
	.st8{fill:#050505;}
	.st9{clip-path:url(#SVGID_00000092418314000217368800000006229751303992841862_);}
	.st10{fill:none;stroke:#7D4030;stroke-width:2;stroke-linecap:round;stroke-miterlimit:10;}
	.st11{fill:#7D4030;}
	
		.st12{clip-path:url(#SVGID_00000058574305796511110240000004634245546291507086_);fill:none;stroke:#7D4030;stroke-width:2;stroke-linecap:round;stroke-miterlimit:10;}
	
		.st13{clip-path:url(#SVGID_00000128487008421041591980000012196748982795810449_);fill:none;stroke:#7D4030;stroke-width:2;stroke-linecap:round;stroke-miterlimit:10;}
</style>
<g id="Calque_3">
	<path class="st0" d="M382.2,203l-4.4-1.3c-3.2-0.9-6.7-0.9-9.8,0.2l-4.5,1.5"/>
	<g id="_Repetition_miroir_">
		<g>
			<g>
				<g>
					<defs>
						<rect id="SVGID_1_" x="386.1" y="149.9" width="16.8" height="12.8"/>
					</defs>
					<clipPath id="SVGID_00000109716098614830826220000014608409090149098148_">
						<use xlink:href="#SVGID_1_"  style="overflow:visible;"/>
					</clipPath>
					<g style="clip-path:url(#SVGID_00000109716098614830826220000014608409090149098148_);">
						<path class="st2" d="M387.1,151c0,0,5.4-0.5,10.6,5.3c1.5,1.7,2.9,3.6,4.2,5.5"/>
					</g>
				</g>
			</g>
		</g>
	</g>
	<g id="_Repetition_miroir_2">
		<g>
			<g>
				<g>
					<defs>
						<rect id="SVGID_00000075861276993907579690000004246761298060246964_" x="343" y="149.9" width="16.8" height="12.8"/>
					</defs>
					<clipPath id="SVGID_00000096756187390161868010000008796187388942989733_">
						<use xlink:href="#SVGID_00000075861276993907579690000004246761298060246964_"  style="overflow:visible;"/>
					</clipPath>
					<g style="clip-path:url(#SVGID_00000096756187390161868010000008796187388942989733_);">
						<path class="st2" d="M358.8,151c0,0-5.4-0.5-10.6,5.3c-1.5,1.7-2.9,3.6-4.2,5.5"/>
					</g>
				</g>
			</g>
		</g>
	</g>
	<g>
		<g>
			<g>
				<defs>
					<polygon id="SVGID_00000167367904586088091630000003775375612910279097_" points="382.1,159.8 382.1,159.8 395.6,159.8 
						395.6,172.7 382.1,172.7 					"/>
				</defs>
				<clipPath id="SVGID_00000053540099005324820600000018005777802439900077_">
					<use xlink:href="#SVGID_00000167367904586088091630000003775375612910279097_"  style="overflow:visible;"/>
				</clipPath>
				<g style="clip-path:url(#SVGID_00000053540099005324820600000018005777802439900077_);">
					<ellipse class="st5" cx="388.9" cy="166.2" rx="6.7" ry="6.5"/>
				</g>
			</g>
		</g>
	</g>
	<g>
		<g>
			<g>
				<defs>
					<polygon id="SVGID_00000145023646149266670930000006991000225960680337_" points="360.8,159.8 360.8,159.8 347.3,159.8 
						347.3,172.7 360.8,172.7 					"/>
				</defs>
				<clipPath id="SVGID_00000170246460908541365530000011789730497805629321_">
					<use xlink:href="#SVGID_00000145023646149266670930000006991000225960680337_"  style="overflow:visible;"/>
				</clipPath>
				<g style="clip-path:url(#SVGID_00000170246460908541365530000011789730497805629321_);">
					<ellipse class="st5" cx="354.1" cy="166.2" rx="6.7" ry="6.5"/>
				</g>
			</g>
		</g>
	</g>
	<g>
		<g>
			<g>
				<defs>
					<polygon id="SVGID_00000170267961499976043120000010515835699604472960_" points="384.6,161.7 384.6,161.7 393.6,161.7 
						393.6,170.7 384.6,170.7 					"/>
				</defs>
				<clipPath id="SVGID_00000139277549002508639000000008644390806036382595_">
					<use xlink:href="#SVGID_00000170267961499976043120000010515835699604472960_"  style="overflow:visible;"/>
				</clipPath>
				<g style="clip-path:url(#SVGID_00000139277549002508639000000008644390806036382595_);">
					<circle class="st8" cx="389.1" cy="166.2" r="4.5"/>
				</g>
			</g>
		</g>
	</g>
	<g>
		<g>
			<g>
				<defs>
					<polygon id="SVGID_00000169558304223753204340000004153443876880437390_" points="358.3,161.7 358.3,161.7 349.3,161.7 
						349.3,170.7 358.3,170.7 					"/>
				</defs>
				<clipPath id="SVGID_00000183214563604613423930000013648021482206318265_">
					<use xlink:href="#SVGID_00000169558304223753204340000004153443876880437390_"  style="overflow:visible;"/>
				</clipPath>
				<g style="clip-path:url(#SVGID_00000183214563604613423930000013648021482206318265_);">
					<circle class="st8" cx="353.8" cy="166.2" r="4.5"/>
				</g>
			</g>
		</g>
	</g>
</g>
<path class="st10" d="M365.8,190.4c0,0,5.7,3.4,7.6,3.3c1.9-0.1,7.1-3.3,7.1-3.3"/>
<g>
	<path class="st11" d="M380.5,189.5c0,0-4.7,3.7-7.4,3.7c-2.6,0-7-3.6-7-3.6s5.4,0.7,7.2,0.7C375.1,190.3,380.5,189.5,380.5,189.5z"
		/>
</g>
<path class="st10" d="M365.6,190.7c0,0,5.7,3.4,7.6,3.3c1.9-0.1,7.1-3.3,7.1-3.3"/>
<g>
	<g>
		<g>
			<defs>
				<rect id="SVGID_00000013168062268671293750000007545420038080636807_" x="379.7" y="189.4" width="9.5" height="6.8"/>
			</defs>
			<clipPath id="SVGID_00000152232539427014523630000015034038150641659322_">
				<use xlink:href="#SVGID_00000013168062268671293750000007545420038080636807_"  style="overflow:visible;"/>
			</clipPath>
			
				<path style="clip-path:url(#SVGID_00000152232539427014523630000015034038150641659322_);fill:none;stroke:#7D4030;stroke-width:2;stroke-linecap:round;stroke-miterlimit:10;" d="
				M380.7,190.4c0,0,5.6,3.7,7.5,4.8"/>
		</g>
	</g>
</g>
<g>
	<g>
		<g>
			<defs>
				<rect id="SVGID_00000023997556257421387490000004088518280236073892_" x="357.1" y="189.4" width="9.5" height="6.8"/>
			</defs>
			<clipPath id="SVGID_00000080188000700057468700000015748811686809572787_">
				<use xlink:href="#SVGID_00000023997556257421387490000004088518280236073892_"  style="overflow:visible;"/>
			</clipPath>
			
				<path style="clip-path:url(#SVGID_00000080188000700057468700000015748811686809572787_);fill:none;stroke:#7D4030;stroke-width:2;stroke-linecap:round;stroke-miterlimit:10;" d="
				M365.6,190.4c0,0-5.6,3.7-7.5,4.8"/>
		</g>
	</g>
</g>
</svg>
