<?xml version="1.0" encoding="utf-8"?>
<!-- Generator: Adobe Illustrator 26.0.2, SVG Export Plug-In . SVG Version: 6.00 Build 0)  -->
<svg version="1.1" id="Layer_1" xmlns="http://www.w3.org/2000/svg" xmlns:xlink="http://www.w3.org/1999/xlink" x="0px" y="0px"
	 viewBox="0 0 148 115.3" style="enable-background:new 0 0 148 115.3;" xml:space="preserve">
<style type="text/css">
	.st0{fill:none;stroke:#802D31;stroke-width:2;stroke-linecap:round;stroke-miterlimit:10;}
	.st1{fill:none;stroke:#AD7469;stroke-width:2;stroke-linecap:round;stroke-miterlimit:10;}
	.st2{clip-path:url(#SVGID_00000130606340504225347780000004938975332134188928_);}
	.st3{clip-path:url(#SVGID_00000027567312524029798980000016843991525133640372_);}
	.st4{clip-path:url(#SVGID_00000145036198623292535290000016411769273178151089_);}
	.st5{fill:none;stroke:#CDCDCD;stroke-width:2;stroke-linecap:round;stroke-miterlimit:10;}
	.st6{clip-path:url(#SVGID_00000014614270183954171700000010372360578372134802_);}
	.st7{clip-path:url(#SVGID_00000085942813734249100140000007329586867822354562_);}
	.st8{fill:#FFFFFF;}
	.st9{clip-path:url(#SVGID_00000008114074715117649540000011180197232431810237_);}
	.st10{clip-path:url(#SVGID_00000098184894415089003410000008421246486649586092_);}
	.st11{fill:#050505;}
	.st12{clip-path:url(#SVGID_00000160180331558813611530000004398300816584482183_);}
	.st13{fill:#B85D40;}
</style>
<g id="Calque_3">
	<path class="st0" d="M82.1,84.6l-4.4-1.3c-3.2-0.9-6.7-0.9-9.8,0.2L63.4,85"/>
	<path class="st1" d="M65.7,72c0,0,5.7,3.4,7.6,3.3s7.1-3.3,7.1-3.3"/>
	<g>
		<defs>
			<rect id="SVGID_1_" x="81.4" y="69.9" width="7.8" height="7.9"/>
		</defs>
		<clipPath id="SVGID_00000176004007838179369520000014876917149683491467_">
			<use xlink:href="#SVGID_1_"  style="overflow:visible;"/>
		</clipPath>
		<g style="clip-path:url(#SVGID_00000176004007838179369520000014876917149683491467_);">
			<path class="st1" d="M82.4,70.9c0,0,4.2,4.5,5.8,5.9"/>
		</g>
	</g>
	<g>
		<defs>
			<rect id="SVGID_00000096766942840222827560000015729920056181928379_" x="57" y="69.9" width="7.8" height="7.9"/>
		</defs>
		<clipPath id="SVGID_00000155130175719752142380000006495391986968590505_">
			<use xlink:href="#SVGID_00000096766942840222827560000015729920056181928379_"  style="overflow:visible;"/>
		</clipPath>
		<g style="clip-path:url(#SVGID_00000155130175719752142380000006495391986968590505_);">
			<path class="st1" d="M63.8,70.9c0,0-4.2,4.5-5.8,5.9"/>
		</g>
	</g>
	<g id="_Repetition_miroir_">
		<g>
			<defs>
				<rect id="SVGID_00000101087580548932710940000015601141611080674718_" x="86" y="31.6" width="16.8" height="12.8"/>
			</defs>
			<clipPath id="SVGID_00000078763728096025648470000009666084828760317105_">
				<use xlink:href="#SVGID_00000101087580548932710940000015601141611080674718_"  style="overflow:visible;"/>
			</clipPath>
			<g style="clip-path:url(#SVGID_00000078763728096025648470000009666084828760317105_);">
				<path class="st5" d="M87,32.6c0,0,5.3-0.5,10.6,5.3c1.5,1.7,2.9,3.6,4.2,5.5"/>
			</g>
		</g>
	</g>
	<g id="_Repetition_miroir_2">
		<g>
			<defs>
				<rect id="SVGID_00000121272491568030392630000010851630069800043957_" x="42.9" y="31.6" width="16.8" height="12.8"/>
			</defs>
			<clipPath id="SVGID_00000095311447125574852970000001802729678772225199_">
				<use xlink:href="#SVGID_00000121272491568030392630000010851630069800043957_"  style="overflow:visible;"/>
			</clipPath>
			<g style="clip-path:url(#SVGID_00000095311447125574852970000001802729678772225199_);">
				<path class="st5" d="M58.7,32.6c0,0-5.3-0.5-10.6,5.3c-1.5,1.7-2.9,3.6-4.2,5.5"/>
			</g>
		</g>
	</g>
	<g>
		<defs>
			<polygon id="SVGID_00000170251558944628567280000011960297412075661492_" points="82,41.4 82,41.4 95.5,41.4 95.5,54.4 82,54.4 
							"/>
		</defs>
		<clipPath id="SVGID_00000047763735190346166140000016356165188582375853_">
			<use xlink:href="#SVGID_00000170251558944628567280000011960297412075661492_"  style="overflow:visible;"/>
		</clipPath>
		<g style="clip-path:url(#SVGID_00000047763735190346166140000016356165188582375853_);">
			<ellipse class="st8" cx="88.7" cy="47.9" rx="6.7" ry="6.5"/>
		</g>
	</g>
	<g>
		<defs>
			<polygon id="SVGID_00000021101235021392276310000016378627294367008678_" points="60.7,41.4 60.7,41.4 47.2,41.4 47.2,54.4 
				60.7,54.4 			"/>
		</defs>
		<clipPath id="SVGID_00000080168779977666099190000011010905005161246118_">
			<use xlink:href="#SVGID_00000021101235021392276310000016378627294367008678_"  style="overflow:visible;"/>
		</clipPath>
		<g style="clip-path:url(#SVGID_00000080168779977666099190000011010905005161246118_);">
			<ellipse class="st8" cx="54" cy="47.9" rx="6.7" ry="6.5"/>
		</g>
	</g>
	<g>
		<defs>
			<polygon id="SVGID_00000036938679247994525320000010757100588125787521_" points="84.5,43.4 84.5,43.4 93.5,43.4 93.5,52.4 
				84.5,52.4 			"/>
		</defs>
		<clipPath id="SVGID_00000070089631551699515570000008729568050731472026_">
			<use xlink:href="#SVGID_00000036938679247994525320000010757100588125787521_"  style="overflow:visible;"/>
		</clipPath>
		<g style="clip-path:url(#SVGID_00000070089631551699515570000008729568050731472026_);">
			<circle class="st11" cx="89" cy="47.9" r="4.5"/>
		</g>
	</g>
	<g>
		<defs>
			<polygon id="SVGID_00000039102193444893897360000016839117784107970205_" points="58.2,43.4 58.2,43.4 49.2,43.4 49.2,52.4 
				58.2,52.4 			"/>
		</defs>
		<clipPath id="SVGID_00000134933206764455073670000000491950532228269502_">
			<use xlink:href="#SVGID_00000039102193444893897360000016839117784107970205_"  style="overflow:visible;"/>
		</clipPath>
		<g style="clip-path:url(#SVGID_00000134933206764455073670000000491950532228269502_);">
			<circle class="st11" cx="53.7" cy="47.9" r="4.5"/>
		</g>
	</g>
	<path class="st13" d="M80.4,71.2c0,0-4.7,3.7-7.4,3.7s-7-3.6-7-3.6s5.4,0.7,7.2,0.7S80.4,71.2,80.4,71.2z"/>
</g>
</svg>
