<?xml version="1.0" encoding="utf-8"?>
<!-- Generator: Adobe Illustrator 26.0.2, SVG Export Plug-In . SVG Version: 6.00 Build 0)  -->
<svg version="1.1" id="Layer_1" xmlns="http://www.w3.org/2000/svg" xmlns:xlink="http://www.w3.org/1999/xlink" x="0px" y="0px"
	 viewBox="0 0 148 115.3" style="enable-background:new 0 0 148 115.3;" xml:space="preserve">
<style type="text/css">
	.st0{fill:#D9D9D9;stroke:#802D31;stroke-width:2;stroke-linecap:round;stroke-miterlimit:10;}
	.st1{fill:none;stroke:#AD7469;stroke-width:2;stroke-linecap:round;stroke-miterlimit:10;}
	.st2{clip-path:url(#SVGID_00000160874371707664710730000016996661084353095816_);}
	.st3{clip-path:url(#SVGID_00000069385213472486816350000013557189891346116244_);}
	.st4{clip-path:url(#SVGID_00000105395220267930020350000015952562817885981593_);}
	.st5{fill:none;stroke:#CDCDCD;stroke-width:2;stroke-linecap:round;stroke-miterlimit:10;}
	.st6{clip-path:url(#SVGID_00000173123476994376747980000012349029196143085492_);}
	.st7{clip-path:url(#SVGID_00000116233308488362296610000000281291423518784897_);}
	.st8{fill:#FFFFFF;}
	.st9{clip-path:url(#SVGID_00000023250499793574742800000008127901362468646305_);}
	.st10{clip-path:url(#SVGID_00000117663620012466332590000004228864391425985709_);}
	.st11{fill:#050505;}
	.st12{clip-path:url(#SVGID_00000116948495830892340860000009050600656912380599_);}
	.st13{fill:#B85D40;}
</style>
<g id="Calque_5">
	<g>
		<defs>
			<rect id="SVGID_1_" x="114.4" y="40.1" width="5.9" height="10.3"/>
		</defs>
		<clipPath id="SVGID_00000133498865774065384710000014193659884526925718_">
			<use xlink:href="#SVGID_1_"  style="overflow:visible;"/>
		</clipPath>
	</g>
	<g>
		<defs>
			<rect id="SVGID_00000075874949095883286010000004900585042622769553_" x="24.5" y="40.1" width="6" height="10.3"/>
		</defs>
		<clipPath id="SVGID_00000097458579772663709230000008983554265840880781_">
			<use xlink:href="#SVGID_00000075874949095883286010000004900585042622769553_"  style="overflow:visible;"/>
		</clipPath>
	</g>
	<path class="st0" d="M63.3,84.7l9.4,0.2c4.3,0.1,9.4-0.2,9.4-0.2"/>
	<path class="st1" d="M65.5,71.9c0,0,5.7,3.4,7.6,3.3s7.1-3.3,7.1-3.3"/>
	<g>
		<defs>
			<rect id="SVGID_00000104706522010828888900000008526436820883534209_" x="81.3" y="69.8" width="7.8" height="7.9"/>
		</defs>
		<clipPath id="SVGID_00000139267556187980769120000013366654746490580145_">
			<use xlink:href="#SVGID_00000104706522010828888900000008526436820883534209_"  style="overflow:visible;"/>
		</clipPath>
		<g style="clip-path:url(#SVGID_00000139267556187980769120000013366654746490580145_);">
			<path class="st1" d="M82.3,70.8c0,0,4.2,4.5,5.7,5.9"/>
		</g>
	</g>
	<g>
		<defs>
			<rect id="SVGID_00000168114749602546288490000007638717951518867114_" x="56.9" y="69.8" width="7.8" height="7.9"/>
		</defs>
		<clipPath id="SVGID_00000176034712028793459040000016235220341952207774_">
			<use xlink:href="#SVGID_00000168114749602546288490000007638717951518867114_"  style="overflow:visible;"/>
		</clipPath>
		<g style="clip-path:url(#SVGID_00000176034712028793459040000016235220341952207774_);">
			<path class="st1" d="M63.6,70.8c0,0-4.2,4.5-5.8,5.9"/>
		</g>
	</g>
	<g>
		<defs>
			<rect id="SVGID_00000040536370621178096860000016040038013630747531_" x="83.9" y="33.3" width="20.1" height="6.4"/>
		</defs>
		<clipPath id="SVGID_00000109723346740957064180000016117499849590842514_">
			<use xlink:href="#SVGID_00000040536370621178096860000016040038013630747531_"  style="overflow:visible;"/>
		</clipPath>
		<g style="clip-path:url(#SVGID_00000109723346740957064180000016117499849590842514_);">
			<path class="st5" d="M84.9,35.6c0,0,4.6-2.8,11.9,0c2.2,0.9,4.3,1.9,6.3,3.1"/>
		</g>
	</g>
	<g>
		<defs>
			<rect id="SVGID_00000084497544309998941500000011716869805911615422_" x="41.5" y="33.3" width="20.1" height="6.4"/>
		</defs>
		<clipPath id="SVGID_00000091015916756110874510000006740989996465365910_">
			<use xlink:href="#SVGID_00000084497544309998941500000011716869805911615422_"  style="overflow:visible;"/>
		</clipPath>
		<g style="clip-path:url(#SVGID_00000091015916756110874510000006740989996465365910_);">
			<path class="st5" d="M60.6,35.6c0,0-4.5-2.8-11.9,0c-2.1,0.9-4.2,1.9-6.2,3.1"/>
		</g>
	</g>
	<g>
		<defs>
			<polygon id="SVGID_00000164475942379557292570000009916571448906930085_" points="81.9,41.3 81.9,41.3 95.3,41.3 95.3,54.2 
				81.9,54.2 			"/>
		</defs>
		<clipPath id="SVGID_00000044875203025547286290000009858422454890751876_">
			<use xlink:href="#SVGID_00000164475942379557292570000009916571448906930085_"  style="overflow:visible;"/>
		</clipPath>
		<g style="clip-path:url(#SVGID_00000044875203025547286290000009858422454890751876_);">
			<ellipse class="st8" cx="88.6" cy="47.7" rx="6.7" ry="6.5"/>
		</g>
	</g>
	<g>
		<defs>
			<polygon id="SVGID_00000145750566344378787570000011287769245496663964_" points="60.6,41.3 60.6,41.3 47.1,41.3 47.1,54.2 
				60.6,54.2 			"/>
		</defs>
		<clipPath id="SVGID_00000053509874127896986000000010522065875452028052_">
			<use xlink:href="#SVGID_00000145750566344378787570000011287769245496663964_"  style="overflow:visible;"/>
		</clipPath>
		<g style="clip-path:url(#SVGID_00000053509874127896986000000010522065875452028052_);">
			<ellipse class="st8" cx="53.8" cy="47.7" rx="6.7" ry="6.5"/>
		</g>
	</g>
	<g id="_Repetition_miroir_">
		<g>
			<defs>
				<polygon id="SVGID_00000171695788522613483280000002022155146858293918_" points="84.4,43.2 84.4,43.2 93.4,43.2 93.4,52.2 
					84.4,52.2 				"/>
			</defs>
			<clipPath id="SVGID_00000085251519710608922250000008435896206997941915_">
				<use xlink:href="#SVGID_00000171695788522613483280000002022155146858293918_"  style="overflow:visible;"/>
			</clipPath>
			<g style="clip-path:url(#SVGID_00000085251519710608922250000008435896206997941915_);">
				<circle class="st11" cx="88.9" cy="47.7" r="4.5"/>
			</g>
		</g>
	</g>
	<g id="_Repetition_miroir_2">
		<g>
			<defs>
				<polygon id="SVGID_00000067227167691748175490000002646140744118126227_" points="58,43.2 58,43.2 49,43.2 49,52.2 58,52.2 				
					"/>
			</defs>
			<clipPath id="SVGID_00000072244450264214005580000016300252113520934799_">
				<use xlink:href="#SVGID_00000067227167691748175490000002646140744118126227_"  style="overflow:visible;"/>
			</clipPath>
			<g style="clip-path:url(#SVGID_00000072244450264214005580000016300252113520934799_);">
				<circle class="st11" cx="53.5" cy="47.7" r="4.5"/>
			</g>
		</g>
	</g>
</g>
<g id="Calque_3">
	<path class="st13" d="M80.4,71.2c0,0-4.7,3.7-7.4,3.7s-7-3.6-7-3.6s5.4,0.7,7.2,0.7S80.4,71.2,80.4,71.2z"/>
</g>
</svg>
