<?xml version="1.0" encoding="utf-8"?>
<!-- Generator: Adobe Illustrator 26.0.2, SVG Export Plug-In . SVG Version: 6.00 Build 0)  -->
<svg version="1.1" id="Calque_1" xmlns="http://www.w3.org/2000/svg" xmlns:xlink="http://www.w3.org/1999/xlink" x="0px" y="0px"
	 viewBox="0 0 788 1005.1" style="enable-background:new 0 0 788 1005.1;" xml:space="preserve">
<style type="text/css">
	.st0{fill:none;stroke:#802D31;stroke-width:2;stroke-linecap:round;stroke-miterlimit:10;}
	.st1{fill:none;stroke:#AD7469;stroke-width:2;stroke-linecap:round;stroke-miterlimit:10;}
	.st2{clip-path:url(#SVGID_00000005242022710154311140000007449545036711297167_);}
	.st3{clip-path:url(#SVGID_00000150102452127930614910000018419591272821051057_);}
	.st4{clip-path:url(#SVGID_00000074422798601727231010000011800725351142201021_);}
	.st5{fill:none;stroke:#D3D3D3;stroke-width:2;stroke-linecap:round;stroke-miterlimit:10;}
	.st6{clip-path:url(#SVGID_00000129190782913868551820000014824963550033749383_);}
	.st7{clip-path:url(#SVGID_00000168079241832503686660000006141225065713098397_);}
	.st8{fill:#FFFFFF;}
	.st9{clip-path:url(#SVGID_00000168111898038974349670000009558328771564391358_);}
	.st10{clip-path:url(#SVGID_00000067237140280934173110000013530849763550246312_);}
	.st11{fill:#050505;}
	.st12{clip-path:url(#SVGID_00000150076456076282120830000013867612199141226681_);}
	.st13{fill:#B85D40;}
	.st14{fill:#D8D5D4;}
</style>
<g id="Calque_3">
	<path class="st0" d="M382.2,203l-4.4-1.3c-3.2-0.9-6.7-0.9-9.8,0.2l-4.5,1.5"/>
	<path class="st1" d="M365.8,190.4c0,0,5.7,3.4,7.6,3.3s7.1-3.3,7.1-3.3"/>
	<g>
		<g>
			<defs>
				<rect id="SVGID_1_" x="381.5" y="188.2" width="7.8" height="7.9"/>
			</defs>
			<clipPath id="SVGID_00000098193530783673552130000006280159895525629829_">
				<use xlink:href="#SVGID_1_"  style="overflow:visible;"/>
			</clipPath>
			<g style="clip-path:url(#SVGID_00000098193530783673552130000006280159895525629829_);">
				<path class="st1" d="M382.5,189.2c0,0,4.2,4.5,5.8,5.9"/>
			</g>
		</g>
	</g>
	<g>
		<g>
			<defs>
				<rect id="SVGID_00000146480907714408572520000002980009278731262370_" x="357.1" y="188.2" width="7.8" height="7.9"/>
			</defs>
			<clipPath id="SVGID_00000130640108864646598030000006821781314327673748_">
				<use xlink:href="#SVGID_00000146480907714408572520000002980009278731262370_"  style="overflow:visible;"/>
			</clipPath>
			<g style="clip-path:url(#SVGID_00000130640108864646598030000006821781314327673748_);">
				<path class="st1" d="M363.9,189.2c0,0-4.2,4.5-5.8,5.9"/>
			</g>
		</g>
	</g>
	<g id="_Repetition_miroir_">
		<g>
			<g>
				<defs>
					<rect id="SVGID_00000016044864085142896080000010662146142652123815_" x="386.1" y="149.9" width="16.8" height="12.8"/>
				</defs>
				<clipPath id="SVGID_00000103971800962813601600000016560914121549704075_">
					<use xlink:href="#SVGID_00000016044864085142896080000010662146142652123815_"  style="overflow:visible;"/>
				</clipPath>
				<g style="clip-path:url(#SVGID_00000103971800962813601600000016560914121549704075_);">
					<path class="st5" d="M387.1,151c0,0,5.4-0.5,10.6,5.3c1.5,1.7,2.9,3.6,4.2,5.5"/>
				</g>
			</g>
		</g>
	</g>
	<g id="_Repetition_miroir_2">
		<g>
			<g>
				<defs>
					<rect id="SVGID_00000057842073388093965740000005477708270224779693_" x="343" y="149.9" width="16.8" height="12.8"/>
				</defs>
				<clipPath id="SVGID_00000101098548065408207270000014822315542823253167_">
					<use xlink:href="#SVGID_00000057842073388093965740000005477708270224779693_"  style="overflow:visible;"/>
				</clipPath>
				<g style="clip-path:url(#SVGID_00000101098548065408207270000014822315542823253167_);">
					<path class="st5" d="M358.8,151c0,0-5.4-0.5-10.6,5.3c-1.5,1.7-2.9,3.6-4.2,5.5"/>
				</g>
			</g>
		</g>
	</g>
	<g>
		<g>
			<defs>
				<polygon id="SVGID_00000066483352512532491600000012019650699860130202_" points="382.1,159.8 382.1,159.8 395.6,159.8 
					395.6,172.7 382.1,172.7 				"/>
			</defs>
			<clipPath id="SVGID_00000057864211831386131530000003651426143974909601_">
				<use xlink:href="#SVGID_00000066483352512532491600000012019650699860130202_"  style="overflow:visible;"/>
			</clipPath>
			<g style="clip-path:url(#SVGID_00000057864211831386131530000003651426143974909601_);">
				<ellipse class="st8" cx="388.9" cy="166.2" rx="6.7" ry="6.5"/>
			</g>
		</g>
	</g>
	<g>
		<g>
			<defs>
				<polygon id="SVGID_00000086665355388777853540000017385986112955942836_" points="360.8,159.8 360.8,159.8 347.3,159.8 
					347.3,172.7 360.8,172.7 				"/>
			</defs>
			<clipPath id="SVGID_00000179612048934466502730000003038511920565499538_">
				<use xlink:href="#SVGID_00000086665355388777853540000017385986112955942836_"  style="overflow:visible;"/>
			</clipPath>
			<g style="clip-path:url(#SVGID_00000179612048934466502730000003038511920565499538_);">
				<ellipse class="st8" cx="354.1" cy="166.2" rx="6.7" ry="6.5"/>
			</g>
		</g>
	</g>
	<g>
		<g>
			<defs>
				<polygon id="SVGID_00000054248944859005519180000002455683906050049698_" points="384.6,161.7 384.6,161.7 393.6,161.7 
					393.6,170.7 384.6,170.7 				"/>
			</defs>
			<clipPath id="SVGID_00000127008626594681767010000011143643776818468752_">
				<use xlink:href="#SVGID_00000054248944859005519180000002455683906050049698_"  style="overflow:visible;"/>
			</clipPath>
			<g style="clip-path:url(#SVGID_00000127008626594681767010000011143643776818468752_);">
				<circle class="st11" cx="389.1" cy="166.2" r="4.5"/>
			</g>
		</g>
	</g>
	<g>
		<g>
			<defs>
				<polygon id="SVGID_00000133512014433209023580000008005338775090801301_" points="358.3,161.7 358.3,161.7 349.3,161.7 
					349.3,170.7 358.3,170.7 				"/>
			</defs>
			<clipPath id="SVGID_00000101091341595141863640000000330096661451437203_">
				<use xlink:href="#SVGID_00000133512014433209023580000008005338775090801301_"  style="overflow:visible;"/>
			</clipPath>
			<g style="clip-path:url(#SVGID_00000101091341595141863640000000330096661451437203_);">
				<circle class="st11" cx="353.8" cy="166.2" r="4.5"/>
			</g>
		</g>
	</g>
	<path class="st13" d="M380.5,189.5c0,0-4.7,3.7-7.4,3.7c-2.6,0-7-3.6-7-3.6s5.4,0.7,7.2,0.7S380.5,189.5,380.5,189.5z"/>
	<path class="st14" d="M343.7,214c-2.4-2.8-2.9-6.9-1.1-10.1c3.3-6.1,8.5-15.1,8.6-15.8c0.2-0.9,13.6-4.9,19.2-6.5
		c1.5-0.4,3.2-0.5,4.7-0.1l15.2,3.8c2.3,0.6,4.2,2,5.4,4c3.3,5.4,9.9,16.2,10,17c0.1,1.1-8.7,19.4-23.7,21.5c-2,0.3-15.2,1-20.1,0
		C355.3,226.3,348,219,343.7,214z"/>
</g>
</svg>
