<?xml version="1.0" encoding="utf-8"?>
<!-- Generator: Adobe Illustrator 26.0.2, SVG Export Plug-In . SVG Version: 6.00 Build 0)  -->
<svg version="1.1" id="Calque_6" xmlns="http://www.w3.org/2000/svg" xmlns:xlink="http://www.w3.org/1999/xlink" x="0px" y="0px"
	 viewBox="0 0 148 115.3" style="enable-background:new 0 0 148 115.3;" xml:space="preserve">
<style type="text/css">
	.st0{fill:#B85D40;}
	.st1{fill:none;stroke:#802D31;stroke-width:2;stroke-linecap:round;stroke-miterlimit:10;}
	.st2{fill:none;stroke:#AD7469;stroke-width:2;stroke-linecap:round;stroke-miterlimit:10;}
	.st3{clip-path:url(#SVGID_00000070089830286670760370000008103389459438232990_);}
	.st4{clip-path:url(#SVGID_00000089562766778141870580000013941183633270274689_);}
	.st5{clip-path:url(#SVGID_00000026856159382524743280000011660589204115614093_);}
	.st6{fill:none;stroke:#CDCDCD;stroke-width:2;stroke-linecap:round;stroke-miterlimit:10;}
	.st7{clip-path:url(#SVGID_00000150800173108683866090000008325952443928328875_);}
</style>
<path class="st0" d="M80.4,71.2c0,0-4.7,3.7-7.4,3.7s-7-3.6-7-3.6s5.4,0.7,7.2,0.7S80.4,71.2,80.4,71.2z"/>
<path class="st1" d="M63.5,85c0,0,5.7,4.4,9.4,3.9c2.8-0.4,9.3-4.1,9.3-4.1"/>
<path class="st1" d="M82.2,84.8l-9.3,2.8c-2.9,0.5-6.4-2.1-9.4-3"/>
<path class="st2" d="M65.7,72c0,0,5.7,3.4,7.6,3.3s7.1-3.3,7.1-3.3"/>
<g>
	<defs>
		<rect id="SVGID_1_" x="81.4" y="69.9" width="7.8" height="7.9"/>
	</defs>
	<clipPath id="SVGID_00000085228636858440753440000006257010329469782151_">
		<use xlink:href="#SVGID_1_"  style="overflow:visible;"/>
	</clipPath>
	<g style="clip-path:url(#SVGID_00000085228636858440753440000006257010329469782151_);">
		<path class="st2" d="M82.4,70.9c0,0,4.2,4.5,5.8,5.9"/>
	</g>
</g>
<g>
	<defs>
		<rect id="SVGID_00000108991453647049100340000008293963682064002727_" x="57" y="69.9" width="7.8" height="7.9"/>
	</defs>
	<clipPath id="SVGID_00000069387113226317833240000015668278765571084217_">
		<use xlink:href="#SVGID_00000108991453647049100340000008293963682064002727_"  style="overflow:visible;"/>
	</clipPath>
	<g style="clip-path:url(#SVGID_00000069387113226317833240000015668278765571084217_);">
		<path class="st2" d="M63.8,70.9c0,0-4.2,4.5-5.8,5.9"/>
	</g>
</g>
<g>
	<defs>
		<rect id="SVGID_00000182524545028356642260000016595249897310155419_" x="84" y="33.5" width="20.1" height="6.4"/>
	</defs>
	<clipPath id="SVGID_00000044175321600003453740000003371310416814372270_">
		<use xlink:href="#SVGID_00000182524545028356642260000016595249897310155419_"  style="overflow:visible;"/>
	</clipPath>
	<g style="clip-path:url(#SVGID_00000044175321600003453740000003371310416814372270_);">
		<path class="st6" d="M85,35.7c0,0,4.6-2.9,11.9,0c2.1,0.9,4.2,1.9,6.2,3.1"/>
	</g>
</g>
<g>
	<defs>
		<rect id="SVGID_00000066508733591742441750000005386526503652605341_" x="41.6" y="33.5" width="20.1" height="6.4"/>
	</defs>
	<clipPath id="SVGID_00000123433929937201462800000013824438807144086927_">
		<use xlink:href="#SVGID_00000066508733591742441750000005386526503652605341_"  style="overflow:visible;"/>
	</clipPath>
	<g style="clip-path:url(#SVGID_00000123433929937201462800000013824438807144086927_);">
		<path class="st6" d="M60.7,35.7c0,0-4.5-2.9-11.9,0c-2.1,0.9-4.2,1.9-6.2,3.1"/>
	</g>
</g>
<path d="M103.2,47.6c-0.7,0.9-1.9,1.1-2.9,0.6c-1.8-1-7-1.1-9-0.5c-2.7,0.8-5.8,1.9-6.7,0.3c-0.2-0.3,1.5-2.9,6.9-3.2
	S100.8,47.3,103.2,47.6L103.2,47.6z"/>
<path d="M43.4,48.7c0.7,0.9,1.9,1.1,2.9,0.6c1.8-1,7-1.1,9-0.5c2.7,0.8,5.8,1.9,6.7,0.3c0.2-0.3-1.5-2.9-6.9-3.2
	S45.9,48.4,43.4,48.7L43.4,48.7z"/>
</svg>
