<?xml version="1.0" encoding="utf-8"?>
<!-- Generator: Adobe Illustrator 26.0.2, SVG Export Plug-In . SVG Version: 6.00 Build 0)  -->
<svg version="1.1" id="Layer_1" xmlns="http://www.w3.org/2000/svg" xmlns:xlink="http://www.w3.org/1999/xlink" x="0px" y="0px"
	 viewBox="0 0 148 115.3" style="enable-background:new 0 0 148 115.3;" xml:space="preserve">
<style type="text/css">
	.st0{fill:#D9D9D9;stroke:#802D31;stroke-width:2;stroke-linecap:round;stroke-miterlimit:10;}
	.st1{stroke:#802D31;stroke-width:2;stroke-linecap:round;stroke-miterlimit:10;}
	.st2{fill:none;stroke:#AD7469;stroke-width:2;stroke-linecap:round;stroke-miterlimit:10;}
	.st3{clip-path:url(#SVGID_00000170966435395025519060000009551324055632549760_);}
	.st4{clip-path:url(#SVGID_00000112596670718483086570000001582173656877722501_);}
	.st5{clip-path:url(#SVGID_00000036225629464671792780000010559000212829016508_);}
	.st6{fill:none;stroke:#CDCDCD;stroke-width:2;stroke-linecap:round;stroke-miterlimit:10;}
	.st7{clip-path:url(#SVGID_00000029023235988475156030000008290947577339224979_);}
	.st8{clip-path:url(#SVGID_00000057848907970231695980000001569047406508112054_);}
	.st9{fill:#FFFFFF;}
	.st10{clip-path:url(#SVGID_00000048466464678135779300000010165782045286236818_);}
	.st11{clip-path:url(#SVGID_00000155844058280039524950000016326322542045799321_);}
	.st12{fill:#050505;}
	.st13{clip-path:url(#SVGID_00000037674498845882954270000001784487701212122524_);}
	.st14{fill:#B85D40;}
</style>
<g id="Calque_5">
	<path class="st0" d="M63.4,84.8c0,0,9.9,6.9,13.6,6.1c2-0.4,5.2-6.2,5.2-6.2"/>
	<polyline class="st1" points="82.1,84.6 72.6,83.2 63.4,85 	"/>
	<path class="st2" d="M65.7,72c0,0,5.7,3.4,7.6,3.3s7.1-3.3,7.1-3.3"/>
	<g>
		<defs>
			<rect id="SVGID_1_" x="81.4" y="69.9" width="7.8" height="7.9"/>
		</defs>
		<clipPath id="SVGID_00000024001969404311340700000007704886639934637983_">
			<use xlink:href="#SVGID_1_"  style="overflow:visible;"/>
		</clipPath>
		<g style="clip-path:url(#SVGID_00000024001969404311340700000007704886639934637983_);">
			<path class="st2" d="M82.4,70.9c0,0,4.2,4.5,5.8,5.9"/>
		</g>
	</g>
	<g>
		<defs>
			<rect id="SVGID_00000172438664528811106370000003040783495298994849_" x="57" y="69.9" width="7.8" height="7.9"/>
		</defs>
		<clipPath id="SVGID_00000010271451137922340940000006357034867150728618_">
			<use xlink:href="#SVGID_00000172438664528811106370000003040783495298994849_"  style="overflow:visible;"/>
		</clipPath>
		<g style="clip-path:url(#SVGID_00000010271451137922340940000006357034867150728618_);">
			<path class="st2" d="M63.8,70.9c0,0-4.2,4.5-5.8,5.9"/>
		</g>
	</g>
	<g>
		<defs>
			<rect id="SVGID_00000009561745097432593050000013441524323936072356_" x="84" y="33.5" width="20.1" height="6.4"/>
		</defs>
		<clipPath id="SVGID_00000167395147742584850990000008372164256054106498_">
			<use xlink:href="#SVGID_00000009561745097432593050000013441524323936072356_"  style="overflow:visible;"/>
		</clipPath>
		<g style="clip-path:url(#SVGID_00000167395147742584850990000008372164256054106498_);">
			<path class="st6" d="M85,35.7c0,0,4.6-2.9,11.9,0c2.1,0.9,4.2,1.9,6.2,3.1"/>
		</g>
	</g>
	<g>
		<defs>
			<rect id="SVGID_00000060021729989410765610000014343185235212560809_" x="41.6" y="33.5" width="20.1" height="6.4"/>
		</defs>
		<clipPath id="SVGID_00000106847227769071546190000016759838587662307243_">
			<use xlink:href="#SVGID_00000060021729989410765610000014343185235212560809_"  style="overflow:visible;"/>
		</clipPath>
		<g style="clip-path:url(#SVGID_00000106847227769071546190000016759838587662307243_);">
			<path class="st6" d="M60.7,35.7c0,0-4.5-2.9-11.9,0c-2.1,0.9-4.2,1.9-6.2,3.1"/>
		</g>
	</g>
	<g>
		<defs>
			<polygon id="SVGID_00000124856524105475258750000002283725457735836816_" points="82,41.4 82,41.4 95.5,41.4 95.5,54.4 82,54.4 
							"/>
		</defs>
		<clipPath id="SVGID_00000056400807681698542630000003579790496153576082_">
			<use xlink:href="#SVGID_00000124856524105475258750000002283725457735836816_"  style="overflow:visible;"/>
		</clipPath>
		<g style="clip-path:url(#SVGID_00000056400807681698542630000003579790496153576082_);">
			<ellipse class="st9" cx="88.7" cy="47.9" rx="6.7" ry="6.5"/>
		</g>
	</g>
	<g>
		<defs>
			<polygon id="SVGID_00000178207315573057009500000002184342676670520758_" points="60.7,41.4 60.7,41.4 47.2,41.4 47.2,54.4 
				60.7,54.4 			"/>
		</defs>
		<clipPath id="SVGID_00000022535156346165541140000002339956112587775634_">
			<use xlink:href="#SVGID_00000178207315573057009500000002184342676670520758_"  style="overflow:visible;"/>
		</clipPath>
		<g style="clip-path:url(#SVGID_00000022535156346165541140000002339956112587775634_);">
			<ellipse class="st9" cx="54" cy="47.9" rx="6.7" ry="6.5"/>
		</g>
	</g>
	<g>
		<defs>
			<polygon id="SVGID_00000073682060043018122100000017376229331839948933_" points="87,42.1 87,42.1 96,42.1 96,51.1 87,51.1 			
				"/>
		</defs>
		<clipPath id="SVGID_00000003099198809050797650000013480052799784244611_">
			<use xlink:href="#SVGID_00000073682060043018122100000017376229331839948933_"  style="overflow:visible;"/>
		</clipPath>
		<g style="clip-path:url(#SVGID_00000003099198809050797650000013480052799784244611_);">
			<circle class="st12" cx="91.5" cy="46.6" r="4.5"/>
		</g>
	</g>
	<g>
		<defs>
			<polygon id="SVGID_00000060742461519846210630000003439746992443522997_" points="60.7,42.1 60.7,42.1 51.7,42.1 51.7,51.1 
				60.7,51.1 			"/>
		</defs>
		<clipPath id="SVGID_00000110456371298811990410000007753750773661794451_">
			<use xlink:href="#SVGID_00000060742461519846210630000003439746992443522997_"  style="overflow:visible;"/>
		</clipPath>
		<g style="clip-path:url(#SVGID_00000110456371298811990410000007753750773661794451_);">
			<circle class="st12" cx="56.2" cy="46.6" r="4.5"/>
		</g>
	</g>
</g>
<g id="Calque_3">
	<path class="st14" d="M80.4,71.2c0,0-4.7,3.7-7.4,3.7s-7-3.6-7-3.6s5.4,0.7,7.2,0.7S80.4,71.2,80.4,71.2z"/>
</g>
</svg>
