<svg xmlns="http://www.w3.org/2000/svg" xmlns:xlink="http://www.w3.org/1999/xlink" viewBox="0 0 100 100"><defs><style>.cls-1,.cls-5,.cls-7{fill:none;}.cls-2{fill:#fff;}.cls-3{fill:#080808;}.cls-4{clip-path:url(#clip-path);}.cls-5{stroke:#000;}.cls-5,.cls-7{stroke-linecap:round;stroke-miterlimit:10;stroke-width:2px;}.cls-6{clip-path:url(#clip-path-2);}.cls-7{stroke:#4e2d1d;}.cls-8{fill:#68373b;}.cls-9{fill:#629cf6;}</style><clipPath id="clip-path"><rect class="cls-1" x="58.82" y="23.32" width="21.58" height="7.06"/></clipPath><clipPath id="clip-path-2"><rect class="cls-1" x="19.6" y="23.32" width="21.58" height="7.06"/></clipPath></defs><g id="Calque_3" data-name="Calque 3"><path class="cls-2" d="M73.53,37.71a6.75,6.75,0,0,1-13.5,0Z"/><path class="cls-2" d="M38.68,37.71a6.75,6.75,0,0,1-13.5,0Z"/><path class="cls-3" d="M36,38.29a4,4,0,0,1-8,0,2.78,2.78,0,0,1,0-.58H36A2.78,2.78,0,0,1,36,38.29Z"/><path class="cls-3" d="M71,38.29a4,4,0,1,1-8,0,2.78,2.78,0,0,1,0-.58h7.9A2.78,2.78,0,0,1,71,38.29Z"/><g class="cls-4"><path class="cls-5" d="M59.82,24.32c9.84.17,19.58,5.05,19.58,5.05"/></g><g class="cls-6"><path class="cls-5" d="M40.18,24.32c-9.84.17-19.58,5.05-19.58,5.05"/></g><path class="cls-7" d="M38.71,76.47c3.1.14,7.19.22,11.26.21s8.06-.1,11-.25"/><path class="cls-8" d="M57.89,59.88s-4.69,3.69-7.42,3.68c-2.58,0-7-3.59-7-3.59s5.4.73,7.21.72S57.89,59.88,57.89,59.88Z"/><ellipse class="cls-9" cx="26.63" cy="48.13" rx="3.87" ry="4.38"/></g></svg>