<svg xmlns="http://www.w3.org/2000/svg" xmlns:xlink="http://www.w3.org/1999/xlink" viewBox="0 0 788 1005"><defs><style>.cls-1,.cls-10,.cls-6{fill:none;}.cls-2{clip-path:url(#clip-path);}.cls-3{fill:#a85b3b;}.cls-4{clip-path:url(#clip-path-2);}.cls-5{clip-path:url(#clip-path-3);}.cls-6{stroke:#000;}.cls-10,.cls-6{stroke-linecap:round;stroke-miterlimit:10;stroke-width:2px;}.cls-7{clip-path:url(#clip-path-4);}.cls-8{fill:#26130c;}.cls-9{clip-path:url(#clip-path-5);}.cls-10{stroke:#9e5b3e;}.cls-11{clip-path:url(#clip-path-6);}</style><clipPath id="clip-path"><polygon class="cls-1" points="429.72 177.02 429.72 177.02 446.06 177.02 446.06 209.96 429.72 209.96 429.72 177.02"/></clipPath><clipPath id="clip-path-2"><polygon class="cls-1" points="358.28 177.02 358.28 177.02 341.94 177.02 341.94 209.96 358.28 209.96 358.28 177.02"/></clipPath><clipPath id="clip-path-3"><rect class="cls-1" x="415.34" y="170.22" width="22.15" height="6.68"/></clipPath><clipPath id="clip-path-4"><rect class="cls-1" x="376.05" y="170.22" width="22.15" height="6.68"/></clipPath><clipPath id="clip-path-5"><rect class="cls-1" x="407.44" y="195.15" width="18.62" height="5.29"/></clipPath><clipPath id="clip-path-6"><rect class="cls-1" x="362.93" y="195.15" width="18.62" height="5.29"/></clipPath></defs><g id="Calque_1" data-name="Calque 1"><g id="random" data-name="&lt;Repetition miroir&gt;"><g class="cls-2"><path class="cls-3" d="M429.72,210l3-28.25s6.56-7.84,12.25-3.25c3.78,3-3.13,28.22-7.5,29.5C430,210.14,429.72,210,429.72,210Z"/></g></g><g id="random2" data-name="&lt;Repetition miroir&gt;"><g class="cls-4"><path class="cls-3" d="M358.28,210l-3-28.25s-6.56-7.84-12.25-3.25c-3.78,3,3.13,28.22,7.5,29.5C358,210.14,358.28,210,358.28,210Z"/></g></g></g><g id="Calque_5" data-name="Calque 5"><g class="cls-5"><path class="cls-6" d="M416.34,174.5a14.89,14.89,0,0,1,20.16,1.39"/></g><g class="cls-7"><path class="cls-6" d="M397.21,174.5a14.89,14.89,0,0,0-20.16,1.39"/></g><path class="cls-3" d="M383.24,254.94l-22.63-24.42-5.5-27-1.5-24.2v-6.34A38.91,38.91,0,0,1,392.53,134H394a38.92,38.92,0,0,1,38.92,38.92v6.34l-1.5,24.2-5.5,27-22.64,24.42Z"/><path class="cls-8" d="M429.63,149.22c12,10.39,6.63,29.47,6.63,29.47l-3.92,10.83s.84-5.33-6.19-20.34c-1.66-3.54,1.87-13-.23-16.62-4.64-7.9-9.35-11.07-9.35-11.07S421.57,142.22,429.63,149.22Z"/><path class="cls-8" d="M356.88,148.88c-12,10.22-6.62,29-6.62,29l3.91,10.66s-.84-5.24,6.19-20c1.66-3.48-1.87-12.82.23-16.35,4.64-7.77,9.35-10.89,9.35-10.89S364.94,142,356.88,148.88Z"/><g class="cls-9"><path class="cls-10" d="M408.44,196.87s4.6,2.56,8.31,2.57a13,13,0,0,0,8.31-3.29"/></g><g class="cls-11"><path class="cls-10" d="M380.55,196.87s-4.6,2.56-8.31,2.57a13.07,13.07,0,0,1-8.31-3.29"/></g></g><g id="Calque_6" data-name="Calque 6"><path class="cls-8" d="M433.1,149.29q-1.08.48-2.37,1c10.52,10.58,5.52,28.44,5.52,28.44l-3.91,10.84s.84-5.33-6.19-20.35c-1.66-3.53,1.87-13-.23-16.62l-.35-.58c-10.47,3.17-25.31,6-33.68,6-7.09,0-25.44-3.05-31.85-4.15-.73,4.2,1.77,11.7.32,14.74-7,14.76-6.19,20-6.19,20l-3.92-10.66s-2.63-9.24-.06-18.28a14.48,14.48,0,0,1,.41-4.34c.83-2.68,5.6-7.75,5.6-7.75s-.59-4.86.09-6.14c3.69-7,23.65-12.85,33.76-13,22.2-.37,28.47,10.44,39.07,11.77,3.79.48,15.06-2.21,15.06-2.21A20.78,20.78,0,0,1,433.1,149.29Z"/><g class="cls-9"><path class="cls-10" d="M408.44,196.87s4.6,2.56,8.31,2.57a13,13,0,0,0,8.31-3.29"/></g><g class="cls-11"><path class="cls-10" d="M380.55,196.87s-4.6,2.56-8.31,2.57a13.07,13.07,0,0,1-8.31-3.29"/></g></g></svg>