<svg xmlns="http://www.w3.org/2000/svg" xmlns:xlink="http://www.w3.org/1999/xlink" viewBox="0 0 788 1005"><defs><style>.cls-1,.cls-13,.cls-8{fill:none;}.cls-2{clip-path:url(#clip-path);}.cls-3{fill:#a85b3b;}.cls-4{clip-path:url(#clip-path-2);}.cls-5{fill:#fff;}.cls-6{fill:#080808;}.cls-10,.cls-6,.cls-8{stroke:#000;}.cls-10,.cls-13,.cls-6,.cls-8{stroke-miterlimit:10;}.cls-7{clip-path:url(#clip-path-3);}.cls-10,.cls-13,.cls-8{stroke-linecap:round;}.cls-13,.cls-8{stroke-width:2px;}.cls-9{clip-path:url(#clip-path-4);}.cls-10{fill:#0a0a0a;}.cls-11{fill:#26130c;}.cls-12{clip-path:url(#clip-path-5);}.cls-13{stroke:#9e5b3e;}.cls-14{clip-path:url(#clip-path-6);}</style><clipPath id="clip-path"><polygon class="cls-1" points="429.72 177.02 429.72 177.02 446.06 177.02 446.06 209.96 429.72 209.96 429.72 177.02"/></clipPath><clipPath id="clip-path-2"><polygon class="cls-1" points="358.28 177.02 358.28 177.02 341.94 177.02 341.94 209.96 358.28 209.96 358.28 177.02"/></clipPath><clipPath id="clip-path-3"><rect class="cls-1" x="402.57" y="170.22" width="22.15" height="6.68"/></clipPath><clipPath id="clip-path-4"><rect class="cls-1" x="363.28" y="170.22" width="22.15" height="6.68"/></clipPath><clipPath id="clip-path-5"><rect class="cls-1" x="407.44" y="195.15" width="18.62" height="5.29"/></clipPath><clipPath id="clip-path-6"><rect class="cls-1" x="362.93" y="195.15" width="18.62" height="5.29"/></clipPath></defs><g id="Calque_1" data-name="Calque 1"><g id="random" data-name="&lt;Repetition miroir&gt;"><g class="cls-2"><path class="cls-3" d="M429.72,210l3-28.25s6.56-7.84,12.25-3.25c3.78,3-3.13,28.22-7.5,29.5C430,210.14,429.72,210,429.72,210Z"/></g></g><g id="random2" data-name="&lt;Repetition miroir&gt;"><g class="cls-4"><path class="cls-3" d="M358.28,210l-3-28.25s-6.56-7.84-12.25-3.25c-3.78,3,3.13,28.22,7.5,29.5C358,210.14,358.28,210,358.28,210Z"/></g></g></g><g id="Calque_7" data-name="Calque 7"><circle class="cls-5" cx="410.78" cy="187.12" r="6.75"/><circle class="cls-5" cx="375.92" cy="187.12" r="6.75"/><circle class="cls-6" cx="378" cy="187.26" r="4"/><circle class="cls-6" cx="412.94" cy="187.26" r="4"/><g class="cls-7"><path class="cls-8" d="M403.57,174.5a14.87,14.87,0,0,1,20.15,1.39"/></g><g class="cls-9"><path class="cls-8" d="M384.43,174.5a14.87,14.87,0,0,0-20.15,1.39"/></g><path class="cls-3" d="M401.89,209.35S397.2,213,394.47,213s-7-3.6-7-3.6,5.4.73,7.21.72S401.89,209.35,401.89,209.35Z"/><ellipse class="cls-10" cx="394.31" cy="228.81" rx="2.88" ry="4.5"/><path class="cls-11" d="M377.5,222.41c.12-3.33,9.84-7.1,18.56-5.95,8.9,1.17,16.41,7.4,15.76,9.11-.45,1.19-5.2.82-8.75-.35-5.15-1.7-5.14-4.19-8.41-4.56-5.71-.64-7.76,5-12.66,3.65C380.24,223.82,377.46,223.87,377.5,222.41Z"/><path class="cls-3" d="M383.24,254.94l-22.63-24.42-5.5-27-1.5-24.2v-6.34A38.91,38.91,0,0,1,392.53,134H394a38.92,38.92,0,0,1,38.92,38.92v6.34l-1.5,24.2-5.5,27-22.64,24.42Z"/><path class="cls-11" d="M429.63,149.22c12,10.39,6.63,29.47,6.63,29.47l-3.92,10.83s.84-5.33-6.19-20.34c-1.66-3.54,1.87-13-.23-16.62-4.64-7.9-9.35-11.07-9.35-11.07S421.57,142.22,429.63,149.22Z"/><path class="cls-11" d="M356.88,148.88c-12,10.22-6.62,29-6.62,29l3.91,10.66s-.84-5.24,6.19-20c1.66-3.48-1.87-12.82.23-16.35,4.64-7.77,9.35-10.89,9.35-10.89S364.94,142,356.88,148.88Z"/><g class="cls-12"><path class="cls-13" d="M408.44,196.87s4.6,2.56,8.31,2.57a13,13,0,0,0,8.31-3.29"/></g><g class="cls-14"><path class="cls-13" d="M380.55,196.87s-4.6,2.56-8.31,2.57a13.07,13.07,0,0,1-8.31-3.29"/></g><path class="cls-11" d="M417.88,151.88s-7.93-5.85-16.6-5.61c-38.92,1.08-45.13,17.27-49.18,23.95-.53-20,2.71-32.56,33.1-41.26,10.56-3,16.39-.64,19.26-3.87,1.56-1.76-.73-6.67-3.75-8.63s13.46,5.28,17.06,8.5c2.49,2.22,5.07,9.51,5.12,12.85C423,142.16,417.88,151.88,417.88,151.88Z"/></g></svg>