<svg xmlns="http://www.w3.org/2000/svg" xmlns:xlink="http://www.w3.org/1999/xlink" viewBox="0 0 188 156.98"><defs><style>.cls-1,.cls-5{fill:none;}.cls-2{fill:#a85b3b;}.cls-3{fill:#26130c;}.cls-4{clip-path:url(#clip-path);}.cls-5{stroke:#9e5b3e;stroke-linecap:round;stroke-miterlimit:10;stroke-width:2px;}.cls-6{clip-path:url(#clip-path-2);}.cls-7{clip-path:url(#clip-path-3);}.cls-8{clip-path:url(#clip-path-4);}</style><clipPath id="clip-path"><rect class="cls-1" x="107.44" y="86.83" width="18.62" height="5.29"/></clipPath><clipPath id="clip-path-2"><rect class="cls-1" x="62.93" y="86.83" width="18.62" height="5.29"/></clipPath><clipPath id="clip-path-3"><polygon class="cls-1" points="129.72 69.32 129.72 69.32 146.06 69.32 146.06 102.26 129.72 102.26 129.72 69.32"/></clipPath><clipPath id="clip-path-4"><polygon class="cls-1" points="58.28 69.32 58.28 69.32 41.94 69.32 41.94 102.26 58.28 102.26 58.28 69.32"/></clipPath></defs><g id="Calque_1" data-name="Calque 1"><path class="cls-2" d="M84.21,146.78l-23-24.06L55.26,95.77,53.37,71.6l-.1-6.34A38.93,38.93,0,0,1,91.56,25.72h0l1.43,0h0A38.92,38.92,0,0,1,132.53,64l.1,6.35-1.11,24.21-5.07,27.13L104.2,146.46Z"/><path class="cls-3" d="M129.63,40.9c12,10.4,6.63,29.47,6.63,29.47l-3.92,10.84s.84-5.33-6.19-20.35c-1.66-3.53,1.87-13-.23-16.62-4.64-7.9-9.35-11.07-9.35-11.07S121.57,33.9,129.63,40.9Z"/><path class="cls-3" d="M56.88,40.56c-12,10.22-6.62,29-6.62,29l3.91,10.66s-.84-5.25,6.19-20c1.66-3.48-1.87-12.83.23-16.36C65.23,36.08,69.94,33,69.94,33S64.94,33.68,56.88,40.56Z"/><g class="cls-4"><path class="cls-5" d="M108.44,88.55s4.6,2.56,8.31,2.58a13.08,13.08,0,0,0,8.31-3.3"/></g><g class="cls-6"><path class="cls-5" d="M80.55,88.55s-4.6,2.56-8.31,2.58a13.12,13.12,0,0,1-8.31-3.3"/></g><g id="random" data-name="&lt;Répétition miroir&gt;"><g class="cls-7"><path class="cls-2" d="M129.72,102.26l3-28.25s6.56-7.84,12.25-3.25c3.78,3-3.13,28.22-7.5,29.5C130,102.44,129.72,102.26,129.72,102.26Z"/></g></g><g id="random2" data-name="&lt;Répétition miroir&gt;"><g class="cls-8"><path class="cls-2" d="M58.28,102.26,55.28,74S48.72,66.17,43,70.76c-3.78,3,3.13,28.22,7.5,29.5C58,102.44,58.28,102.26,58.28,102.26Z"/></g></g><g id="random3" data-name="&lt;Répétition miroir&gt;"><g class="cls-7"><path class="cls-2" d="M129.72,102.26l3-28.25s6.56-7.84,12.25-3.25c3.78,3-3.13,28.22-7.5,29.5C130,102.44,129.72,102.26,129.72,102.26Z"/></g></g><g id="random4" data-name="&lt;Répétition miroir&gt;"><g class="cls-8"><path class="cls-2" d="M58.28,102.26,55.28,74S48.72,66.17,43,70.76c-3.78,3,3.13,28.22,7.5,29.5C58,102.44,58.28,102.26,58.28,102.26Z"/></g></g></g><g id="Calque_5" data-name="Calque 5"><path class="cls-3" d="M54.54,79.42S49.06,54.62,51,47.37c.83-3.06,5.6-8.86,5.6-8.86s-.6-5.56.08-7c3.7-8,23.66-14.69,33.77-14.89,22.19-.42,28.47,11.94,39.07,13.47,3.78.54,15.06-2.53,15.06-2.53a23.05,23.05,0,0,1-11.08,13c-9.19,4.66-30.51,9.93-41.21,9.89-8.66,0-34.1-5.19-34.1-5.19S57,56.1,56.46,59.94C55.84,64.42,54.54,79.42,54.54,79.42Z"/></g></svg>