<svg xmlns="http://www.w3.org/2000/svg" xmlns:xlink="http://www.w3.org/1999/xlink" viewBox="0 0 188 156.98"><defs><style>.cls-1,.cls-13,.cls-8{fill:none;}.cls-2{clip-path:url(#clip-path);}.cls-3{fill:#a85b3b;}.cls-4{clip-path:url(#clip-path-2);}.cls-5{fill:#fff;}.cls-6{fill:#080808;}.cls-10,.cls-6,.cls-8{stroke:#000;}.cls-10,.cls-13,.cls-6,.cls-8{stroke-miterlimit:10;}.cls-7{clip-path:url(#clip-path-3);}.cls-10,.cls-13,.cls-8{stroke-linecap:round;}.cls-13,.cls-8{stroke-width:2px;}.cls-9{clip-path:url(#clip-path-4);}.cls-10{fill:#0a0a0a;}.cls-11{fill:#26130c;}.cls-12{clip-path:url(#clip-path-5);}.cls-13{stroke:#9e5b3e;}.cls-14{clip-path:url(#clip-path-6);}</style><clipPath id="clip-path"><polygon class="cls-1" points="129.72 69.32 129.72 69.32 146.06 69.32 146.06 102.26 129.72 102.26 129.72 69.32"/></clipPath><clipPath id="clip-path-2"><polygon class="cls-1" points="58.28 69.32 58.28 69.32 41.94 69.32 41.94 102.26 58.28 102.26 58.28 69.32"/></clipPath><clipPath id="clip-path-3"><rect class="cls-1" x="102.57" y="62.52" width="22.15" height="6.68"/></clipPath><clipPath id="clip-path-4"><rect class="cls-1" x="63.28" y="62.52" width="22.15" height="6.68"/></clipPath><clipPath id="clip-path-5"><rect class="cls-1" x="107.44" y="87.45" width="18.62" height="5.29"/></clipPath><clipPath id="clip-path-6"><rect class="cls-1" x="62.93" y="87.45" width="18.62" height="5.29"/></clipPath></defs><g id="Calque_1" data-name="Calque 1"><g id="random" data-name="&lt;Répétition miroir&gt;"><g class="cls-2"><path class="cls-3" d="M129.72,102.26l3-28.25s6.56-7.84,12.25-3.25c3.78,3-3.13,28.22-7.5,29.5C130,102.44,129.72,102.26,129.72,102.26Z"/></g></g><g id="random2" data-name="&lt;Répétition miroir&gt;"><g class="cls-4"><path class="cls-3" d="M58.28,102.26,55.28,74S48.72,66.17,43,70.76c-3.78,3,3.13,28.22,7.5,29.5C58,102.44,58.28,102.26,58.28,102.26Z"/></g></g></g><g id="Calque_7" data-name="Calque 7"><circle class="cls-5" cx="110.78" cy="79.42" r="6.75"/><circle class="cls-5" cx="75.92" cy="79.42" r="6.75"/><circle class="cls-6" cx="78" cy="79.56" r="4"/><circle class="cls-6" cx="112.94" cy="79.56" r="4"/><g class="cls-7"><path class="cls-8" d="M103.57,66.8a14.87,14.87,0,0,1,20.15,1.39"/></g><g class="cls-9"><path class="cls-8" d="M84.43,66.8a14.87,14.87,0,0,0-20.15,1.39"/></g><path class="cls-3" d="M101.89,101.65s-4.69,3.69-7.42,3.69c-2.58,0-7-3.6-7-3.6s5.4.73,7.21.72S101.89,101.65,101.89,101.65Z"/><ellipse class="cls-10" cx="94.31" cy="121.11" rx="2.88" ry="4.5"/><path class="cls-11" d="M77.5,114.72c.12-3.34,9.84-7.11,18.56-6,8.9,1.17,16.41,7.4,15.76,9.11-.45,1.19-5.2.82-8.75-.35-5.15-1.7-5.14-4.19-8.41-4.56-5.71-.64-7.76,5-12.66,3.65C80.24,116.12,77.46,116.18,77.5,114.72Z"/><path class="cls-3" d="M83.24,147.24,60.61,122.82l-5.5-27-1.5-24.2V65.24A38.92,38.92,0,0,1,92.53,26.32H94a38.93,38.93,0,0,1,38.92,38.92v6.34l-1.5,24.2-5.5,27-22.64,24.42Z"/><path class="cls-11" d="M129.63,41.52c12,10.39,6.63,29.47,6.63,29.47l-3.92,10.83s.84-5.33-6.19-20.34c-1.66-3.54,1.87-13-.23-16.62-4.64-7.9-9.35-11.07-9.35-11.07S121.57,34.52,129.63,41.52Z"/><path class="cls-11" d="M56.88,41.18c-12,10.22-6.62,29-6.62,29l3.91,10.66s-.84-5.24,6.19-20C62,57.33,58.49,48,60.59,44.46c4.64-7.77,9.35-10.89,9.35-10.89S64.94,34.29,56.88,41.18Z"/><g class="cls-12"><path class="cls-13" d="M108.44,89.17s4.6,2.56,8.31,2.57a13,13,0,0,0,8.31-3.29"/></g><g class="cls-14"><path class="cls-13" d="M80.55,89.17s-4.6,2.56-8.31,2.57a13.07,13.07,0,0,1-8.31-3.29"/></g><path class="cls-11" d="M117.88,44.18s-7.93-5.85-16.6-5.61c-38.92,1.08-45.13,17.27-49.18,24-.53-20,2.71-32.56,33.1-41.26,10.56-3,16.39-.64,19.26-3.87,1.56-1.76-.73-6.67-3.75-8.63s13.46,5.28,17.06,8.5c2.49,2.22,5.07,9.51,5.12,12.85C123,34.46,117.88,44.18,117.88,44.18Z"/></g></svg>