<svg id="Calque_1" data-name="Calque 1" xmlns="http://www.w3.org/2000/svg" xmlns:xlink="http://www.w3.org/1999/xlink" viewBox="0 0 788 1005"><defs><style>.cls-1,.cls-5{fill:none;}.cls-2{fill:#a85b3b;}.cls-3{fill:#26130c;}.cls-4{clip-path:url(#clip-path);}.cls-5{stroke:#9e5b3e;stroke-linecap:round;stroke-miterlimit:10;stroke-width:2px;}.cls-6{clip-path:url(#clip-path-2);}.cls-7{clip-path:url(#clip-path-3);}.cls-8{clip-path:url(#clip-path-4);}.cls-9{fill:#733119;}.cls-10{fill:#4f2518;}</style><clipPath id="clip-path"><rect class="cls-1" x="407.44" y="194.53" width="18.62" height="5.29"/></clipPath><clipPath id="clip-path-2"><rect class="cls-1" x="362.93" y="194.53" width="18.62" height="5.29"/></clipPath><clipPath id="clip-path-3"><polygon class="cls-1" points="429.72 177.02 429.72 177.02 446.06 177.02 446.06 209.96 429.72 209.96 429.72 177.02"/></clipPath><clipPath id="clip-path-4"><polygon class="cls-1" points="358.28 177.02 358.28 177.02 341.94 177.02 341.94 209.96 358.28 209.96 358.28 177.02"/></clipPath></defs><path class="cls-2" d="M383.24,254.33,360.61,229.9l-5.5-27-1.5-24.19v-6.35a38.92,38.92,0,0,1,38.92-38.92H394a38.93,38.93,0,0,1,38.92,38.92v6.35l-1.5,24.19-5.5,27-22.64,24.43Z"/><path class="cls-3" d="M429.63,148.6c12,10.39,6.63,29.47,6.63,29.47l-3.92,10.84s.84-5.33-6.19-20.35c-1.66-3.53,1.87-13-.23-16.62-4.64-7.9-9.35-11.07-9.35-11.07S421.57,141.6,429.63,148.6Z"/><path class="cls-3" d="M356.88,148.26c-12,10.22-6.62,29-6.62,29l3.91,10.66s-.84-5.25,6.19-20c1.66-3.48-1.87-12.83.23-16.36,4.64-7.76,9.35-10.88,9.35-10.88S364.94,141.38,356.88,148.26Z"/><g class="cls-4"><path class="cls-5" d="M408.44,196.25s4.6,2.56,8.31,2.58a13.08,13.08,0,0,0,8.31-3.3"/></g><g class="cls-6"><path class="cls-5" d="M380.55,196.25s-4.6,2.56-8.31,2.58a13.12,13.12,0,0,1-8.31-3.3"/></g><g id="random" data-name="&lt;Repetition miroir&gt;"><g class="cls-7"><path class="cls-2" d="M429.72,210l3-28.25s6.56-7.84,12.25-3.25c3.78,3-3.13,28.22-7.5,29.5C430,210.14,429.72,210,429.72,210Z"/></g></g><g id="random2" data-name="&lt;Repetition miroir&gt;"><g class="cls-8"><path class="cls-2" d="M358.28,210l-3-28.25s-6.56-7.84-12.25-3.25c-3.78,3,3.13,28.22,7.5,29.5C358,210.14,358.28,210,358.28,210Z"/></g></g><path class="cls-9" d="M442.51,144,398.9,159l-49.83,5.95v-8.19c0-5.83,8.42-16.24,14.21-21,11.82-9.73,58.23-12.56,69.6-2.31,6.17,5.57,9.23,14.71,9.23,14.71Z"/><path class="cls-10" d="M349,164.91l34.89-13.32c18-5.78,48.74-9.21,48.74-9.21,5.81-.66,26.66,3.05,21.33,12.51-2.38,4.22-16.58,10-16.58,10l-20.47-3.16a133.7,133.7,0,0,0-36.24-.62Z"/></svg>