<svg id="Calque_1" data-name="Calque 1" xmlns="http://www.w3.org/2000/svg" xmlns:xlink="http://www.w3.org/1999/xlink" viewBox="0 0 188 156.98"><defs><style>.cls-1,.cls-5{fill:none;}.cls-2{fill:#a85b3b;}.cls-3{fill:#26130c;}.cls-4{clip-path:url(#clip-path);}.cls-5{stroke:#9e5b3e;stroke-linecap:round;stroke-miterlimit:10;stroke-width:2px;}.cls-6{clip-path:url(#clip-path-2);}.cls-7{clip-path:url(#clip-path-3);}.cls-8{clip-path:url(#clip-path-4);}.cls-9{fill:#733119;}.cls-10{fill:#4f2518;}</style><clipPath id="clip-path"><rect class="cls-1" x="107.44" y="86.83" width="18.62" height="5.29"/></clipPath><clipPath id="clip-path-2"><rect class="cls-1" x="62.93" y="86.83" width="18.62" height="5.29"/></clipPath><clipPath id="clip-path-3"><polygon class="cls-1" points="129.72 69.32 129.72 69.32 146.06 69.32 146.06 102.26 129.72 102.26 129.72 69.32"/></clipPath><clipPath id="clip-path-4"><polygon class="cls-1" points="58.28 69.32 58.28 69.32 41.94 69.32 41.94 102.26 58.28 102.26 58.28 69.32"/></clipPath></defs><path class="cls-2" d="M83.24,146.63,60.61,122.2l-5.5-27L53.61,71V64.62A38.92,38.92,0,0,1,92.53,25.7H94a38.93,38.93,0,0,1,38.92,38.92V71l-1.5,24.19-5.5,27-22.64,24.43Z"/><path class="cls-3" d="M129.63,40.9c12,10.4,6.63,29.47,6.63,29.47l-3.92,10.84s.84-5.33-6.19-20.35c-1.66-3.53,1.87-13-.23-16.62-4.64-7.9-9.35-11.07-9.35-11.07S121.57,33.9,129.63,40.9Z"/><path class="cls-3" d="M56.88,40.56c-12,10.22-6.62,29-6.62,29l3.91,10.66s-.84-5.25,6.19-20c1.66-3.48-1.87-12.83.23-16.36C65.23,36.08,69.94,33,69.94,33S64.94,33.68,56.88,40.56Z"/><g class="cls-4"><path class="cls-5" d="M108.44,88.55s4.6,2.56,8.31,2.58a13.08,13.08,0,0,0,8.31-3.3"/></g><g class="cls-6"><path class="cls-5" d="M80.55,88.55s-4.6,2.56-8.31,2.58a13.12,13.12,0,0,1-8.31-3.3"/></g><g id="_Répétition_miroir_" data-name="&lt;Répétition miroir&gt;"><g class="cls-7"><path class="cls-2" d="M129.72,102.26l3-28.25s6.56-7.84,12.25-3.25c3.78,3-3.13,28.22-7.5,29.5C130,102.44,129.72,102.26,129.72,102.26Z"/></g></g><g id="_Répétition_miroir_2" data-name="&lt;Répétition miroir&gt;"><g class="cls-8"><path class="cls-2" d="M58.28,102.26,55.28,74S48.72,66.17,43,70.76c-3.78,3,3.13,28.22,7.5,29.5C58,102.44,58.28,102.26,58.28,102.26Z"/></g></g><path class="cls-9" d="M142.51,36.34,98.9,51.26l-49.83,6V49c0-5.83,8.42-16.24,14.21-21,11.82-9.72,58.23-12.56,69.6-2.31,6.17,5.57,9.23,14.71,9.23,14.71Z"/><path class="cls-10" d="M49,57.21,83.87,43.89c18-5.78,48.74-9.21,48.74-9.21,5.81-.66,26.66,3,21.33,12.51-2.38,4.22-16.58,10-16.58,10l-20.47-3.16a133.7,133.7,0,0,0-36.24-.62Z"/></svg>