<svg id="Calque_1" data-name="Calque 1" xmlns="http://www.w3.org/2000/svg" xmlns:xlink="http://www.w3.org/1999/xlink" viewBox="0 0 188 156.98"><defs><style>.cls-1,.cls-5{fill:none;}.cls-2{fill:#a85b3b;}.cls-3{fill:#26130c;}.cls-4{clip-path:url(#clip-path);}.cls-5{stroke:#9e5b3e;stroke-linecap:round;stroke-miterlimit:10;stroke-width:2px;}.cls-6{clip-path:url(#clip-path-2);}.cls-7{clip-path:url(#clip-path-3);}.cls-8{clip-path:url(#clip-path-4);}</style><clipPath id="clip-path"><rect class="cls-1" x="107.44" y="87.45" width="18.62" height="5.29"/></clipPath><clipPath id="clip-path-2"><rect class="cls-1" x="62.93" y="87.45" width="18.62" height="5.29"/></clipPath><clipPath id="clip-path-3"><polygon class="cls-1" points="129.72 69.32 129.72 69.32 146.06 69.32 146.06 102.26 129.72 102.26 129.72 69.32"/></clipPath><clipPath id="clip-path-4"><polygon class="cls-1" points="58.28 69.32 58.28 69.32 41.94 69.32 41.94 102.26 58.28 102.26 58.28 69.32"/></clipPath></defs><path class="cls-2" d="M83.24,147.24,60.61,122.82l-5.5-27-1.5-24.2V65.24A38.92,38.92,0,0,1,92.53,26.32H94a38.93,38.93,0,0,1,38.92,38.92v6.34l-1.5,24.2-5.5,27-22.64,24.42Z"/><path class="cls-3" d="M129.63,41.52c12,10.39,6.63,29.47,6.63,29.47l-3.92,10.83s.84-5.33-6.19-20.34c-1.66-3.54,1.87-13-.23-16.62-4.64-7.9-9.35-11.07-9.35-11.07S121.57,34.52,129.63,41.52Z"/><path class="cls-3" d="M56.88,41.18c-12,10.22-6.62,29-6.62,29l3.91,10.66s-.84-5.24,6.19-20C62,57.33,58.49,48,60.59,44.46c4.64-7.77,9.35-10.89,9.35-10.89S64.94,34.29,56.88,41.18Z"/><g class="cls-4"><path class="cls-5" d="M108.44,89.17s4.6,2.56,8.31,2.57a13,13,0,0,0,8.31-3.29"/></g><g class="cls-6"><path class="cls-5" d="M80.55,89.17s-4.6,2.56-8.31,2.57a13.07,13.07,0,0,1-8.31-3.29"/></g><g id="_Répétition_miroir_" data-name="&lt;Répétition miroir&gt;"><g class="cls-7"><path class="cls-2" d="M129.72,102.26l3-28.25s6.56-7.84,12.25-3.25c3.78,3-3.13,28.22-7.5,29.5C130,102.44,129.72,102.26,129.72,102.26Z"/></g></g><g id="_Répétition_miroir_2" data-name="&lt;Répétition miroir&gt;"><g class="cls-8"><path class="cls-2" d="M58.28,102.26,55.28,74S48.72,66.17,43,70.76c-3.78,3,3.13,28.22,7.5,29.5C58,102.44,58.28,102.26,58.28,102.26Z"/></g></g></svg>