<svg id="Calque_1" data-name="Calque 1" xmlns="http://www.w3.org/2000/svg" xmlns:xlink="http://www.w3.org/1999/xlink" viewBox="0 0 188 156.98"><defs><style>.cls-1,.cls-5{fill:none;}.cls-2{fill:#a85b3b;}.cls-3{fill:#26130c;}.cls-4{clip-path:url(#clip-path);}.cls-5{stroke:#9e5b3e;stroke-linecap:round;stroke-miterlimit:10;stroke-width:2px;}.cls-6{clip-path:url(#clip-path-2);}.cls-7{clip-path:url(#clip-path-3);}.cls-8{clip-path:url(#clip-path-4);}.cls-9{fill:#46455b;}.cls-10{fill:#343451;}</style><clipPath id="clip-path"><rect class="cls-1" x="107.44" y="86.83" width="18.62" height="5.29"/></clipPath><clipPath id="clip-path-2"><rect class="cls-1" x="62.93" y="86.83" width="18.62" height="5.29"/></clipPath><clipPath id="clip-path-3"><polygon class="cls-1" points="129.72 69.32 129.72 69.32 146.06 69.32 146.06 102.26 129.72 102.26 129.72 69.32"/></clipPath><clipPath id="clip-path-4"><polygon class="cls-1" points="58.28 69.32 58.28 69.32 41.94 69.32 41.94 102.26 58.28 102.26 58.28 69.32"/></clipPath></defs><path class="cls-2" d="M83.24,146.63,60.61,122.2l-5.5-27L53.61,71V64.62A38.92,38.92,0,0,1,92.53,25.7H94a38.93,38.93,0,0,1,38.92,38.92V71l-1.5,24.19-5.5,27-22.64,24.43Z"/><path class="cls-3" d="M129.63,40.9c12,10.4,6.63,29.47,6.63,29.47l-3.92,10.84s.84-5.33-6.19-20.35c-1.66-3.53,1.87-13-.23-16.62-4.64-7.9-9.35-11.07-9.35-11.07S121.57,33.9,129.63,40.9Z"/><path class="cls-3" d="M56.88,40.56c-12,10.22-6.62,29-6.62,29l3.91,10.66s-.84-5.25,6.19-20c1.66-3.48-1.87-12.83.23-16.36C65.23,36.08,69.94,33,69.94,33S64.94,33.68,56.88,40.56Z"/><g class="cls-4"><path class="cls-5" d="M108.44,88.55s4.6,2.56,8.31,2.58a13.08,13.08,0,0,0,8.31-3.3"/></g><g class="cls-6"><path class="cls-5" d="M80.55,88.55s-4.6,2.56-8.31,2.58a13.12,13.12,0,0,1-8.31-3.3"/></g><g id="random" data-name="&lt;Repetition miroir&gt;"><g class="cls-7"><path class="cls-2" d="M129.72,102.26l3-28.25s6.56-7.84,12.25-3.25c3.78,3-3.13,28.22-7.5,29.5C130,102.44,129.72,102.26,129.72,102.26Z"/></g></g><g id="random2" data-name="&lt;Repetition miroir&gt;"><g class="cls-8"><path class="cls-2" d="M58.28,102.26,55.28,74S48.72,66.17,43,70.76c-3.78,3,3.13,28.22,7.5,29.5C58,102.44,58.28,102.26,58.28,102.26Z"/></g></g><g id="random3" data-name="&lt;Repetition miroir&gt;"><g class="cls-7"><path class="cls-2" d="M129.72,102.26l3-28.25s6.56-7.84,12.25-3.25c3.78,3-3.13,28.22-7.5,29.5C130,102.44,129.72,102.26,129.72,102.26Z"/></g></g><g id="random4" data-name="&lt;Repetition miroir&gt;"><g class="cls-8"><path class="cls-2" d="M58.28,102.26,55.28,74S48.72,66.17,43,70.76c-3.78,3,3.13,28.22,7.5,29.5C58,102.44,58.28,102.26,58.28,102.26Z"/></g></g><path class="cls-9" d="M141.4,55.49,118,51.62a151.9,151.9,0,0,0-49.44,0L45.09,55.49l-1.58-8.1c0-2.59-.79,2.3,0,0,2-5.81-8.67,10.41-14.37,8.1l-8.3-3.37C31.31,33.17,59.51-20.27,122,8.28c15.09,6.89,19.38,28.14,19.38,34.82Z"/><rect class="cls-10" x="43.51" y="45.15" width="99.46" height="14.65" rx="2.24"/><path class="cls-10" d="M39.22,57.54c0,7.25-5.88,11.22-13.13,11.22S13,64.79,13,57.54a13.13,13.13,0,1,1,26.26,0Z"/></svg>