<svg xmlns="http://www.w3.org/2000/svg" xmlns:xlink="http://www.w3.org/1999/xlink" viewBox="0 0 788 1005"><defs><style>.cls-1,.cls-5{fill:none;}.cls-2{fill:#a85b3b;}.cls-3{fill:#26130c;}.cls-4{clip-path:url(#clip-path);}.cls-5{stroke:#9e5b3e;stroke-linecap:round;stroke-miterlimit:10;stroke-width:2px;}.cls-6{clip-path:url(#clip-path-2);}.cls-7{clip-path:url(#clip-path-3);}.cls-8{clip-path:url(#clip-path-4);}</style><clipPath id="clip-path"><rect class="cls-1" x="407.44" y="194.53" width="18.62" height="5.29"/></clipPath><clipPath id="clip-path-2"><rect class="cls-1" x="362.93" y="194.53" width="18.62" height="5.29"/></clipPath><clipPath id="clip-path-3"><polygon class="cls-1" points="429.72 177.02 429.72 177.02 446.06 177.02 446.06 209.96 429.72 209.96 429.72 177.02"/></clipPath><clipPath id="clip-path-4"><polygon class="cls-1" points="358.28 177.02 358.28 177.02 341.94 177.02 341.94 209.96 358.28 209.96 358.28 177.02"/></clipPath></defs><g id="Calque_1" data-name="Calque 1"><path class="cls-2" d="M384.21,254.48l-23-24.06-5.93-26.95-1.89-24.17-.1-6.34a38.93,38.93,0,0,1,38.29-39.54h0l1.43,0h0a38.92,38.92,0,0,1,39.54,38.29l.1,6.35-1.11,24.21-5.07,27.13L404.2,254.16Z"/><path class="cls-3" d="M429.63,148.6c12,10.39,6.63,29.47,6.63,29.47l-3.92,10.84s.84-5.33-6.19-20.35c-1.66-3.53,1.87-13-.23-16.62-4.64-7.9-9.35-11.07-9.35-11.07S421.57,141.6,429.63,148.6Z"/><path class="cls-3" d="M356.88,148.26c-12,10.22-6.62,29-6.62,29l3.91,10.66s-.84-5.25,6.19-20c1.66-3.48-1.87-12.83.23-16.36,4.64-7.76,9.35-10.88,9.35-10.88S364.94,141.38,356.88,148.26Z"/><g class="cls-4"><path class="cls-5" d="M408.44,196.25s4.6,2.56,8.31,2.58a13.08,13.08,0,0,0,8.31-3.3"/></g><g class="cls-6"><path class="cls-5" d="M380.55,196.25s-4.6,2.56-8.31,2.58a13.12,13.12,0,0,1-8.31-3.3"/></g><g id="_Répétition_miroir_" data-name="&lt;Répétition miroir&gt;"><g class="cls-7"><path class="cls-2" d="M429.72,210l3-28.25s6.56-7.84,12.25-3.25c3.78,3-3.13,28.22-7.5,29.5C430,210.14,429.72,210,429.72,210Z"/></g></g><g id="_Répétition_miroir_2" data-name="&lt;Répétition miroir&gt;"><g class="cls-8"><path class="cls-2" d="M358.28,210l-3-28.25s-6.56-7.84-12.25-3.25c-3.78,3,3.13,28.22,7.5,29.5C358,210.14,358.28,210,358.28,210Z"/></g></g><g id="_Répétition_miroir_3" data-name="&lt;Répétition miroir&gt;"><g class="cls-7"><path class="cls-2" d="M429.72,210l3-28.25s6.56-7.84,12.25-3.25c3.78,3-3.13,28.22-7.5,29.5C430,210.14,429.72,210,429.72,210Z"/></g></g><g id="_Répétition_miroir_4" data-name="&lt;Répétition miroir&gt;"><g class="cls-8"><path class="cls-2" d="M358.28,210l-3-28.25s-6.56-7.84-12.25-3.25c-3.78,3,3.13,28.22,7.5,29.5C358,210.14,358.28,210,358.28,210Z"/></g></g></g><g id="Calque_5" data-name="Calque 5"><path class="cls-3" d="M354.54,187.12s-5.48-24.8-3.53-32.05c.83-3.06,5.6-8.86,5.6-8.86s-.6-5.56.08-7c3.7-8,23.66-14.69,33.77-14.89,22.19-.42,28.47,11.94,39.07,13.47,3.78.54,15.06-2.54,15.06-2.54a23.06,23.06,0,0,1-11.08,13c-9.19,4.66-30.51,9.93-41.21,9.89-8.66,0-34.1-5.19-34.1-5.19s-1.21,10.85-1.74,14.69C355.84,172.12,354.54,187.12,354.54,187.12Z"/></g></svg>