<svg id="Calque_1" data-name="Calque 1" xmlns="http://www.w3.org/2000/svg" xmlns:xlink="http://www.w3.org/1999/xlink" viewBox="0 0 788 1005"><defs><style>.cls-1{fill:none;}.cls-2{fill:#a85b3b;}.cls-3{clip-path:url(#clip-path);}.cls-4{clip-path:url(#clip-path-2);}</style><clipPath id="clip-path"><polygon class="cls-1" points="429.72 177.02 429.72 177.02 446.06 177.02 446.06 209.96 429.72 209.96 429.72 177.02"/></clipPath><clipPath id="clip-path-2"><polygon class="cls-1" points="358.28 177.02 358.28 177.02 341.94 177.02 341.94 209.96 358.28 209.96 358.28 177.02"/></clipPath></defs><path class="cls-2" d="M383.24,254.33,360.61,229.9l-5.5-27-1.5-24.19v-6.35a38.92,38.92,0,0,1,38.92-38.92H394a38.93,38.93,0,0,1,38.92,38.92v6.35l-1.5,24.19-5.5,27-22.64,24.43Z"/><g id="random" data-name="&lt;Repetition miroir&gt;"><g class="cls-3"><path class="cls-2" d="M429.72,210l3-28.25s6.56-7.84,12.25-3.25c3.78,3-3.13,28.22-7.5,29.5C430,210.14,429.72,210,429.72,210Z"/></g></g><g id="random2" data-name="&lt;Repetition miroir&gt;"><g class="cls-4"><path class="cls-2" d="M358.28,210l-3-28.25s-6.56-7.84-12.25-3.25c-3.78,3,3.13,28.22,7.5,29.5C358,210.14,358.28,210,358.28,210Z"/></g></g><g id="random3" data-name="&lt;Repetition miroir&gt;"><g class="cls-3"><path class="cls-2" d="M429.72,210l3-28.25s6.56-7.84,12.25-3.25c3.78,3-3.13,28.22-7.5,29.5C430,210.14,429.72,210,429.72,210Z"/></g></g><g id="random4" data-name="&lt;Repetition miroir&gt;"><g class="cls-4"><path class="cls-2" d="M358.28,210l-3-28.25s-6.56-7.84-12.25-3.25c-3.78,3,3.13,28.22,7.5,29.5C358,210.14,358.28,210,358.28,210Z"/></g></g></svg>