<svg id="Calque_1" data-name="Calque 1" xmlns="http://www.w3.org/2000/svg" xmlns:xlink="http://www.w3.org/1999/xlink" viewBox="0 0 788 1005"><defs><style>.cls-1,.cls-5{fill:none;}.cls-2{fill:#26130c;}.cls-3{fill:#a85b3b;}.cls-4{clip-path:url(#clip-path);}.cls-5{stroke:#9e5b3e;stroke-linecap:round;stroke-miterlimit:10;stroke-width:2px;}.cls-6{clip-path:url(#clip-path-2);}.cls-7{clip-path:url(#clip-path-3);}.cls-8{clip-path:url(#clip-path-4);}</style><clipPath id="clip-path"><rect class="cls-1" x="407.44" y="195.15" width="18.62" height="5.29"/></clipPath><clipPath id="clip-path-2"><rect class="cls-1" x="362.93" y="195.15" width="18.62" height="5.29"/></clipPath><clipPath id="clip-path-3"><polygon class="cls-1" points="429.72 177.02 429.72 177.02 446.06 177.02 446.06 209.96 429.72 209.96 429.72 177.02"/></clipPath><clipPath id="clip-path-4"><polygon class="cls-1" points="358.28 177.02 358.28 177.02 341.94 177.02 341.94 209.96 358.28 209.96 358.28 177.02"/></clipPath></defs><path class="cls-2" d="M446.78,194.48c0,41-22.9,29.83-52.47,29.83s-54.6,11.15-54.6-29.83,0-58.41,54.29-58.55C443,135.8,446.78,153.5,446.78,194.48Z"/><path class="cls-3" d="M383.24,254.94l-22.63-24.42-5.5-27-1.5-24.2v-6.34A38.91,38.91,0,0,1,392.53,134H394a38.92,38.92,0,0,1,38.92,38.92v6.34l-1.5,24.2-5.5,27-22.64,24.42Z"/><path class="cls-2" d="M429.63,149.22c12,10.39,6.63,29.47,6.63,29.47l-3.92,10.83s.84-5.33-6.19-20.34c-1.66-3.54,1.87-13-.23-16.62-4.64-7.9-9.35-11.07-9.35-11.07S421.57,142.22,429.63,149.22Z"/><path class="cls-2" d="M356.88,148.88c-12,10.22-6.62,29-6.62,29l3.91,10.66s-.84-5.24,6.19-20c1.66-3.48-1.87-12.82.23-16.35,4.64-7.77,9.35-10.89,9.35-10.89S364.94,142,356.88,148.88Z"/><g class="cls-4"><path class="cls-5" d="M408.44,196.87s4.6,2.56,8.31,2.57a13,13,0,0,0,8.31-3.29"/></g><g class="cls-6"><path class="cls-5" d="M380.55,196.87s-4.6,2.56-8.31,2.57a13.07,13.07,0,0,1-8.31-3.29"/></g><g id="random" data-name="&lt;Répétition miroir&gt;"><g class="cls-7"><path class="cls-3" d="M429.72,210l3-28.25s6.56-7.84,12.25-3.25c3.78,3-3.13,28.22-7.5,29.5C430,210.14,429.72,210,429.72,210Z"/></g></g><g id="random2" data-name="&lt;Répétition miroir&gt;"><g class="cls-8"><path class="cls-3" d="M358.28,210l-3-28.25s-6.56-7.84-12.25-3.25c-3.78,3,3.13,28.22,7.5,29.5C358,210.14,358.28,210,358.28,210Z"/></g></g><g id="random3" data-name="&lt;Répétition miroir&gt;"><g class="cls-7"><path class="cls-3" d="M429.72,210l3-28.25s6.56-7.84,12.25-3.25c3.78,3-3.13,28.22-7.5,29.5C430,210.14,429.72,210,429.72,210Z"/></g></g><g id="random4" data-name="&lt;Répétition miroir&gt;"><g class="cls-8"><path class="cls-3" d="M358.28,210l-3-28.25s-6.56-7.84-12.25-3.25c-3.78,3,3.13,28.22,7.5,29.5C358,210.14,358.28,210,358.28,210Z"/></g></g></svg>