<svg id="Calque_1" data-name="Calque 1" xmlns="http://www.w3.org/2000/svg" xmlns:xlink="http://www.w3.org/1999/xlink" viewBox="0 0 188 156.98"><defs><style>.cls-1{fill:none;}.cls-2{fill:#a85b3b;}.cls-3{clip-path:url(#clip-path);}.cls-4{clip-path:url(#clip-path-2);}</style><clipPath id="clip-path"><polygon class="cls-1" points="129.72 69.32 129.72 69.32 146.06 69.32 146.06 102.26 129.72 102.26 129.72 69.32"/></clipPath><clipPath id="clip-path-2"><polygon class="cls-1" points="58.28 69.32 58.28 69.32 41.94 69.32 41.94 102.26 58.28 102.26 58.28 69.32"/></clipPath></defs><path class="cls-2" d="M83.24,146.63,60.61,122.2l-5.5-27L53.61,71V64.62A38.92,38.92,0,0,1,92.53,25.7H94a38.93,38.93,0,0,1,38.92,38.92V71l-1.5,24.19-5.5,27-22.64,24.43Z"/><g id="random" data-name="&lt;Repetition miroir&gt;"><g class="cls-3"><path class="cls-2" d="M129.72,102.26l3-28.25s6.56-7.84,12.25-3.25c3.78,3-3.13,28.22-7.5,29.5C130,102.44,129.72,102.26,129.72,102.26Z"/></g></g><g id="random2" data-name="&lt;Repetition miroir&gt;"><g class="cls-4"><path class="cls-2" d="M58.28,102.26,55.28,74S48.72,66.17,43,70.76c-3.78,3,3.13,28.22,7.5,29.5C58,102.44,58.28,102.26,58.28,102.26Z"/></g></g><g id="random3" data-name="&lt;Repetition miroir&gt;"><g class="cls-3"><path class="cls-2" d="M129.72,102.26l3-28.25s6.56-7.84,12.25-3.25c3.78,3-3.13,28.22-7.5,29.5C130,102.44,129.72,102.26,129.72,102.26Z"/></g></g><g id="random4" data-name="&lt;Repetition miroir&gt;"><g class="cls-4"><path class="cls-2" d="M58.28,102.26,55.28,74S48.72,66.17,43,70.76c-3.78,3,3.13,28.22,7.5,29.5C58,102.44,58.28,102.26,58.28,102.26Z"/></g></g></svg>