<svg xmlns="http://www.w3.org/2000/svg" viewBox="0 0 788 1005"><defs><style>.cls-1{fill:#7a909d;}.cls-2{fill:#f6af97;}.cls-3{fill:#a45f5e;}.cls-4{fill:#94abb9;}.cls-5{fill:#d68f72;stroke:#000;stroke-miterlimit:10;stroke-width:3px;}.cls-6{fill:#824b26;}.cls-7{fill:#8e5725;}.cls-8{fill:#dddee0;}.cls-9{fill:#accadd;}.cls-10{fill:#9498b9;}</style></defs><g id="Calque_7" data-name="Calque 7"><polygon class="cls-1" points="364.84 193.85 365.7 164.95 426.18 164.31 425.84 193.85 364.84 193.85"/><polygon points="230.22 479.54 230.32 479.5 230.22 479.45 230.22 479.54"/><polygon points="230.32 479.5 230.42 479.54 230.42 479.45 230.32 479.5"/><polygon points="230.22 479.54 230.32 479.5 230.22 479.45 230.22 479.54"/><polygon points="230.32 479.5 230.42 479.54 230.42 479.45 230.32 479.5"/><path class="cls-2" d="M411.2,321.48c10.75,7,22.27,34.85,34.77,37.73,4.44,1,13.35-5.25,15.8-9.09,8.91-14,4.6-53.23,17.19-64,10.65-9.12,36.25-3.91,36.86-42.3.36-23.34-26.87-34.47-33.53-36.84a30.4,30.4,0,0,1-3.17-1.34l-40.53-20.1a28.48,28.48,0,0,1-15.82-25.14l-.23-18.05-27,2.06-23-8L371,158.05c.09,12.07-8.62,23.16-19.43,28.52l-40.15,19.92s-35.41,10.74-35,37.33c.6,38.39,26.2,33.18,36.86,42.3,12.58,10.77,8.27,50,17.18,64,2.45,3.84,11.36,10.11,15.8,9.09,12.51-2.88,23.52-31.57,34.77-37.73C387.63,317.85,404.88,317.36,411.2,321.48Z"/><path class="cls-3" d="M397.45,136.52h25l.23,25.43,1.27,6.3s-41.88,52.18-50,48.25c-6.75-3.26-14.84-35.1-14.84-35.1s6.9-6,9.58-18.49,1.07-26.49,1.07-26.49Z"/><path class="cls-4" d="M458,250.55c11.9,25,40.93,38.77,40.93,38.77s53,32.77,70.43,44c8.23,5.28,25.21,16.57,39-3.61h0c11.33-16.63-2.81-30.35-10.19-36.17-15-11.83-47.9-32.65-60.5-46.74-9.38-10.49-23.29-34.09-46.67-39.95,0,0-15.07-3.15-28.21,12l-.52.59A28.69,28.69,0,0,0,458,250.55Z"/><path class="cls-5" d="M325.81,224c17.78,21.22,18.25,53.35,18.25,53.35s7.78,61.78,10.69,82.33c1.38,9.69,4.59,29.83-19.48,33.93h0c-19.84,3.38-26.43-15.18-28.66-24.31-4.52-18.57-9.77-57.14-17.35-74.45-5.64-12.9-19.37-30.58-15-54.28,0,0,1.47-19.8,20.71-25.45l.76-.22a28.69,28.69,0,0,1,30.07,9.1Z"/><polygon class="cls-6" points="318.13 451.3 319.63 423.93 474.63 423.93 471.51 447.77 318.13 451.3"/><path class="cls-7" d="M312.9,410.49l1.63-132.17L302.9,206.54,359,179l42.81,52.53,36.33-49.16,61,27.38-6.77,103.63-26.6,72.06,8.18,10.8a23.1,23.1,0,0,1,3.27,22l-2.7,7.33L318.36,428l-3.62-8.34A22.27,22.27,0,0,1,312.9,410.49Z"/><rect class="cls-8" x="451.02" y="233.57" width="225.48" height="156.33" rx="10.58" transform="translate(-32.59 68.08) rotate(-6.72)"/><path class="cls-2" d="M670,361.2h2.47a6.79,6.79,0,0,1,6.79,6.79v15.44a6.79,6.79,0,0,1-6.79,6.79h0a6.79,6.79,0,0,1-6.79-6.79V365.53A4.33,4.33,0,0,1,670,361.2Z" transform="translate(-95.91 321.17) rotate(-25.13)"/><path class="cls-3" d="M607.73,385.14l40.46-6.66-2.09,20.94a3.66,3.66,0,0,1-4.53,3.19L632,400.24A41.56,41.56,0,0,1,615,391.38Z"/><path class="cls-2" d="M638.53,362.12h10.29a16.82,16.82,0,0,1,16.82,16.82v5.26a15.9,15.9,0,0,1-15.9,15.9h-8.88A10.11,10.11,0,0,1,630.74,390V369.9A7.78,7.78,0,0,1,638.53,362.12Z" transform="translate(-100.5 311.38) rotate(-25.13)"/><path class="cls-2" d="M451.83,322.79l13,20.09,11.45-2.25,24.17-3.74a16.64,16.64,0,0,0,13.16-10.95l6.73-19.24,29.79-4.41a8.66,8.66,0,0,0,7.28-8.46l0-1.22-34.92,2.54,1.88-5-17.72.3-10.39.05a31,31,0,0,0-16,4.57l-9.44,5.73c-2,2.17-2.65,3.18-6.43,8.4L459,316.72"/><path class="cls-2" d="M310.73,373.21c-3.84-19.52,17.3-30.13,25.21-33.52s25.41-6.37,34-7.85c22-3.78,59.51-7.3,81-11.3,14.13-2.63,21.51-4.42,25.59,4.16,3.71,7.81-4.14,13.7-8.88,16.53-19.51,11.64-61.65,36.06-84,44.85-9.18,3.61-28.42,9.19-38.27,9.61C317.81,396.87,311.84,378.88,310.73,373.21Z"/><path class="cls-4" d="M302.9,206.54s-26,11.36-33.6,21.35c-7.31,9.58-3.1,48.94-3.1,48.94s16.62,94.07,37.83,116c5,5.15,22.43,9.93,31.36,12.1a15.59,15.59,0,0,0,10.16-.95l100.86-45.63-8.46-40-91.14,11.88-18-67.58"/><polygon class="cls-9" points="355.72 183.32 365.7 164.95 393.37 211.45 377.44 235.85 355.72 183.32"/><polygon class="cls-9" points="440.1 185.17 426.18 164.31 405.49 210.69 424.19 234.02 440.1 185.17"/><polygon class="cls-10" points="393.37 211.45 401.54 231.5 390.52 222.41 377.44 235.85 393.37 211.45"/><polygon class="cls-10" points="401.54 231.5 405.49 210.69 424.19 234.02 410.81 223.47 401.54 231.5"/></g></svg>