<svg xmlns="http://www.w3.org/2000/svg" viewBox="0 0 788 455"><defs><style>.cls-1{fill:#d38e72;}.cls-2{fill:#a45f5e;}.cls-3,.cls-5{fill:none;}.cls-3{stroke:#000;stroke-miterlimit:10;stroke-width:3px;}.cls-4{fill:#d79072;}.cls-6{fill:#f6af97;}.cls-7{fill:#46455b;}.cls-8{fill:#de9d92;}.cls-9{fill:#37344d;}.cls-10{fill:#66463a;}.cls-11{fill:#3a2c28;}</style></defs><g id="Calque_5" data-name="Calque 5"><path class="cls-1" d="M477,152.14c-.6,38.39-26.2,33.17-36.86,42.29-12.58,10.77-8.27,50-17.18,64-2.45,3.84-11.36,10.1-15.8,9.08-12.51-2.87-24-30.73-34.77-37.73-6.33-4.12-23.57-3.62-30.19,0-11.25,6.16-22.27,34.86-34.77,37.73-4.44,1-13.35-5.24-15.8-9.08-8.91-14-4.6-53.24-17.19-64-10.65-9.12-36.25-3.9-36.86-42.29-.41-26.59,35-37.34,35-37.34l40.15-19.91a31.4,31.4,0,0,0,7.1-4.82,29.11,29.11,0,0,0,2.29-2.29c.23-.25.46-.51.68-.77A31.55,31.55,0,0,0,330,70.58a30.71,30.71,0,0,0,.25-4.19l0-2.84-.09-12.89.78.06.46,0,25.38,2,26.89-2.06h.07l.07,5.24.1,8.11,0,1.5,0,3.21c0,.33,0,.67,0,1v0c0,.65.09,1.3.16,2a29.38,29.38,0,0,0,.93,4.57,28.5,28.5,0,0,0,14.7,17.59L440.3,114a27.41,27.41,0,0,0,3.16,1.33C450.13,117.67,477.36,128.8,477,152.14Z"/><path class="cls-1" d="M384.63,107.32l-27.5,32.5-14.8-17.69-12.39-14.81.72-41.56,0-2.21.23-12.83v-.06l0-1.34.46-.07c0,.47,0,.94,0,1.41h52.27l.15,8.6.08,4.66v0l0,1.56.07,4.21v0L384,71l.12,6.79Z"/><path class="cls-2" d="M385.13,76.57l-1,1.25c-5.16,6.33-28.83,35-41.79,44.31-3.2,2.29-5.74,3.39-7.2,2.69-6.76-3.26-14.84-35.1-14.84-35.1l.08-.07a21,21,0,0,0,1.73-1.87q.48-.57,1-1.32l.06-.08a39.39,39.39,0,0,0,6.66-15.16c0-.21.09-.42.13-.64.26-1.37.48-3,.66-4.82.07-.71.13-1.45.19-2.21.3-3.81.46-8.25.53-12.79v-.1h52.38l0,5.24v3.37l0,4.28,0,6.72L384,71l.14.67.93,4.57Z"/><path class="cls-3" d="M419.12,158.87c11.91,25,40.93,38.77,40.93,38.77s53,32.76,70.44,44c8.23,5.27,25.21,16.57,39-3.61h0c11.33-16.64-2.81-30.36-10.19-36.17-15-11.84-47.91-32.65-60.5-46.74-9.38-10.5-19.75-30.34-43.13-36.2,0,0-18.61-6.9-31.75,8.25l-.52.6a28.71,28.71,0,0,0-4.23,31.14Z"/><path class="cls-4" d="M555.43,204.06c-18.55-7.17-32.67,11.81-37.39,19S507.36,247,504.41,255.21c-7.55,21-17.53,57.34-25.19,77.8-5.05,13.46-8.09,20.41-.35,25.92,7.05,5,16.12-5.74,19.73-9.92,14.86-17.19,44.31-50.41,56.84-70.9,5.15-8.42,14-26.39,16.11-36C577.5,215.14,560.82,206.14,555.43,204.06Z"/><path class="cls-3" d="M426.92,314.65c-.88-4-5.67-25.28-5.62-33.83.06-9.17,4-27.71,1.81-36.66-9.77-39.58-123.54-39.65-133.33,0-2.21,9,1.75,27.49,1.81,36.66.05,8.55-4.74,29.81-5.62,33.83C274.94,365,356.32,388,356.32,388S438,365,426.92,314.65Z"/><path class="cls-5" d="M395.5,299.79c16.15,5.23,23.2,9.63,27,16.57,3.11,5.61,6,18.48,6.27,24.9.55,15.06-7.77,52.94-21.93,65.58-14.4,12.85-84.79,12.85-99.19,0-14.16-12.64-22.48-50.52-21.93-65.58.23-6.42,3.16-19.29,6.27-24.9,3.84-6.94,10.88-11.34,27-16.57,18.49-6,37.3-5,37.3-5S377,293.82,395.5,299.79Z"/><path class="cls-6" d="M177.29,267.29c19.9-.15,26.05-23,27.8-31.41s1.14-26.18.87-34.9c-.7-22.34-4.76-59.77-5.14-81.62-.25-14.37,0-22-9.2-24.24-8.39-2.07-12.88,11.27-14.71,16.48-7.5,21.44-22.69,63.16-26.83,86.82-1.69,9.72-3.31,29.68-1.75,39.42C152.7,265.09,171.51,267.33,177.29,267.29Z"/><path class="cls-3" d="M296.53,159.15C288,185.48,261,202.93,261,202.93s-48.23,39.39-64.1,52.77c-7.48,6.31-22.84,19.72-39.09,1.51h0c-13.4-15-1.17-30.47,5.38-37.2,13.34-13.69,43.24-38.61,53.89-54.23,7.93-11.63,15.62-32.65,38-41.52,0,0,17.55-9.26,32.56,4l.59.52a28.7,28.7,0,0,1,8.25,30.32Z"/><path class="cls-7" d="M383.82,63.55s3.07,21.51,11.6,26.75c7,4.31,39.18,21,61.18,26.76,34.89,9.21,70.82,63.78,109.85,87.57,7.29,4.44,8.88,20.65,8.48,26.66-.75,11.14-10.2,30.6-15.74,41.8C548.48,294.75,508.08,347,508.08,347l-2.52,3.93a8,8,0,0,1-12.24,1.55L480,340.11a11.2,11.2,0,0,1-2.3-13.4l7.63-14.57,26.53-79.75-67.71-39.84-10.27,66.5L451.58,376.7l-13.31,21.07-168.78.39-6.68-14.53,14.9-127.47-6.89-56.51s-51.92,43.24-68.2,56.48c-6.63,5.4-25.81,16.2-34.19,14.51-8-1.6-19-14.5-21.24-21.75-3.46-10.95-2.82-34.64-.73-45.94,3.35-18.11,16.8-64.31,21.64-80.7a6.83,6.83,0,0,1,7.77-4.79l26.06,4.68a4.6,4.6,0,0,1,3.75,4.52l.07,50.5s24.89-42.22,38.33-49.73c31.52-17.6,70.74-33.36,76.21-37.71,7.48-6,9.94-26.17,9.94-26.17Z"/><path class="cls-6" d="M482.05,355.29c2,3.2,3.07,9-3,14.85,0,0-17.63,20.21-25.4,24.33-3.47,1.84-12.79,6.26-15.38,3.3-7.33-8.38-12.06-28.61-9.72-41.72.71-3.94,9.41-8.06,13.33-8.82,4.31-.84,13,2.62,17.34,2.78a65.36,65.36,0,0,0,7.19-.4C472.33,349.07,479.27,350.93,482.05,355.29Z"/><polygon class="cls-8" points="472.29 342.86 468.15 349.56 471.52 362.05 475.49 374.13 481.07 368.11 491.23 361.07 472.29 342.86"/><polygon class="cls-9" points="469.57 347.2 478.9 331.45 499.37 353.36 488.12 366.09 469.57 347.2"/><path class="cls-6" d="M189.8,104.29c-3-1.81-6.47-6.43-4.42-14.53,0,0,4.45-26.5,8.59-34,1.84-3.34,7-11.82,10.38-10.5,9.47,3.74,22.32,19.18,26.46,31.88,1.24,3.8-3.62,11.73-6.3,14.34-2.95,2.87-11.21,4.11-14.67,6.13a60.34,60.34,0,0,0-5.38,3.91C200.14,105,193.92,106.75,189.8,104.29Z"/><polygon class="cls-6" points="202.99 110.39 203.15 102.46 194.87 93.14 186.32 84.48 184.73 92.54 180.08 103.75 202.99 110.39"/><polygon class="cls-9" points="203.33 106.68 203.68 123.11 172.83 118.07 179.73 100.49 203.33 106.68"/><path class="cls-10" d="M465.41,480.89s-17.06,22-21.09,17.77S395.5,299.79,395.5,299.79L383.86,70.27l4.51.4,10.89,19.89,58.52,17.59s-9,186.51-9,186.56,28.26,171,28.26,171Z"/><path class="cls-10" d="M245.53,480.89s17.06,22,21.1,17.77,48.82-198.87,48.82-198.87L329.87,71.22l-4.1-.55L311.18,93.85l-56.07,18.78s7.1,182,7.1,182.08-28.26,171-28.26,171Z"/><circle class="cls-11" cx="300.89" cy="290.22" r="6.25"/><path class="cls-8" d="M331.4,49.25c0,.47,0,.94,0,1.41h-.46l0-1.34Z"/></g></svg>