<svg xmlns="http://www.w3.org/2000/svg" viewBox="0 0 788 455"><defs><style>.cls-1{fill:#7a909d;}.cls-2{fill:#f6af97;}.cls-3{fill:#de9d92;}.cls-4{fill:#a45f5e;}.cls-5{fill:#36344d;}.cls-6{fill:#abcadd;}.cls-7{fill:#5a655a;}.cls-8{fill:#6b776a;}.cls-9{fill:#accadd;}.cls-10{fill:#9498b9;}</style></defs><g id="Calque_1" data-name="Calque 1"><polygon class="cls-1" points="326.02 102.16 326.88 73.26 387.36 72.63 387.02 102.16 326.02 102.16"/><path class="cls-2" d="M114.8,114.18S119.64,95,119.05,92,114,76.73,114,74.34s3.33-17.07,1.54-17.07-8.69.88-8.69.88l-4.22,12,1.46,14.68L88.25,68.29S71.31,42.72,70.68,41,62,43.06,62,43.06l18.79,32.7-29-29.13-6.9,6.87L75.63,84.43,39.45,58.88l-3.31,9.28L67.53,91.9,40,80.45s-3,8.38-.92,9.28,25.43,14.14,25.43,14.14l26,24.92,9.29.33Z"/><polygon points="192.24 388.41 192.34 388.37 192.24 388.32 192.24 388.41"/><polygon points="192.34 388.37 192.44 388.41 192.44 388.32 192.34 388.37"/><polygon points="192.24 388.41 192.34 388.37 192.24 388.32 192.24 388.41"/><polygon points="192.34 388.37 192.44 388.41 192.44 388.32 192.34 388.37"/><path class="cls-3" d="M477.83,152.69c-.6,38.39-26.2,33.17-36.86,42.29-12.58,10.77-8.27,50-17.18,64-2.45,3.84-11.36,10.1-15.8,9.08-12.51-2.87-24-30.73-34.77-37.73-6.33-4.12-23.57-3.62-30.19,0-11.25,6.16-22.27,34.86-34.77,37.73-4.44,1-13.35-5.24-15.8-9.08-8.91-14-4.6-53.24-17.19-64-10.65-9.12-36.25-3.9-36.86-42.29-.41-26.59,35-37.34,35-37.34l40.15-19.91a31.4,31.4,0,0,0,7.1-4.82,29.11,29.11,0,0,0,2.29-2.29l.63-.71.05-.06a31.55,31.55,0,0,0,7.22-16.43,30.71,30.71,0,0,0,.25-4.19l0-2.84,0-4.51h53.63l.06,5,0,1.5,0,3.21c0,.33,0,.67,0,1v0c0,.65.09,1.3.16,2a29.38,29.38,0,0,0,.93,4.57,28.5,28.5,0,0,0,14.7,17.59l40.53,20.1a27.41,27.41,0,0,0,3.16,1.33C451,118.22,478.2,129.35,477.83,152.69Z"/><path class="cls-2" d="M385.47,107.87,358,140.37l-14.8-17.69-12.39-14.81.72-41.56,0-2.21.08-4.51h53v.23l.08,4.66v0l0,1.56.07,4.21v0l0,1.28.12,6.79Z"/><path class="cls-4" d="M386,77.12l-1,1.25c-5.16,6.33-28.83,35-41.79,44.31-3.2,2.29-5.74,3.39-7.2,2.69-6.76-3.26-14.84-35.1-14.84-35.1l.08-.07a21,21,0,0,0,1.73-1.87q.48-.57,1.05-1.32l.06-.08a39.39,39.39,0,0,0,6.66-15.16c0-.21.09-.42.13-.64a103.07,103.07,0,0,0,.2-11.54c-.08-.71-.1.76,0,0,.18-1.41-.08,1.57,0,0h53.6v0h0L385,71.86a4.91,4.91,0,0,0,.09.77l.85,4.19Z"/><path class="cls-2" d="M419.58,158.42c11.41,24.19,38.51,37.86,38.51,37.86s49.57,32.27,65.93,43.28c7.71,5.19,23.62,16.3,36.06-2.89h0c10.25-15.82-3.06-29.21-10-34.91C536,190.17,505.21,169.69,493.33,156c-8.85-10.22-18.75-29.44-40.51-35.42,0,0-17.35-6.9-29.31,7.46l-.47.57a28.06,28.06,0,0,0-3.46,29.85Z"/><path class="cls-2" d="M548.72,203c-18.56-7.17-27.22,7.79-31.94,15s-12.64,28.28-15.59,36.49c-7.55,21-21,57-28.69,77.47-5,13.46-8.08,20.42-.34,25.93,7,5,16.12-5.75,19.73-9.93,14.85-17.19,44.31-50.4,56.84-70.9,5.15-8.41,14-26.39,16.11-36C570.79,214.08,554.11,205.09,548.72,203Z"/><path class="cls-2" d="M192.21,259.66c13.77-11.4,4.48-32.14.68-39.86s-14.77-21.57-20.14-28.39C159,174,116.37,122,107.75,102c-6-14-23.92,10.38-23.92,10.38s10.76,14.36,15.54,24c10,20.33,17.56,50.38,32.94,84.59,4.05,9,15.34,25.59,22.22,32.49C173.78,272.84,188.21,263,192.21,259.66Z"/><path class="cls-2" d="M297.37,159.7c-8.55,26.33-35.52,43.78-35.52,43.78s-48.23,39.39-64.1,52.77c-7.48,6.31-22.84,19.73-39.09,1.51h0c-13.4-15-1.17-30.47,5.38-37.2,13.34-13.68,43.24-38.61,53.89-54.22,7.93-11.64,25.91-35.58,48.32-44.45,0,0,7.27-6.34,22.28,7l.59.52a28.7,28.7,0,0,1,8.25,30.32Z"/><path class="cls-2" d="M480.27,352c2.69,2.67,5,8.14.35,15.14,0,0-12.74,23.61-19.41,29.34-3,2.56-11.1,8.92-14.27,6.6-9-6.55-18.08-25.24-18.68-38.55-.18-4,7.4-9.93,11.06-11.54,4-1.77,13.21-.3,17.52-1.11a67.23,67.23,0,0,0,6.93-2C469.42,348.1,476.6,348.39,480.27,352Z"/><polygon class="cls-3" points="468.01 342.06 465.45 349.5 471.49 360.94 478.02 371.85 482.15 364.74 490.5 355.64 468.01 342.06"/><polygon class="cls-5" points="466.32 346.89 471.94 329.47 496.74 346.33 488.57 361.22 466.32 346.89"/><path class="cls-6" d="M464,120.63l30,30,33.9,24.95c-1.39,2.51-31.95,52.19-31.95,52.19S452.42,198.1,451.3,197s-12.71-29.29-13.49-28.91,13.11-40.65,13.49-42.48,12.66-5,12.66-5"/></g><g id="Calque_5" data-name="Calque 5"><polygon points="191.4 387.86 191.5 387.82 191.4 387.77 191.4 387.86"/><polygon points="191.5 387.82 191.6 387.86 191.6 387.77 191.5 387.82"/><polygon points="191.4 387.86 191.5 387.82 191.4 387.77 191.4 387.86"/><polygon points="191.5 387.82 191.6 387.86 191.6 387.77 191.5 387.82"/><polygon class="cls-7" points="277.73 364.12 275.23 330.04 435.43 333.7 432.56 358.08 277.73 364.12"/><path class="cls-8" d="M272.74,301.24l-10.89-97.76L255.16,121l11.09-5.75,53.91-27.93L363,139.82,399.3,90.66l64.66,30-10.44,101-15.71,73s3.28,24.37.56,31.77l-2.94,7.22-160.2,2.41-4-5.82C263.43,317.11,272.7,304.38,272.74,301.24Z"/><polygon class="cls-9" points="316.9 91.64 326.88 73.26 331.86 95.76 354.55 119.76 338.62 144.17 316.9 91.64"/><polygon class="cls-9" points="401.27 93.48 387.36 72.63 385.97 97.04 366.67 119.01 385.37 142.33 401.27 93.48"/><polygon class="cls-10" points="354.55 119.76 362.96 139.82 361.98 169.12 338.62 144.17 354.55 119.76"/><polygon class="cls-10" points="362.72 139.82 366.67 119.01 385.37 142.33 361.98 169.12 362.72 139.82"/><path class="cls-6" d="M264,210.37c-1.76.71-45.76,40.39-46.82,39.72s-28.58-63.48-27.53-63.48S255.16,121,255.16,121"/></g></svg>