<?xml version="1.0" encoding="utf-8"?>
<!-- Generator: Adobe Illustrator 25.4.1, SVG Export Plug-In . SVG Version: 6.00 Build 0)  -->
<svg version="1.1" id="Calque_1" xmlns="http://www.w3.org/2000/svg" xmlns:xlink="http://www.w3.org/1999/xlink" x="0px" y="0px"
	 viewBox="0 0 788 1005" style="enable-background:new 0 0 788 1005;" xml:space="preserve">
<style type="text/css">
	.st0{fill:#F6AF97;}
	.st1{fill:#A45F5E;}
	.st2{fill:#36344D;}
	.st3{fill:#8E4917;}
	.st4{fill:#3157A2;}
	.st5{fill:#3488BD;}
</style>
<g id="Calque_1_00000125577477013597057740000010371921415054562689_">
	<path class="st0" d="M118.2,413c0,0-18.5-7-21.5-6.8s-15.8,3.2-18.2,3s-16.5-5.3-16.8-3.5s-0.1,8.7-0.1,8.7L73,420l14.8,0.3
		L69.5,434c0,0-27.4,13.8-29.2,14.2s1.1,8.9,1.1,8.9l34.7-14.8l-32.3,25.4l6,7.7l34.3-27l-29.6,32.9l8.8,4.4l27.2-28.4l-14.6,26
		c0,0,8,4,9.1,2s17-23.6,17-23.6l27.8-22.9l1.4-9.2L118.2,413z"/>
	<path class="st0" d="M417.8,161.3v0.9c0,0.3,0,0.7,0,1l0,0c0,0.6,0.1,1.3,0.1,1.9c1.2,9.5,7,17.9,15.6,22.2l40.5,20.1
		c1,0.5,2.1,1,3.2,1.3c6.7,2.4,34,13.5,33.6,36.9c-0.6,38.4-26.2,33.2-36.9,42.3c-12.6,10.8-8.3,50-17.2,64
		c-2.5,3.9-11.4,10.1-15.8,9.1c-12.5-2.9-24-30.7-34.8-37.7c-6.3-4.1-23.6-3.6-30.2,0c-11.2,6.2-22.3,34.9-34.8,37.7
		c-4.4,1-13.4-5.2-15.8-9.1c-8.9-14-4.6-53.2-17.2-64c-10.6-9.1-23,8.3-23.6-30c-0.4-26.6,26.8-47.1,26.8-47.1l35.2-22.4
		c2.6-1.3,5-2.9,7.1-4.8c0.8-0.7,1.6-1.5,2.3-2.3l0.6-0.7l0-0.1c3.9-4.6,9.6-8.7,14.5-12.5"/>
	<path class="st1" d="M417.7,161.3v2.5l0.1,0.8l0.1,0.7l0.9,4.6l0.1,0.3l-1,1.2c-5.1,6.3-28.8,35-41.8,44.3
		c-3.2,2.3-5.7,3.4-7.2,2.7c-6.8-3.3-14.9-35.1-14.9-35.1c0,0,0.1,0,0.1-0.1c0.6-0.6,1.2-1.2,1.7-1.9c0.3-0.4,0.7-0.8,1.1-1.3
		l0.1-0.1c3-4.7,5.2-9.8,6.6-15.2"/>
	<path class="st0" d="M453,252.4c11.9,25,40.9,38.8,40.9,38.8s53,32.8,70.4,44c8.2,5.3,25.2,16.6,39-3.6l0,0
		c11.3-16.6-2.8-30.4-10.2-36.2c-15-11.8-47.9-32.6-60.5-46.7c-9.4-10.5-19.8-30.3-43.1-36.2c0,0-18.6-6.9-31.8,8.3l-0.5,0.6
		C449.8,229.9,448.1,242.1,453,252.4z"/>
	<path class="st0" d="M589.3,297.6c-18.5-7.2-32.7,11.8-37.4,19s-10.7,23.9-13.6,32.1c-7.5,21-17.5,57.3-25.2,77.8
		c-5.1,13.5-8.1,20.4-0.3,25.9c7,5,16.1-5.8,19.7-9.9c14.9-17.2,44.3-50.4,56.8-70.9c5.1-8.4,14-26.4,16.1-36
		C611.4,308.6,594.7,299.6,589.3,297.6z"/>
	<path class="st0" d="M275.3,353.6c-9.7-15-32.4-8.3-40.5-5.5s-23.1,12.1-30.6,16.7c-18.9,11.6-75.5,47.9-96.4,54.1
		c-14.6,4.4,7.5,25,7.5,25s15.5-9,25.7-12.6c21.4-7.6,52.1-11.5,87.9-22.8c9.4-3,27.2-12.2,34.9-18.3
		C285.2,373.3,278.1,358,275.3,353.6z"/>
	<path class="st0" d="M332.5,242.1c2.8,27.5-14.9,54.4-14.9,54.4s-28.3,55.5-37.4,74.1c-4.3,8.8-13,27.2-35.2,17.1l0,0
		c-18.3-8.4-13.3-27.4-10-36.2c6.7-17.9,24-52.8,27.5-71.3c2.6-13.8,15.2-29.2,32.1-46.3c0,0-1.7-22.6,17.4-16.4l0.8,0.2
		C323.6,221.2,331.3,230.8,332.5,242.1L332.5,242.1z"/>
	<path class="st0" d="M515.9,448.8c2,3.2,3.1,9-3,14.8c0,0-17.6,20.2-25.4,24.3c-3.5,1.8-12.8,6.2-15.4,3.3
		c-7.3-8.4-12.1-28.6-9.7-41.7c0.7-3.9,9.4-8,13.3-8.8c4.3-0.8,13,2.6,17.3,2.8c2.4,0,4.8-0.1,7.2-0.4
		C506.2,442.6,513.1,444.4,515.9,448.8z"/>
	<polygon class="st1" points="506.2,436.4 502,443.1 505.4,455.6 509.4,467.6 515,461.6 525.1,454.6 	"/>
	<polygon class="st2" points="503.4,440.7 512.8,425 533.2,446.9 522,459.6 	"/>
</g>
<g id="Calque_5">
	<path class="st3" d="M-505.7,161.3L-505.7,161.3"/>
</g>
<g id="Calque_7">
	<polygon class="st4" points="309.7,452.4 311.3,429.9 468.7,430.3 468.1,463.2 	"/>
	<path class="st5" d="M317.7,325.6l0.9,43.1c-1.8,4-13.6,47.1-13.6,47.1c-0.7,3.8,5.3,14.1,6.2,14.1l157.3,12.3
		c1,0,8.4-20.1,8.4-20.1l-13.3-52.4c0-0.2,0-0.4,0-0.6l11.5-76.6c0-0.3,0.3-0.5,0.6-0.5c0.1,0,0.2,0.1,0.3,0.1l14.4,12.7
		c6.6,5.8,16.6,5.2,22.4-1.4c0.2-0.2,0.4-0.5,0.6-0.7l34.9-44.6c3.5-4.5,2.7-10.9-1.7-14.4c-0.2-0.1-0.3-0.2-0.5-0.4l-41.6-28.9
		c2.8,2-6.9-4.8-7-4.8L449,192.7c-0.5-0.2-1-0.1-1.4,0.1L428.5,203c-19.6,10.5-43.1,10.3-62.5-0.6l-20.8-11.7c-0.5-0.3-1-0.3-1.5,0
		L287,217.4c-0.3,0.2-0.6,0.4-0.8,0.8l-13.4,27.4l-0.1,0.1l-20.6,37.6c-3.8,6.9-1.7,15.4,4.7,19.9l38.8,26.5
		c6.6,4.5,15.5,3.3,20.8-2.7L317.7,325.6z"/>
	<polygon class="st4" points="295.2,347.1 244.7,322.8 255.8,299.7 305.1,327.2 	"/>
	<polygon class="st4" points="508.1,305.4 549.4,256 569.1,272.4 532.7,316 	"/>
</g>
</svg>
