<svg xmlns="http://www.w3.org/2000/svg" viewBox="0 0 788 455"><defs><style>.cls-1{fill:#f6af97;}.cls-2{fill:#a45f5e;}.cls-3{fill:#66463a;}.cls-4{fill:#3d2d28;}</style></defs><g id="Calque_5" data-name="Calque 5"><path class="cls-1" d="M378.84,313.68c10.75,7,22.27,34.85,34.77,37.73,4.44,1,13.35-5.25,15.8-9.09,8.91-14,4.6-53.23,17.19-64,10.66-9.12,36.26-3.91,36.86-42.29.36-23.35-26.87-34.48-33.53-36.85a30.4,30.4,0,0,1-3.17-1.34l-40.53-20.1a28.47,28.47,0,0,1-15.82-25.13l.15-9-27,2.06-23.3-1.81-1.64,5.68c.09,12.07-8.67,23.84-19.48,29.21L279,198.69S243.62,209.43,244,236c.6,38.38,26.2,33.17,36.86,42.29,12.58,10.77,8.28,50,17.18,64,2.45,3.84,11.36,10.11,15.81,9.09,12.5-2.88,23.51-31.57,34.76-37.73C355.27,310.05,372.52,309.56,378.84,313.68Z"/><path class="cls-2" d="M364.12,143.7l26.35-.12-.15,10.57,1.27,6.31s-19.37,41.42-49.69,34.33c-7.3-1.71-15.14-21.18-15.14-21.18s6.89-6,9.57-18.5,1.45-11.53,1.45-11.53Z"/><path class="cls-1" d="M424.5,219.71c21.78-17.08,53.91-16.51,53.91-16.51s62-5.78,82.63-8c9.73-1.06,30-3.63,33.28,20.56h0c2.75,19.94-16,25.94-25.22,27.86-18.7,3.92-57.43,7.92-75,14.94-13.07,5.23-31.19,18.38-54.74,13.23,0,0-19.73-2.1-24.76-21.52l-.2-.77a28.69,28.69,0,0,1,10.07-29.76Z"/><path class="cls-1" d="M572,239.84c-19.72,2.6-29-19.17-31.86-27.28s-4.74-25.77-5.68-34.45c-2.38-22.22-3.52-59.85-6.16-81.54-1.73-14.27-3-21.75,5.78-25.28,8-3.21,14.31,9.38,16.83,14.29,10.39,20.21,31.19,59.43,38.54,82.3,3,9.39,7.38,28.94,7.17,38.8C596,234.27,577.7,239.09,572,239.84Z"/><path class="cls-1" d="M305.07,225.26c5.33,27.16-9.77,55.52-9.77,55.52s-18.67,57.13-26,76.54c-3.47,9.14-14.71,29.07-37.77,21.05h0c-19-6.62-15.83-26.06-13.37-35.13,5-18.44,19-54.76,20.74-73.58,1.28-14-2.21-36.13,13.08-54.77,0,0,10.83-16.63,30.41-12.29l.78.17a28.69,28.69,0,0,1,21.94,22.49Z"/><path class="cls-1" d="M528,73l6.54-19.57,16-23.48s4.1,3.87,4.28,5.63C555.4,41.13,551.29,49,549,54c-.3.67.1,4,.66,4.51,2.27,2,7.53-1.65,7.53-1.65L544.74,73.24Z"/><path class="cls-1" d="M533.66,69.57l14.45,15.59,35.78-28,24.73-41.3s-6.35-2.17-8.37-1.53C589.68,17.7,577.4,38.46,569.32,46,560.6,54.2,533.66,69.57,533.66,69.57Z"/><ellipse class="cls-1" cx="539.56" cy="76.76" rx="12.1" ry="12.15" transform="translate(240.21 532.18) rotate(-64.78)"/><path class="cls-3" d="M288.92,459.65c-1.35-2.3-5.66-24.1-5.66-24.1s.34-17.75,5.66-31.55,38.76-28.26,83.3-25.41,67.85,17,70.63,28.9c3.17,13.59-2.46,18.3-13.85,25.07-20.69,12.32-137.26,38.57-140.08,27.09"/><path class="cls-3" d="M270.55,196.72s20.21,22.37,21.12,41.15-4.51,48.05-4.51,48.05-1.52,115.51-.91,120.43c.68,5.46-5.81,19-2.43,32s71.61,3.52,89.22-1.45,76.41-15.89,69.81-29.4c-1.26-2.57-15.32-56.33-10.19-67.39s11.59-65.05,11.59-65.05c1.82-1.89,13.11-69-4.69-85.68l-32.5-16.79a30.85,30.85,0,0,1-28.22,25.34c-17.71,1.24-36.27,3.37-46.74,4.66-8.86,1.09-29.07-20.42-29.07-20.42Z"/><path class="cls-1" d="M215.52,372.52c-8.78-17.85,8.88-33.58,15.63-38.92S254,320.85,262,317.19c20.29-9.39,55.57-22.53,75.27-32,13-6.22,19.62-9.86,25.79-2.64,5.62,6.58-4.29,16.57-8.14,20.53-15.81,16.32-46.29,48.59-65.6,62.89-7.93,5.87-25,16.26-34.46,19.22C228.51,393.53,218.07,377.71,215.52,372.52Z"/><path class="cls-1" d="M356.45,303.27,373,291l17.31-22.54s-5-2.69-6.68-2.31c-5.41,1.18-11.56,7.52-15.64,11.25-.55.5-3.85,1.16-4.49.78-2.6-1.54-.79-7.66-.79-7.66L351,287.42Z"/><path class="cls-1" d="M358,296.81,338.66,288l15.42-42.74,31.52-36.38s4,5.35,4.07,7.48c.11,11.09-13.8,30.42-20.45,39.27C361.61,265.7,356.73,296.46,358,296.81Z"/><ellipse class="cls-1" cx="349.31" cy="293.44" rx="12.1" ry="12.15" transform="translate(-106.11 320.28) rotate(-43.4)"/><path class="cls-4" d="M270.55,196.72s-2.87,6.44-2.5,6.33,6.07-2,6.07-2Z"/><path class="cls-4" d="M407,172.58s-3.5,3.64-3.17,3.84c1.42.84,1.71,1.58,1.9,1.08C407.28,173.39,407,172.58,407,172.58Z"/></g></svg>