<svg xmlns="http://www.w3.org/2000/svg" viewBox="0 0 788 1005"><defs><style>.cls-1{fill:#7a909d;}.cls-2{fill:#f6af97;}.cls-3{fill:#de9d92;}.cls-4{fill:#a45f5e;}.cls-5{fill:#36344d;}.cls-6{fill:#abcadd;}.cls-7{fill:#5a655a;}.cls-8{fill:#6b776a;}.cls-9{fill:#accadd;}.cls-10{fill:#9498b9;}</style></defs><g id="Calque_1" data-name="Calque 1"><polygon class="cls-1" points="364.84 193.85 365.7 164.95 426.18 164.31 425.84 193.85 364.84 193.85"/><path class="cls-2" d="M153.62,205.86s4.84-19.16,4.25-22.15-5.06-15.29-5.05-17.69S156.16,149,154.36,149s-8.69.88-8.69.88l-4.22,12,1.46,14.68L127.08,160s-17-25.56-17.58-27.33-8.72,2.11-8.72,2.11l18.79,32.69-29-29.12-6.91,6.87,30.78,30.92L78.28,150.57,75,159.84l31.39,23.74L78.82,172.13s-3,8.38-.92,9.29,25.43,14.14,25.43,14.14l26,24.92,9.28.32Z"/><polygon points="231.06 480.1 231.16 480.06 231.06 480 231.06 480.1"/><polygon points="231.16 480.06 231.26 480.1 231.26 480 231.16 480.06"/><polygon points="231.06 480.1 231.16 480.06 231.06 480 231.06 480.1"/><polygon points="231.16 480.06 231.26 480.1 231.26 480 231.16 480.06"/><path class="cls-3" d="M516.65,244.38c-.6,38.39-26.2,33.17-36.86,42.29-12.58,10.77-8.27,50-17.18,64-2.45,3.84-11.36,10.1-15.8,9.08C434.3,356.89,422.78,329,412,322c-6.33-4.12-23.57-3.62-30.19,0-11.25,6.16-22.27,34.86-34.77,37.73-4.44,1-13.35-5.24-15.8-9.08-8.91-14-4.6-53.24-17.19-64-10.65-9.12-36.25-3.9-36.86-42.29-.41-26.59,35-37.34,35-37.34l40.15-19.91a31.4,31.4,0,0,0,7.1-4.82,29.11,29.11,0,0,0,2.29-2.29l.63-.71.05-.06a31.55,31.55,0,0,0,7.22-16.43,30.71,30.71,0,0,0,.25-4.19l0-2.84,0-4.51h53.63l.06,5,0,1.5,0,3.21c0,.33,0,.67,0,1v0c0,.65.09,1.3.16,1.95a29.38,29.38,0,0,0,.93,4.57,28.5,28.5,0,0,0,14.7,17.59L480,206.2a27.41,27.41,0,0,0,3.16,1.33C489.79,209.91,517,221,516.65,244.38Z"/><path class="cls-2" d="M424.29,199.56l-27.5,32.5L382,214.37,369.6,199.56l.72-41.56,0-2.21.08-4.51h53v.23l.08,4.66v0l0,1.56.07,4.21v0l0,1.28.12,6.79Z"/><path class="cls-4" d="M424.79,168.81l-1,1.25c-5.16,6.33-28.83,35-41.79,44.31-3.2,2.29-5.74,3.39-7.2,2.69C368,213.8,360,182,360,182l.08-.07a21,21,0,0,0,1.73-1.87q.48-.57,1.05-1.32l.06-.08a39.39,39.39,0,0,0,6.66-15.16c0-.21.09-.42.13-.64a103.11,103.11,0,0,0,.2-11.54c-.08-.71-.1.76,0,0,.18-1.42-.08,1.57,0,0h53.6v0h0l.33,12.27a5,5,0,0,0,.09.77l.85,4.19Z"/><path class="cls-2" d="M458.4,250.11C469.81,274.3,496.91,288,496.91,288s49.57,32.26,65.94,43.28c7.71,5.19,23.61,16.29,36-2.9h0c10.25-15.82-3.06-29.21-10-34.9-14.09-11.6-44.89-32.08-56.76-45.81-8.85-10.22-18.76-29.44-40.52-35.42,0,0-17.35-6.9-29.31,7.47l-.47.56a28.09,28.09,0,0,0-3.46,29.86Z"/><path class="cls-2" d="M587.54,294.69c-18.56-7.17-27.22,7.79-31.94,15S543,338,540,346.17c-7.55,21-21,57-28.69,77.47-5,13.46-8.08,20.41-.34,25.92,7,5,16.12-5.74,19.73-9.92,14.85-17.19,44.31-50.41,56.84-70.9,5.15-8.42,14-26.39,16.11-36C609.61,305.77,592.93,296.77,587.54,294.69Z"/><path class="cls-2" d="M231,351.34c13.76-11.4,4.47-32.14.67-39.86S217,289.91,211.57,283.09c-13.77-17.45-56.38-69.4-65-89.37-6-14-23.92,10.39-23.92,10.39s10.77,14.36,15.54,24c10,20.33,17.56,50.38,32.95,84.59,4,9,15.34,25.6,22.22,32.5C212.6,364.53,227,354.65,231,351.34Z"/><path class="cls-2" d="M336.19,251.39c-8.55,26.33-35.52,43.78-35.52,43.78s-48.23,39.39-64.1,52.77c-7.47,6.3-22.84,19.72-39.09,1.5h0c-13.4-15-1.17-30.46,5.38-37.19,13.34-13.69,43.24-38.62,53.89-54.23,7.93-11.63,25.91-35.58,48.33-44.44,0,0,7.26-6.35,22.27,7l.59.53a28.7,28.7,0,0,1,8.25,30.32Z"/><path class="cls-2" d="M519.1,443.72c2.68,2.66,5,8.13.34,15.13,0,0-12.74,23.61-19.41,29.34-3,2.57-11.09,8.92-14.27,6.61-9-6.56-18.08-25.25-18.68-38.55-.18-4,7.4-9.94,11.06-11.55,4-1.76,13.21-.29,17.52-1.11a64.77,64.77,0,0,0,6.93-2C508.24,439.79,515.43,440.07,519.1,443.72Z"/><polygon class="cls-3" points="506.83 433.74 504.27 441.18 510.31 452.63 516.85 463.53 520.97 456.43 529.32 447.33 506.83 433.74"/><polygon class="cls-5" points="505.14 438.57 510.76 421.15 535.56 438.01 527.4 452.9 505.14 438.57"/><path class="cls-6" d="M502.78,212.31l30,30,33.9,24.94c-1.38,2.52-32,52.19-32,52.19s-43.51-29.66-44.64-30.79-12.71-29.28-13.49-28.91,13.11-40.65,13.49-42.48,12.66-4.95,12.66-4.95"/></g><g id="Calque_5" data-name="Calque 5"><polygon points="230.22 479.54 230.32 479.5 230.22 479.45 230.22 479.54"/><polygon points="230.32 479.5 230.42 479.54 230.42 479.45 230.32 479.5"/><polygon points="230.22 479.54 230.32 479.5 230.22 479.45 230.22 479.54"/><polygon points="230.32 479.5 230.42 479.54 230.42 479.45 230.32 479.5"/><polygon class="cls-7" points="316.55 455.8 314.05 421.72 474.25 425.39 471.38 449.77 316.55 455.8"/><path class="cls-8" d="M311.56,392.92l-10.89-97.75L294,212.65l11.1-5.75L359,179l42.81,52.53,36.33-49.16,64.66,30-10.44,101-15.71,73s3.29,24.38.56,31.77l-2.93,7.23-160.21,2.4L310,422C302.26,408.8,311.52,396.06,311.56,392.92Z"/><polygon class="cls-9" points="355.72 183.32 365.7 164.95 370.68 187.44 393.37 211.45 377.44 235.85 355.72 183.32"/><polygon class="cls-9" points="440.1 185.17 426.18 164.31 424.79 188.72 405.49 210.69 424.19 234.02 440.1 185.17"/><polygon class="cls-10" points="393.37 211.45 401.79 231.5 400.81 260.8 377.44 235.85 393.37 211.45"/><polygon class="cls-10" points="401.54 231.5 405.49 210.69 424.19 234.02 400.81 260.8 401.54 231.5"/><path class="cls-6" d="M302.8,302.05c-1.76.71-45.76,40.4-46.82,39.73s-28.58-63.49-27.52-63.49S294,212.65,294,212.65"/></g></svg>