<svg xmlns="http://www.w3.org/2000/svg" viewBox="0 0 788 1005"><defs><style>.cls-1{fill:#f6af97;}.cls-2{fill:#a45f5e;}.cls-3{fill:#66463a;}.cls-4{fill:#3d2d28;}</style></defs><g id="Calque_5" data-name="Calque 5"><polygon points="243.33 479.54 243.43 479.5 243.33 479.45 243.33 479.54"/><polygon points="243.43 479.5 243.53 479.54 243.53 479.45 243.43 479.5"/><polygon points="243.33 479.54 243.43 479.5 243.33 479.45 243.33 479.54"/><polygon points="243.43 479.5 243.53 479.54 243.53 479.45 243.43 479.5"/><path class="cls-1" d="M412.58,321.48c10.75,7,22.27,34.85,34.77,37.73,4.44,1,13.35-5.25,15.8-9.09,8.91-14,4.6-53.23,17.19-64,10.65-9.12,36.25-3.91,36.85-42.3.37-23.34-26.86-34.47-33.53-36.84a30.23,30.23,0,0,1-3.16-1.34L440,185.54a28.48,28.48,0,0,1-15.82-25.14l.14-9-27,2.06L374,151.69l-1.63,5.68c.09,12.07-8.67,23.84-19.49,29.2l-40.15,19.92s-35.4,10.74-35,37.33c.61,38.39,26.21,33.18,36.86,42.3,12.59,10.77,8.28,50,17.19,64,2.45,3.84,11.36,10.11,15.8,9.09,12.5-2.88,23.52-31.57,34.77-37.73C389,317.85,406.26,317.36,412.58,321.48Z"/><path class="cls-2" d="M397.86,151.49l26.34-.11L424.06,162l1.27,6.3S406,209.67,375.64,202.59c-7.31-1.71-15.15-21.19-15.15-21.19s6.9-6,9.58-18.49,1.45-11.53,1.45-11.53Z"/><path class="cls-1" d="M458.24,227.51C480,210.43,512.14,211,512.14,211s62-5.78,82.64-8c9.72-1.06,30-3.63,33.28,20.56h0c2.74,19.94-16,25.93-25.22,27.86-18.71,3.92-57.43,7.92-75,14.94-13.07,5.23-31.18,18.38-54.73,13.23,0,0-19.74-2.1-24.76-21.52l-.2-.77a28.67,28.67,0,0,1,10.07-29.76Z"/><path class="cls-1" d="M605.7,247.64c-19.72,2.6-29-19.17-31.86-27.28s-4.74-25.77-5.67-34.45c-2.39-22.22-3.53-59.85-6.16-81.55-1.73-14.26-3-21.74,5.77-25.27,8-3.21,14.32,9.38,16.84,14.29,10.39,20.21,31.19,59.43,38.54,82.3,3,9.39,7.37,28.94,7.17,38.8C629.76,242.07,611.44,246.89,605.7,247.64Z"/><path class="cls-1" d="M338.81,233.06c5.32,27.16-9.77,55.52-9.77,55.52s-18.68,57.13-26,76.53c-3.47,9.15-14.71,29.08-37.77,21.05h0c-19-6.61-15.83-26.05-13.37-35.12,5-18.45,19-54.76,20.74-73.58,1.28-14-2.21-36.13,13.07-54.77,0,0,10.84-16.63,30.42-12.29l.77.17a28.7,28.7,0,0,1,21.95,22.49Z"/><path class="cls-1" d="M561.73,80.84l6.55-19.57,16-23.48s4.09,3.87,4.27,5.63c.57,5.51-3.53,13.32-5.8,18.37-.31.67.1,4,.65,4.51,2.28,2,7.53-1.65,7.53-1.65L578.48,81Z"/><path class="cls-1" d="M567.4,77.37,581.84,93l35.79-28,24.73-41.3S636,21.5,634,22.14c-10.57,3.36-22.85,24.11-30.92,31.68C594.34,62,567.4,77.37,567.4,77.37Z"/><ellipse class="cls-1" cx="573.3" cy="84.56" rx="12.1" ry="12.15" transform="translate(252.52 567.17) rotate(-64.78)"/><path class="cls-3" d="M322.65,467.44c-1.34-2.29-5.65-24.09-5.65-24.09s.34-17.75,5.65-31.55,38.76-28.26,83.3-25.41,67.86,17,70.63,28.9c3.17,13.59-2.46,18.3-13.84,25.07-20.7,12.32-137.26,38.57-140.09,27.08"/><path class="cls-3" d="M304.28,204.51s20.22,22.37,21.12,41.16-4.5,48.05-4.5,48.05-1.53,115.5-.91,120.43c.68,5.46-5.81,19-2.43,32s71.6,3.51,89.22-1.45,76.41-15.89,69.8-29.4c-1.25-2.57-15.32-56.33-10.18-67.39s11.59-65,11.59-65c1.82-1.89,13.11-69-4.69-85.68l-32.51-16.79a30.83,30.83,0,0,1-28.21,25.34c-17.72,1.24-36.27,3.37-46.74,4.66C357,211.47,336.77,190,336.77,190Z"/><path class="cls-1" d="M249.26,380.32c-8.79-17.85,8.87-33.58,15.63-38.92S287.78,328.65,295.7,325C316,315.6,351.26,302.46,371,293c13-6.21,19.62-9.85,25.79-2.63,5.62,6.58-4.3,16.57-8.14,20.53-15.81,16.32-46.3,48.59-65.6,62.88-7.93,5.88-25,16.26-34.46,19.23C262.24,401.33,251.81,385.51,249.26,380.32Z"/><path class="cls-1" d="M390.19,311.07l16.55-12.33,17.31-22.53s-5-2.69-6.68-2.31c-5.42,1.18-11.56,7.52-15.65,11.25-.54.5-3.85,1.16-4.48.78-2.61-1.54-.79-7.67-.79-7.67l-11.68,17Z"/><path class="cls-1" d="M391.72,304.6l-19.32-8.86L387.82,253l31.52-36.38s4.05,5.35,4.07,7.48c.11,11.09-13.8,30.42-20.45,39.27C395.35,273.5,390.46,304.26,391.72,304.6Z"/><ellipse class="cls-1" cx="383.05" cy="301.24" rx="12.1" ry="12.15" transform="translate(-102.24 345.59) rotate(-43.4)"/><path class="cls-4" d="M304.28,204.51s-2.87,6.45-2.49,6.34,6.06-2,6.06-2Z"/><path class="cls-4" d="M440.76,180.38s-3.5,3.64-3.16,3.84c1.42.83,1.71,1.58,1.89,1.08C441,181.19,440.76,180.38,440.76,180.38Z"/></g></svg>