<svg xmlns="http://www.w3.org/2000/svg" viewBox="0 0 788 455"><defs><style>.cls-1{fill:#7a909d;}.cls-2{fill:#f6af97;}.cls-3{fill:#a45f5e;}.cls-4{fill:#94abb9;}.cls-5{fill:#d68f72;stroke:#000;stroke-miterlimit:10;stroke-width:3px;}.cls-6{fill:#824b26;}.cls-7{fill:#8e5725;}.cls-8{fill:#dddee0;}.cls-9{fill:#accadd;}.cls-10{fill:#9498b9;}</style></defs><g id="Calque_7" data-name="Calque 7"><polygon class="cls-1" points="325.1 111.55 325.96 82.65 386.44 82.02 386.1 111.55 325.1 111.55"/><polygon points="190.49 397.25 190.59 397.21 190.49 397.16 190.49 397.25"/><polygon points="190.59 397.21 190.69 397.25 190.69 397.16 190.59 397.21"/><polygon points="190.49 397.25 190.59 397.21 190.49 397.16 190.49 397.25"/><polygon points="190.59 397.21 190.69 397.25 190.69 397.16 190.59 397.21"/><path class="cls-2" d="M371.46,239.18c10.75,7,22.27,34.86,34.77,37.73,4.44,1,13.35-5.24,15.8-9.09,8.91-14,4.6-53.23,17.19-64,10.65-9.12,36.26-3.9,36.86-42.29.36-23.34-26.87-34.47-33.53-36.85a28.39,28.39,0,0,1-3.17-1.34l-40.53-20.1A28.46,28.46,0,0,1,383,78.11l-.23-18.06-27,2.07-22.95-8-1.66,21.64c.09,12.07-8.62,23.15-19.43,28.52l-40.15,19.91s-35.41,10.74-35,37.34c.6,38.39,26.2,33.17,36.86,42.29,12.58,10.77,8.28,50,17.18,64,2.45,3.85,11.36,10.11,15.81,9.09C319,274,330,245.34,341.27,239.18,347.89,235.55,365.14,235.06,371.46,239.18Z"/><path class="cls-3" d="M357.71,54.22h25l.23,25.44,1.27,6.3s-41.88,52.17-50,48.25c-6.75-3.26-14.84-35.1-14.84-35.1s6.9-6,9.58-18.5S330,54.12,330,54.12Z"/><path class="cls-4" d="M418.21,168.25c11.9,25,40.93,38.78,40.93,38.78s53,32.76,70.43,44c8.23,5.27,25.21,16.57,38.95-3.61h0c11.33-16.64-2.81-30.36-10.19-36.18-15-11.83-47.9-32.64-60.5-46.73-9.38-10.5-23.29-34.09-46.67-40,0,0-15.07-3.14-28.21,12l-.52.6a28.67,28.67,0,0,0-4.22,31.13Z"/><path class="cls-5" d="M286.07,141.7C303.85,162.92,304.32,195,304.32,195s7.78,61.79,10.69,82.34c1.38,9.68,4.59,29.82-19.48,33.92h0c-19.84,3.39-26.43-15.18-28.66-24.31-4.52-18.56-9.77-57.14-17.35-74.45-5.64-12.9-19.37-30.57-15-54.28,0,0,1.47-19.79,20.71-25.44l.76-.23a28.68,28.68,0,0,1,30.07,9.11Z"/><polygon class="cls-6" points="278.39 369 279.89 341.64 434.89 341.64 431.77 365.47 278.39 369"/><path class="cls-7" d="M273.16,328.2,274.79,196l-11.63-71.79,56.08-27.56,42.81,52.53,36.33-49.16,61,27.37L452.6,231.05,426,303.12l8.18,10.8a23.07,23.07,0,0,1,3.27,21.95l-2.7,7.32-156.13,2.48L275,337.33A22.22,22.22,0,0,1,273.16,328.2Z"/><rect class="cls-8" x="411.28" y="151.28" width="225.48" height="156.33" rx="10.58" transform="translate(-23.24 62.86) rotate(-6.72)"/><path class="cls-2" d="M630.24,278.91h2.47a6.79,6.79,0,0,1,6.79,6.79v15.44a6.79,6.79,0,0,1-6.79,6.79h0a6.79,6.79,0,0,1-6.79-6.79V283.24a4.33,4.33,0,0,1,4.33-4.33Z" transform="translate(-64.72 296.5) rotate(-25.13)"/><path class="cls-3" d="M568,302.84l40.46-6.66-2.08,20.94a3.68,3.68,0,0,1-4.54,3.2l-9.54-2.38a41.44,41.44,0,0,1-17.08-8.86Z"/><path class="cls-2" d="M598.79,279.82h10.29a16.82,16.82,0,0,1,16.82,16.82v5.26a15.9,15.9,0,0,1-15.9,15.9h-8.88A10.11,10.11,0,0,1,591,307.7V287.6A7.78,7.78,0,0,1,598.79,279.82Z" transform="translate(-69.31 286.71) rotate(-25.13)"/><path class="cls-2" d="M412.09,240.5l13,20.08,11.45-2.25,24.17-3.74a16.64,16.64,0,0,0,13.16-11l6.73-19.24,29.79-4.4a8.68,8.68,0,0,0,7.28-8.47l0-1.21-34.92,2.53,1.88-5-17.72.3-10.39.06a31,31,0,0,0-16,4.57l-9.43,5.72c-2,2.17-2.66,3.18-6.44,8.41l-5.41,7.48"/><path class="cls-2" d="M271,290.91c-3.84-19.52,17.3-30.12,25.21-33.52s25.42-6.36,34-7.84c22-3.79,59.51-7.31,81-11.31,14.13-2.63,21.51-4.42,25.59,4.16,3.71,7.81-4.14,13.7-8.88,16.53-19.51,11.64-61.65,36.07-84,44.85-9.18,3.61-28.42,9.19-38.27,9.61C278.07,314.57,272.1,296.59,271,290.91Z"/><path class="cls-4" d="M263.16,124.24s-26,11.37-33.6,21.36c-7.31,9.58-3.09,48.93-3.09,48.93s16.61,94.07,37.82,116c5,5.16,22.43,9.93,31.36,12.11a15.65,15.65,0,0,0,10.16-.95L406.67,276l-8.46-40L307.07,248l-18-67.57"/><polygon class="cls-9" points="315.98 101.03 325.96 82.65 353.63 129.15 337.71 153.56 315.98 101.03"/><polygon class="cls-9" points="400.36 102.87 386.44 82.02 365.75 128.4 384.45 151.72 400.36 102.87"/><polygon class="cls-10" points="353.63 129.15 361.8 149.21 350.78 140.12 337.71 153.56 353.63 129.15"/><polygon class="cls-10" points="361.8 149.21 365.75 128.4 384.45 151.72 371.07 141.18 361.8 149.21"/></g></svg>