<?xml version="1.0" encoding="utf-8"?>
<!-- Generator: Adobe Illustrator 26.0.3, SVG Export Plug-In . SVG Version: 6.00 Build 0)  -->
<svg version="1.1" id="Calque_1" xmlns="http://www.w3.org/2000/svg" xmlns:xlink="http://www.w3.org/1999/xlink" x="0px" y="0px"
	 viewBox="0 0 788 1005" style="enable-background:new 0 0 788 1005;" xml:space="preserve">
<style type="text/css">
	.st0{fill:none;stroke:#2E858E;stroke-width:3;stroke-miterlimit:10;}
	.st1{fill:#E1795D;}
	.st2{fill:#FD8C75;}
	.st3{fill:#D68F72;}
	.st4{fill:#654321;}
	.st5{fill:#2E858E;}
</style>
<path class="st0" d="M339.9,241.7c-1.1-3.1-1.7-6.3-1.7-9.6c0-21.5,25-38.9,55.8-38.9s55.8,17.5,55.8,38.9c0,3.5-0.7,6.8-1.9,9.9"/>
<g>
	<path class="st1" d="M360.8,268.5l-8.1-24.5c0,0-7.9-8.1-13.6-2.5c-3.8,3.8,5.1,29,10,30C357.3,273.3,360.8,268.5,360.8,268.5z"/>
	<path class="st1" d="M427.2,268.5l8.1-24.5c0,0,7.9-8.1,13.6-2.5c3.8,3.8-5.1,29-10,30C430.7,273.3,427.2,268.5,427.2,268.5z"/>
	<path class="st2" d="M394.2,181.2L394.2,181.2c-23.9-0.1-43.2,11.1-43.2,45.5c0,7.9,0.6,15.8,1.8,23.7c1.1,6.9,2.8,13.6,5.1,20.2
		c7.7,21.7,21.1,35.2,36.4,35.2v0.1c15.1,0,28.3-13.1,36.1-34.3c3.2-8.9,5.3-18.1,6.3-27.5c0.6-5.7,1-11.5,1-17.2
		C437.5,192.4,418.1,181.2,394.2,181.2z"/>
</g>
<path class="st3" d="M368.9,182.2c-0.4-0.7,21.9-9.9,21.9-9.9l0.1,0c2.9-0.5,6-0.2,8.8,0.8c2.9,1.1,6.1,2.5,6.3,3.8
	c0.5,2.3,2,14.8,2,14.8l-7.7,1.6L394,191c0,0-8.1,0-9.7-0.7S368.9,182.2,368.9,182.2z"/>
<path class="st4" d="M393.8,190.6c-0.3,0.5-0.6,1-1,1.5c-8.6,11.2-37.3,20-40.3,32.7c-3.1,13.2,2,28,2,28s-6.9-5.9-7.3-6
	s-23.8-50.3,20.8-70.4c20.1-9,25.8-3.2,25.8-3.2C393.7,173.4,400.2,179.8,393.8,190.6z"/>
<path class="st4" d="M438.9,247.1c-0.4,0.1-5.5,3.9-5.5,3.9s4.2-13.4,1.4-26.7S402.6,203,396,191.1c0.3-0.5,0.6-1,0.9-1.5
	c5.8-10.8,1.4-15,0.2-17c2.4-1.2,8.9-2.7,22.5,4C460.9,196.8,439.3,246.9,438.9,247.1z"/>
<g>
	<path class="st5" d="M356.9,275.7l-2.2,0.5c-2.3,0.6-4.6-1-5-3.3l-7.2-33.5c-0.6-2.3,1-4.6,3.3-5l2.2-0.5c2.3-0.6,4.6,1,5,3.3
		l7.2,33.6C360.7,272.9,359.2,275.2,356.9,275.7z"/>
	<path class="st5" d="M349.2,273.6l-4.4,0.9c-2.3,0.6-4.6-1-5-3.3l-5.6-25.9c-0.6-2.3,1-4.6,3.3-5l4.4-0.9L349.2,273.6z"/>
	<path class="st5" d="M336.1,233.1l2.7-1.5c0.6-0.4,1.4,0,1.5,0.6l2,9.3c0.2,0.5-0.2,1-0.6,1.1l0,0c-0.5,0.2-0.8,0-1.1-0.5l-4.7-7.7
		C335.5,234,335.6,233.3,336.1,233.1z"/>
</g>
<g>
	<path class="st5" d="M432.4,276.2l2.2,0.4c2.3,0.4,4.5-1.2,4.9-3.5l5.7-33.8c0.5-2.3-1.2-4.5-3.5-4.9l-2.2-0.4
		c-2.3-0.4-4.5,1.2-4.9,3.5l-5.8,33.8C428.5,273.5,430,275.8,432.4,276.2z"/>
	<path class="st5" d="M439.9,273.7l4.4,0.8c2.3,0.4,4.5-1.2,4.9-3.5l4.4-26.2c0.4-2.3-1.2-4.5-3.5-4.9l-4.4-0.8L439.9,273.7z"/>
	<path class="st5" d="M451.3,232.6l-2.7-1.4c-0.7-0.4-1.4,0.1-1.5,0.7l-1.6,9.3c-0.2,0.5,0.3,1,0.7,1.1l0,0c0.5,0.2,0.8,0,1.1-0.5
		l4.3-7.9C452,233.6,451.8,232.8,451.3,232.6z"/>
</g>
<path class="st0" d="M351.4,272.1l-18.8,15c-3.1,2.5-2.5,7.5,1.2,9.1l12.9,5.5"/>
<circle class="st5" cx="351.4" cy="301.7" r="7.3"/>
</svg>
