<?xml version="1.0" encoding="utf-8"?>
<!-- Generator: Adobe Illustrator 26.0.3, SVG Export Plug-In . SVG Version: 6.00 Build 0)  -->
<svg version="1.1" id="Calque_1" xmlns="http://www.w3.org/2000/svg" xmlns:xlink="http://www.w3.org/1999/xlink" x="0px" y="0px"
	 viewBox="0 0 788 1005" style="enable-background:new 0 0 788 1005;" xml:space="preserve">
<style type="text/css">
	.st0{fill:#56381D;}
	.st1{fill:#654321;}
	.st2{fill:#E1795D;}
	.st3{fill:#FD8C75;}
	.st4{fill:#1086B5;}
</style>
<path class="st0" d="M412.9,298.6c0,0,40.1-18.2,40-32.8c-0.1-12.6-8.9-86.5-16.3-85.3S410,275.2,413.3,293L412.9,298.6z"/>
<path class="st1" d="M342.1,278.5c-6.9-7.5-13.9-50.8,2.6-88c14.3-32.3,22.8,84.5,27.8,102.3C372.5,292.8,349,286,342.1,278.5z"/>
<g>
	<path class="st2" d="M360.8,268.5l-8.1-24.5c0,0-7.9-8.1-13.6-2.5c-3.8,3.8,5.1,29,10,30C357.3,273.3,360.8,268.5,360.8,268.5z"/>
	<path class="st2" d="M427.2,268.5l8.1-24.5c0,0,7.9-8.1,13.6-2.5c3.8,3.8-5.1,29-10,30C430.7,273.3,427.2,268.5,427.2,268.5z"/>
	<path class="st3" d="M394.2,181.2L394.2,181.2c-23.9-0.1-43.2,11.1-43.2,45.5c0,7.9,0.6,15.8,1.8,23.7c1.1,6.9,2.8,13.6,5.1,20.2
		c7.7,21.7,21.1,35.2,36.4,35.2v0.1c15.1,0,28.3-13.1,36.1-34.3c3.2-8.9,5.3-18.1,6.3-27.5c0.6-5.7,1-11.5,1-17.2
		C437.5,192.4,418.1,181.2,394.2,181.2z"/>
</g>
<path class="st1" d="M336.8,224.5c-0.7,4.1,12.7,15,12.7,15c-0.2-38.7,35-36.7,25.6-54.1c-3.8-7-21.1-7.1-26.9-1.3
	S339.3,210.3,336.8,224.5z"/>
<path class="st1" d="M439,220.2c-7.5-0.8-69.9-28.3-71.6-42.4c-0.9-7.6,11.2-11.7,22.5-13.9c12.5-2.4,25.4,0,36.1,6.7
	c6.7,4.2,13,9.3,14,14.3c1.2,6.1,4.7,13.3,4.6,19.2C444.5,210,442.5,215.6,439,220.2z"/>
<path class="st1" d="M403.2,205.2c2,0.7,51.1,24.1,55.5,30.1s-1,32.7-1,32.7s17.2-24.5,12.9-38s-22-11-27.7-35.4
	C441.2,187.6,403.2,205.2,403.2,205.2z"/>
<path class="st4" d="M355.1,276.1l-5.6-2.1l-5.6,2.1c-1.2,0-2.1-1.4-2.1-3.1v-2.2c0-1.7,1-3.1,2.1-3.1l5.6,2.1l5.6-2.1
	c1.2,0,2.1,1.4,2.1,3.1v2.2C357.3,274.7,356.3,276.1,355.1,276.1z"/>
<path class="st4" d="M349.5,275.4L349.5,275.4c-0.8,0-1.4-0.6-1.4-1.4v-4.1c0-0.8,0.6-1.4,1.4-1.4l0,0c0.8,0,1.4,0.6,1.4,1.4v4.1
	C350.9,274.8,350.3,275.4,349.5,275.4z"/>
<path class="st4" d="M444.9,276.1l-5.6-2.1l-5.6,2.1c-1.2,0-2.1-1.4-2.1-3.1v-2.2c0-1.7,1-3.1,2.1-3.1l5.6,2.1l5.6-2.1
	c1.2,0,2.1,1.4,2.1,3.1v2.2C447.1,274.7,446.1,276.1,444.9,276.1z"/>
<path class="st4" d="M439.3,275.4L439.3,275.4c-0.8,0-1.4-0.6-1.4-1.4v-4.1c0-0.8,0.6-1.4,1.4-1.4l0,0c0.8,0,1.4,0.6,1.4,1.4v4.1
	C440.7,274.8,440.1,275.4,439.3,275.4z"/>
</svg>
