<?xml version="1.0" encoding="utf-8"?>
<!-- Generator: Adobe Illustrator 26.0.3, SVG Export Plug-In . SVG Version: 6.00 Build 0)  -->
<svg version="1.1" id="Calque_1" xmlns="http://www.w3.org/2000/svg" xmlns:xlink="http://www.w3.org/1999/xlink" x="0px" y="0px"
	 viewBox="0 0 200 200" style="enable-background:new 0 0 200 200;" xml:space="preserve">
<style type="text/css">
	.st0{fill:#FD8C75;}
	.st1{fill:#353535;}
	.st2{fill:#654321;}
	.st3{fill:#E1795D;}
</style>
<path class="st0" d="M107.8,38.1h-5.5c-2.3,0-4.2-1.9-4.2-4.2v-0.3c0-2.3,1.9-4.2,4.2-4.2h5.5c2.3,0,4.2,1.9,4.2,4.2v0.3
	C112,36.2,110.1,38.1,107.8,38.1z"/>
<path class="st1" d="M64.1,71.1L39.9,52.7c-1.2-0.9-2.9-0.7-3.8,0.4l-3.1,3.8c-1,1.2-0.7,3.2,0.7,4.1l25,15.7l0.3-7.5L39.6,81.5
	c-1.3,0.9-1.8,2.9-0.6,4.1l3,3.6c0.9,1.1,2.6,1.3,3.7,0.5l21.6-15L64.1,71.1z"/>
<path class="st2" d="M82.5,148.3c0,9.9,0,13.7-0.1,15.9c-0.1,1.8-2,2.8-3.5,1.8c0,0,0,0-0.1,0c-1.3-0.8-3-0.8-4.4-0.1
	c-0.2,0.1-0.4,0.3-0.6,0.5c-1.1,1.2-2.2,2.4-3.7,3.3c-1.8,1-3.1-2.3-3.4-2.6c-0.7-1-2-1.5-3.1-1.2c-1.8,0.4-3.3,2.4-4.4,2
	c-1-0.4-1.8-4.4-1.8-4.4c-0.3-1.1-1.1-2.1-2.2-2.6c-1.6-0.7-5.5-0.1-6.7-1.2c-1.2-1.1-0.3-4.6-0.1-5.3c0.2-1.2,0.2-2.3,0-3.5
	c0-0.2-0.1-0.3-0.2-0.5c-0.4-1-1.3-1.9-3.3-2.7c-2.2-0.8-4-1.1-4.8-3.2s2.1-4.5,2.4-4.8c1.1-1.2,1.5-2.9,1.4-4.5
	c0-0.2,0-0.3-0.1-0.5c-0.7-2.1-2.3-3.3-3.1-4.5c-0.6-0.7-0.8-1.5-0.8-2.3c0-0.5,0.3-1,0.6-1.4c0.6-0.6,1.6-1.2,2.2-1.5
	c1.1-0.4,2.1-1.3,2.5-2.5c0.7-1.8,0-3.2-0.2-4.5c-0.2-1.2-0.7-1.8-0.2-2.6c0.4-0.9,1.9-0.8,3.1-0.6c1,0.2,2.1,0,2.9-0.7
	c0.8-0.7,0.8-1.6,0.9-3c0.1-1.3,0.3-2.4,1.8-3c1.3-0.6,2.9,0.4,3.5,0.7c1,0.4,2.2,0.6,3.2,0.2c1.3-0.6,2.4-1.8,3.1-3
	c0.4-0.9,0.8-2.1,2.2-2.4c1.3-0.3,2.2,0.9,2.5,1.2c0.7,0.7,1.8,0.9,2.6,0.8c0.9-0.2,1.6-0.8,2.2-1.6c0.4-0.7,1.2-1,2.1-1.2
	c1.1-0.2,2.3,0.1,3.1,1c1.1,1,2.4,2.4,3.6,2.7s7.1-0.7,4.8-0.2c-19,3.2-1.9,6.7-2.9,9s-4.5,0.4-6.8,4.7c-0.4,0.7-1,0.8-1.1,1.5
	c-0.2,0.6-0.6,1-0.9,1.3c-1.3,0.8-2.7,1.5-4.4,1.9c-0.9-0.1-0.9,1.9-1.2,2.6c-0.2,0.7-0.7,1.1-1.2,1.6c-0.6,0.4-1.5,0.8-1.3,1.2
	c0.1,0.4,1.2,0.6,2.3,0.9c0.7,0.1,1.2,0.4,1.7,0.9c0.4,0.4,0.6,0.8,0.7,1.3c0.1,0.9,0.1,2.1,0.6,2.9c0.7,1,1.3,0.7,2.1,0.8
	c0.7,0.1,1.2,0,1.6,0.7c0.3,0.6,0.4,1.2,0.3,1.9c-0.1,1.2-0.1,1.2,0.1,1.8c0.2,0.4,1,0.7,1.8,0.8c0.4,0.1,0.8,0.2,1.2,0.4
	C79.5,142.7,82.9,146.3,82.5,148.3z"/>
<path class="st2" d="M126.1,148.3c0,9.9,0,13.7,0.1,15.9c0.1,1.8,2,2.8,3.5,1.8c0,0,0,0,0.1,0c1.3-0.8,3-0.8,4.4-0.1
	c0.2,0.1,0.4,0.3,0.6,0.5c1.1,1.2,2.2,2.4,3.7,3.3c1.8,1,3.1-2.3,3.4-2.6c0.7-1,2-1.5,3.1-1.2c1.8,0.4,3.3,2.4,4.4,2
	c1-0.4,1.8-4.4,1.8-4.4c0.3-1.1,1.1-2.1,2.2-2.6c1.6-0.7,5.5-0.1,6.7-1.2c1.2-1.1,0.3-4.6,0.1-5.3c-0.2-1.2-0.2-2.3,0-3.5
	c0-0.2,0.1-0.3,0.2-0.5c0.4-1,1.3-1.9,3.3-2.7c2.2-0.8,4-1.1,4.8-3.2c0.7-2.1-2.1-4.5-2.4-4.8c-1.1-1.2-1.5-2.9-1.4-4.5
	c0-0.2,0-0.3,0.1-0.5c0.7-2.1,2.3-3.3,3.1-4.5c0.6-0.7,0.8-1.5,0.8-2.3c0-0.5-0.3-1-0.6-1.4c-0.6-0.6-1.6-1.2-2.2-1.5
	c-1.1-0.4-2.2-1.3-2.5-2.5c-0.7-1.8,0-3.2,0.2-4.5c0.2-1.2,0.7-1.8,0.2-2.6s-1.9-0.8-3.1-0.6c-1,0.2-2.1,0-2.9-0.7
	c-0.8-0.7-0.8-1.6-0.9-3c-0.1-1.3-0.2-2.4-1.8-3c-1.5-0.6-2.9,0.4-3.5,0.7c-1,0.4-2.2,0.6-3.3,0.2c-1.3-0.6-2.4-1.8-3.1-3
	c-0.4-0.9-0.9-2.1-2.2-2.4c-1.2-0.3-2.2,0.9-2.5,1.2c-0.6,0.6-1.3,0.8-2,0.8c-0.4,0-0.9-0.1-1.3-0.3c-0.5-0.3-1-0.7-1.4-1.3
	c-0.4-0.7-1.2-1-2.1-1.2c-1.1-0.2-2.3,0.1-3.1,1c-1.1,1-2.4,2.4-3.6,2.7c-1.2,0.3-7.1-0.7-4.8-0.2c19,3.2,1.9,6.7,2.9,9
	s4.5,0.4,6.8,4.7c0.4,0.7,1,0.8,1.2,1.5c0.2,0.6,0.6,1,0.9,1.3c1.3,0.8,2.7,1.5,4.3,1.9c0.9-0.1,0.9,1.9,1.2,2.6
	c0.2,0.7,0.7,1.1,1.2,1.6c0.6,0.4,1.5,0.8,1.3,1.2c-0.1,0.4-1.2,0.6-2.3,0.9c-0.7,0.1-1.2,0.4-1.7,0.9c-0.4,0.4-0.6,0.8-0.7,1.3
	c-0.1,0.9-0.1,2.1-0.6,2.9c-0.7,1-1.3,0.7-2.1,0.8s-1.2,0-1.6,0.7c-0.3,0.6-0.4,1.2-0.3,1.9c0.1,1.2,0.1,1.2-0.1,1.8
	c-0.2,0.4-1,0.7-1.8,0.8c-0.4,0.1-0.8,0.2-1.2,0.4C129.1,142.7,125.7,146.3,126.1,148.3z"/>
<path class="st2" d="M104.5,140.9c-27.4,0-49.6-24.9-49.6-55.7s22.6-55.8,49.9-55.8"/>
<path class="st2" d="M105.3,29.3c27.4,0,49.6,24.8,49.6,55.6s-22.2,55.7-49.6,55.7l0,0"/>
<g>
	<path class="st3" d="M70.2,128l-8.4-25.4c0,0-8.2-8.4-14.1-2.6c-3.9,3.9,5.3,30.1,10.4,31.1C66.5,133,70.2,128,70.2,128z"/>
	<path class="st3" d="M139,128l8.4-25.4c0,0,8.2-8.4,14.1-2.6c3.9,3.9-5.3,30.1-10.4,31.1C142.7,133,139,128,139,128z"/>
	<path class="st0" d="M104.8,37.5L104.8,37.5C80,37.4,60,49,60,84.7c0,8.2,0.6,16.4,1.9,24.6c1.1,7.2,2.9,14.1,5.3,21
		c8,22.5,21.9,36.5,37.8,36.5v0.1c15.7,0,29.4-13.6,37.4-35.6c3.3-9.2,5.5-18.8,6.5-28.5c0.6-5.9,1-11.9,1-17.8
		C149.7,49.1,129.6,37.5,104.8,37.5z"/>
</g>
<path class="st1" d="M63.7,75.5L77,70.2c16.5-6.5,35.3-6.8,51.9-0.7l16.4,6c3.1,1.1,6.5,4.1,7.4,1.1l0.8-3.3
	c1-3.9-8.5-21.3-16.7-27.5c-5.8-4.4-12.8-7.1-20-8c-7.1-0.7-13.9-0.8-20.7-0.2c-6.5,0.6-13.2,2.7-18.6,6.2
	C67.2,50.5,54,70.6,55,73.7l1.2,3.3C57.3,79.8,60.7,76.6,63.7,75.5z"/>
</svg>
