<?xml version="1.0" encoding="utf-8"?>
<!-- Generator: Adobe Illustrator 26.0.3, SVG Export Plug-In . SVG Version: 6.00 Build 0)  -->
<svg version="1.1" id="Calque_1" xmlns="http://www.w3.org/2000/svg" xmlns:xlink="http://www.w3.org/1999/xlink" x="0px" y="0px"
	 viewBox="0 0 200 200" style="enable-background:new 0 0 200 200;" xml:space="preserve">
<style type="text/css">
	.st0{fill:#654321;}
	.st1{fill:#C83C55;}
	.st2{fill:#277A9B;}
	.st3{fill:#E1795D;}
	.st4{fill:#FD8C75;}
	.st5{fill:#22677C;}
</style>
<g>
	<path class="st0" d="M167.7,125.2c0,0-7.9,33.3-44.4,19.8c-0.2,0-3.6,6.7-3.6,6.7s7.8,23.8,32.2,20.2
		C176.3,168.3,176.5,135.1,167.7,125.2z"/>
	<circle class="st1" cx="122.3" cy="144" r="5.5"/>
	<circle class="st2" cx="115.9" cy="152.2" r="5.5"/>
</g>
<path class="st0" d="M84.4,140.4c-26.7,0-48.4-21.8-48.4-48.4s21.8-48.4,48.4-48.4"/>
<path class="st0" d="M85.4,43.6c26.7,0,48.4,21.8,48.4,48.5s-21.8,48.4-48.4,48.4"/>
<g>
	<path class="st3" d="M50.6,133l-8.3-25.1c0,0-8.1-8.3-13.9-2.6c-3.9,3.9,5.2,29.6,10.3,30.7C47,137.9,50.6,133,50.6,133z"/>
	<path class="st3" d="M118.5,133l8.3-25.1c0,0,8.1-8.3,13.9-2.6c3.9,3.9-5.2,29.6-10.3,30.7C122.2,137.9,118.5,133,118.5,133z"/>
	<path class="st4" d="M84.8,43.8L84.8,43.8c-24.4-0.1-44.2,11.3-44.2,46.6c0,8.1,0.6,16.2,1.8,24.2c1.1,7,2.9,13.9,5.2,20.6
		c7.9,22.2,21.6,36,37.2,36v0.1c15.5,0,29-13.4,37-35.1c3.2-9.1,5.4-18.5,6.5-28.1c0.6-5.8,1-11.8,1-17.6
		C129.1,55.2,109.2,43.8,84.8,43.8z"/>
</g>
<path class="st2" d="M130.8,72.8c-1.2,4.6-0.7,9.8-2.4,14.6c-0.8,2-2.2,2.7-4.8,2.6c-2.9-0.2-5.8-1.1-8.6-1.9c-4-1-8-2-12-3.1
	c-10.9-3.3-21.8-2.8-32.8-0.3c-7.6,1.7-14.9,3.8-22.7,4.9c-6,1-7.1,0.5-8.5-4.3c-0.3-1.1-0.5-2.2-0.8-3.4c-0.6-3.4-0.5-6.9-1.5-10.4
	L55.4,69c19.3-2.6,39.1-2.2,58.2,0.9L130.8,72.8z"/>
<path class="st5" d="M130.6,74.1c0.2-1,0.5-2,1-2.9c-1-10.2-3.4-19.7-7.4-28.7c-2.7-5.9-7.4-9.7-14.1-12.1c-3.1-1.1-6.5-1.9-9.8-2.7
	c-4.9-1.1-10.4-0.5-15-2.7c-1.1-0.6-2.6-0.2-3.3,0.5c-1.3,1-2.8,1-4.3,1.1C72.5,27,67.3,28,62.5,29.3c-8.6,2.4-15.4,6.5-18.3,14.3
	c-2.3,6-4.4,12.2-5.6,18.5c-0.6,3.6-2.3,7.2-1.1,10.7L54,70.7c20.8-2.9,42-2.4,62.7,1.1L130.6,74.1z"/>
</svg>
