<?xml version="1.0" encoding="utf-8"?>
<!-- Generator: Adobe Illustrator 26.0.3, SVG Export Plug-In . SVG Version: 6.00 Build 0)  -->
<svg version="1.1" id="Calque_1" xmlns="http://www.w3.org/2000/svg" xmlns:xlink="http://www.w3.org/1999/xlink" x="0px" y="0px"
	 viewBox="0 0 200 200" style="enable-background:new 0 0 200 200;" xml:space="preserve">
<style type="text/css">
	.st0{fill:#51351C;}
	.st1{fill:#E1795D;}
	.st2{fill:#FD8C75;}
	.st3{clip-path:url(#SVGID_00000134223371037501686700000003189578519315788179_);}
	.st4{fill:#B7837E;}
	.st5{fill:#B26959;}
	.st6{fill:#654321;}
	.st7{fill:#B22947;}
	.st8{fill:#87213C;}
</style>
<path class="st0" d="M117.2,87.6c17.6-4.8,25.4-7.9,29-8.7c3.6-0.8,3.2,0.8,4.2,5.2c2,8.9,5.2,49.7,5.2,49.7s-2.5,21-6.5,31.6
	c-4,10.6,2.3,35.5-1.8,32.2c-5.7-4.5-17.7-21.3-23.6-21.9c-5.8-0.6-6.5-2-9.8-8.1C110.6,161.5,117.2,87.6,117.2,87.6z"/>
<g>
	<path class="st1" d="M66.7,135.4l-8.1-24.5c0,0-7.9-8.1-13.6-2.5c-3.8,3.8,5.1,29,10,30C63.2,140.2,66.7,135.4,66.7,135.4z"/>
	<path class="st1" d="M133.1,135.4l8.1-24.5c0,0,7.9-8.1,13.6-2.5c3.8,3.8-5.1,29-10,30C136.6,140.2,133.1,135.4,133.1,135.4z"/>
	<path class="st2" d="M100.1,48.1L100.1,48.1C76.2,48,56.9,59.2,56.9,93.6c0,7.9,0.6,15.8,1.8,23.7c1.1,6.9,2.8,13.6,5.1,20.2
		c7.7,21.7,21.1,35.2,36.4,35.2v0.1c15.1,0,28.3-13.1,36.1-34.3c3.2-8.9,5.3-18.1,6.3-27.5c0.6-5.7,1-11.5,1-17.2
		C143.4,59.3,124,48.1,100.1,48.1z"/>
</g>
<g>
	<g>
		<g>
			<g>
				<g>
					<g>
						<defs>
							<polygon id="SVGID_1_" points="63.3,85.3 63.3,85.3 47.8,85.3 47.8,115.5 63.3,115.5 							"/>
						</defs>
						<clipPath id="SVGID_00000013170406754669168930000003307337097104694145_">
							<use xlink:href="#SVGID_1_"  style="overflow:visible;"/>
						</clipPath>
						<g style="clip-path:url(#SVGID_00000013170406754669168930000003307337097104694145_);">
							<path class="st4" d="M62.3,91.4c0,0-5.2-6.4-8.3-6.1c-4.6,0.5-6.6,9-6.1,12.8c0.8,4.8,5,15.1,10.4,17.3c1,0.4,5-0.9,5-0.9
								L62.3,91.4z"/>
						</g>
					</g>
				</g>
			</g>
		</g>
	</g>
</g>
<path class="st5" d="M78.4,57.7c0.9-2.1,2-4.1,3.4-5.9s2.9-3.5,4.6-5s3.5-2.9,5.5-4.1c1.9-1.2,4-2.2,6.1-2.9c-2.1,0.9-4.1,2-5.9,3.2
	c-1.9,1.2-3.7,2.6-5.3,4.1c-1.7,1.5-3.3,3.1-4.7,4.8C80.7,53.8,79.5,55.7,78.4,57.7z"/>
<path class="st6" d="M107.2,42.8c2.9,15.1-9.9,20.7-0.7,22.3c17.1,3,25.6,8.1,29.9,15.4c8.2,13.6,17.3,41.2,7.6,63.1
	c-6.7,15.2-9.1,51.4,13.2,62.6c0,0-11.8-12.6,4.4-44.2s-2.7-76.7-25.8-100.1C107.2,33,107.2,42.8,107.2,42.8z"/>
<path class="st6" d="M107.2,42.8c0,0.9,1.2,18.7-15.5,23.1c-16.9,4.5-22.9,14.1-25.4,22.1c-4.7,15.2-7,44.1,7.7,63.1
	c10.1,13.2,21.1,47.7,2.2,64c0,0,8.4-15.1-14.8-41.9S35.9,95.5,55,68.7C88.9,21,107.2,42.8,107.2,42.8z"/>
<path class="st7" d="M23.4,71.3c1.5-4.7,5.2-7.9,8.6-11.1C44,48.8,57.6,39.3,71.8,30.7c2.1-1.3,3.3-2.6,2.4-4.9
	c-1.1-2.7,0.2-4.7,2.4-5.9c2.5-1.4,5.3-1.4,7.1,1c1.5,2,2.7,1.4,4.4,0.5c10.8-5.8,21.9-10.9,33.7-14.1c6.3-1.6,12.5-2.2,18.9-1.3
	c3.6,0.4,6.6,2.1,7.4,6.3c1,7.3-4.4,10.8-8.9,14.6c-12.9,11.1-28,18.2-43.3,25.4C85.6,57,75,61.7,64,65.5
	c-10.5,3.7-21.1,7.4-32.1,9.4C28.4,75.5,25,75.4,23.4,71.3z"/>
<path class="st8" d="M23.4,71.3c1.6,4.1,5.1,4.2,8.6,3.5c11-2.1,21.5-5.7,32.1-9.4c11-3.8,21.5-8.4,32-13.3
	c15.2-7.1,30.4-14.3,43.3-25.4c4.4-3.8,9.8-7.5,8.9-14.6c2.5,5.8,1.3,11.5-0.5,17c-3,8.9-7.7,16.9-13.5,24.3
	c-1.8,0.7-3.4-0.5-5.1-0.7c-13.2-0.8-25.6,2.6-37.8,6.9c-10,3.5-19.8,7.7-30.1,10.7c-4.7,1.3-9.8,1.8-14.2,4.3
	c-6,1.1-12.1,2.5-18.4,2.2C24.1,76.6,23.3,75.5,23.4,71.3z"/>
<path class="st7" d="M47,74.6c4.4-2.5,9.4-3,14.2-4.3c10.2-3,20-7.1,30.1-10.7c12.2-4.2,24.6-7.7,37.8-6.9c1.8,0.1,3.3,1.3,5.1,0.7
	c0.5,2.9,1,5.6,1.6,8.5c0.4,1.8-0.2,2.2-1.9,2c-17.7-1.5-34.8,1.9-51.8,6c-11,2.6-22,5.6-31.8,11.5c-1.6,1-2.2,0.2-2.4-1.2
	C47.6,78.4,47.3,76.5,47,74.6z"/>
</svg>
