<?xml version="1.0" encoding="utf-8"?>
<!-- Generator: Adobe Illustrator 26.0.3, SVG Export Plug-In . SVG Version: 6.00 Build 0)  -->
<svg version="1.1" id="Calque_1" xmlns="http://www.w3.org/2000/svg" xmlns:xlink="http://www.w3.org/1999/xlink" x="0px" y="0px"
	 viewBox="0 0 200 200" style="enable-background:new 0 0 200 200;" xml:space="preserve">
<style type="text/css">
	.st0{fill:#E1795D;}
	.st1{fill:#FD8C75;}
	.st2{fill:#654321;}
	.st3{fill:#B70F67;}
</style>
<g>
	<path class="st0" d="M70.4,145.1l-8.1-24.5c0,0-7.9-8.1-13.6-2.5c-3.8,3.8,5.1,29,10,30C66.9,149.9,70.4,145.1,70.4,145.1z"/>
	<path class="st0" d="M136.8,145.1l8.1-24.5c0,0,7.9-8.1,13.6-2.5c3.8,3.8-5.1,29-10,30C140.3,149.9,136.8,145.1,136.8,145.1z"/>
	<path class="st1" d="M103.8,57.8L103.8,57.8c-23.9-0.1-43.2,11.1-43.2,45.5c0,7.9,0.6,15.8,1.8,23.7c1.1,6.9,2.8,13.6,5.1,20.2
		c7.7,21.7,21.1,35.2,36.4,35.2v0.1c15.1,0,28.3-13.1,36.1-34.3c3.2-8.9,5.3-18.1,6.3-27.5c0.6-5.7,1-11.5,1-17.2
		C147.1,69,127.7,57.8,103.8,57.8z"/>
</g>
<g id="Calque_10">
	<path class="st2" d="M62.8,129.6c0,0-41.5-61,27.7-78.2c0,0-26-33.9,12.7-33.9c36.7,0,15.6,32.4,12.9,33c0,0,63.4,15.2,29.2,77
		c0,0-1.2-45.8-8.6-48.9c-0.3,2.6-0.5,5.3-0.6,8c0,1.2-0.8,2.2-2,2.4c-10.1,1.9-20.3,2.8-30.5,2.6c-11.4-0.2-23,0.1-34.3-1.7
		c-1.2-0.2-2-1.2-2.1-2.4l-0.1-5.3C58,88.9,62.8,129.6,62.8,129.6z"/>
</g>
<path class="st3" d="M121.2,64.8l-17.7-6.6l-17.7,6.6c-3.7,0-6.7-4.5-6.7-9.9V48c0-5.5,3-9.9,6.7-9.9l17.7,6.6l17.7-6.6
	c3.7,0,6.7,4.5,6.7,9.9v6.9C128,60.4,124.9,64.8,121.2,64.8z"/>
<path class="st3" d="M103.5,62.5L103.5,62.5c-2.5,0-4.5-2-4.5-4.5V45.2c0-2.5,2-4.5,4.5-4.5h0c2.5,0,4.5,2,4.5,4.5V58
	C108,60.5,106,62.5,103.5,62.5z"/>
</svg>
