<?xml version="1.0" encoding="utf-8"?>
<!-- Generator: Adobe Illustrator 26.0.3, SVG Export Plug-In . SVG Version: 6.00 Build 0)  -->
<svg version="1.1" id="Calque_1" xmlns="http://www.w3.org/2000/svg" xmlns:xlink="http://www.w3.org/1999/xlink" x="0px" y="0px"
	 viewBox="0 0 200 200" style="enable-background:new 0 0 200 200;" xml:space="preserve">
<style type="text/css">
	.st0{fill:#54371D;}
	.st1{fill:#654321;}
	.st2{fill:#E1795D;}
	.st3{fill:#FD8C75;}
</style>
<path class="st0" d="M134.3,38.8c0,0,32.1,22.3,27.5,68.8c-3.9,39-44.5,70.4-44.5,70.4l-3-22.6l15.8-27.5l2.3-70.3L134.3,38.8z"/>
<path class="st1" d="M125.8,170.5c-0.8,0.6,29.7-34.4,26.3-57c-3.5-22.6,2.4-24.9,3-24.4c0.6,0.5,7.6,21.5,7.6,22
	S155.1,147.3,125.8,170.5z"/>
<g>
	<path class="st2" d="M61.4,127.3l-8.5-25.7c0,0-8.3-8.5-14.3-2.6c-4,4,5.4,30.5,10.5,31.5C57.7,132.3,61.4,127.3,61.4,127.3z"/>
	<path class="st2" d="M131.1,127.3l8.5-25.7c0,0,8.3-8.5,14.3-2.6c4,4-5.4,30.5-10.5,31.5C134.8,132.3,131.1,127.3,131.1,127.3z"/>
	<path class="st3" d="M96.5,35.6L96.5,35.6c-25.1-0.1-45.4,11.7-45.4,47.8c0,8.3,0.6,16.6,1.9,24.9c1.2,7.2,2.9,14.3,5.4,21.2
		c8.1,22.8,22.2,37,38.2,37v0.1c15.9,0,29.7-13.8,37.9-36c3.4-9.3,5.6-19,6.6-28.9c0.6-6,1.1-12.1,1.1-18.1
		C141.9,47.3,121.6,35.6,96.5,35.6z"/>
</g>
<path class="st1" d="M51.1,101.6L44,97.5c0,0-7.4-12.7-7.2-25.2c0-15.9,29.6-43.2,46.2-46c4.5-0.7,9.1,0.4,12.7,3.4
	c0,0,19.1-0.6,24.8,1.7c25.9,10.5,31.3,27.7,30.5,39.4c-0.9,13.2-2.9,26.7-2.9,26.7l-9.3,4.7l-4.3-22.3L121.6,71
	c0,0-6.8-10.9-6.5-10.9s2.4,9.8,2.4,9.8S106,70.4,103,68.6c-2.2-1.4-5.3-8.8-5.3-8.8s-9.2,7.6-12.5,9.3c-3.7,2-11.7,2.7-11.7,2.7
	l1.4-12.7L64.5,72.3L53,81.3L51.1,101.6z"/>
<path class="st1" d="M95.6,29.6c0,0,16.6-7.8,26.2-1.7s32.8,20.8,39.5,48.7c4.6,19.3,3.2,35.9-4.7,51c0,0-18.3-0.8-18-25.6
	C139,69,115,59.9,115,59.9L95.6,29.6z"/>
</svg>
