<?xml version="1.0" encoding="utf-8"?>
<!-- Generator: Adobe Illustrator 26.0.3, SVG Export Plug-In . SVG Version: 6.00 Build 0)  -->
<svg version="1.1" id="Calque_1" xmlns="http://www.w3.org/2000/svg" xmlns:xlink="http://www.w3.org/1999/xlink" x="0px" y="0px"
	 viewBox="0 0 200 200" style="enable-background:new 0 0 200 200;" xml:space="preserve">
<style type="text/css">
	.st0{fill:#D68F72;}
	.st1{fill:#E1795D;}
	.st2{fill:#FD8C75;}
	.st3{fill:#B9785C;}
	.st4{fill:#654321;}
</style>
<path class="st0" d="M102.6,45.1c24.6,0,44.6,11.5,44.6,47c0,47.4-28.2,81.4-44.6,81.4"/>
<g>
	<path class="st1" d="M68.5,135.8l-8.3-25.2c0,0-8.1-8.3-14-2.6c-3.9,3.9,5.3,29.9,10.3,30.9C64.9,140.8,68.5,135.8,68.5,135.8z"/>
	<path class="st1" d="M136.9,135.8l8.3-25.2c0,0,8.1-8.3,14-2.6c3.9,3.9-5.3,29.9-10.3,30.9C140.5,140.8,136.9,135.8,136.9,135.8z"
		/>
	<path class="st2" d="M102.9,45.9L102.9,45.9c-24.6-0.1-44.5,11.4-44.5,46.9c0,8.1,0.6,16.3,1.9,24.4c1.1,7.1,2.9,14,5.3,20.8
		c7.9,22.3,21.7,36.3,37.5,36.3v0.1c15.6,0,29.1-13.5,37.2-35.3c3.3-9.2,5.5-18.6,6.5-28.3c0.6-5.9,1-11.8,1-17.7
		C147.5,57.5,127.5,45.9,102.9,45.9z"/>
</g>
<path class="st3" d="M103.4,67.1l2.2,15.8c0.1,0.7,0.7,1.1,1.4,1.1l14.6-1.3c0.5-0.1,0.9-0.4,1.1-0.9l2.8-8c0.4-1.3,2.3-1.1,2.5,0.2
	l1.5,9c0.1,0.4,0.3,0.8,0.7,0.9l11.7,6.2c1,0.5,2.2-0.4,1.9-1.5L131.5,46c-0.2-0.6-0.7-1-1.3-0.9l-35.7,1.4
	c-0.7,0.1-1.2,0.6-1.3,1.3l-0.7,30c-0.1,1.4,1.8,1.9,2.5,0.6l6.1-11.7C101.5,65.6,103.2,65.9,103.4,67.1z"/>
<path class="st4" d="M104,26.6c-70.4-1-64.8,93.9-64.3,94.2c9,4,17.7,3.8,22.3,3.2c1.9-0.2,3.2-1.9,3.1-3.8l-2.7-32.5
	c-0.2-2.1,1.5-3.9,3.5-3.8l22.9,0.6c1.5,0.1,2.8-0.8,3.4-2.2L102.5,56c0.4-1.1,2-0.8,2.1,0.3l2.6,26.1c0.2,1.8,1.6,3.1,3.4,3.2
	l10.1,0.2c1.7,0,3.2-1.2,3.5-2.9l4-21.2c0.2-1.1,1.8-1.2,2.1-0.1l7.2,25.3c0.4,1.3,1.4,2.2,2.7,2.5l0,0c1.7,0.4,2.9,1.9,2.8,3.6
	c-0.7,10.9-1.5,22.4-1.8,28c-0.1,2,1.4,3.6,3.4,3.6c5.9,0.2,13.7-0.6,17.9-1.2c1.6-0.2,2.9-1.6,3.1-3.3
	C166.3,104.3,167.2,27.5,104,26.6z"/>
</svg>
