<?xml version="1.0" encoding="utf-8"?>
<!-- Generator: Adobe Illustrator 26.0.3, SVG Export Plug-In . SVG Version: 6.00 Build 0)  -->
<svg version="1.1" id="Calque_1" xmlns="http://www.w3.org/2000/svg" xmlns:xlink="http://www.w3.org/1999/xlink" x="0px" y="0px"
	 viewBox="0 0 788 1005" style="enable-background:new 0 0 788 1005;" xml:space="preserve">
<style type="text/css">
	.st0{fill:#E1795D;}
	.st1{fill:#FD8C75;}
	.st2{fill:#654321;}
</style>
<g>
	<path class="st0" d="M360.8,268.5l-8.1-24.5c0,0-7.9-8.1-13.6-2.5c-3.8,3.8,5.1,29,10,30C357.3,273.3,360.8,268.5,360.8,268.5z"/>
	<path class="st0" d="M427.2,268.5l8.1-24.5c0,0,7.9-8.1,13.6-2.5c3.8,3.8-5.1,29-10,30C430.7,273.3,427.2,268.5,427.2,268.5z"/>
	<path class="st1" d="M394.2,181.2L394.2,181.2c-23.9-0.1-43.2,11.1-43.2,45.5c0,7.9,0.6,15.8,1.8,23.7c1.1,6.9,2.8,13.6,5.1,20.2
		c7.7,21.7,21.1,35.2,36.4,35.2v0.1c15.1,0,28.3-13.1,36.1-34.3c3.2-8.9,5.3-18.1,6.3-27.5c0.6-5.7,1-11.5,1-17.2
		C437.5,192.4,418.1,181.2,394.2,181.2z"/>
</g>
<path class="st2" d="M423.6,191.4c0,0-13.5,7.5-29.5,7.1s-47.7,8.5-41.4,45c0,0-15.2-2.2-14.6-27.5c5-57.9,74.2-78.7,92.9-26.6
	c0,0,2,4.4-2.1,5.2L423.6,191.4z"/>
<path class="st2" d="M431.5,201.1c-0.4-1-1.2-3.5-0.7-4.5c1.9-3.1,4.1-0.1,5.3,2c1.3,2.3,2.6,7.5-1.4,6.8
	C433.5,205.2,432,202.4,431.5,201.1z"/>
<path class="st2" d="M435.5,216.6c-0.1-1.1-0.2-3.8,0.6-4.5c2.6-2.5,3.9,1,4.5,3.3c0.7,2.6,0.5,7.9-3.1,6.2
	C436.2,221,435.7,217.9,435.5,216.6z"/>
<path class="st2" d="M435.6,229.9c0.1-1.1,0.7-3.7,1.7-4.2c3.2-1.8,3.6,2,3.6,4.4c0,2.6-1.4,7.8-4.6,5.2
	C435.2,234.4,435.4,231.2,435.6,229.9z"/>
</svg>
