<?xml version="1.0" encoding="utf-8"?>
<!-- Generator: Adobe Illustrator 26.0.3, SVG Export Plug-In . SVG Version: 6.00 Build 0)  -->
<svg version="1.1" id="Calque_1" xmlns="http://www.w3.org/2000/svg" xmlns:xlink="http://www.w3.org/1999/xlink" x="0px" y="0px"
	 viewBox="0 0 788 1005" style="enable-background:new 0 0 788 1005;" xml:space="preserve">
<style type="text/css">
	.st0{fill:#D68F72;}
	.st1{fill:#E1795D;}
	.st2{fill:#FD8C75;}
	.st3{fill:#B9785C;}
	.st4{fill:#654321;}
</style>
<path class="st0" d="M393.9,180.4c23.9,0,43.3,11.2,43.3,45.6c0,46-27.4,79-43.3,79"/>
<g>
	<path class="st1" d="M360.8,268.5l-8.1-24.5c0,0-7.9-8.1-13.6-2.5c-3.8,3.8,5.1,29,10,30C357.3,273.3,360.8,268.5,360.8,268.5z"/>
	<path class="st1" d="M427.2,268.5l8.1-24.5c0,0,7.9-8.1,13.6-2.5c3.8,3.8-5.1,29-10,30C430.7,273.3,427.2,268.5,427.2,268.5z"/>
	<path class="st2" d="M394.2,181.2L394.2,181.2c-23.9-0.1-43.2,11.1-43.2,45.5c0,7.9,0.6,15.8,1.8,23.7c1.1,6.9,2.8,13.6,5.1,20.2
		c7.7,21.7,21.1,35.2,36.4,35.2v0.1c15.1,0,28.3-13.1,36.1-34.3c3.2-8.9,5.3-18.1,6.3-27.5c0.6-5.7,1-11.5,1-17.2
		C437.5,192.4,418.1,181.2,394.2,181.2z"/>
</g>
<path class="st3" d="M394.7,201.8l2.1,15.3c0.1,0.6,0.7,1.1,1.3,1.1l14.2-1.2c0.5-0.1,0.9-0.4,1.1-0.8l2.7-7.7
	c0.4-1.2,2.2-1.1,2.4,0.2l1.5,8.7c0.1,0.4,0.3,0.7,0.6,0.9l11.4,6c1,0.5,2.1-0.4,1.8-1.4L422,181.3c-0.2-0.6-0.7-1-1.3-0.9
	l-34.7,1.4c-0.6,0.1-1.2,0.6-1.2,1.2l-0.7,29.2c-0.1,1.3,1.8,1.8,2.4,0.6l5.9-11.4C392.9,200.3,394.5,200.6,394.7,201.8z"/>
<path class="st4" d="M395.3,162.4c-68.3-0.9-62.9,91.2-62.4,91.4c8.8,3.9,17.2,3.7,21.7,3.2c1.8-0.2,3.2-1.8,3-3.7l-2.6-31.5
	c-0.2-2,1.4-3.8,3.4-3.7l22.2,0.5c1.4,0.1,2.7-0.8,3.3-2.2l9.9-25.5c0.4-1,1.9-0.8,2,0.3l2.6,25.4c0.2,1.7,1.6,3,3.3,3.1l9.8,0.2
	c1.7,0,3.1-1.1,3.4-2.8l3.9-20.5c0.2-1.1,1.7-1.2,2.1-0.1l7,24.6c0.4,1.3,1.4,2.1,2.6,2.4l0,0c1.7,0.4,2.8,1.8,2.7,3.5
	c-0.7,10.5-1.5,21.7-1.8,27.2c-0.1,1.9,1.4,3.5,3.3,3.5c5.7,0.2,13.3-0.6,17.4-1.1c1.6-0.2,2.8-1.5,3-3.2
	C455.8,237.9,456.6,163.3,395.3,162.4z"/>
</svg>
