<?xml version="1.0" encoding="utf-8"?>
<!-- Generator: Adobe Illustrator 26.0.3, SVG Export Plug-In . SVG Version: 6.00 Build 0)  -->
<svg version="1.1" id="Calque_1" xmlns="http://www.w3.org/2000/svg" xmlns:xlink="http://www.w3.org/1999/xlink" x="0px" y="0px"
	 viewBox="0 0 788 1005" style="enable-background:new 0 0 788 1005;" xml:space="preserve">
<style type="text/css">
	.st0{fill:#654321;}
	.st1{fill:#C83C55;}
	.st2{fill:#277A9B;}
	.st3{fill:#E1795D;}
	.st4{fill:#FD8C75;}
	.st5{fill:#22677C;}
</style>
<g>
	<path class="st0" d="M475.2,260.9c0,0-7.7,32.5-43.4,19.4c-0.2,0-3.5,6.5-3.5,6.5s7.6,23.3,31.5,19.8
		C483.6,303,483.9,270.5,475.2,260.9z"/>
	<circle class="st1" cx="430.9" cy="279.3" r="5.4"/>
	<circle class="st2" cx="424.6" cy="287.2" r="5.4"/>
</g>
<path class="st0" d="M393.9,275.7c-26.1,0-47.3-21.2-47.3-47.3s21.2-47.3,47.3-47.3"/>
<path class="st0" d="M394.8,181c26.1,0,47.3,21.2,47.3,47.4c0,26.1-21.2,47.3-47.3,47.3"/>
<g>
	<path class="st3" d="M360.8,268.5l-8.1-24.5c0,0-7.9-8.1-13.6-2.5c-3.8,3.8,5.1,29,10,30C357.3,273.3,360.8,268.5,360.8,268.5z"/>
	<path class="st3" d="M427.2,268.5l8.1-24.5c0,0,7.9-8.1,13.6-2.5c3.8,3.8-5.1,29-10,30C430.7,273.3,427.2,268.5,427.2,268.5z"/>
	<path class="st4" d="M394.2,181.2L394.2,181.2c-23.9-0.1-43.2,11.1-43.2,45.5c0,7.9,0.6,15.8,1.8,23.7c1.1,6.9,2.8,13.6,5.1,20.2
		c7.7,21.7,21.1,35.2,36.4,35.2v0.1c15.1,0,28.3-13.1,36.1-34.3c3.2-8.9,5.3-18.1,6.3-27.5c0.6-5.7,1-11.5,1-17.2
		C437.5,192.4,418.1,181.2,394.2,181.2z"/>
</g>
<path class="st2" d="M439.2,209.5c-1.2,4.5-0.6,9.5-2.4,14.3c-0.8,1.9-2.1,2.6-4.6,2.5c-2.9-0.2-5.7-1.1-8.5-1.8
	c-3.9-1-7.8-1.9-11.7-3.1c-10.7-3.2-21.2-2.7-32.1-0.3c-7.4,1.7-14.6,3.8-22.2,4.8c-5.9,1-7,0.4-8.3-4.2c-0.3-1.1-0.4-2.1-0.8-3.3
	c-0.5-3.3-0.4-6.8-1.5-10.1l18.1-2.4c18.9-2.5,38.2-2.1,56.9,0.9L439.2,209.5z"/>
<path class="st5" d="M439,210.8c0.2-1,0.4-1.9,1-2.8c-1-10-3.3-19.2-7.3-28.1c-2.6-5.8-7.3-9.4-13.7-11.8c-3.1-1.1-6.3-1.8-9.5-2.6
	c-4.8-1.1-10.1-0.4-14.7-2.6c-1.1-0.5-2.5-0.2-3.2,0.4c-1.3,1-2.7,1-4.2,1.1c-5.1,0.2-10.1,1.2-14.9,2.5c-8.4,2.4-15,6.3-17.9,14
	c-2.3,5.9-4.3,11.9-5.5,18.1c-0.5,3.5-2.3,7.1-1.1,10.5l16.3-2.3c20.4-2.8,41.1-2.4,61.3,1.1L439,210.8z"/>
</svg>
