<?xml version="1.0" encoding="utf-8"?>
<!-- Generator: Adobe Illustrator 26.0.3, SVG Export Plug-In . SVG Version: 6.00 Build 0)  -->
<svg version="1.1" id="Calque_1" xmlns="http://www.w3.org/2000/svg" xmlns:xlink="http://www.w3.org/1999/xlink" x="0px" y="0px"
	 viewBox="0 0 788 1005" style="enable-background:new 0 0 788 1005;" xml:space="preserve">
<style type="text/css">
	.st0{fill:#E1795D;}
	.st1{fill:#FD8C75;}
	.st2{fill:#654321;}
	.st3{fill:#B70F67;}
</style>
<g>
	<path class="st0" d="M360.8,268.5l-8.1-24.5c0,0-7.9-8.1-13.6-2.5c-3.8,3.8,5.1,29,10,30C357.3,273.3,360.8,268.5,360.8,268.5z"/>
	<path class="st0" d="M427.2,268.5l8.1-24.5c0,0,7.9-8.1,13.6-2.5c3.8,3.8-5.1,29-10,30C430.7,273.3,427.2,268.5,427.2,268.5z"/>
	<path class="st1" d="M394.2,181.2L394.2,181.2c-23.9-0.1-43.2,11.1-43.2,45.5c0,7.9,0.6,15.8,1.8,23.7c1.1,6.9,2.8,13.6,5.1,20.2
		c7.7,21.7,21.1,35.2,36.4,35.2v0.1c15.1,0,28.3-13.1,36.1-34.3c3.2-8.9,5.3-18.1,6.3-27.5c0.6-5.7,1-11.5,1-17.2
		C437.5,192.4,418.1,181.2,394.2,181.2z"/>
</g>
<g id="Calque_10">
	<path class="st2" d="M353.3,253c0,0-41.5-61,27.7-78.2c0,0-26-33.9,12.7-33.9c36.7,0,15.6,32.4,12.9,33c0,0,63.4,15.2,29.2,77
		c0,0-1.2-45.8-8.6-48.9c-0.3,2.6-0.5,5.3-0.6,8c0,1.2-0.8,2.2-2,2.4c-10.1,1.9-20.3,2.8-30.5,2.6c-11.4-0.2-23,0.1-34.3-1.7
		c-1.2-0.2-2-1.2-2.1-2.4l-0.1-5.3C348.4,212.3,353.3,253,353.3,253z"/>
</g>
<path class="st3" d="M411.7,188.2l-17.7-6.6l-17.7,6.6c-3.7,0-6.7-4.5-6.7-9.9v-6.9c0-5.5,3-9.9,6.7-9.9l17.7,6.6l17.7-6.6
	c3.7,0,6.7,4.5,6.7,9.9v6.9C418.4,183.8,415.4,188.2,411.7,188.2z"/>
<path class="st3" d="M393.9,185.9L393.9,185.9c-2.5,0-4.5-2-4.5-4.5v-12.8c0-2.5,2-4.5,4.5-4.5h0c2.5,0,4.5,2,4.5,4.5v12.8
	C398.4,183.9,396.4,185.9,393.9,185.9z"/>
</svg>
