<?xml version="1.0" encoding="utf-8"?>
<!-- Generator: Adobe Illustrator 26.0.3, SVG Export Plug-In . SVG Version: 6.00 Build 0)  -->
<svg version="1.1" id="Calque_1" xmlns="http://www.w3.org/2000/svg" xmlns:xlink="http://www.w3.org/1999/xlink" x="0px" y="0px"
	 viewBox="0 0 788 1005" style="enable-background:new 0 0 788 1005;" xml:space="preserve">
<style type="text/css">
	.st0{fill:#FD8C75;}
	.st1{fill:#353535;}
	.st2{fill:#654321;}
	.st3{fill:#E1795D;}
</style>
<path class="st0" d="M397,181.8h-5c-2.3,0-4.2-1.9-4.2-4.2l0,0c0-2.3,1.9-4.2,4.2-4.2h5c2.3,0,4.2,1.9,4.2,4.2l0,0
	C401.1,179.9,399.3,181.8,397,181.8z"/>
<path class="st1" d="M355,213.6l-23.4-17.8c-1.2-0.9-2.8-0.7-3.7,0.4l-3,3.7c-1,1.2-0.7,3.1,0.7,4l24.1,15.1l0.3-7.2l-18.7,11.8
	c-1.3,0.9-1.7,2.8-0.6,4l2.9,3.5c0.9,1.1,2.5,1.3,3.6,0.5l20.8-14.5L355,213.6z"/>
<path class="st2" d="M372.7,288c0,9.5,0,13.2-0.1,15.3c-0.1,1.7-1.9,2.7-3.4,1.7c0,0,0,0-0.1,0c-1.3-0.7-2.9-0.8-4.3-0.1
	c-0.2,0.1-0.4,0.3-0.6,0.5c-1,1.2-2.2,2.3-3.6,3.2c-1.7,1-3-2.2-3.3-2.5c-0.7-1-1.9-1.4-3-1.2c-1.7,0.4-3.2,2.3-4.2,1.9
	c-1-0.4-1.7-4.2-1.7-4.2c-0.3-1.1-1.1-2-2.1-2.5c-1.5-0.7-5.3-0.1-6.5-1.2c-1.2-1.1-0.3-4.4-0.1-5.1c0.2-1.1,0.2-2.2,0-3.4
	c0-0.2-0.1-0.3-0.1-0.5c-0.4-0.9-1.3-1.8-3.2-2.6c-2.1-0.8-3.9-1.1-4.6-3.1c-0.7-2,2-4.3,2.3-4.6c1-1.1,1.5-2.8,1.3-4.3
	c0-0.2,0-0.3-0.1-0.5c-0.7-2-2.3-3.2-3-4.4c-0.5-0.6-0.8-1.4-0.7-2.2c0-0.5,0.2-1,0.6-1.3c0.6-0.6,1.5-1.1,2.1-1.4
	c1.1-0.4,2-1.3,2.4-2.4c0.7-1.7,0-3.1-0.2-4.3c-0.2-1.2-0.7-1.7-0.2-2.5c0.4-0.9,1.8-0.8,3-0.6c1,0.2,2,0,2.8-0.7s0.8-1.5,0.9-2.9
	c0.1-1.3,0.3-2.3,1.7-2.9c1.3-0.6,2.8,0.4,3.4,0.7c1,0.4,2.1,0.6,3.1,0.2c1.3-0.6,2.3-1.7,3-2.9c0.4-0.9,0.8-2,2.1-2.3
	c1.3-0.3,2.1,0.9,2.4,1.2c0.7,0.7,1.7,0.9,2.5,0.8c0.9-0.2,1.5-0.8,2.1-1.5c0.4-0.7,1.2-1,2-1.2c1.1-0.2,2.2,0.1,3,1
	c1.1,1,2.3,2.3,3.5,2.6c1.2,0.3,6.8-0.7,4.6-0.2c-18.3,3.1-1.8,6.5-2.8,8.7c-1,2.2-4.3,0.4-6.6,4.5c-0.4,0.7-1,0.8-1.1,1.4
	c-0.2,0.6-0.6,1-0.9,1.3c-1.3,0.8-2.6,1.4-4.2,1.8c-0.9-0.1-0.9,1.8-1.2,2.5c-0.2,0.7-0.7,1.1-1.2,1.5c-0.6,0.4-1.4,0.8-1.3,1.2
	c0.1,0.4,1.2,0.6,2.2,0.9c0.7,0.1,1.2,0.4,1.6,0.9c0.4,0.3,0.6,0.8,0.7,1.3c0.1,0.9,0.1,2,0.6,2.8c0.7,1,1.3,0.7,2,0.8
	c0.7,0.1,1.2,0,1.5,0.7c0.3,0.6,0.4,1.2,0.3,1.8c-0.1,1.2-0.1,1.2,0.1,1.7c0.2,0.4,1,0.7,1.7,0.8c0.4,0.1,0.8,0.2,1.2,0.4
	C369.8,282.6,373.1,286.1,372.7,288z"/>
<path class="st2" d="M414.7,288c0,9.5,0,13.2,0.1,15.3c0.1,1.7,1.9,2.7,3.4,1.7c0,0,0,0,0.1,0c1.3-0.7,2.9-0.8,4.3-0.1
	c0.2,0.1,0.4,0.3,0.6,0.5c1,1.2,2.2,2.3,3.6,3.2c1.7,1,3-2.2,3.3-2.5c0.7-1,1.9-1.4,3-1.2c1.7,0.4,3.2,2.3,4.2,1.9
	c1-0.4,1.7-4.2,1.7-4.2c0.3-1.1,1.1-2,2.1-2.5c1.5-0.7,5.3-0.1,6.5-1.2c1.2-1.1,0.3-4.4,0.1-5.1c-0.2-1.1-0.2-2.2,0-3.4
	c0-0.2,0.1-0.3,0.1-0.5c0.4-0.9,1.3-1.8,3.2-2.6c2.1-0.8,3.9-1.1,4.6-3.1s-2-4.3-2.3-4.6c-1-1.1-1.5-2.8-1.3-4.3
	c0-0.2,0-0.3,0.1-0.5c0.7-2,2.3-3.2,3-4.4c0.5-0.6,0.8-1.4,0.7-2.2c0-0.5-0.2-1-0.6-1.3c-0.6-0.6-1.5-1.1-2.1-1.4
	c-1.1-0.4-2.1-1.3-2.4-2.4c-0.7-1.7,0-3.1,0.2-4.3c0.2-1.2,0.7-1.7,0.2-2.5c-0.5-0.8-1.8-0.8-3-0.6c-1,0.2-2,0-2.8-0.7
	c-0.8-0.7-0.8-1.5-0.9-2.9c-0.1-1.3-0.2-2.3-1.7-2.9c-1.4-0.6-2.8,0.4-3.4,0.7c-1,0.4-2.1,0.6-3.2,0.2c-1.3-0.6-2.3-1.7-3-2.9
	c-0.4-0.9-0.9-2-2.1-2.3c-1.2-0.3-2.1,0.9-2.4,1.2c-0.5,0.5-1.2,0.8-1.9,0.8c-0.4,0-0.9-0.1-1.2-0.3c-0.5-0.3-0.9-0.7-1.4-1.2
	c-0.4-0.7-1.2-1-2-1.2c-1.1-0.2-2.2,0.1-3,1c-1.1,1-2.3,2.3-3.5,2.6c-1.2,0.3-6.8-0.7-4.6-0.2c18.3,3.1,1.8,6.5,2.8,8.7
	c1,2.2,4.3,0.4,6.6,4.5c0.4,0.7,1,0.8,1.2,1.4c0.2,0.6,0.6,1,0.9,1.3c1.3,0.8,2.6,1.4,4.1,1.8c0.9-0.1,0.9,1.8,1.2,2.5
	c0.2,0.7,0.7,1.1,1.2,1.5c0.6,0.4,1.4,0.8,1.3,1.2c-0.1,0.4-1.2,0.6-2.2,0.9c-0.7,0.1-1.2,0.4-1.6,0.9c-0.4,0.3-0.6,0.8-0.7,1.3
	c-0.1,0.9-0.1,2-0.6,2.8c-0.7,1-1.3,0.7-2,0.8c-0.7,0.1-1.2,0-1.5,0.7c-0.3,0.6-0.4,1.2-0.3,1.8c0.1,1.2,0.1,1.2-0.1,1.7
	c-0.2,0.4-1,0.7-1.7,0.8c-0.4,0.1-0.8,0.2-1.2,0.4C417.6,282.6,414.3,286.1,414.7,288z"/>
<path class="st2" d="M393.9,280.9c-26.4,0-47.8-24-47.8-53.7s21.8-53.8,48.1-53.8"/>
<path class="st2" d="M394.7,173.4c26.4,0,47.8,23.9,47.8,53.6s-21.4,53.7-47.8,53.7l0,0"/>
<g>
	<path class="st3" d="M360.8,268.5l-8.1-24.5c0,0-7.9-8.1-13.6-2.5c-3.8,3.8,5.1,29,10,30C357.3,273.3,360.8,268.5,360.8,268.5z"/>
	<path class="st3" d="M427.2,268.5l8.1-24.5c0,0,7.9-8.1,13.6-2.5c3.8,3.8-5.1,29-10,30C430.7,273.3,427.2,268.5,427.2,268.5z"/>
	<path class="st0" d="M394.2,181.2L394.2,181.2c-23.9-0.1-43.2,11.1-43.2,45.5c0,7.9,0.6,15.8,1.8,23.7c1.1,6.9,2.8,13.6,5.1,20.2
		c7.7,21.7,21.1,35.2,36.4,35.2v0.1c15.1,0,28.3-13.1,36.1-34.3c3.2-8.9,5.3-18.1,6.3-27.5c0.6-5.7,1-11.5,1-17.2
		C437.5,192.4,418.1,181.2,394.2,181.2z"/>
</g>
<path class="st1" d="M354.6,217.8l12.8-5.1c15.9-6.3,34-6.6,50-0.7l15.8,5.8c3,1.1,6.3,4,7.1,1.1l0.8-3.2c1-3.8-8.2-20.5-16.1-26.5
	c-5.6-4.2-12.3-6.8-19.3-7.7c-6.8-0.7-13.4-0.8-20-0.2c-6.3,0.6-12.7,2.6-17.9,6c-9.9,6.4-22.6,25.8-21.6,28.8l1.2,3.2
	C348.4,222,351.7,218.9,354.6,217.8z"/>
</svg>
