<?xml version="1.0" encoding="utf-8"?>
<!-- Generator: Adobe Illustrator 26.0.3, SVG Export Plug-In . SVG Version: 6.00 Build 0)  -->
<svg version="1.1" id="Calque_1" xmlns="http://www.w3.org/2000/svg" xmlns:xlink="http://www.w3.org/1999/xlink" x="0px" y="0px"
	 viewBox="0 0 788 1005" style="enable-background:new 0 0 788 1005;" xml:space="preserve">
<style type="text/css">
	.st0{fill:#FD8C75;}
	.st1{fill:#654321;}
	.st2{fill:#E1795D;}
	.st3{fill:#ED5875;}
</style>
<path class="st0" d="M395,184.7L395,184.7c-1.3,0-2.4-1.1-2.4-2.4v-3.5c0-1.3,1.1-2.4,2.4-2.4l0,0c1.3,0,2.4,1.1,2.4,2.4v3.5
	C397.4,183.6,396.3,184.7,395,184.7z"/>
<path class="st1" d="M394.6,271.8c-26.9,0-48.8-21.4-48.8-47.8s21.8-47.7,48.8-47.7"/>
<path class="st1" d="M395.4,176.4c26.3,0,47.8,21.4,47.8,47.8s-21.4,47.8-47.8,47.8l0,0"/>
<g>
	<path class="st2" d="M360.8,268.5l-8.1-24.5c0,0-7.9-8.1-13.6-2.5c-3.8,3.8,5.1,29,10,30C357.3,273.3,360.8,268.5,360.8,268.5z"/>
	<path class="st2" d="M427.2,268.5l8.1-24.5c0,0,7.9-8.1,13.6-2.5c3.8,3.8-5.1,29-10,30C430.7,273.3,427.2,268.5,427.2,268.5z"/>
	<path class="st0" d="M394.2,181.2L394.2,181.2c-23.9-0.1-43.2,11.1-43.2,45.5c0,7.9,0.6,15.8,1.8,23.7c1.1,6.9,2.8,13.6,5.1,20.2
		c7.7,21.7,21.1,35.2,36.4,35.2v0.1c15.1,0,28.3-13.1,36.1-34.3c3.2-8.9,5.3-18.1,6.3-27.5c0.6-5.7,1-11.5,1-17.2
		C437.5,192.4,418.1,181.2,394.2,181.2z"/>
</g>
<polygon class="st1" points="394.6,179.6 394.6,201.1 351,213.9 355.9,198.6 366.2,186.6 384.1,180.2 "/>
<polygon class="st1" points="395.4,179.6 395.4,201.8 439.9,217.6 425.3,188.6 403.5,178.9 "/>
<path class="st3" d="M355.9,218.3l12.5-4.9c15.5-6.1,33.1-6.5,48.7-0.6l15.4,5.7c2.9,1.1,6.1,3.9,6.9,1.1l0.8-3.1
	c1-3.7-8-20-15.7-25.8c-5.5-4.1-11.9-6.7-18.8-7.5c-6.5-0.8-12.9-0.9-19.4-0.2c-6.1,0.5-11.9,2.7-17.1,6c-9.7,6.2-22.4,25-21.4,27.9
	l1.2,3.1C349.9,222.4,353.1,219.4,355.9,218.3z"/>
</svg>
