<?xml version="1.0" encoding="utf-8"?>
<!-- Generator: Adobe Illustrator 26.0.3, SVG Export Plug-In . SVG Version: 6.00 Build 0)  -->
<svg version="1.1" id="Calque_1" xmlns="http://www.w3.org/2000/svg" xmlns:xlink="http://www.w3.org/1999/xlink" x="0px" y="0px"
	 viewBox="0 0 788 1005" style="enable-background:new 0 0 788 1005;" xml:space="preserve">
<style type="text/css">
	.st0{fill:#E1795D;}
	.st1{fill:#FD8C75;}
	.st2{fill:#654321;}
	.st3{fill:#802336;}
</style>
<g>
	<path class="st0" d="M360.8,268.5l-8.1-24.5c0,0-7.9-8.1-13.6-2.5c-3.8,3.8,5.1,29,10,30C357.3,273.3,360.8,268.5,360.8,268.5z"/>
	<path class="st0" d="M427.2,268.5l8.1-24.5c0,0,7.9-8.1,13.6-2.5c3.8,3.8-5.1,29-10,30C430.7,273.3,427.2,268.5,427.2,268.5z"/>
	<path class="st1" d="M394.2,181.2L394.2,181.2c-23.9-0.1-43.2,11.1-43.2,45.5c0,7.9,0.6,15.8,1.8,23.7c1.1,6.9,2.8,13.6,5.1,20.2
		c7.7,21.7,21.1,35.2,36.4,35.2v0.1c15.1,0,28.3-13.1,36.1-34.3c3.2-8.9,5.3-18.1,6.3-27.5c0.6-5.7,1-11.5,1-17.2
		C437.5,192.4,418.1,181.2,394.2,181.2z"/>
</g>
<path class="st2" d="M349.8,249.2l-5.5-5.6c0,0-0.1-0.1-0.1-0.1c-0.6-0.7-8.5-10.2-8.5-22.3c0-16,29-43.5,45.3-46.4
	c4.2-0.8,8.5,0.4,11.9,3c0.3,0.3,0.7,0.4,1.2,0.4c3.3-0.1,18.7-0.3,23.7,1.7c25.5,10.6,30.6,28,29.9,39.7
	c-0.7,8.6-2.9,17.1-6.4,25.1c-0.1,0.1-0.1,0.3-0.2,0.4l-2.9,3.7c-1,1.2-2.9,0.7-3.2-0.8l-3.4-18.5c-0.1-0.5-0.3-0.9-0.7-1.1
	l-11.6-8.4c-0.2-0.1-0.4-0.3-0.5-0.5c-1.1-1.8-6.5-10.7-6.2-10.7c0.2,0,1.3,4.9,1.9,7.8c0.2,1.1-0.6,2.2-1.7,2.2
	c-3.4,0.1-9.9,0-12-1.4c-1.4-0.9-3.1-4.4-4.2-6.7c-0.5-1.1-1.9-1.4-2.8-0.7c-2.8,2.3-8.1,6.6-10.3,7.9c-1.2,0.7-2.9,1.3-4.7,1.7
	c-3.4,0.8-6.5-1.9-6.2-5.4l0,0c0.2-1.8-2.1-2.7-3.2-1.3L363,221c-0.1,0.1-0.2,0.2-0.3,0.3l-10.4,8.3c-0.5,0.4-0.7,0.9-0.7,1.5
	l1.2,16.7C353,249.5,350.9,250.4,349.8,249.2z"/>
<path class="st2" d="M402.8,180.2c0,0-17.1-36,21.4-36.9c32.2-0.8,30.7,26.2,29.9,43.2c-0.3,6.2,0.4,12.4,2.4,18.3
	c2.9,8.8,7.5,14.5,18.8,12c0,0.2-18.6,16.8-27.1-2.9c0,0-6-13.8-6.4-29.6c-0.4-11.6-13.6-17.7-18.2-16.2
	C412,171.7,402.8,180.2,402.8,180.2z"/>
<path class="st3" d="M382.5,166.7c0,4.8,0,11,0,14.8c0,1.8,1.6,3.2,3.5,3l15.9-2.1c0.6-0.1,1.3,0,1.8,0.3l19.1,9.9
	c1.5,0.8,3.4,0.1,4.1-1.4l5.6-12.2c1-2.2-0.8-4.6-3.2-4.3l-23.9,3.4c-0.9,0.1-1.7-0.1-2.4-0.7l-15.5-13.1
	C385.5,162.8,382.5,164.1,382.5,166.7z"/>
</svg>
