<?xml version="1.0" encoding="utf-8"?>
<!-- Generator: Adobe Illustrator 26.0.3, SVG Export Plug-In . SVG Version: 6.00 Build 0)  -->
<svg version="1.1" id="Calque_1" xmlns="http://www.w3.org/2000/svg" xmlns:xlink="http://www.w3.org/1999/xlink" x="0px" y="0px"
	 viewBox="0 0 200 200" style="enable-background:new 0 0 200 200;" xml:space="preserve">
<style type="text/css">
	.st0{fill:none;stroke:#2E858E;stroke-width:3;stroke-miterlimit:10;}
	.st1{fill:#E1795D;}
	.st2{fill:#FD8C75;}
	.st3{fill:#D68F72;}
	.st4{fill:#654321;}
	.st5{fill:#2E858E;}
</style>
<path class="st0" d="M45.1,103.6c-1.2-3.3-1.8-6.7-1.8-10.2c0-22.8,26.5-41.3,59.2-41.3s59.2,18.5,59.2,41.3c0,3.7-0.7,7.2-2,10.5"
	/>
<g>
	<path class="st1" d="M67.3,132l-8.6-26c0,0-8.4-8.6-14.4-2.7c-4,4,5.4,30.7,10.6,31.8C63.6,137.1,67.3,132,67.3,132z"/>
	<path class="st1" d="M137.7,132l8.6-26c0,0,8.4-8.6,14.4-2.7c4,4-5.4,30.7-10.6,31.8C141.4,137.1,137.7,132,137.7,132z"/>
	<path class="st2" d="M102.7,39.4L102.7,39.4c-25.3-0.1-45.8,11.8-45.8,48.2c0,8.4,0.6,16.8,1.9,25.1c1.2,7.3,3,14.4,5.4,21.4
		c8.2,23,22.4,37.3,38.6,37.3v0.1c16,0,30-13.9,38.3-36.4c3.4-9.4,5.6-19.2,6.7-29.2c0.6-6,1.1-12.2,1.1-18.2
		C148.6,51.3,128.1,39.4,102.7,39.4z"/>
</g>
<path class="st3" d="M75.9,40.5C75.5,39.7,99.1,30,99.1,30l0.1,0c3.1-0.5,6.3-0.2,9.3,0.9c3,1.1,6.4,2.7,6.7,4
	c0.5,2.4,2.1,15.7,2.1,15.7l-8.2,1.7l-6.7-2.4c0,0-8.6,0-10.3-0.7C90.5,48.3,75.9,40.5,75.9,40.5z"/>
<path class="st4" d="M102.3,49.4c-0.3,0.5-0.6,1.1-1.1,1.6c-9.1,11.9-39.6,21.2-42.7,34.7c-3.3,14,2.1,29.7,2.1,29.7
	s-7.4-6.3-7.8-6.4c-0.4-0.1-25.2-53.3,22.1-74.6c21.3-9.5,27.4-3.4,27.4-3.4C102.2,31.2,109.1,37.9,102.3,49.4z"/>
<path class="st4" d="M150.1,109.3c-0.4,0.1-5.8,4.1-5.8,4.1s4.5-14.2,1.5-28.3s-34.1-22.6-41.1-35.2c0.3-0.5,0.6-1.1,1-1.6
	c6.1-11.5,1.5-15.9,0.2-18c2.5-1.3,9.4-2.9,23.9,4.2C173.4,56,150.5,109.1,150.1,109.3z"/>
<g>
	<path class="st5" d="M63.2,139.7l-2.3,0.6c-2.4,0.6-4.9-1.1-5.3-3.5L48,101.3c-0.6-2.4,1.1-4.9,3.5-5.3l2.3-0.6
		c2.4-0.6,4.9,1.1,5.3,3.5l7.6,35.6C67.2,136.7,65.6,139.1,63.2,139.7z"/>
	<path class="st5" d="M55,137.4l-4.7,0.9c-2.4,0.6-4.9-1.1-5.3-3.5l-6-27.5c-0.6-2.4,1.1-4.9,3.5-5.3l4.7-0.9L55,137.4z"/>
	<path class="st5" d="M41.2,94.4l2.8-1.6c0.6-0.4,1.4,0,1.6,0.6l2.1,9.8c0.2,0.5-0.2,1-0.7,1.2l0,0c-0.5,0.2-0.9,0-1.2-0.5l-5-8.2
		C40.5,95.4,40.6,94.7,41.2,94.4z"/>
</g>
<g>
	<path class="st5" d="M143.2,140.2l2.3,0.5c2.4,0.5,4.8-1.3,5.2-3.7l6-35.9c0.5-2.4-1.3-4.8-3.7-5.2l-2.3-0.5
		c-2.4-0.5-4.8,1.3-5.2,3.7l-6.1,35.9C139.1,137.3,140.7,139.7,143.2,140.2z"/>
	<path class="st5" d="M151.2,137.5l4.7,0.8c2.4,0.5,4.8-1.3,5.2-3.7l4.7-27.7c0.5-2.4-1.3-4.8-3.7-5.2l-4.7-0.8L151.2,137.5z"/>
	<path class="st5" d="M163.3,93.9l-2.9-1.5c-0.7-0.4-1.5,0.1-1.6,0.7l-1.7,9.9c-0.2,0.5,0.3,1,0.8,1.2l0,0c0.5,0.2,0.9,0,1.2-0.5
		l4.6-8.3C163.9,95,163.8,94.2,163.3,93.9z"/>
</g>
<path class="st0" d="M57.4,135.8l-20,15.9c-3.3,2.7-2.7,8,1.2,9.7l13.7,5.9"/>
<circle class="st5" cx="57.4" cy="167.2" r="7.8"/>
</svg>
