<?xml version="1.0" encoding="utf-8"?>
<!-- Generator: Adobe Illustrator 26.0.3, SVG Export Plug-In . SVG Version: 6.00 Build 0)  -->
<svg version="1.1" id="Calque_9" xmlns="http://www.w3.org/2000/svg" xmlns:xlink="http://www.w3.org/1999/xlink" x="0px" y="0px"
	 viewBox="0 0 788 1005" style="enable-background:new 0 0 788 1005;" xml:space="preserve">
<style type="text/css">
	.st0{clip-path:url(#SVGID_00000114770485053927306550000016767522649754779829_);}
	.st1{fill:#353535;}
	.st2{clip-path:url(#SVGID_00000005247331450725670200000004017178078576925340_);}
	.st3{fill:none;stroke:#6699AA;stroke-width:2;stroke-linecap:round;stroke-miterlimit:10;}
	.st4{fill:#D68F72;}
	.st5{fill:#ACDAFB;}
	.st6{fill:#FD8C75;}
	.st7{fill:#54B2F6;}
	.st8{fill:#D3D3D3;}
</style>
<g>
	<defs>
		<rect id="SVGID_1_" x="339" y="474.8" width="54.8" height="119.7"/>
	</defs>
	<clipPath id="SVGID_00000022552176020291482960000000100991166976907935_">
		<use xlink:href="#SVGID_1_"  style="overflow:visible;"/>
	</clipPath>
	<g style="clip-path:url(#SVGID_00000022552176020291482960000000100991166976907935_);">
		<path class="st1" d="M423.6,479.7c12.3,5,17.7,9.2,20.6,15.9c2.4,5.4,4.6,32,4.8,38.2c0.4,14.5-24.1,43.6-35,55.8
			c-11,12.3-6.1-2.7-21.1-0.8c-16.9,2.1-54.4-38.1-54-52.6c0.2-6.2,3.3-35.2,5.6-40.6c2.9-6.6,8.3-10.9,20.6-15.9
			c9.1-3.5,18.8-5.1,28.5-4.8C393.8,474.9,409.5,474,423.6,479.7z"/>
	</g>
</g>
<g>
	<defs>
		<rect id="SVGID_00000170995546702623600000000008034447006205775288_" x="393.8" y="474.8" width="54.8" height="119.7"/>
	</defs>
	<clipPath id="SVGID_00000142880787126847765760000001842870707249376446_">
		<use xlink:href="#SVGID_00000170995546702623600000000008034447006205775288_"  style="overflow:visible;"/>
	</clipPath>
	<g style="clip-path:url(#SVGID_00000142880787126847765760000001842870707249376446_);">
		<path class="st1" d="M363.9,479.7c-12.3,5-17.7,9.2-20.6,15.9c-2.4,5.4-4.6,32-4.8,38.2c-0.4,14.5,24.1,43.6,35,55.8
			c11,12.3,6.1-2.7,21.1-0.8c16.9,2.1,54.4-38.1,54-52.6c-0.2-6.2-3.3-35.2-5.7-40.6c-2.9-6.6-8.3-10.9-20.6-15.9
			c-9.1-3.5-18.8-5.1-28.5-4.8C393.8,474.9,378,474,363.9,479.7z"/>
	</g>
</g>
<path class="st1" d="M340.4,726.2c1.2,10.9,8.5,19.2,16.9,19.4l0,0c8.1,0.2,15.1-7.1,16.6-17.4c0,0,8.8-73.4,9-99.7
	c0-6.2-1.6-24.9-1.6-24.9l-3.9-43.5c0,0-2.8-20.5-19.5-23c-19.3-2.9-19.6,10.5-19.6,10.5s-6.2,69-6,90.9
	C332.5,658.7,340.4,726.2,340.4,726.2z"/>
<path class="st1" d="M472.5,719.2c0.5,11-5.4,20.3-13.8,21.7l0,0c-8,1.4-16-4.8-19-14.7c0,0-19.9-71.2-24.1-97.2
	c-1-6.2-2.2-24.8-2.2-24.8l-2.7-43.5c0,0-0.4-20.7,15.8-25.7c18.6-5.8,21,7.4,21,7.4s16.6,67.3,19.7,88.9
	C470,651.2,472.5,719.2,472.5,719.2z"/>
<path class="st3" d="M346,899.3c0,0,3.2-2.4,6.1-2.4c2.4,0.1,4.8,0.9,6.8,2.2"/>
<path class="st4" d="M360.5,519.8c6.4,27.2,40.8,70.8,40.8,70.8s35.5-43.5,41.8-70.8"/>
<path class="st5" d="M347.6,729.8c1.1,10.2,7.9,17.9,15.8,18.1l0,0c7.6,0.2,14.1-6.6,15.5-16.2c0,0,8.2-68.5,8.4-93.1
	c0-5.8-1.5-23.2-1.5-23.2l-3.6-40.6c0,0-2.6-19.1-18.2-21.5c-18-2.7-18.3,9.8-18.3,9.8s-5.8,64.4-5.6,84.9
	C340.2,666.8,347.6,729.8,347.6,729.8z"/>
<path class="st1" d="M472.5,722.2c0.7,10.3-4.6,19-12.3,20.6l0,0c-7.5,1.5-15-4-18.1-13.3c0,0-20.4-65.9-25-90.1
	c-1.1-5.7-2.7-23.2-2.7-23.2l-3.6-40.6c0,0-0.9-19.3,14.1-24.4c17.3-5.9,19.8,6.3,19.8,6.3s17.3,62.4,20.7,82.4
	C468.5,658.8,472.5,722.2,472.5,722.2z"/>
<path class="st6" d="M360.6,713.7c-8.6-0.3-13.9,4.2-15.6,11.7c0,0-3.2,33.9-4.2,48.1c-1.6,22.9-1.4,69.7,1.1,92.6
	c0.6,4.9,1.6,20,1.6,20c0.3,4.3,3.7,7.7,8,7.9l0,0c4.3-0.2,7.7-3.5,8.1-7.7c0,0,1.7-17.2,2.5-23c3.2-20.7,12.1-61.6,13.7-82.4
	c0.9-12.6,0.6-51.2,0.6-51.2C376.2,717.1,367.9,714.2,360.6,713.7L360.6,713.7z"/>
<path class="st4" d="M298.8,474.8L298.8,474.8"/>
<path class="st7" d="M457.4,823.3l30-12.5c1.2-1.8,0.3,36.1,0.3,36.1l-21.9,6.2L457.4,823.3z"/>
<rect x="341.9" y="852.1" class="st1" width="19.2" height="54.1"/>
<path class="st8" d="M351.3,891.6l-9.5,2.2l-6,17.6v5.6l-6.9,12c0,0,4.7,3.5,6.7,2.8c2.1-0.7,42-0.8,42-0.8v-4.1l-7.5-12l-6-18.8
	l-5.5-4.6H351.3L351.3,891.6z"/>
<rect x="467.2" y="848.1" class="st1" width="19.3" height="54.1"/>
<path class="st8" d="M476.5,887.7l9.5,2.2l6,17.6v5.6l7,12c0,0-4.3,2.9-6.3,2.1s-42.5-0.3-42.5-0.3v-4l7.5-12.1l6-18.8l5.5-4.6
	L476.5,887.7L476.5,887.7z"/>
<path class="st1" d="M338.7,542.5c0,2.2,0.7,148.7,0,151c-0.6,2-8.2,91.9-10.8,122.7c-0.6,6.8,0.2,13.5,2.2,20l12.3,38h18.8
	c0,0,9.9-23,14.9-34.8c2-4.5,3-9.3,3.2-14.3c0.7-25.2,3.1-106.8,4.7-113.9c2.5-11.4,17.2-156.3,17.2-156.3v-63l-36.2-0.3
	c-12-0.1-22.1,9.9-23.5,23.2L338.7,542.5z"/>
<path class="st1" d="M452.1,532.5c0.3,2.4,16.5,150.8,17.4,153.1c0.7,1.9,23.2,83.9,31.3,113.7c1.9,7,1.9,14.5-0.2,21.5l-14,48.3
	H467l-20.5-43c-2.7-5.6-4.3-11.7-4.8-17.9c-2.1-24.6-7.4-89.1-7-90.6c0.4-1.9-43.8-165.1-43.8-165.1l-6.9-60.5l36.7-4.5
	c12.1-1.5,23.5,7.5,26.3,20.5L452.1,532.5z"/>
<path class="st1" d="M334.4,926.1l-2.6-2.1l-3,5.2l3,2.2c1,0.7,2.4,1.2,3.6,1.2l42.1-1.5v-4.1l-38.8,0.8
	C337.3,927.9,335.7,927.2,334.4,926.1z"/>
<path class="st1" d="M450.2,923.2v4.1l41.4,1.9c1.3,0.1,2.5-0.4,3.6-1.1l3.6-2.6l-2-3.5l-2.9,2.5c-0.8,0.7-2,1.1-3.1,1L450.2,923.2z
	"/>
<g id="Calque_1_00000123442838611688334130000007941148407883067834_">
	<path class="st1" d="M454.5,577.4c-17.9,2-34.1,7.7-53.4,14.2c0,0-8.8,0.4-8.3-0.1l-54.1-13l4.5-45.3c0.8-8.3,7.7-14.6,15.8-14.6
		h76.4c8.4,0,15.4,6.6,15.9,15L454.5,577.4z"/>
</g>
</svg>
