<?xml version="1.0" encoding="utf-8"?>
<!-- Generator: Adobe Illustrator 26.0.3, SVG Export Plug-In . SVG Version: 6.00 Build 0)  -->
<svg version="1.1" id="Calque_9" xmlns="http://www.w3.org/2000/svg" xmlns:xlink="http://www.w3.org/1999/xlink" x="0px" y="0px"
	 viewBox="0 0 488 480.5" style="enable-background:new 0 0 488 480.5;" xml:space="preserve">
<style type="text/css">
	.st0{fill:#5E6D70;}
	.st1{fill:#7B5C6B;}
	.st2{fill:#D68F72;}
	.st3{fill:#2B2B2B;}
	.st4{fill:#515151;}
	.st5{fill:none;stroke:#547A87;stroke-width:2;stroke-linecap:round;stroke-miterlimit:10;}
	.st6{fill:none;stroke:#6399AA;stroke-width:2;stroke-linecap:round;stroke-miterlimit:10;}
	.st7{fill:#547A87;}
</style>
<path class="st0" d="M185.5,258.6c1.9,10.8,9.6,18.7,18.1,18.3l0,0c8.1-0.3,14.6-8,15.5-18.4c0,0,4.3-73.8,2.9-100.1
	c-0.3-6.2-3.1-24.8-3.1-24.8l-6.6-43.1c0,0-4-20.3-20.9-21.8c-19.5-1.7-19,11.7-19,11.7s-2,69.3-0.4,91.1
	C173.5,191.6,185.5,258.6,185.5,258.6z"/>
<path class="st0" d="M310.6,254.8c0.3,11-5.7,20.2-14.1,21.5l0,0c-8,1.3-15.9-5-18.8-14.9c0,0-19-71.4-22.9-97.5
	c-0.9-6.2-1.9-24.9-1.9-24.9l-2.2-43.6c0,0-0.1-20.7,16.1-25.5c18.7-5.6,20.9,7.7,20.9,7.7s15.8,67.5,18.6,89.2
	C309,186.8,310.6,254.8,310.6,254.8z"/>
<path class="st1" d="M201.3,240.2c-9.2,0.8-14.2,6.2-15.1,14.4c0,0,0.7,36.4,1.4,51.7c1.1,24.5,7,74.4,12.5,98.4
	c1.2,5.2,4,21.1,4,21.1c0.7,4.6,4.9,7.9,9.5,7.5l0,0c4.5-0.6,7.8-4.6,7.7-9.1c0,0-0.3-18.5-0.1-24.7c0.9-22.4,5.4-67,4.6-89.4
	c-0.5-13.5-5.6-54.5-5.6-54.5C218.3,242,209.2,239.9,201.3,240.2z"/>
<path class="st2" d="M303.4,243c8.4,3.9,11.1,10.7,8.8,18.7c0,0-12.5,32.8-19,47c-10.3,22.7-64.1,103.8-64.1,103.8
	c-2.6,4.1-6,9.7-10.1,7.7l0,0c-4-2-7.4-6.6-5.6-11c0,0,31.3-88.3,40.5-109c5.5-12.5,25.8-49.3,25.8-49.3
	C286.7,238.9,296.1,240,303.4,243L303.4,243z"/>
<path class="st3" d="M212.4,416.9L212.4,416.9c-4.2,0.4-7.8,3.2-9.2,7.2l0,0c-3.4,9.2-19.5,22.1-19.5,22.1
	c-2.9,2.8-4.1,6.9-3.1,10.8l0,0l41-2.7l2.3-0.9c2.6-1.1,4.2-3.9,3.7-6.7l-3.7-21.5C222.5,420,217.7,416.6,212.4,416.9z"/>
<path class="st4" d="M181.7,456.8L181.7,456.8c-0.8-3.4,1.2-6.9,4.7-7.8l24.1-5.4c3.2-0.6,6.3,1.3,7.1,4.5l1.8,6.1L181.7,456.8z"/>
<path class="st5" d="M204.3,426c0,0,3-2.7,5.8-3c2.4-0.1,4.8,0.5,7,1.6"/>
<path class="st5" d="M201.7,431.1c0,0,3.1-2.6,5.9-2.8c2.4,0,4.8,0.6,6.9,1.8"/>
<path class="st3" d="M227.7,404.6c4.7-0.3,5.8-4.2,8.2-5.7c1.4-0.9,6-0.8,6,1c0,20.9,28.3,42.8,28.3,42.8c2.3,4.3,1.4,8.9-0.9,13.2
	l0,0c0,0-31.7-1.5-42.2-17.4c-2.1-3.2-9.3-7-9.3-7s-13.6-5.2-10.7-10.4l11.5-24.2C221.9,391.4,219.5,405.1,227.7,404.6z"/>
<path class="st4" d="M269.6,456c3.3-7.1,1.7-12.9,0.5-13.1c-1.7-0.3-4.9,0.4-6.6,0.2c-2.7-0.3-10.1-3.9-10.1-3.9
	c-1.9-1-4.4,1-5.9,4.4l-2.8,7c0,0,4.4,2.5,16.2,4.4C263,455.3,269.6,456,269.6,456z"/>
<path class="st6" d="M242.4,411.1c-2.1,0.3-4.3,0.2-6.4-0.3"/>
<path class="st6" d="M244.5,416.4c-2.1,0.4-4.3,0.5-6.5,0.2"/>
<path class="st7" d="M269.8,423.4c-10.6,0.7-44.4-1.2-57-1.9c-2.5-0.1-4.2-2.5-3.5-4.9c6.7-24.7,38.2-141.4,47-169.8
	c1.2-4,1.4-8.3,0.5-12.4l-24.6-108.5c3.9,15.4-2.7,112.3-2.7,114.3c0,1.8,3.1,153.5,3.6,179.1c0,2.1-1.5,3.8-3.6,4l-55.8,4.6
	c-2.3,0.2-4.2-1.6-4.2-3.9l-0.5-315.3c0-0.1,0-0.2,0-0.3l3.7-53.6c0-0.3,0.1-0.5,0.1-0.8l4-14.3c2.7-9.6,11.4-16.2,21.3-16.3
	c18.3-0.2,47.9-0.4,70.4-0.3c10.5,0,19.4,7.5,21.2,17.8l4.3,24l24,171.7c1.2,8.5,0.6,17.1-1.6,25.3l-43,158.6
	C272.8,422.1,271.5,423.3,269.8,423.4z"/>
</svg>
