<?xml version="1.0" encoding="utf-8"?>
<!-- Generator: Adobe Illustrator 26.0.3, SVG Export Plug-In . SVG Version: 6.00 Build 0)  -->
<svg version="1.1" id="Layer_1" xmlns="http://www.w3.org/2000/svg" xmlns:xlink="http://www.w3.org/1999/xlink" x="0px" y="0px"
	 viewBox="0 0 788 1005" style="enable-background:new 0 0 788 1005;" xml:space="preserve">
<style type="text/css">
	.st0{fill:#90573A;}
	.st1{fill:#6F412A;}
	.st2{fill:#161615;}
	.st3{fill:none;}
	.st4{fill:#006A44;}
	.st5{fill:#004282;}
	.st6{fill:#E05942;}
	.st7{fill:#5A5A5A;}
	.st8{fill:#3D3D3D;}
	.st9{fill:none;stroke:#9B9B9B;stroke-miterlimit:10;}
	.st10{fill:#4C443F;}
</style>
<path class="st0" d="M394,416.2c-5.5-3.6-8-0.6-13.7,2.5c-9.8,5.3-15.8,23.7-26.7,26.2c-3.9,0.9-12.7-15.1-13.7-21.3
	c-1.5-9.3,2.5-27.5-8.4-36.9c-9.2-7.9-21.5-3.7-25.5-16.3c-7-22,13.5-38.5,23.4-42.3c15.2-5.9,37.1-5.1,43.5-14.2l0.9-27.7l0.7-20.2
	l18.3-0.8h2.2l18.3,0.8l0.7,20.2l0.9,27.7c6.4,9.1,28.4,8.4,43.5,14.2c10,3.8,30.4,20.4,23.4,42.3c-4,12.6-16.2,8.4-25.5,16.3
	c-10.9,9.3-6.9,27.5-8.4,36.9c-1,6.2-9.9,22.2-13.7,21.3c-10.8-2.5-16.9-20.9-26.7-26.2C402,415.6,399.5,412.7,394,416.2"/>
<path class="st1" d="M373.5,314.2c0,0,31.8,11.4,41.2-10.8l-1.3-37.4h-38.8L373.5,314.2z"/>
<path class="st0" d="M350.4,344.4c0.2,19.8-12.5,25.4-19,32.4C321.2,388,310.7,416.3,303,429c-3.6,6-14.5,18.7-24.5,13.6l0,0
	c-12.5-7.1-5.8-23.3-2.9-29.3c6-12.3,25.5-66,38.8-77.1c0,0,12.9-12,25-8C347.2,330.8,350.4,336.2,350.4,344.4L350.4,344.4z"/>
<path class="st0" d="M445.5,337.8c-11.8,16.7-2.5,28.1-0.3,37.7c3.5,15.1-2.7,44.5-2.5,59.5c0.2,7.1,3.4,23.6,16.2,24.7l0,0
	c16.5,0.8,19.3-16.5,20-23.2c1.4-13.6,13.3-69.5,6.9-86c0,0-5.6-17.1-20-20.2C456.6,328.1,450.4,330.9,445.5,337.8z"/>
<path class="st2" d="M350.7,321.6c7.9,4.2,43.3,5.7,43.3,5.7l44.1-5.7l18.5,3.6c0,0-7.9,101.9-8,111.7s1.6,63.2,1.6,63.2H334.9
	l-3.4-113.4l-2.2-61.8L350.7,321.6z"/>
<path class="st2" d="M330.8,324.8l-5.3,1.1c-4.4,0.9-8.5,3-11.8,6.1l-20.6,19c-2.6,2.4-3,6.3-0.9,9.1l25.8,35.7
	c2,2.8,5.9,3.6,8.7,1.7c2.7-1.8,6.8-1.2,12.3,9.8C349.3,428,330.8,324.8,330.8,324.8z"/>
<path class="st2" d="M456.4,325.2l5.3,1.1c4.4,0.9,8.5,3,11.8,6.1l20.6,19c2.6,2.4,3,6.3,0.9,9.1l-25.8,35.7c-2,2.8-5.9,3.6-8.7,1.7
	c-2.7-1.8-6.8-1.2-12.3,9.8C437.8,428.5,456.4,325.2,456.4,325.2z"/>
<path class="st0" d="M452.2,457c8.9,6.7,17-0.8,22.9-8.1c4.2-5.3,40.4-60.6,50.5-75.6c5.6-8.4,8.9-12.8,4.2-16.6
	c-4.3-3.5-12.4,3.1-15.6,5.6c-30.2,23.9-51.9,43.4-64.6,69.4C441.1,448.7,449.1,454.7,452.2,457z"/>
<g>
	<line class="st3" x1="334.6" y1="491.8" x2="449.9" y2="491.8"/>
	<g>
		<g>
			<g>
				<g>
					<polygon class="st4" points="392.3,497.3 388.5,497.3 372.9,479.3 382.2,479.3 392.3,490.9 					"/>
					<polygon class="st5" points="392.3,484.7 387.6,479.3 392.3,479.3 					"/>
				</g>
				<g>
					<polygon class="st6" points="382.8,497.3 367.2,479.3 359.6,479.3 343.9,497.3 353.4,497.3 363.4,485.7 373.5,497.3 					"/>
					<polygon class="st5" points="363.4,492 368.1,497.3 358.8,497.3 					"/>
				</g>
				<g>
					<polygon class="st4" points="334.6,497.3 338.4,497.3 354,479.3 344.7,479.3 334.6,490.9 					"/>
					<polygon class="st5" points="334.6,484.7 339.3,479.3 334.6,479.3 					"/>
				</g>
			</g>
			<g>
				<g>
					<polygon class="st4" points="449.9,497.3 446.2,497.3 430.5,479.3 439.9,479.3 449.9,490.9 					"/>
					<polygon class="st5" points="449.9,484.7 445.3,479.3 449.9,479.3 					"/>
				</g>
				<g>
					<polygon class="st6" points="440.5,497.3 424.9,479.3 417.3,479.3 401.6,497.3 411,497.3 421.1,485.7 431.2,497.3 					"/>
					<polygon class="st5" points="421.1,492 425.8,497.3 416.5,497.3 					"/>
				</g>
				<g>
					<polygon class="st4" points="392.3,497.3 396,497.3 411.7,479.3 402.4,479.3 392.3,490.9 					"/>
					<polygon class="st5" points="392.3,484.7 396.9,479.3 392.3,479.3 					"/>
				</g>
			</g>
		</g>
	</g>
</g>
<g>
	<line class="st3" x1="373.5" y1="309" x2="414.7" y2="309"/>
	<g>
		<g>
			<g>
				<polygon class="st4" points="414.7,314.5 412,314.5 400.8,296.5 407.5,296.5 414.7,308.1 				"/>
				<polygon class="st5" points="414.7,301.8 411.4,296.5 414.7,296.5 				"/>
			</g>
			<g>
				<polygon class="st6" points="408,314.5 396.8,296.5 391.4,296.5 380.2,314.5 386.9,314.5 394.1,302.9 401.3,314.5 				"/>
				<polygon class="st5" points="394.1,309.1 397.4,314.5 390.8,314.5 				"/>
			</g>
			<g>
				<polygon class="st4" points="373.5,314.5 376.2,314.5 387.4,296.5 380.7,296.5 373.5,308.1 				"/>
				<polygon class="st5" points="373.5,301.8 376.8,296.5 373.5,296.5 				"/>
			</g>
		</g>
	</g>
</g>
<path class="st0" d="M524,371.7c0.5,0.7,1.3,1.2,2.2,1.3l3.8,0.3c0.6-0.1,1.4-0.2,2-0.6l18.7-11.6c0.2-0.2,0.4-0.3,0.7-0.3
	c0.9-0.3,1.4-1.5,1.7-2.9c0.7-3.1,0.2-6.4-1.2-9.4l-1.6-3.5c-0.2-0.4-0.3-0.7-0.5-1.1c-0.8-1.5-3.2-5.5-3.3-5.5c0,0-3.1-4.8-5.6-3.8
	c-0.1,0.1-5.7,2.5-5.9,2.6l-1.7,2.2c-1.4,1-3.3-0.4-2.7-2.1l1.3-3.8c0.1-0.4,0.1-1,0.1-1.4l-0.7-5.7c-0.1-1.4-1-2.5-2.3-2.8
	c-1.4-0.3-3.1-0.7-3.7-0.8c-1.1-0.2-1.1,9.9-1.6,11.6c-0.4,1.7-5.4,9.5-6.3,11.5c-0.7,1.6-0.6,11.3-0.6,14.3
	c0.1,0.6,0.3,1.2,0.6,1.8L524,371.7z"/>
<g>
	<path class="st7" d="M532.2,331.5c0.3,0,0.6,0,1-0.1c2.5-0.3,3.7,0.5,4.3,2.9c1.4,5.9,2.8,11.8,4,17.7c0.6,2.6-0.3,3.9-3,4.5
		c-1.4,0.4-2.9,0.7-4.4,1c-2.7,0.6-3.9-0.2-4.5-2.9c-1.3-5.9-2.6-11.7-3.9-17.6c-0.6-2.6,0.1-3.7,2.6-4.6c0.4-0.2,0.6-0.8,0.9-1.1
		c-0.2-0.3-0.4-0.5-0.5-0.8c-8.5,1.9-17,4-25.8,6c0-1-0.1-2,0-3c0-0.8,0.6-1.7,0.5-2.4c-1.4-6.4-2.8-12.6-4.3-19
		c-0.1-0.5-0.5-1.4-0.8-1.5c-1.9-0.4-1.5-2-1.9-3.3c0.5-0.2,1-0.4,1.5-0.6c-0.4-1.6,0.4-2.4,1.8-2.6c1.6-0.3,3.2-0.9,3.6,1.2
		c4.1-1,8.1-1.9,11.9-2.7c-0.3-1-0.9-2.1-1.1-3.3c-0.1-1.1-0.5-1.6-1.3-2.1c-0.5-0.3-1-0.7-1.5-1.1c0.5-0.9,1.1-1.7,1.6-2.5
		c0.7,0.4,1.3,0.8,1.9,1.1c0.4,0.2,1.1,0.3,1.6,0.1c3.9-1.5,6.7,0.2,7,4.5c0.1,1.1,0.6,1.4,1.5,1.2c0.3-0.1,0.6-0.2,0.9-0.2
		c1.2-0.2,2.7-1,3.1,0.8c0.4,1.9-1.2,1.9-2.5,2.2c-1.5,0.3-3.1,0.4-4.8,0.7c0.3,1.3,0.4,2,0.6,2.6c2.5,0.2,3.2,0.7,3.7,3.2
		c0.8,3.6,1.7,7.3,2.5,10.9c0.6,2.9,0.4,3.4-1.8,4.9c0.1,0.7,0.2,1.4,0.3,2.1c2.1,0.3,0.8-1.3,1.2-1.9c0.1,0,0.1,0,0.2-0.1
		c1.2-0.4,2.3-0.1,3.6,0.2c1.5,0.4,3.3-0.5,5-0.8c-0.1-1.1-0.2-1.8-0.2-2.3c1-0.3,1.9-0.6,2.8-0.9c0.2,1,0.5,1.8,0.7,2.7
		c1.4,0,3.1-1.1,3.6,0.9c0.5,2-1.6,1.8-2.8,2.4c0.1,0.9,0.3,1.8,0.4,2.4c-1,0.2-1.9,0.5-2.9,0.9c-0.2-0.6-0.4-1.2-0.5-1.6
		c-1.9,0.3-3.8,0.6-5.7,1C532.1,330.9,532.1,331,532.2,331.5z M518.3,305.6c-2.5,0.6-5.1,1.2-7.8,1.8c0.1,0.4,0.3,1.1,0.4,1.7
		c2.5,0.2,3.1,0.8,3.7,3.3c0.9,3.8,1.8,7.6,2.6,11.4c0.5,2.1,0.1,3-2.1,4.2c0.2,0.7,0.5,1.4,0.7,2c2.5-0.6,5-1.2,7.9-1.8
		c-0.2-0.6-0.5-1.2-0.8-2c-2.5,0.2-3.3-1.5-3.7-3.7c-0.7-3.6-1.6-7.1-2.4-10.7c-0.5-2.3-0.1-3.2,2.1-4.5
		C518.7,306.8,518.5,306.1,518.3,305.6z M503,308.7c1.7,7.7,3.4,15.3,5.1,23c1.4-0.3,2.8-0.6,4.4-1c-0.1-0.4-0.2-1.2-0.4-2
		c-2.7,0.2-3.5-1.6-3.9-3.8c-0.7-3.6-1.6-7.1-2.4-10.7c-0.5-2.2-0.1-3,2.1-4.3c-0.2-0.6-0.5-1.2-0.8-2
		C505.7,308.1,504.3,308.5,503,308.7z M519.8,299.6c0.2-0.5-0.1-1.7-0.6-2c-0.4-0.2-1.7,0.1-2,0.6c-0.3,0.5,0.1,1.4,0.2,2.7
		C518.6,300.3,519.6,300.2,519.8,299.6z"/>
	<path class="st7" d="M537.1,368.7c-0.7-3.3-1.5-6.5-2.2-9.6c1.3-0.3,2.6-0.6,3.9-0.9c0.7,3.1,1.4,6.4,2.1,9.5
		C539.5,368.1,538.2,368.4,537.1,368.7z"/>
	<path class="st8" d="M540.8,378.6c-0.9-2.8-1.8-5.4-2.8-8.3c1.1-0.2,1.7-0.3,2.7-0.4c0.3,2.9,0.6,5.8,0.9,8.6
		C541.3,378.5,541.1,378.5,540.8,378.6z"/>
</g>
<path class="st0" d="M533.2,338.1l7.8-3.5l8,15.9c1.7,3.2,0.4,7.2-2.8,8.9l0,0c-3.2,1.7-7.2,0.4-8.9-2.8l-6.1-11.7
	C529.8,342.5,530.8,339.3,533.2,338.1z"/>
<g>
	<path class="st7" d="M309.2,389.1l5.3,86.3c0.1,1.9,1.4,3.5,3.2,4.1l53.6,16.9c2.9,0.9,5.9-1.2,5.9-4.2l3.3-87.1
		c0.1-2.2-1.4-4.1-3.4-4.6l-62.3-16.1C311.9,383.6,309,385.9,309.2,389.1z"/>
	<path class="st0" d="M376.9,477l-5.5-1.4c-0.1,0-0.3-0.1-0.4-0.1l-5.6-1.3c-0.4-0.1-0.6-0.2-1-0.4l-9.7-5.4
		c-0.4-0.2-0.7-0.3-1.1-0.4l-65.1-14.9c-8.3-2.1-20.8-16.5-16.1-27.9c0.9-2.1,8.5-1,10.5,0l0.6,0.4c3.7,2.1,7.6-2.5,4.9-5.9
		c-1.4-1.7-1.8-2.4,1.4-1.7c0.3,0.1,0.5,0.2,0.7,0.3l8.6,3.8l53.1,26.3c0.5,0.3,8.6,0.6,9.2,0.6l10.6-4.1c1.5-0.1,3.1,0.8,3.7,2.3
		l0.3,0.6c0.4,0.8,0.9,1.4,1.6,1.8l3.2,1.9c1.4,0.8,4.9,3.4,4.5,5.1l-3.3,17.3C381.6,476.1,378.8,477.4,376.9,477z"/>
	<path class="st9" d="M371.3,402.9c-1.7,0-3.1-1.4-3.1-3.1s1.4-3.1,3.1-3.1s3.1,1.4,3.1,3.1"/>
	<path class="st9" d="M352,397.9c-1.7,0-3.1-1.4-3.1-3.1s1.4-3.1,3.1-3.1s3.1,1.4,3.1,3.1"/>
	<path class="st9" d="M361.7,400.2c-1.7,0-3.1-1.4-3.1-3.1s1.4-3.1,3.1-3.1s3.1,1.4,3.1,3.1"/>
	<path class="st9" d="M341.4,395.3c-1.7,0-3.1-1.4-3.1-3.1s1.4-3.1,3.1-3.1s3.1,1.4,3.1,3.1"/>
	<path class="st9" d="M322.1,390.3c-1.7,0-3.1-1.4-3.1-3.1s1.4-3.1,3.1-3.1s3.1,1.4,3.1,3.1"/>
	<path class="st9" d="M331.8,392.6c-1.7,0-3.1-1.4-3.1-3.1s1.4-3.1,3.1-3.1s3.1,1.4,3.1,3.1"/>
	<path class="st10" d="M342.7,455.6c-0.1,0-0.2-0.1-0.3-0.1c-0.1,0.2-0.3,0.4-0.4,0.6c0,0,0.3,0.2,0.5,0.3c-0.2,1-0.7,0.2-1.1,0.3
		c-0.1-0.3-0.3-0.5-0.3-0.8c0-0.2,0.1-0.6,0.2-0.6c0.5-0.1,0.9-0.5,1.4-0.1c0.3,0.2,0.6,0.3,1,0.4c-0.2,0.1-0.3,0.3-0.4,0.5
		c0.1,0,0.3,0.1,0.4,0.1c-0.1-0.2-0.1-0.4-0.1-0.5c0.5,0.1,0.8,0.3,1.2,0.4c-0.3,0.1-0.5,0.2-0.8,0.3c0,0.1,0,0.1,0,0.2
		c0.3,0,0.5,0.1,0.8,0.2c-0.1-0.3-0.1-0.5-0.1-0.6c0.5,0.1,1,0.3,1.4,0.5c1,0.4,1,0.5,1.5-0.5c-0.1,0.3-0.1,0.5-0.1,0.8
		c0.3-0.4,0.5-0.6,0.6-1c-0.2,0.1-0.4,0.1-0.5,0.2c0.1,0,0.1-0.1,0.1-0.1c0.3-0.1,0.5-0.2,0.7-0.3c0.1,0,0.3,0.4,0.3,0.4
		c-0.2,0.2-0.4,0.4-0.6,0.7c0.1,0.4,0.3,0.5,0.8,0.5c0.3-0.1,0.6-0.1,0.8,0c1.4,0.8,2.9,1.5,4.2,2.3c0.5,0.3,0.6,0.6,1.1,1.1
		c-0.4,0.1-0.5,0.2-0.8,0.2c-1.9,0.1-3.7-0.3-5.5-0.8c-0.2-0.1-0.4-0.3-0.5-0.5c-0.4-0.5-0.6-0.5-0.9-0.2c0,0.5,0.1,0.7,0,1
		c0,0-0.5,0.1-0.5,0c-0.2-0.3-0.2-0.5-0.3-0.8c0-0.1,0.1-0.2,0.1-0.3c0.1-0.4,0-0.7-0.5-0.8c-0.5-0.2-1.1-0.3-1.5-0.5
		c-0.8-0.4-1.9-0.2-2.2-1.4C342.5,456.1,342.6,455.9,342.7,455.6z M348.4,457.9c0.8,0,1.4,0.7,2.3,0.4c0.5,1.4,2,1.3,3.2,1.7
		c-1.6-1.5-3.3-2.7-5.7-2.3c0.1,0.2,0.1,0.4,0.2,0.6c-0.2,0.1-0.4,0.3-0.5,0.4c0.8,0.8,1.7,1.4,2.9,1.5c1.1,0.1,2.2,0.4,3.3,0.1
		c-1.4-0.8-2.9-1-3.8-0.6c-0.5-0.8-1.3-0.6-2-1c0.3-0.2,0.4-0.3,0.6-0.4C348.8,458.1,348.7,457.9,348.4,457.9z M346.4,457
		c-0.2,0.1-0.4,0.5-0.3,0.6c0.3,0.5,0.6,0.2,1.1,0C346.9,457.3,346.8,456.8,346.4,457z M344.6,457.2c-0.3-0.2-0.5-0.4-0.7-0.5
		c0,0.1-0.1,0.1-0.1,0.2C343.8,457.1,343.9,457.6,344.6,457.2z M346.8,458.8L346.8,458.8c-0.2,0.4-0.2,0.7-0.3,1.1
		c0.1,0,0.2,0,0.3,0C346.8,459.6,346.9,459.2,346.8,458.8z M343,457c0.1,0.1,0.3-0.1,0.4-0.1c0-0.1,0-0.3-0.1-0.3
		c-0.1-0.1-0.3,0-0.5,0C342.9,456.9,342.9,457,343,457z M345.6,456.5c-0.1,0-0.1-0.1-0.1-0.2c-0.3,0.1-0.5,0.1-0.6,0.2
		c0,0.1,0.1,0.2,0.1,0.3C345.3,456.8,345.5,456.7,345.6,456.5z M345.1,457.8c0.1,0,0.1-0.1,0.2-0.1c-0.1-0.2-0.3-0.4-0.4-0.5
		c-0.1,0-0.1,0.1-0.2,0.1C344.8,457.4,345,457.6,345.1,457.8z"/>
</g>
<g>
	<path class="st10" d="M457.2,452.1c4.4-1.6,8.7-3.2,13.2-4.8c0.1,0.3,0.3,0.6,0.3,0.9c-4.3,1.8-8.2,4.6-12.9,5.3
		C457.6,453.1,457.5,452.6,457.2,452.1z"/>
	<path class="st10" d="M459.2,441.6c-1,3.3-2,6.7-3,10.1c-0.5-0.1-1-0.4-1.6-0.5c1.1-3.3,2.4-6.7,3.5-9.9
		C458.5,441.4,458.8,441.5,459.2,441.6z"/>
	<path class="st10" d="M465.8,456.6c-2.1,0-4.2-0.1-6.3-0.1c0-0.4,0-0.8,0-1.2c2.1,0,4.2,0.1,6.4,0
		C465.9,455.8,465.8,456.2,465.8,456.6z"/>
	<path class="st10" d="M452.8,452.5c-1.2-1-2.5-2-3.7-3c0.2-0.3,0.4-0.6,0.7-0.9c1.2,1,2.5,2,3.7,3
		C453.2,451.9,453,452.2,452.8,452.5z"/>
</g>
<g>
	<path class="st10" d="M506.6,385.6c-0.5,0.4-0.4,0.9-0.5,1.4c0,0.4-0.1,0.9-0.3,1.1c-0.5,0.6-1.1,1.1-0.7,2
		c-0.7-0.4-0.8-0.8-0.4-1.6c0.3-0.6,0.5-1.2,0.3-1.9c-0.1-0.4-0.2-0.8-0.4-1.3c-1.1,1.1-2.2,2.2-3.4,3.2c0-0.1-0.2-0.1-0.2-0.2
		c0.9-1.3,1.6-2.6,2.5-3.9c-0.5-0.1-0.9,0-1.4-0.1c-0.6-0.1-1.2,0.2-1.7,0.6c-0.6,0.5-1,0.5-1.7-0.1c1.1,0.2,1.4-0.6,1.9-1.2
		c0.2-0.2,0.6-0.3,1-0.5c0.4-0.1,0.8-0.4,1.2-0.5c0-0.1-0.1-0.2,0-0.2c-1.6,0-3.4,0-5,0c0-0.1,0-0.2-0.1-0.3
		c1.6-0.4,3.3-0.7,4.9-1.1c-0.3-0.5-0.7-0.5-1.2-0.5c-0.7,0-1.2-0.1-1.6-0.6c-0.4-0.6-1-0.6-1.7-0.5c0.3-0.6,0.8-0.7,1.5-0.4
		c0.5,0.2,1,0.3,1.6,0.4c0.2,0,0.5-0.2,0.7-0.2c0.3-0.1,0.6-0.1,0.9-0.2c-1.1-1.1-2.2-2.2-3.2-3.4c0.1,0,0.1-0.2,0.2-0.2
		c1.3,0.9,2.6,1.6,3.9,2.5c0-1.2,0.3-2.3-0.6-3.2c-0.5-0.5-0.4-0.9,0.2-1.5c0,0.9,0.5,1.3,1.1,1.8c0.2,0.2,0.4,0.7,0.6,1
		c0.2,0.5,0.2,0.9,0.7,1.2c0-1.7,0-3.4,0.1-5.1c0.1,0,0.2,0,0.3-0.1c0.4,1.6,0.7,3.3,1.1,4.9c0.4-0.2,0.5-0.7,0.5-1.2
		c-0.1-0.8,0.2-1.2,0.7-1.7c0.3-0.4,0.5-1,0.7-1.4c0.4,0.2,0.4,0.6,0.2,1.4c-0.1,0.5-0.3,1.2-0.3,1.8c0,0.4,0.2,0.9,0.4,1.5
		c1.1-1.1,2.2-2.2,3.4-3.2c0,0.1,0.2,0.1,0.2,0.2c-0.9,1.3-1.6,2.6-2.5,3.9c0.5,0.1,0.9,0.1,1.4,0.1c0.7,0,1.2-0.3,1.7-0.6
		c0.6-0.5,1-0.5,1.6-0.1c-0.3,0.2-0.8,0.2-1.1,0.5c-0.3,0.3-0.4,0.7-0.8,0.9c-0.2,0.2-0.6,0.3-0.9,0.4c-0.5,0.2-1,0.1-1.2,0.7
		c1.7,0,3.4,0,5,0.1c0,0.1,0,0.2,0.1,0.3c-1.6,0.4-3.3,0.7-4.9,1.1c0.2,0.4,0.4,0.6,1.1,0.4c0.8-0.1,1.3,0.2,1.8,0.7
		c0.4,0.3,1,0.5,1.4,0.7c-0.1,0.3-0.2,0.4-0.7,0.4c-0.3-0.1-0.6-0.1-0.9-0.3c-0.6-0.3-1.4-0.4-2-0.1c-0.3,0.1-0.7,0.2-1,0.2
		c1.1,1.1,2.2,2.2,3.3,3.3c-0.1,0-0.1,0.2-0.1,0.2c-1.3-0.9-2.6-1.6-3.9-2.5c-0.1,0.5-0.2,1,0,1.5c0.1,0.5,0.4,1.1,0.6,1.5
		c0.4,0.7,0.5,1.1,0,1.6c-0.1-0.4-0.2-0.8-0.5-1.1c-0.2-0.3-0.7-0.4-0.9-0.8c-0.2-0.2-0.3-0.6-0.4-0.9c-0.2-0.5-0.1-1-0.7-1.3
		c0,1.7,0,3.4-0.1,5.1c-0.1,0-0.2,0-0.3,0.1C507.3,388.9,507,387.3,506.6,385.6z M504.4,380c-0.8-0.2-1-0.1-1.1,0.6
		c-0.4,1.7,0.5,3.4,2,4.1c1.9,0.9,3.4,0.3,4.5-1c1.3-1.4,1.2-3.6,0-4.8c-1.3-1.4-3.4-1.7-4.9-0.7c-0.5,0.3-1,0.7-1.2,1.4
		C503.9,379.8,504.1,379.9,504.4,380z M513.4,378.2c-0.9,1-2.3,0.2-3.4,0.7c0.2,0.4,0.5,0.9,0.6,1.1c0.6-0.2,1-0.5,1.5-0.5
		C512.9,379.3,513.2,378.8,513.4,378.2z M503.3,379.5c-1.2-0.1-2.5,0.9-3.6,0c0.5,0.7,1.1,1.2,2.1,1c0.3-0.1,0.8,0.1,1.1,0.3
		C503,380.3,503.2,380,503.3,379.5z M508.8,374.4c-0.6,0.3-0.9,0.8-0.9,1.6c0,0.4-0.1,1-0.3,1.5c0.3,0.2,0.7,0.3,1.3,0.4
		C509,376.6,508,375.5,508.8,374.4z M503.1,382.9c-0.5,0.2-1,0.5-1.4,0.6c-0.8,0.1-1.1,0.5-1.4,1.2c1-1,2.3-0.2,3.4-0.7
		C503.5,383.6,503.3,383.3,503.1,382.9z M508.4,385.2c0.2,0.3,0.5,0.7,0.5,1.1c0.1,0.9,0.6,1.4,1.5,1.8c-0.7-0.9-0.8-1.6-0.7-2.6
		c0.1-0.3,0-0.7-0.2-1.1C509.1,384.8,508.7,385,508.4,385.2z M503.4,374.7c0.7,0.8,0.8,1.6,0.6,2.5c0,0.4,0.1,0.8,0.2,1.1
		c0.5-0.3,0.9-0.5,1.2-0.7c-0.2-0.3-0.5-0.6-0.5-1.1C504.8,375.7,504.4,375.2,503.4,374.7z M505,388.5c0.6-0.4,0.9-0.8,0.9-1.6
		c0-0.4,0.1-1,0.3-1.5c-0.3-0.2-0.8-0.2-1.3-0.4C504.8,386.2,505.8,387.4,505,388.5z M510.9,382.1c-0.1,0.4-0.2,0.8-0.4,1.3
		c1.1,0.2,2.4-0.9,3.6,0c-0.8-0.7-0.8-1.2-2.1-1C511.7,382.5,511.3,382.2,510.9,382.1z M499.1,382.1c0,0.1,0,0.1,0,0.2
		c1.3,0,2.5-0.1,3.8-0.1c0-0.1,0-0.1,0-0.2c-0.4,0-0.8,0-1.3,0c0,0,0-0.1,0-0.1c0.4-0.1,0.8-0.1,1.2-0.3c0-0.1,0-0.1,0-0.2
		C501.5,381.6,500.3,381.9,499.1,382.1z M507.5,386.6L507.5,386.6c-0.2-0.3-0.3-0.7-0.3-1.2c-0.1,0-0.2,0.1-0.3,0.1
		c0.3,1.2,0.5,2.5,0.8,3.7c0.1,0,0.1,0,0.2,0c0-1.3-0.1-2.5-0.1-3.8c-0.1,0-0.1,0-0.2,0C507.5,385.8,507.5,386.3,507.5,386.6z
		 M504.2,384.5c0-0.1-0.1,0-0.2-0.1c-0.7,1.1-1.4,2.1-2.1,3.2c0,0.1,0,0.1,0.2,0.1c0.9-0.9,1.7-1.8,2.7-2.7c0-0.1-0.1-0.2-0.2-0.1
		c-0.4,0.3-0.8,0.8-1.2,1.1l0,0C503.6,385.4,503.9,384.9,504.2,384.5z M509.1,378c0,0.1,0.1,0.2,0.2,0.1c0.4-0.5,0.8-0.8,1.2-1.3
		l0,0c-0.3,0.5-0.6,0.9-0.9,1.4c0,0.1,0.1,0,0.2,0.1c0.7-1.1,1.4-2.1,2.1-3.2c0-0.1,0-0.1-0.2-0.1C510.9,376.3,510,377.1,509.1,378z
		 M506.3,376.1L506.3,376.1c0.2,0.3,0.2,0.8,0.3,1.2c0.1,0,0.1,0,0.2,0c-0.3-1.2-0.5-2.4-0.7-3.6c-0.1,0-0.1,0-0.2,0
		c0,1.3,0.1,2.5,0.1,3.8c0.1,0,0.1,0,0.2,0C506.4,377,506.4,376.6,506.3,376.1z M510.9,381.2c0,0.1,0.1,0.2,0,0.2
		c1.2-0.3,2.5-0.5,3.7-0.8c0-0.1,0-0.1,0-0.2c-1.3,0-2.5,0.1-3.8,0.1c0,0.1,0,0.1,0,0.2c0.4,0,0.8,0,1.3,0l0,0.1
		C511.8,381,511.4,381.1,510.9,381.2z M501,376.4c-0.1,0,0,0.1-0.1,0.2c0.9,0.9,1.8,1.6,2.6,2.5c0.1,0,0.1,0,0.1-0.2
		c-0.3-0.4-0.6-0.7-1-1l0.1,0c0.4,0.2,0.8,0.6,1.2,0.8c0.1,0,0-0.1,0.1-0.2C503,377.8,502,377.1,501,376.4z M510.4,383.7
		c-0.1,0-0.1,0-0.1,0.2c0.3,0.4,0.7,0.6,1,1l-0.1,0c-0.4-0.2-0.9-0.5-1.3-0.8c-0.1,0,0,0.1-0.1,0.2c1,0.7,2,1.4,3,2.1
		c0.1,0,0.1,0,0.1-0.2C512.1,385.4,511.2,384.5,510.4,383.7z"/>
	<path class="st10" d="M507.9,382c0-0.1-0.1-0.3,0-0.4c0.3-0.1,0.4-0.1,0.5,0.3c0.1,0.3,0.3,0.7,0.9,0.5c0.1,0,0.2,0.1,0.3,0.2
		l0,0.2c-0.1,0-0.3,0.1-0.3,0.1C508.8,382.6,508.4,382.3,507.9,382z"/>
	<path class="st10" d="M506.8,380.3c-0.7,0.3-0.7,0.3-1-0.3c-0.1-0.2-0.4-0.3-0.5-0.5c0-0.1-0.1-0.3-0.1-0.4l0.2-0.1
		c0,0.1,0,0.2,0.1,0.3c0.1,0.3,0.3,0.4,0.6,0.6C506.3,380.2,506.5,380.2,506.8,380.3z"/>
	<path class="st10" d="M507.2,378.8c0.2-0.1,0.3-0.1,0.3-0.2c0,0.1-0.1,0.3,0,0.4c0.2,0,0.4,0,0.6,0c0,0.1-0.1,0.3-0.1,0.4
		C507.7,379.1,507.5,378.9,507.2,378.8z"/>
	<path class="st10" d="M507.1,380.4c-0.1-0.3-0.2-0.7-0.2-1c0.1,0,0.1,0,0.2,0c0.1,0.3,0,0.7,0.2,1.1
		C507.2,380.4,507.2,380.4,507.1,380.4z"/>
	<path class="st10" d="M504.1,380.5c-0.3-0.1-0.4-0.1-0.7-0.2c0.2-0.1,0.3-0.1,0.5-0.2C504,380.2,504.1,380.4,504.1,380.5z"/>
	<path class="st10" d="M508,380.9c0.3-0.1,0.6,0,0.9-0.1c0,0.1,0,0.1,0,0.2c-0.3,0.1-0.6,0-0.9,0.1C508.1,381,508,380.9,508,380.9z"
		/>
	<path class="st10" d="M505,382.6c0.4,0.3,0.8,0.6,1.1,1C505.7,383.2,505.4,382.9,505,382.6z"/>
	<path class="st10" d="M509.6,380.7c-0.2-0.1-0.3-0.3-0.4-0.3l0,0c0.1,0,0.3-0.1,0.4,0C509.6,380.4,509.5,380.5,509.6,380.7z"/>
	<path class="st10" d="M508.8,380.1c0-0.1,0.2-0.2,0.2-0.4c0,0.1,0,0.1,0.2,0.1c0,0.1-0.2,0.2-0.2,0.4
		C508.9,380.2,508.8,380.1,508.8,380.1z"/>
	<path class="st10" d="M506.1,382.1c0-0.1-0.1-0.3-0.2-0.3l0.1,0c0,0.1,0.2,0.1,0.3,0.3C506.2,382.1,506.1,382.1,506.1,382.1z"/>
	<path class="st10" d="M506.8,382.5c-0.1,0-0.3-0.1-0.4-0.1l0-0.1C506.6,382.3,506.7,382.4,506.8,382.5
		C506.7,382.5,506.8,382.5,506.8,382.5z"/>
</g>
<g>
	<path class="st10" d="M294.2,377.9L294.2,377.9c0.2-0.6,0.4-1.1,0.5-1.7l0,0c0,0,0.2-0.1,0.2-0.1c-0.1-0.2-0.1-0.4-0.2-0.7
		c0.1,0.1,0.1,0.2,0.2,0.4c0.2,0.1,0.2,0.4,0.3,0.5c0.5,0.4,1,0.8,1.5,1.2c2.3,2.1,4.2,4.5,5,7.6c0.7,2.5-0.1,4.8-2.4,5.9
		c-0.7,0.4-1.7,0.6-2.6,0.7c-0.9,0.2-1.7,0.3-2.4,1.1c-0.3,0.4-0.9,0.8-1.3,0.8c-0.8,0-1.5,0.3-2.1,0.7c-0.2,0.1-0.5,0.4-0.8,0.4
		c-0.3,0-0.8,0.1-1-0.1c-0.3-0.2-0.2-0.7-0.2-1.1c0.1-0.6,0.5-1,0.8-1.6c-0.6-0.7-0.7-1.1-0.1-2.1c0.8-1.5,1.6-2.9,2.5-4.3
		c1.2-2,2.4-3.9,2.9-6.1c0.2-0.5,0.4-1-0.1-1.6c-0.1,0.2-0.2,0.3-0.2,0.5C294.6,378.1,294.6,378.1,294.2,377.9z M290.6,388.2
		c0,0.2-0.4,0.6-0.5,1.1c0,0.2,0.3,0.6,0.4,0.8c0.1,0,0.6-0.2,0.7-0.3c0.3-0.5,0.7-1.1,1-1.6c-0.2,0-0.3-0.1-0.4-0.1
		c0.8-0.1,1-0.7,1.2-1.3c1.1-2,1.7-4.1,2-6.3c-0.1-0.1-0.1-0.2,0.1-0.3c-1.3,2.4-2.7,4.6-3.9,6.9c-0.4,0.6,0.1,0.8,0.6,1.1
		C291.6,388.1,291.3,388.1,290.6,388.2z M301.4,384.6c0.1-0.1,0.1-0.3,0-0.4c-1.1-2.6-2.8-4.8-4.8-6.6c-0.2-0.3-0.7-0.3-1.1-0.4
		c1.6,2.7,2.9,5.4,1.5,8.6c0.7-2.6,0.2-5-1.2-7.4c0.1,1.2,0.1,2.2,0.2,3.2c0.2,1.7-0.3,3.3-0.7,5c-0.2,0.8-0.3,1.7-0.5,2.5
		c0.1,0.1,0.2,0.1,0.3,0.2c0.6-1,1.3-1.9,1.9-2.8c0.1,0.3,0.3,0.8,0.5,1.4c0.8-0.7,1.2-1.6,1.3-2.7c0-2.6-0.4-4.9-2.3-6.8
		c-0.2-0.1-0.2-0.3-0.3-0.5c0.9,0.6,1.6,1.4,2,2.4c0.4,1.2,0.7,2.5,0.8,3.9c0.1,1,0,2.1,0.9,3C300.4,386.3,300.9,385.4,301.4,384.6z
		 M291.9,392.3c0.8-0.1,1.5-0.1,2-0.3c0.9-0.5,2.1-0.9,2.4-2.2c0.1-0.3,0.3-0.7,0.4-0.9c0.4-0.6,0.4-0.9,0.1-1.7
		c-0.8,1-1.6,2-2.5,3.1c0.1-0.8,0.2-1.3,0.3-1.9C293.6,389.6,292.1,390.6,291.9,392.3z M294.7,384.1c-0.5,1-1,2-1.5,3
		c-0.2,0.6-0.8,1.3-0.1,1.7c0.7,0.4,1.1-0.6,1.3-1.1c0.8-1.7,1.2-4.2,1-6.3C295.2,382.5,295,383.4,294.7,384.1z M301.5,384.9
		c-0.4,1.7-2.4,2.7-2.5,4.8C301.5,389.2,302.5,387.5,301.5,384.9z M290.2,392.2c-0.3,0.3-0.4,0.7,0.2,0.9c0.6,0.1,1.1,0,1.2-0.5
		c0.1-1.2,0.9-2,1.5-2.9c0-0.1,0.1-0.2,0.1-0.2c-0.2-0.3-0.5-0.5-0.8-0.8C291.7,389.8,290.9,391,290.2,392.2z M298.4,389.7
		c0.2-0.6,0.4-1.2,0.7-1.7c0.5-0.7,0.2-1.2-0.2-1.8c-1.3,1.3-2.2,2.9-2.3,3.9C297.3,390,298,389.8,298.4,389.7z"/>
	<path class="st10" d="M289.5,384.9c0.1-0.1,0.1-0.1,0.2-0.1c-0.2-0.4-0.5-0.6-0.8-1.1c0,0.3,0.1,0.5,0.1,0.6
		c-0.1-0.2-0.2-0.6-0.1-0.6c0.2-0.9,0.4-1.8,0.8-2.7c0.3-0.9,0.6-1.8,0.9-2.7c0.1,0,0.2,0.1,0.3,0.2c0.6,1.5,1.7,2,3.1,1.2
		c0.1,0,0.2,0,0.3,0.1c-0.1,0.5-0.2,1-0.4,1.4c-0.3,0.9-0.7,1.8-1.2,2.7c-0.3,0.5-0.8,1-1.2,1.5c0-0.1,0.1-0.2,0.3-0.3
		c-0.5,0.1-0.9,0.1-1.3,0.2c0,0,0.1,0.1,0.1,0.2c0.3,0,0.5-0.1,0.8-0.1c-0.5,0.4-0.8,0.8-1.3,1.2c-0.5,0.4-1,0.2-1-0.5
		c-0.1-0.5,0-1.1-0.1-1.8C289.2,384.5,289.3,384.8,289.5,384.9z M291.1,381.1c0.1,0,0.1-0.1,0.2-0.1c-0.1-0.3-0.2-0.6-0.3-0.9
		c-0.1,0-0.1,0.1-0.2,0.1C291,380.4,291,380.7,291.1,381.1z M292,381.1c0.1,0.1,0.1,0.1,0.1,0.2c0.2-0.1,0.5-0.3,0.7-0.4
		c-0.1,0-0.1-0.1-0.2-0.1C292.5,380.9,292.3,381,292,381.1z"/>
	<path class="st10" d="M291.5,377L291.5,377c0.4-0.5,1.1-0.9,0.8-1.7l0,0c0.4-0.1,1-0.3,1.5-0.4c-0.1-0.1-0.1-0.3-0.2-0.5
		c-0.3,0-0.6,0.1-0.9,0.1c-0.2,0-0.3,0-0.4,0c0.2-0.4,0.4-0.8,0.7-1.2c0.6-0.6,1.7-0.6,2.1-0.1c0.7,0.8,0.6,1.6,0.3,2.5
		c-0.1-0.1-0.1-0.2-0.2-0.4c-0.2-0.1-0.3-0.4-0.6-0.8c0,0.3,0,0.5,0,0.7c0.1,0.2,0.3,0.6,0.4,0.8l0,0c-0.7,0.4-0.5,1.1-0.5,1.7l0,0
		c-0.1,0.5-0.4,1-0.5,1.5c-1.4,0.8-2.6,0.4-3.1-1.2C291.1,377.9,291.3,377.4,291.5,377z M294.2,377c0.2-0.4,0-1-0.1-1.5
		c0-0.1-0.5-0.2-0.6-0.1c-1.1,0.6-1.3,1.7-0.8,3.2C293.3,378,293.8,377.5,294.2,377z M293.9,379.2c0-0.1-0.1-0.1-0.1-0.2
		c-0.2,0.1-0.3,0.1-0.6,0.2c0,0.1,0.1,0.1,0.1,0.2C293.6,379.3,293.8,379.3,293.9,379.2z"/>
	<path class="st10" d="M296.3,373.1c0.3,0,0.7,0,1-0.1c0,0.1,0,0.1,0,0.2c-0.3,0-0.7,0-1,0.1C296.3,373.2,296.3,373.2,296.3,373.1z"
		/>
	<path class="st10" d="M293.8,375.8c-0.1,0.2-0.2,0.5-0.4,0.6l-0.2,0c0.1-0.3,0.2-0.5,0.3-0.8C293.7,375.6,293.8,375.7,293.8,375.8z
		"/>
	<path class="st10" d="M293.4,377.3c0,0.2-0.2,0.5-0.4,0.6c-0.1,0-0.1,0-0.2,0c0.1-0.3,0.2-0.5,0.3-0.8
		C293.2,377.3,293.3,377.3,293.4,377.3z"/>
</g>
</svg>
