<?xml version="1.0" encoding="utf-8"?>
<!-- Generator: Adobe Illustrator 26.0.2, SVG Export Plug-In . SVG Version: 6.00 Build 0)  -->
<svg version="1.1" id="Calque_1" xmlns="http://www.w3.org/2000/svg" xmlns:xlink="http://www.w3.org/1999/xlink" x="0px" y="0px"
	 viewBox="0 0 388 323.9" style="enable-background:new 0 0 388 323.9;" xml:space="preserve">
<style type="text/css">
	.st0{fill:#4E6566;}
	.st1{fill:#90573A;}
	.st2{fill:#6F412A;}
	.st3{fill:#D68F72;}
	.st4{fill:#295446;}
	.st5{fill:#9C3A26;}
	.st6{fill:#873022;}
	.st7{fill:#AFAFAF;}
	.st8{fill:#898989;}
</style>
<path class="st0" d="M54.3,174.3c0,0-6.5,1-7.3,4.3s-6.5,4.1-7.9,8.2c-1.4,4.1-1.7,13.1,3.5,17.4s2.1,0.4,8.5,0s16.9,0.3,23.3-7.2
	c6.4-7.4,3.9-20.4-0.8-20.7C68.9,175.9,54.3,174.3,54.3,174.3z"/>
<path class="st0" d="M135.5,264.8L135.5,264.8c0-6.6,7.1-13.8,6.2-25.6h104.5c-0.2,11.8,7.7,19,7.7,25.6l0,0c0,6.6-5.4,12-12,12
	c0,0,0,0,0,0h-94.4C140.9,276.8,135.5,271.4,135.5,264.8z"/>
<path class="st1" d="M195.2,193.6c-5.6-3.7-8.2-0.6-14.1,2.6c-10,5.5-16.3,24.4-27.4,26.9c-4,0.9-13-15.5-14.1-21.9
	c-1.6-9.6,2.6-28.3-8.6-37.8c-9.5-8.1-22-3.8-26.1-16.7c-7.2-22.6,13.8-39.5,24-43.5c15.6-6,38.1-5.2,44.7-14.6l1-28.4l0.7-20.7
	l18.8-0.8h2.2l18.8,0.8l0.7,20.7l1,28.4c6.6,9.4,29.1,8.6,44.7,14.6c10.2,4,31.2,20.9,24,43.5c-4.1,12.9-16.7,8.6-26.1,16.7
	c-11.2,9.6-7,28.3-8.6,37.8c-1,6.4-10.1,22.8-14.1,21.9c-11.1-2.6-17.4-21.4-27.4-26.9C203.4,192.9,200.8,189.9,195.2,193.6"/>
<path class="st2" d="M174.2,88.8c0,0,32.6,11.7,42.3-11.1l-1.3-38.4h-39.9L174.2,88.8z"/>
<path class="st3" d="M156,126.7C138,150,90.2,189.2,77.9,200c-5.8,5.1-21.2,14.7-28.8,5.6l0,0c-9.3-12.2,0.4-24.7,5.5-30.1
	c10.5-11,33.7-31.1,42.2-43.7c6.4-9.4,10.7-20,27.7-27c0,0,17-8.2,27.1,0.6C158.1,111,159.1,117.9,156,126.7L156,126.7z"/>
<path class="st3" d="M240.1,122.3c1.7,20.3,15.2,24.7,22.5,31.3c11.6,10.5,25,38.4,34.1,50.6c4.3,5.8,16.7,17.7,26.4,11.5l0,0
	c12.1-8.5,3.7-24.3,0.1-30.2c-7.3-12-32.5-65-47-75.1c0,0-14.3-11.1-26.3-5.7C242.1,108.1,239.4,114,240.1,122.3z"/>
<path class="st1" d="M323,192.1c-9.9-5.8-17.2,2.8-22.4,11c-3.7,5.9-34,66.7-42.4,83.1c-4.8,9.2-3.5,10.5,1.7,13.8
	c4.8,3.1,10.1-1.5,12.7-4.8c27.7-34.6,46.2-49.6,56.1-77.6C335.2,199.3,326.4,194.1,323,192.1z"/>
<path class="st0" d="M46.8,182.6c-5.6,6.1-3.6,14.8-1.7,18.5c3,5.8,4.5,10.2,18.1,9.1c13.4-1,59.2-49.4,62.8-46.9
	c3.6,2.5,14.4,59.7,14.7,63.1c0.2,2.1,1.1,14.7,1.9,24.2c0.5,6.2,5.6,10.9,11.8,10.9h79.8c6.4,0,11.7-5.1,11.8-11.6
	c0.2-11.6,0.5-27.9,0.6-29.7c0.1-2.9,16.1-64.1,19.2-60.2c2.4,3,20,30.4,27.9,42.6c2.3,3.6,2.5,8.2,0.5,12l-24.2,45.2
	c-2.8,5.2-1.3,11.6,3.4,15.1l2.6,1.9c5,3.7,12,2.9,16-1.8l34.4-40.3c1.1-1.3,1.9-2.8,2.4-4.4l5.7-19.7c0.9-3.1,0.5-6.4-1.1-9.2
	l-51.8-89.8c-1.4-2.4-3.5-4.2-6-5.1l-20.9-7.9c-0.4-0.1-0.8-0.3-1.2-0.4l-36.8-10c0,0-13.6,17.9-43.1,0l-52.7,13.7
	c-2.2,0.6-4.2,1.9-5.7,3.7l-34,39.8"/>
<path class="st4" d="M129.5,247.8l-15.3,122.9c-1.1,9.7,9.3,18.7,18.8,20.7c0,0,41.6,14.1,59.3,14.8c18.4,0.7,72.9-9.8,72.9-9.8
	c0.1,0,0.2,0,0.2,0c10.3-1.5,21.6-12.3,20-22.6l-21.1-70.3l-8.8-56.7"/>
<path class="st4" d="M136.7,89.6l1.8-0.8c2.8-1.2,5.9,0.3,6.7,3.1l15,50c0.3,1.1-0.3,2.4-1.4,2.8l-4.7,1.6c-1.2,0.4-2.5-0.2-2.9-1.4
	L134,95.6C133.1,93.3,134.3,90.7,136.7,89.6z"/>
<path class="st4" d="M259.7,94.8l-0.8-0.3c-3-1.3-6.5,0.3-7.5,3.5l-14.6,48.9c-0.4,1.4,0.3,3,1.7,3.5l3.8,1.3
	c1.4,0.5,3.1-0.2,3.6-1.7l16.7-48.3C263.6,98.9,262.2,95.9,259.7,94.8z"/>
<circle class="st4" cx="158.4" cy="150.9" r="3.8"/>
<circle class="st4" cx="238.4" cy="156.3" r="3.8"/>
<path class="st4" d="M150.9,161.8l92.6,4.8c2.6,0.1,4.7,2,5.4,4.4l6.5,25.2c0.1,0.5,0.2,0.9,0.2,1.4v48.6H129.8l1.6-50
	c0-0.8,0.2-1.5,0.5-2.3l13.2-28.8C146.3,163.1,148.5,161.7,150.9,161.8z"/>
<path class="st4" d="M162,165.9l-6.9-0.4c-1.5-0.1-2.7-1.4-2.6-3l0.1-2.3c0.1-1.5,1.4-2.7,3-2.6l6.9,0.4c1.5,0.1,2.7,1.4,2.6,3
	l-0.1,2.3C164.9,164.8,163.6,165.9,162,165.9z"/>
<path class="st4" d="M239.1,172.5l-7.7-1.1c-1.6-0.2-2.9-1.7-2.6-3.5l0.5-3.6c0.2-1.6,1.7-2.9,3.5-2.6l7.7,1.1
	c1.6,0.2,2.9,1.7,2.6,3.5l-0.5,3.6C242.3,171.6,240.8,172.8,239.1,172.5z"/>
<path class="st5" d="M161.2,182.8l-2,23.1l25.6,7.8c6.8,2.1,14.1,2.6,21,1.5l26.1-4l1-23.5L161.2,182.8z"/>
<path class="st6" d="M161.2,182.6l-2.4,11.4l35.3,6.5c1.4,0.3,3,0.3,4.4,0.2l35-3.6v-12L161.2,182.6z"/>
<path class="st6" d="M254.6,255.4H130.7c-1.2,0-2.2-0.9-2.2-2.2v-12c0-1.2,0.9-2.2,2.2-2.2h123.9c1.2,0,2.2,0.9,2.2,2.2v12
	C256.8,254.4,255.8,255.4,254.6,255.4z"/>
<path class="st6" d="M122.3,247.2c0,0-21.4,59.8-15.8,65.5c5.5,5.8,60.8,12,65.6,8.3c4.8-3.7,11-69.5,11-69.5L122.3,247.2z"/>
<path class="st7" d="M149.2,272.8l-3.7,0.5c-1.1,0.1-2.2-0.6-2.3-1.7l-6.3-46.3c-0.1-1.1,0.6-2.2,1.7-2.3l3.7-0.5
	c1.1-0.1,2.2,0.6,2.3,1.7l6.3,46.3C151.1,271.6,150.3,272.6,149.2,272.8z"/>
<path class="st7" d="M153.5,273.2L153.5,273.2c-1.1,0-2.1-0.9-2.1-2.1v-36.6c0-1.1,0.9-2.1,2.1-2.1l0,0c1.1,0,2.1,0.9,2.1,2.1v36.6
	C155.5,272.3,154.6,273.2,153.5,273.2z"/>
<path class="st7" d="M159.3,273l-1.6-0.4c-1.1-0.3-1.7-1.3-1.5-2.5l6-25c0.3-1.1,1.3-1.7,2.5-1.5l1.6,0.4c1.1,0.3,1.7,1.3,1.5,2.5
	l-6,25C161.4,272.6,160.3,273.3,159.3,273z"/>
<path class="st5" d="M122.8,251.6c0,0-20.9,57.9-12.7,60.1c8.2,2.2,50.4,10.8,56.1,6.6c5.5-4.2,4.4-62.2,4.4-62.2L122.8,251.6z"/>
<path class="st7" d="M213.1,277.9l9-4.3c0.3-0.1,0.6-0.2,0.9-0.3l23.5-2.5c0.9-0.1,1.7,0.2,2.3,0.8l11.9,8.3
	c0.8,0.8,0.8-3.9,1.9-4.3l0.5-0.4c1.5-0.5,10.2,10,10.7,11.5c1.3,3.4,2.4,8.3,0.8,9.7c-3.6,3.2-7.3,8.9-10.6,8.9
	c-4.4-0.1-14.3-8.2-17.6-10.7c-0.7-0.5-1.7-0.7-2.6-0.4l-9.5,3.1c-0.3,0.1-0.5,0.2-0.7,0.3c-1.6,1-8.2,5.5-8.7,5.7
	c-3,1.2-9.4-3.2-13-5.9c-1.4-1.1-1.5-3.1-0.3-4.3l8.6-8.4c0.2-0.2,0.3-0.3,0.5-0.4l10-5.9l-6.7,1c-0.3,0-0.6,0.1-0.8,0.3
	c-1.6,0.8-7.5,3.8-8.2,3.8c-0.4,0-1.1-0.2-1.8-0.6C210.9,282.1,210.9,278.9,213.1,277.9z"/>
<path class="st1" d="M42.7,198.7c2.7,15.2,14.5,13.5,20.9,13.1c7-0.3,72.5-18.4,90.4-23c10.1-2.5,15.6-3.6,14.6-9.8
	c-0.8-5.6-11.5-6.6-15.7-6.4c-40.4,1.5-49.8,1.5-97,8.5C36.6,184,42,194.8,42.7,198.7z"/>
<path class="st8" d="M138.9,215.1l29-69.4c0.2-0.6,0.3-1.2,0.2-1.8l-2.8-13c-0.2-0.8-0.1-1.5,0.3-2.1l7.2-12.6
	c0.5-0.8,1.4-1.4,2.4-1.5l10.7-1.1c1-0.1,2.1,0.3,2.7,1.1l4,4.8c1.4,1.7,0.6,4.3-1.5,4.9l0,0c-1.1,0.3-2.2,0-3-0.8l-2.1-2.1
	c-0.7-0.6-1.6-1-2.5-0.8l-4.3,0.5c-0.8,0.1-1.6,0.5-2.1,1.2l-5,6.7c-0.5,0.7-0.7,1.5-0.5,2.4l1.8,10c0,0.2,0.1,0.3,0.1,0.5v0.8
	c0.1,2.7,3.5,4,5.3,1.9l2.2-2.4c0.5-0.5,1.1-0.9,1.8-1l3.5-0.5c2.9-0.5,4.6,3,2.7,5.1l-8.2,8.8c-0.5,0.5-0.8,1.2-0.8,1.9l-4.2,68.3
	c-0.1,1.8-1.7,3-3.4,2.8l-0.7-0.1c-1.6-0.2-2.8-1.7-2.7-3.3l4.9-59.8c0.1-0.8-0.2-1.4-0.5-2.1l-0.4-0.5c-1.4-2-4.5-1.6-5.3,0.7
	l-21.5,56.1c-0.7,1.8-2.9,2.5-4.5,1.5l-1.6-1C138.9,218.1,138.3,216.5,138.9,215.1z"/>
<path class="st7" d="M138,196.1c-3.4-5-2.3-19.4,1.3-24.2c1.6-2,9.9-3.2,9.9-3.2l6.7-1.1c1.6-0.3,3.2-1.1,4.3-2.2l6.3-6.1
	c0.4-0.4,1-0.8,1.5-1.1l5.5-3.4c1.8-1.1,3.9-1.4,5.9-1l11,2.1c4.4,0.9,7.3,5,6.6,9.3l-2.7,18.6c-0.4,2.9-2.4,5.4-5.1,6.6l-17.8,7
	c-2,0.8-4.2,0.8-6.1,0l-6.8-2.7c-1.7-0.6-3.6-0.8-5.3-0.3l-9.1,2.5C143.9,197,139.5,198.4,138,196.1z"/>
<path class="st7" d="M155.7,169l10.8-17.5c0.2-0.3,0.4-0.4,0.7-0.7l0,0c1.4-0.8,3,0.3,3,1.9l-0.5,5.8c0,0.5-0.4,1.1-0.8,1.4
	L155.7,169z"/>
</svg>
