<?xml version="1.0" encoding="utf-8"?>
<!-- Generator: Adobe Illustrator 26.0.3, SVG Export Plug-In . SVG Version: 6.00 Build 0)  -->
<svg version="1.1" id="Calque_9" xmlns="http://www.w3.org/2000/svg" xmlns:xlink="http://www.w3.org/1999/xlink" x="0px" y="0px"
	 viewBox="0 0 788 1005" style="enable-background:new 0 0 788 1005;" xml:space="preserve">
<style type="text/css">
	.st0{fill:#90573A;}
	.st1{fill:#6F412A;}
	.st2{fill:#91B7C6;}
	.st3{fill:#C3DFED;}
</style>
<path class="st0" d="M355,349c-4.3,21.5-18,24.7-25.9,30.9c-12.6,9.8-29.3,38.2-39.7,50.2c-4.9,5.7-18.5,17-27.1,9.2l0,0
	c-10.6-10.6-3-23.9,1.3-29.8c8.6-12,28.3-34.5,34.9-47.8c4.9-9.9,7.6-20.7,23.1-29.8c0,0,15.3-10.2,26.3-3
	C354.8,333.6,356.8,340.1,355,349L355,349z"/>
<path class="st0" d="M285.2,424.1c-3.9-14.5-15.2-11.8-21.4-11C257.1,414,195,437.2,178,443c-9.6,3.3-14.8,4.8-13.4,10.7
	c1.3,5.3,11.7,5,15.8,4.9c38.5-0.8,67.6-3.4,93.4-16.5C290.8,433.7,286.2,427.9,285.2,424.1z"/>
<path class="st0" d="M433,354c4.3,21.5,18,24.7,25.9,30.9c12.6,9.8,29.3,38.2,39.7,50.2c4.9,5.7,18.5,17,27.1,9.2l0,0
	c10.7-10.6,3-23.9-1.3-29.8c-8.6-12-28.3-34.5-34.9-47.8c-4.9-9.9-7.6-20.7-23.1-29.8c0,0-15.3-10.2-26.3-3
	C433.2,338.6,431.3,345.1,433,354L433,354z"/>
<path class="st0" d="M502.8,429.1c3.9-14.5,15.2-11.8,21.4-11c6.7,0.9,68.8,24.1,85.8,29.9c9.6,3.3,14.8,4.8,13.4,10.7
	c-1.3,5.3-11.7,5-15.8,4.9c-38.5-0.8-67.5-3.4-93.4-16.5C497.2,438.7,501.8,432.9,502.8,429.1z"/>
<path class="st0" d="M394,419c-5.5-3.6-8-0.6-13.7,2.5c-9.8,5.3-15.8,23.7-26.7,26.2c-3.9,0.9-12.7-15.1-13.7-21.3
	c-1.5-9.3,2.5-27.5-8.4-36.9c-9.2-7.9-21.5-3.7-25.5-16.3c-7-22,13.5-38.5,23.4-42.3c15.2-5.9,37.1-5.1,43.5-14.2l0.9-27.7l0.7-20.2
	l18.3-0.8h2.2l18.3,0.8L414,289l0.9,27.7c6.4,9.1,28.4,8.4,43.5,14.2c10,3.9,30.4,20.4,23.4,42.3c-4,12.6-16.2,8.4-25.5,16.3
	c-10.9,9.3-6.9,27.5-8.4,36.9c-1,6.2-9.9,22.2-13.7,21.3c-10.8-2.5-16.9-20.9-26.7-26.2C402,418.4,399.5,415.4,394,419"/>
<path class="st1" d="M373.5,317c0,0,31.8,11.4,41.2-10.8l-1.3-37.4h-38.8L373.5,317z"/>
<path class="st2" d="M339.7,541c-7.3-1.6-12.4-8.2-12.1-15.7c0.7-16.2,6.4-57.1,6.3-61.6c-0.1-5.1-6.3-74.5-6.3-74.5
	s137.7-8.6,131.4-4.3s-9.1,73.2-9.1,73.2l13.1,62.4c1.7,8-3.1,15.8-11,18l-31.8,8.8c-11.2,3.1-23,3.4-34.3,1L339.7,541z"/>
<path class="st3" d="M263.9,369.3c16.3-11.2,54.6-38,61.6-42.9c0.7-0.5,1.5-0.8,2.4-0.7l135.7,0.8c0.8,0,1.7,0.3,2.4,0.7l60.5,42.1
	c2.6,1.8,2.3,5.8-0.6,7.1c-17.6,8.5-68,31.8-100.4,36c-39.8,5.1-66-1.1-77.4-1.6c-9.4-0.4-64.3-25.5-83.5-34.4
	C261.5,375.1,261.2,371.1,263.9,369.3z"/>
<g>
	<g>
		<g>
			<g>
				<path class="st3" d="M302.3,395l-1.7,5.3c-0.9,1.2-2.1,1.9-3.3,2.3c-3.3,1-3.7,1.1-4.1,2.4c-0.3,0.8-0.1,1.9,1.2,2.4
					c0.6,0.2,1.8-0.2,2-0.9c0.2-0.7-0.1-1.2-0.4-1.3c-0.1,0-0.5-0.1-0.6-0.1c-0.4-0.1-0.3-0.4-0.3-0.5c0.1-0.3,0.5-0.4,1-0.2
					c0.7,0.3,1.5,1.3,1.1,2.4c-0.4,1.3-1.8,1.9-3.1,1.5c-2.4-0.8-1.9-2.9-1.7-3.5c0.2-0.7,0.8-1.4,1.3-1.8c0.1-0.1,0.2-0.2,0.2-0.2
					c0.1-0.2-0.1-0.4-0.3-0.4c-0.4-0.1-4-2.6-2.6-6.6c0.5-1.3,2.1-2.9,4.2-2.2c2.2,0.7,2.4,2.5,2,3.5c-0.3,0.9-1.5,1.7-2.5,1.4
					c-1.2-0.4-1.1-1.5-0.9-1.9c0.1-0.4,0.4-0.7,0.7-0.8c0.3,0,0.5-0.1,0.6-0.2c0-0.1,0.1-0.7-0.6-1c-1.7-0.6-2.6,1.3-2.7,1.8
					c-0.7,1.8,0.6,4.7,2.8,5.5c3,1,5.5-1.3,6.4-4.1c1-3-0.2-4.6-0.5-4.7c-0.2-0.1-1,1-1.2,0.9c-0.3-0.1-0.8-1-0.6-1.7
					c0.5-1.5-0.3-2.5-1-2.7c-0.1,0-0.2,0-0.3,0.2c-0.1,0.2-0.2,1.1-0.2,1.2c-0.5,1.4-1.8,1.6-2.7,1.3c-0.1,0-0.6-0.2-0.6-0.5
					c0-0.1,0.6-0.3,0.7-0.4c0-0.1,0-0.2-0.1-0.3c0,0-0.6-0.1-0.7-0.1c-0.8-0.3-0.9-1-0.8-1.2c0.2-0.5,0.6-0.6,1-0.4
					c0.1,0,0.2,0.1,0.3,0.2c0.5,0.4,0.6,0.9,1.1,1.1c0.7,0.2,1.1-0.3,1.3-1c0.3-0.9-0.9-1.8-2.4-2.4c-1.7-0.6-5.2-0.4-5.5,0.3
					c0,0.1,0,0.3,0,0.5c0,0.7-0.5,4.3-0.3,4.4c0.3,0.1,1.6-1.7,1.9-1.6s0.1,1.2-0.3,2.2c-1.2,3.3-5,7.4-5.7,7.9
					c-0.1,0.1-0.2,0.2-0.3,0.3c-0.1,0.2,0,0.4,0.2,0.5c0.1,0,3.6,0,3.8-0.7c0.4-1.1,0.4-1.2,0.8-1c0.3,0.1,0.5,0.3,0.5,0.5
					c0.1,0.6-0.8,1.7-0.1,5c0,0.2,0,0.3,0,0.5c-0.1,0.3-0.5,0.5-0.9,0.4c-0.3-0.1-0.5-0.4-0.5-0.9c0.1-1.1,0.2-2.4-0.1-2.4
					c-0.2-0.1-1.8,2.3-2.2,2.2c-0.2-0.1-0.3-0.4-0.2-0.7c0.2-0.5,0.9-1.2,1.1-1.5c0.1-0.2,0-0.3-0.1-0.3c-0.3-0.1-1.7,0.1-3.5,0.3
					c-1.5,0.2-2.7,0.6-4.3,0c-2.5-1-3.6-3.4-2.3-6.7c0.4-1,1-2,1.7-3c0.4-0.6,2.7-3.1,3-3.7c0.1-0.3,0.1-0.4-0.1-0.5
					s-0.9-0.1-1.6-0.3l0,0l0,0c-0.6-0.3-1.2-0.8-1.3-0.9c-0.2-0.1-0.3,0-0.4,0.3c-0.3,0.6-0.4,4-0.5,4.8c-0.2,1.2-0.5,2.3-0.9,3.3
					c-1.3,3.2-3.8,4.2-6.3,3.2c-1.6-0.7-2.2-1.9-3.1-3c-1.2-1.5-2-2.6-2.3-2.7c-0.1-0.1-0.3,0-0.3,0.2c-0.2,0.4-0.1,1.3-0.3,1.8
					c-0.2,0.3-0.4,0.5-0.6,0.4c-0.4-0.2,0-2.6-0.2-2.7c-0.3-0.1-2.2,1.5-2.6,1.3c-0.3-0.1-0.3-1.7-0.1-2.2c0.2-0.3,1.1-0.5,1.9-0.3
					c0.2,0,0.6-0.6,0.7-0.8c0.2-0.5,0.3-0.8,0.4-0.9c0.1-0.2,0.3-0.5,1-0.2c0.5,0.2,0.6,0.5,0.4,0.9c-0.1,0.1-0.2,0.2-0.2,0.4
					c-0.3,0.7,2.2,3.2,2.2,3.2c0.2,0.1,0.4,0,0.5-0.2c0.1-0.1,0.1-0.3,0-0.4c-0.2-0.9,0-6.4,1.5-9.6c0.5-1,1.1-1.9,1.4-1.8
					c0.2,0.1,0.1,1.9,0.4,2c0.1,0,0.2,0,0.3-0.2c0.4-0.5,2.7-3.1,2.7-3.1c0.3-0.7-2.1-3.3-3.7-4c-1.4-0.7-3-0.8-3.4,0
					c-0.3,0.7-0.6,1.7,0.1,2c0.5,0.2,0.9-0.2,1.5,0c0.1,0,0.3,0.1,0.4,0.1c0.4,0.2,0.6,0.6,0.4,1c-0.1,0.2-0.6,0.7-1.4,0.3
					c-0.1,0-0.6-0.4-0.6-0.4c-0.1-0.1-0.2,0-0.3,0.1c-0.1,0.1,0.2,0.7,0.2,0.8c-0.1,0.2-0.6,0-0.7-0.1c-1.2-0.6-1.4-1.8-0.8-3.1
					c0.1-0.2,0.6-0.9,0.7-1.1c0.1-0.1,0-0.2-0.1-0.3c-0.2-0.1-1.4-0.1-1.6,0c-0.3,0.1-0.7,0.7-0.9,1.2c-0.4,0.8-1.5,1-1.7,0.9
					c-0.1-0.1-0.2-0.2-0.1-0.3c0,0,0.4-0.5,0.4-0.6c0.1-0.1,0.4-0.9,0-1c-0.8-0.4-3.2,1.3-4.3,3.3c-1.6,2.9-1.2,6.1,1.7,7.6
					c2.2,1.1,4.8,0.2,5.6-1.6c0.3-0.6,0.8-2.4-0.6-3.1c-0.5-0.2-0.8-0.1-1,0.1c-0.1,0.2-0.1,0.4,0,0.7c0.1,0.3,0,0.7-0.1,1.1
					c-0.1,0.2-0.8,1.2-2,0.6c-1-0.5-1.2-1.9-0.8-2.7c0.5-0.9,1.9-2,3.9-1s2,3.3,1.4,4.5c-1.9,4-6.2,2.6-6.4,2.5
					c-0.2-0.1-0.5-0.1-0.6,0.1c0,0.1,0,0.2,0,0.3c0.1,0.6,0,1.6-0.4,2.2c-0.3,0.5-1.4,2.3-3.8,1.2c-1.3-0.7-2-2-1.3-3.2
					c0.6-1,1.9-1.2,2.6-0.8c0.5,0.3,0.7,0.7,0.6,0.9c0,0.1-0.2,0.3-0.6,0.1c-0.1,0-0.4-0.3-0.5-0.4c-0.3-0.2-0.9,0-1.3,0.6
					c-0.4,0.8,0.3,1.7,0.9,2c1.3,0.7,2.2,0,2.6-0.8c0.6-1.2,0.4-1.5-1.2-4.7c-0.6-1.2-0.9-2.5-0.7-4l2.7-4.8
					c1.5-1.4,3.3-2.1,4.4-2.4c0.2-0.1,0.3-0.1,0.4-0.2s0-0.2-0.2-0.3c-0.1-0.1-0.8-0.4-0.9-0.4c-0.5-0.2-0.8-0.4-1-0.6
					c-0.1-0.2-0.1-0.4,0-0.7c0.1-0.1,0.6-0.3,0.7-0.4s0-0.3,0-0.6c0-0.1,0-0.2,0-0.4l1.3-2.3c0.2-0.1,0.3-0.2,0.5-0.3
					c0.2-0.1,0.4-0.1,0.6-0.1c0.4,0,0.8,0,1.1,0.2c0.5,0.2,0.8,0.8,0.9,1.2c0,0.2,0.1,0.3,0.3,0.3c0.1,0.1,0.2,0.1,0.3,0
					c0.3-0.3,0.7-0.4,1.1-0.2c0.4,0.2,1.7,2.7,1.3,3.7c-0.2,0.4-0.5,0.4-0.8,0.3c-0.2-0.1-0.4-0.3-0.4-0.6c0-0.4-0.3-1.4-0.6-1.6
					c-0.2-0.1-0.4,0-0.9,0.9c-0.1,0.1-0.2,0.1-0.3,0c0,0-0.4-0.2-0.7-0.9c-0.2-0.5-0.4-1.6-0.9-1.9c-0.7-0.3-1.4-0.2-1.9,0.6
					c-0.5,0.9,0.3,1.9,1.5,2.8c1.1,0.9,2.5,1.5,2.8,1.7c0.5,0.2,2.9,0.9,3.4,1.1c0.1,0.1,0.2,0.1,0.2,0c0,0,0-0.1,0-0.3
					c-0.1-0.4-0.4-1,0.1-2s1.7-1.7,3.3-1c1.9,0.9,2.3,2.4,1.8,3.6c-0.3,0.7-1,1.2-1.9,0.7c-1-0.4-1.1-1.1-0.9-1.6
					c0.1-0.2,0.2-0.3,0.4-0.3c0.3,0,0.5-0.1,0.5-0.2c0.1-0.2-0.2-0.5-0.7-0.8c-0.6-0.3-1,0-1.3,0.5c-0.8,1.7,1.6,4.1,2.8,4.6
					c0.2,0.1,0.5,0.1,0.8-0.1c2.8-1.9,6.8-3,8.5-2.3l0,0l0,0c1.2,0.5,3.6,3.9,4.4,7.6c0.1,0.4,0.3,0.5,0.5,0.6s4.1,0.9,4.8-1.1
					c0.2-0.6-0.2-1.6-0.8-1.8c-0.4-0.1-0.8,0-0.9,0.2c0,0.1,0,0.3,0.2,0.5c0.1,0.1,0.2,0.3,0.1,0.6c-0.1,0.3-0.5,0.5-1.1,0.3
					c-1.1-0.4-1-1.5-0.8-2.1c0.1-0.2,0.7-1.8,3.1-0.9c1.3,0.5,2,2.2,1.5,3.4c-0.2,0.6-0.6,1-0.9,1.3c-0.1,0.1-0.2,0.1-0.2,0.2
					s0,0.1,0.2,0.1c1.7,0.6,1.7,0.6,2.6,1.2c0.3,0.2,1.4,1.1,1.7,1.1c0.3,0.1,1.4,0.5,1.7,0.5c2.6,0.4,3.8-0.9,3.9-1.4
					c0.3-0.9-0.3-1.7-1.1-1.9c-0.6-0.2-1.4,0.3-1.7,0.4c-0.3,0.1-1.5,0.7-1.8,0.6s-0.2-0.9-0.5-1c-0.2-0.1-1.4,0.4-1.7,0.4
					c-0.4,0.1-0.7,0.1-0.9,0c-0.2-0.1-0.2-0.1-0.2-0.3c0.3-0.7,3.6-2.4,4.2-2.2c0.4,0.1,0.6,0.5,0.6,0.9c0,0.1,0.1,0.2,0.2,0.2
					s0.3,0,0.4,0c0.3-0.2,1-0.3,1.5-0.2c0.7,0.2,1.4,1,1.7,1.8l-0.8,2.6c-0.1,0.1-0.2,0.1-0.3,0.2c-0.4,0.2-0.6,0.3-0.7,0.4
					c0,0.1,0.1,0.2,0.2,0.3c0.1,0.1,0.2,0.3,0.1,0.5s-0.3,0.4-0.5,0.3c-0.4-0.1-2.4-0.7-2.5-0.4c0,0.1,0,0.2,0.1,0.4
					C301.4,391.2,302.2,392.9,302.3,395z M275,383.7c-1.2-0.5-4.5,3.5-5.4,5.5c-1.2,2.7-1.3,6.3-0.4,6.7c0,0,0.1,0,0.1-0.1
					s0-0.2,0-0.4c0-0.3-0.2-2.3,0.9-4.7c1.3-2.9,2.6-2.6,3.1-2.4c1.1,0.5,1.3,1.8,1,2.4c-0.3,0.8-1.3,1.2-1.7,1.3
					c-0.6,0.2-1,0.4-1.3,1.1c-0.2,0.4-0.4,0.8-0.6,1.2c-0.9,2.1,0.5,3.7,1,3.9c0.9,0.4,2.8-0.4,3.9-3
					C277.4,390.8,276.3,384.2,275,383.7z M282.1,387.7c0.1,0.1,0.1,0.2,0.2,0.3c0.4,0.1,2.9-0.7,3.4-2s-1.2-3.6-3.1-5.3l0,0
					c-1.9-0.3-5.4,0.4-5.9,1.6s0.7,3.6,1,3.7c0.1,0,0.3,0,0.4,0c0.7-0.3,1.5-0.3,2.3,0l0,0l0,0C281.3,386.4,281.9,387,282.1,387.7z
					 M286,388.2c-1.3-0.5-6.7,3.5-8.5,7.9c-1.2,3,0,4.6,0.9,5c1.8,0.7,3-1.6,3.3-2.4c0.2-0.5,0.3-1,0.3-1.4c0.1-0.8-0.1-1.5-0.4-2
					c-0.5-0.9-0.3-1.7-0.2-1.9c0.3-0.8,2.1-1.1,2.6-0.9c1.3,0.5,1,2.5,0.5,3.9c-0.9,2.5-2.4,3.8-2.6,4c-0.1,0.1-0.2,0.2-0.2,0.3
					c0,0.1,0,0.1,0,0.2c0.8,0.3,3.3-2.3,4.3-5.1C286.8,393.8,287.2,388.6,286,388.2z"/>
			</g>
			<g>
				<path class="st3" d="M348.1,406.1l-0.9,5.5c-0.7,1.3-1.8,2.1-2.9,2.7c-3.1,1.6-3.5,1.7-3.7,3c-0.2,0.8,0.2,1.9,1.6,2.1
					c0.7,0.1,1.7-0.5,1.9-1.2c0.1-0.7-0.3-1.2-0.6-1.2c-0.1,0-0.5,0-0.6,0c-0.4-0.1-0.4-0.4-0.4-0.5c0.1-0.3,0.4-0.5,1-0.4
					c0.8,0.1,1.6,1,1.5,2.2c-0.2,1.3-1.5,2.1-2.9,1.9c-2.5-0.4-2.3-2.6-2.2-3.2c0.1-0.7,0.5-1.5,1-2c0.1-0.1,0.2-0.2,0.2-0.3
					c0-0.2-0.1-0.3-0.4-0.4c-0.4-0.1-4.4-2-3.5-6.2c0.3-1.3,1.6-3.2,3.8-2.8c2.2,0.5,2.7,2.1,2.5,3.1s-1.2,1.9-2.2,1.8
					c-1.2-0.2-1.3-1.4-1.2-1.8c0.1-0.4,0.3-0.8,0.6-0.8c0.3,0,0.5-0.1,0.6-0.3c0-0.1,0-0.7-0.8-0.9c-1.8-0.4-2.4,1.6-2.5,2.1
					c-0.4,1.9,1.2,4.6,3.6,5.1c3.1,0.5,5.2-2.1,5.7-5.1c0.5-3.1-0.9-4.6-1.2-4.6c-0.2,0-0.8,1.1-1,1.1c-0.3-0.1-1-0.9-0.8-1.6
					c0.3-1.5-0.7-2.4-1.4-2.5c-0.1,0-0.2,0-0.2,0.2s0,1.1-0.1,1.3c-0.3,1.4-1.6,1.8-2.4,1.6c-0.1,0-0.7-0.2-0.6-0.4
					c0-0.1,0.6-0.4,0.6-0.5s0-0.2-0.1-0.2c0,0-0.6,0-0.7,0c-0.9-0.2-1-0.8-1-1.1c0.1-0.5,0.5-0.7,1-0.6c0.1,0,0.2,0.1,0.4,0.1
					c0.6,0.3,0.7,0.9,1.2,1c0.7,0.1,1-0.4,1.2-1.2c0.2-0.9-1.2-1.7-2.7-2c-1.7-0.3-5.2,0.4-5.4,1.1c0,0.1,0,0.3,0,0.5
					c0.1,0.7,0.2,4.4,0.3,4.4c0.4,0.1,1.3-1.9,1.6-1.9c0.3,0.1,0.3,1.1,0.1,2.2c-0.7,3.4-3.9,8-4.5,8.6c-0.1,0.1-0.2,0.3-0.2,0.4
					c0,0.2,0.1,0.4,0.3,0.4c0.1,0,3.5-0.6,3.7-1.3c0.2-1.1,0.2-1.2,0.7-1.1c0.3,0.1,0.5,0.2,0.6,0.4c0.1,0.6-0.6,1.8,0.6,5
					c0.1,0.2,0.1,0.3,0.1,0.5c-0.1,0.4-0.5,0.5-0.8,0.5c-0.3-0.1-0.6-0.3-0.6-0.8c-0.1-1.1-0.2-2.3-0.4-2.4c-0.2,0-1.4,2.6-1.9,2.5
					c-0.2,0-0.3-0.3-0.2-0.7c0.1-0.6,0.8-1.3,0.8-1.7c0-0.2,0-0.3-0.2-0.3c-0.3-0.1-1.7,0.3-3.5,0.8c-1.4,0.4-2.6,1-4.3,0.6
					c-2.6-0.6-4.1-2.9-3.2-6.2c0.3-1,0.7-2.1,1.2-3.2c0.3-0.7,2.2-3.5,2.4-4.2c0.1-0.3,0-0.4-0.2-0.5c-0.2,0-0.9,0.1-1.6-0.1l0,0
					l0,0c-0.7-0.2-1.3-0.6-1.5-0.7c-0.2,0-0.3,0.1-0.4,0.3c-0.2,0.7,0.2,4,0.2,4.8c0,1.2-0.1,2.4-0.4,3.4c-0.8,3.4-3.1,4.7-5.7,4
					c-1.7-0.4-2.4-1.5-3.5-2.5c-1.4-1.2-2.4-2.2-2.7-2.3c-0.1,0-0.2,0-0.3,0.2c-0.1,0.4,0.1,1.3,0,1.9c-0.1,0.4-0.4,0.5-0.5,0.5
					c-0.4-0.1-0.4-2.6-0.6-2.7c-0.3-0.1-1.9,1.8-2.3,1.7c-0.3-0.1-0.6-1.7-0.4-2.2c0.1-0.3,1-0.6,1.8-0.6c0.2,0,0.5-0.7,0.5-0.9
					c0.2-0.5,0.2-0.8,0.2-1c0.1-0.2,0.2-0.5,0.9-0.3c0.5,0.1,0.7,0.4,0.6,0.8c0,0.1-0.1,0.2-0.2,0.4c-0.2,0.7,2.6,2.8,2.7,2.8
					c0.2,0.1,0.4-0.1,0.5-0.3c0-0.1,0-0.3,0-0.4c-0.3-0.8-1-6.3,0-9.7c0.3-1.1,0.8-2.1,1.1-2c0.3,0.1,0.4,1.9,0.7,2
					c0.1,0,0.2-0.1,0.3-0.3c0.3-0.6,2.2-3.5,2.2-3.5c0.2-0.7-2.6-2.9-4.3-3.4c-1.5-0.4-3.1-0.3-3.3,0.6c-0.2,0.7-0.3,1.7,0.4,1.9
					c0.5,0.1,0.9-0.3,1.5-0.3c0.1,0,0.3,0,0.4,0.1c0.5,0.1,0.7,0.5,0.6,1c-0.1,0.2-0.5,0.7-1.4,0.5c-0.1,0-0.6-0.3-0.7-0.3
					s-0.2,0-0.2,0.1s0.3,0.6,0.3,0.7c-0.1,0.2-0.6,0.1-0.7,0.1c-1.3-0.4-1.7-1.6-1.3-2.9c0.1-0.2,0.5-1,0.5-1.2s0-0.2-0.1-0.3
					c-0.2-0.1-1.4,0.1-1.6,0.2c-0.3,0.1-0.6,0.8-0.7,1.3c-0.3,0.9-1.3,1.2-1.5,1.2c-0.1,0-0.2-0.1-0.1-0.3c0,0,0.3-0.5,0.3-0.6
					s0.2-0.9-0.2-1c-0.9-0.3-2.9,1.9-3.6,4c-1,3.1-0.1,6.2,2.9,7.2c2.3,0.7,4.7-0.6,5.2-2.5c0.2-0.6,0.4-2.5-1.1-3
					c-0.5-0.2-0.8,0-0.9,0.3c-0.1,0.2,0,0.4,0.1,0.7c0.1,0.3,0.2,0.7,0.1,1.1c-0.1,0.2-0.6,1.3-1.8,0.9c-1-0.3-1.5-1.6-1.2-2.6
					s1.5-2.3,3.7-1.6c2.2,0.6,2.5,2.9,2.1,4.2c-1.2,4.3-5.7,3.6-5.8,3.5c-0.3-0.1-0.5,0-0.5,0.2c0,0.1,0,0.2,0,0.3
					c0.2,0.6,0.2,1.5,0,2.2c-0.2,0.6-1,2.6-3.4,1.8c-1.3-0.4-2.2-1.6-1.7-2.8c0.4-1.1,1.6-1.5,2.3-1.3c0.5,0.2,0.8,0.5,0.7,0.8
					c0,0.1-0.1,0.4-0.5,0.2c-0.1,0-0.4-0.2-0.5-0.3c-0.3-0.1-0.9,0.1-1.1,0.8c-0.3,0.8,0.5,1.6,1.1,1.8c1.3,0.4,2.1-0.4,2.4-1.2
					c0.4-1.3,0.1-1.6-1.9-4.4c-0.8-1-1.3-2.3-1.4-3.7l1.7-5.3c1.3-1.7,2.9-2.7,4-3.1c0.2-0.1,0.3-0.2,0.3-0.3c0-0.1-0.1-0.2-0.3-0.3
					c-0.1,0-0.9-0.2-1-0.3c-1-0.3-1.5-0.5-1.3-1.1c0-0.1,0.7-0.4,0.7-0.5s0-0.3-0.1-0.6c-0.1-0.1-0.1-0.3-0.2-0.4l0.8-2.5
					c0.7-0.5,1.8-0.7,2.5-0.5c0.5,0.2,1,0.7,1.1,1c0.1,0.2,0.2,0.3,0.3,0.3c0.1,0,0.3,0,0.3-0.1c0.3-0.3,0.6-0.5,1-0.4
					c0.4,0.2,2.2,2.4,1.9,3.4c-0.1,0.4-0.5,0.5-0.7,0.4s-0.5-0.3-0.5-0.6c0-0.4-0.5-1.3-0.9-1.5c-0.2-0.1-0.4,0.1-0.8,1
					c-0.1,0.1-0.1,0.1-0.3,0.1c0,0-0.5-0.1-0.9-0.8c-0.3-0.4-0.8-1.5-1.3-1.7c-0.8-0.2-1.6,0-1.9,0.9c-0.6,1.9,4.6,3.6,5.2,3.8
					c0.5,0.1,3.1,0.4,3.6,0.6c0.1,0,0.2,0,0.2,0s0-0.1-0.1-0.3c-0.2-0.4-0.6-0.9-0.3-1.9c0.3-1,1.5-2,3.1-1.5c2,0.6,2.7,2,2.4,3.3
					c-0.2,0.7-0.8,1.3-1.8,1s-1.2-1-1.1-1.4c0.1-0.2,0.2-0.3,0.3-0.4c0.3-0.1,0.5-0.1,0.5-0.2c0.1-0.2-0.3-0.5-0.8-0.6
					c-0.6-0.2-1,0.2-1.2,0.7c-0.5,1.8,2.3,3.8,3.5,4.1c0.3,0.1,0.5,0,0.8-0.2c2.5-2.3,6.3-4,8-3.6l0,0l0,0c1.3,0.3,4.2,3.3,5.5,6.9
					c0.1,0.3,0.3,0.5,0.6,0.5c0.2,0.1,4.2,0.2,4.6-1.8c0.1-0.6-0.4-1.5-1.1-1.7c-0.4-0.1-0.8,0.1-0.8,0.3c0,0.1,0,0.3,0.2,0.4
					c0.1,0.1,0.2,0.3,0.2,0.5c-0.1,0.3-0.4,0.6-1,0.5c-1.1-0.2-1.2-1.4-1.1-1.9c0-0.2,0.4-1.9,3-1.4c1.3,0.3,2.3,1.8,2,3.1
					c-0.1,0.6-0.4,1.1-0.7,1.4c-0.1,0.1-0.1,0.2-0.1,0.2c0,0.1,0.1,0.1,0.2,0.1c1.7,0.3,1.8,0.4,2.7,0.8c0.3,0.1,1.6,0.9,1.9,0.9
					s1.5,0.3,1.7,0.2c2.6-0.1,3.6-1.4,3.7-2c0.2-1-0.6-1.6-1.4-1.7c-0.6-0.1-1.4,0.5-1.6,0.7c-0.3,0.1-1.4,0.9-1.7,0.9
					c-0.3-0.1-0.4-0.9-0.7-0.9c-0.3-0.1-1.4,0.5-1.6,0.6c-0.4,0.1-0.7,0.1-0.9,0.1c-0.2,0-0.2-0.1-0.2-0.2c0.2-0.7,3.2-2.9,3.8-2.7
					c0.4,0.1,0.7,0.4,0.8,0.8c0,0.1,0.1,0.2,0.3,0.2c0.1,0,0.3,0,0.4-0.1c0.3-0.2,0.9-0.5,1.5-0.4c0.7,0.1,1.6,0.8,2,1.6l-0.4,2.7
					c-0.1,0.1-0.2,0.2-0.3,0.2c-0.4,0.2-0.6,0.4-0.6,0.5s0.1,0.2,0.3,0.3c0.2,0.1,0.2,0.2,0.2,0.5c0,0.2-0.2,0.4-0.4,0.4
					c-0.4-0.1-2.4-0.4-2.5,0c0,0.1,0,0.2,0.2,0.3C346.8,402.4,347.8,404.1,348.1,406.1z M319.5,398.9c-1.2-0.3-3.9,4.2-4.5,6.3
					c-0.8,2.9-0.3,6.4,0.6,6.6c0,0,0.1,0,0.1-0.1s0-0.2,0-0.4c-0.1-0.3-0.5-2.2,0.2-4.8c0.8-3,2.2-3,2.8-2.8
					c1.2,0.3,1.5,1.6,1.3,2.3c-0.2,0.9-1.1,1.3-1.5,1.5c-0.6,0.3-0.9,0.6-1.2,1.3c-0.1,0.4-0.3,0.9-0.4,1.3c-0.6,2.3,1,3.6,1.5,3.7
					c0.9,0.2,2.7-0.8,3.4-3.6C322.9,405.6,320.8,399.2,319.5,398.9z M327.1,401.8c0.1,0.1,0.2,0.2,0.3,0.3c0.4,0.1,2.8-1.1,3.1-2.4
					c0.3-1.3-1.7-3.4-3.9-4.8l0,0c-2,0-5.3,1.1-5.6,2.5c-0.3,1.3,1.2,3.5,1.6,3.6c0.1,0,0.3,0,0.4-0.1c0.6-0.4,1.4-0.5,2.3-0.3l0,0
					l0,0C326.1,400.7,326.8,401.2,327.1,401.8z M331.1,401.7c-1.3-0.3-6.1,4.4-7.3,9.1c-0.7,3.1,0.7,4.6,1.7,4.8
					c1.8,0.4,2.7-2,2.9-2.8c0.1-0.5,0.1-1,0.1-1.4c-0.1-0.8-0.3-1.4-0.7-1.9c-0.6-0.8-0.6-1.7-0.5-1.8c0.2-0.9,1.9-1.3,2.4-1.2
					c1.4,0.3,1.4,2.3,1,3.8c-0.6,2.6-1.8,4.1-2,4.3c-0.1,0.1-0.2,0.2-0.2,0.3c0,0.1,0,0.1,0.1,0.1c0.9,0.2,2.9-2.7,3.5-5.6
					C332.6,407.2,332.3,402,331.1,401.7z"/>
			</g>
			<g>
				<path class="st3" d="M395.1,410.3l-0.1,5.6c-0.5,1.4-1.4,2.4-2.5,3.1c-2.9,2-3.2,2.2-3.2,3.5c0,0.8,0.5,1.9,1.9,1.9
					c0.7,0,1.6-0.7,1.6-1.5c0-0.7-0.5-1.1-0.8-1.1c-0.1,0-0.5,0.1-0.6,0.1c-0.4,0-0.4-0.3-0.4-0.4c0-0.3,0.4-0.5,0.9-0.5
					c0.8,0,1.8,0.8,1.8,2c0,1.4-1.2,2.3-2.6,2.3c-2.5-0.1-2.7-2.2-2.7-2.8c0-0.7,0.3-1.6,0.7-2.1c0.1-0.1,0.1-0.2,0.1-0.3
					c0-0.2-0.2-0.3-0.5-0.3c-0.4,0-4.6-1.3-4.4-5.5c0.1-1.3,1.1-3.4,3.4-3.4c2.3,0.1,3,1.7,3,2.7s-0.9,2.1-1.9,2
					c-1.3,0-1.5-1.1-1.5-1.6c0-0.4,0.2-0.8,0.4-0.9c0.3-0.1,0.5-0.2,0.5-0.4c0-0.1-0.1-0.7-0.9-0.7c-1.8-0.1-2.1,2-2.1,2.5
					c-0.1,1.9,1.9,4.3,4.3,4.4c3.2,0.1,4.9-2.8,4.9-5.8c0-3.1-1.6-4.4-1.9-4.4c-0.2,0-0.6,1.2-0.8,1.2c-0.3,0-1.1-0.7-1.1-1.5
					c0-1.6-1.1-2.3-1.7-2.3c-0.1,0-0.2,0.1-0.2,0.2c0,0.2,0.1,1.1,0.1,1.3c0,1.5-1.3,2-2.2,2c-0.1,0-0.7,0-0.7-0.3
					c0-0.1,0.5-0.5,0.5-0.6s-0.1-0.2-0.2-0.2c0,0-0.6,0.1-0.7,0.1c-0.9,0-1.1-0.7-1.1-0.9c0-0.5,0.4-0.7,0.9-0.7
					c0.1,0,0.2,0,0.4,0.1c0.6,0.2,0.8,0.7,1.3,0.7c0.7,0,1-0.6,1-1.4c0-0.9-1.4-1.5-3-1.6c-1.8,0-5.1,1.1-5.2,1.8
					c0,0.1,0,0.3,0.1,0.5c0.2,0.7,0.8,4.3,1,4.3c0.4,0,1-2.1,1.3-2.1s0.5,1.1,0.4,2.2c-0.2,3.5-2.6,8.5-3.1,9.2
					c-0.1,0.1-0.2,0.3-0.2,0.4c0,0.2,0.1,0.4,0.4,0.4c0.1,0,3.4-1,3.4-1.8c0.1-1.1,0.1-1.2,0.5-1.2c0.3,0,0.6,0.1,0.7,0.3
					c0.2,0.6-0.3,1.9,1.4,4.8c0.1,0.2,0.1,0.3,0.1,0.4c0,0.4-0.4,0.6-0.7,0.6c-0.3,0-0.6-0.2-0.7-0.7c-0.2-1.1-0.5-2.3-0.8-2.3
					c-0.2,0-1,2.8-1.5,2.8c-0.2,0-0.4-0.3-0.3-0.6c0-0.6,0.6-1.4,0.6-1.8c0-0.2-0.1-0.3-0.2-0.3c-0.3,0-1.6,0.5-3.3,1.3
					c-1.4,0.6-2.4,1.4-4.1,1.3c-1.3-0.1-2.5-0.6-3.2-1.6s-1.1-2.4-0.9-4.1c0.1-1.1,0.4-2.2,0.7-3.3c0.2-0.7,1.7-3.8,1.7-4.5
					c0-0.3-0.1-0.4-0.3-0.4c-0.2,0-0.9,0.2-1.6,0.1l0,0l0,0c-0.7-0.1-1.4-0.4-1.5-0.4c-0.2,0-0.3,0.1-0.3,0.4
					c-0.1,0.7,0.8,4,0.9,4.7c0.2,1.2,0.2,2.4,0.1,3.4c-0.3,3.5-2.4,5.1-5.1,4.8c-1.7-0.2-2.6-1.1-3.9-1.9c-1.5-1-2.7-1.9-3-1.9
					c-0.1,0-0.2,0.1-0.3,0.3c-0.1,0.4,0.3,1.3,0.2,1.8c0,0.4-0.3,0.6-0.5,0.5c-0.4-0.1-0.8-2.5-1-2.6c-0.3,0-1.6,2.1-2,2
					c-0.3,0-0.8-1.6-0.8-2.1c0.1-0.4,0.9-0.8,1.7-0.8c0.2,0,0.4-0.7,0.4-1c0.1-0.5,0.1-0.8,0.1-1s0.1-0.6,0.9-0.5
					c0.5,0.1,0.7,0.3,0.7,0.7c0,0.1-0.1,0.3-0.1,0.4c-0.1,0.7,3,2.4,3,2.4c0.2,0,0.4-0.1,0.4-0.3c0-0.1,0-0.3-0.1-0.4
					c-0.4-0.8-1.9-6.1-1.5-9.6c0.1-1.1,0.5-2.1,0.8-2.1s0.6,1.8,0.9,1.8c0.1,0,0.2-0.1,0.3-0.3c0.2-0.6,1.6-3.8,1.6-3.8
					c0.1-0.7-3-2.5-4.7-2.8c-1.6-0.2-3.1,0.1-3.2,1c-0.1,0.7,0,1.8,0.7,1.9c0.5,0.1,0.8-0.4,1.5-0.5c0.1,0,0.3,0,0.4,0
					c0.5,0.1,0.8,0.4,0.7,0.9c0,0.2-0.4,0.8-1.3,0.7c-0.1,0-0.7-0.2-0.7-0.2c-0.1,0-0.2,0.1-0.2,0.2s0.4,0.6,0.4,0.7
					c0,0.2-0.6,0.2-0.7,0.2c-1.3-0.2-1.9-1.3-1.7-2.7c0-0.2,0.3-1.1,0.4-1.3c0-0.2,0-0.2-0.2-0.3c-0.2,0-1.4,0.3-1.5,0.5
					c-0.3,0.2-0.4,0.9-0.5,1.4c-0.1,0.9-1.1,1.4-1.3,1.4c-0.1,0-0.2-0.1-0.2-0.2c0,0,0.2-0.6,0.2-0.7c0-0.2,0.1-0.9-0.3-1
					c-0.9-0.2-2.6,2.2-3,4.5c-0.5,3.2,0.8,6.2,4,6.7c2.4,0.3,4.6-1.3,4.8-3.3c0.1-0.6,0.1-2.6-1.5-2.8c-0.6-0.1-0.8,0.1-0.9,0.4
					c0,0.2,0,0.4,0.2,0.7c0.2,0.3,0.3,0.7,0.2,1.1c0,0.2-0.4,1.3-1.7,1.2c-1.1-0.1-1.7-1.4-1.6-2.3c0.2-1,1.1-2.5,3.4-2.2
					s2.9,2.6,2.7,3.9c-0.6,4.4-5.1,4.4-5.3,4.3c-0.3,0-0.5,0.1-0.5,0.2s0,0.2,0.1,0.3c0.3,0.6,0.4,1.5,0.3,2.2
					c-0.1,0.6-0.6,2.7-3.1,2.3c-1.3-0.2-2.4-1.2-2.1-2.6c0.2-1.2,1.3-1.7,2.1-1.6c0.5,0.1,0.8,0.4,0.8,0.7c0,0.1-0.1,0.4-0.5,0.3
					c-0.1,0-0.5-0.2-0.6-0.2c-0.3-0.1-0.9,0.2-1,0.9c-0.1,0.8,0.7,1.5,1.4,1.6c1.4,0.2,2.1-0.7,2.2-1.6c0.2-1.3-0.1-1.5-2.5-4
					c-0.9-0.9-1.6-2.1-1.9-3.5l0.9-5.5c1-1.8,2.5-3,3.5-3.7c0.2-0.1,0.3-0.2,0.3-0.3c0-0.1-0.1-0.2-0.3-0.3c-0.1,0-0.9-0.1-1.1-0.1
					c-1.1-0.2-1.6-0.3-1.5-0.9c0-0.1,0.6-0.4,0.7-0.6c0-0.1,0-0.3-0.2-0.6c-0.1-0.1-0.2-0.2-0.2-0.4l0.4-2.6c0.7-0.6,1.6-1,2.4-0.8
					c0.6,0.1,1.1,0.6,1.3,0.9c0.1,0.1,0.2,0.2,0.4,0.2c0.1,0,0.3,0,0.3-0.1c0.2-0.4,0.6-0.6,1-0.5s2.5,2.1,2.4,3.1
					c-0.1,0.4-0.4,0.5-0.6,0.5c-0.3,0-0.5-0.2-0.6-0.5c-0.1-0.4-0.7-1.3-1.1-1.3c-0.3,0-0.4,0.2-0.6,1.1c0,0.1-0.1,0.1-0.3,0.1
					c0,0-0.5-0.1-1-0.7c-0.3-0.4-1-1.4-1.5-1.5c-0.8-0.1-1.5,0.2-1.7,1.2s1.1,1.7,2.5,2.2s2.9,0.7,3.2,0.7c0.5,0.1,3.1,0,3.7,0
					c0.1,0,0.2,0,0.2-0.1s0-0.1-0.1-0.3c-0.2-0.4-0.7-0.8-0.6-1.9s1.1-2.2,2.9-1.9c2.1,0.3,3,1.6,2.8,2.9c-0.1,0.7-0.6,1.4-1.6,1.3
					c-1.1-0.1-1.4-0.8-1.3-1.3c0-0.2,0.1-0.4,0.3-0.4c0.3-0.1,0.4-0.2,0.4-0.3c0-0.2-0.3-0.4-0.9-0.5s-1,0.3-1.1,0.9
					c-0.2,1.8,2.8,3.5,4,3.6c0.3,0,0.5,0,0.7-0.3c2.2-2.7,5.6-4.9,7.4-4.7l0,0l0,0c1.3,0.2,4.6,2.7,6.5,5.9c0.2,0.3,0.4,0.4,0.7,0.4
					c0.2,0,4.2-0.3,4.3-2.4c0-0.6-0.6-1.5-1.3-1.5c-0.4,0-0.7,0.2-0.8,0.4c0,0.1,0.1,0.3,0.3,0.4c0.2,0.1,0.3,0.3,0.3,0.5
					c0,0.3-0.3,0.6-0.9,0.6c-1.1-0.1-1.4-1.2-1.3-1.8c0-0.2,0.1-1.9,2.7-1.8c1.3,0.1,2.5,1.5,2.4,2.8c0,0.6-0.3,1.1-0.5,1.5
					c-0.1,0.1-0.1,0.2-0.1,0.2c0,0.1,0.1,0.1,0.2,0.1c1.8,0.1,1.8,0.1,2.8,0.3c0.3,0.1,1.7,0.6,2,0.6s1.5,0,1.8,0
					c2.6-0.4,3.3-1.9,3.3-2.4c0-1-0.8-1.5-1.6-1.5c-0.6,0-1.3,0.7-1.5,0.9c-0.2,0.2-1.2,1.1-1.5,1.1s-0.5-0.8-0.8-0.8
					s-1.3,0.8-1.5,0.9c-0.3,0.2-0.7,0.3-0.9,0.3c-0.2,0-0.3-0.1-0.3-0.2c0-0.8,2.7-3.4,3.4-3.3c0.4,0,0.7,0.3,0.9,0.7
					c0,0.1,0.2,0.2,0.3,0.2c0.1,0,0.3,0,0.4-0.2c0.2-0.3,0.9-0.6,1.4-0.6c0.7,0,1.7,0.6,2.2,1.3v2.7c-0.1,0.1-0.2,0.2-0.3,0.3
					c-0.4,0.3-0.5,0.5-0.5,0.6s0.1,0.2,0.3,0.2c0.2,0,0.2,0.2,0.2,0.4c0,0.2-0.1,0.5-0.4,0.5c-0.4,0-2.5-0.1-2.5,0.3
					c0,0.1,0.1,0.2,0.2,0.3C393.2,406.9,394.5,408.4,395.1,410.3z M365.7,407.5c-1.3-0.1-3.3,4.7-3.6,6.9c-0.4,2.9,0.6,6.4,1.5,6.5
					c0.1,0,0.1,0,0.1-0.1s0-0.2-0.1-0.3c-0.1-0.2-0.8-2.1-0.5-4.7c0.4-3.1,1.7-3.2,2.3-3.2c1.2,0.1,1.7,1.3,1.7,2
					c-0.1,0.9-0.9,1.5-1.2,1.7c-0.5,0.4-0.8,0.7-1,1.5c-0.1,0.4-0.2,0.9-0.2,1.4c-0.3,2.3,1.5,3.4,2.1,3.4c0.9,0.1,2.6-1.2,2.8-4
					C370.1,413.6,367.1,407.6,365.7,407.5z M373.7,409.3c0.1,0.1,0.2,0.2,0.3,0.2c0.4,0,2.6-1.5,2.7-2.9c0.1-1.3-2.2-3.1-4.5-4.2
					l0,0c-1.9,0.3-5,1.9-5.2,3.3c-0.1,1.3,1.7,3.2,2.1,3.3c0.1,0,0.2-0.1,0.4-0.1c0.5-0.5,1.3-0.8,2.2-0.7l0,0l0,0
					C372.6,408.3,373.3,408.7,373.7,409.3z M377.6,408.5c-1.3-0.1-5.4,5.3-5.8,10.1c-0.3,3.2,1.3,4.4,2.4,4.5
					c1.9,0.1,2.4-2.4,2.5-3.2c0-0.5,0-1-0.1-1.4c-0.2-0.7-0.5-1.4-0.9-1.8c-0.8-0.7-0.8-1.5-0.8-1.7c0.1-0.9,1.7-1.6,2.2-1.6
					c1.4,0.1,1.7,2,1.6,3.6c-0.2,2.7-1.2,4.4-1.4,4.6c-0.1,0.2-0.1,0.3-0.1,0.3c0,0.1,0,0.1,0.1,0.1c0.9,0.1,2.5-3.1,2.7-6.1
					C380,413.7,378.9,408.6,377.6,408.5z"/>
			</g>
			<g>
				<path class="st3" d="M442.2,407l0.9,5.5c-0.3,1.5-1,2.6-1.9,3.5c-2.5,2.4-2.8,2.7-2.6,4c0.1,0.8,0.8,1.8,2.2,1.6
					c0.7-0.1,1.5-1,1.4-1.7s-0.6-1-1-1c-0.1,0-0.5,0.2-0.6,0.2c-0.4,0.1-0.5-0.3-0.5-0.3c0-0.3,0.3-0.6,0.8-0.7
					c0.8-0.1,1.9,0.5,2.1,1.6c0.2,1.3-0.8,2.5-2.2,2.7c-2.5,0.3-3-1.8-3.1-2.3c-0.1-0.7,0-1.6,0.4-2.2c0.1-0.1,0.1-0.2,0.1-0.3
					c0-0.2-0.2-0.3-0.5-0.2c-0.4,0.1-4.8-0.5-5.3-4.7c-0.2-1.3,0.5-3.6,2.8-3.9s3.2,1.2,3.4,2.2c0.1,1-0.5,2.2-1.6,2.3
					c-1.2,0.2-1.7-0.9-1.7-1.3s0-0.8,0.3-1c0.3-0.1,0.5-0.3,0.4-0.5c0-0.1-0.2-0.7-1-0.6c-1.8,0.2-1.7,2.3-1.7,2.8
					c0.2,1.9,2.6,4,5,3.6c3.1-0.4,4.3-3.5,3.9-6.5c-0.5-3.1-2.3-4.1-2.6-4c-0.2,0-0.4,1.3-0.6,1.3c-0.3,0-1.2-0.6-1.3-1.3
					c-0.2-1.5-1.4-2.1-2.1-2c-0.1,0-0.2,0.1-0.2,0.3c0,0.2,0.3,1,0.3,1.2c0.2,1.4-0.9,2.2-1.8,2.3c-0.1,0-0.7,0.1-0.7-0.2
					c0-0.1,0.4-0.6,0.4-0.7s-0.1-0.2-0.2-0.2c0,0-0.6,0.2-0.7,0.2c-0.9,0.1-1.2-0.5-1.3-0.7c-0.1-0.5,0.3-0.8,0.7-0.9
					c0.1,0,0.2,0,0.4,0c0.6,0.1,0.9,0.6,1.4,0.5c0.7-0.1,0.8-0.7,0.7-1.5c-0.1-0.9-1.6-1.3-3.2-1c-0.9,0.1-2.1,0.7-3.1,1.2
					s-1.7,1.1-1.7,1.5c0,0.1,0.1,0.3,0.2,0.4c0.3,0.6,1.5,4.1,1.7,4.1c0.4,0,0.6-2.2,1-2.2c0.3,0,0.6,1,0.8,2.1
					c0.4,3.5-1.2,8.8-1.6,9.6c-0.1,0.2-0.1,0.3-0.1,0.4c0,0.2,0.2,0.3,0.4,0.3c0,0,0.8-0.4,1.6-0.9c0.8-0.5,1.5-1.1,1.5-1.5
					c-0.1-1.1-0.1-1.2,0.3-1.3c0.3,0,0.6,0,0.7,0.2c0.3,0.5,0,1.9,2.2,4.5c0.1,0.1,0.2,0.3,0.2,0.4c0,0.4-0.3,0.7-0.6,0.7
					c-0.3,0-0.6-0.1-0.8-0.6c-0.4-1-0.9-2.2-1.1-2.1c-0.2,0-0.6,2.9-1,3c-0.2,0-0.4-0.2-0.4-0.5c-0.1-0.6,0.3-1.5,0.3-1.8
					c0-0.2-0.1-0.3-0.3-0.3c-0.3,0.1-1.5,0.8-3.1,1.8c-1.3,0.8-2.2,1.7-3.9,1.9c-2.7,0.2-4.8-1.5-5-4.9c-0.1-1.1,0-2.2,0.2-3.4
					c0.1-0.7,1.1-4,1-4.7c0-0.3-0.1-0.4-0.3-0.4c-0.2,0-0.8,0.4-1.5,0.4l0,0l0,0c-0.7,0.1-1.4-0.2-1.6-0.2s-0.3,0.1-0.3,0.4
					c0,0.7,1.4,3.8,1.6,4.5c0.4,1.1,0.6,2.3,0.7,3.3c0.1,1.7-0.3,3.1-1,4.1c-0.8,0.9-1.9,1.5-3.2,1.5c-1.7,0.1-2.8-0.7-4.1-1.3
					c-1.7-0.8-3-1.4-3.3-1.4c-0.2,0-0.2,0.1-0.2,0.3c0,0.4,0.5,1.2,0.5,1.8c0,0.4-0.2,0.6-0.4,0.6c-0.4,0-1.2-2.3-1.4-2.3
					c-0.3,0-1.3,2.3-1.7,2.3c-0.3,0-1.1-1.4-1.1-2c0-0.4,0.7-0.9,1.5-1.1c0.2-0.1,0.3-0.8,0.3-1c0-0.5-0.1-0.8-0.1-1s0-0.6,0.8-0.6
					c0.5,0,0.8,0.2,0.8,0.6c0,0.1,0,0.3,0,0.4c0,0.7,3.3,1.8,3.4,1.8c0.2,0,0.4-0.2,0.4-0.4c0-0.1-0.1-0.3-0.2-0.4
					c-0.5-0.7-2.9-5.7-2.9-9.2c0-1.1,0.1-2.2,0.5-2.2c0.3,0,0.9,1.7,1.2,1.6c0.1,0,0.2-0.1,0.2-0.3c0.1-0.6,1-4,1-4
					c0-0.7-3.3-2-5.1-1.9c-1.6,0-3,0.6-3,1.5c0,0.8,0.3,1.7,1,1.7c0.5,0,0.7-0.6,1.4-0.7c0.1,0,0.3-0.1,0.4-0.1
					c0.5,0,0.8,0.3,0.9,0.7c0,0.2-0.3,0.9-1.2,0.9c-0.1,0-0.7-0.1-0.7-0.1c-0.1,0-0.2,0.1-0.2,0.2s0.5,0.5,0.5,0.6
					c0,0.2-0.5,0.3-0.7,0.3c-1.4,0-2.1-1-2.1-2.4c0-0.2,0.2-1.1,0.2-1.3c0-0.2-0.1-0.2-0.2-0.2c-0.2,0-1.3,0.5-1.4,0.7
					c-0.3,0.2-0.3,0.9-0.3,1.5c0,0.9-0.9,1.6-1.1,1.6c-0.1,0-0.2-0.1-0.2-0.2c0,0,0.1-0.6,0.1-0.7c0-0.2-0.1-0.9-0.5-0.9
					c-0.9,0-2.2,2.7-2.3,5c0,3.3,1.8,5.9,4.9,5.9c2.4,0,4.3-2,4.3-3.9c0-0.6-0.4-2.5-2-2.5c-0.6,0-0.8,0.3-0.8,0.5s0.1,0.4,0.3,0.6
					c0.2,0.2,0.4,0.6,0.4,1c0,0.2-0.2,1.4-1.5,1.4c-1.1,0-1.9-1.1-1.9-2.1s0.7-2.6,3-2.7c2.3,0,3.3,2.1,3.3,3.4c0.1,4.5-4.3,5-4.5,5
					c-0.3,0-0.5,0.1-0.5,0.3c0,0.1,0.1,0.2,0.1,0.3c0.4,0.5,0.7,1.4,0.7,2.1c0,0.6-0.2,2.7-2.7,2.8c-1.4,0-2.5-0.8-2.5-2.2
					c0-1.2,1-1.9,1.8-1.9c0.6,0,0.9,0.3,0.9,0.5c0,0.1,0,0.4-0.4,0.4c-0.1,0-0.5-0.1-0.6-0.1c-0.4,0-0.8,0.4-0.8,1.1
					c0,0.9,1,1.3,1.6,1.3c1.4,0,1.9-1,1.9-1.9c0-1.3-0.3-1.5-3.1-3.6c-1-0.7-1.9-1.8-2.4-3.1l0.1-5.6c0.7-2,2-3.4,2.9-4.2
					c0.1-0.1,0.2-0.3,0.2-0.4s-0.1-0.2-0.4-0.2c-0.1,0-0.9,0.1-1.1,0.1c-1.1,0-1.6,0-1.6-0.7c0-0.1,0.5-0.6,0.6-0.7
					c0-0.1-0.1-0.3-0.3-0.5c-0.1-0.1-0.2-0.2-0.3-0.3v-2.7c0.5-0.7,1.5-1.2,2.2-1.2c0.6,0,1.2,0.4,1.4,0.6c0.1,0.1,0.3,0.2,0.4,0.2
					s0.3-0.1,0.3-0.2c0.2-0.4,0.5-0.7,0.9-0.7s2.8,1.7,2.8,2.7c0,0.4-0.3,0.6-0.6,0.6c-0.3,0-0.5-0.1-0.6-0.4
					c-0.2-0.4-0.9-1.1-1.3-1.1c-0.3,0-0.3,0.2-0.4,1.2c0,0.1-0.1,0.2-0.2,0.2c0,0-0.5,0-1.1-0.5c-0.4-0.3-1.2-1.2-1.8-1.2
					c-0.8,0-1.5,0.5-1.5,1.5c0,2.1,5.4,2,6.1,2c0.5,0,3-0.5,3.6-0.5c0.1,0,0.2,0,0.2-0.1s-0.1-0.1-0.1-0.3c-0.3-0.4-0.8-0.7-0.8-1.8
					c0-1.1,0.8-2.3,2.5-2.4c2.1-0.1,3.2,1.1,3.2,2.4c0,0.7-0.4,1.5-1.4,1.5c-1.1,0.1-1.5-0.5-1.5-1c0-0.2,0.1-0.4,0.2-0.5
					c0.3-0.1,0.4-0.3,0.4-0.4c0-0.2-0.4-0.4-1-0.3c-0.6,0-0.9,0.5-0.9,1.1c0,1.9,3.3,2.9,4.5,2.8c0.3,0,0.5-0.1,0.7-0.4
					c1.7-3,4.8-5.6,6.6-5.8l0,0l0,0c1.3-0.1,5,1.9,7.3,4.8c0.2,0.3,0.5,0.4,0.7,0.3c0.2,0,4.1-1,3.8-3.1c-0.1-0.7-0.8-1.3-1.6-1.3
					c-0.4,0-0.7,0.3-0.7,0.6c0,0.1,0.1,0.3,0.4,0.3c0.2,0.1,0.3,0.2,0.3,0.5s-0.2,0.7-0.8,0.7c-1.1,0.1-1.5-1-1.6-1.5
					c0-0.2-0.2-1.9,2.4-2.2c1.3-0.2,2.7,1,2.8,2.3c0.1,0.6-0.1,1.1-0.3,1.6c-0.1,0.1-0.1,0.2-0.1,0.2c0,0.1,0.1,0.1,0.2,0.1
					c1.8-0.2,1.8-0.2,2.8-0.1c0.3,0,1.8,0.3,2,0.3c0.3-0.1,1.5-0.2,1.7-0.3c2.5-0.8,3-2.4,2.9-3c-0.2-1-1-1.4-1.8-1.3
					c-0.6,0.1-1.1,0.9-1.3,1.1c-0.2,0.2-1,1.3-1.3,1.4c-0.3,0-0.6-0.7-0.9-0.7s-1.1,1-1.3,1.1c-0.3,0.2-0.6,0.4-0.8,0.4
					c-0.2,0-0.3,0-0.3-0.1c-0.1-0.8,2.1-3.7,2.8-3.8c0.4-0.1,0.7,0.2,1,0.5c0.1,0.1,0.2,0.1,0.3,0.1c0.1,0,0.3-0.1,0.4-0.2
					c0.2-0.3,0.7-0.8,1.3-0.8c0.7-0.1,1.7,0.3,2.4,0.9l0.4,2.7c-0.1,0.1-0.1,0.2-0.2,0.3c-0.3,0.4-0.4,0.6-0.4,0.7s0.1,0.2,0.3,0.2
					c0.2,0,0.3,0.2,0.3,0.4c0,0.2,0,0.5-0.3,0.5c-0.4,0.1-2.4,0.3-2.4,0.7c0,0.1,0.1,0.2,0.3,0.3C439.7,403.9,441.2,405.2,442.2,407
					z M412.7,408.9c-1.3,0.1-2.5,5.2-2.4,7.3c0.1,3,1.6,6.2,2.5,6.2c0.1,0,0.1-0.1,0.1-0.1c0-0.1-0.1-0.2-0.1-0.3
					c-0.2-0.2-1.1-2-1.3-4.6c-0.1-3.1,1.2-3.5,1.8-3.5c1.2-0.1,1.9,1.1,2,1.8c0.1,0.9-0.7,1.6-1,1.9c-0.4,0.4-0.7,0.8-0.7,1.6
					c0,0.4,0,0.9,0,1.4c0.1,2.3,2.1,3.1,2.6,3.1c0.9,0,2.4-1.5,2.2-4.4C418,414.3,414.1,408.8,412.7,408.9z M420.8,409.4
					c0.1,0.1,0.2,0.2,0.4,0.2c0.4,0,2.3-1.9,2.2-3.3c-0.1-1.3-2.7-2.7-5.1-3.4l0,0c-1.9,0.7-4.7,2.6-4.6,4.1
					c0.1,1.3,2.2,2.9,2.6,2.9c0.1,0,0.2-0.1,0.3-0.2c0.4-0.6,1.2-0.9,2.1-1l0,0l0,0C419.6,408.6,420.3,408.9,420.8,409.4z
					 M424.6,408c-1.3,0.1-4.5,6.1-4.1,10.9c0.2,3.2,2,4.2,3.1,4.1c1.9-0.2,2-2.8,1.9-3.6c0-0.5-0.2-1-0.3-1.4
					c-0.3-0.7-0.7-1.3-1.2-1.6c-0.9-0.6-1-1.4-1.1-1.6c-0.1-0.9,1.4-1.9,1.9-1.9c1.4-0.1,2,1.8,2.2,3.3c0.3,2.6-0.5,4.5-0.6,4.7
					s-0.1,0.3-0.1,0.3c0,0.1,0.1,0.1,0.1,0.1c0.9-0.1,2-3.5,1.6-6.4C427.8,412.8,425.8,407.9,424.6,408z"/>
			</g>
			<g>
				<path class="st3" d="M487.9,395.7l1.8,5.3c0,1.5-0.6,2.7-1.3,3.8c-2,2.8-2.3,3.1-1.9,4.4c0.3,0.8,1,1.6,2.4,1.2
					c0.7-0.2,1.3-1.3,1.1-2c-0.2-0.7-0.8-0.9-1.1-0.8c-0.1,0-0.4,0.3-0.5,0.3c-0.4,0.1-0.5-0.2-0.5-0.2c-0.1-0.3,0.2-0.6,0.7-0.8
					c0.7-0.2,1.9,0.1,2.3,1.2c0.4,1.3-0.4,2.6-1.7,3c-2.4,0.8-3.3-1.2-3.5-1.7c-0.2-0.7-0.2-1.6,0-2.2c0-0.1,0.1-0.2,0-0.3
					c-0.1-0.2-0.3-0.2-0.5-0.2c-0.2,0.1-1.4,0.2-2.7-0.3c-1.3-0.4-2.7-1.5-3.3-3.5c-0.4-1.3-0.1-3.5,2.1-4.3
					c2.2-0.7,3.4,0.6,3.7,1.6c0.3,0.9-0.1,2.3-1.2,2.6c-1.2,0.4-1.8-0.6-1.9-1s-0.1-0.8,0.1-1c0.3-0.2,0.4-0.4,0.3-0.6
					c0-0.1-0.3-0.6-1.1-0.4c-1.7,0.6-1.3,2.6-1.2,3.1c0.6,1.9,3.2,3.5,5.5,2.7c3-1,3.7-4.3,2.7-7.1c-1-3-3-3.6-3.2-3.5
					s-0.2,1.4-0.4,1.4c-0.3,0.1-1.3-0.3-1.5-1c-0.5-1.5-1.8-1.8-2.4-1.6c-0.1,0-0.2,0.1-0.1,0.3c0.1,0.2,0.5,1,0.5,1.1
					c0.4,1.4-0.5,2.4-1.4,2.6c-0.1,0-0.6,0.2-0.7,0c0-0.1,0.3-0.6,0.3-0.8c0-0.1-0.1-0.2-0.2-0.1c0,0-0.6,0.3-0.7,0.3
					c-0.9,0.2-1.3-0.3-1.4-0.5c-0.1-0.5,0.1-0.8,0.6-0.9c0.1,0,0.2,0,0.4-0.1c0.6,0,1,0.4,1.5,0.3c0.7-0.2,0.7-0.9,0.5-1.6
					c-0.3-0.9-1.8-0.9-3.3-0.5c-1.7,0.5-4.5,2.7-4.3,3.4c0,0.1,0.1,0.2,0.2,0.4c0.4,0.6,2.2,3.8,2.4,3.8c0.4-0.1,0.3-2.3,0.6-2.4
					c0.3-0.1,0.8,0.9,1.1,2c1,3.4,0.3,8.9,0,9.7c-0.1,0.2-0.1,0.3,0,0.4c0.1,0.2,0.2,0.3,0.5,0.3c0.1,0,2.9-2.1,2.7-2.8
					c-0.3-1.1-0.4-1.2,0.1-1.3c0.3-0.1,0.6-0.1,0.7,0.1c0.4,0.4,0.3,1.9,2.9,4.1c0.1,0.1,0.2,0.3,0.3,0.4c0.1,0.3-0.2,0.7-0.5,0.8
					c-0.3,0.1-0.6,0-0.9-0.5c-0.6-0.9-1.3-2-1.5-1.9s-0.1,2.9-0.5,3.1c-0.2,0-0.4-0.1-0.5-0.5c-0.2-0.5,0.1-1.5,0-1.9
					c-0.1-0.2-0.2-0.3-0.3-0.2c-0.3,0.1-1.3,1-2.7,2.3c-1.1,1-1.8,2.1-3.5,2.6c-1.3,0.4-2.5,0.2-3.6-0.4c-1-0.7-1.8-1.9-2.2-3.6
					c-0.3-1-0.4-2.2-0.4-3.4c0-0.7,0.4-4.1,0.2-4.8c-0.1-0.3-0.2-0.4-0.4-0.3c-0.2,0.1-0.8,0.5-1.5,0.6l0,0l0,0
					c-0.7,0.2-1.4,0-1.6,0.1c-0.2,0-0.3,0.2-0.2,0.5c0.2,0.7,2,3.5,2.4,4.2c0.5,1.1,1,2.2,1.2,3.2c0.8,3.4-0.6,5.6-3.3,6.2
					c-1.7,0.4-2.8-0.2-4.3-0.6c-1.8-0.5-3.1-0.8-3.5-0.8c-0.1,0-0.2,0.1-0.2,0.3c0.1,0.4,0.7,1.1,0.8,1.7c0.1,0.4-0.1,0.6-0.3,0.7
					c-0.4,0.1-1.5-2.2-1.7-2.1c-0.3,0.1-0.9,2.5-1.3,2.5c-0.3,0.1-1.3-1.2-1.4-1.8c-0.1-0.4,0.6-1,1.3-1.3c0.2-0.1,0.1-0.8,0.1-1
					c-0.1-0.5-0.2-0.8-0.2-1s-0.1-0.6,0.7-0.7c0.5-0.1,0.8,0,0.9,0.5c0,0.1,0,0.3,0,0.4c0.1,0.8,3.6,1.3,3.7,1.2
					c0.2-0.1,0.3-0.2,0.3-0.4c0-0.1-0.1-0.2-0.2-0.4c-0.6-0.6-3.8-5.1-4.4-8.6c-0.2-1.1-0.2-2.2,0.1-2.3c0.3-0.1,1.2,1.5,1.5,1.4
					c0.1,0,0.1-0.1,0.1-0.4c0-0.6,0.3-4.1,0.3-4.1c-0.2-0.7-3.6-1.3-5.4-1.1c-1.5,0.3-2.9,1.1-2.7,2c0.1,0.7,0.5,1.7,1.2,1.6
					c0.5-0.1,0.6-0.7,1.2-0.9c0.1-0.1,0.2-0.1,0.4-0.1c0.5-0.1,0.9,0.1,1,0.6c0,0.2-0.1,0.9-1,1c-0.1,0-0.7,0-0.7,0
					c-0.1,0-0.2,0.1-0.2,0.2s0.6,0.4,0.6,0.5c0,0.2-0.5,0.3-0.6,0.4c-1.3,0.2-2.2-0.6-2.5-2c0-0.2,0-1.1-0.1-1.3
					c0-0.2-0.1-0.2-0.2-0.2c-0.2,0-1.2,0.7-1.3,0.9c-0.2,0.3-0.1,1-0.1,1.5c0.2,0.9-0.6,1.7-0.8,1.7c-0.1,0-0.2,0-0.2-0.2
					c0,0,0-0.6,0-0.7c0-0.2-0.2-0.9-0.6-0.8c-0.9,0.2-1.8,3-1.4,5.3c0.5,3.2,2.7,5.5,5.9,5c2.4-0.4,3.9-2.7,3.6-4.6
					c-0.1-0.6-0.8-2.5-2.3-2.2c-0.5,0.1-0.7,0.4-0.7,0.7c0,0.2,0.2,0.4,0.4,0.6c0.3,0.2,0.5,0.6,0.5,0.9c0,0.2,0,1.4-1.2,1.6
					c-1,0.2-2.1-0.8-2.2-1.7c-0.2-1,0.3-2.7,2.6-3.1c2.2-0.4,3.6,1.5,3.8,2.8c0.9,4.4-3.4,5.7-3.6,5.7c-0.3,0-0.4,0.2-0.4,0.4
					c0,0.1,0.1,0.2,0.2,0.3c0.5,0.4,0.9,1.3,1,2c0.1,0.6,0.2,2.7-2.2,3.2c-1.4,0.2-2.6-0.4-2.9-1.7c-0.2-1.2,0.7-2.1,1.5-2.2
					c0.5-0.1,0.9,0.1,1,0.4c0,0.1,0.1,0.4-0.4,0.5c-0.1,0-0.5,0-0.6,0c-0.3,0.1-0.8,0.5-0.6,1.2c0.1,0.8,1.2,1.2,1.8,1.1
					c1.4-0.2,1.7-1.3,1.6-2.2c-0.2-1.3-0.6-1.5-3.7-3c-1.1-0.6-2.2-1.4-2.9-2.7l-0.9-5.5c0.4-2.1,1.4-3.7,2.2-4.6
					c0.1-0.2,0.2-0.3,0.2-0.4s-0.2-0.2-0.4-0.1c-0.1,0-0.9,0.2-1,0.2c-1.1,0.2-1.6,0.3-1.7-0.4c0-0.1,0.5-0.6,0.4-0.8
					c0-0.1-0.1-0.3-0.4-0.5c-0.1-0.1-0.2-0.2-0.3-0.3l-0.4-2.6c0.4-0.8,1.2-1.5,2-1.6c0.5-0.1,1.2,0.2,1.5,0.4
					c0.1,0.1,0.3,0.1,0.4,0.1s0.2-0.1,0.3-0.2c0.1-0.4,0.3-0.7,0.8-0.8c0.4-0.1,3.1,1.2,3.2,2.2c0.1,0.4-0.2,0.6-0.4,0.7
					c-0.3,0-0.5,0-0.7-0.3c-0.2-0.4-1.1-1-1.5-0.9c-0.3,0-0.3,0.3-0.2,1.3c0,0.1-0.1,0.2-0.2,0.2c0,0-0.5,0.1-1.2-0.3
					c-0.4-0.2-1.4-1-1.9-0.9c-0.8,0.1-1.4,0.7-1.2,1.7c0.3,2,5.6,1.1,6.3,1c0.5-0.1,2.9-1,3.5-1.1c0.1,0,0.2-0.1,0.2-0.1
					c0-0.1-0.1-0.1-0.2-0.2c-0.3-0.3-0.9-0.6-1.1-1.6c-0.2-1.1,0.4-2.4,2.1-2.7c2.1-0.5,3.3,0.5,3.6,1.8c0.2,0.7-0.1,1.5-1.1,1.7
					s-1.5-0.3-1.6-0.7c0-0.2,0-0.4,0.1-0.5c0.2-0.2,0.3-0.3,0.3-0.4c0-0.2-0.5-0.3-1-0.2c-0.6,0.1-0.8,0.6-0.7,1.2
					c0.4,1.9,3.7,2.3,4.9,2c0.3-0.1,0.5-0.2,0.6-0.5c1.2-3.2,3.7-6.4,5.5-6.8l0,0l0,0c0.3-0.1,0.8,0,1.4,0.1s1.3,0.3,2,0.6
					c1.5,0.6,3.2,1.5,4.6,2.8c0.3,0.3,0.5,0.3,0.8,0.2c0.2-0.1,3.9-1.7,3.3-3.7c-0.2-0.6-1.1-1.2-1.8-1c-0.4,0.1-0.6,0.4-0.6,0.7
					c0,0.1,0.2,0.2,0.4,0.3c0.2,0,0.3,0.2,0.4,0.4c0.1,0.3-0.1,0.7-0.7,0.9c-1.1,0.3-1.7-0.7-1.8-1.2c-0.1-0.2-0.5-1.9,2-2.6
					c1.3-0.4,2.8,0.6,3.2,1.9c0.2,0.6,0.1,1.1,0,1.6c0,0.1,0,0.2,0,0.2c0,0.1,0.1,0.1,0.2,0c1.7-0.5,1.8-0.5,2.7-0.6
					c0.3,0,1.8,0,2-0.1c0.3-0.1,1.4-0.5,1.6-0.6c2.3-1.3,2.5-3,2.3-3.5c-0.3-0.9-1.2-1.2-2-0.9c-0.6,0.2-1,1.1-1.1,1.3
					c-0.2,0.2-0.8,1.5-1,1.6c-0.3,0.1-0.7-0.6-1-0.5c-0.2,0.1-0.9,1.2-1.1,1.3c-0.3,0.3-0.6,0.5-0.8,0.6c-0.2,0.1-0.3,0-0.3-0.1
					c-0.2-0.7,1.4-4.1,2.1-4.3c0.4-0.1,0.8,0,1,0.3c0.1,0.1,0.2,0.1,0.3,0.1c0.1,0,0.2-0.1,0.3-0.3c0.1-0.3,0.6-0.9,1.1-1.1
					c0.7-0.2,1.7-0.1,2.5,0.5l0.9,2.6c0,0.1-0.1,0.2-0.2,0.3c-0.2,0.4-0.3,0.6-0.3,0.7s0.2,0.1,0.4,0.1c0.2,0,0.3,0.1,0.4,0.3
					c0.1,0.2,0,0.5-0.2,0.6c-0.4,0.1-2.3,0.8-2.2,1.2c0,0.1,0.1,0.2,0.3,0.2C484.9,393.1,486.6,394,487.9,395.7z M459.2,402.6
					c-1.3,0.3-1.6,5.5-1.2,7.7c0.6,2.9,2.6,5.8,3.5,5.6l0.1-0.1c0-0.1-0.1-0.2-0.2-0.3c-0.2-0.2-1.5-1.7-2-4.3
					c-0.7-3.1,0.6-3.6,1.2-3.8c1.2-0.3,2.1,0.7,2.2,1.4c0.2,0.9-0.4,1.7-0.6,2c-0.4,0.5-0.5,1-0.4,1.7c0.1,0.4,0.1,0.9,0.2,1.4
					c0.5,2.3,2.6,2.7,3.1,2.6c0.9-0.2,2.1-1.9,1.4-4.7C465.3,407,460.5,402.3,459.2,402.6z M467.3,401.7c0.1,0.1,0.3,0.1,0.4,0.1
					c0.4-0.1,1.9-2.3,1.6-3.6c-0.2-0.6-0.9-1.2-2-1.6c-1-0.4-2.3-0.7-3.6-0.9l0,0c-1.7,0.9-4.1,3.4-3.8,4.8c0.3,1.3,2.7,2.5,3.1,2.4
					c0.1,0,0.2-0.1,0.3-0.3c0.3-0.6,1-1.1,1.9-1.3l0,0l0,0C465.9,401.2,466.7,401.4,467.3,401.7z M470.8,399.8
					c-1.3,0.4-3.3,6.8-2.2,11.5c0.8,3.1,2.7,3.8,3.7,3.5c1.8-0.5,1.5-3.1,1.3-3.9c-0.1-0.5-0.3-0.9-0.5-1.3
					c-0.4-0.6-0.9-1.1-1.5-1.4c-1-0.4-1.3-1.2-1.3-1.4c-0.2-0.9,1.1-2.1,1.6-2.2c1.3-0.4,2.3,1.4,2.7,2.9c0.7,2.6,0.3,4.5,0.2,4.8
					c0,0.2-0.1,0.3,0,0.4c0,0.1,0.1,0.1,0.1,0.1c0.9-0.2,1.3-3.8,0.5-6.7C474.7,403.9,472,399.4,470.8,399.8z"/>
			</g>
			<g>
				<path class="st3" d="M531.1,376.9l2.6,4.9c0.2,1.5-0.1,2.8-0.7,3.9c-1.6,3.1-1.7,3.4-1.1,4.6c0.4,0.7,1.3,1.4,2.6,0.8
					c0.6-0.3,1.1-1.4,0.7-2.1c-0.3-0.6-0.9-0.8-1.2-0.6c-0.1,0-0.4,0.3-0.5,0.4c-0.4,0.2-0.5-0.1-0.6-0.2c-0.1-0.3,0.1-0.6,0.6-0.9
					c0.7-0.3,1.9-0.2,2.5,0.9c0.6,1.2,0.1,2.6-1.2,3.2c-2.2,1.1-3.5-0.7-3.7-1.2c-0.3-0.6-0.5-1.6-0.4-2.2c0-0.1,0-0.2,0-0.3
					c-0.1-0.2-0.3-0.2-0.6-0.1c-0.4,0.2-4.7,1.1-6.5-2.7c-0.6-1.2-0.7-3.5,1.3-4.6c2-1,3.5,0.1,3.9,1c0.5,0.9,0.2,2.2-0.7,2.7
					c-1.1,0.6-1.9-0.3-2-0.7c-0.2-0.3-0.3-0.8-0.1-1s0.3-0.4,0.2-0.6c0-0.1-0.4-0.6-1.1-0.2c-1.6,0.8-0.9,2.7-0.6,3.2
					c0.9,1.7,3.8,2.9,5.9,1.8c2.8-1.4,2.9-4.8,1.5-7.4c-1.5-2.8-3.5-3.1-3.8-3c-0.2,0.1,0,1.4-0.1,1.5c-0.3,0.1-1.3-0.1-1.6-0.8
					c-0.7-1.4-2-1.5-2.6-1.2c-0.1,0.1-0.1,0.2-0.1,0.3c0.1,0.2,0.6,0.9,0.7,1c0.7,1.3-0.1,2.4-0.9,2.8c-0.1,0.1-0.6,0.3-0.7,0.1
					c-0.1-0.1,0.2-0.7,0.2-0.8c-0.1-0.1-0.2-0.2-0.3-0.1c0,0-0.5,0.4-0.6,0.4c-0.8,0.4-1.3,0-1.4-0.2c-0.2-0.4,0-0.8,0.4-1.1
					c0.1-0.1,0.2-0.1,0.4-0.1c0.6-0.1,1.1,0.2,1.5,0c0.6-0.3,0.6-1,0.2-1.7c-0.4-0.8-2-0.6-3.4,0.1c-1.6,0.8-3.9,3.6-3.6,4.2
					c0,0.1,0.2,0.2,0.3,0.4c0.5,0.5,2.8,3.4,2.9,3.3c0.3-0.2-0.1-2.3,0.1-2.5c0.3-0.2,0.9,0.7,1.4,1.7c1.5,3.2,1.8,8.7,1.7,9.6
					c0,0.2,0,0.3,0,0.4c0.1,0.2,0.3,0.3,0.5,0.2c0.1,0,2.4-2.6,2.1-3.3c-0.5-1-0.5-1.1-0.1-1.3c0.2-0.1,0.6-0.2,0.7,0
					c0.5,0.4,0.7,1.8,3.6,3.5c0.2,0.1,0.3,0.2,0.3,0.3c0.2,0.3,0,0.7-0.4,0.9c-0.2,0.1-0.6,0.1-1-0.3c-0.7-0.8-1.6-1.7-1.8-1.6
					s0.4,2.9,0,3.1c-0.2,0.1-0.4,0-0.6-0.4c-0.2-0.5-0.2-1.5-0.4-1.8c-0.1-0.2-0.2-0.2-0.3-0.2c-0.3,0.1-1.1,1.3-2.2,2.8
					c-0.9,1.2-1.5,2.3-3.1,3c-2.5,1.1-5,0.2-6.4-3c-0.4-1-0.7-2.1-0.9-3.3c-0.1-0.7-0.3-4.1-0.6-4.7c-0.1-0.3-0.3-0.3-0.4-0.3
					c-0.2,0.1-0.7,0.6-1.3,0.9l0,0l0,0c-0.6,0.3-1.4,0.3-1.6,0.4s-0.2,0.2-0.1,0.5c0.3,0.6,2.6,3.1,3,3.7c0.7,1,1.3,1.9,1.8,2.9
					c1.4,3.2,0.3,5.7-2.1,6.8c-1.6,0.7-2.9,0.2-4.4,0.1c-1.9-0.2-3.3-0.4-3.6-0.2c-0.1,0.1-0.2,0.2-0.1,0.3c0.1,0.4,0.9,1,1.1,1.5
					c0.1,0.3,0,0.6-0.1,0.7c-0.4,0.2-1.9-1.8-2.1-1.8c-0.3,0.1-0.4,2.6-0.8,2.8c-0.3,0.1-1.5-1-1.7-1.5c-0.1-0.3,0.4-1.1,1.1-1.6
					c0.2-0.1,0-0.8-0.1-1c-0.2-0.5-0.3-0.7-0.4-0.9c-0.1-0.2-0.2-0.6,0.6-0.8c0.5-0.2,0.8-0.1,0.9,0.3c0,0.1,0,0.3,0.1,0.4
					c0.3,0.7,3.8,0.7,3.8,0.6c0.2-0.1,0.3-0.3,0.2-0.5c0-0.1-0.1-0.2-0.3-0.3c-0.7-0.5-4.6-4.5-5.9-7.8c-0.4-1.1-0.6-2.1-0.3-2.2
					c0.2-0.1,1.4,1.3,1.7,1.2c0.1,0,0.1-0.2,0.1-0.4c-0.1-0.6-0.3-4.1-0.3-4.1c-0.3-0.7-3.8-0.8-5.5-0.2c-1.5,0.6-2.6,1.6-2.3,2.5
					c0.3,0.7,0.8,1.6,1.5,1.3c0.5-0.2,0.5-0.8,1-1.1c0.1-0.1,0.2-0.1,0.3-0.2c0.4-0.2,0.9-0.1,1,0.4c0.1,0.2,0,0.9-0.8,1.2
					c-0.1,0-0.7,0.2-0.7,0.2c-0.1,0-0.2,0.1-0.1,0.3c0,0.1,0.6,0.3,0.7,0.4c0.1,0.2-0.4,0.4-0.5,0.5c-1.3,0.5-2.3-0.2-2.8-1.5
					c-0.1-0.2-0.2-1.1-0.3-1.3c-0.1-0.1-0.1-0.2-0.3-0.2c-0.2,0.1-1,1-1.1,1.2c-0.2,0.3,0,1,0.2,1.5c0.3,0.9-0.3,1.8-0.5,1.8
					c-0.1,0-0.2,0-0.3-0.1c0,0-0.1-0.6-0.1-0.7c-0.1-0.1-0.4-0.9-0.7-0.7c-0.9,0.3-1.3,3.2-0.5,5.4c1,3.1,3.7,5.1,6.7,4
					c2.3-0.9,3.4-3.4,2.7-5.2c-0.2-0.6-1.2-2.3-2.7-1.7c-0.5,0.2-0.7,0.5-0.6,0.8c0.1,0.2,0.2,0.3,0.5,0.5c0.3,0.1,0.6,0.5,0.7,0.8
					c0.1,0.2,0.3,1.4-0.9,1.8c-1,0.4-2.1-0.4-2.5-1.3c-0.3-0.9-0.2-2.7,2-3.6c2.1-0.8,3.8,0.8,4.2,2.1c1.6,4.2-2.4,6.3-2.6,6.3
					c-0.3,0.1-0.4,0.3-0.3,0.5c0,0.1,0.1,0.2,0.2,0.2c0.6,0.3,1.1,1.1,1.3,1.8c0.2,0.5,0.7,2.7-1.7,3.5c-1.3,0.4-2.7,0-3.1-1.3
					c-0.4-1.1,0.4-2.1,1.1-2.4c0.5-0.2,0.9,0,1,0.2c0,0.1,0.1,0.4-0.3,0.5c-0.1,0-0.5,0.1-0.6,0.1c-0.3,0.1-0.7,0.6-0.4,1.3
					c0.3,0.8,1.4,1,2,0.8c1.4-0.4,1.5-1.6,1.2-2.4c-0.5-1.3-0.8-1.3-4.2-2.4c-1.2-0.4-2.4-1.1-3.3-2.2l-1.8-5.3
					c0-2.1,0.8-3.9,1.4-4.9c0.1-0.2,0.1-0.3,0.1-0.4s-0.2-0.2-0.4-0.1c-0.1,0.1-0.8,0.3-1,0.4c-1,0.3-1.5,0.5-1.7-0.1
					c0-0.1,0.3-0.7,0.3-0.8c0-0.1-0.2-0.2-0.5-0.4c-0.1-0.1-0.2-0.1-0.4-0.2l-0.9-2.5c0.3-0.9,1-1.6,1.7-1.8c0.5-0.2,1.2,0,1.5,0.2
					c0.2,0.1,0.3,0.1,0.4,0c0.1,0,0.2-0.1,0.2-0.2c0-0.4,0.2-0.8,0.6-0.9c0.4-0.2,3.2,0.6,3.6,1.6c0.2,0.4-0.1,0.6-0.3,0.7
					c-0.2,0.1-0.5,0.1-0.7-0.2c-0.3-0.3-1.2-0.8-1.6-0.6c-0.2,0.1-0.2,0.3,0,1.3c0,0.1,0,0.2-0.2,0.2c0,0-0.4,0.2-1.2-0.1
					c-0.5-0.2-1.5-0.8-2.1-0.6c-0.8,0.2-1.2,0.9-0.9,1.8c0.3,1,1.8,1,3.2,0.8c1.5-0.2,2.9-0.8,3.2-0.9c0.5-0.2,2.7-1.5,3.2-1.7
					c0.1-0.1,0.2-0.1,0.2-0.2c0,0-0.1-0.1-0.2-0.2c-0.4-0.2-1-0.4-1.4-1.4s0-2.5,1.6-3.1c2-0.8,3.4,0,3.9,1.3
					c0.3,0.7,0.1,1.5-0.8,1.9c-1,0.4-1.6,0-1.7-0.5c-0.1-0.2-0.1-0.4,0.1-0.5c0.2-0.2,0.3-0.4,0.2-0.5c-0.1-0.2-0.5-0.2-1.1,0
					s-0.7,0.7-0.5,1.3c0.7,1.8,4.1,1.7,5.3,1.2c0.2-0.1,0.4-0.3,0.5-0.6c0.2-0.8,0.4-1.7,0.7-2.5c0.3-0.8,0.6-1.6,1-2.4
					c0.8-1.4,1.7-2.5,2.5-2.9l0,0l0,0c1.2-0.5,5.3,0.2,8.5,2.2c0.3,0.2,0.6,0.2,0.8,0.1c0.2,0,3.5-2.4,2.6-4.2
					c-0.3-0.6-1.2-1-1.9-0.7c-0.4,0.2-0.5,0.5-0.4,0.8c0.1,0.1,0.2,0.2,0.4,0.2s0.4,0.1,0.5,0.3c0.1,0.3,0.1,0.7-0.5,1
					c-1,0.5-1.8-0.4-2-0.9c-0.1-0.2-0.8-1.7,1.5-2.9c1.2-0.6,2.9,0.1,3.5,1.3c0.3,0.5,0.3,1.1,0.3,1.6c0,0.1,0,0.2,0,0.3
					c0,0.1,0.1,0,0.2,0c1.6-0.8,1.6-0.8,2.6-1c0.3-0.1,1.8-0.3,2-0.4c0.2-0.2,1.4-0.7,1.5-0.8c2.1-1.6,2-3.3,1.8-3.7
					c-0.5-0.9-1.4-0.9-2.2-0.6c-0.5,0.3-0.8,1.2-0.9,1.5c-0.1,0.3-0.5,1.6-0.8,1.7s-0.8-0.5-1.1-0.3c-0.2,0.1-0.7,1.3-0.9,1.5
					c-0.2,0.3-0.5,0.6-0.7,0.7c-0.1,0.1-0.3,0.1-0.3,0c-0.3-0.7,0.8-4.2,1.3-4.5c0.4-0.2,0.8-0.1,1.1,0.2c0.1,0.1,0.2,0.1,0.3,0
					s0.2-0.2,0.3-0.3c0.1-0.3,0.4-1,0.9-1.2c0.7-0.3,1.7-0.3,2.5,0.1l1.3,2.4c0,0.1-0.1,0.2-0.1,0.4c-0.2,0.4-0.2,0.7-0.1,0.8
					c0.1,0.1,0.2,0.1,0.4,0s0.3,0.1,0.4,0.3c0.1,0.2,0.1,0.5-0.1,0.6c-0.4,0.2-2.2,1.1-2,1.5c0,0.1,0.1,0.1,0.3,0.2
					C527.8,374.8,529.6,375.5,531.1,376.9z M504,388.6c-1.2,0.5-0.7,5.6,0.1,7.7c1.1,2.8,3.6,5.3,4.5,5c0,0,0.1-0.1,0-0.2
					c0-0.1-0.1-0.2-0.2-0.3c-0.2-0.2-1.7-1.5-2.7-3.9c-1.2-2.9,0-3.7,0.5-3.9c1.1-0.5,2.1,0.3,2.4,1c0.3,0.8-0.1,1.8-0.3,2.1
					c-0.3,0.6-0.4,1-0.1,1.8c0.1,0.4,0.3,0.9,0.5,1.3c0.9,2.2,3,2.2,3.4,2c0.9-0.4,1.7-2.3,0.5-4.9
					C510.8,391.8,505.3,388.1,504,388.6z M511.8,386.2c0.1,0.1,0.3,0.1,0.4,0c0.4-0.2,1.5-2.6,1-3.8c-0.6-1.2-3.4-1.7-6-1.5l0,0
					c-1.5,1.2-3.5,4.2-2.9,5.5c0.5,1.2,3,2,3.4,1.8c0.1,0,0.2-0.2,0.2-0.3c0.2-0.7,0.8-1.3,1.6-1.7l0,0l0,0
					C510.3,385.9,511.2,385.9,511.8,386.2z M514.9,383.8c-1.2,0.5-2.2,7.2-0.3,11.6c1.3,2.9,3.3,3.3,4.3,2.8c1.7-0.8,1-3.2,0.6-4
					c-0.2-0.4-0.5-0.9-0.7-1.2c-0.5-0.6-1.1-1-1.7-1.1c-1-0.3-1.4-1-1.5-1.1c-0.4-0.8,0.7-2.2,1.2-2.4c1.3-0.6,2.5,1,3.1,2.4
					c1.1,2.4,1.1,4.4,1,4.7c0,0.2,0,0.3,0,0.4s0.1,0.1,0.1,0.1c0.8-0.4,0.7-3.9-0.6-6.6C519.5,387.2,516.1,383.3,514.9,383.8z"/>
			</g>
		</g>
	</g>
</g>
<path class="st0" d="M169.2,438.8l-10.3-2c-0.2,0-0.4-0.1-0.6-0.2l-15.8-0.8c-1.9-0.7-3.9,0.3-4.4,2.1c-0.1,0.3-0.2,0.8-0.1,1
	c0.2,1.5,1.4,2.6,2.9,2.8l10.8,1.3c2,1.3,2.1,4.2,0.1,5.6l-3.6,2.5c-0.6,0.3-1.3,0.6-1.9,0.6c0,0-5.3,0.6-7.9-4.2l0.7-4.3
	c0.8-1.8,0.3-4-1.4-5c-0.7-0.4-1.4-0.7-1.9-0.4c-1.6,0.8-5.6,8.9-4.7,10.3c0,0,1.3,2.5,3,5.1c0.3,0.3,0.6,0.8,0.8,1.4
	c0.4,0.9,1.4,4.2,2.6,4.4l10.5,3l0,0c1.1,0.2,2.2,0.2,3.3,0l29.7-3.2l1.4-0.3c2.4-0.3,1.4-4.7,0.3-8c-0.8-2.3-2.2-4.4-4.1-6
	l-3.6-3.1C173.2,440.1,171.3,439.2,169.2,438.8z"/>
<path class="st0" d="M147.6,462.3l-27.8,4.4c-1.9,0.3-3.6-1-4-2.9l0,0c-0.3-1.9,1-3.6,2.9-4l27.8-4.4c1.9-0.3,3.6,1,4,2.9l0,0
	C150.9,460.3,149.6,462.1,147.6,462.3z"/>
<path class="st0" d="M150.1,459.6l-27.8,4.4c-1.9,0.3-3.6-1-4-2.9l0,0c-0.3-1.9,1-3.6,2.9-4l27.8-4.4c1.9-0.3,3.6,1,4,2.9l0,0
	C153.2,457.6,152,459.4,150.1,459.6z"/>
<path class="st0" d="M134.1,459.5l-7.9,1.3c-1.9,0.3-3.6-1-4-2.9l0,0c-0.3-1.9,1-3.6,2.9-4l7.9-1.3c1.9-0.3,3.6,1,4,2.9l0,0
	C137.3,457.3,136,459.1,134.1,459.5z"/>
<path class="st0" d="M606.1,445.9l-3.6,3.1c-1.9,1.6-3.2,3.7-4.1,6c-1.2,3.3-2.2,7.6,0.3,8l1.4,0.3l29.7,3.2c1.1,0.2,2.2,0.1,3.3,0
	l0,0l10.5-3c1.3-0.1,2.2-3.4,2.6-4.4c0.2-0.5,0.5-1,0.8-1.4c1.7-2.5,3-5.1,3-5.1c0.9-1.4-3-9.6-4.7-10.3c-0.5-0.3-1.2,0-1.9,0.4
	c-1.7,1-2.3,3.2-1.4,5l0.7,4.3c-2.5,4.7-7.9,4.2-7.9,4.2c-0.7,0-1.4-0.3-1.9-0.6l-3.6-2.5c-2-1.4-1.9-4.3,0.1-5.6l10.8-1.3
	c1.5-0.2,2.8-1.4,2.9-2.8c0-0.3,0-0.7-0.1-1c-0.5-1.9-2.5-2.8-4.4-2.1l-15.8,0.8c-0.2,0.1-0.4,0.2-0.6,0.2l-10.3,2
	C609.6,443.6,607.7,444.6,606.1,445.9z"/>
<path class="st0" d="M633.5,466.5l27.8,4.4c1.9,0.3,3.6-1,4-2.9l0,0c0.3-1.9-1-3.6-2.9-4l-27.8-4.4c-1.9-0.3-3.6,1-4,2.9l0,0
	C630.3,464.5,631.7,466.2,633.5,466.5z"/>
<path class="st0" d="M631.2,463.9l27.8,4.4c1.9,0.3,3.6-1,4-2.9l0,0c0.3-1.9-1-3.6-2.9-4l-27.8-4.4c-1.9-0.3-3.6,1-4,2.9l0,0
	C627.9,461.8,629.2,463.5,631.2,463.9z"/>
<path class="st0" d="M646.6,463.5l8.4,1.4c1.9,0.3,3.6-1,4-2.9l0,0c0.3-1.9-1-3.6-2.9-4l-8.4-1.4c-1.9-0.3-3.6,1-4,2.9l0,0
	C643.4,461.4,644.7,463.2,646.6,463.5z"/>
</svg>
