<?xml version="1.0" encoding="utf-8"?>
<!-- Generator: Adobe Illustrator 26.0.3, SVG Export Plug-In . SVG Version: 6.00 Build 0)  -->
<svg version="1.1" id="Calque_9" xmlns="http://www.w3.org/2000/svg" xmlns:xlink="http://www.w3.org/1999/xlink" x="0px" y="0px"
	 viewBox="0 0 431 323.9" style="enable-background:new 0 0 431 323.9;" xml:space="preserve">
<style type="text/css">
	.st0{fill:#90573A;}
	.st1{fill:none;stroke:#383434;stroke-width:5;stroke-linecap:round;stroke-miterlimit:10;}
	.st2{fill:#383434;}
	.st3{clip-path:url(#SVGID_00000175288220239342944820000007832502779765542065_);}
	.st4{clip-path:url(#SVGID_00000028301184735785124970000009585053317259312565_);}
	.st5{fill:#3E0045;}
	.st6{fill:#6F412A;}
	.st7{fill:#ED5875;}
</style>
<path class="st0" d="M43.6,140.7c-2.4-5-2-7-1.5-7.6c2.2-2.7,9.3-10.9,9.9-12.8c0.6-2.3,2.1-12.7,2.9-14.5C55.7,104,63,95.4,62,94.7
	c-0.6-0.4-2.4-1.3-3.8-2c-1.3-0.6-2.9-0.4-3.9,0.6l-4.7,4.4c-0.4,0.4-0.7,0.9-0.9,1.3l-1.6,4.2c-0.7,1.9-3.4,1.7-3.8-0.3l0.2-3.1
	c-0.1-0.2-3.2-6.3-3.2-6.4c-1.4-2.7-7.6-0.8-7.6-0.8c-0.1-0.1-5.1,1.6-6.9,2.2c-0.4,0.2-0.9,0.4-1.3,0.5l-3.9,1.8
	c-3.4,1.5-6.2,4-8,7.2c-0.7,1.5-1.3,2.9-0.7,3.8c0.2,0.2,0.3,0.5,0.3,0.8l7.9,23.8c0.2,0.8,0.8,1.4,1.3,1.9l3.5,2.4
	c0.9,0.5,0.9,0.5,2,8.1L43.6,140.7z"/>
<g>
	<line class="st1" x1="27.3" y1="108.8" x2="409.8" y2="108.8"/>
	<path class="st2" d="M407.7,144.3l12.4-5.7c2.1-1,3.3-3.1,3.1-5.4c-0.7-7.7-2.4-24.5-4.8-25.8c-2.1-1.3-8.8-1-12.2-0.8
		c-1.3,0.1-0.8,2.1-0.8,2.1s7.7-1.1,7.1,1.7l-10.5,28.5C400.5,142.6,404.2,145.9,407.7,144.3z"/>
</g>
<path class="st0" d="M39.5,110.1l-12.2,5c-3.8,1.5-8.1-0.3-9.7-4.1l0,0c-1.5-3.8,0.3-8.1,4.1-9.7l12.2-5c3.8-1.5,8.1,0.3,9.7,4.1
	l0,0C45.1,104.2,43.2,108.6,39.5,110.1z"/>
<path class="st0" d="M160.4,126.1c0.2-0.6,23.2-4.6,29.2-13.6l1.3-56h43.5l2,53.3c0,0,3.5,6.4,35.1,14.7c31.6,8.2-51.4,24-51.4,24
	L160.4,126.1z"/>
<g>
	<g>
		<g>
			<defs>
				<rect id="SVGID_1_" x="112.4" y="53.7" width="100.1" height="210.7"/>
			</defs>
			<clipPath id="SVGID_00000158747912729512018500000010909494178418448541_">
				<use xlink:href="#SVGID_1_"  style="overflow:visible;"/>
			</clipPath>
			<g style="clip-path:url(#SVGID_00000158747912729512018500000010909494178418448541_);">
				<path class="st0" d="M227.1,230.2c10.4,6.8,21.6,33.8,33.7,36.6c4.4,1,13-5,15.3-8.8c8.6-13.6,4.5-51.6,16.7-62.2
					c10.3-8.8,35.2-3.8,35.8-41.1c0.3-22.6-26.1-33.5-32.6-35.8c-1-0.3-2.1-0.8-3.1-1.3c0,0-53.9,10.2-54.8-43.9L238,56.1l-26.2,2
					L191.3,59l-0.8,22.6l-1,31c-7.2,10.2-31.8,10.5-48.7,17c-11.2,4.4-34,21.7-26.2,46.3c4.5,14.1,18.1,9.4,28.6,18.3
					c12.2,10.4,7.7,30.8,9.4,41.3c1.1,6.9,11.1,24.9,15.3,23.9c12.1-2.8,18.9-23.4,29.9-29.3c3.2-1.8,9-2.8,14.8-2.8
					C218.4,227.2,224.1,228.3,227.1,230.2z"/>
			</g>
		</g>
	</g>
</g>
<g>
	<g>
		<g>
			<defs>
				<polygon id="SVGID_00000093171016472625532180000003564223396160334263_" points="212.5,53.7 212.5,264.4 314.2,266.5 
					314.2,55.9 				"/>
			</defs>
			<clipPath id="SVGID_00000174573409114744336120000012638954939035426458_">
				<use xlink:href="#SVGID_00000093171016472625532180000003564223396160334263_"  style="overflow:visible;"/>
			</clipPath>
			<g style="clip-path:url(#SVGID_00000174573409114744336120000012638954939035426458_);">
				<path class="st0" d="M198.6,227.7c-10.4,6.8-21.6,33.8-33.7,36.6c-4.4,1-13-5-15.3-8.8c-8.6-13.6-4.5-51.7-16.7-62.2
					c-10.3-8.8-35.2-3.8-35.8-41.1c-0.3-22.6,26.1-33.5,32.6-35.7c1-0.3,2.1-0.8,3.1-1.3c0,0,53.9,10.2,54.8-43.9l0.2-17.5l26.2,2
					l20.5,0.9l0.8,22.6l1,31c7.2,10.2,31.8,11.6,48.7,18.1c11.2,4.4,34.2,20.6,26.3,45.2c-4.5,14.1-18.1,9.4-28.6,18.3
					c-12.2,10.4-7.7,30.8-9.4,41.3c-1.1,6.9-11.1,24.9-15.3,23.9c-12.1-2.8-18.9-23.4-29.9-29.3
					C221.5,224.1,204.7,223.6,198.6,227.7z"/>
			</g>
		</g>
	</g>
</g>
<path class="st0" d="M267.8,154c1.8,24.5,16.6,29.9,24.5,37.9c12.7,12.7,28.8,47.1,38.4,62.2c4.6,7.1,17.7,21.8,28.6,14.6l0,0
	c13.4-10,7.1-26,3.4-33.3c-7.6-14.7-28.3-43.8-33.7-59.5c-4-11.6-5.6-24.1-21.6-36.3c0,0-15.6-13.4-28.8-6.9
	C270,136.8,267,143.9,267.8,154L267.8,154z"/>
<path class="st0" d="M356.5,237.4c15,7.7,11.1,21.1,8.6,27.7c-2.6,7.2-42.4,69.3-52.5,86.7c-5.7,9.9-8.5,15.2-14.7,12.4
	c-5.6-2.6-5.5-8.1-2-18.5c17.7-53,17.7-62.2,35.6-98.8C339.1,231.5,352.7,235.5,356.5,237.4z"/>
<path class="st0" d="M167.2,160.1c-4.8,24.1-20.2,27.7-29,34.6c-14.1,11-32.8,42.8-44.5,56.2c-5.5,6.4-20.7,19-30.4,10.3l0,0
	c-11.9-11.9-3.4-26.8,1.5-33.4c9.6-13.4,31.7-38.6,39.1-53.5c5.5-11.1,8.5-23.2,25.9-33.4c0,0,17.1-11.4,29.5-3.4
	C167,142.9,169.1,150.3,167.2,160.1L167.2,160.1z"/>
<path class="st0" d="M77.8,258.7c15.7-6,11.3-18.4,9.6-25.2c-1.9-7.4-35.1-73.7-43.5-91.9c-4.8-10.3-7.1-15.9-13.6-13.6
	c-5.8,2.1-4.7,13.8-3.6,18.3c12.7,48.2,16,59.5,29.5,102C62.6,268.3,73.8,260.3,77.8,258.7z"/>
<path class="st0" d="M260.9,361.5c-0.8-0.4-1.4-1.1-1.6-1.9c-0.4-1.4-0.9-3.3-0.3-3.8c0.9-0.8,17.2-8.6,18.1-8.4s17.7,0.2,18.9,0
	c1.2-0.2,12.8,9.3,12.2,10.1c-0.6,0.8-12.5,25.9-14.3,26.3c-1.8,0.4-8.3,4.4-9.2,4.1c-0.7-0.2-14-9.8-18.8-13.4
	c-1.1-0.8-1.6-2.1-1.2-3.4l1.1-4.3c0.4-1.5-0.3-3-1.7-3.7L260.9,361.5z"/>
<path class="st5" d="M340.1,187L313,143.1c-3.7-5.9-9.4-10.4-16.1-12.4l-30.7-9.5c-0.9-0.2-1.8-0.2-2.7,0c-6.9,2.4-39,13-51,12.7
	c-10.5-0.3-37.7-11.1-44.5-13.8c-1-0.3-2-0.4-3-0.1l-27,9.3c-8.1,2.8-15.1,7.7-20.3,14.4l-19.5,25c-2.1,2.7-1.9,6.6,0.4,9.1
	l30.8,32.9c1.9,2,5.2,1.8,6.7-0.4c2.4-3.5,7.7-2,8,2.1l4.9,82.3c0.1,2.8-0.6,5.5-2.1,7.8l-1,1.6c-0.7,0.9-1,2-1,3.1v3.5
	c0,3,2.5,5.6,5.6,5.6l100.1,1.1l21.8,0.2c0.1,0,0.2,0,0.3,0h2.2c3.1,0,5.7-2.5,5.7-5.6v-5c0-1.1-0.3-2.2-1-3.1l0,0
	c-1.6-2.2-2.2-4.9-2.1-7.6l4.3-89.1c0.2-4.4,5.9-5.7,8.1-1.9l6.9,12.4c1.2,2.2,4.3,2.9,6.4,1.3l35.8-26
	C340.8,191.5,341.3,189,340.1,187z"/>
<path class="st6" d="M189.6,110.6c0,0,35.6,12.8,46.1-12.1l-1.5-41.9h-43.5L189.6,110.6z"/>
<polygon class="st7" points="279.6,253.4 147.9,275.5 144.7,219.6 281.2,219.6 "/>
</svg>
