<?xml version="1.0" encoding="utf-8"?>
<!-- Generator: Adobe Illustrator 26.0.3, SVG Export Plug-In . SVG Version: 6.00 Build 0)  -->
<svg version="1.1" id="Calque_1" xmlns="http://www.w3.org/2000/svg" xmlns:xlink="http://www.w3.org/1999/xlink" x="0px" y="0px"
	 viewBox="0 0 476.1 323.9" style="enable-background:new 0 0 476.1 323.9;" xml:space="preserve">
<style type="text/css">
	.st0{fill:#375D63;}
	.st1{fill:#6F412A;}
	.st2{fill:#FF92CD;}
	.st3{fill:#90573A;}
	.st4{fill:#C58C85;}
	.st5{fill:#FFE2F8;}
	.st6{fill:#211843;}
	.st7{fill:#221944;}
</style>
<g id="Calque_1_00000148652165453699198480000002759560070733496492_">
	<path class="st0" d="M203.2,341.3c-21.3,2.3-40.7,9.2-63.9,16.8c0,0-10.5,0.5-9.9-0.1l-64.8-15.2l5.4-53.5c1-9.8,9.2-17.2,19-17.2
		h91.5c10.1,0,18.4,7.8,19,17.8L203.2,341.3z"/>
</g>
<rect x="117.2" y="50.8" class="st1" width="36.2" height="43.4"/>
<path class="st2" d="M199.5,117.4c7,3,10.5,10.7,8.4,17.9c-4.3,14.7-11.2,37-11.2,38.9c0,2.7-0.5,72-0.5,72l17.2,117.2
	c1.4,9.2-4.9,17.6-14.1,19c-0.1,0-0.2,0-0.2,0s-48.6,9.2-65,8.7c-15.8-0.6-62.1-13.2-62.1-13.2C63.7,376,58,368.2,59,359.6
	l14.1-117.4l-0.6-71.8L61,135.5c-2.4-7.3,1.2-15.3,8.2-18.4l43.3-18.8l1.9-13.8c0.2-1.4,1.4-2.4,2.7-2.3l36,0.4c1.4,0,2.5,1,2.7,2.4
	l1.6,14.4L199.5,117.4z"/>
<path class="st3" d="M265,203.7L265,203.7l-75.8-43.9l0,0c-9.7-5.6-12.7-18.1-6.9-28s18.5-13.4,28.2-7.7l0.5,0.3l72.6,55.1
	c7.2,5.6,9,14.1,4.6,20C283.2,206,276.3,210.5,265,203.7z"/>
<path class="st3" d="M322.9,101.4l8.6-15l17-16.6c0,0,2.7,3.8,2.6,5.3c-0.5,4.6-5.1,10.3-7.9,14.1c-0.4,0.5-0.5,3.3-0.2,3.8
	c1.6,2,6.4-0.1,6.4-0.1l-12.9,11.4L322.9,101.4z"/>
<path class="st3" d="M324.3,99.3l10.9,13.2L359,91.2c4.6-3.6,8.4-7.7,11.4-12.3l16.1-24.5c0,0-5.2-1-6.9-0.5
	c-8.8,3.3-18.9,19-25.6,25.1C346.8,85.6,324.3,99.3,324.3,99.3z"/>
<ellipse transform="matrix(0.6867 -0.7269 0.7269 0.6867 24.9075 272.361)" class="st3" cx="328.4" cy="107.3" rx="8.4" ry="8.5"/>
<path class="st3" d="M265.2,202.9c-9.6-6-11.3-17.2-5.6-26.8c0.1-0.2,3.1-4.2,3.1-4.2l57.4-66.5c0,0,3.8-6,10.3-1.5
	c6,3.9,1.6,10.6,1.6,10.6l-35.6,74.3c-4.1,8.6-9.9,16.1-19.3,17.8C273.4,207.3,268.3,204.8,265.2,202.9z"/>
<path class="st4" d="M296.2,199.4L296.2,199.4c0-0.3,0.2-0.5,0.3-0.6l0.1-0.1L296.2,199.4z"/>
<path class="st3" d="M21.9,230.8L21.9,230.8L21.9,230.8l26.4-93.6l0,0c3.4-11.9,16-18.7,28.2-15.1c12.2,3.6,19.4,16.2,16,28.2
	c-0.1,0.2-0.1,0.4-0.2,0.5C92.2,151.2,53,244,53,244c-4,9.2-12.7,13.5-20.2,10.4C24.4,251.1,17.6,244.9,21.9,230.8z"/>
<path class="st3" d="M142.8,262.1l18.4-3.7l25.7,2c0,0-1.2,4.9-2.5,6c-4.1,2.9-15.1,1-20,1.6c-0.6,0.1-2.2,0.6-2.3,1.3
	c-0.5,2.7,6.8,8.7,6.8,8.7l-18.6-2.5L142.8,262.1z"/>
<path class="st3" d="M147.4,265l-5.5,17.2l33.7,13.5l38,0.7c0,0-1-5.4-2.2-6.7c-6.4-6.1-25.5-6.5-33.8-9.2
	C168.5,277.9,147.4,265,147.4,265z"/>
<path class="st4" d="M35,263.2L35,263.2l0.7,0.2l0.2,0.1L35,263.2z"/>
<path class="st5" d="M212.9,123.7l-16.2,64L72.7,207l-15.6-82.2c-0.3-1.4,0.5-2.7,1.7-3.2l53.7-23.3l45,0.9l53.6,21.1
	C212.5,120.9,213.2,122.4,212.9,123.7z"/>
<path class="st6" d="M329.3,106.4c0.6,1,1.8,1,2.7,0.1L417.7,5.9l-88.5,96.6c-0.8,0.8-0.9,2.4-0.3,3.3L329.3,106.4z"/>
<path class="st3" d="M331.3,112.5l6.5-10.9c-2.4-2.2-2.6-6-0.4-8.3l12.5-13.8c2.2-2.4,6-2.6,8.3-0.4l3.7,3.3c2.4,2.2,2.6,6,0.4,8.3
	l-12.6,13.9C347.6,107,333.6,114.7,331.3,112.5z"/>
<path class="st7" d="M129.2,301.4l-62.8-16.3c-3.2-0.8-5.5-3.8-5.5-7V156.1c0-4.8,4.5-8.2,9.2-7l62.8,16.3c3.2,0.8,5.5,3.8,5.5,7
	v121.9C138.4,299.1,133.8,302.6,129.2,301.4z"/>
<g id="I971h2_00000067219755369311645200000005868042954794575240_">
	<g>
		<path class="st5" d="M90.9,277.8c4.9,2.3,8.7,1,10.6-3.4c2.6-5.7,2.1-11.4,0-17.1c-0.5-1.6-1.7-1.5-3-1.4
			c-10.2,0.3-18.5-3.4-23.5-12.5c-4.9-8.8-4.8-17.9,0.8-26.5c3-4.7,7-8.8,10.7-12.9c2.1-2.4,3-4.5,2.1-7.9c-2-7.5-2.1-15.2,0.2-22.7
			c0.5-1.8,1.5-3.8,2.6-5.3c3.8-5.3,10-5.1,13.7,0.4c2.6,3.8,2.8,8,2.4,12.3c-1,9.4-3.7,18.3-9.9,25.9c-2.8,3.4-2.8,9.4-0.3,12.8
			c0.4,0.5,1.2,0.6,1.8,0.6c7.6,0.6,12.6,4.6,15,11.6c2.4,7.3,1,13.4-5.2,18.1c-3.9,3-4.6,6-3.3,10.6c1.2,3.9,1.5,8.2,1.6,12.5
			c0.1,3.1-1.9,5.6-4.5,7.3c-4.9,3.5-12.4,3.4-17-0.2c-3.5-2.6-4.7-6.2-3.9-10.3c0.6-3.2,2.7-5.2,5.9-6.1c3.4-0.9,6.6,0.5,8,3.4
			c1.6,3.5,0.7,7.1-2.2,9.2C92.7,276.7,91.9,277.2,90.9,277.8z M95.7,230.8c-6.8,3.6-7.4,8.8-2.1,13.5c0.9,0.8,1.6,1.9,2.7,3.1
			c-4.9,0.3-8.3-2.1-10-6.3c-2.7-7-0.2-14.5,7.1-20.4c-0.6-2.3-1.4-4.7-2.2-7.6c-2.9,3.6-5.9,6.5-8.1,9.8c-1.9,2.9-3.5,6.2-4.2,9.5
			c-1.4,6.1,0.7,11.4,5.6,15.5c4.5,3.7,9.6,4.7,15.6,3C98.4,244.1,97.1,237.5,95.7,230.8z M92.6,197.2c5.1-5,8.4-10.3,9.7-16.6
			c0.3-1.3,0.5-2.9,0-3.9c-0.8-1.6-2.1-3.3-3.6-3.8c-0.8-0.3-3,1.5-3.6,2.8C91.9,182.4,91.5,189.4,92.6,197.2z M103.5,249.5
			c4.3-3,5.7-8.6,3.8-13.9c-1.4-3.8-4-5.8-7.7-5.4C100.8,236.5,102.1,242.8,103.5,249.5z"/>
	</g>
</g>
<g id="I971h2_00000031198194278168428470000017436679332327562150_">
	<g>
		<path class="st7" d="M365.7,121.9c1.4,1.4,2.8,1.4,4,0.1c1.6-1.6,2.1-3.6,2-5.8c0-0.6-0.5-0.7-0.8-0.8c-3.5-1.1-5.9-3.4-6.5-7
			c-0.6-3.6,0.5-6.6,3.5-8.9c1.6-1.2,3.4-2.1,5.1-3.1c1-0.5,1.6-1.2,1.6-2.4c0.2-2.7,1.1-5.4,2.8-7.7c0.5-0.5,0.9-1.1,1.6-1.5
			c1.9-1.4,4-0.5,4.6,1.7c0.4,1.6,0,3-0.6,4.4c-1.5,3.1-3.5,5.8-6.5,7.5c-1.4,0.8-2.1,2.8-1.6,4.3c0.1,0.2,0.4,0.4,0.5,0.5
			c2.5,1.1,3.8,3,3.7,5.8c-0.1,2.7-1.3,4.7-3.9,5.5c-1.7,0.5-2.3,1.5-2.4,3.2c-0.1,1.5-0.5,2.9-0.9,4.4c-0.4,1.1-1.3,1.6-2.4,1.9
			c-2,0.5-4.6-0.4-5.8-2.1c-0.8-1.3-0.8-2.7-0.1-3.9c0.5-1,1.6-1.5,2.7-1.4c1.3,0.1,2.2,0.9,2.3,2.1c0.1,1.4-0.6,2.5-1.8,2.8
			C366.4,121.7,366.1,121.8,365.7,121.9z M373,106.6c-2.7,0.4-3.6,2.1-2.3,4.3c0.2,0.4,0.3,0.8,0.5,1.4c-1.6-0.5-2.6-1.7-2.7-3.4
			c-0.1-2.7,1.6-4.9,4.9-6c0.1-0.8,0.1-1.7,0.2-2.8c-1.5,0.8-2.7,1.5-3.9,2.4c-1,0.7-1.9,1.6-2.6,2.7c-1.2,1.9-1.1,3.9,0,5.9
			c1.1,1.7,2.7,2.7,4.9,2.9C372.3,111.5,372.6,109.1,373,106.6z M375.9,94.9c2.3-1.1,4.1-2.5,5.2-4.5c0.3-0.4,0.5-0.9,0.5-1.4
			c-0.1-0.6-0.3-1.4-0.7-1.7c-0.3-0.2-1.2,0.2-1.6,0.5C377.5,89.9,376.5,92.1,375.9,94.9z M373.4,113.8c1.8-0.5,2.9-2.2,2.9-4.2
			c0-1.5-0.6-2.4-1.9-2.7C374,109.2,373.7,111.5,373.4,113.8z"/>
	</g>
</g>
<path class="st3" d="M22.7,230.9c3.9-11.9,15.4-16.8,27.3-13.4c0.3,0.1,5.4,2.1,5.4,2.1l87.1,43.5c0,0,7.4,2.5,4.5,10.7
	c-2.7,7.4-11,4.7-11,4.7l-89.6-17.9c-10.3-2-20-6.2-24.4-15.8C20.3,240.8,21.5,234.6,22.7,230.9z"/>
<path class="st7" d="M435,34.8c2.4-0.3,4.7-0.5,7-0.8c-0.5,1.8-0.8,3.7-1.3,5.4c-0.2,0.7-0.3,1.4-0.5,2.1c-0.3,1.2-1.6,1.9-2.8,1.4
	c-0.5-0.2-0.8-0.5-0.9-1.1c-0.1-0.6,0.2-1.1,0.7-1.4c0.8-0.5,1.6-0.5,2.6,0.2c0.1-1.2,0.3-2.3,0.4-3.5c-0.5,0.2-0.9,0.3-1.3,0.4
	c-0.9,0.3-1.7,0.5-2.7,0.8c-0.5,0.1-0.6,0.4-0.7,0.8c-0.3,1.3-0.5,2.6-0.8,3.8c-0.4,1.3-1.6,2-2.8,1.6c-0.5-0.2-0.8-0.5-0.9-1
	c-0.1-0.5,0.1-1,0.5-1.4c0.7-0.6,1.7-0.6,2.7,0.1C434.5,39.8,434.7,37.3,435,34.8z M440.3,35.6c-1.3,0.4-2.5,0.6-3.7,0.9
	c-0.5,0.2-0.7,0.4-0.6,1.1c1.1-0.3,2.3-0.5,3.4-0.8C440.4,36.6,440.4,36.6,440.3,35.6z"/>
<path class="st7" d="M417.1,71.5c0.2-3.3-2.7-3.7-4.7-5c0.4,2.9,0.7,5.7,1.1,8.4c0.3,2.4-1.7,4.7-4.1,4.6c-1.1-0.1-2-0.5-2.5-1.6
	c-0.5-1.2-0.2-2.3,0.6-3.1c1.2-1.4,2.7-1.8,4.7-1.1c-1-3.9-1.9-7.7-2.9-11.4c-0.2-0.6-0.3-1.3-0.5-1.9c-0.2-0.7,0.1-1,0.8-1
	c0.2,0,0.5,0,0.6-0.1c1.1-0.4,1.6,0,2.1,1.1c0.3,0.7,1,1.4,1.6,2c0.8,0.8,1.8,1.5,2.6,2.3c0.7,0.8,1,1.9,0.6,3.1
	c-0.1,0.3,0,0.7,0.2,1C417.6,69.6,417.8,70.5,417.1,71.5z M412.2,63c0.7,2.5,2.9,3.1,4.5,4.8C416.6,64.7,414.1,64.3,412.2,63z"/>
<path class="st7" d="M437.5,1.8c0.5,0.1,0.8,0.2,1.3,0.3c-0.2,1.2-0.5,2.3-0.6,3.4s-0.4,2.1-0.6,3.2c-0.2,1.1-1.3,1.8-2.4,1.5
	c-0.5-0.2-0.7-0.5-0.8-0.9c-0.1-0.5,0.2-0.8,0.5-1.1c0.7-0.5,1.5-0.5,2.2,0.1C437.1,6,437.3,4,437.5,1.8z"/>
<ellipse class="st3" cx="145.5" cy="272.2" rx="10.5" ry="10.5"/>
</svg>
