<?xml version="1.0" encoding="utf-8"?>
<!-- Generator: Adobe Illustrator 26.0.3, SVG Export Plug-In . SVG Version: 6.00 Build 0)  -->
<svg version="1.1" id="Layer_1" xmlns="http://www.w3.org/2000/svg" xmlns:xlink="http://www.w3.org/1999/xlink" x="0px" y="0px"
	 viewBox="0 0 788 1005" style="enable-background:new 0 0 788 1005;" xml:space="preserve">
<style type="text/css">
	.st0{fill:#375D63;}
	.st1{fill:#6F412A;}
	.st2{fill:#FF92CD;}
	.st3{fill:#90573A;}
	.st4{fill:#C58C85;}
	.st5{fill:#FFE2F8;}
	.st6{fill:#211843;}
	.st7{fill:#221944;}
</style>
<g>
	<g id="Calque_1">
		<path class="st0" d="M456,550c-20.4,2.2-38.9,8.7-61,16c0,0-10.1,0.4-9.4-0.1l-61.9-14.5l5.2-51c1-9.4,8.8-16.4,18.2-16.4h87.3
			c9.6,0,17.6,7.4,18.2,17L456,550z"/>
	</g>
	<rect x="374" y="272.6" class="st1" width="34.5" height="41.4"/>
	<path class="st2" d="M452.5,336.3c6.6,2.9,10.1,10.2,8,17.1c-4.1,14.1-10.7,35.3-10.7,37.1c0,2.6-0.5,68.7-0.5,68.7l16.4,111.9
		c1.3,8.7-4.7,16.8-13.5,18.1c-0.1,0-0.2,0-0.2,0s-46.4,8.8-62.1,8.3c-15.1-0.6-59.3-12.6-59.3-12.6c-8-1.7-13.5-9.3-12.5-17.5
		l13.5-112l-0.6-68.5l-10.9-33.3c-2.3-7,1.1-14.6,7.9-17.6l41.3-17.9l1.8-13.2c0.2-1.3,1.3-2.3,2.6-2.2l34.3,0.3
		c1.3,0,2.4,1,2.5,2.3l1.5,13.7L452.5,336.3z"/>
	<path class="st3" d="M515,418.6L515,418.6l-72.4-42l0,0c-9.3-5.3-12.1-17.3-6.6-26.7s17.7-12.8,26.9-7.3l0.4,0.3l69.3,52.6
		c6.9,5.3,8.6,13.5,4.4,19.1C532.4,420.9,525.9,425.2,515,418.6z"/>
	<path class="st3" d="M570.3,321l8.2-14.3l16.3-15.8c0,0,2.6,3.7,2.4,5.1c-0.4,4.4-4.9,9.9-7.5,13.5c-0.3,0.4-0.5,3.1-0.2,3.7
		c1.5,1.9,6.1-0.1,6.1-0.1l-12.3,10.8L570.3,321z"/>
	<path class="st3" d="M571.7,319l10.4,12.6l22.7-20.3c4.4-3.4,8-7.3,10.9-11.7l15.4-23.4c0,0-5-1-6.6-0.4
		c-8.4,3.1-18,18.2-24.5,23.9C593.2,305.9,571.7,319,571.7,319z"/>
	<ellipse transform="matrix(0.6867 -0.7269 0.7269 0.6867 -57.0845 520.7406)" class="st3" cx="575.6" cy="326.6" rx="8" ry="8.1"/>
	<path class="st3" d="M515.3,417.9c-9.2-5.8-10.8-16.4-5.3-25.6c0.1-0.2,3-4,3-4l54.8-63.5c0,0,3.6-5.7,9.9-1.4
		c5.7,3.8,1.6,10.1,1.6,10.1l-34,71c-3.9,8.2-9.4,15.4-18.4,17C523.1,422.1,518.2,419.7,515.3,417.9z"/>
	<path class="st4" d="M544.8,414.6L544.8,414.6c0-0.3,0.2-0.4,0.3-0.6l0.1-0.1L544.8,414.6z"/>
	<path class="st3" d="M283,444.6L283,444.6L283,444.6l25.2-89.3l0,0c3.2-11.4,15.3-17.8,26.9-14.4c11.6,3.4,18.5,15.5,15.3,26.9
		c-0.1,0.2-0.1,0.3-0.2,0.5c-0.1,0.3-37.5,88.9-37.5,88.9c-3.8,8.8-12.1,12.8-19.3,10C285.3,463.9,278.9,457.9,283,444.6z"/>
	<path class="st3" d="M398.4,474.4l17.6-3.5l24.6,1.9c0,0-1.1,4.7-2.4,5.7c-3.9,2.8-14.4,1-19.1,1.5c-0.6,0.1-2.1,0.6-2.2,1.2
		c-0.5,2.5,6.5,8.3,6.5,8.3l-17.7-2.4L398.4,474.4z"/>
	<path class="st3" d="M402.8,477.2l-5.2,16.4l32.2,12.9l36.3,0.7c0,0-1-5.2-2.1-6.4c-6.1-5.9-24.3-6.2-32.3-8.7
		C422.9,489.5,402.8,477.2,402.8,477.2z"/>
	<ellipse class="st3" cx="401" cy="484.1" rx="10.1" ry="10.1"/>
	<path class="st4" d="M295.5,475.4L295.5,475.4l0.7,0.2l0.2,0.1L295.5,475.4z"/>
	<path class="st5" d="M465.3,342.3l-15.5,61.1l-118.3,18.4l-14.9-78.5c-0.3-1.3,0.4-2.5,1.7-3.1l51.3-22.2l42.9,0.9l51.2,20.1
		C464.9,339.6,465.6,341,465.3,342.3z"/>
	<path class="st6" d="M576.5,325.8c0.6,1,1.7,1,2.5,0.1l81.8-96.1L576.3,322c-0.8,0.8-0.9,2.3-0.3,3.1L576.5,325.8z"/>
	<path class="st3" d="M578.3,331.6l6.2-10.4c-2.3-2.1-2.4-5.7-0.3-8l12-13.2c2.1-2.3,5.7-2.4,8-0.3l3.5,3.1c2.3,2.1,2.4,5.7,0.3,8
		L595.9,324C593.9,326.3,580.6,333.7,578.3,331.6z"/>
	<path class="st7" d="M385.4,511.9l-60-15.6c-3.1-0.8-5.2-3.6-5.2-6.7V373.2c0-4.5,4.3-7.9,8.7-6.7l60,15.6c3.1,0.8,5.2,3.6,5.2,6.7
		v116.3C394.1,509.8,389.8,513.1,385.4,511.9z"/>
	<g id="I971h2_00000067219755369311645200000005868042954794575240_">
		<g>
			<path class="st5" d="M348.9,489.4c4.6,2.2,8.3,1,10.1-3.2c2.4-5.4,2-10.9,0-16.3c-0.5-1.6-1.7-1.4-2.9-1.3
				c-9.7,0.3-17.7-3.2-22.5-12c-4.7-8.4-4.5-17.1,0.8-25.3c2.9-4.5,6.6-8.4,10.2-12.3c2-2.3,2.9-4.3,2-7.5c-1.9-7.2-2-14.5,0.2-21.7
				c0.5-1.7,1.4-3.6,2.4-5.1c3.7-5.1,9.5-4.9,13.1,0.3c2.4,3.6,2.7,7.6,2.3,11.7c-1,9-3.5,17.5-9.4,24.7c-2.7,3.2-2.7,9-0.3,12.2
				c0.3,0.4,1.1,0.6,1.7,0.6c7.3,0.6,12.1,4.4,14.3,11.1c2.3,7,1,12.8-5,17.3c-3.8,2.9-4.4,5.8-3.1,10.1c1.1,3.8,1.4,7.9,1.5,11.9
				c0.1,3-1.8,5.3-4.3,7c-4.6,3.3-11.8,3.2-16.3-0.2c-3.3-2.4-4.5-5.9-3.8-9.9c0.6-3.1,2.5-5,5.6-5.9c3.2-0.9,6.3,0.4,7.6,3.2
				c1.6,3.3,0.7,6.8-2.1,8.7C350.5,488.4,349.8,488.8,348.9,489.4z M353.4,444.5c-6.5,3.4-7.1,8.4-2,12.8c0.9,0.8,1.5,1.8,2.5,3
				c-4.6,0.3-8-2-9.5-6c-2.6-6.7-0.2-13.8,6.8-19.5c-0.6-2.2-1.3-4.5-2.1-7.3c-2.8,3.4-5.6,6.2-7.7,9.4c-1.8,2.8-3.3,5.9-4,9.1
				c-1.3,5.9,0.7,10.9,5.3,14.8c4.3,3.5,9.2,4.5,14.9,2.9C356,457.2,354.7,450.9,353.4,444.5z M350.4,412.5c4.9-4.8,8-9.8,9.3-15.8
				c0.3-1.2,0.4-2.8,0-3.8c-0.8-1.5-2-3.1-3.4-3.6c-0.8-0.3-2.9,1.4-3.4,2.7C349.8,398.3,349.4,405,350.4,412.5z M360.8,462.4
				c4.1-2.9,5.4-8.2,3.6-13.3c-1.3-3.7-3.8-5.5-7.3-5.2C358.3,450,359.5,456,360.8,462.4z"/>
		</g>
	</g>
	<g id="I971h2_00000031198194278168428470000017436679332327562150_">
		<g>
			<path class="st7" d="M611.2,340.6c1.3,1.3,2.7,1.3,3.8,0.1c1.5-1.6,2-3.4,1.9-5.5c0-0.6-0.4-0.7-0.8-0.8c-3.3-1-5.6-3.2-6.2-6.7
				c-0.6-3.4,0.5-6.3,3.3-8.5c1.5-1.1,3.2-2,4.9-3c1-0.5,1.5-1.1,1.6-2.3c0.2-2.6,1-5.2,2.7-7.3c0.4-0.5,0.9-1,1.5-1.4
				c1.8-1.3,3.8-0.5,4.4,1.7c0.3,1.5,0,2.9-0.6,4.2c-1.4,3-3.3,5.5-6.2,7.2c-1.3,0.8-2,2.7-1.6,4.1c0.1,0.2,0.3,0.3,0.5,0.4
				c2.4,1,3.6,2.9,3.5,5.5s-1.2,4.5-3.8,5.2c-1.7,0.5-2.2,1.4-2.3,3.1c-0.1,1.4-0.4,2.8-0.9,4.2c-0.3,1-1.2,1.6-2.3,1.8
				c-1.9,0.5-4.4-0.3-5.5-2c-0.8-1.2-0.8-2.5-0.1-3.8c0.5-1,1.5-1.4,2.6-1.3c1.2,0.1,2.1,0.9,2.2,2c0.1,1.3-0.6,2.4-1.7,2.7
				C611.9,340.4,611.6,340.5,611.2,340.6z M618.2,326c-2.6,0.3-3.4,2-2.2,4.1c0.2,0.3,0.3,0.8,0.5,1.3c-1.6-0.4-2.4-1.7-2.5-3.2
				c-0.1-2.6,1.6-4.6,4.6-5.8c0.1-0.8,0.1-1.7,0.2-2.7c-1.4,0.8-2.6,1.4-3.8,2.3c-1,0.7-1.8,1.6-2.4,2.6c-1.1,1.8-1,3.8,0,5.6
				c1,1.7,2.5,2.6,4.6,2.8C617.5,330.6,617.8,328.3,618.2,326z M621,314.8c2.2-1,3.9-2.4,5-4.3c0.3-0.3,0.5-0.9,0.4-1.3
				c-0.1-0.6-0.3-1.3-0.7-1.7c-0.3-0.2-1.1,0.2-1.5,0.5C622.4,310,621.5,312.1,621,314.8z M618.5,332.9c1.7-0.4,2.8-2.1,2.8-4
				c0-1.4-0.6-2.3-1.8-2.6C619.1,328.4,618.9,330.6,618.5,332.9z"/>
		</g>
	</g>
	<path class="st3" d="M283.8,444.7c3.8-11.4,14.7-16.1,26-12.8c0.3,0.1,5.2,2,5.2,2l83.1,41.5c0,0,7.1,2.4,4.3,10.2
		c-2.5,7.1-10.5,4.5-10.5,4.5l-85.6-17c-9.9-1.9-19.1-5.9-23.2-15.1C281.4,454.1,282.6,448.1,283.8,444.7z"/>
	<path class="st7" d="M677.3,257.4c2.3-0.3,4.5-0.5,6.6-0.8c-0.4,1.7-0.8,3.5-1.2,5.2c-0.2,0.7-0.3,1.3-0.4,2
		c-0.3,1.1-1.6,1.8-2.7,1.3c-0.4-0.2-0.8-0.5-0.9-1c-0.1-0.6,0.2-1,0.7-1.3c0.8-0.5,1.6-0.4,2.4,0.2c0.1-1.1,0.3-2.2,0.3-3.3
		c-0.4,0.2-0.9,0.3-1.2,0.3c-0.9,0.3-1.7,0.5-2.5,0.8c-0.4,0.1-0.6,0.3-0.7,0.8c-0.3,1.2-0.5,2.4-0.8,3.7c-0.3,1.2-1.5,1.9-2.7,1.5
		c-0.4-0.2-0.8-0.5-0.9-1c-0.1-0.5,0.1-1,0.5-1.3c0.7-0.6,1.7-0.6,2.6,0.1C676.9,262.2,677.1,259.8,677.3,257.4z M682.4,258.1
		c-1.2,0.3-2.4,0.6-3.5,0.9c-0.5,0.2-0.7,0.3-0.6,1c1-0.3,2.2-0.5,3.2-0.8C682.5,259.1,682.5,259.1,682.4,258.1z"/>
	<path class="st7" d="M660.3,292.4c0.2-3.1-2.5-3.5-4.5-4.8c0.3,2.8,0.7,5.4,1,8c0.3,2.3-1.7,4.5-3.9,4.4c-1-0.1-1.9-0.4-2.4-1.5
		c-0.4-1.1-0.2-2.2,0.6-3c1.1-1.3,2.6-1.7,4.5-1c-1-3.8-1.8-7.3-2.8-10.9c-0.2-0.6-0.3-1.2-0.4-1.8c-0.2-0.7,0.1-1,0.8-1
		c0.2,0,0.4,0,0.6-0.1c1-0.3,1.6,0,2,1c0.3,0.7,1,1.3,1.6,1.9c0.8,0.8,1.7,1.4,2.4,2.2c0.7,0.8,1,1.8,0.6,3c-0.1,0.3,0,0.7,0.2,1
		C660.7,290.6,660.9,291.5,660.3,292.4z M655.6,284.4c0.7,2.4,2.8,3,4.3,4.5C659.8,285.9,657.4,285.6,655.6,284.4z"/>
	<path class="st7" d="M679.7,225.9c0.4,0.1,0.8,0.2,1.2,0.3c-0.2,1.1-0.4,2.2-0.6,3.2c-0.2,1-0.3,2-0.6,3.1c-0.2,1-1.2,1.7-2.3,1.4
		c-0.4-0.2-0.7-0.4-0.8-0.9c-0.1-0.4,0.2-0.8,0.5-1c0.7-0.4,1.4-0.4,2.1,0.1C679.3,229.9,679.5,228,679.7,225.9z"/>
</g>
</svg>
