<svg xmlns="http://www.w3.org/2000/svg" viewBox="0 0 138.97 166.1"><defs><style>.cls-1{fill:#87442d;}.cls-2{fill:#aa5b3f;}.cls-3{fill:#472e1d;}</style></defs><g id="cheuveu"><path class="cls-1" d="M106.79,115.87l3-22.79s11.85-9.44,19.21-3.56c4.62,3.7-4.47,28.24-12.61,30C111.77,120.55,106.79,115.87,106.79,115.87Z"/><path class="cls-1" d="M32.17,115.87l-3-22.79S17.29,83.64,9.92,89.52c-4.61,3.7,4.48,28.24,12.61,30C27.19,120.55,32.17,115.87,32.17,115.87Z"/><path class="cls-2" d="M67.66,156c-3-.26-7.2-.36-9.42-1.2-5.44-2.06-11.82-7.67-18.62-14a23,23,0,0,1-4-4.52c-3.57-5.9-5.36-20.14-5.5-27a120.26,120.26,0,0,0-1.66-16l-4.09-2.9.35-20.73c0-21.49,20.73-39.72,42.22-39.72h4.56c21.49,0,42.22,18.23,42.22,39.72l.35,20.73L110,93.22a120.26,120.26,0,0,0-1.66,16c-.14,6.9-1.93,21.14-5.5,27a23,23,0,0,1-4,4.52c-6.8,6.31-13.17,11.92-18.62,14-2.22.84-6.37.94-9.42,1.2"/><path class="cls-3" d="M26.18,91.61s-5.35-2.06-6.49-5.9C17.6,78.71,21,57.06,21,57.06s2.38,5.58,4.61,5c-4.1-4.15-.8-16.7-.8-16.7l5.74,6.83S28,42.4,28.6,38.68c1-6.07,11.53-14.13,11.53-14.13l4.45,6.58a15.7,15.7,0,0,1,2.3-8.91c1.88-2.74,10.21-9.32,10.21-9.32l6.09,15.49S66.53,15,65.28,10.1c1.7,1.76,13.2,6.74,13.55,17.47,4.06.68,10.42-9.24,11.34-9.19-3.12,8.87,11.08,12.06,7.58,20.7,1.7.63,5.43-4.82,5.43-4.82s5.83,7.27,3.64,13.46c2.52.17,3.79-7.82,3.79-7.82s4.77,10.22,5.42,13.32-.48,11.22-.48,11.22l4.09-4.93s2.83,21.95,1.92,24.65c-1.72,5.1-9.32,7.45-9.32,7.45s-4.3-37.13-14.44-39.08c-5.53-1.06-23.15,2.18-29.56,2.13-9.66-.07-22.62-.79-25.91-.37C29.45,55.94,26.18,91.61,26.18,91.61Z"/></g></svg>