<svg xmlns="http://www.w3.org/2000/svg" viewBox="0 0 788 1005"><defs><style>.cls-1{fill:#87442d;}.cls-2{fill:#aa5b3f;}.cls-3{fill:#472e1d;}</style></defs><g id="Tete"><path class="cls-1" d="M432.34,127.92l3-22.8s11.84-9.44,19.2-3.56c4.62,3.7-4.47,28.24-12.61,30C437.32,132.59,432.34,127.92,432.34,127.92Z"/><path class="cls-1" d="M357.72,127.92l-3-22.8s-11.85-9.44-19.21-3.56c-4.62,3.7,4.47,28.24,12.61,30C352.74,132.59,357.72,127.92,357.72,127.92Z"/><path class="cls-2" d="M393.2,168c-3.05-.26-7.19-.36-9.42-1.2-5.44-2.06-11.82-7.67-18.62-14a23,23,0,0,1-4-4.52c-3.57-5.9-5.35-20.14-5.5-27a119.26,119.26,0,0,0-1.65-16l-4.1-2.9.35-20.73c0-21.49,20.73-39.72,42.22-39.72H397c21.49,0,42.22,18.23,42.22,39.72l.35,20.73-4.1,2.9a121.15,121.15,0,0,0-1.65,16c-.15,6.9-1.93,21.14-5.5,27a23,23,0,0,1-4,4.52c-6.8,6.31-13.18,11.92-18.62,14-2.22.84-6.37.94-9.42,1.2"/></g><g id="cheuveu"><path class="cls-3" d="M351.72,103.65s-5.34-2.06-6.49-5.89c-2.09-7,1.34-28.66,1.34-28.66s2.38,5.59,4.62,5.05c-4.11-4.14-.81-16.7-.81-16.7l5.75,6.83s-2.59-9.84-2-13.56c1-6.07,11.53-14.13,11.53-14.13l4.44,6.58a15.75,15.75,0,0,1,2.31-8.91c1.87-2.74,10.21-9.32,10.21-9.32l6.09,15.49s3.35-13.37,2.1-18.29c1.69,1.76,13.2,6.74,13.54,17.47,4.07.68,10.42-9.24,11.35-9.19-3.12,8.87,11.07,12.06,7.58,20.7,1.7.63,5.43-4.82,5.43-4.82s5.82,7.27,3.63,13.46c2.52.17,3.79-7.82,3.79-7.82s4.77,10.22,5.42,13.32c.69,3.26-.48,11.22-.48,11.22l4.1-4.93s2.82,22,1.91,24.65c-1.72,5.11-9.31,7.45-9.31,7.45s-4.31-37.13-14.45-39.08c-5.53-1.06-23.15,2.18-29.56,2.13-9.65-.07-22.62-.79-25.91-.37C355,68,351.72,103.65,351.72,103.65Z"/></g></svg>