<svg xmlns="http://www.w3.org/2000/svg" viewBox="0 0 788 1005"><defs><style>.cls-1{fill:#87442d;}.cls-2{fill:#aa5b3f;}.cls-3{fill:#6d3b25;}.cls-4{fill:#472e1d;}</style></defs><g id="Tete"><path class="cls-1" d="M432.34,127.92l3-22.8s11.84-9.44,19.2-3.56c4.62,3.7-4.47,28.24-12.61,30C437.32,132.59,432.34,127.92,432.34,127.92Z"/><path class="cls-1" d="M357.72,127.92l-3-22.8s-11.85-9.44-19.21-3.56c-4.62,3.7,4.47,28.24,12.61,30C352.74,132.59,357.72,127.92,357.72,127.92Z"/><path class="cls-2" d="M393.2,168c-3.05-.26-7.19-.36-9.42-1.2-5.44-2.06-11.82-7.67-18.62-14a23,23,0,0,1-4-4.52c-3.57-5.9-5.35-20.14-5.5-27a119.26,119.26,0,0,0-1.65-16l-4.1-2.9.35-20.73c0-21.49,20.73-39.72,42.22-39.72H397c21.49,0,42.22,18.23,42.22,39.72l.35,20.73-4.1,2.9a121.15,121.15,0,0,0-1.65,16c-.15,6.9-1.93,21.14-5.5,27a23,23,0,0,1-4,4.52c-6.8,6.31-13.18,11.92-18.62,14-2.22.84-6.37.94-9.42,1.2"/></g><g id="cheuveu"><path class="cls-3" d="M400.65,38.82h-.2a38.62,38.62,0,0,1-11.33-1.4,57.55,57.55,0,0,1,8.61.25c.66.08,1.31.16,1.94.27C400,38.21,400.33,38.51,400.65,38.82Z"/><path class="cls-4" d="M454.18,97.06c-4,5-11-2.09-7.07-7.07,1.71-2.16.92-7.52.83-10a25.08,25.08,0,0,0-1.84-9.61,19,19,0,0,1-.6,3.38l-6.21,21s-2.72-14.08-3.37-16.58a82.44,82.44,0,0,1-.88-8.92l-2.14,5a23,23,0,0,1-10.09-10c-.84-1.57-3.45-7.8-3.45-7.8s-11.67,8.83-19.28,13.32C397.49,73,395,76.81,394,80.45c.36,4.32-4.94,8.33-8.23,4.22-2.24-2.79-1.93-5.65-.8-8.48l-.43.42c-3.27,3.07-7,5.74-9.36,9.63-3.32,5.51-12,.48-8.63-5a38.68,38.68,0,0,1,7.24-8.3c-3,1.5-12.37,6.21-15.24,8.49a24.8,24.8,0,0,0-8.38,14.24S345.22,84.46,345.26,75a48.73,48.73,0,0,0-2.71,11.14c-.76,6.32-10.77,6.38-10,0a66.72,66.72,0,0,1,3-13.57c-3.61,3.72-10.75-1-7.82-6.16a39.12,39.12,0,0,1,30.39-19.66,35.89,35.89,0,0,1,11.34-3.42c-.92,0-1.84,0-2.76,0-4,.06-8.38-.19-11.95,1.77-5.65,3.11-10.69-5.53-5.05-8.63,7.25-4,17.11-3.7,25.13-2.89a43.1,43.1,0,0,1,11.93,3c.78.31,1.55.58,2.32.81a38.62,38.62,0,0,0,11.33,1.4h.2c-.32-.31-.65-.61-1-.89a24.63,24.63,0,0,0-11.94-6.16c-6.33-1.2-3.64-10.84,2.65-9.64,11.41,2.16,19,10.57,25.62,19.42a32.51,32.51,0,0,1,11.23-7.8c7.65-3.46,15.45-1.38,20.2,5.53,3.65,5.32-5,10.32-8.64,5-2.41-3.52-6.06-2.38-9.16-.6a46.1,46.1,0,0,0-4.38,2.65A21,21,0,0,1,437,50.32c8.11,3.47,15.46,8.75,18.77,17.28S460.08,89.64,454.18,97.06Z"/></g></svg>