<svg xmlns="http://www.w3.org/2000/svg" viewBox="0 0 138.97 166.1"><defs><style>.cls-1{fill:#87442d;}.cls-2{fill:#aa5b3f;}.cls-3{fill:#3c2824;}</style></defs><g id="cheuveu"><path class="cls-1" d="M103.87,115.91l2.8-21s10.92-8.7,17.7-3.28c4.26,3.41-4.12,26-11.62,27.66C108.46,120.22,103.87,115.91,103.87,115.91Z"/><path class="cls-1" d="M35.1,115.91l-2.81-21s-10.91-8.7-17.7-3.28c-4.25,3.41,4.12,26,11.62,27.66C30.51,120.22,35.1,115.91,35.1,115.91Z"/><path class="cls-2" d="M67.8,152.89c-2.81-.24-6.63-.33-8.68-1.1-5-1.9-10.89-7.07-17.16-12.89a21.52,21.52,0,0,1-3.7-4.16c-3.29-5.44-4.93-18.57-5.06-24.93A111.21,111.21,0,0,0,31.67,95L27.9,92.36l.32-19.11c0-19.8,19.1-36.61,38.91-36.61h4.21c19.8,0,38.91,16.81,38.91,36.61l.32,19.11L106.8,95a111.21,111.21,0,0,0-1.53,14.78c-.13,6.36-1.78,19.49-5.07,24.93a21.42,21.42,0,0,1-3.69,4.16c-6.27,5.82-12.15,11-17.16,12.89-2,.77-5.88.86-8.69,1.1"/><path class="cls-1" d="M103.87,115.91l2.8-21s10.92-8.7,17.7-3.28c4.26,3.41-4.12,26-11.62,27.66C108.46,120.22,103.87,115.91,103.87,115.91Z"/><path class="cls-1" d="M35.1,115.91l-2.81-21s-10.91-8.7-17.7-3.28c-4.25,3.41,4.12,26,11.62,27.66C30.51,120.22,35.1,115.91,35.1,115.91Z"/><path class="cls-2" d="M67.8,152.89c-2.81-.24-6.63-.33-8.68-1.1-5-1.9-10.89-7.07-17.16-12.89a21.52,21.52,0,0,1-3.7-4.16c-3.29-5.44-4.93-18.57-5.06-24.93A111.21,111.21,0,0,0,31.67,95L27.9,92.36l.32-19.11c0-19.8,19.1-36.61,38.91-36.61h4.21c19.8,0,38.91,16.81,38.91,36.61l.32,19.11L106.8,95a111.21,111.21,0,0,0-1.53,14.78c-.13,6.36-1.78,19.49-5.07,24.93a21.42,21.42,0,0,1-3.69,4.16c-6.27,5.82-12.15,11-17.16,12.89-2,.77-5.88.86-8.69,1.1"/><path class="cls-3" d="M43.33,57.48C26.8,55.06,29,36.37,36.7,28.75c13.38-13.18,69.09-21.43,83-10.44,4.12,3.26-7.8,75.05-9.09,74.05C102.35,86,97.9,75,97.41,68.07c-.55-7.69,2.42-19-29.12-10.26C66,58.44,45.67,57.82,43.33,57.48Z"/><path class="cls-3" d="M26.91,39.81c8.19-3.93,12.23,12,12.54,17.34C40,66.4,30.85,89.58,27.9,92.36s-6.52-3.13-6.64-3.62S7.75,49,26.91,39.81Z"/></g></svg>