<?xml version="1.0" encoding="utf-8"?>
<!-- Generator: Adobe Illustrator 25.4.1, SVG Export Plug-In . SVG Version: 6.00 Build 0)  -->
<svg version="1.1" id="Calque_9" xmlns="http://www.w3.org/2000/svg" xmlns:xlink="http://www.w3.org/1999/xlink" x="0px" y="0px"
	 viewBox="0 0 200 217.4" style="enable-background:new 0 0 200 217.4;" xml:space="preserve">
<style type="text/css">
	.st0{fill:#90573A;}
	.st1{fill:#261E1A;}
</style>
<path class="st0" d="M144.2,119.3c0,46-25.3,79-43.3,79c-16.9,0-43.3-33-43.3-79c0-34.4,19.4-45.6,43.3-45.6
	C124.8,73.7,144.2,84.9,144.2,119.3z"/>
<path class="st0" d="M134.2,161.8l8.1-24.5c0,0,7.9-8.1,13.6-2.5c3.8,3.8-5.1,29-10,30C137.7,166.6,134.2,161.8,134.2,161.8z"/>
<path class="st0" d="M65.8,161.8l-5.1-22.5c0,0-10.9-10.2-16.7-4.5c-3.8,3.8,5.1,29,10,30C62.3,166.6,65.8,161.8,65.8,161.8z"/>
<path class="st1" d="M59,138.4c-2-3.4-12.6-51.7,24.5-63.5s53.2,13.5,53.2,13.5s14.7,19.7,6.8,49.4c0,0-1.9-15.9-7.2-28.1
	s-2-14.6-1.9-15.6s-34.6-3.4-34.6-3.4S68.8,90,69.4,91.4C71.4,95.6,59,138.4,59,138.4z"/>
</svg>
