<svg xmlns="http://www.w3.org/2000/svg" viewBox="0 0 200 200"><defs><style>.cls-1{fill:#d68f72;}.cls-2{fill:#b9785c;}.cls-3{fill:#e1b386;}</style></defs><g id="Calque_10" data-name="Calque 10"><path class="cls-1" d="M98.94,51.23c23.91,0,43.28,11.2,43.28,45.61,0,46-27.44,79-43.28,79"/><path class="cls-2" d="M132.2,139.39l8.14-24.49s7.88-8.13,13.62-2.49c3.82,3.75-5.09,29-10,30C135.66,144.17,132.2,139.39,132.2,139.39Z"/><path class="cls-2" d="M65.8,139.39,57.66,114.9s-7.88-8.13-13.62-2.49c-3.82,3.75,5.09,29,10,30C62.34,144.17,65.8,139.39,65.8,139.39Z"/><path class="cls-1" d="M98.94,51.23c-23.9,0-43.28,11.2-43.28,45.61,0,46,27.45,79,43.28,79"/><circle class="cls-3" cx="41.79" cy="64.89" r="26.19"/><circle class="cls-3" cx="165.67" cy="64.89" r="26.19"/><path class="cls-3" d="M58.05,122.28l-8.26-5.67s-8-12.38-8-25c.05-16,29-43.51,45.31-46.45a15.1,15.1,0,0,1,12.43,3.41s18.69-.6,24.29,1.73c25.45,10.57,30.61,28,29.85,39.7a79.45,79.45,0,0,1-6.46,25.31l-9.32,3-.52-19.22-12.5-9s-6.66-11-6.4-11,2.37,9.85,2.37,9.85-11.2.64-14.2-1.29c-2.16-1.38-5.13-8.87-5.13-8.87s-9.1,7.63-12.25,9.43C85.63,90.27,77.78,91,77.78,91L79.1,78.2,68.9,91.51l-11.33,9Z"/></g></svg>