<svg xmlns="http://www.w3.org/2000/svg" xmlns:xlink="http://www.w3.org/1999/xlink" viewBox="0 0 788 1005"><defs><style>.cls-1,.cls-15{fill:none;}.cls-2{fill:#b9785c;}.cls-3{fill:#d68f72;}.cls-4{fill:#4c3019;}.cls-5{fill:#ad6542;}.cls-6{clip-path:url(#clip-path);}.cls-7{fill:#6d3b25;}.cls-8{clip-path:url(#clip-path-2);}.cls-9{clip-path:url(#clip-path-3);}.cls-10{fill:#fff;}.cls-11{clip-path:url(#clip-path-4);}.cls-12{clip-path:url(#clip-path-5);}.cls-13{fill:#050505;}.cls-14{clip-path:url(#clip-path-6);}.cls-15{stroke:#6d3b25;stroke-linecap:round;stroke-miterlimit:10;stroke-width:2px;}.cls-16{fill:#4c2a33;}</style><clipPath id="clip-path"><polygon class="cls-1" points="229.42 138.57 229.42 138.57 252.85 138.57 252.85 145.69 229.42 145.69 229.42 138.57"/></clipPath><clipPath id="clip-path-2"><polygon class="cls-1" points="206.66 138.57 206.66 138.57 183.23 138.57 183.23 145.69 206.66 145.69 206.66 138.57"/></clipPath><clipPath id="clip-path-3"><polygon class="cls-1" points="230.77 152.03 230.77 152.03 245.84 152.03 245.84 166.53 230.77 166.53 230.77 152.03"/></clipPath><clipPath id="clip-path-4"><polygon class="cls-1" points="205.31 152.03 205.31 152.03 190.25 152.03 190.25 166.53 205.31 166.53 205.31 152.03"/></clipPath><clipPath id="clip-path-5"><polygon class="cls-1" points="233.2 155.31 233.2 155.31 243.27 155.31 243.27 165.38 233.2 165.38 233.2 155.31"/></clipPath><clipPath id="clip-path-6"><polygon class="cls-1" points="202.88 155.31 202.88 155.31 192.81 155.31 192.81 165.38 202.88 165.38 202.88 155.31"/></clipPath></defs><g id="Calque_9" data-name="Calque 9"><path class="cls-2" d="M426.2,269l8.14-24.5s7.88-8.13,13.62-2.49c3.82,3.75-5.09,29-10,30C429.66,273.78,426.2,269,426.2,269Z"/><path class="cls-2" d="M359.8,269l-8.14-24.5S343.78,236.38,338,242c-3.82,3.75,5.09,29,10,30C356.34,273.78,359.8,269,359.8,269Z"/><path class="cls-3" d="M392.94,180.85c-23.9,0-43.28,11.19-43.28,45.61,0,46,27.45,79,43.28,79s43.28-33.06,43.28-79C436.22,192,416.85,180.85,392.94,180.85Z"/><path class="cls-4" d="M352.05,251.9l-8.26-5.4s-1.57-47.56-1.54-59.59c.05-15.22,22.55-5.51,38.85-8.31,7.44-1.27,11.41-.52,11.41-.52s16.05,2.31,22.07,1.65c23.91-2.64,27.91-2.16,27.15,9-.87,12.72-.52,56.56-.52,56.56l-9.32,2.89-.52-18.26-2.6-7.68s-5.77-13.32-5.51-13.32S412,212.32,412,212.32s-15-7.9-18-9.73c-2.16-1.31-9.05,4.08-9.05,4.08s-5.82-6.93-9.45-6.93c-2.63,0-.79,7.87-.79,7.87l-16.42,1.57-1.86,12.24-4.86,9.79Z"/></g><g id="Calque_10" data-name="Calque 10"><path class="cls-3" d="M217.94,335.65c-5.48-3.58-8-.63-13.72,2.52-9.76,5.34-15.84,23.71-26.68,26.21-3.85.88-12.67-15.07-13.7-21.32-1.54-9.33,2.51-27.51-8.4-36.86-9.24-7.9-21.44-3.68-25.46-16.29-7-22,13.45-38.49,23.4-42.34,15.17-5.88,37.14-5.1,43.52-14.23l.95-27.71.68-20.18,18.32-.81H219l18.32.81.69,20.18.94,27.71c6.38,9.13,28.35,8.35,43.52,14.23,9.95,3.85,30.4,20.36,23.4,42.34-4,12.61-16.21,8.39-25.45,16.29-10.92,9.35-6.87,27.53-8.4,36.86-1,6.25-9.85,22.2-13.7,21.32-10.84-2.5-16.93-20.87-26.68-26.21-5.74-3.15-8.25-6.1-13.73-2.52"/><path class="cls-5" d="M197.45,233.65s31.78,11.4,41.18-10.81l-1.28-37.39H198.53Z"/><path class="cls-3" d="M217.89,97.4c23.9,0,43.28,11.19,43.28,45.61,0,46-27.45,79-43.28,79"/><path class="cls-2" d="M251.14,185.56l8.14-24.5s7.88-8.12,13.62-2.48c3.82,3.75-5.09,29-10,30C254.6,190.33,251.14,185.56,251.14,185.56Z"/><path class="cls-2" d="M184.75,185.56l-8.15-24.5s-7.88-8.12-13.62-2.48c-3.82,3.75,5.09,29,10,30C181.28,190.33,184.75,185.56,184.75,185.56Z"/><path class="cls-3" d="M217.89,97.4c-23.91,0-43.28,11.19-43.28,45.61,0,46,27.44,79,43.28,79"/><g class="cls-6"><path class="cls-7" d="M251.73,145.69a1.15,1.15,0,0,1-.44-.09,50.06,50.06,0,0,0-7.19-2.35c-7.86-1.78-8.36-.54-11.08,0a5.08,5.08,0,0,1-3.1-.78c-.4-.47-.75-2.15-.28-2.55.2-.17,3.71-2.57,12.72-.53,3.75.85,9.66,4.09,9.81,4.15a1.12,1.12,0,0,1,.59,1.47A1.11,1.11,0,0,1,251.73,145.69Z"/></g><g class="cls-8"><path class="cls-7" d="M184.35,145.69a1.12,1.12,0,0,0,.44-.09,50.06,50.06,0,0,1,7.19-2.35c7.86-1.78,8.37-.54,11.09,0a5.06,5.06,0,0,0,3.09-.78c.4-.47.75-2.15.28-2.55-.2-.17-3.71-2.57-12.72-.53-3.75.85-9.66,4.09-9.81,4.15a1.12,1.12,0,0,0,.44,2.15Z"/></g><g class="cls-9"><ellipse class="cls-10" cx="238.3" cy="159.28" rx="7.53" ry="7.26"/></g><g class="cls-11"><ellipse class="cls-10" cx="197.78" cy="159.28" rx="7.53" ry="7.26"/></g><g class="cls-12"><circle class="cls-13" cx="238.24" cy="160.34" r="5.04"/></g><g class="cls-14"><circle class="cls-13" cx="197.84" cy="160.34" r="5.04"/></g><path class="cls-15" d="M211.78,178.81a51.36,51.36,0,0,0,7,1.36c1.65,0,7.05-1.74,7.05-1.74"/><ellipse class="cls-16" cx="217.85" cy="197.23" rx="10.3" ry="1.63"/></g></svg>