<svg xmlns="http://www.w3.org/2000/svg" viewBox="0 0 200 200"><defs><style>.cls-1{fill:#795333;}.cls-2{fill:#d68f72;}.cls-3{fill:#b9785c;}.cls-4{fill:#e1b386;}</style></defs><g id="Calque_9" data-name="Calque 9"><path class="cls-1" d="M113.39,148.32c0,4-3.68,22.19,0,20.44s44.88-5.27,44.88-5.27L141,117.41Z"/><path class="cls-1" d="M60.67,131.69l18.58,26.18-.92,13.52s-35.61-15.27-42.82-23.07S60.67,131.69,60.67,131.69Z"/></g><g id="Calque_10" data-name="Calque 10"><path class="cls-2" d="M99.94,50.75c23.91,0,43.28,11.2,43.28,45.61,0,46-27.44,79-43.28,79"/><path class="cls-3" d="M133.2,138.91l8.14-24.49s7.88-8.13,13.62-2.49c3.82,3.75-5.09,29-10,30C136.66,143.69,133.2,138.91,133.2,138.91Z"/><path class="cls-3" d="M66.8,138.91l-8.14-24.49s-7.88-8.13-13.62-2.49c-3.82,3.75,5.09,29,10,30C63.34,143.69,66.8,138.91,66.8,138.91Z"/><path class="cls-2" d="M99.94,50.75C76,50.75,56.66,62,56.66,96.36c0,46,27.45,79,43.28,79"/><path class="cls-4" d="M60.76,95.49C65.06,88.67,81,83,86.13,75.59s5.13-9.51,5.13-9.51c2.57,8.06,54.25,5,50.57,33,0,0-10.39,47.35-.55,57,5.87,5.74,13.32,9.83,17,7.46s-1.69-36.14,4.39-53.55c6.29-18-9.54-34.91-16.16-42.27S117.07,37.5,105.3,39,81.75,44.13,83.22,53c0,0-15.45-7.36-22.07,6.62S27.3,140.52,27.3,140.52h0s-.21,8.17,14,8.86c6.95.34,12.49-4.75,14-11.54C61.58,109.94,58.22,99.51,60.76,95.49Z"/></g></svg>