<?xml version="1.0" encoding="utf-8"?>
<!-- Generator: Adobe Illustrator 25.4.1, SVG Export Plug-In . SVG Version: 6.00 Build 0)  -->
<svg version="1.1" id="Calque_9" xmlns="http://www.w3.org/2000/svg" xmlns:xlink="http://www.w3.org/1999/xlink" x="0px" y="0px"
	 viewBox="0 0 788 1005" style="enable-background:new 0 0 788 1005;" xml:space="preserve">
<style type="text/css">
	.st0{fill:#90573A;}
	.st1{fill:#261E1A;}
</style>
<path class="st0" d="M438.2,223.5c0,46-25.3,79-43.3,79c-16.9,0-43.3-33-43.3-79c0-34.4,19.4-45.6,43.3-45.6
	C418.8,177.9,438.2,189.1,438.2,223.5z"/>
<path class="st0" d="M428.2,266l8.1-24.5c0,0,7.9-8.1,13.6-2.5c3.8,3.8-5.1,29-10,30C431.7,270.8,428.2,266,428.2,266z"/>
<path class="st0" d="M359.8,266l-5.1-22.5c0,0-10.9-10.2-16.6-4.5c-3.8,3.8,5.1,29,10,30C356.3,270.8,359.8,266,359.8,266z"/>
<path class="st1" d="M353,242.6c-2-3.4-12.6-51.7,24.5-63.5s53.2,13.5,53.2,13.5s14.7,19.7,6.8,49.4c0,0-1.9-15.9-7.2-28.1
	s-2-14.6-1.9-15.6s-34.6-3.4-34.6-3.4s-30.9-0.7-30.3,0.7C365.4,199.8,353,242.6,353,242.6z"/>
</svg>
