<?xml version="1.0" encoding="utf-8"?>
<!-- Generator: Adobe Illustrator 25.4.1, SVG Export Plug-In . SVG Version: 6.00 Build 0)  -->
<svg version="1.1" id="Calque_9" xmlns="http://www.w3.org/2000/svg" xmlns:xlink="http://www.w3.org/1999/xlink" x="0px" y="0px"
	 viewBox="0 0 788 1005" style="enable-background:new 0 0 788 1005;" xml:space="preserve">
<style type="text/css">
	.st0{fill:#90573A;}
	.st1{fill:#6F412A;}
	.st2{fill:#261E1A;}
</style>
<path class="st0" d="M436.2,226.5c0,46-27.4,79-43.3,79c-13.3-1.1-38.7-35-43.3-79c-3.5-34.2,19.4-45.6,43.3-45.6
	C416.8,180.8,436.2,192,436.2,226.5z"/>
<path class="st1" d="M427.6,269l6.8-22.8c0,0,9.2-9.9,14.9-4.2c3.8,3.8-5.1,29-10,30C431,273.8,427.6,269,427.6,269z"/>
<path class="st1" d="M361.2,269l-8.2-24.5c0,0-7.9-8.1-13.6-2.5c-3.8,3.8,5.1,29,10,30C357.7,273.8,361.2,269,361.2,269z"/>
<path class="st2" d="M352.7,242.7c-2-3.3-12.3-50.2,23.9-61.7s51.9,13.1,51.9,13.1s14.3,19.1,6.6,48c0,0-1.8-15.4-7.1-27.3
	c-5.3-11.9-2-14.2-1.8-15.2c0.1-1-33.8-3.3-33.8-3.3s-30.2-0.7-29.6,0.7C364.8,201.2,352.7,242.7,352.7,242.7z"/>
<path class="st2" d="M427.9,197.6c-4.7,1.5,4,5.3,2.2-0.5s3.4-25.5-6.1-28s-47.9,7.8-57.2,15.4s0.1,7.1,1,7.5
	S427.9,197.6,427.9,197.6z"/>
</svg>
