<?xml version="1.0" encoding="utf-8"?>
<!-- Generator: Adobe Illustrator 25.4.1, SVG Export Plug-In . SVG Version: 6.00 Build 0)  -->
<svg version="1.1" id="Calque_9" xmlns="http://www.w3.org/2000/svg" xmlns:xlink="http://www.w3.org/1999/xlink" x="0px" y="0px"
	 viewBox="0 0 788 1005" style="enable-background:new 0 0 788 1005;" xml:space="preserve">
<style type="text/css">
	.st0{fill:#9E6754;}
	.st1{fill:#8C5C4B;}
	.st2{fill:#281E1B;}
	.st3{fill:#261E1A;}
</style>
<path class="st0" d="M437.2,223.6c0,46-27.4,79-43.3,79v0c-15.8,0-43.3-33-43.3-79c0-34.4,19.3-45.6,43.3-45.6
	C417.8,178,437.2,189.2,437.2,223.6z"/>
<path class="st1" d="M427.2,266.2l8.1-24.5c0,0,7.9-8.1,13.6-2.5c3.8,3.8-5.1,29-10,30C430.7,270.9,427.2,266.2,427.2,266.2z"/>
<path class="st1" d="M360.8,266.2l-8.1-24.5c0,0-7.9-8.1-13.6-2.5c-3.8,3.8,5.1,29,10,30C357.3,270.9,360.8,266.2,360.8,266.2z"/>
<path class="st2" d="M431.5,201.1c-0.4-1-1.2-3.5-0.7-4.5c1.9-3.1,4.1-0.1,5.3,2c1.3,2.3,2.6,7.5-1.4,6.8
	C433.5,205.2,432,202.4,431.5,201.1z"/>
<path class="st2" d="M434.8,211c-0.1-1.1-0.2-3.8,0.6-4.5c2.6-2.5,3.9,1,4.5,3.3c0.7,2.6,0.5,7.9-3.1,6.2
	C435.5,215.4,435,212.3,434.8,211z"/>
<path class="st2" d="M435.6,229.9c0.1-1.1,0.7-3.7,1.7-4.2c3.2-1.8,3.6,2,3.6,4.4c0,2.6-1.4,7.8-4.6,5.2
	C435.2,234.4,435.4,231.2,435.6,229.9z"/>
<path class="st2" d="M400,178.8c-1.1-0.2-3.6-0.9-4.1-1.9c-1.6-3.3,2.1-3.5,4.5-3.3c2.6,0.1,7.7,1.9,5,4.9
	C404.5,179.4,401.4,179,400,178.8z"/>
<path class="st2" d="M420.5,185.6c-1-0.6-3.2-2-3.3-3.1c-0.5-3.6,3.1-2.6,5.4-1.7c2.5,1,6.7,4.2,3.2,6.2
	C424.6,187.6,421.7,186.2,420.5,185.6z"/>
<path class="st2" d="M357.4,201.1c0.4-1,1.2-3.5,0.7-4.5c-1.9-3.1-4.1-0.1-5.3,2c-1.3,2.3-2.7,7.5,1.4,6.8
	C355.5,205.2,356.9,202.4,357.4,201.1z"/>
<path class="st2" d="M352.1,222c0.1-1.1,0.2-3.8-0.6-4.5c-2.6-2.5-3.9,1-4.5,3.3c-0.6,2.6-0.5,7.9,3.1,6.2
	C351.4,226.4,352,223.3,352.1,222z"/>
<path class="st2" d="M353.4,229.9c-0.1-1.1-0.7-3.7-1.7-4.2c-3.2-1.8-3.6,2-3.6,4.4c0,2.6,1.4,7.8,4.6,5.2
	C353.8,234.4,353.6,231.2,353.4,229.9z"/>
<path class="st2" d="M388.9,178.8c1.1-0.2,3.6-0.9,4.2-1.9c1.6-3.3-2.1-3.5-4.5-3.3c-2.6,0.1-7.7,1.9-5,4.9
	C384.5,179.4,387.6,179,388.9,178.8z"/>
<path class="st2" d="M368.4,185.6c1-0.6,3.2-2,3.3-3.1c0.5-3.6-3.1-2.6-5.4-1.7c-2.5,1-6.7,4.2-3.2,6.2
	C364.4,187.6,367.2,186.2,368.4,185.6z"/>
<path class="st2" d="M361.8,191.7c0.6-1,1.7-3.4,1.3-4.4c-1.4-3.4-4-0.6-5.5,1.2c-1.6,2.1-3.6,7,0.4,6.9
	C359.3,195.4,361.1,192.8,361.8,191.7z"/>
<path class="st2" d="M377.9,180.8c1.1-0.4,3.5-1.5,3.8-2.6c1-3.5-2.7-3.1-5-2.5c-2.6,0.6-7.3,3.1-4.1,5.6
	C373.6,182.2,376.6,181.3,377.9,180.8z"/>
<path class="st2" d="M411.2,180.6c1.1,0.3,3.6,0.9,4.6,0.2c3-2.2-0.3-4.1-2.5-5.1c-2.4-1.1-7.7-2-6.7,2
	C407,179,410,180.1,411.2,180.6z"/>
<path class="st2" d="M427,192.5c0.7,0.9,2.6,2.7,3.7,2.7c3.7-0.2,2-3.6,0.7-5.6c-1.4-2.2-5.4-5.8-6.7-2
	C424.3,188.9,426.2,191.5,427,192.5z"/>
<path class="st2" d="M353.4,210.7c0.4-1.1,1.1-3.6,0.5-4.6c-2-3.1-4.1,0.1-5.2,2.2c-1.2,2.4-2.3,7.6,1.6,6.8
	C351.6,214.9,352.9,212,353.4,210.7z"/>
<path class="st2" d="M436.6,221.7c-0.1-1.1-0.2-3.8,0.6-4.5c2.6-2.5,3.9,1,4.5,3.3c0.7,2.6,0.5,7.9-3.1,6.2
	C437.4,226.1,436.8,223,436.6,221.7z"/>
<path class="st2" d="M362.6,184.6c7.7,0,7.7-12,0-12S354.9,184.6,362.6,184.6z"/>
<path class="st2" d="M380.6,171.2c-0.1-0.1-0.2-0.3-0.2-0.5l0.6,1.4c0-0.1-0.1-0.2-0.1-0.4l-4.2,7.4h0.1l-1.6,0.2h0.1l-1.6-0.2h0
	l-1.4-0.6l0,0l-1.2-0.9l0,0l-0.9-1.2l0,0l-0.6-1.4c0,0,0,0.1,0,0.1l-0.2-1.6v0.2c0.1,1.6,0.7,3.1,1.8,4.2c0.5,0.6,1.2,1,1.9,1.2
	c0.7,0.4,1.5,0.6,2.3,0.5l1.6-0.2c1-0.3,1.9-0.8,2.6-1.5l0.9-1.2c0.5-0.9,0.8-1.9,0.8-3v-0.2l-0.2-1.6c0,0,0,0,0-0.1
	c-0.1-0.3-0.2-0.5-0.3-0.7c-0.1-0.2-0.2-0.5-0.3-0.8c-0.5-0.9-1.3-1.7-2.2-2.2l-1.4-0.6h0c-1.1-0.3-2.3-0.3-3.4,0
	c-0.7,0.2-1.4,0.5-2,1.1c-0.7,0.4-1.2,1-1.5,1.7l-0.6,1.4c-0.3,1-0.3,2.1,0,3.2c0.2,0.6,0.4,1.2,0.7,1.8c0.1,0.2,0.1,0.3,0.2,0.4
	c0.4,0.7,0.9,1.3,1.5,1.7c0.6,0.5,1.3,0.9,2,1.1c1.6,0.4,3.2,0.1,4.6-0.6l1.2-0.9c0.7-0.7,1.3-1.6,1.5-2.6l0.2-1.6
	C381.3,173.1,381,172.1,380.6,171.2L380.6,171.2z"/>
<path class="st2" d="M396.9,169.4l-0.2-0.3l-8.2,8.2l0.6,0.3c0.7,0.4,1.4,0.7,2.2,0.7c0.8,0.2,1.6,0.1,2.4-0.1
	c0.7-0.2,1.4-0.5,2-1.1c0.6-0.4,1.2-1,1.5-1.7l0.6-1.4c0.3-1,0.3-2.1,0-3.2l-0.6-1.4c-0.5-0.9-1.3-1.6-2.1-2.1l-0.6-0.3l-1.4-0.6
	c-0.8-0.3-1.6-0.3-2.4-0.1c-0.5,0-1.1,0.1-1.5,0.4c-0.7,0.2-1.4,0.7-1.9,1.2l-0.9,1.2l-0.6,1.4c-0.3,0.8-0.3,1.6-0.1,2.4
	c0,0.8,0.3,1.6,0.7,2.2l0.2,0.3c0.4,0.7,0.9,1.3,1.5,1.7c0.6,0.5,1.3,0.9,2,1.1c1.6,0.4,3.2,0.1,4.6-0.6l1.2-0.9
	c0.7-0.7,1.3-1.6,1.5-2.6l0.2-1.6C397.6,171.4,397.4,170.4,396.9,169.4L396.9,169.4z"/>
<path class="st2" d="M409.2,167.7c-1-0.6-2.2-0.9-3.4-0.9c-1.1,0-2.2,0.3-3.1,0.9h-0.1l-1.2,0.9c0,0-0.1,0.1-0.1,0.1
	c-0.7,0.7-1.3,1.6-1.5,2.6c-0.2,0.8-0.3,1.6-0.1,2.4c0,0.8,0.3,1.6,0.7,2.2c0.5,0.9,1.3,1.6,2.1,2.1l0.6,0.4
	c0.7,0.4,1.4,0.7,2.2,0.7c0.8,0.2,1.6,0.1,2.4-0.1c1.5-0.5,2.7-1.4,3.6-2.8l0.6-1.4c0.3-1,0.3-2.1,0-3.2l-0.6-1.4
	c-0.5-0.9-1.3-1.6-2.1-2.1l-0.6-0.4l1.2,9.4l0.1-0.1l-1.2,0.9h0.1l-1.4,0.6h0.1l-1.6,0.2h0.2l-1.6-0.2l0.2,0.1l-1.4-0.6
	c0,0,0.1,0,0.1,0c0.7,0.4,1.4,0.7,2.2,0.7c0.8,0.2,1.6,0.1,2.4-0.1c0.7-0.2,1.4-0.5,2-1.1c0.6-0.4,1.2-1,1.5-1.7l0.6-1.4
	c0.3-1,0.3-2.1,0-3.2l-0.6-1.4C410.9,169,410.1,168.3,409.2,167.7L409.2,167.7z"/>
<path class="st2" d="M415.6,177.3c0,0.7,0.1,1.3,0.2,1.9c0,0.2,0.1,0.3,0.1,0.5c0.1,0.3,0.2,0.6,0.3,0.9c0.5,1.5,1.4,2.7,2.8,3.6
	c0.7,0.4,1.4,0.7,2.2,0.7c0.8,0.2,1.6,0.1,2.4-0.1c1.5-0.4,2.8-1.4,3.6-2.8c0.8-1.4,1-3.1,0.6-4.6c-0.1-0.5-0.3-0.9-0.4-1.4l0.2,1.6
	c0-0.1,0-0.2,0-0.4c0-0.8-0.1-1.6-0.5-2.3c-1-2.2-3.1-3.6-5.5-3.7c-1.6,0-3.1,0.6-4.2,1.8C416.3,174.2,415.7,175.7,415.6,177.3
	L415.6,177.3z"/>
<path class="st2" d="M355.1,175.8h0.4c1.6-0.1,3.1-0.7,4.2-1.8c1.1-1.2,1.7-2.7,1.8-4.2l-0.2-1.6c-0.3-1-0.8-1.9-1.5-2.6l-1.2-0.9
	c-0.9-0.5-1.9-0.8-3-0.8h-0.4c-2.4,0-4.6,1.4-5.5,3.7c-0.4,0.7-0.6,1.5-0.5,2.3l0.2,1.6c0.3,1,0.8,1.9,1.5,2.6l1.2,0.9
	C353,175.5,354.1,175.8,355.1,175.8z"/>
<path class="st2" d="M370.5,170.1h0.1l-1.6-0.2c0.1,0,0.2,0.1,0.4,0.1l-1.4-0.6l0.3,0.1l-1.2-0.9c0.1,0.1,0.2,0.2,0.3,0.3l-0.9-1.2
	c0.1,0.1,0.1,0.2,0.1,0.2l-0.6-1.4c0,0.1,0.1,0.2,0.1,0.4l-0.2-1.6v0.1c0,2.4,1.4,4.6,3.7,5.5c0.7,0.4,1.5,0.6,2.3,0.5l1.6-0.2
	c1-0.3,1.9-0.8,2.6-1.6l0.9-1.2c0.5-0.9,0.8-1.9,0.8-3v-0.1l-0.2-1.6v-0.1c-0.1-0.3-0.2-0.7-0.4-1c-0.1-0.3-0.3-0.6-0.4-0.9
	c-0.2-0.4-0.7-0.9-1-1.3l-0.1-0.1l-0.1-0.1c-0.4-0.3-0.9-0.7-1.3-1l-0.2-0.1c-0.4-0.2-1-0.5-1.5-0.6h-0.2c-0.3-0.1-0.7-0.1-0.9-0.1
	c-0.3-0.1-0.6-0.1-1-0.1c-0.8,0-1.6,0.1-2.3,0.5c-2.2,1-3.6,3.1-3.7,5.5l0.2,1.6c0.3,1,0.8,1.9,1.5,2.6l1.2,0.9
	C368.4,169.9,369.5,170.2,370.5,170.1L370.5,170.1z"/>
<path class="st2" d="M390.8,168.3c7.7,0,7.7-12,0-12S383.1,168.3,390.8,168.3z"/>
<path class="st2" d="M406,157.4l-0.4,0.1c-2,0.6-3.6,2.2-4.2,4.2l-0.1,0.4c-0.3,0.8-0.3,1.6-0.1,2.4c0.1,1.6,1,3,2.3,3.9
	c0.6,0.5,1.3,0.9,2,1.1l1.6,0.2c1.1,0,2.1-0.3,3-0.8l1.2-0.9c0.7-0.7,1.3-1.6,1.5-2.6l0.1-0.4l-4.2,4.2l0.4-0.1
	c1.5-0.5,2.7-1.4,3.6-2.8c0.4-0.7,0.7-1.4,0.7-2.2c0.2-0.8,0.1-1.6-0.1-2.4l-0.6-1.4c-0.5-0.9-1.3-1.6-2.1-2.1l-1.4-0.6
	C408.1,157.1,407,157.1,406,157.4L406,157.4z"/>
<path class="st2" d="M431.6,169.4v-0.9c0-0.8-0.1-1.6-0.5-2.3c-0.5-1.5-1.7-2.6-3.2-3.2c-0.7-0.4-1.5-0.6-2.3-0.5l-1.6,0.2
	c-1,0.3-1.9,0.8-2.6,1.5l-0.9,1.2c-0.5,0.9-0.8,1.9-0.8,3v0.9c0.1,3.3,2.7,5.9,6,6l1.6-0.2c1-0.3,1.9-0.8,2.6-1.5l0.9-1.2
	C431.3,171.5,431.6,170.4,431.6,169.4L431.6,169.4z"/>
<path class="st2" d="M352.8,200.3c1.1-0.3,2.2-0.9,3-1.7c0.6-0.6,1.1-1.3,1.3-2.1c0.1-0.3,0.2-0.5,0.3-0.8l0.2-1.6V194
	c0-1.7-0.7-3.3-1.9-4.5c-0.8-0.8-1.9-1.4-3-1.7c-1.6-0.4-3.2-0.1-4.6,0.6c-1.3,0.8-2.3,2.1-2.8,3.6l-0.2,1.6c0,1.1,0.3,2.1,0.8,3
	l0.9,1.2c0.7,0.7,1.7,1.3,2.6,1.5l0.2,0.1l-1.4-0.6l0.1,0.1l-1.2-0.9c0,0,0,0,0.1,0.1l-0.9-1.2c0,0,0.1,0.1,0.1,0.1l-0.6-1.4
	c0,0,0,0.1,0,0.1l-0.2-1.6c0,0,0,0.1,0,0.1l0.2-1.6c0,0,0,0.1,0,0.1l0.6-1.4c0,0,0,0.1-0.1,0.1l0.9-1.2l-0.1,0.1l1.2-0.9l-0.1,0.1
	l1.4-0.6h-0.2c-0.7,0.2-1.4,0.5-2,1.1c-0.6,0.4-1.2,1-1.5,1.7c-0.4,0.7-0.7,1.4-0.7,2.2c-0.2,0.8-0.1,1.6,0.1,2.4l0.6,1.4
	c0.5,0.9,1.3,1.6,2.1,2.2l1.4,0.6c1,0.3,2.1,0.3,3.2,0L352.8,200.3z"/>
<path class="st2" d="M340.2,193c7.7,0,7.7-12,0-12S332.4,193,340.2,193z"/>
<path class="st2" d="M344.1,206.5h-0.4c-0.8,0-1.6,0.1-2.3,0.5c-1.5,0.5-2.6,1.7-3.2,3.2c-0.4,0.7-0.6,1.5-0.5,2.3l0.2,1.6
	c0.3,1,0.8,1.9,1.5,2.6l1.2,0.9c0.9,0.5,1.9,0.8,3,0.8h0.4c0.8,0,1.6-0.1,2.3-0.5c0.7-0.2,1.4-0.7,1.9-1.2c1.1-1.2,1.7-2.7,1.8-4.2
	l-0.2-1.6c-0.3-1-0.8-1.9-1.5-2.6l-1.2-0.9C346.2,206.8,345.2,206.5,344.1,206.5L344.1,206.5z"/>
<path class="st2" d="M331.4,205.7c-2-0.2-3.9,0.2-5.7,1.1c-1.3,0.8-2.4,1.7-3.4,2.8c-2.4,2.3-2.4,6.1-0.1,8.5s6.1,2.4,8.5,0.1
	c0,0,0,0,0.1-0.1c0.5-0.5,1-1,1.6-1.5l-1.2,0.9c0.3-0.2,0.6-0.4,0.9-0.5l-1.4,0.6c0.3-0.1,0.5-0.2,0.8-0.2l-1.6,0.2c0.5,0,1,0,1.5,0
	c3.3,0,6-2.7,6-6C337.3,208.3,334.6,205.7,331.4,205.7L331.4,205.7z"/>
<path class="st2" d="M341.7,220.9c-0.1,0-0.3,0.1-0.4,0.1h-0.1c-0.5,0.2-1,0.4-1.5,0.6l-0.2,0.1l7.3,9.4l0.3-0.3
	c0.6-0.5,1-1.2,1.2-1.9c0.9-2.2,0.4-4.8-1.2-6.6l-1.2-0.9c-0.9-0.5-1.9-0.8-3-0.8l-1.6,0.2c-1,0.3-1.9,0.8-2.6,1.5l-0.3,0.2
	c-1.1,1.2-1.7,2.7-1.8,4.2l0.2,1.6c0.2,0.7,0.6,1.4,1.1,2c0.3,0.4,0.6,0.8,1.1,1.1c0.6,0.5,1.3,0.9,2,1.1l1.6,0.2
	c1.1,0,2.1-0.3,3-0.8l0.2-0.1l-1.4,0.6c0.2-0.1,0.3-0.1,0.5-0.1c0.7-0.2,1.4-0.6,2-1.1c0.6-0.4,1.2-1,1.5-1.7
	c0.4-0.7,0.7-1.4,0.7-2.2c0.2-0.8,0.2-1.6-0.1-2.4l-0.6-1.4c-0.5-0.9-1.3-1.6-2.1-2.1l-1.4-0.6C343.8,220.5,342.7,220.5,341.7,220.9
	L341.7,220.9z"/>
<path class="st2" d="M325.8,234.1v0.4c0,0.8,0.1,1.6,0.5,2.3c1,2.2,3.1,3.6,5.5,3.7l1.6-0.2c1-0.3,1.9-0.8,2.6-1.5l0.9-1.2
	c0.5-0.9,0.8-1.9,0.8-3v-0.4c-0.1-1.6-0.7-3.1-1.8-4.2c-1.2-1.1-2.7-1.7-4.2-1.8l-1.6,0.2c-1,0.3-1.9,0.8-2.6,1.5l-0.9,1.2
	C326,232,325.8,233.1,325.8,234.1L325.8,234.1z"/>
<path class="st2" d="M435.7,196.1c7.7,0,7.7-12,0-12S428,196.1,435.7,196.1z"/>
<path class="st2" d="M445.9,186.8h1.3c1.6-0.1,3.1-0.7,4.2-1.8c0.6-0.5,1-1.2,1.2-1.9c0.4-0.7,0.6-1.5,0.5-2.3l-0.2-1.6
	c-0.3-1-0.8-1.9-1.5-2.6l-1.2-0.9c-0.9-0.5-1.9-0.8-3-0.8h-1.3c-0.8,0-1.6,0.1-2.3,0.5c-0.7,0.2-1.4,0.7-1.9,1.2
	c-1.1,1.2-1.7,2.7-1.8,4.2l0.2,1.6c0.3,1,0.8,1.9,1.5,2.6l1.2,0.9C443.8,186.5,444.8,186.8,445.9,186.8L445.9,186.8z"/>
<path class="st2" d="M438.8,210.2c7.7,0,7.7-12,0-12S431.1,210.2,438.8,210.2z"/>
<path class="st2" d="M451.1,207.1c0.7-0.1,1.3-0.1,2,0l-1.6-0.2c0.3,0,0.5,0.1,0.8,0.2l-1.4-0.6c0.1,0.1,0.2,0.1,0.4,0.2
	c1.4,0.8,3.1,1,4.6,0.6c3.2-0.9,5.1-4.1,4.2-7.3c-0.4-1.5-1.4-2.9-2.8-3.7c-1.9-1-4-1.4-6.1-1.3c-1.6,0-3.1,0.7-4.2,1.8
	c-2.3,2.3-2.3,6.1,0,8.5C448.1,206.4,449.6,207,451.1,207.1L451.1,207.1z"/>
<path class="st2" d="M444.1,226.9c0.2,0,0.3,0,0.5,0l-1.6-0.2c0.1,0,0.3,0.1,0.4,0.1l-1.4-0.6l0.3,0.1c0.7,0.4,1.4,0.7,2.2,0.7
	c0.8,0.2,1.6,0.1,2.4-0.1l1.4-0.6c0.7-0.4,1.3-0.9,1.7-1.5c0.4-0.4,0.6-0.8,0.8-1.3c0.4-0.7,0.6-1.5,0.5-2.3l-0.2-1.6
	c-0.3-1-0.8-1.9-1.5-2.6l-0.3-0.3c-2.4-2.3-6.1-2.3-8.5,0l-0.9,1.2c-0.5,0.9-0.8,1.9-0.8,3l0.2,1.6c0.3,1,0.8,1.9,1.5,2.6l0.3,0.3
	l7.3-9.4l-0.3-0.1c-0.5-0.2-1-0.5-1.5-0.6l-0.2-0.1c-0.3-0.1-0.6-0.1-0.9-0.1s-0.6-0.1-0.9-0.1c-0.1,0-0.2,0-0.4,0
	c-0.8,0-1.6,0.1-2.3,0.5c-0.7,0.2-1.4,0.7-1.9,1.2c-0.6,0.5-1,1.2-1.2,1.9c-0.4,0.7-0.6,1.5-0.5,2.3l0.2,1.6c0.3,1,0.8,1.9,1.5,2.6
	l1.2,0.9C442,226.6,443,226.9,444.1,226.9L444.1,226.9z"/>
<path class="st2" d="M450.4,224c0,1.4,0.2,2.9,0.7,4.2c0.2,0.7,0.5,1.4,1.1,2c0.4,0.6,1,1.2,1.7,1.5c2.9,1.7,6.5,0.7,8.2-2.1
	c0,0,0,0,0,0c0.8-1.4,1-3.1,0.6-4.6c-0.2-0.5-0.3-1-0.4-1.5l0.2,1.6c0-0.4-0.1-0.8,0-1.2c0-1.6-0.6-3.1-1.8-4.2
	c-2.3-2.3-6.1-2.3-8.5,0c0,0,0,0,0,0C451.1,220.9,450.4,222.4,450.4,224L450.4,224z"/>
<path class="st3" d="M351.4,231.4c-2-2.8-12.8-43,24.9-52.8c37.8-9.8,54.2,11.2,54.2,11.2s14.9,16.4,6.9,41.1c0,0-1.9-13.2-7.4-23.4
	s-2-12.2-1.9-13s-35.3-2.8-35.3-2.8s-31.5-0.6-30.8,0.6C364,195.8,351.4,231.4,351.4,231.4z"/>
</svg>
