<svg id="Calque_9" data-name="Calque 9" xmlns="http://www.w3.org/2000/svg" viewBox="0 0 188 259.02"><defs><style>.cls-1{fill:#d68f72;}.cls-2{fill:#b9785c;}.cls-3{fill:#4c3019;}</style></defs><path class="cls-1" d="M94.94,81.12c23.91,0,43.28,11.19,43.28,45.61,0,46-25.28,79-43.28,79"/><path class="cls-1" d="M94.94,81.12c-23.9,0-43.28,11.19-43.28,45.61,0,46,26.34,79,43.28,79"/><path class="cls-2" d="M128.2,169.28l8.14-24.5s7.88-8.13,13.62-2.49c3.82,3.75-5.09,29-10,30C131.66,174.05,128.2,169.28,128.2,169.28Z"/><path class="cls-2" d="M59.8,169.28l-5.12-22.47S43.78,136.65,38,142.29c-3.82,3.75,5.09,29,10,30C56.34,174.05,59.8,169.28,59.8,169.28Z"/><path class="cls-3" d="M53,145.82c-2-3.35-12.6-51.72,24.49-63.48s53.16,13.49,53.16,13.49,14.66,19.67,6.8,49.44c0,0-1.87-15.88-7.25-28.12s-2-14.61-1.89-15.63-34.64-3.4-34.64-3.4-30.91-.69-30.28.68C65.38,103.05,53,145.82,53,145.82Z"/></svg>