<?xml version="1.0" encoding="utf-8"?>
<!-- Generator: Adobe Illustrator 25.4.1, SVG Export Plug-In . SVG Version: 6.00 Build 0)  -->
<svg version="1.1" id="Calque_9" xmlns="http://www.w3.org/2000/svg" xmlns:xlink="http://www.w3.org/1999/xlink" x="0px" y="0px"
	 viewBox="0 0 788 1005" style="enable-background:new 0 0 788 1005;" xml:space="preserve">
<style type="text/css">
	.st0{fill:#6F412A;}
	.st1{fill:#90573A;}
	.st2{fill:#30211B;}
</style>
<path class="st0" d="M358.9,270.6c-1.7,1.3-5,3-10.6,1.8c-4.9-1-13.8-26.3-10-30c5.7-5.6,13.6,2.5,13.6,2.5l1.8,5.5
	C354.8,257.3,356.5,264,358.9,270.6z"/>
<path class="st0" d="M438.3,272.4c-3,0.8-6.2,0.5-9-0.9c3.2-8.9,5.3-18.1,6.3-27.5c2.2-1.9,8.1-6.1,12.7-1.6
	C452.1,246.2,443.2,271.4,438.3,272.4z"/>
<path class="st1" d="M437.5,226.8c0,5.8-0.3,11.5-1,17.2c-1,9.4-3.1,18.6-6.3,27.5c-7.8,21.2-21,34.3-36.1,34.3v-0.1
	c-15.3,0-28.7-13.5-36.4-35.2c-2.3-6.6-4-13.3-5.1-20.2c-1.2-7.8-1.8-15.8-1.8-23.7c0-34.4,19.3-45.6,43.2-45.6v0.1
	C418.1,181.2,437.5,192.4,437.5,226.8z"/>
<path class="st2" d="M352.8,250.4l-10.1-10l1.9-75.1l101.1-2.6c0,0-1.6,77.5-2.3,77.8s-6.9,3.6-6.9,3.6s-2.4-38.2-4.7-38.8
	s-31.3,1.1-35.7,0.3c-5.7-1-41.3-1.8-41.3-1.8L352.8,250.4z"/>
</svg>
