<svg id="Calque_9" data-name="Calque 9" xmlns="http://www.w3.org/2000/svg" xmlns:xlink="http://www.w3.org/1999/xlink" viewBox="0 0 788 1005"><defs><style>.cls-1,.cls-13{fill:none;}.cls-2{fill:#90573a;}.cls-3{fill:#6f412a;}.cls-4{clip-path:url(#clip-path);}.cls-5{fill:#6d3b25;}.cls-6{clip-path:url(#clip-path-2);}.cls-7{clip-path:url(#clip-path-3);}.cls-8{fill:#fff;}.cls-9{clip-path:url(#clip-path-4);}.cls-10{clip-path:url(#clip-path-5);}.cls-11{fill:#050505;}.cls-12{clip-path:url(#clip-path-6);}.cls-13{stroke:#6d3b25;stroke-linecap:round;stroke-miterlimit:10;stroke-width:2px;}.cls-14{fill:#4c2a33;}.cls-15{fill:#1e1817;}.cls-16{fill:#dbd1c1;}</style><clipPath id="clip-path"><polygon class="cls-1" points="405.48 220.13 405.48 220.13 428.91 220.13 428.91 227.25 405.48 227.25 405.48 220.13"/></clipPath><clipPath id="clip-path-2"><polygon class="cls-1" points="382.72 220.13 382.72 220.13 359.29 220.13 359.29 227.25 382.72 227.25 382.72 220.13"/></clipPath><clipPath id="clip-path-3"><polygon class="cls-1" points="406.83 233.58 406.83 233.58 421.89 233.58 421.89 248.09 406.83 248.09 406.83 233.58"/></clipPath><clipPath id="clip-path-4"><polygon class="cls-1" points="381.37 233.58 381.37 233.58 366.3 233.58 366.3 248.09 381.37 248.09 381.37 233.58"/></clipPath><clipPath id="clip-path-5"><polygon class="cls-1" points="409.26 236.87 409.26 236.87 419.33 236.87 419.33 246.94 409.26 246.94 409.26 236.87"/></clipPath><clipPath id="clip-path-6"><polygon class="cls-1" points="378.94 236.87 378.94 236.87 368.87 236.87 368.87 246.94 378.94 246.94 378.94 236.87"/></clipPath></defs><path class="cls-2" d="M393.94,179c23.91,0,43.28,11.19,43.28,45.61,0,46-27.44,79-43.28,79"/><path class="cls-3" d="M427.2,267.12l8.14-24.5s7.88-8.13,13.62-2.49c3.82,3.76-5.09,29-10,30C430.66,271.89,427.2,267.12,427.2,267.12Z"/><path class="cls-3" d="M360.8,267.12l-8.14-24.5s-7.88-8.13-13.62-2.49c-3.82,3.76,5.09,29,10,30C357.34,271.89,360.8,267.12,360.8,267.12Z"/><path class="cls-2" d="M393.94,179c-23.9,0-43.28,11.19-43.28,45.61,0,46,27.45,79,43.28,79"/><g class="cls-4"><path class="cls-5" d="M427.79,227.25a1.12,1.12,0,0,1-.44-.09,50.57,50.57,0,0,0-7.19-2.35c-7.86-1.78-8.37-.54-11.09,0A5,5,0,0,1,406,224c-.4-.47-.75-2.14-.28-2.54.2-.18,3.71-2.57,12.72-.53,3.75.85,9.66,4.09,9.81,4.15a1.12,1.12,0,0,1-.44,2.15Z"/></g><g class="cls-6"><path class="cls-5" d="M360.41,227.25a1.15,1.15,0,0,0,.44-.09,50.06,50.06,0,0,1,7.19-2.35c7.86-1.78,8.36-.54,11.08,0a5,5,0,0,0,3.1-.79c.39-.47.75-2.14.28-2.54-.21-.18-3.71-2.57-12.72-.53-3.75.85-9.66,4.09-9.81,4.15a1.12,1.12,0,0,0-.59,1.47A1.11,1.11,0,0,0,360.41,227.25Z"/></g><g class="cls-7"><ellipse class="cls-8" cx="414.36" cy="240.84" rx="7.53" ry="7.26"/></g><g class="cls-9"><ellipse class="cls-8" cx="373.84" cy="240.84" rx="7.53" ry="7.26"/></g><g class="cls-10"><circle class="cls-11" cx="414.29" cy="241.9" r="5.04"/></g><g class="cls-12"><circle class="cls-11" cx="373.9" cy="241.9" r="5.04"/></g><path class="cls-13" d="M387.83,260.37a51.57,51.57,0,0,0,7.05,1.36c1.65,0,7-1.74,7-1.74"/><ellipse class="cls-14" cx="393.91" cy="278.79" rx="10.3" ry="1.63"/><path class="cls-2" d="M368.87,175.22c-.35-.71,21.9-9.9,21.9-9.9l4.31-.72,1.57.59s8.82,2.35,9.32,4.72,2,14.83,2,14.83l-7.71,1.58L394,184.06s-8.08,0-9.68-.69S368.87,175.22,368.87,175.22Z"/><path class="cls-15" d="M393.83,182.64a13.63,13.63,0,0,1-1,1.47c-8.63,11.21-38.23,19.17-41.17,31.85-3.07,13.22,1.55,26.66,1.55,26.66s-5.59-3.79-6-3.92S323.39,188.4,368,168.28c20.06-9,25.79-3.2,25.79-3.2a1.64,1.64,0,0,0,.26.57C395.31,167.59,400.16,171.82,393.83,182.64Z"/><path class="cls-15" d="M439.91,240.08c-.38.14-5.52,3.93-5.52,3.93s4.24-13.45,1.42-26.67S403.59,196.06,397,184.11a14.34,14.34,0,0,0,.92-1.47c5.83-10.82,1.36-15,.24-17,2.43-1.22,8.88-2.68,22.55,4C461.86,189.79,440.29,239.94,439.91,240.08Z"/><path class="cls-16" d="M343.1,227.25c1.72-.34,51.78-55.22,102.8-16.47,6,4.54,4-38.31-34.19-61.21-14-8.41-60.13-34.35-92.31-14.09-12.7,8-18.5,52-8.37,65.17S320,168.28,329.41,179,335.12,228.83,343.1,227.25Z"/><rect class="cls-16" x="303.5" y="202.92" width="20.77" height="20.77" rx="10.39"/></svg>