<svg id="Calque_9" data-name="Calque 9" xmlns="http://www.w3.org/2000/svg" xmlns:xlink="http://www.w3.org/1999/xlink" viewBox="0 0 788 1005"><defs><style>.cls-1,.cls-13{fill:none;}.cls-2{fill:#90573a;}.cls-3{fill:#6f412a;}.cls-4{clip-path:url(#clip-path);}.cls-5{fill:#6d3b25;}.cls-6{clip-path:url(#clip-path-2);}.cls-7{clip-path:url(#clip-path-3);}.cls-8{fill:#fff;}.cls-9{clip-path:url(#clip-path-4);}.cls-10{clip-path:url(#clip-path-5);}.cls-11{fill:#050505;}.cls-12{clip-path:url(#clip-path-6);}.cls-13{stroke:#6d3b25;stroke-linecap:round;stroke-miterlimit:10;stroke-width:2px;}.cls-14{fill:#4c2a33;}.cls-15{fill:#261e1a;}</style><clipPath id="clip-path"><polygon class="cls-1" points="404.48 222.02 404.48 222.02 427.91 222.02 427.91 229.14 404.48 229.14 404.48 222.02"/></clipPath><clipPath id="clip-path-2"><polygon class="cls-1" points="381.72 222.02 381.72 222.02 358.29 222.02 358.29 229.14 381.72 229.14 381.72 222.02"/></clipPath><clipPath id="clip-path-3"><polygon class="cls-1" points="405.83 235.47 405.83 235.47 420.89 235.47 420.89 249.98 405.83 249.98 405.83 235.47"/></clipPath><clipPath id="clip-path-4"><polygon class="cls-1" points="380.37 235.47 380.37 235.47 365.3 235.47 365.3 249.98 380.37 249.98 380.37 235.47"/></clipPath><clipPath id="clip-path-5"><polygon class="cls-1" points="408.26 238.75 408.26 238.75 418.33 238.75 418.33 248.83 408.26 248.83 408.26 238.75"/></clipPath><clipPath id="clip-path-6"><polygon class="cls-1" points="377.94 238.75 377.94 238.75 367.87 238.75 367.87 248.83 377.94 248.83 377.94 238.75"/></clipPath></defs><path class="cls-2" d="M392.94,180.85c23.91,0,43.28,11.19,43.28,45.61,0,46-27.44,79-43.28,79"/><path class="cls-3" d="M427.57,269l6.82-22.78s9.2-9.85,14.94-4.21c3.82,3.75-5.09,29-10,30C431,273.78,427.57,269,427.57,269Z"/><path class="cls-3" d="M361.17,269,353,244.51s-7.88-8.13-13.62-2.49c-3.82,3.75,5.09,29,10,30C357.71,273.78,361.17,269,361.17,269Z"/><path class="cls-2" d="M392.94,180.85c-23.9,0-46.83,11.37-43.28,45.61,4.58,44,30,77.93,43.28,79"/><g class="cls-4"><path class="cls-5" d="M426.79,229.14a1.12,1.12,0,0,1-.44-.09,49.17,49.17,0,0,0-7.19-2.35c-7.86-1.78-8.37-.54-11.09,0a5,5,0,0,1-3.09-.79c-.4-.47-.75-2.14-.28-2.54.2-.18,3.71-2.57,12.72-.53,3.75.85,9.66,4.09,9.81,4.15a1.12,1.12,0,0,1-.44,2.15Z"/></g><g class="cls-6"><path class="cls-5" d="M359.41,229.14a1.15,1.15,0,0,0,.44-.09A48.69,48.69,0,0,1,367,226.7c7.86-1.78,8.36-.54,11.08,0a5,5,0,0,0,3.1-.79c.39-.47.75-2.14.28-2.54-.21-.18-3.71-2.57-12.72-.53-3.75.85-9.66,4.09-9.81,4.15a1.12,1.12,0,0,0-.59,1.47A1.11,1.11,0,0,0,359.41,229.14Z"/></g><g class="cls-7"><ellipse class="cls-8" cx="413.36" cy="242.73" rx="7.53" ry="7.26"/></g><g class="cls-9"><ellipse class="cls-8" cx="372.84" cy="242.73" rx="7.53" ry="7.26"/></g><g class="cls-10"><circle class="cls-11" cx="413.29" cy="243.79" r="5.04"/></g><g class="cls-12"><circle class="cls-11" cx="372.9" cy="243.79" r="5.04"/></g><path class="cls-13" d="M386.83,262.26a50.36,50.36,0,0,0,7.05,1.35c1.65,0,7-1.73,7-1.73"/><ellipse class="cls-14" cx="392.91" cy="280.68" rx="10.3" ry="1.63"/><path class="cls-15" d="M350.59,242.73c-2-3.26-12.6-50.25,24.48-61.68s53.17,13.11,53.17,13.11,14.65,19.11,6.8,48c0,0-1.87-15.43-7.25-27.32s-2-14.2-1.89-15.19-34.64-3.3-34.64-3.3-30.92-.67-30.28.66C363,201.17,350.59,242.73,350.59,242.73Z"/><path class="cls-15" d="M427.91,197.57c-4.72,1.5,4,5.27,2.22-.46s3.37-25.52-6.09-28-47.85,7.84-57.18,15.39.1,7.07,1,7.51S427.91,197.57,427.91,197.57Z"/></svg>