<?xml version="1.0" encoding="utf-8"?>
<!-- Generator: Adobe Illustrator 25.4.1, SVG Export Plug-In . SVG Version: 6.00 Build 0)  -->
<svg version="1.1" id="Calque_1" xmlns="http://www.w3.org/2000/svg" xmlns:xlink="http://www.w3.org/1999/xlink" x="0px" y="0px"
	 viewBox="0 0 788 1005" style="enable-background:new 0 0 788 1005;" xml:space="preserve">
<style type="text/css">
	.st0{fill:#281E1B;}
	.st1{fill:#8C5C4B;}
	.st2{clip-path:url(#SVGID_00000183245924455132375020000007296706734180928680_);}
	.st3{fill:#6D3B25;}
	.st4{clip-path:url(#SVGID_00000001665174530679481110000014419131220568866217_);}
	.st5{clip-path:url(#SVGID_00000059284894766532752530000015151794213370084003_);}
	.st6{fill:#FFFFFF;}
	.st7{clip-path:url(#SVGID_00000106846632279495875480000012930557727313199247_);}
	.st8{clip-path:url(#SVGID_00000157309312076773115200000013309245123212015031_);}
	.st9{fill:#050505;}
	.st10{clip-path:url(#SVGID_00000034060356767691053510000008468792695006406079_);}
	.st11{fill:none;stroke:#6D3B25;stroke-width:2;stroke-linecap:round;stroke-miterlimit:10;}
	.st12{fill:#4C2A33;}
	.st13{fill:#261E1A;}
	.st14{fill:#9E6754;}
</style>
<g id="Calque_9">
	<ellipse class="st0" cx="394.1" cy="222.2" rx="50" ry="48"/>
	<path class="st1" d="M427.2,268.5l8.1-24.5c0,0,7.9-8.1,13.6-2.5c3.8,3.8-5.1,29-10,30C430.7,273.3,427.2,268.5,427.2,268.5z"/>
	<path class="st1" d="M360.8,268.5l-8.1-24.5c0,0-7.9-8.1-13.6-2.5c-3.8,3.8,5.1,29,10,30C357.3,273.3,360.8,268.5,360.8,268.5z"/>
	<g>
		<defs>
			<polygon id="SVGID_1_" points="405.5,221.5 405.5,221.5 428.9,221.5 428.9,228.7 405.5,228.7 			"/>
		</defs>
		<clipPath id="SVGID_00000111193211537709106290000003511668034471634341_">
			<use xlink:href="#SVGID_1_"  style="overflow:visible;"/>
		</clipPath>
		<g style="clip-path:url(#SVGID_00000111193211537709106290000003511668034471634341_);">
			<path class="st3" d="M427.8,228.7c-0.2,0-0.3,0-0.4-0.1c-2.3-1-4.7-1.8-7.2-2.4c-7.9-1.8-8.4-0.5-11.1,0
				c-1.1,0.1-2.2-0.2-3.1-0.8c-0.4-0.5-0.8-2.1-0.3-2.5c0.2-0.2,3.7-2.6,12.7-0.5c3.8,0.9,9.7,4.1,9.8,4.1c0.6,0.2,0.8,0.9,0.6,1.5
				C428.6,228.4,428.2,228.7,427.8,228.7z"/>
		</g>
	</g>
	<g>
		<defs>
			<polygon id="SVGID_00000171680556209782682850000005311771993339412883_" points="382.7,221.5 382.7,221.5 359.3,221.5 
				359.3,228.7 382.7,228.7 			"/>
		</defs>
		<clipPath id="SVGID_00000063627331741400096320000005054090613219199678_">
			<use xlink:href="#SVGID_00000171680556209782682850000005311771993339412883_"  style="overflow:visible;"/>
		</clipPath>
		<g style="clip-path:url(#SVGID_00000063627331741400096320000005054090613219199678_);">
			<path class="st3" d="M360.4,228.7c0.2,0,0.3,0,0.4-0.1c2.3-1,4.7-1.8,7.2-2.4c7.9-1.8,8.4-0.5,11.1,0c1.1,0.1,2.2-0.2,3.1-0.8
				c0.4-0.5,0.8-2.1,0.3-2.5c-0.2-0.2-3.7-2.6-12.7-0.5c-3.8,0.9-9.7,4.1-9.8,4.1c-0.6,0.2-0.8,0.9-0.6,1.5
				C359.6,228.4,360,228.7,360.4,228.7z"/>
		</g>
	</g>
	<g>
		<defs>
			<polygon id="SVGID_00000165943582954956019280000007881317746610045323_" points="406.8,235 406.8,235 421.9,235 421.9,249.5 
				406.8,249.5 			"/>
		</defs>
		<clipPath id="SVGID_00000157268535331792307710000004661555461422344579_">
			<use xlink:href="#SVGID_00000165943582954956019280000007881317746610045323_"  style="overflow:visible;"/>
		</clipPath>
		<g style="clip-path:url(#SVGID_00000157268535331792307710000004661555461422344579_);">
			<ellipse class="st6" cx="414.4" cy="242.2" rx="7.5" ry="7.3"/>
		</g>
	</g>
	<g>
		<defs>
			<polygon id="SVGID_00000072264642012013786010000015326895386887259035_" points="381.4,235 381.4,235 366.3,235 366.3,249.5 
				381.4,249.5 			"/>
		</defs>
		<clipPath id="SVGID_00000028310595409897976050000013316564015836505022_">
			<use xlink:href="#SVGID_00000072264642012013786010000015326895386887259035_"  style="overflow:visible;"/>
		</clipPath>
		<g style="clip-path:url(#SVGID_00000028310595409897976050000013316564015836505022_);">
			<ellipse class="st6" cx="373.8" cy="242.2" rx="7.5" ry="7.3"/>
		</g>
	</g>
	<g>
		<defs>
			<polygon id="SVGID_00000123440921677742766280000012169251104202540687_" points="409.3,238.3 409.3,238.3 419.3,238.3 
				419.3,248.4 409.3,248.4 			"/>
		</defs>
		<clipPath id="SVGID_00000127730927649153074100000011690590364419445907_">
			<use xlink:href="#SVGID_00000123440921677742766280000012169251104202540687_"  style="overflow:visible;"/>
		</clipPath>
		<g style="clip-path:url(#SVGID_00000127730927649153074100000011690590364419445907_);">
			<circle class="st9" cx="414.3" cy="243.3" r="5"/>
		</g>
	</g>
	<g>
		<defs>
			<polygon id="SVGID_00000116213073115489105390000012649923039350436992_" points="378.9,238.3 378.9,238.3 368.9,238.3 
				368.9,248.4 378.9,248.4 			"/>
		</defs>
		<clipPath id="SVGID_00000005254884622530358770000006790206589360919431_">
			<use xlink:href="#SVGID_00000116213073115489105390000012649923039350436992_"  style="overflow:visible;"/>
		</clipPath>
		<g style="clip-path:url(#SVGID_00000005254884622530358770000006790206589360919431_);">
			<circle class="st9" cx="373.9" cy="243.3" r="5"/>
		</g>
	</g>
	<path class="st11" d="M387.8,261.8c2.3,0.6,4.7,1.1,7,1.4c1.6,0,7-1.7,7-1.7"/>
	<ellipse class="st12" cx="393.9" cy="280.2" rx="10.3" ry="1.6"/>
	<path class="st13" d="M353,242.6c-2-3.4-12.6-51.7,24.5-63.5s53.2,13.5,53.2,13.5s14.7,19.7,6.8,49.4c0,0-1.9-15.9-7.2-28.1
		s-2-14.6-1.9-15.6s-34.6-3.4-34.6-3.4s-30.9-0.7-30.3,0.7C365.4,199.8,353,242.6,353,242.6z"/>
	<path class="st0" d="M346,226.8h-0.4c-0.8,0-1.6,0.1-2.3,0.5c-1.5,0.5-2.6,1.7-3.2,3.2c-0.4,0.7-0.6,1.5-0.5,2.3l0.2,1.6
		c0.3,1,0.8,1.9,1.5,2.6l1.2,0.9c0.9,0.5,1.9,0.8,3,0.8h0.5c1.6-0.1,3.1-0.7,4.2-1.8c0.6-0.5,1-1.2,1.2-1.9c0.4-0.7,0.6-1.5,0.5-2.3
		l-0.2-1.6c-0.3-1-0.8-1.9-1.5-2.6l-1.2-0.9C348.1,227.1,347.1,226.8,346,226.8L346,226.8z"/>
	<path class="st0" d="M337.2,221.2l0.1,0.4c0.6,2,2.2,3.6,4.2,4.2l0.4,0.1c0.8,0.3,1.6,0.3,2.4,0.1c0.8,0,1.6-0.3,2.2-0.7
		c0.7-0.4,1.3-0.9,1.7-1.6c0.5-0.6,0.9-1.3,1.1-2l0.2-1.6c0-1.1-0.3-2.1-0.8-3l-0.9-1.2c-0.7-0.7-1.6-1.3-2.6-1.5l-0.4-0.1l4.2,4.2
		l-0.1-0.4c-0.2-0.7-0.6-1.4-1.1-2c-1.5-1.9-4-2.7-6.3-2.1l-1.4,0.6c-0.9,0.5-1.6,1.3-2.1,2.2l-0.6,1.4c-0.3,1-0.3,2.1,0,3.2
		L337.2,221.2z"/>
	<path class="st0" d="M341.1,204.8l-0.1,0.3l8.8-3.6l0,0l1.2,0.9c-0.1,0-0.1-0.1-0.1-0.1l0.9,1.2c0,0-0.1-0.1-0.1-0.2l0.6,1.4
		c0-0.1,0-0.1,0-0.2l0.2,1.6c0-0.1,0-0.1,0-0.2c-0.1-3.3-2.7-5.9-6-6l-1.6,0.2c-1,0.3-1.9,0.8-2.6,1.5l-0.9,1.2
		c-0.5,0.9-0.8,1.9-0.8,3c0,0,0,0.1,0,0.1c0,0,0,0.1,0,0.1l0.2,1.6c0.1,0.6,0.4,1.1,0.7,1.6c0.6,1,1.4,1.9,2.4,2.5
		c0.9,0.5,1.9,0.8,3,0.8c1.6-0.1,3.1-0.7,4.2-1.8c0.7-0.7,1.3-1.6,1.5-2.6l0.1-0.3c0.3-0.8,0.3-1.6,0.1-2.4c0-0.8-0.3-1.6-0.7-2.2
		c-0.4-0.7-0.9-1.3-1.5-1.7c-0.6-0.5-1.3-0.9-2-1.1l-1.6-0.2c-1.1,0-2.1,0.3-3,0.8l-1.2,0.9C342,202.9,341.5,203.8,341.1,204.8
		L341.1,204.8z"/>
	<path class="st0" d="M350.4,199.2c7.7,0,7.7-12,0-12S342.7,199.2,350.4,199.2z"/>
	<path class="st0" d="M353.6,186.5l0.4,0.9c0.4,0.7,0.9,1.3,1.5,1.7c0.6,0.5,1.3,0.9,2,1.1c1.6,0.4,3.2,0.1,4.6-0.6l1.2-0.9
		c0.7-0.7,1.3-1.6,1.5-2.6l0.2-1.6c0-1.1-0.3-2.1-0.8-3l-0.4-0.9c-0.8-1.3-2.1-2.3-3.6-2.8c-0.8-0.3-1.6-0.3-2.4-0.1
		c-0.8,0-1.6,0.3-2.2,0.7l-1.2,0.9c-0.7,0.7-1.3,1.6-1.5,2.6l-0.2,1.6C352.8,184.6,353.1,185.7,353.6,186.5L353.6,186.5z"/>
	<path class="st0" d="M365.9,172.1l-0.1,0.1l-1.2,0.9h0l-0.1,0.1l-0.9,1.2v0.1l-0.1,0.1l-0.6,1.4v0.1v0.1l-0.2,1.6
		c0,0.1,0,0.1,0,0.2c0,0.3,0.1,0.6,0.1,0.9c0,0.5,0.1,1.1,0.4,1.5c0.1,0.5,0.4,1,0.8,1.3c0.3,0.4,0.6,0.8,1.1,1.1
		c0.2,0.2,0.4,0.4,0.6,0.5l0.2,0.1c0.2,0.1,0.4,0.3,0.6,0.4c0.7,0.4,1.4,0.7,2.2,0.7c0.8,0.2,1.6,0.1,2.4-0.1
		c1.5-0.5,2.7-1.5,3.6-2.8l0.6-1.4c0.3-1,0.3-2.1,0-3.2l-0.6-1.4c-0.5-0.9-1.3-1.6-2.2-2.1c-0.3-0.2-0.5-0.4-0.8-0.5l3,5.2
		c0-0.1,0-0.2,0-0.3l-0.2,1.6c0,0,0-0.1,0-0.1l-0.6,1.4c0-0.1,0.1-0.1,0.1-0.2l-0.9,1.2c0-0.1,0.1-0.1,0.1-0.1l-1.2,0.9l0.1-0.1
		c0.7-0.4,1.3-0.9,1.7-1.5c1.4-1.9,1.6-4.5,0.5-6.7l-0.9-1.2c-0.7-0.7-1.6-1.3-2.6-1.6l-1.6-0.2
		C367.9,171.3,366.9,171.5,365.9,172.1L365.9,172.1z"/>
	<path class="st0" d="M377,171.6v2.2c0,1.6,0.6,3.1,1.8,4.2c1.1,1.1,2.7,1.7,4.2,1.8c1.6,0,3.1-0.6,4.2-1.8c1.1-1.1,1.7-2.7,1.8-4.2
		v-2.2c0-1.6-0.7-3.1-1.8-4.2c-2.3-2.3-6.1-2.3-8.5,0c0,0,0,0,0,0C377.7,168.5,377,170,377,171.6z"/>
	<path class="st0" d="M392,170.7v0.9c0,2.4,1.4,4.6,3.7,5.5c0.7,0.4,1.5,0.6,2.3,0.5l1.6-0.2c1-0.3,1.9-0.8,2.6-1.5l0.9-1.2
		c0.5-0.9,0.8-1.9,0.8-3v-0.9c0-2.4-1.4-4.6-3.7-5.5c-0.7-0.4-1.5-0.6-2.3-0.5l-1.6,0.2c-1,0.3-1.9,0.8-2.6,1.5l-0.9,1.2
		C392.3,168.6,392,169.6,392,170.7L392,170.7z"/>
	<path class="st0" d="M416.8,175.1v-0.3l-11.2,3c0.1,0.1,0.1,0.3,0.2,0.4l0.1,0.2c0.4,0.4,0.7,0.9,1.1,1.4c0.5,0.6,1.2,1,1.9,1.2
		c1.5,0.7,3.2,0.7,4.6,0c0.7-0.2,1.4-0.7,1.9-1.2l0.9-1.2c0.5-0.9,0.8-1.9,0.8-3L417,174c-0.3-1-0.8-1.9-1.5-2.6l-0.1-0.1l0.9,1.2
		c-0.1-0.2-0.2-0.4-0.3-0.6l-0.9-1.2c-0.5-0.6-1.2-1-1.9-1.2c-0.5-0.3-1-0.4-1.5-0.4c-0.8-0.2-1.6-0.1-2.4,0.1l-1.4,0.6l-1.2,0.9
		c-1.1,1.2-1.7,2.7-1.8,4.2v0.3c0,0.8,0.1,1.6,0.5,2.3c0.2,0.7,0.7,1.4,1.2,1.9c0.5,0.6,1.2,1,1.9,1.2c0.7,0.4,1.5,0.6,2.3,0.5
		l1.6-0.2c1-0.3,1.9-0.8,2.6-1.5l0.9-1.2C416.5,177.3,416.7,176.2,416.8,175.1L416.8,175.1z"/>
	<path class="st0" d="M427.5,174.8l-0.4-0.3c-0.9-0.5-1.9-0.8-3-0.8c-1.6,0.1-3.1,0.7-4.2,1.8c-0.7,0.7-1.3,1.6-1.5,2.6
		c0,0.1,0,0.1,0,0.2l-0.2,1.6v0.1c0,0.1,0,0.1,0,0.2l0.2,1.6c0,0,0,0.1,0,0.1c0.3,0.7,0.5,1.4,0.9,2l-0.6-1.4
		c0.1,0.1,0.1,0.3,0.1,0.4c0.6,2.3,2.6,4,5,4.3c0.8,0.2,1.6,0.1,2.4-0.1c1.5-0.4,2.8-1.4,3.6-2.8l0.6-1.4c0.3-1,0.3-2.1,0-3.2
		c-0.1-0.4-0.2-0.8-0.4-1.2c-0.2-0.4-0.3-0.8-0.5-1.1l0.6,1.4c0-0.1-0.1-0.2-0.1-0.3l0.2,1.6c0-0.1,0-0.2,0-0.2l-0.2,1.6
		c0-0.1,0-0.1,0-0.2l-8.8,3.6l0.4,0.3c0.7,0.4,1.4,0.7,2.2,0.7c2.4,0.3,4.7-0.8,6-2.9c0.8-1.4,1-3.1,0.6-4.6l-0.6-1.4
		C429.1,176,428.3,175.3,427.5,174.8z"/>
	<path class="st0" d="M427.9,189c0.4,1,0.6,1.9,1.1,2.8c0.9,1.8,2.5,3.1,4.4,3.6c1.6,0.4,3.2,0.2,4.6-0.6c2.9-1.7,3.9-5.3,2.2-8.2
		c-0.8-1.4-2.1-2.4-3.7-2.8c-0.1,0-0.1,0-0.2,0l1.4,0.6l-0.1-0.1l1.2,0.9c-0.1-0.1-0.2-0.2-0.3-0.3l0.9,1.2
		c-0.1-0.2-0.2-0.3-0.3-0.5l0.6,1.4c-0.2-0.4-0.3-0.9-0.5-1.3c-0.5-1.5-1.4-2.7-2.8-3.6c-0.7-0.4-1.4-0.7-2.2-0.7
		c-0.8-0.2-1.6-0.1-2.4,0.1c-1.5,0.4-2.8,1.4-3.6,2.8C427.7,185.8,427.4,187.5,427.9,189L427.9,189z"/>
	<path class="st0" d="M447.8,199.9l-0.1-0.3c-0.3-1-0.8-1.9-1.5-2.6c-0.5-0.6-1.2-1-1.9-1.2c-0.7-0.4-1.5-0.6-2.3-0.5
		c-1.1,0-2.1,0.3-3,0.8c-0.9,0.6-1.7,1.3-2.3,2.3l-0.1,0.2c-0.6,1.1-0.9,2.3-0.9,3.6c0,0.5,0,1.1,0.1,1.6c0,1.6,0.6,3.1,1.8,4.2
		c2.3,2.3,6.1,2.3,8.5,0c0,0,0,0,0,0c1.1-1.1,1.7-2.7,1.8-4.2c0-0.6-0.1-1.1,0-1.7l-0.2,1.6c0-0.1,0.1-0.3,0.1-0.4l-0.6,1.4
		c0-0.1,0.1-0.2,0.1-0.2l-1,1.2l0.1-0.1l-1.2,0.9l0.1-0.1l-8.8-3.6l0.1,0.3c0.5,1.5,1.4,2.8,2.8,3.6c2.9,1.7,6.5,0.7,8.2-2.1
		c0,0,0,0,0,0C448,203.2,448.2,201.5,447.8,199.9L447.8,199.9z"/>
	<path class="st0" d="M437.8,220v1.3c0.1,1.6,0.7,3.1,1.8,4.2c0.5,0.6,1.2,1,1.9,1.2c0.7,0.4,1.5,0.6,2.3,0.5l1.6-0.2
		c1-0.3,1.9-0.8,2.6-1.5l0.9-1.2c0.5-0.9,0.8-1.9,0.8-3V220c0-0.8-0.1-1.6-0.5-2.3c-0.2-0.7-0.7-1.4-1.2-1.9
		c-1.2-1.1-2.7-1.7-4.2-1.8l-1.6,0.2c-1,0.3-1.9,0.8-2.6,1.5l-0.9,1.2C438.1,217.9,437.8,218.9,437.8,220L437.8,220z"/>
	<path class="st0" d="M436.7,231.6c0,0.2-0.1,0.4-0.2,0.6l0.6-1.4c-0.2,0.6-0.5,1.2-0.7,1.8c0,0.1-0.1,0.3-0.1,0.4
		c-0.3,0.8-0.3,1.6-0.1,2.4c0,0.8,0.3,1.6,0.7,2.2c0.4,0.7,0.9,1.3,1.5,1.7c0.6,0.5,1.3,0.9,2,1.1l1.6,0.2c1.1,0,2.1-0.3,3-0.8
		l1.2-0.9c0.7-0.7,1.3-1.6,1.5-2.6c0-0.2,0.1-0.4,0.2-0.6l-0.6,1.4c0.2-0.6,0.5-1.2,0.7-1.8c0.1-0.1,0.1-0.3,0.1-0.4
		c0.4-1.6,0.1-3.2-0.6-4.6c-0.4-0.7-0.9-1.3-1.5-1.7c-0.6-0.5-1.3-0.9-2-1.1l-1.6-0.2c-1.1,0-2.1,0.3-3,0.8l-1.2,0.9
		C437.6,229.7,437,230.6,436.7,231.6L436.7,231.6z"/>
	<path class="st0" d="M435,201.8c7.7,0,7.7-12,0-12S427.3,201.8,435,201.8z"/>
</g>
<g id="Calque_10">
	<ellipse class="st0" cx="394.1" cy="222.2" rx="50" ry="48"/>
	<path class="st14" d="M437.2,226c0,46-27.4,79-43.3,79c-15.8,0-43.3-33-43.3-79c0-34.4,19.4-45.6,43.3-45.6
		C417.8,180.4,437.2,191.6,437.2,226z"/>
	<path class="st1" d="M427.2,268.5l8.1-24.5c0,0,7.9-8.1,13.6-2.5c3.8,3.8-5.1,29-10,30C430.7,273.3,427.2,268.5,427.2,268.5z"/>
	<path class="st1" d="M360.8,268.5l-8.1-24.5c0,0-7.9-8.1-13.6-2.5c-3.8,3.8,5.1,29,10,30C357.3,273.3,360.8,268.5,360.8,268.5z"/>
	<path class="st13" d="M351.4,242.6c-2-3.4-12.8-51.7,24.9-63.5s54.2,13.5,54.2,13.5s14.9,19.7,6.9,49.4c0,0-1.9-15.9-7.4-28.1
		s-2-14.6-1.9-15.6s-35.3-3.4-35.3-3.4s-31.5-0.7-30.8,0.7C364,199.8,351.4,242.6,351.4,242.6z"/>
	<path class="st0" d="M346,226.8h-0.4c-0.8,0-1.6,0.1-2.3,0.5c-1.5,0.5-2.6,1.7-3.2,3.2c-0.4,0.7-0.6,1.5-0.5,2.3l0.2,1.6
		c0.3,1,0.8,1.9,1.5,2.6l1.2,0.9c0.9,0.5,1.9,0.8,3,0.8h0.5c1.6-0.1,3.1-0.7,4.2-1.8c0.6-0.5,1-1.2,1.2-1.9c0.4-0.7,0.6-1.5,0.5-2.3
		l-0.2-1.6c-0.3-1-0.8-1.9-1.5-2.6l-1.2-0.9C348.1,227.1,347.1,226.8,346,226.8L346,226.8z"/>
	<path class="st0" d="M337.2,221.2l0.1,0.4c0.6,2,2.2,3.6,4.2,4.2l0.4,0.1c0.8,0.3,1.6,0.3,2.4,0.1c0.8,0,1.6-0.3,2.2-0.7
		c0.7-0.4,1.3-0.9,1.7-1.6c0.5-0.6,0.9-1.3,1.1-2l0.2-1.6c0-1.1-0.3-2.1-0.8-3l-0.9-1.2c-0.7-0.7-1.6-1.3-2.6-1.5l-0.4-0.1l4.2,4.2
		l-0.1-0.4c-0.2-0.7-0.6-1.4-1.1-2c-1.5-1.9-4-2.7-6.3-2.1l-1.4,0.6c-0.9,0.5-1.6,1.3-2.1,2.2l-0.6,1.4c-0.3,1-0.3,2.1,0,3.2
		L337.2,221.2z"/>
	<path class="st0" d="M341.1,204.8l-0.1,0.3l8.8-3.6l0,0l1.2,0.9c-0.1,0-0.1-0.1-0.1-0.1l0.9,1.2c0,0-0.1-0.1-0.1-0.2l0.6,1.4
		c0-0.1,0-0.1,0-0.2l0.2,1.6c0-0.1,0-0.1,0-0.2c-0.1-3.3-2.7-5.9-6-6l-1.6,0.2c-1,0.3-1.9,0.8-2.6,1.5l-0.9,1.2
		c-0.5,0.9-0.8,1.9-0.8,3c0,0,0,0.1,0,0.1c0,0,0,0.1,0,0.1l0.2,1.6c0.1,0.6,0.4,1.1,0.7,1.6c0.6,1,1.4,1.9,2.4,2.5
		c0.9,0.5,1.9,0.8,3,0.8c1.6-0.1,3.1-0.7,4.2-1.8c0.7-0.7,1.3-1.6,1.5-2.6l0.1-0.3c0.3-0.8,0.3-1.6,0.1-2.4c0-0.8-0.3-1.6-0.7-2.2
		c-0.4-0.7-0.9-1.3-1.5-1.7c-0.6-0.5-1.3-0.9-2-1.1l-1.6-0.2c-1.1,0-2.1,0.3-3,0.8l-1.2,0.9C342,202.9,341.5,203.8,341.1,204.8
		L341.1,204.8z"/>
	<path class="st0" d="M350.4,199.2c7.7,0,7.7-12,0-12S342.7,199.2,350.4,199.2z"/>
	<path class="st0" d="M353.6,186.5l0.4,0.9c0.4,0.7,0.9,1.3,1.5,1.7c0.6,0.5,1.3,0.9,2,1.1c1.6,0.4,3.2,0.1,4.6-0.6l1.2-0.9
		c0.7-0.7,1.3-1.6,1.5-2.6l0.2-1.6c0-1.1-0.3-2.1-0.8-3l-0.4-0.9c-0.8-1.3-2.1-2.3-3.6-2.8c-0.8-0.3-1.6-0.3-2.4-0.1
		c-0.8,0-1.6,0.3-2.2,0.7l-1.2,0.9c-0.7,0.7-1.3,1.6-1.5,2.6l-0.2,1.6C352.8,184.6,353.1,185.7,353.6,186.5L353.6,186.5z"/>
	<path class="st0" d="M365.9,172.1l-0.1,0.1l-1.2,0.9h0l-0.1,0.1l-0.9,1.2v0.1l-0.1,0.1l-0.6,1.4v0.1v0.1l-0.2,1.6
		c0,0.1,0,0.1,0,0.2c0,0.3,0.1,0.6,0.1,0.9c0,0.5,0.1,1.1,0.4,1.5c0.1,0.5,0.4,1,0.8,1.3c0.3,0.4,0.6,0.8,1.1,1.1
		c0.2,0.2,0.4,0.4,0.6,0.5l0.2,0.1c0.2,0.1,0.4,0.3,0.6,0.4c0.7,0.4,1.4,0.7,2.2,0.7c0.8,0.2,1.6,0.1,2.4-0.1
		c1.5-0.5,2.7-1.5,3.6-2.8l0.6-1.4c0.3-1,0.3-2.1,0-3.2l-0.6-1.4c-0.5-0.9-1.3-1.6-2.2-2.1c-0.3-0.2-0.5-0.4-0.8-0.5l3,5.2
		c0-0.1,0-0.2,0-0.3l-0.2,1.6c0,0,0-0.1,0-0.1l-0.6,1.4c0-0.1,0.1-0.1,0.1-0.2l-0.9,1.2c0-0.1,0.1-0.1,0.1-0.1l-1.2,0.9l0.1-0.1
		c0.7-0.4,1.3-0.9,1.7-1.5c1.4-1.9,1.6-4.5,0.5-6.7l-0.9-1.2c-0.7-0.7-1.6-1.3-2.6-1.6l-1.6-0.2
		C367.9,171.3,366.9,171.5,365.9,172.1L365.9,172.1z"/>
	<path class="st0" d="M377,171.6v2.2c0,1.6,0.6,3.1,1.8,4.2c1.1,1.1,2.7,1.7,4.2,1.8c1.6,0,3.1-0.6,4.2-1.8c1.1-1.1,1.7-2.7,1.8-4.2
		v-2.2c0-1.6-0.7-3.1-1.8-4.2c-2.3-2.3-6.1-2.3-8.5,0c0,0,0,0,0,0C377.7,168.5,377,170,377,171.6z"/>
	<path class="st0" d="M392,170.7v0.9c0,2.4,1.4,4.6,3.7,5.5c0.7,0.4,1.5,0.6,2.3,0.5l1.6-0.2c1-0.3,1.9-0.8,2.6-1.5l0.9-1.2
		c0.5-0.9,0.8-1.9,0.8-3v-0.9c0-2.4-1.4-4.6-3.7-5.5c-0.7-0.4-1.5-0.6-2.3-0.5l-1.6,0.2c-1,0.3-1.9,0.8-2.6,1.5l-0.9,1.2
		C392.3,168.6,392,169.6,392,170.7L392,170.7z"/>
	<path class="st0" d="M416.8,175.1v-0.3l-11.2,3c0.1,0.1,0.1,0.3,0.2,0.4l0.1,0.2c0.4,0.4,0.7,0.9,1.1,1.4c0.5,0.6,1.2,1,1.9,1.2
		c1.5,0.7,3.2,0.7,4.6,0c0.7-0.2,1.4-0.7,1.9-1.2l0.9-1.2c0.5-0.9,0.8-1.9,0.8-3L417,174c-0.3-1-0.8-1.9-1.5-2.6l-0.1-0.1l0.9,1.2
		c-0.1-0.2-0.2-0.4-0.3-0.6l-0.9-1.2c-0.5-0.6-1.2-1-1.9-1.2c-0.5-0.3-1-0.4-1.5-0.4c-0.8-0.2-1.6-0.1-2.4,0.1l-1.4,0.6l-1.2,0.9
		c-1.1,1.2-1.7,2.7-1.8,4.2v0.3c0,0.8,0.1,1.6,0.5,2.3c0.2,0.7,0.7,1.4,1.2,1.9c0.5,0.6,1.2,1,1.9,1.2c0.7,0.4,1.5,0.6,2.3,0.5
		l1.6-0.2c1-0.3,1.9-0.8,2.6-1.5l0.9-1.2C416.5,177.3,416.7,176.2,416.8,175.1L416.8,175.1z"/>
	<path class="st0" d="M427.5,174.8l-0.4-0.3c-0.9-0.5-1.9-0.8-3-0.8c-1.6,0.1-3.1,0.7-4.2,1.8c-0.7,0.7-1.3,1.6-1.5,2.6
		c0,0.1,0,0.1,0,0.2l-0.2,1.6v0.1c0,0.1,0,0.1,0,0.2l0.2,1.6c0,0,0,0.1,0,0.1c0.3,0.7,0.5,1.4,0.9,2l-0.6-1.4
		c0.1,0.1,0.1,0.3,0.1,0.4c0.6,2.3,2.6,4,5,4.3c0.8,0.2,1.6,0.1,2.4-0.1c1.5-0.4,2.8-1.4,3.6-2.8l0.6-1.4c0.3-1,0.3-2.1,0-3.2
		c-0.1-0.4-0.2-0.8-0.4-1.2c-0.2-0.4-0.3-0.8-0.5-1.1l0.6,1.4c0-0.1-0.1-0.2-0.1-0.3l0.2,1.6c0-0.1,0-0.2,0-0.2l-0.2,1.6
		c0-0.1,0-0.1,0-0.2l-8.8,3.6l0.4,0.3c0.7,0.4,1.4,0.7,2.2,0.7c2.4,0.3,4.7-0.8,6-2.9c0.8-1.4,1-3.1,0.6-4.6l-0.6-1.4
		C429.1,176,428.3,175.3,427.5,174.8z"/>
	<path class="st0" d="M427.9,189c0.4,1,0.6,1.9,1.1,2.8c0.9,1.8,2.5,3.1,4.4,3.6c1.6,0.4,3.2,0.2,4.6-0.6c2.9-1.7,3.9-5.3,2.2-8.2
		c-0.8-1.4-2.1-2.4-3.7-2.8c-0.1,0-0.1,0-0.2,0l1.4,0.6l-0.1-0.1l1.2,0.9c-0.1-0.1-0.2-0.2-0.3-0.3l0.9,1.2
		c-0.1-0.2-0.2-0.3-0.3-0.5l0.6,1.4c-0.2-0.4-0.3-0.9-0.5-1.3c-0.5-1.5-1.4-2.7-2.8-3.6c-0.7-0.4-1.4-0.7-2.2-0.7
		c-0.8-0.2-1.6-0.1-2.4,0.1c-1.5,0.4-2.8,1.4-3.6,2.8C427.7,185.8,427.4,187.5,427.9,189L427.9,189z"/>
	<path class="st0" d="M447.8,199.9l-0.1-0.3c-0.3-1-0.8-1.9-1.5-2.6c-0.5-0.6-1.2-1-1.9-1.2c-0.7-0.4-1.5-0.6-2.3-0.5
		c-1.1,0-2.1,0.3-3,0.8c-0.9,0.6-1.7,1.3-2.3,2.3l-0.1,0.2c-0.6,1.1-0.9,2.3-0.9,3.6c0,0.5,0,1.1,0.1,1.6c0,1.6,0.6,3.1,1.8,4.2
		c2.3,2.3,6.1,2.3,8.5,0c0,0,0,0,0,0c1.1-1.1,1.7-2.7,1.8-4.2c0-0.6-0.1-1.1,0-1.7l-0.2,1.6c0-0.1,0.1-0.3,0.1-0.4l-0.6,1.4
		c0-0.1,0.1-0.2,0.1-0.2l-1,1.2l0.1-0.1l-1.2,0.9l0.1-0.1l-8.8-3.6l0.1,0.3c0.5,1.5,1.4,2.8,2.8,3.6c2.9,1.7,6.5,0.7,8.2-2.1
		c0,0,0,0,0,0C448,203.2,448.2,201.5,447.8,199.9L447.8,199.9z"/>
	<path class="st0" d="M437.8,220v1.3c0.1,1.6,0.7,3.1,1.8,4.2c0.5,0.6,1.2,1,1.9,1.2c0.7,0.4,1.5,0.6,2.3,0.5l1.6-0.2
		c1-0.3,1.9-0.8,2.6-1.5l0.9-1.2c0.5-0.9,0.8-1.9,0.8-3V220c0-0.8-0.1-1.6-0.5-2.3c-0.2-0.7-0.7-1.4-1.2-1.9
		c-1.2-1.1-2.7-1.7-4.2-1.8l-1.6,0.2c-1,0.3-1.9,0.8-2.6,1.5l-0.9,1.2C438.1,217.9,437.8,218.9,437.8,220L437.8,220z"/>
	<path class="st0" d="M436.7,231.6c0,0.2-0.1,0.4-0.2,0.6l0.6-1.4c-0.2,0.6-0.5,1.2-0.7,1.8c0,0.1-0.1,0.3-0.1,0.4
		c-0.3,0.8-0.3,1.6-0.1,2.4c0,0.8,0.3,1.6,0.7,2.2c0.4,0.7,0.9,1.3,1.5,1.7c0.6,0.5,1.3,0.9,2,1.1l1.6,0.2c1.1,0,2.1-0.3,3-0.8
		l1.2-0.9c0.7-0.7,1.3-1.6,1.5-2.6c0-0.2,0.1-0.4,0.2-0.6l-0.6,1.4c0.2-0.6,0.5-1.2,0.7-1.8c0.1-0.1,0.1-0.3,0.1-0.4
		c0.4-1.6,0.1-3.2-0.6-4.6c-0.4-0.7-0.9-1.3-1.5-1.7c-0.6-0.5-1.3-0.9-2-1.1l-1.6-0.2c-1.1,0-2.1,0.3-3,0.8l-1.2,0.9
		C437.6,229.7,437,230.6,436.7,231.6L436.7,231.6z"/>
	<path class="st0" d="M435,201.8c7.7,0,7.7-12,0-12S427.3,201.8,435,201.8z"/>
</g>
</svg>
