<svg id="Calque_9" data-name="Calque 9" xmlns="http://www.w3.org/2000/svg" xmlns:xlink="http://www.w3.org/1999/xlink" viewBox="0 0 788 1005"><defs><style>.cls-1,.cls-13{fill:none;}.cls-2{fill:#90573a;}.cls-3{fill:#6f412a;}.cls-4{clip-path:url(#clip-path);}.cls-5{fill:#6d3b25;}.cls-6{clip-path:url(#clip-path-2);}.cls-7{clip-path:url(#clip-path-3);}.cls-8{fill:#fff;}.cls-9{clip-path:url(#clip-path-4);}.cls-10{clip-path:url(#clip-path-5);}.cls-11{fill:#050505;}.cls-12{clip-path:url(#clip-path-6);}.cls-13{stroke:#6d3b25;stroke-linecap:round;stroke-miterlimit:10;stroke-width:2px;}.cls-14{fill:#4c2a33;}.cls-15{fill:#2d2020;}</style><clipPath id="clip-path"><polygon class="cls-1" points="405.48 221.89 405.48 221.89 428.91 221.89 428.91 229.01 405.48 229.01 405.48 221.89"/></clipPath><clipPath id="clip-path-2"><polygon class="cls-1" points="382.72 221.89 382.72 221.89 359.29 221.89 359.29 229.01 382.72 229.01 382.72 221.89"/></clipPath><clipPath id="clip-path-3"><polygon class="cls-1" points="406.83 235.34 406.83 235.34 421.89 235.34 421.89 249.85 406.83 249.85 406.83 235.34"/></clipPath><clipPath id="clip-path-4"><polygon class="cls-1" points="381.37 235.34 381.37 235.34 366.3 235.34 366.3 249.85 381.37 249.85 381.37 235.34"/></clipPath><clipPath id="clip-path-5"><polygon class="cls-1" points="409.26 238.62 409.26 238.62 419.33 238.62 419.33 248.69 409.26 248.69 409.26 238.62"/></clipPath><clipPath id="clip-path-6"><polygon class="cls-1" points="378.94 238.62 378.94 238.62 368.87 238.62 368.87 248.69 378.94 248.69 378.94 238.62"/></clipPath></defs><path class="cls-2" d="M393.94,180.71c23.91,0,43.28,11.2,43.28,45.61,0,46-27.44,79-43.28,79"/><path class="cls-3" d="M427.2,268.87l8.14-24.49s7.88-8.13,13.62-2.49c3.82,3.75-5.09,29-10,30C430.66,273.65,427.2,268.87,427.2,268.87Z"/><path class="cls-3" d="M360.8,268.87l-8.14-24.49s-7.88-8.13-13.62-2.49c-3.82,3.75,5.09,29,10,30C357.34,273.65,360.8,268.87,360.8,268.87Z"/><path class="cls-2" d="M393.94,180.71c-23.9,0-43.28,11.2-43.28,45.61,0,46,27.45,79,43.28,79"/><g class="cls-4"><path class="cls-5" d="M427.79,229a1.12,1.12,0,0,1-.44-.09,47.85,47.85,0,0,0-7.19-2.35c-7.86-1.78-8.37-.54-11.09,0a5,5,0,0,1-3.09-.78c-.4-.47-.75-2.15-.28-2.55.2-.17,3.71-2.56,12.72-.53,3.75.85,9.66,4.09,9.81,4.16a1.12,1.12,0,0,1-.44,2.15Z"/></g><g class="cls-6"><path class="cls-5" d="M360.41,229a1.15,1.15,0,0,0,.44-.09,47.39,47.39,0,0,1,7.19-2.35c7.86-1.78,8.36-.54,11.08,0a5,5,0,0,0,3.1-.78c.39-.47.75-2.15.28-2.55-.21-.17-3.71-2.56-12.72-.53-3.75.85-9.66,4.09-9.81,4.16a1.12,1.12,0,0,0,.44,2.15Z"/></g><g class="cls-7"><ellipse class="cls-8" cx="414.36" cy="242.59" rx="7.53" ry="7.26"/></g><g class="cls-9"><ellipse class="cls-8" cx="373.84" cy="242.59" rx="7.53" ry="7.26"/></g><g class="cls-10"><circle class="cls-11" cx="414.29" cy="243.66" r="5.04"/></g><g class="cls-12"><circle class="cls-11" cx="373.9" cy="243.66" r="5.04"/></g><path class="cls-13" d="M387.83,262.13a50.36,50.36,0,0,0,7.05,1.35c1.65,0,7-1.73,7-1.73"/><ellipse class="cls-14" cx="393.91" cy="280.54" rx="10.3" ry="1.63"/><path class="cls-15" d="M352.66,244.38l2.92-22.49,17.93-7.95,10.1-24.1,26,3.66,12.29-3.66-6.31,7.36,16.84,16.27,2.92,30.91s5.35-2.59,6.73-4.48,12.57-36.72,12.57-36.72l-17.42-19.24H430.7l-11.37-21.36-47-8L319.19,199.5,339,241.89l7.16-.45Z"/></svg>