<svg id="Calque_9" data-name="Calque 9" xmlns="http://www.w3.org/2000/svg" viewBox="0 0 788 1005"><defs><style>.cls-1{fill:#9e6754;}.cls-2{fill:#8c5c4b;}.cls-3{fill:#281e1b;}</style></defs><path class="cls-1" d="M393.94,178c23.91,0,43.28,11.2,43.28,45.61,0,46-27.44,79-43.28,79"/><path class="cls-2" d="M427.2,266.16l8.14-24.49s7.88-8.13,13.62-2.49c3.82,3.75-5.09,29-10,30C430.66,270.94,427.2,266.16,427.2,266.16Z"/><path class="cls-2" d="M360.8,266.16l-8.14-24.49s-7.88-8.13-13.62-2.49c-3.82,3.75,5.09,29,10,30C357.34,270.94,360.8,266.16,360.8,266.16Z"/><path class="cls-1" d="M393.94,302.63c-15.83,0-43.28-33.05-43.28-79C350.66,189.2,370,178,393.94,178"/><path class="cls-3" d="M431.53,201.13c-.44-1-1.24-3.54-.66-4.52,1.88-3.15,4.07-.09,5.27,2,1.32,2.29,2.65,7.48-1.37,6.83C433.45,205.21,432.05,202.37,431.53,201.13Z"/><path class="cls-3" d="M434.79,211c-.14-1.13-.25-3.75.58-4.54,2.65-2.52,3.94,1,4.54,3.33.66,2.55.55,7.91-3.15,6.21C435.54,215.39,435,212.28,434.79,211Z"/><path class="cls-3" d="M435.58,229.92c.15-1.13.7-3.69,1.69-4.25,3.2-1.79,3.57,2,3.57,4.35,0,2.64-1.44,7.8-4.6,5.24C435.2,234.41,435.41,231.25,435.58,229.92Z"/><path class="cls-3" d="M400,178.79c-1.12-.21-3.65-.89-4.15-1.92-1.62-3.28,2.14-3.46,4.53-3.33,2.64.14,7.72,1.85,5,4.87C404.49,179.4,401.36,179,400,178.79Z"/><path class="cls-3" d="M420.55,185.57c-1-.55-3.18-2-3.33-3.13-.5-3.63,3.12-2.61,5.35-1.73,2.46,1,6.74,4.18,3.19,6.19C424.59,187.56,421.73,186.21,420.55,185.57Z"/><path class="cls-3" d="M357.44,201.13c.44-1,1.25-3.54.66-4.52-1.87-3.15-4.07-.09-5.26,2-1.32,2.29-2.66,7.48,1.36,6.83C355.53,205.21,356.93,202.37,357.44,201.13Z"/><path class="cls-3" d="M352.12,222c.15-1.14.25-3.75-.58-4.54-2.65-2.52-3.94,1-4.54,3.32-.65,2.56-.54,7.92,3.15,6.22C351.37,226.41,352,223.3,352.12,222Z"/><path class="cls-3" d="M353.39,229.92c-.14-1.13-.69-3.69-1.69-4.25-3.2-1.79-3.57,2-3.57,4.35,0,2.64,1.44,7.8,4.6,5.24C353.77,234.41,353.56,231.25,353.39,229.92Z"/><path class="cls-3" d="M388.94,178.79c1.13-.21,3.65-.89,4.16-1.92,1.61-3.28-2.15-3.46-4.53-3.33-2.64.14-7.72,1.85-5,4.87C384.48,179.4,387.62,179,388.94,178.79Z"/><path class="cls-3" d="M368.42,185.57c1-.55,3.18-2,3.34-3.13.5-3.63-3.13-2.61-5.35-1.73-2.46,1-6.74,4.18-3.2,6.19C364.38,187.56,367.24,186.21,368.42,185.57Z"/><path class="cls-3" d="M361.75,191.68c.58-1,1.72-3.35,1.27-4.4-1.42-3.37-4-.64-5.48,1.25-1.62,2.08-3.65,7,.42,6.95C359.3,195.45,361.07,192.83,361.75,191.68Z"/><path class="cls-3" d="M377.86,180.8c1.07-.39,3.45-1.49,3.77-2.59,1-3.51-2.7-3.05-5-2.52-2.58.59-7.29,3.14-4.09,5.65C373.57,182.17,376.6,181.26,377.86,180.8Z"/><path class="cls-3" d="M411.23,180.55c1.09.34,3.65.91,4.57.24,3-2.16-.28-4.06-2.46-5.06-2.4-1.1-7.69-2-6.68,2C407,179,410,180.15,411.23,180.55Z"/><path class="cls-3" d="M427,192.51c.73.88,2.57,2.74,3.71,2.68,3.66-.2,2-3.56.68-5.58-1.41-2.24-5.39-5.83-6.68-2C424.32,188.92,426.19,191.47,427,192.51Z"/><path class="cls-3" d="M353.39,210.74c.39-1.07,1.09-3.59.46-4.55-2-3.06-4.07.08-5.17,2.2-1.23,2.35-2.34,7.59,1.65,6.77C351.65,214.89,352.92,212,353.39,210.74Z"/><path class="cls-3" d="M436.65,221.69c-.14-1.14-.25-3.75.58-4.54,2.65-2.52,3.94,1,4.54,3.33.66,2.55.55,7.91-3.15,6.21C437.4,226.13,436.82,223,436.65,221.69Z"/><path class="cls-3" d="M362.63,184.63c7.72,0,7.73-12,0-12s-7.74,12,0,12Z"/><path class="cls-3" d="M380.58,171.2a4,4,0,0,1-.24-.46l.6,1.43a2.53,2.53,0,0,1-.12-.36l-4.19,7.38.08,0-1.6.21h.1l-1.59-.21h.05l-1.43-.61,0,0-1.21-.94,0,0-.93-1.21a.08.08,0,0,1,0,0l-.6-1.44a.44.44,0,0,1,0,.1l-.21-1.59v.18a6.62,6.62,0,0,0,1.75,4.24,4.56,4.56,0,0,0,1.94,1.24,4.46,4.46,0,0,0,2.31.52l1.59-.22a6,6,0,0,0,2.65-1.54l.94-1.21a6.09,6.09,0,0,0,.82-3v-.18l-.22-1.6a.2.2,0,0,0,0-.07,5.27,5.27,0,0,0-.31-.74c-.1-.25-.2-.5-.32-.75a6.35,6.35,0,0,0-2.25-2.24l-1.43-.6-.05,0a6.42,6.42,0,0,0-3.37,0,4.47,4.47,0,0,0-2,1.07,4.55,4.55,0,0,0-1.55,1.68l-.6,1.44a6,6,0,0,0,0,3.19,13,13,0,0,0,.74,1.82,2.64,2.64,0,0,0,.23.44,4.53,4.53,0,0,0,1.54,1.68,4.47,4.47,0,0,0,2,1.07,6.75,6.75,0,0,0,4.63-.6l1.21-.94a6,6,0,0,0,1.54-2.65l.22-1.59a6,6,0,0,0-.82-3Z"/><path class="cls-3" d="M396.87,169.44l-.19-.28-8.21,8.21.63.28a4.48,4.48,0,0,0,2.23.71,4.56,4.56,0,0,0,2.4-.11,4.47,4.47,0,0,0,2-1.07,4.64,4.64,0,0,0,1.54-1.69l.61-1.43a6.16,6.16,0,0,0,0-3.19l-.61-1.43a6,6,0,0,0-2.15-2.15l-.63-.28-1.43-.6a4.56,4.56,0,0,0-2.4-.11,3,3,0,0,0-1.51.41,4.52,4.52,0,0,0-1.93,1.24l-.94,1.21-.6,1.44a4.52,4.52,0,0,0-.11,2.39,4.38,4.38,0,0,0,.71,2.23l.19.27a4.64,4.64,0,0,0,1.54,1.69,4.45,4.45,0,0,0,2.05,1.07,6.72,6.72,0,0,0,4.62-.6l1.21-.94a6,6,0,0,0,1.55-2.65l.21-1.59a5.94,5.94,0,0,0-.82-3Z"/><path class="cls-3" d="M409.25,167.73a6.65,6.65,0,0,0-3.42-.92,6.28,6.28,0,0,0-3.14.86l-.06,0-1.21.94a.47.47,0,0,0-.1.1,6.07,6.07,0,0,0-1.54,2.65,4.62,4.62,0,0,0-.11,2.39,4.49,4.49,0,0,0,.72,2.23,6,6,0,0,0,2.15,2.15l.65.37a4.51,4.51,0,0,0,2.23.71,4.56,4.56,0,0,0,2.4-.11,6.61,6.61,0,0,0,3.58-2.76l.61-1.43a6.16,6.16,0,0,0,0-3.19l-.61-1.43a6,6,0,0,0-2.15-2.15l-.65-.37,1.21,9.42.09-.09-1.21.94.08,0-1.43.6.08,0-1.59.21H406l-1.6-.21.19.05-1.44-.6a.2.2,0,0,1,.08,0,4.51,4.51,0,0,0,2.23.71,4.56,4.56,0,0,0,2.4-.11,4.47,4.47,0,0,0,2-1.07,4.55,4.55,0,0,0,1.54-1.69l.61-1.43a6.16,6.16,0,0,0,0-3.19l-.61-1.43a6,6,0,0,0-2.15-2.15Z"/><path class="cls-3" d="M415.64,177.31a10.6,10.6,0,0,0,.23,1.95,3.89,3.89,0,0,0,.12.49c.1.31.22.6.3.92a6.61,6.61,0,0,0,2.76,3.58,4.38,4.38,0,0,0,2.23.71,4.52,4.52,0,0,0,2.39-.1,6.1,6.1,0,0,0,3.59-2.76,6.3,6.3,0,0,0,.6-4.62c-.12-.48-.34-.92-.42-1.41l.21,1.59a2,2,0,0,1,0-.35,4.56,4.56,0,0,0-.52-2.31,6.18,6.18,0,0,0-5.48-3.69,6.06,6.06,0,0,0-4.25,1.76,6.26,6.26,0,0,0-1.75,4.24Z"/><path class="cls-3" d="M355.14,175.82h.44a6.62,6.62,0,0,0,4.24-1.75,6.7,6.7,0,0,0,1.76-4.25l-.21-1.59a6,6,0,0,0-1.55-2.65l-1.21-.94a6.09,6.09,0,0,0-3-.82h-.44a5.8,5.8,0,0,0-5.48,3.69,4.51,4.51,0,0,0-.52,2.31l.21,1.6a6,6,0,0,0,1.55,2.65l1.21.93a5.89,5.89,0,0,0,3,.82Z"/><path class="cls-3" d="M370.55,170.1h.15l-1.6-.22a1.29,1.29,0,0,1,.35.1l-1.43-.61.26.15-1.22-.93a1.87,1.87,0,0,1,.32.31l-.94-1.21a1.28,1.28,0,0,1,.15.25l-.61-1.43a1.4,1.4,0,0,1,.1.35l-.21-1.6v.15a5.8,5.8,0,0,0,3.69,5.48,4.51,4.51,0,0,0,2.31.52l1.6-.21a6,6,0,0,0,2.65-1.55l.93-1.21a5.89,5.89,0,0,0,.82-3v-.15l-.22-1.59v-.07a5.47,5.47,0,0,0-.39-1,5.33,5.33,0,0,0-.43-.94c-.25-.38-.69-.92-1-1.27l-.12-.14-.11-.1c-.38-.32-.87-.71-1.28-1l-.25-.15c-.44-.21-1-.47-1.5-.63l-.18,0c-.29-.06-.67-.1-.9-.13a7.46,7.46,0,0,0-.95-.11,4.51,4.51,0,0,0-2.31.52,6.18,6.18,0,0,0-3.69,5.48l.22,1.59a6,6,0,0,0,1.54,2.65l1.21.94a6,6,0,0,0,3,.82Z"/><path class="cls-3" d="M390.81,168.34c7.72,0,7.73-12,0-12s-7.73,12,0,12Z"/><path class="cls-3" d="M406,157.43l-.36.09a6,6,0,0,0-4.19,4.19l-.08.35a4.56,4.56,0,0,0-.11,2.4,5.34,5.34,0,0,0,2.26,3.91,4.47,4.47,0,0,0,2,1.07l1.59.22a5.94,5.94,0,0,0,3-.82l1.22-.94a6.07,6.07,0,0,0,1.54-2.65l.08-.35-4.19,4.19.36-.09a6.66,6.66,0,0,0,3.58-2.75,4.53,4.53,0,0,0,.72-2.23,4.66,4.66,0,0,0-.11-2.4l-.61-1.43a6,6,0,0,0-2.15-2.15l-1.43-.61a6.16,6.16,0,0,0-3.19,0Z"/><path class="cls-3" d="M431.6,169.38v-.88a4.51,4.51,0,0,0-.52-2.31,5.39,5.39,0,0,0-3.17-3.17,4.49,4.49,0,0,0-2.31-.52l-1.6.22a5.94,5.94,0,0,0-2.64,1.54l-.94,1.21a5.89,5.89,0,0,0-.82,3v.88a6.15,6.15,0,0,0,6,6l1.59-.21a6.07,6.07,0,0,0,2.65-1.54l.94-1.22a5.94,5.94,0,0,0,.82-3Z"/><path class="cls-3" d="M352.77,200.27a6.3,6.3,0,0,0,3-1.71,4.84,4.84,0,0,0,1.33-2.06,7.7,7.7,0,0,0,.33-.8l.21-1.6V194a6.29,6.29,0,0,0-1.87-4.51,6.22,6.22,0,0,0-3-1.71,6.72,6.72,0,0,0-4.62.6,6.69,6.69,0,0,0-2.76,3.59l-.21,1.59a5.84,5.84,0,0,0,.82,3l.93,1.22a6.12,6.12,0,0,0,2.65,1.54l.21.05-1.43-.6.12.07-1.21-.94a.46.46,0,0,1,.07.07l-.94-1.21a.36.36,0,0,1,.07.1l-.61-1.43a.24.24,0,0,1,0,.08l-.21-1.59a.21.21,0,0,1,0,.11l.21-1.59a.24.24,0,0,1,0,.08l.61-1.43a.61.61,0,0,1-.07.1l.94-1.21-.07.06,1.21-.93-.12.07,1.43-.6-.21,0a4.47,4.47,0,0,0-2,1.07,4.55,4.55,0,0,0-1.54,1.69,4.46,4.46,0,0,0-.72,2.23,4.63,4.63,0,0,0,.11,2.39l.61,1.43a6.09,6.09,0,0,0,2.15,2.16l1.43.6a6,6,0,0,0,3.19,0Z"/><path class="cls-3" d="M340.17,193c7.72,0,7.73-12,0-12s-7.74,12,0,12Z"/><path class="cls-3" d="M344.13,206.54h-.44a4.46,4.46,0,0,0-2.31.52,5.39,5.39,0,0,0-3.17,3.17,4.46,4.46,0,0,0-.52,2.31l.21,1.59a6,6,0,0,0,1.55,2.65l1.21.94a6,6,0,0,0,3,.82h.44a4.46,4.46,0,0,0,2.31-.52,4.38,4.38,0,0,0,1.93-1.24,6.7,6.7,0,0,0,1.76-4.24l-.21-1.6a6,6,0,0,0-1.55-2.64l-1.21-.94a6,6,0,0,0-3-.82Z"/><path class="cls-3" d="M331.36,205.66a10.49,10.49,0,0,0-5.69,1.15,16.36,16.36,0,0,0-3.4,2.81,6,6,0,1,0,8.49,8.48c.53-.51,1-1,1.62-1.5l-1.21.93a4.9,4.9,0,0,1,.92-.53l-1.44.6a4.68,4.68,0,0,1,.8-.2l-1.59.21c.5,0,1,0,1.5,0a6.06,6.06,0,0,0,6-6,6.12,6.12,0,0,0-6-6Z"/><path class="cls-3" d="M341.66,220.85a1.89,1.89,0,0,0-.41.1l-.09,0c-.45.18-1,.42-1.47.63l-.2.1,7.27,9.42.29-.26a4.38,4.38,0,0,0,1.24-1.93,6.17,6.17,0,0,0-1.24-6.55l-1.21-.94a6,6,0,0,0-3-.82l-1.6.22a5.9,5.9,0,0,0-2.64,1.54l-.29.25a6.7,6.7,0,0,0-1.76,4.25l.21,1.59a4.58,4.58,0,0,0,1.08,2,3,3,0,0,0,1.07,1.08,4.47,4.47,0,0,0,2,1.07l1.6.22a6.09,6.09,0,0,0,3-.82l.21-.11-1.43.6a2.35,2.35,0,0,1,.52-.14,4.58,4.58,0,0,0,2-1.08,4.53,4.53,0,0,0,1.54-1.68,4.38,4.38,0,0,0,.71-2.23A4.52,4.52,0,0,0,349,225l-.61-1.44a6,6,0,0,0-2.15-2.15l-1.43-.6a6,6,0,0,0-3.19,0Z"/><path class="cls-3" d="M325.8,234.12v.44a4.51,4.51,0,0,0,.52,2.31,6.18,6.18,0,0,0,5.48,3.69l1.6-.22A6,6,0,0,0,336,238.8l.94-1.21a6,6,0,0,0,.82-3v-.44a6.76,6.76,0,0,0-1.76-4.25,6.62,6.62,0,0,0-4.24-1.75l-1.59.21a6.07,6.07,0,0,0-2.65,1.54l-.94,1.22a5.94,5.94,0,0,0-.82,3Z"/><path class="cls-3" d="M435.73,196.08c7.72,0,7.73-12,0-12s-7.74,12,0,12Z"/><path class="cls-3" d="M445.86,186.83h1.32a6.62,6.62,0,0,0,4.24-1.75,4.56,4.56,0,0,0,1.24-1.94,4.46,4.46,0,0,0,.52-2.31l-.22-1.59a6,6,0,0,0-1.54-2.65l-1.22-.94a6,6,0,0,0-3-.82h-1.32a4.52,4.52,0,0,0-2.32.52,4.58,4.58,0,0,0-1.93,1.24,6.62,6.62,0,0,0-1.75,4.24l.21,1.6a6,6,0,0,0,1.54,2.65l1.22.93a5.84,5.84,0,0,0,3,.82Z"/><path class="cls-3" d="M438.81,210.17c7.72,0,7.73-12,0-12s-7.73,12,0,12Z"/><path class="cls-3" d="M451.14,207.09a12.94,12.94,0,0,1,2,0l-1.59-.21a3.35,3.35,0,0,1,.75.21l-1.44-.6a2.08,2.08,0,0,1,.36.2,6.23,6.23,0,0,0,4.63.61,6,6,0,0,0,1.43-11,10.81,10.81,0,0,0-6.11-1.26,6.22,6.22,0,0,0-4.24,1.76,6,6,0,0,0,4.24,10.24Z"/><path class="cls-3" d="M444.09,226.91a2,2,0,0,1,.49,0l-1.59-.22a2.85,2.85,0,0,1,.39.11l-1.44-.61.3.15a4.46,4.46,0,0,0,2.23.72,4.63,4.63,0,0,0,2.39-.11l1.43-.61A4.55,4.55,0,0,0,450,224.8a3,3,0,0,0,.77-1.33,4.46,4.46,0,0,0,.51-2.31l-.21-1.59a6,6,0,0,0-1.54-2.65l-.29-.26a6.18,6.18,0,0,0-8.49,0l-.94,1.22a6,6,0,0,0-.82,3l.22,1.59a6,6,0,0,0,1.54,2.65l.29.26,7.27-9.43-.29-.15c-.47-.21-1-.47-1.51-.63l-.19-.06c-.3-.06-.65-.09-.92-.13s-.61-.09-.92-.12a2.36,2.36,0,0,0-.37,0,4.6,4.6,0,0,0-2.31.51,4.52,4.52,0,0,0-1.93,1.24,4.58,4.58,0,0,0-1.24,1.93,4.52,4.52,0,0,0-.52,2.32l.22,1.59a6,6,0,0,0,1.54,2.65l1.22.94a6,6,0,0,0,3,.82Z"/><path class="cls-3" d="M450.42,224a11.76,11.76,0,0,0,.66,4.24,4.47,4.47,0,0,0,1.07,2,4.64,4.64,0,0,0,1.69,1.54,6,6,0,0,0,8.21-2.15,5.87,5.87,0,0,0,.6-4.62,6.85,6.85,0,0,1-.39-1.46l.21,1.59a11.64,11.64,0,0,1-.05-1.18,6.17,6.17,0,0,0-1.75-4.24,6,6,0,0,0-8.49,0,6.25,6.25,0,0,0-1.76,4.24Z"/></svg>