<svg id="Calque_9" data-name="Calque 9" xmlns="http://www.w3.org/2000/svg" xmlns:xlink="http://www.w3.org/1999/xlink" viewBox="0 0 788 1005"><defs><style>.cls-1,.cls-6{fill:none;}.cls-2{fill:#90573a;}.cls-3{fill:#fff;}.cls-4{fill:#0b0c0c;}.cls-4,.cls-6,.cls-9{stroke:#000;stroke-miterlimit:10;}.cls-5{clip-path:url(#clip-path);}.cls-6,.cls-9{stroke-linecap:round;}.cls-6{stroke-width:2px;}.cls-7{clip-path:url(#clip-path-2);}.cls-8{fill:#583134;}.cls-9{fill:#0d0d0d;}.cls-10{fill:#261e1a;}</style><clipPath id="clip-path"><rect class="cls-1" x="402.57" y="219.93" width="22.15" height="6.68"/></clipPath><clipPath id="clip-path-2"><rect class="cls-1" x="363.28" y="219.93" width="22.15" height="6.68"/></clipPath></defs><path class="cls-2" d="M394.94,177.89c23.91,0,43.28,11.19,43.28,45.61,0,46-25.28,79-43.28,79"/><path class="cls-2" d="M394.94,177.89c-23.9,0-43.28,11.19-43.28,45.61,0,46,26.34,79,43.28,79"/><path class="cls-2" d="M428.2,266.05l8.14-24.5s7.88-8.13,13.62-2.49c3.82,3.75-5.09,29-10,30C431.66,270.82,428.2,266.05,428.2,266.05Z"/><path class="cls-2" d="M359.8,266.05l-5.12-22.47s-10.9-10.16-16.64-4.52c-3.82,3.75,5.09,29,10,30C356.34,270.82,359.8,266.05,359.8,266.05Z"/><circle class="cls-3" cx="410.78" cy="236.83" r="6.75"/><circle class="cls-3" cx="375.92" cy="236.83" r="6.75"/><circle class="cls-4" cx="378" cy="236.98" r="4"/><circle class="cls-4" cx="412.94" cy="236.98" r="4"/><g class="cls-5"><path class="cls-6" d="M403.57,224.21a14.89,14.89,0,0,1,20.15,1.4"/></g><g class="cls-7"><path class="cls-6" d="M384.43,224.21a14.89,14.89,0,0,0-20.15,1.4"/></g><path class="cls-8" d="M401.89,259.06s-4.69,3.69-7.42,3.69-7-3.59-7-3.59,5.4.73,7.21.71S401.89,259.06,401.89,259.06Z"/><ellipse class="cls-9" cx="394.31" cy="278.52" rx="2.88" ry="4.5"/><path class="cls-10" d="M353,242.59c-2-3.35-12.6-51.72,24.49-63.48s53.16,13.49,53.16,13.49,14.66,19.67,6.8,49.45c0,0-1.87-15.89-7.25-28.12s-2-14.62-1.89-15.64-34.64-3.4-34.64-3.4-30.91-.69-30.28.68C365.38,199.82,353,242.59,353,242.59Z"/></svg>