<svg id="Calque_9" data-name="Calque 9" xmlns="http://www.w3.org/2000/svg" xmlns:xlink="http://www.w3.org/1999/xlink" viewBox="0 0 788 1005"><defs><style>.cls-1,.cls-6{fill:none;}.cls-2{fill:#90573a;}.cls-3{fill:#6f412a;}.cls-4{fill:#fff;}.cls-5{clip-path:url(#clip-path);}.cls-6{stroke:#000;stroke-linecap:round;stroke-miterlimit:10;stroke-width:2px;}.cls-7{clip-path:url(#clip-path-2);}.cls-8{fill:#583134;}.cls-9{fill:#1f1c1c;}.cls-10{fill:#b3b3b3;}.cls-11{fill:#30211b;}</style><clipPath id="clip-path"><rect class="cls-1" x="362.64" y="223.2" width="23.15" height="6.96"/></clipPath><clipPath id="clip-path-2"><rect class="cls-1" x="402.68" y="223.2" width="23.15" height="6.96"/></clipPath></defs><path class="cls-2" d="M437.51,226.84a153.47,153.47,0,0,1-.95,17.21,119.54,119.54,0,0,1-6.27,27.53c-7.75,21.18-21,34.28-36.06,34.28V181.23C418.14,181.23,437.51,192.43,437.51,226.84Z"/><path class="cls-3" d="M439.29,272.43a13.35,13.35,0,0,1-9-.85,119.54,119.54,0,0,0,6.27-27.53c2.25-1.93,8.14-6.11,12.69-1.64C453.07,246.16,444.16,271.41,439.29,272.43Z"/><path class="cls-2" d="M394.23,181.13V305.76c-15.26,0-28.67-13.47-36.38-35.17a115.32,115.32,0,0,1-5.07-20.18A149,149,0,0,1,351,226.74C351,192.33,370.33,181.13,394.23,181.13Z"/><path class="cls-3" d="M357.85,270.59c-1.66,1.29-5,3-10.56,1.84-4.87-1-13.78-26.27-10-30,5.74-5.64,13.62,2.49,13.62,2.49l1.83,5.51A115.32,115.32,0,0,0,357.85,270.59Z"/><circle class="cls-4" cx="375.7" cy="242.78" r="6.75"/><circle class="cls-4" cx="411.93" cy="242.78" r="6.75"/><circle cx="373.48" cy="241.07" r="3.29"/><circle cx="409.83" cy="241.07" r="3.29"/><g class="cls-5"><path class="cls-6" d="M384.8,229.16c-2.89-2.32-8.24-5.86-14.35-4.75-5.33,1-6.81,4.64-6.81,4.64"/></g><g class="cls-7"><path class="cls-6" d="M403.68,229.16c2.88-2.32,8.23-5.86,14.35-4.75,5.33,1,6.8,4.64,6.8,4.64"/></g><path class="cls-8" d="M401,263.25s-4.69,3.69-7.42,3.69c-2.58,0-7-3.6-7-3.6s5.4.73,7.21.72S401,263.25,401,263.25Z"/><path class="cls-9" d="M378.05,277.68c.28-.64,1.42-1.64,3.5-2.55A29.37,29.37,0,0,1,392.1,273,22.79,22.79,0,0,1,408,279.09s-4.59,11.75-15.81,10.88C384,289.35,378.05,277.68,378.05,277.68Z"/><path class="cls-10" d="M392.51,278.06l-8.25-.38-2.21-.91a28.1,28.1,0,0,1,11.44-2c6.7.35,10.31,2.91,10.31,2.91l-1.71.8Z"/><path class="cls-11" d="M352.78,250.41l-10.1-10,1.91-75.11,101.14-2.64s-1.57,77.51-2.31,77.75-6.86,3.63-6.86,3.63-2.42-38.17-4.7-38.78-31.26,1.14-35.67.33c-5.67-1-41.32-1.82-41.32-1.82Z"/></svg>