<?xml version="1.0" encoding="utf-8"?>
<!-- Generator: Adobe Illustrator 26.0.1, SVG Export Plug-In . SVG Version: 6.00 Build 0)  -->
<svg version="1.1" id="Calque_1" xmlns="http://www.w3.org/2000/svg" xmlns:xlink="http://www.w3.org/1999/xlink" x="0px" y="0px"
	 viewBox="0 0 207 217.4" style="enable-background:new 0 0 207 217.4;" xml:space="preserve">
<style type="text/css">
	.st0{fill:#281E1B;}
	.st1{fill:#8C5C4B;}
	.st2{clip-path:url(#SVGID_00000021093565336045607940000006599497278221718448_);}
	.st3{fill:#6D3B25;}
	.st4{clip-path:url(#SVGID_00000079475589710731790770000005964848548974240645_);}
	.st5{clip-path:url(#SVGID_00000183207752213921220860000017278758689691718567_);}
	.st6{fill:#FFFFFF;}
	.st7{clip-path:url(#SVGID_00000109709445868928708660000003293255539989758351_);}
	.st8{clip-path:url(#SVGID_00000034808234490952273830000011402742226646683529_);}
	.st9{fill:#050505;}
	.st10{clip-path:url(#SVGID_00000127750581978998273220000015685638213988270723_);}
	.st11{fill:none;stroke:#6D3B25;stroke-width:2;stroke-linecap:round;stroke-miterlimit:10;}
	.st12{fill:#4C2A33;}
	.st13{fill:#261E1A;}
	.st14{fill:#9E6754;}
</style>
<g id="Calque_9">
	<path class="st0" d="M99.9,43.7c27.6,0,48,34.1,48,60.6s-22.4,48-50,48s-50-21.5-50-48S72.3,43.7,99.9,43.7z"/>
	<path class="st1" d="M131,150.6l8.1-24.5c0,0,7.9-8.1,13.6-2.5c3.8,3.8-5.1,29-10,30C134.5,155.4,131,150.6,131,150.6z"/>
	<path class="st1" d="M64.6,150.6l-8.1-24.5c0,0-7.9-8.1-13.6-2.5c-3.8,3.8,5.1,29,10,30C61.1,155.4,64.6,150.6,64.6,150.6z"/>
	<g>
		<g>
			<g>
				<defs>
					<polygon id="SVGID_1_" points="109.3,103.6 109.3,103.6 132.7,103.6 132.7,110.8 109.3,110.8 					"/>
				</defs>
				<clipPath id="SVGID_00000067914418261304627900000009474024527498546364_">
					<use xlink:href="#SVGID_1_"  style="overflow:visible;"/>
				</clipPath>
				<g style="clip-path:url(#SVGID_00000067914418261304627900000009474024527498546364_);">
					<path class="st3" d="M131.6,110.8c-0.2,0-0.3,0-0.4-0.1c-2.3-1-4.7-1.8-7.2-2.4c-7.9-1.8-8.4-0.5-11.1,0
						c-1.1,0.1-2.2-0.2-3.1-0.8c-0.4-0.5-0.8-2.1-0.3-2.5c0.2-0.2,3.7-2.6,12.7-0.5c3.8,0.9,9.7,4.1,9.8,4.1
						c0.6,0.2,0.8,0.9,0.6,1.5C132.4,110.5,132,110.8,131.6,110.8z"/>
				</g>
			</g>
		</g>
	</g>
	<g>
		<g>
			<g>
				<defs>
					<polygon id="SVGID_00000101103648396918439800000007769937890611270023_" points="86.5,103.6 86.5,103.6 63.1,103.6 
						63.1,110.8 86.5,110.8 					"/>
				</defs>
				<clipPath id="SVGID_00000051367231524084383620000009172158186445046201_">
					<use xlink:href="#SVGID_00000101103648396918439800000007769937890611270023_"  style="overflow:visible;"/>
				</clipPath>
				<g style="clip-path:url(#SVGID_00000051367231524084383620000009172158186445046201_);">
					<path class="st3" d="M64.2,110.8c0.2,0,0.3,0,0.4-0.1c2.3-1,4.7-1.8,7.2-2.4c7.9-1.8,8.4-0.5,11.1,0c1.1,0.1,2.2-0.2,3.1-0.8
						c0.4-0.5,0.8-2.1,0.3-2.5c-0.2-0.2-3.7-2.6-12.7-0.5c-3.8,0.9-9.7,4.1-9.8,4.1c-0.6,0.2-0.8,0.9-0.6,1.5
						C63.4,110.5,63.8,110.8,64.2,110.8z"/>
				</g>
			</g>
		</g>
	</g>
	<g>
		<g>
			<g>
				<defs>
					<polygon id="SVGID_00000044864074547921343320000001164838602274395315_" points="110.6,117.1 110.6,117.1 125.7,117.1 
						125.7,131.6 110.6,131.6 					"/>
				</defs>
				<clipPath id="SVGID_00000072997738927594429100000010097498591118120625_">
					<use xlink:href="#SVGID_00000044864074547921343320000001164838602274395315_"  style="overflow:visible;"/>
				</clipPath>
				<g style="clip-path:url(#SVGID_00000072997738927594429100000010097498591118120625_);">
					<ellipse class="st6" cx="118.2" cy="124.3" rx="7.5" ry="7.3"/>
				</g>
			</g>
		</g>
	</g>
	<g>
		<g>
			<g>
				<defs>
					<polygon id="SVGID_00000059993289824316815180000009693970973164669365_" points="85.2,117.1 85.2,117.1 70.1,117.1 
						70.1,131.6 85.2,131.6 					"/>
				</defs>
				<clipPath id="SVGID_00000039118310085549268470000005309818042128667565_">
					<use xlink:href="#SVGID_00000059993289824316815180000009693970973164669365_"  style="overflow:visible;"/>
				</clipPath>
				<g style="clip-path:url(#SVGID_00000039118310085549268470000005309818042128667565_);">
					<ellipse class="st6" cx="77.6" cy="124.3" rx="7.5" ry="7.3"/>
				</g>
			</g>
		</g>
	</g>
	<g>
		<g>
			<g>
				<defs>
					<polygon id="SVGID_00000016766770315459264810000001644645437250925969_" points="113.1,120.4 113.1,120.4 123.1,120.4 
						123.1,130.5 113.1,130.5 					"/>
				</defs>
				<clipPath id="SVGID_00000174597765062752896530000010147150842863936698_">
					<use xlink:href="#SVGID_00000016766770315459264810000001644645437250925969_"  style="overflow:visible;"/>
				</clipPath>
				<g style="clip-path:url(#SVGID_00000174597765062752896530000010147150842863936698_);">
					<circle class="st9" cx="118.1" cy="125.4" r="5"/>
				</g>
			</g>
		</g>
	</g>
	<g>
		<g>
			<g>
				<defs>
					<polygon id="SVGID_00000127028422344757644410000003368854413230664072_" points="82.7,120.4 82.7,120.4 72.7,120.4 
						72.7,130.5 82.7,130.5 					"/>
				</defs>
				<clipPath id="SVGID_00000065758509259714614680000015602430313638420387_">
					<use xlink:href="#SVGID_00000127028422344757644410000003368854413230664072_"  style="overflow:visible;"/>
				</clipPath>
				<g style="clip-path:url(#SVGID_00000065758509259714614680000015602430313638420387_);">
					<circle class="st9" cx="77.7" cy="125.4" r="5"/>
				</g>
			</g>
		</g>
	</g>
	<path class="st11" d="M91.6,143.9c2.3,0.6,4.7,1.1,7,1.4c1.6,0,7-1.7,7-1.7"/>
	<ellipse class="st12" cx="97.7" cy="162.3" rx="10.3" ry="1.6"/>
	<path class="st13" d="M56.8,124.7c-2-3.4-12.6-51.7,24.5-63.5s53.2,13.5,53.2,13.5s14.7,19.7,6.8,49.4c0,0-1.9-15.9-7.2-28.1
		s-2-14.6-1.9-15.6S97.6,77,97.6,77s-30.9-0.7-30.3,0.7C69.2,81.9,56.8,124.7,56.8,124.7z"/>
</g>
<g id="Calque_10">
	<path class="st0" d="M99.9,43.7c27.6,0,48,34.1,48,60.6s-22.4,48-50,48s-50-21.5-50-48S72.3,43.7,99.9,43.7z"/>
	<path class="st14" d="M141,108.1c0,46-27.4,79-43.3,79c-15.8,0-43.3-33-43.3-79c0-34.4,19.4-45.6,43.3-45.6
		C121.6,62.5,141,73.7,141,108.1z"/>
	<path class="st1" d="M131,150.6l8.1-24.5c0,0,7.9-8.1,13.6-2.5c3.8,3.8-5.1,29-10,30C134.5,155.4,131,150.6,131,150.6z"/>
	<path class="st1" d="M64.6,150.6l-8.1-24.5c0,0-7.9-8.1-13.6-2.5c-3.8,3.8,5.1,29,10,30C61.1,155.4,64.6,150.6,64.6,150.6z"/>
</g>
<path class="st0" d="M56.5,126.1l7.3-17.5l-0.7-24.5L97.6,77l34.6,3.4l3,23.2l1.3,21.9c4.8-1.4,11.2-4.8,11.4-5.1s3.7-29,3.7-29
	s14.2-50.2,13.4-51.2c-2.2-2.6-73.2-8.6-77.5-9.9c-1.9-0.6-40.1,38.8-40.1,38.8s-2.6,50.1-3,51.4C43.9,121.7,56.5,126.1,56.5,126.1z
	"/>
</svg>
