<svg xmlns="http://www.w3.org/2000/svg" xmlns:xlink="http://www.w3.org/1999/xlink" viewBox="0 0 788 1005"><defs><style>.cls-1,.cls-14{fill:none;}.cls-2{fill:#281e1b;}.cls-3{fill:#9e6754;}.cls-4{fill:#8c5c4b;}.cls-5{clip-path:url(#clip-path);}.cls-6{fill:#6d3b25;}.cls-7{clip-path:url(#clip-path-2);}.cls-8{clip-path:url(#clip-path-3);}.cls-9{fill:#fff;}.cls-10{clip-path:url(#clip-path-4);}.cls-11{clip-path:url(#clip-path-5);}.cls-12{fill:#050505;}.cls-13{clip-path:url(#clip-path-6);}.cls-14{stroke:#6d3b25;stroke-linecap:round;stroke-miterlimit:10;stroke-width:2px;}.cls-15{fill:#4c2a33;}.cls-16{fill:#4e6566;}</style><clipPath id="clip-path"><polygon class="cls-1" points="405.48 221.31 405.48 221.31 428.91 221.31 428.91 228.43 405.48 228.43 405.48 221.31"/></clipPath><clipPath id="clip-path-2"><polygon class="cls-1" points="382.72 221.31 382.72 221.31 359.29 221.31 359.29 228.43 382.72 228.43 382.72 221.31"/></clipPath><clipPath id="clip-path-3"><polygon class="cls-1" points="406.83 234.76 406.83 234.76 421.89 234.76 421.89 249.27 406.83 249.27 406.83 234.76"/></clipPath><clipPath id="clip-path-4"><polygon class="cls-1" points="381.37 234.76 381.37 234.76 366.3 234.76 366.3 249.27 381.37 249.27 381.37 234.76"/></clipPath><clipPath id="clip-path-5"><polygon class="cls-1" points="409.26 238.04 409.26 238.04 419.33 238.04 419.33 248.11 409.26 248.11 409.26 238.04"/></clipPath><clipPath id="clip-path-6"><polygon class="cls-1" points="378.94 238.04 378.94 238.04 368.87 238.04 368.87 248.11 378.94 248.11 378.94 238.04"/></clipPath></defs><g id="Calque_9" data-name="Calque 9"><path class="cls-2" d="M427.5,267.4c.69-6.39-9.31-6.34-10,0a69.28,69.28,0,0,0,7.82,39.84c3,5.7,11.63.65,8.63-5.05A59.93,59.93,0,0,1,427.5,267.4Z"/><path class="cls-3" d="M393.94,180.13c23.91,0,43.28,11.2,43.28,45.61,0,46-27.44,79-43.28,79"/><path class="cls-4" d="M427.2,268.29l8.14-24.49s7.88-8.13,13.62-2.49c3.82,3.75-5.09,29-10,30C430.66,273.07,427.2,268.29,427.2,268.29Z"/><path class="cls-4" d="M360.8,268.29l-8.14-24.49s-7.88-8.13-13.62-2.49c-3.82,3.75,5.09,29,10,30C357.34,273.07,360.8,268.29,360.8,268.29Z"/><path class="cls-3" d="M393.94,180.13c-23.9,0-43.28,11.2-43.28,45.61,0,46,27.45,79,43.28,79"/><g class="cls-5"><path class="cls-6" d="M427.79,228.43a1.12,1.12,0,0,1-.44-.09,47.85,47.85,0,0,0-7.19-2.35c-7.86-1.78-8.37-.54-11.09,0a4.93,4.93,0,0,1-3.09-.78c-.4-.47-.75-2.14-.28-2.55.2-.17,3.71-2.56,12.72-.52,3.75.85,9.66,4.08,9.81,4.15a1.12,1.12,0,0,1-.44,2.15Z"/></g><g class="cls-7"><path class="cls-6" d="M360.41,228.43a1.15,1.15,0,0,0,.44-.09A47.39,47.39,0,0,1,368,226c7.86-1.78,8.36-.54,11.08,0a4.94,4.94,0,0,0,3.1-.78c.39-.47.75-2.14.28-2.55-.21-.17-3.71-2.56-12.72-.52-3.75.85-9.66,4.08-9.81,4.15a1.12,1.12,0,0,0,.44,2.15Z"/></g><g class="cls-8"><ellipse class="cls-9" cx="414.36" cy="242.01" rx="7.53" ry="7.26"/></g><g class="cls-10"><ellipse class="cls-9" cx="373.84" cy="242.01" rx="7.53" ry="7.26"/></g><g class="cls-11"><circle class="cls-12" cx="414.29" cy="243.08" r="5.04"/></g><g class="cls-13"><circle class="cls-12" cx="373.9" cy="243.08" r="5.04"/></g><path class="cls-14" d="M387.83,261.55a50.36,50.36,0,0,0,7.05,1.35c1.65,0,7-1.73,7-1.73"/><ellipse class="cls-15" cx="393.91" cy="279.97" rx="10.3" ry="1.63"/><path class="cls-2" d="M449.52,316.6c-3.71-16.67-8.51-34.89-7-52.06.7-7.83,2.62-15.51,3.12-23.37a94.6,94.6,0,0,0-.21-14.18,157.92,157.92,0,0,0-2-21.19c-1.57-10.5-4.61-21-11.93-29-11.65-12.72-31-12-42.36-.09a28.22,28.22,0,0,0-32.09.11c-13,9.31-19.87,26.77-21.29,42.26a32.17,32.17,0,0,0-4.61,7.66,39.17,39.17,0,0,0-.23,30.12c4.87,11.85,14.65,21.69,22.93,31.4,0,15.51-2.84,30.84-5.65,46.06-1.17,6.29,8.47,9,9.64,2.65,1.25-6.76,2.5-13.54,3.53-20.36,3,1.51,7.5.11,7.42-4.23-.17-9.27-2.21-18-5-26.51a150.37,150.37,0,0,0-4.63-31.5c-3-12.27-4.49-25-2.49-37.56,7.62-2.36,16.22-2.76,23.54-5.21,6.57-2.2,13.29-6.54,15.84-12.46a5.05,5.05,0,0,0,2.23-1.78c7.37-10.07,21.4-5.8,28.23,2.49,6.14,7.46,8.43,17.78,9.11,27.69a57.21,57.21,0,0,1-.69,9.87,5.06,5.06,0,0,0,.75,3.7c-.8,12.27-4.15,24.12-3,36.58,1.3,14,4.18,27.89,7.23,41.56C441.28,325.54,450.92,322.88,449.52,316.6ZM338,243.42a148.85,148.85,0,0,0,5.29,16.08,39.22,39.22,0,0,1-4.31-9.71A29.37,29.37,0,0,1,338,243.42Zm21.69-37.34a16.63,16.63,0,0,1,5.93-6.71,18.08,18.08,0,0,1,15.58-1.79,4.3,4.3,0,0,0,4.34-.75,3.17,3.17,0,0,0,.65.35C382.12,202.18,367.33,204.72,359.7,206.08Z"/><path class="cls-2" d="M341.91,270.25c-.69-6.39,9.32-6.34,10,0a69.23,69.23,0,0,1-7.82,39.85c-3,5.69-11.63.64-8.63-5.05A60,60,0,0,0,341.91,270.25Z"/></g><g id="Calque_10" data-name="Calque 10"><path class="cls-16" d="M336.56,213.09c.28-1.49-2.81-37.61,14.1-45.55s65-23.87,80.62-5.44,14,31.67,12.49,34.49-56.46,1.48-73.35,7.38"/><path class="cls-16" d="M340.66,189.26c-10.29,0-23-1.74-10.24-21.72s22.74-25.74,43.31-25.74,35.87,1,33.06,11.75S340.66,189.26,340.66,189.26Z"/><path class="cls-16" d="M327.9,172.35c13.59-.28,4.57,12.23,12.76-3.07S353,154.07,343.57,149C315.74,134,306,172.79,327.9,172.35Z"/></g></svg>