<?xml version="1.0" encoding="utf-8"?>
<!-- Generator: Adobe Illustrator 25.4.1, SVG Export Plug-In . SVG Version: 6.00 Build 0)  -->
<svg version="1.1" id="Calque_9" xmlns="http://www.w3.org/2000/svg" xmlns:xlink="http://www.w3.org/1999/xlink" x="0px" y="0px"
	 viewBox="0 0 788 1005" style="enable-background:new 0 0 788 1005;" xml:space="preserve">
<style type="text/css">
	.st0{fill:#6F412A;}
	.st1{fill:#90573A;}
	.st2{fill:#2D2020;}
</style>
<path class="st0" d="M427.2,268.9l8.1-24.5c0,0,7.9-8.1,13.6-2.5c3.8,3.8-5.1,29-10,30C430.7,273.6,427.2,268.9,427.2,268.9z"/>
<path class="st0" d="M360.8,268.9l-8.1-24.5c0,0-7.9-8.1-13.6-2.5c-3.8,3.8,5.1,29,10,30C357.3,273.6,360.8,268.9,360.8,268.9z"/>
<path class="st1" d="M437.2,226.3c0,46-27.4,79-43.3,79c-15.8,0-43.3-33-43.3-79c0-34.4,19.4-45.6,43.3-45.6
	C417.8,180.7,437.2,191.9,437.2,226.3z"/>
<path class="st2" d="M352.7,244.4l2.9-22.5l17.9-7.9l10.1-24.1l26,3.7l12.3-3.7l-6.3,7.4l16.8,16.3l2.9,30.9c0,0,5.4-2.6,6.7-4.5
	s12.6-36.7,12.6-36.7l-17.4-19.2h-6.5l-11.4-21.4l-47-8l-53.1,44.9l19.8,42.4l7.2-0.4L352.7,244.4z"/>
</svg>
