<svg xmlns="http://www.w3.org/2000/svg" viewBox="0 0 188 259.02"><defs><style>.cls-1{fill:#4c3019;}.cls-2{fill:#b9785c;}.cls-3{fill:#d68f72;}.cls-4{fill:#4e6566;}</style></defs><g id="Calque_9" data-name="Calque 9"><path class="cls-1" d="M127.5,170.63c.69-6.39-9.31-6.34-10,0a69.28,69.28,0,0,0,7.82,39.84c3,5.7,11.63.65,8.63-5.05A59.93,59.93,0,0,1,127.5,170.63Z"/><path class="cls-2" d="M127.2,171.52,135.34,147s7.88-8.13,13.62-2.49c3.82,3.75-5.09,29-10,30C130.66,176.3,127.2,171.52,127.2,171.52Z"/><path class="cls-2" d="M60.8,171.52,52.66,147S44.78,138.9,39,144.54c-3.82,3.75,5.09,29,10,30C57.34,176.3,60.8,171.52,60.8,171.52Z"/><path class="cls-3" d="M93.94,83.36C70,83.36,50.66,94.56,50.66,129c0,46,27.45,79,43.28,79s43.28-33.05,43.28-79C137.22,94.56,117.85,83.36,93.94,83.36Z"/><path class="cls-1" d="M149.52,219.83c-3.71-16.67-8.51-34.89-7-52.06.7-7.83,2.62-15.51,3.12-23.37a94.6,94.6,0,0,0-.21-14.18,157.77,157.77,0,0,0-2-21.19c-1.57-10.5-4.61-21-11.93-29-11.65-12.72-31-12-42.36-.09A28.22,28.22,0,0,0,57,80.06c-13,9.31-19.87,26.77-21.29,42.26A32.17,32.17,0,0,0,31.14,130a39.17,39.17,0,0,0-.23,30.12c4.87,11.85,14.65,21.69,22.93,31.4C53.79,207,51,222.34,48.19,237.55c-1.17,6.3,8.47,9,9.64,2.66,1.25-6.76,2.5-13.55,3.53-20.36,3,1.51,7.5.11,7.42-4.24-.17-9.26-2.21-18-5-26.51a150.27,150.27,0,0,0-4.63-31.49c-3-12.27-4.49-25-2.49-37.56,7.62-2.36,16.22-2.76,23.54-5.21,6.57-2.2,13.29-6.54,15.84-12.46a5.13,5.13,0,0,0,2.23-1.78c7.37-10.07,21.4-5.8,28.23,2.49,6.14,7.46,8.43,17.78,9.11,27.69a57.28,57.28,0,0,1-.69,9.87,5.06,5.06,0,0,0,.75,3.7c-.8,12.27-4.15,24.12-3,36.58,1.3,14,4.18,27.89,7.23,41.56C141.28,228.77,150.92,226.11,149.52,219.83ZM38,146.65a148.85,148.85,0,0,0,5.29,16.08A39.22,39.22,0,0,1,39,153,29.37,29.37,0,0,1,38,146.65ZM59.7,109.31a16.5,16.5,0,0,1,5.93-6.71,18.08,18.08,0,0,1,15.58-1.79,4.3,4.3,0,0,0,4.34-.75,3.17,3.17,0,0,0,.65.35C82.12,105.4,67.33,108,59.7,109.31Z"/><path class="cls-1" d="M41.91,173.48c-.69-6.39,9.32-6.34,10,0a69.18,69.18,0,0,1-7.82,39.84c-3,5.7-11.63.65-8.63-5A60,60,0,0,0,41.91,173.48Z"/></g><g id="Calque_10" data-name="Calque 10"><path class="cls-4" d="M36.56,116.32c.28-1.49-2.81-37.61,14.1-45.55s65-23.87,80.62-5.44,14,31.67,12.49,34.49-56.46,1.48-73.35,7.38"/><path class="cls-4" d="M40.66,92.49c-10.29,0-23-1.74-10.24-21.72S53.16,45,73.73,45s35.87,1,33.06,11.75S40.66,92.49,40.66,92.49Z"/><path class="cls-4" d="M27.9,75.58c13.59-.28,4.57,12.23,12.76-3.07S53,57.29,43.57,52.21C15.74,37.22,6,76,27.9,75.58Z"/></g></svg>