<svg id="Calque_9" data-name="Calque 9" xmlns="http://www.w3.org/2000/svg" xmlns:xlink="http://www.w3.org/1999/xlink" viewBox="0 0 788 1005"><defs><style>.cls-1,.cls-13{fill:none;}.cls-2{fill:#90573a;}.cls-3{fill:#6f412a;}.cls-4{clip-path:url(#clip-path);}.cls-5{fill:#6d3b25;}.cls-6{clip-path:url(#clip-path-2);}.cls-7{clip-path:url(#clip-path-3);}.cls-8{fill:#fff;}.cls-9{clip-path:url(#clip-path-4);}.cls-10{clip-path:url(#clip-path-5);}.cls-11{fill:#050505;}.cls-12{clip-path:url(#clip-path-6);}.cls-13{stroke:#6d3b25;stroke-linecap:round;stroke-miterlimit:10;stroke-width:2px;}.cls-14{fill:#4c2a33;}.cls-15{fill:#231713;}</style><clipPath id="clip-path"><polygon class="cls-1" points="404.48 222.02 404.48 222.02 427.91 222.02 427.91 229.14 404.48 229.14 404.48 222.02"/></clipPath><clipPath id="clip-path-2"><polygon class="cls-1" points="381.72 222.02 381.72 222.02 358.29 222.02 358.29 229.14 381.72 229.14 381.72 222.02"/></clipPath><clipPath id="clip-path-3"><polygon class="cls-1" points="405.83 235.47 405.83 235.47 420.89 235.47 420.89 249.98 405.83 249.98 405.83 235.47"/></clipPath><clipPath id="clip-path-4"><polygon class="cls-1" points="380.37 235.47 380.37 235.47 365.3 235.47 365.3 249.98 380.37 249.98 380.37 235.47"/></clipPath><clipPath id="clip-path-5"><polygon class="cls-1" points="408.26 238.75 408.26 238.75 418.33 238.75 418.33 248.83 408.26 248.83 408.26 238.75"/></clipPath><clipPath id="clip-path-6"><polygon class="cls-1" points="377.94 238.75 377.94 238.75 367.87 238.75 367.87 248.83 377.94 248.83 377.94 238.75"/></clipPath></defs><path class="cls-2" d="M392.94,180.85c23.91,0,43.28,11.19,43.28,45.61,0,46-27.44,79-43.28,79"/><path class="cls-3" d="M427.57,269l6.82-22.78s9.2-9.85,14.94-4.21c3.82,3.75-5.09,29-10,30C431,273.78,427.57,269,427.57,269Z"/><path class="cls-3" d="M361.17,269,353,244.51s-7.88-8.13-13.62-2.49c-3.82,3.75,5.09,29,10,30C357.71,273.78,361.17,269,361.17,269Z"/><path class="cls-2" d="M392.94,180.85c-23.9,0-43.28,11.19-43.28,45.61,0,46,27.45,79,43.28,79"/><g class="cls-4"><path class="cls-5" d="M426.79,229.14a1.12,1.12,0,0,1-.44-.09,49.17,49.17,0,0,0-7.19-2.35c-7.86-1.78-8.37-.54-11.09,0a5,5,0,0,1-3.09-.79c-.4-.47-.75-2.14-.28-2.54.2-.18,3.71-2.57,12.72-.53,3.75.85,9.66,4.09,9.81,4.15a1.12,1.12,0,0,1-.44,2.15Z"/></g><g class="cls-6"><path class="cls-5" d="M359.41,229.14a1.19,1.19,0,0,0,.44-.09A48.82,48.82,0,0,1,367,226.7c7.87-1.78,8.37-.54,11.09,0a5,5,0,0,0,3.1-.79c.39-.47.75-2.14.28-2.54-.21-.18-3.71-2.57-12.72-.53-3.75.85-9.66,4.09-9.81,4.15a1.12,1.12,0,0,0,.44,2.15Z"/></g><g class="cls-7"><ellipse class="cls-8" cx="413.36" cy="242.73" rx="7.53" ry="7.26"/></g><g class="cls-9"><ellipse class="cls-8" cx="372.84" cy="242.73" rx="7.53" ry="7.26"/></g><g class="cls-10"><circle class="cls-11" cx="413.29" cy="243.79" r="5.04"/></g><g class="cls-12"><circle class="cls-11" cx="372.9" cy="243.79" r="5.04"/></g><path class="cls-13" d="M386.83,262.26a50.36,50.36,0,0,0,7.05,1.35c1.65,0,7-1.73,7-1.73"/><ellipse class="cls-14" cx="392.91" cy="280.68" rx="10.3" ry="1.63"/><path class="cls-15" d="M354.83,255.48l-8.1-9.26s-7.8-12.38-7.77-25c0-16,28.19-43.51,44-46.45a14.47,14.47,0,0,1,12.09,3.41s18.15-.6,23.6,1.73c24.73,10.57,29.74,28,29,39.7a81,81,0,0,1-6.28,25.31l-9.05,3.05-.51-19.22-12.14-9s-6.48-11-6.22-11,2.3,9.86,2.3,9.86-10.88.63-13.8-1.29c-2.1-1.38-5-8.88-5-8.88s-8.85,7.64-11.91,9.43c-3.52,2.06-11.15,2.77-11.15,2.77l1.28-12.78-9.91,13.31-11,9Z"/></svg>