<?xml version="1.0" encoding="utf-8"?>
<!-- Generator: Adobe Illustrator 26.0.1, SVG Export Plug-In . SVG Version: 6.00 Build 0)  -->
<svg version="1.1" id="Calque_1" xmlns="http://www.w3.org/2000/svg" xmlns:xlink="http://www.w3.org/1999/xlink" x="0px" y="0px"
	 viewBox="0 0 788 1005" style="enable-background:new 0 0 788 1005;" xml:space="preserve">
<style type="text/css">
	.st0{fill:#281E1B;}
	.st1{fill:#8C5C4B;}
	.st2{clip-path:url(#SVGID_00000011746921223615192700000007691250474058960541_);}
	.st3{fill:#6D3B25;}
	.st4{clip-path:url(#SVGID_00000164514063639007021400000001506374898086267014_);}
	.st5{clip-path:url(#SVGID_00000078731692430365283800000015238816936560191665_);}
	.st6{fill:#FFFFFF;}
	.st7{clip-path:url(#SVGID_00000138558774936252793260000017151379358728225177_);}
	.st8{clip-path:url(#SVGID_00000102519840964065982160000001355124494297538691_);}
	.st9{fill:#050505;}
	.st10{clip-path:url(#SVGID_00000044875388345734439000000015111467695251834271_);}
	.st11{fill:none;stroke:#6D3B25;stroke-width:2;stroke-linecap:round;stroke-miterlimit:10;}
	.st12{fill:#4C2A33;}
	.st13{fill:#261E1A;}
	.st14{fill:#9E6754;}
</style>
<g id="Calque_9">
	<path class="st0" d="M396.1,161.6c27.6,0,48,34.1,48,60.6s-22.4,48-50,48s-50-21.5-50-48S368.5,161.6,396.1,161.6z"/>
	<path class="st1" d="M427.2,268.5l8.1-24.5c0,0,7.9-8.1,13.6-2.5c3.8,3.8-5.1,29-10,30C430.7,273.3,427.2,268.5,427.2,268.5z"/>
	<path class="st1" d="M360.8,268.5l-8.1-24.5c0,0-7.9-8.1-13.6-2.5c-3.8,3.8,5.1,29,10,30C357.3,273.3,360.8,268.5,360.8,268.5z"/>
	<g>
		<g>
			<defs>
				<polygon id="SVGID_1_" points="405.5,221.5 405.5,221.5 428.9,221.5 428.9,228.7 405.5,228.7 				"/>
			</defs>
			<clipPath id="SVGID_00000021815125149660201570000012973558256196705674_">
				<use xlink:href="#SVGID_1_"  style="overflow:visible;"/>
			</clipPath>
			<g style="clip-path:url(#SVGID_00000021815125149660201570000012973558256196705674_);">
				<path class="st3" d="M427.8,228.7c-0.2,0-0.3,0-0.4-0.1c-2.3-1-4.7-1.8-7.2-2.4c-7.9-1.8-8.4-0.5-11.1,0
					c-1.1,0.1-2.2-0.2-3.1-0.8c-0.4-0.5-0.8-2.1-0.3-2.5c0.2-0.2,3.7-2.6,12.7-0.5c3.8,0.9,9.7,4.1,9.8,4.1c0.6,0.2,0.8,0.9,0.6,1.5
					C428.6,228.4,428.2,228.7,427.8,228.7z"/>
			</g>
		</g>
	</g>
	<g>
		<g>
			<defs>
				<polygon id="SVGID_00000023961714589796613630000004073756550490212281_" points="382.7,221.5 382.7,221.5 359.3,221.5 
					359.3,228.7 382.7,228.7 				"/>
			</defs>
			<clipPath id="SVGID_00000051384970688722870240000016139599320305802643_">
				<use xlink:href="#SVGID_00000023961714589796613630000004073756550490212281_"  style="overflow:visible;"/>
			</clipPath>
			<g style="clip-path:url(#SVGID_00000051384970688722870240000016139599320305802643_);">
				<path class="st3" d="M360.4,228.7c0.2,0,0.3,0,0.4-0.1c2.3-1,4.7-1.8,7.2-2.4c7.9-1.8,8.4-0.5,11.1,0c1.1,0.1,2.2-0.2,3.1-0.8
					c0.4-0.5,0.8-2.1,0.3-2.5c-0.2-0.2-3.7-2.6-12.7-0.5c-3.8,0.9-9.7,4.1-9.8,4.1c-0.6,0.2-0.8,0.9-0.6,1.5
					C359.6,228.4,360,228.7,360.4,228.7z"/>
			</g>
		</g>
	</g>
	<g>
		<g>
			<defs>
				<polygon id="SVGID_00000169523526027148241870000011072391464749864872_" points="406.8,235 406.8,235 421.9,235 421.9,249.5 
					406.8,249.5 				"/>
			</defs>
			<clipPath id="SVGID_00000049900405944883815130000013068156924953202860_">
				<use xlink:href="#SVGID_00000169523526027148241870000011072391464749864872_"  style="overflow:visible;"/>
			</clipPath>
			<g style="clip-path:url(#SVGID_00000049900405944883815130000013068156924953202860_);">
				<ellipse class="st6" cx="414.4" cy="242.2" rx="7.5" ry="7.3"/>
			</g>
		</g>
	</g>
	<g>
		<g>
			<defs>
				<polygon id="SVGID_00000108289813369453975740000014677519267347069595_" points="381.4,235 381.4,235 366.3,235 366.3,249.5 
					381.4,249.5 				"/>
			</defs>
			<clipPath id="SVGID_00000030465511777957635610000014588453074836500143_">
				<use xlink:href="#SVGID_00000108289813369453975740000014677519267347069595_"  style="overflow:visible;"/>
			</clipPath>
			<g style="clip-path:url(#SVGID_00000030465511777957635610000014588453074836500143_);">
				<ellipse class="st6" cx="373.8" cy="242.2" rx="7.5" ry="7.3"/>
			</g>
		</g>
	</g>
	<g>
		<g>
			<defs>
				<polygon id="SVGID_00000161625102978820921340000001811389489846002873_" points="409.3,238.3 409.3,238.3 419.3,238.3 
					419.3,248.4 409.3,248.4 				"/>
			</defs>
			<clipPath id="SVGID_00000072981878458096161210000017970995142982540194_">
				<use xlink:href="#SVGID_00000161625102978820921340000001811389489846002873_"  style="overflow:visible;"/>
			</clipPath>
			<g style="clip-path:url(#SVGID_00000072981878458096161210000017970995142982540194_);">
				<circle class="st9" cx="414.3" cy="243.3" r="5"/>
			</g>
		</g>
	</g>
	<g>
		<g>
			<defs>
				<polygon id="SVGID_00000132048098553239853140000010723903370895863227_" points="378.9,238.3 378.9,238.3 368.9,238.3 
					368.9,248.4 378.9,248.4 				"/>
			</defs>
			<clipPath id="SVGID_00000034809645367725991640000017540581622152497294_">
				<use xlink:href="#SVGID_00000132048098553239853140000010723903370895863227_"  style="overflow:visible;"/>
			</clipPath>
			<g style="clip-path:url(#SVGID_00000034809645367725991640000017540581622152497294_);">
				<circle class="st9" cx="373.9" cy="243.3" r="5"/>
			</g>
		</g>
	</g>
	<path class="st11" d="M387.8,261.8c2.3,0.6,4.7,1.1,7,1.4c1.6,0,7-1.7,7-1.7"/>
	<ellipse class="st12" cx="393.9" cy="280.2" rx="10.3" ry="1.6"/>
	<path class="st13" d="M353,242.6c-2-3.4-12.6-51.7,24.5-63.5s53.2,13.5,53.2,13.5s14.7,19.7,6.8,49.4c0,0-1.9-15.9-7.2-28.1
		s-2-14.6-1.9-15.6s-34.6-3.4-34.6-3.4s-30.9-0.7-30.3,0.7C365.4,199.8,353,242.6,353,242.6z"/>
</g>
<g id="Calque_10">
	<path class="st0" d="M396.1,161.6c27.6,0,48,34.1,48,60.6s-22.4,48-50,48s-50-21.5-50-48S368.5,161.6,396.1,161.6z"/>
	<path class="st14" d="M437.2,226c0,46-27.4,79-43.3,79c-15.8,0-43.3-33-43.3-79c0-34.4,19.4-45.6,43.3-45.6
		C417.8,180.4,437.2,191.6,437.2,226z"/>
	<path class="st1" d="M427.2,268.5l8.1-24.5c0,0,7.9-8.1,13.6-2.5c3.8,3.8-5.1,29-10,30C430.7,273.3,427.2,268.5,427.2,268.5z"/>
	<path class="st1" d="M360.8,268.5l-8.1-24.5c0,0-7.9-8.1-13.6-2.5c-3.8,3.8,5.1,29,10,30C357.3,273.3,360.8,268.5,360.8,268.5z"/>
</g>
<path class="st0" d="M352.7,244l7.3-17.5l-0.7-24.5l34.5-7.1l34.6,3.4l3,23.2l1.3,21.9c4.8-1.4,11.2-4.8,11.4-5.1s3.7-29,3.7-29
	s14.2-50.2,13.4-51.2c-2.2-2.6-73.2-8.6-77.5-9.9c-1.9-0.6-40.1,38.8-40.1,38.8s-2.6,50.1-3,51.4C340.1,239.6,352.7,244,352.7,244z"
	/>
</svg>
