<svg id="Calque_9" data-name="Calque 9" xmlns="http://www.w3.org/2000/svg" viewBox="0 0 188 259.02"><defs><style>.cls-1{fill:#d68f72;}.cls-2{fill:#b9785c;}.cls-3{fill:#4c3019;}</style></defs><path class="cls-1" d="M137.51,130.07a153.47,153.47,0,0,1-.95,17.21,119.54,119.54,0,0,1-6.27,27.53c-7.75,21.18-21,34.28-36.06,34.28V84.46C118.14,84.46,137.51,95.66,137.51,130.07Z"/><path class="cls-2" d="M139.29,175.66a13.35,13.35,0,0,1-9-.85,119.54,119.54,0,0,0,6.27-27.53c2.25-1.93,8.14-6.11,12.69-1.64C153.07,149.39,144.16,174.64,139.29,175.66Z"/><path class="cls-1" d="M94.23,84.36V209C79,209,65.56,195.52,57.85,173.82a115.32,115.32,0,0,1-5.07-20.18A149,149,0,0,1,51,130C51,95.56,70.33,84.36,94.23,84.36Z"/><path class="cls-2" d="M57.85,173.82c-1.66,1.29-5,3-10.56,1.84-4.87-1-13.78-26.27-10-30C43.07,140,51,148.13,51,148.13l1.83,5.51A115.32,115.32,0,0,0,57.85,173.82Z"/><path class="cls-3" d="M52.78,153.64l-10.1-10,1.91-75.11L145.73,65.9s-1.57,77.5-2.31,77.75-6.86,3.63-6.86,3.63-2.42-38.17-4.7-38.78-31.26,1.14-35.67.33c-5.67-1-41.32-1.82-41.32-1.82Z"/></svg>