<svg xmlns="http://www.w3.org/2000/svg" xmlns:xlink="http://www.w3.org/1999/xlink" viewBox="0 0 788 1005"><defs><style>.cls-1,.cls-14{fill:none;}.cls-2{fill:#281e1b;}.cls-3{fill:#9e6754;}.cls-4{fill:#8c5c4b;}.cls-5{clip-path:url(#clip-path);}.cls-6{fill:#6d3b25;}.cls-7{clip-path:url(#clip-path-2);}.cls-8{clip-path:url(#clip-path-3);}.cls-9{fill:#fff;}.cls-10{clip-path:url(#clip-path-4);}.cls-11{clip-path:url(#clip-path-5);}.cls-12{fill:#050505;}.cls-13{clip-path:url(#clip-path-6);}.cls-14{stroke:#6d3b25;stroke-linecap:round;stroke-miterlimit:10;stroke-width:2px;}.cls-15{fill:#4c2a33;}.cls-16{fill:#261e1a;}</style><clipPath id="clip-path"><polygon class="cls-1" points="405.48 221.54 405.48 221.54 428.91 221.54 428.91 228.66 405.48 228.66 405.48 221.54"/></clipPath><clipPath id="clip-path-2"><polygon class="cls-1" points="382.72 221.54 382.72 221.54 359.29 221.54 359.29 228.66 382.72 228.66 382.72 221.54"/></clipPath><clipPath id="clip-path-3"><polygon class="cls-1" points="406.83 234.99 406.83 234.99 421.89 234.99 421.89 249.5 406.83 249.5 406.83 234.99"/></clipPath><clipPath id="clip-path-4"><polygon class="cls-1" points="381.37 234.99 381.37 234.99 366.3 234.99 366.3 249.5 381.37 249.5 381.37 234.99"/></clipPath><clipPath id="clip-path-5"><polygon class="cls-1" points="409.26 238.27 409.26 238.27 419.33 238.27 419.33 248.35 409.26 248.35 409.26 238.27"/></clipPath><clipPath id="clip-path-6"><polygon class="cls-1" points="378.94 238.27 378.94 238.27 368.87 238.27 368.87 248.35 378.94 248.35 378.94 238.27"/></clipPath></defs><g id="Calque_9" data-name="Calque 9"><ellipse class="cls-2" cx="394.1" cy="222.22" rx="50" ry="48"/><path class="cls-3" d="M393.94,180.37c23.91,0,43.28,11.19,43.28,45.61,0,46-27.44,79-43.28,79"/><path class="cls-4" d="M427.2,268.53l8.14-24.5s7.88-8.13,13.62-2.49c3.82,3.75-5.09,29-10,30C430.66,273.3,427.2,268.53,427.2,268.53Z"/><path class="cls-4" d="M360.8,268.53,352.66,244s-7.88-8.13-13.62-2.49c-3.82,3.75,5.09,29,10,30C357.34,273.3,360.8,268.53,360.8,268.53Z"/><path class="cls-3" d="M393.94,180.37c-23.9,0-43.28,11.19-43.28,45.61,0,46,27.45,79,43.28,79"/><g class="cls-5"><path class="cls-6" d="M427.79,228.66a1.12,1.12,0,0,1-.44-.09,49.17,49.17,0,0,0-7.19-2.35c-7.86-1.78-8.37-.54-11.09,0a5,5,0,0,1-3.09-.79c-.4-.47-.75-2.14-.28-2.54.2-.18,3.71-2.57,12.72-.53,3.75.85,9.66,4.09,9.81,4.15a1.12,1.12,0,0,1-.44,2.15Z"/></g><g class="cls-7"><path class="cls-6" d="M360.41,228.66a1.19,1.19,0,0,0,.44-.09,48.82,48.82,0,0,1,7.18-2.35c7.87-1.78,8.37-.54,11.09,0a5,5,0,0,0,3.1-.79c.39-.47.75-2.14.28-2.54-.21-.18-3.71-2.57-12.72-.53-3.75.85-9.66,4.09-9.81,4.15a1.12,1.12,0,0,0,.44,2.15Z"/></g><g class="cls-8"><ellipse class="cls-9" cx="414.36" cy="242.25" rx="7.53" ry="7.26"/></g><g class="cls-10"><ellipse class="cls-9" cx="373.84" cy="242.25" rx="7.53" ry="7.26"/></g><g class="cls-11"><circle class="cls-12" cx="414.29" cy="243.31" r="5.04"/></g><g class="cls-13"><circle class="cls-12" cx="373.9" cy="243.31" r="5.04"/></g><path class="cls-14" d="M387.83,261.78a50.36,50.36,0,0,0,7.05,1.35c1.65,0,7-1.73,7-1.73"/><ellipse class="cls-15" cx="393.91" cy="280.2" rx="10.3" ry="1.63"/><path class="cls-16" d="M353,242.59c-2-3.35-12.6-51.72,24.49-63.48s53.16,13.49,53.16,13.49,14.66,19.67,6.8,49.45c0,0-1.87-15.89-7.25-28.12s-2-14.62-1.89-15.64-34.64-3.4-34.64-3.4-30.91-.69-30.28.68C365.38,199.82,353,242.59,353,242.59Z"/><path class="cls-2" d="M346,226.8h-.44a4.51,4.51,0,0,0-2.32.51,5.39,5.39,0,0,0-3.17,3.17,4.51,4.51,0,0,0-.51,2.32l.21,1.59a6,6,0,0,0,1.54,2.65l1.22.94a6,6,0,0,0,3,.82H346a6.7,6.7,0,0,0,4.24-1.76,4.52,4.52,0,0,0,1.24-1.93,4.61,4.61,0,0,0,.52-2.31l-.22-1.6a6,6,0,0,0-1.54-2.65l-1.22-.93a5.83,5.83,0,0,0-3-.82Z"/><path class="cls-2" d="M337.17,221.18l.08.36a6,6,0,0,0,4.19,4.19l.36.08a4.52,4.52,0,0,0,2.39.11,4.58,4.58,0,0,0,2.23-.71,4.67,4.67,0,0,0,1.69-1.55,4.56,4.56,0,0,0,1.07-2l.21-1.59a5.84,5.84,0,0,0-.82-3l-.93-1.22a6,6,0,0,0-2.65-1.54l-.36-.08,4.19,4.19-.08-.36a4.48,4.48,0,0,0-1.08-2,6.17,6.17,0,0,0-6.3-2.15l-1.44.6a6.18,6.18,0,0,0-2.15,2.16l-.6,1.43a6,6,0,0,0,0,3.19Z"/><path class="cls-2" d="M341.13,204.78l-.11.29,8.82-3.59,0,0,1.21.94a.93.93,0,0,1-.14-.14l.94,1.21a.86.86,0,0,1-.1-.16l.61,1.43a.59.59,0,0,1-.05-.19l.21,1.6a.81.81,0,0,1,0-.22,6.18,6.18,0,0,0-6-6l-1.6.22a6,6,0,0,0-2.65,1.54l-.93,1.22a5.83,5.83,0,0,0-.82,3,.66.66,0,0,0,0,.14s0,.05,0,.08l.21,1.59a6.06,6.06,0,0,0,.67,1.64,6.79,6.79,0,0,0,2.42,2.46,5.84,5.84,0,0,0,3,.82,6.62,6.62,0,0,0,4.24-1.75,6,6,0,0,0,1.54-2.65l.11-.29a4.53,4.53,0,0,0,.11-2.39,4.45,4.45,0,0,0-.71-2.23,4.58,4.58,0,0,0-1.55-1.69,4.47,4.47,0,0,0-2-1.07l-1.59-.22a6,6,0,0,0-3,.82l-1.22.94a6.07,6.07,0,0,0-1.54,2.65Z"/><path class="cls-2" d="M350.44,199.16c7.72,0,7.73-12,0-12s-7.73,12,0,12Z"/><path class="cls-2" d="M353.63,186.5l.44.88a4.55,4.55,0,0,0,1.54,1.69,4.47,4.47,0,0,0,2,1.07,6.75,6.75,0,0,0,4.63-.6l1.21-.94A6,6,0,0,0,365,186l.22-1.59a6,6,0,0,0-.82-3l-.44-.88a6.69,6.69,0,0,0-3.59-2.76,4.52,4.52,0,0,0-2.39-.11,4.58,4.58,0,0,0-2.23.71l-1.22.94a6.07,6.07,0,0,0-1.54,2.65l-.21,1.6a5.83,5.83,0,0,0,.82,3Z"/><path class="cls-2" d="M365.91,172.13l-.13.08-1.22.94-.05,0-.1.1-.93,1.21,0,.05-.06.11-.61,1.44,0,.06v.06l-.21,1.59a1,1,0,0,0,0,.17,7,7,0,0,0,.12.9,3,3,0,0,0,.4,1.51,3,3,0,0,0,.78,1.33,2.89,2.89,0,0,0,1.07,1.07,2.37,2.37,0,0,0,.65.49l.16.09a7.31,7.31,0,0,1,.65.43,4.38,4.38,0,0,0,2.23.71,4.52,4.52,0,0,0,2.39-.1,6.81,6.81,0,0,0,3.59-2.76l.6-1.43a6,6,0,0,0,0-3.19l-.6-1.44a6,6,0,0,0-2.16-2.15,7.48,7.48,0,0,0-.84-.54l3,5.18a.82.82,0,0,1,0-.27l-.22,1.6a.56.56,0,0,1,0-.12l-.61,1.43a.86.86,0,0,1,.1-.16l-.94,1.21a1,1,0,0,1,.15-.14l-1.22.94.13-.09a4.64,4.64,0,0,0,1.69-1.54,6.21,6.21,0,0,0,.47-6.67l-.94-1.21a6,6,0,0,0-2.65-1.55l-1.6-.21a5.93,5.93,0,0,0-3,.82Z"/><path class="cls-2" d="M377,171.59v2.2a6.21,6.21,0,0,0,1.75,4.24,6.14,6.14,0,0,0,4.25,1.76,6.05,6.05,0,0,0,4.24-1.76,6.22,6.22,0,0,0,1.76-4.24v-2.2a6.2,6.2,0,0,0-1.76-4.25,6,6,0,0,0-8.49,0,6.28,6.28,0,0,0-1.75,4.25Z"/><path class="cls-2" d="M392,170.7v.89a5.8,5.8,0,0,0,3.69,5.48,4.56,4.56,0,0,0,2.31.52l1.59-.22a6,6,0,0,0,2.65-1.54l.94-1.22a5.93,5.93,0,0,0,.82-3v-.89a5.8,5.8,0,0,0-3.69-5.48,4.56,4.56,0,0,0-2.31-.52l-1.6.22a5.94,5.94,0,0,0-2.64,1.54l-.94,1.22a5.93,5.93,0,0,0-.82,3Z"/><path class="cls-2" d="M416.77,175.11l0-.29-11.19,3c.07.14.14.27.22.4l.13.18c.35.45.69.93,1.07,1.36A4.38,4.38,0,0,0,408.9,181a5.39,5.39,0,0,0,4.62,0,4.38,4.38,0,0,0,1.93-1.24l.94-1.21a6,6,0,0,0,.82-3L417,174a6,6,0,0,0-1.55-2.64l-.12-.15.93,1.21a3,3,0,0,1-.34-.58l-.94-1.21a4.61,4.61,0,0,0-1.93-1.25,3,3,0,0,0-1.52-.4,4.52,4.52,0,0,0-2.39.1l-1.43.61-1.22.94a6.62,6.62,0,0,0-1.75,4.24l0,.29a4.51,4.51,0,0,0,.52,2.31,4.43,4.43,0,0,0,1.24,1.93,4.38,4.38,0,0,0,1.93,1.24,4.46,4.46,0,0,0,2.31.52l1.59-.22a6,6,0,0,0,2.65-1.54l.94-1.21a6,6,0,0,0,.82-3Z"/><path class="cls-2" d="M427.45,174.77l-.38-.29a6,6,0,0,0-3-.82,6.7,6.7,0,0,0-4.25,1.76,6.07,6.07,0,0,0-1.54,2.65c0,.06,0,.12-.05.18l-.21,1.6v.08c0,.06,0,.11,0,.17l.22,1.6a.5.5,0,0,0,0,.12,19.22,19.22,0,0,0,.87,2l-.61-1.44a2.35,2.35,0,0,1,.14.45,5.8,5.8,0,0,0,5,4.3,4.66,4.66,0,0,0,2.4-.11,6,6,0,0,0,3.58-2.76l.61-1.43a6.16,6.16,0,0,0,0-3.19,5.05,5.05,0,0,0-.44-1.16c-.16-.38-.32-.75-.49-1.12l.61,1.43a1.31,1.31,0,0,1-.1-.32l.21,1.59a1,1,0,0,1,0-.25l-.22,1.59a1.21,1.21,0,0,1,.05-.18L421,184.84l.37.29a4.38,4.38,0,0,0,2.23.71,6.15,6.15,0,0,0,6-2.86,6,6,0,0,0,.61-4.62l-.61-1.44a6,6,0,0,0-2.15-2.15Z"/><path class="cls-2" d="M427.88,189c.37,1,.63,1.87,1.1,2.82a7.08,7.08,0,0,0,4.41,3.58,6.28,6.28,0,0,0,4.63-.61,6,6,0,0,0-1.44-11,.49.49,0,0,1-.16,0l1.43.61-.15-.09,1.21.94a1.6,1.6,0,0,1-.26-.26l.94,1.22a2.73,2.73,0,0,1-.29-.53l.6,1.44c-.17-.42-.28-.86-.45-1.29a6.66,6.66,0,0,0-2.75-3.58,4.41,4.41,0,0,0-2.23-.71,4.56,4.56,0,0,0-2.4.1,6,6,0,0,0-3.58,2.76,5.86,5.86,0,0,0-.61,4.62Z"/><path class="cls-2" d="M447.82,199.94l-.11-.31a6,6,0,0,0-1.54-2.64,4.43,4.43,0,0,0-1.93-1.24,4.51,4.51,0,0,0-2.31-.52,5.94,5.94,0,0,0-3,.82,6.9,6.9,0,0,0-2.29,2.27l-.15.25a7.67,7.67,0,0,0-.92,3.57c0,.54,0,1.06.06,1.59a6.19,6.19,0,0,0,1.75,4.24,6,6,0,0,0,8.49,0,6.2,6.2,0,0,0,1.76-4.24,16.09,16.09,0,0,1-.05-1.7l-.22,1.59a2.13,2.13,0,0,1,.1-.42l-.6,1.43a1.23,1.23,0,0,1,.14-.25L446,205.6l.07-.07-1.22.94.08-.06-8.82-3.59.11.31a6.41,6.41,0,0,0,2.76,3.58,6,6,0,0,0,8.21-2.15,6,6,0,0,0,.6-4.62Z"/><path class="cls-2" d="M437.8,220v1.32a6.62,6.62,0,0,0,1.75,4.24,4.56,4.56,0,0,0,1.94,1.24,4.46,4.46,0,0,0,2.31.52l1.59-.22a6,6,0,0,0,2.65-1.54l.94-1.22a6,6,0,0,0,.82-3V220a4.52,4.52,0,0,0-.52-2.32,4.58,4.58,0,0,0-1.24-1.93A6.62,6.62,0,0,0,443.8,214l-1.6.21a6,6,0,0,0-2.65,1.54l-.93,1.22a5.84,5.84,0,0,0-.82,3Z"/><path class="cls-2" d="M436.69,231.64a3,3,0,0,1-.19.58l.61-1.43c-.25.58-.51,1.16-.74,1.75a3.31,3.31,0,0,0-.12.42,4.56,4.56,0,0,0-.11,2.4,4.62,4.62,0,0,0,.71,2.23,4.56,4.56,0,0,0,1.55,1.68,4.47,4.47,0,0,0,2,1.07l1.6.22a6,6,0,0,0,3-.82l1.22-.94a6,6,0,0,0,1.54-2.65,3,3,0,0,1,.19-.58L447.4,237c.25-.58.51-1.16.74-1.75a2.58,2.58,0,0,0,.12-.42,6.72,6.72,0,0,0-.6-4.62,4.67,4.67,0,0,0-1.55-1.69,4.56,4.56,0,0,0-2-1.07l-1.59-.21a5.84,5.84,0,0,0-3,.82l-1.22.93a6.07,6.07,0,0,0-1.54,2.65Z"/><path class="cls-2" d="M435,201.81c7.72,0,7.73-12,0-12s-7.73,12,0,12Z"/></g><g id="Calque_10" data-name="Calque 10"><ellipse class="cls-2" cx="394.1" cy="222.22" rx="50" ry="48"/><path class="cls-3" d="M393.94,180.37c23.91,0,43.28,11.19,43.28,45.61,0,46-27.44,79-43.28,79"/><path class="cls-4" d="M427.2,268.53l8.14-24.5s7.88-8.13,13.62-2.49c3.82,3.75-5.09,29-10,30C430.66,273.3,427.2,268.53,427.2,268.53Z"/><path class="cls-4" d="M360.8,268.53,352.66,244s-7.88-8.13-13.62-2.49c-3.82,3.75,5.09,29,10,30C357.34,273.3,360.8,268.53,360.8,268.53Z"/><path class="cls-3" d="M393.94,180.37c-23.9,0-43.28,11.19-43.28,45.61,0,46,27.45,79,43.28,79"/><g class="cls-5"><path class="cls-6" d="M427.79,228.66a1.12,1.12,0,0,1-.44-.09,49.17,49.17,0,0,0-7.19-2.35c-7.86-1.78-8.37-.54-11.09,0a5,5,0,0,1-3.09-.79c-.4-.47-.75-2.14-.28-2.54.2-.18,3.71-2.57,12.72-.53,3.75.85,9.66,4.09,9.81,4.15a1.12,1.12,0,0,1-.44,2.15Z"/></g><g class="cls-7"><path class="cls-6" d="M360.41,228.66a1.19,1.19,0,0,0,.44-.09,48.82,48.82,0,0,1,7.18-2.35c7.87-1.78,8.37-.54,11.09,0a5,5,0,0,0,3.1-.79c.39-.47.75-2.14.28-2.54-.21-.18-3.71-2.57-12.72-.53-3.75.85-9.66,4.09-9.81,4.15a1.12,1.12,0,0,0,.44,2.15Z"/></g><g class="cls-8"><ellipse class="cls-9" cx="414.36" cy="242.25" rx="7.53" ry="7.26"/></g><g class="cls-10"><ellipse class="cls-9" cx="373.84" cy="242.25" rx="7.53" ry="7.26"/></g><g class="cls-11"><circle class="cls-12" cx="414.29" cy="243.31" r="5.04"/></g><g class="cls-13"><circle class="cls-12" cx="373.9" cy="243.31" r="5.04"/></g><path class="cls-14" d="M387.83,261.78a50.36,50.36,0,0,0,7.05,1.35c1.65,0,7-1.73,7-1.73"/><ellipse class="cls-15" cx="393.91" cy="280.2" rx="10.3" ry="1.63"/><path class="cls-16" d="M353,242.59c-2-3.35-12.6-51.72,24.49-63.48s53.16,13.49,53.16,13.49,14.66,19.67,6.8,49.45c0,0-1.87-15.89-7.25-28.12s-2-14.62-1.89-15.64-34.64-3.4-34.64-3.4-30.91-.69-30.28.68C365.38,199.82,353,242.59,353,242.59Z"/><path class="cls-2" d="M346,226.8h-.44a4.51,4.51,0,0,0-2.32.51,5.39,5.39,0,0,0-3.17,3.17,4.51,4.51,0,0,0-.51,2.32l.21,1.59a6,6,0,0,0,1.54,2.65l1.22.94a6,6,0,0,0,3,.82H346a6.7,6.7,0,0,0,4.24-1.76,4.52,4.52,0,0,0,1.24-1.93,4.61,4.61,0,0,0,.52-2.31l-.22-1.6a6,6,0,0,0-1.54-2.65l-1.22-.93a5.83,5.83,0,0,0-3-.82Z"/><path class="cls-2" d="M337.17,221.18l.08.36a6,6,0,0,0,4.19,4.19l.36.08a4.52,4.52,0,0,0,2.39.11,4.58,4.58,0,0,0,2.23-.71,4.67,4.67,0,0,0,1.69-1.55,4.56,4.56,0,0,0,1.07-2l.21-1.59a5.84,5.84,0,0,0-.82-3l-.93-1.22a6,6,0,0,0-2.65-1.54l-.36-.08,4.19,4.19-.08-.36a4.48,4.48,0,0,0-1.08-2,6.17,6.17,0,0,0-6.3-2.15l-1.44.6a6.18,6.18,0,0,0-2.15,2.16l-.6,1.43a6,6,0,0,0,0,3.19Z"/><path class="cls-2" d="M341.13,204.78l-.11.29,8.82-3.59,0,0,1.21.94a.93.93,0,0,1-.14-.14l.94,1.21a.86.86,0,0,1-.1-.16l.61,1.43a.59.59,0,0,1-.05-.19l.21,1.6a.81.81,0,0,1,0-.22,6.18,6.18,0,0,0-6-6l-1.6.22a6,6,0,0,0-2.65,1.54l-.93,1.22a5.83,5.83,0,0,0-.82,3,.66.66,0,0,0,0,.14s0,.05,0,.08l.21,1.59a6.06,6.06,0,0,0,.67,1.64,6.79,6.79,0,0,0,2.42,2.46,5.84,5.84,0,0,0,3,.82,6.62,6.62,0,0,0,4.24-1.75,6,6,0,0,0,1.54-2.65l.11-.29a4.53,4.53,0,0,0,.11-2.39,4.45,4.45,0,0,0-.71-2.23,4.58,4.58,0,0,0-1.55-1.69,4.47,4.47,0,0,0-2-1.07l-1.59-.22a6,6,0,0,0-3,.82l-1.22.94a6.07,6.07,0,0,0-1.54,2.65Z"/><path class="cls-2" d="M350.44,199.16c7.72,0,7.73-12,0-12s-7.73,12,0,12Z"/><path class="cls-2" d="M353.63,186.5l.44.88a4.55,4.55,0,0,0,1.54,1.69,4.47,4.47,0,0,0,2,1.07,6.75,6.75,0,0,0,4.63-.6l1.21-.94A6,6,0,0,0,365,186l.22-1.59a6,6,0,0,0-.82-3l-.44-.88a6.69,6.69,0,0,0-3.59-2.76,4.52,4.52,0,0,0-2.39-.11,4.58,4.58,0,0,0-2.23.71l-1.22.94a6.07,6.07,0,0,0-1.54,2.65l-.21,1.6a5.83,5.83,0,0,0,.82,3Z"/><path class="cls-2" d="M365.91,172.13l-.13.08-1.22.94-.05,0-.1.1-.93,1.21,0,.05-.06.11-.61,1.44,0,.06v.06l-.21,1.59a1,1,0,0,0,0,.17,7,7,0,0,0,.12.9,3,3,0,0,0,.4,1.51,3,3,0,0,0,.78,1.33,2.89,2.89,0,0,0,1.07,1.07,2.37,2.37,0,0,0,.65.49l.16.09a7.31,7.31,0,0,1,.65.43,4.38,4.38,0,0,0,2.23.71,4.52,4.52,0,0,0,2.39-.1,6.81,6.81,0,0,0,3.59-2.76l.6-1.43a6,6,0,0,0,0-3.19l-.6-1.44a6,6,0,0,0-2.16-2.15,7.48,7.48,0,0,0-.84-.54l3,5.18a.82.82,0,0,1,0-.27l-.22,1.6a.56.56,0,0,1,0-.12l-.61,1.43a.86.86,0,0,1,.1-.16l-.94,1.21a1,1,0,0,1,.15-.14l-1.22.94.13-.09a4.64,4.64,0,0,0,1.69-1.54,6.21,6.21,0,0,0,.47-6.67l-.94-1.21a6,6,0,0,0-2.65-1.55l-1.6-.21a5.93,5.93,0,0,0-3,.82Z"/><path class="cls-2" d="M377,171.59v2.2a6.21,6.21,0,0,0,1.75,4.24,6.14,6.14,0,0,0,4.25,1.76,6.05,6.05,0,0,0,4.24-1.76,6.22,6.22,0,0,0,1.76-4.24v-2.2a6.2,6.2,0,0,0-1.76-4.25,6,6,0,0,0-8.49,0,6.28,6.28,0,0,0-1.75,4.25Z"/><path class="cls-2" d="M392,170.7v.89a5.8,5.8,0,0,0,3.69,5.48,4.56,4.56,0,0,0,2.31.52l1.59-.22a6,6,0,0,0,2.65-1.54l.94-1.22a5.93,5.93,0,0,0,.82-3v-.89a5.8,5.8,0,0,0-3.69-5.48,4.56,4.56,0,0,0-2.31-.52l-1.6.22a5.94,5.94,0,0,0-2.64,1.54l-.94,1.22a5.93,5.93,0,0,0-.82,3Z"/><path class="cls-2" d="M416.77,175.11l0-.29-11.19,3c.07.14.14.27.22.4l.13.18c.35.45.69.93,1.07,1.36A4.38,4.38,0,0,0,408.9,181a5.39,5.39,0,0,0,4.62,0,4.38,4.38,0,0,0,1.93-1.24l.94-1.21a6,6,0,0,0,.82-3L417,174a6,6,0,0,0-1.55-2.64l-.12-.15.93,1.21a3,3,0,0,1-.34-.58l-.94-1.21a4.61,4.61,0,0,0-1.93-1.25,3,3,0,0,0-1.52-.4,4.52,4.52,0,0,0-2.39.1l-1.43.61-1.22.94a6.62,6.62,0,0,0-1.75,4.24l0,.29a4.51,4.51,0,0,0,.52,2.31,4.43,4.43,0,0,0,1.24,1.93,4.38,4.38,0,0,0,1.93,1.24,4.46,4.46,0,0,0,2.31.52l1.59-.22a6,6,0,0,0,2.65-1.54l.94-1.21a6,6,0,0,0,.82-3Z"/><path class="cls-2" d="M427.45,174.77l-.38-.29a6,6,0,0,0-3-.82,6.7,6.7,0,0,0-4.25,1.76,6.07,6.07,0,0,0-1.54,2.65c0,.06,0,.12-.05.18l-.21,1.6v.08c0,.06,0,.11,0,.17l.22,1.6a.5.5,0,0,0,0,.12,19.22,19.22,0,0,0,.87,2l-.61-1.44a2.35,2.35,0,0,1,.14.45,5.8,5.8,0,0,0,5,4.3,4.66,4.66,0,0,0,2.4-.11,6,6,0,0,0,3.58-2.76l.61-1.43a6.16,6.16,0,0,0,0-3.19,5.05,5.05,0,0,0-.44-1.16c-.16-.38-.32-.75-.49-1.12l.61,1.43a1.31,1.31,0,0,1-.1-.32l.21,1.59a1,1,0,0,1,0-.25l-.22,1.59a1.21,1.21,0,0,1,.05-.18L421,184.84l.37.29a4.38,4.38,0,0,0,2.23.71,6.15,6.15,0,0,0,6-2.86,6,6,0,0,0,.61-4.62l-.61-1.44a6,6,0,0,0-2.15-2.15Z"/><path class="cls-2" d="M427.88,189c.37,1,.63,1.87,1.1,2.82a7.08,7.08,0,0,0,4.41,3.58,6.28,6.28,0,0,0,4.63-.61,6,6,0,0,0-1.44-11,.49.49,0,0,1-.16,0l1.43.61-.15-.09,1.21.94a1.6,1.6,0,0,1-.26-.26l.94,1.22a2.73,2.73,0,0,1-.29-.53l.6,1.44c-.17-.42-.28-.86-.45-1.29a6.66,6.66,0,0,0-2.75-3.58,4.41,4.41,0,0,0-2.23-.71,4.56,4.56,0,0,0-2.4.1,6,6,0,0,0-3.58,2.76,5.86,5.86,0,0,0-.61,4.62Z"/><path class="cls-2" d="M447.82,199.94l-.11-.31a6,6,0,0,0-1.54-2.64,4.43,4.43,0,0,0-1.93-1.24,4.51,4.51,0,0,0-2.31-.52,5.94,5.94,0,0,0-3,.82,6.9,6.9,0,0,0-2.29,2.27l-.15.25a7.67,7.67,0,0,0-.92,3.57c0,.54,0,1.06.06,1.59a6.19,6.19,0,0,0,1.75,4.24,6,6,0,0,0,8.49,0,6.2,6.2,0,0,0,1.76-4.24,16.09,16.09,0,0,1-.05-1.7l-.22,1.59a2.13,2.13,0,0,1,.1-.42l-.6,1.43a1.23,1.23,0,0,1,.14-.25L446,205.6l.07-.07-1.22.94.08-.06-8.82-3.59.11.31a6.41,6.41,0,0,0,2.76,3.58,6,6,0,0,0,8.21-2.15,6,6,0,0,0,.6-4.62Z"/><path class="cls-2" d="M437.8,220v1.32a6.62,6.62,0,0,0,1.75,4.24,4.56,4.56,0,0,0,1.94,1.24,4.46,4.46,0,0,0,2.31.52l1.59-.22a6,6,0,0,0,2.65-1.54l.94-1.22a6,6,0,0,0,.82-3V220a4.52,4.52,0,0,0-.52-2.32,4.58,4.58,0,0,0-1.24-1.93A6.62,6.62,0,0,0,443.8,214l-1.6.21a6,6,0,0,0-2.65,1.54l-.93,1.22a5.84,5.84,0,0,0-.82,3Z"/><path class="cls-2" d="M436.69,231.64a3,3,0,0,1-.19.58l.61-1.43c-.25.58-.51,1.16-.74,1.75a3.31,3.31,0,0,0-.12.42,4.56,4.56,0,0,0-.11,2.4,4.62,4.62,0,0,0,.71,2.23,4.56,4.56,0,0,0,1.55,1.68,4.47,4.47,0,0,0,2,1.07l1.6.22a6,6,0,0,0,3-.82l1.22-.94a6,6,0,0,0,1.54-2.65,3,3,0,0,1,.19-.58L447.4,237c.25-.58.51-1.16.74-1.75a2.58,2.58,0,0,0,.12-.42,6.72,6.72,0,0,0-.6-4.62,4.67,4.67,0,0,0-1.55-1.69,4.56,4.56,0,0,0-2-1.07l-1.59-.21a5.84,5.84,0,0,0-3,.82l-1.22.93a6.07,6.07,0,0,0-1.54,2.65Z"/><path class="cls-2" d="M435,201.81c7.72,0,7.73-12,0-12s-7.73,12,0,12Z"/></g></svg>