<svg xmlns="http://www.w3.org/2000/svg" xmlns:xlink="http://www.w3.org/1999/xlink" viewBox="0 0 788 1005"><defs><style>.cls-1,.cls-13{fill:none;}.cls-2{fill:#4c3019;}.cls-3{fill:#b9785c;}.cls-4{clip-path:url(#clip-path);}.cls-5{fill:#6d3b25;}.cls-6{clip-path:url(#clip-path-2);}.cls-7{clip-path:url(#clip-path-3);}.cls-8{fill:#fff;}.cls-9{clip-path:url(#clip-path-4);}.cls-10{clip-path:url(#clip-path-5);}.cls-11{fill:#050505;}.cls-12{clip-path:url(#clip-path-6);}.cls-13{stroke:#6d3b25;stroke-linecap:round;stroke-miterlimit:10;stroke-width:2px;}.cls-14{fill:#4c2a33;}.cls-15{fill:#261e1a;}.cls-16{fill:#281e1b;}.cls-17{fill:#d68f72;}</style><clipPath id="clip-path"><polygon class="cls-1" points="405.48 221.54 405.48 221.54 428.91 221.54 428.91 228.66 405.48 228.66 405.48 221.54"/></clipPath><clipPath id="clip-path-2"><polygon class="cls-1" points="382.72 221.54 382.72 221.54 359.29 221.54 359.29 228.66 382.72 228.66 382.72 221.54"/></clipPath><clipPath id="clip-path-3"><polygon class="cls-1" points="406.83 234.99 406.83 234.99 421.89 234.99 421.89 249.5 406.83 249.5 406.83 234.99"/></clipPath><clipPath id="clip-path-4"><polygon class="cls-1" points="381.37 234.99 381.37 234.99 366.3 234.99 366.3 249.5 381.37 249.5 381.37 234.99"/></clipPath><clipPath id="clip-path-5"><polygon class="cls-1" points="409.26 238.27 409.26 238.27 419.33 238.27 419.33 248.35 409.26 248.35 409.26 238.27"/></clipPath><clipPath id="clip-path-6"><polygon class="cls-1" points="378.94 238.27 378.94 238.27 368.87 238.27 368.87 248.35 378.94 248.35 378.94 238.27"/></clipPath></defs><g id="Calque_9" data-name="Calque 9"><ellipse class="cls-2" cx="394.1" cy="222.22" rx="50" ry="48"/><path class="cls-3" d="M427.2,268.53l8.14-24.5s7.88-8.13,13.62-2.49c3.82,3.75-5.09,29-10,30C430.66,273.3,427.2,268.53,427.2,268.53Z"/><path class="cls-3" d="M360.8,268.53,352.66,244s-7.88-8.13-13.62-2.49c-3.82,3.75,5.09,29,10,30C357.34,273.3,360.8,268.53,360.8,268.53Z"/><g class="cls-4"><path class="cls-5" d="M427.79,228.66a1.12,1.12,0,0,1-.44-.09,49.17,49.17,0,0,0-7.19-2.35c-7.86-1.78-8.37-.54-11.09,0a5,5,0,0,1-3.09-.79c-.4-.47-.75-2.14-.28-2.54.2-.18,3.71-2.57,12.72-.53,3.75.85,9.66,4.09,9.81,4.15a1.12,1.12,0,0,1-.44,2.15Z"/></g><g class="cls-6"><path class="cls-5" d="M360.41,228.66a1.15,1.15,0,0,0,.44-.09,48.69,48.69,0,0,1,7.19-2.35c7.86-1.78,8.36-.54,11.08,0a5,5,0,0,0,3.1-.79c.4-.47.75-2.14.28-2.54-.2-.18-3.71-2.57-12.72-.53-3.75.85-9.66,4.09-9.81,4.15a1.12,1.12,0,0,0-.59,1.47A1.11,1.11,0,0,0,360.41,228.66Z"/></g><g class="cls-7"><ellipse class="cls-8" cx="414.36" cy="242.25" rx="7.53" ry="7.26"/></g><g class="cls-9"><ellipse class="cls-8" cx="373.84" cy="242.25" rx="7.53" ry="7.26"/></g><g class="cls-10"><circle class="cls-11" cx="414.29" cy="243.31" r="5.04"/></g><g class="cls-12"><circle class="cls-11" cx="373.9" cy="243.31" r="5.04"/></g><path class="cls-13" d="M387.83,261.78a50.36,50.36,0,0,0,7.05,1.35c1.65,0,7-1.73,7-1.73"/><ellipse class="cls-14" cx="393.91" cy="280.2" rx="10.3" ry="1.63"/><path class="cls-15" d="M353,242.59c-2-3.35-12.6-51.72,24.49-63.48s53.16,13.49,53.16,13.49,14.66,19.67,6.8,49.45c0,0-1.87-15.89-7.25-28.12s-2-14.62-1.89-15.64-34.64-3.4-34.64-3.4-30.91-.69-30.28.68C365.38,199.82,353,242.59,353,242.59Z"/><path class="cls-16" d="M337.17,221.18l.08.36a6,6,0,0,0,4.19,4.19l.36.08a4.52,4.52,0,0,0,2.39.11,4.58,4.58,0,0,0,2.23-.71,4.67,4.67,0,0,0,1.69-1.55,4.56,4.56,0,0,0,1.07-2l.21-1.59a5.84,5.84,0,0,0-.82-3l-.93-1.22a6,6,0,0,0-2.65-1.54l-.36-.08,4.19,4.19-.08-.36a4.48,4.48,0,0,0-1.08-2,6.17,6.17,0,0,0-6.3-2.15l-1.44.6a6.18,6.18,0,0,0-2.15,2.16l-.6,1.43a6,6,0,0,0,0,3.19Z"/><path class="cls-16" d="M341.13,204.78l-.11.29,8.82-3.59,0,0,1.21.94a.93.93,0,0,1-.14-.14l.94,1.21a.86.86,0,0,1-.1-.16l.61,1.43a.59.59,0,0,1-.05-.19l.21,1.6a.81.81,0,0,1,0-.22,6.18,6.18,0,0,0-6-6l-1.6.22a6,6,0,0,0-2.65,1.54l-.93,1.22a5.83,5.83,0,0,0-.82,3,.66.66,0,0,0,0,.14s0,.05,0,.08l.21,1.59a6.06,6.06,0,0,0,.67,1.64,6.79,6.79,0,0,0,2.42,2.46,5.84,5.84,0,0,0,3,.82,6.62,6.62,0,0,0,4.24-1.75,6,6,0,0,0,1.54-2.65l.11-.29a4.53,4.53,0,0,0,.11-2.39,4.45,4.45,0,0,0-.71-2.23,4.58,4.58,0,0,0-1.55-1.69,4.47,4.47,0,0,0-2-1.07l-1.59-.22a6,6,0,0,0-3,.82l-1.22.94a6.07,6.07,0,0,0-1.54,2.65Z"/><path class="cls-16" d="M350.44,199.16c7.72,0,7.73-12,0-12s-7.73,12,0,12Z"/><path class="cls-16" d="M377,171.59v2.2a6.21,6.21,0,0,0,1.75,4.24,6.14,6.14,0,0,0,4.25,1.76,6.05,6.05,0,0,0,4.24-1.76,6.22,6.22,0,0,0,1.76-4.24v-2.2a6.2,6.2,0,0,0-1.76-4.25,6,6,0,0,0-8.49,0,6.28,6.28,0,0,0-1.75,4.25Z"/><path class="cls-16" d="M416.77,175.11l0-.29-11.19,3c.07.14.14.27.22.4l.13.18c.35.45.69.93,1.07,1.36A4.38,4.38,0,0,0,408.9,181a5.39,5.39,0,0,0,4.62,0,4.38,4.38,0,0,0,1.93-1.24l.94-1.21a6,6,0,0,0,.82-3L417,174a6,6,0,0,0-1.55-2.64l-.12-.15.93,1.21a3,3,0,0,1-.34-.58l-.94-1.21a4.61,4.61,0,0,0-1.93-1.25,3,3,0,0,0-1.52-.4,4.52,4.52,0,0,0-2.39.1l-1.43.61-1.22.94a6.62,6.62,0,0,0-1.75,4.24l0,.29a4.51,4.51,0,0,0,.52,2.31,4.43,4.43,0,0,0,1.24,1.93,4.38,4.38,0,0,0,1.93,1.24,4.46,4.46,0,0,0,2.31.52l1.59-.22a6,6,0,0,0,2.65-1.54l.94-1.21a6,6,0,0,0,.82-3Z"/><path class="cls-16" d="M427.45,174.77l-.38-.29a6,6,0,0,0-3-.82,6.7,6.7,0,0,0-4.25,1.76,6.07,6.07,0,0,0-1.54,2.65c0,.06,0,.12-.05.18l-.21,1.6v.08c0,.06,0,.11,0,.17l.22,1.6a.5.5,0,0,0,0,.12,19.22,19.22,0,0,0,.87,2l-.61-1.44a2.35,2.35,0,0,1,.14.45,5.8,5.8,0,0,0,5,4.3,4.66,4.66,0,0,0,2.4-.11,6,6,0,0,0,3.58-2.76l.61-1.43a6.16,6.16,0,0,0,0-3.19,5.05,5.05,0,0,0-.44-1.16c-.16-.38-.32-.75-.49-1.12l.61,1.43a1.31,1.31,0,0,1-.1-.32l.21,1.59a1,1,0,0,1,0-.25l-.22,1.59a1.21,1.21,0,0,1,.05-.18L421,184.84l.37.29a4.38,4.38,0,0,0,2.23.71,6.15,6.15,0,0,0,6-2.86,6,6,0,0,0,.61-4.62l-.61-1.44a6,6,0,0,0-2.15-2.15Z"/><path class="cls-16" d="M427.88,189c.37,1,.63,1.87,1.1,2.82a7.08,7.08,0,0,0,4.41,3.58,6.28,6.28,0,0,0,4.63-.61,6,6,0,0,0-1.44-11,.49.49,0,0,1-.16,0l1.43.61-.15-.09,1.21.94a1.6,1.6,0,0,1-.26-.26l.94,1.22a2.73,2.73,0,0,1-.29-.53l.6,1.44c-.17-.42-.28-.86-.45-1.29a6.66,6.66,0,0,0-2.75-3.58,4.41,4.41,0,0,0-2.23-.71,4.56,4.56,0,0,0-2.4.1,6,6,0,0,0-3.58,2.76,5.86,5.86,0,0,0-.61,4.62Z"/><path class="cls-16" d="M447.82,199.94l-.11-.31a6,6,0,0,0-1.54-2.64,4.43,4.43,0,0,0-1.93-1.24,4.51,4.51,0,0,0-2.31-.52,5.94,5.94,0,0,0-3,.82,6.9,6.9,0,0,0-2.29,2.27l-.15.25a7.67,7.67,0,0,0-.92,3.57c0,.54,0,1.06.06,1.59a6.19,6.19,0,0,0,1.75,4.24,6,6,0,0,0,8.49,0,6.2,6.2,0,0,0,1.76-4.24,16.09,16.09,0,0,1-.05-1.7l-.22,1.59a2.13,2.13,0,0,1,.1-.42l-.6,1.43a1.23,1.23,0,0,1,.14-.25L446,205.6l.07-.07-1.22.94.08-.06-8.82-3.59.11.31a6.41,6.41,0,0,0,2.76,3.58,6,6,0,0,0,8.21-2.15,6,6,0,0,0,.6-4.62Z"/><path class="cls-16" d="M435,201.81c7.72,0,7.73-12,0-12s-7.73,12,0,12Z"/></g><g id="Calque_10" data-name="Calque 10"><path class="cls-2" d="M350.44,193.16s-10.71,11.08-15,18.36-.47,58,5.5,67,15.67,2.47,26.14,3.25,47.39,1.83,54.83.3,21.51,11,28-10.18,1.94-55.35.11-63.22S350.44,193.16,350.44,193.16Z"/><path class="cls-2" d="M349.37,235a12,12,0,0,1-2.07-.13,7.91,7.91,0,0,1-2-.72,12.51,12.51,0,0,1-2.19-1,11.12,11.12,0,0,1-2.4-2.08,27.9,27.9,0,0,1-2-2.47A7.67,7.67,0,0,1,338,227c-.17-.49-.44-.87-.64-1.33s-.25-.89-.49-1.32-.52-.87-.76-1.31a10.29,10.29,0,0,1-.8-2.28,10.85,10.85,0,0,1-.53-2.07c-.09-1.12,0-2.29,0-3.41a12.77,12.77,0,0,1,.61-3.78c.24-.8.5-1.59.79-2.4s.64-1.37.94-2.06a4.28,4.28,0,0,1,1.15-1.7,3.14,3.14,0,0,1,3-.66,8.48,8.48,0,0,1,1.41.42,3.39,3.39,0,0,1,1.42,1.48,13.89,13.89,0,0,1,2.37,7.09c0,.6,0,1.6-.49,2s-1.44-.29-1.79-.79c-.54-.78-.95-1.68-1.42-2.5a9.94,9.94,0,0,1-.8-2.82,6.57,6.57,0,0,1-.24-1.25c0-.37,0-.75,0-1.12a5.88,5.88,0,0,0-.18-.81c-.07-.35,0-.68-.1-1-.29-1-2,3.49-2.3,2.5-.6-1.94.68-9.3.44-11.31a21.5,21.5,0,0,1,2.55-13.31c.53-.9,1-1.83,1.63-2.69a15.51,15.51,0,0,1,3.23-2.92,8,8,0,0,1,5.78-1.47,9.78,9.78,0,0,1,4.25,1.59,9.31,9.31,0,0,1,2.86,3.6,12,12,0,0,1,.76,5,8.48,8.48,0,0,1-1.65,5.25c-.62.76-1.4,1.4-2,2.15s-1.47,1.76-2.18,2.66c-.57.73-1,1.56-1.63,2.27-.47.55-1.31,1.49-2.14,1.48a3.55,3.55,0,0,1-2.34-1.71,13.43,13.43,0,0,1-1.67-5.93c-.29-2.4-.65-4.78.05-7.14a3.28,3.28,0,0,1,1.8-2.38,4.94,4.94,0,0,1,3.1-.29,6.06,6.06,0,0,1,2.83,1.49,6.55,6.55,0,0,0,1.27,1.15,6.37,6.37,0,0,1,1.7-1.61c.81-.68,1.68-1.22,2.52-1.85,1.22-.9,3-1.71,3.74-3.11a2.8,2.8,0,0,0,.23-1.46c-.07-.92-.3-1.89-.44-2.81a11.07,11.07,0,0,1-.12-2.93,15.08,15.08,0,0,1,2.38-5.22,6.22,6.22,0,0,1,2.44-2l2.92-1.24c1.48-.56,3-1.09,4.48-1.58a14.12,14.12,0,0,1,5.39-.72,8.09,8.09,0,0,1,3.74,2.08,19.13,19.13,0,0,1,2.94,2.82,7.47,7.47,0,0,1,1.9,5.42,11.24,11.24,0,0,1-1.12,3.37,14,14,0,0,1-2.55,3.7,8.83,8.83,0,0,1-3.77,1.91,7.47,7.47,0,0,1-4.56,0,10.78,10.78,0,0,1-3.09-2,6.49,6.49,0,0,1-2.59-3.81,5.39,5.39,0,0,1,.61-3.07,8.62,8.62,0,0,1,3.85-3.91,3.54,3.54,0,0,1,4,0,4.91,4.91,0,0,1,2.45,3.39,2.39,2.39,0,0,1-.76,2.29,19.5,19.5,0,0,1-4.83,2.63c-1.75.75-3.63,1.13-5.44,1.7a33.48,33.48,0,0,1-4.28,1.18c-1.87.33-3.18-.92-4.13-2.46a6.73,6.73,0,0,1-.56-2.9,10.48,10.48,0,0,1,1-4.31,10.93,10.93,0,0,1,1.94-3.46,12.11,12.11,0,0,1,1.48-1.29,17.5,17.5,0,0,1,3.74-2.54,18.05,18.05,0,0,1,6.05-1.16c1.91-.12,3.78.76,5.47,1.56a10.72,10.72,0,0,1,4.47,3.83,20,20,0,0,1,1.19,2.18c.46,1,1,1.84,1.5,2.77a10.29,10.29,0,0,0,1.93,2.74,5.26,5.26,0,0,1,.58.45c.23.28.2.7.54.91.45-.24.55-1,.67-1.49.21-.82.45-1.63.65-2.46a32.23,32.23,0,0,1,1.17-3.85,9.82,9.82,0,0,1,1.57-3.05,8.52,8.52,0,0,1,5.79-2.63,35.76,35.76,0,0,1,11.81.44A7.35,7.35,0,0,1,420,167a12.11,12.11,0,0,1,.55,3.48c0,1.41.2,2.8.19,4.21,0,1.94,0,3.88,0,5.82,0,2.24-1.93,3.91-3.86,4.69a11.24,11.24,0,0,1-5.87.42,13.31,13.31,0,0,1-5.41-2.49,8.72,8.72,0,0,1-3.08-3.22,9.71,9.71,0,0,1-1-4.1,8.94,8.94,0,0,1,1.54-4.16,5.52,5.52,0,0,1,3.35-2.42c3.6-1.07,6.86,1.92,9.06,4.41a8.66,8.66,0,0,1,2,4c.18.85.36,1.77-.34,2.42-.92.86-2.67,1-3.85,1a12.49,12.49,0,0,1-5.67-1.59A19.87,19.87,0,0,1,404.1,177a3,3,0,0,1-1.17-2c-.35-1.91.28-3.93.73-5.79.23-1,.49-1.91.77-2.85a6.82,6.82,0,0,1,.44-1.68c.9-1.49,4-1.65,5.55-1.48,3.8.42,6,3.58,7.33,6.86a17.74,17.74,0,0,1,1.05,3.51,7,7,0,0,0,.39,1.63c.38-.05.68-.53.92-.77a6.27,6.27,0,0,1,1.16-.89,11.69,11.69,0,0,1,4.38-1.73,16.29,16.29,0,0,1,5.61.34,12,12,0,0,1,6,4.09,19.35,19.35,0,0,1,1.89,2.36,12,12,0,0,1,1.33,3.42,20.91,20.91,0,0,1,.62,5.79,9.15,9.15,0,0,1-.83,3.1,6.28,6.28,0,0,1-1.28,2.47,5.75,5.75,0,0,1-5.08,1.37,13.5,13.5,0,0,1-5.93-4,16.07,16.07,0,0,1-3.95-6.5,2.48,2.48,0,0,1,1.29-3.22,9.08,9.08,0,0,1,2.91-.72,4.73,4.73,0,0,1,3.36.91,8.53,8.53,0,0,1,3.84,4.9,29.46,29.46,0,0,1,.93,6.49c.05,1.12-.22,2.06-1.51,2.26a2.66,2.66,0,0,1-2.09-1c-.37-.37-1.31-1.37-1.18-2s1-.86,1.53-.79c1.61.2,2.51,2.08,2.87,3.44.14.53.57,1.5.33,2.06-.54,1.29-1.56-.91-1.68-1.31-.32-1.05-.74-2.47,0-3.42a4.35,4.35,0,0,1,4.27-1.49,8.73,8.73,0,0,1,5,2.08,19.59,19.59,0,0,1,4.89,5.61c.91,1.8.87,3.59,1,5.53.12,1.72.14,3.42.14,5.14a24.11,24.11,0,0,1-.36,5.23c-.52,2.37-1,4.79-2.9,6.5a5.79,5.79,0,0,1-4.32,1.65c-2-.2-3.3-2-4.26-3.56a18.74,18.74,0,0,1-2.86-9.46c-.05-2.56,1.06-5.7,3.38-7.08a2.38,2.38,0,0,1,2.68-.06,10.2,10.2,0,0,1,2.38,2c1.79,2.08,2.4,5.13,2.49,7.77,0,.94.21,1.88.16,2.82A13.86,13.86,0,0,1,443,222.3a3.69,3.69,0,0,1-1.94,1.33c-.63.06-.9-.57-1.17-1a7.85,7.85,0,0,1-1.11-4c0-1.7.14-4.28,2.09-5s3.15,1.75,3.59,3.22c.22.75.09,1.45.25,2.18a3.52,3.52,0,0,1,.15.86,2.44,2.44,0,0,1,.17-2,1.53,1.53,0,0,1,2.27-.21,4.65,4.65,0,0,1,1.63,2.25,11.89,11.89,0,0,1,.85,3.67c0,.81.05,1.67,0,2.48a20.25,20.25,0,0,1-.57,2.85,3.82,3.82,0,0,1-1.23,2.15,22.54,22.54,0,0,1-2,1.68c-1.08.72-2.94,1.29-3.43-.36a7.43,7.43,0,0,1-.17-2.16,13.52,13.52,0,0,1,0-1.8c0-.23.14-.44.18-.67a4.16,4.16,0,0,1,.12-.93,7.32,7.32,0,0,0,.65-1.93c.11-1,.49-2.46.1-3.46a11.36,11.36,0,0,1-.67-4.26c0-.6,0-1.21,0-1.81a5.6,5.6,0,0,0-.21-.83c-.07-.42.12-.74-.17-1.14"/><path class="cls-3" d="M427.2,268.53l8.14-24.5s7.88-8.13,13.62-2.49c3.82,3.75-5.09,29-10,30C430.66,273.3,427.2,268.53,427.2,268.53Z"/><path class="cls-3" d="M360.8,268.53,352.66,244s-7.88-8.13-13.62-2.49c-3.82,3.75,5.09,29,10,30C357.34,273.3,360.8,268.53,360.8,268.53Z"/><path class="cls-17" d="M393.94,180.37c-23.9,0-43.28,11.19-43.28,45.61,0,46,27.45,79,43.28,79s43.28-33.06,43.28-79C437.22,191.56,417.85,180.37,393.94,180.37Z"/><path class="cls-2" d="M353,242.59c-2-3.35-12.6-51.72,24.49-63.48s53.16,13.49,53.16,13.49,14.66,19.67,6.8,49.45c0,0-1.87-15.89-7.25-28.12s-2-14.62-1.89-15.64-34.64-3.4-34.64-3.4-30.91-.69-30.28.68C365.38,199.82,353,242.59,353,242.59Z"/><path class="cls-2" d="M359.39,185.23a9.26,9.26,0,0,1,2.69-6.76l.61-.4c.92-.49.76-.53-.47-.12l.81,0a2.48,2.48,0,0,1-2.07-1.17c.54.55,0,2.16.2-.71-.05.69-3.23.53.61.18l3,.82-.41-.29,2.15,2.16c.69,1.45-.42-1.13-.06-.91,1.08.68-3.39,2-1.13,2.29,3.22.42,6-3.07,6-6,0-3.6-2.77-5.57-6-6a9.7,9.7,0,0,0-9.56,4.57c-1.72,3.06-1.58,6.94-.45,10.18,3.55,10.11,16.34,3.14,17.56-4.71a10.59,10.59,0,0,0-15.38-11.14,20.2,20.2,0,0,0-10.13,18,6.12,6.12,0,0,0,6,6c3.11,0,6.17-2.75,6-6Z"/><path class="cls-2" d="M349.67,198.69c-3-3.92-7.48-4.64-11.35-1.29s-5.26,8.95-5.48,13.89c-.41,9.09,4.51,21.37,14,23.94,7.46,2,10.65-9.55,3.19-11.57-3.92-1.06-8-15.09-3.34-17.36l-4.62.6.5.17L339,204.31l.32.44c4.6,6.08,15,.11,10.37-6.06Z"/><path class="cls-2" d="M351,201.32c-1.42-2.7-.45-8.65.59-11.41a6.45,6.45,0,0,1,3.14-3.71c2.27-1.47,3.29-1,5.57.71,6.12,4.7,12.11-5.72,6.06-10.36-7.78-6-18.45-3.09-23.94,4.64-4.65,6.54-5.47,19.19-1.78,26.18,3.6,6.84,14,.78,10.36-6.05Z"/><path class="cls-2" d="M359.39,185.52c.09-2.88.79-9.33,4.43-9.93,2.5-.42,7.16,4.15,7.86,6.42,2.26,7.36,13.85,4.22,11.57-3.19-2.48-8.07-12.34-16.53-21.16-15.23-10.43,1.54-14.4,12.74-14.7,21.93-.26,7.73,11.74,7.72,12,0Z"/><path class="cls-2" d="M372.16,175c1.16-5.51,7.6-2.82,10.85-1.18,4.19,2.12,7.4,5,6.47,10.24-1.34,7.55,10.22,10.8,11.57,3.19,2.11-11.88-4.07-20.62-14.79-25.09-5.12-2.14-11.19-4-16.5-1.39-4.13,2-8.22,6.52-9.17,11-1.6,7.53,10,10.75,11.57,3.19Z"/><path class="cls-2" d="M388.06,177.49c1.12-4.1,9.62-9.1,13.45-7,4.67,2.5,1.79,10.12.37,13.62-2.9,7.16,8.71,10.27,11.57,3.19,4.14-10.19,3.49-23.95-8.45-28.4-10.35-3.86-25.65,5-28.51,15.44-2,7.46,9.54,10.64,11.57,3.19Z"/><path class="cls-2" d="M415.48,175.71c-.65.44-.62.51.08.23a4.31,4.31,0,0,1,1.72.45,3.58,3.58,0,0,1,2.67,2.52c.84,2.47,1,7.28-1.06,9.08-5.83,5.08,2.69,13.54,8.49,8.49,6.69-5.83,6.91-20.43.95-26.94-5.43-5.92-19.06-8.78-23.22.11-3.25,7,7.09,13.06,10.37,6.06Z"/><path class="cls-2" d="M437,181.73v-.13l-6,6,.57.05-4.24-1.75c2.22,2.27,4.6,8.73,2.19,11.43-5.14,5.74,3.32,14.26,8.48,8.49,4.44-5,5.45-11.15,3.57-17.53C440,183,437.18,176.15,431,175.6c-3.48-.3-5.67,3-6,6v.13c-.36,3.22,3,6,6,6,3.53,0,5.64-2.77,6-6Z"/><path class="cls-2" d="M439.19,201.88c-1.77-2-2.16-2.08-1.15-.08l.44,1.46a14,14,0,0,1,.57,5.5c-.2,1.71-1.5,6.94-3,8.06-6.18,4.5-.2,14.92,6.06,10.36,6.08-4.42,9.46-13.63,9-21-.43-7.56-3.25-16-11.91-16.29-7.73-.21-7.72,11.79,0,12Z"/><path class="cls-2" d="M439.24,211.92c1,4.63-.2,11.12-3.86,14.45-5.72,5.2,2.78,13.67,8.49,8.48,6.86-6.23,8.76-17.42,6.94-26.12-1.58-7.55-13.15-4.35-11.57,3.19Z"/><path class="cls-2" d="M341.26,224.92a38.72,38.72,0,0,0,1.09,7.14,13.91,13.91,0,0,0,.44,1.43c-.07-.2.84,2.09.52,1.26.24.63.45,1.26.72,1.88.62,1.4.4,1.73.15-.62.34,3.22,2.5,6,6,6,3,0,6.35-2.76,6-6a11.58,11.58,0,0,0-1.11-4.08c-.39-.78.33.88-.08-.08a23.6,23.6,0,0,1-.94-2.29c-.13-.43-.31-1.51-.42-2.16a18.05,18.05,0,0,0-.24-1.81c0-.15-.2-1.48-.13-.67-.27-3.23-2.57-6-6-6-3,0-6.27,2.75-6,6Z"/></g></svg>