<?xml version="1.0" encoding="utf-8"?>
<!-- Generator: Adobe Illustrator 26.0.1, SVG Export Plug-In . SVG Version: 6.00 Build 0)  -->
<svg version="1.1" id="Calque_9" xmlns="http://www.w3.org/2000/svg" xmlns:xlink="http://www.w3.org/1999/xlink" x="0px" y="0px"
	 viewBox="0 0 138.7 158.1" style="enable-background:new 0 0 138.7 158.1;" xml:space="preserve">
<style type="text/css">
	.st0{fill:#90573A;}
	.st1{fill:#6F412A;}
	.st2{fill:#231713;}
</style>
<path class="st0" d="M111.5,68.4c0,46-27.4,79-43.3,79c-15.8,0-43.3-33-43.3-79c0-34.4,19.4-45.6,43.3-45.6
	C92.1,22.7,111.5,33.9,111.5,68.4z"/>
<path class="st1" d="M102.9,110.9l6.8-22.8c0,0,9.2-9.9,14.9-4.2c3.8,3.8-5.1,29-10,30C106.3,115.7,102.9,110.9,102.9,110.9z"/>
<path class="st1" d="M36.5,110.9l-8.2-24.5c0,0-7.9-8.1-13.6-2.5c-3.8,3.8,5.1,29,10,30C33,115.7,36.5,110.9,36.5,110.9z"/>
<path class="st2" d="M30.1,97.4L22,88.1c0,0-7.8-12.4-7.8-25c0-16,28.2-43.5,44-46.4c4.3-0.8,8.8,0.5,12.1,3.4
	c0,0,18.1-0.6,23.6,1.7c24.7,10.6,29.7,28,29,39.7c-0.7,8.7-2.8,17.3-6.3,25.3l-9,3.1l-0.5-19.2l-12.1-9c0,0-6.5-11-6.2-11
	s2.3,9.9,2.3,9.9s-10.9,0.6-13.8-1.3c-2.1-1.4-5-8.9-5-8.9s-8.9,7.6-11.9,9.4c-3.5,2.1-11.1,2.8-11.1,2.8l1.3-12.8l-9.9,13.3l-11,9
	L30.1,97.4z"/>
</svg>
