<?xml version="1.0" encoding="utf-8"?>
<!-- Generator: Adobe Illustrator 26.0.3, SVG Export Plug-In . SVG Version: 6.00 Build 0)  -->
<svg version="1.1" id="Layer_1" xmlns="http://www.w3.org/2000/svg" xmlns:xlink="http://www.w3.org/1999/xlink" x="0px" y="0px"
	 viewBox="0 0 488 480.5" style="enable-background:new 0 0 488 480.5;" xml:space="preserve">
<style type="text/css">
	.st0{fill:#475741;}
	.st1{fill:#D68F72;}
	.st2{fill:#423632;}
	.st3{fill:#E0B9A0;}
	.st4{fill:#E8E0BF;}
	.st5{fill:#2E858E;}
</style>
<g id="Calque_9">
	<path class="st0" d="M312,268c0.8,11-4.9,20.4-13.2,22.1l0,0c-8,1.6-23.5-20.9-26.8-30.8c0,0-21.8-70.6-26.8-96.5
		c-1.2-6.1-2.9-24.8-2.9-24.8l-3.9-43.5c0,0-1-20.7,15.1-26.1c18.5-6.3,28.8,1.5,28.8,1.5s10.9,72.1,14.6,93.6
		C300.3,183.5,312,268,312,268z"/>
	<path class="st1" d="M183.7,242.2c-9.2,0.2-14.6,5.3-16,13.4c0,0-1.5,36.4-1.7,51.7c-0.4,24.6,2.5,74.7,6.5,99
		c0.9,5.3,2.8,21.3,2.8,21.3c0.5,4.6,4.4,8.1,9,8l0,0c4.6-0.4,8.1-4.1,8.2-8.7c0,0,0.8-18.5,1.4-24.7c2.2-22.3,4.7-74,5.2-96.5
		c0.3-13.5,2.5-47.3,2.5-47.3C200.6,245,191.6,242.3,183.7,242.2L183.7,242.2z"/>
	<path class="st1" d="M296.2,251.1c9.1-1.3,5.2-18.6,7.8-10.6c0,0,10.3,115.8,12.7,131.2c3.8,24.6,7.4,47.5,7.4,47.5
		c0.1,4.9,4.5,10.5,0,11.1l-8.5-1.3c-4.4,0.5-9.8-1.5-10.7-6.2c-15.7-77.2-16.3-76.9-22.8-116.9c-2.2-13.5-8.5-51.9-8.5-51.9
		C272.7,240.2,288.5,252.6,296.2,251.1z"/>
	<path class="st2" d="M181.9,419.2L181.9,419.2c-4.2,0.2-8,2.8-9.6,6.6l0,0c-4,8.9-20.8,20.9-20.8,20.9c-3,2.6-4.5,6.6-3.8,10.6l0,0
		l41.1-0.2l2.3-0.7c2.7-1,4.4-3.6,4.1-6.5l-2.4-21.7C191.8,422.9,187.2,419.2,181.9,419.2z"/>
	<path class="st2" d="M314,424.5c4.2-2.1,3.8-6.1,5.4-8.4c1-1.4,5.2-3.1,5.9-1.4c8.1,19.2,42.8,28.4,42.8,28.4
		c3.8,3.1,4.8,7.6,4.3,12.5l0,0c0,0-28.4,8.2-45.7,0.5c-3.5-1.5-11.3-2.8-11.3-2.8s-14.5,0.6-13.9-5.4l1.2-26.7
		C303.5,414.6,306.8,428.1,314,424.5z"/>
</g>
<path class="st0" d="M312,268c0.8,11-4.9,20.4-13.2,22.1l0,0c-8,1.6-23.5-20.9-26.8-30.8c0,0-21.8-70.6-26.8-96.5
	c-1.2-6.1-2.9-24.8-2.9-24.8l-3.9-43.5c0,0-1-20.7,15.1-26.1c18.5-6.3,28.8,1.5,28.8,1.5s10.9,72.1,14.6,93.6
	C300.3,183.5,312,268,312,268z"/>
<path class="st3" d="M183.7,242.2c-9.2,0.2-14.6,5.3-16,13.4c0,0-1.5,36.4-1.7,51.7c-0.4,24.6,2.5,74.7,6.5,99
	c0.9,5.3,2.8,21.3,2.8,21.3c0.5,4.6,4.4,8.1,9,8l0,0c4.6-0.4,8.1-4.1,8.2-8.7c0,0,0.8-18.5,1.4-24.7c2.2-22.3,4.7-74,5.2-96.5
	c0.3-13.5,2.5-47.3,2.5-47.3C200.6,245,191.6,242.3,183.7,242.2L183.7,242.2z"/>
<path class="st3" d="M296.2,251.1c9.1-1.3,5.2-18.6,7.8-10.6c0,0,10.3,115.8,12.7,131.2c3.8,24.6,7.4,47.5,7.4,47.5
	c0.1,4.9,4.5,10.5,0,11.1l-8.5-1.3c-4.4,0.5-9.8-1.5-10.7-6.2c-15.7-77.2-16.3-76.9-22.8-116.9c-2.2-13.5-8.5-51.9-8.5-51.9
	C272.7,240.2,288.5,252.6,296.2,251.1z"/>
<path class="st4" d="M181.9,419.2L181.9,419.2c-4.2,0.2-8,2.8-9.6,6.6l0,0c-4,8.9-20.8,20.9-20.8,20.9c-3,2.6-4.5,6.6-3.8,10.6l0,0
	l41.1-0.2l2.3-0.7c2.7-1,4.4-3.6,4.1-6.5l-2.4-21.7C191.8,422.9,187.2,419.2,181.9,419.2z"/>
<path class="st4" d="M314,424.5c4.2-2.1,3.8-6.1,5.4-8.4c1-1.4,5.2-3.1,5.9-1.4c8.1,19.2,42.8,28.4,42.8,28.4
	c3.8,3.1,4.8,7.6,4.3,12.5l0,0c0,0-28.4,8.2-45.7,0.5c-3.5-1.5-11.3-2.8-11.3-2.8s-14.5,0.6-13.9-5.4l1.2-26.7
	C303.5,414.6,306.8,428.1,314,424.5z"/>
<path class="st5" d="M195.7,397.5c1.7-0.1,3.1-1.4,3.2-3.1c1.8-29.1,21.8-258,21.8-258l0,0c0,0,37.3,115.2,40.6,123.7
	c3.1,7.9,9.4,122.7,10.2,137.7c0,0.9,0.8,1.6,1.7,1.6h25.9c0.1,0,0.1,0,0.2,0l27.3-3.1c0.9-0.1,1.6-1,1.5-1.9l-14.6-123.7l-1.4-12.8
	L282.3,70l-3.1-26.8c-1.4-12.4-11.5-21.9-23.9-22.7L196.9,17c-13.5-0.8-25.3,9-27,22.4c-3.5,28.6-9,74.2-9.3,87.1
	c-1.3,56.3-10.2,241.1-11.5,269.3c-0.1,1.9,1.5,3.5,3.4,3.5L195.7,397.5z"/>
</svg>
