<?xml version="1.0" encoding="utf-8"?>
<!-- Generator: Adobe Illustrator 26.0.3, SVG Export Plug-In . SVG Version: 6.00 Build 0)  -->
<svg version="1.1" id="Calque_9" xmlns="http://www.w3.org/2000/svg" xmlns:xlink="http://www.w3.org/1999/xlink" x="0px" y="0px"
	 viewBox="0 0 488 480.5" style="enable-background:new 0 0 488 480.5;" xml:space="preserve">
<style type="text/css">
	.st0{fill:#FF931E;}
	.st1{fill:#FD8C75;}
	.st2{fill:#22677C;}
	.st3{fill:#4E6566;}
	.st4{fill:none;stroke:#4E6566;stroke-width:2;stroke-linecap:round;stroke-miterlimit:10;}
	.st5{fill:#293C51;}
	.st6{fill:#314A60;}
</style>
<path class="st0" d="M173.6,258.3c1.2,10.8,8.4,19,16.7,19.2l0,0c8,0.2,14.9-7,16.4-17.2c0,0,8.7-72.6,8.9-98.6
	c0-6.1-1.6-24.6-1.6-24.6l-3.9-43c0,0-2.8-20.3-19.3-22.7c-19.1-2.9-19.4,10.4-19.4,10.4s-6.1,68.2-5.9,89.9
	C165.8,191.5,173.6,258.3,173.6,258.3z"/>
<path class="st0" d="M309.9,250.3c0.8,10.9-4.8,20.2-13.1,21.9l0,0c-7.9,1.6-15.9-4.3-19.2-14c0,0-21.6-69.8-26.5-95.4
	c-1.2-6-2.9-24.5-2.9-24.5l-3.9-43c0,0-1-20.5,14.9-25.8c18.3-6.2,21,6.7,21,6.7s18.3,66.1,22,87.3
	C305.7,183.1,309.9,250.3,309.9,250.3z"/>
<path class="st1" d="M190.3,241.2c-9.1,0.2-14.4,5.2-15.8,13.3c0,0-1.5,36-1.7,51.1c-0.4,24.3,2.5,73.9,6.4,97.9
	c0.9,5.2,2.8,21.1,2.8,21.1c0.5,4.5,4.4,8,8.9,7.9l0,0c4.5-0.4,8-4.1,8.1-8.6c0,0,0.8-18.3,1.4-24.4c2.2-22.1,9.4-65.9,9.9-88
	c0.3-13.3-2.3-54.2-2.3-54.2C207,243.8,198.1,241.3,190.3,241.2L190.3,241.2z"/>
<path class="st1" d="M294.3,233.6c9-1.3,14.9,2.9,17.5,10.7c0,0,7.4,33.9,9.8,49.1c3.8,24.3,3.4,120.6,3.4,120.6
	c0.1,4.8,0.2,11.3-4.2,11.8l0,0c-4.4,0.5-9.7-1.5-10.6-6.1c0,0-22-90-25.6-112.1c-2.2-13.3-5.4-54.8-5.4-54.8
	C278.3,239.2,286.7,235,294.3,233.6L294.3,233.6z"/>
<path class="st2" d="M188.6,416.2L188.6,416.2c-4.2,0.2-7.9,2.8-9.5,6.5l0,0c-4,8.8-20.6,20.7-20.6,20.7c-3,2.6-4.4,6.5-3.8,10.5
	l0,0l40.6-0.2l2.3-0.7c2.7-1,4.4-3.6,4.1-6.4l-2.4-21.5C198.4,419.9,193.8,416.2,188.6,416.2z"/>
<path class="st3" d="M155.9,453.7L155.9,453.7c-0.6-3.5,1.7-6.7,5-7.4l24.1-3.9c3.2-0.4,6.1,1.7,6.8,4.8l1.4,6.1L155.9,453.7z"/>
<path class="st4" d="M180.1,424.7c0,0,3.2-2.5,5.9-2.6c2.4,0.1,4.7,0.8,6.7,2.1"/>
<path class="st4" d="M177.2,429.4c0,0,3.2-2.4,6-2.4c2.4,0.1,4.7,0.9,6.7,2.2"/>
<path class="st2" d="M319.2,421.4c4.2-2.1,3.8-6,5.3-8.3c1-1.4,5.1-3.1,5.8-1.4c8,19,42.3,28.1,42.3,28.1c3.8,3.1,4.7,7.5,4.3,12.4
	l0,0c0,0-29.5,10.9-45.2,0.5c-3.2-2.1-11.2-2.8-11.2-2.8s-14.3,0.6-13.7-5.3l1.2-26.4C308.8,411.6,312,425,319.2,421.4z"/>
<path class="st3" d="M377.3,452c0.2-7.7-3.5-12.4-4.5-12.2c-1.7,0.4-4.3,2.3-5.9,2.8c-2.7,0.7-10.7,0.3-10.7,0.3
	c-2.1-0.2-3.7,2.6-3.7,6.2l0.2,7.4c0,0,4.9,0.6,16.4-2.3C371,453.9,377.3,452,377.3,452z"/>
<path class="st5" d="M330.4,265.3c-0.8-33.1-38.6-220.3-38.6-220.4l-0.4-5.9c-0.7-8.8-8-15.6-16.8-15.6h-80.7
	c-8.6,0-15.9,6.5-16.8,15.1l-1,9.7h-0.7c0,0-22,192.1-21.2,214.8c0.8,22.6,11,159,11,159h38.3c0,0,13.7-150.2,13.7-169.6
	s16.2-146.9,16.2-146.9s33.9,146,36.3,165.2c2.4,20,31.1,147.2,31.1,147.2l36.8-6.6C337.5,411.3,331.2,298.4,330.4,265.3z"/>
<path class="st5" d="M203.7,426.4h-37.9c-1.5,0-2.7-1.2-2.7-2.7V421c0-1.5,1.2-2.7,2.7-2.7h37.9c1.5,0,2.7,1.2,2.7,2.7v2.7
	C206.5,425.3,205.3,426.4,203.7,426.4z"/>
<path class="st6" d="M205.8,422.4h-41.2c-1.5,0-2.7-1.2-2.7-2.7V416c0-1.5,1.2-2.7,2.7-2.7h41.2c1.5,0,2.7,1.2,2.7,2.7v3.8
	C208.5,421.2,207.2,422.4,205.8,422.4z"/>
<path class="st5" d="M336.4,419.3l-32,5.4c-1.4,0.2-2.9-0.8-3.1-2.2l-0.4-2.7c-0.2-1.4,0.8-2.9,2.2-3.1l32-5.4
	c1.4-0.2,2.9,0.8,3.1,2.2l0.4,2.7C338.8,417.6,337.8,419,336.4,419.3z"/>
<path class="st6" d="M337.4,415l-34.9,5.9c-1.4,0.2-2.9-0.8-3.1-2.2l-0.6-3.8c-0.2-1.4,0.8-2.9,2.2-3.1l34.9-5.9
	c1.4-0.2,2.9,0.8,3.1,2.2l0.6,3.8C339.9,413.4,338.9,414.8,337.4,415z"/>
</svg>
