<?xml version="1.0" encoding="utf-8"?>
<!-- Generator: Adobe Illustrator 26.0.3, SVG Export Plug-In . SVG Version: 6.00 Build 0)  -->
<svg version="1.1" id="Calque_9" xmlns="http://www.w3.org/2000/svg" xmlns:xlink="http://www.w3.org/1999/xlink" x="0px" y="0px"
	 viewBox="0 0 488 480.5" style="enable-background:new 0 0 488 480.5;" xml:space="preserve">
<style type="text/css">
	.st0{fill:#87B6C7;}
	.st1{fill:#E0B9A0;}
	.st2{fill:#B22947;}
	.st3{fill:#6D1B30;}
	.st4{fill:none;stroke:#0F2033;stroke-width:2;stroke-linecap:round;stroke-miterlimit:10;}
	.st5{fill:#0F2033;}
</style>
<path class="st0" d="M167.6,254c1.2,10.9,8.5,19.2,16.9,19.4l0,0c8.1,0.2,15.1-7.1,16.6-17.4c0,0,8.8-73.4,9-99.7
	c0-6.2-1.6-24.9-1.6-24.9l-3.9-43.5c0,0-2.8-20.5-19.5-23c-19.3-2.9-19.6,10.5-19.6,10.5s-6.2,69-6,90.9
	C159.7,186.5,167.6,254,167.6,254z"/>
<path class="st0" d="M305.4,245.9c0.8,11-4.9,20.4-13.2,22.1l0,0c-8,1.6-16.1-4.3-19.4-14.2c0,0-21.8-70.6-26.8-96.5
	c-1.2-6.1-2.9-24.8-2.9-24.8L239.2,89c0,0-1-20.7,15.1-26.1c18.5-6.3,21.2,6.8,21.2,6.8s18.5,66.8,22.2,88.3
	C301.1,178,305.4,245.9,305.4,245.9z"/>
<path class="st1" d="M184.4,236.7c-9.2,0.2-14.6,5.3-16,13.4c0,0-1.5,36.4-1.7,51.7c-0.4,24.6,2.5,74.7,6.5,99
	c0.9,5.3,2.8,21.3,2.8,21.3c0.5,4.6,4.4,8.1,9,8l0,0c4.6-0.4,8.1-4.1,8.2-8.7c0,0,0.8-18.5,1.4-24.7c2.2-22.3,9.5-66.6,10-89
	c0.3-13.5-2.3-54.8-2.3-54.8C201.3,239.4,192.3,236.8,184.4,236.7L184.4,236.7z"/>
<path class="st1" d="M289.6,229c9.1-1.3,15.1,2.9,17.7,10.8c0,0,7.5,34.3,9.9,49.7c3.8,24.6,3.4,122,3.4,122
	c0.1,4.9,0.2,11.4-4.2,11.9l0,0c-4.4,0.5-9.8-1.5-10.7-6.2c0,0-22.2-91-25.9-113.4c-2.2-13.5-5.5-55.4-5.5-55.4
	C273.4,234.7,281.9,230.5,289.6,229L289.6,229z"/>
<path class="st2" d="M182.7,413.7L182.7,413.7c-4.2,0.2-8,2.8-9.6,6.6l0,0c-4,8.9-20.8,20.9-20.8,20.9c-3,2.6-4.5,6.6-3.8,10.6l0,0
	l41.1-0.2l2.3-0.7c2.7-1,4.4-3.6,4.1-6.5l-2.4-21.7C192.6,417.4,188,413.7,182.7,413.7z"/>
<path class="st3" d="M149.7,451.6L149.7,451.6c-0.6-3.5,1.7-6.8,5.1-7.5l24.4-3.9c3.2-0.4,6.2,1.7,6.9,4.9l1.4,6.2L149.7,451.6z"/>
<path class="st4" d="M174.1,422.3c0,0,3.2-2.5,6-2.6c2.4,0.1,4.8,0.8,6.8,2.1"/>
<path class="st4" d="M171.2,427.1c0,0,3.2-2.4,6.1-2.4c2.4,0.1,4.8,0.9,6.8,2.2"/>
<path class="st2" d="M314.8,419c4.2-2.1,3.8-6.1,5.4-8.4c1-1.4,5.2-3.1,5.9-1.4c8.1,19.2,42.8,28.4,42.8,28.4
	c3.8,3.1,4.8,7.6,4.3,12.5l0,0c0,0-29.8,11-45.7,0.5c-3.2-2.1-11.3-2.8-11.3-2.8s-14.5,0.6-13.9-5.4l1.2-26.7
	C304.3,409.1,307.5,422.6,314.8,419z"/>
<path class="st3" d="M373.5,449.9c0.2-7.8-3.5-12.5-4.6-12.3c-1.7,0.4-4.3,2.3-6,2.8c-2.7,0.7-10.8,0.3-10.8,0.3
	c-2.1-0.2-3.7,2.6-3.7,6.3l0.2,7.5c0,0,5,0.6,16.6-2.3C367.2,451.8,373.5,449.9,373.5,449.9z"/>
<path class="st4" d="M333,418.9c-1.9,1.1-3.9,1.8-6,2.2"/>
<path class="st4" d="M337.1,423c-1.8,1.2-3.8,2.1-5.9,2.7"/>
<path class="st5" d="M159.8,95c-3.2,24.9-13.5,293.1-9.3,293.1s58.1,13.1,60.5,11.1c6.5-5.4,26.2-260,26.2-260l4.3-119.1
	c0,0-66.5-0.4-70.8,11.3C170.7,31.5,162.2,76.4,159.8,95z"/>
<path class="st5" d="M290,54.7c3.2,5.1,38.5,328.3,34.2,328.6s-56.9,16.7-59.6,15.2c-9.9-5.4-38.8-258.1-38.8-258.1l-2-119.5
	l39.6-1.6c9.7-0.4,18.4,5.9,21,15.3L290,54.7z"/>
</svg>
