<?xml version="1.0" encoding="utf-8"?>
<!-- Generator: Adobe Illustrator 26.0.1, SVG Export Plug-In . SVG Version: 6.00 Build 0)  -->
<svg version="1.1" id="Calque_1" xmlns="http://www.w3.org/2000/svg" xmlns:xlink="http://www.w3.org/1999/xlink" x="0px" y="0px"
	 viewBox="0 0 218.7 230.3" style="enable-background:new 0 0 218.7 230.3;" xml:space="preserve">
<style type="text/css">
	.st0{fill:#FFFFFF;}
	.st1{fill:#94B0BF;}
	.st2{fill:#D68F72;}
	.st3{fill:#83B5C6;}
	.st4{fill:#87B6C7;}
	.st5{fill:#97B2C1;}
	.st6{fill:none;stroke:#6699AA;stroke-width:2;stroke-linecap:round;stroke-miterlimit:10;}
</style>
<g id="Calque_9">
	<path class="st0" d="M22.1,121.1c1.3,5.9,9,10.3,18.1,10.4l0,0c8.7,0.1,16.1-3.8,17.7-9.3c0,0,9.4-39.3,9.6-53.4
		c0-3.3-1.7-13.3-1.7-13.3l-4.2-23.3c0,0-2.9-11-20.8-12.3c-20.6-1.6-21,5.6-21,5.6s-6.6,37-6.4,48.7
		C13.6,84.9,22.1,121.1,22.1,121.1z"/>
	<path class="st1" d="M163.2,117.3c0.5,5.9-5.8,10.8-14.7,11.6l0,0c-8.5,0.8-17-2.5-20.3-7.9c0,0-21.2-38.1-25.7-52.1
		c-1.1-3.3-2.4-13.3-2.4-13.3l-2.9-23.3c0,0-0.4-11.1,16.9-13.8c19.9-3.1,22.5,4,22.5,4s17.7,36,21,47.6
		C160.5,80.9,163.2,117.3,163.2,117.3z"/>
	<path class="st2" d="M40.1,111.8c-9.8,0.1-15.6,2.8-17.1,7.2c0,0-1.6,19.5-1.8,27.7c-0.4,13.2,2.6,40,6.9,53c0.9,2.8,3,11.4,3,11.4
		c0.7,2.6,4.9,4.4,9.6,4.3l0,0c4.7-0.1,8.5-2.1,8.8-4.6c0,0,0.9-9.9,1.5-13.2c2.4-11.9,10.1-35.7,10.7-47.7
		c0.3-7.2-2.5-29.3-2.5-29.3C58.2,113.3,48.6,111.8,40.1,111.8L40.1,111.8z"/>
	<path class="st2" d="M146.8,108.1c9.8-0.6,16.1,1.8,18.5,6l0,0c3.4,13.2,9.1,92.1,9.1,92.1c-0.1,2.6-0.1,6.1-4.9,6.3l0,0
		c-4.7,0.2-10.4-0.9-11.2-3.5c0,0-21-49-24.3-61.1c-2-7.3-4.2-29.8-4.2-29.8C129.3,110.8,138.5,108.7,146.8,108.1L146.8,108.1z"/>
	<path class="st3" d="M40.4,206.6L40.4,206.6c-4.4,0-8.4,1.4-10.3,3.5l0,0c-4.2,4.8-14,14-14,14c-3.2,1.3-2.3,3.8-1.5,6l0,0
		l33.1-0.1l2.5-0.4c2.8-0.5,4.7-1.9,4.4-3.5l-2.5-14.8C50.8,208.5,45.9,206.5,40.4,206.6z"/>
	<path class="st4" d="M168.6,210.3c4.6-1.1,7-6.5,7.5-5.4c3.3,8,34.6,12.9,34.6,12.9c3.9,1.7,8.5,10,7.9,12.5l0,0
		c-4.7-0.5-48,0-48,0s-15.5,0.1-14.7-3.1l0.7-18.9C157.8,204.9,160.8,212.2,168.6,210.3z"/>
	<path class="st5" d="M25.3,0c-0.9,0-6.4,16.6-6.4,16.6L0,126.1l71.6-4.5l9-71.1l26.1,70.7l77.7-3.8c-0.6-3.7-38.3-99.6-38.3-99.6
		l-4.6-16.5L25.3,0L25.3,0"/>
	<path class="st6" d="M31.2,211.2c2.1-0.8,4.2-1.3,6.4-1.4c2.5,0,4.9,0.4,7.3,1.1"/>
	<path class="st6" d="M28.1,213.8c2.1-0.8,4.3-1.2,6.5-1.3c2.5,0,4.9,0.5,7.2,1.2"/>
</g>
</svg>
