<?xml version="1.0" encoding="utf-8"?>
<!-- Generator: Adobe Illustrator 26.0.1, SVG Export Plug-In . SVG Version: 6.00 Build 0)  -->
<svg version="1.1" id="Calque_1" xmlns="http://www.w3.org/2000/svg" xmlns:xlink="http://www.w3.org/1999/xlink" x="0px" y="0px"
	 viewBox="0 0 788 1005" style="enable-background:new 0 0 788 1005;" xml:space="preserve">
<style type="text/css">
	.st0{fill:#F2AA56;}
	.st1{fill:#9E6754;}
	.st2{fill:#C67870;}
	.st3{fill:#43516D;}
	.st4{fill:none;stroke:#43516D;stroke-miterlimit:10;}
	.st5{fill:#44413D;}
</style>
<g id="Calque_9">
	<path class="st0" d="M338,716.1c1.3,5.9,9,10.3,18.1,10.4l0,0c8.7,0.1,16.1-3.8,17.7-9.3c0,0,9.4-39.3,9.6-53.4
		c0-3.3-1.7-13.3-1.7-13.3l-4.2-23.3c0,0-2.9-11-20.9-12.3c-20.6-1.6-21,5.6-21,5.6s-6.6,37-6.4,48.7
		C329.5,679.9,338,716.1,338,716.1z"/>
	<path class="st1" d="M356,706.8c-9.8,0.1-15.6,2.8-17.1,7.2c0,0-1.6,19.5-1.8,27.7c-0.4,13.2,2.6,40,6.9,53
		c0.9,2.8,2.9,11.4,2.9,11.4c0.7,2.5,4.9,4.4,9.7,4.3l0,0c4.7-0.1,8.5-2.1,8.8-4.6c0,0,0.9-9.9,1.5-13.2
		c2.4-11.9,10.1-35.7,10.7-47.7c0.3-7.2-2.5-29.3-2.5-29.3C374,708.3,364.4,706.8,356,706.8L356,706.8z"/>
	<path class="st1" d="M462.7,703c9.8-0.6,7.7-4.4,10.2-0.1c0,0,4.1,15.2,6.2,23.5c3.4,13.2,11.2,74.8,11.2,74.8
		c-0.1,2.6-0.1,6.1-4.9,6.3l0,0c-4.7,0.2-10.4-0.9-11.2-3.5c0,0-21-49-24.3-61.1c-2-7.3-4.2-29.8-4.2-29.8
		C445.1,705.8,454.3,703.7,462.7,703L462.7,703z"/>
	<path class="st2" d="M356.3,801.6L356.3,801.6c-4.4,0.1-8.4,1.4-10.3,3.6l0,0c-4.3,4.8-22.2,11.2-22.2,11.2c-3.2,1.3-4.8,3.5-4,5.7
		l0,0l43.9-0.1l2.5-0.4c2.8-0.5,4.7-1.9,4.4-3.5l-2.5-11.6C366.7,803.5,361.8,801.5,356.3,801.6z"/>
	<path class="st3" d="M321,821.9L321,821.9c-0.6-1.9,1.9-3.7,5.5-4l26.1-2.1c3.4-0.3,6.5,0.9,7.3,2.6l1.5,3.3L321,821.9z"/>
	<path class="st4" d="M347,806.2c2.1-0.8,4.2-1.3,6.4-1.4c2.5,0,4.9,0.4,7.3,1.1"/>
	<path class="st4" d="M343.9,808.8c2.1-0.8,4.3-1.2,6.5-1.3c2.5,0,4.9,0.5,7.2,1.2"/>
	<path class="st2" d="M482.8,807.1c3.9-1.1,3.5-3.2,5.1-4.4c0.9-0.7,4.8-1.5,5.4-0.7c6.8,10.4,37.9,15.8,37.9,15.8
		c3.3,1.7,4.1,4.2,3.6,6.7l0,0c0,0-27.1,5.4-41.2-0.4c-2.8-1.2-10.1-1.7-10.1-1.7s-13.1,0.1-12.4-3.1l1.7-14.3
		C473.6,801.6,476.2,808.9,482.8,807.1z"/>
	<path class="st3" d="M535.1,824.5c0.4-4.2-2.8-6.8-3.8-6.6c-1.5,0.2-4,1.2-5.5,1.4c-3.3,0.2-6.5,0.2-9.8,0
		c-1.8-0.1-3.4,1.3-3.5,3.2c0,0.1,0,0.1,0,0.2v4c0,0,4.5,0.4,15.1-1C529.3,825.5,535.1,824.5,535.1,824.5z"/>
	<path class="st4" d="M496.8,807c-2.1,0.6-4.3,0.9-6.5,1.1"/>
	<path class="st4" d="M502.1,809.7c-2.1,0.7-4.2,1.1-6.4,1.3"/>
	<path class="st5" d="M370.7,792.6L370.7,792.6c-0.5-2.3,21.3-147.1,21.3-147.1h12.4c0,0,26.6,72.6,28.1,78.2
		c3,10.7,21.5,66.3,21.5,66.3s39-0.7,40.5,1.3s0.1-14.1,0.1-14.1l-24.9-106.7l-9.4-44.3L450.1,592c0,0-113-6.8-113-1
		s-5.7,16.8-7,22.5c-3.6,15.5-4,47.8-3.7,63.7c0.5,29.5,4.1,118,4.1,118L370.7,792.6"/>
	<polygon class="st3" points="375.9,795.2 327.3,796.4 325.4,784.3 374.1,783.2 	"/>
	<polygon class="st3" points="503,791.3 448,793.2 445.7,779 500.7,777 	"/>
</g>
</svg>
