<?xml version="1.0" encoding="utf-8"?>
<!-- Generator: Adobe Illustrator 26.0.1, SVG Export Plug-In . SVG Version: 6.00 Build 0)  -->
<svg version="1.1" id="Calque_1" xmlns="http://www.w3.org/2000/svg" xmlns:xlink="http://www.w3.org/1999/xlink" x="0px" y="0px"
	 viewBox="0 0 220.9 288.4" style="enable-background:new 0 0 220.9 288.4;" xml:space="preserve">
<style type="text/css">
	.st0{fill:#83443B;}
	.st1{fill:#83B5C6;}
	.st2{fill:#6999AA;}
	.st3{fill:#87B6C7;}
</style>
<g id="Calque_9">
	<path class="st0" d="M149.3,154.3c0.5,7-5.4,13-13.8,13.9l0,0c-8,0.9-16-3.1-19-9.4c0,0-19.9-45.6-24.1-62.3
		c-1-4-2.2-15.9-2.2-15.9l-2.8-27.9c0,0-0.4-13.2,15.8-16.5c18.6-3.7,21,4.7,21,4.7s16.6,43.1,19.7,57
		C146.9,110.7,149.3,154.3,149.3,154.3z"/>
	<path class="st0" d="M34.1,147.7c-9.2,0.1-14.6,3.4-16,8.6c0,0-1.5,23.3-1.7,33.2c-0.4,15.8,2.5,47.9,6.5,63.4
		c0.9,3.4,2.8,13.7,2.8,13.7c0.6,3.1,4.5,5.3,9,5.2l0,0c4.4-0.1,8-2.5,8.2-5.5c0,0,0.8-11.9,1.4-15.8c2.2-14.3,9.5-42.7,10-57
		c0.3-8.7-2.3-35.1-2.3-35.1C51,149.5,42,147.8,34.1,147.7L34.1,147.7z"/>
	<path class="st0" d="M144.3,149.2c9-1.9,15.2,0.2,18.1,5c0,0,9.3,21.1,12.5,30.7c5.1,15.3,10,77.6,10,77.6c0.3,3.1,0.9,7.2-3.5,8.1
		l0,0c-4.3,0.8-9.8,0.1-11-2.8c0,0-27-55.7-31.9-69.6c-2.9-8.4-8.4-34.8-8.4-34.8C128.4,154.7,136.6,151,144.3,149.2L144.3,149.2z"
		/>
	<path class="st1" d="M34.4,261.2L34.4,261.2c-4.1,0.1-7.9,1.7-9.6,4.3l0,0c-4,5.7-20.8,13.4-20.8,13.4c-3,1.6-4.5,4.2-3.8,6.8l0,0
		l41.1-0.2l2.3-0.5c2.6-0.5,4.4-2.3,4.1-4.2l-2.4-13.9C44.1,263.5,39.6,261.1,34.4,261.2z"/>
	<path class="st2" d="M1.3,285.5L1.3,285.5c-0.6-2.3,1.8-4.5,5.1-4.8l24.4-2.5c3.1-0.3,6.1,1,6.9,3.2l1.4,4L1.3,285.5z"/>
	<path class="st3" d="M176.5,265.5c3.7-1.1,3.4-3.3,4.8-4.6c0.9-0.8,4.5-1.6,5.1-0.7c6.5,10.7,31,19.1,31,19.1
		c3.2,1.8,3.9,4.3,3.4,7l0,0c0,0-19.3,5.2-32.7-0.8c-2.7-1.2-9.7-1.7-9.7-1.7s-12.5,0.1-11.8-3.2l0.2-17.1
		C167.8,259.9,170.2,267.4,176.5,265.5z"/>
	<path class="st0" d="M19.5,0c0,0,8.2,10,0.7,10S9.1,258.9,9.1,258.9s20,7.3,40.8,0C62.2,254.6,74.5,121,86.7,115
		c10.8-5.3,56.5,142.7,68.8,139.9c33-7.4,31.6-7.5,31.6-7.5c0-41.6-50.5-210.4-49.5-205.9l-15.4-31.4l1.9-8.1L20.9,0.2"/>
</g>
</svg>
