<svg xmlns="http://www.w3.org/2000/svg" viewBox="0 0 788 683.02"><defs><style>.cls-1{fill:#3a84e7;}.cls-2{fill:#3a4649;}.cls-3{fill:#172f35;}.cls-4{fill:#3b76c3;}.cls-5{fill:#d79072;}.cls-6{fill:#5d85c8;}</style></defs><g id="Calque_7" data-name="Calque 7"><polygon points="230.22 157.56 230.32 157.52 230.22 157.47 230.22 157.56"/><polygon points="230.32 157.52 230.42 157.56 230.42 157.47 230.32 157.52"/><polygon points="230.22 157.56 230.32 157.52 230.22 157.47 230.22 157.56"/><polygon points="230.32 157.52 230.42 157.56 230.42 157.47 230.32 157.52"/><path class="cls-1" d="M323.12,326.69c1,13.37,10.33,23.8,21.81,24.45h0c11,.62,20.78-7.9,23.43-20.34,0,0,16.15-88.82,17.95-120.84.42-7.58-.7-30.37-.7-30.37l-2.82-53.06s-2.54-25.07-25.08-29c-26-4.53-27.19,11.76-27.19,11.76S317.75,188.2,316.78,214.8C315.89,239.31,323.12,326.69,323.12,326.69Z"/><path class="cls-2" d="M326.26,562.82h0A16.05,16.05,0,0,0,312.14,572h0c-5.84,12.35-30.55,28.88-30.55,28.88A15.12,15.12,0,0,0,276,615.48h0l60.27-.33,3.39-1a8.54,8.54,0,0,0,6-9l-3.46-29.95A16,16,0,0,0,326.26,562.82Z"/><path class="cls-3" d="M277.77,615.18h0a9,9,0,0,1,7.52-10.36l35.85-5.41a9,9,0,0,1,10.07,6.77l2.06,8.5Z"/><path class="cls-4" d="M442.69,69.49c18.23,5.23,20.48,7.88,24.81,14.82,3.51,5.61,12.22,26,12.48,32.37.61,15.07-8.47,47.22-24.44,59.86-16.25,12.85-95.65,12.85-111.9,0-16-12.64-27.55-49.42-26.93-64.49.26-6.42,5.76-20.38,9.27-26,4.34-6.94,12.28-11.34,30.51-16.57,20.85-6,42.06-5,42.06-5S421.84,63.52,442.69,69.49Z"/><path class="cls-4" d="M475.65,326.69a26.83,26.83,0,0,1-25.44,24.45h0a26.83,26.83,0,0,1-27.34-20.34S404,242,401.92,210c-.52-7.91,4.1-83.43,4.1-83.43s-2.83-22.42,29.27-29C463.9,91.67,467,109.29,467,109.29s14.9,77.91,16,104.51C484.09,238.31,475.65,326.69,475.65,326.69Z"/><path class="cls-5" d="M475.57,559c-1.21,34,40.06,38.38,40.06,38.38,4.42,3.46-67,21.83-66.62,17.79,0,0,1.45-52-1-65.2C446.21,540.66,476.28,539,475.57,559Z"/><path class="cls-2" d="M464.22,577.83c6.38-2.18,5.93-6.81,8.47-9.36,1.53-1.54,7.86-3.19,8.79-1.22,10.68,22.66,61.16,35.37,61.16,35.37,5.36,3.81,6.56,9.09,5.55,14.62h0s-26.55,13.5-66,3.8c-5.11-1.26-10.76-2.07-10.76-2.07s-25.39,3.3-24.13-3.49l.44-42.27C449.46,565.82,453.27,581.57,464.22,577.83Z"/><path class="cls-3" d="M547.19,617.69c.85-9-4.26-14.66-6-14.44-2.5.32-6.51,2.39-9,2.82-4,.69-13.36,2.75-13.36,2.75-3.07-.32-5.62,2.76-5.86,7.09l-.2,8.64s3.14.07,20.46-2.52C536.13,621.6,547.19,617.69,547.19,617.69Z"/><path class="cls-4" d="M317.4,109.51l-2.17,20.6L305.08,542.05l5.69,31.43C317.13,569.1,347.4,562,347.4,562s19.71-126.71,22.48-160.48c1.61-19.63,3.92-58.16,6.73-77.66,4.1-28.4,19.53-111.69,19.53-111.69l1.77-103.55Z"/><polygon class="cls-4" points="393.32 119.27 394.96 214.88 422.52 380.63 449.2 566.35 449.2 566.35 485.48 558.77 483.05 213.8 479.98 116.69 399.54 119.72 393.32 119.27"/><rect class="cls-6" x="305.08" y="556.3" width="44.47" height="19.72"/><rect class="cls-6" x="446.27" y="558.71" width="42.69" height="19.8" transform="translate(-72.61 68.47) rotate(-7.77)"/></g></svg>