<svg xmlns="http://www.w3.org/2000/svg" viewBox="0 0 788 1005"><defs><style>.cls-1{fill:#5b584d;}.cls-2{fill:#183649;}</style></defs><g id="Calque_7" data-name="Calque 7"><polygon points="230.22 479.54 230.32 479.5 230.22 479.45 230.22 479.54"/><polygon points="230.32 479.5 230.42 479.54 230.42 479.45 230.32 479.5"/><polygon points="230.22 479.54 230.32 479.5 230.22 479.45 230.22 479.54"/><polygon points="230.32 479.5 230.42 479.54 230.42 479.45 230.32 479.5"/><path class="cls-1" d="M312.56,648.68A26.84,26.84,0,0,0,338,673.12h0a26.84,26.84,0,0,0,27.34-20.34S384.2,564,386.29,531.94c.5-7.58-.82-30.36-.82-30.36l-3.28-53.07s1.22-48.29-25.09-52.22c-30.3-4.53-35.91,35-35.91,35s-14.9,78.9-16,105.5C304.13,561.3,312.56,648.68,312.56,648.68Z"/><path class="cls-1" d="M336.75,631.38c-13.92-.19-22.33,6.71-24.87,18.16,0,0-7.11,55.37-8.31,77-1.93,34.69,2.48,101.61,7.19,136,1,7.53,3,30.27,3,30.27A13.11,13.11,0,0,0,327,904.68h0a13.11,13.11,0,0,0,12.9-11.81s2.23-26.14,3.5-34.79c4.58-31.35,18-93.52,20-125.14,1.22-19-.44-77.52-.44-77.52-.8-19.21-14.26-23.46-26.18-24Z"/><path class="cls-2" d="M326.26,884.8h0A16.06,16.06,0,0,0,312.14,894h0c-5.84,12.34-30.55,28.87-30.55,28.87A15.14,15.14,0,0,0,276,937.47h0l60.27-.33,3.39-1a8.54,8.54,0,0,0,6-9l-3.46-30A16,16,0,0,0,326.26,884.8Z"/><path class="cls-2" d="M277.77,937.17h0a9,9,0,0,1,7.52-10.37l35.85-5.41a9,9,0,0,1,10.07,6.77l2.06,8.51Z"/><path class="cls-1" d="M434.32,391.48c16.16,5.22,23.2,9.63,27,16.56,3.11,5.62,6,18.49,6.27,24.9.55,15.07-7.77,52.94-21.92,65.58-14.41,12.86-84.8,12.86-99.2,0C332.35,485.88,324,448,324.58,432.94c.23-6.41,3.16-19.28,6.27-24.9,3.84-6.93,10.89-11.34,27-16.56,18.49-6,37.3-5,37.3-5S415.83,385.5,434.32,391.48Z"/><path class="cls-1" d="M475.65,648.68a26.83,26.83,0,0,1-25.44,24.44h0a26.83,26.83,0,0,1-27.34-20.34S404,564,401.92,531.94c-.52-7.91,4.1-83.43,4.1-83.43s-2.83-22.42,29.27-29C463.9,413.66,467,431.28,467,431.28s14.9,77.9,16,104.5C484.09,560.3,475.65,648.68,475.65,648.68Z"/><path class="cls-1" d="M452.56,631.38c12.44-.19,19.94,6.71,22.22,18.16,0,0,14.38,53.37,15.45,75,1.72,34.69-10.25,103.61-14.46,138-.92,7.53-2.66,30.27-2.66,30.27-.6,6.77-5.72,11.91-11.8,11.83h0c-6-.08-10.92-5.16-11.51-11.81,0,0-2-26.14-3.12-34.79-4.1-31.35-16.08-93.52-17.88-125.14-1.09-19,.39-77.52.39-77.52.71-19.21,12.73-23.46,23.37-24Z"/><path class="cls-2" d="M475.57,881c-1.21,34,40.06,38.37,40.06,38.37,4.42,3.47-67,21.84-66.62,17.8,0,0,1.45-52-1-65.21C446.21,862.65,476.28,861,475.57,881Z"/><path class="cls-2" d="M462.7,899.81c6.38-2.17,5.93-6.81,8.47-9.36,1.54-1.54,7.87-3.19,8.79-1.22,10.69,22.66,61.17,35.37,61.17,35.37,5.35,3.82,6.56,9.1,5.54,14.63h0s-43.77,9.37-67.77-1.33c-4.8-2.15-9,3.05-9,3.05s-22.42,3.73-21.15-3.05l-2.54-42.71C448,887.8,451.75,903.55,462.7,899.81Z"/><path class="cls-2" d="M547.19,939.67c.85-9-4.26-14.65-6-14.43-2.5.32-6.51,2.38-9,2.82-4,.68-16-.29-16-.29-3.07-.32-5.61,2.76-5.85,7.09l-.21,8.64s7.32,1,24.64-1.59C537.71,941.48,547.19,939.67,547.19,939.67Z"/><path class="cls-1" d="M326.93,431.16l-8.74,17.22-25,452.1,21-.92,34.83.71s12.6-142.1,15.37-175.87c1.61-19.63,2.3-59.13,5.11-78.63C373.55,617.37,395.3,534,395.3,534l1.77-103.55Z"/><polygon class="cls-1" points="388.55 441.25 390.18 536.87 417.75 702.62 432.2 873.55 433.31 904.67 499.11 897.03 499.11 865.3 487.92 687.76 463.63 439.11 394.77 441.7 388.55 441.25"/></g></svg>