<svg xmlns="http://www.w3.org/2000/svg" viewBox="0 0 788 659.68"><defs><style>.cls-1{fill:#614652;}.cls-2{fill:#f6af97;}.cls-3{fill:#352b28;}.cls-4{fill:#c0272d;}.cls-5{fill:#547686;}</style></defs><g id="Calque_5" data-name="Calque 5"><path class="cls-1" d="M312.56,303.36A26.84,26.84,0,0,0,338,327.8h0a26.84,26.84,0,0,0,27.34-20.34s18.85-88.82,20.94-120.84c.5-7.58-.82-30.36-.82-30.36l-3.28-53.07s-3-25.06-29.27-29C322.62,69.66,321.19,86,321.19,86s-14.9,78.9-16,105.5C304.12,216,312.56,303.36,312.56,303.36Z"/><path class="cls-2" d="M336.75,286.06c-13.92-.19-22.33,6.71-24.87,18.16,0,0-7.11,55.36-8.31,77-1.93,34.69,2.48,101.61,7.19,136,1,7.54,3,30.28,3,30.28A13.1,13.1,0,0,0,327,559.35h0a13.1,13.1,0,0,0,12.9-11.8s2.23-26.14,3.5-34.79c4.58-31.35,18-93.52,20-125.14,1.22-19-.44-77.52-.44-77.52-.8-19.22-14.26-23.46-26.18-24Z"/><path class="cls-3" d="M277.77,591.84h0a9,9,0,0,1,7.52-10.36l35.85-5.41a9,9,0,0,1,10.07,6.77l2.06,8.5Z"/><path class="cls-4" d="M434.32,46.16c16.16,5.22,23.2,9.63,27,16.56,3.11,5.62,13.28,24.65,13.51,31.06.54,15.07-15,46.78-29.16,59.42-14.41,12.85-84.8,12.85-99.2,0-14.16-12.64-30-52-29.43-67,.23-6.42,10.66-17.83,13.77-23.45,3.84-6.93,10.89-11.34,27-16.56,18.49-6,37.3-5,37.3-5S415.83,40.18,434.32,46.16Z"/><path class="cls-4" d="M475.65,303.36a26.83,26.83,0,0,1-25.44,24.44h0a26.83,26.83,0,0,1-27.34-20.34S404,218.64,401.92,186.62c-.52-7.91,4.1-83.43,4.1-83.43s-2.83-22.42,29.27-29C463.9,68.33,467,86,467,86s14.9,77.9,16,104.5C484.09,215,475.65,303.36,475.65,303.36Z"/><path class="cls-2" d="M452.56,286.06c12.44-.19,19.94,6.71,22.22,18.16,0,0,14.38,53.36,15.45,75,1.72,34.69-10.25,103.61-14.46,138-.92,7.54-2.66,30.28-2.66,30.28-.6,6.77-5.72,11.9-11.8,11.82h0c-6-.07-10.92-5.16-11.52-11.8,0,0-2-26.14-3.11-34.79-4.1-31.35-16.08-93.52-17.88-125.14-1.09-19,.39-77.52.39-77.52.71-19.22,12.73-23.46,23.37-24Z"/><path class="cls-3" d="M475.28,531.22c-3.55,33.85,37.31,41,37.31,41,4.18,3.77-68.35,17.15-67.69,13.15,0,0,5.05-51.79,3.47-65.12C447.26,510.92,477.37,511.35,475.28,531.22Z"/><path class="cls-3" d="M542.68,594.74c1.46-8.93-3.24-14.92-5-14.82-2.51.15-6.65,1.94-9.16,2.19-4,.41-15.89-1.38-15.89-1.38-3.05-.53-5.8,2.36-6.34,6.66l-.8,8.61s7.24,1.5,24.69.12C533.09,595.89,542.68,594.74,542.68,594.74Z"/><path class="cls-4" d="M317.08,86.17l-2.16,20.61-23.31,188a14.92,14.92,0,0,0,13.77,16.72l60.5,4.21a14.91,14.91,0,0,0,15.84-13.05l14.1-113.79,1.77-103.55Z"/><path class="cls-4" d="M388.54,95.93l1.89,95.62L406.61,307a14.26,14.26,0,0,0,14.11,12.29l71.24.1A14.27,14.27,0,0,0,506.1,303L474.87,93.78l-79.17,2.6Z"/><polygon class="cls-5" points="353.42 465.25 339.27 550.26 313.75 547.52 305.46 461.89 353.42 465.25"/><polygon class="cls-5" points="436.19 451.29 447.54 551.37 472.87 549.8 485.61 450.64 436.19 451.29"/><path class="cls-3" d="M326.26,539.48h0a16,16,0,0,0-14.12,9.17h0c-5.84,12.34-30.55,28.87-30.55,28.87A15.12,15.12,0,0,0,276,592.14h0l60.27-.32,3.39-1a8.55,8.55,0,0,0,6-9l-3.46-29.95A16,16,0,0,0,326.26,539.48Z"/><path class="cls-3" d="M461.13,549.3c6.52-1.76,6.39-6.48,9.11-8.89,1.64-1.45,8.07-2.68,8.86-.63,9.06,23.68,58.53,40,58.53,40,5.07,4.23,5.91,9.66,4.51,15.19h0s-44.33,6.46-67.51-6c-4.65-2.51-9.19,2.47-9.19,2.47s-22.63,2.22-20.89-4.56l.46-43.4C447.26,536.13,449.94,552.33,461.13,549.3Z"/></g></svg>