<?xml version="1.0" encoding="utf-8"?>
<!-- Generator: Adobe Illustrator 26.0.1, SVG Export Plug-In . SVG Version: 6.00 Build 0)  -->
<svg version="1.1" id="Calque_1" xmlns="http://www.w3.org/2000/svg" xmlns:xlink="http://www.w3.org/1999/xlink" x="0px" y="0px"
	 viewBox="0 0 788 1005" style="enable-background:new 0 0 788 1005;" xml:space="preserve">
<style type="text/css">
	.st0{fill:#614652;}
	.st1{fill:#D79072;}
	.st2{fill:#3A4649;}
	.st3{fill:#172F35;}
	.st4{fill:#432D35;}
</style>
<g id="Calque_5">
	<polygon points="238,461 238.1,460.9 238,460.9 	"/>
	<polygon points="238.1,460.9 238.2,461 238.2,460.9 	"/>
	<polygon points="238,461 238.1,460.9 238,460.9 	"/>
	<polygon points="238.1,460.9 238.2,461 238.2,460.9 	"/>
	<path class="st0" d="M323.1,648.7c1,13.4,10.3,23.8,21.8,24.4l0,0c11,0.6,20.8-7.9,23.4-20.3c0,0,16.1-88.8,18-120.8
		c0.4-7.6-0.7-30.4-0.7-30.4l-2.1-59.9c0,0-2.4-15.5-23.9-18c-24.8-2.8-25.9,7.3-25.9,7.3s-15.9,79.2-16.9,105.8
		C315.9,561.3,323.1,648.7,323.1,648.7z"/>
	<path class="st1" d="M336.8,631.4c-13.9-0.2-22.3,6.7-24.9,18.2c0,0-7.1,55.4-8.3,77c-1.9,34.7,2.5,101.6,7.2,136
		c1,7.5,3,30.3,3,30.3c0.6,6.8,6.4,12,13.2,11.9l0,0c6.7-0.1,12.2-5.2,12.9-11.8c0,0,2.2-26.1,3.5-34.8c4.6-31.3,18-93.5,20-125.1
		c1.2-19-0.4-77.5-0.4-77.5C362.2,636.2,348.7,632,336.8,631.4L336.8,631.4z"/>
	<path class="st2" d="M326.3,884.8L326.3,884.8c-6.1,0.2-11.5,3.7-14.1,9.2l0,0c-5.8,12.3-30.5,28.9-30.5,28.9
		c-4.4,3.5-6.6,9.1-5.6,14.6l0,0l60.3-0.3l3.4-1c3.9-1.2,6.4-5,6-9l-3.5-30C340.5,889.8,333.8,884.6,326.3,884.8z"/>
	<path class="st3" d="M277.8,937.2L277.8,937.2c-0.8-4.9,2.5-9.5,7.4-10.4c0,0,0.1,0,0.1,0l35.9-5.4c4.6-0.7,9,2.2,10.1,6.8l2.1,8.5
		L277.8,937.2z"/>
	<path class="st4" d="M439.1,406.3c17.2,3.2,22.1,6.5,26.2,10.8c3.3,3.5,10.6,14.5,10.8,18.5c0.6,9.3-6.4,50.3-22.3,62.9
		c-16.1,12.9-94.9,12.9-111,0c-15.8-12.6-22.4-58-21.8-67.3c0.2-4,4.3-11.1,7.6-14.5c4.1-4.3,11.6-7,28.9-10.3
		c19.7-3.7,39.8-3.1,39.8-3.1S419.4,402.6,439.1,406.3z"/>
	<path class="st1" d="M452.6,631.4c12.4-0.2,19.9,6.7,22.2,18.2c0,0,9.1,50.9,11.2,72.5c4.5,46-5.4,107.1-10.2,140.6
		c-1.1,7.5-2.7,30.3-2.7,30.3c-0.6,6.8-5.7,11.9-11.8,11.8l0,0c-6-0.1-10.9-5.2-11.5-11.8c0,0-2-26.1-3.1-34.8
		c-4.1-31.3-16.1-93.5-17.9-125.1c-1.1-19,0.4-77.5,0.4-77.5C429.9,636.2,441.9,632,452.6,631.4L452.6,631.4z"/>
	<path class="st1" d="M475.6,881c-1.2,34,40,38.4,40,38.4c4.4,3.5-67,21.8-66.6,17.8c0,0,1.5-52-1-65.2
		C446.2,862.7,476.3,861,475.6,881z"/>
	<path class="st2" d="M464.2,899.8c6.4-2.2,5.9-6.8,8.5-9.4c1.5-1.5,7.9-3.2,8.8-1.2c10.7,22.7,61.2,35.4,61.2,35.4
		c5.4,3.8,6.6,9.1,5.5,14.6l0,0c0,0-26.5,13.5-66,3.8c-5.1-1.3-10.8-2.1-10.8-2.1s-25.4,3.3-24.1-3.5l0.4-42.3
		C449.5,887.8,453.3,903.5,464.2,899.8z"/>
	<path class="st3" d="M547.2,939.7c0.8-9-4.3-14.7-6-14.4c-2.5,0.3-6.5,2.4-9,2.8c-4,0.7-13.4,2.8-13.4,2.8
		c-3.1-0.3-5.6,2.8-5.9,7.1l-0.2,8.6c0,0,3.1,0.1,20.5-2.5C536.1,943.6,547.2,939.7,547.2,939.7z"/>
	<path class="st4" d="M321.1,431.2l-2.1,12.8l-25.7,470.2l14.5-12.9c6.4-4.4,14.8-4.3,21,0.2l16.8,19.8c0,0,21.4-164,24.1-197.8
		c1.6-19.6,3.9-58.2,6.7-77.7c4.1-28.4,19.5-111.7,19.5-111.7l1.8-103.6L321.1,431.2z"/>
	<path class="st4" d="M393.5,437.2l1.5,99.7l27.6,165.8l20.6,173.2l4.4,41.6l18.3-14.3c24.7-8.9,26.3,0.3,36.2,6.1l-1.1-24.5
		l-8.2-197l-16.5-252.2l-76.7,1.9L393.5,437.2z"/>
</g>
</svg>
