<svg xmlns="http://www.w3.org/2000/svg" viewBox="0 0 788 683.02"><defs><style>.cls-1{fill:#3688b2;}.cls-2{fill:#86b5c6;}.cls-3{fill:#6c99aa;}.cls-4{fill:#d79072;}.cls-5{fill:#87b6c7;}.cls-6{fill:#6999aa;}.cls-7,.cls-8{fill:none;stroke-linecap:round;stroke-miterlimit:10;stroke-width:2px;}.cls-7{stroke:#6999aa;}.cls-8{stroke:#69a;}</style></defs><g id="Calque_7" data-name="Calque 7"><path class="cls-1" d="M312.56,326.69A26.84,26.84,0,0,0,338,351.14h0a26.84,26.84,0,0,0,27.34-20.34S384.2,242,386.29,210c.5-7.58-.82-30.37-.82-30.37l-3.28-53.06s-3-25.07-29.27-29c-30.3-4.53-31.73,11.76-31.73,11.76s-14.9,78.91-16,105.51C304.13,239.31,312.56,326.69,312.56,326.69Z"/><path class="cls-1" d="M336.75,309.39c-13.92-.19-22.33,6.72-24.87,18.17,0,0-7.11,55.36-8.31,77-1.93,34.69,2.48,101.61,7.19,136,1,7.54,3,30.27,3,30.27A13.1,13.1,0,0,0,327,582.69h0a13.11,13.11,0,0,0,12.9-11.8s2.23-26.14,3.5-34.79c4.58-31.35,18-93.53,20-125.15,1.22-19-.44-77.51-.44-77.51-.8-19.22-14.26-23.46-26.18-24.05Z"/><path class="cls-2" d="M326.26,562.82h0A16.05,16.05,0,0,0,312.14,572h0c-5.84,12.35-30.55,28.88-30.55,28.88A15.12,15.12,0,0,0,276,615.48h0l60.27-.33,3.39-1a8.54,8.54,0,0,0,6-9l-3.46-29.95A16,16,0,0,0,326.26,562.82Z"/><path class="cls-3" d="M277.77,615.18h0a9,9,0,0,1,7.52-10.36l35.85-5.41a9,9,0,0,1,10.07,6.77l2.06,8.5Z"/><path class="cls-1" d="M434.32,69.49c16.16,5.23,23.2,9.63,27,16.57,3.11,5.61,6,18.48,6.27,24.9.55,15.06-7.77,52.94-21.92,65.58-14.41,12.85-84.8,12.85-99.2,0-14.16-12.64-30-52-29.43-67,.23-6.42,3.77-18.92,12.24-26.64,5.86-5.34,12.42-8.15,28.57-13.38,18.49-6,37.3-5,37.3-5S415.83,63.52,434.32,69.49Z"/><path class="cls-1" d="M475.65,326.69a26.83,26.83,0,0,1-25.44,24.45h0a26.83,26.83,0,0,1-27.34-20.34S404,242,401.92,210c-.52-7.91,4.1-83.43,4.1-83.43s-2.83-22.42,29.27-29C463.9,91.67,467,109.29,467,109.29s14.9,77.91,16,104.51C484.09,238.31,475.65,326.69,475.65,326.69Z"/><path class="cls-1" d="M452.56,309.39c12.44-.19,19.94,6.72,22.22,18.17,0,0,14.38,53.36,15.45,75,1.72,34.69-10.25,103.61-14.46,138-.92,7.54-2.66,30.27-2.66,30.27-.6,6.78-5.72,11.91-11.8,11.83h0c-6-.08-10.92-5.16-11.51-11.8,0,0-2-26.14-3.12-34.79-4.1-31.35-16.08-93.53-17.88-125.15-1.09-19,.39-77.51.39-77.51.71-19.22,12.73-23.46,23.37-24.05Z"/><path class="cls-4" d="M475.57,559c-1.21,34,40.06,38.38,40.06,38.38,4.42,3.46-67,21.83-66.62,17.79,0,0,1.45-52-1-65.2C446.21,540.66,476.28,539,475.57,559Z"/><path class="cls-5" d="M462.7,577.83c6.38-2.18,5.93-6.81,8.47-9.36,1.54-1.54,7.87-3.19,8.79-1.22,10.69,22.66,61.17,35.37,61.17,35.37,5.35,3.81,6.56,9.09,5.54,14.62h0s-38.84,15.16-62.83,4.46C479,619.56,469.91,619,469.91,619s-31.58.29-30.32-6.5l-2.53-42.7C438.78,562.38,451.75,581.57,462.7,577.83Z"/><path class="cls-6" d="M547.19,617.69c.85-9-4.26-14.66-6-14.44-2.5.32-6.51,2.39-9,2.82-4,.69-16-.29-16-.29-3.07-.31-5.61,2.76-5.85,7.09l-.21,12.46s9-2.5,24.64-5.4C537.69,619.4,547.19,617.69,547.19,617.69Z"/><path class="cls-1" d="M317.08,109.51l-2.16,20.6q-.69,14.29-1.36,28.57l-19.89,420,21-.92,34.82.71s12.6-142.1,15.37-175.87c1.61-19.63,2.3-59.14,5.11-78.64,4.1-28.39,25.84-111.81,25.84-111.81l1.77-103.55Z"/><polygon class="cls-1" points="388.55 119.27 390.18 214.88 417.75 380.63 432.2 551.57 433.31 582.68 488.1 576.32 487.19 540.01 487.92 365.77 463.63 117.12 394.76 119.72 388.55 119.27"/><path class="cls-7" d="M309.29,581.43s4.74-3.36,8.91-3.35c5.1,0,10,3.11,10,3.11"/><path class="cls-8" d="M490.47,577.09s-5.1,2.07-9,2.15"/><path class="cls-1" d="M399.49,241.41c6.22,7.2,3.36,374.32-55.4,350.37-38.14-15.54-53.7,16.94-59.73-22.3s-4.93-313.31,29.2-410.8c0,0,166.36-14.37,166.48,27.78S553.68,589.33,512.16,583c-62.36-9.47-78.85,26.92-92-3.9S399.49,241.41,399.49,241.41Z"/><rect class="cls-1" x="271.24" y="540.71" width="117.3" height="51.27"/><rect class="cls-1" x="413.65" y="540.47" width="122.86" height="51.27" transform="translate(-83.15 81.79) rotate(-9.05)"/></g></svg>