<?xml version="1.0" encoding="utf-8"?>
<!-- Generator: Adobe Illustrator 26.0.1, SVG Export Plug-In . SVG Version: 6.00 Build 0)  -->
<svg version="1.1" id="Calque_1" xmlns="http://www.w3.org/2000/svg" xmlns:xlink="http://www.w3.org/1999/xlink" x="0px" y="0px"
	 viewBox="0 0 158 103.1" style="enable-background:new 0 0 158 103.1;" xml:space="preserve">
<style type="text/css">
	.st0{fill:#6B313A;}
	.st1{fill:#1F1A19;}
	.st2{fill:#3B2824;}
</style>
<polygon class="st0" points="94.6,73.9 86.7,79.8 79.7,80.9 72.8,79.8 65.1,73.9 69.4,74.3 75.2,74.8 79.7,75.8 84.3,74.8 
	90.2,74.3 "/>
<path class="st1" d="M109.3,42.3l-3.7-1.2c0,0-9.1,0.1-9.5,0.5c0,0-2.1,0.7-3.4,1.3c-1.3,0.7-2.8,0.3-2.8,0.3l0.2-1.2
	c0,0,3.6-3,5-3.3c2.3-0.5,10.1,0.6,10.2,0.6c0.3,0.1,4.8,1.9,5.3,2.6C110.8,42,109.3,42.3,109.3,42.3z"/>
<path class="st2" d="M84.2,26.4c0.1,0.2,0.4,2.9,0.4,2.9l3,0.7l13.8-2.8c0,0,7.3,1.7,7.3,1.6s3.9,1.7,3.9,1.7l-0.3-2.6
	c0,0-9.9-4.8-10.1-4.7s-8.6,0.7-8.6,0.7L84.2,26.4z"/>
<path class="st2" d="M73.8,26.4c-0.1,0.2-0.4,2.9-0.4,2.9l-3,0.7l-13.8-2.8c0,0-7.3,1.7-7.3,1.6s-3.9,1.7-3.9,1.7l0.3-2.6
	c0,0,9.9-4.8,10.1-4.7s8.6,0.7,8.6,0.7L73.8,26.4z"/>
<path class="st1" d="M50.2,42.3l3.7-1.2c0,0,9.1,0.1,9.5,0.5c0,0,2.1,0.7,3.4,1.3c1.3,0.7,2.8,0.3,2.8,0.3L69.4,42c0,0-3.6-3-5-3.3
	c-2.3-0.5-10.1,0.6-10.2,0.6c-0.3,0.1-4.8,1.9-5.3,2.6C48.7,42,50.2,42.3,50.2,42.3z"/>
</svg>
