<?xml version="1.0" encoding="utf-8"?>
<!-- Generator: Adobe Illustrator 26.0.1, SVG Export Plug-In . SVG Version: 6.00 Build 0)  -->
<svg version="1.1" id="Calque_1" xmlns="http://www.w3.org/2000/svg" xmlns:xlink="http://www.w3.org/1999/xlink" x="0px" y="0px"
	 viewBox="0 0 158 103.1" style="enable-background:new 0 0 158 103.1;" xml:space="preserve">
<style type="text/css">
	.st0{fill:#DFB0A4;}
	.st1{fill:#1F1A19;}
	.st2{fill:#3B2824;}
	.st3{fill:#310800;}
	.st4{fill:#6B313A;}
	.st5{fill:#EBB4C9;}
</style>
<g id="Calque_7">
	<path class="st0" d="M106.1,38.9c0,2.6-2.2,4.6-6.7,4.6s-8.1-1.6-8.1-4.1c0-1.1,3.9-3.3,3.9-3.3c2-0.4,3.4,0.6,5.9,0.4
		S106.1,38.9,106.1,38.9z"/>
	<path class="st1" d="M100.6,38c0,2.5-1.9,4.5-4.4,4.6h-0.2c-0.2,0-0.4,0-0.6,0c-2.5-0.3-3.4-1.1-4-3.2l0,0c1.9,0.5,0,0,1.3-0.8
		c0.1-0.4,0.2-0.4,0.5-0.7c0.2-0.2,0.5-0.7,0.7-0.9c1.5,0,0.9-1,2.5-1c0.4,0.4,3.6-0.4,3.8,0l0.1,0.2
		C100.4,36.8,100.6,37.4,100.6,38z"/>
	<path class="st1" d="M107.9,40.8h-1.6l-1.6,1l0,0l1.2-2.1h0.1v-0.1l-2.8-2.5h-0.1c-1-0.1-8-0.7-8.4,0l-0.2,0.3
		c-0.5,0.6-1.8,1.9-2.9,3s-1.8,1.8-1.8,1.8l0.2-1.9l1.2-1.3c0,0,2.3-3,3.5-3.5c1.9-0.8,8.2,0.2,8.3,0.3c0.2,0.1,4.1,3.2,4.5,4.4
		C107.7,40.4,107.8,40.6,107.9,40.8z"/>
	<path class="st2" d="M84.2,20.9c0.1,0.2,0.4,2.9,0.4,2.9l3,0.7l13.8-2.8c0,0,7.3,1.7,7.3,1.6s3.9,1.7,3.9,1.7l-0.3-2.6
		c0,0-9.9-4.8-10.1-4.7s-8.6,0.7-8.6,0.7L84.2,20.9z"/>
	<path class="st2" d="M73.9,20.9c-0.1,0.2-0.4,2.9-0.4,2.9l-3,0.7l-13.8-2.8c0,0-7.3,1.7-7.3,1.6S45.5,25,45.5,25l0.3-2.6
		c0,0,9.9-4.8,10.1-4.7s8.6,0.7,8.6,0.7L73.9,20.9z"/>
	<path class="st0" d="M52.3,38.9c0,2.6,2.2,4.6,6.7,4.6s8.1-1.6,8.1-4.1c0-1.1-3.9-3.3-3.9-3.3c-2-0.4-3.4,0.6-5.9,0.4
		S52.3,38.9,52.3,38.9z"/>
	<path class="st1" d="M52.3,38.9c0,2.5,1.5,3.6,3.9,3.7h0.2c0.2,0,0.4,0,0.6,0c2.5-0.3,4.3-2.6,4-5.1l0,0c0-0.3-0.1-0.6-0.2-0.9
		c-0.1-0.4-0.3-0.7-0.5-1c-0.2-0.2,0.2,0.2,0,0c-1.5,0-1.4-0.1-3-0.1c-0.4,0.4-3.6,1.4-3.9,1.8l-0.7,0.6
		C52.4,38.5,52.4,38.3,52.3,38.9z"/>
	<path class="st1" d="M50.4,40.8h1.6l1.6,1l0,0l-1.2-2.1l-0.1-0.2v-0.1l2.8-2.5h0.1c1-0.1,8-0.7,8.4,0l0.2,0.3
		c0.5,0.6,1.8,1.9,2.9,3s1.8,1.8,1.8,1.8l-0.2-1.9l-1.2-1.3c0,0-2.3-3-3.5-3.5c-1.9-0.8-8.2,0.2-8.3,0.3c-0.2,0.1-4.1,3.2-4.5,4.4
		C50.8,40.3,50.7,40.5,50.4,40.8z"/>
</g>
<g>
	<path class="st3" d="M66.9,73.1c0,0,10.7-2.1,10.8-2.2c0.2-0.1,3.9,0,3.9,0l10.3,2.3l-7.7,10.7l-9.5,0.2L66.9,73.1z"/>
	<path class="st4" d="M90.4,73.7l3.4-1c0,0-6.8,11.9-9.9,12.8c-2.9,1-6,1-8.9,0c-3.1-0.9-9.4-12.8-9.4-12.8l2.9,1
		c0,0,4.4,9,10.8,9.4C85.4,83.5,90.4,73.7,90.4,73.7z"/>
	<path class="st5" d="M69.4,71.6l1,1.5c0.6,0.4,1.3,0.6,2,0.6c0,0,5.4,0.2,7.1,0.2c1.8,0,6.9-0.2,6.9-0.2c0.7,0,1.4-0.2,2-0.6
		l0.4-1.2L69.4,71.6z"/>
	<path class="st4" d="M93.8,72.7l-3.4,1c0,0-8.2-1.8-11-1.8s-10.8,1.8-10.8,1.8l-2.9-1c0.4-0.6,8.2-5,10.5-4.3
		c1.1,0.3,2.1,0.7,3.2,1.1c0,0,1-0.4,3.3-1.1C84.9,67.7,93.3,72.1,93.8,72.7z"/>
</g>
</svg>
