<svg xmlns="http://www.w3.org/2000/svg" xmlns:xlink="http://www.w3.org/1999/xlink" viewBox="0 0 788 1005"><defs><style>.cls-1,.cls-3,.cls-8{fill:none;}.cls-2{clip-path:url(#clip-path);}.cls-3{stroke:#000;}.cls-3,.cls-8{stroke-linecap:round;stroke-miterlimit:10;stroke-width:2px;}.cls-4{clip-path:url(#clip-path-2);}.cls-5{clip-path:url(#clip-path-3);}.cls-6{clip-path:url(#clip-path-4);}.cls-7{fill:#814e3d;}.cls-8{stroke:#522a19;}</style><clipPath id="clip-path"><rect class="cls-1" x="403.19" y="99.12" width="18.47" height="6.31"/></clipPath><clipPath id="clip-path-2"><rect class="cls-1" x="365.22" y="99.12" width="18.47" height="6.31"/></clipPath><clipPath id="clip-path-3"><rect class="cls-1" x="363.44" y="87.61" width="22.15" height="6.06"/></clipPath><clipPath id="clip-path-4"><rect class="cls-1" x="402.41" y="87.61" width="22.15" height="6.06"/></clipPath></defs><g id="yeux"><g class="cls-2"><path class="cls-3" d="M404.19,104.43a10.24,10.24,0,0,1,8.23-4.31,10.65,10.65,0,0,1,8.23,4.31"/></g><g class="cls-4"><path class="cls-3" d="M382.69,104.43a10.25,10.25,0,0,0-8.24-4.31,10.65,10.65,0,0,0-8.23,4.31"/></g><g class="cls-5"><path class="cls-3" d="M384.59,89.52s-6.36-1.87-12.1-.25a38.4,38.4,0,0,0-8.05,3.4"/></g><g class="cls-6"><path class="cls-3" d="M403.41,89.52s6.36-1.87,12.1-.25a38.4,38.4,0,0,1,8.05,3.4"/></g><path class="cls-7" d="M400.84,126.36s-4.7,3.69-7.43,3.69-7-3.59-7-3.59,5.4.73,7.21.71S400.84,126.36,400.84,126.36Z"/><path class="cls-8" d="M380.17,138.21a18.63,18.63,0,0,0,13.62,5.52,18.94,18.94,0,0,0,13.29-6.49"/></g></svg>