<svg xmlns="http://www.w3.org/2000/svg" xmlns:xlink="http://www.w3.org/1999/xlink" viewBox="0 0 788 1005"><defs><style>.cls-1,.cls-5,.cls-7{fill:none;}.cls-2{fill:#fff;}.cls-3{fill:#080808;}.cls-3,.cls-5{stroke:#000;}.cls-3,.cls-5,.cls-7{stroke-miterlimit:10;}.cls-4{clip-path:url(#clip-path);}.cls-5,.cls-7{stroke-linecap:round;stroke-width:2px;}.cls-6{clip-path:url(#clip-path-2);}.cls-7{stroke:#522a19;}.cls-8{fill:#814e3d;}</style><clipPath id="clip-path"><rect class="cls-1" x="402.57" y="87.3" width="22.15" height="6.68"/></clipPath><clipPath id="clip-path-2"><rect class="cls-1" x="363.28" y="87.3" width="22.15" height="6.68"/></clipPath></defs><g id="yeux"><circle class="cls-2" cx="410.78" cy="104.2" r="6.75"/><circle class="cls-2" cx="375.92" cy="104.2" r="6.75"/><circle class="cls-3" cx="376" cy="103.35" r="4"/><circle class="cls-3" cx="410.94" cy="103.35" r="4"/><g class="cls-4"><path class="cls-5" d="M403.57,91.58A14.86,14.86,0,0,1,423.72,93"/></g><g class="cls-6"><path class="cls-5" d="M384.43,91.58A14.86,14.86,0,0,0,364.28,93"/></g><path class="cls-7" d="M378.11,138.52a23.2,23.2,0,0,0,31.14-1"/><path class="cls-8" d="M401.89,126.43s-4.69,3.69-7.42,3.69-7-3.6-7-3.6,5.4.73,7.21.72S401.89,126.43,401.89,126.43Z"/></g></svg>