<svg xmlns="http://www.w3.org/2000/svg" viewBox="0 0 788 1005"><defs><style>.cls-1,.cls-4{fill:none;stroke-linecap:round;stroke-miterlimit:10;stroke-width:2px;}.cls-1{stroke:#000;}.cls-2{fill:#fff;}.cls-3{fill:#814e3d;}.cls-4{stroke:#522a19;}</style></defs><g id="yeux"><path class="cls-1" d="M403.65,108s2.76-1.32,8.24-1.32a21.78,21.78,0,0,1,8.23,1.32"/><circle class="cls-2" cx="375.58" cy="107.45" r="5.28"/><circle cx="375.55" cy="107.48" r="4"/><path class="cls-1" d="M403.19,95.36s5.74.69,10.35,1.57a46.86,46.86,0,0,1,10.56,3.39"/><path class="cls-1" d="M384.06,94.86a14.9,14.9,0,0,0-20.16,1.4"/><path class="cls-3" d="M400.3,127s-4.69,3.69-7.42,3.69c-2.58,0-7-3.59-7-3.59s5.4.73,7.21.71S400.3,127,400.3,127Z"/><path class="cls-4" d="M379.64,141.8a18.59,18.59,0,0,0,13.61,5.52,19,19,0,0,0,13.29-6.48"/></g></svg>