<?xml version="1.0" encoding="utf-8"?>
<!-- Generator: Adobe Illustrator 26.0.2, SVG Export Plug-In . SVG Version: 6.00 Build 0)  -->
<svg version="1.1" id="Layer_1" xmlns="http://www.w3.org/2000/svg" xmlns:xlink="http://www.w3.org/1999/xlink" x="0px" y="0px"
	 viewBox="0 0 200 200" style="enable-background:new 0 0 200 200;" xml:space="preserve">
<style type="text/css">
	.st0{fill:#FFFFFF;}
	.st1{fill:#3E9ACE;}
	.st2{clip-path:url(#SVGID_00000052065094781374382400000014975502423510738312_);}
	.st3{fill:#60131D;}
	.st4{clip-path:url(#SVGID_00000000929031527431752590000003221759917897893014_);}
	.st5{fill:#5B2945;}
	.st6{fill:#63382D;}
</style>
<g id="Calque_10_00000050620936194914206440000002819451268540510375_">
	<path class="st0" d="M125.3,118.7c0,3.7-3,6.8-6.8,6.8s-6.8-3.2-6.8-5.1L125.3,118.7z"/>
	<path class="st0" d="M86.5,119.7c0,2.7-2.9,5.8-6.7,5.8s-6.8-3-6.8-6.8l0,0L86.5,119.7z"/>
	<path class="st1" d="M83.8,119.3c0,2.2-1.8,4-4,4s-4-1.8-4-4c0-0.2,0-1,0-1.2l7.9,0.6C83.8,118.9,83.8,119.1,83.8,119.3z"/>
	<path class="st1" d="M122.8,119.3c0,2.2-1.8,4-4,4s-4-1.8-4-4c0-0.2,0-0.4,0-0.6l8-0.6C122.8,118.3,122.8,119.1,122.8,119.3z"/>
	<g>
		<g>
			<defs>
				<rect id="SVGID_1_" x="110.6" y="104.4" width="21.6" height="7.1"/>
			</defs>
			<clipPath id="SVGID_00000133520013660250910670000013378651009668981643_">
				<use xlink:href="#SVGID_1_"  style="overflow:visible;"/>
			</clipPath>
			<g style="clip-path:url(#SVGID_00000133520013660250910670000013378651009668981643_);">
				<g>
					<path class="st3" d="M111.6,105.4c6.8-1.2,14.1,1,19.6,5.1C124.7,109,118.2,107,111.6,105.4L111.6,105.4z"/>
				</g>
			</g>
		</g>
	</g>
	<g>
		<g>
			<defs>
				<rect id="SVGID_00000111892185995802188610000015412010926628200611_" x="67.4" y="104.4" width="21.6" height="7.1"/>
			</defs>
			<clipPath id="SVGID_00000047047032452853072860000008328353501073678251_">
				<use xlink:href="#SVGID_00000111892185995802188610000015412010926628200611_"  style="overflow:visible;"/>
			</clipPath>
			<g style="clip-path:url(#SVGID_00000047047032452853072860000008328353501073678251_);">
				<g>
					<path class="st3" d="M88,105.4c-6.5,1.6-13.1,3.6-19.6,5.1C73.9,106.4,81.2,104.3,88,105.4L88,105.4z"/>
				</g>
			</g>
		</g>
	</g>
	<g>
		<path class="st5" d="M88.5,157.5c3.7-1.1,7.4-1.3,11.2-1.3c3.8,0,7.5,0.2,11.1,1.3C103.6,159.8,95.8,159.8,88.5,157.5L88.5,157.5z
			"/>
	</g>
	<path class="st6" d="M107.7,140.9c0,0-4.7,3.7-7.4,3.7c-2.6,0-7-3.6-7-3.6s5.4,0.7,7.2,0.7S107.7,140.9,107.7,140.9z"/>
</g>
<path class="st3" d="M70.3,119.6c0.7,0.6,2.2,0.8,3.3,0.4c2-0.7,4.3-1.7,6.6-1.3c3.1,0.6,2.8,1.8,6.7,2c0.3,0-0.8-3.8-6.9-4
	C73.9,116.5,73.1,119.4,70.3,119.6z"/>
<path class="st3" d="M127.6,119.6c-0.7,0.6-2.1,0.8-3.1,0.4c-2-0.7-4.1-1.7-6.3-1.3c-2.9,0.6-2.7,1.8-6.4,2c-0.3,0,0.8-3.8,6.6-4
	C124.3,116.5,124.9,119.4,127.6,119.6z"/>
</svg>
