<?xml version="1.0" encoding="utf-8"?>
<!-- Generator: Adobe Illustrator 26.0.2, SVG Export Plug-In . SVG Version: 6.00 Build 0)  -->
<svg version="1.1" id="Layer_1" xmlns="http://www.w3.org/2000/svg" xmlns:xlink="http://www.w3.org/1999/xlink" x="0px" y="0px"
	 viewBox="0 0 200 200" style="enable-background:new 0 0 200 200;" xml:space="preserve">
<style type="text/css">
	.st0{fill:#FFFFFF;}
	.st1{fill:#3E9ACE;}
	.st2{clip-path:url(#SVGID_00000135650599682842787420000000611544954488765875_);}
	.st3{fill:#60131D;}
	.st4{clip-path:url(#SVGID_00000170958772807396861860000006866071665463054996_);}
	.st5{fill:#5E3E35;}
	.st6{fill:#66183F;}
</style>
<g id="Calque_10_00000092456279158252509710000010318401613197991304_">
	<circle class="st0" cx="121.9" cy="114.3" r="6.8"/>
	<circle class="st0" cx="83" cy="114.3" r="6.8"/>
	<circle class="st1" cx="85.1" cy="114.4" r="4"/>
	<circle class="st1" cx="124" cy="114.4" r="4"/>
	<g>
		<g>
			<defs>
				<rect id="SVGID_1_" x="113.6" y="97.4" width="22.1" height="6.7"/>
			</defs>
			<clipPath id="SVGID_00000108988787996555482580000004895385831875058563_">
				<use xlink:href="#SVGID_1_"  style="overflow:visible;"/>
			</clipPath>
			<g style="clip-path:url(#SVGID_00000108988787996555482580000004895385831875058563_);">
				<g>
					<path class="st3" d="M114.6,101.7c4.9-6.3,16.2-5.5,20.2,1.4C128.9,98.8,121.1,98.3,114.6,101.7L114.6,101.7z"/>
				</g>
			</g>
		</g>
	</g>
	<g>
		<g>
			<defs>
				<rect id="SVGID_00000101073753834459264300000008063505652097992877_" x="70.4" y="97.4" width="22.1" height="6.7"/>
			</defs>
			<clipPath id="SVGID_00000011736048037918342270000006011766361960487301_">
				<use xlink:href="#SVGID_00000101073753834459264300000008063505652097992877_"  style="overflow:visible;"/>
			</clipPath>
			<g style="clip-path:url(#SVGID_00000011736048037918342270000006011766361960487301_);">
				<g>
					<path class="st3" d="M91.5,101.7c-6.5-3.5-14.2-2.9-20.2,1.4C75.4,96.3,86.6,95.5,91.5,101.7L91.5,101.7z"/>
				</g>
			</g>
		</g>
	</g>
	<path class="st5" d="M111,136.6c0,0-4.7,3.7-7.4,3.7s-7-3.6-7-3.6s5.4,0.7,7.2,0.7S111,136.6,111,136.6z"/>
	<ellipse class="st6" cx="103.5" cy="156.1" rx="2.9" ry="4.5"/>
	<path class="st3" d="M75.1,111.6c0.6,1,1.9,1.3,2.9,0.6c1.8-1.1,3.8-2.8,5.8-2.1c2.7,0.9,2.5,2.9,5.9,3.3c0.3,0-0.7-6.2-6.1-6.5
		S77.5,111.3,75.1,111.6z"/>
	<path class="st3" d="M129.6,111.1c-0.6,1-1.9,1.3-2.9,0.6c-1.8-1.1-3.8-2.8-5.8-2.1c-2.6,0.9-2.5,2.9-5.9,3.3
		c-0.3,0,0.7-6.2,6.1-6.5S127.2,110.8,129.6,111.1z"/>
</g>
</svg>
