<?xml version="1.0" encoding="utf-8"?>
<!-- Generator: Adobe Illustrator 26.0.2, SVG Export Plug-In . SVG Version: 6.00 Build 0)  -->
<svg version="1.1" id="Calque_1" xmlns="http://www.w3.org/2000/svg" xmlns:xlink="http://www.w3.org/1999/xlink" x="0px" y="0px"
	 viewBox="0 0 788 1005" style="enable-background:new 0 0 788 1005;" xml:space="preserve">
<style type="text/css">
	.st0{fill:#FFFFFF;}
	.st1{fill:#3E9ACE;}
	.st2{clip-path:url(#SVGID_00000011018454295240147330000013095229513574760104_);}
	.st3{fill:#60131D;}
	.st4{clip-path:url(#SVGID_00000127746067971141487330000015879396615384508067_);}
	.st5{fill:#5E3E35;}
	.st6{fill:#66183F;}
</style>
<g id="Calque_10">
	<circle class="st0" cx="415.6" cy="244" r="6.8"/>
	<circle class="st0" cx="376.8" cy="244" r="6.8"/>
	<circle class="st1" cx="378.9" cy="244.1" r="4"/>
	<circle class="st1" cx="417.8" cy="244.1" r="4"/>
	<g>
		<g>
			<defs>
				<rect id="SVGID_1_" x="407.4" y="227.1" width="22.1" height="6.7"/>
			</defs>
			<clipPath id="SVGID_00000042714888983485958390000008074851035663952554_">
				<use xlink:href="#SVGID_1_"  style="overflow:visible;"/>
			</clipPath>
			<g style="clip-path:url(#SVGID_00000042714888983485958390000008074851035663952554_);">
				<g>
					<path class="st3" d="M408.4,231.4c4.9-6.3,16.2-5.5,20.2,1.4C422.6,228.5,414.9,227.9,408.4,231.4L408.4,231.4z"/>
				</g>
			</g>
		</g>
	</g>
	<g>
		<g>
			<defs>
				<rect id="SVGID_00000025408366326565691300000015546721304771118778_" x="364.1" y="227.1" width="22.1" height="6.7"/>
			</defs>
			<clipPath id="SVGID_00000011004416487791338700000013257764728914721411_">
				<use xlink:href="#SVGID_00000025408366326565691300000015546721304771118778_"  style="overflow:visible;"/>
			</clipPath>
			<g style="clip-path:url(#SVGID_00000011004416487791338700000013257764728914721411_);">
				<g>
					<path class="st3" d="M385.3,231.4c-6.5-3.5-14.2-2.9-20.2,1.4C369.1,225.9,380.4,225.1,385.3,231.4L385.3,231.4z"/>
				</g>
			</g>
		</g>
	</g>
	<path class="st5" d="M404.8,266.2c0,0-4.7,3.7-7.4,3.7s-7-3.6-7-3.6s5.4,0.7,7.2,0.7S404.8,266.2,404.8,266.2z"/>
	<ellipse class="st6" cx="397.2" cy="285.7" rx="2.9" ry="4.5"/>
	<path class="st3" d="M368.9,241.3c0.6,1,1.9,1.3,2.9,0.6c1.8-1.1,3.8-2.8,5.8-2.1c2.7,0.9,2.5,2.9,5.9,3.3c0.3,0-0.7-6.2-6.1-6.5
		S371.3,241,368.9,241.3z"/>
	<path class="st3" d="M423.4,240.8c-0.6,1-1.9,1.3-2.9,0.6c-1.8-1.1-3.8-2.8-5.8-2.1c-2.6,0.9-2.5,2.9-5.9,3.3
		c-0.3,0,0.7-6.2,6.1-6.5S421,240.5,423.4,240.8z"/>
</g>
</svg>
