<?xml version="1.0" encoding="utf-8"?>
<!-- Generator: Adobe Illustrator 26.0.2, SVG Export Plug-In . SVG Version: 6.00 Build 0)  -->
<svg version="1.1" id="Calque_1" xmlns="http://www.w3.org/2000/svg" xmlns:xlink="http://www.w3.org/1999/xlink" x="0px" y="0px"
	 viewBox="0 0 788 1005" style="enable-background:new 0 0 788 1005;" xml:space="preserve">
<style type="text/css">
	.st0{fill:#FFFFFF;}
	.st1{fill:#3E9ACE;}
	.st2{fill:#60131D;}
	.st3{fill:#5E3E35;}
	.st4{fill:#662C34;}
</style>
<g id="Calque_10">
	<circle class="st0" cx="373.7" cy="246" r="5.3"/>
	<circle class="st1" cx="373.7" cy="246" r="4"/>
	<g>
		<path class="st2" d="M405.3,233.9c3.7-0.7,7.3-0.5,11,0.2c3.7,0.8,7.2,2.2,9.9,4.8c-1.9-0.2-3.7-0.5-5.4-0.8
			C415.7,237,410.1,236.2,405.3,233.9L405.3,233.9z"/>
	</g>
	<g>
		<path class="st2" d="M382.2,233.4c-5-1.9-10.1-2.5-15.2-0.8c-1.6,0.5-3.3,1.3-5,2.2C365.5,227.3,377.7,226.4,382.2,233.4
			L382.2,233.4z"/>
	</g>
	<path class="st3" d="M400.4,265.5c0,0-4.7,3.7-7.4,3.7c-2.6,0-7-3.6-7-3.6s5.4,0.7,7.2,0.7S400.4,265.5,400.4,265.5z"/>
	<g>
		<path class="st4" d="M379.8,280.3c8.8,5.6,18.6,5.1,26.9-1C401.4,289.4,385.8,290,379.8,280.3L379.8,280.3z"/>
	</g>
	<path class="st2" d="M364.6,243.9c0.6,1,1.9,1.3,2.9,0.6c1.8-1.1,3.8-2.8,5.8-2.1c2.7,0.9,2.5,2.9,5.9,3.3c0.3,0-0.7-6.2-6.1-6.5
		S367,243.5,364.6,243.9z"/>
	<path class="st2" d="M421.9,246.5c-0.6,1-1.9,1.3-2.9,0.6c-1.8-1.1-6.9-1.2-8.9-0.6c-2.7,0.9-5.8,2.1-6.6,0.4
		c-0.1-0.3,1.5-3.3,6.8-3.7S419.4,246.1,421.9,246.5L421.9,246.5z"/>
</g>
</svg>
