<?xml version="1.0" encoding="utf-8"?>
<!-- Generator: Adobe Illustrator 26.0.2, SVG Export Plug-In . SVG Version: 6.00 Build 0)  -->
<svg version="1.1" id="Calque_1" xmlns="http://www.w3.org/2000/svg" xmlns:xlink="http://www.w3.org/1999/xlink" x="0px" y="0px"
	 viewBox="0 0 788 1005" style="enable-background:new 0 0 788 1005;" xml:space="preserve">
<style type="text/css">
	.st0{clip-path:url(#SVGID_00000030488937914454180470000017670954992804052355_);}
	.st1{fill:#60131D;}
	.st2{clip-path:url(#SVGID_00000077313004449967535350000007297007313636587182_);}
	.st3{fill:#5E3E35;}
	.st4{fill:#6B3457;}
</style>
<g id="Calque_10">
	<g>
		<g>
			<defs>
				<rect id="SVGID_1_" x="361.6" y="226.3" width="22.1" height="6.1"/>
			</defs>
			<clipPath id="SVGID_00000138551514095043685740000002076719202738404278_">
				<use xlink:href="#SVGID_1_"  style="overflow:visible;"/>
			</clipPath>
			<g style="clip-path:url(#SVGID_00000138551514095043685740000002076719202738404278_);">
				<g>
					<path class="st1" d="M382.7,228.2c-3.6-0.1-7-0.2-10.2,0.4c-3.3,0.6-6.6,1.9-9.9,2.8C367.9,226.5,376.2,224.7,382.7,228.2
						L382.7,228.2z"/>
				</g>
			</g>
		</g>
	</g>
	<g>
		<g>
			<defs>
				<rect id="SVGID_00000062883835068867904810000002130932093651136437_" x="404.5" y="226.3" width="22.1" height="6.1"/>
			</defs>
			<clipPath id="SVGID_00000150062920704669808360000010836613263419005880_">
				<use xlink:href="#SVGID_00000062883835068867904810000002130932093651136437_"  style="overflow:visible;"/>
			</clipPath>
			<g style="clip-path:url(#SVGID_00000150062920704669808360000010836613263419005880_);">
				<g>
					<path class="st1" d="M405.5,228.2c6.5-3.5,14.8-1.7,20.1,3.2c-3.3-1-6.6-2.2-9.9-2.8C412.5,228,409.1,228.1,405.5,228.2
						L405.5,228.2z"/>
				</g>
			</g>
		</g>
	</g>
	<path class="st3" d="M401,266c0,0-4.7,2.7-7.4,2.7s-7-2.6-7-2.6s5.4,0.5,7.2,0.5C395.6,266.6,401,266,401,266z"/>
	<g>
		<path class="st4" d="M380.3,276.9c8.8,5.6,18.6,5.1,26.9-1C401.9,286,386.3,286.6,380.3,276.9L380.3,276.9z"/>
	</g>
	<path class="st1" d="M423.8,242.8c-0.6,1-1.9,1.3-2.9,0.6c-1.8-1.1-6.9-1.2-8.9-0.6c-2.7,0.9-5.8,2.1-6.6,0.4
		c-0.1-0.3,1.5-3.3,6.8-3.7S421.3,242.4,423.8,242.8L423.8,242.8z"/>
	<path class="st1" d="M363.6,242.8c0.6,1,1.9,1.3,2.9,0.6c1.8-1.1,6.9-1.2,8.9-0.6c2.7,0.9,5.8,2.1,6.6,0.4c0.1-0.3-1.5-3.3-6.8-3.7
		S366,242.4,363.6,242.8L363.6,242.8z"/>
</g>
</svg>
