<?xml version="1.0" encoding="utf-8"?>
<!-- Generator: Adobe Illustrator 26.0.2, SVG Export Plug-In . SVG Version: 6.00 Build 0)  -->
<svg version="1.1" id="Calque_1" xmlns="http://www.w3.org/2000/svg" xmlns:xlink="http://www.w3.org/1999/xlink" x="0px" y="0px"
	 viewBox="0 0 788 1005" style="enable-background:new 0 0 788 1005;" xml:space="preserve">
<style type="text/css">
	.st0{fill:#FFFFFF;}
	.st1{fill:#3E9ACE;}
	.st2{clip-path:url(#SVGID_00000025422685975153412830000001499790125540853937_);}
	.st3{fill:#60131D;}
	.st4{clip-path:url(#SVGID_00000096030402051587345000000007719130606020086939_);}
	.st5{fill:#5E3E35;}
	.st6{fill:#66183F;}
	.st7{fill:#BFBFBF;}
</style>
<g id="Calque_10">
	<circle class="st0" cx="373.6" cy="242.6" r="6.8"/>
	<circle class="st0" cx="413.8" cy="242.6" r="6.8"/>
	<circle class="st1" cx="371.4" cy="240.9" r="3.3"/>
	<circle class="st1" cx="411.7" cy="240.9" r="3.3"/>
	<g>
		<g>
			<defs>
				<rect id="SVGID_1_" x="360.5" y="223.1" width="23.1" height="7"/>
			</defs>
			<clipPath id="SVGID_00000030460007321790279490000010456656694810834109_">
				<use xlink:href="#SVGID_1_"  style="overflow:visible;"/>
			</clipPath>
			<g style="clip-path:url(#SVGID_00000030460007321790279490000010456656694810834109_);">
				<g>
					<path class="st3" d="M382.7,229c-6.4-3.7-15.6-6.6-21.2-0.1c1.2-4.2,6.3-6.1,10.4-5.8C376.1,223.5,380,225.8,382.7,229
						L382.7,229z"/>
				</g>
			</g>
		</g>
	</g>
	<g>
		<g>
			<defs>
				<rect id="SVGID_00000180359776433997169390000003618230727779508155_" x="404.6" y="223.1" width="23.1" height="7"/>
			</defs>
			<clipPath id="SVGID_00000153669039092968634520000015338255620207390895_">
				<use xlink:href="#SVGID_00000180359776433997169390000003618230727779508155_"  style="overflow:visible;"/>
			</clipPath>
			<g style="clip-path:url(#SVGID_00000153669039092968634520000015338255620207390895_);">
				<g>
					<path class="st3" d="M405.6,229c2.7-3.2,6.6-5.5,10.8-5.9c4.1-0.4,9.2,1.5,10.4,5.8C421.2,222.4,412,225.3,405.6,229L405.6,229
						z"/>
				</g>
			</g>
		</g>
	</g>
	<path class="st5" d="M400.9,263.1c0,0-4.7,3.7-7.4,3.7s-7-3.6-7-3.6s5.4,0.7,7.2,0.7S400.9,263.1,400.9,263.1z"/>
	<path class="st6" d="M377.9,277.5c0.3-0.6,1.4-1.6,3.5-2.5c3.4-1.3,6.9-2.1,10.6-2.1c5.9-0.1,11.6,2.1,15.9,6.1
		c0,0-4.6,11.7-15.8,10.9C383.9,289.2,377.9,277.5,377.9,277.5z"/>
	<path class="st7" d="M392.4,277.9l-8.2-0.4l-2.2-0.9c3.6-1.5,7.5-2.1,11.4-2c6.7,0.4,10.3,2.9,10.3,2.9l-1.7,0.8L392.4,277.9z"/>
	<path class="st3" d="M363.6,238.1c0.7,1,2.2,1.3,3.3,0.6c2.1-1.1,4.4-2.8,6.7-2.1c3.1,0.9,2.9,2.9,6.8,3.3c0.3,0-0.8-6.2-7-6.5
		S366.3,237.7,363.6,238.1z"/>
	<path class="st3" d="M422.1,237.3c-0.6,1-1.9,1.3-2.9,0.6c-1.8-1.1-3.8-2.8-5.8-2.1c-2.7,0.9-2.5,2.9-5.9,3.3
		c-0.3,0,0.7-6.2,6.1-6.5S419.6,236.9,422.1,237.3z"/>
</g>
</svg>
