<?xml version="1.0" encoding="utf-8"?>
<!-- Generator: Adobe Illustrator 26.0.2, SVG Export Plug-In . SVG Version: 6.00 Build 0)  -->
<svg version="1.1" id="Layer_1" xmlns="http://www.w3.org/2000/svg" xmlns:xlink="http://www.w3.org/1999/xlink" x="0px" y="0px"
	 viewBox="0 0 200 200" style="enable-background:new 0 0 200 200;" xml:space="preserve">
<style type="text/css">
	.st0{clip-path:url(#SVGID_00000105397373893981284410000006621792595463844773_);}
	.st1{fill:#60131D;}
	.st2{clip-path:url(#SVGID_00000023266625543953907320000003345300451619501955_);}
	.st3{fill:#5E3E35;}
	.st4{fill:#6B3457;}
</style>
<g id="Calque_10_00000019659383673959856280000009110790659063740059_">
	<g>
		<g>
			<defs>
				<rect id="SVGID_1_" x="67.5" y="96.7" width="22.1" height="6.1"/>
			</defs>
			<clipPath id="SVGID_00000060001272630044956950000007865570576634402741_">
				<use xlink:href="#SVGID_1_"  style="overflow:visible;"/>
			</clipPath>
			<g style="clip-path:url(#SVGID_00000060001272630044956950000007865570576634402741_);">
				<g>
					<path class="st1" d="M88.6,98.6c-3.6-0.1-7-0.2-10.2,0.4c-3.3,0.6-6.6,1.9-9.9,2.8C73.8,96.9,82.1,95.1,88.6,98.6L88.6,98.6z"
						/>
				</g>
			</g>
		</g>
	</g>
	<g>
		<g>
			<defs>
				<rect id="SVGID_00000116234071107860733300000006286301046343048347_" x="110.4" y="96.7" width="22.1" height="6.1"/>
			</defs>
			<clipPath id="SVGID_00000063612741374631590670000016989702638226720699_">
				<use xlink:href="#SVGID_00000116234071107860733300000006286301046343048347_"  style="overflow:visible;"/>
			</clipPath>
			<g style="clip-path:url(#SVGID_00000063612741374631590670000016989702638226720699_);">
				<g>
					<path class="st1" d="M111.4,98.6c6.5-3.5,14.8-1.7,20.1,3.2c-3.3-1-6.6-2.2-9.9-2.8C118.4,98.4,115,98.5,111.4,98.6L111.4,98.6
						z"/>
				</g>
			</g>
		</g>
	</g>
	<path class="st3" d="M106.9,136.4c0,0-4.7,2.7-7.4,2.7s-7-2.6-7-2.6s5.4,0.5,7.2,0.5C101.5,137,106.9,136.4,106.9,136.4z"/>
	<g>
		<path class="st4" d="M86.2,147.3c8.8,5.6,18.6,5.1,26.9-1C107.8,156.3,92.2,157,86.2,147.3L86.2,147.3z"/>
	</g>
	<path class="st1" d="M129.7,113.2c-0.6,1-1.9,1.3-2.9,0.6c-1.8-1.1-6.9-1.2-8.9-0.6c-2.7,0.9-5.8,2.1-6.6,0.4
		c-0.1-0.3,1.5-3.3,6.8-3.7S127.2,112.8,129.7,113.2L129.7,113.2z"/>
	<path class="st1" d="M69.5,113.2c0.6,1,1.9,1.3,2.9,0.6c1.8-1.1,6.9-1.2,8.9-0.6c2.7,0.9,5.8,2.1,6.6,0.4c0.1-0.3-1.5-3.3-6.8-3.7
		S71.9,112.8,69.5,113.2L69.5,113.2z"/>
</g>
</svg>
