<?xml version="1.0" encoding="utf-8"?>
<!-- Generator: Adobe Illustrator 26.0.2, SVG Export Plug-In . SVG Version: 6.00 Build 0)  -->
<svg version="1.1" id="Layer_1" xmlns="http://www.w3.org/2000/svg" xmlns:xlink="http://www.w3.org/1999/xlink" x="0px" y="0px"
	 viewBox="0 0 200 200" style="enable-background:new 0 0 200 200;" xml:space="preserve">
<style type="text/css">
	.st0{fill:#FFFFFF;}
	.st1{fill:#3E9ACE;}
	.st2{fill:#60131D;}
	.st3{fill:#5E3E35;}
	.st4{fill:#662C34;}
</style>
<g id="Calque_10_00000145024288679841750560000005483392707181101754_">
	<circle class="st0" cx="80.5" cy="116.1" r="5.1"/>
	<circle class="st1" cx="80.5" cy="116.1" r="3.9"/>
	<g>
		<path class="st2" d="M110.9,104.5c3.6-0.7,7-0.5,10.6,0.1c3.5,0.7,6.9,2.2,9.6,4.7c-1.8-0.1-3.5-0.5-5.2-0.8
			C120.9,107.5,115.5,106.8,110.9,104.5L110.9,104.5z"/>
	</g>
	<g>
		<path class="st2" d="M88.7,104c-4.8-1.8-9.7-2.3-14.6-0.7c-1.6,0.5-3.1,1.2-4.8,2.1C72.6,98.1,84.4,97.2,88.7,104L88.7,104z"/>
	</g>
	<path class="st3" d="M106.2,134.9c0,0-4.5,3.6-7.1,3.6c-2.5,0-6.7-3.5-6.7-3.5s5.2,0.7,6.9,0.7C101,135.7,106.2,134.9,106.2,134.9z
		"/>
	<g>
		<path class="st4" d="M86.4,149.2c8.5,5.3,17.8,4.9,25.9-1C107.2,157.9,92.1,158.6,86.4,149.2L86.4,149.2z"/>
	</g>
	<path class="st2" d="M71.8,114.1c0.6,1,1.8,1.3,2.8,0.6c1.7-1.1,3.7-2.7,5.6-2c2.6,0.9,2.4,2.8,5.7,3.2c0.3,0-0.7-6-5.9-6.3
		C74.7,109.3,74.1,113.7,71.8,114.1z"/>
	<path class="st2" d="M126.9,116.6c-0.6,1-1.8,1.3-2.8,0.6c-1.7-1.1-6.6-1.2-8.6-0.6c-2.6,0.9-5.6,2-6.4,0.4
		c-0.1-0.3,1.4-3.2,6.5-3.6S124.5,116.2,126.9,116.6L126.9,116.6z"/>
</g>
</svg>
