<?xml version="1.0" encoding="utf-8"?>
<!-- Generator: Adobe Illustrator 26.0.2, SVG Export Plug-In . SVG Version: 6.00 Build 0)  -->
<svg version="1.1" id="Layer_1" xmlns="http://www.w3.org/2000/svg" xmlns:xlink="http://www.w3.org/1999/xlink" x="0px" y="0px"
	 viewBox="0 0 200 200" style="enable-background:new 0 0 200 200;" xml:space="preserve">
<style type="text/css">
	.st0{fill:#FFFFFF;}
	.st1{fill:#3E9ACE;}
	.st2{fill:#60131D;}
	.st3{fill:#5E3E35;}
	.st4{fill:#662C34;}
</style>
<g id="Calque_10_00000019670265954926793200000017792253284926441368_">
	<circle class="st0" cx="80.8" cy="115.6" r="5"/>
	<circle class="st1" cx="80.8" cy="115.6" r="3.7"/>
	<g>
		<path class="st2" d="M88.8,103.8c-4.7-1.7-9.4-2.2-14.2-0.7c-1.5,0.5-3,1.2-4.7,2C73.1,98,84.6,97.2,88.8,103.8L88.8,103.8z"/>
	</g>
	<path class="st3" d="M105.8,133.9c0,0-4.4,3.5-6.9,3.5c-2.4,0-6.5-3.4-6.5-3.4s5.1,0.7,6.7,0.7
		C100.8,134.6,105.8,133.9,105.8,133.9z"/>
	<g>
		<path class="st4" d="M86.6,147.7c8.3,5.1,17.2,4.7,25.2-0.8C106.8,156.3,92,156.9,86.6,147.7L86.6,147.7z"/>
	</g>
	<path class="st2" d="M72.3,113.7c0.6,0.9,1.8,1.2,2.7,0.6c1.7-1,3.6-2.6,5.4-2c2.5,0.8,2.3,2.7,5.5,3.1c0.3,0-0.7-5.8-5.7-6.1
		C75.2,109,74.6,113.3,72.3,113.7z"/>
	<circle class="st0" cx="117.3" cy="115.6" r="5"/>
	<circle class="st1" cx="117.4" cy="115.6" r="3.7"/>
	<g>
		<path class="st2" d="M109.4,103.8c4.2-6.7,15.7-5.8,18.9,1.3c-1.6-0.8-3.2-1.5-4.7-2C118.8,101.6,114.1,102.1,109.4,103.8
			L109.4,103.8z"/>
	</g>
	<path class="st2" d="M125.9,113.7c-0.6,0.9-1.8,1.2-2.7,0.6c-1.7-1-3.6-2.6-5.4-2c-2.5,0.8-2.3,2.7-5.5,3.1c-0.3,0,0.7-5.8,5.7-6.1
		S123.6,113.3,125.9,113.7z"/>
</g>
</svg>
