<svg xmlns="http://www.w3.org/2000/svg" viewBox="0 0 138.97 166.1"><defs><style>.cls-1{fill:#87442d;}.cls-2{fill:#aa5b3f;}.cls-3{fill:#3c2824;}</style></defs><g id="cheuveu"><path class="cls-1" d="M108.34,111,111.5,87.2s12.34-9.83,20-3.7c4.81,3.85-4.66,29.41-13.13,31.26C113.53,115.82,108.34,111,108.34,111Z"/><path class="cls-1" d="M30.63,111,27.46,87.2s-12.34-9.83-20-3.7c-4.81,3.85,4.65,29.41,13.13,31.26C25.44,115.82,30.63,111,30.63,111Z"/><path class="cls-2" d="M67.59,152.74c-3.18-.28-7.5-.38-9.81-1.25-5.68-2.15-12.31-8-19.4-14.56a24.16,24.16,0,0,1-4.17-4.71c-3.72-6.15-5.58-21-5.73-28.16a125.87,125.87,0,0,0-1.73-16.71l-4.26-3,.37-21.59c0-22.38,21.58-41.36,44-41.36h4.75c22.38,0,44,19,44,41.36l.36,21.59-4.26,3a125.87,125.87,0,0,0-1.73,16.71c-.15,7.18-2,22-5.73,28.16a24.16,24.16,0,0,1-4.17,4.71c-7.08,6.57-13.72,12.41-19.39,14.56-2.32.87-6.64,1-9.81,1.25"/><path class="cls-3" d="M22.49,84.33s1.24-18.88,2.9-23.5c2.3-6.44,7-17.49,13.4-19.83,6.82-2.49,24.31,1.8,31.56,1.92,6.83.1,20.71-5.48,27.15-3.18,4.08,1.46,9.2,9.49,11.06,13.43,3.34,7.08,7.35,31.16,7.35,31.16s2.76-22.44,1-30.48C115.3,46.77,105.74,31.34,99.94,27s-20.82-6.47-28-7.22-22.11.94-28.73,3.9c-6.27,2.79-16,13.52-19.39,19.49-2.09,3.63-4.42,12-4.31,16.18C19.64,64.79,22.49,84.33,22.49,84.33Z"/></g></svg>