<svg xmlns="http://www.w3.org/2000/svg" viewBox="0 0 138.97 166.1"><defs><style>.cls-1{fill:#472e1d;}.cls-2{fill:#87442d;}.cls-3{fill:#aa5b3f;}</style></defs><g id="cheuveu"><circle class="cls-1" cx="69.48" cy="77.36" r="62.11"/><path class="cls-2" d="M103.54,119.76l2.75-20.63s10.72-8.54,17.38-3.21c4.18,3.34-4,25.54-11.41,27.15C108.05,124,103.54,119.76,103.54,119.76Z"/><path class="cls-2" d="M36,119.76,33.29,99.13s-10.71-8.54-17.37-3.21c-4.18,3.34,4,25.54,11.4,27.15C31.54,124,36,119.76,36,119.76Z"/><path class="cls-3" d="M68.15,156.05c-2.76-.23-6.52-.32-8.53-1.08-4.92-1.86-10.69-6.94-16.84-12.65a20.81,20.81,0,0,1-3.63-4.09c-3.23-5.33-4.84-18.22-5-24.46a109.9,109.9,0,0,0-1.5-14.51L29,96.64l.31-18.75C29.29,58.45,48.05,42,67.49,42h4.12c19.44,0,38.2,16.5,38.2,35.94l.31,18.75-3.7,2.62a108,108,0,0,0-1.5,14.51c-.13,6.24-1.75,19.13-5,24.46a20.39,20.39,0,0,1-3.62,4.09C90.17,148,84.4,153.11,79.47,155c-2,.76-5.76.85-8.52,1.08"/><path class="cls-1" d="M109.13,97.34h0a2.22,2.22,0,0,1-3.47-1.44c-1-5.86-2.42-17.43-2.59-18.8a2.45,2.45,0,0,1,0-.27V64.18A2.22,2.22,0,0,0,100.69,62L69,64.1h-.31L38.42,62A2.22,2.22,0,0,0,36,64.19V76.83a1.23,1.23,0,0,1,0,.27C35.85,78.47,34.4,90,33.43,95.9A2.22,2.22,0,0,1,30,97.34h0a2.24,2.24,0,0,1-.94-1.9c.25-6-4.09-49.58-.36-57.47,3.37-7.13,18.92-9.79,26.5-12,6.34-1.82,20-1.82,26.39,0,7.58,2.19,25.52,2.72,28.89,9.86,3.73,7.88-.61,53.64-.37,59.59A2.22,2.22,0,0,1,109.13,97.34Z"/></g></svg>