<svg xmlns="http://www.w3.org/2000/svg" viewBox="0 0 788 1005"><defs><style>.cls-1{fill:#87442d;}.cls-2{fill:#aa5b3f;}.cls-3{fill:#3c2824;}</style></defs><g id="Tete"><path class="cls-1" d="M432.34,127.92l3-22.8s11.84-9.44,19.2-3.56c4.62,3.7-4.47,28.24-12.61,30C437.32,132.59,432.34,127.92,432.34,127.92Z"/><path class="cls-1" d="M357.72,127.92l-3-22.8s-11.85-9.44-19.21-3.56c-4.62,3.7,4.47,28.24,12.61,30C352.74,132.59,357.72,127.92,357.72,127.92Z"/><path class="cls-2" d="M393.2,168c-3.05-.26-7.19-.36-9.42-1.2-5.44-2.06-11.82-7.67-18.62-14a23,23,0,0,1-4-4.52c-3.57-5.9-5.35-20.14-5.5-27a119.26,119.26,0,0,0-1.65-16l-4.1-2.9.35-20.73c0-21.49,20.73-39.72,42.22-39.72H397c21.49,0,42.22,18.23,42.22,39.72l.35,20.73-4.1,2.9a121.15,121.15,0,0,0-1.65,16c-.15,6.9-1.93,21.14-5.5,27a23,23,0,0,1-4,4.52c-6.8,6.31-13.18,11.92-18.62,14-2.22.84-6.37.94-9.42,1.2"/><path class="cls-1" d="M432.34,127.92l3-22.8s11.84-9.44,19.2-3.56c4.62,3.7-4.47,28.24-12.61,30C437.32,132.59,432.34,127.92,432.34,127.92Z"/><path class="cls-1" d="M357.72,127.92l-3-22.8s-11.85-9.44-19.21-3.56c-4.62,3.7,4.47,28.24,12.61,30C352.74,132.59,357.72,127.92,357.72,127.92Z"/><path class="cls-2" d="M393.2,168c-3.05-.26-7.19-.36-9.42-1.2-5.44-2.06-11.82-7.67-18.62-14a23,23,0,0,1-4-4.52c-3.57-5.9-5.35-20.14-5.5-27a119.26,119.26,0,0,0-1.65-16l-4.1-2.9.35-20.73c0-21.49,20.73-39.72,42.22-39.72H397c21.49,0,42.22,18.23,42.22,39.72l.35,20.73-4.1,2.9a121.15,121.15,0,0,0-1.65,16c-.15,6.9-1.93,21.14-5.5,27a23,23,0,0,1-4,4.52c-6.8,6.31-13.18,11.92-18.62,14-2.22.84-6.37.94-9.42,1.2"/></g><g id="cheuveu"><path class="cls-3" d="M366.65,64.52c-17.93-2.63-15.6-22.91-7.2-31.18,14.52-14.29,75-23.24,90-11.32,4.47,3.54-8.46,81.43-9.86,80.34-8.92-7-13.75-18.88-14.28-26.35-.6-8.35,2.62-20.65-31.59-11.13C391.27,65.56,369.18,64.89,366.65,64.52Z"/><path class="cls-3" d="M348.84,45.35c8.88-4.27,13.27,13,13.6,18.8.59,10-9.33,35.2-12.54,38.21s-7.06-3.39-7.2-3.92S328,55.34,348.84,45.35Z"/></g></svg>