<svg xmlns="http://www.w3.org/2000/svg" viewBox="0 0 138.97 166.1"><defs><style>.cls-1{fill:#87442d;}.cls-2{fill:#aa5b3f;}.cls-3{fill:#0071bc;}.cls-4{fill:#1b1464;}</style></defs><g id="cheuveu"><path class="cls-1" d="M94.53,110.71l2.93-21.94s11.4-9.08,18.48-3.42c4.44,3.55-4.3,27.17-12.13,28.88C99.33,115.21,94.53,110.71,94.53,110.71Z"/><path class="cls-1" d="M22.73,110.71,19.8,88.77S8.4,79.69,1.32,85.35c-4.45,3.55,4.3,27.17,12.13,28.88C17.93,115.21,22.73,110.71,22.73,110.71Z"/><path class="cls-2" d="M56.88,149.32c-2.94-.25-6.93-.35-9.07-1.15-5.24-2-11.37-7.38-17.92-13.46A22,22,0,0,1,26,130.36c-3.44-5.67-5.16-19.38-5.3-26A115.77,115.77,0,0,0,19.15,88.9l-3.94-2.78.34-20C15.55,45.49,35.49,28,56.17,28h4.39c20.68,0,40.63,17.54,40.63,38.22l.34,20L97.59,88.9A115.77,115.77,0,0,0,96,104.34c-.14,6.64-1.86,20.35-5.3,26a21.74,21.74,0,0,1-3.86,4.35c-6.54,6.08-12.67,11.48-17.91,13.46-2.14.8-6.13.9-9.07,1.15"/><path class="cls-3" d="M15.38,65.92c0-20.73,8.95-50.76,39-49.08H64c46.14-1.16,38,49.56,38,49.56S80,57,58.6,56.54A98.73,98.73,0,0,0,15.38,65.92Z"/><path class="cls-4" d="M41.28,57.66s49.89-24.58,62.24-23.49c10.39.91,42.8,16.51,33.75,29.74l-36,8S95.9,62.16,78.36,59.41C63.25,57,41.28,57.66,41.28,57.66Z"/></g></svg>