<svg xmlns="http://www.w3.org/2000/svg" viewBox="0 0 138.97 166.1"><defs><style>.cls-1{fill:#87442d;}.cls-2{fill:#aa5b3f;}.cls-3{fill:#736357;}.cls-4{fill:#534741;}</style></defs><g id="cheuveu"><path class="cls-1" d="M95.23,110.71l2.93-21.94s11.4-9.08,18.48-3.42c4.45,3.55-4.3,27.17-12.13,28.88C100,115.21,95.23,110.71,95.23,110.71Z"/><path class="cls-1" d="M23.43,110.71,20.51,88.77S9.1,79.69,2,85.35c-4.44,3.55,4.3,27.17,12.14,28.88C18.64,115.21,23.43,110.71,23.43,110.71Z"/><path class="cls-2" d="M57.58,149.32c-2.94-.25-6.93-.35-9.07-1.15-5.24-2-11.37-7.38-17.91-13.46a21.74,21.74,0,0,1-3.86-4.35c-3.44-5.67-5.16-19.38-5.29-26a116.79,116.79,0,0,0-1.6-15.44l-3.94-2.78.34-20C16.25,45.49,36.2,28,56.88,28h4.39C82,28,101.9,45.49,101.9,66.17l.33,20L98.29,88.9a115.77,115.77,0,0,0-1.59,15.44c-.14,6.64-1.86,20.35-5.29,26a22.06,22.06,0,0,1-3.86,4.35c-6.55,6.08-12.68,11.48-17.92,13.46-2.14.8-6.13.9-9.06,1.15"/><path class="cls-3" d="M16.08,65.92c0-20.73,9-50.76,39-49.08h9.62c46.15-1.16,38,49.56,38,49.56S80.73,57,59.3,56.54A98.78,98.78,0,0,0,16.08,65.92Z"/><path class="cls-4" d="M40.58,57.66s49.88-24.58,62.23-23.49c10.4.91,42.81,16.51,33.76,29.74l-36,8s-5.38-9.76-22.91-12.51C62.54,57,40.58,57.66,40.58,57.66Z"/></g></svg>