<svg xmlns="http://www.w3.org/2000/svg" viewBox="0 0 788 1005"><defs><style>.cls-1{fill:#87442d;}.cls-2{fill:#aa5b3f;}.cls-3{fill:#472e1d;}</style></defs><g id="Tete"><path class="cls-1" d="M432.34,127.92l3-22.8s11.84-9.44,19.2-3.56c4.62,3.7-4.47,28.24-12.61,30C437.32,132.59,432.34,127.92,432.34,127.92Z"/><path class="cls-1" d="M357.72,127.92l-3-22.8s-11.85-9.44-19.21-3.56c-4.62,3.7,4.47,28.24,12.61,30C352.74,132.59,357.72,127.92,357.72,127.92Z"/><path class="cls-2" d="M393.2,168c-3.05-.26-7.19-.36-9.42-1.2-5.44-2.06-11.82-7.67-18.62-14a23,23,0,0,1-4-4.52c-3.57-5.9-5.35-20.14-5.5-27a119.26,119.26,0,0,0-1.65-16l-4.1-2.9.35-20.73c0-21.49,20.73-39.72,42.22-39.72H397c21.49,0,42.22,18.23,42.22,39.72l.35,20.73-4.1,2.9a121.15,121.15,0,0,0-1.65,16c-.15,6.9-1.93,21.14-5.5,27a23,23,0,0,1-4,4.52c-6.8,6.31-13.18,11.92-18.62,14-2.22.84-6.37.94-9.42,1.2"/></g><g id="cheuveu"><path class="cls-3" d="M438.51,103.13h0a2.44,2.44,0,0,1-3.83-1.59c-1.08-6.47-2.68-19.26-2.87-20.78,0-.1,0-.2,0-.3v-14A2.45,2.45,0,0,0,429.18,64l-35,2.36h-.34L360.34,64a2.45,2.45,0,0,0-2.63,2.45v14c0,.1,0,.2,0,.3-.19,1.52-1.8,14.31-2.87,20.78a2.45,2.45,0,0,1-3.84,1.59h0a2.41,2.41,0,0,1-1-2.09c.27-6.59-4.53-54.82-.41-63.53,3.73-7.89,20.92-10.83,29.3-13.24,7-2,22.16-2,29.17,0,8.38,2.41,28.22,3,31.94,10.89,4.12,8.71-.68,59.29-.41,65.88A2.44,2.44,0,0,1,438.51,103.13Z"/></g></svg>