<svg xmlns="http://www.w3.org/2000/svg" viewBox="0 0 138.97 166.1"><defs><style>.cls-1{fill:#87442d;}.cls-2{fill:#aa5b3f;}.cls-3{fill:#ff931e;}.cls-4{fill:#c1272d;}</style></defs><g id="cheuveu"><path class="cls-1" d="M92.54,110.71l2.93-21.94s11.4-9.08,18.48-3.42c4.45,3.55-4.3,27.17-12.13,28.88C97.34,115.21,92.54,110.71,92.54,110.71Z"/><path class="cls-1" d="M20.74,110.71,17.81,88.77S6.41,79.69-.67,85.35c-4.44,3.55,4.3,27.17,12.13,28.88C16,115.21,20.74,110.71,20.74,110.71Z"/><path class="cls-2" d="M54.89,149.32c-2.94-.25-6.93-.35-9.07-1.15-5.24-2-11.37-7.38-17.91-13.46a21.74,21.74,0,0,1-3.86-4.35c-3.44-5.67-5.16-19.38-5.3-26A115.77,115.77,0,0,0,17.16,88.9l-3.94-2.78.34-20C13.56,45.49,33.51,28,54.19,28h4.39C79.26,28,99.2,45.49,99.2,66.17l.34,20L95.6,88.9A115.77,115.77,0,0,0,94,104.34c-.14,6.64-1.86,20.35-5.3,26a22,22,0,0,1-3.85,4.35c-6.55,6.08-12.68,11.48-17.92,13.46-2.14.8-6.13.9-9.07,1.15"/><path class="cls-3" d="M13.39,65.92c0-20.73,9-50.76,39-49.08H62c46.15-1.16,38,49.56,38,49.56S78,57,56.61,56.54A98.78,98.78,0,0,0,13.39,65.92Z"/><path class="cls-4" d="M37.89,57.66s49.88-24.58,62.23-23.49c10.4.91,42.81,16.51,33.76,29.74l-36,8S92.5,62.16,75,59.41C59.85,57,37.89,57.66,37.89,57.66Z"/></g></svg>