<svg xmlns="http://www.w3.org/2000/svg" viewBox="0 0 138.97 166.1"><defs><style>.cls-1{fill:#87442d;}.cls-2{fill:#aa5b3f;}.cls-3{fill:#472e1d;}</style></defs><g id="cheuveu"><path class="cls-1" d="M106.79,115.57l3-22.8s11.85-9.44,19.21-3.55c4.62,3.69-4.47,28.23-12.61,30C111.77,120.24,106.79,115.57,106.79,115.57Z"/><path class="cls-1" d="M32.17,115.57l-3-22.8S17.29,83.33,9.92,89.22c-4.61,3.69,4.48,28.23,12.61,30C27.19,120.24,32.17,115.57,32.17,115.57Z"/><path class="cls-2" d="M67.66,155.69c-3-.26-7.2-.36-9.42-1.2-5.44-2.06-11.82-7.67-18.62-14a23,23,0,0,1-4-4.52c-3.57-5.9-5.36-20.14-5.5-27a120.26,120.26,0,0,0-1.66-16L24.36,90l.35-20.73c0-21.49,20.73-39.72,42.22-39.72h4.56c21.49,0,42.22,18.23,42.22,39.72L114.06,90,110,92.91a120.26,120.26,0,0,0-1.66,16c-.14,6.9-1.93,21.14-5.5,27a23,23,0,0,1-4,4.52c-6.8,6.31-13.17,11.92-18.62,14-2.22.84-6.37.94-9.42,1.2"/><path class="cls-3" d="M113,90.78h0a2.45,2.45,0,0,1-3.84-1.59c-1.07-6.47-2.67-19.26-2.86-20.78,0-.1,0-.2,0-.3v-14a2.46,2.46,0,0,0-2.62-2.45L68.62,54h-.33L34.8,51.69a2.45,2.45,0,0,0-2.63,2.45v14c0,.1,0,.2,0,.3-.19,1.52-1.79,14.31-2.86,20.78a2.45,2.45,0,0,1-3.84,1.59h0a2.44,2.44,0,0,1-1-2.09c.28-6.59-4.52-54.82-.4-63.53,3.72-7.89,20.92-10.83,29.3-13.24,7-2,22.16-2,29.17,0,8.38,2.41,28.21,3,31.94,10.89,4.11,8.72-.68,59.29-.41,65.88A2.44,2.44,0,0,1,113,90.78Z"/></g></svg>