<?xml version="1.0" encoding="utf-8"?>
<!-- Generator: Adobe Illustrator 26.0.3, SVG Export Plug-In . SVG Version: 6.00 Build 0)  -->
<svg version="1.1" id="Calque_1" xmlns="http://www.w3.org/2000/svg" xmlns:xlink="http://www.w3.org/1999/xlink" x="0px" y="0px"
	 viewBox="0 0 788 1005" style="enable-background:new 0 0 788 1005;" xml:space="preserve">
<style type="text/css">
	.st0{fill:#B85727;}
	.st1{fill:#6A2C18;}
	.st2{fill:#7EA885;}
</style>
<path class="st0" d="M454.5,101.5c-4.5-3.5-10.7-1.4-14.8,0.8l-0.4-20.6c0-21.5-20.7-39.7-42.2-39.7h-4.5
	c-21.5,0-42.2,18.2-42.2,39.7l-0.4,20.4c-4.1-2.1-10.1-4.1-14.5-0.6c-4.6,3.7,4.5,28.2,12.6,30c3.1,0.7,6.3-1.1,8.2-2.4
	c0.8,6.9,2.4,15.1,4.9,19.2c1.1,1.7,2.5,3.2,4,4.5c6.8,6.3,13.2,11.9,18.6,14c2.2,0.8,6.4,0.9,9.4,1.2h3.3c3-0.3,7.2-0.4,9.4-1.2
	c5.4-2.1,11.8-7.7,18.6-14c1.5-1.3,2.9-2.8,4-4.5c2.5-4.2,4.2-12.5,5-19.4c1.7,1.3,5.2,3.4,8.4,2.6
	C450,129.7,459.1,105.2,454.5,101.5z"/>
<path class="st1" d="M441.9,67c-1.5-7-11-22.3-16.8-26.6s-20.6-6.4-27.7-7.1c-7.1-0.7-21.9,0.9-28.4,3.8
	c-6.2,2.8-15.8,13.4-19.2,19.3c-2.1,3.6-4.3,11.9-4.2,16c0.2,5.4,4.1,27.5,4.1,27.5s0-0.1,0-0.2c0.5,3.1,0.8,5.3,0.8,5.3
	s0.6-20.7,2.2-25.2c2.2-6.2,6.7-16.8,12.9-19c6.5-2.4,23.3,1.7,30.3,1.8c6.6,0.1,19.9-5.3,26.1-3c3.9,1.4,8.8,9.1,10.6,12.9
	c3.2,6.8,6.6,36.5,6.6,36.5s0.7-6,1.2-13.2C441.5,87.6,443.2,72.6,441.9,67z"/>
<path class="st2" d="M356,80.8l12.5-4.5c15.6-5.5,33.2-5.7,48.9-0.6l15.5,5.1c2.9,0.9,6.2-0.4,7-2.9l1.1-7.6
	c0.9-3.3-8.1-13.3-16.1-18.5c-5.5-3.8-12-6.1-18.9-6.8c-6.5-0.7-13-0.7-19.4-0.2c-6.2,0.5-12,2.4-17.1,5.4
	c-9.9,5.6-23.6,20.4-22.6,23l2.1,5C349.9,80.6,353.2,81.8,356,80.8z"/>
<circle class="st2" cx="350.3" cy="126.3" r="2.7"/>
<g>
	<path class="st1" d="M403.8,129c2-0.8-0.5-3,1.3-3.9c2.5,4.9,1.5,6.1-4.9,6.1C400.2,128.6,402.3,129.3,403.8,129z"/>
	<path class="st1" d="M403.8,129c-1.2,0.8-2.4,1.5-3.6,2.3c-0.4,0.1-0.7,0.1-1.1,0.1c-1.2,0.4-1.5-0.1-1.2-1.2
		C399.7,128.6,401.3,126.5,403.8,129z"/>
	<path class="st1" d="M386.2,128.9c-2-0.8,0.5-3-1.3-3.9c-2.5,4.9-1.5,6.1,4.9,6.1C389.9,128.5,387.7,129.2,386.2,128.9z"/>
	<path class="st1" d="M386.2,128.9c1.2,0.8,2.4,1.5,3.6,2.3c0.4,0.1,0.7,0.1,1.1,0.1c1.2,0.4,1.5-0.1,1.2-1.2
		C390.4,128.6,388.8,126.5,386.2,128.9z"/>
	<path class="st1" d="M390.9,131.4c0.4-0.4,0.8-0.9,1.2-1.2c2,1.1,3.8,1.4,5.8,0c0.4,0.4,0.8,0.8,1.2,1.2
		C396.4,133.1,393.7,133.2,390.9,131.4z"/>
</g>
</svg>
