<?xml version="1.0" encoding="utf-8"?>
<!-- Generator: Adobe Illustrator 26.0.3, SVG Export Plug-In . SVG Version: 6.00 Build 0)  -->
<svg version="1.1" id="Calque_1" xmlns="http://www.w3.org/2000/svg" xmlns:xlink="http://www.w3.org/1999/xlink" x="0px" y="0px"
	 viewBox="0 0 200 200" style="enable-background:new 0 0 200 200;" xml:space="preserve">
<style type="text/css">
	.st0{fill:#B85727;}
	.st1{fill:#D3D3D3;}
	.st2{fill:#6A2C18;}
</style>
<g>
	<path class="st0" d="M160.2,106.6c-4.5-3.5-10.7-1.4-14.8,0.8L145,86.8c0-21.5-20.7-39.7-42.2-39.7h-4.5
		c-21.5,0-42.2,18.2-42.2,39.7l-0.4,20.4c-4.1-2.1-10.1-4.1-14.5-0.6c-4.6,3.7,4.5,28.2,12.6,30c3.1,0.7,6.3-1.1,8.2-2.4
		c0.8,6.9,2.4,15.1,4.9,19.2c1.1,1.7,2.5,3.2,4,4.5c6.8,6.3,13.2,11.9,18.6,14c2.2,0.8,6.4,0.9,9.4,1.2h3.3c3-0.3,7.2-0.4,9.4-1.2
		c5.4-2.1,11.8-7.7,18.6-14c1.5-1.3,2.9-2.8,4-4.5c2.5-4.2,4.2-12.5,5-19.4c1.7,1.3,5.2,3.4,8.4,2.6
		C155.7,134.8,164.8,110.3,160.2,106.6z"/>
	<circle class="st1" cx="55.4" cy="129.8" r="3.4"/>
	<g id="Calque_6_00000138574580992109259530000004055695868823735972_">
		<path class="st2" d="M124.4,63.1c0,0-14.2,7.6-21,11.1c-5.8,3-21.9,1-21.9,1s-12.6,7-16.1,10.1c-7,6.3-8.3,16.1-8.3,16.1
			s-8-20.5-3.6-31.4c-1.7,1.4,28.3-28,28.3-28s11-7.8,23-6.2c15.9,2,21.6,10.6,21.6,10.6s12.3-4.5,22.1,8.3
			c7.4,9.7,4.2,21.8,4.2,21.8l-6.3,23.8c0,0-2.7-15.9-3.3-18.7c-0.5-1.7-2.5-1.8-3.6-3.1c0,0-6.8-7.2-9.5-12.8
			C128.9,64,124.4,63.1,124.4,63.1z"/>
	</g>
	<path class="st2" d="M125.8,52l-16-16.2c-0.1-0.1-0.1-0.1-0.2-0.2c-2.1-1.2-28.5-15.4-41-4.4c-0.7,0.6-0.4,1.7,0.5,1.9
		c2.9,0.7,8.5,1.7,13,2.5c1.2,0.2,1.2,1.9,0.1,2.1c-9.5,2.1-26.9,7.9-33.4,23.1c-0.4,0.9,0.2,1.7,1.2,1.6c2-0.2,5-0.4,5-0.4
		s-16.5,6.3-14.9,11.2c0.2,0.6,1,1,1.6,0.6c0,0,0,0,0.1,0c1.1-0.5,2.1,0.7,1.3,1.7c-3.2,3.9-6.4,9.4-3.2,12.8
		c0.4,0.4,1.1,0.5,1.6,0.1c1-0.8,2.9-2.4,4.7-3.9c1-0.8,2.3,0.2,1.7,1.3c-4.2,7.5-9.7,20-2,23.1c0.6,0.2,1.2,0,1.4-0.6
		c0.5-1.2,1.4-3.6,2.4-6c0.5-1.2,2.3-0.7,2.1,0.5c-0.6,7.3,0.2,16.2,7.8,14.9c0.6-0.1,1-0.6,1-1.1c0-2.4-0.2-8.7-0.4-9.9
		c0-0.1,0-0.2,0-0.4c1.1-3.2,16.7-49,65.3-52.5C126,53.8,126.5,52.7,125.8,52z"/>
	<path class="st2" d="M121.6,55.3c-1.6-9.3-3.7-29.6,7.6-28.4c1,0.1,1.6,1,1.4,1.9c-0.1,1.4-0.5,3.5-0.8,5.5
		c-0.2,1.7,1.8,2.6,2.9,1.4c5.1-5.2,13.8-12,18.5-2.4c0.4,0.7,0.1,1.7-0.6,2.1c-1.8,1.2-5.4,3.7-8.8,6c-1.4,1-0.7,3.1,1,3.1
		c0.6,0,1.2,0,1.8,0.1c2.1,0.4,1.6,3.6-0.6,3.3c-5.4-0.7-13.7-0.1-19.4,7.9C123.9,57.4,121.9,56.9,121.6,55.3z"/>
	<path class="st2" d="M124.4,63.1c0,0,34.7,1.9,36.5,32.6c0,1-1.6,1.1-2.4,0.5c-1.2-0.7-3-1.9-4.7-3.1c-1.4-1-3.1,0.5-2.5,2
		c2.6,6.8,5,17.8-5.7,17.8c-0.8,0-1.6-0.6-1.7-1.4c-0.4-2.1-1-6.4-1.7-10.5c-0.2-1.7-2.5-2-3.2-0.5c-0.2,0.6-0.6,1.1-0.8,1.6
		c-1.3,1.8-3.9-0.1-2.7-1.9C138.7,94.9,132.6,73,124.4,63.1z"/>
	<g>
		<path class="st2" d="M109.5,134.2c2-0.8-0.5-3,1.3-3.9c2.5,4.9,1.5,6.1-4.9,6.1C105.9,133.8,108,134.5,109.5,134.2z"/>
		<path class="st2" d="M109.5,134.2c-1.2,0.8-2.4,1.5-3.6,2.3c-0.4,0.1-0.7,0.1-1.1,0.1c-1.2,0.4-1.5-0.1-1.2-1.2
			C105.4,133.8,107,131.7,109.5,134.2z"/>
		<path class="st2" d="M91.9,134.1c-2-0.8,0.5-3-1.3-3.9c-2.5,4.9-1.5,6.1,4.9,6.1C95.6,133.7,93.4,134.4,91.9,134.1z"/>
		<path class="st2" d="M91.9,134.1c1.2,0.8,2.4,1.5,3.6,2.3c0.4,0.1,0.7,0.1,1.1,0.1c1.2,0.4,1.5-0.1,1.2-1.2
			C96.1,133.8,94.5,131.7,91.9,134.1z"/>
		<path class="st2" d="M96.6,136.6c0.4-0.4,0.8-0.9,1.2-1.2c2,1.1,3.8,1.4,5.8,0c0.4,0.4,0.8,0.8,1.2,1.2
			C102.1,138.3,99.4,138.4,96.6,136.6z"/>
	</g>
</g>
</svg>
