<?xml version="1.0" encoding="utf-8"?>
<!-- Generator: Adobe Illustrator 26.0.3, SVG Export Plug-In . SVG Version: 6.00 Build 0)  -->
<svg version="1.1" id="Calque_1" xmlns="http://www.w3.org/2000/svg" xmlns:xlink="http://www.w3.org/1999/xlink" x="0px" y="0px"
	 viewBox="0 0 788 1005" style="enable-background:new 0 0 788 1005;" xml:space="preserve">
<style type="text/css">
	.st0{fill:#B85727;}
	.st1{fill:#D3D3D3;}
	.st2{fill:#6A2C18;}
</style>
<path class="st0" d="M454.5,101.5c-4.5-3.5-10.7-1.4-14.8,0.8l-0.4-20.6c0-21.5-20.7-39.7-42.2-39.7h-4.5
	c-21.5,0-42.2,18.2-42.2,39.7l-0.4,20.4c-4.1-2.1-10.1-4.1-14.5-0.6c-4.6,3.7,4.5,28.2,12.6,30c3.1,0.7,6.3-1.1,8.2-2.4
	c0.8,6.9,2.4,15.1,4.9,19.2c1.1,1.7,2.5,3.2,4,4.5c6.8,6.3,13.2,11.9,18.6,14c2.2,0.8,6.4,0.9,9.4,1.2h3.3c3-0.3,7.2-0.4,9.4-1.2
	c5.4-2.1,11.8-7.7,18.6-14c1.5-1.3,2.9-2.8,4-4.5c2.5-4.2,4.2-12.5,5-19.4c1.7,1.3,5.2,3.4,8.4,2.6
	C450,129.7,459.1,105.2,454.5,101.5z"/>
<circle class="st1" cx="349.7" cy="124.7" r="3.4"/>
<g id="Calque_6_00000138574580992109259530000004055695868823735972_">
	<path class="st2" d="M420.2,54.6c0,0-15.1,8.1-22.3,11.8c-6.2,3.2-23.3,1.1-23.3,1.1s-13.4,7.4-17.1,10.7
		c-7.4,6.7-8.8,17.1-8.8,17.1s-8.5-21.8-3.8-33.3c-1.8,1.5,30-29.7,30-29.7s11.7-8.3,24.4-6.6c16.9,2.1,22.9,11.3,22.9,11.3
		s13.1-4.8,23.5,8.8c7.9,10.3,4.5,23.1,4.5,23.1l-6.7,25.3c0,0-2.9-16.9-3.5-19.9c-0.5-1.8-2.7-1.9-3.8-3.3c0,0-7.2-7.6-10.1-13.6
		C425,55.6,420.2,54.6,420.2,54.6z"/>
</g>
<path class="st2" d="M421.7,42.8l-17-17.2c-0.1-0.1-0.1-0.1-0.2-0.2c-2.2-1.3-30.3-16.4-43.5-4.7c-0.7,0.6-0.4,1.8,0.5,2
	c3.1,0.7,9,1.8,13.8,2.7c1.3,0.2,1.3,2,0.1,2.2c-10.1,2.2-28.6,8.4-35.5,24.5c-0.4,1,0.2,1.8,1.3,1.7c2.1-0.2,5.3-0.4,5.3-0.4
	s-17.5,6.7-15.8,11.9c0.2,0.6,1.1,1.1,1.7,0.6c0,0,0,0,0.1,0c1.2-0.5,2.2,0.7,1.4,1.8c-3.4,4.1-6.8,10-3.4,13.6
	c0.4,0.4,1.2,0.5,1.7,0.1c1.1-0.8,3.1-2.5,5-4.1c1.1-0.8,2.4,0.2,1.8,1.4c-4.5,8-10.3,21.2-2.1,24.5c0.6,0.2,1.3,0,1.5-0.6
	c0.5-1.3,1.5-3.8,2.5-6.4c0.5-1.3,2.4-0.7,2.2,0.5c-0.6,7.8,0.2,17.2,8.3,15.8c0.6-0.1,1.1-0.6,1.1-1.2c0-2.5-0.2-9.2-0.4-10.5
	c0-0.1,0-0.2,0-0.4c1.2-3.4,17.7-52,69.3-55.7C421.9,44.7,422.4,43.6,421.7,42.8z"/>
<path class="st2" d="M417.2,46.3c-1.7-9.9-3.9-31.4,8.1-30.2c1.1,0.1,1.7,1.1,1.5,2c-0.1,1.5-0.5,3.7-0.8,5.8
	c-0.2,1.8,1.9,2.8,3.1,1.5c5.4-5.5,14.7-12.7,19.6-2.5c0.4,0.7,0.1,1.8-0.6,2.2c-1.9,1.3-5.7,3.9-9.3,6.4c-1.5,1.1-0.7,3.3,1.1,3.3
	c0.6,0,1.3,0,1.9,0.1c2.2,0.4,1.7,3.8-0.6,3.5c-5.7-0.7-14.5-0.1-20.6,8.4C419.7,48.5,417.5,48,417.2,46.3z"/>
<path class="st2" d="M419.6,53.8c0,0,35.9,3.8,37.8,35.1c0,1-1.6,1.1-2.4,0.5c-1.2-0.7-3.1-1.9-4.8-3.2c-1.4-1-3.2,0.5-2.5,2
	c2.6,6.9,5.1,18.1-5.8,18.1c-0.8,0-1.6-0.6-1.7-1.4c-0.4-2.1-1-6.5-1.7-10.7c-0.2-1.7-2.5-2-3.3-0.5c-0.2,0.6-0.6,1.1-0.8,1.6
	c-1.3,1.8-4-0.1-2.8-1.9C434.8,88.1,428,63.9,419.6,53.8z"/>
<g>
	<path class="st2" d="M403.8,129.1c2-0.8-0.5-3,1.3-3.9c2.5,4.9,1.5,6.1-4.9,6.1C400.2,128.7,402.3,129.4,403.8,129.1z"/>
	<path class="st2" d="M403.8,129.1c-1.2,0.8-2.4,1.5-3.6,2.3c-0.4,0.1-0.7,0.1-1.1,0.1c-1.2,0.4-1.5-0.1-1.2-1.2
		C399.7,128.7,401.3,126.6,403.8,129.1z"/>
	<path class="st2" d="M386.2,129c-2-0.8,0.5-3-1.3-3.9c-2.5,4.9-1.5,6.1,4.9,6.1C389.9,128.6,387.7,129.3,386.2,129z"/>
	<path class="st2" d="M386.2,129c1.2,0.8,2.4,1.5,3.6,2.3c0.4,0.1,0.7,0.1,1.1,0.1c1.2,0.4,1.5-0.1,1.2-1.2
		C390.4,128.7,388.8,126.6,386.2,129z"/>
	<path class="st2" d="M390.9,131.5c0.4-0.4,0.8-0.9,1.2-1.2c2,1.1,3.8,1.4,5.8,0c0.4,0.4,0.8,0.8,1.2,1.2
		C396.4,133.2,393.7,133.3,390.9,131.5z"/>
</g>
</svg>
