<?xml version="1.0" encoding="utf-8"?>
<!-- Generator: Adobe Illustrator 26.0.3, SVG Export Plug-In . SVG Version: 6.00 Build 0)  -->
<svg version="1.1" id="Calque_1" xmlns="http://www.w3.org/2000/svg" xmlns:xlink="http://www.w3.org/1999/xlink" x="0px" y="0px"
	 viewBox="0 0 788 1005" style="enable-background:new 0 0 788 1005;" xml:space="preserve">
<style type="text/css">
	.st0{fill:#2E323D;}
	.st1{fill:#B85727;}
	.st2{fill:#6A2C18;}
	.st3{fill:#404356;}
</style>
<polygon class="st0" points="339.7,81.9 349.3,85.2 440.6,83.1 451.1,80.4 404.9,57.3 353.7,59.4 "/>
<path class="st1" d="M454.5,101.5c-4.5-3.5-10.7-1.4-14.8,0.8l-0.4-20.6c0-21.5-20.7-39.7-42.2-39.7h-4.5
	c-21.5,0-42.2,18.2-42.2,39.7l-0.4,20.4c-4.1-2.1-10.1-4.1-14.5-0.6c-4.6,3.7,4.5,28.2,12.6,30c3.1,0.7,6.3-1.1,8.2-2.4
	c0.8,6.9,2.4,15.1,4.9,19.2c1.1,1.7,2.5,3.2,4,4.5c6.8,6.3,13.2,11.9,18.6,14c2.2,0.8,6.4,0.9,9.4,1.2h3.3c3-0.3,7.2-0.4,9.4-1.2
	c5.4-2.1,11.8-7.7,18.6-14c1.5-1.3,2.9-2.8,4-4.5c2.5-4.2,4.2-12.5,5-19.4c1.7,1.3,5.2,3.4,8.4,2.6
	C450,129.7,459.1,105.2,454.5,101.5z"/>
<path class="st2" d="M350.2,109.3l-6.8-40.4c-0.3-2,2.2-3.2,3.1-5c4.1-8.6,16.5-33.4,50.8-32.5c34,0.8,43.5,21.7,46.6,29.3
	c0.7,1.6,2.9,2.8,2.6,4.6l-7,45l-3.5-35c-0.4-3.9-3.1-7.2-6.8-8.4c-12.1-3.8-40-10.4-67.4-1.9c-3.6,1.1-6.2,4.3-6.7,8.1L350.2,109.3
	z"/>
<path class="st0" d="M348,57.2c0,0,9.7-23.2,13.9-26.1c3.3-2.2,21.7-4.9,29.7-6c2.5-0.3,4.9-0.3,7.4,0c7.8,1,25.7,3.5,27.4,4.4
	c2.3,1.3,18.2,28.6,18.2,28.6l-49.5-4.8L348,57.2z"/>
<path class="st3" d="M340,81.9c0,0,23.6-11.8,55.5-12c32-0.2,54.3,10.5,54.3,10.5s2.3,0.3,2.3-1.1c0-1.1-5.7-16.4-8.2-23
	c-0.8-2.1-2.2-3.6-3.9-4.2c-6.2-2.4-22.8-7.9-44.4-8.1c-22.1-0.2-38,4.7-43.5,6.8c-1.4,0.5-2.5,1.6-3.2,3.2
	C345.5,61.2,336.4,82.6,340,81.9z"/>
<circle class="st0" cx="349.9" cy="126.9" r="2.7"/>
<g>
	<path class="st2" d="M403.8,129.1c2-0.8-0.5-3,1.3-3.9c2.5,4.9,1.5,6.1-4.9,6.1C400.2,128.7,402.3,129.4,403.8,129.1z"/>
	<path class="st2" d="M403.8,129.1c-1.2,0.8-2.4,1.5-3.6,2.3c-0.4,0.1-0.7,0.1-1.1,0.1c-1.2,0.4-1.5-0.1-1.2-1.2
		C399.7,128.7,401.3,126.6,403.8,129.1z"/>
	<path class="st2" d="M386.2,129c-2-0.8,0.5-3-1.3-3.9c-2.5,4.9-1.5,6.1,4.9,6.1C389.9,128.6,387.7,129.3,386.2,129z"/>
	<path class="st2" d="M386.2,129c1.2,0.8,2.4,1.5,3.6,2.3c0.4,0.1,0.7,0.1,1.1,0.1c1.2,0.4,1.5-0.1,1.2-1.2
		C390.4,128.7,388.8,126.6,386.2,129z"/>
	<path class="st2" d="M390.9,131.5c0.4-0.4,0.8-0.9,1.2-1.2c2,1.1,3.8,1.4,5.8,0c0.4,0.4,0.8,0.8,1.2,1.2
		C396.4,133.2,393.7,133.3,390.9,131.5z"/>
</g>
</svg>
