<?xml version="1.0" encoding="utf-8"?>
<!-- Generator: Adobe Illustrator 26.0.3, SVG Export Plug-In . SVG Version: 6.00 Build 0)  -->
<svg version="1.1" id="Calque_1" xmlns="http://www.w3.org/2000/svg" xmlns:xlink="http://www.w3.org/1999/xlink" x="0px" y="0px"
	 viewBox="0 0 200 200" style="enable-background:new 0 0 200 200;" xml:space="preserve">
<style type="text/css">
	.st0{fill:#B85727;}
	.st1{fill:#6A2C18;}
</style>
<g>
	<path class="st0" d="M159.5,102.9c-4.5-3.5-10.7-1.4-14.8,0.8l-0.4-20.6c0-21.5-20.7-39.7-42.2-39.7h-4.5
		c-21.5,0-42.2,18.2-42.2,39.7L55,103.5c-4.1-2.1-10.1-4.1-14.5-0.6c-4.6,3.7,4.5,28.2,12.6,30c3.1,0.7,6.3-1.1,8.2-2.4
		c0.8,6.9,2.4,15.1,4.9,19.2c1.1,1.7,2.5,3.2,4,4.5c6.8,6.3,13.2,11.9,18.6,14c2.2,0.8,6.4,0.9,9.4,1.2h3.3c3-0.3,7.2-0.4,9.4-1.2
		c5.4-2.1,11.8-7.7,18.6-14c1.5-1.3,2.9-2.8,4-4.5c2.5-4.2,4.2-12.5,5-19.4c1.7,1.3,5.2,3.4,8.4,2.6
		C155,131.1,164.1,106.6,159.5,102.9z"/>
	<path class="st1" d="M55.3,108.6l-6.8-40.4c-0.3-2-0.1-4,0.8-5.8c4.1-8.6,18.8-32.5,53.1-31.7c34,0.8,45.5,21.2,48.6,28.7
		c0.7,1.6,0.9,3.4,0.6,5.2l-7,45l-3.5-35c-0.4-3.9-3.1-7.2-6.8-8.4c-12.1-3.8-40-10.4-67.4-1.9c-3.6,1.1-6.2,4.3-6.7,8.1L55.3,108.6
		z"/>
	<g>
		<path class="st1" d="M107.7,130.5c2-0.8-0.5-3,1.3-3.9c2.5,4.9,1.5,6.1-4.9,6.1C104.1,130.1,106.2,130.8,107.7,130.5z"/>
		<path class="st1" d="M107.7,130.5c-1.2,0.8-2.4,1.5-3.6,2.3c-0.4,0.1-0.7,0.1-1.1,0.1c-1.2,0.4-1.5-0.1-1.2-1.2
			C103.6,130.1,105.2,128,107.7,130.5z"/>
		<path class="st1" d="M90.1,130.4c-2-0.8,0.5-3-1.3-3.9c-2.5,4.9-1.5,6.1,4.9,6.1C93.8,130,91.6,130.7,90.1,130.4z"/>
		<path class="st1" d="M90.1,130.4c1.2,0.8,2.4,1.5,3.6,2.3c0.4,0.1,0.7,0.1,1.1,0.1c1.2,0.4,1.5-0.1,1.2-1.2
			C94.3,130.1,92.7,128,90.1,130.4z"/>
		<path class="st1" d="M94.8,132.9c0.4-0.4,0.8-0.9,1.2-1.2c2,1.1,3.8,1.4,5.8,0c0.4,0.4,0.8,0.8,1.2,1.2
			C100.3,134.6,97.6,134.7,94.8,132.9z"/>
	</g>
</g>
</svg>
