<?xml version="1.0" encoding="utf-8"?>
<!-- Generator: Adobe Illustrator 26.0.3, SVG Export Plug-In . SVG Version: 6.00 Build 0)  -->
<svg version="1.1" id="Calque_1" xmlns="http://www.w3.org/2000/svg" xmlns:xlink="http://www.w3.org/1999/xlink" x="0px" y="0px"
	 viewBox="0 0 788 1005" style="enable-background:new 0 0 788 1005;" xml:space="preserve">
<style type="text/css">
	.st0{fill:#6A2C18;}
	.st1{fill:#B85727;}
	.st2{fill:#160D0A;}
</style>
<ellipse class="st0" cx="394.3" cy="84" rx="48.7" ry="51.7"/>
<path class="st1" d="M454.5,101.5c-4.5-3.5-10.7-1.4-14.8,0.8l-0.4-20.6c0-21.5-20.7-39.7-42.2-39.7h-4.5
	c-21.5,0-42.2,18.2-42.2,39.7l-0.4,20.4c-4.1-2.1-10.1-4.1-14.5-0.6c-4.6,3.7,4.5,28.2,12.6,30c3.1,0.7,6.3-1.1,8.2-2.4
	c0.8,6.9,2.4,15.1,4.9,19.2c1.1,1.7,2.5,3.2,4,4.5c6.8,6.3,13.2,11.9,18.6,14c2.2,0.8,6.4,0.9,9.4,1.2h3.3c3-0.3,7.2-0.4,9.4-1.2
	c5.4-2.1,11.8-7.7,18.6-14c1.5-1.3,2.9-2.8,4-4.5c2.5-4.2,4.2-12.5,5-19.4c1.7,1.3,5.2,3.4,8.4,2.6
	C450,129.7,459.1,105.2,454.5,101.5z"/>
<circle class="st2" cx="348.8" cy="125.7" r="3.1"/>
<path class="st0" d="M427.3,49.3C421,45.4,405,39,398.2,38.1c-6.8-0.7-20.8,1.3-27.8,3c-7.2,1.7-6.9,7.9-12.7,12.9
	c-8.5,7.5-11.2,40.9-7.8,50.6l3.2,4.6c0,0-0.2-1.4-0.5-3.5l0.5,2.5c0,0-2-36,5.5-32.8c0-0.1,0.5-6.5,0.5-6.5s23.1,2.4,34.8,2.1
	c0.3,0,2.1-0.4,2.4-0.4c0.2,0,4.2-6.2,7.8-11.7c0.4-0.1,0.8-0.2,1.1-0.2c-3.1,5.4-6.7,11.7-6.6,11.7c0.5,0,5.5-1.2,6-1.2
	c0.2,0,4.1-7.6,6.3-11.6c0.2,0,0.4-0.1,0.6-0.1c-1.5,3.9-4.6,11.4-4.5,11.4c12.8-1,24.3,0.2,24.3,0.2s0.9,6,0.9,6.1
	c6.6-2.9,3.7,24.9,3,30.9c0,0.1,0,0.2,0,0.2v0.2c-0.1,0.5-0.1,0.8-0.1,0.8l0.1-0.3v1.2c1.6-0.6,3-1.3,4.4-2.4
	C441.8,90.9,441.9,58.3,427.3,49.3z"/>
<g>
	<path class="st0" d="M403.8,128.9c2-0.8-0.5-3,1.3-3.9c2.5,4.9,1.5,6.1-4.9,6.1C400.2,128.5,402.3,129.2,403.8,128.9z"/>
	<path class="st0" d="M403.8,128.9c-1.2,0.8-2.4,1.5-3.6,2.3c-0.4,0.1-0.7,0.1-1.1,0.1c-1.2,0.4-1.5-0.1-1.2-1.2
		C399.7,128.5,401.3,126.4,403.8,128.9z"/>
	<path class="st0" d="M386.2,128.8c-2-0.8,0.5-3-1.3-3.9c-2.5,4.9-1.5,6.1,4.9,6.1C389.9,128.4,387.7,129.1,386.2,128.8z"/>
	<path class="st0" d="M386.2,128.8c1.2,0.8,2.4,1.5,3.6,2.3c0.4,0.1,0.7,0.1,1.1,0.1c1.2,0.4,1.5-0.1,1.2-1.2
		C390.4,128.5,388.8,126.4,386.2,128.8z"/>
	<path class="st0" d="M390.9,131.3c0.4-0.4,0.8-0.9,1.2-1.2c2,1.1,3.8,1.4,5.8,0c0.4,0.4,0.8,0.8,1.2,1.2
		C396.4,133,393.7,133.1,390.9,131.3z"/>
</g>
</svg>
