<?xml version="1.0" encoding="utf-8"?>
<!-- Generator: Adobe Illustrator 26.0.3, SVG Export Plug-In . SVG Version: 6.00 Build 0)  -->
<svg version="1.1" id="Calque_1" xmlns="http://www.w3.org/2000/svg" xmlns:xlink="http://www.w3.org/1999/xlink" x="0px" y="0px"
	 viewBox="0 0 788 1005" style="enable-background:new 0 0 788 1005;" xml:space="preserve">
<style type="text/css">
	.st0{fill:none;stroke:#2E858E;stroke-width:3;stroke-miterlimit:10;}
	.st1{fill:#B85727;}
	.st2{fill:#6A2C18;}
	.st3{fill:#2E858E;}
</style>
<path class="st0" d="M337.1,97.3c-1.2-3.7-1.8-7.6-1.8-11.6c0-25.9,26.7-47,59.7-47s59.7,21,59.7,47c0,4.2-0.7,8.1-2,12.1"/>
<path class="st1" d="M454.5,101.5c-4.5-3.5-10.7-1.4-14.8,0.8l-0.4-20.6c0-21.5-20.7-39.7-42.2-39.7h-4.5
	c-21.5,0-42.2,18.2-42.2,39.7l-0.4,20.4c-4.1-2.1-10.1-4.1-14.5-0.6c-4.6,3.7,4.5,28.2,12.6,30c3.1,0.7,6.3-1.1,8.2-2.4
	c0.8,6.9,2.4,15.1,4.9,19.2c1.1,1.7,2.5,3.2,4,4.5c6.8,6.3,13.2,11.9,18.6,14c2.2,0.8,6.4,0.9,9.4,1.2h3.3c3-0.3,7.2-0.4,9.4-1.2
	c5.4-2.1,11.8-7.7,18.6-14c1.5-1.3,2.9-2.8,4-4.5c2.5-4.2,4.2-12.5,5-19.4c1.7,1.3,5.2,3.4,8.4,2.6
	C450,129.7,459.1,105.2,454.5,101.5z"/>
<g id="cheuveu">
	<path class="st2" d="M419.9,56.1c-0.2-0.6-1-0.8-1.5-0.4c-3.6,2.9-16.1,9.1-21.8,11.9c-4.6,2.3-18,6.1-23.1,7.6
		c-0.8,0.2-1.5-0.7-1.1-1.5l1.1-2.3c0.4-0.9-0.5-1.9-1.3-1.4c-3.9,2.2-11.1,6.3-13.6,8.5c-7.1,6.2-7,33.5-7,33.5s-8.4-35.2-5.7-46.2
		c0.2-0.8-0.5-1.6-1.2-1.3c-1,0.4-2.1,0.8-3,1c-0.8,0.2-1.4-0.6-1.1-1.4c1.8-4.5,6.7-15.6,12.3-20.1c5.1-4.2,11.1-6.9,17.4-7.5
		c1-0.1,1.2-1.6,0.2-2l0,0c-0.9-0.4-0.8-1.8,0.2-2c5.8-1.2,18.3-3.3,27.2-2c13.6,1.7,19.8,8.1,21.2,9.9c0.2,0.3,0.6,0.4,0.9,0.3
		c2.5-0.7,13-2.7,21.4,8.2c7.4,9.5,4.1,21.3,4.1,21.3l-6.7,40.7c0,0-2.2-32.9-2.9-35.8V75c-0.3-1.8-0.5-3.6-0.6-5.4
		c-0.1-1.1-1.5-1.3-1.8-0.3l-0.1,0.4c-0.2,0.6-0.9,0.8-1.3,0.5c-3.9-2.4-7.6-4.3-9.6-8.7C421.8,59.9,420.7,58.1,419.9,56.1z"/>
</g>
<g>
	<path class="st2" d="M403.8,129.2c2-0.8-0.5-3,1.3-3.9c2.5,4.9,1.5,6.1-4.9,6.1C400.2,128.8,402.3,129.5,403.8,129.2z"/>
	<path class="st2" d="M403.8,129.2c-1.2,0.8-2.4,1.5-3.6,2.3c-0.4,0.1-0.7,0.1-1.1,0.1c-1.2,0.4-1.5-0.1-1.2-1.2
		C399.7,128.8,401.3,126.7,403.8,129.2z"/>
	<path class="st2" d="M386.2,129.1c-2-0.8,0.5-3-1.3-3.9c-2.5,4.9-1.5,6.1,4.9,6.1C389.9,128.7,387.7,129.4,386.2,129.1z"/>
	<path class="st2" d="M386.2,129.1c1.2,0.8,2.4,1.5,3.6,2.3c0.4,0.1,0.7,0.1,1.1,0.1c1.2,0.4,1.5-0.1,1.2-1.2
		C390.4,128.8,388.8,126.7,386.2,129.1z"/>
	<path class="st2" d="M390.9,131.6c0.4-0.4,0.8-0.9,1.2-1.2c2,1.1,3.8,1.4,5.8,0c0.4,0.4,0.8,0.8,1.2,1.2
		C396.4,133.3,393.7,133.4,390.9,131.6z"/>
</g>
<g>
	<path class="st3" d="M353.8,135.5l-2,0.5c-2.1,0.5-4.3-1-4.7-3.1l-6.4-31.6c-0.5-2.1,1-4.3,3.1-4.7l2-0.5c2.1-0.5,4.3,1,4.7,3.1
		l6.4,31.6C357.4,132.8,356,135,353.8,135.5z"/>
	<path class="st3" d="M346.7,133.3l-4.2,0.8c-2.1,0.5-4.3-1-4.7-3.1l-5-24.5c-0.5-2.1,1-4.3,3.1-4.7l4.2-0.8L346.7,133.3z"/>
	<path class="st3" d="M334.8,95l2.5-1.4c0.6-0.4,1.3,0,1.4,0.6l1.8,8.7c0.1,0.5-0.2,1-0.6,1.1l0,0c-0.5,0.1-0.8,0-1.1-0.5l-4.3-7.3
		C334.2,96,334.3,95.4,334.8,95z"/>
</g>
<g>
	<path class="st3" d="M436.2,135.5l2,0.5c2.1,0.5,4.3-1,4.7-3.1l6.4-31.6c0.5-2.1-1-4.3-3.1-4.7l-2-0.5c-2.1-0.5-4.3,1-4.7,3.1
		l-6.4,31.6C432.6,132.8,434,135,436.2,135.5z"/>
	<path class="st3" d="M443.3,133.3l4.2,0.8c2.1,0.5,4.3-1,4.7-3.1l5-24.5c0.5-2.1-1-4.3-3.1-4.7l-4.2-0.8L443.3,133.3z"/>
	<path class="st3" d="M455.3,95l-2.5-1.4c-0.6-0.4-1.3,0-1.4,0.6l-1.8,8.7c-0.1,0.5,0.2,1,0.6,1.1l0,0c0.5,0.1,0.8,0,1.1-0.5
		l4.3-7.3C455.9,96,455.8,95.4,455.3,95z"/>
</g>
<path class="st0" d="M350.9,134.8l-17.7,14.1c-3,2.4-2.4,7,1.1,8.6l12.1,5.3"/>
<circle class="st3" cx="350.9" cy="162.7" r="6.9"/>
</svg>
