<?xml version="1.0" encoding="utf-8"?>
<!-- Generator: Adobe Illustrator 26.0.3, SVG Export Plug-In . SVG Version: 6.00 Build 0)  -->
<svg version="1.1" id="Calque_1" xmlns="http://www.w3.org/2000/svg" xmlns:xlink="http://www.w3.org/1999/xlink" x="0px" y="0px"
	 viewBox="0 0 788 1005" style="enable-background:new 0 0 788 1005;" xml:space="preserve">
<style type="text/css">
	.st0{fill:#B85727;}
	.st1{fill:#8E2210;}
	.st2{fill:#6A2C18;}
	.st3{fill:#89371A;}
	.st4{fill:#993816;}
</style>
<path class="st0" d="M454.5,101.5c-4.5-3.5-10.7-1.4-14.8,0.8l-0.4-20.6c0-21.5-20.7-39.7-42.2-39.7h-4.5
	c-21.5,0-42.2,18.2-42.2,39.7l-0.4,20.4c-4.1-2.1-10.1-4.1-14.5-0.6c-4.6,3.7,4.5,28.2,12.6,30c3.1,0.7,6.3-1.1,8.2-2.4
	c0.8,6.9,2.4,15.1,4.9,19.2c1.1,1.7,2.5,3.2,4,4.5c6.8,6.3,13.2,11.9,18.6,14c2.2,0.8,6.4,0.9,9.4,1.2h3.3c3-0.3,7.2-0.4,9.4-1.2
	c5.4-2.1,11.8-7.7,18.6-14c1.5-1.3,2.9-2.8,4-4.5c2.5-4.2,4.2-12.5,5-19.4c1.7,1.3,5.2,3.4,8.4,2.6
	C450,129.7,459.1,105.2,454.5,101.5z"/>
<circle class="st1" cx="349.2" cy="126.1" r="3"/>
<path class="st2" d="M399.6,63.5c0,0,21.2-0.5,23.1,1.3c1.6,1.4,2.7,9.1,2.9,11.6c0,0.5,0.2,0.8,0.6,1.2l8.3,7.4
	c0.3,0.2,0.5,0.7,0.6,1l0.8,19.2c0.2,1.3-0.3,2.9,0.6,2.1c1-0.7,3.1-1.6,2.9-1.3c4.4-48.8-6.9-58.8-10.3-60.1
	c-0.5-0.2-0.8-0.6-0.9-1c-0.7-2.3-3.2-9-9.8-13c-0.6-0.3-0.9-1.2-0.7-2c1.3-4.9,13.1-14.4,12-18.4c-0.7-3.1-9.7,9.7-9.8,8.9
	c-3.9-14.5,14.2-16,16.5-19.3c0.9-1.3-20.5-1-22.4,8.7c-0.2,0.8-1.3,0.8-1.4-0.1c-0.2-2.9-0.6-5.9-1.4-7.1c-1.3-1.9-3.7,4-4.9,7.1
	c-0.2,0.6-1,0.6-1.3,0c-0.9-2.2-2.7-5.8-4.3-5.4c-1.4,0.2-0.1,9.6,1.2,16.5c0.1,0.8-4.8-5.4-6.9-4.8c-4,1,0.4,9.2,1.6,11.1
	c0.1,0.1,0.1,0.2,0.2,0.3l0.5,1.3c0.3,1.2-0.5,2.4-1.5,2.3l-2.8-0.2c-0.3,0-0.6-0.1-0.8-0.3c-2.5-2.3-17.4-14.3-20.5-14.8
	c-2.9-0.5-1.7,7.4,7.5,13.9c1.3,0.9,0.8,3.1-0.8,3.2l0,0c-0.2,0-0.5-0.1-0.7-0.2c-2.4-1.4-16.7-9.3-22.4-4.9c-1,0.8-0.8,2.7,0.5,3
	c0.7,0.2,1.4,0.5,2.2,0.7c1.5,0.5,1.5,2.9,0,3.4c-3.5,0.9-7.2,2.7-8.7,6c-3,6.8,16.1-3.9,18.2-3.4c1.7,0.5-2.4,4.5-4.2,6
	c-0.3,0.3-0.9,0.5-1.4,0.3c-4.2-1.3-24.1-7.4-25.6-2.3c-1,3.5,6,5.8,11.9,7.1c1.5,0.3,1.7,2.8,0.1,3.4c-6.7,2.5-16,7.5-17.1,16.2
	c-0.2,1.6,1.5,2.5,2.5,1.4c2.3-2.3,6.1-5.9,10.8-8.2c1.5-0.7,2.9,1,2,2.5c-4.4,6.9-11.2,20.2-5,28.9c2.5,2.8,6.1-12.4,8.2-22.2
	c0.3-1.7-1.6-2.9-2.7-1.5c-2.8,3.7-6.7,7.9-11.2,9.1c-1.2,0.3-1.5,2-0.7,2.9c2.5,2.7,10.5,3.4,17.7-14.9c0,0-5.9,15.4-5.2,19.9
	c0.6,3.9,1.8,13.1,2.4,16.1c0.1,0.5,2.7,3.6,3,3.9l1.5,1.6l1.6-24.3c0-0.5,0.2-0.8,0.6-1l4.4-3.9c0.3-0.3,0.6-0.9,0.6-1.4
	c-0.1-2.2,0-7.7,2.7-9.4C367.8,65.4,399.6,63.5,399.6,63.5z"/>
<path class="st3" d="M417.5,29.3h-19.7c-0.3,0-0.7-0.3-0.7-0.7v-0.2c0-0.3,0.3-0.7,0.7-0.7h19.8c0.3,0,0.7,0.3,0.7,0.7v0.2
	C418.3,29,418,29.3,417.5,29.3z"/>
<path class="st4" d="M417.5,31.5h-19.7c-0.3,0-0.7-0.3-0.7-0.7V30c0-0.3,0.3-0.7,0.7-0.7h19.8c0.3,0,0.7,0.3,0.7,0.7v0.8
	C418.3,31.2,418,31.5,417.5,31.5z"/>
<g>
	<path class="st2" d="M403.8,129.2c2-0.8-0.5-3,1.3-3.9c2.5,4.9,1.5,6.1-4.9,6.1C400.2,128.8,402.3,129.5,403.8,129.2z"/>
	<path class="st2" d="M403.8,129.2c-1.2,0.8-2.4,1.5-3.6,2.3c-0.4,0.1-0.7,0.1-1.1,0.1c-1.2,0.4-1.5-0.1-1.2-1.2
		C399.7,128.8,401.3,126.7,403.8,129.2z"/>
	<path class="st2" d="M386.2,129.1c-2-0.8,0.5-3-1.3-3.9c-2.5,4.9-1.5,6.1,4.9,6.1C389.9,128.7,387.7,129.4,386.2,129.1z"/>
	<path class="st2" d="M386.2,129.1c1.2,0.8,2.4,1.5,3.6,2.3c0.4,0.1,0.7,0.1,1.1,0.1c1.2,0.4,1.5-0.1,1.2-1.2
		C390.4,128.8,388.8,126.7,386.2,129.1z"/>
	<path class="st2" d="M390.9,131.6c0.4-0.4,0.8-0.9,1.2-1.2c2,1.1,3.8,1.4,5.8,0c0.4,0.4,0.8,0.8,1.2,1.2
		C396.4,133.3,393.7,133.4,390.9,131.6z"/>
</g>
</svg>
