<?xml version="1.0" encoding="utf-8"?>
<!-- Generator: Adobe Illustrator 26.0.3, SVG Export Plug-In . SVG Version: 6.00 Build 0)  -->
<svg version="1.1" id="Calque_1" xmlns="http://www.w3.org/2000/svg" xmlns:xlink="http://www.w3.org/1999/xlink" x="0px" y="0px"
	 viewBox="0 0 788 1005" style="enable-background:new 0 0 788 1005;" xml:space="preserve">
<style type="text/css">
	.st0{fill:#B85727;}
	.st1{fill:#6A2C18;}
	.st2{fill:#8C5E77;}
	.st3{fill:#A86282;}
</style>
<path class="st0" d="M454.5,101.5c-4.5-3.5-10.7-1.4-14.8,0.8l-0.4-20.6c0-21.5-20.7-39.7-42.2-39.7h-4.5
	c-21.5,0-42.2,18.2-42.2,39.7l-0.4,20.4c-4.1-2.1-10.1-4.1-14.5-0.6c-4.6,3.7,4.5,28.2,12.6,30c3.1,0.7,6.3-1.1,8.2-2.4
	c0.8,6.9,2.4,15.1,4.9,19.2c1.1,1.7,2.5,3.2,4,4.5c6.8,6.3,13.2,11.9,18.6,14c2.2,0.8,6.4,0.9,9.4,1.2h3.3c3-0.3,7.2-0.4,9.4-1.2
	c5.4-2.1,11.8-7.7,18.6-14c1.5-1.3,2.9-2.8,4-4.5c2.5-4.2,4.2-12.5,5-19.4c1.7,1.3,5.2,3.4,8.4,2.6
	C450,129.7,459.1,105.2,454.5,101.5z"/>
<g id="Calque_7_00000102517533513937852740000003620408865085819830_">
	<path class="st1" d="M354,110.1c0,0-0.6-17.5,0.9-22.9c2.1-7.5,6.6-20.5,12.7-23.2c6.4-2.9,23.1,2.1,29.9,2.2
		c6.5,0.1,19.6-6.4,25.8-3.7c3.8,1.7,8.8,11,10.5,15.6c3.1,8.2,2.2,29.1,2.2,29.1v1.9c1.6-0.6,3-1.3,4.4-2.4
		c2.2-14.8,4.7-48.1-9.9-57.1c-6.3-3.9-24.7-9.6-31.5-10.5c-6.7-0.9-20.8,1.1-27.8,2.8c-7.2,1.7-9.2,6-15,11
		c-8.5,7.5-8.9,42.8-5.5,52.5L354,110.1z"/>
</g>
<circle class="st2" cx="348.7" cy="126" r="3"/>
<path class="st3" d="M348.7,82.8c-0.7-20.4,9.2-50.5,41.7-48.8h10.4c50-1.1,41.2,48.8,41.2,48.8s-23.8-9.3-47-9.7
	C378.8,72.9,363.3,76.6,348.7,82.8z"/>
<g>
	<path class="st1" d="M403.8,129c2-0.8-0.5-3,1.3-3.9c2.5,4.9,1.5,6.1-4.9,6.1C400.2,128.6,402.3,129.3,403.8,129z"/>
	<path class="st1" d="M403.8,129c-1.2,0.8-2.4,1.5-3.6,2.3c-0.4,0.1-0.7,0.1-1.1,0.1c-1.2,0.4-1.5-0.1-1.2-1.2
		C399.7,128.6,401.3,126.5,403.8,129z"/>
	<path class="st1" d="M386.2,128.9c-2-0.8,0.5-3-1.3-3.9c-2.5,4.9-1.5,6.1,4.9,6.1C389.9,128.5,387.7,129.2,386.2,128.9z"/>
	<path class="st1" d="M386.2,128.9c1.2,0.8,2.4,1.5,3.6,2.3c0.4,0.1,0.7,0.1,1.1,0.1c1.2,0.4,1.5-0.1,1.2-1.2
		C390.4,128.6,388.8,126.5,386.2,128.9z"/>
	<path class="st1" d="M390.9,131.4c0.4-0.4,0.8-0.9,1.2-1.2c2,1.1,3.8,1.4,5.8,0c0.4,0.4,0.8,0.8,1.2,1.2
		C396.4,133.1,393.7,133.2,390.9,131.4z"/>
</g>
</svg>
