<?xml version="1.0" encoding="utf-8"?>
<!-- Generator: Adobe Illustrator 26.0.3, SVG Export Plug-In . SVG Version: 6.00 Build 0)  -->
<svg version="1.1" id="Calque_1" xmlns="http://www.w3.org/2000/svg" xmlns:xlink="http://www.w3.org/1999/xlink" x="0px" y="0px"
	 viewBox="0 0 200 200" style="enable-background:new 0 0 200 200;" xml:space="preserve">
<style type="text/css">
	.st0{fill:#2E323D;}
	.st1{fill:#B85727;}
	.st2{fill:#6A2C18;}
	.st3{fill:#404356;}
</style>
<g>
	<polygon class="st0" points="44.7,85.5 54.3,88.8 145.6,86.7 156.1,84 109.9,60.9 58.7,63 	"/>
	<path class="st1" d="M159.5,105.1c-4.5-3.5-10.7-1.4-14.8,0.8l-0.4-20.6c0-21.5-20.7-39.7-42.2-39.7h-4.5
		c-21.5,0-42.2,18.2-42.2,39.7L55,105.7c-4.1-2.1-10.1-4.1-14.5-0.6c-4.6,3.7,4.5,28.2,12.6,30c3.1,0.7,6.3-1.1,8.2-2.4
		c0.8,6.9,2.4,15.1,4.9,19.2c1.1,1.7,2.5,3.2,4,4.5c6.8,6.3,13.2,11.9,18.6,14c2.2,0.8,6.4,0.9,9.4,1.2h3.3c3-0.3,7.2-0.4,9.4-1.2
		c5.4-2.1,11.8-7.7,18.6-14c1.5-1.3,2.9-2.8,4-4.5c2.5-4.2,4.2-12.5,5-19.4c1.7,1.3,5.2,3.4,8.4,2.6
		C155,133.3,164.1,108.8,159.5,105.1z"/>
	<path class="st2" d="M55.2,112.9l-6.8-40.4c-0.3-2,2.2-3.2,3.1-5C55.6,58.9,68,34.1,102.3,35c34,0.8,43.5,21.7,46.6,29.3
		c0.7,1.6,2.9,2.8,2.6,4.6l-7,45l-3.5-35c-0.4-3.9-3.1-7.2-6.8-8.4c-12.1-3.8-40-10.4-67.4-1.9c-3.6,1.1-6.2,4.3-6.7,8.1L55.2,112.9
		z"/>
	<path class="st0" d="M53,60.8c0,0,9.7-23.2,13.9-26.1c3.3-2.2,21.7-4.9,29.7-6c2.5-0.3,4.9-0.3,7.4,0c7.8,1,25.7,3.5,27.4,4.4
		c2.3,1.3,18.2,28.6,18.2,28.6l-49.5-4.8L53,60.8z"/>
	<path class="st3" d="M45,85.5c0,0,23.6-11.8,55.5-12c32-0.2,54.3,10.5,54.3,10.5s2.3,0.3,2.3-1.1c0-1.1-5.7-16.4-8.2-23
		c-0.8-2.1-2.2-3.6-3.9-4.2c-6.2-2.4-22.8-7.9-44.4-8.1c-22.1-0.2-38,4.7-43.5,6.8c-1.4,0.5-2.5,1.6-3.2,3.2
		C50.5,64.8,41.4,86.2,45,85.5z"/>
	<circle class="st0" cx="54.9" cy="130.5" r="2.7"/>
	<g>
		<path class="st2" d="M108.8,132.6c2-0.8-0.5-3,1.3-3.9c2.5,4.9,1.5,6.1-4.9,6.1C105.2,132.2,107.3,132.9,108.8,132.6z"/>
		<path class="st2" d="M108.8,132.6c-1.2,0.8-2.4,1.5-3.6,2.3c-0.4,0.1-0.7,0.1-1.1,0.1c-1.2,0.4-1.5-0.1-1.2-1.2
			C104.7,132.2,106.3,130.1,108.8,132.6z"/>
		<path class="st2" d="M91.2,132.5c-2-0.8,0.5-3-1.3-3.9c-2.5,4.9-1.5,6.1,4.9,6.1C94.9,132.1,92.7,132.8,91.2,132.5z"/>
		<path class="st2" d="M91.2,132.5c1.2,0.8,2.4,1.5,3.6,2.3c0.4,0.1,0.7,0.1,1.1,0.1c1.2,0.4,1.5-0.1,1.2-1.2
			C95.4,132.2,93.8,130.1,91.2,132.5z"/>
		<path class="st2" d="M95.9,135c0.4-0.4,0.8-0.9,1.2-1.2c2,1.1,3.8,1.4,5.8,0c0.4,0.4,0.8,0.8,1.2,1.2
			C101.4,136.7,98.7,136.8,95.9,135z"/>
	</g>
</g>
</svg>
