<?xml version="1.0" encoding="utf-8"?>
<!-- Generator: Adobe Illustrator 26.0.2, SVG Export Plug-In . SVG Version: 6.00 Build 0)  -->
<svg version="1.1" id="Calque_1" xmlns="http://www.w3.org/2000/svg" xmlns:xlink="http://www.w3.org/1999/xlink" x="0px" y="0px"
	 viewBox="0 0 188 202.1" style="enable-background:new 0 0 188 202.1;" xml:space="preserve">
<style type="text/css">
	.st0{clip-path:url(#SVGID_00000074420512421160011180000013734807622286588292_);}
	.st1{fill:#B8775C;}
	.st2{clip-path:url(#SVGID_00000032622928156653617290000009168129748419817134_);}
	.st3{fill:#D48F72;}
	.st4{fill:#423435;}
</style>
<g>
	<g>
		<defs>
			<polygon id="SVGID_1_" points="129.7,79.5 129.7,79.5 146.1,79.5 146.1,112.5 129.7,112.5 			"/>
		</defs>
		<clipPath id="SVGID_00000073705388693662987540000001570135260810015128_">
			<use xlink:href="#SVGID_1_"  style="overflow:visible;"/>
		</clipPath>
		<g style="clip-path:url(#SVGID_00000073705388693662987540000001570135260810015128_);">
			<path class="st1" d="M129.7,112.5l3-28.2c0,0,6.6-7.8,12.2-3.2c3.8,3-3.1,28.2-7.5,29.5C130,112.7,129.7,112.5,129.7,112.5z"/>
		</g>
	</g>
	<g>
		<defs>
			<polygon id="SVGID_00000181079770175779074180000010529683590687742618_" points="58.3,79.5 58.3,79.5 41.9,79.5 41.9,112.5 
				58.3,112.5 			"/>
		</defs>
		<clipPath id="SVGID_00000000918324130099243510000012871117034260466601_">
			<use xlink:href="#SVGID_00000181079770175779074180000010529683590687742618_"  style="overflow:visible;"/>
		</clipPath>
		<g style="clip-path:url(#SVGID_00000000918324130099243510000012871117034260466601_);">
			<path class="st1" d="M58.3,112.5l-3-28.2c0,0-6.6-7.8-12.2-3.2c-3.8,3,3.1,28.2,7.5,29.5C58,112.7,58.3,112.5,58.3,112.5z"/>
		</g>
	</g>
	<path class="st3" d="M77.2,150.9l-12.7-13.7c-2.5-2.7-4.3-6.1-5-9.8l-4.1-20c-0.2-0.9-0.3-1.9-0.4-2.8l-1.4-22.8v-6.3
		c0-21.5,17.4-38.9,38.8-39c0,0,0.1,0,0.1,0H94c21.5,0,38.9,17.4,38.9,38.9v6.3l-1.4,22.8c-0.1,0.9-0.2,1.9-0.4,2.8l-4.1,20
		c-0.7,3.7-2.5,7.1-5,9.8l-12.7,13.7c-3.8,4.1-9.2,6.5-14.9,6.5l-2.2,0C86.5,157.5,81,155.1,77.2,150.9z"/>
	<path class="st4" d="M129.6,51.7c12,10.4,6.6,29.5,6.6,29.5L132.3,92c0,0,0.8-5.3-6.2-20.3c-1.7-3.5,1.9-13-0.2-16.6
		c-4.6-7.9-9.4-11.1-9.4-11.1S121.6,44.7,129.6,51.7z"/>
	<path class="st4" d="M56.9,51.4c-12,10.2-6.6,29-6.6,29l3.9,10.7c0,0-0.8-5.2,6.2-20c1.7-3.5-1.9-12.8,0.2-16.4
		c4.6-7.8,9.4-10.9,9.4-10.9S64.9,44.5,56.9,51.4z"/>
	<path class="st4" d="M102.9,162.6c-8.2,11.9,1.9,14.3-3.1,14.3S82,159.8,82,153.7s6.7-1.2,11.7-2.1
		C99.2,150.5,113.4,147.3,102.9,162.6z"/>
</g>
</svg>
