<?xml version="1.0" encoding="utf-8"?>
<!-- Generator: Adobe Illustrator 26.0.2, SVG Export Plug-In . SVG Version: 6.00 Build 0)  -->
<svg version="1.1" id="Layer_1" xmlns="http://www.w3.org/2000/svg" xmlns:xlink="http://www.w3.org/1999/xlink" x="0px" y="0px"
	 viewBox="0 0 788 1005" style="enable-background:new 0 0 788 1005;" xml:space="preserve">
<style type="text/css">
	.st0{clip-path:url(#SVGID_00000160875122647652582290000006507617386265402042_);}
	.st1{fill:#D08D72;}
	.st2{clip-path:url(#SVGID_00000134212472695225926000000014898504068146987184_);}
	.st3{fill:#D48F72;}
	.st4{fill:#423435;}
</style>
<g id="Calque_1">
	<g id="random">
		<g>
			<defs>
				<polygon id="SVGID_1_" points="428.7,176.4 428.7,176.4 445.1,176.4 445.1,209.3 428.7,209.3 				"/>
			</defs>
			<clipPath id="SVGID_00000044893208138208713240000008034482475982835850_">
				<use xlink:href="#SVGID_1_"  style="overflow:visible;"/>
			</clipPath>
			<g style="clip-path:url(#SVGID_00000044893208138208713240000008034482475982835850_);">
				<path class="st1" d="M428.7,209.3l3-28.2c0,0,6.6-7.8,12.2-3.2c3.8,3-3.1,28.2-7.5,29.5C429,209.5,428.7,209.3,428.7,209.3z"/>
			</g>
		</g>
	</g>
	<g id="random2">
		<g>
			<defs>
				<polygon id="SVGID_00000107590122637546383220000018309499851207792042_" points="357.3,176.4 357.3,176.4 340.9,176.4 
					340.9,209.3 357.3,209.3 				"/>
			</defs>
			<clipPath id="SVGID_00000076604321831692856880000007173364810494981271_">
				<use xlink:href="#SVGID_00000107590122637546383220000018309499851207792042_"  style="overflow:visible;"/>
			</clipPath>
			<g style="clip-path:url(#SVGID_00000076604321831692856880000007173364810494981271_);">
				<path class="st1" d="M357.3,209.3l-3-28.2c0,0-6.6-7.8-12.2-3.2c-3.8,3,3.1,28.2,7.5,29.5C357,209.5,357.3,209.3,357.3,209.3z"
					/>
			</g>
		</g>
	</g>
	<path class="st3" d="M377.5,248.2l-13.3-14.3c-2.4-2.6-4-5.8-4.7-9.2l-4.2-20.4c-0.2-0.9-0.3-1.8-0.4-2.6l-1.4-22.9v-6.4
		c0-21.5,17.4-38.9,38.9-38.9h1.5c21.5,0,38.9,17.4,38.9,38.9v6.4l-1.4,22.9c-0.1,0.9-0.2,1.8-0.4,2.6l-4.2,20.4
		c-0.7,3.5-2.3,6.7-4.7,9.2L409,248.2c-3.6,3.9-8.8,6.2-14.1,6.2l-3.2,0C386.3,254.3,381.2,252.1,377.5,248.2z"/>
</g>
<g id="Calque_6">
	<path class="st4" d="M354.5,187.1c0,0-5.5-24.8-3.5-32.1c0.6-2.4,3.6-6.4,5-8.1c0.4-0.5,0.6-1.2,0.5-1.8c-0.1-1.7-0.3-4.9,0.2-6
		c3.7-8,23.7-14.7,33.8-14.9c22.2-0.4,28.5,11.9,39.1,13.5c3.2,0.5,12-1.7,14.4-2.4c0.3-0.1,0.5,0.2,0.4,0.5
		c-2,5.3-5.8,9.7-10.9,12.4c-9.2,4.7-30.5,9.9-41.2,9.9c-7,0-24.3-2.8-30.8-3.9c-1.4-0.2-2.8,0.7-3,2.1c-0.6,3.2-1.7,8.7-2.1,11.3
		C355.8,172.1,354.5,187.1,354.5,187.1z"/>
</g>
</svg>
