<?xml version="1.0" encoding="utf-8"?>
<!-- Generator: Adobe Illustrator 26.0.2, SVG Export Plug-In . SVG Version: 6.00 Build 0)  -->
<svg version="1.1" id="Layer_1" xmlns="http://www.w3.org/2000/svg" xmlns:xlink="http://www.w3.org/1999/xlink" x="0px" y="0px"
	 viewBox="0 0 788 1005" style="enable-background:new 0 0 788 1005;" xml:space="preserve">
<style type="text/css">
	.st0{clip-path:url(#SVGID_00000038382131346663961400000011861062029111472299_);}
	.st1{fill:#B8775C;}
	.st2{clip-path:url(#SVGID_00000039101097268224352210000002844233789157231240_);}
	.st3{fill:#D48F72;}
	.st4{fill:#423435;}
</style>
<g>
	<defs>
		<polygon id="SVGID_1_" points="429.7,177 429.7,177 446.1,177 446.1,210 429.7,210 		"/>
	</defs>
	<clipPath id="SVGID_00000139993299725835622750000008395543926660469640_">
		<use xlink:href="#SVGID_1_"  style="overflow:visible;"/>
	</clipPath>
	<g style="clip-path:url(#SVGID_00000139993299725835622750000008395543926660469640_);">
		<path class="st1" d="M429.7,210l3-28.2c0,0,6.6-7.8,12.2-3.2c3.8,3-3.1,28.2-7.5,29.5C430,210.1,429.7,210,429.7,210z"/>
	</g>
</g>
<g>
	<defs>
		<polygon id="SVGID_00000062884507191840068420000010371480458307321999_" points="358.3,177 358.3,177 341.9,177 341.9,210 
			358.3,210 		"/>
	</defs>
	<clipPath id="SVGID_00000169551962485597994040000013715127852742705584_">
		<use xlink:href="#SVGID_00000062884507191840068420000010371480458307321999_"  style="overflow:visible;"/>
	</clipPath>
	<g style="clip-path:url(#SVGID_00000169551962485597994040000013715127852742705584_);">
		<path class="st1" d="M358.3,210l-3-28.2c0,0-6.6-7.8-12.2-3.2c-3.8,3,3.1,28.2,7.5,29.5C358,210.1,358.3,210,358.3,210z"/>
	</g>
</g>
<path class="st3" d="M377.2,248.4l-12.8-13.8c-2.5-2.7-4.2-6.1-5-9.7l-4.1-20.1c-0.2-0.9-0.3-1.8-0.4-2.8l-1.4-22.8c0,0,0-0.1,0-0.1
	V173c0-21.5,17.4-38.9,38.8-39c0,0,0.1,0,0.1,0h0c22.3,0,40.4,18.1,40.4,40.4v4.8c0,0,0,0.1,0,0.1l-1.4,22.8
	c-0.1,0.9-0.2,1.9-0.4,2.8l-4.1,20.1c-0.7,3.6-2.5,7-5,9.7l-12.8,13.8c-3.8,4.1-9.2,6.5-14.8,6.5l-2.4,0
	C386.5,254.9,381.1,252.6,377.2,248.4z"/>
<path class="st4" d="M429.6,149.2c12,10.4,6.6,29.5,6.6,29.5l-3.9,10.8c0,0,0.8-5.3-6.2-20.3c-1.7-3.5,1.9-13-0.2-16.6
	c-4.6-7.9-9.4-11.1-9.4-11.1S421.6,142.2,429.6,149.2z"/>
<path class="st4" d="M356.9,148.9c-12,10.2-6.6,29-6.6,29l3.9,10.7c0,0-0.8-5.2,6.2-20c1.7-3.5-1.9-12.8,0.2-16.4
	c4.6-7.8,9.4-10.9,9.4-10.9S364.9,142,356.9,148.9z"/>
<path class="st4" d="M407.2,118.7c-1.8,7.5,3.7,8.4,8.8,10.3c3.1,1.2,6.1,3.2,8.4,5.6c8.5,8.7,6.5,17-6.4,25.2
	c0.9-2.4,1.5-4.2,2.8-7.7c-19,15.7-37.1,13-56.2,0.3c1.4,3,2.3,5,3.3,7.3c-10.1-3.4-13.2-10-9.1-19c3.7-8.2,10.9-11.8,19.1-14
	C380.4,126.1,405.8,120.8,407.2,118.7z"/>
</svg>
