<?xml version="1.0" encoding="utf-8"?>
<!-- Generator: Adobe Illustrator 26.0.2, SVG Export Plug-In . SVG Version: 6.00 Build 0)  -->
<svg version="1.1" id="Layer_1" xmlns="http://www.w3.org/2000/svg" xmlns:xlink="http://www.w3.org/1999/xlink" x="0px" y="0px"
	 viewBox="0 0 788 1005" style="enable-background:new 0 0 788 1005;" xml:space="preserve">
<style type="text/css">
	.st0{fill:#D48F72;}
	.st1{clip-path:url(#SVGID_00000080204537504704732460000005446055415955081864_);}
	.st2{fill:#A85B3B;}
	.st3{clip-path:url(#SVGID_00000166670180745994938020000011698700629080743316_);}
	.st4{clip-path:url(#SVGID_00000160911697162746069370000015471925997940220326_);}
	.st5{fill:#B8775C;}
	.st6{clip-path:url(#SVGID_00000060737431338712255080000002884224639568906646_);}
	.st7{fill:#514043;}
	.st8{fill:#423435;}
</style>
<polygon class="st0" points="417.2,135.4 429.7,147.4 427.3,158.2 417.2,156 "/>
<g id="Calque_1">
	<g id="random">
		<g>
			<defs>
				<polygon id="SVGID_1_" points="429.7,177 429.7,177 446.1,177 446.1,210 429.7,210 				"/>
			</defs>
			<clipPath id="SVGID_00000075867139437476858710000016211361511735645619_">
				<use xlink:href="#SVGID_1_"  style="overflow:visible;"/>
			</clipPath>
			<g style="clip-path:url(#SVGID_00000075867139437476858710000016211361511735645619_);">
				<path class="st2" d="M429.7,210l3-28.2c0,0,6.6-7.8,12.2-3.2c3.8,3-3.1,28.2-7.5,29.5C430,210.1,429.7,210,429.7,210z"/>
			</g>
		</g>
	</g>
	<g id="random2">
		<g>
			<defs>
				<polygon id="SVGID_00000054240788215048706400000010875243823317730964_" points="358.3,177 358.3,177 341.9,177 341.9,210 
					358.3,210 				"/>
			</defs>
			<clipPath id="SVGID_00000048497874383309219490000016059490498186264501_">
				<use xlink:href="#SVGID_00000054240788215048706400000010875243823317730964_"  style="overflow:visible;"/>
			</clipPath>
			<g style="clip-path:url(#SVGID_00000048497874383309219490000016059490498186264501_);">
				<path class="st2" d="M358.3,210l-3-28.2c0,0-6.6-7.8-12.2-3.2c-3.8,3,3.1,28.2,7.5,29.5C358,210.1,358.3,210,358.3,210z"/>
			</g>
		</g>
	</g>
</g>
<g id="Calque_5">
	<g>
		<defs>
			<polygon id="SVGID_00000017484979465731501210000015985059237730710443_" points="429.7,177 429.7,177 446.1,177 446.1,210 
				429.7,210 			"/>
		</defs>
		<clipPath id="SVGID_00000092425388637253115110000006305773123759471517_">
			<use xlink:href="#SVGID_00000017484979465731501210000015985059237730710443_"  style="overflow:visible;"/>
		</clipPath>
		<g style="clip-path:url(#SVGID_00000092425388637253115110000006305773123759471517_);">
			<path class="st5" d="M429.7,210l3-28.2c0,0,6.6-7.8,12.2-3.2c3.8,3-3.1,28.2-7.5,29.5C430,210.1,429.7,210,429.7,210z"/>
		</g>
	</g>
	<g>
		<defs>
			<polygon id="SVGID_00000072267972570151963130000016123044683866042279_" points="358.3,177 358.3,177 341.9,177 341.9,210 
				358.3,210 			"/>
		</defs>
		<clipPath id="SVGID_00000070089574141411884310000003478848972805522323_">
			<use xlink:href="#SVGID_00000072267972570151963130000016123044683866042279_"  style="overflow:visible;"/>
		</clipPath>
		<g style="clip-path:url(#SVGID_00000070089574141411884310000003478848972805522323_);">
			<path class="st5" d="M358.3,210l-3-28.2c0,0-6.6-7.8-12.2-3.2c-3.8,3,3.1,28.2,7.5,29.5C358,210.1,358.3,210,358.3,210z"/>
		</g>
	</g>
	<path class="st0" d="M377.2,248.5l-12.8-13.8c-2.5-2.7-4.2-6.1-5-9.7l-4.1-20.1c-0.2-0.9-0.3-1.8-0.4-2.8l-1.4-22.8V173
		c0-21.5,17.4-38.9,38.8-39c0,0,0.1,0,0.1,0h1.5c21.5,0,38.9,17.4,38.9,38.9v6.3l-1.4,22.8c-0.1,0.9-0.2,1.9-0.4,2.8l-4.1,20.1
		c-0.7,3.6-2.5,7-5,9.7l-12.8,13.9c-3.8,4.1-9.1,6.4-14.7,6.4l-2.5,0C386.4,254.9,381.1,252.6,377.2,248.5z"/>
</g>
<g>
	<path class="st7" d="M341.3,167.7c0,0-1,6.8-6.8,8.2c-0.1-0.1,17.9-1,25.2-6.1c9.5-6.5,8.8-14.4,13.2-20.1c4.5-5.8,14-7.6,16.9-2.8
		c2.8,4.8,6.9,7.8,6.9,9.4c0.1,0,3.5-3,5.3-7.4c1.8-4.3,4.5-12.3,4.5-12.3l-15.9-6.8l-17.7,3.5l-15.9,11l-14,16.5L341.3,167.7z"/>
	<path class="st8" d="M353.7,185.8c-0.6-9.2,3.3-11.2,8-15.6c0.4-0.4,1.1-0.2,1.2,0.3c0.1,0.4,0.2,0.8,0.1,1.1c-0.1,0.6,0.5,1,1,0.8
		c3-1.1,5.9-2.6,7.4-5.1c3.3-5.4,5.7-11.5,8.4-17.3c3.6-8.1,6.7,3.9,13.3,6.6c0.5,0.2,1-0.1,1.1-0.6c0.9-5.4,2.7-9.8,1.7-13.5
		c-0.8-3.1-3.4-5.8-5.7-8.4c-0.5-0.6,0.1-1.5,0.8-1.2c9.2,3.2,11.7,8.6,9.8,21.1c-0.1,0.8,0.9,1.2,1.3,0.6c2.7-3.3,5.4-6.6,8.1-9.9
		c0.5-0.6,1.4-0.2,1.3,0.5c-0.1,1.9-0.3,3.8-0.4,5.8c0,0.6,0.5,1,1,0.8c21.4-8.1,12.9-23.1,0.5-32.2c-3-2.2-6.5-4-10-5.6
		c-4.1-2-8.6-3-13.1-3l-2.8,0c-0.8,0-1.1,1.1-0.3,1.5c0,0,0.1,0,0.1,0c0.8,0.3,0.5,1.5-0.3,1.4c-31-1.2-50.3,21.5-47,57
		c0,0.4,0.4,0.7,0.7,0.7c7.5,0.3,12-3.9,15.6-10.3c4.1-7.3,8.6-14.3,14-20.6c2.2-2.5,6.7-3,10.3-4.3c0.4-0.1,0.8,0.1,1,0.4l0.3,0.7
		c0.2,0.4-0.1,0.9-0.5,1c-9.8,2.6-13.6,10.8-17.3,18.9c-5,11-12.7,17.4-25.2,17.1c-0.8,0-1.4,0.4-4.1,1.2
		c14.5,4.1,16.1,13.4,21.9,21.6C354.9,192.3,353.8,186.4,353.7,185.8C353.7,185.8,353.7,185.8,353.7,185.8z"/>
	<path class="st8" d="M430.7,196.3c9-18.4,9.9-43.4,0.2-52.6c-0.9-0.9-4-1.3-4.5-0.1c-1.3,3-1,3.1-0.7,5.7c1.2,8,2.9,16.5,4.7,25
		c1.2,5.7,1.4,11.6,0.6,17.5C430.8,193.7,430.7,195.4,430.7,196.3z"/>
</g>
</svg>
