<?xml version="1.0" encoding="utf-8"?>
<!-- Generator: Adobe Illustrator 26.0.2, SVG Export Plug-In . SVG Version: 6.00 Build 0)  -->
<svg version="1.1" id="Calque_1" xmlns="http://www.w3.org/2000/svg" xmlns:xlink="http://www.w3.org/1999/xlink" x="0px" y="0px"
	 viewBox="0 0 788 1005" style="enable-background:new 0 0 788 1005;" xml:space="preserve">
<style type="text/css">
	.st0{clip-path:url(#SVGID_00000093897794613856493560000014656099631232421306_);}
	.st1{fill:#B8775C;}
	.st2{clip-path:url(#SVGID_00000143580829155555315850000010056310703978569650_);}
	.st3{fill:#D48F72;}
	.st4{fill:#423435;}
</style>
<g>
	<defs>
		<polygon id="SVGID_1_" points="429.7,177 429.7,177 446.1,177 446.1,210 429.7,210 		"/>
	</defs>
	<clipPath id="SVGID_00000122698631367386973380000004033527806723821209_">
		<use xlink:href="#SVGID_1_"  style="overflow:visible;"/>
	</clipPath>
	<g style="clip-path:url(#SVGID_00000122698631367386973380000004033527806723821209_);">
		<path class="st1" d="M429.7,210l3-28.2c0,0,6.6-7.8,12.2-3.2c3.8,3-3.1,28.2-7.5,29.5C430,210.1,429.7,210,429.7,210z"/>
	</g>
</g>
<g>
	<defs>
		<polygon id="SVGID_00000161589941999190188130000014150853533689957802_" points="358.3,177 358.3,177 341.9,177 341.9,210 
			358.3,210 		"/>
	</defs>
	<clipPath id="SVGID_00000143607309760824611490000008961189597389991824_">
		<use xlink:href="#SVGID_00000161589941999190188130000014150853533689957802_"  style="overflow:visible;"/>
	</clipPath>
	<g style="clip-path:url(#SVGID_00000143607309760824611490000008961189597389991824_);">
		<path class="st1" d="M358.3,210l-3-28.2c0,0-6.6-7.8-12.2-3.2c-3.8,3,3.1,28.2,7.5,29.5C358,210.1,358.3,210,358.3,210z"/>
	</g>
</g>
<path class="st3" d="M377.2,248.4l-12.7-13.7c-2.5-2.7-4.3-6.1-5-9.8l-4.1-20c-0.2-0.9-0.3-1.9-0.4-2.8l-1.4-22.8V173
	c0-21.5,17.4-38.9,38.8-39c0,0,0.1,0,0.1,0h1.5c21.5,0,38.9,17.4,38.9,38.9v6.3l-1.4,22.8c-0.1,0.9-0.2,1.9-0.4,2.8l-4.1,20
	c-0.7,3.7-2.5,7.1-5,9.8l-12.7,13.7c-3.8,4.1-9.2,6.5-14.9,6.5l-2.2,0C386.5,254.9,381,252.6,377.2,248.4z"/>
<path class="st4" d="M429.6,149.2c12,10.4,6.6,29.5,6.6,29.5l-3.9,10.8c0,0,0.8-5.3-6.2-20.3c-1.7-3.5,1.9-13-0.2-16.6
	c-4.6-7.9-9.4-11.1-9.4-11.1S421.6,142.2,429.6,149.2z"/>
<path class="st4" d="M356.9,148.9c-12,10.2-6.6,29-6.6,29l3.9,10.7c0,0-0.8-5.2,6.2-20c1.7-3.5-1.9-12.8,0.2-16.4
	c4.6-7.8,9.4-10.9,9.4-10.9S364.9,142,356.9,148.9z"/>
<path class="st4" d="M402.9,260.1c-8.2,11.9,1.9,14.3-3.1,14.3S382,257.3,382,251.1s6.7-1.2,11.7-2.1
	C399.2,248,413.4,244.8,402.9,260.1z"/>
</svg>
