<?xml version="1.0" encoding="utf-8"?>
<!-- Generator: Adobe Illustrator 26.0.2, SVG Export Plug-In . SVG Version: 6.00 Build 0)  -->
<svg version="1.1" id="Calque_1" xmlns="http://www.w3.org/2000/svg" xmlns:xlink="http://www.w3.org/1999/xlink" x="0px" y="0px"
	 viewBox="0 0 188 202.1" style="enable-background:new 0 0 188 202.1;" xml:space="preserve">
<style type="text/css">
	.st0{clip-path:url(#SVGID_00000056385743756471340000000015146690746397828528_);}
	.st1{fill:#B8775C;}
	.st2{clip-path:url(#SVGID_00000175322777270088090210000007309018196547247504_);}
	.st3{fill:#D48F72;}
	.st4{fill:#423435;}
	.st5{fill:#D3D3D3;stroke:#D34B1C;stroke-width:0.958;stroke-miterlimit:10;}
	.st6{fill:#D3D3D3;}
	.st7{fill:#D34B1C;}
</style>
<g>
	<g>
		<defs>
			<polygon id="SVGID_1_" points="139.7,92.7 139.7,92.7 156.1,92.7 156.1,125.7 139.7,125.7 			"/>
		</defs>
		<clipPath id="SVGID_00000170990528299539738740000000923511536716621728_">
			<use xlink:href="#SVGID_1_"  style="overflow:visible;"/>
		</clipPath>
		<g style="clip-path:url(#SVGID_00000170990528299539738740000000923511536716621728_);">
			<path class="st1" d="M139.7,125.7l3-28.2c0,0,6.6-7.8,12.2-3.2c3.8,3-3.1,28.2-7.5,29.5C140,125.9,139.7,125.7,139.7,125.7z"/>
		</g>
	</g>
	<g>
		<defs>
			<polygon id="SVGID_00000084518695213754126510000014465216187616153517_" points="68.3,92.7 68.3,92.7 52,92.7 52,125.7 
				68.3,125.7 			"/>
		</defs>
		<clipPath id="SVGID_00000155847288336890231630000010970601634471709857_">
			<use xlink:href="#SVGID_00000084518695213754126510000014465216187616153517_"  style="overflow:visible;"/>
		</clipPath>
		<g style="clip-path:url(#SVGID_00000155847288336890231630000010970601634471709857_);">
			<path class="st1" d="M68.3,125.7l-3-28.2c0,0-6.6-7.8-12.3-3.2c-3.8,3,3.1,28.2,7.5,29.5C68,125.9,68.3,125.7,68.3,125.7z"/>
		</g>
	</g>
	<path class="st3" d="M87.1,164l-12.5-13.5c-2.6-2.8-4.3-6.2-5.1-9.9l-4.1-19.9c-0.2-0.9-0.3-1.9-0.4-2.8L63.6,95v-6.3
		c0-21.5,17.4-38.9,38.8-39c0,0,0.1,0,0.1,0h1.5c21.5,0,38.9,17.4,38.9,38.9V95l-1.4,22.8c-0.1,1-0.2,1.9-0.4,2.8l-4.1,19.9
		c-0.8,3.7-2.5,7.2-5.1,9.9L119.4,164c-3.9,4.2-9.4,6.6-15.1,6.6l-2,0C96.5,170.7,91,168.3,87.1,164z"/>
	<path class="st4" d="M64.2,100.6c0,0-0.6-12.6,0.9-16.4c2-5.4,6.1-14.6,11.6-16.6c5.9-2.1,21.1,1.5,27.4,1.6
		c5.9,0.1,18-4.6,23.6-2.7c3.5,1.2,8,7.9,9.6,11.2c2.9,5.9,5.2,25.7,5.2,25.7s3.5-18.4,2-25.1c-1.4-5.9-9.7-18.8-14.7-22.4
		s-18.1-5.4-24.3-6s-19.2,0.8-25,3.3c-5.5,2.3-13.9,11.3-16.9,16.3c-1.8,3-3.8,10-3.7,13.5C60.1,87.5,64.2,100.6,64.2,100.6z"/>
	<g>
		<path class="st5" d="M124.3,45.2c0,0,22.5-0.9,13.7-27.8c-8.8-26.8-29-8.9-29-8.9s-7.2-9.8-24.9-6.3S61.2,16.6,61.2,16.6
			S30.6,5.8,32,41.8s38.2,10.3,38.2,10.3"/>
		<path class="st5" d="M54,50.2l6.1,31.6c0,0,34.3-33.8,71-25.1c0-10.1-7.4-20.1-7.4-20.1S83.6,26.8,54,50.2z"/>
		<g>
			<path class="st6" d="M67.6,38.2c0,0,5.9,11.1,22.6,8.4c16.7-2.7,20-16.8,20-16.8"/>
			<path class="st7" d="M67.6,38.2c7.7,11.2,25.3,10.5,35.2,2.5c3.4-2.8,5.9-6.6,7.4-10.7c-1.3,5.4-5,10.2-9.6,13.3
				C90.5,49.7,74.2,49.4,67.6,38.2L67.6,38.2z"/>
		</g>
	</g>
</g>
</svg>
