<?xml version="1.0" encoding="utf-8"?>
<!-- Generator: Adobe Illustrator 26.0.2, SVG Export Plug-In . SVG Version: 6.00 Build 0)  -->
<svg version="1.1" id="Calque_1" xmlns="http://www.w3.org/2000/svg" xmlns:xlink="http://www.w3.org/1999/xlink" x="0px" y="0px"
	 viewBox="0 0 788 1005" style="enable-background:new 0 0 788 1005;" xml:space="preserve">
<style type="text/css">
	.st0{fill:#423435;}
	.st1{clip-path:url(#SVGID_00000169534959967281890160000005322066464767617957_);}
	.st2{fill:#B8775C;}
	.st3{clip-path:url(#SVGID_00000171686030081634663350000005067741792645923519_);}
	.st4{fill:#D48F72;}
</style>
<path class="st0" d="M446.8,194.5c0,41-22.9,29.8-52.5,29.8s-54.6,11.1-54.6-29.8s24.3-58.6,54.3-58.6
	C420.3,135.9,446.8,153.5,446.8,194.5z"/>
<g>
	<defs>
		<polygon id="SVGID_1_" points="429.7,177 429.7,177 446.1,177 446.1,210 429.7,210 		"/>
	</defs>
	<clipPath id="SVGID_00000026852866613154480700000013897300841928219021_">
		<use xlink:href="#SVGID_1_"  style="overflow:visible;"/>
	</clipPath>
	<g style="clip-path:url(#SVGID_00000026852866613154480700000013897300841928219021_);">
		<path class="st2" d="M429.7,210l3-28.2c0,0,6.6-7.8,12.2-3.2c3.8,3-3.1,28.2-7.5,29.5C430,210.1,429.7,210,429.7,210z"/>
	</g>
</g>
<g>
	<defs>
		<polygon id="SVGID_00000056423025495084096370000011526172503759552671_" points="358.3,177 358.3,177 341.9,177 341.9,210 
			358.3,210 		"/>
	</defs>
	<clipPath id="SVGID_00000147188116749952058550000018223336000084052104_">
		<use xlink:href="#SVGID_00000056423025495084096370000011526172503759552671_"  style="overflow:visible;"/>
	</clipPath>
	<g style="clip-path:url(#SVGID_00000147188116749952058550000018223336000084052104_);">
		<path class="st2" d="M358.3,210l-3-28.2c0,0-6.6-7.8-12.2-3.2c-3.8,3,3.1,28.2,7.5,29.5C358,210.1,358.3,210,358.3,210z"/>
	</g>
</g>
<path class="st4" d="M377.2,248.5l-12.8-13.8c-2.5-2.7-4.2-6-5-9.7l-4.1-20.1c-0.2-0.9-0.3-1.8-0.4-2.8l-1.4-22.8V173
	c0-21.5,17.4-38.9,38.8-39c0,0,0.1,0,0.1,0h1.5c21.5,0,38.9,17.4,38.9,38.9v6.3l-1.4,22.8c-0.1,0.9-0.2,1.9-0.4,2.8l-4.1,20.1
	c-0.7,3.6-2.5,7-5,9.7l-12.9,13.9c-3.8,4.1-9.1,6.4-14.7,6.4l-2.5,0C386.4,254.9,381.1,252.6,377.2,248.5z"/>
</svg>
