<?xml version="1.0" encoding="utf-8"?>
<!-- Generator: Adobe Illustrator 26.0.2, SVG Export Plug-In . SVG Version: 6.00 Build 0)  -->
<svg version="1.1" id="Layer_1" xmlns="http://www.w3.org/2000/svg" xmlns:xlink="http://www.w3.org/1999/xlink" x="0px" y="0px"
	 viewBox="0 0 188 202.1" style="enable-background:new 0 0 188 202.1;" xml:space="preserve">
<style type="text/css">
	.st0{fill:#D48F72;}
	.st1{clip-path:url(#SVGID_00000096755743266555840950000012328628983567785611_);}
	.st2{fill:#A85B3B;}
	.st3{clip-path:url(#SVGID_00000057134132204314648870000017619906464046622355_);}
	.st4{clip-path:url(#SVGID_00000034771165543217301650000003468833165161289137_);}
	.st5{fill:#B8775C;}
	.st6{clip-path:url(#SVGID_00000175313321274575258270000000282807909198169501_);}
	.st7{fill:#514043;}
	.st8{fill:#423435;}
</style>
<g>
	<polygon class="st0" points="121,53.4 133.5,65.4 131.1,76.2 121,74 	"/>
	<g id="Calque_1_00000087376061070386087110000012576035050283219087_">
		<g id="random_00000031178943200584984290000011407879793930669240_">
			<g>
				<defs>
					<polygon id="SVGID_1_" points="133.5,95.1 133.5,95.1 149.9,95.1 149.9,128 133.5,128 					"/>
				</defs>
				<clipPath id="SVGID_00000026150804210338683040000017167423229533295502_">
					<use xlink:href="#SVGID_1_"  style="overflow:visible;"/>
				</clipPath>
				<g style="clip-path:url(#SVGID_00000026150804210338683040000017167423229533295502_);">
					<path class="st2" d="M133.5,128l3-28.2c0,0,6.6-7.8,12.2-3.2c3.8,3-3.1,28.2-7.5,29.5C133.8,128.2,133.5,128,133.5,128z"/>
				</g>
			</g>
		</g>
		<g id="random2_00000080917900439439809510000007868849363324347813_">
			<g>
				<defs>
					<polygon id="SVGID_00000117663449491507864100000016606684429847395732_" points="62.1,95.1 62.1,95.1 45.8,95.1 45.8,128 
						62.1,128 					"/>
				</defs>
				<clipPath id="SVGID_00000141419662262135244540000000651128495880932742_">
					<use xlink:href="#SVGID_00000117663449491507864100000016606684429847395732_"  style="overflow:visible;"/>
				</clipPath>
				<g style="clip-path:url(#SVGID_00000141419662262135244540000000651128495880932742_);">
					<path class="st2" d="M62.1,128l-3-28.2c0,0-6.6-7.8-12.2-3.2c-3.8,3,3.1,28.2,7.5,29.5C61.8,128.2,62.1,128,62.1,128z"/>
				</g>
			</g>
		</g>
	</g>
	<g id="Calque_5_00000075856566995344355890000000384455926675306904_">
		<g>
			<defs>
				<polygon id="SVGID_00000111158850045966827120000010253047658811838143_" points="133.5,95.1 133.5,95.1 149.9,95.1 149.9,128 
					133.5,128 				"/>
			</defs>
			<clipPath id="SVGID_00000124128009579622677110000011975137170039964309_">
				<use xlink:href="#SVGID_00000111158850045966827120000010253047658811838143_"  style="overflow:visible;"/>
			</clipPath>
			<g style="clip-path:url(#SVGID_00000124128009579622677110000011975137170039964309_);">
				<path class="st5" d="M133.5,128l3-28.2c0,0,6.6-7.8,12.2-3.2c3.8,3-3.1,28.2-7.5,29.5C133.8,128.2,133.5,128,133.5,128z"/>
			</g>
		</g>
		<g>
			<defs>
				<polygon id="SVGID_00000065043114672104683320000017106534151361376171_" points="62.1,95.1 62.1,95.1 45.8,95.1 45.8,128 
					62.1,128 				"/>
			</defs>
			<clipPath id="SVGID_00000119085966632020460240000017787129977220928688_">
				<use xlink:href="#SVGID_00000065043114672104683320000017106534151361376171_"  style="overflow:visible;"/>
			</clipPath>
			<g style="clip-path:url(#SVGID_00000119085966632020460240000017787129977220928688_);">
				<path class="st5" d="M62.1,128l-3-28.2c0,0-6.6-7.8-12.2-3.2c-3.8,3,3.1,28.2,7.5,29.5C61.8,128.2,62.1,128,62.1,128z"/>
			</g>
		</g>
		<path class="st0" d="M81.1,166.5l-12.8-13.8c-2.5-2.7-4.2-6.1-5-9.7l-4.1-20.1c-0.2-0.9-0.3-1.8-0.4-2.8l-1.4-22.8V91
			c0-21.5,17.4-38.9,38.8-39c0,0,0.1,0,0.1,0h1.5c21.5,0,38.9,17.4,38.9,38.9v6.3l-1.4,22.8c-0.1,0.9-0.2,1.9-0.4,2.8l-4.1,20.1
			c-0.7,3.6-2.5,7-5,9.7L113,166.5c-3.8,4.1-9.1,6.4-14.7,6.4l-2.5,0C90.3,173,84.9,170.6,81.1,166.5z"/>
	</g>
	<g>
		<path class="st7" d="M45.1,85.8c0,0-1,6.8-6.8,8.2c-0.1-0.1,17.9-1,25.2-6.1c9.5-6.5,8.8-14.4,13.2-20.1c4.5-5.8,14-7.6,16.9-2.8
			c2.8,4.8,6.9,7.8,6.9,9.4c0.1,0,3.5-3,5.3-7.4c1.8-4.3,4.5-12.3,4.5-12.3l-15.9-6.8l-17.7,3.5l-15.9,11l-14,16.5L45.1,85.8z"/>
		<path class="st8" d="M57.5,103.8c-0.6-9.2,3.3-11.2,8-15.6c0.4-0.4,1.1-0.2,1.2,0.3c0.1,0.4,0.2,0.8,0.1,1.1c-0.1,0.6,0.5,1,1,0.8
			c3-1.1,5.9-2.6,7.4-5.1c3.3-5.4,5.7-11.5,8.4-17.3c3.6-8.1,6.7,3.9,13.3,6.6c0.5,0.2,1-0.1,1.1-0.6c0.9-5.4,2.7-9.8,1.7-13.5
			c-0.8-3.1-3.4-5.8-5.7-8.4c-0.5-0.6,0.1-1.5,0.8-1.2c9.2,3.2,11.7,8.6,9.8,21.1c-0.1,0.8,0.9,1.2,1.3,0.6c2.7-3.3,5.4-6.6,8.1-9.9
			c0.5-0.6,1.4-0.2,1.3,0.5c-0.1,1.9-0.3,3.8-0.4,5.8c0,0.6,0.5,1,1,0.8c21.4-8.1,12.9-23.1,0.5-32.2c-3-2.2-6.5-4-10-5.6
			c-4.1-2-8.6-3-13.1-3l-2.8,0c-0.8,0-1.1,1.1-0.3,1.5c0,0,0.1,0,0.1,0c0.8,0.3,0.5,1.5-0.3,1.4c-31-1.2-50.3,21.5-47,57
			c0,0.4,0.4,0.7,0.7,0.7c7.5,0.3,12-3.9,15.6-10.3c4.1-7.3,8.6-14.3,14-20.6c2.2-2.5,6.7-3,10.3-4.3c0.4-0.1,0.8,0.1,1,0.4l0.3,0.7
			c0.2,0.4-0.1,0.9-0.5,1c-9.8,2.6-13.6,10.8-17.3,18.9c-5,11-12.7,17.4-25.2,17.1c-0.8,0-1.4,0.4-4.1,1.2
			c14.5,4.1,16.1,13.4,21.9,21.6C58.7,110.4,57.6,104.4,57.5,103.8C57.5,103.9,57.5,103.8,57.5,103.8z"/>
		<path class="st8" d="M134.6,114.3c9-18.4,9.9-43.4,0.2-52.6c-0.9-0.9-4-1.3-4.5-0.1c-1.3,3-1,3.1-0.7,5.7c1.2,8,2.9,16.5,4.7,25
			c1.2,5.7,1.4,11.6,0.6,17.5C134.7,111.7,134.5,113.5,134.6,114.3z"/>
	</g>
</g>
</svg>
