<?xml version="1.0" encoding="utf-8"?>
<!-- Generator: Adobe Illustrator 26.0.2, SVG Export Plug-In . SVG Version: 6.00 Build 0)  -->
<svg version="1.1" id="Layer_1" xmlns="http://www.w3.org/2000/svg" xmlns:xlink="http://www.w3.org/1999/xlink" x="0px" y="0px"
	 viewBox="0 0 788 1005" style="enable-background:new 0 0 788 1005;" xml:space="preserve">
<style type="text/css">
	.st0{fill:none;stroke:#2E858E;stroke-width:3;stroke-miterlimit:10;}
	.st1{clip-path:url(#SVGID_00000142889300190539451100000010998075947776149932_);}
	.st2{fill:#B8775C;}
	.st3{clip-path:url(#SVGID_00000142152117105138326110000014916762211205270707_);}
	.st4{fill:#D48F72;}
	.st5{fill:#423435;}
	.st6{fill:#2E858E;}
</style>
<path class="st0" d="M340.6,180c-1.1-2.6-1.6-5.3-1.6-8.1c0-18.1,24.4-32.9,54.4-32.9s54.4,14.7,54.4,32.9c0,2.9-0.7,5.7-1.9,8.4"/>
<g id="Calque_1">
	<g>
		<defs>
			<polygon id="SVGID_1_" points="429.7,177 429.7,177 446.1,177 446.1,210 429.7,210 			"/>
		</defs>
		<clipPath id="SVGID_00000106837608050101610290000015502617106141425294_">
			<use xlink:href="#SVGID_1_"  style="overflow:visible;"/>
		</clipPath>
		<g style="clip-path:url(#SVGID_00000106837608050101610290000015502617106141425294_);">
			<path class="st2" d="M429.7,210l3-28.2c0,0,6.6-7.8,12.2-3.2c3.8,3-3.1,28.2-7.5,29.5C430,210.1,429.7,210,429.7,210z"/>
		</g>
	</g>
	<g>
		<defs>
			<polygon id="SVGID_00000083085700528629738510000015809572885076562085_" points="358.3,177 358.3,177 341.9,177 341.9,210 
				358.3,210 			"/>
		</defs>
		<clipPath id="SVGID_00000103979577943960369540000014977026389900006556_">
			<use xlink:href="#SVGID_00000083085700528629738510000015809572885076562085_"  style="overflow:visible;"/>
		</clipPath>
		<g style="clip-path:url(#SVGID_00000103979577943960369540000014977026389900006556_);">
			<path class="st2" d="M358.3,210l-3-28.2c0,0-6.6-7.8-12.2-3.2c-3.8,3,3.1,28.2,7.5,29.5C358,210.1,358.3,210,358.3,210z"/>
		</g>
	</g>
	<path class="st4" d="M377.4,248.6l-13-14.1c-2.4-2.6-4.1-5.9-4.8-9.4l-4.1-20.3c-0.2-0.9-0.3-1.8-0.4-2.7l-1.4-22.8
		c0,0,0-0.1,0-0.1V173c0-21.5,17.4-38.9,38.8-39c0,0,0.1,0,0.1,0h0c22.3,0,40.4,18.1,40.4,40.4v4.8c0,0,0,0.1,0,0.1l-1.4,22.8
		c-0.1,0.9-0.2,1.8-0.4,2.7l-4.1,20.3c-0.7,3.5-2.4,6.8-4.8,9.4l-13.1,14.1c-3.7,4-8.9,6.3-14.3,6.3l-2.9,0
		C386.4,254.9,381.1,252.7,377.4,248.6z"/>
</g>
<g id="Calque_6">
	<path class="st5" d="M373.3,146.8c-0.6-0.3-1.3,0.1-1.4,0.8c-0.4,2.6-1.5,8.4-3.8,11.6c-4.5,6.4-10.3,8.5-12.7,11.9
		c-2.1,3.1-0.3,18.7-0.3,18.7s-7.5-13.8-7.7-17c-0.1-1.4,0.9-4.2,1.8-6.3c0.4-0.9-0.6-1.7-1.4-1.3l-1.6,0.9
		c-0.7,0.4-1.5-0.1-1.5-0.8c-0.1-2.4-0.3-6.7,0.3-8.5c0.5-1.4,2.3-3.8,3.7-5.4c0.6-0.7,0-1.7-0.8-1.7l0,0c-0.8,0-1.4-0.9-0.9-1.6
		c1.8-2.7,5.9-7.9,11.3-9.3c2-0.5,7.2,0.5,9.4,0.9c0.5,0.1,1-0.2,1.2-0.6c1-2.5,5.4-9.7,23.7-10.4c21.3-0.8,35.7,8.3,40.2,11.7
		c0.7,0.5,0.5,1.5-0.3,1.8l-1,0.4c-0.9,0.3-0.9,1.5-0.1,1.9c3,1.4,5.4,3.8,6.8,6.9c1.2,2.7,2.6,9.3,3.2,12.6
		c0.2,0.8-0.7,1.5-1.5,1.1l-0.9-0.4c-0.8-0.4-1.6,0.3-1.4,1.1c1,4.8,0.7,9.9-1,14.6c-0.7,1.9-4.9,9.5-4.9,9.5c0,0,0-11.1-4.4-19.7
		c-1.6-2.9-3.5-5.5-5.8-7.8c-0.6-0.6-1.6-0.3-1.8,0.5l-0.2,1.1c-0.2,0.8-1.2,1.1-1.8,0.5c-3-3.3-11.1-10.5-23.5-10.5
		C389,154,377.2,148.6,373.3,146.8z"/>
</g>
<g>
	<path class="st6" d="M355.9,214.8l-1.9,0.4c-2,0.4-3.9-0.9-4.2-2.8l-5.9-28.9c-0.4-2,0.9-3.9,2.8-4.2l1.9-0.4
		c2-0.4,3.9,0.9,4.2,2.8l5.9,28.9C359.1,212.4,357.8,214.3,355.9,214.8z"/>
	<path class="st6" d="M349.3,212.8l-3.8,0.8c-2,0.4-3.9-0.9-4.2-2.8l-4.6-22.3c-0.4-2,0.9-3.9,2.8-4.2l3.8-0.8L349.3,212.8z"/>
	<path class="st6" d="M338.5,177.8l2.3-1.3c0.5-0.3,1.2,0,1.3,0.5l1.6,7.9c0.1,0.4-0.2,0.9-0.5,1l0,0c-0.4,0.1-0.8,0-1-0.4l-3.9-6.6
		C337.9,178.7,338,178.2,338.5,177.8z"/>
</g>
<g>
	<path class="st6" d="M431,214.8l1.9,0.4c2,0.4,3.9-0.9,4.2-2.8l5.9-28.9c0.4-2-0.9-3.9-2.8-4.2l-1.9-0.4c-2-0.4-3.9,0.9-4.2,2.8
		l-5.9,28.9C427.7,212.4,429,214.3,431,214.8z"/>
	<path class="st6" d="M437.5,212.8l3.8,0.8c2,0.4,3.9-0.9,4.2-2.8l4.6-22.3c0.4-2-0.9-3.9-2.8-4.2l-3.8-0.8L437.5,212.8z"/>
	<path class="st6" d="M448.4,177.8l-2.3-1.3c-0.5-0.3-1.2,0-1.3,0.5l-1.6,7.9c-0.1,0.4,0.2,0.9,0.5,1l0,0c0.4,0.1,0.8,0,1-0.4
		l3.9-6.6C449,178.7,448.9,178.2,448.4,177.8z"/>
</g>
<path class="st0" d="M353.2,214.1L337,226.9c-2.7,2.2-2.2,6.4,1,7.8l11,4.8"/>
<circle class="st6" cx="353.2" cy="239.6" r="6.3"/>
</svg>
