<?xml version="1.0" encoding="utf-8"?>
<!-- Generator: Adobe Illustrator 26.0.2, SVG Export Plug-In . SVG Version: 6.00 Build 0)  -->
<svg version="1.1" id="Calque_1" xmlns="http://www.w3.org/2000/svg" xmlns:xlink="http://www.w3.org/1999/xlink" x="0px" y="0px"
	 viewBox="0 0 188 202.1" style="enable-background:new 0 0 188 202.1;" xml:space="preserve">
<style type="text/css">
	.st0{fill:#423435;}
	.st1{clip-path:url(#SVGID_00000075847419813515738400000001929216303899175599_);}
	.st2{fill:#B8775C;}
	.st3{clip-path:url(#SVGID_00000085970416835587562100000017775477906993664655_);}
	.st4{fill:#D48F72;}
</style>
<g>
	<path class="st0" d="M147.5,95.6c0,41-22.9,29.8-52.5,29.8s-54.6,11.1-54.6-29.8S64.8,37,94.8,37C121,37,147.5,54.6,147.5,95.6z"/>
	<g>
		<defs>
			<polygon id="SVGID_1_" points="130.5,78.1 130.5,78.1 146.8,78.1 146.8,111 130.5,111 			"/>
		</defs>
		<clipPath id="SVGID_00000152265553888833413560000015621189291012533666_">
			<use xlink:href="#SVGID_1_"  style="overflow:visible;"/>
		</clipPath>
		<g style="clip-path:url(#SVGID_00000152265553888833413560000015621189291012533666_);">
			<path class="st2" d="M130.5,111.1l3-28.2c0,0,6.6-7.8,12.2-3.2c3.8,3-3.1,28.2-7.5,29.5C130.8,111.2,130.5,111.1,130.5,111.1z"/>
		</g>
	</g>
	<g>
		<defs>
			<polygon id="SVGID_00000132088675309233151050000010748013952649345960_" points="59,78.1 59,78.1 42.7,78.1 42.7,111 59,111 			
				"/>
		</defs>
		<clipPath id="SVGID_00000113350412819057202890000004307380855141066638_">
			<use xlink:href="#SVGID_00000132088675309233151050000010748013952649345960_"  style="overflow:visible;"/>
		</clipPath>
		<g style="clip-path:url(#SVGID_00000113350412819057202890000004307380855141066638_);">
			<path class="st2" d="M59,111.1l-3-28.2c0,0-6.6-7.8-12.2-3.2c-3.8,3,3.1,28.2,7.5,29.5C58.8,111.2,59,111.1,59,111.1z"/>
		</g>
	</g>
	<path class="st4" d="M78,149.6l-12.8-13.8c-2.5-2.7-4.2-6-5-9.7L56.1,106c-0.2-0.9-0.3-1.8-0.4-2.8l-1.4-22.8v-6.3
		c0-21.5,17.4-38.9,38.8-39c0,0,0.1,0,0.1,0h1.5c21.5,0,38.9,17.4,38.9,38.9v6.3l-1.4,22.8c-0.1,0.9-0.2,1.9-0.4,2.8l-4.1,20.1
		c-0.7,3.6-2.5,7-5,9.7L110,149.6c-3.8,4.1-9.1,6.4-14.7,6.4l-2.5,0C87.2,156,81.8,153.7,78,149.6z"/>
</g>
</svg>
