<?xml version="1.0" encoding="utf-8"?>
<!-- Generator: Adobe Illustrator 26.0.2, SVG Export Plug-In . SVG Version: 6.00 Build 0)  -->
<svg version="1.1" id="Calque_1" xmlns="http://www.w3.org/2000/svg" xmlns:xlink="http://www.w3.org/1999/xlink" x="0px" y="0px"
	 viewBox="0 0 388 323.9" style="enable-background:new 0 0 388 323.9;" xml:space="preserve">
<style type="text/css">
	.st0{fill:#90573A;}
	.st1{fill:#6F412A;}
	.st2{fill:#9CCBF2;}
	.st3{fill:#587CC6;}
	.st4{fill:#4D6FAA;}
	.st5{fill:#DCE8EF;}
</style>
<path class="st0" d="M194.2,152.6c-5.2-3.5-7.6-0.6-13.1,2.4c-9.3,5.2-15.1,23-25.4,25.4c-3.7,0.9-12.1-14.6-13-20.7
	c-1.5-9,2.4-26.7-8-35.8c-8.8-7.7-20.4-3.6-24.2-15.8c-6.7-21.3,12.8-37.3,22.3-41.1c14.4-5.7,35.4-4.9,41.4-13.8l0.9-26.9l0.6-19.6
	l17.4-0.8h2.1l17.4,0.8l0.7,19.6l0.9,26.9c6.1,8.9,27,8.1,41.4,13.8c9.5,3.8,28.9,19.8,22.3,41.1c-3.8,12.2-15.4,8.1-24.2,15.8
	c-10.4,9.1-6.5,26.7-8,35.8c-1,6.1-9.4,21.5-13,20.7c-10.3-2.4-16.1-20.2-25.4-25.4C201.8,152,199.4,149.1,194.2,152.6"/>
<path class="st1" d="M174.7,53.6c0,0,30.2,11.1,39.2-10.5l-1.2-36.3h-37L174.7,53.6z"/>
<path class="st0" d="M150.2,80.9c5.2,19.1-5.7,27.7-10.1,36.2c-7.1,13.5-10.1,43.5-14.3,57.7c-2,6.8-9.3,21.7-20.3,19.3l0,0
	c-13.9-3.7-11.5-21-10.2-27.6c2.6-13.4,8-70.3,18-84.4c0,0,9.4-14.9,22.2-14C143.6,68.6,148.1,73,150.2,80.9L150.2,80.9z"/>
<path class="st0" d="M113.5,193.9c-8.6,7.2-16.9,0-23.2-7.1c-4.5-5.1-43-58.9-53.7-73.3c-6-8.2-9.5-12.4-4.9-16.4
	c4.1-3.7,12.5,2.5,15.9,4.9c31.2,22.5,53.7,41.1,67.6,66.5C124.1,185.1,116.5,191.5,113.5,193.9z"/>
<path class="st2" d="M16.3,71.5c-3-1.5-6-3.1-8.8-5c-2.5-1.6-5.6,1.1-4.3,3.7c0,0,0,0,0,0.1c1,1.9,9.2,8.5,9.2,8.5l0,0
	c-28.7-4-50-3.3-53-2.9c-0.5,0.1-1,0.3-1.6,0.7c-2.3,1.4-1.5,4.9,1.1,5.3c8.5,1.5,23.7,4.1,29.1,5.4c26,6,33.7,11.6,44.8,21.5
	c2,1.7,14-5.6,10.2-9.6c-1.3-1.4-3.9-11.4-6.5-13.3C26,78.3,16.7,71.7,16.3,71.5z"/>
<path class="st0" d="M238.3,79.4c-6,18.9,4.5,27.9,8.6,36.6c6.6,13.7,8.3,43.8,11.9,58.2c1.7,6.8,8.4,22.1,19.5,20.2l0,0
	c14.1-3.1,12.4-20.5,11.4-27.2c-2.1-13.5-5.1-70.6-14.5-85.1c0,0-8.8-15.3-21.6-14.9C245.4,67.4,240.7,71.6,238.3,79.4z"/>
<path class="st0" d="M272.1,193c8.4,7.4,16.9,0.5,23.4-6.5c4.6-5,44.7-57.6,55.8-71.7c6.3-8,9.8-12.1,5.4-16.3
	c-4-3.8-12.6,2.2-16,4.4c-31.9,21.6-54.9,39.6-69.5,64.5C261.7,183.9,269.2,190.5,272.1,193z"/>
<path class="st2" d="M372.8,73.4c3.1-1.4,6.2-3,9.1-4.8c2.4-1.4,5.3,0.9,4.3,3.5c-0.1,0.2-0.2,0.3-0.2,0.5c-1.1,1.9-9.4,8.2-9.4,8.2
	l0,0c28.8-3.2,50.1-1.9,53.1-1.4c0.5,0.1,1,0.4,1.6,0.8c2.2,1.5,1.4,4.9-1.2,5.3c-8.6,1.2-23.8,3.4-29.2,4.5
	c-26.1,5.3-34.1,10.6-45.5,20.2c-2,1.7-13.8-6.1-9.9-9.9c1.4-1.4,4.3-11.2,6.9-13.1C362.9,80,372.5,73.6,372.8,73.4z"/>
<g>
	<path class="st3" d="M255.2,198.5h0.5l2.1-2.4c2.6-3,3.3-7.2,1.9-10.9c-1.7-4.5-3.8-10.2-3.8-11.8c0.2-20.6,0.3-46.4,0.3-48.1
		c0-2.6,13.2-45,14.7-51.8c0.1-0.4-0.2-0.9-0.6-1.1l-44.7-19.3c-5.2-2.2-11.3,0-13.8,5l-8.1,16.2c-3.9,7.8-15,7.9-19.1,0.3
		l-9.4-17.7c-2.6-4.9-8.6-7.1-13.7-4.9L114,72.6c0,0,0,0,0,0.1l15.4,47.1c0.3,1,0.5,2.1,0.5,3.2l0.4,49.1c0,1.1-0.2,2.1-0.4,3.2
		l-3.5,11.8c-0.8,2.6-0.5,5.5,0.7,7.8l0,0c0.9,1.7,1.2,3.6,1.1,5.5c-0.2,3.2-0.5,8.4-0.8,12.1l-7.9,85.2c-0.3,4.9,2.6,9.4,7.3,10.9
		l24,4.5c21.9,4.7,44.6,4.8,66.5,0.3c14-2.9,43.9-6,51.9-7.8c5-1.2,1.4-21.8,1.2-27l-11.2-65.3C258.8,207.7,257.4,202.7,255.2,198.5
		z"/>
	<polygon class="st4" points="263.9,212.1 266.6,252.7 229.1,259.2 221,254.2 219.1,210.2 264.2,203.8 	"/>
	
		<ellipse transform="matrix(0.3162 -0.9487 0.9487 0.3162 -74.0796 261.6525)" class="st2" cx="144.5" cy="182.2" rx="5.7" ry="5.7"/>
	<circle class="st5" cx="144.5" cy="182.2" r="4.6"/>
	<g>
		<path class="st5" d="M144.6,182.2c0.3,6.7,0.7,13.5,0.8,20.2c0.3,5,0.5,10.1-0.4,15.1c-0.3,1.7-0.6,3.3-1.1,5h-0.3
			c-1.7-6.7-1.5-13.5-0.8-20.2c0.4-6.7,0.9-13.4,1.6-20.1C144.3,182.2,144.6,182.2,144.6,182.2L144.6,182.2z"/>
	</g>
	<g>
		<path class="st5" d="M159.7,176.4c0.3,6.7,0.7,13.5,0.8,20.2c0.3,5,0.5,10.1-0.4,15.1c-0.3,1.7-0.6,3.3-1.1,5h-0.3
			c-1.7-6.7-1.5-13.5-0.8-20.2c0.4-6.7,0.9-13.4,1.6-20.1C159.3,176.4,159.7,176.4,159.7,176.4L159.7,176.4z"/>
	</g>
	<polygon class="st4" points="124.5,212.2 121.9,252.8 159.3,259.2 167.4,254.1 169.4,210.3 124.3,203.8 	"/>
	<g>
		<path class="st5" d="M159.3,180.9c-0.1-2.6-0.3-6-0.3-8.1c-0.9-4.4,2.1-7.1,6.4-5.8c1.9,0.5,2.4,2,1.7,3.8
			c-0.3,0.6-0.4,1.1-0.6,1.7h-0.2c-0.4-1,0.2-2.6-0.3-3.4c-0.3-0.5-1.6-0.6-2.6-0.6c-2.6-0.3-3.4,1.9-3.2,4.1
			c-0.2,2.7-0.4,5.5-0.6,8.3C159.5,180.9,159.3,180.9,159.3,180.9L159.3,180.9z"/>
	</g>
</g>
</svg>
