<?xml version="1.0" encoding="utf-8"?>
<!-- Generator: Adobe Illustrator 26.0.2, SVG Export Plug-In . SVG Version: 6.00 Build 0)  -->
<svg version="1.1" id="Calque_9" xmlns="http://www.w3.org/2000/svg" xmlns:xlink="http://www.w3.org/1999/xlink" x="0px" y="0px"
	 viewBox="0 0 788 1005" style="enable-background:new 0 0 788 1005;" xml:space="preserve">
<style type="text/css">
	.st0{fill:#90573A;}
	.st1{clip-path:url(#SVGID_00000123407785597789980380000003003920852426164877_);}
	.st2{clip-path:url(#SVGID_00000052810769671138094510000008053620410831284410_);}
	.st3{fill:none;}
	.st4{fill:#3E0045;}
	.st5{fill:#6F412A;}
	.st6{fill:#BCBCBC;}
	.st7{fill:none;stroke:#BCBCBC;stroke-width:5;stroke-linecap:round;stroke-miterlimit:10;}
	.st8{fill:#ED5875;}
	.st9{fill:none;stroke:#D3BB54;stroke-width:6;stroke-linecap:round;stroke-miterlimit:10;}
	.st10{fill:none;stroke:#BCBCBC;stroke-width:2;stroke-linecap:round;stroke-miterlimit:10;}
	.st11{fill:#D3BB54;}
</style>
<path class="st0" d="M347.4,330.5c0.2-0.5,20.7-4.1,26.1-12.1l1.2-50h38.8l1.8,47.6c0,0,3.1,5.7,31.3,13.1
	c28.2,7.3-45.9,21.4-45.9,21.4L347.4,330.5z"/>
<g>
	<g>
		<defs>
			<rect id="SVGID_1_" x="304.6" y="265.9" width="89.4" height="188.1"/>
		</defs>
		<clipPath id="SVGID_00000013876872590155397990000001455161814908204733_">
			<use xlink:href="#SVGID_1_"  style="overflow:visible;"/>
		</clipPath>
		<g style="clip-path:url(#SVGID_00000013876872590155397990000001455161814908204733_);">
			<path class="st0" d="M407,423.5c9.3,6.1,19.3,30.2,30.1,32.7c3.9,0.9,11.6-4.5,13.7-7.9c7.7-12.1,4-46.1,14.9-55.5
				c9.2-7.9,31.4-3.4,32-36.7c0.3-20.2-23.3-29.9-29.1-32c-0.9-0.3-1.9-0.7-2.8-1.2c0,0-48.1,9.1-48.9-39.2l-0.2-15.7l-23.4,1.8
				l-18.3,0.8l-0.7,20.2l-0.9,27.7c-6.4,9.1-28.4,9.4-43.5,15.2c-10,3.9-30.4,19.4-23.4,41.3c4,12.6,16.2,8.4,25.5,16.3
				c10.9,9.3,6.9,27.5,8.4,36.9c1,6.2,9.9,22.2,13.7,21.3c10.8-2.5,16.9-20.9,26.7-26.2c2.9-1.6,8-2.5,13.2-2.5
				S404.3,421.8,407,423.5z"/>
		</g>
	</g>
</g>
<g>
	<g>
		<defs>
			<polygon id="SVGID_00000007408768657783245010000004784996285346792635_" points="394,265.9 394,454 484.8,455.9 484.8,267.8 			
				"/>
		</defs>
		<clipPath id="SVGID_00000127746721375265954330000016949566313048180668_">
			<use xlink:href="#SVGID_00000007408768657783245010000004784996285346792635_"  style="overflow:visible;"/>
		</clipPath>
		<g style="clip-path:url(#SVGID_00000127746721375265954330000016949566313048180668_);">
			<path class="st0" d="M381.5,421.2c-9.3,6.1-19.3,30.2-30.1,32.7c-3.9,0.9-11.6-4.5-13.7-7.9c-7.7-12.1-4-46.2-14.9-55.5
				c-9.2-7.9-31.4-3.4-32-36.7c-0.3-20.2,23.3-29.9,29.1-31.9c0.9-0.3,1.9-0.7,2.8-1.2c0,0,48.1,9.1,48.9-39.2l0.2-15.6l23.4,1.8
				l18.3,0.8l0.7,20.2l0.9,27.7c6.4,9.1,28.4,10.4,43.5,16.2c10,3.9,30.5,18.4,23.5,40.4c-4,12.6-16.2,8.4-25.5,16.3
				c-10.9,9.3-6.9,27.5-8.4,36.9c-1,6.2-9.9,22.2-13.7,21.3c-10.8-2.5-16.9-20.9-26.7-26.2C402,418,387,417.6,381.5,421.2z"/>
		</g>
	</g>
</g>
<path class="st0" d="M443.3,355.4c1.6,21.9,14.8,26.7,21.9,33.8c11.3,11.3,25.7,42.1,34.3,55.5c4.1,6.3,15.8,19.5,25.5,13l0,0
	c12-8.9,6.3-23.2,3-29.7c-6.8-13.1-25.3-39.1-30.1-53.1c-3.6-10.4-5-21.5-19.3-32.4c0,0-13.9-12-25.7-6.2
	C445.3,340.1,442.6,346.4,443.3,355.4L443.3,355.4z"/>
<path class="st0" d="M522.5,429.9c13.4,6.9,9.9,18.8,7.7,24.7c-2.3,6.4-37.9,61.9-46.9,77.4c-5.1,8.8-7.6,13.6-13.1,11.1
	c-5-2.3-4.9-7.2-1.8-16.5c15.8-47.3,15.8-55.5,31.8-88.2C507,424.6,519.1,428.2,522.5,429.9z"/>
<rect x="716.5" y="506.9" class="st3" width="112.5" height="211.2"/>
<path class="st0" d="M353.5,360.9c-4.3,21.5-18,24.7-25.9,30.9c-12.6,9.8-29.3,38.2-39.7,50.2c-4.9,5.7-18.5,17-27.1,9.2l0,0
	c-10.6-10.6-3-23.9,1.3-29.8c8.6-12,28.3-34.5,34.9-47.8c4.9-9.9,7.6-20.7,23.1-29.8c0,0,15.3-10.2,26.3-3
	C353.3,345.5,355.2,352.1,353.5,360.9L353.5,360.9z"/>
<path class="st0" d="M273.7,448.9c14-5.4,10.1-16.4,8.6-22.5c-1.7-6.6-31.3-65.8-38.8-82.1c-4.3-9.2-6.3-14.2-12.1-12.1
	c-5.2,1.9-4.2,12.3-3.2,16.3c11.3,43,14.3,53.1,26.3,91.1C260.1,457.5,270.1,450.3,273.7,448.9z"/>
<path class="st0" d="M436.1,540.2c0,0-1.5-3.9-0.7-4.6s15.4-7.7,16.2-7.5s15.8,0.2,16.9,0s11.4,8.3,10.9,9s-11.2,23.1-12.8,23.5
	s-7.4,3.9-8.2,3.7S440,551.2,440,551.2l2-8L436.1,540.2z"/>
<path class="st4" d="M507.9,384.9l-24.2-39.2c-3.3-5.3-8.4-9.3-14.4-11.1l-27.4-8.5c-0.8-0.2-1.6-0.2-2.4,0
	c-6.2,2.1-34.8,11.6-45.5,11.3c-9.4-0.3-33.7-9.9-39.7-12.3c-0.9-0.3-1.8-0.4-2.7-0.1l-24.1,8.3c-7.2,2.5-13.5,6.9-18.1,12.9
	L292,368.5c-1.9,2.4-1.7,5.9,0.4,8.1l27.5,29.4c1.7,1.8,4.6,1.6,6-0.4c2.1-3.1,6.9-1.8,7.1,1.9l4.4,73.5c0.1,2.5-0.5,4.9-1.9,7
	l-0.9,1.4c-0.6,0.8-0.9,1.8-0.9,2.8v3.1c0,2.7,2.2,5,5,5l89.4,1l19.5,0.2c0.1,0,0.2,0,0.3,0l2,0c2.8,0,5.1-2.2,5.1-5V492
	c0-1-0.3-2-0.9-2.8l0,0c-1.4-2-2-4.4-1.9-6.8l3.8-79.6c0.2-3.9,5.3-5.1,7.2-1.7l6.2,11.1c1.1,2,3.8,2.6,5.7,1.2l32-23.2
	C508.5,388.9,509,386.7,507.9,384.9z"/>
<path class="st5" d="M373.5,316.7c0,0,31.8,11.4,41.2-10.8l-1.3-37.4h-38.8L373.5,316.7z"/>
<g>
	<path class="st6" d="M229,323.6l2.8,1.1c2.2,0.9,4.7-0.2,5.6-2.4l14-35.3c0.9-2.2-0.2-4.7-2.4-5.6l-2.8-1.1
		c-2.2-0.9-4.7,0.2-5.6,2.4l-14,35.3C225.7,320.2,226.8,322.7,229,323.6z"/>
	<path class="st7" d="M231.1,277.2l-3.1,7.6c-1.2,3.2-1,6.8,0.8,9.7l6.1,9.9"/>
	<circle class="st6" cx="186.1" cy="249.8" r="11.5"/>
	<path class="st8" d="M268.4,266.2l0.1,1.8c0.4,9-3.3,17.7-10.1,23.6l0,0c-1,0.9-2.5,1.1-3.7,0.4c-8.1-4.4-40-19.8-77.7-12
		c-4.1,0.7,22.8-66.9,23.6-59.2c22.7,28.2,56.5,39.7,65.5,42.4C267.4,263.6,268.3,264.8,268.4,266.2z"/>
</g>
<path class="st0" d="M239.4,337.9c0.6-0.3,1.1-0.7,1.4-1.3c1.6-2.8,6.5-11.6,6.6-13.5c0.2-2.2-0.4-12,0-13.7
	c0.4-1.7,5.5-11,4.4-11.5c-0.7-0.2-2.4-0.7-3.8-1.1c-1.3-0.3-2.7,0.2-3.5,1.3l-3.5,4.8c-0.2,0.4-0.5,0.9-0.6,1.3l-0.7,4.2
	c-0.3,1.8-2.7,2.2-3.6,0.5l-4.9-10.1c-0.1-0.2-0.2-0.3-0.2-0.5c-0.7-2.5-7.1,0.7-7.1,0.7c-0.1-0.1-4.3,2.4-5.8,3.3
	c-0.4,0.2-0.7,0.5-1.1,0.7l-3.2,2.3c-2.8,2-4.9,4.8-5.9,8.1c-0.4,1.5-0.6,2.8,0.1,3.6c0.2,0.2,0.3,0.4,0.4,0.7l12,22.7
	c0.3,0.7,1,1.2,1.6,1.5l3.7,1.6c0.9,0.3,1.9,0.3,2.7-0.1L239.4,337.9z"/>
<line class="st9" x1="151.5" y1="238.4" x2="168" y2="244.4"/>
<line class="st9" x1="163.4" y1="209.8" x2="174.7" y2="232.5"/>
<line class="st9" x1="148" y1="269.4" x2="167" y2="258"/>
<polygon class="st8" points="453.9,444.2 336.3,463.9 333.4,414 455.3,414 "/>
<path class="st10" d="M359.2,324.9c0,0,25.4,121,41.1,124.7s36.4-124.2,36.4-124.2"/>
<g>
	<circle class="st11" cx="400.5" cy="458.2" r="8.6"/>
	<path class="st11" d="M395.7,461.3c0,0,5.8,5.1,6.2,8.7c0.1,0.9,0.1,1.5,0,1.9c0,0.3,0.2,0.5,0.5,0.5l6.7,0.1
		c0.3,0,0.6-0.2,0.6-0.5l-0.9-13.1"/>
</g>
</svg>
