<?xml version="1.0" encoding="utf-8"?>
<!-- Generator: Adobe Illustrator 26.0.2, SVG Export Plug-In . SVG Version: 6.00 Build 0)  -->
<svg version="1.1" id="Layer_1" xmlns="http://www.w3.org/2000/svg" xmlns:xlink="http://www.w3.org/1999/xlink" x="0px" y="0px"
	 viewBox="0 0 788 1005" style="enable-background:new 0 0 788 1005;" xml:space="preserve">
<style type="text/css">
	.st0{fill:#4E6566;}
	.st1{fill:#90573A;}
	.st2{fill:#6F412A;}
	.st3{fill:#D68F72;}
	.st4{fill:#295446;}
	.st5{fill:#9C3A26;}
	.st6{fill:#873022;}
	.st7{fill:#AFAFAF;}
	.st8{fill:#898989;}
</style>
<path class="st0" d="M255.7,400.3c0,0-6.4,0.9-7.1,4.2c-0.8,3.3-6.3,4-7.7,8c-1.3,3.9-1.7,12.7,3.4,16.9c5.1,4.2,2,0.4,8.2,0
	c6.2-0.4,16.5,0.3,22.7-7s3.8-19.9-0.8-20.1S255.7,400.3,255.7,400.3z"/>
<path class="st0" d="M334.9,488.5L334.9,488.5c0-6.5,6.9-13.4,6.1-24.9h101.7c-0.2,11.5,7.5,18.5,7.5,24.9l0,0
	c0,6.5-5.2,11.7-11.7,11.7c0,0,0,0,0,0h-91.9C340.1,500.2,334.9,494.9,334.9,488.5z"/>
<path class="st1" d="M393,419.1c-5.5-3.6-8-0.6-13.7,2.5c-9.8,5.4-15.8,23.7-26.7,26.2c-3.9,0.9-12.7-15.1-13.7-21.3
	c-1.5-9.3,2.5-27.5-8.4-36.9c-9.2-7.9-21.5-3.7-25.5-16.3c-7-22,13.5-38.5,23.4-42.4c15.2-5.9,37.1-5.1,43.5-14.2l0.9-27.7l0.7-20.2
	l18.3-0.8h2.2l18.3,0.8l0.7,20.2l0.9,27.7c6.4,9.1,28.4,8.4,43.5,14.2c10,3.9,30.4,20.4,23.4,42.4c-4,12.6-16.2,8.4-25.5,16.3
	c-10.9,9.3-6.9,27.5-8.4,36.9c-1,6.2-9.9,22.2-13.7,21.3c-10.8-2.5-16.9-20.9-26.7-26.2C401,418.5,398.5,415.5,393,419.1"/>
<path class="st2" d="M372.5,317.1c0,0,31.8,11.4,41.2-10.8l-1.3-37.4h-38.8L372.5,317.1z"/>
<path class="st3" d="M354.8,354c-17.5,22.7-64.1,60.9-76.1,71.4c-5.7,4.9-20.6,14.3-28.1,5.4l0,0c-9.1-11.9,0.4-24,5.4-29.3
	c10.2-10.7,32.8-30.3,41.1-42.6c6.2-9.1,10.4-19.4,27-26.3c0,0,16.5-8,26.4,0.6C356.9,338.7,357.8,345.5,354.8,354L354.8,354z"/>
<path class="st3" d="M436.7,349.7c1.6,19.8,14.8,24.1,21.9,30.5c11.3,10.2,24.3,37.4,33.2,49.3c4.2,5.6,16.2,17.2,25.7,11.2l0,0
	c11.8-8.3,3.6-23.7,0.1-29.5c-7.1-11.7-31.6-63.3-45.8-73.1c0,0-13.9-10.8-25.6-5.6C438.7,335.9,436,341.6,436.7,349.7z"/>
<path class="st1" d="M517.4,417.7c-9.7-5.7-16.7,2.7-21.8,10.8c-3.6,5.7-33.1,65-41.3,80.9c-4.6,9-3.4,10.2,1.7,13.5
	c4.6,3,9.9-1.5,12.4-4.7c26.9-33.7,45-48.3,54.6-75.6C529.3,424.7,520.8,419.6,517.4,417.7z"/>
<path class="st0" d="M248.5,408.4c-5.5,5.9-3.5,14.4-1.6,18c3,5.7,4.4,9.9,17.6,8.9c13-1,57.6-48.1,61.1-45.7s14,58.1,14.3,61.5
	c0.2,2.1,1.1,14.3,1.8,23.6c0.5,6,5.5,10.6,11.5,10.6H431c6.3,0,11.4-5,11.5-11.3c0.2-11.3,0.5-27.1,0.6-28.9
	c0.1-2.8,15.7-62.4,18.7-58.6c2.3,2.9,19.5,29.6,27.2,41.5c2.3,3.5,2.4,8,0.5,11.6l-23.6,44.1c-2.7,5-1.3,11.3,3.3,14.7l2.5,1.9
	c4.9,3.6,11.6,2.8,15.6-1.8l33.5-39.3c1.1-1.2,1.8-2.7,2.3-4.3l5.6-19.2c0.9-3,0.5-6.2-1.1-8.9l-50.4-87.4c-1.3-2.3-3.4-4.1-5.9-5
	l-20.3-7.7c-0.4-0.1-0.8-0.3-1.1-0.4l-35.8-9.7c0,0-13.2,17.4-42,0l-51.4,13.3c-2.2,0.6-4.1,1.9-5.6,3.6l-33.1,38.8"/>
<path class="st4" d="M329,471.9l-14.9,119.7c-1.1,9.4,9.1,18.2,18.3,20.2c0,0,40.5,13.7,57.8,14.4c17.9,0.7,71-9.5,71-9.5
	c0.1,0,0.2,0,0.2,0c10-1.5,21-12,19.5-22l-20.6-68.4l-8.5-55.3"/>
<path class="st4" d="M336,317.9l1.8-0.8c2.7-1.2,5.7,0.3,6.5,3l14.6,48.7c0.3,1.1-0.3,2.3-1.4,2.7l-4.6,1.6
	c-1.2,0.4-2.4-0.2-2.8-1.4l-16.7-48C332.5,321.5,333.7,318.9,336,317.9z"/>
<path class="st4" d="M455.8,322.9l-0.8-0.3c-2.9-1.3-6.3,0.3-7.3,3.4l-14.2,47.6c-0.4,1.4,0.3,2.9,1.7,3.4l3.7,1.3
	c1.4,0.5,3-0.2,3.5-1.7l16.3-47C459.6,326.9,458.3,324,455.8,322.9z"/>
<circle class="st4" cx="357.2" cy="377.6" r="3.7"/>
<circle class="st4" cx="435.1" cy="382.8" r="3.7"/>
<path class="st4" d="M349.9,388.2l90.2,4.7c2.5,0.1,4.6,1.9,5.3,4.3l6.3,24.5c0.1,0.5,0.2,0.9,0.2,1.4v47.3H329.3l1.6-48.7
	c0-0.8,0.2-1.5,0.5-2.2l12.9-28C345.4,389.4,347.5,388.1,349.9,388.2z"/>
<path class="st4" d="M360.7,392.2l-6.7-0.4c-1.5-0.1-2.6-1.4-2.5-2.9l0.1-2.2c0.1-1.5,1.4-2.6,2.9-2.5l6.7,0.4
	c1.5,0.1,2.6,1.4,2.5,2.9l-0.1,2.2C363.5,391.1,362.2,392.2,360.7,392.2z"/>
<path class="st4" d="M435.8,398.6l-7.5-1.1c-1.6-0.2-2.8-1.7-2.5-3.4l0.5-3.5c0.2-1.6,1.7-2.8,3.4-2.5l7.5,1.1
	c1.6,0.2,2.8,1.7,2.5,3.4l-0.5,3.5C438.9,397.7,437.4,398.9,435.8,398.6z"/>
<path class="st5" d="M359.9,408.6l-1.9,22.5l24.9,7.6c6.6,2,13.7,2.5,20.5,1.5l25.4-3.9l1-22.9L359.9,408.6z"/>
<path class="st6" d="M359.9,408.4l-2.3,11.1l34.4,6.3c1.4,0.3,2.9,0.3,4.3,0.2l34.1-3.5v-11.7L359.9,408.4z"/>
<path class="st6" d="M450.9,479.3H330.2c-1.2,0-2.1-0.9-2.1-2.1v-11.7c0-1.2,0.9-2.1,2.1-2.1h120.7c1.2,0,2.1,0.9,2.1,2.1v11.7
	C453,478.4,452,479.3,450.9,479.3z"/>
<path class="st6" d="M322,471.4c0,0-20.8,58.2-15.4,63.8c5.4,5.6,59.2,11.7,63.9,8.1c4.7-3.6,10.7-67.7,10.7-67.7L322,471.4z"/>
<path class="st7" d="M348.2,496.3l-3.6,0.5c-1.1,0.1-2.1-0.6-2.2-1.7l-6.1-45.1c-0.1-1.1,0.6-2.1,1.7-2.2l3.6-0.5
	c1.1-0.1,2.1,0.6,2.2,1.7l6.1,45.1C350.1,495.1,349.3,496.1,348.2,496.3z"/>
<path class="st7" d="M352.4,496.7L352.4,496.7c-1.1,0-2-0.9-2-2v-35.6c0-1.1,0.9-2,2-2l0,0c1.1,0,2,0.9,2,2v35.6
	C354.3,495.8,353.5,496.7,352.4,496.7z"/>
<path class="st7" d="M358,496.5l-1.6-0.4c-1.1-0.3-1.7-1.3-1.5-2.4l5.8-24.3c0.3-1.1,1.3-1.7,2.4-1.5l1.6,0.4
	c1.1,0.3,1.7,1.3,1.5,2.4l-5.8,24.3C360.1,496.1,359,496.8,358,496.5z"/>
<path class="st5" d="M322.5,475.6c0,0-20.4,56.4-12.4,58.5c8,2.1,49.1,10.5,54.6,6.4c5.4-4.1,4.3-60.6,4.3-60.6L322.5,475.6z"/>
<path class="st7" d="M410.4,501.2l8.7-4.1c0.3-0.1,0.6-0.2,0.9-0.3l22.9-2.4c0.8-0.1,1.7,0.2,2.3,0.8l11.6,8.1
	c0.8,0.8,0.8-3.8,1.8-4.2l0.5-0.4c1.4-0.5,9.9,9.8,10.4,11.2c1.2,3.3,2.3,8.1,0.7,9.5c-3.5,3.1-7.1,8.7-10.4,8.6
	c-4.3-0.1-13.9-8-17.2-10.4c-0.7-0.5-1.6-0.7-2.5-0.4l-9.3,3c-0.2,0.1-0.5,0.2-0.7,0.3c-1.5,1-8,5.4-8.4,5.5
	c-2.9,1.2-9.2-3.1-12.6-5.7c-1.3-1-1.5-3-0.2-4.2l8.4-8.2c0.2-0.2,0.3-0.3,0.5-0.4l9.7-5.7l-6.6,1c-0.3,0-0.6,0.1-0.8,0.3
	c-1.6,0.8-7.3,3.7-8,3.7c-0.4,0-1-0.2-1.8-0.5C408.3,505.3,408.3,502.2,410.4,501.2z"/>
<path class="st1" d="M244.4,424.1c2.6,14.8,14.1,13.1,20.4,12.8c6.8-0.3,70.6-18,88.1-22.4c9.9-2.5,15.2-3.5,14.2-9.5
	c-0.8-5.4-11.2-6.4-15.3-6.3c-39.3,1.4-48.5,1.5-94.4,8.3C238.6,409.8,243.8,420.3,244.4,424.1z"/>
<path class="st8" d="M338.2,440.1l28.3-67.6c0.2-0.6,0.3-1.2,0.1-1.8l-2.7-12.7c-0.1-0.7-0.1-1.5,0.3-2.1l7-12.3
	c0.4-0.8,1.3-1.4,2.3-1.5l10.4-1.1c1-0.1,2,0.3,2.6,1l3.9,4.7c1.4,1.6,0.6,4.2-1.5,4.7l0,0c-1,0.3-2.2,0-2.9-0.7l-2-2
	c-0.7-0.6-1.6-1-2.4-0.8l-4.2,0.5c-0.8,0.1-1.6,0.5-2.1,1.2l-4.8,6.5c-0.5,0.7-0.7,1.5-0.5,2.3l1.8,9.7c0,0.1,0.1,0.3,0.1,0.4v0.7
	c0.1,2.7,3.4,3.9,5.2,1.9l2.2-2.4c0.4-0.5,1.1-0.9,1.8-1l3.4-0.5c2.8-0.4,4.5,3,2.6,5l-7.9,8.6c-0.4,0.5-0.7,1.2-0.8,1.9l-4.1,66.5
	c-0.1,1.7-1.6,3-3.3,2.7l-0.7-0.1c-1.6-0.2-2.7-1.6-2.6-3.2l4.7-58.2c0.1-0.7-0.1-1.4-0.5-2l-0.4-0.5c-1.4-1.9-4.4-1.6-5.2,0.7
	l-20.9,54.6c-0.7,1.8-2.8,2.4-4.4,1.5l-1.6-1C338.1,442.9,337.6,441.4,338.2,440.1z"/>
<path class="st7" d="M337.2,421.6c-3.3-4.9-2.3-18.9,1.3-23.6c1.5-1.9,9.6-3.1,9.6-3.1l6.5-1.1c1.5-0.3,3.1-1,4.2-2.1l6.1-5.9
	c0.4-0.4,0.9-0.8,1.4-1.1l5.4-3.3c1.7-1,3.8-1.4,5.8-1l10.7,2.1c4.3,0.8,7.1,4.9,6.4,9.1l-2.7,18.2c-0.4,2.8-2.3,5.3-5,6.4
	l-17.3,6.8c-2,0.8-4.1,0.8-6,0l-6.7-2.7c-1.6-0.6-3.5-0.7-5.1-0.3l-8.8,2.4C343.1,422.5,338.8,423.8,337.2,421.6z"/>
<path class="st7" d="M354.5,395.2l10.5-17.1c0.2-0.3,0.4-0.4,0.7-0.7l0,0c1.3-0.8,3,0.3,2.9,1.9l-0.5,5.6c0,0.5-0.4,1.1-0.8,1.4
	L354.5,395.2z"/>
</svg>
