<?xml version="1.0" encoding="utf-8"?>
<!-- Generator: Adobe Illustrator 26.0.2, SVG Export Plug-In . SVG Version: 6.00 Build 0)  -->
<svg version="1.1" id="Calque_9" xmlns="http://www.w3.org/2000/svg" xmlns:xlink="http://www.w3.org/1999/xlink" x="0px" y="0px"
	 viewBox="0 0 388 323.9" style="enable-background:new 0 0 388 323.9;" xml:space="preserve">
<style type="text/css">
	.st0{fill:#90573A;}
	.st1{clip-path:url(#SVGID_00000071543411411366922380000010234445093902946190_);}
	.st2{fill:#7A754B;}
	.st3{fill:none;stroke:#6D3B25;stroke-width:2;stroke-linecap:round;stroke-miterlimit:10;}
	.st4{fill:#BDB15C;}
	.st5{fill:#E8E0BF;}
	.st6{fill:#6F412A;}
	.st7{fill:#2E858E;}
	.st8{fill:none;stroke:#261F11;stroke-width:2;stroke-linecap:round;stroke-miterlimit:10;}
</style>
<path class="st0" d="M57.8,120.2c0.4,0.5,1,0.9,1.6,1.1c11.5,4.1,7.2-12.9,7.9-17.1c0.6-3.3-9-16.5-9-16.5l-10.8-15
	c-0.2-0.3-0.5-0.6-0.8-0.8c-1.2-0.9-4.4-3.2-5.7-4c-1.4-0.8-9.9-6.6-12.3-8.2c-0.4-0.3-0.8-0.7-1.1-1.1l-3.1-5
	c-1.5-2.4-5-2.3-6.4,0.1l0,0c-0.6,1.1-0.7,2.4-0.2,3.5l2.5,5.3c0.1,0.3,0.3,0.6,0.5,0.8l2.5,2.9c2,2.3,0.6,5.9-2.5,6.2l-5.1,0.5
	c-1.3,0.1-2.4,0.9-3,2L9.8,81c-0.5,0.9-0.5,2-0.2,3l7.4,20.4c0.5,1.3,1.6,2.2,2.9,2.4l16.3,2.6c0.5,0.1,1.1,0.1,1.6-0.1l6.3-1.8
	c1.4-0.4,2.9,0,3.9,1.2L57.8,120.2z"/>
<g>
	<defs>
		<polygon id="SVGID_1_" points="250.1,41.1 253.6,231.2 343,231.2 339.4,41.1 		"/>
	</defs>
	<clipPath id="SVGID_00000167389661387067211130000006443587641061032322_">
		<use xlink:href="#SVGID_1_"  style="overflow:visible;"/>
	</clipPath>
	<g style="clip-path:url(#SVGID_00000167389661387067211130000006443587641061032322_);">
		<path class="st2" d="M241.2,198.4c-9.3,6.1-19.3,30.2-30.1,32.7c-3.9,0.9-11.6-4.5-13.7-7.9c-7.7-12.1-4-46.2-14.9-55.5
			c-9.2-7.9-31.4-3.4-32-36.7c-0.3-20.2,23.3-29.9,29.1-31.9c0.9-0.3,1.9-0.7,2.8-1.2c0,0,48.1,9.1,48.9-39.2l0.2-15.6l23.4,1.8
			l18.3,0.8l0.7,20.2l0.9,27.7c6.4,9.1,28.4,8.4,43.5,14.2c10,3.9,30.4,20.4,23.4,42.3c-4,12.6-16.2,8.4-25.5,16.3
			c-10.9,9.3-6.9,27.5-8.4,36.9c-1,6.2-9.9,22.2-13.7,21.3c-10.8-2.5-16.9-20.9-26.7-26.2C261.6,195.2,246.6,194.8,241.2,198.4z"/>
	</g>
</g>
<path class="st3" d="M245.2,39.8c2.3,0.6,4.6,1.1,7,1.4c1.6,0,7.1-1.7,7.1-1.7"/>
<path class="st3" d="M241.9,45.5c0.8,0.5,1.6,0.9,2.5,1.2c3.9,1.3,8.1,1.9,12.2,1.7c3.9,0,7.8-0.6,11.4-1.9c1.2-0.4,2.3-1,3.3-1.8"
	/>
<path class="st4" d="M213.4,130c-4.3,21.5-18,24.7-25.9,30.9c-12.6,9.9-29.3,38.2-39.7,50.2c-4.9,5.7-18.5,17-27.1,9.2l0,0
	c-10.6-10.6-2.9-23.9,1.3-29.8c8.6-12,28.3-34.5,34.9-47.8c4.9-9.9,7.6-20.7,23.1-29.8c0,0,15.3-10.2,26.3-3
	C213.2,114.6,215.1,121.2,213.4,130L213.4,130z"/>
<path class="st5" d="M335.5,197c-1.4-1.9-2.2-4.3-5.9-12.2c-2.7-5.8-11.2-4.7-12.4,1.5c-1.5,7.7-2.7,14.9-2.5,15.9
	c0.6,2.2,5.2,62.2,6,72.3c0.1,0.9-0.1,1.9-0.4,2.8l-3.1,8.5c-0.4,1.2-0.5,2.5-0.2,3.8c1.2,5.1,4.5,18.7,4.2,20.4
	c-0.5,2.5-127.8,0.3-127.3-3c1.4-8.1,3.7-18.1,4.9-22.8c0.4-1.7,0.1-3.5-0.8-5c-1.9-3.1-4.9-8.2-4.6-9.5c1.6-8.1,8.1-49.9,7.5-56.9
	s-8.2-49.8-9.7-46.4s-54.7,61.3-62.4,64.8S51.1,125.8,51,129.4c-0.1,2.4,0.9-1.4,1.5-4.1c0.3-1.4,0.2-2.9-0.4-4.2l-1.9-4.3
	c-1.3-2.8-0.4-6.1,2.1-8l9.7-7.2c3.1-2.3,7.4-1.5,9.4,1.7l1,1.5c0.5,0.8,11.8,3.8,9.4,2.5c-1.3-0.7,32.8,41.7,46.8,59.1
	c2.9,3.6,8.4,3.2,10.8-0.7l29.9-49.6c0.9-1.5,2.3-2.5,4-3c11.8-3.1,59.7-15.9,58.6-20l0.2-6.5c0.1-2.1,1.8-3.8,3.9-3.8h35.5
	c2.1,0,3.8,1.7,3.9,3.8l0.1,2.7c0.1,2.8,1.9,5.3,4.6,6.1l53.5,16.7c1.7,0.5,3.1,1.7,3.9,3.3l33.7,67.3c0.2,0.4,0.3,0.7,0.4,1.1
	l6.9,24.2c0.7,2.3,0,4.8-1.7,6.5"/>
<path class="st5" d="M233.1,75h41.2c1.8,0,3.2,1.4,3.2,3.2v3.4c0,1.8-1.4,3.2-3.2,3.2h-41.2c-1.8,0-3.2-1.4-3.2-3.2v-3.4
	C229.9,76.5,231.4,75,233.1,75z"/>
<rect x="232.7" y="38.5" class="st6" width="40.6" height="36.5"/>
<path class="st7" d="M329.8,149.6l-69.1,17.9c-2.3,0.6-3.9,2.7-3.8,5.1l3.7,96.7c0.1,3.4,3.4,5.7,6.6,4.7l59.5-18.8
	c2-0.6,3.4-2.4,3.5-4.5l5.9-95.8C336.3,151.4,333.1,148.7,329.8,149.6z"/>
<line class="st8" x1="275.4" y1="162.8" x2="276.3" y2="179.5"/>
<path class="st0" d="M256,252l-3.7-15.2c-0.4-1.9,0.4-3.8,2-4.7l3.6-2.1c0.8-0.5,1.4-1.1,1.8-2l0.3-0.7c0.7-1.6,2.4-2.6,4.1-2.5
	l11.8,0.6c0.7,0,9.6-0.4,10.2-0.7l58.9-29.2l9.5-4.2c0.3-0.1,0.5-0.2,0.8-0.3c3.6-0.8,3.1,0,1.6,1.9c-3,3.7,1.3,8.8,5.4,6.5l0.7-0.4
	c2.2-1.2,5-0.3,6,2c5.3,12.6-3,26.6-12.2,28.9l-72.3,16.5c-0.4,0.1-0.8,0.2-1.2,0.4l-10.8,6c-0.4,0.2-0.7,0.3-1.1,0.4l-6.2,1.4
	c-0.1,0-0.3,0.1-0.4,0.1l-4.1,0.5C258.6,255.6,256.5,254.2,256,252z"/>
<path class="st5" d="M376.7,214.5c0,0-13.6,16.5-23.9,19.1c-12.7,3.2-28.2,6.9-28.8,7.1l-20.8,5.6c-3.9,1.3-17.9,6-18.6,2
	c-1-5.8-0.4-22.1-1.4-25.4c-0.5-1.7,55.3-21.9,52.3-26l24-16.1L376.7,214.5z"/>
</svg>
