<?xml version="1.0" encoding="utf-8"?>
<!-- Generator: Adobe Illustrator 26.0.2, SVG Export Plug-In . SVG Version: 6.00 Build 0)  -->
<svg version="1.1" id="Layer_1" xmlns="http://www.w3.org/2000/svg" xmlns:xlink="http://www.w3.org/1999/xlink" x="0px" y="0px"
	 viewBox="0 0 788 1005" style="enable-background:new 0 0 788 1005;" xml:space="preserve">
<style type="text/css">
	.st0{fill:#90573A;}
	.st1{fill:#6F412A;}
	.st2{fill:#D3D3D3;}
	.st3{fill:#D34B1C;}
</style>
<path class="st0" d="M394,418.6c-5.5-3.6-8-0.6-13.7,2.5c-9.8,5.4-15.8,23.7-26.7,26.2c-3.9,0.9-1-16.3-2-22.5
	c-1.5-9.3-9.2-26.3-20.1-35.6c-9.2-7.9-14.1-3.6-18.1-16.2c-7-22,6.1-38.6,16-42.5c15.2-5.9,37.1-5.1,43.5-14.2l0.9-27.7l0.7-20.2
	l18.3-0.8h2.2l18.3,0.8l0.7,20.2l0.9,27.7c6.4,9.1,36,3.7,48.3,14.4c2.6,2.3,15.8,17.4,43.5,91.1c4.7,12.4-41-40.5-50.3-32.6
	c-10.9,9.3-6.9,27.5-8.4,36.9c-1,6.2-9.9,22.2-13.7,21.3c-10.8-2.5-16.9-20.9-26.7-26.2C402,418,399.5,415,394,418.6"/>
<path class="st1" d="M370.8,322c0,0,36.7,44.4,46.1,22.2l-3.5-75.9h-38.8L370.8,322z"/>
<path class="st2" d="M441.8,500.2c6.5-28,27.9-167.5,19.7-172.4c-15.2-8.9-23.1-9.3-38.5-11.2c-11.1-1.3-18.7,28-28.8,28.9
	c-6.3,0.6-24-29.1-29.6-28c-14.4,2.7-28.5,7.1-41.8,13.2c-5.6,19.4,7.2,144.8,13.8,172.6"/>
<path class="st0" d="M343.3,344.3c8.6,17.8-0.5,28.2-3.3,37.4c-4.5,14.5-1.9,44.6-3.4,59.4c-0.7,7-1.1,13.6-12.3,13.2l0,0
	c-14.4-1.1-19.2-9-19.2-15.7c0.1-13.7-0.8-73.7,6.4-89.4c0,0,2.2-13.2,14.9-14.7C334.5,333.4,339.7,337,343.3,344.3L343.3,344.3z"/>
<path class="st2" d="M340,385.7c0,0-1.1-25-15.3-51.5l24.8-8.2l27.4,49L340,385.7z"/>
<g id="Calque_10">
	<path class="st2" d="M332.9,495.1v-25.7l115.3-6.4v32c0,2.8-2.3,5.1-5.1,5.1l0,0H337.9C335.1,500.2,332.9,497.9,332.9,495.1z"/>
</g>
<path class="st2" d="M444.9,322.2l-27.1-9.8l-2-18.3l-12.2-0.1c-4,0-7.5,2.7-8.5,6.6l-1.5,12.4l-1.5-12.4c-1-4-4.6-6.8-8.7-6.8
	l-12.1-0.1l-2.5,17.7l-44.5,18.7l66.8,39.5L444.9,322.2z"/>
<g>
	<path class="st3" d="M400.9,314c-10.4,5.3-22.6,11.3-33.1,16.3c-6.6,2.6-11.1,7.2-11.2,14.6l0.1,5.3c0.1,7,0.1,14.1,0.1,21.1
		c-1,42.2,0.4,84.4,1.3,126.5c-0.6,8.7-2.4-14-2.6-84.3c-0.4-20.3-1.4-43-1.4-63.2V345c-0.1-5.7,3.1-11.3,8-14.3
		c2.7-1.6,6.9-3.1,9.7-4.5c4.8-2.1,14.5-6.3,19.4-8.4c3.2-1.4,6.5-2.8,9.7-4.1C400.8,313.8,400.9,314,400.9,314L400.9,314z"/>
</g>
<circle class="st3" cx="369.7" cy="353.5" r="3.4"/>
<circle class="st3" cx="371.1" cy="425.1" r="3.4"/>
<circle class="st3" cx="371.9" cy="492.4" r="3.4"/>
<path class="st3" d="M369.1,297.8c0,0-3.9,2-5.6,6.5c-0.3,0.3-7,2.3-4.8,6.5c2.2,4.2,3.4,3.7,3.4,3.7s22,0.3,29.9,8.7
	c0.2,0,23.3-8.1,30.9-7c0.2,0.1,2.3-4.6,0-5.7s0.6-4.2-0.9-6.7c-1.4-2.5-2.4-5.1-4.8-3.9c-2.4,1.1-25.3,9.3-25.3,16.3
	C392.1,316.2,385.8,305.4,369.1,297.8z"/>
<path class="st3" d="M386.7,312.8c0,0,6.7-4.2,11.2,0c0.8,5.9,2.2,9.8,0,10.4c-2.2,0.6-6.5,2.8-8.2,1.7
	C388.2,323.8,380.6,320.6,386.7,312.8z"/>
<path class="st3" d="M386.5,319.6l-8.8,11.3c-0.3,0.4-0.4,0.8-0.3,1.3l4.5,18.5c0.3,1.4,2.2,1.6,2.8,0.3l6.8-14.7
	c0.1-0.3,0.2-0.6,0.1-0.9l-2.4-15.1C389,319,387.3,318.6,386.5,319.6z"/>
<path class="st3" d="M397.9,315.9l14.3,7.8c0.5,0.3,0.9,0.8,0.9,1.4l1.8,23.4c0.1,1.6-1.8,2.6-3,1.4l-10.8-10.1
	c-0.3-0.2-0.4-0.5-0.5-0.9l-5.2-21.2C395,316.4,396.6,315.1,397.9,315.9z"/>
<path class="st0" d="M305.3,445.5c-0.4-16.5,1.3-15.7,8.6-19.1c10.3-4.9,66.5-1.7,84.2-4.8c10-1.8,15.3-3,16.9,2.9
	c1.5,5.3-7.5,10.8-11.5,12c-38.6,11.9-59.9,18.3-88.8,18.8C311.5,455.3,305.4,449.4,305.3,445.5z"/>
<path class="st0" d="M442.3,422.1c2.7-2.1,5.5-4,8.4-5.7c2.5-1.5,1.5-5.5-1.4-5.5c0,0-0.1,0-0.1,0c-2.1,0.1-11.7,4.5-11.7,4.5l0,0
	c16.3-23.9,25.2-43.4,26.1-46.2c0.1-0.4,0.2-1,0.1-1.7c-0.3-2.7-3.7-3.6-5.3-1.4c-5.1,7-14.2,19.4-17.7,23.6
	c-16.9,20.5-25.8,25.9-39.5,31.5c-2.4,1-0.8,14.2,4.5,12.6c1.8-0.6,11.9,1.5,14.8,0C431.9,427.8,442,422.3,442.3,422.1z"/>
<path class="st0" d="M394.3,310.2l10.4-0.7c0.2,0,0.4,0,0.5,0l17,4c2,0.5,3.9,1.5,5.3,3l18.9,19.4c0.1,0.1,0.2,0.3,0.3,0.4
	c1.3,2.3,11.9,22.4,8.8,23.5c-5,1.8-17.9-11.3-21.4-12.6c-4.8-1.7-10.1-7.8-11.7-9.8c-0.3-0.4-0.8-0.6-1.3-0.6l-12.2-0.6
	c-0.3,0-0.6,0-0.8,0.2c-1.9,0.9-9.5,4.4-10.1,4.5c-2.9,0-6.8-3.1-9.6-5.9c-2.2-2.2-2-5.8,0.4-7.7l6.9-5.5c2-1.6,4.5-2.4,7-2.3l0.8,0
	c1.9,0.1,2.6-2.5,0.9-3.4l0,0c-0.3-0.2-0.7-0.2-1.1-0.2c-1.7,0.2-6.9,0.9-7.6,0.6c-0.8-0.3-1.9-1.6-2.9-2.9
	C391.7,312.2,392.6,310.3,394.3,310.2z"/>
<path class="st0" d="M502.4,436.5c9.2-6.6,4.5-16.8-0.8-25c-3.8-5.8-45.8-58.7-57-73.2c-6.4-8.2-9.5-12.7-14.6-9.3
	c-4.6,3.1,4.3,15.5,6.1,19.2c19.7,39.6,20.1,62.3,41.1,83C491,444.7,499.2,438.8,502.4,436.5z"/>
</svg>
