<?xml version="1.0" encoding="utf-8"?>
<!-- Generator: Adobe Illustrator 26.0.2, SVG Export Plug-In . SVG Version: 6.00 Build 0)  -->
<svg version="1.1" id="Calque_1" xmlns="http://www.w3.org/2000/svg" xmlns:xlink="http://www.w3.org/1999/xlink" x="0px" y="0px"
	 viewBox="0 0 158 103.1" style="enable-background:new 0 0 158 103.1;" xml:space="preserve">
<style type="text/css">
	.st0{fill:#6B313A;}
	.st1{fill:#DFB0A4;}
	.st2{fill:#1F1A19;}
	.st3{fill:#635132;}
	.st4{fill:#E2E2E2;}
	.st5{fill:#D1D1D1;}
</style>
<g id="Calque_7">
	<polygon class="st0" points="92.4,70.3 85.1,76 78.7,77.8 72.3,76 65,70.3 69.1,68.4 74.5,69.3 78.7,69.4 82.9,69.3 88.4,68.4 	"/>
	<path class="st1" d="M105.9,32.7c0,2.6-2.2,4.6-6.7,4.6s-8.1-1.6-8.1-4.1c0-1.1,3.9-3.3,3.9-3.3c2-0.4,3.4,0.6,5.9,0.4
		S105.9,32.7,105.9,32.7z"/>
	<path class="st2" d="M103.4,32.7c0,2.5-1.9,4.5-4.4,4.6h-0.2c-0.2,0-0.4,0-0.6,0c-2.5-0.3-4.3-2.6-4-5.1l0,0c0-0.3,0.1-0.6,0.2-0.9
		c0.1-0.4,0.3-0.7,0.5-1c0.2-0.2,0.3-0.5,0.6-0.7c1.5,0,4.9-0.1,6.5-0.1c0.4,0.4,0.7,0.8,0.9,1.2l0.1,0.2
		C103.2,31.5,103.3,32.1,103.4,32.7z"/>
	<path class="st2" d="M107.7,34.6h-1.6l-1.6,1l0,0l1.2-2.1h0.1v-0.1l-2.8-2.5h0c-1-0.1-8-0.7-8.4,0l-0.2,0.3c-0.5,0.6-1.8,1.9-2.9,3
		S89.7,36,89.7,36l0.2-1.9l1.2-1.3c0,0,2.3-3,3.5-3.5c1.9-0.8,8.2,0.2,8.3,0.3c0.2,0.1,4.1,3.2,4.5,4.4
		C107.4,34.2,107.6,34.4,107.7,34.6z"/>
	<path class="st3" d="M84.4,23.1c0.1,0.4,0.1,0.8,0.1,1.1c0.1,0.5,0.4,0.9,0.9,1l2,0.5c0.2,0,0.3,0,0.5,0l13.3-2.7
		c0.2,0,0.3,0,0.5,0c1.2,0.3,7.1,1.6,7.1,1.5c0-0.1,1.1,0.4,2.1,0.9c0.8,0.4,1.7-0.3,1.6-1.2v0c0-0.4-0.3-0.7-0.6-0.9
		c-2.1-1-9.4-4.5-9.5-4.4c-0.2,0.1-7.5,0.6-8.5,0.7c-0.1,0-0.1,0-0.2,0l-8.3,2.2C84.6,22,84.3,22.5,84.4,23.1z"/>
	<path class="st3" d="M73.6,23.1c-0.1,0.4-0.1,0.8-0.1,1.1c-0.1,0.5-0.4,0.9-0.9,1l-2,0.5c-0.2,0-0.3,0-0.5,0l-13.3-2.7
		c-0.2,0-0.3,0-0.5,0c-1.2,0.3-7.1,1.6-7.1,1.5c0-0.1-1.1,0.4-2.1,0.9c-0.8,0.4-1.7-0.3-1.6-1.2l0,0c0-0.4,0.3-0.7,0.6-0.9
		c2.1-1,9.4-4.5,9.5-4.4c0.2,0.1,7.5,0.6,8.5,0.7c0.1,0,0.1,0,0.2,0l8.3,2.2C73.4,22,73.7,22.5,73.6,23.1z"/>
	<path class="st1" d="M52.1,32.7c0,2.6,2.2,4.6,6.7,4.6s8.1-1.6,8.1-4.1c0-1.1-3.9-3.3-3.9-3.3c-2-0.4-3.4,0.6-5.9,0.4
		S52.1,32.7,52.1,32.7z"/>
	<path class="st2" d="M54.6,32.7c0,2.5,1.9,4.5,4.4,4.6h0.2c0.2,0,0.4,0,0.6,0c2.5-0.3,4.3-2.6,4-5.1l0,0c0-0.3-0.1-0.6-0.2-0.9
		c-0.1-0.4-0.3-0.7-0.5-1c-0.2-0.2-0.3-0.5-0.6-0.7c-1.5,0-4.9-0.1-6.5-0.1c-0.4,0.4-0.7,0.8-0.9,1.2L55,30.9
		C54.8,31.5,54.7,32.1,54.6,32.7z"/>
	<path class="st2" d="M50.3,34.6h1.6l1.6,1l0,0l-1.2-2.1l-0.1-0.2v-0.1l2.8-2.5h0c1-0.1,8-0.7,8.4,0l0.2,0.3c0.5,0.6,1.8,1.9,2.9,3
		s1.8,1.8,1.8,1.8l-0.2-1.9l-1.2-1.3c0,0-2.3-3-3.5-3.5c-1.9-0.8-8.2,0.2-8.3,0.3c-0.2,0.1-4.1,3.2-4.5,4.4
		C50.6,34.1,50.4,34.3,50.3,34.6z"/>
</g>
<path class="st4" d="M51,54.6c6.2-3.6,16.3-8.7,20.7-10.8c1.4-0.7,3-1.1,4.6-1.1h7.1c1.7,0,3.5,0.4,5,1.3l18.3,10
	c3.7,2,5.8,6.1,5.4,10.3l-1,9.5c-0.3,2.6-1.5,5-3.5,6.7l-14.8,13c-1.9,1.7-4.3,2.6-6.9,2.6H72.1c-2.5,0-4.9-0.9-6.8-2.5L49.4,79.9
	c-2.3-2-3.6-4.9-3.6-7.9v-8.4C45.8,59.9,47.8,56.5,51,54.6z"/>
<path class="st5" d="M47.6,70.9c2.5-0.7,19.3,6.2,20.7,6.9s19.4-0.1,21,0s16-4.8,18.8-5.9s-0.7,6.3-0.7,6.3L90.8,93H67.5L51,78.2
	L47.6,70.9z"/>
</svg>
