<?xml version="1.0" encoding="utf-8"?>
<!-- Generator: Adobe Illustrator 26.0.2, SVG Export Plug-In . SVG Version: 6.00 Build 0)  -->
<svg version="1.1" id="Calque_1" xmlns="http://www.w3.org/2000/svg" xmlns:xlink="http://www.w3.org/1999/xlink" x="0px" y="0px"
	 viewBox="0 0 788 1005" style="enable-background:new 0 0 788 1005;" xml:space="preserve">
<style type="text/css">
	.st0{fill:#FFFFFF;}
	.st1{fill:#1F1A19;}
	.st2{fill:#635132;}
	.st3{fill:#310800;}
	.st4{fill:#AD717F;}
	.st5{fill:#EBB4C9;}
</style>
<g id="Calque_7">
	<path class="st0" d="M421.4,115.7c0,2.6-2.2,4.6-6.7,4.6s-8.1-1.6-8.1-4.1c0-1.1,3.9-3.3,3.9-3.3c2-0.4,3.4,0.6,5.9,0.4
		S421.4,115.7,421.4,115.7z"/>
	<path class="st1" d="M415.9,114.8c0,2.5-1.9,4.5-4.4,4.6h-0.2c-0.2,0-0.4,0-0.6,0c-2.5-0.3-3.4-1.1-4-3.2l0,0c1.9,0.5,0,0,1.3-0.8
		c0.1-0.4,0.2-0.4,0.5-0.7c0.2-0.2,0.5-0.7,0.7-0.9c1.5,0,0.9-1,2.5-1c0.4,0.4,3.6-0.4,3.8,0l0.1,0.2
		C415.7,113.6,415.9,114.2,415.9,114.8z"/>
	<path class="st1" d="M423.3,117.6h-1.6l-1.6,1l0,0l1.2-2.1h0.1v-0.1l-2.8-2.5h-0.1c-1-0.1-8-0.7-8.4,0l-0.2,0.3
		c-0.5,0.6-1.8,1.9-2.9,3s-1.8,1.8-1.8,1.8l0.2-1.9l1.2-1.3c0,0,2.3-3,3.5-3.5c1.9-0.8,8.2,0.2,8.3,0.3c0.2,0.1,4.1,3.2,4.5,4.4
		C423,117.2,423.1,117.4,423.3,117.6z"/>
	<path class="st2" d="M399.7,98.7c0.1,0.4,0.1,0.8,0.1,1.1c0.1,0.5,0.4,0.9,0.9,1l2,0.5c0.2,0,0.3,0,0.5,0l13.3-2.7
		c0.2,0,0.3,0,0.5,0c1.2,0.3,7.1,1.6,7.1,1.5s1.1,0.4,2.1,0.9c0.8,0.4,1.7-0.3,1.6-1.2l0,0c0-0.4-0.3-0.7-0.6-0.9
		c-2.1-1-9.4-4.5-9.5-4.4c-0.2,0.1-7.5,0.6-8.5,0.7c-0.1,0-0.1,0-0.2,0l-8.3,2.2C399.9,97.6,399.6,98.1,399.7,98.7z"/>
	<path class="st2" d="M389,98.7c-0.1,0.4-0.1,0.8-0.1,1.1c-0.1,0.5-0.4,0.9-0.9,1l-2,0.5c-0.2,0-0.3,0-0.5,0l-13.3-2.7
		c-0.2,0-0.3,0-0.5,0c-1.2,0.3-7.1,1.6-7.1,1.5s-1.1,0.4-2.1,0.9c-0.8,0.4-1.7-0.3-1.6-1.2l0,0c0-0.4,0.3-0.7,0.6-0.9
		c2.1-1,9.4-4.5,9.5-4.4c0.2,0.1,7.5,0.6,8.5,0.7c0.1,0,0.1,0,0.2,0l8.3,2.2C388.8,97.6,389.1,98.1,389,98.7z"/>
	<path class="st0" d="M367.4,115.7c0,2.6,2.2,4.6,6.7,4.6s8.1-1.6,8.1-4.1c0-1.1-3.9-3.3-3.9-3.3c-2-0.4-3.4,0.6-5.9,0.4
		S367.4,115.7,367.4,115.7z"/>
	<path class="st1" d="M367.6,115.7c0,2.5,1.5,3.6,3.9,3.7h0.2c0.2,0,0.4,0,0.6,0c2.5-0.3,4.3-2.6,4-5.1l0,0c0-0.3-0.1-0.6-0.2-0.9
		c-0.1-0.4-0.3-0.7-0.5-1c-0.2-0.2,0.2,0.2,0,0c-1.5,0-1.4-0.1-3-0.1c-0.4,0.4-3.6,1.4-3.9,1.8l-0.7,0.6
		C367.8,115.3,367.7,115.1,367.6,115.7z"/>
	<path class="st1" d="M365.8,117.6h1.6l1.6,1l0,0l-1.2-2.1l-0.1-0.2v-0.1l2.8-2.5h0.1c1-0.1,8-0.7,8.4,0l0.2,0.3
		c0.5,0.6,1.8,1.9,2.9,3s1.8,1.8,1.8,1.8l-0.2-1.9l-1.2-1.3c0,0-2.3-3-3.5-3.5c-1.9-0.8-8.2,0.2-8.3,0.3c-0.2,0.1-4.1,3.2-4.5,4.4
		C366.1,117.1,366,117.3,365.8,117.6z"/>
</g>
<g>
	<path class="st3" d="M382.2,153.9c0,0,10.7-2.1,10.8-2.2c0.2-0.1,3.9,0,3.9,0l10.3,2.3l-7.7,10.7l-9.5,0.2L382.2,153.9z"/>
	<path class="st4" d="M405.7,154.5l3.4-1c0,0-6.8,11.9-9.9,12.8c-2.9,1-6,1-8.9,0c-3.1-0.9-9.4-12.8-9.4-12.8l2.9,1
		c0,0,4.4,9,10.8,9.4C400.8,164.3,405.7,154.5,405.7,154.5z"/>
	<path class="st5" d="M384.7,152.4l1,1.5c0.6,0.4,1.3,0.6,2,0.6c0,0,5.4,0.2,7.1,0.2c1.8,0,6.9-0.2,6.9-0.2c0.7,0,1.4-0.2,2-0.6
		l0.4-1.2L384.7,152.4z"/>
	<path class="st4" d="M409.1,153.5l-3.4,1c0,0-8.2-1.8-11-1.8s-10.8,1.8-10.8,1.8l-2.9-1c0.4-0.6,8.2-5,10.5-4.3
		c1.1,0.3,2.1,0.7,3.2,1.1c0,0,1-0.4,3.3-1.1C400.3,148.5,408.6,152.9,409.1,153.5z"/>
</g>
</svg>
