<?xml version="1.0" encoding="utf-8"?>
<!-- Generator: Adobe Illustrator 26.0.2, SVG Export Plug-In . SVG Version: 6.00 Build 0)  -->
<svg version="1.1" id="Calque_1" xmlns="http://www.w3.org/2000/svg" xmlns:xlink="http://www.w3.org/1999/xlink" x="0px" y="0px"
	 viewBox="0 0 788 1005" style="enable-background:new 0 0 788 1005;" xml:space="preserve">
<style type="text/css">
	.st0{fill:#AD717F;}
	.st1{fill:#FFFFFF;}
	.st2{fill:#1F1A19;}
	.st3{fill:#635132;}
</style>
<g id="Calque_7">
	<ellipse class="st0" cx="394.3" cy="156.1" rx="4.7" ry="6"/>
	<path class="st1" d="M421.4,115.7c0,2.6-2.2,4.6-6.7,4.6s-8.1-1.6-8.1-4.1c0-1.1,3.9-3.3,3.9-3.3c2-0.4,3.4,0.6,5.9,0.4
		S421.4,115.7,421.4,115.7z"/>
	<path class="st2" d="M421.4,115.8c0,2.5-1.9,4.5-4.4,4.6h-0.2c-0.2,0-0.4,0-0.6,0c-2.5-0.3-4.3-2.6-4-5.1l0,0
		c0-0.3,0.1-0.6,0.2-0.9c0.1-0.4,0.3-0.7,0.5-1c0.2-0.2,0.3-0.5,0.6-0.7c1.5,0,3.7,0.7,5.3,0.8c0.4,0.4,0.5-0.3,0.7,0.2l1,1.3
		C420.8,115.4,421.4,115.2,421.4,115.8z"/>
	<path class="st2" d="M423.3,117.6h-1.6l-1.6,1l0,0l1.2-2.1h0.1v-0.1l-2.8-2.5h-0.1c-1-0.1-8-0.7-8.4,0l-0.2,0.3
		c-0.5,0.6-1.8,1.9-2.9,3s-1.8,1.8-1.8,1.8l0.2-1.9l1.2-1.3c0,0,2.3-3,3.5-3.5c1.9-0.8,8.2,0.2,8.3,0.3c0.2,0.1,4.1,3.2,4.5,4.4
		C423,117.2,423.1,117.4,423.3,117.6z"/>
	<path class="st3" d="M399.9,106.1c0.1,0.4,0.1,0.8,0.1,1.1c0.1,0.5,0.4,0.9,0.9,1l2,0.5c0.2,0,0.3,0,0.5,0l13.3-2.7
		c0.2,0,0.3,0,0.5,0c1.2,0.3,7.1,1.6,7.1,1.5s1.1,0.4,2.1,0.9c0.8,0.4,1.7-0.3,1.6-1.2l0,0c0-0.4-0.3-0.7-0.6-0.9
		c-2.1-1-9.4-4.5-9.5-4.4c-0.2,0.1-7.5,0.6-8.5,0.7c-0.1,0-0.1,0-0.2,0l-8.3,2.2C400.1,105,399.8,105.5,399.9,106.1z"/>
	<path class="st3" d="M389.2,106.1c-0.1,0.4-0.1,0.8-0.1,1.1c-0.1,0.5-0.4,0.9-0.9,1l-2,0.5c-0.2,0-0.3,0-0.5,0l-13.3-2.7
		c-0.2,0-0.3,0-0.5,0c-1.2,0.3-7.1,1.6-7.1,1.5s-1.1,0.4-2.1,0.9c-0.8,0.4-1.7-0.3-1.6-1.2l0,0c0-0.4,0.3-0.7,0.6-0.9
		c2.1-1,9.4-4.5,9.5-4.4c0.2,0.1,7.5,0.6,8.5,0.7c0.1,0,0.1,0,0.2,0l8.3,2.2C389,105,389.3,105.5,389.2,106.1z"/>
	<path class="st1" d="M367.6,115.7c0,2.6,2.2,4.6,6.7,4.6s8.1-1.6,8.1-4.1c0-1.1-3.9-3.3-3.9-3.3c-2-0.4-3.4,0.6-5.9,0.4
		S367.6,115.7,367.6,115.7z"/>
	<path class="st2" d="M373.1,115.8c0,2.5,1.9,4.5,4.4,4.6h0.2c0.2,0,0.4,0,0.6,0c2.5-0.3,3.8-2,3.5-4.5l0,0c0-0.3-0.4-0.7-0.5-1
		c-0.1-0.4-0.8-0.5-1-0.9c-0.2-0.2-1-0.8-1.3-1c-1.5,0-2.9-0.4-4.5-0.4c-0.4,0.4-0.7,0.8-0.9,1.2l-0.1,0.2
		C373.3,114.6,373.2,115.2,373.1,115.8z"/>
	<path class="st2" d="M365.8,117.6h1.6l1.6,1l0,0l-1.2-2.1l-0.1-0.2v-0.1l2.8-2.5h0.1c1-0.1,8-0.7,8.4,0l0.2,0.3
		c0.5,0.6,1.8,1.9,2.9,3s1.8,1.8,1.8,1.8l-0.2-1.9l-1.2-1.3c0,0-2.3-3-3.5-3.5c-1.9-0.8-8.2,0.2-8.3,0.3c-0.2,0.1-4.1,3.2-4.5,4.4
		C366.1,117.1,366,117.3,365.8,117.6z"/>
</g>
</svg>
