<?xml version="1.0" encoding="utf-8"?>
<!-- Generator: Adobe Illustrator 26.0.3, SVG Export Plug-In . SVG Version: 6.00 Build 0)  -->
<svg version="1.1" id="Calque_1" xmlns="http://www.w3.org/2000/svg" xmlns:xlink="http://www.w3.org/1999/xlink" x="0px" y="0px"
	 viewBox="0 0 788 1005" style="enable-background:new 0 0 788 1005;" xml:space="preserve">
<style type="text/css">
	.st0{fill:#AD717F;}
	.st1{fill:#FFFFFF;}
	.st2{fill:#1F1A19;}
	.st3{fill:#635132;}
</style>
<g id="Calque_7">
	<path class="st0" d="M406.5,154.4l-5.7,4.4c-0.1,0.1-0.2,0.2-0.4,0.2l-5.9,1.7c-0.2,0.1-0.4,0.1-0.6,0L388,159
		c-0.1,0-0.3-0.1-0.4-0.2l-5.7-4.4c-0.7-0.5-0.5-1.5,0.2-1.9l2-1c0.2-0.1,0.4-0.1,0.7-0.1l5.1,0.8c0.1,0,0.1,0,0.2,0l4.1,0.1
		l4.1-0.1c0.1,0,0.1,0,0.2,0l5-0.8c0.2,0,0.5,0,0.7,0.1l2.1,1C407.1,152.9,407.2,153.9,406.5,154.4z"/>
	<path class="st1" d="M421,115.3c0.3,0.2,0.4,0.6,0.4,0.9c-0.3,2.3-2.5,4.1-6.7,4.1c-4.5,0-8.1-1.6-8.1-4.1c0-1,2.9-2.7,3.7-3.2
		c0.1-0.1,0.3-0.1,0.4-0.1c1.9-0.3,3.3,0.6,5.7,0.4C418.3,113.1,420.2,114.6,421,115.3z"/>
	<path class="st2" d="M418.9,115.7c0,2.5-1.9,4.5-4.4,4.6h-0.2c-0.2,0-0.4,0-0.6,0c-2.5-0.3-4.3-2.6-4-5.1l0,0
		c0-0.3,0.1-0.6,0.2-0.9c0.1-0.4,0.3-0.7,0.5-1c0.2-0.2,0.3-0.5,0.6-0.7c1.4,0,4.3-0.1,6-0.1c0.3,0,0.6,0.1,0.8,0.4
		c0.2,0.3,0.4,0.6,0.6,0.8l0.1,0.2C418.7,114.5,418.9,115.1,418.9,115.7z"/>
	<path class="st2" d="M423.3,117.6H422c-0.2,0-0.4,0.1-0.6,0.2l-1.3,0.8l0,0l1.2-2.1h0.1v-0.1l-2.8-2.5h-0.1c-1-0.1-8-0.7-8.4,0
		l-0.2,0.3c-0.5,0.6-1.8,1.9-2.9,3s-1.8,1.8-1.8,1.8l0.2-1.5c0-0.2,0.1-0.5,0.3-0.6l0.9-1c0,0,0,0,0.1-0.1c0.3-0.3,2.3-3,3.5-3.5
		c1.7-0.7,6.8,0,8,0.2c0.2,0,0.3,0.1,0.5,0.2c0.8,0.6,3.9,3.2,4.3,4.3C423,117.2,423.1,117.4,423.3,117.6z"/>
	<path class="st3" d="M399.9,106.1c0.1,0.4,0.1,0.8,0.1,1.1c0.1,0.5,0.4,0.9,0.9,1l2,0.5c0.2,0,0.3,0,0.5,0l13.3-2.7
		c0.2,0,0.3,0,0.5,0c1.2,0.3,7.1,1.6,7.1,1.5s1.1,0.4,2.1,0.9c0.8,0.4,1.7-0.3,1.6-1.2l0,0c0-0.4-0.3-0.7-0.6-0.9
		c-2.1-1-9.4-4.5-9.5-4.4c-0.2,0.1-7.5,0.6-8.5,0.7c-0.1,0-0.1,0-0.2,0l-8.3,2.2C400.1,105,399.8,105.5,399.9,106.1z"/>
	<path class="st3" d="M389.2,106.1c-0.1,0.4-0.1,0.8-0.1,1.1c-0.1,0.5-0.4,0.9-0.9,1l-2,0.5c-0.2,0-0.3,0-0.5,0l-13.3-2.7
		c-0.2,0-0.3,0-0.5,0c-1.2,0.3-7.1,1.6-7.1,1.5s-1.1,0.4-2.1,0.9c-0.8,0.4-1.7-0.3-1.6-1.2l0,0c0-0.4,0.3-0.7,0.6-0.9
		c2.1-1,9.4-4.5,9.5-4.4c0.2,0.1,7.5,0.6,8.5,0.7c0.1,0,0.1,0,0.2,0l8.3,2.2C389,105,389.3,105.5,389.2,106.1z"/>
	<path class="st1" d="M368,115.3c-0.3,0.2-0.4,0.6-0.4,0.9c0.3,2.3,2.5,4.1,6.7,4.1c4.5,0,8.1-1.6,8.1-4.1c0-1-2.9-2.7-3.7-3.2
		c-0.1-0.1-0.3-0.1-0.4-0.1c-1.9-0.3-3.3,0.6-5.7,0.4C370.7,113.1,368.8,114.6,368,115.3z"/>
	<path class="st2" d="M370.2,115.7c0,2.5,1.9,4.5,4.4,4.6h0.2c0.2,0,0.4,0,0.6,0c2.5-0.3,4.3-2.6,4-5.1l0,0c0-0.3-0.1-0.6-0.2-0.9
		c-0.1-0.4-0.3-0.7-0.5-1c-0.2-0.2-0.3-0.5-0.6-0.7c-1.4,0-4.3-0.1-6-0.1c-0.3,0-0.6,0.1-0.8,0.4c-0.2,0.3-0.4,0.6-0.6,0.8l-0.1,0.2
		C370.3,114.5,370.2,115.1,370.2,115.7z"/>
	<path class="st2" d="M365.8,117.6h1.3c0.2,0,0.4,0.1,0.6,0.2l1.3,0.8l0,0l-1.2-2.1l-0.1-0.2v-0.1l2.8-2.5h0.1c1-0.1,8-0.7,8.4,0
		l0.2,0.3c0.5,0.6,1.8,1.9,2.9,3s1.8,1.8,1.8,1.8l-0.2-1.5c0-0.2-0.1-0.5-0.3-0.6l-0.9-1c0,0,0,0-0.1-0.1c-0.3-0.3-2.3-3-3.5-3.5
		c-1.7-0.7-6.8,0-8,0.2c-0.2,0-0.3,0.1-0.5,0.2c-0.8,0.6-3.9,3.2-4.3,4.3C366.1,117.1,366,117.3,365.8,117.6z"/>
</g>
</svg>
