<?xml version="1.0" encoding="utf-8"?>
<!-- Generator: Adobe Illustrator 26.0.1, SVG Export Plug-In . SVG Version: 6.00 Build 0)  -->
<svg version="1.1" id="Calque_1" xmlns="http://www.w3.org/2000/svg" xmlns:xlink="http://www.w3.org/1999/xlink" x="0px" y="0px"
	 viewBox="0 0 206.9 203.1" style="enable-background:new 0 0 206.9 203.1;" xml:space="preserve">
<style type="text/css">
	.st0{clip-path:url(#SVGID_00000131360933080850997950000012993333281966510745_);}
	.st1{fill:#B9785C;}
	.st2{clip-path:url(#SVGID_00000080192741913891056540000014300149351939338676_);}
	.st3{fill:#C98841;}
	.st4{fill:#D68F72;}
	.st5{fill:#99533D;}
</style>
<g id="_Répétition_miroir_">
	<g>
		<g>
			<defs>
				<polygon id="SVGID_1_" points="169.5,99.1 169.5,99.1 206.8,99.1 206.8,153.6 169.5,153.6 				"/>
			</defs>
			<clipPath id="SVGID_00000115494188281683620820000016728349706430237361_">
				<use xlink:href="#SVGID_1_"  style="overflow:visible;"/>
			</clipPath>
			<g style="clip-path:url(#SVGID_00000115494188281683620820000016728349706430237361_);">
				<path class="st1" d="M169.5,149l7.2-40c0,0,14.2-16.4,26.5-6.8c8.2,6.4,1.3,47.3-8.2,50C178.9,156.7,169.5,149,169.5,149z"/>
			</g>
		</g>
	</g>
</g>
<g id="_Répétition_miroir_2">
	<g>
		<g>
			<defs>
				<polygon id="SVGID_00000125585459771481636610000005268978130885311933_" points="37.3,99.1 37.3,99.1 0,99.1 0,153.6 
					37.3,153.6 				"/>
			</defs>
			<clipPath id="SVGID_00000067223602979192418780000010174631945437303226_">
				<use xlink:href="#SVGID_00000125585459771481636610000005268978130885311933_"  style="overflow:visible;"/>
			</clipPath>
			<g style="clip-path:url(#SVGID_00000067223602979192418780000010174631945437303226_);">
				<path class="st1" d="M37.3,149l-7.2-40c0,0-14.2-16.4-26.5-6.8c-8.2,6.4-1.3,47.3,8.2,50C28,156.7,37.3,149,37.3,149z"/>
			</g>
		</g>
	</g>
</g>
<path class="st3" d="M14.2,91.7C14.2,41.1,54,0,103.1,0S192,41.1,192,91.7s-73,88.3-88.9,91.7C120.9,177.2,14.2,142.3,14.2,91.7z"/>
<path class="st4" d="M107.7,4.6h-3c-44.5,0-75.8,28.5-75.8,73.1c0,0,0.9,36.6,3.1,52c1.8,12.4,4.3,26.4,19.6,47.6
	c8.9,12.3,36.5,24.2,52.4,25.8l0,0c15.9-1.6,46.3-14,55.2-26.3c15.4-21.2,17.9-35.2,19.6-47.6c2.2-15.5,3.1-52,3.1-52
	c0-44.5-31.3-73.1-75.8-73.1h-3"/>
<path class="st1" d="M102.7,31L102.7,31l-73,50.5c0,0-13.8-62.5,72.7-73.4c0,0,66.7-1.8,78.3,64.6c4.3,24.9-3.8,5.5-3.8,5.5
	s-66-24-74.7-47.6"/>
<path class="st3" d="M102.7,24.8L102.7,24.8L24.6,77.6c0,0-14.8-65.3,77.8-76.7c0,0,71.4-1.9,83.7,67.6c4.6,26-4.1,5.8-4.1,5.8
	s-70.6-25-79.9-49.7"/>
<path class="st5" d="M92,149.6c-1,0.1-1.4,0.7-0.6,1c3,1.2,8.6,3.3,12.3,3.3c3.5,0,8.9-2.1,11.7-3.3c0.8-0.3,0.4-0.9-0.6-1
	c-3.3-0.2-4.7,0.6-11.4,0.6C97.6,150.3,95.3,149.4,92,149.6z"/>
</svg>
