<?xml version="1.0" encoding="utf-8"?>
<!-- Generator: Adobe Illustrator 26.0.1, SVG Export Plug-In . SVG Version: 6.00 Build 0)  -->
<svg version="1.1" id="Calque_1" xmlns="http://www.w3.org/2000/svg" xmlns:xlink="http://www.w3.org/1999/xlink" x="0px" y="0px"
	 viewBox="0 0 240.4 211.3" style="enable-background:new 0 0 240.4 211.3;" xml:space="preserve">
<style type="text/css">
	.st0{fill:#C98841;}
	.st1{clip-path:url(#SVGID_00000116209691861746647390000013337879767110150035_);}
	.st2{fill:#B9785C;}
	.st3{clip-path:url(#SVGID_00000173147036284459703820000002592036431139421577_);}
	.st4{fill:#D68F72;}
	.st5{fill:#99533D;}
</style>
<path class="st0" d="M25.7,73.5c1.4,3.2-19.5,46.8-24.4,64.6c-8.2,30.3,23.5,57.3,35.9,66.5c2.8,2.1,6.5,2.9,9.9,2
	c22.6-5.4,34.8-6.5,34.8-6.5l2-52.4c0,0-33.4-56.3-32.8-59.6S25.7,73.5,25.7,73.5z"/>
<path class="st0" d="M162.1,129.7c0,0,10.1,7,14.8,2.1c5.6-5.8,1.5-36.3,5.2-29.5c6.7,12,20.5,35.6,26.2,42.2
	c12.7,14.6-14.6,57.3-31.1,57.7c-20.8,0.4-44.6,3-48.4-6c-3-7.2,14.1-31,14.1-31L162.1,129.7z"/>
<g id="random">
	<g>
		<g>
			<defs>
				<polygon id="SVGID_1_" points="170.7,107.3 170.7,107.3 208,107.3 208,161.8 170.7,161.8 				"/>
			</defs>
			<clipPath id="SVGID_00000038385472643743621570000012188722557165960356_">
				<use xlink:href="#SVGID_1_"  style="overflow:visible;"/>
			</clipPath>
			<g style="clip-path:url(#SVGID_00000038385472643743621570000012188722557165960356_);">
				<path class="st2" d="M170.7,157.2l7.2-40c0,0,14.2-16.4,26.5-6.8c8.2,6.4,1.3,47.3-8.2,50C180.1,164.9,170.7,157.2,170.7,157.2z
					"/>
			</g>
		</g>
	</g>
</g>
<g id="random2">
	<g>
		<g>
			<defs>
				<polygon id="SVGID_00000016756769396676949920000008278546849177435283_" points="38.5,107.3 38.5,107.3 1.2,107.3 1.2,161.8 
					38.5,161.8 				"/>
			</defs>
			<clipPath id="SVGID_00000046325354897981296480000007429618644290866065_">
				<use xlink:href="#SVGID_00000016756769396676949920000008278546849177435283_"  style="overflow:visible;"/>
			</clipPath>
			<g style="clip-path:url(#SVGID_00000046325354897981296480000007429618644290866065_);">
				<path class="st2" d="M38.5,157.2l-7.2-40c0,0-14.2-16.4-26.5-6.8c-8.2,6.4-1.3,47.3,8.2,50C29.2,164.9,38.5,157.2,38.5,157.2z"
					/>
			</g>
		</g>
	</g>
</g>
<path class="st4" d="M108.9,12.8h-3c-44.5,0-75.8,28.5-75.8,73.1c0,0,0.9,36.6,3.1,52c1.8,12.4,4.3,26.4,19.6,47.6
	c8.9,12.3,36.5,24.2,52.4,25.8l0,0c15.9-1.6,46.3-14,55.2-26.3c15.4-21.2,17.9-35.2,19.6-47.6c2.2-15.5,3.1-52,3.1-52
	c0-44.5-31.3-73.1-75.8-73.1h-3"/>
<path class="st5" d="M93.2,157.8c-1,0.1-1.4,0.7-0.6,1c3,1.2,8.6,3.3,12.3,3.3c3.5,0,8.9-2.1,11.7-3.3c0.8-0.3,0.4-0.9-0.6-1
	c-3.3-0.2-4.7,0.6-11.4,0.6C98.8,158.5,96.5,157.6,93.2,157.8z"/>
<path class="st0" d="M13,107.3c7.3-10.4,20.4,4.5,20.4,4.5s-8.5-51.1,73.4-63.5c47.7-7.2,31.1-46.7,19.1-48S92.1,2.2,82.6,3.8
	c-6.6,1.1-26.6,3.4-40,14C32,26.2,20.5,35.3,9.1,59.8c-6.2,13.5-5.8,29,1.2,42.1L13,107.3z"/>
<path class="st0" d="M240.4,157.8C208.3,144.5,185.2,14.2,168,9.9c-24.8-6.2-32.9,6.6-32.9,6.6l-9,18.6c0,0,46.3,6.6,46.3,35.8
	S200.1,180.5,240.4,157.8"/>
</svg>
