<?xml version="1.0" encoding="utf-8"?>
<!-- Generator: Adobe Illustrator 26.0.1, SVG Export Plug-In . SVG Version: 6.00 Build 0)  -->
<svg version="1.1" id="Calque_1" xmlns="http://www.w3.org/2000/svg" xmlns:xlink="http://www.w3.org/1999/xlink" x="0px" y="0px"
	 viewBox="0 0 788 1005" style="enable-background:new 0 0 788 1005;" xml:space="preserve">
<style type="text/css">
	.st0{clip-path:url(#SVGID_00000027567685960411111970000002648161268050634123_);}
	.st1{fill:#B9785C;}
	.st2{clip-path:url(#SVGID_00000035501708020276151790000010577197505060512409_);}
	.st3{fill:#C98841;}
	.st4{fill:#D68F72;}
	.st5{fill:#99533D;}
	.st6{fill:#E7B687;}
	.st7{fill:#E1B386;}
</style>
<g id="_Répétition_miroir_">
	<g>
		<defs>
			<polygon id="SVGID_1_" points="458.3,308.8 458.3,308.8 495.6,308.8 495.6,363.3 458.3,363.3 			"/>
		</defs>
		<clipPath id="SVGID_00000166659763841681899450000013110671990681174702_">
			<use xlink:href="#SVGID_1_"  style="overflow:visible;"/>
		</clipPath>
		<g style="clip-path:url(#SVGID_00000166659763841681899450000013110671990681174702_);">
			<path class="st1" d="M458.3,358.7l7.2-40c0,0,14.2-16.4,26.5-6.8c8.2,6.4,1.3,47.3-8.2,50C467.7,366.4,458.3,358.7,458.3,358.7z"
				/>
		</g>
	</g>
</g>
<g id="_Répétition_miroir_2">
	<g>
		<defs>
			<polygon id="SVGID_00000133511683308272609440000004467967388098256514_" points="326.1,308.8 326.1,308.8 288.8,308.8 
				288.8,363.3 326.1,363.3 			"/>
		</defs>
		<clipPath id="SVGID_00000088134061356447480310000008818663721896262024_">
			<use xlink:href="#SVGID_00000133511683308272609440000004467967388098256514_"  style="overflow:visible;"/>
		</clipPath>
		<g style="clip-path:url(#SVGID_00000088134061356447480310000008818663721896262024_);">
			<path class="st1" d="M326.1,358.7l-7.2-40c0,0-14.2-16.4-26.5-6.8c-8.2,6.4-1.3,47.3,8.2,50C316.8,366.4,326.1,358.7,326.1,358.7
				z"/>
		</g>
	</g>
</g>
<path class="st3" d="M303,301.4c0-50.6,39.8-91.7,88.9-91.7s88.9,41.1,88.9,91.7s-73,88.3-88.9,91.7C409.7,386.9,303,352,303,301.4z
	"/>
<path class="st4" d="M396.5,214.3h-3c-44.5,0-75.8,28.5-75.8,73.1c0,0,0.9,36.6,3.1,52c1.8,12.4,4.3,26.4,19.6,47.6
	c8.9,12.3,36.5,24.2,52.4,25.8l0,0c15.9-1.6,46.3-14,55.2-26.3c15.4-21.2,17.9-35.2,19.6-47.6c2.2-15.5,3.1-52,3.1-52
	c0-44.5-31.3-73.1-75.8-73.1h-3"/>
<path class="st1" d="M391.5,234.5L391.5,234.5l-78.1,52.8c0,0-14.8-65.3,77.8-76.7c0,0,71.4-1.9,83.7,67.6
	c2.7,15.6,0.7,31.6-5.9,45.9c0,0-4.6-31-52.5-71.4"/>
<path class="st5" d="M380.8,359.3c-1,0.1-1.4,0.7-0.6,1c3,1.2,8.6,3.3,12.3,3.3c3.5,0,8.9-2.1,11.7-3.3c0.8-0.3,0.4-0.9-0.6-1
	c-3.3-0.2-4.7,0.6-11.4,0.6C386.4,360,384.1,359.1,380.8,359.3z"/>
<path class="st6" d="M395.5,206.3c-3.6,7.5,11.8,30.9,15.9,36.4c4.2,5.6,53.6,38.3,53.6,67.3c0,22.6-31.8,57.3-33.6,79.7
	c-4.2,51.2,38.4,59.6,38.4,59.6s-9.4-36.5-9.4-49.7c0-84.6,60.4-62.4,22.5-133.9C459.1,221,401.1,194.7,395.5,206.3z"/>
<path class="st7" d="M340.4,499.5c0,0,12.7-52.5-31.6-100.4c-23.4-25.3-45.8-75.6-17.2-107.6c21-23.4,17.9-46.1,33-61.2
	c46.2-46,75.9-23.8,85-6.7c5.2,9.7,7.2,12.2,1.8,19c-18,22.6-45.6-26.7-90.1,66.1c-9.4,19.5,28.6,77.4,45.1,97.4
	C418.5,469.6,340.4,499.5,340.4,499.5z"/>
<path class="st1" d="M411.4,242.7c0,0,0.8,2.4-21.9,2.4c-20.3,0-75.6,8.3-69.2,76.1c0,0,12.1-70.2,75.8-69.7
	C396.1,251.4,415.6,249.3,411.4,242.7z"/>
</svg>
