<?xml version="1.0" encoding="utf-8"?>
<!-- Generator: Adobe Illustrator 26.0.1, SVG Export Plug-In . SVG Version: 6.00 Build 0)  -->
<svg version="1.1" id="Calque_1" xmlns="http://www.w3.org/2000/svg" xmlns:xlink="http://www.w3.org/1999/xlink" x="0px" y="0px"
	 viewBox="0 0 788 1005" style="enable-background:new 0 0 788 1005;" xml:space="preserve">
<style type="text/css">
	.st0{clip-path:url(#SVGID_00000109022636289233704470000006833863097102298801_);}
	.st1{fill:#B9785C;}
	.st2{clip-path:url(#SVGID_00000146461869160951594980000011206726514313033617_);}
	.st3{fill:#C98841;}
	.st4{fill:#D68F72;}
	.st5{fill:#99533D;}
</style>
<g id="_Répétition_miroir_">
	<g>
		<defs>
			<polygon id="SVGID_1_" points="458.3,308.8 458.3,308.8 495.6,308.8 495.6,363.3 458.3,363.3 			"/>
		</defs>
		<clipPath id="SVGID_00000132776242341579392510000007708079298572401559_">
			<use xlink:href="#SVGID_1_"  style="overflow:visible;"/>
		</clipPath>
		<g style="clip-path:url(#SVGID_00000132776242341579392510000007708079298572401559_);">
			<path class="st1" d="M458.3,358.7l7.2-40c0,0,14.2-16.4,26.5-6.8c8.2,6.4,1.3,47.3-8.2,50C467.7,366.4,458.3,358.7,458.3,358.7z"
				/>
		</g>
	</g>
</g>
<g id="_Répétition_miroir_2">
	<g>
		<defs>
			<polygon id="SVGID_00000116207775517539041760000009927466188956228232_" points="326.1,308.8 326.1,308.8 288.8,308.8 
				288.8,363.3 326.1,363.3 			"/>
		</defs>
		<clipPath id="SVGID_00000177482117712669672490000016689106049584366233_">
			<use xlink:href="#SVGID_00000116207775517539041760000009927466188956228232_"  style="overflow:visible;"/>
		</clipPath>
		<g style="clip-path:url(#SVGID_00000177482117712669672490000016689106049584366233_);">
			<path class="st1" d="M326.1,358.7l-7.2-40c0,0-14.2-16.4-26.5-6.8c-8.2,6.4-1.3,47.3,8.2,50C316.8,366.4,326.1,358.7,326.1,358.7
				z"/>
		</g>
	</g>
</g>
<path class="st3" d="M303,301.4c0-50.6,39.8-91.7,88.9-91.7s88.9,41.1,88.9,91.7s-73,88.3-88.9,91.7C409.7,386.9,303,352,303,301.4z
	"/>
<path class="st4" d="M396.5,214.3h-3c-44.5,0-75.8,28.5-75.8,73.1c0,0,0.9,36.6,3.1,52c1.8,12.4,4.3,26.4,19.6,47.6
	c8.9,12.3,36.5,24.2,52.4,25.8l0,0c15.9-1.6,46.3-14,55.2-26.3c15.4-21.2,17.9-35.2,19.6-47.6c2.2-15.5,3.1-52,3.1-52
	c0-44.5-31.3-73.1-75.8-73.1h-3"/>
<path class="st5" d="M380.8,359.3c-1,0.1-1.4,0.7-0.6,1c3,1.2,8.6,3.3,12.3,3.3c3.5,0,8.9-2.1,11.7-3.3c0.8-0.3,0.4-0.9-0.6-1
	c-3.3-0.2-4.7,0.6-11.4,0.6C386.4,360,384.1,359.1,380.8,359.3z"/>
<path class="st3" d="M442.1,238.1c-17.3,4.7-35.1,7-53,6.9c-28.8-0.4-85.6,8.1-74.3,43.3s-7.6,45.4-31,43.9s-28.2-10.7-28.2-10.7
	s25.4-11.6,33.1-59.7c8.9-55.7,133.1-75.7,166.7-25.6c0,0,3.6,4.2-3.8,5L442.1,238.1z"/>
<path class="st3" d="M456.2,249.2c-0.8-1-2.2-3.4-1.2-4.4c3.4-3,7.3-0.1,9.4,1.9c2.4,2.2,4.8,7.2-2.4,6.6
	C459.7,253.1,457.2,250.4,456.2,249.2z"/>
<path class="st3" d="M463.4,264.1c-0.2-1.1-0.4-3.6,1-4.4c4.8-2.4,7.1,1,8.1,3.2c1.2,2.5,1,7.6-5.6,6
	C464.7,268.4,463.7,265.4,463.4,264.1z"/>
<path class="st3" d="M463.5,276.9c0.3-1.1,1.2-3.5,3-4.1c5.7-1.7,6.4,1.9,6.4,4.2c0,2.5-2.6,7.5-8.2,5
	C462.8,281.2,463.2,278.2,463.5,276.9z"/>
</svg>
