<?xml version="1.0" encoding="utf-8"?>
<!-- Generator: Adobe Illustrator 26.0.1, SVG Export Plug-In . SVG Version: 6.00 Build 0)  -->
<svg version="1.1" id="Calque_1" xmlns="http://www.w3.org/2000/svg" xmlns:xlink="http://www.w3.org/1999/xlink" x="0px" y="0px"
	 viewBox="0 0 206.9 271.8" style="enable-background:new 0 0 206.9 271.8;" xml:space="preserve">
<style type="text/css">
	.st0{clip-path:url(#SVGID_00000029724800771258153480000008219090473144774069_);}
	.st1{fill:#B9785C;}
	.st2{clip-path:url(#SVGID_00000145779798604258421280000013554663954096181412_);}
	.st3{fill:#C98841;}
	.st4{fill:#D68F72;}
	.st5{fill:#99533D;}
</style>
<g id="_Répétition_miroir_">
	<g>
		<g>
			<defs>
				<polygon id="SVGID_1_" points="169.5,167.8 169.5,167.8 206.8,167.8 206.8,222.3 169.5,222.3 				"/>
			</defs>
			<clipPath id="SVGID_00000103256327995529118650000014381888925749023112_">
				<use xlink:href="#SVGID_1_"  style="overflow:visible;"/>
			</clipPath>
			<g style="clip-path:url(#SVGID_00000103256327995529118650000014381888925749023112_);">
				<path class="st1" d="M169.5,217.7l7.2-40c0,0,14.2-16.4,26.5-6.8c8.2,6.4,1.3,47.3-8.2,50C178.9,225.4,169.5,217.7,169.5,217.7z
					"/>
			</g>
		</g>
	</g>
</g>
<g id="_Répétition_miroir_2">
	<g>
		<g>
			<defs>
				<polygon id="SVGID_00000161615954433796648550000003295925607034179497_" points="37.3,167.8 37.3,167.8 0,167.8 0,222.3 
					37.3,222.3 				"/>
			</defs>
			<clipPath id="SVGID_00000165198027134376160190000012379457077541595557_">
				<use xlink:href="#SVGID_00000161615954433796648550000003295925607034179497_"  style="overflow:visible;"/>
			</clipPath>
			<g style="clip-path:url(#SVGID_00000165198027134376160190000012379457077541595557_);">
				<path class="st1" d="M37.3,217.7l-7.2-40c0,0-14.2-16.4-26.5-6.8c-8.2,6.4-1.3,47.3,8.2,50C28,225.4,37.3,217.7,37.3,217.7z"/>
			</g>
		</g>
	</g>
</g>
<path class="st3" d="M14.2,160.4c0-50.6,39.8-91.7,88.9-91.7s88.9,41.1,88.9,91.7s-73,88.3-88.9,91.7
	C120.9,245.9,14.2,211,14.2,160.4z"/>
<path class="st4" d="M107.7,73.3h-3c-44.5,0-75.8,28.5-75.8,73.1c0,0,0.9,36.6,3.1,52c1.8,12.4,4.3,26.4,19.6,47.6
	c8.9,12.3,36.5,24.2,52.4,25.8l0,0c15.9-1.6,46.3-14,55.2-26.3c15.4-21.2,17.9-35.2,19.6-47.6c2.2-15.5,3.1-52,3.1-52
	c0-44.5-31.3-73.1-75.8-73.1h-3"/>
<path class="st3" d="M102.7,93.5L102.7,93.5l-78.1,52.8c0,0-14.8-65.3,77.8-76.7c0,0,71.4-1.9,83.7,67.6c4.6,26-4.1,5.8-4.1,5.8
	s-70.6-25-79.9-49.7"/>
<circle class="st3" cx="106" cy="46.7" r="46.7"/>
<path class="st5" d="M92,218.3c-1,0.1-1.4,0.7-0.6,1c3,1.2,8.6,3.3,12.3,3.3c3.5,0,8.9-2.1,11.7-3.3c0.8-0.3,0.4-0.9-0.6-1
	c-3.3-0.2-4.7,0.6-11.4,0.6C97.6,219,95.3,218.1,92,218.3z"/>
</svg>
