<?xml version="1.0" encoding="utf-8"?>
<!-- Generator: Adobe Illustrator 26.0.3, SVG Export Plug-In . SVG Version: 6.00 Build 0)  -->
<svg version="1.1" id="Calque_1" xmlns="http://www.w3.org/2000/svg" xmlns:xlink="http://www.w3.org/1999/xlink" x="0px" y="0px"
	 viewBox="0 0 788 1005" style="enable-background:new 0 0 788 1005;" xml:space="preserve">
<style type="text/css">
	.st0{fill:#D48F72;}
	.st1{fill:#84331E;}
	.st2{fill:#BF7F75;}
	.st3{fill:none;stroke:#000000;stroke-width:3;stroke-miterlimit:10;}
	.st4{fill:#473415;}
	.st5{fill:none;stroke:#4F3742;stroke-miterlimit:10;}
	.st6{fill:#72271F;}
</style>
<path class="st0" d="M265.1,410.9c-10.4-16-34.6-8.9-43.3-5.9s-24.7,12.9-32.6,17.8c-20.2,12.4-80.7,51.2-103,57.8
	c-15.6,4.7,7.3,27.1,7.3,27.1s18.7-4.9,29.6-8.8c22.9-8.1,54.3-17.4,92.5-29.5c10-3.2,29.1-13,37.3-19.6
	C275.8,432,268.1,415.6,265.1,410.9z"/>
<path class="st0" d="M516.6,410.9c10.4-16,34.6-8.9,43.3-5.9s24.7,12.9,32.6,17.8c20.3,12.4,80.7,51.2,103,57.8
	c15.6,4.7-8.3,26.9-8.3,26.9s-18.1-5-29-8.9c-22.9-8.1-53.8-17.1-92.1-29.2c-10-3.2-29.1-13-37.3-19.6
	C505.9,432,513.5,415.6,516.6,410.9z"/>
<path class="st1" d="M319.4,223.2c0-25.7,34.1-12.9,76.1-12.9s76-12.9,76,12.9s-38.7,51.1-80.7,51.1S319.4,248.8,319.4,223.2z"/>
<path class="st0" d="M518.2,291.6c-0.6,39.6-27,34.2-38,43.6c-13,11.1-8.6,51.5-17.7,66c-2.6,3.9-11.7,10.4-16.3,9.4
	c-12.9-3-24.7-31.6-35.9-38.9c-6.5-4.2-24.3-3.7-31.1,0c-11.5,6.4-23,36-35.9,38.9c-4.5,1-13.8-5.4-16.3-9.4
	c-9.2-14.4-4.7-54.8-17.7-66c-10.9-9.4-37.3-4-38-43.6c-0.4-27.4,36.1-38.4,36.1-38.4l41.2-20.5c2.7-1.3,5.2-3,7.3-4.9
	c0.8-0.7,1.6-1.5,2.4-2.4l0.6-0.7v-0.1c4-4.8,6.7-10.7,7.4-16.9c0.2-1.4,0.3-2.9,0.2-4.3v-2.9v-4.6h55.2l0.1,5.2v1.5v3.3
	c0,0.3,0,0.7,0,1l0,0c0,0.6,0.1,1.3,0.2,2c0.2,1.5,0.5,3.2,0.9,4.7c2.3,7.9,7.8,14.4,15.1,18.1l41.8,20.6c1,0.5,2.2,1,3.3,1.3
	C490.5,256.1,518.6,267.5,518.2,291.6z"/>
<path class="st2" d="M423.6,213.7l-1,1.2c-5.4,6.5-29.7,36.1-43.1,45.7c-3.3,2.4-5.9,3.5-7.4,2.8c-7-3.4-15.3-36.2-15.3-36.2
	l0.1-0.1c0.6-0.6,1.2-1.2,1.8-2c0.3-0.4,0.7-0.8,1-1.3l0.1-0.1c3.4-4.6,5.7-10,6.9-15.7c0-0.2,0.1-0.4,0.1-0.6
	c0.3-1.4,0.5-3.1,0.7-4.9c0.1-0.7,0.1-1.4,0.2-2.3c0.1-1.4,0.2-3,0.3-4.6h54.3v0.2v4.4v6.9l0.1,0.8l0.1,0.7l0.9,4.7L423.6,213.7z"/>
<path class="st3" d="M466.5,459.1c-0.9-4.1-5.9-26.1-5.8-34.8c0.1-9.5,4.1-28.5,1.9-37.8c-10.1-40.8-127.3-40.8-137.4,0
	c-2.3,9.3,1.8,28.3,1.9,37.8c0.1,8.8-4.8,30.7-5.8,34.8c-11.3,51.8,72.6,75.6,72.6,75.6S478,510.9,466.5,459.1z"/>
<path class="st3" d="M334.3,288c2.9,28.3-15.4,56.1-15.4,56.1s-29.2,57.2-38.6,76.4c-4.4,9.1-13.4,28-36.3,17.6l0,0
	c-18.9-8.7-13.7-28.2-10.3-37.3c6.9-18.4,24.7-54.4,28.3-73.5c2.7-14.2,1.2-37.3,18.7-54.9c0,0,12.7-16,32.4-9.7l0.8,0.2
	C325.2,266.4,333.2,276.3,334.3,288L334.3,288z"/>
<path class="st3" d="M458.1,288c-2.9,28.3,15.4,56.1,15.4,56.1s29.2,57.2,38.5,76.4c4.4,9.1,13.4,28,36.3,17.6l0,0
	c18.9-8.7,13.7-28.2,10.3-37.3c-6.9-18.4-24.7-54.4-28.3-73.5c-2.7-14.2-1.2-37.3-18.7-54.9c0,0-12.7-16-32.4-9.7l-0.8,0.2
	C467.2,266.4,459.2,276.3,458.1,288L458.1,288z"/>
<g id="Calque_7">
	<path class="st4" d="M312.5,500.5l0.8-12.5c0.2-2.8,2.5-4.9,5.3-4.9h149.9c2.7,0,5,2.1,5.3,4.7l1,9.6c0.3,3.1-2.1,5.8-5.2,5.9
		l-151.8,2.9C314.7,506.3,312.3,503.6,312.5,500.5z"/>
	<path class="st5" d="M391.1,536.2l-3.2-25.4c-0.4-3.2,2.1-6,5.3-6h3.9c3,0,5.4,2.5,5.4,5.5l-0.8,25.4c0,1.4-0.7,2.9-1.9,3.8l0,0
		C396.7,542.3,391.6,540.4,391.1,536.2z"/>
	<path class="st1" d="M163.5,436.5l7.7,52.5c0.2,1.8,1.3,3.3,3,4l7.1,3.4c1.6,0.7,3.5,0.7,4.9-0.2l94-55.4c0.9-0.6,1.8-1.4,2.2-2.5
		l13.1-30.6c0.6-1.5,2.9-1.2,3.1,0.4l4.4,36.2c0,0.4,0.1,0.8,0,1.2l-2.1,19.6c-1,9.9-0.7,19.8,0.8,29.6l6.2,37.9
		c0.4,2.6,2.7,4.4,5.3,4.4h162.2c2.5,0,4.6-1.8,5.2-4.2l10.2-46.9c0.1-0.4,0.1-0.7,0.1-1.1v-42.4c0-0.1,0-0.3,0-0.4l-2.5-31.9
		c-0.1-1.6,2.1-2.4,3-1l26.7,42.1c0.5,0.8,1.1,1.4,2,1.9l76.8,41c0.8,0.4,1.6,0.6,2.6,0.6l17.6-0.3c2,0,3.8-1.1,4.6-2.9l21.6-43.1
		c0.6-1.2,0.7-2.7,0.3-4l-1.3-4.1c-0.4-1.3-1.3-2.4-2.5-3l-66.1-36.8c-1.1-0.6-2-1.5-2.4-2.8l-41.7-108.5
		c-5.2-13.5-15.3-24.5-28.1-30.9l-45.8-22.7c-1.5-0.7-3.4-0.7-4.8,0.1l-47.8,25.6c-1.6,0.8-3.5,0.8-5.2-0.1l-49.5-27.8
		c-1.4-0.8-3.2-0.9-4.7-0.2L291,256.6c-7.2,3.2-13.5,8-18.3,14.2l-3.8,4.8c-3.4,4.2-6,9-7.6,14l-33.6,101c-0.4,1.2-1.2,2.3-2.4,2.9
		l-57.1,33.2c-0.9,0.5-1.6,1.3-2.2,2.3l-2.2,4.5C163.5,434.3,163.4,435.4,163.5,436.5z"/>
	<path class="st6" d="M326.8,244.1c8.3,7.9,35.9,33.2,56.1,43.9c4.1,2.2,3.6,8.1-0.7,9.7c-9.8,3.4-23.9,6.1-35.9-0.1
		c-20.6-10.7-38.7-48.7-37.8-49.2c0.6-0.3,8.2-3.5,12.7-5.4C323.1,242.2,325.2,242.7,326.8,244.1z"/>
	<path class="st6" d="M163.4,435.7c-0.8,0-16.4,9.5-23.1,13.5c-1.8,1.1-2.8,3.1-2.5,5.2c1,8.6,5.4,40.1,6.2,40.3
		c1,0.2,25.8-4.8,27.1-6.2C171.2,488.4,163.4,435.7,163.4,435.7z"/>
	<path class="st6" d="M642.5,449.8c1,0,20.8,9.8,20.9,11.4c0.1,1.2-11.1,27-14.4,34.6c-0.2,0.4-0.3,0.7-0.6,1
		c-1.4,2-4.1,2.6-6.4,1.6l-19.6-8.3L642.5,449.8z"/>
	<path class="st6" d="M480.2,546L306,542.2c-3.2-0.1-5.6-2.9-5.2-6l2.9-22.1c0.3-2.7,2.7-4.7,5.4-4.6l169.9,4.3
		c2.8,0.1,4.9,2.3,5.2,4.9l1.3,21.6C485.8,543.4,483.3,546,480.2,546z"/>
</g>
<g>
	<path class="st0" d="M78.4,477.9l-15.1-3c-0.2,0-0.6-0.1-0.9-0.2l-23.1-1c-2.7-1-5.7,0.3-6.4,3.1c-0.1,0.5-0.2,1.1-0.1,1.5
		c0.2,2.2,2,3.8,4.2,4.1l15.7,1.8c3,1.8,3.1,6.2,0.1,8.1l-5.2,3.7c-0.9,0.5-1.8,0.9-2.9,0.9c0,0-7.8,0.9-11.5-6.1l1-6.3
		c1.3-2.6,0.3-5.8-2.1-7.3c-1-0.6-2-1-2.7-0.6c-2.4,1.1-8.1,13-6.8,15.1c0,0,1.8,3.7,4.4,7.5c0.3,0.5,0.9,1.3,1.1,2
		c0.6,1.4,2.1,6.2,3.8,6.4l15.4,4.4l0,0c1.6,0.2,3.2,0.2,4.8,0l43.5-4.7l2.1-0.3c3.4-0.5,2.1-6.8,0.3-11.6c-1.3-3.3-3.2-6.4-6-8.8
		l-5.3-4.6C84.3,479.9,81.5,478.6,78.4,477.9z"/>
	<path class="st0" d="M47,512.3l-40.6,6.4c-2.7,0.5-5.3-1.5-5.8-4.2l0,0c-0.5-2.7,1.5-5.3,4.2-5.8l40.6-6.4c2.7-0.5,5.3,1.5,5.8,4.2
		l0,0C51.7,509.3,49.8,511.9,47,512.3z"/>
	<path class="st0" d="M50.5,508.4l-40.6,6.4c-2.7,0.5-5.3-1.5-5.8-4.2l0,0c-0.5-2.7,1.5-5.3,4.2-5.8l40.6-6.4
		c2.7-0.5,5.3,1.5,5.8,4.2l0,0C55.1,505.4,53.3,508,50.5,508.4z"/>
	<path class="st0" d="M27.1,508.1L15.6,510c-2.7,0.5-5.3-1.5-5.8-4.2l0,0c-0.5-2.7,1.5-5.3,4.2-5.8l11.5-1.8
		c2.7-0.5,5.3,1.5,5.8,4.2l0,0C31.8,505.1,29.9,507.6,27.1,508.1z"/>
</g>
<g>
	<path class="st0" d="M698,482.6l-5.3,4.6c-2.7,2.4-4.7,5.4-6,8.8c-1.7,4.8-3.2,11.1,0.3,11.6l2.1,0.3l43.5,4.7
		c1.6,0.2,3.2,0.1,4.8,0l0,0l15.4-4.4c1.8-0.1,3.2-4.9,3.8-6.4c0.2-0.7,0.7-1.5,1.1-2c2.5-3.7,4.4-7.5,4.4-7.5
		c1.4-2.1-4.5-14-6.8-15.1c-0.7-0.3-1.7,0-2.7,0.6c-2.5,1.5-3.3,4.7-2.1,7.3l1,6.3c-3.7,6.9-11.5,6.1-11.5,6.1c-1,0-2-0.3-2.9-0.9
		l-5.2-3.7c-3-2-2.9-6.3,0.1-8.1l15.7-1.8c2.2-0.2,4.1-2,4.2-4.1c0-0.5,0-1-0.1-1.5c-0.7-2.9-3.7-4.1-6.4-3.1l-23.2,1.1
		c-0.2,0.1-0.6,0.2-0.9,0.2l-15.1,3C703.2,479.1,700.4,480.5,698,482.6z"/>
	<path class="st0" d="M738.1,512.6l40.6,6.4c2.7,0.5,5.3-1.5,5.8-4.2l0,0c0.5-2.7-1.5-5.3-4.2-5.8l-40.6-6.4
		c-2.7-0.5-5.3,1.5-5.8,4.2l0,0C733.4,509.6,735.4,512.3,738.1,512.6z"/>
	<path class="st0" d="M734.7,508.7l40.6,6.4c2.7,0.5,5.3-1.5,5.8-4.2l0,0c0.5-2.7-1.5-5.3-4.2-5.8l-40.6-6.4
		c-2.7-0.5-5.3,1.5-5.8,4.2l0,0C730,505.6,731.8,508.3,734.7,508.7z"/>
	<path class="st0" d="M757.2,508.3l12.3,2c2.7,0.5,5.3-1.5,5.8-4.2l0,0c0.5-2.7-1.5-5.3-4.2-5.8l-12.3-2c-2.7-0.5-5.3,1.5-5.8,4.2
		l0,0C752.5,505.2,754.4,507.8,757.2,508.3z"/>
</g>
</svg>
