<?xml version="1.0" encoding="utf-8"?>
<!-- Generator: Adobe Illustrator 26.0.3, SVG Export Plug-In . SVG Version: 6.00 Build 0)  -->
<svg version="1.1" id="Calque_1" xmlns="http://www.w3.org/2000/svg" xmlns:xlink="http://www.w3.org/1999/xlink" x="0px" y="0px"
	 viewBox="0 0 788 1005" style="enable-background:new 0 0 788 1005;" xml:space="preserve">
<style type="text/css">
	.st0{fill:#C78D71;}
	.st1{fill:#BF7F75;}
	.st2{fill:#D48F72;}
	.st3{fill:#473415;}
	.st4{fill:#7081AF;}
	.st5{fill:#343D4F;}
	.st6{fill:#293040;}
	.st7{fill:#F49595;}
	.st8{fill:#FFFFFF;}
	.st9{fill:#D2DAE4;}
	.st10{fill:none;stroke:#D2DAE4;stroke-width:2;stroke-miterlimit:10;}
	.st11{fill:none;stroke:#EAD3D3;stroke-width:3;stroke-linecap:round;stroke-miterlimit:10;}
	.st12{fill:#EAD3D3;}
</style>
<path class="st0" d="M422,225.3v1c0,0.3,0,0.8,0,1.1l0,0c0,0.7,0.1,1.4,0.1,2c1.2,10.2,7.5,19.2,16.7,23.8l43.4,21.5
	c1.1,0.6,2.2,1.1,3.5,1.4c7.2,2.6,36.5,14.5,36,39.6c-0.7,41.2-30.1,31.1-41.5,40.8c-13.6,11.6-7,58.1-16.5,73.1
	c-2.7,4.2-12.2,10.9-16.9,9.8c-13.5-3.1-25.8-33-37.3-40.5c-6.7-4.4-25.3-3.8-32.4,0c-12,6.6-23.9,37.5-37.3,40.5
	c-4.7,1.1-14.4-5.6-16.9-9.8c-9.5-15-4.9-57.1-18.5-68.6c-11.3-9.8-24.7,8.9-25.3-32.2c-0.4-28.5,28.7-50.6,28.7-50.6l37.8-24
	c2.8-1.4,5.4-3.1,7.6-5.2c0.9-0.8,1.7-1.6,2.5-2.5l0.7-0.8v-0.1c4.2-4.9,10.3-9.3,15.6-13.5"/>
<path class="st1" d="M423.1,234.8c0-0.1,0-0.2,0-0.3c-1-8-2.2-26-2.2-26l-54.7,1.8c0.2,10.3-4.4,24.9-4.4,24.9l0,0
	c-1.3,3.6-3.1,6.9-5.1,10.1l-0.1,0.1c-0.4,0.6-0.9,1-1.2,1.4c-0.6,0.8-1.2,1.4-1.8,2c0,0.1-0.1,0.1-0.1,0.1s8.6,34.1,16,37.7
	c1.6,0.8,4.3-0.4,7.7-2.9c13.8-9.9,38.9-40.2,44.7-47.3C422.6,235.9,423.1,235.4,423.1,234.8L423.1,234.8L423.1,234.8z"/>
<path class="st2" d="M458,312.8c9.3,28.3,38.3,46.8,38.3,46.8s52,42.1,69,56.3c8.1,6.7,24.6,21,41.9,1.4l0,0
	c14.2-16.2,1.1-32.7-6.1-39.9c-14.4-14.6-46.5-41.2-58-58c-8.6-12.4-16.9-35-40.9-44.3c0,0-18.8-9.9-34.9,4.5l-0.7,0.6
	C457.6,288.4,454.3,301.2,458,312.8L458,312.8z"/>
<path class="st2" d="M597.1,379.3c-18.7-10.1-36.3,8.2-42.4,15.1c-6.1,6.9-14.6,24-18.8,32.4c-10.9,21.3-26.4,58.7-37.3,79.4
	c-7.2,13.6-11.3,20.6-3.8,27.6c6.7,6.2,17.9-3.9,22.3-8c18.2-16.3,53.9-47.7,70.1-67.8c6.6-8.3,18.5-26.1,22-36.1
	C619.1,394,602.6,382.2,597.1,379.3z"/>
<path class="st2" d="M330.6,303c3,27.7-16,54.7-16,54.7s-30.4,55.9-40.3,74.6c-4.6,8.8-13.9,27.4-37.8,17.2l0,0
	c-19.6-8.5-14.2-27.6-10.8-36.4c7.2-18,25.9-53,29.5-71.8c2.8-13.9,1.2-36.4,19.4-53.6c0,0,13.2-15.6,33.7-9.5l0.9,0.2
	C321.1,281.9,329.4,291.5,330.6,303L330.6,303z"/>
<polygon class="st3" points="308.7,530.6 310.3,506.4 476.6,506.4 478.8,527.3 "/>
<path class="st4" d="M248.4,375.6l46.3,25.7c0.7,0.3,1.4,0.1,1.7-0.6l11.4-23.3c1.1-2,4.2-1.2,4,1.1l-2.2,64.3l-2.9,53.2l-3.5,46.1
	c-0.7,6.8,4.5,13,11.3,13.6c0.2,0,0.3,0,0.6,0l38.2,10.7c15.4,5.4,64.7,2.4,80.4-1.2l25.9-5.8l3.7-1.2c9.5,0.4,14.5-11.3,14.9-21
	c0-0.4,0-0.8,0-1.2l-1.1-54.3l-0.3-45.3v-0.2l4.8-77.4c0.1-1.1,1.4-1.7,2.2-1l36.2,31.7c0.8,0.7,1.9,0.6,2.5-0.2l39.4-48.3
	c1.9-2.5,1.9-5.9,0-8.3l-37.5-45.6c-6.6-8.2-15.4-14.5-25.1-18.5l-46.5-18.6l0,0l-20,6.1c-24.1,7.3-49.9,6.6-73.6-1.9l-17.6-6.3l0,0
	l-50.6,23.4c-7.1,3.4-13.5,8.2-18.5,14.1l0,0c-7.8,9.2-13.3,20.2-16,31.9l-15,50.6C241.3,371.2,245.8,374.2,248.4,375.6z"/>
<path class="st2" d="M498.5,530.3c1.7,3.7,2,10-5.2,15.4c0,0-21.4,19.1-30.4,22.4c-3.9,1.5-14.5,4.9-16.8,1.4
	c-6.6-9.9-9-32.1-4.7-45.7c1.2-4,11.1-7.3,15.4-7.6c4.7-0.3,13.5,4.5,18.2,5.3c2.6,0.3,5.2,0.6,7.7,0.6
	C489.1,522.4,496.1,525.3,498.5,530.3z"/>
<polygon class="st2" points="491.3,516.7 484.5,522.3 486.4,536 489.1,549.4 495.8,543.8 507.5,537.6 "/>
<path class="st5" d="M488.3,518l6.8-7.3c0.3-0.3,0.8-0.3,1.1,0l18.1,20.1c0.3,0.6,0.2,1.1-0.2,1.5l-8.6,7.2
	c-0.3,0.3-0.9,0.2-1.2-0.1l-15.9-19.3C487.7,519.4,487.7,518.5,488.3,518z"/>
<path class="st6" d="M496.9,535.1l-7-8.8c-1.5-1.9-1.2-4.8,0.8-6.3l8.8-7c1.9-1.5,4.8-1.2,6.3,0.8l7,8.8c1.5,1.9,1.2,4.8-0.8,6.3
	l-8.8,7C501.4,537.3,498.5,537,496.9,535.1z"/>
<path class="st4" d="M516.8,301.1c-5.7-9-13.9-16-23.8-20.4l-37.5-29.5c-14.5-6.2-25.5-5.7-30.2-20.5c0,0-26.9,9.5-27.1,11.2
	l-3.8,10.1l-2.9-10c-1.4-5.6-31.2-9.3-31.2-9.3s-17,15.1-31.1,21.2l-38.6,29.1c-10.3,4.4-18.7,16.7-24.5,26.2"/>
<path class="st2" d="M252.7,452.7c-20.5,5.7-33.9-14.6-38.3-22.1c-4.4-7.6-9.3-24.9-11.7-33.4c-6.2-21.7-13.7-59-20.1-80.1
	c-4.2-14-6.9-21.2,1.9-26c8.1-4.4,16.7,7,20.3,11.5c14.3,18.4,43,54.2,54.6,75.8c4.8,8.8,12.7,27.6,14,37.5
	C277.2,443.5,258.6,451.1,252.7,452.7z"/>
<path class="st2" d="M197.5,291.2l-5.9-18.7c0-0.1-0.1-0.3-0.2-0.4L176,248.4c-0.7-0.9-1.8-1-2.6-0.3c-1.3,1.3-3.1,3.4-3.2,4.5
	c-0.7,5.9,3.6,14.4,5.9,19.8c0.3,0.8-0.2,4.3-0.8,4.8c-0.7,0.6-1.7,0.8-2.8,0.5c-1.4-0.3-2.4,1.4-1.5,2.7l8.8,12.1
	c0.3,0.4,0.9,0.7,1.3,0.7l14.8,0.1C197,293.4,197.8,292.2,197.5,291.2z"/>
<ellipse class="st2" cx="185.7" cy="297.1" rx="13" ry="13"/>
<g>
	<path class="st7" d="M190.4,304.5L161,319.1c-4.3,2.2-9.4,0.5-11.6-3.9l-36.9-74c-2.2-4.3-0.5-9.4,3.9-11.6l29.4-14.6
		c4.3-2.2,9.4-0.5,11.6,3.9l36.8,74C196.3,297.1,194.7,302.3,190.4,304.5z"/>
	<path class="st8" d="M190.3,297.6l-35,17.4c-1.2,0.6-2.7,0.2-3.4-1.2l-35.5-71.2c-0.6-1.2-0.2-2.7,1.2-3.4l35-17.4
		c1.2-0.6,2.7-0.2,3.4,1.2l35.5,71.2C192,295.4,191.6,296.9,190.3,297.6z"/>
	<path class="st8" d="M141.8,222.6L125,231c-0.3,0.1-0.8,0-0.9-0.4l-0.1-0.3c-0.1-0.3,0-0.8,0.4-0.9l16.8-8.4c0.3-0.1,0.8,0,0.9,0.4
		l0.1,0.3C142.3,222.2,142.1,222.5,141.8,222.6z"/>
	<ellipse class="st9" cx="151.2" cy="262.7" rx="10.7" ry="10.7"/>
	<path class="st9" d="M185.6,300.1l-25.3,12.6L150,291.9c-2.9-5.8-0.6-12.7,5.2-15.6l4.6-2.3c5.8-2.9,12.7-0.6,15.6,5.2L185.6,300.1
		L185.6,300.1z"/>
	<path class="st10" d="M149.7,243.8c-2.5-0.9-5.1-0.7-7.6,0.6c-2.5,1.2-4.2,3.3-5,5.7"/>
	<path class="st10" d="M150.3,240.3c-3.2-1.2-6.7-1.3-10,0.3c-3.3,1.6-5.6,4.6-6.2,7.9"/>
	<path class="st10" d="M151.4,236.1c-4-2-8.9-2.2-13.5,0c-4.4,2.2-7.3,6.2-8.1,10.9"/>
	<path class="st10" d="M149,247.1c-1.7-0.7-3.7-0.7-5.4,0.1c-1.8,1-3,2.5-3.6,4.2"/>
</g>
<path class="st7" d="M104.9,199.7c3.7-7.5,5.3-16,4.4-24.8c-2.7-25.2-25.2-43.5-50.5-40.8S15.4,159.3,18,184.5
	c2.7,25.2,25.2,43.5,50.5,40.8c7.6-0.8,14.5-3.5,20.5-7.3l20.2,2.7c0.7,0.2,1.2-0.6,1.1-1.2L104.9,199.7z"/>
<path class="st11" d="M58.9,134c-25.2,2.6-43.5,25.2-40.9,50.5c2.7,25.2,25.2,43.5,50.5,40.8c7.6-0.8,14.5-3.5,20.5-7.3l20.2,2.7
	c0.7,0.2,1.2-0.6,1.1-1.2l-5.2-19.7c3.7-7.5,5.3-16,4.4-24.8"/>
<path class="st12" d="M79.3,163.6c-5.1-2.9-11.3-1.4-15,3.1l-1.7,2.1l0,0l-2.5-2c-5-4-12.3-3.3-16.4,1.7l0,0c-4,5-3.3,12.3,1.7,16.4
	l2.5,2l0,0l17.5,14.1c0.4,0.3,0.9,0.2,1.2-0.1l14.1-17.5l0,0l1.9-2.4C87.1,175.6,85.6,167.3,79.3,163.6z"/>
<path class="st2" d="M140.6,295.3L140.6,295.3c-2.2,1.4-5.2,0.8-6.6-1.5l-0.9-1.3c-1.4-2.2-0.8-5.2,1.5-6.6l0,0
	c2.2-1.4,5.2-0.8,6.6,1.5l0.9,1.3C143.5,290.9,142.9,293.9,140.6,295.3z"/>
<path class="st2" d="M135.3,287L135.3,287c-2.2,1.4-5.2,0.8-6.6-1.5l-0.9-1.3c-1.4-2.2-0.8-5.2,1.5-6.6l0,0c2.2-1.4,5.2-0.8,6.6,1.5
	l0.9,1.3C138.3,282.6,137.6,285.6,135.3,287z"/>
<path class="st2" d="M130.5,277.7L130.5,277.7c-2.2,1.4-5.2,0.8-6.6-1.5l-0.9-1.3c-1.4-2.2-0.8-5.2,1.5-6.6l0,0
	c2.2-1.4,5.2-0.8,6.6,1.5l0.9,1.3C133.5,273.3,132.8,276.3,130.5,277.7z"/>
</svg>
