<?xml version="1.0" encoding="utf-8"?>
<!-- Generator: Adobe Illustrator 26.0.3, SVG Export Plug-In . SVG Version: 6.00 Build 0)  -->
<svg version="1.1" id="Layer_1" xmlns="http://www.w3.org/2000/svg" xmlns:xlink="http://www.w3.org/1999/xlink" x="0px" y="0px"
	 viewBox="0 0 788 1005" style="enable-background:new 0 0 788 1005;" xml:space="preserve">
<style type="text/css">
	.st0{fill:#718985;}
	.st1{fill:#D48F72;}
	.st2{fill:#A85B3B;}
	.st3{fill:#BF7F75;}
	.st4{fill:#DBDBDB;}
	.st5{fill:#95C1BE;}
	.st6{fill:#87AAA7;}
	.st7{fill:#444444;}
	.st8{fill:none;stroke:#444444;stroke-miterlimit:10;}
	.st9{fill:#D3D3D3;}
	.st10{fill:#7C9995;}
	.st11{fill:#E8E8E8;}
	.st12{fill:#888215;}
	.st13{fill:#9E9520;}
</style>
<path class="st0" d="M341,248.2l14.2-14c0,0,21.2-6.9,40.2-6.7s37.9,4.5,37.9,4.5l17.2,16.2l2,19.9l-113.3,4.3L341,248.2z"/>
<path class="st1" d="M456.3,299.9c-1.3,29,18.7,55.9,18.7,55.9s32.7,56.2,43.4,75.2c5,8.9,15.2,27.7,37.7,15.8l0,0
	c18.6-9.8,12.3-29.4,8.4-38.4c-8-18.3-28.1-53.6-32.8-72.9c-2.4-9.9-3-24.3-9.5-37.7c-4.3-9.1-11.5-16.5-20.3-21.4
	c-6.5-3.6-16.6-8.9-29-14.3l2.7,11.2C464.4,277.5,456.9,288,456.3,299.9L456.3,299.9z"/>
<g>
	<path class="st1" d="M563.7,420.3c-12-13.7-35.3-7.1-43.6-4.3c-8.3,2.8-23.1,11.7-30.4,16.1c-18.7,11.1-48.3,31.9-66.8,42.5
		c-12.1,7.1-18.8,10.6-15.3,17.9c3.2,6.7,17.5,3.4,22.9,2.3c22.8-5,67.6-14.5,90.5-22.9c9.3-3.4,27.4-11.9,34.8-17.7
		C576.5,438.4,567.1,424.3,563.7,420.3z"/>
</g>
<ellipse transform="matrix(0.5823 -0.813 0.813 0.5823 -143.6381 213.7119)" class="st2" cx="136.2" cy="246.6" rx="12.8" ry="12.6"/>
<path class="st1" d="M464,303.4c-0.6,40.1-3.4,46.3,2.7,47.5c-13.2,11.3,6.5,52.1-2.8,66.7c-2.6,4-11.9,10.6-16.5,9.5
	c-13.1-3-25.1-32.1-36.4-39.4c-6.6-4.3-24.7-3.8-31.6,0c-11.7,6.5-23.3,36.5-36.4,39.4c-4.6,1-14-5.4-16.5-9.5
	c-9.3-14.6-4.8-55.6-18-66.9c-11.1-9.5-37.8-4.1-38.6-44.2c-0.4-27.8,36.6-39,36.6-39l41.9-20.8c2.7-1.4,5.2-3,7.4-5
	c0.8-0.7,1.7-1.6,2.4-2.4l0.6-0.7v-0.1c4.1-4.9,6.8-10.9,7.5-17.1c0.2-1.5,0.3-2.9,0.2-4.4v-2.9v-4.8h56l0.1,5.2v1.6v3.3
	c0,0.3,0,0.7,0,1l0,0c0,0.6,0.1,1.4,0.2,2c0.2,1.6,0.5,3.2,0.9,4.8c2.3,8,7.9,14.6,15.4,18.4l42.3,21c1,0.5,2.2,1,3.3,1.4
	C492.5,270.3,464.4,279.1,464,303.4z"/>
<path class="st3" d="M424.6,227.3l-1,1.3c-5.4,6.6-30.1,36.6-43.7,46.3c-3.3,2.4-6,3.6-7.5,2.8c-7.1-3.4-15.5-36.7-15.5-36.7
	l0.1-0.1c0.6-0.6,1.3-1.3,1.8-2c0.3-0.4,0.7-0.8,1-1.4l0.1-0.1c3.4-4.7,5.7-10.1,7-15.9c0-0.2,0.1-0.4,0.1-0.6
	c0.3-1.5,0.5-3.1,0.7-5c0.1-0.7,0.1-1.5,0.2-2.3c0.1-1.5,0.2-3,0.3-4.7h55.1v0.2v4.5v7l0.1,0.8l0.1,0.7l0.9,4.8L424.6,227.3z"/>
<path class="st1" d="M211.8,424c16.2-9.4,10.1-33.4,7.5-42c-2.5-8.6-11.6-24.7-16-32.6c-11.3-20.3-47.4-73.6-52.9-95.6
	c-3.9-15.4-25.6-0.7-25.6-0.7s8.7,16.6,12,27.4c6.9,22.7,9.7,54.9,19.9,92.8c2.6,9.9,11.6,29,17.5,37.3
	C190.7,433.5,207.2,426.8,211.8,424z"/>
<path class="st1" d="M328.6,317c-8.9,27.5-37.1,45.8-37.1,45.8s-50.4,41.2-67,55.2c-7.8,6.6-23.8,20.6-40.9,1.6l0,0
	c-14-15.7-1.3-31.9,5.6-38.9c13.9-14.3,45.2-40.3,56.3-56.7c8.3-12.1,16.3-34.2,39.7-43.4c0,0,18.3-9.7,34,4.2l0.6,0.5
	C328.9,293.2,332.3,305.6,328.6,317z"/>
<path class="st1" d="M149.9,247.4c-0.6-5.1-0.3-10.2,0.9-15.2l4.1-15.8c0.1-0.3,0.1-0.6,0-0.9l-6.1-25.1c-0.3-1.5-2.2-2.1-3.3-1
	c-1.4,1.1-2.7,2.5-3.1,3.3c-2.6,5.2,0.5,15.2,0.8,20.9c0.1,0.7-2.5,2.7-3.2,2.9c-1.9,0.7-6.7-1.4-9.8-2.9c-2-0.9-3.6-2.7-4.3-4.8
	c-0.8-2.4-2-5.6-2.6-7.2c-0.2-0.6-0.1-1.4,0.3-2l15.8-13.8c1.3-1.7,1.7-3.7,1.8-5.1c0.1-1.6-0.7-3-2.1-3.7c-1.4-0.6-2.8-1.1-3.4-0.5
	l-24.5,20.9c-1.5,1.6-3,6-3,8.2v7.6c0,2.4,0.5,4.7,1.6,6.9l15.3,32.7v0.1h0.1l0.6,1.4l0,0c0.4-0.7,1.3-1.1,2-1l20.7,2.6
	c1.4,0.2,2.4-0.9,2.3-2.3L149.9,247.4z"/>
<path class="st4" d="M302.4,268.2c0,0-24.3,5-34.1,13.3c-9.8,8.3-31.4,49.8-34.5,52.2c-3.1,2.3,38,49,39,48.6
	c0.9-0.4,13-5.4,19.2-11.4c6.3-5.9,15.3-19.4,15.3-19.4l21.3,11.4L302.4,268.2z"/>
<path class="st4" d="M480.8,266.7c0,0,24.3,5,34.1,13.3c9.8,8.3,23.7,62.4,26.9,64.8c3.1,2.4-44.8,52.6-45.8,52.2s-3.3-4.4-9.6-10.2
	c-6.3-5.9-10.5-36.7-10.5-36.7l-21.4,11.3L480.8,266.7z"/>
<path class="st5" d="M300.5,267.1c-2.6,5.1,9.6,84.5,9.6,84.5l-14.4,196.7c0.1,2.7,2.1,5.1,4.8,5.6l44.8,8.9
	c33.4,6.3,67.8,5.6,101.1-1.6l40.4-10c3.7-0.8,6.2-4.1,6.1-7.7c-1.4-34.2-12.1-183.1-12.1-183.1l6.1-92.4l-36.1-19.7l-55.4,130.1
	L341,248.2L300.5,267.1z"/>
<g>
	<path class="st6" d="M389.1,390.4c1.1,46.1,1.1,92.7,0.8,138.8l-0.3,23.1c-0.5,7,2.3,10.3,8.9,12.4c1.8,0.6,3.7,1.3,5.4,1.9
		c-1.9-0.5-3.8-1-5.5-1.6c-3.7-1-7.7-2.9-9-6.9c-0.6-1.9-0.7-4-0.7-5.9l-0.3-23.1C388,483.1,388,436.5,389.1,390.4L389.1,390.4z"/>
</g>
<g>
	<circle class="st7" cx="398.6" cy="392.9" r="4.1"/>
	<circle class="st0" cx="398.6" cy="392.9" r="2.7"/>
</g>
<g>
	<circle class="st7" cx="398.6" cy="463.5" r="4.1"/>
	<circle class="st0" cx="398.6" cy="463.5" r="2.7"/>
</g>
<line class="st8" x1="402.2" y1="392.9" x2="404.6" y2="392.9"/>
<line class="st8" x1="401.6" y1="463.5" x2="404" y2="463.5"/>
<path class="st9" d="M358.7,238.9l27.8,6.8c2.6,0.6,4.9,2.3,6.3,4.7l3.1,5.5l3.6-6c1.3-2.1,3.1-3.7,5.4-4.4l24.6-8l13.7,13.8
	l-47.8,127.1L342,246.7L358.7,238.9z"/>
<path class="st6" d="M433.4,232l-44.3,158.4c0,0,37.4-45.8,65.3-114.9C455.1,274.7,433.4,232,433.4,232z"/>
<path class="st6" d="M355.3,234.2l40.8,139.5l-2.6,5.9c0,0-55.6-69.1-62.1-102.3C331.3,277.9,355.3,234.2,355.3,234.2z"/>
<path class="st10" d="M336.5,268.2l-7.9-14.2c0,0,17.8-15.6,26.7-19.8L336.5,268.2z"/>
<path class="st10" d="M450.8,266.7l8.5-13.9c0,0-17-16.3-25.8-20.9L450.8,266.7z"/>
<path class="st11" d="M372.2,263.9v-9c0-3.6,3-6.4,6.6-6.2c6.3,0.5,14.6,2.7,14.6,10.7c0,7.9-8.4,10.1-14.6,10.7
	C375.2,270.4,372.2,267.5,372.2,263.9z"/>
<path class="st11" d="M419.7,263.9v-9c0-3.6-3-6.4-6.6-6.2c-6.3,0.5-14.6,2.7-14.6,10.7c0,7.9,8.4,10.1,14.6,10.7
	C416.7,270.4,419.7,267.5,419.7,263.9z"/>
<path class="st4" d="M396.4,266.9h-1.1c-2.1,0-3.8-1.7-3.8-3.8v-5.2c0-2.1,1.7-3.8,3.8-3.8h1.1c2.1,0,3.8,1.7,3.8,3.8v5.2
	C400.2,265.2,398.5,266.9,396.4,266.9z"/>
<path class="st11" d="M272.8,383.3l-2.5,2.1c-0.8,0.6-2,0.5-2.7-0.2l-38-46.1c-0.6-0.8-0.5-2,0.2-2.7l2.5-2.1c0.8-0.6,2-0.5,2.7,0.2
	l38,46.1C273.7,381.4,273.6,382.7,272.8,383.3z"/>
<path class="st11" d="M543.3,346.3l2.4,2.2c0.7,0.7,0.8,1.9,0.1,2.7l-45.5,49.5c-0.7,0.7-1.9,0.8-2.7,0.1l-2.4-2.2
	c-0.7-0.7-0.8-1.9-0.1-2.7l45.5-49.5C541.3,345.6,542.5,345.6,543.3,346.3z"/>
<g id="GcAfxX_00000158726393485427391440000013673085389559127732_">
	<g>
		<path class="st12" d="M144,155.9c0.5,0.8,0.9,1.7,1.5,2.5c0.2,0.2,0.4,0.4,0.9,1c-0.2-0.9-0.3-1.1-0.4-1.4
			c-0.4-1.9-0.7-3.7-1.3-5.4c0.1,0,0.3,0,0.5-0.1c0.5,1.7,1.1,3.3,1.7,5.1c0.1,1.1,0.1,2.5,0.2,3.7c0.1,1.5,0.3,2.9,0.4,4.3
			c0.1,0.6,0.1,1.1,0.1,1.9c0,0.7,0.1,1.5,0.2,2.6c0.5-1.8,0.9-3.1,1.5-4.5c0.1,0.3,0.3,0.5,0.8,1.5c3.2-5.5,6-10.6,8.8-15.5
			c0.6-0.3,1.3-0.8,2.2-1.5c-0.3,1.9-0.5,3.3-0.7,4.6c-0.2,0.2-0.2,0.4-0.2,0.5c0,0.1,0.1,0.2,0,0.2c-1.1,1.6-2.3,3-3.6,4.5
			c0,0.1,0.2,0.2,0.2,0.2c-0.8,1-1.7,2.2-2.8,3.8c-0.3,0.9-0.7,2.4-1.4,3.9c-1.6,1.4-3.2,2.7-4.1,3.6c-1.3,5.6-2.2,10.6-3.3,15.5
			c-0.1,0,0.1,0.2,0.2,0.2c0,0,0.1,0,0.2-0.1c4.8-4,9.4-8,14.1-12c0.4-0.1,0.8-0.3,1.8-0.5c-1,2-1.8,3.3-2.6,4.7c-0.5,0-1.3,0-1.8,0
			c-0.3,0.7-0.4,1.3-0.4,1.1c-3.1,2.6-6.8,4-8.3,7.7c-9,3.3-8.9,16.1-20,18.9c7.3-6.1,12.3-12.3,15.3-20.1c-0.5-0.6-1-1.1-1.6-1.8
			c-0.2-0.2-0.4-0.4-0.5-0.6v-0.1c-2.5-7-5.9-13.5-10.1-19.5c0-0.8,0-1.7,0-3c1.3,0.9,2.2,1.9,3.1,2.6c0.1,0.1,0.2,0.2,0.3,0.3
			c0.1,0.1,0.3,0.2,0.5,0.4c2.7,5.5,5.3,11.2,8,16.7c0.2,1.3,0.4,2.5,0.8,5.3c0.8-4.7,1.5-7.8,2-11.1c0.2-1.7,0.4-3.2,0.6-4.9V171
			c0.1-0.1,0.1-0.1,0.1-0.3c-0.1-1.7-0.1-3.4-0.2-5c-0.2-2.1-0.5-4.1-0.7-6c-1.3-0.5-2.4-1-3.4-1.5c-0.3-0.1-0.4-0.2-0.6-0.3h-0.1
			c-3.2-5.4-8.9-8.2-13.8-11.9c-0.2-0.5-0.4-0.9-0.9-2c2.4,0.8,4.4,1.5,6.2,2.2C135.7,150.9,139.8,153.5,144,155.9z"/>
		<path class="st13" d="M151.7,152.3c2.2-0.4,2.4,1.7,2.8,3.1c1.7-1.3,3.1-2.5,4.6-3.8c-2.8,4.9-5.6,9.8-8.8,15.5
			c-0.5-0.9-0.6-1.3-0.8-1.5c0.4-1,0.7-2.2,1.1-3.4c-1.1-0.2-2.3-0.5-3.4-0.7c-0.1-1.1-0.1-2.5-0.2-3.7
			C147.8,155.2,149.2,152.9,151.7,152.3z"/>
		<path class="st12" d="M144.3,150.7c-0.1-0.2-0.2-0.5-0.3-0.8c-0.2,0.2-0.3,0.3-0.5,0.4c0-1.4,0-2.6,0-3.9c0.1,0.4,0.3,0.8,0.4,1.1
			c0.1,0.2,0.2,0.2,0.3,0.4s0.1,0.3-1.1-2.2c1.5,2.4,1.3,2.3,1.3,2.1c0,0,0-0.1-0.1-0.2c-0.1-0.9-0.1-1.9-0.2-2.8
			c0.9-5.5,1.9-11.1,2.9-16.5c0.4-0.7,0.8-1.5,1.5-2.4c3.2,8.7,1.1,16.2-3.1,23.3C144.9,149.8,144.6,150.4,144.3,150.7z"/>
		<path class="st13" d="M143,178.2c0,0.1,0,0.6,0.1,1.1c0.1,0.3,0.1,0.5,0.2,0.8c0.1,0.6,0.2,1.3,0.3,1.9c-2.7-5.5-5.3-11.2-8-16.7
			c1.1,1.1,2.3,2.4,3.6,3.6c1.6-1.9,3.1-1,4.8,0c1.1,0.8,2.3,1.6,3.3,2.4c-0.2,1.7-0.4,3.2-0.6,4.9
			C145.5,176.9,144.4,177.4,143,178.2z"/>
		<path class="st13" d="M141.8,152.5c0.7,1,1.6,2.3,2.3,3.4c-4.3-2.4-8.3-5.1-10.7-9.5c0.7,0.3,1.6,0.5,2.3,0.8
			c-0.2-7.4,3.7-3.6,6.5-2.5c0.2-0.1,0.3,0,0.5-0.1c0.1,0.6,0.4,1.4,0.6,1.9c0,1.4,0,2.6,0,3.9C142.9,151.1,142.3,151.8,141.8,152.5
			z"/>
		<path class="st12" d="M141.3,141.2c0.3,0.4,0.4,0.9,0.7,1.4c-0.2,0.1-0.2,0.2-0.4,0.3c-0.9-0.4-2-0.8-2.9-1.3
			c-0.2,0-0.4-0.2-0.5-0.2c-0.8-0.4-1.8-0.8-2.6-1.3c-2.4-5-6.9-7.8-11.3-10.9c-0.2-0.7-0.6-1.4-1.1-2.5c1.7,0.6,2.9,1,4.2,1.5
			c3.1,3.7,6.4,7,10.9,8.9c0.6,0.7,1.3,1.5,1.8,2.2S141,140.6,141.3,141.2z"/>
		<path class="st13" d="M131.9,164.9c4.3,6,7.6,12.5,10.1,19.5C136.6,179,132.1,173.1,131.9,164.9z"/>
		<path class="st12" d="M125.5,116.2L125.5,116.2c-0.1-0.3-0.2-0.5-0.3-0.8c0-0.6-0.1-1.1-0.2-2.1c0.7,0.4,1.1,0.7,1.6,0.9
			c3.3,4.9,6.9,9.8,10.2,14.7c0.4,1.5,0.7,2.9,1.3,5.2c-1.3-1.3-2-1.8-2.7-2.5C132.8,126.1,129.8,120.7,125.5,116.2z"/>
		<path class="st13" d="M128.3,146.1c4.7,3.9,10.5,6.5,13.8,11.9C136.1,155.7,131,152.3,128.3,146.1z"/>
		<path class="st13" d="M125.4,116.1c4.4,4.5,7.3,9.9,9.9,15.6C130.5,127.6,126.3,122.9,125.4,116.1z"/>
		<path class="st13" d="M160.2,174.9c-4.8,4-9.4,8-14.1,12C149.2,181.2,153.4,176.5,160.2,174.9z"/>
		<path class="st13" d="M124.4,129.2c4.3,2.9,8.9,5.9,11.3,10.9C130.6,137.8,126.7,134.4,124.4,129.2z"/>
		<path class="st13" d="M136.9,129.1c-3.3-4.9-6.9-9.8-10.2-14.7C132.3,117.7,135.3,122.8,136.9,129.1z"/>
		<path class="st13" d="M146.9,128.5C146,134,145,139.6,144,145C143.3,139.2,143.6,133.6,146.9,128.5z"/>
		<path class="st13" d="M148.8,187.9c1.4-3.8,5-5.1,8.3-7.7c-0.1,0.1,0.2-0.4,0.4-1.1c0.5,0,1.3,0,1.8,0
			C157,183.2,153.3,186.1,148.8,187.9z"/>
		<path class="st13" d="M152.9,167.9c0.5-1.6,1-2.9,1.4-3.9c1.3-1.6,2-2.6,2.8-3.8c0-0.1-0.2-0.2-0.2-0.2c1.1-1.6,2.3-3,3.6-4.5
			C159.5,160.5,156.8,164.4,152.9,167.9z"/>
		<path class="st13" d="M138.3,137.1c-4.4-2.1-7.7-5.2-10.9-8.9C132.1,129.8,135.5,133,138.3,137.1z"/>
		<path class="st13" d="M139.4,137.3c0.1,0,0.3-0.1,0.4-0.1c0.5,1.4,1.1,2.7,1.6,4.1c-0.5-0.7-0.9-1.4-1.4-2
			C139.8,138.7,139.5,138,139.4,137.3z"/>
		<path class="st13" d="M145.4,152.6c-0.1,0-0.3,0-0.5,0.1c-0.2-0.6-0.4-1.4-0.6-1.9c0.3-0.4,0.6-1,0.9-1.5
			C145.3,150.5,145.4,151.6,145.4,152.6z"/>
		<path class="st13" d="M147.1,166c0.1,1.7,0.1,3.4,0.2,5C147.2,169.3,147.1,167.7,147.1,166z"/>
		<path class="st12" d="M141.6,142.9c0.2-0.1,0.2-0.2,0.4-0.3c0.2,0.7,0.5,1.4,0.7,2.1c-0.2,0.1-0.3,0-0.5,0.1
			C142,144.2,141.8,143.5,141.6,142.9z"/>
		<path class="st13" d="M139.3,136.6C138.5,135.4,138.3,135.3,139.3,136.6C138.6,135,138.7,135.4,139.3,136.6z"/>
		<path class="st13" d="M142.2,158.1c0.3,0.1,0.4,0.2,0.6,0.3C142.6,158.4,142.4,158.4,142.2,158.1z"/>
		<path class="st13" d="M125.2,115.4c0.1,0.3,0.2,0.5,0.3,0.8C125.4,115.9,125.3,115.7,125.2,115.4z"/>
		<path class="st13" d="M142,184.6c0.2,0.2,0.4,0.4,0.5,0.6C142.4,185,142.2,184.7,142,184.6z"/>
		<path class="st13" d="M160.5,155.3c0.2-0.2,0.2-0.4,0.2-0.5C160.7,155,160.7,155.1,160.5,155.3z"/>
		<path class="st13" d="M135.2,164.8c-0.1-0.1-0.2-0.2-0.3-0.3C135,164.6,135.2,164.8,135.2,164.8z"/>
		<path class="st13" d="M144.2,147.9c0,0.1,0,0.1,0.1,0.2l-0.2,0.2c-0.1-0.2-0.2-0.2-0.3-0.4C144,147.8,144.1,147.8,144.2,147.9z"/>
		<path class="st13" d="M138.2,141.4c0.2,0,0.4,0.2,0.5,0.2C138.6,141.6,138.4,141.4,138.2,141.4z"/>
		<path class="st13" d="M137.9,134c0.1,0.2,0.1,0.3,0.1,0.3h-0.1C137.9,134.2,138,134.1,137.9,134L137.9,134z"/>
		<path class="st13" d="M147.8,165.8c0.1,0.6,0.1,1.1,0.1,1.9C148,167.1,148,166.4,147.8,165.8z"/>
		<path class="st13" d="M146.5,159.6c-0.6-0.6-0.8-0.9-0.9-1c0.2-0.1,0.3-0.2,0.5-0.3C146.2,158.5,146.3,158.7,146.5,159.6z"/>
		<path class="st13" d="M144.2,148.2c0,0.1,0.2,0.2-1.3-2.1C144.2,148.5,144.2,148.4,144.2,148.2C144.1,148.2,144.3,148,144.2,148.2
			z"/>
		<path class="st12" d="M143.2,179.4c0.1,0.3,0.1,0.5,0.2,0.8C143.3,179.9,143.3,179.7,143.2,179.4z"/>
	</g>
</g>
</svg>
