<?xml version="1.0" encoding="utf-8"?>
<!-- Generator: Adobe Illustrator 26.0.3, SVG Export Plug-In . SVG Version: 6.00 Build 0)  -->
<svg version="1.1" id="Layer_1" xmlns="http://www.w3.org/2000/svg" xmlns:xlink="http://www.w3.org/1999/xlink" x="0px" y="0px"
	 viewBox="0 0 788 1005" style="enable-background:new 0 0 788 1005;" xml:space="preserve">
<style type="text/css">
	.st0{fill:#D48F72;}
	.st1{fill:none;stroke:#383434;stroke-width:5;stroke-linecap:round;stroke-miterlimit:10;}
	.st2{fill:#383434;}
	.st3{fill:#37344D;}
	.st4{fill:none;stroke:#000000;stroke-width:3;stroke-miterlimit:10;}
	.st5{fill:#D79072;}
	.st6{fill:none;}
	.st7{fill:#46455B;}
	.st8{fill:#7EA885;}
</style>
<path class="st0" d="M170,250.1c0.8-0.5-0.7-4.2-0.4-5c1.7-3.9,7.3-15.9,7.4-18.4c-0.1-3-1.8-15.7-1.4-18c0.4-2.4,6.1-15.1,4.6-15.5
	c-0.9-0.3-3.2-0.6-5.1-1.1c-1.8-0.3-3.6,0.5-4.4,2.1l-4.1,6.7c-0.3,0.6-0.6,1.3-0.6,1.8l-0.5,5.5c-0.3,2.4-3.4,3.1-4.6,1l-7.5-12.8
	c-0.1-0.2-0.3-0.4-0.2-0.7c-1.2-3.2-9.2,1.6-9.2,1.6c-0.1-0.1-5.4,3.6-7.3,5c-0.5,0.4-0.9,0.8-1.3,1l-4,3.5c-3.5,2.9-6,6.8-6.9,11.2
	c-0.4,2-0.5,3.8,0.5,4.6c0.2,0.2,0.5,0.5,0.6,0.8l18.1,28.5c0.5,0.9,1.4,1.4,2.2,1.8l4.9,1.7c1.2,0.4,2.5,0.2,3.6-0.4L170,250.1z"/>
<g>
	<line class="st1" x1="101.7" y1="220.7" x2="640.6" y2="255.9"/>
	<path class="st2" d="M634.3,305.9l18.1-6.9c3-1.2,4.9-4.1,4.9-7.2c-0.3-10.9-1.1-34.7-4.4-36.8c-2.9-1.9-12.4-2.2-17.2-2.3
		c-1.8,0-1.4,2.8-1.4,2.8s11-0.8,9.7,3l-17.2,39.1C624.5,302.7,629.3,307.8,634.3,305.9z"/>
</g>
<path class="st0" d="M123.9,219.7c0,0,17,22.3,20.4,22c3.4-0.2,20.1-11.8,20-18c-0.2-6.2-11-27.5-11-27.5l0,0
	c-3.8-5.2-18.3,8.1-19.3,9.7L123.9,219.7z"/>
<path class="st0" d="M227.8,389.9c14.7-10.1,7.5-32.6,4.4-40.6c-3.1-8-12.7-22.8-17.4-30.2c-12.1-18.6-49.7-74.3-56.5-95
	c-4.7-14.4-24.8,8.2-24.8,8.2s9.4,15.3,13.3,25.3c8.1,21.1,12.8,51.7,25,87.3c3.2,9.4,12.9,26.9,19.1,34.4
	C208.3,400.3,223.5,392.8,227.8,389.9z"/>
<path class="st3" d="M177.9,257.4l5.8,15.6l-36.5,9.8l-2.1-21.6c-0.2-1.4,0.9-2.6,2.3-2.8l27.8-2.6
	C176.4,255.7,177.5,256.4,177.9,257.4z"/>
<path class="st0" d="M163.5,238.3l-6.5-16.3l-12,7.1l-14.2,0.3l6.2,7.1c0.6,1,1.2,2.2,1.7,3.3l7.7,15.5L163.5,238.3z"/>
<path class="st0" d="M369.1,216.3c0.1,11.2-6.7,21.4-17.5,26.4l-40.1,18.4c0,0-35.4,10-35,34.6c0.6,35.5,26.2,30.7,36.9,39.2
	c12.6,10,8.3,46.3,17.2,59.3c2.5,3.6,11.4,9.4,15.8,8.4c12.5-2.7,23.5-29.2,34.8-34.9c6.6-3.4,23.9-3.8,30.2,0
	c10.8,6.5,22.3,32.3,34.8,34.9c4.4,1,13.4-4.9,15.8-8.4c8.9-12.9,4.6-49.3,17.2-59.3c10.6-8.4,36.2-3.6,36.9-39.2
	c0.4-21.6-26.9-31.9-33.5-34.1c-1.1-0.3-2.1-0.8-3.2-1.2l-40.5-18.6c-9.6-4.4-15.7-13.4-15.8-23.3"/>
<polyline class="st0" points="423.5,254.2 396,284.3 368.8,254.2 "/>
<path class="st4" d="M458,302c11.9,23.1,40.9,35.9,40.9,35.9s53,30.3,70.4,40.7c8.2,4.9,25.2,15.4,39-3.3l0,0
	c11.3-15.4-2.8-28.1-10.2-33.5c-15-11-47.9-30.2-60.5-43.3c-9.4-9.7-19.8-28.1-43.1-33.5c0,0-18.6-6.4-31.8,7.6l-0.5,0.6
	C454.8,280.9,453.1,292.5,458,302z"/>
<path class="st5" d="M594.2,343.8c-18.5-6.6-32.7,10.9-37.4,17.6s-10.7,22.2-13.6,29.8c-7.5,19.5-17.5,53.1-25.2,72.1
	c-5,12.5-8.1,18.9-0.3,24c7,4.6,16.1-5.3,19.7-9.2c14.8-15.9,44.3-46.7,56.8-65.7c5.1-7.8,14-24.4,16.1-33.4
	C616.3,354.1,599.7,345.8,594.2,343.8z"/>
<path class="st4" d="M465.7,446.2c-0.9-3.7-5.7-23.4-5.6-31.3c0.1-8.5,4-25.7,1.8-34c-9.8-36.7-123.5-36.7-133.3,0
	c-2.2,8.3,1.7,25.5,1.8,34c0.1,7.9-4.7,27.6-5.6,31.3c-11,46.6,70.4,68,70.4,68S476.8,492.9,465.7,446.2z"/>
<path class="st6" d="M434.3,432.5c16.2,4.8,23.2,8.9,27,15.3c3.1,5.2,6,17.1,6.3,23.1c0.5,14-7.8,49-21.9,60.7
	c-14.4,11.9-84.8,11.9-99.2,0c-14.2-11.7-22.5-46.8-21.9-60.7c0.2-5.9,3.2-17.9,6.3-23.1c3.8-6.4,10.9-10.5,27-15.3
	c18.5-5.5,37.3-4.7,37.3-4.7S415.8,427,434.3,432.5z"/>
<path class="st4" d="M335.4,302.2c-8.5,24.4-35.5,40.5-35.5,40.5s-48.2,36.5-64.1,48.9c-7.5,5.8-22.8,18.3-39.1,1.4l0,0
	c-13.4-13.9-1.2-28.2,5.4-34.5c13.3-12.7,43.2-35.8,53.9-50.2c7.9-10.8,15.6-30.2,38-38.5c0,0,17.6-8.6,32.6,3.7l0.6,0.5
	C335.6,281.2,338.8,292.2,335.4,302.2L335.4,302.2z"/>
<polygon class="st0" points="511.1,472.4 507,478.6 510.3,490.1 514.3,501.3 519.9,495.8 530,489.2 "/>
<path class="st3" d="M508.4,473.8l9.3-12l20.5,20.3l-9.8,10.2c-0.8,0.8-2.2,0.9-3,0.1l-16.7-15.8
	C507.9,475.9,507.8,474.6,508.4,473.8z"/>
<path class="st7" d="M419.8,213.7c1.6,0,3.1,1.1,3.4,2.8c1.2,5.6,4.5,18.3,11.1,22c7,4,39.2,19.4,61.2,24.8
	c34.9,8.5,70.8,59.1,109.8,81.1c7.3,4.1,8.9,19.1,8.5,24.7c-0.8,10.3-10.2,28.3-15.7,38.7c-10.1,18.8-46.3,62.6-50.7,67.9
	c-0.3,0.4-0.6,0.7-0.8,1.1l-2.1,3.1c-2.8,3.8-8.1,4.5-11.8,1.8c-0.1-0.1-0.3-0.2-0.4-0.3L519,469.9c-3.7-3-4.7-8.3-2.3-12.4
	l6.9-12.3c0.5-0.8,0.8-1.6,1.2-2.5l21.3-59.4c2.7-7.6-0.5-16-7.5-19.8L486,334.8c-1.4-0.8-3.2,0.1-3.4,1.7l-9.3,55.7
	c-0.3,1.8-0.3,3.5,0,5.3l16.2,99.9c0.7,4.1-0.3,8.3-2.6,11.8l-4.8,7.1c-3,4.4-8,7.1-13.4,7.1l-150.1,0.3c-6.2,0-11.9-3.5-14.6-9l0,0
	c-1.4-2.9-2-6.1-1.6-9.3l14-111c0.2-1.4,0.2-2.8,0-4.2l-6.1-46.2c-0.2-1.8-2.3-2.6-3.7-1.5c-11.6,8.9-51.2,39.4-65,49.9
	c-6.6,5-25.8,15-34.2,13.4c-8-1.5-19-13.4-21.2-20.1c-3.4-10.1-45.6-93-40.8-108.1c1.2-3.2,39.8-10.7,39.8-10.7
	c2.1,0.3,41,67.3,41,67.3c0.1,2.2,15.8-14.3,17.1-16.1c8.7-11.9,29.4-39.4,39.8-44.8c31.5-16.3,70.7-30.9,76.2-34.9
	c5.7-4.2,8.5-15.9,9.5-21.4c0.3-1.7,1.7-2.8,3.4-2.8L419.8,213.7z"/>
<path class="st0" d="M515.9,485.4c2,3,8.1,6.8,2,12.2c0,0-17.6,18.7-25.4,22.5c-3.5,1.7-12.8,5.8-15.4,3.1
	c-7.3-7.8-12.1-26.5-9.7-38.6c0.7-3.6,9.4-7.5,13.3-8.2c4.3-0.8,13,2.4,17.3,2.6c1.6,0,4.4-0.1,7.2-0.4
	C511.1,478.1,513.1,481.4,515.9,485.4z"/>
<path class="st8" d="M283.1,360.1L245.7,314c0,0,22-29.4,23.8-29.4c1.1,0,32.4,61.2,32.4,61.2L283.1,360.1z"/>
</svg>
