<?xml version="1.0" encoding="utf-8"?>
<!-- Generator: Adobe Illustrator 26.0.3, SVG Export Plug-In . SVG Version: 6.00 Build 0)  -->
<svg version="1.1" id="Calque_1" xmlns="http://www.w3.org/2000/svg" xmlns:xlink="http://www.w3.org/1999/xlink" x="0px" y="0px"
	 viewBox="0 0 788 455" style="enable-background:new 0 0 788 455;" xml:space="preserve">
<style type="text/css">
	.st0{fill:#D48F72;}
	.st1{fill:#BF7F75;}
	.st2{fill:none;stroke:#000000;stroke-width:3;stroke-miterlimit:10;}
	.st3{fill:#473415;}
	.st4{fill:#472E1D;}
	.st5{fill:#4C443F;}
	.st6{fill:#5A5A5A;}
	.st7{fill:#3D3D3D;}
	.st8{fill:#C5A574;}
	.st9{fill:#161615;}
</style>
<path class="st0" d="M529.2,159.7c-0.6,39.2-26.7,33.9-37.6,43.1c-12.9,11-8.4,51-17.6,65.3c-2.6,3.8-11.6,10.3-16.1,9.2
	c-12.8-2.9-24.4-31.3-35.4-38.4c-6.4-4.2-24.1-3.6-30.8,0c-11.4,6.3-22.8,35.5-35.4,38.4c-4.5,1-13.6-5.3-16.1-9.2
	c-9-14.2-4.7-54.2-17.6-65.3c-10.8-9.2-36.9-3.9-37.6-43.1c-0.4-27.1,35.6-38,35.6-38l40.8-20.3c2.7-1.3,5.1-2.9,7.3-4.9
	c0.8-0.7,1.7-1.6,2.4-2.4l0.6-0.7v-0.1c3.9-4.8,6.6-10.6,7.4-16.7c0.2-1.5,0.3-2.8,0.2-4.3v-2.8v-4.6h54.7L434,70v1.6v3.2
	c0,0.3,0,0.7,0,1l0,0c0,0.6,0.1,1.3,0.2,2.1c0.2,1.6,0.5,3.1,0.9,4.7c2.3,7.9,7.8,14.2,15,18l41.4,20.5c1,0.5,2.2,1,3.2,1.3
	C501.8,124.6,529.5,136,529.2,159.7z"/>
<path class="st1" d="M435.5,82.8l-1,1.2c-5.3,6.4-29.4,35.6-42.6,45.2c-3.2,2.4-5.8,3.4-7.4,2.7c-7-3.3-15.1-35.7-15.1-35.7l0.1-0.1
	c0.6-0.6,1.2-1.2,1.8-2c0.3-0.4,0.7-0.8,1-1.3l0.1-0.1c3.3-4.6,5.6-9.9,6.9-15.5c0-0.2,0.1-0.4,0.1-0.6c0.3-1.5,0.5-3,0.7-4.9
	c0.1-0.7,0.1-1.5,0.2-2.3c0.1-1.5,0.2-2.9,0.3-4.6h53.8V65v4.4v6.9l0.1,0.8l0.1,0.7l0.9,4.7L435.5,82.8z"/>
<path class="st2" d="M470.2,166.6c12.2,25.5,41.7,39.6,41.7,39.6s54,33.5,71.8,44.9c8.3,5.4,25.7,16.9,39.8-3.6l0,0
	c11.5-16.9-2.8-31-10.4-36.9c-15.3-12.1-48.8-33.2-61.7-47.6c-9.6-10.7-20.2-30.9-44-36.9c0,0-18.9-7.1-32.4,8.4l-0.5,0.6
	C467,143.7,465.2,156.1,470.2,166.6L470.2,166.6z"/>
<path class="st0" d="M609.1,212.7c-18.9-7.4-33.4,12.1-38.1,19.3c-4.8,7.4-10.9,24.3-13.8,32.7c-7.7,21.4-17.9,58.4-25.7,79.3
	c-5.1,13.7-8.2,20.8-0.3,26.4c7.2,5.1,16.4-5.9,20.1-10.1c15.1-17.6,45.2-51.3,57.9-72.3c5.3-8.5,14.2-26.9,16.4-36.7
	C631.7,223.9,614.6,214.7,609.1,212.7z"/>
<path class="st0" d="M230.6,277c17-6.5,15.1-30.5,13.9-39.2c-1.1-8.6-7.2-25.6-10.2-34.1c-7.7-21.3-31.8-85.4-33.7-107.5
	c-1.2-15.4-26.5,2.3-26.5,2.3s5.7,17.5,7.3,28.3c3,22.9,0.5,54.3,4.3,92.5c1,10.1,6.5,29.6,10.9,38.7
	C208.8,282.6,225.7,278.8,230.6,277z"/>
<path class="st2" d="M345.2,166.9c-8.6,26.8-36.2,44.7-36.2,44.7s-49.1,40.2-65.4,53.8c-7.7,6.4-23.3,20.1-39.9,1.6l0,0
	c-13.6-15.3-1.2-31.1,5.5-37.9c13.5-13.9,44.1-39.4,55-55.3c8.1-11.8,15.9-33.4,38.8-42.3c0,0,17.9-9.5,33.2,4.1l0.6,0.5
	C345.5,143.7,348.8,155.8,345.2,166.9z"/>
<polygon class="st0" points="536.6,329.4 520.2,361 523.6,373.8 527.7,386 533.3,379.8 554.2,357.1 "/>
<polygon class="st3" points="327,375.5 328.5,352.6 486.5,352.6 488.6,372.5 "/>
<circle class="st4" cx="477.1" cy="345.7" r="4.8"/>
<path class="st0" d="M534.3,366.8c2.1,3.2,3.1,9.1-3,15.1c0,0-18,20.6-25.9,24.7c-3.5,1.9-13.1,6.4-15.7,3.3
	c-7.5-8.5-12.4-29.2-9.9-42.5c0.7-3.9,9.6-8.1,13.5-8.9c4.4-0.8,13.3,2.7,17.7,2.8c2.5,0,4.9-0.1,7.4-0.4
	C524.4,360.5,531.5,362.4,534.3,366.8z"/>
<path class="st5" d="M211,174.3c1-1.9,2.3-3.5,3.1-5.5c0.7-1.5,0.6-2.9-0.4-4.4c-0.9-1.3-2.1-1.6-3.2-0.6c-1.9,1.3-3.6,2.7-5.5,3.9
	c-1.7,1.1-3.4,2.1-5.5,2.3c-5.5,0.4-9.6-4.2-9-10c0.3-3.6,2.8-6.6,6.9-7.7c2.2-0.6,4.3-0.7,6.4-1.2c1.2-0.3,2.4-0.7,3.4-1.3
	c0.9-0.5,1.7-1.6,1.1-2.7c-0.4-1-1.7-1.2-2.6-1c-1.7,0.5-3.1,1.1-4.7,1.9c-1.9,0.8-3.5,2-5.4,2.7c-4.2,1.8-9.2-0.6-10.7-4.8
	c-1.1-3.2,0.7-7.4,4.2-8.7c2.7-1.1,5.3-1.3,8.1-0.6c1.1,0.3,2.3,1.1,3.1,1.9c0.7,0.5,0.9,1.3-0.1,1.9c-1.1,0.6-2.4,1.3-3.5,1.6
	c-0.8,0.2-1.9-0.3-2.6-0.7c-1.2-0.7-2.5-1.9-3.9-0.8c-1.5,0.8-2.6,2-2.5,3.7c0.1,1.9,1,3.3,2.7,4.1c0.6,0.3,1.6,0.2,2.3-0.1
	c3.1-1.6,6.2-3.2,9.2-4.9c0.9-0.5,2-1,2.8-1.5c3.4-1.2,7.4,0.9,8.5,4.6c1.1,3.4-0.8,7.2-4.5,8c-1.1,0.3-2.4,0.1-3.5,0
	c-3.1-0.3-6.2,0.1-8.9,2c-1.7,1.2-2.6,2.7-2.7,4.8c-0.4,4.1,4.6,6.9,7.7,4.9c2-1.2,3.6-2.9,5.6-4.3c1.2-0.9,2.6-1.9,3.9-2.3
	c3.3-1,6.2,1.1,6.1,4.7C216.6,168.6,214.2,171.7,211,174.3z M195.6,140.4c0.1-0.1,0.1-0.2,0.2-0.3c-0.3-0.2-0.7-0.5-1-0.7
	c-0.1,0.1-0.2,0.2-0.2,0.4C194.9,140,195.3,140.2,195.6,140.4z"/>
<path class="st0" d="M194.4,93.8c0.9-0.4,5.5,1.6,6.1,0.8c-1.9-3.7,7.5-18.6,8.1-21.2c0.6-3.2,1.2-17.7,2.2-20.2
	c0.9-2.6,9.8-15.5,8.2-16.2c-0.9-0.4-3.4-1.3-5.5-2.3c-2-0.7-4.1-0.1-5.4,1.6l-5.8,6.6c-0.4,0.6-0.8,1.3-1.1,2l-1.7,6
	c-0.8,2.7-4.4,2.7-5.3,0.3l-0.2-4.3c-0.1-0.2-5.2-8.2-5.2-8.4c-2.4-3.4-10.5-0.1-10.5-0.1c-0.1-0.1-6.8,2.8-8.9,4.1
	c-0.6,0.3-1.1,0.6-1.7,1l-5.1,2.9c-4.5,2.6-8,6.3-9.9,10.9c-0.9,2.2-1.2,4.1-0.3,5.3c0.2,0.3,0.4,0.6,0.5,1l13.6,31.2
	c0.4,1,1.3,1.9,2.1,2.5l5.1,2.9c1.3,0.6,2.7,0.8,4.1,0.3L194.4,93.8z"/>
<path class="st6" d="M203.4,40.9c-1.9-1.9-3.6-3.6-5.6-5.5c-0.4-0.4-1-0.4-1.5-0.1c-0.1,0.1-0.2,0.2-0.3,0.3
	c-0.5,0.4-1.1,0.3-1.6-0.2c-0.5-0.7-1.1-1.3-1.7-2.1c-0.4-0.4-0.3-1.1,0.1-1.5c0.4-0.4,0.8-0.8,1.3-1.2c0.4-0.4,0.4-1,0.1-1.5
	c-1.2-1.6-2.9-2.8-0.9-4.8c2.1-1.9,3.2,0,4.7,1.3c0.4,0.4,1,0.4,1.5,0l1.8-1.6c0.4-0.4,1.1-0.3,1.6,0.2c0.5,0.6,1,1.3,1.6,2.1
	c0.3,0.4,0.3,1,0,1.3c-0.3,0.3-0.6,0.8-1.1,1.3c-0.3,0.4-0.3,1,0,1.5c1.7,1.8,3,3.9,5,4.8c2,0.7,3.4,1.3,4.7,2.8
	c0.1,0.1,0.1,0.1,0.2,0.3c0,1.1-3,2.1-0.1,3.4c0.5-0.5,1.1-1.2,1.8-1.9c0.3-0.3,0.4-0.7,0.2-1.1c-1.2-3.3-0.9-4.3,2.3-7.3
	c4.2-3.8,8.5-7.8,12.8-11.7c2.7-2.5,3.9-2.7,7-1.1c0.4,0.2,0.9,0.1,1.2-0.2c0.4-0.4,0.9-0.9,1.7-1.6c0.4-0.4,0.4-1.1,0-1.7
	c-1.7-1.6-3.2-2.9-4.7-4.4c-1.5-1.5-3.4-2.9-1.2-5c2.2-2,3.4,0.3,4.7,1.7c0.3,0.3,0.6,0.6,0.9,1c1,0.9,2,1,2.9-0.3
	c4.2-5.3,9.1-5,12.9,0.4c0.4,0.6,1.5,1.1,2.2,1.2c0.7,0.1,1.6,0.2,2.4,0.2c0.6,0,1,0.5,1,1.1c0,0.9,0,1.8-0.1,2.6c0,0.5-0.5,1-1,1
	c-0.6,0-1.2,0-1.9,0c-1.5-0.1-2.5,0.2-3.5,1.6c-0.9,1-2.2,1.9-3.2,2.6c-0.5,0.4-0.6,1.1-0.2,1.7c3.5,3.8,7.4,8,11.2,12.3
	c0.3,0.4,0.9,0.5,1.5,0.2c2.1-1.3,3.4,0.5,5,2.2c1.3,1.5,1.8,2.8,0.5,4.3c-0.3,0.4-0.4,0.9-0.1,1.3c0.1,0.2,0.2,0.3,0.3,0.5
	c0.3,0.4,0.2,1-0.2,1.3c-1.3,1.2-2.4,2.9-4.7,2c-0.5-0.2-1.7,0.6-2.4,1.2c-7.5,6.8-14.8,13.5-22.1,20.4c-0.8,0.8-0.8,2.5-1.5,3.4
	c-0.5,1-1.2,2-1.9,2.7c-0.4,0.5-1.2,0.6-1.7,0.1c-8.8-9.7-17.6-19.2-26.2-28.8c-0.3-0.3-0.7-0.4-1.1-0.3l0,0
	c-0.4,0.1-0.7,0.5-0.7,0.9c0,0.6-0.1,1.2,0.1,1.6c2.4,3.4,2.3,5.3-0.8,8.1c-6.9,6.3-13.6,12.7-20.5,18.9c-3.2,3.1-5.6,3.1-8.4,0
	c-1.7-1.8-3.2-3.4-4.7-5.1c-2.8-3.1-2.8-5.6,0.2-8.3c6.9-6.4,13.7-12.8,20.7-19c2.8-2.7,5.1-2.7,8,0c0.3,0.4,0.8,0.7,1.1,0.9
	C203.2,41.2,203.3,41,203.4,40.9z M241.4,22.3c-0.4,0.3-0.6,0.8-0.4,1.3c1.3,2.9,0.9,4.4-1.7,6.8c-4.2,3.8-8.3,7.6-12.5,11.6
	c-2.4,2.3-4.7,3.6-7.5,1.9c-0.3-0.2-0.8-0.2-1.1,0c-0.4,0.3-0.8,0.5-1.1,0.7c-0.5,0.4-0.6,1.1-0.2,1.7c2.6,2.7,4.8,5.2,7.1,7.6
	c0.4,0.4,0.9,0.5,1.5,0.2c0.4-0.3,0.8-0.5,1.2-0.8c0.4-0.3,0.5-0.8,0.3-1.3c-1.3-2.8-0.9-4.3,1.3-6.4c4.5-4.1,8.8-8.1,13.4-12.3
	c2.8-2.6,4.1-2.8,7.1-1.3c0.4,0.2,0.9,0.1,1.2-0.1l0.6-0.6c0.5-0.4,0.5-1.1,0.1-1.7c-2.5-2.7-4.8-5.2-7-7.7c-0.4-0.4-1-0.5-1.5-0.1
	C242,21.9,241.7,22.1,241.4,22.3z M254.7,34.4c-0.4,0.3-0.9,0.6-1.3,0.8c-0.4,0.3-0.6,0.8-0.4,1.3c1.3,2.9,0.9,4.3-1.6,6.5
	c-4.2,3.8-8.3,7.6-12.5,11.6c-2.4,2.3-4.7,3.8-7.7,2c-0.4-0.3-1-0.2-1.3,0.1s-0.6,0.6-0.8,0.8c-0.4,0.4-0.4,1.1,0,1.6
	c1.1,1.2,2.3,2.5,3.2,3.5c0.4,0.4,1.1,0.4,1.6,0.1c8.3-7.8,16.7-15.5,25.1-23.3c0.4-0.4,0.5-1.1,0-1.6c-1-1-2.1-2.2-3-3.2
	C255.7,34,255.1,34,254.7,34.4z M247.6,14.6c0.4,0.6,1.2,0.6,1.7,0.2c0.9-0.9,1.8-1.7,1.8-2.3c0.1-0.8-1.3-2.5-2.1-2.5
	c-0.8-0.1-2.4,1.2-2.5,2.1C246.4,12.7,246.9,13.5,247.6,14.6z"/>
<path class="st6" d="M160.3,79.8c3.2-3,6.5-6.1,9.7-9c0.4-0.3,0.9-0.3,1.2,0.1c1,1.1,2.1,2.3,3,3.2c0.3,0.4,0.3,0.9,0,1.2
	c-3.1,2.9-6.5,5.9-9.9,9c-0.4,0.3-0.9,0.3-1.3-0.1c-0.8-1-1.8-2.2-2.7-3.1C159.9,80.7,159.9,80.2,160.3,79.8z"/>
<path class="st7" d="M153,91.1c2-2.7,4.1-5.4,6.1-8.1c0.3-0.4,0.8-0.4,1.2-0.1s0.8,0.7,1.2,1c0.4,0.3,0.4,0.9,0,1.2
	c-2.7,2.4-5.2,4.5-7.9,6.8C153.4,91.5,153.2,91.3,153,91.1z"/>
<path class="st0" d="M192.4,59.9l-18.2,9.6c-5,2.7-11.2,0.7-13.8-4.3l0,0c-2.7-5-0.7-11.2,4.3-13.8l24.2-13.3l6.9,11.3
	C197.6,53.1,196,57.8,192.4,59.9z"/>
<path class="st5" d="M554.3,336.1c1.8,3.7-1.7,5.6-3.1,8.2c-0.7,1.8-2,3-3,4.7c-1,1.2-0.5,2.4,0.5,3.1c0.2,0.2,0.6,0.3,0.8,0.5
	c0.3,0.9,0.9,1.7,0.9,2.8c0.2,0.2-1.2,0.9-1.2,0.9c-0.8-0.5-1.1-1.6-2.1-2.7c-1.3-0.2-2.1,0.4-2.2,2.4c-0.1,0.9-0.2,1.8-0.5,2.4
	c-3.8,5.3-8.1,10.1-13.5,13.7c-0.7,0.6-1.5,0.7-2.7,1.2c0.3-2.2,0-3.5,0.7-5.3c2.1-5.1,4.5-10.1,6.8-15.4c0.3-0.6,1.3-1.5,2.3-1.8
	c1.7-0.9,1.9-1.8,1.3-2.9c-1.6-0.4-2.4-0.5-3.2-0.7c0,0-0.3-1.3,0-1.6c0.9-0.3,1.7-0.4,2.6-0.8c0,0,0.2,0.2,0.4,0.1
	c-0.7,0.1-1.2,0.5-1.9,0.6c1.2,0.6,2.4,1,3.7,1.5c-0.6-0.7-1.1-1.6-2-2.1c3.3,1.3,3.1,1.1,5.2-2c0.8-1.5,2-3,3-4.3
	c0.4,0.5,0.7,1,1.1,2c0.8-1,1.1-1.7,1.9-2.3c-0.2-0.2-0.2-0.2-0.4-0.5c-0.9,0.3-1.9,0.6-2.8,0.9c0.8-1,1.5-2.3,2.5-3.4
	c0.4,0.5,0.7,1,0.9,1.7c0.2-0.2,0.5-0.8,0.8-1c-0.6-0.3-1.2-0.6-2-0.5c0.8-1,1.7-2.1,2-3c0.5-2,2.5-2,3.8-2.6
	c0.2-0.2,1.5,0.8,1.9,1.3c0.6,0.7,0.6,1.9,0.9,2.8C556.6,335,556.9,338.4,554.3,336.1c0.3-0.6,0.7-1.8,0.7-1.8
	c-0.8-0.5-1.8-0.7-2.4-1c-0.2,0.2-0.3,0.6-0.5,0.8C553,334.7,553.7,335.4,554.3,336.1z M540.6,354.7c0.9-0.3,1.3-0.3,2.5-0.3
	c-1.2,2.6-3.8,3.6-3.3,7c-3.2,0.9-6.9,4.4-9,9.7c3.7-1.8,6.2-4.7,8.9-7.3c2.8-2.9,4.2-6.3,4.7-10.3c-0.7,0.1-1.6,0-2.3,0.1
	c-0.3-0.9-0.7-1.5-0.8-2.2c-7.3,3.9-9.5,10.7-10.7,18.4c2.3-3.6,6.4-6.5,5.1-11.3c2.9-0.7,3.2-3.9,5.5-5.7
	C540.3,353.2,540.5,354,540.6,354.7z M544,349.4c1.7-0.4,3.1-0.5,2.9-2.3c-0.1-0.7-1.5-1.3-2.1-1.2C543,346.2,544,347.7,544,349.4z
	 M552,340.2c-0.2-0.2-0.4-0.1-0.6-0.3c-0.3,0.6-0.7,1.8-1,2.7C552.8,342.2,552.1,340.9,552,340.2z M549.7,354.8
	c0.2-0.2,0.5-0.4,0.7-0.6c-1-0.8-1.8-1.9-2.7-2.7l-0.2,0.2C548,352.9,549,353.8,549.7,354.8z M553.8,337.5c-0.5,0.4-1.2,0.5-1.2,0.9
	c-0.2,0.2,0.1,0.7,0.3,0.9c0.2-0.2,1.1-0.1,1.2-0.5C554.4,338.7,553.9,338.2,553.8,337.5z M548.1,342.3c-0.2-0.2-0.1-0.7-0.3-0.9
	c-0.7,0.1-1.2,0.5-2.2,0.8c0.2,0.2,0.4,0.5,0.1,0.7C546.7,342.9,547.4,342.8,548.1,342.3z M549.8,342.9c-0.2,0.2-0.4-0.1-0.7,0.1
	c0.1,0.7,0,1.6,0.1,2.3c0.2-0.2,0.4,0.1,0.7-0.1C549.8,344.6,549.9,343.7,549.8,342.9z"/>
<g>
	<path class="st5" d="M196.4,121.3c0,0.6,0.5,0.9,0.9,1.2c0.3,0.2,0.6,0.6,0.7,0.9c0.2,0.7,0.2,1.6,1.2,1.9
		c-0.7,0.3-1.1,0.2-1.6-0.6c-0.3-0.6-0.7-1.1-1.3-1.5c-0.4-0.2-0.8-0.3-1.3-0.5c0.2,1.6,0.4,3.1,0.5,4.7c-0.1,0-0.2,0.1-0.3,0.1
		c-0.5-1.6-1-2.9-1.8-4.4c-0.3,0.4-0.6,0.7-0.9,1.1c-0.5,0.4-0.5,1-0.5,1.8s-0.2,1.1-1.1,1.3c0.8-0.8,0.4-1.6,0.2-2.4
		c-0.1-0.3,0.1-0.7,0.2-1.1c0.2-0.4,0.2-0.9,0.4-1.3c-0.1,0-0.2,0-0.2-0.1c-1,1.3-2.2,2.7-3,3.9c-0.1,0-0.2-0.1-0.3-0.1
		c0.7-1.6,1.5-3,2.2-4.7c-0.6-0.1-0.8,0.3-1.1,0.7c-0.4,0.6-0.8,0.9-1.5,0.9s-1.1,0.5-1.5,1c-0.3-0.6-0.1-1,0.6-1.5
		c0.4-0.2,0.8-0.6,1.2-1c0.1-0.2,0.2-0.5,0.3-0.7c0.1-0.3,0.3-0.6,0.4-0.9c-1.6,0.2-3.1,0.4-4.7,0.5c0-0.1-0.1-0.2-0.1-0.3
		c1.6-0.5,2.9-1,4.4-1.8c-0.9-0.7-1.7-1.7-2.9-1.6c-0.7,0.1-1-0.2-1.1-1c0.7,0.6,1.5,0.4,2.2,0.2c0.3-0.1,0.8,0.1,1.2,0.2
		c0.5,0.2,0.9,0.4,1.5,0.2c-1.5-1.1-2.7-2.2-4.1-3.1c0-0.1,0.1-0.2,0.1-0.3c1.6,0.7,3,1.5,4.7,2.2c0.1-0.5-0.3-0.8-0.7-1.1
		c-0.7-0.4-0.8-0.9-0.9-1.6c-0.1-0.5-0.5-1-0.7-1.5c0.4-0.1,0.7,0,1.2,0.7c0.3,0.4,0.8,1,1.2,1.5c0.4,0.2,0.9,0.4,1.5,0.6
		c-0.2-1.6-0.4-3.1-0.5-4.7c0.1,0,0.2-0.1,0.3-0.1c0.5,1.6,1,2.9,1.8,4.4c0.3-0.4,0.6-0.6,0.9-1c0.5-0.5,0.6-1.1,0.5-1.8
		c0-0.8,0.2-1.1,0.9-1.3c-0.1,0.4-0.3,0.8-0.3,1.2s0.3,0.7,0.3,1.1c0.1,0.3-0.1,0.7-0.2,1c-0.2,0.5-0.5,0.8-0.2,1.5
		c1.1-1.5,2.2-2.7,3.1-3.9c0.1,0,0.2,0.1,0.3,0.1c-0.7,1.6-1.5,3-2.2,4.7c0.5,0.1,0.7,0,1-0.6c0.4-0.7,0.9-0.9,1.7-1
		c0.5-0.1,1-0.5,1.5-0.7c0.2,0.2,0.1,0.4-0.1,0.8c-0.2,0.2-0.5,0.4-0.8,0.5c-0.6,0.3-1.1,0.9-1.3,1.6c-0.1,0.3-0.3,0.7-0.4,1
		c1.6-0.2,3.1-0.4,4.7-0.6c0,0.1,0.1,0.2,0.1,0.2c-1.6,0.5-2.9,1-4.4,1.8c0.4,0.3,0.7,0.8,1.2,1c0.5,0.3,1.1,0.3,1.7,0.4
		c0.8,0.1,1.2,0.3,1.3,1c-0.4-0.2-0.8-0.3-1.2-0.3c-0.4-0.1-0.7,0.3-1.1,0.3c-0.3,0.1-0.7-0.1-1-0.2c-0.5-0.2-0.8-0.5-1.6-0.2
		c1.5,1.1,2.7,2.2,4.1,3.1c0,0.1-0.1,0.2-0.1,0.3C199.4,122.8,198,122,196.4,121.3z M190.4,119.7c-0.7,0.5-0.7,0.7-0.2,1.3
		c1.1,1.5,3,1.8,4.6,0.9c1.9-1,2.3-2.6,2.1-4.3c-0.4-2-2.2-3.1-3.9-2.9c-2,0.2-3.4,1.8-3.5,3.5c-0.1,0.6-0.1,1.2,0.4,1.9
		C190,119.9,190.2,119.9,190.4,119.7z M194.4,111.1c0.2,1.3-1.3,2.1-1.6,3.1c0.5,0.1,1,0.1,1.3,0.2c0.2-0.6,0.2-1.1,0.5-1.6
		C195.1,112.3,194.8,111.8,194.4,111.1z M189.2,120.3c-0.8,0.9-0.7,2.6-2.3,2.8c0.9,0,1.7-0.2,2.2-1c0.1-0.3,0.6-0.5,0.9-0.7
		C189.8,120.9,189.7,120.7,189.2,120.3z M188.5,112.6c-0.1,0.7,0,1.2,0.7,1.8c0.4,0.2,0.7,0.7,1.1,1.1c0.3-0.2,0.7-0.4,1.1-0.8
		C190.6,113.8,188.9,114,188.5,112.6z M192,122.5c-0.2,0.5-0.2,1.1-0.4,1.6c-0.4,0.7-0.3,1.2,0.2,1.9c-0.2-1.5,1.3-2.1,1.6-3.1
		C192.8,122.6,192.5,122.6,192,122.5z M197.1,119.6c0.4,0.1,0.9,0,1.2,0.3c0.7,0.5,1.6,0.4,2.4-0.1c-1.1,0.1-1.9-0.3-2.6-1
		c-0.2-0.2-0.6-0.4-0.9-0.5C197.2,118.7,197.1,119.2,197.1,119.6z M185.5,117.2c1-0.1,1.9,0.3,2.5,1c0.3,0.2,0.7,0.4,0.9,0.5
		c0.1-0.6,0.1-1,0.2-1.5c-0.4-0.1-0.8,0-1.2-0.3C187.2,116.6,186.5,116.6,185.5,117.2z M197.8,124.3c0-0.7,0-1.2-0.7-1.8
		c-0.4-0.2-0.7-0.7-1.1-1.1c-0.3,0.2-0.7,0.5-1.1,0.8C195.7,123.2,197.2,123.1,197.8,124.3z M196.2,115.6c0.3,0.3,0.5,0.7,0.8,1.1
		c0.8-0.8,0.7-2.5,2.3-2.8c-1,0.2-1.5-0.1-2.2,1C196.9,115.3,196.5,115.4,196.2,115.6z M188.8,125.3c0.1,0,0.1,0,0.2,0.1
		c0.7-1,1.6-2.1,2.3-3c-0.1,0-0.1-0.1-0.2-0.1c-0.2,0.4-0.5,0.6-0.7,1c0,0-0.1,0-0.1-0.1c0.2-0.4,0.4-0.8,0.6-1.1
		c-0.1,0-0.1,0-0.2-0.1C190,123,189.3,124.1,188.8,125.3z M197.8,121.1L197.8,121.1c-0.4-0.1-0.8-0.2-1.2-0.5c0,0.1,0,0.2-0.1,0.3
		c1.1,0.6,2.4,1.1,3.4,1.8c0-0.1,0-0.1,0.1-0.2c-1-0.7-2.1-1.6-3-2.3c0,0.1-0.1,0.1-0.1,0.2C197,120.7,197.5,120.9,197.8,121.1z
		 M193.9,122.6c-0.1,0-0.1,0.1-0.2,0.1c0.5,1.2,0.8,2.5,1.3,3.6c0.1,0,0.1,0,0.2-0.1c-0.1-1.2-0.4-2.6-0.5-3.8c-0.1,0-0.2,0-0.2,0.1
		c0,0.5,0.2,1.1,0.2,1.7l0,0C194.2,123.6,194,123.1,193.9,122.6z M191.7,114.6c0.1,0,0.2,0,0.2-0.1c-0.1-0.6-0.2-1.1-0.3-1.9l0,0
		c0.2,0.5,0.4,1.1,0.6,1.7c0.1,0,0.1-0.1,0.2-0.1c-0.5-1.2-0.8-2.5-1.3-3.6c-0.1,0-0.1,0-0.2,0.1
		C191.4,112.1,191.5,113.3,191.7,114.6z M188.4,115.6L188.4,115.6c0.4,0.1,0.8,0.3,1.2,0.5c0-0.1,0-0.1,0.1-0.2
		c-1.1-0.6-2.3-1.1-3.3-1.7c0,0.1,0,0.1-0.1,0.2c1,0.7,2.1,1.6,3,2.3c0-0.1,0.1-0.1,0.1-0.2C189.1,116.1,188.8,115.9,188.4,115.6z
		 M195.4,115.2c0.1,0,0.2,0,0.2,0.1c0.6-1.1,1.1-2.4,1.8-3.4c-0.1,0-0.1,0-0.2-0.1c-0.7,1-1.6,2.1-2.3,3c0.1,0,0.1,0.1,0.2,0.1
		c0.2-0.4,0.5-0.6,0.7-1h0.1C195.7,114.3,195.6,114.7,195.4,115.2z M185.4,120.3c0,0.1,0.1,0.1,0.1,0.2c1.2-0.1,2.5-0.4,3.6-0.5
		c0-0.1,0-0.1-0.1-0.2c-0.5,0-0.9,0.1-1.5,0.2v-0.1c0.4-0.1,0.9-0.3,1.5-0.4c0-0.1-0.1-0.1-0.1-0.2
		C187.7,119.4,186.6,119.9,185.4,120.3z M197.1,117.1c0,0.1,0,0.1,0.1,0.2c0.5,0,0.9-0.2,1.5-0.2v0.1c-0.4,0.1-1,0.4-1.5,0.5
		c0,0.1,0.1,0.1,0.1,0.2c1.2-0.4,2.4-0.8,3.5-1.2c0-0.1,0-0.1-0.1-0.2C199.5,116.6,198.2,117,197.1,117.1z"/>
	<path class="st5" d="M194.1,118.1c-0.1,0-0.3-0.1-0.4-0.2c0.1-0.3,0.2-0.4,0.5-0.2c0.3,0.1,0.8,0.2,1-0.4c0-0.1,0.2-0.1,0.3-0.2
		l0.2,0.1c0,0.1-0.1,0.3-0.1,0.3C195.2,117.7,194.8,117.8,194.1,118.1z"/>
	<path class="st5" d="M192.3,117.9c-0.2,0.7-0.2,0.7-0.8,0.6c-0.2,0-0.5,0.1-0.7,0.1c-0.1,0-0.3,0-0.4-0.2v-0.2c0.1,0,0.2,0.1,0.3,0
		c0.3,0,0.5,0,0.8-0.1C191.7,118.2,191.8,118.1,192.3,117.9z"/>
	<path class="st5" d="M191.1,116.6c0-0.2,0-0.3,0.1-0.4c0.1,0.1,0.2,0.2,0.3,0.2c0.1-0.2,0.2-0.4,0.4-0.5c0.1,0.1,0.2,0.2,0.3,0.3
		C191.7,116.3,191.4,116.4,191.1,116.6z"/>
	<path class="st5" d="M192.5,117.7c-0.3-0.1-0.7-0.3-1-0.4c0-0.1,0-0.1,0.1-0.2C191.9,117.2,192.2,117.5,192.5,117.7
		C192.5,117.6,192.5,117.6,192.5,117.7z"/>
	<path class="st5" d="M190.7,120.2c-0.2,0.2-0.3,0.3-0.6,0.4c0-0.2,0-0.3,0.2-0.5C190.4,120.2,190.6,120.2,190.7,120.2z"/>
	<path class="st5" d="M193.3,117.2c0.1-0.3,0.4-0.5,0.5-0.7c0.1,0,0.1,0.1,0.2,0.1c-0.1,0.3-0.4,0.5-0.5,0.7
		C193.4,117.3,193.3,117.2,193.3,117.2z"/>
	<path class="st5" d="M192.8,120.8c0.5-0.1,0.9-0.3,1.6-0.3C193.7,120.6,193.3,120.7,192.8,120.8z"/>
	<path class="st5" d="M194.1,115.8c-0.2,0.1-0.4,0-0.5,0.1l0,0c0.1-0.1,0.1-0.3,0.2-0.4C193.8,115.6,193.9,115.7,194.1,115.8z"/>
	<path class="st5" d="M193.2,116c-0.1-0.1-0.1-0.3-0.1-0.4c0.1,0,0.1,0,0.2-0.1c0.1,0.1,0.1,0.3,0.1,0.4
		C193.3,116,193.2,116,193.2,116z"/>
	<path class="st5" d="M193.1,119.6c-0.1,0-0.3,0-0.4-0.1v-0.1c0.1,0,0.2-0.1,0.4,0C193.2,119.4,193.1,119.6,193.1,119.6z"/>
	<path class="st5" d="M193.9,119.2c-0.1,0.1-0.2,0.2-0.3,0.3l-0.1-0.1C193.6,119.3,193.7,119.2,193.9,119.2
		C193.8,119.2,193.9,119.2,193.9,119.2z"/>
</g>
<path class="st8" d="M508.6,433.4l-7.5-153.6c0-0.2,0-0.4,0-0.6c0-0.3,0-0.7,0-1l0.9-58.7c0-2.7,2.9-4.4,5.3-3l46.4,25
	c4.1,2.3,6,7.1,4.6,11.4l-22.8,71.4c-0.3,0.9,0.1,1.9,1,2.3l34.6,15.6c0.8,0.3,1.8,0.1,2.3-0.6l35.6-48.4
	c7.7-10.4,21.3-37.2,24.7-52c2.8-12.3-7.8-25.6-17.1-34.2l-78.6-70.8c-9.2-8.3-20.3-14.4-32.2-18l-41.2-12.2
	c-2.5-0.7-5.1-0.4-7.3,0.7l-44.1,23.6c-2.9,1.6-6.4,1.6-9.2-0.1l-44.8-25.1c-2.7-1.6-6-1.7-8.7-0.3l-40.6,18.9
	c-8.8,4.1-17,9.8-24,16.7l-12.3,12.4c-0.2,0.2-0.4,0.4-0.6,0.7l-28.8,37.9c-2.3,2.7-6.6,1.8-7.4-1.8l-10.7-32.1
	c-0.6-2-2.6-3-4.4-2.5l-35.5,11c-3.3,1.2-5.8,4.2-6.4,7.8l4.2,62c-1.7,10.7,8.1,23.4,15.4,31.4l13.5,15.1c3.2,2.8,8,3.2,11.6,0.9
	l85.6-54.8c2.3-1.5,5.2,0.1,5.3,2.7l2.4,60.4c0,0.1,0,0.3,0,0.4l-9.1,137.8c-0.2,2.4,1.7,4.4,3.9,4.5l56.5,10
	c24.1,4.3,48.6,4.9,72.7,1.8l62.4-8.1C506.8,437.8,508.7,435.7,508.6,433.4z"/>
<g>
	<path class="st9" d="M453.7,206c13.5-6,26.9-12.1,40.4-18.1c0.3,0.9,0.9,2,1.2,2.8c-13.3,6.6-24.9,16.1-39.6,19.5
		C455.2,209.1,454.6,207.5,453.7,206z"/>
	<path class="st9" d="M457.7,172.4c-2.6,10.8-4.8,21.5-7.3,32.6c-1.7-0.3-3.1-0.9-5.1-1.2c2.8-10.8,6-21.5,8.8-31.9
		C455.5,171.8,456.6,172.1,457.7,172.4z"/>
	<path class="st9" d="M481.8,218.3c-6.6,0.3-13.3,0.6-19.8,0.9c0-1.2-0.3-2.6-0.3-3.7c6.6-0.3,13.3-0.6,20.3-1.2
		C481.8,215.8,481.8,217,481.8,218.3z"/>
	<path class="st9" d="M439.7,208.1c-4.1-2.8-8.2-5.7-12.4-8.5c0.6-0.9,1.2-2,2-2.8c4.1,2.8,8.2,5.7,12.4,8.5
		C441,206.3,440.4,207.1,439.7,208.1z"/>
</g>
</svg>
