<?xml version="1.0" encoding="utf-8"?>
<!-- Generator: Adobe Illustrator 26.0.2, SVG Export Plug-In . SVG Version: 6.00 Build 0)  -->
<svg version="1.1" id="Calque_1" xmlns="http://www.w3.org/2000/svg" xmlns:xlink="http://www.w3.org/1999/xlink" x="0px" y="0px"
	 viewBox="0 0 788 1005" style="enable-background:new 0 0 788 1005;" xml:space="preserve">
<style type="text/css">
	.st0{fill:#D48F72;}
	.st1{fill:#BF7F75;}
	.st2{fill:none;stroke:#000000;stroke-width:3;stroke-miterlimit:10;}
	.st3{fill:#473415;}
	.st4{fill:#FA9980;}
	.st5{fill:#587CC6;}
	.st6{fill:#9CCBF2;}
	.st7{fill:#DCE8EF;}
	.st8{fill:#4D6FAA;}
</style>
<path class="st0" d="M510.7,295.7c-0.6,37.1-25.3,32-35.6,40.8c-12.2,10.4-8,48.3-16.6,61.8c-2.4,3.7-11,9.7-15.3,8.8
	c-12.1-2.8-23.2-29.6-33.6-36.4c-6.1-4-22.8-3.5-29.2,0c-10.8,6-21.5,33.7-33.6,36.4c-4.2,1-12.9-5-15.3-8.8
	c-8.6-13.5-4.4-51.4-16.6-61.8c-10.2-8.8-34.9-3.8-35.6-40.8c-0.4-25.7,33.8-36,33.8-36l38.7-19.2c9.2-4.5,15.4-13.3,16.7-23.5
	c0.2-1.4,0.3-2.7,0.2-4.1v-6.8h51.7l0,0l0.1,5.9v3.1c0,0.3,0,0.7,0,1l0,0c0,0.6,0.1,1.3,0.2,1.8c0.2,1.4,0.5,3,0.9,4.4
	c2.1,7.4,7.3,13.5,14.2,17l39.1,19.4c1,0.5,2,1,3.1,1.3C484.8,262.4,511.1,273.2,510.7,295.7z"/>
<polygon class="st0" points="421.6,252.4 395,283.8 380.7,266.7 368.8,252.4 369.5,212.2 369.6,206.2 420.7,206.2 420.8,212.1 
	420.9,216 420.9,216 420.9,217.4 421,223.9 "/>
<path class="st1" d="M422.1,222.7l-1,1.2c-4.9,6.1-27.8,33.9-40.3,42.8c-3.1,2.2-5.5,3.3-6.9,2.6c-6.6-3.2-14.3-33.9-14.3-33.9
	c0.6-0.6,1.3-1.3,1.7-1.8c3.8-4.6,6.3-10.1,7.5-16c0-0.2,0.1-0.4,0.1-0.6c0.3-1.4,0.5-2.9,0.7-4.6s0.3-4,0.5-6.2h50.9v10.5l0.1,0.8
	l0.1,0.7l0.9,4.4L422.1,222.7z"/>
<path class="st2" d="M454.9,302.2c11.5,24.1,39.5,37.5,39.5,37.5s51.2,31.7,68,42.5c7.9,5.1,24.3,16,37.6-3.5l0,0
	c10.9-16-2.7-29.3-9.8-34.9c-14.5-11.4-46.2-31.5-58.4-45.1c-9.1-10.1-19.1-29.2-41.6-34.9c0,0-18-6.7-30.7,7.9l-0.5,0.6
	C451.8,280.4,450.2,292.3,454.9,302.2z"/>
<path class="st0" d="M586.4,345.8c-17.9-6.9-31.6,11.4-36.1,18.3s-10.3,23.1-13.1,31c-7.2,20.3-16.9,55.3-24.3,75.1
	c-4.8,13-7.8,19.7-0.3,25c6.8,4.8,15.5-5.6,19-9.6c14.3-16.6,42.8-48.6,54.8-68.4c4.9-8.1,13.5-25.5,15.5-34.7
	C607.7,356.5,591.7,347.8,586.4,345.8z"/>
<path class="st0" d="M203.3,349.6c18-6.9,31.6,11.4,36.1,18.3c4.5,6.9,10.3,23.1,13.1,31c7.3,20.3,16.9,55.3,24.3,75.1
	c4.8,13,7.8,19.7,0.3,25c-6.8,4.8-15.5-5.6-19-9.6c-14.4-16.6-42.8-48.6-54.8-68.4c-4.9-8.1-13.5-25.5-15.5-34.7
	C182,360.3,198.1,351.6,203.3,349.6z"/>
<path class="st2" d="M334.9,306.1c-11.5,24.1-39.5,37.5-39.5,37.5s-51.1,31.7-68,42.5c-7.9,5.1-24.3,16-37.5-3.5l0,0
	c-10.9-16,2.7-29.3,9.8-34.9c14.5-11.4,46.2-31.5,58.4-45.1c9.1-10.1,19.1-29.2,41.6-34.9c0,0,18-6.7,30.7,7.9l0.5,0.6
	C338.1,284.4,339.6,296,334.9,306.1L334.9,306.1z"/>
<path class="st3" d="M318.7,493l1.4-21l149.1-1.3l2,19.5c0.1,1.4-1,2.6-2.3,2.6l-147.9,2.8C319.7,495.5,318.6,494.3,318.7,493z"/>
<path class="st4" d="M516.1,493.5c2.4,2.8,4.2,8.2-0.8,14.6c0,0-14,21.8-20.8,26.8c-3.1,2.2-11.3,7.7-14.2,5.3
	c-8.2-6.9-15.5-25.7-15.1-38.5c0.1-3.9,7.8-9,11.5-10.2c4-1.4,12.7,0.7,17,0.2c2.3-0.3,4.5-0.8,6.9-1.4
	C506,488.9,512.8,489.8,516.1,493.5z"/>
<path class="st2" d="M455.5,301.6C467,325.7,495,339,495,339s51.2,31.7,68,42.5c7.9,5.1,24.3,16,37.6-3.5l0,0
	c10.9-16-2.7-29.3-9.8-34.9c-14.5-11.4-46.2-31.5-58.4-45.1c-9.1-10.1-19.1-29.2-41.6-34.9c0,0-18-6.7-30.7,7.9l-0.5,0.6
	C452.4,279.6,450.7,291.5,455.5,301.6z"/>
<path class="st2" d="M335.5,305.4C324,329.5,296,342.9,296,342.9s-51.1,31.7-68,42.5c-7.9,5.1-24.3,16-37.5-3.5l0,0
	c-10.9-16,2.7-29.3,9.8-34.9c14.5-11.4,46.2-31.5,58.4-45.1c9.1-10.1,19.1-29.2,41.6-34.9c0,0,18-6.7,30.7,7.9l0.5,0.6
	C338.7,283.6,340.2,295.4,335.5,305.4L335.5,305.4z"/>
<path class="st5" d="M427.6,238.2c2.1-2.7,5.8-3.7,9-2.5c9.1,3.3,33.5,13.5,48.9,20.1c8.9,3.8,17.1,8.8,24.5,14.9
	c24.7,20.3,82.6,68,91.7,76.2c1.2,1.1,1.9,2.4,2.4,4c1.3,4.8,4.1,16,3.7,20.6c-0.8,10.7-9.8,29.5-15.2,40.3
	c-9,18.1-56.5-36.1-56.5-36.1c1.2-3.5-0.3-7.3-3.4-9.4L492,340.5c-4.9-3.1-11.4-0.2-12.3,5.6l-7.8,49.7c-0.1,0.6-0.1,1.3-0.1,1.8
	l17.1,162.5c0.1,1.7-0.3,3.6-1.3,5l-2.1,3.2c-2.4,3.7-6.6,5.9-11,6l-50.7,11.5c-16.9,4.2-34.5,4.4-51.4,0.8l-59.2-11.5
	c-4.3,0-8.4-2.1-10.9-5.6l-2.6-3.7c-1-1.4-1.4-3-1.4-4.7l15.2-160.6c0-0.4,0-0.9-0.1-1.3l-6.8-45.4c-0.9-5.7-7.1-8.7-12.2-5.8
	c0,0-47.1,31.4-45.6,35c0,0-60.4,31.7-68.8,1c-1.4-5.5-0.1-20.2,0.7-26.5c0.2-2,1.2-3.9,2.7-5.1l62.9-55.3l36.2-29.6
	c8.7-7.1,18.6-12.7,29.2-16.6l41.1-15.1c3.4-1.2,7.1,0,9.3,2.9l32.9,41.8L427.6,238.2z"/>
<path class="st6" d="M516.7,492.9c2.4,2.8,4.2,8.2-0.8,14.6c0,0-14,21.8-20.8,26.8c-3.1,2.2-11.3,7.7-14.2,5.3
	c-8.2-6.9-15.5-25.7-15.1-38.5c0.1-3.9,7.8-9,11.5-10.2c4-1.4,12.7,0.7,17,0.2c2.3-0.3,4.5-0.8,6.9-1.4
	C506.5,488.1,513.4,489,516.7,492.9z"/>
<polygon class="st6" points="515.3,464 502.6,489.3 507.5,500.7 512.9,511.7 517.4,505.2 537.7,478.4 "/>
<path class="st6" d="M274.3,496.7c-2.4,2.8-4.2,8.2,0.8,14.6c0,0,14,21.8,20.8,26.8c3.1,2.2,11.3,7.7,14.2,5.3
	c8.2-6.9,15.5-25.7,15.1-38.5c-0.1-3.9-7.8-9-11.5-10.2c-4-1.4-12.7,0.7-16.9,0.2c-2.3-0.3-4.5-0.8-6.9-1.4
	C284.4,492,277.6,492.9,274.3,496.7z"/>
<polygon class="st6" points="276.8,471.6 288.4,493.2 283.4,504.5 278,515.5 273.4,509.1 256.4,486.1 "/>
<g>
	<ellipse class="st6" cx="324.7" cy="401.9" rx="7.3" ry="7.3"/>
	<circle class="st7" cx="324.7" cy="402" r="5.9"/>
	<g>
		<path class="st7" d="M324.9,402c0.5,8.6,0.9,17.3,1,25.9c0.3,6.5,0.7,12.8-0.6,19.3c-0.3,2.2-0.8,4.2-1.4,6.5h-0.5
			c-2.2-8.5-1.9-17.3-1-25.9c0.6-8.6,1.2-17.1,2-25.8H324.9L324.9,402z"/>
	</g>
	<g>
		<path class="st7" d="M344.1,394.5c0.5,8.6,0.9,17.3,1,25.9c0.3,6.5,0.7,12.8-0.6,19.3c-0.3,2.2-0.8,4.2-1.4,6.5h-0.5
			c-2.2-8.5-1.9-17.3-1-25.9c0.6-8.6,1.2-17.1,2-25.8L344.1,394.5L344.1,394.5z"/>
	</g>
	<polygon class="st8" points="306.3,440.3 303,492.3 350.8,500.4 361.2,493.9 363.7,437.8 306,429.5 	"/>
	<g>
		<path class="st7" d="M343.6,400.3c-0.1-3.3-0.3-7.6-0.3-10.3c-1.1-5.6,2.7-9.1,8.2-7.4c2.4,0.7,3.1,2.6,2.2,4.8
			c-0.3,0.8-0.6,1.4-0.8,2.2h-0.2c-0.6-1.4,0.2-3.3-0.5-4.3c-0.3-0.7-2-0.8-3.4-0.8c-3.3-0.3-4.3,2.4-4.2,5.2
			c-0.2,3.5-0.6,7-0.8,10.6C343.9,400.3,343.6,400.3,343.6,400.3L343.6,400.3z"/>
	</g>
</g>
<polygon class="st8" points="479.4,437.3 482.8,489.3 434.9,497.6 424.6,491 422.1,434.9 479.8,426.6 "/>
</svg>
