<?xml version="1.0" encoding="utf-8"?>
<!-- Generator: Adobe Illustrator 26.0.3, SVG Export Plug-In . SVG Version: 6.00 Build 0)  -->
<svg version="1.1" id="Layer_1" xmlns="http://www.w3.org/2000/svg" xmlns:xlink="http://www.w3.org/1999/xlink" x="0px" y="0px"
	 viewBox="0 0 788 371" style="enable-background:new 0 0 788 371;" xml:space="preserve">
<style type="text/css">
	.st0{fill:#718985;}
	.st1{fill:#D48F72;}
	.st2{fill:#A85B3B;}
	.st3{fill:#BF7F75;}
	.st4{fill:#DBDBDB;}
	.st5{fill:#95C1BE;}
	.st6{fill:#87AAA7;}
	.st7{fill:#444444;}
	.st8{fill:none;stroke:#444444;stroke-miterlimit:10;}
	.st9{fill:#D3D3D3;}
	.st10{fill:#7C9995;}
	.st11{fill:#E8E8E8;}
	.st12{fill:#888215;}
	.st13{fill:#9E9520;}
</style>
<path class="st0" d="M379.9,136.8l14.2-14c0,0,21.2-6.9,40.2-6.7c19,0.2,37.9,4.5,37.9,4.5l17.2,16.2l2,19.9L378.1,161L379.9,136.8z
	"/>
<path class="st1" d="M495.2,188.5c-1.3,29,18.7,55.9,18.7,55.9s32.7,56.2,43.4,75.2c5,8.9,15.2,27.7,37.7,15.8l0,0
	c18.6-9.8,12.3-29.4,8.4-38.4c-8-18.3-28.1-53.6-32.8-72.9c-2.4-9.9-3-24.3-9.5-37.7c-4.3-9.1-11.5-16.5-20.3-21.4
	c-6.5-3.6-16.6-8.9-29-14.3l2.7,11.2C503.3,166.1,495.8,176.6,495.2,188.5L495.2,188.5z"/>
<g>
	<path class="st1" d="M602.6,308.9c-12-13.7-35.3-7.1-43.6-4.3c-8.3,2.8-23.1,11.7-30.4,16.1c-18.7,11.1-48.3,31.9-66.8,42.5
		c-12.1,7.1-18.8,10.6-15.3,17.9c3.2,6.7,17.5,3.4,22.9,2.3c22.8-5,67.6-14.5,90.5-22.9c9.3-3.4,27.4-11.9,34.8-17.7
		C615.4,327,606,312.9,602.6,308.9z"/>
</g>
<ellipse transform="matrix(0.5823 -0.813 0.813 0.5823 -36.8043 198.7537)" class="st2" cx="175" cy="135.2" rx="12.8" ry="12.6"/>
<path class="st1" d="M502.9,192c-0.6,40.1-3.4,46.3,2.7,47.5c-13.2,11.3,6.5,52.1-2.8,66.7c-2.6,4-11.9,10.6-16.5,9.5
	c-13.1-3-25.1-32.1-36.4-39.4c-6.6-4.3-24.7-3.8-31.6,0c-11.7,6.5-23.3,36.5-36.4,39.4c-4.6,1-14-5.4-16.5-9.5
	c-9.3-14.6-4.8-55.6-18-66.9c-11.1-9.5-37.8-4.1-38.6-44.2c-0.4-27.8,36.6-39,36.6-39l41.9-20.8c2.7-1.4,5.2-3,7.4-5
	c0.8-0.7,1.7-1.6,2.4-2.4l0.6-0.7v-0.1c4.1-4.9,6.8-10.9,7.5-17.1c0.2-1.5,0.3-2.9,0.2-4.4v-2.9v-4.8h56l0.1,5.2v1.6v3.3
	c0,0.3,0,0.7,0,1l0,0c0,0.6,0.1,1.4,0.2,2c0.2,1.6,0.5,3.2,0.9,4.8c2.3,8,7.9,14.6,15.4,18.4l42.3,21c1,0.5,2.2,1,3.3,1.4
	C531.4,158.9,503.3,167.7,502.9,192z"/>
<path class="st3" d="M463.5,115.9l-1,1.3c-5.4,6.6-30.1,36.6-43.7,46.3c-3.3,2.4-6,3.6-7.5,2.8c-7.1-3.4-15.5-36.7-15.5-36.7
	l0.1-0.1c0.6-0.6,1.3-1.3,1.8-2c0.3-0.4,0.7-0.8,1-1.4l0.1-0.1c3.4-4.7,5.7-10.1,7-15.9c0-0.2,0.1-0.4,0.1-0.6
	c0.3-1.5,0.5-3.1,0.7-5c0.1-0.7,0.1-1.5,0.2-2.3c0.1-1.5,0.2-3,0.3-4.7h55.1v0.2v4.5v7l0.1,0.8l0.1,0.7l0.9,4.8L463.5,115.9z"/>
<path class="st1" d="M250.7,312.6c16.2-9.4,10.1-33.4,7.5-42c-2.5-8.6-11.6-24.7-16-32.6c-11.3-20.3-47.4-73.6-52.9-95.6
	c-3.9-15.4-25.6-0.7-25.6-0.7s8.7,16.6,12,27.4c6.9,22.7,9.7,54.9,19.9,92.8c2.6,9.9,11.6,29,17.5,37.3
	C229.6,322.1,246.1,315.4,250.7,312.6z"/>
<path class="st1" d="M367.5,205.6c-8.9,27.5-37.1,45.8-37.1,45.8s-50.4,41.2-67,55.2c-7.8,6.6-23.8,20.6-40.9,1.6l0,0
	c-14-15.7-1.3-31.9,5.6-38.9c13.9-14.3,45.2-40.3,56.3-56.7c8.3-12.1,16.3-34.2,39.7-43.4c0,0,18.3-9.7,34,4.2l0.6,0.5
	C367.8,181.8,371.2,194.2,367.5,205.6z"/>
<path class="st1" d="M188.8,136c-0.6-5.1-0.3-10.2,0.9-15.2l4.1-15.8c0.1-0.3,0.1-0.6,0-0.9L187.7,79c-0.3-1.5-2.2-2.1-3.3-1
	c-1.4,1.1-2.7,2.5-3.1,3.3c-2.6,5.2,0.5,15.2,0.8,20.9c0.1,0.7-2.5,2.7-3.2,2.9c-1.9,0.7-6.7-1.4-9.8-2.9c-2-0.9-3.6-2.7-4.3-4.8
	c-0.8-2.4-2-5.6-2.6-7.2c-0.2-0.6-0.1-1.4,0.3-2l15.8-13.8c1.3-1.7,1.7-3.7,1.8-5.1c0.1-1.6-0.7-3-2.1-3.7c-1.4-0.6-2.8-1.1-3.4-0.5
	L150.1,86c-1.5,1.6-3,6-3,8.2v7.6c0,2.4,0.5,4.7,1.6,6.9l15.3,32.7v0.1h0.1l0.6,1.4l0,0c0.4-0.7,1.3-1.1,2-1l20.7,2.6
	c1.4,0.2,2.4-0.9,2.3-2.3L188.8,136z"/>
<path class="st4" d="M341.3,156.8c0,0-24.3,5-34.1,13.3s-31.4,49.8-34.5,52.2c-3.1,2.3,38,49,39,48.6c0.9-0.4,13-5.4,19.2-11.4
	c6.3-5.9,15.3-19.4,15.3-19.4l21.3,11.4L341.3,156.8z"/>
<path class="st4" d="M519.7,155.3c0,0,24.3,5,34.1,13.3c9.8,8.3,23.7,62.4,26.9,64.8c3.1,2.4-44.8,52.6-45.8,52.2s-3.3-4.4-9.6-10.2
	c-6.3-5.9-10.5-36.7-10.5-36.7L493.4,250L519.7,155.3z"/>
<path class="st5" d="M339.4,155.7c-2.6,5.1,9.6,84.5,9.6,84.5l-14.4,196.7c0.1,2.7,2.1,5.1,4.8,5.6l44.8,8.9
	c33.4,6.3,67.8,5.6,101.1-1.6l40.4-10c3.7-0.8,6.2-4.1,6.1-7.7c-1.4-34.2-12.1-183.1-12.1-183.1l6.1-92.4l-36.1-19.7L434.3,267
	l-54.4-130.2L339.4,155.7z"/>
<g>
	<path class="st6" d="M428,279c1.1,46.1,1.1,92.7,0.8,138.8l-0.3,23.1c-0.5,7,2.3,10.3,8.9,12.4c1.8,0.6,3.7,1.3,5.4,1.9
		c-1.9-0.5-3.8-1-5.5-1.6c-3.7-1-7.7-2.9-9-6.9c-0.6-1.9-0.7-4-0.7-5.9l-0.3-23.1C426.9,371.7,426.9,325.1,428,279L428,279z"/>
</g>
<g>
	<circle class="st7" cx="437.5" cy="281.5" r="4.1"/>
	<circle class="st0" cx="437.5" cy="281.5" r="2.7"/>
</g>
<g>
	<circle class="st7" cx="437.5" cy="352.1" r="4.1"/>
	<circle class="st0" cx="437.5" cy="352.1" r="2.7"/>
</g>
<line class="st8" x1="441.1" y1="281.5" x2="443.5" y2="281.5"/>
<line class="st8" x1="440.5" y1="352.1" x2="442.9" y2="352.1"/>
<path class="st9" d="M397.6,127.5l27.8,6.8c2.6,0.6,4.9,2.3,6.3,4.7l3.1,5.5l3.6-6c1.3-2.1,3.1-3.7,5.4-4.4l24.6-8l13.7,13.8
	L434.3,267l-53.4-131.7L397.6,127.5z"/>
<path class="st6" d="M472.3,120.6L428,279c0,0,37.4-45.8,65.3-114.9C494,163.3,472.3,120.6,472.3,120.6z"/>
<path class="st6" d="M394.2,122.8L435,262.3l-2.6,5.9c0,0-55.6-69.1-62.1-102.3C370.2,166.5,394.2,122.8,394.2,122.8z"/>
<path class="st10" d="M375.4,156.8l-7.9-14.2c0,0,17.8-15.6,26.7-19.8L375.4,156.8z"/>
<path class="st10" d="M489.7,155.3l8.5-13.9c0,0-17-16.3-25.8-20.9L489.7,155.3z"/>
<path class="st11" d="M411.1,152.5v-9c0-3.6,3-6.4,6.6-6.2c6.3,0.5,14.6,2.7,14.6,10.7c0,7.9-8.4,10.1-14.6,10.7
	C414.1,159,411.1,156.1,411.1,152.5z"/>
<path class="st11" d="M458.6,152.5v-9c0-3.6-3-6.4-6.6-6.2c-6.3,0.5-14.6,2.7-14.6,10.7c0,7.9,8.4,10.1,14.6,10.7
	C455.6,159,458.6,156.1,458.6,152.5z"/>
<path class="st4" d="M435.3,155.5h-1.1c-2.1,0-3.8-1.7-3.8-3.8v-5.2c0-2.1,1.7-3.8,3.8-3.8h1.1c2.1,0,3.8,1.7,3.8,3.8v5.2
	C439.1,153.8,437.4,155.5,435.3,155.5z"/>
<path class="st11" d="M311.7,271.9l-2.5,2.1c-0.8,0.6-2,0.5-2.7-0.2l-38-46.1c-0.6-0.8-0.5-2,0.2-2.7l2.5-2.1c0.8-0.6,2-0.5,2.7,0.2
	l38,46.1C312.6,270,312.5,271.3,311.7,271.9z"/>
<path class="st11" d="M582.2,234.9l2.4,2.2c0.7,0.7,0.8,1.9,0.1,2.7l-45.5,49.5c-0.7,0.7-1.9,0.8-2.7,0.1l-2.4-2.2
	c-0.7-0.7-0.8-1.9-0.1-2.7l45.5-49.5C580.2,234.2,581.4,234.2,582.2,234.9z"/>
<g id="GcAfxX_00000158726393485427391440000013673085389559127732_">
	<g>
		<path class="st12" d="M182.9,44.5c0.5,0.8,0.9,1.7,1.5,2.5c0.2,0.2,0.4,0.4,0.9,1c-0.2-0.9-0.3-1.1-0.4-1.4
			c-0.4-1.9-0.7-3.7-1.3-5.4c0.1,0,0.3,0,0.5-0.1c0.5,1.7,1.1,3.3,1.7,5.1c0.1,1.1,0.1,2.5,0.2,3.7c0.1,1.5,0.3,2.9,0.4,4.3
			c0.1,0.6,0.1,1.1,0.1,1.9c0,0.7,0.1,1.5,0.2,2.6c0.5-1.8,0.9-3.1,1.5-4.5c0.1,0.3,0.3,0.5,0.8,1.5c3.2-5.5,6-10.6,8.8-15.5
			c0.6-0.3,1.3-0.8,2.2-1.5c-0.3,1.9-0.5,3.3-0.7,4.6c-0.2,0.2-0.2,0.4-0.2,0.5s0.1,0.2,0,0.2c-1.1,1.6-2.3,3-3.6,4.5
			c0,0.1,0.2,0.2,0.2,0.2c-0.8,1-1.7,2.2-2.8,3.8c-0.3,0.9-0.7,2.4-1.4,3.9c-1.6,1.4-3.2,2.7-4.1,3.6c-1.3,5.6-2.2,10.6-3.3,15.5
			c-0.1,0,0.1,0.2,0.2,0.2c0,0,0.1,0,0.2-0.1c4.8-4,9.4-8,14.1-12c0.4-0.1,0.8-0.3,1.8-0.5c-1,2-1.8,3.3-2.6,4.7c-0.5,0-1.3,0-1.8,0
			c-0.3,0.7-0.4,1.3-0.4,1.1c-3.1,2.6-6.8,4-8.3,7.7c-9,3.3-8.9,16.1-20,18.9c7.3-6.1,12.3-12.3,15.3-20.1c-0.5-0.6-1-1.1-1.6-1.8
			c-0.2-0.2-0.4-0.4-0.5-0.6v-0.1c-2.5-7-5.9-13.5-10.1-19.5c0-0.8,0-1.7,0-3c1.3,0.9,2.2,1.9,3.1,2.6c0.1,0.1,0.2,0.2,0.3,0.3
			s0.3,0.2,0.5,0.4c2.7,5.5,5.3,11.2,8,16.7c0.2,1.3,0.4,2.5,0.8,5.3c0.8-4.7,1.5-7.8,2-11.1c0.2-1.7,0.4-3.2,0.6-4.9v-0.1
			c0.1-0.1,0.1-0.1,0.1-0.3c-0.1-1.7-0.1-3.4-0.2-5c-0.2-2.1-0.5-4.1-0.7-6c-1.3-0.5-2.4-1-3.4-1.5c-0.3-0.1-0.4-0.2-0.6-0.3h-0.1
			c-3.2-5.4-8.9-8.2-13.8-11.9c-0.2-0.5-0.4-0.9-0.9-2c2.4,0.8,4.4,1.5,6.2,2.2C174.6,39.5,178.7,42.1,182.9,44.5z"/>
		<path class="st13" d="M190.6,40.9c2.2-0.4,2.4,1.7,2.8,3.1c1.7-1.3,3.1-2.5,4.6-3.8c-2.8,4.9-5.6,9.8-8.8,15.5
			c-0.5-0.9-0.6-1.3-0.8-1.5c0.4-1,0.7-2.2,1.1-3.4c-1.1-0.2-2.3-0.5-3.4-0.7c-0.1-1.1-0.1-2.5-0.2-3.7
			C186.7,43.8,188.1,41.5,190.6,40.9z"/>
		<path class="st12" d="M183.2,39.3c-0.1-0.2-0.2-0.5-0.3-0.8c-0.2,0.2-0.3,0.3-0.5,0.4c0-1.4,0-2.6,0-3.9c0.1,0.4,0.3,0.8,0.4,1.1
			c0.1,0.2,0.2,0.2,0.3,0.4s0.1,0.3-1.1-2.2c1.5,2.4,1.3,2.3,1.3,2.1c0,0,0-0.1-0.1-0.2c-0.1-0.9-0.1-1.9-0.2-2.8
			c0.9-5.5,1.9-11.1,2.9-16.5c0.4-0.7,0.8-1.5,1.5-2.4c3.2,8.7,1.1,16.2-3.1,23.3C183.8,38.4,183.5,39,183.2,39.3z"/>
		<path class="st13" d="M181.9,66.8c0,0.1,0,0.6,0.1,1.1c0.1,0.3,0.1,0.5,0.2,0.8c0.1,0.6,0.2,1.3,0.3,1.9c-2.7-5.5-5.3-11.2-8-16.7
			c1.1,1.1,2.3,2.4,3.6,3.6c1.6-1.9,3.1-1,4.8,0c1.1,0.8,2.3,1.6,3.3,2.4c-0.2,1.7-0.4,3.2-0.6,4.9C184.4,65.5,183.3,66,181.9,66.8z
			"/>
		<path class="st13" d="M180.7,41.1c0.7,1,1.6,2.3,2.3,3.4c-4.3-2.4-8.3-5.1-10.7-9.5c0.7,0.3,1.6,0.5,2.3,0.8
			c-0.2-7.4,3.7-3.6,6.5-2.5c0.2-0.1,0.3,0,0.5-0.1c0.1,0.6,0.4,1.4,0.6,1.9c0,1.4,0,2.6,0,3.9C181.8,39.7,181.2,40.4,180.7,41.1z"
			/>
		<path class="st12" d="M180.2,29.8c0.3,0.4,0.4,0.9,0.7,1.4c-0.2,0.1-0.2,0.2-0.4,0.3c-0.9-0.4-2-0.8-2.9-1.3
			c-0.2,0-0.4-0.2-0.5-0.2c-0.8-0.4-1.8-0.8-2.6-1.3c-2.4-5-6.9-7.8-11.3-10.9c-0.2-0.7-0.6-1.4-1.1-2.5c1.7,0.6,2.9,1,4.2,1.5
			c3.1,3.7,6.4,7,10.9,8.9c0.6,0.7,1.3,1.5,1.8,2.2S179.9,29.2,180.2,29.8z"/>
		<path class="st13" d="M170.8,53.5c4.3,6,7.6,12.5,10.1,19.5C175.5,67.6,171,61.7,170.8,53.5z"/>
		<path class="st12" d="M164.4,4.8L164.4,4.8c-0.1-0.3-0.2-0.5-0.3-0.8c0-0.6-0.1-1.1-0.2-2.1c0.7,0.4,1.1,0.7,1.6,0.9
			c3.3,4.9,6.9,9.8,10.2,14.7c0.4,1.5,0.7,2.9,1.3,5.2c-1.3-1.3-2-1.8-2.7-2.5C171.7,14.7,168.7,9.3,164.4,4.8z"/>
		<path class="st13" d="M167.2,34.7c4.7,3.9,10.5,6.5,13.8,11.9C175,44.3,169.9,40.9,167.2,34.7z"/>
		<path class="st13" d="M164.3,4.7c4.4,4.5,7.3,9.9,9.9,15.6C169.4,16.2,165.2,11.5,164.3,4.7z"/>
		<path class="st13" d="M199.1,63.5c-4.8,4-9.4,8-14.1,12C188.1,69.8,192.3,65.1,199.1,63.5z"/>
		<path class="st13" d="M163.3,17.8c4.3,2.9,8.9,5.9,11.3,10.9C169.5,26.4,165.6,23,163.3,17.8z"/>
		<path class="st13" d="M175.8,17.7c-3.3-4.9-6.9-9.8-10.2-14.7C171.2,6.3,174.2,11.4,175.8,17.7z"/>
		<path class="st13" d="M185.8,17.1c-0.9,5.5-1.9,11.1-2.9,16.5C182.2,27.8,182.5,22.2,185.8,17.1z"/>
		<path class="st13" d="M187.7,76.5c1.4-3.8,5-5.1,8.3-7.7c-0.1,0.1,0.2-0.4,0.4-1.1c0.5,0,1.3,0,1.8,0
			C195.9,71.8,192.2,74.7,187.7,76.5z"/>
		<path class="st13" d="M191.8,56.5c0.5-1.6,1-2.9,1.4-3.9c1.3-1.6,2-2.6,2.8-3.8c0-0.1-0.2-0.2-0.2-0.2c1.1-1.6,2.3-3,3.6-4.5
			C198.4,49.1,195.7,53,191.8,56.5z"/>
		<path class="st13" d="M177.2,25.7c-4.4-2.1-7.7-5.2-10.9-8.9C171,18.4,174.4,21.6,177.2,25.7z"/>
		<path class="st13" d="M178.3,25.9c0.1,0,0.3-0.1,0.4-0.1c0.5,1.4,1.1,2.7,1.6,4.1c-0.5-0.7-0.9-1.4-1.4-2
			C178.7,27.3,178.4,26.6,178.3,25.9z"/>
		<path class="st13" d="M184.3,41.2c-0.1,0-0.3,0-0.5,0.1c-0.2-0.6-0.4-1.4-0.6-1.9c0.3-0.4,0.6-1,0.9-1.5
			C184.2,39.1,184.3,40.2,184.3,41.2z"/>
		<path class="st13" d="M186,54.6c0.1,1.7,0.1,3.4,0.2,5C186.1,57.9,186,56.3,186,54.6z"/>
		<path class="st12" d="M180.5,31.5c0.2-0.1,0.2-0.2,0.4-0.3c0.2,0.7,0.5,1.4,0.7,2.1c-0.2,0.1-0.3,0-0.5,0.1
			C180.9,32.8,180.7,32.1,180.5,31.5z"/>
		<path class="st13" d="M178.2,25.2C177.4,24,177.2,23.9,178.2,25.2C177.5,23.6,177.6,24,178.2,25.2z"/>
		<path class="st13" d="M181.1,46.7c0.3,0.1,0.4,0.2,0.6,0.3C181.5,47,181.3,47,181.1,46.7z"/>
		<path class="st13" d="M164.1,4c0.1,0.3,0.2,0.5,0.3,0.8C164.3,4.5,164.2,4.3,164.1,4z"/>
		<path class="st13" d="M180.9,73.2c0.2,0.2,0.4,0.4,0.5,0.6C181.3,73.6,181.1,73.3,180.9,73.2z"/>
		<path class="st13" d="M199.4,43.9c0.2-0.2,0.2-0.4,0.2-0.5C199.6,43.6,199.6,43.7,199.4,43.9z"/>
		<path class="st13" d="M174.1,53.4c-0.1-0.1-0.2-0.2-0.3-0.3C173.9,53.2,174.1,53.4,174.1,53.4z"/>
		<path class="st13" d="M183.1,36.5c0,0.1,0,0.1,0.1,0.2l-0.2,0.2c-0.1-0.2-0.2-0.2-0.3-0.4C182.9,36.4,183,36.4,183.1,36.5z"/>
		<path class="st13" d="M177.1,30c0.2,0,0.4,0.2,0.5,0.2C177.5,30.2,177.3,30,177.1,30z"/>
		<path class="st13" d="M176.8,22.6c0.1,0.2,0.1,0.3,0.1,0.3h-0.1C176.8,22.8,176.9,22.7,176.8,22.6L176.8,22.6z"/>
		<path class="st13" d="M186.7,54.4c0.1,0.6,0.1,1.1,0.1,1.9C186.9,55.7,186.9,55,186.7,54.4z"/>
		<path class="st13" d="M185.4,48.2c-0.6-0.6-0.8-0.9-0.9-1c0.2-0.1,0.3-0.2,0.5-0.3C185.1,47.1,185.2,47.3,185.4,48.2z"/>
		<path class="st13" d="M183.1,36.8c0,0.1,0.2,0.2-1.3-2.1C183.1,37.1,183.1,37,183.1,36.8C183,36.8,183.2,36.6,183.1,36.8z"/>
		<path class="st12" d="M182.1,68c0.1,0.3,0.1,0.5,0.2,0.8C182.2,68.5,182.2,68.3,182.1,68z"/>
	</g>
</g>
</svg>
