<?xml version="1.0" encoding="utf-8"?>
<!-- Generator: Adobe Illustrator 26.0.2, SVG Export Plug-In . SVG Version: 6.00 Build 0)  -->
<svg version="1.1" id="Calque_1" xmlns="http://www.w3.org/2000/svg" xmlns:xlink="http://www.w3.org/1999/xlink" x="0px" y="0px"
	 viewBox="0 0 788 371" style="enable-background:new 0 0 788 371;" xml:space="preserve">
<style type="text/css">
	.st0{fill:#D48F72;}
	.st1{fill:#37344D;}
	.st2{fill:#1A1818;}
	.st3{fill:#BF7F75;}
	.st4{fill:none;stroke:#000000;stroke-width:3;stroke-miterlimit:10;}
	.st5{fill:#DDDDDD;}
	.st6{fill:#46455B;}
	.st7{fill:#66463A;}
	.st8{fill:#3A2C28;}
	.st9{fill:#DFE0D3;}
</style>
<path class="st0" d="M209.8,225.8c-19.6,3.3-29.9-16.4-33.2-23.7s-6.1-23.6-7.4-31.6c-3.5-20.4-6.6-55.2-10.3-75.1
	c-2.5-13.1-4.2-20,4.5-23.6c7.9-3.4,14.8,8,17.6,12.4c11.4,18.2,34.2,53.5,42.7,74.3c3.5,8.5,8.9,26.4,9.1,35.5
	C233.5,219.6,215.5,224.9,209.8,225.8z"/>
<path class="st0" d="M175.9,74.2l-4.1-18.7l-13-23.4c0,0-4.5,3.1-4.9,4.7c-1.2,5,1.9,12.6,3.5,17.6c0.2,0.6-0.6,3.7-1.2,4.1
	c-2.5,1.6-7.3-2.4-7.3-2.4l10.4,16.5L175.9,74.2z"/>
<path class="st0" d="M170.7,70.3L154.5,83l-32.1-29.8l-19.5-40.8c0,0,6.6-1.3,8.5-0.5c10.1,4.3,19.7,24.8,26.8,32.6
	C145.9,53.1,170.7,70.3,170.7,70.3z"/>
<ellipse transform="matrix(0.9999 -1.588183e-02 1.588183e-02 0.9999 -1.1907 2.6136)" class="st0" cx="164" cy="76.3" rx="12.1" ry="11.2"/>
<polygon class="st1" points="183.3,82.4 194.8,101.1 155.6,116.1 151.8,91.1 "/>
<polygon class="st2" points="232.6,350.6 232.5,350.6 232.5,350.5 "/>
<polygon points="232.7,350.5 232.7,350.6 232.6,350.6 "/>
<polygon class="st2" points="232.6,350.6 232.5,350.6 232.5,350.5 "/>
<polygon points="232.7,350.5 232.7,350.6 232.6,350.6 "/>
<path class="st0" d="M413.5,204.2c10.8,6.5,22.3,32.3,34.8,34.9c4.4,1,13.4-4.9,15.8-8.4c8.9-12.9,4.6-49.3,17.2-59.3
	c10.6-8.4,36.2-3.6,36.9-39.2c0.4-21.6-26.9-31.9-33.5-34.1c-1.1-0.3-2.1-0.8-3.2-1.2l-40.5-18.6c-9.6-4.4-15.7-13.4-15.8-23.3
	l-0.2-16.7l-27,1.9l-26.6-1.9l0.1,14.6c0.1,11.2-6.7,21.4-17.5,26.4l-40.1,18.4c0,0-35.4,10-35,34.6c0.6,35.5,26.2,30.7,36.9,39.2
	c12.6,10,8.3,46.3,17.2,59.3c2.5,3.6,11.4,9.4,15.8,8.4c12.5-2.7,23.5-29.2,34.8-34.9C389.9,200.9,407.2,200.4,413.5,204.2z"/>
<polygon class="st0" points="400.6,33.4 425.6,37.1 426.6,90.8 399.1,120.9 371.9,90.8 372.9,37.1 "/>
<path class="st3" d="M400.8,6.6l25.9,3.7l-1.1,44.8l-14,13.3c0,0-24.4,18.3-32.8,14.6c-7-3-17.8-8.5-17.8-8.5s7.2-5.6,9.9-17.1
	c0.5-2,0.4-5.1,0.3-8.3c-0.6-36,0.8-38.9,0.8-38.8L400.8,6.6z"/>
<path class="st4" d="M468,282.8c-0.9-3.7-5.7-23.4-5.6-31.3c0.1-8.5,4-25.7,1.8-34c-9.8-36.7-123.5-36.7-133.3,0
	c-2.2,8.3,1.7,25.5,1.8,34c0.1,7.9-4.7,27.6-5.6,31.3c-11,46.6,70.4,68,70.4,68S479.1,329.4,468,282.8z"/>
<path class="st5" d="M436.6,269c16.2,4.8,23.2,8.9,27,15.3c3.1,5.2,6,17.1,6.3,23.1c0.5,14-7.8,49-21.9,60.7
	c-14.4,11.9-84.8,11.9-99.2,0c-14.2-11.7-22.5-46.8-21.9-60.7c0.2-5.9,3.2-17.9,6.3-23.1c3.8-6.4,10.9-10.5,27-15.3
	c18.5-5.5,37.3-4.7,37.3-4.7S418.1,263.6,436.6,269z"/>
<path class="st4" d="M336,142.2c-11.9,23.1-40.9,35.9-40.9,35.9s-53,30.3-70.4,40.7c-8.2,4.9-25.2,15.4-38.9-3.3l0,0
	c-11.3-15.4,2.8-28.1,10.2-33.5c15-11,47.9-30.2,60.5-43.3c9.4-9.7,19.8-28.1,43.1-33.5c0,0,18.6-6.4,31.8,7.6l0.5,0.5
	C339.2,121.1,340.9,132.7,336,142.2L336,142.2z"/>
<path class="st6" d="M522.7,219.2l-32.8-41.6l-10.7,69.5l18.5,123l-13.9,22.1l-176.4,0.4l-7-15.2L316,244.2l-7.2-59.1
	c0,0-54.2,45.2-71.3,59.1c-6.9,5.6-27,16.9-35.7,15.2c-8.4-1.7-19.9-15.2-22.2-22.8c-3.7-11.4-10.3-34-13.7-48
	c-4.2-22.7-19.5-66.4-14.5-83.5c0.9-3,4.2-5.2,7.5-5.3c1.3,0,2.6,0,4-0.1l13.8-1.3c5.2-0.2,10.5,0.3,15.6,1.6
	c3.1,0.8,5.8,1.8,5.8,2.8l27.4,56.1c0,0,41.6-41.3,55.6-49.2c32.9-18.4,73.9-34.9,79.6-39.4C368.5,64,371,42.9,371,42.9l55.9-0.1
	c0,0,3.2,22.5,12.1,28c7.3,4.5,41,21.9,64,28c36.5,9.6,73.8,85.1,85.5,102.6c7.9,8.7-6.2,66.7-36,50.5"/>
<path class="st7" d="M509.6,461.2c0,0-17.4,22.4-21.5,18.1c-4-4.2-48-195-49.7-202.4c0-0.2-0.1-0.3-0.1-0.5L426.7,45.9
	c-0.1-1.6,1.3-3,2.9-2.8l0.1,0c0.9,0.1,1.7,0.6,2.1,1.4l9.9,18.1c0.3,0.6,0.9,1.1,1.6,1.3l56.5,17c1.2,0.4,2,1.5,1.9,2.7
	c-1,20.7-9.1,187.9-9.1,188c0,0.1,26.1,158,28.6,173.1c0.1,0.7-0.1,1.5-0.5,2.1L509.6,461.2z"/>
<path class="st7" d="M285.5,460.8c0,0,17.4,22.4,21.5,18.1s49.7-202.7,49.7-202.7l14.5-230.5c0.1-1.4-0.9-2.6-2.3-2.8l0,0
	c-1.1-0.2-2.1,0.3-2.7,1.2l-13.4,21.3c-0.3,0.5-0.8,0.9-1.4,1.1l-54.3,18.2c-1.1,0.4-1.9,1.5-1.8,2.6c0.8,20,7.2,183.4,7.2,183.5
	c0,0.1-26.2,158-28.6,173.1c-0.1,0.7,0.1,1.5,0.5,2.1L285.5,460.8z"/>
<circle class="st8" cx="342" cy="266.9" r="6.3"/>
<path class="st9" d="M378.6,206.1l5.8,98.2c0.5,7.7,7,13.6,14.7,13.3l77.8-3.3c7.1-0.3,12.9-5.8,13.5-12.8l9-96
	c0.8-8.4-5.9-15.6-14.3-15.5l-92.6,1.1C384.5,191.2,378.1,198.1,378.6,206.1z"/>
<path class="st0" d="M419.5,267.8l-18-11.6c-0.3-0.2-0.7-0.4-1.1-0.4l-15.7-3.6c-2.6-0.6-4.8,1.9-3.9,4.4l0.4,1.1
	c0.3,0.9,1,1.6,1.8,1.9l8,3.4c0.6,0.2,1.1,0.6,1.4,1.1l0,0c1.5,2.2,0,5.2-2.6,5.3l-4.2,0.1c-1.8,0-3.4-1.4-3.4-3.2l-0.1-3.3
	c-0.1-1.6-1.3-3-2.9-3.2l-1.8-0.2c-1.1-0.1-2.2,0.3-2.9,1.1l-9.1,10.5c-0.6,0.7-0.9,1.7-0.8,2.7l3.8,24.4c0.2,1.2,1.1,2.3,2.2,2.6
	l16.2,5.4c0.8,0.3,1.7,0.2,2.4-0.1l32.8-14.8c0.1-0.1,0.3-0.1,0.4-0.2l9.6-2.8c0.1,0,0.1,0,0.2-0.1L447,285c2.5-0.6,3.4-3.6,1.8-5.5
	l-11.9-13.5c-0.9-1-2.4-1.4-3.7-0.9l-6.4,2.3c-0.2,0.1-0.5,0.1-0.7,0.2l-4.4,0.6C420.9,268.4,420.1,268.2,419.5,267.8z"/>
<polygon class="st1" points="419.7,266.7 436.4,259.4 440.2,289.2 423.6,292.9 "/>
<path class="st6" d="M567.1,254.1c-24.4,6.7-120.1,38-120.1,38l-4.8,0.7c-4.6,0.7-8.8-2.4-9.6-6.9c0-0.5-0.1-1-0.1-1.6l0.4-19.2
	c0.1-5.3,3.8-9.8,8.9-11.1l16.7-4.2l55.6-40"/>
</svg>
