<svg xmlns="http://www.w3.org/2000/svg" viewBox="0 0 200 200"><defs><style>.cls-1{fill:#de9d92;}.cls-2{fill:#f6af97;}.cls-3{fill:#ad7242;}</style></defs><g id="Calque_7" data-name="Calque 7"><path class="cls-1" d="M138.93,123.93l3-22.8s11.84-9.43,19.2-3.55c4.62,3.69-4.47,28.23-12.61,30C143.91,128.61,138.93,123.93,138.93,123.93Z"/><path class="cls-1" d="M64.31,123.93l-3-22.8S49.42,91.7,42.06,97.58c-4.62,3.69,4.47,28.23,12.61,30C59.33,128.61,64.31,123.93,64.31,123.93Z"/><path class="cls-2" d="M99.79,164.06c-3.05-.26-7.19-.36-9.42-1.2-5.44-2.06-11.82-7.67-18.62-14a23,23,0,0,1-4-4.52c-3.57-5.9-5.35-20.14-5.5-27a119.52,119.52,0,0,0-1.65-16l-4.1-2.89.35-20.73c0-21.49,20.73-39.72,42.22-39.72h4.57c21.49,0,42.22,18.23,42.22,39.72l.35,20.73-4.1,2.89a121.41,121.41,0,0,0-1.65,16c-.15,6.9-1.93,21.14-5.5,27a23,23,0,0,1-4,4.52c-6.8,6.31-13.18,11.92-18.62,14-2.22.84-6.37.94-9.42,1.2"/></g><g id="cheuveu"><path class="cls-3" d="M58.31,99.67s-5.34-2.06-6.49-5.9c-2.09-7,1.34-28.65,1.34-28.65s2.38,5.58,4.62,5C53.67,66,57,53.47,57,53.47l5.75,6.83s-2.59-9.84-2-13.56c1-6.07,11.53-14.13,11.53-14.13l4.44,6.58A15.75,15.75,0,0,1,79,30.28C80.89,27.54,89.23,21,89.23,21l6.09,15.49s3.35-13.38,2.1-18.29c1.69,1.76,13.2,6.74,13.54,17.46,4.07.69,10.42-9.23,11.35-9.18-3.12,8.87,11.07,12.06,7.58,20.7,1.7.63,5.43-4.82,5.43-4.82s5.82,7.27,3.63,13.46c2.52.17,3.79-7.82,3.79-7.82s4.77,10.22,5.42,13.32c.68,3.25-.48,11.22-.48,11.22l4.09-4.93s2.83,22,1.92,24.65c-1.72,5.1-9.31,7.45-9.31,7.45s-4.31-37.13-14.45-39.08c-5.53-1.06-23.15,2.18-29.56,2.13-9.65-.07-22.62-.79-25.91-.37C61.58,64,58.31,99.67,58.31,99.67Z"/></g></svg>