<svg xmlns="http://www.w3.org/2000/svg" viewBox="0 0 200 200"><defs><style>.cls-1{fill:#de9d92;}.cls-2{fill:#f6af97;}.cls-3{fill:#6f3c25;}</style></defs><g id="Calque_7" data-name="Calque 7"><path class="cls-1" d="M138.93,123.93l3-22.8s11.84-9.43,19.2-3.55c4.62,3.69-4.47,28.23-12.61,30C143.91,128.61,138.93,123.93,138.93,123.93Z"/><path class="cls-1" d="M64.31,123.93l-3-22.8S49.42,91.7,42.06,97.58c-4.62,3.69,4.47,28.23,12.61,30C59.33,128.61,64.31,123.93,64.31,123.93Z"/><path class="cls-2" d="M99.79,164.06c-3.05-.26-7.19-.36-9.42-1.2-5.44-2.06-11.82-7.67-18.62-14a23,23,0,0,1-4-4.52c-3.57-5.9-5.35-20.14-5.5-27a119.52,119.52,0,0,0-1.65-16l-4.1-2.89.35-20.73c0-21.49,20.73-39.72,42.22-39.72h4.57c21.49,0,42.22,18.23,42.22,39.72l.35,20.73-4.1,2.89a121.41,121.41,0,0,0-1.65,16c-.15,6.9-1.93,21.14-5.5,27a23,23,0,0,1-4,4.52c-6.8,6.31-13.18,11.92-18.62,14-2.22.84-6.37.94-9.42,1.2"/></g><g id="cheuveu"><path class="cls-3" d="M138.08,55.4S108.44,59.74,100,57.89c-38-8.28-34.38-.34-39.91,5.17C64.34,43.51,55.59,37.27,99.17,34c11-.84,22.36,0,28.35-6.46,1.59-1.73.89-6.65-1.58-9.27s6.83-.76,14,4.92,12.85,16.29,8.52,22.63C146,49.36,138.08,55.4,138.08,55.4Z"/></g></svg>