<svg xmlns="http://www.w3.org/2000/svg" viewBox="0 0 788 1005"><defs><style>.cls-1{fill:#de9d92;}.cls-2{fill:#f6af97;}.cls-3{fill:#5e4002;}.cls-4{fill:#412b00;}</style></defs><g id="Calque_7" data-name="Calque 7"><path class="cls-1" d="M432.34,127.92l3-22.8s11.84-9.44,19.2-3.56c4.62,3.7-4.47,28.24-12.61,30C437.32,132.59,432.34,127.92,432.34,127.92Z"/><path class="cls-1" d="M357.72,127.92l-3-22.8s-11.85-9.44-19.21-3.56c-4.62,3.7,4.47,28.24,12.61,30C352.74,132.59,357.72,127.92,357.72,127.92Z"/><path class="cls-2" d="M393.2,168c-3.05-.26-7.19-.36-9.42-1.2-5.44-2.06-11.82-7.67-18.62-14a23,23,0,0,1-4-4.52c-3.57-5.9-5.35-20.14-5.5-27a119.26,119.26,0,0,0-1.65-16l-4.1-2.9.35-20.73c0-21.49,20.73-39.72,42.22-39.72H397c21.49,0,42.22,18.23,42.22,39.72l.35,20.73-4.1,2.9a121.15,121.15,0,0,0-1.65,16c-.15,6.9-1.93,21.14-5.5,27a23,23,0,0,1-4,4.52c-6.8,6.31-13.18,11.92-18.62,14-2.22.84-6.37.94-9.42,1.2"/></g><g id="cheuveu"><path class="cls-3" d="M368.26,59.22c-17.94-2.62-17.21-17.61-8.81-25.88C374,19.05,406.92,12.81,430,32.14c24.8,20.75,22.23,45.58,14.06,48.9-2.48,1-3.07,22.41-4.47,21.32-8.92-7-10-26.46-12-33.14-2.46-8.13-3.81-22.72-38-13.2C387.14,56.7,370.78,59.59,368.26,59.22Z"/><path class="cls-3" d="M348.84,48.44c8.88-4.27,13.27,13,13.6,18.81.59,10-9.33,35.19-12.54,38.2s-7.06-3.39-7.2-3.92S328,58.44,348.84,48.44Z"/><path class="cls-4" d="M368.26,59.22c-1.06-.62-10.48-21.34,17.13-22.28S446.08,52.63,449,66.07s-9.23,36.66-9.41,36.29-3.07,2.52-8.87-11.39c-3.69-8.87-3.58-23.29-15.89-27.69S375.05,63.22,368.26,59.22Z"/></g></svg>