<?xml version="1.0" encoding="utf-8"?>
<!-- Generator: Adobe Illustrator 26.0.1, SVG Export Plug-In . SVG Version: 6.00 Build 0)  -->
<svg version="1.1" id="Calque_1" xmlns="http://www.w3.org/2000/svg" xmlns:xlink="http://www.w3.org/1999/xlink" x="0px" y="0px"
	 viewBox="0 0 788 1005" style="enable-background:new 0 0 788 1005;" xml:space="preserve">
<style type="text/css">
	.st0{fill:#502E23;}
	.st1{fill:#C78D71;}
	.st2{fill:#6B3D2F;}
</style>
<path class="st0" d="M447.9,57.1c-0.4,1.3,19.7,24.4,4.2,49.3c-10.2,16.4,1.4,29.3-8,38.7s-41.1,15.8-56.9,11.8s-37.5-0.4-44.5-16.7
	c-20-46.7-7.8-65.5-0.9-75.7c9.2-13.7,19.1,10.3,32.7,7.3S447.9,57.1,447.9,57.1z"/>
<path class="st1" d="M454.5,101.5c-4.5-3.5-10.7-1.4-14.8,0.8l-0.4-20.6c0-21.5-20.7-39.7-42.2-39.7h-4.5
	c-21.5,0-42.2,18.2-42.2,39.7l-0.4,20.4c-4.1-2.1-10.1-4.1-14.5-0.6c-4.6,3.7,4.5,28.2,12.6,30c3.1,0.7,6.3-1.1,8.2-2.4
	c0.8,6.9,2.4,15.1,4.9,19.2c1.1,1.7,2.5,3.2,4,4.5c6.8,6.3,13.2,11.9,18.6,14c2.2,0.8,6.4,0.9,9.4,1.2h3.3c3-0.3,7.2-0.4,9.4-1.2
	c5.4-2.1,11.8-7.7,18.6-14c1.5-1.3,2.9-2.8,4-4.5c2.5-4.2,4.2-12.5,5-19.4c1.7,1.3,5.2,3.4,8.4,2.6
	C450,129.7,459.1,105.2,454.5,101.5z"/>
<path class="st2" d="M371.4,61.8c-17.9-2.6-17.2-17.6-8.8-25.9c14.5-14.3,47.5-20.5,70.6-1.2c24.8,20.8,22.2,45.6,14.1,48.9
	c-2.5,1-3.8,15.7-5.2,14.6c-8.9-6.9-9.3-19.7-11.3-26.4c-2.5-8.1-3.8-22.7-38-13.2C390.3,59.3,374,62.2,371.4,61.8z"/>
<path class="st2" d="M374.5,62.7c-31.2,6.3-24.6,40.7-24.6,40.7c-0.6,4.8-1.5,9.8-2.5,14.3c0.1,5.9-0.8,12.9-4.4,18
	c-7.4,10.4-21,8.6-21,8.6c6.3-1.8,14.4-22.3,10.6-35c-3.1-16.6-3.3-37.7,10.1-51.3c6.9-7,23-8.1,23.8-2.3
	C366.5,55.8,382.7,61,374.5,62.7z"/>
<path class="st0" d="M374.5,61.7c-1.2-0.1-0.6-16,27-17s48.6,10.1,51.5,23.6s-4.9,31.3-5.3,31.3c-8.3,0.6-7.2,7.5-13-6.4
	c-3.7-8.9-3.6-23.3-15.9-27.7S399.9,64,374.5,61.7z"/>
<path class="st0" d="M374.5,61.7c0,0-17.4-4.2-23,9.3c-4.1,9.8-2.5,25.4-1.6,31.4c0,0,4.2,3.5,4.4,2.4
	C354.3,104.1,354.2,67.4,374.5,61.7z"/>
</svg>
