<?xml version="1.0" encoding="utf-8"?>
<!-- Generator: Adobe Illustrator 26.0.0, SVG Export Plug-In . SVG Version: 6.00 Build 0)  -->
<svg version="1.1" id="Calque_1" xmlns="http://www.w3.org/2000/svg" xmlns:xlink="http://www.w3.org/1999/xlink" x="0px" y="0px"
	 viewBox="0 0 200 200" style="enable-background:new 0 0 200 200;" xml:space="preserve">
<style type="text/css">
	.st0{fill:#C78D71;}
	.st1{fill:#6B3D2F;}
</style>
<g id="Calque_7">
	<path class="st0" d="M138.9,123.9l3-22.8c0,0,11.8-9.4,19.2-3.6c4.6,3.7-4.5,28.2-12.6,30C143.9,128.6,138.9,123.9,138.9,123.9z"/>
	<path class="st0" d="M64.3,123.9l-3-22.8c0,0-11.9-9.4-19.2-3.6c-4.6,3.7,4.5,28.2,12.6,30C59.3,128.6,64.3,123.9,64.3,123.9z"/>
	<path class="st0" d="M99.8,164.1c-3.1-0.3-7.2-0.4-9.4-1.2c-5.4-2.1-11.8-7.7-18.6-14c-1.5-1.3-2.9-2.8-4-4.5
		c-3.6-5.9-5.3-20.1-5.5-27c-0.2-5.4-0.7-10.7-1.7-16l-4.1-2.9l0.3-20.7C56.8,56.2,77.6,38,99.1,38h4.6c21.5,0,42.2,18.2,42.2,39.7
		l0.4,20.7l-4.1,2.9c-0.9,5.3-1.5,10.6-1.6,16c-0.1,6.9-1.9,21.1-5.5,27c-1.1,1.7-2.5,3.2-4,4.5c-6.8,6.3-13.2,11.9-18.6,14
		c-2.2,0.8-6.4,0.9-9.4,1.2"/>
</g>
<g id="cheuveu">
	<path class="st1" d="M101,8.1c0,0,6.2,7.4,21.2,14.8c4.7,2.3,8.8,4.5,12.1,6.5c8.1,4.7,13.4,13.1,14,22.5c0.2,2.7,0.4,5.1,0.6,6.1
		c2,11.2-3.5,25.3-3.5,25.3s-3.4-25-10.1-28.6c-13.3-7.2-41.1,9.9-60.2-7.2C48.7,23.7,101,8.1,101,8.1z"/>
</g>
</svg>
