<svg xmlns="http://www.w3.org/2000/svg" viewBox="0 0 788 1005"><defs><style>.cls-1{fill:#de9d92;}.cls-2{fill:#f6af97;}.cls-3{fill:#6f3c25;}</style></defs><g id="Calque_7" data-name="Calque 7"><path class="cls-1" d="M432.34,127.92l3-22.8s11.84-9.44,19.21-3.56c4.61,3.7-4.48,28.24-12.62,30C437.32,132.59,432.34,127.92,432.34,127.92Z"/><path class="cls-1" d="M357.72,127.92l-3-22.8s-11.85-9.44-19.21-3.56c-4.62,3.7,4.47,28.24,12.61,30C352.74,132.59,357.72,127.92,357.72,127.92Z"/><path class="cls-2" d="M393.2,168c-3.05-.26-7.19-.36-9.42-1.2-5.44-2.06-11.82-7.67-18.62-14a23,23,0,0,1-4-4.52c-3.57-5.9-5.35-20.14-5.5-27a119.26,119.26,0,0,0-1.65-16l-4.1-2.9.35-20.73c0-21.49,20.73-39.72,42.22-39.72H397c21.49,0,42.22,18.23,42.22,39.72l.35,20.73-4.1,2.9a121.15,121.15,0,0,0-1.65,16c-.15,6.9-1.93,21.14-5.5,27a23,23,0,0,1-4,4.52c-6.8,6.31-13.18,11.92-18.62,14-2.22.84-6.37.94-9.42,1.2"/></g><g id="cheuveu"><path class="cls-3" d="M431.49,59.38s-29.64,4.34-38.12,2.49c-38-8.28-34.38-.34-39.91,5.17,4.29-19.54-4.46-25.79,39.12-29.11,11-.84,22.36,0,28.35-6.46,1.59-1.72.89-6.65-1.57-9.27s6.82-.76,14,4.92,12.85,16.3,8.52,22.63C439.38,53.35,431.49,59.38,431.49,59.38Z"/></g></svg>