<svg xmlns="http://www.w3.org/2000/svg" viewBox="0 0 138.97 166.1"><defs><style>.cls-1{fill:#87442d;}.cls-2{fill:#aa5b3f;}.cls-3{fill:#472e1d;}</style></defs><g id="cheuveu"><path class="cls-1" d="M109.88,113.47l3.3-24.69S126,78.56,134,84.94c5,4-4.85,30.57-13.66,32.49C115.28,118.54,109.88,113.47,109.88,113.47Z"/><path class="cls-1" d="M29.08,113.47,25.79,88.78S13,78.56,5,84.94c-5,4,4.84,30.57,13.65,32.49C23.69,118.54,29.08,113.47,29.08,113.47Z"/><path class="cls-2" d="M67.51,156.92c-3.3-.28-7.8-.39-10.2-1.3-5.9-2.22-12.8-8.3-20.16-15.14a24.9,24.9,0,0,1-4.35-4.89c-3.86-6.39-5.8-21.81-5.95-29.28a129.58,129.58,0,0,0-1.8-17.38L20.62,85.8,21,63.35c0-23.27,22.45-43,45.72-43h4.94c23.27,0,45.72,19.74,45.72,43l.38,22.45-4.43,3.13a129.58,129.58,0,0,0-1.8,17.38c-.15,7.47-2.09,22.89-6,29.28a24.9,24.9,0,0,1-4.35,4.89C93.87,147.32,87,153.4,81.07,155.62c-2.4.91-6.9,1-10.2,1.3"/><path class="cls-3" d="M116.57,86.64h0a2.65,2.65,0,0,1-4.15-1.73c-1.16-7-2.9-20.86-3.1-22.5a1.72,1.72,0,0,1,0-.32V46.94a2.66,2.66,0,0,0-2.84-2.65L68.55,46.84h-.36L31.92,44.3A2.65,2.65,0,0,0,29.08,47V62.09c0,.11,0,.21,0,.32-.21,1.64-1.94,15.49-3.11,22.5a2.65,2.65,0,0,1-4.15,1.73h0a2.63,2.63,0,0,1-1.12-2.28c.29-7.13-2.21-32.26,2.25-41.7,4-8.54,21.39-19.72,30.47-22.33,7.59-2.18,24-2.18,31.59,0,9.07,2.61,26.44,13.79,30.47,22.33,4.46,9.44,1.94,34.58,2.24,41.7A2.66,2.66,0,0,1,116.57,86.64Z"/></g></svg>