<?xml version="1.0" encoding="utf-8"?>
<!-- Generator: Adobe Illustrator 26.0.1, SVG Export Plug-In . SVG Version: 6.00 Build 0)  -->
<svg version="1.1" id="Calque_1" xmlns="http://www.w3.org/2000/svg" xmlns:xlink="http://www.w3.org/1999/xlink" x="0px" y="0px"
	 viewBox="0 0 788 1005" style="enable-background:new 0 0 788 1005;" xml:space="preserve">
<style type="text/css">
	.st0{fill:#C78D71;}
	.st1{fill:#6B3D2F;}
</style>
<path class="st0" d="M454.5,101.5c-4.5-3.5-10.7-1.4-14.8,0.8l-0.4-20.6c0-21.5-20.7-39.7-42.2-39.7h-4.5
	c-21.5,0-42.2,18.2-42.2,39.7l-0.4,20.4c-4.1-2.1-10.1-4.1-14.5-0.6c-4.6,3.7,4.5,28.2,12.6,30c3.1,0.7,6.3-1.1,8.2-2.4
	c0.8,6.9,2.4,15.1,4.9,19.2c1.1,1.7,2.5,3.2,4,4.5c6.8,6.3,13.2,11.9,18.6,14c2.2,0.8,6.4,0.9,9.4,1.2h3.3c3-0.3,7.2-0.4,9.4-1.2
	c5.4-2.1,11.8-7.7,18.6-14c1.5-1.3,2.9-2.8,4-4.5c2.5-4.2,4.2-12.5,5-19.4c1.7,1.3,5.2,3.4,8.4,2.6
	C450,129.7,459.1,105.2,454.5,101.5z"/>
<g id="cheuveu">
	<path class="st1" d="M349.9,102.4c0,0,1.2-18.1,2.8-22.6c2.2-6.2,6.7-16.8,12.9-19c6.5-2.4,23.3,1.7,30.3,1.8
		c6.6,0.1,19.9-5.3,26.1-3c3.9,1.4,8.8,9.1,10.6,12.9c3.2,6.8,7.1,29.9,7.1,29.9s2.6-21.6,0.9-29.3c-1.5-6.8-10.7-21.6-16.3-25.8
		s-20-6.2-26.9-6.9s-21.2,0.9-27.6,3.7c-6,2.7-15.3,13-18.6,18.7c-2,3.5-4.2,11.5-4.1,15.5C347.2,83.6,349.9,102.4,349.9,102.4z"/>
</g>
</svg>
