<?xml version="1.0" encoding="utf-8"?>
<!-- Generator: Adobe Illustrator 26.0.1, SVG Export Plug-In . SVG Version: 6.00 Build 0)  -->
<svg version="1.1" id="Calque_1" xmlns="http://www.w3.org/2000/svg" xmlns:xlink="http://www.w3.org/1999/xlink" x="0px" y="0px"
	 viewBox="0 0 788 1005" style="enable-background:new 0 0 788 1005;" xml:space="preserve">
<style type="text/css">
	.st0{fill:#C78D71;}
	.st1{fill:#6B3D2F;}
</style>
<path class="st0" d="M454.5,101.5c-4.5-3.5-10.7-1.4-14.8,0.8l-0.4-20.6c0-21.5-20.7-39.7-42.2-39.7h-4.5
	c-21.5,0-42.2,18.2-42.2,39.7l-0.4,20.4c-4.1-2.1-10.1-4.1-14.5-0.6c-4.6,3.7,4.5,28.2,12.6,30c3.1,0.7,6.3-1.1,8.2-2.4
	c0.8,6.9,2.4,15.1,4.9,19.2c1.1,1.7,2.5,3.2,4,4.5c6.8,6.3,13.2,11.9,18.6,14c2.2,0.8,6.4,0.9,9.4,1.2h3.3c3-0.3,7.2-0.4,9.4-1.2
	c5.4-2.1,11.8-7.7,18.6-14c1.5-1.3,2.9-2.8,4-4.5c2.5-4.2,4.2-12.5,5-19.4c1.7,1.3,5.2,3.4,8.4,2.6
	C450,129.7,459.1,105.2,454.5,101.5z"/>
<g id="cheuveu">
	<path class="st1" d="M351.7,103.7c0,0-5.3-2.1-6.5-5.9c-2.1-7,1.3-28.7,1.3-28.7s2.4,5.6,4.6,5.1c-4.1-4.1-0.8-16.7-0.8-16.7
		l5.8,6.8c0,0-2.6-9.8-2-13.6c1-6.1,11.5-14.1,11.5-14.1l4.4,6.6c-0.1-3.1,0.7-6.2,2.3-8.9c1.9-2.7,10.2-9.3,10.2-9.3l6.1,15.5
		c0,0,3.4-13.4,2.1-18.3c1.7,1.8,13.2,6.7,13.5,17.5c4.1,0.7,10.4-9.2,11.4-9.2c-3.1,8.9,11.1,12.1,7.6,20.7
		c1.7,0.6,5.4-4.8,5.4-4.8s5.8,7.3,3.6,13.5c2.5,0.2,3.8-7.8,3.8-7.8s4.8,10.2,5.4,13.3c0.7,3.3-0.5,11.2-0.5,11.2l4.1-4.9
		c0,0,2.8,22,1.9,24.7c-1.7,5.1-9.3,7.4-9.3,7.4s-4.3-37.1-14.5-39.1c-5.5-1.1-23.1,2.2-29.6,2.1c-9.6-0.1-22.6-0.8-25.9-0.4
		C355,68,351.7,103.7,351.7,103.7z"/>
</g>
</svg>
