<svg xmlns="http://www.w3.org/2000/svg" viewBox="0 0 200 200"><defs><style>.cls-1{fill:#de9d92;}.cls-2{fill:#f6af97;}.cls-3{fill:#5e4002;}.cls-4{fill:#412b00;}</style></defs><g id="Calque_7" data-name="Calque 7"><path class="cls-1" d="M138.92,123.93l3-22.8s11.85-9.43,19.21-3.55c4.62,3.69-4.47,28.23-12.61,30C143.91,128.61,138.92,123.93,138.92,123.93Z"/><path class="cls-1" d="M64.31,123.93l-3-22.8S49.42,91.7,42.06,97.58c-4.62,3.69,4.47,28.23,12.61,30C59.32,128.61,64.31,123.93,64.31,123.93Z"/><path class="cls-2" d="M99.79,164.06c-3.05-.26-7.2-.36-9.42-1.2-5.44-2.06-11.82-7.67-18.62-14a23,23,0,0,1-4-4.52c-3.57-5.9-5.35-20.14-5.5-27a121.41,121.41,0,0,0-1.65-16l-4.1-2.89.35-20.73c0-21.49,20.73-39.72,42.22-39.72h4.57c21.49,0,42.22,18.23,42.22,39.72l.35,20.73-4.1,2.89a121.41,121.41,0,0,0-1.65,16c-.15,6.9-1.93,21.14-5.5,27a23,23,0,0,1-4,4.52c-6.8,6.31-13.18,11.92-18.62,14-2.22.84-6.37.94-9.42,1.2"/></g><g id="cheuveu"><path class="cls-3" d="M74.84,55.24C56.91,52.61,57.64,37.63,66,29.36c14.52-14.29,47.47-20.53,70.57-1.2,24.8,20.75,22.23,45.58,14.06,48.9-2.48,1-3.07,22.41-4.47,21.32-8.92-6.95-10-26.46-12-33.14-2.45-8.13-3.8-22.72-38-13.2C93.72,52.72,77.37,55.61,74.84,55.24Z"/><path class="cls-3" d="M55.43,44.46c8.88-4.27,13.27,13,13.6,18.81.59,10-9.34,35.19-12.54,38.2s-7.07-3.39-7.2-3.92S34.63,54.45,55.43,44.46Z"/><path class="cls-4" d="M74.84,55.24C73.79,54.62,64.36,33.89,92,33s60.69,15.69,63.62,29.13-9.22,36.66-9.4,36.29-3.07,2.52-8.87-11.39c-3.69-8.87-3.58-23.29-15.89-27.69S81.64,59.24,74.84,55.24Z"/></g></svg>