<svg xmlns="http://www.w3.org/2000/svg" viewBox="0 0 788 1005"><defs><style>.cls-1{fill:#de9d92;}.cls-2{fill:#f6af97;}.cls-3{fill:#6d3b25;}</style></defs><g id="Calque_7" data-name="Calque 7"><path class="cls-1" d="M432.34,127.92l3-22.8s11.84-9.44,19.2-3.56c4.62,3.7-4.47,28.24-12.61,30C437.32,132.59,432.34,127.92,432.34,127.92Z"/><path class="cls-1" d="M357.72,127.92l-3-22.8s-11.85-9.44-19.21-3.56c-4.62,3.7,4.47,28.24,12.61,30C352.74,132.59,357.72,127.92,357.72,127.92Z"/><path class="cls-2" d="M393.2,168c-3.05-.26-7.19-.36-9.42-1.2-5.44-2.06-11.82-7.67-18.62-14a23,23,0,0,1-4-4.52c-3.57-5.9-5.35-20.14-5.5-27a119.26,119.26,0,0,0-1.65-16l-4.1-2.9.35-20.73c0-21.49,20.73-39.72,42.22-39.72H397c21.49,0,42.22,18.23,42.22,39.72l.35,20.73-4.1,2.9a121.15,121.15,0,0,0-1.65,16c-.15,6.9-1.93,21.14-5.5,27a23,23,0,0,1-4,4.52c-6.8,6.31-13.18,11.92-18.62,14-2.22.84-6.37.94-9.42,1.2"/></g><g id="cheuveu"><path class="cls-3" d="M419.36,56.38s-16.11,12.17-22.81,15.21c-5.8,2.63-25.22,7.43-25.22,7.43l3.36-6.57s-12.74,6.22-16.18,9c-7.06,5.6-8.38,14.24-8.38,14.24s-8-18.14-3.52-27.75c-1.82,1.26-6.89,2.27-6.89,2.27s6-14.84,13-20a34.6,34.6,0,0,1,22-7l-7.47-2.93s18.4-4,30.51-2.55c15.89,1.84,21.63,9.4,21.63,9.4s12.27-4,22,7.31c7.4,8.59,4.13,19.36,4.13,19.36l-6.21,21s-2.73-14.09-3.37-16.59a82.44,82.44,0,0,1-.88-8.92l-2.14,5a22.94,22.94,0,0,1-10.09-10C422,62.6,419.36,56.38,419.36,56.38Z"/></g></svg>