<svg xmlns="http://www.w3.org/2000/svg" viewBox="0 0 788 1005"><defs><style>.cls-1{fill:#de9d92;}.cls-2{fill:#f6af97;}.cls-3{fill:#db975a;}</style></defs><g id="Calque_7" data-name="Calque 7"><path class="cls-1" d="M432.34,127.92l3-22.8s11.84-9.44,19.21-3.56c4.61,3.7-4.48,28.24-12.62,30C437.32,132.59,432.34,127.92,432.34,127.92Z"/><path class="cls-1" d="M357.72,127.92l-3-22.8s-11.85-9.44-19.21-3.56c-4.62,3.7,4.47,28.24,12.61,30C352.74,132.59,357.72,127.92,357.72,127.92Z"/><path class="cls-2" d="M393.2,168c-3.05-.26-7.19-.36-9.42-1.2-5.44-2.06-11.82-7.67-18.62-14a23,23,0,0,1-4-4.52c-3.57-5.9-5.35-20.14-5.5-27a119.26,119.26,0,0,0-1.65-16l-4.1-2.9.35-20.73c0-21.49,20.73-39.72,42.22-39.72H397c21.49,0,42.22,18.23,42.22,39.72l.35,20.73-4.1,2.9a121.15,121.15,0,0,0-1.65,16c-.15,6.9-1.93,21.14-5.5,27a23,23,0,0,1-4,4.52c-6.8,6.31-13.18,11.92-18.62,14-2.22.84-6.37.94-9.42,1.2"/></g><g id="cheuveu"><path class="cls-3" d="M349.9,102.36s1.2-18.13,2.78-22.57c2.22-6.18,6.74-16.79,12.87-19,6.55-2.4,23.34,1.72,30.31,1.83,6.56.1,19.88-5.26,26.07-3.05,3.92,1.4,8.83,9.12,10.62,12.9,3.21,6.8,7.06,29.92,7.06,29.92s2.65-21.55.93-29.27c-1.52-6.79-10.7-21.62-16.27-25.76s-20-6.2-26.9-6.93-21.22.91-27.58,3.74c-6,2.69-15.33,13-18.62,18.73-2,3.48-4.24,11.51-4.14,15.53C347.16,83.6,349.9,102.36,349.9,102.36Z"/></g></svg>