<svg xmlns="http://www.w3.org/2000/svg" viewBox="0 0 138.97 166.1"><defs><style>.cls-1{fill:#87442d;}.cls-2{fill:#aa5b3f;}.cls-3{fill:#6f3c25;}</style></defs><g id="cheuveu"><path class="cls-1" d="M106.79,114.49l3-22.8s11.85-9.44,19.21-3.55c4.62,3.69-4.47,28.23-12.61,30C111.77,119.17,106.79,114.49,106.79,114.49Z"/><path class="cls-1" d="M32.17,114.49l-3-22.8S17.29,82.25,9.92,88.14c-4.61,3.69,4.48,28.23,12.61,30C27.19,119.17,32.17,114.49,32.17,114.49Z"/><path class="cls-2" d="M67.66,154.61c-3-.26-7.2-.36-9.42-1.2-5.44-2-11.82-7.67-18.62-14a23,23,0,0,1-4-4.52c-3.57-5.9-5.36-20.14-5.5-27a120.26,120.26,0,0,0-1.66-16l-4.09-2.9.35-20.73c0-21.49,20.73-39.72,42.22-39.72h4.56c21.49,0,42.22,18.23,42.22,39.72l.35,20.73L110,91.83a120.26,120.26,0,0,0-1.66,16c-.14,6.9-1.93,21.14-5.5,27a23,23,0,0,1-4,4.52c-6.8,6.31-13.17,11.93-18.62,14-2.22.84-6.37.94-9.42,1.2"/><path class="cls-3" d="M102,47.27s-6.29-7.58-14.77-9.43c-38-8.28-53.76,10.26-59.3,15.77C32.2,34.07,44.17,18.35,75.76,17.19c11-.41,16.06,3.3,19.62.85,1.94-1.33.9-6.64-1.57-9.27s11.8,8.35,14.53,12.34c1.88,2.76,2.63,10.45,1.88,13.7C109.25,39.06,102,47.27,102,47.27Z"/></g></svg>