<svg xmlns="http://www.w3.org/2000/svg" viewBox="0 0 788 1005"><defs><style>.cls-1{fill:#8e4917;}.cls-2{fill:#de9d92;}.cls-3{fill:#f6af97;}.cls-4{fill:#b96f23;}</style></defs><g id="Calque_7" data-name="Calque 7"><path class="cls-1" d="M447.93,57.06c-.35,1.34,19.67,24.41,4.18,49.26-10.22,16.42,1.43,29.34-8,38.74S403,160.89,387.24,156.87s-37.47-.37-44.48-16.72c-20-46.71-7.8-65.46-.9-75.69,9.21-13.65,19.12,10.31,32.68,7.29S447.93,57.06,447.93,57.06Z"/><path class="cls-2" d="M432.34,127.92l3-22.8s11.84-9.44,19.2-3.56c4.62,3.7-4.47,28.24-12.61,30C437.32,132.59,432.34,127.92,432.34,127.92Z"/><path class="cls-2" d="M357.72,127.92l-3-22.8s-11.85-9.44-19.21-3.56c-4.62,3.7,4.47,28.24,12.61,30C352.74,132.59,357.72,127.92,357.72,127.92Z"/><path class="cls-3" d="M393.2,168c-3.05-.26-7.19-.36-9.42-1.2-5.44-2.06-11.82-7.67-18.62-14a23,23,0,0,1-4-4.52c-3.57-5.9-5.35-20.14-5.5-27a119.26,119.26,0,0,0-1.65-16l-4.1-2.9.35-20.73c0-21.49,20.73-39.72,42.22-39.72H397c21.49,0,42.22,18.23,42.22,39.72l.35,20.73-4.1,2.9a121.15,121.15,0,0,0-1.65,16c-.15,6.9-1.93,21.14-5.5,27a23,23,0,0,1-4,4.52c-6.8,6.31-13.18,11.92-18.62,14-2.22.84-6.37.94-9.42,1.2"/><path class="cls-4" d="M371.43,61.79c-17.94-2.62-17.21-17.61-8.81-25.88,14.52-14.29,47.47-20.53,70.57-1.2,24.8,20.76,22.24,45.58,14.07,48.91-2.49,1-3.8,15.69-5.2,14.6-8.92-6.94-9.26-19.74-11.27-26.42-2.46-8.13-3.81-22.72-38-13.21C390.31,59.28,374,62.16,371.43,61.79Z"/><path class="cls-4" d="M374.54,62.67C343.37,69,349.9,103.38,349.9,103.38c-.6,4.8-1.49,9.77-2.51,14.34.1,5.94-.77,12.94-4.37,18-7.39,10.45-21,8.65-21,8.65,6.33-1.76,14.4-22.31,10.62-35-3.1-16.6-3.34-37.7,10.11-51.28,6.93-7,23-8.09,23.75-2.33C366.49,55.75,382.72,61,374.54,62.67Z"/><path class="cls-1" d="M374.54,61.65c-1.21-.11-.61-16,27-17S450.11,54.8,453,68.24s-4.87,31.3-5.28,31.33c-8.26.59-7.19,7.48-13-6.43-3.69-8.87-3.58-23.29-15.9-27.69S399.94,64,374.54,61.65Z"/><path class="cls-1" d="M374.54,61.65s-17.37-4.18-23,9.32c-4.09,9.75-2.55,25.45-1.6,31.39,0,0,4.22,3.48,4.35,2.44C354.34,104.11,354.19,67.38,374.54,61.65Z"/></g></svg>