<?xml version="1.0" encoding="utf-8"?>
<!-- Generator: Adobe Illustrator 26.0.1, SVG Export Plug-In . SVG Version: 6.00 Build 0)  -->
<svg version="1.1" id="Calque_1" xmlns="http://www.w3.org/2000/svg" xmlns:xlink="http://www.w3.org/1999/xlink" x="0px" y="0px"
	 viewBox="0 0 788 1005" style="enable-background:new 0 0 788 1005;" xml:space="preserve">
<style type="text/css">
	.st0{fill:#C78D71;}
	.st1{fill:#0071BB;}
	.st2{fill:#1B1464;}
</style>
<path class="st0" d="M454.5,101.5c-4.5-3.5-10.7-1.4-14.8,0.8l-0.4-20.6c0-21.5-20.7-39.7-42.2-39.7h-4.5
	c-21.5,0-42.2,18.2-42.2,39.7l-0.4,20.4c-4.1-2.1-10.1-4.1-14.5-0.6c-4.6,3.7,4.5,28.2,12.6,30c3.1,0.7,6.3-1.1,8.2-2.4
	c0.8,6.9,2.4,15.1,4.9,19.2c1.1,1.7,2.5,3.2,4,4.5c6.8,6.3,13.2,11.9,18.6,14c2.2,0.8,6.4,0.9,9.4,1.2h3.3c3-0.3,7.2-0.4,9.4-1.2
	c5.4-2.1,11.8-7.7,18.6-14c1.5-1.3,2.9-2.8,4-4.5c2.5-4.2,4.2-12.5,5-19.4c1.7,1.3,5.2,3.4,8.4,2.6
	C450,129.7,459.1,105.2,454.5,101.5z"/>
<path class="st1" d="M350.1,81.4c0-21.5,9.3-52.8,40.5-51h10c48-1.2,39.5,51.5,39.5,51.5s-22.8-9.8-45.1-10.2
	C379.5,71.4,364.1,74.8,350.1,81.4z"/>
<path class="st2" d="M374.5,71.2c0,0,51.8-25.5,64.7-24.4c10.8,0.9,44.5,17.2,35.1,30.9L436.9,86c0,0-5.6-10.2-23.8-13
	C397.4,70.6,374.5,71.2,374.5,71.2z"/>
</svg>
