<?xml version="1.0" encoding="utf-8"?>
<!-- Generator: Adobe Illustrator 26.0.1, SVG Export Plug-In . SVG Version: 6.00 Build 0)  -->
<svg version="1.1" id="Calque_1" xmlns="http://www.w3.org/2000/svg" xmlns:xlink="http://www.w3.org/1999/xlink" x="0px" y="0px"
	 viewBox="0 0 788 1005" style="enable-background:new 0 0 788 1005;" xml:space="preserve">
<style type="text/css">
	.st0{fill:#C78D71;}
	.st1{fill:#6B3D2F;}
</style>
<path class="st0" d="M454.5,101.5c-4.5-3.5-10.7-1.4-14.8,0.8l-0.4-20.6c0-21.5-20.7-39.7-42.2-39.7h-4.5
	c-21.5,0-42.2,18.2-42.2,39.7l-0.4,20.4c-4.1-2.1-10.1-4.1-14.5-0.6c-4.6,3.7,4.5,28.2,12.6,30c3.1,0.7,6.3-1.1,8.2-2.4
	c0.8,6.9,2.4,15.1,4.9,19.2c1.1,1.7,2.5,3.2,4,4.5c6.8,6.3,13.2,11.9,18.6,14c2.2,0.8,6.4,0.9,9.4,1.2h3.3c3-0.3,7.2-0.4,9.4-1.2
	c5.4-2.1,11.8-7.7,18.6-14c1.5-1.3,2.9-2.8,4-4.5c2.5-4.2,4.2-12.5,5-19.4c1.7,1.3,5.2,3.4,8.4,2.6
	C450,129.7,459.1,105.2,454.5,101.5z"/>
<g id="cheuveu">
	<path class="st1" d="M419.4,56.4c0,0-16.1,12.2-22.8,15.2c-5.8,2.6-25.2,7.4-25.2,7.4l3.4-6.6c0,0-12.7,6.2-16.2,9
		c-7.1,5.6-8.4,14.2-8.4,14.2s-8-18.1-3.5-27.8c-1.8,1.3-6.9,2.3-6.9,2.3s6-14.8,13-20c6.3-4.8,14.1-7.3,22-7l-7.5-2.9
		c0,0,18.4-4,30.5-2.5c15.9,1.8,21.6,9.4,21.6,9.4s12.3-4,22,7.3c7.4,8.6,4.1,19.4,4.1,19.4l-6.2,21c0,0-2.7-14.1-3.4-16.6
		c-0.5-3-0.7-5.9-0.9-8.9l-2.1,5c-4.3-2.2-7.9-5.7-10.1-10C422,62.6,419.4,56.4,419.4,56.4z"/>
</g>
</svg>
