<svg xmlns="http://www.w3.org/2000/svg" viewBox="0 0 788 1005"><defs><style>.cls-1{fill:#de9d92;}.cls-2{fill:#f6af97;}.cls-3{fill:#99563c;}</style></defs><g id="Calque_7" data-name="Calque 7"><path class="cls-1" d="M432.34,127.92l3-22.8s11.84-9.44,19.21-3.56c4.61,3.7-4.48,28.24-12.62,30C437.32,132.59,432.34,127.92,432.34,127.92Z"/><path class="cls-1" d="M357.72,127.92l-3-22.8s-11.85-9.44-19.21-3.56c-4.62,3.7,4.47,28.24,12.61,30C352.74,132.59,357.72,127.92,357.72,127.92Z"/><path class="cls-2" d="M393.2,168c-3.05-.26-7.19-.36-9.42-1.2-5.44-2.06-11.82-7.67-18.62-14a23,23,0,0,1-4-4.52c-3.57-5.9-5.35-20.14-5.5-27a119.26,119.26,0,0,0-1.65-16l-4.1-2.9.35-20.73c0-21.49,20.73-39.72,42.22-39.72H397c21.49,0,42.22,18.23,42.22,39.72l.35,20.73-4.1,2.9a121.15,121.15,0,0,0-1.65,16c-.15,6.9-1.93,21.14-5.5,27a23,23,0,0,1-4,4.52c-6.8,6.31-13.18,11.92-18.62,14-2.22.84-6.37.94-9.42,1.2"/></g><g id="cheuveu"><path class="cls-3" d="M394.4,12.09s6.24,7.42,21.19,14.84c4.7,2.33,8.75,4.52,12.13,6.46a27.9,27.9,0,0,1,14,22.45c.18,2.74.37,5.09.55,6.13,2,11.22-3.52,25.33-3.52,25.33s-3.4-25-10.07-28.62c-13.31-7.24-41.13,9.94-60.19-7.22C342.13,27.72,394.4,12.09,394.4,12.09Z"/></g></svg>