<?xml version="1.0" encoding="utf-8"?>
<!-- Generator: Adobe Illustrator 26.0.0, SVG Export Plug-In . SVG Version: 6.00 Build 0)  -->
<svg version="1.1" id="Calque_1" xmlns="http://www.w3.org/2000/svg" xmlns:xlink="http://www.w3.org/1999/xlink" x="0px" y="0px"
	 viewBox="0 0 788 1005" style="enable-background:new 0 0 788 1005;" xml:space="preserve">
<style type="text/css">
	.st0{fill:#C78D71;}
	.st1{fill:#6B3D2F;}
</style>
<g id="Calque_7">
	<path class="st0" d="M432.3,127.9l3-22.8c0,0,11.8-9.4,19.2-3.6c4.6,3.7-4.5,28.2-12.6,30C437.3,132.6,432.3,127.9,432.3,127.9z"/>
	<path class="st0" d="M357.7,127.9l-3-22.8c0,0-11.9-9.4-19.2-3.6c-4.6,3.7,4.5,28.2,12.6,30C352.7,132.6,357.7,127.9,357.7,127.9z"
		/>
	<path class="st0" d="M393.2,168c-3-0.3-7.2-0.4-9.4-1.2c-5.4-2.1-11.8-7.7-18.6-14c-1.5-1.3-2.9-2.8-4-4.5
		c-3.6-5.9-5.4-20.1-5.5-27c-0.2-5.4-0.7-10.7-1.6-16l-4.1-2.9l0.4-20.7c0-21.5,20.7-39.7,42.2-39.7h4.5c21.5,0,42.2,18.2,42.2,39.7
		l0.4,20.7l-4.1,2.9c-0.9,5.3-1.5,10.6-1.6,16c-0.1,6.9-1.9,21.1-5.5,27c-1.1,1.7-2.5,3.2-4,4.5c-6.8,6.3-13.2,11.9-18.6,14
		c-2.2,0.8-6.4,0.9-9.4,1.2"/>
</g>
<g id="cheuveu">
	<path class="st1" d="M368.3,59.2c-17.9-2.6-17.2-17.6-8.8-25.9C374,19,406.9,12.8,430,32.1c24.8,20.8,22.2,45.6,14.1,48.9
		c-2.5,1-3.1,22.4-4.5,21.3c-8.9-7-10-26.5-12-33.1c-2.5-8.1-3.8-22.7-38-13.2C387.1,56.7,370.8,59.6,368.3,59.2z"/>
	<path class="st1" d="M348.8,45.3c8.9-4.3,13.3,13,13.6,18.8c0.6,10-9.3,35.2-12.5,38.2s-7.1-3.4-7.2-3.9S328,55.3,348.8,45.3z"/>
	<path class="st1" d="M368.3,59.2c-1.1-0.6-10.5-21.3,17.1-22.3s60.7,15.7,63.6,29.1s-9.2,36.7-9.4,36.3s-3.1,2.5-8.9-11.4
		c-3.7-8.9-3.6-23.3-15.9-27.7S375,63.2,368.3,59.2z"/>
</g>
</svg>
