<svg xmlns="http://www.w3.org/2000/svg" viewBox="0 0 788 1005"><defs><style>.cls-1{fill:#aa5b3f;}.cls-2{fill:#6d323a;}.cls-3{fill:#c37958;}.cls-4{fill:#36344d;}.cls-5{fill:#473415;}.cls-6{fill:#3157a3;}</style></defs><g id="Calque_1" data-name="Calque 1"><path class="cls-1" d="M134.64,409.71s-18.46-7-21.5-6.81-15.78,3.23-18.16,3-16.55-5.31-16.77-3.53-.14,8.73-.14,8.73l11.39,5.6,14.75.26L86,430.71S58.59,444.55,56.76,445s1.08,8.91,1.08,8.91L92.5,439,60.19,464.41l6,7.67,34.31-26.95-29.6,32.94,8.82,4.38L107,454.05l-14.59,26s8,4,9.11,2,17-23.59,17-23.59l27.79-22.91,1.4-9.18Z"/><path class="cls-1" d="M510.86,245.64c-.6,38.39-26.2,33.17-36.86,42.29-12.58,10.77-8.27,50-17.18,64-2.45,3.84-11.36,10.1-15.8,9.08-12.51-2.87-24-30.73-34.77-37.73-6.33-4.12-23.57-3.62-30.19,0-11.25,6.16-22.27,34.86-34.77,37.73-4.44,1-13.35-5.24-15.8-9.08-8.91-14-4.6-53.24-17.19-64-10.65-9.12-36.25-3.9-36.86-42.29-.41-26.59,35-37.34,35-37.34l40.15-19.91a31.4,31.4,0,0,0,7.1-4.82,29.11,29.11,0,0,0,2.29-2.29l.63-.71,0-.06c3.91-4.62,9.6-8.73,14.49-12.47,1.41-1.08-4.77-4.67-4.78-6.08l1-4.18-1.68-7,52,1.72.06,5,0,1.5,0,3.21c0,.33,0,.67,0,1v0c0,.65.09,1.3.16,1.95a29.38,29.38,0,0,0,.93,4.57,28.5,28.5,0,0,0,14.7,17.59l40.53,20.1a27.41,27.41,0,0,0,3.16,1.33C484,211.17,511.23,222.3,510.86,245.64Z"/><path class="cls-1" d="M418.5,200.82,391,233.32l-14.8-17.69-12.39-14.81.72-41.56,0-2.21.08-4.51h53v.23l.08,4.66v0l0,1.56.07,4.21v0l0,1.28.12,6.79Z"/><path class="cls-2" d="M419,170.07l-1,1.25c-5.15,6.33-28.83,35-41.79,44.31-3.19,2.29-5.73,3.39-7.19,2.69-6.77-3.26-14.85-35.1-14.85-35.1a.19.19,0,0,0,.08-.07,19.51,19.51,0,0,0,1.73-1.87c.33-.38.68-.82,1.06-1.32l.06-.08a53.23,53.23,0,0,0,6.65-15.16c.77-3.93.55-15.78.59-16a7.21,7.21,0,0,0,0-1,5.41,5.41,0,0,1,5.42-5.4h42.06a5.42,5.42,0,0,1,5.42,5.18l.23,5h0l.2,4.51,0,6.72.15.76.14.67.94,4.57Z"/><path class="cls-1" d="M453,256.17c11.91,25,40.93,38.77,40.93,38.77s53,32.77,70.44,44c8.23,5.28-.86,15.76,12.88-4.43h0c11.33-16.63,13.09-32,5.71-37.84-15-11.83-37.74-30.15-50.33-44.25-9.38-10.49-19.75-30.33-43.13-36.2,0,0-18.61-6.9-31.75,8.26l-.52.6A28.69,28.69,0,0,0,453,256.17Z"/><path class="cls-1" d="M570.94,290c-19.3-4.82-31,15.76-34.75,23.49s-7.64,25.06-9.55,33.58c-4.9,21.81-10.3,59.07-15.38,80.32-3.33,14-5.49,21.26,2.87,25.77,7.61,4.1,15.29-7.7,18.35-12.29,12.61-18.9,37.73-55.51,47.63-77.39,4.07-9,10.61-27.92,11.53-37.74C594.21,298.23,576.54,291.37,570.94,290Z"/><path class="cls-1" d="M275.39,353.56c-9.08-15.23-28.13-9.85-34.91-7.46s-19.16,10.71-25.25,14.79c-15.6,10.43-62.08,43.05-79.58,48.07-12.24,3.51,7.73,24.89,7.73,24.89s12.8-8,21.3-11c17.88-6.34,43.94-8.62,73.94-17.83,7.89-2.42,22.63-10.6,28.86-16.11C284.92,373.44,278,358,275.39,353.56Z"/><path class="cls-1" d="M332.46,242.15c2.77,27.54-14.91,54.37-14.91,54.37s-28.3,55.47-37.44,74.1c-4.31,8.78-13,27.24-35.19,17.11h0c-18.31-8.36-13.33-27.42-10-36.22,6.7-17.9,24.05-52.75,27.51-71.33,2.58-13.84,1.17-36.18,18.13-53.31,0,0,12.33-15.55,31.43-9.4l.75.24a28.69,28.69,0,0,1,19.75,24.44Z"/><path class="cls-1" d="M515.92,448.8c2,3.19,3.07,9-3,14.84,0,0-17.63,20.22-25.4,24.34-3.47,1.84-12.79,6.25-15.38,3.3-7.33-8.39-12.06-28.61-9.72-41.73.71-3.93,9.41-8.05,13.33-8.82,4.31-.84,13,2.62,17.34,2.78a67.49,67.49,0,0,0,7.19-.39C506.2,442.57,513.14,444.44,515.92,448.8Z"/><polygon class="cls-3" points="506.16 436.37 502.02 443.06 505.39 455.56 509.36 467.63 514.95 461.61 525.1 454.57 506.16 436.37"/><polygon class="cls-4" points="503.44 440.7 512.77 424.95 533.24 446.86 521.99 459.59 503.44 440.7"/></g><g id="Calque_7" data-name="Calque 7"><polygon class="cls-5" points="310.05 452.67 311.55 430.17 468.55 430.17 468.71 467.63 310.05 452.67"/><polygon class="cls-6" points="252.21 307.23 300.48 333.93 315.84 302.84 318.4 373.06 310.72 421.7 311.45 430.84 470.17 437.42 478.48 411.8 478.48 371.61 474.19 291.5 520.49 313.81 550.1 268.55 503.45 214.34 447.13 192.4 395.93 219.82 343.27 190.2 285.12 217.63 267.2 239.57 252.21 307.23"/></g></svg>