<svg xmlns="http://www.w3.org/2000/svg" viewBox="0 0 788 1005"><defs><style>.cls-1{fill:#3f302b;}.cls-2{fill:#aa5b3f;}.cls-3{fill:#d08d72;}.cls-4{fill:#6d323a;}.cls-5,.cls-7{fill:none;stroke-miterlimit:10;}.cls-5{stroke:#000;stroke-width:3px;}.cls-6{fill:#473415;}.cls-7{stroke:#4f3742;}.cls-8{fill:#281e1c;}</style></defs><g id="Calque_1" data-name="Calque 1"><path class="cls-1" d="M323.84,176.58c0-24.93,33.09-12.46,73.82-12.46s73.68-12.47,73.68,12.46-37.59,49.6-78.32,49.6S323.84,201.52,323.84,176.58Z"/><path class="cls-2" d="M117.22,219.69,102,205.79l-25.43-12.7s-1.69,5.38-1,7c2.19,5.09,9.58,9.91,14,13.22.59.43,1.87,3.56,1.62,4.25-1,2.85-7.38,2.23-7.38,2.23L102.69,228Z"/><path class="cls-2" d="M110.58,219.42l-5,20.65-44.89-7L19,209.07s4.49-5,6.57-5.42c10.86-2.22,31.71,9.92,42.45,12.59C79.56,219.13,110.58,219.42,110.58,219.42Z"/><ellipse class="cls-3" cx="108.93" cy="228.57" rx="12.15" ry="12.1" transform="translate(-140.33 184.06) rotate(-54.39)"/><path class="cls-2" d="M515.89,244.48c-.6,38.39-26.2,33.17-36.86,42.29-12.58,10.77-8.27,50-17.18,64-2.45,3.84-11.36,10.1-15.8,9.08-12.51-2.87-24-30.73-34.77-37.73-6.33-4.12-23.57-3.62-30.19,0-11.25,6.16-22.27,34.86-34.77,37.73-4.44,1-13.35-5.24-15.8-9.08-8.91-14-4.6-53.24-17.19-64-10.65-9.12-36.25-3.9-36.86-42.29-.41-26.59,35-37.34,35-37.34l40.15-19.91a31.4,31.4,0,0,0,7.1-4.82,29.11,29.11,0,0,0,2.29-2.29l.63-.71.05-.06a31.55,31.55,0,0,0,7.22-16.43,30.71,30.71,0,0,0,.25-4.19l0-2.84,0-4.51h53.63l.06,5,0,1.5,0,3.21c0,.33,0,.67,0,1v0c0,.65.09,1.3.16,1.95a29.38,29.38,0,0,0,.93,4.57,28.5,28.5,0,0,0,14.7,17.59l40.53,20.1a27.41,27.41,0,0,0,3.16,1.33C489,210,516.26,221.14,515.89,244.48Z"/><path class="cls-2" d="M422.91,199.66l-27.5,32.5-14.8-17.69-12.39-14.81.72-41.56,0-2.21.08-4.51h53v.23l.08,4.66v0l0,1.56.07,4.21v0l0,1.28.12,6.79Z"/><path class="cls-4" d="M423.41,168.91l-1,1.25c-5.16,6.33-28.83,35-41.79,44.31-3.2,2.29-5.74,3.39-7.2,2.69-6.76-3.26-14.84-35.1-14.84-35.1l.08-.07a21,21,0,0,0,1.73-1.87q.48-.57,1.05-1.32l.06-.08a39.39,39.39,0,0,0,6.66-15.16c0-.21.09-.42.13-.64.26-1.37.48-3,.66-4.82.07-.71.13-1.45.19-2.21.11-1.42.2-2.94.28-4.51h52.67v.23l0,4.28,0,6.72.15.76.14.67.93,4.57Z"/><path class="cls-5" d="M465.2,407c-.88-4-5.67-25.27-5.61-33.83.06-9.17,4-27.7,1.8-36.65-9.77-39.58-123.53-39.65-133.32,0-2.21,8.95,1.74,27.48,1.8,36.65.06,8.56-4.73,29.82-5.61,33.83-11,50.33,70.34,73.38,70.34,73.38S476.24,457.31,465.2,407Z"/><path class="cls-2" d="M232.3,349.17c10.95-14.12-2.85-33.31-8.24-40S205,291.31,198.21,285.83c-17.24-14-68.23-48.53-81-66.14-8.93-12.33-23,8.42-23,8.42s13.63,11.67,20.4,20.07c14.22,17.66,28.11,45.35,50.58,75.38,5.91,7.9,20.55,21.64,28.76,26.88C217,365.08,229.12,353.27,232.3,349.17Z"/><path class="cls-2" d="M334.81,251.49c-8.54,26.33-35.52,43.78-35.52,43.78s-48.23,39.39-64.1,52.77c-7.47,6.3-22.83,19.72-39.09,1.5h0c-13.4-15-1.17-30.46,5.39-37.19,13.33-13.69,43.24-38.62,53.88-54.23,7.93-11.63,15.63-32.65,38-41.52,0,0,17.56-9.27,32.56,4l.59.53a28.68,28.68,0,0,1,8.25,30.32Z"/><path class="cls-2" d="M458,241.55C456.8,269.2,475.94,295,475.94,295s31.33,53.81,41.49,71.91c4.79,8.53,14.47,26.48,36.08,15.13h0c17.82-9.36,11.79-28.11,8-36.72-7.68-17.5-26.93-51.33-31.42-69.69-3.34-13.67-3.17-36.06-21.05-52.23,0,0-13.18-14.84-31.9-7.64l-.74.28A28.68,28.68,0,0,0,458,241.55Z"/></g><g id="Calque_7" data-name="Calque 7"><path class="cls-5" d="M465.74,406.33c-.88-4-5.67-25.27-5.62-33.83.06-9.17,4-27.71,1.81-36.65-9.77-39.58-123.54-39.66-133.32,0-2.21,8.94,1.74,27.48,1.8,36.65.06,8.56-4.73,29.82-5.62,33.83-11,50.33,70.35,73.38,70.35,73.38S476.78,456.66,465.74,406.33Z"/><polygon class="cls-6" points="316.71 451.3 318.21 428.8 473.21 428.8 475.21 448.3 316.71 451.3"/><polygon class="cls-7" points="394.57 489.85 389.57 449.85 404.57 449.85 403.57 482.13 394.57 489.85"/><path class="cls-1" d="M300.41,202.25c-2.54,4.84,9.61,83.38,9.61,83.38L293.67,458.87l15.54,16.58-.12,27.05H479.24l-.66-23.05,10.54-22.7L473.24,293.88l14.86-90.5L438.05,186.2l-31.11,37.7L380,221.73l-21.91-39.32Z"/><path class="cls-2" d="M560.34,368.61c2.8-17.21-16.24-30.36-23.34-34.75s-22.7-10-30.36-12.73c-19.61-7.06-52.9-16.4-72-23.56-12.59-4.71-19.17-7.56-22.52-.38-3.05,6.53,7.94,15,12.22,18.34,17.63,13.82,51.83,41.24,71.89,52.92,8.24,4.8,25.43,13,34.17,15C554.8,389.07,559.53,373.61,560.34,368.61Z"/><path class="cls-2" d="M452.33,306l-10.5-5.66s-20.43-22.71-21.33-23.6S404.28,263,403.23,261.91,394.67,251,394.67,251l-4.77,9.6L397.72,272l9.31,9.26-23.67-4.43s-35.68-10.38-36.27-9.18-1.48,8.09-.28,8.69,34.78,11.28,34.78,11.28-42.55-5.87-42.84-3.77-.57,9.58,1.22,9.58,38,3.79,38,3.79-38.61,2.81-38,4,3,8.41,3,8.41l37.78-1.34L354.12,317s4.51,7.48,5.71,7.47S390.36,316,390.36,316s29.64,3.07,31.15,2.31c4.4-2.2,14.39,4.15,14.39,4.15Z"/><path class="cls-8" d="M328.93,196.9s45.36,42.22,67.25,46.91c0,0-26.31,15.42-46.28,5s-38.41-46.94-37.56-47.31S328.93,196.9,328.93,196.9Z"/><rect class="cls-8" x="309.21" y="475.45" width="170.03" height="27.05"/></g></svg>