<svg xmlns="http://www.w3.org/2000/svg" viewBox="0 0 153.41 140.2"><defs><style>.cls-1{fill:#aa5b3f;}.cls-2{fill:#6d323a;}.cls-3{fill:#dbb642;}</style></defs><g id="Calque_5" data-name="Calque 5"><path class="cls-1" d="M113.15,71.35C113,83.7,104.72,82,101.29,85c-4.05,3.46-2.66,16.1-5.53,20.59-.79,1.24-3.65,3.25-5.08,2.92-4-.92-7.73-9.88-11.19-12.14-2-1.32-7.58-1.16-9.71,0-3.62,2-7.16,11.22-11.18,12.14-1.43.33-4.3-1.68-5.09-2.92C50.65,101.06,52,88.42,48,85,44.55,82,36.32,83.7,36.12,71.35c-.13-8.55,11.26-12,11.26-12l12.92-6.4a10.23,10.23,0,0,0,3-2.29,10.11,10.11,0,0,0,2.54-5.58c.06-.43,1.25-.5,1.25-.94l.74-6.1-.06,1.17-1.49-.46,8.17.63,8.65-.66h0l0,1.84,0,3.6v.48a8.09,8.09,0,0,0,.06.85h0a9.51,9.51,0,0,0,.28,1.41,9.22,9.22,0,0,0,4.74,5.71l13,6.46a7.6,7.6,0,0,0,1,.43C104.51,60.27,113.27,63.85,113.15,71.35Z"/><polygon class="cls-1" points="83.43 57.98 74.58 68.43 65.84 57.98 65.84 57.82 66.07 44.58 66.16 39.77 66.16 39.75 66.16 39.32 66.31 39.3 75.07 38.03 83.11 39.32 83.12 39.75 83.12 39.75 83.17 42.72 83.21 45.2 83.22 45.67 83.23 46.29 83.27 48.72 83.43 57.98"/><path class="cls-2" d="M83.1,37.39l0,1.32h0V45l0,.23,0,.23h0l.28,1.41,0,.14s-.11.23-.32.63c-1.38,2.62-7.2,12.4-15.66,10.42a3.65,3.65,0,0,1-1.77-1.32,24.46,24.46,0,0,1-3.1-5.5,5.9,5.9,0,0,0,.58-.62,12.39,12.39,0,0,0,2.49-5.33,1.84,1.84,0,0,0,0-.25c.09-.44.15-1,.21-1.53.14-1.37.06-4.44.09-6.19"/><path class="cls-1" d="M94.18,66.11c7-5.5,17.34-5.32,17.34-5.32s20-1.86,26.59-2.58c3.12-.34,9.63-1.17,10.7,6.62h0c.89,6.41-5.15,8.34-8.11,9-6,1.26-18.48,2.55-24.12,4.8-4.21,1.69-10,5.92-17.61,4.26,0,0-6.35-.68-8-6.92l-.07-.25a9.21,9.21,0,0,1,3.24-9.57Z"/><path class="cls-1" d="M141.62,72.58c-6.34.84-9.32-6.17-10.25-8.77s-1.52-8.29-1.82-11.09c-.77-7.15-1.14-19.25-2-26.23-.56-4.59-1-7,1.85-8.13,2.58-1,4.61,3,5.42,4.6,3.34,6.5,10,19.11,12.4,26.47,1,3,2.37,9.31,2.3,12.48C149.36,70.79,143.47,72.34,141.62,72.58Z"/><path class="cls-1" d="M55.76,67.89c1.71,8.74-3.14,17.86-3.14,17.86s-7.41,18.62-9.77,24.86c-1.12,2.94-3.34,9.12-10.76,6.54h0C26,115,27,108.76,27.79,105.85c1.61-5.94,6.12-17.62,6.67-23.68.41-4.51-.71-11.62,4.21-17.62,0,0,3.48-5.35,9.78-3.95l.25.06a9.23,9.23,0,0,1,7.06,7.23Z"/><path class="cls-1" d="M127.48,18.92l2.1-6.29,5.15-7.56s1.32,1.25,1.38,1.81c.18,1.78-1.14,4.29-1.87,5.91a2.55,2.55,0,0,0,.21,1.45c.73.64,2.42-.53,2.42-.53l-4,5.28Z"/><path class="cls-1" d="M129.3,17.8l4.64,5,11.52-9L153.41.53A7.57,7.57,0,0,0,150.72,0c-3.4,1.08-7.35,7.76-9.95,10.19C138,12.86,129.3,17.8,129.3,17.8Z"/><ellipse class="cls-1" cx="131.2" cy="20.12" rx="3.89" ry="3.91" transform="translate(57.09 130.24) rotate(-64.78)"/><path class="cls-3" d="M44.39,60.37s6.5,7.2,6.79,13.24-1.45,15.46-1.45,15.46-.87,37.25-.29,38.74-1.87,6.12-.78,10.29,23,1.13,28.7-.47,19.49-6.68,20.29-7.15c5.95-3.46-1.22-21.21-1.11-24,.16-3.92,3.73-20.93,3.73-20.93.58-.61,4.22-22.21-1.51-27.56L88.3,52.6h0a9.93,9.93,0,0,1-9.07,8.16c-5.7.4-11.67,1.08-15,1.5a6.91,6.91,0,0,1-7-3.6,5.88,5.88,0,0,1-.65-3.74Z"/><path class="cls-1" d="M27,115.27c-2.82-5.75,2.86-10.81,5-12.52s7.36-4.11,9.91-5.29c6.53-3,17.88-7.24,24.22-10.28,4.17-2,6.31-3.17,8.29-.85,1.81,2.12-1.38,5.33-2.62,6.61-5.08,5.25-14.89,15.63-21.1,20.23-2.55,1.88-8.06,5.23-11.09,6.18C31.13,122,27.77,116.94,27,115.27Z"/><path class="cls-1" d="M72.29,93l5.32-4,5.57-7.25S81.59,80.91,81,81c-1.74.38-3.72,2.42-5,3.62a2.59,2.59,0,0,1-1.44.25c-.84-.49-.26-2.47-.26-2.47l-3.75,5.46Z"/><path class="cls-1" d="M72.78,90.91l-6.21-2.85,5-13.75,10.14-11.7A7.71,7.71,0,0,1,83,65c0,3.57-5.08,9.41-6.58,12.63C74.77,81.13,72.78,90.91,72.78,90.91Z"/><ellipse class="cls-1" cx="69.99" cy="89.83" rx="3.89" ry="3.91" transform="translate(-42.58 72.66) rotate(-43.4)"/></g></svg>