<svg xmlns="http://www.w3.org/2000/svg" viewBox="0 0 788 1005"><defs><style>.cls-1{fill:#7a919e;}.cls-2{fill:#aa5b3f;}.cls-3{fill:#6d323a;}.cls-4{fill:#36344d;}.cls-5{fill:#c6c5ba;}.cls-6{fill:#9599ba;}.cls-7{fill:#adcbde;}</style></defs><g id="Calque_1" data-name="Calque 1"><polygon class="cls-1" points="364.84 193.85 365.7 164.95 426.18 164.31 425.84 193.85 364.84 193.85"/><path class="cls-2" d="M153.62,205.86s4.84-19.16,4.25-22.15-5.06-15.29-5.05-17.69S156.16,149,154.36,149s-8.69.88-8.69.88l-4.22,12,1.46,14.68L127.08,160s-17-25.56-17.58-27.33-8.72,2.11-8.72,2.11l18.79,32.69-29-29.12-6.91,6.87,30.78,30.92L78.28,150.57,75,159.84l31.39,23.74L78.82,172.13s-3,8.38-.92,9.29,25.43,14.14,25.43,14.14l26,24.92,9.28.32Z"/><path class="cls-2" d="M516.65,244.38c-.6,38.39-26.2,33.17-36.86,42.29-12.58,10.77-8.27,50-17.18,64-2.45,3.84-11.36,10.1-15.8,9.08C434.3,356.89,422.78,329,412,322c-6.33-4.12-23.57-3.62-30.19,0-11.25,6.16-22.27,34.86-34.77,37.73-4.44,1-13.35-5.24-15.8-9.08-8.91-14-4.6-53.24-17.19-64-10.65-9.12-36.25-3.9-36.86-42.29-.41-26.59,35-37.34,35-37.34l40.15-19.91a31.4,31.4,0,0,0,7.1-4.82,29.11,29.11,0,0,0,2.29-2.29l.63-.71.05-.06a31.55,31.55,0,0,0,7.22-16.43,30.71,30.71,0,0,0,.25-4.19l0-2.84,0-4.51h53.63l.06,5,0,1.5,0,3.21c0,.33,0,.67,0,1v0c0,.65.09,1.3.16,1.95a29.38,29.38,0,0,0,.93,4.57,28.5,28.5,0,0,0,14.7,17.59L480,206.2a27.41,27.41,0,0,0,3.16,1.33C489.79,209.91,517,221,516.65,244.38Z"/><path class="cls-2" d="M424.29,199.56l-27.5,32.5L382,214.37,369.6,199.56l.72-41.56,0-2.21.08-4.51h53v.23l.08,4.66v0l0,1.56.07,4.21v0l0,1.28.12,6.79Z"/><path class="cls-3" d="M424.79,168.81l-1,1.25c-5.16,6.33-28.83,35-41.79,44.31-3.2,2.29-5.74,3.39-7.2,2.69C368,213.8,360,182,360,182l.08-.07a21,21,0,0,0,1.73-1.87q.48-.57,1.05-1.32l.06-.08a39.39,39.39,0,0,0,6.66-15.16c0-.21.09-.42.13-.64.26-1.37.48-3,.66-4.82.07-.71.13-1.45.19-2.21.11-1.42.2-2.94.28-4.51h52.67v.23l0,4.28,0,6.72.15.76.14.67.93,4.57Z"/><path class="cls-2" d="M458.4,250.11C469.81,274.3,496.91,288,496.91,288s49.57,32.26,65.94,43.28c7.71,5.19,23.61,16.29,36-2.9h0c10.25-15.82-3.06-29.21-10-34.9-14.09-11.6-44.89-32.08-56.76-45.81-8.85-10.22-18.76-29.44-40.52-35.42,0,0-17.35-6.9-29.31,7.47l-.47.56a28.09,28.09,0,0,0-3.46,29.86Z"/><path class="cls-2" d="M587.54,294.69c-18.56-7.17-27.22,7.79-31.94,15S543,338,540,346.17c-7.55,21-21,57-28.68,77.47-5.05,13.46-8.09,20.41-.35,25.92,7,5,16.12-5.74,19.73-9.92,14.86-17.19,44.31-50.41,56.84-70.9,5.15-8.42,14-26.39,16.11-36C609.61,305.77,592.93,296.77,587.54,294.69Z"/><path class="cls-2" d="M231,351.34c13.76-11.4,4.47-32.14.67-39.86S217,289.91,211.57,283.09c-13.77-17.45-56.38-69.4-65-89.37-6-14-23.92,10.39-23.92,10.39s10.77,14.36,15.54,24c10,20.33,17.56,50.38,32.95,84.59,4,9,15.34,25.6,22.22,32.5C212.6,364.53,227,354.65,231,351.34Z"/><path class="cls-2" d="M336.19,251.39c-8.55,26.33-35.52,43.78-35.52,43.78s-48.23,39.39-64.1,52.77c-7.47,6.3-22.84,19.72-39.09,1.5h0c-13.4-15-1.17-30.46,5.39-37.19,13.33-13.69,43.23-38.62,53.88-54.23,7.93-11.63,25.91-35.58,48.33-44.44,0,0,7.26-6.35,22.27,7l.59.53a28.7,28.7,0,0,1,8.25,30.32Z"/><path class="cls-2" d="M519.1,443.72c2.68,2.66,5,8.13.34,15.13,0,0-12.74,23.61-19.41,29.34-3,2.56-11.09,8.92-14.27,6.61-9-6.56-18.08-25.25-18.68-38.55-.18-4,7.4-9.94,11.06-11.55,4-1.76,13.21-.29,17.52-1.11a64.77,64.77,0,0,0,6.93-2C508.24,439.79,515.43,440.07,519.1,443.72Z"/><polygon class="cls-3" points="506.83 433.74 504.27 441.18 510.31 452.63 516.85 463.53 520.97 456.43 529.32 447.33 506.83 433.74"/><polygon class="cls-4" points="505.14 438.57 510.76 421.15 535.56 438.01 527.4 452.9 505.14 438.57"/><path class="cls-5" d="M502.78,212.31l16.57,8.49s48.75,43.94,47.36,46.45-32,52.19-32,52.19-43.51-29.66-44.64-30.79-12.71-29.28-13.49-28.91,13.11-40.65,13.49-42.48,12.66-4.95,12.66-4.95"/></g><g id="Calque_5" data-name="Calque 5"><polygon class="cls-6" points="314.05 451.3 314.05 421.72 474.25 425.39 473.38 447.77 314.05 451.3"/><path class="cls-5" d="M311.56,392.92l-10.89-97.75L294,212.65l11.1-5.75L359,179l42.81,52.53,36.33-49.16,64.66,30-10.44,101-15.71,73s3.29,24.38.56,31.77l-2.93,7.23-160.21,2.4L310,422C302.26,408.8,311.52,396.06,311.56,392.92Z"/><polygon class="cls-7" points="355.72 183.32 365.7 164.95 370.68 187.44 393.37 211.45 377.44 235.85 355.72 183.32"/><polygon class="cls-7" points="440.1 185.17 426.18 164.31 424.79 188.72 405.49 210.69 424.19 234.01 440.1 185.17"/><polygon class="cls-6" points="393.37 211.45 401.54 231.5 390.52 222.41 377.44 235.85 393.37 211.45"/><polygon class="cls-6" points="401.54 231.5 405.49 210.69 424.19 234.01 410.81 223.47 401.54 231.5"/><path class="cls-5" d="M306.81,298.05c-1.77.71-49.77,44.4-50.83,43.73s-28.58-63.49-27.52-63.49S294,212.65,294,212.65"/></g></svg>