<svg xmlns="http://www.w3.org/2000/svg" viewBox="0 0 145.83 131.9"><defs><style>.cls-1{fill:#aa5b3f;}.cls-2{fill:#6d323a;}.cls-3{fill:#473415;}.cls-4{fill:none;stroke:#000;stroke-miterlimit:10;stroke-width:3px;}.cls-5{fill:#a38a6d;}.cls-6{fill:#4a330f;}.cls-7{fill:#3e322e;}.cls-8{fill:#574640;}</style></defs><g id="Calque_5" data-name="Calque 5"><path class="cls-1" d="M77,66.89c3.25,2.11,6.72,10.52,10.5,11.38,1.34.31,4-1.58,4.77-2.74,2.68-4.22,1.38-16.07,5.18-19.32,3.22-2.75,11-1.17,11.13-12.76.11-7.05-8.11-10.41-10.12-11.12a8.15,8.15,0,0,1-1-.41L85.29,25.86a8.63,8.63,0,0,1-4.78-7.59l-.07-5.45-8.13.62-8-.62,0,4.75a9.54,9.54,0,0,1-5.3,8.6l-12.11,6S36.21,35.42,36.34,43.45c.18,11.59,7.9,10,11.12,12.76,3.8,3.25,2.5,15.1,5.19,19.32.74,1.16,3.43,3,4.77,2.74,3.77-.86,7.1-9.52,10.49-11.38C69.91,65.79,75.11,65.64,77,66.89Z"/><polygon class="cls-1" points="72.87 11.21 80.42 12.41 80.72 29.92 72.42 39.73 64.21 29.92 64.52 12.41 72.87 11.21"/><path class="cls-2" d="M80.87,20.64l-.3.38C79,22.93,71.86,31.59,68,34.39c-1,.69-1.73,1-2.17.81-2-1-4.48-10.59-4.48-10.59a5.32,5.32,0,0,0,.55-.59,11.61,11.61,0,0,0,2.34-5c0-.07,0-.13,0-.2a14.56,14.56,0,0,0,.2-1.45c.13-1.29.19-2.89.22-4.53v-.46c0-.39,0-.79,0-1.18H80.45l0,3.19v4.34l0,.23,0,.2.28,1.38Z"/><polygon class="cls-3" points="48.5 106.07 48.95 99.28 95.74 99.28 96.34 105.16 48.5 106.07"/><path class="cls-4" d="M92.71,42.8C90.76,50.92,95,59.66,95,59.66s6.22,17.74,8.2,23.68c.93,2.8,2.78,8.68,9.83,6.54h0c5.82-1.75,5.1-7.66,4.47-10.42-1.28-5.63-5.06-16.75-5.34-22.45-.21-4.24,1.12-10.87-3.26-16.68,0,0-3.06-5.15-9-4.08l-.23,0a8.65,8.65,0,0,0-6.9,6.51Z"/><path class="cls-5" d="M83.82,27.74S100.06,33.48,105,36.4C113.62,41.53,99.56,59,99.56,59l-3.1,19.62L98,98.93l-2.33,3.56-46.25.24-2.51-3.59.18-19.55s-1.59-15.31-4.79-19c-7.19-8.33-.38-26-.38-26l19.24-6.84s5.1,11.87,12,11.22C80.93,38.21,83.82,27.74,83.82,27.74Z"/><polygon class="cls-6" points="48.48 105.83 48.93 99.04 95.71 99.04 96.31 104.93 48.48 105.83"/><path class="cls-1" d="M85.9,112.15l12-5.28,6.87,7-.78,3.17-3.62,3.62s-6.85-5.82-6.85-6.34-5.24,1.29-5.24,1.29Z"/><path class="cls-1" d="M59.51,110l-11.7-5-7.18,6.73.78,3.16L45,118.57s6.85-5.81,6.85-6.33,5.23,1.29,5.23,1.29Z"/><polygon class="cls-7" points="109.75 38.53 116.09 55.42 118.7 88.31 104.97 114.33 95.98 105.58 104.5 83.1 102.84 59.44 109.75 38.53"/><polygon class="cls-8" points="82.97 23.83 85.45 60.15 85.45 111.14 103.2 105.1 105.92 59.2 109.68 38.29 82.97 23.83"/><polygon class="cls-7" points="94.35 32.35 91.31 38.62 87.58 38.06 84.35 43.59 82.99 23.97 89.19 30.05 94.35 32.35"/><polygon class="cls-7" points="35.18 38.53 29.73 53.91 27.13 86.8 40.85 112.82 49.85 104.07 41.33 81.59 42.98 57.93 35.18 38.53"/><polygon class="cls-8" points="62.86 22.32 60.38 58.64 60.38 109.63 42.63 103.59 39.91 57.69 34.94 38.29 62.86 22.32"/><path class="cls-7" d="M62.85,22.22s-.49,5.81.46,7.4c1.63,2.7,7.47,3.86,7.47,3.86L69.1,39.31l-3.91-1.18-4,7.28.1-6.73a9.88,9.88,0,0,1-3.73-9.12C57.76,27.37,62.85,22.22,62.85,22.22Z"/></g></svg>