<svg xmlns="http://www.w3.org/2000/svg" viewBox="0 0 788 1005"><defs><style>.cls-1{fill:#aa5b3f;}.cls-2{fill:#6d323a;}.cls-3{fill:#dbb642;}</style></defs><g id="Calque_5" data-name="Calque 5"><path class="cls-1" d="M517.19,243.82c-.6,38.39-26.2,33.17-36.86,42.29-12.58,10.77-8.28,50-17.18,64-2.45,3.84-11.36,10.1-15.81,9.08-12.5-2.87-24-30.73-34.76-37.73-6.33-4.12-23.57-3.62-30.19,0-11.25,6.16-22.27,34.86-34.77,37.73-4.44,1-13.35-5.24-15.8-9.08-8.91-14-4.6-53.24-17.19-64-10.66-9.12-36.26-3.9-36.86-42.29-.42-26.59,35-37.34,35-37.34l40.15-19.91a31.54,31.54,0,0,0,17.3-24.45c.17-1.33,3.88-1.56,3.87-2.92l2.31-19-.19,3.63-4.62-1.43,25.38,2,26.88-2.06h.07l.08,5.72.14,11.21,0,1.48c0,.88.08,1.76.18,2.63v0a29.7,29.7,0,0,0,.89,4.41A28.5,28.5,0,0,0,440,185.54l40.53,20.1a28.32,28.32,0,0,0,3.17,1.33C490.33,209.35,517.56,220.48,517.19,243.82Z"/><polygon class="cls-1" points="424.82 202.24 397.32 234.74 370.14 202.24 370.15 201.74 370.86 160.59 371.12 145.64 371.12 145.58 371.14 144.24 371.6 144.17 398.82 140.24 423.82 144.24 423.84 145.58 423.84 145.59 424 154.81 424.13 162.51 424.16 163.99 424.19 165.9 424.32 173.45 424.82 202.24"/><path class="cls-2" d="M423.78,138.25l.06,4.09H424l0,5.72v3.51l.05,10.38.14.71.15.72v0l.89,4.41.09.43s-.34.72-1,2c-4.3,8.13-22.37,38.52-48.69,32.37-1.84-.43-3.71-2-5.48-4.08-5.27-6.2-9.66-17.1-9.66-17.1a18.69,18.69,0,0,0,1.81-1.94,38.49,38.49,0,0,0,7.76-16.56c.05-.25.11-.51.15-.78.26-1.36.47-3,.65-4.77.42-4.24.17-13.79.26-19.21"/><path class="cls-1" d="M458.24,227.51C480,210.43,512.14,211,512.14,211s62-5.78,82.64-8c9.72-1.06,30-3.63,33.28,20.56h0c2.74,19.94-16,25.93-25.22,27.86-18.71,3.92-57.43,7.92-75,14.94-13.07,5.23-31.18,18.38-54.73,13.23,0,0-19.74-2.1-24.76-21.52l-.2-.77a28.67,28.67,0,0,1,10.07-29.76Z"/><path class="cls-1" d="M605.7,247.64c-19.72,2.6-29-19.17-31.86-27.28s-4.74-25.77-5.67-34.45c-2.39-22.22-3.53-59.85-6.16-81.55-1.73-14.26-3-21.74,5.77-25.27,8-3.21,14.32,9.38,16.84,14.29,10.39,20.21,31.19,59.43,38.54,82.3,3,9.39,7.37,28.94,7.17,38.8C629.76,242.07,611.44,246.89,605.7,247.64Z"/><path class="cls-1" d="M338.81,233.06c5.32,27.16-9.77,55.52-9.77,55.52s-23,57.87-30.38,77.27c-3.47,9.15-10.37,28.34-33.43,20.31h0c-19-6.61-15.83-26.05-13.37-35.12,5-18.45,19-54.76,20.74-73.58,1.28-14-2.21-36.13,13.07-54.77,0,0,10.84-16.63,30.42-12.29l.77.17a28.7,28.7,0,0,1,21.95,22.49Z"/><path class="cls-1" d="M561.73,80.84l6.55-19.57,16-23.48s4.09,3.87,4.27,5.63c.57,5.51-3.53,13.32-5.8,18.37-.31.67.1,4,.65,4.51,2.28,2,7.53-1.65,7.53-1.65L578.48,81Z"/><path class="cls-1" d="M567.4,77.37,581.84,93l35.79-28,24.73-41.3S636,21.5,634,22.14c-10.57,3.36-22.85,24.11-30.92,31.68C594.34,62,567.4,77.37,567.4,77.37Z"/><ellipse class="cls-1" cx="573.3" cy="84.56" rx="12.1" ry="12.15" transform="translate(252.52 567.17) rotate(-64.78)"/><path class="cls-3" d="M303.45,209.67s20.22,22.37,21.13,41.16-4.51,48-4.51,48-2.71,115.8-.91,120.43-5.81,19-2.43,32,71.6,3.51,89.22-1.45,60.59-20.79,63.06-22.23c18.5-10.76-3.79-65.95-3.44-74.56.49-12.19,11.59-65.05,11.59-65.05,1.82-1.89,13.11-69-4.69-85.68L440,185.54h0a30.85,30.85,0,0,1-28.22,25.34c-17.71,1.24-36.27,3.37-46.74,4.66a21.46,21.46,0,0,1-21.75-11.17,18.17,18.17,0,0,1-2-11.63Z"/><path class="cls-1" d="M249.26,380.32c-8.79-17.85,8.87-33.58,15.63-38.92S287.78,328.65,295.7,325C316,315.6,351.26,302.46,371,293c13-6.21,19.62-9.85,25.79-2.63,5.62,6.58-4.3,16.57-8.14,20.53-15.81,16.32-46.3,48.59-65.6,62.88-7.93,5.88-25,16.26-34.46,19.23C262.24,401.33,251.81,385.51,249.26,380.32Z"/><path class="cls-1" d="M390.19,311.07l16.55-12.33,17.31-22.53s-5-2.69-6.68-2.31c-5.42,1.18-11.56,7.52-15.65,11.25-.54.5-3.85,1.16-4.48.78-2.61-1.54-.79-7.67-.79-7.67l-11.68,17Z"/><path class="cls-1" d="M391.72,304.6l-19.32-8.86L387.82,253l31.52-36.38s4.05,5.35,4.07,7.48c.11,11.09-15.78,29.23-20.45,39.27C397.91,274.21,391.72,304.6,391.72,304.6Z"/><ellipse class="cls-1" cx="383.05" cy="301.24" rx="12.1" ry="12.15" transform="translate(-102.24 345.59) rotate(-43.4)"/></g></svg>