<svg xmlns="http://www.w3.org/2000/svg" viewBox="0 0 788 1005"><defs><style>.cls-1{fill:#87442d;}.cls-2{fill:#aa5b3f;}.cls-3{fill:#c1272d;}.cls-4{fill:#823f1d;}.cls-5{fill:#ff931e;}</style></defs><g id="Calque_5" data-name="Calque 5"><path class="cls-1" d="M369,142.34l.11,15.73a31.54,31.54,0,0,1-17.53,28.5l-40.15,19.92s-19.41,7.74-19,34.33c.6,38.39,10.2,36.18,20.85,45.3,12.59,10.77,8.28,50,17.19,64,2.45,3.84,11.36,10.11,15.8,9.09,12.51-2.88,23.52-31.57,34.77-37.73,6.62-3.63,23.87-4.12,30.19,0,10.75,7,22.27,34.85,34.77,37.73,4.44,1,13.35-5.25,15.8-9.09,8.91-14,4.6-53.23,17.19-64,10.65-9.12,23.25-9.91,23.86-48.3.36-23.34-13.87-28.47-20.53-30.84a29.51,29.51,0,0,1-3.17-1.34l-40.53-20.1a28.48,28.48,0,0,1-15.82-25.14l-.23-18.05"/><path class="cls-2" d="M453.65,213.69c22.18-16.56,54.28-15.22,54.28-15.22s62.12-4.29,82.81-6.05c9.74-.83,30-2.9,32.78,21.36h0c2.26,20-16.65,25.54-25.89,27.24-18.79,3.47-57.6,6.55-75.31,13.14-13.19,4.91-31.61,17.63-55,11.92,0,0-19.68-2.58-24.24-22.11l-.18-.77a28.67,28.67,0,0,1,10.78-29.51Z"/><path class="cls-2" d="M586.3,236.72c-17.91-8.67-13.67-31.94-11.63-40.3s10.2-24.14,14.19-31.9c10.22-19.88,29.95-52,39.67-71.52,6.39-12.87,9.4-19.84,18.71-17.94,8.47,1.72,6.8,15.7,6.21,21.19-2.42,22.59-6.6,66.79-13,89.94-2.64,9.5-9.74,28.23-15.33,36.35C609.46,245.28,591.5,239.23,586.3,236.72Z"/><polygon class="cls-3" points="316.71 451.3 318.21 428.8 473.21 428.8 475.21 448.3 316.71 451.3"/><path class="cls-2" d="M336.88,216c-22.19-16.56-54.29-15.22-54.29-15.22s-62.12-4.29-82.8-6c-9.75-.82-30-2.9-32.78,21.36h0c-2.27,20,16.64,25.54,25.88,27.25,18.79,3.47,57.6,6.54,75.31,13.14,13.19,4.91,31.62,17.62,55,11.91,0,0,19.68-2.57,24.24-22.1l.18-.78A28.69,28.69,0,0,0,336.88,216Z"/><path class="cls-2" d="M204.22,239c17.91-8.67,13.67-31.94,11.63-40.3s-10.2-24.14-14.19-31.9C191.44,146.9,171.72,114.83,162,95.27c-6.39-12.88-9.4-19.85-18.71-18-8.47,1.73-6.8,15.7-6.21,21.19,2.42,22.59,6.6,66.79,13,89.94,2.64,9.51,9.75,28.23,15.34,36.36C181.06,247.55,199,241.5,204.22,239Z"/><path class="cls-2" d="M134.56,88.7a36.25,36.25,0,0,1-3.14-13.09L130,51.52A8.12,8.12,0,0,1,132,46h0a10.34,10.34,0,0,1,7.65-3.37l20.69-3.16c3.43-.09,5.11.78,6.59,3.62l-.55,6.47s1.87,8.86,2,6.2c.38-9.35,1.86-15.69,10-14.79l-1.46,15.52c.12,1.28-1.2,3.86-1.84,5-2,3.47-3.39,11.49-5.44,14.21,0,0-10,10.21-11.08,12.65-1.14,2.62,1.23,6,1.23,6h0A9.37,9.37,0,0,1,148,102.2l-8.76-2.45Z"/><path class="cls-4" d="M167,43.11l-1.29,12.6-7.89,13.08-8-1.33,1.29,1a10.12,10.12,0,0,1,3.69,9.1l-.52,4.33,4.86-9.83,2.59-1.84,7.12-14.79-.33-6.62Z"/><path class="cls-2" d="M654.2,88.7a36.45,36.45,0,0,0,3.13-13.09l1.39-24.09a8.06,8.06,0,0,0-2-5.49h0a10.38,10.38,0,0,0-7.65-3.37l-20.7-3.16c-3.43-.09-5.11.78-6.58,3.62l.54,6.47s-1.87,8.86-2,6.2c-.38-9.35-1.85-15.69-10-14.79l1.46,15.52c-.11,1.28,1.21,3.86,1.84,5,2,3.47,3.4,11.49,5.45,14.21,0,0,10,10.21,11.07,12.65,1.14,2.62-1.23,6-1.23,6h0a9.37,9.37,0,0,0,11.82,7.81l8.77-2.45Z"/><path class="cls-4" d="M621.79,43.11l1.29,12.6L631,68.79l8-1.33-1.29,1A10.12,10.12,0,0,0,634,77.6l.52,4.33-4.86-9.83-2.59-1.84-7.12-14.79.34-6.62Z"/><path class="cls-5" d="M269.53,191.29l27.06,85.37,0,.14c.51,2.05,12.77,51.64,14.69,69.78,2.13,20.22-5.85,110.75-5.85,110.75-.07,1.31,179.06,7.17,179.06,7.17a2.35,2.35,0,0,0,2.4-2.47c-.65-12.4-3.29-67.76-.39-105,1.45-18.56,14.37-73.32,14.9-75.58,0-.05,0-.09,0-.15L529.61,191a2.34,2.34,0,0,0-2.14-3l-64.76-2.76a2.27,2.27,0,0,0-1.22.29L404.12,217a2.34,2.34,0,0,1-2.33,0l-57.33-34.07a2.37,2.37,0,0,0-1.38-.32l-71.5,5.71A2.34,2.34,0,0,0,269.53,191.29Z"/></g></svg>