<svg xmlns="http://www.w3.org/2000/svg" viewBox="0 0 132.94 85.38"><defs><style>.cls-1{fill:#3f302b;}.cls-2{fill:#aa5b3f;}.cls-3{fill:#d08d72;}.cls-4{fill:#6d323a;}.cls-5,.cls-7{fill:none;stroke-miterlimit:10;}.cls-5{stroke:#000;stroke-width:3px;}.cls-6{fill:#473415;}.cls-7{stroke:#4f3742;}.cls-8{fill:#281e1c;}</style></defs><g id="Calque_7" data-name="Calque 7"><path class="cls-1" d="M74.14,6.13c0-6.06,8-3,18-3s17.92-3,17.92,3S100.87,18.19,91,18.19,74.14,12.19,74.14,6.13Z"/><path class="cls-2" d="M23.89,16.61l-3.7-3.38L14,10.14a4.37,4.37,0,0,0-.24,1.71c.53,1.23,2.33,2.41,3.41,3.21a1.94,1.94,0,0,1,.4,1c-.25.7-1.8.55-1.8.55l4.59,2Z"/><path class="cls-2" d="M22.28,16.55l-1.22,5-10.91-1.7L0,14s1.09-1.21,1.6-1.32c2.64-.54,7.71,2.41,10.32,3.06C14.74,16.48,22.28,16.55,22.28,16.55Z"/><ellipse class="cls-3" cx="21.88" cy="18.77" rx="2.96" ry="2.94" transform="translate(-6.12 25.63) rotate(-54.39)"/><path class="cls-2" d="M120.84,22.64c-.15,9.33-6.37,8.07-9,10.28-3.06,2.62-2,12.17-4.18,15.57-.6.93-2.76,2.45-3.84,2.21-3-.7-5.85-7.48-8.46-9.18-1.54-1-5.73-.88-7.34,0C85.33,43,82.65,50,79.61,50.7c-1.08.24-3.25-1.28-3.85-2.21-2.16-3.4-1.11-13-4.18-15.57-2.59-2.21-8.81-1-9-10.28-.1-6.47,8.51-9.08,8.51-9.08l9.76-4.84a7.74,7.74,0,0,0,1.73-1.17c.2-.18.38-.37.56-.56l.15-.17v0a7.7,7.7,0,0,0,1.76-4,8.72,8.72,0,0,0,.06-1V0h13V2.6h0c0,.16,0,.32,0,.48a6.83,6.83,0,0,0,.23,1.11,6.93,6.93,0,0,0,3.57,4.28l9.86,4.88a5.25,5.25,0,0,0,.77.33C114.31,14.26,120.93,17,120.84,22.64Z"/><polygon class="cls-2" points="98.23 11.74 91.55 19.64 87.95 15.34 84.93 11.74 85.11 1.63 85.11 1.1 85.14 0 98.03 0 98.03 0.06 98.05 1.19 98.05 1.19 98.06 1.57 98.07 2.6 98.07 2.6 98.08 2.92 98.11 4.57 98.23 11.74"/><path class="cls-4" d="M98.35,4.26l-.24.31c-1.26,1.54-7,8.52-10.16,10.77-.78.56-1.4.83-1.76.66-1.64-.8-3.6-8.54-3.6-8.54l0,0c0-.05.2-.2.42-.45l.25-.32,0,0A9.81,9.81,0,0,0,84.92,3l0-.15c.06-.34.11-.73.16-1.18,0-.17,0-.35,0-.53,0-.35,0-.72.07-1.1H98V2.73l0,.19,0,.16.23,1.11Z"/><path class="cls-5" d="M108.51,62.16a58.07,58.07,0,0,1-1.36-8.23c0-2.23,1-6.74.44-8.91-2.38-9.63-30-9.65-32.42,0-.54,2.17.42,6.68.44,8.91a57.91,57.91,0,0,1-1.37,8.23C71.56,74.39,91.35,80,91.35,80S111.2,74.39,108.51,62.16Z"/><path class="cls-2" d="M51.88,48.1c2.66-3.44-.69-8.1-2-9.74a53.69,53.69,0,0,0-6.29-5.66C39.4,29.28,27,20.89,23.89,16.61c-2.17-3-5.58,2.05-5.58,2.05a50.12,50.12,0,0,1,5,4.88c3.45,4.29,6.83,11,12.3,18.33a35.81,35.81,0,0,0,7,6.54C48.15,52,51.11,49.1,51.88,48.1Z"/><path class="cls-2" d="M76.81,24.34C74.73,30.75,68.17,35,68.17,35S56.44,44.57,52.58,47.82c-1.81,1.54-5.55,4.8-9.5.37h0c-3.26-3.65-.29-7.41,1.31-9C47.63,35.82,54.9,29.75,57.49,26c1.93-2.83,3.8-7.94,9.25-10.1a7.28,7.28,0,0,1,7.92,1l.14.13a7,7,0,0,1,2,7.37Z"/><path class="cls-2" d="M106.77,21.93c-.3,6.72,4.36,13,4.36,13S118.75,48,121.22,52.41c1.16,2.08,3.51,6.44,8.77,3.68h0c4.33-2.27,2.87-6.83,1.95-8.93-1.87-4.25-6.55-12.48-7.64-16.94-.82-3.33-.77-8.77-5.12-12.7a7.26,7.26,0,0,0-7.76-1.86l-.18.07a7,7,0,0,0-4.47,6.2Z"/><path class="cls-5" d="M108.65,62a56.51,56.51,0,0,1-1.37-8.23c0-2.23,1-6.74.44-8.91-2.38-9.63-30-9.64-32.42,0-.54,2.17.42,6.68.44,8.91A56.51,56.51,0,0,1,74.37,62C71.69,74.24,91.48,79.84,91.48,79.84S111.33,74.24,108.65,62Z"/><polygon class="cls-6" points="72.41 72.93 72.77 67.46 110.46 67.46 110.95 72.2 72.41 72.93"/><polygon class="cls-7" points="91.34 82.31 90.13 72.58 93.77 72.58 93.53 80.43 91.34 82.31"/><path class="cls-1" d="M68.44,12.37c-.61,1.18,2.34,20.28,2.34,20.28l-4,42.12,3.78,4,0,6.57h41.38l-.16-5.6,2.56-5.52-3.86-39.61,3.61-22L101.91,8.47l-7.56,9.17-6.55-.53L82.47,7.55Z"/><path class="cls-2" d="M131.65,52.82c.68-4.18-4-7.38-5.68-8.45a50.8,50.8,0,0,0-7.38-3.09c-4.77-1.72-12.86-4-17.52-5.73-3.06-1.15-4.66-1.84-5.47-.09-.74,1.58,1.93,3.64,3,4.46,4.29,3.36,12.6,10,17.48,12.87a41.05,41.05,0,0,0,8.31,3.65C130.3,57.8,131.45,54,131.65,52.82Z"/><path class="cls-2" d="M105.38,37.59l-2.55-1.38s-5-5.52-5.19-5.74-3.94-3.34-4.19-3.59-2.09-2.65-2.09-2.65L90.2,26.56l1.91,2.76,2.26,2.25L88.61,30.5S79.94,28,79.79,28.26s-.36,2-.06,2.12,8.45,2.74,8.45,2.74-10.34-1.43-10.42-.92-.13,2.33.3,2.33,9.26.92,9.26.92-9.39.69-9.25,1,.72,2,.72,2L88,38.15,81.5,40.28s1.1,1.82,1.39,1.81S90.31,40,90.31,40s7.21.75,7.58.57c1.07-.54,3.5,1,3.5,1Z"/><path class="cls-8" d="M75.38,11.07s11,10.27,16.35,11.41c0,0-6.4,3.75-11.25,1.22s-9.34-11.41-9.14-11.5S75.38,11.07,75.38,11.07Z"/><rect class="cls-8" x="70.58" y="78.81" width="41.35" height="6.58"/></g></svg>