<?xml version="1.0" encoding="utf-8"?>
<!-- Generator: Adobe Illustrator 26.0.3, SVG Export Plug-In . SVG Version: 6.00 Build 0)  -->
<svg version="1.1" id="Calque_1" xmlns="http://www.w3.org/2000/svg" xmlns:xlink="http://www.w3.org/1999/xlink" x="0px" y="0px"
	 viewBox="0 0 145.8 155.4" style="enable-background:new 0 0 145.8 155.4;" xml:space="preserve">
<style type="text/css">
	.st0{fill:#BC3737;}
	.st1{clip-path:url(#SVGID_00000119829485558034638110000007617040923736244891_);}
	.st2{fill:#CCAA97;}
	.st3{clip-path:url(#SVGID_00000112634460192451148500000004268067893936708754_);}
	.st4{fill:#E0B9A0;}
	.st5{fill:#C58C85;}
	.st6{fill:#423522;}
	.st7{fill:#BF9079;}
</style>
<g>
	<polygon class="st0" points="20.7,44.8 49.2,41.4 23.7,54.4 20.7,44.8 	"/>
</g>
<g>
	<polygon class="st0" points="137.1,54.2 114.8,40.7 140.5,44.9 137.1,54.2 	"/>
</g>
<g>
	<g>
		<g>
			<g>
				<g>
					<g>
						<defs>
							<polygon id="SVGID_1_" points="118.3,75.2 118.3,75.2 133,75.2 133,104 118.3,104 							"/>
						</defs>
						<clipPath id="SVGID_00000140711959859696904030000011776531506217076659_">
							<use xlink:href="#SVGID_1_"  style="overflow:visible;"/>
						</clipPath>
						<g style="clip-path:url(#SVGID_00000140711959859696904030000011776531506217076659_);">
							<path class="st2" d="M119.4,81c0,0,5-6.1,8-5.8c4.4,0.4,6.4,8.6,5.7,12.2c-0.6,4.6-4.7,14.4-9.8,16.5c-1,0.4-5.4-1.1-5.4-1.1
								L119.4,81z"/>
						</g>
					</g>
				</g>
			</g>
		</g>
	</g>
</g>
<g>
	<g>
		<g>
			<g>
				<g>
					<g>
						<defs>
							<polygon id="SVGID_00000160871542982076019300000005867512749361031864_" points="44.9,75.2 44.9,75.2 30.2,75.2 30.2,104 
								44.9,104 							"/>
						</defs>
						<clipPath id="SVGID_00000130621756859241590070000003027881988813024168_">
							<use xlink:href="#SVGID_00000160871542982076019300000005867512749361031864_"  style="overflow:visible;"/>
						</clipPath>
						<g style="clip-path:url(#SVGID_00000130621756859241590070000003027881988813024168_);">
							<path class="st2" d="M43.9,81c0,0-5-6.1-8-5.8c-4.4,0.4-6.4,8.6-5.8,12.2c0.8,4.6,4.7,14.4,9.9,16.5c1,0.4,5.2-1,5.2-1
								L43.9,81z"/>
						</g>
					</g>
				</g>
			</g>
		</g>
	</g>
</g>
<path class="st4" d="M60.7,43.1c0.7-1.6,1.5-3.1,2.6-4.5c1.1-1.4,2.2-2.7,3.5-3.8c1.3-1.1,2.7-2.2,4.2-3.1c1.4-0.9,3-1.7,4.6-2.2
	c-1.6,0.7-3.1,1.5-4.5,2.4c-1.4,0.9-2.8,2-4,3.1c-1.3,1.1-2.4,2.4-3.6,3.7C62.4,40.2,61.4,41.6,60.7,43.1z"/>
<circle class="st5" cx="82" cy="61.4" r="39.4"/>
<path class="st6" d="M81.8,107.5c-23.6,0-42.7-19.1-42.7-42.7S58.6,22,82.1,22"/>
<path class="st6" d="M82.5,22c23.6,0,42.7,19.1,42.7,42.7s-19.1,42.7-42.7,42.7l0,0"/>
<path class="st4" d="M118.6,57.5c-0.9-9.6-37-15.1-37-15.1l0,0c0,0-36.1,5.6-37,15.1c-2.3,22.8-1,31.9,0.5,57.5
	c0.6,10.1,26.2,27.6,30.3,30.3c0.4,0.2,0.8,0.4,1.2,0.4l4.9,0.1h0.1l4.9-0.1c0.4,0,0.8-0.1,1.2-0.4c4.1-2.8,29.7-20.4,30.3-30.3
	C119.6,89.4,120.8,80.5,118.6,57.5z"/>
<ellipse class="st0" cx="38.2" cy="106.9" rx="4.1" ry="4.6"/>
<ellipse class="st0" cx="125.2" cy="106.9" rx="4.1" ry="4.6"/>
<path class="st7" d="M86.8,106.2c0,1-2.3,1.7-5.2,1.7c-2.9,0-5.2-0.8-5.2-1.7"/>
<path class="st6" d="M74.3,43.8c0,0-13.4,1.6-21.2,10.1c-3.7,4.1-3.9,7.3-3.9,7.3s-0.4-6.6,2.7-10.6c3.1-4,12.2-8.1,12.2-8.1"/>
<ellipse transform="matrix(0.8331 -0.5532 0.5532 0.8331 -7.6615 30.4847)" class="st6" cx="46.7" cy="27.9" rx="16.7" ry="14.4"/>
<ellipse transform="matrix(0.5532 -0.8331 0.8331 0.5532 29.7022 109.9334)" class="st6" cx="117.3" cy="27.3" rx="14.3" ry="17.5"/>
<g>
	<path class="st0" d="M63.1,26.9c-7.2,4.3-13,9.7-18,16.4C47.5,35.2,54.8,28.5,63.1,26.9L63.1,26.9z"/>
</g>
<g>
	<path class="st0" d="M100.9,26.3c8.3,1.6,15.6,8.3,18,16.4C114,36,108.1,30.6,100.9,26.3L100.9,26.3z"/>
</g>
<g>
	<polygon class="st0" points="29.8,58.6 45,43.2 38.3,63.8 29.8,58.6 	"/>
</g>
<g>
	<polygon class="st0" points="128.1,64.1 119.8,43.9 136.2,58.3 128.1,64.1 	"/>
</g>
</svg>
