<?xml version="1.0" encoding="utf-8"?>
<!-- Generator: Adobe Illustrator 26.0.3, SVG Export Plug-In . SVG Version: 6.00 Build 0)  -->
<svg version="1.1" id="Calque_1" xmlns="http://www.w3.org/2000/svg" xmlns:xlink="http://www.w3.org/1999/xlink" x="0px" y="0px"
	 viewBox="0 0 788 1005.1" style="enable-background:new 0 0 788 1005.1;" xml:space="preserve">
<style type="text/css">
	.st0{fill:#BC3737;}
	.st1{clip-path:url(#SVGID_00000063600367819739407590000008790637324206847903_);}
	.st2{fill:#CCAA97;}
	.st3{clip-path:url(#SVGID_00000116919743203936896190000009555877305329392017_);}
	.st4{fill:#E0B9A0;}
	.st5{fill:#C58C85;}
	.st6{fill:#423522;}
	.st7{fill:#BF9079;}
</style>
<g>
	<polygon class="st0" points="347.1,101.3 374.8,98.1 350,110.9 347.1,101.3 	"/>
</g>
<g>
	<polygon class="st0" points="460.2,110.7 438.5,97.5 463.6,101.4 460.2,110.7 	"/>
</g>
<g>
	<g>
		<g>
			<g>
				<g>
					<g>
						<defs>
							<polygon id="SVGID_1_" points="442,131 442,131 456.3,131 456.3,159 442,159 							"/>
						</defs>
						<clipPath id="SVGID_00000056419714855090550750000017292113414621658242_">
							<use xlink:href="#SVGID_1_"  style="overflow:visible;"/>
						</clipPath>
						<g style="clip-path:url(#SVGID_00000056419714855090550750000017292113414621658242_);">
							<path class="st2" d="M443,136.7c0,0,4.8-6,7.7-5.7c4.3,0.4,6.2,8.4,5.5,11.8c-0.6,4.5-4.6,14-9.5,16c-0.9,0.4-5.2-1-5.2-1
								L443,136.7z"/>
						</g>
					</g>
				</g>
			</g>
		</g>
	</g>
</g>
<g>
	<g>
		<g>
			<g>
				<g>
					<g>
						<defs>
							<polygon id="SVGID_00000148636307141944364990000001319145509222619286_" points="370.7,131 370.7,131 356.3,131 356.3,159 
								370.7,159 							"/>
						</defs>
						<clipPath id="SVGID_00000146494321103043951010000009393160043426336900_">
							<use xlink:href="#SVGID_00000148636307141944364990000001319145509222619286_"  style="overflow:visible;"/>
						</clipPath>
						<g style="clip-path:url(#SVGID_00000146494321103043951010000009393160043426336900_);">
							<path class="st2" d="M369.6,136.7c0,0-4.8-6-7.7-5.7c-4.3,0.4-6.2,8.4-5.7,11.8c0.7,4.5,4.6,14,9.6,16c0.9,0.4,5-0.9,5-0.9
								L369.6,136.7z"/>
						</g>
					</g>
				</g>
			</g>
		</g>
	</g>
</g>
<path class="st4" d="M386,99.8c0.7-1.6,1.5-3,2.5-4.4c1-1.3,2.1-2.6,3.4-3.7c1.3-1.1,2.6-2.1,4.1-3c1.4-0.9,3-1.6,4.5-2.1
	c-1.6,0.7-3,1.5-4.4,2.4c-1.4,0.9-2.7,1.9-3.9,3c-1.3,1.1-2.4,2.3-3.5,3.6C387.7,96.9,386.7,98.3,386,99.8z"/>
<circle class="st5" cx="406.7" cy="117.6" r="38.3"/>
<path class="st6" d="M406.5,162.4c-22.9,0-41.5-18.6-41.5-41.5s18.9-41.6,41.8-41.6"/>
<path class="st6" d="M407.2,79.3c22.9,0,41.5,18.6,41.5,41.5s-18.6,41.5-41.5,41.5l0,0"/>
<path class="st4" d="M442.3,113.8c-0.9-9.3-36-14.7-36-14.7l0,0c0,0-35.1,5.4-36,14.7c-2.2,22.2-1,31,0.5,55.9
	c0.6,9.8,25.5,26.8,29.5,29.5c0.4,0.2,0.8,0.4,1.2,0.4l4.8,0.1h0.1l4.8-0.1c0.4,0,0.8-0.1,1.2-0.4c4-2.7,28.9-19.8,29.5-29.5
	C443.2,144.8,444.4,136.1,442.3,113.8z"/>
<ellipse class="st0" cx="364.1" cy="161.8" rx="4" ry="4.5"/>
<ellipse class="st0" cx="448.7" cy="161.8" rx="4" ry="4.5"/>
<path class="st7" d="M411.4,161.1c0,0.9-2.2,1.7-5,1.7s-5-0.7-5-1.7"/>
<path class="st6" d="M399.2,100.4c0,0-13,1.6-20.6,9.8c-3.6,3.9-3.8,7.1-3.8,7.1s-0.4-6.4,2.6-10.3s11.8-7.9,11.8-7.9"/>
<ellipse transform="matrix(0.8331 -0.5532 0.5532 0.8331 15.1181 220.1743)" class="st6" cx="372.4" cy="85" rx="16.3" ry="14"/>
<ellipse transform="matrix(0.5532 -0.8331 0.8331 0.5532 126.7522 405.1187)" class="st6" cx="441" cy="84.4" rx="13.9" ry="17"/>
<g>
	<path class="st0" d="M388.3,84c-7,4.2-12.7,9.5-17.5,15.9C373.1,92.1,380.2,85.6,388.3,84L388.3,84z"/>
</g>
<g>
	<path class="st0" d="M425.1,83.4c8.1,1.6,15.2,8,17.5,15.9C437.7,92.9,432,87.6,425.1,83.4L425.1,83.4z"/>
</g>
<g>
	<polygon class="st0" points="355.8,114.8 370.8,99.9 364.4,120 355.8,114.8 	"/>
</g>
<g>
	<polygon class="st0" points="451.4,120.3 443.4,100.6 459.5,114.5 451.4,120.3 	"/>
</g>
</svg>
