<?xml version="1.0" encoding="utf-8"?>
<!-- Generator: Adobe Illustrator 26.0.3, SVG Export Plug-In . SVG Version: 6.00 Build 0)  -->
<svg version="1.1" id="Calque_1" xmlns="http://www.w3.org/2000/svg" xmlns:xlink="http://www.w3.org/1999/xlink" x="0px" y="0px"
	 viewBox="0 0 788 1005.1" style="enable-background:new 0 0 788 1005.1;" xml:space="preserve">
<style type="text/css">
	.st0{clip-path:url(#SVGID_00000142891451970497898660000006685892188558882690_);}
	.st1{fill:#CCAA97;}
	.st2{clip-path:url(#SVGID_00000084500711113252913930000009042133499027301034_);}
	.st3{fill:#353535;}
	.st4{fill:#C58C85;}
	.st5{fill:#423522;}
	.st6{fill:#E0B9A0;}
	.st7{fill:#BF9079;}
</style>
<g>
	<g>
		<g>
			<g>
				<g>
					<defs>
						<polygon id="SVGID_1_" points="441.8,133.2 441.8,133.2 456.7,133.2 456.7,162.2 441.8,162.2 						"/>
					</defs>
					<clipPath id="SVGID_00000036950820818814483430000009041729922459880601_">
						<use xlink:href="#SVGID_1_"  style="overflow:visible;"/>
					</clipPath>
					<g style="clip-path:url(#SVGID_00000036950820818814483430000009041729922459880601_);">
						<path class="st1" d="M442.8,139.1c0,0,5-6.1,8-5.9c4.4,0.5,6.3,8.6,5.9,12.3c-0.7,4.6-4.8,14.5-10,16.6
							c-1.1,0.4-4.8-0.9-4.8-0.9L442.8,139.1z"/>
					</g>
				</g>
			</g>
		</g>
	</g>
</g>
<g>
	<g>
		<g>
			<g>
				<g>
					<defs>
						<polygon id="SVGID_00000022562041203000979620000015042146415322924446_" points="372.3,133.2 372.3,133.2 357.5,133.2 
							357.5,162.2 372.3,162.2 						"/>
					</defs>
					<clipPath id="SVGID_00000086657764073180700340000008746883425920628622_">
						<use xlink:href="#SVGID_00000022562041203000979620000015042146415322924446_"  style="overflow:visible;"/>
					</clipPath>
					<g style="clip-path:url(#SVGID_00000086657764073180700340000008746883425920628622_);">
						<path class="st1" d="M371.4,139.1c0,0-5-6.1-8-5.9c-4.4,0.5-6.4,8.6-5.9,12.3c0.7,4.6,4.8,14.5,10,16.6
							c1.1,0.4,4.8-0.9,4.8-0.9L371.4,139.1z"/>
					</g>
				</g>
			</g>
		</g>
	</g>
</g>
<path class="st3" d="M373,118.4l-21-16c-1-0.8-2.5-0.6-3.4,0.4l-2.7,3.3c-0.9,1.1-0.6,2.8,0.6,3.6l21.7,13.6l0.3-6.5l-16.8,10.7
	c-1.2,0.8-1.5,2.5-0.6,3.6l2.6,3.2c0.8,1,2.2,1.2,3.3,0.5l18.7-13L373,118.4z"/>
<circle class="st4" cx="407.5" cy="118.1" r="38.3"/>
<path class="st5" d="M407.3,162.9c-22.9,0-41.5-18.6-41.5-41.5s18.9-41.6,41.8-41.6"/>
<path class="st5" d="M408,79.8c22.9,0,41.5,18.6,41.5,41.5s-18.6,41.5-41.5,41.5l0,0"/>
<path class="st6" d="M443.1,114.3c-0.9-9.3-36-14.7-36-14.7l0,0c0,0-35.1,5.4-36,14.7c-2.2,22.2-1,31,0.5,55.9
	c0.6,9.8,25.5,26.8,29.5,29.5c0.4,0.2,0.8,0.4,1.2,0.4l4.8,0.1h0.1l4.8-0.1c0.4,0,0.8-0.1,1.2-0.4c4-2.7,28.9-19.8,29.5-29.5
	C444,145.3,445.2,136.6,443.1,114.3z"/>
<ellipse class="st3" cx="366.9" cy="162.4" rx="3.4" ry="3.9"/>
<ellipse class="st3" cx="447.3" cy="162.8" rx="3.4" ry="3.9"/>
<g id="Calque_3_00000177465848162245240080000008476260514197900972_">
	<path class="st7" d="M411.8,160c0,0.9-2.1,1.6-4.8,1.6s-4.8-0.7-4.8-1.6"/>
</g>
<path class="st3" d="M371.6,120.2l11.6-4.6c14.4-5.7,30.8-6,45.3-0.6l14.3,5.3c2.7,1,5.7,3.6,6.4,1l0.7-2.9
	c0.9-3.4-7.4-18.6-14.6-24c-5.1-3.8-11.1-6.2-17.5-7c-6-0.7-12-0.8-18-0.2c-5.7,0.5-11.1,2.5-15.9,5.6c-9,5.8-20.8,23.2-19.9,25.9
	l1.1,2.9C366,124,369,121.2,371.6,120.2z"/>
</svg>
