<?xml version="1.0" encoding="utf-8"?>
<!-- Generator: Adobe Illustrator 26.0.3, SVG Export Plug-In . SVG Version: 6.00 Build 0)  -->
<svg version="1.1" id="Calque_1" xmlns="http://www.w3.org/2000/svg" xmlns:xlink="http://www.w3.org/1999/xlink" x="0px" y="0px"
	 viewBox="0 0 788 1005.1" style="enable-background:new 0 0 788 1005.1;" xml:space="preserve">
<style type="text/css">
	.st0{fill:#DD1B32;}
	.st1{fill:#30261A;}
	.st2{clip-path:url(#SVGID_00000056419978032154165950000010598715622818789044_);}
	.st3{fill:#CCAA97;}
	.st4{fill:#E0B9A0;}
	.st5{clip-path:url(#SVGID_00000144330800476266433200000017028579862691489171_);}
	.st6{fill:#B7837E;}
	.st7{fill:#B26959;}
	.st8{fill:#423522;}
	.st9{fill:#BF9079;}
	.st10{fill:#DBA51D;}
	.st11{fill:#EF8698;}
</style>
<g>
	<polygon class="st0" points="359.7,67.8 451.8,92.5 358.1,74.6 	"/>
</g>
<path class="st1" d="M423.3,122c15.7-3.7,22.7-6.1,26-6.7c3.2-0.6,2.9,0.6,3.7,4c1.8,6.9,4.6,38.5,4.6,38.5s-2.3,16.2-5.8,24.4
	s2.8,32.5-2,32.5s-15.5-24-20.7-24.5s-5.8-1.6-8.8-6.3C417.4,179.2,423.3,122,423.3,122z"/>
<g>
	<g>
		<g>
			<g>
				<g>
					<g>
						<g>
							<g>
								<g>
									<defs>
										<polygon id="SVGID_1_" points="440.4,134.6 440.4,134.6 454.7,134.6 454.7,162.4 440.4,162.4 										"/>
									</defs>
									<clipPath id="SVGID_00000060728555023486404440000000866709584573576629_">
										<use xlink:href="#SVGID_1_"  style="overflow:visible;"/>
									</clipPath>
									<g style="clip-path:url(#SVGID_00000060728555023486404440000000866709584573576629_);">
										<path class="st3" d="M441.4,140.2c0,0,4.8-5.9,7.6-5.6c4.2,0.5,6.1,8.3,5.6,11.8c-0.7,4.4-4.6,13.9-9.6,15.9
											c-0.9,0.4-4.6-0.8-4.6-0.8L441.4,140.2z"/>
									</g>
								</g>
							</g>
						</g>
					</g>
				</g>
			</g>
		</g>
	</g>
</g>
<circle class="st4" cx="407.3" cy="119.4" r="37.7"/>
<path class="st4" d="M442.3,115.6c-0.9-8.9-37.8-12.1-40.2-12.3h-8c-0.2,0-0.3,0-0.5,0l-6,0.9c0,0-15.2,2.4-16.1,11.5
	c-2.2,21.8-1,30.5,0.5,55c0.6,9.4,24.1,25.8,28.7,28.9c0.5,0.3,1.1,0.5,1.7,0.6l4.3,0.1h0.2l4.3-0.1c0.6,0,1.2-0.2,1.7-0.6
	c4.6-3.1,28.2-19.5,28.7-28.9C443.2,146.1,444.4,137.6,442.3,115.6z"/>
<g>
	<g>
		<g>
			<g>
				<g>
					<g>
						<g>
							<g>
								<g>
									<defs>
										<polygon id="SVGID_00000173162267678523965760000002081491670684474811_" points="371.3,133.6 371.3,133.6 356,133.6 
											356,163.3 371.3,163.3 										"/>
									</defs>
									<clipPath id="SVGID_00000157277097897982889980000015781756370504812459_">
										<use xlink:href="#SVGID_00000173162267678523965760000002081491670684474811_"  style="overflow:visible;"/>
									</clipPath>
									<g style="clip-path:url(#SVGID_00000157277097897982889980000015781756370504812459_);">
										<path class="st6" d="M370.3,139.6c0,0-5.1-6.3-8.2-6c-4.5,0.5-6.5,8.9-6,12.6c0.8,4.7,4.9,14.9,10.2,17
											c1,0.4,4.9-0.9,4.9-0.9L370.3,139.6z"/>
									</g>
								</g>
							</g>
						</g>
					</g>
				</g>
			</g>
		</g>
	</g>
</g>
<path class="st7" d="M386.1,106.5c0.9-2.1,2-4,3.3-5.8c1.4-1.8,2.9-3.4,4.5-4.9c1.7-1.5,3.4-2.9,5.4-4c1.9-1.2,3.9-2.2,6-2.9
	c-2.1,0.9-4,2-5.8,3.1c-1.9,1.2-3.6,2.6-5.2,4c-1.7,1.5-3.2,3-4.6,4.7C388.4,102.6,387.2,104.5,386.1,106.5z"/>
<path class="st8" d="M414.3,82.3c2.6,13.5-8.8,19.2-0.5,20.7c15.3,2.7,19.9,12.1,23.8,18.6c7.4,12.2,18.4,32.1,9.8,51.7
	c-6,13.6-8.2,46,11.8,56.1c0,0-10.5-11.3,3.9-39.5s5.3-70.4-15.3-91.3C422.2,72.5,414.3,82.3,414.3,82.3z"/>
<path class="st8" d="M414.4,82.3c0.5,4.9,1.1,17.4-13.9,21.4c-15.1,4-20.5,12.6-22.7,19.8c-4.2,13.6-6.3,39.4,6.9,56.5
	c9,11.8,18.9,42.7,2,57.3c0,0,7.5-13.5-13.3-37.5s-22.8-69.4-5.7-93.5C397.9,63.5,414.4,82.3,414.4,82.3z"/>
<path class="st9" d="M411.6,162c0,0.9-2.1,1.6-4.7,1.6c-2.7,0-4.7-0.7-4.7-1.6"/>
<ellipse class="st8" cx="411.8" cy="78.8" rx="30.5" ry="19"/>
<g>
	<circle class="st10" cx="368.2" cy="73.9" r="2.5"/>
	<path class="st11" d="M371,67.9c0,1.6-1.3,3.8-2.8,3.8c-1.6,0-2.8-2.2-2.8-3.8c0-1.6,1.3-2.8,2.8-2.8S371,66.4,371,67.9z"/>
	<path class="st11" d="M376.1,71.1c0,1.6-1.3,2.8-2.8,2.8c-1.6,0-3.5,0.1-3.5-1.4s1.9-4.2,3.5-4.2C374.8,68.3,376.1,69.6,376.1,71.1
		z"/>
	<path class="st11" d="M376.2,77.3c0,1.6-1.3,2.8-2.8,2.8c-1.6,0-3.5-2.9-3.5-4.5s1.9-1.2,3.5-1.2C374.9,74.5,376.2,75.7,376.2,77.3
		z"/>
	<path class="st11" d="M370.7,79.5c0,1.6-1.3,2.8-2.8,2.8c-1.6,0-2.8-1.3-2.8-2.8s1.4-3.6,3-3.6C369.6,75.9,370.7,77.9,370.7,79.5z"
		/>
	<path class="st11" d="M366.2,75.5c0,1.6-2,4.1-3.6,4.1s-2.8-1.3-2.8-2.8s1.3-2.8,2.8-2.8C364.2,73.9,366.2,73.9,366.2,75.5z"/>
	<path class="st11" d="M366.6,72.1c0,1.6-1.8,1.8-3.3,1.8c-1.6,0-2.8-1.3-2.8-2.8c0-1.6,1.3-2.8,2.8-2.8
		C364.8,68.2,366.6,70.5,366.6,72.1z"/>
</g>
<path class="st11" d="M447.6,165.2c-1.1,1.1-2.9,1-4-0.1s-0.3-4.5,0.9-5.6c1.1-1.1,2.2,0.6,3.2,1.7
	C448.7,162.3,448.7,164.1,447.6,165.2z"/>
</svg>
