<?xml version="1.0" encoding="utf-8"?>
<!-- Generator: Adobe Illustrator 26.0.3, SVG Export Plug-In . SVG Version: 6.00 Build 0)  -->
<svg version="1.1" id="Calque_1" xmlns="http://www.w3.org/2000/svg" xmlns:xlink="http://www.w3.org/1999/xlink" x="0px" y="0px"
	 viewBox="0 0 788 1005.1" style="enable-background:new 0 0 788 1005.1;" xml:space="preserve">
<style type="text/css">
	.st0{clip-path:url(#SVGID_00000015341366278013105040000012408354375324745859_);}
	.st1{fill:#CCAA97;}
	.st2{clip-path:url(#SVGID_00000033354343510806079440000006176517303079738028_);}
	.st3{fill:#B26959;}
	.st4{fill:#E0B9A0;}
	.st5{fill:#282828;}
	.st6{fill:#423522;}
	.st7{fill:#BF9079;}
</style>
<g>
	<g>
		<g>
			<g>
				<g>
					<defs>
						<polygon id="SVGID_1_" points="441.8,135.7 441.8,135.7 455.5,135.7 455.5,162.5 441.8,162.5 						"/>
					</defs>
					<clipPath id="SVGID_00000054958945335647065330000008587518386073940354_">
						<use xlink:href="#SVGID_1_"  style="overflow:visible;"/>
					</clipPath>
					<g style="clip-path:url(#SVGID_00000054958945335647065330000008587518386073940354_);">
						<path class="st1" d="M442.8,141.1c0,0,4.6-5.7,7.4-5.4c4.1,0.4,5.9,8,5.3,11.3c-0.6,4.3-4.4,13.4-9.1,15.3c-0.9,0.4-5-1-5-1
							L442.8,141.1z"/>
					</g>
				</g>
			</g>
		</g>
	</g>
</g>
<g>
	<g>
		<g>
			<g>
				<g>
					<defs>
						<polygon id="SVGID_00000127735201071653037830000013764636588391509917_" points="371.8,135.7 371.8,135.7 358.1,135.7 
							358.1,162.5 371.8,162.5 						"/>
					</defs>
					<clipPath id="SVGID_00000007414277801299392380000012959198968420689840_">
						<use xlink:href="#SVGID_00000127735201071653037830000013764636588391509917_"  style="overflow:visible;"/>
					</clipPath>
					<g style="clip-path:url(#SVGID_00000007414277801299392380000012959198968420689840_);">
						<path class="st1" d="M370.8,141.1c0,0-4.6-5.7-7.4-5.4c-4.1,0.4-5.9,8-5.4,11.3c0.7,4.3,4.4,13.4,9.2,15.3
							c0.9,0.4,4.8-0.9,4.8-0.9L370.8,141.1z"/>
					</g>
				</g>
			</g>
		</g>
	</g>
</g>
<circle class="st3" cx="407.2" cy="117.8" r="38.3"/>
<path class="st4" d="M442.8,114c-0.9-9.3-36-14.7-36-14.7l0,0c0,0-35.1,5.4-36,14.7c-2.2,22.2-1,31,0.5,55.9
	c0.6,9.8,25.6,26.9,29.5,29.5c0.3,0.2,0.7,0.4,1.1,0.4l4.8,0.1h0.1l4.8-0.1c0.4,0,0.8-0.1,1.1-0.4c3.9-2.6,28.9-19.8,29.5-29.5
	C443.8,145,445,136.2,442.8,114z"/>
<ellipse class="st5" cx="364.6" cy="162" rx="4" ry="4.5"/>
<ellipse class="st5" cx="448.6" cy="163" rx="4" ry="4.5"/>
<path class="st6" d="M371.3,143c-0.5-0.6-32.6-46.1,25.6-63.3c0,0-31.8-33.9,10.7-33.9c43.4,0,13.2,32.4,10.9,33
	c0,0,52.3,19.7,24.4,66.3c0,0-0.8-35.1-7-38.2c-0.5,4.9-0.5,10-0.5,10c-8.9,2.2-18.1,3.2-27.3,3c-10.2-0.2-20.4-1.4-30.4-3.5v-9.7
	C369.9,113.4,371.3,143,371.3,143z"/>
<path class="st7" d="M411.6,160.9c0,0.9-2.1,1.6-4.8,1.6s-4.8-0.7-4.8-1.6H411.6z"/>
</svg>
