<?xml version="1.0" encoding="utf-8"?>
<!-- Generator: Adobe Illustrator 26.0.3, SVG Export Plug-In . SVG Version: 6.00 Build 0)  -->
<svg version="1.1" id="Calque_1" xmlns="http://www.w3.org/2000/svg" xmlns:xlink="http://www.w3.org/1999/xlink" x="0px" y="0px"
	 viewBox="0 0 788 1005.1" style="enable-background:new 0 0 788 1005.1;" xml:space="preserve">
<style type="text/css">
	.st0{clip-path:url(#SVGID_00000097494868373313053950000004147806604965360789_);}
	.st1{fill:#CCAA97;}
	.st2{clip-path:url(#SVGID_00000012446738046911878100000017015423990346902935_);}
	.st3{fill:#B26959;}
	.st4{fill:#423522;}
	.st5{fill:#E0B9A0;}
	.st6{fill:#BF9079;}
</style>
<g>
	<g>
		<g>
			<g>
				<g>
					<g>
						<defs>
							<polygon id="SVGID_1_" points="441.5,134.5 441.5,134.5 455.2,134.5 455.2,161.2 441.5,161.2 							"/>
						</defs>
						<clipPath id="SVGID_00000131333426224877843760000016002342483357525172_">
							<use xlink:href="#SVGID_1_"  style="overflow:visible;"/>
						</clipPath>
						<g style="clip-path:url(#SVGID_00000131333426224877843760000016002342483357525172_);">
							<path class="st1" d="M442.5,139.9c0,0,4.6-5.7,7.4-5.4c4.1,0.4,5.9,8,5.3,11.3c-0.6,4.3-4.4,13.4-9.1,15.3c-0.9,0.4-5-1-5-1
								L442.5,139.9z"/>
						</g>
					</g>
				</g>
			</g>
		</g>
	</g>
</g>
<g>
	<g>
		<g>
			<g>
				<g>
					<g>
						<defs>
							<polygon id="SVGID_00000026151113518331032420000004191337525352767418_" points="371.5,134.5 371.5,134.5 357.8,134.5 
								357.8,161.2 371.5,161.2 							"/>
						</defs>
						<clipPath id="SVGID_00000065065434086857628750000015789407339820780164_">
							<use xlink:href="#SVGID_00000026151113518331032420000004191337525352767418_"  style="overflow:visible;"/>
						</clipPath>
						<g style="clip-path:url(#SVGID_00000065065434086857628750000015789407339820780164_);">
							<path class="st1" d="M370.5,139.9c0,0-4.6-5.7-7.4-5.4c-4.1,0.4-5.9,8-5.4,11.3c0.7,4.3,4.4,13.4,9.2,15.3
								c0.9,0.4,4.8-0.9,4.8-0.9L370.5,139.9z"/>
						</g>
					</g>
				</g>
			</g>
		</g>
	</g>
</g>
<circle class="st3" cx="407" cy="117.8" r="38.3"/>
<path class="st4" d="M406.8,162.6c-22.9,0-41.5-18.8-41.5-42.1s18.6-42,41.5-42"/>
<path class="st4" d="M406,78.5c23.8,0,43.1,18.8,43.1,42.1s-19.3,42.1-43.1,42.1"/>
<path class="st5" d="M442.6,114.1c-0.9-9-38.4-12.3-40.9-12.5h-8.1c-0.1,0-0.3,0-0.5,0l-6.1,0.9c0,0-15.5,2.4-16.4,11.7
	c-2.2,22.2-1,31,0.5,55.9c0.5,9.6,24.5,26.2,29.2,29.3c0.5,0.3,1.1,0.5,1.7,0.6l4.5,0.1h0.2l4.5-0.1c0.6,0,1.2-0.2,1.7-0.6
	c4.7-3.2,28.7-19.8,29.2-29.3C443.6,145.1,444.8,136.4,442.6,114.1z"/>
<path class="st5" d="M387.1,104.7c0.6-1.5,1.4-2.9,2.4-4.2s2.1-2.5,3.3-3.5c1.2-1.1,2.5-2.1,3.9-2.9c1.3-0.8,2.8-1.6,4.3-2.1
	c-1.5,0.6-2.9,1.4-4.2,2.3c-1.3,0.8-2.6,1.8-3.7,2.9c-1.2,1.1-2.3,2.2-3.3,3.4C388.7,101.9,387.8,103.3,387.1,104.7z"/>
<ellipse transform="matrix(0.2594 -0.9658 0.9658 0.2594 239.2083 467.8966)" class="st4" cx="424.7" cy="78" rx="18.6" ry="21.5"/>
<path class="st4" d="M404.7,58.4c0,0-10.2,20.8,7.3,32.6c17.4,11.8-2-11.8-2-11.8C410.3,74,405.1,68.1,404.7,58.4z"/>
<path class="st6" d="M411.3,161.3c0,0.9-2.1,1.6-4.8,1.6s-4.8-0.7-4.8-1.6"/>
</svg>
