<?xml version="1.0" encoding="utf-8"?>
<!-- Generator: Adobe Illustrator 26.0.3, SVG Export Plug-In . SVG Version: 6.00 Build 0)  -->
<svg version="1.1" id="Calque_1" xmlns="http://www.w3.org/2000/svg" xmlns:xlink="http://www.w3.org/1999/xlink" x="0px" y="0px"
	 viewBox="0 0 788 1005.1" style="enable-background:new 0 0 788 1005.1;" xml:space="preserve">
<style type="text/css">
	.st0{clip-path:url(#SVGID_00000120559384300164065750000010613900874184731070_);}
	.st1{fill:#CCAA97;}
	.st2{clip-path:url(#SVGID_00000001646487859640598050000000652454657085344651_);}
	.st3{fill:#B26959;}
	.st4{fill:#423522;}
	.st5{fill:#E0B9A0;}
	.st6{fill:#ED5875;}
	.st7{fill:#BF9079;}
</style>
<g>
	<g>
		<g>
			<g>
				<g>
					<g>
						<defs>
							<polygon id="SVGID_1_" points="441.7,135.1 441.7,135.1 455.4,135.1 455.4,161.8 441.7,161.8 							"/>
						</defs>
						<clipPath id="SVGID_00000143616872581663574620000005389208783293052323_">
							<use xlink:href="#SVGID_1_"  style="overflow:visible;"/>
						</clipPath>
						<g style="clip-path:url(#SVGID_00000143616872581663574620000005389208783293052323_);">
							<path class="st1" d="M442.7,140.5c0,0,4.6-5.7,7.4-5.4c4.1,0.4,5.9,8,5.3,11.3c-0.6,4.3-4.4,13.4-9.1,15.3c-0.9,0.4-5-1-5-1
								L442.7,140.5z"/>
						</g>
					</g>
				</g>
			</g>
		</g>
	</g>
	<g>
		<g>
			<g>
				<g>
					<g>
						<defs>
							<polygon id="SVGID_00000101082250786777821730000007061043460379861393_" points="371.7,135.1 371.7,135.1 357.9,135.1 
								357.9,161.8 371.7,161.8 							"/>
						</defs>
						<clipPath id="SVGID_00000132054961752864729940000011438999799576155831_">
							<use xlink:href="#SVGID_00000101082250786777821730000007061043460379861393_"  style="overflow:visible;"/>
						</clipPath>
						<g style="clip-path:url(#SVGID_00000132054961752864729940000011438999799576155831_);">
							<path class="st1" d="M370.7,140.5c0,0-4.6-5.7-7.4-5.4c-4.1,0.4-5.9,8-5.4,11.3c0.7,4.3,4.4,13.4,9.2,15.3
								c0.9,0.4,4.8-0.9,4.8-0.9L370.7,140.5z"/>
						</g>
					</g>
				</g>
			</g>
		</g>
	</g>
</g>
<circle class="st3" cx="407.1" cy="118.4" r="38.3"/>
<path class="st4" d="M406.9,163.1c-22.9,0-41.5-18.6-41.5-41.5s18.6-41.5,41.5-41.5"/>
<path class="st4" d="M407.6,80.1c22.9,0,41.5,18.6,41.5,41.5s-18.6,41.5-41.5,41.5l0,0"/>
<path class="st5" d="M442.7,114.6c-0.9-9.3-36-14.7-36-14.7l0,0c0,0-35.1,5.4-36,14.7c-2.2,22.2-1,31,0.5,55.9
	c0.6,9.8,25.5,26.8,29.5,29.5c0.3,0.2,0.8,0.4,1.2,0.4l4.8,0.1h0.1l4.8-0.1c0.4,0,0.8-0.1,1.2-0.4c4-2.7,28.9-19.8,29.5-29.5
	C443.6,145.6,444.8,136.8,442.7,114.6z"/>
<ellipse class="st6" cx="364.5" cy="162.6" rx="4" ry="4.5"/>
<ellipse class="st6" cx="448.5" cy="163.6" rx="4" ry="4.5"/>
<path class="st6" d="M370.9,119.2l11.6-4.6c14.4-5.7,30.8-6,45.3-0.6l14.3,5.3c2.7,1,5.7,3.6,6.4,1l0.7-2.9
	c0.9-3.4-7.4-18.6-14.6-24c-5.1-3.8-11.1-6.2-17.5-7c-6-0.7-12-0.8-18-0.2c-5.7,0.5-11.1,2.5-15.9,5.6c-9,5.8-20.8,23.2-19.9,25.9
	l1.1,2.9C365.3,123,368.3,120.2,370.9,119.2z"/>
<path class="st7" d="M411.5,161.7c0,0.9-2.1,1.6-4.8,1.6s-4.8-0.7-4.8-1.6"/>
</svg>
