<?xml version="1.0" encoding="utf-8"?>
<!-- Generator: Adobe Illustrator 26.0.3, SVG Export Plug-In . SVG Version: 6.00 Build 0)  -->
<svg version="1.1" id="Calque_1" xmlns="http://www.w3.org/2000/svg" xmlns:xlink="http://www.w3.org/1999/xlink" x="0px" y="0px"
	 viewBox="0 0 158 159.3" style="enable-background:new 0 0 158 159.3;" xml:space="preserve">
<style type="text/css">
	.st0{clip-path:url(#SVGID_00000134229667125661071380000013481822155597946535_);}
	.st1{fill:#CCAA97;}
	.st2{clip-path:url(#SVGID_00000026127307800482966190000013958016174747838611_);}
	.st3{fill:#B26959;}
	.st4{fill:#E0B9A0;}
	.st5{fill:#282828;}
	.st6{fill:#423522;}
	.st7{fill:#BF9079;}
</style>
<g>
	<g>
		<g>
			<g>
				<g>
					<defs>
						<polygon id="SVGID_1_" points="116.5,92.4 116.5,92.4 130.3,92.4 130.3,119.2 116.5,119.2 						"/>
					</defs>
					<clipPath id="SVGID_00000043438985060248808580000008606576810790218661_">
						<use xlink:href="#SVGID_1_"  style="overflow:visible;"/>
					</clipPath>
					<g style="clip-path:url(#SVGID_00000043438985060248808580000008606576810790218661_);">
						<path class="st1" d="M117.5,97.8c0,0,4.6-5.7,7.4-5.4c4.1,0.4,5.9,8,5.3,11.3c-0.6,4.3-4.4,13.4-9.1,15.3c-0.9,0.4-5-1-5-1
							L117.5,97.8z"/>
					</g>
				</g>
			</g>
		</g>
	</g>
</g>
<g>
	<g>
		<g>
			<g>
				<g>
					<defs>
						<polygon id="SVGID_00000034080144952619304520000001314580797400337855_" points="46.5,92.4 46.5,92.4 32.8,92.4 32.8,119.2 
							46.5,119.2 						"/>
					</defs>
					<clipPath id="SVGID_00000167398067626608943010000017405992286462372744_">
						<use xlink:href="#SVGID_00000034080144952619304520000001314580797400337855_"  style="overflow:visible;"/>
					</clipPath>
					<g style="clip-path:url(#SVGID_00000167398067626608943010000017405992286462372744_);">
						<path class="st1" d="M45.6,97.8c0,0-4.6-5.7-7.4-5.4c-4.1,0.4-5.9,8-5.4,11.3c0.7,4.3,4.4,13.4,9.2,15.3
							c0.9,0.4,4.8-0.9,4.8-0.9L45.6,97.8z"/>
					</g>
				</g>
			</g>
		</g>
	</g>
</g>
<circle class="st3" cx="81.9" cy="74.5" r="38.3"/>
<path class="st4" d="M117.5,70.7c-0.9-9.3-36-14.7-36-14.7l0,0c0,0-35.1,5.4-36,14.7c-2.2,22.2-1,31,0.5,55.9
	c0.6,9.8,25.6,26.9,29.5,29.5c0.3,0.2,0.7,0.4,1.1,0.4l4.8,0.1h0.1l4.8-0.1c0.4,0,0.8-0.1,1.1-0.4c3.9-2.6,28.9-19.8,29.5-29.5
	C118.5,101.7,119.7,92.9,117.5,70.7z"/>
<ellipse class="st5" cx="39.3" cy="118.7" rx="4" ry="4.5"/>
<ellipse class="st5" cx="123.3" cy="119.7" rx="4" ry="4.5"/>
<path class="st6" d="M46,99.7c-0.5-0.6-32.6-46.1,25.6-63.3c0,0-31.8-33.9,10.7-33.9c43.4,0,13.2,32.4,10.9,33
	c0,0,52.3,19.7,24.4,66.3c0,0-0.8-35.1-7-38.2c-0.5,4.9-0.5,10-0.5,10c-8.9,2.2-18.1,3.2-27.3,3c-10.2-0.2-20.4-1.4-30.4-3.5v-9.7
	C44.6,70.1,46,99.7,46,99.7z"/>
<path class="st7" d="M86.3,117.6c0,0.9-2.1,1.6-4.8,1.6s-4.8-0.7-4.8-1.6H86.3z"/>
</svg>
