<?xml version="1.0" encoding="utf-8"?>
<!-- Generator: Adobe Illustrator 26.0.3, SVG Export Plug-In . SVG Version: 6.00 Build 0)  -->
<svg version="1.1" id="Calque_1" xmlns="http://www.w3.org/2000/svg" xmlns:xlink="http://www.w3.org/1999/xlink" x="0px" y="0px"
	 viewBox="0 0 158 161.8" style="enable-background:new 0 0 158 161.8;" xml:space="preserve">
<style type="text/css">
	.st0{fill:#30261A;}
	.st1{clip-path:url(#SVGID_00000022519599419083340440000001266549922626727835_);}
	.st2{fill:#CCAA97;}
	.st3{fill:#E0B9A0;}
	.st4{fill:#F4CB89;}
	.st5{clip-path:url(#SVGID_00000069366947528271318410000003574196525956880802_);}
	.st6{fill:#B7837E;}
	.st7{fill:#B26959;}
	.st8{fill:#423522;}
	.st9{fill:#BF9079;}
	.st10{fill:#B22947;}
	.st11{fill:#87213C;}
</style>
<path class="st0" d="M98.1,80c15.7-3.7,22.7-6.1,26-6.7c3.2-0.6,2.9,0.6,3.7,4c1.8,6.9,4.6,38.5,4.6,38.5s-2.3,16.2-5.8,24.4
	S119.8,153,115,153s-5.9-4.3-11.1-4.8c-5.2-0.5-5.8-1.6-8.8-6.3C92.2,137.2,98.1,80,98.1,80z"/>
<g>
	<g>
		<g>
			<g>
				<g>
					<g>
						<g>
							<defs>
								<polygon id="SVGID_1_" points="115.2,92.6 115.2,92.6 129.5,92.6 129.5,120.4 115.2,120.4 								"/>
							</defs>
							<clipPath id="SVGID_00000049909867433137300290000016316989645622605717_">
								<use xlink:href="#SVGID_1_"  style="overflow:visible;"/>
							</clipPath>
							<g style="clip-path:url(#SVGID_00000049909867433137300290000016316989645622605717_);">
								<path class="st2" d="M116.2,98.2c0,0,4.8-5.9,7.6-5.6c4.2,0.5,6.1,8.3,5.6,11.8c-0.7,4.4-4.6,13.9-9.6,15.9
									c-0.9,0.4-4.6-0.8-4.6-0.8L116.2,98.2z"/>
							</g>
						</g>
					</g>
				</g>
			</g>
		</g>
	</g>
</g>
<circle class="st3" cx="82.1" cy="77.4" r="37.7"/>
<path class="st4" d="M81.9,121.4c-22.6,0-40.8-18.5-40.8-41.3s18.3-41.3,40.8-41.3"/>
<path class="st3" d="M117.1,73.6c-0.9-8.9-37.8-12.1-40.2-12.3h-8c-0.2,0-0.3,0-0.5,0l-6,0.9c0,0-15.2,2.4-16.1,11.5
	c-2.2,21.8-1,30.5,0.5,55c0.6,9.4,24.1,25.8,28.7,28.9c0.5,0.3,1.1,0.5,1.7,0.6l4.3,0.1h0.2l4.3-0.1c0.6,0,1.2-0.2,1.7-0.6
	c4.6-3.1,28.2-19.5,28.7-28.9C118,104.1,119.2,95.6,117.1,73.6z"/>
<g>
	<g>
		<g>
			<g>
				<g>
					<g>
						<g>
							<defs>
								<polygon id="SVGID_00000036962711647405467300000010156160320960604577_" points="46.1,91.6 46.1,91.6 30.8,91.6 
									30.8,121.3 46.1,121.3 								"/>
							</defs>
							<clipPath id="SVGID_00000021821740860847222290000015388155767617815439_">
								<use xlink:href="#SVGID_00000036962711647405467300000010156160320960604577_"  style="overflow:visible;"/>
							</clipPath>
							<g style="clip-path:url(#SVGID_00000021821740860847222290000015388155767617815439_);">
								<path class="st6" d="M45.1,97.6c0,0-5.1-6.3-8.2-6c-4.5,0.5-6.5,8.9-6,12.6c0.8,4.7,4.9,14.9,10.2,17c1,0.4,4.9-0.9,4.9-0.9
									L45.1,97.6z"/>
							</g>
						</g>
					</g>
				</g>
			</g>
		</g>
	</g>
</g>
<path class="st7" d="M60.9,64.5c0.9-2.1,2-4,3.3-5.8c1.4-1.8,2.9-3.4,4.5-4.9c1.7-1.5,3.4-2.9,5.4-4c1.9-1.2,3.9-2.2,6-2.9
	c-2.1,0.9-4,2-5.8,3.1c-1.9,1.2-3.6,2.6-5.2,4c-1.7,1.5-3.2,3-4.6,4.7C63.2,60.6,62,62.5,60.9,64.5z"/>
<path class="st8" d="M89.2,41c2.6,13.5-8.9,18.5-0.6,20c15.3,2.7,22.9,7.3,26.8,13.8c7.4,12.2,15.4,36.9,6.8,56.5
	c-6,13.6-8.2,46,11.8,56.1c0,0-10.5-11.3,3.9-39.5s-2.5-68.7-23.1-89.6C89.2,32.2,89.2,41,89.2,41z"/>
<path class="st8" d="M89.2,41c0,0.8,1.1,16.7-13.9,20.7c-15.1,4-20.5,12.6-22.7,19.8c-4.2,13.6-6.3,39.4,6.9,56.5
	c9,11.8,18.9,42.7,2,57.3c0,0,7.5-13.5-13.3-37.5s-22.8-69.4-5.7-93.5C72.7,21.5,89.2,41,89.2,41z"/>
<path class="st9" d="M86.4,120c0,0.9-2.1,1.6-4.7,1.6c-2.7,0-4.7-0.7-4.7-1.6"/>
<path class="st10" d="M6.5,79.4c0.9-4.7,3.9-8.3,6.8-11.8C23.5,55,35.3,44,47.8,33.8c1.9-1.5,2.9-3,1.7-5.1c-1.4-2.6-0.5-4.5,1.5-6
	c2.2-1.7,4.9-2.1,7,0c1.8,1.7,2.9,1,4.3-0.1c9.6-7,19.7-13.3,30.7-18c5.8-2.5,11.8-3.7,18-3.8c3.6,0,6.7,1.1,7.9,5
	c1.9,6.9-2.9,11-6.6,15.3c-10.8,12.4-24.6,21.3-38.3,30.2c-9.3,6.1-19,11.9-29,17c-9.7,5-19.4,9.9-29.7,13.4
	C11.9,82.8,8.7,83.2,6.5,79.4z"/>
<path class="st11" d="M6.5,79.4c2.2,3.7,5.4,3.3,8.8,2.3c10.3-3.4,20-8.5,29.7-13.4c10-5.1,19.6-10.9,29-17
	c13.7-8.9,27.3-17.8,38.3-30.2c3.7-4.3,8.5-8.5,6.6-15.3c3.2,5.2,2.8,10.9,1.7,16.5c-1.7,9-5.1,17.3-9.7,25.2c-1.7,0.9-3.3-0.1-5,0
	c-12.8,1-24.3,6-35.5,11.7c-9.2,4.7-18,10-27.5,14.3c-4.3,2-9.1,3-13.1,6c-5.7,1.9-11.3,4-17.3,4.5C7.9,84.4,6.9,83.6,6.5,79.4z"/>
<path class="st10" d="M29.7,79.5c3.9-3,8.7-4.1,13.1-6c9.4-4.2,18.3-9.6,27.5-14.3c11.2-5.7,22.7-10.7,35.5-11.7
	c1.7-0.1,3.3,0.8,5,0c0.9,2.7,1.8,5.3,2.8,7.9c0.7,1.7,0.1,2.1-1.5,2.2c-17.2,0.9-33.2,6.5-49,12.7c-10.2,4-20.5,8.3-29.1,15.3
	c-1.5,1.2-2.1,0.6-2.5-0.9C30.9,83,30.3,81.3,29.7,79.5z"/>
</svg>
