<?xml version="1.0" encoding="utf-8"?>
<!-- Generator: Adobe Illustrator 26.0.3, SVG Export Plug-In . SVG Version: 6.00 Build 0)  -->
<svg version="1.1" id="Calque_1" xmlns="http://www.w3.org/2000/svg" xmlns:xlink="http://www.w3.org/1999/xlink" x="0px" y="0px"
	 viewBox="0 0 788 1005.1" style="enable-background:new 0 0 788 1005.1;" xml:space="preserve">
<style type="text/css">
	.st0{clip-path:url(#SVGID_00000160178225901710391920000014107098542241421203_);}
	.st1{fill:#CCAA97;}
	.st2{clip-path:url(#SVGID_00000132779772798766349700000002302287652453649074_);}
	.st3{fill:#E0B9A0;}
	.st4{fill:#C58C85;}
	.st5{fill:#423522;}
	.st6{fill:#BF9079;}
	.st7{fill:none;stroke:#2E858E;stroke-width:3;stroke-miterlimit:10;}
	.st8{fill:#2E858E;}
</style>
<g>
	<g>
		<g>
			<g>
				<g>
					<g>
						<defs>
							<polygon id="SVGID_1_" points="441.8,131.3 441.8,131.3 456.1,131.3 456.1,159.3 441.8,159.3 							"/>
						</defs>
						<clipPath id="SVGID_00000012432075586102301370000005197650494266615443_">
							<use xlink:href="#SVGID_1_"  style="overflow:visible;"/>
						</clipPath>
						<g style="clip-path:url(#SVGID_00000012432075586102301370000005197650494266615443_);">
							<path class="st1" d="M442.8,137c0,0,4.8-6,7.7-5.7c4.3,0.4,6.2,8.4,5.5,11.8c-0.6,4.5-4.6,14-9.5,16c-0.9,0.4-5.2-1-5.2-1
								L442.8,137z"/>
						</g>
					</g>
				</g>
			</g>
		</g>
	</g>
</g>
<g>
	<g>
		<g>
			<g>
				<g>
					<g>
						<defs>
							<polygon id="SVGID_00000073706018393707814320000009502305734701917866_" points="370.5,131.3 370.5,131.3 356.1,131.3 
								356.1,159.3 370.5,159.3 							"/>
						</defs>
						<clipPath id="SVGID_00000082329492819199012220000015256999292287957912_">
							<use xlink:href="#SVGID_00000073706018393707814320000009502305734701917866_"  style="overflow:visible;"/>
						</clipPath>
						<g style="clip-path:url(#SVGID_00000082329492819199012220000015256999292287957912_);">
							<path class="st1" d="M369.4,137c0,0-4.8-6-7.7-5.7c-4.3,0.4-6.2,8.4-5.7,11.8c0.7,4.5,4.6,14,9.6,16c0.9,0.4,5-0.9,5-0.9
								L369.4,137z"/>
						</g>
					</g>
				</g>
			</g>
		</g>
	</g>
</g>
<path class="st3" d="M385.8,100.1c0.7-1.6,1.5-3,2.5-4.4c1-1.3,2.1-2.6,3.4-3.7c1.3-1.1,2.6-2.1,4.1-3c1.4-0.9,3-1.6,4.5-2.1
	c-1.6,0.7-3,1.5-4.4,2.4c-1.4,0.9-2.7,1.9-3.9,3c-1.3,1.1-2.4,2.3-3.5,3.6C387.5,97.2,386.5,98.6,385.8,100.1z"/>
<circle class="st4" cx="406.5" cy="117.9" r="38.3"/>
<path class="st5" d="M406.3,162.7c-22.9,0-41.5-18.6-41.5-41.5s18.9-41.6,41.8-41.6"/>
<path class="st5" d="M407,79.6c22.9,0,41.5,18.6,41.5,41.5s-18.6,41.5-41.5,41.5l0,0"/>
<path class="st3" d="M442.1,114.1c-0.9-9.3-36-14.7-36-14.7l0,0c0,0-35.1,5.4-36,14.7c-2.2,22.2-1,31,0.5,55.9
	c0.6,9.8,25.5,26.8,29.5,29.5c0.4,0.2,0.8,0.4,1.2,0.4l4.8,0.1h0.1l4.8-0.1c0.4,0,0.8-0.1,1.2-0.4c4-2.7,28.9-19.8,29.5-29.5
	C443,145.1,444.2,136.4,442.1,114.1z"/>
<path class="st6" d="M411.2,161.4c0,0.9-2.2,1.7-5,1.7s-5-0.7-5-1.7"/>
<path class="st7" d="M358.1,132.5c-1-3-1.5-6-1.5-9.2c0-20.5,22.4-37.2,50-37.2s50,16.7,50,37.2c0,3.3-0.6,6.5-1.7,9.5"/>
<g>
	<path class="st8" d="M369.9,166l-2.1,0.3c-2.2,0.3-4.3-1.4-4.4-3.6l-3.5-32.6c-0.3-2.2,1.4-4.3,3.6-4.4l2.1-0.3
		c2.2-0.3,4.3,1.4,4.4,3.6l3.5,32.6C373.8,163.7,372.1,165.7,369.9,166z"/>
	<path class="st8" d="M362.8,163.2l-4.3,0.4c-2.2,0.3-4.3-1.4-4.4-3.6l-2.8-25.2c-0.3-2.2,1.4-4.3,3.6-4.4l4.3-0.4L362.8,163.2z"/>
	<path class="st8" d="M354.4,123.3l2.7-1.2c0.6-0.3,1.3,0.1,1.4,0.7l1,9c0.1,0.5-0.3,0.9-0.7,1l0,0c-0.5,0.1-0.8-0.1-1-0.6l-3.7-7.8
		C353.7,124.2,353.9,123.6,354.4,123.3z"/>
</g>
<g>
	<path class="st8" d="M444.6,166.3l2.1,0.2c2.2,0.2,4.2-1.6,4.3-3.8l2-32.7c0.2-2.2-1.6-4.2-3.8-4.3l-2.1-0.2
		c-2.2-0.2-4.2,1.6-4.3,3.8l-2.1,32.7C440.6,164.2,442.3,166.1,444.6,166.3z"/>
	<path class="st8" d="M451.5,163.1l4.3,0.3c2.2,0.2,4.2-1.6,4.3-3.8l1.6-25.3c0.2-2.2-1.6-4.2-3.8-4.3l-4.3-0.3L451.5,163.1z"/>
	<path class="st8" d="M458.2,122.9l-2.7-1.1c-0.7-0.3-1.3,0.2-1.4,0.8l-0.6,9c-0.1,0.5,0.4,0.9,0.8,1l0,0c0.5,0.1,0.8-0.1,1-0.6
		l3.3-7.9C458.9,123.8,458.7,123.2,458.2,122.9z"/>
</g>
<path class="st7" d="M366.9,161.5l-18,14.3c-3,2.4-2.4,7.2,1.1,8.7l12.3,5.3"/>
<circle class="st8" cx="366.9" cy="189.9" r="7"/>
</svg>
