<?xml version="1.0" encoding="utf-8"?>
<!-- Generator: Adobe Illustrator 26.0.3, SVG Export Plug-In . SVG Version: 6.00 Build 0)  -->
<svg version="1.1" id="Calque_1" xmlns="http://www.w3.org/2000/svg" xmlns:xlink="http://www.w3.org/1999/xlink" x="0px" y="0px"
	 viewBox="0 0 129.4 165.4" style="enable-background:new 0 0 129.4 165.4;" xml:space="preserve">
<style type="text/css">
	.st0{clip-path:url(#SVGID_00000039844774373700475070000002316357914012637344_);}
	.st1{fill:#CCAA97;}
	.st2{clip-path:url(#SVGID_00000081616677774078354520000011686799092142065314_);}
	.st3{fill:#B26959;}
	.st4{fill:#423522;}
	.st5{fill:#E0B9A0;}
	.st6{fill:#BF9079;}
</style>
<g>
	<g>
		<g>
			<g>
				<g>
					<g>
						<defs>
							<polygon id="SVGID_1_" points="101.2,89.2 101.2,89.2 115.6,89.2 115.6,117.2 101.2,117.2 							"/>
						</defs>
						<clipPath id="SVGID_00000056416563953910325450000000621521790835935892_">
							<use xlink:href="#SVGID_1_"  style="overflow:visible;"/>
						</clipPath>
						<g style="clip-path:url(#SVGID_00000056416563953910325450000000621521790835935892_);">
							<path class="st1" d="M102.3,94.9c0,0,4.8-6,7.7-5.7c4.3,0.4,6.2,8.4,5.5,11.8c-0.6,4.5-4.6,14-9.5,16c-0.9,0.4-5.2-1-5.2-1
								L102.3,94.9z"/>
						</g>
					</g>
				</g>
			</g>
		</g>
	</g>
</g>
<g>
	<g>
		<g>
			<g>
				<g>
					<g>
						<defs>
							<polygon id="SVGID_00000151503767512636970450000000157038648759568776_" points="27.9,89.2 27.9,89.2 13.6,89.2 13.6,117.2 
								27.9,117.2 							"/>
						</defs>
						<clipPath id="SVGID_00000036247137492010834890000003859408332070658970_">
							<use xlink:href="#SVGID_00000151503767512636970450000000157038648759568776_"  style="overflow:visible;"/>
						</clipPath>
						<g style="clip-path:url(#SVGID_00000036247137492010834890000003859408332070658970_);">
							<path class="st1" d="M26.9,94.9c0,0-4.8-6-7.7-5.7c-4.3,0.4-6.2,8.4-5.7,11.8c0.7,4.5,4.6,14,9.6,16c0.9,0.4,5-0.9,5-0.9
								L26.9,94.9z"/>
						</g>
					</g>
				</g>
			</g>
		</g>
	</g>
</g>
<circle class="st3" cx="65.1" cy="71.7" r="40.1"/>
<path class="st4" d="M64.9,118.7c-24,0-43.5-19.7-43.5-44.1s19.5-44,43.5-44"/>
<path class="st4" d="M64.1,30.6c24.9,0,45.1,19.7,45.1,44.1S89,118.8,64.1,118.8"/>
<path class="st5" d="M102.4,67.9c-0.9-9.4-40.2-12.9-42.8-13.1h-8.5c-0.1,0-0.3,0-0.5,0l-6.4,0.9c0,0-16.2,2.5-17.2,12.3
	c-2.3,23.2-1,32.5,0.5,58.5c0.5,10.1,25.7,27.4,30.6,30.7c0.5,0.3,1.2,0.5,1.8,0.6l4.7,0.1h0.2l4.7-0.1c0.6,0,1.3-0.2,1.8-0.6
	c4.9-3.4,30.1-20.7,30.6-30.7C103.4,100.3,104.7,91.2,102.4,67.9z"/>
<path class="st5" d="M44.3,58c0.7-1.6,1.5-3,2.5-4.4c1-1.3,2.1-2.6,3.4-3.7c1.3-1.1,2.6-2.1,4.1-3c1.4-0.9,3-1.6,4.5-2.1
	c-1.6,0.7-3,1.5-4.4,2.4c-1.4,0.9-2.7,1.9-3.9,3c-1.3,1.1-2.4,2.3-3.5,3.6C46,55.1,45,56.5,44.3,58z"/>
<ellipse transform="matrix(0.2594 -0.9658 0.9658 0.2594 32.9339 103.0336)" class="st4" cx="83.7" cy="30" rx="19.5" ry="22.5"/>
<path class="st4" d="M62.7,9.6c0,0-10.7,21.7,7.6,34.1c18.2,12.4-2.1-12.4-2.1-12.4C68.6,25.9,63.1,19.7,62.7,9.6z"/>
<path class="st6" d="M69.6,117.3c0,0.9-2.2,1.7-5,1.7s-5-0.7-5-1.7"/>
</svg>
