<?xml version="1.0" encoding="utf-8"?>
<!-- Generator: Adobe Illustrator 26.0.3, SVG Export Plug-In . SVG Version: 6.00 Build 0)  -->
<svg version="1.1" id="Calque_1" xmlns="http://www.w3.org/2000/svg" xmlns:xlink="http://www.w3.org/1999/xlink" x="0px" y="0px"
	 viewBox="0 0 788 1005.1" style="enable-background:new 0 0 788 1005.1;" xml:space="preserve">
<style type="text/css">
	.st0{fill:#EF8698;}
	.st1{fill:#DBA51D;}
	.st2{fill:#6679FF;}
	.st3{fill:#2D2418;}
	.st4{clip-path:url(#SVGID_00000056388934691723355750000005561622512058490015_);}
	.st5{fill:#CCAA97;}
	.st6{clip-path:url(#SVGID_00000167355415141932249940000001497013470310000257_);}
	.st7{fill:#B26959;}
	.st8{fill:#423522;}
	.st9{fill:#E0B9A0;}
	.st10{fill:#BF9079;}
</style>
<g>
	<polygon class="st0" points="469.5,73.5 378.8,102.8 467.2,66.9 	"/>
</g>
<g>
	<circle class="st1" cx="459.1" cy="73" r="2.5"/>
	<path class="st2" d="M459.9,79.4c-0.9-1.3-1-3.9,0.3-4.7c1.3-0.8,3.5,0.3,4.4,1.7c0.9,1.3,0.4,3.1-0.8,3.9
		C462.6,81.1,460.8,80.8,459.9,79.4z"/>
	<path class="st2" d="M454,79.6c-0.9-1.3-0.4-3.1,0.8-3.9c1.3-0.8,2.9-2,3.7-0.7c0.9,1.3,0.7,4.6-0.7,5.4
		C456.5,81.3,454.8,80.9,454,79.6z"/>
	<path class="st2" d="M450.5,74.4c-0.9-1.3-0.4-3.1,0.8-3.9s4.5,0.5,5.4,1.9c0.9,1.3-0.9,2-2.3,2.9
		C453.1,76.2,451.3,75.7,450.5,74.4z"/>
	<path class="st2" d="M453.9,69.7c-0.9-1.3-0.4-3.1,0.8-3.9c1.3-0.8,3-0.5,3.9,0.8s0.8,3.8-0.6,4.7
		C456.7,72.1,454.7,70.9,453.9,69.7z"/>
	<path class="st2" d="M459.8,70.6c-0.9-1.3-0.5-4.5,0.8-5.4s3.1-0.4,3.9,0.8c0.9,1.3,0.4,3.1-0.8,3.9
		C462.4,70.7,460.6,71.8,459.8,70.6z"/>
	<path class="st2" d="M461.4,73.6c-0.9-1.3,0.5-2.5,1.8-3.3c1.3-0.9,3.1-0.4,3.9,0.8c0.9,1.3,0.4,3.1-0.8,3.9
		C465,75.8,462.2,74.9,461.4,73.6z"/>
</g>
<path class="st3" d="M438.1,154c0,0-1.2-3.7,1.5-6.2s3.6-3.8,3.5-4.7c-0.1-1.2-1-2.3-2.1-2.7c-1.7-0.9-2.3-2-2.3-2.9
	c0-1.1,0.4-2.1,1-3c0.5-0.9,0.9-1.9,1.1-3c0,0,0.8-3.1-3.3-4.7c-3.3-1.4-5.4-4.6-5.3-8.2c0.2-1.9-9.4-8.3-7.1-0.9
	c4.5,13.6-11.5,22-11.5,22c-1.3,0.4-3.3-0.2-3.9,0.1s-0.6,0.7-1,1.4s-1,1.7-1.6,1.9s-0.7,0.2-2.3-0.4c-0.8-0.4-1.7-0.4-2.5-0.2
	c-1,0.1-1,1-1.4,1.8s-0.2,1.7-1.8,2.3c-1.5,0.6-3.9-0.6-5.1-0.2s-1.7,1.1-2.5,2.3s-1.3,2.6-2,2.6s-0.8-1.2-1.1-2.2
	c-0.3-0.9-0.8-1.6-1.6-2.1c-0.9-0.7-3.4-1.4-3-2.5s-0.7-5.8-0.9-6.1c-0.4-0.7-0.9-1.2-1.5-1.7c-0.7-0.5-0.7-1.3-1.5-2
	c-4.7-4.6-1.2-8.5-3.7-10.4s-12.9,18.8-10.6-6.7c0.3-3.1-0.5,4.8-1.3,6.3s-3,2.7-4.7,3.7c-1.7,1.1-2.3,2.2-2.4,3.6
	c0,1.1,0.3,2.1,0.9,3c0.8,0.9,1.2,2,1.3,3.2c-0.1,1.3-0.9,2.4-1.9,3.1c-0.7,0.4-2.5,1.1-2.6,2.9s-1,2.5,0.1,3.4
	c1.5,1.3-0.1,1.6,0.2,3.6c0.2,2.1,4,4.8,3.4,5.7s-2.2,2.3-2,4.3s1.6,2.7,3.2,3.2s2.9,1,3.4,2.2c0.6,1.2,0.6,2.7,0,3.9
	c-0.7,1.6-1.2,3.2-0.3,4.2s1.6,0.6,3.4,0.7s3.9-0.3,5.9,1.2c1.4,0.9,10.3,9.4,11,9.1l-4.9-4.8l0.1-2l0.8-12.6l41.6-0.3l0.6,12.2
	l0.2,6.2c1.6,0.8,2-5.5,3.5-7.4c1.1-1.1,2.6-1.8,4.1-1.8c0,0,5.3,0.5,6.1-0.7s-0.9-3.9-1-6.3s2.2-3.3,2.7-3.5s5.1-0.9,4.5-3.5
	S438.1,154,438.1,154z"/>
<g>
	<g>
		<g>
			<g>
				<g>
					<g>
						<defs>
							<polygon id="SVGID_1_" points="440.9,134 440.9,134 454.6,134 454.6,160.7 440.9,160.7 							"/>
						</defs>
						<clipPath id="SVGID_00000129201856750592386820000014177065074946534558_">
							<use xlink:href="#SVGID_1_"  style="overflow:visible;"/>
						</clipPath>
						<g style="clip-path:url(#SVGID_00000129201856750592386820000014177065074946534558_);">
							<path class="st5" d="M441.9,139.4c0,0,4.6-5.7,7.4-5.4c4.1,0.4,5.9,8,5.3,11.3c-0.6,4.3-4.4,13.4-9.1,15.3c-0.9,0.4-5-1-5-1
								L441.9,139.4z"/>
						</g>
					</g>
				</g>
			</g>
		</g>
	</g>
</g>
<g>
	<g>
		<g>
			<g>
				<g>
					<g>
						<defs>
							<polygon id="SVGID_00000103259303332218253450000004521841898800770974_" points="370.9,134 370.9,134 357.2,134 
								357.2,160.7 370.9,160.7 							"/>
						</defs>
						<clipPath id="SVGID_00000119079545676289653670000017167057608561790862_">
							<use xlink:href="#SVGID_00000103259303332218253450000004521841898800770974_"  style="overflow:visible;"/>
						</clipPath>
						<g style="clip-path:url(#SVGID_00000119079545676289653670000017167057608561790862_);">
							<path class="st5" d="M369.9,139.4c0,0-4.6-5.7-7.4-5.4c-4.1,0.4-5.9,8-5.4,11.3c0.7,4.3,4.4,13.4,9.2,15.3
								c0.9,0.4,4.8-0.9,4.8-0.9L369.9,139.4z"/>
						</g>
					</g>
				</g>
			</g>
		</g>
	</g>
</g>
<circle class="st7" cx="406.9" cy="117.5" r="38.3"/>
<path class="st8" d="M406.7,162.3c-22.9,0-41.5-18.6-41.5-41.5s18.6-41.5,41.5-41.5"/>
<path class="st8" d="M407.5,79.2c22.9,0,41.5,18.6,41.5,41.5s-18.6,41.5-41.5,41.5l0,0"/>
<path class="st9" d="M442.5,113.7c-0.9-9.3-36-14.7-36-14.7l0,0c0,0-35.1,5.4-36,14.7c-2.2,22.2-1,31,0.5,55.9
	c0.5,9.3,23.4,25.4,28.8,29.1c0.7,0.5,1.6,0.8,2.5,0.8l4.1,0.1l4.1-0.1c0.9,0,1.8-0.3,2.5-0.8c5.4-3.7,28.3-19.8,28.8-29.1
	C443.5,144.7,444.7,136,442.5,113.7z"/>
<ellipse class="st8" cx="422.5" cy="69.9" rx="21.5" ry="18.6"/>
<path class="st8" d="M393.5,51.3c0,0-4.5,22.7,15.5,29.6c19.9,6.9-5-10.9-5-10.9C403,64.9,396.4,60.5,393.5,51.3z"/>
<path class="st8" d="M416.6,79.7c-0.1,1.5,16.4,13.7-18.5,30s-59,42.1-23.4,57c0,0-59.9-9.8-25.1-39.5
	c22.6-19.4,20.6-47.3,50.9-51.2S416.6,79.7,416.6,79.7z"/>
<path class="st8" d="M434.2,79.2c0,0,22.5,11,24.1,41.2s-23.1,49.7-40.9,47.7c0,0,32.4-16.8,24-45c-7.2-24.1-28.3-19-29.4-34.6
	S434.2,79.2,434.2,79.2z"/>
<path class="st10" d="M411.2,160.8c0,0.9-2.1,1.6-4.8,1.6s-4.8-0.7-4.8-1.6"/>
</svg>
