<?xml version="1.0" encoding="utf-8"?>
<!-- Generator: Adobe Illustrator 26.0.3, SVG Export Plug-In . SVG Version: 6.00 Build 0)  -->
<svg version="1.1" id="Calque_1" xmlns="http://www.w3.org/2000/svg" xmlns:xlink="http://www.w3.org/1999/xlink" x="0px" y="0px"
	 viewBox="0 0 167.8 155.4" style="enable-background:new 0 0 167.8 155.4;" xml:space="preserve">
<style type="text/css">
	.st0{clip-path:url(#SVGID_00000176734676046936562620000002739185548793365926_);}
	.st1{fill:#CCAA97;}
	.st2{clip-path:url(#SVGID_00000142854794017794596540000002229216741907754136_);}
	.st3{fill:#E0B9A0;}
	.st4{fill:#C58C85;}
	.st5{fill:#423522;}
	.st6{fill:#BF9079;}
	.st7{fill:none;stroke:#2E858E;stroke-width:3;stroke-miterlimit:10;}
	.st8{fill:#2E858E;}
</style>
<g>
	<g>
		<g>
			<g>
				<g>
					<g>
						<defs>
							<polygon id="SVGID_1_" points="122.1,69.5 122.1,69.5 136.4,69.5 136.4,97.5 122.1,97.5 							"/>
						</defs>
						<clipPath id="SVGID_00000033348586669594189370000016319882948562170043_">
							<use xlink:href="#SVGID_1_"  style="overflow:visible;"/>
						</clipPath>
						<g style="clip-path:url(#SVGID_00000033348586669594189370000016319882948562170043_);">
							<path class="st1" d="M123.1,75.2c0,0,4.8-6,7.7-5.7c4.3,0.4,6.2,8.4,5.5,11.8c-0.6,4.5-4.6,14-9.5,16c-0.9,0.4-5.2-1-5.2-1
								L123.1,75.2z"/>
						</g>
					</g>
				</g>
			</g>
		</g>
	</g>
</g>
<g>
	<g>
		<g>
			<g>
				<g>
					<g>
						<defs>
							<polygon id="SVGID_00000038412364106601004320000012571008589742146697_" points="50.8,69.5 50.8,69.5 36.4,69.5 36.4,97.5 
								50.8,97.5 							"/>
						</defs>
						<clipPath id="SVGID_00000065794859763761554450000017015066850806177972_">
							<use xlink:href="#SVGID_00000038412364106601004320000012571008589742146697_"  style="overflow:visible;"/>
						</clipPath>
						<g style="clip-path:url(#SVGID_00000065794859763761554450000017015066850806177972_);">
							<path class="st1" d="M49.7,75.2c0,0-4.8-6-7.7-5.7c-4.3,0.4-6.2,8.4-5.7,11.8c0.7,4.5,4.6,14,9.6,16c0.9,0.4,5-0.9,5-0.9
								L49.7,75.2z"/>
						</g>
					</g>
				</g>
			</g>
		</g>
	</g>
</g>
<path class="st3" d="M66.1,38.3c0.7-1.6,1.5-3,2.5-4.4c1-1.3,2.1-2.6,3.4-3.7c1.3-1.1,2.6-2.1,4.1-3c1.4-0.9,3-1.6,4.5-2.1
	c-1.6,0.7-3,1.5-4.4,2.4c-1.4,0.9-2.7,1.9-3.9,3c-1.3,1.1-2.4,2.3-3.5,3.6C67.8,35.4,66.8,36.8,66.1,38.3z"/>
<circle class="st4" cx="86.8" cy="56.1" r="38.3"/>
<path class="st5" d="M86.6,100.9c-22.9,0-41.5-18.6-41.5-41.5S64,17.8,86.9,17.8"/>
<path class="st5" d="M87.3,17.8c22.9,0,41.5,18.6,41.5,41.5s-18.6,41.5-41.5,41.5l0,0"/>
<path class="st3" d="M122.4,52.3c-0.9-9.3-36-14.7-36-14.7l0,0c0,0-35.1,5.4-36,14.7c-2.2,22.2-1,31,0.5,55.9
	c0.6,9.8,25.5,26.8,29.5,29.5c0.4,0.2,0.8,0.4,1.2,0.4l4.8,0.1h0.1l4.8-0.1c0.4,0,0.8-0.1,1.2-0.4c4-2.7,28.9-19.8,29.5-29.5
	C123.3,83.3,124.5,74.6,122.4,52.3z"/>
<path class="st6" d="M91.5,99.6c0,0.9-2.2,1.7-5,1.7s-5-0.7-5-1.7"/>
<path class="st7" d="M38.4,70.7c-1-3-1.5-6-1.5-9.2c0-20.5,22.4-37.2,50-37.2s50,16.7,50,37.2c0,3.3-0.6,6.5-1.7,9.5"/>
<g>
	<path class="st8" d="M50.2,104.2l-2.1,0.3c-2.2,0.3-4.3-1.4-4.4-3.6l-3.5-32.6c-0.3-2.2,1.4-4.3,3.6-4.4l2.1-0.3
		c2.2-0.3,4.3,1.4,4.4,3.6l3.5,32.6C54.1,101.9,52.4,103.9,50.2,104.2z"/>
	<path class="st8" d="M43.1,101.4l-4.3,0.4c-2.2,0.3-4.3-1.4-4.4-3.6L31.6,73c-0.3-2.2,1.4-4.3,3.6-4.4l4.3-0.4L43.1,101.4z"/>
	<path class="st8" d="M34.7,61.5l2.7-1.2c0.6-0.3,1.3,0.1,1.4,0.7l1,9c0.1,0.5-0.3,0.9-0.7,1l0,0c-0.5,0.1-0.8-0.1-1-0.6l-3.7-7.8
		C34,62.4,34.2,61.8,34.7,61.5z"/>
</g>
<g>
	<path class="st8" d="M124.9,104.5l2.1,0.2c2.2,0.2,4.2-1.6,4.3-3.8l2-32.7c0.2-2.2-1.6-4.2-3.8-4.3l-2.1-0.2
		c-2.2-0.2-4.2,1.6-4.3,3.8l-2.1,32.7C120.9,102.4,122.6,104.3,124.9,104.5z"/>
	<path class="st8" d="M131.8,101.3l4.3,0.3c2.2,0.2,4.2-1.6,4.3-3.8l1.6-25.3c0.2-2.2-1.6-4.2-3.8-4.3l-4.3-0.3L131.8,101.3z"/>
	<path class="st8" d="M138.5,61.1l-2.7-1.1c-0.7-0.3-1.3,0.2-1.4,0.8l-0.6,9c-0.1,0.5,0.4,0.9,0.8,1l0,0c0.5,0.1,0.8-0.1,1-0.6
		l3.3-7.9C139.2,62,139,61.4,138.5,61.1z"/>
</g>
<path class="st7" d="M47.2,99.7l-18,14.3c-3,2.4-2.4,7.2,1.1,8.7l12.3,5.3"/>
<circle class="st8" cx="47.2" cy="128.1" r="7"/>
</svg>
