<?xml version="1.0" encoding="utf-8"?>
<!-- Generator: Adobe Illustrator 26.0.3, SVG Export Plug-In . SVG Version: 6.00 Build 0)  -->
<svg version="1.1" id="Calque_1" xmlns="http://www.w3.org/2000/svg" xmlns:xlink="http://www.w3.org/1999/xlink" x="0px" y="0px"
	 viewBox="0 0 158 161.8" style="enable-background:new 0 0 158 161.8;" xml:space="preserve">
<style type="text/css">
	.st0{fill:#A09393;}
	.st1{fill:#E0B9A0;}
	.st2{fill:#423522;}
	.st3{clip-path:url(#SVGID_00000044157165021572689280000002677133919555976603_);}
	.st4{fill:#CCAA97;}
	.st5{clip-path:url(#SVGID_00000072263413101715587450000003285073476267185337_);}
	.st6{fill:none;}
	.st7{fill:#F4BDB5;}
	.st8{fill:#AE9F9E;}
	.st9{fill:#F4CFCB;}
	.st10{fill:#BCB4B2;}
	.st11{fill:#D0C7C5;}
	.st12{fill:#BF9079;}
</style>
<ellipse class="st0" cx="81.4" cy="109.5" rx="57.7" ry="35.2"/>
<ellipse class="st0" cx="81.5" cy="91.3" rx="57.7" ry="34.6"/>
<circle class="st1" cx="80.9" cy="52.2" r="38.3"/>
<path class="st2" d="M80.8,97c-22.9,0-41.5-18.6-41.5-41.5S57.9,14,80.8,14"/>
<path class="st2" d="M81.5,13.9c22.9,0,41.5,18.6,41.5,41.6C123,78.4,104.4,97,81.5,97"/>
<path class="st1" d="M116.5,48.4c-0.9-9.3-36-14.7-36-14.7l0,0c0,0-35.1,5.4-36,14.7c-2.2,22.2-1,31,0.5,55.9
	c0.5,9.4,23.8,25.6,29,29.2c0.7,0.5,1.5,0.7,2.3,0.7l4.1,0.1h0.3l4.1-0.1c0.8,0,1.6-0.3,2.3-0.7c5.2-3.5,28.4-19.8,29-29.2
	C117.5,79.4,118.7,70.7,116.5,48.4z"/>
<g>
	<g>
		<g>
			<defs>
				<polygon id="SVGID_1_" points="116.7,66.7 116.7,66.7 132.2,66.7 132.2,96.9 116.7,96.9 				"/>
			</defs>
			<clipPath id="SVGID_00000177483491334700100620000006482355367175849634_">
				<use xlink:href="#SVGID_1_"  style="overflow:visible;"/>
			</clipPath>
			<g style="clip-path:url(#SVGID_00000177483491334700100620000006482355367175849634_);">
				<path class="st4" d="M117.7,72.8c0,0,5.2-6.4,8.3-6.1c4.6,0.5,6.6,9,6.1,12.8c-0.8,4.8-5,15.1-10.4,17.3c-1,0.4-5-0.9-5-0.9
					L117.7,72.8z"/>
			</g>
		</g>
	</g>
</g>
<g>
	<g>
		<g>
			<defs>
				<polygon id="SVGID_00000109005560152494618400000002990751424228382897_" points="44.4,66.7 44.4,66.7 28.9,66.7 28.9,96.9 
					44.4,96.9 				"/>
			</defs>
			<clipPath id="SVGID_00000159434342303758672130000000504296971000385673_">
				<use xlink:href="#SVGID_00000109005560152494618400000002990751424228382897_"  style="overflow:visible;"/>
			</clipPath>
			<g style="clip-path:url(#SVGID_00000159434342303758672130000000504296971000385673_);">
				<path class="st4" d="M43.4,72.8c0,0-5.2-6.4-8.3-6.1c-4.6,0.5-6.6,9-6,12.8c0.7,4.8,5,15.1,10.4,17.3c1.1,0.4,5-0.9,5-0.9
					L43.4,72.8z"/>
			</g>
		</g>
	</g>
</g>
<rect x="80.1" y="22.8" class="st6" width="41" height="110.5"/>
<rect x="39.1" y="22.8" class="st6" width="41" height="110.5"/>
<path class="st7" d="M51.7,152.9c-0.6-3.2,3-4,3.1-6.8c1.9-1.9,0-3.2-0.7-4.7c-2.3-5.1-0.2-9.5,4.7-10.1c1-0.1,2.1,0.4,2.9-1.2
	c-3.8-1.3-7.1-0.2-9.8,2.4c-1.7,1.6-2.9,1.8-4.6,0.5c-9.3-7.5-17.9-15.8-21.8-28.6c-0.3-0.9-0.4-2.1-2.1-2.2
	c2.9,15.4,11.3,25.6,22.6,33.1c3,2,4.4,4,3.8,7.8c-6.8-1.3-11.4-6.9-16.8-10.9c-7.4-5.4-13.3-12.8-17.4-21.5
	c-4.3-9.3-4.5-19-1.2-29.3c7.9-24.2,18.1-46.7,35-64.5C58.8,7.3,69.6,0.4,82.9,1.5c4.5,0.4,8.9,1.2,13.5,1.8c0,1.1,0.1,2,1,2.8
	c4.6,3.5,10.6,5,13.3,11.5c0.2,0.5,1.2,0.6,1.7,1.1c1,0.8,2.2,1.6,2.7,2.7c2.1,5,5.5,9.1,7.7,14.1c4.9,11,10.2,21.6,12.6,33.9
	c1.5,7.5,3.8,14.9,4.8,22.7c1,8.1,1.6,16.2,1.1,24.3c-0.2,4.4-2.3,8.4-4.5,11.8c-4.1,6.2-11.3,8.5-15.5,14.7
	c-0.3,0.5-1.6,0.2-2.4,0.3c-1.2-5.5-6.3-4-9.3-6.6c10.2-6.5,17.9-14.9,19.6-28.5c-4.6,10.6-11.1,19.4-20,25.7
	c-2,1.4-3.9,3.4-6.6,1.6s-5.5-2.9-8.5-3.9c-0.1-2,0.7-2.9,2.5-2.7c4-0.5,6.7-3.6,9.6-6.3c6.2-3.6,11.4-8.8,15.4-15.2
	c3.3-5.2,4.6-11.1,3.9-17.8c-0.6-5.6-3-10.6-3.4-16.1c0.3-3.2-3.4-4.1-3.1-7.3c-3-9.3-8.2-17-14.4-24c-4.7-5.3-10-9.7-16.4-10.3
	C70.8,30.3,55.7,36,44.1,51.1c-1.8,2.3-3.7,4.3-4,7.6c-1.5,1-2.1,2.8-2.6,4.5c-3.1,9.5-3.7,19.3-2.6,29.3
	c1.9,15.4,10.7,25,21.6,32.8c2.4,1.7,4.6,3.6,7.7,3.5l0,0c0.5,1,1.1,0.9,1.7,0c8,1.5,16,3,24,4.5c0.8,0.3,1.5,0.6,2.3,0.8
	c6.4,1.8,7,2.9,5.4,10.2c-0.2,0.7-0.3,1.5-0.4,2.2c-0.4,3-1.7,4.1-4.5,4.1c-7.3,0.1-14.5-1.3-21.8-1.2c-2.9-2.1-6.6-1.7-9.7-3.1
	c2.8,3,6.5,2.8,9.7,4.1c6.8,0.6,13.5,1.2,20.3,2c1.2,0.1,3.1-0.1,3.1,1.8c0,1.9-1.1,3.4-3.3,3.6c-5.4,0.3-10.8,1-16.3,0.9
	c-5.2-0.1-10.3,0-15.5,0c9.8,2.4,19.8,1.8,29.7,1.5c2.1-0.1,4.9,0.3,6.2-2.9c1.8-4.2,3.8-8.3,5.2-12.6c2-6,3-6.6,8.7-5.5
	c3.6,0.7,6.5,3.3,10,4c2.9,4.9,5.9,9.7,8.8,14.6c2.9,8,5.6,16.1,9.4,23.7c0.6,1.2,1.6,2.6,0.8,3.7c-2.5,3.2-4.2,7.4-8.6,8
	c-3.1-13.4-6.3-26.7-9.3-40.1c-1,1.3-1.2,2.4-0.9,3.4c2.4,7.7,3.1,15.8,5.3,23.5c1.4,4.8,2.1,10,5,14.1c0.4,0.6,0.8,1.2,1.2,1.8
	c3.8,4.9,3.3,6.8-1.8,9.6c-3.9,2.1-8.2,2.2-12.3,3.2c-1-11.2-1.9-22.5-1.4-33.8c0.3-7.4,0.9-14.7,1.4-22.1c0.5-6.9-5-12.5-14.2-11.8
	c11.5,3.8,11.9,13.2,11.8,23.2c-0.1,14.8-0.5,29.6,0.8,44.4c0.4,7.9,1.1,15.7,0.8,23.6c-0.3,1.8-0.5,3.6-0.8,5.4
	c-6.1,0.8-8-0.9-9.7-1.7c-5-2.9-9.8-5.7-14.6-8.3c-4.6-2.6-8.9-2.4-12.7,2.3c-0.2,0.2-0.7,0.1-1.6,0.1c0.9-5.1,3.6-9.2,4-14.1
	c6.1-16.9,11.3-34.1,18.2-51.7c-2.9,1.5-3.4,3.7-4.1,5.5c-3.2,8.6-5.9,18.4-8.6,27.2c-2,6.7-5.5,11.8-6.6,18.9
	c-2.1,4.5-3.3,9.4-4.4,14.4c-0.2,1,0,2.9-1.6,2.6c-1.4-0.3-0.9-1.9-1-3c0-0.4,0-0.9,0-1.4c-0.1-8.4,2.1-16.1,4.4-24
	c2.6-8.7,6.1-16.9,8.8-25.4c1.9-5.8,5.8-10.5,6.9-16.7c-0.3-0.7-0.6-0.6-0.9,0c-1.5,2.6-3.1,5.1-4.5,7.8c-0.6,1.3-1,2.4-2.6,2.1
	c-9.5-1.9-19.2-2.8-28.2-7.1c-1.3-0.6-2.6-1.9-2.5-2.6C55.1,158.6,51.7,156.3,51.7,152.9z M99.1,161.3c0.3-0.6,0.6-1.2,0.9-1.8
	c2.9-1.6,2.9-5.1,4-7.8c-1.9,2.2-3.8,4.3-4.1,7.6C99.6,160,99.3,160.6,99.1,161.3c-0.3,0.3-0.5,0.6-0.6,1c0,0,0.2,0.2,0.3,0.2
	C98.9,162.1,99,161.7,99.1,161.3z M58.6,144.1c-0.3,0.2-0.4,0.4-0.6,0.6c0.3,0.3,0.5,0.7,0.8,0.8c0.4,0.1,0.8-0.2,0.6-0.7
	C59.3,144.5,58.8,144.3,58.6,144.1z"/>
<path class="st7" d="M119,143.1L119,143.1c0.8-0.1,1.7-0.8,2-1.2c4.3-6.2,10.8-7.9,15-14.1c2.3-3.4,4.6-7.3,4.8-11.6
	c0.5-8.1,0.1-16-0.9-24.1c-1-7.8-3.6-15.1-5.1-22.7c-2.5-12.3-7.3-22.6-12.3-33.6c-2.3-5-5.6-8.7-7.7-13.8c-0.5-1.1-1.5-2-2.5-2.8
	c-0.5-0.5-2-1-2.2-1.5c-2.7-6.5-8.3-7.9-12.9-11.4c-1-0.7-1.1-1.9-1.1-3c10.8,1.9,19.2,8.9,25.8,18.1c15.2,21.3,23,46.3,26.6,73.1
	c1.1,8,1.9,16.1,0.8,24.2c-1,7.4-5.6,11.8-10.3,16.1c-3.1,2.9-6.8,5.3-10.3,7.7C127.2,143.6,122,147.9,119,143.1z"/>
<path class="st8" d="M50.1,143.1c0.5-3.8-0.9-5.8-3.8-7.8c-11.3-7.6-19.9-17.7-22.6-33.1c1.7,0.1,1.8,1.4,2.1,2.2
	c3.9,12.8,12.5,21.1,21.8,28.6c1.7,1.3,2.9,1,4.6-0.5c2.7-2.6,5.9-3.7,9.8-2.4c-0.9,1.5-2.1,1.1-2.9,1.2c-4.9,0.7-7,5-4.7,10.1
	c0.7,1.5,2.5,2.8,0.7,4.7C53.1,145.4,51.1,145.3,50.1,143.1z"/>
<path class="st9" d="M119,64.9c-3.2-3.2-21.6-11-25.5-12.1c-8.6-2.3-17.5-2.1-26.2-0.4C64.3,53,44.4,66.2,41,67.6
	c-1.9-3.1,0.2-6.7-0.9-9.9c0.3-3.2,2.3-5.2,4-7.5c11.7-14.9,26.8-20.5,44-19c6.4,0.6,11.7,4.9,16.5,10.1C111,48.2,116,55.8,119,64.9
	z"/>
<path class="st9" d="M40.1,58.5c1.1,3.3-1,6.9,0.9,10.1c-1.6,3.9-0.9,8-0.6,11.9c0.5,6.8,1.5,13.6,2.3,20.4c0.3,2.2,2.4,7.1,2.5,7.6
	c3.1,8.4,10,12.3,16.1,17.3c1.1,0.9,2.5,1.1,3,2.7c-3,0.1-5.3-1.8-7.7-3.5c-10.9-7.8-19.8-17.4-21.6-32.8c-1.2-10-0.6-19.8,2.6-29.3
	C38.1,61.3,38.7,59.5,40.1,58.5z"/>
<path class="st8" d="M90.1,133.1c0.6-2.9,2.7-1.5,4-1.8c2.9,1,5.8,2.1,8.5,3.9c2.7,1.8,4.6-0.2,6.6-1.6c8.8-6.3,15.4-15,20-25.7
	c-1.7,13.6-9.3,22-19.6,28.5c3,2.6,8.2,1.2,9.3,6.6l0,0c-3.5-0.7-6.4-3.3-10-4c-5.8-1.1-6.8-0.5-8.7,5.5c-1.4,4.3-3.5,8.4-5.2,12.6
	c-1.3,3.2-4.1,2.9-6.2,2.9c-9.9,0.3-19.9,0.9-29.7-1.5c5.2,0,10.3-0.1,15.5,0c5.5,0.1,10.9-0.6,16.3-0.9c2.3-0.1,3.3-1.6,3.3-3.6
	c0-1.9-2-1.7-3.1-1.8c-6.7-0.8-13.5-1.3-20.3-2c0-0.3,0-0.7-0.1-1c7.3-0.1,14.5,1.3,21.8,1.2c2.9-0.1,4.1-1.2,4.5-4.1
	c0.1-0.7,0.3-1.5,0.4-2.2c1.6-7.4,1-8.5-5.4-10.2C91.6,133.7,90.9,133.4,90.1,133.1z"/>
<path class="st9" d="M105.3,122.2c1-1.9,3.9-5.3,4.1-5.4c1.5-1,6.6-4.5,7.1-13.4c0.1-2.5,0.5-5,0.9-7.4c1.1-6.7,2.2-13.5,3.2-20.2
	c0.2-1.2,0.1-2.5,1.7-2.6c0.4,5.6,2.9,10.5,3.4,16.1c0.7,6.6-0.7,12.5-3.9,17.8c-4,6.4-9.1,11.6-15.4,15.2
	C106,122.3,105.6,122.2,105.3,122.2z"/>
<path class="st8" d="M116.7,208.5c-0.5,0-1.1,0-1.6,0c-1.3-14.8-0.9-29.6-0.8-44.4c0.1-10-0.2-19.4-11.8-23.2
	c9.1-0.7,14.6,4.9,14.2,11.8c-0.6,7.3-1.1,14.7-1.4,22.1C114.8,186,115.7,197.2,116.7,208.5z"/>
<path class="st8" d="M76.6,229.8c-0.3,0-1.4,2.2-1.7,2.1c1.2-9.4,5.5-19.4,8.1-28c3.4-11.5,7.7-22.4,11.6-33.5
	c0.9-2.4,1.5-5.3,4.6-7C90.6,186,84.2,208,76.6,229.8z"/>
<path class="st8" d="M129.6,193c0,0.3,0,0.6,0,0.9c-2.9-4.1-3.6-9.3-5-14.1c-2.2-7.7-2.9-15.8-5.3-23.5c-0.3-0.9,0-2.1,0.9-3.4
	C123.3,166.3,126.4,179.6,129.6,193z"/>
<path class="st10" d="M105.1,122.3c0.3,0,0.7,0.1,1,0.1c-2.9,2.8-5.6,6-9.6,6.5C98.7,125.5,101.8,123.8,105.1,122.3z"/>
<path class="st10" d="M71,149.3c0,0.3,0,0.7,0.1,1c-3.2-1.2-7-1-9.7-4.1C64.4,147.6,68,147.2,71,149.3z"/>
<path class="st10" d="M99.8,159.3c0.3-3.3,2.3-5.4,4.1-7.6c-1.2,2.7-1.2,6.1-4,7.8C100,159.5,99.8,159.3,99.8,159.3z"/>
<path class="st11" d="M58.6,144.1c0.3,0.2,0.7,0.4,0.8,0.7c0.2,0.5-0.2,0.9-0.6,0.7c-0.3-0.1-0.5-0.5-0.8-0.8
	C58.1,144.5,58.3,144.3,58.6,144.1z"/>
<path class="st11" d="M64.6,126.6c0.6,0,1.1,0,1.7,0C65.7,127.5,65.1,127.6,64.6,126.6z"/>
<path class="st8" d="M99,161.2c0.3-0.6,0.5-1.3,0.8-1.9l0.1,0.2C99.7,160.1,99.4,160.7,99,161.2C99.1,161.3,99,161.2,99,161.2z"/>
<path class="st8" d="M99.1,161.3c-0.1,0.4-0.2,0.8-0.3,1.2c-0.1-0.1-0.3-0.2-0.3-0.2C98.6,161.9,98.8,161.6,99.1,161.3
	C99,161.2,99.1,161.3,99.1,161.3z"/>
<path class="st8" d="M92.6,162.2c-0.3,0-0.6,0-0.9,0C92.1,161.5,92.4,161.5,92.6,162.2z"/>
<g id="Calque_3_00000177465848162245240080000008476260514197900972_">
	<path class="st12" d="M85.4,94.1c0,0.9-2.1,1.6-4.8,1.6s-4.8-0.7-4.8-1.6"/>
</g>
<path class="st1" d="M45,104.3c0.5,9.4,23.8,25.6,29,29.2c0.7,0.5,1.5,0.7,2.3,0.7l4.1,0.1h0.3l4.1-0.1c0.8,0,1.6-0.3,2.3-0.7
	c5.2-3.5,28.4-19.8,29-29.2"/>
</svg>
