<?xml version="1.0" encoding="utf-8"?>
<!-- Generator: Adobe Illustrator 26.0.3, SVG Export Plug-In . SVG Version: 6.00 Build 0)  -->
<svg version="1.1" id="Calque_1" xmlns="http://www.w3.org/2000/svg" xmlns:xlink="http://www.w3.org/1999/xlink" x="0px" y="0px"
	 viewBox="0 0 788 1005.1" style="enable-background:new 0 0 788 1005.1;" xml:space="preserve">
<style type="text/css">
	.st0{fill:none;stroke:#E59328;stroke-width:0.849;stroke-miterlimit:10;}
	.st1{clip-path:url(#SVGID_00000023965248291526748140000013562540712726288289_);}
	.st2{fill:#CCAA97;}
	.st3{clip-path:url(#SVGID_00000069391755681597956990000003160003993384189338_);}
	.st4{fill:#B26959;}
	.st5{fill:#E0B9A0;}
	.st6{fill:#F3C157;}
	.st7{fill:#423522;}
	.st8{fill:#BF9079;}
</style>
<g>
	<g>
		<path class="st0" d="M382.4,68.9c0,0,1.4,11.7,11,15.9"/>
		<path class="st0" d="M386.7,64.9c0,0-1.7,11.7,6.6,18.2"/>
	</g>
	<circle class="st0" cx="382.2" cy="67.3" r="1.4"/>
	<circle class="st0" cx="387.1" cy="63.5" r="1.4"/>
</g>
<g>
	<g>
		<path class="st0" d="M434.5,69.8c0,0-1.4,11.7-11,15.9"/>
		<path class="st0" d="M430.3,65.8c0,0,1.7,11.7-6.6,18.2"/>
	</g>
	<circle class="st0" cx="434.7" cy="68.3" r="1.4"/>
	<circle class="st0" cx="429.8" cy="64.4" r="1.4"/>
</g>
<g>
	<g>
		<g>
			<g>
				<g>
					<defs>
						<polygon id="SVGID_1_" points="442.6,135.6 442.6,135.6 456.4,135.6 456.4,162.3 442.6,162.3 						"/>
					</defs>
					<clipPath id="SVGID_00000078011103656746933670000001487760861780415921_">
						<use xlink:href="#SVGID_1_"  style="overflow:visible;"/>
					</clipPath>
					<g style="clip-path:url(#SVGID_00000078011103656746933670000001487760861780415921_);">
						<path class="st2" d="M443.6,141c0,0,4.6-5.7,7.4-5.4c4.1,0.4,5.9,8,5.3,11.3c-0.6,4.3-4.4,13.4-9.1,15.3c-0.9,0.4-5-1-5-1
							L443.6,141z"/>
					</g>
				</g>
			</g>
		</g>
	</g>
</g>
<g>
	<g>
		<g>
			<g>
				<g>
					<defs>
						<polygon id="SVGID_00000051360927842109623940000002393805071903516291_" points="372.6,135.6 372.6,135.6 358.9,135.6 
							358.9,162.3 372.6,162.3 						"/>
					</defs>
					<clipPath id="SVGID_00000098211621473090111440000003446185700324539797_">
						<use xlink:href="#SVGID_00000051360927842109623940000002393805071903516291_"  style="overflow:visible;"/>
					</clipPath>
					<g style="clip-path:url(#SVGID_00000098211621473090111440000003446185700324539797_);">
						<path class="st2" d="M371.6,141c0,0-4.6-5.7-7.4-5.4c-4.1,0.4-5.9,8-5.4,11.3c0.7,4.3,4.4,13.4,9.2,15.3
							c0.9,0.4,4.8-0.9,4.8-0.9L371.6,141z"/>
					</g>
				</g>
			</g>
		</g>
	</g>
</g>
<circle class="st4" cx="408" cy="117.6" r="38.3"/>
<path class="st5" d="M443.7,113.9c-0.9-9.3-36-14.7-36-14.7l0,0c0,0-35.1,5.4-36,14.7c-2.2,22.2-1,31,0.5,56
	c0.6,9.8,25.6,26.9,29.5,29.5c0.3,0.2,0.7,0.4,1.1,0.4l4.8,0.1h0.1l4.8-0.1c0.4,0,0.8-0.1,1.1-0.4c3.9-2.6,28.9-19.8,29.5-29.5
	C444.7,144.9,445.9,136.1,443.7,113.9z"/>
<ellipse class="st6" cx="368.7" cy="159.4" rx="1.4" ry="1.5"/>
<ellipse class="st6" cx="446.4" cy="159.7" rx="1.4" ry="1.5"/>
<path class="st7" d="M372.1,142.8c-0.5-0.6-32.6-46.1,25.6-63.3c0,0,23.9-1.5,21.6-0.9c0,0,52.3,19.7,24.4,66.3
	c0,0,1.2-10.9-2.3-13.7c-8.4-6.9-27.1-12-32.7-29c-5.7,17-25.4,22.4-34.1,28.7C371.1,133.4,372.1,142.8,372.1,142.8z"/>
<path class="st8" d="M412.4,160.7c0,0.9-2.1,1.6-4.8,1.6s-4.8-0.7-4.8-1.6H412.4z"/>
<circle class="st7" cx="408.1" cy="76.9" r="19.7"/>
</svg>
