<svg xmlns="http://www.w3.org/2000/svg" viewBox="0 0 788 1005.07"><defs><style>.cls-1{fill:#904c3d;}.cls-2{fill:#b26959;}.cls-3{fill:#5e574f;}.cls-4{fill:#3a61a7;}</style></defs><g id="Calque_3" data-name="Calque 3"><polygon class="cls-1" points="321.84 213.88 387.67 185.8 387.01 155.87 427.41 155.87 427.18 185.8 490.22 213.88 474.55 256.31 338.98 253.93 321.84 213.88"/><polygon class="cls-1" points="427.41 169.5 387.89 169.5 387.89 216.88 408.31 234.36 427.41 216.88 427.41 169.5"/><path class="cls-2" d="M259.23,326.67h0a17.64,17.64,0,0,0,25.11-2.59L339,265.89l-17.13-52.28-21.4,35.59-43.56,52.66A17.64,17.64,0,0,0,259.23,326.67Z"/><path class="cls-2" d="M490.25,213.61l26.54,28.25,58.59,50.08a18.66,18.66,0,0,1,2.73,25.5h0a18.68,18.68,0,0,1-25.9,3.75L474.58,271Z"/><path class="cls-2" d="M562.85,321.94c10.65,3.53,15.79-6.16,19.07-15.09,2.33-6.38,18.72-70.45,23.4-87.81,2.64-9.81,4.31-15-1.35-17.08-5.15-1.92-12.29,12.19-14.52,15.63-20.93,32.34-27,46.73-41.36,77.13C540,311.88,559.2,320.73,562.85,321.94Z"/><path class="cls-2" d="M609,172.61a82.85,82.85,0,0,0,9.78-12.87s2.29,4.38,2,7c-.27,2.14-5.49,11.23-5.49,11.23h0c25.27-14.13,52.56-27.76,55.5-28.48,2.09-.52,7.94,2.3,7.94,2.3S654.76,166,648.3,170.46c-21.95,15-34.38,29.6-41.16,42.84-1.2,2.33-15.08-.2-13-5.29.72-1.79-.47-12,1.29-14.73C602.45,182.46,608.74,172.91,609,172.61Z"/><path class="cls-2" d="M270.28,327.05c-10.65,3.53-15.79-6.16-19.07-15.09-2.33-6.38-18.72-70.45-23.4-87.81-2.64-9.81-4.31-15,1.35-17.08,5.15-1.92,12.29,12.19,14.52,15.63,20.93,32.34,26.95,46.73,41.37,77.13C293.18,317,273.93,325.84,270.28,327.05Z"/><path class="cls-2" d="M224.12,177.72a82.85,82.85,0,0,1-9.78-12.87s-2.29,4.38-2,7c.28,2.14,5.49,11.23,5.49,11.23h0c-25.27-14.13-52.56-27.76-55.5-28.48-2.08-.52-7.94,2.3-7.94,2.3s23.94,14.25,30.39,18.67c21.95,15,34.38,29.6,41.16,42.84,1.2,2.33,15.08-.2,13-5.29-.72-1.78.47-12-1.29-14.73C230.68,187.57,224.39,178,224.12,177.72Z"/><path class="cls-1" d="M387.47,157.1l41.59-.29.56,12.17c-9.21,11.39-17.22,16.82-24.19,16.77-5.27,0-13.5-10.1-18.82-14.1l.07-2Z"/><path class="cls-3" d="M324.22,506.78l13.12-124.85-3.44-6.84,5.56-18.67-7.74-79.24-10.1-64.31,61-26.38,25.49,48.32h6.18l17.36-47.33,58.83,25.39c0,3-7.37,60.66-7.37,63.64,0,1.77-8.48,57.43-8.66,79.47,0,3.16,6.61,19.11,6.61,19.11L474.19,383,493,511"/><polygon class="cls-4" points="479.6 414.64 332.46 412.61 337.34 381.93 474.64 381.93 479.6 414.64"/></g></svg>