<svg xmlns="http://www.w3.org/2000/svg" viewBox="0 0 588 550"><defs><style>.cls-1{fill:#904c3d;}.cls-2{fill:#b26959;}.cls-3{fill:#a89883;}</style></defs><g id="Calque_3" data-name="Calque 3"><rect class="cls-1" x="263.66" y="107.87" width="39.52" height="47.38"/><path class="cls-2" d="M135,299.31h0a17.65,17.65,0,0,0,25.11-2.6l54.67-58.19-17.13-52.28-21.4,35.59-43.56,52.66A17.65,17.65,0,0,0,135,299.31Z"/><path class="cls-2" d="M127.52,285.57l14.21-122.68,18.25,0,1.87,33s3.41,75,3,77.81-1.5,15.07-1.5,15.07l-.47,1.71A18,18,0,0,1,144,303.64h0a18,18,0,0,1-16.31-16.48Z"/><path class="cls-3" d="M366.44,186.24c0,3-15.85,53.51-15.85,56.48s2.59,114.64,2.59,114.64,15.78,43,15.54,92c-.05,10.16-5.56,19.36-15.62,20.7,0,0-42.55-53.51-60.36-51.74-39.18,3.89-80.69-1.62-80.69-1.62a18.23,18.23,0,0,1-14.31-20l17.67-79.77-.67-78.42-17.13-52.28,61-26.37,26.91,45.79h0l22.13-44.81Z"/><path class="cls-2" d="M366.26,185.32l26.54,28.25,58.59,50.08a18.66,18.66,0,0,1,2.72,25.5h0a18.68,18.68,0,0,1-25.9,3.75l-77.62-50.18Z"/><path class="cls-2" d="M389.89,367.19c-3.76,3.15-21.8,13.59-23.9,14.81a.87.87,0,0,1-.44.11h-7.72a.9.9,0,0,1-.78-.45l-5.67-10.08a.88.88,0,0,0-1.2-.34c-3.42,1.87-17.07,9.19-18.31,7.34s-6.84-9-8.63-11.31a.88.88,0,0,1,.15-1.25l10.7-8.45c.67-.53,3.18-6.54,3.18-6.54h15.8c1.95,0,11.7,4.8,13.22,5.55a.82.82,0,0,0,.43.09l14.86-.68a.91.91,0,0,1,.74.34L390,366A.88.88,0,0,1,389.89,367.19Z"/><path class="cls-2" d="M372.75,357l16-21.32L427.34,272l5.6-9.24c6.35-7-1.43,6.39,6.05,12.09L446,260.84c15.41,5.68,17.61,24.75,10.74,32.68L390,366Z"/><polygon class="cls-1" points="228.59 172.84 263.66 155.24 303.18 155.24 337.5 173.75 294.59 222.46 275.18 221.04 228.59 172.84"/><path class="cls-2" d="M158.8,164s14-9.26,15.42-11.57,6-13.11,7.36-14.66,11.92-8.87,10.87-10-5.61-5-5.61-5l-9.47,5-7.71,10.41.35-20.83s5-27.38,5.65-28.92-6.35-4.24-6.35-4.24l-8.06,33.16V79.93h-8.06v39.72l-6.31-39.72-7.36,3.85,4.56,35.48L134.61,94.2s-6.66,3.47-6,5.39,6.66,25.46,6.66,25.46l.7,32.78,5.26,6.17Z"/></g></svg>