<svg xmlns="http://www.w3.org/2000/svg" viewBox="0 0 788 1005.07"><defs><style>.cls-1{fill:#904c3d;}.cls-2{fill:#b26959;}.cls-3{fill:#736065;}</style></defs><g id="Calque_3" data-name="Calque 3"><rect class="cls-1" x="385.42" y="138.65" width="39.52" height="47.38"/><path class="cls-2" d="M256.72,330.08h0a17.64,17.64,0,0,0,25.11-2.59L336.5,269.3,319.37,217,298,252.61l-43.56,52.66A17.64,17.64,0,0,0,256.72,330.08Z"/><path class="cls-2" d="M488.2,217,509,249.72l48.23,60.12a18.65,18.65,0,0,1-2.08,25.56h0A18.65,18.65,0,0,1,529,334.26L472.35,273.5Z"/><path class="cls-3" d="M488.2,217c0,3-15.85,53.51-15.85,56.48s-.63,78.6-.63,78.6l18.76,128a18.22,18.22,0,0,1-15.62,20.7s-53.1,10.14-71,9.46c-17.32-.67-67.82-14.38-67.82-14.38a18.22,18.22,0,0,1-14.31-20l15.42-128.21-.67-78.42L319.37,217l61-26.38L382.85,173l44.49.36,2,18.31Z"/><path class="cls-2" d="M214.6,205.34l14.46-6.16,13.17,25.95h0l39.37,75.61,2.47,8.44a18.17,18.17,0,0,1-10.8,22h0a18.17,18.17,0,0,1-23.94-11.37L224.64,231Z"/><path class="cls-2" d="M214.6,205.34c1.67,0,12.2-3.6,12.2-3.6l12.33-14s2.24-5,2.81-6.87,5.39-14.26,5.39-14.26l8.9-8.9-7.6-2.38-6.42,5.11-6.7,9.11-4.45-13.36-10.12-2.51-21,13.57,1.3,19Z"/><path class="cls-2" d="M575.11,231.39l-43.82,73.12-3,8.28a18.17,18.17,0,0,0,9.47,22.63h0a18.16,18.16,0,0,0,24.57-9.92L595.11,241"/><polyline class="cls-2" points="595.11 240.98 607.3 214.2 586.46 207.25 575.11 231.4"/><path class="cls-2" d="M603.79,217.52c-1.67,0-12-4.32-12-4.32l-11.47-14.73s-1.94-5.17-2.4-7-4.53-14.55-4.53-14.55l-8.35-9.42,7.73-1.93,6.11,5.49,6.14,9.49,5.24-13.07,10.25-1.9,20.12,14.8-2.43,18.87Z"/></g></svg>