<?xml version="1.0" encoding="utf-8"?>
<!-- Generator: Adobe Illustrator 26.0.2, SVG Export Plug-In . SVG Version: 6.00 Build 0)  -->
<svg version="1.1" id="Layer_1" xmlns="http://www.w3.org/2000/svg" xmlns:xlink="http://www.w3.org/1999/xlink" x="0px" y="0px"
	 viewBox="0 0 788 1005" style="enable-background:new 0 0 788 1005;" xml:space="preserve">
<style type="text/css">
	.st0{fill:#FA9980;}
	.st1{fill:#CC7A6A;}
	.st2{fill:none;stroke:#000000;stroke-width:3;stroke-miterlimit:10;}
	.st3{fill:#36344D;}
	.st4{fill:#473415;}
	.st5{fill:#472E1D;}
	.st6{fill:none;stroke:#D3BB54;stroke-width:6;stroke-linecap:round;stroke-miterlimit:10;}
	.st7{fill:none;}
	.st8{fill:#46455B;}
	.st9{fill:#7EA885;}
	.st10{fill:#BCBCBC;}
	.st11{fill:none;stroke:#BCBCBC;stroke-width:5;stroke-linecap:round;stroke-miterlimit:10;}
	.st12{fill:none;stroke:#BCBCBC;stroke-width:2;stroke-linecap:round;stroke-miterlimit:10;}
	.st13{fill:#D3BB54;}
</style>
<polygon points="229.9,473.9 230,473.8 229.9,473.8 "/>
<polygon points="230,473.8 230.1,473.9 230.1,473.8 "/>
<polygon points="229.9,473.9 230,473.8 229.9,473.8 "/>
<polygon points="230,473.8 230.1,473.9 230.1,473.8 "/>
<path class="st0" d="M515.5,238.1c-0.6,38.4-26.2,33.2-36.9,42.3c-12.6,10.8-8.3,50-17.2,64c-2.5,3.8-11.4,10.1-15.8,9.1
	c-12.5-2.9-24-30.7-34.8-37.7c-6.3-4.1-23.6-3.6-30.2,0c-11.2,6.2-22.3,34.9-34.8,37.7c-4.4,1-13.4-5.2-15.8-9.1
	c-8.9-14-4.6-53.2-17.2-64c-10.6-9.1-36.2-3.9-36.9-42.3c-0.4-26.6,35-37.3,35-37.3l40.1-19.9c2.6-1.3,5-2.9,7.1-4.8
	c0.8-0.7,1.6-1.5,2.3-2.3l0.6-0.7l0-0.1c3.9-4.7,6.5-10.4,7.2-16.4c0.2-1.4,0.3-2.8,0.2-4.2v-2.8v-4.5h53.6l0.1,5v1.5v3.2
	c0,0.3,0,0.7,0,1l0,0c0,0.6,0.1,1.3,0.2,2c0.2,1.5,0.5,3.1,0.9,4.6c2.2,7.7,7.6,14,14.7,17.6l40.6,20.1c1,0.5,2.1,1,3.2,1.3
	C488.6,203.7,515.8,214.8,515.5,238.1z"/>
<path class="st0" d="M423.1,193.3l-27.5,32.5l-14.8-17.7l-12.4-14.8l0.7-41.6v-2.2l0.1-4.5h53v0.2l0.1,4.7l0,0v1.6l0.1,4.2l0,0v1.3
	l0.1,6.8L423.1,193.3z"/>
<path class="st1" d="M423.6,162.6l-1,1.2c-5.2,6.3-28.8,35-41.8,44.3c-3.2,2.3-5.7,3.4-7.2,2.7c-6.8-3.3-14.8-35.1-14.8-35.1
	l0.1-0.1c0.6-0.6,1.2-1.2,1.7-1.9c0.3-0.4,0.7-0.8,1-1.3l0.1-0.1c3.3-4.5,5.5-9.7,6.7-15.2c0-0.2,0.1-0.4,0.1-0.6
	c0.3-1.4,0.5-3,0.7-4.8c0.1-0.7,0.1-1.4,0.2-2.2c0.1-1.4,0.2-2.9,0.3-4.5h52.7v0.2v4.3v6.7l0.1,0.8l0.1,0.7l0.9,4.6L423.6,162.6z"/>
<path class="st2" d="M457.6,244.9c11.9,25,40.9,38.8,40.9,38.8s53,32.8,70.4,44c8.2,5.3,25.2,16.6,39-3.6l0,0
	c11.3-16.6-2.8-30.4-10.2-36.2c-15-11.8-47.9-32.6-60.5-46.7c-9.4-10.5-19.8-30.3-43.1-36.2c0,0-18.6-6.9-31.8,8.3l-0.5,0.6
	C454.4,222.4,452.7,234.6,457.6,244.9L457.6,244.9z"/>
<path class="st0" d="M593.9,290.1c-18.6-7.2-32.7,11.8-37.4,19s-10.7,23.9-13.6,32.1c-7.5,21-17.5,57.3-25.2,77.8
	c-5,13.5-8.1,20.4-0.3,25.9c7,5,16.1-5.8,19.7-9.9c14.8-17.2,44.3-50.4,56.8-70.9c5.2-8.4,14-26.4,16.1-36
	C616,301.1,599.3,292.1,593.9,290.1z"/>
<path class="st2" d="M335,245.2c-8.5,26.3-35.5,43.8-35.5,43.8s-48.2,39.4-64.1,52.8c-7.5,6.3-22.8,19.7-39.1,1.5l0,0
	c-13.4-15-1.2-30.5,5.4-37.2c13.3-13.7,43.2-38.6,53.9-54.2c7.9-11.6,15.6-32.7,38-41.5c0,0,17.5-9.3,32.6,4l0.6,0.5
	C335.3,222.4,338.5,234.3,335,245.2z"/>
<path class="st0" d="M520.5,441.3c2,3.2,3.1,9-3,14.8c0,0-17.6,20.2-25.4,24.3c-3.5,1.8-12.8,6.3-15.4,3.3
	c-7.3-8.4-12.1-28.6-9.7-41.7c0.7-3.9,9.4-8,13.3-8.8c4.3-0.8,13,2.6,17.3,2.8c2.4,0,4.8-0.1,7.2-0.4
	C510.8,435.1,517.7,436.9,520.5,441.3z"/>
<polygon class="st0" points="510.8,428.9 506.6,435.6 510,448.1 514,460.1 519.5,454.1 529.7,447.1 "/>
<polygon class="st3" points="508,433.2 517.4,417.5 537.8,439.4 526.6,452.1 "/>
<polygon points="230.6,478.1 230.7,478 230.6,478 "/>
<polygon points="230.7,478 230.8,478.1 230.8,478 "/>
<polygon points="230.6,478.1 230.7,478 230.6,478 "/>
<polygon points="230.7,478 230.8,478.1 230.8,478 "/>
<polygon class="st4" points="317.1,449.8 318.6,427.3 473.6,427.3 475.6,446.8 "/>
<circle class="st5" cx="464.3" cy="420.6" r="4.7"/>
<line class="st6" x1="116.4" y1="52.9" x2="138" y2="60.3"/>
<line class="st6" x1="131" y1="15.5" x2="146.3" y2="44.6"/>
<line class="st6" x1="112.6" y1="93.3" x2="136.9" y2="78"/>
<polygon points="230.1,473.6 230.2,473.6 230.1,473.5 "/>
<polygon points="230.2,473.6 230.3,473.6 230.3,473.5 "/>
<polygon points="230.1,473.6 230.2,473.6 230.1,473.5 "/>
<polygon points="230.2,473.6 230.3,473.6 230.3,473.5 "/>
<path class="st2" d="M457.9,244.6c11.9,25,40.9,38.8,40.9,38.8s53,32.8,70.4,44c8.2,5.3,25.2,16.6,39-3.6l0,0
	c11.3-16.6-2.8-30.4-10.2-36.2c-15-11.8-47.9-32.6-60.5-46.7c-9.4-10.5-19.8-30.3-43.1-36.2c0,0-18.6-6.9-31.8,8.2l-0.5,0.6
	C454.7,222.1,453,234.3,457.9,244.6z"/>
<path class="st2" d="M465.6,400.4c-0.9-4-5.7-25.3-5.6-33.8c0.1-9.2,4-27.7,1.8-36.6c-9.8-39.6-123.5-39.7-133.3,0
	c-2.2,8.9,1.7,27.5,1.8,36.6c0.1,8.6-4.7,29.8-5.6,33.8c-11,50.3,70.4,73.4,70.4,73.4S476.6,450.7,465.6,400.4z"/>
<path class="st7" d="M434.2,385.6c16.2,5.2,23.2,9.6,27,16.6c3.1,5.6,6,18.5,6.3,24.9c0.5,15.1-7.8,52.9-21.9,65.6
	c-14.4,12.9-84.8,12.9-99.2,0c-14.1-12.6-22.5-50.5-21.9-65.6c0.2-6.4,3.2-19.3,6.3-24.9c3.8-6.9,10.9-11.3,27-16.6
	c18.5-6,37.3-5,37.3-5S415.7,379.6,434.2,385.6z"/>
<path class="st2" d="M335.2,244.9c-8.5,26.3-35.5,43.8-35.5,43.8s-48.2,39.4-64.1,52.8c-7.5,6.3-22.8,19.7-39.1,1.5l0,0
	c-13.4-15-1.2-30.5,5.4-37.2c13.3-13.7,43.2-38.6,53.9-54.2c7.9-11.6,15.6-32.6,38-41.5c0,0,17.6-9.3,32.6,4l0.6,0.5
	C335.4,222.1,338.7,234,335.2,244.9L335.2,244.9z"/>
<path class="st8" d="M418.7,149.3c2.2,0,4,1.5,4.5,3.6c1.3,6.4,4.6,19.2,10.9,23.1c7,4.3,39.2,20.9,61.2,26.8
	c34.9,9.2,70.8,63.8,109.8,87.6c7.3,4.4,8.9,20.6,8.5,26.6c-0.8,11.1-6.4,32.6-12,43.8c-9.1,18.5-43.7-25.1-51.7-38
	c-1.5-2.4-0.8-5.4-3.2-6.8l-58.8-34.7c-2.4-1.4-5.5,0-5.9,2.8l-9,58.1c-0.3,1.7-0.3,3.5,0,5.2l16.3,108.7c0.6,4.1-0.3,8.3-2.5,11.8
	l-4.8,7.6c-3.2,5-8.7,8.1-14.6,8.1l-34.8,10.7c-25.3,7.8-52.3,7.9-77.7,0.3l-35.7-10.7c-6.8,0-13-3.9-15.8-10.1l0,0
	c-1.3-2.9-1.8-6.1-1.5-9.3L316,343.9c0.2-1.4,0.2-2.7,0-4.1l-5.8-47.3c-0.4-3.1-4-4.6-6.4-2.6c-13.8,11.5-50.4,45.6-63.4,56.1
	c-6.6,5.4-18.8,15.2-27.2,13.5c-17.1-1.5-25.2-17.8-27.5-25c-3.4-11-2.8-34.6-0.7-45.9c2.6-14,36.4-21.7,51.7-24.6
	c4.8-0.9,9-3.7,11.6-7.9c7.6-12.2,24.2-37.4,34.3-43.1c31.5-17.6,70.7-33.3,76.2-37.7s8.2-16.3,9.3-22.4c0.4-2.2,2.3-3.8,4.5-3.8
	L418.7,149.3z"/>
<polygon class="st9" points="508.3,433 517.6,417.2 538,439.1 526.8,451.8 "/>
<path class="st0" d="M229.4,190.6l1.6-17.5l-13.9,0.9l-12.8-6.2l2.3,9.2c0.1,1.2,0.1,2.5,0,3.7l-0.2,17.3L229.4,190.6z"/>
<path class="st0" d="M230,176.2c0.9-0.2,0.8-4.2,1.4-4.8c3-3,12.5-12.3,13.4-14.6c1-2.8,3.9-15.3,5-17.3c1.2-2.1,11-12,9.8-12.9
	c-0.7-0.6-2.8-1.7-4.4-2.8c-1.6-0.9-3.5-0.8-4.9,0.4l-6.2,4.8c-0.5,0.4-1,1-1.2,1.5l-2.4,5c-1.1,2.2-4.3,1.7-4.7-0.7l-2.5-14.6
	c0-0.2-0.1-0.5,0-0.7c0-3.4-9.2-1.8-9.2-1.8c-0.1-0.1-6.3,1.5-8.6,2.1c-0.6,0.2-1.1,0.4-1.6,0.5l-5,1.8c-4.3,1.5-8,4.3-10.4,8
	c-1.1,1.7-1.8,3.4-1.2,4.5c0.1,0.3,0.3,0.6,0.3,1l6.9,33.1c0.2,1,0.8,1.8,1.4,2.5l4,3.3c1,0.8,2.3,1.1,3.5,0.9L230,176.2z"/>
<g>
	<path class="st10" d="M219.2,161.5l3.7,1.3c2.9,1.1,6.1-0.3,7.3-3.3l17.3-46.2c1.1-2.9-0.3-6.1-3.3-7.3l-3.7-1.3
		c-2.9-1.1-6.1,0.3-7.3,3.3l-17.3,46.2C214.8,157.2,216.2,160.5,219.2,161.5z"/>
	<path class="st11" d="M220.7,101.3l-3.8,10c-1.5,4.2-1.1,8.9,1.3,12.6l8.2,12.7"/>
	<circle class="st10" cx="161.6" cy="66.9" r="15"/>
	<path class="st9" d="M268.8,86l0.2,2.4c0.8,11.6-3.9,23.1-12.5,30.9l0,0c-1.3,1.2-3.2,1.5-4.8,0.6c-10.6-5.5-52.5-24.6-101.1-13.5
		c-5.3,1.1,27.9-87.5,29.1-77.5C209.9,65,254.1,79,265.8,82.2C267.4,82.7,268.6,84.2,268.8,86z"/>
</g>
<path class="st0" d="M201.3,135.1c0,0,4.4,15.6,7.7,16.4c3.3,0.8,23-3.2,25.1-8c2-4.8-0.6-24.2-0.6-24.2l0,0
	c-1.7-5.1-20,0.9-21.5,1.8L201.3,135.1z"/>
<path class="st9" d="M284.2,307.4l-38.5-47.5c0,0,20.6-32.1,22.4-32.1c1.1,0,33.3,64.4,33.3,64.4L284.2,307.4z"/>
<path class="st12" d="M353.9,178c0,0,25.7,122.4,41.4,126.1s39.8-127.4,39.8-127.4"/>
<g>
	<circle class="st13" cx="395.5" cy="312.8" r="8.6"/>
	<path class="st13" d="M390.7,315.9c0,0,5.8,5.1,6.2,8.7c0.1,0.9,0.1,1.5,0,1.9c0,0.3,0.2,0.5,0.5,0.5l6.7,0.1
		c0.3,0,0.6-0.2,0.6-0.5l-0.9-13.1"/>
</g>
<path class="st0" d="M217.7,354.8c17.7-2.3,21.5-25.6,22.4-34.1s-0.9-26.1-1.8-34.8c-2.3-22.1-10.5-88.8-7.1-110.3
	c2.4-15-25.8-4-25.8-4s1.4,17.9,0.3,28.6c-2.4,22.5-12.1,51.9-17.4,89.1c-1.4,9.8-0.7,29.8,1.4,39.3
	C195.6,355.2,212.6,355.5,217.7,354.8z"/>
</svg>
