<?xml version="1.0" encoding="utf-8"?>
<!-- Generator: Adobe Illustrator 26.0.2, SVG Export Plug-In . SVG Version: 6.00 Build 0)  -->
<svg version="1.1" id="Layer_1" xmlns="http://www.w3.org/2000/svg" xmlns:xlink="http://www.w3.org/1999/xlink" x="0px" y="0px"
	 viewBox="0 0 588 387" style="enable-background:new 0 0 588 387;" xml:space="preserve">
<style type="text/css">
	.st0{fill:#FA9980;}
	.st1{fill:#BC8175;}
	.st2{fill:#473415;}
	.st3{fill:#D3D3D3;}
	.st4{fill:#262521;}
	.st5{fill:#D34B1C;}
</style>
<path class="st0" d="M439.1,143.4c9.8,29.6,40.1,49,40.1,49s54.5,44.1,72.3,59c8.4,7.1,25.7,22,44,1.5l0,0c15-17,1.1-34.3-6.3-41.8
	c-15.1-15.3-48.8-43.2-60.8-60.7c-9-13-17.8-36.6-42.9-46.4c0,0-19.8-10.3-36.5,4.7l-0.7,0.6C438.7,117.8,435.2,131.2,439.1,143.4
	L439.1,143.4z"/>
<path class="st0" d="M65.5,327.8c-0.4-0.6-1-0.9-1.6-1.2c-4.2-1.6-20.2-7.4-23.2-7.3c-3.4,0.2-17.8,3.6-20.3,3.3
	c-2.6-0.3-18.7-6-18.9-3.9c-0.1,1.3-0.1,5.1-0.1,7.5c0,1.3,0.8,2.7,2,3.3l10.1,4.9c0.4,0.2,1,0.3,1.6,0.3l5.3,0.1
	c3.5,0.1,4.9,4.5,2.1,6.6l-11.9,9c-0.2,0.1-0.3,0.2-0.6,0.3c-3.1,1.6-30.6,15.5-32.5,16c-1.1,0.2-0.7,3.3,0,6
	c0.6,2.1,2.9,3.4,4.9,2.5L14,361.8c0.6-0.2,1,0.6,0.6,0.9l-30.2,23.8c-1.6,1.2-1.9,3.5-0.7,5.2l2.2,2.8c1.2,1.6,3.6,1.9,5.2,0.6
	l31.1-24.8c0.4-0.3,1,0.2,0.6,0.7l-26.5,29.6c-1.6,1.8-1.1,4.6,1.1,5.7l3.1,1.6c1.5,0.7,3.1,0.4,4.3-0.8l26.6-27.8
	c0.3-0.3,0.9,0.1,0.7,0.4l-12.9,23c-1.1,1.9-0.2,4.4,1.9,5.2c2.6,1,5.7,1.8,6.4,0.6c1.1-2.1,16.6-23.2,18.9-26.2
	c0.2-0.2,0.3-0.4,0.6-0.7L76.7,357c0.7-0.6,1.1-1.3,1.2-2.2l1.1-7.4c0.1-1-0.1-2-0.7-2.8L65.5,327.8z"/>
<polygon points="185.1,403.8 185.2,403.8 185.1,403.7 "/>
<polygon points="185.2,403.8 185.3,403.8 185.3,403.7 "/>
<polygon points="185.1,403.8 185.2,403.8 185.1,403.7 "/>
<polygon points="185.2,403.8 185.3,403.8 185.3,403.7 "/>
<path class="st0" d="M506.1,138.9c-0.7,43.2-29.5,37.3-41.5,47.6c-14.2,12.1-9.3,56.2-19.3,71.9c-2.8,4.3-12.8,11.4-17.8,10.2
	c-14.1-3.3-27-34.5-39.1-42.4c-7.1-4.6-26.5-4-33.9,0c-12.6,7-25.1,39.2-39.1,42.4c-4.9,1.1-15.1-5.8-17.8-10.2
	c-10-15.7-5.2-59.8-19.3-71.9c-11.9-10.2-40.7-4.4-41.5-47.6c-0.4-29.9,39.3-41.9,39.3-41.9l45.2-22.4c2.9-1.5,5.5-3.3,7.9-5.4
	c0.9-0.8,1.8-1.7,2.6-2.6l0.7-0.8v-0.2c4.5-5.3,7.3-11.7,8.1-18.4c0.2-1.6,0.3-3.1,0.2-4.7v-3.1v-5.1h60.6l0.1,5.6v1.7v3.6
	c0,0.3,0,0.8,0,1.1l0,0c0,0.7,0.1,1.5,0.1,2.1c1.3,10.8,8,20.1,17.8,25l45.5,22.6c1.1,0.6,2.4,1.1,3.6,1.5
	C476,100.1,506.6,112.6,506.1,138.9z"/>
<path class="st0" d="M402.4,88.5L371.4,125l-16.6-19.9l-13.9-16.6l0.8-46.8v-2.5l0.1-5.1h59.6v0.2l0.1,5.3l0,0v1.8l0.1,4.7v1.5
	l0.1,7.6L402.4,88.5z"/>
<path class="st1" d="M402.9,53.9l-1.1,1.3c-5.7,7.1-32.4,39.3-47,49.8c-3.6,2.6-6.4,3.8-8.1,3c-7.6-3.7-16.7-39.5-16.7-39.5
	s0.1,0,0.1-0.1c0.7-0.7,1.3-1.3,1.9-2.1c0.3-0.4,0.8-0.9,1.2-1.5l0.1-0.1c3.7-5.1,6.2-10.9,7.4-17.1c0-0.2,0.1-0.4,0.1-0.7
	c0.3-1.6,0.6-3.4,0.8-5.4c0.1-0.8,0.1-1.6,0.2-2.5c0.1-1.6,0.2-3.3,0.3-5.1h59.1v0.2v4.8v7.5l0.1,0.9l0.1,0.8l1,5.2L402.9,53.9z"/>
<path class="st0" d="M584.8,213.1c-19.7-10.6-38.1,8.5-44.4,15.9c-6.3,7.3-15.3,25.2-19.8,33.9c-11.4,22.4-27.7,61.5-39.1,83.2
	c-7.5,14.3-11.9,21.6-4,28.9c7.1,6.5,18.8-4.2,23.4-8.3c19-17.1,56.5-49.9,73.4-71c7-8.7,19.3-27.4,23-37.9
	C607.9,228.5,590.5,216.1,584.8,213.1z"/>
<path class="st0" d="M241.4,260.2c-10.9-16.9-36.4-9.3-45.5-6.2c-9.1,3.1-26.1,13.6-34.4,18.8c-21.2,13-84.9,53.8-108.4,60.8
	c-16.4,4.9,8.4,28.1,8.4,28.1s17.4-10.1,28.9-14.2c24.1-8.5,58.6-12.9,98.8-25.6c10.6-3.4,30.6-13.7,39.2-20.6
	C252.5,282.4,244.5,265.1,241.4,260.2z"/>
<path class="st0" d="M305.6,134.9c3.1,30.9-16.7,61.2-16.7,61.2s-31.8,62.4-42.2,83.3c-4.8,9.9-14.6,30.6-39.6,19.2l0,0
	c-20.6-9.4-15-30.8-11.2-40.7c7.5-20.1,27.1-59.2,30.9-80.2c2.9-15.5,1.3-40.7,20.3-59.9c0,0,13.8-17.4,35.3-10.6l0.9,0.2
	C295.6,111.3,304.3,122.1,305.6,134.9L305.6,134.9z"/>
<polygon points="190.7,401.8 190.8,401.7 190.7,401.7 "/>
<polygon points="190.8,401.7 190.9,401.8 190.9,401.7 "/>
<polygon points="190.7,401.8 190.8,401.7 190.7,401.7 "/>
<polygon points="190.8,401.7 190.9,401.8 190.9,401.7 "/>
<path d="M185.4,403.3h0.1H185.4z"/>
<polygon points="185.5,403.3 185.6,403.3 185.6,403.3 "/>
<path d="M185.4,403.3h0.1H185.4z"/>
<polygon points="185.5,403.3 185.6,403.3 185.6,403.3 "/>
<polygon class="st2" points="282.6,371.6 284.3,346.3 458.6,346.3 460.8,368.2 "/>
<path class="st3" d="M219.5,209.2l48.6,26.9c0.7,0.3,1.5,0.1,1.8-0.6l12-24.4c1.1-2.1,4.4-1.3,4.3,1.1l-2.4,67.3l-3,55.8l-3.6,39.3
	c-0.7,7.2,4.7,13.6,11.9,14.3c0.2,0,0.3,0,0.6,0l47.3,16.4c16.1,5.6,33.4,6.5,49.9,2.8l54.7-12.4l0,0c10,0.4,18.5-7.3,19-17.3
	c0-0.4,0-0.8,0-1.2l-1.1-56.9l-0.3-47.4v-0.1l5.1-81.1c0.1-1.1,1.5-1.8,2.4-1l38,33.3c0.8,0.7,2,0.6,2.6-0.2l41.3-50.7
	c2-2.6,2-6.2,0-8.7l-39.2-47.8c-7-8.5-16.1-15.2-26.3-19.3l-48.8-19.6l0,0l-20.9,6.3c-25.3,7.6-52.3,7-77.1-2l-18.4-6.6l0,0
	l-53.1,24.6c-7.4,3.5-14.1,8.5-19.4,14.8l0,0c-8.2,9.7-13.9,21.1-16.9,33.4l-12.4,53.4C215.4,204.7,216.8,207.8,219.5,209.2z"/>
<path class="st0" d="M481.5,371.3c1.8,3.8,2.1,10.5-5.4,16.1c0,0-22.5,20-31.8,23.5c-4.2,1.6-15.2,5.2-17.6,1.5
	c-7-10.3-9.4-33.6-4.9-47.9c1.3-4.3,11.6-7.6,16.1-8c4.9-0.3,14.1,4.7,19,5.5c2.7,0.3,5.4,0.6,8.1,0.6
	C471.6,363,479,366.1,481.5,371.3z"/>
<polygon class="st0" points="474,357.1 466.9,362.9 468.8,377.3 471.6,391.4 478.7,385.5 490.9,379 "/>
<path class="st3" d="M470.8,358.4l7.2-7.6c0.3-0.3,0.8-0.3,1.1,0l18.9,21c0.3,0.6,0.2,1.1-0.2,1.6l-9,7.5c-0.3,0.3-0.9,0.2-1.2-0.1
	l-16.6-20.2C470.3,359.9,470.3,359,470.8,358.4z"/>
<path class="st4" d="M479.9,376.3l-7.3-9.2c-1.6-2-1.2-5.1,0.8-6.6l9.2-7.3c2-1.6,5.1-1.2,6.6,0.8l7.3,9.2c1.6,2,1.2,5.1-0.8,6.6
	l-9.2,7.3C484.5,378.7,481.5,378.3,479.9,376.3z"/>
<path class="st3" d="M500.7,131.1c-6-9.4-14.6-16.9-25-21.4l-39.2-30.9c-15.2-6.5-26.6-6-31.6-21.5c0,0-28.2,10-28.4,11.8l-4,10.6
	l-3-10.5c-1.5-5.8-32.7-9.8-32.7-9.8s-17.9,15.9-32.6,22.3l-40.5,30.5c-10.8,4.6-19.7,17.5-25.6,27.5"/>
<g>
	<path class="st5" d="M339.3,61.8c0,0-5.7,2.9-8.2,9.4c-0.4,0.4-10.2,3.4-7,9.4c3.3,6.2,4.9,5.4,4.9,5.4s32.2,0.4,43.6,12.7
		c0.3,0,34.1-11.8,45.1-10.2c0.3,0.1,3.4-6.7,0-8.3s0.9-6.2-1.3-9.8c-2-3.6-3.5-7.4-7-5.7c-3.5,1.6-37,13.6-37,23.8
		C372.9,88.5,363.6,72.9,339.3,61.8z"/>
	<path class="st5" d="M365,83.7c0,0,9.9-6.2,16.4,0c1.1,8.7,3.3,14.3,0,15.2c-3.3,0.9-9.4,4-12,2.5C367.1,99.6,355.9,95.1,365,83.7z
		"/>
	<path class="st5" d="M364.7,93.7l-12.8,16.5c-0.4,0.6-0.6,1.1-0.4,1.9l6.5,27c0.4,2,3.3,2.4,4,0.4l9.9-21.5
		c0.1-0.4,0.3-0.9,0.1-1.3l-3.6-22.1C368.4,92.8,365.8,92.2,364.7,93.7z"/>
	<path class="st5" d="M381.3,88.2l20.9,11.4c0.7,0.4,1.3,1.1,1.3,2l2.6,34.2c0.1,2.4-2.6,3.8-4.4,2l-15.7-14.6
		c-0.4-0.3-0.6-0.7-0.7-1.3l-7.6-30.9C377.2,88.8,379.4,87,381.3,88.2z"/>
</g>
<g>
	<g>
		<path class="st5" d="M377.6,84.2c-11.7,5.4-25.4,11.5-37.2,16.6c-7.4,2.7-12.5,7.3-12.6,14.8l0.1,5.4c0.1,7.1,0.1,14.4,0.1,21.5
			c-1.1,43.1,0.4,86,1.5,128.9c0.6,42.8,1.6,86.8-0.4,128.9c-3.7-71.6-2.2-143.2-2.5-214.9c-0.4-20.7-1.6-43.8-1.6-64.4v-5.4
			c-0.1-5.8,3.5-11.5,9-14.6c3-1.7,7.8-3.1,10.9-4.6c5.4-2.1,16.3-6.4,21.8-8.5c3.6-1.5,7.3-2.8,10.9-4.2V84.2L377.6,84.2z"/>
	</g>
	<ellipse class="st5" cx="344" cy="126.1" rx="3.8" ry="3.5"/>
	<ellipse class="st5" cx="345.6" cy="194.9" rx="3.8" ry="3.5"/>
	<ellipse class="st5" cx="346.5" cy="327.4" rx="3.8" ry="3.5"/>
	<ellipse class="st5" cx="346.5" cy="263.7" rx="3.8" ry="3.5"/>
</g>
</svg>
