<?xml version="1.0" encoding="utf-8"?>
<!-- Generator: Adobe Illustrator 26.0.2, SVG Export Plug-In . SVG Version: 6.00 Build 0)  -->
<svg version="1.1" id="Calque_1" xmlns="http://www.w3.org/2000/svg" xmlns:xlink="http://www.w3.org/1999/xlink" x="0px" y="0px"
	 viewBox="0 0 588 387" style="enable-background:new 0 0 588 387;" xml:space="preserve">
<style type="text/css">
	.st0{fill:#FA9980;}
	.st1{fill:#295446;}
	.st2{fill:#BF867B;}
	.st3{fill:none;stroke:#000000;stroke-width:3;stroke-miterlimit:10;}
	.st4{fill:#473415;}
	.st5{fill:#472E1D;}
	.st6{fill:#9C3A26;}
	.st7{fill:#873022;}
	.st8{fill:#AFAFAF;}
	.st9{fill:none;}
	.st10{fill:#898989;}
</style>
<path class="st0" d="M116.1,243.8c19.9-0.1,26.1-23,27.8-31.4s1.1-26.2,0.9-34.9c-0.7-22.3-4.8-59.8-5.1-81.6
	c-0.2-14.4,0-21.9-9.2-24.2c-8.4-2.1-12.9,11.3-14.7,16.5c-7.5,21.4-22.7,63.2-26.8,86.8c-1.7,9.7-3.3,29.7-1.8,39.4
	C91.5,241.6,110.3,243.8,116.1,243.8z"/>
<path class="st0" d="M125.2,83.4c-3.3-1.2-7.6-5-7.2-13.4c0,0-0.9-26.9,1.6-35c1.1-3.6,4.5-13,8.1-12.4c10,1.8,25.7,14.3,32.3,25.9
	c2,3.5-1.2,12.2-3.3,15.3c-2.3,3.4-10.2,6.3-13.1,8.9c-1.6,1.5-3.1,3.2-4.5,4.9C135.5,82,129.8,85,125.2,83.4z"/>
<path class="st0" d="M494.2,180.5c-18.5-7.2-32.7,11.8-37.4,19s-10.7,23.9-13.6,32.1c-7.5,21-17.5,57.3-25.2,77.8
	c-5,13.5-8.1,20.4-0.3,25.9c7,5,16.1-5.8,19.7-9.9c14.8-17.2,44.3-50.4,56.8-70.9c5.1-8.4,14-26.4,16.1-36
	C516.3,191.6,499.6,182.6,494.2,180.5z"/>
<path class="st0" d="M420.9,331.8c2,3.2,3.1,9-3,14.8c0,0-17.6,20.2-25.4,24.3c-3.5,1.8-12.8,6.2-15.4,3.3
	c-7.3-8.4-12.1-28.6-9.7-41.7c0.7-3.9,9.4-8,13.3-8.8c4.3-0.8,13,2.6,17.3,2.8c2.4,0,4.8-0.1,7.2-0.4
	C411.1,325.5,418.1,327.4,420.9,331.8z"/>
<polygon class="st0" points="411.1,319.3 407,326 410.3,338.5 414.3,350.6 419.9,344.6 430,337.5 "/>
<path class="st1" d="M409.8,321.2l5.3-9c1.3-2.1,4.2-2.5,5.9-0.6l14.8,15.8c1.3,1.4,1.3,3.6,0.1,5l-6.3,7.2
	c-1.4,1.6-3.9,1.7-5.5,0.1l-13.7-14C409.2,324.5,409,322.7,409.8,321.2z"/>
<path class="st0" d="M415.8,128.6c-0.6,38.4-26.2,33.2-36.9,42.3c-12.6,10.8-8.3,50-17.2,64c-2.5,3.8-11.4,10.1-15.8,9.1
	c-12.5-2.9-24-30.7-34.8-37.7c-6.3-4.1-23.6-3.6-30.2,0c-11.2,6.2-22.3,34.9-34.8,37.7c-4.4,1-13.4-5.2-15.8-9.1
	c-8.9-14-4.6-53.2-17.2-64c-10.6-9.1-36.2-3.9-36.9-42.3c-0.4-26.6,35-37.3,35-37.3l40.1-19.9c2.6-1.3,5-2.9,7.1-4.8
	c0.8-0.7,1.6-1.5,2.3-2.3c0.2-0.2,0.4-0.5,0.6-0.7c4-4.7,6.5-10.4,7.2-16.4c0.2-1.4,0.3-2.8,0.2-4.2l0.4-2.8l0.4-3l0.2-1.1h52.6
	l0.1,4.6V42v3.2c0,0.3,0,0.7,0,1l0,0c0,0.6,0.1,1.3,0.2,1.9c0.2,1.5,0.5,3.1,0.9,4.6c2.2,7.7,7.6,14,14.7,17.6L379,90.4
	c1,0.5,2.1,1,3.2,1.3C389,94.1,416.2,105.3,415.8,128.6z"/>
<path class="st2" d="M324,53l-1,1.2c-5.1,6.3-28.8,35.1-41.8,44.3c-3.2,2.3-5.7,3.4-7.2,2.7c-6.8-3.3-14.8-35.1-14.8-35.1l0.1-0.1
	c0.6-0.6,1.2-1.2,1.7-1.9c0.3-0.4,0.7-0.8,1-1.3v-0.1c3.3-4.5,5.5-9.7,6.7-15.2c0-0.2,0.1-0.4,0.1-0.6c0.4-2.3,0.7-4.7,0.9-7
	c0.1-1,0.1-2,0.2-3l0.1-1.1h52.7v4.2v6.7l0.1,0.8l0.1,0.7l0.9,4.6L324,53z"/>
<path class="st3" d="M358.4,135.5c11.9,25,40.9,38.8,40.9,38.8s53,32.8,70.4,44c8.2,5.3,25.2,16.6,39-3.6l0,0
	c11.3-16.6-2.8-30.4-10.2-36.2c-15-11.8-47.9-32.6-60.5-46.7c-9.4-10.5-19.8-30.3-43.1-36.2c0,0-18.6-6.9-31.8,8.3l-0.5,0.6
	C355.2,113,353.5,125.2,358.4,135.5L358.4,135.5z"/>
<path class="st3" d="M235.8,135.8c-8.5,26.3-35.5,43.8-35.5,43.8s-48.2,39.4-64.1,52.8c-7.5,6.3-22.8,19.7-39.1,1.5l0,0
	c-13.4-15-1.2-30.5,5.4-37.2c13.3-13.7,43.2-38.6,53.9-54.2c7.9-11.6,15.6-32.7,38-41.5c0,0,17.5-9.3,32.6,4l0.6,0.5
	C236.1,113,239.3,124.9,235.8,135.8z"/>
<polygon class="st4" points="217.9,340.4 219.4,317.9 374.4,317.9 376.4,337.4 "/>
<circle class="st5" cx="365.1" cy="311.2" r="4.7"/>
<path class="st6" d="M381.1,296.1l7.7-49.9c0.1-0.4,0.1-0.9,0.1-1.3l0.9-57.6c0-2.6,2.9-4.3,5.2-3l45.6,24.6c4,2.2,5.9,6.9,4.5,11.2
	l-22.3,70c-0.3,0.9,0.1,1.8,1,2.2l33.9,15.3c0.8,0.3,1.7,0.1,2.2-0.6l46.4-62.9c0.7-0.9,1.2-2,1.5-3.1l12-43.2
	c1-3.4-0.1-7.1-2.7-9.5l-91.8-82.7c-9.1-8.2-19.9-14.2-31.6-17.6l-40.9-12c-2.4-0.7-5-0.4-7.1,0.7l-43.2,23.1
	c-2.9,1.5-6.3,1.5-9.1-0.1L249.5,75c-2.7-1.5-5.9-1.6-8.6-0.3L201,93.2c-8.7,4-16.7,9.6-23.5,16.4l-12,12.1
	c-0.2,0.2-0.4,0.4-0.6,0.7l-20.8,27.9l0.4-23.6c0.2-2-1.5-3-3.3-2.4l-41.4,10.5c-3.3,1.2-5.7,4.1-6.3,7.6l-11.9,79.2
	c-0.5,3.2,0.7,6.4,3.1,8.5l21.3,18.8c3.2,2.8,7.8,3.2,11.4,0.9l84-53.7c2.2-1.4,5.1,0.1,5.2,2.7l2.3,59.4l2.5,31.5"/>
<path class="st1" d="M211.4,289.6l1.2,14.5c0,0.2,0,0.4,0,0.6l-13,91.1c0.2,9.2,7,16.7,15.8,18c3.3,0.5,6.5,1,9.7,1.7l40.6,6.2
	c24.9,5.8,50.9,5.1,75.5-2.1l39.5-8.9c11.3-0.3,19.7-10.5,17.9-21.6l-17.4-90c-0.2-1-0.2-2,0-3"/>
<path class="st1" d="M219.2,76.6l2.6-1.1c3.8-1.6,8.1,0.4,9.2,4l20.7,64.9c0.4,1.5-0.4,3.1-2,3.6l-6.5,2.1c-1.7,0.5-3.4-0.3-4-1.9
	l-23.7-64C214.2,81.4,215.9,78,219.2,76.6z"/>
<path class="st1" d="M389.2,82.6l-1.1-0.4c-4.1-1.8-8.9,0.4-10.4,4.6l-20.1,64.4c-0.6,1.9,0.4,3.9,2.4,4.6l5.3,1.8
	c2,0.7,4.3-0.3,5-2.3l23.1-63.6C394.6,88,392.7,84.1,389.2,82.6z"/>
<circle class="st1" cx="249.3" cy="156.6" r="5.3"/>
<circle class="st1" cx="359.8" cy="164" r="5.3"/>
<path class="st1" d="M238.9,171.6l128,6.7c3.5,0.1,6.5,2.7,7.5,6.1l8.9,34.8c0.1,0.7,0.3,1.3,0.3,2v67.1h-174l2.3-69.1
	c0-1.1,0.3-2.1,0.7-3.1l18.3-39.7C232.5,173.3,235.5,171.5,238.9,171.6z"/>
<path class="st1" d="M254.2,175.3l-9.5-0.6c-2.1-0.1-3.7-2-3.5-4.1l0.1-3.1c0.1-2.1,2-3.7,4.1-3.5l9.5,0.6c2.1,0.1,3.7,2,3.5,4.1
	l-0.1,3.1C258.2,173.7,256.4,175.3,254.2,175.3z"/>
<path class="st1" d="M360.8,185.4l-10.6-1.6c-2.3-0.3-4-2.4-3.5-4.8l0.7-5c0.3-2.3,2.4-4,4.8-3.5l10.6,1.6c2.3,0.3,4,2.4,3.5,4.8
	l-0.7,5C365.2,184.1,363.1,185.8,360.8,185.4z"/>
<path class="st6" d="M253.1,200.6l-2.7,31.9l35.3,10.8c9.4,2.8,19.4,3.5,29.1,2.1l36-5.5l1.4-32.5L253.1,200.6z"/>
<path class="st7" d="M253.1,200.3l-3.3,15.8l48.8,8.9c2,0.4,4.1,0.4,6.1,0.3l48.4-5v-16.6L253.1,200.3z"/>
<path class="st7" d="M382.2,300.9H210.9c-1.7,0-3-1.3-3-3v-16.6c0-1.7,1.3-3,3-3h171.3c1.7,0,3,1.3,3,3v16.6
	C385.2,299.6,383.8,300.9,382.2,300.9z"/>
<path class="st7" d="M204.5,293.5c0,0-20.8,58.2-15.4,63.8s59.2,11.7,63.9,8.1c4.7-3.6,10.7-67.7,10.7-67.7L204.5,293.5z"/>
<path class="st8" d="M230.7,318.4l-3.6,0.5c-1.1,0.1-2.1-0.6-2.2-1.7l-6.1-45.1c-0.1-1.1,0.6-2.1,1.7-2.2l3.6-0.5
	c1.1-0.1,2.1,0.6,2.2,1.7l6.1,45.1C232.6,317.2,231.8,318.2,230.7,318.4z"/>
<path class="st8" d="M234.9,318.8L234.9,318.8c-1.1,0-2-0.9-2-2v-35.6c0-1.1,0.9-2,2-2l0,0c1.1,0,2,0.9,2,2v35.6
	C236.8,317.9,236,318.8,234.9,318.8z"/>
<path class="st8" d="M240.5,318.6l-1.6-0.4c-1.1-0.3-1.7-1.3-1.5-2.4l5.8-24.3c0.3-1.1,1.3-1.7,2.4-1.5l1.6,0.4
	c1.1,0.3,1.7,1.3,1.5,2.4l-5.8,24.3C242.6,318.2,241.5,318.9,240.5,318.6z"/>
<path class="st6" d="M205,297.7c0,0-20.4,56.4-12.4,58.5s49.1,10.5,54.6,6.4c5.4-4.1,4.3-60.6,4.3-60.6L205,297.7z"/>
<path class="st0" d="M144.2,66.8l0.7,1.3c1.2,2.1,4.1,2.6,6,1.3L168.5,57c0.9-0.6,1.5-1.6,1.6-2.7l0,0c0.5-3.1-2.3-5.7-5.4-4.7
	l-3.9,1.2c-2.5,0.8-5.2-0.9-5.3-3.6l-0.3-3.2"/>
<path class="st9" d="M334.3,276.3c16.2,5.2,23.2,9.6,27,16.6c3.1,5.6,6,18.5,6.3,24.9c0.5,15.1-7.8,52.9-21.9,65.6
	c-14.4,12.9-84.8,12.9-99.2,0c-14.1-12.6-22.5-50.5-21.9-65.6c0.2-6.4,3.2-19.3,6.3-24.9c3.8-6.9,10.9-11.3,27-16.6
	c18.5-6,37.3-5,37.3-5S315.8,270.3,334.3,276.3z"/>
<polygon class="st0" points="139.4,86.7 140.1,74.6 128,71.4 117.9,64.7 117.9,72.9 114.6,91.5 "/>
<path class="st10" d="M81.5,20.9L173.4,57c0.8,0.3,1.6,0.3,2.4,0.2l17-4c1-0.2,2-0.1,2.8,0.4l16.8,9c1.1,0.6,1.9,1.7,2.1,3.1
	l1.8,13.9c0.1,1.3-0.3,2.7-1.3,3.5l-6.2,5.5c-2.2,1.9-5.7,0.9-6.4-1.9l0,0c-0.5-1.4-0.1-2.9,0.9-3.9l2.6-2.8c0.8-0.9,1.2-2.1,1-3.4
	l-0.8-5.6c-0.1-1.1-0.8-2.1-1.7-2.7l-9-6.3c-0.9-0.7-2-0.9-3.1-0.6l-13,2.6c-0.1,0-0.3,0.1-0.6,0.1l-1,0c-3.5,0.2-5.2,4.7-2.3,7.1
	l3.3,2.8c0.7,0.6,1.2,1.5,1.3,2.4l0.8,4.6c0.7,3.7-3.9,6.2-6.6,3.6l-11.9-10.4c-0.7-0.6-1.6-0.9-2.5-1.1l-89.6-3.5
	c-2.3,0-4.1-2.1-3.8-4.4l0.1-0.9c0.3-2.1,2.1-3.7,4.2-3.6l78.6,4.6c1,0.1,1.9-0.3,2.7-0.8l0.7-0.5c2.6-2,2-5.9-1.1-7L77.4,30.5
	c-2.5-0.9-3.4-3.7-2.1-5.8l1.2-2.1C77.6,20.9,79.6,20.1,81.5,20.9z"/>
<path class="st0" d="M129.6,27.3c0.2,0.2-3.8,18.7-7.7,25.2c-0.8,1.4-0.2,3.3,1.4,3.9l0.4,0.1c1.1,0.4,2.4-0.1,3-1l4.7-1.1
	c-0.7,1.4,0.1,3.1,1.6,3.6l0,0c1.2,0.5,2.4-0.1,3-1.1l2.9-1.4c-0.5,1.4,0.2,3,1.6,3.5l1,0.3c1.3,0.5,2.6-0.1,3.2-1.3l4.1-1.6
	c-0.4,1.4,0.4,2.8,1.7,3.3l1.9,0.7c1.4,0.5,3.2-0.5,3.6-1.8l1.7-2.8c3.9-6.4,1.4-14.8-5.5-17.9L129.6,27.3z"/>
</svg>
