<?xml version="1.0" encoding="utf-8"?>
<!-- Generator: Adobe Illustrator 26.0.2, SVG Export Plug-In . SVG Version: 6.00 Build 0)  -->
<svg version="1.1" id="Layer_1" xmlns="http://www.w3.org/2000/svg" xmlns:xlink="http://www.w3.org/1999/xlink" x="0px" y="0px"
	 viewBox="0 0 788 1005" style="enable-background:new 0 0 788 1005;" xml:space="preserve">
<style type="text/css">
	.st0{fill:#FA9980;}
	.st1{fill:#A05344;}
	.st2{fill:none;stroke:#000000;stroke-width:3;stroke-miterlimit:10;}
	.st3{fill:#473415;}
	.st4{fill:#DB634B;}
	.st5{fill:#5B4E4C;}
	.st6{fill-rule:evenodd;clip-rule:evenodd;fill:#EE7675;}
	.st7{fill:#E9D0B7;}
	.st8{fill:#007270;}
</style>
<path class="st0" d="M125.8,409.6c-0.4-0.5-0.9-0.8-1.4-1.1c-3.7-1.4-18-6.6-20.6-6.5c-3,0.2-15.7,3.2-18.2,2.9s-16.6-5.3-16.8-3.5
	c-0.1,1.2-0.1,4.5-0.1,6.7c0,1.3,0.7,2.4,1.9,3l8.9,4.4c0.4,0.2,0.9,0.3,1.4,0.3l4.4,0.1c3.2,0.1,4.5,4.1,1.9,6l-10.3,7.8
	c-0.2,0.1-0.3,0.2-0.5,0.3c-2.8,1.4-27.2,13.7-28.9,14.1c-1,0.2-0.6,2.8,0,5.1c0.5,2,2.7,3.1,4.5,2.3l26.4-11.3
	c0.7-0.3,1.3,0.7,0.7,1.2l-25.6,20.1c-1.4,1.1-1.7,3.2-0.6,4.7l1.9,2.4c1.1,1.4,3.2,1.7,4.7,0.6l25.5-20c0.7-0.5,1.5,0.4,0.9,1
	L64.4,474c-1.5,1.6-1,4.2,1,5.2l2.7,1.3c1.3,0.6,2.9,0.4,3.9-0.7l21.8-22.8c0.6-0.6,1.5,0.1,1.1,0.8L84.8,476c-1,1.8-0.2,4,1.7,4.7
	c2.3,0.9,5,1.6,5.6,0.5c1-1.9,14.8-20.6,16.8-23.3c0.2-0.2,0.3-0.4,0.6-0.6l26.5-21.8c0.6-0.5,1-1.3,1.2-2.1l1-6.5
	c0.1-0.9-0.1-1.8-0.7-2.6L125.8,409.6z"/>
<polygon points="231.5,477.2 231.6,477.2 231.5,477.1 "/>
<polygon points="231.6,477.2 231.7,477.2 231.7,477.1 "/>
<polygon points="231.5,477.2 231.6,477.2 231.5,477.1 "/>
<polygon points="231.6,477.2 231.7,477.2 231.7,477.1 "/>
<path class="st0" d="M517.1,241.5c-0.6,38.4-26.2,33.2-36.9,42.3c-12.6,10.8-8.3,50-17.2,64c-2.5,3.8-11.4,10.1-15.8,9.1
	c-12.5-2.9-24-30.7-34.8-37.7c-6.3-4.1-23.6-3.6-30.2,0c-11.3,6.2-22.3,34.9-34.8,37.7c-4.4,1-13.4-5.2-15.8-9.1
	c-8.9-14-4.6-53.2-17.2-64c-10.6-9.1-36.2-3.9-36.9-42.3c-0.4-26.6,35-37.3,35-37.3l40.1-19.9c2.6-1.3,5-2.9,7.1-4.8
	c0.8-0.7,1.6-1.5,2.3-2.3l0.6-0.7l0-0.1c3.9-4.7,6.5-10.4,7.2-16.4c0.2-1.4,0.3-2.8,0.2-4.2v-2.8v-4.5H424l0.1,5v1.5v3.2
	c0,0.3,0,0.7,0,1l0,0c0,0.6,0.1,1.3,0.2,1.9c0.2,1.5,0.5,3.1,0.9,4.6c2.2,7.7,7.6,14,14.7,17.6l40.5,20.1c1,0.5,2.1,1,3.2,1.3
	C490.2,207,517.5,218.1,517.1,241.5z"/>
<path class="st0" d="M424.7,196.7l-27.5,32.5l-14.8-17.7L370,196.7l0.7-41.6v-2.2l0.1-4.5h53v0.2l0.1,4.7l0,0v1.6l0.1,4.2l0,0v1.3
	l0.1,6.8L424.7,196.7z"/>
<path class="st1" d="M425.2,165.9l-1,1.2c-5.2,6.3-28.8,35-41.8,44.3c-3.2,2.3-5.7,3.4-7.2,2.7c-6.8-3.3-14.8-35.1-14.8-35.1
	l0.1-0.1c0.6-0.6,1.2-1.2,1.7-1.9c0.3-0.4,0.7-0.8,1-1.3l0.1-0.1c3.3-4.5,5.6-9.7,6.7-15.2c0-0.2,0.1-0.4,0.1-0.6
	c0.3-1.4,0.5-3,0.7-4.8c0.1-0.7,0.1-1.4,0.2-2.2c0.1-1.4,0.2-2.9,0.3-4.5h52.7v0.2v4.3v6.7l0.1,0.8l0.1,0.7l0.9,4.6L425.2,165.9z"/>
<path class="st0" d="M282.3,349.4c-9.7-15-32.4-8.3-40.5-5.5s-23.1,12.1-30.5,16.7c-18.9,11.6-75.5,47.9-96.4,54.1
	c-14.6,4.4,7.5,25,7.5,25s15.5-9,25.7-12.6c21.4-7.6,52.1-11.5,87.9-22.8c9.4-3,27.2-12.2,34.9-18.3
	C292.3,369.2,285.1,353.8,282.3,349.4z"/>
<path class="st2" d="M338.7,238c2.8,27.5-14.9,54.4-14.9,54.4s-28.3,55.5-37.4,74.1c-4.3,8.8-13,27.2-35.2,17.1l0,0
	c-18.3-8.4-13.3-27.4-10-36.2c6.7-17.9,24-52.8,27.5-71.3c2.6-13.8,1.2-36.2,18.1-53.3c0,0,12.3-15.6,31.4-9.4l0.8,0.2
	C329.8,217.1,337.5,226.7,338.7,238z"/>
<path class="st0" d="M673.3,409.6c0.4-0.5,0.9-0.8,1.4-1.1c3.7-1.4,18-6.6,20.6-6.5c3,0.2,15.8,3.2,18.2,2.9s16.5-5.3,16.8-3.5
	c0.1,1.2,0.2,4.5,0.2,6.7c0,1.3-0.7,2.4-1.9,3l-8.9,4.4c-0.4,0.2-0.9,0.3-1.4,0.3l-4.4,0.1c-3.2,0.1-4.5,4.1-1.9,6l10.3,7.8
	c0.2,0.1,0.3,0.2,0.5,0.3c2.8,1.4,27.2,13.7,28.9,14.1c1,0.2,0.6,2.8,0,5.1c-0.5,2-2.7,3.1-4.5,2.3l-27.6-11.8
	c-0.6-0.2-1,0.5-0.5,0.9l26.6,20.9c1.4,1.1,1.7,3.2,0.6,4.7l-1.9,2.4c-1.1,1.4-3.2,1.7-4.7,0.6l-27-21.3c-0.5-0.4-1.1,0.3-0.7,0.7
	l22.7,25.3c1.5,1.6,1,4.2-1,5.2l-2.7,1.3c-1.3,0.6-2.9,0.4-3.9-0.7l-22.8-23.7c-0.4-0.4-1.1,0.1-0.8,0.6l10.8,19.3
	c1,1.8,0.2,4-1.7,4.7c-2.3,0.9-5,1.6-5.6,0.5c-1-1.9-14.8-20.6-16.8-23.3c-0.2-0.2-0.3-0.4-0.6-0.6l-26.5-21.8
	c-0.6-0.5-1-1.3-1.2-2.1l-1-6.5c-0.1-0.9,0.1-1.8,0.7-2.6L673.3,409.6z"/>
<path class="st0" d="M516.8,349.4c9.7-15,32.4-8.3,40.5-5.5s23.1,12.1,30.5,16.7c19,11.6,75.5,47.9,96.4,54.1
	c14.6,4.4-7.5,25-7.5,25s-15.5-9-25.7-12.6c-21.4-7.6-52.1-11.5-87.9-22.8c-9.4-3-27.2-12.2-34.9-18.3
	C506.8,369.2,513.9,353.8,516.8,349.4z"/>
<path class="st2" d="M458.8,238c-2.8,27.5,14.9,54.4,14.9,54.4s28.3,55.5,37.5,74.1c4.3,8.8,13,27.2,35.2,17.1l0,0
	c18.3-8.4,13.3-27.4,10-36.2c-6.7-17.9-24-52.8-27.5-71.3c-2.6-13.8-1.2-36.2-18.1-53.3c0,0-12.3-15.6-31.4-9.4l-0.8,0.2
	C467.7,217.1,459.9,226.7,458.8,238z"/>
<polygon class="st3" points="317.1,497.8 318.6,427.3 473.6,427.3 475.6,494.8 "/>
<path class="st4" d="M173.1,382.6l11.1,35.6c0.7,2.2,2.9,3.6,5.2,3.1l38.9-7.2c0.4-0.1,0.8-0.2,1.1-0.4l56.2-27
	c1.1-0.5,1.9-1.5,2.3-2.6l12.7-36.5c1.2-3.4,6.2-2.1,5.7,1.4l-2.9,18.2c0,0.1,0,0.2,0,0.3l-4.7,78.7c-0.9,8.6,0.2,33.3,3.2,41.5
	l6.3,17.2c0.7,1.8,2.3,3,4.3,3l38.8,6.8c26.5,4.6,53.5,5,80.1,1.2l45.3-6.5c2,0,3.7-1.2,4.4-3.1l4.8-13.9c3.2-9.4,3.9-35.5,1.9-45.2
	l-8.3-73.4c-0.1-0.3-0.1-0.5-0.1-0.8l-0.8-36.2c-0.1-4.9,6.6-6.5,8.7-2.1l29.6,61.9c0.4,0.9,1.2,1.6,2.1,2.1l8.2,4.2
	c0.1,0.1,0.2,0.1,0.4,0.2l84.6,34c2.2,0.9,4.7-0.1,5.8-2.2l20.6-40.9c1.1-2.1,0.3-4.7-1.7-6l-66.1-40.5c-0.9-0.5-1.5-1.3-1.9-2.3
	l-40.3-104.8c-5.2-13.5-15.5-24.4-28.7-30.4l-57.3-25.7c-1.6-0.7-3.4-0.5-4.7,0.6l-0.6,0.5c-26,20.5-62.6,20.6-88.7,0.3l0,0
	c-1.4-1.1-3.2-1.3-4.8-0.5l-47,22.4c-7,3.3-13.1,8.2-17.9,14.2l-2.7,3.3c-3.9,4.9-6.9,10.5-8.9,16.4l-32.2,96.7
	c-0.3,1-1,1.9-1.9,2.4l-58,36.7C173.3,378.5,172.5,380.6,173.1,382.6z"/>
<g>
	<line class="st5" x1="395" y1="200" x2="395" y2="518.1"/>
	<g>
		<g>
			<g>
				<g>
					<g>
						<polygon class="st6" points="407.7,226.6 407.7,213.3 395,200 382.2,213.3 382.2,226.6 395,213.3 						"/>
						<polygon class="st7" points="404.9,219.4 404.9,214.9 395,204.6 384.8,215.1 384.8,219.5 395,209.1 						"/>
						<polygon class="st8" points="382.2,200 382.2,213.3 395,200 						"/>
						<polygon class="st8" points="407.7,200 395,200 407.7,213.3 						"/>
						<polygon class="st8" points="395,213.3 382.2,226.6 407.7,226.6 						"/>
					</g>
				</g>
			</g>
			<g>
				<g>
					<g>
						<polygon class="st6" points="407.7,253.1 407.7,239.8 395,226.6 382.2,239.8 382.2,253.1 395,239.8 						"/>
						<polygon class="st7" points="404.9,245.9 404.9,241.4 395,231.1 384.8,241.6 384.8,246 395,235.6 						"/>
						<polygon class="st8" points="382.2,226.6 382.2,239.8 395,226.6 						"/>
						<polygon class="st8" points="407.7,226.6 395,226.6 407.7,239.8 						"/>
						<polygon class="st8" points="395,239.8 382.2,253.1 407.7,253.1 						"/>
					</g>
				</g>
			</g>
			<g>
				<g>
					<g>
						<polygon class="st6" points="407.7,279.6 407.7,266.3 395,253.1 382.2,266.3 382.2,279.6 395,266.3 						"/>
						<polygon class="st7" points="404.9,272.4 404.9,267.9 395,257.6 384.8,268.1 384.8,272.5 395,262.2 						"/>
						<polygon class="st8" points="382.2,253.1 382.2,266.3 395,253.1 						"/>
						<polygon class="st8" points="407.7,253.1 395,253.1 407.7,266.3 						"/>
						<polygon class="st8" points="395,266.3 382.2,279.6 407.7,279.6 						"/>
					</g>
				</g>
			</g>
			<g>
				<g>
					<g>
						<polygon class="st6" points="407.7,306.1 407.7,292.8 395,279.6 382.2,292.8 382.2,306.1 395,292.8 						"/>
						<polygon class="st7" points="404.9,299 404.9,294.4 395,284.1 384.8,294.6 384.8,299.1 395,288.7 						"/>
						<polygon class="st8" points="382.2,279.6 382.2,292.8 395,279.6 						"/>
						<polygon class="st8" points="407.7,279.6 395,279.6 407.7,292.8 						"/>
						<polygon class="st8" points="395,292.8 382.2,306.1 407.7,306.1 						"/>
					</g>
				</g>
			</g>
			<g>
				<g>
					<g>
						<polygon class="st6" points="407.7,332.6 407.7,319.3 395,306.1 382.2,319.3 382.2,332.6 395,319.3 						"/>
						<polygon class="st7" points="404.9,325.5 404.9,320.9 395,310.6 384.8,321.1 384.8,325.6 395,315.2 						"/>
						<polygon class="st8" points="382.2,306.1 382.2,319.3 395,306.1 						"/>
						<polygon class="st8" points="407.7,306.1 395,306.1 407.7,319.3 						"/>
						<polygon class="st8" points="395,319.3 382.2,332.6 407.7,332.6 						"/>
					</g>
				</g>
			</g>
			<g>
				<g>
					<g>
						<polygon class="st6" points="407.7,359.1 407.7,345.8 395,332.6 382.2,345.8 382.2,359.1 395,345.8 						"/>
						<polygon class="st7" points="404.9,352 404.9,347.4 395,337.1 384.8,347.6 384.8,352.1 395,341.7 						"/>
						<polygon class="st8" points="382.2,332.6 382.2,345.8 395,332.6 						"/>
						<polygon class="st8" points="407.7,332.6 395,332.6 407.7,345.8 						"/>
						<polygon class="st8" points="395,345.8 382.2,359.1 407.7,359.1 						"/>
					</g>
				</g>
			</g>
			<g>
				<g>
					<g>
						<polygon class="st6" points="407.7,385.6 407.7,372.3 395,359.1 382.2,372.3 382.2,385.6 395,372.3 						"/>
						<polygon class="st7" points="404.9,378.5 404.9,373.9 395,363.6 384.8,374.1 384.8,378.6 395,368.2 						"/>
						<polygon class="st8" points="382.2,359.1 382.2,372.3 395,359.1 						"/>
						<polygon class="st8" points="407.7,359.1 395,359.1 407.7,372.3 						"/>
						<polygon class="st8" points="395,372.3 382.2,385.6 407.7,385.6 						"/>
					</g>
				</g>
			</g>
			<g>
				<g>
					<g>
						<polygon class="st6" points="407.7,412.1 407.7,398.9 395,385.6 382.2,398.9 382.2,412.1 395,398.9 						"/>
						<polygon class="st7" points="404.9,405 404.9,400.4 395,390.1 384.8,400.6 384.8,405.1 395,394.7 						"/>
						<polygon class="st8" points="382.2,385.6 382.2,398.9 395,385.6 						"/>
						<polygon class="st8" points="407.7,385.6 395,385.6 407.7,398.9 						"/>
						<polygon class="st8" points="395,398.9 382.2,412.1 407.7,412.1 						"/>
					</g>
				</g>
			</g>
			<g>
				<g>
					<g>
						<polygon class="st6" points="407.7,438.6 407.7,425.4 395,412.1 382.2,425.4 382.2,438.6 395,425.4 						"/>
						<polygon class="st7" points="404.9,431.5 404.9,426.9 395,416.7 384.8,427.2 384.8,431.6 395,421.2 						"/>
						<polygon class="st8" points="382.2,412.1 382.2,425.4 395,412.1 						"/>
						<polygon class="st8" points="407.7,412.1 395,412.1 407.7,425.4 						"/>
						<polygon class="st8" points="395,425.4 382.2,438.6 407.7,438.6 						"/>
					</g>
				</g>
			</g>
			<g>
				<g>
					<g>
						<polygon class="st6" points="407.7,465.1 407.7,451.9 395,438.6 382.2,451.9 382.2,465.1 395,451.9 						"/>
						<polygon class="st7" points="404.9,458 404.9,453.4 395,443.2 384.8,453.7 384.8,458.1 395,447.7 						"/>
						<polygon class="st8" points="382.2,438.6 382.2,451.9 395,438.6 						"/>
						<polygon class="st8" points="407.7,438.6 395,438.6 407.7,451.9 						"/>
						<polygon class="st8" points="395,451.9 382.2,465.1 407.7,465.1 						"/>
					</g>
				</g>
			</g>
			<g>
				<g>
					<g>
						<polygon class="st6" points="407.7,491.6 407.7,478.4 395,465.1 382.2,478.4 382.2,491.6 395,478.4 						"/>
						<polygon class="st7" points="404.9,484.5 404.9,479.9 395,469.7 384.8,480.2 384.8,484.6 395,474.2 						"/>
						<polygon class="st8" points="382.2,465.1 382.2,478.4 395,465.1 						"/>
						<polygon class="st8" points="407.7,465.1 395,465.1 407.7,478.4 						"/>
						<polygon class="st8" points="395,478.4 382.2,491.6 407.7,491.6 						"/>
					</g>
				</g>
			</g>
			<g>
				<g>
					<g>
						<polygon class="st6" points="407.7,518.1 407.7,504.9 395,491.6 382.2,504.9 382.2,518.1 395,504.9 						"/>
						<polygon class="st7" points="404.9,511 404.9,506.4 395,496.2 384.8,506.7 384.8,511.1 395,500.7 						"/>
						<polygon class="st8" points="382.2,491.6 382.2,504.9 395,491.6 						"/>
						<polygon class="st8" points="407.7,491.6 395,491.6 407.7,504.9 						"/>
						<polygon class="st8" points="395,504.9 382.2,518.1 407.7,518.1 						"/>
					</g>
				</g>
			</g>
		</g>
	</g>
</g>
</svg>
