<?xml version="1.0" encoding="utf-8"?>
<!-- Generator: Adobe Illustrator 26.0.2, SVG Export Plug-In . SVG Version: 6.00 Build 0)  -->
<svg version="1.1" id="Calque_1" xmlns="http://www.w3.org/2000/svg" xmlns:xlink="http://www.w3.org/1999/xlink" x="0px" y="0px"
	 viewBox="0 0 588 387" style="enable-background:new 0 0 588 387;" xml:space="preserve">
<style type="text/css">
	.st0{fill:#563935;}
	.st1{fill:#FA9980;}
	.st2{fill:#A05344;}
	.st3{fill:none;stroke:#000000;stroke-width:3;stroke-miterlimit:10;}
	.st4{fill:#634B47;}
	.st5{fill:#EAEAEA;}
	.st6{fill:#7081AF;}
	.st7{fill:#7787B3;}
	.st8{fill:#F4F4F4;}
	.st9{fill:#95ACBA;}
</style>
<polygon points="161.3,367.7 161.4,367.6 161.3,367.6 "/>
<polygon points="161.4,367.6 161.5,367.7 161.5,367.6 "/>
<polygon points="161.3,367.7 161.4,367.6 161.3,367.6 "/>
<polygon points="161.4,367.6 161.5,367.7 161.5,367.6 "/>
<path class="st0" d="M446.9,131.9c-0.6,38.4-26.2,33.2-36.9,42.3c-12.6,10.8-8.3,50-17.2,64c-2.5,3.8-11.4,10.1-15.8,9.1
	c-12.5-2.9-24-30.7-34.8-37.7c-6.3-4.1-23.6-3.6-30.2,0c-11.2,6.2-22.3,34.9-34.8,37.7c-4.4,1-13.4-5.2-15.8-9.1
	c-8.9-14-4.6-53.2-17.2-64c-10.6-9.1-36.2-3.9-36.9-42.3c-0.4-26.6,35-37.3,35-37.3l40.2-19.9c9.8-4.8,16.3-14.4,17.4-25.2
	c0-0.3,0-0.6,0.1-0.9s0-0.5,0-0.8s0-0.3,0-0.5c0-0.4,0-0.8,0-1.2v-2.3v-4.7l-0.1-8.7l1.6,0.1l25,1.9l26.2-2l0.7-0.1l0.1,8.7v2.2
	l0.1,7.1c0.1,10.7,6.2,20.4,15.8,25.1l40.5,20.1c1,0.5,2.1,1,3.2,1.3C420.1,97.5,447.3,108.6,446.9,131.9z"/>
<polygon class="st1" points="355.3,87.1 327.8,119.6 300.6,87.1 300.8,75.4 301.5,39.2 301.6,30.6 326.7,32.5 352.9,30.5 
	352.9,28.9 354.3,29.1 354.5,39.2 354.8,55.4 "/>
<path class="st2" d="M352.9,30.5l-0.2,8.7l-0.2,9.4l-13.4,14.3c0,0-23.5,19.8-31.6,15.9c-2-1-4.3-2.1-6.5-3.3
	c-5.5-2.9-10.7-5.9-10.7-5.9c0.6-0.6,1.3-1.3,1.8-1.9c3.9-4.8,6.5-10.5,7.8-16.6c0-0.1,0.1-0.3,0.1-0.5c0,0,0-0.1,0-0.1
	c0-0.3,0.1-0.6,0.1-1s0-0.6,0.1-0.9s0-0.5,0-0.8s0-0.3,0-0.5c0-0.7,0-1.4,0-2.1v-1.3c0-0.6,0-1.2,0-1.9c0-1,0-1.9,0-2.8l0,0
	l-0.1-8.7l1.6,0.1l25,1.9L352.9,30.5z"/>
<path class="st3" d="M387.3,124.4c-1.3,27.6,17.7,53.5,17.7,53.5s31.2,53.9,41.3,72c4.8,8.5,14.4,26.5,36,15.2l0,0
	c17.8-9.3,11.9-28.1,8.1-36.7c-7.6-17.5-26.8-51.4-31.2-69.8c-3.3-13.7-3.1-36.1-20.9-52.3c0,0-13.1-14.9-31.9-7.7l-0.7,0.3
	C395,103,387.8,113,387.3,124.4L387.3,124.4z"/>
<path class="st1" d="M138.6,232.9c-19.6,3.6-29.9-17.7-33.2-25.6s-6.1-25.5-7.4-34.1c-3.5-22.1-6.6-59.6-10.3-81.1
	c-2.5-14.2-4.2-21.6,4.5-25.5c7.9-3.6,14.8,8.6,17.6,13.4c11.4,19.6,34.2,57.7,42.7,80.2c3.5,9.2,8.9,28.5,9.1,38.4
	C162.3,226.1,144.3,231.9,138.6,232.9z"/>
<path class="st3" d="M264.8,142.7c-11.9,25-40.9,38.8-40.9,38.8s-52.9,32.8-70.4,44c-8.2,5.3-25.2,16.6-38.9-3.6l0,0
	c-11.3-16.6,2.8-30.4,10.2-36.2c15-11.8,47.9-32.6,60.5-46.7c9.4-10.5,19.8-30.3,43.1-36.2c0,0,18.6-6.9,31.8,8.2l0.5,0.6
	C268,120.2,269.7,132.4,264.8,142.7L264.8,142.7z"/>
<path class="st4" d="M493.1,232.8c-9-17.7-32.2-13-40.5-10.8s-23.9,10.7-31.6,14.8c-19.7,10.6-51.3,31-70.7,41.1
	c-12.7,6.7-19.6,9.8-17.6,19.1c1.9,8.4,15.8,6.5,21.3,5.8c22.5-2.9,66.6-8,89.7-14.9c9.5-2.8,28-10.3,36-16.1
	C502.2,255.8,495.8,238,493.1,232.8z"/>
<path class="st1" d="M104.7,69.1l-4-19.7c-0.1-0.4-0.2-0.7-0.4-1.1L90.1,28.4c-1.5-2.8-5.6-3.1-7.2-0.3c-0.1,0.2-0.2,0.4-0.2,0.6
	c-1.2,5.4,1.9,13.7,3.5,18.9c0.2,0.7-0.6,4-1.2,4.4c-0.1,0.1-0.2,0.1-0.3,0.2c-2.2,1-3.3,3.6-2.1,5.7l4.4,7.6c0.7,1.1,1.8,1.9,3.1,2
	L104.7,69.1z"/>
<path class="st1" d="M94.8,68.9l-11.6,9.8L51.8,47.2c-0.4-0.4-0.8-0.9-1-1.5L34.4,8.7c-1.5-3.5,1.3-7.5,5.1-6.8
	c0.3,0,0.5,0.1,0.7,0.2C50.2,6.7,59.9,28.8,67,37.3c5.5,6.6,20.1,18.2,27.7,24C97.1,63.2,97.2,66.9,94.8,68.9z"/>
<ellipse transform="matrix(0.9501 -0.312 0.312 0.9501 -17.6619 32.4995)" class="st1" cx="92.7" cy="71.4" rx="12.1" ry="12.1"/>
<path class="st5" d="M276.1,79.6c1.3-1.3,17.4-20.3,18.9-20.3c0.7,0,13.8,31.6,29,32.1c18.5,0.5,36.1-32.1,36.1-32.1l8.9,14l5,160.5
	l-97.9,1.3V79.6z"/>
<path class="st5" d="M88,133.6l-5.9-32.6c-0.1-0.7,0.2-1.4,0.8-1.8c5.5-3.8,32.6-22,34.2-21c1.5,0.9,8,19,9.7,23.8
	c0.2,0.7,0,1.5-0.5,2L91,134.7C90,135.6,88.3,135.1,88,133.6z"/>
<path class="st5" d="M420.1,391.9c0.5,2.2-1,4.4-3.2,4.9c-0.1,0-0.3,0-0.4,0.1c-16.6,1.8-46,14-60.7,9.6c-8.5-2.6-24.5-1.7-25.9-6.5
	c-0.3-0.6,0.4-195,3-217S355.2,93,360.1,70.9c0.6-2.6,1.2-4.9,1.2-4.9l53.8,24.7l0.2,0.1l25.5,9.9c0.8,0.3,1.5,0.9,2,1.7l14.1,22.6
	c0.2,0.3,0.3,0.5,0.4,0.8l39.3,112.1c3.6,22.2-9.1,24.9-11,25.8l-75.1,18.3c-1.9,0.9-2.9,3.1-2.1,5.1l2.7,16.2
	C411.2,303.4,420.1,391.9,420.1,391.9z"/>
<path class="st5" d="M293.1,65.3c0,0,29.5,101.4,29.5,116.9s13.7,208.4,6,217.6s-33.8,1.6-47.4,1.6s-32.6-7.9-32.6-7.9
	c-6.7-1.1-11.2-7.5-10-14.1c0-0.3,0.1-0.5,0.2-0.8l11.8-86.9l-4.5-54l-9.3-60.2c0,0-98.5,62.4-101.8,61.8
	c-21.1-3.8-30.3-26.4-30.3-26.4l-16-95.1c0,0,25-34.2,26.2-35c4-3,37.5,76.7,37.5,76.7l55.1-55.3L293.1,65.3z"/>
<path class="st6" d="M316.6,107.9l18.3-0.1c0,0,6.4,73,6.2,75.2c-5.3,55.4-2,48-1.8,49.2s-12.6,16-12.6,16s-2.5-16.1-3.2-18.2
	s-9.4-18.5-11.2-48C312.1,180.2,316.6,107.9,316.6,107.9z"/>
<path class="st7" d="M311.7,98.9c0.9-1.8,6.7-13.2,8.9-15.3c1.7-1.6,11.8,0,11.8,0l8.9,14.2c0,0-3.7,9.6-6.6,11
	c-1.5,0.7-8.8,0.4-17.2,0C315.2,108.7,312.5,99.6,311.7,98.9z"/>
<path class="st8" d="M354.7,51l7.8,12l-19.2,42.8c0,0-7.8-18-11-22.1C330.9,81.8,354.7,51,354.7,51z"/>
<path class="st9" d="M306.9,204.3l6.6,120.1c0.3,4.6,4.1,8.1,8.7,7.9l88.5-4c4.2-0.2,7.6-3.5,7.9-7.6l10.1-117.4
	c0.4-4.9-3.5-9.1-8.4-9.1l-105.2,1.3C310.4,195.6,306.7,199.6,306.9,204.3z"/>
<path class="st8" d="M299.8,51L292,61.6l18,44.2c0,0,7.1-18,11.8-22.7C323.5,81.5,299.8,51,299.8,51z"/>
<path class="st1" d="M348.1,278.1l-17.8-12.3c-0.4-0.3-0.8-0.4-1.2-0.5l-15.1-3.7c-2.8-0.7-5.2,2-4.3,4.7l0.4,1.1
	c0.3,1,1,1.7,1.9,2.2l7.8,3.6c0.6,0.3,1.2,0.7,1.5,1.3l0,0c1.6,2.4-0.1,5.6-3,5.6l-3.6,0.1c-2,0.1-3.7-1.5-3.7-3.5l-0.1-3.5
	c-0.1-1.8-1.4-3.2-3.1-3.5l-1.3-0.2c-1.3-0.2-2.5,0.3-3.4,1.3l-9,11.2c-0.6,0.8-0.9,1.8-0.8,2.8l3.9,26.4c0.2,1.3,1.1,2.5,2.4,2.9
	l15.8,5.6c0.9,0.3,1.9,0.3,2.8-0.2l32.5-15.9c0.2-0.1,0.3-0.1,0.5-0.2l9.5-3c0.1,0,0.2,0,0.2-0.1l14.6-3.6c2.6-0.6,3.7-3.8,2-5.9
	l-11.7-14.4c-1-1.2-2.7-1.7-4.2-1.1l-6,2.4c-0.3,0.1-0.5,0.2-0.8,0.2l-4.2,0.6C349.8,278.9,348.9,278.6,348.1,278.1z"/>
<path class="st5" d="M348.2,277.2c2.7,4.2,13.3,30.5,16.1,30.2c90.6-11.1,121.6-38.5,121.6-38.5l0.2-0.1c6.2-3.7,10-10.4,10.2-17.6
	l0.3-12.2c0,0-21.8-19.2-24.1-19.2s-39.3,9.7-42.7,9.3S348.2,277.2,348.2,277.2z"/>
<path class="st5" d="M398,304.9l-35.3,4.1c-0.3,0-0.7-0.1-0.8-0.4c-2.5-4.1-20.3-34.4-19.2-36c1.1-1.6,21.4-7.3,25-8.4
	c0.3-0.1,0.7,0,0.9,0.3l30,38.9C399,304,398.7,304.8,398,304.9z"/>
</svg>
