<?xml version="1.0" encoding="utf-8"?>
<!-- Generator: Adobe Illustrator 26.0.2, SVG Export Plug-In . SVG Version: 6.00 Build 0)  -->
<svg version="1.1" id="Layer_1" xmlns="http://www.w3.org/2000/svg" xmlns:xlink="http://www.w3.org/1999/xlink" x="0px" y="0px"
	 viewBox="0 0 588 387" style="enable-background:new 0 0 588 387;" xml:space="preserve">
<style type="text/css">
	.st0{fill:#FA9980;}
	.st1{fill:#A05344;}
	.st2{fill:none;stroke:#000000;stroke-width:3;stroke-miterlimit:10;}
	.st3{fill:#473415;}
	.st4{fill:#DB634B;}
	.st5{fill:#5B4E4C;}
	.st6{fill-rule:evenodd;clip-rule:evenodd;fill:#EE7675;}
	.st7{fill:#E9D0B7;}
	.st8{fill:#007270;}
</style>
<path class="st0" d="M25.8,294c-0.4-0.5-0.9-0.8-1.4-1.1c-3.7-1.4-18-6.6-20.6-6.5c-3,0.2-15.7,3.2-18.2,2.9s-16.6-5.3-16.8-3.5
	c-0.1,1.2-0.1,4.5-0.1,6.7c0,1.3,0.7,2.4,1.9,3l8.9,4.4c0.4,0.2,0.9,0.3,1.4,0.3l4.4,0.1c3.2,0.1,4.5,4.1,1.9,6l-10.3,7.8
	c-0.2,0.1-0.3,0.2-0.5,0.3c-2.8,1.4-27.2,13.7-28.9,14.1c-1,0.2-0.6,2.8,0,5.1c0.5,2,2.7,3.1,4.5,2.3l26.4-11.3
	c0.7-0.3,1.3,0.7,0.7,1.2l-25.6,20.1c-1.4,1.1-1.7,3.2-0.6,4.7l1.9,2.4c1.1,1.4,3.2,1.7,4.7,0.6l25.5-20c0.7-0.5,1.5,0.4,0.9,1
	l-21.4,23.8c-1.5,1.6-1,4.2,1,5.2l2.7,1.3c1.3,0.6,2.9,0.4,3.9-0.7l21.8-22.8c0.6-0.6,1.5,0.1,1.1,0.8l-10.1,18.1
	c-1,1.8-0.2,4,1.7,4.7c2.3,0.9,5,1.6,5.6,0.5c1-1.9,14.8-20.6,16.8-23.3c0.2-0.2,0.3-0.4,0.6-0.6l26.5-21.8c0.6-0.5,1-1.3,1.2-2.1
	l1-6.5c0.1-0.9-0.1-1.8-0.7-2.6L25.8,294z"/>
<polygon points="131.5,361.6 131.6,361.6 131.5,361.5 "/>
<polygon points="131.6,361.6 131.7,361.6 131.7,361.5 "/>
<polygon points="131.5,361.6 131.6,361.6 131.5,361.5 "/>
<polygon points="131.6,361.6 131.7,361.6 131.7,361.5 "/>
<path class="st0" d="M417.1,125.9c-0.6,38.4-26.2,33.2-36.9,42.3c-12.6,10.8-8.3,50-17.2,64c-2.5,3.8-11.4,10.1-15.8,9.1
	c-12.5-2.9-24-30.7-34.8-37.7c-6.3-4.1-23.6-3.6-30.2,0c-11.3,6.2-22.3,34.9-34.8,37.7c-4.4,1-13.4-5.2-15.8-9.1
	c-8.9-14-4.6-53.2-17.2-64c-10.6-9.1-36.2-3.9-36.9-42.3c-0.4-26.6,35-37.3,35-37.3l40.1-19.9c2.6-1.3,5-2.9,7.1-4.8
	c0.8-0.7,1.6-1.5,2.3-2.3l0.6-0.7l0-0.1c3.9-4.7,6.5-10.4,7.2-16.4c0.2-1.4,0.3-2.8,0.2-4.2v-2.8v-4.5H324l0.1,5v1.5v3.2
	c0,0.3,0,0.7,0,1l0,0c0,0.6,0.1,1.3,0.2,1.9c0.2,1.5,0.5,3.1,0.9,4.6c2.2,7.7,7.6,14,14.7,17.6l40.5,20.1c1,0.5,2.1,1,3.2,1.3
	C390.2,91.4,417.4,102.6,417.1,125.9z"/>
<path class="st0" d="M324.7,81.1l-27.5,32.5l-14.8-17.7L270,81.1l0.7-41.6v-2.2l0.1-4.5h53V33l0.1,4.7l0,0v1.6l0.1,4.2l0,0v1.3
	l0.1,6.8L324.7,81.1z"/>
<path class="st1" d="M325.2,50.3l-1,1.2c-5.2,6.3-28.8,35-41.8,44.3c-3.2,2.3-5.7,3.4-7.2,2.7c-6.8-3.3-14.8-35.1-14.8-35.1l0.1-0.1
	c0.6-0.6,1.2-1.2,1.7-1.9c0.3-0.4,0.7-0.8,1-1.3l0.1-0.1c3.3-4.5,5.6-9.7,6.7-15.2c0-0.2,0.1-0.4,0.1-0.6c0.3-1.4,0.5-3,0.7-4.8
	c0.1-0.7,0.1-1.4,0.2-2.2c0.1-1.4,0.2-2.9,0.3-4.5h52.7V33v4.3V44l0.1,0.8l0.1,0.7l0.9,4.6L325.2,50.3z"/>
<path class="st0" d="M182.3,233.8c-9.7-15-32.4-8.3-40.5-5.5s-23.1,12.1-30.5,16.7c-18.9,11.6-75.5,47.9-96.4,54.1
	c-14.6,4.4,7.5,25,7.5,25s15.5-9,25.7-12.6c21.4-7.6,52.1-11.5,87.9-22.8c9.4-3,27.2-12.2,34.9-18.3
	C192.3,253.6,185.1,238.2,182.3,233.8z"/>
<path class="st2" d="M238.7,122.4c2.8,27.5-14.9,54.4-14.9,54.4s-28.3,55.5-37.4,74.1c-4.3,8.8-13,27.2-35.2,17.1l0,0
	c-18.3-8.4-13.3-27.4-10-36.2c6.7-17.9,24-52.8,27.5-71.3c2.6-13.8,1.2-36.2,18.1-53.3c0,0,12.3-15.6,31.4-9.4l0.8,0.2
	C229.8,101.5,237.5,111.1,238.7,122.4z"/>
<path class="st0" d="M573.3,294c0.4-0.5,0.9-0.8,1.4-1.1c3.7-1.4,18-6.6,20.6-6.5c3,0.2,15.8,3.2,18.2,2.9s16.5-5.3,16.8-3.5
	c0.1,1.2,0.2,4.5,0.2,6.7c0,1.3-0.7,2.4-1.9,3l-8.9,4.4c-0.4,0.2-0.9,0.3-1.4,0.3l-4.4,0.1c-3.2,0.1-4.5,4.1-1.9,6l10.3,7.8
	c0.2,0.1,0.3,0.2,0.5,0.3c2.8,1.4,27.2,13.7,28.9,14.1c1,0.2,0.6,2.8,0,5.1c-0.5,2-2.7,3.1-4.5,2.3l-27.6-11.8
	c-0.6-0.2-1,0.5-0.5,0.9l26.6,20.9c1.4,1.1,1.7,3.2,0.6,4.7l-1.9,2.4c-1.1,1.4-3.2,1.7-4.7,0.6l-27-21.3c-0.5-0.4-1.1,0.3-0.7,0.7
	l22.7,25.3c1.5,1.6,1,4.2-1,5.2l-2.7,1.3c-1.3,0.6-2.9,0.4-3.9-0.7l-22.8-23.7c-0.4-0.4-1.1,0.1-0.8,0.6l10.8,19.3
	c1,1.8,0.2,4-1.7,4.7c-2.3,0.9-5,1.6-5.6,0.5c-1-1.9-14.8-20.6-16.8-23.3c-0.2-0.2-0.3-0.4-0.6-0.6l-26.5-21.8
	c-0.6-0.5-1-1.3-1.2-2.1l-1-6.5c-0.1-0.9,0.1-1.8,0.7-2.6L573.3,294z"/>
<path class="st0" d="M416.7,233.8c9.7-15,32.4-8.3,40.5-5.5s23.1,12.1,30.5,16.7c19,11.6,75.5,47.9,96.4,54.1
	c14.6,4.4-7.5,25-7.5,25s-15.5-9-25.7-12.6c-21.4-7.6-52.1-11.5-87.9-22.8c-9.4-3-27.2-12.2-34.9-18.3
	C406.8,253.6,413.9,238.2,416.7,233.8z"/>
<path class="st2" d="M358.8,122.4c-2.8,27.5,14.9,54.4,14.9,54.4s28.3,55.5,37.5,74.1c4.3,8.8,13,27.2,35.2,17.1l0,0
	c18.3-8.4,13.3-27.4,10-36.2c-6.7-17.9-24-52.8-27.5-71.3c-2.6-13.8-1.2-36.2-18.1-53.3c0,0-12.3-15.6-31.4-9.4l-0.8,0.2
	C367.6,101.5,359.9,111.1,358.8,122.4z"/>
<polygon class="st3" points="217,382.2 218.5,311.7 373.5,311.7 375.5,379.2 "/>
<path class="st4" d="M73.1,267l11.1,35.6c0.7,2.2,2.9,3.6,5.2,3.1l38.9-7.2c0.4-0.1,0.8-0.2,1.1-0.4l56.2-27
	c1.1-0.5,1.9-1.5,2.3-2.6l12.7-36.5c1.2-3.4,6.2-2.1,5.7,1.4l-2.9,18.2c0,0.1,0,0.2,0,0.3l-4.7,78.7c-0.9,8.6,0.2,33.3,3.2,41.5
	l6.3,17.2c0.7,1.8,2.3,3,4.3,3l38.8,6.8c26.5,4.6,53.5,5,80.1,1.2l45.3-6.5c2,0,3.7-1.2,4.4-3.1l4.8-13.9c3.2-9.4,3.9-35.5,1.9-45.2
	l-8.3-73.4c-0.1-0.3-0.1-0.5-0.1-0.8l-0.8-36.2c-0.1-4.9,6.6-6.5,8.7-2.1l29.6,61.9c0.4,0.9,1.2,1.6,2.1,2.1l8.2,4.2
	c0.1,0.1,0.2,0.1,0.4,0.2l84.6,34c2.2,0.9,4.7-0.1,5.8-2.2l20.6-40.9c1.1-2.1,0.3-4.7-1.7-6l-66.1-40.5c-0.9-0.5-1.5-1.3-1.9-2.3
	l-40.3-104.8c-5.2-13.5-15.5-24.4-28.7-30.4l-57.3-25.7c-1.6-0.7-3.4-0.5-4.7,0.6l-0.6,0.5c-26,20.5-62.6,20.6-88.7,0.3l0,0
	c-1.4-1.1-3.2-1.3-4.8-0.5l-47,22.4c-7,3.3-13.1,8.2-17.9,14.2l-2.7,3.3c-3.9,4.9-6.9,10.5-8.9,16.4l-32.2,96.7
	c-0.3,1-1,1.9-1.9,2.4l-58,36.7C73.3,262.9,72.5,265,73.1,267z"/>
<g>
	<line class="st5" x1="294.9" y1="84.5" x2="294.9" y2="402.6"/>
	<g>
		<g>
			<g>
				<g>
					<g>
						<polygon class="st6" points="307.7,111 307.7,97.7 294.9,84.5 282.2,97.7 282.2,111 294.9,97.7 						"/>
						<polygon class="st7" points="304.9,103.8 304.9,99.3 294.9,89 284.8,99.5 284.8,103.9 295,93.6 						"/>
						<polygon class="st8" points="282.2,84.5 282.2,97.7 294.9,84.5 						"/>
						<polygon class="st8" points="307.7,84.5 294.9,84.5 307.7,97.7 						"/>
						<polygon class="st8" points="294.9,97.7 282.2,111 307.7,111 						"/>
					</g>
				</g>
			</g>
			<g>
				<g>
					<g>
						<polygon class="st6" points="307.7,137.5 307.7,124.2 294.9,111 282.2,124.2 282.2,137.5 294.9,124.2 						"/>
						<polygon class="st7" points="304.9,130.4 304.9,125.8 294.9,115.5 284.8,126 284.8,130.5 295,120.1 						"/>
						<polygon class="st8" points="282.2,111 282.2,124.2 294.9,111 						"/>
						<polygon class="st8" points="307.7,111 294.9,111 307.7,124.2 						"/>
						<polygon class="st8" points="294.9,124.2 282.2,137.5 307.7,137.5 						"/>
					</g>
				</g>
			</g>
			<g>
				<g>
					<g>
						<polygon class="st6" points="307.7,164 307.7,150.7 294.9,137.5 282.2,150.7 282.2,164 294.9,150.7 						"/>
						<polygon class="st7" points="304.9,156.9 304.9,152.3 294.9,142 284.8,152.5 284.8,157 295,146.6 						"/>
						<polygon class="st8" points="282.2,137.5 282.2,150.7 294.9,137.5 						"/>
						<polygon class="st8" points="307.7,137.5 294.9,137.5 307.7,150.7 						"/>
						<polygon class="st8" points="294.9,150.7 282.2,164 307.7,164 						"/>
					</g>
				</g>
			</g>
			<g>
				<g>
					<g>
						<polygon class="st6" points="307.7,190.5 307.7,177.2 294.9,164 282.2,177.2 282.2,190.5 294.9,177.2 						"/>
						<polygon class="st7" points="304.9,183.4 304.9,178.8 294.9,168.5 284.8,179 284.8,183.5 295,173.1 						"/>
						<polygon class="st8" points="282.2,164 282.2,177.2 294.9,164 						"/>
						<polygon class="st8" points="307.7,164 294.9,164 307.7,177.2 						"/>
						<polygon class="st8" points="294.9,177.2 282.2,190.5 307.7,190.5 						"/>
					</g>
				</g>
			</g>
			<g>
				<g>
					<g>
						<polygon class="st6" points="307.7,217 307.7,203.7 294.9,190.5 282.2,203.7 282.2,217 294.9,203.7 						"/>
						<polygon class="st7" points="304.9,209.9 304.9,205.3 294.9,195 284.8,205.5 284.8,210 295,199.6 						"/>
						<polygon class="st8" points="282.2,190.5 282.2,203.7 294.9,190.5 						"/>
						<polygon class="st8" points="307.7,190.5 294.9,190.5 307.7,203.7 						"/>
						<polygon class="st8" points="294.9,203.7 282.2,217 307.7,217 						"/>
					</g>
				</g>
			</g>
			<g>
				<g>
					<g>
						<polygon class="st6" points="307.7,243.5 307.7,230.3 294.9,217 282.2,230.3 282.2,243.5 294.9,230.3 						"/>
						<polygon class="st7" points="304.9,236.4 304.9,231.8 294.9,221.5 284.8,232 284.8,236.5 295,226.1 						"/>
						<polygon class="st8" points="282.2,217 282.2,230.3 294.9,217 						"/>
						<polygon class="st8" points="307.7,217 294.9,217 307.7,230.3 						"/>
						<polygon class="st8" points="294.9,230.3 282.2,243.5 307.7,243.5 						"/>
					</g>
				</g>
			</g>
			<g>
				<g>
					<g>
						<polygon class="st6" points="307.7,270 307.7,256.8 294.9,243.5 282.2,256.8 282.2,270 294.9,256.8 						"/>
						<polygon class="st7" points="304.9,262.9 304.9,258.3 294.9,248.1 284.8,258.6 284.8,263 295,252.6 						"/>
						<polygon class="st8" points="282.2,243.5 282.2,256.8 294.9,243.5 						"/>
						<polygon class="st8" points="307.7,243.5 294.9,243.5 307.7,256.8 						"/>
						<polygon class="st8" points="294.9,256.8 282.2,270 307.7,270 						"/>
					</g>
				</g>
			</g>
			<g>
				<g>
					<g>
						<polygon class="st6" points="307.7,296.5 307.7,283.3 294.9,270 282.2,283.3 282.2,296.5 294.9,283.3 						"/>
						<polygon class="st7" points="304.9,289.4 304.9,284.8 294.9,274.6 284.8,285.1 284.8,289.5 295,279.1 						"/>
						<polygon class="st8" points="282.2,270 282.2,283.3 294.9,270 						"/>
						<polygon class="st8" points="307.7,270 294.9,270 307.7,283.3 						"/>
						<polygon class="st8" points="294.9,283.3 282.2,296.5 307.7,296.5 						"/>
					</g>
				</g>
			</g>
			<g>
				<g>
					<g>
						<polygon class="st6" points="307.7,323 307.7,309.8 294.9,296.5 282.2,309.8 282.2,323 294.9,309.8 						"/>
						<polygon class="st7" points="304.9,315.9 304.9,311.3 294.9,301.1 284.8,311.6 284.8,316 295,305.6 						"/>
						<polygon class="st8" points="282.2,296.5 282.2,309.8 294.9,296.5 						"/>
						<polygon class="st8" points="307.7,296.5 294.9,296.5 307.7,309.8 						"/>
						<polygon class="st8" points="294.9,309.8 282.2,323 307.7,323 						"/>
					</g>
				</g>
			</g>
			<g>
				<g>
					<g>
						<polygon class="st6" points="307.7,349.5 307.7,336.3 294.9,323 282.2,336.3 282.2,349.5 294.9,336.3 						"/>
						<polygon class="st7" points="304.9,342.4 304.9,337.8 294.9,327.6 284.8,338.1 284.8,342.5 295,332.1 						"/>
						<polygon class="st8" points="282.2,323 282.2,336.3 294.9,323 						"/>
						<polygon class="st8" points="307.7,323 294.9,323 307.7,336.3 						"/>
						<polygon class="st8" points="294.9,336.3 282.2,349.5 307.7,349.5 						"/>
					</g>
				</g>
			</g>
			<g>
				<g>
					<g>
						<polygon class="st6" points="307.7,376 307.7,362.8 294.9,349.5 282.2,362.8 282.2,376 294.9,362.8 						"/>
						<polygon class="st7" points="304.9,368.9 304.9,364.3 294.9,354.1 284.8,364.6 284.8,369 295,358.6 						"/>
						<polygon class="st8" points="282.2,349.5 282.2,362.8 294.9,349.5 						"/>
						<polygon class="st8" points="307.7,349.5 294.9,349.5 307.7,362.8 						"/>
						<polygon class="st8" points="294.9,362.8 282.2,376 307.7,376 						"/>
					</g>
				</g>
			</g>
			<g>
				<g>
					<g>
						<polygon class="st6" points="307.7,402.6 307.7,389.3 294.9,376 282.2,389.3 282.2,402.6 294.9,389.3 						"/>
						<polygon class="st7" points="304.9,395.4 304.9,390.9 294.9,380.6 284.8,391.1 284.8,395.5 295,385.1 						"/>
						<polygon class="st8" points="282.2,376 282.2,389.3 294.9,376 						"/>
						<polygon class="st8" points="307.7,376 294.9,376 307.7,389.3 						"/>
						<polygon class="st8" points="294.9,389.3 282.2,402.6 307.7,402.6 						"/>
					</g>
				</g>
			</g>
		</g>
	</g>
</g>
</svg>
