<?xml version="1.0" encoding="utf-8"?>
<!-- Generator: Adobe Illustrator 26.0.3, SVG Export Plug-In . SVG Version: 6.00 Build 0)  -->
<svg version="1.1" id="Layer_1" xmlns="http://www.w3.org/2000/svg" xmlns:xlink="http://www.w3.org/1999/xlink" x="0px" y="0px"
	 viewBox="0 0 200 200" style="enable-background:new 0 0 200 200;" xml:space="preserve">
<style type="text/css">
	.st0{fill:#FFFFFF;}
	.st1{fill:#080808;stroke:#000000;stroke-miterlimit:10;}
	.st2{clip-path:url(#SVGID_00000058582157054000553340000005174598454218296728_);}
	.st3{fill:none;stroke:#000000;stroke-width:2;stroke-linecap:round;stroke-miterlimit:10;}
	.st4{clip-path:url(#SVGID_00000093885293262068683800000011304523157814587823_);}
	.st5{fill:#66183F;}
	.st6{fill:#020202;}
	.st7{fill:#5E3E35;}
</style>
<g id="Calque_10_00000156584679455726426290000000639233760839527085_">
	<circle class="st0" cx="121.4" cy="114.4" r="6.8"/>
	<circle class="st0" cx="82.6" cy="114.4" r="6.8"/>
	<circle class="st1" cx="84.7" cy="114.5" r="4"/>
	<circle class="st1" cx="123.6" cy="114.5" r="4"/>
	<g>
		<g>
			<defs>
				<rect id="SVGID_1_" x="113.2" y="97.5" width="22.1" height="6.7"/>
			</defs>
			<clipPath id="SVGID_00000183938743565452177230000007957631749060515487_">
				<use xlink:href="#SVGID_1_"  style="overflow:visible;"/>
			</clipPath>
			<g style="clip-path:url(#SVGID_00000183938743565452177230000007957631749060515487_);">
				<path class="st3" d="M114.2,101.8c6.1-4.9,14.8-4.3,20.2,1.4"/>
			</g>
		</g>
	</g>
	<g>
		<g>
			<defs>
				<rect id="SVGID_00000083782465720763718030000011430457114562349461_" x="69.9" y="97.5" width="22.1" height="6.7"/>
			</defs>
			<clipPath id="SVGID_00000114074556313113501180000016572802424897513361_">
				<use xlink:href="#SVGID_00000083782465720763718030000011430457114562349461_"  style="overflow:visible;"/>
			</clipPath>
			<g style="clip-path:url(#SVGID_00000114074556313113501180000016572802424897513361_);">
				<path class="st3" d="M91.1,101.8c-6.1-4.9-14.8-4.3-20.2,1.4"/>
			</g>
		</g>
	</g>
	<ellipse class="st5" cx="103" cy="156.1" rx="2.9" ry="4.5"/>
	<path class="st6" d="M74.7,111.7c0.6,1,1.9,1.3,2.9,0.6c1.8-1.1,3.8-2.8,5.8-2.1c2.7,0.9,2.5,2.9,5.9,3.3c0.3,0-0.7-6.2-6.1-6.5
		S77.1,111.4,74.7,111.7z"/>
	<path class="st6" d="M129.2,111.2c-0.6,1-1.9,1.3-2.9,0.6c-1.8-1.1-3.8-2.8-5.8-2.1c-2.6,0.9-2.5,2.9-5.9,3.3
		c-0.3,0,0.7-6.2,6.1-6.5S126.8,110.9,129.2,111.2z"/>
</g>
<path class="st7" d="M108.7,139.9c-3.4,2.2-10.6,1.3-12.6-1.8c-1.2-1.9-0.4-3.6,1.7-5c-0.3,1.8-2,4.3-0.5,4.7c2.6,0.6,5,3.4,8,1.4
	c1.4-0.9,2.6-1.7,3.6,0.3C109.1,139.6,108.9,139.8,108.7,139.9z"/>
<path class="st7" d="M98.3,140c3.5,2.2,10.6,1.2,12.6-1.9c1.2-1.9,0.4-3.6-1.7-5c0.4,1.8,2.1,4.3,0.5,4.7c-2.6,0.6-5.1,3.4-8.2,1.4
	c-1.4-0.9-2.7-1.7-3.7,0.3C97.6,139.6,98.3,140,98.3,140z"/>
</svg>
