<?xml version="1.0" encoding="utf-8"?>
<!-- Generator: Adobe Illustrator 26.0.3, SVG Export Plug-In . SVG Version: 6.00 Build 0)  -->
<svg version="1.1" id="Calque_1" xmlns="http://www.w3.org/2000/svg" xmlns:xlink="http://www.w3.org/1999/xlink" x="0px" y="0px"
	 viewBox="0 0 788 1005" style="enable-background:new 0 0 788 1005;" xml:space="preserve">
<style type="text/css">
	.st0{fill:#FFFFFF;}
	.st1{fill:none;stroke:#000000;stroke-width:2;stroke-linecap:round;stroke-miterlimit:10;}
	.st2{fill:#844F3D;}
	.st3{fill:none;stroke:#662C34;stroke-width:2;stroke-linecap:round;stroke-miterlimit:10;}
	.st4{fill:#020202;}
	.st5{fill:#F4F4F4;}
</style>
<g id="Calque_10_00000031191160770613990720000015140453756016587702_">
	<circle class="st0" cx="375" cy="247.7" r="5.9"/>
	<circle cx="374.9" cy="247.8" r="4.4"/>
	<path class="st1" d="M384.4,233.7c-6.7-5.4-16.5-4.7-22.4,1.6"/>
	<path class="st2" d="M402.4,269.4c0,0-5.2,4.1-8.3,4.1s-7.8-4-7.8-4s6,0.8,8,0.8C396.4,270.3,402.4,269.4,402.4,269.4z"/>
	<path class="st3" d="M379.5,285.9c4,4,9.5,6.3,15.1,6.1c5.7-0.3,11-2.9,14.8-7.2"/>
	<path class="st4" d="M364.8,245.4c0.7,1.1,2.1,1.4,3.2,0.7c2-1.3,4.2-3.1,6.4-2.3c3,1,2.8,3.2,6.5,3.6c0.3,0-0.8-6.9-6.7-7.3
		S367.5,245,364.8,245.4z"/>
	<circle class="st0" cx="413.9" cy="247.7" r="5.9"/>
	<circle cx="413.9" cy="247.8" r="4.4"/>
	<path class="st1" d="M404.4,233.7c6.7-5.4,16.5-4.7,22.4,1.6"/>
	<path class="st4" d="M424.1,245.4c-0.7,1.1-2.1,1.4-3.2,0.7c-2-1.3-4.2-3.1-6.4-2.3c-3,1-2.8,3.2-6.5,3.6c-0.3,0,0.8-6.9,6.7-7.3
		S421.4,245,424.1,245.4z"/>
	<path class="st5" d="M394.4,304.7L394.4,304.7c-6.5,0-24-12.2-24-18.7v-12.1c0-6.5,17.5-15.4,24-15.4l0,0c6.5,0,24,8.9,24,15.4V286
		C418.4,292.4,400.9,304.7,394.4,304.7z"/>
</g>
</svg>
