<?xml version="1.0" encoding="utf-8"?>
<!-- Generator: Adobe Illustrator 26.0.3, SVG Export Plug-In . SVG Version: 6.00 Build 0)  -->
<svg version="1.1" id="Calque_1" xmlns="http://www.w3.org/2000/svg" xmlns:xlink="http://www.w3.org/1999/xlink" x="0px" y="0px"
	 viewBox="0 0 788 1005" style="enable-background:new 0 0 788 1005;" xml:space="preserve">
<style type="text/css">
	.st0{fill:#FFFFFF;}
	.st1{fill:#080808;}
	.st2{clip-path:url(#SVGID_00000001641031081435240150000006799789293252138425_);}
	.st3{fill:none;stroke:#000000;stroke-width:2;stroke-linecap:round;stroke-miterlimit:10;}
	.st4{clip-path:url(#SVGID_00000018211719548284980660000017002865319621507748_);}
	.st5{fill:none;stroke:#5B2945;stroke-width:2;stroke-linecap:round;stroke-miterlimit:10;}
	.st6{fill:#4DA0FF;}
	.st7{fill:#5E3E35;}
</style>
<g id="Calque_10">
	<path class="st0" d="M419.6,248.1c0,3.7-3,6.8-6.8,6.8s-6.8-3-6.8-6.8l0,0H419.6z"/>
	<path class="st0" d="M380.8,248.1c0,3.7-3,6.8-6.8,6.8s-6.8-3-6.8-6.8l0,0H380.8z"/>
	<path class="st1" d="M378.1,248.7c0,2.2-1.8,4-4,4s-4-1.8-4-4c0-0.2,0-0.4,0-0.6h7.9C378.1,248.3,378.1,248.5,378.1,248.7z"/>
	<path class="st1" d="M417.1,248.7c0,2.2-1.8,4-4,4s-4-1.8-4-4c0-0.2,0-0.4,0-0.6h7.9C417,248.3,417.1,248.5,417.1,248.7z"/>
	<g>
		<g>
			<defs>
				<rect id="SVGID_1_" x="404.9" y="233.8" width="21.6" height="7.1"/>
			</defs>
			<clipPath id="SVGID_00000049941605912666149270000014673276951865701778_">
				<use xlink:href="#SVGID_1_"  style="overflow:visible;"/>
			</clipPath>
			<g style="clip-path:url(#SVGID_00000049941605912666149270000014673276951865701778_);">
				<path class="st3" d="M405.9,234.8c9.8,0.2,19.6,5.1,19.6,5.1"/>
			</g>
		</g>
	</g>
	<g>
		<g>
			<defs>
				<rect id="SVGID_00000066510449248718441410000005183918452317910425_" x="361.7" y="233.8" width="21.6" height="7.1"/>
			</defs>
			<clipPath id="SVGID_00000104690651159142700910000006288499422167125898_">
				<use xlink:href="#SVGID_00000066510449248718441410000005183918452317910425_"  style="overflow:visible;"/>
			</clipPath>
			<g style="clip-path:url(#SVGID_00000104690651159142700910000006288499422167125898_);">
				<path class="st3" d="M382.3,234.8c-9.8,0.2-19.6,5.1-19.6,5.1"/>
			</g>
		</g>
	</g>
	<path class="st5" d="M382.8,286.9c3.1,0.1,7.2,0.2,11.3,0.2s8.1-0.1,11-0.2"/>
	<path class="st6" d="M368.8,253.5c0,0,3.9,2.6,3.9,5.1s-1.7,4.4-3.9,4.4s-3.9-2-3.9-4.4S368.8,253.5,368.8,253.5z"/>
</g>
<path class="st7" d="M400,274.6c-3.4,2.2-10.6,1.3-12.6-1.8c-1.2-1.9-0.4-3.6,1.7-5c-0.3,1.8-2,4.3-0.5,4.7c2.6,0.6,5,3.4,8,1.4
	c1.4-0.9,2.6-1.7,3.6,0.3C400.4,274.3,400.1,274.5,400,274.6z"/>
<path class="st7" d="M389.5,274.7c3.5,2.2,10.6,1.2,12.6-1.9c1.2-1.9,0.4-3.6-1.7-5c0.4,1.8,2.1,4.3,0.5,4.7
	c-2.6,0.6-5.1,3.4-8.2,1.4c-1.4-0.9-2.7-1.7-3.7,0.3C388.9,274.3,389.5,274.7,389.5,274.7z"/>
</svg>
