<?xml version="1.0" encoding="utf-8"?>
<!-- Generator: Adobe Illustrator 26.0.3, SVG Export Plug-In . SVG Version: 6.00 Build 0)  -->
<svg version="1.1" id="Layer_1" xmlns="http://www.w3.org/2000/svg" xmlns:xlink="http://www.w3.org/1999/xlink" x="0px" y="0px"
	 viewBox="0 0 200 200" style="enable-background:new 0 0 200 200;" xml:space="preserve">
<style type="text/css">
	.st0{clip-path:url(#SVGID_00000076569791846403635310000001818545685185384577_);}
	.st1{fill:none;stroke:#000000;stroke-width:2;stroke-linecap:round;stroke-miterlimit:10;}
	.st2{clip-path:url(#SVGID_00000075129428524281428270000002910891572614288282_);}
	.st3{fill:none;stroke:#6B3457;stroke-width:2;stroke-linecap:round;stroke-miterlimit:10;}
	.st4{fill:#020202;}
	.st5{fill:#5E3E35;}
</style>
<g id="Calque_10_00000081646137940520425750000008064759658211491970_">
	<g>
		<g>
			<defs>
				<rect id="SVGID_1_" x="67.5" y="96.7" width="22.1" height="6.1"/>
			</defs>
			<clipPath id="SVGID_00000139984200664180870330000000029746455314489788_">
				<use xlink:href="#SVGID_1_"  style="overflow:visible;"/>
			</clipPath>
			<g style="clip-path:url(#SVGID_00000139984200664180870330000000029746455314489788_);">
				<path class="st1" d="M88.6,98.6c0,0-6.4-1.9-12.1-0.2c-2.8,0.8-5.5,2-8,3.4"/>
			</g>
		</g>
	</g>
	<g>
		<g>
			<defs>
				<rect id="SVGID_00000093165489165075883980000009912825935308484011_" x="110.4" y="96.7" width="22.1" height="6.1"/>
			</defs>
			<clipPath id="SVGID_00000075139646764692751730000003561611954858321313_">
				<use xlink:href="#SVGID_00000093165489165075883980000009912825935308484011_"  style="overflow:visible;"/>
			</clipPath>
			<g style="clip-path:url(#SVGID_00000075139646764692751730000003561611954858321313_);">
				<path class="st1" d="M111.4,98.6c0,0,6.4-1.9,12.1-0.2c2.8,0.8,5.5,2,8,3.4"/>
			</g>
		</g>
	</g>
	<path class="st3" d="M86.2,147.3c3.6,3.6,8.5,5.6,13.6,5.5c5.1-0.3,9.9-2.6,13.3-6.5"/>
	<path class="st4" d="M129.7,113.2c-0.6,1-1.9,1.3-2.9,0.6c-1.8-1.1-6.9-1.2-8.9-0.6c-2.7,0.9-5.8,2.1-6.6,0.4
		c-0.1-0.3,1.5-3.3,6.8-3.7S127.2,112.8,129.7,113.2L129.7,113.2z"/>
	<path class="st4" d="M69.5,113.2c0.6,1,1.9,1.3,2.9,0.6c1.8-1.1,6.9-1.2,8.9-0.6c2.7,0.9,5.8,2.1,6.6,0.4c0.1-0.3-1.5-3.3-6.8-3.7
		S71.9,112.8,69.5,113.2L69.5,113.2z"/>
</g>
<path class="st5" d="M104.9,139.9c-3.4,2.2-10.6,1.3-12.6-1.8c-1.2-1.9-0.4-3.6,1.7-5c-0.3,1.8-2,4.3-0.5,4.7c2.6,0.6,5,3.4,8,1.4
	c1.4-0.9,2.6-1.7,3.6,0.3C105.3,139.6,105,139.8,104.9,139.9z"/>
<path class="st5" d="M94.4,140c3.5,2.2,10.6,1.2,12.6-1.9c1.2-1.9,0.4-3.6-1.7-5c0.4,1.8,2.1,4.3,0.5,4.7c-2.6,0.6-5.1,3.4-8.2,1.4
	c-1.4-0.9-2.7-1.7-3.7,0.3C93.7,139.6,94.4,140,94.4,140z"/>
</svg>
