<?xml version="1.0" encoding="utf-8"?>
<!-- Generator: Adobe Illustrator 26.0.3, SVG Export Plug-In . SVG Version: 6.00 Build 0)  -->
<svg version="1.1" id="Calque_1" xmlns="http://www.w3.org/2000/svg" xmlns:xlink="http://www.w3.org/1999/xlink" x="0px" y="0px"
	 viewBox="0 0 788 1005" style="enable-background:new 0 0 788 1005;" xml:space="preserve">
<style type="text/css">
	.st0{fill:#FFFFFF;}
	.st1{fill:#080808;stroke:#000000;stroke-miterlimit:10;}
	.st2{clip-path:url(#SVGID_00000100347451447689849530000012434192034210147225_);}
	.st3{fill:none;stroke:#000000;stroke-width:2;stroke-linecap:round;stroke-miterlimit:10;}
	.st4{clip-path:url(#SVGID_00000054956437151787999650000010535139542734496686_);}
	.st5{fill:#66183F;}
	.st6{fill:#020202;}
	.st7{fill:#5E3E35;}
</style>
<g id="Calque_10">
	<circle class="st0" cx="415.6" cy="244" r="6.8"/>
	<circle class="st0" cx="376.8" cy="244" r="6.8"/>
	<circle class="st1" cx="378.9" cy="244.1" r="4"/>
	<circle class="st1" cx="417.8" cy="244.1" r="4"/>
	<g>
		<g>
			<defs>
				<rect id="SVGID_1_" x="407.4" y="227.1" width="22.1" height="6.7"/>
			</defs>
			<clipPath id="SVGID_00000124152977037128251040000006944669342174952103_">
				<use xlink:href="#SVGID_1_"  style="overflow:visible;"/>
			</clipPath>
			<g style="clip-path:url(#SVGID_00000124152977037128251040000006944669342174952103_);">
				<path class="st3" d="M408.4,231.4c6.1-4.9,14.8-4.3,20.2,1.4"/>
			</g>
		</g>
	</g>
	<g>
		<g>
			<defs>
				<rect id="SVGID_00000046300879615235154050000013382917071233810821_" x="364.1" y="227.1" width="22.1" height="6.7"/>
			</defs>
			<clipPath id="SVGID_00000093877376825497862300000012886317740171087497_">
				<use xlink:href="#SVGID_00000046300879615235154050000013382917071233810821_"  style="overflow:visible;"/>
			</clipPath>
			<g style="clip-path:url(#SVGID_00000093877376825497862300000012886317740171087497_);">
				<path class="st3" d="M385.3,231.4c-6.1-4.9-14.8-4.3-20.2,1.4"/>
			</g>
		</g>
	</g>
	<ellipse class="st5" cx="397.2" cy="285.7" rx="2.9" ry="4.5"/>
	<path class="st6" d="M368.9,241.3c0.6,1,1.9,1.3,2.9,0.6c1.8-1.1,3.8-2.8,5.8-2.1c2.7,0.9,2.5,2.9,5.9,3.3c0.3,0-0.7-6.2-6.1-6.5
		S371.3,241,368.9,241.3z"/>
	<path class="st6" d="M423.4,240.8c-0.6,1-1.9,1.3-2.9,0.6c-1.8-1.1-3.8-2.8-5.8-2.1c-2.6,0.9-2.5,2.9-5.9,3.3
		c-0.3,0,0.7-6.2,6.1-6.5S421,240.5,423.4,240.8z"/>
</g>
<path class="st7" d="M402.9,269.5c-3.4,2.2-10.6,1.3-12.6-1.8c-1.2-1.9-0.4-3.6,1.7-5c-0.3,1.8-2,4.3-0.5,4.7c2.6,0.6,5,3.4,8,1.4
	c1.4-0.9,2.6-1.7,3.6,0.3C403.3,269.2,403,269.4,402.9,269.5z"/>
<path class="st7" d="M392.4,269.6c3.5,2.2,10.6,1.2,12.6-1.9c1.2-1.9,0.4-3.6-1.7-5c0.4,1.8,2.1,4.3,0.5,4.7
	c-2.6,0.6-5.1,3.4-8.2,1.4c-1.4-0.9-2.7-1.7-3.7,0.3C391.7,269.2,392.4,269.6,392.4,269.6z"/>
</svg>
