<?xml version="1.0" encoding="utf-8"?>
<!-- Generator: Adobe Illustrator 26.0.3, SVG Export Plug-In . SVG Version: 6.00 Build 0)  -->
<svg version="1.1" id="Calque_1" xmlns="http://www.w3.org/2000/svg" xmlns:xlink="http://www.w3.org/1999/xlink" x="0px" y="0px"
	 viewBox="0 0 788 1005" style="enable-background:new 0 0 788 1005;" xml:space="preserve">
<style type="text/css">
	.st0{fill:#FFFFFF;}
	.st1{clip-path:url(#SVGID_00000075132198908591347700000011648906423975703955_);}
	.st2{fill:none;stroke:#000000;stroke-width:2;stroke-linecap:round;stroke-miterlimit:10;}
	.st3{clip-path:url(#SVGID_00000043453223424637833390000017957737571839935874_);}
	.st4{fill:#66183F;}
	.st5{fill:#BFBFBF;}
	.st6{fill:#5E3E35;}
</style>
<g id="Calque_10">
	<circle class="st0" cx="373.6" cy="242.6" r="6.8"/>
	<circle class="st0" cx="413.8" cy="242.6" r="6.8"/>
	<circle cx="371.4" cy="240.9" r="3.3"/>
	<circle cx="411.7" cy="240.9" r="3.3"/>
	<g>
		<g>
			<defs>
				<rect id="SVGID_1_" x="360.5" y="223.1" width="23.1" height="7"/>
			</defs>
			<clipPath id="SVGID_00000019643304090230759760000002052567472342408383_">
				<use xlink:href="#SVGID_1_"  style="overflow:visible;"/>
			</clipPath>
			<g style="clip-path:url(#SVGID_00000019643304090230759760000002052567472342408383_);">
				<path class="st2" d="M382.7,229c-2.9-2.3-8.2-5.9-14.4-4.7c-5.3,1-6.8,4.6-6.8,4.6"/>
			</g>
		</g>
	</g>
	<g>
		<g>
			<defs>
				<rect id="SVGID_00000129927507528714573770000000459553559846369945_" x="404.6" y="223.1" width="23.1" height="7"/>
			</defs>
			<clipPath id="SVGID_00000031910410834437727940000005211052477021827249_">
				<use xlink:href="#SVGID_00000129927507528714573770000000459553559846369945_"  style="overflow:visible;"/>
			</clipPath>
			<g style="clip-path:url(#SVGID_00000031910410834437727940000005211052477021827249_);">
				<path class="st2" d="M405.6,229c2.9-2.3,8.2-5.9,14.4-4.7c5.3,1,6.8,4.6,6.8,4.6"/>
			</g>
		</g>
	</g>
	<path class="st4" d="M377.9,277.5c0.3-0.6,1.4-1.6,3.5-2.5c3.4-1.3,6.9-2.1,10.6-2.1c5.9-0.1,11.6,2.1,15.9,6.1
		c0,0-4.6,11.7-15.8,10.9C383.9,289.2,377.9,277.5,377.9,277.5z"/>
	<path class="st5" d="M392.4,277.9l-8.2-0.4l-2.2-0.9c3.6-1.5,7.5-2.1,11.4-2c6.7,0.4,10.3,2.9,10.3,2.9l-1.7,0.8L392.4,277.9z"/>
</g>
<path class="st6" d="M398.7,266.5c-3.4,2.2-10.6,1.3-12.6-1.8c-1.2-1.9-0.4-3.6,1.7-5c-0.3,1.8-2,4.3-0.5,4.7c2.6,0.6,5,3.4,8,1.4
	c1.4-0.9,2.6-1.7,3.6,0.3C399.1,266.2,398.8,266.4,398.7,266.5z"/>
<path class="st6" d="M388.2,266.6c3.5,2.2,10.6,1.2,12.6-1.9c1.2-1.9,0.4-3.6-1.7-5c0.4,1.8,2.1,4.3,0.5,4.7
	c-2.6,0.6-5.1,3.4-8.2,1.4c-1.4-0.9-2.7-1.7-3.7,0.3C387.5,266.2,388.2,266.6,388.2,266.6z"/>
</svg>
