<?xml version="1.0" encoding="utf-8"?>
<!-- Generator: Adobe Illustrator 26.0.3, SVG Export Plug-In . SVG Version: 6.00 Build 0)  -->
<svg version="1.1" id="Calque_1" xmlns="http://www.w3.org/2000/svg" xmlns:xlink="http://www.w3.org/1999/xlink" x="0px" y="0px"
	 viewBox="0 0 788 1005" style="enable-background:new 0 0 788 1005;" xml:space="preserve">
<style type="text/css">
	.st0{fill:#FFFFFF;}
	.st1{fill:none;stroke:#000000;stroke-width:2;stroke-linecap:round;stroke-miterlimit:10;}
	.st2{fill:none;stroke:#662C34;stroke-width:2;stroke-linecap:round;stroke-miterlimit:10;}
	.st3{fill:#020202;}
	.st4{fill:#5E3E35;}
</style>
<g id="Calque_10">
	<circle class="st0" cx="373.7" cy="245.6" r="5.3"/>
	<circle cx="373.7" cy="245.6" r="4"/>
	<path class="st1" d="M382.2,233c-6.1-4.9-14.8-4.3-20.2,1.4"/>
	<path class="st2" d="M379.8,279.9c3.6,3.6,8.5,5.6,13.6,5.5c5.1-0.3,9.9-2.6,13.3-6.4"/>
	<path class="st3" d="M364.6,243.5c0.6,1,1.9,1.3,2.9,0.6c1.8-1.1,3.8-2.8,5.8-2.1c2.7,0.9,2.5,2.9,5.9,3.3c0.3,0-0.7-6.2-6.1-6.5
		S367,243.1,364.6,243.5z"/>
	<circle class="st0" cx="412.7" cy="245.6" r="5.3"/>
	<circle cx="412.8" cy="245.6" r="4"/>
	<path class="st1" d="M404.2,233c6.1-4.9,14.8-4.3,20.2,1.4"/>
	<path class="st3" d="M421.9,243.5c-0.6,1-1.9,1.3-2.9,0.6c-1.8-1.1-3.8-2.8-5.8-2.1c-2.7,0.9-2.5,2.9-5.9,3.3
		c-0.3,0,0.7-6.2,6.1-6.5S419.4,243.1,421.9,243.5z"/>
</g>
<path class="st4" d="M398.8,269.6c-3.4,2.2-10.6,1.3-12.6-1.8c-1.2-1.9-0.4-3.6,1.7-5c-0.3,1.8-2,4.3-0.5,4.7c2.6,0.6,5,3.4,8,1.4
	c1.4-0.9,2.6-1.7,3.6,0.3C399.2,269.3,398.9,269.5,398.8,269.6z"/>
<path class="st4" d="M388.3,269.7c3.5,2.2,10.6,1.2,12.6-1.9c1.2-1.9,0.4-3.6-1.7-5c0.4,1.8,2.1,4.3,0.5,4.7
	c-2.6,0.6-5.1,3.4-8.2,1.4c-1.4-0.9-2.7-1.7-3.7,0.3C387.6,269.3,388.3,269.7,388.3,269.7z"/>
</svg>
