<?xml version="1.0" encoding="utf-8"?>
<!-- Generator: Adobe Illustrator 26.0.3, SVG Export Plug-In . SVG Version: 6.00 Build 0)  -->
<svg version="1.1" id="Layer_1" xmlns="http://www.w3.org/2000/svg" xmlns:xlink="http://www.w3.org/1999/xlink" x="0px" y="0px"
	 viewBox="0 0 200 200" style="enable-background:new 0 0 200 200;" xml:space="preserve">
<style type="text/css">
	.st0{fill:#FFFFFF;}
	.st1{clip-path:url(#SVGID_00000171714989214627931940000001293274928375709610_);}
	.st2{fill:none;stroke:#000000;stroke-width:2;stroke-linecap:round;stroke-miterlimit:10;}
	.st3{clip-path:url(#SVGID_00000031200991419401191790000003715014843441744537_);}
	.st4{fill:#66183F;}
	.st5{fill:#BFBFBF;}
	.st6{fill:#5E3E35;}
</style>
<g id="Calque_10_00000004547676297074008020000012676647012527978152_">
	<circle class="st0" cx="79.5" cy="113" r="6.8"/>
	<circle class="st0" cx="119.7" cy="113" r="6.8"/>
	<circle cx="77.3" cy="111.3" r="3.3"/>
	<circle cx="117.6" cy="111.3" r="3.3"/>
	<g>
		<g>
			<defs>
				<rect id="SVGID_1_" x="66.4" y="93.5" width="23.1" height="7"/>
			</defs>
			<clipPath id="SVGID_00000003794025845913293080000015387932257430442391_">
				<use xlink:href="#SVGID_1_"  style="overflow:visible;"/>
			</clipPath>
			<g style="clip-path:url(#SVGID_00000003794025845913293080000015387932257430442391_);">
				<path class="st2" d="M88.6,99.4c-2.9-2.3-8.2-5.9-14.4-4.7c-5.3,1-6.8,4.6-6.8,4.6"/>
			</g>
		</g>
	</g>
	<g>
		<g>
			<defs>
				<rect id="SVGID_00000062159146821180909860000001497095960892921000_" x="110.5" y="93.5" width="23.1" height="7"/>
			</defs>
			<clipPath id="SVGID_00000047033480491044097830000011202985208817234098_">
				<use xlink:href="#SVGID_00000062159146821180909860000001497095960892921000_"  style="overflow:visible;"/>
			</clipPath>
			<g style="clip-path:url(#SVGID_00000047033480491044097830000011202985208817234098_);">
				<path class="st2" d="M111.5,99.4c2.9-2.3,8.2-5.9,14.4-4.7c5.3,1,6.8,4.6,6.8,4.6"/>
			</g>
		</g>
	</g>
	<path class="st4" d="M83.8,147.9c0.3-0.6,1.4-1.6,3.5-2.5c3.4-1.3,6.9-2.1,10.6-2.1c5.9-0.1,11.6,2.1,15.9,6.1
		c0,0-4.6,11.7-15.8,10.9C89.8,159.6,83.8,147.9,83.8,147.9z"/>
	<path class="st5" d="M98.3,148.3l-8.2-0.4l-2.2-0.9c3.6-1.5,7.5-2.1,11.4-2c6.7,0.4,10.3,2.9,10.3,2.9l-1.7,0.8L98.3,148.3z"/>
</g>
<path class="st6" d="M104.6,136.9c-3.4,2.2-10.6,1.3-12.6-1.8c-1.2-1.9-0.4-3.6,1.7-5c-0.3,1.8-2,4.3-0.5,4.7c2.6,0.6,5,3.4,8,1.4
	c1.4-0.9,2.6-1.7,3.6,0.3C105,136.6,104.7,136.8,104.6,136.9z"/>
<path class="st6" d="M94.1,137c3.5,2.2,10.6,1.2,12.6-1.9c1.2-1.9,0.4-3.6-1.7-5c0.4,1.8,2.1,4.3,0.5,4.7c-2.6,0.6-5.1,3.4-8.2,1.4
	c-1.4-0.9-2.7-1.7-3.7,0.3C93.4,136.6,94.1,137,94.1,137z"/>
</svg>
