<?xml version="1.0" encoding="utf-8"?>
<!-- Generator: Adobe Illustrator 26.0.3, SVG Export Plug-In . SVG Version: 6.00 Build 0)  -->
<svg version="1.1" id="Calque_1" xmlns="http://www.w3.org/2000/svg" xmlns:xlink="http://www.w3.org/1999/xlink" x="0px" y="0px"
	 viewBox="0 0 788 1005" style="enable-background:new 0 0 788 1005;" xml:space="preserve">
<style type="text/css">
	.st0{clip-path:url(#SVGID_00000036240166582924136220000014178017733955365817_);}
	.st1{fill:none;stroke:#000000;stroke-width:2;stroke-linecap:round;stroke-miterlimit:10;}
	.st2{clip-path:url(#SVGID_00000106831040230720833990000014134470916448138404_);}
	.st3{fill:none;stroke:#6B3457;stroke-width:2;stroke-linecap:round;stroke-miterlimit:10;}
	.st4{fill:#020202;}
	.st5{fill:#5E3E35;}
</style>
<g id="Calque_10">
	<g>
		<g>
			<defs>
				<rect id="SVGID_1_" x="361.6" y="226.3" width="22.1" height="6.1"/>
			</defs>
			<clipPath id="SVGID_00000074425582414387028420000001901275731230650042_">
				<use xlink:href="#SVGID_1_"  style="overflow:visible;"/>
			</clipPath>
			<g style="clip-path:url(#SVGID_00000074425582414387028420000001901275731230650042_);">
				<path class="st1" d="M382.7,228.2c0,0-6.4-1.9-12.1-0.2c-2.8,0.8-5.5,2-8,3.4"/>
			</g>
		</g>
	</g>
	<g>
		<g>
			<defs>
				<rect id="SVGID_00000044148988471634475710000004542494294772598954_" x="404.5" y="226.3" width="22.1" height="6.1"/>
			</defs>
			<clipPath id="SVGID_00000104689900408426166490000006414164744740143232_">
				<use xlink:href="#SVGID_00000044148988471634475710000004542494294772598954_"  style="overflow:visible;"/>
			</clipPath>
			<g style="clip-path:url(#SVGID_00000104689900408426166490000006414164744740143232_);">
				<path class="st1" d="M405.5,228.2c0,0,6.4-1.9,12.1-0.2c2.8,0.8,5.5,2,8,3.4"/>
			</g>
		</g>
	</g>
	<path class="st3" d="M380.3,276.9c3.6,3.6,8.5,5.6,13.6,5.5c5.1-0.3,9.9-2.6,13.3-6.5"/>
	<path class="st4" d="M423.8,242.8c-0.6,1-1.9,1.3-2.9,0.6c-1.8-1.1-6.9-1.2-8.9-0.6c-2.7,0.9-5.8,2.1-6.6,0.4
		c-0.1-0.3,1.5-3.3,6.8-3.7S421.3,242.4,423.8,242.8L423.8,242.8z"/>
	<path class="st4" d="M363.6,242.8c0.6,1,1.9,1.3,2.9,0.6c1.8-1.1,6.9-1.2,8.9-0.6c2.7,0.9,5.8,2.1,6.6,0.4c0.1-0.3-1.5-3.3-6.8-3.7
		S366,242.4,363.6,242.8L363.6,242.8z"/>
</g>
<path class="st5" d="M399,269.5c-3.4,2.2-10.6,1.3-12.6-1.8c-1.2-1.9-0.4-3.6,1.7-5c-0.3,1.8-2,4.3-0.5,4.7c2.6,0.6,5,3.4,8,1.4
	c1.4-0.9,2.6-1.7,3.6,0.3C399.4,269.2,399.1,269.4,399,269.5z"/>
<path class="st5" d="M388.5,269.6c3.5,2.2,10.6,1.2,12.6-1.9c1.2-1.9,0.4-3.6-1.7-5c0.4,1.8,2.1,4.3,0.5,4.7
	c-2.6,0.6-5.1,3.4-8.2,1.4c-1.4-0.9-2.7-1.7-3.7,0.3C387.8,269.2,388.5,269.6,388.5,269.6z"/>
</svg>
