<?xml version="1.0" encoding="utf-8"?>
<!-- Generator: Adobe Illustrator 26.0.3, SVG Export Plug-In . SVG Version: 6.00 Build 0)  -->
<svg version="1.1" id="Layer_1" xmlns="http://www.w3.org/2000/svg" xmlns:xlink="http://www.w3.org/1999/xlink" x="0px" y="0px"
	 viewBox="0 0 200 200" style="enable-background:new 0 0 200 200;" xml:space="preserve">
<style type="text/css">
	.st0{fill:#FFFFFF;}
	.st1{fill:none;stroke:#000000;stroke-width:2;stroke-linecap:round;stroke-miterlimit:10;}
	.st2{fill:none;stroke:#662C34;stroke-width:2;stroke-linecap:round;stroke-miterlimit:10;}
	.st3{fill:#020202;}
	.st4{fill:#5E3E35;}
</style>
<g id="Calque_10_00000007420659330668239660000005854018836687328953_">
	<circle class="st0" cx="79.6" cy="116.4" r="5.3"/>
	<circle cx="79.6" cy="116.4" r="4"/>
	<path class="st1" d="M111.2,104.3c0,0,5.7,0.7,10.4,1.6c3.6,0.7,7.2,1.9,10.5,3.4"/>
	<path class="st1" d="M88.1,103.8c-6.1-4.9-14.8-4.3-20.2,1.4"/>
	<path class="st2" d="M85.7,150.7c3.6,3.6,8.5,5.6,13.6,5.5c5.1-0.3,9.9-2.6,13.3-6.5"/>
	<path class="st3" d="M70.5,114.3c0.6,1,1.9,1.3,2.9,0.6c1.8-1.1,3.8-2.8,5.8-2.1c2.7,0.9,2.5,2.9,5.9,3.3c0.3,0-0.7-6.2-6.1-6.5
		S72.9,113.9,70.5,114.3z"/>
	<path class="st3" d="M127.8,116.9c-0.6,1-1.9,1.3-2.9,0.6c-1.8-1.1-6.9-1.2-8.9-0.6c-2.7,0.9-5.8,2.1-6.6,0.4
		c-0.1-0.3,1.5-3.3,6.8-3.7S125.3,116.5,127.8,116.9L127.8,116.9z"/>
</g>
<path class="st4" d="M104.7,140.4c-3.4,2.2-10.6,1.3-12.6-1.8c-1.2-1.9-0.4-3.6,1.7-5c-0.3,1.8-2,4.3-0.5,4.7c2.6,0.6,5,3.4,8,1.4
	c1.4-0.9,2.6-1.7,3.6,0.3C105.1,140.1,104.8,140.3,104.7,140.4z"/>
<path class="st4" d="M94.2,140.5c3.5,2.2,10.6,1.2,12.6-1.9c1.2-1.9,0.4-3.6-1.7-5c0.4,1.8,2.1,4.3,0.5,4.7
	c-2.6,0.6-5.1,3.4-8.2,1.4c-1.4-0.9-2.7-1.7-3.7,0.3C93.5,140.1,94.2,140.5,94.2,140.5z"/>
</svg>
