<?xml version="1.0" encoding="utf-8"?>
<!-- Generator: Adobe Illustrator 26.0.1, SVG Export Plug-In . SVG Version: 6.00 Build 0)  -->
<svg version="1.1" id="Calque_1" xmlns="http://www.w3.org/2000/svg" xmlns:xlink="http://www.w3.org/1999/xlink" x="0px" y="0px"
	 viewBox="0 0 788 1005" style="enable-background:new 0 0 788 1005;" xml:space="preserve">
<style type="text/css">
	.st0{fill:#1A1818;}
	.st1{fill:#705F46;}
	.st2{fill:#3A4649;}
	.st3{fill:#172F35;}
	.st4{fill:#A85B3B;}
</style>
<polygon class="st0" points="230.3,514 230.2,514 230.2,514 "/>
<polygon points="230.4,514 230.4,514 230.3,514 "/>
<polygon class="st0" points="230.3,514 230.2,514 230.2,514 "/>
<polygon points="230.4,514 230.4,514 230.3,514 "/>
<path class="st1" d="M336.8,654.7c-13.9-0.2-22.3,6.2-24.9,16.8c0,0-7.1,51.3-8.3,71.3c-1.9,32.1,2.5,94.1,7.2,126c1,7,3,28,3,28
	c0.7,6.3,6.4,11,13.2,11l0,0c6.7-0.1,12.2-4.8,12.9-10.9c0,0,2.2-24.2,3.5-32.2c4.6-29,18-86.6,20-115.9c1.2-17.6-0.4-71.8-0.4-71.8
	C362.1,659.2,348.7,655.2,336.8,654.7L336.8,654.7z"/>
<path class="st2" d="M326.3,889.4L326.3,889.4c-5.9,0-11.3,3.3-14.1,8.5l0,0c-5.8,11.4-30.5,26.7-30.5,26.7c-4.4,3-6.6,8.3-5.6,13.6
	l0,0l60.3-0.3l3.4-1c3.8-0.9,6.3-4.4,6-8.3l-3.5-27.7C340.5,894,333.9,889.2,326.3,889.4z"/>
<path class="st3" d="M277.8,937.9L277.8,937.9c-0.8-4.6,2.6-8.9,7.5-9.6l35.9-5c4.5-0.7,8.8,2,10.1,6.3l2.1,7.9L277.8,937.9z"/>
<path class="st1" d="M452.6,654.7c12.4-0.2,19.9,6.2,22.2,16.8c0,0,9.1,47.2,11.2,67.1c4.5,42.6-5.4,99.2-10.2,130.2
	c-1.1,7-2.7,28-2.7,28c-0.5,6.2-5.6,11-11.8,11l0,0c-6.1-0.2-11-4.9-11.5-10.9c0,0-2-24.2-3.1-32.2c-4.1-29-16.1-86.6-17.9-115.9
	c-1.1-17.6,0.4-71.8,0.4-71.8C429.9,659.2,441.9,655.2,452.6,654.7L452.6,654.7z"/>
<path class="st4" d="M475.6,885.8c-1.2,31.5,40,35.5,40,35.5c4.4,3.2-67,20.2-66.6,16.5c0,0,1.5-48.2-1-60.4
	C446.2,868.8,476.3,867.3,475.6,885.8z"/>
<path class="st2" d="M464.2,903.3c6.4-2,5.9-6.3,8.5-8.7c1.5-1.4,7.9-3,8.8-1.1c10.7,21,61.2,32.8,61.2,32.8
	c5.4,3.5,6.6,8.4,5.5,13.5l0,0c0,0-26.5,12.5-66,3.5c-5.1-1.2-10.8-1.9-10.8-1.9s-25.4,3-24.1-3.2l0.4-39.2
	C449.5,892.1,453.3,906.7,464.2,903.3z"/>
<path class="st3" d="M547.2,940.2c0.8-8.3-4.3-13.6-6-13.4c-2.5,0.3-6.5,2.2-9,2.6c-4,0.6-13.4,2.5-13.4,2.5
	c-3.1-0.3-5.6,2.5-5.9,6.6l-0.2,8c0,0,3.1,0.1,20.5-2.3C536.1,943.8,547.2,940.2,547.2,940.2z"/>
<path class="st1" d="M317.4,469.5l-2.2,19.1l-21.9,427.9l14.5-11.9c6.5-4.1,14.7-4,21,0.2l16.8,18.4c0,0,21.4-151.9,24.1-183.2
	c1.6-18.2,3.9-53.9,6.7-71.9c4.1-26.3,19.5-103.4,19.5-103.4l1.8-95.9L317.4,469.5z"/>
<path class="st1" d="M393.3,478.6l1.7,88.6l27.6,153.5L443.1,881l4.4,38.5l18.3-13.2c24.7-8.2,26.3,0.3,36.2,5.7l-1.1-22.7
	l-8.2-182.5l-22-230.7l-71.1,2.8L393.3,478.6z"/>
<polygon class="st1" points="316.9,484.9 317.4,469.5 470,467 471.2,486.5 "/>
</svg>
