<svg id="Calque_1" data-name="Calque 1" xmlns="http://www.w3.org/2000/svg" viewBox="0 0 388 556.49"><defs><style>.cls-1{fill:#36344d;}.cls-2{fill:#1a1818;}</style></defs><path class="cls-1" d="M136.75,206.15c-13.92-.17-22.33,6.22-24.87,16.83,0,0-7.11,51.27-8.31,71.31-1.93,32.13,2.48,94.1,7.19,126,1,7,3,28,3,28,.66,6.28,6.4,11,13.2,11h0c6.68-.07,12.24-4.78,12.9-10.93,0,0,2.23-24.21,3.5-32.22,4.58-29,18-86.62,20-115.9,1.22-17.63-.44-71.79-.44-71.79-.8-17.79-14.26-21.73-26.18-22.27Z"/><path class="cls-1" d="M126.26,440.86h0a16.15,16.15,0,0,0-14.12,8.48h0c-5.84,11.43-30.55,26.74-30.55,26.74A13.51,13.51,0,0,0,76,489.63h0l60.27-.31,3.39-.95a7.94,7.94,0,0,0,6-8.31l-3.46-27.74C140.52,445.48,133.85,440.69,126.26,440.86Z"/><path class="cls-1" d="M77.77,489.35h0c-.82-4.58,2.56-8.9,7.52-9.6l35.85-5A9,9,0,0,1,131.21,481l2.06,7.88Z"/><path class="cls-1" d="M252.56,206.15C265,206,272.5,212.37,274.78,223c0,0,14.38,49.42,15.45,69.46C292,324.56,280,388.39,275.77,420.27c-.92,7-2.66,28-2.66,28a11.88,11.88,0,0,1-11.8,11h0a11.88,11.88,0,0,1-11.51-10.93s-2-24.21-3.12-32.22c-4.1-29-16.08-86.62-17.88-115.9-1.09-17.63.39-71.79.39-71.79.71-17.79,12.73-21.73,23.37-22.27Z"/><path class="cls-1" d="M275.57,437.3c-1.21,31.5,40.05,35.54,40.05,35.54,4.43,3.21-67,20.22-66.61,16.48,0,0,1.45-48.17-1-60.39C246.21,420.34,276.28,418.81,275.57,437.3Z"/><path class="cls-1" d="M262.7,454.76c6.38-2,5.93-6.31,8.47-8.67,1.54-1.43,7.87-3,8.79-1.13,10.69,21,61.16,32.75,61.16,32.75,5.36,3.54,6.57,8.43,5.55,13.55h0S302.9,499.93,278.9,490c-4.8-2-9,2.83-9,2.83s-22.42,3.45-21.15-2.84l-2.54-39.54C248,443.63,251.75,458.22,262.7,454.76Z"/><path class="cls-1" d="M347.19,491.67c.85-8.34-4.26-13.57-6-13.37-2.5.3-6.51,2.21-9,2.61-4,.64-16-.26-16-.26-3.07-.3-5.61,2.55-5.86,6.56l-.2,8s7.32.93,24.64-1.47C337.71,493.35,347.19,491.67,347.19,491.67Z"/><path class="cls-1" d="M117.08,21l-2.16,19.08L102,181.35,95.19,424.09c-.32,11.51,5.81,22.35,16.22,28.65l3.27,2,16.36-1c19.83-1.19,35.76-15.59,37.52-33.93,3.64-38,9.46-98.95,11.31-119.9,1.61-18.18.3-59.4,3.11-77.45,4.1-26.3,12.84-106.33,12.84-106.33l1.77-95.91Z"/><path class="cls-1" d="M188.54,30.08l1.64,88.55,19.57,150.72L227.2,423l2.19,7c4.6,14.79,19.89,24.47,36.43,23.07l2.47-.21c16.56-1.4,30.24-12.57,33.8-27.61l1.1-4.66-8.27-137.29L267,20.84,186.4,19.06Z"/><path class="cls-1" d="M109.29,458.09S114,455,118.2,455a22.46,22.46,0,0,1,10,2.88"/><path class="cls-1" d="M290.47,454.07a33.67,33.67,0,0,1-9,2"/><path class="cls-1" d="M296.13,458.66a33.09,33.09,0,0,1-8.86,2.53"/><polygon class="cls-2" points="30.32 65.5 30.22 65.54 30.22 65.46 30.32 65.5"/><polygon points="30.42 65.46 30.42 65.54 30.32 65.5 30.42 65.46"/><polygon class="cls-2" points="30.32 65.5 30.22 65.54 30.22 65.46 30.32 65.5"/><polygon points="30.42 65.46 30.42 65.54 30.32 65.5 30.42 65.46"/></svg>