<svg id="Calque_1" data-name="Calque 1" xmlns="http://www.w3.org/2000/svg" viewBox="0 0 788 1005"><defs><style>.cls-1{fill:#36344d;}.cls-2{fill:#1a1818;}</style></defs><path class="cls-1" d="M336.75,654.66c-13.92-.17-22.33,6.22-24.87,16.82,0,0-7.11,51.28-8.31,71.32-1.93,32.13,2.48,94.1,7.19,126,1,7,3,28,3,28,.66,6.28,6.4,11,13.2,11h0c6.68-.07,12.24-4.78,12.9-10.93,0,0,2.23-24.21,3.5-32.22,4.58-29,18-86.62,20-115.9,1.22-17.63-.44-71.79-.44-71.79-.8-17.79-14.26-21.73-26.18-22.27Z"/><path class="cls-1" d="M326.26,889.37h0a16.15,16.15,0,0,0-14.12,8.48h0c-5.84,11.43-30.55,26.74-30.55,26.74A13.51,13.51,0,0,0,276,938.14h0l60.27-.31,3.39-1a7.94,7.94,0,0,0,6-8.31l-3.46-27.74C340.52,894,333.85,889.2,326.26,889.37Z"/><path class="cls-1" d="M277.77,937.86h0c-.82-4.58,2.56-8.9,7.52-9.6l35.85-5a9,9,0,0,1,10.07,6.27l2.06,7.88Z"/><path class="cls-1" d="M452.56,654.66c12.44-.17,19.94,6.22,22.22,16.82,0,0,14.38,49.43,15.45,69.47C492,773.07,480,836.9,475.77,868.78c-.92,7-2.66,28-2.66,28a11.88,11.88,0,0,1-11.8,11h0a11.88,11.88,0,0,1-11.51-10.93s-2-24.21-3.12-32.22c-4.1-29-16.08-86.62-17.88-115.9-1.09-17.63.39-71.79.39-71.79.71-17.79,12.73-21.73,23.37-22.27Z"/><path class="cls-1" d="M475.57,885.81c-1.21,31.5,40.05,35.54,40.05,35.54,4.43,3.21-67,20.22-66.61,16.48,0,0,1.45-48.17-1-60.39C446.21,868.85,476.28,867.32,475.57,885.81Z"/><path class="cls-1" d="M462.7,903.27c6.38-2,5.93-6.31,8.47-8.67,1.54-1.43,7.87-3,8.79-1.13,10.69,21,61.16,32.75,61.16,32.75,5.36,3.54,6.57,8.43,5.55,13.55h0s-43.77,8.67-67.77-1.23c-4.8-2-9,2.83-9,2.83s-22.42,3.45-21.15-2.84L446.22,899C448,892.14,451.75,906.73,462.7,903.27Z"/><path class="cls-1" d="M547.19,940.18c.85-8.34-4.26-13.57-6-13.37-2.5.3-6.51,2.21-9,2.61-4,.64-16-.26-16-.26-3.07-.3-5.61,2.55-5.86,6.56l-.2,8s7.32.93,24.64-1.47C537.71,941.86,547.19,940.18,547.19,940.18Z"/><path class="cls-1" d="M317.08,469.55l-2.16,19.08L302,629.86,295.19,872.6c-.32,11.51,5.81,22.35,16.22,28.65l3.27,2,16.36-1c19.83-1.19,35.76-15.59,37.52-33.93,3.64-38,9.46-99,11.31-119.9,1.61-18.18.3-59.4,3.11-77.46,4.1-26.29,12.84-106.32,12.84-106.32l1.77-95.91Z"/><path class="cls-1" d="M388.54,478.59l1.64,88.55,19.57,150.72L427.2,871.54l2.19,7c4.6,14.79,19.89,24.47,36.43,23.07l2.47-.21c16.56-1.4,30.24-12.57,33.8-27.61l1.1-4.66-8.27-137.29L467,469.35l-80.62-1.78Z"/><path class="cls-1" d="M309.29,906.6s4.74-3.11,8.91-3.1a22.46,22.46,0,0,1,10,2.88"/><path class="cls-1" d="M490.47,902.58a33.67,33.67,0,0,1-9,2"/><path class="cls-1" d="M496.13,907.17a33.09,33.09,0,0,1-8.86,2.53"/><polygon class="cls-2" points="230.32 514.01 230.22 514.05 230.22 513.97 230.32 514.01"/><polygon points="230.42 513.97 230.42 514.05 230.32 514.01 230.42 513.97"/><polygon class="cls-2" points="230.32 514.01 230.22 514.05 230.22 513.97 230.32 514.01"/><polygon points="230.42 513.97 230.42 514.05 230.32 514.01 230.42 513.97"/></svg>