<svg xmlns="http://www.w3.org/2000/svg" viewBox="0 0 788 705.02"><defs><style>.cls-1{fill:#614652;}.cls-2{fill:#d79072;}.cls-3{fill:#c4a69f;}.cls-4{fill:#b18980;}.cls-5,.cls-8{fill:none;stroke-miterlimit:10;}.cls-5{stroke:#000;stroke-width:3px;}.cls-6{fill:#6999aa;}.cls-7{fill:#473415;}.cls-8{stroke:#4f3742;}.cls-9{fill:#8f5648;}</style></defs><g id="Calque_5" data-name="Calque 5"><polygon points="243.33 179.56 243.43 179.52 243.33 179.47 243.33 179.56"/><polygon points="243.43 179.52 243.53 179.56 243.53 179.47 243.43 179.52"/><polygon points="243.33 179.56 243.43 179.52 243.33 179.47 243.33 179.56"/><polygon points="243.43 179.52 243.53 179.56 243.53 179.47 243.43 179.52"/><path class="cls-1" d="M345.33,352a26.84,26.84,0,0,0,28.95,20.17h0a26.84,26.84,0,0,0,23.83-24.36s4.74-90.67,1.8-122.63c-.69-7.56-5.55-29.86-5.55-29.86l-11.54-51.91S376,119.1,349.38,119.33c-30.63.26-29.5,16.57-29.5,16.57s-2.39,80.27.66,106.72C323.34,267,345.33,352,345.33,352Z"/><path class="cls-2" d="M366.52,331.11c-13.79,2-21,10.12-21.73,21.83,0,0,1.63,55.8,3.82,77.36,3.52,34.56,18.33,100,28.36,133.23,2.2,7.29,7.68,29.44,7.68,29.44a13.13,13.13,0,0,0,14.9,9.62h0a13.12,13.12,0,0,0,10.89-13.68s-1.88-26.17-2-34.91c-.38-31.68,3.16-95.19.22-126.73-1.78-19-12.55-76.5-12.55-76.5-3.79-18.85-17.75-20.94-29.61-19.66Z"/><path class="cls-3" d="M396.45,584.75h0a16.06,16.06,0,0,0-14.16,9.1h0c-5.91,12.31-30.7,28.72-30.7,28.72a15.13,15.13,0,0,0-5.61,14.6h0l60.27,0,3.39-1a8.52,8.52,0,0,0,6.05-8.94l-3.32-30A16,16,0,0,0,396.45,584.75Z"/><path class="cls-4" d="M347.71,636.88h0a9,9,0,0,1,7.57-10.32l35.87-5.24a9,9,0,0,1,10,6.82l2,8.51Z"/><path class="cls-5" d="M435.7,90.92c16.15,4.62,23.2,8.52,27,14.67,3.11,5,6,16.37,6.27,22,.55,13.34-7.77,46.89-21.93,58.08-14.4,11.39-84.79,11.39-99.19,0C333.73,174.53,325.41,141,326,127.64c.23-5.68,3.16-17.08,6.27-22,3.84-6.15,10.88-10,27-14.67,18.49-5.3,37.3-4.46,37.3-4.46S417.21,85.62,435.7,90.92Z"/><path class="cls-1" d="M644.59,158.33a26.83,26.83,0,0,1,17.23,30.79h0a26.84,26.84,0,0,1-26.58,21.32s-90.7-4.16-122.22-10.21c-7.78-1.5-79.69-25-79.69-25s-22.41-2.92-20.68-35.64C414.2,110.41,432,111.83,432,111.83s79.14,5.24,105.17,10.86C561.19,127.87,644.59,158.33,644.59,158.33Z"/><path class="cls-2" d="M660.39,180c6.12,10.83,3.65,20.72-5.32,28.2,0,0-40,38.17-58.44,49.48-29.63,18.12-95.87,40.6-128.11,53.39-7,2.8-27.85,12.16-27.85,12.16-6.23,2.71-13.19.68-16-4.69h0c-2.79-5.28-.7-12.06,4.85-15.77,0,0,22-14.26,29.05-19.39,25.56-18.61,74.41-58.9,101.3-75.62C576,197.71,628.08,171,628.08,171c17.22-8.58,26.7-.07,32.31,9Z"/><path class="cls-2" d="M451,314.6c-33.88,3.17-34.13,53.2-34.13,53.2-2.87,4.83-30.27-63.65-26.21-63.78,0,0,51.77-5.24,64.52-9.41C464.18,291.67,470.91,312.74,451,314.6Z"/><path class="cls-3" d="M438.08,310.79c3,6,7.52,5,10.37,7.19,1.73,1.33,4.18,7.39,2.34,8.56-21.1,13.51-27.21,65.2-27.21,65.2-3.1,5.81-8.18,7.68-13.79,7.39h0s-14.92-42.21-7.4-67.38c1.51-5.05-4.18-8.53-4.18-8.53s-6.58-21.75.31-21.37l42-8C448.09,294.61,433,300.4,438.08,310.79Z"/><path class="cls-6" d="M400.77,401.71c9-.31,14-6.1,13.55-7.8-.64-2.43-3.21-6.14-3.95-8.55-1.19-3.84-1.77-15.86-1.77-15.86-.08-3.09-3.46-5.21-7.78-4.89l-8.6.91s-.05,7.38,4.74,24.22C397.76,392.54,400.77,401.71,400.77,401.71Z"/><polygon class="cls-7" points="318.08 151.32 319.58 128.82 474.58 128.82 476.58 148.32 318.08 151.32"/><path class="cls-4" d="M379.39,603.28s4.75-3.34,8.92-3.31c5.11,0,9.95,3.16,9.95,3.16"/><polygon class="cls-8" points="395.95 189.87 390.95 149.87 405.95 149.87 404.95 182.15 395.95 189.87"/><path class="cls-9" d="M319.58,128.82s58-10.84,148.55-14.24C537.79,112,647.78,149.22,657,161.13s15.82,39.15,6.78,44.25c-30.3,17.09-72.94,76.72-99.67,88.95-65.85,30.12-79.44,10.49-87.51,13.63S464,313,464,313l-16.7-21.87s16.81-10.22,16.7-11.73c-.06-.95,13.39-24.19,29.79-47.73,9.66-13.86,27.12-21.21,37.25-21.21,0,0-59.95,32.48-135.61-10.36C355.71,177.63,319.58,128.82,319.58,128.82Z"/><path class="cls-9" d="M322.81,119.33c-1.27,2.28-9.62,71.19-10.54,120.85s-20.73,225.31,5.27,257.5,59.15,65.86,59.15,65.86l4.21,19.69c8.62-3.7,29.72-6.38,29.72-6.38l-1.8-15.58c4.65-7.82,29.93-72.79,25.09-105s-22.76-16.92-23.29-57.53c-.53-40.79-3.86-96.52-4.67-96.42,17.46-25,16.1-65.86,24.66-87s1.07-99-7-98.38S329.67,107,322.81,119.33Z"/><path class="cls-9" d="M322.65,167.46c-1.34-2.29-4.57-16.14-4.57-16.14s-.74-25.71,4.57-39.5S361.41,83.55,406,86.41s54.1,12.76,61.63,22.38.5,20.69-1.51,21.69-140.59,50.87-143.42,39.39"/></g></svg>