<svg xmlns="http://www.w3.org/2000/svg" viewBox="0 0 788 1005"><defs><style>.cls-1{fill:#614652;}.cls-2{fill:#d79072;}.cls-3{fill:#3a4649;}.cls-4{fill:#172f35;}.cls-5{fill:#432d35;}</style></defs><g id="Calque_5" data-name="Calque 5"><polygon points="230.22 479.54 230.32 479.5 230.22 479.45 230.22 479.54"/><polygon points="230.32 479.5 230.42 479.54 230.42 479.45 230.32 479.5"/><polygon points="230.22 479.54 230.32 479.5 230.22 479.45 230.22 479.54"/><polygon points="230.32 479.5 230.42 479.54 230.42 479.45 230.32 479.5"/><path class="cls-1" d="M323.12,648.68c1,13.36,10.33,23.8,21.81,24.44h0c11,.62,20.78-7.9,23.43-20.34,0,0,16.15-88.81,17.95-120.84.42-7.58-.7-30.36-.7-30.36l-2.82-53.07s-2.54-25.06-25.08-29c-26-4.53-27.19,11.77-27.19,11.77s-12.77,78.9-13.74,105.5C315.89,561.3,323.12,648.68,323.12,648.68Z"/><path class="cls-2" d="M336.75,631.38c-13.92-.19-22.33,6.71-24.87,18.16,0,0-7.11,55.37-8.31,77-1.93,34.69,2.48,101.61,7.19,136,1,7.53,3,30.27,3,30.27A13.11,13.11,0,0,0,327,904.68h0a13.11,13.11,0,0,0,12.9-11.81s2.23-26.14,3.5-34.79c4.58-31.35,18-93.52,20-125.14,1.22-19-.44-77.52-.44-77.52-.8-19.21-14.26-23.46-26.18-24Z"/><path class="cls-3" d="M326.26,884.8h0A16.06,16.06,0,0,0,312.14,894h0c-5.84,12.34-30.55,28.87-30.55,28.87A15.14,15.14,0,0,0,276,937.47h0l60.27-.33,3.39-1a8.54,8.54,0,0,0,6-9l-3.46-30A16,16,0,0,0,326.26,884.8Z"/><path class="cls-4" d="M277.77,937.17h0a9,9,0,0,1,7.52-10.37l35.85-5.41a9,9,0,0,1,10.07,6.77l2.06,8.51Z"/><path class="cls-5" d="M441.15,391.48c18.08,5.22,23.16,10.46,27.46,17.39,3.48,5.62,11.11,23.39,11.37,29.8.61,15.07-10.25,47.21-26.09,59.85-16.11,12.86-94.87,12.86-111,0-15.84-12.64-26.12-52-25.51-67,.26-6.41,4.51-17.83,8-23.45,4.3-6.93,12.18-11.34,30.26-16.56,20.68-6,41.72-5,41.72-5S420.47,385.5,441.15,391.48Z"/><path class="cls-2" d="M452.56,631.38c12.44-.19,19.94,6.71,22.22,18.16,0,0,9.07,50.91,11.18,72.47,4.51,46-5.43,107.1-10.19,140.57-1.07,7.51-2.66,30.27-2.66,30.27-.6,6.77-5.72,11.91-11.8,11.83h0c-6-.08-10.92-5.16-11.52-11.81,0,0-2-26.14-3.11-34.79-4.1-31.35-16.08-93.52-17.88-125.14-1.09-19,.39-77.52.39-77.52.71-19.21,12.73-23.46,23.37-24Z"/><path class="cls-2" d="M475.57,881c-1.21,34,40.05,38.37,40.05,38.37,4.43,3.47-67,21.84-66.61,17.8,0,0,1.45-52-1-65.21C446.21,862.65,476.28,861,475.57,881Z"/><path class="cls-3" d="M464.22,899.81c6.38-2.17,5.93-6.81,8.47-9.36,1.53-1.54,7.86-3.19,8.79-1.22,10.68,22.66,61.16,35.37,61.16,35.37,5.36,3.82,6.56,9.1,5.55,14.63h0s-26.55,13.5-66,3.79c-5.11-1.26-10.76-2.07-10.76-2.07s-25.39,3.3-24.13-3.48l.44-42.28C449.46,887.8,453.27,903.55,464.22,899.81Z"/><path class="cls-4" d="M547.19,939.67c.85-9-4.26-14.65-6-14.43-2.5.32-6.51,2.38-9,2.82-4,.68-13.36,2.75-13.36,2.75-3.07-.32-5.62,2.76-5.86,7.09l-.2,8.63s3.14.07,20.46-2.51C536.13,943.59,547.19,939.67,547.19,939.67Z"/><path class="cls-5" d="M317.4,431.49l-2.17,20.61-21.88,462,14.52-12.88a18.25,18.25,0,0,1,21.05.22l16.83,19.84s21.36-164,24.13-197.77c1.61-19.64,3.92-58.16,6.73-77.66,4.1-28.4,19.53-111.69,19.53-111.69l1.77-103.56Z"/><path class="cls-5" d="M393.32,441.25,395,536.87l27.56,165.75,20.58,173.2,4.37,41.61,18.32-14.31c24.68-8.87,26.28.29,36.16,6.13l-1.09-24.45-8.17-197L480,438.67l-80.44,3Z"/></g></svg>