<svg xmlns="http://www.w3.org/2000/svg" viewBox="0 0 788 1005"><defs><style>.cls-1,.cls-6{fill:none;}.cls-2{fill:#624652;}.cls-3{fill:#614652;}.cls-4{fill:#d79072;}.cls-5{fill:#3f302b;}.cls-6{stroke:#4f3742;stroke-miterlimit:10;}</style></defs><g id="Calque_1" data-name="Calque 1"><path class="cls-1" d="M433.78,392.13c16.16,5.22,23.2,9.63,27,16.56,3.11,5.62,6,18.49,6.27,24.9.55,15.07-7.77,53-21.92,65.58-14.41,12.86-84.8,12.86-99.2,0-14.16-12.63-22.47-50.51-21.93-65.58.23-6.41,3.16-19.28,6.27-24.9,3.84-6.93,10.89-11.34,27.05-16.56,18.48-6,37.29-5,37.29-5S415.29,386.15,433.78,392.13Z"/><polygon class="cls-2" points="486.81 707.89 479.16 604.21 501.1 633.55 506.74 706.23 486.81 707.89"/><polygon class="cls-2" points="296.1 700.89 303.74 597.21 281.81 626.55 276.16 699.23 296.1 700.89"/></g><g id="Calque_7" data-name="Calque 7"><polygon points="230.22 479.54 230.32 479.5 230.22 479.45 230.22 479.54"/><polygon points="230.32 479.5 230.42 479.54 230.42 479.45 230.32 479.5"/><polygon points="230.22 479.54 230.32 479.5 230.22 479.45 230.22 479.54"/><polygon points="230.32 479.5 230.42 479.54 230.42 479.45 230.32 479.5"/><path class="cls-3" d="M312.56,648.68A26.84,26.84,0,0,0,338,673.12h0a26.84,26.84,0,0,0,27.34-20.34S384.2,564,386.29,531.94c.5-7.58-.82-30.36-.82-30.36l-3.28-53.07s-3-25.06-29.27-29c-30.3-4.53-31.73,11.77-31.73,11.77s-14.9,78.9-16,105.5C304.13,561.3,312.56,648.68,312.56,648.68Z"/><path class="cls-4" d="M336.75,631.38c-13.92-.19-22.33,6.71-24.87,18.16,0,0-7.11,55.37-8.31,77-1.93,34.69,2.48,101.61,7.19,136,1,7.53,3,30.27,3,30.27A13.11,13.11,0,0,0,327,904.68h0a13.11,13.11,0,0,0,12.9-11.81s2.23-26.14,3.5-34.79c4.58-31.35,18-93.52,20-125.14,1.22-19-.44-77.52-.44-77.52-.8-19.21-14.26-23.46-26.18-24Z"/><path class="cls-5" d="M326.26,884.8h0A16.06,16.06,0,0,0,312.14,894h0c-5.84,12.34-30.55,28.87-30.55,28.87A15.14,15.14,0,0,0,276,937.47h0l60.27-.33,3.39-1a8.54,8.54,0,0,0,6-9l-3.46-30A16,16,0,0,0,326.26,884.8Z"/><path class="cls-5" d="M277.77,937.17h0a9,9,0,0,1,7.52-10.37l35.85-5.41a9,9,0,0,1,10.07,6.77l2.06,8.51Z"/><path class="cls-3" d="M434,391.48c17.21,5.22,23.6,10.42,28.81,16.56,9.06,10.68,11,33.85,11.22,40.26.58,15.07-12.82,37.58-27.9,50.22-15.34,12.86-90.32,12.86-105.66,0-15.08-12.64-23.94-50.51-23.36-65.58.25-6.41,3.37-19.28,6.68-24.9,4.09-6.93,11.6-11.34,28.81-16.56,19.69-6,39.72-5,39.72-5S414.31,385.5,434,391.48Z"/><path class="cls-3" d="M475.65,648.68a26.83,26.83,0,0,1-25.44,24.44h0a26.83,26.83,0,0,1-27.34-20.34S404,564,401.92,531.94c-.52-7.91,4.1-83.43,4.1-83.43s-2.83-22.42,29.27-29C463.9,413.66,467,431.28,467,431.28s14.9,77.9,16,104.5C484.09,560.3,475.65,648.68,475.65,648.68Z"/><path class="cls-4" d="M452.56,631.38c12.44-.19,19.94,6.71,22.22,18.16,0,0,14.38,53.37,15.45,75,1.72,34.69-10.25,103.61-14.46,138-.92,7.53-2.66,30.27-2.66,30.27-.6,6.77-5.72,11.91-11.8,11.83h0c-6-.08-10.92-5.16-11.51-11.81,0,0-2-26.14-3.12-34.79-4.1-31.35-16.08-93.52-17.88-125.14-1.09-19,.39-77.52.39-77.52.71-19.21,12.73-23.46,23.37-24Z"/><path class="cls-5" d="M478.67,878.51c-5.44,33.59,34.95,43.07,34.95,43.07,4,4-69.2,13.3-68.31,9.34,0,0,7.94-51.43,7.1-64.82C451.83,856.67,481.87,858.78,478.67,878.51Z"/><path class="cls-5" d="M463.55,895.6c6.61-1.36,6.73-6,9.57-8.23,1.72-1.34,8.2-2.18,8.88-.11,7.77,23.81,56.27,42.72,56.27,42.72,4.83,4.46,5.37,9.85,3.68,15.21h0s-44.6,3.83-67.08-9.78c-4.5-2.73-9.3,1.91-9.3,1.91s-22.71.9-20.61-5.68L447.77,889C450.41,881.84,452.22,897.94,463.55,895.6Z"/><path class="cls-5" d="M542.4,945.69c2-8.83-2.39-15.07-4.14-15.07-2.52,0-6.75,1.56-9.27,1.68-4,.18-15.79-2.28-15.79-2.28-3-.7-5.92,2-6.7,6.3l-1.28,8.55s7.14,1.91,24.64,1.5C532.77,946.3,542.4,945.69,542.4,945.69Z"/><path class="cls-3" d="M317.08,431.49l-2.16,20.61L280.26,866.31,305.35,897l39.33-.7L360,871.48s3.13-43.23,4.79-62c3.88-43.89-1.86-61.21.08-84.87,1.61-19.64,13.38-77.36,16.19-96.86,4.09-28.4,14.76-93.59,14.76-93.59l1.77-103.56Z"/><polygon class="cls-3" points="388.55 441.25 390.18 536.87 417.69 702.62 432.12 873.55 449.23 887.67 483.41 887.18 505.22 866.02 493.82 703.16 475.21 448.3 394.75 441.7 388.55 441.25"/><polygon class="cls-6" points="394.57 489.85 389.57 449.85 404.57 449.85 403.57 482.13 394.57 489.85"/></g></svg>