<svg id="Calque_1" data-name="Calque 1" xmlns="http://www.w3.org/2000/svg" viewBox="0 0 788 1005"><defs><style>.cls-1{fill:#595a47;}.cls-2{fill:#3a4649;}.cls-3{fill:#172f35;}.cls-4{fill:#d79072;}</style></defs><polygon class="cls-1" points="230.32 514.01 230.22 514.05 230.22 513.97 230.32 514.01"/><polygon class="cls-1" points="230.42 513.97 230.42 514.05 230.32 514.01 230.42 513.97"/><polygon class="cls-1" points="230.32 514.01 230.22 514.05 230.22 513.97 230.32 514.01"/><polygon class="cls-1" points="230.42 513.97 230.42 514.05 230.32 514.01 230.42 513.97"/><path class="cls-2" d="M326.26,889.37h0a16.15,16.15,0,0,0-14.12,8.48h0c-5.84,11.43-30.55,26.74-30.55,26.74A13.51,13.51,0,0,0,276,938.14h0l60.27-.31,3.39-1a7.94,7.94,0,0,0,6-8.31l-3.46-27.74C340.52,894,333.85,889.2,326.26,889.37Z"/><path class="cls-3" d="M277.77,937.86h0c-.82-4.58,2.56-8.9,7.52-9.6l35.85-5a9,9,0,0,1,10.07,6.27l2.06,7.88Z"/><path class="cls-4" d="M475.57,885.81c-1.21,31.5,40.05,35.54,40.05,35.54,4.43,3.21-67,20.22-66.61,16.48,0,0,1.45-48.17-1-60.39C446.21,868.85,476.28,867.32,475.57,885.81Z"/><path class="cls-2" d="M464.22,903.27c6.38-2,5.93-6.31,8.47-8.67,1.53-1.43,7.86-3,8.79-1.13,10.68,21,61.16,32.75,61.16,32.75,5.36,3.54,6.56,8.43,5.55,13.55h0s-26.55,12.5-66,3.51c-5.11-1.16-10.76-1.91-10.76-1.91s-25.39,3-24.13-3.23l.44-39.16C449.46,892.14,453.27,906.73,464.22,903.27Z"/><path class="cls-3" d="M547.19,940.18c.85-8.34-4.26-13.57-6-13.37-2.5.3-6.51,2.21-9,2.61-4,.64-13.36,2.55-13.36,2.55-3.07-.3-5.62,2.55-5.86,6.56l-.2,8s3.14.07,20.46-2.33C536.13,943.81,547.19,940.18,547.19,940.18Z"/><polygon class="cls-1" points="227.91 535.66 228.01 535.62 227.91 535.57 227.91 535.66"/><polygon class="cls-1" points="228.01 535.62 228.11 535.66 228.11 535.57 228.01 535.62"/><polygon class="cls-1" points="227.91 535.66 228.01 535.62 227.91 535.57 227.91 535.66"/><polygon class="cls-1" points="228.01 535.62 228.11 535.66 228.11 535.57 228.01 535.62"/><path class="cls-1" d="M326.93,469.24l-4.34-.71L293.15,903.89l21-.86,44.77.86h0S375.73,761,378.54,743c4.1-26.3,16.76-178.52,16.76-178.52l1.77-95.91Z"/><polygon class="cls-1" points="388.55 469.32 390.18 567.14 412.42 721.1 432.2 878.95 433.31 907.76 505.56 896.8 505.56 896.8 487.92 706.88 463.63 467.33 379.44 468.71 388.55 469.32"/></svg>