<svg xmlns="http://www.w3.org/2000/svg" viewBox="0 0 788 679.58"><defs><style>.cls-1{fill:#614652;}.cls-2{fill:#d79072;}.cls-3{fill:#3a4649;}.cls-4{fill:#172f35;}.cls-5{fill:#432d35;}</style></defs><g id="Calque_5" data-name="Calque 5"><polygon points="230.22 154.13 230.32 154.09 230.22 154.04 230.22 154.13"/><polygon points="230.32 154.09 230.42 154.13 230.42 154.04 230.32 154.09"/><polygon points="230.22 154.13 230.32 154.09 230.22 154.04 230.22 154.13"/><polygon points="230.32 154.09 230.42 154.13 230.42 154.04 230.32 154.09"/><path class="cls-1" d="M323.12,323.26c1,13.36,10.33,23.8,21.81,24.45h0c11,.62,20.78-7.9,23.43-20.34,0,0,16.15-88.82,17.95-120.84.42-7.58-.7-30.37-.7-30.37l-2.82-53.06s-2.54-25.07-25.08-29c-26-4.53-27.19,11.76-27.19,11.76s-12.77,78.91-13.74,105.51C315.89,235.88,323.12,323.26,323.12,323.26Z"/><path class="cls-2" d="M336.75,306c-13.92-.19-22.33,6.72-24.87,18.16,0,0-7.11,55.37-8.31,77-1.93,34.69,2.48,101.61,7.19,136,1,7.54,3,30.27,3,30.27A13.11,13.11,0,0,0,327,579.26h0a13.11,13.11,0,0,0,12.9-11.8s2.23-26.14,3.5-34.79c4.58-31.35,18-93.53,20-125.15,1.22-19-.44-77.51-.44-77.51-.8-19.22-14.26-23.46-26.18-24.05Z"/><path class="cls-3" d="M326.26,559.39h0a16.05,16.05,0,0,0-14.12,9.16h0c-5.84,12.35-30.55,28.87-30.55,28.87A15.14,15.14,0,0,0,276,612.05h0l60.27-.33,3.39-1a8.54,8.54,0,0,0,6-9l-3.46-30A16,16,0,0,0,326.26,559.39Z"/><path class="cls-4" d="M277.77,611.75h0a9,9,0,0,1,7.52-10.36L321.14,596a9,9,0,0,1,10.07,6.77l2.06,8.5Z"/><path class="cls-5" d="M441.15,66.06c18.08,5.23,23.16,10.46,27.46,17.39,3.48,5.62,11.11,23.39,11.37,29.8.61,15.07-10.25,47.22-26.09,59.86-16.11,12.85-94.87,12.85-111,0-15.84-12.64-26.12-52-25.51-67,.26-6.42,4.51-17.84,8-23.45,4.3-6.94,12.18-11.34,30.26-16.57,20.68-6,41.72-5,41.72-5S420.47,60.09,441.15,66.06Z"/><path class="cls-2" d="M452.56,306c12.44-.19,19.94,6.72,22.22,18.16,0,0,9.07,50.91,11.18,72.47,4.51,46-5.43,107.11-10.19,140.57-1.07,7.52-2.66,30.27-2.66,30.27-.6,6.77-5.72,11.91-11.8,11.83h0c-6-.08-10.92-5.16-11.52-11.8,0,0-2-26.14-3.11-34.79-4.1-31.35-16.08-93.53-17.88-125.15-1.09-19,.39-77.51.39-77.51.71-19.22,12.73-23.46,23.37-24.05Z"/><path class="cls-2" d="M475.57,555.55c-1.21,34,40.05,38.37,40.05,38.37,4.43,3.47-67,21.84-66.61,17.8,0,0,1.45-52-1-65.2C446.21,537.23,476.28,535.58,475.57,555.55Z"/><path class="cls-3" d="M464.22,574.4c6.38-2.18,5.93-6.81,8.47-9.36,1.53-1.54,7.86-3.19,8.79-1.22,10.68,22.66,61.16,35.36,61.16,35.36,5.36,3.82,6.56,9.1,5.55,14.63h0s-26.55,13.5-66,3.8c-5.11-1.26-10.76-2.07-10.76-2.07s-25.39,3.3-24.13-3.49l.44-42.27C449.46,562.39,453.27,578.14,464.22,574.4Z"/><path class="cls-4" d="M547.19,614.26c.85-9-4.26-14.66-6-14.44-2.5.32-6.51,2.39-9,2.82-4,.69-13.36,2.75-13.36,2.75-3.07-.32-5.62,2.76-5.86,7.09l-.2,8.64s3.14.07,20.46-2.52C536.13,618.17,547.19,614.26,547.19,614.26Z"/><path class="cls-5" d="M317.4,106.08l-2.17,20.6-21.88,462,14.52-12.88a18.27,18.27,0,0,1,21.05.23l16.83,19.84s21.36-164,24.13-197.78c1.61-19.63,3.92-58.16,6.73-77.66,4.1-28.4,19.53-111.69,19.53-111.69l1.77-103.55Z"/><path class="cls-5" d="M393.32,115.84,395,211.45,422.52,377.2,443.1,550.41,447.47,592l18.32-14.32c24.68-8.86,26.28.3,36.16,6.14l-1.09-24.45-8.17-197L480,113.25l-80.44,3Z"/></g></svg>