<svg id="Calque_1" data-name="Calque 1" xmlns="http://www.w3.org/2000/svg" viewBox="0 0 788 1005"><defs><style>.cls-1{fill:#844f3d;}.cls-2{fill:#574d3e;}.cls-3{fill:#473415;}.cls-4{fill:#614652;}</style></defs><path class="cls-1" d="M334.29,654.66c-13.93-.17-22.34,6.22-24.88,16.82,0,0-7.1,51.28-8.31,71.32-1.93,32.13,2.49,94.1,7.19,126,1,7-6.29,37.44-6.29,37.44.67,6.27,6.4,11,13.21,11h0c6.67-.07,12.23-4.78,12.9-10.94,0,0,11.51-33.61,12.77-41.62,4.58-29,18-86.62,20-115.9,1.22-17.63-.44-71.79-.44-71.79-.79-17.79-14.25-21.73-26.17-22.27Z"/><path class="cls-2" d="M314.51,898.77h0a16.15,16.15,0,0,0-14.11,8.49h0C294.55,918.69,269.84,934,269.84,934a13.5,13.5,0,0,0-5.55,13.54h0l59.41-.3a6.44,6.44,0,0,0,1.69-.23l2.56-.72a7.94,7.94,0,0,0,6-8.31l-3.4-27.26a6.52,6.52,0,0,0-.19-1C328.46,903.17,321.92,898.61,314.51,898.77Z"/><path class="cls-3" d="M266,947.27h0c-.82-4.59,2.57-8.91,7.53-9.6l35.84-5a9,9,0,0,1,10.07,6.27h0a6.34,6.34,0,0,1-6.08,7.94Z"/><path class="cls-1" d="M450.1,654.66c12.43-.17,19.94,6.22,22.21,16.82,0,0,14.38,49.43,15.45,69.47,1.73,32.12-10.25,95.95-14.45,127.83-.92,7-2.67,28-2.67,28a11.88,11.88,0,0,1-11.79,11h0a11.89,11.89,0,0,1-11.52-10.93s-2-24.21-3.12-32.22c-4.09-29-16.08-86.62-17.88-115.9-1.09-17.63.4-71.79.4-71.79.7-17.79,12.72-21.73,23.37-22.27Z"/><path class="cls-1" d="M473.1,885.81c-1.21,31.5,40.06,35.54,40.06,35.54,4.42,3.21-67,20.22-66.62,16.48,0,0,1.46-48.17-1-60.39C443.74,868.85,473.81,867.32,473.1,885.81Z"/><path class="cls-2" d="M460.24,903.27c6.38-2,5.92-6.31,8.46-8.67,1.54-1.43,7.87-3,8.8-1.13,10.68,21,61.16,32.75,61.16,32.75,5.35,3.54,6.56,8.43,5.55,13.55h0s-43.78,8.67-67.77-1.23c-4.81-2-9,2.83-9,2.83s-22.42,3.45-21.15-2.84L443.75,899C445.48,892.14,449.28,906.73,460.24,903.27Z"/><path class="cls-3" d="M544.72,940.18c.85-8.34-4.26-13.57-6-13.37-2.5.3-6.5,2.21-9,2.61-4,.64-16-.26-16-.26-3.08-.3-5.62,2.55-5.86,6.56l-.2,8s7.32.93,24.63-1.47C535.24,941.86,544.72,940.18,544.72,940.18Z"/><path class="cls-4" d="M314.09,471.38l-2.16,19.09L281.75,908.39a6.34,6.34,0,0,0,6.59,6.66l13.88-.56h.38l34.63.65h0c1.61-18.18,35-224.6,37.8-242.66,4.09-26.3,17.8-106,17.8-106l1.77-95.9Z"/><polygon class="cls-4" points="386.08 478.59 387.72 567.14 415.28 720.64 429.73 878.95 430.85 907.76 485.64 901.87 507.73 899.7 485.45 706.88 460.33 468.73 386.08 468.73 386.08 478.59"/></svg>