<?xml version="1.0" encoding="utf-8"?>
<!-- Generator: Adobe Illustrator 26.0.3, SVG Export Plug-In . SVG Version: 6.00 Build 0)  -->
<svg version="1.1" id="Calque_1" xmlns="http://www.w3.org/2000/svg" xmlns:xlink="http://www.w3.org/1999/xlink" x="0px" y="0px"
	 viewBox="0 0 788 1005" style="enable-background:new 0 0 788 1005;" xml:space="preserve">
<style type="text/css">
	.st0{fill:#1C1938;}
	.st1{fill:#B22947;}
	.st2{fill:#FD8C75;}
	.st3{fill:#F7A386;}
	.st4{fill:#D8776A;}
	.st5{fill:#87213C;}
	.st6{fill:#FF9603;}
	.st7{fill:#D8C5A7;}
	.st8{fill:#FEBC6E;}
	.st9{fill:#FFFFFF;}
	.st10{fill:#35912D;}
	.st11{fill:#E0AA4B;}
	.st12{fill:#7097BA;}
	.st13{fill:#BA3E35;}
</style>
<g>
	<path class="st0" d="M215.6,292.3c12.3,54.7,19.9,110.5,22.6,166.5C225.8,404.1,218.3,348.2,215.6,292.3L215.6,292.3z"/>
</g>
<path class="st1" d="M370.1,318.2l8.6,10.6h27.7l5.5-12.2l46.3,14.6l14.4,4.5l-10.3,57l-8.4,74.1c-0.2,2.8-0.1,5.6,0.4,8.4
	l35.2,140.2c1.2,11.3-9.7,21.6-19.9,24c0,0-55.8,16.6-75,17.4c-19.8,0.7-59.5-11.5-59.5-11.5s-0.1,0-0.2,0
	c-11.1-1.8-30.7-12.9-29-24.9l23.7-146.7c0.5-2.9,0.7-5.8,0.5-8.7c-0.9-16.2-4.3-59.3-4.3-62.4c0-3.7-19.3-63-19.3-66.5L370.1,318.2
	z"/>
<path class="st2" d="M522.1,458.7c-6.3,4-14.7,1.6-19.9-6.1l-50.4-77.5c-0.1-0.1-0.2-0.3-0.2-0.4c-4.9-10.2-0.4-22.7,9.9-27.9
	c10.4-5.1,23-1.2,27.8,9l0,0l38.9,79.9l0,0l0,0C534.4,447.6,529.2,454.2,522.1,458.7z"/>
<path class="st2" d="M525.9,432.5c5.4,8,6,18.2,2.7,27.3l-29.7,78.1c0,0-1.9,7.9-8.9,6.3c-8-1.7-6.2-8.6-6.2-8.6l8.5-88.5
	c0,0,0.9-5,1-5.2c3.1-10.9,12.5-17.4,23.6-14.7C520.3,428,523.6,429.4,525.9,432.5z"/>
<path class="st2" d="M270.7,459.4c6.1,3.6,14.5,1.1,19.2-6.5l47.3-76.7c0.1-0.2,0.2-0.4,0.2-0.5c4.6-10.1,0-22.2-10.3-27
	c-10.3-4.8-22.3-0.6-26.9,9.5l0,0l-36.1,78.8l0,0l0,0C258.6,448.9,263.6,455.2,270.7,459.4z"/>
<path class="st2" d="M289.3,453.7c3.6-8.7,0.3-17.5-4.7-25.5l-43.5-69c0,0-3.4-7.2-9.8-4.3c-7.2,3.2-4.2,9.5-4.2,9.5l25.4,82.9
	c0,0,1.8,4.6,1.9,4.8c5,9.9,15.3,14.3,25.4,9.5C283,460.1,287.9,457.1,289.3,453.7z"/>
<path class="st3" d="M221.4,460.5L221.4,460.5c-0.3-0.3-0.4-0.5-0.7-0.6l0,0L221.4,460.5z"/>
<path class="st2" d="M402.7,382.1c-5.7,3.3-15.9,4.2-21.3,0.7l-53.5-50.1l43.1-16.6h39.4l47.8,17.1L402.7,382.1z"/>
<path class="st4" d="M370.9,316.5l9.7,6.4c5.8,3.9,13.2,4,19.1,0.3l10.8-6.7v-47.3H371L370.9,316.5z"/>
<path class="st1" d="M390.6,381.7L363,318.5c0,0-33.7,9.7-53.9,23.1c-14,21.4-30.3,51.7-34.8,63c-0.7,1.6-0.2,3.4,1.1,4.5l26.3,43.9
	c2.2,1.8,5.7,1.1,6.9-1.6l19.6-31.8c0,0,2.1-20.9,1.3-21.7c-7,47.8,15.8,71.1,15.5,80.5c-0.3,8.5-14.1,12.7-14.1,12.7l125.4,11.3
	c0,0-17.9-28.9-13.3-51c4.4-20.8,14.8-38.2,14.8-38.2l22.9,33c1.3,3.4,5.2,4.8,8.3,3c10.7-6.3,45.3-10.8,45-12
	c-5.2-19.9-19.4-33.6-44.5-81.5c-6.4-9.5-14-16.4-24.8-20.4l-44.3-16.5L390.6,381.7z"/>
<g>
	<path class="st5" d="M420.7,318.5c-11,24.3-22.7,50-34,74.1c-11,24.5-25.2,48.2-30.6,74.8c-0.8,2.9-1.3,7-1.6,10
		c-5.2,43.5-10.7,87.9-16.9,131.4c-0.7,5.1-2.1,15.1-2.9,20.2c0.4-5,1.3-15.4,1.8-20.4c4.1-43.7,9-88.3,14-131.9
		c0.3-3,0.8-7.3,1.6-10.2c5.5-26.9,20-50.7,31.7-75.3C395.6,367.4,408.4,342.2,420.7,318.5L420.7,318.5z"/>
</g>
<path class="st2" d="M228,366.7c0,0-1.5-5.2-5.3-6.4c-1.7-0.6-7.3-10.8-7.9-16.2c-0.6-5.4,14.8-15.4,14.8-15.4L219.3,311
	c0,0-0.4-3.4,2.7-4.5c5.9,2.7,14.3,16.3,16.3,21.3c2,5,2.5,20,2.5,24.8c0,4.8,1.5,8.5,1.5,8.5L228,366.7z"/>
<path class="st2" d="M483.1,543.7l3.3,9.4c0.1,0.2,0.2,0.4,0.2,0.6l7,13.4c1.5,2.7,2.1,3.1,3.9,2.6c0.3-0.1,0.7-0.2,0.9-0.4
	c1.2-0.8,1.5-2.4,0.9-3.7l-4.1-9.4c0.1-2.3,2.5-3.8,4.6-2.8l3.8,1.7c0.6,0.3,1.1,0.7,1.4,1.3l4.6,9.7c0.9,1.4,1,3.2,0.2,4.7l-2.5,7
	c-0.5,1.2-0.2,2.7,0.8,3.5c1.4,1,3.3,0.4,4.1-1.1c0,0,3.4-7.2,4.6-9.9c0.2-0.4,0.4-0.9,0.7-1.3c0.6-0.8,0.7-2,0.2-3.1l-5.3-16.1l0,0
	c-0.4-1-0.9-1.9-1.6-2.7l-17-22.9l-0.9-1.1c-1.4-1.8-4.5,1.1-6.6,3.6c-1.5,1.8-2.6,4-3,6.3l-0.8,4.6
	C482.3,539.7,482.5,541.8,483.1,543.7z"/>
<path class="st6" d="M220.7,289.6c-1.3-1.1-2.6-1.9-3.2-2.9c-1.4-2.2,0.7-9,0.7-9c-3.1,1-7.7,7.4-8.9,13.7
	C213.6,289.6,217.2,293.1,220.7,289.6z"/>
<path class="st7" d="M209.3,291.5c-0.2,0.7-0.3,1.4-0.3,2.1c-0.3,6.9,8.1,10.1,9.4,9.9c1.3-0.2,5.6-2.6,5.4-7.8
	c-0.1-2.9-1.6-4.7-3.1-6C217.2,293.1,213.6,289.6,209.3,291.5z"/>
<path class="st8" d="M419.8,573.1c-0.6,23.9,18.7,43.4,42.4,43.4c4.7,0,9.1-0.8,13.4-2.2c3.9-1.3,6.8-4.5,7.6-8.5
	c2.7-12.4-2.8-31.1,3-33.6c4.3-1.8,7.9,2.8,11.5,5.4c2.9,2.1,7,0,7-3.6l0,0c0-23.7-19.6-43-43.4-42.4
	C438.9,532.2,420.5,550.6,419.8,573.1z M492,566.3c0-2.6,2.1-4.7,4.7-4.7s4.7,2.1,4.7,4.7s-2.1,4.7-4.7,4.7
	C494.1,571.1,492,569,492,566.3z"/>
<path class="st2" d="M492.9,565.7l3,5.6c0.3,0.7,0.6,1.3,0.8,2c0.6,1.4,2.1,2.2,3.6,1.8c0.3-0.1,0.7-0.2,0.9-0.4
	c1.2-0.8,1.5-2.4,0.9-3.7l-3.7-7.3C496.5,564.4,494.7,565,492.9,565.7z"/>
<g>
	<g>
		<path class="st9" d="M478.8,569.6c3.1,0.6,3.8-10.8,0-11.4c-1.6-0.3-3.6-1-5.2-0.3c-3.8,1.8-3.5,7.8-2.8,11.1
			c0.7,3.1,1.2,6.2,1.8,9.3c0.3,1.7,1.9,4,3.5,2.1c1.8-2,1.4-5.6,0.9-7.9c-0.5-2.5-0.9-5-1.4-7.4c-0.1-0.6-0.1-1.1-0.3-1.7
			c-0.1-0.2-0.1-0.3-0.1-0.4c-0.1,2-0.2,4.1-0.3,6c0.2-0.1,0.5,0,0.7,0C476.6,569.5,477.8,569.5,478.8,569.6L478.8,569.6z"/>
	</g>
</g>
<g>
	<g>
		<path class="st10" d="M442.3,570.1c-2.8-2-4.3,9.1-1.4,11.1c1.9,1.3,3.8,2.6,5.7,4c0.2-3.9,0.5-7.6,0.7-11.4
			c-3.9-0.5-7.8-0.9-11.8-1.4c-3.4-0.4-3.2,10.1-0.7,11.4c5.5,2.7,10.9,5.5,16.4,8.2c0.2-3.9,0.5-7.6,0.7-11.4
			c-4.5,0.1-9,0.2-13.6,0.3c-3.7,0.1-3.5,11.7,0,11.6c4.5-0.1,9-0.2,13.6-0.3c3.6-0.1,3.3-10.1,0.7-11.4c-5.5-2.7-10.9-5.5-16.4-8.2
			c-0.2,3.9-0.5,7.6-0.7,11.4c3.9,0.5,7.8,0.9,11.8,1.4c2,0.3,2.5-3.8,2.5-5c0.2-1.9,0-5.1-1.8-6.3
			C446,572.8,444.1,571.4,442.3,570.1L442.3,570.1z"/>
	</g>
</g>
<g>
	<g>
		<path class="st11" d="M462.1,546.1c-0.3-1.4-1.6-3.5-3-1.8c-1.4,1.8-1.2,4.7-0.8,6.8c0.6,2.5,1.1,5.2,1.7,7.8
			c0.3,1.3,1.6,3.5,3,1.8c1.4-1.8,1.2-4.7,0.8-6.8C463.3,551.4,462.7,548.7,462.1,546.1L462.1,546.1z"/>
	</g>
</g>
<g>
	<g>
		<path class="st12" d="M438.7,556.4c0.8-2.5,1.1-5.7,0-8.2c-0.8-1.9-2.8-2.3-3.6,0c-1.8,5.1-1.9,12.3,2.2,16.3
			c2.9,2.9,7.6,3.7,11.5,4.9c3.9,1.2,4.4-10.2,1.3-11.2c-2.3-0.8-4.4-1.4-6.6-2.2c-1.3-0.4-2.8-0.8-3.9-1.8
			c-0.3-0.3-0.5-0.5-0.7-0.8c-0.3-0.3-0.1,0.5,0,0.1c0.1-0.6,0.1,1,0.1,1.2c-0.1-1.2-0.1,1.3,0,0.3
			C438.8,557.5,439.6,553.6,438.7,556.4L438.7,556.4z"/>
	</g>
</g>
<g>
	<g>
		<path class="st13" d="M469.1,597.3c2,1.3,3-3,3.2-4c0.3-2.2,0.2-5.7-1.8-7.2c-2.8-2-6.9-3.2-9.5-0.4c-3.1,3.3-3.8,8.6-4.1,12.9
			c-0.1,1.2,0.4,5.8,2.5,5.7c2.3,0,2.5-4.2,2.5-5.7c-0.2,2.7-0.1,1.1,0,0.5c0,0,0.1-1.1,0-0.4c-0.1,0.8,0.2-0.7,0.2-0.7
			c0.1-0.5,0.5-1.8,1.4-2.4C465.3,594.9,467.8,596.3,469.1,597.3L469.1,597.3z"/>
	</g>
</g>
</svg>
