<?xml version="1.0" encoding="utf-8"?>
<!-- Generator: Adobe Illustrator 26.0.3, SVG Export Plug-In . SVG Version: 6.00 Build 0)  -->
<svg version="1.1" id="Calque_1" xmlns="http://www.w3.org/2000/svg" xmlns:xlink="http://www.w3.org/1999/xlink" x="0px" y="0px"
	 viewBox="0 0 414 354.5" style="enable-background:new 0 0 414 354.5;" xml:space="preserve">
<style type="text/css">
	.st0{fill:#FD8C75;}
	.st1{fill:#E27B6A;}
	.st2{fill:#B70F67;}
</style>
<g id="Calque_10">
	<path class="st0" d="M293.6,130.5c-4.2,13.3-17.1,8.9-27,17.2c-11.5,9.8-4.1,31.2-5.7,41.2c-1.1,6.6-10.5,23.5-14.5,22.5
		c-11.4-2.6-17.9-22.1-28.2-27.7c-6-3.3-8.7-6.5-14.5-2.6c-5.8-3.8-8.5-0.6-14.5,2.6c-10.4,5.7-16.7,25.1-28.2,27.7
		c-4.1,1-13.4-16-14.5-22.5c-1.6-9.8,2.6-29.1-8.9-39c-9.7-8.4-22.6-3.9-27-17.2c-7.4-23.3,14.3-40.7,24.8-44.8
		c10.1-3.9,22.9-5.1,32.7-7.7c5.9-1.6,10.8-3.7,13.3-7.4l1-29.3l0.7-21.4l19.4-0.8h2.3l19.4,0.8l0.7,21.4l0.3,10.5l0.6,18.8
		c2,2.9,5.4,4.8,9.7,6.2c10.2,3.5,25.1,4.4,36.3,8.8C282.5,91.9,301,107.3,293.6,130.5z"/>
	<path class="st1" d="M181.4,71.7c0,0,34.2,13.4,44.2-10.1L224.2,22h-41L181.4,71.7z"/>
	<path class="st0" d="M157,116.7c-4.2,20.8-17.4,23.9-25.1,29.9c-12.2,9.6-28.4,37-38.4,48.6c-4.7,5.5-17.9,16.5-26.2,8.9l0,0
		c-10.3-10.3-2.8-23.1,1.3-28.8c8.3-11.6,27.4-33.4,33.8-46.3c4.7-9.6,7.4-20,22.4-28.8c0,0,14.8-9.8,25.5-2.9
		C156.9,101.7,158.8,108.1,157,116.7z"/>
	<path class="st0" d="M89.5,189.4c-3.8-14-14.7-11.4-20.7-10.6c-6.5,0.9-66.6,23.3-83,29c-9.3,3.2-14.3,4.6-13,10.4
		c1.3,5.2,11.3,4.8,15.3,4.7c37.3-0.9,65.4-3.3,90.4-16C94.9,198.7,90.5,193,89.5,189.4z"/>
	<path class="st0" d="M-52.8,208c-3.7,2-8.5,4.3-12.2,6c-2.9,1.4-3,5.5-0.1,7c0.7,0.3,1.3,0.6,1.9,0.6c1.4,0.1,6.4-2.1,8.8-3.2
		c0.9-0.4,1.9-0.5,2.8-0.2l1.6,0.5c2.4,0.8,3.4,3.5,2.1,5.7c-1.3,2.2-2.5,4.2-5.1,7.4c-3.1,3.8-12.9,9.7-17.5,11.6
		c-2.6,1.1-8.7,0.9-10.8,2.5c-0.2,0.1-0.3,0.3-0.5,0.5c-1.9,2.6,0.2,6.2,3.4,6.1l8.3-0.5c0.4,0,0.7-0.1,1.1-0.2
		c3.2-1.1,20-7.2,25.8-9.8c6.8-3.1,19.7-10.9,25-16.1c1.6-1.6,4.9-4.9,3.8-9.8c-1-4.1-5.2-5.6-8-6.4
		C-27.1,208.5-52.4,207.8-52.8,208z"/>
	<path class="st0" d="M249.3,106.8c0.7,20.6,12.8,25.6,19.2,32.5c10.1,11.1,21.2,39.9,29,52.6c3.7,6,14.4,18.6,23.6,12.7l0,0
		c11.4-8.1,6.4-21.7,3.4-27.8c-6.1-12.5-20.9-36.3-24.9-49.6c-3-9.9-3.8-20.4-16.8-31.1c0,0-12.6-11.7-23.8-6.8
		C251.7,92.5,249,98.3,249.3,106.8L249.3,106.8z"/>
	<path class="st0" d="M302.2,187c5.8-12.9,15.9-8.6,21.5-6.8c6.1,1.9,59.9,32.9,74.8,41c8.3,4.6,12.9,6.8,10.7,12
		c-2.1,4.8-11.6,2.8-15.4,2.1c-35.6-6.8-62-13.6-83.9-29.6C295.6,195.1,300.7,190.3,302.2,187z"/>
	<path class="st0" d="M436,228.1c3.1,2.4,6.9,5.1,10,7.2c2.6,1.8,2,5.9-1,6.8c-0.7,0.2-1.3,0.3-1.8,0.3c-1.4-0.1-5.8-3-7.9-4.4
		c-0.8-0.5-1.7-0.8-2.7-0.6l-1.4,0.2c-2.4,0.3-3.9,2.9-3,5.2s1.7,4.4,3.7,7.7c2.3,4.1,10.7,11.4,14.9,13.9c2.3,1.4,8.2,2.2,10,4.1
		c0.1,0.1,0.1,0.2,0.2,0.3c1.7,2.8-1,6.2-4.2,5.5l-7.7-1.7c-0.4-0.1-0.7-0.2-1-0.4c-2.9-1.6-18-10-23.1-13.4
		c-6-4.1-17.2-13.6-21.3-19.3c-1.3-1.9-3.8-5.5-2.1-9.9c1.6-3.8,5.9-4.6,8.7-4.9c3.7-0.5,23.2,2,27.9,2.8
		C434.9,227.4,435.5,227.7,436,228.1z"/>
	<path class="st2" d="M141.8,270.8l2-17.2H258l4.4,16.4c1,3.5-1.2,7.2-4.7,8.1c-0.5,0.1-1.2,0.2-1.7,0.2H148.6
		c-3.7,0-6.8-3.1-6.8-6.8C141.8,271.4,141.8,271,141.8,270.8z"/>
	<path class="st2" d="M116.6,98.4l25.3,88.9c0.2,0.7,0.3,1.4,0.2,2.1l-3.7,50c-0.1,1,0.1,1.9,0.5,2.8l4.9,11.5H258l3.7-15.3
		c1.2-1.7,1.5-3.9,0.7-5.8l-4.2-27.7c-0.5-1.2-0.6-2.5-0.3-3.8l14.4-56c0.1-0.2,0.1-0.4,0.2-0.6l16-41.8c1.1-2.8-0.1-5.9-2.6-7.3
		l-16.6-9.3c-1.2-0.6-2.5-0.9-3.8-0.7l-63.6,9.8c-0.7,0.1-1.3,0.1-2,0l-56.5-10.7c-1-0.2-2-0.1-3,0.2l-19.9,6.5
		C117.5,92.1,115.7,95.3,116.6,98.4z"/>
</g>
</svg>
