<?xml version="1.0" encoding="utf-8"?>
<!-- Generator: Adobe Illustrator 26.0.3, SVG Export Plug-In . SVG Version: 6.00 Build 0)  -->
<svg version="1.1" id="Calque_1" xmlns="http://www.w3.org/2000/svg" xmlns:xlink="http://www.w3.org/1999/xlink" x="0px" y="0px"
	 viewBox="0 0 388 354.5" style="enable-background:new 0 0 388 354.5;" xml:space="preserve">
<style type="text/css">
	.st0{fill:none;stroke:#333333;stroke-miterlimit:10;}
	.st1{fill:#D31149;}
	.st2{fill:#C60C4B;}
	.st3{fill:#FD8C75;}
	.st4{fill:#E07D6C;}
	.st5{fill:#95C1BE;}
</style>
<path class="st0" d="M205.3,344.1c-19.1-17.4-54.6-20.2-68-38.6c-13.4-18.4,11.3-68,0-85s-46-20.6-58.8-36.1s-14.2-62.3-14.2-62.3"
	/>
<path class="st0" d="M95.2,119.8c-2.3,25.7-26.4,51.8-23.8,74.5s54.5,42.3,57.7,62.5c3.3,20.2-19.8,46.3-18.6,66.4
	c2.4,43.6,90.1,17,90.1,17"/>
<path class="st1" d="M69.4,28.4c9.2-52.5,76.8-23,71.3,13.6c-5.4,35.5-45.7,80-45.7,80s-58.1-17.1-80-45.7
	C-8.1,46.2,33.8-12.5,69.4,28.4z"/>
<path class="st2" d="M46.9,69.8c7.1-39.7,58.2-17.4,54,10.3c-4.1,27-34.6,60.6-34.6,60.6s-44.1-13-60.6-34.6
	C-11.8,83.3,20,38.8,46.9,69.8z"/>
<path class="st3" d="M254.1,258c-5.5-3.6-8-0.6-13.7,2.5c-9.8,5.3-15.8,23.7-26.7,26.2c-3.9,0.9-12.7-15.1-13.7-21.3
	c-1.5-9.3,2.5-27.5-8.4-36.9c-9.2-7.9-21.5-3.7-25.5-16.3c-7-22,13.5-38.5,23.4-42.3c15.2-5.9,37.1-5.1,43.5-14.2l0.9-27.7l0.7-20.2
	l18.3-0.8h2.2l18.3,0.8l0.7,20.2l0.9,27.7c6.4,9.1,28.4,8.4,43.5,14.2c10,3.8,30.4,20.4,23.4,42.3c-4,12.6-16.2,8.4-25.5,16.3
	c-10.9,9.3-6.9,27.5-8.4,36.9c-1,6.2-9.9,22.2-13.7,21.3c-10.8-2.5-16.9-20.9-26.7-26.2C262.1,257.4,259.6,254.5,254.1,258"/>
<path class="st4" d="M233.6,156c0,0,31.8,11.4,41.2-10.8l-1.3-37.4h-38.8L233.6,156z"/>
<path class="st3" d="M210.5,186.2c0.2,19.8-12.5,25.4-19,32.4c-10.2,11.2-20.7,39.5-28.4,52.2c-3.6,6-14.5,18.7-24.5,13.6l0,0
	c-12.5-7.1-5.8-23.3-2.9-29.3c6-12.3,25.5-66,38.8-77.1c0,0,12.9-12,25-8C207.3,172.6,210.5,178,210.5,186.2L210.5,186.2z"/>
<path class="st3" d="M134.8,267.3c5.2-10.5,15.6-6.7,24.2-2.1c6.1,3.2,62.7,41,78.2,51.1c8.8,5.7,13.6,8.5,11,14.2
	c-2.3,5.2-12.5,2.4-16.5,1.4c-37.7-9.9-65.6-19.4-88.4-38.9C128.4,280.2,133.1,270.9,134.8,267.3z"/>
<path class="st3" d="M298.1,182.8c-8.4,18,0.9,28.2,3.8,37.4c4.7,14.5,2.5,44.5,4.3,59.3c0.9,7,5.5,23,16.7,22.5l0,0
	c14.4-1.3,14.9-18.8,14.8-25.5c-0.3-13.7,4-70.6-3.4-86.2c0,0-6.7-16.3-19.5-17.6C306.7,171.8,301.6,175.4,298.1,182.8z"/>
<path class="st3" d="M319.3,301.9c10.6,3.5,15.8-6.2,19.1-15.1c2.3-6.4,18.7-70.4,23.4-87.8c2.6-9.8,4.3-15-1.4-17.1
	c-5.2-1.9-10.7,6.9-13,10.3c-20.9,32.4-35.1,57.8-38.8,86.5C306.2,297.6,315.7,300.7,319.3,301.9z"/>
<path class="st3" d="M365.5,152.6c3.7-3.9,6.9-8.2,9.8-12.8c0,0,2.3,4.4,2,7c-0.3,2.1-5.5,11.2-5.5,11.2l0,0
	c25.2-14.2,45.4-21.2,48.3-22c2.1-0.5,8,2.3,8,2.3s-23.9,14.2-30.4,18.7c-22,15-27.2,23.1-34,36.3c-1.2,2.3-15.1-0.2-13-5.3
	c0.7-1.8-0.5-12,1.3-14.7C359,162.5,365.2,152.9,365.5,152.6z"/>
<path class="st5" d="M310.2,281.6c-0.2-3-0.3-6.1-0.3-9.1l0.2-16.9c0.2-21.5-3.1-43.2-13-62.6l-19.9-34.9c0,0,11.6,20.4,9.8,31.5
	c-1.8,11.1-64,12-65.9,1c-1.8-11.1,10.9-33.8,10.9-33.8l-17.2,30.4c-11.7,20.5-17.7,43.5-17.6,66.7c0,6.3-0.1,12.7-0.3,19l0,0
	c0,0-46.6,182-39.6,192.4c7,10.3,22,10.8,26.8,23.9c4.7,13.1,31.5,10.6,42.2,18.1c10.8,7.5,19.4-3.9,34.4,0.8
	c15,4.7,27.1,10.7,45.9,6.4c18.8-4.3,14-23.4,29.8-25.4c15.8-1.8-4.4-6.6,21.9-15.5c26.3-8.9,11.3-23,35.6-30s5.2-21.1,24.9-25.8
	C438.3,413.3,325.7,326.5,310.2,281.6z"/>
</svg>
