<?xml version="1.0" encoding="utf-8"?>
<!-- Generator: Adobe Illustrator 26.0.3, SVG Export Plug-In . SVG Version: 6.00 Build 0)  -->
<svg version="1.1" id="Calque_1" xmlns="http://www.w3.org/2000/svg" xmlns:xlink="http://www.w3.org/1999/xlink" x="0px" y="0px"
	 viewBox="0 0 388 354.5" style="enable-background:new 0 0 388 354.5;" xml:space="preserve">
<style type="text/css">
	.st0{fill:#C9C9C9;}
	.st1{fill:#375D63;}
	.st2{fill:#FD8C75;}
	.st3{fill:#D3D3D3;}
	.st4{fill:#D3766A;}
	.st5{fill:#353535;}
	.st6{fill:#B7B7B7;}
</style>
<polygon class="st0" points="228.2,54.6 163.9,54.6 164,27.7 228.3,26.5 "/>
<g id="Calque_1_00000180352489093704844010000013830218214247062939_">
	<path class="st1" d="M275.4,341c-25.2,2.7-48.1,10.8-75.5,19.8c0,0-12.5,0.6-11.7-0.1l-76.5-18l6.4-63.2
		c1.2-11.6,10.9-20.3,22.5-20.3h108c11.9,0,21.7,9.2,22.5,21L275.4,341z"/>
</g>
<polygon class="st2" points="173.8,-2.3 216.5,-2.3 216.5,55.7 193,100.5 173.8,55.7 "/>
<path class="st3" d="M328.1,173.8c-0.4-1-0.9-1.8-1.2-2.8l-17.2-44.8c-1.7-5.3-4.2-10.3-7.2-15.2l-11-17.4
	c-4.4-7.1-10.9-12.6-18.7-15.8L221,55.4l-26.9,58L168,54.2l-53.7,23.3c-8,3.5-14.7,9.3-19.1,16.7l-7.2,12.1
	c-6,10-10.7,20.5-14.4,31.4l-13.8,36.8c-4.4,11.2-4.3,21.6,3.8,28.2c8.1,6.7,20.1,5.6,27-2.5c0.1-0.1,0.2-0.2,0.2-0.3l35.6-51.6
	l26.7,32.5c0.1,8.5-33,56.1-34.1,64.5l-14.4,117.5c-1.2,10.1,5.5,19.4,15.5,21.6c0,0,54.6,14.8,73.3,15.6
	c19.3,0.8,76.8-10.2,76.8-10.2c0.1,0,0.2,0,0.2,0c10.8-1.6,18.2-11.6,16.6-22.4L269,244.2c-1.5-10.1-28-42.4-27.9-52.6
	c0.2-23.9,26-42.1,26-42.1l28.2,51.6c7.4,8,20.1,8.7,28.2,1.3C330.9,195.2,332.9,184.5,328.1,173.8z"/>
<path class="st4" d="M173.8-2.3h42.7l-0.2,44.2c0,0-26.2,19.4-42.5,8.7C173.8,47.7,173.8-2.3,173.8-2.3z"/>
<path class="st3" d="M164,27.7l-9.1,21.5l-46.1,30.1l23.2,91.2c1.5,5.6,3.8,10.9,7,15.7l3.6,5.4l103.5,1.6l5.3-8.1
	c2.9-4.4,5.1-9.4,6.5-14.6l23.9-89.2l-49-32.1l-4.5-22.7l-35.1,69.8L164,27.7z"/>
<path class="st5" d="M245.3,211.7H143.2c-2.1,0-4-1.7-4-4v-12.1c0-2.1,1.7-4,4-4h102.1c2.1,0,4,1.7,4,4v12.1
	C249.2,209.8,247.4,211.7,245.3,211.7z"/>
<path class="st5" d="M204.6,212.7h-12.8c-4.2,0-7.4-3.4-7.4-7.4v-9c0-4.2,3.4-7.4,7.4-7.4h12.8c4.2,0,7.4,3.4,7.4,7.4v9
	C212.2,209.3,208.9,212.7,204.6,212.7z"/>
<path class="st5" d="M194.3,201.6l-31.7,35.2c-1.6,1.7-1.5,4.4,0.2,6.1l5.5,5.3c1.8,1.8,4.8,1.5,6.5-0.6l27.4-36.6l-11.6-1.5
	l16.5,31.5c1.2,2.2,4.3,3,6.4,1.5l6.1-4.3c1.8-1.3,2.4-3.8,1.3-5.7l-20.5-35.3L194.3,201.6z"/>
<g>
	<path class="st6" d="M228.2,26.7c-27,55.2-55.4,110.3-84.9,164C170.2,135.5,198.6,80.4,228.2,26.7L228.2,26.7z"/>
</g>
<g>
	<path class="st6" d="M108.9,79c8.4,26.6,15.5,53.6,21,80.9C121.4,133.4,114.6,106.3,108.9,79L108.9,79z"/>
</g>
<g>
	<path class="st6" d="M281.7,80.4c-5.5,26.7-12.6,53.2-21,79C266.3,132.9,273.3,106.4,281.7,80.4L281.7,80.4z"/>
</g>
<path class="st2" d="M182,161.5l-15.8,0.6L75,168.5c-1.1,0.1-2.1,0.3-3.1,0.7l0,0c-8.5,2.4-14.2,10.6-13.3,19.3
	c0.9,8.7,7.8,15.6,16.5,16.2l1.7,0.2c0,0,12.5-1.3,15.3-1.5c2.7-0.1,69.3-16.3,76.1-18c0.3-0.1,12.9-3.9,20.6-5.5L182,161.5z"/>
<path class="st2" d="M207.4,161.2l15.6,0.4l91.5,5.8l1.5,0.6c8.3,2.2,13.9,10.2,13.2,18.9c-0.8,8.5-7.5,15.4-16.2,16.1l-1.7,0.2
	c0,0-12.3-1.2-15.1-1.3c-2.7-0.1-68.4-15.6-75.1-17.1c-0.3-0.1-12.7-3.8-20.3-5.3L207.4,161.2z"/>
<path class="st2" d="M205.8,147.4c4.3-0.8,14.4,7.6,15.1,8.3c2.4,2.4,8.1,8.7,9.6,12.8c0.3,1-1,16-1.8,16s-23.6,0.6-25.1,0
	c-4.8-1.8-7.1-3.9-7.4-4.3c-3.9-3.9-0.1-10.2,0-16.3c0-3.1,1.1-6.3,3-8.7C201.6,151.8,202.6,149.1,205.8,147.4z"/>
<path class="st2" d="M198.5,155.2c1.9,2.5,3,5.5,3,8.7c0.1,6.1,3.9,12.5,0,16.3c-0.4,0.4-2.7,2.5-7.4,4.3c-1.5,0.6-24.4,0-25.1,0
	c-0.8,0-2.1-15.1-1.8-16c1.5-4.2,7.2-10.3,9.6-12.8c0.7-0.6,10.8-9.1,15.1-8.3C195,149.1,195.9,151.8,198.5,155.2z"/>
</svg>
