<?xml version="1.0" encoding="utf-8"?>
<!-- Generator: Adobe Illustrator 26.0.3, SVG Export Plug-In . SVG Version: 6.00 Build 0)  -->
<svg version="1.1" id="Calque_1" xmlns="http://www.w3.org/2000/svg" xmlns:xlink="http://www.w3.org/1999/xlink" x="0px" y="0px"
	 viewBox="0 0 788 1005" style="enable-background:new 0 0 788 1005;" xml:space="preserve">
<style type="text/css">
	.st0{fill:#DBDBDB;}
	.st1{fill:#FD8C75;}
	.st2{fill:#F06130;}
	.st3{fill:#9CCBF2;}
	.st4{fill:#EDEDED;}
	.st5{fill:#587CC6;}
	.st6{fill:#DDDDDD;}
	.st7{fill:none;stroke:#9CCBF2;stroke-width:4.5415;stroke-linecap:round;stroke-miterlimit:10;}
</style>
<rect x="362.8" y="312.9" class="st0" width="58" height="21.7"/>
<path class="st1" d="M393,419.1c-5.5-3.6-8-0.6-13.7,2.5c-9.8,5.4-15.8,23.7-26.7,26.2c-3.9,0.9-12.7-15.1-13.7-21.3
	c-1.5-9.3,2.5-27.5-8.4-36.9c-9.2-7.9-21.5-3.7-25.5-16.3c-7-22,17.3-35.8,27.2-39.6c15.2-5.9,33.3-7.8,39.7-16.9l0.9-27.7l0.7-20.2
	l18.3-0.8h2.2l18.3,0.8l0.7,20.2l0.9,27.7c6.4,9.1,28.4,8.4,43.5,14.2c10,3.9,30.4,20.4,23.4,42.4c-4,12.6-16.2,8.4-25.5,16.3
	c-10.9,9.3-6.9,27.5-8.4,36.9c-1,6.2-9.9,22.2-13.7,21.3c-10.8-2.5-16.9-20.9-26.7-26.2C401,418.5,398.5,415.5,393,419.1"/>
<path class="st2" d="M372.5,317.1c0,0,31.8,11.4,41.2-10.8l-1.3-37.4h-38.8L372.5,317.1z"/>
<path class="st1" d="M353.4,352.1c-4.3,21.5-18,24.7-25.9,30.9c-12.6,9.9-29.3,38.2-39.7,50.2c-4.9,5.7-18.5,17-27.1,9.2l0,0
	c-10.6-10.6-3-23.9,1.3-29.8c8.6-12,28.3-34.5,34.9-47.8c4.9-9.9,7.6-20.7,23.1-29.8c0,0,15.3-10.1,26.3-3
	C353.2,336.7,355.2,343.3,353.4,352.1L353.4,352.1z"/>
<path class="st1" d="M430.8,352.1c4.3,21.5,18,24.7,25.9,30.9c12.6,9.9,29.3,38.2,39.7,50.2c4.9,5.7,18.5,17,27.1,9.2l0,0
	c10.7-10.6,3-23.9-1.3-29.8c-8.6-12-28.3-34.5-34.9-47.8c-4.9-9.9-7.6-20.7-23.1-29.8c0,0-15.3-10.1-26.3-3
	C430.9,336.7,429,343.3,430.8,352.1L430.8,352.1z"/>
<path class="st1" d="M506.2,428.2c3.4-14.7,14.8-12.4,21-11.7c6.8,0.7,69.6,21.6,86.8,26.9c9.7,3,15,4.3,13.7,10.2
	c-1.1,5.4-11.6,6-15.7,5.5c-44.1-5.1-54.6-6.7-93.9-13.1C499.5,442.9,505.3,432,506.2,428.2z"/>
<path class="st3" d="M615.8,443.8c0,0,9-8.4,11.1-9.1s12.5-4.1,14-5s9.4-8.3,10.1-7.2c0.3,0.5,0.7,1.5,1.2,2.5
	c0.9,2,0.6,4.3-0.8,5.9l-1.7,2c-1.3,1.5-2.8,2.8-4.6,3.6l-7,3.2l16.1,3.9l20.9,0.9c1.5,0.1,2.8,1.2,3,2.7l0,0
	c0.3,1.7-0.9,3.4-2.7,3.6c-0.2,0-0.3,0-0.5,0l-22.7,0.2l25.4,6.6c1.9,0.5,3,2.4,2.5,4.3l0,0l0,0c-0.5,1.9-2.4,3-4.3,2.5l0,0l-27.1-7
	l24.4,11.1c1.7,0.8,2.5,2.8,1.7,4.6c0,0.1-0.1,0.1-0.1,0.2l0,0c-0.8,1.6-2.8,2.3-4.4,1.6l-23.3-9.7l13.2,10c1.5,1.1,1.8,3.3,0.6,4.8
	c-0.1,0.1-0.1,0.2-0.2,0.2l0,0c-1.1,1.1-2.8,1.4-4.2,0.6l-15.8-9.3l-23.5-7.7l-5.1-5.1L615.8,443.8z"/>
<path class="st1" d="M279.8,428.1c-3.4-14.7-14.8-12.4-21-11.7c-6.8,0.7-69.6,21.6-86.8,26.9c-9.7,3-15,4.3-13.7,10.2
	c1.1,5.4,11.6,6,15.6,5.5c44.1-5.1,54.6-6.7,93.9-13.1C286.5,442.8,280.7,431.9,279.8,428.1z"/>
<path class="st3" d="M169.4,443.8c0,0-9-8.4-11.1-9.1s-12.6-4.1-14-5s-9.4-8.3-10.1-7.2c-0.3,0.5-0.7,1.5-1.2,2.5
	c-0.9,2-0.6,4.3,0.8,5.9l1.7,2c1.3,1.5,2.9,2.7,4.7,3.5l7,3.2l-16.1,3.9l-20.9,0.9c-1.5,0.1-2.8,1.2-3,2.7l0,0
	c-0.3,1.7,0.9,3.4,2.7,3.6c0.2,0,0.3,0,0.5,0l22.7,0.2l-25.4,6.6c-1.9,0.5-3,2.4-2.5,4.3l0,0c0.5,1.9,2.4,3,4.3,2.5l27.1-7
	l-24.4,11.1c-1.8,0.8-2.5,2.9-1.7,4.6c0,0.1,0.1,0.1,0.1,0.2l0,0c0.8,1.6,2.8,2.3,4.4,1.6l23.3-9.7l-13.2,10
	c-1.5,1.1-1.8,3.3-0.6,4.8c0.1,0.1,0.1,0.2,0.2,0.2l0,0c1.1,1.1,2.8,1.4,4.2,0.6l15.8-9.3l23.5-7.7l5.1-5.1L169.4,443.8z"/>
<path class="st4" d="M515.1,445l18.4-52c0.3-1.2-0.1-2.4-1-3.2L478,339.5l0,0c-1.2-1.4-2.7-2.6-4.5-3.4l-41.7-19.6
	c-6.1-2.6-5.9,0.3-8.7,6.1c-0.1,0.3-0.3,0.5-0.5,0.8L405.3,343c-0.2,0.2-0.3,0.4-0.4,0.6c-4.6,8.7-17,8.9-22.1,0.6
	c-0.3-0.4-0.6-0.8-1-1.1l-19.3-13.4c-0.5-0.4-1-0.9-1.2-1.5c-2.4-5.9-0.5-14.4-6.3-11.8l-45.7,20.3c-2.5,1.1-4.4,2.9-5.7,5l-0.1-0.2
	l-37.6,51.7c-1.8,2.5-2.6,5.7-2.2,8.8l5.5,39.1c1.4,10.2,14,14.1,20.9,6.5l20.4-22.3c2-2.2,5.6-0.9,5.8,2.1l1.9,31.6
	c0,1.3-0.2,2.5-0.5,3.7l0.9,13.9c-0.9,3.1-0.6,6.4,0.8,9.3c1,2,1.5,4.2,1.3,6.4c-0.2,3.8-0.6,9.9-0.9,14.3L298,612.4
	c-0.4,5.7,3,11,8.4,12.8c0.1,0.1,0.3,0.1,0.5,0.1l19.6,5.3c25.9,5.6,68.7,5.7,94.7,0.3c16.6-3.4,53.1-7.1,62.6-9.3
	c5.9-1.4,10-6.9,9.7-13l-27.9-101.2c-0.3-6.4-0.9-12.4-3.6-17.3h-0.4l2.5-2.9c3.1-3.6,4-8.5,2.3-12.9c-2-5.3,0.5-12,0.5-14
	c0.1-13.4,0.2-28.6,0.3-40c0-2.6,2.9-4.2,5.1-2.8l36.5,31.6C510.5,450.1,514.5,447.2,515.1,445z"/>
<path class="st5" d="M414.8,634.3h-44.3c-6.6,0-12-5.4-12-12V335.1c0-6.6,5.4-12,12-12h44.3c6.6,0,12,5.4,12,12v287.2
	C426.8,628.9,421.4,634.3,414.8,634.3z"/>
<path class="st4" d="M419.9,313.7l-18.2,90.1c-0.7,3.5-1.1,7-1.1,10.6l-1.1,220.4c0,3,2.8,5.2,5.7,4.6l56.6-15.1l-3.5-295.2
	l-36.4-16.2C421,312.4,420.1,312.8,419.9,313.7z"/>
<path class="st4" d="M364.7,313.7l18.2,90.1c0.7,3.5,1.1,7,1.1,10.6l1.1,220.4c0,3-2.8,5.2-5.7,4.6l-61.9-14.1l8.9-296.2l36.4-16.2
	C363.6,312.4,364.6,312.8,364.7,313.7z"/>
<path class="st6" d="M330,402.1l0.9,29.1c0.1,1.7,1.4,3.1,3.1,3.3l25.9,1.9c0.8,0.1,1.6-0.2,2.3-0.7l3.6-2.8
	c0.9-0.7,1.4-1.7,1.3-2.9l-1.6-30.1c-0.1-1.7-1.5-3.1-3.2-3.2l-29.2-1.3c-2.1-0.1-3.8,1.7-3.5,3.8l0.3,2.5
	C330,401.8,330,401.9,330,402.1z"/>
<g>
	<ellipse transform="matrix(0.9715 -0.237 0.237 0.9715 -88.1946 93.0405)" class="st5" cx="342.9" cy="413.3" rx="2.7" ry="3.8"/>
	
		<ellipse transform="matrix(0.9059 -0.4234 0.4234 0.9059 -145.4013 182.591)" class="st5" cx="338.3" cy="418.5" rx="2.7" ry="3.8"/>
	
		<ellipse transform="matrix(0.237 -0.9715 0.9715 0.237 -134.5573 655.3038)" class="st5" cx="349.9" cy="413.3" rx="3.8" ry="2.7"/>
	
		<ellipse transform="matrix(0.4234 -0.9059 0.9059 0.4234 -174.8296 562.4151)" class="st5" cx="354.4" cy="418.6" rx="3.8" ry="2.7"/>
	<path class="st5" d="M352.1,424.1c0,0-1.1-0.4-1.5-0.8c-0.2-0.2-0.6-0.9-0.9-1.6c-0.1-0.4-0.3-0.8-0.5-1.1v-0.1l0,0
		c-0.6-1-1.6-1.6-2.5-1.5c-1.2-0.1-2.7,0.8-3.4,2.5v0.1c-0.3,0.5-0.7,1.2-1.1,1.6c-0.6,0.6-1.5,0.9-1.5,0.9l0,0
		c-0.1,0-0.2,0-0.2,0.1c-1.3,0.6-1.7,2.7-0.8,4.6c0.9,1.9,2.7,2.9,4,2.3c0.1-0.1,0.3-0.1,0.4-0.2c0.4-0.2,2-0.8,2.5-0.8
		c0.6,0,2.1,0.9,2.5,1.1c1.3,0.6,3.1-0.4,4-2.3C353.8,426.8,353.5,424.7,352.1,424.1z"/>
</g>
<path class="st7" d="M369.4,316.5l-10.1,9c-2.6,2.6-3.7,6.2-2.9,9.7l10.8,49c0.7,3.3,3.1,6.2,6.4,7.6l17.7,7.9
	c3.5,1.6,7.5,1.4,10.9-0.4l20.4-11.1c3.5-1.9,5.7-5.3,5.8-9.1l1.7-44.9c0.1-3.2-0.3-7.9-2.8-10l-8.8-8"/>
<line class="st7" x1="395.5" y1="401.1" x2="394.4" y2="537.8"/>
<circle class="st3" cx="394.3" cy="538.7" r="7.9"/>
</svg>
