<?xml version="1.0" encoding="utf-8"?>
<!-- Generator: Adobe Illustrator 26.0.3, SVG Export Plug-In . SVG Version: 6.00 Build 0)  -->
<svg version="1.1" id="Calque_1" xmlns="http://www.w3.org/2000/svg" xmlns:xlink="http://www.w3.org/1999/xlink" x="0px" y="0px"
	 viewBox="0 0 388 354.5" style="enable-background:new 0 0 388 354.5;" xml:space="preserve">
<style type="text/css">
	.st0{fill:#FD8C75;}
	.st1{fill:#E1795D;}
	.st2{fill:#277A9B;}
	.st3{fill:#293C51;}
	.st4{fill:#22677C;}
	.st5{fill:#AFAFAF;}
	.st6{fill:#898989;}
	.st7{fill:#606060;}
</style>
<path class="st0" d="M192.6,193.6c-6.1-4-8.9-0.7-15.3,2.8c-11,6-17.7,26.5-29.9,29.3c-4.4,1-14.2-16.9-15.3-23.8
	c-1.7-10.4,2.8-30.7-9.4-41.3c-10.3-8.8-24-4.1-28.5-18.2c-7.8-24.6,19.3-40,30.4-44.3c17-6.6,37.2-8.7,44.4-18.9l1-31l0.8-22.6
	l20.5-0.9h2.5l20.5,0.9l0.8,22.6l1,31c7.2,10.2,31.8,9.4,48.6,15.9c11.2,4.4,34,22.8,26.2,47.4c-4.5,14.1-18.1,9.4-28.5,18.2
	c-12.2,10.4-7.7,30.7-9.4,41.3c-1.1,6.9-11.1,24.8-15.3,23.8c-12.1-2.8-18.9-23.4-29.9-29.3C201.6,192.9,198.8,189.5,192.6,193.6"/>
<path class="st1" d="M169.7,79.5c0,0,35.6,12.7,46.1-12.1l-1.5-41.8h-43.4L169.7,79.5z"/>
<path class="st1" d="M138,106.7c9.4,20.1-1,31.5-4.4,41.8c-5.3,16.2-2.8,49.8-4.8,66.3c-0.9,7.8-6.1,25.7-18.7,25.2l0,0
	c-16.1-1.5-16.7-21-16.5-28.5c0.3-15.3-4.5-78.9,3.8-96.4c0,0,7.5-18.2,21.8-19.7C128.3,94.4,134.2,98.4,138,106.7L138,106.7z"/>
<path class="st0" d="M114.3,239.9c-11.9,3.9-17.7-6.8-21.4-16.9c-2.6-7.2-20.9-78.7-26.2-98.2c-2.9-11-4.8-16.8,1.6-19.1
	c5.7-2.1,12,7.7,14.5,11.5c23.4,36.1,39.2,64.6,43.4,96.7C128.9,235.1,118.3,238.5,114.3,239.9z"/>
<path class="st1" d="M242.9,106.3c-9.4,20.1,1,31.5,4.2,41.8c5.3,16.2,2.8,49.8,4.8,66.3c1,7.8,6.1,25.7,18.7,25.2l0,0
	c16.1-1.5,16.7-21,16.5-28.5c-0.3-15.3,13.9-68.3,5.6-85.8c0,0-16.9-28.8-31.1-30.3C252.6,94,246.9,98,242.9,106.3z"/>
<path class="st0" d="M266.6,239.4c11.9,3.9,17.7-6.9,21.4-16.9c2.6-7.2,20.9-78.7,26.2-98.2c2.9-11,4.8-16.8-1.6-19.1
	c-5.8-2.1-12,7.7-14.5,11.5c-23.4,36.2-39.2,64.6-43.4,96.7C252,234.6,262.6,238.1,266.6,239.4z"/>
<path class="st0" d="M318.3,72.5c2.6-2.7,5-5.6,7.2-8.7c1.9-2.7,6.3-1.2,6,2.1c0,0,0,0.1,0,0.1c-0.3,2.3-6.1,12.5-6.1,12.5l0,0
	c28.2-15.9,50.8-23.7,54-24.6c0.5-0.1,1.1-0.1,1.9,0.1c3,0.5,3.7,4.6,1.1,6.1c-8.3,5-22.9,13.8-27.9,17.3
	c-24.6,16.8-30.4,25.8-38,40.6c-1.3,2.6-16.9-0.2-14.5-5.9c0.8-2-0.6-13.4,1.5-16.4C311,83.6,318,72.8,318.3,72.5z"/>
<path class="st2" d="M105.5,98.1c0.1,0,19.5,31,23.3,116.6c0.6,13.4-2.1,55.6-3.8,79.8c-0.6,9.3,7,17.1,16.3,16.6l102.4-4.9
	c9.1-0.4,15.9-8.5,14.7-17.5c-2.9-23-7.6-63.3-6.7-78.2c4.8-82.5,21.6-113.8,21.6-113.8l-58.7-20.2l-7.1,20.7
	c-2,5.8-7.2,9.9-13.4,10.5l0,0c-6.3,0.6-12.4-2.8-15.2-8.5L168,78L105.5,98.1L105.5,98.1"/>
<path class="st3" d="M129.2,240l-24.8,119.4c-1.1,9.4,9.1,18.2,18.3,20.2c0,0,50.4,13.7,67.6,14.4c17.9,0.7,70.8-9.5,70.8-9.5
	c0.1,0,0.2,0,0.2,0c10-1.5,21-12,19.5-21.9l-28.9-123.4"/>
<path class="st3" d="M136.2,86.3l1.8-0.8c2.7-1.2,5.7,0.3,6.5,3l14.6,48.6c0.3,1.1-0.3,2.3-1.4,2.7l-4.6,1.6
	c-1.2,0.4-2.4-0.2-2.8-1.4l-16.7-47.9C132.7,90,133.8,87.3,136.2,86.3z"/>
<path class="st3" d="M255.7,91.4l-0.8-0.3c-2.9-1.3-6.3,0.3-7.3,3.4l-14.3,47.6c-0.4,1.4,0.3,2.9,1.7,3.4l3.7,1.3
	c1.4,0.5,3-0.2,3.5-1.7l16.3-46.9C259.4,95.4,258.1,92.5,255.7,91.4z"/>
<circle class="st3" cx="157.3" cy="145.9" r="3.7"/>
<circle class="st3" cx="235" cy="151.1" r="3.7"/>
<path class="st3" d="M150.1,156.5l90,4.7c2.5,0.1,4.6,1.9,5.3,4.3l6.3,24.4c0.1,0.5,0.2,0.9,0.2,1.4v47.2H129.4l1.6-48.6
	c0-0.8,0.2-1.5,0.5-2.2l12.9-27.9C145.6,157.7,147.7,156.4,150.1,156.5z"/>
<path class="st3" d="M161,160.4l-6.8-0.4c-1.5-0.1-2.6-1.4-2.5-2.9l0.1-2.2c0.1-1.5,1.4-2.6,2.9-2.5l6.7,0.4
	c1.5,0.1,2.6,1.4,2.5,2.9l-0.1,2.2C163.7,159.4,162.3,160.5,161,160.4z"/>
<path class="st3" d="M235.8,166.9l-7.5-1.1c-1.6-0.2-2.8-1.7-2.5-3.4l0.5-3.5c0.2-1.6,1.7-2.8,3.4-2.5l7.5,1.1
	c1.6,0.2,2.8,1.7,2.5,3.4l-0.5,3.5C238.9,166,237.4,167.1,235.8,166.9z"/>
<path class="st2" d="M160.1,176.9l-1.9,22.4l24.8,7.6c6.6,2,13.7,2.5,20.5,1.5l25.3-3.9l1-22.8L160.1,176.9z"/>
<path class="st4" d="M160.1,176.7l-2.3,11.1l34.3,6.3c1.4,0.3,2.9,0.3,4.3,0.2l34-3.5v-11.7L160.1,176.7z"/>
<path class="st4" d="M250.9,247.4H130.3c-1.2,0-2.1-0.9-2.1-2.1v-11.7c0-1.2,0.9-2.1,2.1-2.1h120.4c1.2,0,2.1,0.9,2.1,2.1v11.7
	C253,246.5,252,247.4,250.9,247.4z"/>
<path class="st4" d="M122.3,239.4c0,0-20.8,58.1-15.4,63.7c5.4,5.6,59.1,11.7,63.8,8.1s10.7-67.5,10.7-67.5L122.3,239.4z"/>
<path class="st5" d="M148.3,264.3l-3.6,0.5c-1.1,0.1-2.1-0.6-2.2-1.7l-6.1-45c-0.1-1.1,0.6-2.1,1.7-2.2l3.6-0.5
	c1.1-0.1,2.1,0.6,2.2,1.7l6.1,45C150.2,263.2,149.4,264.2,148.3,264.3z"/>
<path class="st5" d="M152.6,264.8L152.6,264.8c-1.1,0-2-0.9-2-2v-35.5c0-1.1,0.9-2,2-2l0,0c1.1,0,2,0.9,2,2v35.5
	C154.6,263.9,153.7,264.8,152.6,264.8z"/>
<path class="st5" d="M158.2,264.6l-1.6-0.4c-1.1-0.3-1.7-1.3-1.5-2.4l5.8-24.2c0.3-1.1,1.3-1.7,2.4-1.5l1.6,0.4
	c1.1,0.3,1.7,1.3,1.5,2.4l-5.8,24.2C160.2,264.2,159.2,264.9,158.2,264.6z"/>
<path class="st2" d="M122.8,243.7c0,0-20.4,56.3-12.4,58.4c8.1,2.1,49,10.5,54.5,6.4c5.4-4.1,4.3-60.5,4.3-60.5L122.8,243.7z"/>
<path class="st0" d="M45.7,85.8L50,102c0.5,1.8,1.6,3.3,3.2,4.3l5.5,3.4c1.3,0.8,2.4,2.1,3,3.5l4.2,7.8l2.5,3.7
	c5.3-0.2,13-0.1,14.5-5.1c0.6-2.1-5.3-12.7-5.3-12.7l7.2-25.4c0.1-0.3,0.1-0.5,0.1-0.9c-0.1-1.4-1.8-2-2.9-1.1l-2.8,2.5l-0.4-3.7
	c-0.2-1.8-1-3.5-2.4-4.7L69.2,67c-2.9-2.6-7.3-2.5-10,0.2L47.6,78.8C45.8,80.6,45,83.3,45.7,85.8z"/>
<g>
	<path class="st6" d="M5.5,115.9l0.8,0.6c1.8,1.5,4.6,1.2,6.1-0.5l58.4-66c0.7-0.9,1.7-1.4,2.7-1.6l0.9-0.1c3.5-0.5,6.2,3.1,4.7,6.3
		l-37.7,79.7c-1.2,2.6,0.3,5.5,3,6.3l2.7,0.7c2.2,0.3,4.4-0.6,5.2-2.7L92.5,46c0.7-0.5,1.2-1,1.9-1.6c2.1-2.2,3.3-5,3.4-7.9
		c2.4-2.1,4.6-4.9,6.7-8.1c6.5-10.6,4.4-23.7,1.1-25.6c-3.3-2.1-15.8,2.1-22.2,12.7c-1.9,3.2-3.3,6.5-4.2,9.7c-1,0.5-1.8,1.1-2.6,2
		c-2.1,2.3-3.3,5.1-3.4,8c-0.1,0.1-0.1,0.2-0.2,0.3L5,109.2C3.2,111,3.4,114,5.5,115.9z"/>
	<g>
		<path class="st7" d="M105.6,2.5c0.3,0-10.1,18.4-9.9,18.3c0,0.2-15.4,1-15.5,1.1c2.2-0.6,5.1-0.8,7.6-1.1c2.2-0.2,5.4-0.5,7.7-0.7
			l-0.6,0.4c0.8-1.5,1.6-3.1,2.5-4.6C99.9,11.6,102.8,6.7,105.6,2.5L105.6,2.5z"/>
	</g>
</g>
<path class="st0" d="M72.9,85.1l-9,7.8c-4,3.5-10.1,3-13.5-1l-1.5-1.7c-3.5-4-3-10.1,1-13.5l9-7.8c4-3.5,10.1-3,13.5,1l1.5,1.7
	C77.3,75.6,76.9,81.7,72.9,85.1z"/>
</svg>
