<?xml version="1.0" encoding="utf-8"?>
<!-- Generator: Adobe Illustrator 26.0.3, SVG Export Plug-In . SVG Version: 6.00 Build 0)  -->
<svg version="1.1" id="Calque_1" xmlns="http://www.w3.org/2000/svg" xmlns:xlink="http://www.w3.org/1999/xlink" x="0px" y="0px"
	 viewBox="0 0 788 1005" style="enable-background:new 0 0 788 1005;" xml:space="preserve">
<style type="text/css">
	.st0{fill:#FD8C75;}
	.st1{fill:#DD7B6B;}
	.st2{fill:#F7A386;}
	.st3{fill:#547A87;}
	.st4{fill:#2B2B2B;}
	.st5{fill:none;stroke:#ECF2F2;stroke-width:3;stroke-miterlimit:10.0001;}
	.st6{fill:none;stroke:#ECF2F2;stroke-width:2.9998;stroke-miterlimit:9.9993;}
	.st7{fill:none;stroke:#ECF2F2;stroke-width:5.4389;stroke-miterlimit:10;}
	.st8{fill:#ECF2F2;}
	.st9{fill:none;stroke:#BCBCBC;stroke-width:5;stroke-linecap:round;stroke-miterlimit:10;}
	.st10{fill:none;stroke:#2B2B2B;stroke-width:2;stroke-miterlimit:10;}
</style>
<path class="st0" d="M393,419.1c-5.5-3.6-8-0.6-13.7,2.5c-9.8,5.4-15.8,23.7-26.7,26.2c-3.9,0.9-12.7-15.1-13.7-21.3
	c-1.5-9.3,2.5-27.5-8.4-36.9c-9.2-7.9-21.5-3.7-25.5-16.3c-7-22,17.3-35.8,27.2-39.6c15.2-5.9,33.3-7.8,39.7-16.9l0.9-27.7l0.7-20.2
	l18.3-0.8h2.2l18.3,0.8l0.7,20.2l0.9,27.7c6.4,9.1,28.4,8.4,43.5,14.2c10,3.9,30.4,20.4,23.4,42.4c-4,12.6-16.2,8.4-25.5,16.3
	c-10.9,9.3-6.9,27.5-8.4,36.9c-1,6.2-9.9,22.2-13.7,21.3c-10.8-2.5-16.9-20.9-26.7-26.2C401,418.5,398.5,415.5,393,419.1"/>
<path class="st1" d="M372.5,317.1c0,0,31.8,11.4,41.2-10.8l-1.3-37.4h-38.8L372.5,317.1z"/>
<path class="st0" d="M443.3,355.4c1.6,21.9,14.8,26.7,21.9,33.8c11.3,11.3,25.7,42.1,34.3,55.5c4.1,6.3,15.8,19.5,25.5,13l0,0
	c12-8.9,6.3-23.2,3-29.7c-6.8-13.1-25.3-39.1-30.1-53.1c-3.6-10.4-5-21.5-19.3-32.4c0,0-13.9-12-25.7-6.2
	C445.3,340.1,442.6,346.4,443.3,355.4L443.3,355.4z"/>
<path class="st0" d="M522.5,429.9c13.4,6.9,9.9,18.8,7.7,24.7c-2.3,6.4-37.9,61.9-46.9,77.4c-5.1,8.8-7.6,13.6-13.1,11.1
	c-5-2.3-4.9-7.2-1.8-16.5c15.8-47.3,15.8-55.5,31.8-88.2C507,424.6,519.1,428.2,522.5,429.9z"/>
<path class="st0" d="M353.5,360.9c-4.3,21.5-18,24.7-25.9,30.9c-12.6,9.8-29.3,38.2-39.7,50.2c-4.9,5.7-18.5,17-27.1,9.2l0,0
	c-10.6-10.6-3-23.9,1.3-29.8c8.6-12,28.3-34.5,34.9-47.8c4.9-9.9,7.6-20.7,23.1-29.8c0,0,15.3-10.2,26.3-3
	C353.3,345.5,355.2,352.1,353.5,360.9L353.5,360.9z"/>
<path class="st0" d="M270.4,449.9c15-1.2,14.4-12.8,14.7-19.1c0.3-6.8-11.1-72-13.7-89.8c-1.5-10-2-15.4-8.1-15.1
	c-5.5,0.3-7.6,10.6-7.7,14.7c-1.5,44.4-1.5,55-0.9,94.8C254.9,454.3,266.5,450.2,270.4,449.9z"/>
<path class="st0" d="M436.1,540.2c0,0-1.5-3.9-0.7-4.6s15.4-7.7,16.2-7.5s15.8,0.2,16.9,0s11.4,8.3,10.9,9s-11.2,23.1-12.8,23.5
	s-7.4,3.9-8.2,3.7S440,551.2,440,551.2l2-8L436.1,540.2z"/>
<path class="st2" d="M0,422.1l-0.1-0.1c-0.2,0.2-0.3,0.4-0.5,0.6c0,0.1-0.1,0.1-0.1,0.1L0,422.1z"/>
<path class="st3" d="M472,334.6c2.5,1.1,3.9,3.9,3.1,6.5c-3.6,13.2-14.8,49.3-14.8,51.8c0,2.9-6.5,72.2-6.6,78.2
	c0,0.3,0,0.6,0.1,0.8l24.8,127.6c1.5,10-9.9,15.1-19.9,16.5c-0.1,0-48.7,9-66.6,8.4c-17.3-0.7-62.8-9.2-62.8-9.2
	c-9.2-2-15.4-10.6-14.3-20l20.4-127.8c0-0.2,0-0.5,0-0.7l-10.7-77.2c0-0.6-0.1-1.1-0.3-1.7L309,341.2c-0.9-2.7,0.4-5.7,3.1-6.8
	l53.5-23.2c1.8-0.8,3-2.4,3.3-4.3l1.4-9.8c0.4-2.7,2.8-4.8,5.5-4.8l34.7,0.3c2.8,0,5.1,2.1,5.4,4.9l1.1,10.2c0.2,2,1.5,3.7,3.3,4.5
	L472,334.6z"/>
<path class="st4" d="M464.7,616c0,0,16-4.6,14.4-15.3l-19.5-87.7c0,0-4.3-17-12.2-35.6c-6.1-14.4-7.2-59.4-7.4-79
	c-0.1-5.1-4.2-9.3-9.4-9.3h-75.3c-5,0-9.2,4-9.4,9c-0.8,19.8,7.1,65.9,4,75.1C346,485,334,509.5,330.5,519c-2.5,6.9-13.1,52-16,76.9
	c-1.1,9.6,4.5,18.7,13.6,22l0,0C370.5,633.1,420.8,626,464.7,616z"/>
<g>
	<path class="st4" d="M368,308.8c-6.2,16.7-10,34.2-12.3,51.8c-0.9,7-2,14.1-3.3,21.1c-0.6,3.5-1.2,7-2,10.6H350
		c-1.3-14.4,0.5-28.8,4-42.8c2.5-10.5,5.4-20.9,9.3-30.9c1.3-3.3,2.7-6.7,4.3-9.9L368,308.8L368,308.8z"/>
</g>
<g>
	<path class="st4" d="M418.1,309.2c6.4,12.8,10.5,26.6,13.9,40.5c3.5,13.9,5.4,28.2,4.1,42.6h-0.4c-0.9-3.5-1.4-7-2-10.5
		c-1.2-6.8-2.4-14.1-3.3-20.9c-1.3-10.5-3.4-20.9-6.1-31.2c-1.8-6.8-3.9-13.6-6.5-20.2L418.1,309.2L418.1,309.2z"/>
</g>
<g>
	
		<ellipse transform="matrix(0.9939 -0.1104 0.1104 0.9939 -49.4805 44.8502)" class="st5" cx="380.3" cy="469.3" rx="6.6" ry="11.1"/>
	
		<ellipse transform="matrix(0.5527 -0.8334 0.8334 0.5527 -241.4519 515.3117)" class="st6" cx="359.3" cy="482.6" rx="6.6" ry="11.1"/>
	<polyline class="st7" points="381.5,479.8 384.7,498.5 368.4,488.4 	"/>
	<g>
		<path class="st8" d="M380.5,494.1c11.6,7.1,22.3,22.4,24.8,35.7C393.7,522.7,383.1,507.4,380.5,494.1L380.5,494.1z"/>
	</g>
	<g>
		<path class="st8" d="M382.2,492.9c11.6,7.1,22.3,22.4,24.8,35.7C395.4,521.6,384.8,506.3,382.2,492.9L382.2,492.9z"/>
	</g>
</g>
<path class="st3" d="M434.2,538.1l-17.1,1.3c-15.6,1.2-31.3,1.2-47-0.1l-15.6-1.3c-3.2-0.6-5.6-3.8-5.6-7.6V502
	c0-4.7,3.6-8.3,7.6-7.6c0,0,6.8,0.5,14.5,1.1c14.6,1.1,29.3,1.1,43.9,0.1l17.4-1.3c4-0.7,7.5,2.9,7.5,7.6v28.6
	C439.8,534.3,437.4,537.5,434.2,538.1z"/>
<path class="st0" d="M266.7,327.2c0.5-0.3,0.9-0.7,1.2-1.2c1.4-2.5,5.7-10.2,5.8-11.8c0.1-2-0.4-10.5,0-12c0.4-1.5,4.8-9.7,3.9-10
	c-0.6-0.2-2.1-0.6-3.3-0.9c-1.2-0.3-2.4,0.1-3.1,1.2l-3.1,4.2c-0.2,0.4-0.4,0.8-0.5,1.2l-0.6,3.6c-0.3,1.6-2.4,1.9-3.1,0.4l-4.3-8.9
	c-0.1-0.1-0.1-0.3-0.1-0.4c-0.7-2.2-6.2,0.6-6.2,0.6c-0.1-0.1-3.8,2.1-5.1,2.9c-0.4,0.2-0.7,0.4-0.9,0.7l-2.8,2
	c-2.5,1.7-4.3,4.2-5.2,7.1c-0.4,1.3-0.5,2.5,0.1,3.1c0.1,0.1,0.3,0.4,0.4,0.6l10.5,19.9c0.3,0.6,0.9,1,1.4,1.3l3.2,1.4
	c0.8,0.3,1.7,0.3,2.4-0.1L266.7,327.2z"/>
<path class="st0" d="M250.7,328.3c0,0,2.5,2.5,3.2,4c0.7,1.5,1.6,7.3,1.6,7.3l14.8-6.3c0,0-1.8-5.7-1.6-7.3c0.2-1.5,2.2-6,2.2-6
	l-7.8-3.6L250.7,328.3z"/>
<path class="st3" d="M252.1,318.2l4,1.4c3.2,1.2,6.7-0.2,8.1-3.1l20-46.1c1.3-2.9-0.2-6.2-3.4-7.4l-4-1.4c-3.2-1.2-6.7,0.2-8.1,3.1
	l-20,46.1C247.3,313.8,248.9,317.1,252.1,318.2z"/>
<line class="st9" x1="257.8" y1="287" x2="254.8" y2="295.1"/>
<line class="st9" x1="263.6" y1="272.6" x2="260.6" y2="280.7"/>
<ellipse transform="matrix(0.3797 -0.9251 0.9251 0.3797 -54.0497 414.4691)" class="st3" cx="282" cy="247.5" rx="24.7" ry="29.9"/>
<path class="st3" d="M268.5,262.1l-39.1-21.6c-4.7-1.9-6.9-7.3-4.9-12l3.5-8.3c1.9-4.7,7.3-6.9,12-4.9l42.1,13.6L268.5,262.1z"/>
<path class="st3" d="M280.5,266.6l27,6c2.9,1.2,6.8-1.6,8.7-6.3l3.5-8.3c1.9-4.7,1.2-9.4-1.7-10.6l-23.5-13.8L280.5,266.6z"/>
<g>
	<polygon class="st4" points="255.5,318.1 242.2,346.6 251.8,316.7 	"/>
</g>
<path class="st10" d="M249.1,328.1c0,0-13.2,37.4-16.8,49.2c-18,59,12.4,78.8-1.1,115.6c-5.1,14-18.8,33.7-16,49.5
	c2.8,15.7,17.8,30.3,34.6,14.6c34.9-32.4,105.5-3.3,105.5-3.3"/>
<path class="st0" d="M266.1,308.3l-16.2,8.4c-2.8,1.5-6.3,0.4-7.8-2.5l-3.6-6.8c-1.5-2.8-0.4-6.3,2.5-7.8l16.2-8.4
	c2.8-1.5,6.3-0.4,7.8,2.5l3.6,6.8C270,303.3,268.8,306.8,266.1,308.3z"/>
</svg>
