<?xml version="1.0" encoding="utf-8"?>
<!-- Generator: Adobe Illustrator 26.0.3, SVG Export Plug-In . SVG Version: 6.00 Build 0)  -->
<svg version="1.1" id="Calque_1" xmlns="http://www.w3.org/2000/svg" xmlns:xlink="http://www.w3.org/1999/xlink" x="0px" y="0px"
	 viewBox="0 0 788 1005" style="enable-background:new 0 0 788 1005;" xml:space="preserve">
<style type="text/css">
	.st0{fill:#FD8C75;}
	.st1{fill:#E27B6A;}
	.st2{fill:#B70F67;}
</style>
<g id="Calque_10">
	<path class="st0" d="M479,371.5c-4,12.6-16.2,8.4-25.5,16.3c-10.9,9.3-3.9,29.5-5.4,38.9c-1,6.2-9.9,22.2-13.7,21.3
		c-10.8-2.5-16.9-20.9-26.7-26.2c-5.7-3.1-8.2-6.1-13.7-2.5c-5.5-3.6-8-0.6-13.7,2.5c-9.8,5.4-15.8,23.7-26.7,26.2
		c-3.9,0.9-12.7-15.1-13.7-21.3c-1.5-9.3,2.5-27.5-8.4-36.9c-9.2-7.9-21.4-3.7-25.5-16.3c-7-22,13.5-38.5,23.4-42.3
		c9.5-3.7,21.6-4.8,30.9-7.3c5.6-1.5,10.2-3.5,12.6-7l0.9-27.7l0.7-20.2l18.3-0.8h2.2l18.3,0.8l0.7,20.2l0.3,9.9l0.6,17.8
		c1.9,2.7,5.1,4.5,9.2,5.9c9.6,3.3,23.7,4.2,34.3,8.3C468.5,335,486,349.5,479,371.5z"/>
	<path class="st1" d="M372.9,315.9c0,0,32.4,12.7,41.8-9.5l-1.3-37.4h-38.8L372.9,315.9z"/>
	<path class="st0" d="M349.9,358.4c-3.9,19.7-16.5,22.6-23.7,28.3c-11.5,9.1-26.8,34.9-36.3,45.9c-4.5,5.2-16.9,15.6-24.8,8.4l0,0
		c-9.7-9.7-2.7-21.9,1.2-27.3c7.9-11,25.9-31.6,31.9-43.7c4.5-9.1,7-18.9,21.1-27.3c0,0,14-9.2,24.1-2.7
		C349.8,344.2,351.5,350.3,349.9,358.4z"/>
	<path class="st0" d="M286.1,427.1c-3.6-13.3-13.9-10.8-19.6-10.1c-6.1,0.8-62.9,22-78.5,27.4c-8.8,3-13.5,4.4-12.3,9.8
		c1.2,4.9,10.7,4.6,14.5,4.5c35.2-0.8,61.8-3.1,85.5-15.1C291.1,435.9,287,430.5,286.1,427.1z"/>
	<path class="st0" d="M151.5,444.7c-3.5,1.9-8,4.1-11.5,5.7c-2.8,1.3-2.8,5.2-0.1,6.6c0.7,0.3,1.3,0.6,1.8,0.6c1.4,0.1,6-2,8.3-3
		c0.8-0.4,1.8-0.5,2.7-0.2l1.5,0.5c2.2,0.7,3.2,3.3,2,5.4c-1.2,2.1-2.4,4-4.8,7c-2.9,3.6-12.2,9.1-16.6,11c-2.5,1-8.2,0.8-10.2,2.4
		c-0.1,0.1-0.3,0.3-0.4,0.4c-1.8,2.4,0.2,5.9,3.2,5.7l7.8-0.5c0.3,0,0.7-0.1,1-0.2c3-1.1,18.9-6.8,24.4-9.3
		c6.4-2.9,18.7-10.3,23.6-15.2c1.6-1.6,4.7-4.7,3.6-9.2c-0.9-3.8-4.9-5.3-7.6-6C175.8,445.2,151.9,444.5,151.5,444.7z"/>
	<path class="st0" d="M437.1,349.1c0.6,19.5,12.1,24.2,18.2,30.8c9.6,10.5,20,37.7,27.4,49.7c3.5,5.7,13.7,17.6,22.3,12l0,0
		c10.8-7.6,6-20.5,3.2-26.2c-5.8-11.8-19.8-34.3-23.5-46.9c-2.8-9.4-3.6-19.2-15.9-29.4c0,0-11.9-11.1-22.5-6.5
		C439.4,335.5,436.8,341,437.1,349.1L437.1,349.1z"/>
	<path class="st0" d="M487.1,424.9c5.5-12.1,15-8.2,20.3-6.5c5.8,1.8,56.7,31.1,70.7,38.7c7.9,4.3,12.2,6.4,10.1,11.3
		c-2,4.5-11,2.7-14.5,2c-33.6-6.4-58.6-12.9-79.3-28C480.8,432.5,485.7,428,487.1,424.9z"/>
	<path class="st0" d="M613.6,463.7c3,2.3,6.6,4.8,9.5,6.8c2.5,1.7,1.9,5.5-1,6.4c-0.7,0.2-1.3,0.3-1.7,0.3c-1.3-0.1-5.4-2.8-7.5-4.2
		c-0.7-0.5-1.6-0.7-2.5-0.6l-1.4,0.2c-2.3,0.3-3.7,2.7-2.8,4.9c0.9,2.1,1.6,4.1,3.5,7.3c2.2,3.9,10.1,10.7,14.1,13.1
		c2.1,1.3,7.7,2,9.5,3.9c0.1,0.1,0.1,0.2,0.2,0.3c1.6,2.6-1,5.9-4,5.2l-7.2-1.6c-0.3-0.1-0.6-0.2-0.9-0.4c-2.7-1.5-17-9.4-21.8-12.7
		c-5.7-3.9-16.2-12.9-20.1-18.3c-1.2-1.8-3.6-5.2-2-9.4c1.5-3.5,5.6-4.3,8.2-4.6c3.5-0.5,21.9,1.9,26.4,2.6
		C612.6,463.1,613.1,463.3,613.6,463.7z"/>
	<path class="st2" d="M331.5,503.1l1.9-16.3h115.9l4.2,15.5c0.9,3.3-1.1,6.8-4.4,7.7c-0.5,0.1-5.1,0.2-5.6,0.2H337.9
		c-3.5,0-6.4-2.9-6.4-6.4C331.5,503.6,331.5,503.3,331.5,503.1z"/>
	<path class="st2" d="M311.7,341.1l23.9,84.1c0.2,0.6,0.2,1.3,0.2,2l-7.5,47.2c-0.1,0.9,0.1,1.8,0.4,2.6l4.7,10.8h115.9l3.5-14.4
		c1.1-1.6,1.4-3.7,0.6-5.5l-8-26.2c-0.5-1.1-0.6-2.4-0.3-3.6l13.6-53c0.1-0.2,0.1-0.4,0.2-0.6l15.1-39.5c1-2.6-0.1-5.5-2.5-6.9
		l-15.7-8.8c-1.1-0.6-2.4-0.8-3.6-0.7l-60.1,9.3c-0.6,0.1-1.3,0.1-1.9,0l-53.4-10.2c-0.9-0.2-1.9-0.1-2.8,0.2l-18.8,6.2
		C312.5,335.2,310.9,338.2,311.7,341.1z"/>
</g>
</svg>
