<?xml version="1.0" encoding="utf-8"?>
<!-- Generator: Adobe Illustrator 26.0.3, SVG Export Plug-In . SVG Version: 6.00 Build 0)  -->
<svg version="1.1" id="Calque_1" xmlns="http://www.w3.org/2000/svg" xmlns:xlink="http://www.w3.org/1999/xlink" x="0px" y="0px"
	 viewBox="0 0 388 354.5" style="enable-background:new 0 0 388 354.5;" xml:space="preserve">
<style type="text/css">
	.st0{fill:#FD8C75;}
	.st1{fill:#E27E6D;}
	.st2{fill:#E8E0BF;}
	.st3{fill:#C4BEA3;}
	.st4{fill:#2E858E;}
	.st5{fill:none;stroke:#261F11;stroke-width:2;stroke-linecap:round;stroke-miterlimit:10;}
</style>
<path class="st0" d="M247.4,170.6c-5.5-3.6-8-0.6-13.7,2.5c-9.8,5.4-15.8,23.7-26.7,26.2c-3.9,0.9-12.7-15.1-13.7-21.3
	c-1.5-9.3,2.5-27.5-8.4-36.9c-9.2-7.9-21.5-3.7-25.5-16.3c-7-22,17.3-35.8,27.2-39.6c15.2-5.9,33.3-7.8,39.7-16.9l0.9-27.7l0.7-20.2
	l18.3-0.8h2.2l18.3,0.8l0.7,20.2l0.9,27.7c6.4,9.1,28.4,8.4,43.5,14.2c10,3.9,30.4,20.4,23.4,42.4c-4,12.6-16.2,8.4-25.5,16.3
	c-10.9,9.3-19.2,27.1-20.8,36.4c-1,6.2-13.3,15.2-17.2,14.4c-10.8-2.5-1.1-13.5-10.8-18.8C255.4,170,252.9,167,247.4,170.6"/>
<path class="st1" d="M226.3,68.6c0,0,32.4,10.6,41.8-11.6l-1.2-37.4l-39.5,0.8L226.3,68.6z"/>
<path class="st0" d="M211.8,104c-4.3,21.5-18,24.7-25.9,30.9c-12.6,9.9-29.3,38.2-39.7,50.2c-4.9,5.7-18.5,17-27.1,9.2l-3.8-2.5
	c-10.6-10.6,0.9-21.4,5.1-27.3c8.6-12,28.3-34.5,34.9-47.8c4.9-9.9,9.8-18.1,25.3-27.2c0,0,16.9-9.5,27.9-2.4
	C215.4,91.7,213.6,95.1,211.8,104L211.8,104z"/>
<path class="st0" d="M136.9,192.6c9.9-13.6,1-17.2-0.8-23.2c-5.3-18.5-46.6-56.1-58-69.9c-6.5-7.8-9.7-12.2-14.7-8.8
	c-4.6,3.1-0.6,12.7,0.9,16.5c3.3,8.4,44.2,75.8,48,81.7C120.3,201.3,134,196.6,136.9,192.6z"/>
<path class="st0" d="M44,61.3c-1-1-2.7-0.6-3.3,0.7l0,0c-0.8,2-0.6,4.2,0.4,6c0.4,0.7,0.8,1.3,1.2,1.9c1.1,1.5,2.8,4.3,3.1,4.7
	c0,0,0.1,0.1,0.1,0.1l2.5,5.1c0.6,1.2-0.1,2.6-1.4,2.9c-3.8,0.8-6.1,1.6-11.5,2c-5.1,0.4-16.4-2.6-21.2-4.7C11.3,79,7,74.2,4.3,73.8
	c-1.1-0.2-3,0.6-4.5,1.4c-1.3,0.6-1.5,2.3-0.5,3.3l8.8,8.1c0.1,0.1,0.3,0.2,0.5,0.3c2.3,1.2,19.8,9.8,26,12.3
	c7.2,2.8,22.3,6.8,29.8,7c2.4,0,7.2,0.1,9.9-4.2c2.4-3.7,0.4-8-1-10.6C71.6,88.1,50.9,67.8,44,61.3z"/>
<path class="st0" d="M287.4,105.5c4.3,21.5,18,24.7,25.9,30.9c12.6,9.8,29.3,38.2,39.7,50.2c4.9,5.7,18.5,17,27.1,9.2l0,0
	c10.7-10.6,3-23.9-1.3-29.8c-8.6-12-28.3-34.5-34.9-47.8c-4.9-9.9-7.6-20.7-23.1-29.8c0,0-15.3-10.2-26.3-3
	C287.6,90.1,285.7,96.6,287.4,105.5L287.4,105.5z"/>
<path class="st2" d="M326.4,310.9L297,193.5c-0.3-1.4-0.3-2.8,0.1-4.1l15.1-49.1c0.7-2.4,2.6-4.3,5-5.1l24.4-7.9
	c4.6-1.5,6.7-6.8,4.4-11.1l-12-21.8c-1.5-2.8-4.6-4.4-7.8-3.9l-80.5,10.8c-0.8,0.1-1.7,0.1-2.5-0.1l-72.8-14.5
	c-2.9-0.6-5.8,0.5-7.6,2.8l-16.7,21.5c-2.9,3.8-1.8,9.2,2.4,11.5l30.2,16.3c2,1.1,3.5,3.1,3.9,5.3l10.8,56.5
	c0.2,1.3,0.2,2.6-0.2,3.8l-28.9,89c-1.3,3.9,0.7,8.1,4.5,9.6l77.4,30.5c1.4,0.5,2.9,0.7,4.3,0.4l69.8-13.8
	C324.7,319.4,327.5,315.1,326.4,310.9z"/>
<path class="st3" d="M182,140.7c4.5-0.9,42.2,4.2,58.4,6.8c5.1,0.8,10.3,0.8,15.3-0.2l57.6-10.9l-6.6,21.5l-51.8,9.2
	c-4.3,0.8-8.8,0.8-13.2,0.2l-56.3-8.2L182,140.7"/>
<path class="st4" d="M333,124.4l-69.1,17.9c-2.3,0.6-3.9,2.7-3.8,5.1l3.7,96.7c0.1,3.4,3.4,5.7,6.6,4.7l59.5-18.8
	c2-0.6,3.4-2.4,3.5-4.5l5.9-95.8C339.5,126.2,336.3,123.6,333,124.4z"/>
<line class="st5" x1="278.6" y1="137.6" x2="279.5" y2="154.3"/>
<path class="st0" d="M380.9,185.8c-3.9-14.5-15.2-11.8-21.4-11c-6.7,0.9-68.8,24.1-85.8,29.9c-9.6,3.3-14.8,4.8-13.4,10.7
	c1.3,5.3,11.7,5,15.8,4.9c38.5-0.8,67.6-3.4,93.4-16.4C386.4,195.4,381.9,189.5,380.9,185.8z"/>
<path class="st0" d="M233,205.5c-3.7,2-8.2,4.2-11.8,5.9c-3,1.4-3.1,5.7-0.1,7.2c0.8,0.4,1.4,0.6,2,0.7c1.5,0.2,7-2.3,9.4-3.5
	c0.7-0.4,1.6-0.5,2.4-0.3l5.1,0.9c3.6,0.6,4.6,5.4,1.5,7.3c-2.8,1.7-5.7,3.6-7.7,6.1c-3.2,3.9-13.3,10-18.1,12
	c-2.6,1.1-9,0.9-11.2,2.6c-0.2,0.1-0.3,0.3-0.5,0.5c-2,2.7,0.2,6.5,3.5,6.3l8.6-0.5c0.4,0,0.7-0.1,1.1-0.2
	c3.3-1.1,20.7-7.3,26.7-10.1c7-3.2,20.4-11.3,25.8-16.6c1.7-1.7,5-5.1,3.9-10.1c-1-4.3-5.4-5.8-8.3-6.7c-4.2-1.2-25.2-1.8-30.2-1.8
	C234.2,205,233.5,205.2,233,205.5z"/>
</svg>
