<?xml version="1.0" encoding="utf-8"?>
<!-- Generator: Adobe Illustrator 26.0.3, SVG Export Plug-In . SVG Version: 6.00 Build 0)  -->
<svg version="1.1" id="Calque_1" xmlns="http://www.w3.org/2000/svg" xmlns:xlink="http://www.w3.org/1999/xlink" x="0px" y="0px"
	 viewBox="0 0 388 354.5" style="enable-background:new 0 0 388 354.5;" xml:space="preserve">
<style type="text/css">
	.st0{fill:#FD8C75;}
	.st1{fill:#E07D6C;}
	.st2{fill:#92A331;}
	.st3{fill:#ABC638;}
</style>
<g id="Calque_10">
	<path class="st0" d="M155.5,117.3c-4.3,21.5-18,24.7-25.9,30.9c-12.6,9.8-29.3,38.2-39.7,50.2c-4.9,5.7-18.5,17-27.1,9.2l0,0
		c-10.6-10.6-3-23.9,1.3-29.8c8.6-12,28.3-34.5,34.9-47.8c4.9-9.9,7.6-20.7,23.1-29.8c0,0,15.3-10.2,26.3-3
		C155.3,101.9,157.3,108.4,155.5,117.3L155.5,117.3z"/>
	<path class="st0" d="M85.7,192.4c-3.9-14.5-15.2-11.8-21.4-11c-6.7,0.9-68.8,24.1-85.8,29.9c-9.6,3.3-14.8,4.8-13.4,10.7
		c1.3,5.3,11.7,5,15.8,4.9c38.5-0.8,67.6-3.4,93.4-16.5C91.3,202,86.7,196.2,85.7,192.4z"/>
	<path class="st0" d="M-64.6,213.3c-3.7,1.9-7.9,3.9-11,5.3c-2.3,1.1-2.4,4.2-0.3,5.5c1.4,0.8,2.7,1.5,3.6,1.6
		c1.6,0.2,7-2.3,9.4-3.5c0.7-0.3,1.5-0.4,2.3-0.2l3,1c1.9,0.6,2.8,2.9,1.7,4.6c-1.6,2.6-2.8,4.9-5.8,8.5c-3.2,3.9-13.3,10-18.1,12
		c-2.6,1.1-9,0.9-11.2,2.6c-0.6,0.4-1.1,1.4-1.5,2.6c-0.8,2.1,0.8,4.4,3.1,4.3l10.2-0.6c0.3,0,0.6-0.1,0.9-0.2
		c3-1.1,20.7-7.4,26.8-10.2c7-3.2,20.4-11.3,25.8-16.6c1.7-1.7,5-5.1,3.9-10.1c-1-4.3-5.4-5.8-8.3-6.7c-3.5-0.9-20-1.5-27.5-1.7
		C-60.1,211.7-62.5,212.2-64.6,213.3z"/>
	<path class="st0" d="M233.5,122.3c4.3,21.5,18,24.7,25.9,30.9c12.6,9.8,29.3,38.2,39.7,50.2c4.9,5.7,18.5,17,27.1,9.2l0,0
		c10.7-10.6,3-23.9-1.3-29.8c-8.6-12-28.3-34.5-34.9-47.8c-4.9-9.9-7.6-20.7-23.1-29.8c0,0-15.3-10.2-26.3-3
		C233.7,106.9,231.8,113.4,233.5,122.3L233.5,122.3z"/>
	<path class="st0" d="M303.3,197.4c3.9-14.5,15.2-11.8,21.4-11c6.7,0.9,68.8,24.1,85.8,29.9c9.6,3.3,14.8,4.8,13.4,10.7
		c-1.3,5.3-11.7,5-15.8,4.9c-38.5-0.8-67.5-3.4-93.4-16.5C297.7,207,302.3,201.2,303.3,197.4z"/>
	<path class="st0" d="M453.5,218.3c4.4,2.3,9.3,4.6,12.5,6.1c1.5,0.7,1.7,2.8,0.3,3.8c-1.8,1.2-4,2.5-5.2,2.7
		c-1.6,0.2-7.6-2.6-9.7-3.6c-0.5-0.2-1.1-0.3-1.6-0.1l-4.5,1.4c-1.4,0.4-1.9,2-1.2,3.2c2,3.1,3,5.4,6.4,9.6c3.2,3.9,13.3,10,18.1,12
		c2.6,1.1,9,0.9,11.2,2.6c0.8,0.6,1.6,2.4,2.1,4.1c0.5,1.5-0.7,2.9-2.2,2.8l-11.8-0.7c-0.2,0-0.4-0.1-0.6-0.1
		c-2.5-0.9-20.8-7.4-26.9-10.2c-7-3.2-20.4-11.3-25.8-16.6c-1.7-1.7-5-5.1-3.9-10.1c1-4.3,5.4-5.8,8.3-6.7
		c3.6-0.9,19.6-1.6,27.3-1.8C448.7,216.6,451.2,217.2,453.5,218.3z"/>
	<path class="st0" d="M194.5,187.3c-5.5-3.6-8-0.6-13.7,2.5c-9.8,5.3-15.8,23.7-26.7,26.2c-3.9,0.9-12.7-15.1-13.7-21.3
		c-1.5-9.3,2.5-27.5-8.4-36.9c-9.2-7.9-21.5-3.7-25.5-16.3c-7-22,13.5-38.5,23.4-42.3c15.2-5.9,37.1-5.1,43.5-14.2l0.9-27.7
		l0.7-20.2l18.3-0.8h2.2l18.3,0.8l0.7,20.2l0.9,27.7c6.4,9.1,28.4,8.4,43.5,14.2c10,3.9,30.4,20.4,23.4,42.3
		c-4,12.6-16.2,8.4-25.5,16.3c-10.9,9.3-6.9,27.5-8.4,36.9c-1,6.2-9.9,22.2-13.7,21.3c-10.8-2.5-16.9-20.9-26.7-26.2
		C202.5,186.7,200,183.7,194.5,187.3"/>
	<path class="st1" d="M174,85.3c0,0,31.8,11.4,41.2-10.8l-1.3-37.4h-38.8L174,85.3z"/>
	<path class="st2" d="M146.5,309.7c-12-2.6-19.7-14.3-17.5-26.4c3-15.6,6.4-34.5,6.3-38.2c-0.1-3.3-3.2-39.5-5.3-64.3
		c-1.1-12.7,8.5-23.8,21.3-24.6c39-2.2,112.8-6.1,108.1-2.9c-5.7,3.9-8.6,61-9,71.5c0,1.1,0,2.2,0.1,3.3l5.7,55.9
		c1.1,11-5.9,21.2-16.6,24.2l-9.1,2.5c-23.1,6.3-47.5,7-70.9,1.9L146.5,309.7z"/>
	<path class="st3" d="M74.2,130.8c17-11.8,41.6-29,49.9-34.8c1.9-1.3,4.1-2,6.4-2l131.4,0.8c2.2,0,4.4,0.7,6.2,2l49.1,34.2
		c7,4.9,6,15.4-1.7,19c-22.5,10.4-62.4,27.4-89.6,30.9c-39.8,5.1-66-1.1-77.4-1.6c-7.9-0.3-48.7-18.4-72.6-29.4
		C68.1,146.3,67.2,135.7,74.2,130.8z"/>
</g>
</svg>
