<?xml version="1.0" encoding="utf-8"?>
<!-- Generator: Adobe Illustrator 26.0.3, SVG Export Plug-In . SVG Version: 6.00 Build 0)  -->
<svg version="1.1" id="Calque_1" xmlns="http://www.w3.org/2000/svg" xmlns:xlink="http://www.w3.org/1999/xlink" x="0px" y="0px"
	 viewBox="0 0 388 354.5" style="enable-background:new 0 0 388 354.5;" xml:space="preserve">
<style type="text/css">
	.st0{fill:#1C1938;}
	.st1{fill:#B22947;}
	.st2{fill:#FD8C75;}
	.st3{fill:#F7A386;}
	.st4{fill:#D8776A;}
	.st5{fill:#87213C;}
	.st6{fill:#FF9603;}
	.st7{fill:#D8C5A7;}
	.st8{fill:#FEBC6E;}
	.st9{fill:#FFFFFF;}
	.st10{fill:#35912D;}
	.st11{fill:#E0AA4B;}
	.st12{fill:#7097BA;}
	.st13{fill:#BA3E35;}
</style>
<g>
	<path class="st0" d="M68.5,25.7c10.8,48.2,17.5,97.4,20,146.8C77.6,124.3,70.9,75,68.5,25.7L68.5,25.7z"/>
</g>
<path class="st1" d="M204.7,48.6l7.6,9.3h24.4l4.8-10.7L282.4,60l12.7,4l-9.1,50.2l-7.4,65.3c-0.2,2.5-0.1,4.9,0.4,7.4l31,123.6
	c1.1,9.9-8.5,19.1-17.5,21.2c0,0-49.2,14.6-66.1,15.3c-17.4,0.6-52.5-10.1-52.5-10.1s-0.1,0-0.2,0c-9.8-1.6-27.1-11.3-25.6-22
	L169,185.6c0.4-2.6,0.6-5.1,0.4-7.7c-0.8-14.2-3.7-52.3-3.7-55c0-3.3-17-55.5-17-58.7L204.7,48.6z"/>
<path class="st2" d="M338.7,172.4c-5.6,3.5-12.9,1.4-17.5-5.4l-44.4-68.3c-0.1-0.1-0.1-0.3-0.2-0.4c-4.3-9-0.4-20,8.8-24.6
	c9.2-4.5,20.2-1,24.5,8l0,0l34.3,70.4l0,0l0,0C349.5,162.6,345,168.4,338.7,172.4z"/>
<path class="st2" d="M342.1,149.3c4.7,7,5.3,16.1,2.3,24l-26.1,68.9c0,0-1.7,6.9-7.9,5.6c-7-1.5-5.5-7.6-5.5-7.6l7.4-78
	c0,0,0.8-4.4,0.9-4.6c2.8-9.6,11-15.3,20.8-12.9C337.1,145.4,340,146.6,342.1,149.3z"/>
<path class="st2" d="M117.1,173.1c5.4,3.2,12.8,1,17-5.7l41.7-67.6c0.1-0.1,0.1-0.4,0.2-0.4c4.1-8.9,0-19.6-9-23.8
	c-9-4.2-19.7-0.6-23.7,8.3l0,0l-31.8,69.5l0,0l0,0C106.5,163.7,110.9,169.3,117.1,173.1z"/>
<path class="st2" d="M133.5,168c3.2-7.7,0.3-15.5-4.1-22.4L91.1,84.8c0,0-3-6.3-8.6-3.8c-6.3,2.8-3.7,8.3-3.7,8.3l22.4,73.1
	c0,0,1.6,4.1,1.7,4.2c4.4,8.7,13.5,12.6,22.4,8.3C128,173.6,132.2,171,133.5,168z"/>
<path class="st3" d="M73.6,174L73.6,174c-0.3-0.3-0.4-0.4-0.6-0.5l0,0L73.6,174z"/>
<path class="st2" d="M233.5,104.9c-5,2.9-14,3.7-18.8,0.6l-47.1-44.1l38-14.6h34.7l42.1,15L233.5,104.9z"/>
<path class="st4" d="M205.4,47l8.5,5.6c5.1,3.4,11.6,3.5,16.8,0.3l9.5-5.9V5.4h-34.7L205.4,47z"/>
<path class="st1" d="M222.8,104.6l-24.4-55.7c0,0-29.7,8.5-47.5,20.4c-12.4,18.8-26.7,45.6-30.7,55.5c-0.6,1.4-0.2,3,1,4l23.2,38.7
	c1.9,1.6,5,1,6.1-1.4l17.3-28c0,0,1.8-18.4,1.1-19.1c-6.2,42.1,13.9,62.7,13.7,71c-0.3,7.5-12.4,11.2-12.4,11.2l110.5,10
	c0,0-15.7-25.4-11.7-45c3.9-18.4,13-33.7,13-33.7l20.2,29.1c1.1,3,4.6,4.2,7.3,2.6c9.4-5.5,39.9-9.5,39.6-10.6
	c-4.6-17.5-17.1-29.6-39.2-71.8c-5.6-8.4-12.4-14.5-21.9-18l-39-14.5L222.8,104.6z"/>
<g>
	<path class="st5" d="M249.3,48.8c-9.7,21.5-20,44.1-30,65.3c-9.7,21.6-22.2,42.5-27,65.9c-0.7,2.6-1.1,6.2-1.4,8.8
		c-4.6,38.3-9.4,77.5-14.9,115.8c-0.6,4.5-1.8,13.3-2.6,17.8c0.4-4.4,1.1-13.5,1.6-17.9c3.6-38.5,7.9-77.8,12.3-116.2
		c0.3-2.6,0.7-6.4,1.4-9c4.8-23.7,17.6-44.7,28-66.4C227.2,91.9,238.5,69.7,249.3,48.8L249.3,48.8z"/>
</g>
<path class="st2" d="M79.4,91.3c0,0-1.4-4.6-4.6-5.6c-1.5-0.5-6.4-9.5-7-14.2c-0.6-4.8,13-13.6,13-13.6l-9-15.6c0,0-0.4-3,2.4-4
	c5.2,2.4,12.6,14.4,14.4,18.8s2.2,17.7,2.2,21.9c0,4.2,1.3,7.5,1.3,7.5L79.4,91.3z"/>
<path class="st2" d="M304.4,247.3l2.9,8.3c0.1,0.1,0.1,0.4,0.1,0.5l6.2,11.8c1.3,2.4,1.8,2.7,3.4,2.3c0.3-0.1,0.6-0.2,0.8-0.4
	c1-0.7,1.3-2.1,0.8-3.3l-3.7-8.3c0.1-2,2.2-3.4,4-2.5l3.4,1.5c0.5,0.3,0.9,0.7,1.2,1.2l4,8.5c0.8,1.2,0.9,2.8,0.2,4.2l-2.2,6.2
	c-0.4,1-0.2,2.4,0.7,3.1c1.2,0.9,2.9,0.4,3.6-0.9c0,0,3-6.4,4.1-8.7c0.1-0.4,0.4-0.8,0.7-1.2c0.5-0.7,0.7-1.8,0.2-2.7l-4.7-14.2l0,0
	c-0.4-0.9-0.8-1.7-1.4-2.4l-15-20.2l-0.8-0.9c-1.2-1.6-3.9,0.9-5.8,3.2c-1.3,1.6-2.3,3.5-2.6,5.6l-0.7,4
	C303.6,243.8,303.8,245.6,304.4,247.3z"/>
<path class="st6" d="M73,23.3c-1.1-1-2.3-1.7-2.8-2.6c-1.2-1.9,0.6-7.9,0.6-7.9c-2.7,0.9-6.8,6.5-7.8,12
	C66.8,23.3,69.9,26.4,73,23.3z"/>
<path class="st7" d="M63,25c-0.2,0.6-0.3,1.2-0.3,1.8c-0.3,6.1,7.1,8.9,8.3,8.7c1.1-0.2,4.9-2.3,4.7-6.9c-0.1-2.6-1.4-4.1-2.7-5.3
	C69.9,26.4,66.8,23.3,63,25z"/>
<path class="st8" d="M248.6,273.3c-0.5,21.1,16.4,38.3,37.4,38.3c4.2,0,8.1-0.7,11.8-1.9c3.4-1.2,6-4,6.7-7.5
	c2.4-11-2.5-27.4,2.7-29.6c3.8-1.6,7,2.5,10.1,4.7c2.6,1.8,6.1,0,6.1-3.2l0,0c0-20.9-17.3-37.9-38.3-37.4
	C265.3,237.2,249.1,253.4,248.6,273.3z M312.2,267.3c0-2.3,1.8-4.2,4.2-4.2s4.2,1.8,4.2,4.2c0,2.3-1.8,4.2-4.2,4.2
	C314,271.4,312.2,269.6,312.2,267.3z"/>
<path class="st2" d="M313,266.7l2.6,4.9c0.3,0.6,0.5,1.2,0.7,1.8c0.5,1.2,1.8,2,3.2,1.6c0.3-0.1,0.6-0.2,0.8-0.4
	c1-0.7,1.3-2.1,0.8-3.3l-3.2-6.5C316.2,265.6,314.6,266.1,313,266.7z"/>
<g>
	<g>
		<path class="st9" d="M300.6,270.2c2.7,0.5,3.3-9.6,0-10.1c-1.4-0.2-3.2-0.9-4.6-0.2c-3.3,1.6-3.1,6.9-2.5,9.8
			c0.6,2.7,1.1,5.5,1.6,8.2c0.2,1.5,1.7,3.5,3.1,1.8c1.6-1.7,1.2-4.9,0.8-7c-0.4-2.2-0.8-4.4-1.2-6.6c-0.1-0.5-0.1-1-0.2-1.5
			c-0.1-0.2-0.1-0.2-0.1-0.3c-0.1,1.7-0.2,3.6-0.2,5.3c0.2-0.1,0.4,0,0.6,0C298.6,270,299.6,270,300.6,270.2L300.6,270.2z"/>
	</g>
</g>
<g>
	<g>
		<path class="st10" d="M268.3,270.6c-2.5-1.7-3.8,8.1-1.2,9.8c1.7,1.2,3.3,2.3,5,3.5c0.2-3.4,0.4-6.7,0.6-10.1
			c-3.4-0.4-6.9-0.8-10.4-1.2c-3-0.3-2.8,8.9-0.6,10.1c4.8,2.4,9.6,4.8,14.5,7.2c0.2-3.4,0.4-6.7,0.6-10.1c-4,0.1-8,0.2-12,0.2
			c-3.2,0.1-3.1,10.3,0,10.2c4-0.1,8-0.2,12-0.2c3.2-0.1,2.9-8.9,0.6-10.1c-4.8-2.4-9.6-4.8-14.5-7.2c-0.2,3.4-0.4,6.7-0.6,10.1
			c3.4,0.4,6.9,0.8,10.4,1.2c1.7,0.2,2.2-3.3,2.2-4.4c0.2-1.7,0-4.5-1.6-5.6C271.7,272.9,270,271.8,268.3,270.6L268.3,270.6z"/>
	</g>
</g>
<g>
	<g>
		<path class="st11" d="M285.9,249.4c-0.2-1.2-1.4-3.1-2.7-1.6c-1.2,1.6-1.1,4.2-0.7,6c0.5,2.2,1,4.6,1.5,6.9
			c0.2,1.2,1.4,3.1,2.7,1.6c1.2-1.6,1.1-4.2,0.7-6C286.9,254.1,286.4,251.8,285.9,249.4L285.9,249.4z"/>
	</g>
</g>
<g>
	<g>
		<path class="st12" d="M265.2,258.6c0.7-2.2,1-5,0-7.2c-0.7-1.7-2.5-2-3.2,0c-1.6,4.5-1.7,10.8,1.9,14.4c2.6,2.6,6.7,3.2,10.1,4.3
			c3.4,1.1,3.9-9,1.2-9.9c-2-0.7-3.9-1.2-5.8-1.9c-1.2-0.3-2.5-0.7-3.4-1.6c-0.2-0.2-0.4-0.4-0.6-0.7c-0.2-0.2-0.1,0.4,0,0.1
			c0.1-0.5,0.1,0.9,0.1,1.1c-0.1-1.1-0.1,1.2,0,0.2C265.3,259.5,266,256.1,265.2,258.6L265.2,258.6z"/>
	</g>
</g>
<g>
	<g>
		<path class="st13" d="M292,294.5c1.7,1.2,2.7-2.7,2.8-3.5c0.2-1.9,0.2-5.1-1.6-6.3c-2.5-1.7-6.1-2.8-8.4-0.3
			c-2.7,2.9-3.3,7.6-3.6,11.4c-0.1,1.1,0.3,5.2,2.2,5.1c2,0,2.2-3.7,2.2-5.1c-0.2,2.4-0.1,1,0,0.4c0,0,0.1-1,0-0.3s0.2-0.6,0.2-0.6
			c0.1-0.4,0.4-1.6,1.2-2.1C288.6,292.5,290.8,293.7,292,294.5L292,294.5z"/>
	</g>
</g>
</svg>
