<?xml version="1.0" encoding="utf-8"?>
<!-- Generator: Adobe Illustrator 26.0.2, SVG Export Plug-In . SVG Version: 6.00 Build 0)  -->
<svg version="1.1" id="Layer_1" xmlns="http://www.w3.org/2000/svg" xmlns:xlink="http://www.w3.org/1999/xlink" x="0px" y="0px"
	 viewBox="0 0 788 659.7" style="enable-background:new 0 0 788 659.7;" xml:space="preserve">
<style type="text/css">
	.st0{fill:#614652;}
	.st1{fill:#C78D71;}
	.st2{fill:#9CCBF2;}
	.st3{fill:#4D6FAA;}
	.st4{fill:none;}
</style>
<path class="st0" d="M310.6,295.8c1.2,13.7,12.3,24.4,26.1,25l0,0c13.1,0.6,24.9-8.1,28-20.8c0,0,21.1-109.9,23-137.2
	c0.4-6.5-0.7-25.8-0.7-25.8l-2.9-45.1c0,0-5.7-21.3-28.8-24.6c-26.7-3.9-27.9,10.1-27.9,10.1s-10.2,67.1-11.1,89.6
	C315.4,187.8,310.6,295.8,310.6,295.8z"/>
<path class="st1" d="M335.5,278.1c-14.3-0.2-22.9,6.9-25.5,18.7c0,0-7.3,56.8-8.5,79c-1.9,35.6,2.6,104.2,7.4,139.5
	c1,7.7,3.1,31.1,3.1,31.1c0.6,7,6.6,12.3,13.5,12.2l0,0c6.9-0.1,12.5-5.3,13.2-12.1c0,0,2.3-26.8,3.6-35.7
	c4.7-32.1,18.5-95.9,20.5-128.3c1.2-19.5-0.4-79.5-0.4-79.5C361.5,283,347.7,278.7,335.5,278.1L335.5,278.1z"/>
<path class="st2" d="M324.7,538L324.7,538c-6.3,0.2-11.8,3.8-14.5,9.4l0,0C304.3,560,279,577,279,577c-4.5,3.6-6.8,9.3-5.7,15l0,0
	l61.8-0.3l3.5-1c4-1.2,6.6-5.1,6.2-9.2l-3.6-30.8C339.3,543.1,332.4,537.8,324.7,538z"/>
<path class="st3" d="M275,591.7L275,591.7c-0.8-5,2.6-9.7,7.6-10.7h0.1l36.8-5.5c4.7-0.7,9.2,2.3,10.4,7l2.2,8.7L275,591.7z"/>
<path class="st0" d="M477.8,295.8c-1.2,13.7-12.3,24.4-26.1,25l0,0c-13.1,0.6-24.9-8.1-28-20.8c0,0-20.5-109.9-22.4-137.2
	c-0.4-6.8,3.6-71,3.6-71s-2.5-19.1,25.7-24.6c25.2-4.9,27.9,10.1,27.9,10.1s13.1,66.3,14.1,88.8
	C473.7,186.9,477.8,295.8,477.8,295.8z"/>
<path class="st1" d="M454.2,278.1c12.7-0.2,20.4,6.9,22.8,18.7c0,0,14.8,54.8,15.9,76.9c1.7,35.6-10.5,106.3-14.9,141.5
	c-0.9,7.7-2.8,31.1-2.8,31.1c-0.6,7-5.8,12.2-12.1,12.1l0,0c-6.2-0.1-11.2-5.3-11.8-12.1c0,0-2.1-26.8-3.2-35.7
	c-4.2-32.1-16.5-95.9-18.4-128.3c-1.1-19.5,0.4-79.5,0.4-79.5C431,283,443.3,278.6,454.2,278.1L454.2,278.1z"/>
<path class="st1" d="M477.4,509.9c-1.2,34.9,41.4,63.2,41.4,63.2c4.5,3.6-68.7,22.4-68.3,18.3c0,0,1.5-53.3-1-66.9
	C447.7,515,478.1,489.5,477.4,509.9z"/>
<path class="st2" d="M464.6,553.3c6.6-2.3,6.1-7,8.7-9.6c1.5-1.5,10.1-11.2,11-9.1c11,23.3,60.8,44.2,60.8,44.2
	c5.5,3.9,6.8,9.3,5.6,15l0,0c0,0-44.9,9.6-69.5-1.3c-4.9-2.3-11-0.9-11-0.9s-23,3.8-21.6-3.2l-0.9-39.8
	C449.5,541,453.4,557.1,464.6,553.3z"/>
<path class="st3" d="M551.3,594.3c0.8-9.2-4.4-15.1-6.2-14.8c-2.6,0.3-6.7,2.5-9.2,2.9c-4.1,0.7-16.4-0.3-16.4-0.3
	c-3.2-0.3-5.7,2.9-6.1,7.3l-0.2,8.8c0,0,7.5,1,25.2-1.6C541.5,596.1,551.3,594.3,551.3,594.3z"/>
<path class="st3" d="M332.1,59.9c-4.9,8.5-16.3,63-16.3,63s-3.2,41-3.2,45.2c0,4.2-31.2,193.6-31.2,195.9c0,1.4-3.3,38.3-5.7,65.4
	c-1.6,18.7,3.1,37.3,13.6,52.9l1.8,2.8l15.5,23.9l3.7,20.8l31.1-4.6l3-15.4c0,0,31.3-33.2,35-47.5c4.3-16.7-9-68.3-9-68.3
	l22.8-200.3L421.6,343v56.2c0,0-8.5,33.2-6.8,44.3c2.5,15.9,29,57.9,29.2,57.4s4.6,21.9,4.6,21.9l30.7-4.8l2.4-25.4
	c0,0,34.1-36.8,38.6-52.4c8.3-28.8-8.6-119.6-8.6-119.6l-31.3-192L458.3,77l-1.9-26.4c0,0-0.7-24.7-4.8-24.1
	c-4.1,0.6-110.2,0-110.2,0L332.1,59.9z"/>
<path class="st3" d="M429.9,58.2c14.3,4.4,20.4,8.2,23.8,14.1c2.8,4.8,5.2,15.7,5.5,21.1c0.5,12.8-6.9,45-19.3,55.8
	c-12.7,11-74.7,11-87.3,0c-12.4-10.8-22.9-43-22.4-55.8c0.2-5.4,2.8-16.4,5.5-21.1c3.4-5.8,12.6-9.6,26.9-14.1
	c16.3-5.1,32.8-4.2,32.8-4.2S413.7,53,429.9,58.2z"/>
<path d="M226.1,122.3h0.1H226.1z"/>
<polygon points="226.2,122.3 226.3,122.3 226.3,122.3 "/>
<path d="M226.1,122.3h0.1H226.1z"/>
<polygon points="226.2,122.3 226.3,122.3 226.3,122.3 "/>
<path class="st4" d="M429.9,43.4c14.3,4.4,20.4,8.2,23.8,14.1c2.8,4.8,5.2,15.7,5.5,21.1c0.5,12.8-6.9,45-19.3,55.8
	c-12.7,11-77.7,11-90.4,0c-12.4-10.8-19.8-43-19.3-55.8c0.2-5.4,2.8-16.4,5.5-21.1c3.4-5.8,12.6-9.6,26.9-14.1
	c16.3-5.1,32.8-4.2,32.8-4.2S413.7,38.3,429.9,43.4z"/>
<path class="st3" d="M410.6,74.9c4.7-4,44.8-35.2,44.9-34.1c0.1,1.1,23.4,75.3,24.6,88c1.2,12.7-3.6,42.4-5.5,41.5
	C472.7,169.6,404.4,80.3,410.6,74.9z"/>
</svg>
