<?xml version="1.0" encoding="utf-8"?>
<!-- Generator: Adobe Illustrator 26.0.2, SVG Export Plug-In . SVG Version: 6.00 Build 0)  -->
<svg version="1.1" id="Layer_1" xmlns="http://www.w3.org/2000/svg" xmlns:xlink="http://www.w3.org/1999/xlink" x="0px" y="0px"
	 viewBox="0 0 788 659.7" style="enable-background:new 0 0 788 659.7;" xml:space="preserve">
<style type="text/css">
	.st0{fill:#C78D71;}
	.st1{fill:#352B28;}
	.st2{fill:#C0272D;}
	.st3{fill:#DBDBDB;}
	.st4{fill:none;stroke:#C0272D;stroke-width:2;stroke-miterlimit:10;}
	.st5{fill:none;stroke:#C0272D;stroke-miterlimit:10;}
</style>
<g>
	<path class="st0" d="M337.3,286.3c-13.9-0.2-22.3,6.7-24.9,18.2c0,0-7.1,55.4-8.3,77c-1.9,34.7,2.5,101.6,7.2,136
		c1,7.5,3,30.3,3,30.3c0.6,6.8,6.4,12,13.2,11.9l0,0c6.7-0.1,12.2-5.2,12.9-11.8c0,0,2.2-26.1,3.5-34.8c4.6-31.3,18-93.5,20-125.1
		c1.2-19-0.4-77.5-0.4-77.5C362.7,291.1,349.2,286.9,337.3,286.3L337.3,286.3z"/>
	<path class="st1" d="M278.3,592.1L278.3,592.1c-0.8-4.9,2.5-9.5,7.4-10.4h0.1l35.9-5.4c4.6-0.7,9,2.2,10.1,6.8l2.1,8.5L278.3,592.1
		z"/>
	<path class="st2" d="M433.9,42.7c15.8,5.9,22.6,10.9,26.4,18.8c3,6.4,13,27.9,13.2,35.2c0.5,17.1-13.1,44.1-27.3,56.8
		c-14.4,12.9-84.8,12.9-99.2,0c-14.2-12.6-28.1-48.4-27.6-65.4c0.2-7.3,10.4-20.2,13.4-26.6c3.7-7.9,10.6-12.9,26.4-18.8
		c18.1-6.8,36.4-5.7,36.4-5.7S415.8,35.9,433.9,42.7z"/>
	<path class="st2" d="M476.1,303.6c-1.2,13.4-12,23.8-25.4,24.4l0,0c-12.8,0.6-24.3-7.9-27.3-20.3c0,0-18.9-88.8-20.9-120.8
		c-0.5-7.9,3.8-79.5,3.8-79.5s-2.8-25.4,28.6-32.9c27.9-6.6,31,13.3,31,13.3s16.6,76.3,17.7,102.9
		C484.6,215.2,476.1,303.6,476.1,303.6z"/>
	<path class="st0" d="M453.1,286.3c12.4-0.2,19.9,6.7,22.2,18.2c0,0,14.4,53.4,15.5,75c1.7,34.7-10.2,103.6-14.5,138
		c-0.9,7.5-2.7,30.3-2.7,30.3c-0.6,6.8-5.7,11.9-11.8,11.8l0,0c-6-0.1-10.9-5.2-11.5-11.8c0,0-2-26.1-3.1-34.8
		c-4.1-31.3-16.1-93.5-17.9-125.1c-1.1-19,0.4-77.5,0.4-77.5C430.4,291.1,442.4,286.8,453.1,286.3L453.1,286.3z"/>
	<path class="st1" d="M475.8,531.4c-3.5,33.8,37.3,41,37.3,41c4.2,3.8-68.4,17.2-67.7,13.2c0,0,5-51.8,3.5-65.1
		C447.8,511.1,477.9,511.6,475.8,531.4z"/>
	<path class="st1" d="M543.2,595c1.5-8.9-3.2-14.9-5-14.8c-2.5,0.1-6.7,1.9-9.2,2.2c-4,0.4-15.9-1.4-15.9-1.4
		c-3-0.5-5.8,2.4-6.3,6.7l-0.8,8.6c0,0,7.2,1.5,24.7,0.1C533.6,596.1,543.2,595,543.2,595z"/>
	<path class="st2" d="M319.4,88l-2.1,23.4L292.1,295c-1,8.2,4.8,15.6,13,16.6c0.3,0,0.5,0.1,0.8,0.1l60.5,4.2
		c7.9,0.6,14.8-5.2,15.8-13L396.3,189l12.2-109.2L319.4,88z"/>
	<path class="st2" d="M389.2,99.1l1.7,92.7l16.2,115.5c1,7,7,12.3,14.1,12.3l71.2,0.1c7.9,0,14.3-6.3,14.3-14.2
		c0-0.7-0.1-1.4-0.2-2.1l-33-206.7l-77.3,2.9L389.2,99.1z"/>
	<polygon class="st3" points="353.9,465.5 339.5,550.5 313.6,547.7 305.1,462.1 	"/>
	<polygon class="st3" points="436.7,451.5 448.2,551.6 474.3,550 487.3,450.9 	"/>
	<path class="st1" d="M326.8,539.7L326.8,539.7c-6.1,0.2-11.5,3.7-14.1,9.2l0,0c-5.8,12.3-30.5,28.9-30.5,28.9
		c-4.4,3.5-6.6,9.1-5.6,14.6l0,0l60.3-0.3l3.4-1c3.9-1.2,6.4-5,6-9l-3.5-30C341,544.7,334.3,539.5,326.8,539.7z"/>
	<path class="st1" d="M461.6,549.5c6.5-1.8,6.4-6.5,9.1-8.9c1.6-1.5,8.1-2.7,8.9-0.6c9.1,23.7,58.5,40,58.5,40
		c5.1,4.2,5.9,9.7,4.5,15.2l0,0c0,0-44.3,6.5-67.5-6c-4.6-2.5-9.2,2.5-9.2,2.5s-22.6,2.2-20.9-4.6l0.5-43.4
		C447.8,536.4,450.4,552.6,461.6,549.5z"/>
	<line class="st4" x1="306.2" y1="472.9" x2="351.6" y2="478.9"/>
	<line class="st5" x1="306.7" y1="478.2" x2="350.8" y2="484"/>
	<line class="st4" x1="484.7" y1="462.8" x2="439.3" y2="468.8"/>
	<line class="st5" x1="484.1" y1="468.1" x2="440.1" y2="473.9"/>
	<g>
		<path class="st2" d="M474.8,566c8.9,3.4,17.7,7,26.4,10.7c4.4,1.8,8.7,3.9,13.2,5.1c4.5,1.3,9.2,2,14,2.1c2.5-0.3,5.5-0.7,8.1-1
			c-2.7,0.5-5.4,1-8.1,1.5c-4.8,0.1-9.6-0.4-14.2-1.7c-4.6-1.2-9-3.2-13.3-5.1C492.1,573.8,483.4,570,474.8,566L474.8,566z"/>
	</g>
	<g>
		<path class="st2" d="M292.2,578.1c8.4-2.9,17.7-3.2,26.3-1.1c2.5,0.5,4.8,0,7.1-1c1-0.4,2.5-1,3.5-1.4c3.4-1.7,5.2-5.3,5.5-9
			c0,0,0.6-3.8,0.6-3.8c0.4-2.5,0.8-5,1.3-7.5c-0.2,2.5-0.5,5-0.8,7.6c-0.4,2.3-0.4,5.4-1.1,7.6c-1,3.1-3.7,5.6-6.8,6.7
			c-1.7,0.7-3.6,1.7-5.5,1.9c-2.6,0.5-5.1-0.5-7.6-0.9c-2.5-0.5-5-0.6-7.5-0.7C302.2,576.3,297.1,576.9,292.2,578.1L292.2,578.1z"/>
	</g>
</g>
</svg>
