<?xml version="1.0" encoding="utf-8"?>
<!-- Generator: Adobe Illustrator 26.0.3, SVG Export Plug-In . SVG Version: 6.00 Build 0)  -->
<svg version="1.1" id="Calque_1" xmlns="http://www.w3.org/2000/svg" xmlns:xlink="http://www.w3.org/1999/xlink" x="0px" y="0px"
	 viewBox="0 0 788 1005" style="enable-background:new 0 0 788 1005;" xml:space="preserve">
<style type="text/css">
	.st0{clip-path:url(#SVGID_00000105420592246513145350000014748094347610967462_);}
	.st1{fill:#423522;}
	.st2{clip-path:url(#SVGID_00000133496655171841162990000006067031719531811486_);}
	.st3{fill:#840048;}
	.st4{fill:#C5C5C5;}
	.st5{fill:#FFFFFF;}
</style>
<g>
	<g>
		<g>
			<g>
				<defs>
					<rect id="SVGID_1_" x="410.6" y="293" width="40.1" height="9.2"/>
				</defs>
				<clipPath id="SVGID_00000047742535425247169410000012647675224011110790_">
					<use xlink:href="#SVGID_1_"  style="overflow:visible;"/>
				</clipPath>
				<g style="clip-path:url(#SVGID_00000047742535425247169410000012647675224011110790_);">
					<path class="st1" d="M416.8,301.3c-1.4,0.3-5.2-0.6-5.9-1.5c-0.7-0.9,0.6-3.6,1.5-4.3c0.4-0.3,6.9-4.8,23.5-1
						c8,1.8,15.6,5.7,14.8,7.6C450.4,302.9,437.2,297.3,416.8,301.3z"/>
				</g>
			</g>
		</g>
	</g>
</g>
<g>
	<g>
		<g>
			<g>
				<defs>
					<path id="SVGID_00000070102267414023334900000003899245681822637988_" d="M335.5,293h31c2.5,0,4.6,2.1,4.6,4.6l0,0
						c0,2.5-2.1,4.6-4.6,4.6h-31c-2.5,0-4.6-2.1-4.6-4.6l0,0C331,295.1,333,293,335.5,293z"/>
				</defs>
				<clipPath id="SVGID_00000052787832635272629580000014904216792624653242_">
					<use xlink:href="#SVGID_00000070102267414023334900000003899245681822637988_"  style="overflow:visible;"/>
				</clipPath>
				<g style="clip-path:url(#SVGID_00000052787832635272629580000014904216792624653242_);">
					<path class="st1" d="M365,301.3c1.5,0.3,5.2-0.6,5.9-1.5s-0.6-3.6-1.5-4.3c-0.4-0.3-6.9-4.8-23.5-1c-8,1.8-15.6,5.7-14.8,7.6
						C331.4,302.9,344.5,297.3,365,301.3z"/>
				</g>
			</g>
		</g>
	</g>
</g>
<g>
	<path class="st3" d="M375.9,381.5c0.3-0.6,1.4-1.6,3.5-2.5c2.3-1,5.8-1.9,10.6-2.1c9.6-0.4,15.9,6.1,15.9,6.1s-4.6,11.7-15.8,10.9
		C381.9,393.1,375.9,381.5,375.9,381.5z"/>
	<path class="st4" d="M390.4,381.8l-8.2-0.4l-2.2-0.9c0,0,5.3-2.3,11.4-2c6.7,0.4,10.3,2.9,10.3,2.9l-1.7,0.8L390.4,381.8z"/>
</g>
<g>
	<g>
		<path class="st5" d="M411,332.7c0,0,12.4,4.3,24.6,1.6c12.2-2.8,12.6-4.7,12.6-4.7l-9.8-7.1l-6.7-1.6l-11.8,1l-3,2.2l-3.9,4.1
			L411,332.7z"/>
		<path class="st1" d="M418.9,323.1c-4.1,2.4-6.3,6.1-8.1,9.8c-0.2-0.2-0.4-0.2-0.4-0.4c0-0.6,0-1.2,0.2-1.6
			c2.6-4.5,5.5-9.1,11-10.4c7.5-1.8,14.8-1,21.3,3.7c2.2,1.6,4.1,3.1,6.3,4.9c-3.1,3-13.8,6.3-15,4.7c0.8-0.2,1.4-0.2,2-0.4
			c1.6-0.6,3.3-1.2,4.9-2c0.8-0.4,0.4-1-0.4-1c-0.2,0-0.4,0-1,0c2-1.8,2-2.2,0-4.1c-1.4-1.4-2.8-2.6-4.1-3.5
			C435,322.5,429.5,320.9,418.9,323.1z"/>
	</g>
	<g>
		<path class="st5" d="M370.1,333.1c0,0-12.4,4.3-24.6,1.6c-12.2-2.8-12.6-4.7-12.6-4.7l9.8-7.1l6.7-1.6l11.8,1l3,2.2l3.9,4.1
			L370.1,333.1z"/>
		<path class="st1" d="M362.2,323.5c4.1,2.4,6.3,6.1,8.1,9.8c0.2-0.2,0.4-0.2,0.4-0.4c0-0.6,0-1.2-0.2-1.6c-2.6-4.5-5.5-9.1-11-10.4
			c-7.5-1.8-14.8-1-21.2,3.7c-2.2,1.6-4.1,3.1-6.3,4.9c3.1,3,13.8,6.3,15,4.7c-0.8-0.2-1.4-0.2-2-0.4c-1.6-0.6-3.3-1.2-4.9-2
			c-0.8-0.4-0.4-1,0.4-1c0.2,0,0.4,0,1,0c-2-1.8-2-2.2,0-4.1c1.4-1.4,2.8-2.6,4.1-3.5c0.6-0.4,1.4-0.4,2.2-0.6
			C352.6,321.7,357.9,321.7,362.2,323.5z"/>
	</g>
	<path class="st1" d="M428.1,324.3l-0.2-0.4c-0.4-0.6-0.8-1.4-1.6-2c-2.6,0-4.9,0.6-7.5,0.6c-0.6,0.4-1.8,1.4-2.2,1.6
		c-0.4,0.6-1.6,0.8-1.6,1.6c-0.2,0.6-0.8,1.2-0.8,1.6l0,0c-0.6,4.1,1.6,6.9,5.7,7.5c0.4,0,0.6,0,1,0h0.4c4.1-0.2,7.3-3.5,7.3-7.7
		C428.7,326.2,428.5,325.3,428.1,324.3z"/>
	<path class="st1" d="M353.9,324.3l-0.2-0.4c-0.4-0.6-0.8-1.4-1.6-2c-2.6,0-4.9,0.6-7.5,0.6c-0.6,0.4-1.8,1.4-2.2,1.6
		c-0.4,0.6-1.6,0.8-1.6,1.6c-0.2,0.6-0.8,1.2-0.8,1.6l0,0c-0.6,4.1,1.6,6.9,5.7,7.5c0.4,0,0.6,0,1,0h0.4c4.1-0.2,7.3-3.5,7.3-7.7
		C354.3,326.2,354.1,325.3,353.9,324.3z"/>
</g>
</svg>
