<?xml version="1.0" encoding="utf-8"?>
<!-- Generator: Adobe Illustrator 26.0.3, SVG Export Plug-In . SVG Version: 6.00 Build 0)  -->
<svg version="1.1" id="Calque_1" xmlns="http://www.w3.org/2000/svg" xmlns:xlink="http://www.w3.org/1999/xlink" x="0px" y="0px"
	 viewBox="0 0 788 1005" style="enable-background:new 0 0 788 1005;" xml:space="preserve">
<style type="text/css">
	.st0{clip-path:url(#SVGID_00000030467836708532230220000014597680312018843538_);fill:#423522;}
	.st1{clip-path:url(#SVGID_00000065775283675601697770000007031293691993858442_);fill:#423522;}
	.st2{clip-path:url(#SVGID_00000052819581471552365200000000931298676147079086_);fill:#423522;}
	.st3{clip-path:url(#SVGID_00000032626244179615866950000004372502999622140569_);fill:#423522;}
	.st4{fill:#9D5E70;}
	.st5{fill:none;stroke:#6A2C18;stroke-width:2;stroke-linecap:round;stroke-miterlimit:10;}
	.st6{fill:#FFFFFF;}
	.st7{fill:#423522;}
</style>
<g>
	<g>
		<g>
			<g>
				<defs>
					<polygon id="SVGID_1_" points="413.3,293 413.3,293 456.6,293 456.6,306.2 413.3,306.2 					"/>
				</defs>
				<clipPath id="SVGID_00000037673459922481344430000007959144310015676042_">
					<use xlink:href="#SVGID_1_"  style="overflow:visible;"/>
				</clipPath>
				<path style="clip-path:url(#SVGID_00000037673459922481344430000007959144310015676042_);fill:#423522;" d="M454.6,306.2
					c-0.3,0-0.6-0.1-0.8-0.2c-4.3-1.8-8.8-3.2-13.3-4.3c-14.6-3.3-15.5-1-20.5,0c-1.5,0.3-5-0.6-5.7-1.4s-1.4-4-0.5-4.7
					c0.4-0.3,6.9-4.8,23.5-1c6.9,1.6,17.9,7.6,18.2,7.7c1.1,0.4,1.6,1.6,1.2,2.7C456.3,305.7,455.5,306.3,454.6,306.2L454.6,306.2z"
					/>
			</g>
		</g>
	</g>
</g>
<g>
	<g>
		<g>
			<g>
				<defs>
					<polygon id="SVGID_00000036951411208636565360000011981292119736878209_" points="371.1,293 371.1,293 327.8,293 327.8,306.2 
						371.1,306.2 					"/>
				</defs>
				<clipPath id="SVGID_00000054961578259937580660000012297956116404327601_">
					<use xlink:href="#SVGID_00000036951411208636565360000011981292119736878209_"  style="overflow:visible;"/>
				</clipPath>
				<path style="clip-path:url(#SVGID_00000054961578259937580660000012297956116404327601_);fill:#423522;" d="M329.8,306.2
					c0.3,0,0.6-0.1,0.8-0.2c4.3-1.8,8.8-3.2,13.4-4.3c14.6-3.3,15.5-1,20.5,0c1.5,0.3,5-0.6,5.7-1.4s1.4-4,0.5-4.7
					c-0.4-0.3-6.9-4.8-23.5-1c-6.9,1.6-17.9,7.6-18.2,7.7c-1.1,0.4-1.6,1.6-1.2,2.7C328.2,305.7,329,306.3,329.8,306.2L329.8,306.2z
					"/>
			</g>
		</g>
	</g>
</g>
<g>
	<g>
		<g>
			<g>
				<defs>
					<rect id="SVGID_00000098210803883247926490000013813210894369697941_" x="412" y="293" width="40.1" height="9.2"/>
				</defs>
				<clipPath id="SVGID_00000068665613504267311030000004790615841797088657_">
					<use xlink:href="#SVGID_00000098210803883247926490000013813210894369697941_"  style="overflow:visible;"/>
				</clipPath>
				<path style="clip-path:url(#SVGID_00000068665613504267311030000004790615841797088657_);fill:#423522;" d="M418.1,301.3
					c-1.4,0.3-5.2-0.6-5.9-1.5s0.6-3.6,1.5-4.3c0.4-0.3,6.9-4.8,23.5-1c8,1.8,15.6,5.7,14.8,7.6
					C451.7,302.9,438.5,297.3,418.1,301.3z"/>
			</g>
		</g>
	</g>
</g>
<g>
	<g>
		<g>
			<g>
				<defs>
					<rect id="SVGID_00000000914295784339914690000010794088773710580648_" x="332.3" y="293" width="40.1" height="9.2"/>
				</defs>
				<clipPath id="SVGID_00000134228693864921730780000012008359977756929969_">
					<use xlink:href="#SVGID_00000000914295784339914690000010794088773710580648_"  style="overflow:visible;"/>
				</clipPath>
				<path style="clip-path:url(#SVGID_00000134228693864921730780000012008359977756929969_);fill:#423522;" d="M366.3,301.3
					c1.5,0.3,5.2-0.6,5.9-1.5s-0.6-3.6-1.5-4.3c-0.4-0.3-6.9-4.8-23.5-1c-8,1.8-15.6,5.7-14.8,7.6
					C332.7,302.9,345.9,297.3,366.3,301.3z"/>
			</g>
		</g>
	</g>
</g>
<path class="st4" d="M380.4,380.8c0-1.7,1.3-3.8,11.8-3.8s13,1.8,13,3.4s-2.9,6.6-13.4,6.6S380.4,382.4,380.4,380.8z"/>
<path class="st5" d="M387.5,1117c3.1,0.1,7.2,0.2,11.3,0.2c4.1,0,8.1-0.1,11-0.2"/>
<g>
	<g>
		<path class="st6" d="M372.5,334.5c0,0-12.3,4.3-24.4,1.6c-12.1-2.7-12.5-4.7-12.5-4.7l9.7-7l6.6-1.6l11.7,1l2.9,2.1l3.9,4.1
			L372.5,334.5z"/>
		<path class="st7" d="M364.7,324.9c4.1,2.3,6.2,6,8,9.7c0.2-0.2,0.4-0.2,0.4-0.4c0-0.6,0-1.2-0.2-1.6c-2.5-4.5-5.5-9-10.9-10.3
			c-7.4-1.8-14.6-1-21.1,3.7c-2.1,1.6-4.1,3.1-6.2,4.9c3.1,2.9,13.6,6.2,14.8,4.7c-0.8-0.2-1.4-0.2-1.9-0.4
			c-1.6-0.6-3.3-1.2-4.9-1.9c-0.8-0.4-0.4-1,0.4-1c0.2,0,0.4,0,1,0c-1.9-1.8-1.9-2.1,0-4.1c1.4-1.4,2.7-2.5,4.1-3.5
			c0.6-0.4,1.4-0.4,2.1-0.6c0,0.8,0.2,1.6,0.2,2.1c-0.4,3.1,0.2,6,2.3,8.4c1,1.2,3.7,1.8,5.7,1.6s3.3-0.8,4.7-2.5
			c1.4-1.9,1.9-3.9,1.8-6C364.9,326.9,364.7,326.1,364.7,324.9z"/>
	</g>
	<g>
		<path class="st6" d="M413.1,334.7c0,0,12.3,4.3,24.4,1.6c12.1-2.7,12.5-4.7,12.5-4.7l-9.7-7l-6.6-1.6l-11.7,1l-2.9,2.1l-3.9,4.1
			L413.1,334.7z"/>
		<path class="st7" d="M420.9,325.1c-4.1,2.3-6.2,6-8,9.7c-0.2-0.2-0.4-0.2-0.4-0.4c0-0.6,0-1.2,0.2-1.6c2.5-4.5,5.5-9,10.9-10.3
			c7.4-1.8,14.6-1,21.1,3.7c2.1,1.6,4.1,3.1,6.2,4.9c-3.1,2.9-13.6,6.2-14.8,4.7c0.8-0.2,1.4-0.2,1.9-0.4c1.6-0.6,3.3-1.2,4.9-1.9
			c0.8-0.4,0.4-1-0.4-1c-0.2,0-0.4,0-1,0c1.9-1.8,1.9-2.1,0-4.1c-1.4-1.4-2.7-2.5-4.1-3.5c-0.6-0.4-1.4-0.4-2.1-0.6
			c0,0.8-0.2,1.6-0.2,2.1c0.4,3.1-0.2,6-2.3,8.4c-1,1.2-3.7,1.8-5.7,1.6c-1.9-0.2-3.3-0.8-4.7-2.5c-1.4-1.9-1.9-3.9-1.8-6
			C420.7,327.1,420.7,326.5,420.9,325.1z"/>
	</g>
</g>
</svg>
