<?xml version="1.0" encoding="utf-8"?>
<!-- Generator: Adobe Illustrator 26.0.3, SVG Export Plug-In . SVG Version: 6.00 Build 0)  -->
<svg version="1.1" id="Calque_1" xmlns="http://www.w3.org/2000/svg" xmlns:xlink="http://www.w3.org/1999/xlink" x="0px" y="0px"
	 viewBox="0 0 788 1005" style="enable-background:new 0 0 788 1005;" xml:space="preserve">
<style type="text/css">
	.st0{clip-path:url(#SVGID_00000084501566630912953230000010559539577268567447_);}
	.st1{fill:#573623;}
	.st2{clip-path:url(#SVGID_00000060020028489343698240000017547815447516268934_);}
	.st3{fill:#9D5E70;}
	.st4{clip-path:url(#SVGID_00000090253273195920681210000002294879523019067829_);}
	.st5{fill:#423522;}
	.st6{clip-path:url(#SVGID_00000105393257269420795310000010292189770454662024_);}
	.st7{fill:#FFFFFF;}
</style>
<g>
	<g>
		<g>
			<g>
				<defs>
					<rect id="SVGID_1_" x="410.6" y="293" width="40.1" height="9.2"/>
				</defs>
				<clipPath id="SVGID_00000013166538045447267750000015839631019110804113_">
					<use xlink:href="#SVGID_1_"  style="overflow:visible;"/>
				</clipPath>
				<g style="clip-path:url(#SVGID_00000013166538045447267750000015839631019110804113_);">
					<path class="st1" d="M416.8,301.3c-1.4,0.3-5.2-0.6-5.9-1.5c-0.7-0.9,0.6-3.6,1.5-4.3c0.4-0.3,6.9-4.8,23.5-1
						c8,1.8,15.6,5.7,14.8,7.6C450.4,302.9,437.2,297.3,416.8,301.3z"/>
				</g>
			</g>
		</g>
	</g>
</g>
<g>
	<g>
		<g>
			<g>
				<defs>
					<rect id="SVGID_00000135663544170997163010000005871190723022697877_" x="331" y="293" width="40.1" height="9.2"/>
				</defs>
				<clipPath id="SVGID_00000121250127583102963610000007544403778254079928_">
					<use xlink:href="#SVGID_00000135663544170997163010000005871190723022697877_"  style="overflow:visible;"/>
				</clipPath>
				<g style="clip-path:url(#SVGID_00000121250127583102963610000007544403778254079928_);">
					<path class="st1" d="M365,301.3c1.5,0.3,5.2-0.6,5.9-1.5s-0.6-3.6-1.5-4.3c-0.4-0.3-6.9-4.8-23.5-1c-8,1.8-15.6,5.7-14.8,7.6
						C331.4,302.9,344.5,297.3,365,301.3z"/>
				</g>
			</g>
		</g>
	</g>
</g>
<ellipse class="st3" cx="390.9" cy="383.7" rx="5.7" ry="7.6"/>
<g>
	<g>
		<g>
			<g>
				<defs>
					<rect id="SVGID_00000059995466092362718890000016602037801964294332_" x="410.6" y="293" width="40.1" height="9.2"/>
				</defs>
				<clipPath id="SVGID_00000085961618404286248360000001668771157563627409_">
					<use xlink:href="#SVGID_00000059995466092362718890000016602037801964294332_"  style="overflow:visible;"/>
				</clipPath>
				<g style="clip-path:url(#SVGID_00000085961618404286248360000001668771157563627409_);">
					<path class="st5" d="M416.8,301.3c-1.4,0.3-5.2-0.6-5.9-1.5c-0.7-0.9,0.6-3.6,1.5-4.3c0.4-0.3,6.9-4.8,23.5-1
						c8,1.8,15.6,5.7,14.8,7.6C450.4,302.9,437.2,297.3,416.8,301.3z"/>
				</g>
			</g>
		</g>
	</g>
</g>
<g>
	<g>
		<g>
			<g>
				<defs>
					<rect id="SVGID_00000163753706271147157890000015328473377533427350_" x="331" y="293" width="40.1" height="9.2"/>
				</defs>
				<clipPath id="SVGID_00000106848355436459646840000007021300774942513057_">
					<use xlink:href="#SVGID_00000163753706271147157890000015328473377533427350_"  style="overflow:visible;"/>
				</clipPath>
				<g style="clip-path:url(#SVGID_00000106848355436459646840000007021300774942513057_);">
					<path class="st5" d="M365,301.3c1.5,0.3,5.2-0.6,5.9-1.5s-0.6-3.6-1.5-4.3c-0.4-0.3-6.9-4.8-23.5-1c-8,1.8-15.6,5.7-14.8,7.6
						C331.4,302.9,344.5,297.3,365,301.3z"/>
				</g>
			</g>
		</g>
	</g>
</g>
<ellipse class="st3" cx="390.9" cy="383.7" rx="5.7" ry="7.6"/>
<g>
	<g>
		<path class="st7" d="M370.5,333.7c0,0-12.5,4.4-24.8,1.6s-12.7-4.8-12.7-4.8l9.9-7.1l6.7-1.6l11.9,1l3,2.2l4,4.2L370.5,333.7z"/>
		<path class="st5" d="M362.4,323.9c4.2,2.4,6.3,6.1,8.1,9.9c0.2-0.2,0.4-0.2,0.4-0.4c0-0.6,0-1.2-0.2-1.6
			c-2.6-4.6-5.5-9.1-11.1-10.5c-7.5-1.8-14.9-1-21.4,3.8c-2.2,1.6-4.2,3.2-6.3,5c3.2,3,13.9,6.3,15.1,4.8c-0.8-0.2-1.4-0.2-2-0.4
			c-1.6-0.6-3.4-1.2-5-2c-0.8-0.4-0.4-1,0.4-1c0.2,0,0.4,0,1,0c-2-1.8-2-2.2,0-4.2c1.4-1.4,2.8-2.6,4.2-3.6
			C346.1,323.4,351.7,321.8,362.4,323.9z"/>
	</g>
	<g>
		<path class="st7" d="M411.5,334.1c0,0,12.5,4.4,24.8,1.6s12.7-4.8,12.7-4.8l-9.9-7.1l-6.7-1.6l-11.9,1l-3,2.2l-4,4.2L411.5,334.1z
			"/>
		<path class="st5" d="M419.4,324.3c-4.2,2.4-6.3,6.1-8.1,9.9c-0.2-0.2-0.4-0.2-0.4-0.4c0-0.6,0-1.2,0.2-1.6
			c2.6-4.6,5.5-9.1,11.1-10.5c7.5-1.8,14.9-1,21.4,3.8c2.2,1.6,4.2,3.2,6.3,5c-3.2,3-13.9,6.3-15.1,4.8c0.8-0.2,1.4-0.2,2-0.4
			c1.6-0.6,3.4-1.2,5-2c0.8-0.4,0.4-1-0.4-1c-0.2,0-0.4,0-1,0c2-1.8,2-2.2,0-4.2c-1.4-1.4-2.8-2.6-4.2-3.6c-0.6-0.4-1.4-0.4-2.2-0.6
			C429.3,322.4,424,322.4,419.4,324.3z"/>
	</g>
	<path class="st5" d="M352.5,328.1c0,4.2,3.2,7.5,7.3,7.7h0.4c0.4,0,0.6,0,1,0c4.2-0.6,6.3-3.4,5.7-7.5l0,0c0-0.6-0.6-1.2-0.8-1.6
		c-0.2-0.6-1.4-0.8-1.6-1.6c-0.4-0.4-1.6-1.4-2.2-1.6c-2.6,0-4.8-0.6-7.5-0.6c-0.6,0.6-1.2,1.4-1.6,2l-0.2,0.4
		C352.9,326.1,352.7,327.1,352.5,328.1z"/>
	<path class="st5" d="M427.4,328.1c0,4.2,3.2,7.5,7.3,7.7h0.4c0.4,0,0.6,0,1,0c4.2-0.6,6.3-3.4,5.7-7.5l0,0c0-0.6-0.6-1.2-0.8-1.6
		c-0.2-0.6-1.4-0.8-1.6-1.6c-0.4-0.4-1.6-1.4-2.2-1.6c-2.6,0-4.8-0.6-7.5-0.6c-0.6,0.6-1.2,1.4-1.6,2l-0.2,0.4
		C427.6,326.1,427.4,327.1,427.4,328.1z"/>
</g>
</svg>
