<?xml version="1.0" encoding="utf-8"?>
<!-- Generator: Adobe Illustrator 26.0.3, SVG Export Plug-In . SVG Version: 6.00 Build 0)  -->
<svg version="1.1" id="Calque_1" xmlns="http://www.w3.org/2000/svg" xmlns:xlink="http://www.w3.org/1999/xlink" x="0px" y="0px"
	 viewBox="0 0 788 1005" style="enable-background:new 0 0 788 1005;" xml:space="preserve">
<style type="text/css">
	.st0{clip-path:url(#SVGID_00000009588917616279249250000005633239337273606580_);fill:#423522;}
	.st1{clip-path:url(#SVGID_00000049187857410540960670000009711229407644460213_);fill:#423522;}
	.st2{fill:#423522;}
	.st3{fill:#9D5E70;}
	.st4{fill:#FFFFFF;}
</style>
<g>
	<g>
		<g>
			<g>
				<defs>
					
						<rect id="SVGID_1_" x="426" y="277.5" transform="matrix(0.2712 -0.9625 0.9625 0.2712 27.3404 631.3049)" width="9.2" height="40.1"/>
				</defs>
				<clipPath id="SVGID_00000001662960362341301390000015531397423668407433_">
					<use xlink:href="#SVGID_1_"  style="overflow:visible;"/>
				</clipPath>
				<path style="clip-path:url(#SVGID_00000001662960362341301390000015531397423668407433_);fill:#423522;" d="M416.2,297.4
					c-1.5-0.1-4.8-2-5.3-3s1.6-3.3,2.6-3.7c0.5-0.2,7.9-2.7,22.9,5.4c7.2,3.9,13.5,9.7,12.2,11.3
					C448.1,308.1,436.9,299.1,416.2,297.4z"/>
			</g>
		</g>
	</g>
</g>
<g>
	<g>
		<g>
			<g>
				<defs>
					
						<rect id="SVGID_00000023266006206452197580000012584662803789044122_" x="330.8" y="293" transform="matrix(0.9755 -0.22 0.22 0.9755 -56.8762 84.4783)" width="40.1" height="9.2"/>
				</defs>
				<clipPath id="SVGID_00000063603150342916330510000008833577225806719897_">
					<use xlink:href="#SVGID_00000023266006206452197580000012584662803789044122_"  style="overflow:visible;"/>
				</clipPath>
				<path style="clip-path:url(#SVGID_00000063603150342916330510000008833577225806719897_);fill:#423522;" d="M365.3,298.1
					c1.5,0,4.9-1.7,5.5-2.7c0.5-1-1.4-3.3-2.4-3.9c-0.4-0.2-7.7-3.1-23.2,4.2c-7.4,3.5-14,9-12.8,10.7
					C332.9,307.1,344.5,298.7,365.3,298.1z"/>
			</g>
		</g>
	</g>
</g>
<path class="st2" d="M447.9,332.2c-1.4,2-3.9,2.6-5.9,1.3c-3.6-2.3-14.2-2.5-18.2-1.1c-5.4,1.8-11.8,4.4-13.5,0.8
	c-0.3-0.6,3-6.8,14-7.5C435.3,325.1,442.9,331.6,447.9,332.2L447.9,332.2z"/>
<path class="st3" d="M416.9,373.9c0,4.2-23.5,8.2-27.9,8.2s-25-4-25-8.2c0,0,15.1,4.6,27.8,3.9C406.6,376.9,416.9,373.9,416.9,373.9
	z"/>
<g>
	<path class="st4" d="M371.7,334.1c0,0-12.1,4.2-24.1,1.5s-12.3-4.6-12.3-4.6l9.6-6.9l6.6-1.5l11.6,1l2.9,2.1l3.9,4L371.7,334.1z"/>
	<path class="st2" d="M364,324.7c4,2.3,6.2,6,7.9,9.6c0.2-0.2,0.4-0.2,0.4-0.4c0-0.6,0-1.2-0.2-1.5c-2.5-4.4-5.4-8.9-10.8-10.2
		c-7.5-1.7-14.7-1-21,3.7c-2.1,1.5-4,3.1-6.2,4.8c3.1,2.9,13.5,6.2,14.7,4.6c-0.8-0.2-1.3-0.2-1.9-0.4c-1.5-0.6-3.3-1.2-4.8-1.9
		c-0.8-0.4-0.4-1,0.4-1c0.2,0,0.4,0,1,0c-1.9-1.7-1.9-2.1,0-4c1.3-1.3,2.7-2.5,4-3.5c0.6-0.4,1.3-0.4,2.1-0.6c0,0.8,0.2,1.5,0.2,2.1
		c-0.4,3.1,0.2,6,2.3,8.3c1,1.2,3.7,1.7,5.6,1.5s3.3-0.8,4.6-2.5c1.3-1.9,1.9-3.9,1.7-6C364.2,326.6,364,325.8,364,324.7z"/>
</g>
</svg>
