<?xml version="1.0" encoding="utf-8"?>
<!-- Generator: Adobe Illustrator 26.0.3, SVG Export Plug-In . SVG Version: 6.00 Build 0)  -->
<svg version="1.1" id="Calque_1" xmlns="http://www.w3.org/2000/svg" xmlns:xlink="http://www.w3.org/1999/xlink" x="0px" y="0px"
	 viewBox="0 0 120.8 141.7" style="enable-background:new 0 0 120.8 141.7;" xml:space="preserve">
<style type="text/css">
	.st0{clip-path:url(#SVGID_00000022542187258778409000000003117035899046988973_);fill:#423522;}
	.st1{clip-path:url(#SVGID_00000041262239424547809020000000399993681182732674_);fill:#423522;}
	.st2{fill:#423522;}
	.st3{fill:#9D5E70;}
	.st4{fill:#FFFFFF;}
</style>
<g>
	<g>
		<g>
			<defs>
				
					<rect id="SVGID_1_" x="95.3" y="13.6" transform="matrix(0.2712 -0.9625 0.9625 0.2712 40.3821 120.6928)" width="9.2" height="40.1"/>
			</defs>
			<clipPath id="SVGID_00000147912957754355060980000011239783223887796608_">
				<use xlink:href="#SVGID_1_"  style="overflow:visible;"/>
			</clipPath>
			<path style="clip-path:url(#SVGID_00000147912957754355060980000011239783223887796608_);fill:#423522;" d="M85.5,33.5
				c-1.5-0.1-4.8-2-5.3-3s1.6-3.3,2.6-3.7c0.5-0.2,7.9-2.7,22.9,5.4c7.2,3.9,13.5,9.7,12.2,11.3C117.4,44.2,106.2,35.2,85.5,33.5z"
				/>
		</g>
	</g>
</g>
<g>
	<g>
		<g>
			<defs>
				
					<rect id="SVGID_00000048494159528297466850000005655836803548806829_" x="0.1" y="29.1" transform="matrix(0.9755 -0.22 0.22 0.9755 -6.9174 5.2548)" width="40.1" height="9.2"/>
			</defs>
			<clipPath id="SVGID_00000124860634405829136110000006539257236979320452_">
				<use xlink:href="#SVGID_00000048494159528297466850000005655836803548806829_"  style="overflow:visible;"/>
			</clipPath>
			<path style="clip-path:url(#SVGID_00000124860634405829136110000006539257236979320452_);fill:#423522;" d="M34.6,34.2
				c1.5,0,4.9-1.7,5.5-2.7c0.5-1-1.4-3.3-2.4-3.9c-0.4-0.2-7.7-3.1-23.2,4.2c-7.4,3.5-14,9-12.8,10.7C2.2,43.2,13.8,34.8,34.6,34.2z
				"/>
		</g>
	</g>
</g>
<path class="st2" d="M117.2,71.3c-1.4,2-3.9,2.6-5.9,1.3c-3.6-2.3-14.2-2.5-18.2-1.1c-5.4,1.8-11.8,4.4-13.5,0.8
	c-0.3-0.6,3-6.8,14-7.5C104.6,64.2,112.2,70.7,117.2,71.3L117.2,71.3z"/>
<path class="st3" d="M86.2,110c0,4.2-23.5,8.2-27.9,8.2s-25-4-25-8.2c0,0,15.1,4.6,27.8,3.9C75.9,113,86.2,110,86.2,110z"/>
<g>
	<path class="st4" d="M41,73.2c0,0-12.1,4.2-24.1,1.5S4.6,70.1,4.6,70.1l9.6-6.9l6.6-1.5l11.6,1l2.9,2.1l3.9,4L41,73.2z"/>
	<path class="st2" d="M33.3,63.7c4,2.3,6.2,6,7.9,9.6c0.2-0.2,0.4-0.2,0.4-0.4c0-0.6,0-1.2-0.2-1.5C38.9,67,36,62.6,30.6,61.2
		c-7.5-1.7-14.7-1-21,3.7c-2.1,1.5-4,3.1-6.2,4.8c3.1,2.9,13.5,6.2,14.7,4.6c-0.8-0.2-1.3-0.2-1.9-0.4c-1.5-0.6-3.3-1.2-4.8-1.9
		c-0.8-0.4-0.4-1,0.4-1c0.2,0,0.4,0,1,0c-1.9-1.7-1.9-2.1,0-4c1.3-1.3,2.7-2.5,4-3.5c0.6-0.4,1.3-0.4,2.1-0.6c0,0.8,0.2,1.5,0.2,2.1
		c-0.4,3.1,0.2,6,2.3,8.3c1,1.2,3.7,1.7,5.6,1.5c1.9-0.2,3.3-0.8,4.6-2.5c1.3-1.9,1.9-3.9,1.7-6C33.5,65.7,33.3,64.9,33.3,63.7z"/>
</g>
</svg>
