<svg xmlns="http://www.w3.org/2000/svg" xmlns:xlink="http://www.w3.org/1999/xlink" viewBox="0 0 148 115.26"><defs><style>.cls-1,.cls-4,.cls-6{fill:#645d5d;}.cls-1,.cls-3,.cls-6,.cls-7{stroke:#645d5d;}.cls-1,.cls-10,.cls-14,.cls-3,.cls-6,.cls-7,.cls-9{stroke-miterlimit:10;}.cls-10,.cls-14,.cls-2,.cls-3,.cls-7{fill:none;}.cls-10,.cls-14,.cls-3,.cls-6,.cls-9{stroke-width:2px;}.cls-5{clip-path:url(#clip-path);}.cls-8{clip-path:url(#clip-path-2);}.cls-9{fill:#d9d9d9;stroke:#802d31;}.cls-10,.cls-14,.cls-9{stroke-linecap:round;}.cls-10{stroke:#ad7469;}.cls-11{clip-path:url(#clip-path-3);}.cls-12{clip-path:url(#clip-path-4);}.cls-13{clip-path:url(#clip-path-5);}.cls-14{stroke:#cdcdcd;}.cls-15{clip-path:url(#clip-path-6);}.cls-16{clip-path:url(#clip-path-7);}.cls-17{fill:#fff;}.cls-18{clip-path:url(#clip-path-8);}.cls-19{clip-path:url(#clip-path-9);}.cls-20{fill:#050505;}.cls-21{clip-path:url(#clip-path-10);}.cls-22{fill:#b85d40;}</style><clipPath id="clip-path"><rect class="cls-1" x="114.37" y="40.08" width="5.95" height="10.32"/></clipPath><clipPath id="clip-path-2"><rect class="cls-1" x="24.48" y="40.08" width="5.95" height="10.32"/></clipPath><clipPath id="clip-path-3"><rect class="cls-2" x="81.28" y="69.75" width="7.75" height="7.93"/></clipPath><clipPath id="clip-path-4"><rect class="cls-2" x="56.89" y="69.75" width="7.75" height="7.93"/></clipPath><clipPath id="clip-path-5"><rect class="cls-2" x="83.87" y="33.31" width="20.08" height="6.37"/></clipPath><clipPath id="clip-path-6"><rect class="cls-2" x="41.5" y="33.31" width="20.08" height="6.37"/></clipPath><clipPath id="clip-path-7"><polygon class="cls-2" points="81.88 41.26 81.88 41.26 95.34 41.26 95.34 54.22 81.88 54.22 81.88 41.26"/></clipPath><clipPath id="clip-path-8"><polygon class="cls-2" points="60.56 41.26 60.56 41.26 47.1 41.26 47.1 54.22 60.56 54.22 60.56 41.26"/></clipPath><clipPath id="clip-path-9"><polygon class="cls-2" points="84.41 43.24 84.41 43.24 93.41 43.24 93.41 52.24 84.41 52.24 84.41 43.24"/></clipPath><clipPath id="clip-path-10"><polygon class="cls-2" points="58.03 43.24 58.03 43.24 49.03 43.24 49.03 52.24 58.03 52.24 58.03 43.24"/></clipPath></defs><g id="Calque_5" data-name="Calque 5"><ellipse class="cls-3" cx="95.49" cy="47.2" rx="19.64" ry="19.88"/><ellipse class="cls-3" cx="49.87" cy="47.2" rx="19.64" ry="19.88"/><rect class="cls-4" x="114.37" y="40.08" width="5.95" height="10.32"/><g class="cls-5"><rect class="cls-6" x="115.5" y="41.23" width="3.68" height="8.03"/></g><rect class="cls-7" x="114.37" y="40.08" width="5.95" height="10.32"/><rect class="cls-4" x="24.48" y="40.08" width="5.95" height="10.32"/><g class="cls-8"><rect class="cls-6" x="25.61" y="41.23" width="3.68" height="8.03"/></g><rect class="cls-7" x="24.48" y="40.08" width="5.95" height="10.32"/><path class="cls-3" d="M69.43,48.41s-.24-3.62,3.13-3.59c3,0,3.31,3.38,3.31,3.38"/><path class="cls-9" d="M63.28,84.69l9.37.17c4.33.08,9.37-.23,9.37-.23"/><path class="cls-10" d="M65.53,71.86s5.66,3.37,7.56,3.32,7.06-3.29,7.06-3.29"/><g class="cls-11"><path class="cls-10" d="M82.28,70.75S86.5,75.29,88,76.68"/></g><g class="cls-12"><path class="cls-10" d="M63.64,70.75s-4.22,4.54-5.75,5.93"/></g><g class="cls-13"><path class="cls-14" d="M84.87,35.58s4.55-2.85,11.87,0A45,45,0,0,1,103,38.68"/></g><g class="cls-15"><path class="cls-14" d="M60.57,35.58s-4.55-2.85-11.87,0a44.53,44.53,0,0,0-6.2,3.11"/></g><g class="cls-16"><ellipse class="cls-17" cx="88.61" cy="47.74" rx="6.73" ry="6.48"/></g><g class="cls-18"><ellipse class="cls-17" cx="53.83" cy="47.74" rx="6.73" ry="6.48"/></g><g id="_Répétition_miroir_" data-name="&lt;Répétition miroir&gt;"><g class="cls-19"><circle class="cls-20" cx="88.91" cy="47.74" r="4.5"/></g></g><g id="_Répétition_miroir_2" data-name="&lt;Répétition miroir&gt;"><g class="cls-21"><circle class="cls-20" cx="53.53" cy="47.74" r="4.5"/></g></g></g><g id="Calque_3" data-name="Calque 3"><path class="cls-22" d="M80.38,71.2S75.69,74.89,73,74.88s-7-3.59-7-3.59,5.4.73,7.21.72S80.38,71.2,80.38,71.2Z"/></g></svg>