<svg xmlns="http://www.w3.org/2000/svg" xmlns:xlink="http://www.w3.org/1999/xlink" viewBox="0 0 148 115.26"><defs><style>.cls-1,.cls-4,.cls-6{fill:#645d5d;}.cls-1,.cls-3,.cls-6,.cls-7{stroke:#645d5d;}.cls-1,.cls-10,.cls-11,.cls-15,.cls-3,.cls-6,.cls-7,.cls-9{stroke-miterlimit:10;}.cls-11,.cls-15,.cls-2,.cls-3,.cls-7{fill:none;}.cls-10,.cls-11,.cls-15,.cls-3,.cls-6,.cls-9{stroke-width:2px;}.cls-5{clip-path:url(#clip-path);}.cls-8{clip-path:url(#clip-path-2);}.cls-9{fill:#d9d9d9;}.cls-10,.cls-9{stroke:#802d31;}.cls-10,.cls-11,.cls-15,.cls-9{stroke-linecap:round;}.cls-11{stroke:#ad7469;}.cls-12{clip-path:url(#clip-path-3);}.cls-13{clip-path:url(#clip-path-4);}.cls-14{clip-path:url(#clip-path-5);}.cls-15{stroke:#cdcdcd;}.cls-16{clip-path:url(#clip-path-6);}.cls-17{clip-path:url(#clip-path-7);}.cls-18{fill:#fff;}.cls-19{clip-path:url(#clip-path-8);}.cls-20{clip-path:url(#clip-path-9);}.cls-21{fill:#050505;}.cls-22{clip-path:url(#clip-path-10);}.cls-23{fill:#b85d40;}</style><clipPath id="clip-path"><rect class="cls-1" x="114.5" y="40.24" width="5.95" height="10.32"/></clipPath><clipPath id="clip-path-2"><rect class="cls-1" x="24.61" y="40.24" width="5.95" height="10.32"/></clipPath><clipPath id="clip-path-3"><rect class="cls-2" x="81.41" y="69.91" width="7.75" height="7.93"/></clipPath><clipPath id="clip-path-4"><rect class="cls-2" x="57.02" y="69.91" width="7.75" height="7.93"/></clipPath><clipPath id="clip-path-5"><rect class="cls-2" x="84" y="33.47" width="20.08" height="6.37"/></clipPath><clipPath id="clip-path-6"><rect class="cls-2" x="41.63" y="33.47" width="20.08" height="6.37"/></clipPath><clipPath id="clip-path-7"><polygon class="cls-2" points="82.01 41.41 82.01 41.41 95.47 41.41 95.47 54.38 82.01 54.38 82.01 41.41"/></clipPath><clipPath id="clip-path-8"><polygon class="cls-2" points="60.69 41.41 60.69 41.41 47.23 41.41 47.23 54.38 60.69 54.38 60.69 41.41"/></clipPath><clipPath id="clip-path-9"><polygon class="cls-2" points="87.04 42.13 87.04 42.13 96.04 42.13 96.04 51.13 87.04 51.13 87.04 42.13"/></clipPath><clipPath id="clip-path-10"><polygon class="cls-2" points="60.66 42.13 60.66 42.13 51.66 42.13 51.66 51.13 60.66 51.13 60.66 42.13"/></clipPath></defs><g id="Calque_5" data-name="Calque 5"><ellipse class="cls-3" cx="95.62" cy="47.36" rx="19.64" ry="19.88"/><ellipse class="cls-3" cx="50" cy="47.36" rx="19.64" ry="19.88"/><rect class="cls-4" x="114.5" y="40.24" width="5.95" height="10.32"/><g class="cls-5"><rect class="cls-6" x="115.63" y="41.38" width="3.68" height="8.03"/></g><rect class="cls-7" x="114.5" y="40.24" width="5.95" height="10.32"/><rect class="cls-4" x="24.61" y="40.24" width="5.95" height="10.32"/><g class="cls-8"><rect class="cls-6" x="25.74" y="41.38" width="3.68" height="8.03"/></g><rect class="cls-7" x="24.61" y="40.24" width="5.95" height="10.32"/><path class="cls-3" d="M69.56,48.57S69.32,45,72.69,45c3,0,3.31,3.38,3.31,3.38"/><path class="cls-9" d="M63.41,84.85S73.33,91.77,77,90.94c2-.44,5.19-6.15,5.19-6.15"/><polyline class="cls-10" points="82.14 84.62 72.58 83.2 63.41 85.02"/><path class="cls-11" d="M65.66,72s5.66,3.38,7.56,3.33S80.28,72,80.28,72"/><g class="cls-12"><path class="cls-11" d="M82.41,70.91s4.22,4.54,5.75,5.92"/></g><g class="cls-13"><path class="cls-11" d="M63.77,70.91S59.55,75.45,58,76.83"/></g><g class="cls-14"><path class="cls-15" d="M85,35.74s4.55-2.86,11.87,0a45.09,45.09,0,0,1,6.2,3.1"/></g><g class="cls-16"><path class="cls-15" d="M60.7,35.74s-4.55-2.86-11.87,0a45.09,45.09,0,0,0-6.2,3.1"/></g><g class="cls-17"><ellipse class="cls-18" cx="88.74" cy="47.9" rx="6.73" ry="6.48"/></g><g class="cls-19"><ellipse class="cls-18" cx="53.96" cy="47.9" rx="6.73" ry="6.48"/></g><g class="cls-20"><circle class="cls-21" cx="91.54" cy="46.63" r="4.5"/></g><g class="cls-22"><circle class="cls-21" cx="56.16" cy="46.63" r="4.5"/></g></g><g id="Calque_3" data-name="Calque 3"><path class="cls-23" d="M80.38,71.2S75.69,74.89,73,74.88s-7-3.59-7-3.59,5.4.73,7.21.72S80.38,71.2,80.38,71.2Z"/></g></svg>