<svg xmlns="http://www.w3.org/2000/svg" xmlns:xlink="http://www.w3.org/1999/xlink" viewBox="0 0 148 115.26"><defs><style>.cls-1,.cls-6,.cls-8{fill:#645d5d;}.cls-1,.cls-5,.cls-8,.cls-9{stroke:#645d5d;}.cls-1,.cls-11,.cls-15,.cls-5,.cls-8,.cls-9{stroke-miterlimit:10;}.cls-11,.cls-15,.cls-2,.cls-5,.cls-9{fill:none;}.cls-3{fill:#7c3838;}.cls-4{fill:#bcbcbc;}.cls-11,.cls-15,.cls-5,.cls-8{stroke-width:2px;}.cls-7{clip-path:url(#clip-path);}.cls-10{clip-path:url(#clip-path-2);}.cls-11{stroke:#ad7469;}.cls-11,.cls-15{stroke-linecap:round;}.cls-12{clip-path:url(#clip-path-3);}.cls-13{clip-path:url(#clip-path-4);}.cls-14{clip-path:url(#clip-path-5);}.cls-15{stroke:#cdcdcd;}.cls-16{clip-path:url(#clip-path-6);}.cls-17{clip-path:url(#clip-path-7);}.cls-18{fill:#fff;}.cls-19{clip-path:url(#clip-path-8);}.cls-20{clip-path:url(#clip-path-9);}.cls-21{fill:#050505;}.cls-22{clip-path:url(#clip-path-10);}.cls-23{fill:#b85d40;}</style><clipPath id="clip-path"><rect class="cls-1" x="114.5" y="40.24" width="5.95" height="10.32"/></clipPath><clipPath id="clip-path-2"><rect class="cls-1" x="24.61" y="40.24" width="5.95" height="10.32"/></clipPath><clipPath id="clip-path-3"><rect class="cls-2" x="81.41" y="69.91" width="7.75" height="7.93"/></clipPath><clipPath id="clip-path-4"><rect class="cls-2" x="57.02" y="69.91" width="7.75" height="7.93"/></clipPath><clipPath id="clip-path-5"><rect class="cls-2" x="83.93" y="19.32" width="20.08" height="6.37"/></clipPath><clipPath id="clip-path-6"><rect class="cls-2" x="41.55" y="19.32" width="20.08" height="6.37"/></clipPath><clipPath id="clip-path-7"><polygon class="cls-2" points="83.01 41.41 83.01 41.41 96.47 41.41 96.47 54.38 83.01 54.38 83.01 41.41"/></clipPath><clipPath id="clip-path-8"><polygon class="cls-2" points="61.69 41.41 61.69 41.41 48.23 41.41 48.23 54.38 61.69 54.38 61.69 41.41"/></clipPath><clipPath id="clip-path-9"><polygon class="cls-2" points="85.97 43.4 85.97 43.4 94.97 43.4 94.97 52.4 85.97 52.4 85.97 43.4"/></clipPath><clipPath id="clip-path-10"><polygon class="cls-2" points="59.58 43.4 59.58 43.4 50.58 43.4 50.58 52.4 59.58 52.4 59.58 43.4"/></clipPath></defs><g id="Calque_3" data-name="Calque 3"><circle cx="55.77" cy="50.02" r="2.89"/><circle cx="87.7" cy="50.02" r="2.89"/><path class="cls-3" d="M59.78,82.18c.25-.56,1.25-1.44,3.08-2.24a25.61,25.61,0,0,1,9.27-1.84,20,20,0,0,1,13.93,5.32S82,93.74,72.18,93C65,92.43,59.78,82.18,59.78,82.18Z"/><path class="cls-4" d="M72.48,82.51l-7.24-.33-1.94-.8a24.81,24.81,0,0,1,10-1.76c5.89.31,9.06,2.56,9.06,2.56l-1.5.71Z"/><ellipse class="cls-5" cx="95.62" cy="47.36" rx="19.64" ry="19.88"/><ellipse class="cls-5" cx="50" cy="47.36" rx="19.64" ry="19.88"/><rect class="cls-6" x="114.5" y="40.24" width="5.95" height="10.32"/><g class="cls-7"><rect class="cls-8" x="115.63" y="41.38" width="3.68" height="8.03"/></g><rect class="cls-9" x="114.5" y="40.24" width="5.95" height="10.32"/><rect class="cls-6" x="24.61" y="40.24" width="5.95" height="10.32"/><g class="cls-10"><rect class="cls-8" x="25.74" y="41.38" width="3.68" height="8.03"/></g><rect class="cls-9" x="24.61" y="40.24" width="5.95" height="10.32"/><path class="cls-5" d="M69.56,48.57S69.32,45,72.69,45c3,0,3.31,3.38,3.31,3.38"/><path class="cls-11" d="M65.66,72s5.66,3.38,7.56,3.33S80.28,72,80.28,72"/><g class="cls-12"><path class="cls-11" d="M82.41,70.91s4.22,4.54,5.75,5.92"/></g><g class="cls-13"><path class="cls-11" d="M63.77,70.91S59.55,75.45,58,76.83"/></g><g class="cls-14"><path class="cls-15" d="M84.93,21.59s4.55-2.86,11.87,0a45.09,45.09,0,0,1,6.2,3.1"/></g><g class="cls-16"><path class="cls-15" d="M60.63,21.59s-4.55-2.86-11.87,0a44.85,44.85,0,0,0-6.21,3.1"/></g><g id="_Repetition_miroir_" data-name="&lt;Repetition miroir&gt;"><g class="cls-17"><ellipse class="cls-18" cx="89.74" cy="47.9" rx="6.73" ry="6.48"/></g></g><g id="_Repetition_miroir_2" data-name="&lt;Repetition miroir&gt;"><g class="cls-19"><ellipse class="cls-18" cx="54.96" cy="47.9" rx="6.73" ry="6.48"/></g></g><g class="cls-20"><circle class="cls-21" cx="90.47" cy="47.9" r="4.5"/></g><g class="cls-22"><circle class="cls-21" cx="55.08" cy="47.9" r="4.5"/></g><path class="cls-23" d="M80.38,71.2S75.69,74.89,73,74.88s-7-3.59-7-3.59,5.4.73,7.21.72S80.38,71.2,80.38,71.2Z"/></g></svg>