<svg xmlns="http://www.w3.org/2000/svg" xmlns:xlink="http://www.w3.org/1999/xlink" viewBox="0 0 788 1005.07"><defs><style>.cls-1{fill:none;}.cls-2{clip-path:url(#clip-path);}.cls-3{fill:#e78367;}.cls-4{clip-path:url(#clip-path-2);}.cls-5{fill:#eaefeb;}.cls-6{fill:#c9634b;}.cls-7{fill:#681c23;}</style><clipPath id="clip-path"><polygon class="cls-1" points="408.95 141.54 408.95 141.54 423.87 141.54 423.87 170.63 408.95 170.63 408.95 141.54"/></clipPath><clipPath id="clip-path-2"><polygon class="cls-1" points="341.4 141.54 341.4 141.54 326.49 141.54 326.49 170.63 341.4 170.63 341.4 141.54"/></clipPath></defs><g id="Calque_3" data-name="Calque 3"><g id="_Repetition_miroir_" data-name="&lt;Repetition miroir&gt;"><g class="cls-2"><path class="cls-3" d="M410,147.39s5-6.15,8-5.84c4.41.47,6.4,8.66,5.83,12.35-.72,4.62-4.83,14.56-10,16.65-1,.41-4.85-.82-4.85-.82Z"/></g></g><g id="_Repetition_miroir_2" data-name="&lt;Repetition miroir&gt;"><g class="cls-4"><path class="cls-3" d="M340.41,147.39s-5-6.15-8-5.84c-4.42.47-6.41,8.66-5.84,12.35.72,4.62,4.83,14.56,10,16.65,1,.41,4.85-.82,4.85-.82Z"/></g></g><ellipse class="cls-5" cx="334.58" cy="171.09" rx="3.85" ry="4.33"/><ellipse class="cls-5" cx="416.41" cy="172.05" rx="3.85" ry="4.33"/><path class="cls-6" d="M339,151.8s-4.47-7-6.64-6.67c-1.73.28-2.23,6.36-2.23,6.36s.66-4.26,3.85-1.51c2.27,2,5,9.1,5,9.1Z"/><path class="cls-6" d="M411.39,152.41s4.46-7,6.63-6.67c1.74.28,2.24,6.36,2.24,6.36s-.67-4.26-3.85-1.51c-2.28,2-5,9.1-5,9.1Z"/><path class="cls-3" d="M411.1,124C408,98.12,376.78,98.12,376.78,98.12s-31.32-1.25-35,25.84c-2.86,21.3-5.05,37.12-.14,48.09,4.64,10.36,15.21,30.74,25.07,35.12a29.91,29.91,0,0,0,9.71,1.86,30.31,30.31,0,0,0,8.85-1.86c9.82-4.34,20.46-24.81,24.73-35.12C414.65,160.94,412.72,145.39,411.1,124Z"/><path class="cls-7" d="M361.44,110.37c13-1.18,30.56,1.66,45.54,17.82,0,0,1.51-4-2.13-8.93,0,0,8.76,7.56,6.75,25.08,0,0,8.93-.58,8.93-7.78s10.67-4.68,10.67-15.19,13.83-7,6.63-16.74-8.36-10.13-8.94-17.72S420,80,412.17,75.79s-1.67-10.88-15-8.74-13.57,6.43-21.93,3.31-17-5.84-22.77-1.17-14.13,7.6-20.18,7.79-9.51,7.4-8.94,13.63-13.54,6.62-10.08,12.85,11.24,7.59,12.39,9.73-8.94,2.34-6.63,7,14.7,6.62,13.84,10.32-9.52,8.18-5.77,11.49,18.19,6.42,11.26,9.34,8.63.48,4.31-5.21-11.53-5.49-6.63-9.39,18.16-7.4,8.64-10.71,1.2-1.55,2.27-9.93C347.28,113.83,357.28,110.75,361.44,110.37Z"/></g></svg>