<svg xmlns="http://www.w3.org/2000/svg" xmlns:xlink="http://www.w3.org/1999/xlink" viewBox="0 0 788 1005.07"><defs><style>.cls-1{fill:none;}.cls-2{clip-path:url(#clip-path);}.cls-3{fill:#e78367;}.cls-4{clip-path:url(#clip-path-2);}.cls-5{fill:#c9634b;}.cls-6{fill:#681c23;}.cls-7{fill:#3b7084;}.cls-8{fill:#357abb;}</style><clipPath id="clip-path"><polygon class="cls-1" points="408.1 138.16 408.1 138.16 423.02 138.16 423.02 167.26 408.1 167.26 408.1 138.16"/></clipPath><clipPath id="clip-path-2"><polygon class="cls-1" points="340.56 138.16 340.56 138.16 325.64 138.16 325.64 167.26 340.56 167.26 340.56 138.16"/></clipPath></defs><g id="Calque_3" data-name="Calque 3"><g id="_Répétition_miroir_" data-name="&lt;Répétition miroir&gt;"><g class="cls-2"><path class="cls-3" d="M409.1,144s5-6.15,8-5.84c4.42.48,6.4,8.66,5.83,12.35-.71,4.62-4.82,14.56-10,16.65-1,.41-4.85-.82-4.85-.82Z"/></g></g><g id="_Répétition_miroir_2" data-name="&lt;Répétition miroir&gt;"><g class="cls-4"><path class="cls-3" d="M339.56,144s-5-6.15-8-5.84c-4.42.48-6.41,8.66-5.83,12.35.71,4.62,4.82,14.56,10,16.65,1,.41,4.86-.82,4.86-.82Z"/></g></g><path class="cls-5" d="M338.17,148.43s-4.46-7-6.63-6.68c-1.74.28-2.24,6.36-2.24,6.36s.67-4.26,3.85-1.51c2.28,2,5,9.11,5,9.11Z"/><path class="cls-5" d="M410.54,149s4.47-7,6.64-6.67c1.73.28,2.23,6.36,2.23,6.36s-.67-4.26-3.85-1.51c-2.27,2-5,9.11-5,9.11Z"/><path class="cls-3" d="M410.26,120.58c-3.09-25.84-34.33-25.84-34.33-25.84s-31.32-1.25-35,25.84c-2.86,21.3-5.05,37.12-.14,48.09,4.64,10.36,15.22,30.74,25.08,35.12a29.59,29.59,0,0,0,9.7,1.86,30.24,30.24,0,0,0,8.85-1.86c9.82-4.34,20.46-24.81,24.74-35.12C413.8,157.56,411.87,142,410.26,120.58Z"/><path class="cls-6" d="M387.44,89.64c-7.6-4.26,8.37-.41-4.62,1.73s-4.49,6.8-12.66,3.69-1.91-1.11-7.54,3.57,0,0-5.92.19-.56-10.32,0-4.09-3.38-2.14,0,4.09-9.31,1.56-8.18,3.7-8.74,2.33-6.48,7-7.72,10.91-8.56,14.61-9.3,8.18-5.63,11.49,17.77,6.42,11,9.35,8.44.47,4.22-5.22-11.27-5.49-6.48-9.39,17.75-7.39,8.45-10.7,1.17-1.56,2.21-9.94c.28-2.28,10.07-5.36,14.13-5.74,12.74-1.18,29.86,1.66,44.51,17.82,0,0,1.47-4-2.08-8.92,0,0,8.56,7.55,6.59,25.08,0,0,8.73-.59,8.73-7.79s-7.05-6-7.05-16.55.62-2.58-6.43-12.32"/><path class="cls-7" d="M361.54,80h30.07a27.8,27.8,0,0,1,27.8,27.8v20.06a0,0,0,0,1,0,0H333.73a0,0,0,0,1,0,0V107.81A27.8,27.8,0,0,1,361.54,80Z"/><rect class="cls-7" x="299.68" y="121.68" width="44.53" height="6.19"/><rect class="cls-8" x="329.87" y="165.05" width="10.35" height="10.35" rx="4.14" transform="translate(-26.2 273.83) rotate(-42.94)"/><rect class="cls-8" x="410.97" y="164.22" width="10.35" height="10.35" rx="4.14" transform="translate(209.18 -229.4) rotate(40.42)"/></g></svg>