<svg xmlns="http://www.w3.org/2000/svg" xmlns:xlink="http://www.w3.org/1999/xlink" viewBox="0 0 788 1005.07"><defs><style>.cls-1{fill:none;}.cls-2{fill:#681c23;}.cls-3{clip-path:url(#clip-path);}.cls-4{fill:#e78367;}.cls-5{clip-path:url(#clip-path-2);}.cls-6{fill:#ffca22;}.cls-7{fill:#c9634b;}</style><clipPath id="clip-path"><polygon class="cls-1" points="408.62 142.34 408.62 142.34 423.53 142.34 423.53 171.44 408.62 171.44 408.62 142.34"/></clipPath><clipPath id="clip-path-2"><polygon class="cls-1" points="341.07 142.34 341.07 142.34 326.15 142.34 326.15 171.44 341.07 171.44 341.07 142.34"/></clipPath></defs><g id="Calque_3" data-name="Calque 3"><path class="cls-2" d="M332.12,196.6C332.49,198.61,356,220,356,220l.79-20.55s35.61-6.17,37.22-5.81-2.81,27.6,10.21,28.78c4.06.37,15.82-85.29,12.53-95.41s-7.82-24-14.59-27.71-29.4-13.49-37.25-10.6-14,8.31-19,14.46S325.54,153,324.3,155.84,332.12,196.6,332.12,196.6Z"/><path class="cls-2" d="M417.09,101.43s17.13,26,16.21,36.46S412.22,179,412.22,179s6.41-22.3,8.79-30.78-5.6-16.55-8.65-24-5.2-17-11.34-28.59S417.09,101.43,417.09,101.43Z"/><path class="cls-2" d="M393.88,104.69c3.29-1.2,13.05-10.22,13.05-10.22S401,79.65,397.7,77.54c-7.64-4.92-25.87-5.75-34.92-6-38.5-1.21-36.11,51.37-36.11,51.37S303.73,133.28,307,167c1.75,18.27,20.16,22.9,18.51,26.77-15.9,37.1,15.26,38.14,14.06,39.25s18.6,12.89,22.19,8.19c12.82-16.81-42.78-68.07-30.93-78.69,8.59-7.7,9.7-14.11,14.37-33.71.27-1.14,4.84-10.26,10.51-18.94,7.81-12,21.46-7.24,22.37-6.88C389.25,107.47,393.88,104.69,393.88,104.69Z"/><path class="cls-2" d="M401,95.68l-2.63,11.53L409,120.08c.33.68,7.94,10.68,6.82,9.21-3.21-4.22-1.05,21.21-1.05,21.21l6.94-2c.74-1.88,1.07-5.8,1.33-7.74.57-4.22,0-17,0-17s-2.5-13-4.41-17c-.05-.12-.12-.24-.19-.37C415.48,100.88,405.93,91.83,401,95.68Z"/><path class="cls-2" d="M402.15,99.34s-8.77,2.61-14.44,2.88c-4.65.22-26.16-5.84-31.35-5.68,0,0,21.56-21.25,30.79-11.22S402.15,99.34,402.15,99.34Z"/><path class="cls-2" d="M351.13,116.21c1.21,0-4.64-13.64,5.23-19.67,16.3-10,31.35,5.68,31.35,5.68s-25.55-3.21-27.2-.12S351.13,116.21,351.13,116.21Z"/><g id="_Repetition_miroir_" data-name="&lt;Repetition miroir&gt;"><g class="cls-3"><path class="cls-4" d="M409.61,148.19s5-6.15,8-5.84c4.42.47,6.41,8.66,5.84,12.35-.72,4.62-4.83,14.56-10,16.65-1,.41-4.85-.82-4.85-.82Z"/></g></g><g id="_Repetition_miroir_2" data-name="&lt;Repetition miroir&gt;"><g class="cls-5"><path class="cls-4" d="M340.07,148.19s-5-6.15-8-5.84c-4.41.47-6.4,8.66-5.83,12.35.72,4.62,4.83,14.56,10,16.65,1,.41,4.85-.82,4.85-.82Z"/></g></g><ellipse class="cls-6" cx="334.25" cy="171.89" rx="3.85" ry="4.33"/><ellipse class="cls-6" cx="416.07" cy="172.85" rx="3.85" ry="4.33"/><path class="cls-7" d="M338.68,152.6s-4.46-7-6.63-6.67c-1.74.28-2.24,6.36-2.24,6.36s.67-4.26,3.85-1.51c2.28,2,5,9.1,5,9.1Z"/><path class="cls-7" d="M411.06,153.21s4.46-7,6.63-6.67c1.74.28,2.24,6.36,2.24,6.36s-.67-4.26-3.86-1.51c-2.27,2-5,9.1-5,9.1Z"/><path class="cls-4" d="M410.77,124.76c-3.08-25.84-34.33-25.84-34.33-25.84s-31.32-1.25-34.95,25.84c-2.87,21.3-5.06,37.12-.14,48.09,4.64,10.36,15.21,30.74,25.07,35.12a29.86,29.86,0,0,0,9.71,1.86A30.24,30.24,0,0,0,385,208c9.83-4.34,20.46-24.81,24.74-35.12C414.32,161.74,412.39,146.19,410.77,124.76Z"/><path class="cls-2" d="M345.56,98.91s10.9,9,30,5.8,25.25,1.67,26.63-5.37-18.66-13.9-33-11.13S339.62,95.55,345.56,98.91Z"/></g></svg>