<svg xmlns="http://www.w3.org/2000/svg" xmlns:xlink="http://www.w3.org/1999/xlink" viewBox="0 0 788 1005.07"><defs><style>.cls-1{fill:none;}.cls-2{fill:#b26959;}.cls-3{clip-path:url(#clip-path);}.cls-4{fill:#904c3d;}.cls-5{clip-path:url(#clip-path-2);}</style><clipPath id="clip-path"><polygon class="cls-1" points="440.61 105.62 440.61 105.62 456.11 105.62 456.11 135.84 440.61 135.84 440.61 105.62"/></clipPath><clipPath id="clip-path-2"><polygon class="cls-1" points="368.34 105.62 368.34 105.62 352.84 105.62 352.84 135.84 368.34 135.84 368.34 105.62"/></clipPath></defs><g id="Calque_3" data-name="Calque 3"><path d="M421.21,93.85c16-3.78,23.11-6.22,26.44-6.84s2.89.58,3.78,4.1c1.78,7,4.68,39.13,4.68,39.13s-2.31,16.5-5.86,24.8-7,13-11.8,13-6-4.45-11.31-4.89-5.93-1.63-8.89-6.37S421.21,93.85,421.21,93.85Z"/><circle class="cls-2" cx="404.87" cy="91.11" r="38.29"/><path d="M404.68,135.9c-22.95,0-41.54-18.83-41.54-42.05s18.59-42,41.54-42"/><path class="cls-2" d="M440.46,87.36c-.88-9-38.39-12.32-40.94-12.54h-8.06a3.44,3.44,0,0,0-.46,0l-6.15.86s-15.46,2.37-16.36,11.66c-2.18,22.22-1,31,.47,55.94.56,9.57,24.53,26.18,29.23,29.35a3.23,3.23,0,0,0,1.74.55l4.44.14h.21l4.44-.14a3.23,3.23,0,0,0,1.74-.55c4.7-3.17,28.66-19.78,29.22-29.35C441.42,118.35,442.64,109.58,440.46,87.36Z"/><g class="cls-3"><path class="cls-4" d="M441.65,111.7s5.23-6.39,8.3-6.07c4.59.49,6.65,9,6.06,12.83-.75,4.8-5,15.12-10.36,17.3-1,.43-5-.85-5-.85Z"/></g><g class="cls-5"><path class="cls-4" d="M367.3,111.7s-5.23-6.39-8.3-6.07c-4.59.49-6.65,9-6.06,12.83.75,4.8,5,15.12,10.36,17.3,1.05.43,5-.85,5-.85Z"/></g><path class="cls-2" d="M383.43,78a25.67,25.67,0,0,1,3.42-5.86,37.79,37.79,0,0,1,4.64-5,41.53,41.53,0,0,1,5.45-4.07,28.51,28.51,0,0,1,6.14-2.91,35.81,35.81,0,0,0-5.93,3.23,45.31,45.31,0,0,0-5.32,4.13,41.26,41.26,0,0,0-4.68,4.85A31.65,31.65,0,0,0,383.43,78Z"/><path d="M412.11,54.15c2.59,13.67-9,18.84-.56,20.28,15.65,2.66,23.27,7.44,27.23,14,7.5,12.37,15.73,37.48,6.93,57.43-6.11,13.84-8.33,46.78,12,57,0,0-10.67-11.51,4-40.22s4.14-72.42-16.94-93.7C418.66,42.6,412.11,54.15,412.11,54.15Z"/><path d="M412.11,54.15c0,.76,1.07,17-14.06,21C382.69,79.24,377.22,88,374.92,95.25c-4.33,13.8-6.35,40.15,6.95,57.43,9.23,12,19.23,43.45,1.95,58.18,0,0,7.62-13.72-13.47-38.11s-23.23-70.64-5.84-95C395.45,34.31,412.11,54.15,412.11,54.15Z"/></g></svg>