<svg xmlns="http://www.w3.org/2000/svg" xmlns:xlink="http://www.w3.org/1999/xlink" viewBox="0 0 158 173.07"><defs><style>.cls-1{fill:none;}.cls-2{fill:#562d2b;}.cls-3{clip-path:url(#clip-path);}.cls-4{fill:#e78367;}.cls-5{clip-path:url(#clip-path-2);}.cls-6{fill:#b85d40;}.cls-7{fill:#681c23;}.cls-8{fill:#dddad9;}.cls-9{fill:#f7422f;}</style><clipPath id="clip-path"><polygon class="cls-1" points="112.73 85.18 112.73 85.18 127.64 85.18 127.64 114.16 112.73 114.16 112.73 85.18"/></clipPath><clipPath id="clip-path-2"><polygon class="cls-1" points="45.18 85.18 45.18 85.18 30.26 85.18 30.26 114.16 45.18 114.16 45.18 85.18"/></clipPath></defs><g id="Calque_3" data-name="Calque 3"><path class="cls-2" d="M42.75,102.26c3.94.58-.17,27.14,1.73,27.11s55.26-8.71,68.58,0l3.27-2.52.36-24.13S41,102,42.75,102.26Z"/><g id="_Répétition_miroir_" data-name="&lt;Répétition miroir&gt;"><g class="cls-3"><path class="cls-4" d="M113.72,91s5-6.13,8-5.82c4.42.47,6.41,8.63,5.83,12.3-.71,4.61-4.82,14.5-10,16.59-1,.41-4.85-.82-4.85-.82Z"/></g></g><g id="_Répétition_miroir_2" data-name="&lt;Répétition miroir&gt;"><g class="cls-5"><path class="cls-4" d="M44.18,91s-5-6.13-8-5.82c-4.42.47-6.4,8.63-5.83,12.3.72,4.61,4.82,14.5,10,16.59,1,.41,4.85-.82,4.85-.82Z"/></g></g><path class="cls-6" d="M115.16,96s4.47-7,6.64-6.64c1.73.27,2.23,6.33,2.23,6.33s-.66-4.25-3.85-1.51c-2.27,2-5,9.07-5,9.07Z"/><path class="cls-4" d="M114.88,67.67c-3.08-25.75-32-22.6-32-22.6s-33.69-4.39-37.33,22.6c-2.86,21.22-5.05,37-.13,47.9,4.63,10.32,15.21,30.62,25.07,35a29.85,29.85,0,0,0,9.71,1.85,30.23,30.23,0,0,0,8.84-1.85c9.82-4.33,20.46-24.72,24.74-35C118.43,104.51,116.49,89,114.88,67.67Z"/><path class="cls-6" d="M42.79,95.4s-4.46-7-6.63-6.64c-1.74.28-2.24,6.33-2.24,6.33s.67-4.24,3.85-1.5c2.28,2,5,9.07,5,9.07Z"/><path class="cls-7" d="M46.07,63.54c.26-1.43,19.76,3.84,19.76,3.84l2.78-7.85v7.85s6,.27,5.63,0,0-12.93,0-12.93l1.33,2.66s.66,10.31,1.16,10.39,35.31-4,35.31-4,4.44,37.87,0,70.89c-.07.46,1.62-1.93,4.29-6,5-7.67,5.27-66.68,5.27-67.14s-1.81-14.14-9.28-21.8c-6.61-6.77-12.46-5.31-12.46-5.31s-4-8.13-12.29-10.31c-6-1.58-14.95,1.4-15.62,1.72A41.89,41.89,0,0,0,42.68,47.89c-7.15,14.22-6,56.4-5.82,58.28s.8,17.83,1.5,18.94c5.28,8.47,9.19,9.49,9,9.3C45.12,119.42,44.12,74.12,46.07,63.54Z"/><path class="cls-8" d="M33.92,55.57c1.62,1.43,90.59,12,93.72,9.59s4-19.16,0-23.58-78.2-14-85.09-8S28.93,51.17,33.92,55.57Z"/><path class="cls-9" d="M50.44,35.19S52,20,69.58,17.8,102.53-5,127.64,6.42s30.3,27.17,27.9,32.37S154.75,24,140.36,30,124,44.8,124,44.8Z"/><ellipse class="cls-9" cx="156.07" cy="44.8" rx="11.99" ry="10.59"/></g></svg>