<svg xmlns="http://www.w3.org/2000/svg" xmlns:xlink="http://www.w3.org/1999/xlink" viewBox="0 0 788 1005"><defs><style>.cls-1{fill:none;}.cls-2{fill:#904c3d;}.cls-3{fill:#b26959;}.cls-4{clip-path:url(#clip-path);}.cls-5{clip-path:url(#clip-path-2);}.cls-6{fill:#357abd;}</style><clipPath id="clip-path"><polygon class="cls-1" points="430.19 105.52 430.19 105.52 445.68 105.52 445.68 135.75 430.19 135.75 430.19 105.52"/></clipPath><clipPath id="clip-path-2"><polygon class="cls-1" points="357.91 105.52 357.91 105.52 342.42 105.52 342.42 135.75 357.91 135.75 357.91 105.52"/></clipPath></defs><g id="Calque_3" data-name="Calque 3"><path d="M375.88,139.37l-28,9.71S324.24,113,326.24,108s7-10.2,13.22-13,17.73-23.16,21.45-22.47,35.83-4.06,35.83-4.06,26,.6,29.51,6.52,24.89,30.52,24.89,30.52l5.33,23.3-10.79,16.7s-18.72,9.51-24.06,10S375.88,139.37,375.88,139.37Z"/><path class="cls-2" d="M373.75,160.15h39.9v11h0c-9,11.39-14.87,16.44-21.66,16.38-5.12,0-13.13-10.1-18.32-14.1l.08-2Z"/><path d="M426.48,130.38c-7.77,12.32-7.54,11.81-8.75,14.42.07.52.82.28,3.24.27a4.06,4.06,0,0,1,3.46,2.33,15.46,15.46,0,0,0,1.15,4.48c.83,1.54,3.36-.23,3.7-.33a2.57,2.57,0,0,1,2.86.51c1,1.17,1.35,3.29,2.3,3.47s3.28-2.38,3.28-2.38a3.81,3.81,0,0,1,2.81-1c1.54.21,4.09,2.51,5.52,2.22s2.36-3.24,2.52-3.86a6.68,6.68,0,0,1,1.88-2.71c.81-.61,1.91-.87,3.82-.49s3.51,1.1,5-.1.57-4.24.49-4.71a5.09,5.09,0,0,1,1.25-4.16c1.48-1.42,3.44-1.48,4.63-2.07s1.68-1.17,1.83-1.91-.55-2.15-1-2.93a3.62,3.62,0,0,1-.66-3.08c.33-1.59,1.45-2.36,2.31-3.18s1.37-.94,1.36-1.85-1-1.46-2-1.9a2.71,2.71,0,0,1-1.74-1.86c-.28-.82.16-1.6.67-2.58s.92-1.93.08-3-2.27-1-2.9-1.19a3.87,3.87,0,0,1-2.52-1.34,5.29,5.29,0,0,1-.88-3.65,3,3,0,0,0-.47-2.79c-.82-.86-2-.32-2.51-.24a2.87,2.87,0,0,1-2.32-.66,3.57,3.57,0,0,1-.77-2.11,3.14,3.14,0,0,0-.9-1.88,2.68,2.68,0,0,0-2.75-.67c-1.32.25-2.92.65-3.94.3s-4.93-3.82-3.43-2.46c12.53,11.31-1.74,5.84-2.11,8s3.09,2.37,2.87,6.65c0,.72.33,1.07.21,1.63a4,4,0,0,0,.06,1.49,12.8,12.8,0,0,0,2.31,3.35c.66.36-.17,1.83-.33,2.56a2.48,2.48,0,0,0,.18,1.71c.25.62.72,1.25.42,1.56s-1.19-.12-2.1-.35a2.73,2.73,0,0,0-2.21,0c-.77.39-1.38,2-2.39,2.4s-1.37-.14-1.9-.35-.93-.59-1.48-.19-.62.19-1.14,1.18-.5,1-.91,1.19a2.26,2.26,0,0,1-1.63-.16,4.1,4.1,0,0,0-1.1-.25C431.34,127.7,427.12,128.85,426.48,130.38Z"/><path d="M422.94,135.76c-12.35,7.72-11.93,7.36-14.14,9.2-.17.5.61.6,2.79,1.65a4.05,4.05,0,0,1,2.11,3.59,15.63,15.63,0,0,0-.91,4.53c.08,1.76,3.13,1.26,3.48,1.32a2.58,2.58,0,0,1,2.36,1.7c.39,1.49-.22,3.55.55,4.12s4-.72,4-.72a3.85,3.85,0,0,1,2.94.36c1.3.87,2.6,4,4,4.4s3.53-1.89,3.94-2.38a6.69,6.69,0,0,1,2.87-1.62c1-.2,2.1,0,3.66,1.22s2.69,2.5,4.56,2.07,2.36-3.57,2.49-4a5.14,5.14,0,0,1,2.93-3.21c1.95-.64,3.75.16,5.07.15a2.83,2.83,0,0,0,2.48-.93c.46-.59.43-2.17.36-3.08a3.62,3.62,0,0,1,.74-3.06c1-1.29,2.34-1.49,3.46-1.86s1.64-.25,2-1.07-.24-1.75-1-2.59a2.76,2.76,0,0,1-.77-2.44c.11-.86.84-1.37,1.74-2s1.66-1.34,1.36-2.65-1.61-1.89-2.1-2.34a3.82,3.82,0,0,1-1.69-2.29,5.27,5.27,0,0,1,.8-3.67,3.07,3.07,0,0,0,.78-2.72c-.37-1.13-1.65-1.15-2.16-1.31a2.89,2.89,0,0,1-1.81-1.59,3.62,3.62,0,0,1,.23-2.24,3.1,3.1,0,0,0,0-2.09,2.66,2.66,0,0,0-2.18-1.79c-1.3-.35-2.91-.68-3.68-1.44s-2.78-5.58-2-3.7c6.37,15.62-4.11,4.5-5.36,6.27s1.75,3.47-.31,7.23c-.34.64-.16,1.11-.51,1.57a3.79,3.79,0,0,0-.6,1.36,12.72,12.72,0,0,0,.63,4c.43.61-.95,1.57-1.41,2.17a2.39,2.39,0,0,0-.58,1.61c0,.66.11,1.44-.3,1.59s-1-.62-1.74-1.23a2.77,2.77,0,0,0-2-.94c-.86,0-2.11,1.21-3.19,1.12s-1.17-.71-1.57-1.13-.57-.94-1.24-.82a2.12,2.12,0,0,0-1.54.57c-.89.67-.87.66-1.34.68s-1-.45-1.4-.85a4.38,4.38,0,0,0-.87-.71C428.48,135.46,424.17,134.66,422.94,135.76Z"/><path d="M430.78,131c-12.35,7.72-11.93,7.36-14.14,9.2-.17.5.61.6,2.79,1.65a4.05,4.05,0,0,1,2.11,3.59,15.63,15.63,0,0,0-.91,4.53c.08,1.76,3.13,1.26,3.48,1.32a2.58,2.58,0,0,1,2.36,1.7c.39,1.49-.22,3.55.55,4.12s4-.72,4-.72a3.85,3.85,0,0,1,2.94.36c1.3.87,2.6,4,4,4.4s3.53-1.89,3.94-2.38a6.69,6.69,0,0,1,2.87-1.62c1-.2,2.1,0,3.66,1.22s2.69,2.5,4.56,2.07,2.36-3.57,2.49-4a5.14,5.14,0,0,1,2.93-3.21c1.95-.64,3.75.16,5.07.15a2.85,2.85,0,0,0,2.48-.92c.46-.6.43-2.18.36-3.09a3.62,3.62,0,0,1,.74-3.06c1-1.29,2.34-1.49,3.46-1.86s1.64-.25,2-1.07-.24-1.75-1-2.59a2.75,2.75,0,0,1-.77-2.43c.11-.86.84-1.38,1.74-2s1.66-1.34,1.36-2.65-1.61-1.89-2.1-2.34a3.82,3.82,0,0,1-1.69-2.29,5.27,5.27,0,0,1,.8-3.67,3,3,0,0,0,.78-2.72c-.37-1.13-1.65-1.15-2.15-1.31a2.85,2.85,0,0,1-1.81-1.59,3.55,3.55,0,0,1,.22-2.24,3.1,3.1,0,0,0,0-2.09,2.66,2.66,0,0,0-2.18-1.79c-1.3-.35-2.91-.68-3.68-1.44s-2.78-5.58-2-3.7c6.37,15.62-4.11,4.5-5.36,6.27s1.75,3.47-.31,7.24c-.34.63-.16,1.1-.51,1.56a3.79,3.79,0,0,0-.6,1.36,12.72,12.72,0,0,0,.63,4c.43.61-.95,1.57-1.41,2.17a2.44,2.44,0,0,0-.58,1.61c0,.66.11,1.44-.3,1.59s-1-.62-1.74-1.23a2.77,2.77,0,0,0-2-.94c-.86,0-2.11,1.21-3.19,1.12s-1.17-.71-1.57-1.13-.57-.94-1.24-.82a2.12,2.12,0,0,0-1.54.57c-.89.67-.87.66-1.34.68s-1-.45-1.4-.85a4.77,4.77,0,0,0-.87-.71C436.32,130.69,432,129.89,430.78,131Z"/><path d="M354.39,132.46c3.14,14.22,3.1,13.67,3.35,16.54-.24.46-.86,0-3.14-.84a4.06,4.06,0,0,0-4,1A15.72,15.72,0,0,1,348,153c-1.31,1.17-3.09-1.36-3.38-1.56a2.58,2.58,0,0,0-2.86-.5c-1.34.77-2.39,2.65-3.34,2.5s-2.28-3.36-2.28-3.36a3.86,3.86,0,0,0-2.32-1.84c-1.53-.32-4.71,1-6,.22s-1.13-3.84-1.06-4.48a6.75,6.75,0,0,0-.86-3.19c-.55-.85-1.5-1.47-3.43-1.75s-3.67-.16-4.68-1.8.89-4.19,1.12-4.6a5,5,0,0,0,.24-4.33c-.91-1.84-2.74-2.57-3.65-3.51a2.87,2.87,0,0,1-1.09-2.43c.11-.74,1.25-1.83,1.95-2.41a3.62,3.62,0,0,0,1.66-2.67c.23-1.62-.56-2.72-1.09-3.78s-1-1.34-.66-2.2,1.42-1,2.55-1.1a2.78,2.78,0,0,0,2.27-1.16c.53-.68.39-1.56.24-2.67s-.22-2.11.93-2.82,2.47-.18,3.14-.14a3.91,3.91,0,0,0,2.82-.4,5.36,5.36,0,0,0,2.06-3.15,3,3,0,0,1,1.39-2.46c1.06-.53,2,.37,2.44.62a2.87,2.87,0,0,0,2.41.17A3.62,3.62,0,0,0,338,96.47,3.11,3.11,0,0,1,339.46,95a2.68,2.68,0,0,1,2.81.3c1.16.68,2.53,1.6,3.61,1.62s5.93-1.93,4.05-1.16c-15.61,6.41-.33,6.09-.71,8.22s-3.71,1.19-5,5.29c-.21.69-.67.89-.75,1.47a4.14,4.14,0,0,1-.55,1.38c-.12.19-2.57,2.25-3.32,2.37s-.45,1.77-.55,2.52a2.46,2.46,0,0,1-.75,1.54c-.44.5-1.11.94-.92,1.33s1.15.29,2.09.38a2.7,2.7,0,0,1,2.07.77c.6.63.62,2.35,1.44,3.06s1.33.33,1.91.32,1.07-.24,1.45.32.52.39.67,1.5.14,1.08.46,1.43a2.3,2.3,0,0,0,1.59.4,4.08,4.08,0,0,1,1.11.13C350.72,128.3,354.31,130.81,354.39,132.46Z"/><path d="M355.9,138.73c9,11.45,8.73,11,10.2,13.44,0,.52-.78.35-3.19.6a4,4,0,0,0-3.2,2.67A15.68,15.68,0,0,1,359,160c-.67,1.62-3.37.12-3.72,0a2.58,2.58,0,0,0-2.79.8c-.88,1.27-1,3.42-1.92,3.7s-3.52-2-3.52-2a3.85,3.85,0,0,0-2.89-.66c-1.51.38-3.81,2.93-5.26,2.78s-2.69-3-2.9-3.57a6.67,6.67,0,0,0-2.16-2.5c-.86-.53-2-.67-3.85-.09s-3.38,1.44-5,.41-1-4.16-1-4.63a5.09,5.09,0,0,0-1.67-4c-1.62-1.26-3.58-1.12-4.81-1.58s-1.8-1-2-1.71.33-2.19.71-3a3.62,3.62,0,0,0,.33-3.13c-.49-1.55-1.68-2.2-2.62-2.93s-1.46-.79-1.55-1.69.82-1.56,1.82-2.1a2.77,2.77,0,0,0,1.54-2c.19-.85-.33-1.58-.94-2.51s-1.11-1.81-.39-2.95,2.15-1.23,2.77-1.48a3.9,3.9,0,0,0,2.36-1.59,5.33,5.33,0,0,0,.5-3.73,3,3,0,0,1,.18-2.82c.73-.94,1.94-.52,2.47-.5a2.88,2.88,0,0,0,2.24-.89,3.58,3.58,0,0,0,.55-2.18,3.11,3.11,0,0,1,.7-2,2.7,2.7,0,0,1,2.66-.95c1.35.12,3,.35,3.95-.1s4.51-4.31,3.16-2.8c-11.29,12.54,2.34,5.62,2.92,7.71s-2.82,2.68-2.16,6.92c.11.71-.22,1.09-.05,1.64a4.09,4.09,0,0,1,.11,1.48c0,.23-1.34,3.15-2,3.58s.36,1.79.59,2.51a2.4,2.4,0,0,1,0,1.71c-.18.65-.59,1.33-.25,1.6s1.16-.24,2.05-.56a2.7,2.7,0,0,1,2.2-.21c.81.31,1.58,1.85,2.62,2.13s1.35-.27,1.86-.53.86-.69,1.45-.35.64.13,1.25,1.06.6.91,1,1.09a2.3,2.3,0,0,0,1.6-.33,4.49,4.49,0,0,1,1.06-.37C350.79,136.57,355.11,137.28,355.9,138.73Z"/><path d="M350.14,131.58c9,11.45,8.73,11,10.19,13.45,0,.52-.78.35-3.18.6a4,4,0,0,0-3.2,2.67,15.59,15.59,0,0,1-.68,4.57c-.67,1.62-3.37.12-3.72.06a2.6,2.6,0,0,0-2.8.8c-.87,1.27-1,3.42-1.92,3.7s-3.51-2-3.51-2a3.82,3.82,0,0,0-2.89-.65c-1.52.37-3.81,2.92-5.26,2.78s-2.69-3-2.91-3.58a6.6,6.6,0,0,0-2.15-2.49c-.87-.53-2-.68-3.85-.1s-3.38,1.45-5,.42-1-4.16-1-4.63a5.13,5.13,0,0,0-1.67-4c-1.62-1.27-3.58-1.12-4.82-1.58s-1.79-1-2-1.71.33-2.2.7-3a3.59,3.59,0,0,0,.34-3.12c-.49-1.56-1.69-2.2-2.63-2.93s-1.45-.79-1.54-1.69.82-1.56,1.81-2.1a2.77,2.77,0,0,0,1.55-2c.18-.85-.33-1.58-.95-2.51s-1.11-1.81-.38-3,2.15-1.23,2.76-1.49a3.86,3.86,0,0,0,2.37-1.58,5.32,5.32,0,0,0,.49-3.73,3,3,0,0,1,.19-2.82c.72-.94,1.94-.53,2.47-.5a2.91,2.91,0,0,0,2.24-.89,3.6,3.6,0,0,0,.55-2.18,3.09,3.09,0,0,1,.7-2,2.67,2.67,0,0,1,2.66-.95c1.34.12,3,.35,3.95-.11s4.51-4.3,3.15-2.8c-11.28,12.55,2.34,5.63,2.93,7.72s-2.83,2.68-2.16,6.91c.11.72-.23,1.1-.05,1.65a3.83,3.83,0,0,1,.1,1.48c0,.23-1.33,3.15-1.95,3.57s.36,1.8.59,2.52a2.45,2.45,0,0,1,0,1.71c-.18.64-.59,1.32-.26,1.6s1.17-.24,2.06-.57a2.73,2.73,0,0,1,2.2-.2c.8.31,1.58,1.85,2.62,2.13s1.34-.28,1.86-.53.86-.69,1.44-.36.64.14,1.26,1.07.6.91,1,1.09a2.32,2.32,0,0,0,1.61-.33,4.49,4.49,0,0,1,1.06-.37C345,129.42,349.35,130.13,350.14,131.58Z"/><circle class="cls-3" cx="394.45" cy="91.01" r="38.29"/><path d="M394.25,135.8a41.54,41.54,0,0,1,0-83.08"/><path d="M395,52.73a41.54,41.54,0,0,1,0,83.08"/><path class="cls-3" d="M430,87.26c-.92-9.29-36-14.72-36-14.72v0S359,78,358.07,87.26c-2.18,22.22-1,31,.47,55.94.57,9.78,25.6,26.92,29.5,29.54a2.18,2.18,0,0,0,1.13.35l4.82.15h.13l4.81-.15a2.15,2.15,0,0,0,1.13-.35C404,170.12,429,153,429.55,143.2,431,118.25,432.21,109.48,430,87.26Z"/><g class="cls-4"><path class="cls-2" d="M431.22,111.6s5.23-6.39,8.3-6.07c4.59.49,6.66,9,6.06,12.83-.74,4.8-5,15.12-10.35,17.3-1.06.43-5-.85-5-.85Z"/></g><g class="cls-5"><path class="cls-2" d="M356.88,111.6s-5.23-6.39-8.3-6.07c-4.59.49-6.65,9-6.06,12.83.74,4.8,5,15.12,10.35,17.3,1.06.43,5-.85,5-.85Z"/></g><ellipse class="cls-6" cx="351.86" cy="135.24" rx="4" ry="4.5"/><ellipse class="cls-6" cx="435.86" cy="136.24" rx="4" ry="4.5"/></g></svg>