<svg xmlns="http://www.w3.org/2000/svg" xmlns:xlink="http://www.w3.org/1999/xlink" viewBox="0 0 188 173.72"><defs><style>.cls-1{fill:none;}.cls-2{fill:#904c3d;}.cls-3{fill:#b26959;}.cls-4{clip-path:url(#clip-path);}.cls-5{clip-path:url(#clip-path-2);}</style><clipPath id="clip-path"><polygon class="cls-1" points="135.28 106.32 135.28 106.32 150.77 106.32 150.77 136.54 135.28 136.54 135.28 106.32"/></clipPath><clipPath id="clip-path-2"><polygon class="cls-1" points="63 106.32 63 106.32 47.51 106.32 47.51 136.54 63 136.54 63 106.32"/></clipPath></defs><g id="Calque_3" data-name="Calque 3"><path class="cls-2" d="M78.35,162.49l41.58-.29.56,12.17c-9.2,11.39-17.21,16.83-24.18,16.77C91,191.1,82.81,181,77.49,177l.07-2Z"/><path d="M130.75,128.29s-1.23-3.67,1.47-6.17,3.65-3.79,3.5-4.7a3.35,3.35,0,0,0-2.11-2.74c-1.72-.9-2.32-2-2.32-2.92a5.13,5.13,0,0,1,1-3.05,8.81,8.81,0,0,0,1.09-3s.84-3.13-3.31-4.75a8.76,8.76,0,0,1-5.3-8.19c.24-1.92-9.37-8.31-7.15-.9,4.52,13.6-11.45,22-11.45,22-1.32.42-3.31-.24-3.94.06s-.57.66-1,1.42-1,1.68-1.65,1.86-.66.18-2.26-.39a3.22,3.22,0,0,0-2.5-.15c-1,.12-1,1-1.44,1.75s-.24,1.74-1.78,2.34-3.88-.57-5.14-.21-1.72,1.06-2.5,2.26-1.33,2.59-2,2.56-.78-1.24-1.14-2.19a3.72,3.72,0,0,0-1.57-2.09c-.93-.66-3.37-1.44-3-2.52s-.69-5.84-.87-6.14a6.1,6.1,0,0,0-1.47-1.72c-.73-.51-.67-1.28-1.45-2-4.67-4.56-1.16-8.48-3.66-10.41s-12.94,18.85-10.61-6.74c.28-3.07-.51,4.84-1.29,6.29s-3,2.65-4.73,3.73-2.34,2.17-2.37,3.58a4.75,4.75,0,0,0,.93,3A5.5,5.5,0,0,1,52,111.37a4.36,4.36,0,0,1-1.92,3.13c-.66.45-2.53,1.06-2.56,2.86s1.29,2.74,2.35,3.61a8.16,8.16,0,0,1,2.8,5c.18,2.14-.94,3.22-1.45,4.09s-2.17,2.29-2,4.34,1.56,2.68,3.16,3.25,2.88,1,3.43,2.2a4.21,4.21,0,0,1,0,3.88c-.73,1.56-1.24,3.19-.3,4.21s1.62.63,3.43.66,3.85-.27,5.87,1.18a5.51,5.51,0,0,1,2.43,4.12c.3,1.36,1,3.67,1.9,4.34s1.09.92,1.75.59l0-4.71.08-2,.79-12.55,41.58-.29.56,12.17.21,6.21c1.6.79,2-5.53,3.53-7.37a5.82,5.82,0,0,1,4.12-1.84s5.27.45,6.14-.72-.93-3.91-1-6.26,2.19-3.28,2.68-3.52,5.14-.87,4.48-3.46S130.75,128.29,130.75,128.29Z"/><circle class="cls-3" cx="99.53" cy="91.81" r="38.29"/><path d="M99.34,136.6a41.54,41.54,0,0,1,0-83.08"/><path d="M100.08,53.53a41.54,41.54,0,0,1,0,83.08"/><path class="cls-3" d="M135.12,88.06c-.91-9.29-36-14.72-36-14.72v0s-35.07,5.43-36,14.72c-2.17,22.22-1,31,.48,55.94.61,10.61,30,29.88,30,29.88l5.5.16,5.49-.16s29.4-19.27,30-29.88C136.08,119.05,137.3,110.28,135.12,88.06Z"/><g class="cls-4"><path class="cls-2" d="M136.31,112.4s5.23-6.4,8.3-6.07c4.59.49,6.65,9,6.06,12.83-.75,4.8-5,15.12-10.35,17.3-1.06.42-5-.85-5-.85Z"/></g><g class="cls-5"><path class="cls-2" d="M62,112.4s-5.24-6.4-8.3-6.07c-4.59.49-6.66,9-6.06,12.83.74,4.8,5,15.12,10.35,17.3,1.06.42,5-.85,5-.85Z"/></g><ellipse cx="115.16" cy="44.25" rx="21.48" ry="18.63"/><path d="M86.09,25.62S81.63,48.3,101.54,55.18s-5-10.93-5-10.93C95.6,39.2,89.05,34.8,86.09,25.62Z"/><path d="M109.26,54c-.12,1.49,16.38,13.68-18.45,30s-59.72,41.82-24.1,56.73c0,0-58.14-6.75-23.31-36.54C66,84.85,62.86,54.17,93.2,50.35S109.26,54,109.26,54Z"/><path d="M126.82,53.5s22.49,11,24.11,41.25-23.06,49.7-40.85,47.69c0,0,32.41-16.85,24-45-7.24-24.12-28.27-19-29.37-34.56S126.82,53.5,126.82,53.5Z"/></g></svg>