<svg xmlns="http://www.w3.org/2000/svg" xmlns:xlink="http://www.w3.org/1999/xlink" viewBox="0 0 158 173.07"><defs><style>.cls-1{fill:none;}.cls-2{fill:#562d2b;}.cls-3{clip-path:url(#clip-path);}.cls-4{fill:#e78367;}.cls-5{clip-path:url(#clip-path-2);}.cls-6{fill:#b85d40;}.cls-7{fill:#681c23;}</style><clipPath id="clip-path"><polygon class="cls-1" points="112.73 85.18 112.73 85.18 127.64 85.18 127.64 114.16 112.73 114.16 112.73 85.18"/></clipPath><clipPath id="clip-path-2"><polygon class="cls-1" points="45.18 85.18 45.18 85.18 30.26 85.18 30.26 114.16 45.18 114.16 45.18 85.18"/></clipPath></defs><g id="Calque_3" data-name="Calque 3"><path class="cls-2" d="M60.41,83.88c3.94.58-.82,5.07,1.08,5s33.7,63.5,49.06,54l5.78-16.09.36-24.13S58.69,83.62,60.41,83.88Z"/><g id="_Repetition_miroir_" data-name="&lt;Repetition miroir&gt;"><g class="cls-3"><path class="cls-4" d="M113.72,91s5-6.13,8-5.82c4.42.47,6.41,8.63,5.83,12.3-.71,4.61-4.82,14.5-10,16.59-1,.41-4.85-.82-4.85-.82Z"/></g></g><g id="_Repetition_miroir_2" data-name="&lt;Repetition miroir&gt;"><g class="cls-5"><path class="cls-4" d="M44.18,91s-5-6.13-8-5.82c-4.42.47-6.4,8.63-5.83,12.3.72,4.61,4.82,14.5,10,16.59,1,.41,4.85-.82,4.85-.82Z"/></g></g><path class="cls-6" d="M115.16,96s4.47-7,6.64-6.64c1.73.27,2.23,6.33,2.23,6.33s-.66-4.25-3.85-1.51c-2.27,2-5,9.07-5,9.07Z"/><path class="cls-4" d="M121.45,66.54c-4.33-39.17-41.16-34.28-41.16-34.28s-30.42-1.89-34.7,35.41c-2.43,21.27-5.05,37-.13,47.9,4.63,10.32,15.21,30.62,25.07,35a29.85,29.85,0,0,0,9.71,1.85,30.23,30.23,0,0,0,8.84-1.85c9.82-4.33,20.46-24.72,24.74-35A105.51,105.51,0,0,0,121.45,66.54Z"/><path class="cls-6" d="M42.79,95.4s-4.46-7-6.63-6.64c-1.74.28-2.24,6.33-2.24,6.33s.67-4.24,3.85-1.5c2.28,2,5,9.07,5,9.07Z"/><path class="cls-7" d="M51,55.65c.26-1.43,19.75,3.84,19.75,3.84l2.78-7.85v7.85s6,.27,5.63,0,0-12.93,0-12.93l1.33,2.66s.66,10.31,1.16,10.39,35.31-4,35.31-4,4.44,37.87,0,70.89c-.06.46,1.62-1.93,4.3-6,5-7.67,5.26-66.68,5.26-67.14s-1.81-14.14-9.28-21.8c-6.61-6.77-12.46-5.31-12.46-5.31s-4-8.13-12.29-10.31c-6-1.58-15,1.4-15.61,1.71A41.94,41.94,0,0,0,47.55,40C40.41,54.22,50.78,53.77,51,55.65s-.7-1.11,0,0c5.28,8.46.2.19,0,0C48.71,40.66,49,66.23,51,55.65Z"/><path class="cls-7" d="M43.23,88.75s-7.37-18.29-10.93-31c-4.43-15.83-2.38-101.44,91.73-21C175,80.31,146,122.58,115.16,141.52c-15.25,9.38,4.44-25.74,1.53-52.77,0,0,.22-19.23-6.14-30.49C106.32,50.76,86.76,49,77.72,48.1,47.36,45.07,43.23,88.75,43.23,88.75Z"/></g></svg>