<svg xmlns="http://www.w3.org/2000/svg" xmlns:xlink="http://www.w3.org/1999/xlink" viewBox="0 0 158 173.07"><defs><style>.cls-1{fill:none;}.cls-2{clip-path:url(#clip-path);}.cls-3{fill:#e78367;}.cls-4{clip-path:url(#clip-path-2);}.cls-5{fill:#eaefeb;}.cls-6{fill:#c9634b;}.cls-7{fill:#681c23;}</style><clipPath id="clip-path"><polygon class="cls-1" points="112.65 84.98 112.65 84.98 127.56 84.98 127.56 114.08 112.65 114.08 112.65 84.98"/></clipPath><clipPath id="clip-path-2"><polygon class="cls-1" points="45.1 84.98 45.1 84.98 30.18 84.98 30.18 114.08 45.1 114.08 45.1 84.98"/></clipPath></defs><g id="Calque_3" data-name="Calque 3"><g id="_Repetition_miroir_" data-name="&lt;Repetition miroir&gt;"><g class="cls-2"><path class="cls-3" d="M113.64,90.83s5-6.15,8-5.83c4.42.47,6.41,8.66,5.84,12.34-.72,4.62-4.83,14.56-10,16.65-1,.42-4.85-.82-4.85-.82Z"/></g></g><g id="_Repetition_miroir_2" data-name="&lt;Repetition miroir&gt;"><g class="cls-4"><path class="cls-3" d="M44.1,90.83s-5-6.15-8-5.83c-4.42.47-6.4,8.66-5.83,12.34C31,102,35.1,111.9,40.25,114c1,.42,4.85-.82,4.85-.82Z"/></g></g><ellipse class="cls-5" cx="38.28" cy="114.53" rx="3.85" ry="4.33"/><ellipse class="cls-5" cx="120.1" cy="115.49" rx="3.85" ry="4.33"/><path class="cls-6" d="M42.71,95.25s-4.46-7-6.63-6.67c-1.74.28-2.24,6.36-2.24,6.36s.67-4.27,3.85-1.52c2.28,2,5,9.11,5,9.11Z"/><path class="cls-6" d="M115.09,95.86s4.46-7,6.63-6.67c1.73.28,2.23,6.36,2.23,6.36s-.66-4.27-3.85-1.52c-2.27,2-5,9.11-5,9.11Z"/><path class="cls-3" d="M114.8,67.4c-3.08-25.84-34.33-25.84-34.33-25.84s-31.32-1.25-35,25.84c-2.86,21.31-5,37.12-.13,48.09,4.64,10.36,15.21,30.74,25.07,35.12a29.6,29.6,0,0,0,9.71,1.86A29.92,29.92,0,0,0,89,150.61c9.83-4.34,20.46-24.81,24.74-35.12C118.35,104.39,116.42,88.84,114.8,67.4Z"/><path class="cls-7" d="M65.13,53.81c13-1.18,30.56,1.66,45.55,17.82,0,0,1.51-4-2.13-8.92,0,0,8.76,7.56,6.74,25.08,0,0,8.94-.59,8.94-7.79s10.66-4.67,10.66-15.18,13.84-7,6.63-16.75S133.16,38,132.59,30.36s-8.94-6.87-16.72-11.13-1.67-10.87-15-8.73S87.33,16.92,79,13.81,62,8,56.2,12.64,42.08,20.23,36,20.43s-9.52,7.39-8.94,13.62S13.54,40.67,17,46.9s11.24,7.6,12.4,9.74-8.94,2.33-6.63,7S37.47,70.27,36.6,74s-9.51,8.17-5.76,11.48S49,91.88,42.09,94.8s8.64.47,4.31-5.22-11.53-5.49-6.63-9.38,18.16-7.4,8.65-10.71,1.2-1.56,2.26-9.94C51,57.27,61,54.19,65.13,53.81Z"/></g></svg>