<svg xmlns="http://www.w3.org/2000/svg" xmlns:xlink="http://www.w3.org/1999/xlink" viewBox="0 0 788 1005.07"><defs><style>.cls-1,.cls-8{fill:none;}.cls-2{fill:#c9634b;}.cls-3{fill:#7c181d;}.cls-4{fill:#681c23;}.cls-5{clip-path:url(#clip-path);}.cls-6{fill:#ce6a52;}.cls-7{clip-path:url(#clip-path-2);}.cls-8{stroke:#17ff57;stroke-miterlimit:10;stroke-width:4px;}.cls-9{fill:#e78367;}</style><clipPath id="clip-path"><polygon class="cls-1" points="409.65 141.71 409.65 141.71 424.56 141.71 424.56 170.8 409.65 170.8 409.65 141.71"/></clipPath><clipPath id="clip-path-2"><polygon class="cls-1" points="342.1 141.71 342.1 141.71 327.18 141.71 327.18 170.8 342.1 170.8 342.1 141.71"/></clipPath></defs><g id="Calque_3" data-name="Calque 3"><path class="cls-2" d="M345.08,147.15s-2.73-4.54-4.9-4.19c-1.74.28-2.24,6.36-2.24,6.36s.67-4.26,3.85-1.51a12.4,12.4,0,0,1,3.18,4.1Z"/><path class="cls-3" d="M383.49,91.65s11.83,9.92-14.38,20.69S345.36,143,345.36,143s-12.95-18.32-5.3-27.71S363.79,82.47,383.49,91.65Z"/><path class="cls-4" d="M412.09,144.87s5-26,4.43-30.8c-1.21-9.91-22.88-21.14-41.42-7.58,0,0,23.8,1.72,30.75,8.31,4.17,4,4.81,10.06,5.15,14.89C411.26,133.48,411.32,141.65,412.09,144.87Z"/><path class="cls-3" d="M427.75,111.52c7.43,82.16,9.47,90.8-13,96.06a64.65,64.65,0,0,0-15,5.33c-8,5.29-4-23.37-4-23.37,10.76-16.49,15.59-28.73,19.31-33.29S427.75,111.52,427.75,111.52Z"/><path class="cls-3" d="M404.67,163.66c-.85-1.71,1.32-24.36.34-26-3-1.23-7,1.36-10.2.51-7.36-1.95-28.68,1.25-31.89,3.29-.84.53,13.1,16,12.31,16.57-7.33,5.55-17.11,29.25-16.7,40.1.84,22.52,9.18,46.09-9.25,57.67-21.38,13.42-30.18-5.25-36.89-12.28-6.1-6.39-29.54-27.78-9.43-68.76,4.4-8.95,9.34-17.58,11.52-27.32,6.87-30.68,24.49-74.65,55.87-64.75,11.89,3.75,10.49,6.53,11.89,3.75,6.11-12.09,66.29-4.21,39.7,61.54C419.14,154.93,406.13,160.41,404.67,163.66Z"/><path class="cls-3" d="M406.81,169.49c.07-.66.13-1.33.19-2,.19-2.3.31-4.63.33-7,0-.44,0-.9,0-1.35a94,94,0,0,0-5.84-32.91,28.37,28.37,0,0,0,2-10.6c0-.32,0-.65,0-1"/><path class="cls-4" d="M350.33,167.65c-1.92.85-20,5.5-18.9,26.46s20.22,57,26.07,53.23c6.16-3.93,6.89-18.66,3.39-45.54S350.33,167.65,350.33,167.65Z"/><g id="_Répétition_miroir_" data-name="&lt;Répétition miroir&gt;"><g class="cls-5"><path class="cls-6" d="M410.64,147.56s5-6.16,8-5.84c4.41.47,6.4,8.66,5.83,12.34-.72,4.63-4.83,14.56-10,16.66-1,.41-4.85-.82-4.85-.82Z"/></g></g><g id="_Répétition_miroir_2" data-name="&lt;Répétition miroir&gt;"><g class="cls-7"><path class="cls-6" d="M341.1,147.56s-5-6.16-8-5.84c-4.41.47-6.4,8.66-5.83,12.34.72,4.63,4.83,14.56,10,16.66,1,.41,4.85-.82,4.85-.82Z"/></g></g><ellipse class="cls-8" cx="330.53" cy="180.86" rx="11.54" ry="12.98"/><path class="cls-9" d="M410.52,124.13c-1.34-17.68-34.65-17.68-34.65-17.68s-31.49.13-34.64,17.68c-3.8,21.15-5.05,37.11-.14,48.09,4.64,10.36,15.22,30.73,25.07,35.11a29.91,29.91,0,0,0,9.71,1.87,30.31,30.31,0,0,0,8.85-1.87c9.82-4.34,20.46-24.81,24.73-35.11C414.06,161.11,412.13,145.56,410.52,124.13Z"/><ellipse class="cls-8" cx="420.04" cy="182.47" rx="11.54" ry="12.98"/></g></svg>