<svg xmlns="http://www.w3.org/2000/svg" xmlns:xlink="http://www.w3.org/1999/xlink" viewBox="0 0 788 1005.07"><defs><style>.cls-1{fill:none;}.cls-2{clip-path:url(#clip-path);}.cls-3{fill:#e78367;}.cls-4{clip-path:url(#clip-path-2);}.cls-5{fill:#c9634b;}.cls-6{fill:#681c23;}</style><clipPath id="clip-path"><polygon class="cls-1" points="407.9 141.38 407.9 141.38 422.81 141.38 422.81 170.48 407.9 170.48 407.9 141.38"/></clipPath><clipPath id="clip-path-2"><polygon class="cls-1" points="340.35 141.38 340.35 141.38 325.43 141.38 325.43 170.48 340.35 170.48 340.35 141.38"/></clipPath></defs><g id="Calque_3" data-name="Calque 3"><g id="_Répétition_miroir_" data-name="&lt;Répétition miroir&gt;"><g class="cls-2"><path class="cls-3" d="M408.89,147.23s5-6.15,8-5.83c4.42.47,6.41,8.66,5.83,12.34-.71,4.62-4.82,14.56-10,16.66-1,.41-4.85-.82-4.85-.82Z"/></g></g><g id="_Répétition_miroir_2" data-name="&lt;Répétition miroir&gt;"><g class="cls-4"><path class="cls-3" d="M339.35,147.23s-5-6.15-8-5.83c-4.42.47-6.4,8.66-5.83,12.34.72,4.62,4.82,14.56,10,16.66,1,.41,4.85-.82,4.85-.82Z"/></g></g><path class="cls-5" d="M338,151.65s-4.46-7-6.63-6.67c-1.74.28-2.24,6.36-2.24,6.36s.67-4.27,3.85-1.52c2.28,2,5,9.11,5,9.11Z"/><path class="cls-5" d="M410.33,152.26s4.47-7,6.64-6.67c1.73.28,2.23,6.36,2.23,6.36s-.66-4.27-3.85-1.52c-2.27,2-5,9.11-5,9.11Z"/><path class="cls-3" d="M411.05,123.81C408,98,376.72,98,376.72,98s-31.32-1.25-35,25.85c-2.86,21.3-5.05,37.11-.13,48.08,4.63,10.36,15.21,30.74,25.07,35.12a29.6,29.6,0,0,0,9.71,1.86,29.92,29.92,0,0,0,8.84-1.86c9.82-4.34,20.46-24.81,24.74-35.12C414.6,160.79,412.66,145.24,411.05,123.81Z"/><path class="cls-6" d="M356.78,103.14c-.08-1-6.78,3.53,8.3,6.93,3.19.72,40.47-4,44.62,15.25,1.84,8.49,2.44,19,3.91,19.64s19.37-7.72,11.55-29.78c-11.4-32.12-23.53-41.08-23.53-41.08s-15.71-11.39-32-11.43c-10.11,0-3-3.77-12.91,0-33.84,12.82-21.2,28.88-21.2,28.88-1.78.78-26.84,19.1-32.06,36-9.71,31.39,26.07,50.39,26.72,49.73,15.47-15.69-.92,14,4.9,13.28,9.55-1.23,12.49-7.41,13.23-9s.85-3.09-.62-11.43c-1.91-10.83-6.57-21.17-6.88-22.69C335.82,122.91,358.25,122,356.78,103.14Z"/></g></svg>