<svg xmlns="http://www.w3.org/2000/svg" xmlns:xlink="http://www.w3.org/1999/xlink" viewBox="0 0 188 173.73"><defs><style>.cls-1{fill:none;}.cls-2{fill:#904c3d;}.cls-3{fill:#b26959;}.cls-4{clip-path:url(#clip-path);}.cls-5{clip-path:url(#clip-path-2);}.cls-6{fill:#357abd;}</style><clipPath id="clip-path"><polygon class="cls-1" points="143.61 104.59 143.61 104.59 159.1 104.59 159.1 134.82 143.61 134.82 143.61 104.59"/></clipPath><clipPath id="clip-path-2"><polygon class="cls-1" points="71.33 104.59 71.33 104.59 55.84 104.59 55.84 134.82 71.33 134.82 71.33 104.59"/></clipPath></defs><g id="Calque_3" data-name="Calque 3"><rect class="cls-2" x="87.89" y="158.5" width="39.52" height="47.38"/><circle class="cls-3" cx="107.87" cy="90.08" r="38.29"/><path d="M107.67,134.87a41.54,41.54,0,0,1,0-83.08"/><path d="M108.41,51.8a41.54,41.54,0,0,1,0,83.08"/><path class="cls-3" d="M143.46,86.33c-.92-9.29-36-14.72-36-14.72v0S72.39,77,71.48,86.33c-2.17,22.22-1,31,.48,55.94.56,9.76,25.48,26.84,29.48,29.52a2.18,2.18,0,0,0,1.18.38l4.78.14h.14l4.78-.14a2.18,2.18,0,0,0,1.18-.38c4-2.68,28.91-19.76,29.47-29.52C144.41,117.33,145.63,108.55,143.46,86.33Z"/><g class="cls-4"><path class="cls-2" d="M144.64,110.67s5.23-6.39,8.3-6.06c4.59.49,6.65,9,6.06,12.82-.74,4.8-5,15.13-10.35,17.3-1.06.43-5-.85-5-.85Z"/></g><g class="cls-5"><path class="cls-2" d="M70.3,110.67s-5.23-6.39-8.3-6.06c-4.59.49-6.66,9-6.06,12.82.74,4.8,5,15.13,10.35,17.3,1.06.43,5-.85,5-.85Z"/></g><ellipse class="cls-6" cx="65.28" cy="134.32" rx="4" ry="4.5"/><ellipse class="cls-6" cx="149.28" cy="135.32" rx="4" ry="4.5"/><path d="M65.28,90.08S11.61,19.34,87.89,22.3s62.06,71,62.06,71-2.47-30.75-39.79-27.19S71.41,72.42,72.08,76.44s-2.5,13.64-2.5,13.64"/></g></svg>