<svg xmlns="http://www.w3.org/2000/svg" xmlns:xlink="http://www.w3.org/1999/xlink" viewBox="0 0 788 1005.07"><defs><style>.cls-1{fill:none;}.cls-2{fill:#562d2b;}.cls-3{clip-path:url(#clip-path);}.cls-4{fill:#e78367;}.cls-5{clip-path:url(#clip-path-2);}.cls-6{fill:#b85d40;}.cls-7{fill:#681c23;}</style><clipPath id="clip-path"><polygon class="cls-1" points="409.03 141.74 409.03 141.74 423.94 141.74 423.94 170.72 409.03 170.72 409.03 141.74"/></clipPath><clipPath id="clip-path-2"><polygon class="cls-1" points="341.48 141.74 341.48 141.74 326.57 141.74 326.57 170.72 341.48 170.72 341.48 141.74"/></clipPath></defs><g id="Calque_3" data-name="Calque 3"><path class="cls-2" d="M356.72,140.43c3.93.58-.82,5.07,1.07,5s33.7,63.5,49.06,54l5.79-16.09.36-24.14S355,140.18,356.72,140.43Z"/><g id="_Répétition_miroir_" data-name="&lt;Répétition miroir&gt;"><g class="cls-3"><path class="cls-4" d="M410,147.56s5-6.13,8-5.81c4.41.47,6.4,8.63,5.83,12.3-.72,4.6-4.83,14.5-10,16.58-1,.42-4.85-.81-4.85-.81Z"/></g></g><g id="_Répétition_miroir_2" data-name="&lt;Répétition miroir&gt;"><g class="cls-5"><path class="cls-4" d="M340.49,147.56s-5-6.13-8-5.81c-4.41.47-6.4,8.63-5.83,12.3.72,4.6,4.83,14.5,10,16.58,1,.42,4.85-.81,4.85-.81Z"/></g></g><path class="cls-6" d="M411.47,152.57s4.46-7,6.63-6.65c1.74.28,2.24,6.34,2.24,6.34s-.67-4.25-3.85-1.51c-2.28,2-5,9.07-5,9.07Z"/><path class="cls-4" d="M417.76,123.1c-4.34-39.18-41.16-34.29-41.16-34.29s-30.43-1.88-34.7,35.41c-2.44,21.28-5,37-.14,47.91,4.64,10.32,15.21,30.62,25.07,35a30.17,30.17,0,0,0,9.71,1.86,30.63,30.63,0,0,0,8.85-1.86c9.82-4.32,20.46-24.71,24.73-35A105.65,105.65,0,0,0,417.76,123.1Z"/><path class="cls-6" d="M339.1,152s-4.47-7-6.64-6.65c-1.73.28-2.23,6.34-2.23,6.34s.66-4.25,3.85-1.51c2.27,2,5,9.07,5,9.07Z"/><path class="cls-7" d="M347.25,112.2C347.51,110.77,367,116,367,116l2.78-7.84V116s6,.28,5.63,0,0-12.92,0-12.92l1.33,2.65s.67,10.32,1.17,10.4,35.3-4,35.3-4,4.44,37.88,0,70.89c-.06.47,1.63-1.93,4.3-6,5-7.67,5.27-66.68,5.27-67.15S421,95.79,413.49,88.14C406.88,81.37,401,82.82,401,82.82s-4-8.12-12.3-10.31c-6-1.57-14.95,1.41-15.61,1.72a41.92,41.92,0,0,0-29.27,22.33c-7.15,14.21,3.22,13.77,3.39,15.64s-.69-1.11,0,0c5.28,8.47.2.2,0,0C345,97.22,345.3,122.79,347.25,112.2Z"/><path class="cls-7" d="M339.54,145.3s-7.37-18.29-10.93-31c-4.44-15.82-2.39-101.44,91.73-21,50.92,43.53,21.91,85.8-8.87,104.74-15.25,9.38,4.43-25.74,1.53-52.78,0,0,.21-19.22-6.15-30.49-4.23-7.49-23.79-9.25-32.82-10.15C343.66,101.62,339.54,145.3,339.54,145.3Z"/></g></svg>