<svg xmlns="http://www.w3.org/2000/svg" xmlns:xlink="http://www.w3.org/1999/xlink" viewBox="0 0 158 173.07"><defs><style>.cls-1,.cls-8{fill:none;}.cls-2{fill:#c9634b;}.cls-3{fill:#7c181d;}.cls-4{fill:#681c23;}.cls-5{clip-path:url(#clip-path);}.cls-6{fill:#ce6a52;}.cls-7{clip-path:url(#clip-path-2);}.cls-8{stroke:#17ff57;stroke-miterlimit:10;stroke-width:4px;}.cls-9{fill:#e78367;}</style><clipPath id="clip-path"><polygon class="cls-1" points="113.34 85.15 113.34 85.15 128.26 85.15 128.26 114.25 113.34 114.25 113.34 85.15"/></clipPath><clipPath id="clip-path-2"><polygon class="cls-1" points="45.79 85.15 45.79 85.15 30.88 85.15 30.88 114.25 45.79 114.25 45.79 85.15"/></clipPath></defs><g id="Calque_3" data-name="Calque 3"><path class="cls-2" d="M48.78,90.6S46,86.05,43.87,86.4c-1.73.28-2.23,6.36-2.23,6.36s.67-4.26,3.85-1.51a12.57,12.57,0,0,1,3.18,4.1Z"/><path class="cls-3" d="M87.18,35.09S99,45,72.8,55.78,49.06,86.39,49.06,86.39s-13-18.32-5.31-27.71S67.49,25.92,87.18,35.09Z"/><path class="cls-4" d="M115.78,88.31s5-26,4.44-30.79C119,47.61,97.33,36.38,78.8,49.94c0,0,23.8,1.71,30.75,8.31,4.17,4,4.81,10,5.14,14.88C115,76.93,115,85.1,115.78,88.31Z"/><path class="cls-3" d="M131.45,55c7.42,82.15,9.46,90.79-13,96.06-7.45,1.75-13.73,4.51-15,5.33-8,5.28-4-23.37-4-23.37,10.76-16.49,15.6-28.74,19.32-33.29S131.45,55,131.45,55Z"/><path class="cls-3" d="M108.37,107.11c-.85-1.72,1.31-24.36.33-26-3-1.23-7,1.35-10.19.51-7.37-2-28.68,1.25-31.89,3.28-.84.53,13.09,16,12.31,16.57C71.6,107,61.82,130.72,62.22,141.58c.85,22.51,9.19,46.09-9.25,57.66C31.59,212.66,22.8,194,16.08,187c-6.1-6.38-29.54-27.78-9.42-68.75,4.39-9,9.33-17.59,11.51-27.32,6.88-30.68,24.5-74.66,55.88-64.76,11.89,3.75,10.48,6.54,11.89,3.75,6.11-12.08,66.29-4.2,39.7,61.55C122.83,98.37,109.83,103.85,108.37,107.11Z"/><path class="cls-3" d="M110.5,112.93c.07-.66.14-1.32.19-2q.3-3.45.34-7c0-.44,0-.89,0-1.35a94,94,0,0,0-5.83-32.91,28.57,28.57,0,0,0,2-10.6c0-.32,0-.64,0-1"/><path class="cls-4" d="M54,111.09c-1.93.86-20,5.5-18.91,26.46s20.22,57,26.07,53.24c6.16-3.94,6.9-18.66,3.4-45.55S54,111.09,54,111.09Z"/><g id="_Répétition_miroir_" data-name="&lt;Répétition miroir&gt;"><g class="cls-5"><path class="cls-6" d="M114.34,91s5-6.15,8-5.84c4.42.47,6.4,8.66,5.83,12.35-.72,4.62-4.82,14.56-10,16.65-1,.41-4.85-.82-4.85-.82Z"/></g></g><g id="_Répétition_miroir_2" data-name="&lt;Répétition miroir&gt;"><g class="cls-7"><path class="cls-6" d="M44.8,91s-5-6.15-8-5.84c-4.42.47-6.41,8.66-5.83,12.35.71,4.62,4.82,14.56,10,16.65,1,.41,4.85-.82,4.85-.82Z"/></g></g><ellipse class="cls-8" cx="34.23" cy="124.31" rx="11.54" ry="12.98"/><path class="cls-9" d="M114.21,67.57C112.88,49.9,79.57,49.9,79.57,49.9S48.08,50,44.93,67.57c-3.8,21.15-5.06,37.12-.14,48.09C49.43,126,60,146.4,69.86,150.78a29.86,29.86,0,0,0,9.71,1.86,30.31,30.31,0,0,0,8.85-1.86c9.82-4.34,20.45-24.81,24.73-35.12C117.76,104.55,115.83,89,114.21,67.57Z"/><ellipse class="cls-8" cx="123.73" cy="125.91" rx="11.54" ry="12.98"/></g></svg>