<svg xmlns="http://www.w3.org/2000/svg" xmlns:xlink="http://www.w3.org/1999/xlink" viewBox="0 0 788 1005"><defs><style>.cls-1{fill:none;}.cls-2{fill:#904c3d;}.cls-3{fill:#b26959;}.cls-4{clip-path:url(#clip-path);}.cls-5{clip-path:url(#clip-path-2);}.cls-6{fill:#213f52;}</style><clipPath id="clip-path"><polygon class="cls-1" points="430.62 106.14 430.62 106.14 446.11 106.14 446.11 136.36 430.62 136.36 430.62 106.14"/></clipPath><clipPath id="clip-path-2"><polygon class="cls-1" points="358.34 106.14 358.34 106.14 342.85 106.14 342.85 136.36 358.34 136.36 358.34 106.14"/></clipPath></defs><g id="Calque_3" data-name="Calque 3"><path class="cls-2" d="M373.32,158.3,414.9,158l.56,12.17C406.25,181.57,398.24,187,391.27,187c-5.26,0-13.5-10.1-18.82-14.1l.08-2Z"/><circle class="cls-3" cx="394.87" cy="91.63" r="38.29"/><path d="M394.68,136.42a41.54,41.54,0,0,1,0-83.08"/><path d="M395.41,53.34a41.54,41.54,0,0,1,0,83.08"/><path class="cls-3" d="M430.46,87.88c-.91-9.3-36-14.72-36-14.72v0s-35.07,5.42-36,14.72c-2.17,22.22-1,31,.48,55.94.54,9.41,23.75,25.64,29,29.18a4.3,4.3,0,0,0,2.27.73l4.14.13h.26l4.13-.13A4.25,4.25,0,0,0,401,173c5.23-3.54,28.42-19.77,29-29.18C431.42,118.87,432.64,110.1,430.46,87.88Z"/><path d="M373.29,94.76s-22.28,11.76-16,30.74c3.1,10.33-10.31,1.43-10-1.26s-1.59-9.16-7.39-11.42-4.62-6.64-4.62-6.64a12.5,12.5,0,0,1,1.52-4.14c1.28-2.3,1.34-3,1.34-4.26S337.34,95,335,93.71s-2.73-2.56-2.94-3.82,1.09-3.07,4.87-6.55,2.06-8.61,2.06-8.61-3.74-5-4.67-8.65,5.59-4.5,6.26-4.83,3.87-1.64,3.74-4.92-2.65-7.09-1.43-8.73,8.57-1,8.57-1,3.65,0,5.75-2.56,2.77-9.83,5.42-11.42,8.36,1.63,9.49,2.39a14.16,14.16,0,0,0,6.84,1.51c2.15-.21,4.25-1.38,6.68-4.74s3.91-6.77,8-7.06,7,5.8,7.56,6.64,3.57,4.62,7.94,4.7,7.51-2.65,10.2-3.44,4.33-.59,5.63.33,2.22,4.16,2.64,6.05.59,3.74,3.41,5.75,5.67,1.6,8.18,1.64,3.49-.5,4.79.92.59,3.7-.42,5.88a5.85,5.85,0,0,0,0,5.42c.76,1.68,2.56,2.27,4.79,3.07s4.2,1.68,4.41,4.53-2.1,4.83-2.82,6-2.26,2.73-2,5.71a11.33,11.33,0,0,0,3.9,7c1.47,1.22,3.32,2.52,3.28,5s-2.65,3.36-3.57,4-2.69,2.39-2.69,4.37,1.09,3.27,1.85,4.41a6.6,6.6,0,0,1,1.3,4.24c0,2-.88,3.48-3.32,5s-5.5,3.19-6.59,5.2-2.19,13.06-1.81,8.78c3.26-35.71-8.13-9.6-11.79-12.41-3.49-2.68-1.59-5.16-8.11-11.53-1.1-1.07-3.17-7.3-5.29-13.81-.84-2.57-2.9-2.61-4.2-3.53a5.22,5.22,0,0,1-2.19-2.92c-.5-1.32-.67-3-1.59-3s-1.68,1.89-2.77,3.57-1.72,2.64-3.49,3.14-5-1.13-7.18-.29-1.93,2.18-2.48,3.28-.58,2.26-2,2.43-1.26.59-3.49-.21-2.18-.8-3.15-.54-1.76,1.55-2.31,2.6-.46,1.55-1.34,2S375.14,94.17,373.29,94.76Z"/><g class="cls-4"><path class="cls-2" d="M431.65,112.22s5.23-6.4,8.3-6.07c4.59.49,6.65,9,6.06,12.83-.75,4.8-5,15.12-10.36,17.29-1,.43-5-.85-5-.85Z"/></g><g class="cls-5"><path class="cls-2" d="M357.31,112.22s-5.24-6.4-8.31-6.07c-4.58.49-6.65,9-6.05,12.83.74,4.8,5,15.12,10.35,17.29,1.05.43,5-.85,5-.85Z"/></g><path class="cls-6" d="M353.14,133.66a5.17,5.17,0,0,1,2.08,1.35,11,11,0,0,1,1.53,2,21.87,21.87,0,0,1,2,4.59,38,38,0,0,1,1.61,9.88,37.51,37.51,0,0,1-.95,10.08,20.66,20.66,0,0,1-1.87,5c-.23.41-.49.81-.76,1.21a10,10,0,0,1-1,1.18,5.46,5.46,0,0,1-3.23,1.67,5,5,0,0,1-3.69-1.06,8.72,8.72,0,0,1-2.07-2.32,18.5,18.5,0,0,1-2.09-5,31.81,31.81,0,0,1-.92-5c-.11-.84-.15-1.68-.21-2.52s0-1.68,0-2.52A37.94,37.94,0,0,1,345,142.3a24.06,24.06,0,0,1,1.9-4.64,9,9,0,0,1,3.32-3.67,9.66,9.66,0,0,0-2.3,4.11,25.1,25.1,0,0,0-1,4.61,39,39,0,0,0-.35,4.7,46,46,0,0,0,.12,4.7,38.32,38.32,0,0,0,1.64,9.08,16.15,16.15,0,0,0,1.77,3.89,5.1,5.1,0,0,0,1.13,1.29,1,1,0,0,0,.83.28c.42,0,1.43-.85,2.07-2a19,19,0,0,0,1.66-4,34.64,34.64,0,0,0,1-4.48c.2-1.53.4-3.08.49-4.64a45.37,45.37,0,0,0-.4-9.39,23.14,23.14,0,0,0-1.13-4.57A7.6,7.6,0,0,0,353.14,133.66Z"/><path class="cls-6" d="M438.74,134a9.09,9.09,0,0,1,3.29,3.68,23.57,23.57,0,0,1,1.89,4.63,38.36,38.36,0,0,1,1.43,9.88c0,.83,0,1.67,0,2.51s-.1,1.68-.21,2.52a32.86,32.86,0,0,1-.92,5,18.87,18.87,0,0,1-2.08,5,8.78,8.78,0,0,1-2.05,2.32,5.08,5.08,0,0,1-3.68,1.09,5.45,5.45,0,0,1-3.24-1.66,10,10,0,0,1-1.8-2.38,20.43,20.43,0,0,1-1.87-5,37,37,0,0,1-1-10.07,37.9,37.9,0,0,1,1.59-9.86,22.32,22.32,0,0,1,2-4.59,11.87,11.87,0,0,1,1.51-2,5.43,5.43,0,0,1,2.06-1.38,7.87,7.87,0,0,0-2.57,3.87,23.09,23.09,0,0,0-1.11,4.57,45.2,45.2,0,0,0-.38,9.37c.09,1.56.29,3.1.49,4.64a34.88,34.88,0,0,0,1,4.47,18.61,18.61,0,0,0,1.65,4c.65,1.17,1.65,2.07,2.07,2a1.09,1.09,0,0,0,.83-.29,5.15,5.15,0,0,0,1.13-1.3,16.15,16.15,0,0,0,1.77-3.89,38.67,38.67,0,0,0,1.64-9.06,46.1,46.1,0,0,0-.23-9.39,25.83,25.83,0,0,0-1-4.6A9.87,9.87,0,0,0,438.74,134Z"/></g></svg>