<svg xmlns="http://www.w3.org/2000/svg" xmlns:xlink="http://www.w3.org/1999/xlink" viewBox="0 0 788 1005"><defs><style>.cls-1{fill:none;}.cls-2{fill:#904c3d;}.cls-3{fill:#b26959;}.cls-4{clip-path:url(#clip-path);}.cls-5{clip-path:url(#clip-path-2);}</style><clipPath id="clip-path"><polygon class="cls-1" points="418.79 106 418.79 106 434.28 106 434.28 136.22 418.79 136.22 418.79 106"/></clipPath><clipPath id="clip-path-2"><polygon class="cls-1" points="347.01 106 347.01 106 331.52 106 331.52 136.22 347.01 136.22 347.01 106"/></clipPath></defs><g id="Calque_3" data-name="Calque 3"><path class="cls-2" d="M363.19,161.12h40v11h0c-9,11.39-14.9,16.43-21.7,16.38-5.13,0-13.16-10.1-18.35-14.1l.07-2Z"/><path d="M369.6,64s-14,7.38-10,19.29c1.95,6.48-6.46.89-6.25-.79a7.67,7.67,0,0,0-4.64-7.17c-3.63-1.42-2.9-4.16-2.9-4.16a8.07,8.07,0,0,1,1-2.6,4.46,4.46,0,0,0,.85-2.67c0-.76-.53-1.76-2-2.55A2.94,2.94,0,0,1,343.7,61c-.13-.79.69-1.92,3.06-4.11a5.4,5.4,0,0,0,1.29-5.4A20.86,20.86,0,0,1,345.13,46c-.58-2.26,3.5-2.82,3.92-3s2.43-1,2.35-3.08-1.66-4.45-.9-5.48,5.37-.63,5.37-.63a5.1,5.1,0,0,0,3.61-1.61c1.32-1.61,1.74-6.16,3.4-7.16s5.24,1,6,1.5a9,9,0,0,0,4.29.95c1.34-.14,2.66-.87,4.19-3s2.45-4.24,5-4.43,4.4,3.64,4.75,4.17,2.23,2.89,5,2.95,4.72-1.66,6.41-2.16,2.71-.37,3.53.21,1.39,2.6,1.66,3.79a4.79,4.79,0,0,0,2.13,3.61c1.76,1.26,3.56,1,5.14,1s2.18-.32,3,.58.37,2.31-.26,3.68a3.67,3.67,0,0,0,0,3.4c.47,1.06,1.61,1.43,3,1.93s2.64,1,2.77,2.84-1.32,3-1.77,3.79a5.23,5.23,0,0,0-1.26,3.59,7.11,7.11,0,0,0,2.45,4.37c.92.76,2.08,1.58,2.05,3.16s-1.66,2.11-2.24,2.5a3.88,3.88,0,0,0-1.68,2.74A4.74,4.74,0,0,0,418.1,69a4.16,4.16,0,0,1,.81,2.66c0,1.24-.55,2.19-2.08,3.14s-3.45,2-4.13,3.26-1.38,8.19-1.14,5.51c2-22.4-7-4.14-9.28-5.91s.89-5.11-3.2-9.11c-.69-.67-.63-1.34-1.27-1.79a5.5,5.5,0,0,1-1.29-1.5c-.16-.26-1.08-4.43-.76-5.38s-1.82-1.63-2.64-2.21a3.31,3.31,0,0,1-1.37-1.83c-.31-.83-.42-1.88-1-1.91s-1.05,1.19-1.74,2.24-1.08,1.66-2.18,2-3.16-.72-4.51-.19-1.21,1.37-1.55,2.06-.37,1.42-1.27,1.52a2.77,2.77,0,0,1-2.18-.13c-1.4-.5-1.37-.5-2-.34s-1.1,1-1.45,1.63-.29,1-.84,1.24S370.76,63.64,369.6,64Z"/><circle class="cls-3" cx="383.3" cy="91.48" r="38.29"/><path d="M383.1,136.28c-22.94,0-41.54-18.83-41.54-42.06s18.6-42,41.54-42"/><path d="M382.28,52.17c23.8,0,43.1,18.83,43.1,42.06s-19.3,42.05-43.1,42.05"/><path class="cls-3" d="M418.89,87.74C418,78.76,380.5,75.42,378,75.2h-8.07a3.4,3.4,0,0,0-.45,0l-6.15.86s-15.46,2.36-16.36,11.66c-2.18,22.21-1,31,.47,55.94.55,9.56,24.52,26.17,29.22,29.34a3.3,3.3,0,0,0,1.74.56l4.45.13h.2l4.45-.13a3.3,3.3,0,0,0,1.74-.56c4.7-3.17,28.66-19.78,29.21-29.34C419.85,118.73,421.06,110,418.89,87.74Z"/><g class="cls-4"><path class="cls-2" d="M420,112s5-6.29,8.1-6c4.59.49,6.66,9,6.06,12.82-.74,4.8-5,15.13-10.35,17.3-1.06.43-5-.85-5-.85Z"/></g><g class="cls-5"><path class="cls-2" d="M345.78,112s-5-6.29-8.1-6c-4.59.49-6.65,9-6.06,12.82.74,4.8,5,15.13,10.35,17.3,1.06.43,5-.85,5-.85Z"/></g><path d="M354.88,62.07a4.15,4.15,0,0,1-1.41,2.58,14.84,14.84,0,0,1-2.26,1.85c-.42.29-.81.5-1.16.79a11.26,11.26,0,0,0-1,.95,9.43,9.43,0,0,0-1.59,2.22,3.77,3.77,0,0,0-.37,1.2.81.81,0,0,0,.06.46,3.69,3.69,0,0,0,.32.49,16.42,16.42,0,0,0,2,1.9,53.42,53.42,0,0,1,4.36,3.85,6.32,6.32,0,0,1,1.69,2.8,2.94,2.94,0,0,1-.33,1.92,6.55,6.55,0,0,1-1,1.33c-1.43,1.5-3,2.58-4.4,3.82a9.59,9.59,0,0,0-1.75,1.9,2.24,2.24,0,0,0-.38.9,1.45,1.45,0,0,0,.14.81,6.21,6.21,0,0,0,1.52,1.83c.66.6,1.4,1.16,2.16,1.73s1.54,1.15,2.33,1.81A10.2,10.2,0,0,1,355,98.34a4.44,4.44,0,0,1,1,1.73,2.78,2.78,0,0,1,0,1.28,3.64,3.64,0,0,1-.15.59l-.21.47a7,7,0,0,1-1,1.46,25.75,25.75,0,0,1-2.14,2.16c-.71.65-1.43,1.27-2.07,1.9a12.69,12.69,0,0,0-1.7,1.91,2.32,2.32,0,0,0-.59,1.51,3,3,0,0,0,1,1.52c1.17,1.18,2.84,2.17,4.4,3.52a7.24,7.24,0,0,1,2.11,2.75l.16.49a4.71,4.71,0,0,1,.05.54,2.83,2.83,0,0,1-.09,1,4.35,4.35,0,0,1-.85,1.66,22.11,22.11,0,0,1-4.69,3.73,14.88,14.88,0,0,0-2.18,1.72,4.26,4.26,0,0,0-1.34,2.29h-.3a4.47,4.47,0,0,1,1-2.84,16.86,16.86,0,0,1,2-2.22,25,25,0,0,0,3.84-3.89,2.12,2.12,0,0,0,.35-.91.76.76,0,0,0,0-.37,1,1,0,0,1,0-.17,1.11,1.11,0,0,1-.09-.19,5.31,5.31,0,0,0-1.55-1.58c-.7-.52-1.49-1-2.3-1.56a21.77,21.77,0,0,1-2.47-1.81,5.84,5.84,0,0,1-2-3.23,3.07,3.07,0,0,1,0-1.13,3.61,3.61,0,0,1,.24-1,4.77,4.77,0,0,1,.4-.88,5.38,5.38,0,0,1,.48-.75,14.31,14.31,0,0,1,2.15-2.33c.74-.68,1.49-1.3,2.21-1.91a26,26,0,0,0,2-1.8,4.49,4.49,0,0,0,.68-.85l.11-.18s0-.06,0-.1,0-.06,0-.13A2.15,2.15,0,0,0,353,100a8.88,8.88,0,0,0-.86-.9c-.65-.61-1.38-1.2-2.12-1.81s-1.51-1.24-2.25-2a8.38,8.38,0,0,1-2-2.67,3.53,3.53,0,0,1-.22-2,4.35,4.35,0,0,1,.76-1.7,11.94,11.94,0,0,1,2.2-2.23c1.53-1.25,3.15-2.29,4.41-3.52.62-.61,1.08-1.29,1-1.78a4.86,4.86,0,0,0-1.22-2.08,52.27,52.27,0,0,0-4-4,16.89,16.89,0,0,1-2-2.17,4,4,0,0,1-.42-.74,1.76,1.76,0,0,1-.11-.5,3.1,3.1,0,0,1,0-.45,4.78,4.78,0,0,1,.54-1.5,10.15,10.15,0,0,1,1.86-2.34,10.33,10.33,0,0,1,1.13-.95,12.31,12.31,0,0,1,1.25-.76,14.82,14.82,0,0,0,2.26-1.67,3.89,3.89,0,0,0,1.43-2.26Z"/><path class="cls-3" d="M361.86,78.39a25.59,25.59,0,0,1,3.42-5.87,37.71,37.71,0,0,1,4.64-5,40.73,40.73,0,0,1,5.45-4.08,28.68,28.68,0,0,1,6.13-2.91,36.52,36.52,0,0,0-5.92,3.24,45.09,45.09,0,0,0-5.33,4.12,41.17,41.17,0,0,0-4.67,4.85A31.19,31.19,0,0,0,361.86,78.39Z"/></g></svg>