<svg xmlns="http://www.w3.org/2000/svg" xmlns:xlink="http://www.w3.org/1999/xlink" viewBox="0 0 788 1005.07"><defs><style>.cls-1{fill:none;}.cls-2{clip-path:url(#clip-path);}.cls-3{fill:#e78367;}.cls-4{clip-path:url(#clip-path-2);}.cls-5{fill:#357abb;}.cls-6{fill:#c9634b;}.cls-7{fill:#681c23;}</style><clipPath id="clip-path"><polygon class="cls-1" points="407.61 140.62 407.61 140.62 422.52 140.62 422.52 169.72 407.61 169.72 407.61 140.62"/></clipPath><clipPath id="clip-path-2"><polygon class="cls-1" points="340.06 140.62 340.06 140.62 325.15 140.62 325.15 169.72 340.06 169.72 340.06 140.62"/></clipPath></defs><g id="Calque_3" data-name="Calque 3"><g id="_Repetition_miroir_" data-name="&lt;Repetition miroir&gt;"><g class="cls-2"><path class="cls-3" d="M408.61,146.47s5-6.15,8-5.84c4.41.48,6.4,8.67,5.83,12.35-.72,4.62-4.83,14.56-10,16.65-1,.42-4.85-.82-4.85-.82Z"/></g></g><g id="_Repetition_miroir_2" data-name="&lt;Repetition miroir&gt;"><g class="cls-4"><path class="cls-3" d="M339.07,146.47s-5-6.15-8-5.84c-4.41.48-6.4,8.67-5.83,12.35.72,4.62,4.83,14.56,10,16.65,1,.42,4.85-.82,4.85-.82Z"/></g></g><ellipse class="cls-5" cx="333.24" cy="170.17" rx="3.85" ry="4.33"/><ellipse class="cls-5" cx="415.07" cy="171.13" rx="3.85" ry="4.33"/><path class="cls-6" d="M337.68,150.89s-4.47-7-6.64-6.68c-1.73.28-2.23,6.36-2.23,6.36s.66-4.26,3.85-1.51c2.27,2,5,9.11,5,9.11Z"/><path class="cls-6" d="M410.05,151.5s4.46-7,6.63-6.68c1.74.28,2.24,6.36,2.24,6.36s-.67-4.26-3.85-1.51c-2.28,2-5,9.11-5,9.11Z"/><path class="cls-3" d="M409.76,123C406.68,97.2,375.44,97.2,375.44,97.2S344.12,96,340.48,123c-2.86,21.3-5.05,37.12-.14,48.09,4.64,10.36,15.21,30.74,25.07,35.12a29.65,29.65,0,0,0,9.71,1.86,30.31,30.31,0,0,0,8.85-1.86c9.82-4.34,20.46-24.81,24.73-35.12C413.31,160,411.38,144.47,409.76,123Z"/><path class="cls-7" d="M354.36,105c12,1.21,24.48,6.06,39.91,5.09a12.77,12.77,0,0,1,12,6.58l3.5,6.36s-.71,7.26.82,21.16c0,0,6.95,1.51,6.95-6.21S429,133,429,121.71s14.83-7.51,7.1-17.94-8.95-10.85-9.57-19-9.57-7.36-17.91-11.92-1.81-6.92-16-9.36c-12.18-2.09-9.08-2.71-18-6s-23.68,3.34-29.86,8.35S329.51,73.93,323,74.14s-10.19,7.93-9.58,14.61-14.51,7.09-10.8,13.77,8.2,5.55,9.44,7.84-5.74,5.09-3.27,10.1,10.86,5.88,9.93,9.84-6.45,4.2-1.28,13.53c2.54,4.58-3,13.13,5,12.19,3-.35,5.14,5,5.14,5-3-12.67.22-19.51,2.48-20.31,3.14-1.11,7.85,4.72,7.59,6.61,0,0,1.65-15.26,2.79-24.24C340.79,120.6,345.57,104.13,354.36,105Z"/></g></svg>