<svg xmlns="http://www.w3.org/2000/svg" xmlns:xlink="http://www.w3.org/1999/xlink" viewBox="0 0 788 1005.07"><defs><style>.cls-1{fill:none;}.cls-2{fill:#562d2b;}.cls-3{clip-path:url(#clip-path);}.cls-4{fill:#e78367;}.cls-5{clip-path:url(#clip-path-2);}.cls-6{fill:#b85d40;}.cls-7{fill:#681c23;}.cls-8{fill:#dddad9;}.cls-9{fill:#f7422f;}</style><clipPath id="clip-path"><polygon class="cls-1" points="409.03 141.74 409.03 141.74 423.94 141.74 423.94 170.72 409.03 170.72 409.03 141.74"/></clipPath><clipPath id="clip-path-2"><polygon class="cls-1" points="341.48 141.74 341.48 141.74 326.57 141.74 326.57 170.72 341.48 170.72 341.48 141.74"/></clipPath></defs><g id="Calque_3" data-name="Calque 3"><path class="cls-2" d="M339.06,158.81c3.93.58-.17,27.15,1.72,27.11s55.26-8.71,68.58,0l3.28-2.51.36-24.14S337.33,158.56,339.06,158.81Z"/><g id="_Répétition_miroir_" data-name="&lt;Répétition miroir&gt;"><g class="cls-3"><path class="cls-4" d="M410,147.56s5-6.13,8-5.81c4.41.47,6.4,8.63,5.83,12.3-.72,4.6-4.83,14.5-10,16.58-1,.42-4.85-.81-4.85-.81Z"/></g></g><g id="_Répétition_miroir_2" data-name="&lt;Répétition miroir&gt;"><g class="cls-5"><path class="cls-4" d="M340.49,147.56s-5-6.13-8-5.81c-4.41.47-6.4,8.63-5.83,12.3.72,4.6,4.83,14.5,10,16.58,1,.42,4.85-.81,4.85-.81Z"/></g></g><path class="cls-6" d="M411.47,152.57s4.46-7,6.63-6.65c1.74.28,2.24,6.34,2.24,6.34s-.67-4.25-3.85-1.51c-2.28,2-5,9.07-5,9.07Z"/><path class="cls-4" d="M411.18,124.22c-3.08-25.74-32-22.6-32-22.6s-33.68-4.38-37.32,22.6c-2.86,21.22-5,37-.14,47.91,4.64,10.32,15.21,30.62,25.07,35a30.17,30.17,0,0,0,9.71,1.86,30.63,30.63,0,0,0,8.85-1.86c9.82-4.32,20.46-24.71,24.73-35C414.73,161.06,412.8,145.57,411.18,124.22Z"/><path class="cls-6" d="M339.1,152s-4.47-7-6.64-6.65c-1.73.28-2.23,6.34-2.23,6.34s.66-4.25,3.85-1.51c2.27,2,5,9.07,5,9.07Z"/><path class="cls-7" d="M342.38,120.09c.26-1.43,19.75,3.85,19.75,3.85l2.78-7.85v7.85s6,.27,5.63,0,0-12.93,0-12.93l1.33,2.65s.66,10.32,1.16,10.4,35.31-4,35.31-4,4.44,37.88,0,70.89c-.06.47,1.62-1.93,4.3-6,5-7.67,5.26-66.68,5.26-67.15s-1.81-14.14-9.28-21.79c-6.61-6.77-12.46-5.32-12.46-5.32s-4-8.12-12.29-10.31c-6-1.57-14.95,1.41-15.61,1.72A41.93,41.93,0,0,0,339,104.45c-7.14,14.21-6,56.4-5.81,58.28s.8,17.83,1.49,18.94c5.29,8.47,9.19,9.49,9,9.29C341.42,176,340.43,130.68,342.38,120.09Z"/><path class="cls-8" d="M330.23,112.13c1.62,1.42,90.59,12,93.72,9.59s4-19.16,0-23.58-78.21-14-85.1-8S325.23,107.73,330.23,112.13Z"/><path class="cls-9" d="M346.75,91.74s1.5-15.19,19.13-17.39S398.84,51.59,424,63s30.3,27.18,27.9,32.37-.8-14.79-15.19-8.79-16.32,14.81-16.32,14.81Z"/><ellipse class="cls-9" cx="452.38" cy="101.36" rx="11.99" ry="10.59"/></g></svg>