<svg xmlns="http://www.w3.org/2000/svg" xmlns:xlink="http://www.w3.org/1999/xlink" viewBox="0 0 188 173.73"><defs><style>.cls-1{fill:none;}.cls-2{fill:#904c3d;}.cls-3{fill:#b26959;}.cls-4{clip-path:url(#clip-path);}.cls-5{clip-path:url(#clip-path-2);}.cls-6{fill:#357abd;}</style><clipPath id="clip-path"><polygon class="cls-1" points="142.16 106.16 142.16 106.16 157.65 106.16 157.65 136.38 142.16 136.38 142.16 106.16"/></clipPath><clipPath id="clip-path-2"><polygon class="cls-1" points="69.89 106.16 69.89 106.16 54.39 106.16 54.39 136.38 69.89 136.38 69.89 106.16"/></clipPath></defs><g id="Calque_3" data-name="Calque 3"><rect class="cls-2" x="85.42" y="138.65" width="39.52" height="47.38"/><circle class="cls-3" cx="106.42" cy="91.65" r="38.29"/><path class="cls-3" d="M142,87.9c-.92-9.3-36-14.73-36-14.73v0S70.94,78.6,70,87.9c-2.18,22.22-1,31,.47,55.94.57,9.78,25.6,26.91,29.51,29.53a2,2,0,0,0,1.12.36l4.82.15h.13l4.82-.15a2.07,2.07,0,0,0,1.12-.36c3.91-2.62,28.93-19.75,29.49-29.53C143,118.89,144.19,110.12,142,87.9Z"/><g class="cls-4"><path class="cls-2" d="M143.19,112.23s5.24-6.39,8.31-6.06c4.58.49,6.65,9,6.05,12.82-.74,4.81-5,15.13-10.35,17.3-1,.43-5-.85-5-.85Z"/></g><g class="cls-5"><path class="cls-2" d="M68.85,112.23s-5.23-6.39-8.3-6.06c-4.59.49-6.65,9-6.06,12.82.75,4.81,5,15.13,10.36,17.3,1.05.43,5-.85,5-.85Z"/></g><ellipse class="cls-6" cx="63.84" cy="135.88" rx="4" ry="4.5"/><ellipse class="cls-6" cx="147.84" cy="136.88" rx="4" ry="4.5"/><path d="M71.53,117c-.46-.63-33.56-46.21,24.6-63.4,0,0-31.81-33.89,10.65-33.89,43.37,0,13.16,32.41,10.87,33,0,0,54.5,21.77,23.36,65.91,0,0,.2-34.66-6-37.78-.49,4.89-.49,10-.49,10a104.09,104.09,0,0,1-27.3,3,162.18,162.18,0,0,1-30.38-3.49V80.68C69.1,87.26,71.53,117,71.53,117Z"/></g></svg>