<?xml version="1.0" encoding="utf-8"?>
<!-- Generator: Adobe Illustrator 26.0.1, SVG Export Plug-In . SVG Version: 6.00 Build 0)  -->
<svg version="1.1" id="Calque_1" xmlns="http://www.w3.org/2000/svg" xmlns:xlink="http://www.w3.org/1999/xlink" x="0px" y="0px"
	 viewBox="0 0 788 1005" style="enable-background:new 0 0 788 1005;" xml:space="preserve">
<style type="text/css">
	.st0{fill:#5E5E5E;}
	.st1{clip-path:url(#SVGID_00000124876642341606501570000009612272687570940033_);}
	.st2{fill:#7F4A2F;}
	.st3{clip-path:url(#SVGID_00000168084100013759247330000004063410943136665512_);}
	.st4{clip-path:url(#SVGID_00000180329570026135364040000000442403703273220486_);}
	.st5{fill:#573623;}
	.st6{clip-path:url(#SVGID_00000008849087277944460990000017810441293164082083_);}
	.st7{clip-path:url(#SVGID_00000112597405560475700590000011355233537973671581_);}
	.st8{fill:#FFFFFF;}
	.st9{clip-path:url(#SVGID_00000096737662050338936210000012222764935526268058_);}
	.st10{clip-path:url(#SVGID_00000167369021968294261550000015120561984838003102_);}
	.st11{fill:#090909;}
	.st12{clip-path:url(#SVGID_00000169538884875367356330000003672605511767681466_);}
	.st13{fill:#8E5736;}
	.st14{fill:#59342B;}
	.st15{fill:#28221E;}
</style>
<path class="st0" d="M364.9,340.6c0,0,0,3.2,0,2.1v-0.2C364.9,341.9,364.9,341.2,364.9,340.6z"/>
<path class="st0" d="M364.9,340.6c0,0,0,3.2,0,2.1v-0.2C364.9,341.9,364.9,341.2,364.9,340.6z"/>
<path class="st0" d="M364.9,340.6c0,0,0,3.2,0,2.1v-0.2C364.9,341.9,364.9,341.2,364.9,340.6z"/>
<path class="st0" d="M364.9,340.6c0,0,0,3.2,0,2.1v-0.2C364.9,341.9,364.9,341.2,364.9,340.6z"/>
<path class="st0" d="M364.9,340.6c0,0,0,3.2,0,2.1v-0.2C364.9,341.9,364.9,341.2,364.9,340.6z"/>
<g id="_Répétition_miroir_">
	<g>
		<defs>
			<polygon id="SVGID_1_" points="457.5,305.9 457.5,305.9 494.7,305.9 494.7,370.6 457.5,370.6 			"/>
		</defs>
		<clipPath id="SVGID_00000024704479429802894360000007630006907795210425_">
			<use xlink:href="#SVGID_1_"  style="overflow:visible;"/>
		</clipPath>
		<g style="clip-path:url(#SVGID_00000024704479429802894360000007630006907795210425_);">
			<path class="st2" d="M457.5,366.4l8.1-49c0,0,12.8-17.9,25.7-9c8.6,5.9-0.8,56.6-9.9,60C465.7,374.3,457.5,366.4,457.5,366.4z"/>
		</g>
	</g>
</g>
<g id="_Répétition_miroir_2">
	<g>
		<defs>
			<polygon id="SVGID_00000139972268558006221660000010115844022788649602_" points="330.5,305.9 330.5,305.9 293.3,305.9 
				293.3,370.6 330.5,370.6 			"/>
		</defs>
		<clipPath id="SVGID_00000047739046116366704620000001174686554076289718_">
			<use xlink:href="#SVGID_00000139972268558006221660000010115844022788649602_"  style="overflow:visible;"/>
		</clipPath>
		<g style="clip-path:url(#SVGID_00000047739046116366704620000001174686554076289718_);">
			<path class="st2" d="M330.5,366.4l-8.1-49c0,0-12.8-17.9-25.7-9c-8.6,5.9,0.8,56.6,9.9,60C322.3,374.3,330.5,366.4,330.5,366.4z"
				/>
		</g>
	</g>
</g>
<g>
	<defs>
		<polygon id="SVGID_00000178195229167437342000000005237656712606954407_" points="415.9,279.5 415.9,279.5 460.9,279.5 
			460.9,293.2 415.9,293.2 		"/>
	</defs>
	<clipPath id="SVGID_00000150810349407167678800000006679491562353994882_">
		<use xlink:href="#SVGID_00000178195229167437342000000005237656712606954407_"  style="overflow:visible;"/>
	</clipPath>
	<g style="clip-path:url(#SVGID_00000150810349407167678800000006679491562353994882_);">
		<path class="st5" d="M458.7,293.2c-0.3,0-0.6-0.1-0.8-0.2c-4.5-1.9-9.1-3.4-13.8-4.5c-15.1-3.4-16.1-1-21.3,0
			c-1.5,0.3-5.2-0.6-6-1.5s-1.4-4.1-0.5-4.9c0.4-0.3,7.1-4.9,24.4-1c7.2,1.6,18.6,7.9,18.9,8c1.1,0.5,1.6,1.7,1.1,2.8
			C460.4,292.7,459.6,293.3,458.7,293.2L458.7,293.2z"/>
	</g>
</g>
<g>
	<defs>
		<polygon id="SVGID_00000140727609307358010180000009190962304500262038_" points="372.1,279.5 372.1,279.5 327.1,279.5 
			327.1,293.2 372.1,293.2 		"/>
	</defs>
	<clipPath id="SVGID_00000078734726938441728030000004440687206315702960_">
		<use xlink:href="#SVGID_00000140727609307358010180000009190962304500262038_"  style="overflow:visible;"/>
	</clipPath>
	<g style="clip-path:url(#SVGID_00000078734726938441728030000004440687206315702960_);">
		<path class="st5" d="M329.3,293.2c0.3,0,0.6-0.1,0.8-0.2c4.5-1.9,9.1-3.4,13.8-4.5c15.1-3.4,16.1-1,21.3,0c1.5,0.3,5.2-0.6,6-1.5
			s1.4-4.1,0.5-4.9c-0.4-0.3-7.1-4.9-24.4-1c-7.2,1.6-18.6,7.9-18.9,8c-1.1,0.5-1.6,1.7-1.1,2.8
			C327.6,292.7,328.4,293.3,329.3,293.2L329.3,293.2z"/>
	</g>
</g>
<g>
	<defs>
		<polygon id="SVGID_00000014622513661758853140000009885232978533339580_" points="425.5,306.6 425.5,306.6 454.5,306.6 
			454.5,334.5 425.5,334.5 		"/>
	</defs>
	<clipPath id="SVGID_00000173132475846120570830000010021116788742440082_">
		<use xlink:href="#SVGID_00000014622513661758853140000009885232978533339580_"  style="overflow:visible;"/>
	</clipPath>
	<g style="clip-path:url(#SVGID_00000173132475846120570830000010021116788742440082_);">
		<ellipse class="st8" cx="440" cy="320.6" rx="14.5" ry="13.9"/>
	</g>
</g>
<g>
	<defs>
		<polygon id="SVGID_00000116942674551327500200000009150376330615828909_" points="362.5,306.6 362.5,306.6 333.5,306.6 
			333.5,334.5 362.5,334.5 		"/>
	</defs>
	<clipPath id="SVGID_00000078026740301808513440000004268984804828362412_">
		<use xlink:href="#SVGID_00000116942674551327500200000009150376330615828909_"  style="overflow:visible;"/>
	</clipPath>
	<g style="clip-path:url(#SVGID_00000078026740301808513440000004268984804828362412_);">
		<ellipse class="st8" cx="348" cy="320.6" rx="14.5" ry="13.9"/>
	</g>
</g>
<g>
	<defs>
		<polygon id="SVGID_00000054256853387781584660000003521106628841487294_" points="430.2,312.9 430.2,312.9 449.6,312.9 
			449.6,332.3 430.2,332.3 		"/>
	</defs>
	<clipPath id="SVGID_00000093155176515914705040000000177195156039260837_">
		<use xlink:href="#SVGID_00000054256853387781584660000003521106628841487294_"  style="overflow:visible;"/>
	</clipPath>
	<g style="clip-path:url(#SVGID_00000093155176515914705040000000177195156039260837_);">
		<circle class="st11" cx="439.9" cy="322.6" r="9.7"/>
	</g>
</g>
<g>
	<defs>
		<polygon id="SVGID_00000133492670218121713020000000259863821128473991_" points="357.8,312.9 357.8,312.9 338.4,312.9 
			338.4,332.3 357.8,332.3 		"/>
	</defs>
	<clipPath id="SVGID_00000137090323056392471870000003732658017998996394_">
		<use xlink:href="#SVGID_00000133492670218121713020000000259863821128473991_"  style="overflow:visible;"/>
	</clipPath>
	<g style="clip-path:url(#SVGID_00000137090323056392471870000003732658017998996394_);">
		<circle class="st11" cx="348.1" cy="322.6" r="9.7"/>
	</g>
</g>
<path class="st13" d="M469.9,331c2.3-16.1,3.2-54,3.2-54c0-45.5-31.5-74.9-76.5-75.8l0,0h-5.3l0,0c-45,0.9-76.5,30.3-76.5,75.8
	c0,0,0.9,38,3.2,54c1.8,12.9-12.8,35,3.1,57c9.2,12.7,53.8,20.1,70.4,24.3c0.7,0.2,1.4,0.3,2.1,0.3c0.1,0,0.3,0,0.4,0s0.3,0,0.4,0
	c0.7,0,1.4-0.1,2.1-0.3c13.9-3.5,47.5-9.3,63.4-18.5c2.5-0.8,4.7-2.4,6.1-4.7c0.3-0.3,0.6-0.7,0.9-1
	C482.8,366,468.1,343.9,469.9,331z"/>
<path class="st14" d="M381.7,346c-1,0.1-1.4,0.7-0.6,1c3,1.2,8.7,3.4,12.5,3.4c3.6,0,9-2.1,11.8-3.3c0.8-0.3,0.4-1-0.6-1
	c-3.4-0.2-4.8,0.6-11.6,0.6C387.4,346.7,385.1,345.8,381.7,346z"/>
<path class="st15" d="M386.7,220.9c-27.4-11.6-39.2-50.7-9.6-48.5c7.9,0.6-24,14,43.4,25.9c24,4.3,29.7,16.5,29.7,16.5
	S402,227.4,386.7,220.9z"/>
<path class="st15" d="M367.8,219.8c-27.4-11.6-39.2-50.7-9.6-48.5c7.9,0.6-24,14,43.4,25.9c24,4.3,29.7,16.5,29.7,16.5
	S383.1,226.3,367.8,219.8z"/>
<path class="st15" d="M316.3,314c-3.6-6-23.1-93.2,45-114.3s97.6,24.3,97.6,24.3s26.9,35.4,12.5,89c0,0-3.4-28.6-13.3-50.6
	s-3.7-26.3-3.5-28.2s-63.6-6.1-63.6-6.1s-33.3-0.3-36.7-0.3c-10.7,0.1-19.4,0.5-18.9,1.5C339,237,316.3,314,316.3,314z"/>
</svg>
