<?xml version="1.0" encoding="utf-8"?>
<!-- Generator: Adobe Illustrator 26.0.1, SVG Export Plug-In . SVG Version: 6.00 Build 0)  -->
<svg version="1.1" id="Calque_1" xmlns="http://www.w3.org/2000/svg" xmlns:xlink="http://www.w3.org/1999/xlink" x="0px" y="0px"
	 viewBox="0 0 788 1005" style="enable-background:new 0 0 788 1005;" xml:space="preserve">
<style type="text/css">
	.st0{fill:#5E5E5E;}
	.st1{clip-path:url(#SVGID_00000124130778253269415680000013171923971465150351_);}
	.st2{fill:#7F4A2F;}
	.st3{clip-path:url(#SVGID_00000124842460445086807470000001802608341261523380_);}
	.st4{clip-path:url(#SVGID_00000113311499858466283040000002373066872104526226_);}
	.st5{fill:#573623;}
	.st6{clip-path:url(#SVGID_00000145736692964523992290000017255331211651127941_);}
	.st7{clip-path:url(#SVGID_00000153675298795630090990000018354382086539220387_);}
	.st8{fill:#FFFFFF;}
	.st9{clip-path:url(#SVGID_00000042708092888974867890000002517661180803623098_);}
	.st10{clip-path:url(#SVGID_00000048482917032597401490000015221777158950673587_);}
	.st11{fill:#090909;}
	.st12{clip-path:url(#SVGID_00000148662004205475901820000008520097565209675914_);}
	.st13{fill:#8E5736;}
	.st14{fill:#59342B;}
	.st15{fill:#481F09;}
	.st16{fill:#685C42;}
	.st17{fill:#8F823A;}
</style>
<path class="st0" d="M364.9,340.6c0,0,0,3.2,0,2.1v-0.2C364.9,341.9,364.9,341.2,364.9,340.6z"/>
<path class="st0" d="M364.9,340.6c0,0,0,3.2,0,2.1v-0.2C364.9,341.9,364.9,341.2,364.9,340.6z"/>
<path class="st0" d="M364.9,340.6c0,0,0,3.2,0,2.1v-0.2C364.9,341.9,364.9,341.2,364.9,340.6z"/>
<path class="st0" d="M364.9,340.6c0,0,0,3.2,0,2.1v-0.2C364.9,341.9,364.9,341.2,364.9,340.6z"/>
<path class="st0" d="M364.9,340.6c0,0,0,3.2,0,2.1v-0.2C364.9,341.9,364.9,341.2,364.9,340.6z"/>
<g id="_Répétition_miroir_">
	<g>
		<defs>
			<polygon id="SVGID_1_" points="457.5,305.9 457.5,305.9 494.7,305.9 494.7,370.6 457.5,370.6 			"/>
		</defs>
		<clipPath id="SVGID_00000037678896468015121840000014618066343172633255_">
			<use xlink:href="#SVGID_1_"  style="overflow:visible;"/>
		</clipPath>
		<g style="clip-path:url(#SVGID_00000037678896468015121840000014618066343172633255_);">
			<path class="st2" d="M457.5,366.4l8.1-49c0,0,12.8-17.9,25.7-9c8.6,5.9-0.8,56.6-9.9,60C465.7,374.3,457.5,366.4,457.5,366.4z"/>
		</g>
	</g>
</g>
<g id="_Répétition_miroir_2">
	<g>
		<defs>
			<polygon id="SVGID_00000094603386375454089650000014653012852462246822_" points="330.5,305.9 330.5,305.9 293.3,305.9 
				293.3,370.6 330.5,370.6 			"/>
		</defs>
		<clipPath id="SVGID_00000044897188257420558850000007108681792393732736_">
			<use xlink:href="#SVGID_00000094603386375454089650000014653012852462246822_"  style="overflow:visible;"/>
		</clipPath>
		<g style="clip-path:url(#SVGID_00000044897188257420558850000007108681792393732736_);">
			<path class="st2" d="M330.5,366.4l-8.1-49c0,0-12.8-17.9-25.7-9c-8.6,5.9,0.8,56.6,9.9,60C322.3,374.3,330.5,366.4,330.5,366.4z"
				/>
		</g>
	</g>
</g>
<g>
	<defs>
		<polygon id="SVGID_00000006668177254511853190000003045378897040349092_" points="415.9,279.5 415.9,279.5 460.9,279.5 
			460.9,293.2 415.9,293.2 		"/>
	</defs>
	<clipPath id="SVGID_00000016791804129900240470000004237885439802582712_">
		<use xlink:href="#SVGID_00000006668177254511853190000003045378897040349092_"  style="overflow:visible;"/>
	</clipPath>
	<g style="clip-path:url(#SVGID_00000016791804129900240470000004237885439802582712_);">
		<path class="st5" d="M458.7,293.2c-0.3,0-0.6-0.1-0.8-0.2c-4.5-1.9-9.1-3.4-13.8-4.5c-15.1-3.4-16.1-1-21.3,0
			c-1.5,0.3-5.2-0.6-6-1.5s-1.4-4.1-0.5-4.9c0.4-0.3,7.1-4.9,24.4-1c7.2,1.6,18.6,7.9,18.9,8c1.1,0.5,1.6,1.7,1.1,2.8
			C460.4,292.7,459.6,293.3,458.7,293.2L458.7,293.2z"/>
	</g>
</g>
<g>
	<defs>
		<polygon id="SVGID_00000065755371700809414860000007596450876780385932_" points="372.1,279.5 372.1,279.5 327.1,279.5 
			327.1,293.2 372.1,293.2 		"/>
	</defs>
	<clipPath id="SVGID_00000054961253718260308260000005610984993075511723_">
		<use xlink:href="#SVGID_00000065755371700809414860000007596450876780385932_"  style="overflow:visible;"/>
	</clipPath>
	<g style="clip-path:url(#SVGID_00000054961253718260308260000005610984993075511723_);">
		<path class="st5" d="M329.3,293.2c0.3,0,0.6-0.1,0.8-0.2c4.5-1.9,9.1-3.4,13.8-4.5c15.1-3.4,16.1-1,21.3,0c1.5,0.3,5.2-0.6,6-1.5
			s1.4-4.1,0.5-4.9c-0.4-0.3-7.1-4.9-24.4-1c-7.2,1.6-18.6,7.9-18.9,8c-1.1,0.5-1.6,1.7-1.1,2.8
			C327.6,292.7,328.4,293.3,329.3,293.2L329.3,293.2z"/>
	</g>
</g>
<g>
	<defs>
		<polygon id="SVGID_00000137841568505850532010000015740307236707151499_" points="425.5,306.6 425.5,306.6 454.5,306.6 
			454.5,334.5 425.5,334.5 		"/>
	</defs>
	<clipPath id="SVGID_00000132775648868740069240000004047379522679612065_">
		<use xlink:href="#SVGID_00000137841568505850532010000015740307236707151499_"  style="overflow:visible;"/>
	</clipPath>
	<g style="clip-path:url(#SVGID_00000132775648868740069240000004047379522679612065_);">
		<ellipse class="st8" cx="440" cy="320.6" rx="14.5" ry="13.9"/>
	</g>
</g>
<g>
	<defs>
		<polygon id="SVGID_00000162353077996181185500000015540536020908880805_" points="362.5,306.6 362.5,306.6 333.5,306.6 
			333.5,334.5 362.5,334.5 		"/>
	</defs>
	<clipPath id="SVGID_00000158011449590283523100000009293092536645749694_">
		<use xlink:href="#SVGID_00000162353077996181185500000015540536020908880805_"  style="overflow:visible;"/>
	</clipPath>
	<g style="clip-path:url(#SVGID_00000158011449590283523100000009293092536645749694_);">
		<ellipse class="st8" cx="348" cy="320.6" rx="14.5" ry="13.9"/>
	</g>
</g>
<g>
	<defs>
		<polygon id="SVGID_00000114058568003903610730000017767853048781035706_" points="430.2,312.9 430.2,312.9 449.6,312.9 
			449.6,332.3 430.2,332.3 		"/>
	</defs>
	<clipPath id="SVGID_00000142163760349204627500000011489156429637776536_">
		<use xlink:href="#SVGID_00000114058568003903610730000017767853048781035706_"  style="overflow:visible;"/>
	</clipPath>
	<g style="clip-path:url(#SVGID_00000142163760349204627500000011489156429637776536_);">
		<circle class="st11" cx="439.9" cy="322.6" r="9.7"/>
	</g>
</g>
<g>
	<defs>
		<polygon id="SVGID_00000105423592269970672700000005322934130668647344_" points="357.8,312.9 357.8,312.9 338.4,312.9 
			338.4,332.3 357.8,332.3 		"/>
	</defs>
	<clipPath id="SVGID_00000009557403676317121580000007477933050331206801_">
		<use xlink:href="#SVGID_00000105423592269970672700000005322934130668647344_"  style="overflow:visible;"/>
	</clipPath>
	<g style="clip-path:url(#SVGID_00000009557403676317121580000007477933050331206801_);">
		<circle class="st11" cx="348.1" cy="322.6" r="9.7"/>
	</g>
</g>
<path class="st13" d="M469.9,331c2.3-16.1,3.2-54,3.2-54c0-45.5-31.5-74.9-76.5-75.8l0,0h-5.3l0,0c-45,0.9-76.5,30.3-76.5,75.8
	c0,0,0.9,38,3.2,54c1.8,12.9-12.8,35,3.1,57c9.2,12.7,53.8,20.1,70.4,24.3c0.7,0.2,1.4,0.3,2.1,0.3c0.1,0,0.3,0,0.4,0s0.3,0,0.4,0
	c0.7,0,1.4-0.1,2.1-0.3c13.9-3.5,47.5-9.3,63.4-18.5c2.5-0.8,4.7-2.4,6.1-4.7c0.3-0.3,0.6-0.7,0.9-1
	C482.8,366,468.1,343.9,469.9,331z"/>
<g>
	<defs>
		<polygon id="SVGID_00000071544446691156183310000001776916569708550303_" points="369.5,305.4 369.5,305.4 340.6,305.4 
			340.6,333.3 369.5,333.3 		"/>
	</defs>
	<clipPath id="SVGID_00000157305364908821217190000003720960587519179698_">
		<use xlink:href="#SVGID_00000071544446691156183310000001776916569708550303_"  style="overflow:visible;"/>
	</clipPath>
</g>
<g>
	<defs>
		<polygon id="SVGID_00000073681227439808435340000009244727464273980070_" points="364.9,311.7 364.9,311.7 345.5,311.7 345.5,331 
			364.9,331 		"/>
	</defs>
	<clipPath id="SVGID_00000039823335922878025350000014761085666101862320_">
		<use xlink:href="#SVGID_00000073681227439808435340000009244727464273980070_"  style="overflow:visible;"/>
	</clipPath>
</g>
<path class="st14" d="M381.7,346c-1,0.1-1.4,0.7-0.6,1c3,1.2,8.7,3.4,12.5,3.4c3.6,0,9-2.1,11.8-3.3c0.8-0.3,0.4-1-0.6-1
	c-3.4-0.2-4.8,0.6-11.6,0.6C387.4,346.7,385.1,345.8,381.7,346z"/>
<path class="st15" d="M472.1,255.1c0,0-0.3,13.6-1.1,28c-9.7,7.3-36.1-19.7-77.7-19.8c-39.4-0.1-66.4,24.4-78.4,20.6
	c-0.8-14.7-1.1-28.8-1.1-28.8c0-45.5,31.5-74.9,76.5-75.8l0,0h5.3l0,0C440.7,180.3,472.1,209.6,472.1,255.1z"/>
<path class="st16" d="M490.4,236.2c0,45.5-44.1,23.6-98.5,23.6s-98.5,21.9-98.5-23.6s44.1-66,98.5-66S490.4,190.7,490.4,236.2z"/>
<path class="st17" d="M490.4,236.2c0,45.5-44.1,0-98.5,0s-98.5,45.5-98.5,0s44.1-81.8,98.5-81.8S490.4,190.7,490.4,236.2z"/>
</svg>
