<?xml version="1.0" encoding="utf-8"?>
<!-- Generator: Adobe Illustrator 26.0.1, SVG Export Plug-In . SVG Version: 6.00 Build 0)  -->
<svg version="1.1" id="Calque_1" xmlns="http://www.w3.org/2000/svg" xmlns:xlink="http://www.w3.org/1999/xlink" x="0px" y="0px"
	 viewBox="0 0 788 1005" style="enable-background:new 0 0 788 1005;" xml:space="preserve">
<style type="text/css">
	.st0{fill:#5E5E5E;}
	.st1{clip-path:url(#SVGID_00000155112870519991214580000005761354748259344318_);}
	.st2{fill:#7F4A2F;}
	.st3{clip-path:url(#SVGID_00000083048710187420193700000014627831541862042258_);}
	.st4{clip-path:url(#SVGID_00000070112566872535591170000016175070725658726061_);}
	.st5{fill:#573623;}
	.st6{clip-path:url(#SVGID_00000047738841372956213240000007847174403190760619_);}
	.st7{clip-path:url(#SVGID_00000001637490063844872960000014671273342442202535_);}
	.st8{fill:#FFFFFF;}
	.st9{clip-path:url(#SVGID_00000065764734180672461810000011527817861387871160_);}
	.st10{clip-path:url(#SVGID_00000028285044018553457050000011790825273911242378_);}
	.st11{fill:#090909;}
	.st12{clip-path:url(#SVGID_00000128461357014212457850000006610821005366524823_);}
	.st13{fill:#8E5736;}
	.st14{fill:#59342B;}
	.st15{fill:#481F09;}
	.st16{fill:#C19D7A;}
</style>
<path class="st0" d="M364.9,340.6c0,0,0,3.2,0,2.1v-0.2C364.9,341.9,364.9,341.2,364.9,340.6z"/>
<path class="st0" d="M364.9,340.6c0,0,0,3.2,0,2.1v-0.2C364.9,341.9,364.9,341.2,364.9,340.6z"/>
<path class="st0" d="M364.9,340.6c0,0,0,3.2,0,2.1v-0.2C364.9,341.9,364.9,341.2,364.9,340.6z"/>
<path class="st0" d="M364.9,340.6c0,0,0,3.2,0,2.1v-0.2C364.9,341.9,364.9,341.2,364.9,340.6z"/>
<path class="st0" d="M364.9,340.6c0,0,0,3.2,0,2.1v-0.2C364.9,341.9,364.9,341.2,364.9,340.6z"/>
<g id="_Répétition_miroir_">
	<g>
		<defs>
			<polygon id="SVGID_1_" points="457.5,305.9 457.5,305.9 494.7,305.9 494.7,370.6 457.5,370.6 			"/>
		</defs>
		<clipPath id="SVGID_00000065056041963976068690000002104331960859445652_">
			<use xlink:href="#SVGID_1_"  style="overflow:visible;"/>
		</clipPath>
		<g style="clip-path:url(#SVGID_00000065056041963976068690000002104331960859445652_);">
			<path class="st2" d="M457.5,366.4l8.1-49c0,0,12.8-17.9,25.7-9c8.6,5.9-0.8,56.6-9.9,60C465.7,374.3,457.5,366.4,457.5,366.4z"/>
		</g>
	</g>
</g>
<g id="_Répétition_miroir_2">
	<g>
		<defs>
			<polygon id="SVGID_00000152965650113377580700000016477858426517447567_" points="330.5,305.9 330.5,305.9 293.3,305.9 
				293.3,370.6 330.5,370.6 			"/>
		</defs>
		<clipPath id="SVGID_00000111901430445131422990000001165519736254489494_">
			<use xlink:href="#SVGID_00000152965650113377580700000016477858426517447567_"  style="overflow:visible;"/>
		</clipPath>
		<g style="clip-path:url(#SVGID_00000111901430445131422990000001165519736254489494_);">
			<path class="st2" d="M330.5,366.4l-8.1-49c0,0-12.8-17.9-25.7-9c-8.6,5.9,0.8,56.6,9.9,60C322.3,374.3,330.5,366.4,330.5,366.4z"
				/>
		</g>
	</g>
</g>
<g>
	<defs>
		<polygon id="SVGID_00000178196238414010268460000007139784896393887629_" points="415.9,279.5 415.9,279.5 460.9,279.5 
			460.9,293.2 415.9,293.2 		"/>
	</defs>
	<clipPath id="SVGID_00000116936504955070448400000002984753847016078511_">
		<use xlink:href="#SVGID_00000178196238414010268460000007139784896393887629_"  style="overflow:visible;"/>
	</clipPath>
	<g style="clip-path:url(#SVGID_00000116936504955070448400000002984753847016078511_);">
		<path class="st5" d="M458.7,293.2c-0.3,0-0.6-0.1-0.8-0.2c-4.5-1.9-9.1-3.4-13.8-4.5c-15.1-3.4-16.1-1-21.3,0
			c-1.5,0.3-5.2-0.6-6-1.5s-1.4-4.1-0.5-4.9c0.4-0.3,7.1-4.9,24.4-1c7.2,1.6,18.6,7.9,18.9,8c1.1,0.5,1.6,1.7,1.1,2.8
			C460.4,292.7,459.6,293.3,458.7,293.2L458.7,293.2z"/>
	</g>
</g>
<g>
	<defs>
		<polygon id="SVGID_00000162312941089669475350000017574622580647389608_" points="372.1,279.5 372.1,279.5 327.1,279.5 
			327.1,293.2 372.1,293.2 		"/>
	</defs>
	<clipPath id="SVGID_00000031920005099490876820000006682043999206635437_">
		<use xlink:href="#SVGID_00000162312941089669475350000017574622580647389608_"  style="overflow:visible;"/>
	</clipPath>
	<g style="clip-path:url(#SVGID_00000031920005099490876820000006682043999206635437_);">
		<path class="st5" d="M329.3,293.2c0.3,0,0.6-0.1,0.8-0.2c4.5-1.9,9.1-3.4,13.8-4.5c15.1-3.4,16.1-1,21.3,0c1.5,0.3,5.2-0.6,6-1.5
			s1.4-4.1,0.5-4.9c-0.4-0.3-7.1-4.9-24.4-1c-7.2,1.6-18.6,7.9-18.9,8c-1.1,0.5-1.6,1.7-1.1,2.8
			C327.6,292.7,328.4,293.3,329.3,293.2L329.3,293.2z"/>
	</g>
</g>
<g>
	<defs>
		<polygon id="SVGID_00000008119553597379507780000007090919012382214050_" points="425.5,306.6 425.5,306.6 454.5,306.6 
			454.5,334.5 425.5,334.5 		"/>
	</defs>
	<clipPath id="SVGID_00000013879193711517245050000009936569190282272437_">
		<use xlink:href="#SVGID_00000008119553597379507780000007090919012382214050_"  style="overflow:visible;"/>
	</clipPath>
	<g style="clip-path:url(#SVGID_00000013879193711517245050000009936569190282272437_);">
		<ellipse class="st8" cx="440" cy="320.6" rx="14.5" ry="13.9"/>
	</g>
</g>
<g>
	<defs>
		<polygon id="SVGID_00000016755727000851508270000006782268768949144732_" points="362.5,306.6 362.5,306.6 333.5,306.6 
			333.5,334.5 362.5,334.5 		"/>
	</defs>
	<clipPath id="SVGID_00000174578751485569533530000016793721140180478384_">
		<use xlink:href="#SVGID_00000016755727000851508270000006782268768949144732_"  style="overflow:visible;"/>
	</clipPath>
	<g style="clip-path:url(#SVGID_00000174578751485569533530000016793721140180478384_);">
		<ellipse class="st8" cx="348" cy="320.6" rx="14.5" ry="13.9"/>
	</g>
</g>
<g>
	<defs>
		<polygon id="SVGID_00000101069191718004472780000017552940408776002963_" points="430.2,312.9 430.2,312.9 449.6,312.9 
			449.6,332.3 430.2,332.3 		"/>
	</defs>
	<clipPath id="SVGID_00000062881449800248684960000009861247126692389008_">
		<use xlink:href="#SVGID_00000101069191718004472780000017552940408776002963_"  style="overflow:visible;"/>
	</clipPath>
	<g style="clip-path:url(#SVGID_00000062881449800248684960000009861247126692389008_);">
		<circle class="st11" cx="439.9" cy="322.6" r="9.7"/>
	</g>
</g>
<g>
	<defs>
		<polygon id="SVGID_00000121991820895780843570000000301620665558676354_" points="357.8,312.9 357.8,312.9 338.4,312.9 
			338.4,332.3 357.8,332.3 		"/>
	</defs>
	<clipPath id="SVGID_00000161619432200486930720000012322059751296831913_">
		<use xlink:href="#SVGID_00000121991820895780843570000000301620665558676354_"  style="overflow:visible;"/>
	</clipPath>
	<g style="clip-path:url(#SVGID_00000161619432200486930720000012322059751296831913_);">
		<circle class="st11" cx="348.1" cy="322.6" r="9.7"/>
	</g>
</g>
<path class="st13" d="M471.7,331c2.3-16.1,3.2-54,3.2-54c0-45.5-31.5-74.9-76.5-75.8l0,0h-5.3l0,0c-45,0.9-76.5,30.3-76.5,75.8
	c0,0,0.9,38,3.2,54c1.8,12.9-12.8,35,3.1,57c9.2,12.7,53.8,20.1,70.4,24.3c0.7,0.2,1.4,0.3,2.1,0.3c0.1,0,0.3,0,0.4,0s0.3,0,0.4,0
	c0.7,0,1.4-0.1,2.1-0.3c13.9-3.5,47.5-9.3,63.4-18.5c2.5-0.8,4.7-2.4,6.1-4.7c0.3-0.3,0.6-0.7,0.9-1
	C484.5,366,469.8,343.9,471.7,331z"/>
<path class="st14" d="M381.7,346c-1,0.1-1.4,0.7-0.6,1c3,1.2,8.7,3.4,12.5,3.4c3.6,0,9-2.1,11.8-3.3c0.8-0.3,0.4-1-0.6-1
	c-3.4-0.2-4.8,0.6-11.6,0.6C387.4,346.7,385.1,345.8,381.7,346z"/>
<path class="st15" d="M473.8,254.1c0,0,0,5.8-0.8,18.1c-5.3,4.8-69.4-3.9-111.4-1.9c-8.6,0.4-34.9,16-46.3,20.3
	c-0.8-12.6-1.5-36.5-1.5-36.5c0-39.1,31.8-64.3,77.3-65.1l0,0h5.3l0,0C442,189.9,473.8,215.1,473.8,254.1z"/>
<path class="st16" d="M374.8,178.6l36.8,0.4c35.2,0.3,63.5,29.1,63.1,64.3l0,0l-0.2,21.8l0,0l-164.2-1.6l0,0l0.2-21.8
	C310.8,206.5,339.6,178.2,374.8,178.6z"/>
<path class="st16" d="M361.6,263.3c-2.7-1.3-52.2,29.1-79.6,36c-10.3,2.7-21.3,0.1-29.3-7c-1.6-1.4-2.6-2.5-2.4-3
	c0.5-2.1,60.1-36.7,60.1-35.4L361.6,263.3z"/>
</svg>
