<?xml version="1.0" encoding="utf-8"?>
<!-- Generator: Adobe Illustrator 26.0.1, SVG Export Plug-In . SVG Version: 6.00 Build 0)  -->
<svg version="1.1" id="Calque_1" xmlns="http://www.w3.org/2000/svg" xmlns:xlink="http://www.w3.org/1999/xlink" x="0px" y="0px"
	 viewBox="0 0 788 1005" style="enable-background:new 0 0 788 1005;" xml:space="preserve">
<style type="text/css">
	.st0{fill:#5E5E5E;}
	.st1{clip-path:url(#SVGID_00000097494857654087860060000006350613383201418898_);}
	.st2{fill:#7F4A2F;}
	.st3{clip-path:url(#SVGID_00000038371422701936872210000011710699574186511036_);}
	.st4{clip-path:url(#SVGID_00000066484153976487576220000012402872868049090229_);}
	.st5{fill:#573623;}
	.st6{clip-path:url(#SVGID_00000171709908421723114070000017765730051083072933_);}
	.st7{clip-path:url(#SVGID_00000007410280832759829010000004552953535986566810_);}
	.st8{fill:#FFFFFF;}
	.st9{clip-path:url(#SVGID_00000171719130456058690720000015329771076618398090_);}
	.st10{clip-path:url(#SVGID_00000129171089312096833270000010261324656604371639_);}
	.st11{fill:#090909;}
	.st12{clip-path:url(#SVGID_00000162328195910377572550000007539536224436445869_);}
	.st13{fill:#8E5736;}
	.st14{fill:#28221E;}
	.st15{fill:#59342B;}
</style>
<path class="st0" d="M364.9,340.6c0,0,0,3.2,0,2.1v-0.2C364.9,341.9,364.9,341.2,364.9,340.6z"/>
<path class="st0" d="M364.9,340.6c0,0,0,3.2,0,2.1v-0.2C364.9,341.9,364.9,341.2,364.9,340.6z"/>
<path class="st0" d="M364.9,340.6c0,0,0,3.2,0,2.1v-0.2C364.9,341.9,364.9,341.2,364.9,340.6z"/>
<path class="st0" d="M364.9,340.6c0,0,0,3.2,0,2.1v-0.2C364.9,341.9,364.9,341.2,364.9,340.6z"/>
<path class="st0" d="M364.9,340.6c0,0,0,3.2,0,2.1v-0.2C364.9,341.9,364.9,341.2,364.9,340.6z"/>
<g id="_Répétition_miroir_">
	<g>
		<defs>
			<polygon id="SVGID_1_" points="457.5,305.9 457.5,305.9 494.7,305.9 494.7,370.6 457.5,370.6 			"/>
		</defs>
		<clipPath id="SVGID_00000072268749769384560330000018169824259707842949_">
			<use xlink:href="#SVGID_1_"  style="overflow:visible;"/>
		</clipPath>
		<g style="clip-path:url(#SVGID_00000072268749769384560330000018169824259707842949_);">
			<path class="st2" d="M457.5,366.4l8.1-49c0,0,12.8-17.9,25.7-9c8.6,5.9-0.8,56.6-9.9,60C465.7,374.3,457.5,366.4,457.5,366.4z"/>
		</g>
	</g>
</g>
<g id="_Répétition_miroir_2">
	<g>
		<defs>
			<polygon id="SVGID_00000156563121848495695050000010939989964185742758_" points="330.5,305.9 330.5,305.9 293.3,305.9 
				293.3,370.6 330.5,370.6 			"/>
		</defs>
		<clipPath id="SVGID_00000165943097567097799240000012412898235789203130_">
			<use xlink:href="#SVGID_00000156563121848495695050000010939989964185742758_"  style="overflow:visible;"/>
		</clipPath>
		<g style="clip-path:url(#SVGID_00000165943097567097799240000012412898235789203130_);">
			<path class="st2" d="M330.5,366.4l-8.1-49c0,0-12.8-17.9-25.7-9c-8.6,5.9,0.8,56.6,9.9,60C322.3,374.3,330.5,366.4,330.5,366.4z"
				/>
		</g>
	</g>
</g>
<g>
	<defs>
		<polygon id="SVGID_00000154418278521534562380000007589373734928842404_" points="415.9,279.5 415.9,279.5 460.9,279.5 
			460.9,293.2 415.9,293.2 		"/>
	</defs>
	<clipPath id="SVGID_00000002380288308550720460000015303390326727986064_">
		<use xlink:href="#SVGID_00000154418278521534562380000007589373734928842404_"  style="overflow:visible;"/>
	</clipPath>
	<g style="clip-path:url(#SVGID_00000002380288308550720460000015303390326727986064_);">
		<path class="st5" d="M458.7,293.2c-0.3,0-0.6-0.1-0.8-0.2c-4.5-1.9-9.1-3.4-13.8-4.5c-15.1-3.4-16.1-1-21.3,0
			c-1.5,0.3-5.2-0.6-6-1.5s-1.4-4.1-0.5-4.9c0.4-0.3,7.1-4.9,24.4-1c7.2,1.6,18.6,7.9,18.9,8c1.1,0.5,1.6,1.7,1.1,2.8
			C460.4,292.7,459.6,293.3,458.7,293.2L458.7,293.2z"/>
	</g>
</g>
<g>
	<defs>
		<polygon id="SVGID_00000057838486826655287900000009212856313876020116_" points="372.1,279.5 372.1,279.5 327.1,279.5 
			327.1,293.2 372.1,293.2 		"/>
	</defs>
	<clipPath id="SVGID_00000152247315940712399550000012123086080399849399_">
		<use xlink:href="#SVGID_00000057838486826655287900000009212856313876020116_"  style="overflow:visible;"/>
	</clipPath>
	<g style="clip-path:url(#SVGID_00000152247315940712399550000012123086080399849399_);">
		<path class="st5" d="M329.3,293.2c0.3,0,0.6-0.1,0.8-0.2c4.5-1.9,9.1-3.4,13.8-4.5c15.1-3.4,16.1-1,21.3,0c1.5,0.3,5.2-0.6,6-1.5
			s1.4-4.1,0.5-4.9c-0.4-0.3-7.1-4.9-24.4-1c-7.2,1.6-18.6,7.9-18.9,8c-1.1,0.5-1.6,1.7-1.1,2.8
			C327.6,292.7,328.4,293.3,329.3,293.2L329.3,293.2z"/>
	</g>
</g>
<g>
	<defs>
		<polygon id="SVGID_00000125569848386643637090000011496393687086025617_" points="425.5,306.6 425.5,306.6 454.5,306.6 
			454.5,334.5 425.5,334.5 		"/>
	</defs>
	<clipPath id="SVGID_00000085945360843120033280000014029071783524725950_">
		<use xlink:href="#SVGID_00000125569848386643637090000011496393687086025617_"  style="overflow:visible;"/>
	</clipPath>
	<g style="clip-path:url(#SVGID_00000085945360843120033280000014029071783524725950_);">
		<ellipse class="st8" cx="440" cy="320.6" rx="14.5" ry="13.9"/>
	</g>
</g>
<g>
	<defs>
		<polygon id="SVGID_00000084526312446733738370000001852949595018736039_" points="362.5,306.6 362.5,306.6 333.5,306.6 
			333.5,334.5 362.5,334.5 		"/>
	</defs>
	<clipPath id="SVGID_00000102534128742836503100000009699903256829786030_">
		<use xlink:href="#SVGID_00000084526312446733738370000001852949595018736039_"  style="overflow:visible;"/>
	</clipPath>
	<g style="clip-path:url(#SVGID_00000102534128742836503100000009699903256829786030_);">
		<ellipse class="st8" cx="348" cy="320.6" rx="14.5" ry="13.9"/>
	</g>
</g>
<g>
	<defs>
		<polygon id="SVGID_00000021107223866584483110000010190025612244829620_" points="430.2,312.9 430.2,312.9 449.6,312.9 
			449.6,332.3 430.2,332.3 		"/>
	</defs>
	<clipPath id="SVGID_00000099659257760042777440000003025247826273294978_">
		<use xlink:href="#SVGID_00000021107223866584483110000010190025612244829620_"  style="overflow:visible;"/>
	</clipPath>
	<g style="clip-path:url(#SVGID_00000099659257760042777440000003025247826273294978_);">
		<circle class="st11" cx="439.9" cy="322.6" r="9.7"/>
	</g>
</g>
<g>
	<defs>
		<polygon id="SVGID_00000163793382741860776240000008975719023821690005_" points="357.8,312.9 357.8,312.9 338.4,312.9 
			338.4,332.3 357.8,332.3 		"/>
	</defs>
	<clipPath id="SVGID_00000036968599088219335110000001525562336076143245_">
		<use xlink:href="#SVGID_00000163793382741860776240000008975719023821690005_"  style="overflow:visible;"/>
	</clipPath>
	<g style="clip-path:url(#SVGID_00000036968599088219335110000001525562336076143245_);">
		<circle class="st11" cx="348.1" cy="322.6" r="9.7"/>
	</g>
</g>
<path class="st13" d="M466,389c0.3-0.3,0.6-0.7,0.9-1c15.9-22,1.2-44.1,3.1-57c2.3-16.1,3.2-54,3.2-54c0-45.5-31.5-74.9-76.5-75.8
	l0,0h-5.3l0,0c-45,0.9-76.5,30.3-76.5,75.8c0,0,0.9,38,3.2,54c1.8,12.9-12.8,35,3.1,57c9.2,12.7,53.8,20.1,70.4,24.3
	c0.7,0.2,1.4,0.3,2.1,0.3c0.1,0,0.3,0,0.4,0s0.3,0,0.4,0c0.7,0,1.4-0.1,2.1-0.3c13.9-3.5,52.3-13.1,68.2-22.4L466,389z"/>
<g>
	<defs>
		<rect id="SVGID_00000055669044167317411240000017232126184132967566_" x="414.5" y="279.5" width="41.7" height="9.5"/>
	</defs>
	<clipPath id="SVGID_00000134218663261533634340000006345581497431499420_">
		<use xlink:href="#SVGID_00000055669044167317411240000017232126184132967566_"  style="overflow:visible;"/>
	</clipPath>
</g>
<g>
	<defs>
		<rect id="SVGID_00000139287052975074693790000011585312130135030974_" x="331.8" y="279.5" width="41.7" height="9.5"/>
	</defs>
	<clipPath id="SVGID_00000080182481108951435000000008355226925370149818_">
		<use xlink:href="#SVGID_00000139287052975074693790000011585312130135030974_"  style="overflow:visible;"/>
	</clipPath>
</g>
<path class="st14" d="M385.5,225.6c-27.4-11.6-39.2-50.7-9.6-48.5c7.9,0.6-24,14,43.4,25.9c24,4.3,29.7,16.5,29.7,16.5
	S400.8,232.1,385.5,225.6z"/>
<path class="st15" d="M381.7,346c-1,0.1-1.4,0.7-0.6,1c3,1.2,8.7,3.4,12.5,3.4c3.6,0,9-2.1,11.8-3.3c0.8-0.3,0.4-1-0.6-1
	c-3.4-0.2-4.8,0.6-11.6,0.6C387.4,346.7,385.1,345.8,381.7,346z"/>
</svg>
