<?xml version="1.0" encoding="utf-8"?>
<!-- Generator: Adobe Illustrator 26.0.1, SVG Export Plug-In . SVG Version: 6.00 Build 0)  -->
<svg version="1.1" id="Calque_1" xmlns="http://www.w3.org/2000/svg" xmlns:xlink="http://www.w3.org/1999/xlink" x="0px" y="0px"
	 viewBox="0 0 248.3 217.5" style="enable-background:new 0 0 248.3 217.5;" xml:space="preserve">
<style type="text/css">
	.st0{fill:#5E5E5E;}
	.st1{clip-path:url(#SVGID_00000104677525282439635880000010581738055225156503_);}
	.st2{fill:#7F4A2F;}
	.st3{clip-path:url(#SVGID_00000164509605095078335830000002857451397144759435_);}
	.st4{clip-path:url(#SVGID_00000033361716915661516430000012294414368721831587_);}
	.st5{fill:#573623;}
	.st6{clip-path:url(#SVGID_00000019656483813446531400000009492549534882764436_);}
	.st7{clip-path:url(#SVGID_00000129204261233342889180000006965556379759917208_);}
	.st8{fill:#FFFFFF;}
	.st9{clip-path:url(#SVGID_00000165197119467770035090000008833558244128837537_);}
	.st10{clip-path:url(#SVGID_00000093882116896552584440000009305136826703186864_);}
	.st11{fill:#090909;}
	.st12{clip-path:url(#SVGID_00000049906429528269058680000004890362942777647545_);}
	.st13{fill:#8E5736;}
	.st14{fill:#59342B;}
	.st15{fill:#28221E;}
</style>
<path class="st0" d="M97.5,145.5c0,0,0,3.2,0,2.1v-0.2C97.5,146.8,97.5,146.1,97.5,145.5z"/>
<path class="st0" d="M97.5,145.5c0,0,0,3.2,0,2.1v-0.2C97.5,146.8,97.5,146.1,97.5,145.5z"/>
<path class="st0" d="M97.5,145.5c0,0,0,3.2,0,2.1v-0.2C97.5,146.8,97.5,146.1,97.5,145.5z"/>
<path class="st0" d="M97.5,145.5c0,0,0,3.2,0,2.1v-0.2C97.5,146.8,97.5,146.1,97.5,145.5z"/>
<path class="st0" d="M97.5,145.5c0,0,0,3.2,0,2.1v-0.2C97.5,146.8,97.5,146.1,97.5,145.5z"/>
<g id="_Répétition_miroir_">
	<g>
		<g>
			<defs>
				<polygon id="SVGID_1_" points="190.1,110.8 190.1,110.8 227.3,110.8 227.3,175.5 190.1,175.5 				"/>
			</defs>
			<clipPath id="SVGID_00000045584340996643178000000004594654381048025237_">
				<use xlink:href="#SVGID_1_"  style="overflow:visible;"/>
			</clipPath>
			<g style="clip-path:url(#SVGID_00000045584340996643178000000004594654381048025237_);">
				<path class="st2" d="M190.1,171.3l8.1-49c0,0,12.8-17.9,25.7-9c8.6,5.9-0.8,56.6-9.9,60C198.3,179.2,190.1,171.3,190.1,171.3z"
					/>
			</g>
		</g>
	</g>
</g>
<g id="_Répétition_miroir_2">
	<g>
		<g>
			<defs>
				<polygon id="SVGID_00000126313319052324890370000011101010278903136917_" points="63.1,110.8 63.1,110.8 25.9,110.8 25.9,175.5 
					63.1,175.5 				"/>
			</defs>
			<clipPath id="SVGID_00000065063018890672479080000008175708981648375699_">
				<use xlink:href="#SVGID_00000126313319052324890370000011101010278903136917_"  style="overflow:visible;"/>
			</clipPath>
			<g style="clip-path:url(#SVGID_00000065063018890672479080000008175708981648375699_);">
				<path class="st2" d="M63.1,171.3l-8.1-49c0,0-12.8-17.9-25.7-9c-8.6,5.9,0.8,56.6,9.9,60C54.9,179.2,63.1,171.3,63.1,171.3z"/>
			</g>
		</g>
	</g>
</g>
<g>
	<g>
		<defs>
			<polygon id="SVGID_00000072983739096784958290000012635828749395274676_" points="148.5,84.4 148.5,84.4 193.5,84.4 193.5,98.1 
				148.5,98.1 			"/>
		</defs>
		<clipPath id="SVGID_00000084528477797982437670000004461058406700764840_">
			<use xlink:href="#SVGID_00000072983739096784958290000012635828749395274676_"  style="overflow:visible;"/>
		</clipPath>
		<g style="clip-path:url(#SVGID_00000084528477797982437670000004461058406700764840_);">
			<path class="st5" d="M191.3,98.1c-0.3,0-0.6-0.1-0.8-0.2c-4.5-1.9-9.1-3.4-13.8-4.5c-15.1-3.4-16.1-1-21.3,0
				c-1.5,0.3-5.2-0.6-6-1.5s-1.4-4.1-0.5-4.9c0.4-0.3,7.1-4.9,24.4-1c7.2,1.6,18.6,7.9,18.9,8c1.1,0.5,1.6,1.7,1.1,2.8
				C193,97.6,192.2,98.2,191.3,98.1L191.3,98.1z"/>
		</g>
	</g>
</g>
<g>
	<g>
		<defs>
			<polygon id="SVGID_00000025436359914168718620000013280146550297836178_" points="104.7,84.4 104.7,84.4 59.7,84.4 59.7,98.1 
				104.7,98.1 			"/>
		</defs>
		<clipPath id="SVGID_00000004505765568657698610000011883107193466990985_">
			<use xlink:href="#SVGID_00000025436359914168718620000013280146550297836178_"  style="overflow:visible;"/>
		</clipPath>
		<g style="clip-path:url(#SVGID_00000004505765568657698610000011883107193466990985_);">
			<path class="st5" d="M61.9,98.1c0.3,0,0.6-0.1,0.8-0.2c4.5-1.9,9.1-3.4,13.8-4.5c15.1-3.4,16.1-1,21.3,0c1.5,0.3,5.2-0.6,6-1.5
				s1.4-4.1,0.5-4.9c-0.4-0.3-7.1-4.9-24.4-1c-7.2,1.6-18.6,7.9-18.9,8c-1.1,0.5-1.6,1.7-1.1,2.8C60.2,97.6,61,98.2,61.9,98.1
				L61.9,98.1z"/>
		</g>
	</g>
</g>
<g>
	<g>
		<defs>
			<polygon id="SVGID_00000136408408659062591100000001618549866107522967_" points="158.1,111.5 158.1,111.5 187.1,111.5 
				187.1,139.4 158.1,139.4 			"/>
		</defs>
		<clipPath id="SVGID_00000042698038090004068900000008437739219710330518_">
			<use xlink:href="#SVGID_00000136408408659062591100000001618549866107522967_"  style="overflow:visible;"/>
		</clipPath>
		<g style="clip-path:url(#SVGID_00000042698038090004068900000008437739219710330518_);">
			<ellipse class="st8" cx="172.6" cy="125.5" rx="14.5" ry="13.9"/>
		</g>
	</g>
</g>
<g>
	<g>
		<defs>
			<polygon id="SVGID_00000024694013440401974240000013221525442520934022_" points="95.1,111.5 95.1,111.5 66.1,111.5 66.1,139.4 
				95.1,139.4 			"/>
		</defs>
		<clipPath id="SVGID_00000041273963988692621620000009487425656473111204_">
			<use xlink:href="#SVGID_00000024694013440401974240000013221525442520934022_"  style="overflow:visible;"/>
		</clipPath>
		<g style="clip-path:url(#SVGID_00000041273963988692621620000009487425656473111204_);">
			<ellipse class="st8" cx="80.6" cy="125.5" rx="14.5" ry="13.9"/>
		</g>
	</g>
</g>
<g>
	<g>
		<defs>
			<polygon id="SVGID_00000147180062310050434190000004871573568100960696_" points="162.8,117.8 162.8,117.8 182.2,117.8 
				182.2,137.2 162.8,137.2 			"/>
		</defs>
		<clipPath id="SVGID_00000163043294381389505450000015645675838992897703_">
			<use xlink:href="#SVGID_00000147180062310050434190000004871573568100960696_"  style="overflow:visible;"/>
		</clipPath>
		<g style="clip-path:url(#SVGID_00000163043294381389505450000015645675838992897703_);">
			<circle class="st11" cx="172.5" cy="127.5" r="9.7"/>
		</g>
	</g>
</g>
<g>
	<g>
		<defs>
			<polygon id="SVGID_00000075133998727538098270000010433477341894329008_" points="90.4,117.8 90.4,117.8 71,117.8 71,137.2 
				90.4,137.2 			"/>
		</defs>
		<clipPath id="SVGID_00000131327865916879054500000012966628473620354474_">
			<use xlink:href="#SVGID_00000075133998727538098270000010433477341894329008_"  style="overflow:visible;"/>
		</clipPath>
		<g style="clip-path:url(#SVGID_00000131327865916879054500000012966628473620354474_);">
			<circle class="st11" cx="80.7" cy="127.5" r="9.7"/>
		</g>
	</g>
</g>
<path class="st13" d="M202.5,135.9c2.3-16.1,3.2-54,3.2-54c0-45.5-31.5-74.9-76.5-75.8l0,0h-5.3l0,0C78.9,7,47.4,36.4,47.4,81.9
	c0,0,0.9,38,3.2,54c1.8,12.9-12.8,35,3.1,57c9.2,12.7,53.8,20.1,70.4,24.3c0.7,0.2,1.4,0.3,2.1,0.3c0.1,0,0.3,0,0.4,0s0.3,0,0.4,0
	c0.7,0,1.4-0.1,2.1-0.3c13.9-3.5,47.5-9.3,63.4-18.5c2.5-0.8,4.7-2.4,6.1-4.7c0.3-0.3,0.6-0.7,0.9-1
	C215.4,170.9,200.7,148.8,202.5,135.9z"/>
<path class="st14" d="M114.3,150.9c-1,0.1-1.4,0.7-0.6,1c3,1.2,8.7,3.4,12.5,3.4c3.6,0,9-2.1,11.8-3.3c0.8-0.3,0.4-1-0.6-1
	c-3.4-0.2-4.8,0.6-11.6,0.6C120,151.6,117.7,150.7,114.3,150.9z"/>
<path class="st15" d="M247.8,145.6c-1.1-6.5-7.6,15.9-20.3-15.8C227.5,110.5,221,0,221,0L33.4,3.3l-9,122.2
	c-15,37.9-22.6,13.3-23.9,20.1c-5.5,29.1,34.7,21.8,49.3-4.1c8.1-14.4,1-63.8,1-63.8l-0.2,0.1l1.7-26.1c0,0,66.2,1,76.7,2.3
	c8.2,1,61.8-1.2,66.2-0.4c2.1,0.4,4.4,12.9,6,25.1c-0.9,7-5.8,49.6,1.1,62.8C215.9,167.4,252.9,174.7,247.8,145.6z"/>
</svg>
