<?xml version="1.0" encoding="utf-8"?>
<!-- Generator: Adobe Illustrator 26.0.1, SVG Export Plug-In . SVG Version: 6.00 Build 0)  -->
<svg version="1.1" id="Calque_1" xmlns="http://www.w3.org/2000/svg" xmlns:xlink="http://www.w3.org/1999/xlink" x="0px" y="0px"
	 viewBox="0 0 201.4 235.6" style="enable-background:new 0 0 201.4 235.6;" xml:space="preserve">
<style type="text/css">
	.st0{fill:#5E5E5E;}
	.st1{clip-path:url(#SVGID_00000160188882723610311600000007539047125354986915_);}
	.st2{fill:#7F4A2F;}
	.st3{clip-path:url(#SVGID_00000060730029036571443970000015552273033521467065_);}
	.st4{clip-path:url(#SVGID_00000173153347668587456280000010307111428967978644_);}
	.st5{fill:#573623;}
	.st6{clip-path:url(#SVGID_00000034087829412985470420000007295522280513848721_);}
	.st7{clip-path:url(#SVGID_00000162338803205350784690000017574548696766527900_);}
	.st8{fill:#FFFFFF;}
	.st9{clip-path:url(#SVGID_00000029725997917231388510000008959121983334622367_);}
	.st10{clip-path:url(#SVGID_00000052813065598085121390000005496579499621019291_);}
	.st11{fill:#090909;}
	.st12{clip-path:url(#SVGID_00000155829674500264784610000015229506622179993782_);}
	.st13{fill:#8E5736;}
	.st14{fill:#28221E;}
	.st15{fill:#59342B;}
</style>
<path class="st0" d="M71.6,163.6c0,0,0,3.2,0,2.1v-0.2C71.6,164.9,71.6,164.2,71.6,163.6z"/>
<path class="st0" d="M71.6,163.6c0,0,0,3.2,0,2.1v-0.2C71.6,164.9,71.6,164.2,71.6,163.6z"/>
<path class="st0" d="M71.6,163.6c0,0,0,3.2,0,2.1v-0.2C71.6,164.9,71.6,164.2,71.6,163.6z"/>
<path class="st0" d="M71.6,163.6c0,0,0,3.2,0,2.1v-0.2C71.6,164.9,71.6,164.2,71.6,163.6z"/>
<path class="st0" d="M71.6,163.6c0,0,0,3.2,0,2.1v-0.2C71.6,164.9,71.6,164.2,71.6,163.6z"/>
<g id="_Répétition_miroir_">
	<g>
		<g>
			<defs>
				<polygon id="SVGID_1_" points="164.2,128.9 164.2,128.9 201.4,128.9 201.4,193.6 164.2,193.6 				"/>
			</defs>
			<clipPath id="SVGID_00000072978789856360784130000007597255212477168278_">
				<use xlink:href="#SVGID_1_"  style="overflow:visible;"/>
			</clipPath>
			<g style="clip-path:url(#SVGID_00000072978789856360784130000007597255212477168278_);">
				<path class="st2" d="M164.2,189.4l8.1-49c0,0,12.8-17.9,25.7-9c8.6,5.9-0.8,56.6-9.9,60C172.4,197.3,164.2,189.4,164.2,189.4z"
					/>
			</g>
		</g>
	</g>
</g>
<g id="_Répétition_miroir_2">
	<g>
		<g>
			<defs>
				<polygon id="SVGID_00000181796076870806312660000011003027514409091489_" points="37.2,128.9 37.2,128.9 0,128.9 0,193.6 
					37.2,193.6 				"/>
			</defs>
			<clipPath id="SVGID_00000023988244702109541750000005868071650875377844_">
				<use xlink:href="#SVGID_00000181796076870806312660000011003027514409091489_"  style="overflow:visible;"/>
			</clipPath>
			<g style="clip-path:url(#SVGID_00000023988244702109541750000005868071650875377844_);">
				<path class="st2" d="M37.2,189.4l-8.1-49c0,0-12.8-17.9-25.7-9c-8.6,5.9,0.8,56.6,9.9,60C29,197.3,37.2,189.4,37.2,189.4z"/>
			</g>
		</g>
	</g>
</g>
<g>
	<g>
		<defs>
			<polygon id="SVGID_00000003788438850178692960000004196855463258696853_" points="122.6,102.5 122.6,102.5 167.6,102.5 
				167.6,116.2 122.6,116.2 			"/>
		</defs>
		<clipPath id="SVGID_00000034052724653382803020000008105703021848129183_">
			<use xlink:href="#SVGID_00000003788438850178692960000004196855463258696853_"  style="overflow:visible;"/>
		</clipPath>
		<g style="clip-path:url(#SVGID_00000034052724653382803020000008105703021848129183_);">
			<path class="st5" d="M165.4,116.2c-0.3,0-0.6-0.1-0.8-0.2c-4.5-1.9-9.1-3.4-13.8-4.5c-15.1-3.4-16.1-1-21.3,0
				c-1.5,0.3-5.2-0.6-6-1.5s-1.4-4.1-0.5-4.9c0.4-0.3,7.1-4.9,24.4-1c7.2,1.6,18.6,7.9,18.9,8c1.1,0.5,1.6,1.7,1.1,2.8
				C167.1,115.7,166.3,116.3,165.4,116.2L165.4,116.2z"/>
		</g>
	</g>
</g>
<g>
	<g>
		<defs>
			<polygon id="SVGID_00000080203508843165665910000018413064950590753709_" points="78.8,102.5 78.8,102.5 33.8,102.5 33.8,116.2 
				78.8,116.2 			"/>
		</defs>
		<clipPath id="SVGID_00000153707357302636928450000013563886597639833001_">
			<use xlink:href="#SVGID_00000080203508843165665910000018413064950590753709_"  style="overflow:visible;"/>
		</clipPath>
		<g style="clip-path:url(#SVGID_00000153707357302636928450000013563886597639833001_);">
			<path class="st5" d="M36,116.2c0.3,0,0.6-0.1,0.8-0.2c4.5-1.9,9.1-3.4,13.8-4.5c15.1-3.4,16.1-1,21.3,0c1.5,0.3,5.2-0.6,6-1.5
				s1.4-4.1,0.5-4.9c-0.4-0.3-7.1-4.9-24.4-1c-7.2,1.6-18.6,7.9-18.9,8c-1.1,0.5-1.6,1.7-1.1,2.8C34.3,115.7,35.1,116.3,36,116.2
				L36,116.2z"/>
		</g>
	</g>
</g>
<g>
	<g>
		<defs>
			<polygon id="SVGID_00000170964372094412190420000008830940108741367683_" points="132.2,129.6 132.2,129.6 161.2,129.6 
				161.2,157.5 132.2,157.5 			"/>
		</defs>
		<clipPath id="SVGID_00000044156201746450025610000011413252804984468651_">
			<use xlink:href="#SVGID_00000170964372094412190420000008830940108741367683_"  style="overflow:visible;"/>
		</clipPath>
		<g style="clip-path:url(#SVGID_00000044156201746450025610000011413252804984468651_);">
			<ellipse class="st8" cx="146.7" cy="143.6" rx="14.5" ry="13.9"/>
		</g>
	</g>
</g>
<g>
	<g>
		<defs>
			<polygon id="SVGID_00000085218435456828143480000001093934952775109565_" points="69.2,129.6 69.2,129.6 40.2,129.6 40.2,157.5 
				69.2,157.5 			"/>
		</defs>
		<clipPath id="SVGID_00000064337794710405943330000005261039752287358100_">
			<use xlink:href="#SVGID_00000085218435456828143480000001093934952775109565_"  style="overflow:visible;"/>
		</clipPath>
		<g style="clip-path:url(#SVGID_00000064337794710405943330000005261039752287358100_);">
			<ellipse class="st8" cx="54.7" cy="143.6" rx="14.5" ry="13.9"/>
		</g>
	</g>
</g>
<g>
	<g>
		<defs>
			<polygon id="SVGID_00000079451518818411859050000007029720097641867162_" points="136.9,135.9 136.9,135.9 156.3,135.9 
				156.3,155.3 136.9,155.3 			"/>
		</defs>
		<clipPath id="SVGID_00000024699224984191046180000001684972384405104258_">
			<use xlink:href="#SVGID_00000079451518818411859050000007029720097641867162_"  style="overflow:visible;"/>
		</clipPath>
		<g style="clip-path:url(#SVGID_00000024699224984191046180000001684972384405104258_);">
			<circle class="st11" cx="146.6" cy="145.6" r="9.7"/>
		</g>
	</g>
</g>
<g>
	<g>
		<defs>
			<polygon id="SVGID_00000124154378409997505310000002905582430625979579_" points="64.5,135.9 64.5,135.9 45.1,135.9 45.1,155.3 
				64.5,155.3 			"/>
		</defs>
		<clipPath id="SVGID_00000039133989597814939920000012224743475315664769_">
			<use xlink:href="#SVGID_00000124154378409997505310000002905582430625979579_"  style="overflow:visible;"/>
		</clipPath>
		<g style="clip-path:url(#SVGID_00000039133989597814939920000012224743475315664769_);">
			<circle class="st11" cx="54.8" cy="145.6" r="9.7"/>
		</g>
	</g>
</g>
<path class="st13" d="M172.7,212c0.3-0.3,0.6-0.7,0.9-1c15.9-22,1.2-44.1,3.1-57c2.3-16.1,3.2-54,3.2-54c0-45.5-31.5-74.9-76.5-75.8
	l0,0h-5.3l0,0c-45,0.9-76.5,30.3-76.5,75.8c0,0,0.9,38,3.2,54c1.8,12.9-12.8,35,3.1,57c9.2,12.7,53.8,20.1,70.4,24.3
	c0.7,0.2,1.4,0.3,2.1,0.3c0.1,0,0.3,0,0.4,0s0.3,0,0.4,0c0.7,0,1.4-0.1,2.1-0.3c13.9-3.5,52.3-13.1,68.2-22.4L172.7,212z"/>
<path class="st14" d="M92.2,48.6C64.8,37,53-2.1,82.6,0.1c7.9,0.6-24,14,43.4,25.9c24,4.3,29.7,16.5,29.7,16.5S107.5,55.1,92.2,48.6
	z"/>
<path class="st15" d="M88.4,169c-1,0.1-1.4,0.7-0.6,1c3,1.2,8.7,3.4,12.5,3.4c3.6,0,9-2.1,11.8-3.3c0.8-0.3,0.4-1-0.6-1
	c-3.4-0.2-4.8,0.6-11.6,0.6C94.1,169.7,91.8,168.8,88.4,169z"/>
</svg>
