<?xml version="1.0" encoding="utf-8"?>
<!-- Generator: Adobe Illustrator 26.0.1, SVG Export Plug-In . SVG Version: 6.00 Build 0)  -->
<svg version="1.1" id="Calque_1" xmlns="http://www.w3.org/2000/svg" xmlns:xlink="http://www.w3.org/1999/xlink" x="0px" y="0px"
	 viewBox="0 0 201.4 221.9" style="enable-background:new 0 0 201.4 221.9;" xml:space="preserve">
<style type="text/css">
	.st0{fill:#5E5E5E;}
	.st1{clip-path:url(#SVGID_00000170998684645416221230000001401701223493300147_);}
	.st2{fill:#7F4A2F;}
	.st3{clip-path:url(#SVGID_00000156545341129240147950000004953932537878662553_);}
	.st4{clip-path:url(#SVGID_00000163060831551864618330000008586138038317147789_);}
	.st5{fill:#573623;}
	.st6{clip-path:url(#SVGID_00000171714485877473192160000016723918526493968008_);}
	.st7{clip-path:url(#SVGID_00000150797302778572635610000010765543558159015615_);}
	.st8{fill:#FFFFFF;}
	.st9{clip-path:url(#SVGID_00000023976344786199128570000003872379146950221478_);}
	.st10{clip-path:url(#SVGID_00000074430704174988797390000001603750285759177138_);}
	.st11{fill:#090909;}
	.st12{clip-path:url(#SVGID_00000147931398454054738210000005782758392464274573_);}
	.st13{fill:#8E5736;}
	.st14{fill:#59342B;}
	.st15{fill:#28221E;}
</style>
<path class="st0" d="M71.6,149.9c0,0,0,3.2,0,2.1v-0.2C71.6,151.2,71.6,150.5,71.6,149.9z"/>
<path class="st0" d="M71.6,149.9c0,0,0,3.2,0,2.1v-0.2C71.6,151.2,71.6,150.5,71.6,149.9z"/>
<path class="st0" d="M71.6,149.9c0,0,0,3.2,0,2.1v-0.2C71.6,151.2,71.6,150.5,71.6,149.9z"/>
<path class="st0" d="M71.6,149.9c0,0,0,3.2,0,2.1v-0.2C71.6,151.2,71.6,150.5,71.6,149.9z"/>
<path class="st0" d="M71.6,149.9c0,0,0,3.2,0,2.1v-0.2C71.6,151.2,71.6,150.5,71.6,149.9z"/>
<g id="random">
	<g>
		<g>
			<defs>
				<polygon id="SVGID_1_" points="164.2,115.2 164.2,115.2 201.4,115.2 201.4,179.9 164.2,179.9 				"/>
			</defs>
			<clipPath id="SVGID_00000162315653633382830690000008685398255624885899_">
				<use xlink:href="#SVGID_1_"  style="overflow:visible;"/>
			</clipPath>
			<g style="clip-path:url(#SVGID_00000162315653633382830690000008685398255624885899_);">
				<path class="st2" d="M164.2,175.7l8.1-49c0,0,12.8-17.9,25.7-9c8.6,5.9-0.8,56.6-9.9,60C172.4,183.6,164.2,175.7,164.2,175.7z"
					/>
			</g>
		</g>
	</g>
</g>
<g id="random2">
	<g>
		<g>
			<defs>
				<polygon id="SVGID_00000029006615793151191300000011182516926399210649_" points="37.2,115.2 37.2,115.2 0,115.2 0,179.9 
					37.2,179.9 				"/>
			</defs>
			<clipPath id="SVGID_00000103957918372534440420000001892848795212419516_">
				<use xlink:href="#SVGID_00000029006615793151191300000011182516926399210649_"  style="overflow:visible;"/>
			</clipPath>
			<g style="clip-path:url(#SVGID_00000103957918372534440420000001892848795212419516_);">
				<path class="st2" d="M37.2,175.7l-8.1-49c0,0-12.8-17.9-25.7-9c-8.6,5.9,0.8,56.6,9.9,60C29,183.6,37.2,175.7,37.2,175.7z"/>
			</g>
		</g>
	</g>
</g>
<g>
	<g>
		<defs>
			<polygon id="SVGID_00000062187548723771173710000015529521644493278086_" points="122.6,88.8 122.6,88.8 167.6,88.8 167.6,102.5 
				122.6,102.5 			"/>
		</defs>
		<clipPath id="SVGID_00000151522314639849220080000017246566754994810549_">
			<use xlink:href="#SVGID_00000062187548723771173710000015529521644493278086_"  style="overflow:visible;"/>
		</clipPath>
		<g style="clip-path:url(#SVGID_00000151522314639849220080000017246566754994810549_);">
			<path class="st5" d="M165.4,102.5c-0.3,0-0.6-0.1-0.8-0.2c-4.5-1.9-9.1-3.4-13.8-4.5c-15.1-3.4-16.1-1-21.3,0
				c-1.5,0.3-5.2-0.6-6-1.5s-1.4-4.1-0.5-4.9c0.4-0.3,7.1-4.9,24.4-1c7.2,1.6,18.6,7.9,18.9,8c1.1,0.5,1.6,1.7,1.1,2.8
				C167.1,102,166.3,102.6,165.4,102.5L165.4,102.5z"/>
		</g>
	</g>
</g>
<g>
	<g>
		<defs>
			<polygon id="SVGID_00000120527189827029951480000002310191012573387174_" points="78.8,88.8 78.8,88.8 33.8,88.8 33.8,102.5 
				78.8,102.5 			"/>
		</defs>
		<clipPath id="SVGID_00000118381177723828196300000013486281335856502173_">
			<use xlink:href="#SVGID_00000120527189827029951480000002310191012573387174_"  style="overflow:visible;"/>
		</clipPath>
		<g style="clip-path:url(#SVGID_00000118381177723828196300000013486281335856502173_);">
			<path class="st5" d="M36,102.5c0.3,0,0.6-0.1,0.8-0.2c4.5-1.9,9.1-3.4,13.8-4.5c15.1-3.4,16.1-1,21.3,0c1.5,0.3,5.2-0.6,6-1.5
				s1.4-4.1,0.5-4.9c-0.4-0.3-7.1-4.9-24.4-1c-7.2,1.6-18.6,7.9-18.9,8c-1.1,0.5-1.6,1.7-1.1,2.8C34.3,102,35.1,102.6,36,102.5
				L36,102.5z"/>
		</g>
	</g>
</g>
<g>
	<g>
		<defs>
			<polygon id="SVGID_00000027575928636507374340000009657247699743193486_" points="132.2,115.9 132.2,115.9 161.2,115.9 
				161.2,143.8 132.2,143.8 			"/>
		</defs>
		<clipPath id="SVGID_00000040540570916446794800000018005986472767417741_">
			<use xlink:href="#SVGID_00000027575928636507374340000009657247699743193486_"  style="overflow:visible;"/>
		</clipPath>
		<g style="clip-path:url(#SVGID_00000040540570916446794800000018005986472767417741_);">
			<ellipse class="st8" cx="146.7" cy="129.9" rx="14.5" ry="13.9"/>
		</g>
	</g>
</g>
<g>
	<g>
		<defs>
			<polygon id="SVGID_00000013194825808471285140000014642444060581966769_" points="69.2,115.9 69.2,115.9 40.2,115.9 40.2,143.8 
				69.2,143.8 			"/>
		</defs>
		<clipPath id="SVGID_00000047023252295071436210000007949033540681409666_">
			<use xlink:href="#SVGID_00000013194825808471285140000014642444060581966769_"  style="overflow:visible;"/>
		</clipPath>
		<g style="clip-path:url(#SVGID_00000047023252295071436210000007949033540681409666_);">
			<ellipse class="st8" cx="54.7" cy="129.9" rx="14.5" ry="13.9"/>
		</g>
	</g>
</g>
<g>
	<g>
		<defs>
			<polygon id="SVGID_00000085951337050966866290000016352074085273498022_" points="136.9,122.2 136.9,122.2 156.3,122.2 
				156.3,141.6 136.9,141.6 			"/>
		</defs>
		<clipPath id="SVGID_00000045591698199463475680000016187499785709897916_">
			<use xlink:href="#SVGID_00000085951337050966866290000016352074085273498022_"  style="overflow:visible;"/>
		</clipPath>
		<g style="clip-path:url(#SVGID_00000045591698199463475680000016187499785709897916_);">
			<circle class="st11" cx="146.6" cy="131.9" r="9.7"/>
		</g>
	</g>
</g>
<g>
	<g>
		<defs>
			<polygon id="SVGID_00000114040033296379062220000017917475156379562628_" points="64.5,122.2 64.5,122.2 45.1,122.2 45.1,141.6 
				64.5,141.6 			"/>
		</defs>
		<clipPath id="SVGID_00000113350194361585824780000009812988376683453885_">
			<use xlink:href="#SVGID_00000114040033296379062220000017917475156379562628_"  style="overflow:visible;"/>
		</clipPath>
		<g style="clip-path:url(#SVGID_00000113350194361585824780000009812988376683453885_);">
			<circle class="st11" cx="54.8" cy="131.9" r="9.7"/>
		</g>
	</g>
</g>
<path class="st13" d="M176.6,140.3c2.3-16.1,3.2-54,3.2-54c0-45.5-31.5-74.9-76.5-75.8l0,0H98l0,0c-45,0.9-76.5,30.3-76.5,75.8
	c0,0,0.9,38,3.2,54c1.8,12.9-12.8,35,3.1,57c9.2,12.7,53.8,20.1,70.4,24.3c0.7,0.2,1.4,0.3,2.1,0.3c0.1,0,0.3,0,0.4,0s0.3,0,0.4,0
	c0.7,0,1.4-0.1,2.1-0.3c13.9-3.5,47.5-9.3,63.4-18.5c2.5-0.8,4.7-2.4,6.1-4.7c0.3-0.3,0.6-0.7,0.9-1
	C189.5,175.3,174.8,153.2,176.6,140.3z"/>
<path class="st14" d="M88.4,155.3c-1,0.1-1.4,0.7-0.6,1c3,1.2,8.7,3.4,12.5,3.4c3.6,0,9-2.1,11.8-3.3c0.8-0.3,0.4-1-0.6-1
	c-3.4-0.2-4.8,0.6-11.6,0.6C94.1,156,91.8,155.1,88.4,155.3z"/>
<path class="st15" d="M23,120.4l-2.6-2c0,0-17.8-45-18.8-63C0,23.4,40.1,2.1,80.9,0.6c14.6-0.5,39.7-1.6,58.7,1.3
	c45.4,6.9,58.9,42.3,57.4,59c-1.7,19.1-16,57.5-16,57.5l-2.6,2l-1.6-36.9l-5-11.6c0,0-11.2-20.1-10.7-20.1S139.3,57,139.3,57
	s-29.1-11.9-35-14.6c-4.2-2-17.5,6.1-17.5,6.1S75.5,38.1,68.5,38.1c-5.1,0-1.5,11.8-1.5,11.8l-31.9,2.4l-3.6,18.4l-9.4,14.7
	L23,120.4z"/>
</svg>
