<svg xmlns="http://www.w3.org/2000/svg" viewBox="0 0 588 550"><defs><style>.cls-1{fill:#b26959;}.cls-2{fill:#904c3d;}.cls-3{fill:#f5d749;stroke:#f5d749;stroke-miterlimit:10;}</style></defs><g id="Calque_3" data-name="Calque 3"><polygon points="105.5 445.33 105.6 445.29 105.5 445.24 105.5 445.33"/><polygon points="105.6 445.29 105.7 445.33 105.7 445.24 105.6 445.29"/><polygon points="105.5 445.33 105.6 445.29 105.5 445.24 105.5 445.33"/><polygon points="105.6 445.29 105.7 445.33 105.7 445.24 105.6 445.29"/><path class="cls-1" d="M136.94,146.37a.21.21,0,0,1,.09-.18c.89-.59,7.84-5.14,8-3.13s-.53,21.44-.56,22.35a.13.13,0,0,1,0,.06c-.32.86-7.53,19.89-8.58,22s-11.07,2.81-12.45,2.91a.23.23,0,0,1-.21-.14l-3-7.7,0-.06-18-23.53a.16.16,0,0,1,0-.07L91.52,125.35a.22.22,0,0,1,.12-.27l3-1.17a.22.22,0,0,1,.28.12l8.23,20a.22.22,0,0,0,.41-.15l-11-34a.21.21,0,0,1,.13-.26L97,107.88a.21.21,0,0,1,.27.11l12.61,27.22a.22.22,0,0,0,.4-.16l-9.67-28.37a.22.22,0,0,1,.13-.27l4.37-1.73a.23.23,0,0,1,.29.13l14.43,36.65a.22.22,0,0,0,.42-.05l1.41-9.87a.19.19,0,0,1,.14-.17c1.87-.64,11.18-2.08,12.41-2.27a.2.2,0,0,1,.2.09c.82,1.38,4.36,9.65,5.05,11.26a.22.22,0,0,1-.18.3l-5.43.49a.2.2,0,0,1-.2-.09l-2.21-3.25a.21.21,0,0,0-.28-.06l-4.08,2.24a.22.22,0,0,0-.11.17l-.54,5.59a.16.16,0,0,0,0,.12l6.39,12.48a.22.22,0,0,0,.32.08l3.75-2.93a.21.21,0,0,0,.09-.17Z"/><path class="cls-1" d="M336.16,219l2.25,19-21.9,78.25H220.84l-23.4-78.5,2.75-19.46L182.48,180l53.22-21.37A21.14,21.14,0,0,0,249,139V125.74h40v13a21.13,21.13,0,0,0,13.82,19.83l53.37,19.66Z"/><path class="cls-1" d="M192.88,257.92l-29.51,53.83L161,315.41a14.41,14.41,0,0,1-18.94,4.9h0a14.41,14.41,0,0,1-7-16.77l1.71-5.82s15.07-42.11,18.4-56.62c4.08-17.77,10-72.27,40.9-60.39h0C207.34,185,217.27,198,212.47,209Z"/><path class="cls-2" d="M249,125.94h39.91v11h0c-9,11.39-14.88,16.43-21.66,16.38-5.13,0-13.14-10.1-18.32-14.1l.07-2Z"/><path class="cls-1" d="M147.42,322.51h0a15.81,15.81,0,0,0,14.28-8.65,9.41,9.41,0,0,0,.83-1.61c2.11-9.33.65-28.82-.94-38.26-3.69-21.92-21.6-87.71-21.6-87.71h0a9.24,9.24,0,0,0-11.54-5l-1,.36a9.23,9.23,0,0,0-6,10.2c.13.81.23,1.54.29,2.1,1,9.87,2.86,74,4,87.25.68,7.78,5,23,8.35,30.08C135.89,315.19,142.2,322.44,147.42,322.51Z"/><path class="cls-1" d="M347.44,254.58l34.49,50.78,2.68,3.41a14.43,14.43,0,0,0,19.33,3.08h0a14.42,14.42,0,0,0,5.38-17.37l-2.26-5.63s-19-40.48-23.7-54.61c-5.75-17.3-16.82-71-46.45-56.22h0c-10.8,5.38-19.45,19.17-13.63,29.74Z"/><path class="cls-1" d="M398.07,314.27h0a16.92,16.92,0,0,1-14.93-9.86,10.19,10.19,0,0,1-.81-1.76c-1.87-10.08.53-30.88,2.63-40.91,4.89-23.31,26.86-93,26.86-93h0a9.89,9.89,0,0,1,12.57-4.9l1.07.43a9.88,9.88,0,0,1,6,11.17c-.18.86-.32,1.64-.41,2.24-1.51,10.52-6.2,79-8,93.22-1.05,8.3-6.36,24.42-10.21,31.84C410.71,306.93,403.65,314.43,398.07,314.27Z"/><path class="cls-1" d="M412.89,169.55a1.77,1.77,0,0,0-.19.67c-.11,2.29-.53,14.74,3.7,13.79l1.71-.38,37.18-9.7a1.36,1.36,0,0,0,.28-.11l40-19.34a1.55,1.55,0,0,0,.33-2.59L492,148.56a1.54,1.54,0,0,0-1.09-.37l-6.36.33a1.87,1.87,0,0,0-.51.11l-29.55,12a1.5,1.5,0,0,1-1,.07l-9.85-2.44a1.55,1.55,0,0,1-.87-2.45l12.06-16a1.56,1.56,0,0,0-.21-2.11l-3.35-3a1.56,1.56,0,0,0-2.08,0l-14.84,13.43-.23.17-14.31,8.84a1.53,1.53,0,0,0-.55.58Z"/><path class="cls-3" d="M235.76,158.09s33.84,11.92,67,0l50.73,18.32s8.87,3.15,16.14,18.22,19.54,49.75,19.54,49.75l12.52-44.81s-2-5.62.62-7.31,2.56-2.88,2.56-2.88-.75-7.94,1.06-8,3.65-1.55,24,12.1c1.89,2.81.42,5.36-.71,7.7s4.15,9,3.1,11.7-5.34,11.72-5.34,11.72,1.46,46-9.5,67.83c-6.38,12.71-3,12.09-14.14,19.64s-18.65-3.44-20.72-6.33-48.39-53.52-48.39-53.52l-17.76,63.45-95.92,1.2-17.82-61.83L161,315.41s-4.79,7.94-13.22,7.56-11.89-7.24-16.32-15.75-6-27.7-6.46-39.21-8.57-41.85-5.76-46.17,3.7-5.08,3.7-5.08-4.89-3.92-4.29-6.17,1.71-6,1.71-6-2.24-1-1.76-2.46.54-1.82.54-1.82,19.55-16.15,23.32-14.84.22,6.94,1,9,2.43,1.87,2.81,4.69,8.81,38.53,8.81,38.53l7.34-29.19s5-23.31,18.75-28.66S235.76,158.09,235.76,158.09Z"/><path class="cls-3" d="M334.45,242.82s-8.25,72.94-7.87,79.69,24.28,32.24,17.22,30.79c-2.71-.55,1.15,8.39,3.4,11.77s-.37,11.67-5.77,11.67S300.7,354,269,354.26,204,376.74,196.7,376.74s-1.5-11.67-1.5-11.67,6.5-10.88,4.25-10.5-2.54-9.38,1.54-13.5,8.59-13.71,9.71-19-9.12-70.42-9.12-70.42L268.07,221Z"/><path class="cls-3" d="M232.15,159s8.36-6.14,9.68-8.65-.47-3.37,0-4.24-.71-3.08.49-3.76S240.61,139,243,139s19.69,3.37,26.06,3.47,20.44-3.28,22.13-3.47,2.16.19,2.06,1.83-1.1,3.47,0,3,2,1.35,1.87,1.93-1.21,3.76,0,4.24,2.15,2.51,2.81,3.37a56.11,56.11,0,0,0,4.91,4.13l7.93,11.58-72.09,8.58Z"/></g></svg>