<?xml version="1.0" encoding="utf-8"?>
<!-- Generator: Adobe Illustrator 26.0.1, SVG Export Plug-In . SVG Version: 6.00 Build 0)  -->
<svg version="1.1" id="Calque_1" xmlns="http://www.w3.org/2000/svg" xmlns:xlink="http://www.w3.org/1999/xlink" x="0px" y="0px"
	 viewBox="0 0 788 1005" style="enable-background:new 0 0 788 1005;" xml:space="preserve">
<style type="text/css">
	.st0{fill:#FFFFFF;}
	.st1{fill:none;stroke:#662C34;stroke-width:2;stroke-linecap:round;stroke-miterlimit:10;}
	.st2{clip-path:url(#SVGID_00000079451472648867941380000002915798006515159722_);fill:#51281D;}
	.st3{clip-path:url(#SVGID_00000143583906950948172800000014404136283529529752_);fill:#51281D;}
	.st4{fill:none;stroke:#602F22;stroke-width:2;stroke-linecap:round;stroke-miterlimit:10;}
</style>
<circle class="st0" cx="375.5" cy="240.8" r="7.3"/>
<circle cx="375.5" cy="240.8" r="4.9"/>
<path class="st1" d="M384.7,272.9c2.5,2,5.9,3.2,9.4,3.1c3.5-0.2,6.8-1.4,9.2-3.6"/>
<g>
	<g>
		<g>
			<g>
				<g>
					<defs>
						<polygon id="SVGID_1_" points="404.5,222.8 404.5,222.8 427.9,222.8 427.9,229.9 404.5,229.9 						"/>
					</defs>
					<clipPath id="SVGID_00000096741313044636744590000014375196055802849672_">
						<use xlink:href="#SVGID_1_"  style="overflow:visible;"/>
					</clipPath>
					<path style="clip-path:url(#SVGID_00000096741313044636744590000014375196055802849672_);fill:#51281D;" d="M426.8,229.9
						c-0.1,0-0.3,0-0.4-0.1c0,0-3.6-1.5-7.2-2.3c-7.9-1.8-8.4-0.5-11.1,0c-0.8,0.2-2.7-0.3-3.1-0.8s-0.8-2.1-0.3-2.5
						c0.2-0.2,3.7-2.6,12.7-0.5c3.7,0.9,9.7,4.1,9.8,4.2c0.6,0.2,0.8,0.9,0.6,1.5C427.6,229.7,427.2,229.9,426.8,229.9z"/>
				</g>
			</g>
		</g>
	</g>
	<g>
		<g>
			<g>
				<g>
					<defs>
						<polygon id="SVGID_00000127013696880283804310000011887865053911588254_" points="381.7,222.8 381.7,222.8 358.3,222.8 
							358.3,229.9 381.7,229.9 						"/>
					</defs>
					<clipPath id="SVGID_00000011011868024065544770000008327372164696025491_">
						<use xlink:href="#SVGID_00000127013696880283804310000011887865053911588254_"  style="overflow:visible;"/>
					</clipPath>
					<path style="clip-path:url(#SVGID_00000011011868024065544770000008327372164696025491_);fill:#51281D;" d="M359.4,229.9
						c0.1,0,0.3,0,0.4-0.1c0,0,3.6-1.5,7.2-2.3c7.9-1.8,8.4-0.5,11.1,0c0.8,0.2,2.7-0.3,3.1-0.8s0.8-2.1,0.3-2.5
						c-0.2-0.2-3.7-2.6-12.7-0.5c-3.7,0.9-9.7,4.1-9.8,4.2c-0.6,0.2-0.8,0.9-0.6,1.5C358.6,229.7,359,229.9,359.4,229.9z"/>
				</g>
			</g>
		</g>
	</g>
</g>
<path class="st4" d="M386.8,260.5c0,0,5.4,2.9,7,2.9c1.7,0,7-3.5,7-3.5"/>
<circle class="st0" cx="410.6" cy="240.8" r="7.3"/>
<circle cx="410.6" cy="240.8" r="4.9"/>
</svg>
