<?xml version="1.0" encoding="utf-8"?>
<!-- Generator: Adobe Illustrator 25.4.1, SVG Export Plug-In . SVG Version: 6.00 Build 0)  -->
<svg version="1.1" id="Calque_1" xmlns="http://www.w3.org/2000/svg" xmlns:xlink="http://www.w3.org/1999/xlink" x="0px" y="0px"
	 viewBox="0 0 788 1005" style="enable-background:new 0 0 788 1005;" xml:space="preserve">
<style type="text/css">
	.st0{fill:#FFFFFF;}
	.st1{fill:none;stroke:#662C34;stroke-width:2;stroke-linecap:round;stroke-miterlimit:10;}
	.st2{clip-path:url(#SVGID_00000159436467468155144680000000343971762997400253_);fill:#51281D;}
	.st3{clip-path:url(#SVGID_00000166652295620789167360000016839163816550703543_);fill:#51281D;}
	.st4{fill:none;stroke:#602F22;stroke-width:2;stroke-linecap:round;stroke-miterlimit:10;}
</style>
<circle class="st0" cx="375.5" cy="245.6" r="5.9"/>
<circle cx="375.7" cy="245.6" r="4"/>
<path class="st1" d="M384.7,279.5c2.5,2.1,5.9,3.3,9.4,3.2c3.5-0.2,6.8-1.5,9.2-3.7"/>
<circle class="st0" cx="410.3" cy="245.6" r="5.9"/>
<circle cx="410.8" cy="245.6" r="4"/>
<g>
	<g>
		<g>
			<g>
				<defs>
					<polygon id="SVGID_1_" points="404.5,222 404.5,222 427.9,222 427.9,229.1 404.5,229.1 					"/>
				</defs>
				<clipPath id="SVGID_00000031207801355435521740000008521692289716816777_">
					<use xlink:href="#SVGID_1_"  style="overflow:visible;"/>
				</clipPath>
				<path style="clip-path:url(#SVGID_00000031207801355435521740000008521692289716816777_);fill:#51281D;" d="M426.8,229.1
					c-0.1,0-0.3,0-0.4-0.1c0,0-3.6-1.5-7.2-2.3c-7.9-1.8-8.4-0.5-11.1,0c-0.8,0.2-2.7-0.3-3.1-0.8s-0.8-2.1-0.3-2.5
					c0.2-0.2,3.7-2.6,12.7-0.5c3.7,0.9,9.7,4.1,9.8,4.2c0.6,0.2,0.8,0.9,0.6,1.5C427.6,228.9,427.2,229.1,426.8,229.1z"/>
			</g>
		</g>
	</g>
	<g>
		<g>
			<g>
				<defs>
					<polygon id="SVGID_00000150078053696593039290000008363178327867816852_" points="381.7,222 381.7,222 358.3,222 358.3,229.1 
						381.7,229.1 					"/>
				</defs>
				<clipPath id="SVGID_00000063617289299334825690000017231275200083414406_">
					<use xlink:href="#SVGID_00000150078053696593039290000008363178327867816852_"  style="overflow:visible;"/>
				</clipPath>
				<path style="clip-path:url(#SVGID_00000063617289299334825690000017231275200083414406_);fill:#51281D;" d="M359.4,229.1
					c0.1,0,0.3,0,0.4-0.1c0,0,3.6-1.5,7.2-2.3c7.9-1.8,8.4-0.5,11.1,0c0.8,0.2,2.7-0.3,3.1-0.8s0.8-2.1,0.3-2.5
					c-0.2-0.2-3.7-2.6-12.7-0.5c-3.7,0.9-9.7,4.1-9.8,4.2c-0.6,0.2-0.8,0.9-0.6,1.5C358.6,228.9,359,229.1,359.4,229.1z"/>
			</g>
		</g>
	</g>
</g>
<path class="st4" d="M386.8,262.3c0,0,5.4,1.4,7,1.4c1.7,0,7-1.7,7-1.7"/>
</svg>
