<?xml version="1.0" encoding="utf-8"?>
<!-- Generator: Adobe Illustrator 25.4.1, SVG Export Plug-In . SVG Version: 6.00 Build 0)  -->
<svg version="1.1" id="Calque_1" xmlns="http://www.w3.org/2000/svg" xmlns:xlink="http://www.w3.org/1999/xlink" x="0px" y="0px"
	 viewBox="0 0 200 200" style="enable-background:new 0 0 200 200;" xml:space="preserve">
<style type="text/css">
	.st0{fill:#FFFFFF;}
	.st1{fill:none;stroke:#000000;stroke-width:2;stroke-linecap:round;stroke-miterlimit:10;}
	.st2{fill:#844F3D;}
	.st3{fill:none;stroke:#662C34;stroke-width:2;stroke-linecap:round;stroke-miterlimit:10;}
</style>
<g id="Calque_10">
	<circle class="st0" cx="82.5" cy="88" r="5.3"/>
	<circle cx="82.5" cy="88" r="4"/>
	<path class="st1" d="M91,75.4c-6.1-4.9-14.8-4.3-20.2,1.4"/>
	<path class="st2" d="M107.2,107.5c0,0-4.7,3.7-7.4,3.7c-2.6,0-7-3.6-7-3.6s5.4,0.7,7.2,0.7S107.2,107.5,107.2,107.5z"/>
	<path class="st3" d="M86.6,122.3c3.6,3.6,8.5,5.6,13.6,5.5c5.1-0.3,9.9-2.6,13.3-6.5"/>
	<circle class="st0" cx="117.5" cy="88" r="5.3"/>
	<circle cx="117.5" cy="88" r="4"/>
	<path class="st1" d="M109,75.4c6.1-4.9,14.8-4.3,20.2,1.4"/>
</g>
</svg>
