<?xml version="1.0" encoding="utf-8"?>
<!-- Generator: Adobe Illustrator 25.4.1, SVG Export Plug-In . SVG Version: 6.00 Build 0)  -->
<svg version="1.1" id="Calque_1" xmlns="http://www.w3.org/2000/svg" xmlns:xlink="http://www.w3.org/1999/xlink" x="0px" y="0px"
	 viewBox="0 0 788 1005" style="enable-background:new 0 0 788 1005;" xml:space="preserve">
<style type="text/css">
	.st0{fill:#FFFFFF;}
	.st1{fill:#080808;stroke:#000000;stroke-miterlimit:10;}
	.st2{fill:#66183F;}
	.st3{fill:#51281D;}
	.st4{fill:none;stroke:#602F22;stroke-width:2;stroke-linecap:round;stroke-miterlimit:10;}
</style>
<circle class="st0" cx="411.9" cy="244" r="6.8"/>
<circle class="st0" cx="377.1" cy="244" r="6.8"/>
<circle class="st1" cx="379.2" cy="244.1" r="4"/>
<circle class="st1" cx="414.1" cy="244.1" r="4"/>
<ellipse class="st2" cx="394" cy="285.7" rx="2.9" ry="4.5"/>
<path class="st3" d="M364.1,233.4c0.1,0,0.3,0,0.4,0c0,0,4.4-3.8,8-3.6c8.2,0.5,8,3.4,10.7,4.2c0.8,0.2,2.7-0.1,3.2-0.5
	c0.4-0.4,1-2.1,0.5-2.5c-0.2-0.2-6.9-5.5-16.1-4.4c-3.8,0.5-6.8,4.6-7,4.7c-0.6,0.2-0.9,0.8-0.7,1.4
	C363.3,233.1,363.7,233.4,364.1,233.4z"/>
<path class="st3" d="M426.4,232.7c-0.1,0-0.3,0-0.4,0c0,0-4.4-3.8-8-3.6c-8.2,0.5-8,3.4-10.7,4.2c-0.8,0.2-2.7-0.1-3.2-0.5
	c-0.4-0.4-1-2.1-0.5-2.5c0.2-0.2,6.9-5.5,16.1-4.4c3.8,0.5,6.8,4.6,7,4.7c0.6,0.2,0.9,0.8,0.7,1.4
	C427.2,232.4,426.8,232.7,426.4,232.7z"/>
<path class="st4" d="M387,262.3c0,0,5.4,1.4,7,1.4c1.7,0,7-1.7,7-1.7"/>
</svg>
