<?xml version="1.0" encoding="utf-8"?>
<!-- Generator: Adobe Illustrator 26.0.1, SVG Export Plug-In . SVG Version: 6.00 Build 0)  -->
<svg version="1.1" id="Calque_1" xmlns="http://www.w3.org/2000/svg" xmlns:xlink="http://www.w3.org/1999/xlink" x="0px" y="0px"
	 viewBox="0 0 788 1005" style="enable-background:new 0 0 788 1005;" xml:space="preserve">
<style type="text/css">
	.st0{fill:#90573A;}
	.st1{fill:#261E1A;}
	.st2{fill:#FFFFFF;}
	.st3{fill:none;stroke:#662C34;stroke-width:2;stroke-linecap:round;stroke-miterlimit:10;}
	.st4{clip-path:url(#SVGID_00000133492710059774874560000010741145926193068191_);fill:#51281D;}
	.st5{clip-path:url(#SVGID_00000090258633253024709280000016645214729436099216_);fill:#51281D;}
	.st6{fill:none;stroke:#602F22;stroke-width:2;stroke-linecap:round;stroke-miterlimit:10;}
</style>
<g>
	<path class="st0" d="M438.2,223.4c0,46-25.3,79-43.3,79c-16.9,0-43.3-33-43.3-79c0-34.4,19.4-45.6,43.3-45.6
		C418.8,177.8,438.2,189,438.2,223.4z"/>
	<path class="st0" d="M428.2,265.9l8.1-24.5c0,0,7.9-8.1,13.6-2.5c3.8,3.8-5.1,29-10,30C431.7,270.7,428.2,265.9,428.2,265.9z"/>
	<path class="st0" d="M359.8,265.9l-5.1-22.5c0,0-10.9-10.2-16.6-4.5c-3.8,3.8,5.1,29,10,30C356.3,270.7,359.8,265.9,359.8,265.9z"
		/>
	<path class="st1" d="M353,242.5c-2-3.4-12.6-51.7,24.5-63.5s53.2,13.5,53.2,13.5s14.7,19.7,6.8,49.4c0,0-1.9-15.9-7.2-28.1
		s-2-14.6-1.9-15.6s-34.6-3.4-34.6-3.4s-30.9-0.7-30.3,0.7C365.4,199.7,353,242.5,353,242.5z"/>
</g>
<g>
	<circle class="st2" cx="372.3" cy="241.4" r="6.1"/>
	<circle cx="372.3" cy="241.4" r="4.1"/>
</g>
<path class="st3" d="M380.1,274.6c3.6,2,8.5,3.2,13.6,3.1c5.1-0.2,9.8-1.4,13.3-3.6"/>
<g>
	<g>
		<g>
			<g>
				<g>
					<defs>
						<polygon id="SVGID_1_" points="404.5,221.3 404.5,221.3 427.9,221.3 427.9,228.4 404.5,228.4 						"/>
					</defs>
					<clipPath id="SVGID_00000016051199336111650720000007260981797071019916_">
						<use xlink:href="#SVGID_1_"  style="overflow:visible;"/>
					</clipPath>
					<path style="clip-path:url(#SVGID_00000016051199336111650720000007260981797071019916_);fill:#51281D;" d="M426.8,228.4
						c-0.1,0-0.3,0-0.4-0.1c0,0-3.6-1.5-7.2-2.3c-7.9-1.8-8.4-0.5-11.1,0c-0.8,0.2-2.7-0.3-3.1-0.8s-0.8-2.1-0.3-2.5
						c0.2-0.2,3.7-2.6,12.7-0.5c3.7,0.9,9.7,4.1,9.8,4.2c0.6,0.2,0.8,0.9,0.6,1.5C427.6,228.2,427.2,228.4,426.8,228.4z"/>
				</g>
			</g>
		</g>
	</g>
	<g>
		<g>
			<g>
				<g>
					<defs>
						<polygon id="SVGID_00000146494951811067286700000009012428145467519630_" points="381.7,221.3 381.7,221.3 358.3,221.3 
							358.3,228.4 381.7,228.4 						"/>
					</defs>
					<clipPath id="SVGID_00000105395547231479591930000005858214704515632568_">
						<use xlink:href="#SVGID_00000146494951811067286700000009012428145467519630_"  style="overflow:visible;"/>
					</clipPath>
					<path style="clip-path:url(#SVGID_00000105395547231479591930000005858214704515632568_);fill:#51281D;" d="M359.4,228.4
						c0.1,0,0.3,0,0.4-0.1c0,0,3.6-1.5,7.2-2.3c7.9-1.8,8.4-0.5,11.1,0c0.8,0.2,2.7-0.3,3.1-0.8s0.8-2.1,0.3-2.5
						c-0.2-0.2-3.7-2.6-12.7-0.5c-3.7,0.9-9.7,4.1-9.8,4.2c-0.6,0.2-0.8,0.9-0.6,1.5C358.6,228.2,359,228.4,359.4,228.4z"/>
				</g>
			</g>
		</g>
	</g>
</g>
<path class="st6" d="M386.5,262.2c0,0,5.4,2.9,7,2.9c1.7,0,7-3.5,7-3.5"/>
<g>
	<circle class="st2" cx="413.1" cy="241.4" r="6.1"/>
	<circle cx="413.1" cy="241.4" r="4.1"/>
</g>
</svg>
