<?xml version="1.0" encoding="utf-8"?>
<!-- Generator: Adobe Illustrator 25.4.1, SVG Export Plug-In . SVG Version: 6.00 Build 0)  -->
<svg version="1.1" id="Calque_1" xmlns="http://www.w3.org/2000/svg" xmlns:xlink="http://www.w3.org/1999/xlink" x="0px" y="0px"
	 viewBox="0 0 788 1005" style="enable-background:new 0 0 788 1005;" xml:space="preserve">
<style type="text/css">
	.st0{fill:#FFFFFF;}
	.st1{fill:none;stroke:#662C34;stroke-width:2;stroke-linecap:round;stroke-miterlimit:10;}
	.st2{fill:#020202;}
	.st3{fill:#51281D;}
	.st4{fill:none;stroke:#602F22;stroke-width:2;stroke-linecap:round;stroke-miterlimit:10;}
</style>
<circle class="st0" cx="375.7" cy="246" r="5.3"/>
<circle cx="375.7" cy="246" r="4"/>
<path class="st1" d="M384.3,280.2c2.6,1.6,6.1,2.5,9.8,2.4c3.7-0.1,7.1-1.1,9.6-2.8"/>
<path class="st2" d="M419.9,246.5c-0.6,1-1.9,1.3-2.9,0.6c-1.8-1.1-6.9-1.2-8.9-0.6c-2.7,0.9-5.8,2.1-6.6,0.4
	c-0.1-0.3,1.5-3.3,6.8-3.7S417.4,246.1,419.9,246.5L419.9,246.5z"/>
<path class="st3" d="M423.9,241.6c-0.1,0-0.3-0.1-0.4-0.1c0,0-3.4-2-6.8-3.2c-7.6-2.7-8.2-1.6-11-1.4c-0.8,0.1-2.6-0.6-3-1.2
	c-0.3-0.5-0.5-2.2,0-2.6c0.2-0.1,4-2.1,12.7,1c3.6,1.3,9.1,5.2,9.2,5.3c0.5,0.3,0.7,1,0.4,1.5C424.8,241.4,424.4,241.6,423.9,241.6z
	"/>
<path class="st3" d="M363.1,233.5c0.1,0,0.3,0,0.4,0c0,0,3.8-1.2,7.4-1.6c8-1,8.4,0.3,11,1.1c0.8,0.2,2.7-0.1,3.2-0.5
	c0.4-0.4,1-2.1,0.5-2.5c-0.2-0.2-3.4-2.9-12.6-1.8c-3.8,0.5-10,3.1-10.2,3.2c-0.6,0.2-0.9,0.8-0.7,1.4
	C362.3,233.1,362.7,233.4,363.1,233.5z"/>
<path class="st4" d="M386.8,262.3c0,0,5.4,1.4,7,1.4c1.7,0,7-1.7,7-1.7"/>
</svg>
