<?xml version="1.0" encoding="utf-8"?>
<!-- Generator: Adobe Illustrator 26.0.1, SVG Export Plug-In . SVG Version: 6.00 Build 0)  -->
<svg version="1.1" id="Calque_1" xmlns="http://www.w3.org/2000/svg" xmlns:xlink="http://www.w3.org/1999/xlink" x="0px" y="0px"
	 viewBox="0 0 788 1005" style="enable-background:new 0 0 788 1005;" xml:space="preserve">
<style type="text/css">
	.st0{fill:none;stroke:#6B3457;stroke-width:2;stroke-linecap:round;stroke-miterlimit:10;}
	.st1{fill:#020202;}
	.st2{fill:#51281D;}
	.st3{fill:#502F21;}
</style>
<g id="Calque_10">
	<path class="st0" d="M382.7,278c3,1.8,7,2.8,11.3,2.8c4.2-0.1,8.2-1.3,11-3.2"/>
	<path class="st1" d="M421.8,242.8c-0.6,1-1.9,1.3-2.9,0.6c-1.8-1.1-6.9-1.2-8.9-0.6c-2.7,0.9-5.8,2.1-6.6,0.4
		c-0.1-0.3,1.5-3.3,6.8-3.7S419.3,242.4,421.8,242.8L421.8,242.8z"/>
	<path class="st1" d="M365.6,242.8c0.6,1,1.9,1.3,2.9,0.6c1.8-1.1,6.9-1.2,8.9-0.6c2.7,0.9,5.8,2.1,6.6,0.4c0.1-0.3-1.5-3.3-6.8-3.7
		S368,242.4,365.6,242.8L365.6,242.8z"/>
	<path class="st2" d="M364.2,233.8c0.1,0,0.3-0.1,0.4-0.1c0,0,3.6-4.5,7.2-5c8.1-1,8.5,1.9,11.3,2.2c0.8,0.1,2.7-0.5,3-1
		c0.4-0.5,0.6-2.2,0.1-2.6c-0.2-0.2-7.8-4.2-16.6-1.4c-3.7,1.2-5.9,5.8-6,5.8c-0.5,0.3-0.8,1-0.5,1.5
		C363.4,233.6,363.8,233.8,364.2,233.8z"/>
	<path class="st2" d="M423.9,234.1c-0.1,0-0.3-0.1-0.4-0.1c0,0-3.4-4.7-6.9-5.4c-8-1.5-8.6,1.4-11.4,1.6c-0.8,0-2.6-0.7-3-1.2
		c-0.3-0.5-0.4-2.2,0.1-2.6c0.2-0.1,8-3.8,16.6-0.5c3.6,1.4,5.5,6.1,5.7,6.2c0.5,0.3,0.7,1,0.4,1.5
		C424.8,234,424.4,234.2,423.9,234.1z"/>
</g>
<path class="st3" d="M401.2,260.6c0,0-4.7,3.7-7.4,3.7c-2.6,0-7-3.6-7-3.6s5.4,0.7,7.2,0.7S401.2,260.6,401.2,260.6z"/>
</svg>
