<?xml version="1.0" encoding="utf-8"?>
<!-- Generator: Adobe Illustrator 25.4.1, SVG Export Plug-In . SVG Version: 6.00 Build 0)  -->
<svg version="1.1" id="Calque_1" xmlns="http://www.w3.org/2000/svg" xmlns:xlink="http://www.w3.org/1999/xlink" x="0px" y="0px"
	 viewBox="0 0 200 200" style="enable-background:new 0 0 200 200;" xml:space="preserve">
<style type="text/css">
	.st0{fill:#FFFFFF;}
	.st1{clip-path:url(#SVGID_00000021093035822680389240000002546798142053692340_);}
	.st2{fill:none;stroke:#000000;stroke-width:2;stroke-linecap:round;stroke-miterlimit:10;}
	.st3{clip-path:url(#SVGID_00000025430205879786150590000003702314417559401611_);}
	.st4{fill:#844F3D;}
	.st5{fill:#66494D;}
	.st6{fill:#BFBFBF;}
</style>
<g id="Calque_10">
	<circle class="st0" cx="81.6" cy="86.1" r="6.8"/>
	<circle class="st0" cx="117.8" cy="86.1" r="6.8"/>
	<circle cx="79.2" cy="84.4" r="3.3"/>
	<circle cx="115.6" cy="84.4" r="3.3"/>
	<g>
		<g>
			<defs>
				<rect id="SVGID_1_" x="68.4" y="66.6" width="23.2" height="7"/>
			</defs>
			<clipPath id="SVGID_00000058568828863839439120000006811479769141087162_">
				<use xlink:href="#SVGID_1_"  style="overflow:visible;"/>
			</clipPath>
			<g style="clip-path:url(#SVGID_00000058568828863839439120000006811479769141087162_);">
				<path class="st2" d="M90.6,72.5c-2.9-2.3-8.2-5.8-14.3-4.7c-5.3,1-6.8,4.6-6.8,4.6"/>
			</g>
		</g>
	</g>
	<g>
		<g>
			<defs>
				<rect id="SVGID_00000050662318270496675400000014619831032007958188_" x="108.4" y="66.6" width="23.1" height="7"/>
			</defs>
			<clipPath id="SVGID_00000108996880708628235820000010824491842523265156_">
				<use xlink:href="#SVGID_00000050662318270496675400000014619831032007958188_"  style="overflow:visible;"/>
			</clipPath>
			<g style="clip-path:url(#SVGID_00000108996880708628235820000010824491842523265156_);">
				<path class="st2" d="M109.4,72.5c2.9-2.3,8.2-5.8,14.3-4.7c5.3,1,6.8,4.6,6.8,4.6"/>
			</g>
		</g>
	</g>
	<path class="st4" d="M106.9,106.6c0,0-4.7,3.7-7.4,3.7c-2.6,0-7-3.6-7-3.6s5.4,0.7,7.2,0.7C101.4,107.4,106.9,106.6,106.9,106.6z"
		/>
	<path class="st5" d="M83.9,121c0.3-0.6,1.4-1.6,3.5-2.5c3.4-1.3,6.9-2.1,10.6-2.1c5.9-0.1,11.6,2.1,15.9,6.1
		c0,0-4.6,11.7-15.8,10.9C89.9,132.7,83.9,121,83.9,121z"/>
	<path class="st6" d="M98.4,121.4l-8.3-0.4l-2.2-0.9c3.6-1.5,7.5-2.1,11.4-2c6.7,0.4,10.3,2.9,10.3,2.9l-1.7,0.8L98.4,121.4z"/>
</g>
</svg>
