<svg id="Calque_9" data-name="Calque 9" xmlns="http://www.w3.org/2000/svg" viewBox="0 0 588 323.34"><defs><style>.cls-1{fill:#401d26;}.cls-2{fill:#d68f72;}.cls-3{fill:#ad6542;}.cls-4{fill:#427887;}</style></defs><path class="cls-1" d="M348.54,74.49a46.86,46.86,0,0,1-17.42,9.65c-21.27,6.35-42.76-3.35-59.09-23.22l.87-25.67.69-20.18,18.32-.81h2.18l18.32.81.68,20.18L314,63C319.23,70.39,334.76,71.26,348.54,74.49Z"/><path class="cls-2" d="M381,119.53c-4,12.61-29.65-8.48-38.89-.58-10.91,9.34,6.57,44.4,5,53.73-1,6.25-9.85,22.2-13.7,21.32-10.84-2.5-16.92-20.87-26.68-26.22-5.74-3.14-8.24-6.09-13.72-2.51-5.48-3.58-8-.63-13.73,2.51-9.75,5.35-15.84,23.72-26.68,26.22-3.85.88-12.67-15.07-13.7-21.32-1.53-9.33,2.52-27.52-8.4-36.86-9.24-7.9-21.44-3.68-25.45-16.29-7-22,13.45-38.49,23.4-42.34C243.61,71.31,265.58,72.09,272,63l.07-2,.87-25.67.69-20.18,18.32-.81h2.18l18.32.81.68,20.18L314,63c5.19,7.44,20.72,8.31,34.5,11.54a69.26,69.26,0,0,1,9,2.7C367.51,81,388,97.55,381,119.53Z"/><path class="cls-3" d="M272,63s32.32,11.72,41.72-10.49l-1.27-37.39H273.59Z"/><path class="cls-2" d="M257.38,98.67c-4.3,21.54-18,24.69-25.91,30.89-12.62,9.84-29.26,38.17-39.71,50.2-4.93,5.67-18.47,17-27.07,9.21l-3.84-2.51c-10.65-10.55.89-21.36,5.12-27.28,8.62-12,28.34-34.49,34.89-47.79,4.89-9.9,7.65-20.68,23.11-29.77,0,0,15.3-10.16,26.26-3,7,4.6,8.93,11.19,7.15,20.06Z"/><path class="cls-2" d="M182.54,187.25c9.87-13.63,2.2-17.67-.77-23.22-3.2-6-46.59-56-58-69.92-6.47-7.84-9.7-12.18-14.7-8.79-4.55,3.09-.6,12.75.92,16.55,3.34,8.41,44.22,75.8,48,81.74C165.94,196,179.59,191.33,182.54,187.25Z"/><path class="cls-2" d="M98.83,62.5c-8.25-2.59-20-7.33-20-7.33s7.75,7.42,9.24,9.36c1.21,1.58,3.12,4.77,3.12,4.77L95,76.93c-5.48.85-7.54,2-14.1,2.47-5.05.39-16.44-2.57-21.24-4.68C57,73.58,52.75,68.84,50,68.44c-2-.29-7.12,2.84-7.12,2.84L54,81.53s19.56,9.79,26.31,12.41c7.21,2.79,22.3,6.84,29.83,7,2.43,0,7.21.07,9.94-4.22,2.36-3.69.42-8-1-10.6C116.91,82,99.19,62.61,98.83,62.5Z"/><path class="cls-2" d="M333.05,100.2c4.3,21.53,18,24.68,25.91,30.88,12.62,9.85,29.26,38.17,39.71,50.2,4.93,5.67,18.47,17,27.07,9.22h0c10.65-10.56,2.95-23.88-1.28-29.79-8.62-12-28.34-34.49-34.89-47.79-4.89-9.91-7.65-20.68-23.11-29.78,0,0-15.3-10.15-26.26-3-7,4.59-8.93,11.18-7.15,20.06Z"/><path class="cls-2" d="M426.45,180.45c-3.9-14.54-15.19-11.82-21.43-11-6.72.91-68.8,24.07-85.8,29.95-9.6,3.32-14.79,4.83-13.37,10.71,1.31,5.34,11.74,5,15.83,4.92,38.52-.85,67.55-3.41,93.38-16.45C432,190,427.45,184.16,426.45,180.45Z"/><path class="cls-2" d="M279.39,199.63c-7.6,4.14-19.14,9.25-19.14,9.25s5.85,4.63,8.28,4.91c2,.22,10.47-4,10.47-4l15.1,2.62c-3.2,4.53-10.84,6.79-15,11.86-3.23,3.9-13.27,10-18.12,12-2.64,1.08-9,.86-11.23,2.57-1.57,1.22-2.9,7.09-2.9,7.09l15.09-.87s20.64-7.26,27.21-10.3c7-3.25,20.41-11.28,25.75-16.6,1.72-1.71,5.05-5.14,3.87-10.09-1-4.25-5.44-5.83-8.31-6.65C306,200.19,279.72,199.45,279.39,199.63Z"/><path class="cls-4" d="M270,269.17c-1.65,0-38.77,9.91-40.52,0s6.13-127,1-133.35c0,0-18.44,16.28-18,15.63s-20.7-25.81-20.7-25.81,13.43-37.55,28.62-46.75,42.65-10.11,42.65-10.11,34.41,20,57.8-.79c0,0,28.56,2.94,45.8,11.9s22.85,27.45,22.85,27.45,4,12.44,4,12.41-26.55,24.58-26.82,22.6-16.41-9.41-16.43-9.49,4.6,80.52,3.61,97.35,3,21.46-8.26,27.07S283.19,268.84,270,269.17Z"/></svg>