<svg id="Calque_9" data-name="Calque 9" xmlns="http://www.w3.org/2000/svg" viewBox="0 0 588 323.34"><defs><style>.cls-1{fill:#d68f72;}.cls-2{fill:#ad6542;}.cls-3{fill:#72615b;}</style></defs><path class="cls-1" d="M253.38,98.32c-4.3,21.54-18,24.69-25.91,30.89-12.61,9.84-29.26,38.17-39.71,50.2-4.93,5.67-18.47,17-27.07,9.21h0c-10.65-10.56-2.95-23.87,1.29-29.79,8.61-12,28.33-34.48,34.89-47.78,4.88-9.91,7.64-20.68,23.1-29.78,0,0,15.3-10.15,26.26-3,7,4.59,8.93,11.18,7.15,20Z"/><path class="cls-1" d="M330.79,98.32c4.3,21.54,18,24.69,25.91,30.89,12.62,9.84,29.26,38.17,39.71,50.2,4.93,5.67,18.47,17,27.07,9.21h0c10.66-10.56,2.95-23.87-1.28-29.79-8.62-12-28.34-34.48-34.89-47.78-4.88-9.91-7.65-20.68-23.11-29.78,0,0-15.3-10.15-26.26-3-7,4.59-8.93,11.18-7.15,20Z"/><path class="cls-1" d="M406.21,174.39c3.39-14.67,14.77-12.34,21-11.72,6.75.67,69.61,21.63,86.8,26.9,9.71,3,15,4.31,13.74,10.23-1.11,5.39-11.57,5.95-15.65,5.48-44.11-5.12-54.62-6.7-93.89-13.14C399.5,189.06,405.34,178.14,406.21,174.39Z"/><path class="cls-1" d="M515.75,190s9-8.36,11.13-9.09,12.55-4.08,14-5,9.44-8.31,10.09-7.19c.27.44.74,1.44,1.21,2.49a5.61,5.61,0,0,1-.84,5.92l-1.73,2a13.5,13.5,0,0,1-4.68,3.56L538,186l16.1,3.86,20.87.88a3.19,3.19,0,0,1,3,2.7h0a3.18,3.18,0,0,1-3.12,3.67l-22.69.16,25.36,6.59a3.52,3.52,0,0,1,2.53,4.29h0a3.52,3.52,0,0,1-4.3,2.53l-27.14-7,24.42,11.1a3.48,3.48,0,0,1,1.64,4.79h0a3.48,3.48,0,0,1-4.43,1.6l-23.33-9.71,13.18,10a3.38,3.38,0,0,1,.42,5h0a3.39,3.39,0,0,1-4.19.59l-15.79-9.34L517,209.94l-5.13-5.1Z"/><path class="cls-1" d="M179.82,174.3c-3.39-14.67-14.76-12.35-21-11.72-6.76.67-69.61,21.63-86.81,26.9-9.71,3-15,4.31-13.74,10.23,1.12,5.38,11.58,5.95,15.65,5.47,44.12-5.11,54.62-6.69,93.9-13.14C186.54,189,180.69,178.05,179.82,174.3Z"/><path class="cls-1" d="M69.44,190s-9-8.36-11.13-9.09-12.55-4.08-14-5-9.44-8.31-10.1-7.19c-.26.44-.73,1.44-1.2,2.49a5.61,5.61,0,0,0,.83,5.92l1.73,2a13.45,13.45,0,0,0,4.69,3.56l7,3.19-16.09,3.86-20.88.88a3.19,3.19,0,0,0-3,2.7h0a3.19,3.19,0,0,0,3.12,3.67l22.69.16L7.65,203.83a3.53,3.53,0,0,0-2.53,4.29h0a3.53,3.53,0,0,0,4.3,2.53l27.14-7-24.41,11.1a3.49,3.49,0,0,0-1.65,4.79h0a3.48,3.48,0,0,0,4.43,1.6l23.34-9.71-13.19,10a3.39,3.39,0,0,0-.42,5h0a3.4,3.4,0,0,0,4.2.59l15.78-9.34,23.52-7.71,5.13-5.1Z"/><path class="cls-1" d="M294,164.84c-5.48-3.57-8-.63-13.73,2.52-9.75,5.34-15.83,23.72-26.67,26.21-3.85.89-12.68-15.07-13.71-21.32-1.53-9.32,2.52-27.51-8.39-36.85-9.24-7.91-21.45-3.68-25.46-16.3-7-22,13.45-38.48,23.4-42.34,15.17-5.88,37.14-5.1,43.52-14.23l.94-27.7.69-20.19,18.32-.81h2.18l18.32.81.69,20.19.94,27.7c6.38,9.13,28.35,8.35,43.52,14.23C368.51,80.62,389,97.13,382,119.1c-4,12.62-16.22,8.39-25.46,16.3-10.91,9.34-6.86,27.53-8.39,36.85-1,6.25-9.86,22.21-13.71,21.32-10.84-2.49-16.92-20.87-26.67-26.21-5.74-3.15-8.25-6.09-13.73-2.52"/><path class="cls-2" d="M273.51,62.84S305.28,74.24,314.68,52l-1.27-37.39H274.59Z"/><path class="cls-3" d="M506,177.68s-3.4,47-4.05,49.78-93.81-29.4-93.81-29.4l-45.59-63.34,7,136.51a20.92,20.92,0,0,1-20,27l-107.84-.06a24.44,24.44,0,0,1-23.91-29.56l4.88-128.72s-37.12,52-41.3,52.62S91.12,221.9,91.12,221.9l-7.05-12.64-2.45-29.93,77.17-16.75s50.53-85.05,52.51-82.7,34.25-10,34.25-10h1.58s9.47,5.8,19.92,12c7.56,4.47,15.64,9.11,21,11.86l42.13-26.74,21.34,6.44,27.14,6.52,50.23,74Z"/><path class="cls-3" d="M267.05,81.8c-10.45-6.16-19.92-12-19.92-12C250.8,69.84,259.18,75.64,267.05,81.8Z"/></svg>