<svg xmlns="http://www.w3.org/2000/svg" viewBox="0 0 788 1005"><defs><style>.cls-1{fill:#ed9170;}.cls-2{fill:#6f412a;}.cls-3{fill:#4c2a33;}.cls-4{fill:#2d2321;}.cls-5{fill:#7c8e7b;}.cls-6{fill:#4e6566;}.cls-7{fill:#c16548;}.cls-8{fill:#c7dddd;}</style></defs><g id="Calque_10" data-name="Calque 10"><path class="cls-1" d="M421.29,338.76c0,19.81,12.91,25.22,19.54,32.21,10.53,11.1,21.41,39.27,29.38,51.89,3.75,5.94,14.9,18.53,24.91,13.32h0c12.58-7.26,5.58-23.33,2.55-29.36-6.15-12.26-26.59-65.68-40.07-76.67,0,0-13.12-11.9-25.33-7.7-7.85,2.7-11,8.15-11,16.31Z"/><path class="cls-1" d="M394.32,418.12c-5.48-3.57-8-.62-13.72,2.52-9.75,5.35-15.84,23.72-26.68,26.21-3.85.89-1-16.3-2-22.55-1.53-9.33-9.17-26.28-20.08-35.62-9.24-7.9-14.06-3.57-18.08-16.18-7-22,6.08-38.6,16-42.46,15.17-5.88,37.13-5.09,43.51-14.23l1-27.7.69-20.19,18.31-.8h2.19l18.31.8.69,20.19.95,27.7c6.38,9.14,36,3.72,48.27,14.4,2.62,2.28,15.77,17.35,43.46,91.08,4.65,12.39-41-40.51-50.27-32.61-10.91,9.34-6.86,27.53-8.4,36.86-1,6.25-9.85,22.2-13.7,21.31-10.84-2.49-16.93-20.86-26.68-26.21-5.74-3.14-8.24-6.09-13.73-2.52"/><path class="cls-2" d="M371.08,321.55s36.71,44.44,46.11,22.24l-3.46-75.87H374.92Z"/><ellipse class="cls-3" cx="394.23" cy="279.71" rx="10.3" ry="1.63"/><path class="cls-4" d="M443.53,500.21c6.52-28,22.17-170,13.45-173.81-18.11-8-16.84-7.88-32.22-9.74-11.06-1.35-18.67,28-28.75,28.92-6.31.57-24-29.11-29.61-28-24.72,4.78-41.82,13.18-41.82,13.18-3.67,19.25,7.2,144.81,13.82,172.58"/><path class="cls-1" d="M343.62,343.82c8.66,17.83-.44,28.25-3.28,37.41-4.52,14.54-1.87,44.57-3.43,59.36-.74,7-5.16,23.1-16.36,22.76h0c-14.39-1.08-15.19-18.55-15.14-25.28.1-13.69-.83-73.69,6.37-89.41,0,0,2.19-13.22,14.92-14.74,8.17-1,13.37,2.56,16.93,9.9Z"/><path class="cls-1" d="M305.84,453.32c-.42-16.55,5.15-25.95,12.43-29.43,10.33-4.93,76.13-.6,93.84-3.72,10-1.76,15.29-3,16.89,2.86,1.46,5.31-7.82,10.08-11.45,12-34.07,18-59.86,20.71-88.77,21.86C309.81,457.65,305.94,457.16,305.84,453.32Z"/><path class="cls-1" d="M456.32,420.69A82.36,82.36,0,0,1,470,412.1s-4.16-2.68-6.81-2.57c-2.15.08-11.66,4.47-11.66,4.47h0c16.32-23.91,25.16-43.35,26.15-46.21.7-2-1.59-8.12-1.59-8.12s-16.32,22.58-21.3,28.61c-16.93,20.53-25.38,25.08-39.18,30.66-2.42,1-1.14,15,4.12,13.42,1.84-.57,11.93,1.53,14.78,0C445.93,426.35,456,420.94,456.32,420.69Z"/><rect class="cls-4" x="335.18" y="476.27" width="109.24" height="23.41"/><path class="cls-1" d="M501.85,431.62c9.25-6.66,4.5-16.85-.76-25-3.75-5.84-45.76-58.68-57-73.2-6.35-8.2-9.51-12.74-14.63-9.34-4.65,3.08,4.28,15.48,6.15,19.24,19.66,39.62,20.11,62.33,41.09,83C490.48,439.83,498.67,433.9,501.85,431.62Z"/><path class="cls-5" d="M331.82,388.68s-3-23.38-6.35-58.47l24.31-8.66,27.45,48.91Z"/><path class="cls-6" d="M461.06,355l-16.64,17.33,1.71,16.34h10.7c-2.58,5.24,12.61,43.64,15.8,44.26S495.2,441,495.2,441s11.9-11.39,15.42-15c1-1.05.19-14.53.19-14.53-3.71-5.36-10-12.57-11.61-16.06-12.27-26.89-29.85-61.72-29.85-61.72s-13-11.11-12.37-7.36-1.93,21-1.39,21.66Z"/><polygon class="cls-4" points="335.18 526.47 335.18 473.54 450.5 446.89 450.5 526.47 335.18 526.47"/><path class="cls-6" d="M365.72,318.41l6.5-12.83s25,31.42,25,31.7-1,14.05-1,14.05Z"/><path class="cls-6" d="M404.47,346.15s-5.83-9.15-5.46-9.71,16.13-27.19,16.13-27.19,7,9.16,7.36,10-16.65,29.69-16.65,29.69Z"/><path class="cls-6" d="M325.47,330.21l14.87,51-1.9,40.31,51.35-.66,4.53-2.76,13.73,2.52-3.52,31L389.8,463.35s-1.57-8.89-1.6-11.3-61.32,18.05-63.47,17.61S300.56,456,300.56,456s4.44-98.63,4.84-102.54S325.47,330.21,325.47,330.21Z"/><path class="cls-4" d="M339.1,496.29c-3.22,3.77,14.63-15.1,13.28-15.35s-12.1-13.66-16.5-5.1-16.91,34.79,0,39.19,107.62,2.2,112.91-2.64,10.57-11.89,4.84-24.22-3.8-27-8.51-31.85S339.1,496.29,339.1,496.29Z"/><path class="cls-1" d="M390,305.54l14.34-1,20.4,4.74,21.35,21.87s12.17,22.59,8.9,23.73c-5,1.74-17.88-11.29-21.43-12.57-5.73-2.07-12.22-10.39-12.22-10.39l-13.46-.65s-9.86,4.63-10.46,4.64c-5.26.08-13.52-10.15-13.52-10.15l14.23-11.42,12.45.42-7.33-3.92s-7.37,1-8.16.65C393.42,310.8,390,305.54,390,305.54Z"/><path class="cls-1" d="M421.29,338.76c0,19.81,12.91,25.22,19.54,32.21,10.53,11.1,21.41,39.27,29.38,51.89,3.75,5.94,14.9,18.53,24.91,13.32h0c12.58-7.26,5.58-23.33,2.55-29.36-6.15-12.26-26.59-65.68-40.07-76.67,0,0-13.12-11.9-25.33-7.7-7.85,2.7-11,8.15-11,16.31Z"/><path class="cls-1" d="M394.32,418.12c-5.48-3.57-8-.62-13.72,2.52-9.75,5.35-15.84,23.72-26.68,26.21-3.85.89-1-16.3-2-22.55-1.53-9.33-9.17-26.28-20.08-35.62-9.24-7.9-14.06-3.57-18.08-16.18-7-22,6.08-38.6,16-42.46,15.17-5.88,37.13-5.09,43.51-14.23l1-27.7.69-20.19,18.31-.8h2.19l18.31.8.69,20.19.95,27.7c6.38,9.14,36,3.72,48.27,14.4,2.62,2.28,15.77,17.35,43.46,91.08,4.65,12.39-41-40.51-50.27-32.61-10.91,9.34-6.86,27.53-8.4,36.86-1,6.25-9.85,22.2-13.7,21.31-10.84-2.49-16.93-20.86-26.68-26.21-5.74-3.14-8.24-6.09-13.73-2.52"/><path class="cls-7" d="M371.08,321.55s36.71,44.44,46.11,22.24l-3.46-75.87H374.92Z"/><path class="cls-4" d="M443.53,500.21c6.52-28,22.17-170,13.45-173.81-18.11-8-16.84-7.88-32.22-9.74-11.06-1.35-18.67,28-28.75,28.92-6.31.57-24-29.11-29.61-28-24.72,4.78-41.82,13.18-41.82,13.18-3.67,19.25,7.2,144.81,13.82,172.58"/><path class="cls-1" d="M343.62,343.82c8.66,17.83-.44,28.25-3.28,37.41-4.52,14.54-1.87,44.57-3.43,59.36-.74,7-5.16,23.1-16.36,22.76h0c-14.39-1.08-15.19-18.55-15.14-25.28.1-13.69-.83-73.69,6.37-89.41,0,0,2.19-13.22,14.92-14.74,8.17-1,13.37,2.56,16.93,9.9Z"/><path class="cls-1" d="M305.84,453.32c-.42-16.55,5.15-25.95,12.43-29.43,10.33-4.93,76.13-.6,93.84-3.72,10-1.76,15.29-3,16.89,2.86,1.46,5.31-7.82,10.08-11.45,12-34.07,18-59.86,20.71-88.77,21.86C309.81,457.65,305.94,457.16,305.84,453.32Z"/><path class="cls-1" d="M456.32,420.69A82.36,82.36,0,0,1,470,412.1s-4.16-2.68-6.81-2.57c-2.15.08-11.66,4.47-11.66,4.47h0c16.32-23.91,25.16-43.35,26.15-46.21.7-2-1.59-8.12-1.59-8.12s-16.32,22.58-21.3,28.61c-16.93,20.53-25.38,25.08-39.18,30.66-2.42,1-1.14,15,4.12,13.42,1.84-.57,11.93,1.53,14.78,0C445.93,426.35,456,420.94,456.32,420.69Z"/><rect class="cls-4" x="335.18" y="476.27" width="109.24" height="23.41"/><path class="cls-1" d="M501.85,431.62c9.25-6.66,4.5-16.85-.76-25-3.75-5.84-45.76-58.68-57-73.2-6.35-8.2-9.51-12.74-14.63-9.34-4.65,3.08,4.28,15.48,6.15,19.24,19.66,39.62,20.11,62.33,41.09,83C490.48,439.83,498.67,433.9,501.85,431.62Z"/><path class="cls-4" d="M331.82,388.68s-3-23.38-6.35-58.47l24.31-8.66,27.45,48.91Z"/><path class="cls-8" d="M461.06,355l-16.64,17.33,1.71,16.34h10.7c-2.58,5.24,12.61,43.64,15.8,44.26S495.2,441,495.2,441s11.9-11.39,15.42-15c1-1.05.19-14.53.19-14.53-3.71-5.36-10-12.57-11.61-16.06-12.27-26.89-29.85-61.72-29.85-61.72s-13-11.11-12.37-7.36-1.93,21-1.39,21.66Z"/><polygon class="cls-4" points="335.18 526.47 335.18 473.54 450.5 446.89 450.5 526.47 335.18 526.47"/><path class="cls-8" d="M365.72,318.41l6.5-12.83s25,31.42,25,31.7-1,14.05-1,14.05Z"/><path class="cls-8" d="M404.47,346.15s-5.83-9.15-5.46-9.71,16.13-27.19,16.13-27.19,7,9.16,7.36,10-16.65,29.69-16.65,29.69Z"/><path class="cls-8" d="M325.47,330.21l14.87,51-1.9,40.31,51.35-.66,4.53-2.76,13.73,2.52-3.52,31L389.8,463.35s-1.57-8.89-1.6-11.3-61.32,18.05-63.47,17.61S300.56,456,300.56,456s4.44-98.63,4.84-102.54S325.47,330.21,325.47,330.21Z"/><path class="cls-4" d="M339.1,496.29c-3.22,3.77,14.63-15.1,13.28-15.35s-12.1-13.66-16.5-5.1-16.91,34.79,0,39.19,107.62,2.2,112.91-2.64,10.57-11.89,4.84-24.22-3.8-27-8.51-31.85S339.1,496.29,339.1,496.29Z"/><path class="cls-1" d="M390,305.54l14.34-1,20.4,4.74,21.35,21.87s12.17,22.59,8.9,23.73c-5,1.74-17.88-11.29-21.43-12.57-5.73-2.07-12.22-10.39-12.22-10.39l-13.46-.65s-9.86,4.63-10.46,4.64c-5.26.08-13.52-10.15-13.52-10.15l14.23-11.42,12.45.42-7.33-3.92s-7.37,1-8.16.65C393.42,310.8,390,305.54,390,305.54Z"/></g></svg>