<svg id="Calque_9" data-name="Calque 9" xmlns="http://www.w3.org/2000/svg" viewBox="0 0 588 323.34"><defs><style>.cls-1{fill:#d68f72;}.cls-2{fill:#b9785c;}.cls-3{fill:#4e6566;}.cls-4{fill:#55427c;}</style></defs><path class="cls-1" d="M294,164.56c-5.48-3.58-8-.63-13.73,2.51-9.75,5.35-15.83,23.72-26.67,26.22-3.85.88-12.68-15.07-13.71-21.32-1.53-9.33,2.52-27.52-8.39-36.86-9.24-7.9-21.45-3.68-25.46-16.29-7-22,13.45-38.49,23.4-42.34,15.17-5.89,37.14-5.1,43.52-14.24l.94-27.7.69-20.18,18.32-.81h2.18l18.32.81.69,20.18.94,27.7c6.38,9.14,28.35,8.35,43.52,14.24,9.95,3.85,30.39,20.36,23.4,42.34-4,12.61-16.22,8.39-25.46,16.29-10.91,9.34-6.86,27.53-8.39,36.86-1,6.25-9.86,22.2-13.71,21.32-10.84-2.5-16.92-20.87-26.67-26.22-5.74-3.14-8.25-6.09-13.73-2.51"/><path class="cls-2" d="M273.51,62.56S305.28,74,314.68,51.75l-1.27-37.39H274.59Z"/><path class="cls-1" d="M482.21,120.69c.26-2.54,8.11-17.2,9-19.17S510.18,89,510.94,90s-1,6.18-1,6.18L504,100.71l18.18-5.06s23.15-8.72,22.84-7.38a61.94,61.94,0,0,0-.33,6.65l-19.37,9.53L519,120.34s-22.94,10-26.12,9.64c-.94-.12-5.28,1.71-6.67-1.32C485.27,126.73,482.21,120.69,482.21,120.69Z"/><path class="cls-1" d="M242.27,91.28c3.23,19.55-8.45,27-13.78,34.93-8.46,12.65-14.46,42.2-20.16,55.93-2.69,6.47-11.52,20.68-22.16,17.17-13.49-5.12-9.3-22.1-7.34-28.54,4-13.1,21.89-67.56,34.59-79.29,6.45-6,12.06-17.74,24.69-15.58,8.12,1.39,2.83,7.33,4.16,15.38Z"/><path class="cls-1" d="M333.73,95.32c2.66,19.63,16,23.28,23.45,29.33,11.81,9.6,26.23,36.07,35.72,47.52,4.48,5.39,17.09,16.38,26.23,9.89h0c11.39-8.87,2.38-23.86-1.38-29.43-7.67-11.35-38.86-55.39-53.55-64.5,0,0-10.42-16.22-21.86-10.43-7.34,3.71-9.71,9.53-8.61,17.62Z"/><path class="cls-1" d="M405.14,177.77c5.9,9.53,16.06,5.41,24.31.66,5.88-3.39,56.07-43.58,70.8-53.88,8.33-5.83,6.38-7.77,3.4-13-2.72-4.78-18.55,5.17-22.17,7.1-36.88,19.68-44.93,17.57-69.66,34.54C396.16,163.91,403.12,174.49,405.14,177.77Z"/><rect class="cls-3" x="235.04" y="224.92" width="115.32" height="23.41"/><path class="cls-4" d="M235,74.65c-.33,5.78,0,64.53,0,64.53v70.08l2.31,27.36H345l5.34-26.91,3.25-79.29V74.84L316.89,64s-19.67,14.88-22,14.88-21.37-16.33-21.37-16.33Z"/><path class="cls-1" d="M176.2,187.1c-2.29-11,7.92-15,17.18-17.22,6.59-1.59,72.12-10.56,89.9-13.23,10.05-1.51,15.35-2.58,16.81,3.29,1.32,5.33-19.3,10.76-23.11,12.28-35.36,14.11-50.17,19.52-79,28.13C179.79,205.78,177,190.87,176.2,187.1Z"/><path class="cls-1" d="M270.42,159.82c4.77-2.52,13.86-12.65,15.1-14.27s16.91-9.72,17.47-8.79.75,4.45.75,4.45l-8.84,7.4,22.05-4s13.95-2.9,18.49-2.23c1.27.19-.86,4.54-.86,4.54l-20.77,8-6.37,13.25a12.34,12.34,0,0,1-10.8,7c-5.16.13-11.34.18-13-.26-.9-.24-7.39-1.56-8.16-4.45C275,168.54,270.42,159.82,270.42,159.82Z"/><path class="cls-4" d="M182,146.88l39.5,8.58L235,139.18l14.42-69.06-39.72,9.77C205.36,88.66,182,146.88,182,146.88Z"/><polygon class="cls-4" points="341 155.46 356.66 141.03 384.21 160.12 407.49 135.82 370.61 79.7 347.29 72.97 333.73 95.32 341 155.46"/><path class="cls-4" d="M235.35,201.94l-13.83,77.68,142.68,3.25s-5-55.31-4.26-73.16-3.28-16.39-3.28-68.68c0-11-22.93,59.45-30.81,64.73S235.35,201.94,235.35,201.94Z"/></svg>