<?xml version="1.0" encoding="utf-8"?>
<!-- Generator: Adobe Illustrator 26.0.1, SVG Export Plug-In . SVG Version: 6.00 Build 0)  -->
<svg version="1.1" id="Calque_1" xmlns="http://www.w3.org/2000/svg" xmlns:xlink="http://www.w3.org/1999/xlink" x="0px" y="0px"
	 viewBox="0 0 388 323.3" style="enable-background:new 0 0 388 323.3;" xml:space="preserve">
<style type="text/css">
	.st0{fill:#D68F72;}
	.st1{fill:#6F412A;}
	.st2{fill:#4C2A33;}
	.st3{fill:#7C8E7B;}
	.st4{fill:#423632;}
	.st5{fill:#4E6566;}
	.st6{fill:#B9785C;}
</style>
<g id="Calque_9">
	<path class="st0" d="M221,85.4c0,19.8,12.9,25.2,19.5,32.2c10.5,11.1,21.4,39.3,29.4,51.9c3.8,5.9,14.9,18.5,24.9,13.3l0,0
		c12.6-7.3,5.6-23.3,2.5-29.4c-6.1-12.3-26.6-65.7-40.1-76.7c0,0-13.1-11.9-25.3-7.7C224.1,71.8,221,77.3,221,85.4L221,85.4z"/>
	<path class="st0" d="M194,164.8c-5.5-3.6-8-0.6-13.7,2.5c-9.8,5.3-15.8,23.7-26.7,26.2c-3.9,0.9-1-16.3-2-22.6
		c-1.5-9.3-9.2-26.3-20.1-35.6c-9.2-7.9-14.1-3.6-18.1-16.2c-7-22,6.1-38.6,16-42.5c15.2-5.9,37.1-5.1,43.5-14.2l0.9-27.7l0.7-20.2
		l18.3-0.8h2.2l18.3,0.8l0.7,20.2l0.9,27.7c6.4,9.1,36,3.7,48.3,14.4c2.6,2.3,15.8,17.4,43.5,91.1c4.7,12.4-41-40.5-50.3-32.6
		c-10.9,9.3-6.9,27.5-8.4,36.9c-1,6.2-9.9,22.2-13.7,21.3c-10.8-2.5-16.9-20.9-26.7-26.2C202,164.2,199.5,161.2,194,164.8"/>
	<path class="st1" d="M170.8,68.2c0,0,36.7,44.4,46.1,22.2l-3.5-75.9h-38.8L170.8,68.2z"/>
	<ellipse class="st2" cx="193.9" cy="26.4" rx="10.3" ry="1.6"/>
	<path class="st3" d="M243.2,246.9c6.5-28,22.2-170,13.5-173.8c-18.1-8-16.8-7.9-32.2-9.7c-11.1-1.3-18.7,28-28.8,28.9
		c-6.3,0.6-24-29.1-29.6-28c-14.4,2.7-28.5,7.1-41.8,13.2c-3.7,19.2,7.2,144.8,13.8,172.6"/>
	<path class="st0" d="M143.3,90.5c8.6,17.8-0.4,28.2-3.3,37.4c-4.5,14.5-1.9,44.6-3.4,59.4c-0.7,7-5.2,23.1-16.4,22.8l0,0
		c-14.4-1.1-15.2-18.6-15.1-25.3c0.1-13.7-0.8-73.7,6.4-89.4c0,0,2.2-13.2,14.9-14.7C134.5,79.6,139.7,83.1,143.3,90.5L143.3,90.5z"
		/>
	<path class="st0" d="M105.5,200c-0.4-16.5,5.2-25.9,12.4-29.4c10.3-4.9,76.1-0.6,93.8-3.7c10-1.8,15.3-3,16.9,2.9
		c1.5,5.3-7.8,10.1-11.5,12c-34.1,18-59.9,20.7-88.8,21.9C109.5,204.3,105.6,203.8,105.5,200z"/>
	<path class="st0" d="M256,167.4c4.3-3.3,8.9-6.2,13.7-8.6c0,0-4.2-2.7-6.8-2.6c-2.1,0.1-11.7,4.5-11.7,4.5l0,0
		c16.3-23.9,25.2-43.3,26.1-46.2c0.7-2-1.6-8.1-1.6-8.1s-16.3,22.6-21.3,28.6c-17,20.5-25.4,25.1-39.2,30.7c-2.4,1-1.1,15,4.1,13.4
		c1.8-0.6,11.9,1.5,14.8,0C245.6,173,255.7,167.6,256,167.4z"/>
	<rect x="134.9" y="222.9" class="st4" width="109.2" height="23.4"/>
	<path class="st0" d="M301.5,178.3c9.2-6.6,4.5-16.8-0.8-25c-3.8-5.8-45.8-58.7-57-73.2c-6.4-8.2-9.5-12.7-14.6-9.3
		c-4.6,3.1,4.3,15.5,6.1,19.2c19.7,39.6,20.1,62.3,41.1,83C290.1,186.5,298.4,180.6,301.5,178.3z"/>
	<path class="st3" d="M131.5,135.4c0,0-3-23.4-6.4-58.5l24.3-8.7l27.4,48.9L131.5,135.4z"/>
	<path class="st5" d="M260.7,101.7L244.1,119l1.7,16.3h10.7c-2.6,5.2,12.6,43.6,15.8,44.2s22.6,8.1,22.6,8.1s11.9-11.4,15.4-15
		c1-1,0.2-14.5,0.2-14.5c-3.7-5.4-10-12.6-11.6-16C286.6,115.2,269,80.4,269,80.4s-13-11.1-12.4-7.4s-1.9,21-1.4,21.7L260.7,101.7z"
		/>
</g>
<g id="Calque_10">
	<polygon class="st3" points="134.9,273.1 134.9,220.2 250.2,193.6 250.2,273.1 	"/>
	<path class="st5" d="M165.4,65.1l6.5-12.8c0,0,25,31.4,25,31.7s-1,14.1-1,14.1L165.4,65.1z"/>
	<path class="st5" d="M204.1,92.8c0,0-5.8-9.2-5.5-9.7s16.1-27.2,16.1-27.2s7,9.2,7.4,10s-16.6,29.7-16.6,29.7L204.1,92.8z"/>
	<path class="st5" d="M125.1,76.9l14.9,51l-1.9,40.3l51.4-0.7l4.5-2.8l13.7,2.5l-3.5,31L189.5,210c0,0-1.6-8.9-1.6-11.3
		s-61.3,18.1-63.5,17.6s-24.2-13.7-24.2-13.7s4.4-98.6,4.8-102.6S125.1,76.9,125.1,76.9z"/>
	<path class="st3" d="M138.8,243c-3.2,3.8,14.6-15.1,13.3-15.4s-12.1-13.6-16.5-5.1s-16.9,34.8,0,39.2s107.6,2.2,112.9-2.6
		s10.6-11.9,4.9-24.2s-3.8-27-8.5-31.9S138.8,243,138.8,243z"/>
	<path class="st0" d="M189.7,52.2l14.3-1l20.4,4.8l21.4,21.9c0,0,12.2,22.6,8.9,23.7c-5,1.8-17.9-11.3-21.4-12.6
		c-5.7-2.1-12.2-10.4-12.2-10.4l-13.5-0.6c0,0-9.9,4.6-10.5,4.6c-5.3,0.1-13.5-10.2-13.5-10.2L197.9,61l12.4,0.4l-7.3-4
		c0,0-7.4,1-8.2,0.7C193.1,57.5,189.7,52.2,189.7,52.2z"/>
	<path class="st0" d="M221,85.4c0,19.8,12.9,25.2,19.5,32.2c10.5,11.1,21.4,39.3,29.4,51.9c3.8,5.9,14.9,18.5,24.9,13.3l0,0
		c12.6-7.3,5.6-23.3,2.5-29.4c-6.1-12.3-26.6-65.7-40.1-76.7c0,0-13.1-11.9-25.3-7.7C224.1,71.8,221,77.3,221,85.4L221,85.4z"/>
	<path class="st0" d="M194,164.8c-5.5-3.6-8-0.6-13.7,2.5c-9.8,5.3-15.8,23.7-26.7,26.2c-3.9,0.9-1-16.3-2-22.6
		c-1.5-9.3-9.2-26.3-20.1-35.6c-9.2-7.9-14.1-3.6-18.1-16.2c-7-22,6.1-38.6,16-42.5c15.2-5.9,37.1-5.1,43.5-14.2l0.9-27.7l0.7-20.2
		l18.3-0.8h2.2l18.3,0.8l0.7,20.2l0.9,27.7c6.4,9.1,36,3.7,48.3,14.4c2.6,2.3,15.8,17.4,43.5,91.1c4.7,12.4-41-40.5-50.3-32.6
		c-10.9,9.3-6.9,27.5-8.4,36.9c-1,6.2-9.9,22.2-13.7,21.3c-10.8-2.5-16.9-20.9-26.7-26.2C202,164.2,199.5,161.2,194,164.8"/>
	<path class="st6" d="M170.8,68.2c0,0,36.7,44.4,46.1,22.2l-3.5-75.9h-38.8L170.8,68.2z"/>
	<path class="st3" d="M243.2,246.9c6.5-28,22.2-170,13.5-173.8c-18.1-8-16.8-7.9-32.2-9.7c-11.1-1.3-18.7,28-28.8,28.9
		c-6.3,0.6-24-29.1-29.6-28c-14.4,2.7-28.5,7.1-41.8,13.2c-3.7,19.2,7.2,144.8,13.8,172.6"/>
	<path class="st0" d="M143.3,90.5c8.6,17.8-0.4,28.2-3.3,37.4c-4.5,14.5-1.9,44.6-3.4,59.4c-0.7,7-5.2,23.1-16.4,22.8l0,0
		c-14.4-1.1-15.2-18.6-15.1-25.3c0.1-13.7-0.8-73.7,6.4-89.4c0,0,2.2-13.2,14.9-14.7C134.5,79.6,139.7,83.1,143.3,90.5L143.3,90.5z"
		/>
	<path class="st0" d="M105.5,200c-0.4-16.5,5.2-25.9,12.4-29.4c10.3-4.9,76.1-0.6,93.8-3.7c10-1.8,15.3-3,16.9,2.9
		c1.5,5.3-7.8,10.1-11.5,12c-34.1,18-59.9,20.7-88.8,21.9C109.5,204.3,105.6,203.8,105.5,200z"/>
	<path class="st0" d="M256,167.4c4.3-3.3,8.9-6.2,13.7-8.6c0,0-4.2-2.7-6.8-2.6c-2.1,0.1-11.7,4.5-11.7,4.5l0,0
		c16.3-23.9,25.2-43.3,26.1-46.2c0.7-2-1.6-8.1-1.6-8.1s-16.3,22.6-21.3,28.6c-17,20.5-25.4,25.1-39.2,30.7c-2.4,1-1.1,15,4.1,13.4
		c1.8-0.6,11.9,1.5,14.8,0C245.6,173,255.7,167.6,256,167.4z"/>
	<rect x="134.9" y="222.9" class="st4" width="109.2" height="23.4"/>
	<path class="st0" d="M301.5,178.3c9.2-6.6,4.5-16.8-0.8-25c-3.8-5.8-45.8-58.7-57-73.2c-6.4-8.2-9.5-12.7-14.6-9.3
		c-4.6,3.1,4.3,15.5,6.1,19.2c19.7,39.6,20.1,62.3,41.1,83C290.1,186.5,298.4,180.6,301.5,178.3z"/>
	<path class="st3" d="M131.5,135.4c0,0-3-23.4-6.4-58.5l24.3-8.7l27.4,48.9L131.5,135.4z"/>
	<path class="st5" d="M260.7,101.7L244.1,119l1.7,16.3h10.7c-2.6,5.2,12.6,43.6,15.8,44.2s22.6,8.1,22.6,8.1s11.9-11.4,15.4-15
		c1-1,0.2-14.5,0.2-14.5c-3.7-5.4-10-12.6-11.6-16C286.6,115.2,269,80.4,269,80.4s-13-11.1-12.4-7.4s-1.9,21-1.4,21.7L260.7,101.7z"
		/>
	<polygon class="st3" points="134.9,273.1 134.9,220.2 250.2,193.6 250.2,273.1 	"/>
	<path class="st5" d="M165.4,65.1l6.5-12.8c0,0,25,31.4,25,31.7s-1,14.1-1,14.1L165.4,65.1z"/>
	<path class="st5" d="M204.1,92.8c0,0-5.8-9.2-5.5-9.7s16.1-27.2,16.1-27.2s7,9.2,7.4,10s-16.6,29.7-16.6,29.7L204.1,92.8z"/>
	<path class="st5" d="M125.1,76.9l14.9,51l-1.9,40.3l51.4-0.7l4.5-2.8l13.7,2.5l-3.5,31L189.5,210c0,0-1.6-8.9-1.6-11.3
		s-61.3,18.1-63.5,17.6s-24.2-13.7-24.2-13.7s4.4-98.6,4.8-102.6S125.1,76.9,125.1,76.9z"/>
	<path class="st3" d="M138.8,243c-3.2,3.8,14.6-15.1,13.3-15.4s-12.1-13.6-16.5-5.1s-16.9,34.8,0,39.2s107.6,2.2,112.9-2.6
		s10.6-11.9,4.9-24.2s-3.8-27-8.5-31.9S138.8,243,138.8,243z"/>
	<path class="st0" d="M189.7,52.2l14.3-1l20.4,4.8l21.4,21.9c0,0,12.2,22.6,8.9,23.7c-5,1.8-17.9-11.3-21.4-12.6
		c-5.7-2.1-12.2-10.4-12.2-10.4l-13.5-0.6c0,0-9.9,4.6-10.5,4.6c-5.3,0.1-13.5-10.2-13.5-10.2L197.9,61l12.4,0.4l-7.3-4
		c0,0-7.4,1-8.2,0.7C193.1,57.5,189.7,52.2,189.7,52.2z"/>
</g>
</svg>
