<?xml version="1.0" encoding="utf-8"?>
<!-- Generator: Adobe Illustrator 26.0.2, SVG Export Plug-In . SVG Version: 6.00 Build 0)  -->
<svg version="1.1" id="Calque_1" xmlns="http://www.w3.org/2000/svg" xmlns:xlink="http://www.w3.org/1999/xlink" x="0px" y="0px"
	 viewBox="0 0 588 387" style="enable-background:new 0 0 588 387;" xml:space="preserve">
<style type="text/css">
	.st0{fill:#944E31;}
	.st1{fill:#6D323A;}
	.st2{fill:#A37636;}
	.st3{fill:#129E8E;}
</style>
<polygon points="128,367.5 128.1,367.4 128,367.4 "/>
<polygon points="128.1,367.4 128.2,367.5 128.2,367.4 "/>
<polygon points="128,367.5 128.1,367.4 128,367.4 "/>
<polygon points="128.1,367.4 128.2,367.5 128.2,367.4 "/>
<path class="st0" d="M413.5,131.7c-0.4,25.7-12,31.9-22.8,35.9l0,0c-5.3,2-10.5,3.4-14,6.4c-1.4,1.2-2.6,2.7-3.5,4.3
	c-8.3,14.5-5.8,47.2-13.7,59.7c-2.5,3.8-11.4,10.1-15.8,9.1c-12.5-2.9-24-30.7-34.8-37.7c-6.3-4.1-23.6-3.6-30.2,0
	c-11.2,6.2-22.3,34.8-34.8,37.7c-4.4,1-13.4-5.2-15.8-9.1c-5.9-9.3-6-29.8-9.1-45.6c-0.5-2.9-1.3-5.7-2.2-8.4
	c-1.4-4.2-3.3-7.7-5.9-9.9c-10.6-9.1-36.2-3.9-36.9-42.3c-0.3-17.5,15-28.1,25.4-33.3l0,0l0.6-0.3c2.9-1.4,5.9-2.6,8.9-3.7
	l20.4-10.1l0,0l19.8-9.8c9.5-4.7,16-13.8,17.3-24.3c0.2-1.4,0.3-2.8,0.2-4.2l0-7l-0.1-8.7l0.8,0.1h0.5l25.4,2l26.9-2h0.1l0.1,5.2
	v3.5l0.1,6.1v3.2c0,0.3,0,0.7,0,1l0,0c0,0.7,0.1,1.3,0.2,1.9c0.2,1.5,0.5,3.1,0.9,4.6c2.2,7.7,7.6,14,14.7,17.6l40.5,20.1
	c1.1,0.5,2.2,0.9,3.3,1.3c4.1,1.5,8.1,3.3,11.9,5.5C401.9,106.1,413.8,116.2,413.5,131.7z"/>
<path class="st0" d="M321.2,86.9l-9.7,11.4l-17.8,21.1l-15-18l-12.2-14.5v-0.5l0.7-41.1l0.1-6.4l0.1-8.7v-1.4l0.5-0.1
	c0,0.5,0,1,0,1.5l25.4,2l26.9-2l0.1,8.6V39l0.1,6.1l0.1,4.2l0,0v1.3l0.1,7.5L321.2,86.9z"/>
<path class="st1" d="M321.7,56.2c0,0-0.3,0.7-1,2c-4.3,8.1-22.4,38.5-48.7,32.4c-1.8-0.4-3.7-2-5.5-4.1c-5.3-6.2-9.7-17.1-9.7-17.1
	c0.6-0.6,1.3-1.3,1.8-1.9c3.9-4.8,6.5-10.5,7.8-16.5c0-0.2,0.1-0.4,0.1-0.6c0.3-1.4,0.5-3,0.7-4.8s0.3-4.1,0.5-6.4
	c0.1-2.7,0.2-5.7,0.3-8.6l25.4,2l26.9-2h0.1l0.1,5.2V39l0,10.9l0.1,0.8l0.1,0.7l0.9,4.6L321.7,56.2z"/>
<path class="st0" d="M354.6,115.4c21.8-17.1,53.9-16.5,53.9-16.5s62-5.8,82.6-8c9.7-1.1,30-3.6,33.3,20.6l0,0
	c2.7,19.9-16,25.9-25.2,27.9c-18.7,3.9-57.4,7.9-75,14.9c-13.1,5.2-31.2,18.4-54.7,13.2c0,0-19.7-2.1-24.8-21.5l-0.2-0.8
	C341.6,134.2,345.6,122.5,354.6,115.4L354.6,115.4z"/>
<path class="st0" d="M502.1,135.6c-19.7,2.6-29-19.2-31.9-27.3s-4.7-25.8-5.7-34.4c-2.4-22.2-3.5-59.8-6.2-81.6
	c-1.7-14.3-3-21.7,5.8-25.3c8-3.2,14.3,9.4,16.8,14.3c10.4,20.2,31.2,59.4,38.5,82.3c3,9.4,7.4,28.9,7.2,38.8
	C526.1,130,507.8,134.8,502.1,135.6z"/>
<path class="st0" d="M235.2,121c5.3,27.2-9.8,55.5-9.8,55.5s-23,57.9-30.4,77.3c-3.5,9.1-10.4,28.3-33.4,20.3l0,0
	c-19-6.6-15.8-26-13.4-35.1c5-18.4,19-54.8,20.7-73.6c1.3-14-2.2-36.1,13.1-54.8c0,0,10.8-16.6,30.4-12.3l0.8,0.2
	C224.4,101,233,109.8,235.2,121z"/>
<polygon class="st2" points="214.4,339.2 215.9,316.7 365.5,308.2 364.5,336 "/>
<path class="st3" d="M199.8,97.6c0,0,20.2,22.4,21.1,41.2s-4.5,48-4.5,48s-2.7,115.8-0.9,120.4s-5.8,19-2.4,32s70.1,7.7,87.7,2.7
	s60.5,2.7,69.3-6c12.3-12.2-13.3-83.9-8.1-94.9s11.6-65,11.6-65c1.8-1.9,13.1-69-4.7-85.7l-32.5-16.8l0,0
	c-2.5,13.9-14.1,24.3-28.2,25.3c-17.7,1.2-36.3,3.4-46.7,4.7c-8.9,1.2-17.5-3.3-21.8-11.2c-1.9-3.5-2.6-7.6-2-11.6L199.8,97.6z"/>
<path class="st0" d="M145.6,268.2c-8.8-17.9,8.9-33.6,15.6-38.9s22.9-12.8,30.8-16.4c20.3-9.4,55.6-22.5,75.3-32
	c13-6.2,19.6-9.9,25.8-2.6c5.6,6.6-4.3,16.6-8.1,20.5c-15.8,16.3-46.3,48.6-65.6,62.9c-7.9,5.9-25,16.3-34.5,19.2
	C158.6,289.2,148.2,273.4,145.6,268.2z"/>
<path class="st0" d="M286.5,199l16.5-12.3l17.3-22.5c0,0-5-2.7-6.7-2.3c-5.4,1.2-11.6,7.5-15.6,11.2c-0.5,0.5-3.9,1.1-4.5,0.8
	c-2.6-1.5-0.8-7.7-0.8-7.7l-11.7,17L286.5,199z"/>
<path class="st0" d="M288.1,192.5l-19.3-8.9l15.4-42.7l31.5-36.4c0,0,4,5.3,4.1,7.5c0.1,11.1-15.8,29.2-20.5,39.3
	C294.3,162.1,288.1,192.5,288.1,192.5z"/>
<ellipse transform="matrix(0.7266 -0.6871 0.6871 0.7266 -53.5848 243.7068)" class="st0" cx="279.4" cy="189.2" rx="12.1" ry="12.1"/>
</svg>
