<?xml version="1.0" encoding="utf-8"?>
<!-- Generator: Adobe Illustrator 26.0.2, SVG Export Plug-In . SVG Version: 6.00 Build 0)  -->
<svg version="1.1" id="Calque_1" xmlns="http://www.w3.org/2000/svg" xmlns:xlink="http://www.w3.org/1999/xlink" x="0px" y="0px"
	 viewBox="0 0 788 1005" style="enable-background:new 0 0 788 1005;" xml:space="preserve">
<style type="text/css">
	.st0{fill:none;stroke:#D3BB54;stroke-width:6;stroke-linecap:round;stroke-miterlimit:10;}
	.st1{fill:#A85B3B;}
	.st2{fill:#A85D3D;}
	.st3{fill:none;stroke:#000000;stroke-width:3;stroke-miterlimit:10;}
	.st4{fill:none;}
	.st5{fill:#46455B;}
	.st6{fill:#7EA885;}
	.st7{fill:#BCBCBC;}
	.st8{fill:none;stroke:#BCBCBC;stroke-width:5;stroke-linecap:round;stroke-miterlimit:10;}
	.st9{fill:none;stroke:#BCBCBC;stroke-width:2;stroke-linecap:round;stroke-miterlimit:10;}
	.st10{fill:#D3BB54;}
</style>
<line class="st0" x1="116.5" y1="58.8" x2="138.1" y2="66.3"/>
<line class="st0" x1="131.2" y1="21.4" x2="146.4" y2="50.6"/>
<line class="st0" x1="112.8" y1="99.2" x2="137.1" y2="83.9"/>
<polygon points="230.2,479.5 230.3,479.5 230.2,479.5 "/>
<polygon points="230.3,479.5 230.4,479.5 230.4,479.5 "/>
<polygon points="230.2,479.5 230.3,479.5 230.2,479.5 "/>
<polygon points="230.3,479.5 230.4,479.5 230.4,479.5 "/>
<path class="st1" d="M515.8,243.8c-0.6,38.4-26.2,33.2-36.9,42.3c-12.6,10.8-8.3,50-17.2,64c-2.5,3.8-11.4,10.1-15.8,9.1
	c-12.5-2.9-24-30.7-34.8-37.7c-6.3-4.1-23.6-3.6-30.2,0c-11.2,6.2-22.3,34.9-34.8,37.7c-4.4,1-13.4-5.2-15.8-9.1
	c-8.9-14-4.6-53.2-17.2-64c-10.6-9.1-36.2-3.9-36.9-42.3c-0.4-26.6,35-37.3,35-37.3l40.1-19.9c2.6-1.3,5-2.9,7.1-4.8
	c0.8-0.7,1.6-1.5,2.3-2.3c0.2-0.2,0.4-0.5,0.6-0.7c4-4.7,6.5-10.4,7.2-16.4c0.2-1.4,0.3-2.8,0.2-4.2l0.4-2.8l0.4-3l0.2-1.1h52.6
	l0.1,4.6v1.5v3.2c0,0.3,0,0.7,0,1l0,0c0,0.6,0.1,1.3,0.2,1.9c0.2,1.5,0.5,3.1,0.9,4.6c2.2,7.7,7.6,14,14.7,17.6l40.5,20.1
	c1,0.5,2.1,1,3.2,1.3C489,209.4,516.2,220.5,515.8,243.8z"/>
<path class="st1" d="M423.5,199L396,231.5l-14.8-17.7L368.8,199l2.9-43.8l0.3-4.2h50.7l0.1,4.6l0,0v1.5l0.1,4.2l0,0v1.3l0.1,6.8
	L423.5,199z"/>
<path class="st2" d="M424,168.2l-1,1.2c-5.1,6.3-28.8,35.1-41.8,44.3c-3.2,2.3-5.7,3.4-7.2,2.7c-6.8-3.3-14.8-35.1-14.8-35.1
	l0.1-0.1c0.6-0.6,1.2-1.2,1.7-1.9c0.3-0.4,0.7-0.8,1-1.3v-0.1c3.3-4.5,5.5-9.7,6.7-15.2c0-0.2,0.1-0.4,0.1-0.6
	c0.4-2.3,0.7-4.7,0.9-7c0.1-1,0.1-2,0.2-3l0.1-1.1h52.7v4.2v6.7l0.1,0.8l0.1,0.7l0.9,4.6L424,168.2z"/>
<path class="st3" d="M458,250.6c11.9,25,40.9,38.8,40.9,38.8s53,32.8,70.4,44c8.2,5.3,25.2,16.6,39-3.6l0,0
	c11.3-16.6-2.8-30.4-10.2-36.2c-15-11.8-47.9-32.6-60.5-46.7c-9.4-10.5-19.8-30.3-43.1-36.2c0,0-18.6-6.9-31.8,8.2l-0.5,0.6
	C454.8,228,453.1,240.3,458,250.6z"/>
<path class="st1" d="M594.2,295.7c-18.5-7.2-32.7,11.8-37.4,19s-10.7,23.9-13.6,32.1c-7.5,21-17.5,57.3-25.2,77.8
	c-5,13.5-8.1,20.4-0.3,25.9c7,5,16.1-5.8,19.7-9.9c14.8-17.2,44.3-50.4,56.8-70.9c5.1-8.4,14-26.4,16.1-36
	C616.3,306.8,599.7,297.8,594.2,295.7z"/>
<path class="st3" d="M465.7,406.3c-0.9-4-5.7-25.3-5.6-33.8c0.1-9.2,4-27.7,1.8-36.6c-9.8-39.6-123.5-39.7-133.3,0
	c-2.2,8.9,1.7,27.5,1.8,36.6c0.1,8.6-4.7,29.8-5.6,33.8c-11,50.3,70.4,73.4,70.4,73.4S476.8,456.7,465.7,406.3z"/>
<path class="st4" d="M434.3,391.5c16.2,5.2,23.2,9.6,27,16.6c3.1,5.6,6,18.5,6.3,24.9c0.5,15.1-7.8,52.9-21.9,65.6
	c-14.4,12.9-84.8,12.9-99.2,0c-14.1-12.6-22.5-50.5-21.9-65.6c0.2-6.4,3.2-19.3,6.3-24.9c3.8-6.9,10.9-11.3,27-16.6
	c18.5-6,37.3-5,37.3-5S415.8,385.5,434.3,391.5z"/>
<path class="st3" d="M335.4,250.8c-8.5,26.3-35.5,43.8-35.5,43.8s-48.2,39.4-64.1,52.8c-7.5,6.3-22.8,19.7-39.1,1.5l0,0
	c-13.4-15-1.2-30.5,5.4-37.2c13.3-13.7,43.2-38.6,53.9-54.2c7.9-11.6,15.6-32.6,38-41.5c0,0,17.6-9.3,32.6,4l0.6,0.5
	C335.6,228,338.8,240,335.4,250.8L335.4,250.8z"/>
<path class="st5" d="M418.8,155.2c2.2,0,4,1.5,4.5,3.6c1.3,6.4,4.6,19.2,10.9,23.1c7,4.3,39.2,20.9,61.2,26.8
	c34.9,9.2,70.8,63.8,109.8,87.6c7.3,4.4,8.9,20.6,8.5,26.6c-0.8,11.1-6.4,32.6-12,43.8c-9.1,18.5-43.7-25.1-51.7-38
	c-1.5-2.4-0.8-5.4-3.2-6.8L488,287.2c-2.4-1.4-5.5,0-5.9,2.8l-9,58.1c-0.3,1.7-0.3,3.5,0,5.2L489.4,462c0.6,4.1-0.3,8.3-2.5,11.8
	l-4.8,7.6c-3.2,5-8.7,8.1-14.6,8.1l-34.8,10.8c-25.3,7.8-52.3,7.9-77.7,0.3l-35.7-10.7c-6.8,0-13-3.9-15.8-10.1l0,0
	c-1.3-2.9-1.8-6.1-1.5-9.3l14.1-120.6c0.2-1.4,0.2-2.7,0-4.1l-5.8-47.3c-0.4-3.1-4-4.6-6.4-2.6c-13.8,11.5-50.4,45.6-63.4,56.1
	c-6.6,5.4-18.8,15.2-27.2,13.5c-17.1-1.5-25.2-17.8-27.5-25c-3.4-11-2.8-34.6-0.7-45.9c2.6-14,36.4-21.7,51.7-24.6
	c4.8-0.9,9-3.7,11.6-7.9c7.6-12.2,24.2-37.4,34.3-43.1c31.5-17.6,70.7-33.3,76.2-37.7c5.5-4.4,8.2-16.3,9.3-22.4
	c0.4-2.2,2.3-3.8,4.5-3.8L418.8,155.2z"/>
<path class="st1" d="M520.9,447c2,3.2,3.1,9-3,14.8c0,0-17.6,20.2-25.4,24.3c-3.5,1.8-12.8,6.2-15.4,3.3
	c-7.3-8.4-12.1-28.6-9.7-41.7c0.7-3.9,9.4-8,13.3-8.8c4.3-0.8,13,2.6,17.3,2.8c2.4,0,4.8-0.1,7.2-0.4
	C511.1,440.8,518.1,442.6,520.9,447z"/>
<polygon class="st1" points="511.1,434.5 507,441.2 510.3,453.7 514.3,465.8 519.9,459.8 530,452.8 "/>
<polygon class="st6" points="508.4,438.9 517.7,423.1 538.2,445 526.9,457.8 "/>
<path class="st1" d="M229.5,196.5l1.6-17.5l-13.9,0.9l-12.8-6.2l2.3,9.2c0.1,1.2,0.1,2.5,0,3.7l-2.5,17.1L229.5,196.5z"/>
<path class="st1" d="M230.2,182.2c0.9-0.2,0.8-4.2,1.4-4.8c3-3,12.5-12.3,13.4-14.6c1-2.8,3.9-15.3,5-17.3c1.2-2.1,11-12,9.8-12.9
	c-0.7-0.6-2.8-1.7-4.4-2.8c-1.6-0.9-3.5-0.8-4.9,0.4l-6.2,4.8c-0.5,0.4-1,1-1.2,1.5l-2.4,5c-1.1,2.2-4.3,1.7-4.7-0.7l-2.5-14.6
	c0-0.2-0.1-0.5,0-0.7c0-3.4-9.2-1.8-9.2-1.8c-0.1-0.1-6.3,1.5-8.6,2.1c-0.6,0.2-1.1,0.4-1.6,0.5l-5,1.8c-4.3,1.5-8,4.3-10.4,8
	c-1.1,1.7-1.8,3.4-1.2,4.5c0.1,0.3,0.3,0.6,0.3,1l6.9,33.1c0.2,1,0.8,1.8,1.4,2.5l4,3.3c1,0.8,2.3,1.1,3.5,0.9L230.2,182.2z"/>
<g>
	<path class="st7" d="M219.3,167.4l3.7,1.3c2.9,1.1,6.1-0.3,7.3-3.3l17.3-46.2c1.1-2.9-0.3-6.1-3.3-7.3l-3.7-1.3
		c-2.9-1.1-6.1,0.3-7.3,3.3L216,160.2C214.9,163.1,216.4,166.4,219.3,167.4z"/>
	<path class="st8" d="M220.8,107.2l-3.8,10c-1.5,4.2-1.1,8.9,1.3,12.6l8.2,12.7"/>
	<circle class="st7" cx="161.8" cy="72.8" r="15"/>
	<path class="st6" d="M268.9,91.9l0.2,2.4c0.8,11.6-3.9,23.1-12.5,30.9l0,0c-1.3,1.2-3.2,1.5-4.8,0.6
		c-10.6-5.5-52.5-24.6-101.1-13.5c-5.3,1.1,27.9-87.5,29.1-77.5c30.2,36.1,74.4,50.1,86.1,53.3C267.6,88.6,268.8,90.1,268.9,91.9z"
		/>
</g>
<path class="st1" d="M201.5,141c0,0,4.4,15.6,7.7,16.4s23-3.2,25.1-8c2-4.8-0.6-24.2-0.6-24.2l0,0c-1.7-5.1-20,0.9-21.5,1.8
	L201.5,141z"/>
<path class="st6" d="M284.4,313.3l-38.5-47.5c0,0,20.6-32.1,22.4-32.1c1.1,0,33.3,64.4,33.3,64.4L284.4,313.3z"/>
<path class="st9" d="M354,183.9c0,0,25.7,122.4,41.4,126.1s39.8-127.4,39.8-127.4"/>
<g>
	<circle class="st10" cx="395.6" cy="318.7" r="8.6"/>
	<path class="st10" d="M390.8,321.8c0,0,5.8,5.1,6.2,8.7c0.1,0.9,0.1,1.5,0,1.9c0,0.3,0.2,0.5,0.5,0.5l6.7,0.1
		c0.3,0,0.6-0.2,0.6-0.5l-0.9-13.1"/>
</g>
<path class="st1" d="M219.1,358.6c19.8-2,23.8-25.3,24.8-33.9s-1.3-26.2-2.4-34.8c-2.8-22.2-9-68.2-11.4-89.9
	c-1.6-14.3-3.4-12.7-12.7-14.1c-8.5-1.3-11.8,12.4-13.1,17.8c-5.5,22.1-16.7,65-18.6,88.9c-0.8,9.8-0.5,29.9,1.9,39.4
	C194.4,358.7,213.4,359.1,219.1,358.6z"/>
</svg>
