<?xml version="1.0" encoding="utf-8"?>
<!-- Generator: Adobe Illustrator 26.0.2, SVG Export Plug-In . SVG Version: 6.00 Build 0)  -->
<svg version="1.1" id="Calque_1" xmlns="http://www.w3.org/2000/svg" xmlns:xlink="http://www.w3.org/1999/xlink" x="0px" y="0px"
	 viewBox="0 0 788 1005" style="enable-background:new 0 0 788 1005;" xml:space="preserve">
<style type="text/css">
	.st0{fill:#563935;}
	.st1{fill:#A85B3B;}
	.st2{fill:#6D323A;}
	.st3{fill:none;stroke:#000000;stroke-width:3;stroke-miterlimit:10;}
	.st4{fill:#434957;}
	.st5{fill:#547687;}
	.st6{fill:#634B47;}
	.st7{fill:#7081AF;}
	.st8{fill:#293040;}
	.st9{fill:#343D4F;}
	.st10{fill:#7787B3;}
	.st11{fill:#FFFFFF;}
	.st12{fill:#95ACBA;}
</style>
<polygon points="230.2,479.5 230.3,479.5 230.2,479.5 "/>
<polygon points="230.3,479.5 230.4,479.5 230.4,479.5 "/>
<polygon points="230.2,479.5 230.3,479.5 230.2,479.5 "/>
<polygon points="230.3,479.5 230.4,479.5 230.4,479.5 "/>
<path class="st0" d="M515.8,243.8c-0.6,38.4-26.2,33.2-36.9,42.3c-12.6,10.8-8.3,50-17.2,64c-2.5,3.8-11.4,10.1-15.8,9.1
	c-12.5-2.9-24-30.7-34.8-37.7c-6.3-4.1-23.6-3.6-30.2,0c-11.2,6.2-22.3,34.9-34.8,37.7c-4.4,1-13.4-5.2-15.8-9.1
	c-8.9-14-4.6-53.2-17.2-64c-10.6-9.1-36.2-3.9-36.9-42.3c-0.4-26.6,35-37.3,35-37.3l40.1-19.9c9.8-4.8,16.3-14.4,17.4-25.2
	c0-0.3,0-0.6,0.1-0.9s0-0.5,0-0.8s0-0.3,0-0.5c0-0.4,0-0.8,0-1.2v-2.3v-4.7l-0.1-8.7l1.6,0.1l25,1.9l26.2-2l0.7-0.1l0.1,8.7v2.2
	l0.1,7.1c0.1,10.7,6.2,20.4,15.8,25.1l40.5,20.1c1,0.5,2.1,1,3.2,1.3C489,209.4,516.2,220.5,515.8,243.8z"/>
<polygon class="st1" points="424.2,199 396.8,231.5 369.6,199 369.8,187.3 370.4,151.1 370.5,142.5 395.6,144.4 421.8,142.4 
	421.8,140.8 423.2,141 423.4,151.1 423.7,167.3 "/>
<path class="st2" d="M421.8,142.4l-0.2,8.7l-0.2,9.4L408,174.7c0,0-23.5,19.8-31.6,15.9c-2-1-4.3-2.1-6.5-3.3
	c-5.5-2.9-10.7-5.9-10.7-5.9c0.6-0.6,1.3-1.3,1.8-1.9c3.9-4.8,6.5-10.5,7.8-16.6c0-0.1,0.1-0.3,0.1-0.5c0,0,0-0.1,0-0.1
	c0-0.3,0.1-0.6,0.1-1s0-0.6,0.1-0.9s0-0.5,0-0.8s0-0.3,0-0.5c0-0.7,0-1.4,0-2.1v-1.3c0-0.6,0-1.2,0-1.9c0-1,0-1.9,0-2.8l0,0
	l-0.1-8.7l1.6,0.1l25,1.9L421.8,142.4z"/>
<path class="st3" d="M456.2,236.3c-1.3,27.6,17.7,53.5,17.7,53.5s31.2,53.9,41.3,72c4.8,8.5,14.4,26.5,36,15.2l0,0
	c17.8-9.3,11.9-28.1,8.1-36.7c-7.6-17.5-26.8-51.4-31.2-69.8c-3.3-13.7-3.1-36.1-20.9-52.3c0,0-13.1-14.9-31.9-7.7l-0.7,0.3
	C464,214.8,456.7,224.8,456.2,236.3L456.2,236.3z"/>
<path class="st1" d="M207.5,344.8c-19.6,3.6-29.9-17.7-33.2-25.6s-6.1-25.5-7.4-34.1c-3.5-22.1-6.6-59.6-10.3-81.1
	c-2.5-14.2-4.2-21.6,4.5-25.5c7.9-3.6,14.8,8.6,17.6,13.4c11.4,19.6,34.2,57.7,42.7,80.2c3.5,9.2,8.9,28.5,9.1,38.4
	C231.2,338,213.2,343.8,207.5,344.8z"/>
<path class="st3" d="M333.7,254.6c-11.9,25-40.9,38.8-40.9,38.8s-52.9,32.8-70.4,44c-8.2,5.3-25.2,16.6-38.9-3.6l0,0
	c-11.3-16.6,2.8-30.4,10.2-36.2c15-11.8,47.9-32.6,60.5-46.7c9.4-10.5,19.8-30.3,43.1-36.2c0,0,18.6-6.9,31.8,8.2l0.5,0.6
	C337,232.1,338.6,244.3,333.7,254.6L333.7,254.6z"/>
<polygon class="st4" points="316.7,451.3 318.2,428.8 473.2,428.8 475.2,448.3 "/>
<polygon class="st5" points="394.6,489.9 389.6,449.9 404.6,449.9 403.6,482.1 "/>
<path class="st6" d="M562.1,344.7c-9-17.7-32.2-13-40.5-10.8s-23.9,10.7-31.6,14.8c-19.7,10.6-51.3,31-70.7,41.1
	c-12.7,6.7-19.6,9.8-17.6,19.1c1.9,8.4,15.8,6.5,21.3,5.8c22.5-2.9,66.6-8,89.7-14.9c9.5-2.8,28-10.3,36-16.1
	C571.1,367.7,564.7,349.9,562.1,344.7z"/>
<path class="st1" d="M173.2,178.9l-3.6-17.9c0-0.1-0.1-0.3-0.1-0.4l-12-23.4c-0.5-0.9-1.6-1.1-2.4-0.5c-1.4,1.1-3.2,2.8-3.4,3.9
	c-1.2,5.4,1.9,13.7,3.5,18.9c0.2,0.7-0.6,4-1.2,4.4c-0.7,0.5-1.7,0.5-2.6,0.2c-1.3-0.4-2.4,1.1-1.7,2.3l7,12.1
	c0.2,0.4,0.7,0.7,1.2,0.8l13.7,1.5C172.5,180.9,173.4,179.9,173.2,178.9z"/>
<path class="st1" d="M166.1,178.8l-12.3,10.4c-0.9,0.8-2.3,0.7-3.2-0.1l-30.2-30.3c-0.2-0.2-0.4-0.4-0.5-0.7l-18.1-40.8
	c-0.6-1.4,0.3-3.1,1.9-3.3c2-0.3,4.4-0.5,5.4,0c10.1,4.6,19.7,26.7,26.8,35.2c6.2,7.4,23.8,21.1,30.2,25.9
	C167.3,176,167.3,177.8,166.1,178.8z"/>
<ellipse transform="matrix(0.9501 -0.312 0.312 0.9501 -49.1288 59.5909)" class="st1" cx="161.7" cy="183.3" rx="12.1" ry="12.1"/>
<path class="st4" d="M345,191.5c1.3-1.3,17.4-20.3,18.9-20.3c0.7,0,13.8,31.6,29,32.1c18.5,0.5,36.1-32.1,36.1-32.1l8.9,14l5,160.5
	L345,347V191.5z"/>
<path class="st4" d="M160.1,244l-5.6-31c0,0,28-19.1,29.5-18.2s8.4,20.9,8.4,20.9L160.1,244z"/>
<path class="st7" d="M385.5,219.8l18.3-0.1c0,0,14.2,67.7,13.6,69.8s-9.3,53.4-9.2,54.6s-12.6,16-12.6,16s-12.8-18.5-13.4-20.5
	s-4.7-46.4-5.7-48S385.5,219.8,385.5,219.8z"/>
<path class="st8" d="M483.2,415.7l17.9,88c0.5,2.2-1,4.4-3.2,4.9c-0.1,0-0.3,0-0.4,0.1c-16.6,1.8-58,14-72.7,9.6
	c-8.5-2.6-16.7-24.8-18.1-29.7c-0.3-0.6-0.5-1.3-0.6-2c-0.5-15.5-6.8-169.8-4.1-191.9s22.2-89.8,27.1-111.9c0.6-2.6,1.2-4.9,1.2-4.9
	l53.8,24.7l0.2,0.1l25.5,9.9c0.8,0.3,1.5,0.9,2,1.7l14.1,22.6c0.2,0.3,0.3,0.5,0.4,0.8l39.3,112.1c0.7,2-0.2,4.2-2.2,5.1l-84,38.9
	c-1.9,0.9-2.9,3.1-2.1,5.1l5.7,16.2C483.1,415.3,483.1,415.5,483.2,415.7z"/>
<path class="st8" d="M362,177.2c0,0,29.5,101.4,29.5,116.9s0.3,182.9-7.5,192.1s-20.4,27.1-34,27.1s-46.6-7.9-46.6-7.9
	c-6.7-1.1-11.2-7.5-10-14.1c0-0.3,0.1-0.5,0.2-0.8l15.8-86.9l5.5-54l-9.3-60.2c0,0-98.5,62.4-101.8,61.8
	c-21.1-3.8-30.3-26.4-30.3-26.4l-27-85.2c0,0,42.7-30.1,43.8-31c4-3,30.8,62.8,30.8,62.8l55.1-55.3L362,177.2z"/>
<path class="st9" d="M360.9,173.4l-9.8,8.7l-6.2,92.5l17.1,8.5v20.6c0,0,26,81.9,27.6,79.4s2-75.9,2-75.9v-13.3l-15.1-65.5
	L360.9,173.4z"/>
<path class="st10" d="M380.6,210.8c0.9-1.8,6.7-13.2,8.9-15.3c1.7-1.6,11.8,0,11.8,0l8.9,14.2c0,0-3.7,9.6-6.6,11
	c-1.5,0.7-8.8,0.4-17.2,0C384.1,220.5,381.4,211.5,380.6,210.8z"/>
<path class="st9" d="M431.4,174.9l8.1,7.3l6.2,92.5l-17.1,8.5v20.6c0,0-26,81.9-27.6,79.4s-2-75.9-2-75.9v-13.3l15.1-65.5
	L431.4,174.9z"/>
<path class="st11" d="M423.6,162.9l7.8,12l-19.2,42.8c0,0-7.8-18-11-22.1C399.8,193.7,423.6,162.9,423.6,162.9z"/>
<polygon class="st12" points="375.4,307.5 382.9,444.6 487,439.9 498.6,306 "/>
<path class="st11" d="M368.7,162.9l-7.8,10.5l18,44.2c0,0,7.1-18,11.8-22.7C392.4,193.4,368.7,162.9,368.7,162.9z"/>
<polygon class="st1" points="418.2,390.8 398.6,377.3 376.4,371.8 379.4,380.7 389.6,385.4 393.7,391.7 380,392.1 379.7,382 
	373.3,381.1 362,395.1 366.4,425.2 385.8,432.1 419.9,415.5 429.8,412.3 450.2,407.3 433.1,386.4 424.2,389.9 "/>
<path class="st4" d="M463.9,417l-31.4,2.2c0,0-16.3-28.7-15.2-30s21.6-6,21.6-6L463.9,417z"/>
<path class="st8" d="M429.3,384.3c2.7,4.2,25.5,56.9,27.4,54.8s98.2-58.4,98.2-58.4l0.2-0.1c6.2-3.7,10-10.4,10.2-17.6l0.3-12.2
	c0,0-21.8-19.2-24.1-19.2s-39.3,9.7-42.7,9.3S429.3,384.3,429.3,384.3z"/>
<circle class="st7" cx="159.2" cy="246.1" r="4.7"/>
<circle class="st7" cx="163.9" cy="261.5" r="4.7"/>
<circle class="st7" cx="478.5" cy="412.7" r="4.7"/>
<circle class="st7" cx="463.9" cy="422.1" r="4.7"/>
</svg>
