<?xml version="1.0" encoding="utf-8"?>
<!-- Generator: Adobe Illustrator 26.0.2, SVG Export Plug-In . SVG Version: 6.00 Build 0)  -->
<svg version="1.1" id="Layer_1" xmlns="http://www.w3.org/2000/svg" xmlns:xlink="http://www.w3.org/1999/xlink" x="0px" y="0px"
	 viewBox="0 0 588 387" style="enable-background:new 0 0 588 387;" xml:space="preserve">
<style type="text/css">
	.st0{fill:#944E31;}
	.st1{fill:#A85B3B;}
	.st2{fill:#6D323A;}
	.st3{fill:none;stroke:#000000;stroke-width:3;stroke-miterlimit:10;}
	.st4{fill:#473415;}
	.st5{fill:#472E1D;}
	.st6{fill:#9C3A26;}
	.st7{fill:#295446;}
	.st8{fill:#873022;}
	.st9{fill:#AFAFAF;}
	.st10{fill:#898989;}
</style>
<g>
	<path class="st0" d="M105.8,75.7c-3.2-9-12-33.2-15.2-42c-0.7-1.9,0.2-3.9,1.9-4.8c3.9-1.9,6.9-4.9,10.8-7.5
		c3.2-2.1,6.9-3.3,10.7-3.5c1.5-0.1,3-0.1,4.2-0.2c1.2,0,2.4,0.1,3.5,0.3s2.7,0.5,4,0.6c2,0.2,6.7,0.3,7.3,2.2l1,7.7
		c0,0.8,0.2,4.2,0.6,4.9l4.6,9.7c0.6,1.1,0.7,2.4,0.2,3.5L128.5,72c-0.5,1.1-1.4,1.9-2.6,2.2l-15.5,3.9
		C108.4,78.6,106.4,77.5,105.8,75.7z"/>
	<polygon points="129.1,358.2 129.2,358.1 129.1,358.1 	"/>
	<polygon points="129.2,358.1 129.3,358.2 129.3,358.1 	"/>
	<polygon points="129.1,358.2 129.2,358.1 129.1,358.1 	"/>
	<polygon points="129.2,358.1 129.3,358.2 129.3,358.1 	"/>
	<path class="st1" d="M414.7,122.4c-0.6,38.4-26.2,33.2-36.9,42.3c-12.6,10.8-8.3,50-17.2,64c-2.5,3.8-11.4,10.1-15.8,9.1
		c-12.5-2.9-24-30.7-34.8-37.7c-6.3-4.1-23.6-3.6-30.2,0c-11.2,6.2-22.3,34.9-34.8,37.7c-4.4,1-13.4-5.2-15.8-9.1
		c-8.9-14-4.6-53.2-17.2-64c-10.6-9.1-36.2-3.9-36.9-42.3c-0.4-26.6,35-37.3,35-37.3l40.1-19.9c2.6-1.3,5-2.9,7.1-4.8
		c0.8-0.7,1.6-1.5,2.3-2.3l0.6-0.7v-0.1c3.9-4.7,6.5-10.4,7.2-16.4c0.2-1.4,0.3-2.8,0.2-4.2v-2.8v-4.5h53.6l0.1,5v1.5v3.2
		c0,0.3,0,0.7,0,1l0,0c0,0.6,0.1,1.3,0.2,2c0.2,1.5,0.5,3.1,0.9,4.6c2.2,7.7,7.6,14,14.7,17.6l40.6,20.1c1,0.5,2.1,1,3.2,1.3
		C387.8,88,415,99.1,414.7,122.4z"/>
	<path class="st1" d="M322.3,77.6l-27.5,32.5L280,92.4l-12.4-14.8l0.7-41.6v-2.2l0.1-4.5h53v0.2l0.1,4.7l0,0v1.6l0.1,4.2l0,0v1.3
		l0.1,6.8L322.3,77.6z"/>
	<path class="st2" d="M322.8,46.9l-1,1.2c-5.2,6.3-28.8,35-41.8,44.3c-3.2,2.3-5.7,3.4-7.2,2.7C266,91.8,258,60,258,60l0.1-0.1
		c0.6-0.6,1.2-1.2,1.7-1.9c0.3-0.4,0.7-0.8,1-1.3l0.1-0.1c3.3-4.5,5.5-9.7,6.7-15.2c0-0.2,0.1-0.4,0.1-0.6c0.3-1.4,0.5-3,0.7-4.8
		c0.1-0.7,0.1-1.4,0.2-2.2c0.1-1.4,0.2-2.9,0.3-4.5h52.7v0.2v4.3v6.7l0.1,0.8l0.1,0.7l0.9,4.6L322.8,46.9z"/>
	<path class="st3" d="M356.8,129.2c11.9,25,40.9,38.8,40.9,38.8s53,32.8,70.4,44c8.2,5.3,25.2,16.6,39-3.6l0,0
		c11.3-16.6-2.8-30.4-10.2-36.2c-15-11.8-47.9-32.6-60.5-46.7c-9.4-10.5-19.8-30.3-43.1-36.2c0,0-18.6-6.9-31.8,8.3l-0.5,0.6
		C353.6,106.7,351.9,118.9,356.8,129.2L356.8,129.2z"/>
	<path class="st0" d="M493.1,174.4c-18.6-7.2-32.7,11.8-37.4,19s-10.7,23.9-13.6,32.1c-7.5,21-17.5,57.3-25.2,77.8
		c-5,13.5-8.1,20.4-0.3,25.9c7,5,16.1-5.8,19.7-9.9c14.8-17.2,44.3-50.4,56.8-70.9c5.2-8.4,14-26.4,16.1-36
		C515.2,185.4,498.5,176.4,493.1,174.4z"/>
	<path class="st0" d="M116.9,239.1c17.7-2.3,21.5-25.6,22.4-34.1s-0.9-26.1-1.8-34.8c-2.3-22.1-10.5-88.8-7.1-110.3
		c2.4-15-25.8-4-25.8-4s1.4,17.9,0.3,28.6c-2.4,22.5-12.1,51.9-17.4,89.1c-1.4,9.8-0.7,29.8,1.4,39.3
		C94.8,239.5,111.8,239.8,116.9,239.1z"/>
	<path class="st3" d="M234.2,129.5c-8.5,26.3-35.5,43.8-35.5,43.8s-48.2,39.4-64.1,52.8c-7.5,6.3-22.8,19.7-39.1,1.5l0,0
		c-13.4-15-1.2-30.5,5.4-37.2c13.3-13.7,43.2-38.6,53.9-54.2c7.9-11.6,15.6-32.7,38-41.5c0,0,17.5-9.3,32.6,4l0.6,0.5
		C234.5,106.7,237.7,118.6,234.2,129.5z"/>
	<polygon class="st0" points="421.9,288.9 405.8,319.9 409.2,332.4 413.2,344.4 418.7,338.4 439.2,316 	"/>
	<polygon points="129.8,362.4 129.9,362.3 129.8,362.3 	"/>
	<polygon points="129.9,362.3 130,362.4 130,362.3 	"/>
	<polygon points="129.8,362.4 129.9,362.3 129.8,362.3 	"/>
	<polygon points="129.9,362.3 130,362.4 130,362.3 	"/>
	<polygon class="st4" points="216.3,334.1 217.8,311.6 372.8,311.6 374.8,331.1 	"/>
	<circle class="st5" cx="363.5" cy="304.9" r="4.7"/>
	<path class="st6" d="M379.5,289.8l7.7-49.9c0.1-0.4,0.1-0.9,0.1-1.3l0.9-57.6c0-2.6,2.9-4.3,5.2-3l45.6,24.6
		c4,2.2,5.9,6.9,4.5,11.2l-22.3,70c-0.3,0.9,0.1,1.8,1,2.2l33.9,15.3c0.8,0.3,1.7,0.1,2.2-0.6l46.4-62.9c0.7-0.9,1.2-2,1.5-3.1
		l12-43.2c1-3.4-0.1-7.1-2.7-9.5l-91.8-82.7c-9.1-8.2-19.9-14.2-31.6-17.6l-40.9-12c-2.4-0.7-5-0.4-7.1,0.7l-43.2,23.1
		c-2.9,1.5-6.3,1.5-9.1-0.1l-43.9-24.7c-2.7-1.5-5.9-1.6-8.6-0.3l-39.9,18.5c-8.7,4-16.7,9.6-23.5,16.4l-12,12.1
		c-0.2,0.2-0.4,0.4-0.6,0.7L138.9,147l-5.6-26.9c-0.6-1.9-2.5-3-4.3-2.4l-30.8,10.7c-3.3,1.2-5.7,4.1-6.3,7.6L80,215.2
		c-0.5,3.2,0.7,6.4,3.1,8.5l21.3,18.8c3.2,2.8,7.8,3.2,11.4,0.9l84-53.7c2.2-1.4,5.1,0.1,5.2,2.7l2.3,59.4l2.5,31.5"/>
	<path class="st7" d="M209.8,283.3l1.2,14.5c0,0.2,0,0.4,0,0.6l-13,91.1c0.2,9.2,7,16.7,15.8,18c3.3,0.5,6.5,1,9.7,1.7l40.6,6.2
		c24.9,5.8,50.9,5.1,75.5-2.1l39.5-8.9c11.3-0.3,19.7-10.5,17.9-21.6l-17.4-90c-0.2-1-0.2-2,0-3"/>
	<path class="st0" d="M419.7,325.6c2,3.2,3.1,9-3,14.8c0,0-17.6,20.2-25.4,24.3c-3.5,1.8-12.8,6.3-15.4,3.3
		c-7.3-8.4-12.1-28.6-9.7-41.7c0.7-3.9,9.4-8,13.3-8.8c4.3-0.8,13,2.6,17.3,2.8c2.4,0,4.8-0.1,7.2-0.4
		C410,319.4,416.9,321.2,419.7,325.6z"/>
	<path class="st7" d="M217.6,70.3l2.6-1.1c3.8-1.6,8.1,0.4,9.2,4l20.7,64.9c0.4,1.5-0.4,3.1-2,3.6l-6.5,2.1c-1.7,0.5-3.4-0.3-4-1.9
		l-23.7-64C212.6,75.1,214.3,71.7,217.6,70.3z"/>
	<path class="st7" d="M387.6,76.3l-1.1-0.4c-4.1-1.8-8.9,0.4-10.4,4.6L356,144.9c-0.6,1.9,0.4,3.9,2.4,4.6l5.3,1.8
		c2,0.7,4.3-0.3,5-2.3l23.1-63.6C393,81.7,391.1,77.8,387.6,76.3z"/>
	<circle class="st7" cx="247.7" cy="150.3" r="5.3"/>
	<circle class="st7" cx="358.2" cy="157.7" r="5.3"/>
	<path class="st7" d="M237.3,165.3l128,6.7c3.5,0.1,6.5,2.7,7.5,6.1l8.9,34.8c0.1,0.7,0.3,1.3,0.3,2V282H208l2.3-69.1
		c0-1.1,0.3-2.1,0.7-3.1l18.3-39.7C230.9,167,233.9,165.2,237.3,165.3z"/>
	<path class="st7" d="M252.6,169l-9.5-0.6c-2.1-0.1-3.7-2-3.5-4.1l0.1-3.1c0.1-2.1,2-3.7,4.1-3.5l9.5,0.6c2.1,0.1,3.7,2,3.5,4.1
		l-0.1,3.1C256.6,167.4,254.8,169,252.6,169z"/>
	<path class="st7" d="M359.2,179.1l-10.6-1.6c-2.3-0.3-4-2.4-3.5-4.8l0.7-5c0.3-2.3,2.4-4,4.8-3.5l10.6,1.6c2.3,0.3,4,2.4,3.5,4.8
		l-0.7,5C363.6,177.8,361.5,179.5,359.2,179.1z"/>
	<path class="st6" d="M251.5,194.3l-2.7,31.9l35.3,10.8c9.4,2.8,19.4,3.5,29.1,2.1l36-5.5l1.4-32.5L251.5,194.3z"/>
	<path class="st8" d="M251.5,194l-3.3,15.8l48.8,8.9c2,0.4,4.1,0.4,6.1,0.3l48.4-5v-16.6L251.5,194z"/>
	<path class="st8" d="M380.6,294.6H209.3c-1.7,0-3-1.3-3-3V275c0-1.7,1.3-3,3-3h171.3c1.7,0,3,1.3,3,3v16.6
		C383.6,293.3,382.2,294.6,380.6,294.6z"/>
	<path class="st8" d="M202.9,287.2c0,0-20.8,58.2-15.4,63.8s59.2,11.7,63.9,8.1c4.7-3.6,10.7-67.7,10.7-67.7L202.9,287.2z"/>
	<path class="st9" d="M229.1,312.1l-3.6,0.5c-1.1,0.1-2.1-0.6-2.2-1.7l-6.1-45.1c-0.1-1.1,0.6-2.1,1.7-2.2l3.6-0.5
		c1.1-0.1,2.1,0.6,2.2,1.7l6.1,45.1C231,310.9,230.2,311.9,229.1,312.1z"/>
	<path class="st9" d="M233.3,312.5L233.3,312.5c-1.1,0-2-0.9-2-2v-35.6c0-1.1,0.9-2,2-2l0,0c1.1,0,2,0.9,2,2v35.6
		C235.2,311.6,234.4,312.5,233.3,312.5z"/>
	<path class="st9" d="M238.9,312.3l-1.6-0.4c-1.1-0.3-1.7-1.3-1.5-2.4l5.8-24.3c0.3-1.1,1.3-1.7,2.4-1.5l1.6,0.4
		c1.1,0.3,1.7,1.3,1.5,2.4l-5.8,24.3C241,311.9,239.9,312.6,238.9,312.3z"/>
	<path class="st6" d="M203.4,291.4c0,0-20.4,56.4-12.4,58.5s49.1,10.5,54.6,6.4c5.4-4.1,4.3-60.6,4.3-60.6L203.4,291.4z"/>
	<path class="st10" d="M46,55.8l92.4-34.9c0.8-0.3,1.4-0.8,1.9-1.5L150.2,5c0.6-0.8,1.4-1.4,2.3-1.6L171-1.2c1.2-0.3,2.6,0,3.6,0.9
		l10.7,9.1c1,0.9,1.6,2.2,1.4,3.5l-0.9,8.2c-0.3,2.9-3.6,4.5-6,2.9l0,0c-1.3-0.7-2-2.1-2-3.5l0.1-3.8c0-1.2-0.5-2.4-1.5-3.2L172,9.3
		c-0.8-0.7-2-1-3.1-0.9L158,9.7c-1.1,0.1-2.1,0.7-2.7,1.6L147.4,22c-0.1,0.1-0.2,0.3-0.4,0.5l-0.7,0.7c-2.5,2.5-0.7,7,3,6.8l4.3-0.1
		c0.9,0,1.9,0.3,2.6,0.9l3.7,2.9c3,2.3,1.3,7.2-2.5,7.1L141.6,41c-0.9,0-1.8,0.4-2.6,0.9L70.2,99.4c-1.7,1.5-4.4,1.2-5.8-0.7
		L63.9,98c-1.2-1.7-0.9-4.2,0.7-5.5L126,43.2c0.8-0.6,1.2-1.5,1.5-2.4l0.2-0.8c0.6-3.2-2.5-5.7-5.5-4.5L49.4,65.6
		c-2.4,1-5-0.5-5.5-2.9l-0.5-2.4C43.1,58.4,44.1,56.4,46,55.8z"/>
	<path class="st0" d="M91.3,31c0.3,0,9.2,16.7,10.5,24.2c0.3,1.6,2,2.6,3.6,2l0.4-0.2c1.1-0.4,1.8-1.6,1.6-2.7L102.3,33
		c-0.1-0.5,0.9-0.9,1.1-0.4l6.9,17.8c0.4,1.5,2.1,2.3,3.6,1.7h0c1.2-0.4,1.8-1.6,1.6-2.8L111,31.5c-0.1-0.7,0.6-1.3,0.8-0.6l5,15.4
		c0.5,1.4,2.1,2.2,3.5,1.6l1-0.4c1.3-0.5,1.9-1.8,1.6-3.1l-3.9-15.4c-0.2-0.6,1.4-1.1,1.7-0.6l4.3,12.1c0.6,1.3,2.1,1.9,3.4,1.4
		l1.9-0.7c1.4-0.5,2.1-2.4,1.6-3.7l-2.7-17.2"/>
	<path class="st0" d="M139.2,43.1l-0.5-1c-0.8-1.6-2.9-2.1-4.4-1.2l-13.4,8.5c-0.7,0.4-1.2,1.1-1.3,1.9v0c-0.5,2.3,1.5,4.3,3.8,3.7
		l2.9-0.7c1.9-0.5,3.8,0.9,3.8,2.9l0.1,2.4"/>
</g>
</svg>
