<?xml version="1.0" encoding="utf-8"?>
<!-- Generator: Adobe Illustrator 26.0.2, SVG Export Plug-In . SVG Version: 6.00 Build 0)  -->
<svg version="1.1" id="Calque_1" xmlns="http://www.w3.org/2000/svg" xmlns:xlink="http://www.w3.org/1999/xlink" x="0px" y="0px"
	 viewBox="0 0 588 387" style="enable-background:new 0 0 588 387;" xml:space="preserve">
<style type="text/css">
	.st0{fill:#563935;}
	.st1{fill:#A85B3B;}
	.st2{fill:#6D323A;}
	.st3{fill:none;stroke:#000000;stroke-width:3;stroke-miterlimit:10;}
	.st4{fill:#434957;}
	.st5{fill:#547687;}
	.st6{fill:#634B47;}
	.st7{fill:#7081AF;}
	.st8{fill:#293040;}
	.st9{fill:#343D4F;}
	.st10{fill:#7787B3;}
	.st11{fill:#FFFFFF;}
	.st12{fill:#95ACBA;}
</style>
<polygon points="130.3,364.1 130.4,364.1 130.3,364 "/>
<polygon points="130.4,364.1 130.5,364.1 130.5,364 "/>
<polygon points="130.3,364.1 130.4,364.1 130.3,364 "/>
<polygon points="130.4,364.1 130.5,364.1 130.5,364 "/>
<path class="st0" d="M415.8,128.4c-0.6,38.4-26.2,33.2-36.9,42.3c-12.6,10.8-8.3,50-17.2,64c-2.5,3.8-11.4,10.1-15.8,9.1
	c-12.5-2.9-24-30.7-34.8-37.7c-6.3-4.1-23.6-3.6-30.2,0c-11.2,6.2-22.3,34.9-34.8,37.7c-4.4,1-13.4-5.2-15.8-9.1
	c-8.9-14-4.6-53.2-17.2-64c-10.6-9.1-36.2-3.9-36.9-42.3c-0.4-26.6,35-37.3,35-37.3l40.1-19.9c9.8-4.8,16.3-14.4,17.4-25.2
	c0-0.3,0-0.6,0.1-0.9s0-0.5,0-0.8s0-0.3,0-0.5c0-0.4,0-0.8,0-1.2v-2.3v-4.7l-0.1-8.7l1.6,0.1l25,1.9l26.2-2l0.7-0.1l0.1,8.7v2.2
	l0.1,7.1c0.1,10.7,6.2,20.4,15.8,25.1l40.5,20.1c1,0.5,2.1,1,3.2,1.3C389,93.9,416.2,105.1,415.8,128.4z"/>
<polygon class="st1" points="324.3,83.6 296.8,116.1 269.6,83.6 269.8,71.9 270.4,35.7 270.6,27 295.6,29 321.8,27 321.9,25.4 
	323.3,25.6 323.5,35.7 323.7,51.9 "/>
<path class="st2" d="M321.8,27l-0.2,8.7l-0.2,9.4L308,59.3c0,0-23.5,19.8-31.6,15.9c-2-1-4.3-2.1-6.5-3.3
	c-5.5-2.9-10.7-5.9-10.7-5.9c0.6-0.6,1.3-1.3,1.8-1.9c3.9-4.8,6.5-10.5,7.8-16.5c0-0.1,0.1-0.3,0.1-0.5c0,0,0-0.1,0-0.1
	c0-0.3,0.1-0.6,0.1-1s0-0.6,0.1-0.9s0-0.5,0-0.8s0-0.3,0-0.5c0-0.7,0-1.4,0-2.1v-1.3c0-0.6,0-1.2,0-1.9c0-1,0-1.9,0-2.8l0,0
	l-0.1-8.7l1.6,0.1l25,1.9L321.8,27z"/>
<path class="st3" d="M356.2,120.9c-1.3,27.6,17.7,53.5,17.7,53.5s31.2,53.9,41.3,72c4.8,8.5,14.4,26.5,36,15.2l0,0
	c17.8-9.3,11.9-28.1,8.1-36.7c-7.6-17.5-26.8-51.4-31.2-69.8c-3.3-13.7-3.1-36.1-20.9-52.3c0,0-13.1-14.9-31.9-7.7l-0.7,0.3
	C364,99.4,356.8,109.4,356.2,120.9L356.2,120.9z"/>
<path class="st1" d="M107.5,229.4C88,233,77.6,211.7,74.3,203.8s-6.1-25.5-7.4-34.1c-3.5-22.1-6.6-59.6-10.3-81.1
	C54.1,74.4,52.4,67,61,63c7.9-3.6,14.8,8.6,17.6,13.4c11.4,19.6,34.2,57.7,42.7,80.2c3.5,9.2,8.9,28.5,9.1,38.4
	C131.3,222.6,113.2,228.4,107.5,229.4z"/>
<path class="st3" d="M233.7,139.1c-11.9,25-40.9,38.8-40.9,38.8s-52.9,32.8-70.4,44c-8.2,5.3-25.2,16.6-38.9-3.6l0,0
	c-11.3-16.6,2.8-30.4,10.2-36.2c15-11.8,47.9-32.6,60.5-46.7c9.4-10.5,19.8-30.3,43.1-36.2c0,0,18.6-6.9,31.8,8.2l0.5,0.6
	C237,116.7,238.7,128.9,233.7,139.1L233.7,139.1z"/>
<polygon class="st4" points="216.7,335.9 218.2,313.4 373.2,313.4 375.2,332.9 "/>
<polygon class="st5" points="294.6,374.4 289.6,334.4 304.6,334.4 303.6,366.7 "/>
<path class="st6" d="M462.1,229.3c-9-17.7-32.2-13-40.5-10.8s-23.9,10.7-31.6,14.8c-19.7,10.6-51.3,31-70.7,41.1
	c-12.7,6.7-19.6,9.8-17.6,19.1c1.9,8.4,15.8,6.5,21.3,5.8c22.5-2.9,66.6-8,89.7-14.9c9.5-2.8,28-10.3,36-16.1
	C471.1,252.3,464.7,234.4,462.1,229.3z"/>
<path class="st1" d="M73.2,63.5l-3.6-17.9c0-0.1-0.1-0.3-0.1-0.4l-12-23.4c-0.5-0.9-1.6-1.1-2.4-0.5c-1.4,1.1-3.2,2.8-3.4,3.9
	c-1.2,5.4,1.9,13.7,3.5,18.9c0.2,0.7-0.6,4-1.2,4.4c-0.7,0.5-1.7,0.5-2.6,0.2c-1.3-0.4-2.4,1.1-1.7,2.3l7,12.1
	c0.2,0.4,0.7,0.7,1.2,0.8l13.7,1.5C72.6,65.5,73.4,64.5,73.2,63.5z"/>
<path class="st1" d="M66.2,63.4L53.9,73.8c-0.9,0.8-2.3,0.7-3.2-0.1L20.4,43.3c-0.2-0.2-0.4-0.4-0.5-0.7L1.9,1.8
	C1.2,0.4,2.2-1.3,3.7-1.5c2-0.3,4.4-0.5,5.4,0c10.1,4.6,19.7,26.7,26.8,35.2c6.2,7.4,23.8,21.1,30.2,25.9
	C67.3,60.6,67.3,62.4,66.2,63.4z"/>
<ellipse transform="matrix(0.9501 -0.312 0.312 0.9501 -18.1091 22.6411)" class="st1" cx="61.7" cy="67.9" rx="12.1" ry="12.1"/>
<path class="st4" d="M245,76.1c1.3-1.3,17.4-20.3,18.9-20.3c0.7,0,13.8,31.6,29,32c18.5,0.5,36.1-32,36.1-32l8.9,14l5,160.5
	l-97.9,1.3V76.1z"/>
<path class="st4" d="M60.1,128.6l-5.6-31c0,0,28-19.1,29.5-18.2s8.4,20.9,8.4,20.9L60.1,128.6z"/>
<path class="st7" d="M285.6,104.4l18.3-0.1c0,0,14.2,67.7,13.6,69.8s-9.3,53.4-9.2,54.6s-12.6,16-12.6,16s-12.8-18.5-13.4-20.5
	s-4.7-46.4-5.7-48S285.6,104.4,285.6,104.4z"/>
<path class="st8" d="M383.2,300.3l17.9,88c0.5,2.2-1,4.4-3.2,4.9c-0.1,0-0.3,0-0.4,0.1c-16.6,1.8-58,14-72.7,9.6
	c-8.5-2.6-16.7-24.8-18.1-29.7c-0.3-0.6-0.5-1.3-0.6-2c-0.5-15.5-6.8-169.8-4.1-191.8s22.2-89.8,27.1-111.9c0.6-2.6,1.2-4.9,1.2-4.9
	L384,87.1l0.2,0.1l25.5,9.9c0.8,0.3,1.5,0.9,2,1.7l14.1,22.6c0.2,0.3,0.3,0.5,0.4,0.8l39.3,112.2c0.7,2-0.2,4.2-2.2,5.1l-84,38.9
	c-1.9,0.9-2.9,3.1-2.1,5.1l5.7,16.2C383.1,299.9,383.2,300.1,383.2,300.3z"/>
<path class="st8" d="M262,61.8c0,0,29.5,101.4,29.5,116.9s0.3,182.9-7.5,192.1s-20.4,27.1-34,27.1c-13.6,0-46.6-7.9-46.6-7.9
	c-6.7-1.1-11.2-7.5-10-14.1c0-0.3,0.1-0.5,0.2-0.8l15.8-86.9l5.5-54l-9.3-60.2c0,0-98.5,62.4-101.8,61.8
	c-21.1-3.8-30.3-26.4-30.3-26.4l-27-85.2c0,0,42.7-30.1,43.8-31c4-3,30.8,62.8,30.8,62.8l55.1-55.3L262,61.8z"/>
<path class="st9" d="M261,58l-9.8,8.7l-6.2,92.5l17.1,8.5v20.6c0,0,26,81.9,27.6,79.4s2-75.9,2-75.9v-13.3l-15.1-65.5L261,58z"/>
<path class="st10" d="M280.6,95.4c0.9-1.8,6.7-13.2,8.9-15.3c1.7-1.6,11.8,0,11.8,0l8.9,14.2c0,0-3.7,9.6-6.6,11
	c-1.5,0.7-8.8,0.4-17.2,0C284.1,105.1,281.5,96.1,280.6,95.4z"/>
<path class="st9" d="M331.5,59.5l8.1,7.3l6.2,92.5l-17.1,8.5v20.6c0,0-26,81.9-27.6,79.4s-2-75.9-2-75.9v-13.3l15.1-65.5L331.5,59.5
	z"/>
<path class="st11" d="M323.7,47.5l7.8,12l-19.2,42.8c0,0-7.8-18-11-22.1C299.8,78.3,323.7,47.5,323.7,47.5z"/>
<polygon class="st12" points="275.4,192.1 282.9,329.2 387,324.5 398.6,190.6 "/>
<path class="st11" d="M268.7,47.5L261,58l18,44.2c0,0,7.1-18,11.8-22.7C292.5,78,268.7,47.5,268.7,47.5z"/>
<polygon class="st1" points="318.2,275.4 298.7,261.9 276.5,256.4 279.4,265.3 289.6,270 293.7,276.3 280,276.7 279.7,266.5 
	273.4,265.6 262,279.7 266.4,309.8 285.8,316.7 320,300 329.8,296.9 350.2,291.9 333.1,271 324.3,274.5 "/>
<path class="st4" d="M364,301.6l-31.4,2.2c0,0-16.3-28.7-15.2-30s21.6-6,21.6-6L364,301.6z"/>
<path class="st8" d="M329.3,268.9c2.7,4.2,25.5,56.9,27.4,54.8s98.2-58.4,98.2-58.4l0.2-0.1c6.2-3.7,10-10.4,10.2-17.6l0.3-12.2
	c0,0-21.8-19.2-24.1-19.2s-39.3,9.7-42.7,9.3S329.3,268.9,329.3,268.9z"/>
<circle class="st7" cx="59.2" cy="130.7" r="4.7"/>
<circle class="st7" cx="63.9" cy="146.1" r="4.7"/>
<circle class="st7" cx="378.5" cy="297.3" r="4.7"/>
<circle class="st7" cx="364" cy="306.7" r="4.7"/>
</svg>
