<?xml version="1.0" encoding="utf-8"?>
<!-- Generator: Adobe Illustrator 26.0.2, SVG Export Plug-In . SVG Version: 6.00 Build 0)  -->
<svg version="1.1" id="Calque_1" xmlns="http://www.w3.org/2000/svg" xmlns:xlink="http://www.w3.org/1999/xlink" x="0px" y="0px"
	 viewBox="0 0 788 1005" style="enable-background:new 0 0 788 1005;" xml:space="preserve">
<style type="text/css">
	.st0{fill:#635132;}
	.st1{fill:#FFFFFF;}
	.st2{fill:#1F1A19;}
	.st3{fill:#AD717F;}
</style>
<g id="Calque_7">
	<path class="st0" d="M400.5,91.3c0.1,0.4,0.1,0.9,0.1,1.2c0.1,0.6,0.4,1,1,1.1l2.2,0.6c0.2,0,0.3,0,0.6,0l14.8-3c0.2,0,0.3,0,0.6,0
		c1.3,0.3,7.9,1.8,7.9,1.7s1.2,0.4,2.3,1c0.9,0.4,1.9-0.3,1.8-1.3l0,0c0-0.4-0.3-0.8-0.7-1c-2.3-1.1-10.5-5-10.6-4.9
		c-0.2,0.1-8.3,0.7-9.5,0.8c-0.1,0-0.1,0-0.2,0l-9.2,2.4C400.7,90.1,400.4,90.6,400.5,91.3z"/>
	<path class="st0" d="M388.6,91.3c-0.1,0.4-0.1,0.9-0.1,1.2c-0.1,0.6-0.4,1-1,1.1l-2.2,0.6c-0.2,0-0.3,0-0.6,0l-14.8-3
		c-0.2,0-0.3,0-0.6,0c-1.3,0.3-7.9,1.8-7.9,1.7s-1.2,0.4-2.3,1c-0.9,0.4-1.9-0.3-1.8-1.3l0,0c0-0.4,0.3-0.8,0.7-1
		c2.3-1.1,10.5-5,10.6-4.9c0.2,0.1,8.3,0.7,9.5,0.8c0.1,0,0.1,0,0.2,0l9.2,2.4C388.4,90.1,388.7,90.6,388.6,91.3z"/>
	<path class="st1" d="M364.5,102c0,2.9,2.4,5.1,7.5,5.1s9-1.8,9-4.6c0-1.2-4.3-3.7-4.3-3.7c-2.2-0.4-3.8,0.7-6.6,0.4
		C367.3,99.1,364.5,102,364.5,102z"/>
	<path class="st2" d="M367.4,102c0,2.8,2.1,5,4.9,5.1h0.2c0.2,0,0.4,0,0.7,0c2.8-0.3,4.8-2.9,4.5-5.7l0,0c0-0.3-0.1-0.7-0.2-1
		c-0.1-0.4-0.3-0.8-0.6-1.1c-0.2-0.2-0.3-0.6-0.7-0.8c-1.7,0-5.5-0.1-7.2-0.1c-0.4,0.4-0.8,0.9-1,1.3l-0.1,0.2
		C367.6,100.7,367.4,101.3,367.4,102z"/>
	<path class="st2" d="M362.5,104.1h1.8l1.8,1.1l0,0l-1.3-2.3l-0.1-0.2v-0.1l3.1-2.8h0.1c1.1-0.1,8.9-0.8,9.4,0l0.2,0.3
		c0.6,0.7,2,2.1,3.2,3.3c1.2,1.2,2,2,2,2l-0.2-2.1l-1.3-1.4c0,0-2.6-3.3-3.9-3.9c-2.1-0.9-9.1,0.2-9.2,0.3c-0.2,0.1-4.6,3.6-5,4.9
		C362.9,103.6,362.8,103.8,362.5,104.1z"/>
	<path class="st3" d="M411.3,143.5l-7.8,5.9c-0.2,0.1-0.4,0.2-0.7,0.2l-7.2,1.1c-0.1,0-0.3,0-0.4,0l-7.1-1.1c-0.2,0-0.4-0.1-0.7-0.2
		l-7.8-5.9c-0.1-0.1-0.1-0.3,0.1-0.3l4.2,0.3l6.3,0.6c0.1,0,0.1,0,0.2,0l4.6,1c0.2,0,0.4,0,0.6,0l4.7-1c0.1,0,0.1,0,0.2,0l6.3-0.6
		l4.2-0.3C411.3,143.1,411.4,143.4,411.3,143.5z"/>
</g>
<path class="st2" d="M428.3,106.3l-4.1-1.3c0,0-10.1,0.1-10.6,0.6c0,0-2.3,0.8-3.8,1.4c-1.4,0.8-3.1,0.3-3.1,0.3l0.2-1.3
	c0,0,4-3.3,5.6-3.7c2.6-0.6,11.2,0.7,11.4,0.7c0.3,0.1,5.3,2.1,5.9,2.9C430,106.1,428.3,106.3,428.3,106.3z"/>
</svg>
