<?xml version="1.0" encoding="utf-8"?>
<!-- Generator: Adobe Illustrator 26.0.2, SVG Export Plug-In . SVG Version: 6.00 Build 0)  -->
<svg version="1.1" id="Calque_1" xmlns="http://www.w3.org/2000/svg" xmlns:xlink="http://www.w3.org/1999/xlink" x="0px" y="0px"
	 viewBox="0 0 158 103.1" style="enable-background:new 0 0 158 103.1;" xml:space="preserve">
<style type="text/css">
	.st0{fill:#635132;}
	.st1{fill:#DFB0A4;}
	.st2{fill:#1F1A19;}
	.st3{fill:#AD717F;}
</style>
<g id="Calque_7">
	<path class="st0" d="M84.4,27.4c0.1,0.4,0.1,0.8,0.1,1.1c0.1,0.5,0.4,0.9,0.9,1l2,0.5c0.2,0,0.3,0,0.5,0l13.3-2.7
		c0.2,0,0.3,0,0.5,0c1.2,0.3,7.1,1.6,7.1,1.5s1.1,0.4,2.1,0.9c0.8,0.4,1.7-0.3,1.6-1.2l0,0c0-0.4-0.3-0.7-0.6-0.9
		c-2.1-1-9.4-4.5-9.5-4.4c-0.2,0.1-7.5,0.6-8.5,0.7c-0.1,0-0.1,0-0.2,0l-8.3,2.2C84.6,26.3,84.3,26.8,84.4,27.4z"/>
	<path class="st0" d="M73.6,27.4c-0.1,0.4-0.1,0.8-0.1,1.1c-0.1,0.5-0.4,0.9-0.9,1l-2,0.5c-0.2,0-0.3,0-0.5,0l-13.3-2.7
		c-0.2,0-0.3,0-0.5,0c-1.2,0.3-7.1,1.6-7.1,1.5s-1.1,0.4-2.1,0.9c-0.8,0.4-1.7-0.3-1.6-1.2l0,0c0-0.4,0.3-0.7,0.6-0.9
		c2.1-1,9.4-4.5,9.5-4.4c0.2,0.1,7.5,0.6,8.5,0.7c0.1,0,0.1,0,0.2,0l8.3,2.2C73.4,26.3,73.7,26.8,73.6,27.4z"/>
	<path class="st1" d="M52.1,37c0,2.6,2.2,4.6,6.7,4.6s8.1-1.6,8.1-4.1c0-1.1-3.9-3.3-3.9-3.3c-2-0.4-3.4,0.6-5.9,0.4
		S52.1,37,52.1,37z"/>
	<path class="st2" d="M54.7,37c0,2.5,1.9,4.5,4.4,4.6h0.2c0.2,0,0.4,0,0.6,0c2.5-0.3,4.3-2.6,4-5.1l0,0c0-0.3-0.1-0.6-0.2-0.9
		c-0.1-0.4-0.3-0.7-0.5-1c-0.2-0.2-0.3-0.5-0.6-0.7c-1.5,0-4.9-0.1-6.5-0.1c-0.4,0.4-0.7,0.8-0.9,1.2l-0.1,0.2
		C54.7,35.8,54.7,36.4,54.7,37z"/>
	<path class="st2" d="M50.2,38.9h1.6l1.6,1l0,0l-1.2-2.1l-0.1-0.2v-0.1l2.8-2.5H55c1-0.1,8-0.7,8.4,0l0.2,0.3c0.5,0.6,1.8,1.9,2.9,3
		s1.8,1.8,1.8,1.8l-0.2-1.9l-1.2-1.3c0,0-2.3-3-3.5-3.5c-1.9-0.8-8.2,0.2-8.3,0.3c-0.2,0.1-4.1,3.2-4.5,4.4
		C50.6,38.4,50.4,38.6,50.2,38.9z"/>
	<path class="st3" d="M93.6,74.7l-6.6,5c-0.1,0.1-0.3,0.2-0.5,0.2l-6.6,1c-0.1,0-0.2,0-0.3,0l-6.5-1c-0.2,0-0.3-0.1-0.5-0.2
		l-6.8-5.2C65.6,74.3,65.7,74,66,74l3.4,0.3l5.7,0.5c0,0,0.1,0,0.1,0l4.2,0.9c0.1,0,0.3,0,0.5,0l4.3-0.9c0,0,0.1,0,0.1,0l5.8-0.5
		l3.1-0.3C93.7,74,93.9,74.5,93.6,74.7z"/>
</g>
<path class="st2" d="M109.3,40.9l-3.7-1.2c0,0-9.1,0.1-9.5,0.5c0,0-2.1,0.7-3.4,1.3c-1.3,0.7-2.8,0.3-2.8,0.3l0.2-1.2
	c0,0,3.6-3,5-3.3c2.3-0.5,10.1,0.6,10.2,0.6c0.3,0.1,4.8,1.9,5.3,2.6C110.8,40.7,109.3,40.9,109.3,40.9z"/>
</svg>
