<?xml version="1.0" encoding="utf-8"?>
<!-- Generator: Adobe Illustrator 26.0.2, SVG Export Plug-In . SVG Version: 6.00 Build 0)  -->
<svg version="1.1" id="Calque_1" xmlns="http://www.w3.org/2000/svg" xmlns:xlink="http://www.w3.org/1999/xlink" x="0px" y="0px"
	 viewBox="0 0 788 1005" style="enable-background:new 0 0 788 1005;" xml:space="preserve">
<style type="text/css">
	.st0{fill:#6B313A;}
	.st1{fill:#FFFFFF;}
	.st2{fill:#1F1A19;}
	.st3{fill:#635132;}
	.st4{fill:#E2E2E2;}
	.st5{fill:#D1D1D1;}
</style>
<g id="Calque_7">
	<polygon class="st0" points="409.8,143 401.5,149.4 394.3,151.5 387,149.4 378.8,143 383.3,140.8 389.5,141.9 394.3,142 399,141.9 
		405.1,140.8 	"/>
	<path class="st1" d="M424.9,100.4c0,2.9-2.5,5.2-7.6,5.2s-9.2-1.8-9.2-4.6c0-1.2,4.4-3.7,4.4-3.7c2.3-0.5,3.8,0.7,6.7,0.5
		C422.1,97.5,424.9,100.4,424.9,100.4z"/>
	<path class="st2" d="M422.1,100.4c0,2.8-2.2,5.1-5,5.2h-0.2c-0.2,0-0.5,0-0.7,0c-2.8-0.3-4.9-2.9-4.5-5.8l0,0c0-0.3,0.1-0.7,0.2-1
		c0.1-0.5,0.3-0.8,0.6-1.1c0.2-0.2,0.3-0.6,0.7-0.8c1.7,0,5.5-0.1,7.4-0.1c0.5,0.5,0.8,0.9,1,1.4l0.1,0.2
		C421.9,99.1,422.1,99.7,422.1,100.4z"/>
	<path class="st2" d="M427.1,102.6h-1.8l-1.8,1.1l0,0l1.4-2.4h0.1v-0.1l-3.2-2.8h-0.1c-1.1-0.1-9.1-0.8-9.5,0l-0.2,0.3
		c-0.6,0.7-2,2.2-3.3,3.4s-2,2-2,2l0.2-2.2l1.4-1.5c0,0,2.6-3.4,4-4c2.2-0.9,9.3,0.2,9.4,0.3c0.2,0.1,4.6,3.6,5.1,5
		C426.8,102.1,426.9,102.3,427.1,102.6z"/>
	<path class="st3" d="M400.6,89.6c0.1,0.5,0.1,0.9,0.1,1.2c0.1,0.6,0.5,1,1,1.1l2.3,0.6c0.2,0,0.3,0,0.6,0l15.1-3.1
		c0.2,0,0.3,0,0.6,0c1.4,0.3,8,1.8,8,1.7s1.2,0.5,2.4,1c0.9,0.5,1.9-0.3,1.8-1.4l0,0c0-0.5-0.3-0.8-0.7-1c-2.4-1.1-10.6-5.1-10.8-5
		c-0.2,0.1-8.5,0.7-9.6,0.8c-0.1,0-0.1,0-0.2,0l-9.4,2.5C400.8,88.3,400.5,88.9,400.6,89.6z"/>
	<path class="st3" d="M388.5,89.6c-0.1,0.5-0.1,0.9-0.1,1.2c-0.1,0.6-0.5,1-1,1.1l-2.3,0.6c-0.2,0-0.3,0-0.6,0l-15.1-3.1
		c-0.2,0-0.3,0-0.6,0c-1.4,0.3-8,1.8-8,1.7s-1.2,0.5-2.4,1c-0.9,0.5-1.9-0.3-1.8-1.4l0,0c0-0.5,0.3-0.8,0.7-1
		c2.4-1.1,10.6-5.1,10.8-5c0.2,0.1,8.5,0.7,9.6,0.8c0.1,0,0.1,0,0.2,0l9.4,2.5C388.3,88.3,388.6,88.9,388.5,89.6z"/>
	<path class="st1" d="M364,100.4c0,2.9,2.5,5.2,7.6,5.2s9.2-1.8,9.2-4.6c0-1.2-4.4-3.7-4.4-3.7c-2.3-0.5-3.8,0.7-6.7,0.5
		C366.9,97.5,364,100.4,364,100.4z"/>
	<path class="st2" d="M367,100.4c0,2.8,2.2,5.1,5,5.2h0.2c0.2,0,0.5,0,0.7,0c2.8-0.3,4.9-2.9,4.5-5.8l0,0c0-0.3-0.1-0.7-0.2-1
		c-0.1-0.5-0.3-0.8-0.6-1.1c-0.2-0.2-0.3-0.6-0.7-0.8c-1.7,0-5.5-0.1-7.4-0.1c-0.5,0.5-0.8,0.9-1,1.4l-0.1,0.2
		C367.1,99.1,367,99.7,367,100.4z"/>
	<path class="st2" d="M362,102.6h1.8l1.8,1.1l0,0l-1.4-2.4l-0.1-0.2V101l3.2-2.8h0.1c1.1-0.1,9.1-0.8,9.5,0l0.2,0.3
		c0.6,0.7,2,2.2,3.3,3.4s2,2,2,2l-0.2-2.2l-1.4-1.5c0,0-2.6-3.4-4-4c-2.2-0.9-9.3,0.2-9.4,0.3c-0.2,0.1-4.6,3.6-5.1,5
		C362.3,102,362.2,102.2,362,102.6z"/>
</g>
<path class="st4" d="M362.8,125.2c7-4.1,18.5-9.9,23.4-12.2c1.6-0.8,3.4-1.2,5.2-1.2h8c1.9,0,4,0.5,5.7,1.5l20.7,11.3
	c4.2,2.3,6.6,6.9,6.1,11.7l-1.1,10.8c-0.3,2.9-1.7,5.7-4,7.6l-16.8,14.7c-2.2,1.9-4.9,2.9-7.8,2.9h-15.4c-2.8,0-5.5-1-7.7-2.8
	l-18.1-15.5c-2.6-2.3-4.1-5.5-4.1-8.9v-9.5C357,131.2,359.2,127.4,362.8,125.2z"/>
<path class="st5" d="M358.9,143.7c2.8-0.8,21.9,7,23.4,7.8c1.6,0.8,22-0.1,23.8,0s18.1-5.4,21.3-6.7s-0.8,7.1-0.8,7.1L408,168.7
	h-26.4l-18.7-16.9L358.9,143.7z"/>
</svg>
