<?xml version="1.0" encoding="utf-8"?>
<!-- Generator: Adobe Illustrator 26.0.2, SVG Export Plug-In . SVG Version: 6.00 Build 0)  -->
<svg version="1.1" id="Calque_1" xmlns="http://www.w3.org/2000/svg" xmlns:xlink="http://www.w3.org/1999/xlink" x="0px" y="0px"
	 viewBox="0 0 788 1005" style="enable-background:new 0 0 788 1005;" xml:space="preserve">
<style type="text/css">
	.st0{fill:#AD717F;}
	.st1{fill:#FFFFFF;}
	.st2{fill:#1F1A19;}
	.st3{fill:#635132;}
</style>
<g id="Calque_7">
	<ellipse class="st0" cx="394.3" cy="147.5" rx="5.4" ry="6.8"/>
	<path class="st1" d="M425.2,101.4c0,3-2.5,5.2-7.6,5.2s-9.2-1.8-9.2-4.7c0-1.3,4.4-3.8,4.4-3.8c2.3-0.5,3.9,0.7,6.7,0.5
		C422.3,98.4,425.2,101.4,425.2,101.4z"/>
	<path class="st2" d="M425.2,101.5c0,2.9-2.2,5.1-5,5.2h-0.2c-0.2,0-0.5,0-0.7,0c-2.9-0.3-4.9-3-4.6-5.8l0,0c0-0.3,0.1-0.7,0.2-1
		c0.1-0.5,0.3-0.8,0.6-1.1c0.2-0.2,0.3-0.6,0.7-0.8c1.7,0,4.2,0.8,6,0.9c0.5,0.5,0.6-0.3,0.8,0.2l1.1,1.5
		C424.5,101.1,425.2,100.8,425.2,101.5z"/>
	<path class="st2" d="M427.4,103.6h-1.8l-1.8,1.1l0,0l1.4-2.4h0.1v-0.1l-3.2-2.9h-0.1c-1.1-0.1-9.1-0.8-9.6,0l-0.2,0.3
		c-0.6,0.7-2.1,2.2-3.3,3.4c-1.3,1.3-2.1,2.1-2.1,2.1l0.2-2.2l1.4-1.5c0,0,2.6-3.4,4-4c2.2-0.9,9.4,0.2,9.5,0.3
		c0.2,0.1,4.7,3.7,5.1,5C427,103.1,427.1,103.3,427.4,103.6z"/>
	<path class="st3" d="M400.7,90.4c0.1,0.5,0.1,0.9,0.1,1.3c0.1,0.6,0.5,1,1,1.1l2.3,0.6c0.2,0,0.3,0,0.6,0l15.2-3.1
		c0.2,0,0.3,0,0.6,0c1.4,0.3,8.1,1.8,8.1,1.7s1.3,0.5,2.4,1c0.9,0.5,1.9-0.3,1.8-1.4l0,0c0-0.5-0.3-0.8-0.7-1
		c-2.4-1.1-10.7-5.1-10.8-5c-0.2,0.1-8.6,0.7-9.7,0.8c-0.1,0-0.1,0-0.2,0l-9.5,2.5C400.9,89.2,400.5,89.8,400.7,90.4z"/>
	<path class="st3" d="M388.4,90.4c-0.1,0.5-0.1,0.9-0.1,1.3c-0.1,0.6-0.5,1-1,1.1l-2.3,0.6c-0.2,0-0.3,0-0.6,0l-15.2-3.1
		c-0.2,0-0.3,0-0.6,0c-1.4,0.3-8.1,1.8-8.1,1.7s-1.3,0.5-2.4,1c-0.9,0.5-1.9-0.3-1.8-1.4l0,0c0-0.5,0.3-0.8,0.7-1
		c2.4-1.1,10.7-5.1,10.8-5c0.2,0.1,8.6,0.7,9.7,0.8c0.1,0,0.1,0,0.2,0l9.5,2.5C388.2,89.2,388.6,89.8,388.4,90.4z"/>
	<path class="st1" d="M363.8,101.4c0,3,2.5,5.2,7.6,5.2s9.2-1.8,9.2-4.7c0-1.3-4.4-3.8-4.4-3.8c-2.3-0.5-3.9,0.7-6.7,0.5
		C366.7,98.4,363.8,101.4,363.8,101.4z"/>
	<path class="st2" d="M370.1,101.5c0,2.9,2.2,5.1,5,5.2h0.2c0.2,0,0.5,0,0.7,0c2.9-0.3,4.3-2.3,4-5.1l0,0c0-0.3-0.5-0.8-0.6-1.1
		c-0.1-0.5-0.9-0.6-1.1-1c-0.2-0.2-1.1-0.9-1.5-1.1c-1.7,0-3.3-0.5-5.1-0.5c-0.5,0.5-0.8,0.9-1,1.4l-0.1,0.2
		C370.3,100.1,370.2,100.8,370.1,101.5z"/>
	<path class="st2" d="M361.7,103.6h1.8l1.8,1.1l0,0l-1.4-2.4l-0.1-0.2V102l3.2-2.9h0.1c1.1-0.1,9.1-0.8,9.6,0l0.2,0.3
		c0.6,0.7,2.1,2.2,3.3,3.4c1.3,1.3,2.1,2.1,2.1,2.1l-0.2-2.2l-1.4-1.5c0,0-2.6-3.4-4-4c-2.2-0.9-9.4,0.2-9.5,0.3
		c-0.2,0.1-4.7,3.7-5.1,5C362.1,103,362,103.2,361.7,103.6z"/>
</g>
</svg>
