<?xml version="1.0" encoding="utf-8"?>
<!-- Generator: Adobe Illustrator 26.0.2, SVG Export Plug-In . SVG Version: 6.00 Build 0)  -->
<svg version="1.1" id="Calque_1" xmlns="http://www.w3.org/2000/svg" xmlns:xlink="http://www.w3.org/1999/xlink" x="0px" y="0px"
	 viewBox="0 0 788 1005" style="enable-background:new 0 0 788 1005;" xml:space="preserve">
<style type="text/css">
	.st0{fill:#6B313A;}
	.st1{fill:#FFFFFF;}
	.st2{fill:#1F1A19;}
	.st3{fill:#635132;}
	.st4{fill:#310800;}
	.st5{fill:#AD717F;}
	.st6{fill:#EBB4C9;}
</style>
<g id="Calque_7">
	<polygon class="st0" points="409.6,143.6 401.4,149.9 394.3,152 387.1,149.9 378.9,143.6 383.4,141.4 389.6,142.4 394.3,142.6 
		399,142.4 405,141.4 	"/>
	<path class="st1" d="M424.6,101.5c0,2.9-2.5,5.1-7.5,5.1c-5,0-9.1-1.8-9.1-4.6c0-1.2,4.4-3.7,4.4-3.7c2.2-0.4,3.8,0.7,6.6,0.4
		C421.8,98.6,424.6,101.5,424.6,101.5z"/>
	<path class="st2" d="M421.8,101.5c0,2.8-2.1,5-4.9,5.1h-0.2c-0.2,0-0.4,0-0.7,0c-2.8-0.3-4.8-2.9-4.5-5.7l0,0c0-0.3,0.1-0.7,0.2-1
		c0.1-0.4,0.3-0.8,0.6-1.1c0.2-0.2,0.3-0.6,0.7-0.8c1.7,0,5.5-0.1,7.3-0.1c0.4,0.4,0.8,0.9,1,1.3l0.1,0.2
		C421.6,100.2,421.8,100.8,421.8,101.5z"/>
	<path class="st2" d="M426.7,103.6h-1.8l-1.8,1.1l0,0l1.3-2.3h0.1v-0.1l-3.1-2.8h-0.1c-1.1-0.1-9-0.8-9.4,0l-0.2,0.3
		c-0.6,0.7-2,2.1-3.2,3.4c-1.2,1.2-2,2-2,2l0.2-2.1l1.3-1.5c0,0,2.6-3.4,3.9-3.9c2.1-0.9,9.2,0.2,9.3,0.3c0.2,0.1,4.6,3.6,5,4.9
		C426.4,103.2,426.5,103.4,426.7,103.6z"/>
	<path class="st3" d="M400.5,90.8c0.1,0.4,0.1,0.9,0.1,1.2c0.1,0.6,0.4,1,1,1.1l2.2,0.6c0.2,0,0.3,0,0.6,0l14.9-3c0.2,0,0.3,0,0.6,0
		c1.3,0.3,7.9,1.8,7.9,1.7c0-0.1,1.2,0.4,2.3,1c0.9,0.4,1.9-0.3,1.8-1.3l0,0c0-0.4-0.3-0.8-0.7-1c-2.3-1.1-10.5-5-10.6-4.9
		c-0.2,0.1-8.4,0.7-9.5,0.8c-0.1,0-0.1,0-0.2,0l-9.3,2.5C400.8,89.5,400.4,90.1,400.5,90.8z"/>
	<path class="st3" d="M388.6,90.8c-0.1,0.4-0.1,0.9-0.1,1.2c-0.1,0.6-0.4,1-1,1.1l-2.2,0.6c-0.2,0-0.3,0-0.6,0l-14.9-3
		c-0.2,0-0.3,0-0.6,0c-1.3,0.3-7.9,1.8-7.9,1.7c0-0.1-1.2,0.4-2.3,1c-0.9,0.4-1.9-0.3-1.8-1.3v-0.1c0-0.3,0.2-0.7,0.6-0.9
		c2.2-1.1,10.6-5.1,10.7-5c0.2,0.1,8.4,0.7,9.5,0.8c0.1,0,0.1,0,0.2,0l9.3,2.5C388.3,89.5,388.7,90.1,388.6,90.8z"/>
	<path class="st1" d="M364.4,101.5c0,2.9,2.5,5.1,7.5,5.1s9.1-1.8,9.1-4.6c0-1.2-4.4-3.7-4.4-3.7c-2.2-0.4-3.8,0.7-6.6,0.4
		C367.2,98.6,364.4,101.5,364.4,101.5z"/>
	<path class="st2" d="M367.3,101.5c0,2.8,2.1,5,4.9,5.1h0.2c0.2,0,0.4,0,0.7,0c2.8-0.3,4.8-2.9,4.5-5.7l0,0c0-0.3-0.1-0.7-0.2-1
		c-0.1-0.4-0.3-0.8-0.6-1.1c-0.2-0.2-0.3-0.6-0.7-0.8c-1.7,0-5.5-0.1-7.3-0.1c-0.4,0.4-0.8,0.9-1,1.3l-0.1,0.2
		C367.4,100.2,367.3,100.8,367.3,101.5z"/>
	<path class="st2" d="M362.4,103.6h1.8l1.8,1.1l0,0l-1.3-2.3l-0.1-0.2v-0.1l3.1-2.8h0.1c1.1-0.1,9-0.8,9.4,0l0.2,0.3
		c0.6,0.7,2,2.1,3.2,3.4c1.2,1.2,2,2,2,2l-0.2-2.1l-1.3-1.5c0,0-2.6-3.4-3.9-3.9c-2.1-0.9-9.2,0.2-9.3,0.3c-0.2,0.1-4.6,3.6-5,4.9
		C362.7,103.1,362.6,103.3,362.4,103.6z"/>
</g>
<g>
	<path class="st4" d="M379.9,144c0,0,12-2.3,12.1-2.5s4.4,0,4.4,0l11.5,2.6l-10.9,11.6h-5.6L379.9,144z"/>
	<path class="st5" d="M406.1,144.6l3.8-1.1c0,0-9.3,14-12,14.7c-4,0.7-5.5,0.8-8.7-0.3c-2.1-1.6-10.7-14.3-10.7-14.3l3.2,1.1
		c0,0,8.2,9,12.2,9S406.1,144.6,406.1,144.6z"/>
	<path class="st6" d="M383.1,143.4l0.8,1.6c0.4,0.9,1.2,1.5,2.2,1.6c0,0,6,0.4,7.9,0.4c1.9,0,7.7-0.4,7.7-0.4c1-0.1,1.8-0.7,2.2-1.6
		l0.4-1L383.1,143.4z"/>
	<path class="st5" d="M409.9,143.4l-3.8,1.1c0,0-9.2-0.9-12.3-0.9s-12.2,0.9-12.2,0.9l-3.2-1.1c0.4-0.7,11.7-4.8,11.7-4.8
		c1.2,0.3,2.3,0.8,3.6,1.2c0,0,1.1-0.4,3.8-1.2C397.6,138.6,409.5,142.8,409.9,143.4z"/>
</g>
</svg>
