<?xml version="1.0" encoding="utf-8"?>
<!-- Generator: Adobe Illustrator 26.0.2, SVG Export Plug-In . SVG Version: 6.00 Build 0)  -->
<svg version="1.1" id="Calque_1" xmlns="http://www.w3.org/2000/svg" xmlns:xlink="http://www.w3.org/1999/xlink" x="0px" y="0px"
	 viewBox="0 0 788 1005" style="enable-background:new 0 0 788 1005;" xml:space="preserve">
<style type="text/css">
	.st0{fill:#AD717F;}
	.st1{fill:#FFFFFF;}
	.st2{fill:#1F1A19;}
	.st3{fill:#635132;}
</style>
<g id="Calque_7">
	<path class="st0" d="M407.9,145l-6.3,4.9c-0.1,0.1-0.2,0.2-0.4,0.2l-6.6,1.9c-0.2,0.1-0.4,0.1-0.7,0l-6.6-1.9
		c-0.1,0-0.3-0.1-0.4-0.2l-6.3-4.9c-0.8-0.6-0.6-1.7,0.2-2.1l2.2-1.1c0.2-0.1,0.4-0.1,0.8-0.1l5.7,0.9c0.1,0,0.1,0,0.2,0l4.6,0.1
		l4.6-0.1c0.1,0,0.1,0,0.2,0l5.6-0.9c0.2,0,0.6,0,0.8,0.1l2.3,1.1C408.5,143.3,408.6,144.5,407.9,145z"/>
	<path class="st1" d="M424,101.5c0.3,0.2,0.4,0.7,0.4,1c-0.3,2.6-2.8,4.6-7.5,4.6c-5,0-9-1.8-9-4.6c0-1.1,3.2-3,4.1-3.6
		c0.1-0.1,0.3-0.1,0.4-0.1c2.1-0.3,3.7,0.7,6.3,0.4C421,99,423.1,100.7,424,101.5z"/>
	<path class="st2" d="M421.7,101.9c0,2.8-2.1,5-4.9,5.1h-0.2c-0.2,0-0.4,0-0.7,0c-2.8-0.3-4.8-2.9-4.5-5.7l0,0c0-0.3,0.1-0.7,0.2-1
		c0.1-0.4,0.3-0.8,0.6-1.1c0.2-0.2,0.3-0.6,0.7-0.8c1.6,0,4.8-0.1,6.7-0.1c0.3,0,0.7,0.1,0.9,0.4c0.2,0.3,0.4,0.7,0.7,0.9l0.1,0.2
		C421.4,100.6,421.7,101.3,421.7,101.9z"/>
	<path class="st2" d="M426.6,104h-1.4c-0.2,0-0.4,0.1-0.7,0.2l-1.4,0.9l0,0l1.3-2.3h0.1v-0.1l-3.1-2.8h-0.1c-1.1-0.1-8.9-0.8-9.4,0
		l-0.2,0.3c-0.6,0.7-2,2.1-3.2,3.3c-1.2,1.2-2,2-2,2l0.2-1.7c0-0.2,0.1-0.6,0.3-0.7l1-1.1c0,0,0,0,0.1-0.1c0.3-0.3,2.6-3.3,3.9-3.9
		c1.9-0.8,7.6,0,8.9,0.2c0.2,0,0.3,0.1,0.6,0.2c0.9,0.7,4.3,3.6,4.8,4.8C426.2,103.6,426.3,103.8,426.6,104z"/>
	<path class="st3" d="M400.5,91.2c0.1,0.4,0.1,0.9,0.1,1.2c0.1,0.6,0.4,1,1,1.1l2.2,0.6c0.2,0,0.3,0,0.6,0l14.8-3c0.2,0,0.3,0,0.6,0
		c1.3,0.3,7.9,1.8,7.9,1.7s1.2,0.4,2.3,1c0.9,0.4,1.9-0.3,1.8-1.3l0,0c0-0.4-0.3-0.8-0.7-1c-2.3-1.1-10.5-5-10.6-4.9
		c-0.2,0.1-8.3,0.7-9.5,0.8c-0.1,0-0.1,0-0.2,0l-9.2,2.4C400.7,90,400.4,90.6,400.5,91.2z"/>
	<path class="st3" d="M388.6,91.2c-0.1,0.4-0.1,0.9-0.1,1.2c-0.1,0.6-0.4,1-1,1.1l-2.2,0.6c-0.2,0-0.3,0-0.6,0l-14.8-3
		c-0.2,0-0.3,0-0.6,0c-1.3,0.3-7.9,1.8-7.9,1.7s-1.2,0.4-2.3,1c-0.9,0.4-1.9-0.3-1.8-1.3l0,0c0-0.4,0.3-0.8,0.7-1
		c2.3-1.1,10.5-5,10.6-4.9c0.2,0.1,8.3,0.7,9.5,0.8c0.1,0,0.1,0,0.2,0l9.2,2.4C388.4,90,388.7,90.6,388.6,91.2z"/>
	<path class="st1" d="M365,101.5c-0.3,0.2-0.4,0.7-0.4,1c0.3,2.6,2.8,4.6,7.5,4.6c5,0,9-1.8,9-4.6c0-1.1-3.2-3-4.1-3.6
		c-0.1-0.1-0.3-0.1-0.4-0.1c-2.1-0.3-3.7,0.7-6.3,0.4C368,99,365.9,100.7,365,101.5z"/>
	<path class="st2" d="M367.4,101.9c0,2.8,2.1,5,4.9,5.1h0.2c0.2,0,0.4,0,0.7,0c2.8-0.3,4.8-2.9,4.5-5.7l0,0c0-0.3-0.1-0.7-0.2-1
		c-0.1-0.4-0.3-0.8-0.6-1.1c-0.2-0.2-0.3-0.6-0.7-0.8c-1.6,0-4.8-0.1-6.7-0.1c-0.3,0-0.7,0.1-0.9,0.4c-0.2,0.3-0.4,0.7-0.7,0.9
		l-0.1,0.2C367.6,100.6,367.4,101.3,367.4,101.9z"/>
	<path class="st2" d="M362.5,104h1.4c0.2,0,0.4,0.1,0.7,0.2l1.4,0.9l0,0l-1.3-2.3l-0.1-0.2v-0.1l3.1-2.8h0.1c1.1-0.1,8.9-0.8,9.4,0
		l0.2,0.3c0.6,0.7,2,2.1,3.2,3.3c1.2,1.2,2,2,2,2l-0.2-1.7c0-0.2-0.1-0.6-0.3-0.7l-1-1.1c0,0,0,0-0.1-0.1c-0.3-0.3-2.6-3.3-3.9-3.9
		c-1.9-0.8-7.6,0-8.9,0.2c-0.2,0-0.3,0.1-0.6,0.2c-0.9,0.7-4.3,3.6-4.8,4.8C362.9,103.5,362.8,103.7,362.5,104z"/>
</g>
</svg>
