<?xml version="1.0" encoding="utf-8"?>
<!-- Generator: Adobe Illustrator 26.0.2, SVG Export Plug-In . SVG Version: 6.00 Build 0)  -->
<svg version="1.1" id="Calque_1" xmlns="http://www.w3.org/2000/svg" xmlns:xlink="http://www.w3.org/1999/xlink" x="0px" y="0px"
	 viewBox="0 0 788 1005" style="enable-background:new 0 0 788 1005;" xml:space="preserve">
<style type="text/css">
	.st0{fill:#FFFFFF;}
	.st1{fill:#1F1A19;}
	.st2{fill:#635132;}
	.st3{fill:#310800;}
	.st4{fill:#AD717F;}
	.st5{fill:#EBB4C9;}
</style>
<g id="Calque_7">
	<path class="st0" d="M424.3,102.1c0,2.9-2.4,5.1-7.4,5.1s-9-1.8-9-4.5c0-1.2,4.3-3.7,4.3-3.7c2.2-0.4,3.8,0.7,6.5,0.4
		C421.5,99.2,424.3,102.1,424.3,102.1z"/>
	<path class="st1" d="M418.2,101.1c0,2.8-2.1,5-4.9,5.1h-0.2c-0.2,0-0.4,0-0.7,0c-2.8-0.3-3.8-1.2-4.4-3.5l0,0c2.1,0.6,0,0,1.4-0.9
		c0.1-0.4,0.2-0.4,0.6-0.8c0.2-0.2,0.6-0.8,0.8-1c1.7,0,1-1.1,2.8-1.1c0.4,0.4,4-0.4,4.2,0l0.1,0.2
		C418,99.8,418.2,100.4,418.2,101.1z"/>
	<path class="st1" d="M426.4,104.2h-1.8l-1.8,1.1l0,0l1.3-2.3h0.1v-0.1l-3.1-2.8h-0.1c-1.1-0.1-8.9-0.8-9.3,0l-0.2,0.3
		c-0.6,0.7-2,2.1-3.2,3.3s-2,2-2,2l0.2-2.1l1.3-1.4c0,0,2.5-3.3,3.9-3.9c2.1-0.9,9.1,0.2,9.2,0.3c0.2,0.1,4.5,3.5,5,4.9
		C426.1,103.8,426.2,104,426.4,104.2z"/>
	<path class="st2" d="M400.3,83.3c0.1,0.4,0.1,0.9,0.1,1.2c0.1,0.6,0.4,1,1,1.1l2.2,0.6c0.2,0,0.3,0,0.6,0l14.7-3c0.2,0,0.3,0,0.6,0
		c1.3,0.3,7.9,1.8,7.9,1.7c0-0.1,1.2,0.4,2.3,1c0.9,0.4,1.9-0.3,1.8-1.3l0,0c0-0.4-0.3-0.8-0.7-1c-2.3-1.1-10.4-5-10.5-4.9
		c-0.2,0.1-8.3,0.7-9.4,0.8c-0.1,0-0.1,0-0.2,0l-9.2,2.4C400.5,82.1,400.2,82.6,400.3,83.3z"/>
	<path class="st2" d="M388.4,83.3c-0.1,0.4-0.1,0.9-0.1,1.2c-0.1,0.6-0.4,1-1,1.1l-2.2,0.6c-0.2,0-0.3,0-0.6,0l-14.7-3
		c-0.2,0-0.3,0-0.6,0c-1.3,0.3-7.9,1.8-7.9,1.7c0-0.1-1.2,0.4-2.3,1c-0.9,0.4-1.9-0.3-1.8-1.3l0,0c0-0.4,0.3-0.8,0.7-1
		c2.3-1.1,10.4-5,10.5-4.9c0.2,0.1,8.3,0.7,9.4,0.8c0.1,0,0.1,0,0.2,0l9.2,2.4C388.2,82.1,388.5,82.6,388.4,83.3z"/>
	<path class="st0" d="M364.5,102.1c0,2.9,2.4,5.1,7.4,5.1s9-1.8,9-4.5c0-1.2-4.3-3.7-4.3-3.7c-2.2-0.4-3.8,0.7-6.5,0.4
		C367.3,99.2,364.5,102.1,364.5,102.1z"/>
	<path class="st1" d="M364.7,102.1c0,2.8,1.7,4,4.3,4.1h0.2c0.2,0,0.4,0,0.7,0c2.8-0.3,4.8-2.9,4.4-5.6l0,0c0-0.3-0.1-0.7-0.2-1
		c-0.1-0.4-0.3-0.8-0.6-1.1c-0.2-0.2,0.2,0.2,0,0c-1.7,0-1.5-0.1-3.3-0.1c-0.4,0.4-4,1.5-4.3,2l-0.8,0.7
		C365,101.7,364.9,101.4,364.7,102.1z"/>
	<path class="st1" d="M362.8,104.2h1.8l1.8,1.1l0,0L365,103l-0.1-0.2v-0.1l3.1-2.8h0.1c1.1-0.1,8.9-0.8,9.3,0l0.2,0.3
		c0.6,0.7,2,2.1,3.2,3.3c1.2,1.2,2,2,2,2l-0.2-2.1l-1.3-1.4c0,0-2.5-3.3-3.9-3.9c-2.1-0.9-9.1,0.2-9.2,0.3c-0.2,0.1-4.5,3.5-5,4.9
		C363.1,103.6,363,103.9,362.8,104.2z"/>
</g>
<g>
	<path class="st3" d="M380.9,144.4c0,0,11.8-2.3,12-2.4c0.2-0.1,4.3,0,4.3,0l11.4,2.5l-8.5,11.8l-10.5,0.2L380.9,144.4z"/>
	<path class="st4" d="M406.9,145l3.8-1.1c0,0-7.5,13.2-11,14.2c-3.2,1.1-6.6,1.1-9.8,0c-3.4-1-10.4-14.2-10.4-14.2l3.2,1.1
		c0,0,4.9,10,12,10.4C401.5,155.9,406.9,145,406.9,145z"/>
	<path class="st5" d="M383.7,142.7l1.1,1.7c0.7,0.4,1.4,0.7,2.2,0.7c0,0,6,0.2,7.9,0.2c2,0,7.6-0.2,7.6-0.2c0.8,0,1.5-0.2,2.2-0.7
		l0.4-1.3L383.7,142.7z"/>
	<path class="st4" d="M410.7,143.9l-3.8,1.1c0,0-9.1-2-12.2-2s-12,2-12,2l-3.2-1.1c0.4-0.7,9.1-5.5,11.6-4.8
		c1.2,0.3,2.3,0.8,3.5,1.2c0,0,1.1-0.4,3.7-1.2C400.9,138.4,410.1,143.3,410.7,143.9z"/>
</g>
</svg>
