<?xml version="1.0" encoding="utf-8"?>
<!-- Generator: Adobe Illustrator 26.0.1, SVG Export Plug-In . SVG Version: 6.00 Build 0)  -->
<svg version="1.1" id="Calque_1" xmlns="http://www.w3.org/2000/svg" xmlns:xlink="http://www.w3.org/1999/xlink" x="0px" y="0px"
	 viewBox="0 0 788 1005" style="enable-background:new 0 0 788 1005;" xml:space="preserve">
<style type="text/css">
	.st0{fill:#8E5736;}
	.st1{fill:#481F09;}
	.st2{fill:#7C8E7B;}
	.st3{fill:#423632;}
	.st4{fill:#4E6566;}
</style>
<g id="Calque_1_00000013909753716367649640000007890796893148302767_">
	<g id="Calque_12">
		<path class="st0" d="M465.8,459.5c0,0-0.1,3.9-9.3,10c-10.9,7.3-6.9,21.4-8.4,28.7c-1,4.9-9.9,17.3-13.7,16.6
			c-10.8-2-16.9-16.2-26.7-20.4c-5.7-2.4-8.2-4.7-13.7-2c-5.5-2.8-8-0.5-13.7,2c-9.8,4.2-15.8,18.5-26.7,20.4
			c-3.9,0.7-12.7-11.7-13.7-16.6c-1.5-7.3,2.5-21.4-8.4-28.7c-9.2-6.1-11.6-11-11.6-11c8.7-13.6,12.3-28.4,22.3-31.4
			s11-5.4,20.2-8.5c4.7-1.6,8.5-3.4,10.6-5.8l1.6-37.3l18.3-0.6h2.2l14.3,0.5l4,0.1l0.7,15.7l0.6,12.9v0.5l0.4,8.2
			c0.4,0.5,0.9,0.9,1.5,1.3c2.7,2,6.8,3.2,11.6,4.2c6.5,1.3,20.9,6.2,28.2,7.5c3.1,0.6,9.9,16.8,12.7,17.6
			C478.9,446.5,472.8,442.4,465.8,459.5z"/>
		<path class="st1" d="M416.5,414.1c-5.4,4.2-18.8,11.4-21.3,12.6c-8.2,3.9-28.3-5-32.8-8.1c4.7-1.6,8.5-3.4,10.6-5.8l1.6-37.3h38.8
			l1.2,28.5v0.5l0.4,8.2C415.4,413.2,415.9,413.7,416.5,414.1z"/>
	</g>
</g>
<g id="Calque_9">
	<path class="st2" d="M451.3,599.5c7.3-28,25-169.9,15.1-173.7c-20.4-8-19-7.9-36.3-9.7c-12.5-1.4-21,28-32.4,28.9
		c-7.1,0.6-27-29.1-33.4-28c-28.9,5-29.1,5.3-47.1,13.2c-4.1,19.2,8.1,144.7,15.6,172.5c7.8,29.1,57.9,6.1,57.9,6.1
		S443.6,628.8,451.3,599.5z"/>
	<rect x="329.2" y="575.6" class="st3" width="123.1" height="23.4"/>
	<rect x="330.5" y="574.9" class="st4" width="124.2" height="23.4"/>
	<path class="st2" d="M325.5,488c0,0-3.4-23.4-7.2-58.4l26.6-7.2l31.8,47.4L325.5,488z"/>
</g>
<g id="Calque_10">
	<polygon class="st2" points="329.2,625.8 329.2,572.9 459.2,546.2 459.2,625.8 	"/>
	<path class="st4" d="M363.6,417.8L371,405c0,0,28.2,31.4,28.2,31.7s-1.1,14-1.1,14L363.6,417.8z"/>
	<path class="st2" d="M333.7,595.6c-3.6,3.8,16.5-15.1,15-15.3s-13.7-13.6-18.7-5.1s-19,34.8,0,39.2s121.2,2.2,127.2-2.7
		s11.9-11.9,5.5-24.2s-4.3-27-9.6-31.8S333.7,595.6,333.7,595.6z"/>
	<path class="st2" d="M451.3,599.5c7.3-28,15.1-177.1,15.1-177.1c-20.4-8-19-4.5-36.3-6.4c-12.5-1.4-21,28-32.4,28.9
		c-7.1,0.6-27.2-29.7-33.4-28c-29.2,8.1-29.1,5.3-47.1,13.2c-4.1,19.2,8.1,144.7,15.6,172.5c7.8,29.1,57.9,6.1,57.9,6.1
		S443.6,628.8,451.3,599.5z"/>
	<path class="st0" d="M446.9,512.4c3.8-3,7.8-5.6,12.1-7.7c0,0-3.7-2.5-6-2.4c-1.9,0.1-10.3,4-10.3,4l0,0
		c14.3-21.6,22-39.2,22.9-41.8c0.6-1.8-1.5-7.4-1.5-7.4s-14.3,20.4-18.7,25.9c-14.9,18.5-22.3,22.6-34.5,27.6
		c-2.1,0.9-0.9,13.7,3.7,12.2c1.6-0.5,10.6,1.5,13.1,0.1C437.7,517.5,446.6,512.7,446.9,512.4z"/>
	<rect x="329.2" y="575.6" class="st3" width="123.1" height="23.4"/>
	<path class="st2" d="M325.5,488c0,0-3.4-23.4-7.2-58.4l26.6-7.2l31.8,47.4L325.5,488z"/>
	<path class="st0" d="M466.5,422c0,0-2.2,22.7-1.6,23.4s-11.7-8.3-11.7-8.3l-8,13.3l21.7,31c0,0,10.7,18.9,15.2,24.5
		c2.8,3.4,10.4,10,14,10.9c8.1,1.9,13.7-5.2,13.7-5.2s4.6-8.5,2.8-13.7c-2.2-6.5-11.6-22.9-13.4-26.4
		c-13.8-26.9-11.9-31.7-18.8-40.4C477.8,427.8,466.5,422,466.5,422z"/>
	<polygon class="st2" points="329.2,608.9 329.2,567.2 458.7,546.2 458.7,608.9 	"/>
	<path class="st4" d="M363.6,417.8L371,405c0,0,28.2,31.4,28.2,31.7s-1.1,14-1.1,14L363.6,417.8z"/>
	<path class="st4" d="M407.3,445.5c0,0-6.6-9.1-6.1-9.7s13.6-27.6,13.6-27.6s12.4,9.6,12.8,10.5s-18.8,29.7-18.8,29.7L407.3,445.5z"
		/>
	<path class="st0" d="M317.6,429.8c9.9-0.5,23.7,19.8,27,29.2c3.8,10.7,6.4,38.5,6.4,38.5l0,0l65.5,10.7l5.8-2.4l2.2,15.4l-9.9,1.7
		c0,0-84.5,8.2-88,6c-7-4.4-26.3-59.2-26.3-71.7C300.2,444.8,309.5,430.1,317.6,429.8z"/>
	<path class="st2" d="M330.2,613.7c-3.5,4.6,16.1-18.5,14.5-18.7s-14.8-15.2-19.4-5c-4.6,10.2-17.6,41.6,2.2,45.8
		c19.8,4.2,124.5-3.6,130.4-9.6c5.8-6,11.5-14.5,4.2-28.6c-7.3-14.1-5.9-31.3-11.7-36.7S330.2,613.7,330.2,613.7z"/>
	<path class="st0" d="M396.1,413.6l16.1-1l23,4.7l11.5,8.5c0,0,13.3,21.4,9.6,22.5c-5.7,1.7-7.2,3.3-11.2,2
		c-6.5-2.1-13.8-10.4-13.8-10.4l-15.2-0.6c0,0-11.1,4.6-11.8,4.6c-5.9,0.1-15.2-10.1-15.2-10.1l16-11.4l14,0.4l-8.3-3.9
		c0,0-8.3,1-9.2,0.6C399.9,418.9,396.1,413.6,396.1,413.6z"/>
</g>
</svg>
