<?xml version="1.0" encoding="utf-8"?>
<!-- Generator: Adobe Illustrator 26.0.1, SVG Export Plug-In . SVG Version: 6.00 Build 0)  -->
<svg version="1.1" id="Calque_1" xmlns="http://www.w3.org/2000/svg" xmlns:xlink="http://www.w3.org/1999/xlink" x="0px" y="0px"
	 viewBox="0 0 788 1005" style="enable-background:new 0 0 788 1005;" xml:space="preserve">
<style type="text/css">
	.st0{fill:#8E5736;}
	.st1{fill:#481F09;}
	.st2{fill:#DBD1C1;}
	.st3{fill:#A8C6DF;}
	.st4{fill:#8DB5D5;}
</style>
<g id="Calque_1_00000130642570915225259670000015084083584366104205_">
	<g id="Calque_12">
		<path class="st0" d="M465.8,459.5c0,0-0.1,3.9-9.3,10c-10.9,7.3-6.9,21.4-8.4,28.7c-1,4.9-9.9,17.3-13.7,16.6
			c-10.8-2-16.9-16.2-26.7-20.4c-5.7-2.4-8.2-4.7-13.7-2c-5.5-2.8-8-0.5-13.7,2c-9.8,4.2-15.8,18.5-26.7,20.4
			c-3.9,0.7-12.7-11.7-13.7-16.6c-1.5-7.3,2.5-21.4-8.4-28.7c-9.2-6.1-11.6-11-11.6-11c8.7-13.6,12.3-28.4,22.3-31.4
			s11-5.4,20.2-8.5c4.7-1.6,8.5-3.4,10.6-5.8l1.6-37.3l18.3-0.6h2.2l14.3,0.5l4,0.1l0.7,15.7l0.6,12.9v0.5l0.4,8.2
			c0.4,0.5,0.9,0.9,1.5,1.3c2.7,2,6.8,3.2,11.6,4.2c6.5,1.3,20.9,6.2,28.2,7.5c3.1,0.6,9.9,16.8,12.7,17.6
			C478.9,446.5,472.8,442.4,465.8,459.5z"/>
		<path class="st1" d="M416.5,414.1c-5.4,4.2-18.8,11.4-21.3,12.6c-8.2,3.9-28.3-5-32.8-8.1c4.7-1.6,8.5-3.4,10.6-5.8l1.6-37.3h38.8
			l1.2,28.5v0.5l0.4,8.2C415.4,413.2,415.9,413.7,416.5,414.1z"/>
	</g>
</g>
<g id="Calque_9">
	<path class="st2" d="M444.4,563c14.8-35.3,22.7-134,13-136.9c-3.4-1-27.2,14-62.7,15c-39.1,1.1-63.8-23.7-66.9-10.3
		c-4.5,19.1,8.9,109.7,16.1,137.5c7.5,29.1,51.4,1.4,51.4,1.4S432.8,590.8,444.4,563z"/>
	<path class="st2" d="M344.6,433.7c9,13.5-0.9,21.2-4.1,28c-5.1,10.9-2.7,33.4-4.6,44.5c-0.9,5.2-5.9,17.3-18,16.9l0,0
		c-15.5-1-16.1-14.1-15.9-19.1c0.3-10.3-4.4-53,3.6-64.7c0,0,7.2-12.2,21-13.2C335.5,425.5,341,428.2,344.6,433.7L344.6,433.7z"/>
	<path class="st0" d="M321.8,514.3c-11.5,2.7-17-4.6-20.5-11.4c-2.5-4.8-20.2-53-25.2-66c-2.9-7.4-4.6-11.2,1.5-12.8
		c5.5-1.5,11.6,5.2,14,7.8c22.5,24.3,37.8,43.5,41.8,65C335.9,511,325.7,513.4,321.8,514.3z"/>
	<path class="st0" d="M272,402c-3.8-2.9-7.4-6.1-10.5-9.7c0,0-2.5,3.3-2.1,5.3c0.3,1.6,5.9,8.4,5.9,8.4l0,0
		c-27.2-10.6-48.9-16-52.1-16.5c-2.2-0.4-8.6,1.7-8.6,1.7s25.8,10.7,32.7,14c23.6,11.3,29.3,17.3,36.6,27.3c1.3,1.8,16.2-0.1,14-4
		c-0.8-1.4,0.5-9-1.4-11.1C279.1,409.4,272.4,402.2,272,402z"/>
	<path class="st2" d="M445.8,433.4c-9,13.5,0.9,21.2,4.1,28c5.1,10.9,2.7,33.4,4.6,44.5c0.9,5.2,5.9,17.3,18,16.9l0,0
		c15.5-1,16.1-14.1,15.9-19.1c-0.3-10.3,4.4-53-3.6-64.7c0,0-7.2-12.2-21-13.2C455,425.1,449.5,427.9,445.8,433.4L445.8,433.4z"/>
	<path class="st0" d="M468.6,514c11.5,2.7,17-4.6,20.5-11.4c2.5-4.8,20.2-53,25.2-66c2.8-7.4,4.6-11.2-1.5-12.8
		c-5.5-1.5-11.6,5.2-14,7.8c-22.5,24.3-37.8,43.5-41.8,65C454.5,510.7,464.7,513.1,468.6,514z"/>
	<path class="st0" d="M518.3,401.7c3.8-2.9,7.4-6.1,10.5-9.7c0,0,2.5,3.3,2.1,5.3c-0.3,1.6-5.9,8.4-5.9,8.4l0,0
		c27.2-10.6,48.9-16,52.1-16.5c2.2-0.4,8.6,1.7,8.6,1.7S559.9,401.7,553,405c-23.7,11.3-29.3,17.3-36.6,27.3c-1.3,1.8-16.2-0.1-14-4
		c0.8-1.3-0.5-9,1.4-11.1C511.3,409.1,518,401.9,518.3,401.7z"/>
	<polygon class="st3" points="343.8,421.8 352.7,483.4 331.1,543.1 323.7,591.2 327.8,598.7 458.7,598.7 462.2,585 454.2,541.6 
		436,480.6 447,419.8 433.3,415.9 421.6,480.6 367.8,480.6 359.3,417.8 	"/>
	<polygon class="st4" points="439,590.2 340.7,590.2 363.4,527.6 423.9,527.6 	"/>
</g>
</svg>
