<?xml version="1.0" encoding="utf-8"?>
<!-- Generator: Adobe Illustrator 26.0.1, SVG Export Plug-In . SVG Version: 6.00 Build 0)  -->
<svg version="1.1" id="Calque_1" xmlns="http://www.w3.org/2000/svg" xmlns:xlink="http://www.w3.org/1999/xlink" x="0px" y="0px"
	 viewBox="0 0 788 1005" style="enable-background:new 0 0 788 1005;" xml:space="preserve">
<style type="text/css">
	.st0{fill:#8E5736;}
	.st1{fill:#481F09;}
	.st2{fill:#6BA0C9;}
</style>
<g id="Calque_1_00000134951177972923313500000003194394228555850684_">
	<g id="Calque_12">
		<path class="st0" d="M465.8,459.5c0,0-0.1,3.9-9.3,10c-10.9,7.3-6.9,21.4-8.4,28.7c-1,4.9-9.9,17.3-13.7,16.6
			c-10.8-2-16.9-16.2-26.7-20.4c-5.7-2.4-8.2-4.7-13.7-2c-5.5-2.8-8-0.5-13.7,2c-9.8,4.2-15.8,18.5-26.7,20.4
			c-3.9,0.7-12.7-11.7-13.7-16.6c-1.5-7.3,2.5-21.4-8.4-28.7c-9.2-6.1-11.6-11-11.6-11c8.7-13.6,12.3-28.4,22.3-31.4
			s11-5.4,20.2-8.5c4.7-1.6,8.5-3.4,10.6-5.8l1.6-37.3l18.3-0.6h2.2l14.3,0.5l4,0.1l0.7,15.7l0.6,12.9v0.5l0.4,8.2
			c0.4,0.5,0.9,0.9,1.5,1.3c2.7,2,6.8,3.2,11.6,4.2c6.5,1.3,20.9,6.2,28.2,7.5c3.1,0.6,9.9,16.8,12.7,17.6
			C478.9,446.5,472.8,442.4,465.8,459.5z"/>
		<path class="st1" d="M416.5,414.1c-5.4,4.2-18.8,11.4-21.3,12.6c-8.2,3.9-28.3-5-32.8-8.1c4.7-1.6,8.5-3.4,10.6-5.8l1.6-37.3h38.8
			l1.2,28.5v0.5l0.4,8.2C415.4,413.2,415.9,413.7,416.5,414.1z"/>
	</g>
</g>
<g id="Calque_9">
	<path class="st0" d="M363.2,437.5c-4.6,21.5-19.4,24.7-27.9,30.9c-13.6,9.8-26.2,29.2-37.4,41.2c-5.3,5.7-11.7,6.6-17.8,2.5
		l-4.1-2.5c-11.5-10.5,1-21.4,5.5-27.3c9.3-12,27.3-32.8,34.3-46.1c5.3-9.9,41.3-18.1,35.3-6.8c0,0,3.2,3.1,15,10.2
		C373.7,444.3,365.1,428.6,363.2,437.5L363.2,437.5z"/>
	<path class="st0" d="M291.4,513.9c9.5-5.7,6.4-15.2,4.4-18.5c-2.1-3.6-42.1-40.9-49.5-49.2c-4.2-4.7-6.1,0.6-9.4,2.6
		c-3,1.9-0.4,7.6,0.6,9.9c2.2,5,31,49.8,33.5,53.4C276.1,519.5,288.7,515.5,291.4,513.9z"/>
	<path class="st0" d="M215.8,419.5l-3,8.3c1.3,1.1,2.6,2.4,3.7,3.7c1.3,1.6,5.5,5.9,5.5,5.9l1,3.1c-5.9,0.9-8.1,2-15.2,2.5
		c-5.4,0.4-17.7-2.6-22.9-4.7c-2.8-1.1-7.4-5.9-10.4-6.3c-2.1-0.3-7.7,2.8-7.7,2.8l12,10.2c0,0,21.1,9.8,28.3,12.4
		c7.8,2.8,24,6.8,32.1,7c2.6,0,7.8,0.1,10.7-4.2c2.5-3.7,0.4-8-1.1-10.6C246.6,445.6,216.2,419.6,215.8,419.5z"/>
	<path class="st0" d="M431.9,443.6c4,17.7,17.3,20.1,25,25.2c12.2,8,28.1,31.1,38.2,41c4.8,4.6,17.8,13.8,26.3,7.3l0,0
		c10.5-8.8,3.1-19.7-1-24.5c-8.3-9.8-30-33.3-36.3-44.1c-4.7-8.1-4.5-11.8-19.5-19.2c0,0-14.8-8.2-25.6-2.2
		C432.1,430.9,430.2,436.3,431.9,443.6L431.9,443.6z"/>
	<path class="st0" d="M526.7,504.8c-4.2-14.5-12-12.2-18.7-11.4c-7.2,0.9-74.1,24.1-92.4,29.9c-10.3,3.3-15.9,4.8-14.4,10.7
		c1.4,5.3,12.6,5,17,4.9c41.5-0.8,72.2-4.7,100.6-16.4C526.7,519.3,527.7,508.5,526.7,504.8z"/>
	<path class="st0" d="M372.6,523.6c-8.2,4.1-20.6,9.2-20.6,9.2s6.3,4.6,8.9,4.9c2.1,0.2,11.3-4,11.3-4l16.3,2.6
		c-3.4,4.5-11.7,6.8-16.2,11.8c-3.5,3.9-14.3,10-19.5,12c-2.9,1.1-9.7,0.9-12.1,2.6c-1.7,1.2-3.1,7.1-3.1,7.1l16.2-0.9
		c0,0,22.2-7.3,29.3-10.3c7.6-3.2,22-11.3,27.7-16.6c1.9-1.7,5.4-5.1,4.2-10.1c-1.1-4.2-5.9-5.8-9-6.7
		C401.3,524.2,373,523.4,372.6,523.6z"/>
	<path class="st2" d="M333,602.5c-1.9-9.9,4-126.6-1.5-133l6.1-45.9l27.2-7.5c0,0,21.2,60.9,62.2-0.8l28.3,8.8
		c0,0,3.8,46.5,3.8,46.5s4.5,90.1,3.4,106.9s2.9,25.8-9.2,31.4S334.9,612.4,333,602.5z"/>
</g>
</svg>
