<?xml version="1.0" encoding="utf-8"?>
<!-- Generator: Adobe Illustrator 26.0.1, SVG Export Plug-In . SVG Version: 6.00 Build 0)  -->
<svg version="1.1" id="Calque_1" xmlns="http://www.w3.org/2000/svg" xmlns:xlink="http://www.w3.org/1999/xlink" x="0px" y="0px"
	 viewBox="0 0 381.1 223.8" style="enable-background:new 0 0 381.1 223.8;" xml:space="preserve">
<style type="text/css">
	.st0{fill:#8E5736;}
	.st1{fill:#481F09;}
	.st2{fill:#DBD1C1;}
	.st3{fill:#A8C6DF;}
	.st4{fill:#8DB5D5;}
</style>
<g id="Calque_1_00000130642570915225259670000015084083584366104205_">
	<g id="Calque_12">
		<path class="st0" d="M261.2,84.6c0,0-0.1,3.9-9.3,10c-10.9,7.3-6.9,21.4-8.4,28.7c-1,4.9-9.9,17.3-13.7,16.6
			c-10.8-2-16.9-16.2-26.7-20.4c-5.7-2.4-8.2-4.7-13.7-2c-5.5-2.8-8-0.5-13.7,2c-9.8,4.2-15.8,18.5-26.7,20.4
			c-3.9,0.7-12.7-11.7-13.7-16.6c-1.5-7.3,2.5-21.4-8.4-28.7c-9.2-6.1-11.6-11-11.6-11c8.7-13.6,12.3-28.4,22.3-31.4
			s11-5.4,20.2-8.5c4.7-1.6,8.5-3.4,10.6-5.8L170,0.6L188.3,0h2.2l14.3,0.5l4,0.1l0.7,15.7l0.6,12.9v0.5l0.4,8.2
			c0.4,0.5,0.9,0.9,1.5,1.3c2.7,2,6.8,3.2,11.6,4.2c6.5,1.3,20.9,6.2,28.2,7.5c3.1,0.6,9.9,16.8,12.7,17.6
			C274.3,71.6,268.2,67.5,261.2,84.6z"/>
		<path class="st1" d="M211.9,39.2c-5.4,4.2-18.8,11.4-21.3,12.6c-8.2,3.9-28.3-5-32.8-8.1c4.7-1.6,8.5-3.4,10.6-5.8L170,0.6h38.8
			l1.2,28.5v0.5l0.4,8.2C210.8,38.3,211.3,38.8,211.9,39.2z"/>
	</g>
</g>
<g id="Calque_9">
	<path class="st2" d="M239.8,188.1c14.8-35.3,22.7-134,13-136.9c-3.4-1-27.2,14-62.7,15c-39.1,1.1-63.8-23.7-66.9-10.3
		c-4.5,19.1,8.9,109.7,16.1,137.5c7.5,29.1,51.4,1.4,51.4,1.4S228.2,215.9,239.8,188.1z"/>
	<path class="st2" d="M140,58.8c9,13.5-0.9,21.2-4.1,28c-5.1,10.9-2.7,33.4-4.6,44.5c-0.9,5.2-5.9,17.3-18,16.9l0,0
		c-15.5-1-16.1-14.1-15.9-19.1c0.3-10.3-4.4-53,3.6-64.7c0,0,7.2-12.2,21-13.2C130.9,50.6,136.4,53.3,140,58.8L140,58.8z"/>
	<path class="st0" d="M117.2,139.4c-11.5,2.7-17-4.6-20.5-11.4c-2.5-4.8-20.2-53-25.2-66c-2.9-7.4-4.6-11.2,1.5-12.8
		c5.5-1.5,11.6,5.2,14,7.8c22.5,24.3,37.8,43.5,41.8,65C131.3,136.1,121.1,138.5,117.2,139.4z"/>
	<path class="st0" d="M67.4,27.1c-3.8-2.9-7.4-6.1-10.5-9.7c0,0-2.5,3.3-2.1,5.3c0.3,1.6,5.9,8.4,5.9,8.4l0,0
		c-27.2-10.6-48.9-16-52.1-16.5C6.4,14.2,0,16.3,0,16.3s25.8,10.7,32.7,14C56.3,41.6,62,47.6,69.3,57.6c1.3,1.8,16.2-0.1,14-4
		c-0.8-1.4,0.5-9-1.4-11.1C74.5,34.5,67.8,27.3,67.4,27.1z"/>
	<path class="st2" d="M241.2,58.5c-9,13.5,0.9,21.2,4.1,28c5.1,10.9,2.7,33.4,4.6,44.5c0.9,5.2,5.9,17.3,18,16.9l0,0
		c15.5-1,16.1-14.1,15.9-19.1c-0.3-10.3,4.4-53-3.6-64.7c0,0-7.2-12.2-21-13.2C250.4,50.2,244.9,53,241.2,58.5L241.2,58.5z"/>
	<path class="st0" d="M264,139.1c11.5,2.7,17-4.6,20.5-11.4c2.5-4.8,20.2-53,25.2-66c2.8-7.4,4.6-11.2-1.5-12.8
		c-5.5-1.5-11.6,5.2-14,7.8c-22.5,24.3-37.8,43.5-41.8,65C249.9,135.8,260.1,138.2,264,139.1z"/>
	<path class="st0" d="M313.7,26.8c3.8-2.9,7.4-6.1,10.5-9.7c0,0,2.5,3.3,2.1,5.3c-0.3,1.6-5.9,8.4-5.9,8.4l0,0
		c27.2-10.6,48.9-16,52.1-16.5c2.2-0.4,8.6,1.7,8.6,1.7s-25.8,10.8-32.7,14.1c-23.7,11.3-29.3,17.3-36.6,27.3
		c-1.3,1.8-16.2-0.1-14-4c0.8-1.3-0.5-9,1.4-11.1C306.7,34.2,313.4,27,313.7,26.8z"/>
	<polygon class="st3" points="139.2,46.9 148.1,108.5 126.5,168.2 119.1,216.3 123.2,223.8 254.1,223.8 257.6,210.1 249.6,166.7 
		231.4,105.7 242.4,44.9 228.7,41 217,105.7 163.2,105.7 154.7,42.9 	"/>
	<polygon class="st4" points="234.4,215.3 136.1,215.3 158.8,152.7 219.3,152.7 	"/>
</g>
</svg>
