<svg xmlns="http://www.w3.org/2000/svg" viewBox="0 0 788 1005.07"><defs><style>.cls-1{fill:none;}.cls-2{fill:#baa535;}.cls-3{fill:#b1a54c;}.cls-4{fill:#9f6042;}.cls-5{fill:#d5c65a;}.cls-6{fill:#3d3d3d;}.cls-7{fill:#5d5e6d;}</style></defs><g id="Calque_3" data-name="Calque 3"><path class="cls-1" d="M410.92,411.5c15.66,4.66,22.54,8.74,26.4,15.33,3.12,5.33,6.23,17.65,6.59,23.82.87,14.49-6.28,51.13-19.62,63.61-13.57,12.7-81.32,14.28-95.47,2.23-13.91-11.84-22.77-48.11-22.58-62.62.07-6.18,2.61-18.63,5.47-24.1,3.54-6.76,10.22-11.16,25.66-16.55,17.65-6.17,35.77-5.68,35.77-5.68S393,406.16,410.92,411.5Z"/><path class="cls-2" d="M366.51,503.77l-1-42.2s-38.7-48-39.62-48-22.29,21.63-22.29,21.63l-2.45,18.32L296.58,525s15,151.95,15,153.46c0,.54.46,4.59,1,9.59a23.24,23.24,0,0,0,23.62,20.58h0c11.34-.27,17.07-4.74,18.69-16l2.18-15.08s7.59-83.67,6.28-85.68c-.88-1.33,6-49.87,4-51.84S366.51,503.77,366.51,503.77Z"/><path class="cls-3" d="M369.77,371.44l-32.59.73A21.51,21.51,0,0,0,316.91,388l-14.36,52.7s-17.9,49.54-19.13,62.27c-4.8,49.65,23.86,240.47,25.57,259,2.17,23.42,18.86,92.18,18.86,92.18l27.22-6.2s9.69-67.87,9.57-92.49c-.09-16.3,3.59-174.1,6.58-210.54.83-10.09,3.12-43.59,3.12-43.59Z"/><path class="cls-4" d="M349.66,713.28c.37-.85,14.17-37.71,25.24-35.71h0a21.23,21.23,0,0,1,17.45,21.95L392,706.8s-7,66.38-8.22,67.7-40,111-40.56,113.7a12.31,12.31,0,0,1-13.59,9.95h0c-7.54-.94-7.8-5.63-5.63-12.91l9.95-127Z"/><path class="cls-5" d="M370,368.57l49.75,9a21.5,21.5,0,0,1,17.58,18.79l6.06,54.29s10,51.71,9.27,64.48C449.75,564.9,392,749,387.4,767.05c-5.76,22.81-32.87,88.15-32.87,88.15L327,850.28s2.55-74,6.47-98.26c2.6-16.09,23.35-172.56,26-209,.74-10.1,3.66-43.55,3.66-43.55l-61.95-45.26,13.53-64.09a26.82,26.82,0,0,1,26-21.28Z"/><path class="cls-6" d="M336,883.89h0c5.83.13,11.11,4.13,13.64,10.34h0c5.69,14,29.57,32.63,29.57,32.63,4.28,3.92,6.36,10.31,5.42,16.59h0l-58-.1-3.27-1.15c-3.74-1.32-6.18-5.57-5.83-10.16l3.17-34C322.3,889.62,328.69,883.72,336,883.89Z"/><path class="cls-7" d="M383,943.11h0c.77-5.62-20.59-10.63-25.37-11.45h0c-3-.53-22.28,1.29-30.44,4.07a4.14,4.14,0,0,0-.54,7.62h0Z"/></g></svg>