<svg xmlns="http://www.w3.org/2000/svg" viewBox="0 0 588 605.71"><defs><style>.cls-1{fill:none;}.cls-2{fill:#baa535;}.cls-3{fill:#9f6042;}.cls-4{fill:#3d3d3d;}.cls-5{fill:#21212d;}</style></defs><g id="Calque_3" data-name="Calque 3"><polygon points="130.88 162.1 130.98 162.06 130.88 162.02 130.88 162.1"/><polygon points="130.98 162.06 131.07 162.1 131.07 162.02 130.98 162.06"/><polygon points="130.88 162.1 130.98 162.06 130.88 162.02 130.88 162.1"/><polygon points="130.98 162.06 131.07 162.1 131.07 162.02 130.98 162.06"/><path class="cls-1" d="M324.51,78.16c15.55,5,22.34,9.27,26,16,3,5.4,5.82,17.79,6,24,.52,14.51-7.48,51-21.11,63.14-13.86,12.37-81.63,12.37-95.49,0-13.63-12.17-21.64-48.63-21.11-63.14.22-6.17,3-18.56,6-24,3.7-6.68,10.48-10.92,26-16,17.8-5.75,35.9-4.84,35.9-4.84S306.71,72.41,324.51,78.16Z"/><path class="cls-2" d="M278,169.37V127.15s-37.57-48.9-38.49-48.9-22.8,21.09-22.8,21.09l-2.87,18.27-6.25,71.3S219,341.16,219,342.67c0,.54.35,4.61.8,9.62a23.24,23.24,0,0,0,23.14,21.13h0c11.33,0,17.17-4.34,19.05-15.52l2.54-15s9.54-83.47,8.27-85.51c-.84-1.35,7.19-49.72,5.18-51.74S278,169.37,278,169.37Z"/><path class="cls-3" d="M261.27,371.05c-.22-.89-7.25-39.62-18.5-39.62h0a21.25,21.25,0,0,0-21.07,18.51l-.94,7.23s-4.93,66.56-3.93,68.08,19.71,116.31,19.73,119.09a12.29,12.29,0,0,0,11.6,12.2h0c7.59.42,8.68-4.15,7.84-11.7L268.76,418.1Z"/><path class="cls-3" d="M247.48,531.93c-4.8-.11-11.94,1.25-11.31,15.51.22,5-1.77,27.07-5.93,32.52-1.14,1.5-1.93,5.73-5.39,8.35a3.54,3.54,0,0,0-1.41,3.34l-1,5.39,33.89,1,4.34-7.41L259.34,564l-2.4-17.79-.78-4.22C254.9,532.06,254.58,532.09,247.48,531.93Z"/><path class="cls-4" d="M232.75,562.67a10.23,10.23,0,0,1,8.6-5.58l3-.15,3.84-.19h0a10.23,10.23,0,0,1,10.72,9.45l1.81,24.39.17,8.87-42.3-.05,2.18-12.08,6.84-14.5Z"/><path class="cls-3" d="M309.78,371.05c.22-.89,7.24-39.62,18.5-39.62h0a21.25,21.25,0,0,1,21.07,18.51l.93,7.23s4.94,66.56,3.94,68.08S334.5,541.56,334.49,544.34a12.29,12.29,0,0,1-11.6,12.2h0c-7.59.42-8.68-4.15-7.84-11.7L302.29,418.1Z"/><path class="cls-3" d="M323.57,531.93c4.8-.11,11.94,1.25,11.31,15.51-.23,5,1.77,27.07,5.93,32.52,1.14,1.5,1.93,5.73,5.38,8.35a3.53,3.53,0,0,1,1.42,3.34l1,5.39-33.89,1-5.39-6.68L311.71,564l2.4-17.79.78-4.22C316.15,532.06,316.47,532.09,323.57,531.93Z"/><path class="cls-4" d="M327,557h0a14.89,14.89,0,0,0-15.55,13.34l-2.16,21,.88,8.14,42.29-.05-2.17-12.08-6.84-14.5-3.94-7.76A14.89,14.89,0,0,0,327,557Z"/><path class="cls-5" d="M225.61,33.76a35.15,35.15,0,0,0-17.83,23.92c-4.17,20.42-5.49,48.14-7.74,76.62C189.31,270.72,217.22,558.36,233.31,537c62.2-82.59,109.87-73.79,181.38-143.5C457.27,352,404,226,385.08,178.72c-11.63-29-28.5-76.16-39.81-118.35-4.51-16.8-10.32-31.43-27.72-31.43L228.5,32.32Z"/></g></svg>