<?xml version="1.0" encoding="utf-8"?>
<!-- Generator: Adobe Illustrator 26.0.1, SVG Export Plug-In . SVG Version: 6.00 Build 0)  -->
<svg version="1.1" id="Calque_1" xmlns="http://www.w3.org/2000/svg" xmlns:xlink="http://www.w3.org/1999/xlink" x="0px" y="0px"
	 viewBox="0 0 788 1005.1" style="enable-background:new 0 0 788 1005.1;" xml:space="preserve">
<style type="text/css">
	.st0{fill:#99D453;}
	.st1{fill:#9F6042;}
	.st2{fill:#D4472E;}
	.st3{fill:#3D3D3D;}
</style>
<g id="Calque_3">
	<path class="st0" d="M388.5,516l-3.1-42.1c0,0,33.9-51.5,34.8-51.6s18.6,21.3,18.6,21.3l5.2,16.9l16.1,69.8
		c0,0-0.3,152.6-0.1,154.2c0,0.5,0,4.6-0.1,9.7c-0.2,12-9.5,21.9-21.5,22.8l0,0c-11.3,0.8-17.4-3.1-20.1-14.1l-3.6-14.8
		c0,0-15.6-82.5-14.5-84.7c0.7-1.4-10.8-49.1-9-51.2S388.5,516,388.5,516z"/>
	<path class="st1" d="M417,728.7c0.4-0.8,14-37.8,25.1-35.8l0,0c10.5,1.9,18,11.2,17.5,21.9l-0.3,7.3c0,0-14.5,62.5-15.7,63.9
		s-32,114.9-32.5,117.7c-1.2,6.4-7.1,10.8-13.6,10l0,0c-7.5-0.9-7.8-5.6-5.7-12.9l9.6-127L417,728.7z"/>
	<path class="st1" d="M409.2,855c4.8,0.5,11.7,2.8,9.2,16.9c-0.9,5-1.8,19.4,1.6,25.3c0.9,1.6,43.6,32.2,46.6,35.2
		c1.1,1,1.6,2.5,1.4,4l-0.6,4.6l-34-0.2l-47.4-15.2l7.2-40.5l4.7-17.3l1.3-4.1C401.9,854.2,402.2,854.2,409.2,855z"/>
	<path class="st2" d="M377,379.5h32c9.4,0,17.8,6.1,20.6,15.1c0,0,26.4,84.8,33.1,136.6c5.5,43.3,2.5,174.6,2.5,174.6L425.5,866
		l-33.8-2.8c0,0-1.2-73.3,4.3-96.9c3.1-13.5,22.3-50.6,22.3-50.6l-32.8-163.6l-10-41.4L377,379.5z"/>
	<path class="st0" d="M370.6,511.7v-42.2c0,0-37.6-48.9-38.5-48.9s-22.8,21.1-22.8,21.1l-2.9,18.3l-6.2,71.3
		c0,0,11.4,152.2,11.4,153.7c0,0.5,0.4,4.6,0.8,9.6c1.1,12,11.1,21.1,23.1,21.1l0,0c11.3,0,17.2-4.3,19-15.5l2.5-15
		c0,0,9.5-83.5,8.3-85.5c-0.8-1.3,7.2-49.7,5.2-51.7S370.6,511.7,370.6,511.7z"/>
	<path class="st1" d="M354,713.4c-0.2-0.9-7.2-39.6-18.5-39.6l0,0c-10.7,0-19.7,7.9-21.1,18.5l-0.9,7.2c0,0-4.9,66.6-3.9,68.1
		s19.7,116.3,19.7,119.1c0,6.5,5.1,11.8,11.6,12.2l0,0c7.6,0.4,8.7-4.2,7.8-11.7l12.8-126.7L354,713.4z"/>
	<path class="st1" d="M340.2,874.3c-4.8-0.1-11.9,1.2-11.3,15.5c0.2,5-1.8,27.1-5.9,32.5c-1.1,1.5-1.9,5.7-5.4,8.3
		c-1,0.8-1.6,2.1-1.4,3.3l-1,5.4l33.9,1l10-6.7l-7-27.3l-2.4-17.8l-0.8-4.2C347.6,874.4,347.3,874.4,340.2,874.3z"/>
	<path class="st2" d="M377,379.5h-32.6c-9.5,0-17.9,6.2-20.6,15.4l-15.6,52.4c0,0-19,49.1-20.6,61.8c-6,49.5,22.5,185.2,22.5,185.2
		s-4.3,55.8-3,74.4c1.6,23.5,16.7,92.6,16.7,92.6h28c0,0,10.6-73.2,11.1-97.8c0.3-16.3-5-48.7-5-65c0.1-36.6,12.6-109,16.5-145.3
		c1.1-10.1,4.1-43.5,4.1-43.5L377,379.5z"/>
	<polygon class="st3" points="328.1,899.7 350.8,898.6 359.8,937.3 353.5,941.8 311.2,941.8 313.4,929.7 320.3,915.2 	"/>
	<polygon class="st3" points="392.9,888.6 419.3,892 468.6,933.7 469.2,941.7 433,941.8 384.7,926.9 	"/>
</g>
</svg>
