<svg xmlns="http://www.w3.org/2000/svg" viewBox="0 0 588 605.71"><defs><style>.cls-1{fill:#baa535;}.cls-2{fill:#9f6042;}.cls-3{fill:#b5b5b5;}.cls-3,.cls-6{stroke:#7fadd5;stroke-miterlimit:10;stroke-width:0.25px;}.cls-4{fill:#9c9c9c;}.cls-5{fill:none;}.cls-6{fill:#e5e5e5;}</style></defs><g id="Calque_3" data-name="Calque 3"><polygon points="68.97 154.01 69.06 153.97 68.97 153.92 68.97 154.01"/><polygon points="69.06 153.97 69.16 154.01 69.16 153.92 69.06 153.97"/><polygon points="68.97 154.01 69.06 153.97 68.97 153.92 68.97 154.01"/><polygon points="69.06 153.97 69.16 154.01 69.16 153.92 69.06 153.97"/><polygon points="68.6 154.33 68.7 154.29 68.6 154.24 68.6 154.33"/><polygon points="68.7 154.29 68.79 154.33 68.79 154.24 68.7 154.29"/><polygon points="68.6 154.33 68.7 154.29 68.6 154.24 68.6 154.33"/><polygon points="68.7 154.29 68.79 154.33 68.79 154.24 68.7 154.29"/><polygon points="60.86 154.34 60.96 154.3 60.86 154.25 60.86 154.34"/><polygon points="60.96 154.3 61.06 154.34 61.06 154.25 60.96 154.3"/><polygon points="60.86 154.34 60.96 154.3 60.86 154.25 60.86 154.34"/><polygon points="60.96 154.3 61.06 154.34 61.06 154.25 60.96 154.3"/><path class="cls-1" d="M265,150.28v-43s-32.78-49.84-33.58-49.84-19.88,21.5-19.88,21.5l-2.51,18.61-5.46,72.66s10,155.14,10,156.68c0,.55.31,4.7.71,9.8.95,12.19,9.7,21.53,20.18,21.53h0c9.89,0,15-4.42,16.63-15.81l2.21-15.31S261.61,242,260.51,240c-.74-1.38,6.26-50.67,4.51-52.72S265,150.28,265,150.28Z"/><path class="cls-2" d="M249.58,363.79c-.2-.88-6.7-39-17.1-39h0c-9.87,0-18.2,7.79-19.47,18.2l-.87,7.1s-4.56,65.43-3.64,66.92,18.23,114.33,18.24,117.06c0,6.39,4.73,11.64,10.73,12h0c7,.41,8-4.08,7.24-11.51L256.5,410Z"/><path class="cls-2" d="M236.84,521.93c-4.44-.11-11,1.23-10.46,15.24.21,4.94-1.64,26.6-5.48,32-1.06,1.47-1.79,5.62-5,8.2a3.6,3.6,0,0,0-1.31,3.29l-.89,5.29,31.32,1,9.24-6.61-6.49-26.84-2.21-17.48-.72-4.14C243.69,522.05,243.4,522.08,236.84,521.93Z"/><path class="cls-2" d="M270.64,45l-30.12,0c-8.8,0-15.06.86-21.36,12.42,0,0-9.73,15.63-11.88,21.41-5.86,15.75-11.2,53.24-12.61,66.41-5.5,51.39,14.42,189.85,14.42,189.85s-4,57.91-2.8,77.17c1.49,24.35,15.43,96.07,15.43,96.07l25.88.05s9.83-76,10.24-101.52c.28-16.91-4.62-50.54-4.58-67.46.09-37.93,11.67-113.06,15.22-150.78,1-10.45,25.58-52.38,25.58-52.38Z"/><path class="cls-3" d="M225.7,547l21-1.13s10,28.44,8.29,38c-.67,3.85-5.19,10.83-8.29,13-3.69,2.55-16.79,5.63-16.79,5.63s-17.21-9.22-19.78-14.2c-1.37-2.64,2-11.87,2-11.87l6.32-14.25Z"/><path class="cls-4" d="M389.34,594.08s9.81,4.95,13.29,5.92c7.24,2,29.73,3.76,29.73,3.76v-9.68l-21.51-10.39-21.51,10.39"/><path class="cls-2" d="M336.77,363.65c0-.91-.76-39.59,9.43-41.8h0c9.66-2.1,19.3,3.75,22.5,13.68l2.19,6.78S387.66,405.44,387,407.1,390.7,523,391.19,525.67c1.17,6.27-2.44,12.41-8.25,14h0c-6.79,1.89-8.62-2.3-9.26-9.74l-35-119.55Z"/><path class="cls-2" d="M379,515.87c4.33-1,11.05-1.14,13.11,12.71.73,4.88,6.61,25.72,11.39,30.15,1.31,1.22,2.81,5.14,6.42,7a3.5,3.5,0,0,1,1.9,2.94l1.87,5-30.51,1.89-10-9.49,1-17-1.12-17.6-.07-4.21C372.32,517.45,372.61,517.42,379,515.87Z"/><path class="cls-2" d="M221.19,48.82l22-3.5c8.62-2,55-4.36,59.14,4.35,0,0,4.3-11.58,44.86,78.1C368.07,173.91,372.76,326,372.76,326s14.23,55.85,16.5,75c2.88,24.2.08,115.41.08,115.41l-6.4,23.28s-40.19-107.47-45.15-132.4c-3.29-16.5-4.48-50.56-7.53-67.12C323.41,303,298.67,232,288.46,195.87c-2.82-10-25-52.34-25-52.34Z"/><polygon class="cls-3" points="394.63 538.02 373.85 541.38 373.19 566.05 383.19 575.54 389.35 594.08 432.36 594.08 413.46 563.96 404.59 551.35 394.63 538.02"/><polygon class="cls-2" points="373.85 541.38 397.65 578.05 419.98 581.24 409.42 558.21 394.63 538.02 373.85 541.38"/><polygon class="cls-2" points="225.7 546.95 222.35 574.76 246.69 574.76 246.69 545.82 234.52 539.11 225.7 546.95"/><polygon points="116.68 146.89 116.77 146.85 116.68 146.81 116.68 146.89"/><polygon points="116.77 146.85 116.87 146.89 116.87 146.81 116.77 146.85"/><polygon points="116.68 146.89 116.77 146.85 116.68 146.81 116.68 146.89"/><polygon points="116.77 146.85 116.87 146.89 116.87 146.81 116.77 146.85"/><path class="cls-5" d="M313.15,62.12c15.56,5,22.34,9.27,26,15.94,3,5.41,5.81,17.79,6,24,.52,14.5-7.49,51-21.11,63.13-13.87,12.38-81.64,12.38-95.5,0C215,153,207,116.53,207.51,102c.22-6.18,3-18.56,6-24,3.7-6.67,10.48-10.92,26-15.94,17.8-5.76,35.9-4.85,35.9-4.85S295.36,56.36,313.15,62.12Z"/><path class="cls-6" d="M341.92,77.47c12,55,31.26,135.39,30.83,140.19-8.66,97.84-112.47,314.71-112.47,314.71-22.71,9.69-135.45,45.67-85.22-324.56,3.91-28.84,20-86.58,31.5-129.17,0,0,9.76-27.76,21.21-39s89.46-10.14,99.78-.06S341.92,77.47,341.92,77.47Z"/></g></svg>