<?xml version="1.0" encoding="utf-8"?>
<!-- Generator: Adobe Illustrator 26.0.1, SVG Export Plug-In . SVG Version: 6.00 Build 0)  -->
<svg version="1.1" id="Calque_1" xmlns="http://www.w3.org/2000/svg" xmlns:xlink="http://www.w3.org/1999/xlink" x="0px" y="0px"
	 viewBox="0 0 788 1005.1" style="enable-background:new 0 0 788 1005.1;" xml:space="preserve">
<style type="text/css">
	.st0{fill:none;}
	.st1{fill:#BAA535;}
	.st2{fill:#B1A54C;}
	.st3{fill:#9F6042;}
	.st4{fill:#D5C65A;}
	.st5{fill:#3D3D3D;}
	.st6{fill:#5D5E6D;}
</style>
<g id="Calque_3">
	<path class="st0" d="M413.9,411.5c15.7,4.7,22.5,8.7,26.4,15.3c3.1,5.3,6.2,17.6,6.6,23.8c0.9,14.5-6.3,51.1-19.6,63.6
		c-13.6,12.7-81.3,14.3-95.5,2.2c-13.9-11.8-22.8-48.1-22.6-62.6c0.1-6.2,2.6-18.6,5.5-24.1c3.5-6.8,10.2-11.2,25.7-16.5
		c17.6-6.2,35.8-5.7,35.8-5.7S396,406.2,413.9,411.5z"/>
	<path class="st1" d="M369.5,503.8l-1-42.2c0,0-38.7-48-39.6-48s-22.3,21.6-22.3,21.6l-2.5,18.3l-4.6,71.5c0,0,15,152,15,153.5
		c0,0.5,0.5,4.6,1,9.6c1.4,11.9,11.6,20.9,23.6,20.6l0,0c11.3-0.3,17.1-4.7,18.7-16l2.2-15.1c0,0,7.6-83.7,6.3-85.7
		c-0.9-1.3,6-49.9,4-51.8S369.5,503.8,369.5,503.8z"/>
	<path class="st2" d="M372.8,371.4l-32.6,0.7c-9.5,0.2-17.8,6.7-20.3,15.8l-14.4,52.7c0,0-17.9,49.5-19.1,62.3
		c-4.8,49.6,23.9,240.5,25.6,259c2.2,23.4,18.9,92.2,18.9,92.2l27.2-6.2c0,0,9.7-67.9,9.6-92.5c-0.1-16.3,3.6-174.1,6.6-210.5
		c0.8-10.1,3.1-43.6,3.1-43.6L372.8,371.4z"/>
	<path class="st3" d="M352.7,713.3c0.4-0.8,14.2-37.7,25.2-35.7l0,0c10.5,1.9,18,11.3,17.5,22l-0.4,7.3c0,0-7,66.4-8.2,67.7
		s-40,111-40.6,113.7c-1.2,6.4-7.1,10.7-13.6,10l0,0c-7.5-0.9-7.8-5.6-5.6-12.9l10-127L352.7,713.3z"/>
	<path class="st4" d="M373,368.6l49.8,9c9.4,1.7,16.5,9.3,17.6,18.8l6.1,54.3c0,0,10,51.7,9.3,64.5C452.8,564.9,395,749,390.4,767
		c-5.8,22.8-32.9,88.2-32.9,88.2l-27.5-4.9c0,0,2.5-74,6.5-98.3c2.6-16.1,23.4-172.6,26-209c0.7-10.1,3.7-43.5,3.7-43.5l-62-45.3
		l13.5-64.1c2.6-12.3,13.4-21.2,26-21.3L373,368.6z"/>
	<path class="st5" d="M339,883.9L339,883.9c5.8,0.1,11.1,4.1,13.6,10.3l0,0c5.7,14,29.6,32.6,29.6,32.6c4.3,3.9,6.4,10.3,5.4,16.6
		l0,0l-58-0.1l-3.3-1.2c-3.7-1.3-6.2-5.6-5.8-10.2l3.2-34C325.3,889.6,331.7,883.7,339,883.9z"/>
	<path class="st6" d="M386,943.1L386,943.1c0.8-5.6-20.6-10.6-25.4-11.5l0,0c-3-0.5-22.3,1.3-30.4,4.1c-2.2,0.7-3.3,3.1-2.6,5.2
		c0.3,1,1.1,1.9,2.1,2.4l0,0L386,943.1z"/>
</g>
</svg>
