<svg xmlns="http://www.w3.org/2000/svg" viewBox="0 0 788 1005.07"><defs><style>.cls-1{fill:none;}.cls-2{fill:#baa535;}.cls-3{fill:#9f6042;}.cls-4{fill:#3d3d3d;}.cls-5{fill:#21212d;}</style></defs><g id="Calque_3" data-name="Calque 3"><polygon points="230.88 515.04 230.98 515 230.88 514.96 230.88 515.04"/><polygon points="230.98 515 231.07 515.04 231.07 514.96 230.98 515"/><polygon points="230.88 515.04 230.98 515 230.88 514.96 230.88 515.04"/><polygon points="230.98 515 231.07 515.04 231.07 514.96 230.98 515"/><path class="cls-1" d="M424.51,431.1c15.55,5,22.34,9.27,26,15.95,3,5.4,5.82,17.79,6,24,.52,14.5-7.48,51-21.11,63.13-13.86,12.37-81.63,12.37-95.49,0C326.35,522,318.34,485.52,318.87,471c.22-6.18,3-18.57,6-24,3.7-6.68,10.48-10.92,26-15.95,17.8-5.75,35.9-4.84,35.9-4.84S406.71,425.35,424.51,431.1Z"/><path class="cls-2" d="M378,522.31V480.09s-37.57-48.9-38.49-48.9-22.8,21.09-22.8,21.09l-2.87,18.27-6.25,71.3S319,694.1,319,695.61c0,.54.35,4.61.8,9.62a23.24,23.24,0,0,0,23.14,21.13h0c11.33,0,17.17-4.34,19.05-15.52l2.54-15s9.54-83.47,8.27-85.51c-.84-1.35,7.19-49.72,5.18-51.74S378,522.31,378,522.31Z"/><path class="cls-3" d="M361.27,724c-.22-.89-7.25-39.62-18.5-39.62h0a21.25,21.25,0,0,0-21.07,18.51l-.94,7.23s-4.93,66.56-3.93,68.08,19.71,116.31,19.73,119.09a12.29,12.29,0,0,0,11.6,12.2h0c7.59.42,8.68-4.15,7.84-11.7L368.76,771Z"/><path class="cls-3" d="M347.48,884.87c-4.8-.11-11.94,1.25-11.31,15.51.22,5-1.77,27.07-5.93,32.52-1.14,1.5-1.93,5.73-5.39,8.35a3.54,3.54,0,0,0-1.41,3.34l-1,5.39,33.89,1,4.34-7.4-1.36-26.62-2.4-17.79-.78-4.21C354.9,885,354.58,885,347.48,884.87Z"/><path class="cls-4" d="M332.75,915.61a10.23,10.23,0,0,1,8.6-5.58l3-.15,3.84-.19h0a10.23,10.23,0,0,1,10.72,9.45l1.81,24.4.17,8.86-42.3,0,2.18-12.08,6.84-14.5Z"/><path class="cls-3" d="M409.78,724c.22-.89,7.24-39.62,18.5-39.62h0a21.25,21.25,0,0,1,21.07,18.51l.93,7.23s4.94,66.56,3.94,68.08S434.5,894.5,434.49,897.28a12.29,12.29,0,0,1-11.6,12.2h0c-7.59.42-8.68-4.15-7.84-11.7L402.29,771Z"/><path class="cls-3" d="M423.57,884.87c4.8-.11,11.94,1.25,11.31,15.51-.23,5,1.77,27.07,5.93,32.52,1.14,1.5,1.93,5.73,5.38,8.35a3.53,3.53,0,0,1,1.42,3.34l1,5.39-33.89,1-5.39-6.68,2.41-27.34,2.4-17.79.78-4.21C416.15,885,416.47,885,423.57,884.87Z"/><path class="cls-4" d="M427,909.9h0a14.87,14.87,0,0,0-15.55,13.33l-2.16,21,.88,8.14,42.29,0-2.17-12.08-6.84-14.5L439.52,918A14.86,14.86,0,0,0,427,909.9Z"/><path class="cls-5" d="M325.61,386.7a35.15,35.15,0,0,0-17.83,23.92c-4.17,20.42-5.49,48.14-7.74,76.63-10.73,136.41,17.18,424.05,33.27,402.69,62.2-82.59,109.87-73.79,181.38-143.49C557.27,705,504,578.92,485.08,531.66c-11.63-29-28.5-76.16-39.81-118.35-4.51-16.8-10.32-31.43-27.72-31.43l-89.05,3.39Z"/></g></svg>