<svg xmlns="http://www.w3.org/2000/svg" viewBox="0 0 588 605.71"><defs><style>.cls-1{fill:#5d4751;}.cls-2{fill:#9f6042;}.cls-3{fill:#90b4c4;}.cls-4{fill:#7698a8;}.cls-5{fill:#91b5c5;}.cls-6{fill:#7498a8;}.cls-7{fill:#44351a;}.cls-10,.cls-8,.cls-9{fill:none;stroke-miterlimit:10;}.cls-8{stroke:#7498a8;}.cls-8,.cls-9{stroke-linecap:round;stroke-width:2px;}.cls-9{stroke:#7198a8;}.cls-10{stroke:#4b3842;}.cls-11{fill:#847324;}</style></defs><g id="Calque_3" data-name="Calque 3"><polygon points="120.88 165.69 120.97 165.65 120.88 165.6 120.88 165.69"/><polygon points="120.97 165.65 121.07 165.69 121.07 165.6 120.97 165.65"/><polygon points="120.88 165.69 120.97 165.65 120.88 165.6 120.88 165.69"/><polygon points="120.97 165.65 121.07 165.69 121.07 165.6 120.97 165.65"/><path class="cls-1" d="M230.36,331.67a25.82,25.82,0,0,0,27.87,19.41h0a25.84,25.84,0,0,0,22.94-23.45s4.56-87.29,1.73-118c-.66-7.28-5.34-28.75-5.34-28.75l-11.11-50s-6.59-23.39-32.19-23.17c-29.49.25-28.4,16-28.4,16s-2.3,77.27.63,102.73C209.19,249.85,230.36,331.67,230.36,331.67Z"/><path class="cls-2" d="M250.76,311.58c-13.27,1.91-20.23,9.74-20.92,21,0,0,1.57,53.71,3.68,74.47,3.38,33.28,17.65,96.24,27.3,128.26,2.12,7,7.39,28.34,7.39,28.34a12.63,12.63,0,0,0,14.34,9.26h0A12.63,12.63,0,0,0,293,559.75s-1.81-25.19-1.91-33.6c-.36-30.5,3.05-91.64.21-122-1.7-18.28-12.08-73.63-12.08-73.63-3.64-18.16-17.08-20.17-28.5-18.93Z"/><path class="cls-3" d="M279.57,555.75h0a15.44,15.44,0,0,0-13.63,8.76h0c-5.69,11.85-29.55,27.65-29.55,27.65A14.56,14.56,0,0,0,231,606.21h0l58,0,3.27-1a8.22,8.22,0,0,0,5.83-8.61l-3.2-28.85A15.44,15.44,0,0,0,279.57,555.75Z"/><path class="cls-4" d="M232.65,605.93h0a8.65,8.65,0,0,1,7.29-9.94l34.53-5a8.64,8.64,0,0,1,9.66,6.56l1.95,8.2Z"/><path class="cls-1" d="M518.44,145.25A25.84,25.84,0,0,1,535,174.88h0a25.84,25.84,0,0,1-25.59,20.53s-87.32-4-117.66-9.83c-7.49-1.44-76.72-24.09-76.72-24.09s-21.57-2.8-19.9-34.3c1.49-28.08,18.66-26.71,18.66-26.71s76.19,5,101.24,10.46C438.16,115.92,518.44,145.25,518.44,145.25Z"/><path class="cls-2" d="M533.65,166.13c5.9,10.42,3.52,19.94-5.11,27.14,0,0-45.18,18.19-63,29.07C437.05,239.79,380,280,349,292.31,342.16,295,322.14,304,322.14,304c-6,2.61-12.7.65-15.43-4.52h0c-2.69-5.08-.67-11.61,4.67-15.18,0,0,21.17-13.73,28-18.67C364,247.74,411,209,436.87,192.85c15.58-9.69,65.69-35.39,65.69-35.39,16.57-8.26,25.7-.06,31.09,8.67Z"/><path class="cls-2" d="M332.1,295.68c-32.62,3.05-32.86,51.21-32.86,51.21-2.76,4.66-29.14-61.26-25.24-61.39,0,0,49.84-5.05,62.12-9.06C344.77,273.61,351.25,293.89,332.1,295.68Z"/><path class="cls-5" d="M319.65,292c2.86,5.82,7.23,4.82,10,6.93,1.66,1.27,4,7.11,2.26,8.24-20.31,13-26.2,62.77-26.2,62.77-3,5.58-7.87,7.39-13.28,7.1h0s-14.36-40.63-7.12-64.86c1.46-4.86-4-8.21-4-8.21s-6.33-20.94.3-20.57L322,275.7C329.29,276.44,314.72,282,319.65,292Z"/><path class="cls-6" d="M283.73,379.54c8.71-.3,13.47-5.88,13-7.5-.61-2.35-3.08-5.92-3.8-8.24-1.15-3.69-1.7-15.26-1.7-15.26-.08-3-3.33-5-7.5-4.72l-8.27.88s-.05,7.11,4.57,23.32C280.83,370.71,283.73,379.54,283.73,379.54Z"/><polygon class="cls-7" points="204.13 138.5 205.58 116.83 354.79 116.83 356.71 135.61 204.13 138.5"/><path class="cls-8" d="M263.15,573.59s4.57-3.21,8.59-3.19c4.91,0,9.57,3.05,9.57,3.05"/><path class="cls-9" d="M315.48,320.37a30.08,30.08,0,0,1-3.17-8.35"/><path class="cls-9" d="M311.44,326.39a30.32,30.32,0,0,1-3.71-8.12"/><polygon class="cls-10" points="279.09 175.6 274.28 137.1 288.72 137.1 287.76 168.17 279.09 175.6"/><path class="cls-11" d="M205.58,116.84s55.83-10.43,143-13.71c67.07-2.53,173,33.35,181.8,44.81s14.57,36.65,6.53,42.6c-40.29,29.84-170.27,90.81-180.18,98.75-6.51,5.2-12.16,4.84-12.16,4.84l-16.08-21.05s16.17-9.84,16.08-11.29c-.07-.91,25.1-16.79,40.89-39.45,9.3-13.35,41.67-29.49,51.42-29.49,0,0-63.71,12.74-158.33-7.4C235.61,176.31,205.58,116.84,205.58,116.84Z"/><path class="cls-11" d="M208.68,108.36c-1.22,2.2-2.37-4.21-18.93,58-12.3,46.2,70.8,369.64,70.8,369.64l4.05,19c8.3-3.55,28.62-6.13,28.62-6.13l-1.74-15c4.47-7.53,10-82.7,5.32-113.68s-8.08-135.58-8.08-135.58c18.66-79.79,18.1-102,26.35-122.39s-1.58-56.63-9.39-56.06S215.29,96.48,208.68,108.36Z"/><path class="cls-11" d="M208.53,154.7c-1.3-2.21-4.4-15.54-4.4-15.54s2.38-50.41,7.5-63.68,27-38.36,69.87-35.61,49.64,26.34,56.89,35.61,10.14,42.66,8.21,43.63-135.35,49-138.07,37.91"/></g></svg>