<svg xmlns="http://www.w3.org/2000/svg" viewBox="0 0 134.11 116.63"><defs><style>.cls-1{fill:#d48f72;}.cls-2{fill:#6d323a;}.cls-3{fill:none;stroke:#000;stroke-miterlimit:10;stroke-width:3px;}.cls-4{fill:#aa5b3f;}.cls-5{fill:#473415;}.cls-6{fill:#d79072;}.cls-7{fill:#ddd;}.cls-8{fill:#9b1717;}.cls-9{fill:#5b3c25;}.cls-10{fill:#472e1d;}.cls-11{fill:#b81717;}.cls-12{fill:#fff;}.cls-13{fill:#898c68;}</style></defs><g id="Calque_5" data-name="Calque 5"><path class="cls-1" d="M88.84,59.77c3.09,2,6.41,10,10,10.85,1.28.29,3.84-1.51,4.55-2.61,2.56-4,1.32-15.31,4.94-18.41,3.06-2.62,10.42-1.12,10.6-12.16.1-6.71-7.73-9.92-9.65-10.6-.31-.11-.61-.24-.91-.38L96.72,20.68a8.2,8.2,0,0,1-4.55-7.23L92.1,8.26l-7.75.59-7.65-.6,0,4.53a9.06,9.06,0,0,1-5,8.19L60.14,26.7S50,29.79,50.08,37.44c.17,11,7.53,9.54,10.6,12.16C64.3,52.7,63.06,64,65.62,68c.7,1.1,3.27,2.9,4.54,2.61,3.6-.83,6.77-9.08,10-10.85C82.06,58.73,87,58.58,88.84,59.77Z"/><polygon class="cls-2" points="85.12 6.72 92.31 7.87 92.6 24.55 84.69 33.9 76.87 24.55 77.16 7.87 85.12 6.72"/><path class="cls-3" d="M101.78,35.27c-.38,7.95,5.1,15.39,5.1,15.39s9,15.5,11.87,20.72c1.37,2.45,4.13,7.62,10.36,4.38h0c5.13-2.68,3.42-8.07,2.34-10.55-2.2-5-7.7-14.79-9-20.07-1-3.94-.87-10.38-6-15,0,0-3.78-4.28-9.17-2.23l-.21.08a8.26,8.26,0,0,0-5.31,7.32Z"/><path class="cls-4" d="M30.26,66.48c-5.62,1-8.6-5.08-9.55-7.36S19,51.79,18.57,49.31c-1-6.35-1.89-17.14-3-23.33-.71-4.07-1.2-6.2,1.29-7.34,2.25-1.05,4.24,2.48,5,3.85,3.28,5.65,9.84,16.61,12.29,23.07,1,2.65,2.54,8.2,2.63,11C37.09,64.53,31.9,66.18,30.26,66.48Z"/><path class="cls-3" d="M66.56,40.52c-3.43,7.19-11.77,11.15-11.77,11.15S39.56,61.09,34.53,64.31c-2.36,1.52-7.25,4.77-11.2-1h0c-3.26-4.79.81-8.73,2.93-10.41,4.32-3.4,13.78-9.38,17.4-13.44,2.7-3,5.68-8.72,12.4-10.41,0,0,5.36-2,9.13,2.38l.15.17a8.24,8.24,0,0,1,1.22,9Z"/><polygon class="cls-5" points="61.67 97.1 62.1 90.63 106.67 90.63 107.25 96.24 61.67 97.1"/><path class="cls-6" d="M132.23,66.45c-2.6-5.1-9.27-3.75-11.66-3.11s-6.88,3.07-9.09,4.27c-5.65,3-14.76,8.91-20.33,11.82-3.66,1.92-5.64,2.82-5,5.49.54,2.42,4.55,1.86,6.13,1.66,6.48-.83,19.16-2.29,25.78-4.27,2.71-.82,8.06-3,10.36-4.63C134.83,73.06,133,67.93,132.23,66.45Z"/><path class="cls-4" d="M20.9,19.38l-1.18-5.81L16,6.3s-1.31,1-1.42,1.46c-.36,1.55.54,3.93,1,5.45a2.3,2.3,0,0,1-.35,1.26c-.71.49-2.09-.74-2.09-.74l3,5.12Z"/><path class="cls-4" d="M19.5,18.19l-4.67,3.94L5.6,12.89,0,.23A6.71,6.71,0,0,1,2.44.09c2.9,1.33,5.68,7.68,7.71,10.13C12.35,12.86,19.5,18.19,19.5,18.19Z"/><ellipse class="cls-4" cx="17.47" cy="20.04" rx="3.5" ry="3.48" transform="translate(-5.38 6.45) rotate(-18.18)"/><path class="cls-7" d="M69.81,22.39c.39-.39,5-5.85,5.43-5.84.19,0,4,9.09,8.35,9.21C88.9,25.91,94,16.55,94,16.55l2.57,4L98,66.73l-28.17.39Z"/><path class="cls-7" d="M16.63,37.48,15,28.57s8-5.49,8.48-5.23,2.43,6,2.43,6Z"/><path class="cls-8" d="M81.46,30.53h5.26S90.81,50,90.62,50.59,87.94,65.94,88,66.29s-3.62,4.61-3.62,4.61S80.68,65.58,80.5,65s-1.35-13.34-1.64-13.81S81.46,30.53,81.46,30.53Z"/><path class="cls-9" d="M109.55,86.86l5.13,25.32a1.19,1.19,0,0,1-1,1.42c-4.78.52-16.67,4-20.89,2.75-2.46-.74-4.8-7.14-5.22-8.54a2.43,2.43,0,0,1-.18-.58c-.15-4.46-2-48.84-1.19-55.17S92.55,26.23,94,19.88c.17-.74.34-1.42.34-1.42l15.45,7.1.07,0,7.34,2.84a1.18,1.18,0,0,1,.58.48l4.07,6.51a1.33,1.33,0,0,1,.11.24l11.3,32.25a1.2,1.2,0,0,1-.62,1.47L108.47,80.57a1.19,1.19,0,0,0-.62,1.47l1.65,4.66A1.42,1.42,0,0,1,109.55,86.86Z"/><path class="cls-9" d="M74.69,18.27s8.5,29.15,8.5,33.62.09,52.59-2.15,55.24-5.88,7.79-9.78,7.79-13.39-2.27-13.39-2.27A3.52,3.52,0,0,1,55,108.37l4.55-25,1.59-15.52L58.5,50.54S30.17,68.49,29.22,68.32c-6.07-1.09-8.7-7.59-8.7-7.59L12.75,36.24l12.61-8.93c1.15-.85,8.86,18.08,8.86,18.08L50.08,29.47Z"/><path class="cls-10" d="M74.39,17.2l-2.83,2.5L69.77,46.3l4.92,2.46v5.92s7.49,23.55,7.93,22.84.57-21.82.57-21.82V51.89L78.84,33.05Z"/><path class="cls-11" d="M80,28a33.58,33.58,0,0,1,2.56-4.4c.49-.47,3.38,0,3.38,0l2.57,4.08s-1.07,2.76-1.89,3.14a23.28,23.28,0,0,1-5,0C81.05,30.74,80.28,28.15,80,28Z"/><path class="cls-10" d="M94.66,17.61,97,19.7l1.79,26.6-4.92,2.46v5.92s-7.49,23.55-7.93,22.84-.57-21.82-.57-21.82V51.89L89.7,33.05Z"/><path class="cls-12" d="M92.42,14.17l2.24,3.44-5.51,12.3A52.22,52.22,0,0,0,86,23.55C85.57,23,92.42,14.17,92.42,14.17Z"/><polygon class="cls-13" points="78.55 55.76 80.7 95.18 110.64 93.82 113.97 55.32 78.55 55.76"/><path class="cls-12" d="M76.62,14.17l-2.23,3,5.19,12.71s2-5.17,3.39-6.51C83.45,22.93,76.62,14.17,76.62,14.17Z"/><polygon class="cls-4" points="91.34 79.71 85.72 75.81 79.33 74.25 80.18 76.8 83.11 78.15 84.29 79.97 80.35 80.08 80.26 77.16 78.43 76.9 75.18 80.93 76.44 89.61 82.01 91.59 91.83 86.8 94.68 85.9 100.53 84.46 95.62 78.44 93.07 79.45 91.34 79.71"/><path class="cls-7" d="M104,87.23l-9,.63s-4.68-8.24-4.38-8.63,6.23-1.71,6.23-1.71Z"/><path class="cls-9" d="M94.05,77.85c.77,1.21,7.33,16.35,7.86,15.75s28.24-16.8,28.24-16.8l.07,0a6.06,6.06,0,0,0,2.92-5l.08-3.51s-6.27-5.52-6.94-5.52S115,65.47,114,65.35,94.05,77.85,94.05,77.85Z"/><circle class="cls-10" cx="16.37" cy="38.11" r="1.35"/><circle class="cls-10" cx="17.72" cy="42.52" r="1.35"/><circle class="cls-10" cx="108.18" cy="86.01" r="1.35"/><circle class="cls-10" cx="104" cy="88.71" r="1.35"/></g></svg>