<svg xmlns="http://www.w3.org/2000/svg" viewBox="0 0 136.35 79.92"><defs><style>.cls-1{fill:#85331e;}.cls-2{fill:#aa5b3f;}.cls-3{fill:#6d323a;}.cls-4,.cls-5,.cls-7{fill:none;}.cls-4{stroke:#000;stroke-width:3px;}.cls-4,.cls-7{stroke-miterlimit:10;}.cls-6{fill:#473415;}.cls-7{stroke:#4f3742;}.cls-8{fill:#72271f;}</style></defs><g id="Calque_7" data-name="Calque 7"><path class="cls-1" d="M53.77,5.17c0-4.82,6.4-2.41,14.27-2.41S82.28.35,82.28,5.17,75,14.75,67.14,14.75,53.77,10,53.77,5.17Z"/><path class="cls-2" d="M15.17,50.34A29.1,29.1,0,0,0,11,49c-.59,0-3,.63-3.51.57s-3.2-1-3.24-.68,0,1.69,0,1.69l2.21,1.08,2.85,0L5.76,54.4S.47,57.07.12,57.15s.2,1.72.2,1.72L7,56,.78,60.91l1.16,1.48,6.63-5.21L2.85,63.55l1.71.84,5.26-5.48L7,63.93s1.54.77,1.76.39,3.29-4.56,3.29-4.56l5.37-4.43.27-1.77Z"/><path class="cls-2" d="M91.05,18c-.12,7.42-5.07,6.41-7.13,8.17-2.43,2.08-1.59,9.67-3.32,12.37-.47.75-2.19,1.95-3,1.76-2.42-.56-4.64-5.94-6.72-7.29-1.22-.8-4.55-.7-5.83,0-2.18,1.19-4.31,6.73-6.72,7.29-.86.19-2.58-1-3.06-1.76-1.72-2.7-.88-10.29-3.32-12.37-2.06-1.76-7-.75-7.12-8.17-.08-5.14,6.76-7.21,6.76-7.21L59.3,6.93A6.48,6.48,0,0,0,60.67,6a3.73,3.73,0,0,0,.44-.45l.13-.13h0a6.19,6.19,0,0,0,1.39-3.18,5.51,5.51,0,0,0,0-.81V0H73l0,1v1.1h0l0,.38a6.54,6.54,0,0,0,.18.88,5.54,5.54,0,0,0,2.84,3.4L84,10.61a4.14,4.14,0,0,0,.61.26C85.86,11.33,91.12,13.48,91.05,18Z"/><polygon class="cls-2" points="73.2 9.33 67.88 15.61 65.02 12.19 62.63 9.33 62.77 1.3 62.77 0.87 62.79 0 73.04 0 73.04 0.04 73.05 0.94 73.05 0.95 73.06 1.25 73.07 2.06 73.07 2.07 73.08 2.32 73.1 3.63 73.2 9.33"/><path class="cls-3" d="M73.29,3.39l-.19.24c-1,1.22-5.57,6.77-8.08,8.56-.61.44-1.11.66-1.39.52-1.3-.63-2.87-6.78-2.87-6.78h0a3.14,3.14,0,0,0,.33-.37,3,3,0,0,0,.21-.25v0a7.63,7.63,0,0,0,1.29-2.93.5.5,0,0,1,0-.12c0-.26.09-.58.13-.93,0-.14,0-.28,0-.43s0-.57,0-.87H73V2.17l0,.15,0,.13.18.88Z"/><path class="cls-4" d="M81.37,49.4a45.37,45.37,0,0,1-1.09-6.54c0-1.77.78-5.36.35-7.09-1.88-7.64-23.87-7.66-25.76,0-.43,1.73.34,5.32.35,7.09a45.37,45.37,0,0,1-1.09,6.54C52,59.12,67.73,63.57,67.73,63.57S83.5,59.12,81.37,49.4Z"/><path class="cls-5" d="M75.3,46.52c3.12,1,4.48,1.87,5.22,3.21a14.45,14.45,0,0,1,1.22,4.81c.1,2.91-1.51,10.23-4.24,12.67s-16.39,2.48-19.17,0S54,57.45,54.09,54.54a14.43,14.43,0,0,1,1.21-4.81c.75-1.34,2.11-2.2,5.23-3.21a22.9,22.9,0,0,1,7.21-1A24.69,24.69,0,0,1,75.3,46.52Z"/><path class="cls-2" d="M45.53,38.85c-1.88-2.9-6.26-1.61-7.83-1.05A42.19,42.19,0,0,0,31.8,41c-3.66,2.25-14.6,9.25-18.62,10.46-2.82.84,1.45,4.82,1.45,4.82a39.63,39.63,0,0,1,5-2.44c4.13-1.46,10.07-2.23,17-4.41a28.12,28.12,0,0,0,6.74-3.53C47.45,42.66,46.07,39.69,45.53,38.85Z"/><path class="cls-4" d="M56.57,17.32c.54,5.32-2.88,10.5-2.88,10.5s-5.47,10.72-7.24,14.32c-.83,1.7-2.5,5.27-6.8,3.31h0c-3.53-1.62-2.57-5.3-1.93-7C39,35,42.36,28.26,43,24.67c.5-2.68.23-7,3.5-10.31a5.78,5.78,0,0,1,6.08-1.81l.14,0a5.55,5.55,0,0,1,3.82,4.73Z"/><path class="cls-2" d="M121.19,50.34A28.92,28.92,0,0,1,125.34,49c.59,0,3,.63,3.51.57s3.2-1,3.24-.68,0,1.69,0,1.69l-2.2,1.08-2.85,0,3.52,2.67s5.29,2.67,5.65,2.75-.21,1.72-.21,1.72L129.33,56l6.24,4.91-1.16,1.48-6.63-5.21,5.72,6.37-1.7.84-5.27-5.48,2.82,5s-1.54.77-1.76.39-3.29-4.56-3.29-4.56l-5.37-4.43-.27-1.77Z"/><path class="cls-2" d="M90.83,38.85c1.87-2.9,6.26-1.61,7.82-1.05A42.3,42.3,0,0,1,104.56,41c3.66,2.25,14.59,9.25,18.62,10.46,2.82.84-1.45,4.82-1.45,4.82a39.29,39.29,0,0,0-5-2.44c-4.13-1.46-10.06-2.23-17-4.41A28.12,28.12,0,0,1,93,45.92C88.91,42.66,90.28,39.69,90.83,38.85Z"/><path class="cls-4" d="M79.78,17.32c-.53,5.32,2.88,10.5,2.88,10.5s5.47,10.72,7.24,14.32c.83,1.7,2.51,5.27,6.8,3.31h0c3.54-1.62,2.57-5.3,1.94-7C97.34,35,94,28.26,93.32,24.67c-.5-2.68-.22-7-3.5-10.31a5.78,5.78,0,0,0-6.08-1.81l-.14,0a5.55,5.55,0,0,0-3.82,4.73Z"/><polygon class="cls-6" points="52.39 58.25 52.68 53.91 82.64 53.91 83.02 57.67 52.39 58.25"/><polygon class="cls-7" points="67.44 65.7 66.47 57.97 69.37 57.97 69.18 64.21 67.44 65.7"/><polygon class="cls-1" points="24.45 44.5 26.07 55.52 35.86 51.88 46.72 45.79 49.76 38.73 50.74 46.72 50.05 53.28 51.78 63.99 83.84 63.99 85.96 54.31 85.96 46.22 85.39 38.97 91.2 48.13 93.09 49.1 110.22 55.98 114.92 46.62 101.21 38.21 91.74 13.6 78.92 7.23 69.03 12.53 58.85 6.81 46.46 12.3 43.38 16.16 36.48 36.88 24.45 44.5"/><path class="cls-8" d="M54.76,9.09s8.76,8.16,13,9.07c0,0-5.08,3-8.94,1S51.39,10.06,51.55,10,54.76,9.09,54.76,9.09Z"/><path class="cls-1" d="M26.26,44c-.19,0-6.6,3.88-6.6,3.88s.77,6.34,1,6.38a50.19,50.19,0,0,0,6.28-1.2C27.17,52.8,26.26,44,26.26,44Z"/><path class="cls-1" d="M113,46.33c.2,0,5.68,2.46,5.69,2.78s-2.26,5.51-2.26,5.51l-9.25-2.08Z"/><rect class="cls-8" x="50.7" y="57.31" width="34.31" height="8.4"/></g></svg>