<svg xmlns="http://www.w3.org/2000/svg" viewBox="0 0 788 1005"><defs><style>.cls-1{fill:#ff931e;}.cls-2{fill:#d68f72;}.cls-3{fill:#5e6d70;}.cls-4{fill:#6399aa;}.cls-5,.cls-8{fill:none;stroke-linecap:round;stroke-miterlimit:10;stroke-width:2px;}.cls-5{stroke:#4e6566;}.cls-6{fill:#69a;}.cls-7{fill:#4e6566;}.cls-8{stroke:#abc638;}.cls-9{fill:#4694b5;}</style></defs><g id="Calque_10" data-name="Calque 10"><path class="cls-1" d="M334.37,726.23c1.21,10.93,8.45,19.2,16.94,19.37h0c8.12.16,15.06-7.14,16.58-17.43,0,0,8.81-73.39,9-99.72.05-6.23-1.58-24.89-1.58-24.89l-3.93-43.46s-2.75-20.48-19.52-23c-19.32-2.9-19.65,10.51-19.65,10.51s-6.18,69-6,90.9C326.46,658.65,334.37,726.23,334.37,726.23Z"/><path class="cls-1" d="M472.24,718.08c.76,11-4.87,20.41-13.19,22.1h0c-8,1.61-16.1-4.32-19.44-14.17,0,0-21.83-70.62-26.76-96.49-1.16-6.12-2.91-24.77-2.91-24.77L406,561.3s-1-20.65,15.08-26.14c18.48-6.32,21.22,6.82,21.22,6.82s18.46,66.81,22.17,88.35C467.9,650.18,472.24,718.08,472.24,718.08Z"/><path class="cls-2" d="M351.25,708.87c-9.22.2-14.6,5.28-16,13.44,0,0-1.46,36.38-1.7,51.71C333.18,798.59,336,848.73,340,873c.88,5.3,2.76,21.33,2.76,21.33a8.91,8.91,0,0,0,9,8h0a8.92,8.92,0,0,0,8.23-8.65s.8-18.54,1.41-24.68c2.22-22.28,9.49-66.56,10-89,.31-13.48-2.3-54.79-2.3-54.79-1-13.57-10-16.24-17.93-16.36Z"/><path class="cls-2" d="M456.44,701.23c9.12-1.34,15.14,2.86,17.66,10.82,0,0,7.51,34.32,9.9,49.68,3.84,24.62,3.37,122,3.37,122,.07,4.89.24,11.39-4.22,11.92h0c-4.39.52-9.78-1.46-10.71-6.15,0,0-22.24-91-25.91-113.39-2.21-13.5-5.46-55.42-5.46-55.42-.91-13.8,7.6-18,15.37-19.44Z"/><path class="cls-3" d="M349.53,885.87h0a10.93,10.93,0,0,0-9.62,6.64h0c-4,8.94-20.83,20.92-20.83,20.92A11.3,11.3,0,0,0,315.29,924h0l41.09-.24,2.31-.74a6.2,6.2,0,0,0,4.1-6.5l-2.36-21.7A11.09,11.09,0,0,0,349.53,885.87Z"/><path class="cls-4" d="M316.47,923.8h0a6.47,6.47,0,0,1,5.13-7.5L346,912.38a6.14,6.14,0,0,1,6.86,4.9l1.41,6.16Z"/><path class="cls-5" d="M340.87,894.46s3.17-2.52,6-2.6a14,14,0,0,1,6.84,2.06"/><path class="cls-5" d="M338,899.35s3.23-2.43,6.07-2.42a14,14,0,0,1,6.79,2.25"/><path class="cls-6" d="M481.57,891.15c4.24-2.12,3.75-6.12,5.38-8.42,1-1.4,5.21-3.06,5.91-1.38,8.1,19.23,42.79,28.38,42.79,28.38,3.78,3.11,4.8,7.64,4.32,12.46h0s-29.75,11-45.67.46c-3.19-2.11-11.33-2.81-11.33-2.81s-14.52.56-13.92-5.37l1.17-26.72C471.11,881.29,474.29,894.79,481.57,891.15Z"/><path class="cls-7" d="M540.32,922.13c.23-7.84-3.45-12.54-4.61-12.28-1.69.36-4.32,2.3-6,2.77-2.65.74-10.82.34-10.82.34-2.09-.17-3.7,2.59-3.7,6.35l.2,7.49s5,.6,16.63-2.28C534,924,540.32,922.13,540.32,922.13Z"/><path class="cls-8" d="M497.72,891.36a17.72,17.72,0,0,1-6,2.19"/><path class="cls-8" d="M501.75,895.45a18.41,18.41,0,0,1-5.9,2.69"/><path class="cls-9" d="M337.64,492.79c-2.9,5.3-44.92,269.27-40.65,269.27s219.92-2.82,218.21-5.38-69.14-268.22-69.14-268.22L394,490.82s-55.11-.13-53.78,1.4Z"/></g></svg>