<?xml version="1.0" encoding="utf-8"?>
<!-- Generator: Adobe Illustrator 26.0.1, SVG Export Plug-In . SVG Version: 6.00 Build 0)  -->
<svg version="1.1" id="Calque_1" xmlns="http://www.w3.org/2000/svg" xmlns:xlink="http://www.w3.org/1999/xlink" x="0px" y="0px"
	 viewBox="0 0 388 514" style="enable-background:new 0 0 388 514;" xml:space="preserve">
<style type="text/css">
	.st0{clip-path:url(#SVGID_00000034796004542583410450000013232663716114383548_);}
	.st1{fill:#745C62;}
	.st2{clip-path:url(#SVGID_00000048467010216655216900000016003158242070430601_);}
	.st3{fill:#D4C06D;}
	.st4{fill:#D68F72;}
	.st5{fill:#83B5C6;}
	.st6{fill:#6999AA;}
	.st7{fill:none;stroke:#6699AA;stroke-width:2;stroke-linecap:round;stroke-miterlimit:10;}
	.st8{fill:#87B6C7;}
	.st9{fill:#6699AA;}
	.st10{fill:none;stroke:#6399AA;stroke-width:2;stroke-linecap:round;stroke-miterlimit:10;}
	.st11{fill:#BDCCD4;}
</style>
<g id="Calque_10">
	<g>
		<defs>
			<polygon id="SVGID_1_" points="197.6,28.9 171.7,150.9 130.5,150.9 130.5,28.9 			"/>
		</defs>
		<clipPath id="SVGID_00000020372350274675831640000009295975552179132606_">
			<use xlink:href="#SVGID_1_"  style="overflow:visible;"/>
		</clipPath>
		<g style="clip-path:url(#SVGID_00000020372350274675831640000009295975552179132606_);">
			<path class="st1" d="M225.3,41.9c11,7.5,15.4,12.7,16.9,19.8c1.2,5.8-2.1,32.3-3.2,38.4c-2.6,14.2-32.7,37.7-45.8,47.3
				c-13.3,9.8-5.4-3.9-20.5-5.1c-17-1.5-45.4-48.6-42-62.7c1.5-6,10.5-33.8,14-38.5c4.2-5.9,10.4-8.9,23.5-11.3
				c9.6-1.5,19.4-1.1,28.9,1.2C197.1,31,212.7,33.4,225.3,41.9z"/>
		</g>
	</g>
	<g>
		<defs>
			<polygon id="SVGID_00000170267525640453447450000007430109402305278633_" points="197.6,28.9 171.7,150.9 209.3,167.6 
				258.8,56.1 			"/>
		</defs>
		<clipPath id="SVGID_00000060737263689182661620000012648842047794369688_">
			<use xlink:href="#SVGID_00000170267525640453447450000007430109402305278633_"  style="overflow:visible;"/>
		</clipPath>
		<g style="clip-path:url(#SVGID_00000060737263689182661620000012648842047794369688_);">
			<path class="st1" d="M166.9,29.5c-13.1,2.3-19.2,5.4-23.5,11.3c-3.4,4.8-11.2,30.4-12.6,36.4c-3.4,14.1,14.6,47.7,22.6,61.8
				c8.2,14.4,6.5-1.3,20.8,3.6c16.1,5.6,61.2-26,63.8-40.2c1.1-6.1,4.1-35.1,2.9-40.9c-1.5-7.1-5.9-12.4-16.9-19.8
				c-8.2-5.3-17.3-8.9-26.9-10.6C197.1,31,181.9,26.8,166.9,29.5z"/>
		</g>
	</g>
	<path class="st3" d="M131.5,278.9c1.2,10.9,8.5,19.2,16.9,19.4l0,0c8.1,0.2,15.1-7.1,16.6-17.4c0,0,8.8-73.4,9-99.7
		c0-6.2-1.6-24.9-1.6-24.9l-3.9-43.4c0,0-2.8-20.5-19.5-23c-19.3-2.9-19.6,10.5-19.6,10.5s-6.2,69.1-6,90.9
		C123.5,211.3,131.5,278.9,131.5,278.9z"/>
	<path class="st3" d="M292.1,266.2c2,10.8-2.5,20.8-10.6,23.5l0,0c-7.7,2.5-16.5-2.5-20.9-11.9c0,0-29.8-67.6-37.7-92.8
		c-1.9-5.9-5.7-24.3-5.7-24.3l-8.9-42.7c0,0-3.3-20.4,12-27.7c17.6-8.4,21.9,4.3,21.9,4.3s26,64.3,32.2,85.2
		C280,199.3,292.1,266.2,292.1,266.2z"/>
	<path class="st4" d="M148.3,261.5c-9.2,0.2-14.6,5.3-16,13.4c0,0-1.5,36.4-1.7,51.7c-0.4,24.6,2.5,74.7,6.5,98.9
		c0.9,5.3,2.8,21.3,2.8,21.3c0.5,4.6,4.4,8.1,9,8l0,0c4.5-0.4,8.1-4.1,8.2-8.7c0,0,0.8-18.5,1.4-24.7c2.2-22.3,9.5-66.6,10-89
		c0.3-13.5-2.3-54.8-2.3-54.8C165.2,264.3,156.2,261.6,148.3,261.5L148.3,261.5z"/>
	<path class="st4" d="M274.5,251.3c8.9-2.4,15.4,1.1,18.8,8.7c0,0,11.4,33.2,15.5,48.2c6.6,24,17.3,120.8,17.3,120.8
		c0.6,4.9,1.5,11.3-2.8,12.3l0,0c-4.3,1-9.9-0.3-11.3-4.9c0,0-32.5-87.8-38.8-109.7c-3.7-13.1-11.8-54.4-11.8-54.4
		C258.9,258.8,266.9,253.6,274.5,251.3L274.5,251.3z"/>
	<path class="st5" d="M148.6,438.6L148.6,438.6c-4.2,0.2-8,2.8-9.6,6.6l0,0c-4,8.9-20.8,20.9-20.8,20.9c-3.1,2.6-4.5,6.6-3.8,10.6
		l0,0l41.1-0.2l2.3-0.8c2.7-1,4.4-3.6,4.1-6.5l-2.4-21.7C158.5,442.3,153.9,438.5,148.6,438.6z"/>
	<path class="st6" d="M115.6,476.5L115.6,476.5c-0.6-3.5,1.6-6.8,5.1-7.5l24.4-3.9c3.2-0.4,6.3,1.7,6.9,4.9l1.4,6.2L115.6,476.5z"/>
	<path class="st7" d="M140,447.1c0,0,3.2-2.5,6-2.6c2.4,0.1,4.8,0.8,6.8,2.1"/>
	<path class="st7" d="M137,452c0,0,3.2-2.4,6.1-2.4c2.4,0.2,4.8,0.9,6.8,2.3"/>
	<path class="st8" d="M319.1,438.4c4.2-2.2,3.7-6.2,5.2-8.5c1-1.4,5.2-3.1,5.9-1.5c8.5,19.1,43.3,27.6,43.3,27.6
		c3.8,3,4.9,7.5,4.5,12.4l0,0c0,0-29.5,11.5-45.7,1.3c-3.2-2-11.4-2.6-11.4-2.6s-14.5,0.8-14-5.1l0.7-26.7
		C308.4,428.8,311.9,442.2,319.1,438.4z"/>
	<path class="st9" d="M378.4,468.3c0.1-7.8-3.7-12.5-4.8-12.2c-1.7,0.4-4.3,2.4-5.9,2.9c-2.7,0.8-10.8,0.5-10.8,0.5
		c-2.1-0.1-3.7,2.7-3.6,6.4l0.3,7.5c0,0,5,0.5,16.6-2.6C372,470.4,378.4,468.3,378.4,468.3z"/>
	<path class="st10" d="M335.2,438.3c-1.8,1.1-3.9,1.9-6,2.3"/>
	<path class="st10" d="M339.3,442.4c-1.8,1.3-3.8,2.2-5.8,2.8"/>
	<path class="st11" d="M161.4,398.1c0,0,12.4-74.1,11.9-78.5s20.1-188.4,20.1-188.4l0,0c0,0-6.4,1.1-3.1,9.7s68.6,151.5,68.6,151.5
		s41.4,112,42.8,115.9s20.6-12.3,20.6-12.3L307,288l-8-32.3L245.4,87.5l-3.1-55.1c0,0-99.7-10.8-99.7,0s-10.5,34-13.1,49.1
		c-6.1,35.3-6.1,109.7-6.1,109.7l5.9,204.5L161.4,398.1"/>
</g>
</svg>
