<svg xmlns="http://www.w3.org/2000/svg" viewBox="0 0 788 1005"><defs><style>.cls-1{fill:#d68f72;}.cls-2{fill:#d4c06d;}.cls-3{fill:#83b5c6;}.cls-4{fill:#6999aa;}.cls-5,.cls-8{fill:none;stroke-linecap:round;stroke-miterlimit:10;stroke-width:2px;}.cls-5{stroke:#69a;}.cls-6{fill:#87b6c7;}.cls-7{fill:#69a;}.cls-8{stroke:#6399aa;}.cls-9{fill:#82cc4e;}</style></defs><g id="Calque_10" data-name="Calque 10"><path class="cls-1" d="M467.22,833.86c2.37,1.51,15.6,39.3,18.2,36.74s10.48-1.05,11.65,0,3.56-10.65,3.56-10.65l-7.47-21-26.22-8.54"/><path class="cls-2" d="M355.27,728.74c1.94,10.83,9.71,18.6,18.2,18.2h0c8.11-.38,14.55-8.12,15.38-18.49,0,0,3.9-73.81,2.35-100.1-.37-6.22-3.24-24.73-3.24-24.73l-6.82-43.09s-4.11-20.26-21-21.66c-19.47-1.6-18.91,11.8-18.91,11.8s-1.56,69.3.11,91.09C342.88,661.85,355.27,728.74,355.27,728.74Z"/><path class="cls-1" d="M371,710.3c-9.18.81-14.21,6.25-15.05,14.48,0,0,1,36.4,1.75,51.71,1.26,24.54,7.44,74.37,13.05,98.28,1.23,5.23,4.18,21.09,4.18,21.09a8.91,8.91,0,0,0,9.55,7.43h0a8.93,8.93,0,0,0,7.63-9.19s-.43-18.55-.23-24.72c.73-22.37,5-67,4.05-89.43-.58-13.48-5.94-54.52-5.94-54.52C388,712,378.85,709.89,371,710.3Z"/><path class="cls-3" d="M384.33,887.56h0a10.91,10.91,0,0,0-9.62,6.63h0c-4,8.94-20.83,20.92-20.83,20.92a11.3,11.3,0,0,0-3.79,10.59h0l41.09-.24,2.31-.74a6.18,6.18,0,0,0,4.1-6.5l-2.36-21.7A11.07,11.07,0,0,0,384.33,887.56Z"/><path class="cls-4" d="M351.27,925.49h0A6.47,6.47,0,0,1,356.4,918l24.44-3.92a6.15,6.15,0,0,1,6.86,4.9l1.41,6.16Z"/><path class="cls-5" d="M375,896s3-2.73,5.82-3a13.9,13.9,0,0,1,7,1.6"/><path class="cls-5" d="M372.39,901.12s3.06-2.65,5.89-2.83a14,14,0,0,1,6.93,1.8"/><path class="cls-6" d="M495.32,866c-4.57,1.24-6.87-2.06-9.62-2.7-1.66-.38-5.92,1.19-5.33,2.91,6.77,19.74-23.81,46.05-23.81,46.05-.75,4.83,2.25,4,5.82,7.34h0s23.68-7.36,28.71-12.93c2.57-2.84,22.3-18.33,22.3-18.33s10.69-8.26,6.3-12.29l-18.17-20.14C496.56,851.64,503.18,863.83,495.32,866Z"/><path class="cls-7" d="M459.22,925.49c-5.39-5.69-4.22-12.81-3.18-13.4,1.5-.84,4.9,1.26,6.51,1.9,5.56,2.21,16.09-3.89,16.09-3.89,1,.85,35.73-20.52,41.05-34.09l.52,4.56-37.89,36.9C464.9,927.53,459.22,925.49,459.22,925.49Z"/><path class="cls-8" d="M493.16,893.13a17.81,17.81,0,0,1-6.09,2"/><path class="cls-8" d="M497.07,897.33a18.42,18.42,0,0,1-6,2.53"/><path class="cls-9" d="M339.46,491.51,328.4,568,349,723.54l17.1,162.33,42.05-1.72L396,729.81l-3-152.69,3,152.69,68.53,143.26,37-26.14c-4.26-15.17-59.79-136.68-59.79-136.68l21.44-141.86-17.65-84-106.06,7.09"/></g></svg>