<svg xmlns="http://www.w3.org/2000/svg" xmlns:xlink="http://www.w3.org/1999/xlink" viewBox="0 0 788 1005"><defs><style>.cls-1,.cls-12,.cls-9{fill:none;}.cls-2{clip-path:url(#clip-path);}.cls-3{fill:#745c62;}.cls-4{clip-path:url(#clip-path-2);}.cls-5{fill:#d4c06d;}.cls-6{fill:#d68f72;}.cls-7{fill:#83b5c6;}.cls-8{fill:#6999aa;}.cls-9{stroke:#69a;}.cls-12,.cls-9{stroke-linecap:round;stroke-miterlimit:10;stroke-width:2px;}.cls-10{fill:#87b6c7;}.cls-11{fill:#69a;}.cls-12{stroke:#6399aa;}.cls-13{fill:#bdccd4;}</style><clipPath id="clip-path"><polygon class="cls-1" points="397.56 482 371.69 604.06 330.53 604.06 330.53 482 397.56 482"/></clipPath><clipPath id="clip-path-2"><polygon class="cls-1" points="397.56 482 371.69 604.06 409.31 620.76 458.83 509.2 397.56 482"/></clipPath></defs><g id="Calque_10" data-name="Calque 10"><g class="cls-2"><path class="cls-3" d="M425.32,495.05c11,7.46,15.42,12.71,16.91,19.83,1.2,5.76-2.14,32.3-3.24,38.35-2.59,14.23-32.67,37.7-45.75,47.32-13.32,9.78-5.4-3.86-20.48-5.16-17-1.45-45.35-48.59-41.95-62.65,1.45-6,10.51-33.74,13.95-38.52,4.24-5.9,10.38-8.92,23.49-11.27a72.67,72.67,0,0,1,28.85,1.18S412.71,486.51,425.32,495.05Z"/></g><g class="cls-4"><path class="cls-3" d="M366.89,482.66C353.78,485,347.65,488,343.4,493.93c-3.44,4.78-11.16,30.39-12.61,36.37-3.4,14.06,14.57,47.7,22.63,61.81,8.2,14.34,6.5-1.34,20.81,3.6,16.13,5.56,61.16-26,63.76-40.25,1.1-6.06,4.08-35.11,2.88-40.87-1.49-7.12-5.88-12.37-16.9-19.83a72.6,72.6,0,0,0-26.85-10.63S381.89,480,366.89,482.66Z"/></g><path class="cls-5" d="M331.46,732.05c1.22,10.93,8.45,19.2,16.94,19.37h0c8.12.16,15.06-7.14,16.58-17.43,0,0,8.81-73.38,9-99.72.05-6.23-1.58-24.89-1.58-24.89l-3.93-43.45s-2.75-20.49-19.52-23c-19.32-2.9-19.65,10.51-19.65,10.51s-6.18,69.05-6,90.9C323.55,664.47,331.46,732.05,331.46,732.05Z"/><path class="cls-5" d="M492.1,719.38c2,10.81-2.5,20.83-10.57,23.46h0C473.81,745.36,465,740.4,460.6,731c0,0-29.79-67.65-37.66-92.78-1.86-6-5.73-24.28-5.73-24.28l-8.89-42.71s-3.33-20.4,12-27.69c17.64-8.4,21.86,4.33,21.86,4.33s26,64.26,32.16,85.23C480,652.43,492.1,719.38,492.1,719.38Z"/><path class="cls-6" d="M348.34,714.69c-9.22.2-14.6,5.28-16,13.44,0,0-1.46,36.38-1.7,51.71-.38,24.57,2.47,74.71,6.48,98.93.87,5.31,2.75,21.33,2.75,21.33a8.93,8.93,0,0,0,9.05,8h0a8.94,8.94,0,0,0,8.22-8.66s.8-18.54,1.41-24.68c2.22-22.28,9.49-66.56,10-89,.31-13.49-2.3-54.8-2.3-54.8-1-13.56-10-16.24-17.93-16.36Z"/><path class="cls-6" d="M474.47,704.45c8.9-2.38,15.37,1.11,18.78,8.73,0,0,11.4,33.23,15.54,48.21,6.64,24,17.34,120.79,17.34,120.79.63,4.85,1.55,11.29-2.83,12.33h0c-4.29,1-9.87-.34-11.34-4.89,0,0-32.53-87.82-38.75-109.67-3.74-13.15-11.78-54.42-11.78-54.42-2.48-13.6,5.49-18.75,13-21.08Z"/><path class="cls-7" d="M348.62,891.7h0a10.92,10.92,0,0,0-9.62,6.63h0c-4,8.94-20.83,20.92-20.83,20.92a11.3,11.3,0,0,0-3.78,10.59h0l41.08-.24,2.31-.74a6.19,6.19,0,0,0,4.1-6.5l-2.36-21.7A11.07,11.07,0,0,0,348.62,891.7Z"/><path class="cls-8" d="M315.57,929.63h0a6.46,6.46,0,0,1,5.12-7.51l24.44-3.92a6.16,6.16,0,0,1,6.87,4.9l1.4,6.16Z"/><path class="cls-9" d="M340,900.29s3.17-2.53,6-2.61a14,14,0,0,1,6.84,2.07"/><path class="cls-9" d="M337.05,905.18s3.23-2.44,6.07-2.43a13.92,13.92,0,0,1,6.79,2.25"/><path class="cls-10" d="M519.07,891.55c4.21-2.19,3.65-6.18,5.23-8.51,1-1.41,5.15-3.15,5.89-1.49,8.45,19.08,43.3,27.6,43.3,27.6,3.83,3.05,4.92,7.56,4.54,12.39h0s-29.55,11.5-45.66,1.28c-3.23-2.05-11.37-2.6-11.37-2.6s-14.52.81-14-5.12l.69-26.74C508.44,881.88,511.86,895.32,519.07,891.55Z"/><path class="cls-11" d="M578.37,921.47c.09-7.84-3.67-12.48-4.83-12.2-1.67.4-4.27,2.38-5.93,2.88-2.65.79-10.81.53-10.81.53-2.1-.12-3.66,2.67-3.59,6.43l.33,7.48s5,.51,16.59-2.58C572.05,923.5,578.37,921.47,578.37,921.47Z"/><path class="cls-12" d="M535.23,891.47a18,18,0,0,1-6,2.31"/><path class="cls-12" d="M539.33,895.49a18.46,18.46,0,0,1-5.85,2.8"/><path class="cls-13" d="M361.44,851.25s12.36-74.11,11.88-78.47,20.09-188.35,20.09-188.35h0s-6.43,1.13-3.15,9.69S458.83,745.6,458.83,745.6s41.4,112,42.81,115.91,20.63-12.28,20.63-12.28L507,741.13l-8-32.26-53.57-168.2-3.13-55.1s-99.69-10.77-99.69,0-10.47,34-13.09,49.08c-6.12,35.29-6.11,109.68-6.11,109.68l5.9,204.52,32.19,2.4"/></g></svg>