<svg xmlns="http://www.w3.org/2000/svg" viewBox="0 0 788 513.97"><defs><style>.cls-1{fill:#d68f72;}.cls-2{fill:#d4c06d;}.cls-3{fill:#83b5c6;}.cls-4{fill:#6999aa;}.cls-5,.cls-8{fill:none;stroke-linecap:round;stroke-miterlimit:10;stroke-width:2px;}.cls-5{stroke:#69a;}.cls-6{fill:#87b6c7;}.cls-7{fill:#69a;}.cls-8{stroke:#6399aa;}.cls-9{fill:#82cc4e;}</style></defs><g id="Calque_10" data-name="Calque 10"><path class="cls-1" d="M467.22,380.73c2.37,1.51,15.6,39.29,18.2,36.74s10.48-1.05,11.65-.05,3.56-10.64,3.56-10.64l-7.47-21-26.22-8.54"/><path class="cls-2" d="M355.27,275.61c1.94,10.82,9.71,18.59,18.2,18.2h0c8.11-.38,14.55-8.13,15.38-18.5,0,0,3.9-73.81,2.35-100.09-.37-6.22-3.24-24.74-3.24-24.74l-6.82-43.09s-4.11-20.26-21-21.65c-19.47-1.61-18.91,11.79-18.91,11.79s-1.56,69.3.11,91.1C342.88,208.71,355.27,275.61,355.27,275.61Z"/><path class="cls-1" d="M371,257.16c-9.18.82-14.21,6.25-15.05,14.48,0,0,1,36.4,1.75,51.71,1.26,24.54,7.44,74.38,13.05,98.28,1.23,5.23,4.18,21.1,4.18,21.1a8.91,8.91,0,0,0,9.55,7.42h0a8.92,8.92,0,0,0,7.63-9.19s-.43-18.54-.23-24.72c.73-22.37,5-67,4.05-89.43-.58-13.47-5.94-54.51-5.94-54.51-1.92-13.47-11.09-15.54-19-15.14Z"/><path class="cls-3" d="M384.33,434.42h0a10.9,10.9,0,0,0-9.62,6.64h0c-4,8.94-20.83,20.91-20.83,20.91a11.31,11.31,0,0,0-3.79,10.6h0l41.09-.24,2.31-.75a6.18,6.18,0,0,0,4.1-6.5l-2.36-21.7A11.07,11.07,0,0,0,384.33,434.42Z"/><path class="cls-4" d="M351.27,472.35h0a6.48,6.48,0,0,1,5.13-7.51l24.44-3.92a6.15,6.15,0,0,1,6.86,4.91l1.41,6.16Z"/><path class="cls-5" d="M375,442.91s3-2.74,5.82-3a14,14,0,0,1,7,1.6"/><path class="cls-5" d="M372.39,448s3.06-2.65,5.89-2.83a14.08,14.08,0,0,1,6.93,1.8"/><path class="cls-6" d="M495.32,412.82c-4.57,1.24-6.87-2.06-9.62-2.69-1.66-.39-5.92,1.19-5.33,2.9,6.77,19.75-23.81,46.05-23.81,46.05-.75,4.83,2.25,4.06,5.82,7.34h0s23.68-7.36,28.71-12.93c2.57-2.84,22.3-18.33,22.3-18.33s10.69-8.26,6.3-12.28l-18.17-20.15C496.56,398.5,503.18,410.69,495.32,412.82Z"/><path class="cls-7" d="M459.22,472.35c-5.39-5.69-4.22-12.8-3.18-13.39,1.5-.85,4.9,1.25,6.51,1.89,5.56,2.21,16.09-3.89,16.09-3.89,1,.85,35.73-20.51,41.05-34.08l.52,4.55-37.89,36.91C464.9,474.39,459.22,472.35,459.22,472.35Z"/><path class="cls-8" d="M493.16,440a17.88,17.88,0,0,1-6.09,2"/><path class="cls-8" d="M497.07,444.2a18.49,18.49,0,0,1-6,2.52"/><path class="cls-9" d="M339.46,38.37,328.4,114.82,349,270.4l17.1,162.33L408.11,431,396,276.68,393,124l3,152.69,68.53,143.26,37-26.14c-4.26-15.18-59.79-136.68-59.79-136.68l21.44-141.87-17.65-84L339.46,38.37"/></g></svg>