<?xml version="1.0" encoding="utf-8"?>
<!-- Generator: Adobe Illustrator 26.0.2, SVG Export Plug-In . SVG Version: 6.00 Build 0)  -->
<svg version="1.1" id="Calque_1" xmlns="http://www.w3.org/2000/svg" xmlns:xlink="http://www.w3.org/1999/xlink" x="0px" y="0px"
	 viewBox="0 0 788 1005" style="enable-background:new 0 0 788 1005;" xml:space="preserve">
<style type="text/css">
	.st0{fill:#295446;}
	.st1{fill:#944E31;}
	.st2{fill:#9C3A26;}
	.st3{fill:#315B4C;}
</style>
<polygon points="229.2,536.5 229.3,536.5 229.2,536.4 "/>
<polygon points="229.3,536.5 229.4,536.5 229.4,536.4 "/>
<polygon points="229.2,536.5 229.3,536.5 229.2,536.4 "/>
<polygon points="229.3,536.5 229.4,536.5 229.4,536.4 "/>
<g id="Calque_1_00000178182368817975012350000009247453862008056196_">
	<path class="st0" d="M439.3,440.9c18.1,5.4,25.9,9.9,30.1,17.1c3.4,5.8,6.8,19,7,25.7c0.6,15.6-2.9,62.1-19.9,76.8
		c56.4-48.6-162-36.4-119.6,0c-17.1-14.7-20.6-61.2-20-76.8c0.2-6.6-0.2-8.4,0.3-14.9c1.4-16.3,18.8-22.5,36.8-27.9
		c20.6-6.2,41.7-5.2,41.7-5.2S418.6,434.7,439.3,440.9z"/>
</g>
<path class="st1" d="M336.4,628.6c-13.8-0.2-22.2,6.8-24.7,18.4c0,0-7.1,56-8.2,77.9c-1.9,35.1,2.5,102.8,7.2,137.6
	c1,7.6,2.9,30.6,2.9,30.6c0.7,6.9,6.4,12,13.2,11.9l0,0c6.7-0.1,12.1-5.3,12.8-11.9c0,0,2.2-26.4,3.4-35.2
	c4.6-31.7,17.9-94.6,19.8-126.6c1.2-19.2-0.4-78.4-0.4-78.4C361.7,633.5,348.2,629.2,336.4,628.6L336.4,628.6z"/>
<path class="st2" d="M326,884.9L326,884.9c-6.1,0.1-11.4,3.7-14,9.3l0,0c-5.9,12.4-30.4,29.2-30.4,29.2c-4.4,3.5-6.6,9.2-5.5,14.8
	l0,0l59.9-0.3l3.3-1c3.8-1.2,6.4-5.1,6-9.1l-3.4-30.3C340.2,890,333.5,884.7,326,884.9z"/>
<path class="st0" d="M277.8,937.9L277.8,937.9c-0.8-5,2.5-9.6,7.4-10.4h0.1l35.5-5.5c4.6-0.7,8.9,2.2,10,6.9l2.1,8.6L277.8,937.9z"
	/>
<path class="st1" d="M451.4,628.6c12.3-0.2,19.7,6.8,22.1,18.4c0,0,9,51.5,11.1,73.3c4.5,46.5-5.4,108.3-10.1,142.2
	c-1.1,7.6-2.7,30.6-2.7,30.6c-0.6,6.9-5.7,12-11.7,11.9l0,0c-6-0.1-10.8-5.3-11.4-11.9c0,0-2-26.4-3-35.2
	c-4-31.7-16-94.6-17.8-126.6c-1.1-19.2,0.4-78.4,0.4-78.4C428.8,633.5,440.9,629.2,451.4,628.6L451.4,628.6z"/>
<path class="st1" d="M474.3,881.1c-1.2,34.4,39.9,38.8,39.9,38.8c4.4,3.5-66.6,22.1-66.2,18c0,0,1.5-52.6-1-65.9
	C445.1,862.6,475,860.8,474.3,881.1z"/>
<path class="st2" d="M463,900.1c6.4-2.2,5.9-6.9,8.4-9.5c1.5-1.5,7.9-3.2,8.7-1.2c10.6,23,60.8,35.8,60.8,35.8
	c5.3,3.8,6.6,9.2,5.5,14.8l0,0c0,0-26.4,13.7-65.6,3.8c-5.1-1.3-10.7-2.1-10.7-2.1s-25.2,3.3-24-3.5l0.4-42.8
	C448.4,887.9,452.1,903.9,463,900.1z"/>
<path class="st0" d="M545.4,940.4c0.8-9.1-4.2-14.9-6-14.6c-2.5,0.3-6.5,2.4-8.9,2.8c-3.9,0.7-13.3,2.8-13.3,2.8
	c-3-0.3-5.6,2.8-5.9,7.2l-0.2,8.7c0,0,3,0.1,20.3-2.5C534.5,944.4,545.4,940.4,545.4,940.4z"/>
<path class="st0" d="M502.4,726.8c-1.1-37.2-26.2-243.1-26.2-243.2l-0.5-6.7c-0.8-9.9-11-17.6-23-17.6h-111c-11.8,0-21.9,7.4-23,17
	l-1.3,10.9h-1c0,0-30.2,215.9-29.1,241.4c1.2,25.5,10.7,170.7,10.7,170.7l48.1-1.4c0,0,27.5-159.2,27.5-181s22.3-165.1,22.3-165.1
	S420.1,686,419,707.8c-1.1,21.8,20.2,196.7,20.2,196.7l57.7-5C497,899.5,503.4,764,502.4,726.8z"/>
<path class="st0" d="M344.9,908l-46.3-4.9c-1.8-0.2-3-1.8-2.8-3.6l0.3-3.3c0.2-1.8,1.8-3.1,3.5-2.9l46.3,4.9c1.8,0.2,3,1.8,2.8,3.6
	l-0.3,3.3C348.4,906.9,346.7,908.2,344.9,908z"/>
<path class="st3" d="M347.9,901.6l-50.5-5.3c-1.8-0.2-3-1.8-2.8-3.6l0.5-4.8c0.2-1.8,1.8-3.1,3.5-2.9l50.5,5.3
	c1.8,0.2,3,1.8,2.8,3.6l-0.5,4.8C351.2,900.5,349.6,901.8,347.9,901.6z"/>
<path class="st0" d="M495.4,903.4l-52,10.6c-2.3,0.5-4.7-0.8-5.1-2.8l-0.8-3.7c-0.4-2,1.1-4.1,3.4-4.6l52-10.6
	c2.3-0.5,4.7,0.8,5.1,2.8l0.8,3.7C499.3,900.9,497.7,902.9,495.4,903.4z"/>
<path class="st3" d="M496.5,897.3l-56.1,11.5c-2.3,0.5-4.7-0.8-5.1-2.8l-1.1-5.3c-0.4-2,1.1-4.1,3.4-4.6l56.1-11.5
	c2.3-0.5,4.7,0.8,5.1,2.8l1.1,5.3C500.5,894.7,498.9,896.7,496.5,897.3z"/>
</svg>
