<?xml version="1.0" encoding="utf-8"?>
<!-- Generator: Adobe Illustrator 26.0.2, SVG Export Plug-In . SVG Version: 6.00 Build 0)  -->
<svg version="1.1" id="Calque_1" xmlns="http://www.w3.org/2000/svg" xmlns:xlink="http://www.w3.org/1999/xlink" x="0px" y="0px"
	 viewBox="0 0 388 507.7" style="enable-background:new 0 0 388 507.7;" xml:space="preserve">
<style type="text/css">
	.st0{fill:#3FA9F5;}
	.st1{fill:#D3D3D3;}
	.st2{fill:#D34B1C;}
	.st3{fill:#944E31;}
	.st4{fill:#2E3532;}
	.st5{fill:none;stroke:#D34B1C;stroke-width:2;stroke-miterlimit:10;}
</style>
<g>
	<path class="st0" d="M134.2,178c-13.9-0.2-22.3,6.7-24.9,18.2c0,0-7.1,55.4-8.3,77c-1.9,34.7,2.5,101.6,7.2,136
		c1,7.5,3,30.3,3,30.3c0.7,6.8,6.4,11.9,13.2,11.8l0,0c6.7-0.1,12.2-5.2,12.9-11.8c0,0,2.2-26.1,3.5-34.8c4.6-31.3,18-93.5,20-125.1
		c1.2-19-0.4-77.5-0.4-77.5C159.5,182.8,146.1,178.5,134.2,178L134.2,178z"/>
	<path class="st1" d="M123.7,431.4L123.7,431.4c-6.1,0.1-11.5,3.7-14.1,9.2l0,0c-5.8,12.3-30.5,28.9-30.5,28.9
		c-4.4,3.5-6.6,9.1-5.5,14.6l0,0l60.1-0.4l3.4-1c3.9-1.2,6.4-5,6-9l-3.4-29.9C138,436.4,131.3,431.2,123.7,431.4z"/>
	<path class="st2" d="M75.2,483.8L75.2,483.8c-0.8-4.9,2.5-9.5,7.4-10.3h0.1l35.9-5.4c4.6-0.7,9,2.2,10.1,6.8l2.1,8.5L75.2,483.8z"
		/>
	<path class="st0" d="M250,178c12.4-0.2,19.9,6.7,22.2,18.2c0,0,14.4,53.4,15.5,75c1.7,34.7-10.2,103.6-14.5,138
		c-0.9,7.5-2.7,30.3-2.7,30.3c-0.6,6.8-5.7,11.9-11.8,11.8l0,0c-6-0.1-10.9-5.2-11.5-11.8c0,0-2-26.1-3.1-34.8
		c-4.1-31.3-16.1-93.5-17.9-125.1c-1.1-19,0.4-77.5,0.4-77.5C227.3,182.8,239.3,178.5,250,178L250,178z"/>
	<path class="st3" d="M273,427.6c-1.2,34,40,38.4,40,38.4c4.4,3.5-67,21.8-66.6,17.8c0,0,1.5-52-1-65.2
		C243.6,409.2,273.7,407.6,273,427.6z"/>
	<path class="st1" d="M260.1,446.4c6.4-2.2,5.9-6.8,8.5-9.4c1.5-1.5,7.9-3.2,8.8-1.2c10.7,22.7,61.2,35.4,61.2,35.4
		c5.4,3.8,6.6,9.1,5.5,14.6l0,0c0,0-43.8,9.4-67.8-1.3c-4.8-2.1-9,3.1-9,3.1s-22.4,3.7-21.1-3.1l-2.5-42.7
		C245.3,434.4,249.2,450.2,260.1,446.4z"/>
	<path class="st2" d="M344.6,486.3c0.8-9-4.3-14.7-6-14.4c-2.5,0.3-6.5,2.4-9,2.8c-4,0.7-16-0.3-16-0.3c-3.1-0.3-5.6,2.8-5.9,7.1
		l-0.2,8.6c0,0,7.3,1,24.6-1.6C335.1,488.1,344.6,486.3,344.6,486.3z"/>
	<path class="st4" d="M115.1,79.3L113,94.7L76.1,438.9c-0.5,4.7,4.4,8.7,10.4,8.6l25.6-0.9l25.4,0.4c5.3,0.1,9.7-3.1,10.2-7.2
		c2.8-25.3,12.2-108.5,14.6-131c1.6-15.4-2.8,15.3,0,0c4.1-22.3,31-179.6,31-179.6l0.7-50.6L115.1,79.3z"/>
	<path class="st4" d="M185.1,8.3l2,52l27.5,194.3l15,166.6l0.6,16.5c0.3,7,7.1,11.9,14.3,10.3l49.5-10.6c5.7-1.2,9.6-6.3,9.1-11.8
		l-17.9-182.4l0,0L258.6,6.4l-67.5,2.4L185.1,8.3z"/>
	<path class="st5" d="M106.7,450c0,0,4.7-3.4,8.9-3.3c5.1,0,10,3.1,10,3.1"/>
	<path class="st5" d="M287.9,445.7c0,0-5.1,2.1-9,2.2"/>
	<path class="st5" d="M293.5,450.6c0,0-5,2.4-8.9,2.7"/>
	<path class="st2" d="M126.7-5.2v8.7c0,1.6,1.2,2.9,2.6,2.9h129c1.5,0,2.6-1.3,2.6-2.9v-8.7c0-1.6-1.2-2.9-2.6-2.9H129.4
		C128-8.1,126.7-6.8,126.7-5.2z"/>
	<path class="st2" d="M129.6-2l-0.7,1c-2.5,4.1-4.4,8.6-5,13.4L93.2,212.5c-0.5,3.6,1.8,6.9,5.4,7.4c18.5,2.8,72.4,10.7,99,10.7
		c26,0,68.7-6.4,84.4-9c3.5-0.6,5.8-3.8,5.3-7.2L264.7,10.7c-0.4-3.3-1.5-6.5-3.6-9.3l-1.6-2.3L129.6-2z"/>
</g>
</svg>
