<svg id="Calque_1" data-name="Calque 1" xmlns="http://www.w3.org/2000/svg" viewBox="0 0 388 507.74"><defs><style>.cls-1{fill:#227287;}.cls-2{fill:#d79072;}.cls-3{fill:#87b6c7;}.cls-4{fill:#6c9aab;}.cls-10,.cls-11,.cls-5,.cls-9{fill:none;stroke-miterlimit:10;}.cls-5{stroke:#000;stroke-width:3px;}.cls-6{fill:#614652;}.cls-7{fill:#699aab;}.cls-8{fill:#473415;}.cls-9{stroke:#699aab;}.cls-10,.cls-9{stroke-linecap:round;stroke-width:2px;}.cls-10{stroke:#669aab;}.cls-11{stroke:#4f3742;}</style></defs><path class="cls-1" d="M77.22,233.88c3.26,12.05,15.62,20,29,18.67h0c12.75-1.28,22.72-10.73,23.83-22.56,0,0,4.74-84,1.81-113.57-.7-7-5.56-27.65-5.56-27.65L114.72,40.7s-6.85-22.5-33.44-22.29c-30.64.24-29.51,15.35-29.51,15.35s-2.38,74.34.66,98.83C55.24,155.16,77.22,233.88,77.22,233.88Z"/><path class="cls-2" d="M83.16,214.55c-13.79,1.84-21,9.37-21.73,20.21,0,0,1.63,51.68,3.82,71.64,3.52,32,18.33,92.59,28.36,123.4,2.2,6.74,7.68,27.25,7.68,27.25,1.72,6.1,8.19,10,14.9,8.91h0c6.58-1,11.27-6.49,10.89-12.66,0,0-1.88-24.24-2-32.33-.38-29.34,3.16-88.16.22-117.37-1.78-17.59-12.55-70.84-12.55-70.84C109,215.29,95,213.36,83.16,214.55Z"/><path class="cls-3" d="M113.09,449.45h0a16.15,16.15,0,0,0-14.16,8.42h0c-5.91,11.41-30.7,26.6-30.7,26.6A13.51,13.51,0,0,0,62.61,498h0l60.28,0,3.39-.94a7.93,7.93,0,0,0,6.05-8.28L129,461C127.32,454.13,120.67,449.32,113.09,449.45Z"/><path class="cls-4" d="M64.35,497.72h0c-.8-4.58,2.61-8.89,7.57-9.56l35.87-4.85a9,9,0,0,1,10,6.31l2,7.89Z"/><path class="cls-5" d="M152.34-7.9c16.15,4.28,23.2,7.9,27,13.58,3.11,4.61,6,15.16,6.27,20.43.54,12.36-7.77,43.42-21.93,53.79-14.4,10.55-84.79,10.55-99.2,0C50.37,69.53,42.05,38.47,42.6,26.11c.23-5.27,3.16-15.82,6.27-20.43C52.71,0,59.75-3.62,75.91-7.9,94.4-12.8,113.2-12,113.2-12S133.85-12.8,152.34-7.9Z"/><path class="cls-6" d="M361.22,54.53c12.64,4.18,20,16.36,17.24,28.51h0c-2.63,11.62-13.77,19.89-26.58,19.75,0,0-90.7-3.85-122.22-9.46C221.88,92,150,70.16,150,70.16s-22.4-2.7-20.67-33c1.55-27,19.39-25.69,19.39-25.69s79.14,4.85,105.17,10C277.83,26.32,361.22,54.53,361.22,54.53Z"/><path class="cls-2" d="M377,74.62c6.12,10,3.66,19.19-5.31,26.11,0,0-40,35.36-58.44,45.83-29.64,16.78-95.87,37.6-128.11,49.45-7,2.59-27.85,11.25-27.85,11.25-6.23,2.52-13.19.63-16-4.34h0c-2.79-4.88-.7-11.17,4.85-14.6,0,0,22-13.21,29.05-18,25.56-17.23,74.41-54.54,101.3-70,16.19-9.32,68.24-34,68.24-34,17.21-8,26.7-.06,32.3,8.34Z"/><path class="cls-2" d="M167.65,199.25c-33.88,2.94-34.13,49.27-34.13,49.27-2.87,4.48-30.27-58.94-26.22-59.06,0,0,51.78-4.86,64.53-8.72C180.82,178,187.55,197.53,167.65,199.25Z"/><path class="cls-3" d="M154.72,195.72c3,5.6,7.51,4.63,10.37,6.67,1.73,1.22,4.17,6.84,2.34,7.93-21.1,12.5-27.21,60.38-27.21,60.38-3.1,5.37-8.18,7.11-13.79,6.84h0s-14.92-39.09-7.4-62.4c1.51-4.68-4.18-7.9-4.18-7.9s-6.58-20.15.31-19.79l42-7.42C164.73,180.74,149.6,186.11,154.72,195.72Z"/><path class="cls-7" d="M132.67,279.93c9-.29,14-5.65,13.54-7.22-.64-2.26-3.2-5.69-4-7.92-1.19-3.56-1.77-14.69-1.77-14.69-.08-2.86-3.45-4.83-7.78-4.53l-8.59.84s-.05,6.84,4.74,22.44C129.65,271.44,132.67,279.93,132.67,279.93Z"/><polygon class="cls-8" points="34.72 48.04 36.22 27.2 191.22 27.2 193.22 45.26 34.72 48.04"/><path class="cls-9" d="M96,466.61s4.75-3.09,8.92-3.07a22.5,22.5,0,0,1,10,2.93"/><path class="cls-10" d="M165.64,223s-2.71-4.44-3.29-8"/><path class="cls-10" d="M161.45,228.8s-3-4.27-3.85-7.82"/><polygon class="cls-11" points="127.85 83.74 122.85 46.69 137.85 46.69 136.85 76.59 127.85 83.74"/><path class="cls-1" d="M36.22,27.2s58-10,148.55-13.19c69.66-2.43,179.65,32.08,188.85,43.12s15.82,36.25,6.78,41c-30.3,15.82-72.94,71.05-99.67,82.37-65.85,27.89-79.44,9.72-87.51,12.62s-12.63,4.66-12.63,4.66l-16.7-20.25s16.8-9.46,16.7-10.86c-.06-.88,13.39-22.41,29.79-44.21C220,109.6,237.5,102.8,247.63,102.8c0,0-59.95,30.08-135.61-9.6C72.34,72.4,36.22,27.2,36.22,27.2Z"/><path class="cls-1" d="M39.45,18.41c-1.27,2.11-9.62,65.93-10.54,111.92S8.18,339,34.18,368.81s59.15,61,59.15,61L97.53,448c8.63-3.42,29.73-5.9,29.73-5.9l-1.8-14.43c4.64-7.24,29.93-67.41,25.09-97.22s-16-16.27-23.29-53.27-4.67-89.3-4.67-89.3c17.46-23.12,16.09-61,24.66-80.58s1.07-91.65-7-91.1S46.31,7,39.45,18.41Z"/><path class="cls-1" d="M39.29,63C38,60.86,34.72,48,34.72,48S34,24.23,39.29,11.46s38.76-26.18,83.3-23.53S176.69-.26,184.22,8.65s.5,19.16-1.51,20.09S42.11,75.85,39.29,65.22"/></svg>