<?xml version="1.0" encoding="utf-8"?>
<!-- Generator: Adobe Illustrator 26.0.2, SVG Export Plug-In . SVG Version: 6.00 Build 0)  -->
<svg version="1.1" id="Calque_1" xmlns="http://www.w3.org/2000/svg" xmlns:xlink="http://www.w3.org/1999/xlink" x="0px" y="0px"
	 viewBox="0 0 388 507.7" style="enable-background:new 0 0 388 507.7;" xml:space="preserve">
<style type="text/css">
	.st0{fill:#1A1818;}
	.st1{fill:none;}
	.st2{fill:#944E31;}
	.st3{fill:#212121;}
	.st4{fill:#333333;}
	.st5{fill:none;stroke:#DBDBDB;stroke-width:2.0159;stroke-linecap:round;stroke-miterlimit:10;}
</style>
<g>
	<polygon class="st0" points="26.3,67.4 26.2,67.4 26.2,67.3 	"/>
	<polygon points="26.4,67.3 26.4,67.4 26.3,67.4 	"/>
	<polygon class="st0" points="26.3,67.4 26.2,67.4 26.2,67.3 	"/>
	<polygon points="26.4,67.3 26.4,67.4 26.3,67.4 	"/>
	<path d="M25.5,29.1h0.1H25.5z"/>
	<polygon points="25.6,29.1 25.7,29.1 25.7,29.1 	"/>
	<path d="M25.5,29.1h0.1H25.5z"/>
	<polygon points="25.6,29.1 25.7,29.1 25.7,29.1 	"/>
	<polygon points="24.7,28.6 24.8,28.6 24.7,28.5 	"/>
	<polygon points="24.8,28.6 24.9,28.6 24.9,28.5 	"/>
	<polygon points="24.7,28.6 24.8,28.6 24.7,28.5 	"/>
	<polygon points="24.8,28.6 24.9,28.6 24.9,28.5 	"/>
	<path class="st1" d="M228.6-53.1c15.7,5,22.6,9.4,26.3,16.1c3,5.4,5.8,17.9,6.1,24.2c0.5,14.6-7.6,51.4-21.4,63.7
		c61-54.2-176.7-71.3-96.7,0c-13.8-12.3-21.9-49-21.4-63.7c0.2-6.2,3.1-18.7,6.1-24.2c3.7-6.8,10.6-11,26.3-16.1
		c18-5.8,36.3-4.8,36.3-4.8S210.7-58.8,228.6-53.1z"/>
	<path class="st2" d="M134.2,179.2c-13.6-0.2-21.8,6.6-24.2,17.6c0,0-10.1,60.4-11.3,82.2c-1.9,35,2.5,102.4,7.3,137.1
		c1,7.6,3,30.5,3,30.5c0.7,6.9,6.5,12,13.3,11.9l0,0c6.8-0.1,12.3-5.2,13-11.9c0,0,2.2-26.3,3.5-35.1c4.6-31.5,18.1-94.2,20.2-126.1
		c1.2-19.2,0.7-83,0.7-83C158.9,183.9,145.7,179.8,134.2,179.2z"/>
	<path class="st3" d="M121.5,438.6L121.5,438.6c-6.1,0.1-11.6,3.7-14.2,9.3l0,0c-5.9,12.5-30.7,29.1-30.7,29.1
		c-4.4,3.5-6.7,9.2-5.5,14.7l0,0l60.8-0.3l3.4-1c3.9-1.2,6.5-5,6-9.1l-3.5-30.2C135.9,443.6,129.1,438.3,121.5,438.6z"/>
	<path class="st4" d="M232.2-18.7c15.7,5,24.5,9.4,28.2,16c3,5.4,3.9,17.9,4.2,24.2c0.5,14.6-20.6,51.4-34.4,63.7
		c61-54.2-176.7-71.3-96.7,0c-13.8-12.3-21.9-49-21.4-63.7c0.2-6.2,3.1-18.7,6.1-24.2c3.7-6.8,10.6-11,26.3-16
		c18-5.8,36.3-4.8,36.3-4.8S214.2-24.5,232.2-18.7z"/>
	<path class="st4" d="M269.4,222c-1.1,13-11.7,23.1-24.8,23.7l0,0c-12.5,0.6-23.6-7.7-26.6-19.8c0,0-25.5-142.6-27.6-173.7
		c-0.5-7.7,11.2-24.6,11.2-24.6s-2.7-21.7,28.5-28.1c27.9-5.6,33.5,11.2,33.5,11.2s11.9,75.8,13,101.6
		C277.6,136.2,269.4,222,269.4,222z"/>
	<path class="st2" d="M247,179.2c12.1-0.2,19.5,6.6,21.7,17.6c0,0,17.1,58.4,18.2,80.2c1.7,35-10.4,104.4-14.6,139.1
		c-0.9,7.6-2.7,30.5-2.7,30.5c-0.6,6.9-5.7,12-11.9,11.9l0,0c-6-0.1-11-5.2-11.6-11.9c0,0-2-26.3-3.1-35.1
		c-4-31.5-16.1-94.2-18-126.1c-1.1-19.2-0.7-83-0.7-83C224.9,183.9,236.6,179.8,247,179.2L247,179.2z"/>
	<path class="st2" d="M272,434.7c-1.2,34.3,40.4,38.7,40.4,38.7c4.4,3.5-67.5,22-67.1,17.9c0,0,1.5-52.4-1-65.7
		C242.4,416.2,272.7,414.5,272,434.7z"/>
	<path class="st3" d="M259.1,453.7c6.5-2.2,5.9-6.9,8.6-9.5c1.5-1.5,8-3.2,8.9-1.2c10.8,22.9,61.7,35.7,61.7,35.7
		c5.4,3.8,6.7,9.2,5.5,14.7l0,0c0,0-44.1,9.5-68.3-1.3c-4.8-2.2-9.1,3.1-9.1,3.1s-22.6,3.7-21.4-3.1l-2.5-43
		C244.1,441.5,248,457.5,259.1,453.7z"/>
	<path class="st4" d="M112.3,19.3l-42.8,432c4.3,6.7,95.9-1.5,96.1-3.6l27.5-379.2L211-11.3L112.3,19.3z"/>
	<path class="st4" d="M174.8,29.1l13.5,49.1l20.5,378.3C209,459.4,312,457,312,445.1L272.5,72.2l-82.7-25.3L174.8,29.1z"/>
	<path class="st5" d="M104.4,458.3c0,0,4.7-3.4,9-3.3c5.1,0,10.1,3.1,10.1,3.1"/>
	<path class="st5" d="M287,453.9c0,0-5.1,2.1-9.1,2.2"/>
	<path class="st5" d="M292.7,459c0,0-5,2.4-9,2.7"/>
</g>
</svg>
