<?xml version="1.0" encoding="utf-8"?>
<!-- Generator: Adobe Illustrator 26.0.2, SVG Export Plug-In . SVG Version: 6.00 Build 0)  -->
<svg version="1.1" id="Calque_1" xmlns="http://www.w3.org/2000/svg" xmlns:xlink="http://www.w3.org/1999/xlink" x="0px" y="0px"
	 viewBox="0 0 788 1005" style="enable-background:new 0 0 788 1005;" xml:space="preserve">
<style type="text/css">
	.st0{fill:#3FA9F5;}
	.st1{fill:#D3D3D3;}
	.st2{fill:#D34B1C;}
	.st3{fill:#944E31;}
	.st4{fill:#2E3532;}
	.st5{fill:none;stroke:#D34B1C;stroke-width:2;stroke-miterlimit:10;}
</style>
<path class="st0" d="M334.2,632.8c-13.9-0.2-22.3,6.7-24.9,18.2c0,0-7.1,55.4-8.3,77c-1.9,34.7,2.5,101.6,7.2,136
	c1,7.5,3,30.3,3,30.3c0.7,6.8,6.4,11.9,13.2,11.8l0,0c6.7-0.1,12.2-5.2,12.9-11.8c0,0,2.2-26.1,3.5-34.8c4.6-31.3,18-93.5,20-125.1
	c1.2-19-0.4-77.5-0.4-77.5C359.5,637.6,346.1,633.3,334.2,632.8L334.2,632.8z"/>
<path class="st1" d="M323.7,886.2L323.7,886.2c-6.1,0.1-11.5,3.7-14.1,9.2l0,0c-5.8,12.3-30.5,28.9-30.5,28.9
	c-4.4,3.5-6.6,9.1-5.5,14.6l0,0l60.1-0.4l3.4-1c3.9-1.2,6.4-5,6-9l-3.4-29.9C338,891.2,331.3,886,323.7,886.2z"/>
<path class="st2" d="M275.2,938.6L275.2,938.6c-0.8-4.9,2.5-9.5,7.4-10.3h0.1l35.9-5.4c4.6-0.7,9,2.2,10.1,6.8l2.1,8.5L275.2,938.6z
	"/>
<path class="st0" d="M450,632.8c12.4-0.2,19.9,6.7,22.2,18.2c0,0,14.4,53.4,15.5,75c1.7,34.7-10.2,103.6-14.5,138
	c-0.9,7.5-2.7,30.3-2.7,30.3c-0.6,6.8-5.7,11.9-11.8,11.8l0,0c-6-0.1-10.9-5.2-11.5-11.8c0,0-2-26.1-3.1-34.8
	C440,828.2,428,766,426.2,734.4c-1.1-19,0.4-77.5,0.4-77.5C427.3,637.6,439.3,633.3,450,632.8L450,632.8z"/>
<path class="st3" d="M473,882.4c-1.2,34,40,38.4,40,38.4c4.4,3.5-67,21.8-66.6,17.8c0,0,1.5-52-1-65.2
	C443.6,864,473.7,862.4,473,882.4z"/>
<path class="st1" d="M460.1,901.2c6.4-2.2,5.9-6.8,8.5-9.4c1.5-1.5,7.9-3.2,8.8-1.2c10.7,22.7,61.2,35.4,61.2,35.4
	c5.4,3.8,6.6,9.1,5.5,14.6l0,0c0,0-43.8,9.4-67.8-1.3c-4.8-2.1-9,3.1-9,3.1s-22.4,3.7-21.1-3.1l-2.5-42.7
	C445.3,889.2,449.2,905,460.1,901.2z"/>
<path class="st2" d="M544.6,941.1c0.8-9-4.3-14.7-6-14.4c-2.5,0.3-6.5,2.4-9,2.8c-4,0.7-16-0.3-16-0.3c-3.1-0.3-5.6,2.8-5.9,7.1
	l-0.2,8.6c0,0,7.3,1,24.6-1.6C535.1,942.9,544.6,941.1,544.6,941.1z"/>
<path class="st4" d="M315.1,534.1l-2.1,15.4l-36.9,344.2c-0.5,4.7,4.4,8.7,10.4,8.6l25.6-0.9l25.4,0.4c5.3,0.1,9.7-3.1,10.2-7.2
	c2.8-25.3,12.2-108.5,14.6-131c1.6-15.4-2.8,15.3,0,0c4.1-22.3,31-179.6,31-179.6l0.7-50.6L315.1,534.1z"/>
<path class="st4" d="M385.1,463.1l2,52l27.5,194.3l15,166.6l0.6,16.5c0.3,7,7.1,11.9,14.3,10.3l49.5-10.6c5.7-1.2,9.6-6.3,9.1-11.8
	l-17.9-182.4l0,0l-26.6-236.9l-67.5,2.4L385.1,463.1z"/>
<path class="st5" d="M306.7,904.8c0,0,4.7-3.4,8.9-3.3c5.1,0,10,3.1,10,3.1"/>
<path class="st5" d="M487.9,900.5c0,0-5.1,2.1-9,2.2"/>
<path class="st5" d="M493.5,905.4c0,0-5,2.4-8.9,2.7"/>
<path class="st2" d="M326.7,449.6v8.7c0,1.6,1.2,2.9,2.6,2.9h129c1.5,0,2.6-1.3,2.6-2.9v-8.7c0-1.6-1.2-2.9-2.6-2.9H329.4
	C328,446.7,326.7,448,326.7,449.6z"/>
<path class="st2" d="M329.6,452.8l-0.7,1c-2.5,4.1-4.4,8.6-5,13.4l-30.7,200.1c-0.5,3.6,1.8,6.9,5.4,7.4c18.5,2.8,72.4,10.7,99,10.7
	c26,0,68.7-6.4,84.4-9c3.5-0.6,5.8-3.8,5.3-7.2l-22.8-203.7c-0.4-3.3-1.5-6.5-3.6-9.3l-1.6-2.3L329.6,452.8z"/>
</svg>
