<svg xmlns="http://www.w3.org/2000/svg" viewBox="0 0 788 1005"><defs><style>.cls-1{fill:#7a919e;}.cls-2{fill:#d48f72;}.cls-3{fill:#a85d3d;}.cls-4{fill:#95acba;}.cls-5,.cls-9{fill:#d79072;}.cls-5{stroke:#000;stroke-width:3px;}.cls-11,.cls-14,.cls-5{stroke-miterlimit:10;}.cls-6{fill:#9599ba;}.cls-7{fill:#605b5b;}.cls-8{fill:#bb653c;}.cls-10{fill:#adcbde;}.cls-11,.cls-12,.cls-14{fill:none;}.cls-11{stroke:#839ba5;}.cls-13{fill:#fff;}.cls-14{stroke:#fff;stroke-width:5px;}</style></defs><g id="Calque_5" data-name="Calque 5"><polygon class="cls-1" points="364.84 193.85 365.7 164.95 426.18 164.31 425.84 193.85 364.84 193.85"/><polygon points="230.22 479.54 230.32 479.5 230.22 479.45 230.22 479.54"/><polygon points="230.32 479.5 230.42 479.54 230.42 479.45 230.32 479.5"/><polygon points="230.22 479.54 230.32 479.5 230.22 479.45 230.22 479.54"/><polygon points="230.32 479.5 230.42 479.54 230.42 479.45 230.32 479.5"/><path class="cls-2" d="M515.81,243.82c-.6,38.39-26.2,33.17-36.86,42.29-12.58,10.77-8.27,50-17.18,64-2.45,3.84-11.36,10.1-15.8,9.08-12.51-2.87-24-30.73-34.77-37.73-6.33-4.12-23.57-3.62-30.19,0-11.25,6.16-22.27,34.86-34.77,37.73-4.44,1-13.35-5.24-15.8-9.08-8.91-14-4.6-53.24-17.19-64-10.65-9.12-36.25-3.9-36.86-42.29-.41-26.59,35-37.34,35-37.34l40.15-19.91a31.57,31.57,0,0,0,17.29-24.31,30.71,30.71,0,0,0,.25-4.19l-.05-7.35h53.63l.08,6.47,0,3.21c0,.33,0,.67,0,1v0c0,.65.09,1.3.16,1.95a29.38,29.38,0,0,0,.93,4.57,28.5,28.5,0,0,0,14.7,17.59l40.53,20.1a27.41,27.41,0,0,0,3.16,1.33C489,209.35,516.18,220.48,515.81,243.82Z"/><polygon class="cls-2" points="423.45 199 395.95 231.5 381.15 213.81 368.76 199 369.48 157.44 369.59 150.72 422.62 150.72 422.62 150.95 422.73 157.19 422.8 161.4 422.8 161.43 422.82 162.71 422.94 169.5 423.45 199"/><path class="cls-3" d="M424,168.25l-1,1.25c-5.16,6.33-28.83,35-41.79,44.31-3.2,2.29-5.74,3.39-7.2,2.69-6.76-3.26-14.84-35.1-14.84-35.1a18.69,18.69,0,0,0,1.81-1.94,38.48,38.48,0,0,0,7.77-16.56c0-.21.09-.42.13-.64.26-1.37.48-3,.66-4.82.2-2,.35-4.3.47-6.72h52.67V151l.05,11,.15.76.14.67.93,4.57Z"/><path class="cls-4" d="M458,250.55c11.9,25,40.93,38.77,40.93,38.77s53,32.77,70.43,44c8.23,5.28,25.21,16.57,39-3.61h0c11.33-16.63-2.81-30.35-10.19-36.17-15-11.83-47.9-32.65-60.5-46.74-9.38-10.49-23.29-34.09-46.67-39.95,0,0-15.07-3.15-28.21,12l-.52.6A28.69,28.69,0,0,0,458,250.55Z"/><path class="cls-5" d="M325.81,224c17.78,21.22,18.25,53.35,18.25,53.35s7.78,61.78,10.69,82.33c1.38,9.69,4.59,29.83-19.48,33.93h0c-19.84,3.38-26.43-15.18-28.66-24.31-4.52-18.57-9.77-57.14-17.35-74.45-5.64-12.9-19.37-30.58-15-54.28,0,0,1.47-19.8,20.71-25.45l.76-.22a28.69,28.69,0,0,1,30.07,9.1Z"/><path class="cls-4" d="M312.91,409.48l1.61-130.4a5,5,0,0,0-.22-1.48l-19.13-61.15a4.74,4.74,0,0,1,2.35-5.63l58-30.07a4.74,4.74,0,0,1,5.86,1.21l36.51,44.81a4.74,4.74,0,0,0,7.49-.18l30.4-41.14a4.74,4.74,0,0,1,5.81-1.48l58.08,26.92a4.74,4.74,0,0,1,2.72,4.79l-10,97.07a4.66,4.66,0,0,1-.27,1.16L466.64,383a4.72,4.72,0,0,0,.67,4.5l5.05,6.66a27.87,27.87,0,0,1,3.93,26.46l-.67,1.84a4.75,4.75,0,0,1-4.38,3.1l-149.72,2.38a4.73,4.73,0,0,1-4.42-2.86l-2-4.5A27.23,27.23,0,0,1,312.91,409.48Z"/><path class="cls-6" d="M458.07,346.9l1.2,10.16-8.56,5.74,1.12,3.08c-26.65,13.08-93,45.26-93.59,45.49-1.59.58-10.8,4.77-16.08,4.77-8.8,0-29.36-12.16-29.36-12.16s-2.15-13.93.16-13.38,123-45.93,125.81-45.23S458.07,346.9,458.07,346.9Z"/><rect class="cls-7" x="451.02" y="233.57" width="225.48" height="156.33" rx="10.58" transform="translate(-32.59 68.08) rotate(-6.72)"/><path class="cls-2" d="M670,361.2h2.47a6.79,6.79,0,0,1,6.79,6.79v15.44a6.79,6.79,0,0,1-6.79,6.79h0a6.79,6.79,0,0,1-6.79-6.79V365.53A4.33,4.33,0,0,1,670,361.2Z" transform="translate(-95.91 321.17) rotate(-25.13)"/><path class="cls-8" d="M607.73,385.14l40.46-6.66-2.09,20.94a3.66,3.66,0,0,1-4.53,3.19L632,400.24A41.56,41.56,0,0,1,615,391.38Z"/><path class="cls-2" d="M638.53,362.12h10.29a16.82,16.82,0,0,1,16.82,16.82v5.26a15.9,15.9,0,0,1-15.9,15.9h-8.88A10.11,10.11,0,0,1,630.74,390V369.9a7.78,7.78,0,0,1,7.78-7.78Z" transform="translate(-100.5 311.38) rotate(-25.13)"/><path class="cls-2" d="M451.83,322.79l13,20.09,11.45-2.25,24.17-3.74a16.64,16.64,0,0,0,13.16-10.95l6.73-19.24,29.79-4.41a8.66,8.66,0,0,0,7.28-8.46l0-1.22-34.92,2.54,1.88-5-17.72.3-10.39.05a31,31,0,0,0-16,4.57l-9.44,5.73c-2,2.17-2.65,3.18-6.43,8.4L459,316.72"/><path class="cls-9" d="M310.73,373.21c-3.84-19.52,17.3-30.13,25.21-33.52s25.41-6.37,34-7.85c22-3.78,59.51-7.3,81-11.3,14.13-2.63,21.51-4.42,25.59,4.16,3.71,7.81-4.14,13.7-8.88,16.53-19.51,11.64-61.65,36.06-84,44.85-9.18,3.61-28.42,9.19-38.27,9.61C317.81,396.87,311.84,378.88,310.73,373.21Z"/><path class="cls-4" d="M320.12,201.58s-43.2,16.32-50.82,26.31c-7.31,9.58-3.1,48.94-3.1,48.94s16.62,94.07,37.83,116c5,5.15,22.43,9.93,31.35,12.1a15.61,15.61,0,0,0,10.17-.95l100.86-45.63-8.46-40-91.14,11.88-18-67.58"/><polygon class="cls-10" points="355.72 183.32 365.7 164.95 393.37 211.45 377.44 235.85 355.72 183.32"/><polygon class="cls-10" points="440.1 185.17 426.18 164.31 405.49 210.69 424.19 234.01 440.1 185.17"/><polygon class="cls-6" points="393.37 211.45 401.54 231.5 390.52 222.41 377.44 235.85 393.37 211.45"/><polygon class="cls-6" points="401.54 231.5 405.49 210.69 424.19 234.01 410.81 223.47 401.54 231.5"/><path class="cls-11" d="M328.59,260.23c1.34,0,18.22,70,18.22,70L438,318.37l8.46,40"/><path class="cls-6" d="M314.53,447.7l.61-27.14,160.48,1.88-.95,23.05a5.71,5.71,0,0,1-5.7,5.94H317.7A3.21,3.21,0,0,1,314.53,447.7Z"/><line class="cls-12" x1="631.72" y1="248.8" x2="631.94" y2="248.47"/><path class="cls-13" d="M622.54,263.33s-17.39,12.89-17.65,13.22l20.22,7.88Z"/></g><g id="Calque_7" data-name="Calque 7"><polyline class="cls-14" points="494.93 385.48 521.79 353.11 536.77 362.14 548.66 334.18 568.47 342.88 577.94 316.53 603.26 309.28 618.01 273.88"/></g></svg>