<?xml version="1.0" encoding="utf-8"?>
<!-- Generator: Adobe Illustrator 26.0.2, SVG Export Plug-In . SVG Version: 6.00 Build 0)  -->
<svg version="1.1" id="Calque_1" xmlns="http://www.w3.org/2000/svg" xmlns:xlink="http://www.w3.org/1999/xlink" x="0px" y="0px"
	 viewBox="0 0 158 103.1" style="enable-background:new 0 0 158 103.1;" xml:space="preserve">
<style type="text/css">
	.st0{fill:#6B313A;}
	.st1{fill:#1F1A19;}
	.st2{fill:#635132;}
</style>
<path class="st0" d="M93.9,74.4l-7.2,5.4c0,0-0.1,0-0.1,0l-6.9,1.1c0,0,0,0-0.1,0l-6.8-1.1c0,0-0.1,0-0.1,0l-7-5.4
	c-0.2-0.1-0.1-0.4,0.2-0.4l3.5,0.3l5.8,0.5c0,0,0,0,0,0l4.4,1c0,0,0.1,0,0.1,0l4.5-1c0,0,0,0,0,0l5.9-0.5l3.6-0.3
	C94,74,94.1,74.3,93.9,74.4z"/>
<path class="st1" d="M109.3,42.3l-3.7-1.2c0,0-9.1,0.1-9.5,0.5c0,0-2.1,0.7-3.4,1.3c-1.3,0.7-2.8,0.3-2.8,0.3l0.2-1.2
	c0,0,3.6-3,5-3.3c2.3-0.5,10.1,0.6,10.2,0.6c0.3,0.1,4.8,1.9,5.3,2.6C110.8,42,109.3,42.3,109.3,42.3z"/>
<path class="st2" d="M84.4,27.4c0.1,0.4,0.1,0.8,0.1,1.1c0.1,0.5,0.4,0.9,0.9,1l2,0.5c0.2,0,0.3,0,0.5,0l13.3-2.7c0.2,0,0.3,0,0.5,0
	c1.2,0.3,7.1,1.6,7.1,1.5s1.1,0.4,2.1,0.9c0.8,0.4,1.7-0.3,1.6-1.2l0,0c0-0.4-0.3-0.7-0.6-0.9c-2.1-1-9.4-4.5-9.5-4.4
	c-0.2,0.1-7.5,0.6-8.5,0.7c-0.1,0-0.1,0-0.2,0l-8.3,2.2C84.6,26.3,84.3,26.8,84.4,27.4z"/>
<path class="st2" d="M73.6,27.4c-0.1,0.4-0.1,0.8-0.1,1.1c-0.1,0.5-0.4,0.9-0.9,1l-2,0.5c-0.2,0-0.3,0-0.5,0l-13.3-2.7
	c-0.2,0-0.3,0-0.5,0c-1.2,0.3-7.1,1.6-7.1,1.5s-1.1,0.4-2.1,0.9c-0.8,0.4-1.7-0.3-1.6-1.2l0,0c0-0.4,0.3-0.7,0.6-0.9
	c2.1-1,9.4-4.5,9.5-4.4c0.2,0.1,7.5,0.6,8.5,0.7c0.1,0,0.1,0,0.2,0l8.3,2.2C73.4,26.3,73.7,26.8,73.6,27.4z"/>
<path class="st1" d="M50.2,42.3l3.7-1.2c0,0,9.1,0.1,9.5,0.5c0,0,2.1,0.7,3.4,1.3c1.3,0.7,2.8,0.3,2.8,0.3L69.4,42c0,0-3.6-3-5-3.3
	c-2.3-0.5-10.1,0.6-10.2,0.6c-0.3,0.1-4.8,1.9-5.3,2.6C48.7,42,50.2,42.3,50.2,42.3z"/>
</svg>
