<?xml version="1.0" encoding="utf-8"?>
<!-- Generator: Adobe Illustrator 26.0.2, SVG Export Plug-In . SVG Version: 6.00 Build 0)  -->
<svg version="1.1" id="Calque_1" xmlns="http://www.w3.org/2000/svg" xmlns:xlink="http://www.w3.org/1999/xlink" x="0px" y="0px"
	 viewBox="0 0 158 103.1" style="enable-background:new 0 0 158 103.1;" xml:space="preserve">
<style type="text/css">
	.st0{fill:#6B313A;}
	.st1{fill:#DFB0A4;}
	.st2{fill:#1F1A19;}
	.st3{fill:#635132;}
	.st4{fill:#310800;}
	.st5{fill:#AD717F;}
	.st6{fill:#EBB4C9;}
</style>
<g id="Calque_7">
	<polygon class="st0" points="92.4,70.9 85.2,76.6 78.7,78.4 72.3,76.6 65.1,70.9 69.1,69 74.6,69.9 78.7,70 82.9,69.9 88.3,69 	"/>
	<path class="st1" d="M105.8,33.3c0,2.6-2.2,4.6-6.7,4.6S91,36.3,91,33.8c0-1.1,3.9-3.3,3.9-3.3c2-0.4,3.4,0.6,5.9,0.4
		S105.8,33.3,105.8,33.3z"/>
	<path class="st2" d="M103.3,33.3c0,2.5-1.9,4.5-4.4,4.6h-0.2c-0.2,0-0.4,0-0.6,0c-2.5-0.3-4.3-2.6-4-5.1l0,0c0-0.3,0.1-0.6,0.2-0.9
		c0.1-0.4,0.3-0.7,0.5-1c0.2-0.2,0.3-0.5,0.6-0.7c1.5,0,4.9-0.1,6.5-0.1c0.4,0.4,0.7,0.8,0.9,1.2l0.1,0.2
		C103.2,32.1,103.3,32.7,103.3,33.3z"/>
	<path class="st2" d="M107.7,35.2h-1.6l-1.6,1l0,0l1.2-2.1h0.1V34l-2.8-2.5h-0.1c-1-0.1-8-0.7-8.4,0l-0.2,0.3
		c-0.5,0.6-1.8,1.9-2.9,3s-1.8,1.8-1.8,1.8l0.2-1.9l1.2-1.3c0,0,2.3-3,3.5-3.5c1.9-0.8,8.2,0.2,8.3,0.3c0.2,0.1,4.1,3.2,4.5,4.4
		C107.4,34.8,107.6,35,107.7,35.2z"/>
	<path class="st3" d="M84.4,23.7c0.1,0.4,0.1,0.8,0.1,1.1c0.1,0.5,0.4,0.9,0.9,1l2,0.5c0.2,0,0.3,0,0.5,0l13.3-2.7
		c0.2,0,0.3,0,0.5,0c1.2,0.3,7.1,1.6,7.1,1.5s1.1,0.4,2.1,0.9c0.8,0.4,1.7-0.3,1.6-1.2l0,0c0-0.4-0.3-0.7-0.6-0.9
		c-2.1-1-9.4-4.5-9.5-4.4c-0.2,0.1-7.5,0.6-8.5,0.7c-0.1,0-0.1,0-0.2,0l-8.3,2.2C84.6,22.6,84.3,23.1,84.4,23.7z"/>
	<path class="st3" d="M73.6,23.7c-0.1,0.4-0.1,0.8-0.1,1.1c-0.1,0.5-0.4,0.9-0.9,1l-2,0.5c-0.2,0-0.3,0-0.5,0l-13.3-2.7
		c-0.2,0-0.3,0-0.5,0c-1.2,0.3-7.1,1.6-7.1,1.5s-1.1,0.4-2.1,0.9c-0.8,0.4-1.7-0.3-1.6-1.2l0,0c0-0.4,0.3-0.7,0.6-0.9
		c2.1-1,9.4-4.5,9.5-4.4c0.2,0.1,7.5,0.6,8.5,0.7c0.1,0,0.1,0,0.2,0l8.3,2.2C73.4,22.6,73.7,23.1,73.6,23.7z"/>
	<path class="st1" d="M52.1,33.3c0,2.6,2.2,4.6,6.7,4.6s8.1-1.6,8.1-4.1c0-1.1-3.9-3.3-3.9-3.3c-2-0.4-3.4,0.6-5.9,0.4
		S52.1,33.3,52.1,33.3z"/>
	<path class="st2" d="M54.7,33.3c0,2.5,1.9,4.5,4.4,4.6h0.2c0.2,0,0.4,0,0.6,0c2.5-0.3,4.3-2.6,4-5.1l0,0c0-0.3-0.1-0.6-0.2-0.9
		c-0.1-0.4-0.3-0.7-0.5-1c-0.2-0.2-0.3-0.5-0.6-0.7c-1.5,0-4.9-0.1-6.5-0.1c-0.4,0.4-0.7,0.8-0.9,1.2l-0.1,0.2
		C54.7,32.1,54.7,32.7,54.7,33.3z"/>
	<path class="st2" d="M50.2,35.2h1.6l1.6,1l0,0l-1.2-2.1l-0.1-0.2v-0.1l2.8-2.5H55c1-0.1,8-0.7,8.4,0l0.2,0.3c0.5,0.6,1.8,1.9,2.9,3
		s1.8,1.8,1.8,1.8l-0.2-1.9l-1.2-1.3c0,0-2.3-3-3.5-3.5c-1.9-0.8-8.2,0.2-8.3,0.3c-0.2,0.1-4.1,3.2-4.5,4.4
		C50.6,34.7,50.4,34.9,50.2,35.2z"/>
</g>
<g>
	<path class="st4" d="M65.9,71.3c0,0,10.7-2.1,10.8-2.2s3.9,0,3.9,0l10.3,2.3l-9.7,10.4h-5L65.9,71.3z"/>
	<path class="st5" d="M89.3,71.8l3.4-1c0,0-8.3,12.5-10.7,13.1c-3.6,0.6-4.9,0.7-7.8-0.3c-1.9-1.4-9.6-12.8-9.6-12.8l2.9,1
		c0,0,7.3,8,10.9,8S89.3,71.8,89.3,71.8z"/>
	<path class="st6" d="M68.7,70.8l0.7,1.4c0.4,0.8,1.1,1.3,2,1.4c0,0,5.4,0.4,7.1,0.4s6.9-0.4,6.9-0.4c0.9-0.1,1.6-0.6,2-1.4l0.4-0.9
		L68.7,70.8z"/>
	<path class="st5" d="M92.7,70.8l-3.4,1c0,0-8.2-0.8-11-0.8s-10.9,0.8-10.9,0.8l-2.9-1c0.4-0.6,10.5-4.3,10.5-4.3
		c1.1,0.3,2.1,0.7,3.2,1.1c0,0,1-0.4,3.4-1.1C81.7,66.5,92.3,70.2,92.7,70.8z"/>
</g>
</svg>
