<?xml version="1.0" encoding="utf-8"?>
<!-- Generator: Adobe Illustrator 26.0.2, SVG Export Plug-In . SVG Version: 6.00 Build 0)  -->
<svg version="1.1" id="Calque_1" xmlns="http://www.w3.org/2000/svg" xmlns:xlink="http://www.w3.org/1999/xlink" x="0px" y="0px"
	 viewBox="0 0 158 103.1" style="enable-background:new 0 0 158 103.1;" xml:space="preserve">
<style type="text/css">
	.st0{fill:#AD717F;}
	.st1{fill:#DFB0A4;}
	.st2{fill:#1F1A19;}
	.st3{fill:#635132;}
</style>
<g id="Calque_7">
	<ellipse class="st0" cx="78.7" cy="74.2" rx="4.7" ry="6"/>
	<path class="st1" d="M105.8,35.8c0,2.6-2.2,4.6-6.7,4.6S91,38.8,91,36.2c0-1.1,3.9-3.3,3.9-3.3c2-0.4,3.4,0.6,5.9,0.4
		S105.8,35.8,105.8,35.8z"/>
	<path class="st2" d="M105.8,35.9c0,2.5-1.9,4.5-4.4,4.6h-0.2c-0.2,0-0.4,0-0.6,0c-2.5-0.3-4.3-2.6-4-5.1l0,0c0-0.3,0.1-0.6,0.2-0.9
		c0.1-0.4,0.3-0.7,0.5-1c0.2-0.2,0.3-0.5,0.6-0.7c1.5,0,3.7,0.7,5.3,0.8c0.4,0.4,0.5-0.3,0.7,0.2l1,1.3
		C105.2,35.5,105.8,35.2,105.8,35.9z"/>
	<path class="st2" d="M107.7,37.7h-1.6l-1.6,1l0,0l1.2-2.1h0.1v-0.1L103,34h-0.1c-1-0.1-8-0.7-8.4,0l-0.2,0.3
		c-0.5,0.6-1.8,1.9-2.9,3s-1.8,1.8-1.8,1.8l0.2-1.9l1.2-1.3c0,0,2.3-3,3.5-3.5c1.9-0.8,8.2,0.2,8.3,0.3c0.2,0.1,4.1,3.2,4.5,4.4
		C107.4,37.2,107.6,37.5,107.7,37.7z"/>
	<path class="st3" d="M84.4,26.2c0.1,0.4,0.1,0.8,0.1,1.1c0.1,0.5,0.4,0.9,0.9,1l2,0.5c0.2,0,0.3,0,0.5,0l13.3-2.7
		c0.2,0,0.3,0,0.5,0c1.2,0.3,7.1,1.6,7.1,1.5s1.1,0.4,2.1,0.9c0.8,0.4,1.7-0.3,1.6-1.2l0,0c0-0.4-0.3-0.7-0.6-0.9
		c-2.1-1-9.4-4.5-9.5-4.4c-0.2,0.1-7.5,0.6-8.5,0.7c-0.1,0-0.1,0-0.2,0l-8.3,2.2C84.6,25.1,84.3,25.6,84.4,26.2z"/>
	<path class="st3" d="M73.6,26.2c-0.1,0.4-0.1,0.8-0.1,1.1c-0.1,0.5-0.4,0.9-0.9,1l-2,0.5c-0.2,0-0.3,0-0.5,0L56.8,26
		c-0.2,0-0.3,0-0.5,0c-1.2,0.3-7.1,1.6-7.1,1.5s-1.1,0.4-2.1,0.9c-0.8,0.4-1.7-0.3-1.6-1.2l0,0c0-0.4,0.3-0.7,0.6-0.9
		c2.1-1,9.4-4.5,9.5-4.4c0.2,0.1,7.5,0.6,8.5,0.7c0.1,0,0.1,0,0.2,0l8.3,2.2C73.4,25.1,73.7,25.6,73.6,26.2z"/>
	<path class="st1" d="M52.1,35.8c0,2.6,2.2,4.6,6.7,4.6s8.1-1.6,8.1-4.1c0-1.1-3.9-3.3-3.9-3.3c-2-0.4-3.4,0.6-5.9,0.4
		S52.1,35.8,52.1,35.8z"/>
	<path class="st2" d="M57.6,35.9c0,2.5,1.9,4.5,4.4,4.6h0.2c0.2,0,0.4,0,0.6,0c2.5-0.3,3.8-2,3.5-4.5l0,0c0-0.3-0.4-0.7-0.5-1
		c-0.1-0.4-0.8-0.5-1-0.9c-0.2-0.2-1-0.8-1.3-1c-1.5,0-2.9-0.4-4.5-0.4c-0.4,0.4-0.7,0.8-0.9,1.2L58,34
		C57.7,34.7,57.7,35.2,57.6,35.9z"/>
	<path class="st2" d="M50.2,37.7h1.6l1.6,1l0,0l-1.2-2.1l-0.1-0.2v-0.1l2.8-2.5H55c1-0.1,8-0.7,8.4,0l0.2,0.3c0.5,0.6,1.8,1.9,2.9,3
		s1.8,1.8,1.8,1.8L68.1,37l-1.2-1.3c0,0-2.3-3-3.5-3.5c-1.9-0.8-8.2,0.2-8.3,0.3c-0.2,0.1-4.1,3.2-4.5,4.4
		C50.6,37.2,50.4,37.4,50.2,37.7z"/>
</g>
</svg>
