<svg xmlns="http://www.w3.org/2000/svg" viewBox="0 0 788 455"><defs><style>.cls-1{fill:#f6af97;}.cls-2{fill:#a45f5e;}.cls-3{fill:#c0272d;}.cls-4{fill:#ff921e;}</style></defs><g id="Calque_5" data-name="Calque 5"><path class="cls-1" d="M489.41,235.41c-.6,38.39-13.2,39.17-23.86,48.29-12.58,10.77-8.27,50-17.18,64-2.45,3.84-11.36,10.1-15.8,9.08-12.51-2.87-24-30.73-34.77-37.73-6.33-4.12-23.57-3.62-30.19,0-11.25,6.16-22.27,34.86-34.77,37.73-4.44,1-13.35-5.24-15.8-9.08-8.91-14-4.6-53.24-17.19-64-10.65-9.12-20.25-6.9-20.86-45.29-.41-26.59,19-34.34,19-34.34l40.15-19.91a31.55,31.55,0,0,0,17.54-28.5l-.11-15.73.78.06,25.84,2,26.89-2.06h.07l.19,14.85,0,3.21c0,.33,0,.67,0,1v0a28.51,28.51,0,0,0,15.79,24.11l40.53,20.1a27.41,27.41,0,0,0,3.16,1.33C475.55,206.94,489.78,212.07,489.41,235.41Z"/><polygon class="cls-2" points="410.05 196.59 382.55 229.09 355.36 196.59 356.34 139.99 356.34 139.93 409.07 139.93 409.07 139.94 409.33 154.78 409.4 158.99 409.4 159.02 410.05 196.59"/><path class="cls-1" d="M440.24,211.27c22.19-16.56,54.29-15.22,54.29-15.22s62.12-4.29,82.8-6.05c9.75-.82,30-2.9,32.78,21.36h0c2.26,20-16.64,25.54-25.88,27.25-18.8,3.47-57.6,6.54-75.31,13.14-13.2,4.91-31.62,17.62-55,11.91,0,0-19.68-2.57-24.24-22.11l-.18-.77a28.69,28.69,0,0,1,10.78-29.51Z"/><path class="cls-1" d="M572.89,234.3c-17.9-8.67-13.66-31.94-11.62-40.3s10.2-24.14,14.19-31.9c10.21-19.88,29.94-51.95,39.66-71.52,6.4-12.87,9.4-19.84,18.71-17.94,8.48,1.73,6.81,15.7,6.22,21.19-2.43,22.59-6.6,66.79-13,89.94-2.64,9.51-9.74,28.23-15.33,36.36C596.05,242.87,578.1,236.82,572.89,234.3Z"/><polygon class="cls-3" points="303.3 448.88 304.8 426.38 459.8 426.38 461.8 445.88 303.3 448.88"/><path class="cls-1" d="M323.47,213.53c-22.19-16.55-54.29-15.21-54.29-15.21s-62.12-4.3-82.8-6c-9.75-.83-30-2.91-32.78,21.35h0c-2.26,20,16.64,25.55,25.88,27.25,18.8,3.47,57.6,6.55,75.31,13.14,13.2,4.91,31.62,17.63,55,11.91,0,0,19.68-2.57,24.24-22.1l.18-.77a28.7,28.7,0,0,0-10.78-29.52Z"/><path class="cls-1" d="M190.82,236.56c17.9-8.67,13.66-31.94,11.62-40.3s-10.2-24.13-14.19-31.9c-10.21-19.87-29.94-51.94-39.66-71.51C142.19,80,139.19,73,129.88,74.9c-8.48,1.73-6.81,15.71-6.22,21.2,2.43,22.59,6.6,66.79,13,89.93,2.63,9.51,9.74,28.23,15.33,36.36C167.66,245.13,185.61,239.08,190.82,236.56Z"/><path class="cls-1" d="M121.15,86.28A36.46,36.46,0,0,1,118,73.2l-1.38-24.1a8.08,8.08,0,0,1,2-5.49h0a10.41,10.41,0,0,1,7.65-3.37L147,37.09c3.44-.09,5.12.77,6.59,3.61L153,47.17s1.86,8.86,2,6.21c.38-9.36,1.86-15.7,10-14.79l-1.45,15.52c.11,1.27-1.21,3.85-1.84,5-2,3.47-3.4,11.5-5.45,14.22,0,0-10,10.21-11.08,12.65-1.13,2.62,1.24,6,1.24,6h0a9.38,9.38,0,0,1-11.82,7.82l-8.77-2.46Z"/><path class="cls-2" d="M153.55,40.69l-1.29,12.6-7.89,13.08-8-1.32,1.3,1a10.13,10.13,0,0,1,3.69,9.1l-.52,4.32,4.86-9.83,2.58-1.84,7.13-14.78-.34-6.63Z"/><path class="cls-1" d="M640.79,86.28a36.46,36.46,0,0,0,3.14-13.08l1.38-24.1a8.08,8.08,0,0,0-2-5.49h0a10.41,10.41,0,0,0-7.65-3.37L615,37.09c-3.44-.09-5.12.77-6.59,3.61l.54,6.47s-1.86,8.86-2,6.21c-.38-9.36-1.86-15.7-10-14.79l1.45,15.52c-.11,1.27,1.21,3.85,1.84,5,2,3.47,3.4,11.5,5.45,14.22,0,0,10,10.21,11.08,12.65,1.13,2.62-1.23,6-1.23,6h0a9.36,9.36,0,0,0,11.81,7.82l8.77-2.46Z"/><path class="cls-2" d="M608.39,40.69l1.29,12.6,7.89,13.08,8-1.32-1.3,1a10.13,10.13,0,0,0-3.69,9.1l.52,4.32-4.86-9.83-2.58-1.84-7.13-14.78.34-6.63Z"/><path class="cls-4" d="M251.13,192.06l26,82.11a1.71,1.71,0,0,1,.09.3c.77,3.11,12.77,51.76,14.66,69.7,2.11,20,6.48,81.47,6.82,86.26a4,4,0,0,1,0,.6l-1.08,21.61a5,5,0,0,0,4.86,5.25L462.24,462a5,5,0,0,0,5.13-5.25c-.82-16.48-3-67.26-.24-102.15,1.43-18.35,14.08-72.11,14.87-75.48,0-.11.06-.22.1-.33l27.08-86.91a5,5,0,0,0-4.56-6.48l-60.57-2.58a5,5,0,0,0-2.62.61L386,213.83a5,5,0,0,1-5-.09l-55.3-32.86a5,5,0,0,0-2.95-.69l-67.33,5.37A5,5,0,0,0,251.13,192.06Z"/></g></svg>