<?xml version="1.0" encoding="utf-8"?>
<!-- Generator: Adobe Illustrator 26.0.1, SVG Export Plug-In . SVG Version: 6.00 Build 0)  -->
<svg version="1.1" id="Calque_1" xmlns="http://www.w3.org/2000/svg" xmlns:xlink="http://www.w3.org/1999/xlink" x="0px" y="0px"
	 viewBox="0 0 788 1005" style="enable-background:new 0 0 788 1005;" xml:space="preserve">
<style type="text/css">
	.st0{fill:#C78D71;}
	.st1{fill:#A45F5E;}
	.st2{fill:none;}
	.st3{fill:#473415;}
	.st4{fill:none;stroke:#000000;stroke-width:3;stroke-miterlimit:10;}
	.st5{fill:#A2896D;}
	.st6{fill:#4A330F;}
	.st7{fill:#3E322E;}
	.st8{fill:#574640;}
	.st9{fill:#CBAE84;}
</style>
<g id="Calque_5">
	<path class="st0" d="M411.2,321.5c10.8,7,22.3,34.9,34.8,37.7c4.4,1,13.4-5.2,15.8-9.1c8.9-14,4.6-53.2,17.2-64
		c10.6-9.1,36.2-3.9,36.9-42.3c0.4-23.3-25-29.7-31.6-32c-1.1-0.4-8-2.6-9-3.2l-36.6-23.1c-9.6-4.7-15.7-14.5-15.8-25.1l-0.2-18.1
		l-27,2.1l-26.5-2.1l0.1,15.7c0.1,12.1-6.7,23.1-17.5,28.5l-40.1,19.9c0,0-35.4,10.7-35,37.3c0.6,38.4,26.2,33.2,36.9,42.3
		c12.6,10.8,8.3,50,17.2,64c2.5,3.8,11.4,10.1,15.8,9.1c12.5-2.9,23.5-31.6,34.8-37.7C387.6,317.9,404.9,317.4,411.2,321.5z"/>
	<path class="st1" d="M424,168.2l-1,1.2c-6.3,7.7-41.7,50.6-49,47.1c-2.2-1.1-4.5-5.1-6.7-10.1l0,0c-4.5-10.4-8.1-24.9-8.1-24.9
		c0.6-0.6,1.2-1.2,1.8-1.9l0-0.1c3.9-4.8,6.5-10.5,7.8-16.6c0-0.2,0.1-0.4,0.1-0.6l0,0c0.2-1,0.4-2.2,0.5-3.4l0,0
		c0.5-4.4,0.8-10.3,0.9-16.3v-0.1h52.4v5.2v0.3v6.5v1.5v6l0.1,0.6l0,0l0.2,0.9l0.9,4.6l0,0L424,168.2z"/>
	<path class="st2" d="M465.7,406.3c-0.9-4-5.7-25.3-5.6-33.8c0.1-9.2,4-27.7,1.8-36.6c-9.8-39.6-123.5-39.7-133.3,0
		c-2.2,8.9,1.7,27.5,1.8,36.6c0.1,8.6-4.7,29.8-5.6,33.8c-11,50.3,70.4,73.4,70.4,73.4S476.8,456.7,465.7,406.3z"/>
	<polygon class="st3" points="316.7,451.3 318.2,428.8 473.2,428.8 475.2,448.3 	"/>
	<path class="st4" d="M463.2,241.7c-6.4,26.9,7.5,55.9,7.5,55.9s20.6,58.8,27.2,78.5c3.1,9.3,9.2,28.7,32.6,21.7l0,0
		c19.3-5.8,16.9-25.4,14.8-34.5c-4.2-18.6-16.8-55.5-17.7-74.4c-0.7-14.1,3.7-36-10.8-55.3c0,0-10.1-17.1-29.9-13.5l-0.8,0.1
		C474.8,222.1,465.8,230.6,463.2,241.7L463.2,241.7z"/>
	<path class="st5" d="M433.7,191.8c0,0,53.8,19,70.1,28.7c28.6,17-18,75-18,75l-10.3,65l5,67.2l-7.7,11.8l-153.3,0.8l-8.3-11.9
		l0.6-64.8c0,0-5.3-50.7-15.9-63c-23.8-27.6-1.2-86.2-1.2-86.2l63.7-22.7c0,0,16.9,39.3,39.9,37.2
		C424.1,226.4,433.7,191.8,433.7,191.8z"/>
	<polygon class="st6" points="316.6,450.5 318.1,428 473.1,428 475.1,447.5 	"/>
	<path class="st0" d="M440.6,471.5l39.8-17.5l22.8,23.3l-2.6,10.5l-12,12c0,0-22.7-19.3-22.7-21s-17.4,4.2-17.4,4.2L440.6,471.5z"/>
	<path class="st0" d="M353.2,464.5L314.4,448l-23.8,22.3l2.6,10.5l12,12c0,0,22.7-19.3,22.7-21s17.3,4.2,17.3,4.2L353.2,464.5z"/>
	<polygon class="st7" points="519.6,227.5 540.7,283.5 549.3,392.4 503.8,478.7 474,449.7 502.2,375.2 496.8,296.8 	"/>
	<polygon class="st8" points="430.9,178.8 439.1,299.2 439.1,468.1 497.9,448.1 506.9,296 519.4,226.7 	"/>
	<polygon class="st7" points="468.6,207.1 458.5,227.8 446.2,226 435.5,244.3 431,179.3 451.5,199.4 	"/>
	<polygon class="st7" points="272.6,227.5 254.5,278.5 245.9,387.4 291.4,473.7 321.2,444.7 292.9,370.2 298.4,291.8 	"/>
	<polygon class="st8" points="364.3,173.8 356,294.2 356,463.1 297.2,443.1 288.2,291 271.8,226.7 	"/>
	<path class="st9" d="M422.9,168l-0.3-13.6c0,0,16,0.4,17,2s34.4,43,34.4,43l-5.4,37l-33.1,7.8l33.1,22.2c0,0-29,74.9-29.5,72.7
		s-15-123.8-14.4-127.4S422.9,168,422.9,168z"/>
	<path class="st9" d="M369.1,168.1l0.3-13.6c0,0-16,0.4-17,2s-34.4,43-34.4,43l5.4,37l33.1,7.8l-33.1,22.2c0,0,32.1,69.7,32.6,67.5
		s11.9-118.6,11.3-122.2S369.1,168.1,369.1,168.1z"/>
</g>
</svg>
