<?xml version="1.0" encoding="utf-8"?>
<!-- Generator: Adobe Illustrator 26.0.0, SVG Export Plug-In . SVG Version: 6.00 Build 0)  -->
<svg version="1.1" id="Calque_1" xmlns="http://www.w3.org/2000/svg" xmlns:xlink="http://www.w3.org/1999/xlink" x="0px" y="0px"
	 viewBox="0 0 788 455" style="enable-background:new 0 0 788 455;" xml:space="preserve">
<style type="text/css">
	.st0{fill:#D38E72;}
	.st1{fill:#A45F5E;}
	.st2{fill:none;stroke:#000000;stroke-width:3;stroke-miterlimit:10;}
	.st3{fill:#D79072;}
	.st4{fill:none;}
	.st5{fill:#F6AF97;}
	.st6{fill:#46455B;}
	.st7{fill:#C78D71;}
	.st8{fill:#DE9D92;}
	.st9{fill:#37344D;}
	.st10{fill:#66463A;}
	.st11{fill:#3A2C28;}
</style>
<g id="Calque_5">
	<path class="st0" d="M477,152.1c-0.6,38.4-26.2,33.2-36.9,42.3c-12.6,10.8-8.3,50-17.2,64c-2.5,3.8-11.4,10.1-15.8,9.1
		c-12.5-2.9-24-30.7-34.8-37.7c-6.3-4.1-23.6-3.6-30.2,0c-11.2,6.2-22.3,34.9-34.8,37.7c-4.4,1-13.4-5.2-15.8-9.1
		c-8.9-14-4.6-53.2-17.2-64c-10.6-9.1-36.2-3.9-36.9-42.3c-0.4-26.6,35-37.3,35-37.3l40.1-19.9c2.6-1.3,5-2.9,7.1-4.8
		c0.8-0.7,1.6-1.5,2.3-2.3c0.2-0.2,0.5-0.5,0.7-0.8c3.9-4.7,6.4-10.4,7.2-16.4c0.2-1.4,0.3-2.8,0.2-4.2v-2.8l-0.1-12.9l0.8,0.1h0.5
		l25.4,2l26.9-2.1h0.1l0.1,5.2l0.1,8.1v1.5v3.2c0,0.3,0,0.7,0,1l0,0c0,0.7,0.1,1.3,0.2,2c0.2,1.5,0.5,3.1,0.9,4.6
		c2.2,7.7,7.6,14,14.7,17.6l40.6,20.1c1,0.5,2.1,1,3.2,1.3C450.1,117.7,477.4,128.8,477,152.1z"/>
	<path class="st0" d="M384.6,107.3l-27.5,32.5l-14.8-17.7l-12.4-14.8l0.7-41.6v-2.2l0.2-12.8v-0.1v-1.3l0.5-0.1c0,0.5,0,0.9,0,1.4
		h52.3l0.1,8.6l0.1,4.7l0,0v1.6l0.1,4.2l0,0L384,71l0.1,6.8L384.6,107.3z"/>
	<path class="st1" d="M385.1,76.6l-1,1.2c-5.2,6.3-28.8,35-41.8,44.3c-3.2,2.3-5.7,3.4-7.2,2.7c-6.8-3.3-14.8-35.1-14.8-35.1
		l0.1-0.1c0.6-0.6,1.2-1.2,1.7-1.9c0.3-0.4,0.7-0.8,1-1.3l0.1-0.1c3.3-4.5,5.5-9.7,6.7-15.2c0-0.2,0.1-0.4,0.1-0.6
		c0.3-1.4,0.5-3,0.7-4.8c0.1-0.7,0.1-1.4,0.2-2.2c0.3-3.8,0.5-8.2,0.5-12.8v-0.1h52.4v5.2v3.4v4.3v6.7L384,71l0.1,0.7l0.9,4.6
		L385.1,76.6z"/>
	<path class="st2" d="M419.1,158.9c11.9,25,40.9,38.8,40.9,38.8s53,32.8,70.4,44c8.2,5.3,25.2,16.6,39-3.6l0,0
		c11.3-16.6-2.8-30.4-10.2-36.2c-15-11.8-47.9-32.7-60.5-46.7c-9.4-10.5-19.8-30.3-43.1-36.2c0,0-18.6-6.9-31.8,8.2l-0.5,0.6
		C415.9,136.4,414.3,148.6,419.1,158.9L419.1,158.9z"/>
	<path class="st3" d="M555.4,204.1c-18.5-7.2-32.7,11.8-37.4,19s-10.7,23.9-13.6,32.2c-7.5,21-17.5,57.3-25.2,77.8
		c-5,13.5-8.1,20.4-0.4,25.9c7,5,16.1-5.7,19.7-9.9c14.9-17.2,44.3-50.4,56.8-70.9c5.2-8.4,14-26.4,16.1-36
		C577.5,215.1,560.8,206.1,555.4,204.1z"/>
	<path class="st2" d="M426.9,314.6c-0.9-4-5.7-25.3-5.6-33.8c0.1-9.2,4-27.7,1.8-36.7c-9.8-39.6-123.5-39.6-133.3,0
		c-2.2,9,1.8,27.5,1.8,36.7c0,8.5-4.7,29.8-5.6,33.8c-11,50.3,70.3,73.3,70.3,73.3S438,365,426.9,314.6z"/>
	<path class="st4" d="M395.5,299.8c16.1,5.2,23.2,9.6,27,16.6c3.1,5.6,6,18.5,6.3,24.9c0.5,15.1-7.8,52.9-21.9,65.6
		c-14.4,12.9-84.8,12.9-99.2,0c-14.2-12.6-22.5-50.5-21.9-65.6c0.2-6.4,3.2-19.3,6.3-24.9c3.8-6.9,10.9-11.3,27-16.6
		c18.5-6,37.3-5,37.3-5S377,293.8,395.5,299.8z"/>
	<path class="st5" d="M177.3,267.3c19.9-0.1,26.1-23,27.8-31.4s1.1-26.2,0.9-34.9c-0.7-22.3-4.8-59.8-5.1-81.6
		c-0.2-14.4,0-22-9.2-24.2c-8.4-2.1-12.9,11.3-14.7,16.5c-7.5,21.4-22.7,63.2-26.8,86.8c-1.7,9.7-3.3,29.7-1.8,39.4
		C152.7,265.1,171.5,267.3,177.3,267.3z"/>
	<path class="st2" d="M296.5,159.1c-8.5,26.3-35.5,43.8-35.5,43.8s-48.2,39.4-64.1,52.8c-7.5,6.3-22.8,19.7-39.1,1.5l0,0
		c-13.4-15-1.2-30.5,5.4-37.2c13.3-13.7,43.2-38.6,53.9-54.2c7.9-11.6,15.6-32.6,38-41.5c0,0,17.6-9.3,32.6,4l0.6,0.5
		C296.8,136.3,300,148.3,296.5,159.1L296.5,159.1z"/>
	<path class="st6" d="M383.8,63.5c0,0,3.1,21.5,11.6,26.8c7,4.3,39.2,21,61.2,26.8c34.9,9.2,70.8,63.8,109.9,87.6
		c7.3,4.4,8.9,20.6,8.5,26.7c-0.8,11.1-10.2,30.6-15.7,41.8c-10.7,21.7-51.1,73.9-51.1,73.9l-2.5,3.9c-2.4,3.7-7.3,4.8-11,2.5
		c-0.4-0.3-0.8-0.6-1.2-0.9L480,340.1c-3.7-3.4-4.6-8.9-2.3-13.4l7.6-14.6l26.5-79.8l-67.7-39.8L433.9,259l17.7,117.7l-13.3,21.1
		l-168.8,0.4l-6.7-14.5l14.9-127.5l-6.9-56.5c0,0-51.9,43.2-68.2,56.5c-6.6,5.4-25.8,16.2-34.2,14.5c-8-1.6-19-14.5-21.2-21.8
		c-3.5-10.9-2.8-34.6-0.7-45.9c3.4-18.1,16.8-64.3,21.6-80.7c1-3.3,4.3-5.4,7.8-4.8l26.1,4.7c2.2,0.4,3.7,2.3,3.8,4.5l0.1,50.5
		c0,0,24.9-42.2,38.3-49.7c31.5-17.6,70.7-33.4,76.2-37.7c7.5-6,9.9-26.2,9.9-26.2L383.8,63.5z"/>
	<path class="st7" d="M482,355.3c2,3.2,3.1,9-3,14.9c0,0-17.6,20.2-25.4,24.3c-3.5,1.8-12.8,6.3-15.4,3.3
		c-7.3-8.4-12.1-28.6-9.7-41.7c0.7-3.9,9.4-8.1,13.3-8.8c4.3-0.8,13,2.6,17.3,2.8c2.4,0,4.8-0.1,7.2-0.4
		C472.3,349.1,479.3,350.9,482,355.3z"/>
	<polygon class="st8" points="472.3,342.9 468.1,349.6 471.5,362 475.5,374.1 481.1,368.1 491.2,361.1 	"/>
	<polygon class="st9" points="469.6,347.2 478.9,331.5 499.4,353.4 488.1,366.1 	"/>
	<path class="st7" d="M189.8,104.3c-3-1.8-6.5-6.4-4.4-14.5c0,0,4.4-26.5,8.6-34c1.8-3.3,7-11.8,10.4-10.5
		c9.5,3.7,22.3,19.2,26.5,31.9c1.2,3.8-3.6,11.7-6.3,14.3c-2.9,2.9-11.2,4.1-14.7,6.1c-1.9,1.2-3.7,2.5-5.4,3.9
		C200.1,105,193.9,106.8,189.8,104.3z"/>
	<polygon class="st7" points="203,110.4 203.1,102.5 194.9,93.1 186.3,84.5 184.7,92.5 180.1,103.8 	"/>
	<polygon class="st9" points="203.3,106.7 203.7,123.1 172.8,118.1 179.7,100.5 	"/>
	<path class="st10" d="M465.4,480.9c0,0-17.1,22-21.1,17.8s-48.8-198.9-48.8-198.9L383.9,70.3l4.5,0.4l10.9,19.9l58.5,17.6
		c0,0-9,186.5-9,186.6s28.3,171,28.3,171L465.4,480.9z"/>
	<path class="st10" d="M245.5,480.9c0,0,17.1,22,21.1,17.8s48.8-198.9,48.8-198.9l14.4-228.6l-4.1-0.6l-14.6,23.2l-56.1,18.8
		c0,0,7.1,182,7.1,182.1s-28.3,171-28.3,171L245.5,480.9z"/>
	<circle class="st11" cx="300.9" cy="290.2" r="6.2"/>
	<path class="st8" d="M331.4,49.2c0,0.5,0,0.9,0,1.4h-0.5v-1.3L331.4,49.2z"/>
</g>
</svg>
