<svg xmlns="http://www.w3.org/2000/svg" viewBox="0 0 788 1005"><defs><style>.cls-1{fill:#f6af97;}.cls-2{fill:#a45f5e;}.cls-3,.cls-5{fill:none;}.cls-4{fill:#473415;}.cls-5{stroke:#000;stroke-miterlimit:10;stroke-width:3px;}.cls-6{fill:#a2896d;}.cls-7{fill:#4a330f;}.cls-8{fill:#3e322e;}.cls-9{fill:#574640;}.cls-10{fill:#cbae84;}</style></defs><g id="Calque_5" data-name="Calque 5"><path class="cls-1" d="M411.2,321.48c10.75,7,22.27,34.85,34.77,37.73,4.44,1,13.35-5.25,15.8-9.09,8.91-14,4.6-53.23,17.19-64,10.65-9.12,36.25-3.91,36.86-42.3.36-23.34-25-29.66-31.65-32-1.08-.38-8-2.65-9-3.16l-36.57-23.08a28.48,28.48,0,0,1-15.82-25.14l-.23-18.05-27,2.06L369,142.34l.11,15.73a31.54,31.54,0,0,1-17.53,28.5l-40.15,19.92s-35.41,10.74-35,37.33c.6,38.39,26.2,33.18,36.85,42.3,12.59,10.77,8.28,50,17.19,64,2.45,3.84,11.36,10.11,15.8,9.09,12.5-2.88,23.52-31.57,34.77-37.73C387.63,317.85,404.88,317.36,411.2,321.48Z"/><path class="cls-2" d="M424,168.25l-1,1.19c-6.3,7.74-41.66,50.63-49,47.06-2.2-1.06-4.53-5.13-6.69-10.15h0c-4.47-10.43-8.15-24.94-8.15-24.94a18.08,18.08,0,0,0,1.76-1.88l.05-.06a38.48,38.48,0,0,0,7.77-16.56c0-.2.09-.4.12-.61a0,0,0,0,0,0,0c.19-1,.37-2.18.51-3.45v0c.51-4.45.76-10.3.86-16.33v-.1h52.38l0,5.24V148l0,6.49V156l0,6,.12.56v0l.17.85.93,4.57h0Z"/><path class="cls-3" d="M465.74,406.33c-.88-4-5.67-25.27-5.62-33.83.06-9.17,4-27.71,1.81-36.65-9.77-39.58-123.54-39.66-133.32,0-2.21,8.94,1.74,27.48,1.8,36.65.06,8.56-4.74,29.82-5.62,33.83-11,50.33,70.35,73.38,70.35,73.38S476.78,456.66,465.74,406.33Z"/><polygon class="cls-4" points="316.71 451.3 318.21 428.8 473.21 428.8 475.21 448.3 316.71 451.3"/><path class="cls-5" d="M463.17,241.66c-6.44,26.92,7.47,55.88,7.47,55.88s20.6,58.77,27.16,78.46c3.09,9.28,9.2,28.74,32.57,21.67h0c19.27-5.82,16.89-25.38,14.81-34.54-4.24-18.64-16.75-55.5-17.69-74.37-.7-14.06,3.7-36-10.8-55.27,0,0-10.14-17.06-29.89-13.53l-.78.14a28.68,28.68,0,0,0-22.85,21.56Z"/><path class="cls-6" d="M433.71,191.77s53.83,19,70.12,28.7c28.64,17-17.95,75-17.95,75l-10.28,65,5,67.2-7.7,11.77-153.26.8-8.3-11.88.6-64.79s-5.27-50.71-15.88-63c-23.83-27.61-1.25-86.21-1.25-86.21l63.72-22.66s16.9,39.32,39.91,37.17C424.15,226.45,433.71,191.77,433.71,191.77Z"/><polygon class="cls-7" points="316.62 450.52 318.12 428.02 473.12 428.02 475.12 447.52 316.62 450.52"/><path class="cls-1" d="M440.62,471.46,480.39,454l22.78,23.27-2.57,10.5-12,12s-22.7-19.27-22.7-21S448.55,483,448.55,483Z"/><path class="cls-1" d="M353.17,464.46,314.4,448l-23.78,22.27,2.57,10.5,12,12s22.7-19.27,22.7-21S345.24,476,345.24,476Z"/><polygon class="cls-8" points="519.62 227.52 540.65 283.48 549.28 392.44 503.81 478.67 474.02 449.67 502.24 375.2 496.75 296.8 519.62 227.52"/><polygon class="cls-9" points="430.9 178.82 439.14 299.16 439.14 468.09 497.93 448.1 506.94 296.02 519.41 226.74 430.9 178.82"/><polygon class="cls-8" points="468.6 207.06 458.52 227.83 446.19 225.97 435.49 244.28 430.97 179.29 451.53 199.45 468.6 207.06"/><polygon class="cls-8" points="272.56 227.52 254.53 278.48 245.91 387.44 291.37 473.67 321.16 444.67 292.94 370.2 298.43 291.8 272.56 227.52"/><polygon class="cls-9" points="364.28 173.82 356.05 294.16 356.05 463.09 297.25 443.1 288.24 291.02 271.77 226.74 364.28 173.82"/><path class="cls-10" d="M422.92,168l-.31-13.58s16,.41,17,2,34.41,43,34.41,43l-5.42,37-33.11,7.76,33.11,22.18s-29,74.86-29.46,72.68-15-123.78-14.42-127.36S422.92,168,422.92,168Z"/><path class="cls-10" d="M369.13,168.08l.3-13.58s-16,.41-17,2-34.41,43-34.41,43l5.41,37,33.11,7.76L323.44,266.5s32.13,69.69,32.61,67.51,11.89-118.61,11.27-122.18S369.13,168.08,369.13,168.08Z"/></g></svg>