<?xml version="1.0" encoding="utf-8"?>
<!-- Generator: Adobe Illustrator 26.0.0, SVG Export Plug-In . SVG Version: 6.00 Build 0)  -->
<svg version="1.1" id="Calque_1" xmlns="http://www.w3.org/2000/svg" xmlns:xlink="http://www.w3.org/1999/xlink" x="0px" y="0px"
	 viewBox="0 0 788 455" style="enable-background:new 0 0 788 455;" xml:space="preserve">
<style type="text/css">
	.st0{fill:#7A909D;}
	.st1{fill:#C78D71;}
	.st2{fill:#A45F5E;}
	.st3{fill:#94ABB9;}
	.st4{fill:#D68F72;stroke:#000000;stroke-width:3;stroke-miterlimit:10;}
	.st5{fill:#824B26;}
	.st6{fill:#8E5725;}
	.st7{fill:#DDDEE0;}
	.st8{fill:#ACCADD;}
	.st9{fill:#9498B9;}
</style>
<g id="Calque_7">
	<polygon class="st0" points="325.1,111.6 326,82.7 386.4,82 386.1,111.6 	"/>
	<polygon points="190.5,397.2 190.6,397.2 190.5,397.2 	"/>
	<polygon points="190.6,397.2 190.7,397.2 190.7,397.2 	"/>
	<polygon points="190.5,397.2 190.6,397.2 190.5,397.2 	"/>
	<polygon points="190.6,397.2 190.7,397.2 190.7,397.2 	"/>
	<path class="st1" d="M371.5,239.2c10.8,7,22.3,34.9,34.8,37.7c4.4,1,13.4-5.2,15.8-9.1c8.9-14,4.6-53.2,17.2-64
		c10.6-9.1,36.3-3.9,36.9-42.3c0.4-23.3-26.9-34.5-33.5-36.8c-1.1-0.4-2.1-0.8-3.2-1.3l-40.5-20.1c-9.6-4.7-15.7-14.4-15.8-25.1
		l-0.2-18.1l-27,2.1l-23-8l-1.7,21.6c0.1,12.1-8.6,23.2-19.4,28.5l-40.1,19.9c0,0-35.4,10.7-35,37.3c0.6,38.4,26.2,33.2,36.9,42.3
		c12.6,10.8,8.3,50,17.2,64c2.5,3.9,11.4,10.1,15.8,9.1c12.6-2.9,23.6-31.6,34.8-37.7C347.9,235.6,365.1,235.1,371.5,239.2z"/>
	<path class="st2" d="M357.7,54.2h25l0.2,25.4l1.3,6.3c0,0-41.9,52.2-50,48.2c-6.8-3.3-14.8-35.1-14.8-35.1s6.9-6,9.6-18.5
		s1.1-26.5,1.1-26.5L357.7,54.2z"/>
	<path class="st3" d="M418.2,168.2c11.9,25,40.9,38.8,40.9,38.8s53,32.8,70.4,44c8.2,5.3,25.2,16.6,39-3.6l0,0
		c11.3-16.6-2.8-30.4-10.2-36.2c-15-11.8-47.9-32.6-60.5-46.7c-9.4-10.5-23.3-34.1-46.7-40c0,0-15.1-3.1-28.2,12l-0.5,0.6
		C415,145.7,413.3,157.9,418.2,168.2L418.2,168.2z"/>
	<path class="st4" d="M286.1,141.7c17.8,21.2,18.2,53.3,18.2,53.3s7.8,61.8,10.7,82.3c1.4,9.7,4.6,29.8-19.5,33.9l0,0
		c-19.8,3.4-26.4-15.2-28.7-24.3c-4.5-18.6-9.8-57.1-17.4-74.4c-5.6-12.9-19.4-30.6-15-54.3c0,0,1.5-19.8,20.7-25.4l0.8-0.2
		C266.9,129.3,278.7,132.9,286.1,141.7L286.1,141.7z"/>
	<polygon class="st5" points="278.4,369 279.9,341.6 434.9,341.6 431.8,365.5 	"/>
	<path class="st6" d="M273.2,328.2l1.6-132.2l-11.6-71.8l56.1-27.6l42.8,52.5l36.3-49.2l61,27.4l-6.8,103.7L426,303.1l8.2,10.8
		c4.8,6.3,6,14.6,3.3,22l-2.7,7.3l-156.1,2.5l-3.6-8.3C273.7,334.5,273.1,331.3,273.2,328.2z"/>
	<path class="st7" d="M413.4,163.7l202.9-23.9c5.8-0.7,11.1,3.5,11.7,9.3l15.8,134.2c0.7,5.8-3.5,11.1-9.3,11.7L431.7,319
		c-5.8,0.7-11.1-3.5-11.7-9.3l-15.8-134.2C403.5,169.7,407.6,164.4,413.4,163.7z"/>
	<path class="st1" d="M624.3,281.4l2.2-1c3.4-1.6,7.4-0.1,9,3.3l6.6,14c1.6,3.4,0.1,7.4-3.3,9l0,0c-3.4,1.6-7.4,0.1-9-3.3l-7.6-16.2
		C621.2,285,622.2,282.4,624.3,281.4L624.3,281.4L624.3,281.4z"/>
	<path class="st2" d="M568,302.8l40.5-6.7l-2.1,20.9c-0.2,2-2,3.5-4,3.3c-0.2,0-0.3,0-0.5-0.1l-9.5-2.4c-6.3-1.6-12.2-4.6-17.1-8.9
		L568,302.8z"/>
	<path class="st1" d="M591.6,285.8l9.3-4.4c8.4-3.9,18.4-0.3,22.4,8.1c0,0,0,0,0,0l2.2,4.8c3.7,8,0.3,17.4-7.6,21.1l0,0l-8,3.8
		c-5.1,2.4-11.1,0.2-13.5-4.8l-8.5-18.2C586.1,292.2,587.7,287.6,591.6,285.8C591.6,285.8,591.6,285.8,591.6,285.8z"/>
	<path class="st1" d="M412.1,240.5l13,20.1l11.5-2.2l24.2-3.7c6.1-0.9,11.1-5.2,13.2-11l6.7-19.2l29.8-4.4c4.2-0.7,7.2-4.3,7.3-8.5
		v-1.2l-34.9,2.5l1.9-5l-17.7,0.3l-10.4,0.1c-5.7,0-11.2,1.6-16,4.6l-9.4,5.7c-2,2.2-2.7,3.2-6.4,8.4l-5.4,7.5"/>
	<path class="st1" d="M271,290.9c-3.8-19.5,17.3-30.1,25.2-33.5s25.4-6.4,34-7.8c22-3.8,59.5-7.3,81-11.3
		c14.1-2.6,21.5-4.4,25.6,4.2c3.7,7.8-4.1,13.7-8.9,16.5c-19.5,11.6-61.6,36.1-84,44.9c-9.2,3.6-28.4,9.2-38.3,9.6
		C278.1,314.6,272.1,296.6,271,290.9z"/>
	<path class="st3" d="M263.2,124.2c0,0-26,11.4-33.6,21.4c-7.3,9.6-3.1,48.9-3.1,48.9s16.6,94.1,37.8,116c5,5.2,22.4,9.9,31.4,12.1
		c3.4,0.8,7,0.5,10.2-1L406.7,276l-8.5-40l-91.1,12l-18-67.6"/>
	<polygon class="st8" points="316,101 326,82.7 353.6,129.1 337.7,153.6 	"/>
	<polygon class="st8" points="400.4,102.9 386.4,82 365.8,128.4 384.5,151.7 	"/>
	<polygon class="st9" points="353.6,129.1 361.8,149.2 350.8,140.1 337.7,153.6 	"/>
	<polygon class="st9" points="361.8,149.2 365.8,128.4 384.5,151.7 371.1,141.2 	"/>
</g>
</svg>
