<?xml version="1.0" encoding="utf-8"?>
<!-- Generator: Adobe Illustrator 26.0.0, SVG Export Plug-In . SVG Version: 6.00 Build 0)  -->
<svg version="1.1" id="Calque_1" xmlns="http://www.w3.org/2000/svg" xmlns:xlink="http://www.w3.org/1999/xlink" x="0px" y="0px"
	 viewBox="0 0 788 455" style="enable-background:new 0 0 788 455;" xml:space="preserve">
<style type="text/css">
	.st0{fill:#7A909D;}
	.st1{fill:#C78D71;}
	.st2{fill:#DE9D92;}
	.st3{fill:#A45F5E;}
	.st4{fill:#36344D;}
	.st5{fill:#ABCADD;}
	.st6{fill:#5A655A;}
	.st7{fill:#6B776A;}
	.st8{fill:#ACCADD;}
	.st9{fill:#9498B9;}
</style>
<g id="Calque_1_00000068642500635541981470000011435429010456370072_">
	<polygon class="st0" points="326,102.2 326.9,73.3 387.4,72.6 387,102.2 	"/>
	<path class="st1" d="M114.8,114.2c0,0,4.8-19.2,4.2-22.2S114,76.7,114,74.3s3.3-17.1,1.5-17.1s-8.7,0.9-8.7,0.9l-4.2,12l1.5,14.7
		L88.2,68.3c0,0-16.9-25.6-17.6-27.3S62,43.1,62,43.1l18.8,32.7l-29-29.1l-6.9,6.9l30.7,30.9L39.5,58.9l-3.3,9.3l31.4,23.7L40,80.4
		c0,0-3,8.4-0.9,9.3s25.4,14.1,25.4,14.1l26,24.9l9.3,0.3L114.8,114.2z"/>
	<polygon points="192.2,388.4 192.3,388.4 192.2,388.3 	"/>
	<polygon points="192.3,388.4 192.4,388.4 192.4,388.3 	"/>
	<polygon points="192.2,388.4 192.3,388.4 192.2,388.3 	"/>
	<polygon points="192.3,388.4 192.4,388.4 192.4,388.3 	"/>
	<path class="st2" d="M477.8,152.7c-0.6,38.4-26.2,33.2-36.9,42.3c-12.6,10.8-8.3,50-17.2,64c-2.5,3.8-11.4,10.1-15.8,9.1
		c-12.5-2.9-24-30.7-34.8-37.7c-6.3-4.1-23.6-3.6-30.2,0c-11.2,6.2-22.3,34.9-34.8,37.7c-4.4,1-13.4-5.2-15.8-9.1
		c-8.9-14-4.6-53.2-17.2-64c-10.6-9.1-36.2-3.9-36.9-42.3c-0.4-26.6,35-37.3,35-37.3l40.1-19.9c2.6-1.3,5-2.9,7.1-4.8
		c0.8-0.7,1.6-1.5,2.3-2.3l0.6-0.7l0-0.1c3.9-4.7,6.5-10.4,7.2-16.4c0.2-1.4,0.3-2.8,0.2-4.2v-2.8v-4.5h53.6l0.1,5v1.5v3.2
		c0,0.3,0,0.7,0,1l0,0c0,0.7,0.1,1.3,0.2,2c0.2,1.5,0.5,3.1,0.9,4.6c2.2,7.7,7.6,14,14.7,17.6l40.5,20.1c1,0.5,2.1,1,3.2,1.3
		C451,118.2,478.2,129.4,477.8,152.7z"/>
	<path class="st1" d="M385.5,107.9L358,140.4l-14.8-17.7l-12.4-14.8l0.7-41.6v-2.2l0.1-4.5h53v0.2l0.1,4.7l0,0V66l0.1,4.2l0,0v1.3
		l0.1,6.8L385.5,107.9z"/>
	<path class="st3" d="M386,77.1l-1,1.2c-5.2,6.3-28.8,35-41.8,44.3c-3.2,2.3-5.7,3.4-7.2,2.7c-6.8-3.3-14.8-35.1-14.8-35.1l0.1-0.1
		c0.6-0.6,1.2-1.2,1.7-1.9c0.3-0.4,0.7-0.8,1-1.3l0.1-0.1c3.3-4.5,5.5-9.7,6.7-15.2c0-0.2,0.1-0.4,0.1-0.6c0.3-3.8,0.3-7.7,0.2-11.5
		c-0.1-0.7-0.1,0.8,0,0c0.2-1.4-0.1,1.6,0,0h53.6l0,0l0,0l0.3,12.3c0,0.3,0,0.5,0.1,0.8l0.9,4.2L386,77.1z"/>
	<path class="st1" d="M419.6,158.4c11.4,24.2,38.5,37.9,38.5,37.9s49.6,32.3,65.9,43.3c7.7,5.2,23.6,16.3,36.1-2.9l0,0
		c10.2-15.8-3.1-29.2-10-34.9c-14.1-11.6-44.9-32.1-56.8-45.8c-8.9-10.2-18.8-29.4-40.5-35.4c0,0-17.4-6.9-29.3,7.5l-0.5,0.6
		C416.2,137.1,414.9,148.7,419.6,158.4L419.6,158.4z"/>
	<path class="st1" d="M548.7,203c-18.6-7.2-27.2,7.8-31.9,15s-12.6,28.3-15.6,36.5c-7.5,21-21,57-28.7,77.5
		c-5,13.5-8.1,20.4-0.3,25.9c7,5,16.1-5.8,19.7-9.9c14.9-17.2,44.3-50.4,56.8-70.9c5.2-8.4,14-26.4,16.1-36
		C570.8,214.1,554.1,205.1,548.7,203z"/>
	<path class="st1" d="M192.2,259.7c13.8-11.4,4.5-32.1,0.7-39.9s-14.8-21.6-20.1-28.4C159,174,116.4,122,107.8,102
		c-6-14-23.9,10.4-23.9,10.4s10.8,14.4,15.5,24c10,20.3,17.6,50.4,32.9,84.6c4.1,9,15.3,25.6,22.2,32.5
		C173.8,272.8,188.2,263,192.2,259.7z"/>
	<path class="st1" d="M297.4,159.7c-8.5,26.3-35.5,43.8-35.5,43.8s-48.2,39.4-64.1,52.8c-7.5,6.3-22.8,19.7-39.1,1.5l0,0
		c-13.4-15-1.2-30.5,5.4-37.2c13.3-13.7,43.2-38.6,53.9-54.2c7.9-11.6,25.9-35.6,48.3-44.4c0,0,7.3-6.3,22.3,7l0.6,0.5
		C297.6,137,300.9,148.9,297.4,159.7L297.4,159.7z"/>
	<path class="st1" d="M480.3,352c2.7,2.7,5,8.1,0.4,15.1c0,0-12.7,23.6-19.4,29.3c-3,2.6-11.1,8.9-14.3,6.6
		c-9-6.5-18.1-25.2-18.7-38.5c-0.2-4,7.4-9.9,11.1-11.5c4-1.8,13.2-0.3,17.5-1.1c2.3-0.5,4.7-1.2,6.9-2
		C469.4,348.1,476.6,348.4,480.3,352z"/>
	<polygon class="st2" points="468,342.1 465.5,349.5 471.5,360.9 478,371.9 482.1,364.7 490.5,355.6 	"/>
	<polygon class="st4" points="466.3,346.9 471.9,329.5 496.7,346.3 488.6,361.2 	"/>
	<path class="st5" d="M464,120.6l30,30l33.9,24.9c-1.4,2.5-32,52.2-32,52.2s-43.5-29.7-44.7-30.8s-12.7-29.3-13.5-28.9
		s13.1-40.7,13.5-42.5S464,120.6,464,120.6"/>
</g>
<g id="Calque_5">
	<polygon points="191.4,387.9 191.5,387.8 191.4,387.8 	"/>
	<polygon points="191.5,387.8 191.6,387.9 191.6,387.8 	"/>
	<polygon points="191.4,387.9 191.5,387.8 191.4,387.8 	"/>
	<polygon points="191.5,387.8 191.6,387.9 191.6,387.8 	"/>
	<polygon class="st6" points="277.7,364.1 275.2,330 435.4,333.7 432.6,358.1 	"/>
	<path class="st7" d="M272.7,301.2l-10.9-97.8l-6.7-82.5l11.1-5.8l53.9-27.9l42.8,52.5l36.3-49.2l64.7,30l-10.4,101l-15.7,73
		c0,0,3.3,24.4,0.6,31.8l-2.9,7.2l-160.2,2.4l-4-5.8C263.4,317.1,272.7,304.4,272.7,301.2z"/>
	<polygon class="st8" points="316.9,91.6 326.9,73.3 331.9,95.8 354.5,119.8 338.6,144.2 	"/>
	<polygon class="st8" points="401.3,93.5 387.4,72.6 386,97 366.7,119 385.4,142.3 	"/>
	<polygon class="st9" points="354.5,119.8 363,139.8 362,169.1 338.6,144.2 	"/>
	<polygon class="st9" points="362.7,139.8 366.7,119 385.4,142.3 362,169.1 	"/>
	<path class="st5" d="M264,210.4c-1.8,0.7-45.8,40.4-46.8,39.7s-28.6-63.5-27.5-63.5s65.5-65.6,65.5-65.6"/>
</g>
</svg>
