<svg xmlns="http://www.w3.org/2000/svg" viewBox="0 0 788 455"><defs><style>.cls-1{fill:#f6af97;}.cls-2{fill:#a45f5e;}.cls-3,.cls-4{fill:none;}.cls-3{stroke:#000;stroke-miterlimit:10;stroke-width:3px;}.cls-5{fill:#36344d;}.cls-6{fill:#8e4917;}.cls-7{fill:#bb582c;}.cls-8{fill:#3157a2;}.cls-9{fill:#3488bd;}</style></defs><g id="Calque_1" data-name="Calque 1"><path class="cls-1" d="M129.36,301.38s-18.46-7.05-21.51-6.81-15.77,3.23-18.15,2.95S73.14,292.21,72.93,294s-.15,8.73-.15,8.73l11.4,5.6,14.75.26L80.67,322.37S53.3,336.22,51.48,336.63s1.07,8.91,1.07,8.91L87.22,330.7,54.9,356.08l6,7.66L95.23,336.8l-29.6,32.94,8.82,4.38,27.25-28.4-14.59,26s8,4,9.11,2,17-23.6,17-23.6L141,327.22l1.41-9.18Z"/><polygon points="236.43 369.71 236.53 369.67 236.43 369.62 236.43 369.71"/><polygon points="236.53 369.67 236.63 369.71 236.63 369.62 236.53 369.67"/><polygon points="236.43 369.71 236.53 369.67 236.43 369.62 236.43 369.71"/><polygon points="236.53 369.67 236.63 369.71 236.63 369.62 236.53 369.67"/><path class="cls-1" d="M522,134c-.61,38.39-26.21,33.17-36.86,42.29-12.58,10.77-8.27,50-17.19,64-2.45,3.84-11.35,10.1-15.79,9.08-12.52-2.87-24-30.73-34.77-37.73-6.33-4.12-23.58-3.62-30.19,0C376,217.8,365,246.5,352.45,249.37c-4.44,1-13.35-5.24-15.81-9.08-8.9-14-4.59-53.24-17.19-64-10.64-9.12-23,8.34-23.65-30.05-.41-26.59,26.77-47.07,26.77-47.07l35.17-22.42a31.33,31.33,0,0,0,7.09-4.82,27.49,27.49,0,0,0,2.29-2.29l.64-.71.05-.06c3.91-4.62,9.59-8.73,14.48-12.47,1.41-1.08-4.76-4.67-4.77-6.08l.16-.69H429v1c0,.33,0,.67,0,1v0c0,.65.09,1.3.15,1.95A28.64,28.64,0,0,0,444.8,75.71l40.53,20.1a27.41,27.41,0,0,0,3.16,1.33C495.16,99.52,522.39,110.65,522,134Z"/><path class="cls-2" d="M375.73,34.33l-.14,0C375.6,34.24,375.65,34.25,375.73,34.33Z"/><path class="cls-2" d="M430.16,58.42l-1,1.25C424,66,400.31,94.71,387.35,104c-3.19,2.29-5.73,3.39-7.19,2.69-6.77-3.26-14.85-35.1-14.85-35.1a.19.19,0,0,0,.08-.07,19.51,19.51,0,0,0,1.73-1.87c.33-.38.68-.82,1.06-1.32l.06-.08a53.23,53.23,0,0,0,6.65-15.16,27,27,0,0,0,.37-3.45h53.6v2.5l.15.76.14.67.94,4.57Z"/><path class="cls-1" d="M464.15,140.72c11.9,25,40.93,38.77,40.93,38.77s52.95,32.76,70.43,44c8.23,5.27,25.21,16.57,39-3.61h0c11.33-16.64-2.81-30.36-10.19-36.17-15-11.84-47.9-32.65-60.5-46.74-9.38-10.5-19.75-30.34-43.13-36.2,0,0-18.61-6.9-31.75,8.25l-.52.6a28.69,28.69,0,0,0-4.22,31.14Z"/><path class="cls-1" d="M600.45,185.91c-18.55-7.17-32.67,11.81-37.38,19s-10.68,23.93-13.63,32.14c-7.56,21-17.53,57.34-25.2,77.8-5,13.46-8.09,20.41-.34,25.92,7,5,16.12-5.74,19.73-9.92,14.85-17.19,44.3-50.41,56.84-70.9,5.15-8.42,14-26.39,16.11-36C622.52,197,605.85,188,600.45,185.91Z"/><path class="cls-3" d="M471.94,296.5c-.88-4-5.67-25.28-5.61-33.83.06-9.17,4-27.71,1.8-36.66-9.77-39.58-123.53-39.65-133.32,0-2.21,9,1.74,27.49,1.8,36.66.06,8.55-4.73,29.81-5.61,33.83"/><path class="cls-4" d="M330.78,323.11c.23-6.42,3.16-19.29,6.27-24.9,3.84-6.94,10.89-11.34,27.05-16.56,18.48-6,37.29-5,37.29-5s20.64-.94,39.13,5c16.16,5.22,23.2,9.62,27,16.56,3.11,5.61,6,18.48,6.28,24.9"/><path class="cls-1" d="M286.46,241.93c-9.71-15-32.39-8.32-40.5-5.45s-23.15,12.15-30.55,16.69c-18.94,11.63-75.52,47.87-96.36,54.09-14.58,4.36,7.52,25,7.52,25s15.52-9,25.68-12.62c21.37-7.58,52.09-11.54,87.87-22.82,9.4-3,27.21-12.24,34.87-18.27C296.4,261.67,289.28,246.29,286.46,241.93Z"/><path class="cls-1" d="M343.61,130.5c2.77,27.54-14.9,54.37-14.9,54.37S300.4,240.33,291.26,259c-4.31,8.78-13,27.24-35.19,17.1h0c-18.31-8.36-13.32-27.42-10-36.21,6.7-17.9,24-52.75,27.51-71.33,2.59-13.84,15.17-29.18,32.13-46.32,0,0-1.66-22.54,17.43-16.39l.75.24a28.67,28.67,0,0,1,19.75,24.44Z"/><path class="cls-1" d="M527.07,337.15c2,3.19,3.07,9-3,14.84,0,0-17.64,20.21-25.41,24.33-3.47,1.85-12.78,6.26-15.37,3.3-7.33-8.38-12.07-28.61-9.73-41.72.71-3.94,9.42-8.06,13.34-8.82,4.31-.84,12.95,2.62,17.34,2.78a67.32,67.32,0,0,0,7.18-.39C517.35,330.92,524.3,332.78,527.07,337.15Z"/><polygon class="cls-2" points="517.31 324.71 513.17 331.41 516.54 343.9 520.51 355.98 526.1 349.96 536.25 342.92 517.31 324.71"/><polygon class="cls-5" points="514.6 329.05 523.92 313.3 544.39 335.21 533.14 347.94 514.6 329.05"/></g><g id="Calque_5" data-name="Calque 5"><path class="cls-6" d="M375.59,34.31c0-.07.06-.06.14,0Zm3.49,4.93c-.35-.51-.76-1.14-1.17-1.77a21.61,21.61,0,0,1,1.67,1.79Zm-873.6,10.38h0"/><path class="cls-6" d="M375.73,34.33l-.14,0C375.6,34.24,375.65,34.25,375.73,34.33Z"/><path class="cls-6" d="M379.58,39.26l-.5,0c-.35-.51-.76-1.14-1.17-1.77A21.61,21.61,0,0,1,379.58,39.26Z"/></g><g id="Calque_7" data-name="Calque 7"><polygon points="241.38 367.89 241.48 367.85 241.38 367.8 241.38 367.89"/><polygon points="241.48 367.85 241.58 367.89 241.58 367.8 241.48 367.85"/><polygon points="241.38 367.89 241.48 367.85 241.38 367.8 241.38 367.89"/><polygon points="241.48 367.85 241.58 367.89 241.58 367.8 241.48 367.85"/><polygon points="236.72 369.26 236.82 369.22 236.72 369.17 236.72 369.26"/><polygon points="236.82 369.22 236.92 369.26 236.92 369.17 236.82 369.22"/><polygon points="236.72 369.26 236.82 369.22 236.72 369.17 236.72 369.26"/><polygon points="236.82 369.22 236.92 369.26 236.92 369.17 236.82 369.22"/><path class="cls-7" d="M388.69,338.23s-3-25.06-29.27-29C329.12,304.7,327.69,321,327.69,321"/><path class="cls-7" d="M412.52,338.23s-2.83-22.42,29.27-29C470.4,303.37,473.52,321,473.52,321"/><path class="cls-7" d="M403.17,330.44A11.26,11.26,0,0,0,391.78,319l-58.88.64a11.27,11.27,0,0,0-11.09,10.09l-1.12,10.63"/><line class="cls-7" x1="401.27" y1="331.42" x2="395.04" y2="330.97"/><polygon class="cls-8" points="320.36 340.78 321.95 318.28 479.7 318.75 479.1 351.59 320.36 340.78"/><path class="cls-9" d="M328.46,214l.91,43.07c-1.84,4-13.58,47.09-13.58,47.09-.75,3.83,5.26,14.11,6.16,14.14l157.54,12.34c1,0,8.45-20.11,8.45-20.11S474.6,258,474.6,258a1.67,1.67,0,0,1,0-.59l11.51-76.64a.53.53,0,0,1,.87-.32l14.44,12.74a16,16,0,0,0,23.09-2.11l35-44.61a10.28,10.28,0,0,0-2.22-14.8L515.66,102.8c2.82,2-6.89-4.81-7-4.86L459.89,81a1.63,1.63,0,0,0-1.38.08L439.46,91.31a65.06,65.06,0,0,1-62.6-.64L356.07,79a1.7,1.7,0,0,0-1.52-.06L297.7,105.73a1.62,1.62,0,0,0-.78.77l-13.4,27.44-.07.13-20.66,37.65a15.23,15.23,0,0,0,4.74,19.88l38.84,26.53a15.77,15.77,0,0,0,20.78-2.65Z"/><polygon class="cls-8" points="305.84 235.5 255.26 211.17 266.38 188.06 315.79 215.59 305.84 235.5"/><polygon class="cls-8" points="519.19 193.83 560.56 144.32 580.24 160.77 543.78 204.4 519.19 193.83"/></g></svg>