<svg xmlns="http://www.w3.org/2000/svg" viewBox="0 0 788 455"><defs><style>.cls-1{fill:#d38e72;}.cls-2{fill:#a45f5e;}.cls-3{fill:none;stroke:#000;stroke-miterlimit:10;stroke-width:3px;}.cls-4{fill:#4d313a;}.cls-5{fill:#f6af97;}.cls-6{fill:#473415;}.cls-7{fill:#d79072;}.cls-8{fill:#dcdcdc;}.cls-9{fill:#608b93;}.cls-10{fill:#29120e;}.cls-11{fill:#fff;}.cls-12{fill:#dddee0;}.cls-13{fill:#8e4917;}</style></defs><g id="Calque_5" data-name="Calque 5"><polygon points="191.4 387.86 191.5 387.82 191.4 387.77 191.4 387.86"/><polygon points="191.5 387.82 191.6 387.86 191.6 387.77 191.5 387.82"/><polygon points="191.4 387.86 191.5 387.82 191.4 387.77 191.4 387.86"/><polygon points="191.5 387.82 191.6 387.86 191.6 387.77 191.5 387.82"/><path class="cls-1" d="M330.21,59.59h53.62l0,2,.09,7.14a28.49,28.49,0,0,0,15.82,25.14L440.3,114a27.41,27.41,0,0,0,3.16,1.33c6.67,2.38,33.9,13.51,33.53,36.85-.6,38.39-26.2,33.17-36.86,42.29-12.58,10.77-8.27,50-17.18,64-2.45,3.84-11.36,10.1-15.8,9.08-12.51-2.87-24-30.73-34.77-37.73-6.33-4.12-23.57-3.62-30.19,0-11.25,6.16-22.27,34.86-34.77,37.73-4.44,1-13.35-5.24-15.8-9.08-8.91-14-4.6-53.24-17.19-64-10.65-9.12-36.25-3.9-36.86-42.29-.41-26.59,35-37.34,35-37.34l40.15-19.91A31.52,31.52,0,0,0,330,70.36a29.09,29.09,0,0,0,.23-4l-.05-6.53v-.27"/><path class="cls-2" d="M383.57,59.59v2l-10.9,12.08a29,29,0,0,1-36.8,5.2l-5.93-3.67.08-4.83.18-10.5v-.27Z"/><path class="cls-3" d="M417.38,144.59c-1.33,27.65,17.72,53.52,17.72,53.52s31.17,53.91,41.27,72c4.76,8.55,14.38,26.53,36,15.25h0c17.85-9.31,11.88-28.08,8.13-36.7-7.63-17.52-26.77-51.42-31.2-69.79-3.3-13.68-3.06-36.07-20.89-52.29,0,0-13.13-14.88-31.87-7.75l-.75.29a28.67,28.67,0,0,0-18.44,25.43Z"/><path class="cls-4" d="M398.45,260.58c16.16,5.22,23.2,9.63,27.05,16.56,3.11,5.62,6,18.48,6.27,24.9.54,15.07-7.77,52.94-21.93,65.58-14.4,12.86-84.8,12.86-99.2,0C296.48,355,288.17,317.11,288.71,302c.23-6.42,3.16-19.28,6.28-24.9,3.84-6.93,10.88-11.34,27-16.56,18.49-6,37.29-5,37.29-5S380,254.6,398.45,260.58Z"/><path class="cls-5" d="M168.68,253.14c-19.56,3.6-29.91-17.67-33.22-25.61S129.4,202,128,193.41c-3.53-22.07-6.6-59.59-10.34-81.12-2.46-14.16-4.16-21.56,4.47-25.54,7.85-3.62,14.77,8.64,17.55,13.41,11.41,19.65,34.19,57.75,42.71,80.21,3.5,9.23,8.85,28.52,9.15,38.38C192.42,246.34,174.37,252.09,168.68,253.14Z"/><path class="cls-3" d="M294.89,162.87C283,187.85,254,201.64,254,201.64s-53,32.76-70.43,44c-8.24,5.27-25.22,16.57-39-3.61h0c-11.32-16.64,2.82-30.36,10.19-36.17,15-11.84,47.91-32.65,60.5-46.74,9.38-10.5,19.75-30.34,43.14-36.2,0,0,18.61-6.9,31.75,8.25l.52.6a28.69,28.69,0,0,1,4.22,31.14Z"/><polygon class="cls-6" points="277.88 359.62 279.38 337.12 434.38 337.12 436.38 356.62 277.88 359.62"/><path class="cls-7" d="M523.24,253c-9-17.72-32.21-13-40.53-10.8s-23.92,10.69-31.6,14.84c-19.67,10.62-51.32,31-70.69,41.12-12.74,6.66-19.65,9.8-17.56,19.07,1.9,8.44,15.84,6.48,21.32,5.78,22.53-2.89,66.64-8,89.65-14.86,9.45-2.83,28-10.32,36-16.07C532.28,276,525.87,258.16,523.24,253Z"/><path class="cls-5" d="M134.78,89.36l-4.1-20.22-13-25.27s-4.54,3.34-4.94,5.06c-1.24,5.4,1.88,13.66,3.52,18.95.22.7-.6,4-1.21,4.39-2.5,1.7-7.27-2.56-7.27-2.56l10.36,17.8Z"/><path class="cls-5" d="M129.59,85.22l-16.25,13.7L81.25,66.76l-19.48-44s6.56-1.38,8.5-.49C80.34,26.88,90,49,97.08,57.48,104.73,66.66,129.59,85.22,129.59,85.22Z"/><ellipse class="cls-5" cx="122.85" cy="91.63" rx="12.15" ry="12.1" transform="translate(-22.46 42.91) rotate(-18.18)"/><path class="cls-8" d="M306.2,99.8c1.34-1.34,17.41-20.33,18.88-20.31.66,0,13.76,31.63,29,32.05,18.46.51,36.09-32.05,36.09-32.05l8.95,14,5,160.51-98,1.34Z"/><path class="cls-8" d="M121.28,152.3l-5.58-31s28-19.12,29.49-18.19,8.46,20.93,8.46,20.93Z"/><path class="cls-9" d="M346.71,128.12l18.27,0s14.23,67.74,13.57,69.79-9.3,53.37-9.17,54.61-12.58,16-12.58,16S344,250,343.36,248s-4.68-46.39-5.68-48S346.71,128.12,346.71,128.12Z"/><path class="cls-4" d="M444.37,324l17.86,88a4.12,4.12,0,0,1-3.58,4.92c-16.62,1.82-58,14-72.66,9.57-8.55-2.58-16.69-24.83-18.14-29.69a7.8,7.8,0,0,1-.62-2c-.55-15.5-6.79-169.82-4.13-191.85s22.17-89.8,27.12-111.9c.57-2.56,1.17-4.94,1.17-4.94l53.74,24.72.24.1,25.52,9.86a4.16,4.16,0,0,1,2,1.67L487,145.12a4.39,4.39,0,0,1,.39.82l39.3,112.16a4.13,4.13,0,0,1-2.15,5.1l-84,38.93a4.11,4.11,0,0,0-2.15,5.11l5.74,16.21A5.12,5.12,0,0,1,444.37,324Z"/><path class="cls-4" d="M323.18,85.5s29.53,101.37,29.53,116.88.32,182.88-7.46,192.11-20.43,27.09-34,27.09-46.58-7.89-46.58-7.89a12.24,12.24,0,0,1-9.87-14.9l15.81-86.94,5.54-54-9.28-60.2s-98.5,62.43-101.82,61.83c-21.11-3.77-30.27-26.39-30.27-26.39l-27-85.17s42.68-30.15,43.85-31c4-3,30.8,62.84,30.8,62.84l55.15-55.34Z"/><path class="cls-10" d="M322.12,81.75l-9.84,8.71L306.05,183l17.13,8.54v20.61s26,81.89,27.57,79.4,2-75.86,2-75.86V202.38l-15.1-65.49Z"/><path class="cls-9" d="M341.78,119.15c.92-1.76,6.74-13.22,8.89-15.3,1.69-1.65,11.75,0,11.75,0L371.37,118s-3.72,9.6-6.57,10.94c-1.49.7-8.81.41-17.23,0C345.29,128.85,342.61,119.83,341.78,119.15Z"/><path class="cls-10" d="M392.62,83.18l8.05,7.28,6.24,92.5-17.14,8.54v20.61s-26,81.89-27.57,79.4-2-75.86-2-75.86V202.38l15.1-65.49Z"/><path class="cls-11" d="M384.81,71.22l7.81,12L373.45,126s-7.76-18-11-22.12C361,102,384.81,71.22,384.81,71.22Z"/><path class="cls-12" d="M336.85,220.9l6.94,127.22a4.85,4.85,0,0,0,5.06,4.58l95.09-4.31a4.85,4.85,0,0,0,4.61-4.42l10.73-124.33a4.84,4.84,0,0,0-4.89-5.26l-112.76,1.41A4.84,4.84,0,0,0,336.85,220.9Z"/><path class="cls-11" d="M329.87,71.22l-7.75,10.53,18,44.22s7.06-18,11.8-22.66C353.61,101.68,329.87,71.22,329.87,71.22Z"/><polygon class="cls-5" points="379.39 299.12 359.83 285.59 337.61 280.14 340.56 289.01 350.75 293.71 354.87 300.05 341.16 300.44 340.85 290.27 334.5 289.38 323.18 303.39 327.59 333.55 346.94 340.46 381.11 323.78 390.99 320.65 411.35 315.66 394.26 294.71 385.4 298.23 379.39 299.12"/><path class="cls-8" d="M425.1,325.3l-31.37,2.19s-16.29-28.68-15.23-30,21.65-5.95,21.65-5.95Z"/><path class="cls-4" d="M390.48,292.65c2.67,4.22,25.49,56.88,27.35,54.77S516,289,516,289l.23-.14a21.06,21.06,0,0,0,10.15-17.52l.3-12.21S504.88,240,502.58,240s-39.29,9.66-42.67,9.26S390.48,292.65,390.48,292.65Z"/><circle class="cls-10" cx="120.38" cy="154.46" r="4.68"/><circle class="cls-10" cx="125.06" cy="169.82" r="4.68"/><circle class="cls-10" cx="439.63" cy="321.06" r="4.68"/><circle class="cls-10" cx="425.1" cy="330.42" r="4.68"/><path class="cls-13" d="M1250.29,24.31c0-.07.06-.06.14,0Zm3.49,4.93c-.35-.51-.76-1.14-1.17-1.77a21.61,21.61,0,0,1,1.67,1.79ZM380.18,39.62h0"/></g></svg>