<?xml version="1.0" encoding="utf-8"?>
<!-- Generator: Adobe Illustrator 26.0.0, SVG Export Plug-In . SVG Version: 6.00 Build 0)  -->
<svg version="1.1" id="Calque_1" xmlns="http://www.w3.org/2000/svg" xmlns:xlink="http://www.w3.org/1999/xlink" x="0px" y="0px"
	 viewBox="0 0 788 455" style="enable-background:new 0 0 788 455;" xml:space="preserve">
<style type="text/css">
	.st0{fill:#C78D71;}
	.st1{fill:#A45F5E;}
	.st2{fill:#C0272D;}
	.st3{fill:#FF921E;}
</style>
<g id="Calque_5">
	<path class="st0" d="M489.4,235.4c-0.6,38.4-13.2,39.2-23.9,48.3c-12.6,10.8-8.3,50-17.2,64c-2.5,3.8-11.4,10.1-15.8,9.1
		c-12.5-2.9-24-30.7-34.8-37.7c-6.3-4.1-23.6-3.6-30.2,0c-11.2,6.2-22.3,34.9-34.8,37.7c-4.4,1-13.4-5.2-15.8-9.1
		c-8.9-14-4.6-53.2-17.2-64c-10.6-9.1-20.2-6.9-20.9-45.3c-0.4-26.6,19-34.3,19-34.3l40.1-19.9c10.8-5.4,17.6-16.4,17.5-28.5
		l-0.1-15.7l0.8,0.1l25.8,2l26.9-2.1h0.1l0.2,14.9v3.2c0,0.3,0,0.7,0,1l0,0c0.5,10.3,6.6,19.5,15.8,24.1l40.5,20.1
		c1,0.5,2.1,1,3.2,1.3C475.5,206.9,489.8,212.1,489.4,235.4z"/>
	<polygon class="st1" points="410,196.6 382.5,229.1 355.4,196.6 356.3,140 356.3,139.9 409.1,139.9 409.1,139.9 409.3,154.8 
		409.4,159 409.4,159 	"/>
	<path class="st0" d="M440.2,211.3c22.2-16.6,54.3-15.2,54.3-15.2s62.1-4.3,82.8-6.1c9.8-0.8,30-2.9,32.8,21.4l0,0
		c2.3,20-16.6,25.5-25.9,27.2c-18.8,3.5-57.6,6.5-75.3,13.1c-13.2,4.9-31.6,17.6-55,11.9c0,0-19.7-2.6-24.2-22.1l-0.2-0.8
		C426.9,229.7,431.1,218.1,440.2,211.3L440.2,211.3z"/>
	<path class="st0" d="M572.9,234.3c-17.9-8.7-13.7-31.9-11.6-40.3s10.2-24.1,14.2-31.9c10.2-19.9,29.9-51.9,39.7-71.5
		c6.4-12.9,9.4-19.8,18.7-17.9c8.5,1.7,6.8,15.7,6.2,21.2c-2.4,22.6-6.6,66.8-13,89.9c-2.6,9.5-9.7,28.2-15.3,36.4
		C596,242.9,578.1,236.8,572.9,234.3z"/>
	<polygon class="st2" points="303.3,448.9 304.8,426.4 459.8,426.4 461.8,445.9 	"/>
	<path class="st0" d="M323.5,213.5c-22.2-16.6-54.3-15.2-54.3-15.2s-62.1-4.3-82.8-6c-9.8-0.8-30-2.9-32.8,21.4l0,0
		c-2.3,20,16.6,25.6,25.9,27.2c18.8,3.5,57.6,6.6,75.3,13.1c13.2,4.9,31.6,17.6,55,11.9c0,0,19.7-2.6,24.2-22.1l0.2-0.8
		C336.8,232,332.6,220.4,323.5,213.5L323.5,213.5z"/>
	<path class="st0" d="M190.8,236.6c17.9-8.7,13.7-31.9,11.6-40.3s-10.2-24.1-14.2-31.9c-10.2-19.9-29.9-51.9-39.7-71.5
		c-6.4-12.8-9.4-19.8-18.7-17.9c-8.5,1.7-6.8,15.7-6.2,21.2c2.4,22.6,6.6,66.8,13,89.9c2.6,9.5,9.7,28.2,15.3,36.4
		C167.7,245.1,185.6,239.1,190.8,236.6z"/>
	<path class="st0" d="M121.2,86.3c-1.9-4.1-2.9-8.6-3.2-13.1l-1.4-24.1c0-2,0.7-4,2-5.5l0,0c2-2.1,4.7-3.4,7.7-3.4l20.7-3.2
		c3.4-0.1,5.1,0.8,6.6,3.6l-0.6,6.5c0,0,1.9,8.9,2,6.2c0.4-9.4,1.9-15.7,10-14.8l-1.4,15.5c0.1,1.3-1.2,3.8-1.8,5
		c-2,3.5-3.4,11.5-5.4,14.2c0,0-10,10.2-11.1,12.7c-1.1,2.6,1.2,6,1.2,6l0,0c-0.7,5.1-5.4,8.8-10.5,8.1c-0.4-0.1-0.9-0.1-1.3-0.3
		l-8.8-2.5L121.2,86.3z"/>
	<path class="st1" d="M153.6,40.7l-1.3,12.6l-7.9,13.1l-8-1.3l1.3,1c2.7,2.2,4.1,5.6,3.7,9.1l-0.5,4.3l4.9-9.8l2.6-1.8l7.1-14.8
		l-0.3-6.6L153.6,40.7z"/>
	<path class="st0" d="M640.8,86.3c1.8-4.1,2.9-8.6,3.1-13.1l1.4-24.1c0-2-0.7-4-2-5.5l0,0c-2-2.1-4.7-3.4-7.7-3.4L615,37.1
		c-3.4-0.1-5.1,0.8-6.6,3.6l0.5,6.5c0,0-1.9,8.9-2,6.2c-0.4-9.4-1.9-15.7-10-14.8l1.5,15.5c-0.1,1.3,1.2,3.8,1.8,5
		c2,3.5,3.4,11.5,5.5,14.2c0,0,10,10.2,11.1,12.7c1.1,2.6-1.2,6-1.2,6l0,0c0.7,5.1,5.3,8.7,10.5,8.1c0.5-0.1,0.9-0.1,1.3-0.3
		l8.8-2.5L640.8,86.3z"/>
	<path class="st1" d="M608.4,40.7l1.3,12.6l7.9,13.1l8-1.3l-1.3,1c-2.7,2.2-4.1,5.6-3.7,9.1l0.5,4.3l-4.9-9.8l-2.6-1.8L606.5,53
		l0.3-6.6L608.4,40.7z"/>
	<path class="st3" d="M251.1,192.1l26,82.1c0,0.1,0.1,0.2,0.1,0.3c0.8,3.1,12.8,51.8,14.7,69.7c2.1,20,6.5,81.5,6.8,86.3
		c0,0.2,0,0.4,0,0.6l-1.1,21.6c-0.1,2.8,2,5.1,4.7,5.2c0,0,0.1,0,0.1,0l159.8,4.1c2.8,0.1,5.1-2.1,5.1-4.9c0-0.1,0-0.3,0-0.4
		c-0.8-16.5-3-67.3-0.2-102.1c1.4-18.4,14.1-72.1,14.9-75.5c0-0.1,0.1-0.2,0.1-0.3l27.1-86.9c0.8-2.6-0.7-5.4-3.3-6.3
		c-0.4-0.1-0.8-0.2-1.3-0.2l-60.6-2.6c-0.9,0-1.8,0.2-2.6,0.6L386,213.8c-1.6,0.9-3.5,0.8-5-0.1l-55.3-32.9c-0.9-0.5-1.9-0.8-3-0.7
		l-67.3,5.4c-2.7,0.3-4.8,2.7-4.5,5.5C250.9,191.4,251,191.7,251.1,192.1z"/>
</g>
</svg>
