<?xml version="1.0" encoding="utf-8"?>
<!-- Generator: Adobe Illustrator 26.0.1, SVG Export Plug-In . SVG Version: 6.00 Build 0)  -->
<svg version="1.1" id="Calque_1" xmlns="http://www.w3.org/2000/svg" xmlns:xlink="http://www.w3.org/1999/xlink" x="0px" y="0px"
	 viewBox="0 0 788 1005" style="enable-background:new 0 0 788 1005;" xml:space="preserve">
<style type="text/css">
	.st0{fill:#84331E;}
	.st1{fill:#C78D71;}
	.st2{fill:#A45F5E;}
	.st3{fill:none;stroke:#000000;stroke-width:3;stroke-miterlimit:10;}
	.st4{fill:#473415;}
	.st5{fill:none;stroke:#4F3742;stroke-miterlimit:10;}
	.st6{fill:#72271F;}
</style>
<g id="Calque_1_00000047782553054024912730000005402888483942833825_">
	<path class="st0" d="M323.8,176.6c0-24.9,33.1-12.5,73.8-12.5s73.7-12.5,73.7,12.5s-37.6,49.6-78.3,49.6S323.8,201.5,323.8,176.6z"
		/>
	<path class="st1" d="M124.1,410.3c0,0-18.5-7-21.5-6.8s-15.8,3.2-18.2,3s-16.6-5.4-16.8-3.5s-0.2,8.7-0.2,8.7l11.4,5.6l14.8,0.3
		l-18.2,13.8c0,0-27.4,13.8-29.2,14.2s1.1,8.9,1.1,8.9l34.7-14.8L49.6,465l6,7.7l34.3-26.9l-29.6,33l8.8,4.4l27.2-28.4l-14.6,26
		c0,0,8,4,9.1,2s17-23.6,17-23.6l27.8-22.9l1.4-9.2L124.1,410.3z"/>
	<polygon points="231.1,478.7 231.2,478.6 231.1,478.6 	"/>
	<polygon points="231.2,478.6 231.3,478.7 231.3,478.6 	"/>
	<polygon points="231.1,478.7 231.2,478.6 231.1,478.6 	"/>
	<polygon points="231.2,478.6 231.3,478.7 231.3,478.6 	"/>
	<path class="st1" d="M516.7,243c-0.6,38.4-26.2,33.2-36.9,42.3c-12.6,10.8-8.3,50-17.2,64c-2.5,3.8-11.4,10.1-15.8,9.1
		c-12.5-2.9-24-30.7-34.8-37.7c-6.3-4.1-23.6-3.6-30.2,0c-11.2,6.2-22.3,34.9-34.8,37.7c-4.4,1-13.4-5.2-15.8-9.1
		c-8.9-14-4.6-53.2-17.2-64c-10.6-9.1-36.2-3.9-36.9-42.3c-0.4-26.6,35-37.3,35-37.3l40.1-19.9c2.6-1.3,5-2.9,7.1-4.8
		c0.8-0.7,1.6-1.5,2.3-2.3l0.6-0.7v-0.1c3.9-4.7,6.5-10.4,7.2-16.4c0.2-1.4,0.3-2.8,0.2-4.2v-2.8v-4.5h53.6l0.1,5v1.5v3.2
		c0,0.3,0,0.7,0,1l0,0c0,0.6,0.1,1.3,0.2,1.9c0.2,1.5,0.5,3.1,0.9,4.6c2.2,7.7,7.6,14,14.7,17.6l40.6,20c1,0.5,2.1,1,3.2,1.3
		C489.9,208.5,517.1,219.6,516.7,243z"/>
	<path class="st2" d="M424.9,167.4l-1,1.2c-5.2,6.3-28.8,35-41.8,44.3c-3.2,2.3-5.7,3.4-7.2,2.7c-6.8-3.3-14.8-35.1-14.8-35.1
		l0.1-0.1c0.6-0.6,1.2-1.2,1.7-1.9c0.3-0.4,0.7-0.8,1-1.3l0.1-0.1c3.3-4.5,5.5-9.7,6.7-15.2c0-0.2,0.1-0.4,0.1-0.6
		c0.3-1.4,0.5-3,0.7-4.8c0.1-0.7,0.1-1.4,0.2-2.2c0.1-1.4,0.2-2.9,0.3-4.5h52.7v0.2v4.3v6.7l0.1,0.8l0.1,0.7l0.9,4.6L424.9,167.4z"
		/>
	<path class="st3" d="M466.6,405.5c-0.9-4-5.7-25.3-5.6-33.8c0.1-9.2,4-27.7,1.8-36.7c-9.8-39.6-123.5-39.6-133.3,0
		c-2.2,9,1.7,27.5,1.8,36.7c0.1,8.5-4.7,29.8-5.6,33.8c-11,50.3,70.4,73.4,70.4,73.4S477.7,455.8,466.6,405.5z"/>
	<path class="st1" d="M281.2,350.9c-9.7-15-32.4-8.3-40.5-5.5s-23.1,12.1-30.6,16.7c-18.9,11.6-75.5,47.9-96.4,54.1
		c-14.6,4.4,7.5,25,7.5,25s15.5-9,25.7-12.6c21.4-7.6,52.1-11.5,87.9-22.8c9.4-3,27.2-12.2,34.9-18.3
		C291.1,370.6,284,355.2,281.2,350.9z"/>
	<path class="st3" d="M338.3,239.5c2.8,27.5-14.9,54.4-14.9,54.4s-28.3,55.5-37.5,74.1c-4.3,8.8-13,27.2-35.2,17.1l0,0
		c-18.3-8.4-13.3-27.4-10-36.2c6.7-17.9,24-52.8,27.5-71.3c2.6-13.8,1.2-36.2,18.1-53.3c0,0,12.3-15.5,31.4-9.4l0.8,0.2
		C329.5,218.5,337.2,228.1,338.3,239.5L338.3,239.5z"/>
	<path class="st1" d="M672.7,410.3c0,0,18.5-7,21.5-6.8s15.8,3.2,18.2,3s16.5-5.3,16.8-3.5s0.1,8.7,0.1,8.7l-11.4,5.6l-14.8,0.3
		l18.2,13.8c0,0,27.4,13.8,29.2,14.2s-1.1,8.9-1.1,8.9l-34.7-14.8l32.3,25.3l-6,7.7l-34.3-26.9l29.6,32.9l-8.8,4.4l-27.2-28.4
		l14.6,26c0,0-8,4-9.1,2s-17-23.6-17-23.6L661,436.2l-1.4-9.2L672.7,410.3z"/>
	<path class="st1" d="M515.6,350.9c9.7-15,32.4-8.3,40.5-5.5s23.2,12.1,30.5,16.7c19,11.6,75.5,47.9,96.4,54.1
		c14.6,4.4-7.5,25-7.5,25s-15.5-9-25.7-12.6c-21.4-7.6-52.1-11.6-87.9-22.9c-9.4-3-27.2-12.2-34.9-18.3
		C505.6,370.6,512.8,355.2,515.6,350.9z"/>
	<path class="st3" d="M458.4,239.5c-2.8,27.5,14.9,54.4,14.9,54.4s28.3,55.5,37.4,74.1c4.3,8.8,13,27.2,35.2,17.1l0,0
		c18.3-8.4,13.3-27.4,10-36.2c-6.7-17.9-24-52.8-27.5-71.3c-2.6-13.8-1.2-36.2-18.1-53.3c0,0-12.3-15.5-31.4-9.4l-0.8,0.2
		C467.3,218.5,459.5,228.1,458.4,239.5L458.4,239.5z"/>
</g>
<g id="Calque_7">
	<polygon class="st4" points="316.7,451.3 318.2,428.8 473.2,428.8 475.2,448.3 	"/>
	<polygon class="st5" points="394.6,489.9 389.6,449.9 404.6,449.9 403.6,482.1 	"/>
	<polygon class="st0" points="172.4,382 180.5,437.2 192.4,442.9 287.4,386.8 303.1,350.2 308.2,391.6 304.6,425.6 313.6,481 
		479.5,481 490.4,430.9 490.4,389 487.5,351.5 517.5,398.9 594.4,440 616,439.6 639.3,393.1 636.8,385.2 569.3,347.6 520.3,220.2 
		454,187.3 402.8,214.7 350.1,185.1 286,213.5 270.1,233.4 234.4,340.7 175.9,374.7 	"/>
	<path class="st6" d="M328.6,194.6c0,0,45.7,44.5,67.6,49.2c0,0-26.3,15.4-46.3,5s-37.6-47.3-36.7-47.7S328.6,194.6,328.6,194.6z"/>
	<path class="st6" d="M172.5,382.8c-1,0-25.2,14.8-25.2,14.8s4,32.8,5,33s25.2-3.2,26.5-4.5L172.5,382.8z"/>
	<path class="st6" d="M639.2,393.4c1,0,20.4,9,20.5,10.6S648,432.5,648,432.5l-26.6-3.7L639.2,393.4z"/>
	<polygon class="st6" points="485.5,489.9 305.1,485.9 309.2,454.2 483.5,458.6 	"/>
</g>
</svg>
