<?xml version="1.0" encoding="utf-8"?>
<!-- Generator: Adobe Illustrator 26.0.0, SVG Export Plug-In . SVG Version: 6.00 Build 0)  -->
<svg version="1.1" id="Calque_1" xmlns="http://www.w3.org/2000/svg" xmlns:xlink="http://www.w3.org/1999/xlink" x="0px" y="0px"
	 viewBox="0 0 788 455" style="enable-background:new 0 0 788 455;" xml:space="preserve">
<style type="text/css">
	.st0{fill:#5E573F;}
	.st1{fill:#C78D71;}
	.st2{fill:#A45F5E;}
	.st3{fill:none;stroke:#000000;stroke-width:3;stroke-miterlimit:10;}
	.st4{fill:#473415;}
	.st5{fill:none;stroke:#4F3742;stroke-miterlimit:10;}
	.st6{fill:#4A4532;}
</style>
<g id="Calque_1_00000066484948535861612330000008147283952304787377_">
	<path class="st0" d="M341.6,72.1c0-24.9,33.1-12.5,73.8-12.5s73.7-12.5,73.7,12.5s-37.6,49.6-78.3,49.6S341.6,97.1,341.6,72.1z"/>
	<path class="st1" d="M135,115.2l-15.2-13.9L94.3,88.7c0,0-1.7,5.4-1,7c2.2,5.1,9.6,9.9,14,13.2c0.6,0.4,1.9,3.6,1.6,4.3
		c-1,2.8-7.4,2.2-7.4,2.2l18.9,8.2L135,115.2z"/>
	<path class="st1" d="M128.4,115l-5,20.7l-44.9-7l-41.7-24c0,0,4.5-5,6.6-5.4c10.8-2.2,31.7,9.9,42.4,12.6
		C97.4,114.7,128.4,115,128.4,115z"/>
	
		<ellipse transform="matrix(0.5823 -0.813 0.813 0.5823 -47.9789 154.8935)" class="st1" cx="126.7" cy="124.1" rx="12.2" ry="12.1"/>
	<path class="st1" d="M533.1,140c-0.6,38.4-26.2,33.2-36.9,42.3c-12.6,10.8-8.3,50-17.2,64c-2.5,3.8-11.4,10.1-15.8,9.1
		c-12.5-2.9-24-30.7-34.8-37.7c-6.3-4.1-23.6-3.6-30.2,0c-11.3,6.2-22.3,34.9-34.8,37.8c-4.4,1-13.4-5.2-15.8-9.1
		c-8.9-14-4.6-53.2-17.2-64c-10.6-9.1-36.2-3.9-36.9-42.3c-0.4-26.6,35-37.3,35-37.3l40.1-19.9c2.6-1.3,5-2.9,7.1-4.8
		c0.8-0.7,1.6-1.5,2.3-2.3l0.6-0.7l0-0.1c3.9-4.7,6.5-10.4,7.2-16.4c0.2-1.4,0.3-2.8,0.2-4.2v-2.8v-4.5H440l0.1,5v1.5v3.2
		c0,0.3,0,0.7,0,1l0,0c0,0.7,0.1,1.3,0.2,2c0.2,1.5,0.5,3.1,0.9,4.6c2.2,7.7,7.6,14,14.7,17.6l40.5,20.1c1,0.5,2.1,1,3.2,1.3
		C506.2,105.6,533.4,116.7,533.1,140z"/>
	<path class="st2" d="M441.2,64.5l-1,1.2c-5.2,6.3-28.8,35-41.8,44.3c-3.2,2.3-5.7,3.4-7.2,2.7c-6.8-3.3-14.8-35.1-14.8-35.1
		l0.1-0.1c0.6-0.6,1.2-1.2,1.7-1.9c0.3-0.4,0.7-0.8,1-1.3l0.1-0.1c3.3-4.5,5.6-9.7,6.7-15.1c0-0.2,0.1-0.4,0.1-0.6
		c0.3-1.4,0.5-3,0.7-4.8c0.1-0.7,0.1-1.5,0.2-2.2c0.1-1.4,0.2-2.9,0.3-4.5h52.7v0.2v4.3v6.7l0.1,0.8l0.1,0.7l0.9,4.6L441.2,64.5z"/>
	<path class="st3" d="M483,302.5c-0.9-4-5.7-25.3-5.6-33.8c0.1-9.2,4-27.7,1.8-36.7c-9.8-39.6-123.5-39.6-133.3,0
		c-2.2,8.9,1.8,27.5,1.8,36.7c0,8.5-4.7,29.8-5.6,33.8c-11,50.3,70.4,73.4,70.4,73.4S494,352.9,483,302.5z"/>
	<path class="st1" d="M250.1,244.7c11-14.1-2.9-33.3-8.2-40s-19.1-17.9-25.9-23.3c-17.2-14-68.2-48.5-81-66.1
		c-8.9-12.3-23,8.4-23,8.4s13.6,11.7,20.4,20.1c14.2,17.6,28.1,45.3,50.6,75.4c5.9,7.9,20.5,21.6,28.8,26.9
		C234.8,260.6,246.9,248.8,250.1,244.7z"/>
	<path class="st1" d="M352.6,147c-8.5,26.3-35.5,43.8-35.5,43.8s-48.2,39.4-64.1,52.8c-7.5,6.3-22.8,19.7-39.1,1.5l0,0
		c-13.4-15-1.2-30.5,5.4-37.2c13.3-13.7,43.2-38.6,53.9-54.2c7.9-11.6,15.6-32.7,38-41.5c0,0,17.5-9.3,32.6,4l0.6,0.5
		C352.9,124.2,356.1,136.1,352.6,147z"/>
	<path class="st1" d="M475.8,137.1c-1.2,27.7,17.9,53.5,17.9,53.5s31.3,53.8,41.5,71.9c4.8,8.5,14.5,26.5,36.1,15.1l0,0
		c17.8-9.4,11.8-28.1,8-36.7c-7.7-17.5-26.9-51.3-31.4-69.7c-3.3-13.7-3.2-36.1-21-52.2c0,0-13.2-14.8-31.9-7.7l-0.7,0.3
		C483.6,115.7,476.4,125.7,475.8,137.1L475.8,137.1z"/>
</g>
<g id="Calque_7">
	<polygon points="248,375.1 248.1,375.1 248,375 	"/>
	<polygon points="248.1,375.1 248.2,375.1 248.2,375 	"/>
	<polygon points="248,375.1 248.1,375.1 248,375 	"/>
	<polygon points="248.1,375.1 248.2,375.1 248.2,375 	"/>
	<path class="st3" d="M483.5,301.9c-0.9-4-5.7-25.3-5.6-33.8c0.1-9.2,4-27.7,1.8-36.7c-9.8-39.6-123.5-39.6-133.3,0
		c-2.2,8.9,1.8,27.5,1.8,36.7c0,8.5-4.7,29.8-5.6,33.8c-11,50.3,70.4,73.4,70.4,73.4S494.6,352.2,483.5,301.9z"/>
	<polygon class="st4" points="334.5,346.9 336,324.4 491,324.4 493,343.9 	"/>
	<polygon class="st5" points="412.4,385.4 407.4,345.4 422.4,345.4 421.4,377.7 	"/>
	<path class="st0" d="M318.2,97.8c-2.5,4.8,9.6,83.4,9.6,83.4l-16.3,173.2L327,371l-0.1,27H497l-0.6-23l10.5-22.7L491,189.4
		l14.9-90.5l-50-17.2l-31.1,37.7l-26.9-2.2l-22-39.3L318.2,97.8z"/>
	<path class="st1" d="M578.1,264.2c2.8-17.2-16.2-30.4-23.3-34.8s-22.7-10-30.4-12.7c-19.6-7.1-52.9-16.4-72-23.6
		c-12.6-4.7-19.2-7.6-22.5-0.4c-3,6.5,7.9,15,12.2,18.3c17.6,13.8,51.8,41.2,71.9,52.9c8.2,4.8,25.4,13,34.2,15
		C572.6,284.6,577.3,269.2,578.1,264.2z"/>
	<path class="st1" d="M470.1,201.5l-10.5-5.7c0,0-20.4-22.7-21.3-23.6s-16.2-13.7-17.3-14.8s-8.6-10.9-8.6-10.9l-4.8,9.6l7.8,11.4
		l9.3,9.2l-23.7-4.4c0,0-35.7-10.4-36.3-9.2s-1.5,8.1-0.3,8.7s34.8,11.3,34.8,11.3s-42.5-5.9-42.9-3.8s-0.6,9.6,1.2,9.6
		s38,3.8,38,3.8s-38.6,2.8-38,4s3,8.4,3,8.4l37.8-1.3l-26.6,8.8c0,0,4.5,7.5,5.7,7.5s30.5-8.5,30.5-8.5s29.6,3.1,31.2,2.3
		c4.4-2.2,14.4,4.2,14.4,4.2L470.1,201.5z"/>
	<path class="st6" d="M346.7,92.4c0,0,45.4,42.2,67.2,46.9c0,0-26.3,15.4-46.3,5s-38.4-46.9-37.6-47.3S346.7,92.4,346.7,92.4z"/>
	<rect x="327" y="371" class="st6" width="170" height="27"/>
</g>
</svg>
