<svg xmlns="http://www.w3.org/2000/svg" viewBox="0 0 788 455"><defs><style>.cls-1{fill:#f6af97;}.cls-2{fill:#a45f5e;}.cls-3,.cls-5{fill:none;}.cls-4{fill:#473415;}.cls-5{stroke:#000;stroke-miterlimit:10;stroke-width:3px;}.cls-6{fill:#a2896d;}.cls-7{fill:#4a330f;}.cls-8{fill:#3e322e;}.cls-9{fill:#574640;}.cls-10{fill:#cbae84;}</style></defs><g id="Calque_5" data-name="Calque 5"><path class="cls-1" d="M372.38,229.79c10.75,7,22.27,34.86,34.77,37.73,4.44,1,13.35-5.24,15.8-9.08,8.91-14,4.6-53.24,17.19-64,10.65-9.12,36.25-3.9,36.85-42.29.37-23.34-25-29.67-31.64-32-1.09-.38-8-2.66-9-3.17L399.77,93.85A28.46,28.46,0,0,1,384,68.72l-.23-18.06-27,2.07-26.62-2.07.11,15.73a31.55,31.55,0,0,1-17.54,28.5L272.56,114.8s-35.4,10.74-35,37.34c.61,38.39,26.21,33.17,36.86,42.29,12.59,10.77,8.28,50,17.19,64,2.45,3.84,11.36,10.1,15.8,9.08,12.5-2.87,23.52-31.57,34.77-37.73C348.81,226.17,366.06,225.67,372.38,229.79Z"/><path class="cls-2" d="M385.13,76.57l-1,1.19c-6.3,7.74-41.66,50.63-49,47.06-2.2-1.06-4.53-5.13-6.69-10.15h0c-4.47-10.43-8.15-24.94-8.15-24.94a18.08,18.08,0,0,0,1.76-1.88l.05-.06a38.48,38.48,0,0,0,7.77-16.56c0-.2.09-.4.12-.61a0,0,0,0,0,0,0c.19-1,.37-2.18.51-3.45v0c.51-4.45.76-10.3.86-16.33v-.1h52.38l0,5.24v.39l0,6.49v1.53l0,6,.12.56v0l.17.85.93,4.57h0Z"/><path class="cls-3" d="M426.92,314.65c-.88-4-5.67-25.28-5.62-33.83.06-9.17,4-27.71,1.81-36.66-9.77-39.58-123.54-39.65-133.33,0-2.21,9,1.75,27.49,1.81,36.66.05,8.55-4.74,29.81-5.62,33.83C274.94,365,356.32,388,356.32,388S438,365,426.92,314.65Z"/><polygon class="cls-4" points="277.88 359.62 279.38 337.12 434.38 337.12 436.38 356.62 277.88 359.62"/><path class="cls-5" d="M424.35,150c-6.44,26.92,7.47,55.88,7.47,55.88s20.6,58.76,27.16,78.45c3.09,9.28,9.2,28.74,32.57,21.68h0c19.27-5.83,16.89-25.38,14.81-34.54-4.24-18.64-16.75-55.5-17.69-74.38-.7-14.06,3.7-36-10.8-55.26,0,0-10.14-17.07-29.89-13.54l-.78.14A28.69,28.69,0,0,0,424.35,150Z"/><path class="cls-6" d="M394.89,100.09s53.83,19,70.12,28.69c28.64,17-18,75-18,75l-10.27,65,5,67.19-7.7,11.78-153.26.79-8.3-11.88.6-64.78s-5.28-50.71-15.89-63c-23.82-27.62-1.24-86.22-1.24-86.22L319.71,100s16.9,39.32,39.91,37.17C385.33,134.77,394.89,100.09,394.89,100.09Z"/><polygon class="cls-7" points="277.79 358.84 279.29 336.34 434.29 336.34 436.29 355.84 277.79 358.84"/><path class="cls-1" d="M401.8,379.78l39.77-17.5,22.77,23.28-2.57,10.49-12,12s-22.7-19.28-22.7-21-17.35,4.28-17.35,4.28Z"/><path class="cls-1" d="M314.34,372.78l-38.76-16.5L251.8,378.56l2.57,10.49,12,12s22.7-19.28,22.7-21,17.35,4.28,17.35,4.28Z"/><polygon class="cls-8" points="480.8 135.84 501.83 191.79 510.45 300.76 464.99 386.99 435.2 357.99 463.42 283.51 457.93 205.12 480.8 135.84"/><polygon class="cls-9" points="392.08 87.14 400.31 207.47 400.31 376.41 459.11 356.42 468.12 204.34 480.58 135.05 392.08 87.14"/><polygon class="cls-8" points="429.78 115.37 419.7 136.14 407.36 134.29 396.67 152.59 392.14 87.61 412.71 107.76 429.78 115.37"/><polygon class="cls-8" points="233.74 135.84 215.71 186.79 207.08 295.76 252.55 381.99 282.34 352.99 254.12 278.51 259.61 200.12 233.74 135.84"/><polygon class="cls-9" points="325.45 82.14 317.22 202.47 317.22 371.41 258.43 351.42 249.41 199.34 232.95 135.05 325.45 82.14"/><path class="cls-10" d="M384.09,76.36l-.3-13.58s16,.4,17,2,34.42,43,34.42,43l-5.42,37-33.11,7.75,33.11,22.19s-29,74.85-29.47,72.68-15-123.79-14.41-127.36S384.09,76.36,384.09,76.36Z"/><path class="cls-10" d="M330.31,76.4l.3-13.58s-16,.4-17,2-34.42,43-34.42,43l5.42,37,33.11,7.75-33.11,22.19s32.13,69.69,32.6,67.51,11.9-118.62,11.28-122.19S330.31,76.4,330.31,76.4Z"/></g></svg>