<?xml version="1.0" encoding="utf-8"?>
<!-- Generator: Adobe Illustrator 26.0.1, SVG Export Plug-In . SVG Version: 6.00 Build 0)  -->
<svg version="1.1" id="Calque_1" xmlns="http://www.w3.org/2000/svg" xmlns:xlink="http://www.w3.org/1999/xlink" x="0px" y="0px"
	 viewBox="0 0 788 1005" style="enable-background:new 0 0 788 1005;" xml:space="preserve">
<style type="text/css">
	.st0{fill:#5E573F;}
	.st1{fill:#C78D71;}
	.st2{fill:#A45F5E;}
	.st3{fill:none;stroke:#000000;stroke-width:3;stroke-miterlimit:10;}
	.st4{fill:#473415;}
	.st5{fill:none;stroke:#4F3742;stroke-miterlimit:10;}
	.st6{fill:#4A4532;}
</style>
<g id="Calque_1_00000021087356016277845610000007395251188146047147_">
	<path class="st0" d="M323.8,176.6c0-24.9,33.1-12.5,73.8-12.5s73.7-12.5,73.7,12.5s-37.6,49.6-78.3,49.6S323.8,201.5,323.8,176.6z"
		/>
	<path class="st1" d="M117.2,219.7L102,205.8l-25.4-12.7c0,0-1.7,5.4-1,7c2.2,5.1,9.6,9.9,14,13.2c0.6,0.4,1.9,3.6,1.6,4.2
		c-1,2.9-7.4,2.2-7.4,2.2l18.9,8.2L117.2,219.7z"/>
	<path class="st1" d="M110.6,219.4l-5,20.6l-44.9-7l-41.7-24c0,0,4.5-5,6.6-5.4c10.9-2.2,31.7,9.9,42.5,12.6
		C79.6,219.1,110.6,219.4,110.6,219.4z"/>
	
		<ellipse transform="matrix(0.5823 -0.813 0.813 0.5823 -140.341 184.0439)" class="st1" cx="108.9" cy="228.6" rx="12.2" ry="12.1"/>
	<path class="st1" d="M515.3,244.5c-0.6,38.4-26.2,33.2-36.9,42.3c-12.6,10.8-8.3,50-17.2,64c-2.5,3.8-11.4,10.1-15.8,9.1
		c-12.5-2.9-24-30.7-34.8-37.7c-6.3-4.1-23.6-3.6-30.2,0c-11.2,6.2-22.3,34.9-34.8,37.7c-4.4,1-13.4-5.2-15.8-9.1
		c-8.9-14-4.6-53.2-17.2-64c-10.6-9.1-36.2-3.9-36.9-42.3c-0.4-26.6,35-37.3,35-37.3l40.1-19.9c2.6-1.3,5-2.9,7.1-4.8
		c0.8-0.7,1.6-1.5,2.3-2.3l0.6-0.7l0-0.1c3.9-4.7,6.5-10.4,7.2-16.4c0.2-1.4,0.3-2.8,0.2-4.2v-2.8v-4.5h53.6l0.1,5v1.5v3.2
		c0,0.3,0,0.7,0,1l0,0c0,0.6,0.1,1.3,0.2,1.9c0.2,1.5,0.5,3.1,0.9,4.6c2.2,7.7,7.6,14,14.7,17.6l40.5,20.1c1,0.5,2.1,1,3.2,1.3
		C488.4,210,515.6,221.1,515.3,244.5z"/>
	<path class="st2" d="M423.4,168.9l-1,1.2c-5.2,6.3-28.8,35-41.8,44.3c-3.2,2.3-5.7,3.4-7.2,2.7c-6.8-3.3-14.8-35.1-14.8-35.1
		l0.1-0.1c0.6-0.6,1.2-1.2,1.7-1.9c0.3-0.4,0.7-0.8,1-1.3l0.1-0.1c3.3-4.5,5.5-9.7,6.7-15.2c0-0.2,0.1-0.4,0.1-0.6
		c0.3-1.4,0.5-3,0.7-4.8c0.1-0.7,0.1-1.4,0.2-2.2c0.1-1.4,0.2-2.9,0.3-4.5h52.7v0.2v4.3v6.7l0.1,0.8l0.1,0.7l0.9,4.6L423.4,168.9z"
		/>
	<path class="st3" d="M465.2,407c-0.9-4-5.7-25.3-5.6-33.8c0.1-9.2,4-27.7,1.8-36.6c-9.8-39.6-123.5-39.6-133.3,0
		c-2.2,9,1.7,27.5,1.8,36.6c0.1,8.6-4.7,29.8-5.6,33.8c-11,50.3,70.3,73.4,70.3,73.4S476.2,457.3,465.2,407z"/>
	<path class="st1" d="M232.3,349.2c10.9-14.1-2.9-33.3-8.2-40s-19.1-17.9-25.8-23.3c-17.2-14-68.2-48.5-81-66.1
		c-8.9-12.3-23,8.4-23,8.4s13.6,11.7,20.4,20.1c14.2,17.7,28.1,45.4,50.6,75.4c5.9,7.9,20.6,21.6,28.8,26.9
		C217,365.1,229.1,353.3,232.3,349.2z"/>
	<path class="st1" d="M334.8,251.5c-8.5,26.3-35.5,43.8-35.5,43.8s-48.2,39.4-64.1,52.8c-7.5,6.3-22.8,19.7-39.1,1.5l0,0
		c-13.4-15-1.2-30.5,5.4-37.2c13.3-13.7,43.2-38.6,53.9-54.2c7.9-11.6,15.6-32.6,38-41.5c0,0,17.6-9.3,32.6,4l0.6,0.5
		C335.1,228.7,338.3,240.6,334.8,251.5L334.8,251.5z"/>
	<path class="st1" d="M458,241.6c-1.2,27.7,17.9,53.4,17.9,53.4s31.3,53.8,41.5,71.9c4.8,8.5,14.5,26.5,36.1,15.1l0,0
		c17.8-9.4,11.8-28.1,8-36.7c-7.7-17.5-26.9-51.3-31.4-69.7c-3.3-13.7-3.2-36.1-21-52.2c0,0-13.2-14.8-31.9-7.6l-0.7,0.3
		C465.7,220.1,458.5,230.1,458,241.6z"/>
</g>
<g id="Calque_7">
	<polygon points="230.2,479.5 230.3,479.5 230.2,479.5 	"/>
	<polygon points="230.3,479.5 230.4,479.5 230.4,479.5 	"/>
	<polygon points="230.2,479.5 230.3,479.5 230.2,479.5 	"/>
	<polygon points="230.3,479.5 230.4,479.5 230.4,479.5 	"/>
	<path class="st3" d="M465.7,406.3c-0.9-4-5.7-25.3-5.6-33.8c0.1-9.2,4-27.7,1.8-36.6c-9.8-39.6-123.5-39.7-133.3,0
		c-2.2,8.9,1.7,27.5,1.8,36.6c0.1,8.6-4.7,29.8-5.6,33.8c-11,50.3,70.3,73.4,70.3,73.4S476.8,456.7,465.7,406.3z"/>
	<polygon class="st4" points="316.7,451.3 318.2,428.8 473.2,428.8 475.2,448.3 	"/>
	<polygon class="st5" points="394.6,489.9 389.6,449.9 404.6,449.9 403.6,482.1 	"/>
	<path class="st0" d="M300.4,202.2c-2.5,4.8,9.6,83.4,9.6,83.4l-16.3,173.2l15.5,16.6l-0.1,27h170.1l-0.7-23l10.5-22.7l-15.9-162.9
		l14.9-90.5L438,186.2l-31.1,37.7l-26.9-2.2l-21.9-39.3L300.4,202.2z"/>
	<path class="st1" d="M560.3,368.6c2.8-17.2-16.2-30.4-23.3-34.8s-22.7-10-30.4-12.7c-19.6-7.1-52.9-16.4-72-23.6
		c-12.6-4.7-19.2-7.6-22.5-0.4c-3,6.5,7.9,15,12.2,18.3c17.6,13.8,51.8,41.2,71.9,52.9c8.2,4.8,25.4,13,34.2,15
		C554.8,389.1,559.5,373.6,560.3,368.6z"/>
	<path class="st1" d="M452.3,306l-10.5-5.7c0,0-20.4-22.7-21.3-23.6s-16.2-13.7-17.3-14.8s-8.6-10.9-8.6-10.9l-4.8,9.6l7.8,11.4
		l9.3,9.3l-23.7-4.4c0,0-35.7-10.4-36.3-9.2s-1.5,8.1-0.3,8.7s34.8,11.3,34.8,11.3s-42.5-5.9-42.8-3.8s-0.6,9.6,1.2,9.6
		s38,3.8,38,3.8s-38.6,2.8-38,4s3,8.4,3,8.4l37.8-1.3l-26.6,8.7c0,0,4.5,7.5,5.7,7.5s30.5-8.5,30.5-8.5s29.6,3.1,31.1,2.3
		c4.4-2.2,14.4,4.1,14.4,4.1L452.3,306z"/>
	<path class="st6" d="M328.9,196.9c0,0,45.4,42.2,67.2,46.9c0,0-26.3,15.4-46.3,5s-38.4-46.9-37.6-47.3S328.9,196.9,328.9,196.9z"/>
	<rect x="309.2" y="475.5" class="st6" width="170" height="27"/>
</g>
</svg>
