<svg xmlns="http://www.w3.org/2000/svg" viewBox="0 0 558 610.35"><defs><style>.cls-1,.cls-7,.cls-8,.cls-9{fill:none;}.cls-2{fill:#614652;}.cls-3{fill:#d79072;}.cls-4{fill:#87b6c7;}.cls-5{fill:#6c9aab;}.cls-6{fill:#699aab;}.cls-7{stroke:#699aab;}.cls-7,.cls-8{stroke-linecap:round;stroke-width:2px;}.cls-7,.cls-8,.cls-9{stroke-miterlimit:10;}.cls-8{stroke:#669aab;}.cls-9{stroke:#4f3742;}</style></defs><g id="Calque_1" data-name="Calque 1"><polygon points="116.06 123.9 116.16 123.86 116.06 123.81 116.06 123.9"/><polygon points="116.16 123.86 116.26 123.9 116.26 123.81 116.16 123.86"/><polygon points="116.06 123.9 116.16 123.86 116.06 123.81 116.06 123.9"/><polygon points="116.16 123.86 116.26 123.9 116.26 123.81 116.16 123.86"/><path class="cls-1" d="M320.16,35.83c16.15,5.23,23.2,9.63,27,16.57,3.11,5.61,6,18.48,6.27,24.9.55,15.06-7.77,52.94-21.93,65.58-14.4,12.85-84.79,12.85-99.19,0-14.16-12.64-22.48-50.52-21.93-65.58.23-6.42,3.16-19.29,6.27-24.9,3.84-6.94,10.89-11.34,27-16.57,18.49-6,37.3-5,37.3-5S301.67,29.86,320.16,35.83Z"/></g><g id="Calque_5" data-name="Calque 5"><polygon points="115.22 123.35 115.32 123.31 115.22 123.26 115.22 123.35"/><polygon points="115.32 123.31 115.42 123.35 115.42 123.26 115.32 123.31"/><polygon points="115.22 123.35 115.32 123.31 115.22 123.26 115.22 123.35"/><polygon points="115.32 123.31 115.42 123.35 115.42 123.26 115.32 123.31"/><path class="cls-2" d="M197.56,292.48A26.85,26.85,0,0,0,223,316.93h0a26.85,26.85,0,0,0,27.34-20.34s18.85-88.82,20.94-120.84c.5-7.58-.82-30.37-.82-30.37l-3.28-53.07s-3-25.06-29.27-29c-30.3-4.53-31.73,11.76-31.73,11.76s-14.9,78.91-16,105.51C189.12,205.1,197.56,292.48,197.56,292.48Z"/><path class="cls-3" d="M221.75,275.18c-13.92-.19-22.33,6.72-24.87,18.16,0,0-7.11,55.37-8.31,77-1.93,34.69,2.48,101.61,7.19,136,1,7.54,3,30.27,3,30.27A13.11,13.11,0,0,0,212,548.48h0a13.11,13.11,0,0,0,12.9-11.81s2.23-26.13,3.5-34.78c4.58-31.35,18-93.53,20-125.15,1.22-19-.44-77.51-.44-77.51-.8-19.22-14.26-23.47-26.18-24.05Z"/><path class="cls-4" d="M211.26,528.61h0a16.05,16.05,0,0,0-14.12,9.16h0c-5.84,12.34-30.55,28.87-30.55,28.87A15.14,15.14,0,0,0,161,581.27h0l60.27-.33,3.39-1a8.54,8.54,0,0,0,6-9l-3.46-30A16,16,0,0,0,211.26,528.61Z"/><path class="cls-5" d="M162.77,581h0a9,9,0,0,1,7.52-10.36l35.85-5.41A9,9,0,0,1,216.21,572l2.06,8.5Z"/><path class="cls-2" d="M319.32,35.28c16.16,5.23,23.2,9.63,27,16.57,3.11,5.61,6,18.48,6.27,24.89.55,15.07-7.77,53-21.92,65.59-14.41,12.85-84.8,12.85-99.2,0C217.35,129.69,209,91.81,209.58,76.74c.23-6.41,3.16-19.28,6.27-24.89,3.84-6.94,10.89-11.34,27-16.57,18.49-6,37.3-5,37.3-5S300.83,29.31,319.32,35.28Z"/><path class="cls-2" d="M360.65,292.48a26.84,26.84,0,0,1-25.44,24.45h0a26.84,26.84,0,0,1-27.34-20.34S289,207.77,286.92,175.75c-.52-7.91,4.1-83.44,4.1-83.44s-2.83-22.42,29.27-29C348.9,57.46,352,75.08,352,75.08s14.9,77.91,16,104.51C369.09,204.1,360.65,292.48,360.65,292.48Z"/><path class="cls-3" d="M337.56,275.18c12.44-.19,19.94,6.72,22.22,18.16,0,0,14.38,53.37,15.45,75C377,403,365,472,360.77,506.38c-.92,7.54-2.66,30.27-2.66,30.27-.6,6.77-5.72,11.91-11.8,11.83h0c-6-.08-10.92-5.16-11.51-11.81,0,0-2-26.13-3.12-34.78-4.1-31.35-16.08-93.53-17.88-125.15-1.09-19,.39-77.51.39-77.51.71-19.22,12.73-23.47,23.37-24.05Z"/><path class="cls-3" d="M360.57,524.77c-1.21,34,40.05,38.37,40.05,38.37,4.43,3.47-67,21.84-66.61,17.8,0,0,1.45-52-1-65.2C331.21,506.45,361.28,504.8,360.57,524.77Z"/><path class="cls-4" d="M347.7,543.62c6.38-2.18,5.93-6.81,8.47-9.36,1.54-1.54,7.87-3.19,8.79-1.22,10.69,22.65,61.16,35.36,61.16,35.36,5.36,3.82,6.57,9.1,5.55,14.63h0s-43.77,9.37-67.77-1.33c-4.8-2.14-9,3.06-9,3.06s-22.42,3.73-21.15-3.06L331.22,539C333,531.61,336.75,547.36,347.7,543.62Z"/><path class="cls-6" d="M432.19,583.48c.85-9-4.26-14.66-6-14.44-2.5.32-6.51,2.39-9,2.82-4,.69-16-.29-16-.29-3.07-.31-5.61,2.76-5.86,7.09l-.2,8.64s7.32,1,24.64-1.58C422.71,585.29,432.19,583.48,432.19,583.48Z"/><path class="cls-2" d="M211.93,75,201.71,95.1,178.15,544.29l21-.92,34.83.7S246.58,402,249.35,368.21c1.61-19.64,2.3-59.14,5.11-78.64,4.09-28.4,25.84-111.81,25.84-111.81L282.07,74.2Z"/><polygon class="cls-2" points="273.55 85.06 275.18 180.67 302.75 346.42 317.2 517.36 318.31 548.47 384.11 540.83 384.11 509.11 372.92 331.56 348.63 82.91 279.76 85.5 273.55 85.06"/><path class="cls-7" d="M194.29,547.22s4.74-3.36,8.91-3.35c5.1,0,10,3.11,10,3.11"/><path class="cls-8" d="M375.47,542.87s-5.1,2.07-9,2.16"/><path class="cls-8" d="M381.13,547.84s-4.95,2.39-8.86,2.73"/><polygon class="cls-9" points="279.57 133.65 274.57 93.65 289.57 93.65 288.57 125.93 279.57 133.65"/></g></svg>