<?xml version="1.0" encoding="utf-8"?>
<!-- Generator: Adobe Illustrator 26.0.1, SVG Export Plug-In . SVG Version: 6.00 Build 0)  -->
<svg version="1.1" id="Calque_1" xmlns="http://www.w3.org/2000/svg" xmlns:xlink="http://www.w3.org/1999/xlink" x="0px" y="0px"
	 viewBox="0 0 788 1005" style="enable-background:new 0 0 788 1005;" xml:space="preserve">
<style type="text/css">
	.st0{fill:none;}
	.st1{fill:#614652;}
	.st2{fill:#D79072;}
	.st3{fill:#87B6C7;}
	.st4{fill:#6C9AAB;}
	.st5{fill:#699AAB;}
	.st6{fill:none;stroke:#699AAB;stroke-width:2;stroke-linecap:round;stroke-miterlimit:10;}
	.st7{fill:none;stroke:#669AAB;stroke-width:2;stroke-linecap:round;stroke-miterlimit:10;}
	.st8{fill:none;stroke:#4F3742;stroke-miterlimit:10;}
</style>
<g id="Calque_1_00000022553471492940654050000013030971354841993115_">
	<polygon points="231.1,480.1 231.2,480.1 231.1,480 	"/>
	<polygon points="231.2,480.1 231.3,480.1 231.3,480 	"/>
	<polygon points="231.1,480.1 231.2,480.1 231.1,480 	"/>
	<polygon points="231.2,480.1 231.3,480.1 231.3,480 	"/>
	<path class="st0" d="M435.2,392c16.1,5.2,23.2,9.6,27,16.6c3.1,5.6,6,18.5,6.3,24.9c0.5,15.1-7.8,53-21.9,65.6
		c-14.4,12.9-84.8,12.9-99.2,0c-14.2-12.6-22.5-50.5-21.9-65.6c0.2-6.4,3.2-19.3,6.3-24.9c3.8-6.9,10.9-11.3,27-16.6
		c18.5-6,37.3-5,37.3-5S416.7,386,435.2,392z"/>
</g>
<g id="Calque_5">
	<polygon points="230.2,479.5 230.3,479.5 230.2,479.5 	"/>
	<polygon points="230.3,479.5 230.4,479.5 230.4,479.5 	"/>
	<polygon points="230.2,479.5 230.3,479.5 230.2,479.5 	"/>
	<polygon points="230.3,479.5 230.4,479.5 230.4,479.5 	"/>
	<path class="st1" d="M312.6,648.7c1.2,13.4,12,23.8,25.4,24.4l0,0c12.8,0.6,24.3-7.9,27.3-20.3c0,0,18.9-88.8,21-120.8
		c0.5-7.6-0.8-30.4-0.8-30.4l-3.3-53.1c0,0-3-25.1-29.3-29c-30.3-4.5-31.7,11.8-31.7,11.8s-1.3,87.9-2.4,114.5
		C317.7,570.3,312.6,648.7,312.6,648.7z"/>
	<path class="st2" d="M336.8,631.4c-13.9-0.2-22.3,6.7-24.9,18.2c0,0-7.1,55.4-8.3,77c-1.9,34.7,2.5,101.6,7.2,136
		c1,7.5,3,30.3,3,30.3c0.6,6.8,6.4,12,13.2,11.9l0,0c6.7-0.1,12.2-5.2,12.9-11.8c0,0,2.2-26.1,3.5-34.8c4.6-31.3,18-93.5,20-125.1
		c1.2-19-0.4-77.5-0.4-77.5C362.2,636.2,348.7,632,336.8,631.4L336.8,631.4z"/>
	<path class="st3" d="M326.3,884.8L326.3,884.8c-6.1,0.2-11.5,3.7-14.1,9.2l0,0c-5.8,12.3-30.5,28.9-30.5,28.9
		c-4.4,3.5-6.6,9.1-5.6,14.6l0,0l60.3-0.3l3.4-1c3.9-1.2,6.4-5,6-9l-3.5-30C340.5,889.8,333.8,884.6,326.3,884.8z"/>
	<path class="st4" d="M277.8,937.2L277.8,937.2c-0.8-4.9,2.5-9.5,7.4-10.4c0,0,0.1,0,0.1,0l35.9-5.4c4.6-0.7,9,2.2,10.1,6.8l2.1,8.5
		L277.8,937.2z"/>
	<path class="st1" d="M434.3,391.5c16.2,5.2,23.2,9.6,27,16.6c3.1,5.6,6,18.5,6.3,24.9c0.5,15.1-7.8,52.9-21.9,65.6
		c-14.4,12.9-84.8,12.9-99.2,0c-14.1-12.6-22.5-50.5-21.9-65.6c0.2-6.4,3.2-19.3,6.3-24.9c3.8-6.9,10.9-11.3,27-16.6
		c18.5-6,37.3-5,37.3-5S415.8,385.5,434.3,391.5z"/>
	<path class="st1" d="M486,768c-1.2,13.4-22.4-95.5-35.8-94.9l0,0c-12.8,0.6-24.3-7.9-27.3-20.3c0,0-18.9-88.8-20.9-120.8
		c-0.5-7.9,4.1-83.4,4.1-83.4s-2.8-22.4,29.3-29c28.6-5.9,31.7,11.8,31.7,11.8s14.9,77.9,16,104.5C484.1,560.3,486,768,486,768z"/>
	<path class="st2" d="M452.6,631.4c12.4-0.2,19.9,6.7,22.2,18.2c0,0,14.4,53.4,15.5,75c1.7,34.7-10.2,103.6-14.5,138
		c-0.9,7.5-2.7,30.3-2.7,30.3c-0.6,6.8-5.7,11.9-11.8,11.8l0,0c-6-0.1-10.9-5.2-11.5-11.8c0,0-2-26.1-3.1-34.8
		c-4.1-31.3-16.1-93.5-17.9-125.1c-1.1-19,0.4-77.5,0.4-77.5C429.9,636.2,441.9,631.9,452.6,631.4L452.6,631.4z"/>
	<path class="st2" d="M475.6,881c-1.2,34,40,38.4,40,38.4c4.4,3.5-67,21.8-66.6,17.8c0,0,1.5-52-1-65.2
		C446.2,862.7,476.3,861,475.6,881z"/>
	<path class="st3" d="M462.7,899.8c6.4-2.2,5.9-6.8,8.5-9.4c1.5-1.5,7.9-3.2,8.8-1.2c10.7,22.7,61.2,35.4,61.2,35.4
		c5.4,3.8,6.6,9.1,5.5,14.6l0,0c0,0-43.8,9.4-67.8-1.3c-4.8-2.2-9,3-9,3s-22.4,3.7-21.1-3l-2.5-42.7
		C448,887.8,451.8,903.5,462.7,899.8z"/>
	<path class="st5" d="M547.2,939.7c0.8-9-4.3-14.7-6-14.4c-2.5,0.3-6.5,2.4-9,2.8c-4,0.7-16-0.3-16-0.3c-3.1-0.3-5.6,2.8-5.9,7.1
		l-0.2,8.6c0,0,7.3,1,24.6-1.6C537.7,941.5,547.2,939.7,547.2,939.7z"/>
	<path class="st1" d="M326.9,431.2l-10.2,20.1l-23.6,449.2l21-0.9l34.8,0.7c0,0,12.6-142.1,15.4-175.9c1.6-19.6,2.3-59.1,5.1-78.6
		c4.1-28.4,25.8-111.8,25.8-111.8l1.8-103.5L326.9,431.2z"/>
	<polygon class="st1" points="388.5,441.2 390.2,536.9 417.8,702.6 432.2,873.5 433.3,904.7 499.1,897 499.1,865.3 487.9,687.8 
		463.6,439.1 394.8,441.7 	"/>
	<path class="st6" d="M309.3,903.4c0,0,4.7-3.4,8.9-3.3c5.1,0,10,3.1,10,3.1"/>
	<path class="st7" d="M490.5,899.1c0,0-5.1,2.1-9,2.2"/>
	<path class="st7" d="M496.1,904c0,0-5,2.4-8.9,2.7"/>
	<polygon class="st8" points="394.6,489.9 389.6,449.9 404.6,449.9 403.6,482.1 	"/>
</g>
</svg>
