<svg xmlns="http://www.w3.org/2000/svg" viewBox="0 0 558 610.35"><defs><style>.cls-1{fill:#a37636;}.cls-2{fill:#87b6c7;}.cls-3{fill:#6c9aab;}.cls-4{fill:#d79072;}.cls-5{fill:#699aab;}.cls-6,.cls-7,.cls-8{fill:none;stroke-miterlimit:10;}.cls-6{stroke:#699aab;}.cls-6,.cls-7{stroke-linecap:round;stroke-width:2px;}.cls-7{stroke:#669aab;}.cls-8{stroke:#4f3742;}</style></defs><g id="Calque_7" data-name="Calque 7"><polygon points="115.22 123.35 115.32 123.31 115.22 123.26 115.22 123.35"/><polygon points="115.32 123.31 115.42 123.35 115.42 123.26 115.32 123.31"/><polygon points="115.22 123.35 115.32 123.31 115.22 123.26 115.22 123.35"/><polygon points="115.32 123.31 115.42 123.35 115.42 123.26 115.32 123.31"/><polygon points="110.57 124.72 110.67 124.68 110.57 124.63 110.57 124.72"/><polygon points="110.67 124.68 110.77 124.72 110.77 124.63 110.67 124.68"/><polygon points="110.57 124.72 110.67 124.68 110.57 124.63 110.57 124.72"/><polygon points="110.67 124.68 110.77 124.72 110.77 124.63 110.67 124.68"/><path class="cls-1" d="M192.91,293.85a26.83,26.83,0,0,0,25.44,24.45h0A26.83,26.83,0,0,0,245.69,298s18.85-88.82,20.95-120.84c.5-7.58-.82-30.37-.82-30.37l-3.28-53.06s-3-25.07-29.27-29c-30.3-4.53-31.73,11.76-31.73,11.76s-14.9,78.91-16,105.51C184.47,206.47,192.91,293.85,192.91,293.85Z"/><path class="cls-1" d="M217.1,276.55c-13.93-.19-22.33,6.72-24.88,18.17,0,0-7.1,55.36-8.3,77-1.93,34.69,2.48,101.61,7.19,136,1,7.54,3,30.27,3,30.27a13.12,13.12,0,0,0,13.21,11.83h0a13.12,13.12,0,0,0,12.9-11.8s2.23-26.14,3.49-34.79c4.58-31.35,18-93.53,20-125.15,1.21-19-.45-77.51-.45-77.51-.79-19.22-14.25-23.46-26.17-24.05Z"/><path class="cls-2" d="M206.61,530h0a16.05,16.05,0,0,0-14.12,9.16h0C186.64,551.49,161.94,568,161.94,568a15.08,15.08,0,0,0-5.55,14.62h0l60.27-.33,3.38-1a8.51,8.51,0,0,0,6-9l-3.46-29.95A16,16,0,0,0,206.61,530Z"/><path class="cls-3" d="M158.12,582.34h0A9,9,0,0,1,165.64,572l35.84-5.41a9,9,0,0,1,10.08,6.77l2.06,8.5Z"/><path class="cls-1" d="M312.42,36.66c17.25,5.22,24.76,9.62,28.86,16.56,3.32,5.61,6.45,18.48,6.7,24.9.58,15.06-8.3,52.94-23.41,65.58-15.37,12.85-90.5,12.85-105.88,0-15.11-12.64-24-50.52-23.4-65.58.25-6.42,3.37-19.29,6.69-24.9,4.1-6.94,11.62-11.34,28.87-16.56,19.73-6,39.8-5,39.8-5S292.69,30.68,312.42,36.66Z"/><path class="cls-1" d="M356,293.85a26.84,26.84,0,0,1-25.45,24.45h0A26.84,26.84,0,0,1,303.21,298s-18.85-88.82-20.94-120.84c-.52-7.91,4.1-83.43,4.1-83.43s-2.83-22.42,29.27-29c28.61-5.86,31.73,11.76,31.73,11.76s14.9,77.91,16,104.51C364.43,205.47,356,293.85,356,293.85Z"/><path class="cls-1" d="M332.91,276.55c12.43-.19,19.94,6.72,22.21,18.17,0,0,14.38,53.36,15.46,75,1.72,34.69-10.26,103.61-14.46,138-.92,7.54-2.67,30.27-2.67,30.27-.59,6.78-5.72,11.91-11.79,11.83h0c-6-.08-10.92-5.16-11.52-11.8,0,0-2-26.14-3.12-34.79-4.09-31.35-16.07-93.53-17.88-125.15-1.08-19,.4-77.51.4-77.51.71-19.22,12.73-23.46,23.37-24.05Z"/><path class="cls-4" d="M355.92,526.14c-1.21,34,40.05,38.38,40.05,38.38,4.42,3.46-67,21.83-66.62,17.79,0,0,1.46-52-1-65.2C326.56,507.82,356.63,506.17,355.92,526.14Z"/><path class="cls-2" d="M343.05,545c6.38-2.18,5.93-6.81,8.47-9.36,1.53-1.54,7.86-3.19,8.79-1.22,10.68,22.66,61.16,35.37,61.16,35.37,5.36,3.82,6.56,9.09,5.55,14.62h0s-43.77,9.37-67.77-1.33c-4.81-2.14-9,3.06-9,3.06s-22.42,3.73-21.16-3.06l-2.54-42.7C328.29,533,332.1,548.73,343.05,545Z"/><path class="cls-5" d="M427.54,584.85c.84-9-4.26-14.66-6-14.44-2.5.32-6.5,2.39-9,2.82-4,.69-15.95-.28-15.95-.28-3.07-.32-5.62,2.76-5.86,7.09l-.2,8.63s7.32,1,24.64-1.58C418.05,586.66,427.54,584.85,427.54,584.85Z"/><path class="cls-1" d="M197.43,76.67l-2.17,20.6L174,545.87l21-.92,34.83.71s12.6-142.1,15.37-175.87c1.61-19.63,2.3-59.13,5.11-78.63,4.09-28.4,25.84-111.82,25.84-111.82l1.77-103.55Z"/><polygon class="cls-1" points="268.89 86.43 270.53 182.05 298.1 347.79 312.55 518.73 313.66 549.85 368.45 543.48 367.54 507.18 368.26 332.93 343.97 84.28 275.11 86.88 268.89 86.43"/><path class="cls-6" d="M189.64,548.59s4.73-3.36,8.9-3.35c5.11,0,10,3.11,10,3.11"/><path class="cls-7" d="M370.82,544.25s-5.1,2.07-9,2.15"/><path class="cls-7" d="M376.48,549.21s-5,2.39-8.86,2.73"/><polygon class="cls-8" points="274.92 135.02 269.92 95.02 284.92 95.02 283.92 127.31 274.92 135.02"/></g></svg>