<svg xmlns="http://www.w3.org/2000/svg" viewBox="0 0 558 610.35"><defs><style>.cls-1{fill:#614652;}.cls-2{fill:#d79072;}.cls-3{fill:#352b28;}.cls-4{fill:#547687;}.cls-5{fill:none;stroke:#4f3742;stroke-miterlimit:10;}</style></defs><g id="Calque_5" data-name="Calque 5"><path class="cls-1" d="M197.56,292.48A26.85,26.85,0,0,0,223,316.93h0a26.85,26.85,0,0,0,27.34-20.34s18.85-88.82,20.94-120.84c.5-7.58-.82-30.37-.82-30.37l-3.28-53.07s-3-25.06-29.27-29c-30.3-4.53-31.73,11.76-31.73,11.76s-14.9,78.91-16,105.51C189.12,205.1,197.56,292.48,197.56,292.48Z"/><path class="cls-2" d="M221.75,275.18c-13.92-.19-22.33,6.72-24.87,18.16,0,0-7.11,55.37-8.31,77-1.93,34.69,2.48,101.61,7.19,136,1,7.54,3,30.27,3,30.27A13.11,13.11,0,0,0,212,548.48h0a13.11,13.11,0,0,0,12.9-11.81s2.23-26.13,3.5-34.78c4.58-31.35,18-93.53,20-125.15,1.22-19-.44-77.51-.44-77.51-.8-19.22-14.26-23.47-26.18-24.05Z"/><path class="cls-3" d="M162.77,581h0a9,9,0,0,1,7.52-10.36l35.85-5.41A9,9,0,0,1,216.21,572l2.06,8.5Z"/><path class="cls-4" d="M323.28,35.28c17.9,5.23,25.7,9.63,30,16.57,3.45,5.61,6.69,18.48,6.95,24.89.6,15.07-8.61,53-24.29,65.59-15.95,12.85-93.92,12.85-109.87,0-15.68-12.64-24.89-50.52-24.29-65.59.26-6.41,3.51-19.28,7-24.89,4.26-6.94,12.06-11.34,29.95-16.57,20.48-6,41.31-5,41.31-5S302.8,29.31,323.28,35.28Z"/><path class="cls-2" d="M337.56,275.18c12.44-.19,19.94,6.72,22.22,18.16,0,0,14.38,53.37,15.45,75C377,403,365,472,360.77,506.38c-.92,7.54-2.66,30.27-2.66,30.27-.6,6.77-5.72,11.91-11.8,11.83h0c-6-.08-10.92-5.16-11.51-11.81,0,0-2-26.13-3.12-34.78-4.1-31.35-16.08-93.53-17.88-125.15-1.09-19,.39-77.51.39-77.51.71-19.22,12.73-23.47,23.37-24.05Z"/><path class="cls-3" d="M360.28,520.35c-3.55,33.84,37.31,41,37.31,41,4.18,3.76-68.35,17.15-67.69,13.15,0,0,5.05-51.79,3.47-65.12C332.26,500,362.37,500.48,360.28,520.35Z"/><path class="cls-3" d="M427.68,583.86c1.46-8.92-3.24-14.91-5-14.81-2.51.14-6.65,1.93-9.16,2.19-4,.41-15.89-1.39-15.89-1.39-3.05-.53-5.8,2.37-6.34,6.67l-.8,8.6s7.24,1.51,24.69.12C418.09,585,427.68,583.86,427.68,583.86Z"/><polygon class="cls-4" points="202.08 75.3 199.91 95.9 174.67 299.5 264.98 305.78 280.82 177.97 282.59 74.42 202.08 75.3"/><polygon class="cls-4" points="273.55 85.06 275.43 180.67 293.32 308.42 393.55 308.56 359.87 82.91 280.7 85.5 273.55 85.06"/><polygon class="cls-4" points="201.71 95.1 203.21 72.6 358.21 72.6 360.21 92.1 201.71 95.1"/><polygon class="cls-5" points="279.57 133.65 274.57 93.65 289.57 93.65 288.57 125.93 279.57 133.65"/><polygon class="cls-4" points="238.42 454.37 224.28 539.39 198.75 536.65 190.46 451.02 238.42 454.37"/><polygon class="cls-4" points="321.19 440.42 332.54 540.49 357.87 538.93 370.61 439.76 321.19 440.42"/><path class="cls-3" d="M211.26,528.61h0a16.05,16.05,0,0,0-14.12,9.16h0c-5.84,12.34-30.55,28.87-30.55,28.87A15.14,15.14,0,0,0,161,581.27h0l60.27-.33,3.39-1a8.54,8.54,0,0,0,6-9l-3.46-30A16,16,0,0,0,211.26,528.61Z"/><path class="cls-3" d="M346.14,538.43c6.51-1.76,6.38-6.49,9.1-8.89,1.64-1.46,8.07-2.69,8.86-.63,9.06,23.68,58.53,40,58.53,40,5.08,4.24,5.91,9.67,4.51,15.19h0s-44.33,6.46-67.51-6c-4.65-2.5-9.19,2.48-9.19,2.48s-22.63,2.22-20.89-4.56l.46-43.41C332.26,525.25,334.94,541.46,346.14,538.43Z"/></g></svg>