<svg xmlns="http://www.w3.org/2000/svg" viewBox="0 0 788 1005"><defs><style>.cls-1{fill:#614652;}.cls-2{fill:#d79072;}.cls-3{fill:#87b6c7;}.cls-4{fill:#6c9aab;}.cls-10,.cls-5,.cls-8,.cls-9{fill:none;stroke-miterlimit:10;}.cls-5{stroke:#000;stroke-width:3px;}.cls-6{fill:#699aab;}.cls-7{fill:#473415;}.cls-8{stroke:#699aab;}.cls-8,.cls-9{stroke-linecap:round;stroke-width:2px;}.cls-9{stroke:#669aab;}.cls-10{stroke:#4f3742;}.cls-11{fill:#227287;}</style></defs><g id="Calque_5" data-name="Calque 5"><polygon points="243.33 479.54 243.43 479.5 243.33 479.45 243.33 479.54"/><polygon points="243.43 479.5 243.53 479.54 243.53 479.45 243.43 479.5"/><polygon points="243.33 479.54 243.43 479.5 243.33 479.45 243.33 479.54"/><polygon points="243.43 479.5 243.53 479.54 243.53 479.45 243.43 479.5"/><path class="cls-1" d="M357.06,652A26.84,26.84,0,0,0,386,672.13h0a26.84,26.84,0,0,0,23.83-24.36s4.74-90.67,1.8-122.63c-.69-7.56-5.55-29.86-5.55-29.86l-11.54-51.9s-6.84-24.3-33.44-24.07c-30.63.26-29.5,16.58-29.5,16.58s-2.38,80.26.66,106.71C335.07,567,357.06,652,357.06,652Z"/><path class="cls-2" d="M378.25,631.1c-13.78,2-21,10.12-21.73,21.82,0,0,1.63,55.8,3.82,77.36,3.52,34.56,18.33,100,28.36,133.24,2.2,7.28,7.68,29.43,7.68,29.43a13.13,13.13,0,0,0,14.9,9.62h0a13.12,13.12,0,0,0,10.89-13.68s-1.88-26.16-2-34.9c-.38-31.69,3.17-95.19.22-126.74-1.77-19-12.55-76.49-12.55-76.49-3.79-18.86-17.74-21-29.61-19.66Z"/><path class="cls-3" d="M408.18,884.74h0A16,16,0,0,0,394,893.83h0c-5.91,12.32-30.69,28.73-30.69,28.73a15.1,15.1,0,0,0-5.62,14.6h0l60.27,0,3.39-1a8.52,8.52,0,0,0,6.05-8.94l-3.31-30A16,16,0,0,0,408.18,884.74Z"/><path class="cls-4" d="M359.44,936.86h0A9,9,0,0,1,367,926.54l35.87-5.24a9,9,0,0,1,10,6.82l2,8.51Z"/><path class="cls-5" d="M447.43,390.9c16.16,4.62,23.2,8.53,27,14.67,3.11,5,6,16.37,6.27,22.05.55,13.34-7.77,46.89-21.93,58.09-14.4,11.38-84.79,11.38-99.19,0-14.16-11.2-22.47-44.75-21.93-58.09.23-5.68,3.16-17.08,6.27-22.05,3.84-6.14,10.89-10.05,27-14.67,18.49-5.3,37.3-4.46,37.3-4.46S428.94,385.6,447.43,390.9Z"/><path class="cls-1" d="M656.32,458.31a26.84,26.84,0,0,1,17.23,30.79h0A26.85,26.85,0,0,1,647,510.43s-90.7-4.17-122.22-10.22c-7.78-1.5-79.69-25-79.69-25s-22.41-2.92-20.68-35.64c1.55-29.16,19.39-27.74,19.39-27.74s79.15,5.24,105.17,10.86C572.92,427.85,656.32,458.31,656.32,458.31Z"/><path class="cls-2" d="M672.12,480c6.12,10.83,3.65,20.72-5.31,28.2,0,0-40,38.18-58.45,49.48-29.63,18.12-95.87,40.61-128.11,53.4-7.05,2.8-27.85,12.15-27.85,12.15-6.23,2.72-13.19.68-16-4.69h0c-2.79-5.27-.7-12.06,4.85-15.77,0,0,22-14.26,29-19.39,25.56-18.6,74.41-58.89,101.3-75.62C587.77,497.7,639.82,471,639.82,471c17.21-8.58,26.69-.06,32.3,9Z"/><path class="cls-2" d="M462.74,614.58c-33.88,3.17-34.13,53.2-34.13,53.2-2.87,4.83-30.27-63.64-26.21-63.78,0,0,51.77-5.24,64.53-9.41C475.91,591.65,482.64,612.72,462.74,614.58Z"/><path class="cls-3" d="M449.81,610.77c3,6.05,7.52,5,10.37,7.19,1.73,1.33,4.18,7.39,2.34,8.57-21.09,13.5-27.21,65.2-27.21,65.2-3.1,5.8-8.18,7.67-13.79,7.38h0s-14.92-42.21-7.39-67.38c1.5-5-4.19-8.53-4.19-8.53s-6.58-21.75.31-21.37l42-8C459.82,594.59,444.69,600.39,449.81,610.77Z"/><path class="cls-6" d="M412.5,701.7c9-.32,14-6.11,13.55-7.8-.64-2.44-3.21-6.15-3.95-8.55-1.19-3.85-1.77-15.86-1.77-15.86-.08-3.09-3.46-5.22-7.78-4.9l-8.59.91s-.06,7.39,4.73,24.23C409.49,692.52,412.5,701.7,412.5,701.7Z"/><polygon class="cls-7" points="329.82 451.3 331.32 428.8 486.32 428.8 488.32 448.3 329.82 451.3"/><path class="cls-8" d="M391.12,903.26s4.75-3.33,8.92-3.31c5.11,0,9.95,3.17,9.95,3.17"/><path class="cls-9" d="M445.48,640.23s-2.71-4.79-3.3-8.67"/><path class="cls-9" d="M441.28,646.48s-3-4.6-3.84-8.44"/><polygon class="cls-10" points="407.68 489.85 402.68 449.85 417.68 449.85 416.68 482.13 407.68 489.85"/><path class="cls-11" d="M331.32,428.8s58-10.83,148.54-14.24c69.66-2.62,179.65,34.64,188.85,46.55s15.83,39.15,6.78,44.25c-30.3,17.09-72.94,76.72-99.67,88.95-65.85,30.12-79.44,10.49-87.5,13.63s-12.63,5-12.63,5L459,591.1s16.81-10.22,16.71-11.72c-.07-1,13.38-24.2,29.78-47.74,9.66-13.86,27.12-21.21,37.25-21.21,0,0-60,32.48-135.61-10.36C367.44,477.61,331.32,428.8,331.32,428.8Z"/><path class="cls-11" d="M334.54,419.31c-1.27,2.28-9.62,71.19-10.54,120.85s-20.72,225.32,5.27,257.5,59.15,65.86,59.15,65.86l4.21,19.69c8.62-3.7,29.73-6.38,29.73-6.38l-1.81-15.58c4.65-7.82,29.93-72.78,25.09-105s-16-17.57-23.28-57.53-4.68-96.42-4.68-96.42c17.46-25,16.1-65.85,24.67-87s1.06-99-7.05-98.38S341.41,407,334.54,419.31Z"/><path class="cls-11" d="M334.38,467.44c-1.34-2.29-4.56-16.14-4.56-16.14s-.75-25.7,4.56-39.5,38.76-28.26,83.3-25.41,54.1,12.76,61.64,22.39.5,20.68-1.52,21.69-140.59,50.86-143.42,39.38"/></g></svg>