<svg xmlns="http://www.w3.org/2000/svg" viewBox="0 0 558 610.35"><defs><style>.cls-1{fill:#614652;}.cls-2{fill:#d79072;}.cls-3{fill:#3a4649;}.cls-4{fill:#172f35;}.cls-5{fill:#472e1d;}.cls-6{fill:none;stroke:#2e1000;stroke-miterlimit:10;}</style></defs><g id="Calque_7" data-name="Calque 7"><polygon points="115.22 123.35 115.32 123.31 115.22 123.26 115.22 123.35"/><polygon points="115.32 123.31 115.42 123.35 115.42 123.26 115.32 123.31"/><polygon points="115.22 123.35 115.32 123.31 115.22 123.26 115.22 123.35"/><polygon points="115.32 123.31 115.42 123.35 115.42 123.26 115.32 123.31"/><path class="cls-1" d="M208.12,292.48c1,13.36,10.33,23.8,21.81,24.45h0c11,.61,20.78-7.9,23.43-20.34,0,0,16.15-88.82,17.95-120.84.42-7.58-.7-30.37-.7-30.37l-2.82-53.07s-2.54-25.06-25.08-29c-26-4.53-27.19,11.76-27.19,11.76S202.75,154,201.78,180.59C200.89,205.1,208.12,292.48,208.12,292.48Z"/><path class="cls-2" d="M221.75,275.18c-13.92-.19-22.33,6.72-24.87,18.16,0,0-7.11,55.37-8.31,77-1.93,34.69,2.48,101.61,7.19,136,1,7.54,3,30.27,3,30.27A13.11,13.11,0,0,0,212,548.48h0a13.11,13.11,0,0,0,12.9-11.81s2.23-26.13,3.5-34.78c4.58-31.35,18-93.53,20-125.15,1.22-19-.44-77.51-.44-77.51-.8-19.22-14.26-23.47-26.18-24.05Z"/><path class="cls-3" d="M211.26,528.61h0a16.05,16.05,0,0,0-14.12,9.16h0c-5.84,12.34-30.55,28.87-30.55,28.87A15.14,15.14,0,0,0,161,581.27h0l60.27-.33,3.39-1a8.54,8.54,0,0,0,6-9l-3.46-30A16,16,0,0,0,211.26,528.61Z"/><path class="cls-4" d="M162.77,581h0a9,9,0,0,1,7.52-10.36l35.85-5.41A9,9,0,0,1,216.21,572l2.06,8.5Z"/><path class="cls-5" d="M327.86,35.28c18.57,5.23,26.66,9.63,31.08,16.57,3.57,5.61,6.94,18.48,7.21,24.89.62,15.07-8.94,53-25.21,65.59-16.55,12.85-97.45,12.85-114,0-16.27-12.64-25.83-50.52-25.2-65.59.26-6.41,3.63-19.28,7.2-24.89,4.42-6.94,12.52-11.34,31.08-16.57,21.25-6,42.87-5,42.87-5S306.61,29.31,327.86,35.28Z"/><path class="cls-2" d="M337.56,275.18c12.44-.19,19.94,6.72,22.22,18.16,0,0,9.07,50.91,11.18,72.47,4.51,46-5.43,107.11-10.19,140.57-1.07,7.52-2.66,30.27-2.66,30.27-.6,6.77-5.72,11.91-11.8,11.83h0c-6-.08-10.92-5.16-11.51-11.81,0,0-2-26.13-3.12-34.78-4.1-31.35-16.08-93.53-17.88-125.15-1.09-19,.39-77.51.39-77.51.71-19.22,12.73-23.47,23.37-24.05Z"/><path class="cls-2" d="M360.57,524.77c-1.21,34,40.05,38.37,40.05,38.37,4.43,3.47-67,21.84-66.61,17.8,0,0,1.45-52-1-65.2C331.21,506.45,361.28,504.8,360.57,524.77Z"/><path class="cls-3" d="M349.22,543.62c6.38-2.18,5.93-6.81,8.47-9.36,1.53-1.54,7.86-3.19,8.79-1.22,10.68,22.65,61.16,35.36,61.16,35.36,5.36,3.82,6.56,9.1,5.55,14.63h0s-26.55,13.5-66,3.8c-5.11-1.26-10.76-2.07-10.76-2.07s-25.39,3.3-24.13-3.49l.44-42.27C334.46,531.61,338.27,547.36,349.22,543.62Z"/><path class="cls-4" d="M432.19,583.48c.85-9-4.26-14.66-6-14.44-2.5.32-6.51,2.39-9,2.82-4,.69-13.36,2.75-13.36,2.75-3.07-.32-5.62,2.76-5.86,7.09l-.2,8.64s3.14.07,20.46-2.52C421.13,587.39,432.19,583.48,432.19,583.48Z"/><path class="cls-5" d="M202.4,75.3l-2.17,20.6-21.88,462L192.87,545a18.27,18.27,0,0,1,21,.23l16.83,19.84s21.36-164,24.13-197.78c1.61-19.64,3.92-58.16,6.73-77.66,4.1-28.4,19.53-111.69,19.53-111.69l1.77-103.56Z"/><path class="cls-5" d="M278.32,85.06,280,180.67l27.56,165.75L328.1,519.63l4.37,41.61,18.32-14.32c24.68-8.86,26.28.3,36.16,6.14l-1.09-24.46-8.17-197L365,82.47l-80.44,3Z"/><polygon class="cls-6" points="279.57 133.65 274.57 93.65 289.57 93.65 288.57 125.93 279.57 133.65"/><circle class="cls-5" cx="348.93" cy="65.91" r="4.68"/></g></svg>