<svg xmlns="http://www.w3.org/2000/svg" viewBox="0 0 788 1005"><defs><style>.cls-1{fill:#a37636;}.cls-2{fill:#87b6c7;}.cls-3{fill:#6c9aab;}.cls-4{fill:#d79072;}.cls-5{fill:#699aab;}.cls-6,.cls-7,.cls-8{fill:none;stroke-miterlimit:10;}.cls-6{stroke:#699aab;}.cls-6,.cls-7{stroke-linecap:round;stroke-width:2px;}.cls-7{stroke:#669aab;}.cls-8{stroke:#4f3742;}</style></defs><g id="Calque_7" data-name="Calque 7"><polygon points="230.22 479.54 230.32 479.5 230.22 479.45 230.22 479.54"/><polygon points="230.32 479.5 230.42 479.54 230.42 479.45 230.32 479.5"/><polygon points="230.22 479.54 230.32 479.5 230.22 479.45 230.22 479.54"/><polygon points="230.32 479.5 230.42 479.54 230.42 479.45 230.32 479.5"/><polygon points="225.57 480.92 225.67 480.88 225.57 480.82 225.57 480.92"/><polygon points="225.67 480.88 225.77 480.92 225.77 480.82 225.67 480.88"/><polygon points="225.57 480.92 225.67 480.88 225.57 480.82 225.57 480.92"/><polygon points="225.67 480.88 225.77 480.92 225.77 480.82 225.67 480.88"/><path class="cls-1" d="M307.91,650.05a26.84,26.84,0,0,0,25.44,24.45h0a26.85,26.85,0,0,0,27.34-20.35s18.85-88.81,20.95-120.84c.5-7.57-.82-30.36-.82-30.36l-3.28-53.07s-3-25.06-29.27-29c-30.3-4.53-31.73,11.76-31.73,11.76s-14.9,78.91-16,105.5C299.47,562.67,307.91,650.05,307.91,650.05Z"/><path class="cls-1" d="M332.1,632.75c-13.93-.19-22.33,6.71-24.88,18.16,0,0-7.1,55.37-8.3,77-1.93,34.69,2.48,101.6,7.19,136,1,7.53,3,30.27,3,30.27a13.13,13.13,0,0,0,13.21,11.83h0a13.12,13.12,0,0,0,12.9-11.81s2.23-26.14,3.49-34.79c4.58-31.35,18-93.52,20-125.14,1.21-19-.45-77.51-.45-77.51-.79-19.22-14.25-23.47-26.17-24Z"/><path class="cls-2" d="M321.61,886.18h0a16,16,0,0,0-14.12,9.16h0c-5.85,12.34-30.55,28.87-30.55,28.87a15.1,15.1,0,0,0-5.55,14.63h0l60.27-.33,3.38-1a8.51,8.51,0,0,0,6-9l-3.46-30A16,16,0,0,0,321.61,886.18Z"/><path class="cls-3" d="M273.12,938.54h0a9,9,0,0,1,7.52-10.36l35.84-5.41a9,9,0,0,1,10.08,6.76l2.06,8.51Z"/><path class="cls-1" d="M427.42,392.85c17.25,5.22,24.76,9.63,28.86,16.56,3.32,5.62,6.45,18.49,6.7,24.9.58,15.07-8.3,52.95-23.41,65.58-15.37,12.86-90.5,12.86-105.88,0-15.11-12.63-24-50.51-23.4-65.58.25-6.41,3.37-19.28,6.69-24.9,4.1-6.93,11.62-11.34,28.87-16.56,19.73-6,39.8-5,39.8-5S407.69,386.87,427.42,392.85Z"/><path class="cls-1" d="M471,650.05a26.85,26.85,0,0,1-25.45,24.45h0a26.85,26.85,0,0,1-27.34-20.35s-18.85-88.81-20.94-120.84c-.52-7.9,4.1-83.43,4.1-83.43s-2.83-22.42,29.27-29c28.61-5.86,31.73,11.76,31.73,11.76s14.9,77.91,16,104.5C479.43,561.67,471,650.05,471,650.05Z"/><path class="cls-1" d="M447.91,632.75c12.43-.19,19.94,6.71,22.21,18.16,0,0,14.38,53.37,15.46,75,1.72,34.69-10.26,103.6-14.46,138-.92,7.53-2.67,30.27-2.67,30.27-.59,6.77-5.72,11.91-11.79,11.83h0c-6-.08-10.92-5.16-11.52-11.81,0,0-2-26.14-3.12-34.79-4.09-31.35-16.07-93.52-17.88-125.14-1.08-19,.4-77.51.4-77.51.71-19.22,12.73-23.47,23.37-24Z"/><path class="cls-4" d="M470.92,882.34c-1.21,34,40.05,38.37,40.05,38.37,4.42,3.47-67,21.84-66.62,17.8,0,0,1.46-52-1-65.21C441.56,864,471.63,862.37,470.92,882.34Z"/><path class="cls-2" d="M458.05,901.19c6.38-2.18,5.93-6.82,8.47-9.37,1.53-1.54,7.86-3.19,8.79-1.22C486,913.26,536.47,926,536.47,926c5.36,3.82,6.56,9.1,5.55,14.63h0s-43.77,9.37-67.77-1.33c-4.81-2.15-9,3.06-9,3.06s-22.42,3.73-21.16-3.06l-2.54-42.71C443.29,889.17,447.1,904.93,458.05,901.19Z"/><path class="cls-5" d="M542.54,941c.84-9-4.26-14.65-6-14.43-2.5.32-6.5,2.39-9,2.82-4,.68-15.95-.29-15.95-.29-3.07-.32-5.62,2.76-5.86,7.09l-.2,8.64s7.32,1,24.64-1.59C533.05,942.85,542.54,941,542.54,941Z"/><path class="cls-1" d="M312.43,432.86l-2.17,20.61L289,902.07l21-.92,34.83.71s12.6-142.1,15.37-175.87c1.61-19.63,2.3-59.14,5.11-78.64,4.09-28.4,25.84-111.81,25.84-111.81L392.94,432Z"/><polygon class="cls-1" points="383.89 442.62 385.53 538.24 413.1 703.99 427.55 874.92 428.66 906.04 483.45 899.68 482.54 863.37 483.26 689.13 458.97 440.48 390.11 443.07 383.89 442.62"/><path class="cls-6" d="M304.64,904.79s4.73-3.36,8.9-3.36c5.11,0,10,3.12,10,3.12"/><path class="cls-7" d="M485.82,900.44s-5.1,2.07-9,2.15"/><path class="cls-7" d="M491.48,905.4s-5,2.4-8.86,2.74"/><polygon class="cls-8" points="389.92 491.22 384.92 451.22 399.92 451.22 398.92 483.5 389.92 491.22"/></g></svg>