<svg xmlns="http://www.w3.org/2000/svg" viewBox="0 0 788 1005"><defs><style>.cls-1,.cls-8{fill:#8c543e;}.cls-2{fill:#d79072;}.cls-3{fill:#87b6c7;}.cls-4{fill:#6c9aab;}.cls-5{fill:#699aab;}.cls-6,.cls-7{fill:none;stroke-linecap:round;stroke-width:2px;}.cls-6{stroke:#699aab;}.cls-6,.cls-7,.cls-8{stroke-miterlimit:10;}.cls-7{stroke:#669aab;}.cls-8{stroke:#4f3742;}</style></defs><g id="Calque_1" data-name="Calque 1"><path class="cls-1" d="M433.78,392.13c16.16,5.22,23.2,9.63,27,16.56,3.11,5.62,6,18.49,6.27,24.9.55,15.07-7.77,53-21.92,65.58-14.41,12.86-84.8,12.86-99.2,0-14.16-12.63-22.47-50.51-21.93-65.58.23-6.41,3.16-19.28,6.27-24.9,3.84-6.93,10.89-11.34,27-16.56,18.49-6,37.3-5,37.3-5S415.29,386.15,433.78,392.13Z"/></g><g id="Calque_7" data-name="Calque 7"><polygon class="cls-1" points="230.22 479.54 230.32 479.5 230.22 479.45 230.22 479.54"/><polygon class="cls-1" points="230.32 479.5 230.42 479.54 230.42 479.45 230.32 479.5"/><polygon class="cls-1" points="230.22 479.54 230.32 479.5 230.22 479.45 230.22 479.54"/><polygon class="cls-1" points="230.32 479.5 230.42 479.54 230.42 479.45 230.32 479.5"/><path class="cls-1" d="M312.56,648.68A26.84,26.84,0,0,0,338,673.12h0a26.84,26.84,0,0,0,27.34-20.34S384.2,564,386.29,531.94c.5-7.58-.82-30.36-.82-30.36l-3.28-53.07s-3-25.06-29.27-29c-30.3-4.53-31.73,11.77-31.73,11.77s3.95,85.39,2.82,112C323,567.78,312.56,648.68,312.56,648.68Z"/><path class="cls-2" d="M336.75,631.38c-13.92-.19-22.33,6.71-24.87,18.16,0,0-7.11,55.37-8.31,77-1.93,34.69,2.48,101.61,7.19,136,1,7.53,3,30.27,3,30.27A13.11,13.11,0,0,0,327,904.68h0a13.11,13.11,0,0,0,12.9-11.81s2.23-26.14,3.5-34.79c4.58-31.35,18-93.52,20-125.14,1.22-19-.44-77.52-.44-77.52-.8-19.21-14.26-23.46-26.18-24Z"/><path class="cls-3" d="M326.26,884.8h0A16.06,16.06,0,0,0,312.14,894h0c-5.84,12.34-30.55,28.87-30.55,28.87A15.14,15.14,0,0,0,276,937.47h0l60.27-.33,3.39-1a8.54,8.54,0,0,0,6-9l-3.46-30A16,16,0,0,0,326.26,884.8Z"/><path class="cls-4" d="M277.77,937.17h0a9,9,0,0,1,7.52-10.37l35.85-5.41a9,9,0,0,1,10.07,6.77l2.06,8.51Z"/><path class="cls-1" d="M432.07,391.48c17.25,5.22,24.77,9.63,28.87,16.56,3.32,5.62,6.45,18.49,6.69,24.9.58,15.07-8.29,52.94-23.4,65.58-15.37,12.86-90.51,12.86-105.88,0-15.11-12.64-24-50.51-23.41-65.58.25-6.41,3.38-19.28,6.7-24.9,4.1-6.93,11.62-11.34,28.86-16.56,19.74-6,39.81-5,39.81-5S412.34,385.5,432.07,391.48Z"/><path class="cls-1" d="M475.65,648.68a26.83,26.83,0,0,1-25.44,24.44h0a26.83,26.83,0,0,1-27.34-20.34S404,564,401.92,531.94c-.52-7.91,4.1-83.43,4.1-83.43s-2.83-22.42,29.27-29C463.9,413.66,467,431.28,467,431.28s7.5,190.8,8.63,217.4Z"/><path class="cls-2" d="M452.56,631.38c12.44-.19,19.94,6.71,22.22,18.16,0,0,14.38,53.37,15.45,75,1.72,34.69-10.25,103.61-14.46,138-.92,7.53-2.66,30.27-2.66,30.27-.6,6.77-5.72,11.91-11.8,11.83h0c-6-.08-10.92-5.16-11.51-11.81,0,0-2-26.14-3.12-34.79-4.1-31.35-16.08-93.52-17.88-125.14-1.09-19,.39-77.52.39-77.52.71-19.21,12.73-23.46,23.37-24Z"/><path class="cls-2" d="M475.77,862.58c-7.67,44.18,39.85,56.76,39.85,56.76,4.43,3.47-67,21.84-66.61,17.8,0,0,1.45-52-1-65.21C446.21,862.65,479.19,842.89,475.77,862.58Z"/><path class="cls-3" d="M462.7,899.81c6.38-2.17,5.93-6.81,8.47-9.36,1.54-1.54,7.87-3.19,8.79-1.22,10.69,22.66,61.16,35.37,61.16,35.37,5.36,3.82,6.57,9.1,5.55,14.63h0s-43.77,9.37-67.77-1.33c-4.8-2.15-9,3.05-9,3.05s-22.42,3.73-21.15-3.05l-2.54-42.71C448,887.8,451.75,903.55,462.7,899.81Z"/><path class="cls-5" d="M547.19,939.67c.85-9-4.26-14.65-6-14.43-2.5.32-6.51,2.38-9,2.81-4,.69-16-.28-16-.28-3.07-.32-5.61,2.76-5.86,7.09l-.2,8.64s7.32,1,24.64-1.59C537.71,941.48,547.19,939.67,547.19,939.67Z"/><path class="cls-1" d="M317.08,431.49,286.35,829.63a31.29,31.29,0,0,0,24.41,33h0l31.71,2.72.2-.15a47.71,47.71,0,0,0,19.55-38.22c.19-29.8.78-79.48,2.65-102.31,1.61-19.64,28.14-171,30.95-190.45h0l1.77-103.56Z"/><path class="cls-1" d="M388.54,441.25l1.64,95.62,27.57,165.75,5.95,132.64a35.83,35.83,0,0,0,19,30h0l29.77,1.89L487.19,862h0a22.07,22.07,0,0,0,15.48-23.24l-39-399.65-68.86,2.59Z"/><path class="cls-6" d="M309.29,903.41s4.74-3.36,8.91-3.35c5.1,0,10,3.11,10,3.11"/><path class="cls-7" d="M490.47,899.07s-5.1,2.07-9,2.15"/><path class="cls-7" d="M496.13,904s-4.95,2.4-8.86,2.73"/><polygon class="cls-8" points="394.57 489.85 389.57 449.85 404.57 449.85 403.57 482.13 394.57 489.85"/></g></svg>