<svg xmlns="http://www.w3.org/2000/svg" viewBox="0 0 788 1005"><defs><style>.cls-1,.cls-8{fill:#cfab88;}.cls-2{fill:#87b6c7;}.cls-3{fill:#6c9aab;}.cls-4{fill:#d79072;}.cls-5{fill:#699aab;}.cls-6,.cls-7{fill:none;stroke-linecap:round;stroke-width:2px;}.cls-6{stroke:#699aab;}.cls-6,.cls-7,.cls-8{stroke-miterlimit:10;}.cls-7{stroke:#669aab;}.cls-8{stroke:#4f3742;}</style></defs><g id="Calque_7" data-name="Calque 7"><polygon class="cls-1" points="230.22 479.54 230.32 479.5 230.22 479.45 230.22 479.54"/><polygon class="cls-1" points="230.32 479.5 230.42 479.54 230.42 479.45 230.32 479.5"/><polygon class="cls-1" points="230.22 479.54 230.32 479.5 230.22 479.45 230.22 479.54"/><polygon class="cls-1" points="230.32 479.5 230.42 479.54 230.42 479.45 230.32 479.5"/><path class="cls-1" d="M312.56,648.68A26.84,26.84,0,0,0,338,673.12h0a26.82,26.82,0,0,0,27.3-20.19c0-.1.05-.19.07-.29.85-4,18.87-89.43,20.91-120.7.5-7.58-.82-30.36-.82-30.36l-3.27-52.87c0-.15,0-.29,0-.43-.38-2.52-4.41-25-29.24-28.77-30.3-4.53-31.73,11.77-31.73,11.77s-14.9,78.9-16,105.5C304.12,561.3,312.56,648.68,312.56,648.68Z"/><path class="cls-1" d="M336.75,631.38c-13.81-.19-22.19,6.6-24.81,17.88a5.21,5.21,0,0,0-.1.57c-.55,4.31-7.12,56-8.27,76.71-1.93,34.69,2.48,101.61,7.19,136,1,7.53,3,30.27,3,30.27A13.11,13.11,0,0,0,327,904.68h0a13.11,13.11,0,0,0,12.9-11.81s2.23-26.14,3.5-34.79c4.58-31.35,18-93.52,20-125.14,1.22-19-.44-77.52-.44-77.52-.8-19.21-14.26-23.46-26.18-24Z"/><path class="cls-2" d="M326.26,884.8h0A16.06,16.06,0,0,0,312.14,894h0c-5.84,12.34-30.55,28.87-30.55,28.87A15.14,15.14,0,0,0,276,937.47h0l60.27-.33,3.39-1a8.54,8.54,0,0,0,6-9l-3.46-30A16,16,0,0,0,326.26,884.8Z"/><path class="cls-3" d="M277.77,937.17h0a9,9,0,0,1,7.52-10.37l35.85-5.41a9,9,0,0,1,10.07,6.77l2.06,8.51Z"/><path class="cls-1" d="M432.49,395.5c17,5.22,24.47,9.63,28.53,16.56,3.28,5.62,6.37,18.49,6.61,24.9.58,15.07-8.19,53-23.13,65.58-15.19,12.86-89.44,12.86-104.64,0C324.93,489.91,316.16,452,316.73,437c.25-6.41,3.34-19.28,6.62-24.9,4-6.93,11.48-11.34,28.53-16.56,18.44-5.65,37.18-5.11,39.16-5a2.16,2.16,0,0,0,.36,0C393.53,390.39,414,389.84,432.49,395.5Z"/><path class="cls-1" d="M475.65,648.68a26.83,26.83,0,0,1-25.44,24.44h0a26.84,26.84,0,0,1-27.31-20.19c0-.1,0-.19-.07-.29-.85-4-18.86-89.43-20.91-120.7-.5-7.58,3.73-77.31,4.08-83.05q0-.33,0-.66c-.2-2.6-.7-22.57,29.29-28.72C463.9,413.66,467,431.28,467,431.28s14.9,77.9,16,104.5C484.09,560.3,475.65,648.68,475.65,648.68Z"/><path class="cls-1" d="M452.56,631.38c12.44-.19,19.94,6.71,22.22,18.16,0,0,14.38,53.37,15.45,75,1.72,34.69-10.25,103.61-14.46,138-.92,7.53-2.66,30.27-2.66,30.27-.6,6.77-5.72,11.91-11.8,11.83h0c-6-.08-10.92-5.16-11.51-11.81,0,0-2-26.14-3.12-34.79-4.1-31.35-16.08-93.52-17.88-125.14-1.09-19,.39-77.52.39-77.52.71-19.21,12.73-23.46,23.37-24Z"/><path class="cls-4" d="M475.57,881c-1.21,34,40.05,38.37,40.05,38.37,4.43,3.47-67,21.84-66.61,17.8,0,0,1.45-52-1-65.21C446.21,862.65,476.28,861,475.57,881Z"/><path class="cls-2" d="M462.7,899.81c6.38-2.17,5.93-6.81,8.47-9.36,1.54-1.54,7.87-3.19,8.79-1.22,10.69,22.66,61.16,35.37,61.16,35.37,5.36,3.82,6.57,9.1,5.55,14.63h0s-43.77,9.37-67.77-1.33c-4.8-2.15-9,3.05-9,3.05s-22.42,3.73-21.15-3.05l-2.54-42.71C448,887.8,451.75,903.55,462.7,899.81Z"/><path class="cls-5" d="M547.19,939.67c.85-9-4.26-14.65-6-14.43-2.5.32-6.51,2.38-9,2.81-4,.69-16-.28-16-.28-3.07-.32-5.61,2.76-5.86,7.09l-.2,8.64s7.32,1,24.64-1.59C537.71,941.48,547.19,939.67,547.19,939.67Z"/><path class="cls-1" d="M325.52,434l-8.32,16.38a5.26,5.26,0,0,0-.55,2.06l-23.5,448.09,21-.92,34.83.71s12.6-142.1,15.37-175.87c1.61-19.63,2.3-59.13,5.11-78.63,3.89-27,23.74-103.75,25.69-111.23a5.34,5.34,0,0,0,.16-1.2L397,435.69a5.16,5.16,0,0,0-5.21-5.24l-61.72.68A5.16,5.16,0,0,0,325.52,434Z"/><path class="cls-1" d="M388.64,446.88l1.54,89.61a3.91,3.91,0,0,0,.07.76l27.46,165.16c0,.14,0,.28.06.41L432.2,873.55l1.11,31.12,65.8-7.64V865.3L487.92,687.76,464.1,443.93a5.15,5.15,0,0,0-5.32-4.64l-63.73,2.4a5.42,5.42,0,0,1-.57,0l-.32,0A5.15,5.15,0,0,0,388.64,446.88Z"/><path class="cls-6" d="M309.29,903.41s4.74-3.36,8.91-3.35c5.1,0,10,3.11,10,3.11"/><path class="cls-7" d="M490.47,899.07s-5.1,2.07-9,2.15"/><path class="cls-7" d="M496.13,904s-4.95,2.4-8.86,2.73"/><path class="cls-8" d="M393.39,480.34l-3.09-24.7a5.14,5.14,0,0,1,5.11-5.79h3.85a5.15,5.15,0,0,1,5.15,5.31l-.77,24.7a5.13,5.13,0,0,1-1.79,3.75h0A5.15,5.15,0,0,1,393.39,480.34Z"/></g></svg>