<svg xmlns="http://www.w3.org/2000/svg" xmlns:xlink="http://www.w3.org/1999/xlink" viewBox="0 0 788 1005"><defs><style>.cls-1,.cls-3,.cls-6{fill:none;}.cls-2{clip-path:url(#clip-path);}.cls-3{stroke:#000;}.cls-3,.cls-6{stroke-linecap:round;stroke-miterlimit:10;stroke-width:2px;}.cls-4{clip-path:url(#clip-path-2);}.cls-5{fill:#844f3d;}.cls-6{stroke:#532b19;}.cls-7{fill:#713d25;}</style><clipPath id="clip-path"><rect class="cls-1" x="399.21" y="106.7" width="18.47" height="6.31"/></clipPath><clipPath id="clip-path-2"><rect class="cls-1" x="361.24" y="106.7" width="18.47" height="6.31"/></clipPath></defs><g id="Calque_7" data-name="Calque 7"><g class="cls-2"><path class="cls-3" d="M400.21,112a10.24,10.24,0,0,1,8.23-4.31,10.65,10.65,0,0,1,8.23,4.31"/></g><g class="cls-4"><path class="cls-3" d="M378.71,112a10.25,10.25,0,0,0-8.24-4.31,10.65,10.65,0,0,0-8.23,4.31"/></g><path class="cls-5" d="M396.86,133.94s-4.7,3.69-7.43,3.69c-2.58,0-7-3.6-7-3.6s5.4.73,7.21.72S396.86,133.94,396.86,133.94Z"/><path class="cls-6" d="M376.19,145.79a18.63,18.63,0,0,0,13.62,5.52,19,19,0,0,0,13.29-6.49"/><polygon class="cls-7" points="401.68 98.97 400.99 94.77 410.52 92.35 418.6 94.21 421.79 97.4 420.78 98.85 416.98 96.83 409.87 95.98 401.68 98.97"/><polygon class="cls-7" points="381.35 100.22 382.04 96.02 372.51 93.6 364.43 95.46 361.24 98.65 362.25 100.1 366.04 98.08 373.15 97.23 381.35 100.22"/></g></svg>