<svg xmlns="http://www.w3.org/2000/svg" xmlns:xlink="http://www.w3.org/1999/xlink" viewBox="0 0 158 143.67"><defs><style>.cls-1,.cls-3,.cls-6{fill:none;}.cls-2{clip-path:url(#clip-path);}.cls-3{stroke:#000;}.cls-3,.cls-6{stroke-linecap:round;stroke-miterlimit:10;stroke-width:2px;}.cls-4{clip-path:url(#clip-path-2);}.cls-5{fill:#844f3d;}.cls-6{stroke:#532b19;}.cls-7{fill:#713d25;}</style><clipPath id="clip-path"><rect class="cls-1" x="84.21" y="45.77" width="18.47" height="6.31"/></clipPath><clipPath id="clip-path-2"><rect class="cls-1" x="46.24" y="45.77" width="18.47" height="6.31"/></clipPath></defs><g id="Calque_7" data-name="Calque 7"><g class="cls-2"><path class="cls-3" d="M85.21,51.08a10.24,10.24,0,0,1,8.23-4.31,10.65,10.65,0,0,1,8.23,4.31"/></g><g class="cls-4"><path class="cls-3" d="M63.71,51.08a10.25,10.25,0,0,0-8.24-4.31,10.65,10.65,0,0,0-8.23,4.31"/></g><path class="cls-5" d="M81.86,73s-4.7,3.69-7.43,3.69-7-3.6-7-3.6,5.4.73,7.21.72S81.86,73,81.86,73Z"/><path class="cls-6" d="M61.19,84.86a18.67,18.67,0,0,0,13.62,5.52A19,19,0,0,0,88.1,83.89"/><polygon class="cls-7" points="86.68 38.04 85.99 33.84 95.52 31.42 103.59 33.28 106.79 36.47 105.78 37.92 101.98 35.9 94.87 35.05 86.68 38.04"/><polygon class="cls-7" points="66.35 39.29 67.04 35.09 57.51 32.67 49.43 34.53 46.24 37.72 47.25 39.17 51.04 37.15 58.15 36.3 66.35 39.29"/></g></svg>