<svg xmlns="http://www.w3.org/2000/svg" xmlns:xlink="http://www.w3.org/1999/xlink" viewBox="0 0 788 1005"><defs><style>.cls-1,.cls-2{fill:none;}.cls-2{stroke:#6b3a25;stroke-linecap:round;stroke-miterlimit:10;stroke-width:2px;}.cls-3{clip-path:url(#clip-path);}.cls-4{fill:#fff;}.cls-5{clip-path:url(#clip-path-2);}.cls-6{clip-path:url(#clip-path-3);}.cls-7{fill:#050505;}.cls-8{clip-path:url(#clip-path-4);}.cls-9{fill:#713d25;}.cls-10{fill:#844f3d;}</style><clipPath id="clip-path"><polygon class="cls-1" points="409.05 100.67 409.05 100.67 422.51 100.67 422.51 113.64 409.05 113.64 409.05 100.67"/></clipPath><clipPath id="clip-path-2"><polygon class="cls-1" points="387.72 100.67 387.72 100.67 374.26 100.67 374.26 113.64 387.72 113.64 387.72 100.67"/></clipPath><clipPath id="clip-path-3"><polygon class="cls-1" points="409.64 105.14 409.64 105.14 418.64 105.14 418.64 114.14 409.64 114.14 409.64 105.14"/></clipPath><clipPath id="clip-path-4"><polygon class="cls-1" points="383.26 105.14 383.26 105.14 374.26 105.14 374.26 114.14 383.26 114.14 383.26 105.14"/></clipPath></defs><g id="Calque_5" data-name="Calque 5"><path class="cls-2" d="M382.52,145s10.11,2.45,13.55,2.52,13.39-2,13.39-2"/><g class="cls-3"><ellipse class="cls-4" cx="415.78" cy="107.16" rx="6.73" ry="6.48"/></g><g class="cls-5"><ellipse class="cls-4" cx="380.99" cy="107.16" rx="6.73" ry="6.48"/></g><g class="cls-6"><circle class="cls-7" cx="414.14" cy="109.64" r="4.5"/></g><g class="cls-8"><circle class="cls-7" cx="378.76" cy="109.64" r="4.5"/></g><polygon class="cls-9" points="407.34 96.28 406.65 92.08 416.18 89.66 424.26 91.52 427.45 94.71 426.44 96.16 422.64 94.14 415.54 93.3 407.34 96.28"/><polygon class="cls-9" points="386.65 96.28 387.34 92.08 377.81 89.66 369.73 91.52 366.54 94.71 367.55 96.16 371.35 94.14 378.45 93.3 386.65 96.28"/><path class="cls-10" d="M404.24,128.88s-4.69,3.69-7.42,3.69c-2.58,0-7-3.59-7-3.59s5.4.73,7.21.71S404.24,128.88,404.24,128.88Z"/></g></svg>