<svg xmlns="http://www.w3.org/2000/svg" viewBox="0 0 158 143.67"><defs><style>.cls-1,.cls-4{fill:none;stroke-linecap:round;stroke-miterlimit:10;stroke-width:2px;}.cls-1{stroke:#000;}.cls-2{fill:#fff;}.cls-3{fill:#844f3d;}.cls-4{stroke:#532b19;}.cls-5{fill:#713d25;}</style></defs><g id="Calque_5" data-name="Calque 5"><path class="cls-1" d="M91.34,49s2.76-1.31,8.23-1.31A22,22,0,0,1,107.81,49"/><circle class="cls-2" cx="63.27" cy="48.45" r="5.28"/><circle cx="63.24" cy="48.48" r="4"/><path class="cls-3" d="M88,68s-4.69,3.69-7.42,3.69c-2.58,0-7-3.6-7-3.6s5.4.73,7.21.72S88,68,88,68Z"/><path class="cls-4" d="M67.33,82.8a18.59,18.59,0,0,0,13.61,5.52,18.92,18.92,0,0,0,13.29-6.49"/></g><g id="Calque_7" data-name="Calque 7"><polygon class="cls-5" points="88.93 37.3 90.08 33.2 99.74 35.05 107.81 37.26 113.7 40.98 111.79 43.17 105.42 39.85 97.62 38.07 88.93 37.3"/><polygon class="cls-5" points="70.62 36.52 71.3 32.32 61.77 29.89 53.7 31.75 50.51 34.94 51.52 36.4 55.31 34.38 62.42 33.53 70.62 36.52"/></g></svg>