<svg xmlns="http://www.w3.org/2000/svg" viewBox="0 0 788 1005"><defs><style>.cls-1,.cls-4{fill:none;stroke-linecap:round;stroke-miterlimit:10;stroke-width:2px;}.cls-1{stroke:#000;}.cls-2{fill:#fff;}.cls-3{fill:#844f3d;}.cls-4{stroke:#532b19;}.cls-5{fill:#713d25;}</style></defs><g id="Calque_5" data-name="Calque 5"><path class="cls-1" d="M406.34,110s2.76-1.31,8.23-1.31a22,22,0,0,1,8.24,1.31"/><circle class="cls-2" cx="378.27" cy="109.38" r="5.28"/><circle cx="378.24" cy="109.41" r="4"/><path class="cls-3" d="M403,128.88s-4.69,3.69-7.42,3.69c-2.58,0-7-3.59-7-3.59s5.4.73,7.21.71S403,128.88,403,128.88Z"/><path class="cls-4" d="M382.33,143.73a18.59,18.59,0,0,0,13.61,5.52,18.92,18.92,0,0,0,13.29-6.49"/></g><g id="Calque_7" data-name="Calque 7"><polygon class="cls-5" points="403.93 98.23 405.08 94.14 414.74 95.98 422.81 98.19 428.7 101.91 426.79 104.1 420.42 100.78 412.62 99 403.93 98.23"/><polygon class="cls-5" points="385.62 97.45 386.3 93.25 376.77 90.82 368.7 92.68 365.51 95.87 366.52 97.33 370.31 95.31 377.42 94.46 385.62 97.45"/></g></svg>