<svg xmlns="http://www.w3.org/2000/svg" viewBox="0 0 788 1005"><defs><style>.cls-1{fill:#fff;}.cls-2{fill:#844f3d;}.cls-3{fill:#532b19;}.cls-4{fill:#713d25;}</style></defs><g id="Calque_7" data-name="Calque 7"><circle class="cls-1" cx="379.84" cy="111.51" r="6.75"/><circle class="cls-1" cx="416.08" cy="111.51" r="6.75"/><circle cx="378.23" cy="110.4" r="3.89"/><circle cx="414.25" cy="110.4" r="3.89"/><path class="cls-2" d="M404.81,130.13s-4.69,3.69-7.42,3.69-7-3.59-7-3.59,5.4.73,7.21.71S404.81,130.13,404.81,130.13Z"/><path class="cls-3" d="M383.21,146.34c.24-.84,2.64-1.55,5.39-2.47,2.93-1,4.46-1.87,8.59-2.1,8.29-.48,16.58,5.26,16.58,5.26s-6.8,18.37-16.53,17.22C390.18,163.42,383.21,146.34,383.21,146.34Z"/><path class="cls-1" d="M397.15,144.88l-7.95.48-2.18-.42a37.75,37.75,0,0,1,10.87-2.36c6.46-.35,10.09,1,10.09,1l-1.59.69Z"/><path class="cls-1" d="M398.62,159.42l4.83.07,1.35.88a10.4,10.4,0,0,1-6.5,2.6,9.14,9.14,0,0,1-6.22-2.7l.94-.92Z"/><polygon class="cls-4" points="406.37 95.66 405.68 91.46 415.21 89.04 423.29 90.89 426.48 94.08 425.47 95.54 421.67 93.52 414.56 92.67 406.37 95.66"/><polygon class="cls-4" points="386.04 96.91 386.73 92.71 377.2 90.29 369.12 92.14 365.93 95.33 366.94 96.79 370.74 94.77 377.84 93.92 386.04 96.91"/></g></svg>