<?xml version="1.0" encoding="utf-8"?>
<!-- Generator: Adobe Illustrator 26.0.1, SVG Export Plug-In . SVG Version: 6.00 Build 0)  -->
<svg version="1.1" id="Calque_1" xmlns="http://www.w3.org/2000/svg" xmlns:xlink="http://www.w3.org/1999/xlink" x="0px" y="0px"
	 viewBox="0 0 788 1005" style="enable-background:new 0 0 788 1005;" xml:space="preserve">
<style type="text/css">
	.st0{clip-path:url(#SVGID_00000126313227289063731120000000937154766019400582_);}
	.st1{fill:none;stroke:#000000;stroke-width:2;stroke-linecap:round;stroke-miterlimit:10;}
	.st2{clip-path:url(#SVGID_00000050656368013346469020000011750891932941568163_);}
	.st3{fill:#844F3D;}
	.st4{fill:none;stroke:#532B19;stroke-width:2;stroke-linecap:round;stroke-miterlimit:10;}
	.st5{fill:#713D25;}
</style>
<g id="Calque_7">
	<g>
		<defs>
			<rect id="SVGID_1_" x="404.2" y="106.7" width="18.5" height="6.3"/>
		</defs>
		<clipPath id="SVGID_00000170259410799842100220000014208603068779240585_">
			<use xlink:href="#SVGID_1_"  style="overflow:visible;"/>
		</clipPath>
		<g style="clip-path:url(#SVGID_00000170259410799842100220000014208603068779240585_);">
			<path class="st1" d="M405.2,112c1.9-2.7,5-4.3,8.2-4.3c3.3,0.1,6.3,1.7,8.2,4.3"/>
		</g>
	</g>
	<g>
		<defs>
			<rect id="SVGID_00000049185824029642868710000004065192574857197702_" x="366.2" y="106.7" width="18.5" height="6.3"/>
		</defs>
		<clipPath id="SVGID_00000046328637118175960750000001761462112081174206_">
			<use xlink:href="#SVGID_00000049185824029642868710000004065192574857197702_"  style="overflow:visible;"/>
		</clipPath>
		<g style="clip-path:url(#SVGID_00000046328637118175960750000001761462112081174206_);">
			<path class="st1" d="M383.7,112c-1.9-2.7-5-4.3-8.2-4.3c-3.3,0.1-6.3,1.7-8.2,4.3"/>
		</g>
	</g>
	<path class="st3" d="M401.9,133.9c0,0-4.7,3.7-7.4,3.7c-2.6,0-7-3.6-7-3.6s5.4,0.7,7.2,0.7S401.9,133.9,401.9,133.9z"/>
	<path class="st4" d="M381.2,145.8c3.6,3.6,8.5,5.6,13.6,5.5c5.1-0.3,9.9-2.6,13.3-6.5"/>
	<polygon class="st5" points="406.7,99 406,94.8 415.5,92.3 423.6,94.2 426.8,97.4 425.8,98.8 422,96.8 414.9,96 	"/>
	<polygon class="st5" points="386.4,100.2 387,96 377.5,93.6 369.4,95.5 366.2,98.7 367.2,100.1 371,98.1 378.1,97.2 	"/>
</g>
</svg>
