<svg xmlns="http://www.w3.org/2000/svg" xmlns:xlink="http://www.w3.org/1999/xlink" viewBox="0 0 788 1005"><defs><style>.cls-1{fill:none;}.cls-2{fill:#eaeaea;}.cls-3{clip-path:url(#clip-path);}.cls-4{fill:#fff;}.cls-5{clip-path:url(#clip-path-2);}.cls-6{clip-path:url(#clip-path-3);}.cls-7{fill:#050505;}.cls-8{clip-path:url(#clip-path-4);}.cls-9{fill:#713d25;}</style><clipPath id="clip-path"><polygon class="cls-1" points="404.39 102.05 404.39 102.05 417.85 102.05 417.85 115.01 404.39 115.01 404.39 102.05"/></clipPath><clipPath id="clip-path-2"><polygon class="cls-1" points="383.07 102.05 383.07 102.05 369.61 102.05 369.61 115.01 383.07 115.01 383.07 102.05"/></clipPath><clipPath id="clip-path-3"><polygon class="cls-1" points="404.99 106.51 404.99 106.51 413.99 106.51 413.99 115.51 404.99 115.51 404.99 106.51"/></clipPath><clipPath id="clip-path-4"><polygon class="cls-1" points="378.61 106.51 378.61 106.51 369.61 106.51 369.61 115.51 378.61 115.51 378.61 106.51"/></clipPath></defs><g id="Calque_7" data-name="Calque 7"><path class="cls-2" d="M392.41,171.79c-2.54,0-9.86-1.74-9.86-1.74l-22.64-18-.67-14.76h0l5.17-5.71,11.92-11,15.47-6.85,21,7.55,11.47,19.56h0l.95,11.26-22.64,18S395,171.81,392.41,171.79Z"/><g class="cls-3"><ellipse class="cls-4" cx="411.12" cy="108.53" rx="6.73" ry="6.48"/></g><g class="cls-5"><ellipse class="cls-4" cx="376.34" cy="108.53" rx="6.73" ry="6.48"/></g><g class="cls-6"><circle class="cls-7" cx="409.49" cy="111.01" r="4.5"/></g><g class="cls-8"><circle class="cls-7" cx="374.11" cy="111.01" r="4.5"/></g><polygon class="cls-9" points="403.03 96.28 402.34 92.08 411.87 89.66 419.95 91.52 423.14 94.71 422.13 96.16 418.33 94.14 411.23 93.3 403.03 96.28"/><polygon class="cls-9" points="382.7 97.53 383.39 93.33 373.86 90.91 365.78 92.77 362.59 95.96 363.6 97.41 367.4 95.39 374.51 94.55 382.7 97.53"/></g></svg>