<svg xmlns="http://www.w3.org/2000/svg" viewBox="0 0 788 1005"><defs><style>.cls-1{fill:#fff;}.cls-2{fill:#080808;stroke:#000;}.cls-2,.cls-4{stroke-miterlimit:10;}.cls-3{fill:#844f3d;}.cls-4{fill:#532b19;stroke:#532b19;stroke-linecap:round;}.cls-5{fill:#713d25;}</style></defs><g id="Calque_7" data-name="Calque 7"><circle class="cls-1" cx="427.09" cy="106.2" r="6.75"/><circle class="cls-1" cx="392.24" cy="106.2" r="6.75"/><circle class="cls-2" cx="394.32" cy="106.34" r="4"/><circle class="cls-2" cx="429.26" cy="106.34" r="4"/><path class="cls-3" d="M418.21,128.43s-4.69,3.69-7.42,3.69-7-3.6-7-3.6,5.4.73,7.21.72S418.21,128.43,418.21,128.43Z"/><ellipse class="cls-4" cx="410.63" cy="147.89" rx="2.88" ry="4.5"/><polygon class="cls-5" points="420.48 93.47 419.8 89.28 429.32 86.85 437.4 88.71 440.59 91.9 439.58 93.35 435.79 91.33 428.68 90.49 420.48 93.47"/><polygon class="cls-5" points="400.15 93.47 400.84 89.28 391.31 86.85 383.24 88.71 380.05 91.9 381.05 93.35 384.85 91.33 391.96 90.49 400.15 93.47"/></g></svg>