<svg xmlns="http://www.w3.org/2000/svg" xmlns:xlink="http://www.w3.org/1999/xlink" viewBox="0 0 788 1005"><defs><style>.cls-1,.cls-2{fill:none;}.cls-2{stroke:#6b3a25;stroke-linecap:round;stroke-miterlimit:10;stroke-width:2px;}.cls-3{clip-path:url(#clip-path);}.cls-4{fill:#fff;}.cls-5{clip-path:url(#clip-path-2);}.cls-6{clip-path:url(#clip-path-3);}.cls-7{fill:#050505;}.cls-8{clip-path:url(#clip-path-4);}.cls-9{fill:#713d25;}</style><clipPath id="clip-path"><polygon class="cls-1" points="409.05 100.67 409.05 100.67 422.51 100.67 422.51 113.64 409.05 113.64 409.05 100.67"/></clipPath><clipPath id="clip-path-2"><polygon class="cls-1" points="387.72 100.67 387.72 100.67 374.26 100.67 374.26 113.64 387.72 113.64 387.72 100.67"/></clipPath><clipPath id="clip-path-3"><polygon class="cls-1" points="409.64 105.14 409.64 105.14 418.64 105.14 418.64 114.14 409.64 114.14 409.64 105.14"/></clipPath><clipPath id="clip-path-4"><polygon class="cls-1" points="383.26 105.14 383.26 105.14 374.26 105.14 374.26 114.14 383.26 114.14 383.26 105.14"/></clipPath></defs><g id="Calque_5" data-name="Calque 5"><path class="cls-2" d="M389.56,131.27s5.66,3.38,7.56,3.33,7.06-3.3,7.06-3.3"/><path class="cls-2" d="M382.55,144.39s10,2.9,13.42,3.13,13.46-1.33,13.46-1.33"/><g class="cls-3"><ellipse class="cls-4" cx="415.78" cy="107.16" rx="6.73" ry="6.48"/></g><g class="cls-5"><ellipse class="cls-4" cx="380.99" cy="107.16" rx="6.73" ry="6.48"/></g><g class="cls-6"><circle class="cls-7" cx="414.14" cy="109.64" r="4.5"/></g><g class="cls-8"><circle class="cls-7" cx="378.76" cy="109.64" r="4.5"/></g><polygon class="cls-9" points="408.55 96.91 407.86 92.71 417.39 90.29 425.47 92.14 428.66 95.33 427.65 96.79 423.85 94.77 416.74 93.92 408.55 96.91"/><polygon class="cls-9" points="388.22 98.16 388.91 93.96 379.38 91.54 371.3 93.39 368.11 96.58 369.12 98.04 372.92 96.02 380.02 95.17 388.22 98.16"/></g></svg>