<svg xmlns="http://www.w3.org/2000/svg" xmlns:xlink="http://www.w3.org/1999/xlink" viewBox="0 0 158 143.67"><defs><style>.cls-1,.cls-2{fill:none;}.cls-2{stroke:#6b3a25;stroke-linecap:round;stroke-miterlimit:10;stroke-width:2px;}.cls-3{clip-path:url(#clip-path);}.cls-4{fill:#fff;}.cls-5{clip-path:url(#clip-path-2);}.cls-6{clip-path:url(#clip-path-3);}.cls-7{fill:#050505;}.cls-8{clip-path:url(#clip-path-4);}.cls-9{fill:#713d25;}</style><clipPath id="clip-path"><polygon class="cls-1" points="94.05 39.74 94.05 39.74 107.51 39.74 107.51 52.71 94.05 52.71 94.05 39.74"/></clipPath><clipPath id="clip-path-2"><polygon class="cls-1" points="72.72 39.74 72.72 39.74 59.26 39.74 59.26 52.71 72.72 52.71 72.72 39.74"/></clipPath><clipPath id="clip-path-3"><polygon class="cls-1" points="94.64 44.21 94.64 44.21 103.64 44.21 103.64 53.21 94.64 53.21 94.64 44.21"/></clipPath><clipPath id="clip-path-4"><polygon class="cls-1" points="68.26 44.21 68.26 44.21 59.26 44.21 59.26 53.21 68.26 53.21 68.26 44.21"/></clipPath></defs><g id="Calque_5" data-name="Calque 5"><path class="cls-2" d="M74.56,70.34s5.66,3.38,7.56,3.33,7.06-3.3,7.06-3.3"/><path class="cls-2" d="M67.55,83.46s10,2.9,13.42,3.13,13.46-1.33,13.46-1.33"/><g class="cls-3"><ellipse class="cls-4" cx="100.78" cy="46.23" rx="6.73" ry="6.48"/></g><g class="cls-5"><ellipse class="cls-4" cx="65.99" cy="46.23" rx="6.73" ry="6.48"/></g><g class="cls-6"><circle class="cls-7" cx="99.14" cy="48.71" r="4.5"/></g><g class="cls-8"><circle class="cls-7" cx="63.76" cy="48.71" r="4.5"/></g><polygon class="cls-9" points="93.55 35.98 92.86 31.78 102.39 29.36 110.47 31.21 113.66 34.41 112.65 35.86 108.85 33.84 101.74 32.99 93.55 35.98"/><polygon class="cls-9" points="73.22 37.23 73.91 33.03 64.38 30.61 56.3 32.47 53.11 35.66 54.12 37.11 57.91 35.09 65.02 34.24 73.22 37.23"/></g></svg>