<svg xmlns="http://www.w3.org/2000/svg" viewBox="0 0 158 143.67"><defs><style>.cls-1{fill:#fff;}.cls-2{fill:#844f3d;}.cls-3{fill:#532b19;}.cls-4{fill:#713d25;}</style></defs><g id="Calque_7" data-name="Calque 7"><circle class="cls-1" cx="64.84" cy="50.58" r="6.75"/><circle class="cls-1" cx="101.08" cy="50.58" r="6.75"/><circle cx="63.23" cy="49.47" r="3.89"/><circle cx="99.25" cy="49.47" r="3.89"/><path class="cls-2" d="M89.81,69.2s-4.69,3.69-7.42,3.69-7-3.59-7-3.59,5.4.73,7.21.71S89.81,69.2,89.81,69.2Z"/><path class="cls-3" d="M68.21,85.41c.24-.84,2.64-1.55,5.39-2.47,2.93-1,4.46-1.87,8.59-2.1,8.29-.48,16.58,5.26,16.58,5.26S92,104.47,82.24,103.32C75.18,102.49,68.21,85.41,68.21,85.41Z"/><path class="cls-1" d="M82.15,84l-8,.48L72,84a37.75,37.75,0,0,1,10.87-2.36c6.46-.35,10.09,1,10.09,1l-1.59.69Z"/><path class="cls-1" d="M83.62,98.49l4.83.07,1.35.88a10.4,10.4,0,0,1-6.5,2.6,9.14,9.14,0,0,1-6.22-2.7l.94-.92Z"/><polygon class="cls-4" points="91.37 34.73 90.68 30.53 100.21 28.11 108.29 29.96 111.48 33.16 110.47 34.61 106.67 32.59 99.56 31.74 91.37 34.73"/><polygon class="cls-4" points="71.04 35.98 71.73 31.78 62.2 29.36 54.12 31.21 50.93 34.41 51.94 35.86 55.74 33.84 62.84 32.99 71.04 35.98"/></g></svg>