<?xml version="1.0" encoding="utf-8"?>
<!-- Generator: Adobe Illustrator 26.0.2, SVG Export Plug-In . SVG Version: 6.00 Build 0)  -->
<svg version="1.1" id="Layer_1" xmlns="http://www.w3.org/2000/svg" xmlns:xlink="http://www.w3.org/1999/xlink" x="0px" y="0px"
	 viewBox="0 0 788 371" style="enable-background:new 0 0 788 371;" xml:space="preserve">
<style type="text/css">
	.st0{fill:#D48F72;}
	.st1{fill:#D08D72;}
	.st2{fill:#BF7F75;}
	.st3{fill:#967E9B;}
	.st4{fill:#ABCADD;}
	.st5{fill:#B899BF;}
	.st6{fill:#ACCADD;}
	.st7{fill:#9498B9;}
</style>
<path class="st0" d="M120.5,280.8c-0.5-0.7-1.3-1.3-2.1-1.6c-4.2-1.6-17.7-6.5-20.2-6.3c-3,0.2-15.8,3.2-18.2,3s-16.6-5.3-16.8-3.5
	c-0.1,1-0.2,3.6-0.2,5.7c0,1.8,1,3.5,2.7,4.4l7.7,3.8c0.6,0.3,1.3,0.5,2,0.5l13.7,0.3l-17.8,13.5c-0.2,0.2-0.5,0.3-0.7,0.5
	c-3.3,1.7-27.1,13.6-28.8,14c-0.7,0.1-0.7,1.4-0.5,3c0.5,3.1,3.7,5,6.6,3.7l29.5-12.6L49,331.5c-2.1,1.6-2.4,4.6-0.8,6.7l0.1,0.1
	c1.6,2.1,4.7,2.5,6.8,0.8l30.5-24l-25.4,28.2c-2.1,2.4-1.4,6.1,1.4,7.5h0c1.9,0.9,4.2,0.5,5.6-1l24.8-25.8L80,345.3
	c-1.5,2.7-0.1,6.2,3,7c1.6,0.4,3,0.5,3.4-0.2c1-1.8,14.3-19.9,16.6-23.1c0.2-0.3,0.5-0.6,0.8-0.9l25.9-21.4c0.9-0.8,1.5-1.8,1.7-3
	l0.8-5.4c0.2-1.3-0.1-2.6-0.9-3.7L120.5,280.8z"/>
<path class="st1" d="M512.4,112.3c-0.6,38.4-26.2,33.2-36.9,42.3c-12.6,10.8-8.3,50-17.2,64c-2.5,3.8-11.4,10.1-15.8,9.1
	c-12.5-2.9-24-30.7-34.8-37.7c-6.3-4.1-23.6-3.6-30.2,0c-11.2,6.2-22.3,34.9-34.8,37.7c-4.4,1-13.4-5.2-15.8-9.1
	c-8.9-14-4.6-53.2-17.2-64c-10.6-9.1-36.2-3.9-36.9-42.3c-0.4-26.6,35-37.3,35-37.3l40.1-19.9c2.6-1.3,5-2.9,7.1-4.8
	c0.8-0.7,1.6-1.5,2.3-2.3l0.6-0.7v-0.1c3.9-4.7,6.4-10.3,7.2-16.4c0.2-1.4,0.3-2.8,0.2-4.2v-2.8v-4.5h53.6l0.1,5v1.5V29
	c0,0.3,0,0.7,0,1l0,0c0,0.6,0.1,1.3,0.2,2c0.2,1.5,0.5,3.1,0.9,4.6c2.2,7.7,7.6,14,14.7,17.6l40.5,20.1c1,0.5,2.1,1,3.2,1.3
	C485.5,77.8,512.8,89,512.4,112.3z"/>
<path class="st0" d="M420,67.5L392.5,100l-14.8-17.7l-12.4-14.8l0.7-41.6v-2.2l0.1-4.5h53v0.2l0.1,4.7l0,0v1.6l0.1,4.2l0,0v1.3
	l0.1,6.8L420,67.5z"/>
<path class="st2" d="M420.5,36.8l-1,1.2c-5.2,6.3-28.8,35-41.8,44.3c-3.2,2.3-5.7,3.4-7.2,2.7c-6.8-3.3-14.8-35.1-14.8-35.1l0.1-0.1
	c0.6-0.6,1.2-1.2,1.7-1.9c0.3-0.4,0.7-0.8,1-1.3l0.1-0.1c3.3-4.5,5.5-9.7,6.7-15.2c0-0.2,0.1-0.4,0.1-0.6c0.3-1.4,0.5-3,0.7-4.8
	c0.1-0.7,0.1-1.4,0.2-2.2c0.1-1.4,0.2-2.9,0.3-4.5h52.7v0.2v4.3v6.7l0.1,0.8l0.1,0.7l0.9,4.6L420.5,36.8z"/>
<path class="st0" d="M276.8,220.3c-9.7-15-32.4-8.3-40.5-5.5s-23.1,12.1-30.6,16.7c-18.9,11.6-75.5,47.9-96.4,54.1
	c-14.6,4.4,7.5,25,7.5,25s15.5-9,25.7-12.6c21.4-7.6,52.1-11.5,87.9-22.8c9.4-3,27.2-12.2,34.9-18.3
	C286.8,240,279.7,224.6,276.8,220.3z"/>
<path class="st0" d="M667.6,280.7c0.5-0.7,1.3-1.2,2.1-1.5c4.2-1.6,17.7-6.5,20.2-6.3c3,0.2,15.8,3.2,18.2,3s16.5-5.3,16.8-3.5
	c0.2,1,0.2,3.6,0.2,5.7c0,1.8-1.1,3.5-2.7,4.2l-7.8,3.8c-0.6,0.3-1.3,0.5-2,0.5l-13.7,0.3l17.8,13.5c0.2,0.2,0.5,0.3,0.7,0.5
	c3.3,1.7,27.1,13.6,28.8,14c0.7,0.2,0.7,1.5,0.4,3.1c-0.5,3.1-3.8,4.9-6.6,3.7l-29.6-12.6l28.5,22.4c2.1,1.6,2.4,4.6,0.8,6.7
	l-0.1,0.1c-1.6,2.1-4.7,2.5-6.8,0.8l-30.5-24l25.4,28.2c2.1,2.4,1.4,6.1-1.4,7.5l0,0c-1.9,0.9-4.2,0.5-5.6-1L696,324.1l11.9,21.2
	c1.5,2.7,0.1,6.2-3,7c-1.6,0.4-3,0.5-3.4-0.2c-1-1.8-14.3-19.9-16.6-23.1c-0.2-0.3-0.5-0.6-0.8-0.9l-25.9-21.4
	c-0.9-0.8-1.5-1.8-1.7-3l-0.8-5.3c-0.2-1.3,0.2-2.6,1-3.7L667.6,280.7z"/>
<path class="st0" d="M511.3,220.3c9.7-15,32.4-8.3,40.5-5.5s23.1,12.1,30.5,16.7c19,11.6,75.5,47.9,96.4,54.1
	c14.6,4.4-7.5,25-7.5,25s-15.5-9-25.7-12.6c-21.4-7.6-52.1-11.5-87.9-22.8c-9.4-3-27.2-12.2-34.9-18.3
	C501.3,240,508.4,224.6,511.3,220.3z"/>
<path class="st0" d="M460.8,115.8c-2.3,26.7,14.3,52.1,14.3,52.1s26.7,52.8,35.3,70.5c4,8.4,12.2,25.9,32.7,15.6l0,0
	c16.8-8.5,12-26.8,8.9-35.2c-6.4-17.1-22.7-50.3-26.1-68.1c-2.6-13.3-1.5-34.9-17.3-50.9c0,0-11.6-14.7-29.1-8.2l-0.7,0.3
	C468.6,95.7,461.6,105.1,460.8,115.8L460.8,115.8z"/>
<path class="st0" d="M333.2,108.4c2.3,27.5-15.8,54.1-15.8,54.1s-29.2,55-38.7,73.5c-4.5,8.7-13.4,27-35.5,16.5l0,0
	c-18.2-8.7-12.9-27.7-9.4-36.4c7-17.8,24.9-52.3,28.8-70.8c2.8-13.8,10.1-42.8,27.4-59.6c0,0,4.3-8.6,23.3-2.2l0.7,0.2
	C324.7,87.3,332.3,97,333.2,108.4L333.2,108.4z"/>
<polygon class="st3" points="310.5,318.8 308,284.7 478.1,288.4 474.2,312.8 "/>
<path class="st4" d="M497.8,82.6l14.5,10.7c13.8,10.2,25.2,23.1,33.5,38.1l7.1,12.8c2.1,3.9,1.6,8.7-1.4,11.9
	c-12,13.2-42.6,45.6-54.1,57.7c-2,2.1-5.5,1.3-6.3-1.4c-3.9-12.1-12.3-38.1-13.2-38.9c-1.2-1.1-5.6-43.9-6.4-43.5
	s13.1-40.7,13.5-42.5S497.8,82.6,497.8,82.6"/>
<path class="st5" d="M302.6,275c2.2-9.8,3-19.9,1.9-29.9l-8.9-79.7l-6.7-82.5l11.1-5.8l53.9-27.9l42.8,52.5L433,52.5l64.7,30
	l-10.4,101L476,236.2c-2.6,12.1-1.8,24.7,2,36.5c2,6.2,3.4,12.5,2.3,15.6l-2.9,7.2l-168.2,2.4l-4-5.8C301.4,286,301.5,280,302.6,275
	z"/>
<path class="st6" d="M350.7,53.6l13.4-18.3l1.2,16.7c0.3,3.8,1.8,7.4,4.4,10.1l18.6,19.7l-15.9,24.4L350.7,53.6z"/>
<path class="st6" d="M435.1,55.5L420,34.6l-0.2,18.2c0,4-1.5,7.8-4.1,10.8L400.5,81l18.7,23.3L435.1,55.5z"/>
<polygon class="st7" points="388.3,81.8 396.8,101.8 396.8,101.8 372.4,106.2 "/>
<polygon class="st7" points="396.5,101.8 400.5,81 419.2,104.3 396.5,101.8 "/>
<path class="st4" d="M299.8,202.8c-1.4,0.5-3.4,7.8-5.4,13c-0.5,1.4-2.3,1.9-3.5,0.9c-10.3-8.4-49.6-41.8-59.5-50.1
	c-1.3-1.1-1.6-2.9-0.9-4.4c4-7.7,15.9-32,28.3-48.9C273.6,92.9,289,83,289,83"/>
</svg>
