<?xml version="1.0" encoding="utf-8"?>
<!-- Generator: Adobe Illustrator 26.0.2, SVG Export Plug-In . SVG Version: 6.00 Build 0)  -->
<svg version="1.1" id="Calque_1" xmlns="http://www.w3.org/2000/svg" xmlns:xlink="http://www.w3.org/1999/xlink" x="0px" y="0px"
	 viewBox="0 0 788 1005" style="enable-background:new 0 0 788 1005;" xml:space="preserve">
<style type="text/css">
	.st0{fill:#1A1818;}
	.st1{fill:#473415;}
	.st2{fill:#FFFFFF;}
	.st3{fill:#472E1D;}
	.st4{fill:#D48F72;}
	.st5{fill:#5C1B00;}
	.st6{fill:#A85B3B;}
	.st7{fill:#D08D72;}
	.st8{fill:#BF7F75;}
	.st9{fill:#555746;}
	.st10{fill:none;stroke:#000000;stroke-width:3;stroke-miterlimit:10;}
	.st11{fill:#904B43;}
	.st12{fill:#C5A574;}
</style>
<polygon class="st0" points="230.3,514 230.2,514 230.2,514 "/>
<polygon points="230.4,514 230.4,514 230.3,514 "/>
<polygon class="st0" points="230.3,514 230.2,514 230.2,514 "/>
<polygon points="230.4,514 230.4,514 230.3,514 "/>
<polygon class="st1" points="316.7,487.9 318.2,467 473.2,467 475.2,485.1 "/>
<path class="st2" d="M368.7,220.8l-7.8,9.8l18,41c0,0,7.1-16.7,11.8-21C392.4,249,368.7,220.8,368.7,220.8z"/>
<ellipse class="st3" cx="463.9" cy="460.9" rx="4.7" ry="4.3"/>
<path class="st4" d="M204.5,252.7c-2.5-7.2-8.3-23-12.2-33.7c-2.3-6.2,0.4-13.2,6.2-16.3c5.1-2.8,10.2-5.8,9.9-7
	c-0.5-1.9-3.5-23.4-4.8-32.3c-0.3-2.2,1.1-4.3,3.3-4.8l0.7-0.2c2.5-0.6,4.9,1,5.4,3.5l6.3,36.3l4.1-26.3c0.4-2.7,3.3-4.4,5.9-3.4
	l1.2,0.5c1.8,0.7,2.9,2.5,2.8,4.4l-2.2,34.2c-0.1,0.9,0.1,1.7,0.6,2.5l4,6.9c2,3.4,2.3,7.6,0.7,11.2l-9.1,21.2
	c-0.5,1.3-1.6,2.2-3,2.5l-14.8,3.7C207.5,256.1,205.3,254.9,204.5,252.7z"/>
<polygon class="st5" points="227.9,535.7 228,535.6 227.9,535.6 "/>
<polygon class="st5" points="228,535.6 228.1,535.7 228.1,535.6 "/>
<polygon class="st5" points="227.9,535.7 228,535.6 227.9,535.6 "/>
<polygon class="st5" points="228,535.6 228.1,535.7 228.1,535.6 "/>
<path class="st4" d="M513.5,299.9c-0.6,38.4-26.2,33.2-36.9,42.3c-12.6,10.8-8.3,50-17.2,64c-2.5,3.8-11.4,10.1-15.8,9.1
	c-12.5-2.9-24-30.7-34.8-37.7c-6.3-4.1-23.6-3.6-30.2,0c-11.2,6.2-22.3,34.9-34.8,37.7c-4.4,1-13.4-5.2-15.8-9.1
	c-8.9-14-4.6-53.2-17.2-64c-10.6-9.1-36.2-3.9-36.9-42.3c-0.4-26.6,35-37.3,35-37.3l40.1-19.9c2.6-1.3,5-2.9,7.1-4.8
	c0.8-0.7,1.6-1.5,2.3-2.3l0.6-0.7v-0.1c3.9-4.7,6.5-10.4,7.2-16.4c0.2-1.4,0.3-2.8,0.2-4.2v-2.8v-4.5H420l0.1,5v1.5v3.2
	c0,0.3,0,0.7,0,1l0,0c0,0.6,0.1,1.3,0.2,1.9c0.2,1.5,0.5,3.1,0.9,4.6c2.2,7.7,7.6,14,14.7,17.6l40.5,20.1c1,0.5,0.9,4.1,2,4.4
	C485.4,268.6,513.9,276.6,513.5,299.9z"/>
<path class="st4" d="M215.8,416.6c17.7-2.2,21.5-25.6,22.4-34.1s-0.9-26.1-1.8-34.8c-2.3-22.1-10.5-88.8-7.1-110.3
	c2.4-15-25.8-4-25.8-4s1.4,17.9,0.3,28.6c-2.4,22.5-12.1,52-17.4,89.1c-1.4,9.8-0.7,29.8,1.4,39.3
	C193.7,417,210.6,417.3,215.8,416.6z"/>
<path class="st5" d="M333,307c-8.5,26.3-35.5,43.8-35.5,43.8s-48.2,39.4-64.1,52.8c-7.5,6.3-22.8,19.7-39.1,1.5l0,0
	c-13.4-15-1.2-30.5,5.4-37.2c13.3-13.7,43.2-38.6,53.9-54.2c7.9-11.6,15.6-32.6,38-41.5c0,0,17.5-9.3,32.6,4l0.6,0.5
	C333.3,284.2,336.5,296.1,333,307z"/>
<polygon class="st6" points="508.8,490.7 504.7,497.4 508,509.9 512,521.9 517.6,515.9 527.7,508.9 "/>
<path class="st7" d="M518.6,503.1c2,3.2,3.1,9-3,14.8c0,0-17.6,20.2-25.4,24.3c-3.5,1.8-12.8,6.3-15.4,3.3
	c-7.3-8.4-12.1-28.6-9.7-41.7c0.7-3.9,9.4-8.1,13.3-8.8c4.3-0.8,13,2.6,17.3,2.8c2.4,0,4.8-0.1,7.2-0.4
	C508.8,496.9,515.8,498.7,518.6,503.1z"/>
<path class="st8" d="M420.3,240.4l-0.6-32.9c-0.1-0.3-0.2-0.5-0.4-0.8l-11.3-1.8c-9-1.4-18.1-1.5-27.1-0.2l-14.4,2.1
	c0,0-0.6,23-6.2,24.9c-6.1,4.2,3.3,29.8,3.3,29.8c5.4,2.8,13.5,3.7,20,3.7C399.8,265.2,414.1,255,420.3,240.4z"/>
<polygon points="227.9,542.1 228,542.1 227.9,542 "/>
<polygon points="228,542.1 228.1,542.1 228.1,542 "/>
<polygon points="227.9,542.1 228,542.1 227.9,542 "/>
<polygon points="228,542.1 228.1,542.1 228.1,542 "/>
<polygon class="st1" points="314.4,513.9 315.9,491.4 470.9,491.4 472.9,510.9 "/>
<circle class="st3" cx="461.6" cy="484.7" r="4.7"/>
<path class="st9" d="M519.1,464.2l-6.2-13.5c0-0.1-0.1-0.2-0.1-0.3L502,407.1c0-0.1-0.1-0.3,0-0.4l1.6-26.9c0-0.1,0-0.2,0-0.2
	l-7.9-84.1c0-0.4-0.2-0.7-0.5-0.9L447,248.7c-0.6-0.6-1.6-0.5-2.2,0.2l-49.8,63c-0.6,0.8-1.8,0.7-2.3,0l-49.9-65.5
	c-0.4-0.6-1.2-0.7-1.8-0.4l-57.9,26.8c-0.2,0.1-0.3,0.2-0.4,0.3L262,294.6c0,0.1-0.1,0.1-0.1,0.2L242,322.7
	c-0.8,1.1-2.6,0.6-2.7-0.7l-2.3-25.2c-0.1-0.9-1-1.6-1.9-1.3h0c-0.9,0.3-1.9-0.3-1.9-1.3l-0.7-9.9c-0.1-0.9-0.9-1.5-1.8-1.3
	l-36.2,7.8c-0.6,0.1-1.1,0.7-1.2,1.4l-1.1,18.3c0,0.6-0.5,1.1-1,1.3l-6.9,2.1c-0.6,0.2-1,0.7-1,1.3l-4.4,66
	c-0.7,11.3,3.8,22.2,12.2,29.7l4.1,3.6c7.7,6.8,19,7.7,27.6,2.1l89.5-57.3c1-0.6,2.2,0,2.3,1.2l2.5,67.5c0,0.1,0,0.2,0,0.3
	l-7.7,48.4c0,0.1,0,0.2,0,0.3l0.8,35.5c0,0.8,0.7,1.5,1.5,1.4l166.6-2.4c0.9,0,1.5-0.8,1.5-1.6l-3.9-44.8c0,0,0-0.1,0-0.1l-5.3-33.6
	c0-0.1,0-0.2,0-0.3l2.3-84.6"/>
<path class="st10" d="M461.2,301c-6.4,26.9,7.5,55.9,7.5,55.9s20.6,58.8,27.2,78.5c3.1,9.3,9.2,28.7,32.6,21.7l0,0
	c19.3-5.8,16.9-25.4,14.8-34.5c-4.2-18.6-16.7-55.5-17.7-74.4c-0.7-14.1,3.7-36-10.8-55.3c0,0-10.1-17.1-29.9-13.5l-0.8,0.1
	C472.8,281.4,463.8,289.9,461.2,301L461.2,301z"/>
<path class="st11" d="M431.7,251.1c0,0,53.8,21.1,70.1,31.9c28.6,18.9-18,83.4-18,83.4l-10.3,72.3l5,74.7l-7.7,13.1l-153.3,0.9
	l-8.3-13.2l0.6-72c0,0,15.2-58.5,4.6-72.1c-23.8-30.7-21.8-93.8-21.8-93.8l63.7-25.2c0,0,16.9,43.7,39.9,41.3
	C422.1,289.7,431.7,251.1,431.7,251.1z"/>
<path class="st9" d="M301.2,520.6l0.4-25h47.1l0.6,31.3c0.1,7.1-6.5,12.4-13.4,10.8l-26.4-6.3C304.6,530.1,301.2,525.7,301.2,520.6z
	"/>
<path class="st4" d="M446.5,527.3l28.9-12.7c1.9-0.8,4.1-0.8,5.9,0.1c7,3.3,24,11.9,21.7,16c-2.1,3.8-3.5,10.7-4.1,14.2
	c-0.3,1.5-0.9,2.8-2,3.8l-5.7,5.7c-2.7,2.7-6.9,2.8-9.8,0.4c-6.7-5.8-17.6-15.5-17.6-16.6c0-1.1-7.1,1-12.3,2.6
	c-3,1-6.3-0.2-8.1-2.8l0,0C441,534.2,442.4,529.1,446.5,527.3z"/>
<path class="st12" d="M362.4,229.8L354,351v160.7c0,4-3.9,6.8-7.7,5.5l-47.3-16.1c-2.3-0.8-3.8-2.8-4-5.2l-8.8-148.1l-4.8-74.9
	L362.4,229.8z"/>
<path class="st9" d="M362.2,232.8c0,0-1.6,19.3,1.5,24.5c3.7,6.1,13.9,9.8,20,11.6c2.6,0.8,4.2,3.5,3.4,6.2l-2.7,9.5
	c-0.8,2.7-3.6,4.2-6.3,3.4l-4.1-1.3c-2.3-0.7-4.7,0.3-5.9,2.4l-11.2,20.8l0-20.1c0-1.5-0.6-2.8-1.7-3.8
	c-3.8-3.4-12.3-12.8-10.7-28.8C345.4,249.9,362.2,232.8,362.2,232.8z"/>
<polygon class="st9" points="438.2,531.6 433.1,504.1 498.9,489.4 495.9,507.4 "/>
<path class="st12" d="M423.5,229.8L437,357.4c0.1,0.7,0.1,1.4,0.1,2.1l-4,144c0,1.5,1.1,2.7,2.6,2.7l60.2,1.1l9-152l12.5-69.3
	L423.5,229.8z"/>
<path class="st9" d="M463.5,272.7l-4.9,10c-1.3,2.7-4.2,4.2-7.1,3.7l-3.1-0.5c-2.6-0.4-5.2,0.7-6.6,2.9l-10.4,15.4l-7.5-71.4
	l24.7,25.1c0.6,0.6,1.3,1.1,2.1,1.4l9.5,4.2C463.7,265.1,465.2,269.3,463.5,272.7z"/>
<path class="st9" d="M517.6,286.9l20.5,54.6c0.3,0.8,0.5,1.7,0.6,2.6l11.3,99.1c0.2,1.7,0,3.4-0.6,5l-24.1,65.5
	c-1,2.6-2.9,4.8-5.4,6l-6.5,3.2c-1.8,0.9-3.2,2.2-4.3,3.8h0c-3.8,5.8-11.9,6.7-16.8,1.9L477.1,514c-3.1-3-4.1-7.6-2.6-11.7
	l24.8-65.5c0.6-1.5,0.8-3.1,0.7-4.6l-5.2-73.8c-0.1-1.4,0.1-2.9,0.5-4.2L517.6,286.9z"/>
</svg>
