<?xml version="1.0" encoding="utf-8"?>
<!-- Generator: Adobe Illustrator 26.0.2, SVG Export Plug-In . SVG Version: 6.00 Build 0)  -->
<svg version="1.1" id="Layer_1" xmlns="http://www.w3.org/2000/svg" xmlns:xlink="http://www.w3.org/1999/xlink" x="0px" y="0px"
	 viewBox="0 0 788 1005" style="enable-background:new 0 0 788 1005;" xml:space="preserve">
<style type="text/css">
	.st0{fill:#D48F72;}
	.st1{fill:#BF7F75;}
	.st2{fill:#9599BA;}
	.st3{fill:#301C0F;}
	.st4{fill:#E8AF49;}
	.st5{fill:#E0E0E0;}
	.st6{fill:#EDECD6;}
	.st7{fill:none;stroke:#E0E0E0;stroke-width:2;stroke-miterlimit:10;}
	.st8{fill:#DBDBDB;}
	.st9{fill:#232323;}
	.st10{fill:#1E1E1E;}
	.st11{fill:#444444;}
	.st12{fill:none;stroke:#444444;stroke-miterlimit:10;}
	.st13{fill:#D3D3D3;}
	.st14{fill:#161616;}
	.st15{fill:#E8E8E8;}
</style>
<path d="M343.7,245.4l13.6-13.4c0,0,20.3-6.6,38.5-6.4s36.3,4.3,36.3,4.3l16.5,15.5l1.9,19l-108.4,4.1L343.7,245.4z"/>
<polygon points="229.4,536.7 229.5,536.7 229.4,536.6 "/>
<polygon points="229.5,536.7 229.6,536.7 229.6,536.6 "/>
<polygon points="229.4,536.7 229.5,536.7 229.4,536.6 "/>
<polygon points="229.5,536.7 229.6,536.7 229.6,536.6 "/>
<path class="st0" d="M515,301c-0.6,38.4-26.2,33.2-36.9,42.3c-12.6,10.8-8.3,50-17.2,64c-2.5,3.8-11.4,10.1-15.8,9.1
	c-12.5-2.9-24-30.7-34.8-37.7c-6.3-4.1-23.6-3.6-30.2,0c-11.2,6.2-22.3,34.9-34.8,37.7c-4.4,1-13.4-5.2-15.8-9.1
	c-8.9-14-4.6-53.2-17.2-64c-10.6-9.1-36.2-3.9-36.9-42.3c-0.4-26.6,35-37.3,35-37.3l40.1-19.9c2.6-1.3,5-2.9,7.1-4.8
	c0.8-0.7,1.6-1.5,2.3-2.3l0.6-0.7v-0.1c3.9-4.7,6.5-10.4,7.2-16.4c0.2-1.4,0.3-2.8,0.2-4.2v-2.8V208h53.6l0.1,5v1.5v3.2
	c0,0.3,0,0.7,0,1l0,0c0,0.6,0.1,1.3,0.2,2c0.2,1.5,0.5,3.1,0.9,4.6c2.3,7.7,7.7,14,14.9,17.5l40.5,20.1c1,0.5,2.1,1,3.2,1.3
	C488.1,266.5,515.3,277.7,515,301z"/>
<path class="st0" d="M422.6,256.2l-27.5,32.5L380.3,271l-12.4-14.8l0.7-41.6v-2.2l0.1-4.5h53v0.2l0.1,4.7l0,0v1.6l0.1,4.2l0,0v1.3
	l0.1,6.8L422.6,256.2z"/>
<path class="st1" d="M423.1,225.4l-1,1.2c-5.2,6.3-28.8,35-41.8,44.3c-3.2,2.3-5.7,3.4-7.2,2.7c-6.8-3.3-14.8-35.1-14.8-35.1
	l0.1-0.1c0.6-0.6,1.2-1.2,1.7-1.9c0.3-0.4,0.7-0.8,1-1.3l0.1-0.1c3.3-4.5,5.5-9.7,6.7-15.2c0-0.2,0.1-0.4,0.1-0.6
	c0.3-1.4,0.5-3,0.7-4.8c0.1-0.7,0.1-1.4,0.2-2.2c0.1-1.4,0.2-2.9,0.3-4.5h52.7v0.2v4.3v6.7l0.1,0.8l0.1,0.7l0.9,4.6L423.1,225.4z"/>
<path class="st0" d="M456.7,298.3c-1.4,27.7,17.5,53.6,17.5,53.6s31,54,41,72.2c4.7,8.6,14.3,26.6,36,15.4l0,0
	c17.9-9.2,12-28,8.3-36.7c-7.6-17.5-26.6-51.5-31-69.9c-3.3-13.7-2.9-36.1-20.7-52.4c0,0-13.1-14.9-31.9-7.8l-0.7,0.3
	C464.6,277,457.3,287,456.7,298.3L456.7,298.3z"/>
<path class="st0" d="M219.9,413.9c15.5-9,9.7-31,7.3-39.2c-2.4-8.2-11-23.7-15.2-31.3c-10.7-19.5-44.1-77.8-49.3-98.9
	c-3.6-14.8-25.3,6.3-25.3,6.3s8.2,15.9,11.3,26.2c6.5,21.7,9,52.6,18.5,88.9c2.5,9.5,10.9,27.8,16.5,35.7
	C199.5,423.9,215.4,416.6,219.9,413.9z"/>
<path class="st0" d="M334.5,308c-8.5,26.3-35.5,43.8-35.5,43.8s-48.2,39.4-64.1,52.8c-7.5,6.3-22.8,19.7-39.1,1.5l0,0
	c-13.4-15-1.2-30.5,5.4-37.2c13.3-13.7,43.2-38.6,53.9-54.2c7.9-11.6,25.9-35.6,48.3-44.4c0,0,7.3-6.4,22.3,7l0.6,0.5
	C334.8,285.3,338,297.2,334.5,308L334.5,308z"/>
<polygon points="228.6,536.2 228.7,536.1 228.6,536.1 "/>
<polygon points="228.7,536.1 228.8,536.2 228.8,536.1 "/>
<polygon points="228.6,536.2 228.7,536.1 228.6,536.1 "/>
<polygon points="228.7,536.1 228.8,536.2 228.8,536.1 "/>
<polygon class="st2" points="391.7,268.1 399.9,288.1 388.8,279 375.8,292.5 "/>
<polygon class="st2" points="399.9,288.1 403.8,267.3 422.5,290.6 409.1,280.1 "/>
<g>
	<g>
		<path class="st3" d="M557.7,242.3c-5.1,11.8-10.5,23.5-15.8,35.1c-11.4,21.4-42.5,79.5-54.2,101.7
			c-11.9,22.3-42.7,80.1-54.2,101.7c-6.7,10.9-13.4,21.9-20.3,32.7c5.1-11.8,10.5-23.5,15.9-35c11.3-21.3,42.5-79.5,54.2-101.7
			c11.9-22.3,42.7-80.1,54.2-101.7C544.1,264.1,550.8,253.2,557.7,242.3L557.7,242.3z"/>
	</g>
	<g>
		<path class="st4" d="M572.2,202c-0.5,3.5-1.3,7.4-1.9,10.9c-0.5,2.1-1.1,5.1-1.4,7.2c-0.8,3.7-2.5,6.9-5.5,9.8
			c-0.2,0.1-0.4,0.1-0.5-0.1c-0.5-2.7-0.3-5.3,0.1-7.7c0.4-2.4,1.8-4.6,2.7-6.8c0.7-1.7,2.1-5.1,2.9-6.7c1-2.3,2-4.4,3.2-6.7
			C571.8,201.5,572.2,201.7,572.2,202L572.2,202z"/>
	</g>
	<g>
		<path class="st4" d="M602.2,222.5c-3.3,2.3-7,4.8-10.5,7c-2.1,1.3-5,3.2-7.1,4.6c-3.6,2.4-7.6,3.6-12.2,3.8
			c-0.2,0-0.3-0.3-0.2-0.5c1.9-2.5,4-4.3,6.4-5.8c2.3-1.6,5-2.3,7.6-3.4c1.9-0.8,5.8-2.4,7.7-3.2c2.6-1,5.2-2.1,7.8-2.9
			C602.3,222,602.5,222.3,602.2,222.5L602.2,222.5z"/>
	</g>
	<g>
		<path class="st4" d="M582.8,260.7c-2.4-1.7-5-3.6-7.2-5.4c-1.3-1.1-3.3-2.7-4.7-3.7c-2.5-2-3.9-4.5-4.7-8c0-0.2,0.2-0.4,0.3-0.4
			c4.6,0.9,7.3,3.7,9.5,7.3c0.9,1.2,2.7,3.6,3.6,4.8c1.1,1.7,2.3,3.3,3.4,5C583.3,260.6,583,260.9,582.8,260.7L582.8,260.7z"/>
	</g>
	<g>
		<path class="st4" d="M566.9,281.5c-1.4-2.8-2.7-6.1-3.9-9c-0.7-1.8-1.6-4.3-2.4-6.1c-1.3-3.2-1.3-6.4-0.4-10
			c0-0.1,0.2-0.3,0.4-0.2c2.7,2.5,4.2,5.4,4.8,8.8c0.3,3,1,6.6,1.3,9.7c0.3,2.2,0.5,4.4,0.7,6.5C567.4,281.8,567,281.8,566.9,281.5
			L566.9,281.5z"/>
	</g>
	<g>
		<path class="st4" d="M525.7,270.2c2.5-2.8,5.3-5.8,7.9-8.5c1.6-1.6,3.8-3.9,5.4-5.6c2.8-2.9,6.1-4.7,10.2-5.7
			c0.2,0,0.4,0.2,0.3,0.4c-1.1,2.7-2.6,4.7-4.5,6.6c-1.8,2-4.1,3.1-6.2,4.5c-1.6,1.1-4.7,3.3-6.3,4.4c-2.2,1.4-4.3,2.9-6.5,4.1
			C525.9,270.7,525.7,270.4,525.7,270.2L525.7,270.2z"/>
	</g>
	<g>
		<path class="st4" d="M520,232c3.2,0.3,6.7,0.9,9.9,1.5c1.9,0.4,4.6,0.9,6.6,1.1c3.5,0.6,6.3,2.2,8.9,5c0.1,0.2,0.1,0.4-0.1,0.5
			c-2.5,0.6-4.8,0.6-7,0.3s-4.2-1.6-6.2-2.4c-1.6-0.6-4.6-1.9-6.1-2.6c-2.1-0.9-4-1.8-6-2.9C519.7,232.4,519.8,231.9,520,232
			L520,232z"/>
	</g>
	<g>
		<path class="st4" d="M538.8,201.6c2.2,3.2,4.4,7,6.5,10.4c1.2,2.1,2.9,5,4.2,7c2.1,3.7,3.2,7.5,3.1,11.9c0,0.2-0.3,0.3-0.5,0.2
			c-2.4-1.8-4.1-4.1-5.5-6.4c-1.5-2.3-2-5-2.9-7.6c-0.7-1.9-2.1-5.8-2.8-7.7c-0.8-2.6-1.8-5.2-2.6-7.7
			C538.3,201.5,538.7,201.3,538.8,201.6L538.8,201.6z"/>
	</g>
	<g>
		<path class="st4" d="M589.4,209.2c-0.7,1.8-1.6,3.6-2.5,5.3c-0.6,1-1.3,2.4-1.8,3.5c-1.1,1.9-2.8,2.7-5.4,3
			c-0.2,0-0.3-0.1-0.4-0.3c-0.2-1.8,0.1-3.2,0.7-4.4c0.5-1.3,1.8-1.7,2.8-2.6c0.7-0.7,2.2-1.9,3-2.5c1-0.8,2.1-1.6,3.2-2.3
			C589.2,208.7,589.5,209,589.4,209.2L589.4,209.2z"/>
	</g>
	<g>
		<path class="st4" d="M601.8,250.9c-3-0.5-6.3-1.2-9.2-1.9c-1.4-0.4-3.2-0.4-4.5-1.3c-1.3-0.9-2.5-2-3.4-3.8
			c-0.1-0.2,0-0.4,0.1-0.5c2-0.7,3.6-0.6,5.2-0.3c1.6,0.3,2.7,1.5,4.1,2.3c1,0.6,3,1.9,4,2.5c1.3,0.9,2.6,1.8,3.9,2.7
			C602.2,250.6,602,251,601.8,250.9L601.8,250.9z"/>
	</g>
	<g>
		<path class="st4" d="M583.9,281.9c-2.1-2.1-4.2-4.4-6-6.6c-0.9-1.2-2.2-2.1-2.7-3.5c-0.4-1.4-0.7-3-0.3-4.9c0-0.1,0.3-0.3,0.4-0.3
			c1.9,0.6,3.1,1.5,4.2,2.6s1.3,2.7,1.8,4c0.4,1.1,1.2,3.1,1.6,4.1c0.4,1.4,1,2.8,1.3,4.3C584.4,281.9,584.1,282.2,583.9,281.9
			L583.9,281.9z"/>
	</g>
	<g>
		<path class="st4" d="M537.4,279.9c0.5-1.8,1.2-3.7,1.8-5.6c0.4-1.1,1.1-2.5,1.4-3.6c0.8-2.1,2.4-3.1,4.9-3.7
			c0.2,0,0.4,0.1,0.5,0.3c0.5,1.8,0.3,3.2,0,4.4c-0.4,1.3-1.6,2.1-2.4,2.9c-0.6,0.7-1.9,2.2-2.6,2.8c-0.9,0.9-1.8,1.9-2.8,2.7
			C537.5,280.2,537.3,280.1,537.4,279.9L537.4,279.9z"/>
	</g>
	<g>
		<path class="st4" d="M511.4,248.4c1.9-0.6,4-0.9,6-1.3c1.2-0.2,2.8-0.4,4-0.8c2.3-0.4,4.1,0.4,6,2.3c0.1,0.2,0.2,0.4,0,0.5
			c-1.3,1.4-2.7,1.9-4,2.1c-1.4,0.3-2.6-0.4-4-0.6c-1-0.1-3-0.6-4-0.8c-1.4-0.3-2.6-0.6-4-1.1C511.1,248.8,511.1,248.5,511.4,248.4
			L511.4,248.4z"/>
	</g>
	<g>
		<path class="st4" d="M521.2,213.1c2.4,1.1,5.2,2.4,7.5,3.6c1.5,0.8,3.4,1.9,4.9,2.5c2.7,1.4,4.3,3.5,5.4,6.5c0,0.2,0,0.3-0.2,0.4
			c-2.3,0.1-4.1-0.5-5.9-1.3c-1.7-0.7-2.8-2.4-4.2-3.6c-1.1-0.9-3-2.9-4-3.8c-1.3-1.3-2.6-2.7-3.9-4
			C520.8,213.3,520.9,213,521.2,213.1L521.2,213.1z"/>
	</g>
	<g>
		<path class="st4" d="M555.7,191.1c0.7,3.1,1.2,6.5,1.6,9.7c0.2,2,0.6,4.6,1,6.5c0.5,3.4-0.2,6.5-1.9,9.7c-0.1,0.2-0.2,0.2-0.4,0.1
			c-2.1-3.1-2.8-6.3-2.6-9.7c0.5-3,0.6-6.7,0.9-9.7c0.2-2.2,0.5-4.4,0.8-6.5C555.3,190.8,555.6,190.8,555.7,191.1L555.7,191.1z"/>
	</g>
</g>
<g>
	<path class="st0" d="M556.6,410.1c-11.5-13.1-33.8-6.8-41.7-4.1s-22.1,11.2-29.1,15.4c-17.9,10.6-46.2,30.5-63.9,40.7
		c-11.6,6.8-18,10.1-14.6,17.1c3.1,6.4,16.7,3.3,21.9,2.2c21.8-4.8,64.7-13.9,86.6-21.9c8.9-3.3,26.2-11.4,33.3-16.9
		C569,427.3,560,413.8,556.6,410.1z"/>
</g>
<ellipse transform="matrix(0.5823 -0.813 0.813 0.5823 -136.6588 221.9835)" class="st0" cx="147.7" cy="244" rx="12.2" ry="12.1"/>
<polygon points="230.4,536.1 230.5,536 230.4,536 "/>
<polygon points="230.5,536 230.6,536.1 230.6,536 "/>
<polygon points="230.4,536.1 230.5,536 230.4,536 "/>
<polygon points="230.5,536 230.6,536.1 230.6,536 "/>
<path class="st0" d="M160.8,244.6c-0.6-4.9-0.3-9.8,0.9-14.5l3.9-15.1c0.1-0.3,0.1-0.6,0-0.9l-5.8-24c-0.3-1.4-2.1-2-3.2-1
	c-1.3,1.1-2.6,2.4-3,3.2c-2.5,5,0.5,14.5,0.8,20c0.1,0.7-2.4,2.6-3.1,2.8c-1.8,0.7-6.4-1.3-9.4-2.8c-1.9-0.9-3.4-2.6-4.1-4.6
	c-0.8-2.3-1.9-5.4-2.5-6.9c-0.2-0.6-0.1-1.3,0.3-1.9l7.7-10c2.3-3,3.2-7,2.4-10.7l0,0c-0.3-1.6-2.3-2.1-3.4-0.9L123,199.1
	c-1.4,1.5-2.1,3.5-2.1,5.6v7.3c0,2.3,0.5,4.5,1.5,6.6l14.6,31.3v0.1h0.1l0.6,1.3l0,0c0.4-0.7,1.2-1.1,1.9-1l19.8,2.5
	c1.3,0.2,2.3-0.9,2.2-2.2L160.8,244.6z"/>
<g>
	<path class="st5" d="M136,144.3h29.5c0,0,2.7,47.6-14.7,47.6S136,144.3,136,144.3z"/>
	<path class="st6" d="M137.5,162.8c0,0,5.9,1.1,13.2,0c7.4-1.1,13.2,0,13.2,0s-1.8,26.6-13.2,26.6
		C139.4,189.4,137.5,162.8,137.5,162.8z"/>
	<line class="st7" x1="150.7" y1="191.8" x2="150.7" y2="229.5"/>
	<ellipse class="st5" cx="150.7" cy="229.5" rx="12.5" ry="1.1"/>
</g>
<path class="st8" d="M306.6,264.5c0,0-23.2,4.8-32.6,12.7c-9.4,7.9-30,47.6-33,49.9c-3,2.2,36.4,46.9,37.3,46.5
	c0.9-0.4,12.4-5.2,18.4-10.9c6-5.6,14.6-18.6,14.6-18.6l20.5,10.9L306.6,264.5z"/>
<path class="st8" d="M477.4,263.2c0,0,23.2,4.8,32.6,12.7c9.4,7.9,22.7,59.7,25.7,62c3,2.2-42.9,50.3-43.8,49.9
	c-0.9-0.4-3.2-4.2-9.2-9.8s-10-35.1-10-35.1l-20.5,10.9L477.4,263.2z"/>
<path class="st9" d="M304.9,263.4c-2.5,4.9,3.7,84.6,3.7,84.6L299,536.2c0.1,2.6,2,4.9,4.6,5.4l37.6,4c3.5,0.4,7.1,0.8,10.6,1.4
	c30.7,5.2,62.2,4.4,92.7-2.2l37-5.7c3.5-0.8,5.9-3.9,5.8-7.4c-1.3-32.7-5.7-174.8-5.7-174.8l1.6-92.6l-34.5-18.8l-52.9,124.6
	l-52-124.6L304.9,263.4z"/>
<g>
	<path class="st10" d="M389.7,381.5c1.1,44.1,1.1,88.7,0.8,132.8l-0.3,22.1c-0.5,6.7,2.2,9.9,8.5,11.9c1.7,0.6,3.5,1.2,5.2,1.8
		c-1.8-0.5-3.6-1-5.3-1.5c-3.5-1-7.4-2.8-8.6-6.6c-0.6-1.8-0.7-3.8-0.7-5.6l-0.3-22.1C388.6,470.2,388.6,425.5,389.7,381.5
		L389.7,381.5z"/>
</g>
<g>
	<circle class="st11" cx="398.8" cy="383.8" r="3.9"/>
	<circle class="st9" cx="398.8" cy="383.8" r="2.6"/>
</g>
<g>
	<circle class="st11" cx="398.8" cy="451.3" r="3.9"/>
	<circle class="st9" cx="398.8" cy="451.3" r="2.6"/>
</g>
<line class="st12" x1="402.2" y1="383.8" x2="404.5" y2="383.8"/>
<line class="st12" x1="401.6" y1="451.3" x2="403.9" y2="451.3"/>
<path class="st13" d="M360.6,247.5l26.6,6.5c2.5,0.6,4.7,2.2,6,4.5l3,5.3l3.4-5.7c1.2-2,3-3.5,5.2-4.2l23.5-7.7l13.1,13.2
	l-45.1,109.5l-51.6-113.8L360.6,247.5z"/>
<path class="st10" d="M432.1,230l-42.4,151.5c0,0,35.8-43.8,62.5-109.9C452.8,270.7,432.1,230,432.1,230z"/>
<path class="st10" d="M357.3,232l39,133.5l-2.5,5.6c0,0-53.2-66.1-59.4-97.9C334.4,273.8,357.3,232,357.3,232z"/>
<path class="st14" d="M339.4,264.5l-7.6-13.6c0,0,17-14.9,25.5-18.9L339.4,264.5z"/>
<path class="st14" d="M448.6,263.2l8.1-13.3c0,0-16.3-15.6-24.7-20L448.6,263.2z"/>
<path class="st15" d="M373.5,271.5v-8.6c0-3.4,2.9-6.1,6.3-5.9c6,0.5,14,2.6,14,10.2c0,7.6-8,9.7-14,10.2
	C376.4,277.6,373.5,274.9,373.5,271.5z"/>
<path class="st15" d="M419,271.5v-8.6c0-3.4-2.9-6.1-6.3-5.9c-6,0.5-14,2.6-14,10.2c0,7.6,8,9.7,14,10.2
	C416.1,277.6,419,274.9,419,271.5z"/>
<path class="st8" d="M396.7,274.3h-1.1c-2,0-3.6-1.6-3.6-3.6v-5c0-2,1.6-3.6,3.6-3.6h1.1c2,0,3.6,1.6,3.6,3.6v5
	C400.3,272.6,398.7,274.3,396.7,274.3z"/>
<path class="st15" d="M278.4,374.7l-2.4,2c-0.8,0.6-1.9,0.5-2.6-0.2L237,332.4c-0.6-0.8-0.5-1.9,0.2-2.6l2.4-2
	c0.8-0.6,1.9-0.5,2.6,0.2l36.4,44.1C279.3,372.9,279.2,374,278.4,374.7z"/>
<path class="st15" d="M537.2,339.2l2.3,2.1c0.7,0.7,0.8,1.8,0.1,2.6l-43.5,47.4c-0.7,0.7-1.8,0.8-2.6,0.1l-2.3-2.1
	c-0.7-0.7-0.8-1.8-0.1-2.6l43.5-47.4C535.3,338.6,536.4,338.5,537.2,339.2z"/>
</svg>
