<?xml version="1.0" encoding="utf-8"?>
<!-- Generator: Adobe Illustrator 26.0.3, SVG Export Plug-In . SVG Version: 6.00 Build 0)  -->
<svg version="1.1" id="Layer_1" xmlns="http://www.w3.org/2000/svg" xmlns:xlink="http://www.w3.org/1999/xlink" x="0px" y="0px"
	 viewBox="0 0 388 581.4" style="enable-background:new 0 0 388 581.4;" xml:space="preserve">
<style type="text/css">
	.st0{fill:none;}
	.st1{fill:#944E31;}
	.st2{fill:#7C9995;}
	.st3{fill:#DBDBDB;}
	.st4{fill:none;stroke:#DBDBDB;stroke-width:2;stroke-linecap:round;stroke-miterlimit:10;}
</style>
<path class="st0" d="M233.7,35.6c15.6,5,22.4,9.3,26.1,16c3,5.4,5.8,17.8,6.1,24c0.5,14.5-7.5,51-21.2,63.2
	c60.5-53.8-175.3-70.7-95.9,0c-13.7-12.2-21.7-48.6-21.2-63.2c0.2-6.2,3.1-18.6,6.1-24c3.7-6.7,10.5-10.9,26.1-16
	c17.9-5.8,36-4.8,36-4.8S215.9,29.9,233.7,35.6z"/>
<polygon points="31.4,118.1 31.5,118 31.4,118 "/>
<polygon points="31.5,118 31.6,118.1 31.6,118 "/>
<polygon points="31.4,118.1 31.5,118 31.4,118 "/>
<polygon points="31.5,118 31.6,118.1 31.6,118 "/>
<path class="st1" d="M140,266c-13.5-0.2-21.6,6.5-24,17.5c0,0-10,59.9-11.2,81.6c-1.9,34.7,2.5,101.6,7.2,136c1,7.5,3,30.3,3,30.3
	c0.7,6.8,6.4,11.9,13.2,11.8l0,0c6.7-0.1,12.2-5.2,12.9-11.8c0,0,2.2-26.1,3.5-34.8c4.6-31.3,18-93.5,20-125.1
	c1.2-19,0.7-82.3,0.7-82.3C164.5,270.7,151.4,266.6,140,266z"/>
<path class="st2" d="M127.4,523.4L127.4,523.4c-6.1,0.1-11.5,3.7-14.1,9.2l0,0c-5.9,12.4-30.5,28.9-30.5,28.9
	c-4.4,3.5-6.6,9.1-5.5,14.6l0,0l60.3-0.3l3.4-1c3.9-1.2,6.4-5,6-9l-3.5-30C141.7,528.3,135,523.1,127.4,523.4z"/>
<path class="st3" d="M234.3,35c15.6,5,22.4,9.3,26.1,15.9c3,5.4,5.8,17.8,6.1,24c0.5,14.5-7.5,51-21.2,63.2
	c60.5-53.8-175.3-70.7-95.9,0c-13.7-12.2-21.7-48.6-21.2-63.2c0.2-6.2,3.1-18.6,6.1-24C138,44.2,144.8,40,160.4,35
	c17.9-5.8,36-4.8,36-4.8S216.4,29.2,234.3,35z"/>
<path class="st3" d="M274.2,282.7c-1.1,12.9-11.6,22.9-24.6,23.5l0,0c-12.4,0.6-23.4-7.6-26.4-19.6c0,0-25.3-141.5-27.4-172.3
	c-0.5-7.6,11.1-24.4,11.1-24.4s-2.7-21.6,28.3-27.9c27.7-5.6,30.7,11.3,30.7,11.3s14.4,75,15.5,100.6
	C282.3,197.6,274.2,282.7,274.2,282.7z"/>
<path class="st1" d="M251.9,266c12-0.2,19.3,6.5,21.5,17.5c0,0,17,57.9,18.1,79.6c1.7,34.7-10.3,103.6-14.5,138
	c-0.9,7.5-2.7,30.3-2.7,30.3c-0.6,6.8-5.7,11.9-11.8,11.8l0,0c-6-0.1-10.9-5.2-11.5-11.8c0,0-2-26.1-3.1-34.8
	c-4-31.3-16-93.5-17.9-125.1c-1.1-19-0.7-82.3-0.7-82.3C230,270.7,241.6,266.6,251.9,266L251.9,266z"/>
<path class="st1" d="M276.7,519.5c-1.2,34,40.1,38.4,40.1,38.4c4.4,3.5-67,21.8-66.6,17.8c0,0,1.5-52-1-65.2
	C247.4,501.2,277.4,499.5,276.7,519.5z"/>
<path class="st2" d="M263.9,538.4c6.4-2.2,5.9-6.8,8.5-9.4c1.5-1.5,7.9-3.2,8.8-1.2c10.7,22.7,61.2,35.4,61.2,35.4
	c5.4,3.8,6.6,9.1,5.5,14.6l0,0c0,0-43.8,9.4-67.8-1.3c-4.8-2.2-9,3.1-9,3.1s-22.4,3.7-21.2-3.1l-2.5-42.7
	C249.1,526.3,252.9,542.1,263.9,538.4z"/>
<path class="st3" d="M128.2,74.9L75.8,536c4.3,6.6,95.1-1.5,95.3-3.6l27.4-418.1L216.3,77L128.2,74.9z"/>
<path class="st3" d="M199.3,52.7L193.7,94L214,541.1c0.2,2.9,102.4,0.5,102.4-11.3l-36.1-369L205.4,53.1L199.3,52.7z"/>
<path class="st4" d="M110.5,542.9c0,0,4.7-3.4,8.9-3.3c5.1,0,10,3.1,10,3.1"/>
<path class="st4" d="M291.6,538.6c0,0-5.1,2.1-9,2.2"/>
<path class="st4" d="M297.3,543.6c0,0-5,2.4-8.9,2.7"/>
<path class="st0" d="M232.7,27.8c15.6,5,22.4,9.3,26.1,15.9c3,5.4,5.8,17.8,6.1,24c0.5,14.5-7.5,51-21.2,63.2
	c60.5-53.8-175.4-70.7-95.9,0c-13.7-12.2-21.7-48.6-21.2-63.2c0.2-6.2,3.1-18.6,6.1-24c3.7-6.7,10.5-10.9,26.1-15.9
	c17.9-5.8,36-4.8,36-4.8S214.9,22.1,232.7,27.8z"/>
<polygon points="30.4,110 30.5,109.9 30.4,109.9 "/>
<polygon points="30.5,109.9 30.6,110 30.6,109.9 "/>
<polygon points="30.4,110 30.5,109.9 30.4,109.9 "/>
<polygon points="30.5,109.9 30.6,110 30.6,109.9 "/>
</svg>
