<?xml version="1.0" encoding="utf-8"?>
<!-- Generator: Adobe Illustrator 26.0.2, SVG Export Plug-In . SVG Version: 6.00 Build 0)  -->
<svg version="1.1" id="Layer_1" xmlns="http://www.w3.org/2000/svg" xmlns:xlink="http://www.w3.org/1999/xlink" x="0px" y="0px"
	 viewBox="0 0 388 581.4" style="enable-background:new 0 0 388 581.4;" xml:space="preserve">
<style type="text/css">
	.st0{fill:#913323;}
	.st1{fill:#944E31;}
	.st2{fill:#FFD7D7;stroke:#893024;stroke-width:0.5;stroke-miterlimit:10;}
	.st3{fill:#893024;}
	.st4{fill:none;stroke:#893124;stroke-miterlimit:10;}
</style>
<g id="Calque_1_00000000915634752664794440000014261876144632733597_">
	<path class="st0" d="M234.6,34.6c17.5,5.7,25.1,10.3,29.3,17.8c3.3,6.1,6.6,19.9,6.8,26.8c0.6,16.2-8.4,57.1-23.7,70.7
		c14.3-12.7-132.1-22.1-107.2,0c-15.3-13.7-24.3-54.4-23.7-70.7c0.3-6.9-0.2-8.7,0.3-15.6c1.4-17,18.2-23.5,35.6-29.2
		c19.9-6.5,40.3-5.5,40.3-5.5S214.6,28.1,234.6,34.6z"/>
</g>
<path class="st1" d="M135.7,258.3c-14.1-0.2-22.6,6.8-25.2,18.4c0,0-7.2,56.1-8.4,78c-1.9,35.1,2.5,102.9,7.3,137.7
	c1,7.6,3,30.7,3,30.7c0.7,6.9,6.5,12,13.4,11.9l0,0c6.8-0.1,12.4-5.3,13.1-11.9c0,0,2.2-26.4,3.5-35.2
	c4.7-31.7,18.2-94.7,20.2-126.8c1.2-19.2-0.4-78.5-0.4-78.5C161.4,263.1,147.8,258.9,135.7,258.3L135.7,258.3z"/>
<path class="st2" d="M125.1,514.8L125.1,514.8c-6.2,0.1-11.6,3.7-14.3,9.3l0,0c-6,12.5-31,29.3-31,29.3c-4.5,3.5-6.7,9.2-5.6,14.8
	l0,0l61-0.3l3.4-1c3.9-1.2,6.5-5.1,6.1-9.1l-3.5-30.4C139.6,519.9,132.8,514.6,125.1,514.8z"/>
<path class="st3" d="M76,567.9L76,567.9c-0.8-5,2.5-9.6,7.5-10.4h0.1l36.2-5.5c4.7-0.7,9.1,2.2,10.2,6.9l2.1,8.6L76,567.9z"/>
<path class="st1" d="M253,258.3c12.6-0.2,20.1,6.8,22.5,18.4c0,0,14.6,54.1,15.7,75.9c1.7,35.1-10.3,104.9-14.7,139.7
	c-0.9,7.6-2.7,30.7-2.7,30.7c-0.6,6.9-5.8,12-11.9,11.9l0,0c-6.1-0.1-11-5.3-11.6-11.9c0,0-2-26.4-3.1-35.2
	c-4.2-31.7-16.3-94.7-18.1-126.8c-1.1-19.2,0.4-78.5,0.4-78.5C230,263.1,242.2,258.9,253,258.3L253,258.3z"/>
<path class="st1" d="M276.2,511c-1.2,34.4,40.6,38.9,40.6,38.9c4.5,3.5-67.8,22.1-67.4,18c0,0,1.5-52.6-1-66
	C246.6,492.4,276.9,490.7,276.2,511z"/>
<path class="st2" d="M263.3,530c6.5-2.2,6-6.9,8.6-9.5c1.5-1.5,8-3.2,8.9-1.2c10.8,23,62,35.8,62,35.8c5.4,3.8,6.7,9.2,5.6,14.8l0,0
	c0,0-44.3,9.5-68.6-1.3c-4.9-2.1-9.1,3.1-9.1,3.1s-22.7,3.7-21.4-3.1l-2.5-43.2C248.3,517.8,252.1,533.8,263.3,530z"/>
<path class="st3" d="M348.7,570.4c0.8-9.1-4.4-14.9-6.1-14.6c-2.5,0.3-6.6,2.4-9.1,2.8c-4,0.7-16.2-0.3-16.2-0.3
	c-3.1-0.3-5.7,2.8-6,7.2l-0.2,8.7c0,0,7.4,1,24.9-1.6C339.2,572.2,348.7,570.4,348.7,570.4z"/>
<path class="st0" d="M118.6,57.9l-2.1,19.3l-31.1,385l-8,21c-1.7,4.5-1.1,9.6,1.8,13.5l3.1,4.3c-1.1,14.5,9.8,27.1,24.4,28.2
	c1,0.1,2,0.1,3,0l3.7-0.2l14.4-0.2c15.8-0.3,28.7-12.8,29.5-28.5l11.2-127.6c0,0,8.9-77.4,11.7-97.2c4.2-28.8,11.2-144.8,11.2-144.8
	l5.7-73.7L118.6,57.9z"/>
<path class="st0" d="M188.3,69.2l-2.2,63.9c0,0.6,0.4,1.1,1,1.2l3.9,0.5c0.6,0.1,1,0.5,1,1.1l34.6,362.5
	c0.7,18.8,16.5,33.5,35.3,32.8c3.1-0.1,6.4-0.7,9.3-1.7l10.9-3.5c15.3-5,25-20.1,23.2-36.1c0-0.2,0-0.3,0.1-0.5l2.5-7.2
	c1.3-3.7,1.2-7.6-0.3-11.2l-6.2-15.3c0-0.1-0.1-0.2-0.1-0.4l-9-131L268.7,79.3c-0.1-0.5-0.5-1-1-1.1l-73.4-9.8l-4.7-0.4
	C188.9,68,188.3,68.5,188.3,69.2z"/>
<path class="st4" d="M107.9,533.6c0,0,4.8-3.4,9-3.3c5.2,0,10.1,3.1,10.1,3.1"/>
<path class="st4" d="M291.3,529.3c0,0-5.2,2.1-9.1,2.2"/>
<path class="st4" d="M297.1,534.3c0,0-5.1,2.4-9,2.7"/>
<path class="st3" d="M90.8,326.2l-3.6,53.7c-0.1,1.6,1.2,3,2.8,3h16.7c1.5,0,2.7-1.2,2.8-2.6l3-50.7c0.1-1.4-0.9-2.7-2.3-2.9
	l-16.1-3C92.5,323.3,91,324.5,90.8,326.2z"/>
<path class="st3" d="M101,150.2l-4.8,71.9c-0.1,1.6,1.2,3,2.8,3h23.6c1.5,0,2.7-1.2,2.8-2.6l4-67.7c0.1-1.4-0.9-2.7-2.3-2.9
	l-22.7-4.2C102.6,147.4,101.1,148.6,101,150.2z"/>
<path class="st3" d="M294.4,227.7l4.8,71.9c0.1,1.6-1.2,3-2.8,3h-23.6c-1.5,0-2.7-1.2-2.8-2.6l-4-67.7c-0.1-1.4,0.9-2.7,2.3-2.9
	l22.7-4.2C292.8,224.9,294.3,226.1,294.4,227.7z"/>
</svg>
