<?xml version="1.0" encoding="utf-8"?>
<!-- Generator: Adobe Illustrator 26.0.2, SVG Export Plug-In . SVG Version: 6.00 Build 0)  -->
<svg version="1.1" id="Calque_1" xmlns="http://www.w3.org/2000/svg" xmlns:xlink="http://www.w3.org/1999/xlink" x="0px" y="0px"
	 viewBox="0 0 388 581.4" style="enable-background:new 0 0 388 581.4;" xml:space="preserve">
<style type="text/css">
	.st0{fill:#9F9D8A;}
	.st1{fill:#2E858E;}
	.st2{fill:#E8E0BF;}
	.st3{fill:none;stroke:#E8E0BF;stroke-width:2;stroke-linecap:round;stroke-miterlimit:10;}
	.st4{fill:none;stroke:#4D4A3D;stroke-miterlimit:10;}
</style>
<polygon points="30.2,111.8 30.3,111.7 30.2,111.7 "/>
<polygon points="30.3,111.7 30.4,111.8 30.4,111.7 "/>
<polygon points="30.2,111.8 30.3,111.7 30.2,111.7 "/>
<polygon points="30.3,111.7 30.4,111.8 30.4,111.7 "/>
<path d="M31,107.4h0.1H31z"/>
<polygon points="31.1,107.4 31.2,107.4 31.2,107.4 "/>
<path d="M31,107.4h0.1H31z"/>
<polygon points="31.1,107.4 31.2,107.4 31.2,107.4 "/>
<path d="M31.2,117h0.1H31.2z"/>
<polygon points="31.3,117 31.4,117 31.4,117 "/>
<path d="M31.2,117h0.1H31.2z"/>
<polygon points="31.3,117 31.4,117 31.4,117 "/>
<path class="st0" d="M137.8,268.9c-13.9-0.2-22.3,6.7-24.9,18.2c0,0-7.1,55.4-8.3,77c-1.9,34.7,2.5,101.6,7.2,136
	c1,7.5,3,30.3,3,30.3c0.6,6.8,6.4,12,13.2,11.9l0,0c6.7-0.1,12.2-5.2,12.9-11.8c0,0,2.2-26.1,3.5-34.8c4.6-31.3,18-93.5,20-125.1
	c1.2-19-0.4-77.5-0.4-77.5C163.2,273.7,149.7,269.5,137.8,268.9L137.8,268.9z"/>
<path class="st1" d="M127.3,522.3L127.3,522.3c-6.1,0.2-11.5,3.7-14.1,9.2l0,0c-5.8,12.3-30.5,28.9-30.5,28.9
	c-4.4,3.5-6.6,9.1-5.6,14.6l0,0l60.3-0.3l3.4-1c3.9-1.2,6.4-5,6-9l-3.5-30C141.5,527.3,134.8,522.1,127.3,522.3z"/>
<path class="st2" d="M78.8,574.7L78.8,574.7c-0.8-4.9,2.5-9.5,7.4-10.4h0.1l35.9-5.4c4.6-0.7,9,2.2,10.1,6.8l2.1,8.5L78.8,574.7z"/>
<path class="st0" d="M253.6,268.9c12.4-0.2,19.9,6.7,22.2,18.2c0,0,14.4,53.4,15.5,75c1.7,34.7-10.2,103.6-14.5,138
	c-0.9,7.5-2.7,30.3-2.7,30.3c-0.6,6.8-5.7,11.9-11.8,11.8l0,0c-6-0.1-10.9-5.2-11.5-11.8c0,0-2-26.1-3.1-34.8
	c-4.1-31.3-16.1-93.5-17.9-125.1c-1.1-19,0.4-77.5,0.4-77.5C230.9,273.7,242.9,269.4,253.6,268.9L253.6,268.9z"/>
<path class="st0" d="M276.6,518.5c-1.2,34,40,38.4,40,38.4c4.4,3.5-67,21.8-66.6,17.8c0,0,1.5-52-1-65.2
	C247.2,500.2,277.3,498.5,276.6,518.5z"/>
<path class="st1" d="M263.7,537.3c6.4-2.2,5.9-6.8,8.5-9.4c1.5-1.5,7.9-3.2,8.8-1.2c10.7,22.7,61.2,35.4,61.2,35.4
	c5.4,3.8,6.6,9.1,5.5,14.6l0,0c0,0-43.8,9.4-67.8-1.3c-4.8-2.2-9,3-9,3s-22.4,3.7-21.1-3l-2.5-42.7C249,525.3,252.8,541,263.7,537.3
	z"/>
<path class="st2" d="M348.8,576.5c0.8-9-4.3-14.7-6-14.4c-2.5,0.3-6.5,2.4-9,2.8c-4,0.7-16-0.3-16-0.3c-3.1-0.3-5.6,2.8-5.9,7.1
	l-0.2,8.6c0,0,7.3,1,24.6-1.6C339.3,578.3,348.8,576.5,348.8,576.5z"/>
<path class="st2" d="M124.9,78l-4.8,8.9c-0.9,1.6-1.4,3.4-1.6,5.3L73.8,519.9c-0.9,8.1,5.3,15.3,13.5,15.8l27.9,1.5l44,0.5
	c11.5,1.4,3.4-141.9,6.2-175.7c1.6-19.6,2.3-59.1,5.1-78.6c3.8-26.6,23.2-123.6,25.6-135.6c0.2-0.8,0.3-1.6,0.3-2.5l1.3-60.6
	c0.2-8.1-6.4-14.7-14.4-14.6l-45.9,0.5C132.1,70.6,127.4,73.4,124.9,78z"/>
<path class="st2" d="M189.7,77.7l1.5,64.4c0,0.2,0,0.4,0.1,0.6l27.5,193.3c0,0.1,0,0.2,0,0.3l14.4,174l-1.6,23.5
	c0.1,3.2,5.6,7.7,8.8,7.1l65.9-11.4c2.8-0.5,4.7-3,4.4-5.8l-4-40.8l-17.7-161.9L264,74.9c-0.3-2.8-2.7-4.9-5.5-4.8L196,72.3
	c-0.2,0-0.4,0-0.5,0h0C192.3,72.1,189.7,74.6,189.7,77.7z"/>
<path class="st3" d="M110.3,540.9c0,0,4.7-3.4,8.9-3.3c5.1,0,10,3.1,10,3.1"/>
<path class="st3" d="M291.5,536.6c0,0-5.1,2.1-9,2.2"/>
<path class="st3" d="M297.1,541.5c0,0-5,2.4-8.9,2.7"/>
<polygon class="st4" points="195.5,125.4 190.6,88 205.4,88 204.4,118.2 "/>
<path class="st2" d="M264.4,78.8c0,25.2-31.6,69.9-72.3,69.9s-73.5-32.4-73.5-57.6s31.2-39.3,71.9-39.3S264.4,57.8,264.4,78.8z"/>
</svg>
