<?xml version="1.0" encoding="utf-8"?>
<!-- Generator: Adobe Illustrator 26.0.2, SVG Export Plug-In . SVG Version: 6.00 Build 0)  -->
<svg version="1.1" id="Calque_1" xmlns="http://www.w3.org/2000/svg" xmlns:xlink="http://www.w3.org/1999/xlink" x="0px" y="0px"
	 viewBox="0 0 388 581.4" style="enable-background:new 0 0 388 581.4;" xml:space="preserve">
<style type="text/css">
	.st0{fill:#D79072;}
	.st1{fill:#9CCBF2;}
	.st2{fill:#4D6FAA;}
	.st3{fill:#614652;}
	.st4{fill:none;stroke:#4F3742;stroke-miterlimit:10;}
</style>
<g>
	<path class="st0" d="M135.6,262.9c-13.9-0.2-22.3,6.7-24.9,18.2c0,0-7.1,55.4-8.3,77c-1.9,34.7,2.5,101.6,7.2,136
		c1,7.5,3,30.3,3,30.3c0.6,6.8,6.4,12,13.2,11.9l0,0c6.7-0.1,12.2-5.2,12.9-11.8c0,0,2.2-26.1,3.5-34.8c4.6-31.3,18-93.5,20-125.1
		c1.2-19-0.4-77.5-0.4-77.5C161,267.7,147.5,263.5,135.6,262.9L135.6,262.9z"/>
	<path class="st1" d="M125.1,516.3L125.1,516.3c-6.1,0.2-11.5,3.7-14.1,9.2l0,0c-5.8,12.3-30.5,28.9-30.5,28.9
		c-4.4,3.5-6.6,9.1-5.6,14.6l0,0l60.3-0.3l3.4-1c3.9-1.2,6.4-5,6-9l-3.5-30C139.3,521.3,132.6,516.1,125.1,516.3z"/>
	<path class="st2" d="M76.6,568.7L76.6,568.7c-0.8-4.9,2.5-9.5,7.4-10.4h0.1l35.9-5.4c4.6-0.7,9,2.2,10.1,6.8l2.1,8.5L76.6,568.7z"
		/>
	<path class="st0" d="M251.4,262.9c12.4-0.2,19.9,6.7,22.2,18.2c0,0,14.4,53.4,15.5,75c1.7,34.7-10.2,103.6-14.5,138
		c-0.9,7.5-2.7,30.3-2.7,30.3c-0.6,6.8-5.7,11.9-11.8,11.8l0,0c-6-0.1-10.9-5.2-11.5-11.8c0,0-2-26.1-3.1-34.8
		c-4.1-31.3-16.1-93.5-17.9-125.1c-1.1-19,0.4-77.5,0.4-77.5C228.7,267.7,240.7,263.4,251.4,262.9L251.4,262.9z"/>
	<path class="st1" d="M274.4,512.5c-1.2,34,40,38.4,40,38.4c4.4,3.5-67,21.8-66.6,17.8c0,0,1.5-52-1-65.2
		C245,494.2,275.1,492.5,274.4,512.5z"/>
	<path class="st1" d="M261.5,531.3c6.4-2.2,5.9-6.8,8.5-9.4c1.5-1.5,7.9-3.2,8.8-1.2c10.7,22.7,61.2,35.4,61.2,35.4
		c5.4,3.8,6.6,9.1,5.5,14.6l0,0c0,0-43.8,9.4-67.8-1.3c-4.8-2.2-9,3-9,3s-22.4,3.7-21.1-3l-2.5-42.7
		C246.8,519.3,250.6,535,261.5,531.3z"/>
	<path class="st2" d="M346,571.2c0.8-9-4.3-14.7-6-14.4c-2.5,0.3-6.5,2.4-9,2.8c-4,0.7-16-0.3-16-0.3c-3.1-0.3-5.6,2.8-5.9,7.1
		l-0.2,8.6c0,0,7.3,1,24.6-1.6C336.5,573,346,571.2,346,571.2z"/>
	<path class="st3" d="M160,533.4c0,0.1,0,0.1,0,0.2C160.1,533.6,160.1,533.5,160,533.4z"/>
	<path class="st3" d="M160,533.6c0,0.2,0,0.4,0,0.7C160,534.1,160,533.8,160,533.6z"/>
	<path class="st3" d="M160.1,533.3v0.2C160.1,533.4,160.1,533.3,160.1,533.3z"/>
	<path class="st3" d="M160.1,532.9c0,0.1,0,0.2,0,0.4V532.9z"/>
	<path class="st3" d="M160.2,532.2L160.2,532.2C160.2,532.4,160.2,532.3,160.2,532.2z"/>
	<path class="st3" d="M160.1,532.4L160.1,532.4L160.1,532.4z"/>
	<path class="st3" d="M160.1,532.5c0,0,0,0.1,0,0.2S160.1,532.6,160.1,532.5z"/>
	<path class="st3" d="M160.1,532.7v0.2C160.1,532.8,160.1,532.8,160.1,532.7z"/>
	<polygon class="st4" points="193.4,121.4 188.4,81.4 203.4,81.4 202.4,113.6 	"/>
	<path class="st2" d="M237.1,29.4c17.9,6,25.7,11.1,30,19c3.5,6.5,6.7,21.2,7,28.6c0.6,17.3-8.6,60.8-24.3,75.4
		c-16,14.8-93.9,14.8-109.9,0c-15.7-14.5-24.9-58-24.3-75.4c0.3-7.4-0.2-9.3,0.4-16.6c1.5-18.2,18.7-25,36.5-31
		c20.5-6.9,41.3-5.8,41.3-5.8S216.6,22.5,237.1,29.4z"/>
	<path class="st2" d="M294.1,435.9c-0.5-17,2.9-89-2.3-100s-1.3-47.7-0.2-59.3c1-11.7,2.2-74.7-0.8-83.7
		c-3.1-9-18.9-130.1-18.9-130.1l-2-7.4c-0.7-10.9-15.2-17.3-26.2-17.3h-99.9c-10.7,0-24.6,3.2-25.7,13.9l-2.5,23.1
		c-4.5,7.2-5.6,39.2-7,47.6c-6.3,37.1-28.8,112.1-23.9,130.2c6,22-5,71.6,0,82.7c4.8,10.6,3.4,75.2,10.4,89.2c7.1,14,5,22.6,4,39.6
		s1.6,26.9,5.2,35.4s8.3,24.6,8.3,24.6l26.1,0.1c0,0,22-25.7,27-31.7s10-74,8.5-88s1.7-62,3.6-76s-0.3-59,0.8-80s-1.8-51.1,1-60
		c3-9.4-0.9-18,4.1-24s3,11,7,30s-6,33,2,56s8,79,13,96s17.1,50,16.1,68c-1.1,18,2,39.5,8.9,53.5s2.6,16.4,9.6,28.5
		s4.8,29.9,4.8,29.9l33.7-6l0.7-34.8C279.4,485.9,294.5,452.9,294.1,435.9z"/>
</g>
</svg>
