<?xml version="1.0" encoding="utf-8"?>
<!-- Generator: Adobe Illustrator 26.0.2, SVG Export Plug-In . SVG Version: 6.00 Build 0)  -->
<svg version="1.1" id="Calque_1" xmlns="http://www.w3.org/2000/svg" xmlns:xlink="http://www.w3.org/1999/xlink" x="0px" y="0px"
	 viewBox="0 0 788 1005" style="enable-background:new 0 0 788 1005;" xml:space="preserve">
<style type="text/css">
	.st0{fill:#547687;}
	.st1{fill:#634B47;}
	.st2{fill:#434957;}
	.st3{fill:#293040;}
</style>
<g>
	<path d="M230.2,479.5h0.1H230.2z"/>
	<polygon points="230.3,479.5 230.4,479.5 230.4,479.5 	"/>
	<path d="M230.2,479.5h0.1H230.2z"/>
	<polygon points="230.3,479.5 230.4,479.5 230.4,479.5 	"/>
	<path class="st0" d="M323.1,648.7c1,13.4,10.3,23.8,21.8,24.4l0,0c11,0.6,20.8-7.9,23.4-20.3c0,0,16.1-88.8,18-120.8
		c0.4-7.6-0.5-36-0.5-36l-2.8-47.6c0,0-2.5-22.5-24.7-26c-25.6-4.1-26.8,10.5-26.8,10.5s-13.7,77.3-14.7,103.9
		C315.9,561.3,323.1,648.7,323.1,648.7z"/>
	<path class="st1" d="M336.8,631.4c-13.9-0.2-22.3,6.7-24.9,18.2c0,0-7.1,55.4-8.3,77c-1.9,34.7,2.5,101.6,7.2,136
		c1,7.5,3,30.3,3,30.3c0.6,6.8,6.4,12,13.2,11.9l0,0c6.7-0.1,12.2-5.2,12.9-11.8c0,0,2.2-26.1,3.5-34.8c4.6-31.3,18-93.5,20-125.1
		c1.2-19-0.4-77.5-0.4-77.5C362.2,636.2,348.7,632,336.8,631.4L336.8,631.4z"/>
	<path class="st2" d="M326.3,884.8L326.3,884.8c-6.1,0.2-11.5,3.7-14.1,9.2l0,0c-5.8,12.3-30.5,28.9-30.5,28.9
		c-4.4,3.5-6.6,9.1-5.6,14.6l0,0l60.3-0.3l3.4-1c3.9-1.2,6.4-5,6-9l-3.5-30C340.5,889.8,333.8,884.6,326.3,884.8z"/>
	<path class="st3" d="M277.8,937.2L277.8,937.2c-0.8-4.9,2.5-9.5,7.4-10.4h0.1l35.9-5.4c4.6-0.7,9,2.2,10.1,6.8l2.1,8.5L277.8,937.2
		z"/>
	<path class="st1" d="M452.6,631.4c12.4-0.2,19.9,6.7,22.2,18.2c0,0,9.1,50.9,11.2,72.5c4.5,46-5.4,107.1-10.2,140.6
		c-1.1,7.5-2.7,30.3-2.7,30.3c-0.6,6.8-5.7,11.9-11.8,11.8l0,0c-6-0.1-10.9-5.2-11.5-11.8c0,0-2-26.1-3.1-34.8
		c-4.1-31.3-16.1-93.5-17.9-125.1c-1.1-19,0.4-77.5,0.4-77.5C429.9,636.2,441.9,632,452.6,631.4L452.6,631.4z"/>
	<path class="st1" d="M475.6,881c-1.2,34,40,38.4,40,38.4c4.4,3.5-67,21.8-66.6,17.8c0,0,1.5-52-1-65.2
		C446.2,862.7,476.3,861,475.6,881z"/>
	<path class="st2" d="M464.2,899.8c6.4-2.2,5.9-6.8,8.5-9.4c1.5-1.5,7.9-3.2,8.8-1.2c10.7,22.7,61.2,35.4,61.2,35.4
		c5.4,3.8,6.6,9.1,5.5,14.6l0,0c0,0-26.5,13.5-66,3.8c-5.1-1.3-10.8-2.1-10.8-2.1s-25.4,3.3-24.1-3.5l0.4-42.3
		C449.5,887.8,453.3,903.5,464.2,899.8z"/>
	<path class="st3" d="M547.2,939.7c0.8-9-4.3-14.7-6-14.4c-2.5,0.3-6.5,2.4-9,2.8c-4,0.7-13.4,2.8-13.4,2.8
		c-3.1-0.3-5.6,2.8-5.9,7.1l-0.2,8.6c0,0,3.1,0.1,20.5-2.5C536.1,943.6,547.2,939.7,547.2,939.7z"/>
	<path class="st0" d="M318.6,433.1l-2.1,18.5l-23.1,462.5l14.5-12.9c6.4-4.4,14.8-4.3,21,0.2l15.4,18.2c0.5,0.6,1.5,0.3,1.7-0.5
		c2.5-19.2,21.3-164.2,23.8-195.7c1.6-19.6,3.9-58.2,6.7-77.7C380.6,617.3,396,534,396,534l1.8-101.9L318.6,433.1z"/>
	<path class="st0" d="M393.6,439.9l1.6,94.8l27.6,165.8l20.6,173.2l1.1,36.9c0.1,2.1,2.4,3.2,4.1,2.1l16.1-10.7
		c0.9-0.7,2-1.3,3.1-1.6c23-7.7,23.8,4.9,33.2,7.4l0.2-25.2l-8.2-197l-17.9-248l-75.3,2.7L393.6,439.9z"/>
	<path class="st0" d="M437.7,403c17.6,5.4,42.3,26.7,37.4,34.7c-8.4,13.5-8.5,68.7-24.2,83.2c-16,14.8-93.9,14.8-109.9,0
		c-15.7-14.5-23.7-59.7-23.1-75.2c0.3-6.6-0.2-8.3,0.3-14.9c1.5-16.3,18.4-22.5,36-27.8c20.2-6.2,40.7-5.2,40.7-5.2
		S417.5,396.8,437.7,403z"/>
</g>
</svg>
