<?xml version="1.0" encoding="utf-8"?>
<!-- Generator: Adobe Illustrator 26.0.1, SVG Export Plug-In . SVG Version: 6.00 Build 0)  -->
<svg version="1.1" id="Calque_1" xmlns="http://www.w3.org/2000/svg" xmlns:xlink="http://www.w3.org/1999/xlink" x="0px" y="0px"
	 viewBox="0 0 788 1005" style="enable-background:new 0 0 788 1005;" xml:space="preserve">
<style type="text/css">
	.st0{fill:#B06F54;}
	.st1{fill:#83B5C6;}
	.st2{fill:#6999AA;}
	.st3{fill:none;stroke:#6699AA;stroke-width:2;stroke-linecap:round;stroke-miterlimit:10;}
	.st4{fill:#87B6C7;}
	.st5{fill:#423632;}
</style>
<g id="Calque_9">
	<path class="st0" d="M351.7,709.5c-10.8,0.1-17.1,2.8-18.7,7.2c0,0-1.7,19.5-2,27.7c-0.4,13.2,2.9,40,7.6,53
		c1,2.8,3.2,11.4,3.2,11.4c0.7,2.6,5.3,4.4,10.6,4.3l0,0c5.2-0.1,9.3-2.1,9.6-4.6c0,0,0.9-9.9,1.6-13.2
		c2.6-11.9,11.1-35.7,11.7-47.7c0.4-7.2-2.7-29.3-2.7-29.3C371.5,711,361,709.6,351.7,709.5L351.7,709.5z"/>
	<path class="st0" d="M443.8,698.8c10.3,1.9,17,6,19.6,11.1c0,0,7.4,21,9.6,30.1c3.5,14.6-0.2,67.8-0.2,67.8
		c-0.1,2.7-0.1,6.3-5.2,5.3l0,0c-5-1-11-3.7-11.9-6.5c0,0-22.2-56.4-25.6-69.7c-2-8-4.4-32-4.4-32
		C425.2,697.1,435,697.3,443.8,698.8L443.8,698.8z"/>
	<path class="st1" d="M352.1,804.3L352.1,804.3c-4.9,0-9.2,1.4-11.3,3.5l0,0c-4.7,4.8-24.4,11.2-24.4,11.2c-3.5,1.3-5.2,3.5-4.4,5.7
		l0,0l48.2-0.1l2.7-0.4c3.1-0.5,5.1-1.9,4.8-3.5l-2.8-11.6C363.5,806.3,358.1,804.3,352.1,804.3z"/>
	<path class="st2" d="M313.3,824.7L313.3,824.7c-0.7-1.9,2-3.7,6-4l28.7-2.1c3.7-0.3,7.2,0.9,8,2.6l1.6,3.3L313.3,824.7z"/>
	<path class="st3" d="M341.9,809c2.3-0.8,4.6-1.3,7-1.4c2.7,0,5.4,0.4,8,1.1"/>
	<path class="st3" d="M338.5,811.6c2.3-0.8,4.7-1.2,7.1-1.3c2.7,0,5.4,0.5,8,1.2"/>
	<path class="st4" d="M465,807.6c3.3-1.1,2.8-3.5,4-4.7c0.7-0.8,4-1.7,4.6-0.7c7,11.3,34.7,17.3,34.7,17.3c2.6,1.4,4.1,4.3,3.8,7.3
		l0,0c0,0-23.2,5.7-36.2-0.7c-2.6-1.3-9-1.9-9-1.9s-11.5,0-11.2-3.4l0.2-15.4C456.5,801.7,459.4,809.5,465,807.6z"/>
	<path class="st5" d="M371.9,797.5L371.9,797.5c-0.6-2.3,32.6-155.7,32.6-155.7l0,0c0,0-7.5,0.6-3.7,5.2s24.9,58,24.9,58
		s10.9,87.6,12.5,89.7s44.6-3.6,44.6-3.6l0.5-73.6l-2.2-17.3l-21.8-93l2.4-18.4c0,0-116.9-5.8-116.9,0s-6.4-3.9-9.5,4.2
		c-7.2,18.9-6.9,80.2-6.9,80.2l0.2,126L371.9,797.5"/>
</g>
</svg>
