<?xml version="1.0" encoding="utf-8"?>
<!-- Generator: Adobe Illustrator 26.0.1, SVG Export Plug-In . SVG Version: 6.00 Build 0)  -->
<svg version="1.1" id="Calque_1" xmlns="http://www.w3.org/2000/svg" xmlns:xlink="http://www.w3.org/1999/xlink" x="0px" y="0px"
	 viewBox="0 0 788 1005" style="enable-background:new 0 0 788 1005;" xml:space="preserve">
<style type="text/css">
	.st0{fill:#4E6566;}
	.st1{fill:#83B5C6;}
</style>
<g id="Calque_9">
	<path class="st0" d="M465.8,821.2c-5.3,1-51.2-1.7-51.2-1.7l0,0l-14.4-171.2c0,0-0.2,152-1.3,169.3l0,0l-60.4,2.8l1.7-235h3.8
		c2,0.5,4.1,0.6,6.2,0.3c2.8-0.5,68.9-8.1,99.4-8.1l6.4,0.3c0.4-0.4,1-0.5,1.4-0.1c0.2,0.2,0.3,0.4,0.3,0.7l6.6,132.1L465.8,821.2z"
		/>
	<path class="st1" d="M379.4,823.2h-28.7l0-5c0-5.9,6.4-10.7,14.4-10.7l0,0c7.9,0,14.3,4.7,14.4,10.6L379.4,823.2z"/>
	<path class="st1" d="M454.5,823.2h-28.7v-5c-0.1-5.9,6.4-10.7,14.4-10.7l0,0c7.9,0,14.3,4.7,14.4,10.6L454.5,823.2z"/>
</g>
</svg>
