<?xml version="1.0" encoding="utf-8"?>
<!-- Generator: Adobe Illustrator 26.0.1, SVG Export Plug-In . SVG Version: 6.00 Build 0)  -->
<svg version="1.1" id="Calque_1" xmlns="http://www.w3.org/2000/svg" xmlns:xlink="http://www.w3.org/1999/xlink" x="0px" y="0px"
	 viewBox="0 0 788 1005" style="enable-background:new 0 0 788 1005;" xml:space="preserve">
<style type="text/css">
	.st0{fill:#84B4DF;}
	.st1{fill:#B06F54;}
	.st2{fill:#83B5C6;}
	.st3{fill:#6999AA;}
	.st4{fill:#87B6C7;}
	.st5{fill:#83443B;}
	.st6{fill:#66725B;}
</style>
<g id="Calque_9">
	<path class="st0" d="M330,709.2c1.3,5.8,9,10.3,18.1,10.4l0,0c8.7,0.1,16.1-3.8,17.7-9.3c0,0,9.4-39.3,9.6-53.4
		c0-3.3-1.7-13.3-1.7-13.3l-4.2-23.3c0,0-2.9-11-20.8-12.3c-20.6-1.5-21,5.6-21,5.6s-6.6,37-6.4,48.7C321.6,673,330,709.2,330,709.2
		z"/>
	<path class="st0" d="M477.2,704.9c0.8,5.9-5.2,10.9-14.1,11.8l0,0c-8.5,0.9-17.2-2.3-20.8-7.6c0,0-23.3-37.8-28.6-51.7
		c-1.2-3.3-3.1-13.3-3.1-13.3l-4.2-23.3c0,0-1-11.1,16.1-14c19.7-3.4,22.6,3.7,22.6,3.7s19.7,35.8,23.7,47.3
		C472.6,668.5,477.2,704.9,477.2,704.9z"/>
	<path class="st1" d="M348,699.9c-9.8,0.1-15.6,2.8-17.1,7.2c0,0-1.6,19.5-1.8,27.7c-0.4,13.2,2.6,40,6.9,53c0.9,2.8,3,11.4,3,11.4
		c0.7,2.5,4.9,4.4,9.6,4.3l0,0c4.7-0.1,8.5-2.1,8.8-4.6c0,0,0.9-9.9,1.5-13.2c2.4-11.9,10.1-35.7,10.7-47.7
		c0.3-7.2-2.5-29.3-2.5-29.3C366.1,701.4,356.5,700,348,699.9L348,699.9z"/>
	<path class="st1" d="M460.4,695.8c9.7-0.7,16.2,1.5,18.9,5.8c0,0,8,18.4,10.6,26.6c4.1,13.2,3.6,65.3,3.6,65.3
		c0.1,2.6,0.3,6.1-4.5,6.4l0,0c-4.7,0.3-10.4-0.8-11.4-3.3c0,0-23.8-48.7-27.7-60.7c-2.4-7.2-5.8-29.7-5.8-29.7
		C443,698.9,452.1,696.6,460.4,695.8z"/>
	<path class="st2" d="M336,798.3L336,798.3c-4.3,4.8-22.2,11.2-22.2,11.2c-3.2,1.3-4.8,3.5-4,5.7l0,0l43.9-0.1l2.5-0.4
		c2.8-0.5,4.7-1.9,4.4-3.5l-2.5-11.6c-1.3-2.9-6.2-5.8-11.6-4.8C343.5,795.2,338.2,796.8,336,798.3z"/>
	<path class="st3" d="M310.9,815.1L310.9,815.1c-0.6-1.9,1.9-3.7,5.5-4l26.1-2.1c3.4-0.3,6.5,0.9,7.3,2.6l1.5,3.3L310.9,815.1z"/>
	<path class="st4" d="M487.2,797.6c4.5-1.1,4-3.3,5.7-4.5c1-0.8,5.6-1.6,6.3-0.7c8.6,10.3,30,18.8,30,18.8c4,1.7,5.1,4.1,4.6,6.7
		l0,0c0,0-16.9,3.4-33.6,1.3c-3.6-0.5-12.1-1.5-12.1-1.5s-15.5,0.3-14.9-2.9l1.7-18.9C476,792.3,479.4,799.5,487.2,797.6z"/>
	<polygon class="st5" points="306.5,737.7 382,739.4 402.2,669.5 428.5,736.4 510.2,727.5 453.7,588.1 451.5,581.9 332.5,582.7 	"/>
	<polygon class="st5" points="317.9,687.1 301.5,687.1 308.2,653.8 323.7,638.6 	"/>
	<polygon class="st5" points="488.9,685.6 507.2,678.3 491.6,645.8 466.3,638.6 	"/>
	<polygon class="st6" points="385,742.4 298.3,740.7 303.3,726.5 385,733.1 	"/>
	<polygon class="st6" points="515.7,730.9 420.8,738 419.6,723.1 515.7,722.1 	"/>
</g>
</svg>
