<?xml version="1.0" encoding="utf-8"?>
<!-- Generator: Adobe Illustrator 26.0.1, SVG Export Plug-In . SVG Version: 6.00 Build 0)  -->
<svg version="1.1" id="Calque_1" xmlns="http://www.w3.org/2000/svg" xmlns:xlink="http://www.w3.org/1999/xlink" x="0px" y="0px"
	 viewBox="0 0 788 1005" style="enable-background:new 0 0 788 1005;" xml:space="preserve">
<style type="text/css">
	.st0{fill:#965D54;}
	.st1{fill:#84B4DF;}
	.st2{fill:#83B5C6;}
	.st3{fill:#6999AA;}
	.st4{fill:none;stroke:#6699AA;stroke-width:2;stroke-linecap:round;stroke-miterlimit:10;}
	.st5{fill:#87B6C7;}
	.st6{fill:#6699AA;}
	.st7{fill:none;stroke:#6399AA;stroke-width:2;stroke-linecap:round;stroke-miterlimit:10;}
	.st8{fill:#AF8076;}
</style>
<g id="Calque_9">
	<path class="st0" d="M335.2,711.5c1.3,5.8,9,10.3,18.1,10.4l0,0c8.7,0.1,16.1-3.8,17.7-9.3c0,0,9.4-39.3,9.6-53.4
		c0-3.3-1.7-13.3-1.7-13.3l-4.2-23.3c0,0-2.9-11-20.9-12.3c-20.6-1.5-21,5.6-21,5.6s-6.6,37-6.4,48.7
		C326.8,675.3,335.2,711.5,335.2,711.5z"/>
	<path class="st0" d="M476.3,707.7c0.5,5.9-5.8,10.9-14.7,11.6l0,0c-8.5,0.7-17-2.6-20.3-7.9c0,0-21.2-38.1-25.7-52.1
		c-1.1-3.3-2.4-13.3-2.4-13.3l-2.9-23.3c0,0-0.4-11.1,16.9-13.8c19.9-3.1,22.4,4,22.4,4s17.7,36,21.1,47.6
		C473.6,671.3,476.3,707.7,476.3,707.7z"/>
	<path class="st1" d="M353.2,702.2c-9.8,0.1-15.6,2.8-17.1,7.2c0,0-1.6,19.5-1.8,27.7c-0.4,13.2,2.6,40,6.9,53
		c0.9,2.8,2.9,11.4,2.9,11.4c0.7,2.6,4.9,4.4,9.7,4.3l0,0c4.7-0.1,8.5-2.1,8.8-4.6c0,0,0.9-9.9,1.5-13.2
		c2.4-11.9,10.1-35.7,10.7-47.7c0.3-7.2-2.5-29.4-2.5-29.4C371.3,703.7,361.7,702.2,353.2,702.2z"/>
	<path class="st1" d="M459.9,698.5c9.8-0.6,16.1,1.8,18.5,6.1c0,0,7,18.5,9.1,26.8c3.4,13.2,0,65.4,0,65.4c-0.1,2.6-0.1,6.1-4.9,6.3
		l0,0c-4.7,0.2-10.4-0.9-11.2-3.5c0,0-21-49-24.3-61.1c-2-7.3-4.2-29.8-4.2-29.8C442.4,701.2,451.6,699.1,459.9,698.5L459.9,698.5z"
		/>
	<path class="st2" d="M353.5,797L353.5,797c-4.4,0-8.4,1.4-10.3,3.6l0,0c-4.3,4.8-22.3,11.2-22.3,11.2c-3.2,1.3-4.8,3.5-4,5.7l0,0
		l43.9-0.1l2.5-0.4c2.8-0.5,4.7-1.9,4.4-3.5l-2.5-11.6C363.9,799,359,796.9,353.5,797z"/>
	<path class="st3" d="M318.2,817.3L318.2,817.3c-0.6-1.9,1.9-3.7,5.5-4l26.1-2.1c3.4-0.3,6.5,0.9,7.3,2.6l1.5,3.3L318.2,817.3z"/>
	<path class="st4" d="M344.3,801.6c2.1-0.8,4.2-1.3,6.4-1.4c2.5,0,4.9,0.4,7.3,1.1"/>
	<path class="st4" d="M341.2,804.2c2.1-0.8,4.3-1.2,6.5-1.3c2.5,0.1,4.9,0.5,7.2,1.2"/>
	<path class="st5" d="M481.1,800.5c4.6-1.1,4.2-3.2,6-4.4c1.1-0.7,5.6-1.6,6.4-0.7c8.1,10.4,44.8,15.8,44.8,15.8
		c3.9,1.7,4.9,4.2,4.2,6.7l0,0c0,0-32.1,5.4-48.8-0.4c-3.3-1.2-12-1.7-12-1.7s-15.5,0.1-14.7-3.1l2-14.3
		C470.2,795.1,473.2,802.4,481.1,800.5z"/>
	<path class="st6" d="M542.9,818c0.5-4.2-3.3-6.8-4.6-6.7c-1.8,0.2-4.7,1.2-6.5,1.4c-2.9,0.3-11.6,0-11.6,0c-2-0.2-3.9,1.2-4.1,3.2
		c0,0,0,0.1,0,0.1v4c0,0,5.3,0.4,17.8-1C536,818.9,542.9,818,542.9,818z"/>
	<path class="st7" d="M498.4,800.9c-2.1,0.6-4.3,0.9-6.5,1.1"/>
	<path class="st7" d="M502.5,803.2c-2.1,0.7-4.2,1.1-6.4,1.3"/>
	<path class="st8" d="M333.2,581.8c0.1,2.5-23.2,122.7-33,173.1c-2.2,11.6,12.6,22.3,35.1,25.1c1.1,0,2.1,0.2,3.1,0.6
		c0.6,1,1.3,14.4,2.8,14.5s24.5,1.7,23.4,0c0,0,3.9-14.5,3.1-13.8l0,0c0,0,33.8-10.9,33.1-20.3l-8.4-114.3l0,0
		c-0.5-0.8,13,69.7,18.2,114c1.4,12,22.8,20.9,46.5,19.3c1.6-0.2,3.1-0.2,4.7-0.1l4.2,8.1l23-1.1l0.4-10.6c0.8-0.3,1.6-0.5,2.5-0.7
		c20.9-5.9,30.6-17.3,25.7-29.1l-67.8-162.4L333.2,581.8z"/>
</g>
</svg>
