<?xml version="1.0" encoding="utf-8"?>
<!-- Generator: Adobe Illustrator 26.0.2, SVG Export Plug-In . SVG Version: 6.00 Build 0)  -->
<svg version="1.1" id="Calque_1" xmlns="http://www.w3.org/2000/svg" xmlns:xlink="http://www.w3.org/1999/xlink" x="0px" y="0px"
	 viewBox="0 0 788 1005" style="enable-background:new 0 0 788 1005;" xml:space="preserve">
<style type="text/css">
	.st0{fill:#9F9D8A;}
	.st1{fill:#2E858E;}
	.st2{fill:#E8E0BF;}
	.st3{fill:none;stroke:#E8E0BF;stroke-width:2;stroke-linecap:round;stroke-miterlimit:10;}
	.st4{fill:none;stroke:#4D4A3D;stroke-miterlimit:10;}
</style>
<g>
	<path class="st0" d="M336.9,632.5c-13.9-0.2-22.3,6.7-24.9,18.2c0,0-7.1,55.4-8.3,77c-1.9,34.7,2.5,101.6,7.2,136
		c1,7.5,3,30.3,3,30.3c0.6,6.8,6.4,12,13.2,11.9l0,0c6.7-0.1,12.2-5.2,12.9-11.8c0,0,2.2-26.1,3.5-34.8c4.6-31.3,18-93.5,20-125.1
		c1.2-19-0.4-77.5-0.4-77.5C362.3,637.3,348.8,633.1,336.9,632.5L336.9,632.5z"/>
	<path class="st1" d="M326.4,885.9L326.4,885.9c-6.1,0.2-11.5,3.7-14.1,9.2l0,0c-5.8,12.3-30.5,28.9-30.5,28.9
		c-4.4,3.5-6.6,9.1-5.6,14.6l0,0l60.3-0.3l3.4-1c3.9-1.2,6.4-5,6-9l-3.5-30C340.6,890.9,333.9,885.7,326.4,885.9z"/>
	<path class="st2" d="M277.9,938.3L277.9,938.3c-0.8-4.9,2.5-9.5,7.4-10.4h0.1l35.9-5.4c4.6-0.7,9,2.2,10.1,6.8l2.1,8.5L277.9,938.3
		z"/>
	<path class="st0" d="M452.7,632.5c12.4-0.2,19.9,6.7,22.2,18.2c0,0,14.4,53.4,15.5,75c1.7,34.7-10.2,103.6-14.5,138
		c-0.9,7.5-2.7,30.3-2.7,30.3c-0.6,6.8-5.7,11.9-11.8,11.8l0,0c-6-0.1-10.9-5.2-11.5-11.8c0,0-2-26.1-3.1-34.8
		c-4.1-31.3-16.1-93.5-17.9-125.1c-1.1-19,0.4-77.5,0.4-77.5C430,637.3,442,633,452.7,632.5L452.7,632.5z"/>
	<path class="st0" d="M475.7,882.1c-1.2,34,40,38.4,40,38.4c4.4,3.5-67,21.8-66.6,17.8c0,0,1.5-52-1-65.2
		C446.3,863.8,476.4,862.1,475.7,882.1z"/>
	<path class="st1" d="M462.8,900.9c6.4-2.2,5.9-6.8,8.5-9.4c1.5-1.5,7.9-3.2,8.8-1.2c10.7,22.7,61.2,35.4,61.2,35.4
		c5.4,3.8,6.6,9.1,5.5,14.6l0,0c0,0-43.8,9.4-67.8-1.3c-4.8-2.2-9,3-9,3s-22.4,3.7-21.1-3l-2.5-42.7
		C448.1,888.9,451.9,904.6,462.8,900.9z"/>
	<path class="st2" d="M547.9,940.1c0.8-9-4.3-14.7-6-14.4c-2.5,0.3-6.5,2.4-9,2.8c-4,0.7-16-0.3-16-0.3c-3.1-0.3-5.6,2.8-5.9,7.1
		l-0.2,8.6c0,0,7.3,1,24.6-1.6C538.4,941.9,547.9,940.1,547.9,940.1z"/>
	<path class="st2" d="M326.7,486.7l-5.5,8c-1,1.4-1.6,3.1-1.8,4.8l-51.2,386c-1,7.3,6.1,13.8,15.5,14.3l31.9,1.4l50.4,0.5
		c13.2,1.3,3.9-128.1,7.1-158.6c1.8-17.7,2.6-53.3,5.8-70.9c4.3-24,26.6-97.1,29.3-107.9c0.2-0.7,0.3-15.9,0.3-16.7l1.5-54.7
		c0.2-7.3-7.3-13.3-16.5-13.2l-52.5,0.5C334.9,480.1,329.6,482.6,326.7,486.7z"/>
	<path class="st2" d="M384,486.5l1.6,72.6c0,0.2,0,0.4,0.1,0.5l30.1,160c0,0.1,0,0.2,0,0.3l15.8,157l-1.8,21.2
		c0.1,2.9,6.1,6.9,9.6,6.4l72.2-10.3c3.1-0.5,5.2-2.7,4.8-5.2l-4.4-36.8L492.9,706l-27.4-222.1c-0.3-2.5-3-4.4-6-4.3l-68.5,2
		c-0.2,0-0.4,0-0.5,0l0,0C386.9,481.4,384,483.7,384,486.5z"/>
	<path class="st3" d="M309.4,904.5c0,0,4.7-3.4,8.9-3.3c5.1,0,10,3.1,10,3.1"/>
	<path class="st3" d="M490.6,900.2c0,0-5.1,2.1-9,2.2"/>
	<path class="st3" d="M496.2,905.1c0,0-5,2.4-8.9,2.7"/>
	<polygon class="st4" points="394.6,489 389.7,451.6 404.5,451.6 403.5,481.8 	"/>
	<path class="st2" d="M464.7,478.3c0,25.2-32.9,70-73.6,70s-75.2,28.9-73.5-57.6c0.8-42,31.3-40,72-40S464.7,446.1,464.7,478.3z"/>
</g>
</svg>
