<?xml version="1.0" encoding="utf-8"?>
<!-- Generator: Adobe Illustrator 26.0.2, SVG Export Plug-In . SVG Version: 6.00 Build 0)  -->
<svg version="1.1" id="Layer_1" xmlns="http://www.w3.org/2000/svg" xmlns:xlink="http://www.w3.org/1999/xlink" x="0px" y="0px"
	 viewBox="0 0 388 507.7" style="enable-background:new 0 0 388 507.7;" xml:space="preserve">
<style type="text/css">
	.st0{fill:#465260;}
	.st1{fill:#D79072;}
	.st2{fill:#87B6C7;}
	.st3{fill:#6C9AAB;}
	.st4{fill:#699AAB;}
	.st5{fill:none;stroke:#699AAB;stroke-width:2;stroke-linecap:round;stroke-miterlimit:10;}
</style>
<g id="Calque_1_00000126314911917996825050000003746613014894391447_">
	<path class="st0" d="M95.7,286.5l-9.5-6c-3.5-2.2-5.6-6-5.6-10.1v-84.8c0-2.4,0.7-4.7,2.1-6.7l22.7-33.5c2.3-3.5,7.8-1.6,7.5,2.6
		l-9.1,134.5C103.5,286.4,99.1,288.6,95.7,286.5z"/>
	<polygon class="st0" points="179,203.6 156.4,189.4 156.4,94.3 189.7,45.2 	"/>
	<path class="st0" d="M284.7,281.5l11.9-7.5c3.5-2.2,5.6-6,5.6-10.1V179c0-2.4-0.7-4.7-2.1-6.7l-21.7-32c-2.6-3.9-8.7-1.8-8.4,2.9
		l9.2,135.5C279.4,281.4,282.4,282.9,284.7,281.5z"/>
</g>
<g id="Calque_7_00000173139597941964135810000000031378886871128200_">
	<polygon class="st1" points="136.6,463.7 109.9,458.3 109.9,415.7 136.6,424.3 	"/>
	<path class="st2" d="M120.1,447.9L120.1,447.9c-5.9,0-11.3,3.3-14.1,8.5l0,0c-5.9,11.4-30.5,26.7-30.5,26.7
		c-4.4,3-6.5,8.3-5.5,13.5l0,0l60.3-0.3l3.4-1c3.8-0.9,6.3-4.4,6-8.3l-3.5-27.7C134.4,452.5,127.7,447.7,120.1,447.9z"/>
	<path class="st3" d="M71.6,496.4L71.6,496.4c-0.8-4.6,2.6-8.9,7.5-9.6l35.8-5c4.5-0.7,8.8,1.9,10.1,6.3l2.1,7.9L71.6,496.4z"/>
	<path class="st1" d="M267.5,431.6c-1.2,31.5,42,48.3,42,48.3c4.4,3.2-67,20.2-66.6,16.5c0,0,1.5-48.2-1-60.4
		C240.1,427.3,267.5,431.6,267.5,431.6z"/>
	<path class="st2" d="M256.5,461.8c6.4-2,5.9-6.3,8.5-8.7c1.5-1.4,7.9-3,8.8-1.1c10.7,21,61.2,32.8,61.2,32.8
		c5.4,3.5,6.5,8.4,5.5,13.5l0,0l-36.5,4c0,0-28.7-3.6-61.4-5.2l0.6-40.2C244.9,449.9,245.6,465.2,256.5,461.8z"/>
	<path class="st4" d="M341,498.7c0.8-8.3-4.3-13.6-6-13.4c-2.5,0.3-6.5,2.2-9,2.6c-4,0.6-16-0.3-16-0.3c-3.1-0.3-5.6,2.5-5.9,6.6
		l-0.2,8c0,0,7.3,0.9,24.6-1.5C331.5,500.4,341,498.7,341,498.7z"/>
	<path class="st5" d="M103.1,465.1c0,0,4.7-3.1,8.9-3.1c3.5,0.2,6.9,1.1,10,2.9"/>
	<path class="st0" d="M288.4,420l-19.6,17.3c-0.6,0.6-1.4,0.9-2.3,0.9l-23,1.5c-1.1,0.1-2.2-0.4-3-1.2L223,419.6
		c-4.5-4.9-7.2-11.2-7.4-17.9L211,277.2c0-0.1,0-0.3,0-0.4l-14.4-99.6c-0.6-4.4-7.1-4.2-7.5,0.2c-4,46.2-9.5,106.7-12,122.6
		c0,0.1,0,0.2,0,0.3l-7.2,101.1c-0.5,7.6-4.2,14.7-10.1,19.5l-21.9,17.9c-0.7,0.6-1.7,0.9-2.6,0.8l-23.4-1.4
		c-1.2-0.1-2.2-0.7-2.9-1.6L95,416.2c-3.6-5.3-5.3-11.6-4.7-17.9l30.5-368.5c0.2-2.2,2.2-3.8,4.4-3.4v0c0.2,0,0.4,0.1,0.6,0
		l30.6-0.3l30.7-1l23.3-1.1l48.3-0.8c2,0,3.6,1.4,3.8,3.4l23.9,236.1l11.2,134.1C298.4,405.6,295,414.2,288.4,420z"/>
</g>
</svg>
