<?xml version="1.0" encoding="utf-8"?>
<!-- Generator: Adobe Illustrator 26.0.3, SVG Export Plug-In . SVG Version: 6.00 Build 0)  -->
<svg version="1.1" id="Calque_1" xmlns="http://www.w3.org/2000/svg" xmlns:xlink="http://www.w3.org/1999/xlink" x="0px" y="0px"
	 viewBox="0 0 788 1005" style="enable-background:new 0 0 788 1005;" xml:space="preserve">
<style type="text/css">
	.st0{fill:#FFFFFF;}
	.st1{fill:#D68F72;}
	.st2{fill:#B85727;}
	.st3{fill:#5A5A5A;}
	.st4{fill:#2B2B2B;}
	.st5{fill:none;stroke:#1C1C1C;stroke-width:2;stroke-linecap:round;stroke-miterlimit:10;}
</style>
<path class="st0" d="M333.1,707c1.3,5.9,9,10.3,18.1,10.4l0,0c8.7,0.1,16.1-3.8,17.7-9.3c0,0,9.4-39.3,9.6-53.4
	c0-3.3-1.7-13.3-1.7-13.3l-4.2-23.3c0,0-2.9-11-20.8-12.3c-20.6-1.6-21,5.6-21,5.6s-6.6,37-6.4,48.7
	C324.6,670.8,333.1,707,333.1,707z"/>
<path class="st1" d="M474.2,703.2c0.5,5.9-5.8,10.8-14.7,11.6l0,0c-8.5,0.8-17-2.5-20.3-7.9c0,0-21.2-38.1-25.7-52.1
	c-1.1-3.3-2.4-13.3-2.4-13.3l-2.9-23.3c0,0-0.4-11.1,16.9-13.8c19.9-3.1,22.5,4,22.5,4s17.7,36,21,47.6
	C471.5,666.8,474.2,703.2,474.2,703.2z"/>
<path class="st2" d="M351.1,697.7c-9.8,0.1-15.6,2.8-17.1,7.2c0,0-1.6,19.5-1.8,27.7c-0.4,13.2,2.6,40,6.9,53c0.9,2.8,3,11.4,3,11.4
	c0.7,2.6,4.9,4.4,9.6,4.3l0,0c4.7-0.1,8.5-2.1,8.8-4.6c0,0,0.9-9.9,1.5-13.2c2.4-11.9,10.1-35.7,10.7-47.7
	c0.3-7.2-2.5-29.3-2.5-29.3C369.2,699.2,359.6,697.7,351.1,697.7L351.1,697.7z"/>
<path class="st2" d="M457.8,694c9.8-0.6,16.1,1.8,18.5,6l0,0c3.4,13.2,9.1,92.1,9.1,92.1c-0.1,2.6-0.1,6.1-4.9,6.3l0,0
	c-4.7,0.2-10.4-0.9-11.2-3.5c0,0-21-49-24.3-61.1c-2-7.3-4.2-29.8-4.2-29.8C440.3,696.7,449.5,694.6,457.8,694L457.8,694z"/>
<path class="st3" d="M338.1,622.4c-0.5,1.9-7.9,88.6-10.4,118.4c-0.5,6.5,0.2,13.1,2.2,19.3l10.3,30.8l21,0.3c0,0,8.2-16.6,13.1-28
	c1.9-4.3,2.9-9,3.1-13.8c0.7-24.4,3-103.1,4.5-109.9C384.4,628.5,338.7,620.2,338.1,622.4z"/>
<path class="st3" d="M423.4,630.7c0,2,13.7,87.9,18.4,117.4c1.1,6.4,3.3,12.7,6.8,18.2l18.3,26.3l18.8-4.4c0,0,4.7-17.4,6.7-29.7
	c0.8-4.6,0.6-9.4-0.3-14.1c-5.2-23.8-21.9-100.7-22.1-107.7C469.8,625.5,423.5,628.4,423.4,630.7z"/>
<path class="st4" d="M351.4,792.5L351.4,792.5c-4.4,0-8.4,1.4-10.3,3.5l0,0c-4.2,4.8-14,14-14,14c-3.2,1.3-2.3,3.8-1.5,6l0,0
	l33.1-0.1l2.5-0.4c2.8-0.5,4.7-1.9,4.4-3.5l-2.5-14.8C361.8,794.4,356.9,792.4,351.4,792.5z"/>
<path class="st4" d="M479.6,796.2c4.6-1.1,7-6.5,7.5-5.4c3.3,8,34.6,12.9,34.6,12.9c3.9,1.7,8.5,10,7.9,12.5l0,0c-4.7-0.5-48,0-48,0
	s-15.5,0.1-14.7-3.1l0.7-18.9C468.8,790.8,471.8,798.1,479.6,796.2z"/>
<path class="st3" d="M406.8,619.6L406.8,619.6c0,0-7.5,0.6-3.7,5.2c2.7,3.2,8.6,33.1,15,49.1c3.1,7.6,8.4,26.9,9.5,35.1
	c3.1,24.1,20.3,56.5,21.5,58.1c0,0,17.8,4,29.8,2.5c3.6-0.4,6.2-3.5,6.3-7.1l0.5-67.3l-2.2-17.2l-21.6-87.5
	c-0.9-3.6-2.3-7.1-4.1-10.3l-3.3-5.7c-2.8-4.9-8-8.1-13.6-8.4c-26.1-1.4-99.5-4.9-101.2-0.5c-1.3,3.2,1-2.9-2.1,5.2
	c-7.2,18.9-6.9,80.1-6.9,80.1l0.2,105.1l46.4-5L406.8,619.6z"/>
<path class="st5" d="M341.7,797.5c2.3-0.8,4.6-1.3,7-1.4c2.7,0,5.4,0.4,8,1.1"/>
<path class="st5" d="M338.3,800.1c2.3-0.8,4.7-1.2,7.1-1.3c2.7,0,5.4,0.5,8,1.2"/>
<path class="st5" d="M485.7,799.2c2.4-1.2,5-2,7.7-2.5c2.4-0.3,4.7-0.2,7.1,0.1"/>
<path class="st5" d="M489.4,801.3c2.4-1.2,5-2.1,7.7-2.6c2.4-0.3,4.8-0.4,7.2,0"/>
</svg>
