<?xml version="1.0" encoding="utf-8"?>
<!-- Generator: Adobe Illustrator 26.0.3, SVG Export Plug-In . SVG Version: 6.00 Build 0)  -->
<svg version="1.1" id="Calque_1" xmlns="http://www.w3.org/2000/svg" xmlns:xlink="http://www.w3.org/1999/xlink" x="0px" y="0px"
	 viewBox="0 0 788 1005" style="enable-background:new 0 0 788 1005;" xml:space="preserve">
<style type="text/css">
	.st0{fill:#B85727;}
	.st1{fill:#95C1BE;}
	.st2{fill:#87AAA7;}
	.st3{fill:#DBDBDB;}
	.st4{fill:none;stroke:#87AAA7;stroke-width:2;stroke-linecap:round;stroke-miterlimit:10;}
</style>
<path class="st0" d="M351.7,709.5c-10.8,0.1-17.1,2.8-18.7,7.2c0,0-1.7,19.5-2,27.7c-0.4,13.2,2.9,40,7.6,53
	c1,2.8,3.2,11.4,3.2,11.4c0.7,2.6,5.3,4.4,10.6,4.3l0,0c5.2-0.1,9.3-2.1,9.6-4.6c0,0,0.9-9.9,1.6-13.2c2.6-11.9,11.1-35.7,11.7-47.7
	c0.4-7.2-2.7-29.3-2.7-29.3C371.5,711,361,709.6,351.7,709.5L351.7,709.5z"/>
<path class="st0" d="M443.8,698.8c10.3,1.9,17,6,19.6,11.1c0,0,7.4,21,9.6,30.1c3.5,14.6-0.2,67.8-0.2,67.8
	c-0.1,2.7-0.1,6.3-5.2,5.3l0,0c-5-1-11-3.7-11.9-6.5c0,0-22.2-56.4-25.6-69.7c-2-8-4.4-32-4.4-32C425.2,697.1,435,697.3,443.8,698.8
	L443.8,698.8z"/>
<path class="st1" d="M352.1,804.3L352.1,804.3c-4.9,0-9.2,1.4-11.3,3.5l0,0c-4.7,4.8-24.4,11.2-24.4,11.2c-3.5,1.3-5.2,3.5-4.4,5.7
	l0,0l48.2-0.1l2.7-0.4c3.1-0.5,5.1-1.9,4.8-3.5l-2.8-11.6C363.5,806.3,358.1,804.3,352.1,804.3z"/>
<path class="st2" d="M313.3,824.7L313.3,824.7c-0.7-1.9,2-3.7,6-4l28.7-2.1c3.7-0.3,7.2,0.9,8,2.6l1.6,3.3L313.3,824.7z"/>
<path class="st1" d="M465,807.6c3.3-1.1,2.8-3.5,4-4.7c0.7-0.8,4-1.7,4.6-0.7c7,11.3,34.7,17.3,34.7,17.3c2.6,1.4,4.1,4.3,3.8,7.3
	l0,0c0,0-23.2,5.7-36.2-0.7c-2.6-1.3-9-1.9-9-1.9s-11.5,0-11.2-3.4l0.2-15.4C456.5,801.7,459.4,809.5,465,807.6z"/>
<path class="st3" d="M404.9,642.6L404.9,642.6c0,0-7.5,0.6-3.7,5.2c2.7,3.2,13.8,30.2,20.2,46.2c3.1,7.6,3.2,29.8,4.3,38
	c3.1,24.1,11.7,61.8,12.9,63.4c0,0,26.4-1.3,38.4-2.8c3.6-0.4,6.2-3.5,6.3-7.1l0.5-67.3l-2.2-17.2L460,613.5
	c-0.9-3.6-2.3-7.1-4.1-10.3l-3.3-5.7c-2.8-4.9-8-8.1-13.6-8.4c-26.1-1.4-99.5-4.9-101.2-0.5c-1.3,3.2,1-2.9-2.1,5.2
	c-7.2,18.9-6.9,80.1-6.9,80.1l0.2,126l43.3-1.6L404.9,642.6z"/>
<polygon points="-325.8,330 -325.7,329.9 -325.8,329.9 "/>
<polygon points="-325.7,329.9 -325.6,330 -325.6,329.9 "/>
<polygon points="-325.8,330 -325.7,329.9 -325.8,329.9 "/>
<polygon points="-325.7,329.9 -325.6,330 -325.6,329.9 "/>
<polygon points="-326.8,321.9 -326.7,321.8 -326.8,321.8 "/>
<polygon points="-326.7,321.8 -326.6,321.9 -326.6,321.8 "/>
<polygon points="-326.8,321.9 -326.7,321.8 -326.8,321.8 "/>
<polygon points="-326.7,321.8 -326.6,321.9 -326.6,321.8 "/>
<path class="st2" d="M493.2,829.4l-6.1-0.5c-0.7-1.9,2.2-5.2,4.7-5.5l11.5-2.2c7.6-1.2,8.3,1.5,8.6,3.5l0.1,2.1l-1.9,0.5
	C504.7,828.9,499,829.6,493.2,829.4z"/>
<g>
	<path class="st4" d="M341.9,809c2.3-0.8,4.6-1.3,7-1.4c2.7,0,5.4,0.4,8,1.1"/>
	<path class="st4" d="M338.5,811.6c2.3-0.8,4.7-1.2,7.1-1.3c2.7,0,5.4,0.5,8,1.2"/>
	<path class="st4" d="M471.3,809.4c2.6-0.7,5.3-1.1,8-1.1c2.4,0.1,4.7,0.6,7,1.4"/>
	<path class="st4" d="M474.6,812.2c2.6-0.7,5.3-1.2,8-1.2c2.4,0.1,4.8,0.5,7.1,1.3"/>
</g>
</svg>
