<?xml version="1.0" encoding="utf-8"?>
<!-- Generator: Adobe Illustrator 26.0.2, SVG Export Plug-In . SVG Version: 6.00 Build 0)  -->
<svg version="1.1" id="Calque_1" xmlns="http://www.w3.org/2000/svg" xmlns:xlink="http://www.w3.org/1999/xlink" x="0px" y="0px"
	 viewBox="0 0 127.3 242.7" style="enable-background:new 0 0 127.3 242.7;" xml:space="preserve">
<style type="text/css">
	.st0{fill:#587CC6;}
	.st1{fill:#83B5C6;}
</style>
<g id="Calque_9">
	<path class="st0" d="M123.9,235.9c-9.9,0.2-35.9-1.2-44.8-1.7c-1.7-0.1-3.1-1.5-3.2-3.2c-1.4-18.4-8.7-115-8.2-110.4l-1.8-17.1
		c-0.4-4.2-6.6-4.1-6.9,0.1c-0.7,11.2-1.3,20.2-1.3,19.8c0-0.9,2.2,87,2.6,105.4c0,1.9-1.4,3.4-3.3,3.5l-53.4,2.5
		c-2,0.1-3.6-1.5-3.6-3.5L1.7,3.4C1.7,1.5,3.2,0,5.1,0h0c0.2,0,0.5,0,0.7,0.1c1.9,0.4,3.9,0.5,5.8,0.2c2.8-0.5,69.2-0.2,99.8-0.2
		l1.2,0c1.8,0,3.4,1.4,3.5,3.2l9.7,121.8c0,0.1,0,0.2,0,0.2l1.3,107.1C127.3,234.3,125.8,235.9,123.9,235.9z"/>
	<path class="st1" d="M40.6,242.7H11.9v-5c0-5.9,6.4-10.7,14.4-10.7l0,0c7.9,0,14.3,4.7,14.4,10.6L40.6,242.7z"/>
	<path class="st1" d="M115.7,242.7H87v-5c-0.1-5.9,6.4-10.7,14.4-10.7l0,0c7.9,0,14.3,4.7,14.4,10.6L115.7,242.7z"/>
</g>
</svg>
