<?xml version="1.0" encoding="utf-8"?>
<!-- Generator: Adobe Illustrator 26.0.3, SVG Export Plug-In . SVG Version: 6.00 Build 0)  -->
<svg version="1.1" id="Calque_1" xmlns="http://www.w3.org/2000/svg" xmlns:xlink="http://www.w3.org/1999/xlink" x="0px" y="0px"
	 viewBox="0 0 242.7 243.5" style="enable-background:new 0 0 242.7 243.5;" xml:space="preserve">
<style type="text/css">
	.st0{fill:#5E6D70;}
	.st1{fill:#B85727;}
	.st2{fill:#83B5C6;}
	.st3{fill:#6999AA;}
	.st4{fill:none;stroke:#6699AA;stroke-width:2;stroke-linecap:round;stroke-miterlimit:10;}
	.st5{fill:#87B6C7;}
	.st6{fill:#6699AA;}
	.st7{fill:none;stroke:#6399AA;stroke-width:2;stroke-linecap:round;stroke-miterlimit:10;}
	.st8{fill:#AC7C73;}
</style>
<g id="Calque_9">
	<path class="st0" d="M35.4,133.5c1.3,5.8,9,10.3,18.1,10.4l0,0c8.7,0.1,16.1-3.8,17.7-9.3c0,0,9.4-39.3,9.6-53.4
		c0-3.3-1.7-13.3-1.7-13.3l-4.2-23.3c0,0-2.9-11-20.9-12.3c-20.6-1.5-21,5.6-21,5.6s-6.6,37-6.4,48.7
		C26.9,97.3,35.4,133.5,35.4,133.5z"/>
	<path class="st0" d="M176.4,129.7c0.5,5.9-5.8,10.9-14.7,11.6l0,0c-8.5,0.7-17-2.6-20.3-7.9c0,0-21.2-38.1-25.7-52.1
		c-1.1-3.3-2.4-13.3-2.4-13.3l-2.9-23.3c0,0-0.4-11.1,16.9-13.8c19.9-3.1,22.4,4,22.4,4s17.7,36,21.1,47.6
		C173.8,93.3,176.4,129.7,176.4,129.7z"/>
	<path class="st1" d="M53.4,124.2c-9.8,0.1-15.6,2.8-17.1,7.2c0,0-1.6,19.5-1.8,27.7c-0.4,13.2,2.6,40,6.9,53
		c0.9,2.8,2.9,11.4,2.9,11.4c0.7,2.6,4.9,4.4,9.7,4.3l0,0c4.7-0.1,8.5-2.1,8.8-4.6c0,0,0.9-9.9,1.5-13.2
		c2.4-11.9,10.1-35.7,10.7-47.7c0.3-7.2-2.5-29.4-2.5-29.4C71.4,125.7,61.9,124.2,53.4,124.2z"/>
	<path class="st1" d="M160,120.5c9.8-0.6,16.1,1.8,18.5,6.1c0,0,7,18.5,9.1,26.8c3.4,13.2,0,65.4,0,65.4c-0.1,2.6-0.1,6.1-4.9,6.3
		l0,0c-4.7,0.2-10.4-0.9-11.2-3.5c0,0-21-49-24.3-61.1c-2-7.3-4.2-29.8-4.2-29.8C142.5,123.2,151.8,121.1,160,120.5L160,120.5z"/>
	<path class="st2" d="M53.6,219L53.6,219c-4.4,0-8.4,1.4-10.3,3.6l0,0c-4.3,4.8-22.3,11.2-22.3,11.2c-3.2,1.3-4.8,3.5-4,5.7l0,0
		l43.9-0.1l2.5-0.4c2.8-0.5,4.7-1.9,4.4-3.5l-2.5-11.6C64,221,59.1,218.9,53.6,219z"/>
	<path class="st3" d="M18.4,239.3L18.4,239.3c-0.6-1.9,1.9-3.7,5.5-4l26.1-2.1c3.4-0.3,6.5,0.9,7.3,2.6l1.5,3.3L18.4,239.3z"/>
	<path class="st4" d="M44.4,223.6c2.1-0.8,4.2-1.3,6.4-1.4c2.5,0,4.9,0.4,7.3,1.1"/>
	<path class="st4" d="M41.4,226.2c2.1-0.8,4.3-1.2,6.5-1.3c2.5,0.1,4.9,0.5,7.2,1.2"/>
	<path class="st5" d="M181.2,222.5c4.6-1.1,4.2-3.2,6-4.4c1.1-0.7,5.6-1.6,6.4-0.7c8.1,10.4,44.8,15.8,44.8,15.8
		c3.9,1.7,4.9,4.2,4.2,6.7l0,0c0,0-32.1,5.4-48.8-0.4c-3.3-1.2-12-1.7-12-1.7s-15.5,0.1-14.7-3.1l2-14.3
		C170.4,217.1,173.4,224.4,181.2,222.5z"/>
	<path class="st6" d="M243.1,240c0.5-4.2-3.3-6.8-4.6-6.7c-1.8,0.2-4.7,1.2-6.5,1.4c-2.9,0.3-11.6,0-11.6,0c-2-0.2-3.9,1.2-4.1,3.2
		v0.1v4c0,0,5.3,0.4,17.8-1C236.1,240.9,243.1,240,243.1,240z"/>
	<path class="st7" d="M198.5,222.9c-2.1,0.6-4.3,0.9-6.5,1.1"/>
	<path class="st7" d="M202.6,225.2c-2.1,0.7-4.2,1.1-6.4,1.3"/>
	<path class="st8" d="M33.6-1.3c0.1,2.5-23.2,122.8-33,173.1c-2.2,11.6,12.6,22.3,35.1,25.1c1.1,0,1.1,0,2.1,0.3
		c0.6,1,0.1,8,1.5,8.1s27.4,2,26.2,0.2c0,0,3.3-8,2.6-7.3l0,0c0,0,33.8-11,33.1-20.3L92.9,63.6l0,0c-0.5-0.8,13,69.7,18.2,114
		c1.4,12,22.8,20.9,46.5,19.3c1.6-0.2,2.2,0.2,3.8,0.3l2.8,8.5l25.3-1.9l0.4-10.6c0.8-0.3,1.6-0.5,2.5-0.7
		c20.9-5.9,30.6-17.3,25.7-29.1L150.1,1.1L33.6-1.3z"/>
</g>
</svg>
