<svg xmlns="http://www.w3.org/2000/svg" viewBox="0 0 200 200"><defs><style>.cls-1{fill:#de9d92;}.cls-2{fill:#f6af97;}.cls-3{fill:#99563c;}</style></defs><g id="Calque_7" data-name="Calque 7"><path class="cls-1" d="M138.93,123.93l3-22.8s11.84-9.43,19.2-3.55c4.62,3.69-4.47,28.23-12.61,30C143.91,128.61,138.93,123.93,138.93,123.93Z"/><path class="cls-1" d="M64.31,123.93l-3-22.8S49.42,91.7,42.06,97.58c-4.62,3.69,4.47,28.23,12.61,30C59.33,128.61,64.31,123.93,64.31,123.93Z"/><path class="cls-2" d="M99.79,164.06c-3.05-.26-7.19-.36-9.42-1.2-5.44-2.06-11.82-7.67-18.62-14a23,23,0,0,1-4-4.52c-3.57-5.9-5.35-20.14-5.5-27a119.52,119.52,0,0,0-1.65-16l-4.1-2.89.35-20.73c0-21.49,20.73-39.72,42.22-39.72h4.57c21.49,0,42.22,18.23,42.22,39.72l.35,20.73-4.1,2.89a121.41,121.41,0,0,0-1.65,16c-.15,6.9-1.93,21.14-5.5,27a23,23,0,0,1-4,4.52c-6.8,6.31-13.18,11.92-18.62,14-2.22.84-6.37.94-9.42,1.2"/></g><g id="cheuveu"><path class="cls-3" d="M101,8.11s6.23,7.42,21.19,14.84c4.7,2.33,8.75,4.51,12.13,6.45a27.93,27.93,0,0,1,14,22.46c.18,2.74.37,5.09.55,6.13,2,11.21-3.53,25.33-3.53,25.33s-3.39-25-10.06-28.62C122,47.46,94.15,64.64,75.09,47.48,48.72,23.74,101,8.11,101,8.11Z"/></g></svg>