<svg xmlns="http://www.w3.org/2000/svg" viewBox="0 0 200 200"><defs><style>.cls-1{fill:#de9d92;}.cls-2{fill:#f6af97;}.cls-3{fill:#6d3b25;}</style></defs><g id="Calque_7" data-name="Calque 7"><path class="cls-1" d="M138.93,123.93l3-22.8s11.84-9.43,19.2-3.55c4.62,3.69-4.47,28.23-12.61,30C143.91,128.61,138.93,123.93,138.93,123.93Z"/><path class="cls-1" d="M64.31,123.93l-3-22.8S49.42,91.7,42.06,97.58c-4.62,3.69,4.47,28.23,12.61,30C59.33,128.61,64.31,123.93,64.31,123.93Z"/><path class="cls-2" d="M99.79,164.06c-3.05-.26-7.19-.36-9.42-1.2-5.44-2.06-11.82-7.67-18.62-14a23,23,0,0,1-4-4.52c-3.57-5.9-5.35-20.14-5.5-27a119.52,119.52,0,0,0-1.65-16l-4.1-2.89.35-20.73c0-21.49,20.73-39.72,42.22-39.72h4.57c21.49,0,42.22,18.23,42.22,39.72l.35,20.73-4.1,2.89a121.41,121.41,0,0,0-1.65,16c-.15,6.9-1.93,21.14-5.5,27a23,23,0,0,1-4,4.52c-6.8,6.31-13.18,11.92-18.62,14-2.22.84-6.37.94-9.42,1.2"/></g><g id="cheuveu"><path class="cls-3" d="M126,52.39s-16.12,12.18-22.82,15.22C97.34,70.23,77.92,75,77.92,75l3.36-6.57s-12.74,6.21-16.18,9C58,83,56.72,91.66,56.72,91.66s-8-18.14-3.52-27.75c-1.82,1.26-6.89,2.27-6.89,2.27s6-14.84,13-20.05a34.57,34.57,0,0,1,22-7l-7.47-2.92s18.4-3.95,30.51-2.55c15.89,1.84,21.63,9.4,21.63,9.4s12.27-4,22,7.31c7.39,8.59,4.12,19.35,4.12,19.35l-6.2,21s-2.73-14.08-3.37-16.58a82.44,82.44,0,0,1-.88-8.92l-2.14,5a22.94,22.94,0,0,1-10.09-10C128.55,58.62,126,52.39,126,52.39Z"/></g></svg>