<?xml version="1.0" encoding="utf-8"?>
<!-- Generator: Adobe Illustrator 26.0.1, SVG Export Plug-In . SVG Version: 6.00 Build 0)  -->
<svg version="1.1" id="Calque_9" xmlns="http://www.w3.org/2000/svg" xmlns:xlink="http://www.w3.org/1999/xlink" x="0px" y="0px"
	 viewBox="0 0 788 1005" style="enable-background:new 0 0 788 1005;" xml:space="preserve">
<style type="text/css">
	.st0{fill:#90573A;}
	.st1{fill:#6F412A;}
	.st2{fill:#30211B;}
</style>
<path class="st0" d="M393.9,180.8c-23.9,0-43.2,11.2-43.2,45.6c0,69.7,27.4,79,43.3,79l0,0c15.8,0,43.3-9,43.3-79
	C437.2,192,417.9,180.8,393.9,180.8z"/>
<path class="st1" d="M439.3,272.4c-3,0.8-6.2,0.5-9-0.9c3.2-8.9,5.3-18.1,6.3-27.5c2.2-1.9,8.1-6.1,12.7-1.6
	C453.1,246.2,444.2,271.4,439.3,272.4z"/>
<path class="st0" d="M394.2,181.2L394.2,181.2c-23.9-0.1-43.2,11.1-43.2,45.5c0,7.9,0.6,15.8,1.8,23.7c1.1,6.9,2.8,13.6,5.1,20.2
	c7.7,21.7,21.1,35.2,36.4,35.2v0.1c15.1,0,28.3-13.1,36.1-34.3c3.2-8.9,5.3-18.1,6.3-27.5c0.6-5.7,1-11.5,1-17.2
	C437.5,192.4,418.1,181.2,394.2,181.2z"/>
<path class="st1" d="M357.9,270.6c-1.7,1.3-5,3-10.6,1.8c-4.9-1-13.8-26.3-10-30c5.7-5.6,13.6,2.5,13.6,2.5l1.8,5.5
	C353.8,257.3,355.5,264,357.9,270.6z"/>
<path class="st2" d="M352.8,250.4l-10.1-10l1.9-75.1l101.1-2.6c0,0-1.6,77.5-2.3,77.8s-6.9,3.6-6.9,3.6s-2.4-38.2-4.7-38.8
	s-31.3,1.1-35.7,0.3c-5.7-1-41.3-1.8-41.3-1.8L352.8,250.4z"/>
</svg>
