<?xml version="1.0" encoding="utf-8"?>
<!-- Generator: Adobe Illustrator 25.4.1, SVG Export Plug-In . SVG Version: 6.00 Build 0)  -->
<svg version="1.1" id="Calque_9" xmlns="http://www.w3.org/2000/svg" xmlns:xlink="http://www.w3.org/1999/xlink" x="0px" y="0px"
	 viewBox="0 0 788 1005" style="enable-background:new 0 0 788 1005;" xml:space="preserve">
<style type="text/css">
	.st0{fill:#6F412A;}
	.st1{fill:#90573A;}
	.st2{fill:#1E1817;}
	.st3{fill:#DBD1C1;}
</style>
<path class="st0" d="M427.2,267.1l8.1-24.5c0,0,7.9-8.1,13.6-2.5c3.8,3.8-5.1,29-10,30C430.7,271.9,427.2,267.1,427.2,267.1z"/>
<path class="st0" d="M360.8,267.1l-8.1-24.5c0,0-7.9-8.1-13.6-2.5c-3.8,3.8,5.1,29,10,30C357.3,271.9,360.8,267.1,360.8,267.1z"/>
<path class="st1" d="M437.2,224.6c0,46-27.4,79-43.3,79c-15.8,0-43.3-33-43.3-79c0-34.4,19.4-45.6,43.3-45.6
	C417.8,179,437.2,190.2,437.2,224.6z"/>
<path class="st1" d="M368.9,175.2c-0.4-0.7,21.9-9.9,21.9-9.9l4.3-0.7l1.6,0.6c0,0,8.8,2.4,9.3,4.7s2,14.8,2,14.8l-7.7,1.6l-6.3-2.3
	c0,0-8.1,0-9.7-0.7S368.9,175.2,368.9,175.2z"/>
<path class="st2" d="M393.8,182.6c-0.3,0.5-0.6,1-1,1.5c-8.6,11.2-38.2,19.2-41.2,31.9c-3.1,13.2,1.5,26.7,1.5,26.7s-5.6-3.8-6-3.9
	s-23.8-50.3,20.8-70.4c20.1-9,25.8-3.2,25.8-3.2c0,0.2,0.1,0.4,0.3,0.6C395.3,167.6,400.2,171.8,393.8,182.6z"/>
<path class="st2" d="M439.9,240.1c-0.4,0.1-5.5,3.9-5.5,3.9s4.2-13.4,1.4-26.7s-32.2-21.3-38.8-33.2c0.3-0.5,0.6-1,0.9-1.5
	c5.8-10.8,1.4-15,0.2-17c2.4-1.2,8.9-2.7,22.5,4C461.9,189.8,440.3,239.9,439.9,240.1z"/>
<path class="st3" d="M343.1,227.2c1.7-0.3,51.8-55.2,102.8-16.5c6,4.5,4-38.3-34.2-61.2c-14-8.4-60.1-34.3-92.3-14.1
	c-12.7,8-18.5,52-8.4,65.2s9-32.4,18.4-21.7S335.1,228.8,343.1,227.2z"/>
<path class="st3" d="M313.9,202.9L313.9,202.9c5.7,0,10.4,4.6,10.4,10.4v0c0,5.7-4.6,10.4-10.4,10.4h0c-5.7,0-10.4-4.6-10.4-10.4v0
	C303.5,207.6,308.1,202.9,313.9,202.9z"/>
</svg>
