<svg id="Calque_9" data-name="Calque 9" xmlns="http://www.w3.org/2000/svg" viewBox="0 0 288 217.42"><defs><style>.cls-1{fill:#90573a;}.cls-2{fill:#6f412a;}.cls-3{fill:#2d2020;}</style></defs><path class="cls-1" d="M143.94,76.5c23.91,0,43.28,11.2,43.28,45.61,0,46-27.44,79-43.28,79"/><path class="cls-2" d="M177.2,164.66l8.14-24.49s7.88-8.13,13.62-2.49c3.82,3.75-5.09,29-10,30C180.66,169.44,177.2,164.66,177.2,164.66Z"/><path class="cls-2" d="M110.8,164.66l-8.14-24.49S94.78,132,89,137.68c-3.82,3.75,5.09,29,10,30C107.34,169.44,110.8,164.66,110.8,164.66Z"/><path class="cls-1" d="M143.94,76.5c-23.9,0-43.28,11.2-43.28,45.61,0,46,27.45,79,43.28,79"/><path class="cls-3" d="M102.66,140.17l2.92-22.49,17.93-7.94,10.1-24.11,26,3.66,12.29-3.66L165.58,93l16.84,16.27,2.92,30.91s5.35-2.59,6.73-4.48S204.64,99,204.64,99L187.22,79.73H180.7L169.33,58.37l-47-8L69.19,95.29,89,137.68l7.16-.45Z"/></svg>