<svg xmlns="http://www.w3.org/2000/svg" viewBox="0 0 200 217.42"><defs><style>.cls-1{fill:#90573a;}.cls-2{fill:#6f412a;}.cls-3{fill:#3a201d;}.cls-4{fill:#43516d;}</style></defs><g id="Calque_9" data-name="Calque 9"><path class="cls-1" d="M98.94,76.64c23.91,0,43.28,11.19,43.28,45.61,0,46-27.44,79-43.28,79"/><path class="cls-2" d="M132.2,164.8l8.14-24.5s7.88-8.13,13.62-2.49c3.82,3.75-5.09,29-10,30C135.66,169.57,132.2,164.8,132.2,164.8Z"/><path class="cls-2" d="M65.8,164.8l-8.14-24.5s-7.88-8.13-13.62-2.49c-3.82,3.75,5.09,29,10,30C62.34,169.57,65.8,164.8,65.8,164.8Z"/><path class="cls-1" d="M98.94,76.64c-23.9,0-43.28,11.19-43.28,45.61,0,46,27.45,79,43.28,79"/><path class="cls-3" d="M58.05,147.69l-8.26-5.4S48.22,94.73,48.25,82.7c0-15.22,22.55-5.51,38.85-8.31,7.44-1.27,11.41-.52,11.41-.52s16,2.31,22.07,1.65c23.91-2.64,27.91-2.16,27.15,9-.87,12.72-.52,56.56-.52,56.56l-9.32,2.89-.52-18.26-2.6-7.68s-5.77-13.32-5.51-13.32S118,108.11,118,108.11s-15-7.9-18-9.72c-2.16-1.32-9,4.07-9,4.07s-5.82-6.92-9.45-6.92c-2.63,0-.79,7.86-.79,7.86L64.29,105l-1.86,12.24L57.57,127Z"/></g><g id="Calque_10" data-name="Calque 10"><rect class="cls-4" x="45.96" y="59.01" width="101.32" height="39.7"/><rect class="cls-4" x="81.69" y="91.99" width="101.01" height="6.59"/></g></svg>