<svg id="Calque_9" data-name="Calque 9" xmlns="http://www.w3.org/2000/svg" viewBox="0 0 200 217.42"><defs><style>.cls-1{fill:#90573a;}.cls-2{fill:#6f412a;}.cls-3{fill:#231713;}</style></defs><path class="cls-1" d="M98.94,76.64c23.91,0,43.28,11.19,43.28,45.61,0,46-27.44,79-43.28,79"/><path class="cls-2" d="M133.57,164.8,140.39,142s9.2-9.85,14.94-4.21c3.82,3.75-5.09,29-10,30C137,169.57,133.57,164.8,133.57,164.8Z"/><path class="cls-2" d="M67.17,164.8,59,140.3s-7.88-8.13-13.62-2.49c-3.82,3.75,5.09,29,10,30C63.71,169.57,67.17,164.8,67.17,164.8Z"/><path class="cls-1" d="M98.94,76.64c-23.9,0-43.28,11.19-43.28,45.61,0,46,27.45,79,43.28,79"/><path class="cls-3" d="M60.83,151.27,52.73,142s-7.8-12.38-7.77-25c0-16,28.19-43.51,44-46.45a14.47,14.47,0,0,1,12.09,3.41s18.15-.6,23.6,1.73c24.73,10.57,29.74,28,29,39.7a81.14,81.14,0,0,1-6.28,25.32l-9,3-.51-19.22-12.14-9s-6.48-11-6.22-11,2.3,9.86,2.3,9.86-10.88.63-13.8-1.29c-2.1-1.38-5-8.88-5-8.88s-8.85,7.64-11.91,9.43c-3.52,2.06-11.15,2.77-11.15,2.77l1.28-12.78L71.3,116.91l-11,9Z"/></svg>