<?xml version="1.0" encoding="utf-8"?>
<!-- Generator: Adobe Illustrator 25.4.1, SVG Export Plug-In . SVG Version: 6.00 Build 0)  -->
<svg version="1.1" id="Calque_1" xmlns="http://www.w3.org/2000/svg" xmlns:xlink="http://www.w3.org/1999/xlink" x="0px" y="0px"
	 viewBox="0 0 200 217.4" style="enable-background:new 0 0 200 217.4;" xml:space="preserve">
<style type="text/css">
	.st0{fill:#281E1B;}
	.st1{fill:#8C5C4B;}
	.st2{clip-path:url(#SVGID_00000065785080659732209090000001051741243227808899_);}
	.st3{fill:#6D3B25;}
	.st4{clip-path:url(#SVGID_00000053541640135086424660000010907547261910940812_);}
	.st5{clip-path:url(#SVGID_00000078762215075267130820000014852629716701320877_);}
	.st6{fill:#FFFFFF;}
	.st7{clip-path:url(#SVGID_00000087398970905646900520000017966386182032512409_);}
	.st8{clip-path:url(#SVGID_00000013885577947527499530000005513356807627790211_);}
	.st9{fill:#050505;}
	.st10{clip-path:url(#SVGID_00000171678668401510474160000007851009531318551424_);}
	.st11{fill:none;stroke:#6D3B25;stroke-width:2;stroke-linecap:round;stroke-miterlimit:10;}
	.st12{fill:#4C2A33;}
	.st13{fill:#261E1A;}
	.st14{fill:#9E6754;}
</style>
<g id="Calque_9">
	<ellipse class="st0" cx="100.1" cy="118" rx="50" ry="48"/>
	<path class="st1" d="M133.2,164.3l8.1-24.5c0,0,7.9-8.1,13.6-2.5c3.8,3.8-5.1,29-10,30C136.7,169.1,133.2,164.3,133.2,164.3z"/>
	<path class="st1" d="M66.8,164.3l-8.1-24.5c0,0-7.9-8.1-13.6-2.5c-3.8,3.8,5.1,29,10,30C63.3,169.1,66.8,164.3,66.8,164.3z"/>
	<g>
		<defs>
			<polygon id="SVGID_1_" points="111.5,117.3 111.5,117.3 134.9,117.3 134.9,124.4 111.5,124.4 			"/>
		</defs>
		<clipPath id="SVGID_00000146498696132239968570000000205758218301360794_">
			<use xlink:href="#SVGID_1_"  style="overflow:visible;"/>
		</clipPath>
		<g style="clip-path:url(#SVGID_00000146498696132239968570000000205758218301360794_);">
			<path class="st3" d="M133.8,124.4c-0.2,0-0.3,0-0.4-0.1c-2.3-1-4.7-1.7-7.2-2.3c-7.9-1.8-8.4-0.5-11.1,0
				c-1.1,0.1-2.2-0.2-3.1-0.8c-0.4-0.5-0.8-2.1-0.3-2.5c0.2-0.2,3.7-2.6,12.7-0.5c3.8,0.8,9.7,4.1,9.8,4.2c0.6,0.2,0.8,0.9,0.6,1.5
				C134.6,124.2,134.2,124.5,133.8,124.4z"/>
		</g>
	</g>
	<g>
		<defs>
			<polygon id="SVGID_00000107581304551507271970000001582088960784610736_" points="88.7,117.3 88.7,117.3 65.3,117.3 65.3,124.4 
				88.7,124.4 			"/>
		</defs>
		<clipPath id="SVGID_00000126306831159170390560000017863030710074604935_">
			<use xlink:href="#SVGID_00000107581304551507271970000001582088960784610736_"  style="overflow:visible;"/>
		</clipPath>
		<g style="clip-path:url(#SVGID_00000126306831159170390560000017863030710074604935_);">
			<path class="st3" d="M66.4,124.4c0.2,0,0.3,0,0.4-0.1c2.3-1,4.7-1.8,7.1-2.4c7.9-1.8,8.4-0.5,11.1,0c1.1,0.1,2.2-0.2,3.1-0.8
				c0.4-0.5,0.8-2.1,0.3-2.5c-0.2-0.2-3.7-2.6-12.7-0.5c-3.7,0.9-9.6,4.1-9.7,4.2c-0.6,0.2-0.8,0.9-0.6,1.5
				C65.6,124.2,66,124.5,66.4,124.4L66.4,124.4z"/>
		</g>
	</g>
	<g>
		<defs>
			<polygon id="SVGID_00000088815324131674423800000013907050033849290935_" points="112.8,130.8 112.8,130.8 127.9,130.8 
				127.9,145.3 112.8,145.3 			"/>
		</defs>
		<clipPath id="SVGID_00000058564749851607222660000016857970981116643484_">
			<use xlink:href="#SVGID_00000088815324131674423800000013907050033849290935_"  style="overflow:visible;"/>
		</clipPath>
		<g style="clip-path:url(#SVGID_00000058564749851607222660000016857970981116643484_);">
			<ellipse class="st6" cx="120.4" cy="138" rx="7.5" ry="7.3"/>
		</g>
	</g>
	<g>
		<defs>
			<polygon id="SVGID_00000142133680207537335840000010779514115425673363_" points="87.4,130.8 87.4,130.8 72.3,130.8 72.3,145.3 
				87.4,145.3 			"/>
		</defs>
		<clipPath id="SVGID_00000039847615981096256460000002904461704348093837_">
			<use xlink:href="#SVGID_00000142133680207537335840000010779514115425673363_"  style="overflow:visible;"/>
		</clipPath>
		<g style="clip-path:url(#SVGID_00000039847615981096256460000002904461704348093837_);">
			<ellipse class="st6" cx="79.8" cy="138" rx="7.5" ry="7.3"/>
		</g>
	</g>
	<g>
		<defs>
			<polygon id="SVGID_00000122703979208634410900000013552268567898410890_" points="115.3,134.1 115.3,134.1 125.3,134.1 
				125.3,144.1 115.3,144.1 			"/>
		</defs>
		<clipPath id="SVGID_00000158750242217614477180000015873418972139756981_">
			<use xlink:href="#SVGID_00000122703979208634410900000013552268567898410890_"  style="overflow:visible;"/>
		</clipPath>
		<g style="clip-path:url(#SVGID_00000158750242217614477180000015873418972139756981_);">
			<circle class="st9" cx="120.3" cy="139.1" r="5"/>
		</g>
	</g>
	<g>
		<defs>
			<polygon id="SVGID_00000058581784456916907000000007191265768024921762_" points="84.9,134.1 84.9,134.1 74.9,134.1 74.9,144.1 
				84.9,144.1 			"/>
		</defs>
		<clipPath id="SVGID_00000130644920303760768100000017781560285799306886_">
			<use xlink:href="#SVGID_00000058581784456916907000000007191265768024921762_"  style="overflow:visible;"/>
		</clipPath>
		<g style="clip-path:url(#SVGID_00000130644920303760768100000017781560285799306886_);">
			<circle class="st9" cx="79.9" cy="139.1" r="5"/>
		</g>
	</g>
	<path class="st11" d="M93.8,157.6c2.3,0.6,4.6,1.1,7,1.4c1.7,0,7-1.7,7-1.7"/>
	<ellipse class="st12" cx="99.9" cy="176" rx="10.3" ry="1.6"/>
	<path class="st13" d="M59,138.4c-2-3.4-12.6-51.7,24.5-63.5s53.2,13.5,53.2,13.5s14.7,19.7,6.8,49.4c0,0-1.9-15.9-7.2-28.1
		s-2-14.6-1.9-15.6s-34.6-3.4-34.6-3.4S68.8,90,69.4,91.4C71.4,95.6,59,138.4,59,138.4z"/>
	<path class="st0" d="M52,122.6h-0.4c-0.8,0-1.6,0.1-2.3,0.5c-0.7,0.2-1.4,0.7-1.9,1.2c-0.6,0.5-1,1.2-1.2,1.9
		c-0.4,0.7-0.6,1.5-0.5,2.3l0.2,1.6c0.3,1,0.8,1.9,1.5,2.6l1.2,0.9c0.9,0.5,1.9,0.8,3,0.8H52c0.8,0,1.6-0.1,2.3-0.5
		c0.7-0.2,1.4-0.7,1.9-1.2c0.6-0.5,1-1.2,1.2-1.9c0.4-0.7,0.6-1.5,0.5-2.3l-0.2-1.6c-0.3-1-0.8-1.9-1.5-2.7l-1.2-0.9
		C54.1,122.9,53.1,122.6,52,122.6L52,122.6z"/>
	<path class="st0" d="M43.2,117l0.1,0.4c0.6,2,2.2,3.6,4.2,4.2l0.4,0.1c0.8,0.3,1.6,0.3,2.4,0.1c0.8,0,1.6-0.3,2.2-0.7
		c0.7-0.4,1.3-0.9,1.7-1.6c0.5-0.6,0.9-1.3,1.1-2l0.2-1.6c0-1.1-0.3-2.1-0.8-3l-0.9-1.2c-0.7-0.8-1.6-1.4-2.6-1.7l-0.4-0.1l4.2,4.2
		l-0.1-0.4c-0.5-1.5-1.5-2.7-2.7-3.6c-0.7-0.4-1.4-0.7-2.2-0.7c-0.8-0.2-1.6-0.1-2.4,0.1l-1.4,0.6c-0.9,0.5-1.6,1.3-2.2,2.2
		l-0.6,1.4C42.9,114.8,42.9,115.9,43.2,117L43.2,117z"/>
	<path class="st0" d="M47.1,100.6l-0.1,0.3l8.8-3.6l0,0l1.2,0.9c-0.1,0-0.1-0.1-0.1-0.1l0.9,1.2c0,0-0.1-0.1-0.1-0.2l0.6,1.4
		c0-0.1,0-0.1,0-0.2l0.2,1.6c0-0.1,0-0.1,0-0.2c0-0.8-0.2-1.6-0.6-2.3c-0.2-0.7-0.7-1.4-1.2-1.9c-0.5-0.6-1.2-1-1.9-1.2
		c-0.7-0.4-1.5-0.6-2.3-0.5l-1.6,0.2c-1,0.3-1.9,0.8-2.7,1.5l-1,1.2c-0.5,0.9-0.8,1.9-0.8,3c0,0,0,0.1,0,0.1c0,0,0,0,0,0.1l0.2,1.6
		c0.1,0.6,0.4,1.1,0.7,1.6c0.6,1,1.4,1.9,2.4,2.5c0.9,0.5,1.9,0.8,3,0.8c0.8,0,1.6-0.1,2.3-0.5c0.7-0.2,1.4-0.7,1.9-1.2
		c0.7-0.7,1.3-1.6,1.5-2.7l0.1-0.3c0.4-1.6,0.1-3.2-0.6-4.6c-0.4-0.7-0.9-1.3-1.5-1.7c-0.6-0.5-1.3-0.9-2-1.1l-1.6-0.2
		c-1.1,0-2.1,0.3-3,0.8l-1.2,0.9C48,98.6,47.4,99.5,47.1,100.6L47.1,100.6z"/>
	<path class="st0" d="M56.4,95c7.7,0,7.7-12,0-12S48.7,95,56.4,95z"/>
	<path class="st0" d="M59.6,82.3l0.4,0.9c0.8,1.3,2.1,2.3,3.6,2.8c0.8,0.2,1.6,0.3,2.3,0.1c0.8,0,1.6-0.3,2.2-0.7l1.2-0.9
		c0.7-0.7,1.3-1.6,1.6-2.6l0.2-1.6c0-1.1-0.3-2.1-0.8-3L70,76.2c-0.8-1.3-2.1-2.3-3.6-2.8c-0.8-0.3-1.6-0.3-2.4-0.1
		c-0.8,0-1.6,0.3-2.2,0.7L60.6,75c-0.7,0.7-1.3,1.7-1.6,2.7l-0.2,1.6C58.8,80.3,59.1,81.4,59.6,82.3L59.6,82.3z"/>
	<path class="st0" d="M71.9,67.9L71.8,68l-1.2,0.9l0,0L70.5,69l-0.9,1.2l0,0l-0.1,0.1l-0.6,1.4v0.1V72l-0.2,1.6c0,0.1,0,0.1,0,0.2
		c0,0.3,0.1,0.6,0.1,0.9c0,0.5,0.1,1.1,0.4,1.5c0.1,0.5,0.4,1,0.8,1.3c0.3,0.4,0.6,0.8,1.1,1.1c0.2,0.2,0.4,0.4,0.7,0.5l0.2,0.1
		c0.2,0.1,0.4,0.3,0.7,0.4c0.7,0.4,1.4,0.7,2.2,0.7c0.8,0.2,1.6,0.1,2.4-0.1c1.5-0.5,2.7-1.5,3.6-2.8l0.6-1.4c0.3-1,0.3-2.1,0-3.2
		l-0.6-1.4c-0.5-0.9-1.3-1.6-2.2-2.2c-0.3-0.2-0.5-0.4-0.8-0.5l3,5.2c0-0.1,0-0.2,0-0.3l-0.2,1.6c0,0,0-0.1,0-0.1l-0.6,1.4
		c0-0.1,0.1-0.1,0.1-0.2L79,77.5c0-0.1,0.1-0.1,0.2-0.1L78,78.3l0.1-0.1c0.7-0.4,1.3-0.9,1.7-1.5c1-1.2,1.5-2.9,1.2-4.4
		c0-0.8-0.3-1.6-0.7-2.2l-0.9-1.2c-0.7-0.7-1.6-1.3-2.7-1.5l-1.6-0.2c-1.1,0-2.1,0.3-3,0.8L71.9,67.9z"/>
	<path class="st0" d="M83,67.4v2.2c0,1.6,0.6,3.1,1.8,4.2c1.1,1.1,2.7,1.7,4.2,1.8c1.6,0,3.1-0.6,4.2-1.8c1.1-1.1,1.7-2.7,1.8-4.2
		v-2.2c0-1.6-0.7-3.1-1.8-4.2c-2.3-2.3-6.1-2.3-8.5,0c0,0,0,0,0,0C83.7,64.3,83,65.8,83,67.4z"/>
	<path class="st0" d="M98,66.5v0.9c0,0.8,0.1,1.6,0.5,2.3c0.5,1.5,1.7,2.6,3.2,3.2c0.7,0.4,1.5,0.6,2.3,0.5l1.6-0.2
		c1-0.3,1.9-0.8,2.7-1.5l0.9-1.2c0.5-0.9,0.8-1.9,0.8-3v-0.9c0-0.8-0.1-1.6-0.5-2.3c-1-2.2-3.1-3.6-5.5-3.7l-1.6,0.2
		c-1,0.3-1.9,0.8-2.6,1.5l-0.9,1.2C98.3,64.4,98,65.4,98,66.5L98,66.5z"/>
	<path class="st0" d="M122.8,70.9v-0.3l-11.2,3c0.1,0.1,0.1,0.3,0.2,0.4l0.1,0.2c0.3,0.5,0.7,0.9,1.1,1.4c0.5,0.6,1.2,1,1.9,1.2
		c1.5,0.7,3.2,0.7,4.6,0c0.7-0.2,1.4-0.7,1.9-1.2l0.9-1.2c0.5-0.9,0.8-1.9,0.8-3l-0.2-1.6c-0.3-1-0.8-1.9-1.6-2.6l-0.1-0.2l0.9,1.2
		c-0.1-0.2-0.2-0.4-0.3-0.6l-0.9-1.2c-0.5-0.6-1.2-1-1.9-1.2c-0.5-0.3-1-0.4-1.5-0.4c-0.8-0.2-1.6-0.1-2.4,0.1l-1.4,0.6l-1.2,0.9
		c-0.6,0.5-1,1.2-1.2,1.9c-0.4,0.7-0.6,1.5-0.5,2.3v0.3c0,0.8,0.1,1.6,0.5,2.3c0.2,0.7,0.7,1.4,1.2,1.9c0.5,0.6,1.2,1,1.9,1.2
		c0.7,0.4,1.5,0.6,2.3,0.5l1.6-0.2c1-0.3,1.9-0.8,2.7-1.5l0.9-1.2C122.5,73,122.8,72,122.8,70.9L122.8,70.9z"/>
	<path class="st0" d="M133.4,70.6l-0.4-0.3c-0.9-0.5-1.9-0.8-3-0.8c-0.8,0-1.6,0.1-2.3,0.5c-0.7,0.2-1.4,0.7-1.9,1.2
		c-0.7,0.7-1.3,1.6-1.5,2.7c0,0.1,0,0.1-0.1,0.2l-0.2,1.6v0.1c0,0.1,0,0.1,0,0.2l0.2,1.6c0,0,0,0.1,0,0.1c0.3,0.7,0.5,1.4,0.9,2
		l-0.6-1.4c0.1,0.1,0.1,0.3,0.1,0.4c0.5,1.5,1.4,2.7,2.8,3.6c0.7,0.4,1.4,0.7,2.2,0.7c0.8,0.2,1.6,0.1,2.4-0.1
		c1.5-0.4,2.8-1.4,3.6-2.8l0.6-1.4c0.3-1,0.3-2.1,0-3.2c-0.1-0.4-0.2-0.8-0.4-1.2c-0.2-0.4-0.3-0.8-0.5-1.1l0.6,1.4
		c0-0.1-0.1-0.2-0.1-0.3l0.2,1.6c0-0.1,0-0.2,0-0.2l-0.2,1.6c0-0.1,0-0.1,0.1-0.2l-8.8,3.6l0.4,0.3c0.7,0.4,1.4,0.7,2.2,0.7
		c0.8,0.2,1.6,0.1,2.4-0.1c0.7-0.2,1.4-0.6,2-1.1c0.6-0.4,1.2-1,1.5-1.7c0.8-1.4,1-3.1,0.6-4.6l-0.6-1.4
		C135,71.8,134.3,71.1,133.4,70.6L133.4,70.6z"/>
	<path class="st0" d="M133.9,84.8c0.4,1,0.6,1.9,1.1,2.8c0.9,1.8,2.5,3.1,4.4,3.6c1.6,0.4,3.2,0.2,4.6-0.6c2.9-1.7,3.9-5.3,2.2-8.2
		c-0.8-1.4-2.1-2.4-3.7-2.8c-0.1,0-0.1,0-0.2-0.1l1.4,0.6l-0.1-0.1l1.2,0.9c-0.1-0.1-0.2-0.2-0.3-0.3l0.9,1.2
		c-0.1-0.2-0.2-0.3-0.3-0.5l0.6,1.4c-0.2-0.4-0.3-0.9-0.4-1.3c-0.2-0.7-0.5-1.4-1.1-2c-0.4-0.6-1-1.2-1.7-1.5
		c-0.7-0.4-1.4-0.7-2.2-0.7c-0.8-0.2-1.6-0.1-2.4,0.1c-1.5,0.4-2.8,1.4-3.6,2.8C133.7,81.6,133.4,83.3,133.9,84.8L133.9,84.8z"/>
	<path class="st0" d="M153.8,95.7l-0.1-0.3c-0.3-1-0.8-1.9-1.5-2.7c-0.5-0.6-1.2-1-1.9-1.2c-0.7-0.4-1.5-0.6-2.3-0.5
		c-1.1,0-2.1,0.3-3,0.8c-0.9,0.6-1.7,1.3-2.3,2.3l-0.1,0.2c-0.6,1.1-0.9,2.3-0.9,3.6c0,0.5,0.1,1.1,0.1,1.6c0,1.6,0.6,3.1,1.8,4.2
		c2.3,2.3,6.1,2.3,8.5,0c0,0,0,0,0,0c1.1-1.1,1.7-2.7,1.8-4.2c0-0.6,0-1.1,0-1.7l-0.2,1.6c0-0.1,0.1-0.3,0.1-0.4l-0.6,1.4
		c0-0.1,0.1-0.2,0.1-0.2l-0.9,1.2l0.1-0.1l-1.2,0.9l0.1-0.1l-8.8-3.6l0.1,0.3c0.4,1.5,1.4,2.7,2.7,3.6c2.9,1.7,6.5,0.7,8.2-2.1
		c0,0,0,0,0,0C154,99,154.2,97.3,153.8,95.7L153.8,95.7z"/>
	<path class="st0" d="M143.8,115.8v1.3c0.1,1.6,0.7,3.1,1.8,4.2c1.2,1.1,2.7,1.7,4.2,1.8l1.6-0.2c1-0.3,1.9-0.8,2.6-1.5l0.9-1.2
		c0.5-0.9,0.8-1.9,0.8-3v-1.3c0-0.8-0.1-1.6-0.5-2.3c-1-2.2-3.1-3.6-5.5-3.7l-1.6,0.2c-1,0.3-1.9,0.8-2.6,1.5l-0.9,1.2
		C144.1,113.7,143.8,114.8,143.8,115.8z"/>
	<path class="st0" d="M142.7,127.4c0,0.2-0.1,0.4-0.2,0.6l0.6-1.4c-0.2,0.6-0.5,1.2-0.7,1.7c0,0.1-0.1,0.3-0.1,0.4
		c-0.3,0.8-0.3,1.6-0.1,2.4c0,0.8,0.3,1.6,0.7,2.2c0.4,0.7,0.9,1.3,1.6,1.7c0.6,0.5,1.3,0.9,2,1.1l1.6,0.2c1.1,0,2.1-0.3,3-0.8
		l1.2-0.9c0.7-0.7,1.3-1.6,1.5-2.6c0-0.2,0.1-0.4,0.2-0.6l-0.6,1.4c0.2-0.6,0.5-1.2,0.7-1.8c0.1-0.1,0.1-0.3,0.1-0.4
		c0.7-2.3-0.2-4.9-2.1-6.3c-0.6-0.5-1.3-0.9-2-1.1l-1.6-0.2c-1.1,0-2.1,0.3-3,0.8l-1.2,0.9C143.5,125.5,143,126.4,142.7,127.4
		L142.7,127.4z"/>
	<path class="st0" d="M141,97.6c7.7,0,7.7-12,0-12S133.3,97.6,141,97.6z"/>
</g>
<g id="Calque_10">
	<ellipse class="st0" cx="100.1" cy="118" rx="50" ry="48"/>
	<path class="st1" d="M133.2,164.3l8.1-24.5c0,0,7.9-8.1,13.6-2.5c3.8,3.8-5.1,29-10,30C136.7,169.1,133.2,164.3,133.2,164.3z"/>
	<path class="st1" d="M66.8,164.3l-8.1-24.5c0,0-7.9-8.1-13.6-2.5c-3.8,3.8,5.1,29,10,30C63.3,169.1,66.8,164.3,66.8,164.3z"/>
	<path class="st14" d="M143.2,121.8c0,46-27.4,79-43.3,79c-15.8,0-43.3-33-43.3-79c0-34.4,19.4-45.6,43.3-45.6
		C123.8,76.2,143.2,87.3,143.2,121.8z"/>
	<path class="st13" d="M59,138.4c-2-3.4-12.6-51.7,24.5-63.5s53.2,13.5,53.2,13.5s14.7,19.7,6.8,49.4c0,0-1.9-15.9-7.2-28.1
		s-2-14.6-1.9-15.6s-34.6-3.4-34.6-3.4S68.8,90,69.4,91.4C71.4,95.6,59,138.4,59,138.4z"/>
	<path class="st0" d="M52,122.6h-0.4c-0.8,0-1.6,0.1-2.3,0.5c-0.7,0.2-1.4,0.7-1.9,1.2c-0.6,0.5-1,1.2-1.2,1.9
		c-0.4,0.7-0.6,1.5-0.5,2.3l0.2,1.6c0.3,1,0.8,1.9,1.5,2.6l1.2,0.9c0.9,0.5,1.9,0.8,3,0.8H52c0.8,0,1.6-0.1,2.3-0.5
		c0.7-0.2,1.4-0.7,1.9-1.2c0.6-0.5,1-1.2,1.2-1.9c0.4-0.7,0.6-1.5,0.5-2.3l-0.2-1.6c-0.3-1-0.8-1.9-1.5-2.7l-1.2-0.9
		C54.1,122.9,53.1,122.6,52,122.6L52,122.6z"/>
	<path class="st0" d="M43.2,117l0.1,0.4c0.6,2,2.2,3.6,4.2,4.2l0.4,0.1c0.8,0.3,1.6,0.3,2.4,0.1c0.8,0,1.6-0.3,2.2-0.7
		c0.7-0.4,1.3-0.9,1.7-1.6c0.5-0.6,0.9-1.3,1.1-2l0.2-1.6c0-1.1-0.3-2.1-0.8-3l-0.9-1.2c-0.7-0.8-1.6-1.4-2.6-1.7l-0.4-0.1l4.2,4.2
		l-0.1-0.4c-0.5-1.5-1.5-2.7-2.7-3.6c-0.7-0.4-1.4-0.7-2.2-0.7c-0.8-0.2-1.6-0.1-2.4,0.1l-1.4,0.6c-0.9,0.5-1.6,1.3-2.2,2.2
		l-0.6,1.4C42.9,114.8,42.9,115.9,43.2,117L43.2,117z"/>
	<path class="st0" d="M47.1,100.6l-0.1,0.3l8.8-3.6l0,0l1.2,0.9c-0.1,0-0.1-0.1-0.1-0.1l0.9,1.2c0,0-0.1-0.1-0.1-0.2l0.6,1.4
		c0-0.1,0-0.1,0-0.2l0.2,1.6c0-0.1,0-0.1,0-0.2c0-0.8-0.2-1.6-0.6-2.3c-0.2-0.7-0.7-1.4-1.2-1.9c-0.5-0.6-1.2-1-1.9-1.2
		c-0.7-0.4-1.5-0.6-2.3-0.5l-1.6,0.2c-1,0.3-1.9,0.8-2.7,1.5l-1,1.2c-0.5,0.9-0.8,1.9-0.8,3c0,0,0,0.1,0,0.1c0,0,0,0,0,0.1l0.2,1.6
		c0.1,0.6,0.4,1.1,0.7,1.6c0.6,1,1.4,1.9,2.4,2.5c0.9,0.5,1.9,0.8,3,0.8c0.8,0,1.6-0.1,2.3-0.5c0.7-0.2,1.4-0.7,1.9-1.2
		c0.7-0.7,1.3-1.6,1.5-2.7l0.1-0.3c0.4-1.6,0.1-3.2-0.6-4.6c-0.4-0.7-0.9-1.3-1.5-1.7c-0.6-0.5-1.3-0.9-2-1.1l-1.6-0.2
		c-1.1,0-2.1,0.3-3,0.8l-1.2,0.9C48,98.6,47.4,99.5,47.1,100.6L47.1,100.6z"/>
	<path class="st0" d="M56.4,95c7.7,0,7.7-12,0-12S48.7,95,56.4,95z"/>
	<path class="st0" d="M59.6,82.3l0.4,0.9c0.8,1.3,2.1,2.3,3.6,2.8c0.8,0.2,1.6,0.3,2.3,0.1c0.8,0,1.6-0.3,2.2-0.7l1.2-0.9
		c0.7-0.7,1.3-1.6,1.6-2.6l0.2-1.6c0-1.1-0.3-2.1-0.8-3L70,76.2c-0.8-1.3-2.1-2.3-3.6-2.8c-0.8-0.3-1.6-0.3-2.4-0.1
		c-0.8,0-1.6,0.3-2.2,0.7L60.6,75c-0.7,0.7-1.3,1.7-1.6,2.7l-0.2,1.6C58.8,80.3,59.1,81.4,59.6,82.3L59.6,82.3z"/>
	<path class="st0" d="M71.9,67.9L71.8,68l-1.2,0.9l0,0L70.5,69l-0.9,1.2l0,0l-0.1,0.1l-0.6,1.4v0.1V72l-0.2,1.6c0,0.1,0,0.1,0,0.2
		c0,0.3,0.1,0.6,0.1,0.9c0,0.5,0.1,1.1,0.4,1.5c0.1,0.5,0.4,1,0.8,1.3c0.3,0.4,0.6,0.8,1.1,1.1c0.2,0.2,0.4,0.4,0.7,0.5l0.2,0.1
		c0.2,0.1,0.4,0.3,0.7,0.4c0.7,0.4,1.4,0.7,2.2,0.7c0.8,0.2,1.6,0.1,2.4-0.1c1.5-0.5,2.7-1.5,3.6-2.8l0.6-1.4c0.3-1,0.3-2.1,0-3.2
		l-0.6-1.4c-0.5-0.9-1.3-1.6-2.2-2.2c-0.3-0.2-0.5-0.4-0.8-0.5l3,5.2c0-0.1,0-0.2,0-0.3l-0.2,1.6c0,0,0-0.1,0-0.1l-0.6,1.4
		c0-0.1,0.1-0.1,0.1-0.2L79,77.5c0-0.1,0.1-0.1,0.2-0.1L78,78.3l0.1-0.1c0.7-0.4,1.3-0.9,1.7-1.5c1-1.2,1.5-2.9,1.2-4.4
		c0-0.8-0.3-1.6-0.7-2.2l-0.9-1.2c-0.7-0.7-1.6-1.3-2.7-1.5l-1.6-0.2c-1.1,0-2.1,0.3-3,0.8L71.9,67.9z"/>
	<path class="st0" d="M83,67.4v2.2c0,1.6,0.6,3.1,1.8,4.2c1.1,1.1,2.7,1.7,4.2,1.8c1.6,0,3.1-0.6,4.2-1.8c1.1-1.1,1.7-2.7,1.8-4.2
		v-2.2c0-1.6-0.7-3.1-1.8-4.2c-2.3-2.3-6.1-2.3-8.5,0c0,0,0,0,0,0C83.7,64.3,83,65.8,83,67.4z"/>
	<path class="st0" d="M98,66.5v0.9c0,0.8,0.1,1.6,0.5,2.3c0.5,1.5,1.7,2.6,3.2,3.2c0.7,0.4,1.5,0.6,2.3,0.5l1.6-0.2
		c1-0.3,1.9-0.8,2.7-1.5l0.9-1.2c0.5-0.9,0.8-1.9,0.8-3v-0.9c0-0.8-0.1-1.6-0.5-2.3c-1-2.2-3.1-3.6-5.5-3.7l-1.6,0.2
		c-1,0.3-1.9,0.8-2.6,1.5l-0.9,1.2C98.3,64.4,98,65.4,98,66.5L98,66.5z"/>
	<path class="st0" d="M122.8,70.9v-0.3l-11.2,3c0.1,0.1,0.1,0.3,0.2,0.4l0.1,0.2c0.3,0.5,0.7,0.9,1.1,1.4c0.5,0.6,1.2,1,1.9,1.2
		c1.5,0.7,3.2,0.7,4.6,0c0.7-0.2,1.4-0.7,1.9-1.2l0.9-1.2c0.5-0.9,0.8-1.9,0.8-3l-0.2-1.6c-0.3-1-0.8-1.9-1.6-2.6l-0.1-0.2l0.9,1.2
		c-0.1-0.2-0.2-0.4-0.3-0.6l-0.9-1.2c-0.5-0.6-1.2-1-1.9-1.2c-0.5-0.3-1-0.4-1.5-0.4c-0.8-0.2-1.6-0.1-2.4,0.1l-1.4,0.6l-1.2,0.9
		c-0.6,0.5-1,1.2-1.2,1.9c-0.4,0.7-0.6,1.5-0.5,2.3v0.3c0,0.8,0.1,1.6,0.5,2.3c0.2,0.7,0.7,1.4,1.2,1.9c0.5,0.6,1.2,1,1.9,1.2
		c0.7,0.4,1.5,0.6,2.3,0.5l1.6-0.2c1-0.3,1.9-0.8,2.7-1.5l0.9-1.2C122.5,73,122.8,72,122.8,70.9L122.8,70.9z"/>
	<path class="st0" d="M133.4,70.6l-0.4-0.3c-0.9-0.5-1.9-0.8-3-0.8c-0.8,0-1.6,0.1-2.3,0.5c-0.7,0.2-1.4,0.7-1.9,1.2
		c-0.7,0.7-1.3,1.6-1.5,2.7c0,0.1,0,0.1-0.1,0.2l-0.2,1.6v0.1c0,0.1,0,0.1,0,0.2l0.2,1.6c0,0,0,0.1,0,0.1c0.3,0.7,0.5,1.4,0.9,2
		l-0.6-1.4c0.1,0.1,0.1,0.3,0.1,0.4c0.5,1.5,1.4,2.7,2.8,3.6c0.7,0.4,1.4,0.7,2.2,0.7c0.8,0.2,1.6,0.1,2.4-0.1
		c1.5-0.4,2.8-1.4,3.6-2.8l0.6-1.4c0.3-1,0.3-2.1,0-3.2c-0.1-0.4-0.2-0.8-0.4-1.2c-0.2-0.4-0.3-0.8-0.5-1.1l0.6,1.4
		c0-0.1-0.1-0.2-0.1-0.3l0.2,1.6c0-0.1,0-0.2,0-0.2l-0.2,1.6c0-0.1,0-0.1,0.1-0.2l-8.8,3.6l0.4,0.3c0.7,0.4,1.4,0.7,2.2,0.7
		c0.8,0.2,1.6,0.1,2.4-0.1c0.7-0.2,1.4-0.6,2-1.1c0.6-0.4,1.2-1,1.5-1.7c0.8-1.4,1-3.1,0.6-4.6l-0.6-1.4
		C135,71.8,134.3,71.1,133.4,70.6L133.4,70.6z"/>
	<path class="st0" d="M133.9,84.8c0.4,1,0.6,1.9,1.1,2.8c0.9,1.8,2.5,3.1,4.4,3.6c1.6,0.4,3.2,0.2,4.6-0.6c2.9-1.7,3.9-5.3,2.2-8.2
		c-0.8-1.4-2.1-2.4-3.7-2.8c-0.1,0-0.1,0-0.2-0.1l1.4,0.6l-0.1-0.1l1.2,0.9c-0.1-0.1-0.2-0.2-0.3-0.3l0.9,1.2
		c-0.1-0.2-0.2-0.3-0.3-0.5l0.6,1.4c-0.2-0.4-0.3-0.9-0.4-1.3c-0.2-0.7-0.5-1.4-1.1-2c-0.4-0.6-1-1.2-1.7-1.5
		c-0.7-0.4-1.4-0.7-2.2-0.7c-0.8-0.2-1.6-0.1-2.4,0.1c-1.5,0.4-2.8,1.4-3.6,2.8C133.7,81.6,133.4,83.3,133.9,84.8L133.9,84.8z"/>
	<path class="st0" d="M153.8,95.7l-0.1-0.3c-0.3-1-0.8-1.9-1.5-2.7c-0.5-0.6-1.2-1-1.9-1.2c-0.7-0.4-1.5-0.6-2.3-0.5
		c-1.1,0-2.1,0.3-3,0.8c-0.9,0.6-1.7,1.3-2.3,2.3l-0.1,0.2c-0.6,1.1-0.9,2.3-0.9,3.6c0,0.5,0.1,1.1,0.1,1.6c0,1.6,0.6,3.1,1.8,4.2
		c2.3,2.3,6.1,2.3,8.5,0c0,0,0,0,0,0c1.1-1.1,1.7-2.7,1.8-4.2c0-0.6,0-1.1,0-1.7l-0.2,1.6c0-0.1,0.1-0.3,0.1-0.4l-0.6,1.4
		c0-0.1,0.1-0.2,0.1-0.2l-0.9,1.2l0.1-0.1l-1.2,0.9l0.1-0.1l-8.8-3.6l0.1,0.3c0.4,1.5,1.4,2.7,2.7,3.6c2.9,1.7,6.5,0.7,8.2-2.1
		c0,0,0,0,0,0C154,99,154.2,97.3,153.8,95.7L153.8,95.7z"/>
	<path class="st0" d="M143.8,115.8v1.3c0.1,1.6,0.7,3.1,1.8,4.2c1.2,1.1,2.7,1.7,4.2,1.8l1.6-0.2c1-0.3,1.9-0.8,2.6-1.5l0.9-1.2
		c0.5-0.9,0.8-1.9,0.8-3v-1.3c0-0.8-0.1-1.6-0.5-2.3c-1-2.2-3.1-3.6-5.5-3.7l-1.6,0.2c-1,0.3-1.9,0.8-2.6,1.5l-0.9,1.2
		C144.1,113.7,143.8,114.8,143.8,115.8z"/>
	<path class="st0" d="M142.7,127.4c0,0.2-0.1,0.4-0.2,0.6l0.6-1.4c-0.2,0.6-0.5,1.2-0.7,1.7c0,0.1-0.1,0.3-0.1,0.4
		c-0.3,0.8-0.3,1.6-0.1,2.4c0,0.8,0.3,1.6,0.7,2.2c0.4,0.7,0.9,1.3,1.6,1.7c0.6,0.5,1.3,0.9,2,1.1l1.6,0.2c1.1,0,2.1-0.3,3-0.8
		l1.2-0.9c0.7-0.7,1.3-1.6,1.5-2.6c0-0.2,0.1-0.4,0.2-0.6l-0.6,1.4c0.2-0.6,0.5-1.2,0.7-1.8c0.1-0.1,0.1-0.3,0.1-0.4
		c0.7-2.3-0.2-4.9-2.1-6.3c-0.6-0.5-1.3-0.9-2-1.1l-1.6-0.2c-1.1,0-2.1,0.3-3,0.8l-1.2,0.9C143.5,125.5,143,126.4,142.7,127.4
		L142.7,127.4z"/>
	<path class="st0" d="M141,97.6c7.7,0,7.7-12,0-12S133.3,97.6,141,97.6z"/>
</g>
</svg>
