<?xml version="1.0" encoding="utf-8"?>
<!-- Generator: Adobe Illustrator 26.0.0, SVG Export Plug-In . SVG Version: 6.00 Build 0)  -->
<svg version="1.1" id="Calque_1" xmlns="http://www.w3.org/2000/svg" xmlns:xlink="http://www.w3.org/1999/xlink" x="0px" y="0px"
	 viewBox="0 0 200 217.4" style="enable-background:new 0 0 200 217.4;" xml:space="preserve">
<style type="text/css">
	.st0{fill:#6F412A;}
	.st1{fill:#90573A;}
	.st2{fill:#3A201D;}
	.st3{fill:#43516D;}
</style>
<path class="st0" d="M132.2,164.8l8.1-24.5c0,0,7.9-8.1,13.6-2.5c3.8,3.8-5.1,29-10,30C135.7,169.6,132.2,164.8,132.2,164.8z"/>
<path class="st0" d="M65.8,164.8l-8.1-24.5c0,0-7.9-8.1-13.6-2.5c-3.8,3.8,5.1,29,10,30C62.3,169.6,65.8,164.8,65.8,164.8z"/>
<path class="st1" d="M98.9,76.6c-23.9,0-43.3,11.2-43.3,45.6c0,46,27.4,79,43.3,79c15.8,0,43.3-33,43.3-79
	C142.2,87.8,122.9,76.6,98.9,76.6z"/>
<path class="st2" d="M58,147.7l-8.3-5.4c0,0-1.6-47.6-1.5-59.6c0-15.2,22.6-5.5,38.8-8.3c7.4-1.3,11.4-0.5,11.4-0.5s16,2.3,22.1,1.7
	c23.9-2.6,27.9-2.2,27.2,9c-0.9,12.7-0.5,56.6-0.5,56.6l-9.3,2.9l-0.5-18.3l-2.6-7.7c0,0-5.8-13.3-5.5-13.3s-11.3,3.4-11.3,3.4
	s-15-7.9-18-9.7c-2.2-1.3-9,4.1-9,4.1s-5.8-6.9-9.4-6.9c-2.6,0-0.8,7.9-0.8,7.9L64.3,105l-1.9,12.2l-4.9,9.8L58,147.7z"/>
<g id="Calque_10">
	<rect x="46" y="59" class="st3" width="101.3" height="39.7"/>
	<rect x="81.7" y="92" class="st3" width="101" height="6.6"/>
</g>
</svg>
