<svg id="Calque_9" data-name="Calque 9" xmlns="http://www.w3.org/2000/svg" viewBox="0 0 200 217.42"><defs><style>.cls-1{fill:#9e6754;}.cls-2{fill:#8c5c4b;}.cls-3{fill:#281e1b;}</style></defs><path class="cls-1" d="M99.94,73.79c23.91,0,43.28,11.2,43.28,45.61,0,46-27.44,79-43.28,79"/><path class="cls-2" d="M133.2,162l8.14-24.49s7.88-8.13,13.62-2.49c3.82,3.75-5.09,29-10,30C136.66,166.73,133.2,162,133.2,162Z"/><path class="cls-2" d="M66.8,162l-8.14-24.49S50.78,129.33,45,135c-3.82,3.75,5.09,29,10,30C63.34,166.73,66.8,162,66.8,162Z"/><path class="cls-1" d="M99.94,198.42c-15.83,0-43.28-33-43.28-79C56.66,85,76,73.79,99.94,73.79"/><path class="cls-3" d="M137.53,96.92c-.44-1-1.24-3.54-.66-4.52,1.88-3.15,4.07-.09,5.27,2,1.32,2.29,2.65,7.48-1.37,6.83C139.45,101,138.05,98.16,137.53,96.92Z"/><path class="cls-3" d="M140.79,106.74c-.14-1.13-.25-3.75.58-4.54,2.65-2.52,3.94,1,4.54,3.33.66,2.56.55,7.91-3.15,6.21C141.54,111.18,141,108.07,140.79,106.74Z"/><path class="cls-3" d="M141.58,125.71c.15-1.13.7-3.69,1.69-4.25,3.2-1.79,3.57,2,3.57,4.35,0,2.64-1.44,7.8-4.6,5.24C141.2,130.2,141.41,127,141.58,125.71Z"/><path class="cls-3" d="M106,74.58c-1.12-.21-3.65-.89-4.15-1.92-1.62-3.28,2.14-3.46,4.53-3.33,2.64.14,7.72,1.85,5,4.87C110.49,75.19,107.36,74.82,106,74.58Z"/><path class="cls-3" d="M126.55,81.36c-1-.55-3.18-2-3.33-3.13-.5-3.63,3.12-2.61,5.35-1.73,2.46,1,6.74,4.18,3.19,6.19C130.59,83.35,127.73,82,126.55,81.36Z"/><path class="cls-3" d="M63.44,96.92c.44-1,1.25-3.54.66-4.52-1.87-3.15-4.07-.09-5.26,2-1.32,2.29-2.66,7.48,1.36,6.83C61.53,101,62.93,98.16,63.44,96.92Z"/><path class="cls-3" d="M58.12,117.76c.15-1.14.25-3.75-.58-4.54-2.65-2.52-3.94,1-4.54,3.33-.65,2.55-.54,7.91,3.15,6.21C57.37,122.2,58,119.09,58.12,117.76Z"/><path class="cls-3" d="M59.39,125.71c-.14-1.13-.69-3.69-1.69-4.25-3.2-1.79-3.57,2-3.57,4.35,0,2.64,1.44,7.8,4.6,5.24C59.77,130.2,59.56,127,59.39,125.71Z"/><path class="cls-3" d="M94.94,74.58c1.13-.21,3.65-.89,4.16-1.92,1.61-3.28-2.15-3.46-4.53-3.33-2.64.14-7.72,1.85-5,4.87C90.48,75.19,93.62,74.82,94.94,74.58Z"/><path class="cls-3" d="M74.42,81.36c1-.55,3.18-2,3.34-3.13.5-3.63-3.13-2.61-5.35-1.73-2.46,1-6.74,4.18-3.2,6.19C70.38,83.35,73.24,82,74.42,81.36Z"/><path class="cls-3" d="M67.75,87.47c.58-1,1.72-3.34,1.27-4.4-1.42-3.37-4-.64-5.48,1.25-1.62,2.08-3.65,7,.42,7C65.3,91.24,67.07,88.62,67.75,87.47Z"/><path class="cls-3" d="M83.86,76.59c1.07-.39,3.45-1.49,3.77-2.59,1-3.51-2.7-3-5-2.52-2.58.59-7.29,3.14-4.09,5.65C79.57,78,82.6,77.05,83.86,76.59Z"/><path class="cls-3" d="M117.23,76.34c1.09.34,3.65.92,4.57.24,3-2.15-.28-4.06-2.46-5.06-2.4-1.1-7.69-2-6.68,2C113,74.81,116,75.94,117.23,76.34Z"/><path class="cls-3" d="M133,88.3c.73.88,2.57,2.74,3.71,2.68,3.66-.2,2-3.56.68-5.58-1.41-2.23-5.39-5.82-6.68-2C130.32,84.71,132.19,87.26,133,88.3Z"/><path class="cls-3" d="M59.39,106.53c.39-1.07,1.09-3.59.46-4.55-2-3.06-4.07.09-5.17,2.21-1.23,2.34-2.34,7.58,1.65,6.77C57.65,110.69,58.92,107.79,59.39,106.53Z"/><path class="cls-3" d="M142.65,117.48c-.14-1.13-.25-3.75.58-4.54,2.65-2.52,3.94,1,4.54,3.33.66,2.56.55,7.91-3.15,6.21C143.4,121.92,142.82,118.81,142.65,117.48Z"/><path class="cls-3" d="M68.63,80.42c7.72,0,7.73-12,0-12s-7.74,12,0,12Z"/><path class="cls-3" d="M86.58,67a4,4,0,0,1-.24-.46l.6,1.43a2.53,2.53,0,0,1-.12-.36L82.63,75l.08,0-1.6.22h.1L79.62,75h0l-1.43-.6,0,0-1.21-.94,0,0-.93-1.21a.08.08,0,0,1,0,0l-.6-1.44a.44.44,0,0,1,0,.1L75.4,69.4v.18a6.62,6.62,0,0,0,1.75,4.24,6.76,6.76,0,0,0,4.25,1.76L83,75.36a6,6,0,0,0,2.65-1.54l.94-1.21a6.09,6.09,0,0,0,.82-3V69.4l-.22-1.6a.2.2,0,0,0,0-.07,5.27,5.27,0,0,0-.31-.74c-.1-.25-.2-.5-.32-.75A6.35,6.35,0,0,0,84.29,64l-1.43-.6h0a6.32,6.32,0,0,0-3.37,0,4.47,4.47,0,0,0-2,1.07,4.58,4.58,0,0,0-1.55,1.69l-.6,1.43a6,6,0,0,0,0,3.19A13,13,0,0,0,76,72.61a2.64,2.64,0,0,0,.23.44A6.66,6.66,0,0,0,79.8,75.8a6.75,6.75,0,0,0,4.63-.6l1.21-.94a6,6,0,0,0,1.54-2.65L87.4,70a6.09,6.09,0,0,0-.82-3Z"/><path class="cls-3" d="M102.87,65.23l-.19-.27-8.21,8.2.63.28a4.48,4.48,0,0,0,2.23.71,4.56,4.56,0,0,0,2.4-.11,4.47,4.47,0,0,0,2-1.07,4.61,4.61,0,0,0,1.54-1.68l.61-1.44a6.16,6.16,0,0,0,0-3.19l-.61-1.43a6,6,0,0,0-2.15-2.15l-.63-.28-1.43-.6a4.56,4.56,0,0,0-2.4-.11,3,3,0,0,0-1.51.41,4.52,4.52,0,0,0-1.93,1.24L92.32,65l-.6,1.43a4.52,4.52,0,0,0-.11,2.39A4.38,4.38,0,0,0,92.32,71l.19.28A4.61,4.61,0,0,0,94.05,73a4.45,4.45,0,0,0,2,1.07,6.72,6.72,0,0,0,4.62-.6l1.21-.94a6,6,0,0,0,1.55-2.65l.21-1.59a5.94,5.94,0,0,0-.82-3Z"/><path class="cls-3" d="M115.25,63.52a6.65,6.65,0,0,0-3.42-.92,6.38,6.38,0,0,0-3.14.86l-.06,0-1.21.94a.47.47,0,0,0-.1.1,6.07,6.07,0,0,0-1.54,2.65,4.62,4.62,0,0,0-.11,2.39,4.49,4.49,0,0,0,.72,2.23A6,6,0,0,0,108.54,74l.65.37a4.51,4.51,0,0,0,2.23.71,4.56,4.56,0,0,0,2.4-.11,6.66,6.66,0,0,0,3.58-2.75l.61-1.44a6.16,6.16,0,0,0,0-3.19l-.61-1.43A6,6,0,0,0,115.25,64l-.65-.37L115.81,73l.09-.09-1.21.94.08,0-1.43.6.08,0-1.59.21H112l-1.6-.21.19,0-1.44-.6a.2.2,0,0,1,.08,0,4.51,4.51,0,0,0,2.23.71,4.56,4.56,0,0,0,2.4-.11,4.47,4.47,0,0,0,2-1.07,4.53,4.53,0,0,0,1.54-1.68l.61-1.44a6.16,6.16,0,0,0,0-3.19l-.61-1.43a6,6,0,0,0-2.15-2.15Z"/><path class="cls-3" d="M121.64,73.1a10.6,10.6,0,0,0,.23,2,3.89,3.89,0,0,0,.12.49c.1.31.22.61.3.92A6.61,6.61,0,0,0,125.05,80a4.49,4.49,0,0,0,2.23.72,4.63,4.63,0,0,0,2.39-.11,6.1,6.1,0,0,0,3.59-2.76,6.3,6.3,0,0,0,.6-4.62c-.12-.48-.34-.92-.42-1.41l.21,1.6a2.17,2.17,0,0,1,0-.36,6.7,6.7,0,0,0-1.76-4.24,6.7,6.7,0,0,0-4.24-1.76,6.06,6.06,0,0,0-4.25,1.76,6.26,6.26,0,0,0-1.75,4.24Z"/><path class="cls-3" d="M61.14,71.61h.44a4.46,4.46,0,0,0,2.31-.51,5.39,5.39,0,0,0,3.17-3.17,4.52,4.52,0,0,0,.52-2.32L67.37,64a6,6,0,0,0-1.55-2.65l-1.21-.94a6.09,6.09,0,0,0-3-.82h-.44a4.56,4.56,0,0,0-2.31.52,5.39,5.39,0,0,0-3.17,3.17,4.51,4.51,0,0,0-.52,2.31l.21,1.6a6,6,0,0,0,1.55,2.65l1.21.94a6,6,0,0,0,3,.81Z"/><path class="cls-3" d="M76.55,65.89h.15l-1.6-.22a1.29,1.29,0,0,1,.35.1L74,65.18l.26.14-1.22-.93a1.87,1.87,0,0,1,.32.31l-.94-1.21a1.28,1.28,0,0,1,.15.25L72,62.31a1.4,1.4,0,0,1,.1.35l-.21-1.6v.15a4.46,4.46,0,0,0,.52,2.31,5.39,5.39,0,0,0,3.17,3.17,4.51,4.51,0,0,0,2.31.52l1.6-.21a6,6,0,0,0,2.65-1.55l.93-1.21a5.89,5.89,0,0,0,.82-3v-.15l-.22-1.59V59.4a5.47,5.47,0,0,0-.39-1,5.33,5.33,0,0,0-.43-.94c-.25-.38-.69-.92-1-1.27l-.12-.14-.11-.1c-.38-.32-.87-.71-1.28-1l-.25-.15c-.44-.21-1-.47-1.5-.63l-.18,0c-.29-.06-.67-.09-.9-.13a7.46,7.46,0,0,0-1-.11,4.51,4.51,0,0,0-2.31.52,5.39,5.39,0,0,0-3.17,3.17,4.46,4.46,0,0,0-.52,2.31l.22,1.59a6,6,0,0,0,1.54,2.65l1.21.94a6,6,0,0,0,3,.82Z"/><path class="cls-3" d="M96.81,64.13c7.72,0,7.73-12,0-12s-7.73,12,0,12Z"/><path class="cls-3" d="M112,53.22l-.36.09a6,6,0,0,0-4.19,4.19l-.08.35a4.56,4.56,0,0,0-.11,2.4,5.34,5.34,0,0,0,2.26,3.91,4.58,4.58,0,0,0,2,1.08l1.59.21a5.94,5.94,0,0,0,3-.82l1.22-.94A6.07,6.07,0,0,0,118.89,61l.08-.35-4.19,4.19.36-.09A6.66,6.66,0,0,0,118.72,62a4.49,4.49,0,0,0,.72-2.23,4.66,4.66,0,0,0-.11-2.4L118.72,56a6,6,0,0,0-2.15-2.15l-1.43-.61a6.16,6.16,0,0,0-3.19,0Z"/><path class="cls-3" d="M137.6,65.17v-.88a4.51,4.51,0,0,0-.52-2.31,4.43,4.43,0,0,0-1.24-1.93,6.7,6.7,0,0,0-4.24-1.76l-1.6.22a5.94,5.94,0,0,0-2.64,1.54l-.94,1.22a5.83,5.83,0,0,0-.82,3v.88a4.52,4.52,0,0,0,.52,2.32,6.13,6.13,0,0,0,5.48,3.68l1.59-.21a6.07,6.07,0,0,0,2.65-1.54l.94-1.22a5.94,5.94,0,0,0,.82-3Z"/><path class="cls-3" d="M58.77,96.06a6.3,6.3,0,0,0,3-1.71,4.79,4.79,0,0,0,1.33-2.06,7.7,7.7,0,0,0,.33-.8l.21-1.6v-.06a6.29,6.29,0,0,0-1.87-4.51,6.22,6.22,0,0,0-3-1.71,4.52,4.52,0,0,0-2.39-.11,4.58,4.58,0,0,0-2.23.71,4.67,4.67,0,0,0-1.69,1.55,4.56,4.56,0,0,0-1.07,2l-.21,1.59a5.84,5.84,0,0,0,.82,3l.93,1.22a6.12,6.12,0,0,0,2.65,1.54l.21,0-1.43-.6.12.07-1.21-.94.07.07-.94-1.21a.36.36,0,0,1,.07.1l-.61-1.43a.24.24,0,0,1,0,.08l-.21-1.59a.21.21,0,0,1,0,.11l.21-1.59a.24.24,0,0,1,0,.08L52.47,87a.36.36,0,0,1-.07.1l.94-1.21-.07.07L54.48,85l-.12.07,1.43-.6-.21,0a4.56,4.56,0,0,0-2,1.07A4.55,4.55,0,0,0,52,87.25a4.49,4.49,0,0,0-.72,2.23,4.63,4.63,0,0,0,.11,2.39L52,93.3a6.09,6.09,0,0,0,2.15,2.16l1.43.6a6,6,0,0,0,3.19,0Z"/><path class="cls-3" d="M46.17,88.79c7.72,0,7.73-12,0-12s-7.74,12,0,12Z"/><path class="cls-3" d="M50.13,102.33h-.44a4.46,4.46,0,0,0-2.31.52A5.39,5.39,0,0,0,44.21,106a4.46,4.46,0,0,0-.52,2.31l.21,1.6a6,6,0,0,0,1.55,2.64l1.21.94a6,6,0,0,0,3,.82h.44a4.46,4.46,0,0,0,2.31-.52,5.39,5.39,0,0,0,3.17-3.17,4.46,4.46,0,0,0,.52-2.31l-.21-1.59a6,6,0,0,0-1.55-2.65l-1.21-.94a6,6,0,0,0-3-.82Z"/><path class="cls-3" d="M37.36,101.45a10.49,10.49,0,0,0-5.69,1.15,16.36,16.36,0,0,0-3.4,2.81,6,6,0,1,0,8.49,8.48c.53-.51,1-1,1.62-1.5l-1.21.93a4.9,4.9,0,0,1,.92-.53l-1.44.6a5.85,5.85,0,0,1,.8-.2l-1.59.22c.5,0,1,0,1.5,0a6.05,6.05,0,0,0,6-6,6.12,6.12,0,0,0-6-6Z"/><path class="cls-3" d="M47.66,116.64a1.89,1.89,0,0,0-.41.1l-.09,0c-.45.19-1,.42-1.47.63l-.2.1,7.27,9.42.29-.26a4.38,4.38,0,0,0,1.24-1.93,4.46,4.46,0,0,0,.52-2.31,4.51,4.51,0,0,0-.52-2.31,4.43,4.43,0,0,0-1.24-1.93l-1.21-.94a6.09,6.09,0,0,0-3-.82l-1.6.22a6,6,0,0,0-2.64,1.54l-.29.25a6.76,6.76,0,0,0-1.76,4.25l.21,1.59a4.58,4.58,0,0,0,1.08,2,3,3,0,0,0,1.07,1.08,4.47,4.47,0,0,0,2,1.07l1.6.22a6.09,6.09,0,0,0,3-.82l.21-.11-1.43.6a2.35,2.35,0,0,1,.52-.14,4.58,4.58,0,0,0,2-1.08,4.53,4.53,0,0,0,1.54-1.68,4.38,4.38,0,0,0,.71-2.23,4.52,4.52,0,0,0-.1-2.39l-.61-1.44a6,6,0,0,0-2.15-2.15l-1.43-.6a6,6,0,0,0-3.19,0Z"/><path class="cls-3" d="M31.8,129.91v.44a4.51,4.51,0,0,0,.52,2.31,5.39,5.39,0,0,0,3.17,3.17,4.46,4.46,0,0,0,2.31.52l1.6-.22A6,6,0,0,0,42,134.59l.94-1.21a6,6,0,0,0,.82-3v-.44a4.46,4.46,0,0,0-.52-2.31A4.38,4.38,0,0,0,42,125.67a4.49,4.49,0,0,0-1.93-1.25,4.56,4.56,0,0,0-2.31-.51l-1.59.21a6,6,0,0,0-2.65,1.55l-.94,1.21a6,6,0,0,0-.82,3Z"/><path class="cls-3" d="M141.73,91.87c7.72,0,7.73-12,0-12s-7.74,12,0,12Z"/><path class="cls-3" d="M151.86,82.62h1.32a5.78,5.78,0,0,0,5.48-3.68,4.52,4.52,0,0,0,.52-2.32L159,75a6,6,0,0,0-1.54-2.65l-1.22-.94a6,6,0,0,0-3-.82h-1.32a4.52,4.52,0,0,0-2.32.52,4.58,4.58,0,0,0-1.93,1.24,6.62,6.62,0,0,0-1.75,4.24l.21,1.6a6,6,0,0,0,1.54,2.65l1.22.93a5.84,5.84,0,0,0,3,.82Z"/><path class="cls-3" d="M144.81,106c7.72,0,7.73-12,0-12s-7.73,12,0,12Z"/><path class="cls-3" d="M157.14,102.88a12.94,12.94,0,0,1,2,0l-1.59-.21a3.38,3.38,0,0,1,.75.22l-1.44-.61a2.08,2.08,0,0,1,.36.2,6.18,6.18,0,0,0,4.63.61,6,6,0,0,0,1.43-11,10.81,10.81,0,0,0-6.11-1.26,6.22,6.22,0,0,0-4.24,1.76,6,6,0,0,0,4.24,10.24Z"/><path class="cls-3" d="M150.09,122.7a2,2,0,0,1,.49,0l-1.59-.22a2.85,2.85,0,0,1,.39.11l-1.44-.6a2.75,2.75,0,0,1,.3.14,4.46,4.46,0,0,0,2.23.72,4.53,4.53,0,0,0,2.39-.11l1.43-.61a4.55,4.55,0,0,0,1.69-1.54,3,3,0,0,0,.77-1.32,4.51,4.51,0,0,0,.51-2.32l-.21-1.59a6,6,0,0,0-1.54-2.65l-.29-.26a4.68,4.68,0,0,0-1.93-1.24,5.51,5.51,0,0,0-4.63,0,4.68,4.68,0,0,0-1.93,1.24l-.94,1.22a6,6,0,0,0-.82,3l.22,1.59a6,6,0,0,0,1.54,2.65l.29.26,7.27-9.43-.29-.15c-.47-.21-1-.47-1.51-.63l-.19,0a8.13,8.13,0,0,0-.92-.13c-.27,0-.61-.1-.92-.12a1.54,1.54,0,0,0-.37,0,6.62,6.62,0,0,0-4.24,1.75,4.56,4.56,0,0,0-1.24,1.94,4.46,4.46,0,0,0-.52,2.31l.22,1.59a6,6,0,0,0,1.54,2.65l1.22.94a6,6,0,0,0,3,.82Z"/><path class="cls-3" d="M156.42,119.78a11.76,11.76,0,0,0,.66,4.24,4.47,4.47,0,0,0,1.07,2,4.55,4.55,0,0,0,1.69,1.54,6,6,0,0,0,8.21-2.15,5.87,5.87,0,0,0,.6-4.62,6.85,6.85,0,0,1-.39-1.46l.21,1.59a11.52,11.52,0,0,1-.05-1.18,6.17,6.17,0,0,0-1.75-4.24,6,6,0,0,0-8.49,0,6.25,6.25,0,0,0-1.76,4.24Z"/></svg>