<svg id="Calque_9" data-name="Calque 9" xmlns="http://www.w3.org/2000/svg" viewBox="0 0 288 217.42"><defs><style>.cls-1{fill:#90573a;}.cls-2{fill:#6f412a;}.cls-3{fill:#30211b;}</style></defs><path class="cls-1" d="M187.51,122.63a153.47,153.47,0,0,1-.95,17.21,119.54,119.54,0,0,1-6.27,27.53c-7.75,21.18-21,34.28-36.06,34.28V77C168.14,77,187.51,88.22,187.51,122.63Z"/><path class="cls-2" d="M189.29,168.22a13.35,13.35,0,0,1-9-.85,119.54,119.54,0,0,0,6.27-27.53c2.25-1.93,8.14-6.11,12.69-1.64C203.07,142,194.16,167.2,189.29,168.22Z"/><path class="cls-1" d="M144.23,76.92V201.55c-15.26,0-28.67-13.47-36.38-35.17a115.32,115.32,0,0,1-5.07-20.18A149,149,0,0,1,101,122.53C101,88.12,120.33,76.92,144.23,76.92Z"/><path class="cls-2" d="M107.85,166.38c-1.66,1.29-5,3-10.56,1.84-4.87-1-13.78-26.27-10-30,5.74-5.64,13.62,2.49,13.62,2.49l1.83,5.51A115.32,115.32,0,0,0,107.85,166.38Z"/><path class="cls-3" d="M102.78,146.2l-10.1-10L94.59,61.1l101.14-2.64s-1.57,77.51-2.31,77.75-6.86,3.63-6.86,3.63-2.42-38.17-4.7-38.78-31.26,1.14-35.67.33c-5.67-1-41.32-1.82-41.32-1.82Z"/></svg>