<?xml version="1.0" encoding="utf-8"?>
<!-- Generator: Adobe Illustrator 26.0.0, SVG Export Plug-In . SVG Version: 6.00 Build 0)  -->
<svg version="1.1" id="Calque_1" xmlns="http://www.w3.org/2000/svg" xmlns:xlink="http://www.w3.org/1999/xlink" x="0px" y="0px"
	 viewBox="0 0 200 217.4" style="enable-background:new 0 0 200 217.4;" xml:space="preserve">
<style type="text/css">
	.st0{fill:#281E1B;}
	.st1{fill:#6F412A;}
	.st2{fill:#8C5C4B;}
	.st3{fill:#90573A;}
	.st4{fill:#4E6566;}
</style>
<g id="Calque_9">
	<path class="st0" d="M133.5,163.2c0.7-6.4-9.3-6.3-10,0c-1.4,13.8,1.3,27.6,7.8,39.8c3,5.7,11.6,0.6,8.6-5.1
		C134.4,187.3,132.1,175.2,133.5,163.2z"/>
	<path class="st1" d="M133.2,164.1l8.1-24.5c0,0,7.9-8.1,13.6-2.5c3.8,3.8-5.1,29-10,30C136.7,168.9,133.2,164.1,133.2,164.1z"/>
	<path class="st2" d="M66.8,164.1l-8.1-24.5c0,0-7.9-8.1-13.7-2.5c-3.8,3.8,5.1,29,10,30C63.3,168.9,66.8,164.1,66.8,164.1z"/>
	<path class="st3" d="M99.9,75.9c-23.9,0-43.3,11.2-43.3,45.6c0,46,27.4,79,43.3,79c15.8,0,43.3-33,43.3-79
		C143.2,87.1,123.9,75.9,99.9,75.9z"/>
	<path class="st0" d="M155.5,212.4c-3.7-16.7-8.5-34.9-7-52.1c0.7-7.8,2.6-15.5,3.1-23.4c0.3-4.7,0.2-9.5-0.2-14.2
		c-0.2-7.1-0.9-14.2-2-21.2c-1.6-10.5-4.6-21-11.9-29c-11.7-12.7-31-12-42.4-0.1c-9.7-6.6-22.5-6.6-32.1,0.1
		c-13,9.3-19.9,26.8-21.3,42.3c-1.9,2.3-3.4,4.9-4.6,7.7c-4.1,9.6-4.2,20.5-0.2,30.1c4.9,11.9,14.7,21.7,22.9,31.4
		c0,15.5-2.8,30.9-5.7,46.1c-1.2,6.3,8.5,9,9.6,2.6c1.2-6.8,2.5-13.5,3.5-20.4c3,1.5,7.5,0.1,7.4-4.2c-0.2-9.3-2.2-18-5-26.5
		c-0.4-10.6-2-21.2-4.6-31.5c-3-12.3-4.5-25-2.5-37.6c7.6-2.4,16.2-2.8,23.5-5.2c6.5-2.2,13.3-6.5,15.8-12.4c0.9-0.4,1.7-1,2.2-1.8
		c7.4-10.1,21.4-5.8,28.2,2.5c6.1,7.4,8.4,17.8,9.1,27.7c0.1,3.3-0.2,6.6-0.7,9.9c-0.2,1.3,0,2.6,0.8,3.7c-0.8,12.3-4.1,24.1-3,36.6
		c1.3,14,4.2,27.9,7.2,41.6C147.3,221.3,156.9,218.7,155.5,212.4z M44,139.2c1.5,5.5,3.2,10.8,5.3,16.1c-1.9-3-3.3-6.3-4.3-9.7
		C44.4,143.5,44.1,141.4,44,139.2z M65.7,101.9c1.3-2.7,3.4-5.1,5.9-6.7c4.7-2.9,10.4-3.6,15.6-1.8c1.5,0.6,3.1,0.3,4.3-0.8
		c0.2,0.1,0.4,0.3,0.7,0.3C88.1,98,73.3,100.5,65.7,101.9z"/>
	<path class="st0" d="M47.9,166c-0.7-6.4,9.3-6.3,10,0c1.4,13.8-1.3,27.6-7.8,39.9c-3,5.7-11.6,0.6-8.6-5
		C47.1,190.1,49.3,178,47.9,166z"/>
</g>
<g id="Calque_10">
	<path class="st4" d="M42.6,108.9c0.3-1.5-2.8-37.6,14.1-45.5s65-23.9,80.6-5.4s14,31.7,12.5,34.5s-56.5,1.5-73.3,7.4"/>
	<path class="st4" d="M46.7,85.1c-10.3,0-23-1.7-10.2-21.7s22.7-25.7,43.3-25.7s35.9,1,33.1,11.8S46.7,85.1,46.7,85.1z"/>
	<path class="st4" d="M33.9,68.1c13.6-0.3,4.6,12.2,12.8-3.1S59,49.9,49.6,44.8C21.7,29.8,12,68.6,33.9,68.1z"/>
</g>
</svg>
