<?xml version="1.0" encoding="utf-8"?>
<!-- Generator: Adobe Illustrator 26.0.1, SVG Export Plug-In . SVG Version: 6.00 Build 0)  -->
<svg version="1.1" id="Calque_1" xmlns="http://www.w3.org/2000/svg" xmlns:xlink="http://www.w3.org/1999/xlink" x="0px" y="0px"
	 viewBox="0 0 788 1005" style="enable-background:new 0 0 788 1005;" xml:space="preserve">
<style type="text/css">
	.st0{fill:#90573A;}
	.st1{fill:#6F412A;}
	.st2{fill:#3A201D;}
	.st3{fill:#43516D;}
</style>
<path class="st0" d="M393.9,180.8c-23.9,0-43.2,11.2-43.2,45.6c0,69.7,27.4,79,43.3,79l0,0c15.8,0,43.3-9,43.3-79
	C437.2,192,417.9,180.8,393.9,180.8z"/>
<g id="Calque_9">
	<path class="st1" d="M426.2,269l8.1-24.5c0,0,7.9-8.1,13.6-2.5c3.8,3.8-5.1,29-10,30C429.7,273.8,426.2,269,426.2,269z"/>
	<path class="st1" d="M359.8,269l-8.1-24.5c0,0-7.9-8.1-13.7-2.5c-3.8,3.8,5.1,29,10,30C356.3,273.8,359.8,269,359.8,269z"/>
	<path class="st0" d="M392.9,180.8c-23.9,0-43.3,11.2-43.3,45.6c0,46,27.5,79,43.3,79s43.3-33,43.3-79
		C436.2,192,416.9,180.8,392.9,180.8z"/>
	<path class="st2" d="M352,251.9l-8.3-5.4c0,0-1.6-47.6-1.5-59.6c0-15.2,22.5-5.5,38.9-8.3c7.4-1.3,11.4-0.5,11.4-0.5
		s16,2.3,22.1,1.6c23.9-2.6,27.9-2.2,27.1,9c-0.9,12.7-0.5,56.6-0.5,56.6l-9.3,2.9l-0.5-18.3l-2.6-7.7c0,0-5.8-13.3-5.5-13.3
		s-11.3,3.4-11.3,3.4s-15-7.9-18-9.7c-2.2-1.3-9,4.1-9,4.1s-5.8-6.9-9.5-6.9c-2.6,0-0.8,7.9-0.8,7.9l-16.4,1.6l-1.9,12.2l-4.9,9.8
		L352,251.9z"/>
</g>
<g id="Calque_10">
	<rect x="340" y="163.2" class="st3" width="101.3" height="39.7"/>
	<rect x="375.7" y="196.2" class="st3" width="101" height="6.6"/>
</g>
</svg>
