<?xml version="1.0" encoding="utf-8"?>
<!-- Generator: Adobe Illustrator 26.0.1, SVG Export Plug-In . SVG Version: 6.00 Build 0)  -->
<svg version="1.1" id="Calque_9" xmlns="http://www.w3.org/2000/svg" xmlns:xlink="http://www.w3.org/1999/xlink" x="0px" y="0px"
	 viewBox="0 0 788 1005" style="enable-background:new 0 0 788 1005;" xml:space="preserve">
<style type="text/css">
	.st0{fill:#6F412A;}
	.st1{fill:#90573A;}
</style>
<path class="st0" d="M427.2,266.2l8.1-24.5c0,0,7.9-8.1,13.6-2.5c3.8,3.8-5.1,29-10,30C430.7,270.9,427.2,266.2,427.2,266.2z"/>
<path class="st0" d="M360.8,266.2l-8.1-24.5c0,0-7.9-8.1-13.6-2.5c-3.8,3.8,5.1,29,10,30C357.3,270.9,360.8,266.2,360.8,266.2z"/>
<path class="st1" d="M393.9,178c-23.9,0-43.3,11.2-43.3,45.6c0,46,27.5,79,43.3,79l0,0c15.8,0,43.3-33,43.3-79
	C437.2,189.2,417.9,178,393.9,178z"/>
<path class="st1" d="M393.9,180.8c-23.9,0-43.2,11.2-43.2,45.6c0,69.7,27.4,79,43.3,79l0,0c15.8,0,43.3-9,43.3-79
	C437.2,192,417.9,180.8,393.9,180.8z"/>
</svg>
