<svg id="Calque_9" data-name="Calque 9" xmlns="http://www.w3.org/2000/svg" viewBox="0 0 200 217.42"><defs><style>.cls-1{fill:#90573a;}.cls-2{fill:#6f412a;}.cls-3{fill:#1e1817;}.cls-4{fill:#c14227;}.cls-5{fill:#dbd1c1;}</style></defs><path class="cls-1" d="M99.94,74.75c23.91,0,43.28,11.19,43.28,45.61,0,46-27.44,79-43.28,79"/><path class="cls-2" d="M133.2,162.91l8.14-24.5s7.88-8.12,13.62-2.48c3.82,3.75-5.09,29-10,30C136.66,167.68,133.2,162.91,133.2,162.91Z"/><path class="cls-2" d="M66.8,162.91l-8.14-24.5s-7.88-8.12-13.62-2.48c-3.82,3.75,5.09,29,10,30C63.34,167.68,66.8,162.91,66.8,162.91Z"/><path class="cls-1" d="M99.94,74.75c-23.9,0-43.28,11.19-43.28,45.61,0,46,27.45,79,43.28,79"/><path class="cls-1" d="M74.87,71c-.35-.71,21.9-9.9,21.9-9.9l4.31-.71,1.57.58s8.82,2.36,9.32,4.72,2,14.83,2,14.83l-7.71,1.58L100,79.85s-8.08,0-9.68-.69S74.87,71,74.87,71Z"/><path class="cls-3" d="M99.83,78.43a13.63,13.63,0,0,1-1,1.47C90.2,91.11,60.6,99.07,57.66,111.75c-3.07,13.22,1.55,26.66,1.55,26.66s-5.59-3.79-6-3.92S29.39,84.19,74,64.07c20.06-9,25.79-3.2,25.79-3.2a1.64,1.64,0,0,0,.26.57C101.31,63.38,106.16,67.61,99.83,78.43Z"/><path class="cls-3" d="M145.91,135.87c-.38.14-5.52,3.93-5.52,3.93s4.24-13.45,1.42-26.67S109.59,91.85,103,79.9a14.34,14.34,0,0,0,.92-1.47c5.83-10.82,1.36-15.05.24-17,2.43-1.22,8.88-2.68,22.55,4C167.86,85.58,146.29,135.73,145.91,135.87Z"/><path class="cls-4" d="M49.1,123c1.72-.34,51.78-55.22,102.8-16.47,6,4.54,4-38.31-34.19-61.21C103.69,37,57.58,11,25.4,31.27c-12.7,8-18.5,52-8.37,65.17S26,64.07,35.41,74.75,41.12,124.62,49.1,123Z"/><rect class="cls-5" x="9.5" y="98.71" width="20.77" height="20.77" rx="10.39"/></svg>