<?xml version="1.0" encoding="utf-8"?>
<!-- Generator: Adobe Illustrator 26.0.2, SVG Export Plug-In . SVG Version: 6.00 Build 0)  -->
<svg version="1.1" id="Calque_1" xmlns="http://www.w3.org/2000/svg" xmlns:xlink="http://www.w3.org/1999/xlink" x="0px" y="0px"
	 viewBox="0 0 788 1005" style="enable-background:new 0 0 788 1005;" xml:space="preserve">
<style type="text/css">
	.st0{fill:#D38E72;}
	.st1{fill:#A45F5E;}
	.st2{fill:#4D313A;}
	.st3{fill:none;stroke:#000000;stroke-width:3;stroke-miterlimit:10;}
	.st4{fill:#473415;}
	.st5{fill:#29120E;}
	.st6{fill:#C78D71;}
	.st7{fill:#587CC6;}
	.st8{fill:#9CCBF2;}
	.st9{fill:#DCE8EF;}
	.st10{fill:#4D6FAA;}
</style>
<path d="M230.2,479.5h0.1H230.2z"/>
<polygon points="230.3,479.5 230.4,479.5 230.4,479.5 "/>
<path d="M230.2,479.5h0.1H230.2z"/>
<polygon points="230.3,479.5 230.4,479.5 230.4,479.5 "/>
<path class="st0" d="M369,151.3h53.6v2l0.1,7.1c0.1,10.7,6.2,20.4,15.8,25.1l40.5,20.1c1,0.5,2.1,1,3.2,1.3
	c6.7,2.4,33.9,13.5,33.5,36.9c-0.6,38.4-26.2,33.2-36.9,42.3c-12.6,10.8-8.3,50-17.2,64c-2.5,3.8-11.4,10.1-15.8,9.1
	c-12.5-2.9-24-30.7-34.8-37.7c-6.3-4.1-23.6-3.6-30.2,0c-11.2,6.2-22.3,34.9-34.8,37.7c-4.4,1-13.4-5.2-15.8-9.1
	c-8.9-14-4.6-53.2-17.2-64c-10.6-9.1-36.2-3.9-36.9-42.3c-0.4-26.6,35-37.3,35-37.3l40.1-19.9c9.6-4.7,16.1-14,17.4-24.6
	c0.2-1.3,0.2-2.7,0.2-4v-6.5L369,151.3"/>
<path class="st1" d="M422.4,151.3v2l-10.9,12.1c-9.4,10.4-24.9,12.6-36.8,5.2l-5.9-3.7l0.1-4.8l0.2-10.5v-0.3H422.4z"/>
<path class="st2" d="M437.3,352.3c16.1,5.2,23.2,9.6,27,16.6c3.1,5.6,6,18.5,6.3,24.9c0.5,15.1-7.8,53-21.9,65.6
	c-14.4,12.9-84.8,12.9-99.2,0c-14.1-12.6-22.5-50.5-21.9-65.6c0.2-6.4,3.2-19.3,6.3-24.9c3.8-6.9,10.9-11.4,27-16.6
	c18.5-6,37.3-5,37.3-5S418.8,346.3,437.3,352.3z"/>
<path class="st3" d="M333.7,254.6c-11.9,25-40.9,38.8-40.9,38.8s-52.9,32.8-70.4,44c-8.2,5.3-25.2,16.6-38.9-3.6l0,0
	c-11.3-16.6,2.8-30.4,10.2-36.2c15-11.8,47.9-32.6,60.5-46.7c9.4-10.5,19.8-30.3,43.1-36.2c0,0,18.6-6.9,31.8,8.3l0.5,0.6
	C337,232.1,338.6,244.3,333.7,254.6L333.7,254.6z"/>
<polygon class="st4" points="316.7,451.3 318.2,428.8 473.2,428.8 475.2,448.3 "/>
<circle class="st5" cx="478.5" cy="412.7" r="4.7"/>
<circle class="st5" cx="463.9" cy="422.1" r="4.7"/>
<path d="M230.3,479.9h0.1H230.3z"/>
<polygon points="230.4,479.9 230.5,479.9 230.5,479.9 "/>
<path d="M230.3,479.9h0.1H230.3z"/>
<polygon points="230.4,479.9 230.5,479.9 230.5,479.9 "/>
<path class="st3" d="M458.1,251c11.9,25,40.9,38.8,40.9,38.8s53,32.8,70.4,44c8.2,5.3,25.2,16.6,39-3.6l0,0
	c11.3-16.6-2.8-30.4-10.2-36.2c-15-11.8-47.9-32.6-60.5-46.7c-9.4-10.5-19.8-30.3-43.1-36.2c0,0-18.6-6.9-31.8,8.2l-0.5,0.6
	C454.9,228.4,453.2,240.7,458.1,251z"/>
<path class="st6" d="M594.3,296.1c-18.5-7.2-32.7,11.8-37.4,19c-4.7,7.2-10.7,23.9-13.6,32.1c-7.5,21-17.5,57.3-25.2,77.8
	c-5,13.5-8.1,20.4-0.3,25.9c7,5,16.1-5.8,19.7-9.9c14.8-17.2,44.3-50.4,56.8-70.9c5.1-8.4,14-26.4,16.1-36
	C616.3,307.2,599.8,298.2,594.3,296.1z"/>
<path class="st6" d="M197.5,300.1c18.6-7.2,32.7,11.8,37.4,19c4.7,7.2,10.7,23.9,13.6,32.1c7.6,21,17.5,57.3,25.2,77.8
	c5,13.5,8.1,20.4,0.3,25.9c-7,5-16.1-5.8-19.7-9.9c-14.9-17.2-44.3-50.4-56.8-70.9c-5.1-8.4-14-26.4-16.1-36
	C175.4,311.2,192.1,302.2,197.5,300.1z"/>
<path class="st3" d="M333.8,255c-11.9,25-40.9,38.8-40.9,38.8s-52.9,32.8-70.4,44c-8.2,5.3-25.2,16.6-38.9-3.6l0,0
	c-11.3-16.6,2.8-30.4,10.2-36.2c15-11.8,47.9-32.6,60.5-46.7c9.4-10.5,19.8-30.3,43.1-36.2c0,0,18.6-6.9,31.8,8.2l0.5,0.6
	C337.1,232.5,338.7,244.7,333.8,255L333.8,255z"/>
<path class="st7" d="M429.2,185.5c2.2-2.8,6-3.8,9.3-2.6c9.4,3.4,34.7,14,50.7,20.8c9.2,3.9,17.7,9.1,25.4,15.4
	c25.6,21,85.6,70.4,95,78.9c1.2,1.1,2,2.5,2.5,4.1c1.3,5,4.2,16.6,3.8,21.3c-0.8,11.1-10.2,30.6-15.7,41.8
	c-9.3,18.7-58.5-37.4-58.5-37.4c1.2-3.6-0.3-7.6-3.5-9.7l-42.3-26.7c-5.1-3.2-11.8-0.2-12.7,5.8l-8.1,51.5c-0.1,0.6-0.1,1.3-0.1,1.9
	L488.6,519c0.1,1.8-0.3,3.7-1.3,5.2l-2.2,3.3c-2.5,3.8-6.8,6.1-11.4,6.2l-48.4,11.9c-17.5,4.3-35.7,4.6-53.3,0.8l-56.1-11.9
	c-4.5,0-8.7-2.2-11.3-5.8l-2.7-3.8c-1-1.4-1.5-3.1-1.5-4.9L311,353.6c0-0.4,0-0.9-0.1-1.3l-7-47c-0.9-5.9-7.4-9-12.6-6
	c0,0-48.8,32.5-47.2,36.3c0,0-62.6,32.8-71.3,1c-1.5-5.7-0.1-20.9,0.7-27.5c0.2-2.1,1.2-4,2.8-5.3l65.2-57.3l37.5-30.7
	c9-7.4,19.3-13.2,30.2-17.2l42.6-15.6c3.5-1.2,7.4,0,9.6,3L429.2,185.5z"/>
<path class="st8" d="M521.5,449.2c2.5,2.9,4.3,8.5-0.8,15.1c0,0-14.5,22.6-21.6,27.8c-3.2,2.3-11.7,8-14.7,5.5
	c-8.5-7.2-16.1-26.6-15.6-39.9c0.1-4,8.1-9.3,11.9-10.6c4.1-1.5,13.2,0.7,17.6,0.2c2.4-0.3,4.7-0.8,7.1-1.4
	C511,444.4,518.1,445.3,521.5,449.2z"/>
<polygon class="st8" points="520.1,419.4 506.9,445.5 512,457.4 517.6,468.8 522.3,462 543.3,434.2 "/>
<path class="st8" d="M270.4,453.2c-2.5,2.9-4.3,8.5,0.8,15.1c0,0,14.5,22.6,21.6,27.8c3.2,2.3,11.7,8,14.7,5.5
	c8.5-7.2,16.1-26.6,15.6-39.9c-0.1-4-8.1-9.3-11.9-10.6c-4.1-1.5-13.2,0.7-17.5,0.2c-2.4-0.3-4.7-0.8-7.1-1.4
	C280.9,448.4,273.8,449.3,270.4,453.2z"/>
<polygon class="st8" points="273,427.2 285,449.5 279.8,461.4 274.2,472.8 269.5,466 251.9,442.3 "/>
<g>
	<ellipse class="st8" cx="322.5" cy="355" rx="7.6" ry="7.6"/>
	<circle class="st9" cx="322.6" cy="355.1" r="6.1"/>
	<g>
		<path class="st9" d="M322.8,355.1c0.5,8.9,0.9,17.9,1,26.8c0.3,6.7,0.7,13.3-0.6,20c-0.3,2.3-0.8,4.4-1.5,6.7h-0.5
			c-2.3-8.8-2-17.9-1-26.8c0.6-8.9,1.2-17.7,2.1-26.7H322.8L322.8,355.1z"/>
	</g>
	<g>
		<path class="st9" d="M342.7,347.4c0.5,8.9,0.9,17.9,1,26.8c0.3,6.7,0.7,13.3-0.6,20c-0.3,2.3-0.8,4.4-1.5,6.7h-0.5
			c-2.3-8.8-2-17.9-1-26.8c0.6-8.9,1.2-17.7,2.1-26.7H342.7L342.7,347.4z"/>
	</g>
	<polygon class="st10" points="303.6,394.8 300.1,448.6 349.7,457 360.4,450.4 363,392.3 303.2,383.7 	"/>
	<g>
		<path class="st9" d="M342.2,353.4c-0.1-3.4-0.3-7.9-0.3-10.7c-1.1-5.8,2.8-9.4,8.5-7.7c2.5,0.7,3.2,2.7,2.3,5
			c-0.3,0.8-0.6,1.5-0.8,2.3h-0.2c-0.6-1.4,0.2-3.4-0.5-4.5c-0.3-0.7-2.1-0.8-3.5-0.8c-3.4-0.3-4.5,2.5-4.3,5.4
			c-0.2,3.6-0.6,7.3-0.8,11C342.5,353.4,342.2,353.4,342.2,353.4L342.2,353.4z"/>
	</g>
</g>
<polygon class="st10" points="481.9,396.7 485.4,450.5 435.8,459.1 425.1,452.4 422.5,394.2 482.3,385.6 "/>
</svg>
