<?xml version="1.0" encoding="utf-8"?>
<!-- Generator: Adobe Illustrator 26.0.0, SVG Export Plug-In . SVG Version: 6.00 Build 0)  -->
<svg version="1.1" id="Calque_1" xmlns="http://www.w3.org/2000/svg" xmlns:xlink="http://www.w3.org/1999/xlink" x="0px" y="0px"
	 viewBox="0 0 788 455" style="enable-background:new 0 0 788 455;" xml:space="preserve">
<style type="text/css">
	.st0{fill:#C78D71;}
	.st1{fill:#A45F5E;}
	.st2{fill:#66463A;}
	.st3{fill:#3D2D28;}
</style>
<g id="Calque_5">
	<path class="st0" d="M378.8,313.7c10.8,7,22.3,34.9,34.8,37.7c4.4,1,13.4-5.2,15.8-9.1c8.9-14,4.6-53.2,17.2-64
		c10.7-9.1,36.3-3.9,36.9-42.3c0.4-23.4-26.9-34.5-33.5-36.9c-1.1-0.4-2.1-0.8-3.2-1.3l-40.5-20.1c-9.6-4.7-15.7-14.4-15.8-25.1
		l0.1-9l-27,2.1l-23.3-1.8l-1.6,5.7c0.1,12.1-8.7,23.8-19.5,29.2L279,198.7c0,0-35.4,10.7-35,37.3c0.6,38.4,26.2,33.2,36.9,42.3
		c12.6,10.8,8.3,50,17.2,64c2.5,3.8,11.4,10.1,15.8,9.1c12.5-2.9,23.5-31.6,34.8-37.7C355.3,310,372.5,309.6,378.8,313.7z"/>
	<path class="st1" d="M364.1,143.7l26.4-0.1l-0.1,10.6l1.3,6.3c0,0-19.4,41.4-49.7,34.3c-7.3-1.7-15.1-21.2-15.1-21.2
		s6.9-6,9.6-18.5s1.5-11.5,1.5-11.5L364.1,143.7z"/>
	<path class="st0" d="M424.5,219.7c21.8-17.1,53.9-16.5,53.9-16.5s62-5.8,82.6-8c9.7-1.1,30-3.6,33.3,20.6l0,0
		c2.8,19.9-16,25.9-25.2,27.9c-18.7,3.9-57.4,7.9-75,14.9c-13.1,5.2-31.2,18.4-54.7,13.2c0,0-19.7-2.1-24.8-21.5l-0.2-0.8
		C411.5,238.5,415.5,226.8,424.5,219.7L424.5,219.7z"/>
	<path class="st0" d="M572,239.8c-19.7,2.6-29-19.2-31.9-27.3s-4.7-25.8-5.7-34.4c-2.4-22.2-3.5-59.8-6.2-81.5
		c-1.7-14.3-3-21.8,5.8-25.3c8-3.2,14.3,9.4,16.8,14.3c10.4,20.2,31.2,59.4,38.5,82.3c3,9.4,7.4,28.9,7.2,38.8
		C596,234.3,577.7,239.1,572,239.8z"/>
	<path class="st0" d="M305.1,225.3c5.3,27.2-9.8,55.5-9.8,55.5s-18.7,57.1-26,76.5c-3.5,9.1-14.7,29.1-37.8,21l0,0
		c-19-6.6-15.8-26.1-13.4-35.1c5-18.4,19-54.8,20.7-73.6c1.3-14-2.2-36.1,13.1-54.8c0,0,10.8-16.6,30.4-12.3l0.8,0.2
		C294.3,205.2,302.9,214.1,305.1,225.3L305.1,225.3z"/>
	<path class="st0" d="M528,73l6.5-19.6l16-23.5c0,0,4.1,3.9,4.3,5.6c0.6,5.5-3.5,13.4-5.8,18.4c-0.3,0.7,0.1,4,0.7,4.5
		c2.3,2,7.5-1.7,7.5-1.7l-12.5,16.4L528,73z"/>
	<path class="st0" d="M533.7,69.6l14.5,15.6l35.8-28l24.7-41.3c0,0-6.3-2.2-8.4-1.5c-10.6,3.4-22.8,24.1-30.9,31.7
		C560.6,54.2,533.7,69.6,533.7,69.6z"/>
	
		<ellipse transform="matrix(0.4261 -0.9047 0.9047 0.4261 240.2124 532.1778)" class="st0" cx="539.6" cy="76.8" rx="12.1" ry="12.2"/>
	<path class="st2" d="M288.9,459.6c-1.4-2.3-5.7-24.1-5.7-24.1s0.3-17.8,5.7-31.5s38.8-28.3,83.3-25.4s67.9,17,70.6,28.9
		c3.2,13.6-2.5,18.3-13.9,25.1C408.3,444.9,291.7,471.1,288.9,459.6"/>
	<path class="st2" d="M270.5,196.7c0,0,20.2,22.4,21.1,41.1s-4.5,48-4.5,48s-1.5,115.5-0.9,120.4c0.7,5.5-5.8,19-2.4,32
		s71.6,3.5,89.2-1.5s76.4-15.9,69.8-29.4c-1.3-2.6-15.3-56.3-10.2-67.4s11.6-65,11.6-65c1.8-1.9,13.1-69-4.7-85.7l-32.5-16.8
		c-2.5,13.9-14.1,24.4-28.2,25.3c-17.7,1.2-36.3,3.4-46.7,4.7c-8.9,1.1-29.1-20.4-29.1-20.4L270.5,196.7z"/>
	<path class="st0" d="M215.5,372.5c-8.8-17.9,8.9-33.6,15.6-38.9s22.8-12.7,30.8-16.4c20.3-9.4,55.6-22.5,75.3-32
		c13-6.2,19.6-9.9,25.8-2.6c5.6,6.6-4.3,16.6-8.1,20.5c-15.8,16.3-46.3,48.6-65.6,62.9c-7.9,5.9-25,16.3-34.5,19.2
		C228.5,393.5,218.1,377.7,215.5,372.5z"/>
	<path class="st0" d="M356.5,303.3L373,291l17.3-22.5c0,0-5-2.7-6.7-2.3c-5.4,1.2-11.6,7.5-15.6,11.2c-0.5,0.5-3.9,1.2-4.5,0.8
		c-2.6-1.5-0.8-7.7-0.8-7.7L351,287.4L356.5,303.3z"/>
	<path class="st0" d="M358,296.8l-19.3-8.8l15.4-42.7l31.5-36.4c0,0,4,5.4,4.1,7.5c0.1,11.1-13.8,30.4-20.5,39.3
		C361.6,265.7,356.7,296.5,358,296.8z"/>
	
		<ellipse transform="matrix(0.7266 -0.6871 0.6871 0.7266 -106.1363 320.2504)" class="st0" cx="349.3" cy="293.5" rx="12.1" ry="12.1"/>
	<path class="st3" d="M270.5,196.7c0,0-2.9,6.4-2.5,6.3s6.1-2,6.1-2L270.5,196.7z"/>
	<path class="st3" d="M407,172.6c0,0-3.5,3.6-3.2,3.8c1.4,0.8,1.7,1.6,1.9,1.1C407.3,173.4,407,172.6,407,172.6z"/>
</g>
</svg>
