<?xml version="1.0" encoding="utf-8"?>
<!-- Generator: Adobe Illustrator 26.0.2, SVG Export Plug-In . SVG Version: 6.00 Build 0)  -->
<svg version="1.1" id="Layer_1" xmlns="http://www.w3.org/2000/svg" xmlns:xlink="http://www.w3.org/1999/xlink" x="0px" y="0px"
	 viewBox="0 0 788 1005.1" style="enable-background:new 0 0 788 1005.1;" xml:space="preserve">
<style type="text/css">
	.st0{fill:#DDB6A8;}
	.st1{fill:#3D332F;}
	.st2{fill:#B53535;}
	.st3{fill:#993131;}
</style>
<g id="Calque_3">
	<path class="st0" d="M418.8,144.1c0,0,12.4,7.2,14.9-4.4l-0.2-0.9l-12.2-0.4l-3.9,4.9L418.8,144.1z"/>
	<path class="st1" d="M437.5,137.8c-1.5,2.4-2.9,2.9-3.9,2.8c-0.7-0.1-1.4-0.5-1.8-1.1c0,0-2.2-2.9-5.3-2.5c-1.5,0.3-2.8,1-3.9,2
		c-2.2,1.8-4.2,3.9-6,6.1c2-4,4.1-6.4,6.3-7.8c2.9-1.8,6-1.6,9.3-0.3c0.4,0.2,0.8,0.3,1.2,0.4C434.8,137.8,436.2,137.9,437.5,137.8z
		"/>
	<path class="st1" d="M398,133.5c0.4-0.4,1.9-0.7,0.6-2.5c-1.2-1.4-2.8-2.4-4.6-2.8c-3.8-0.8-7.8-0.8-11.6,0c-3.1,0.8-7.7,5-7.7,5
		s6.1-2.2,8.4-2.4c2.7-0.1,5.5,0.2,8.2,0.7C393,131.9,398,133.5,398,133.5z"/>
	<path class="st1" d="M415.6,133.4c-0.4-0.4-1.9-0.7-0.6-2.5c1.2-1.4,2.8-2.3,4.6-2.8c3.8-0.7,7.8-0.7,11.6,0c3.1,0.8,7.7,5,7.7,5
		s-6.1-2.2-8.4-2.4c-2.7-0.1-5.5,0.2-8.2,0.7C420.6,131.8,415.6,133.4,415.6,133.4z"/>
	<path class="st0" d="M395.4,144.2c0,0-12.4,7.2-14.9-4.4l0.2-0.9l6.7-2.9l7.9,4.5l1.5,2.9L395.4,144.2z"/>
	<path class="st2" d="M413.6,177.3c-0.2-0.7-1.9-6.5-4.2-7.2c-0.9-0.4-1.9-0.2-2.6,0.6l0.4,7.4L413.6,177.3z"/>
	<path class="st3" d="M407,184.4l-0.5-6.2l7.1-0.9c0,0,0,5.9-3.1,6.8S407,184.4,407,184.4z"/>
	<path class="st1" d="M398.1,145.2c0,0-0.7-1-1.9-2.2c-2.1-2.3-3.7-3.9-6.4-4.2c-0.4-0.1-0.9-0.2-1.3-0.3c-2.9,0-4.4,0.2-5.7,1.1
		s-2.5,3.3-5.8-1.7c1.8,0.1,3.7-0.1,5.4-0.7c1.5-0.6,3.2-1,4.9-1c3.3,0.1,6.4,1.8,9.2,6.4C397.1,143.3,397.6,144.2,398.1,145.2z"/>
	<path class="st1" d="M433.4,137.5c-0.4-0.1-0.8-0.2-1.2-0.4c-3.3-1.3-6.4-1.5-9.3,0.3"/>
	<path class="st1" d="M433.7,139.4c0,0.4,0,0.9-0.1,1.3c-0.7,3-3.7,4.9-6.8,4.2c-2.5-0.6-4.3-2.9-4.3-5.5c0-0.1,0-0.2,0-0.3
		c0-0.6,0.1-1.1,0.3-1.6c2.9-1.8,6-1.6,9.3-0.3c0.4,0.2,0.8,0.3,1.2,0.4C433.6,138.1,433.7,138.7,433.7,139.4z"/>
	<path class="st1" d="M396.6,142.5c-0.1,0.2-0.2,0.3-0.4,0.5c-1.2,1.3-3,2.1-4.8,2.1c-3.4,0-6.2-2.5-6.2-5.6c0-0.8,0.2-1.5,0.5-2.2
		c0.2-0.4,0.4-0.7,0.7-1.1C390,136.1,393.4,137.9,396.6,142.5z"/>
	<path class="st2" d="M400.1,177.4c0.2-0.7,1.9-6.6,4.2-7.3c0.9-0.4,1.9-0.2,2.6,0.6l-0.4,7.4L400.1,177.4z"/>
	<path class="st3" d="M407.7,184.3l-0.5-6.2l-7.1-0.6c0,0,0,5.9,3.1,6.8S407.7,184.3,407.7,184.3z"/>
	<path class="st1" d="M411.3,177.6c0,3.1-2.6,5.4-4.5,5.4s-4.4-2.2-4.4-5.3s2.5-5.9,4.4-5.9S411.3,174.5,411.3,177.6z"/>
</g>
</svg>
