<?xml version="1.0" encoding="utf-8"?>
<!-- Generator: Adobe Illustrator 26.0.2, SVG Export Plug-In . SVG Version: 6.00 Build 0)  -->
<svg version="1.1" id="Layer_1" xmlns="http://www.w3.org/2000/svg" xmlns:xlink="http://www.w3.org/1999/xlink" x="0px" y="0px"
	 viewBox="0 0 788 1005.1" style="enable-background:new 0 0 788 1005.1;" xml:space="preserve">
<style type="text/css">
	.st0{fill:#3D332F;}
	.st1{fill:#B53535;}
	.st2{fill:#993131;}
</style>
<g id="Calque_3">
	<path class="st0" d="M416.5,145.2c0,0,5.8-6.8,9.9-7.2c1.9-0.2,3.9,0.4,5.4,1.6c0,0,2.5,3.3,5.8-1.8c-1.8,0.1-3.7-0.1-5.4-0.7
		C426.4,134.8,421.2,135.9,416.5,145.2z"/>
	<path class="st0" d="M398.1,130.4c0.4-0.4,1.9-0.8,0.6-2.6c-1.2-1.4-2.8-2.5-4.6-2.9c-2.7-0.8-8.9-0.8-11.6,0
		c-3.1,0.8-7.7,5.2-7.7,5.2s6.1-2.3,8.4-2.5c2.8-0.1,5.5,0.2,8.2,0.8C393,128.7,398.1,130.4,398.1,130.4z"/>
	<path class="st0" d="M415.6,130.3c-0.4-0.4-1.9-0.8-0.6-2.6c1.2-1.4,2.8-2.4,4.6-2.9c2.7-0.8,8.9-0.8,11.6,0
		c3.1,0.8,7.7,5.1,7.7,5.1s-6.1-2.2-8.4-2.5c-2.7-0.1-5.5,0.2-8.2,0.8C420.7,128.7,415.6,130.3,415.6,130.3z"/>
	<path class="st1" d="M425.6,170.7c0,0-15.6,6.5-18.9,6.5s-18.6-6.5-18.6-6.5c4.9,1.5,13-0.9,15.2-0.2c1.4,0.3,2.6,1.1,3.4,2.3
		c0.9-1.1,2.2-1.9,3.6-2.3C412.9,169.8,420.6,172.3,425.6,170.7z"/>
	<path class="st2" d="M421.4,172.3c0,0-6.6,8.6-9.9,9.3c-3.1,0.8-6.4,0.8-9.5,0c-3.3-0.7-9.7-9.2-9.7-9.2s11.2,4.5,14.5,4.5
		S421.4,172.3,421.4,172.3z"/>
	<path class="st0" d="M398.1,145.2c0,0-5.9-6.7-9.9-7.1c-1.9-0.2-3.8,0.4-5.3,1.5c0,0-2.5,3.3-5.8-1.8c1.8,0.1,3.7-0.1,5.4-0.7
		C388.2,134.8,393.4,135.9,398.1,145.2z"/>
</g>
</svg>
