<?xml version="1.0" encoding="utf-8"?>
<!-- Generator: Adobe Illustrator 26.0.2, SVG Export Plug-In . SVG Version: 6.00 Build 0)  -->
<svg version="1.1" id="Calque_1" xmlns="http://www.w3.org/2000/svg" xmlns:xlink="http://www.w3.org/1999/xlink" x="0px" y="0px"
	 viewBox="0 0 788 1005.1" style="enable-background:new 0 0 788 1005.1;" xml:space="preserve">
<style type="text/css">
	.st0{fill:#F7E4EC;}
	.st1{fill:#3D332F;}
	.st2{fill:#310800;}
	.st3{fill:#993131;}
	.st4{fill:#EBB4C9;}
	.st5{fill:#B53535;}
</style>
<path class="st0" d="M418.8,144.1c0,0,12.4,7.2,14.9-4.4l-0.2-0.9l-12.2-0.4l-3.9,4.9L418.8,144.1z"/>
<path class="st1" d="M421.4,142c0.7,3.9,9.2,6.2,10.3-2.5l-2.2-2.9l-4.5,0.4l-3.9,1.8C421.2,138.9,420.8,139,421.4,142z"/>
<circle class="st1" cx="426" cy="139.6" r="2.8"/>
<path class="st1" d="M416.5,145.2c0,0,5.9-7.6,9.9-8.1c3.1-0.4,5.3,2.5,5.3,2.5s2.5,3.3,5.8-1.8c-1.8,0.1-3.7-0.1-5.4-0.7
	C426.4,134.8,421.2,135.9,416.5,145.2z"/>
<path class="st1" d="M398,133.5c0.4-0.3,1.9-0.7,0.6-2.4c-1.2-1.3-2.8-2.3-4.6-2.7c-3.8-0.7-7.8-0.7-11.6,0
	c-3.1,0.8-7.7,4.9-7.7,4.9s6.1-2.1,8.4-2.3c2.7-0.1,5.5,0.2,8.2,0.7C393,131.9,398,133.5,398,133.5z"/>
<path class="st2" d="M394.3,172.8c0,0,10.7-2.1,10.8-2.2s3.9,0,3.9,0l10.3,2.3l-9.7,10.4h-5L394.3,172.8z"/>
<path class="st1" d="M415.6,133.4c-0.4-0.3-1.9-0.7-0.6-2.4c1.2-1.3,2.8-2.3,4.6-2.7c3.9-0.7,7.8-0.7,11.6,0
	c3.1,0.8,7.7,4.8,7.7,4.8s-6.1-2.1-8.4-2.3c-2.7-0.1-5.5,0.2-8.2,0.7C420.6,131.8,415.6,133.4,415.6,133.4z"/>
<path class="st0" d="M395.4,144.2c0,0-12.4,7.2-14.9-4.4l0.2-0.9l12.2-0.4l3.9,5L395.4,144.2z"/>
<circle class="st1" cx="388.2" cy="139.6" r="2.8"/>
<path class="st3" d="M417.8,173.4l3.4-1c0,0-6.8,11.9-9.9,12.8c-2.9,1-6,1-8.9,0c-3.1-0.9-9.4-12.8-9.4-12.8l2.9,1c0,0,7.3,8,10.9,8
	S417.8,173.4,417.8,173.4z"/>
<path class="st1" d="M392.6,141.7c-0.7,3.9-9.2,6.2-10.4-2.5l2.2-2.9l4.5,0.4l3.9,1.8C392.9,138.6,393.2,138.6,392.6,141.7z"/>
<path class="st1" d="M398.1,145.2c0,0-5.9-7.6-9.9-8.1c-3.1-0.4-5.3,2.5-5.3,2.5s-2.5,3.3-5.8-1.8c1.8,0.1,3.7-0.1,5.4-0.7
	C388.2,134.8,393.4,135.9,398.1,145.2z"/>
<path class="st4" d="M397.1,172.4l0.7,1.4c0.4,0.8,1.1,1.3,2,1.4c0,0,5.4,0.4,7.1,0.4s6.9-0.4,6.9-0.4c0.9-0.1,1.6-0.6,2-1.4
	l0.4-0.9L397.1,172.4z"/>
<path class="st5" d="M421.2,172.4l-3.4,1c0,0-8.2-0.8-11-0.8s-10.9,0.8-10.9,0.8l-2.9-1c0.4-0.6,8.2-5,10.5-4.3
	c1.1,0.3,2.1,0.7,3.2,1.1c0,0,1-0.4,3.4-1.1S420.7,171.8,421.2,172.4z"/>
</svg>
