<svg xmlns="http://www.w3.org/2000/svg" xmlns:xlink="http://www.w3.org/1999/xlink" viewBox="0 0 100 100"><defs><style>.cls-1,.cls-3{fill:none;}.cls-2{clip-path:url(#clip-path);}.cls-3{stroke:#000;stroke-linecap:round;stroke-miterlimit:10;stroke-width:2px;}.cls-4{clip-path:url(#clip-path-2);}.cls-5{clip-path:url(#clip-path-3);}.cls-6{clip-path:url(#clip-path-4);}.cls-7{fill:#7e5342;}</style><clipPath id="clip-path"><rect class="cls-1" x="59.19" y="33.44" width="18.47" height="6.31"/></clipPath><clipPath id="clip-path-2"><rect class="cls-1" x="21.22" y="33.44" width="18.47" height="6.31"/></clipPath><clipPath id="clip-path-3"><rect class="cls-1" x="19.44" y="21.93" width="22.15" height="6.06"/></clipPath><clipPath id="clip-path-4"><rect class="cls-1" x="58.41" y="21.93" width="22.15" height="6.06"/></clipPath></defs><g id="Calque_3" data-name="Calque 3"><g class="cls-2"><path class="cls-3" d="M60.19,38.76a10.24,10.24,0,0,1,8.23-4.32,10.65,10.65,0,0,1,8.23,4.32"/></g><g class="cls-4"><path class="cls-3" d="M38.69,38.76a10.24,10.24,0,0,0-8.24-4.32,10.65,10.65,0,0,0-8.23,4.32"/></g><g class="cls-5"><path class="cls-3" d="M40.59,23.84S34.23,22,28.49,23.6a38.08,38.08,0,0,0-8,3.39"/></g><g class="cls-6"><path class="cls-3" d="M59.41,23.84s6.36-1.87,12.1-.24a38.08,38.08,0,0,1,8,3.39"/></g><path class="cls-7" d="M56.84,60.68s-4.7,3.69-7.43,3.69c-2.58,0-7-3.59-7-3.59s5.4.73,7.21.72S56.84,60.68,56.84,60.68Z"/><path class="cls-3" d="M36.17,72.53a18.68,18.68,0,0,0,13.62,5.53,19,19,0,0,0,13.29-6.49"/></g></svg>