<svg xmlns="http://www.w3.org/2000/svg" xmlns:xlink="http://www.w3.org/1999/xlink" viewBox="0 0 100 100"><defs><style>.cls-1,.cls-4{fill:none;}.cls-2{fill:#fff;}.cls-3{clip-path:url(#clip-path);}.cls-4{stroke:#000;stroke-linecap:round;stroke-miterlimit:10;stroke-width:2px;}.cls-5{clip-path:url(#clip-path-2);}.cls-6{fill:#7e5342;}.cls-7{fill:#231e1e;}.cls-8{fill:#bcbcbc;}</style><clipPath id="clip-path"><rect class="cls-1" x="18.41" y="24.3" width="23.15" height="6.96"/></clipPath><clipPath id="clip-path-2"><rect class="cls-1" x="58.44" y="24.3" width="23.15" height="6.96"/></clipPath></defs><g id="Calque_3" data-name="Calque 3"><path d="M35.24,43.05,20.51,40.54,29.37,39a5.06,5.06,0,0,1,5.87,4.09Z"/><path d="M65.17,43.05,79.9,40.54,71,39a5.06,5.06,0,0,0-5.87,4.09Z"/><circle class="cls-2" cx="31.46" cy="43.88" r="6.75"/><circle class="cls-2" cx="67.69" cy="43.88" r="6.75"/><circle cx="29.25" cy="42.17" r="3.29"/><circle cx="65.59" cy="42.17" r="3.29"/><g class="cls-3"><path class="cls-4" d="M40.56,30.26c-2.88-2.32-8.24-5.86-14.35-4.75-5.33,1-6.8,4.64-6.8,4.64"/></g><g class="cls-5"><path class="cls-4" d="M59.44,30.26c2.88-2.32,8.24-5.86,14.35-4.75,5.33,1,6.8,4.64,6.8,4.64"/></g><path class="cls-6" d="M56.81,64.35S52.11,68,49.38,68s-7-3.6-7-3.6,5.4.73,7.21.72S56.81,64.35,56.81,64.35Z"/><path class="cls-7" d="M33.81,78.77c.29-.63,1.42-1.63,3.5-2.54a29.49,29.49,0,0,1,10.56-2.1,22.78,22.78,0,0,1,15.86,6.06S59.14,91.94,47.92,91.07C39.78,90.45,33.81,78.77,33.81,78.77Z"/><path class="cls-8" d="M48.27,79.15,40,78.78l-2.2-.91a28.13,28.13,0,0,1,11.43-2c6.7.36,10.32,2.92,10.32,2.92l-1.71.8Z"/></g></svg>