<?xml version="1.0" encoding="utf-8"?>
<!-- Generator: Adobe Illustrator 26.0.2, SVG Export Plug-In . SVG Version: 6.00 Build 0)  -->
<svg version="1.1" id="Calque_1" xmlns="http://www.w3.org/2000/svg" xmlns:xlink="http://www.w3.org/1999/xlink" x="0px" y="0px"
	 viewBox="0 0 788 1005.1" style="enable-background:new 0 0 788 1005.1;" xml:space="preserve">
<style type="text/css">
	.st0{fill:#F7E4EC;}
	.st1{fill:#3D332F;}
	.st2{fill:#211616;}
	.st3{fill:#B53535;}
	.st4{fill:#993131;}
</style>
<path class="st0" d="M418.8,144.1c0,0,12.4,7.2,14.9-4.4l-0.2-0.9l-6.6-2.4l-5.7,2.1l-3.9,4.9L418.8,144.1z"/>
<circle class="st1" cx="426.2" cy="140.8" r="3.7"/>
<path class="st1" d="M416.5,145.2c0,0,5.8-6.8,9.9-7.2c1.9-0.2,3.9,0.4,5.4,1.6c0,0,2.5,3.3,5.8-1.8c-1.8,0.1-3.7-0.1-5.4-0.7
	C426.4,134.8,421.2,135.9,416.5,145.2z"/>
<polygon class="st2" points="395.8,177.8 392.3,174.2 398.6,174.4 406.8,176 414.3,174.5 421.4,174.1 414.3,180.4 406.8,182.9 
	399.1,180.6 "/>
<path class="st0" d="M395.8,175.5l0.4,0.9c0.3,0.6,0.8,2.4,1.5,2.6l7.2,2.9c1.1,0.5,2.3,0.5,3.5,0.2l7.2-2.8
	c0.9-0.3,1.2-2.5,1.4-3.4v-0.1l-10.2,0.2L395.8,175.5z"/>
<path class="st1" d="M398.1,130.4c0.4-0.4,1.9-0.8,0.6-2.6c-1.2-1.4-2.8-2.5-4.6-2.9c-2.7-0.8-8.9-0.8-11.6,0
	c-3.1,0.8-7.7,5.2-7.7,5.2s6.1-2.3,8.4-2.5c2.8-0.1,5.5,0.2,8.2,0.8C393,128.7,398.1,130.4,398.1,130.4z"/>
<path class="st1" d="M415.6,130.3c-0.4-0.4-1.9-0.8-0.6-2.6c1.2-1.4,2.8-2.4,4.6-2.9c2.7-0.8,8.9-0.8,11.6,0
	c3.1,0.8,7.7,5.1,7.7,5.1s-6.1-2.2-8.4-2.5c-2.7-0.1-5.5,0.2-8.2,0.8C420.7,128.7,415.6,130.3,415.6,130.3z"/>
<path class="st0" d="M395.4,144.2c0,0-12.4,7.2-14.9-4.4l0.2-0.9l6.7-2.6l5.5,2.2l3.9,5L395.4,144.2z"/>
<circle class="st1" cx="387.1" cy="140.8" r="3.7"/>
<path class="st3" d="M422.5,173.6c0,0-12.5,5.4-15.8,5.4s-15.6-5.2-15.6-5.2c3.9,0.6,10.2-1.2,12.3-0.5c1.1,0.2,2.2,0.7,3.2,1.3
	c1.2-0.5,2.5-1,3.8-1.3C413,172.5,419.2,174.2,422.5,173.6z"/>
<path class="st4" d="M421.4,174.1c0,0-6.6,7.6-9.9,8.3c-3.1,0.8-6.4,0.8-9.5,0c-3.3-0.7-9.7-8.1-9.7-8.1s11.2,4.5,14.5,4.5
	S421.4,174.1,421.4,174.1z"/>
<path class="st1" d="M398.1,145.2c0,0-5.9-6.7-9.9-7.1c-1.9-0.2-3.8,0.4-5.3,1.5c0,0-2.5,3.3-5.8-1.8c1.8,0.1,3.7-0.1,5.4-0.7
	C388.2,134.8,393.4,135.9,398.1,145.2z"/>
</svg>
