<?xml version="1.0" encoding="utf-8"?>
<!-- Generator: Adobe Illustrator 26.0.3, SVG Export Plug-In . SVG Version: 6.00 Build 0)  -->
<svg version="1.1" id="Layer_1" xmlns="http://www.w3.org/2000/svg" xmlns:xlink="http://www.w3.org/1999/xlink" x="0px" y="0px"
	 viewBox="0 0 788 1005" style="enable-background:new 0 0 788 1005;" xml:space="preserve">
<style type="text/css">
	.st0{clip-path:url(#SVGID_00000133504335393036837840000014982024763542378928_);}
	.st1{fill:none;stroke:#423522;stroke-width:2;stroke-linecap:round;stroke-miterlimit:10;}
	.st2{clip-path:url(#SVGID_00000137122372672029676200000000718647469755446154_);}
	.st3{fill:#844F3D;}
	.st4{fill:none;stroke:#844F3D;stroke-width:2;stroke-miterlimit:10;}
	.st5{fill:#7F6041;}
</style>
<g id="Calque_6">
	<g>
		<defs>
			<rect id="SVGID_1_" x="403.8" y="181.5" width="18.5" height="6.3"/>
		</defs>
		<clipPath id="SVGID_00000154408394060794649890000002259529756957835450_">
			<use xlink:href="#SVGID_1_"  style="overflow:visible;"/>
		</clipPath>
		<g style="clip-path:url(#SVGID_00000154408394060794649890000002259529756957835450_);">
			<path class="st1" d="M404.8,186.8c1.9-2.7,5-4.3,8.2-4.3c3.3,0.1,6.3,1.7,8.2,4.3"/>
		</g>
	</g>
	<g>
		<defs>
			<rect id="SVGID_00000098938571516201083950000006943882886255396012_" x="365.9" y="181.5" width="18.5" height="6.3"/>
		</defs>
		<clipPath id="SVGID_00000121991989626328940710000007428205573413912759_">
			<use xlink:href="#SVGID_00000098938571516201083950000006943882886255396012_"  style="overflow:visible;"/>
		</clipPath>
		<g style="clip-path:url(#SVGID_00000121991989626328940710000007428205573413912759_);">
			<path class="st1" d="M383.3,186.8c-1.9-2.7-5-4.3-8.2-4.3c-3.3,0.1-6.3,1.7-8.2,4.3"/>
		</g>
	</g>
	<path class="st3" d="M401.5,208.7c0,0-4.7,3.7-7.4,3.7c-2.6,0-7-3.6-7-3.6s5.4,0.7,7.2,0.7S401.5,208.7,401.5,208.7z"/>
	<path class="st4" d="M384.7,220.1c2.9,1.8,6.3,2.8,9.7,2.6c3.4,0,6.7-1.1,9.4-3.1"/>
	<path class="st5" d="M375.7,216.1c1.6-2.2,4.4-3.1,7-2.2c2.9,0.8,2.9,3.1,11.2,3.7h0.2h0.2c8.4-0.6,8.4-3,11.2-3.7
		c2.6-0.8,5.4,0.1,7,2.2c3.2,5.2,0,0-6.1,3.9c-4.1,2.6-10.2,3.8-12.4,2.9l0,0c-2.2,0.9-8.2-0.3-12.4-2.9
		C375.7,216.1,372.5,221.3,375.7,216.1z"/>
	<path class="st5" d="M405.7,169.4c-3,0.8-1.4,5.8,0.7,4.8c2.7-1.2,5.7-1.7,8.6-1.3c3.9,0.4,7.9,3.1,8.6,3.6s2.3,0.2,1.2-1.5
		C421.5,170.1,415,166.9,405.7,169.4z"/>
	<path class="st5" d="M383.5,169.4c3,0.8,1.4,5.8-0.7,4.8c-2.7-1.2-5.7-1.6-8.6-1.2c-3.9,0.4-7.9,3.1-8.6,3.6s-2.3,0.2-1.2-1.5
		C367.6,170.1,374.1,166.9,383.5,169.4z"/>
</g>
</svg>
