<?xml version="1.0" encoding="utf-8"?>
<!-- Generator: Adobe Illustrator 26.0.3, SVG Export Plug-In . SVG Version: 6.00 Build 0)  -->
<svg version="1.1" id="Layer_1" xmlns="http://www.w3.org/2000/svg" xmlns:xlink="http://www.w3.org/1999/xlink" x="0px" y="0px"
	 viewBox="0 0 788 1005" style="enable-background:new 0 0 788 1005;" xml:space="preserve">
<style type="text/css">
	.st0{fill:none;stroke:#844F3D;stroke-width:2;stroke-miterlimit:10;}
	.st1{fill:#844F3D;}
	.st2{fill:#7F6041;}
	.st3{clip-path:url(#SVGID_00000068676788707731453310000005643960001809136802_);}
	.st4{fill:none;stroke:#9E5B3E;stroke-width:2;stroke-linecap:round;stroke-miterlimit:10;}
	.st5{clip-path:url(#SVGID_00000123435801696994990460000010394937041630757258_);}
	.st6{fill:#FFFFFF;}
	.st7{fill:#423522;}
</style>
<path class="st0" d="M384.2,222.3c3.2,0.8,6.5,1.1,9.7,1.1c3.2,0,6.4-0.4,9.5-1.3"/>
<path class="st1" d="M401.8,208.6c0,0-4.7,3.7-7.4,3.7s-7-3.6-7-3.6s5.4,0.7,7.2,0.7S401.8,208.6,401.8,208.6z"/>
<path class="st2" d="M412.4,221.6c-1.6,2.2-4.4,3.1-7,2.2c-2.9-0.8-2.9-3.1-11.2-3.7h-0.2h-0.2c-8.4,0.6-8.4,3-11.2,3.7
	c-2.6,0.8-5.4-0.1-7-2.2c-3.2-5.2,0,0,6.1-3.9c4.1-2.6,10.2-3.8,12.4-2.9l0,0c2.2-0.9,8.2,0.3,12.4,2.9
	C412.4,221.6,415.6,216.4,412.4,221.6z"/>
<g>
	<path class="st2" d="M404.9,171c-3,0.8-1.4,5.8,0.7,4.8c2.7-1.2,5.7-1.6,8.6-1.2c3.9,0.3,7.9,3.1,8.6,3.6s2.3,0.2,1.2-1.5
		C420.8,171.7,414.3,168.5,404.9,171z"/>
	<path class="st2" d="M382.7,171c3,0.8,1.4,5.8-0.7,4.8c-2.7-1.2-5.7-1.6-8.6-1.2c-3.9,0.3-7.9,3.1-8.6,3.6s-2.3,0.2-1.2-1.5
		C366.8,171.7,373.3,168.5,382.7,171z"/>
</g>
<g id="random">
	<g>
		<defs>
			<rect id="SVGID_1_" x="402.9" y="194.7" width="18.5" height="6"/>
		</defs>
		<clipPath id="SVGID_00000108295578042709952020000000981608805156670091_">
			<use xlink:href="#SVGID_1_"  style="overflow:visible;"/>
		</clipPath>
		<g style="clip-path:url(#SVGID_00000108295578042709952020000000981608805156670091_);">
			<path class="st4" d="M403.9,197.8c0,0,4.8,2.1,8.5,1.8c3.1-0.4,5.9-1.8,8-4"/>
		</g>
	</g>
</g>
<g id="random2">
	<g>
		<defs>
			<rect id="SVGID_00000042013364158891962960000007156659280355526030_" x="366.4" y="194.7" width="18.5" height="6"/>
		</defs>
		<clipPath id="SVGID_00000053530172597104564360000002917573605574161026_">
			<use xlink:href="#SVGID_00000042013364158891962960000007156659280355526030_"  style="overflow:visible;"/>
		</clipPath>
		<g style="clip-path:url(#SVGID_00000053530172597104564360000002917573605574161026_);">
			<path class="st4" d="M383.9,197.8c0,0-4.8,2.1-8.5,1.8c-3.1-0.3-5.9-1.8-8-4"/>
		</g>
	</g>
</g>
<g>
	<g>
		<path class="st6" d="M383.4,190.2c0,0-6.3,2.2-12.5,0.8c-6.2-1.4-6.4-2.4-6.4-2.4l5-3.6l3.4-0.8l6,0.5l1.5,1.1l2,2.1L383.4,190.2z
			"/>
		<path class="st7" d="M379.3,185.3c2.1,1.2,3.2,3.1,4.1,5c0.1-0.1,0.2-0.1,0.2-0.2c0-0.3,0-0.6-0.1-0.8c-1.3-2.3-2.8-4.6-5.6-5.3
			c-3.8-0.9-7.5-0.5-10.8,1.9c-1.1,0.8-2.1,1.6-3.2,2.5c1.6,1.5,7,3.2,7.6,2.4c-0.4-0.1-0.7-0.1-1-0.2c-0.8-0.3-1.7-0.6-2.5-1
			c-0.4-0.2-0.2-0.5,0.2-0.5c0.1,0,0.2,0,0.5,0c-1-0.9-1-1.1,0-2.1c0.7-0.7,1.4-1.3,2.1-1.8c0.3-0.2,0.7-0.2,1.1-0.3
			c0,0.4,0.1,0.8,0.1,1.1c-0.2,1.6,0.1,3.1,1.2,4.3c0.5,0.6,1.9,0.9,2.9,0.8c1-0.1,1.7-0.4,2.4-1.3c0.7-1,1-2,0.9-3.1
			C379.4,186.3,379.4,185.9,379.3,185.3z"/>
	</g>
	<g>
		<path class="st6" d="M404.1,190.3c0,0,6.3,2.2,12.5,0.8c6.2-1.4,6.4-2.4,6.4-2.4l-5-3.6l-3.5-0.8l-6,0.5l-1.5,1.1l-2,2.1
			L404.1,190.3z"/>
		<path class="st7" d="M408.2,185.4c-2.1,1.2-3.2,3.1-4.1,5c-0.1-0.1-0.2-0.1-0.2-0.2c0-0.3,0-0.6,0.1-0.8c1.3-2.3,2.8-4.6,5.6-5.3
			c3.8-0.9,7.5-0.5,10.8,1.9c1.1,0.8,2.1,1.6,3.2,2.5c-1.6,1.5-7,3.2-7.6,2.4c0.4-0.1,0.7-0.1,1-0.2c0.8-0.3,1.7-0.6,2.5-1
			c0.4-0.2,0.2-0.5-0.2-0.5c-0.1,0-0.2,0-0.5,0c1-0.9,1-1.1,0-2.1c-0.7-0.7-1.4-1.3-2.1-1.8c-0.3-0.2-0.7-0.2-1.1-0.3
			c0,0.4-0.1,0.8-0.1,1.1c0.2,1.6-0.1,3.1-1.2,4.3c-0.5,0.6-1.9,0.9-2.9,0.8s-1.7-0.4-2.4-1.3c-0.7-1-1-2-0.9-3.1
			C408.1,186.4,408.1,186.1,408.2,185.4z"/>
	</g>
</g>
</svg>
