<?xml version="1.0" encoding="utf-8"?>
<!-- Generator: Adobe Illustrator 26.0.3, SVG Export Plug-In . SVG Version: 6.00 Build 0)  -->
<svg version="1.1" id="Layer_1" xmlns="http://www.w3.org/2000/svg" xmlns:xlink="http://www.w3.org/1999/xlink" x="0px" y="0px"
	 viewBox="0 0 788 1005" style="enable-background:new 0 0 788 1005;" xml:space="preserve">
<style type="text/css">
	.st0{fill:#844F3D;}
	.st1{fill:#9E5959;}
	.st2{fill:#BFBFBF;}
	.st3{fill:#7F6041;}
	.st4{clip-path:url(#SVGID_00000052823715328934953260000007930363747520660635_);}
	.st5{fill:none;stroke:#9E5B3E;stroke-width:2;stroke-linecap:round;stroke-miterlimit:10;}
	.st6{clip-path:url(#SVGID_00000129885044364460433430000003547427791140965777_);}
	.st7{fill:#FFFFFF;}
	.st8{fill:#423522;}
</style>
<path class="st0" d="M401.2,208.7c0,0-4.7,3.7-7.4,3.7s-7-3.6-7-3.6s5.4,0.7,7.2,0.7S401.2,208.7,401.2,208.7z"/>
<path class="st1" d="M378.2,221.1c0.3-0.6,1.4-1.6,3.5-2.5c3.4-1.3,6.9-2.1,10.5-2.1c5.9-0.1,11.6,2.1,15.9,6.1
	c0,0-4.6,11.7-15.8,10.9C384.2,232.8,378.2,221.1,378.2,221.1z"/>
<path class="st2" d="M393.2,221.6l-8.2-0.4l-2.2-0.9c3.6-1.5,7.5-2.1,11.4-2c6.7,0.4,10.3,2.9,10.3,2.9l-1.7,0.8L393.2,221.6z"/>
<path class="st3" d="M412,220.7c-1.6,2.2-4.4,3.1-7,2.2c-2.9-0.8-2.9-3.1-11.2-3.7h-0.2h-0.2c-8.4,0.6-8.4,3-11.2,3.7
	c-2.6,0.8-5.4-0.1-7-2.2c-3.2-5.2,0,0,6.1-3.9c4.1-2.6,10.2-3.8,12.4-2.9l0,0c2.2-0.9,8.2,0.3,12.4,2.9
	C412,220.7,415.2,215.5,412,220.7z"/>
<g>
	<path class="st3" d="M405.1,168.8c-3,0.8-1.4,5.8,0.7,4.8c2.7-1.2,5.7-1.6,8.6-1.2c3.9,0.3,7.9,3.1,8.6,3.6s2.3,0.2,1.2-1.5
		C421,169.5,414.5,166.3,405.1,168.8z"/>
	<path class="st3" d="M382.9,168.8c3,0.8,1.4,5.8-0.7,4.8c-2.7-1.2-5.7-1.6-8.6-1.2c-3.9,0.3-7.9,3.1-8.6,3.6s-2.3,0.2-1.2-1.5
		C367,169.5,373.5,166.3,382.9,168.8z"/>
</g>
<g id="random">
	<g>
		<defs>
			<rect id="SVGID_1_" x="403" y="196" width="18.5" height="6"/>
		</defs>
		<clipPath id="SVGID_00000170242138389124168030000010297171251366593454_">
			<use xlink:href="#SVGID_1_"  style="overflow:visible;"/>
		</clipPath>
		<g style="clip-path:url(#SVGID_00000170242138389124168030000010297171251366593454_);">
			<path class="st5" d="M404,199.1c0,0,4.8,2.1,8.5,1.8c3.1-0.3,5.9-1.8,8-4"/>
		</g>
	</g>
</g>
<g id="random2">
	<g>
		<defs>
			<rect id="SVGID_00000168103443765488520050000008956553049386124419_" x="366.5" y="196" width="18.5" height="6"/>
		</defs>
		<clipPath id="SVGID_00000083786148432399425430000003491108899029252480_">
			<use xlink:href="#SVGID_00000168103443765488520050000008956553049386124419_"  style="overflow:visible;"/>
		</clipPath>
		<g style="clip-path:url(#SVGID_00000083786148432399425430000003491108899029252480_);">
			<path class="st5" d="M384,199.1c0,0-4.8,2.1-8.5,1.8c-3.1-0.3-5.9-1.8-8-4"/>
		</g>
	</g>
</g>
<g>
	<g>
		<path class="st7" d="M404.4,190.8c0,0,6.3,2.2,12.5,0.8c6.2-1.4,6.4-2.4,6.4-2.4l-5-3.6l-3.4-0.8l-6,0.5l-1.5,1.1l-2,2.1
			L404.4,190.8z"/>
		<path class="st8" d="M408.4,185.9c-2.1,1.2-3.2,3.1-4.1,5c-0.1-0.1-0.2-0.1-0.2-0.2c0-0.3,0-0.6,0.1-0.8c1.3-2.3,2.8-4.6,5.6-5.3
			c3.8-0.9,7.5-0.5,10.8,1.9c1.1,0.8,2.1,1.6,3.2,2.5c-1.6,1.5-7,3.2-7.6,2.4c0.4-0.1,0.7-0.1,1-0.2c0.8-0.3,1.7-0.6,2.5-1
			c0.4-0.2,0.2-0.5-0.2-0.5c-0.1,0-0.2,0-0.5,0c1-0.9,1-1.1,0-2.1c-0.7-0.7-1.4-1.3-2.1-1.8C416.6,185.6,413.8,184.8,408.4,185.9z"
			/>
	</g>
	<g>
		<path class="st7" d="M383.6,191c0,0-6.3,2.2-12.5,0.8c-6.2-1.4-6.4-2.4-6.4-2.4l5-3.6l3.4-0.8l6,0.5l1.5,1.1l2,2.1L383.6,191z"/>
		<path class="st8" d="M379.6,186.1c2.1,1.2,3.2,3.1,4.1,5c0.1-0.1,0.2-0.1,0.2-0.2c0-0.3,0-0.6-0.1-0.8c-1.3-2.3-2.8-4.6-5.6-5.3
			c-3.8-0.9-7.5-0.5-10.8,1.9c-1.1,0.8-2.1,1.6-3.2,2.5c1.6,1.5,7,3.2,7.6,2.4c-0.4-0.1-0.7-0.1-1-0.2c-0.8-0.3-1.7-0.6-2.5-1
			c-0.4-0.2-0.2-0.5,0.2-0.5c0.1,0,0.2,0,0.5,0c-1-0.9-1-1.1,0-2.1c0.7-0.7,1.4-1.3,2.1-1.8c0.3-0.2,0.7-0.2,1.1-0.3
			C374.7,185.2,377.4,185.2,379.6,186.1z"/>
	</g>
	<path class="st8" d="M413.1,186.5l-0.1-0.2c-0.2-0.3-0.4-0.7-0.8-1c-1.3,0-2.5,0.3-3.8,0.3c-0.3,0.2-0.9,0.7-1.1,0.8
		c-0.2,0.3-0.8,0.4-0.8,0.8c-0.1,0.3-0.4,0.6-0.4,0.8l0,0c-0.3,2.1,0.8,3.5,2.9,3.8c0.2,0,0.3,0,0.5,0h0.2c2.1-0.1,3.7-1.8,3.7-3.9
		C413.4,187.5,413.3,187,413.1,186.5z"/>
	<path class="st8" d="M375.4,186.5l-0.1-0.2c-0.2-0.3-0.4-0.7-0.8-1c-1.3,0-2.5,0.3-3.8,0.3c-0.3,0.2-0.9,0.7-1.1,0.8
		c-0.2,0.3-0.8,0.4-0.8,0.8c-0.1,0.3-0.4,0.6-0.4,0.8l0,0c-0.3,2.1,0.8,3.5,2.9,3.8c0.2,0,0.3,0,0.5,0h0.2c2.1-0.1,3.7-1.8,3.7-3.9
		C375.6,187.5,375.5,187,375.4,186.5z"/>
</g>
</svg>
