<?xml version="1.0" encoding="utf-8"?>
<!-- Generator: Adobe Illustrator 26.0.3, SVG Export Plug-In . SVG Version: 6.00 Build 0)  -->
<svg version="1.1" id="Layer_1" xmlns="http://www.w3.org/2000/svg" xmlns:xlink="http://www.w3.org/1999/xlink" x="0px" y="0px"
	 viewBox="0 0 88 111" style="enable-background:new 0 0 88 111;" xml:space="preserve">
<style type="text/css">
	.st0{clip-path:url(#SVGID_00000024001012368995430680000010045458481842855042_);}
	.st1{fill:none;stroke:#423522;stroke-width:2;stroke-linecap:round;stroke-miterlimit:10;}
	.st2{clip-path:url(#SVGID_00000178197912188525127610000008552782511558032036_);}
	.st3{fill:#844F3D;}
	.st4{fill:none;stroke:#844F3D;stroke-width:2;stroke-miterlimit:10;}
	.st5{fill:#7F6041;}
</style>
<g id="Calque_6">
	<g>
		<defs>
			<rect id="SVGID_1_" x="53.3" y="41.1" width="18.5" height="6.3"/>
		</defs>
		<clipPath id="SVGID_00000020394442549536372570000004453363997930802055_">
			<use xlink:href="#SVGID_1_"  style="overflow:visible;"/>
		</clipPath>
		<g style="clip-path:url(#SVGID_00000020394442549536372570000004453363997930802055_);">
			<path class="st1" d="M54.3,46.4c1.9-2.7,5-4.3,8.2-4.3c3.3,0.1,6.3,1.7,8.2,4.3"/>
		</g>
	</g>
	<g>
		<defs>
			<rect id="SVGID_00000124157530369488429460000005618414050124844973_" x="15.3" y="41.1" width="18.5" height="6.3"/>
		</defs>
		<clipPath id="SVGID_00000069387994352934436510000000153874213682107014_">
			<use xlink:href="#SVGID_00000124157530369488429460000005618414050124844973_"  style="overflow:visible;"/>
		</clipPath>
		<g style="clip-path:url(#SVGID_00000069387994352934436510000000153874213682107014_);">
			<path class="st1" d="M32.8,46.4c-1.9-2.7-5-4.3-8.2-4.3c-3.3,0.1-6.3,1.7-8.2,4.3"/>
		</g>
	</g>
	<path class="st3" d="M50.9,68.3c0,0-4.7,3.7-7.4,3.7c-2.6,0-7-3.6-7-3.6s5.4,0.7,7.2,0.7S50.9,68.3,50.9,68.3z"/>
	<path class="st4" d="M34.2,79.7c2.9,1.8,6.3,2.8,9.7,2.6c3.4,0,6.7-1.1,9.4-3.1"/>
	<path class="st5" d="M25.1,75.8c1.6-2.2,4.4-3.1,7-2.2c2.9,0.8,2.9,3.1,11.2,3.7h0.2h0.2c8.4-0.6,8.4-3,11.2-3.7
		c2.6-0.8,5.4,0.1,7,2.2c3.2,5.2,0,0-6.1,3.9c-4.1,2.6-10.2,3.8-12.4,2.9l0,0c-2.2,0.9-8.2-0.3-12.4-2.9
		C25.1,75.8,21.9,81,25.1,75.8z"/>
	<path class="st5" d="M55.1,29.1c-3,0.8-1.4,5.8,0.7,4.8c2.7-1.2,5.7-1.7,8.6-1.3c3.9,0.4,7.9,3.1,8.6,3.6s2.3,0.2,1.2-1.5
		C71,29.8,64.4,26.6,55.1,29.1z"/>
	<path class="st5" d="M32.9,29.1c3,0.8,1.4,5.8-0.7,4.8c-2.7-1.2-5.7-1.6-8.6-1.2c-3.9,0.4-7.9,3.1-8.6,3.6s-2.3,0.2-1.2-1.5
		C17,29.8,23.5,26.6,32.9,29.1z"/>
</g>
</svg>
