<?xml version="1.0" encoding="utf-8"?>
<!-- Generator: Adobe Illustrator 26.0.3, SVG Export Plug-In . SVG Version: 6.00 Build 0)  -->
<svg version="1.1" id="Layer_1" xmlns="http://www.w3.org/2000/svg" xmlns:xlink="http://www.w3.org/1999/xlink" x="0px" y="0px"
	 viewBox="0 0 788 1005.1" style="enable-background:new 0 0 788 1005.1;" xml:space="preserve">
<style type="text/css">
	.st0{clip-path:url(#SVGID_00000016070750665781524580000014403066634114564242_);}
	.st1{fill:#B7837E;}
	.st2{clip-path:url(#SVGID_00000100382748003471558830000000440055218812410277_);}
	.st3{fill:none;}
	.st4{fill:#C58C85;}
	.st5{fill:#EDD2AB;}
	.st6{fill:#9C49AD;}
	.st7{clip-path:url(#SVGID_00000057148047347255005290000012920576614191540614_);}
	.st8{clip-path:url(#SVGID_00000004518313485859441150000014524744140302707897_);}
	.st9{fill:#FBF3F2;}
</style>
<g id="_Repetition_miroir_">
	<g>
		<g>
			<g>
				<defs>
					<polygon id="SVGID_1_" points="408.6,157.7 408.6,157.7 426.5,157.7 426.5,190.9 408.6,190.9 					"/>
				</defs>
				<clipPath id="SVGID_00000146498008790498931780000001882123027998929851_">
					<use xlink:href="#SVGID_1_"  style="overflow:visible;"/>
				</clipPath>
				<g style="clip-path:url(#SVGID_00000146498008790498931780000001882123027998929851_);">
					<path class="st1" d="M417.3,190.7c4.5-2.1,7-13.2,8.4-18c1-3.6,1.4-12.7-1.7-14.7c-2.7-1.8-12.4,3.8-12.4,3.8l-1,13.2l-2.1,14
						C408.6,189,415.3,191.7,417.3,190.7z"/>
				</g>
			</g>
		</g>
	</g>
</g>
<g id="_Repetition_miroir_2">
	<g>
		<g>
			<g>
				<defs>
					<polygon id="SVGID_00000001661387267839905690000011013274907957602441_" points="338.2,157.7 338.2,157.7 320.3,157.7 
						320.3,190.9 338.2,190.9 					"/>
				</defs>
				<clipPath id="SVGID_00000039852786723101684470000008325752634251869590_">
					<use xlink:href="#SVGID_00000001661387267839905690000011013274907957602441_"  style="overflow:visible;"/>
				</clipPath>
				<g style="clip-path:url(#SVGID_00000039852786723101684470000008325752634251869590_);">
					<path class="st1" d="M329.5,190.7c-4.5-2.1-7.1-13.2-8.4-18c-1-3.6-1.4-12.7,1.7-14.7c2.7-1.8,12.4,3.8,12.4,3.8l1,13.2l2.1,14
						C338.2,189,331.5,191.7,329.5,190.7z"/>
				</g>
			</g>
		</g>
	</g>
</g>
<rect x="373" y="113.8" class="st3" width="41.7" height="112.3"/>
<path class="st4" d="M413.7,148.9c-1.2-6.9-5.8-19.5-10.8-24.4c-5.8-5.7-17-9.4-26.3-10.4v-0.3c-1.1,0-2.2,0-3.3,0
	c-0.5,0-1.1,0-1.6,0v0.1c-10.6,0.8-22.3,4.7-28.3,10.5c-5,4.9-9.6,17.5-10.8,24.4c-1.8,10.2,3.5,42.1,6.8,51.9
	c7.7,23.2,16.4,18.2,23.1,23.1c2.6,1.9,10.7,1.7,10.7,1.7s8.1,0.1,10.7-1.7c8-5.6,14.8-0.9,23.1-23.1
	C410.5,191,415.5,159.1,413.7,148.9z"/>
<rect x="331.4" y="113.8" class="st3" width="41.7" height="112.3"/>
<path class="st5" d="M332.5,162.1c0,0-8.4-1.1-9.4-5s-5.4-19-3.9-25.3c1.6-7,12.2-18,17.8-22.4c3.8-3,15.1-7.6,20.7-9.8
	c2-0.8,4.3-0.9,6.4-0.2l10,3.2l7.7-3.6c2-1,4.3-1.2,6.5-0.7c6.6,1.6,20.7,5.3,25,9c5.3,4.5,12.3,17.7,13.2,24.6
	c0.8,6.3-3.1,25.1-3.1,25.1l-10.2,6.9l-3.5-15.9l-7-18.8l-29.2,3.3l-30.6-2.5l-4.2,17.4"/>
<g>
	<g>
		<path id="SVGID_00000125593620955889950880000016151181573846881450_" class="st6" d="M414.3,186L414.3,186h5.2
			c2.9,0,5.2,2.4,5.2,5.2v6c0,2.9-2.4,5.2-5.2,5.2l0,0c-2.9,0-5.2-2.4-5.2-5.2V186z"/>
	</g>
	<g>
		<g>
			<defs>
				<path id="SVGID_00000029754462252713088300000016370105619376437683_" d="M414.3,186L414.3,186h5.2c2.9,0,5.2,2.4,5.2,5.2v6
					c0,2.9-2.4,5.2-5.2,5.2l0,0c-2.9,0-5.2-2.4-5.2-5.2V186z"/>
			</defs>
			<use xlink:href="#SVGID_00000029754462252713088300000016370105619376437683_"  style="overflow:visible;fill:#9C49AD;"/>
			<clipPath id="SVGID_00000090257171041214810090000016495909432316342940_">
				<use xlink:href="#SVGID_00000029754462252713088300000016370105619376437683_"  style="overflow:visible;"/>
			</clipPath>
			<g style="clip-path:url(#SVGID_00000090257171041214810090000016495909432316342940_);">
				<path class="st6" d="M419.5,186L419.5,186c2.9,0,5.2,2.4,5.2,5.2v6c0,2.9-2.4,5.2-5.2,5.2l0,0c-2.9,0-5.2-2.4-5.2-5.2v-6
					C414.3,188.4,416.6,186,419.5,186z"/>
			</g>
		</g>
	</g>
</g>
<g>
	<g>
		<path id="SVGID_00000120521466912093685020000005277562955650327687_" class="st6" d="M331.7,186L331.7,186h-5.2
			c-2.9,0-5.2,2.4-5.2,5.2v6c0,2.9,2.4,5.2,5.2,5.2l0,0c2.9,0,5.2-2.4,5.2-5.2V186z"/>
	</g>
	<g>
		<g>
			<defs>
				<path id="SVGID_00000172425747397709210440000003015990414153809550_" d="M331.7,186L331.7,186h-5.2c-2.9,0-5.2,2.4-5.2,5.2v6
					c0,2.9,2.4,5.2,5.2,5.2l0,0c2.9,0,5.2-2.4,5.2-5.2V186z"/>
			</defs>
			<use xlink:href="#SVGID_00000172425747397709210440000003015990414153809550_"  style="overflow:visible;fill:#9C49AD;"/>
			<clipPath id="SVGID_00000049927923063802043770000008326996207581914503_">
				<use xlink:href="#SVGID_00000172425747397709210440000003015990414153809550_"  style="overflow:visible;"/>
			</clipPath>
			<g style="clip-path:url(#SVGID_00000049927923063802043770000008326996207581914503_);">
				<path class="st6" d="M326.5,186L326.5,186c2.9,0,5.2,2.4,5.2,5.2v6c0,2.9-2.4,5.2-5.2,5.2l0,0c-2.9,0-5.2-2.4-5.2-5.2v-6
					C321.2,188.4,323.6,186,326.5,186z"/>
			</g>
		</g>
	</g>
</g>
<path class="st6" d="M411.5,83.9c8.1-1,16.1-2.4,24.2-2.8c8.8-0.5,17.8,0.1,22.4,9.3c5,9.7,0.2,17.5-6.3,24.6
	c-13.9,15.1-32.1,20.4-51.7,21.1c-10.9,0.4-22-0.8-32.8-2.7c-21.2-3.6-40.8-0.1-59.8,9.6c-5.9,3-12.4,5-18.8,7
	c-5.3,1.7-10.6,1.7-14.5-3.1c-3.7-4.6-2.9-9.9-0.9-15c4.8-11.9,14.2-19,25.8-23.3c6.3-2.3,12.8-4.1,19.1-6.1
	c4.4-2.8,9.1-2.4,13.9-1.5c24.7,4.6,47.5,0.2,68.6-13.5C404.1,85.5,407.3,83.4,411.5,83.9z"/>
<path class="st6" d="M324.3,92.4c-4.5-3.9-1.9-7.7,0.3-11.4c11.2-19,55-27.6,72.3-14c4.1,3.2,10.6,6.5,4.2,13.4
	c-4.6,12.3-16.7,14.4-26.7,16.8C357.6,101.2,339.7,106.9,324.3,92.4z"/>
<path class="st9" d="M324.3,92.4c27.5,8.2,52.7,1.8,76.8-12.1c4-0.5,7.7,0,10.4,3.5c-27.1,25.9-58.9,28.3-93.1,18.6
	C319.5,98.6,321.2,95.1,324.3,92.4z"/>
</svg>
