<?xml version="1.0" encoding="utf-8"?>
<!-- Generator: Adobe Illustrator 26.0.3, SVG Export Plug-In . SVG Version: 6.00 Build 0)  -->
<svg version="1.1" id="Layer_1" xmlns="http://www.w3.org/2000/svg" xmlns:xlink="http://www.w3.org/1999/xlink" x="0px" y="0px"
	 viewBox="0 0 788 1005.1" style="enable-background:new 0 0 788 1005.1;" xml:space="preserve">
<style type="text/css">
	.st0{fill:none;stroke:#FAFAFA;stroke-miterlimit:10;}
	.st1{clip-path:url(#SVGID_00000150795189278298965390000016724791190154785921_);}
	.st2{fill:#B7837E;}
	.st3{clip-path:url(#SVGID_00000048492187947038774380000010596632721337098412_);}
	.st4{fill:none;}
	.st5{fill:#C58C85;}
	.st6{clip-path:url(#SVGID_00000178202294673375966130000004123650530560041134_);}
	.st7{fill:#D29184;}
	.st8{fill:#EDD2AB;}
	.st9{fill:#4A75BA;}
</style>
<path class="st0" d="M380.5,90.5c8.8-9.5,6.1-25.2,6.1-25.2"/>
<g id="_Repetition_miroir_">
	<g>
		<g>
			<g>
				<defs>
					<polygon id="SVGID_1_" points="408.6,157.7 408.6,157.7 426.5,157.7 426.5,190.9 408.6,190.9 					"/>
				</defs>
				<clipPath id="SVGID_00000150822073755116731430000004247135347219361936_">
					<use xlink:href="#SVGID_1_"  style="overflow:visible;"/>
				</clipPath>
				<g style="clip-path:url(#SVGID_00000150822073755116731430000004247135347219361936_);">
					<path class="st2" d="M417.3,190.7c4.5-2.1,7-13.2,8.4-18c1-3.6,1.4-12.7-1.7-14.7c-2.7-1.8-12.4,3.8-12.4,3.8l-1,13.2l-2.1,14
						C408.6,189,415.3,191.7,417.3,190.7z"/>
				</g>
			</g>
		</g>
	</g>
</g>
<g id="_Repetition_miroir_2">
	<g>
		<g>
			<g>
				<defs>
					<polygon id="SVGID_00000137122671159144020850000006958713080104451003_" points="338.2,157.7 338.2,157.7 320.3,157.7 
						320.3,190.9 338.2,190.9 					"/>
				</defs>
				<clipPath id="SVGID_00000148645211824252449460000011140455905099245213_">
					<use xlink:href="#SVGID_00000137122671159144020850000006958713080104451003_"  style="overflow:visible;"/>
				</clipPath>
				<g style="clip-path:url(#SVGID_00000148645211824252449460000011140455905099245213_);">
					<path class="st2" d="M329.5,190.7c-4.5-2.1-7-13.2-8.4-18c-1-3.6-1.4-12.7,1.7-14.7c2.7-1.8,12.4,3.8,12.4,3.8l1,13.2l2.1,14
						C338.2,189,331.5,191.7,329.5,190.7z"/>
				</g>
			</g>
		</g>
	</g>
</g>
<rect x="373" y="113.8" class="st4" width="41.7" height="112.3"/>
<path class="st5" d="M413.7,148.9c-1.2-6.9-5.8-19.5-10.8-24.4c-5.8-5.7-17-9.4-26.3-10.4v-0.3c-1.1,0-2.2,0-3.3,0
	c-0.5,0-1.1,0-1.6,0v0.1c-10.6,0.8-22.3,4.7-28.3,10.5c-5,4.9-9.6,17.5-10.8,24.4c-1.8,10.2,3.5,42.1,6.8,51.9
	c7.7,23.2,16.4,18.2,23.1,23.1c2.6,1.9,10.7,1.7,10.7,1.7s8.1,0.1,10.7-1.7c8-5.6,14.8-0.9,23.1-23.1
	C410.5,191,415.5,159.1,413.7,148.9z"/>
<rect x="331.4" y="113.8" class="st4" width="41.7" height="112.3"/>
<g>
	<g>
		<g>
			<defs>
				
					<rect id="SVGID_00000178898055602859893010000016538001560820712079_" x="-238.2" y="-313.5" transform="matrix(3.786329e-02 -0.9993 0.9993 3.786329e-02 20.6015 -292.6785)" width="193" height="313"/>
			</defs>
			<clipPath id="SVGID_00000149368544636523051170000000485463201789475718_">
				<use xlink:href="#SVGID_00000178898055602859893010000016538001560820712079_"  style="overflow:visible;"/>
			</clipPath>
			<g style="clip-path:url(#SVGID_00000149368544636523051170000000485463201789475718_);">
				<path class="st7" d="M-46.7,60.5C-50,68.7-46.5,78-42.1,81c5.9,4,20,5.3,27.7,6.1s63.2,0.2,77.1,2.1c1.2,0.2,9.3,0.3,11.7-1.4
					c3.4-2.4,3.4-7.5-4.6-10.8c-6.9-2.9-71.2-26-97.2-27.3C-31,49.5-42.7,50.5-46.7,60.5z"/>
				<path class="st7" d="M128.2,82.3c3,1.4,11.1,7.3,11.1,7.3s-4.4,3.6-6.1,3.7c-2.6,0.2-6.9-3.3-9.4-4c-4.5-1.2-14.6-3.3-19.2-2.2
					c-2.3,0.6-9.6,1.8-11.4,2.4c-0.1,0,10.8,7.5,14,10.2c1.3,1.2-2.1,6.2-2.1,6.2s-13.5-4.2-17.9-6.3c-1.9-0.9-5.3-4.3-8.1-6.3
					C75.9,91.1,60.5,89,60.5,89l2.1-11c0,0,13.6-3.8,16.8-4.4c5.9-1,18,0.7,23.8,2C109.4,77,122.3,79.6,128.2,82.3z"/>
			</g>
		</g>
	</g>
</g>
<path class="st8" d="M331.6,159.2c-16-19.5-15.8-38.3,0.4-55.4c4.2-4.4,6.4-7.2,3.9-14.2c-3.7-10.4,3.6-17.8,12.6-20.6
	c16-4.8,32.8-4.8,48.7,0c10,3,17.8,11,12.3,22.9c-3.6,7.6,2.4,9.1,5.4,12.4c15.8,17.8,15.6,37.4-1.3,54.7
	c-5.6-9.9-13-19.1-25.3-18.5c-6.4,0.3-12.6-3.4-18.3-7c-16-10-21.8-5.7-31.6,10.4C335.6,148.2,334.2,153.2,331.6,159.2z"/>
<path class="st9" d="M333.1,199.2h-2.2c-0.9,0-1.6-0.7-1.6-1.6v-10.2c0-0.9,0.7-1.6,1.6-1.6h2.2c0.9,0,1.6,0.7,1.6,1.6v10.2
	C334.8,198.5,334,199.2,333.1,199.2z"/>
<path class="st9" d="M417.1,199.2h-2.2c-0.9,0-1.6-0.7-1.6-1.6v-10.2c0-0.9,0.7-1.6,1.6-1.6h2.2c0.9,0,1.6,0.7,1.6,1.6v10.2
	C418.7,198.5,418,199.2,417.1,199.2z"/>
</svg>
