<?xml version="1.0" encoding="utf-8"?>
<!-- Generator: Adobe Illustrator 26.0.3, SVG Export Plug-In . SVG Version: 6.00 Build 0)  -->
<svg version="1.1" id="Layer_1" xmlns="http://www.w3.org/2000/svg" xmlns:xlink="http://www.w3.org/1999/xlink" x="0px" y="0px"
	 viewBox="0 0 788 1005.1" style="enable-background:new 0 0 788 1005.1;" xml:space="preserve">
<style type="text/css">
	.st0{fill:#A09393;}
	.st1{clip-path:url(#SVGID_00000099642621616969634650000000655810459883801791_);}
	.st2{fill:#7F4B37;}
	.st3{clip-path:url(#SVGID_00000088100777048301915670000015011212546364404895_);}
	.st4{fill:none;}
	.st5{fill:#C58C85;}
	.st6{clip-path:url(#SVGID_00000141422672623755428350000008707641358124095878_);}
	.st7{fill:#FFFC01;}
	.st8{clip-path:url(#SVGID_00000081630147835929279890000002299015495746676920_);}
	.st9{fill:#A9D5D5;}
	.st10{fill:#DA807F;}
	.st11{fill:#6A9E83;}
	.st12{fill:#EBA5A5;}
	.st13{fill:#81B89B;}
	.st14{fill:#CDDBDB;}
	.st15{fill:#C0CAC5;}
	.st16{fill:#F9ECDD;}
	.st17{fill:#95B9B9;}
	.st18{fill:#5F4A3A;}
	.st19{fill:#EABCA4;}
	.st20{fill:#BCB4B2;}
	.st21{fill:#D0C7C5;}
	.st22{fill:#AE9F9E;}
	.st23{fill:#EAC6AC;}
</style>
<ellipse class="st0" cx="374.4" cy="200.3" rx="58.7" ry="35.2"/>
<g id="_Repetition_miroir_">
	<g>
		<g>
			<g>
				<g>
					<g>
						<g>
							<defs>
								<polygon id="SVGID_1_" points="408.6,157.7 408.6,157.7 426.5,157.7 426.5,190.9 408.6,190.9 								"/>
							</defs>
							<clipPath id="SVGID_00000147185408497092120690000004272405536199721092_">
								<use xlink:href="#SVGID_1_"  style="overflow:visible;"/>
							</clipPath>
							<g style="clip-path:url(#SVGID_00000147185408497092120690000004272405536199721092_);">
								<path class="st2" d="M417.3,190.7c4.5-2.1,7-13.2,8.4-18c1-3.6,1.4-12.7-1.7-14.7c-2.7-1.8-12.4,3.8-12.4,3.8l-1,13.2
									l-2.1,14C408.6,189,415.3,191.7,417.3,190.7z"/>
							</g>
						</g>
					</g>
				</g>
			</g>
		</g>
	</g>
</g>
<g id="_Repetition_miroir_2">
	<g>
		<g>
			<g>
				<g>
					<g>
						<g>
							<defs>
								<polygon id="SVGID_00000131337404722619840390000015134184064717132937_" points="338.2,157.7 338.2,157.7 320.3,157.7 
									320.3,190.9 338.2,190.9 								"/>
							</defs>
							<clipPath id="SVGID_00000181772612902611387600000016793763527420187029_">
								<use xlink:href="#SVGID_00000131337404722619840390000015134184064717132937_"  style="overflow:visible;"/>
							</clipPath>
							<g style="clip-path:url(#SVGID_00000181772612902611387600000016793763527420187029_);">
								<path class="st2" d="M329.5,190.7c-4.5-2.1-7-13.2-8.4-18c-1-3.6-1.4-12.7,1.7-14.7c2.7-1.8,12.4,3.8,12.4,3.8l1,13.2
									l2.1,14C338.2,189,331.5,191.7,329.5,190.7z"/>
							</g>
						</g>
					</g>
				</g>
			</g>
		</g>
	</g>
</g>
<rect x="373" y="113.8" class="st4" width="41.7" height="112.3"/>
<path class="st5" d="M413.7,148.9c-1.2-6.9-5.8-19.5-10.8-24.4c-5.8-5.7-17-9.4-26.3-10.4v-0.3c-1.1,0-2.2,0-3.3,0
	c-0.5,0-1.1,0-1.6,0v0.1c-10.6,0.8-22.3,4.7-28.3,10.5c-5,4.9-9.6,17.5-10.8,24.4c-1.8,10.2,3.5,42.1,6.8,51.9
	c7.7,23.2,16.4,18.2,23.1,23.1c2.6,1.9,10.7,1.7,10.7,1.7s8.1,0.1,10.7-1.7c8-5.6,14.8-0.9,23.1-23.1
	C410.5,191,415.5,159.1,413.7,148.9z"/>
<rect x="331.4" y="113.8" class="st4" width="41.7" height="112.3"/>
<g>
	<g>
		<g>
			<g>
				<g>
					<g>
						<defs>
							<polygon id="SVGID_00000027562454738577600920000017411777113934541735_" points="414.3,186 414.3,186 424.8,186 
								424.8,202.5 414.3,202.5 							"/>
						</defs>
						<clipPath id="SVGID_00000118388850450346964780000012778692968680215468_">
							<use xlink:href="#SVGID_00000027562454738577600920000017411777113934541735_"  style="overflow:visible;"/>
						</clipPath>
						<g style="clip-path:url(#SVGID_00000118388850450346964780000012778692968680215468_);">
							<path class="st7" d="M419.5,186L419.5,186c2.9,0,5.2,2.4,5.2,5.2v6c0,2.9-2.4,5.2-5.2,5.2l0,0c-2.9,0-5.2-2.4-5.2-5.2v-6
								C414.3,188.4,416.6,186,419.5,186z"/>
						</g>
					</g>
				</g>
			</g>
		</g>
	</g>
</g>
<g>
	<g>
		<g>
			<g>
				<g>
					<g>
						<defs>
							<polygon id="SVGID_00000125585785593234598900000010855872030159607698_" points="331.7,186 331.7,186 321.2,186 
								321.2,202.5 331.7,202.5 							"/>
						</defs>
						<clipPath id="SVGID_00000073686682344406933350000004198445784770697133_">
							<use xlink:href="#SVGID_00000125585785593234598900000010855872030159607698_"  style="overflow:visible;"/>
						</clipPath>
						<g style="clip-path:url(#SVGID_00000073686682344406933350000004198445784770697133_);">
							<path class="st7" d="M326.5,186L326.5,186c2.9,0,5.2,2.4,5.2,5.2v6c0,2.9-2.4,5.2-5.2,5.2l0,0c-2.9,0-5.2-2.4-5.2-5.2v-6
								C321.2,188.4,323.6,186,326.5,186z"/>
						</g>
					</g>
				</g>
			</g>
		</g>
	</g>
</g>
<path class="st9" d="M-544.4-197.8c3.3,0,6.5,0,9.8,0c0.2,1.3,1.3,1.4,2.3,1.4c7-0.7,11.9,4.3,17.4,7.2c2.1,1.1,5.3,0.9,6.3,3.3
	c1.3,3.1,4.7,4.1,6.1,7.3c2.9,6.5,10.5,10.4,10.7,18.6c0,0.4,0.3,1,0.7,1.3c3.5,2.4,3.2,6.7,5.3,9.8c2.5,3.6,2.1,8.2,4.3,11.7
	c2.5,4.1,1.4,8.8,3.6,13c1.3,2.4,0.8,6,1.5,9.1c3,13.6,2.8,27.6,4.8,41.3c0.7,4.7,0.3,9.5,1,14.1c1.3,9.3,3.5,18.4,2.8,27.9
	c-0.2,2.4,0,4.7,0,7.1c-8.5-0.1-17.9,5.8-20.3,12.7c-0.5,0-1.2-0.2-1.5,0c-2.9,3-6.7,4.5-10.5,5.9c-7.3,0.9-13.5-2.1-19.5-5.7
	c-0.7-0.4-1.4-1-2.3-1c-5-3.9-9.9-7.6-16.8-6.8c-2.1,0.2-3-0.6-2.1-2.8c1.4-3.4,1.7-7.1,2.9-10.6c3.5-10.3,8.1-20.2,11.4-30.6
	c0.8-2.6,2.7-5,3.1-8.8c-3.2,2.6-5.5,4.8-8.1,6.6c-6.4,4.5-13.3,7-21.3,5.1c-4.7-1.1-9.4-2-13.8-4.2c-5.3-2.6-10.8-4.5-15.6-8.2
	c-2.5-1.9-5.1-4-8.5-4.3c-1.5-2.7-4-4.4-6.2-6.3c-5.7-4.7-10.1-10.2-13.4-16.8c-2-4.1-1.9-8.2-1-12.4c2.6-12.7,6.1-25.2,11.4-37.1
	c7.1-15.8,15.9-30.6,31.3-39.9c7-4.2,14.4-7.3,22.8-7.5C-544.9-196.1-544.6-196.8-544.4-197.8z M-515.9-91.5
	c-1.6,4.9-4.5,9.4-5.1,14.7c2.4-3.7,4.2-7.7,6.3-11.5c2.1-3.8,4.5-7.5,6.7-11.3c0.4,0.2,0.8,0.3,1.1,0.5
	c-11.7,27.2-15.9,55.4-12.3,84.7c0.3-1,0.3-1.9,0.3-2.9c-0.3-14.8,0.1-29.6,3.1-44.2c3-14.7,7.6-28.9,13.2-42.7
	c2.1-5.1,5.6-8.7,11.4-9.6c2.7-0.4,5.3,0.3,8.5,1.3c-4-3.4-9.2-3.6-13.4-1.4c-4.9,2.6-8.5,6.7-12.4,10.5c-0.9-5.4-0.1-10.9-1.8-16.2
	c-0.7-1.6-0.1-3.4-1.1-4.9c0.3-12.1-2.4-23.7-5.1-35.4c-1.6-6.7-3.6-13.2-7.5-19c-3.2-4.8-4.8-5.5-10.3-4
	c-10.8,2.8-20.5,7.7-28.9,15.1c-8.5,7.5-15.2,16.4-18.3,27.6c-0.3,0.4-0.8,0.7-0.9,1.2c-5.3,18.3-5.5,36.1,5.7,52.5
	c4.2,6.2,9.9,10.7,17.5,12.4c7.9,1.7,15.4,0.8,22.3-3.3c4.4-2.6,9.5-4.5,12-9.6c1.6-0.2,2.7-1.3,3.8-2.2
	C-519.5-90.4-518.2-91.9-515.9-91.5z M-576.9-74.9c-0.1-0.3-0.2-0.8-0.4-0.9c-5.5-3.2-10.4-7.2-14.7-12c-7.5-8.3-11.3-17.8-8.6-29.1
	c3.9-16.7,9.7-32.5,20.2-46.5c6.7-8.9,14.8-15.5,25.5-19c5.3-1.7,10.7-2.2,16.9-2.7c-5.8-1.7-15-0.6-21.4,2.3
	c-16.7,7.6-27.2,20.9-34.4,37.4c-3.6,8.4-6.1,17-8.6,25.7c-1.7,6-2,12.1,0,18C-598.1-88.9-588.5-81-576.9-74.9z M-489.4-102.5
	c0,26.5,0,53-3.3,79.4C-486.1-49.3-486.5-75.8-489.4-102.5z"/>
<path class="st10" d="M-737-191.9c1.1,0.1,2.3,0.1,3.4,0.2c0.4,1.1,1.5,1.2,2.4,1.6c5.6,2.4,10.3,6.1,14.1,10.7
	c9.2,11,17,23,22.4,36.4c3.7,9.2,5.4,18.9,5.5,28.8c0,1.7-1.2,3.4-0.4,5.1c2.9,6.7,0.3,12.6-2.5,18.5c-2.5,5.3-6.5,9.7-9.2,14.8
	c-7.6,8.8-15.9,16.7-26.2,22.4c-10.1,5.6-20.4,7.6-31.4,3c-11-4.5-19.5-12.4-27.2-21.1c1.7-2.6,0-5.4,0.5-8.6
	c1.3,1.6,2.1,2.7,3.1,3.8c1.6,1.7,3.6,2.6,5.5,0.7c1.7-1.8,1.2-3.8-0.5-5.6c-0.8-0.9-2.4-1.2-2.6-2.8c2.7-0.7,6.1,1.3,7.8-2.2
	c1.2-0.2,2.2,0.3,3.2,0.8c3.5,1.9,7.1,3.7,10.5,5.7c5.8,3.4,11.7,3.1,17.6,0.6c7.1-2.9,13-7.7,18.9-12.5c1-0.4,1.5-1.2,2.2-1.9
	c4-4.6,5.1-10.3,6-16c1.2-6.6,2.2-13.2,3.3-19.8c2.3-14.6-6.3-24-19.2-26.7c-11.1-2.3-22.3-2.4-33.4-0.6
	c-16.3,2.7-24.4,11.8-23.9,27.7c0.2,7,1.6,14.1,3.6,20.9c0.5,2.3,1,4.5,1.4,6.8c-0.8,0.7-0.7,1.5-0.4,2.3l-0.1,0.2
	c-2-0.2-2.1-2.1-3-3.3c-1-1.4-2.1-2.6-4-2c-4.5,1.6-1.4,5.6-2.4,8.5c-2.7-1.8-4.2-7.2-8-3.8c-4.5,4,1.9,5.7,3.1,8.5
	c-2.3,0-4.6,0-6.8,0c-3.7-4-7.7-7.8-10.1-12.9c-4.1-8.4-3.1-16.9,0.8-24.9c6.7-13.8,13.3-27.8,22.4-40.1c11-14.9,26-23.8,45.4-23.5
	c2.5,0,5,0.1,7.5,0.1C-737.6-191.4-737.3-191.4-737-191.9z"/>
<path class="st11" d="M-730.3,205.5c-15.4,1.3-30.7,0-45.6-3.9c-9.6-2.5-18.7-6.2-27.3-11.1c-2.5-1.5-3.5-2.9-3.1-6.2
	c0.8-6.9,0.8-14,0-20.9c-1.4-11.7,1.9-18,12.5-23.2c7.5-3.7,15.5-5.4,23.8-6c1.5,0.3,2,1.2,1,2.4c-2.8,3.1-0.7,3.8,2,4.6
	c6.7,2,13.6,3,20.5,3.5c8,0.6,15.9-0.2,23.3-3.7c2.8-1.4,4.9-3,3.5-6.6c1.5,0,3-0.1,4.5-0.1c3.2,0.3,6.5,0.5,9.7,0.8
	c1.6,1.2,3.5,0.9,5.3,1.5c8.8,2.7,15.2,7.8,17.1,17.3c1.8,9.2,2.3,18.5,3.1,27.8c0.2,2.7-0.8,4.4-3,5.9
	c-8.5,5.8-17.6,10.3-27.3,13.6c-3.2,1.1-6.7,1-9.5,3c-1,0.2-1.9,0.3-2.9,0.5c-0.7-0.4-1.2-0.3-1.6,0.3c-1.5,0.2-3,0.4-4.5,0.6
	C-729.4,204.8-729.8,204.9-730.3,205.5z"/>
<path class="st12" d="M-786-71.4c7.8,8.7,16.2,16.5,27.2,21.1c11,4.5,21.3,2.6,31.4-3c10.3-5.7,18.7-13.6,26.2-22.4
	c0.2,0.7,0.2,1.7,0.7,2c4,2.2,8.1,4.3,12.1,6.4c0.1,3.5,0.6,6.7,4.4,8.2c0,2.6,0.5,5.2,0.8,7.8c0.9,7.8,1.5,15.6,2.4,23.3
	c0.3,3-1.7,4.2-3.6,5.5c-5.7,3.6-11.3,7.3-17.7,9.6c-4.9,1.9-9.8,4.1-14.9,5.4c-4.3,1.1-8.7,2.2-13.3,1.7c-0.8-0.1-1.4,0.5-1.6,1.3
	c-17.3,0.8-34.4-0.6-51-5.9c-7.8-2.5-15.1-5.9-22.2-9.8c-1.8-1-2.6-2.1-2.2-4.5c1-7.4,1.2-15,0.1-22.4c-1.3-8.6,1-15.2,7.9-20.3
	c0.6-0.2,1.2-0.3,1.7-0.7c2.7-1.8,5.2-3.6,8.8-2.4C-788-70.4-786.9-71.1-786-71.4z"/>
<path class="st13" d="M-719.8,134.2c1.4,3.6-0.7,5.2-3.5,6.6c-7.4,3.6-15.3,4.3-23.3,3.7c-6.9-0.5-13.8-1.5-20.5-3.5
	c-2.7-0.8-4.8-1.4-2-4.6c1-1.1,0.6-2.1-1-2.4c0.3-2.5-0.8-5.2,1.1-7.5c9.2,4,18.7,6.9,28.7,8.3c-6.5,3.7-13.5,2-20.2,2.3
	c6.2,1.6,12.4,2.3,18.8,0.8c0.9-0.2,1.8-0.8,2.6-1.4c1.8-1.4,1.4-2.8-0.4-3.8c-0.9-0.5-2.1-0.8-3.2-0.8c-8.9-0.6-17.3-2.9-25.2-7.1
	c-2.5-1.3-4.6-3.5-7.4-4.1c0,0,0.1,0,0.1,0c-0.3-0.3-0.5-0.5-0.8-0.8c0,0,0,0,0,0c-0.3-0.3-0.5-0.5-0.8-0.8c0,0,0.1,0,0.1,0
	c-0.3-0.3-0.7-0.5-1-0.8c-5.3-5.3-8.5-11.9-11-18.8c-5.6-15.7-7.6-31.8-3-48.1c5.1-18,20.8-30.5,39.5-32.2c6.4-0.6,12.7-0.7,19,0.1
	c0.4,0.7,0.9,0.7,1.5,0.1c0.7,0.1,1.4,0.1,2.1,0.2c0.3,0.8,1,1,1.7,1.3c3.8,1.7,8.1,2.7,11.6,5.1c10.9,7.7,17.7,18.2,19.9,31.2
	c2.3,14,1.6,28.1-4.4,41.3c-4.2,9.4-9.1,18.3-18.7,23.4c-0.5,0.3-1.3,0.8-1.3,1.2C-720.7,127-720.2,130.6-719.8,134.2z M-712.5,99.8
	c0.1-0.5,0.1-1,0.2-1.6c1.3-1.8,1.7-3.8,2.1-5.9c1.3-7.1,2.2-14.3,3.8-21.2c1.3-5.4-0.1-9.2-3.7-13.3c-11.4-13-25.6-17.1-42.3-14.5
	c-11.2,1.8-19.5,8.3-27.2,15.9c-2.1,2-2.8,4.4-2.4,7.4c1,7.9,1,15.8,2.1,23.7c0.6,4,2,7.3,4.6,10.2l0,0c0.1,1.1,0.7,1.8,1.4,2.6
	c5.7,6.2,12.7,10.7,20.5,13.8c7.6,3,15.1,2.5,22.3-1.4c4.8-2.6,9.3-5.6,13.4-9.3c1.7-1.5,3.9-2.9,4.1-5.6c0.2,0,0.4,0,0.6-0.1
	C-712.8,100.2-712.7,100-712.5,99.8z M-720.4,118c-5.5,5.2-12.4,7.6-19.3,10.2C-731.7,128.4-723.3,124-720.4,118z"/>
<path class="st14" d="M-590.8-77.2c3.4,0.3,6.1,2.4,8.5,4.3c4.8,3.7,10.3,5.6,15.6,8.2c4.4,2.1,9.1,3,13.8,4.2
	c8,1.9,14.9-0.7,21.3-5.1c2.6-1.8,4.9-3.9,8.1-6.6c-0.4,3.8-2.2,6.1-3.1,8.8c-3.3,10.4-7.9,20.3-11.4,30.6
	c-1.2,3.5-1.5,7.2-2.9,10.6c-0.9,2.3,0,3.1,2.1,2.8c6.8-0.8,11.8,2.9,16.8,6.8c-5.4,1.6-11,1-16.3,0.5c-5.8-0.6-11.7-0.3-17.5-1.1
	c-11-1.6-21.7-4.4-32-8.6c-4.4-1.8-8.6-3.9-12.7-6.3c-1.7-1-2.1-2-2.1-4.1c0.2-8,0.9-16-0.4-23.9C-604.2-65.6-599.7-73.6-590.8-77.2
	z"/>
<path class="st15" d="M-467.9-24.7c0-2.4-0.2-4.8,0-7.1c0.8-9.5-1.4-18.6-2.8-27.9c-0.7-4.7-0.3-9.4-1-14.1
	c-1.9-13.7-1.8-27.7-4.8-41.3c-0.7-3-0.2-6.6-1.5-9.1c-2.2-4.2-1.1-8.9-3.6-13c-2.2-3.5-1.8-8.1-4.3-11.7c-2.1-3.1-1.8-7.4-5.3-9.8
	c-0.4-0.2-0.7-0.8-0.7-1.3c-0.2-8.2-7.8-12.1-10.7-18.6c-1.4-3.2-4.8-4.2-6.1-7.3c-1-2.4-4.2-2.2-6.3-3.3
	c-5.6-2.9-10.4-7.8-17.4-7.2c-1,0.1-2,0-2.3-1.4c16-0.8,28.5,5.9,38.8,17.9c14,16.4,20.7,36,25.7,56.5c3.9,15.8,4.6,31.9,6.1,48
	c1.2,13.1,2.9,26.1,4.3,39.2c0.4,4.1,0.5,8.2,0.9,12.3c0.4,4.3-1.4,7.2-4.9,9.3c-3.6,2.1-7,4.6-11.6,3.4c0.9-2.4,3.4-2.6,5.1-4
	C-466.7-18.2-465.8-21.4-467.9-24.7z"/>
<path class="st15" d="M-688.3-67.4c-4.1-2.1-8.1-4.2-12.1-6.4c-0.5-0.3-0.5-1.3-0.7-2c2.7-5.2,6.7-9.5,9.2-14.8
	c2.8-6,5.4-11.8,2.5-18.5c-0.8-1.7,0.4-3.4,0.4-5.1c0-9.9-1.7-19.5-5.5-28.8c-5.4-13.4-13.2-25.3-22.4-36.4
	c-3.8-4.6-8.5-8.3-14.1-10.7c-0.9-0.4-2-0.5-2.4-1.6c8.4-0.3,15.4,3.1,20.9,9.1c13.7,15.1,24.9,31.8,29.2,52.1
	c1.3,6.1,3,12.4,1.3,18.8c-0.2,0.7-0.3,1.6,0,2.2c4.2,10.4-2.2,18.1-6.6,26.3c-1.1,2.1-2.6,4-4.2,5.7c-2.1,2.2-2.1,3.2,1.1,4
	c5.6,1.5,10,4.8,13.1,9.9c1.7,2.7,2.6,5.8,3,8.8c1.1,8.7,1.7,17.6,2.6,26.3c0.2,2.1-0.5,3.5-2.1,4.8c-6.9,5.3-14.4,9.3-22.5,12.3
	c-10.9,4.1-22.1,6.7-33.8,6.7c0.2-0.8,0.7-1.4,1.6-1.3c4.6,0.5,9-0.6,13.3-1.7c5.1-1.3,10-3.5,14.9-5.4c6.3-2.4,12-6,17.7-9.6
	c2-1.2,4-2.4,3.6-5.5c-0.9-7.8-1.4-15.6-2.4-23.3c-0.3-2.6-0.7-5.2-0.8-7.8C-683.6-62.9-686.8-64.7-688.3-67.4z"/>
<path class="st15" d="M-719.8,134.2c-0.4-3.6-0.9-7.2-1.2-10.9c0-0.4,0.8-0.9,1.3-1.2c9.6-5.1,14.5-14,18.7-23.4
	c6-13.3,6.7-27.3,4.4-41.3c-2.1-13-9-23.6-19.9-31.2c-3.5-2.5-7.7-3.4-11.6-5.1c-0.7-0.3-1.4-0.6-1.7-1.3c13,1.4,23.5,7.4,30.7,18.2
	c10.9,16.6,11.4,34.8,6.3,53.4c-2.5,9.3-7.2,17.5-13.4,24.8c-1.9,2.2-4,4.1-6.7,5.3c-2.9,1.3-4.3,3.3-1.9,6.1
	c2.3,2.6-1.1,4.3-0.6,6.6C-716.8,134.2-718.3,134.2-719.8,134.2z"/>
<path class="st16" d="M-786-71.4c-0.9,0.3-2,1-2.8,0.8c-3.6-1.2-6.1,0.6-8.8,2.4c-0.5,0.3-1.1,0.4-1.7,0.7c1.1-2.1,2.1-4.3,5-4.4
	c1.3,0,2.9-0.2,2.2-2c-0.5-1.3-1.6-2.5-3.4-2.1c-0.3,0.1-0.6,0.4-0.9,0.6c-1.6,0.6-3.3,1-4.5-0.4c-1.3-1.4-0.7-3.2,0.2-4.5
	c1.4-2,1.6-3.1-1.2-4c-3.4-1.1-1.5-4.2-1.9-6.5c2.2,0,4.5,0,6.8,0c-1.3-2.9-7.6-4.5-3.1-8.5c3.8-3.4,5.4,2,8,3.8
	c1-2.9-2.2-6.9,2.4-8.5c1.9-0.7,3.1,0.5,4,2c0,2.3,0,4.6,0,7.4c1.6-1.3,2.5-2.6,3-4.1c0,0,0.1-0.2,0.1-0.2c0.4-0.5,0.9-1,1.3-1.4
	c3.6-0.8,5,1.3,5.8,4.3c-0.7,0.8-1.6,1.5-2.2,2.4c-1,1.4-0.2,2.8,1.1,2.5c4.5-0.9,4.1,2.2,4.2,4.9c-1.7,3.5-5.1,1.6-7.8,2.2
	c0.2,1.6,1.8,1.9,2.6,2.8c1.7,1.8,2.2,3.8,0.5,5.6c-1.9,2-3.9,1-5.5-0.7c-1-1.1-1.9-2.2-3.1-3.8C-786-76.8-784.3-74-786-71.4z
	 M-788.7-91.5c-2.9,0-3.9,1.9-3.7,4.2c0.1,2,0.9,4.1,3.5,4c2.5-0.1,4.1-1.5,4.1-4.3C-785-90.2-786.3-91.5-788.7-91.5z"/>
<path class="st15" d="M-719.8,204c2.9-2,6.4-1.9,9.5-3c9.8-3.3,18.8-7.8,27.3-13.6c2.2-1.5,3.2-3.2,3-5.9
	c-0.8-9.3-1.3-18.6-3.1-27.8c-1.9-9.5-8.3-14.6-17.1-17.3c-1.8-0.5-3.7-0.3-5.3-1.5c1.9-1.6,3.9-0.1,5.7,0.2
	c8.2,1.4,15.6,4.2,20,11.9c2.3,4,2.8,8.5,3.3,12.9c1,7.2,1.4,14.6,2.4,21.8c0.6,4.4-2.9,5.7-5.3,7.3c-11.9,8-24.9,13.2-39.1,15.5
	C-718.9,204.6-719.3,204.2-719.8,204z"/>
<path class="st17" d="M-467.9-24.7c2.1,3.3,1.1,6.6-2.4,9.4c-1.7,1.3-4.2,1.6-5.1,4c-3,0-6,0.1-9,0.9c-1-1.2-2.7-0.6-3.8-1.5
	C-485.8-18.9-476.4-24.8-467.9-24.7z"/>
<path class="st11" d="M-775.4,120.8c2.9,0.6,4.9,2.8,7.4,4.1c7.9,4.2,16.3,6.5,25.2,7.1c1.1,0.1,2.3,0.3,3.2,0.8
	c1.8,1,2.2,2.4,0.4,3.8c-0.8,0.6-1.7,1.2-2.6,1.4c-6.3,1.5-12.6,0.7-18.8-0.8c6.8-0.3,13.7,1.4,20.2-2.3c-10-1.4-19.5-4.2-28.7-8.3
	C-770.7,124.3-774.3,123.9-775.4,120.8z"/>
<path class="st15" d="M-488.2-12c1.1,0.9,2.8,0.3,3.8,1.5c-2.3,3.5-8.3,5.8-12.9,5c-1-0.2-1.9-0.4-2.9-0.6c3.8-1.5,7.6-2.9,10.5-5.9
	C-489.4-12.2-488.7-12-488.2-12z"/>
<path class="st15" d="M-544.4-197.8c-0.2,0.9-0.5,1.6-1.5,0.6C-545.5-197.7-545-197.9-544.4-197.8z"/>
<path class="st15" d="M-731.8,19.6c-0.6,0.6-1.1,0.6-1.5-0.1C-732.7,18.8-732.2,18.8-731.8,19.6z"/>
<path class="st15" d="M-724.3,204.8c0.4-0.6,1-0.8,1.6-0.3C-723.1,205.2-723.6,205.6-724.3,204.8z"/>
<path class="st15" d="M-730.3,205.5c0.4-0.7,0.9-0.8,1.5-0.1C-729.2,206.1-729.7,206.2-730.3,205.5z"/>
<path class="st11" d="M-777.8,118.5c0.3,0.3,0.7,0.5,1,0.8C-777.1,119-777.5,118.7-777.8,118.5z"/>
<path class="st11" d="M-776.8,119.2c0.3,0.3,0.5,0.5,0.8,0.8C-776.5,120-776.8,119.7-776.8,119.2z"/>
<path class="st11" d="M-776.1,120c0.3,0.3,0.5,0.5,0.8,0.8C-775.8,120.7-776.1,120.5-776.1,120z"/>
<path class="st15" d="M-737-191.9c-0.3,0.4-0.6,0.4-0.8-0.1C-737.5-191.9-737.2-191.9-737-191.9z"/>
<path class="st18" d="M-581.4-140.2c3-11.2,9.8-20.1,18.3-27.6c8.3-7.4,18.1-12.3,28.9-15.1c5.4-1.4,7.1-0.7,10.3,4
	c3.9,5.8,5.9,12.4,7.5,19c2.7,11.6,5.4,23.3,5.1,35.4c-1.1-0.3-2-1.4-3.6-1.3c-0.2,1.7-0.5,3.5-1.8,4.9c-1.2,0.7-2.4,1.4-3.7,2
	c-0.5,0-1,0.1-1.5,0.1c-0.5,0-0.9-0.1-1.4-0.1c-2.8-1.6-6.2-2.8-5.2-7.2c0-0.2-0.5-0.4-0.8-0.6c0,0,0,0,0,0
	c-0.3-2.5,1.5-3.9,3.2-5.1c4-2.7,7.7-0.2,11.6,1.3c0.2-1.6-0.3-2.6-0.8-3.5c-4.6-9.5-2.8-11.9-15.8-7.3c-0.7,0.2-1.5,0.9-1.9-0.1
	c-0.5-1.1,0.1-2,1.2-2.3c2.4-0.6,4.8-1.3,7.3-1.5c2.5-0.2,3.1-0.7,1.5-3c-2.9-4.2-6.2-8.2-9.6-12c-1.9-2.1-2.6-1.8-3.7,0.7
	c-4.3,9.6-10.6,17.4-20.1,22.5c-1.8,1-3.6,1.9-6.1,1.8c2.4-2.5,5.1-4.2,6.8-6.8c-2.4-1.6-4.4-1.4-6.6,0.4c-5.1,4.1-10.9,7-17.2,8.8
	C-580.1-135.3-580.8-137.7-581.4-140.2z M-557.4-145.2c4.8,1.2,8.7-3,9.6-10.4C-551.1-152.1-554.2-148.7-557.4-145.2z"/>
<path class="st17" d="M-581.4-140.2c0.7,2.4,1.3,4.9,2,7.3c0.5,8.1,3.1,15.8,4.1,23.7c0.6,5.2,3.2,9.2,6.9,12.8
	c4.4,4.3,9.6,7.4,15,10.1c8.7,4.3,17.2,4.1,25.5-0.8c1,0,2,0,3,0c-2.5,5-7.5,7-12,9.6c-7,4.1-14.4,4.9-22.3,3.3
	c-7.6-1.6-13.3-6.2-17.5-12.4c-11.2-16.4-11-34.2-5.7-52.5C-582.2-139.5-581.7-139.8-581.4-140.2z"/>
<path class="st19" d="M-523.3-118.8c0.5,0,0.9,0.1,1.4,0.1c0.6,0.9,1.1,1.1,1.5-0.1c1.2-0.7,2.4-1.4,3.7-2c1.9,1.6,4.4,0.5,6.5,1.3
	c1.7,5.3,0.9,10.8,1.8,16.2c-1.1,1.2-1.1,3.2-3,3.7c-0.8-0.4-1.5-0.3-2.4-0.1c-3.3,0.8-6.9,4.2-9.7-1.2c-0.8-1.6-3-0.9-4.1,0.7
	c-0.9,1.3-0.9,0.5-1.2-0.2c0.3-0.9,0.6-1.8,0.9-2.7c0-0.3,0-0.6,0-0.8c0.6-0.2,1.5-0.3,1-1.1c-1.9-3-0.8-5.4,0.8-8.1
	C-525-115.1-523-116.4-523.3-118.8z"/>
<path class="st17" d="M-576.9-74.9c-11.6-6.1-21.2-14-25.6-26.7c-2-5.9-1.7-12.1,0-18c2.4-8.7,4.9-17.4,8.6-25.7
	c7.2-16.5,17.7-29.7,34.4-37.4c6.5-3,15.6-4,21.4-2.3c-6.2,0.4-11.6,1-16.9,2.7c-10.7,3.5-18.8,10.1-25.5,19
	c-10.4,13.9-16.2,29.8-20.2,46.5c-2.7,11.4,1.2,20.8,8.6,29.1c4.2,4.7,9.2,8.7,14.7,12C-577.1-75.7-577-75.2-576.9-74.9z"/>
<path class="st17" d="M-511.5-99.8c1.9-0.5,1.9-2.5,3-3.7c3.9-3.8,7.5-7.9,12.4-10.5c4.2-2.2,9.4-2,13.4,1.4c-3.2-1-5.8-1.7-8.5-1.3
	c-5.8,0.9-9.3,4.5-11.4,9.6c-5.6,13.8-10.2,28-13.2,42.7c-3,14.6-3.3,29.4-3.1,44.2c0,1,0,2-0.3,2.9c-3.6-29.3,0.6-57.5,12.3-84.7
	c-0.4-0.2-0.8-0.3-1.1-0.5c-2.2,3.8-4.6,7.5-6.7,11.3c-2.1,3.8-3.9,7.8-6.3,11.5c0.6-5.3,3.6-9.8,5.1-14.7c0,0,0,0,0,0
	c1-1.1,2.2-2.2,2.2-3.9C-512.8-96.7-511.5-98-511.5-99.8z"/>
<path class="st17" d="M-489.4-102.5c2.9,26.7,3.3,53.2-3.3,79.4C-489.4-49.4-489.4-76-489.4-102.5z"/>
<path class="st20" d="M-524.8-87c-1,0-2,0-3,0c0.7-2.3,3.2-2.4,4.8-3.4c2.3-1.4,4-4.1,7.1-4.1c0,1,0,2,0,3c0,0,0,0,0,0
	c-2.3-0.4-3.6,1.1-5.1,2.4C-522.1-88.2-523.2-87.1-524.8-87z"/>
<path class="st16" d="M-510.2-119.6c-2.1-0.8-4.6,0.4-6.5-1.3c1.3-1.4,1.6-3.2,1.8-4.9c1.6-0.1,2.4,0.9,3.6,1.3
	C-510.4-123-510.9-121.2-510.2-119.6z"/>
<g>
	<path class="st21" d="M344.2,243.7c-0.6-3.2,3.1-4,3.2-6.8c1.9-1.9,0-3.2-0.7-4.7c-2.3-5.1-0.2-9.5,4.8-10.1c1-0.1,2.1,0.4,3-1.2
		c-3.9-1.3-7.2-0.2-10,2.4c-1.7,1.6-3,1.8-4.7,0.5c-9.5-7.5-18.2-15.8-22.2-28.6c-0.3-0.9-0.4-2.1-2.1-2.2
		c2.9,15.4,11.5,25.6,23,33.1c3.1,2,4.5,4,3.9,7.8c-6.9-1.3-11.6-6.9-17.1-10.9c-7.5-5.4-13.5-12.8-17.7-21.5
		c-4.4-9.3-4.6-19-1.2-29.3c8-24.2,18.4-46.7,35.6-64.5c9.4-9.7,20.4-16.6,33.9-15.5c4.6,0.4,9.1,1.2,13.7,1.8c0,1.1,0.1,2,1,2.8
		c4.7,3.5,10.8,5,13.5,11.5c0.2,0.5,1.2,0.6,1.7,1.1c1,0.8,2.2,1.6,2.7,2.7c2.1,5,5.6,9.1,7.8,14.1c5,11,10.4,21.6,12.8,33.9
		c1.5,7.5,3.9,14.9,4.9,22.7c1,8.1,1.6,16.2,1.1,24.3c-0.2,4.4-2.3,8.4-4.6,11.8c-4.2,6.2-11.5,8.5-15.8,14.7
		c-0.3,0.5-1.6,0.2-2.4,0.3c-1.2-5.5-6.4-4-9.5-6.6c10.4-6.5,18.2-14.9,19.9-28.5c-4.7,10.6-11.3,19.4-20.3,25.7
		c-2,1.4-4,3.4-6.7,1.6c-2.7-1.8-5.6-2.9-8.6-3.9c-0.1-2,0.7-2.9,2.5-2.7c4.1-0.5,6.8-3.6,9.8-6.3c6.3-3.6,11.6-8.8,15.7-15.2
		c3.4-5.2,4.7-11.1,4-17.8c-0.6-5.6-3.1-10.6-3.5-16.1c0.3-3.2-3.5-4.1-3.2-7.3c-3.1-9.3-8.3-17-14.6-24
		c-4.8-5.3-10.2-9.7-16.7-10.3c-17.5-1.5-32.8,4.2-44.6,19.3c-1.8,2.3-3.8,4.3-4.1,7.6c-1.5,1-2.1,2.8-2.6,4.5
		c-3.2,9.5-3.8,19.3-2.6,29.3c1.9,15.4,10.9,25,22,32.8c2.4,1.7,4.7,3.6,7.8,3.5l0,0c0.5,1,1.1,0.9,1.7,0c8.1,1.5,16.3,3,24.4,4.5
		c0.8,0.3,1.5,0.6,2.3,0.8c6.5,1.8,7.1,2.9,5.5,10.2c-0.2,0.7-0.3,1.5-0.4,2.2c-0.4,3-1.7,4.1-4.6,4.1c-7.4,0.1-14.8-1.3-22.2-1.2
		c-3-2.1-6.7-1.7-9.9-3.1c2.8,3,6.6,2.8,9.9,4.1c6.9,0.6,13.7,1.2,20.6,2c1.2,0.1,3.2-0.1,3.2,1.8c0,1.9-1.1,3.4-3.4,3.6
		c-5.5,0.3-11,1-16.6,0.9c-5.3-0.1-10.5,0-15.8,0c10,2.4,20.1,1.8,30.2,1.5c2.1-0.1,5,0.3,6.3-2.9c1.8-4.2,3.9-8.3,5.3-12.6
		c2-6,3.1-6.6,8.9-5.5c3.7,0.7,6.6,3.3,10.2,4c3,4.9,6,9.7,9,14.6c3,8,5.7,16.1,9.6,23.7c0.6,1.2,1.6,2.6,0.8,3.7
		c-2.5,3.2-4.3,7.4-8.7,8c-3.2-13.4-6.4-26.7-9.5-40.1c-1,1.3-1.2,2.4-0.9,3.4c2.4,7.7,3.2,15.8,5.4,23.5c1.4,4.8,2.1,10,5.1,14.1
		c0.4,0.6,0.8,1.2,1.2,1.8c3.9,4.9,3.4,6.8-1.8,9.6c-4,2.1-8.3,2.2-12.5,3.2c-1-11.2-1.9-22.5-1.4-33.8c0.3-7.4,0.9-14.7,1.4-22.1
		c0.5-6.9-5.1-12.5-14.4-11.8c11.7,3.8,12.1,13.2,12,23.2c-0.1,14.8-0.5,29.6,0.8,44.4c0.4,7.9,1.1,15.7,0.8,23.6
		c-0.3,1.8-0.5,3.6-0.8,5.4c-6.2,0.8-8.1-0.9-9.9-1.7c-5.1-2.9-10-5.7-14.9-8.3c-4.7-2.6-9.1-2.4-12.9,2.3c-0.2,0.2-0.7,0.1-1.6,0.1
		c0.9-5.1,3.7-9.2,4.1-14.1c6.2-16.9,11.5-34.1,18.5-51.7c-3,1.5-3.5,3.7-4.2,5.5c-3.3,8.6-6,18.4-8.7,27.2
		c-2,6.7-5.6,11.8-6.7,18.9c-2.1,4.5-3.4,9.4-4.5,14.4c-0.2,1,0,2.9-1.6,2.6c-1.4-0.3-0.9-1.9-1-3c0-0.4,0-0.9,0-1.4
		c-0.1-8.4,2.1-16.1,4.5-24c2.6-8.7,6.2-16.9,9-25.4c1.9-5.8,5.9-10.5,7-16.7c-0.3-0.7-0.6-0.6-0.9,0c-1.5,2.6-3.2,5.1-4.6,7.8
		c-0.6,1.3-1,2.4-2.6,2.1c-9.7-1.9-19.5-2.8-28.7-7.1c-1.3-0.6-2.6-1.9-2.5-2.6C347.5,249.3,344.1,247,344.2,243.7z M392.3,252
		c0.3-0.6,0.6-1.2,0.9-1.8c2.9-1.6,2.9-5.1,4.1-7.8c-1.9,2.2-3.9,4.3-4.2,7.6C392.8,250.7,392.6,251.3,392.3,252
		c-0.3,0.3-0.5,0.6-0.6,1c0,0,0.2,0.2,0.3,0.2C392.1,252.8,392.2,252.4,392.3,252z M351.1,234.8c-0.3,0.2-0.4,0.4-0.6,0.6
		c0.3,0.3,0.5,0.7,0.8,0.8c0.4,0.1,0.8-0.2,0.6-0.7C351.8,235.2,351.4,235,351.1,234.8z"/>
	<path class="st21" d="M412.7,233.8C412.7,233.8,412.7,233.8,412.7,233.8c0.8-0.1,2,0.2,2.3-0.2c4.4-6.2,11.6-8.5,15.8-14.7
		c2.3-3.4,4.4-7.5,4.6-11.8c0.5-8.1-0.1-16.2-1.1-24.3c-1-7.8-3.4-15.1-4.9-22.7c-2.5-12.3-7.8-22.9-12.8-33.9
		c-2.3-5-5.7-9-7.8-14.1c-0.5-1.1-1.7-1.9-2.7-2.7c-0.5-0.5-1.5-0.6-1.7-1.1c-2.7-6.5-8.8-8-13.5-11.5c-1-0.7-1-1.7-1-2.8
		c11,1.9,19.2,8.8,25.9,18c15.5,21.3,23.4,46.3,27.1,73.1c1.1,8,1.9,16.1,0.8,24.2c-1,7.4-5.7,11.8-10.5,16.1
		c-3.2,2.9-6.9,5.3-10.5,7.7C420.9,234.3,415.7,238.7,412.7,233.8z"/>
	<path class="st22" d="M342.6,233.8c0.5-3.8-0.9-5.8-3.9-7.8c-11.5-7.6-20.2-17.7-23-33.1c1.7,0.1,1.8,1.4,2.1,2.2
		c4,12.8,12.7,21.1,22.2,28.6c1.7,1.3,3,1,4.7-0.5c2.7-2.6,6-3.7,10-2.4c-0.9,1.5-2.1,1.1-3,1.2c-5,0.7-7.1,5-4.8,10.1
		c0.7,1.5,2.5,2.8,0.7,4.7C345.6,236.1,343.5,236.1,342.6,233.8z"/>
	<path class="st20" d="M412.7,156.6c-3.2-3.3-21.9-11.2-25.8-12.3c-8.7-2.3-17.7-2.1-26.6-0.4c-3.2,0.6-23.3,13.9-26.7,15.4
		c-1.9-3.2,0.2-6.8-0.9-10.1c0.3-3.3,2.3-5.3,4.1-7.6c11.9-15.1,27.2-20.8,44.6-19.3c6.5,0.6,11.9,5,16.7,10.3
		C404.4,139.6,409.6,147.3,412.7,156.6z"/>
	<path class="st22" d="M332.7,149.2c1.1,3.3-1,6.9,0.9,10.1c-1.6,3.9-0.9,8-0.6,11.9c0.5,6.8,1.5,13.6,2.3,20.4
		c0.3,2.2,2.4,7.1,2.5,7.6c3.2,8.4,10.2,12.3,16.4,17.3c1.1,0.9,2.5,1.1,3.1,2.7c-3.1,0.1-5.4-1.8-7.8-3.5
		c-11.1-7.8-20.1-17.4-22-32.8c-1.2-10-0.6-19.8,2.6-29.3C330.6,152.1,331.2,150.3,332.7,149.2z"/>
	<path class="st22" d="M383.3,223.9c0.6-2.9,2.7-1.5,4.1-1.8c3,1,5.9,2.1,8.6,3.9c2.7,1.8,4.7-0.2,6.7-1.6c9-6.3,15.7-15,20.3-25.7
		c-1.7,13.6-9.5,22-19.9,28.5c3.1,2.6,8.3,1.2,9.5,6.6c0,0,0,0,0,0c-3.6-0.7-6.5-3.3-10.2-4c-5.9-1.1-6.9-0.5-8.9,5.5
		c-1.4,4.3-3.6,8.4-5.3,12.6c-1.3,3.2-4.2,2.9-6.3,2.9c-10.1,0.3-20.2,0.9-30.2-1.5c5.3,0,10.5-0.1,15.8,0
		c5.6,0.1,11.1-0.6,16.6-0.9c2.3-0.1,3.4-1.6,3.4-3.6c0-1.9-2-1.7-3.2-1.8c-6.8-0.8-13.7-1.3-20.6-2c0-0.3,0-0.7-0.1-1
		c7.4-0.1,14.8,1.3,22.2,1.2c2.9-0.1,4.2-1.2,4.6-4.1c0.1-0.7,0.3-1.5,0.4-2.2c1.6-7.4,1-8.5-5.5-10.2
		C384.8,224.5,384,224.1,383.3,223.9z"/>
	<path class="st22" d="M398.7,212.9c1-1.9,4-5.3,4.2-5.4c1.6-1.1,6.9-11.4,7.2-15.5c1.4-8.5,2.8-17,4.1-25.5
		c0.2-1.2,0.1-2.5,1.7-2.6c0.4,5.6,2.9,10.5,3.5,16.1c0.7,6.6-0.7,12.5-4,17.8c-4.1,6.4-9.3,11.6-15.7,15.2
		C399.3,213,399,213,398.7,212.9z"/>
	<path class="st22" d="M410.2,299.2c-0.5,0-1.1,0-1.6,0c-1.3-14.8-0.9-29.6-0.8-44.4c0.1-10-0.2-19.4-12-23.2
		c9.3-0.7,14.9,4.9,14.4,11.8c-0.6,7.3-1.1,14.7-1.4,22.1C408.3,276.8,409.2,288,410.2,299.2z"/>
	<path class="st22" d="M369.4,320.6c-0.3,0-1.4,2.2-1.7,2.1c1.2-9.4,5.6-19.4,8.2-28c3.5-11.5,7.8-22.4,11.8-33.5
		c0.9-2.4,1.5-5.3,4.7-7C383.8,276.7,377.1,298.7,369.4,320.6z"/>
	<path class="st22" d="M423.3,283.7c0,0.3,0,0.6,0,0.9c-3-4.1-3.7-9.3-5.1-14.1c-2.2-7.7-3-15.8-5.4-23.5c-0.3-0.9,0-2.1,0.9-3.4
		C417,257,420.2,270.4,423.3,283.7z"/>
	<path class="st20" d="M398.7,212.9c0.3,0,0.7,0.1,1,0.1c-2.9,2.7-5.7,5.8-9.8,6.3C392.1,216,395.4,214.5,398.7,212.9z"/>
	<path class="st20" d="M363.7,240.1c0,0.3,0,0.7,0.1,1c-3.3-1.2-7.1-1-9.9-4.1C357.1,238.4,360.7,237.9,363.7,240.1z"/>
	<path class="st20" d="M393.1,250.1c0.3-3.3,2.3-5.4,4.2-7.6c-1.2,2.7-1.2,6.1-4.1,7.8C393.2,250.2,393.1,250.1,393.1,250.1z"/>
	<path class="st21" d="M351.1,234.8c0.3,0.2,0.7,0.4,0.8,0.7c0.2,0.5-0.2,0.9-0.6,0.7c-0.3-0.1-0.5-0.5-0.8-0.8
		C350.7,235.2,350.9,235,351.1,234.8z"/>
	<path class="st21" d="M357.2,219.3c0.6,0,1.1,0,1.7,0C358.3,220.2,357.8,220.3,357.2,219.3z"/>
	<path class="st22" d="M392.3,252c0.3-0.6,0.5-1.3,0.8-1.9c0,0,0.1,0.2,0.1,0.2C392.9,250.8,392.6,251.4,392.3,252
		C392.3,252,392.3,252,392.3,252z"/>
	<path class="st22" d="M392.3,252c-0.1,0.4-0.2,0.8-0.3,1.2c-0.1-0.1-0.3-0.2-0.3-0.2C391.9,252.7,392.1,252.3,392.3,252
		C392.3,252,392.3,252,392.3,252z"/>
	<path class="st22" d="M385.8,252.9c-0.3,0-0.6,0-0.9,0C385.2,252.3,385.5,252.2,385.8,252.9z"/>
</g>
<path class="st23" d="M-772.2-86.2c-0.2-2.7,0.3-5.7-4.2-4.9c-1.3,0.2-2.1-1.2-1.1-2.5c0.6-0.9,1.5-1.6,2.2-2.4
	c4.7,2.9,11.5,0.3,13.7-5.1c1.4-3.5,0.2-6-2.6-8.1c-4-3-8.9-2.4-13.5-3c-0.8-0.1-1.9,0.6-1.8,1.5c0.3,3.4-1.6,3.2-3.9,2.6
	c-2-6.8-3.3-13.9-3.6-20.9c-0.5-15.8,7.6-24.9,23.9-27.7c11-1.8,22.3-1.8,33.4,0.6c12.9,2.7,21.5,12,19.2,26.7
	c-1,6.6-2.1,13.2-3.3,19.8c-2.2,0.8-4.3,1.2-6-1.1c-0.6-0.8-1.5-0.9-2.7-0.9c-2.2,0-4.2,0.6-6.3,1.2c-4.9,1.4-6.7,3.8-5.9,8.7
	c0.8,4.8,2.5,6.2,7.5,7.3c1.8,0.4,4.9-0.8,5.2,2.8c-5.9,4.8-11.8,9.6-18.9,12.5c-5.9,2.4-11.8,2.7-17.6-0.6c-3.4-2-7-3.8-10.5-5.7
	C-770-85.9-771-86.4-772.2-86.2z M-716.8-119.3c0.1-0.3,0.4-0.9,0.4-1c-4.2-2.5-7.8-6.3-13-7c-3.9-0.5-6.7,1.7-7.6,5.8
	c-0.1,0.1-0.2,0.1-0.3,0.2c0.1-0.1,0.2-0.1,0.3-0.2c1.5,0.7,1,1.9,0.5,2.8c-0.6,1.1-0.1,1.5,0.6,2.1c4.4,3.7,6.6,4,11.5,1
	C-720.7-114.5-719.2-117.8-716.8-119.3z M-782-119.9c0,0.5-0.3,1,0.3,1.6c2.4,2.6,5.5,3.5,8.9,3.6l0.3-0.1l0.3,0.1
	c0.4,0.2,0.8,0.5,1.2,0.7c1,0.1,1.9,0.4,2.9,0.4c4.2,0.1,7.7-3.3,7.7-7.5c0-3.2-4.3-6.6-8-6.3c-1.9,0.2-3.7,0.7-5.2,1.8
	C-776.6-123.7-779.3-121.8-782-119.9z M-752.6-94.6c-1.4,0.3-3.2,0.1-3.6,1.6c-0.3,1.2,0.8,2.2,1.9,3c3.9,2.7,8,2.7,11.2-0.4
	c0.8-0.8,2.5-1.6,1.8-2.9c-0.8-1.3-2.4-2.4-4.2-1.7C-747.9-94-750.2-93.4-752.6-94.6z M-721.2-136.4c-2.8-4.1-17.1-4.7-19.3-1.2
	c-0.3,0.5-0.3,1.3-0.1,1.8c0.3,0.8,1.1,0.3,1.6,0.1C-733.4-138.6-727.5-138.9-721.2-136.4z M-778.2-137.7c0.7,1.6,1.8,0.9,2.7,0.7
	c4.7-0.7,9.2-0.4,13.5,1.7c0.6,0.3,1.5,1.5,2.2,0.1c0.6-1.3-0.1-2.2-1.3-2.6C-766.9-139.3-772.5-140.5-778.2-137.7z M-752.9-101.4
	c3.4,2.2,3.8,2.2,5.5-0.3C-749-102-750.7-102.2-752.9-101.4z M-780.4-135.8c0-0.1-0.1-0.2-0.1-0.2c-0.2,0.1-0.4,0.3-0.6,0.4
	c0,0,0.2,0.2,0.2,0.3C-780.7-135.4-780.6-135.6-780.4-135.8z"/>
<path class="st19" d="M-722.1-91.5c-0.2-3.6-3.4-2.4-5.2-2.8c-5-1.1-6.7-2.5-7.5-7.3c-0.8-4.9,1-7.3,5.9-8.7
	c2.1-0.6,4.1-1.3,6.3-1.2c1.1,0,2,0.1,2.7,0.9c1.7,2.3,3.8,1.9,6,1.1c-0.9,5.7-2,11.4-6,16C-720.5-92.7-721.1-91.9-722.1-91.5z"/>
<path class="st19" d="M-783.5-108c2.2,0.6,4.2,0.8,3.9-2.6c-0.1-1,1-1.6,1.8-1.5c4.6,0.5,9.5,0,13.5,3c2.8,2,4,4.6,2.6,8.1
	c-2.2,5.4-8.9,8-13.7,5.1c-0.8-3-2.2-5.1-5.8-4.3c-0.3-0.3-0.6-0.6-0.9-0.9C-782.5-103.5-783-105.7-783.5-108z"/>
<path class="st12" d="M-782.6-98.7c-0.5,1.5-1.4,2.7-3,4.1c0-2.8,0-5.1,0-7.4C-784.8-100.8-784.7-98.8-782.6-98.7z"/>
<path class="st12" d="M-782-101.2c0.3,0.3,0.6,0.6,0.9,0.9c-0.4,0.5-0.9,1-1.3,1.4C-782.8-99.7-782.8-100.6-782-101.2z"/>
<path class="st19" d="M-688.3-67.4c1.6,2.7,4.7,4.5,4.4,8.2C-687.7-60.7-688.2-63.9-688.3-67.4z"/>
<path class="st23" d="M-713.6,100.6c-0.2,2.7-2.4,4-4.1,5.6c-4,3.7-8.6,6.7-13.4,9.3c-7.2,3.9-14.8,4.4-22.3,1.4
	c-7.8-3.1-14.8-7.5-20.5-13.8c-0.7-0.7-1.3-1.5-1.4-2.6c1.1-0.1,1.9,0.2,2.5,1.2c2.3,4,5.6,4,9.5,2.5c3.1-1.2,6.5-5.7,6.7-9.4
	c0.2-3.7-2.8-7.7-6.3-9.3c-3-1.4-6.1-0.5-9.1-0.7c-5.1-0.4-5.3,0-5.6,5.3c-0.2,3.8,2.7,6.7,2.3,10.5c-2.6-2.9-4-6.2-4.6-10.2
	c-1.1-7.9-1.1-15.9-2.1-23.7c-0.4-2.9,0.4-5.3,2.4-7.4c7.7-7.7,16-14.2,27.2-15.9c16.7-2.6,30.8,1.5,42.3,14.5c3.7,4.2,5,8,3.7,13.3
	c-1.6,7-2.5,14.2-3.8,21.2c-0.4,2.1-0.8,4.1-2.1,5.9c-1.6-1.6-0.2-2.9,0.3-4.4c2.5-7-0.2-10.5-7.4-9.8c-1.1,0.1-2.5,1.1-2.8-1.1
	c0.6-0.8,1.2-1.7,2.3-2c3,0.9,5.8-0.5,7.5-3.7c-3-2.7-5.8-5.7-9.6-7.2c-5.3-2.1-9.7,0.4-11.1,6.2c-0.9,0.6-3.7-0.3-2.6,1.6
	c1.2,2.2,2.9,5,6.4,4.5c0.9,0.3,1.7,0.7,2.6,1c0.3,1.7-0.5,2.8-1.8,3.7c-2.5,1.8-2.3,4.8-3.1,7.4c-0.6,1.8,2,2,2.5,3.3
	c1,2.5,3.9,2.1,5.2,3.6c3,3.3,5.4,2.8,8.2,0C-715.1,100.7-714.4,100.5-713.6,100.6z M-746.8,90c-0.3-0.2-0.4-0.9-0.9-0.3
	C-747.4,89.8-747.1,89.9-746.8,90c1.8,3.5,3.4,3.8,5.8,0.7C-743.4,91.7-745,90.5-746.8,90z M-748.9,105c3.6,2.9,6.4,2.9,11.8-0.1
	c1.8,0.6,4.4-2.1,5.5,1.4c0.1,0.3,1.2-0.4,1.1-0.5c-1.6-1.9-0.2-5.4-2.4-6.4c-2.7-1.2-5.9-3-9.2-0.8c-0.6,0.4-1.5,0.6-2.1,0.2
	c-3.5-2.4-6.5-0.3-10.6,1.2C-751.6,100.9-752.6,105.2-748.9,105z M-767.7,82.4c4.3,1.5,8.4,0.9,10.2-1.7c1.6-2.3,1.9-4.8,0.3-7.4
	c-2-3.2-4.9-4.5-8.6-3.7c-4.7,1-7.5,4.9-11,7.7C-775,81.3-771.5,82.2-767.7,82.4z M-717.2,59.6c-5.4-3.9-11.4-2.8-17.4-1.2
	c-1.7,0.5-2.2,1.5-1.2,3.3C-730,58.5-723.8,58-717.2,59.6z M-773.7,59.2c1.6,0.2,2.2,0.4,2.6,0.3c5.3-1.1,10.4-0.9,15.3,1.7
	c0.7,0.4,1.5,0.7,1.8-0.4c0.3-1.1-0.2-1.9-1.4-2.3C-761.2,56.8-767,55.9-773.7,59.2z M-715.4,60.4l0-0.1l0.2,0.1L-715.4,60.4z"/>
<path class="st19" d="M-722.1,83c0.2,2.1,1.6,1.2,2.8,1.1c7.2-0.7,9.8,2.8,7.4,9.8c-0.5,1.4-1.8,2.8-0.3,4.4c-0.1,0.5-0.1,1-0.2,1.6
	c-0.2,0.2-0.4,0.4-0.6,0.6c-0.2,0.1-0.4,0.1-0.6,0.1c-0.8-0.1-1.5,0.1-2.1,0.7c-2.7,2.9-5.2,3.3-8.2,0c-1.3-1.4-4.2-1.1-5.2-3.6
	c-0.5-1.3-3.1-1.5-2.5-3.3c0.8-2.5,0.6-5.6,3.1-7.4c1.4-1,2.1-2.1,1.8-3.7C-725.1,83.2-723.6,83.1-722.1,83z"/>
<path class="st11" d="M-720.4,118c-2.9,6-11.2,10.4-19.3,10.2C-732.9,125.6-725.9,123.2-720.4,118z"/>
<path class="st23" d="M-713,100.4c0.2-0.2,0.4-0.4,0.6-0.6C-712.7,100-712.8,100.2-713,100.4z"/>
<path class="st12" d="M-788.7-91.5c2.4,0,3.7,1.3,3.8,3.8c0.1,2.8-1.6,4.1-4.1,4.3c-2.6,0.2-3.3-2-3.5-4
	C-792.6-89.6-791.6-91.5-788.7-91.5z"/>
<path class="st23" d="M-515.9-94.5c-3.1,0-4.8,2.7-7.1,4.1c-1.6,1-4.1,1.1-4.8,3.4c-8.4,4.8-16.9,5.1-25.5,0.8
	c-5.5-2.7-10.6-5.8-15-10.1c-3.7-3.6-6.3-7.7-6.9-12.8c-1-8-3.6-15.7-4.1-23.7c6.3-1.8,12.1-4.7,17.2-8.8c2.2-1.7,4.1-2,6.6-0.4
	c-1.7,2.7-4.3,4.4-6.8,6.8c2.5,0.1,4.3-0.8,6.1-1.8c9.4-5.1,15.7-13,20.1-22.5c1.1-2.5,1.9-2.7,3.7-0.7c3.4,3.8,6.7,7.8,9.6,12
	c1.6,2.3,1,2.8-1.5,3c-2.5,0.2-4.9,0.9-7.3,1.5c-1.1,0.3-1.7,1.2-1.2,2.3c0.4,1,1.2,0.3,1.9,0.1c13-4.6,11.2-2.2,15.8,7.3
	c0.5,1,1,2,0.8,3.5c-3.8-1.5-7.6-4-11.6-1.3c-1.7,1.2-3.5,2.5-3.2,5.1c0,0-0.1,0-0.1,0s0.1-0.1,0.1-0.1c0.3,0.2,0.8,0.5,0.8,0.6
	c-0.9,4.4,2.4,5.6,5.2,7.2c0.3,2.4-1.7,3.7-2.7,5.4c-1.6,2.7-2.7,5.1-0.8,8.1c0.5,0.8-0.4,0.9-1,1.1c-5.7-2-11.7,0.8-17.6-1.1
	c-1.3-0.4-3.7,0.1-4.9,1.9c0,0.4,0.1,0.9,0.1,1.3c-0.3,0.2-1.4,0.2-0.8,0.7c2.2,1.8,4.2,3.8,7,4.7c5.9,1.8,10.7,0.2,15-3.9l0.2-0.1
	c0.3,0.7,0.3,1.6,1.2,0.2c1-1.6,3.2-2.2,4.1-0.7c2.8,5.4,6.4,2,9.7,1.2c0.9-0.2,1.6-0.2,2.4,0.1c0,1.8-1.3,3-2.2,4.4
	C-514.5-95.2-515.4-95.3-515.9-94.5z M-564.9-120c1.3-0.5,2.3,0.7,3.5,0.9c3.3,0.5,7.5-1.3,8.4-4.3c0.8-2.6-0.1-5.2-2.2-7.2
	c-3-2.9-8.1-3.1-11.8,0.3c-2.2,2-4.7,3.6-7.2,5.2C-572.1-121.7-568.7-120.5-564.9-120z M-572.9-109.5c-0.9,5.3,3.3,10.9,8.1,11.2
	c5.5,0.3,9.9-3.8,9.9-9c0-5.4-5.3-11-10.2-10.9C-568.5-118-572.8-113.2-572.9-109.5z M-537.4-111.4c-1.7,0.4-3.4,0.2-5.5,0.2
	C-539.8-109.1-539.8-109.1-537.4-111.4z"/>
<path class="st19" d="M-557.4-145.2c3.2-3.5,6.3-6.9,9.6-10.4C-548.8-148.2-552.6-144-557.4-145.2z"/>
<path class="st23" d="M-520.4-118.8c-0.4,1.2-1,1-1.5,0.1C-521.5-118.8-520.9-118.8-520.4-118.8z"/>
<path class="st16" d="M-550.2-102.1c0-0.4-0.1-0.9-0.1-1.3c7.5,0,15,0,22.4,0c-0.3,0.9-0.6,1.8-0.9,2.7c0,0-0.2,0.1-0.2,0.1
	c-1.3-1.4-2.5-0.3-3.7,0.2c-4.2,1.7-8.5,1.6-12.8,0.3C-547.2-100.5-548.4-102.1-550.2-102.1z"/>
<path class="st12" d="M-527.9-103.4c-7.5,0-15,0-22.4,0c1.2-1.8,3.6-2.4,4.9-1.9c5.8,1.9,11.8-0.9,17.6,1.1
	C-527.9-103.9-527.9-103.7-527.9-103.4z"/>
<path class="st9" d="M-515.9-94.5c0.5-0.8,1.4-0.8,2.2-0.9c0,1.7-1.2,2.8-2.2,3.9C-515.9-92.5-515.9-93.5-515.9-94.5z"/>
<path class="st18" d="M-772.3-114.7l-0.3-0.1c0,0-0.3,0.1-0.3,0.1c-1-3.9-2.3-7.1-7.4-4.9c-0.5,0.2-1.2-0.2-1.8-0.3
	c2.7-1.9,5.5-3.8,8.2-5.6c1.6-1,3.4-1.6,5.2-1.8c3.7-0.3,8,3.1,8,6.3c0,4.2-3.5,7.6-7.7,7.5c-1,0-1.9-0.3-2.9-0.4
	C-771.3-114.5-771.7-114.8-772.3-114.7z"/>
<path class="st18" d="M-724.4-115.5c-4.9,3-7.2,2.8-11.5-1c-0.7-0.6-1.3-1.1-0.6-2.1c0.6-0.9,1-2.1-0.5-2.8l0,0.1
	c0.8-4.1,3.7-6.4,7.6-5.8c5.2,0.7,8.8,4.5,13,7c0,0-0.2,0.6-0.4,1c-1.9-0.4-3.8-0.7-5.9-1.1C-722.8-118.7-723.3-117-724.4-115.5z"/>
<path class="st10" d="M-752.6-94.6c2.4,1.2,4.7,0.6,7.1-0.3c1.8-0.7,3.4,0.3,4.2,1.7c0.8,1.3-0.9,2.1-1.8,2.9
	c-3.2,3-7.3,3.1-11.2,0.4c-1.1-0.8-2.2-1.8-1.9-3C-755.8-94.5-754-94.3-752.6-94.6z"/>
<path class="st18" d="M-721.2-136.4c-6.3-2.5-12.2-2.2-17.9,0.6c-0.5,0.3-1.2,0.7-1.6-0.1c-0.2-0.5-0.2-1.3,0.1-1.8
	C-738.4-141.1-724-140.5-721.2-136.4z"/>
<path class="st18" d="M-778.2-137.7c5.7-2.7,11.3-1.6,16.9,0c1.3,0.4,1.9,1.3,1.3,2.6c-0.6,1.3-1.5,0.2-2.2-0.1
	c-4.3-2.1-8.8-2.5-13.5-1.7C-776.4-136.8-777.5-136.1-778.2-137.7z"/>
<path class="st16" d="M-782-119.9c0.6,0.1,1.3,0.5,1.8,0.3c5.1-2.2,6.4,1,7.4,4.9c-3.4-0.1-6.5-1-8.9-3.6
	C-782.3-118.9-782.1-119.4-782-119.9z"/>
<path class="st16" d="M-724.4-115.5c1.1-1.5,1.7-3.2,1.8-4.9c2.1,0.4,4,0.8,5.9,1.1C-719.2-117.8-720.7-114.5-724.4-115.5z"/>
<path class="st19" d="M-752.9-101.4c2.2-0.8,3.8-0.6,5.5-0.3C-749.1-99.2-749.4-99.2-752.9-101.4z"/>
<path class="st18" d="M-780.4-135.8c-0.1,0.2-0.3,0.3-0.4,0.5c-0.1-0.1-0.2-0.3-0.2-0.3c0.2-0.2,0.4-0.3,0.6-0.4
	C-780.5-136-780.5-135.9-780.4-135.8z"/>
<path class="st16" d="M-772.3-114.7c0.6-0.1,0.9,0.2,1.2,0.7C-771.5-114.2-771.9-114.5-772.3-114.7z"/>
<path class="st18" d="M-737-121.4c-0.1,0.1-0.2,0.1-0.3,0.2C-737.2-121.3-737.1-121.3-737-121.4C-736.9-121.4-737-121.4-737-121.4z"
	/>
<path class="st19" d="M-775.3,100.5c0.4-3.7-2.5-6.7-2.3-10.5c0.3-5.3,0.6-5.7,5.6-5.3c3,0.2,6.1-0.7,9.1,0.7
	c3.5,1.6,6.5,5.6,6.3,9.3c-0.2,3.7-3.5,8.2-6.7,9.4c-3.9,1.5-7.2,1.5-9.5-2.5C-773.4,100.7-774.2,100.4-775.3,100.5
	C-775.3,100.5-775.3,100.5-775.3,100.5z"/>
<path class="st18" d="M-776.7,77.3c3.5-2.7,6.3-6.6,11-7.7c3.7-0.8,6.6,0.5,8.6,3.7c1.6,2.5,1.3,5.1-0.3,7.4
	c-1.9,2.6-6,3.2-10.2,1.7c-1.6-1.9-2.7-4-2.4-6.9C-772.4,77-774.5,77.4-776.7,77.3z"/>
<path class="st18" d="M-722.1,83c-1.5,0.1-2.9,0.2-4.4,0.3c-0.9-0.3-1.7-0.7-2.6-1c-1-1.4-3-2.5-2.3-4.6c0.5-1.6,0.6-1.5-1.5-1.4
	c1.4-5.8,5.8-8.3,11.1-6.2c3.8,1.5,6.6,4.5,9.6,7.2c-3.5-0.9-6.6-1-7.5,3.7C-720.9,81.3-721.5,82.2-722.1,83z"/>
<path class="st12" d="M-748.9,105c-3.7,0.2-2.7-4-5.9-5.1c4.1-1.5,7.1-3.6,10.6-1.2c0.6,0.4,1.5,0.2,2.1-0.2
	c3.3-2.2,6.4-0.4,9.2,0.8c2.2,1,0.8,4.5,2.4,6.4c0.1,0.2-1,0.8-1.1,0.5c-1.2-3.4-3.7-0.7-5.5-1.4
	C-739.3,102.8-746.2,102.8-748.9,105z M-735.6,100.4c-4.7,0-9.5,0-14.2,0C-745,103.3-740.2,103.4-735.6,100.4c0.3,0,0.5,0,0.8-0.1
	c-0.1-0.1-0.1-0.2-0.2-0.4C-735.2,100.1-735.4,100.3-735.6,100.4z"/>
<path class="st18" d="M-717.2,59.6c-6.6-1.6-12.7-1.1-18.6,2.2c-0.9-1.9-0.5-2.9,1.2-3.3C-728.6,56.8-722.6,55.6-717.2,59.6z"/>
<path class="st18" d="M-773.7,59.2c6.7-3.3,12.5-2.4,18.3-0.6c1.2,0.3,1.7,1.2,1.4,2.3c-0.3,1.1-1.1,0.7-1.8,0.4
	c-4.9-2.6-10-2.8-15.3-1.7C-771.5,59.5-772.1,59.4-773.7,59.2z"/>
<path class="st10" d="M-748.9,105c2.7-2.1,9.6-2.2,11.8-0.1C-742.5,107.8-745.3,107.9-748.9,105z"/>
<path class="st16" d="M-776.7,77.3c2.3,0.1,4.4-0.3,6.6-1.7c-0.3,2.9,0.9,5,2.4,6.9C-771.5,82.2-775,81.3-776.7,77.3z"/>
<path class="st16" d="M-719.8,81c0.8-4.6,4-4.5,7.5-3.7C-714,80.5-716.8,81.9-719.8,81z"/>
<path class="st21" d="M-733,76.3c2.2-0.1,2-0.2,1.5,1.4c-0.7,2.2,1.3,3.2,2.3,4.6c-3.5,0.6-5.2-2.3-6.4-4.5
	C-736.6,76-733.9,76.9-733,76.3z"/>
<path class="st12" d="M-746.8,90c1.8,0.5,3.4,1.7,5.8,0.7C-743.4,93.8-745,93.5-746.8,90L-746.8,90z"/>
<path class="st12" d="M-746.8,90c-0.3-0.1-0.6-0.2-0.9-0.3C-747.2,89.1-747.1,89.7-746.8,90C-746.8,90-746.8,90-746.8,90z"/>
<polygon class="st18" points="-715.4,60.4 -715.1,60.4 -715.4,60.3 "/>
<path class="st19" d="M-572.9-109.5c0-3.7,4.4-8.5,7.8-8.7c4.9-0.2,10.2,5.5,10.2,10.9c0,5.2-4.4,9.3-9.9,9
	C-569.5-98.5-573.7-104.2-572.9-109.5z"/>
<path class="st18" d="M-574.3-125.2c2.5-1.6,5-3.1,7.2-5.2c3.7-3.4,8.8-3.2,11.8-0.3c2.1,2,3,4.6,2.2,7.2c-0.9,2.9-5.1,4.7-8.4,4.3
	c-1.2-0.2-2.1-1.4-3.5-0.9c-1.6-1.7-1.7-4.1-2.3-6.3C-569.6-125.2-571.9-124.6-574.3-125.2z"/>
<path class="st12" d="M-550.2-102.1c1.9-0.1,3.1,1.6,4.7,2.1c4.3,1.3,8.5,1.4,12.8-0.3c1.2-0.5,2.4-1.6,3.7-0.2
	c-4.2,4.2-9.1,5.7-14.9,3.9c-2.9-0.9-4.8-3-7-4.7C-551.6-101.8-550.6-101.9-550.2-102.1z"/>
<path class="st16" d="M-574.3-125.2c2.4,0.6,4.7,0,7.1-1.1c0.5,2.3,0.7,4.6,2.3,6.3C-568.7-120.5-572.1-121.7-574.3-125.2z"/>
<path class="st12" d="M-537.4-111.4c-2.4,2.3-2.4,2.3-5.5,0.2C-540.8-111.2-539.1-111-537.4-111.4z"/>
<polygon class="st18" points="-529.3,-126.7 -529.4,-126.6 -529.3,-126.7 "/>
<path class="st16" d="M-735.5,100.5c-4.7,2.9-9.4,2.8-14.3-0.1C-745,100.4-740.3,100.4-735.5,100.5L-735.5,100.5z"/>
<path class="st16" d="M-735.6,100.4c0.2-0.1,0.4-0.3,0.6-0.4c0.1,0.1,0.1,0.2,0.2,0.4C-735,100.4-735.3,100.5-735.6,100.4
	C-735.5,100.5-735.6,100.4-735.6,100.4z"/>
<path class="st5" d="M332.8,164c1.3,13.3,4.4,29.8,6.6,36.4c7.7,23.2,16.4,18.2,23.1,23.1c2.6,1.9,10.7,1.7,10.7,1.7
	s8.1,0.1,10.7-1.7c8-5.6,14.8-0.9,23.1-23.1"/>
</svg>
