<?xml version="1.0" encoding="utf-8"?>
<!-- Generator: Adobe Illustrator 26.0.3, SVG Export Plug-In . SVG Version: 6.00 Build 0)  -->
<svg version="1.1" id="Layer_1" xmlns="http://www.w3.org/2000/svg" xmlns:xlink="http://www.w3.org/1999/xlink" x="0px" y="0px"
	 viewBox="0 0 198 187.6" style="enable-background:new 0 0 198 187.6;" xml:space="preserve">
<style type="text/css">
	.st0{clip-path:url(#SVGID_00000142174814776355784180000005609892896899157138_);}
	.st1{fill:#B7837E;}
	.st2{clip-path:url(#SVGID_00000170969183012139764730000009532911139327201213_);}
	.st3{fill:none;}
	.st4{fill:#C58C85;}
	.st5{fill:#EDD2AB;}
	.st6{fill:#E8D66D;}
</style>
<g id="_Repetition_miroir_">
	<g>
		<g>
			<g>
				<defs>
					<polygon id="SVGID_1_" points="146,98.1 146,98.1 164.2,98.1 164.2,132.1 146,132.1 					"/>
				</defs>
				<clipPath id="SVGID_00000093168823951827621260000007210236970969696402_">
					<use xlink:href="#SVGID_1_"  style="overflow:visible;"/>
				</clipPath>
				<g style="clip-path:url(#SVGID_00000093168823951827621260000007210236970969696402_);">
					<path class="st1" d="M154.8,131.8c4.6-2.2,7.2-13.5,8.5-18.4c1-3.6,1.4-13-1.6-15c-2.8-1.9-12.6,3.9-12.6,3.9l-0.9,13.5
						L146,130C146,130.1,152.7,132.9,154.8,131.8z"/>
				</g>
			</g>
		</g>
	</g>
</g>
<g id="_Repetition_miroir_2">
	<g>
		<g>
			<g>
				<defs>
					<polygon id="SVGID_00000029020835145112902430000010611586312746906286_" points="74.1,98.1 74.1,98.1 55.8,98.1 55.8,132.1 
						74.1,132.1 					"/>
				</defs>
				<clipPath id="SVGID_00000026868333310621732230000018017335509566805165_">
					<use xlink:href="#SVGID_00000029020835145112902430000010611586312746906286_"  style="overflow:visible;"/>
				</clipPath>
				<g style="clip-path:url(#SVGID_00000026868333310621732230000018017335509566805165_);">
					<path class="st1" d="M65.1,131.8c-4.6-2.2-7.2-13.5-8.5-18.4c-1-3.6-1.4-13,1.7-15c2.8-1.9,12.6,3.9,12.6,3.9l1,13.5l2.2,14.3
						C74.1,130.1,67.2,132.9,65.1,131.8z"/>
				</g>
			</g>
		</g>
	</g>
</g>
<rect x="110" y="52.9" class="st3" width="42.9" height="115.5"/>
<path class="st4" d="M151.8,89c-1.2-7.1-6-20-11.1-25.1c-6-5.9-17.5-9.7-27-10.7v-0.3c-1.1,0-2.3,0-3.4,0c-0.5,0-1.1,0-1.6,0V53
	c-10.9,0.8-22.9,4.8-29.1,10.8c-5.1,5-9.9,18-11.1,25.1c-1.9,10.5,3.6,43.3,7,53.4c7.9,23.9,16.9,18.7,23.8,23.8
	c2.7,2,11,1.7,11,1.7s8.3,0.1,11-1.7c8.2-5.8,15.2-0.9,23.8-23.8C148.5,132.3,153.7,99.5,151.8,89z"/>
<rect x="67.2" y="52.9" class="st3" width="42.9" height="115.5"/>
<path class="st5" d="M149.3,108.7c-1.5-0.6-2.2-11.4-4-20.2c-4.2-19.7-42.6-14.9-45.9-15.7c-4.5-1-7.1-2.2-8.5-3.2
	c-0.7,6.8-4.7,11.1-8.7,15.7C77,91.4,71.8,98,74.5,111.3c0.3,1.5,5.1,12.2,7.1,23.3c1.5,8.5,1.4,10.2,0.6,11.7
	c-0.8,1.5-3.8,7.9-13.6,9.3c15.8-37.3-42.5-32.5-32.5-64.8c3.4-11.1,15.1-22.7,23.6-29.9c2.9-2.6,6.1-4.9,9.3-7.1
	c0,0-8.2-10.5,6.1-21.4c0.6-0.4,1.3-0.9,2.1-1.3c8.8-5.3,19.3-7.5,29.6-6.4c20.8,2.3,54.6,12.3,54.5,53.5
	C169.2,100.8,150.8,109.3,149.3,108.7z"/>
<path class="st6" d="M155.3,126.9h-1.2c-0.8,0-1.6,0.5-2,1.3l-1.2,3.3c-0.2,0.5-0.2,1,0,1.4l1.2,3.3c0.3,0.8,1.1,1.3,2,1.3h1.2
	c0.8,0,1.6-0.5,2-1.3l1.2-3.3c0.2-0.5,0.2-1,0-1.4l-1.2-3.3C157,127.5,156.1,126.9,155.3,126.9z"/>
</svg>
