<?xml version="1.0" encoding="utf-8"?>
<!-- Generator: Adobe Illustrator 26.0.3, SVG Export Plug-In . SVG Version: 6.00 Build 0)  -->
<svg version="1.1" id="Layer_1" xmlns="http://www.w3.org/2000/svg" xmlns:xlink="http://www.w3.org/1999/xlink" x="0px" y="0px"
	 viewBox="0 0 198 187.6" style="enable-background:new 0 0 198 187.6;" xml:space="preserve">
<style type="text/css">
	.st0{clip-path:url(#SVGID_00000057133546514260411140000004378973361444509607_);}
	.st1{fill:#B7837E;}
	.st2{clip-path:url(#SVGID_00000101085327313198037280000014094747108372746404_);}
	.st3{fill:none;}
	.st4{fill:#C58C85;}
	.st5{fill:#EDD2AB;}
	.st6{fill:#BBB3A7;}
	.st7{fill:#C2BAA9;}
	.st8{fill:#277A9B;}
	.st9{fill:#22677C;}
</style>
<g id="_Repetition_miroir_">
	<g>
		<g>
			<g>
				<g>
					<defs>
						<polygon id="SVGID_1_" points="133.9,100.6 133.9,100.6 151.6,100.6 151.6,133.6 133.9,133.6 						"/>
					</defs>
					<clipPath id="SVGID_00000098213463347257518200000006503551900423326627_">
						<use xlink:href="#SVGID_1_"  style="overflow:visible;"/>
					</clipPath>
					<g style="clip-path:url(#SVGID_00000098213463347257518200000006503551900423326627_);">
						<path class="st1" d="M142.5,133.4c4.5-2.1,7-13.1,8.3-17.9c1-3.5,1.4-12.6-1.6-14.6c-2.7-1.8-12.3,3.8-12.3,3.8l-0.9,13.1
							l-2.1,13.8C133.9,131.7,140.5,134.4,142.5,133.4z"/>
					</g>
				</g>
			</g>
		</g>
	</g>
</g>
<g id="_Repetition_miroir_2">
	<g>
		<g>
			<g>
				<g>
					<defs>
						<polygon id="SVGID_00000003790435890631711370000002395876005900789430_" points="64,100.6 64,100.6 46.2,100.6 46.2,133.6 
							64,133.6 						"/>
					</defs>
					<clipPath id="SVGID_00000081626554719286522180000012300434211846003627_">
						<use xlink:href="#SVGID_00000003790435890631711370000002395876005900789430_"  style="overflow:visible;"/>
					</clipPath>
					<g style="clip-path:url(#SVGID_00000081626554719286522180000012300434211846003627_);">
						<path class="st1" d="M55.3,133.4c-4.5-2.1-7-13.1-8.3-17.9c-1-3.5-1.4-12.6,1.7-14.6c2.7-1.8,12.3,3.8,12.3,3.8l1,13.1
							l2.1,13.9C64,131.7,57.3,134.4,55.3,133.4z"/>
					</g>
				</g>
			</g>
		</g>
	</g>
</g>
<rect x="98.9" y="56.6" class="st3" width="41.7" height="112.3"/>
<path class="st4" d="M139.6,91.7c-1.2-6.9-5.8-19.5-10.8-24.4c-5.8-5.7-17-9.4-26.3-10.4v-0.3c-1.1,0-2.2,0-3.3,0
	c-0.5,0-1.1,0-1.6,0v0.1C87,57.5,75.3,61.4,69.3,67.2c-5,4.9-9.6,17.5-10.8,24.4c-1.8,10.2,3.5,42.1,6.8,51.9
	c7.7,23.2,16.4,18.2,23.1,23.1c2.6,1.9,10.7,1.7,10.7,1.7s8.1,0.1,10.7-1.7c8-5.6,14.8-0.9,23.1-23.1
	C136.4,133.8,141.4,101.9,139.6,91.7z"/>
<rect x="57.3" y="56.6" class="st3" width="41.7" height="112.3"/>
<g>
	<path class="st5" d="M127.6,80.2c-10.1-11-42.1,8.6-59.5-1.5c-2.4-2.8-6,2.1-2.9-3.7c-0.1,8.3-1.8,17.5,0.4,26.7
		c-6.4,17.7-0.5,50.6,6.7,60.6c-4.6-3.6-9.5-4.1-10.8-11.6c-4.2-17.1-6.7-32-17.5-43.6c-5.6-6.1-7.2-13.6-7.1-21.8
		c0.2-30.1,27.4-58.8,57.4-60.5c32.8-1.8,62.8,22.5,66.5,53.8c1.4,12.2-0.2,23.4-9.6,32.4c-9.9,9.5-9.3,24.5-11.2,38.2
		c-1.4,10.3-4.9,16.3-18.1,13.9c10.7-2.2,13.1-9.3,14-18.6c1.8-17.5-3.4-37.1-1.6-54.6c2.5-5.3-2.2-9.9-0.9-15.8
		C130.2,78.5,128,74.9,127.6,80.2z"/>
	<path class="st6" d="M126.2,80.6c-1.5-7.7,9.2-9-0.3-17.2c11.1,6.5,11.5,16,8.5,26.5C132.9,84.8,133.2,79.7,126.2,80.6z"/>
	<path class="st7" d="M65.6,101.7c-3.3-13.8-6.2-27.6,6.6-38.5c-3.3,6.7-7.2,9.8-1.5,16.9C60.4,83.5,68.7,96,65.6,101.7z"/>
</g>
<g>
	<path class="st8" d="M147.5,69.1c-1.3,4.8-0.7,10.1-2.5,15.2c-0.8,2.1-2.3,2.7-4.9,2.6c-3.1-0.2-6-1.1-9-1.9
		c-4.1-1-8.3-2.1-12.4-3.3c-11.4-3.4-22.6-2.8-34.1-0.3c-7.9,1.8-15.5,4-23.6,5.1c-6.3,1-7.4,0.5-8.8-4.4c-0.3-1.1-0.5-2.3-0.8-3.5
		c-0.6-3.5-0.5-7.2-1.6-10.7l19.3-2.5c20-2.6,40.6-2.3,60.5,0.9L147.5,69.1z"/>
	<path class="st9" d="M147.3,70.4c0.2-1,0.5-2.1,1-3c-1-10.6-3.5-20.4-7.7-29.8c-2.7-6.2-7.7-10-14.6-12.5
		c-3.3-1.1-6.7-1.9-10.1-2.7c-5.1-1.1-10.7-0.5-15.6-2.7c-1.1-0.6-2.6-0.2-3.4,0.5c-1.4,1-2.8,1-4.4,1.1c-5.5,0.2-10.7,1.3-15.8,2.6
		c-8.9,2.5-15.9,6.7-19,14.9C55.1,45,52.9,51.4,51.7,58c-0.6,3.8-2.4,7.5-1.1,11.2l17.3-2.4c21.6-3,43.6-2.5,65.2,1.1L147.3,70.4z"
		/>
</g>
</svg>
