<?xml version="1.0" encoding="utf-8"?>
<!-- Generator: Adobe Illustrator 26.0.3, SVG Export Plug-In . SVG Version: 6.00 Build 0)  -->
<svg version="1.1" id="Layer_1" xmlns="http://www.w3.org/2000/svg" xmlns:xlink="http://www.w3.org/1999/xlink" x="0px" y="0px"
	 viewBox="0 0 198 187.6" style="enable-background:new 0 0 198 187.6;" xml:space="preserve">
<style type="text/css">
	.st0{fill:none;stroke:#FAFAFA;stroke-miterlimit:10;}
	.st1{clip-path:url(#SVGID_00000031920347971239946550000004160624803368279950_);}
	.st2{fill:#B7837E;}
	.st3{clip-path:url(#SVGID_00000107560564376958816080000012561908607267330716_);}
	.st4{fill:none;}
	.st5{fill:#C58C85;}
	.st6{fill:#EDD2AB;}
	.st7{fill:#4A75BA;}
</style>
<path class="st0" d="M106.9,39.3c8.8-9.5,6.1-25.2,6.1-25.2"/>
<g id="_Repetition_miroir_">
	<g>
		<g>
			<g>
				<defs>
					<polygon id="SVGID_1_" points="135,106.5 135,106.5 152.9,106.5 152.9,139.8 135,139.8 					"/>
				</defs>
				<clipPath id="SVGID_00000041998244038726678510000013858905345219237054_">
					<use xlink:href="#SVGID_1_"  style="overflow:visible;"/>
				</clipPath>
				<g style="clip-path:url(#SVGID_00000041998244038726678510000013858905345219237054_);">
					<path class="st2" d="M143.6,139.5c4.5-2.1,7-13.2,8.4-18c1-3.6,1.4-12.7-1.7-14.7c-2.7-1.8-12.4,3.8-12.4,3.8l-1,13.2l-2.1,14
						C135,137.9,141.6,140.5,143.6,139.5z"/>
				</g>
			</g>
		</g>
	</g>
</g>
<g id="_Repetition_miroir_2">
	<g>
		<g>
			<g>
				<defs>
					<polygon id="SVGID_00000154404974804790333360000010459715765094895018_" points="64.6,106.5 64.6,106.5 46.6,106.5 
						46.6,139.8 64.6,139.8 					"/>
				</defs>
				<clipPath id="SVGID_00000106131496113019770380000010665336665781614271_">
					<use xlink:href="#SVGID_00000154404974804790333360000010459715765094895018_"  style="overflow:visible;"/>
				</clipPath>
				<g style="clip-path:url(#SVGID_00000106131496113019770380000010665336665781614271_);">
					<path class="st2" d="M55.9,139.5c-4.5-2.1-7-13.2-8.4-18c-1-3.6-1.4-12.7,1.7-14.7c2.7-1.8,12.4,3.8,12.4,3.8l1,13.2l2.1,14
						C64.6,137.9,57.9,140.5,55.9,139.5z"/>
				</g>
			</g>
		</g>
	</g>
</g>
<rect x="99.4" y="62.7" class="st4" width="41.7" height="112.3"/>
<path class="st5" d="M140.1,97.7c-1.2-6.9-5.8-19.5-10.8-24.4c-5.8-5.7-17-9.4-26.3-10.4v-0.3c-1.1,0-2.2,0-3.3,0
	c-0.5,0-1.1,0-1.6,0v0.1c-10.6,0.8-22.3,4.7-28.3,10.5c-5,4.9-9.6,17.5-10.8,24.4c-1.8,10.2,3.5,42.1,6.8,51.9
	c7.7,23.2,16.4,18.2,23.1,23.1c2.6,1.9,10.7,1.7,10.7,1.7s8.1,0.1,10.7-1.7c8-5.6,14.8-0.9,23.1-23.1
	C136.9,139.9,141.9,108,140.1,97.7z"/>
<rect x="57.8" y="62.7" class="st4" width="41.7" height="112.3"/>
<path class="st6" d="M58,108c-16-19.5-15.8-38.3,0.4-55.4c4.2-4.4,6.4-7.2,3.9-14.2C58.5,28,65.9,20.7,74.9,17.8
	c16-4.8,32.8-4.8,48.7,0c10,3,17.8,11,12.3,22.9c-3.6,7.6,2.4,9.1,5.4,12.4C157,71,156.9,90.6,140,107.8c-5.6-9.9-13-19.1-25.3-18.5
	c-6.4,0.3-12.6-3.4-18.3-7c-16-10-21.8-5.7-31.6,10.4C62,97,60.6,102,58,108z"/>
<path class="st7" d="M59.5,148h-2.2c-0.9,0-1.6-0.7-1.6-1.6v-10.2c0-0.9,0.7-1.6,1.6-1.6h2.2c0.9,0,1.6,0.7,1.6,1.6v10.2
	C61.1,147.4,60.4,148,59.5,148z"/>
<path class="st7" d="M143.5,148h-2.2c-0.9,0-1.6-0.7-1.6-1.6v-10.2c0-0.9,0.7-1.6,1.6-1.6h2.2c0.9,0,1.6,0.7,1.6,1.6v10.2
	C145.1,147.4,144.4,148,143.5,148z"/>
</svg>
