<svg xmlns="http://www.w3.org/2000/svg" viewBox="0 0 788 1005"><defs><style>.cls-1{fill:none;stroke:#000;stroke-linecap:round;stroke-miterlimit:10;stroke-width:2px;}.cls-2{fill:#7e5342;}</style></defs><g id="Calque_3" data-name="Calque 3"><path d="M378.89,113.46l-14.73-2.52,8.86-1.58a5.07,5.07,0,0,1,5.87,4.1Z"/><circle cx="374.48" cy="113.81" r="4.39"/><path class="cls-1" d="M404.12,115.6s2.76-1.32,8.24-1.32a21.78,21.78,0,0,1,8.23,1.32"/><path class="cls-1" d="M403.66,102.93s5.74.69,10.35,1.57a47.46,47.46,0,0,1,10.56,3.39"/><path class="cls-1" d="M384.53,102.43a14.9,14.9,0,0,0-20.16,1.4"/><path class="cls-2" d="M400.77,134.52s-4.69,3.69-7.42,3.69-7-3.59-7-3.59,5.4.73,7.21.71S400.77,134.52,400.77,134.52Z"/><path class="cls-1" d="M380.11,149.37a18.61,18.61,0,0,0,13.61,5.52A19,19,0,0,0,407,148.41"/></g></svg>