<svg xmlns="http://www.w3.org/2000/svg" xmlns:xlink="http://www.w3.org/1999/xlink" viewBox="0 0 788 1005.07"><defs><style>.cls-1{fill:none;}.cls-2{clip-path:url(#clip-path);}.cls-3{fill:#fff;}.cls-4{clip-path:url(#clip-path-2);}.cls-5{clip-path:url(#clip-path-3);}.cls-6{fill:#090909;}.cls-7{clip-path:url(#clip-path-4);}.cls-8{fill:#936170;}.cls-9{fill:#b85d40;}</style><clipPath id="clip-path"><polygon class="cls-1" points="386.62 140.39 386.62 140.39 399.37 140.39 399.37 152.63 386.62 152.63 386.62 140.39"/></clipPath><clipPath id="clip-path-2"><polygon class="cls-1" points="365.07 140.39 365.07 140.39 352.32 140.39 352.32 152.63 365.07 152.63 365.07 140.39"/></clipPath><clipPath id="clip-path-3"><polygon class="cls-1" points="388.68 143.13 388.68 143.13 397.17 143.13 397.17 151.67 388.68 151.67 388.68 143.13"/></clipPath><clipPath id="clip-path-4"><polygon class="cls-1" points="363.01 143.13 363.01 143.13 354.52 143.13 354.52 151.67 363.01 151.67 363.01 143.13"/></clipPath></defs><g id="Calque_3" data-name="Calque 3"><path d="M387.67,132.76a4.3,4.3,0,0,1-2.69-.68c-.32-.41.27-1.65.68-2,.19-.13,3.16-2.19,10.74-.45,3.65.82,7.12,2.6,6.76,3.47C403,133.49,397,130.94,387.67,132.76Z"/><path d="M364,132.76a4.23,4.23,0,0,0,2.69-.68c.32-.41-.27-1.65-.68-2-.19-.13-3.16-2.19-10.74-.45-3.65.82-7.12,2.6-6.76,3.47C348.67,133.49,354.7,130.94,364,132.76Z"/><g class="cls-2"><ellipse class="cls-3" cx="392.97" cy="146.51" rx="6.39" ry="6.12"/></g><g class="cls-4"><ellipse class="cls-3" cx="358.72" cy="146.51" rx="6.39" ry="6.12"/></g><g class="cls-5"><circle class="cls-6" cx="392.93" cy="147.42" r="4.25"/></g><g class="cls-7"><circle class="cls-6" cx="358.76" cy="147.42" r="4.25"/></g><path class="cls-8" d="M370.18,184.92c0-.78.6-1.74,5.39-1.74s5.94.82,5.94,1.55-1.33,3-6.12,3S370.18,185.65,370.18,184.92Z"/><path class="cls-9" d="M383.06,167.84s-4.69,3.69-7.42,3.69c-2.58,0-7-3.59-7-3.59s5.4.73,7.21.71S383.06,167.84,383.06,167.84Z"/></g></svg>