<svg xmlns="http://www.w3.org/2000/svg" xmlns:xlink="http://www.w3.org/1999/xlink" viewBox="0 0 150 116.92"><defs><style>.cls-1{fill:none;}.cls-2{fill:#fff;}.cls-3{fill:#b85d40;}.cls-4{fill:#7c3838;}.cls-5{fill:#bcbcbc;}.cls-6{fill:#141313;}.cls-7{clip-path:url(#clip-path);}.cls-8{fill:#111010;}</style><clipPath id="clip-path"><rect class="cls-1" x="41.83" y="23.7" width="20.81" height="4.77" transform="translate(-4.46 12.13) rotate(-12.71)"/></clipPath></defs><g id="Calque_3" data-name="Calque 3"><circle class="cls-2" cx="55.07" cy="45.91" r="6.75"/><circle class="cls-2" cx="91.3" cy="45.91" r="6.75"/><circle cx="52.86" cy="44.2" r="3.29"/><circle cx="89.2" cy="44.2" r="3.29"/><path class="cls-3" d="M80.41,66.38S75.72,70.07,73,70.07c-2.58,0-7-3.6-7-3.6s5.4.73,7.21.72S80.41,66.38,80.41,66.38Z"/><path class="cls-4" d="M57.42,80.81c.29-.64,1.42-1.64,3.5-2.55a29.49,29.49,0,0,1,10.56-2.1,22.78,22.78,0,0,1,15.86,6.06S82.75,94,71.53,93.1C63.39,92.48,57.42,80.81,57.42,80.81Z"/><path class="cls-5" d="M71.88,81.19l-8.25-.38-2.21-.91a28.1,28.1,0,0,1,11.44-2c6.7.35,10.31,2.91,10.31,2.91l-1.7.81Z"/><path class="cls-6" d="M86.14,26a5.18,5.18,0,0,1-2.75-1.56c-.26-.52.83-1.71,1.35-1.92.26-.1,4.1-1.4,11.88,2.8,3.74,2,7,5,6.33,5.87C102.69,31.54,96.88,26.87,86.14,26Z"/><g class="cls-7"><path class="cls-8" d="M59.73,26.35A5.1,5.1,0,0,0,62.58,25c.26-.52-.72-1.71-1.24-2-.21-.11-4-1.61-12,2.17-3.84,1.82-7.26,4.67-6.64,5.56C42.92,31,48.94,26.66,59.73,26.35Z"/></g></g></svg>