<svg xmlns="http://www.w3.org/2000/svg" xmlns:xlink="http://www.w3.org/1999/xlink" viewBox="0 0 788 1005.07"><defs><style>.cls-1{fill:none;}.cls-2{clip-path:url(#clip-path);}.cls-3{fill:#2b2b2b;}.cls-4{clip-path:url(#clip-path-2);}.cls-5{fill:#fff;}.cls-6{clip-path:url(#clip-path-3);}.cls-7{fill:#090909;}.cls-8{fill:#7f2c00;}.cls-9{fill:#b85d40;}</style><clipPath id="clip-path"><rect class="cls-1" x="392.87" y="123.54" width="4.56" height="19.86" transform="translate(159.52 477.61) rotate(-74.26)"/></clipPath><clipPath id="clip-path-2"><polygon class="cls-1" points="365.36 140.55 365.36 140.55 351.54 140.55 351.54 153.87 365.36 153.87 365.36 140.55"/></clipPath><clipPath id="clip-path-3"><polygon class="cls-1" points="363.13 142.57 363.13 142.57 353.87 142.57 353.87 151.83 363.13 151.83 363.13 142.57"/></clipPath></defs><g id="Calque_3" data-name="Calque 3"><g class="cls-2"><path class="cls-3" d="M388,133.37a4.89,4.89,0,0,1-2.62-1.49c-.25-.49.79-1.63,1.29-1.83.25-.1,3.91-1.34,11.34,2.67,3.56,1.93,6.68,4.81,6,5.6C403.83,138.66,398.29,134.21,388,133.37Z"/></g><path class="cls-3" d="M362.83,133.72a4.85,4.85,0,0,0,2.72-1.34c.25-.49-.69-1.63-1.19-1.93-.19-.1-3.81-1.53-11.48,2.08-3.67,1.73-6.94,4.46-6.34,5.3C346.78,138.18,352.53,134,362.83,133.72Z"/><path d="M403.73,148.12a2.11,2.11,0,0,1-2.92.65c-1.78-1.14-7-1.24-9-.55-2.68.89-5.84,2.18-6.69.4-.15-.3,1.49-3.37,6.94-3.72s9.21,2.93,11.68,3.22Z"/><g class="cls-4"><ellipse class="cls-5" cx="358.42" cy="147.23" rx="6.93" ry="6.64"/></g><g class="cls-6"><circle class="cls-7" cx="358.52" cy="147.17" r="4.61"/></g><path class="cls-8" d="M389.89,180.56c0,3.82-11.64,7.46-13.82,7.46s-12.38-3.64-12.38-7.46c0,0,7.48,4.19,13.77,3.55A37.72,37.72,0,0,0,389.89,180.56Z"/><path class="cls-9" d="M384.52,167.35S379.83,171,377.1,171s-7-3.59-7-3.59,5.4.73,7.21.71S384.52,167.35,384.52,167.35Z"/></g></svg>