<svg xmlns="http://www.w3.org/2000/svg" xmlns:xlink="http://www.w3.org/1999/xlink" viewBox="0 0 788 1005.07"><defs><style>.cls-1,.cls-5{fill:none;}.cls-2{fill:#fff;}.cls-3{fill:#070808;}.cls-3,.cls-5,.cls-8{stroke:#000;stroke-miterlimit:10;}.cls-4{clip-path:url(#clip-path);}.cls-5,.cls-8{stroke-linecap:round;}.cls-5{stroke-width:2px;}.cls-6{clip-path:url(#clip-path-2);}.cls-7{fill:#b55943;}.cls-8{fill:#090a0a;}</style><clipPath id="clip-path"><rect class="cls-1" x="383.49" y="127.87" width="22.15" height="6.68"/></clipPath><clipPath id="clip-path-2"><rect class="cls-1" x="344.2" y="127.87" width="22.15" height="6.68"/></clipPath></defs><g id="Calque_3" data-name="Calque 3"><circle class="cls-2" cx="391.7" cy="144.77" r="6.75"/><circle class="cls-2" cx="356.85" cy="144.77" r="6.75"/><circle class="cls-3" cx="358.93" cy="144.92" r="4"/><circle class="cls-3" cx="393.86" cy="144.92" r="4"/><g class="cls-4"><path class="cls-5" d="M384.49,132.15a14.86,14.86,0,0,1,20.15,1.4"/></g><g class="cls-6"><path class="cls-5" d="M365.36,132.15a14.87,14.87,0,0,0-20.16,1.4"/></g><path class="cls-7" d="M382.82,167s-4.7,3.69-7.42,3.69-7-3.6-7-3.6,5.4.73,7.22.72S382.82,167,382.82,167Z"/><ellipse class="cls-8" cx="375.23" cy="186.46" rx="2.88" ry="4.5"/></g></svg>