<svg xmlns="http://www.w3.org/2000/svg" viewBox="0 0 788 1005.07"><defs><style>.cls-1{fill:#b85d40;}.cls-2{fill:#731e00;}.cls-3{fill:#fff;}.cls-4{fill:#040404;}.cls-5{fill:#4ca7f7;}</style></defs><g id="Calque_3" data-name="Calque 3"><path class="cls-1" d="M383.63,172.26s-4.69,3.69-7.42,3.69c-2.58,0-7-3.6-7-3.6s5.4.73,7.21.72S383.63,172.26,383.63,172.26Z"/><path d="M388.77,139.63a5.18,5.18,0,0,1-2.75-1.56c-.26-.53.83-1.72,1.35-1.93.26-.1,4.11-1.4,11.91,2.81,3.74,2,7,5,6.34,5.88C405.36,145.19,399.59,140.51,388.77,139.63Z"/><path d="M362.12,140a5.14,5.14,0,0,0,2.86-1.41c.26-.52-.73-1.71-1.25-2-.21-.1-4-1.61-12.06,2.19-3.85,1.82-7.28,4.68-6.66,5.56C345.27,144.67,351.3,140.3,362.12,140Z"/><path class="cls-2" d="M361,188c0-1.82,12.22-3.54,14.51-3.54s13,1.72,13,3.54A59,59,0,0,0,374,186.37,76.76,76.76,0,0,0,361,188Z"/><path class="cls-3" d="M401.67,147.28a7.39,7.39,0,0,1-14.77,0Z"/><path class="cls-3" d="M363.6,147.28a7.39,7.39,0,0,1-14.77,0Z"/><path class="cls-4" d="M360.64,147.9a4.37,4.37,0,0,1-8.74,0,2.56,2.56,0,0,1,.05-.62h8.64A2.56,2.56,0,0,1,360.64,147.9Z"/><path class="cls-4" d="M398.86,147.9a4.37,4.37,0,0,1-8.74,0,2.14,2.14,0,0,1,.06-.62h8.63A2.56,2.56,0,0,1,398.86,147.9Z"/><ellipse class="cls-5" cx="350.39" cy="158.67" rx="4.21" ry="4.78"/></g></svg>