<svg xmlns="http://www.w3.org/2000/svg" viewBox="0 0 188 164.2"><defs><style>.cls-1{fill:none;stroke:#000;stroke-linecap:round;stroke-miterlimit:10;stroke-width:2px;}.cls-2{fill:#7e5342;}</style></defs><g id="Calque_3" data-name="Calque 3"><path d="M78.89,75.24,64.16,72.72,73,71.14a5.07,5.07,0,0,1,5.87,4.1Z"/><circle cx="74.48" cy="75.59" r="4.39"/><path class="cls-1" d="M104.12,77.38s2.76-1.32,8.24-1.32a21.78,21.78,0,0,1,8.23,1.32"/><path class="cls-1" d="M103.66,64.71s5.74.69,10.35,1.57a47.46,47.46,0,0,1,10.56,3.39"/><path class="cls-1" d="M84.53,64.21a14.9,14.9,0,0,0-20.16,1.4"/><path class="cls-2" d="M100.77,96.3S96.08,100,93.35,100c-2.58,0-7-3.59-7-3.59s5.4.73,7.21.72S100.77,96.3,100.77,96.3Z"/><path class="cls-1" d="M80.11,111.15a18.61,18.61,0,0,0,13.61,5.52A19,19,0,0,0,107,110.19"/></g></svg>