<svg xmlns="http://www.w3.org/2000/svg" xmlns:xlink="http://www.w3.org/1999/xlink" viewBox="0 0 788 1005.07"><defs><style>.cls-1{fill:none;}.cls-2{fill:#fff;}.cls-3{fill:#070808;stroke:#000;}.cls-3,.cls-5{stroke-miterlimit:10;}.cls-4{fill:#b85d40;}.cls-5{fill:#4f0a0a;stroke:#4f0000;stroke-linecap:round;}.cls-6{fill:#141313;}.cls-7{clip-path:url(#clip-path);}.cls-8{fill:#111010;}</style><clipPath id="clip-path"><rect class="cls-1" x="355.59" y="116.95" width="4.77" height="20.81" transform="translate(176.95 461.41) rotate(-81.13)"/></clipPath></defs><g id="Calque_3" data-name="Calque 3"><circle class="cls-2" cx="394.27" cy="148.72" r="6.75"/><circle class="cls-2" cx="359.42" cy="148.72" r="6.75"/><circle class="cls-3" cx="361.5" cy="148.72" r="4"/><circle class="cls-3" cx="396.44" cy="148.72" r="4"/><path class="cls-4" d="M385.39,171s-4.69,3.69-7.42,3.69-7-3.59-7-3.59,5.4.73,7.21.71S385.39,171,385.39,171Z"/><ellipse class="cls-5" cx="377.81" cy="189.68" rx="2.88" ry="5.77"/><path class="cls-6" d="M387.07,130.52a5.16,5.16,0,0,1-3.16-.15c-.46-.34,0-1.9.34-2.32.18-.21,3-3.1,11.86-2.87,4.25.12,8.53,1.32,8.3,2.37C404.34,128,397.05,126.45,387.07,130.52Z"/><g class="cls-7"><path class="cls-8" d="M364.85,130.35a5.1,5.1,0,0,0,3.17-.25c.43-.39,0-1.86-.41-2.34-.16-.17-3.13-3-12-2.4-4.24.28-8.47,1.67-8.22,2.72C347.5,128.51,354.7,126.67,364.85,130.35Z"/></g></g></svg>