<svg xmlns="http://www.w3.org/2000/svg" xmlns:xlink="http://www.w3.org/1999/xlink" viewBox="0 0 788 1005.07"><defs><style>.cls-1{fill:none;}.cls-2{fill:#141313;}.cls-3{clip-path:url(#clip-path);}.cls-4{fill:#111010;}.cls-5{fill:#731b00;}.cls-6{fill:#4c1c23;}.cls-7{fill:#b85d40;}</style><clipPath id="clip-path"><rect class="cls-1" x="343.77" y="131.11" width="20.81" height="4.77" transform="translate(-20.69 81.19) rotate(-12.71)"/></clipPath></defs><g id="Calque_3" data-name="Calque 3"><path class="cls-2" d="M388.08,133.4a5.18,5.18,0,0,1-2.75-1.56c-.26-.52.83-1.71,1.35-1.92.26-.1,4.1-1.4,11.88,2.8,3.74,2,7,5,6.33,5.86C404.63,139,398.82,134.28,388.08,133.4Z"/><g class="cls-3"><path class="cls-4" d="M361.67,133.76a5.13,5.13,0,0,0,2.86-1.4c.26-.52-.73-1.71-1.25-2-.21-.11-4-1.61-12,2.17-3.84,1.82-7.26,4.67-6.64,5.56C344.86,138.43,350.88,134.07,361.67,133.76Z"/></g><path class="cls-5" d="M389.57,180.09c0,2.18-12.19,4.25-14.47,4.25s-13-2.07-13-4.25c0,0,7.83,2.38,14.42,2A65,65,0,0,0,389.57,180.09Z"/><path class="cls-6" d="M404.53,148.86a2.2,2.2,0,0,1-3.06.67c-1.87-1.19-7.37-1.29-9.44-.57-2.81.94-6.13,2.28-7,.42-.15-.31,1.56-3.53,7.27-3.89s9.65,3.06,12.24,3.37Z"/><path class="cls-6" d="M344.86,148.86a2.2,2.2,0,0,0,3.06.67c1.87-1.19,7.37-1.29,9.45-.57,2.8.94,6.12,2.28,7,.42.16-.31-1.56-3.53-7.26-3.89s-9.65,3.06-12.25,3.37Z"/><path class="cls-7" d="M382.06,167.65s-4.69,3.69-7.42,3.69c-2.58,0-7-3.6-7-3.6s5.4.73,7.21.72S382.06,167.65,382.06,167.65Z"/></g></svg>