<svg xmlns="http://www.w3.org/2000/svg" xmlns:xlink="http://www.w3.org/1999/xlink" viewBox="0 0 188 164.2"><defs><style>.cls-1,.cls-4{fill:none;}.cls-2{fill:#fff;}.cls-3{clip-path:url(#clip-path);}.cls-4{stroke:#000;stroke-linecap:round;stroke-miterlimit:10;stroke-width:2px;}.cls-5{clip-path:url(#clip-path-2);}.cls-6{fill:#7e5342;}.cls-7{fill:#231e1e;}.cls-8{fill:#bcbcbc;}</style><clipPath id="clip-path"><rect class="cls-1" x="51.31" y="54.96" width="23.15" height="6.96"/></clipPath><clipPath id="clip-path-2"><rect class="cls-1" x="91.34" y="54.96" width="23.15" height="6.96"/></clipPath></defs><g id="Calque_3" data-name="Calque 3"><path d="M68.14,73.71,53.41,71.2l8.86-1.58a5.06,5.06,0,0,1,5.87,4.09Z"/><path d="M98.07,73.71,112.8,71.2l-8.86-1.58a5.06,5.06,0,0,0-5.87,4.09Z"/><circle class="cls-2" cx="64.36" cy="74.54" r="6.75"/><circle class="cls-2" cx="100.59" cy="74.54" r="6.75"/><circle cx="62.15" cy="72.82" r="3.29"/><circle cx="98.49" cy="72.82" r="3.29"/><g class="cls-3"><path class="cls-4" d="M73.46,60.91c-2.88-2.31-8.24-5.85-14.35-4.74-5.33,1-6.8,4.64-6.8,4.64"/></g><g class="cls-5"><path class="cls-4" d="M92.34,60.91c2.88-2.31,8.24-5.85,14.35-4.74,5.33,1,6.8,4.64,6.8,4.64"/></g><path class="cls-6" d="M89.71,95s-4.7,3.69-7.43,3.69c-2.58,0-7-3.59-7-3.59s5.4.73,7.21.72S89.71,95,89.71,95Z"/><path class="cls-7" d="M66.71,109.43c.29-.63,1.43-1.63,3.5-2.54a29.27,29.27,0,0,1,10.56-2.1,22.73,22.73,0,0,1,15.86,6.06s-4.58,11.74-15.81,10.88C72.68,121.1,66.71,109.43,66.71,109.43Z"/><path class="cls-8" d="M81.17,109.81l-8.25-.37-2.2-.91a28.13,28.13,0,0,1,11.43-2c6.7.36,10.32,2.92,10.32,2.92l-1.71.8Z"/></g></svg>