<svg xmlns="http://www.w3.org/2000/svg" xmlns:xlink="http://www.w3.org/1999/xlink" viewBox="0 0 188 164.2"><defs><style>.cls-1,.cls-7{fill:none;}.cls-2{clip-path:url(#clip-path);}.cls-3{clip-path:url(#clip-path-2);}.cls-4{fill:#fff;}.cls-5{fill:#070808;}.cls-10,.cls-5,.cls-7{stroke:#000;stroke-miterlimit:10;}.cls-6{clip-path:url(#clip-path-3);}.cls-10,.cls-7{stroke-linecap:round;}.cls-7{stroke-width:2px;}.cls-8{clip-path:url(#clip-path-4);}.cls-9{fill:#7e5342;}.cls-10{fill:#090a0a;}</style><clipPath id="clip-path"><polygon class="cls-1" points="78.71 70.81 78.71 70.81 87.55 70.81 87.55 79.65 78.71 79.65 78.71 70.81"/></clipPath><clipPath id="clip-path-2"><polygon class="cls-1" points="126.24 70.81 126.24 70.81 117.4 70.81 117.4 79.65 126.24 79.65 126.24 70.81"/></clipPath><clipPath id="clip-path-3"><rect class="cls-1" x="111.04" y="58.72" width="22.15" height="6.68"/></clipPath><clipPath id="clip-path-4"><rect class="cls-1" x="71.75" y="58.72" width="22.15" height="6.68"/></clipPath></defs><g id="Calque_3" data-name="Calque 3"><g class="cls-2"><circle cx="83.13" cy="75.23" r="4.42"/></g><g class="cls-3"><circle cx="121.82" cy="75.23" r="4.42"/></g><path d="M87.51,74.91,72.78,72.39l8.86-1.58a5.07,5.07,0,0,1,5.87,4.1Z"/><path d="M117.44,74.91l14.73-2.52-8.86-1.58a5.07,5.07,0,0,0-5.87,4.1Z"/><circle class="cls-4" cx="119.25" cy="75.62" r="6.75"/><circle class="cls-4" cx="84.4" cy="75.62" r="6.75"/><circle class="cls-5" cx="86.48" cy="75.77" r="4"/><circle class="cls-5" cx="121.42" cy="75.77" r="4"/><g class="cls-6"><path class="cls-7" d="M112,63a14.87,14.87,0,0,1,20.16,1.4"/></g><g class="cls-8"><path class="cls-7" d="M92.91,63a14.87,14.87,0,0,0-20.16,1.4"/></g><path class="cls-9" d="M110.37,97.85s-4.69,3.69-7.42,3.69c-2.58,0-7-3.6-7-3.6s5.4.73,7.21.72S110.37,97.85,110.37,97.85Z"/><ellipse class="cls-10" cx="102.79" cy="117.31" rx="2.88" ry="4.5"/></g></svg>