<svg xmlns="http://www.w3.org/2000/svg" xmlns:xlink="http://www.w3.org/1999/xlink" viewBox="0 0 188 164.21"><defs><style>.cls-1,.cls-5,.cls-7{fill:none;}.cls-2{fill:#fff;}.cls-3{fill:#080808;}.cls-4{clip-path:url(#clip-path);}.cls-5{stroke:#000;}.cls-5,.cls-7{stroke-linecap:round;stroke-miterlimit:10;stroke-width:2px;}.cls-6{clip-path:url(#clip-path-2);}.cls-7{stroke:#4e2d1d;}.cls-8{fill:#68373b;}.cls-9{fill:#629cf6;}</style><clipPath id="clip-path"><rect class="cls-1" x="114.54" y="61.16" width="21.58" height="7.06"/></clipPath><clipPath id="clip-path-2"><rect class="cls-1" x="75.31" y="61.16" width="21.58" height="7.06"/></clipPath></defs><g id="Calque_3" data-name="Calque 3"><path class="cls-2" d="M129.24,75.55a6.75,6.75,0,0,1-13.5,0Z"/><path class="cls-2" d="M94.39,75.55a6.75,6.75,0,0,1-13.5,0Z"/><path class="cls-3" d="M91.72,76.13a4,4,0,0,1-8,0,2.78,2.78,0,0,1,0-.58h7.9A2.78,2.78,0,0,1,91.72,76.13Z"/><path class="cls-3" d="M126.66,76.13a4,4,0,0,1-8,0,2.78,2.78,0,0,1,0-.58h7.9A2.78,2.78,0,0,1,126.66,76.13Z"/><g class="cls-4"><path class="cls-5" d="M115.54,62.16c9.83.18,19.57,5.06,19.57,5.06"/></g><g class="cls-6"><path class="cls-5" d="M95.89,62.16c-9.84.18-19.58,5.06-19.58,5.06"/></g><path class="cls-7" d="M94.42,114.31c3.1.14,7.2.22,11.26.21s8.07-.09,11-.25"/><path class="cls-8" d="M113.61,97.72s-4.69,3.69-7.42,3.69-7-3.6-7-3.6,5.4.73,7.21.72S113.61,97.72,113.61,97.72Z"/><ellipse class="cls-9" cx="82.34" cy="85.97" rx="3.87" ry="4.38"/></g></svg>