<svg xmlns="http://www.w3.org/2000/svg" xmlns:xlink="http://www.w3.org/1999/xlink" viewBox="0 0 788 1005.07"><defs><style>.cls-1{fill:none;}.cls-2{fill:#fff;}.cls-3{fill:#b85d40;}.cls-4{fill:#7c3838;}.cls-5{fill:#bcbcbc;}.cls-6{fill:#141313;}.cls-7{clip-path:url(#clip-path);}.cls-8{fill:#111010;}</style><clipPath id="clip-path"><rect class="cls-1" x="343.48" y="124.97" width="20.81" height="4.77" transform="translate(-19.35 80.97) rotate(-12.71)"/></clipPath></defs><g id="Calque_3" data-name="Calque 3"><circle class="cls-2" cx="356.72" cy="147.18" r="6.75"/><circle class="cls-2" cx="392.95" cy="147.18" r="6.75"/><circle cx="354.5" cy="145.47" r="3.29"/><circle cx="390.85" cy="145.47" r="3.29"/><path class="cls-3" d="M382.06,167.65s-4.69,3.69-7.42,3.69c-2.58,0-7-3.6-7-3.6s5.4.73,7.21.72S382.06,167.65,382.06,167.65Z"/><path class="cls-4" d="M359.07,182.08c.28-.64,1.42-1.64,3.5-2.55a29.19,29.19,0,0,1,10.55-2.09A22.75,22.75,0,0,1,389,183.49s-4.59,11.75-15.81,10.89C365,193.75,359.07,182.08,359.07,182.08Z"/><path class="cls-5" d="M373.53,182.46l-8.25-.38-2.21-.91a28.1,28.1,0,0,1,11.44-2c6.7.35,10.31,2.91,10.31,2.91l-1.71.81Z"/><path class="cls-6" d="M387.79,127.26A5.12,5.12,0,0,1,385,125.7c-.26-.52.83-1.71,1.35-1.92.26-.1,4.09-1.4,11.88,2.8,3.73,2,7,5,6.33,5.87C404.34,132.81,398.53,128.14,387.79,127.26Z"/><g class="cls-7"><path class="cls-8" d="M361.38,127.62a5.1,5.1,0,0,0,2.85-1.4c.26-.52-.73-1.71-1.24-2-.21-.11-4-1.61-12,2.18-3.84,1.81-7.27,4.67-6.64,5.55C344.57,132.29,350.58,127.93,361.38,127.62Z"/></g></g></svg>