<svg xmlns="http://www.w3.org/2000/svg" xmlns:xlink="http://www.w3.org/1999/xlink" viewBox="0 0 150 116.92"><defs><style>.cls-1{fill:none;}.cls-2{fill:#fff;}.cls-3{fill:#070808;stroke:#000;}.cls-3,.cls-5{stroke-miterlimit:10;}.cls-4{fill:#b85d40;}.cls-5{fill:#4f0a0a;stroke:#4f0000;stroke-linecap:round;}.cls-6{fill:#141313;}.cls-7{clip-path:url(#clip-path);}.cls-8{fill:#111010;}</style><clipPath id="clip-path"><rect class="cls-1" x="53.94" y="15.68" width="4.77" height="20.81" transform="translate(21.88 77.71) rotate(-81.13)"/></clipPath></defs><g id="Calque_3" data-name="Calque 3"><circle class="cls-2" cx="92.63" cy="47.45" r="6.75"/><circle class="cls-2" cx="57.77" cy="47.45" r="6.75"/><circle class="cls-3" cx="59.85" cy="47.45" r="4"/><circle class="cls-3" cx="94.79" cy="47.45" r="4"/><path class="cls-4" d="M83.74,69.68s-4.69,3.69-7.42,3.69c-2.58,0-7-3.6-7-3.6s5.4.73,7.21.72S83.74,69.68,83.74,69.68Z"/><ellipse class="cls-5" cx="76.16" cy="88.41" rx="2.88" ry="5.77"/><path class="cls-6" d="M85.42,29.25a5.16,5.16,0,0,1-3.16-.15c-.46-.35,0-1.9.34-2.32.19-.21,3-3.1,11.87-2.87,4.24.12,8.52,1.32,8.29,2.37C102.7,26.72,95.4,25.18,85.42,29.25Z"/><g class="cls-7"><path class="cls-8" d="M63.2,29.08a5.09,5.09,0,0,0,3.17-.25c.44-.39,0-1.86-.41-2.34-.16-.17-3.12-3-12-2.4-4.23.27-8.47,1.67-8.21,2.72C45.85,27.24,53.05,25.4,63.2,29.08Z"/></g></g></svg>