<?xml version="1.0" encoding="utf-8"?>
<!-- Generator: Adobe Illustrator 26.0.1, SVG Export Plug-In . SVG Version: 6.00 Build 0)  -->
<svg version="1.1" id="Calque_1" xmlns="http://www.w3.org/2000/svg" xmlns:xlink="http://www.w3.org/1999/xlink" x="0px" y="0px"
	 viewBox="0 0 331 227.8" style="enable-background:new 0 0 331 227.8;" xml:space="preserve">
<style type="text/css">
	.st0{fill:#D68F72;}
	.st1{fill:#AD6542;}
	.st2{fill:#806640;}
	.st3{fill:#404280;}
</style>
<g id="Calque_1_00000139287150925249501030000002941004593367306936_">
	<g id="Calque_12">
		<path class="st0" d="M203.3,84.5c0,0-0.1,3.9-9.3,10c-10.9,7.3-6.9,21.4-8.4,28.7c-1,4.9-9.9,17.3-13.7,16.6
			c-10.8-2-16.9-16.2-26.7-20.4c-5.7-2.4-8.2-4.7-13.7-2c-5.5-2.8-8-0.5-13.7,2c-9.8,4.2-15.8,18.5-26.7,20.4
			c-3.9,0.7-12.7-11.7-13.7-16.6c-1.5-7.3,2.5-21.4-8.4-28.7c-9.2-6.1-11.6-11-11.6-11c-7-17.1-6.1-26.7,3.9-29.7s29.4-7,38.6-10.1
			c4.7-1.6,8.5-3.4,10.6-5.8l1.6-37.3L130.4,0h2.2l14.3,0.5l4,0.1l0.7,15.7l0.6,12.9v0.5l0.4,8.2c0.4,0.5,0.9,0.9,1.5,1.3
			c2.7,2,6.8,3.2,11.6,4.2c6.5,1.3,30.5,8,37.8,9.4c3.1,0.6-2.8-0.9,0,0C213.3,55.7,210.3,67.4,203.3,84.5z"/>
		<path class="st1" d="M154,39.1c-5.4,4.2-18.8,11.4-21.3,12.6c-8.2,3.9-28.3-5-32.8-8.1c4.7-1.6,8.5-3.4,10.6-5.8l1.6-37.3h38.8
			l1.2,28.5v0.5l0.4,8.2C152.9,38.2,153.4,38.7,154,39.1z"/>
	</g>
</g>
<g id="Calque_9">
	<path class="st0" d="M85.4,69.2C85.6,89,72,94.5,65,101.6c-11.1,11.2-22.3,39.5-30.7,52.2c-3.9,6-15.6,18.7-26.4,13.6l0,0
		c-13.5-7.1-6.3-23.3-3.1-29.3c6.4-12.3,27.5-65.9,41.7-77.1c0,0,13.8-12,26.9-8C81.9,55.6,85.3,61,85.4,69.2L85.4,69.2z"/>
	<path class="st0" d="M3.9,150.3c5.6-10.4,16.8-6.7,26.1-2.1c6.6,3.2,67.6,41,84.3,51.1c9.4,5.7,14.6,8.5,11.8,14.2
		c-2.5,5.2-13.5,2.4-17.8,1.4C67.7,205,37.6,195.5,13.1,176C-3,163.1,1.9,153.9,3.9,150.3z"/>
	<path class="st0" d="M183.4,59.4c-5.5,11.3,2.9,19,6,25.3c5,10.1,5.5,30,8,40c1.2,4.7,6.2,15.9,15.3,16.4l0,0
		c11.6,0.3,10.7-11.3,10.1-15.9c-1.3-9.2-2.1-46.9-9.3-58c0,0-6.7-11.4-17.2-13.4C189.5,52.7,185.6,54.7,183.4,59.4L183.4,59.4z"/>
	<path class="st0" d="M216.9,145c11.2,2.7,16.6-4.7,20-11.4c2.5-4.8,19.7-53.3,24.6-66.5c2.8-7.4,4.5-11.3-1.4-12.9
		c-5.4-1.5-11.3,5.2-13.6,7.8c-22,24.5-36.9,43.8-40.8,65.5C203.1,141.7,213,144.1,216.9,145z"/>
	<path class="st0" d="M265.3,32c3.8-2.9,7.2-6.1,10.3-9.7c0,0,2.4,3.3,2.1,5.3c-0.3,1.6-5.8,8.5-5.8,8.5l0,0
		c26.5-10.7,47.7-16.1,50.8-16.6c2.2-0.4,8.3,1.8,8.3,1.8s-25.1,10.8-31.9,14.1c-23,11.4-28.6,17.5-35.7,27.5
		c-1.2,1.8-15.8-0.1-13.7-4c0.8-1.4-0.5-9.1,1.4-11.1C258.5,39.4,265.1,32.2,265.3,32z"/>
	<path class="st2" d="M85.7,43.5c8.5,4.3,47.6,41.2,47.6,41.2l46.6-41.2l19.9,3.6c0,0-1.9,103.7-2,113.5s4.6,67.2,4.6,67.2l-143-7.2
		L65,108.7l-2.3-61.9L85.7,43.5z"/>
	<polygon class="st3" points="43.3,139.8 5.5,124.5 12.6,109.4 50.4,124.7 	"/>
	<path class="st2" d="M62.7,46.8c0,0-17.9,6.4-20,8.8S3.6,97.9,4.3,99.6s8.3,9.9,8.3,9.9l37.9,15.3c0,0,8.5-2.7,9-4
		s6.6,17.5,6.6,18.5s125.4-4,125.4-4l6.3-2.5l27.5-48.3c0,0-1.7-27.9-2.8-28.9s-22.7-8.4-22.7-8.4l-19.9-3.6c0,0-16.3-2.2-16.2-2.2
		s-30.3,30.5-30.3,30.5s-36.7-32-36.8-30.6s-10.9,2.2-10.9,2.2L62.7,46.8z"/>
	<path class="st3" d="M110.3,79.4c0.7,1.5,23-4.7,23-4.7l-32.7-38.3c0,0-18,10.3-15,10C88.6,46.1,106,69.8,110.3,79.4z"/>
	<path class="st3" d="M156.3,79.4c-0.7,1.5-23-4.7-23-4.7l32.6-38.3c0,0,18,10.3,15,10C177.9,46.1,160.6,69.8,156.3,79.4z"/>
</g>
</svg>
