<?xml version="1.0" encoding="utf-8"?>
<!-- Generator: Adobe Illustrator 26.0.1, SVG Export Plug-In . SVG Version: 6.00 Build 0)  -->
<svg version="1.1" id="Calque_1" xmlns="http://www.w3.org/2000/svg" xmlns:xlink="http://www.w3.org/1999/xlink" x="0px" y="0px"
	 viewBox="0 0 788 1005" style="enable-background:new 0 0 788 1005;" xml:space="preserve">
<style type="text/css">
	.st0{fill:#D68F72;}
	.st1{fill:#AD6542;}
	.st2{fill:#4E6566;}
	.st3{fill:#07B700;}
</style>
<g id="Calque_1_00000180341625070977574980000007372930342611508925_">
	<g id="Calque_12">
		<path class="st0" d="M465.8,460c0,0-0.1,3.9-9.3,10c-10.9,7.3-6.9,21.4-8.4,28.7c-1,4.9-9.9,17.3-13.7,16.6
			c-10.8-2-16.9-16.2-26.7-20.4c-5.7-2.4-8.2-4.7-13.7-2c-5.5-2.8-8-0.5-13.7,2c-9.8,4.2-15.8,18.5-26.7,20.4
			c-3.9,0.7-12.7-11.7-13.7-16.6c-1.5-7.3,2.5-21.4-8.4-28.7c-9.2-6.1-11.6-11-11.6-11c-7-17.1-6.1-26.8,3.9-29.8s29.4-7,38.6-10.1
			c4.7-1.6,8.5-3.4,10.6-5.8l1.6-37.3l18.3-0.6h2.2l14.3,0.5l4,0.1l0.7,15.7l0.6,12.9v0.5l0.4,8.2c0.4,0.5,0.9,0.9,1.5,1.3
			c2.7,2,6.8,3.2,11.6,4.2c6.5,1.3,30.5,8,37.8,9.4c3.1,0.6-2.8-0.9,0,0C475.8,431.1,472.8,442.8,465.8,460z"/>
		<path class="st1" d="M416.5,414.5c-5.4,4.2-18.8,11.4-21.3,12.6c-8.2,3.9-28.3-5-32.8-8.1c4.7-1.6,8.5-3.4,10.6-5.8l1.6-37.3h38.8
			l1.2,28.6v0.5l0.4,8.2C415.4,413.7,415.9,414.2,416.5,414.5z"/>
	</g>
</g>
<path class="st0" d="M352.5,455.7c-18.9,22.7-62.6,33.7-75.6,44.2c-6.1,5-22.2,14.3-30.2,5.4l0,0c-9.8-11.9-6,3.1-0.6-2.2
	c11-10.7,35.3-30.3,44.3-42.5c6.7-9.1,11.2-19.4,29-26.3c0,0,17.8-8,28.5,0.6C354.6,440.4,355.6,447.2,352.5,455.7L352.5,455.7z"/>
<path class="st0" d="M256.1,501.3c16,2.3,18.3-9.1,20.2-15.1c2-6.5,0-45.5,1.7-63.4c0.9-10.1,1.7-15.5-4.7-16.6
	c-5.8-1-10.5,8.5-11.8,12.5c-12.3,37.6-9.1,19.2-18.3,64.8C239.5,502.2,252,500.7,256.1,501.3z"/>
<path class="st0" d="M276.8,424c0,0,11.9-5.4,13.5-7s9-10.2,10.5-11.2s12.1-5.8,11.2-6.8c-0.3-0.4-1.2-1.2-2-2
	c-1.7-1.6-4.1-2.1-6.3-1.4l-2.7,0.9c-2,0.6-3.8,1.7-5.4,3.1l-6,5.3l2.5-16.4l7.3-19.7c0.5-1.5-0.1-3.1-1.5-3.8l0,0
	c-1.7-0.9-3.9-0.3-4.8,1.4c0,0.1-0.1,0.1-0.1,0.2l-9.1,21l3.4-26c0.2-2-1.3-3.7-3.2-3.9H284l0,0c-2-0.3-3.9,1.1-4.2,3.1l-3.6,27.8
	l-1.5-26.8c-0.2-2-2-3.5-4-3.3h-0.1l0,0c-1.9,0.1-3.3,1.7-3.4,3.5l0.5,25.3l-4.8-15.9c-0.7-1.9-2.8-3-4.7-2.3c0,0-0.1,0-0.1,0.1l0,0
	c-1.5,0.5-2.5,2.1-2.2,3.7L259,391l-1.5,24.7l3.1,6.6L276.8,424z"/>
<path class="st2" d="M440.6,451.5c1.8,19.7,8.5,26.6,16.1,33c31,26,28.7,68.8,20.9,59.1c4.5,5.6,17.5,17.2,27.7,11.2l0,0
	c12.7-8.3,3.9-23.7,0.1-29.5c-7.6-11.7-19.1-73.1-34.4-82.9c0,0-15-10.8-27.6-5.6C435.3,440.2,439.9,443.3,440.6,451.5L440.6,451.5z
	"/>
<path class="st0" d="M505.2,531.8c-10.4-5.7-18,2.7-23.5,10.8c-3.9,5.7-7,52.2-15.8,68.2c-5,9-14,1.3-8.5,4.6c5,3,17.6,2.2,20.4-1
	c29-33.7,23-30.5,33.4-57.8C518.1,538.8,508.8,533.8,505.2,531.8z"/>
<path class="st0" d="M435.5,623.8l4.2-9l11.8-10.2l15-0.8h4.2c0,0,7.8,4.6,7.5,6.7c-0.3,3.1-6.3,0.5-2.8,4.2
	c2.2,2.5-14.3,4.1-14.3,4.1l-4.1,6c0,0-1.6,6.2-1.8,6.5c-1.4,2.5-11.8,0.8-11.8,0.8l0.6-10l2.4-7l-3.1,3c0,0-2.1,5-2.5,5.2
	C439.8,623.8,435.5,623.8,435.5,623.8z"/>
<path class="st3" d="M479.2,430.2c-4.5-5.5-11.4-7.1-18.6-9.1c-9.4-2.6-35.6-7.1-35.6-7.1s-20.4,27-35.7,25.8
	c-6.2-0.5-31.7-16.9-33.4-22.7l-29.7,6.3l-10.1,4.6c-10.7,6.5-37.5,34.6-37.5,34.6s0.2-32.5,0-29c0,0-22.4-6.1-24.5,0.8
	c-1.7,5.5-9.1,32.6-14.5,53.8c-1.4,5.5-0.2,15.1,4.1,18.9c5.5,4.9,13.3,6.5,16.5,5.3c49.4-18,60.8-26.7,60.8-26.7
	s12.3,36.9,12.6,40.4c0.3,3.5-4.4,41.5-4.4,41.5h0.1c1,11.4,1.7,13.1,1.7,19.6c0,6.5,5.6,11.7,12.5,11.7h99c7,0,12.6-5.2,12.6-11.7
	s0.2-8.2,0.4-19.7h-0.1c-0.4-2.1-6.6-37.7-6.2-40.4c1.8-11.7,10.9-33,12.5-36.7c4,11.1,11.5,30.9,16.3,42.4l-7.5,53.5l16.8,19.4
	c0,0,14.7-23.3,23-38.1c3.5-6.1,8.1-19.9,8.2-26.9C518.8,510.7,495.5,450,479.2,430.2z"/>
</svg>
