<svg xmlns="http://www.w3.org/2000/svg" viewBox="0 0 388 618.27"><defs><style>.cls-1{fill:#5d4751;}.cls-2{fill:#e78367;}.cls-3{fill:#90b4c4;}.cls-4{fill:#7698a8;}.cls-5{fill:#91b5c5;}.cls-6{fill:#7498a8;}.cls-7{fill:#44351a;}.cls-10,.cls-8,.cls-9{fill:none;stroke-miterlimit:10;}.cls-8{stroke:#7498a8;}.cls-8,.cls-9{stroke-linecap:round;stroke-width:2px;}.cls-9{stroke:#7198a8;}.cls-10{stroke:#4b3842;}.cls-11{fill:#3b7084;}</style></defs><g id="Calque_3" data-name="Calque 3"><polygon points="20.88 155.12 20.97 155.08 20.88 155.03 20.88 155.12"/><polygon points="20.97 155.08 21.07 155.12 21.07 155.03 20.97 155.08"/><polygon points="20.88 155.12 20.97 155.08 20.88 155.03 20.88 155.12"/><polygon points="20.97 155.08 21.07 155.12 21.07 155.03 20.97 155.08"/><path class="cls-1" d="M130.36,321.1a25.84,25.84,0,0,0,27.87,19.42h0a25.86,25.86,0,0,0,22.94-23.46s4.56-87.28,1.73-118c-.66-7.28-5.34-28.75-5.34-28.75l-11.11-50s-6.59-23.39-32.19-23.17c-29.49.25-28.4,16-28.4,16s-2.3,77.27.63,102.73C109.19,239.28,130.36,321.1,130.36,321.1Z"/><path class="cls-2" d="M150.76,301c-13.27,1.91-20.23,9.74-20.92,21,0,0,1.57,53.72,3.68,74.47,3.38,33.28,17.65,96.24,27.3,128.27,2.12,7,7.39,28.33,7.39,28.33a12.63,12.63,0,0,0,14.34,9.26h0A12.63,12.63,0,0,0,193,549.18s-1.81-25.19-1.91-33.6c-.36-30.5,3.05-91.64.21-122-1.7-18.28-12.08-73.63-12.08-73.63-3.64-18.16-17.08-20.17-28.5-18.93Z"/><path class="cls-3" d="M179.57,545.18h0a15.44,15.44,0,0,0-13.63,8.76h0c-5.69,11.85-29.55,27.65-29.55,27.65A14.57,14.57,0,0,0,131,595.65h0l58,0,3.27-1A8.21,8.21,0,0,0,198.1,586l-3.2-28.85A15.44,15.44,0,0,0,179.57,545.18Z"/><path class="cls-4" d="M132.65,595.37h0a8.64,8.64,0,0,1,7.29-9.94l34.53-5a8.65,8.65,0,0,1,9.66,6.56l2,8.2Z"/><path class="cls-1" d="M418.44,134.68A25.84,25.84,0,0,1,435,164.32h0a25.86,25.86,0,0,1-25.59,20.53s-87.32-4-117.66-9.84c-7.49-1.44-76.72-24.09-76.72-24.09s-21.57-2.8-19.9-34.3c1.49-28.08,18.66-26.71,18.66-26.71S290,95,315.07,100.37C338.16,105.35,418.44,134.68,418.44,134.68Z"/><path class="cls-2" d="M433.65,155.56c5.9,10.42,3.52,19.95-5.11,27.14,0,0-45.18,18.19-63,29.07-28.52,17.45-85.59,57.65-116.62,70-6.79,2.69-26.81,11.7-26.81,11.7-6,2.61-12.7.65-15.43-4.52h0c-2.69-5.07-.67-11.61,4.67-15.17,0,0,21.17-13.73,28-18.68,24.61-17.9,71.63-56.69,97.53-72.79,15.58-9.69,65.69-35.39,65.69-35.39,16.57-8.26,25.7-.06,31.09,8.67Z"/><path class="cls-2" d="M232.1,285.11c-32.62,3.06-32.86,51.21-32.86,51.21C196.48,341,170.1,275.06,174,274.93c0,0,49.84-5.05,62.12-9.06C244.77,263,251.25,283.32,232.1,285.11Z"/><path class="cls-5" d="M219.65,281.44c2.86,5.82,7.23,4.82,10,6.93,1.66,1.27,4,7.11,2.26,8.24-20.31,13-26.2,62.77-26.2,62.77-3,5.58-7.87,7.39-13.28,7.11h0s-14.36-40.64-7.12-64.87c1.46-4.85-4-8.21-4-8.21s-6.33-20.94.3-20.57L222,265.13C229.29,265.87,214.72,271.45,219.65,281.44Z"/><path class="cls-6" d="M183.73,369c8.71-.3,13.47-5.87,13-7.5-.61-2.35-3.08-5.92-3.8-8.23-1.15-3.7-1.7-15.27-1.7-15.27-.08-3-3.33-5-7.5-4.72l-8.27.88s-.05,7.11,4.57,23.32C180.83,360.15,183.73,369,183.73,369Z"/><polygon class="cls-7" points="104.13 127.93 105.58 106.27 254.79 106.27 256.71 125.04 104.13 127.93"/><path class="cls-8" d="M163.15,563s4.57-3.21,8.59-3.19c4.91,0,9.57,3,9.57,3"/><path class="cls-9" d="M215.48,309.8a30.1,30.1,0,0,1-3.17-8.34"/><path class="cls-9" d="M211.44,315.82a30.32,30.32,0,0,1-3.71-8.12"/><polygon class="cls-10" points="179.09 165.04 174.28 126.53 188.72 126.53 187.76 157.6 179.09 165.04"/><path class="cls-11" d="M105.58,106.27s55.83-10.43,143-13.71c67.07-2.53,173,33.35,181.8,44.82S444.94,174,436.9,180c-40.29,29.84-170.27,90.81-180.18,98.75-6.51,5.2-12.16,4.84-12.16,4.84l-16.08-21.05s16.17-9.84,16.08-11.29c-.07-.91,25.1-16.79,40.89-39.45,9.3-13.35,41.67-29.49,51.42-29.49,0,0-63.71,12.74-158.33-7.4C135.61,165.74,105.58,106.27,105.58,106.27Z"/><path class="cls-11" d="M108.68,97.13c-1.22,2.2-2.37-4.21-18.93,58-12.3,46.2,70.8,369.64,70.8,369.64l4,19c8.3-3.56,28.62-6.14,28.62-6.14l-1.74-15c4.47-7.52,10-82.69,5.32-113.67s-8.08-135.58-8.08-135.58c18.66-79.79,18.1-102,26.35-122.4s-1.58-56.62-9.39-56.06S115.29,85.25,108.68,97.13Z"/><path class="cls-11" d="M108.53,143.47c-1.3-2.21-4.4-15.54-4.4-15.54s2.38-50.41,7.5-63.69,27-38.36,69.87-35.61S231.14,55,238.39,64.24s10.14,42.67,8.21,43.63-135.35,49-138.07,37.92"/></g></svg>