<svg xmlns="http://www.w3.org/2000/svg" viewBox="0 0 388 618.27"><defs><style>.cls-1{fill:#e78367;}.cls-2{fill:#55525c;}.cls-3{fill:#7c2c78;}</style></defs><g id="Calque_3" data-name="Calque 3"><rect class="cls-1" x="102.47" y="486.11" width="22.13" height="63.41"/><path class="cls-2" d="M113.53,532.35,102.47,535l-7,20.7v6.6l-8.15,14.1s4.66,4.84,7,4,50.07-1.76,50.07-1.76v-4.85l-8.73-14.09-7-22-6.4-5.28Z"/><rect class="cls-1" x="223.91" y="489.56" width="22.13" height="63.41" transform="translate(469.95 1042.53) rotate(180)"/><path class="cls-2" d="M235,535.79,246,538.44l7,20.69v6.61l8.15,14.09s-4.66,4.85-7,4S204.12,582,204.12,582v-4.84l8.73-14.09,7-22,6.4-5.29Z"/><path class="cls-3" d="M98.44,125.82c0,2.65.72,169.1,0,171.75s-8.62,64.73-8.62,67.37S102.75,503,102.75,503l23.68-2.65s15.08-120.88,15.08-122.86.72-46.9,0-48.88,28-188.54,28-188.54V68.33L128.28,68c-13.69-.09-25.23,11.27-26.72,26.31Z"/><path class="cls-3" d="M250.07,121.89c0,2.67-.72,170.62,0,173.28s8.62,65.32,8.62,68-12.93,139.29-12.93,139.29l-23.68-2.66s-15.08-122-15.08-124-.72-47.31,0-49.31-28-190.23-28-190.23V67.88l41.57-.35c13.71-.11,25.27,11.27,26.75,26.34Z"/><polygon class="cls-3" points="15.83 135.16 15.92 135.12 15.83 135.08 15.83 135.16"/><polygon class="cls-3" points="15.92 135.12 16.02 135.16 16.02 135.08 15.92 135.12"/><polygon class="cls-3" points="15.83 135.16 15.92 135.12 15.83 135.08 15.83 135.16"/><polygon class="cls-3" points="15.92 135.12 16.02 135.16 16.02 135.08 15.92 135.12"/><path class="cls-3" d="M212.3,50.39c15.56,5,22.34,9.26,26,15.94,3,5.41,5.81,17.79,6,24,.52,14.5-7.49,51-21.12,63.13-13.86,12.38-81.63,12.38-95.49,0-13.63-12.16-21.63-48.63-21.11-63.13.22-6.18,3-18.56,6-24,3.7-6.68,10.48-10.92,26-15.94,17.8-5.76,35.9-4.85,35.9-4.85S194.5,44.63,212.3,50.39Z"/><path class="cls-3" d="M213.32,50.39c15.55,5,22.33,9.26,26,15.94,3,5.41,5.81,17.79,6,24,.52,14.5-7.48,51-21.11,63.13-13.87,12.38-81.63,12.38-95.5,0-13.63-12.16-21.63-48.63-21.11-63.13.23-6.18,3-18.56,6-24,3.7-6.68,10.48-10.92,26-15.94,17.8-5.76,35.91-4.85,35.91-4.85S195.52,44.63,213.32,50.39Z"/><rect class="cls-3" x="128.28" y="68.04" width="95.64" height="73.56"/></g></svg>