<svg xmlns="http://www.w3.org/2000/svg" viewBox="0 0 388 618.27"><defs><style>.cls-1{fill:none;}.cls-2{fill:#baa535;}.cls-3{fill:#e78367;}.cls-4{fill:#3d3d3d;}.cls-5{fill:#2d2a29;}</style></defs><g id="Calque_3" data-name="Calque 3"><polygon points="30.88 151.53 30.98 151.5 30.88 151.45 30.88 151.53"/><polygon points="30.98 151.5 31.07 151.53 31.07 151.45 30.98 151.5"/><polygon points="30.88 151.53 30.98 151.5 30.88 151.45 30.88 151.53"/><polygon points="30.98 151.5 31.07 151.53 31.07 151.45 30.98 151.5"/><path class="cls-1" d="M224.51,67.59c15.55,5,22.34,9.27,26,16,3,5.4,5.82,17.79,6,24,.52,14.5-7.48,51-21.11,63.13C221.61,183,153.84,183,140,170.64c-13.63-12.17-21.64-48.63-21.11-63.13.22-6.18,3-18.57,6-24,3.7-6.68,10.48-10.92,26-16,17.8-5.75,35.9-4.84,35.9-4.84S206.71,61.84,224.51,67.59Z"/><path class="cls-2" d="M178,158.81V116.59s-37.57-48.91-38.49-48.91-22.8,21.09-22.8,21.09L113.8,107l-6.25,71.3S119,330.59,119,332.11c0,.53.35,4.6.8,9.61a23.24,23.24,0,0,0,23.14,21.13h0c11.33,0,17.17-4.34,19.05-15.52l2.54-15s9.54-83.47,8.27-85.51c-.84-1.35,7.19-49.72,5.18-51.74S178,158.81,178,158.81Z"/><path class="cls-3" d="M161.27,360.48c-.22-.89-7.25-39.62-18.5-39.62h0a21.25,21.25,0,0,0-21.07,18.51l-.94,7.23s-4.93,66.56-3.93,68.08S136.54,531,136.56,533.77a12.29,12.29,0,0,0,11.6,12.2h0c7.59.42,8.68-4.15,7.84-11.7l12.76-126.74Z"/><path class="cls-3" d="M147.48,521.36c-4.8-.11-11.94,1.25-11.31,15.51.22,5-1.77,27.07-5.93,32.52-1.14,1.5-1.93,5.73-5.39,8.35a3.54,3.54,0,0,0-1.41,3.34l-1,5.39,33.89,1,4.34-7.4-1.36-26.62-2.4-17.79-.78-4.21C154.9,521.49,154.58,521.52,147.48,521.36Z"/><path class="cls-4" d="M132.75,552.1a10.25,10.25,0,0,1,8.6-5.58l3-.15,3.84-.19h0a10.23,10.23,0,0,1,10.72,9.45L160.7,580l.17,8.86-42.3,0,2.18-12.08,6.84-14.5Z"/><path class="cls-3" d="M209.78,360.48c.22-.89,7.24-39.62,18.5-39.62h0a21.25,21.25,0,0,1,21.07,18.51l.93,7.23s4.94,66.56,3.94,68.08S234.5,531,234.49,533.77a12.29,12.29,0,0,1-11.6,12.2h0c-7.59.42-8.68-4.15-7.84-11.7L202.29,407.53Z"/><path class="cls-3" d="M223.57,521.36c4.8-.11,11.94,1.25,11.31,15.51-.23,5,1.77,27.07,5.93,32.52,1.14,1.5,1.93,5.73,5.38,8.35a3.53,3.53,0,0,1,1.42,3.34l1,5.39-33.89,1-5.39-6.68,2.41-27.34,2.4-17.79.78-4.21C216.15,521.49,216.47,521.52,223.57,521.36Z"/><path class="cls-4" d="M227,546.39h0a14.87,14.87,0,0,0-15.55,13.33l-2.16,21,.88,8.14,42.29,0-2.17-12.08-6.84-14.5-3.94-7.76A14.86,14.86,0,0,0,227,546.39Z"/><path class="cls-5" d="M125.61,22.53a35.15,35.15,0,0,0-17.83,23.91c-4.17,20.42-5.49,48.14-7.74,76.63-10.73,136.42,17.18,424.06,33.27,402.7,62.2-82.59,109.87-73.79,181.38-143.5,42.58-41.49-10.66-167.52-29.61-214.78-11.63-29-28.5-76.16-39.81-118.35-4.51-16.8-10.32-31.43-27.72-31.43L128.5,21.09Z"/></g></svg>