<svg xmlns="http://www.w3.org/2000/svg" viewBox="0 0 788 1005.07"><defs><style>.cls-1{fill:#e78367;}.cls-2{fill:#55525c;}.cls-3{fill:#7c2c78;}</style></defs><g id="Calque_3" data-name="Calque 3"><rect class="cls-1" x="302.47" y="849.62" width="22.13" height="63.41"/><path class="cls-2" d="M313.53,895.86l-11.06,2.64-7,20.7v6.6l-8.15,14.09s4.66,4.85,7,4,50.07-1.76,50.07-1.76v-4.85l-8.73-14.09-7-22-6.4-5.28Z"/><rect class="cls-1" x="423.91" y="853.07" width="22.13" height="63.41" transform="translate(869.95 1769.54) rotate(180)"/><path class="cls-2" d="M435,899.3,446,902l7,20.69v6.61l8.15,14.09s-4.66,4.84-7,4-50.07-1.76-50.07-1.76V940.7l8.73-14.09,7-22,6.4-5.29Z"/><path class="cls-3" d="M298.44,489.33c0,2.64.72,169.1,0,171.75s-8.62,64.73-8.62,67.37,12.93,138.06,12.93,138.06l23.68-2.65S341.51,743,341.51,741s.72-46.9,0-48.88,28-188.54,28-188.54V431.84l-41.23-.29c-13.69-.09-25.23,11.27-26.72,26.31Z"/><path class="cls-3" d="M450.07,485.4c0,2.67-.72,170.62,0,173.28s8.62,65.32,8.62,68S445.76,866,445.76,866l-23.68-2.66s-15.08-122-15.08-124S406.28,692,407,690s-28-190.23-28-190.23V431.39l41.57-.35c13.71-.11,25.27,11.27,26.75,26.34Z"/><polygon class="cls-3" points="215.83 498.67 215.92 498.63 215.83 498.58 215.83 498.67"/><polygon class="cls-3" points="215.92 498.63 216.02 498.67 216.02 498.58 215.92 498.63"/><polygon class="cls-3" points="215.83 498.67 215.92 498.63 215.83 498.58 215.83 498.67"/><polygon class="cls-3" points="215.92 498.63 216.02 498.67 216.02 498.58 215.92 498.63"/><path class="cls-3" d="M412.3,413.89c15.56,5,22.34,9.27,26,15.95,3,5.41,5.81,17.79,6,24,.52,14.5-7.49,51-21.12,63.13-13.86,12.38-81.63,12.38-95.49,0-13.63-12.16-21.63-48.63-21.11-63.13.22-6.18,3-18.56,6-24,3.7-6.68,10.48-10.92,26-15.95,17.8-5.75,35.9-4.84,35.9-4.84S394.5,408.14,412.3,413.89Z"/><path class="cls-3" d="M413.32,413.89c15.55,5,22.33,9.27,26,15.95,3,5.41,5.81,17.79,6,24,.52,14.5-7.48,51-21.11,63.13-13.87,12.38-81.63,12.38-95.5,0-13.63-12.16-21.63-48.63-21.11-63.13.23-6.18,3.05-18.56,6-24,3.7-6.68,10.48-10.92,26-15.95,17.8-5.75,35.91-4.84,35.91-4.84S395.52,408.14,413.32,413.89Z"/><rect class="cls-3" x="328.28" y="431.55" width="95.64" height="73.56"/></g></svg>