<?xml version="1.0" encoding="utf-8"?>
<!-- Generator: Adobe Illustrator 26.0.1, SVG Export Plug-In . SVG Version: 6.00 Build 0)  -->
<svg version="1.1" id="Calque_1" xmlns="http://www.w3.org/2000/svg" xmlns:xlink="http://www.w3.org/1999/xlink" x="0px" y="0px"
	 viewBox="0 0 788 1005.1" style="enable-background:new 0 0 788 1005.1;" xml:space="preserve">
<style type="text/css">
	.st0{fill:#E78367;}
	.st1{fill:#55525C;}
	.st2{fill:#7C2C78;}
</style>
<g id="Calque_3">
	<rect x="302.5" y="849.6" class="st0" width="22.1" height="63.4"/>
	<path class="st1" d="M313.5,895.9l-11.1,2.6l-7,20.7v6.6l-8.1,14.1c0,0,4.7,4.8,7,4s50.1-1.8,50.1-1.8v-4.8l-8.7-14.1l-7-22
		l-6.4-5.3L313.5,895.9z"/>
	<rect x="423.9" y="853.1" class="st0" width="22.1" height="63.4"/>
	<path class="st1" d="M435,899.3l11,2.7l7,20.7v6.6l8.1,14.1c0,0-4.7,4.8-7,4s-50.1-1.8-50.1-1.8v-4.9l8.7-14.1l7-22l6.4-5.3
		L435,899.3z"/>
	<path class="st2" d="M294,490c0,2.6-3.5,185.4-4.3,188s-0.9,39,0.1,50.4c2.5,28.7,12.9,138.1,12.9,138.1l23.7-2.7
		c0,0,22.6-115.9,22.6-117.9s7.7-53,7-55s23-191.2,23-191.2l-9.5-67.9l-44.9-12c-13.7-0.1-26,23.6-27.5,38.7L294,490z"/>
	<path class="st2" d="M450.1,494c0,2.7,1.2,170.3,1.9,173s6.9,57,6.7,59.7c-1.9,21.4-12.9,139.3-12.9,139.3l-23.7-2.7
		c0,0-25.8-106.9-25.9-125c-0.2-18.3-2.7-47.3-2-49.3S367,498.6,367,498.6l12-67.2l41.6-0.4c13.7-0.1,25.3,11.3,26.8,26.3L450.1,494
		z"/>
	<polygon class="st2" points="215.8,498.7 215.9,498.6 215.8,498.6 	"/>
	<polygon class="st2" points="215.9,498.6 216,498.7 216,498.6 	"/>
	<polygon class="st2" points="215.8,498.7 215.9,498.6 215.8,498.6 	"/>
	<polygon class="st2" points="215.9,498.6 216,498.7 216,498.6 	"/>
	<path class="st2" d="M412.3,413.9c15.6,5,22.3,9.3,26,16c3,5.4,5.8,17.8,6,24c0.5,14.5-7.5,51-21.1,63.1
		c-13.9,12.4-81.6,12.4-95.5,0c-13.6-12.2-21.6-48.6-21.1-63.1c0.2-6.2,3-18.6,6-24c3.7-6.7,10.5-10.9,26-16
		c17.8-5.8,35.9-4.8,35.9-4.8S394.5,408.1,412.3,413.9z"/>
	<path class="st2" d="M413.3,413.9c15.5,5,22.3,9.3,26,16c3,5.4,5.8,17.8,6,24c0.5,14.5-7.5,51-21.1,63.1
		c-13.9,12.4-81.6,12.4-95.5,0c-13.6-12.2-21.6-48.6-21.1-63.1c0.2-6.2,3-18.6,6-24c3.7-6.7,10.5-10.9,26-16
		c17.8-5.8,35.9-4.8,35.9-4.8S395.5,408.1,413.3,413.9z"/>
	<rect x="328.3" y="431.5" class="st2" width="95.6" height="73.6"/>
</g>
</svg>
