<?xml version="1.0" encoding="utf-8"?>
<!-- Generator: Adobe Illustrator 26.0.2, SVG Export Plug-In . SVG Version: 6.00 Build 0)  -->
<svg version="1.1" id="Calque_1" xmlns="http://www.w3.org/2000/svg" xmlns:xlink="http://www.w3.org/1999/xlink" x="0px" y="0px"
	 viewBox="0 0 788 1005" style="enable-background:new 0 0 788 1005;" xml:space="preserve">
<style type="text/css">
	.st0{clip-path:url(#SVGID_00000056389013900768204560000016780242990139947416_);fill:#60131D;}
	.st1{clip-path:url(#SVGID_00000060024295564515157020000008880819299372125631_);fill:#60131D;}
	.st2{clip-path:url(#SVGID_00000129198129898669442290000007448755333349646734_);fill:#FFFFFF;}
	.st3{clip-path:url(#SVGID_00000066517001468475237140000009127477162341486776_);fill:#090909;}
	.st4{fill:#9D5E70;}
</style>
<g>
	<g>
		<defs>
			
				<rect id="SVGID_1_" x="426" y="277.6" transform="matrix(0.2712 -0.9625 0.9625 0.2712 27.3414 631.3248)" width="9.2" height="40.1"/>
		</defs>
		<clipPath id="SVGID_00000063635232367278936380000003625119698550402697_">
			<use xlink:href="#SVGID_1_"  style="overflow:visible;"/>
		</clipPath>
		<path style="clip-path:url(#SVGID_00000063635232367278936380000003625119698550402697_);fill:#60131D;" d="M416.2,297.4
			c-1.5-0.1-4.8-2-5.3-3s1.6-3.3,2.6-3.7c0.5-0.2,7.9-2.7,22.9,5.4c7.2,3.9,13.5,9.7,12.2,11.3C448.1,308.1,436.9,299.1,416.2,297.4
			z"/>
	</g>
</g>
<g>
	<g>
		<defs>
			
				<rect id="SVGID_00000099636472580889219650000017623607248279075230_" x="330.8" y="293" transform="matrix(0.9755 -0.22 0.22 0.9755 -56.8744 84.478)" width="40.1" height="9.2"/>
		</defs>
		<clipPath id="SVGID_00000181063969069699154280000003457968339213520523_">
			<use xlink:href="#SVGID_00000099636472580889219650000017623607248279075230_"  style="overflow:visible;"/>
		</clipPath>
		<path style="clip-path:url(#SVGID_00000181063969069699154280000003457968339213520523_);fill:#60131D;" d="M365.3,298.1
			c1.5,0,4.9-1.7,5.5-2.7c0.5-1-1.4-3.3-2.4-3.9c-0.4-0.2-7.7-3.1-23.2,4.2c-7.4,3.5-14,9-12.8,10.7
			C332.9,307.1,344.5,298.7,365.3,298.1z"/>
	</g>
</g>
<path d="M447.9,327.2c-1.4,2-3.9,2.6-5.9,1.3c-3.6-2.3-14.2-2.5-18.2-1.1c-5.4,1.8-11.8,4.4-13.5,0.8c-0.3-0.6,3-6.8,14-7.5
	C435.3,320.1,442.9,326.6,447.9,327.2L447.9,327.2z"/>
<g>
	<g>
		<defs>
			<polygon id="SVGID_00000075157903783039101930000003364543787836393137_" points="370.4,311.9 370.4,311.9 342.5,311.9 
				342.5,338.8 370.4,338.8 			"/>
		</defs>
		<clipPath id="SVGID_00000070111548143452512580000005410323506819786635_">
			<use xlink:href="#SVGID_00000075157903783039101930000003364543787836393137_"  style="overflow:visible;"/>
		</clipPath>
		
			<ellipse style="clip-path:url(#SVGID_00000070111548143452512580000005410323506819786635_);fill:#FFFFFF;" cx="356.4" cy="325.4" rx="14" ry="13.4"/>
	</g>
</g>
<g>
	<g>
		<defs>
			<polygon id="SVGID_00000139998269601637824440000008301056758796961716_" points="365.9,318 365.9,318 347.2,318 347.2,336.7 
				365.9,336.7 			"/>
		</defs>
		<clipPath id="SVGID_00000056387184135426925790000012173463907859308961_">
			<use xlink:href="#SVGID_00000139998269601637824440000008301056758796961716_"  style="overflow:visible;"/>
		</clipPath>
		
			<circle style="clip-path:url(#SVGID_00000056387184135426925790000012173463907859308961_);fill:#090909;" cx="356.6" cy="327.3" r="9.3"/>
	</g>
</g>
<path class="st4" d="M416.9,373.9c0,4.2-23.5,8.2-27.9,8.2s-25-4-25-8.2c0,0,15.1,4.6,27.8,3.9C406.6,376.9,416.9,373.9,416.9,373.9
	z"/>
</svg>
