<?xml version="1.0" encoding="utf-8"?>
<!-- Generator: Adobe Illustrator 26.0.2, SVG Export Plug-In . SVG Version: 6.00 Build 0)  -->
<svg version="1.1" id="Calque_1" xmlns="http://www.w3.org/2000/svg" xmlns:xlink="http://www.w3.org/1999/xlink" x="0px" y="0px"
	 viewBox="0 0 788 1005" style="enable-background:new 0 0 788 1005;" xml:space="preserve">
<style type="text/css">
	.st0{clip-path:url(#SVGID_00000080192568501500997360000006966004163772590254_);}
	.st1{fill:#60131D;}
	.st2{clip-path:url(#SVGID_00000105397614412495019140000000958216199761388222_);}
	.st3{clip-path:url(#SVGID_00000139291718350178801930000000623924244373995440_);}
	.st4{fill:#FFFFFF;}
	.st5{clip-path:url(#SVGID_00000101789223959010390140000017524745733320487311_);}
	.st6{clip-path:url(#SVGID_00000008125203061581940440000002819457041781025457_);}
	.st7{fill:#090909;}
	.st8{clip-path:url(#SVGID_00000032607234374698465120000011520859816228748432_);}
	.st9{fill:#840048;}
	.st10{fill:#C5C5C5;}
</style>
<g>
	<g>
		<defs>
			<rect id="SVGID_1_" x="410.6" y="293" width="40.1" height="9.2"/>
		</defs>
		<clipPath id="SVGID_00000090291589521786517710000013380498090535287945_">
			<use xlink:href="#SVGID_1_"  style="overflow:visible;"/>
		</clipPath>
		<g style="clip-path:url(#SVGID_00000090291589521786517710000013380498090535287945_);">
			<path class="st1" d="M416.8,301.3c-1.4,0.3-5.2-0.6-5.9-1.5c-0.7-0.9,0.6-3.6,1.5-4.3c0.4-0.3,6.9-4.8,23.5-1
				c8,1.8,15.6,5.7,14.8,7.6C450.4,302.9,437.2,297.3,416.8,301.3z"/>
		</g>
	</g>
</g>
<g>
	<g>
		<defs>
			<path id="SVGID_00000051380664106534025620000001737541144909847215_" d="M335.5,293h31c2.5,0,4.6,2.1,4.6,4.6l0,0
				c0,2.5-2.1,4.6-4.6,4.6h-31c-2.5,0-4.6-2.1-4.6-4.6l0,0C331,295.1,333,293,335.5,293z"/>
		</defs>
		<clipPath id="SVGID_00000082361890582036412560000005566684142098231205_">
			<use xlink:href="#SVGID_00000051380664106534025620000001737541144909847215_"  style="overflow:visible;"/>
		</clipPath>
		<g style="clip-path:url(#SVGID_00000082361890582036412560000005566684142098231205_);">
			<path class="st1" d="M365,301.3c1.5,0.3,5.2-0.6,5.9-1.5s-0.6-3.6-1.5-4.3c-0.4-0.3-6.9-4.8-23.5-1c-8,1.8-15.6,5.7-14.8,7.6
				C331.4,302.9,344.5,297.3,365,301.3z"/>
		</g>
	</g>
</g>
<g>
	<g>
		<defs>
			<polygon id="SVGID_00000064325588707105189100000008657443729460155578_" points="414.4,318 414.4,318 442.3,318 442.3,344.8 
				414.4,344.8 			"/>
		</defs>
		<clipPath id="SVGID_00000090256894292665174290000000749700051969776016_">
			<use xlink:href="#SVGID_00000064325588707105189100000008657443729460155578_"  style="overflow:visible;"/>
		</clipPath>
		<g style="clip-path:url(#SVGID_00000090256894292665174290000000749700051969776016_);">
			<ellipse class="st4" cx="428.4" cy="331.4" rx="14" ry="13.4"/>
		</g>
	</g>
</g>
<g>
	<g>
		<defs>
			<polygon id="SVGID_00000001662083900583985630000004947712122519650222_" points="367.3,318 367.3,318 339.4,318 339.4,344.8 
				367.3,344.8 			"/>
		</defs>
		<clipPath id="SVGID_00000121252484288211746610000005181223626459838367_">
			<use xlink:href="#SVGID_00000001662083900583985630000004947712122519650222_"  style="overflow:visible;"/>
		</clipPath>
		<g style="clip-path:url(#SVGID_00000121252484288211746610000005181223626459838367_);">
			<ellipse class="st4" cx="353.4" cy="331.4" rx="14" ry="13.4"/>
		</g>
	</g>
</g>
<g>
	<g>
		<defs>
			<polygon id="SVGID_00000183952728037086967520000001584138231735512495_" points="414.5,319.3 414.5,319.3 433.1,319.3 
				433.1,338 414.5,338 			"/>
		</defs>
		<clipPath id="SVGID_00000066517924254793428580000010721242953372742318_">
			<use xlink:href="#SVGID_00000183952728037086967520000001584138231735512495_"  style="overflow:visible;"/>
		</clipPath>
		<g style="clip-path:url(#SVGID_00000066517924254793428580000010721242953372742318_);">
			<circle class="st7" cx="423.8" cy="328.6" r="9.3"/>
		</g>
	</g>
</g>
<g>
	<g>
		<defs>
			<polygon id="SVGID_00000016033861810139482850000004256272417939883961_" points="358.7,319.3 358.7,319.3 340.1,319.3 
				340.1,338 358.7,338 			"/>
		</defs>
		<clipPath id="SVGID_00000112607638324495335010000013435113596528120722_">
			<use xlink:href="#SVGID_00000016033861810139482850000004256272417939883961_"  style="overflow:visible;"/>
		</clipPath>
		<g style="clip-path:url(#SVGID_00000112607638324495335010000013435113596528120722_);">
			<circle class="st7" cx="349.4" cy="328.6" r="9.3"/>
		</g>
	</g>
</g>
<g>
	<path class="st9" d="M375.9,381.5c0.3-0.6,1.4-1.6,3.5-2.5c2.3-1,5.8-1.9,10.6-2.1c9.6-0.4,15.9,6.1,15.9,6.1s-4.6,11.7-15.8,10.9
		C381.9,393.1,375.9,381.5,375.9,381.5z"/>
	<path class="st10" d="M390.4,381.8l-8.2-0.4l-2.2-0.9c0,0,5.3-2.3,11.4-2c6.7,0.4,10.3,2.9,10.3,2.9l-1.7,0.8L390.4,381.8z"/>
</g>
</svg>
