<?xml version="1.0" encoding="utf-8"?>
<!-- Generator: Adobe Illustrator 26.0.2, SVG Export Plug-In . SVG Version: 6.00 Build 0)  -->
<svg version="1.1" id="Calque_1" xmlns="http://www.w3.org/2000/svg" xmlns:xlink="http://www.w3.org/1999/xlink" x="0px" y="0px"
	 viewBox="0 0 788 1005" style="enable-background:new 0 0 788 1005;" xml:space="preserve">
<style type="text/css">
	.st0{clip-path:url(#SVGID_00000178913270660080937180000016274298644587172487_);}
	.st1{fill:#573623;}
	.st2{clip-path:url(#SVGID_00000105409521338128060620000010260331743311669918_);}
	.st3{clip-path:url(#SVGID_00000090265337619333138110000015506057569035575705_);}
	.st4{fill:#FFFFFF;}
	.st5{clip-path:url(#SVGID_00000175296626233272100400000015491590858630626180_);}
	.st6{clip-path:url(#SVGID_00000103983770742981906930000005567429846416568481_);}
	.st7{fill:#090909;}
	.st8{clip-path:url(#SVGID_00000175318949029525970610000015167629864615718547_);}
	.st9{fill:#9D5E70;}
	.st10{clip-path:url(#SVGID_00000020371873580925580990000006009777256023539617_);}
	.st11{fill:#60131D;}
	.st12{clip-path:url(#SVGID_00000090268891564030250210000004787150465703723169_);}
	.st13{clip-path:url(#SVGID_00000104706188583899215230000012788905513135577734_);}
	.st14{clip-path:url(#SVGID_00000081646340484024209340000011440832371443478188_);}
	.st15{clip-path:url(#SVGID_00000139983614621513231900000016701625707270921623_);}
	.st16{clip-path:url(#SVGID_00000166653074822917211210000018048976981360372876_);}
</style>
<g>
	<g>
		<defs>
			<rect id="SVGID_1_" x="410.6" y="293" width="40.1" height="9.2"/>
		</defs>
		<clipPath id="SVGID_00000153671335045395250740000001862631277917773754_">
			<use xlink:href="#SVGID_1_"  style="overflow:visible;"/>
		</clipPath>
		<g style="clip-path:url(#SVGID_00000153671335045395250740000001862631277917773754_);">
			<path class="st1" d="M416.8,301.3c-1.4,0.3-5.2-0.6-5.9-1.5c-0.7-0.9,0.6-3.6,1.5-4.3c0.4-0.3,6.9-4.8,23.5-1
				c8,1.8,15.6,5.7,14.8,7.6C450.4,302.9,437.2,297.3,416.8,301.3z"/>
		</g>
	</g>
</g>
<g>
	<g>
		<defs>
			<rect id="SVGID_00000068678930313835706850000010340362097215780532_" x="331" y="293" width="40.1" height="9.2"/>
		</defs>
		<clipPath id="SVGID_00000170990507575957727460000013644380750325997961_">
			<use xlink:href="#SVGID_00000068678930313835706850000010340362097215780532_"  style="overflow:visible;"/>
		</clipPath>
		<g style="clip-path:url(#SVGID_00000170990507575957727460000013644380750325997961_);">
			<path class="st1" d="M365,301.3c1.5,0.3,5.2-0.6,5.9-1.5s-0.6-3.6-1.5-4.3c-0.4-0.3-6.9-4.8-23.5-1c-8,1.8-15.6,5.7-14.8,7.6
				C331.4,302.9,344.5,297.3,365,301.3z"/>
		</g>
	</g>
</g>
<g>
	<g>
		<defs>
			<polygon id="SVGID_00000160151630698525902040000000851895224241967235_" points="414.4,318 414.4,318 442.3,318 442.3,344.8 
				414.4,344.8 			"/>
		</defs>
		<clipPath id="SVGID_00000147199734694673667750000008666986114043416745_">
			<use xlink:href="#SVGID_00000160151630698525902040000000851895224241967235_"  style="overflow:visible;"/>
		</clipPath>
		<g style="clip-path:url(#SVGID_00000147199734694673667750000008666986114043416745_);">
			<ellipse class="st4" cx="428.4" cy="331.4" rx="14" ry="13.4"/>
		</g>
	</g>
</g>
<g>
	<g>
		<defs>
			<polygon id="SVGID_00000069360894273267201810000016368067453128715397_" points="367.3,318 367.3,318 339.4,318 339.4,344.8 
				367.3,344.8 			"/>
		</defs>
		<clipPath id="SVGID_00000117637706936292685430000010606502353320791460_">
			<use xlink:href="#SVGID_00000069360894273267201810000016368067453128715397_"  style="overflow:visible;"/>
		</clipPath>
		<g style="clip-path:url(#SVGID_00000117637706936292685430000010606502353320791460_);">
			<ellipse class="st4" cx="353.4" cy="331.4" rx="14" ry="13.4"/>
		</g>
	</g>
</g>
<g>
	<g>
		<defs>
			<polygon id="SVGID_00000060032868533972659050000006096458176568012445_" points="424.3,322.1 424.3,322.1 442.9,322.1 
				442.9,340.7 424.3,340.7 			"/>
		</defs>
		<clipPath id="SVGID_00000086661246213180289820000006836751560557784200_">
			<use xlink:href="#SVGID_00000060032868533972659050000006096458176568012445_"  style="overflow:visible;"/>
		</clipPath>
		<g style="clip-path:url(#SVGID_00000086661246213180289820000006836751560557784200_);">
			<circle class="st7" cx="433.6" cy="331.4" r="9.3"/>
		</g>
	</g>
</g>
<g>
	<g>
		<defs>
			<polygon id="SVGID_00000025417677488297480650000006093540455892884357_" points="368.5,322.1 368.5,322.1 349.9,322.1 
				349.9,340.7 368.5,340.7 			"/>
		</defs>
		<clipPath id="SVGID_00000047033519774735152730000003006938735529064123_">
			<use xlink:href="#SVGID_00000025417677488297480650000006093540455892884357_"  style="overflow:visible;"/>
		</clipPath>
		<g style="clip-path:url(#SVGID_00000047033519774735152730000003006938735529064123_);">
			<circle class="st7" cx="359.2" cy="331.4" r="9.3"/>
		</g>
	</g>
</g>
<ellipse class="st9" cx="390.9" cy="383.7" rx="5.7" ry="7.6"/>
<g>
	<g>
		<defs>
			<rect id="SVGID_00000141450102276816399030000000692125648846239932_" x="410.6" y="293" width="40.1" height="9.2"/>
		</defs>
		<clipPath id="SVGID_00000162348315815169128820000004822067357781847958_">
			<use xlink:href="#SVGID_00000141450102276816399030000000692125648846239932_"  style="overflow:visible;"/>
		</clipPath>
		<g style="clip-path:url(#SVGID_00000162348315815169128820000004822067357781847958_);">
			<path class="st11" d="M416.8,301.3c-1.4,0.3-5.2-0.6-5.9-1.5c-0.7-0.9,0.6-3.6,1.5-4.3c0.4-0.3,6.9-4.8,23.5-1
				c8,1.8,15.6,5.7,14.8,7.6C450.4,302.9,437.2,297.3,416.8,301.3z"/>
		</g>
	</g>
</g>
<g>
	<g>
		<defs>
			<rect id="SVGID_00000032631015688332189600000010997178410315764364_" x="331" y="293" width="40.1" height="9.2"/>
		</defs>
		<clipPath id="SVGID_00000026158753914881334100000004571905019142907274_">
			<use xlink:href="#SVGID_00000032631015688332189600000010997178410315764364_"  style="overflow:visible;"/>
		</clipPath>
		<g style="clip-path:url(#SVGID_00000026158753914881334100000004571905019142907274_);">
			<path class="st11" d="M365,301.3c1.5,0.3,5.2-0.6,5.9-1.5s-0.6-3.6-1.5-4.3c-0.4-0.3-6.9-4.8-23.5-1c-8,1.8-15.6,5.7-14.8,7.6
				C331.4,302.9,344.5,297.3,365,301.3z"/>
		</g>
	</g>
</g>
<g>
	<g>
		<defs>
			<polygon id="SVGID_00000182491462156119661730000002709378415926876586_" points="414.4,318 414.4,318 442.3,318 442.3,344.8 
				414.4,344.8 			"/>
		</defs>
		<clipPath id="SVGID_00000121241069005411372730000007446448675883886267_">
			<use xlink:href="#SVGID_00000182491462156119661730000002709378415926876586_"  style="overflow:visible;"/>
		</clipPath>
		<g style="clip-path:url(#SVGID_00000121241069005411372730000007446448675883886267_);">
			<ellipse class="st4" cx="428.4" cy="331.4" rx="14" ry="13.4"/>
		</g>
	</g>
</g>
<g>
	<g>
		<defs>
			<polygon id="SVGID_00000018916912714892142950000008052742723396742839_" points="367.3,318 367.3,318 339.4,318 339.4,344.8 
				367.3,344.8 			"/>
		</defs>
		<clipPath id="SVGID_00000127756631327570644980000012808107252819995025_">
			<use xlink:href="#SVGID_00000018916912714892142950000008052742723396742839_"  style="overflow:visible;"/>
		</clipPath>
		<g style="clip-path:url(#SVGID_00000127756631327570644980000012808107252819995025_);">
			<ellipse class="st4" cx="353.4" cy="331.4" rx="14" ry="13.4"/>
		</g>
	</g>
</g>
<g>
	<g>
		<defs>
			<polygon id="SVGID_00000131341189022748559370000003255550670523475585_" points="424.3,322.1 424.3,322.1 442.9,322.1 
				442.9,340.7 424.3,340.7 			"/>
		</defs>
		<clipPath id="SVGID_00000064351554525259530560000013644637286767913641_">
			<use xlink:href="#SVGID_00000131341189022748559370000003255550670523475585_"  style="overflow:visible;"/>
		</clipPath>
		<g style="clip-path:url(#SVGID_00000064351554525259530560000013644637286767913641_);">
			<circle class="st7" cx="433.6" cy="331.4" r="9.3"/>
		</g>
	</g>
</g>
<g>
	<g>
		<defs>
			<polygon id="SVGID_00000109712973793941985000000004341867697451670175_" points="368.5,322.1 368.5,322.1 349.9,322.1 
				349.9,340.7 368.5,340.7 			"/>
		</defs>
		<clipPath id="SVGID_00000131367984263923555900000001808644045359571075_">
			<use xlink:href="#SVGID_00000109712973793941985000000004341867697451670175_"  style="overflow:visible;"/>
		</clipPath>
		<g style="clip-path:url(#SVGID_00000131367984263923555900000001808644045359571075_);">
			<circle class="st7" cx="359.2" cy="331.4" r="9.3"/>
		</g>
	</g>
</g>
<ellipse class="st9" cx="390.9" cy="383.7" rx="5.7" ry="7.6"/>
</svg>
