<?xml version="1.0" encoding="utf-8"?>
<!-- Generator: Adobe Illustrator 26.0.2, SVG Export Plug-In . SVG Version: 6.00 Build 0)  -->
<svg version="1.1" id="Calque_1" xmlns="http://www.w3.org/2000/svg" xmlns:xlink="http://www.w3.org/1999/xlink" x="0px" y="0px"
	 viewBox="0 0 788 1005" style="enable-background:new 0 0 788 1005;" xml:space="preserve">
<style type="text/css">
	.st0{clip-path:url(#SVGID_00000109740235011964414480000016795913833262108592_);fill:#60131D;}
	.st1{clip-path:url(#SVGID_00000177475396471906771380000014665626318872287904_);fill:#60131D;}
	.st2{clip-path:url(#SVGID_00000138532164612967422310000012683044436818486974_);fill:#60131D;}
	.st3{clip-path:url(#SVGID_00000078728952142872463350000013662608613080197011_);fill:#60131D;}
	.st4{clip-path:url(#SVGID_00000083074540587781674490000005374598043627923895_);fill:#FFFFFF;}
	.st5{clip-path:url(#SVGID_00000020381386441479193920000003233986313651741349_);fill:#FFFFFF;}
	.st6{clip-path:url(#SVGID_00000058552202221309318410000002239037813413367170_);fill:#090909;}
	.st7{clip-path:url(#SVGID_00000131329661404933792520000011417388422381410700_);fill:#090909;}
	.st8{fill:#9D5E70;}
	.st9{fill:none;stroke:#6A2C18;stroke-width:2;stroke-linecap:round;stroke-miterlimit:10;}
</style>
<g>
	<g>
		<defs>
			<polygon id="SVGID_1_" points="413.3,293 413.3,293 456.6,293 456.6,306.2 413.3,306.2 			"/>
		</defs>
		<clipPath id="SVGID_00000142134651114006178140000010532316947949998516_">
			<use xlink:href="#SVGID_1_"  style="overflow:visible;"/>
		</clipPath>
		<path style="clip-path:url(#SVGID_00000142134651114006178140000010532316947949998516_);fill:#60131D;" d="M454.6,306.2
			c-0.3,0-0.6-0.1-0.8-0.2c-4.3-1.8-8.8-3.2-13.3-4.3c-14.6-3.3-15.5-1-20.5,0c-1.5,0.3-5-0.6-5.7-1.4s-1.4-4-0.5-4.7
			c0.4-0.3,6.9-4.8,23.5-1c6.9,1.6,17.9,7.6,18.2,7.7c1.1,0.4,1.6,1.6,1.2,2.7C456.3,305.7,455.5,306.3,454.6,306.2L454.6,306.2z"/>
	</g>
</g>
<g>
	<g>
		<defs>
			<polygon id="SVGID_00000047025221215449100020000009294929159483462788_" points="371.1,293 371.1,293 327.8,293 327.8,306.2 
				371.1,306.2 			"/>
		</defs>
		<clipPath id="SVGID_00000054259385625640211580000004218224629525989264_">
			<use xlink:href="#SVGID_00000047025221215449100020000009294929159483462788_"  style="overflow:visible;"/>
		</clipPath>
		<path style="clip-path:url(#SVGID_00000054259385625640211580000004218224629525989264_);fill:#60131D;" d="M329.8,306.2
			c0.3,0,0.6-0.1,0.8-0.2c4.3-1.8,8.8-3.2,13.4-4.3c14.6-3.3,15.5-1,20.5,0c1.5,0.3,5-0.6,5.7-1.4s1.4-4,0.5-4.7
			c-0.4-0.3-6.9-4.8-23.5-1c-6.9,1.6-17.9,7.6-18.2,7.7c-1.1,0.4-1.6,1.6-1.2,2.7C328.2,305.7,329,306.3,329.8,306.2L329.8,306.2z"
			/>
	</g>
</g>
<g>
	<g>
		<defs>
			<rect id="SVGID_00000158729953666225581290000005641840611512396675_" x="412" y="293" width="40.1" height="9.2"/>
		</defs>
		<clipPath id="SVGID_00000093867793734313698830000017901458754516713608_">
			<use xlink:href="#SVGID_00000158729953666225581290000005641840611512396675_"  style="overflow:visible;"/>
		</clipPath>
		<path style="clip-path:url(#SVGID_00000093867793734313698830000017901458754516713608_);fill:#60131D;" d="M418.1,301.3
			c-1.4,0.3-5.2-0.6-5.9-1.5s0.6-3.6,1.5-4.3c0.4-0.3,6.9-4.8,23.5-1c8,1.8,15.6,5.7,14.8,7.6C451.7,302.9,438.5,297.3,418.1,301.3z
			"/>
	</g>
</g>
<g>
	<g>
		<defs>
			<rect id="SVGID_00000087397453404689876870000010308375887037419170_" x="332.3" y="293" width="40.1" height="9.2"/>
		</defs>
		<clipPath id="SVGID_00000023269586284496998470000011055780190525009849_">
			<use xlink:href="#SVGID_00000087397453404689876870000010308375887037419170_"  style="overflow:visible;"/>
		</clipPath>
		<path style="clip-path:url(#SVGID_00000023269586284496998470000011055780190525009849_);fill:#60131D;" d="M366.3,301.3
			c1.5,0.3,5.2-0.6,5.9-1.5s-0.6-3.6-1.5-4.3c-0.4-0.3-6.9-4.8-23.5-1c-8,1.8-15.6,5.7-14.8,7.6
			C332.7,302.9,345.9,297.3,366.3,301.3z"/>
	</g>
</g>
<g>
	<g>
		<defs>
			<polygon id="SVGID_00000121270599206841320620000016865325429214791315_" points="415.8,318 415.8,318 443.7,318 443.7,344.8 
				415.8,344.8 			"/>
		</defs>
		<clipPath id="SVGID_00000141455149099430910330000005524070313006148532_">
			<use xlink:href="#SVGID_00000121270599206841320620000016865325429214791315_"  style="overflow:visible;"/>
		</clipPath>
		
			<ellipse style="clip-path:url(#SVGID_00000141455149099430910330000005524070313006148532_);fill:#FFFFFF;" cx="429.7" cy="331.4" rx="14" ry="13.4"/>
	</g>
</g>
<g>
	<g>
		<defs>
			<polygon id="SVGID_00000083072440314087340730000015685082943656142498_" points="368.6,318 368.6,318 340.7,318 340.7,344.8 
				368.6,344.8 			"/>
		</defs>
		<clipPath id="SVGID_00000048478333750010065850000015499905198263344805_">
			<use xlink:href="#SVGID_00000083072440314087340730000015685082943656142498_"  style="overflow:visible;"/>
		</clipPath>
		
			<ellipse style="clip-path:url(#SVGID_00000048478333750010065850000015499905198263344805_);fill:#FFFFFF;" cx="354.7" cy="331.4" rx="14" ry="13.4"/>
	</g>
</g>
<g>
	<g>
		<defs>
			<polygon id="SVGID_00000004542488653422373380000003072630223224965815_" points="420.3,324 420.3,324 438.9,324 438.9,342.7 
				420.3,342.7 			"/>
		</defs>
		<clipPath id="SVGID_00000007402153399253589420000001466328949624379564_">
			<use xlink:href="#SVGID_00000004542488653422373380000003072630223224965815_"  style="overflow:visible;"/>
		</clipPath>
		
			<circle style="clip-path:url(#SVGID_00000007402153399253589420000001466328949624379564_);fill:#090909;" cx="429.6" cy="333.4" r="9.3"/>
	</g>
</g>
<g>
	<g>
		<defs>
			<polygon id="SVGID_00000132071690960829629110000015236121916814850239_" points="364.1,324 364.1,324 345.5,324 345.5,342.7 
				364.1,342.7 			"/>
		</defs>
		<clipPath id="SVGID_00000032618119929048938480000011671160993171012788_">
			<use xlink:href="#SVGID_00000132071690960829629110000015236121916814850239_"  style="overflow:visible;"/>
		</clipPath>
		
			<circle style="clip-path:url(#SVGID_00000032618119929048938480000011671160993171012788_);fill:#090909;" cx="354.8" cy="333.4" r="9.3"/>
	</g>
</g>
<path class="st8" d="M380.4,380.8c0-1.7,1.3-3.8,11.8-3.8s13,1.8,13,3.4s-2.9,6.6-13.4,6.6S380.4,382.4,380.4,380.8z"/>
<path class="st9" d="M387.5,1117c3.1,0.1,7.2,0.2,11.3,0.2c4.1,0,8.1-0.1,11-0.2"/>
</svg>
