<?xml version="1.0" encoding="utf-8"?>
<!-- Generator: Adobe Illustrator 26.0.3, SVG Export Plug-In . SVG Version: 6.00 Build 0)  -->
<svg version="1.1" id="Calque_1" xmlns="http://www.w3.org/2000/svg" xmlns:xlink="http://www.w3.org/1999/xlink" x="0px" y="0px"
	 viewBox="0 0 411.1 238.8" style="enable-background:new 0 0 411.1 238.8;" xml:space="preserve">
<style type="text/css">
	.st0{fill:#90573A;}
	.st1{fill:#7F4C36;}
	.st2{fill:#DBD1C1;}
	.st3{fill:#ED5875;}
	.st4{fill:none;stroke:#BCBCBC;stroke-width:2;stroke-linecap:round;stroke-miterlimit:10;}
	.st5{fill:#D3BB54;}
	.st6{fill:#BCBCBC;}
	.st7{fill:none;stroke:#BCBCBC;stroke-width:4.6229;stroke-linecap:round;stroke-miterlimit:10;}
	.st8{fill:none;stroke:#D3BB54;stroke-width:5.5475;stroke-linecap:round;stroke-miterlimit:10;}
</style>
<g id="Calque_1_00000011743013760090112840000000336151291609051309_">
	<g id="Calque_12">
		<path class="st0" d="M313.1,118.7c0,0-0.1,3.9-9.3,10c-10.9,7.3-6.9,21.4-8.4,28.7c-1,4.9-9.9,17.3-13.7,16.6
			c-10.8-2-16.9-16.2-26.7-20.4c-5.7-2.4-8.2-4.7-13.7-2c-5.5-2.8-8-0.5-13.7,2c-9.8,4.2-15.8,18.5-26.7,20.4
			c-3.9,0.7-12.7-11.7-13.7-16.6c-1.5-7.3,2.5-21.4-8.4-28.7c-9.2-6.1-11.6-11-11.6-11c-7-17.1-6.1-26.7,3.9-29.7s29.4-7,38.6-10.1
			c4.7-1.6,8.5-3.4,10.6-5.8l1.6-37.3l18.3-0.6h2.2l14.3,0.5l4,0.1l0.7,15.7l0.6,12.9v0.5l0.4,8.2c0.4,0.5,0.9,0.9,1.5,1.3
			c2.7,2,6.8,3.2,11.6,4.2c6.5,1.3,30.5,8,37.8,9.4c3.1,0.6-2.8-0.9,0,0C323.1,89.8,320.1,101.6,313.1,118.7z"/>
		<path class="st1" d="M263.8,73.3c-5.4,4.2-18.8,11.4-21.3,12.6c-8.2,3.9-28.3-5-32.8-8.1c4.7-1.6,8.5-3.4,10.6-5.8l1.6-37.3h38.8
			l1.2,28.5v0.5l0.4,8.2C262.7,72.4,263.2,72.9,263.8,73.3z"/>
	</g>
</g>
<path class="st2" d="M191.9,92.9c9,13.5-0.9,21.2-4.1,28c-5.1,10.9-2.7,33.4-4.6,44.5c-0.9,5.2-5.9,17.3-18,16.9l0,0
	c-15.5-1-16.1-14.1-15.9-19.1c0.3-10.3-4.4-53,3.6-64.7c0,0,7.2-12.2,21-13.2C182.8,84.7,188.3,87.4,191.9,92.9L191.9,92.9z"/>
<path class="st0" d="M173.2,176.9c-10.2,6-17.6,0.6-22.9-4.9c-3.8-3.9-34.9-44.7-43.5-55.7c-4.9-6.2-7.7-9.4-2.3-12.7
	c4.8-3.1,12.6,1.6,15.7,3.3c28.6,16.6,48.9,30.5,59.1,49.8C185.7,169.6,176.6,174.9,173.2,176.9z"/>
<path class="st2" d="M293.1,92.6c-9,13.5,0.9,21.2,4.1,28c5.1,10.9,2.7,33.4,4.6,44.5c0.9,5.2,5.9,17.3,18,16.9l0,0
	c15.5-1,16.1-14.1,15.9-19.1c-0.3-10.3,4.4-53-3.6-64.7c0,0-7.2-12.2-21-13.2C302.3,84.3,296.8,87.1,293.1,92.6L293.1,92.6z"/>
<path class="st0" d="M315.9,173.2c11.5,2.7,17-4.6,20.5-11.4c2.5-4.8,20.2-53,25.2-66c2.8-7.4,4.6-11.2-1.5-12.8
	c-5.5-1.5-11.6,5.2-14,7.8c-22.5,24.3-37.8,43.5-41.8,65C301.8,169.9,312,172.3,315.9,173.2z"/>
<path class="st0" d="M365.6,60.9c3.8-2.9,7.4-6.1,10.5-9.7c0,0,2.5,3.3,2.1,5.3c-0.3,1.6-5.9,8.4-5.9,8.4l0,0
	c27.2-10.6,48.9-16,52.1-16.5c2.2-0.4,8.6,1.7,8.6,1.7s-25.8,10.8-32.7,14.1c-23.7,11.3-29.3,17.3-36.6,27.3c-1.3,1.8-16.2-0.1-14-4
	c0.8-1.3-0.5-9,1.4-11.1C358.6,68.3,365.3,61.1,365.6,60.9z"/>
<path class="st2" d="M298.8,198.6c9.9-43.4,13.9-110.9,5.9-113.3c-3.4-1-27.2,14-62.7,15c-39.1,1.1-63.8-23.7-66.9-10.3
	c-3.1,13.2,2.3,60.4,8.3,97.5l-11.8,56.8c-0.4,2.1-0.1,4.2,0.9,6.1l0,0c1.6,2.9,4.6,4.6,7.8,4.6H299c4.1,0,7.6-2.8,8.6-6.7l1.2-4.8
	c0.4-1.4,0.4-2.9,0-4.4L298.8,198.6z"/>
<path class="st0" d="M110.5,104.6c0.4-0.4-0.2-3.1-0.1-3.7c0.7-2.9,2.6-12,2.2-13.7c-0.4-2-3.6-10.5-3.7-12.1s1.9-11.2,0.8-11.4
	c-0.7,0-2.3,0-3.7,0.1c-1.2,0.1-2.3,0.9-2.7,2.1l-1.8,5.2c-0.1,0.4-0.2,0.9-0.2,1.3l0.5,3.9c0.2,1.7-1.8,2.7-3,1.4l-7.1-7.6
	c-0.1-0.1-0.3-0.2-0.3-0.4c-1.3-2-6.1,2.5-6.1,2.5c-0.1-0.1-3.1,3.3-4.2,4.5c-0.3,0.3-0.5,0.6-0.8,0.9l-2.2,2.9
	c-1.9,2.5-3,5.6-3,8.8c0.1,1.4,0.2,2.6,1.1,3.2c0.2,0.1,0.4,0.3,0.5,0.5l16.8,16.8c0.5,0.5,1.2,0.8,1.8,0.9l3.7,0.4
	c0.9,0,5.5,1.8,6,1.2L110.5,104.6z"/>
<polygon class="st3" points="300.8,185.2 180.8,201.4 184,187.7 180.1,151.6 305.5,150.8 "/>
<path class="st4" d="M201.6,77.5c0,0,27.3,120.6,43.1,124c15.8,3.5,34.4-124.8,34.4-124.8"/>
<g>
	<ellipse transform="matrix(0.1446 -0.9895 0.9895 0.1446 1.6562 422.1546)" class="st5" cx="245" cy="210.1" rx="8.6" ry="8.6"/>
	<path class="st5" d="M240.2,213.3c0,0,5.9,5,6.3,8.6c0.1,0.9,0.1,1.5,0,1.9c0,0.3,0.2,0.5,0.5,0.5h6.7c0.3,0,0.6-0.2,0.6-0.5
		l-1.1-13.1"/>
</g>
<g>
	<path class="st6" d="M96.4,92.6l2.8,0.2c2.2,0.2,4.1-1.5,4.3-3.6l2.8-35c0.2-2.2-1.5-4.1-3.6-4.3l-2.8-0.2
		c-2.2-0.2-4.1,1.5-4.3,3.6l-2.8,35C92.6,90.5,94.2,92.4,96.4,92.6z"/>
	<path class="st7" d="M85.6,51l-0.7,7.6c-0.2,3.2,1,6.3,3.3,8.4l8.1,7.1"/>
	<circle class="st6" cx="38.5" cy="39" r="10.6"/>
	<path class="st3" d="M115.6,31.2l0.6,1.6c2.8,7.8,1.9,16.5-2.5,23.6l0,0c-0.6,1.1-1.9,1.7-3.2,1.4c-8.4-1.7-40.7-6.6-71.9,10.5
		C35.2,70,40.6,3,43.4,9.6c27.7,18.8,60.7,19.7,69.4,19.7C114,29.1,115.1,30,115.6,31.2z"/>
</g>
<line class="st8" x1="4.7" y1="38.3" x2="21" y2="39.2"/>
<line class="st8" x1="7.5" y1="9.9" x2="23.6" y2="26.9"/>
<line class="st8" x1="10.1" y1="66.7" x2="23.8" y2="51.5"/>
<path class="st0" d="M99.7,84.2l-6.2,7.3c-3.3,3.9-9.2,4.4-13.1,1.1l0,0c-3.9-3.3-4.4-9.2-1.1-13.1l6.2-7.3
	c3.3-3.9,9.2-4.4,13.1-1.1l0,0C102.5,74.5,103,80.3,99.7,84.2z"/>
</svg>
