<?xml version="1.0" encoding="utf-8"?>
<!-- Generator: Adobe Illustrator 26.0.3, SVG Export Plug-In . SVG Version: 6.00 Build 0)  -->
<svg version="1.1" id="Calque_1" xmlns="http://www.w3.org/2000/svg" xmlns:xlink="http://www.w3.org/1999/xlink" x="0px" y="0px"
	 viewBox="0 0 212.7 250.8" style="enable-background:new 0 0 212.7 250.8;" xml:space="preserve">
<style type="text/css">
	.st0{fill:#90573A;}
	.st1{fill:#7F4C36;}
	.st2{fill:#E8E0BF;}
	.st3{fill:#886B3B;}
	.st4{fill:#87503A;}
	.st5{fill:#4E6566;}
</style>
<g id="Calque_1_00000068646549413721590440000001363144965963823258_">
	<g id="Calque_12">
		<path class="st0" d="M165,81.1c0,0-0.1,3.9-9.3,10c-10.9,7.3-6.9,21.4-8.4,28.7c-1,4.9-9.9,17.3-13.7,16.6
			c-10.8-2-16.9-16.2-26.7-20.4c-5.7-2.4-8.2-4.7-13.7-2c-5.5-2.8-8-0.5-13.7,2c-9.8,4.2-15.8,18.5-26.7,20.4
			c-3.9,0.7-12.7-11.7-13.7-16.6c-1.5-7.3,2.5-21.4-8.4-28.7c-9.2-6.1-11.6-11-11.6-11C12.1,63,13,53.4,23,50.4s29.4-7,38.6-10.1
			c4.7-1.6,8.5-3.4,10.6-5.8l1.6-37.3l18.3-0.6h2.2l14.3,0.5l4,0.1l0.7,15.7l0.6,12.9v0.5l0.4,8.2c0.4,0.5,0.9,0.9,1.5,1.3
			c2.7,2,6.8,3.2,11.6,4.2c6.5,1.3,30.5,8,37.8,9.4c3.1,0.6-2.8-0.9,0,0C175,52.2,172,64,165,81.1z"/>
		<path class="st1" d="M115.7,35.7c-5.4,4.2-18.8,11.4-21.3,12.6c-8.2,3.9-28.3-5-32.8-8.1c4.7-1.6,8.5-3.4,10.6-5.8l1.6-37.3h38.8
			l1.2,28.5v0.5l0.4,8.2C114.6,34.8,115.1,35.3,115.7,35.7z"/>
	</g>
</g>
<g id="Calque_9">
	<path class="st2" d="M150.5,221.1c7.3-28,25-169.9,15.1-173.7c-20.4-8-19-7.9-36.3-9.7c-12.5-1.4-21,28-32.4,28.9
		c-7.1,0.6-27-29.1-33.4-28c-28.9,5-29.1,5.3-47.1,13.2C12.3,71,24.5,196.5,32,224.3c7.8,29.1,57.9,6.1,57.9,6.1
		S142.8,250.4,150.5,221.1z"/>
	<rect x="28.4" y="197.2" class="st2" width="123.1" height="23.4"/>
	<rect x="29.7" y="196.5" class="st2" width="124.2" height="23.4"/>
	<path class="st2" d="M24.7,109.6c0,0-3.4-23.4-7.2-58.4L44.1,44l31.8,47.4L24.7,109.6z"/>
</g>
<path class="st2" d="M32.9,217.2c-3.6,3.8,16.5-15.1,15-15.3s-13.7-13.6-18.7-5.1s-19,34.8,0,39.2s121.2,2.2,127.2-2.7
	s11.9-11.9,5.5-24.2s-4.3-27-9.6-31.8S32.9,217.2,32.9,217.2z"/>
<path class="st2" d="M150.5,221.1c7.3-28,15.1-177.1,15.1-177.1c-20.4-8-19-4.5-36.3-6.4c-12.5-1.4-21,28-32.4,28.9
	c-7.1,0.6-27.2-29.7-33.4-28c-29.2,8.1-29.1,5.3-47.1,13.2C12.3,70.9,24.5,196.4,32,224.2c7.8,29.1,57.9,6.1,57.9,6.1
	S142.8,250.4,150.5,221.1z"/>
<path class="st0" d="M146.1,134c3.8-3,7.8-5.6,12.1-7.7c0,0-3.7-2.5-6-2.4c-1.9,0.1-10.3,4-10.3,4l0,0c14.3-21.6,22-39.2,22.9-41.8
	c0.6-1.8-1.5-7.4-1.5-7.4s-14.3,20.4-18.7,25.9c-14.9,18.5-22.3,22.6-34.5,27.6c-2.1,0.9-0.9,13.7,3.7,12.2
	c1.6-0.5,10.6,1.5,13.1,0.1C136.9,139.1,145.8,134.3,146.1,134z"/>
<rect x="28.4" y="197.2" class="st3" width="123.1" height="23.4"/>
<path class="st2" d="M24.7,109.6c0,0-3.4-23.4-7.2-58.4L44.1,44l31.8,47.4L24.7,109.6z"/>
<path class="st4" d="M165.7,43.6c0,0-2.2,22.7-1.6,23.4s-11.7-8.3-11.7-8.3l-8,13.3l21.7,31c0,0,10.7,18.9,15.2,24.5
	c2.8,3.4,10.4,10,14,10.9c8.1,1.9,13.7-5.2,13.7-5.2s4.6-8.5,2.8-13.7c-2.2-6.5-11.6-22.9-13.4-26.4c-13.8-26.9-11.9-31.7-18.8-40.4
	C177,49.4,165.7,43.6,165.7,43.6z"/>
<polygon class="st2" points="28.4,230.5 28.4,188.8 157.9,167.8 157.9,230.5 "/>
<path class="st5" d="M63.5,38.1l5.4-9.4c0.6-1.1,2.1-1.2,3-0.3C78,35.2,98.4,58,98.4,58.2c0,0.2-0.5,6.1-0.8,10.2
	c-0.1,1.5-2,2.2-3.1,1.2L63.8,40.4C63.2,39.8,63.1,38.9,63.5,38.1z"/>
<path class="st5" d="M106.6,67.2c0-0.1-0.1-0.2-0.1-0.2c-0.7-1-6.5-9-6-9.6c0.4-0.5,9.5-19.3,12.6-25.6c0.5-1.1,1.9-1.4,2.8-0.6
	c3.5,2.7,10.7,8.4,11,9.1s-12.4,20-17.1,27.1C109,68.6,107.2,68.5,106.6,67.2L106.6,67.2z"/>
<path class="st0" d="M16.8,51.4c9.9-0.5,23.7,19.8,27,29.2c3.8,10.7,6.4,38.5,6.4,38.5l0,0l65.5,10.7l5.8-2.4l2.2,15.4l-9.9,1.7
	c0,0-84.5,8.2-88,6c-7-4.4-26.3-59.2-26.3-71.7C-0.6,66.4,8.7,51.7,16.8,51.4z"/>
<path class="st2" d="M31.3,223.1c-3.4,3.9,15.6-15.8,14.1-16s-14.4-13-18.9-4.3s-17.1,35.6,2.2,39.1s121.2-3.1,126.9-8.2
	s11.2-12.4,4.1-24.4s-5.8-26.8-11.3-31.4S31.3,223.1,31.3,223.1z"/>
<path class="st4" d="M98.7,35l12.5-0.8c0.2,0,0.3,0,0.5,0l22.4,4.6c0.3,0.1,0.5,0.2,0.7,0.3l10.9,8.1c0.2,0.1,0.3,0.3,0.5,0.5
	c1.6,2.6,12.9,21.2,9.4,22.2c-5.7,1.7-7.2,3.3-11.2,2c-5.5-1.8-11.5-8-13.3-9.9c-0.3-0.4-0.8-0.6-1.3-0.6l-14.1-0.6
	c-0.3,0-0.5,0-0.8,0.1c-1.9,0.8-10.8,4.5-11.4,4.5c-3.2,0.1-7.3-2.9-10.5-5.6c-2.6-2.2-2.4-6.2,0.4-8.2l10.4-7.4
	c0.3-0.2,0.7-0.3,1.1-0.3l4.7,0.1c2,0.1,2.6-2.6,0.8-3.4l0,0c-0.3-0.1-0.6-0.2-1-0.2c-1.8,0.2-7.9,0.9-8.7,0.5
	c-0.8-0.3-2.2-1.8-3.4-3.2C96.5,36.8,97.2,35.1,98.7,35z"/>
</svg>
