<?xml version="1.0" encoding="utf-8"?>
<!-- Generator: Adobe Illustrator 26.0.3, SVG Export Plug-In . SVG Version: 6.00 Build 0)  -->
<svg version="1.1" id="Calque_1" xmlns="http://www.w3.org/2000/svg" xmlns:xlink="http://www.w3.org/1999/xlink" x="0px" y="0px"
	 viewBox="0 0 788 1005" style="enable-background:new 0 0 788 1005;" xml:space="preserve">
<style type="text/css">
	.st0{fill:#C9C9C9;}
	.st1{fill:#375D63;}
	.st2{fill:#90573A;}
	.st3{fill:#D3D3D3;}
	.st4{fill:#7F4C36;}
	.st5{fill:#353535;}
	.st6{fill:#B7B7B7;}
</style>
<polygon class="st0" points="424.7,421.8 365.4,421.8 363.7,396.9 426.7,395.5 "/>
<g id="Calque_1_00000180352489093704844010000013830218214247062939_">
	<path class="st1" d="M476.4,654.5c-23.3,2.5-52.5,10-77.8,18.3c0,0-11.5,0.5-10.8-0.1L309,656.1l13.9-26.4
		c1.1-10.7,10.1-18.8,20.8-18.8h99.9c11,0,20.1,8.5,20.8,19.4L476.4,654.5z"/>
</g>
<polygon class="st2" points="374.4,369.2 413.9,369.2 413.9,422.8 392.2,464.3 374.4,422.8 "/>
<path class="st3" d="M525.6,532c-0.4-0.9-0.9-1.7-1.2-2.6L507.3,488c-1.7-4.9-4.1-9.6-7.1-14l-10.9-16.1
	c-4.4-6.5-10.8-11.6-18.4-14.7l-51.2-20.7l-26.5,53.6l-25.8-54.6L314.3,443c-7.9,3.2-14.5,8.6-18.9,15.5l-7.2,11.2
	c-5.9,9.2-10.6,18.9-14.2,29l-13.7,34c-4.4,10.4-4.2,19.9,3.7,26.1c8,6.2,19.9,5.2,26.6-2.3c0.1-0.1,0.2-0.2,0.2-0.3l35.2-47.7
	l6.4,30c0.1,5.1-3.6,25.1-6.4,40.7c-2.4,13.1-5.8,26-10.2,38.6l-20,56.9c-1.2,9.4,5.5,18,15.3,20c0,0,62.5,13.7,81,14.4
	c19.1,0.7,84.4-9.5,84.4-9.5c0.1,0,0.2,0,0.2,0c10.7-1.5,18-10.7,16.5-20.7l-22.3-62.2c-3.9-11-7.4-22.1-10.3-33.4
	c-3.2-12.5-7.5-28.5-7.4-34.9c2.8-20.6,10.4-41.8,10.4-41.8l29.1,50.5c7.4,7.4,19.9,8,27.9,1.2C528.4,551.8,530.4,541.9,525.6,532z"
	/>
<path class="st4" d="M374.4,369.2h39.5l-0.2,29c0,0-23,24.5-39.2,13.3C374.7,411.5,374.4,369.2,374.4,369.2z"/>
<path class="st3" d="M363.8,396.9l-8.9,19.8L310,444.6l22.5,84.3c1.4,5.2,3.7,10.1,6.7,14.5l3.5,5l100.8,1.5l5.2-7.5
	c2.8-4.1,5-8.7,6.3-13.5l23.6-82.5l-47.7-29.7l-4.4-21l-34.1,64.5L363.8,396.9z"/>
<path class="st5" d="M453.9,567H332.8c-2.6,0-4.8-1.6-4.8-3.7v-11.2c0-2,2.1-3.7,4.8-3.7h121c2.6,0,4.8,1.6,4.8,3.7v11.2
	C458.5,565.3,456.3,567,453.9,567z"/>
<path class="st5" d="M402.9,568h-11.8c-3.8,0-6.9-3.1-6.9-6.9v-8.3c0-3.8,3.1-6.9,6.9-6.9h11.8c3.8,0,6.9,3.1,6.9,6.9v8.3
	C409.9,564.9,406.8,568,402.9,568z"/>
<path class="st5" d="M393.4,557.7l-29.3,32.5c-1.5,1.6-1.4,4.1,0.2,5.6l5.1,4.9c1.7,1.7,4.5,1.4,6-0.5l25.4-33.9l-10.7-1.3
	l15.3,29.1c1.1,2.1,3.9,2.8,5.9,1.4l5.6-3.9c1.7-1.2,2.2-3.5,1.2-5.3l-18.9-32.6L393.4,557.7z"/>
<g>
	<path class="st6" d="M426.7,395.6c-24.9,51-53.2,102.3-80.5,152c24.9-51,53-102.3,80.3-152L426.7,395.6z"/>
</g>
<g>
	<path class="st6" d="M310.2,445.1c7.8,24.6,13.4,50.8,18.5,76C321,496.6,315.4,470.4,310.2,445.1L310.2,445.1z"/>
</g>
<g>
	<path class="st6" d="M478.4,447.2c-5.1,24.7-11.8,50.1-19.6,74.1C463.8,496.8,470.5,471.2,478.4,447.2L478.4,447.2z"/>
</g>
<path class="st2" d="M381.6,520.6l-15.1,0.5l-87.3,6c-1,0.1-2.1,0.3-3,0.6l0,0c-8.2,2.2-13.6,9.8-12.7,17.9c0.8,8,7.5,14.4,15.8,15
	l1.7,0.2c0,0,11.9-1.2,14.6-1.3c2.6-0.1,66.3-15.1,72.8-16.6c0.3-0.1,12.3-3.6,19.7-5.1L381.6,520.6z"/>
<path class="st2" d="M405.9,520.4l14.9,0.4l87.6,5.4l1.4,0.5c8,2.1,13.4,9.5,12.6,17.5c-0.7,7.9-7.2,14.2-15.5,14.9l-1.7,0.2
	c0,0-11.7-1.1-14.4-1.2c-2.6-0.1-65.5-14.4-71.8-15.8c-0.3-0.1-12.1-3.5-19.5-4.9L405.9,520.4z"/>
<path class="st2" d="M404.7,504.8c4.3-0.8,14.7,7.8,15.3,8.5c2.4,2.4,8.3,8.8,9.7,13c0.3,1-1,16.3-1.9,16.3s-24.1,0.6-25.6,0
	c-5-1.9-7.2-4-7.6-4.4c-4-4-0.1-10.5,0-16.7c0-3.2,1.1-6.4,3.1-8.8C400.4,509.2,401.4,506.6,404.7,504.8z"/>
<path class="st2" d="M397.4,512.8c2,2.5,3.1,5.6,3.1,8.8c0.1,6.2,4,12.7,0,16.7c-0.4,0.4-2.8,2.5-7.6,4.4c-1.5,0.6-24.8,0-25.6,0
	c-0.8,0-2.2-15.3-1.9-16.3c1.4-4.2,7.3-10.6,9.7-13c0.7-0.6,11-9.3,15.3-8.5C393.6,506.6,394.6,509.2,397.4,512.8z"/>
</svg>
