<?xml version="1.0" encoding="utf-8"?>
<!-- Generator: Adobe Illustrator 26.0.3, SVG Export Plug-In . SVG Version: 6.00 Build 0)  -->
<svg version="1.1" id="Calque_1" xmlns="http://www.w3.org/2000/svg" xmlns:xlink="http://www.w3.org/1999/xlink" x="0px" y="0px"
	 viewBox="0 0 788 1005" style="enable-background:new 0 0 788 1005;" xml:space="preserve">
<style type="text/css">
	.st0{fill:#D68F72;}
	.st1{fill:#AD6542;}
	.st2{fill:#9E8066;}
	.st3{fill:#FFBD75;}
	.st4{fill:#90573A;}
	.st5{fill:#7F4C36;}
	.st6{fill:#C83C55;}
</style>
<g id="Calque_1_00000119801379334062657410000006216359632185375627_">
	<g id="Calque_12">
		<path class="st0" d="M465.8,459.5c0,0-0.1,3.9-9.3,10c-10.9,7.3-6.9,21.4-8.4,28.7c-1,4.9-9.9,17.3-13.7,16.6
			c-10.8-2-16.9-16.2-26.7-20.4c-5.7-2.4-8.2-4.7-13.7-2c-5.5-2.8-8-0.5-13.7,2c-9.8,4.2-15.8,18.5-26.7,20.4
			c-3.9,0.7-12.7-11.7-13.7-16.6c-1.5-7.3,2.5-21.4-8.4-28.7c-9.2-6.1-11.6-11-11.6-11c-7-17.1-6.1-26.7,3.9-29.7s29.4-7,38.6-10.1
			c4.7-1.6,8.5-3.4,10.6-5.8l1.6-37.3l18.3-0.6h2.2l14.3,0.5l4,0.1l0.7,15.7l0.6,12.9v0.5l0.4,8.2c0.4,0.5,0.9,0.9,1.5,1.3
			c2.7,2,6.8,3.2,11.6,4.2c6.5,1.3,30.5,8,37.8,9.4c3.1,0.6-2.8-0.9,0,0C475.8,430.6,472.8,442.4,465.8,459.5z"/>
		<path class="st1" d="M416.5,414.1c-5.4,4.2-18.8,11.4-21.3,12.6c-8.2,3.9-28.3-5-32.8-8.1c4.7-1.6,8.5-3.4,10.6-5.8l1.6-37.3h38.8
			l1.2,28.5v0.5l0.4,8.2C415.4,413.2,415.9,413.7,416.5,414.1z"/>
	</g>
</g>
<path class="st2" d="M354.5,443.9c-2.2,0.3-27.8-16.1-33-28.3s-9.8-30.8,12-33.8c0,0,24.6-13,43.1-16s71.2,14.3,81,24.3
	s-1.9,35.5-13.6,36.7s-13.6,10.8-33.8,11.8S354.5,443.9,354.5,443.9z"/>
<path class="st3" d="M353,409.8c-8.9,0-25.7-21.1-13.4-28s45-16.3,43.1-16s-63.5-2.4-69.3,17c-5.7,18.9,3.1,38.6,16.2,37.2
	S353,409.8,353,409.8z"/>
<path class="st3" d="M421.2,376.3c-11.5-0.6,24.1,13.9,14.5,29.4s2.2,23.3,23,17.1C481.9,415.8,488.1,380,421.2,376.3z"/>
<path class="st4" d="M481.9,456.8c-4,9.8-16.2,6.5-25.5,12.7c-10.9,7.3-6.9,21.4-8.4,28.7c-1,4.9-9.9,17.3-13.7,16.6
	c-10.8-2-16.9-16.2-26.7-20.4c-5.7-2.4-8.2-4.7-13.7-2c-5.5-2.8-8-0.5-13.7,2c-9.8,4.2-15.8,18.5-26.7,20.4
	c-3.9,0.7-12.7-11.7-13.7-16.6c-1.5-7.3,2.5-21.4-8.4-28.7c-9.2-6.1-21.4-2.9-25.5-12.7c-7-17.1,14.5-27,24.4-30
	c11-3.3,25-5.5,34.4-9.1c3.5-1.4,6.4-3,8.1-4.9l1.6-37.3l18.3-0.6h2.2l14.3,0.5l4,0.1l0.7,15.7l0.6,12.9l0.4,8.7
	c2.5,2.7,7.2,4.3,13,5.5c6.5,1.3,14.2,2.1,21.5,3.5c3,0.5,6,1.2,9,2.1C468.5,426.8,488.9,439.7,481.9,456.8z"/>
<path class="st5" d="M415,412.8c0,0-18.6,8.5-21.9,8.6c-10.4,0.3-28.3-3.7-28.3-3.7c3.5-1.4,6.4-3,8.1-4.9l1.6-37.3h38.8l1.3,28.5
	L415,412.8z"/>
<path class="st0" d="M438.6,442.8c1.6,17.1,14.8,20.8,21.9,26.4c11.3,8.8,25.7,32.8,34.3,43.2c4.1,4.9,15.8,15.2,25.5,10.1l0,0
	c12.1-7,6.3-18.1,3-23.1c-6.8-10.2-25.3-30.4-30.1-41.3c-3.6-8.1-5-16.7-19.3-25.2c0,0-13.9-9.3-25.7-4.8
	C440.6,430.9,437.9,435.8,438.6,442.8L438.6,442.8z"/>
<path class="st0" d="M517.8,500.9c13.4,5.4,9.9,14.6,7.7,19.2c-2.3,5-37.9,48.2-46.9,60.3c-5.1,6.8-7.6,10.6-13.1,8.6
	c-5-1.8-4.9-5.6-1.8-12.8c15.8-36.8,15.8-43.2,31.8-68.6C502.3,496.7,514.4,499.5,517.8,500.9z"/>
<path class="st0" d="M265.6,516.4c15-0.9,14.4-10,14.7-14.8c0.3-5.3-11.1-56.1-13.8-70c-1.5-7.8-2-12-8.1-11.8
	c-5.5,0.2-7.6,8.2-7.7,11.4c-1.5,34.6-1.5,42.8-0.9,73.8C250.1,519.9,261.8,516.6,265.6,516.4z"/>
<path class="st4" d="M280.7,411.1c0.9-1.1,2-1.9,3.4-2.3c2.5-0.8,6.2-1.8,6-0.9c-0.4,1.3-5.6,11.9-6.9,14.5
	c-0.2,0.4-0.5,0.7-0.8,0.9c-2.2,1.2-10.8,5.9-14.6,13c-0.8,1.4-9.9,1-13.6,0.8c-0.9-0.1-1.6-0.7-1.8-1.6l-0.7-3.9
	c0-0.3-0.1-0.5-0.3-0.8l-12-17.8c-0.2-0.3-0.3-0.6-0.3-1l-1.5-22.4c0.1-1,0.9-1.7,1.8-1.7l0,0c1-0.2,2.1,0.4,2.4,1.4l4.6,16.3
	l-3.2-25.8c0.1-1.4,1.2-2.4,2.6-2.4h0.2c1.4-0.2,2.8,0.5,3.3,1.8l4.4,21.8l-0.7-22.2c-0.1-1.2,1-2.3,2.6-2.5l0,0
	c1.5-0.3,2.9,0.6,3.3,2l3.4,19.4c0.3,1.5,2.1,2.1,3.2,1.1l4.3-3.9c0.4-0.4,1-0.6,1.6-0.5c2.4,0.4,7.1,2.3,8.9,3
	c0.4,0.2,0.8,0.5,1,0.9c0.5,0.9,1.3,2.6,2,4.1c0.6,1.3-0.4,2.9-1.9,2.8l0,0c-1.8-0.1-3.4-1-4.4-2.5l-0.3-0.5l-1.5-0.2
	c-0.8-0.1-1.6,0.3-2,1.1l-2.7,5.5c-0.2,0.5-0.3,1.1-0.1,1.6l1.9,4.7c0.4,0.9,1.4,1.4,2.3,1.1l2.2-0.6c0.4-0.1,0.7-0.3,1-0.7
	L280.7,411.1z"/>
<path class="st6" d="M283.9,459.4l39.9,18.3l3.7,0.6v107.3l129.9-0.7l-5.6-112.1l11.7,2.6l41.6-3.6L473.9,431l-37.9-9.5
	c0,0-34.7,9.8-46.7,9.5c-10.7-0.2-41-10.3-41-10.3l-36.5,10.1L283.9,459.4"/>
<path class="st3" d="M352.6,405.7c0.6,1.6,20.9,31.1,19,35.1s-11.3,143.1-12.2,146.6s-2,25-4.1,24s-31.7-7.1-31.7-7.1
	s0.1-16.3,0-16.9s-12-16.5-12-18.1s4.7-93,5.6-88.4S270,517.5,267.3,518s-14.2,7.8-19,0s-7.3-65-7.3-65l7.8-6.2l1.7-9l18.4-0.5
	c0.9,5.3,3,6.6,3,8.2s9.5,3.3,10.8,6.6l0,0l4.3-4.3l23.5-23.3l27.6-9.8L352.6,405.7z"/>
<path class="st3" d="M435.6,405.7c-0.6,1.6-20.9,31.1-19,35.1s11.3,143.1,12.2,146.6s2,25,4.1,24s25.1-5.6,25.1-5.6
	s6.5-17.9,6.6-18.5s12-16.5,12-18.1s-4.7-93-5.6-88.4s13,25.3,15.6,25.7s-24.8,45.8-20,38s-5.9,54-5.9,54l24.5-11.2
	c0,0,52.4-62,50.9-85.5c-1.4-22.4-58.5-77.2-58.5-77.2l-27.6-9.8L435.6,405.7z"/>
</svg>
