<?xml version="1.0" encoding="utf-8"?>
<!-- Generator: Adobe Illustrator 26.0.3, SVG Export Plug-In . SVG Version: 6.00 Build 0)  -->
<svg version="1.1" id="Calque_1" xmlns="http://www.w3.org/2000/svg" xmlns:xlink="http://www.w3.org/1999/xlink" x="0px" y="0px"
	 viewBox="0 0 788 1005" style="enable-background:new 0 0 788 1005;" xml:space="preserve">
<style type="text/css">
	.st0{fill:none;stroke:#333333;stroke-width:0.8903;stroke-miterlimit:10;}
	.st1{fill:#D31149;}
	.st2{fill:#C60C4B;}
	.st3{fill:#90573A;}
	.st4{fill:#7F4C36;}
	.st5{fill:#21212D;}
</style>
<path class="st0" d="M390.7,583.1c-22.6-15.6-60.3-13.4-77-30.8c-16.7-17.5,2.1-73.1-12.2-89.3c-14.3-16.2-51.3-15-67-29.5
	s-23.9-63.4-23.9-63.4"/>
<path class="st0" d="M246.5,361.5c1.3,27.3-23.9,60.1-18,83.5c6.1,23.4,63.4,36.6,69.6,57.3c6.4,20.7-1.5,34.5,2.6,55.5
	c4.2,21,80.8,33.2,80.8,33.2"/>
<path class="st1" d="M201.4,259.8c2.4-63.4,86.9-39.6,86.3,4.5c-0.6,42.8-41,101.8-41,101.8s-71.3-10.9-101.8-41
	C112.9,293.2,152.9,217.1,201.4,259.8z"/>
<path class="st2" d="M181.6,312c1.9-48,65.9-29.9,65.4,3.5c-0.5,32.4-31,77.1-31,77.1s-54.1-8.2-77.1-31
	C114.6,337.5,144.9,279.9,181.6,312z"/>
<g id="Calque_1_00000092416591651727795750000013287074332493574055_">
	<g id="Calque_12">
		<path class="st3" d="M465.8,459.5c0,0-0.1,3.9-9.3,10c-10.9,7.3-6.9,21.4-8.4,28.7c-1,4.9-9.9,17.3-13.7,16.6
			c-10.8-2-16.9-16.2-26.7-20.4c-5.7-2.4-8.2-4.7-13.7-2c-5.5-2.8-8-0.5-13.7,2c-9.8,4.2-15.8,18.5-26.7,20.4
			c-3.9,0.7-12.7-11.7-13.7-16.6c-1.5-7.3,2.5-21.4-8.4-28.7c-9.2-6.1-11.6-11-11.6-11c-7-17.1-6.1-26.7,3.9-29.7s29.4-7,38.6-10.1
			c4.7-1.6,8.5-3.4,10.6-5.8l1.6-37.3l18.3-0.6h2.2l14.3,0.5l4,0.1l0.7,15.7l0.6,12.9v0.5l0.4,8.2c0.4,0.5,0.9,0.9,1.5,1.3
			c2.7,2,6.8,3.2,11.6,4.2c6.5,1.3,30.5,8,37.8,9.4c3.1,0.6-2.8-0.9,0,0C475.8,430.6,472.8,442.4,465.8,459.5z"/>
		<path class="st4" d="M416.5,414.1c-5.4,4.2-18.8,11.4-21.3,12.6c-8.2,3.9-28.3-5-32.8-8.1c4.7-1.6,8.5-3.4,10.6-5.8l1.6-37.3h38.8
			l1.2,28.5v0.5l0.4,8.2C415.4,413.2,415.9,413.7,416.5,414.1z"/>
	</g>
</g>
<path class="st3" d="M347.9,444.2c0.2,19.8-13.4,25.3-20.4,32.4c-11.1,11.2-22.3,39.5-30.7,52.2c-3.9,6-15.6,18.7-26.4,13.6l0,0
	c-13.5-7.1-6.3-23.3-3.1-29.3c6.4-12.3,27.5-65.9,41.7-77.1c0,0,13.8-12,26.9-8C344.3,430.6,347.8,436,347.9,444.2L347.9,444.2z"/>
<path class="st3" d="M266.4,525.3c5.6-10.4,16.8-6.7,26.1-2.1c6.6,3.2,67.6,41,84.3,51.1c9.4,5.7,14.6,8.5,11.8,14.2
	c-2.5,5.2-13.5,2.4-17.8,1.4c-40.6-9.9-70.7-19.4-95.2-38.9C259.5,538.1,264.4,528.9,266.4,525.3z"/>
<path class="st3" d="M444.9,428.4c-5.5,11.8,3.9,22.1,7,28.7c5,10.6,5.5,31.4,8,41.8c1.2,4.9,6.2,16.6,15.3,17.2l0,0
	c11.6,0.3,10.7-11.8,10.1-16.6c-1.2-8.7-6.2-48.7-12.4-65c-1.3-3.3-3.8-5.9-7.1-7.2c-2-0.8-4.8-1.7-8.4-2.4
	c-6.8-1.2-10.4-2.3-12.6,2.6L444.9,428.4z"/>
<path class="st3" d="M479.4,520c11.2,2.7,16.6-4.7,20-11.4c2.5-4.8,19.7-53.3,24.6-66.5c2.8-7.4,4.5-11.3-1.4-12.9
	c-5.4-1.5-11.3,5.2-13.6,7.8c-22,24.5-36.9,43.8-40.8,65.5C465.6,516.7,475.5,519.1,479.4,520z"/>
<path class="st5" d="M335.4,426.2c0,16.2-3.4,57.2-3.6,59.8c0,0.1,0,0.2,0,0.2c0,3.1,0.8,65.5-2,86.4c-1.6,11.5-18.2,44.7-18.4,46.6
	c0,0.1,0,0.1,0,0.2c-2.7,13.2,5.7,26.1,18.8,28.9c1.7,0.4,3.4,0.5,5.1,0.5h122c11.6,0,20.9-9.4,20.9-20.9c0-2-0.3-4-0.9-6
	c0-0.1-0.1-0.2-0.1-0.3c-0.4-2.5-19.5-36.3-22.1-48.2c-2.6-12.2,0.3-79.9,0.5-83.4c0-0.1,0-0.2,0-0.3l-3.8-64
	c-0.1-1.1-0.9-2.1-2-2.4l-11.4-2.9c-0.5-0.1-0.9-0.1-1.4,0c-5.1,1.5-12.9,4.2-20.2,6.7c-12.8,4.5-26.7,5-39.9,1.4l-28.9-8
	c-0.5-0.1-1-0.1-1.5,0l-9.4,3C336,424.1,335.4,425.1,335.4,426.2z"/>
<path class="st3" d="M524.3,436.3l-8.5-3.7c-0.7-0.4-1.2-1.1-1.3-1.9l-0.8-19c0-0.6,0.2-1.1,0.5-1.5l7.5-8.8
	c0.2-0.3,0.3-0.6,0.4-0.9l5.2-23.1c0.2-0.8,0.8-1.4,1.6-1.6l0,0c1.4-0.4,2.7,0.8,2.6,2.3l-2.1,19.3c0,0.3,0.5,0.5,0.7,0.2l13.1-19.8
	c0.7-1,2-1.3,3-0.6l0.2,0.1c0.9,0.6,1.2,1.8,0.6,2.8c-2.3,4.1-8.3,15-10.3,18.1c-0.3,0.5-0.4,1.2-0.2,1.9c1.2,3,4.8,11.5,6.1,14.6
	c0.3,0.7,0.2,1.6-0.3,2.2c-2.8,3.5-12.3,14.8-15.5,18.7C526.3,436.4,525.3,436.6,524.3,436.3z"/>
</svg>
