<?xml version="1.0" encoding="utf-8"?>
<!-- Generator: Adobe Illustrator 26.0.3, SVG Export Plug-In . SVG Version: 6.00 Build 0)  -->
<svg version="1.1" id="Calque_1" xmlns="http://www.w3.org/2000/svg" xmlns:xlink="http://www.w3.org/1999/xlink" x="0px" y="0px"
	 viewBox="0 0 788 1005" style="enable-background:new 0 0 788 1005;" xml:space="preserve">
<style type="text/css">
	.st0{fill:#1C1938;}
	.st1{fill:#FF9603;}
	.st2{fill:#D8C5A7;}
	.st3{fill:#90573A;}
	.st4{fill:#7F4C36;}
	.st5{fill:#D68F72;}
	.st6{fill:#B22947;}
	.st7{fill:#E78367;}
	.st8{fill:#87213C;}
	.st9{fill:#FEBC6E;}
	.st10{fill:#FFFFFF;}
	.st11{fill:#35912D;}
	.st12{fill:#E0AA4B;}
	.st13{fill:#7097BA;}
	.st14{fill:#BA3E35;}
</style>
<g>
	<path class="st0" d="M134.6,410.1c43.6,14.6,85.9,33.5,125.9,56.2C216.8,451.6,174.6,432.8,134.6,410.1L134.6,410.1z"/>
</g>
<path class="st1" d="M135.3,404.4c-5.7-0.6-12.4,1.9-14.1,4.3c0,0,6.4-0.1,8,1.7c0.8,0.8,1.1,2.1,1.7,3.5
	C134.8,411.7,132.8,407.7,135.3,404.4z"/>
<path class="st2" d="M131,413.9c0.7,1.6,1.9,3.4,4.4,4.2c4.5,1.5,7.6-1.7,8.1-2.7s-0.2-9.1-6.2-10.6c-0.6-0.2-1.2-0.3-1.9-0.3
	C132.8,407.7,134.8,411.7,131,413.9z"/>
<g id="Calque_1_00000037665461968309345410000012861229951520619442_">
	<g id="Calque_12">
		<path class="st3" d="M465.8,459.5c0,0-0.1,3.9-9.3,10c-10.9,7.3-6.9,21.4-8.4,28.7c-1,4.9-9.9,17.3-13.7,16.6
			c-10.8-2-16.9-16.2-26.7-20.4c-5.7-2.4-8.2-4.7-13.7-2c-5.5-2.8-8-0.5-13.7,2c-9.8,4.2-15.8,18.5-26.7,20.4
			c-3.9,0.7-12.7-11.7-13.7-16.6c-1.5-7.3,2.5-21.4-8.4-28.7c-9.2-6.1-11.6-11-11.6-11c8.7-13.6,12.3-28.4,22.3-31.4
			s11-5.4,20.2-8.5c4.7-1.6,8.5-3.4,10.6-5.8l1.6-37.3l18.3-0.6h2.2l14.3,0.5l4,0.1l0.7,15.7l0.6,12.9v0.5l0.4,8.2
			c0.4,0.5,0.9,0.9,1.5,1.3c2.7,2,6.8,3.2,11.6,4.2c6.5,1.3,20.9,6.2,28.2,7.5c3.1,0.6,9.9,16.8,12.7,17.6
			C478.9,446.5,472.8,442.4,465.8,459.5z"/>
		<path class="st4" d="M416.5,414.1c-5.4,4.2-18.8,11.4-21.3,12.6c-8.2,3.9-28.3-5-32.8-8.1c4.7-1.6,8.5-3.4,10.6-5.8l1.6-37.3h38.8
			l1.2,28.5v0.5l0.4,8.2C415.4,413.2,415.9,413.7,416.5,414.1z"/>
	</g>
</g>
<path class="st3" d="M363.2,437.5c-4.6,21.5-19.4,24.7-27.9,30.9c-13.6,9.8-26.2,29.2-37.4,41.2c-5.3,5.7-11.7,6.6-17.8,2.5
	l-4.1-2.5c-11.5-10.5,1-21.4,5.5-27.3c9.3-12,27.3-32.8,34.3-46.1c5.3-9.9,41.3-18.1,35.3-6.8c0,0,3.2,3.1,15,10.2
	C373.7,444.3,365.1,428.6,363.2,437.5L363.2,437.5z"/>
<path class="st3" d="M291.4,513.9c9.5-5.7,6.4-15.2,4.4-18.5c-2.1-3.6-42.1-40.9-49.5-49.2c-4.2-4.7-6.1,0.6-9.4,2.6
	c-3,1.9-0.4,7.6,0.6,9.9c2.2,5,31,49.8,33.5,53.4C276.1,519.5,288.7,515.5,291.4,513.9z"/>
<path class="st3" d="M214.7,422.6l-1.3,3.7c-0.3,0.9-0.1,1.9,0.6,2.5c0.9,0.8,1.8,1.8,2.6,2.7c1.1,1.3,4.1,4.4,5.1,5.5
	c0.3,0.3,0.4,0.6,0.5,0.9l0,0c0.4,1.3-0.4,2.8-1.8,3c-4.1,0.8-6.6,1.6-12.6,2c-5.4,0.4-17.7-2.6-22.9-4.7c-2.8-1.1-7.4-5.9-10.4-6.3
	c-1-0.1-2.8,0.5-4.4,1.2c-1.6,0.7-1.9,2.8-0.6,3.9l9,7.7c0.2,0.1,0.3,0.3,0.5,0.3c2.5,1.2,21.3,9.8,28,12.3c7.8,2.8,24,6.8,32.1,7
	c2.6,0,7.8,0.1,10.7-4.2c2.5-3.7,0.4-8-1.1-10.6c-1.8-3.3-22.9-21.7-30.4-28C217.1,420.6,215.2,421.1,214.7,422.6z"/>
<path class="st3" d="M431.9,443.6c4,17.7,17.3,20.1,25,25.2c12.2,8,28.1,31.1,38.2,41c4.8,4.6,17.8,13.8,26.3,7.3l0,0
	c10.5-8.8,3.1-19.7-1-24.5c-8.3-9.8-30-33.3-36.3-44.1c-4.7-8.1-4.5-11.8-19.5-19.2c0,0-14.8-8.2-25.6-2.2
	C432.1,430.9,430.2,436.3,431.9,443.6L431.9,443.6z"/>
<path class="st5" d="M372.6,523.6c-8.2,4.1-20.6,9.2-20.6,9.2s6.3,4.6,8.9,4.9c2.1,0.2,11.3-4,11.3-4l16.3,2.6
	c-3.4,4.5-11.7,6.8-16.2,11.8c-3.5,3.9-20.8-3.7-26.9-0.6c-3.4,1.7-11.3,1.4-14.1,4c-2,1.8-3.6,10.9-3.6,10.9l18.9-1.4
	c0,0,25.9-11.2,34.1-15.8c8.9-4.9,24.4,2.1,30.1-3.2c1.9-1.7,5.4-5.1,4.2-10.1c-1.1-4.2-5.9-5.8-9-6.7
	C401.3,524.2,373,523.4,372.6,523.6z"/>
<path class="st6" d="M292.1,431.2c6.5,12.6,26.8,43,35.9,56.5c3,4.4,4.8,9.4,5.4,14.7l-6.4,47.5l-7.2,50.8h153.4l-8.6-45.9
	l-6.4-54.2c0.4-5.1,1.9-10,4.6-14.4l31.9-53c1.6-2.6,0.2-6-2.7-6.8l-32.1-8.7c-0.9-0.3-1.9-0.2-2.8,0.1l-41.6,15.8
	c-11.6,4.4-24.5,4.3-36-0.3c-16.3-6.5-38.2-15.6-43.9-18c-0.9-0.4-1.9-0.5-2.9-0.2l-37.6,9.6C292.2,425.4,290.7,428.6,292.1,431.2z"
	/>
<path class="st6" d="M322,598.8h149c1.2,0,2.2,1,2.2,2.2v14.9c0,3.5-3.7,6.3-8.4,6.3H328.1c-4.7,0-8.4-2.8-8.4-6.3V601
	C319.8,599.8,320.8,598.8,322,598.8z"/>
<path class="st7" d="M117,416.6l-0.1-0.1c-0.2,0.1-0.4,0.2-0.6,0.4l-0.1,0.1L117,416.6z"/>
<g>
	<path class="st8" d="M334.2,414.4c12.3,15.8,25.1,32.5,37,48.4c11.8,16.4,26.3,32.2,31.8,50.1c0.8,1.9,1.3,4.8,1.6,6.8
		c5,29,9.9,58.6,14,87.7c0.5,3.3,1.4,10.2,1.8,13.5c-0.8-3.4-2.2-10-2.9-13.4c-6.2-28.9-11.7-58.4-16.9-87.4c-0.3-2-0.8-4.7-1.6-6.6
		c-5.4-17.7-19.7-33.4-30.7-49.8C357,447.5,345.2,430.5,334.2,414.4L334.2,414.4z"/>
</g>
<path class="st3" d="M420.9,599.1l3.5,10c0.1,0.2,0.2,0.4,0.2,0.6l7.4,14.2c0.3,1.9,2.2,3.2,4.1,2.7c0.3-0.1,0.7-0.3,1-0.4
	c1.2-0.9,1.6-2.5,1-3.9l-4.4-10c0.1-2.4,2.6-4,4.8-3l4,1.8c0.6,0.3,1.1,0.8,1.5,1.4l4.8,10.2c1,1.5,1,3.4,0.3,5l-2.6,7.4
	c-0.5,1.2-0.3,2.9,0.9,3.7c1.5,1,3.5,0.4,4.3-1.1c0,0,3.6-7.6,4.9-10.4c0.2-0.4,0.4-1,0.8-1.4c0.6-0.9,0.8-2.1,0.3-3.2l-5.6-17l0,0
	c-0.4-1-1-2-1.7-2.9l-17.9-24.1l-1-1.1c-1.5-1.9-4.7,1.1-7,3.8c-1.6,1.9-2.7,4.2-3.1,6.6l-0.9,4.8C420,594.9,420.2,597,420.9,599.1z
	"/>
<path class="st9" d="M362.4,625.5c-0.5,22.2,17.3,40.3,39.4,40.3c4.4,0,8.5-0.7,12.4-2c3.6-1.2,6.3-4.2,7.1-7.9
	c2.5-11.5-2.6-28.9,2.8-31.1c4-1.7,7.3,2.6,10.7,5c2.7,1.9,6.5,0,6.5-3.3l0,0c0-22-18.2-39.9-40.3-39.4
	C380.1,587.5,363,604.6,362.4,625.5z M429.4,619.1c0-2.4,1.9-4.4,4.4-4.4s4.4,1.9,4.4,4.4c0,2.4-1.9,4.4-4.4,4.4
	C431.3,623.5,429.4,621.5,429.4,619.1z"/>
<path class="st3" d="M430.2,619.8l3,5.9c0.3,0.7,0.6,1.4,0.9,2.1c0.6,1.5,2.2,2.4,3.8,1.9c0.3-0.1,0.7-0.3,1-0.4
	c1.2-0.9,1.6-2.5,1-3.9l-3.8-7.8C434,618.5,432.1,619,430.2,619.8z"/>
<g>
	<g>
		<path class="st10" d="M417.2,622.2c2.9,0.5,3.5-10.1,0-10.6c-1.5-0.3-3.3-1-4.8-0.3c-3.5,1.7-3.2,7.3-2.6,10.3
			c0.6,2.9,1.1,5.8,1.7,8.7c0.3,1.6,1.7,3.7,3.2,1.9c1.7-1.8,1.3-5.2,0.9-7.3c-0.4-2.4-0.9-4.6-1.3-6.9c-0.1-0.5-0.1-1-0.3-1.6
			c-0.1-0.2-0.1-0.3-0.1-0.3c-0.1,1.8-0.2,3.8-0.3,5.6c0.2-0.1,0.4,0,0.6,0C415.1,622,416.2,622,417.2,622.2L417.2,622.2z"/>
	</g>
</g>
<g>
	<g>
		<path class="st11" d="M383.2,622.6c-2.6-1.7-4,8.5-1.3,10.3c1.7,1.2,3.5,2.4,5.2,3.7c0.2-3.6,0.4-7.1,0.6-10.6
			c-3.6-0.4-7.3-0.9-10.9-1.3c-3.1-0.3-3,9.4-0.6,10.6c5.1,2.5,10.1,5.1,15.2,7.6c0.2-3.6,0.4-7.1,0.6-10.6
			c-4.2,0.1-8.4,0.2-12.6,0.3c-3.4,0.1-3.2,10.8,0,10.8c4.2-0.1,8.4-0.2,12.6-0.3c3.3-0.1,3.1-9.4,0.6-10.6
			c-5.1-2.5-10.1-5.1-15.2-7.6c-0.2,3.6-0.4,7.1-0.6,10.6c3.6,0.4,7.3,0.9,10.9,1.3c1.8,0.3,2.3-3.5,2.4-4.6c0.2-1.7,0-4.7-1.7-5.9
			C386.7,625,385,623.8,383.2,622.6L383.2,622.6z"/>
	</g>
</g>
<g>
	<g>
		<path class="st12" d="M401.7,600.3c-0.3-1.3-1.5-3.1-2.8-1.7c-1.3,1.7-1.1,4.4-0.7,6.3c0.5,2.4,1,4.8,1.6,7.3
			c0.3,1.2,1.5,3.2,2.8,1.7c1.3-1.7,1.1-4.4,0.7-6.3C402.7,605.2,402.2,602.7,401.7,600.3L401.7,600.3z"/>
	</g>
</g>
<g>
	<g>
		<path class="st13" d="M379.9,609.9c0.8-2.3,1-5.2,0-7.6c-0.8-1.7-2.6-2.1-3.3,0c-1.7,4.7-1.7,11.4,2,15.1
			c2.7,2.7,7.1,3.4,10.7,4.5c3.6,1.1,4.1-9.4,1.2-10.4c-2.1-0.7-4.1-1.3-6.1-2c-1.2-0.3-2.6-0.8-3.6-1.7c-0.3-0.3-0.4-0.4-0.6-0.7
			c-0.3-0.3-0.1,0.4,0,0.1c0.1-0.5,0.1,1,0.1,1.1c-0.1-1.1-0.1,1.2,0,0.3C380,610.9,380.8,607.3,379.9,609.9L379.9,609.9z"/>
	</g>
</g>
<g>
	<g>
		<path class="st14" d="M408.2,647.9c1.8,1.2,2.8-2.9,3-3.7c0.3-2,0.2-5.3-1.7-6.6c-2.6-1.8-6.4-3-8.8-0.3c-2.9,3.1-3.5,8-3.8,12
			c-0.1,1.1,0.3,5.4,2.4,5.3c2.1,0,2.3-3.9,2.4-5.3c-0.2,2.5-0.1,1,0,0.4c0,0,0.1-1,0-0.3c-0.1,0.7,0.2-0.6,0.2-0.6
			c0.1-0.4,0.4-1.7,1.3-2.2C404.6,645.7,406.9,647,408.2,647.9L408.2,647.9z"/>
	</g>
</g>
<path class="st3" d="M520.1,497.3c-11-10.4-16.5-4.4-21.9-0.4c-5.8,4.4-51.7,58.3-64.5,72.6c-7.2,8.1-11.3,12.2-7,16.5
	c3.9,3.9,13.4-2.1,17.1-4.4c35.4-21.7,59.9-40.6,78.4-65.1C527.4,509.8,522.8,500,520.1,497.3z"/>
</svg>
