<?xml version="1.0" encoding="utf-8"?>
<!-- Generator: Adobe Illustrator 26.0.3, SVG Export Plug-In . SVG Version: 6.00 Build 0)  -->
<svg version="1.1" id="Calque_1" xmlns="http://www.w3.org/2000/svg" xmlns:xlink="http://www.w3.org/1999/xlink" x="0px" y="0px"
	 viewBox="0 0 788 1005" style="enable-background:new 0 0 788 1005;" xml:space="preserve">
<style type="text/css">
	.st0{fill:#D68F72;}
	.st1{fill:#7F4C36;}
	.st2{fill:#90573A;}
	.st3{fill:#3F507E;}
	.st4{fill:#E3AB58;}
	.st5{fill:#89777A;}
	.st6{fill:#F2D5BD;}
	.st7{fill:#7F90B5;}
</style>
<g id="Calque_1_00000140007698849866869480000017248178527614527887_">
	<g id="Calque_12">
		<path class="st0" d="M465.8,459.5c0,0-0.1,3.9-9.3,10c-10.9,7.3-6.9,21.4-8.4,28.7c-1,4.9-9.9,17.3-13.7,16.6
			c-10.8-2-16.9-16.2-26.7-20.4c-5.7-2.4-8.2-4.7-13.7-2c-5.5-2.8-8-0.5-13.7,2c-9.8,4.2-15.8,18.5-26.7,20.4
			c-3.9,0.7-12.7-11.7-13.7-16.6c-1.5-7.3,2.5-21.4-8.4-28.7c-9.2-6.1-11.6-11-11.6-11c-7-17.1-6.1-26.7,3.9-29.7s29.4-7,38.6-10.1
			c4.7-1.6,8.5-3.4,10.6-5.8l1.6-37.3l18.3-0.6h2.2l14.3,0.5l4,0.1l0.7,15.7l0.6,12.9v0.5l0.4,8.2c0.4,0.5,0.9,0.9,1.5,1.3
			c2.7,2,6.8,3.2,11.6,4.2c6.5,1.3,30.5,8,37.8,9.4c3.1,0.6-2.8-0.9,0,0C475.8,430.6,472.8,442.4,465.8,459.5z"/>
		<path class="st1" d="M416.5,414.1c-5.4,4.2-18.8,11.4-21.3,12.6c-8.2,3.9-28.3-5-32.8-8.1c4.7-1.6,8.5-3.4,10.6-5.8l1.6-37.3h38.8
			l1.2,28.5v0.5l0.4,8.2C415.4,413.2,415.9,413.7,416.5,414.1z"/>
	</g>
</g>
<path class="st2" d="M344.6,448.5c-3.9,18.3-16.5,20.9-23.8,26.2c-11.6,8.3-35.4,42.4-45,52.6c-5.4,2.5-11.8,1.6-16.4-2.2l0,0
	c-9.8-9-2.7-20.2,1.2-25.3c7.9-10.2,26-29.2,32-40.5c4.5-8.4,7-17.5,21.2-25.2c0,0,14.1-8.6,24.1-2.5
	C344.5,435.4,346.2,441,344.6,448.5L344.6,448.5z"/>
<path class="st2" d="M278.2,514.2c-2.8-14.9-15.2-13.3-22-13.1c-7.3,0.2-42.8,10.1-61.6,14.2c-10.6,2.3-16.3,3.3-15.3,9.3
	c0.9,5.5,12.1,6.2,16.5,6.5c41.4,3,50.1,2.6,68.5,0C284.2,528.2,278.9,518,278.2,514.2z"/>
<path class="st2" d="M159.7,511.6c-3,0.8-6.5,1.7-9.4,2.4c-2.6,0.6-3.2,4.1-0.9,5.4c0.6,0.4,1.2,0.6,1.6,0.8c1.3,0.4,6-0.6,8.1-1.1
	c0.6-0.1,1.3-0.1,1.9,0.2l2.4,1.1c1.8,0.8,2.3,3,1.1,4.5c-1.1,1.4-2.2,2.7-4.4,4.6c-2.8,2.4-11.4,5.3-15.5,6
	c-2.3,0.4-7.7-0.7-9.6,0.2c-0.2,0.1-0.3,0.2-0.5,0.4c-1.6,1.7-0.4,4.5,1.9,4.8l8.6,1.1c0.2,0,0.5,0,0.7,0c2.6-0.3,17.8-2.3,22.9-3.4
	c6-1.3,17.5-5.2,22.1-8.2c1.5-1,4.3-3,3.3-6.8c-0.9-3.3-4.6-5.1-7.1-6.1c-3.4-1.4-22-5.2-25.9-6
	C160.5,511.4,160.1,511.5,159.7,511.6z"/>
<path class="st2" d="M436.2,448.3c3.9,18.3,16.5,20.9,23.8,26.2c11.6,8.3,33.7,41.9,43.3,52.1c4.5,4.8,10.1,4.9,18-1.7l0,0
	c9.8-9,2.7-20.2-1.2-25.3c-7.9-10.2-26-29.2-32-40.5c-4.5-8.4-7-17.5-21.2-25.2c0,0-14.1-8.6-24.1-2.5
	C436.3,435.2,434.6,440.8,436.2,448.3L436.2,448.3z"/>
<path class="st2" d="M502.5,514c2.8-14.9,15.2-13.3,22-13.1c7.3,0.2,42.8,10.1,61.6,14.2c10.6,2.3,16.3,3.3,15.3,9.3
	c-0.9,5.5-12.1,6.2-16.5,6.5c-41.4,3-47.1,0.8-68.5,0C496.3,530.1,501.8,517.8,502.5,514z"/>
<path class="st2" d="M621,511.4c3,0.8,6.5,1.7,9.4,2.4c2.6,0.6,3.2,4.1,0.9,5.4c-0.6,0.4-1.2,0.6-1.6,0.8c-1.3,0.4-6-0.6-8.1-1.1
	c-0.6-0.1-1.3-0.1-1.9,0.2l-2.3,1.1c-1.8,0.8-2.3,3-1.1,4.5c1.1,1.4,2.2,2.7,4.3,4.6c2.8,2.4,11.4,5.3,15.5,6
	c2.3,0.4,7.7-0.7,9.6,0.2c0.2,0.1,0.3,0.2,0.5,0.4c1.5,1.7,0.4,4.5-1.9,4.8l-8.6,1.1c-0.2,0-0.5,0-0.7,0c-2.6-0.3-17.8-2.3-22.9-3.4
	c-6-1.3-17.5-5.2-22.1-8.2c-1.5-1-4.3-3-3.3-6.8c0.9-3.3,4.6-5.1,7.1-6.1c3.5-1.4,22-5.2,25.9-6C620.2,511.2,620.6,511.3,621,511.4z
	"/>
<path class="st3" d="M308.8,514.5c-3.6,2.2-8.1,1.6-11.1-1.3c-10.5-10.4-33-33.5-30-35.5c3.3-2.2,31.4-36.8,39.2-46.3
	c1.3-1.6,3-2.7,5-3.1l40.7-9.5c3.7-0.9,7.6,0.7,9.7,3.9l22.4,34.9c2.8,4.3,1.4,10-2.9,12.7L308.8,514.5z"/>
<path class="st3" d="M357.7,424.3c-0.3-0.4,3.5-4.6,3.7-5s25.1,13.3,25.7,13.9s7.6,5.6,7.6,5.6s20-12.9,20.6-12.9s11.6,1.6,10.1,2.1
	s-15.1,209.5-15.1,209.5s-54.4-3.6-54.6-3.1C338.7,670,357.7,424.3,357.7,424.3z"/>
<path class="st3" d="M470.5,511.4c3.5,2,8,1.4,10.9-1.4c10.4-10.3,33.2-33.6,30.2-35.7c-3.3-2.2-31.4-36.8-39.2-46.3
	c-1.3-1.6-3-2.6-5-3.1l-40.5-9.6c-3.8-0.9-7.8,0.8-9.9,4.2l-22.7,37.9c-2.6,4.4-1.1,10,3.3,12.5L470.5,511.4z"/>
<path class="st4" d="M351.2,420.5l35.1,46c1.2,1.6,1.2,3.8-0.1,5.3l-9.2,11.4c-0.5,0.7-0.9,1.5-0.9,2.4c-0.5,5.9-2.3,30.6-3.2,52.3
	c-0.2,4.8-3.5,73.4-1.7,77.3c3.7,8.1,9.9,15.4,13.1,18.8c1.2,1.3,1.5,3.2,0.7,4.8c-1.6,3.3-5,7.4-16.2,17.8
	c-6.8,6.3-14.5,11.8-23.8,9.3l-29-7.7c-1.9-0.5-3.3-2.3-3.2-4.3c5-140.3,5-139.8,4.9-144.7c0-3.9,6.1-67.4,7.5-82.3
	c0.2-1.8,1.5-3.4,3.3-3.8l18.4-4.2C348.4,418.5,350.2,419.2,351.2,420.5z"/>
<path class="st4" d="M432.3,419.5l-50.2,65.8c-0.5,0.7-0.8,1.5-0.9,2.4c-0.7,13.3-6.8,123-4.5,129.8c1.7,5.1,24.1,29,37,42.4
	c5.7,5.7,13.9,8,21.5,5.9c0.1,0,0.2-0.1,0.4-0.1l36.2-12.7c1.8-0.6,3-2.4,2.9-4.3c-1.4-21-9-136.5-9-140.5c0-3.9-6.1-67.4-7.5-82.3
	c-0.2-1.9-1.5-3.4-3.3-3.8l-18.2-4.1C435.1,417.5,433.3,418.2,432.3,419.5z"/>
<path class="st3" d="M334.8,592h28.6c2.7,0,4.9,2.2,4.9,4.9l0,0c0,2.7-2.2,4.9-4.9,4.9h-28.6c-2.7,0-4.9-2.2-4.9-4.9l0,0
	C329.9,594.2,332.1,592,334.8,592z"/>
<path class="st3" d="M417.3,590.1h35.2c2.7,0,4.9,2.2,4.9,4.9v1.9c0,2.7-2.2,4.9-4.9,4.9h-35.2c-2.7,0-4.9-2.2-4.9-4.9V595
	C412.4,592.3,414.6,590.1,417.3,590.1z"/>
<path class="st5" d="M386.1,438.5c0.2,0,2,1.2,4,2.5c2.9,1.9,6.7,1.9,9.5-0.2l4.9-3.7l-3.6-13.1l-5.4,1.1c0,0-6.5-2.2-7.3-1.1
	S386.1,438.5,386.1,438.5z"/>
<path class="st6" d="M358.5,417.5l4.9-12.2c0.8-1.9,3.2-2.6,4.8-1.3l25.3,19.5c1.2,0.9,1.6,2.5,0.9,3.8l-7.7,16.4
	c-0.9,2-3.6,2.4-5.1,0.8l-22.5-23.7C358.2,420,358,418.7,358.5,417.5z"/>
<path class="st6" d="M432.7,417.6l-5.1-12.5c-0.7-1.8-3-2.5-4.6-1.2l-25.6,19.7c-1.1,0.9-1.5,2.4-0.9,3.7l7.9,16.7
	c0.9,1.9,3.4,2.3,4.9,0.8l22.7-23.9C432.9,420,433.1,418.7,432.7,417.6z"/>
<path class="st3" d="M305.2,521.6L305.2,521.6c-3.7,3.1-9.1,2.9-12.4-0.5L260.7,488c-3.7-3.8-3.4-9.9,0.7-13.3l0,0
	c3.6-3.1,9-2.8,12.3,0.6l32.2,33C309.6,512.1,309.3,518.2,305.2,521.6z"/>
<path class="st3" d="M476.8,521.3L476.8,521.3c3.6,3.1,9,2.8,12.3-0.6l31.4-32.3c3.7-3.8,3.4-9.8-0.6-13.2l0,0
	c-3.6-3.1-9-2.8-12.4,0.6L476.2,508C472.5,511.8,472.8,517.9,476.8,521.3z"/>
<ellipse class="st7" cx="389.7" cy="501.5" rx="3.6" ry="3.4"/>
<ellipse class="st3" cx="388.3" cy="537.1" rx="3.6" ry="3.4"/>
<ellipse class="st3" cx="386.9" cy="571.6" rx="3.6" ry="3.4"/>
</svg>
