<?xml version="1.0" encoding="utf-8"?>
<!-- Generator: Adobe Illustrator 26.0.3, SVG Export Plug-In . SVG Version: 6.00 Build 0)  -->
<svg version="1.1" id="Calque_1" xmlns="http://www.w3.org/2000/svg" xmlns:xlink="http://www.w3.org/1999/xlink" x="0px" y="0px"
	 viewBox="0 0 339.8 219.7" style="enable-background:new 0 0 339.8 219.7;" xml:space="preserve">
<style type="text/css">
	.st0{fill:#D68F72;}
	.st1{fill:#7F4C36;}
	.st2{fill:#547A87;}
	.st3{fill:#90573A;}
	.st4{fill:#F7A386;}
	.st5{fill:#2B2B2B;}
	.st6{fill:none;stroke:#ECF2F2;stroke-width:2.5021;stroke-miterlimit:10.0003;}
	.st7{fill:none;stroke:#ECF2F2;stroke-width:2.502;stroke-miterlimit:9.9997;}
	.st8{fill:none;stroke:#ECF2F2;stroke-width:4.5362;stroke-miterlimit:10;}
	.st9{fill:#ECF2F2;}
	.st10{fill:none;stroke:#BCBCBC;stroke-width:3.9654;stroke-linecap:round;stroke-miterlimit:10;}
	.st11{fill:none;stroke:#2B2B2B;stroke-width:2;stroke-miterlimit:10;}
</style>
<g id="Calque_1_00000169533837987157082180000002261082969909457810_">
	<g id="Calque_12">
		<path class="st0" d="M164.9,91.9c0,0-0.1,3.9-9.3,10c-10.9,7.3-6.9,21.4-8.4,28.7c-1,4.9-9.9,17.3-13.7,16.6
			c-10.8-2-16.9-16.2-26.7-20.4c-5.7-2.4-8.2-4.7-13.7-2c-5.5-2.8-8-0.5-13.7,2c-9.8,4.2-15.8,18.5-26.7,20.4
			c-3.9,0.7-12.7-11.7-13.7-16.6c-1.5-7.3,2.5-21.4-8.4-28.7c-9.2-6.1-11.6-11-11.6-11c-7-17.1-6.1-26.7,3.9-29.7
			c10-3,29.4-7,38.6-10.1c4.7-1.6,8.5-3.4,10.6-5.8L73.7,8L92,7.4h2.2l14.3,0.5l4,0.1l0.7,15.7l0.6,12.9v0.5l0.4,8.2
			c0.4,0.5,0.9,0.9,1.5,1.3c2.7,2,6.8,3.2,11.6,4.2c6.5,1.3,30.5,8,37.8,9.4c3.1,0.6-2.8-0.9,0,0C174.9,63,171.9,74.8,164.9,91.9z"
			/>
		<path class="st1" d="M115.6,46.5c-5.4,4.2-18.8,11.4-21.3,12.6C86.1,63,66,54.1,61.5,51c4.7-1.6,8.5-3.4,10.6-5.8l1.6-37.3h38.8
			l1.2,28.5v0.5l0.4,8.2C114.5,45.6,115,46.1,115.6,46.5z"/>
	</g>
</g>
<path class="st2" d="M144.3,45.5l-27.1-9.8l-2-18.3L103,17.3c-4,0-7.5,2.7-8.5,6.6L93,36.3l-1.5-12.4c-1-4-4.6-6.8-8.7-6.8l-12-0.1
	l-2.5,17.7L23.8,53.4l66.8,39.5L144.3,45.5z"/>
<path class="st3" d="M46.4,80c2.6,15.8-32.2,64.2-38.6,75.6c-3,5.4-12.7,17.4-23.6,15c-13.8-3.6-8.7-17.7-6.5-23
	c4.6-10.9,26.5-67.3,40.1-77.4c6.9-5.1,12-3.8,24.9-2.5C51,68.5,45.3,73.5,46.4,80L46.4,80z"/>
<path class="st3" d="M128.1,71.8c2.9,19.6,17.2,23.3,25.3,29.3c12.7,9.6,28.2,36.1,38.5,47.5c4.8,5.4,18.4,16.4,28.2,9.9l0,0
	c12.3-8.9,2.6-23.9-1.5-29.4c-8.2-11.3-41.8-55.4-57.7-64.5c0,0-10.1-0.8-22.4,4.9C130.6,73.3,126.9,63.7,128.1,71.8L128.1,71.8z"/>
<path class="st3" d="M204.8,154.7c6.3,9.5,17.3,5.4,26.2,0.7c6.3-3.4,26.7-29.1,42.6-39.4c9-5.8,9.5-8.6,6.2-13.9
	c-2.9-4.8-14,2-17.9,4c-39.7,19.7-49.9,24.1-49.9,24.1C195.1,140.9,202.6,151.5,204.8,154.7z"/>
<path class="st2" d="M8.9,60.3c-0.4,5.8,18.7,59.9,18.7,59.9l-1.8,82l1.7,24.9H155l2.5-25.2l4.9-83.2l11.1-58l-55.6-18.8
	c0,0-23.5,18-26,18s-25.5-18-25.5-18L8.9,60.3z"/>
<path class="st3" d="M-23.3,153.7c2.5-11,14.1-9.9,24.1-7.6c7.1,1.6,40.5,15.6,58.9,21.4c10.4,3.3,16,4.8,14.9,10.8
	c-1,5.4-50.8,3-82.5-2.6C-27.8,172.2-24.1,157.4-23.3,153.7z"/>
<path class="st0" d="M51.1,140.2c4.2-2.2,12.1-11.1,13.2-12.6s14.9-8.5,15.4-7.6s0.7,4,0.7,4l-7.8,6.5l19.5-3.3
	c0,0,12.4-2.4,16.4-1.7c1.1,0.2-0.7,4.1-0.7,4.1l-18.4,6.8l-5.5,11.8c-1.7,3.7-5.4,6.1-9.5,6.1c-4.6,0-10.1,0-11.6-0.4
	c-0.8-0.2-6.6-1.5-7.3-4.1C55.2,148.1,51.1,140.2,51.1,140.2z"/>
<path class="st2" d="M155.3,223.8c3.8-16.3,8.2-69.4,9.6-111.7c1-30.4,13.2-51.5,9.7-53.6c-15.2-8.9-35.3-15.9-50.7-17.8
	c-11.1-1.3-18.7,28-28.8,28.9c-6.3,0.6-24-29.1-29.6-28C51.1,44.3,23.2,53,9.9,59.1C8.7,65.5,22,79.2,22.2,101.3
	c0.3,44,3.2,104.4,7.6,123"/>
<g id="Calque_10">
	<path class="st2" d="M26,224v-25.7l132.2-6.4v32c0,2.8-2.6,5.1-5.8,5.1l0,0H31.9C28.7,229.1,26,226.8,26,224z"/>
</g>
<path class="st4" d="M-107.1,49.5l-0.1-0.1c-0.2,0.2-0.3,0.4-0.5,0.6c0,0.1-0.1,0.1-0.1,0.1L-107.1,49.5z"/>
<path class="st5" d="M126,273.9c12.4-1.5,24.4-5.8,35.1-12.4c1.2-0.8,2.2-1.4,2.6-1.8c4.8-4.6,6.2-11.7,4.1-17.9l-13-61.4
	c0,0-2.4-7.9-6-17.8c-5.1-14-8.9-28.5-11.4-43.2c-2.4-13.7-4.4-28.3-4.5-37.2c-0.1-4.2-3.5-7.7-7.8-7.7H62.7c-4.1,0-7.6,3.3-7.8,7.5
	c-0.7,16.4-7.4,54.6-10,62.2c-3.2,9.8-8.2,30.1-11.1,38c-2.1,5.7-10.9,41.4-13.3,62.1c-0.9,8,3.7,15.5,11.3,18.2L36,264
	C64.9,274.3,95.7,277.6,126,273.9z"/>
<g>
	<path class="st5" d="M68.4,34.6c-5.1,8.6-4.3,16.9-6.2,26c-0.7,3.6-1.7,7.3-2.7,10.9c-0.5,1.8-1,3.6-1.7,5.5h-0.3
		c-1.1-7.5,1-13.6,3-22.3c1.6-6.1,2.1-11.1,5.3-16.3c0.8-1.5,1.2-2.2,2.2-3.9L68.4,34.6z"/>
</g>
<g>
	<path class="st5" d="M117.9,35.5c4.2,7.2,4.7,12.4,7.5,19.6c2.9,7.2,4.5,14.6,3.4,22h-0.3c-0.7-1.8-1.2-3.6-1.7-5.4
		c-1-3.5-2-7.3-2.7-10.8c-1.1-5.4-4.7-22.1-6.9-25.5L117.9,35.5z"/>
</g>
<g>
	<ellipse transform="matrix(0.9939 -0.1104 0.1104 0.9939 -16.1846 10.0716)" class="st6" cx="82.9" cy="151.2" rx="5.5" ry="9.3"/>
	
		<ellipse transform="matrix(0.5527 -0.8334 0.8334 0.5527 -105.9857 127.0926)" class="st7" cx="65.4" cy="162.3" rx="5.5" ry="9.3"/>
	<polyline class="st8" points="83.9,160 86.4,175.5 72.9,167.2 	"/>
	<g>
		<path class="st9" d="M83,171.9c9.7,5.9,18.6,18.7,20.7,29.8C93.9,195.7,85.2,183.1,83,171.9L83,171.9z"/>
	</g>
	<g>
		<path class="st9" d="M84.4,171c9.7,5.9,18.6,18.7,20.7,29.8C95.4,194.8,86.5,182.1,84.4,171L84.4,171z"/>
	</g>
</g>
<path class="st2" d="M127.7,208.6l-14.3,1.1c-13,1-26.1,1-39.2-0.1l-13-1.1c-2.7-0.5-4.7-3.2-4.7-6.3v-23.7c0-3.9,3-6.9,6.3-6.3
	c0,0,5.7,0.4,12.1,0.9c12.2,0.9,24.4,0.9,36.6,0.1l14.5-1.1c3.3-0.6,6.3,2.4,6.3,6.3v23.9C132.5,205.5,130.4,208.1,127.7,208.6z"/>
<path class="st3" d="M269.3,116.3c0.5,0.7,1.3,1.2,2.2,1.3l3.8,0.4c0.6,0,1.4-0.1,2-0.5l20.6-13.3c0.2-0.2,0.4-0.3,0.7-0.4
	c0.9-0.3,1.4-1.5,1.7-2.9c0.7-3.2,0.3-6.5-1.2-9.5l-1.6-3.4c-0.2-0.4-0.3-0.7-0.6-1.1c-0.8-1.5-3.2-5.5-3.3-5.5c0,0-3.8-5.6-5.6-3.8
	c-0.1,0.1-0.2,0.2-0.4,0.3L279,84c-1.5,1-3.3-0.4-2.7-2.1l1.4-3.8c0.1-0.4,0.1-0.9,0.1-1.4l-0.7-5.6c-0.1-1.3-1-2.4-2.3-2.7
	c-1.4-0.3-3-0.8-3.7-0.9c-1.1-0.2-1.2,10-1.7,11.6c-0.5,1.6-5.5,9.5-6.4,11.4c-0.7,1.6-0.7,11.2-0.7,14.3c0,0.6,0.2,1.2,0.6,1.8
	L269.3,116.3z"/>
<path class="st2" d="M286.9,100.8l4-39.7c0.2-2.5-1.7-4.9-4.4-5.3l-3.3-0.6c-2.7-0.4-5,1.3-5.2,3.8l-4,39.7
	c-0.2,2.5,1.7,4.9,4.4,5.3l3.3,0.6C284.4,105,286.7,103.4,286.9,100.8z"/>
<line class="st10" x1="288.7" y1="87.5" x2="289.8" y2="80.7"/>
<line class="st10" x1="290.2" y1="75.3" x2="291.3" y2="68.5"/>
<ellipse transform="matrix(0.1189 -0.9929 0.9929 0.1189 210.1167 325.0276)" class="st2" cx="288.2" cy="44.1" rx="19.6" ry="23.7"/>
<path class="st2" d="M295.5,31.1l34.4,6.8c4,0.4,6.9,4,6.4,8l-0.8,7.1c-0.4,4-4,6.9-8,6.4L292,59.3L295.5,31.1z"/>
<path class="st2" d="M285,29.6L263.4,30c-2.5-0.3-4.8,2.7-5.3,6.7l-0.8,7.1c-0.5,4,1.1,7.4,3.6,7.7l21,6.3L285,29.6z"/>
<g>
	<polygon class="st5" points="280.9,102 271.9,132 277.1,100.9 	"/>
</g>
<path class="st11" d="M132,201.4c9.8-37.9,88.9,83.2,129.2-34.5c3.8-11.8,14.2-50,14.2-50"/>
<path class="st3" d="M275.3,80.4l7-4.6c2.9-1.9,6.8-1.1,8.7,1.8L302,94c1.9,2.9,1.1,6.8-1.8,8.7l-7,4.6c-2.9,1.9-6.8,1.1-8.7-1.8
	L273.5,89C271.8,86.2,272.4,82.3,275.3,80.4z"/>
</svg>
