<?xml version="1.0" encoding="utf-8"?>
<!-- Generator: Adobe Illustrator 26.0.1, SVG Export Plug-In . SVG Version: 6.00 Build 0)  -->
<svg version="1.1" id="Calque_1" xmlns="http://www.w3.org/2000/svg" xmlns:xlink="http://www.w3.org/1999/xlink" x="0px" y="0px"
	 viewBox="0 0 339.7 223.7" style="enable-background:new 0 0 339.7 223.7;" xml:space="preserve">
<style type="text/css">
	.st0{fill:#D68F72;}
	.st1{fill:#AD6542;}
	.st2{fill:#7CC1B2;}
</style>
<g id="Calque_1_00000170249405122093874970000015835667194348670132_">
	<g id="Calque_12">
		<path class="st0" d="M190.1,84.5c0,0-0.1,3.9-9.3,10c-10.9,7.3-6.9,21.4-8.4,28.7c-1,4.9-9.9,17.3-13.7,16.6
			c-10.8-2-16.9-16.2-26.7-20.4c-5.7-2.4-8.2-4.7-13.7-2c-5.5-2.8-8-0.5-13.7,2c-9.8,4.2-15.8,18.5-26.7,20.4
			c-3.9,0.7-12.7-11.7-13.7-16.6c-1.5-7.3,2.5-21.4-8.4-28.7c-9.2-6.1-11.6-11-11.6-11c-7-17.1-6.1-26.7,3.9-29.7s29.4-7,38.6-10.1
			c4.7-1.6,8.5-3.4,10.6-5.8l1.6-37.3L117.2,0h2.2l14.3,0.5l4,0.1l0.7,15.7l0.6,12.9v0.5l0.4,8.2c0.4,0.5,0.9,0.9,1.5,1.3
			c2.7,2,6.8,3.2,11.6,4.2c6.5,1.3,30.5,8,37.8,9.4c3.1,0.6-2.8-0.9,0,0C200.1,55.6,197.1,67.4,190.1,84.5z"/>
		<path class="st1" d="M140.8,39.1c-5.4,4.2-18.8,11.4-21.3,12.6c-8.2,3.9-28.3-5-32.8-8.1c4.7-1.6,8.5-3.4,10.6-5.8l1.6-37.3h38.8
			l1.2,28.5v0.5l0.4,8.2C139.7,38.2,140.2,38.7,140.8,39.1z"/>
	</g>
</g>
<g id="Calque_9">
	<path class="st0" d="M286.5,100.6c0.3-2.5,8.7-17.2,9.7-19.2s18.4-11.2,19.2-10.2s-1.1,6.2-1.1,6.2l-4.3,3.2l19.6-5l8.4-2.2
		c0.7-0.2,1.5,0.2,1.7,1c0,0.1,0.1,0.3,0,0.4l-0.1,1.5c-0.1,1.9-1.3,3.6-3.2,4.3l-15.6,5.8l-1.6,14.9c0,0-17.9,9-21.3,8.5
		c-1-0.1-5.7,1.7-7.2-1.3C289.8,106.7,286.5,100.6,286.5,100.6z"/>
	<path class="st0" d="M71.6,72.6c2.6,15.8-32.2,64.2-38.6,75.6c-3,5.4-12.7,17.4-23.6,15c-13.8-3.6-8.7-17.7-6.5-23
		C7.5,129.3,29.4,72.9,43,62.8c6.9-5.1,12-3.8,24.9-2.5C76.2,61.1,70.5,66.1,71.6,72.6L71.6,72.6z"/>
	<path class="st0" d="M153.3,64.4c2.9,19.6,17.2,23.3,25.3,29.3c12.7,9.6,28.2,36.1,38.5,47.5c4.8,5.4,18.4,16.4,28.2,9.9l0,0
		c12.3-8.9,2.6-23.9-1.5-29.4c-8.2-11.3-41.8-55.4-57.7-64.5c0,0-10.1-0.8-22.4,4.9C155.8,65.9,152.1,56.3,153.3,64.4L153.3,64.4z"
		/>
	<path class="st0" d="M230,147.3c6.3,9.5,17.3,5.4,26.2,0.7c6.3-3.4,26.7-29.1,42.6-39.4c9-5.8,9.5-8.6,6.2-13.9
		c-2.9-4.8-14,2-17.9,4c-39.7,19.7-49.9,24.1-49.9,24.1C220.3,133.5,227.8,144.1,230,147.3z"/>
	<path class="st2" d="M35.3,56.9C34.9,62.7,54,116.8,54,116.8l-1.8,82l1.7,24.9h127.5l2.5-25.2l4.9-83.2l1.5-62.5l-46-14.3
		c0,0-23.5,18-26,18s-25.5-18-25.5-18L35.3,56.9z"/>
	<path class="st0" d="M0.4,155.1c-2.5-11,8.5-15,18.5-17.2c7.1-1.6,43.3-3.4,62.4-6.1c10.8-1.5,16.5-2.6,18.1,3.3
		c1.4,5.3-44.5,24.6-75.6,33.2C4.3,173.7,1.3,158.8,0.4,155.1z"/>
	<path class="st0" d="M76.3,132.8c4.2-2.2,12.1-11.1,13.2-12.6s14.9-8.5,15.4-7.6s0.7,4,0.7,4l-7.8,6.5l19.5-3.3
		c0,0,12.4-2.4,16.4-1.7c1.1,0.2-0.7,4.1-0.7,4.1l-18.4,6.8l-5.5,11.8c-1.7,3.7-5.4,6.1-9.5,6.1c-4.6,0-10.1,0-11.6-0.4
		c-0.8-0.2-6.6-1.5-7.3-4.1C80.4,140.7,76.3,132.8,76.3,132.8z"/>
	<path class="st2" d="M5.4,123.9l40.7,8.1l7.8-15.2l15.5-69l-34.2,9.1C30.6,65.7,5.4,123.9,5.4,123.9z"/>
	<polygon class="st2" points="168.1,133.1 188.8,115.3 211.1,139.5 239.7,113.4 192.5,52.7 171.8,47.8 160.2,73 	"/>
</g>
</svg>
