<?xml version="1.0" encoding="utf-8"?>
<!-- Generator: Adobe Illustrator 26.0.1, SVG Export Plug-In . SVG Version: 6.00 Build 0)  -->
<svg version="1.1" id="Calque_1" xmlns="http://www.w3.org/2000/svg" xmlns:xlink="http://www.w3.org/1999/xlink" x="0px" y="0px"
	 viewBox="0 0 506.7 247.1" style="enable-background:new 0 0 506.7 247.1;" xml:space="preserve">
<style type="text/css">
	.st0{fill:#D68F72;}
	.st1{fill:#AD6542;}
	.st2{fill:#4E6566;}
	.st3{fill:#68BF90;}
	.st4{fill:#5B4081;}
</style>
<g id="Calque_1_00000150806007674302201260000010995933153402293173_">
	<g id="Calque_12">
		<path class="st0" d="M301.3,77.4c0,0,7.2,4.8-2,10.9c-10.9,7.3,8,27.8,6.5,35c-1,4.9-9.9,17.3-13.7,16.6
			c-10.8-2-16.9-16.2-26.7-20.4c-5.7-2.4-8.2-4.7-13.7-2c-5.5-2.8-8-0.5-13.7,2c-9.8,4.2-15.8,18.5-26.7,20.4
			c-3.9,0.7-12.7-11.7-13.7-16.6c-1.5-7.3,16.5-20.6,5.6-27.9c-9.2-6.1,8.6-11.8,8.6-11.8c-7-17.1-23.3-29.2-13.4-32.2
			s12.4-4.6,21.6-7.7c4.7-1.6,8.5-3.4,10.6-5.8l1.6-37.3L250.5,0h2.2L267,0.5l4,0.1l0.7,15.7l0.6,12.9v0.5l0.4,8.2
			c0.4,0.5,0.9,0.9,1.5,1.3c2.7,2,6.8,3.2,11.6,4.2c6.5,1.3,23.4,14.2,30.7,15.5c3.1,0.6-17.9,7.2-15.1,8.1
			C311.2,70.1,308.2,60.3,301.3,77.4z"/>
		<path class="st1" d="M274.1,39.3c-5.4,4.2-18.8,11.4-21.3,12.6c-8.2,3.9-28.3-5-32.8-8.1c4.7-1.6,8.5-3.4,10.6-5.8l1.6-37.3H271
			l1.2,28.5v0.5l0.4,8.2C273,38.4,273.5,38.9,274.1,39.3z"/>
	</g>
</g>
<g id="Calque_9">
	<path class="st2" d="M333.5,381.7c-5.3,0.8-61.4,5.9-61.4,5.9l-15.7-1.4l-60.4,2.1l1.7-177.7h3.8c2,0.4,4.1,0.4,6.2,0.2
		c2.8-0.4,69.2-0.2,99.8-0.2l4.5-0.1l10,94.7L333.5,381.7z"/>
	<path class="st0" d="M218.8,65.6C215,81.5,203,83.8,196,88.4c-11.1,7.2-25.8,28.1-35,37c-4.3,4.2-16.3,12.5-23.8,6.8l0,0
		c-9.4-7.8-2.6-17.6,1.1-22c7.6-8.9,24.9-25.4,30.7-35.2c4.3-7.3,6.7-15.2,20.4-21.9c0,0,13.5-7.5,23.1-2.2
		C218.7,54.3,220.4,59.1,218.8,65.6L218.8,65.6z"/>
	<path class="st0" d="M287,65.6c3.8,15.9,15.8,18.2,22.8,22.8c11.1,7.2,25.8,28.1,35,37c4.3,4.2,16.3,12.5,23.8,6.8l0,0
		c9.4-7.8,2.6-17.6-1.1-22c-7.6-8.9-25-25.4-30.7-35.2c-4.3-7.3-6.7-15.2-20.4-21.9c0,0-13.5-7.5-23.1-2.2
		C287.1,54.3,285.4,59.1,287,65.6L287,65.6z"/>
	<path class="st0" d="M353.4,121.7c3-10.8,13-9.1,18.5-8.6c5.9,0.5,61.3,15.9,76.4,19.8c8.5,2.2,13.2,3.2,12.1,7.5
		c-1,4-10.2,4.4-13.8,4c-38.8-3.8-48.1-4.9-82.7-9.7C347.5,132.5,352.6,124.4,353.4,121.7z"/>
	<path class="st0" d="M449.8,133.2c0,0,8-6.2,9.8-6.7s11-3,12.4-3.7s8.3-6.1,8.9-5.3c0.4,0.6,0.7,1.2,1.1,1.8
		c0.8,1.4,0.5,3.2-0.7,4.4l-1.5,1.5c-1.2,1.1-2.6,2-4.1,2.6l-6.1,2.4l14.2,2.9l18.4,0.6c1.2,0,2.3,0.8,2.7,2l0,0
		c0.3,1.4-1,2.7-2.8,2.7l-20,0.1l22.3,4.8c1.4,0.2,2.4,1.5,2.3,2.9c0,0.1,0,0.2,0,0.3l0,0c-0.6,1.5-2.2,2.3-3.8,1.9l-23.9-5.2
		l21.5,8.2c1.3,0.3,2,1.6,1.7,2.9c-0.1,0.2-0.1,0.4-0.2,0.6l0,0c-0.9,1.2-2.5,1.7-3.9,1.2l-20.5-7.2l11.6,7.3c1.1,0.6,1.5,2,0.9,3
		c-0.1,0.3-0.3,0.5-0.5,0.7l0,0c-1,0.9-2.5,1-3.7,0.4l-13.9-6.9l-20.7-5.7l-4.5-3.8L449.8,133.2z"/>
	<path class="st0" d="M154.1,121.6c-3-10.8-13.1-9.6-18.5-8.6c-82.8,14.1-96,33.2-74.8,31.4c8.8-0.7-14.9-8.4-13.8-4
		c1,4,10.2,4.4,13.8,4c38.9-3.8,48.1-4.9,82.7-9.7C160,132.4,154.8,124.4,154.1,121.6z"/>
	<path class="st0" d="M56.9,133.2c0,0-8-6.2-9.8-6.7s-11.1-3-12.4-3.7s-8.3-6.1-8.9-5.3c-0.2,0.3-0.6,1.1-1.1,1.8
		c-0.8,1.5-0.5,3.2,0.7,4.4l1.5,1.5c1.2,1.1,2.6,2,4.1,2.6l6.1,2.4L22.9,133l-18.4,0.6c-1.2,0-2.3,0.8-2.6,2l0,0
		c-0.1,1.4,0.9,2.6,2.3,2.7c0.1,0,0.3,0,0.4,0l20,0.1l-22.3,4.8c-1.4,0.2-2.4,1.5-2.3,2.9c0,0.1,0,0.2,0.1,0.3l0,0
		c0.6,1.5,2.2,2.3,3.8,1.9l23.9-5.2l-21.5,8.2c-1.3,0.3-2,1.7-1.7,2.9c0.1,0.2,0.1,0.4,0.2,0.6l0,0c0.9,1.2,2.5,1.7,3.9,1.2
		l20.5-7.2l-11.6,7.3c-1.1,0.6-1.5,2-0.9,3c0.1,0.3,0.3,0.5,0.5,0.7l0,0c1,0.9,2.5,1,3.7,0.4l13.9-6.9l20.7-5.7l4.5-3.8L56.9,133.2z
		"/>
	<path class="st3" d="M189.4,53.1l23.9-8.4c0,0,8.3,4.3,17.5,8.8c6.7,3.3,13.8,6.7,18.5,8.7l37.1-19.7l30,7.6l-10.8,73.3l15.5,69.6
		c3.6,9.9,29.6,203.4,17.2,203.4h-158c-13.7,0,4.4-194.1,7.2-205.3l10-67.7L189.4,53.1z"/>
	<rect x="195.2" y="112.7" class="st4" width="114.4" height="21.4"/>
</g>
</svg>
