<?xml version="1.0" encoding="utf-8"?>
<!-- Generator: Adobe Illustrator 26.0.1, SVG Export Plug-In . SVG Version: 6.00 Build 0)  -->
<svg version="1.1" id="Calque_1" xmlns="http://www.w3.org/2000/svg" xmlns:xlink="http://www.w3.org/1999/xlink" x="0px" y="0px"
	 viewBox="0 0 515.9 291.5" style="enable-background:new 0 0 515.9 291.5;" xml:space="preserve">
<style type="text/css">
	.st0{fill:#D68F72;}
	.st1{fill:#AD6542;}
	.st2{fill:#493C2F;}
	.st3{fill:#5E4F48;}
	.st4{fill:#89777A;}
	.st5{fill:#F2D5BD;}
	.st6{fill:#8E7052;}
</style>
<g id="Calque_1_00000137125771010812421210000011806486148159152036_">
	<g id="Calque_12">
		<path class="st0" d="M333.4,84.5c0,0-0.1,3.9-9.3,10c-10.9,7.3-6.9,21.4-8.4,28.7c-1,4.9-9.9,17.3-13.7,16.6
			c-10.8-2-16.9-16.2-26.7-20.4c-5.7-2.4-8.2-4.7-13.7-2c-5.5-2.8-8-0.5-13.7,2c-9.8,4.2-15.8,18.5-26.7,20.4
			c-3.9,0.7-12.7-11.7-13.7-16.6c-1.5-7.3,2.5-21.4-8.4-28.7c-9.2-6.1-11.6-11-11.6-11c-7-17.1-6.1-26.7,3.9-29.7s29.4-7,38.6-10.1
			c4.7-1.6,8.5-3.4,10.6-5.8l1.6-37.3L260.5,0h2.2L277,0.5l4,0.1l0.7,15.7l0.6,12.9v0.5l0.4,8.2c0.4,0.5,0.9,0.9,1.5,1.3
			c2.7,2,6.8,3.2,11.6,4.2c6.5,1.3,30.5,8,37.8,9.4c3.1,0.6-2.8-0.9,0,0C343.4,55.6,340.4,67.4,333.4,84.5z"/>
		<path class="st1" d="M284.1,39.1c-5.4,4.2-18.8,11.4-21.3,12.6c-8.2,3.9-28.3-5-32.8-8.1c4.7-1.6,8.5-3.4,10.6-5.8l1.6-37.3H281
			l1.2,28.5v0.5l0.4,8.2C283,38.2,283.5,38.7,284.1,39.1z"/>
	</g>
</g>
<g id="Calque_9">
	<path class="st0" d="M212.2,73.5c-3.9,18.3-16.5,20.9-23.8,26.2c-11.6,8.3-35.4,42.4-45,52.6c-5.4,2.5-11.8,1.6-16.4-2.2l0,0
		c-9.8-9-2.7-20.2,1.2-25.3c7.9-10.2,26-29.2,32-40.5c4.5-8.4,7-17.5,21.2-25.2c0,0,14.1-8.6,24.1-2.5
		C212.1,60.4,213.8,66,212.2,73.5L212.2,73.5z"/>
	<path class="st0" d="M145.8,139.2c-2.8-14.9-15.2-13.3-22-13.1c-7.3,0.2-42.8,10.1-61.6,14.2c-10.6,2.3-16.3,3.3-15.3,9.3
		c0.9,5.5,12.1,6.2,16.5,6.5c41.4,3,50.1,2.6,68.5,0C151.8,153.2,146.5,143,145.8,139.2z"/>
	<path class="st0" d="M27.9,136.4c-6.5,1.9-16.4,3.9-16.4,3.9s5,4.3,7.1,4.8c1.7,0.5,9-1.3,9-1.3l6.9,3.1c-2.7,2.8-3.3,4.4-6.9,7.5
		c-2.8,2.4-11.4,5.3-15.5,6c-2.3,0.4-7.7-0.7-9.6,0.2c-1.4,0.7-2.5,4.7-2.5,4.7l12.9,1.7c0,0,17.7-2.2,23.3-3.4
		c6-1.3,17.5-5.2,22.1-8.2c1.5-1,4.3-3,3.3-6.8c-0.9-3.3-4.6-5.1-7.1-6.1C50.7,140.9,28.2,136.4,27.9,136.4z"/>
	<path class="st0" d="M303.8,73.3c3.9,18.3,16.5,20.9,23.8,26.2c11.6,8.3,33.7,41.9,43.3,52.1c4.5,4.8,10.1,4.9,18-1.7l0,0
		c9.8-9,2.7-20.2-1.2-25.3c-7.9-10.2-26-29.2-32-40.5c-4.5-8.4-7-17.5-21.2-25.2c0,0-14.1-8.6-24.1-2.5
		C303.9,60.2,302.2,65.8,303.8,73.3L303.8,73.3z"/>
	<path class="st0" d="M370.1,139c2.8-14.9,15.2-13.3,22-13.1c7.3,0.2,42.8,10.1,61.6,14.2c10.6,2.3,16.3,3.3,15.3,9.3
		c-0.9,5.5-12.1,6.2-16.5,6.5c-41.4,3-47.1,0.8-68.5,0C363.9,155.1,369.4,142.8,370.1,139z"/>
	<path class="st0" d="M488,136.2c6.5,1.9,16.4,3.9,16.4,3.9s-5,4.3-7.1,4.8c-1.7,0.5-9-1.3-9-1.3l-6.9,3.1c2.8,2.8,3.3,4.4,6.9,7.5
		c2.8,2.4,11.4,5.3,15.5,6c2.3,0.4,7.7-0.7,9.6,0.2c1.3,0.7,2.5,4.7,2.5,4.7l-12.9,1.7c0,0-17.7-2.2-23.3-3.4
		c-6-1.3-17.5-5.2-22.1-8.2c-1.5-1-4.3-3-3.3-6.8c0.9-3.3,4.6-5.1,7.1-6.1C465.3,140.7,487.7,136.2,488,136.2z"/>
	<path class="st2" d="M170.4,143.2c-1.9-1.8-38.9-37.9-35.1-40.5S176.4,54,176.4,54l50-11.7l30.9,48.1L170.4,143.2z"/>
	<path class="st2" d="M225.3,49.3c-0.3-0.4,3.5-4.6,3.7-5s25.1,13.3,25.7,13.9s7.6,5.6,7.6,5.6s20-12.9,20.6-12.9
		c0.6,0,11.6,1.6,10.1,2.1s-15.1,209.5-15.1,209.5s-54.4-3.6-54.6-3.1C206.3,295,225.3,49.3,225.3,49.3z"/>
	<path class="st2" d="M344,139.8c1.9-1.8,38.9-37.9,35.1-40.5S338,50.6,338,50.6l-50-11.8l-30.9,51.5L344,139.8z"/>
	<path class="st3" d="M217.1,43.3l38.8,50.9l-12.2,15.1c0,0-2.3,28.8-3.3,53.6c-0.2,4.8-3.5,73.4-1.7,77.3
		c5,11.1,14.9,20.7,14.9,20.7c-1.4,4.3-2.8,7.2-17.3,20.7c-6.8,6.3-14.5,11.8-23.8,9.3l-32.3-8.6c5.1-143.7,5.1-143.2,5-148.1
		c0-4.4,7.8-85.4,7.8-85.4L217.1,43.3z"/>
	<path class="st3" d="M301.6,42.3l-52.7,69.1c0,0-7,123.9-4.6,131.1c1.7,5.1,24.1,29,37,42.4c5.7,5.7,14,8,21.7,5.8l39.5-13.8
		c0,0-9.2-139.4-9.2-143.8s-7.8-85.4-7.8-85.4L301.6,42.3z"/>
	<rect x="197.5" y="217" class="st2" width="38.4" height="9.8"/>
	<rect x="280" y="215.1" class="st2" width="45" height="11.7"/>
	<path class="st4" d="M253.7,63.5c0.4,0,8.8,5.8,8.8,5.8l9.6-7.2L268.5,49l-5.4,1.1c0,0-6.5-2.2-7.3-1.1
		C255,50.1,253.7,63.5,253.7,63.5z"/>
	<polygon class="st5" points="225.3,44.4 232.5,26.5 263.1,50.1 252.3,72.9 	"/>
	<polygon class="st5" points="301,44.4 293.7,26.5 263.1,50.1 273.9,72.9 	"/>
	<polygon class="st2" points="180.3,140.3 166.3,152.1 121.5,106 135.4,94.3 	"/>
	<polygon class="st2" points="337,140 350.9,151.7 395,106.4 381.1,94.6 	"/>
	<ellipse class="st6" cx="257.3" cy="126.5" rx="3.6" ry="3.4"/>
	<ellipse class="st2" cx="255.9" cy="162.1" rx="3.6" ry="3.4"/>
	<ellipse class="st2" cx="254.5" cy="196.6" rx="3.6" ry="3.4"/>
</g>
</svg>
