<?xml version="1.0" encoding="utf-8"?>
<!-- Generator: Adobe Illustrator 26.0.2, SVG Export Plug-In . SVG Version: 6.00 Build 0)  -->
<svg version="1.1" id="Calque_1" xmlns="http://www.w3.org/2000/svg" xmlns:xlink="http://www.w3.org/1999/xlink" x="0px" y="0px"
	 viewBox="0 0 364.8 239.8" style="enable-background:new 0 0 364.8 239.8;" xml:space="preserve">
<style type="text/css">
	.st0{fill:#8E5736;}
	.st1{fill:#481F09;}
	.st2{fill:#D68F72;}
	.st3{fill:#301C0F;}
	.st4{fill:#E8AF49;}
	.st5{fill:#DBDBDB;}
	.st6{fill:#232323;}
	.st7{fill:#1E1E1E;}
	.st8{fill:#444444;}
	.st9{fill:none;stroke:#444444;stroke-miterlimit:10;}
	.st10{fill:#D3D3D3;}
	.st11{fill:#161616;}
	.st12{fill:#E8E8E8;}
</style>
<g id="Calque_1_00000096760111556550115690000014583781170777855151_">
	<g id="Calque_12">
		<path class="st0" d="M299.1,118.9c0,0-0.1,3.9-9.3,10c-10.9,7.3-6.9,21.4-8.4,28.7c-1,4.9-9.9,17.3-13.7,16.6
			c-10.8-2-16.9-16.2-26.7-20.4c-5.7-2.4-8.2-4.7-13.7-2c-5.5-2.8-8-0.5-13.7,2c-9.8,4.2-15.8,18.5-26.7,20.4
			c-3.9,0.7-12.7-11.7-13.7-16.6c-1.5-7.3,2.5-21.4-8.4-28.7c-9.2-6.1-11.6-11-11.6-11c-7-17.1-6.1-26.7,3.9-29.7s29.4-7,38.6-10.1
			c4.7-1.6,8.5-3.4,10.6-5.8l1.6-37.3l18.3-0.6h2.2l14.3,0.5l4,0.1l0.7,15.7l0.6,12.9v0.5l0.4,8.2c0.4,0.5,0.9,0.9,1.5,1.3
			c2.7,2,6.8,3.2,11.6,4.2c6.5,1.3,30.5,8,37.8,9.4c3.1,0.6-2.8-0.9,0,0C309.1,90,306.1,101.8,299.1,118.9z"/>
		<path class="st1" d="M249.8,73.5c-5.4,4.2-18.8,11.4-21.3,12.6c-8.2,3.9-28.3-5-32.8-8.1c4.7-1.6,8.5-3.4,10.6-5.8l1.6-37.3h38.8
			l1.2,28.5v0.5l0.4,8.2C248.7,72.6,249.2,73.1,249.8,73.5z"/>
	</g>
</g>
<path class="st0" d="M191.9,105.3c-4.6,21.5-19.4,24.7-27.9,30.9c-13.6,9.8-26.2,29.2-37.4,41.2c-5.3,5.7-11.7,6.6-17.8,2.5
	l-4.1-2.5c-11.5-10.5,1-21.4,5.5-27.3c9.3-12,20.7-24.7,27.8-38c5.3-9.9,16.3-12.8,32.9-21.8c0,0,1.5-12.2,13.3-5
	C191.8,89.9,193.8,96.5,191.9,105.3L191.9,105.3z"/>
<path class="st0" d="M120,181.7c9.5-5.7,6.4-15.2,4.4-18.5c-2.1-3.6-42.1-40.9-49.5-49.2c-4.2-4.7-6.1,0.6-9.4,2.6
	c-3,1.9-0.4,7.6,0.6,9.9c2.2,5,31,49.8,33.5,53.4C104.8,187.3,117.3,183.3,120,181.7z"/>
<path class="st0" d="M42.5,92.7L42.5,92.7c-0.6,1.7-0.2,3.6,1.1,4.9c0.6,0.6,1.1,1.1,1.6,1.7c1.1,1.3,4.1,4.4,5.1,5.5
	c0.3,0.3,0.4,0.6,0.5,0.9v0c0.4,1.3-0.4,2.8-1.8,3c-4.1,0.8-6.6,1.6-12.6,2c-5.4,0.4-17.7-2.6-22.9-4.7c-2.8-1.1-7.4-5.9-10.4-6.3
	c-1-0.1-2.8,0.5-4.4,1.2c-1.6,0.7-1.9,2.8-0.6,3.9l9,7.7c0.2,0.1,0.3,0.3,0.5,0.3c2.5,1.2,21.3,9.8,28,12.3c7.8,2.8,24,6.8,32.1,7
	c2.6,0,7.8,0.1,10.7-4.2c2.5-3.7,0.4-8-1.1-10.6c-1.7-3.1-19.9-19-28.5-26.4C46.8,89.2,43.5,90.1,42.5,92.7z"/>
<path class="st0" d="M264,96.4c1,18.1,13.7,22.7,20.4,29c10.7,9.9,22.5,35.4,30.8,46.8c4,5.3,15.2,16.6,24.7,11.6l0,0
	c11.8-6.9,6.4-18.9,3.1-24.3c-6.5-11.1-24-37.9-28.4-49.6c-3.3-8.8-2.4-12.4-16-22.2c0,0-13.2-10.6-24.9-6.5
	C266.3,83.9,263.5,88.9,264,96.4L264,96.4z"/>
<path class="st0" d="M347.2,172.8c-6.4-13.7-13.8-10.2-20.3-8.3c-7,2-69.4,35.4-86.6,44c-9.7,4.9-14.9,7.2-12.5,12.8
	c2.2,5,13.2,3,17.6,2.2c40.9-7.3,70.6-16,96.8-32C349.5,187.1,348.8,176.3,347.2,172.8z"/>
<path class="st2" d="M205.9,183c-8.2,4.1-20.6,9.2-20.6,9.2s6.3,4.6,8.9,4.9c2.1,0.2,11.3-4,11.3-4l16.3,2.6
	c-3.4,4.5-11.7,6.8-16.2,11.8c-3.5,3.9-14.3,10-19.5,12c-2.9,1.1-9.7,0.9-12.1,2.6c-1.7,1.2-3.1,7.1-3.1,7.1l16.2-0.9
	c0,0,22.2-7.3,29.3-10.3c7.6-3.2,22-11.3,27.7-16.6c1.9-1.7,5.4-5.1,4.2-10.1c-1.1-4.2-5.9-5.8-9-6.7
	C234.6,183.6,206.3,182.8,205.9,183z"/>
<g>
	<g>
		<path class="st3" d="M337.7,34.9c-3.5,8-7.1,16-10.7,23.9c-7.8,14.6-28.9,54.1-36.9,69.2c-8.1,15.2-29,54.5-36.9,69.2
			c-4.6,7.4-9.1,14.9-13.8,22.2c3.5-8,7.1-16,10.8-23.8c7.7-14.5,28.9-54.1,36.9-69.2c8.1-15.2,29-54.5,36.9-69.2
			C328.4,49.7,333,42.3,337.7,34.9L337.7,34.9z"/>
	</g>
	<g>
		<path class="st4" d="M347.5,7.5c-0.3,2.4-0.9,5-1.3,7.4c-0.3,1.4-0.7,3.5-1,4.9c-0.5,2.5-1.7,4.7-3.7,6.7
			c-0.1,0.1-0.3,0.1-0.3-0.1c-0.3-1.8-0.2-3.6,0.1-5.2c0.3-1.6,1.2-3.1,1.8-4.6c0.5-1.2,1.4-3.5,2-4.6c0.7-1.6,1.4-3,2.2-4.6
			C347.3,7.1,347.5,7.3,347.5,7.5L347.5,7.5z"/>
	</g>
	<g>
		<path class="st4" d="M367.9,21.4c-2.2,1.6-4.8,3.3-7.1,4.8c-1.4,0.9-3.4,2.2-4.8,3.1c-2.4,1.6-5.2,2.4-8.3,2.6
			c-0.1,0-0.2-0.2-0.1-0.3c1.3-1.7,2.7-2.9,4.4-3.9c1.6-1.1,3.4-1.6,5.2-2.3c1.3-0.5,3.9-1.6,5.2-2.2c1.8-0.7,3.5-1.4,5.3-2
			C368,21.1,368.1,21.3,367.9,21.4L367.9,21.4z"/>
	</g>
	<g>
		<path class="st4" d="M354.7,47.4c-1.6-1.2-3.4-2.4-4.9-3.7c-0.9-0.7-2.2-1.8-3.2-2.5c-1.7-1.4-2.7-3.1-3.2-5.4
			c0-0.1,0.1-0.3,0.2-0.3c3.1,0.6,5,2.5,6.5,5c0.6,0.8,1.8,2.4,2.4,3.3c0.7,1.2,1.6,2.2,2.3,3.4C355.1,47.3,354.9,47.5,354.7,47.4
			L354.7,47.4z"/>
	</g>
	<g>
		<path class="st4" d="M343.9,61.5c-1-1.9-1.8-4.1-2.7-6.1c-0.5-1.2-1.1-2.9-1.6-4.1c-0.9-2.2-0.9-4.4-0.3-6.8
			c0-0.1,0.1-0.2,0.3-0.1c1.8,1.7,2.9,3.7,3.3,6c0.2,2,0.7,4.5,0.9,6.6c0.2,1.5,0.3,3,0.5,4.4C344.3,61.7,344,61.7,343.9,61.5
			L343.9,61.5z"/>
	</g>
	<g>
		<path class="st4" d="M315.9,53.8c1.7-1.9,3.6-3.9,5.4-5.8c1.1-1.1,2.6-2.7,3.7-3.8c1.9-2,4.1-3.2,6.9-3.9c0.1,0,0.3,0.1,0.2,0.3
			c-0.7,1.8-1.8,3.2-3.1,4.5c-1.2,1.4-2.8,2.1-4.2,3.1c-1.1,0.7-3.2,2.2-4.3,3c-1.5,1-2.9,2-4.4,2.8C316,54.2,315.9,54,315.9,53.8
			L315.9,53.8z"/>
	</g>
	<g>
		<path class="st4" d="M312,27.9c2.2,0.2,4.6,0.6,6.7,1c1.3,0.3,3.1,0.6,4.5,0.7c2.4,0.4,4.3,1.5,6.1,3.4c0.1,0.1,0.1,0.3-0.1,0.3
			c-1.7,0.4-3.3,0.4-4.8,0.2c-1.5-0.2-2.9-1.1-4.2-1.6c-1.1-0.4-3.1-1.3-4.1-1.8c-1.4-0.6-2.7-1.2-4.1-2
			C311.8,28.1,311.9,27.8,312,27.9L312,27.9z"/>
	</g>
	<g>
		<path class="st4" d="M324.8,7.2c1.5,2.2,3,4.8,4.4,7.1c0.8,1.4,2,3.4,2.9,4.8c1.4,2.5,2.2,5.1,2.1,8.1c0,0.1-0.2,0.2-0.3,0.1
			c-1.6-1.2-2.8-2.8-3.7-4.4c-1-1.6-1.4-3.4-2-5.2c-0.5-1.3-1.4-3.9-1.9-5.2c-0.5-1.8-1.2-3.5-1.8-5.2C324.5,7.1,324.7,7,324.8,7.2
			L324.8,7.2z"/>
	</g>
	<g>
		<path class="st4" d="M359.2,12.4c-0.5,1.2-1.1,2.4-1.7,3.6c-0.4,0.7-0.9,1.6-1.2,2.4c-0.7,1.3-1.9,1.8-3.7,2
			c-0.1,0-0.2-0.1-0.3-0.2c-0.1-1.2,0.1-2.2,0.5-3c0.3-0.9,1.2-1.2,1.9-1.8c0.5-0.5,1.5-1.3,2-1.7c0.7-0.5,1.4-1.1,2.2-1.6
			C359.1,12,359.3,12.2,359.2,12.4L359.2,12.4z"/>
	</g>
	<g>
		<path class="st4" d="M367.7,40.7c-2-0.3-4.3-0.8-6.3-1.3c-1-0.3-2.2-0.3-3.1-0.9c-0.9-0.6-1.7-1.4-2.3-2.6c-0.1-0.1,0-0.3,0.1-0.3
			c1.4-0.5,2.4-0.4,3.5-0.2c1.1,0.2,1.8,1,2.8,1.6c0.7,0.4,2,1.3,2.7,1.7c0.9,0.6,1.8,1.2,2.7,1.8C367.9,40.5,367.8,40.8,367.7,40.7
			L367.7,40.7z"/>
	</g>
	<g>
		<path class="st4" d="M355.5,61.8c-1.4-1.4-2.9-3-4.1-4.5c-0.6-0.8-1.5-1.4-1.8-2.4c-0.3-1-0.5-2-0.2-3.3c0-0.1,0.2-0.2,0.3-0.2
			c1.3,0.4,2.1,1,2.9,1.8c0.7,0.7,0.9,1.8,1.2,2.7c0.3,0.7,0.8,2.1,1.1,2.8c0.3,1,0.7,1.9,0.9,2.9C355.8,61.8,355.6,62,355.5,61.8
			L355.5,61.8z"/>
	</g>
	<g>
		<path class="st4" d="M323.9,60.4c0.3-1.2,0.8-2.5,1.2-3.8c0.3-0.7,0.7-1.7,1-2.4c0.5-1.4,1.6-2.1,3.3-2.5c0.1,0,0.3,0.1,0.3,0.2
			c0.3,1.2,0.2,2.2,0,3c-0.3,0.9-1.1,1.4-1.6,2c-0.4,0.5-1.3,1.5-1.8,1.9c-0.6,0.6-1.2,1.3-1.9,1.8
			C323.9,60.6,323.8,60.6,323.9,60.4L323.9,60.4z"/>
	</g>
	<g>
		<path class="st4" d="M306.2,39c1.3-0.4,2.7-0.6,4.1-0.9c0.8-0.1,1.9-0.3,2.7-0.5c1.6-0.3,2.8,0.3,4.1,1.6c0.1,0.1,0.1,0.3,0,0.3
			c-0.9,1-1.8,1.3-2.7,1.4c-1,0.2-1.8-0.3-2.7-0.4c-0.7-0.1-2-0.4-2.7-0.5c-1-0.2-1.8-0.4-2.7-0.7C306,39.3,306,39.1,306.2,39
			L306.2,39z"/>
	</g>
	<g>
		<path class="st4" d="M312.8,15c1.6,0.7,3.5,1.6,5.1,2.4c1,0.5,2.3,1.3,3.3,1.7c1.8,1,2.9,2.4,3.7,4.4c0,0.1,0,0.2-0.1,0.3
			c-1.6,0.1-2.8-0.3-4-0.9c-1.2-0.5-1.9-1.6-2.9-2.4c-0.7-0.6-2-2-2.7-2.6c-0.9-0.9-1.8-1.8-2.7-2.7C312.6,15.1,312.6,14.9,312.8,15
			L312.8,15z"/>
	</g>
	<g>
		<path class="st4" d="M336.3,0c0.5,2.1,0.8,4.4,1.1,6.6c0.1,1.4,0.4,3.1,0.7,4.4c0.3,2.3-0.1,4.4-1.3,6.6c-0.1,0.1-0.1,0.1-0.3,0.1
			c-1.4-2.1-1.9-4.3-1.8-6.6c0.3-2,0.4-4.6,0.6-6.6c0.1-1.5,0.3-3,0.5-4.4C336-0.2,336.2-0.2,336.3,0L336.3,0z"/>
	</g>
</g>
<path class="st5" d="M161.4,76.1c0,0-17.6,3.1-27.6,18.6c-4.9,7.6-17.4,32-19.6,33.7c-2.2,1.6,26.8,34.5,27.5,34.2
	c0.7-0.3,9.1-3.8,13.5-8c4.4-4.1,10.7-13.7,10.7-13.7l15.1,8L161.4,76.1z"/>
<path class="st5" d="M287.7,73.9c0,0,22.5,1.6,31.8,20.8c12.9,26.4,8.9,32.5,11.1,34.1c2.2,1.6-31.6,37-32.2,36.7
	c-0.7-0.3-2.4-3.1-6.8-7.2s-7.4-25.8-7.4-25.8l-15.1,8L287.7,73.9z"/>
<g>
	<path class="st6" d="M159.6,75.6c-1.8,3.6,4.8,66,4.8,66l-4.4,140.8c0.1,1.9,1.5,3.6,3.4,4l18.5,3.5c23.6,4.4,70.8,4,94.2-1.1
		l19.1-4.2c2.6-0.6,4.3-2.9,4.3-5.4c-1-24.1-5.1-130.2-5.1-130.2l-0.9-74l-26.3-6.4l-38.9,91.7l-38.3-91.7L159.6,75.6z"/>
	<g>
		<path class="st7" d="M223.7,168.5c0.8,32.5,0.8,65.3,0.6,97.7l-0.2,16.3c-0.4,4.9,1.6,7.3,6.3,8.8c1.3,0.4,2.6,0.9,3.8,1.3
			c-1.3-0.4-2.6-0.7-3.9-1.1c-2.6-0.7-5.4-2.1-6.3-4.9c-0.4-1.3-0.5-2.8-0.5-4.1l-0.2-16.3C222.9,233.7,222.9,200.8,223.7,168.5
			L223.7,168.5z"/>
	</g>
	<g>
		<circle class="st8" cx="230.4" cy="170.1" r="2.9"/>
		<circle class="st6" cx="230.4" cy="170.1" r="1.9"/>
	</g>
	<g>
		<circle class="st8" cx="230.4" cy="219.8" r="2.9"/>
		<circle class="st6" cx="230.4" cy="219.8" r="1.9"/>
	</g>
	<line class="st9" x1="232.9" y1="170.1" x2="234.6" y2="170.1"/>
	<line class="st9" x1="232.5" y1="219.8" x2="234.2" y2="219.8"/>
	<path class="st10" d="M202.3,61.7l19.6,4.8c1.8,0.4,3.5,1.6,4.4,3.3l2.2,3.9l2.5-4.2c0.9-1.5,2.2-2.6,3.8-3.1l17.3-5.7l9.6,9.7
		l-33.6,89.6l-37.6-92.7L202.3,61.7z"/>
	<path class="st7" d="M254.9,56.9l-31.2,111.5c0,0,26.3-32.2,46-80.9C270.1,86.9,254.9,56.9,254.9,56.9z"/>
	<path class="st7" d="M199.9,58.4l28.7,98.3l-1.8,4.1c0,0-39.2-48.6-43.7-72.1C183,89.2,199.9,58.4,199.9,58.4z"/>
	<path class="st11" d="M186.7,82.3l-5.1-12c0,0,12-9,18.2-11.9L186.7,82.3z"/>
	<path class="st11" d="M267.1,81.4l6.1-11.6c0,0-12.1-9.7-18.3-12.9L267.1,81.4z"/>
	<path class="st12" d="M211.8,79.4v-6.3c0-2.5,2.1-4.5,4.6-4.3c4.4,0.4,10.3,1.9,10.3,7.5s-5.9,7.1-10.3,7.5
		C213.9,83.9,211.8,81.9,211.8,79.4z"/>
	<path class="st12" d="M245.3,79.4v-6.3c0-2.5-2.1-4.5-4.6-4.3c-4.4,0.4-10.3,1.9-10.3,7.5s5.9,7.1,10.3,7.5
		C243.1,83.9,245.3,81.9,245.3,79.4z"/>
	<path class="st5" d="M228.9,81.5h-0.8c-1.5,0-2.6-1.2-2.6-2.6v-3.7c0-1.5,1.2-2.6,2.6-2.6h0.8c1.5,0,2.6,1.2,2.6,2.6v3.7
		C231.5,80.2,230.3,81.5,228.9,81.5z"/>
</g>
<path class="st12" d="M141.8,163.4l-1.8,1.5c-0.6,0.4-1.4,0.4-1.9-0.1l-26.8-32.5c-0.4-0.6-0.4-1.4,0.1-1.9l1.8-1.5
	c0.6-0.4,1.4-0.4,1.9,0.1l26.8,32.5C142.5,162.1,142.4,162.9,141.8,163.4z"/>
<path class="st12" d="M330.9,129l1.7,1.5c0.5,0.5,0.6,1.3,0.1,1.9l-32,34.9c-0.5,0.5-1.3,0.6-1.9,0.1l-1.7-1.5
	c-0.5-0.5-0.6-1.3-0.1-1.9l32-34.9C329.5,128.5,330.3,128.4,330.9,129z"/>
</svg>
