<?xml version="1.0" encoding="utf-8"?>
<!-- Generator: Adobe Illustrator 26.0.2, SVG Export Plug-In . SVG Version: 6.00 Build 0)  -->
<svg version="1.1" id="Calque_1" xmlns="http://www.w3.org/2000/svg" xmlns:xlink="http://www.w3.org/1999/xlink" x="0px" y="0px"
	 viewBox="0 0 228 246.3" style="enable-background:new 0 0 228 246.3;" xml:space="preserve">
<style type="text/css">
	.st0{fill:#7F4A2F;}
	.st1{fill:#481F09;}
	.st2{fill:#D68F72;}
	.st3{fill:#423632;}
	.st4{fill:#4E6566;}
	.st5{fill:#7C8E7B;}
	.st6{fill:#B8D6D6;}
	.st7{fill:#F2EFC2;}
	.st8{fill:#8E5736;}
</style>
<g id="Calque_1_00000115507393649495719270000006572907222598607526_">
	<g id="Calque_12">
		<path class="st0" d="M170.4,72.7c0,0-0.1,3.9-9.3,10c-10.9,7.3-6.9,21.4-8.4,28.7c-1,4.9-9.9,17.3-13.7,16.6
			c-10.8-2-16.9-16.2-26.7-20.4c-5.7-2.4-8.2-4.7-13.7-2c-5.5-2.8-8-0.5-13.7,2c-9.8,4.2-15.8,18.5-26.7,20.4
			c-3.9,0.7-12.7-11.7-13.7-16.6C43,104.1,47,90,36.1,82.7c-9.2-6.1-11.6-11-11.6-11c-7-17.1-6.1-26.7,3.9-29.7s29.4-7,38.6-10.1
			c4.7-1.6,8.5-3.4,10.6-5.8l1.6-37.3l18.3-0.6h2.2l14.3,0.5l4,0.1l0.7,15.7l0.6,12.9v0.5l0.4,8.2c0.4,0.5,0.9,0.9,1.5,1.3
			c2.7,2,6.8,3.2,11.6,4.2c6.5,1.3,30.5,8,37.8,9.4c3.1,0.6-2.8-0.9,0,0C180.4,43.8,177.4,55.6,170.4,72.7z"/>
		<path class="st1" d="M121.1,27.3c-5.4,4.2-18.8,11.4-21.3,12.6c-8.2,3.9-28.3-5-32.8-8.1c4.7-1.6,8.5-3.4,10.6-5.8l1.6-37.3H118
			l1.2,28.5v0.5l0.4,8.2C120,26.4,120.5,26.9,121.1,27.3z"/>
	</g>
</g>
<g id="Calque_9">
	<path class="st2" d="M130.9,51.3c0,19.8,14.5,25.2,22,32.2c11.9,11.1,24.1,39.2,33.1,51.9c4.2,6,12.9-0.2,24.1-5.4l0,0
		c14.2-7.3,6.3-23.3,2.9-29.4c-6.9-12.3-26-46.9-41.2-57.9c0,0-14.8-11.9-28.5-7.7C134.4,37.7,130.8,43.2,130.9,51.3L130.9,51.3z"/>
	<polygon class="st3" points="28.8,201.8 158.9,201.8 156.9,225.2 33.8,225.2 	"/>
	<polygon class="st4" points="30.1,201.1 161.3,201.1 159.3,224.5 35.1,224.5 	"/>
	<path class="st2" d="M217.7,125.4c10.4-6.6,5.1-16.8-0.9-25c-4.2-5.8-47.6-39.9-60.3-54.4c-7.1-8.2-10.7-12.7-16.5-9.3
		c-5.2,3.1,4.8,15.5,6.9,19.2c22.1,39.6,22.6,62.3,46.3,82.9C193.3,138.8,214.1,127.7,217.7,125.4z"/>
	<path class="st5" d="M30.1,101.2c0,0-3.4-23.4-7.2-58.4l26.6-7.2L81.3,83L30.1,101.2z"/>
</g>
<path class="st4" d="M68.2,31l7.4-12.8c0,0,28.2,31.4,28.2,31.7s-1.1,14-1.1,14L68.2,31z"/>
<path class="st6" d="M38.3,221.8c-4.2,4.4,11.8-15.7,15-15.3c-1.5-0.2-18.7-13.6-23.7-5.1s-14,34.8,5,39.2s121.2,2.2,127.2-2.7
	s13.9-11.9,7.5-24.2s-6.3-40-11.6-44.8S38.3,221.8,38.3,221.8z"/>
<path class="st7" d="M155.9,225.7c6.1-23.7,10.8-38.4,17.6-114.3c1.7-18.8-3.8-48.8-2.5-75.8c-20.4-8-19-4.5-36.3-6.4
	c-12.5-1.4-21,28-32.4,28.9c-7.1,0.6-27.2-29.7-33.4-28c-28.5,4.2-28,4.8-46,12.7c-10,46.8-0.4,130.6,14.5,186
	c7.8,29.1,57.9,6.1,57.9,6.1S148.2,255,155.9,225.7z"/>
<path class="st8" d="M150.1,142.4c4.9-3.3,10-6.2,15.4-8.6c0,0-4.7-2.7-7.7-2.6c-2.4,0.1-13.1,4.5-13.1,4.5l0,0
	c18.4-23.9,28.4-43.3,29.5-46.2c0.8-2-1.8-8.1-1.8-8.1S154,104,148.4,110c-19.1,20.5-28.6,25.1-44.1,30.6c-2.7,1-1.3,15,4.6,13.4
	c2.1-0.6,13.4,1.5,16.6,0C138.3,148.1,149.7,142.7,150.1,142.4z"/>
<polygon class="st3" points="28.8,201.8 158.9,201.8 156.9,225.2 33.8,225.2 "/>
<path class="st8" d="M217.7,125.4c10.4-6.6,5.1-16.8-0.9-25c-4.2-5.8-47.6-39.9-60.3-54.4c-7.1-8.2-10.7-12.7-16.5-9.3
	c-5.2,3.1,4.8,15.5,6.9,19.2c22.1,39.6,21.9,51.5,45.5,72.2C208.1,141.6,214.1,127.7,217.7,125.4z"/>
<path class="st7" d="M30.1,101.2c0,0-3.4-23.4-7.2-58.4l26.6-7.2L81.3,83L30.1,101.2z"/>
<path class="st6" d="M171,35.6c0,0-2.1,22.3-1.5,23l3.1,3.5c1.7,1.9,1.6,4.9-0.3,6.6l-13.5,12.5c-1.1,1-1.7,2.5-1.5,4l1.1,9.7
	c0.3,2.4,2.3,4.2,4.7,4.2l0,0c1.9,0,3.6,1.1,4.3,2.8c2.6,6,9,20.1,14.2,30.2c3.4,6.6,11.4,9.2,18,6c4.7-2.3,9.3-4.5,10.4-5.2
	c0.2-0.1,0.4-0.3,0.6-0.4c1.9-1.6,14.3-10,17.1-14.8c0.6-0.5,0.6-4,0.6-7.5c-0.1-4.9-2.5-9.4-6.4-12.3c-6.9-5-16.6-10.8-17.9-13.3
	c-8-15.6-13-26.7-15.9-33.2c-2-4.7-5.5-8.7-9.9-11.4L171,35.6z"/>
<polygon class="st6" points="28.8,235.1 26.8,180.6 168.2,162.2 165.3,235.1 "/>
<path class="st6" d="M68.2,31l7.4-12.8c0,0,28.2,31.4,28.2,31.7s-1.1,14-1.1,14L68.2,31z"/>
<path class="st6" d="M111.9,58.7c0,0-6.6-9.1-6.1-9.7s13.6-27.6,13.6-27.6s12.4,9.6,12.8,10.5s-18.8,29.7-18.8,29.7L111.9,58.7z"/>
<path class="st6" d="M22.9,42.8l17.7,29.5c1.8,3,2.9,6.5,3.2,10l3.2,40.3c0.3,3.2,2.7,5.7,5.9,6l40.4,4.6c1.4,0.2,2.7-0.1,3.9-0.8
	l1.3-0.7c1.3-0.7,2.8-1,4.2-0.7l6.9,1.1c3.5,0.6,6,3.8,5.5,7.4l-2.8,21.8c-0.2,1.8-1.2,3.5-2.7,4.6l-5.7,4c-4.2,3-10.1,0.2-10.3-4.9
	c0-0.1,0-0.2,0-0.3c0-2.3-27.1,5.4-60.2,2.9c-4.7-0.4-9.1-2.1-12.8-5.1c-0.1-0.1-0.2-0.1-0.3-0.2c-7-5.9-11.5-14.2-12.5-23.2
	C6.2,124.5,3.6,101.7,2,85.3c-1.3-12.2,3-24.3,11.5-33L22.9,42.8z"/>
<path class="st6" d="M36.7,227.7c-4,4.5,10.8-16.4,14.1-16c-1.5-0.2-19.4-13-23.9-4.3s-12.1,35.6,7.2,39.1s121.2-3.1,126.9-8.2
	s13.2-12.4,6.1-24.4s-7.8-39.8-13.3-44.4S36.7,227.7,36.7,227.7z"/>
<path class="st8" d="M100.7,26.8l16.1-1l23,4.7l11.5,8.5c0,0,13.3,21.4,9.6,22.5c-5.7,1.7-7.2,3.3-11.2,2
	c-6.5-2.1-13.8-10.4-13.8-10.4l-15.2-0.6c0,0-11.1,4.6-11.8,4.6C103,57.2,93.7,47,93.7,47l16-11.4l14,0.4l-8.3-3.9
	c0,0-8.3,1-9.2,0.6C104.5,32.1,100.7,26.8,100.7,26.8z"/>
</svg>
