<?xml version="1.0" encoding="utf-8"?>
<!-- Generator: Adobe Illustrator 26.0.2, SVG Export Plug-In . SVG Version: 6.00 Build 0)  -->
<svg version="1.1" id="Calque_1" xmlns="http://www.w3.org/2000/svg" xmlns:xlink="http://www.w3.org/1999/xlink" x="0px" y="0px"
	 viewBox="0 0 339.7 218.7" style="enable-background:new 0 0 339.7 218.7;" xml:space="preserve">
<style type="text/css">
	.st0{fill:#8E5736;}
	.st1{fill:#481F09;}
	.st2{fill:#D3D3D3;}
	.st3{fill:#D34B1C;}
</style>
<g id="Calque_1_00000005947739927398834880000013823124980591568053_">
	<g id="Calque_12">
		<path class="st0" d="M192.9,77.2c0,0-0.1,3.9-9.3,10c-10.9,7.3-6.9,21.4-8.4,28.7c-1,4.9-9.9,17.3-13.7,16.6
			c-10.8-2-16.9-16.2-26.7-20.4c-5.7-2.4-8.2-4.7-13.7-2c-5.5-2.8-8-0.5-13.7,2c-9.8,4.2-15.8,18.5-26.7,20.4
			c-3.9,0.7-12.7-11.7-13.7-16.6c-1.5-7.3,2.5-21.4-8.4-28.7c-9.2-6.1-11.6-11-11.6-11c-7-17.1-6.1-26.7,3.9-29.7s29.4-7,38.6-10.1
			c4.7-1.6,8.5-3.4,10.6-5.8l1.6-37.3L120-7.3h2.2l14.3,0.5l4,0.1L141.2,9l0.6,12.9v0.5l0.4,8.2c0.4,0.5,0.9,0.9,1.5,1.3
			c2.7,2,6.8,3.2,11.6,4.2c6.5,1.3,22.9,22.6,30.1,24c3.1,0.6-2.8-0.9,0,0C195.2,62.9,199.9,60.1,192.9,77.2z"/>
		<path class="st1" d="M143.6,31.8c-5.4,4.2-18.8,11.4-21.3,12.6c-8.2,3.9-28.3-5-32.8-8.1c4.7-1.6,8.5-3.4,10.6-5.8l1.6-37.3h38.8
			l1.2,28.5v0.5l0.4,8.2C142.5,30.9,143,31.4,143.6,31.8z"/>
	</g>
</g>
<path class="st0" d="M289.3,93.3c0.3-2.5,8.7-17.2,9.7-19.2s18.4-11.2,19.2-10.2s-1.1,6.2-1.1,6.2l-4.3,3.2l19.6-5l8.4-2.2
	c0.7-0.2,1.5,0.2,1.7,1c0,0.1,0.1,0.3,0,0.4l-0.1,1.5c-0.1,1.9-1.3,3.6-3.2,4.3l-15.6,5.8L322,94c0,0-17.9,9-21.3,8.5
	c-1-0.1-5.7,1.7-7.2-1.3C292.6,99.4,289.3,93.3,289.3,93.3z"/>
<path class="st0" d="M74.4,65.3c2.6,15.8-32.2,64.2-38.6,75.6c-3,5.4-12.7,17.4-23.6,15c-13.8-3.6-8.7-17.7-6.5-23
	c4.6-10.9,26.5-67.3,40.1-77.4c6.9-5.1,12-3.8,24.9-2.5C79,53.8,73.3,58.8,74.4,65.3L74.4,65.3z"/>
<path class="st0" d="M156.1,57.1c2.9,19.6,17.2,23.3,25.3,29.3c12.7,9.6,28.2,36.1,38.5,47.5c4.8,5.4,18.4,16.4,28.2,9.9l0,0
	c12.3-8.9,2.6-23.9-1.5-29.4c-8.2-11.3-41.8-55.4-57.7-64.5c0,0-10.1-0.8-22.4,4.9C158.6,58.6,154.9,49,156.1,57.1L156.1,57.1z"/>
<path class="st0" d="M232.8,140c6.3,9.5,17.3,5.4,26.2,0.7c6.3-3.4,26.7-29.1,42.6-39.4c9-5.8,9.5-8.6,6.2-13.9
	c-2.9-4.8-14,2-17.9,4c-39.7,19.7-49.9,24.1-49.9,24.1C223.1,126.2,230.6,136.8,232.8,140z"/>
<g>
	<path class="st2" d="M173.8,40.2l-27.1-9.8l-2-18.3L132.5,12c-4,0-7.5,2.7-8.5,6.6L122.5,31L121,18.6c-1-4-4.6-6.8-8.7-6.8l-12-0.1
		l-2.5,17.7L52.6,44.9l67.5,42.7L173.8,40.2z"/>
	<path class="st2" d="M183.9,218.2c3.8-16.3,8.2-69.4,9.6-111.7c1-30.4,13.2-51.5,9.7-53.6C188,44,167.9,37,152.5,35.1
		c-11.1-1.3-18.7,28-28.8,28.9c-6.3,0.6-31.5-30.9-37.1-29.8c-14.3,2.7-36.6,10.9-49.9,17c-1.2,6.4,14,22.3,14.2,44.5
		c0.3,44,3.2,104.4,7.6,123"/>
	<g id="Calque_10">
		<path class="st2" d="M50,218.8l3.1-53.5l136.9,2.1l3.2,51.4c0,2.8-2.8,5.1-6.3,5.1l0,0H56.4C52.9,223.9,50,221.6,50,218.8z"/>
	</g>
	<g>
		<path class="st3" d="M130.2,32.7C119.8,38,107.6,44,97.1,49c-6.6,2.6-11.1,7.2-11.2,14.7L86,69c0.1,7,0.1,14.1,0.1,21.1
			c-1,42.2,0.4,84.4,1.3,126.5c-0.6,8.7-2.4-14-2.6-84.3c-0.4-20.3-1.4-43-1.4-63.2v-5.3c-0.1-5.7,3.1-11.3,8-14.3
			c2.7-1.6,6.9-3.1,9.7-4.5c4.8-2.1,14.5-6.3,19.4-8.4c3.2-1.4,6.5-2.8,9.7-4.1C130.1,32.5,130.2,32.7,130.2,32.7L130.2,32.7z"/>
	</g>
	<circle class="st3" cx="98.9" cy="76.3" r="3.4"/>
	<circle class="st3" cx="100.3" cy="143.9" r="3.4"/>
	<circle class="st3" cx="101.1" cy="211.2" r="3.4"/>
	<path class="st3" d="M98.4,16.5c0,0-3.9,2-5.6,6.5c-0.3,0.3-7,2.3-4.8,6.5s3.4,3.7,3.4,3.7s22,0.3,29.9,8.7c0.2,0,23.3-8.1,30.9-7
		c0.2,0.1,2.3-4.6,0-5.7s0.6-4.2-0.9-6.7c-1.4-2.5-2.4-5.1-4.8-3.9c-2.4,1.1-25.3,9.3-25.3,16.3C121.4,34.9,115.1,24.1,98.4,16.5z"
		/>
	<path class="st3" d="M116,31.5c0,0,6.7-4.2,11.2,0c0.8,5.9,2.2,9.8,0,10.4s-6.5,2.8-8.2,1.7C117.5,42.5,109.9,39.3,116,31.5z"/>
	<path class="st3" d="M115.8,38.3L107,49.6c-0.3,0.4-0.4,0.8-0.3,1.3l4.5,18.5c0.3,1.4,2.2,1.6,2.8,0.3l6.8-14.7
		c0.1-0.3,0.2-0.6,0.1-0.9L118.5,39C118.3,37.7,116.6,37.3,115.8,38.3z"/>
	<path class="st3" d="M126.6,37l14.3,7.8c0.5,0.3,0.9,0.8,0.9,1.4l1.8,23.4c0.1,1.6-1.8,2.6-3,1.4l-10.8-10.1
		c-0.3-0.2-0.4-0.5-0.5-0.9l-5.2-21.2C123.7,37.5,125.3,36.2,126.6,37z"/>
</g>
<path class="st0" d="M3.2,147.8c-2.5-11,8.5-15,18.5-17.2c7.1-1.6,43.3-3.4,62.4-6.1c10.8-1.5,16.5-2.6,18.1,3.3
	c1.4,5.3-44.5,24.6-75.6,33.2C7.1,166.4,4.1,151.5,3.2,147.8z"/>
<path class="st0" d="M79.1,125.5c4.2-2.2,12.1-11.1,13.2-12.6s14.9-8.5,15.4-7.6s0.7,4,0.7,4l-7.8,6.5l19.5-3.3
	c0,0,12.4-2.4,16.4-1.7c1.1,0.2-0.7,4.1-0.7,4.1l-18.4,6.8l-5.5,11.8c-1.7,3.7-5.4,6.1-9.5,6.1c-4.6,0-10.1,0-11.6-0.4
	c-0.8-0.2-6.6-1.5-7.3-4.1C83.2,133.4,79.1,125.5,79.1,125.5z"/>
</svg>
