<?xml version="1.0" encoding="utf-8"?>
<!-- Generator: Adobe Illustrator 26.0.2, SVG Export Plug-In . SVG Version: 6.00 Build 0)  -->
<svg version="1.1" id="Calque_1" xmlns="http://www.w3.org/2000/svg" xmlns:xlink="http://www.w3.org/1999/xlink" x="0px" y="0px"
	 viewBox="0 0 299.9 245.1" style="enable-background:new 0 0 299.9 245.1;" xml:space="preserve">
<style type="text/css">
	.st0{fill:#D68F72;}
	.st1{fill:#AD6542;}
	.st2{fill:#4B4E62;}
	.st3{fill:#9EB7B6;}
	.st4{fill:#8E5736;}
	.st5{fill:#481F09;}
	.st6{fill:#F2EFC2;}
</style>
<g id="Calque_1_00000165918863909943410580000000292529789984097681_">
	<g id="Calque_12">
		<path class="st0" d="M228.1,94.9c0,0-0.1,3.9-9.3,10c-10.9,7.3-6.9,21.4-8.4,28.7c-1,4.9-9.9,17.3-13.7,16.6
			c-10.8-2-16.9-16.2-26.7-20.4c-5.7-2.4-8.2-4.7-13.7-2c-5.5-2.8-8-0.5-13.7,2c-9.8,4.2-15.8,18.5-26.7,20.4
			c-3.9,0.7-12.7-11.7-13.7-16.6c-1.5-7.3,2.5-21.4-8.4-28.7c-9.2-6.1-11.6-11-11.6-11c-7-17.1-6.1-26.7,3.9-29.7s29.4-7,38.6-10.1
			c4.7-1.6,8.5-3.4,10.6-5.8l1.6-37.3l18.3-0.6h2.2l14.3,0.5l4,0.1l0.7,15.7l0.6,12.9v0.5l0.4,8.2c0.4,0.5,0.9,0.9,1.5,1.3
			c2.7,2,6.8,3.2,11.6,4.2c6.5,1.3,30.5,8,37.8,9.4c3.1,0.6-2.8-0.9,0,0C238.1,66,235.1,77.8,228.1,94.9z"/>
		<path class="st1" d="M178.8,49.5c-5.4,4.2-18.8,11.4-21.3,12.6c-8.2,3.9-28.3-5-32.8-8.1c4.7-1.6,8.5-3.4,10.6-5.8l1.6-37.3h38.8
			l1.2,28.5v0.5l0.4,8.2C177.7,48.6,178.2,49.1,178.8,49.5z"/>
	</g>
</g>
<path class="st2" d="M122.9,79.3c-2.2,0.3-37.9-16.5-43.2-28.8s0.4-30.3,22.1-33.4c0,0,32.6-15.7,43.1-15.9
	c31.8-0.6,28.7,12.1,79.9,21c13.9,2.4,9,38.8-2.7,40S198.7,73,178.5,74S122.9,79.3,122.9,79.3z"/>
<path class="st3" d="M187.3,11.7c-11.5-0.6,21.5,18,11.9,33.4s2.2,23.3,23,17.1C245.3,55.2,254.1,15.4,187.3,11.7z"/>
<path class="st4" d="M244.2,92.2c-4,9.8-16.2,6.5-25.5,12.7c-10.9,7.3-6.9,21.4-8.4,28.7c-1,4.9-9.9,17.3-13.7,16.6
	c-10.8-2-16.9-16.2-26.7-20.4c-5.7-2.4-8.2-4.7-13.7-2c-5.5-2.8-8-0.5-13.7,2c-9.8,4.2-15.8,18.5-26.7,20.4
	c-3.9,0.7-12.7-11.7-13.7-16.6c-1.5-7.3,2.5-21.4-8.4-28.7c-9.2-6.1-21.4-2.9-25.5-12.7c-7-17.1,14.5-27,24.4-30
	c11-3.3,25-5.5,34.4-9.1c3.5-1.4,6.4-3,8.1-4.9l1.6-37.3l18.3-0.6h2.2l14.3,0.5l4,0.1l0.7,15.7l0.6,12.9l0.4,8.7
	c2.5,2.7,7.2,4.3,13,5.5c6.5,1.3,14.2,2.1,21.5,3.5c3,0.5,6,1.2,9,2.1C230.8,62.2,251.2,75.1,244.2,92.2z"/>
<path class="st5" d="M177.3,48.2c0,0-18.6,8.5-21.9,8.6c-10.4,0.3-28.3-3.7-28.3-3.7c3.5-1.4,6.4-3,8.1-4.9l1.6-37.3h38.8l1.3,28.5
	L177.3,48.2z"/>
<path class="st0" d="M200.9,78.2c1.6,17.1,14.8,20.8,21.9,26.4c11.3,8.8,25.7,32.8,34.3,43.2c4.1,4.9,15.8,15.2,25.5,10.1l0,0
	c12.1-7,6.3-18.1,3-23.1c-6.8-10.2-25.3-30.4-30.1-41.3c-3.6-8.1-5-16.7-19.3-25.2c0,0-13.9-9.3-25.7-4.8
	C202.9,66.3,200.2,71.2,200.9,78.2L200.9,78.2z"/>
<path class="st0" d="M280.1,136.3c13.4,5.4,9.9,14.6,7.7,19.2c-2.3,5-37.9,48.2-46.9,60.3c-5.1,6.8-7.6,10.6-13.1,8.6
	c-5-1.8-4.9-5.6-1.8-12.8c15.8-36.8,15.8-43.2,31.8-68.6C264.6,132.1,276.7,134.9,280.1,136.3z"/>
<path class="st0" d="M111,82.5c-4.3,16.8-18,19.2-25.9,24C72.5,114.2,53,127.6,42.6,137c-4.9,4.4-15.7,21.8-24.3,15.8l0,0
	c-10.6-8.2-2.9-18.6,1.3-23.2c8.6-9.4,28.3-26.9,34.9-37.2c4.9-7.7,7.6-16.1,23.1-23.2c0,0,15.3-7.9,26.2-2.3
	C110.9,70.5,112.8,75.6,111,82.5z"/>
<path class="st4" d="M27.9,151.8c15-0.9,13.8-10,14.7-14.8c0.2-1.2-11.5-40.6-13.8-70c-0.6-7.9-2-12-8.1-11.8
	c-5.5,0.2-6.7,3.2-6.6,6.4c0.5,31.2,1.4,21.5-2,78.9C11.3,155.2,24.1,152,27.9,151.8z"/>
<path class="st4" d="M43,46.5c0.9-1.1,2-1.9,3.4-2.3c0.1,0,0.2-0.1,0.4-0.1c2.4-0.7,4.4,1.8,3.4,4c-1.8,3.7-4,8.4-4.7,9.8
	c-0.1,0.3-0.4,0.5-0.7,0.6c-2.5,0.9-14.1,5.3-16,12.5c-0.4,1.7-9.5,1.5-12.7,1.3c-0.6,0-1.1-0.5-1.2-1.1L14,66.8
	c0-0.2-0.1-0.3-0.2-0.5L3.5,51c-1.3-2-2.1-4.3-2.3-6.6L0,25.1c0.1-1,0.9-1.7,1.8-1.7l0,0c1-0.2,2.1,0.4,2.4,1.4l4,14.1
	c0.1,0.2,0.4,0.1,0.3-0.1L5.6,15.3c0.1-1.4,1.2-2.4,2.6-2.4h0.2c1.4-0.2,2.8,0.5,3.3,1.8l4,19.8c0,0.2,0.3,0.2,0.3,0l-0.6-20.1
	c-0.1-1.2,1-2.3,2.6-2.5l0,0c1.5-0.3,2.9,0.6,3.3,2l3.6,20.6c0.2,1,1.4,1.4,2.1,0.7l3-2.7c1.9-1.7,4.6-2.3,7.1-1.5
	c1.4,0.5,2.9,1,4,1.5c1.4,0.5,2.5,1.6,3.2,2.9c0.6,1.1,1.2,2.5,1.8,3.7c0.4,0.9-0.3,1.9-1.2,1.8l-1.1-0.1c-1.8-0.1-3.4-1-4.4-2.5
	l-0.3-0.5l-2-0.3c-0.5-0.1-1.1,0.2-1.3,0.7l-3,6.1c-0.2,0.3-0.2,0.7,0,1.1l1.4,3.5c0.7,1.7,2.6,2.7,4.4,2.1l0.9-0.3
	c0.3-0.1,0.5-0.2,0.7-0.5L43,46.5z"/>
<path class="st6" d="M46.6,89.7l36.2,20.9l7.4-2v119.2l129.9-0.7L214.5,103l14.9,21.5l38.5-22.5l-31.3-40.6l-37.9-9.5
	c0,0-34.5,20.9-46.5,20.6C141.5,72.3,111,51.1,111,51.1L74.5,61.2L46.6,89.7"/>
<path class="st3" d="M92.7,62.2c13.1-1.4,22.5-17,22.5-17c-8.9,0-25.7-21.1-13.4-28s45-16.1,43.1-16c-1.8,0.1-62.4,1.6-68.2,21
	C75.2,27.3,76.4,63.9,92.7,62.2z"/>
<path class="st3" d="M101.5,49.4l-26.2,9.3c-0.6,0.2-1.2,0.6-1.7,1.1L50.9,82.4c-0.5,0.5-2.1,1.9-3.9,3.6c-2.6,2.4-6.8,1.1-7.6-2.4
	c-0.2-1-0.3-1.6-0.3-1.8c0-0.9-2.4-2-4.3-2.8c-1.4-0.6-2.5-1.8-2.8-3.3l0,0c-0.5-2.1-2.4-3.7-4.6-3.6l-9.3,0.2c-2.2,0-4,1.6-4.4,3.7
	L13,79.6c-0.2,1.1-0.8,2-1.6,2.7L6.7,86c-1.2,0.9-1.8,2.3-1.7,3.8c0.5,10.8,3,55.7,7.2,62.6c4.8,7.8,16.3,0.4,19,0
	c1.9-0.3,27.3-16.9,41.1-27.9c3.1-2.5,7.7-0.1,7.4,3.9c-1.7,24.4-4.3,74.3-4.3,75.4c0,1.4,11.9,17.5,12,18.1c0.1,0.4,0,8.3,0,13.2
	c0,2.2,1.5,4,3.6,4.5c8,1.7,26.4,5.6,28,6.3c2.1,1,3.2-20.5,4.1-24s10.3-142.6,12.2-146.6c1.5-3.2-11.2-22.7-16.6-31.2
	c-1.4-2.1-4.2-2.7-6.3-1.4L102.4,49C102.1,49.2,101.8,49.3,101.5,49.4z"/>
<path class="st3" d="M209.6,46c-4.1-3.1-9.9-2.3-12.9,1.9c-6.9,9.5-17.6,24.6-16.3,27.3c1.9,4,11.3,143.1,12.2,146.6s2,25,4.1,24
	c1.4-0.7,14.6-2.6,23.2-3.9c4.3-0.6,7.6-4.2,7.8-8.5c0.3-5.2,0.6-11.4,0.7-11.7c0.1-0.6,12-16.5,12-18.1c0-1-2-30.7-3.6-54.1
	c-0.5-7.2,6.9-11.6,13.4-8.7c0.1,0,0.2,0.1,0.2,0.1c2.7,0.5-24.8,45.8-20,38c3.1-5.1-0.3,19.5-3.1,37.2c-1.1,7.2,6.2,12.7,12.8,9.7
	l7-3.2c1.3-0.6,2.4-1.4,3.2-2.5c8.2-9.9,50.9-62.6,49.6-83.9c-1.3-20.3-48.2-67.1-57.1-75.8c-0.9-0.9-2.1-1.6-3.3-2.1l-24.4-8.6
	c-0.9-0.3-1.8-0.8-2.5-1.4L209.6,46z"/>
</svg>
