<svg xmlns="http://www.w3.org/2000/svg" xmlns:xlink="http://www.w3.org/1999/xlink" viewBox="0 0 158 182.31"><defs><style>.cls-1,.cls-11,.cls-2{fill:none;}.cls-2{stroke:#fafafa;}.cls-11,.cls-2{stroke-miterlimit:10;}.cls-3{fill:#b1b1b1;}.cls-4{clip-path:url(#clip-path);}.cls-5{fill:#d3745e;}.cls-6{clip-path:url(#clip-path-2);}.cls-7{fill:#e78367;}.cls-8{clip-path:url(#clip-path-3);}.cls-9{fill:#55baca;}.cls-10{clip-path:url(#clip-path-4);}.cls-11{stroke:#606060;}</style><clipPath id="clip-path"><polygon class="cls-1" points="119.89 98.53 119.89 98.53 137.75 98.53 137.75 131.81 119.89 131.81 119.89 98.53"/></clipPath><clipPath id="clip-path-2"><polygon class="cls-1" points="49.48 98.53 49.48 98.53 31.61 98.53 31.61 131.81 49.48 131.81 49.48 98.53"/></clipPath><clipPath id="clip-path-3"><polygon class="cls-1" points="125.56 126.86 125.56 126.86 136.06 126.86 136.06 143.36 125.56 143.36 125.56 126.86"/></clipPath><clipPath id="clip-path-4"><polygon class="cls-1" points="43.01 126.86 43.01 126.86 32.51 126.86 32.51 143.36 43.01 143.36 43.01 126.86"/></clipPath></defs><g id="Calque_3" data-name="Calque 3"><path class="cls-2" d="M91.77,31.32c8.8-9.46,6.14-25.18,6.14-25.18"/><path class="cls-3" d="M130.09,104.4c-12.11,6.42-12.82-24.24-13.81-25.88-3-1.23-7,1.36-10.19.51-7.37-2-28.68,1.26-31.89,3.29-.84.53,13.1,16,12.31,16.57-7.33,5.55-17.11,29.25-16.7,40.1.84,22.52,9.18,46.09-9.25,57.67-21.39,13.42-30.18-5.25-36.89-12.28-6.1-6.39-29.54-27.78-9.43-68.76,4.4-9,9.33-17.58,11.52-27.32,6.87-30.67,19.7-73.08,55.87-64.75,12.15,2.8,8,4.95,11.89,3.75,13-4,67.67-2.2,41.08,63.55C131.8,97.79,131.55,101.15,130.09,104.4Z"/><g id="_Répétition_miroir_" data-name="&lt;Répétition miroir&gt;"><g class="cls-4"><path class="cls-5" d="M128.61,131.6c4.48-2.12,7-13.21,8.4-18,1-3.56,1.43-12.7-1.67-14.74-2.7-1.77-12.36,3.81-12.36,3.81l-1,13.23-2.14,14S126.6,132.55,128.61,131.6Z"/></g></g><g id="_Répétition_miroir_2" data-name="&lt;Répétition miroir&gt;"><g class="cls-6"><path class="cls-5" d="M40.76,131.6c-4.49-2.12-7.06-13.21-8.4-18-1-3.56-1.44-12.7,1.66-14.74,2.71-1.77,12.36,3.81,12.36,3.81l1,13.23,2.14,14S42.77,132.55,40.76,131.6Z"/></g></g><rect class="cls-1" x="84.33" y="54.68" width="41.71" height="112.28"/><path class="cls-7" d="M125,89.71c-1.22-6.89-5.85-19.47-10.84-24.37-5.82-5.72-17-9.4-26.31-10.39v-.27c-1.08,0-2.2,0-3.33,0-.55,0-1.11,0-1.64,0v.11c-10.63.75-22.34,4.7-28.3,10.55-5,4.9-9.61,17.48-10.83,24.37-1.81,10.23,3.52,42.06,6.82,51.92,7.77,23.22,16.38,18.21,23.1,23.1,2.59,1.89,10.7,1.72,10.7,1.72s8.07.11,10.7-1.72c8-5.57,14.8-.93,23.09-23.1C121.79,131.89,126.78,99.94,125,89.71Z"/><rect class="cls-1" x="42.66" y="54.68" width="41.71" height="112.28"/><g class="cls-8"><rect class="cls-9" x="125.56" y="126.86" width="10.5" height="16.5" rx="5.25"/></g><g class="cls-10"><rect class="cls-9" x="32.51" y="126.86" width="10.5" height="16.5" rx="5.25"/></g><path class="cls-3" d="M42.66,99.34C42.38,95.16,50.4,68,54.37,68.88c11.76,2.68,28.89,4.43,30,4.5,1.89.12,18.75-.76,30.58-4.5,5.42-1.71,10.26,32,10.26,32l6.54-2.3,1.66-49.43L39.08,50Z"/><path class="cls-11" d="M114.91,68.88S146.81,27.3,93.52,27.3"/><path class="cls-11" d="M62.58,70.49s-24-40.62.93-46.65c21.17-5.11,28.26,7.48,28.26,7.48,21.6,26.91-7.44,42.06-7.44,42.06"/><path class="cls-11" d="M47.62,73.38s-18.41-2.91-12.4-15.15"/><path class="cls-11" d="M42.66,99.34s-19.36-1.27-16.9-11"/><path class="cls-11" d="M121.26,77.52s13.57,11.72,18.91-4.14"/><path class="cls-11" d="M32.51,117.47S5.35,135.58,22.6,154.56s13.58,43.33,13.58,43.33"/><path class="cls-11" d="M50.55,141.63s-5.52,13,4,24.83,9.3,28.35,6,30.2"/></g></svg>