<svg xmlns="http://www.w3.org/2000/svg" xmlns:xlink="http://www.w3.org/1999/xlink" viewBox="0 0 158 182.31"><defs><style>.cls-1,.cls-10,.cls-7,.cls-8,.cls-9{fill:none;}.cls-2{clip-path:url(#clip-path);}.cls-3{fill:#d3745e;}.cls-4{clip-path:url(#clip-path-2);}.cls-5{fill:#e78367;}.cls-6{fill:#b1b1b1;}.cls-7{stroke:#616161;}.cls-10,.cls-7,.cls-8,.cls-9{stroke-miterlimit:10;}.cls-8{stroke:#6e6e6e;}.cls-9{stroke:#424242;}.cls-10{stroke:#666;}</style><clipPath id="clip-path"><polygon class="cls-1" points="119.89 98.53 119.89 98.53 137.75 98.53 137.75 131.81 119.89 131.81 119.89 98.53"/></clipPath><clipPath id="clip-path-2"><polygon class="cls-1" points="49.48 98.53 49.48 98.53 31.61 98.53 31.61 131.81 49.48 131.81 49.48 98.53"/></clipPath></defs><g id="Calque_3" data-name="Calque 3"><g id="_Repetition_miroir_" data-name="&lt;Repetition miroir&gt;"><g class="cls-2"><path class="cls-3" d="M128.61,131.6c4.48-2.12,7-13.21,8.4-18,1-3.56,1.43-12.7-1.67-14.74-2.7-1.77-12.36,3.81-12.36,3.81l-1,13.23-2.14,14S126.6,132.55,128.61,131.6Z"/></g></g><g id="_Repetition_miroir_2" data-name="&lt;Repetition miroir&gt;"><g class="cls-4"><path class="cls-3" d="M40.76,131.6c-4.49-2.12-7.06-13.21-8.4-18-1-3.56-1.44-12.7,1.66-14.74,2.71-1.77,12.36,3.81,12.36,3.81l1,13.23,2.13,14S42.77,132.55,40.76,131.6Z"/></g></g><rect class="cls-1" x="84.33" y="54.68" width="41.71" height="112.28"/><path class="cls-5" d="M125,89.71c-1.22-6.89-5.85-19.47-10.84-24.37-5.82-5.72-17-9.4-26.31-10.39v-.27c-1.08,0-2.2,0-3.33,0-.55,0-1.11,0-1.64,0v.11c-10.63.75-22.34,4.7-28.3,10.55-5,4.9-9.61,17.48-10.83,24.37-1.81,10.23,3.52,42.06,6.82,51.92,7.77,23.22,16.38,18.21,23.1,23.1,2.59,1.89,10.7,1.72,10.7,1.72s8.07.11,10.7-1.72c8-5.57,14.8-.93,23.09-23.1C121.79,131.89,126.78,99.94,125,89.71Z"/><rect class="cls-1" x="42.66" y="54.68" width="41.71" height="112.28"/><path class="cls-6" d="M43.91,104.94s-8.62-3.14-9.57-7S28.61,78.77,30.4,72.63c7-23.92,18.54-2.87,24.16-7.29h0A17.8,17.8,0,0,1,52,41.7l.55-.23A66.92,66.92,0,0,1,94.08,38l2,.48s22.72,4.87,28.45,9.74c5.32,4.52,12.31,17.67,13.18,24.59.79,6.28-3.12,25.13-3.12,25.13l-10.2,7L120.91,88.8l-7-18.76L84.65,73.35l-30.59-2.5L49.83,88.29"/><path class="cls-7" d="M69.11,36.85c-16,11.86-8.36,26.74-5.6,34.77"/><path class="cls-8" d="M48.41,89.79A17.88,17.88,0,0,1,32,70.42l.62.08"/><path class="cls-9" d="M83.84,73.12C100.81,43.55,94.08,38,94.08,38"/><path class="cls-10" d="M112.74,70.18S127,56.71,124,48.71"/><path class="cls-7" d="M120.28,88.21s15.86-4.1,16.87-14.83"/></g></svg>