<?xml version="1.0" encoding="utf-8"?>
<!-- Generator: Adobe Illustrator 26.0.3, SVG Export Plug-In . SVG Version: 6.00 Build 0)  -->
<svg version="1.1" id="Calque_1" xmlns="http://www.w3.org/2000/svg" xmlns:xlink="http://www.w3.org/1999/xlink" x="0px" y="0px"
	 viewBox="0 0 788 1005.1" style="enable-background:new 0 0 788 1005.1;" xml:space="preserve">
<style type="text/css">
	.st0{fill:#375D63;}
	.st1{fill:#7F4C36;}
	.st2{fill:#FF92CD;}
	.st3{fill:#90573A;}
	.st4{fill:#F7A386;}
	.st5{fill:#FFE2F8;}
	.st6{fill:#211843;}
	.st7{fill:#221944;}
</style>
<g id="Calque_1_00000178890785809571442010000003688269547348203410_">
	<path class="st0" d="M465.2,494.2c-23.3,2.5-60.5,10-85.8,18.3c0,0-11.5,0.5-10.8-0.1l-87.8-16.6l22.9-58.4
		c1.1-10.7,10.1-18.8,20.8-18.8h99.9c11,0,20.1,8.5,20.8,19.4L465.2,494.2z"/>
</g>
<rect x="355.3" y="176.9" class="st1" width="39.5" height="47.4"/>
<path class="st2" d="M458.1,255.3c0,3-15.9,53.5-15.9,56.5s-0.6,78.6-0.6,78.6l34.8,128c1.5,10-5.4,19.2-15.4,20.7
	c-0.1,0-0.2,0-0.2,0s-69.1,10.1-87,9.5c-17.3-0.7-84.8-14.4-84.8-14.4c-9.2-2-15.4-10.6-14.3-20L307.1,386l-0.7-78.4l-17.2-52.3
	l61-26.4l2.5-17.7l44.5,0.4l2,18.3L458.1,255.3z"/>
<path class="st3" d="M516.7,343.9L516.7,343.9l-82.8-48l0,0c-10.6-6.1-13.9-19.8-7.5-30.6c6.4-10.8,20.2-14.6,30.8-8.4l0.5,0.3
	l79.3,60.2c7.9,6.1,9.8,15.4,5,21.9C536.6,346.5,529,351.4,516.7,343.9z"/>
<ellipse transform="matrix(0.6867 -0.7269 0.7269 0.6867 10.2026 500.792)" class="st3" cx="586.1" cy="238.6" rx="9.2" ry="9.3"/>
<path class="st3" d="M517,343.1c-10.5-6.6-12.3-18.8-6.1-29.3c0.1-0.2,3.4-4.6,3.4-4.6l62.7-72.6c0,0,4.1-6.5,11.3-1.6
	c6.5,4.3,1.8,11.6,1.8,11.6l-38.9,81.3c-4.5,9.4-10.8,17.6-21.1,19.4C525.9,347.9,520.3,345.2,517,343.1z"/>
<path class="st4" d="M550.8,339.3l-0.1-0.1c0.1-0.2,0.3-0.4,0.4-0.6l0.1-0.1L550.8,339.3z"/>
<path class="st3" d="M251.2,373.6L251.2,373.6L251.2,373.6l28.9-102.2l0,0c3.7-13,17.5-20.4,30.8-16.5c13.3,3.9,21.2,17.7,17.5,30.8
	c-0.1,0.2-0.1,0.4-0.2,0.6c-0.1,0.3-43,101.7-43,101.7c-4.4,10.1-13.9,14.7-22.1,11.4C253.9,395.7,246.5,388.9,251.2,373.6z"/>
<polygon class="st5" points="460.5,253.9 442.1,326.6 306.7,347.7 289.2,255.3 350.2,228.9 399.2,229.9 "/>
<path class="st3" d="M580.1,231.6l12.2-17.4l18.6-18.1c0,0,3,4.2,2.8,5.8c-0.5,5-5.6,11.3-8.6,15.4c-0.4,0.5-0.6,3.6-0.2,4.2
	c1.7,2.2,7-0.1,7-0.1l-14.1,12.4L580.1,231.6z"/>
<path class="st3" d="M584.4,228.3l11.9,14.4l26-23.2c5-3.9,9.2-8.4,12.5-13.4l17.6-26.8c0,0-5.7-1.1-7.5-0.5
	c-9.6,3.6-20.6,20.8-28,27.4C609,213.4,584.4,228.3,584.4,228.3z"/>
<path class="st6" d="M589.9,236.1c0.7,1.1,2,1.1,2.9,0.1l93.6-109.9l-96.7,105.5c-0.9,0.9-1,2.6-0.3,3.6L589.9,236.1z"/>
<path class="st3" d="M589.6,246.1l9.5-15.3c-2.6-2.4-2.8-6.5-0.4-9.1l13.7-15.1c2.4-2.6,6.5-2.8,9.1-0.4l4,3.6
	c2.6,2.4,2.8,6.5,0.4,9.1l-13.8,15.2C609.8,236.7,592.2,248.5,589.6,246.1z"/>
<path class="st7" d="M368.5,463.7l-68.6-17.8c-3.5-0.9-6-4.1-6-7.7V305c0-5.2,4.9-9,10-7.7l68.6,17.8c3.5,0.9,6,4.1,6,7.7v133.1
	C378.5,461.2,373.5,465,368.5,463.7z"/>
<g id="I971h2_00000067219755369311645200000005868042954794575240_">
	<g>
		<path class="st5" d="M326.7,437.9c5.3,2.5,9.5,1.1,11.6-3.7c2.8-6.2,2.3-12.5,0-18.7c-0.6-1.8-1.9-1.6-3.3-1.5
			c-11.1,0.3-20.2-3.7-25.7-13.7c-5.4-9.6-5.2-19.6,0.9-28.9c3.3-5.1,7.6-9.6,11.7-14.1c2.3-2.6,3.3-4.9,2.3-8.6
			c-2.2-8.2-2.3-16.6,0.2-24.8c0.6-2,1.6-4.1,2.8-5.8c4.2-5.8,10.9-5.6,15,0.4c2.8,4.1,3.1,8.7,2.6,13.4c-1.1,10.3-4,20-10.8,28.3
			c-3.1,3.7-3.1,10.3-0.3,14c0.4,0.5,1.3,0.7,2,0.7c8.3,0.7,13.8,5,16.4,12.7c2.6,8,1.1,14.6-5.7,19.8c-4.3,3.3-5,6.6-3.6,11.6
			c1.3,4.3,1.6,9,1.7,13.6c0.1,3.4-2.1,6.1-4.9,8c-5.3,3.8-13.5,3.7-18.6-0.2c-3.8-2.8-5.1-6.8-4.3-11.3c0.7-3.5,2.9-5.7,6.4-6.7
			c3.7-1,7.2,0.5,8.7,3.7c1.8,3.8,0.8,7.8-2.4,10C328.6,436.7,327.8,437.2,326.7,437.9z M331.9,386.5c-7.4,3.9-8.1,9.6-2.3,14.7
			c1,0.9,1.7,2.1,2.9,3.4c-5.3,0.3-9.1-2.3-10.9-6.9c-3-7.7-0.2-15.8,7.8-22.3c-0.7-2.5-1.5-5.1-2.4-8.3c-3.2,3.9-6.4,7.1-8.8,10.7
			c-2.1,3.2-3.8,6.8-4.6,10.4c-1.5,6.7,0.8,12.5,6.1,16.9c4.9,4,10.5,5.1,17,3.3C334.9,401.1,333.4,393.9,331.9,386.5z M328.5,349.9
			c5.6-5.5,9.2-11.2,10.6-18.1c0.3-1.4,0.5-3.2,0-4.3c-0.9-1.7-2.3-3.6-3.9-4.1c-0.9-0.3-3.3,1.6-3.9,3.1
			C327.8,333.7,327.3,341.3,328.5,349.9z M340.4,407c4.7-3.3,6.2-9.4,4.1-15.2c-1.5-4.2-4.4-6.3-8.4-5.9
			C337.5,392.8,338.9,399.7,340.4,407z"/>
	</g>
</g>
<g id="I971h2_00000031198194278168428470000017436679332327562150_">
	<g>
		<path class="st7" d="M629.6,253c1.5,1.5,3.1,1.5,4.4,0.1c1.7-1.8,2.3-3.9,2.2-6.3c0-0.7-0.5-0.8-0.9-0.9c-3.8-1.2-6.4-3.7-7.1-7.7
			c-0.7-3.9,0.6-7.2,3.8-9.7c1.7-1.3,3.7-2.3,5.6-3.4c1.1-0.6,1.7-1.3,1.8-2.6c0.2-3,1.2-5.9,3.1-8.4c0.5-0.6,1-1.2,1.7-1.6
			c2.1-1.5,4.4-0.6,5,1.9c0.4,1.7,0,3.3-0.7,4.8c-1.6,3.4-3.8,6.3-7.1,8.2c-1.5,0.9-2.3,3.1-1.8,4.7c0.1,0.2,0.4,0.4,0.6,0.5
			c2.7,1.2,4.1,3.3,4,6.3c-0.1,3-1.4,5.1-4.3,6c-1.9,0.6-2.5,1.6-2.6,3.5c-0.1,1.6-0.5,3.2-1,4.8c-0.4,1.2-1.4,1.8-2.6,2.1
			c-2.2,0.6-5-0.4-6.3-2.3c-0.9-1.4-0.9-2.9-0.1-4.3c0.6-1.1,1.7-1.6,3-1.5c1.4,0.1,2.4,1,2.5,2.3c0.1,1.5-0.7,2.7-2,3.1
			C630.4,252.8,630.1,252.9,629.6,253z M637.6,236.3c-3,0.4-3.9,2.3-2.5,4.7c0.2,0.4,0.3,0.9,0.6,1.5c-1.8-0.5-2.8-1.9-2.9-3.7
			c-0.1-3,1.8-5.3,5.3-6.6c0.1-0.9,0.1-1.9,0.2-3.1c-1.6,0.9-3,1.6-4.3,2.6c-1.1,0.8-2.1,1.8-2.8,3c-1.3,2.1-1.2,4.3,0,6.4
			c1.2,1.9,2.9,3,5.3,3.2C636.8,241.6,637.2,239,637.6,236.3z M640.8,223.5c2.5-1.2,4.5-2.7,5.7-4.9c0.3-0.4,0.6-1,0.5-1.5
			c-0.1-0.7-0.3-1.5-0.8-1.9c-0.3-0.2-1.3,0.2-1.7,0.6C642.5,218,641.4,220.5,640.8,223.5z M638,244.2c2-0.5,3.2-2.4,3.2-4.6
			c0-1.6-0.7-2.6-2.1-3C638.7,239.1,638.4,241.6,638,244.2z"/>
	</g>
</g>
<path class="st7" d="M705.3,157.9c2.6-0.3,5.1-0.6,7.6-0.9c-0.5,2-0.9,4-1.4,5.9c-0.2,0.8-0.3,1.5-0.5,2.3c-0.3,1.3-1.8,2.1-3.1,1.5
	c-0.5-0.2-0.9-0.6-1-1.2c-0.1-0.7,0.2-1.2,0.8-1.5c0.9-0.6,1.8-0.5,2.8,0.2c0.1-1.3,0.3-2.5,0.4-3.8c-0.5,0.2-1,0.3-1.4,0.4
	c-1,0.3-1.9,0.6-2.9,0.9c-0.5,0.1-0.7,0.4-0.8,0.9c-0.3,1.4-0.6,2.8-0.9,4.2c-0.4,1.4-1.7,2.2-3.1,1.7c-0.5-0.2-0.9-0.6-1-1.1
	c-0.1-0.6,0.1-1.1,0.6-1.5c0.8-0.7,1.9-0.7,3,0.1C704.8,163.3,705,160.6,705.3,157.9z M711.1,158.7c-1.4,0.4-2.7,0.7-4,1
	c-0.6,0.2-0.8,0.4-0.7,1.2c1.2-0.3,2.5-0.6,3.7-0.9C711.2,159.8,711.2,159.8,711.1,158.7z"/>
<path class="st7" d="M685.8,197.9c0.2-3.6-2.9-4-5.1-5.5c0.4,3.2,0.8,6.2,1.2,9.2c0.3,2.6-1.9,5.1-4.5,5c-1.2-0.1-2.2-0.5-2.7-1.7
	c-0.5-1.3-0.2-2.5,0.7-3.4c1.3-1.5,3-2,5.1-1.2c-1.1-4.3-2.1-8.4-3.2-12.5c-0.2-0.7-0.3-1.4-0.5-2.1c-0.2-0.8,0.1-1.1,0.9-1.1
	c0.2,0,0.5,0,0.7-0.1c1.2-0.4,1.8,0,2.3,1.2c0.3,0.8,1.1,1.5,1.8,2.2c0.9,0.9,2,1.6,2.8,2.5c0.8,0.9,1.1,2.1,0.7,3.4
	c-0.1,0.3,0,0.8,0.2,1.1C686.3,195.9,686.5,196.9,685.8,197.9z M680.4,188.7c0.8,2.7,3.2,3.4,4.9,5.2
	C685.2,190.5,682.5,190.1,680.4,188.7z"/>
<path class="st7" d="M708,121.8c0.5,0.1,0.9,0.2,1.4,0.3c-0.2,1.3-0.5,2.5-0.7,3.7s-0.4,2.3-0.7,3.5c-0.2,1.2-1.4,2-2.6,1.6
	c-0.5-0.2-0.8-0.5-0.9-1c-0.1-0.5,0.2-0.9,0.6-1.2c0.8-0.5,1.6-0.5,2.4,0.1C707.6,126.4,707.8,124.2,708,121.8z"/>
<path class="st3" d="M383.3,407.7l20.1-4l28.1,2.2c0,0-1.3,5.4-2.7,6.5c-4.5,3.2-16.5,1.1-21.9,1.7c-0.7,0.1-2.4,0.7-2.5,1.4
	c-0.6,2.9,7.4,9.5,7.4,9.5l-20.3-2.7L383.3,407.7z"/>
<path class="st3" d="M389.1,410.9l-6.3,20.1l41.8,17l47.8,0.9c0,0-1.3-6.5-2.8-8c-8.1-7.4-32-7.8-42.5-11
	C415.6,426.5,389.1,410.9,389.1,410.9z"/>
<ellipse transform="matrix(0.9967 -8.072378e-02 8.072378e-02 0.9967 -32.6046 32.5148)" class="st3" cx="385.8" cy="419.5" rx="12" ry="12.1"/>
<path class="st3" d="M252.1,373.7c4.3-13,16.8-18.4,29.8-14.6c0.3,0.1,5.9,2.3,5.9,2.3l95.1,47.5c0,0,8.1,2.7,4.9,11.7
	c-2.9,8.1-12,5.1-12,5.1l-97.9-19.5c-11.3-2.2-21.9-6.8-26.6-17.3C249.4,384.6,250.8,377.8,252.1,373.7z"/>
</svg>
