<?xml version="1.0" encoding="utf-8"?>
<!-- Generator: Adobe Illustrator 26.0.3, SVG Export Plug-In . SVG Version: 6.00 Build 0)  -->
<svg version="1.1" id="Calque_1" xmlns="http://www.w3.org/2000/svg" xmlns:xlink="http://www.w3.org/1999/xlink" x="0px" y="0px"
	 viewBox="0 0 788 1005.1" style="enable-background:new 0 0 788 1005.1;" xml:space="preserve">
<style type="text/css">
	.st0{fill:#BC3737;}
	.st1{fill:#90573A;}
	.st2{fill:#375D63;}
	.st3{fill:#7F4C36;}
	.st4{fill:#F49595;}
	.st5{fill:#FFFFFF;}
	.st6{fill:#D2DAE4;}
	.st7{fill:none;stroke:#D2DAE4;stroke-width:2;stroke-miterlimit:10;}
	.st8{fill:none;stroke:#EAD3D3;stroke-width:3;stroke-linecap:round;stroke-miterlimit:10;}
	.st9{fill:#EAD3D3;}
</style>
<path class="st0" d="M475.7,464.8L463,458c-2-1.1-3-3.3-2.6-5.5l0.7-3.3c0.2-1,0.1-2.1-0.3-3.1l0,0c-0.8-1.9-0.4-4.1,1-5.6l7.8-7.9
	c0.5-0.6,1-1.2,1.2-2l25.9-79.4c0.1-0.3,0.2-0.6,0.4-0.9l4.1-7.2c4.6-8.2,14.7-11.6,23.3-7.7l0,0c9.2,4.1,13.2,14.9,9.1,24
	c-0.1,0.3-0.3,0.7-0.5,1l-41.7,79.2c-0.4,0.7-0.6,1.5-0.6,2.3c0,3.9-0.2,16-0.9,15.9c-0.6-0.1-2.9,1.1-4.4,1.8
	c-0.7,0.4-1.4,0.9-1.8,1.6l-1.4,2C480.8,465.3,477.9,466,475.7,464.8z"/>
<path class="st1" d="M435.4,476.9c0.7-3,12-13.3,12.9-13.3s15-5.7,16-6.3s16.4,5.6,16.2,6.4s-5.7,25.1-7.1,26.1s-5.7,6.6-6.6,6.6
	c-0.6,0-9.8-2.5-16.1-4.3c-3.9-1.1-7.3-3.4-9.7-6.6C438.3,481.9,434.9,479,435.4,476.9z"/>
<path class="st2" d="M451.3,485.4c-23.3,2.5-44.5,10-69.8,18.3c0,0-11.5,0.5-10.8-0.1L291.9,487l5.9-58.4
	c1.1-10.7,10.1-18.8,20.8-18.8h107.9c11,0,20.1,8.5,20.8,19.4L451.3,485.4z"/>
<path class="st1" d="M249.7,231.7c2.8-0.2,5.2-2,6.2-4.6c2.2-6,4.9-16.1,5.8-17.7c1.3-2.3,13.6-26.7,12.3-26.9
	c-0.8-0.1-3.2,0.4-5.2,0.9c-1.8,0.4-3.3,1.5-4.3,3l0,0c-3.4,5.1-11.2,3.9-12.9-2l-3.7-13c0,0-9.1-36-10.2-34.8
	c-0.9,0.8-1.8,1.5-2.7,2.2c-2.1,1.6-3.1,4.3-2.6,6.9l4.7,25.2c0.3,1.8,0,3.6-1,5.2l-13,20.4c-1.1,1.8-1.4,4-0.8,6
	c1.9,6.1,6.2,19.1,8,21.6c0.7,1,5.1,9.1,8.9,8.6C240.6,232.4,245.9,232,249.7,231.7z"/>
<rect x="355.9" y="168.1" class="st3" width="39.5" height="47.4"/>
<path class="st0" d="M221.3,345.5l12.3-91.3c0.1-0.6,0-1.2-0.3-1.7l-3.9-6.6c-0.4-0.7-0.5-1.5-0.2-2.2l3.1-8.1
	c0.3-0.7,0.9-1.3,1.6-1.5l20.8-6.5c1.5-0.5,3,0.5,3.3,2l1.2,7.1c0.1,0.7,0.6,1.4,1.2,1.8l0,0c1.1,0.7,1.5,2,1,3.1l-5.6,14
	c-0.1,0.3-0.2,0.7-0.2,1.1c0.3,6.8,3.4,74.6,3,77.3c-0.4,2.6-1.3,13.2-1.5,14.8c0,0.2,0,0.3-0.1,0.4l-0.4,1.5
	c-2.3,8.4-10.3,13.9-18.9,13.1l0,0c-8.7-0.8-15.6-7.8-16.3-16.5l-0.1-1.3C221.3,345.9,221.3,345.7,221.3,345.5z"/>
<path class="st0" d="M529.2,339.3L481,279.2l-14.4-22.7c-4.2-6.5-10.2-11.7-17.3-14.7l-47.9-20.7l-1.5-14c-0.3-2.5-2.3-4.3-4.8-4.3
	l-35.9-0.3c-2.4,0-4.5,1.8-4.9,4.2l-1.9,13.5l-49.6,21.4c-7.4,3.2-13.6,8.7-17.8,15.6l-15,24.9l-43.6,52.7
	c-6.2,7.5-5.2,18.6,2.3,24.8c7.5,6.2,18.6,5.2,24.9-2.3c0.1-0.1,0.2-0.2,0.2-0.3l54.7-58.2l-7.3,78.4l-20.5,140.4
	c-1.1,9.4,10.1,5.8,19.3,7.8c0,0,58.5,13.7,75.8,14.4c17.9,0.7,71-9.5,71-9.5h1.2c3.7,0,7.3-0.2,11-0.4c9.6-0.6,21.2,0.5,19.9-8.2
	L453.1,389c-1-4.9-1.7-9.9-2.2-15l-6.7-71.1l56.7,60.8c6.9,7.4,18.6,8,26.2,1.2C534.5,358.2,535.4,347,529.2,339.3z"/>
<path class="st0" d="M399.6,226.4h-47.3c-3.8,0-6.8-3.1-6.8-6.8v-16.8c0-3.8,3.1-6.8,6.8-6.8h47.3c3.8,0,6.8,3.1,6.8,6.8v16.8
	C406.4,223.3,403.3,226.4,399.6,226.4z"/>
<g>
	<path class="st4" d="M257.4,219.9h-30.6c-4.5,0-8.1-3.6-8.1-8.1v-77.1c0-4.5,3.6-8.1,8.1-8.1h30.6c4.5,0,8.1,3.6,8.1,8.1v77.1
		C265.5,216.2,261.9,219.9,257.4,219.9z"/>
	<path class="st5" d="M260.3,214.1h-36.4c-1.2,0-2.3-1-2.3-2.3v-74.2c0-1.2,1-2.3,2.3-2.3h36.4c1.2,0,2.3,1,2.3,2.3v74.2
		C262.6,213,261.6,214.1,260.3,214.1z"/>
	<path class="st5" d="M250.9,131.5h-17.5c-0.3,0-0.6-0.3-0.6-0.6v-0.3c0-0.3,0.3-0.6,0.6-0.6h17.5c0.3,0,0.6,0.3,0.6,0.6v0.3
		C251.5,131.3,251.2,131.5,250.9,131.5z"/>
	<circle class="st6" cx="242.1" cy="168.7" r="9.9"/>
	<path class="st6" d="M255.3,214.2h-26.4v-21.6c0-6,4.8-10.8,10.8-10.8h4.8c6,0,10.8,4.8,10.8,10.8L255.3,214.2L255.3,214.2z"/>
	<path class="st7" d="M248.7,152.3c-1.7-1.7-4-2.7-6.6-2.7s-4.9,1-6.6,2.7"/>
	<path class="st7" d="M250.6,149.7c-2.1-2.4-5.1-3.9-8.5-3.9s-6.5,1.5-8.5,4"/>
	<path class="st7" d="M253.3,146.6c-2.5-3.4-6.6-5.6-11.2-5.6c-4.6,0-8.7,2.2-11.2,5.7"/>
	<path class="st7" d="M246.8,154.9c-1.1-1.3-2.8-2.1-4.6-2.1c-1.9,0-3.5,0.8-4.7,2.1"/>
</g>
<path class="st4" d="M198.7,122.9c4.1-6.6,6.5-14.3,6.5-22.6c0-23.6-19.1-42.8-42.8-42.8s-42.8,19.2-42.8,42.8s19.1,42.8,42.8,42.8
	c7.1,0,13.8-1.8,19.7-4.8l18.4,4.5c0.6,0.2,1.2-0.4,1.1-1L198.7,122.9z"/>
<path class="st8" d="M162.4,57.5"/>
<path class="st8" d="M162.4,57.5c-23.6,0-42.8,19.1-42.8,42.8c0,23.6,19.1,42.8,42.8,42.8c7.1,0,13.8-1.8,19.7-4.8l18.4,4.5
	c0.6,0.2,1.2-0.4,1.1-1l-2.9-18.8c4.1-6.6,6.5-14.3,6.5-22.6"/>
<path class="st9" d="M178.4,87c-4.4-3.2-10.4-2.4-14.2,1.4l-1.8,1.8l0,0l-2.1-2.1c-4.2-4.2-11.1-4.2-15.4,0l0,0
	c-4.2,4.2-4.2,11.1,0,15.4l2.1,2.1l0,0l14.8,14.8c0.3,0.3,0.8,0.3,1.1,0l14.8-14.8l0,0l2-2C184.5,98.9,184,91,178.4,87z"/>
<path class="st1" d="M218.3,164h-0.5c-1.7,0-3.1-1.4-3.1-3.1v-4.1c0-1.7,1.4-3.1,3.1-3.1h0.5c1.7,0,3.1,1.4,3.1,3.1v4.1
	C221.4,162.6,220,164,218.3,164z"/>
<path class="st1" d="M218.4,174.1h-0.5c-1.7,0-3.1-1.4-3.1-3.1v-4.1c0-1.7,1.4-3.1,3.1-3.1h0.5c1.7,0,3.1,1.4,3.1,3.1v4.1
	C221.5,172.7,220.1,174.1,218.4,174.1z"/>
<path class="st1" d="M218.5,184.3H218c-1.7,0-3.1-1.4-3.1-3.1v-4.1c0-1.7,1.4-3.1,3.1-3.1h0.5c1.7,0,3.1,1.4,3.1,3.1v4.1
	C221.5,182.9,220.2,184.3,218.5,184.3z"/>
</svg>
