<?xml version="1.0" encoding="utf-8"?>
<!-- Generator: Adobe Illustrator 26.0.3, SVG Export Plug-In . SVG Version: 6.00 Build 0)  -->
<svg version="1.1" id="Calque_1" xmlns="http://www.w3.org/2000/svg" xmlns:xlink="http://www.w3.org/1999/xlink" x="0px" y="0px"
	 viewBox="0 0 788 1005.1" style="enable-background:new 0 0 788 1005.1;" xml:space="preserve">
<style type="text/css">
	.st0{fill:#90573A;}
	.st1{fill:#4C443F;}
	.st2{fill:#375D63;}
	.st3{fill:#E0B9A0;}
	.st4{fill:#161615;}
	.st5{fill:#5A5A5A;}
	.st6{fill:#7F4C36;}
	.st7{fill:#3D3D3D;}
	.st8{fill:none;stroke:#9B9B9B;stroke-miterlimit:10;}
</style>
<path class="st0" d="M470.8,261.7c4.6,8.5,5.5,38.4,5.5,38.4l19.3,74.6c2.5,9.6-3,19.4-12.4,22.5l0,0c-9.7,3.1-20.1-2.1-23.4-11.8
	l-27.4-88.5l27.1-45C459.5,251.9,469,258.4,470.8,261.7z"/>
<path class="st1" d="M470.8,351.2c1-1.8,2.2-3.5,3.1-5.4c0.7-1.4,0.6-2.9-0.4-4.3c-0.9-1.3-2-1.5-3.2-0.6c-1.8,1.3-3.6,2.6-5.4,3.9
	c-1.6,1.1-3.4,2-5.4,2.2c-5.4,0.4-9.4-4.1-8.9-9.8c0.3-3.6,2.8-6.5,6.7-7.5c2.1-0.6,4.2-0.7,6.3-1.2c1.2-0.3,2.3-0.7,3.4-1.3
	c0.9-0.5,1.6-1.5,1.1-2.6c-0.4-1-1.6-1.2-2.5-1c-1.6,0.5-3.1,1.1-4.6,1.8c-1.8,0.8-3.5,1.9-5.3,2.7c-4.1,1.7-9.1-0.6-10.5-4.7
	c-1.1-3.2,0.7-7.2,4.1-8.6c2.6-1.1,5.2-1.3,7.9-0.6c1.1,0.3,2.2,1.1,3.1,1.8c0.7,0.5,0.9,1.3-0.1,1.8c-1.1,0.6-2.3,1.3-3.5,1.5
	c-0.8,0.2-1.8-0.3-2.5-0.7c-1.2-0.7-2.4-1.8-3.9-0.8c-1.4,0.8-2.5,1.9-2.4,3.7c0.1,1.8,1,3.3,2.6,4c0.6,0.3,1.5,0.2,2.2-0.1
	c3.1-1.5,6.1-3.2,9.1-4.8c0.9-0.5,1.9-1,2.8-1.4c3.4-1.2,7.2,0.9,8.4,4.5c1.1,3.4-0.8,7-4.4,7.8c-1.1,0.3-2.3,0.1-3.5,0
	c-3.1-0.3-6.1,0.1-8.8,1.9c-1.6,1.2-2.5,2.7-2.7,4.7c-0.4,4,4.5,6.7,7.5,4.8c1.9-1.2,3.6-2.9,5.5-4.2c1.2-0.9,2.5-1.8,3.9-2.2
	c3.3-1,6.1,1.1,6,4.6C476.3,345.6,474,348.7,470.8,351.2z M455.7,318c0.1-0.1,0.1-0.2,0.2-0.3c-0.3-0.2-0.7-0.5-1-0.7
	c-0.1,0.1-0.2,0.2-0.2,0.4C455,317.6,455.4,317.8,455.7,318z"/>
<g id="Calque_1_00000070813835829861192000000008072974033708630182_">
	<path class="st2" d="M465.6,491.8c-23.3,2.5-59.5,10-84.8,18.3c0,0-11.5,0.5-10.8-0.1l-86.8-16.6l12.9-58.4
		c1.1-10.7,19.1-18.8,29.8-18.8h99.9c11,0,20.1,8.5,20.8,19.4L465.6,491.8z"/>
</g>
<polygon class="st3" points="238.6,247.1 233.2,228.4 213.8,225.4 220.9,261 "/>
<polygon class="st0" points="396.2,174.5 356.7,174.5 356.7,223.9 370.2,272.9 385.8,272.9 396.2,223.9 "/>
<path class="st0" d="M228,365.9L228,365.9c7.5,6.2,18.6,5.2,24.9-2.3c0.1-0.1,0.2-0.2,0.2-0.3l54.7-58.2l-17.1-52.3l-21.4,35.6
	L225.7,341C219.5,348.6,220.5,359.7,228,365.9z"/>
<path class="st0" d="M221.5,354.8l-3.9-111l-1.5-14.2l17.2-1.2c2.5-0.5,23.9,105.6,23.1,108.6c-0.8,2.7,1,15.1,1,15.1l-0.2,1.8
	c-0.9,8.7-7.9,15.4-16.5,16l0,0c-8.7,0.6-16.7-5.1-18.8-13.6L221.5,354.8z"/>
<path class="st4" d="M443.6,309.4c0,2.7,7.5,63.2,7.4,76.2c0,1.6,0.1,3.2,0.3,4.8L476.8,516c1.5,10-20.4,19.2-30.4,20.7
	c-0.1,0-0.2,0-0.2,0s-53.1,10.1-71,9.5c-17.3-0.7-67.8-14.4-67.8-14.4c-9.2-2-31.4-10.6-30.3-20l23.2-126.2c0.1-0.8,0.2-1.7,0.2-2.5
	c0-1,0.1-2.1,0.2-3.1l6.9-66.7c0.3-2.6,0.3-5.2-0.1-7.9c0,0,0,0,0,0"/>
<path class="st4" d="M441.8,252.9l2.5,42.7l-0.7,14.6l-52.5,11.7l-83.5-15.3l-0.5-7.6l18.7-52.6l31.1-23.9c0,0,34.2-0.8,38.8-0.8
	c0.3,0,0.6,0.1,0.9,0.3L441.8,252.9z"/>
<path class="st5" d="M307.4,305.2c-0.3-1.6-0.6-3.2-1.2-4.7l-15.4-46.9c-1-2.9,0.5-6,3.4-7.2l61.9-24.3c0.3-0.1,0.6,0,0.7,0.3"/>
<path class="st5" d="M453.6,326.7l-69.1,17.9c-2.3,0.6-3.9,2.7-3.8,5.1l3.7,96.7c0.1,3.4,3.4,5.7,6.6,4.7l59.5-18.8
	c2-0.6,3.4-2.4,3.5-4.5l5.9-95.8C460.1,328.5,456.9,325.9,453.6,326.7z"/>
<path class="st0" d="M379,426.4l-3.7-19.2c-0.4-1.9,3.4-4.8,5-5.7l3.6-2.1c0.8-0.5,1.4-1.1,1.8-2l0.3-0.7c0.7-1.6,2.4-2.6,4.1-2.5
	l11.8,4.6c0.7,0,9.6-0.4,10.2-0.7l58.9-29.2l9.5-4.2c0.3-0.1,0.5-0.2,0.8-0.3c3.6-0.8,3.1,0,1.6,1.9c-3,3.7,1.3,8.8,5.4,6.5l0.7-0.4
	c2.2-1.2,5-0.3,6,2c5.3,12.6-3,26.6-12.2,28.9l-72.3,16.5c-0.4,0.1-0.8,0.2-1.2,0.4l-10.8,6c-0.4,0.2-0.7,0.3-1.1,0.4l-6.2,1.4
	c-0.1,0-0.3,0.1-0.4,0.1l-6.1,1.5C382.6,430,379.5,428.6,379,426.4z"/>
<path class="st5" d="M396.8,222.1l60.5,24.6c2.7,1.1,4.2,4.1,3.4,7c-4.2,14.3-17.1,53.2-17.1,55.7"/>
<polygon class="st6" points="356.6,174.5 396.1,174.5 396.2,207.1 356.7,217.8 "/>
<path class="st0" d="M232.6,230.4c0.7-0.4,1.3-0.9,1.8-1.5c2-3.3,8.3-13.7,8.6-15.9c0.3-2.7,0-14.4,0.6-16.5
	c0.6-2.1,7.1-13.1,5.8-13.6c-0.8-0.3-2.9-0.9-4.6-1.5c-1.6-0.5-3.3,0.1-4.3,1.5l-4.4,5.7c-0.3,0.5-0.6,1.1-0.8,1.6l-1,5
	c-0.5,2.2-3.4,2.5-4.3,0.5l-0.4-3.5c-0.1-0.2-4.7-6.4-4.7-6.6c-2.1-2.7-8.5,0.5-8.5,0.5c-0.1-0.1-5.3,2.7-7.1,3.8
	c-0.5,0.3-0.9,0.6-1.3,0.9l-4,2.7c-3.5,2.3-6.1,5.6-7.4,9.4c-0.6,1.8-0.8,3.4,0,4.3c0.2,0.2,0.4,0.5,0.5,0.8l12.8,24.6
	c0.4,0.8,1.2,1.4,1.8,1.9l4.3,2.1c1.1,0.4,2.3,0.5,3.3,0L232.6,230.4z"/>
<path class="st5" d="M237,187c-1.8-1.6-3.6-3.1-5.5-4.7c-0.3,0.3-0.9,0.9-1.5,1.4c-0.9-1-1.7-1.9-2.6-2.8c0.5-0.6,1.3-1.4,2-2.3
	c-1-1.4-3.3-2.5-1.5-4.4c1.8-1.9,3,0.4,4.5,1.3c0.8-0.8,1.6-1.6,2.5-2.5c0.8,0.9,1.6,1.8,2.5,2.8c-0.4,0.5-0.9,1.2-1.7,2.3
	c1.6,1.4,3,3.5,4.9,4.1c1.6,0.5,2.9,0.9,4,2.1c0.1,0.1,0.1,0.1,0.2,0.2c0.1,0.9-2.4,1.8,0.1,2.8c0.5-0.6,1.1-1.3,1.7-2
	c-1.4-3.1-1.3-3.8,1.2-6.5c3.2-3.4,6.5-6.8,9.7-10.2c2.2-2.3,3.2-2.4,6.1-1c0.6-0.6,1.2-1.3,2.3-2.5c-1.7-1.4-3.3-2.6-4.8-3.9
	c-1.2-1.1-3-2.2-1.3-4c1.6-1.7,2.8,0.1,3.9,1.1c0.3,0.2,0.5,0.5,0.8,0.8c0.9,0.7,1.6,0.7,2.4-0.4c3.1-4.5,7.2-4.6,10.5-0.4
	c0.4,0.5,1.2,0.8,1.8,0.9c0.9,0.1,1.8,0,2.8,0c0,1.3,0.1,2.5,0.1,3.8c-0.8,0.1-1.5,0.2-2.3,0.2c-1.2,0-2,0.3-2.8,1.4
	c-0.9,1.2-2.3,2-3.3,2.9c3.5,3.3,7.3,6.9,11.1,10.6c1.8-2,3.2-0.4,4.7,1c1.3,1.2,1.7,2.5,0.2,4c0.4,0.5,0.8,1,1.2,1.6
	c-1.3,1.1-1.9,3.1-4.2,2.3c-0.4-0.1-1.3,0.6-1.8,1.1c-5.7,5.9-11.3,11.8-16.9,17.8c-0.6,0.7-0.5,2-1,2.9c-0.5,1.2-1.3,2.2-1.9,3.3
	c-8.2-7.8-16.1-15.5-24.1-23.1c-0.4,0.2-0.7,0.3-1.1,0.5c0.1,0.6-0.1,1.4,0.2,1.8c2.1,2.7,2.1,4.2-0.2,6.7
	c-5.2,5.5-10.4,11-15.6,16.5c-2.4,2.5-4.3,2.6-6.8,0.2c-1.4-1.3-2.8-2.6-4.1-3.9c-2.5-2.4-2.6-4.4-0.3-6.8
	c5.2-5.6,10.5-11.1,15.8-16.6c2.2-2.3,4-2.4,6.5-0.4c0.3,0.3,0.7,0.5,1,0.7C236.8,187.3,236.9,187.1,237,187z M266.3,170.2
	c1.6,2.8,1.5,4-0.6,6.2c-3.2,3.4-6.4,6.6-9.5,10.1c-1.9,2.1-3.8,3.4-6.4,1.6c-0.9,0.7-1.6,1.2-2.2,1.7c2.7,2.5,5.1,4.8,7.4,7
	c0.7-0.5,1.4-1.1,2.1-1.7c-1.6-2.7-1.5-3.9,0.4-5.9c3.4-3.6,6.8-7.1,10.2-10.7c2.3-2.4,3.3-2.6,6.2-1.2c0.6-0.6,1.2-1.2,1.6-1.6
	c-2.6-2.4-5-4.8-7.3-7C267.7,169.1,267,169.7,266.3,170.2z M278.9,178.3c-0.8,0.7-1.6,1.2-2.2,1.7c1.6,2.8,1.5,3.9-0.5,6
	c-3.2,3.4-6.4,6.6-9.5,10.1c-1.9,2.1-3.9,3.6-6.7,1.6c-0.7,0.8-1.3,1.5-1.7,1.9c1.5,1.4,2.8,2.7,4.1,3.9
	c6.8-7.2,13.6-14.4,20.4-21.6C281.5,180.8,280.2,179.5,278.9,178.3z M272.2,164.1c1-1.3,2-2.1,2-2.8s-1.2-1.9-1.8-1.9
	c-0.7,0-1.8,1.1-1.9,1.8C270.3,161.9,271.3,162.7,272.2,164.1z"/>
<path class="st5" d="M203.6,221.5c2.8-3,5.7-6.1,8.4-9c1.2,1.2,2.5,2.4,3.7,3.5c-2.7,2.9-5.7,5.9-8.6,9
	C206.1,223.9,204.9,222.7,203.6,221.5z"/>
<path class="st7" d="M196,232.6c2.1-2.8,4.3-5.7,6.5-8.7c0.9,0.8,1.5,1.3,2.6,2.2c-2.9,2.5-5.6,4.8-8.4,7.2
	C196.4,233,196.2,232.8,196,232.6z"/>
<path class="st0" d="M229,203l-14.2,8.8c-3.9,2.4-9.1,1.2-11.5-2.7l0,0c-2.4-3.9-1.2-9.1,2.7-11.5l18.9-12.1l6.2,8.8
	C232.9,197.2,231.9,201.2,229,203z"/>
<path class="st8" d="M387.5,343.9c0-1.9,1.5-3.4,3.4-3.4s3.4,1.5,3.4,3.4s-1.5,3.4-3.4,3.4"/>
<path class="st8" d="M408.9,338.4c0-1.9,1.5-3.4,3.4-3.4s3.4,1.5,3.4,3.4s-1.5,3.4-3.4,3.4"/>
<path class="st8" d="M398.2,340.9c0-1.9,1.5-3.4,3.4-3.4s3.4,1.5,3.4,3.4s-1.5,3.4-3.4,3.4"/>
<path class="st8" d="M420.7,335.5c0-1.9,1.5-3.4,3.4-3.4s3.4,1.5,3.4,3.4s-1.5,3.4-3.4,3.4"/>
<path class="st8" d="M442.1,329.9c0-1.9,1.5-3.4,3.4-3.4s3.4,1.5,3.4,3.4s-1.5,3.4-3.4,3.4"/>
<path class="st8" d="M431.4,332.5c0-1.9,1.5-3.4,3.4-3.4s3.4,1.5,3.4,3.4s-1.5,3.4-3.4,3.4"/>
<path class="st1" d="M422.9,406.7c-0.3,1.3-1.5,1.1-2.4,1.5c-0.5,0.3-1.1,0.4-1.7,0.6c-0.5,0.1-0.6,0.5-0.5,0.9
	c0,0.1,0.1,0.2,0.1,0.3c-0.1,0.3-0.1,0.6-0.3,0.9c0,0.1-0.5,0-0.5,0c-0.1-0.3,0-0.6,0-1.1c-0.3-0.3-0.6-0.3-1,0.2
	c-0.2,0.2-0.4,0.4-0.6,0.5c-2,0.6-4,1-6.1,0.9c-0.3,0-0.5-0.1-0.9-0.2c0.5-0.5,0.7-0.9,1.2-1.2c1.5-0.9,3.1-1.7,4.7-2.6
	c0.2-0.1,0.6-0.1,0.9,0c0.6,0.1,0.8-0.1,0.9-0.5c-0.3-0.4-0.5-0.6-0.7-0.8c0,0,0.2-0.4,0.3-0.4c0.3,0.1,0.5,0.2,0.8,0.3
	c0,0,0,0.1,0.1,0.1c-0.2-0.1-0.4-0.1-0.6-0.2c0.2,0.4,0.4,0.7,0.7,1.1c0-0.3,0-0.6-0.1-0.9c0.6,1,0.6,0.9,1.7,0.5
	c0.5-0.2,1.1-0.4,1.6-0.5c0,0.2,0,0.4-0.1,0.7c0.4-0.1,0.6-0.2,0.9-0.2c0-0.1,0-0.1,0-0.2c-0.3-0.1-0.6-0.2-0.9-0.3
	c0.4-0.1,0.8-0.3,1.3-0.4c0,0.2,0,0.4-0.1,0.6c0.1,0,0.3-0.1,0.4-0.1c-0.1-0.2-0.2-0.4-0.4-0.5c0.4-0.1,0.8-0.2,1.1-0.4
	c0.5-0.4,1,0,1.5,0.1c0.1,0,0.2,0.5,0.2,0.7c0,0.3-0.2,0.6-0.3,0.9C423.7,406.9,423.1,407.8,422.9,406.7c0.2-0.1,0.5-0.3,0.5-0.3
	c-0.1-0.3-0.3-0.5-0.4-0.7c-0.1,0-0.2,0.1-0.3,0.1C422.8,406.1,422.9,406.4,422.9,406.7z M415.8,408.8c0.3,0.1,0.4,0.2,0.7,0.4
	c-0.8,0.4-1.7,0.2-2.2,1.1c-1-0.4-2.6-0.2-4.2,0.7c1.3,0.3,2.5,0,3.7-0.1c1.3-0.2,2.3-0.8,3.2-1.7c-0.2-0.1-0.4-0.3-0.6-0.4
	c0.1-0.3,0.1-0.5,0.2-0.7c-2.6-0.4-4.5,0.9-6.3,2.6c1.3-0.5,2.9-0.4,3.5-1.9c0.9,0.4,1.6-0.4,2.5-0.4
	C416,408.4,415.9,408.6,415.8,408.8z M417.7,408.1c0.5,0.2,0.9,0.5,1.2,0c0.1-0.2-0.1-0.6-0.3-0.7
	C418.1,407.1,418,407.7,417.7,408.1z M421.5,407.3c0-0.1-0.1-0.1-0.1-0.2c-0.2,0.1-0.5,0.3-0.8,0.5
	C421.3,408,421.4,407.5,421.5,407.3z M418.1,410.6c0.1,0,0.2,0,0.3,0c-0.1-0.4-0.1-0.8-0.2-1.2h-0.1
	C418,409.8,418.1,410.2,418.1,410.6z M422.5,407c-0.2,0-0.4-0.1-0.5,0c-0.1,0-0.1,0.2-0.1,0.3c0.1,0,0.3,0.2,0.4,0.1
	C422.4,407.4,422.4,407.2,422.5,407z M420.1,407.1c0-0.1,0.1-0.2,0.1-0.3c-0.2-0.1-0.4-0.1-0.7-0.2c0,0.1,0,0.2-0.1,0.2
	C419.6,407,419.8,407.1,420.1,407.1z M420.4,407.6c-0.1,0-0.1-0.1-0.2-0.1c-0.1,0.2-0.3,0.4-0.4,0.6c0.1,0,0.1,0.1,0.2,0.1
	C420.1,408,420.3,407.8,420.4,407.6z"/>
<g>
	<path class="st1" d="M490.7,390.8c-1.9-4.3-3.8-8.5-5.7-12.8c0.3-0.1,0.6-0.3,0.9-0.4c2.1,4.2,5.1,7.9,6.2,12.5
		C491.7,390.3,491.2,390.5,490.7,390.8z"/>
	<path class="st1" d="M480.1,389.5c3.4,0.8,6.8,1.5,10.3,2.3c-0.1,0.5-0.3,1-0.4,1.6c-3.4-0.9-6.8-1.9-10.1-2.8
		C479.9,390.2,480,389.9,480.1,389.5z"/>
	<path class="st1" d="M494.6,381.9c0.1,2.1,0.2,4.2,0.3,6.3c-0.4,0-0.8,0.1-1.2,0.1c-0.1-2.1-0.2-4.2-0.4-6.4
		C493.8,381.9,494.2,381.9,494.6,381.9z"/>
	<path class="st1" d="M491.4,395.2c-0.9,1.3-1.8,2.6-2.7,3.9c-0.3-0.2-0.6-0.4-0.9-0.6c0.9-1.3,1.8-2.6,2.7-3.9
		C490.8,394.8,491.1,395,491.4,395.2z"/>
</g>
<g>
	<path class="st1" d="M437,404.6c-0.6,0.1-0.8,0.6-1.1,1c-0.2,0.3-0.5,0.7-0.8,0.8c-0.7,0.3-1.5,0.4-1.6,1.4
		c-0.4-0.7-0.3-1.1,0.4-1.6c0.6-0.4,1-0.8,1.2-1.5c0.1-0.4,0.2-0.8,0.3-1.3c-1.5,0.4-3,0.8-4.5,1.1c0-0.1-0.1-0.2-0.1-0.3
		c1.4-0.7,2.7-1.4,4.1-2.2c-0.4-0.3-0.8-0.5-1.2-0.8c-0.5-0.4-1.1-0.4-1.8-0.3c-0.8,0.1-1.1-0.1-1.4-0.9c0.9,0.7,1.5,0.2,2.3-0.1
		c0.3-0.1,0.7,0,1.1,0.1s0.9,0.1,1.3,0.2c0-0.1,0-0.2,0.1-0.2c-1.4-0.8-2.9-1.7-4.3-2.5c0-0.1,0.1-0.2,0.1-0.3
		c1.6,0.5,3.2,1,4.8,1.5c0-0.6-0.4-0.8-0.8-1c-0.6-0.3-1-0.7-1.1-1.3c-0.1-0.7-0.6-1-1.2-1.3c0.6-0.4,1-0.2,1.5,0.4
		c0.3,0.4,0.7,0.7,1.2,1.1c0.2,0.1,0.5,0.1,0.7,0.2c0.3,0.1,0.6,0.2,0.9,0.3c-0.4-1.5-0.8-3-1.1-4.5c0.1,0,0.2-0.1,0.3-0.1
		c0.7,1.4,1.4,2.7,2.2,4.1c0.6-1,1.4-1.8,1.1-3.1c-0.2-0.7,0.1-1,0.9-1.2c-0.5,0.8-0.2,1.4,0.1,2.1c0.1,0.3,0,0.8,0,1.2
		c-0.1,0.5-0.3,0.9,0,1.4c0.9-1.5,1.7-2.9,2.6-4.4c0.1,0,0.2,0.1,0.3,0.1c-0.5,1.6-1,3.2-1.5,4.8c0.5,0,0.8-0.4,1-0.8
		c0.3-0.7,0.8-0.9,1.4-1.1c0.5-0.2,0.9-0.6,1.3-0.9c0.2,0.4,0.1,0.7-0.5,1.3c-0.4,0.4-0.9,0.9-1.2,1.4c-0.2,0.4-0.3,0.9-0.4,1.5
		c1.5-0.4,3-0.8,4.5-1.1c0,0.1,0.1,0.2,0.1,0.3c-1.4,0.7-2.7,1.4-4.1,2.2c0.4,0.3,0.7,0.5,1.1,0.8c0.6,0.4,1.2,0.4,1.8,0.3
		c0.8-0.1,1.1,0.1,1.4,0.7c-0.4,0-0.8-0.2-1.2-0.1c-0.4,0.1-0.7,0.4-1.1,0.4c-0.3,0.1-0.7,0-1-0.1c-0.5-0.1-0.9-0.4-1.4,0
		c1.5,0.9,2.9,1.7,4.3,2.6c0,0.1-0.1,0.2-0.1,0.3c-1.6-0.5-3.2-1-4.8-1.5c0,0.5,0.1,0.7,0.7,0.9c0.7,0.3,1,0.8,1.2,1.5
		c0.2,0.5,0.6,0.9,0.9,1.3c-0.2,0.2-0.4,0.2-0.8,0c-0.2-0.2-0.5-0.4-0.6-0.7c-0.4-0.6-1-1-1.7-1.1c-0.3-0.1-0.7-0.2-1-0.3
		c0.4,1.5,0.8,3,1.2,4.5c-0.1,0-0.2,0.1-0.2,0.1c-0.7-1.4-1.4-2.7-2.2-4.1c-0.3,0.4-0.7,0.8-0.8,1.3c-0.2,0.5-0.2,1.1-0.2,1.6
		c0,0.8-0.1,1.2-0.8,1.4c0.1-0.4,0.2-0.8,0.1-1.2c0-0.4-0.4-0.7-0.4-1.1c-0.1-0.3,0-0.7,0.1-1c0.1-0.5,0.4-0.9,0-1.5
		c-0.9,1.5-1.7,2.9-2.6,4.4c-0.1,0-0.2-0.1-0.3-0.1C436,407.8,436.5,406.2,437,404.6z M437.9,398.6c-0.6-0.6-0.8-0.6-1.3,0
		c-1.2,1.3-1.3,3.2-0.3,4.6c1.2,1.7,2.8,1.9,4.4,1.4c1.8-0.6,2.8-2.5,2.4-4.2c-0.4-1.9-2.1-3.2-3.9-3c-0.6,0-1.2,0.1-1.7,0.6
		C437.6,398.2,437.7,398.4,437.9,398.6z M446.6,401.5c-1.3,0.4-2.1-1-3.3-1.1c0,0.5,0,1,0,1.3c0.6,0.1,1.1,0.1,1.6,0.3
		C445.6,402.2,446.1,401.9,446.6,401.5z M437.2,397.6c-1-0.7-2.6-0.4-3.1-1.8c0.1,0.9,0.4,1.6,1.3,1.9c0.3,0.1,0.6,0.5,0.8,0.8
		C436.5,398.2,436.8,398,437.2,397.6z M444.5,395.9c-0.7,0-1.2,0.2-1.6,0.9c-0.2,0.4-0.6,0.8-1,1.2c0.2,0.3,0.5,0.6,0.9,1
		C443.6,398,443.2,396.5,444.5,395.9z M435.3,400.5c-0.5-0.1-1.1-0.1-1.5-0.2c-0.7-0.3-1.2-0.1-1.8,0.4c1.4-0.4,2.1,1,3.3,1.1
		C435.3,401.3,435.3,400.9,435.3,400.5z M438.8,405.1c0,0.4,0.1,0.9-0.1,1.2c-0.4,0.8-0.2,1.5,0.4,2.3c-0.2-1.1,0.1-1.8,0.7-2.6
		c0.2-0.2,0.3-0.6,0.4-1C439.6,405.1,439.1,405.1,438.8,405.1z M439.7,393.5c0.2,1-0.1,1.8-0.7,2.5c-0.2,0.3-0.3,0.7-0.4,1
		c0.6,0,1,0,1.4,0c0-0.4-0.1-0.8,0.1-1.2C440.4,395.1,440.3,394.4,439.7,393.5z M434.2,406.3c0.7-0.1,1.2-0.2,1.6-0.9
		c0.2-0.4,0.6-0.8,1-1.2c-0.2-0.3-0.6-0.6-0.9-1C435.1,404.2,435.4,405.7,434.2,406.3z M442.5,403.7c-0.3,0.3-0.6,0.6-1,0.9
		c0.9,0.7,2.5,0.4,3.1,1.8c-0.3-1-0.1-1.4-1.3-1.9C443,404.4,442.8,404,442.5,403.7z M432.2,397.8c0,0.1,0,0.1-0.1,0.2
		c1.1,0.6,2.2,1.2,3.3,1.8c0-0.1,0.1-0.1,0.1-0.2c-0.4-0.2-0.7-0.4-1.1-0.6c0,0,0-0.1,0.1-0.1c0.4,0.1,0.8,0.3,1.2,0.4
		c0-0.1,0-0.1,0.1-0.2C434.6,398.6,433.4,398.2,432.2,397.8z M437.3,405.9h-0.1c0.1-0.4,0.2-0.8,0.4-1.2c-0.1,0-0.2,0-0.3-0.1
		c-0.4,1.2-0.8,2.4-1.2,3.6c0.1,0,0.1,0,0.2,0.1c0.6-1.1,1.2-2.2,1.8-3.3c-0.1,0-0.1-0.1-0.2-0.1
		C437.7,405.2,437.5,405.6,437.3,405.9z M435.5,402.4c0-0.1-0.1-0.1-0.1-0.2c-1.1,0.6-2.3,1.1-3.4,1.7c0,0.1,0,0.1,0.1,0.2
		c1.2-0.3,2.4-0.7,3.7-1c0-0.1,0-0.2-0.1-0.2c-0.5,0.1-1.1,0.3-1.6,0.4l0,0C434.5,402.9,435,402.6,435.5,402.4z M443,399.2
		c0,0.1,0,0.2,0.1,0.2c0.6-0.2,1.1-0.3,1.7-0.5l0,0c-0.5,0.3-1,0.5-1.5,0.8c0,0.1,0.1,0.1,0.1,0.2c1.1-0.6,2.3-1.1,3.4-1.7
		c0-0.1,0-0.1-0.1-0.2C445.4,398.6,444.2,398.9,443,399.2z M441.5,396.2h0.1c-0.1,0.4-0.3,0.8-0.4,1.2c0.1,0,0.1,0,0.2,0.1
		c0.4-1.2,0.8-2.3,1.2-3.5c-0.1,0-0.1,0-0.2-0.1c-0.6,1.1-1.2,2.2-1.8,3.3c0.1,0,0.1,0.1,0.2,0.1C441.1,397,441.3,396.6,441.5,396.2
		z M442.9,402.9c0,0.1,0,0.2-0.1,0.2c1.2,0.4,2.4,0.8,3.6,1.2c0-0.1,0-0.1,0.1-0.2c-1.1-0.6-2.2-1.2-3.3-1.8c0,0.1-0.1,0.1-0.1,0.2
		c0.4,0.2,0.7,0.4,1.1,0.6v0.1C443.8,403.1,443.4,403,442.9,402.9z M436.7,393.8c-0.1,0-0.1,0.1-0.2,0.1c0.3,1.2,0.7,2.3,1,3.5
		c0.1,0,0.1,0,0.2-0.1c-0.1-0.5-0.2-0.9-0.4-1.4h0.1c0.2,0.4,0.4,0.9,0.6,1.3c0.1,0,0.1-0.1,0.2-0.1
		C437.8,396,437.2,394.9,436.7,393.8z M441.2,404.8c-0.1,0-0.1,0-0.2,0.1c0.1,0.5,0.3,0.9,0.4,1.4h-0.1c-0.2-0.4-0.5-0.9-0.7-1.3
		c-0.1,0-0.1,0.1-0.2,0.1c0.5,1.1,1.1,2.2,1.6,3.3c0.1,0,0.1,0,0.2-0.1C441.9,407.1,441.5,405.9,441.2,404.8z"/>
	<path class="st1" d="M439.9,402.1c0-0.1,0.1-0.3,0.2-0.4c0.3,0.1,0.4,0.1,0.3,0.5c-0.1,0.3-0.1,0.8,0.5,0.9c0.1,0,0.1,0.2,0.2,0.3
		l-0.1,0.2c-0.1,0-0.3-0.1-0.3-0.1C440.4,403,440.2,402.6,439.9,402.1z"/>
	<path class="st1" d="M439.8,400.1c-0.7-0.1-0.7-0.1-0.7-0.7c0-0.2-0.2-0.5-0.2-0.7c0-0.1,0-0.3,0.1-0.4h0.2c0,0.1-0.1,0.2,0,0.3
		c0,0.3,0.1,0.5,0.2,0.8C439.4,399.7,439.6,399.8,439.8,400.1z"/>
	<path class="st1" d="M440.9,398.9c0.2,0,0.3,0,0.4,0c-0.1,0.1-0.2,0.2-0.2,0.3c0.2,0.1,0.4,0.2,0.5,0.3c-0.1,0.1-0.2,0.2-0.3,0.3
		C441.2,399.5,441.1,399.2,440.9,398.9z"/>
	<path class="st1" d="M440,400.3c0.1-0.3,0.2-0.7,0.3-1c0.1,0,0.1,0,0.2,0.1c-0.1,0.3-0.3,0.6-0.4,1
		C440.1,400.3,440.1,400.3,440,400.3z"/>
	<path class="st1" d="M437.4,398.9c-0.2-0.2-0.3-0.3-0.5-0.5c0.2,0,0.3,0,0.5,0.1C437.4,398.6,437.4,398.8,437.4,398.9z"/>
	<path class="st1" d="M440.6,401.2c0.3,0.1,0.5,0.3,0.8,0.4c0,0.1-0.1,0.1-0.1,0.2c-0.3-0.1-0.5-0.3-0.8-0.4
		C440.6,401.3,440.6,401.2,440.6,401.2z"/>
	<path class="st1" d="M437.1,401.1c0.2,0.5,0.4,0.9,0.5,1.4C437.4,402,437.3,401.6,437.1,401.1z"/>
	<path class="st1" d="M442,401.8c-0.1-0.2-0.1-0.4-0.2-0.5l0,0c0.1,0.1,0.3,0.1,0.4,0.2C442.2,401.5,442.1,401.6,442,401.8z"/>
	<path class="st1" d="M441.7,400.9c0.1-0.1,0.3-0.1,0.4-0.2c0,0.1,0,0.1,0.1,0.2c-0.1,0.1-0.3,0.1-0.4,0.2
		C441.7,401,441.7,400.9,441.7,400.9z"/>
	<path class="st1" d="M438.3,401.3c0-0.1,0-0.3,0-0.4h0.1c0,0.1,0.1,0.2,0.1,0.4C438.4,401.3,438.3,401.3,438.3,401.3z"/>
	<path class="st1" d="M438.7,402c-0.1-0.1-0.2-0.2-0.3-0.3l0.1-0.1C438.6,401.7,438.7,401.8,438.7,402
		C438.7,401.9,438.7,402,438.7,402z"/>
</g>
<g>
	<path class="st1" d="M470.3,274.6c0-0.2,0-0.3-0.1-0.5c-0.6,0.4-0.6,1-0.5,1.5c0,2.3,0.7,4.4,1.4,6.6c0.5,1.6,1,3.2,1.4,4.8
		c0.3,1.1,0.1,1.5-0.6,2c0.1,0.6,0.4,1.1,0.4,1.7c0,0.4-0.1,0.9-0.4,1c-0.2,0.2-0.7,0-1-0.1s-0.5-0.4-0.7-0.6
		c-0.5-0.6-1.1-1-1.9-1.2c-0.4-0.1-0.9-0.6-1.1-1.1c-0.5-0.9-1.3-1.2-2.1-1.6c-0.9-0.3-1.8-0.7-2.4-1.3c-1.9-1.6-2.2-4-0.9-6.3
		c1.5-2.8,3.9-4.7,6.6-6.2c0.5-0.3,1.1-0.5,1.7-0.8c0.1-0.1,0.2-0.3,0.4-0.4c0.1-0.1,0.2-0.2,0.3-0.3c-0.1,0.2-0.2,0.4-0.3,0.6
		c0,0.1,0.2,0.2,0.2,0.2l0,0c0,0.6,0,1.2,0.1,1.8l0,0C470.4,274.5,470.4,274.5,470.3,274.6z M470.7,284.8c0.5-0.1,1-0.2,0.8-0.9
		c-0.7-2.5-1.5-5-2.2-7.6c0.1,0.1,0.1,0.2,0,0.3c-0.2,2.2-0.1,4.4,0.5,6.6C469.9,283.9,470,284.5,470.7,284.8c-0.1,0-0.2,0-0.4,0
		c0.2,0.6,0.4,1.2,0.6,1.8c0.1,0.2,0.5,0.5,0.6,0.5c0.2-0.2,0.6-0.5,0.6-0.7c0-0.5-0.2-1-0.2-1.2C471.3,285,471,284.9,470.7,284.8z
		 M463.1,282c1.1-0.7,1.3-1.7,1.6-2.7c0.4-1.3,1-2.5,1.7-3.6c0.6-0.9,1.5-1.5,2.5-1.9c-0.1,0.2-0.2,0.3-0.4,0.4
		c-2.3,1.4-3.2,3.6-3.8,6.1c-0.2,1.1,0,2,0.6,2.9c0.3-0.5,0.6-0.9,0.8-1.2c0.4,1.1,0.8,2.1,1.2,3.2c0.1,0,0.2,0,0.3-0.1
		c0-0.8,0.1-1.7,0.1-2.5c0-1.7-0.1-3.4,0.5-5c0.4-1,0.6-2,1-3.1c-1.9,2-3,4.2-2.9,6.9c-0.6-3.4,1.3-5.8,3.5-8
		c-0.5,0-0.9-0.1-1.2,0.1c-2.4,1.3-4.5,3-6.2,5.3c-0.1,0.1-0.2,0.3-0.1,0.4C462.6,280.1,462.9,281.1,463.1,282z M468,284.4
		c-0.1,0.6-0.1,1.1-0.2,1.9c-0.6-1.3-1.2-2.4-1.7-3.6c-0.5,0.7-0.5,1-0.3,1.7c0.1,0.3,0.2,0.7,0.2,1c0,1.3,1,2,1.8,2.7
		c0.5,0.4,1.2,0.5,1.9,0.8C469.9,287.2,468.7,285.9,468,284.4z M468.8,277.5c-0.7,2-0.9,4.6-0.5,6.4c0.1,0.6,0.2,1.6,1,1.4
		c0.8-0.2,0.4-1.1,0.3-1.7c-0.2-1.1-0.5-2.2-0.7-3.3C468.8,279.5,468.8,278.6,468.8,277.5z M463.4,284.7c0.4-2-1.3-3.4-1.3-5.2
		C460.5,281.8,461.1,283.7,463.4,284.7z M470.1,285.2c-0.4,0.2-0.7,0.4-1,0.6c0,0,0.1,0.1,0.1,0.2c0.4,1,1,2,0.8,3.2
		c-0.1,0.5,0.4,0.8,1,0.8s0.6-0.4,0.4-0.8C471,287.9,470.5,286.5,470.1,285.2z M465.6,285.7c0.2-1-0.3-2.7-1.3-4.3
		c-0.5,0.5-0.9,0.9-0.6,1.7c0.2,0.5,0.2,1.2,0.3,1.8C464.4,285.1,465,285.4,465.6,285.7z"/>
	<path class="st1" d="M474.4,281.8c-0.2,0.6-0.3,1.2-0.5,1.7c-0.2,0.6-0.7,0.7-1.1,0.2s-0.6-1-1-1.5c0.3,0.1,0.5,0.2,0.8,0.3
		c0-0.1,0.1-0.2,0.1-0.2c-0.3-0.2-0.7-0.3-1.2-0.5c0.1,0.2,0.2,0.3,0.2,0.4c-0.3-0.5-0.6-1.1-0.8-1.7c-0.2-1-0.4-1.9-0.5-2.9
		c-0.1-0.5-0.1-1-0.1-1.5c0.1,0,0.2,0,0.3,0c1.2,1.1,2.4,0.9,3.3-0.4c0.1,0,0.2-0.1,0.3-0.1c0.1,0.9,0.2,1.9,0.3,2.8
		c0.1,0.9,0.1,1.9,0.1,2.8C474.7,281.3,474.5,281.6,474.4,281.8c0-0.1,0.1-0.3,0.2-0.6c-0.4,0.4-0.7,0.6-1,0.9
		c0.1,0.1,0.1,0.1,0.2,0.2C474,282.2,474.2,282,474.4,281.8z M473.6,277.4c-0.1,0-0.1-0.1-0.2-0.1c-0.2,0.3-0.3,0.5-0.5,0.8
		c0.1,0,0.1,0.1,0.2,0.1C473.3,277.9,473.4,277.6,473.6,277.4z M471.6,277.5c-0.1,0-0.1,0.1-0.2,0.1c0.2,0.2,0.4,0.4,0.6,0.6
		c0.1-0.1,0.1-0.1,0.2-0.2C472,277.9,471.8,277.7,471.6,277.5z"/>
	<path class="st1" d="M474,275.6c-0.9,1.4-2.1,1.5-3.3,0.4c0-0.5-0.1-1.1-0.1-1.6l0,0c0.1-0.6,0.5-1.2-0.1-1.8l0,0
		c0.2-0.2,0.4-0.5,0.6-0.7c0.1-0.2,0.1-0.4,0.2-0.7c-0.4,0.3-0.6,0.5-0.8,0.6c-0.1,0.1-0.2,0.2-0.3,0.3c-0.1-1,0-1.8,0.9-2.4
		c0.5-0.4,1.6-0.1,2,0.6c0.2,0.4,0.3,0.9,0.4,1.3c-0.1,0-0.2-0.1-0.4-0.1c-0.3-0.1-0.6-0.2-0.9-0.3c-0.1,0.1-0.2,0.3-0.3,0.4
		c0.5,0.2,1,0.5,1.4,0.7l0,0c-0.5,0.7,0.1,1.2,0.4,1.8l0,0C473.8,274.6,473.9,275.1,474,275.6z M472.1,275.4c0.9-1.3,0.9-2.5,0-3.3
		c-0.1-0.1-0.6-0.1-0.6,0c-0.2,0.4-0.5,1-0.4,1.4C471.3,274.1,471.7,274.7,472.1,275.4z M471.3,276c0-0.1,0.1-0.1,0.1-0.2
		c-0.2-0.1-0.3-0.2-0.5-0.3c0,0.1-0.1,0.1-0.1,0.2C470.9,275.8,471.1,275.9,471.3,276z"/>
	<path class="st1" d="M469.9,269.4c-0.3-0.1-0.7-0.2-1-0.3c0-0.1,0-0.1,0-0.2c0.3,0.1,0.7,0.2,1,0.3
		C469.9,269.3,469.9,269.3,469.9,269.4z"/>
	<path class="st1" d="M472,272.3c0,0.3,0.1,0.5,0.1,0.8h-0.2c-0.1-0.2-0.1-0.5-0.2-0.7C471.8,272.3,471.9,272.3,472,272.3z"/>
	<path class="st1" d="M472.1,273.9c0,0.3,0.1,0.5,0.1,0.8c-0.1,0-0.1,0-0.2,0c-0.1-0.2-0.2-0.5-0.2-0.7
		C471.9,274,472,274,472.1,273.9z"/>
</g>
</svg>
