<?xml version="1.0" encoding="utf-8"?>
<!-- Generator: Adobe Illustrator 26.0.3, SVG Export Plug-In . SVG Version: 6.00 Build 0)  -->
<svg version="1.1" id="Calque_1" xmlns="http://www.w3.org/2000/svg" xmlns:xlink="http://www.w3.org/1999/xlink" x="0px" y="0px"
	 viewBox="0 0 788 1005.1" style="enable-background:new 0 0 788 1005.1;" xml:space="preserve">
<style type="text/css">
	.st0{fill:#90573A;}
	.st1{fill:none;stroke:#383434;stroke-width:5;stroke-linecap:round;stroke-miterlimit:10;}
	.st2{fill:#383434;}
	.st3{fill:#7F4C36;}
	.st4{fill:#47B2C4;}
	.st5{fill:#ED5875;}
</style>
<path class="st0" d="M545.8,350.1l-84.3,84.8c-1.4,1.4-3.2,2.5-5.1,2.9c-8.2,1.9-6.2-3.9-5.1-6.2c0.2-0.4,0.4-0.8,0.7-1.2
	c3.8-6,55.8-90.9,57.5-92.8c1.6-1.7,7-8.2,9-10.6c0.5-0.6,1.1-1.2,1.7-1.7l0.4-0.4c6.6-5.6,16.3-5.6,23-0.1l0,0
	c6.7,5.6,8.5,15.2,4.1,22.8l0,0C547.1,348.4,546.5,349.2,545.8,350.1z"/>
<path class="st0" d="M472,424.4c-0.2-0.2-13.7-3.4-13.7-3.4c-0.1,0-0.3,0-0.4-0.1c-1.5-0.8-11.3-5.5-13.2-5.5h-9.6
	c-3.6,0-6.9,2.1-8.6,5.3c-0.3,0.6-0.6,1.1-0.8,1.2l-7.3,5.8l-0.2,0.2c-0.6,0.4-0.8,1.2-0.6,1.9c0.2,0.7,0.7,1.4,1.8,1.9
	c0.1,0.1-0.4,1.6,1,2.6c0.4,0.3,0.7,0.7,0.8,1.1c0.1,0.7,0.5,1.8,1.8,2.4c0.5,0.3,0.9,0.8,1,1.4c0.2,1.1,0.7,2.7,2.6,3.7
	c4.5,0.3,9.5-1.1,9.8-1.2c4.6-1.6,3.2-4.7,5.6-6.1c0.4-0.2,1-0.1,1.2,0.3l1,4.5c2.3,5.5,14,8.6,20.1-4.9
	C467.1,430.3,472,424.4,472,424.4z"/>
<path class="st0" d="M169,247.1c0.8-0.3,1.5-0.6,2-1.2c2.5-3,10.4-12.2,11.1-14.3c0.7-2.6,2.4-14.2,3.3-16.2
	c0.9-2,9.1-11.7,7.9-12.5c-0.7-0.5-2.7-1.4-4.3-2.2c-1.5-0.7-3.3-0.5-4.4,0.7l-5.3,4.9c-0.4,0.4-0.8,1-1,1.4l-1.8,4.7
	c-0.8,2.1-3.8,1.9-4.3-0.3l0.2-3.5c-0.1-0.2-3.6-7.1-3.6-7.2c-1.6-3-8.5-0.9-8.5-0.9c-0.1-0.1-5.7,1.8-7.7,2.5
	c-0.5,0.2-1,0.4-1.5,0.6l-4.4,2c-3.8,1.7-6.9,4.5-8.9,8.1c-0.8,1.7-1.4,3.2-0.8,4.2c0.2,0.2,0.3,0.6,0.3,0.9l8.8,26.6
	c0.2,0.9,0.9,1.6,1.5,2.1l3.9,2.7c1,0.6,2.2,0.8,3.3,0.6L169,247.1z"/>
<g>
	<line class="st1" x1="154.5" y1="218.7" x2="582.6" y2="218.7"/>
	<path class="st2" d="M580.2,258.5l13.9-6.4c2.3-1.1,3.7-3.5,3.5-6c-0.8-8.6-2.7-27.4-5.4-28.9c-2.4-1.4-9.9-1.1-13.7-0.9
		c-1.5,0.1-0.9,2.3-0.9,2.3s8.6-1.2,7.9,1.9l-11.7,31.9C572.2,256.5,576.3,260.3,580.2,258.5z"/>
</g>
<path class="st0" d="M168.1,220.2l-13.6,5.6c-4.2,1.7-9.1-0.3-10.9-4.6l0,0c-1.7-4.2,0.3-9.1,4.6-10.9l13.6-5.6
	c4.2-1.7,9.1,0.3,10.9,4.6l0,0C174.4,213.6,172.3,218.5,168.1,220.2z"/>
<rect x="355.9" y="166.5" class="st3" width="39.5" height="47.4"/>
<path class="st4" d="M542.9,322.7l-58.6-50.1l-19.2-20.4c-4.2-4.5-9.4-8.1-15-10.6l-43.5-19.2c-4.1-1.8-6.9-5.6-7.4-10.1l-0.5-4.9
	c-0.4-3.5-3.4-6.2-6.9-6.2l-32.8-0.3c-4.2,0-7.3,3.6-6.9,7.8c0.5,5.5-2.6,10.5-7.4,12.6L304,238.9c-8.8,3.8-16.2,10.2-21.1,18.4
	l-14.2,23.2l-43.6,52.7c-6.2,7.5-5.2,18.6,2.3,24.8c7.5,6.2,18.6,5.2,24.9-2.3c0.1-0.1,0.2-0.2,0.2-0.3l54.6-58.1
	c0.1,0.6,0.1,1.2,0.1,1.8l0.6,67c0,0.1,0,0.1,0,0.2c0.1,10-21.2,102.5-20.9,111.4c0.3,8.1,1.6,15.3,5.5,16.5
	c0.4,0.2,16.3,4.2,33.5,13c21.5,11,73.4,13.4,95.7,4.3c17.2-7,42.6-9.9,46.3-12.4c8.9-0.5-8.8-72.1-9.9-79.6
	c-0.1-0.6-15-64.6-15-65.3l-0.1-51.9l76.9,49.7c8.2,6,19.7,4.4,25.9-3.8C551.6,340.3,550.4,329.1,542.9,322.7z"/>
<path class="st4" d="M540.4,320.6c0,0,10,8.6,7.2,10.6s-40,8.5-41.7,11.9s0,0,0,0l2-25.1L540.4,320.6z"/>
<polygon class="st5" points="443,347.9 307.7,372 307.4,318 443,318 "/>
<polygon class="st5" points="291.1,314.1 255.8,296.4 269.9,278.7 300.4,304.4 "/>
<polygon class="st0" points="179.9,255.8 166.4,241.6 147.8,247.7 174.5,278.9 "/>
<path class="st0" d="M223.7,352.5l-63-90.2c-0.4-0.5,6.5-19.6,6.5-19.6c0.1,0.3,75.9,75.3,77.5,77.6c1.4,2.2,8,10.6,8.9,12
	c0.2,0.2,0.2,0.3,0.2,0.4l0.7,1.4c3.9,7.7,1.7,17.2-5.1,22.4l0,0c-6.9,5.3-16.8,4.7-23.2-1.2l0,0
	C225.5,354.5,224.4,353.3,223.7,352.5z"/>
<path class="st0" d="M174.6,241.6c0,0-4.4,4.2,1.5,10c5.9,5.8-5.7,8.1-5.7,8.1l-8.7-15.4L174.6,241.6z"/>
</svg>
