<?xml version="1.0" encoding="utf-8"?>
<!-- Generator: Adobe Illustrator 26.0.3, SVG Export Plug-In . SVG Version: 6.00 Build 0)  -->
<svg version="1.1" id="Calque_1" xmlns="http://www.w3.org/2000/svg" xmlns:xlink="http://www.w3.org/1999/xlink" x="0px" y="0px"
	 viewBox="0 0 788 1005.1" style="enable-background:new 0 0 788 1005.1;" xml:space="preserve">
<style type="text/css">
	.st0{fill:#C9C9C9;}
	.st1{fill:#375D63;}
	.st2{fill:#90573A;}
	.st3{fill:#D3D3D3;}
	.st4{fill:#7F4C36;}
	.st5{fill:#353535;}
	.st6{fill:#B7B7B7;}
</style>
<polygon points="407.7,664 407.8,664 407.7,663.9 "/>
<polygon points="407.8,664 407.9,664 407.9,663.9 "/>
<polygon points="407.7,664 407.8,664 407.7,663.9 "/>
<polygon points="407.8,664 407.9,664 407.9,663.9 "/>
<path d="M407.4,664.3h0.1H407.4z"/>
<path d="M407.5,664.3L407.5,664.3L407.5,664.3z"/>
<path d="M407.4,664.3h0.1H407.4z"/>
<path d="M407.5,664.3L407.5,664.3L407.5,664.3z"/>
<polygon class="st0" points="403.5,235.5 344.1,235.5 342.7,210.6 405.2,209.4 "/>
<g id="Calque_1_00000180352489093704844010000013830218214247062939_">
	<path class="st1" d="M455.1,500.2c-23.3,2.5-52.5,10-77.8,18.3c0,0-11.5,0.5-10.8-0.1l-78.8-16.6l13.9-58.4
		c1.1-10.7,10.1-18.8,20.8-18.8h99.9c11,0,20.1,8.5,20.8,19.4L455.1,500.2z"/>
</g>
<polygon class="st2" points="353.2,182.9 392.7,182.9 392.7,236.5 371,278 353.2,236.5 "/>
<path class="st3" d="M504.4,345.7c-0.4-0.9-0.9-1.7-1.2-2.6l-17.1-41.4c-1.7-4.9-4.1-9.6-7.1-14l-10.9-16.1
	c-4.4-6.5-10.8-11.6-18.4-14.7l-51.3-20.7L372,289.8l-25.9-54.6L293,256.7c-7.9,3.2-14.5,8.6-18.9,15.5l-7.2,11.2
	c-5.9,9.2-10.6,18.9-14.2,29l-13.7,34c-4.4,10.4-4.2,19.9,3.7,26.1c8,6.2,19.9,5.2,26.6-2.3c0.1-0.1,0.2-0.2,0.2-0.3l35.2-47.7
	l26.4,30c0.1,7.9-32.7,51.8-33.7,59.6l-22.8,108.6c-1.2,9.4,5.5,18,15.3,20c0,0,62.5,13.7,81,14.4c19.1,0.7,84.4-9.5,84.4-9.5
	c0.1,0,0.2,0,0.2,0c10.7-1.5,18-10.7,16.5-20.7l-26.4-113.9c-1.5-9.4-27.7-39.2-27.6-48.6c0.2-22.1,25.6-39,25.6-39l27.9,47.7
	c7.4,7.4,19.9,8,27.9,1.2C507.2,365.5,509.1,355.6,504.4,345.7z"/>
<polygon class="st4" points="353.2,182.9 392.7,182.9 392.5,211.9 353.2,216.7 "/>
<path class="st3" d="M342.7,210.6l-8.9,19.8l-44.9,27.9l22.5,84.3c1.4,5.2,3.7,10.1,6.7,14.5l3.5,5l100.8,1.5l5.2-7.5
	c2.8-4.1,5-8.7,6.3-13.5l23.4-82.5l-47.7-29.7l-4.4-21l-34.1,64.5L342.7,210.6z"/>
<path class="st5" d="M424.2,380.7H320.1c-2.2,0-4.1-1.6-4.1-3.7v-11.2c0-2,1.8-3.7,4.1-3.7h104.1c2.2,0,4.1,1.6,4.1,3.7V377
	C428.1,379,426.4,380.7,424.2,380.7z"/>
<path class="st5" d="M381.7,381.7h-11.8c-3.8,0-6.9-3.1-6.9-6.9v-8.3c0-3.8,3.1-6.9,6.9-6.9h11.8c3.8,0,6.9,3.1,6.9,6.9v8.3
	C388.7,378.6,385.6,381.7,381.7,381.7z"/>
<path class="st5" d="M372.1,371.4l-29.3,32.5c-1.5,1.6-1.4,4.1,0.2,5.6l5.1,4.9c1.7,1.7,4.5,1.4,6-0.5l25.4-33.9l-10.7-1.3
	l15.3,29.1c1.1,2.1,3.9,2.8,5.9,1.4l5.6-3.9c1.7-1.2,2.2-3.5,1.2-5.3l-18.9-32.6L372.1,371.4z"/>
<g>
	<path class="st6" d="M405,209.5c-24.9,51-51.2,101.9-78.5,151.6C351.4,310.1,377.7,259.2,405,209.5L405,209.5z"/>
</g>
<g>
	<path class="st6" d="M289.1,258.8c7.8,24.6,14.4,48.8,19.5,74C300.8,308.3,294.3,284.1,289.1,258.8L289.1,258.8z"/>
</g>
<g>
	<path class="st6" d="M457.2,260.8c-5.1,24.7-12.5,47.6-20.3,71.6C442,307.9,449.4,284.8,457.2,260.8L457.2,260.8z"/>
</g>
<path class="st2" d="M360.4,334.3l-15.1,0.5l-87.3,6c-1,0.1-2.1,0.3-3,0.6l0,0c-8.2,2.2-13.6,9.8-12.7,17.9c0.8,8,7.5,14.4,15.8,15
	l1.7,0.2c0,0,11.9-1.2,14.6-1.3c2.6-0.1,66.3-15.1,72.8-16.6c0.3-0.1,12.3-3.6,19.7-5.1L360.4,334.3z"/>
<path class="st2" d="M384.7,334.1l14.9,0.4l87.6,5.4l1.4,0.5c8,2.1,13.4,9.5,12.6,17.5c-0.7,7.9-7.2,14.2-15.5,14.9L484,373
	c0,0-11.7-1.1-14.4-1.2c-2.6-0.1-65.5-14.4-71.8-15.8c-0.3-0.1-12.1-3.5-19.5-4.9L384.7,334.1z"/>
<path class="st2" d="M383.5,318.5c4.3-0.8,14.7,7.8,15.3,8.5c2.4,2.4,8.3,8.8,9.7,13c0.3,1-1,16.3-1.9,16.3s-24.1,0.6-25.6,0
	c-5-1.9-7.2-4-7.6-4.4c-4-4-0.1-10.5,0-16.7c0-3.2,1.1-6.4,3.1-8.8C379.2,322.9,380.2,320.3,383.5,318.5z"/>
<path class="st2" d="M376.1,326.4c2,2.5,3.1,5.6,3.1,8.8c0.1,6.2,4,12.7,0,16.7c-0.4,0.4-2.8,2.5-7.6,4.4c-1.5,0.6-24.8,0-25.6,0
	s-2.2-15.3-1.9-16.3c1.4-4.2,7.3-10.6,9.7-13c0.7-0.6,11-9.3,15.3-8.5C372.4,320.3,373.4,322.9,376.1,326.4z"/>
</svg>
