<?xml version="1.0" encoding="utf-8"?>
<!-- Generator: Adobe Illustrator 26.0.3, SVG Export Plug-In . SVG Version: 6.00 Build 0)  -->
<svg version="1.1" id="Calque_1" xmlns="http://www.w3.org/2000/svg" xmlns:xlink="http://www.w3.org/1999/xlink" x="0px" y="0px"
	 viewBox="0 0 588 328.3" style="enable-background:new 0 0 588 328.3;" xml:space="preserve">
<style type="text/css">
	.st0{fill:#C9C9C9;}
	.st1{fill:#375D63;}
	.st2{fill:#90573A;}
	.st3{fill:#D3D3D3;}
	.st4{fill:#7F4C36;}
	.st5{fill:#353535;}
	.st6{fill:#B7B7B7;}
</style>
<polygon class="st0" points="323.6,52.9 264.2,52.9 262.8,28 325.3,26.8 "/>
<g id="Calque_1_00000180352489093704844010000013830218214247062939_">
	<path class="st1" d="M375.2,317.6c-23.3,2.5-52.5,10-77.8,18.3c0,0-11.5,0.5-10.8-0.1l-78.8-16.6l13.9-58.4
		c1.1-10.7,10.1-18.8,20.8-18.8h99.9c11,0,20.1,8.5,20.8,19.4L375.2,317.6z"/>
</g>
<polygon class="st2" points="273.3,0.3 312.8,0.3 312.8,53.9 291.1,95.4 273.3,53.9 "/>
<path class="st3" d="M424.5,163.1c-0.4-0.9-0.9-1.7-1.2-2.6l-17.1-41.4c-1.7-4.9-4.1-9.6-7.1-14L388.2,89
	c-4.4-6.5-10.8-11.6-18.4-14.7l-51.3-20.7l-26.4,53.6l-25.9-54.6l-53.1,21.5c-7.9,3.2-14.5,8.6-18.9,15.5l-7.2,11.2
	c-5.9,9.2-10.6,18.9-14.2,29l-13.7,34c-4.4,10.4-4.2,19.9,3.7,26.1c8,6.2,19.9,5.2,26.6-2.3c0.1-0.1,0.2-0.2,0.2-0.3l35.2-47.7
	l26.4,30c0.1,7.9-32.7,51.8-33.7,59.6l-22.8,108.6c-1.2,9.4,5.5,18,15.3,20c0,0,62.5,13.7,81,14.4c19.1,0.7,84.4-9.5,84.4-9.5
	c0.1,0,0.2,0,0.2,0c10.7-1.5,18-10.7,16.5-20.7l-26.4-113.9c-1.5-9.4-27.7-39.2-27.6-48.6c0.2-22.1,25.6-39,25.6-39l27.9,47.7
	c7.4,7.4,19.9,8,27.9,1.2C427.3,182.9,429.2,173,424.5,163.1z"/>
<polygon class="st4" points="273.3,0.3 312.8,0.3 312.6,29.3 273.3,34.1 "/>
<path class="st3" d="M262.8,28l-8.9,19.8L209,75.7l22.5,84.3c1.4,5.2,3.7,10.1,6.7,14.5l3.5,5l100.8,1.5l5.2-7.5
	c2.8-4.1,5-8.7,6.3-13.5l23.4-82.5l-47.7-29.7l-4.4-21l-34.1,64.5L262.8,28z"/>
<path class="st5" d="M344.3,198.1H240.2c-2.2,0-4.1-1.6-4.1-3.7v-11.2c0-2,1.8-3.7,4.1-3.7h104.1c2.2,0,4.1,1.6,4.1,3.7v11.2
	C348.2,196.4,346.5,198.1,344.3,198.1z"/>
<path class="st5" d="M301.8,199.1H290c-3.8,0-6.9-3.1-6.9-6.9v-8.3c0-3.8,3.1-6.9,6.9-6.9h11.8c3.8,0,6.9,3.1,6.9,6.9v8.3
	C308.8,196,305.7,199.1,301.8,199.1z"/>
<path class="st5" d="M292.2,188.8l-29.3,32.5c-1.5,1.6-1.4,4.1,0.2,5.6l5.1,4.9c1.7,1.7,4.5,1.4,6-0.5l25.4-33.9l-10.7-1.3
	l15.3,29.1c1.1,2.1,3.9,2.8,5.9,1.4l5.6-3.9c1.7-1.2,2.2-3.5,1.2-5.3L298,184.8L292.2,188.8z"/>
<g>
	<path class="st6" d="M325.2,26.9c-24.9,51-51.2,101.9-78.5,151.6C271.6,127.5,297.9,76.6,325.2,26.9L325.2,26.9z"/>
</g>
<g>
	<path class="st6" d="M209.2,76.2c7.8,24.6,14.4,48.8,19.5,74C220.9,125.7,214.4,101.5,209.2,76.2L209.2,76.2z"/>
</g>
<g>
	<path class="st6" d="M377.3,78.2c-5.1,24.7-12.5,47.6-20.3,71.6C362.1,125.3,369.5,102.2,377.3,78.2L377.3,78.2z"/>
</g>
<path class="st2" d="M280.5,151.7l-15.1,0.5l-87.3,6c-1,0.1-2.1,0.3-3,0.6l0,0c-8.2,2.2-13.6,9.8-12.7,17.9c0.8,8,7.5,14.4,15.8,15
	l1.7,0.2c0,0,11.9-1.2,14.6-1.3c2.6-0.1,66.3-15.1,72.8-16.6c0.3-0.1,12.3-3.6,19.7-5.1L280.5,151.7z"/>
<path class="st2" d="M304.8,151.5l14.9,0.4l87.6,5.4l1.4,0.5c8,2.1,13.4,9.5,12.6,17.5c-0.7,7.9-7.2,14.2-15.5,14.9l-1.7,0.2
	c0,0-11.7-1.1-14.4-1.2c-2.6-0.1-65.5-14.4-71.8-15.8c-0.3-0.1-12.1-3.5-19.5-4.9L304.8,151.5z"/>
<path class="st2" d="M303.6,135.9c4.3-0.8,14.7,7.8,15.3,8.5c2.4,2.4,8.3,8.8,9.7,13c0.3,1-1,16.3-1.9,16.3s-24.1,0.6-25.6,0
	c-5-1.9-7.2-4-7.6-4.4c-4-4-0.1-10.5,0-16.7c0-3.2,1.1-6.4,3.1-8.8C299.3,140.3,300.3,137.7,303.6,135.9z"/>
<path class="st2" d="M296.2,143.8c2,2.5,3.1,5.6,3.1,8.8c0.1,6.2,4,12.7,0,16.7c-0.4,0.4-2.8,2.5-7.6,4.4c-1.5,0.6-24.8,0-25.6,0
	s-2.2-15.3-1.9-16.3c1.4-4.2,7.3-10.6,9.7-13c0.7-0.6,11-9.3,15.3-8.5C292.5,137.7,293.5,140.3,296.2,143.8z"/>
</svg>
