<svg id="Calque_9" data-name="Calque 9" xmlns="http://www.w3.org/2000/svg" viewBox="0 0 388 454.83"><defs><style>.cls-1{fill:#90573a;}.cls-2{fill:#5e6d70;}.cls-3{fill:#83b5c6;}.cls-4{fill:#6999aa;}.cls-5,.cls-8{fill:none;stroke-linecap:round;stroke-miterlimit:10;stroke-width:2px;}.cls-5{stroke:#69a;}.cls-6{fill:#87b6c7;}.cls-7{fill:#69a;}.cls-8{stroke:#6399aa;}.cls-9{fill:#d7a253;}</style></defs><path class="cls-1" d="M267.22,348.3c2.37,1.5,15.6,39.29,18.2,36.74S295.9,384,297.07,385s3.56-10.64,3.56-10.64l-7.47-21-26.22-8.54"/><path class="cls-2" d="M155.27,243.18c1.94,10.82,9.71,18.59,18.2,18.2h0c8.11-.38,14.55-8.13,15.38-18.5,0,0,3.9-73.81,2.35-100.09-.37-6.22-3.24-24.74-3.24-24.74L181.14,75s-4.11-20.26-21-21.65C140.66,51.7,141.22,65.1,141.22,65.1s-1.56,69.3.11,91.09C142.88,176.28,155.27,243.18,155.27,243.18Z"/><path class="cls-1" d="M171,224.73c-9.18.82-14.21,6.25-15,14.48,0,0,1,36.4,1.75,51.71,1.26,24.54,7.44,74.38,13,98.28,1.23,5.23,4.18,21.1,4.18,21.1a8.91,8.91,0,0,0,9.55,7.42h0a8.93,8.93,0,0,0,7.63-9.19s-.43-18.54-.23-24.72c.73-22.37,5-67,4-89.43-.58-13.48-5.94-54.51-5.94-54.51-1.92-13.47-11.09-15.54-19-15.14Z"/><path class="cls-3" d="M184.33,402h0a10.9,10.9,0,0,0-9.62,6.64h0c-4,8.94-20.83,20.91-20.83,20.91a11.31,11.31,0,0,0-3.79,10.6h0l41.09-.24,2.31-.75a6.18,6.18,0,0,0,4.1-6.5L195.23,411A11.07,11.07,0,0,0,184.33,402Z"/><path class="cls-4" d="M151.27,439.92h0a6.47,6.47,0,0,1,5.13-7.51l24.44-3.92a6.15,6.15,0,0,1,6.86,4.91l1.41,6.16Z"/><path class="cls-5" d="M175,410.47s3-2.73,5.82-3a14,14,0,0,1,7,1.6"/><path class="cls-5" d="M172.39,415.55s3.06-2.65,5.89-2.83a14.08,14.08,0,0,1,6.93,1.8"/><path class="cls-6" d="M295.32,380.39c-4.57,1.24-6.87-2.06-9.62-2.7-1.66-.38-5.92,1.2-5.33,2.91,6.77,19.74-23.81,46-23.81,46-.75,4.83,2.25,4.05,5.82,7.34h0s23.68-7.36,28.71-12.93c2.57-2.84,22.3-18.33,22.3-18.33s10.69-8.26,6.3-12.28L301.52,370.3C296.56,366.07,303.18,378.26,295.32,380.39Z"/><path class="cls-7" d="M259.22,439.92c-5.39-5.69-4.22-12.81-3.18-13.39,1.5-.85,4.9,1.25,6.51,1.89,5.56,2.21,16.09-3.89,16.09-3.89,1,.85,35.73-20.51,41.05-34.08l.52,4.55-37.89,36.91C264.9,442,259.22,439.92,259.22,439.92Z"/><path class="cls-8" d="M293.16,407.57a17.88,17.88,0,0,1-6.09,2"/><path class="cls-8" d="M297.07,411.77a18.49,18.49,0,0,1-6,2.52"/><path class="cls-9" d="M139.46,5.94,128.4,82.39,149,238l17.1,162.33,42.05-1.72L196,244.25,193,91.56l3,152.69L264.56,387.5l37-26.13c-4.26-15.18-59.79-136.68-59.79-136.68L263.17,82.82l-17.65-84L139.46,5.94"/></svg>