<svg id="Calque_9" data-name="Calque 9" xmlns="http://www.w3.org/2000/svg" viewBox="0 0 388 454.83"><defs><style>.cls-1{fill:#5e6d70;}.cls-2{fill:#423632;}.cls-3{fill:#9e6754;}.cls-4{fill:#83b5c6;}.cls-5{fill:#6999aa;}.cls-6,.cls-9{fill:none;stroke-linecap:round;stroke-miterlimit:10;stroke-width:2px;}.cls-6{stroke:#69a;}.cls-7{fill:#87b6c7;}.cls-8{fill:#69a;}.cls-9{stroke:#6399aa;}</style></defs><path class="cls-1" d="M134.37,240.66c1.21,10.93,8.45,19.2,16.94,19.37h0c8.12.16,15.06-7.14,16.58-17.43,0,0,8.81-73.38,9-99.72,0-6.23-1.58-24.89-1.58-24.89l-3.93-43.45s-2.75-20.49-19.52-23C132.55,48.63,132.22,62,132.22,62s-6.18,69.05-6,90.9C126.46,173.08,134.37,240.66,134.37,240.66Z"/><path class="cls-2" d="M272.24,232.51c.76,11-4.87,20.41-13.19,22.1h0c-8,1.61-16.1-4.32-19.44-14.17,0,0-21.83-70.62-26.76-96.48-1.16-6.13-2.91-24.78-2.91-24.78L206,75.73s-1-20.65,15.08-26.13c18.48-6.32,28.8,1.52,28.8,1.52s10.88,72.1,14.59,93.64C267.9,164.61,272.24,232.51,272.24,232.51Z"/><path class="cls-3" d="M151.25,223.3c-9.22.2-14.6,5.28-16,13.44,0,0-1.46,36.39-1.7,51.71C133.18,313,136,363.16,140,387.38c.88,5.31,2.76,21.33,2.76,21.33a8.93,8.93,0,0,0,9,8.05h0a8.94,8.94,0,0,0,8.23-8.66s.8-18.54,1.41-24.68c2.22-22.28,4.68-74,5.2-96.45.31-13.48,2.51-47.31,2.51-47.31-1-13.56-10-16.24-17.93-16.36Z"/><path class="cls-3" d="M256.44,215.66c9.12-1.34,5.24-18.58,7.76-10.62,0,0,17.7,132.43,20.09,147.78,3.84,24.62,7.4,47.48,7.4,47.48.07,4.9,4.47,10.53,0,11.06l-8.54-1.3c-4.39.53-9.78-1.46-10.71-6.15,0,0-19.16-94.52-22.83-116.94-2.21-13.49-8.54-51.86-8.54-51.86-.91-13.8,7.6-18,15.37-19.45Z"/><path class="cls-4" d="M149.53,400.31h0a10.92,10.92,0,0,0-9.62,6.63h0c-4,8.94-20.83,20.92-20.83,20.92a11.3,11.3,0,0,0-3.79,10.59h0l41.09-.23,2.31-.75a6.18,6.18,0,0,0,4.1-6.5l-2.36-21.7A11.07,11.07,0,0,0,149.53,400.31Z"/><path class="cls-5" d="M116.47,438.24h0a6.47,6.47,0,0,1,5.13-7.51L146,426.81a6.14,6.14,0,0,1,6.86,4.9l1.41,6.16Z"/><path class="cls-6" d="M140.87,408.9s3.17-2.53,6-2.6a13.87,13.87,0,0,1,6.84,2.06"/><path class="cls-6" d="M138,413.79s3.23-2.44,6.07-2.43a14,14,0,0,1,6.79,2.25"/><path class="cls-7" d="M281.57,405.58c4.24-2.12,3.75-6.12,5.38-8.42,1-1.39,5.21-3.05,5.91-1.38,8.1,19.23,42.79,28.38,42.79,28.38,3.78,3.11,4.8,7.64,4.32,12.46h0s-29.75,11-45.67.46c-3.19-2.1-11.33-2.8-11.33-2.8s-14.52.55-13.92-5.38l1.17-26.72C271.11,395.72,274.29,409.22,281.57,405.58Z"/><path class="cls-8" d="M340.32,436.56c.23-7.83-3.45-12.54-4.61-12.28-1.69.36-4.32,2.3-6,2.77-2.65.74-10.82.34-10.82.34-2.09-.16-3.7,2.6-3.7,6.35l.2,7.49s5,.6,16.63-2.28C334,438.48,340.32,436.56,340.32,436.56Z"/><path class="cls-9" d="M297.72,405.79a17.88,17.88,0,0,1-6,2.2"/><path class="cls-9" d="M301.75,409.88a18.41,18.41,0,0,1-5.9,2.69"/><rect class="cls-2" x="134.85" y="-8.81" width="109.24" height="23.41"/><path class="cls-2" d="M138.7,378.08l23.28.59c-.48-4.36,26.24-261.14,26.24-261.14h0s37.33,115.17,40.61,123.73,38,139.28,38,139.28h0l20.6-4.64L273.7,235.2l-1.39-12.8L249.89,51.12,244.37,2.89s-103.82-17-103.82-6.2S115.67,86.2,115.15,106.3c-1.58,60.9,23.55,271.78,23.55,271.78"/></svg>