<?xml version="1.0" encoding="utf-8"?>
<!-- Generator: Adobe Illustrator 26.0.1, SVG Export Plug-In . SVG Version: 6.00 Build 0)  -->
<svg version="1.1" id="Calque_9" xmlns="http://www.w3.org/2000/svg" xmlns:xlink="http://www.w3.org/1999/xlink" x="0px" y="0px"
	 viewBox="0 0 788 1005" style="enable-background:new 0 0 788 1005;" xml:space="preserve">
<style type="text/css">
	.st0{clip-path:url(#SVGID_00000101069197948991361320000005418656999701582234_);}
	.st1{fill:#745C62;}
	.st2{clip-path:url(#SVGID_00000015330065058595818830000004826241676417148351_);}
	.st3{fill:#5E6D70;}
	.st4{fill:#90573A;}
	.st5{fill:#83B5C6;}
	.st6{fill:#6999AA;}
	.st7{fill:none;stroke:#6699AA;stroke-width:2;stroke-linecap:round;stroke-miterlimit:10;}
	.st8{fill:#87B6C7;}
	.st9{fill:#6699AA;}
	.st10{fill:none;stroke:#6399AA;stroke-width:2;stroke-linecap:round;stroke-miterlimit:10;}
	.st11{fill:none;}
	.st12{fill:#5B0052;}
</style>
<g>
	<defs>
		<path id="SVGID_1_" d="M366.4,474.8L366.4,474.8c15.1,0,27.4,12.3,27.4,27.4v92.3H339v-92.3C339,487.1,351.3,474.8,366.4,474.8z"
			/>
	</defs>
	<clipPath id="SVGID_00000170248197741621657980000010572667548779193261_">
		<use xlink:href="#SVGID_1_"  style="overflow:visible;"/>
	</clipPath>
	<g style="clip-path:url(#SVGID_00000170248197741621657980000010572667548779193261_);">
		<path class="st1" d="M423.6,479.7c12.3,5,17.7,9.2,20.6,15.9c2.4,5.4,4.6,32,4.8,38.2c0.4,14.5-24.1,43.6-35,55.8
			c-11,12.3-6.1-2.7-21.1-0.8c-16.9,2.1-54.4-38.1-54-52.6c0.2-6.2,3.3-35.2,5.6-40.6c2.9-6.6,8.3-10.9,20.6-15.9
			c8.8-3.4,18.2-5,27.6-4.9c0.5,0,0.9,0,1.4,0C397.3,474.8,411.1,474.6,423.6,479.7z"/>
	</g>
</g>
<g>
	<defs>
		<path id="SVGID_00000086672016834823459300000012834553634767966353_" d="M421.2,474.8L421.2,474.8c15.1,0,27.4,12.3,27.4,27.4
			v92.3h-54.8v-92.3C393.8,487.1,406.1,474.8,421.2,474.8z"/>
	</defs>
	<clipPath id="SVGID_00000103987654037104630920000013816266189030866058_">
		<use xlink:href="#SVGID_00000086672016834823459300000012834553634767966353_"  style="overflow:visible;"/>
	</clipPath>
	<g style="clip-path:url(#SVGID_00000103987654037104630920000013816266189030866058_);">
		<path class="st1" d="M363.9,479.7c-12.3,5-17.7,9.2-20.6,15.9c-2.4,5.4-4.6,32-4.8,38.2c-0.4,14.5,24.1,43.6,35,55.8
			c11,12.3,6.1-2.7,21.1-0.8c16.9,2.1,54.4-38.1,54-52.6c-0.2-6.2-3.3-35.2-5.7-40.6c-2.9-6.6-8.3-10.9-20.6-15.9
			c-8.9-3.4-18.3-5.1-27.8-4.8c-0.4,0-0.8,0-1.2,0C390.3,474.8,376.4,474.6,363.9,479.7z"/>
	</g>
</g>
<path class="st3" d="M340.4,726.2c1.2,10.9,8.5,19.2,16.9,19.4l0,0c8.1,0.2,15.1-7.1,16.6-17.4c0,0,8.8-73.4,9-99.7
	c0-6.2-1.6-24.9-1.6-24.9l-3.9-43.5c0,0-2.8-20.5-19.5-23c-19.3-2.9-19.6,10.5-19.6,10.5s-6.2,69-6,90.9
	C332.5,658.7,340.4,726.2,340.4,726.2z"/>
<path class="st3" d="M472.5,719.2c0.5,11-5.4,20.3-13.8,21.7l0,0c-8,1.4-16-4.8-19-14.7c0,0-19.9-71.2-24.1-97.2
	c-1-6.2-2.2-24.8-2.2-24.8l-2.7-43.5c0,0-0.4-20.7,15.8-25.7c18.6-5.8,21,7.4,21,7.4s16.6,67.3,19.7,88.9
	C470,651.2,472.5,719.2,472.5,719.2z"/>
<path class="st4" d="M357.2,708.9c-9.2,0.2-14.6,5.3-16,13.4c0,0-1.5,36.4-1.7,51.7c-0.4,24.6,2.5,74.7,6.5,99
	c0.9,5.3,2.8,21.3,2.8,21.3c0.5,4.6,4.4,8.1,9,8l0,0c4.6-0.4,8.1-4.1,8.2-8.7c0,0,0.8-18.5,1.4-24.7c2.2-22.3,9.5-66.6,10-89
	c0.3-13.5-2.3-54.8-2.3-54.8C374.1,711.6,365.1,709,357.2,708.9L357.2,708.9z"/>
<path class="st4" d="M468.2,701.9c9.1-1.1,15,3.3,17.3,11.3c0,0,6.6,34.5,8.5,49.9c3.2,24.7,0,122,0,122c-0.1,4.9-0.1,11.4-4.5,11.8
	l0,0c-4.4,0.4-9.7-1.7-10.5-6.5c0,0-19.7-91.6-22.8-114.1c-1.8-13.5-3.9-55.5-3.9-55.5C451.8,707.1,460.4,703.1,468.2,701.9
	L468.2,701.9z"/>
<path class="st5" d="M357.5,885.9L357.5,885.9c-4.2,0.2-8,2.8-9.6,6.6l0,0c-4,8.9-20.8,20.9-20.8,20.9c-3,2.6-4.5,6.6-3.8,10.6l0,0
	l41.1-0.2l2.3-0.7c2.7-1,4.4-3.6,4.1-6.5l-2.4-21.7C367.4,889.6,362.8,885.9,357.5,885.9z"/>
<path class="st6" d="M324.5,923.8L324.5,923.8c-0.6-3.5,1.7-6.8,5.1-7.5l24.4-3.9c3.2-0.4,6.2,1.7,6.9,4.9l1.4,6.2L324.5,923.8z"/>
<path class="st7" d="M348.9,894.5c0,0,3.2-2.5,6-2.6c2.4,0.1,4.8,0.8,6.8,2.1"/>
<path class="st7" d="M346,899.3c0,0,3.2-2.4,6.1-2.4c2.4,0.1,4.8,0.9,6.8,2.2"/>
<path class="st8" d="M488,892.5c4.3-2,3.9-6,5.6-8.3c1-1.4,5.3-2.9,5.9-1.2c7.6,19.5,42,29.6,42,29.6c3.7,3.2,4.6,7.8,4,12.6l0,0
	c0,0-30,10.1-45.7-0.8c-3.1-2.2-11.2-3.1-11.2-3.1s-14.5,0.2-13.8-5.8l1.9-26.7C477.8,882.3,480.6,895.9,488,892.5z"/>
<path class="st9" d="M545.9,925.1c0.5-7.8-3.1-12.6-4.3-12.4c-1.7,0.3-4.4,2.2-6,2.6c-2.7,0.7-10.8,0-10.8,0
	c-2.1-0.2-3.8,2.5-3.9,6.2v7.5c0,0,5,0.7,16.7-1.8C539.5,926.8,545.9,925.1,545.9,925.1z"/>
<path class="st10" d="M504.2,893.1c-1.9,1-4,1.7-6.1,2"/>
<path class="st10" d="M508.1,897.3c-1.8,1.2-3.9,2-6,2.5"/>
<rect x="716.5" y="506.9" class="st11" width="112.5" height="211.2"/>
<path class="st12" d="M343.3,492.5L343.3,492.5c-7.5,0-25.3,253.1-25.3,253.1s195.1-1.2,191.8-3.6s-49-200.5-49-200.5l-12.7-40.5
	c-1.7-5.5-5.2-10.4-9.9-13.8l-9.4-6.9c-5-3.6-10.9-5.6-17.1-5.6c-7.4,0-16.6,0-17.3,0l-21.1,1.2c-11.5,0.7-22.1,6.3-29.1,15.3
	L343.3,492.5z"/>
</svg>
