<svg id="Calque_9" data-name="Calque 9" xmlns="http://www.w3.org/2000/svg" viewBox="0 0 788 1005"><defs><style>.cls-1{fill:#5e6d70;}.cls-2{fill:#423632;}.cls-3{fill:#9e6754;}.cls-4{fill:#83b5c6;}.cls-5{fill:#6999aa;}.cls-6,.cls-9{fill:none;stroke-linecap:round;stroke-miterlimit:10;stroke-width:2px;}.cls-6{stroke:#69a;}.cls-7{fill:#87b6c7;}.cls-8{fill:#69a;}.cls-9{stroke:#6399aa;}</style></defs><path class="cls-1" d="M334.37,726.23c1.21,10.93,8.45,19.2,16.94,19.37h0c8.12.16,15.06-7.14,16.58-17.43,0,0,8.81-73.39,9-99.72.05-6.23-1.58-24.89-1.58-24.89l-3.93-43.46s-2.75-20.48-19.52-23c-19.32-2.9-19.65,10.51-19.65,10.51s-6.18,69-6,90.9C326.46,658.65,334.37,726.23,334.37,726.23Z"/><path class="cls-2" d="M472.24,718.08c.76,11-4.87,20.41-13.19,22.1h0c-8,1.61-16.1-4.32-19.44-14.17,0,0-21.83-70.62-26.76-96.49-1.16-6.12-2.91-24.77-2.91-24.77L406,561.3s-1-20.65,15.08-26.14c18.48-6.32,28.8,1.53,28.8,1.53s10.88,72.1,14.59,93.64C467.9,650.18,472.24,718.08,472.24,718.08Z"/><path class="cls-3" d="M351.25,708.87c-9.22.2-14.6,5.28-16,13.44,0,0-1.46,36.38-1.7,51.71C333.18,798.59,336,848.73,340,873c.88,5.3,2.76,21.33,2.76,21.33a8.91,8.91,0,0,0,9,8h0a8.92,8.92,0,0,0,8.23-8.65s.8-18.54,1.41-24.68c2.22-22.28,4.68-74,5.2-96.45.31-13.49,2.51-47.31,2.51-47.31-1-13.57-10-16.24-17.93-16.36Z"/><path class="cls-3" d="M456.44,701.23c9.12-1.34,5.24-18.58,7.76-10.62,0,0,17.7,132.42,20.09,147.78,3.84,24.62,7.4,47.48,7.4,47.48.07,4.9,4.47,10.52,0,11.06l-8.54-1.3c-4.39.52-9.78-1.46-10.71-6.15,0,0-19.16-94.52-22.83-116.94-2.21-13.49-8.54-51.87-8.54-51.87-.91-13.8,7.6-18,15.37-19.44Z"/><path class="cls-4" d="M349.53,885.87h0a10.93,10.93,0,0,0-9.62,6.64h0c-4,8.94-20.83,20.92-20.83,20.92A11.3,11.3,0,0,0,315.29,924h0l41.09-.24,2.31-.74a6.2,6.2,0,0,0,4.1-6.5l-2.36-21.7A11.09,11.09,0,0,0,349.53,885.87Z"/><path class="cls-5" d="M316.47,923.8h0a6.47,6.47,0,0,1,5.13-7.5L346,912.38a6.14,6.14,0,0,1,6.86,4.9l1.41,6.16Z"/><path class="cls-6" d="M340.87,894.46s3.17-2.52,6-2.6a14,14,0,0,1,6.84,2.06"/><path class="cls-6" d="M338,899.35s3.23-2.43,6.07-2.42a14,14,0,0,1,6.79,2.25"/><path class="cls-7" d="M481.57,891.15c4.24-2.12,3.75-6.12,5.38-8.42,1-1.4,5.21-3.06,5.91-1.38,8.1,19.23,42.79,28.38,42.79,28.38,3.78,3.11,4.8,7.64,4.32,12.46h0s-29.75,11-45.67.46c-3.19-2.11-11.33-2.81-11.33-2.81s-14.52.56-13.92-5.37l1.17-26.72C471.11,881.29,474.29,894.79,481.57,891.15Z"/><path class="cls-8" d="M540.32,922.13c.23-7.84-3.45-12.54-4.61-12.28-1.69.36-4.32,2.3-6,2.77-2.65.74-10.82.34-10.82.34-2.09-.17-3.7,2.59-3.7,6.35l.2,7.49s5,.6,16.63-2.28C534,924,540.32,922.13,540.32,922.13Z"/><path class="cls-9" d="M497.72,891.36a17.72,17.72,0,0,1-6,2.19"/><path class="cls-9" d="M501.75,895.45a18.41,18.41,0,0,1-5.9,2.69"/><rect class="cls-2" x="334.85" y="476.76" width="109.24" height="23.41"/><path class="cls-2" d="M338.7,863.65l23.28.58c-.48-4.35,26.24-261.13,26.24-261.13h0s37.33,115.17,40.61,123.73,38,139.28,38,139.28h0l20.6-4.65L473.7,720.77,472.31,708,449.89,536.69l-5.52-48.23s-103.82-17-103.82-6.2-24.88,89.51-25.4,109.61c-1.58,60.9,23.55,271.78,23.55,271.78"/></svg>