<svg id="Calque_1" data-name="Calque 1" xmlns="http://www.w3.org/2000/svg" viewBox="0 0 788 1005"><defs><style>.cls-1{fill:#1a1818;}.cls-2{fill:#d48f72;}.cls-3,.cls-5{fill:none;}.cls-3{stroke:#000;stroke-miterlimit:10;stroke-width:3px;}.cls-4{fill:#d79072;}.cls-6{fill:#46455b;}.cls-7{fill:#c77a58;}.cls-8{fill:#37344d;}.cls-9{fill:#da9172;}</style></defs><polygon class="cls-1" points="224.88 524.82 224.78 524.86 224.78 524.77 224.88 524.82"/><polygon points="224.98 524.77 224.98 524.86 224.88 524.82 224.98 524.77"/><polygon class="cls-1" points="224.88 524.82 224.78 524.86 224.78 524.77 224.88 524.82"/><polygon points="224.98 524.77 224.98 524.86 224.88 524.82 224.98 524.77"/><path class="cls-2" d="M405.75,378.47C416.5,385,428,410.75,440.52,413.41c4.44.95,13.36-4.85,15.81-8.41,8.9-12.94,4.59-49.3,17.18-59.28,10.66-8.44,36.26-3.61,36.86-39.17.37-21.61-26.86-31.92-33.53-34.12a32,32,0,0,1-3.17-1.24l-40.53-18.61c-9.57-4.4-15.68-13.39-15.81-23.28l-.24-16.72-26.95,1.91-26.63-1.92.12,14.57c.08,11.18-6.72,21.43-17.54,26.39L305.94,272s-35.41,9.94-35,34.57c.6,35.56,26.2,30.73,36.86,39.17,12.59,10,8.28,46.34,17.18,59.28,2.45,3.56,11.37,9.36,15.81,8.41,12.5-2.66,23.52-29.23,34.77-34.94C382.18,375.11,399.43,374.65,405.75,378.47Z"/><polygon class="cls-2" points="392 207.63 417 211.33 418 265.05 390.5 295.14 363.32 265.05 364.32 211.33 392 207.63"/><path class="cls-3" d="M452.5,312.78c11.91,23.15,40.93,35.91,40.93,35.91S546.38,379,563.86,389.4c8.24,4.89,25.22,15.35,39-3.34h0c11.32-15.41-2.82-28.11-10.19-33.5-15-11-47.91-30.23-60.5-43.28-9.38-9.73-19.75-28.1-43.14-33.53,0,0-18.61-6.39-31.75,7.64l-.52.56a25,25,0,0,0-4.22,28.83Z"/><path class="cls-4" d="M588.81,354.64c-18.56-6.64-32.67,10.94-37.39,17.6S540.74,394.4,537.79,402c-7.56,19.48-17.53,53.1-25.2,72.05-5,12.47-8.09,18.9-.34,24,7,4.64,16.12-5.32,19.73-9.19,14.85-15.92,44.31-46.68,56.84-65.66,5.15-7.8,14-24.44,16.11-33.36C610.88,364.9,594.2,356.57,588.81,354.64Z"/><path class="cls-3" d="M460.29,457.06c-.88-3.72-5.67-23.41-5.61-31.33.06-8.5,4-25.67,1.8-34-9.77-36.66-123.53-36.72-133.32,0-2.21,8.28,1.74,25.45,1.8,34,.06,7.92-4.73,27.61-5.61,31.33-11,46.6,70.35,67.95,70.35,67.95S471.33,503.66,460.29,457.06Z"/><path class="cls-5" d="M428.87,443.3c16.16,4.84,23.2,8.92,27.05,15.34,3.11,5.2,6,17.12,6.27,23.06.54,13.95-7.77,49-21.93,60.73-14.4,11.91-84.8,11.91-99.2,0-14.16-11.7-22.47-46.78-21.93-60.73.23-5.94,3.16-17.86,6.27-23.06,3.85-6.42,10.89-10.5,27.05-15.34,18.49-5.54,37.29-4.66,37.29-4.66S410.38,437.76,428.87,443.3Z"/><path class="cls-4" d="M210.67,413.2c19.89-.14,26.05-21.29,27.79-29.09s1.15-24.25.88-32.33c-.7-20.68-4.76-55.35-5.14-75.58-.26-13.31,0-20.34-9.2-22.45-8.4-1.92-12.89,10.43-14.71,15.26-7.5,19.86-22.7,58.49-26.83,80.41-1.7,9-3.31,27.48-1.75,36.5C186.07,411.16,204.89,413.24,210.67,413.2Z"/><path class="cls-3" d="M329.91,313.05c-8.55,24.38-35.53,40.54-35.53,40.54s-48.22,36.48-64.09,48.88c-7.48,5.83-22.84,18.26-39.1,1.39h0c-13.4-13.91-1.17-28.21,5.39-34.45,13.34-12.68,43.24-35.76,53.89-50.22,7.93-10.77,15.62-30.24,38-38.45,0,0,17.55-8.58,32.55,3.74l.6.49c8.53,7,11.77,18,8.25,28.08Z"/><path class="cls-6" d="M417.2,224.51s3.07,19.92,11.6,24.78c7,4,39.18,19.4,61.18,24.78,34.88,8.53,70.81,59.07,109.85,81.1,7.28,4.11,8.88,19.12,8.48,24.68-.75,10.32-10.2,28.34-15.74,38.72C581.86,438.63,541.46,487,541.46,487l-2.53,3.64a8.44,8.44,0,0,1-12.23,1.44l-13.33-11.46a9.82,9.82,0,0,1-2.3-12.41l7.62-13.5,26.53-73.85L477.52,344l-10.27,61.59,17.7,109L471.65,534l-168.78.36-6.68-13.46,14.89-118.05-6.88-52.34S252.28,390.6,236,402.86c-6.64,5-25.81,15-34.19,13.44-8-1.48-19-13.43-21.25-20.14-3.45-10.15-2.81-32.09-.72-42.55,3.35-16.77,16.8-59.56,21.64-74.74a6.87,6.87,0,0,1,7.76-4.43l26.07,4.34a4.35,4.35,0,0,1,3.75,4.18l.07,46.76s24.88-39.1,38.33-46.05c31.52-16.3,70.73-30.89,76.21-34.92,7.48-5.52,9.94-24.24,9.94-24.24"/><path class="cls-4" d="M515.43,494.7c2,3,3.06,8.37-3,13.74,0,0-17.64,18.73-25.41,22.54-3.47,1.71-12.78,5.8-15.37,3.06-7.33-7.76-12.07-26.5-9.72-38.64.7-3.65,9.41-7.46,13.33-8.17,4.31-.78,12.95,2.43,17.34,2.57a71.77,71.77,0,0,0,7.19-.36C505.71,488.93,512.65,490.66,515.43,494.7Z"/><polygon class="cls-7" points="505.66 483.19 501.53 489.38 504.89 500.95 508.86 512.14 514.45 506.56 524.6 500.05 505.66 483.19"/><polygon class="cls-8" points="502.95 487.2 512.27 472.61 532.74 492.9 521.5 504.69 502.95 487.2"/><path class="cls-4" d="M223.17,262.24c-3-1.67-6.47-6-4.42-13.46,0,0,4.46-24.54,8.59-31.46,1.85-3.09,7-10.95,10.39-9.72,9.47,3.46,22.31,17.77,26.45,29.52,1.25,3.53-3.61,10.87-6.3,13.29-2.95,2.66-11.2,3.8-14.66,5.68a59.22,59.22,0,0,0-5.38,3.61C233.51,262.85,227.3,264.52,223.17,262.24Z"/><polygon class="cls-9" points="236.36 267.89 236.52 260.55 228.25 251.91 219.7 243.9 218.11 251.36 213.46 261.74 236.36 267.89"/><polygon class="cls-8" points="237.17 264.12 237.52 279.33 206.67 274.67 213.57 258.38 237.17 264.12"/></svg>