<svg id="Calque_1" data-name="Calque 1" xmlns="http://www.w3.org/2000/svg" viewBox="0 0 788 432.07"><defs><style>.cls-1{fill:#d48f72;}.cls-2{fill:#a85d3d;}.cls-3{fill:#d79072;}.cls-4{fill:#473415;}.cls-5{fill:#da9172;}.cls-6{fill:#823f1d;}.cls-7{fill:#731800;}</style></defs><path class="cls-1" d="M408.36,286c10.74,6.49,22.26,32.28,34.76,34.95,4.45.94,13.36-4.86,15.81-8.42,8.9-12.94,4.6-49.3,17.18-59.27,10.66-8.45,23.26-9.18,23.86-44.73.37-21.62-13.86-26.37-20.53-28.56a30.92,30.92,0,0,1-3.16-1.24l-40.53-18.62c-9.58-4.4-15.68-13.38-15.82-23.28l-.23-16.72-27,1.91-26.62-1.91.11,14.56c.09,11.18-6.72,21.43-17.54,26.4l-40.15,18.44s-19.41,7.17-19,31.8c.6,35.55,10.2,33.5,20.86,42,12.59,10,8.28,46.33,17.19,59.27,2.45,3.56,11.36,9.36,15.8,8.42,12.5-2.67,23.52-29.24,34.77-34.95C384.79,282.66,402,282.2,408.36,286Z"/><polygon class="cls-1" points="394.61 115.17 419.61 118.88 420.61 172.59 393.11 202.69 365.92 172.59 366.92 118.88 394.61 115.17"/><path class="cls-2" d="M394.61,88.31l25,3.71.22,46.26,1.28,5.83s-41.89,48.32-50,44.69c-6.76-3-14.84-32.51-14.84-32.51s6.9-5.58,9.57-17.13S366.92,92,366.92,92Z"/><path class="cls-3" d="M450.8,186.19c22.19-15.33,54.29-14.09,54.29-14.09s62.12-4,82.8-5.61c9.75-.76,30-2.69,32.78,19.78h0c2.26,18.52-16.64,23.66-25.88,25.24-18.8,3.21-57.6,6.06-75.31,12.16-13.2,4.55-31.62,16.33-55,11,0,0-19.68-2.39-24.24-20.48l-.18-.71c-2.59-10.29,1.64-21,10.78-27.33Z"/><path class="cls-3" d="M583.45,207.52c-17.9-8-13.66-29.58-11.62-37.33S582,147.84,586,140.65c10.21-18.41,29.94-48.11,39.66-66.23,6.4-11.92,9.4-18.38,18.72-16.62,8.47,1.6,6.8,14.55,6.21,19.63-2.43,20.92-6.6,61.85-13,83.29-2.63,8.8-9.74,26.14-15.33,33.67C606.61,215.45,588.66,209.85,583.45,207.52Z"/><polygon class="cls-4" points="313.86 406.24 315.36 385.41 470.36 385.41 472.36 403.47 313.86 406.24"/><path class="cls-5" d="M334,188.28c-22.18-15.33-54.29-14.09-54.29-14.09s-62.12-4-82.8-5.6c-9.74-.77-30-2.69-32.78,19.78h0C161.9,206.89,180.8,212,190,213.6c18.8,3.22,57.6,6.06,75.31,12.17,13.2,4.55,31.62,16.32,55,11,0,0,19.68-2.38,24.24-20.47l.18-.71c2.59-10.29-1.64-21-10.78-27.34Z"/><path class="cls-3" d="M201.38,209.61c17.9-8,13.67-29.58,11.63-37.32s-10.2-22.35-14.19-29.54c-10.22-18.41-29.95-48.11-39.67-66.23-6.4-11.92-9.4-18.38-18.71-16.62-8.48,1.6-6.81,14.54-6.22,19.63,2.43,20.92,6.61,61.85,13,83.29,2.64,8.8,9.74,26.14,15.33,33.67C178.22,217.55,196.18,211.94,201.38,209.61Z"/><path class="cls-5" d="M131.71,70.43a31.72,31.72,0,0,1-3.14-12.11L127.19,36a7.14,7.14,0,0,1,2-5.08h0a10.78,10.78,0,0,1,7.65-3.12l20.7-2.93c3.43-.08,5.11.72,6.58,3.35l-.54,6s1.87,8.2,2,5.74c.38-8.66,1.86-14.54,10-13.7l-1.45,14.38c.11,1.18-1.21,3.57-1.84,4.59-2,3.21-3.4,10.64-5.45,13.16,0,0-10,9.46-11.07,11.72C154.58,72.53,157,75.7,157,75.7h0c-.74,5.25-6.32,8.67-11.82,7.24l-8.77-2.27Z"/><path class="cls-6" d="M164.12,28.21l-1.3,11.67L154.93,52l-8-1.23,1.29,1a9.07,9.07,0,0,1,3.69,8.43l-.52,4,4.86-9.1,2.58-1.71L166,39.67l-.34-6.14Z"/><path class="cls-3" d="M651.35,70.43a31.72,31.72,0,0,0,3.14-12.11L655.87,36a7.14,7.14,0,0,0-2-5.08h0a10.76,10.76,0,0,0-7.65-3.12l-20.69-2.93c-3.44-.08-5.12.72-6.59,3.35l.54,6s-1.86,8.2-2,5.74c-.38-8.66-1.86-14.54-10-13.7L609,40.64c-.11,1.18,1.21,3.57,1.84,4.59,2,3.21,3.4,10.64,5.45,13.16,0,0,10,9.46,11.08,11.72,1.14,2.42-1.23,5.59-1.23,5.59h0c.73,5.25,6.32,8.67,11.81,7.24l8.77-2.27Z"/><path class="cls-6" d="M619,28.21l1.29,11.67L628.13,52l8-1.23-1.3,1a9.06,9.06,0,0,0-3.68,8.43l.51,4-4.86-9.1-2.58-1.71-7.13-13.68.34-6.14Z"/><path class="cls-7" d="M260.91,170.82l28,81.73s12.75,47.53,14.7,64.69c2.2,19.24,6.84,80.16,6.84,80.16l-1.35,25,170.26,4.07s-3.81-60.54-.52-99.59c1.47-17.55,14.91-70.05,14.91-70.05l29.07-86.39-68.46-2.7-59.11,30L336.1,165.26Z"/></svg>