<svg id="Calque_1" data-name="Calque 1" xmlns="http://www.w3.org/2000/svg" viewBox="0 0 788 1005"><defs><style>.cls-1{fill:#7a919e;}.cls-2{fill:#1a1818;}.cls-3{fill:#d48f72;}.cls-4{fill:#a85d3d;}.cls-5{fill:#95acba;}.cls-10,.cls-6{fill:#d79072;}.cls-6{stroke:#000;stroke-width:3px;}.cls-12,.cls-6{stroke-miterlimit:10;}.cls-7{fill:#9599ba;}.cls-8{fill:#605b5b;}.cls-9{fill:#bb653c;}.cls-11{fill:#adcbde;}.cls-12{fill:none;stroke:#839ba5;}</style></defs><polygon class="cls-1" points="364.84 249.46 365.7 222.7 426.18 222.11 425.84 249.46 364.84 249.46"/><polygon class="cls-2" points="230.32 514.01 230.22 514.05 230.22 513.97 230.32 514.01"/><polygon points="230.42 513.97 230.42 514.05 230.32 514.01 230.42 513.97"/><polygon class="cls-2" points="230.32 514.01 230.22 514.05 230.22 513.97 230.32 514.01"/><polygon points="230.42 513.97 230.42 514.05 230.32 514.01 230.42 513.97"/><path class="cls-3" d="M411.2,367.66C422,374.15,433.47,399.94,446,402.6c4.44.95,13.35-4.85,15.8-8.41,8.91-12.94,4.6-49.3,17.19-59.28,10.65-8.44,36.25-3.61,36.86-39.16.36-21.62-26.87-31.93-33.53-34.13a27,27,0,0,1-3.17-1.24l-40.53-18.61c-9.57-4.4-15.68-13.39-15.82-23.28l-.23-16.72-27,1.91L369,201.76l.11,14.57c.09,11.18-6.72,21.43-17.53,26.4l-40.15,18.44s-35.41,9.95-35,34.58c.6,35.55,26.2,30.72,36.85,39.16,12.59,10,8.28,46.34,17.19,59.28,2.45,3.56,11.36,9.36,15.8,8.41,12.51-2.66,23.52-29.23,34.77-34.94C387.63,364.3,404.88,363.84,411.2,367.66Z"/><polygon class="cls-3" points="397.45 196.82 422.45 200.52 423.45 254.24 395.95 284.34 368.76 254.24 369.76 200.52 397.45 196.82"/><path class="cls-4" d="M397.45,170l25,3.71.23,46.25L427,263.44s-40.89,42.43-49,38.79c-6.75-3-18.89-64.29-18.89-64.29s6.9-5.59,9.58-17.13,1.07-47.14,1.07-47.14Z"/><path class="cls-5" d="M458,302c11.9,23.15,40.93,35.91,40.93,35.91s53,30.34,70.43,40.71c8.23,4.89,25.21,15.35,39-3.34h0c11.33-15.41-2.81-28.11-10.19-33.5-15-11-47.9-30.23-60.5-43.28-9.38-9.72-23.29-31.57-46.67-37,0,0-15.07-2.91-28.21,11.12l-.52.56A25,25,0,0,0,458,302Z"/><path class="cls-6" d="M325.81,277.38c17.78,19.65,18.25,49.4,18.25,49.4S351.84,384,354.75,403c1.38,9,4.59,27.62-19.48,31.42h0c-19.84,3.14-26.43-14.05-28.66-22.51-4.52-17.2-9.77-52.92-17.35-68.95-5.64-11.94-19.37-28.32-15-50.27,0,0,1.47-18.33,20.71-23.56l.76-.21a30.09,30.09,0,0,1,30.07,8.43Z"/><polygon class="cls-7" points="320.13 487.89 321.63 462.55 476.63 462.55 473.51 484.62 320.13 487.89"/><path class="cls-5" d="M312.9,450.1l1.63-122.41L294,266.88l65-31.19,42.81,48.65,36.33-45.53,64.66,27.75-10.44,93.57-26.6,66.74,8.18,10a20.09,20.09,0,0,1,3.27,20.32l-2.7,6.79-156.13,2.3-3.62-7.73A19.3,19.3,0,0,1,312.9,450.1Z"/><path class="cls-7" d="M458.07,391.2l1.2,9.41-8.56,5.32,1.12,2.85c-26.65,12.12-93,41.92-93.59,42.13-1.59.54-10.8,4.42-16.08,4.42-8.8,0-29.36-11.26-29.36-11.26s-2.15-12.91.16-12.39,123-42.54,125.81-41.9S458.07,391.2,458.07,391.2Z"/><path class="cls-8" d="M459.7,433,443.88,308.69c-.68-5.37,3.47-10.24,9.27-10.88l202.93-22.13c5.8-.63,11.06,3.21,11.74,8.59L683.63,408.6c.68,5.37-3.47,10.24-9.27,10.87L471.44,441.6C465.64,442.24,460.38,438.39,459.7,433Z"/><path class="cls-3" d="M670.62,429.11l-7.61-15a6.09,6.09,0,0,1,3.27-8.36h0a7,7,0,0,1,9,3l6.56,12.95a6.09,6.09,0,0,1-3.26,8.36l-2.24,1A4.48,4.48,0,0,1,670.62,429.11Z"/><path class="cls-9" d="M607.73,426.62l40.46-6.17-2.09,19.4a3.64,3.64,0,0,1-4.53,2.95L632,440.6A42.59,42.59,0,0,1,615,432.39Z"/><path class="cls-3" d="M637.16,439.15l-5.69-11.22c-3.94-7.79-.32-17.06,8.09-20.72l2-.85c8-3.46,17.43-.29,21.16,7.07l5.08,10c2.37,4.68.2,10.26-4.86,12.46l-15.39,6.68A8.06,8.06,0,0,1,637.16,439.15Z"/><path class="cls-3" d="M451.83,368.88l13,18.6,11.45-2.08,24.17-3.47a16.38,16.38,0,0,0,13.16-10.14L520.34,354l29.79-4.07a8.26,8.26,0,0,0,7.28-7.84l0-1.13-34.92,2.35,1.88-4.6-17.72.28-10.39.05a32.92,32.92,0,0,0-16,4.23l-9.44,5.3c-2,2-2.65,2.95-6.43,7.79L459,363.26"/><path class="cls-10" d="M310.73,415.57c-3.84-18.08,17.3-27.9,25.21-31s25.41-5.9,34-7.27c22-3.51,59.51-6.77,81-10.47,14.13-2.43,21.51-4.09,25.59,3.86,3.71,7.23-4.14,12.68-8.88,15.3-19.51,10.78-61.65,33.4-84,41.54-9.18,3.34-28.42,8.51-38.27,8.9C317.81,437.48,311.84,420.82,310.73,415.57Z"/><path class="cls-5" d="M320.12,256.62S276.92,271.74,269.3,281c-7.31,8.87-3.1,45.32-3.1,45.32S282.82,413.43,304,433.73c5,4.77,22.43,9.2,31.35,11.21a16.77,16.77,0,0,0,10.17-.88L446.41,401.8l-8.46-37-91.14,11-18-62.59"/><polygon class="cls-11" points="355.72 239.71 365.7 222.7 393.37 265.76 377.44 288.36 355.72 239.71"/><polygon class="cls-11" points="440.1 241.43 426.18 222.11 405.49 265.06 424.19 286.66 440.1 241.43"/><polygon class="cls-7" points="393.37 265.76 401.54 284.34 390.52 275.92 377.44 288.36 393.37 265.76"/><polygon class="cls-7" points="401.54 284.34 405.49 265.06 424.19 286.66 410.81 276.9 401.54 284.34"/><path class="cls-12" d="M328.59,310.94c1.34,0,18.22,64.85,18.22,64.85l91.14-11,8.46,37"/></svg>