<svg xmlns="http://www.w3.org/2000/svg" viewBox="0 0 788 432.07"><defs><style>.cls-1{fill:#1a1818;}.cls-2,.cls-4,.cls-8{fill:none;}.cls-2{stroke:#000;stroke-width:3px;}.cls-2,.cls-4{stroke-miterlimit:10;}.cls-3{fill:#473415;}.cls-4{stroke:#4f3742;}.cls-5{fill:#d79072;}.cls-6{fill:#d08d72;}.cls-7{fill:#a45c3d;}.cls-9{fill:#6a4100;}</style></defs><g id="Calque_1" data-name="Calque 1"><polygon class="cls-1" points="230.32 334.3 230.22 334.33 230.22 334.25 230.32 334.3"/><polygon points="230.42 334.25 230.42 334.33 230.32 334.3 230.42 334.25"/><polygon class="cls-1" points="230.32 334.3 230.22 334.33 230.22 334.25 230.32 334.3"/><polygon points="230.42 334.25 230.42 334.33 230.32 334.3 230.42 334.25"/><path class="cls-2" d="M434.32,252.77c16.16,4.84,23.2,8.92,27,15.34,3.11,5.2,6,17.12,6.27,23.06.55,14-7.77,49-21.92,60.74-14.41,11.9-84.8,11.9-99.2,0-14.16-11.71-22.47-46.78-21.93-60.74.23-5.94,3.16-17.86,6.27-23.06,3.84-6.42,10.89-10.5,27-15.34,18.49-5.53,37.3-4.66,37.3-4.66S415.83,247.24,434.32,252.77Z"/><polygon class="cls-3" points="316.71 308.18 318.21 287.34 473.21 287.34 475.21 305.4 316.71 308.18"/><polygon class="cls-4" points="394.57 343.88 389.57 306.83 404.57 306.83 403.57 336.73 394.57 343.88"/><path class="cls-5" d="M120.84,288.2s-18.46-7.05-21.51-6.81-15.77,3.23-18.15,2.94S64.62,279,64.41,280.81s-.15,8.73-.15,8.73l11.4,5.59,14.75.27L72.16,309.19S44.79,323,43,323.45,44,332.36,44,332.36L78.7,317.52,46.39,342.9l6,7.66,34.32-26.95L57.11,356.56l8.83,4.38,27.24-28.4-14.59,26s8,4,9.12,2,17-23.6,17-23.6L132.51,314l1.41-9.19Z"/><polygon points="227.91 356.53 228.01 356.49 227.91 356.44 227.91 356.53"/><polygon points="228.01 356.49 228.11 356.53 228.11 356.44 228.01 356.49"/><polygon points="227.91 356.53 228.01 356.49 227.91 356.44 227.91 356.53"/><polygon points="228.01 356.49 228.11 356.53 228.11 356.44 228.01 356.49"/><path class="cls-6" d="M513.5,120.81c-.6,38.39-26.2,33.17-36.86,42.29-12.58,10.77-8.27,50-17.18,64-2.45,3.84-11.36,10.1-15.8,9.08-12.51-2.87-24-30.73-34.77-37.73-6.33-4.12-23.57-3.62-30.19,0-11.25,6.16-22.27,34.86-34.77,37.73-4.44,1-13.35-5.24-15.8-9.08-8.91-14-4.6-53.24-17.19-64-10.65-9.12-36.25-3.9-36.86-42.29-.41-26.59,35-37.34,35-37.34l40.15-19.91a31.4,31.4,0,0,0,7.1-4.82,29.11,29.11,0,0,0,2.29-2.29l.63-.71.05-.06a31.55,31.55,0,0,0,7.22-16.43,30.71,30.71,0,0,0,.25-4.19l0-2.84,0-4.51h53.63l.06,5,0,1.5,0,3.21c0,.33,0,.67,0,1v0c0,.65.09,1.3.16,1.95a29.38,29.38,0,0,0,.93,4.57,28.5,28.5,0,0,0,14.7,17.59l40.53,20.1A27.41,27.41,0,0,0,480,84C486.64,86.34,513.87,97.47,513.5,120.81Z"/><path class="cls-6" d="M421.14,76l-27.5,32.5L378.84,90.8,366.45,76l.72-41.56,0-2.21.08-4.51h53v.23l.08,4.66v0l0,1.56.07,4.21v0l0,1.28.12,6.79Z"/><path class="cls-7" d="M421.64,45.24l-1,1.25c-5.16,6.33-28.83,35-41.79,44.31-3.2,2.29-5.74,3.39-7.2,2.69-6.76-3.26-14.84-35.1-14.84-35.1l.08-.07a21,21,0,0,0,1.73-1.87q.48-.57,1.05-1.32l.06-.08a39.39,39.39,0,0,0,6.66-15.16c0-.21.09-.42.13-.64.26-1.37.48-3,.66-4.82.07-.71.13-1.45.19-2.21.11-1.42.2-2.94.28-4.51h52.67v.23l0,4.28,0,6.72.15.76.14.67.93,4.57Z"/><path class="cls-2" d="M463.42,283.32c-.88-4-5.67-25.28-5.61-33.83.06-9.18,4-27.71,1.8-36.66-9.77-39.58-123.53-39.65-133.32,0-2.21,8.95,1.75,27.48,1.81,36.66,0,8.55-4.74,29.81-5.62,33.83-11,50.32,70.35,73.37,70.35,73.37S474.46,333.64,463.42,283.32Z"/><path class="cls-8" d="M432,268.46c16.16,5.23,23.21,9.63,27.05,16.57,3.11,5.61,6,18.48,6.27,24.89.54,15.07-7.77,52.95-21.93,65.59-14.4,12.85-84.8,12.85-99.2,0C330,362.87,321.72,325,322.26,309.92c.24-6.41,3.17-19.28,6.28-24.89,3.84-6.94,10.88-11.34,27-16.57,18.49-6,37.29-5,37.29-5S413.52,262.49,432,268.46Z"/><path class="cls-5" d="M277.94,228.75c-9.7-15-32.38-8.32-40.5-5.45S214.29,235.44,206.89,240c-18.94,11.63-75.51,47.87-96.36,54.09-14.58,4.35,7.52,25,7.52,25s15.52-9,25.69-12.62c21.36-7.59,52.08-11.54,87.86-22.82,9.41-3,27.21-12.24,34.87-18.27C287.89,248.49,280.76,233.11,277.94,228.75Z"/><path class="cls-2" d="M335.1,117.31c2.77,27.55-14.91,54.38-14.91,54.38s-28.3,55.46-37.45,74.09c-4.31,8.79-13,27.25-35.18,17.11h0c-18.31-8.36-13.33-27.42-10-36.22,6.71-17.9,24-52.75,27.52-71.32,2.58-13.84,1.17-36.18,18.12-53.32,0,0,12.34-15.54,31.43-9.4l.76.25a28.69,28.69,0,0,1,19.75,24.43Z"/><path class="cls-5" d="M669.47,288.2s18.46-7.05,21.5-6.81,15.78,3.23,18.16,2.94,16.55-5.31,16.77-3.52.14,8.73.14,8.73l-11.39,5.59-14.75.27,18.25,13.79s27.37,13.84,29.2,14.26-1.08,8.91-1.08,8.91l-34.66-14.84,32.31,25.38-6,7.66-34.31-26.95,29.61,32.95-8.83,4.38-27.25-28.4,14.59,26s-8,4-9.11,2-17-23.6-17-23.6L657.79,314l-1.4-9.19Z"/><path class="cls-5" d="M512.37,228.75c9.7-15,32.38-8.32,40.5-5.45S576,235.44,583.41,240c19,11.63,75.52,47.87,96.36,54.09,14.59,4.35-7.51,25-7.51,25s-15.52-9-25.69-12.62c-21.37-7.59-52.09-11.54-87.86-22.82-9.41-3-27.22-12.24-34.87-18.27C502.42,248.49,509.54,233.11,512.37,228.75Z"/><path class="cls-2" d="M455.21,117.31c-2.77,27.55,14.91,54.38,14.91,54.38s28.3,55.46,37.44,74.09c4.31,8.79,13,27.25,35.19,17.11h0c18.31-8.36,13.33-27.42,10-36.22-6.7-17.9-24-52.75-27.51-71.32-2.58-13.84-1.17-36.18-18.12-53.32,0,0-12.34-15.54-31.44-9.4l-.75.25a28.67,28.67,0,0,0-19.75,24.43Z"/></g><g id="Calque_7" data-name="Calque 7"><path class="cls-9" d="M330.34,67.44l65.62,22L457.1,65.79l55.28,27.35,28.55,81.21,14,50,87.76,42.51-26.14,35.27-85.35-24-56-62.94,2.93,46.25,4.91,123.22s-194.62-16.79-189.38-19.4,11.22-120,11.79-122.6-2.36-34.35-2.36-34.35S284.22,264,279.83,267.6s-106.18,34.55-106.18,34.55l-22-35.27,82.67-58.54c1.35-16.48,38.62-112,41.94-113.3S330.34,67.44,330.34,67.44Z"/></g></svg>