<svg id="Calque_1" data-name="Calque 1" xmlns="http://www.w3.org/2000/svg" viewBox="0 0 788 1005"><defs><style>.cls-1{fill:#1a1818;}.cls-2{fill:#d48f72;}.cls-3{fill:#a85d3d;}.cls-4{fill:#d79072;}.cls-5{fill:#66463a;}</style></defs><polygon class="cls-1" points="243.43 514.01 243.33 514.05 243.33 513.97 243.43 514.01"/><polygon points="243.53 513.97 243.53 514.05 243.43 514.01 243.53 513.97"/><polygon class="cls-1" points="243.43 514.01 243.33 514.05 243.33 513.97 243.43 514.01"/><polygon points="243.53 513.97 243.53 514.05 243.43 514.01 243.53 513.97"/><path class="cls-2" d="M409.05,367.66c10.75,6.49,22.27,32.28,34.77,34.94,4.44.95,13.36-4.85,15.81-8.41,8.9-12.94,4.59-49.3,17.18-59.28,10.66-8.44,36.26-3.61,36.86-39.16.37-21.62-26.86-31.93-33.53-34.13a27.76,27.76,0,0,1-3.17-1.24l-40.53-18.61c-9.57-4.4-15.68-13.39-15.81-23.28l-.24-16.72-26.95,1.91-26.63-1.92.12,14.57c.08,11.18-6.72,21.43-17.54,26.4l-40.15,18.44s-35.41,9.95-35,34.58c.6,35.55,26.2,30.72,36.86,39.16,12.59,10,8.28,46.34,17.18,59.28,2.45,3.56,11.37,9.36,15.81,8.41,12.5-2.66,23.52-29.23,34.77-34.94C385.48,364.3,402.73,363.84,409.05,367.66Z"/><polygon class="cls-2" points="395.3 196.82 420.3 200.52 421.3 254.24 393.8 284.34 366.62 254.24 367.62 200.52 395.3 196.82"/><path class="cls-3" d="M395.3,170l25,3.71.23,46.25,1.27,5.84s-19.37,38.36-49.69,31.8C364.81,256,357,237.94,357,237.94s6.89-5.59,9.57-17.13,1.08-47.14,1.08-47.14Z"/><path class="cls-2" d="M454.71,280.64c21.79-15.82,53.91-15.3,53.91-15.3s62-5.35,82.63-7.43c9.73-1,30-3.36,33.29,19h0c2.74,18.47-16,24-25.23,25.8-18.7,3.63-57.42,7.34-75,13.84-13.07,4.84-31.19,17-54.74,12.25,0,0-19.73-1.95-24.76-19.93l-.2-.71c-2.86-10.22,1.1-21.05,10.07-27.56Z"/><path class="cls-4" d="M602.18,299.28c-19.72,2.41-29-17.76-31.86-25.26s-4.74-23.87-5.68-31.91c-2.38-20.58-3.52-55.43-6.15-75.52-1.73-13.21-3.06-20.13,5.77-23.41,8-3,14.31,8.69,16.84,13.24,10.38,18.71,31.18,55,38.54,76.21,3,8.7,7.37,26.81,7.17,35.94C626.24,294.12,607.91,298.58,602.18,299.28Z"/><path class="cls-2" d="M335.28,285.77c5.33,25.16-9.77,51.43-9.77,51.43s-23,53.59-30.37,71.56c-3.47,8.47-10.38,26.24-33.44,18.81h0c-19-6.13-15.82-24.13-13.37-32.53,5-17.08,19-50.72,20.75-68.14,1.28-13-2.22-33.47,13.07-50.73,0,0,10.84-15.4,30.42-11.38l.77.16c11.13,2.28,19.75,10.46,21.94,20.82Z"/><path class="cls-2" d="M558.21,144.8l6.54-18.12,16-21.75s4.1,3.59,4.28,5.22c.57,5.1-3.54,12.34-5.81,17-.3.63.1,3.73.66,4.18,2.27,1.84,7.53-1.53,7.53-1.53L575,145Z"/><path class="cls-2" d="M563.87,141.59,578.32,156l35.79-25.91,24.72-38.25s-6.35-2-8.37-1.42c-10.57,3.11-22.85,22.33-30.93,29.35C590.81,127.35,563.87,141.59,563.87,141.59Z"/><ellipse class="cls-2" cx="569.77" cy="148.25" rx="11.22" ry="12.15" transform="translate(409.65 714.79) rotate(-88.8)"/><path class="cls-5" d="M319.13,502.84c-1.35-2.12-4.57-14.95-4.57-14.95s-.75-23.8,4.57-36.58,38.76-26.18,83.3-23.53,56.09,11.81,63.63,20.73-1.5,19.16-3.51,20.09c.36-.17-140.31,48.2-143.42,36.47"/><path class="cls-5" d="M299.93,264.12s20.22,20.72,21.12,38.11-4.51,44.5-4.51,44.5-2.7,107.25-.9,111.53-5.81,17.64-2.44,29.63,70.25-22.61,87.87-27.21,70.76-7.18,67.9-7.06-12.06-46.47-6.92-56.71,11.59-60.24,11.59-60.24c1.82-1.76,13.11-63.92-4.7-79.35l-32.5-15.55h0c-2.48,12.89-14.11,22.55-28.21,23.46-17.72,1.16-36.28,3.13-46.74,4.32-8.86,1-17.66-3-21.76-10.35a15.76,15.76,0,0,1-2-10.76Z"/><path class="cls-4" d="M245.73,422.16c-8.78-16.53,8.88-31.11,15.63-36.05s22.89-11.81,30.81-15.2c20.29-8.69,55.57-20.86,75.28-29.61,13-5.75,19.61-9.13,25.79-2.44,5.61,6.09-4.3,15.34-8.14,19-15.82,15.11-46.3,45-65.61,58.23-7.93,5.44-25.05,15.06-34.45,17.81C258.72,441.61,248.28,427,245.73,422.16Z"/><path class="cls-4" d="M386.67,358l16.54-11.41,17.31-20.88s-4.95-2.48-6.68-2.13c-5.41,1.09-11.55,7-15.64,10.42-.55.46-3.85,1.07-4.49.72-2.6-1.42-.78-7.1-.78-7.1l-11.69,15.7Z"/><path class="cls-4" d="M388.2,352l-19.32-8.2,15.41-39.58,31.52-33.69s4.05,5,4.07,6.93c.11,10.27-15.78,27.07-20.45,36.36C394.39,323.89,388.2,352,388.2,352Z"/><ellipse class="cls-4" cx="379.52" cy="348.92" rx="11.23" ry="12.13" transform="translate(20.07 718.48) rotate(-88.39)"/></svg>