<?xml version="1.0" encoding="utf-8"?>
<!-- Generator: Adobe Illustrator 26.0.1, SVG Export Plug-In . SVG Version: 6.00 Build 0)  -->
<svg version="1.1" id="Calque_1" xmlns="http://www.w3.org/2000/svg" xmlns:xlink="http://www.w3.org/1999/xlink" x="0px" y="0px"
	 viewBox="0 0 788 1005" style="enable-background:new 0 0 788 1005;" xml:space="preserve">
<style type="text/css">
	.st0{fill:#1A1818;}
	.st1{fill:#473415;}
	.st2{fill:none;stroke:#4F3742;stroke-miterlimit:10;}
	.st3{fill:#6D3B25;}
	.st4{fill:#D48F72;}
	.st5{fill:#AA5E3D;}
	.st6{fill:#472E1D;}
	.st7{fill:#524428;}
	.st8{fill:#36344D;}
</style>
<polygon class="st0" points="230.3,514 230.2,514 230.2,514 "/>
<polygon points="230.4,514 230.4,514 230.3,514 "/>
<polygon class="st0" points="230.3,514 230.2,514 230.2,514 "/>
<polygon points="230.4,514 230.4,514 230.3,514 "/>
<polygon class="st0" points="225.7,515.3 225.6,515.3 225.6,515.2 "/>
<polygon points="225.8,515.2 225.8,515.3 225.7,515.3 "/>
<polygon class="st0" points="225.7,515.3 225.6,515.3 225.6,515.2 "/>
<polygon points="225.8,515.2 225.8,515.3 225.7,515.3 "/>
<polygon class="st1" points="312,489.2 313.5,468.3 468.5,468.3 470.5,486.4 "/>
<polygon class="st2" points="389.9,524.9 384.9,487.8 399.9,487.8 398.9,517.7 "/>
<path class="st3" d="M377.5,222.4c0.1-3.3,9.8-7.1,18.6-5.9c8.9,1.2,16.4,7.4,15.8,9.1c-0.5,1.2-5.2,0.8-8.8-0.4
	c-5.1-1.7-5.1-4.2-8.4-4.6c-5.7-0.6-7.8,5-12.7,3.6C380.2,223.8,377.5,223.9,377.5,222.4z"/>
<path class="st4" d="M118.2,470.5c0,0-18.5-7-21.5-6.8s-15.8,3.2-18.2,3s-16.5-5.3-16.8-3.5s-0.1,8.7-0.1,8.7l11.4,5.6l14.8,0.3
	l-18.2,13.8c0,0-27.4,13.9-29.2,14.3s1.1,8.9,1.1,8.9l34.7-14.8l-32.3,25.4l6,7.7l34.3-27l-29.6,33l8.8,4.4l27.2-28.4l-14.6,26
	c0,0,8,4,9.1,2s17-23.6,17-23.6l27.8-22.9l1.4-9.2L118.2,470.5z"/>
<polygon class="st4" points="225.3,538.8 225.4,538.7 225.3,538.7 "/>
<polygon class="st4" points="225.4,538.7 225.5,538.8 225.5,538.7 "/>
<polygon class="st4" points="225.3,538.8 225.4,538.7 225.3,538.7 "/>
<polygon class="st4" points="225.4,538.7 225.5,538.8 225.5,538.7 "/>
<path class="st4" d="M510.9,303.1c-0.6,38.4-26.2,33.2-36.9,42.3c-12.6,10.8-8.3,50-17.2,64c-2.5,3.8-11.4,10.1-15.8,9.1
	c-12.5-2.9-24-30.7-34.8-37.7c-6.3-4.1-23.6-3.6-30.2,0c-11.2,6.2-22.3,34.9-34.8,37.7c-4.4,1-13.4-5.2-15.8-9.1
	c-8.9-14-4.6-53.2-17.2-64c-10.6-9.1-36.2-3.9-36.9-42.3c-0.4-26.6,35-37.3,35-37.3l40.1-19.9c2.6-1.3,5-2.9,7.1-4.8
	c0.8-0.7,1.6-1.5,2.3-2.3l0.6-0.7v-0.1c3.9-4.7,6.5-10.4,7.2-16.4c0.2-1.4,0.3-2.8,0.2-4.2v-2.8V210h53.6l0.1,5v1.5v3.2
	c0,0.3,0,0.7,0,1l0,0c0,0.6,0.1,1.3,0.2,2c0.2,1.5,0.5,3.1,0.9,4.6c2.2,7.7,7.6,14,14.7,17.6l40.5,20.1c1,0.5,2.1,1,3.2,1.3
	C484,268.6,511.2,279.7,510.9,303.1z"/>
<path class="st4" d="M418.5,258.2L391,290.7L376.2,273l-12.4-14.8l0.7-41.6v-2.2l0.1-4.5h53v0.2l0.1,4.7l0,0v1.6l0.1,4.2l0,0v1.3
	l0.1,6.8L418.5,258.2z"/>
<path class="st5" d="M419,227.5l-1,1.2c-5.2,6.3-28.8,35-41.8,44.3c-3.2,2.3-5.7,3.4-7.2,2.7c-6.8-3.3-14.8-35.1-14.8-35.1l0.1-0.1
	c0.6-0.6,1.2-1.2,1.8-1.9c0.3-0.4,0.7-0.8,1-1.3l0.1-0.1c3.3-4.5,5.5-9.7,6.7-15.2c0-0.2,0.1-0.4,0.1-0.6c0.3-1.4,0.5-3,0.7-4.8
	c0.1-0.7,0.1-1.4,0.2-2.2c0.1-1.4,0.2-2.9,0.3-4.5h52.7v0.2v4.3v6.7l0.1,0.8l0.1,0.7l0.9,4.6L419,227.5z"/>
<path class="st4" d="M453,309.8c11.9,25,40.9,38.8,40.9,38.8s53,32.8,70.4,44c8.2,5.3,25.2,16.6,39-3.6l0,0
	c11.3-16.6-2.8-30.4-10.2-36.2c-15-11.8-47.9-32.6-60.5-46.7c-9.4-10.5-19.8-30.3-43.1-36.2c0,0-18.6-6.9-31.8,8.2l-0.5,0.6
	C449.8,287.3,448.1,299.5,453,309.8z"/>
<path class="st4" d="M589.3,355c-18.5-7.2-32.7,11.8-37.4,19s-10.7,23.9-13.6,32.1c-7.5,21-17.5,57.3-25.2,77.8
	c-5,13.5-8.1,20.4-0.3,25.9c7,5,16.1-5.7,19.7-9.9c14.9-17.2,44.3-50.4,56.8-70.9c5.2-8.4,14-26.4,16.1-36
	C611.4,366.1,594.7,357.1,589.3,355z"/>
<path class="st4" d="M275.3,411c-9.7-15-32.4-8.3-40.5-5.5s-23.1,12.1-30.5,16.7c-18.9,11.6-75.5,47.9-96.4,54.1
	c-14.6,4.4,7.5,25,7.5,25s15.5-9,25.7-12.6c21.4-7.6,52.1-11.5,87.9-22.8c9.4-3,27.2-12.2,34.9-18.3
	C285.2,430.7,278.1,415.4,275.3,411z"/>
<path class="st4" d="M332.5,299.6c2.8,27.5-14.9,54.4-14.9,54.4s-28.3,55.5-37.4,74.1c-4.3,8.8-13,27.2-35.2,17.1l0,0
	c-18.3-8.4-13.3-27.4-10-36.2c6.7-17.9,24-52.7,27.5-71.3c2.6-13.8,1.2-36.2,18.1-53.3c0,0,12.3-15.5,31.4-9.4l0.8,0.2
	C323.6,278.6,331.4,288.2,332.5,299.6L332.5,299.6z"/>
<polygon class="st4" points="506.2,493.8 502,500.5 505.4,513 509.4,525 515,519 525.1,512 "/>
<polygon class="st6" points="503.4,498.1 512.8,482.4 533.2,504.3 522,517 "/>
<polygon class="st7" points="251.9,363.6 300.2,390.3 315.6,359.2 313.1,428.4 310.5,478 306.2,525.2 484.1,533.4 470.5,456 
	473.9,347.9 473.9,347.9 520.4,365.4 551.8,316 503.2,270.7 446.9,248.7 395.7,276.2 343,246.6 284.9,274 267,295.9 "/>
<polygon class="st8" points="506.1,495 515.4,479.2 535.9,501.2 524.6,513.9 "/>
<path class="st4" d="M515.9,506.2c2,3.2,3.1,9-3,14.8c0,0-17.6,20.2-25.4,24.3c-3.5,1.8-12.8,6.3-15.4,3.3
	c-7.3-8.4-12.1-28.6-9.7-41.7c0.7-3.9,9.4-8.1,13.3-8.8c4.3-0.8,13,2.6,17.3,2.8c2.4,0,4.8-0.1,7.2-0.4
	C506.2,500,513.1,501.9,515.9,506.2z"/>
</svg>
