<svg id="Calque_1" data-name="Calque 1" xmlns="http://www.w3.org/2000/svg" viewBox="0 0 788 432.07"><defs><style>.cls-1{fill:#7a919e;}.cls-2{fill:#1a1818;}.cls-3{fill:#d48f72;}.cls-4{fill:#a85d3d;}.cls-5{fill:#95acba;}.cls-10,.cls-6{fill:#d79072;}.cls-6{stroke:#000;stroke-width:3px;}.cls-12,.cls-6{stroke-miterlimit:10;}.cls-7{fill:#9599ba;}.cls-8{fill:#605b5b;}.cls-9{fill:#bb653c;}.cls-11{fill:#adcbde;}.cls-12{fill:none;stroke:#839ba5;}</style></defs><polygon class="cls-1" points="313 121.59 313.86 94.82 374.34 94.23 374 121.59 313 121.59"/><polygon class="cls-2" points="178.49 386.13 178.38 386.17 178.38 386.09 178.49 386.13"/><polygon points="178.58 386.09 178.58 386.17 178.49 386.13 178.58 386.09"/><polygon class="cls-2" points="178.49 386.13 178.38 386.17 178.38 386.09 178.49 386.13"/><polygon points="178.58 386.09 178.58 386.17 178.49 386.13 178.58 386.09"/><path class="cls-3" d="M359.36,239.78c10.75,6.49,22.27,32.29,34.77,35,4.44.94,13.35-4.86,15.8-8.42,8.91-12.94,4.6-49.3,17.19-59.27,10.65-8.45,36.25-3.62,36.86-39.17.36-21.62-26.87-31.93-33.53-34.12a32,32,0,0,1-3.17-1.24l-40.53-18.62c-9.57-4.4-15.68-13.38-15.82-23.28l-.23-16.72-27,1.91-26.62-1.91.11,14.57c.09,11.18-6.72,21.42-17.53,26.39l-40.15,18.44s-35.41,10-35,34.58c.6,35.55,26.2,30.72,36.86,39.17,12.58,10,8.28,46.33,17.18,59.27,2.45,3.56,11.36,9.36,15.81,8.42,12.5-2.66,23.51-29.24,34.76-35C335.79,236.43,353,236,359.36,239.78Z"/><polygon class="cls-3" points="345.61 68.94 370.61 72.65 371.61 126.36 344.11 156.46 316.92 126.36 317.92 72.65 345.61 68.94"/><path class="cls-4" d="M345.61,42.08l25,3.71.23,46.26,4.33,43.52s-40.89,42.42-49,38.79c-6.75-3-18.89-64.3-18.89-64.3s6.9-5.58,9.58-17.13,1.07-47.14,1.07-47.14Z"/><path class="cls-5" d="M406.11,174.1C418,197.24,447,210,447,210s52.95,30.34,70.43,40.71c8.23,4.88,25.21,15.35,38.95-3.34h0c11.33-15.41-2.81-28.12-10.19-33.51-15-11-47.9-30.23-60.5-43.28-9.38-9.72-23.29-31.57-46.67-37,0,0-15.07-2.91-28.21,11.12l-.52.55a25,25,0,0,0-4.22,28.84Z"/><path class="cls-6" d="M274,149.5c17.78,19.66,18.25,49.41,18.25,49.41s7.78,57.22,10.69,76.25c1.38,9,4.59,27.62-19.48,31.42h0c-19.84,3.13-26.43-14.06-28.66-22.51-4.52-17.2-9.77-52.92-17.35-69-5.64-11.94-19.37-28.31-15-50.27,0,0,1.47-18.33,20.71-23.56l.76-.21A30.14,30.14,0,0,1,274,149.5Z"/><polygon class="cls-7" points="268.29 360.01 269.79 334.67 424.79 334.67 421.67 356.75 268.29 360.01"/><path class="cls-5" d="M261.06,322.22l1.63-122.4L242.14,139l65-31.19L350,156.46l36.33-45.53,64.66,27.76L440.5,232.25,413.9,299l8.18,10a20.09,20.09,0,0,1,3.27,20.33l-2.7,6.78-156.13,2.3-3.62-7.73A19.3,19.3,0,0,1,261.06,322.22Z"/><path class="cls-7" d="M406.23,263.33l1.2,9.4-8.56,5.32L400,280.9C373.34,293,307,322.82,306.4,323c-1.59.54-10.8,4.42-16.08,4.42-8.8,0-29.36-11.26-29.36-11.26s-2.15-12.9.16-12.39,123-42.53,125.81-41.89S406.23,263.33,406.23,263.33Z"/><path class="cls-8" d="M407.86,305.14,392.05,180.81c-.69-5.37,3.46-10.24,9.26-10.87l202.93-22.13c5.8-.64,11.06,3.21,11.74,8.58l15.81,124.33c.68,5.37-3.47,10.24-9.27,10.88L419.6,313.73C413.8,314.36,408.54,310.52,407.86,305.14Z"/><path class="cls-3" d="M618.78,301.23l-7.61-15a6.11,6.11,0,0,1,3.27-8.37h0a7,7,0,0,1,9,3L630,293.82a6.1,6.1,0,0,1-3.26,8.37l-2.24,1A4.47,4.47,0,0,1,618.78,301.23Z"/><path class="cls-9" d="M555.89,298.74l40.46-6.16L594.27,312a3.65,3.65,0,0,1-4.54,3l-9.54-2.21a42.57,42.57,0,0,1-17.08-8.2Z"/><path class="cls-3" d="M585.32,311.27l-5.69-11.21c-3.94-7.79-.32-17.07,8.09-20.73l2-.85c7.95-3.45,17.42-.28,21.15,7.08l5.08,10c2.37,4.69.2,10.26-4.86,12.46l-15.39,6.69A8.05,8.05,0,0,1,585.32,311.27Z"/><path class="cls-3" d="M400,241l13,18.6,11.45-2.08,24.17-3.46a16.37,16.37,0,0,0,13.16-10.15l6.73-17.81L498.29,222a8.26,8.26,0,0,0,7.28-7.84l0-1.13-34.92,2.35,1.88-4.6-17.72.29-10.39,0a32.92,32.92,0,0,0-16,4.23l-9.44,5.3c-2,2-2.65,2.94-6.43,7.78l-5.41,6.93"/><path class="cls-10" d="M258.89,287.69c-3.84-18.07,17.3-27.89,25.21-31s25.41-5.89,34-7.26c22-3.51,59.51-6.77,81-10.47,14.13-2.44,21.51-4.1,25.59,3.85,3.71,7.23-4.14,12.69-8.88,15.31-19.51,10.78-61.65,33.4-84,41.53-9.18,3.34-28.42,8.51-38.27,8.9C266,309.6,260,293,258.89,287.69Z"/><path class="cls-5" d="M268.28,128.74s-43.2,15.12-50.82,24.38c-7.31,8.87-3.09,45.31-3.09,45.31S231,285.55,252.19,305.86c5,4.77,22.43,9.19,31.36,11.21a16.83,16.83,0,0,0,10.16-.89l100.86-42.26-8.46-37-91.14,11-18-62.59"/><polygon class="cls-11" points="303.88 111.84 313.86 94.82 341.53 137.88 325.61 160.49 303.88 111.84"/><polygon class="cls-11" points="388.26 113.55 374.34 94.23 353.65 137.19 372.35 158.79 388.26 113.55"/><polygon class="cls-7" points="341.53 137.88 349.7 156.46 338.68 148.04 325.61 160.49 341.53 137.88"/><polygon class="cls-7" points="349.7 156.46 353.65 137.19 372.35 158.79 358.97 149.02 349.7 156.46"/><path class="cls-12" d="M276.75,183.07c1.34,0,18.22,64.84,18.22,64.84l91.14-11,8.46,37"/></svg>