<svg xmlns="http://www.w3.org/2000/svg" viewBox="0 0 788 432.07"><defs><style>.cls-1{fill:#1a1818;}.cls-2{fill:#473415;}.cls-3{fill:none;stroke:#4f3742;stroke-miterlimit:10;}.cls-4{fill:#6d3b25;}.cls-5{fill:#d48f72;}.cls-6{fill:#aa5e3d;}.cls-7{fill:#472e1d;}.cls-8{fill:#524428;}.cls-9{fill:#36344d;}</style></defs><g id="Calque_7" data-name="Calque 7"><polygon class="cls-1" points="230.32 334.3 230.22 334.33 230.22 334.25 230.32 334.3"/><polygon points="230.42 334.25 230.42 334.33 230.32 334.3 230.42 334.25"/><polygon class="cls-1" points="230.32 334.3 230.22 334.33 230.22 334.25 230.32 334.3"/><polygon points="230.42 334.25 230.42 334.33 230.32 334.3 230.42 334.25"/><polygon class="cls-1" points="225.67 335.57 225.57 335.6 225.57 335.52 225.67 335.57"/><polygon points="225.77 335.52 225.77 335.6 225.67 335.57 225.77 335.52"/><polygon class="cls-1" points="225.67 335.57 225.57 335.6 225.57 335.52 225.67 335.57"/><polygon points="225.77 335.52 225.77 335.6 225.67 335.57 225.77 335.52"/><polygon class="cls-2" points="312.05 309.45 313.55 288.61 468.55 288.61 470.55 306.67 312.05 309.45"/><polygon class="cls-3" points="389.92 345.15 384.92 308.1 399.92 308.1 398.92 338 389.92 345.15"/><path class="cls-4" d="M377.5,42.7c.12-3.34,9.84-7.1,18.56-6,8.9,1.17,16.41,7.4,15.76,9.1-.45,1.2-5.2.82-8.75-.35-5.15-1.7-5.14-4.18-8.41-4.55C389,40.3,386.9,46,382,44.59,380.24,44.1,377.46,44.16,377.5,42.7Z"/><path class="cls-5" d="M118.2,290.73s-18.46-7-21.5-6.81-15.78,3.24-18.16,2.95S62,281.56,61.77,283.34s-.14,8.74-.14,8.74L73,297.67l14.75.26-18.25,13.8S42.15,325.57,40.32,326s1.08,8.91,1.08,8.91l34.66-14.83L43.75,345.43l6,7.67,34.31-27L54.47,359.09l8.83,4.38,27.25-28.4L76,361.07s8,4,9.11,2,17-23.59,17-23.59l27.8-22.91,1.4-9.18Z"/><polygon class="cls-5" points="225.27 359.06 225.37 359.02 225.27 358.97 225.27 359.06"/><polygon class="cls-5" points="225.37 359.02 225.47 359.06 225.47 358.97 225.37 359.02"/><polygon class="cls-5" points="225.27 359.06 225.37 359.02 225.27 358.97 225.27 359.06"/><polygon class="cls-5" points="225.37 359.02 225.47 359.06 225.47 358.97 225.37 359.02"/><path class="cls-5" d="M510.86,123.34c-.6,38.39-26.2,33.17-36.86,42.29-12.58,10.77-8.27,50-17.18,64-2.45,3.84-11.36,10.1-15.8,9.08C428.51,235.85,417,208,406.25,201c-6.33-4.12-23.57-3.62-30.19,0-11.25,6.16-22.27,34.86-34.77,37.73-4.44,1-13.35-5.24-15.8-9.08-8.91-14-4.6-53.24-17.19-64-10.65-9.12-36.25-3.9-36.86-42.29-.41-26.59,35-37.34,35-37.34l40.15-19.91a31.4,31.4,0,0,0,7.1-4.82A29.11,29.11,0,0,0,356,59l.63-.71,0-.06a31.55,31.55,0,0,0,7.22-16.43,30.71,30.71,0,0,0,.25-4.19l0-2.84,0-4.51H417.7l.06,5,0,1.5,0,3.21c0,.33,0,.67,0,1v0c0,.65.09,1.3.16,1.95a29.38,29.38,0,0,0,.93,4.57,28.5,28.5,0,0,0,14.7,17.59l40.53,20.1a27.41,27.41,0,0,0,3.16,1.33C484,88.87,511.23,100,510.86,123.34Z"/><path class="cls-5" d="M418.5,78.52,391,111,376.2,93.33,363.81,78.52,364.53,37l0-2.21.08-4.51h53v.23l.08,4.66v0l0,1.56.07,4.21v0l0,1.28L418,49Z"/><path class="cls-6" d="M419,47.77,418,49c-5.16,6.33-28.83,35-41.79,44.31-3.2,2.29-5.74,3.39-7.2,2.69-6.76-3.26-14.84-35.1-14.84-35.1l.08-.07A21,21,0,0,0,356,59q.48-.57,1-1.32l.06-.08a39.39,39.39,0,0,0,6.66-15.16c0-.21.09-.42.13-.64.26-1.37.48-3,.66-4.82.07-.71.13-1.45.19-2.21.11-1.42.2-2.94.28-4.51h52.67v.23l0,4.28,0,6.72.15.76.14.67.93,4.57Z"/><path class="cls-5" d="M453,130.07c11.91,25,40.93,38.77,40.93,38.77s53,32.77,70.44,44c8.23,5.28,25.21,16.58,38.95-3.61h0c11.33-16.63-2.81-30.35-10.19-36.17-15-11.83-47.91-32.65-60.5-46.74-9.38-10.49-19.75-30.33-43.13-36.2,0,0-18.61-6.9-31.75,8.26l-.52.59A28.71,28.71,0,0,0,453,130.07Z"/><path class="cls-5" d="M589.3,175.26c-18.55-7.17-32.67,11.81-37.39,19s-10.68,23.93-13.63,32.14c-7.55,21-17.53,57.34-25.19,77.81-5.05,13.46-8.09,20.41-.35,25.92,7,5,16.12-5.75,19.73-9.92,14.86-17.19,44.31-50.41,56.84-70.91,5.15-8.41,14-26.38,16.11-36C611.37,186.34,594.69,177.35,589.3,175.26Z"/><path class="cls-5" d="M275.3,231.29c-9.7-15-32.38-8.32-40.5-5.46S211.66,238,204.26,242.52c-18.95,11.64-75.52,47.88-96.36,54.1-14.59,4.35,7.51,25,7.51,25s15.52-9,25.69-12.62c21.37-7.59,52.09-11.55,87.86-22.83,9.41-3,27.22-12.24,34.87-18.26C285.25,251,278.13,235.65,275.3,231.29Z"/><path class="cls-5" d="M332.46,119.85c2.77,27.54-14.91,54.37-14.91,54.37s-28.3,55.47-37.44,74.1c-4.31,8.78-13,27.24-35.19,17.11h0c-18.31-8.36-13.33-27.42-10-36.22,6.7-17.9,24.05-52.75,27.51-71.33,2.58-13.84,1.17-36.18,18.12-53.31,0,0,12.34-15.55,31.44-9.4l.75.24a28.69,28.69,0,0,1,19.75,24.44Z"/><path class="cls-5" d="M515.92,326.5c2,3.19,3.07,9-3,14.84,0,0-17.63,20.22-25.4,24.34-3.47,1.84-12.79,6.25-15.38,3.3-7.33-8.38-12.06-28.61-9.72-41.73.71-3.93,9.41-8.05,13.33-8.82,4.31-.84,13,2.63,17.34,2.78a67.49,67.49,0,0,0,7.19-.39C506.2,320.27,513.14,322.14,515.92,326.5Z"/><polygon class="cls-5" points="506.16 314.07 502.02 320.76 505.39 333.25 509.36 345.33 514.95 339.31 525.1 332.27 506.16 314.07"/><polygon class="cls-7" points="503.44 318.4 512.77 302.65 533.24 324.56 521.99 337.29 503.44 318.4"/><polygon class="cls-8" points="251.95 183.86 300.23 210.56 315.59 179.47 313.15 248.69 310.47 298.33 306.2 345.47 470.92 353.05 469.55 285.16 469.24 243.03 473.94 168.13 520.38 185.69 551.84 136.32 503.2 90.97 446.88 69.03 395.68 96.45 343.01 66.83 284.87 94.26 266.95 116.2 251.95 183.86"/><polygon class="cls-9" points="506.08 315.28 515.41 299.53 535.88 321.44 524.63 334.17 506.08 315.28"/></g></svg>