<svg id="Calque_1" data-name="Calque 1" xmlns="http://www.w3.org/2000/svg" viewBox="0 0 788 432.07"><defs><style>.cls-1{fill:#1a1818;}.cls-2{fill:#d48f72;}.cls-3{fill:#aa5e3d;}.cls-4{fill:none;stroke:#000;stroke-miterlimit:10;stroke-width:3px;}.cls-5{fill:#fff;}.cls-6{fill:#d79072;}.cls-7{fill:#473415;}.cls-8{fill:#ddd;}.cls-9{fill:#9b1717;}.cls-10{fill:#5b3c25;}.cls-11{fill:#472e1d;}.cls-12{fill:#b81717;}.cls-13{fill:#898c68;}</style></defs><polygon class="cls-1" points="230.32 373.14 230.22 373.18 230.22 373.1 230.32 373.14"/><polygon points="230.42 373.1 230.42 373.18 230.32 373.14 230.42 373.1"/><polygon class="cls-1" points="230.32 373.14 230.22 373.18 230.22 373.1 230.32 373.14"/><polygon points="230.42 373.1 230.42 373.18 230.32 373.14 230.42 373.1"/><path class="cls-2" d="M411.2,226.79c10.75,6.49,22.27,32.28,34.77,34.94,4.44.95,13.35-4.85,15.8-8.41,8.91-12.94,4.6-49.3,17.19-59.28,10.65-8.44,36.25-3.61,36.86-39.16.36-21.62-26.87-31.93-33.53-34.13a27,27,0,0,1-3.17-1.24L438.59,100.9c-9.57-4.4-15.68-13.39-15.82-23.28l-.23-16.72-27,1.91L369,60.89l.11,14.57c.09,11.18-6.72,21.43-17.53,26.4L311.39,120.3s-35.41,10-35,34.58c.6,35.55,26.2,30.72,36.85,39.16,12.59,10,8.28,46.34,17.19,59.28,2.45,3.56,11.36,9.36,15.8,8.41,12.51-2.66,23.52-29.23,34.77-34.94C387.63,223.43,404.88,223,411.2,226.79Z"/><polygon class="cls-2" points="398.26 55.95 423.26 59.65 424.26 113.37 396.76 143.47 369.57 113.37 370.57 59.65 398.26 55.95"/><path class="cls-3" d="M400.6,29.09l23.66,3.71L423.2,76.63s-10.13,11-13.86,14.27c-6.69,5.91-24.21,18.32-32.56,14.69-6.94-3-17.67-8.52-17.67-8.52s7.09-5.59,9.85-17.13c.48-2,.39-5.07.34-8.33-.62-36,.77-38.9.76-38.81Z"/><path class="cls-4" d="M456.2,147.88c-1.33,25.61,17.73,49.57,17.73,49.57s31.16,49.93,41.26,66.72c4.77,7.91,14.38,24.57,36,14.12h0c17.85-8.62,11.88-26,8.13-34-7.63-16.23-26.77-47.63-31.2-64.64-3.3-12.67-3.06-33.4-20.88-48.43,0,0-13.14-13.78-31.88-7.17l-.74.26c-10.66,3.76-17.9,13-18.45,23.55Z"/><path class="cls-5" d="M465.74,305.38c-.88-3.72-5.67-23.41-5.62-31.33.06-8.5,4-25.66,1.81-34-9.77-36.66-123.54-36.72-133.32,0-2.21,8.29,1.74,25.45,1.8,34,.06,7.92-4.73,27.61-5.62,31.33-11,46.6,70.35,67.95,70.35,67.95S476.78,352,465.74,305.38Z"/><path class="cls-6" d="M207.5,248.41c-19.56,3.34-29.91-16.36-33.21-23.72s-6.06-23.61-7.44-31.59c-3.53-20.44-6.6-55.19-10.34-75.13-2.46-13.11-4.16-20,4.47-23.65,7.85-3.35,14.78,8,17.55,12.42,11.41,18.19,34.19,53.48,42.71,74.28,3.5,8.54,8.85,26.42,9.15,35.55C231.24,242.11,213.19,247.44,207.5,248.41Z"/><path class="cls-4" d="M333.71,164.81c-11.91,23.14-40.93,35.91-40.93,35.91s-52.95,30.34-70.43,40.71c-8.23,4.88-25.22,15.35-38.95-3.34h0c-11.33-15.41,2.81-28.12,10.19-33.5,15-11,47.9-30.24,60.5-43.29,9.38-9.72,19.75-28.09,43.13-33.52,0,0,18.61-6.39,31.75,7.64l.52.55a25,25,0,0,1,4.22,28.84Z"/><polygon class="cls-7" points="316.71 347.02 318.21 326.18 473.21 326.18 475.21 344.24 316.71 347.02"/><path class="cls-6" d="M562.06,248.29c-9-16.41-32.21-12-40.52-10s-23.93,9.9-31.61,13.74c-19.66,9.84-51.32,28.71-70.69,38.08-12.74,6.17-19.64,9.08-17.56,17.67,1.9,7.81,15.84,6,21.32,5.35,22.53-2.67,66.64-7.37,89.65-13.76,9.45-2.62,28-9.56,36-14.89C571.1,269.58,564.69,253.06,562.06,248.29Z"/><path class="cls-2" d="M173.6,96.73,169.51,78l-13-23.4s-4.54,3.1-4.93,4.69c-1.24,5,1.88,12.65,3.51,17.55.22.65-.59,3.68-1.2,4.07-2.5,1.57-7.27-2.37-7.27-2.37L157,95Z"/><path class="cls-2" d="M168.41,92.9l-16.25,12.69L120.07,75.81,100.59,35s6.57-1.28,8.5-.46c10.08,4.29,19.72,24.76,26.81,32.63C143.55,75.71,168.41,92.9,168.41,92.9Z"/><ellipse class="cls-2" cx="161.67" cy="98.84" rx="12.15" ry="11.21" transform="translate(-1.55 2.59) rotate(-0.91)"/><path class="cls-8" d="M345,106.4c1.34-1.24,17.42-18.83,18.88-18.81.67,0,13.77,29.29,29,29.69,18.46.47,36.1-29.69,36.1-29.69l8.94,13,5,148.65-98,1.24Z"/><path class="cls-8" d="M160.1,155l-5.58-28.7s28-17.7,29.5-16.84,8.45,19.38,8.45,19.38Z"/><path class="cls-9" d="M385.53,132.63l18.28,0s14.22,62.74,13.56,64.64-9.3,49.43-9.17,50.57-12.58,14.83-12.58,14.83-12.79-17.11-13.44-19-4.67-43-5.68-44.49S385.53,132.63,385.53,132.63Z"/><path class="cls-10" d="M483.19,314.05l17.86,81.54a3.87,3.87,0,0,1-3.58,4.55c-16.62,1.69-58,13-72.66,8.86-8.54-2.38-16.69-23-18.14-27.5a6.85,6.85,0,0,1-.62-1.87c-.54-14.36-6.79-157.28-4.13-177.68S424.09,118.79,429,98.32c.58-2.37,1.17-4.57,1.17-4.57L484,116.64l.24.09,25.52,9.14a4,4,0,0,1,2,1.53l14.14,21a3.68,3.68,0,0,1,.4.76L565.55,253a3.72,3.72,0,0,1-2.15,4.73l-83.95,36a3.73,3.73,0,0,0-2.15,4.74l5.74,15A2.38,2.38,0,0,1,483.19,314.05Z"/><path class="cls-10" d="M362,93.16S391.53,187,391.53,201.4s.32,169.38-7.46,177.92-20.43,25.09-34,25.09-46.58-7.31-46.58-7.31c-7-1.09-11.5-7.42-9.87-13.8l15.81-80.52,5.54-50-9.28-55.75s-98.5,57.81-101.82,57.26c-21.11-3.49-30.27-24.43-30.27-24.43L146.6,151s42.67-27.92,43.84-28.73c4-2.74,30.8,58.2,30.8,58.2l55.15-51.25Z"/><path class="cls-11" d="M360.94,89.69l-9.84,8.06-6.23,85.67L362,191.33v19.09s26,75.83,27.57,73.53,2-70.26,2-70.26V201.4l-15.1-60.65Z"/><path class="cls-12" d="M380.61,124.32c.92-1.63,6.73-12.24,8.88-14.17,1.69-1.52,11.76,0,11.76,0l8.94,13.13s-3.71,8.89-6.57,10.13c-1.49.65-8.81.38-17.22,0C384.11,133.31,381.43,125,380.61,124.32Z"/><path class="cls-11" d="M431.44,91l8.06,6.74,6.23,85.67-17.13,7.91v19.09S402.56,286.25,401,284s-2-70.26-2-70.26V201.4l15.1-60.65Z"/><path class="cls-5" d="M423.63,79.94,431.44,91l-19.17,39.63s-7.76-16.68-11-20.49C399.81,108.47,423.63,79.94,423.63,79.94Z"/><polygon class="cls-13" points="375.39 213.88 382.88 340.81 487 336.45 498.57 212.45 375.39 213.88"/><path class="cls-5" d="M368.69,79.94l-7.75,9.75,18,40.95s7.06-16.67,11.8-21C392.43,108.15,368.69,79.94,368.69,79.94Z"/><polygon class="cls-2" points="418.21 291 398.65 278.46 376.43 273.42 379.39 281.63 389.57 285.99 393.7 291.86 379.99 292.21 379.67 282.8 373.33 281.97 362 294.95 366.41 322.88 385.76 329.28 419.93 313.83 429.81 310.94 450.17 306.31 433.08 286.91 424.23 290.18 418.21 291"/><path class="cls-8" d="M463.93,315.24l-31.37,2s-16.3-26.56-15.23-27.81S439,284,439,284Z"/><path class="cls-10" d="M429.3,285c2.67,3.9,25.49,52.67,27.35,50.72s98.2-54.1,98.2-54.1l.23-.12a19.33,19.33,0,0,0,10.16-16.23l.29-11.31S543.7,236.19,541.4,236.2s-39.28,8.94-42.67,8.57S429.3,285,429.3,285Z"/><ellipse class="cls-11" cx="159.2" cy="157.03" rx="4.68" ry="4.34"/><ellipse class="cls-11" cx="163.88" cy="171.25" rx="4.68" ry="4.34"/><ellipse class="cls-11" cx="478.46" cy="311.31" rx="4.68" ry="4.34"/><ellipse class="cls-11" cx="463.93" cy="319.98" rx="4.68" ry="4.34"/></svg>