<svg xmlns="http://www.w3.org/2000/svg" viewBox="0 0 788 432.07"><defs><style>.cls-1{fill:#1a1818;}.cls-2{fill:#473415;}.cls-3{fill:#d08d72;}.cls-4{fill:#a45c3d;}.cls-5{fill:#d79072;}.cls-6{fill:#005f56;}</style></defs><g id="Calque_5" data-name="Calque 5"><polygon class="cls-1" points="230.32 345.7 230.22 345.73 230.22 345.65 230.32 345.7"/><polygon points="230.42 345.65 230.42 345.73 230.32 345.7 230.42 345.65"/><polygon class="cls-1" points="230.32 345.7 230.22 345.73 230.22 345.65 230.32 345.7"/><polygon points="230.42 345.65 230.42 345.73 230.32 345.7 230.42 345.65"/><polygon class="cls-2" points="316.71 319.58 318.21 298.74 473.21 298.74 475.21 316.8 316.71 319.58"/><path class="cls-3" d="M117.22,106.54,102,92.64,76.54,79.94s-1.69,5.38-1,7c2.19,5.1,9.58,9.92,14,13.22.59.44,1.87,3.56,1.62,4.25-1,2.85-7.38,2.23-7.38,2.23l18.87,8.24Z"/><path class="cls-3" d="M110.58,106.27l-5,20.65-44.89-7L19,95.93s4.49-5,6.57-5.42C36.38,88.28,57.23,100.42,68,103.1,79.56,106,110.58,106.27,110.58,106.27Z"/><ellipse class="cls-3" cx="108.93" cy="115.42" rx="12.15" ry="12.1" transform="translate(-48.33 136.79) rotate(-54.39)"/><path class="cls-3" d="M515.27,131.33c-.6,38.39-26.2,33.17-36.86,42.29-12.58,10.77-8.27,50-17.18,64-2.45,3.84-11.36,10.1-15.8,9.08-12.51-2.87-24-30.73-34.77-37.73-6.33-4.12-23.57-3.62-30.19,0-11.25,6.16-22.27,34.86-34.77,37.73-4.44,1-13.35-5.24-15.8-9.08-8.91-14-4.6-53.24-17.19-64-10.65-9.12-36.25-3.9-36.86-42.29-.41-26.59,35-37.34,35-37.34L351,74.08a31.4,31.4,0,0,0,7.1-4.82A29.11,29.11,0,0,0,360.38,67l.63-.71.05-.06a31.55,31.55,0,0,0,7.22-16.43,30.71,30.71,0,0,0,.25-4.19l0-2.84,0-4.51h53.63l.06,5,0,1.5,0,3.21c0,.33,0,.67,0,1v0c0,.65.09,1.3.16,2a29.38,29.38,0,0,0,.93,4.57,28.5,28.5,0,0,0,14.7,17.59l40.53,20.1a27.41,27.41,0,0,0,3.16,1.33C488.41,96.86,515.64,108,515.27,131.33Z"/><path class="cls-3" d="M422.91,86.51,395.41,119l-14.8-17.69L368.22,86.51,368.94,45l0-2.21.08-4.51h53v.23l.08,4.66v0l0,1.56.07,4.21v0l0,1.28L422.4,57Z"/><path class="cls-4" d="M423.41,55.76l-1,1.25c-5.16,6.33-28.83,35-41.79,44.31-3.2,2.29-5.74,3.39-7.2,2.69-6.76-3.26-14.84-35.1-14.84-35.1l.08-.07A21,21,0,0,0,360.38,67q.48-.57,1.05-1.32l.06-.08a39.39,39.39,0,0,0,6.66-15.16c0-.21.09-.42.13-.64.26-1.37.48-3,.66-4.82.07-.71.13-1.45.19-2.21.11-1.42.2-2.94.28-4.51h52.67v.23l0,4.28,0,6.72.15.76.14.67.93,4.57Z"/><path class="cls-3" d="M457.69,128.35c-1.23,27.66,18,53.47,18,53.47s31.44,53.83,41.64,71.93c4.8,8.53,14.51,26.49,36.18,15.15h0c17.87-9.36,11.82-28.11,8-36.72-7.71-17.5-27-51.35-31.53-69.71-3.36-13.67-3.2-36.06-21.13-52.24,0,0-13.23-14.84-32-7.65l-.74.28a28.69,28.69,0,0,0-18.41,25.49Z"/><path class="cls-5" d="M232.3,236c10.95-14.12-2.85-33.31-8.24-40S205,178.16,198.21,172.68c-17.24-14-68.23-48.53-81-66.14-8.93-12.33-23,8.42-23,8.42s13.63,11.67,20.4,20.07c14.22,17.66,28.11,45.35,50.58,75.38,5.91,7.9,20.55,21.64,28.76,26.88C217,251.93,229.12,240.13,232.3,236Z"/><path class="cls-3" d="M334.81,138.34c-8.54,26.33-35.52,43.78-35.52,43.78s-48.23,39.39-64.1,52.77c-7.47,6.3-22.83,19.72-39.09,1.5h0c-13.4-15-1.17-30.46,5.39-37.19,13.33-13.69,43.24-38.62,53.88-54.23,7.93-11.63,15.63-32.65,38-41.52,0,0,17.56-9.26,32.56,4l.59.53a28.68,28.68,0,0,1,8.25,30.32Z"/><polygon class="cls-6" points="203.04 166.22 185.73 189.44 179.64 229.97 210.1 256.93 316.46 188.84 319.02 259.06 311.34 307.7 312.07 344.84 481.79 342.43 483.72 293.34 467.11 257.4 469.93 210.53 473.99 197.31 531 279.83 565.49 281.63 586.37 253.35 549.27 172.06 514.07 100.34 447.75 78.4 396.56 105.83 343.89 76.21 284.74 103.64 263.82 125.58 239.14 156.82 203.04 166.22"/><path class="cls-5" d="M568.11,259.45c2.8-17.2-16.25-30.35-23.35-34.74s-22.69-10-30.35-12.73c-19.62-7.06-52.91-16.4-72-23.57-12.59-4.71-19.17-7.55-22.52-.38-3,6.53,7.94,15,12.23,18.34,17.62,13.83,51.82,41.25,71.88,52.93,8.24,4.79,25.44,13,34.17,15C562.56,279.91,567.29,264.45,568.11,259.45Z"/><path class="cls-5" d="M460.09,196.8l-10.5-5.66s-20.43-22.71-21.33-23.6S412.05,153.8,411,152.76s-8.57-10.91-8.57-10.91l-4.77,9.6,7.82,11.36,9.31,9.26-23.67-4.43s-35.67-10.38-36.27-9.18-1.47,8.09-.27,8.68,34.77,11.29,34.77,11.29-42.55-5.87-42.84-3.78-.57,9.59,1.23,9.58,38,3.79,38,3.79-38.61,2.82-38,4,3,8.4,3,8.4l37.78-1.33-26.63,8.76s4.51,7.47,5.71,7.47,30.53-8.47,30.53-8.47,29.64,3.06,31.15,2.31c4.4-2.21,14.39,4.15,14.39,4.15Z"/></g></svg>