<svg id="Calque_1" data-name="Calque 1" xmlns="http://www.w3.org/2000/svg" viewBox="0 0 788 432.07"><defs><style>.cls-1{fill:#1a1818;}.cls-2{fill:#d48f72;}.cls-3,.cls-5{fill:none;}.cls-3{stroke:#000;stroke-miterlimit:10;stroke-width:3px;}.cls-4{fill:#d79072;}.cls-6{fill:#46455b;}.cls-7{fill:#c77a58;}.cls-8{fill:#37344d;}.cls-9{fill:#da9172;}</style></defs><polygon class="cls-1" points="187.21 365.67 187.11 365.71 187.11 365.62 187.21 365.67"/><polygon points="187.31 365.62 187.31 365.71 187.21 365.67 187.31 365.62"/><polygon class="cls-1" points="187.21 365.67 187.11 365.71 187.11 365.62 187.21 365.67"/><polygon points="187.31 365.62 187.31 365.71 187.21 365.67 187.31 365.62"/><path class="cls-2" d="M368.09,219.32c10.74,6.48,22.27,32.28,34.77,34.94,4.44,1,13.35-4.86,15.8-8.41,8.91-12.94,4.6-49.3,17.19-59.28,10.65-8.45,36.25-3.61,36.85-39.17.37-21.61-26.86-31.92-33.53-34.12A31.86,31.86,0,0,1,436,112L395.48,93.42C385.91,89,379.8,80,379.66,70.15l-.23-16.72-27,1.91-26.62-1.92L326,68c.09,11.18-6.72,21.43-17.54,26.39l-40.15,18.44s-35.4,10-35,34.58c.61,35.56,26.21,30.72,36.86,39.17,12.59,10,8.28,46.34,17.19,59.28,2.45,3.55,11.36,9.36,15.8,8.41,12.5-2.66,23.52-29.24,34.77-34.94C344.52,216,361.76,215.5,368.09,219.32Z"/><polygon class="cls-2" points="354.34 48.48 379.34 52.18 380.34 105.89 352.84 135.99 325.65 105.89 326.65 52.18 354.34 48.48"/><path class="cls-3" d="M414.83,153.63c11.91,23.14,40.93,35.91,40.93,35.91s53,30.34,70.43,40.71c8.24,4.89,25.22,15.35,39-3.34h0c11.33-15.41-2.81-28.11-10.19-33.5-15-11-47.91-30.24-60.5-43.29-9.38-9.72-19.75-28.09-43.13-33.52,0,0-18.61-6.39-31.75,7.64l-.52.56a25,25,0,0,0-4.23,28.83Z"/><path class="cls-4" d="M551.14,195.49c-18.56-6.64-32.67,10.93-37.39,17.6s-10.68,22.16-13.63,29.77c-7.55,19.48-17.53,53.1-25.19,72.05-5.05,12.47-8.09,18.9-.35,24,7.05,4.64,16.12-5.32,19.73-9.19,14.86-15.92,44.31-46.69,56.84-65.67,5.15-7.79,14-24.43,16.11-33.36C573.21,205.75,556.53,197.42,551.14,195.49Z"/><path class="cls-3" d="M422.63,297.9c-.88-3.71-5.67-23.4-5.62-31.33.06-8.49,4-25.66,1.81-33.94-9.78-36.66-123.54-36.73-133.33,0-2.21,8.28,1.75,25.45,1.81,33.94.05,7.93-4.74,27.62-5.62,31.33-11,46.61,70.35,68,70.35,68S433.66,344.51,422.63,297.9Z"/><path class="cls-5" d="M391.21,284.15c16.15,4.84,23.2,8.92,27,15.34,3.11,5.2,6,17.11,6.27,23.06.54,13.95-7.77,49-21.93,60.73-14.4,11.91-84.79,11.91-99.19,0-14.16-11.7-22.48-46.78-21.93-60.73.23-5.95,3.16-17.86,6.27-23.06,3.84-6.42,10.88-10.5,27-15.34,18.49-5.54,37.3-4.66,37.3-4.66S372.72,278.61,391.21,284.15Z"/><path class="cls-4" d="M173,254.05c19.89-.14,26.05-21.29,27.8-29.09s1.14-24.25.87-32.33c-.7-20.69-4.76-55.35-5.14-75.59-.25-13.3,0-20.33-9.2-22.44-8.39-1.92-12.89,10.43-14.71,15.26-7.5,19.86-22.7,58.49-26.83,80.41-1.69,9-3.31,27.48-1.75,36.5C148.41,252,167.22,254.09,173,254.05Z"/><path class="cls-3" d="M292.24,153.9c-8.55,24.38-35.52,40.54-35.52,40.54s-48.23,36.48-64.1,48.87c-7.48,5.84-22.84,18.27-39.09,1.4h0c-13.4-13.91-1.17-28.22,5.38-34.45,13.34-12.68,43.24-35.76,53.89-50.22,7.93-10.77,15.62-30.24,38-38.45,0,0,17.55-8.58,32.56,3.74l.59.49c8.53,7,11.77,18,8.25,28.08Z"/><path class="cls-6" d="M379.53,65.36s3.07,19.92,11.6,24.77c7,4,39.18,19.41,61.18,24.79C487.2,123.44,523.13,174,562.16,196c7.29,4.11,8.88,19.12,8.48,24.68-.75,10.32-10.2,28.34-15.74,38.72-10.71,20.06-51.11,68.45-51.11,68.45l-2.52,3.64A8.44,8.44,0,0,1,489,332.94L475.7,321.49a9.83,9.83,0,0,1-2.3-12.41l7.63-13.5,26.53-73.86-67.71-36.89-10.27,61.59,17.71,109L434,374.89l-168.78.36-6.68-13.47,14.9-118-6.89-52.33s-51.92,40-68.2,52.31c-6.63,5-25.81,15-34.19,13.44-8-1.48-19-13.43-21.24-20.14-3.46-10.15-2.82-32.09-.73-42.55,3.35-16.77,16.8-59.56,21.64-74.74a6.87,6.87,0,0,1,7.77-4.43l26.06,4.33a4.37,4.37,0,0,1,3.75,4.18l.07,46.77s24.89-39.1,38.33-46c31.52-16.3,70.74-30.89,76.21-34.93,7.48-5.51,9.94-24.23,9.94-24.23"/><path class="cls-4" d="M477.76,335.55c2,2.95,3.06,8.36-3,13.74,0,0-17.63,18.72-25.4,22.54-3.48,1.71-12.79,5.8-15.38,3.06-7.33-7.77-12.07-26.5-9.72-38.65.7-3.64,9.41-7.46,13.33-8.16,4.31-.78,13,2.43,17.34,2.57a71.64,71.64,0,0,0,7.19-.36C468,329.78,475,331.51,477.76,335.55Z"/><polygon class="cls-7" points="468 324.03 463.86 330.23 467.23 341.8 471.2 352.99 476.79 347.41 486.93 340.89 468 324.03"/><polygon class="cls-8" points="465.28 328.05 474.61 313.46 495.08 333.75 483.83 345.54 465.28 328.05"/><path class="cls-4" d="M185.5,103.09c-3-1.67-6.46-6-4.42-13.46,0,0,4.46-24.54,8.6-31.46,1.84-3.09,7-11,10.38-9.72,9.47,3.46,22.32,17.77,26.46,29.52,1.24,3.52-3.62,10.87-6.31,13.29-3,2.65-11.2,3.79-14.66,5.67a61.16,61.16,0,0,0-5.38,3.62C195.84,103.7,189.63,105.37,185.5,103.09Z"/><polygon class="cls-9" points="198.7 108.74 198.85 101.39 190.58 92.76 182.03 84.75 180.44 92.21 175.79 102.59 198.7 108.74"/><polygon class="cls-8" points="199.51 104.97 199.85 120.18 169.01 115.52 175.91 99.23 199.51 104.97"/></svg>