<svg id="Calque_1" data-name="Calque 1" xmlns="http://www.w3.org/2000/svg" viewBox="0 0 788 432.07"><defs><style>.cls-1{fill:#d48f72;}.cls-2{fill:#a85d3d;}.cls-3{fill:#d79072;}.cls-4{fill:#66463a;}</style></defs><path class="cls-1" d="M409.05,290.88c10.75,6.49,22.27,32.28,34.77,34.95,4.44.94,13.36-4.86,15.81-8.42,8.9-12.94,4.59-49.3,17.18-59.27,10.66-8.45,36.26-3.62,36.86-39.17.37-21.62-26.86-31.93-33.53-34.12a32,32,0,0,1-3.17-1.24L436.44,165c-9.57-4.4-15.68-13.38-15.81-23.28L420.39,125l-26.95,1.91L366.81,125l.12,14.56c.08,11.18-6.72,21.43-17.54,26.4l-40.15,18.44s-35.41,10-35,34.58c.6,35.55,26.2,30.72,36.86,39.17,12.59,10,8.28,46.33,17.18,59.27,2.45,3.56,11.37,9.36,15.81,8.42,12.5-2.67,23.52-29.24,34.77-34.95C385.48,287.52,402.73,287.07,409.05,290.88Z"/><polygon class="cls-1" points="395.3 120.04 420.3 123.75 421.3 177.46 393.8 207.56 366.62 177.46 367.62 123.75 395.3 120.04"/><path class="cls-2" d="M395.3,93.18l25,3.71.23,46.26L421.8,149s-19.37,38.36-49.69,31.8c-7.3-1.58-15.14-19.62-15.14-19.62s6.89-5.59,9.57-17.13,1.08-47.14,1.08-47.14Z"/><path class="cls-1" d="M454.71,203.86c21.79-15.82,53.91-15.29,53.91-15.29s62-5.36,82.63-7.44c9.73-1,30-3.36,33.29,19h0c2.74,18.47-16,24-25.23,25.81-18.7,3.63-57.42,7.33-75,13.83-13.07,4.84-31.19,17-54.74,12.25,0,0-19.73-1.94-24.76-19.93l-.2-.71c-2.86-10.22,1.1-21,10.07-27.56Z"/><path class="cls-3" d="M602.18,222.5c-19.72,2.41-29-17.75-31.86-25.26s-4.74-23.87-5.68-31.91c-2.38-20.58-3.52-55.43-6.15-75.52-1.73-13.21-3.06-20.13,5.77-23.4,8-3,14.31,8.68,16.84,13.23,10.38,18.71,31.18,55,38.54,76.22,3,8.69,7.37,26.8,7.17,35.93C626.24,217.34,607.91,221.8,602.18,222.5Z"/><path class="cls-1" d="M335.28,209c5.33,25.15-9.77,51.42-9.77,51.42S302.5,314,295.14,332c-3.47,8.47-10.38,26.24-33.44,18.81h0c-19-6.12-15.82-24.13-13.37-32.53,5-17.08,19-50.71,20.75-68.14,1.28-13-2.22-33.46,13.07-50.73,0,0,10.84-15.4,30.42-11.38l.77.16c11.13,2.29,19.75,10.46,21.94,20.83Z"/><path class="cls-1" d="M558.21,68l6.54-18.12,16-21.74s4.1,3.58,4.28,5.21c.57,5.1-3.54,12.34-5.81,17-.3.62.1,3.72.66,4.17,2.27,1.85,7.53-1.53,7.53-1.53L575,68.21Z"/><path class="cls-1" d="M563.87,64.81l14.45,14.44,35.79-25.92,24.72-38.25s-6.35-2-8.37-1.42C619.89,16.77,607.61,36,599.53,43,590.81,50.58,563.87,64.81,563.87,64.81Z"/><ellipse class="cls-1" cx="569.77" cy="71.47" rx="11.22" ry="12.15" transform="translate(486.41 639.62) rotate(-88.8)"/><path class="cls-4" d="M319.13,426.07c-1.35-2.13-4.57-15-4.57-15s-.75-23.8,4.57-36.57,38.76-26.18,83.3-23.54,56.09,11.82,63.63,20.73-1.5,19.16-3.51,20.09c.36-.17-140.31,48.21-143.42,36.47"/><path class="cls-4" d="M299.93,187.34s20.22,20.72,21.12,38.12S316.54,270,316.54,270s-2.7,107.25-.9,111.54-5.81,17.63-2.44,29.62,70.25-22.6,87.87-27.2,70.76-7.19,67.9-7.07-12.06-46.47-6.92-56.71,11.59-60.24,11.59-60.24c1.82-1.75,13.11-63.92-4.7-79.35L436.44,165h0c-2.48,12.89-14.11,22.55-28.21,23.47-17.72,1.15-36.28,3.12-46.74,4.31-8.86,1-17.66-3-21.76-10.34a15.78,15.78,0,0,1-2-10.77Z"/><path class="cls-3" d="M245.73,345.38c-8.78-16.53,8.88-31.1,15.63-36s22.89-11.81,30.81-15.21c20.29-8.69,55.57-20.86,75.28-29.61,13-5.75,19.61-9.13,25.79-2.43,5.61,6.08-4.3,15.34-8.14,19-15.82,15.11-46.3,45-65.61,58.24-7.93,5.43-25.05,15.05-34.45,17.8C258.72,364.83,248.28,350.19,245.73,345.38Z"/><path class="cls-3" d="M386.67,281.24l16.54-11.41L420.52,249s-4.95-2.49-6.68-2.14c-5.41,1.09-11.55,7-15.64,10.42-.55.46-3.85,1.07-4.49.72-2.6-1.42-.78-7.1-.78-7.1l-11.69,15.71Z"/><path class="cls-3" d="M388.2,275.26l-19.32-8.21,15.41-39.57,31.52-33.7s4.05,5,4.07,6.93c.11,10.27-15.78,27.07-20.45,36.37C394.39,247.11,388.2,275.26,388.2,275.26Z"/><ellipse class="cls-3" cx="379.52" cy="272.14" rx="11.23" ry="12.13" transform="translate(96.82 643.86) rotate(-88.39)"/></svg>