<?xml version="1.0" encoding="utf-8"?>
<!-- Generator: Adobe Illustrator 26.0.2, SVG Export Plug-In . SVG Version: 6.00 Build 0)  -->
<svg version="1.1" id="Calque_1" xmlns="http://www.w3.org/2000/svg" xmlns:xlink="http://www.w3.org/1999/xlink" x="0px" y="0px"
	 viewBox="0 0 360.2 234.1" style="enable-background:new 0 0 360.2 234.1;" xml:space="preserve">
<style type="text/css">
	.st0{fill:#D68F72;}
	.st1{fill:#AD6542;}
	.st2{fill:#EFBD50;}
	.st3{fill:#802336;}
</style>
<g id="Calque_1_00000037665461968309345410000012861229951520619442_">
	<g id="Calque_12">
		<path class="st0" d="M292.6,75.3c0,0-0.1,3.8-9,9.7c-10.6,7.1-6.7,20.7-8.1,27.8c-1,4.7-9.6,16.8-13.3,16.1
			c-10.5-1.9-16.4-15.7-25.9-19.8c-5.5-2.3-7.9-4.6-13.3-1.9c-5.3-2.7-7.8-0.5-13.3,1.9c-9.5,4.1-15.3,17.9-25.9,19.8
			c-3.8,0.7-12.3-11.3-13.3-16.1c-1.5-7.1,2.4-20.7-8.1-27.8c-8.9-5.9-11.2-10.7-11.2-10.7c8.4-13.2,11.9-27.5,21.6-30.4
			s10.7-5.2,19.6-8.2c4.6-1.6,8.2-3.3,10.3-5.6l1.6-36.1L222-6.7h2.1l13.9,0.5l3.9,0.1l0.7,15.2l0.6,12.5v0.5l0.4,7.9
			c0.4,0.5,0.9,0.9,1.5,1.3c2.6,1.9,6.6,3.1,11.2,4.1c6.3,1.3,20.3,6,27.3,7.3c3,0.6,9.6,16.3,12.3,17.1
			C305.3,62.7,299.4,58.8,292.6,75.3z"/>
		<path class="st1" d="M244.8,31.3c-5.2,4.1-18.2,11-20.6,12.2c-7.9,3.8-27.4-4.8-31.8-7.8c4.6-1.6,8.2-3.3,10.3-5.6l1.6-36.1h37.6
			l1.2,27.6V22l0.4,7.9C243.8,30.5,244.2,30.9,244.8,31.3z"/>
	</g>
</g>
<path class="st0" d="M193.2,54c-4.5,20.8-18.8,23.9-27,29.9c-13.2,9.5-25.4,28.3-36.2,39.9c-5.1,5.5-11.3,6.4-17.2,2.4l-4-2.4
	c-11.1-10.2,1-20.7,5.3-26.5c9-11.6,26.5-31.8,33.2-44.7c5.1-9.6,40-17.5,34.2-6.6c0,0,3.1,3,14.5,9.9C203.3,60.6,195,45.4,193.2,54
	L193.2,54z"/>
<path class="st0" d="M123.6,128.1c9.2-5.5,6.2-14.7,4.3-17.9c-2-3.5-40.8-39.6-48-47.7C75.8,57.9,74,63,70.8,65
	c-2.9,1.8-0.4,7.4,0.6,9.6c2.1,4.8,30,48.3,32.5,51.7C108.8,133.5,121,129.6,123.6,128.1z"/>
<path class="st0" d="M49.2,39.6l-1.3,3.6c-0.3,0.9-0.1,1.8,0.6,2.4c0.9,0.8,1.7,1.7,2.5,2.6c1,1.3,3.9,4.3,5,5.3
	c0.2,0.3,0.4,0.6,0.5,0.9v0c0.4,1.3-0.4,2.7-1.8,2.9c-4,0.8-6.4,1.6-12.2,2c-5.2,0.4-17.2-2.5-22.2-4.6c-2.7-1.1-7.2-5.7-10.1-6.1
	c-1-0.1-2.7,0.5-4.2,1.1c-1.5,0.7-1.9,2.7-0.6,3.8l8.7,7.4c0.2,0.1,0.3,0.2,0.5,0.3c2.5,1.1,20.6,9.5,27.1,11.9
	c7.6,2.7,23.3,6.6,31.1,6.8c2.5,0,7.6,0.1,10.4-4.1c2.4-3.6,0.4-7.8-1.1-10.3c-1.8-3.2-22.2-21-29.5-27.1
	C51.6,37.6,49.8,38.1,49.2,39.6z"/>
<path class="st0" d="M259.7,59.9c3.9,17.2,16.8,19.5,24.2,24.4c11.8,7.8,27.2,30.1,37,39.7c4.7,4.5,17.2,13.4,25.5,7.1l0,0
	c10.2-8.5,3-19.1-1-23.7c-8-9.5-29.1-32.3-35.2-42.7c-4.6-7.8-4.4-11.4-18.9-18.6c0,0-14.3-7.9-24.8-2.1
	C259.9,47.6,258.1,52.9,259.7,59.9L259.7,59.9z"/>
<path class="st0" d="M351.6,119.2c-4.1-14.1-11.6-11.8-18.1-11c-7,0.9-71.8,23.4-89.5,29c-10,3.2-15.4,4.7-14,10.4
	c1.4,5.1,12.2,4.8,16.5,4.7c40.2-0.8,70-4.6,97.5-15.9C351.6,133.3,352.6,122.8,351.6,119.2z"/>
<path class="st0" d="M202.3,137.5c-7.9,4-20,8.9-20,8.9s6.1,4.5,8.6,4.7c2,0.2,11-3.9,11-3.9l15.8,2.5c-3.3,4.4-11.3,6.6-15.7,11.4
	c-3.4,3.8-20.2-3.6-26.1-0.6c-3.3,1.6-11,1.4-13.7,3.9c-1.9,1.7-3.5,10.6-3.5,10.6l18.3-1.4c0,0,25.1-10.9,33-15.3
	c8.6-4.7,23.6,2,29.2-3.1c1.8-1.6,5.2-4.9,4.1-9.8c-1.1-4.1-5.7-5.6-8.7-6.5C230.1,138,202.7,137.3,202.3,137.5z"/>
<path class="st2" d="M124.3,47.9c6.3,12.2,26,41.7,34.8,54.8c2.9,4.3,4.7,9.1,5.2,14.2l-6.2,46.1l-7,49.2l148.7,0l-8.3-44.5
	l-6.2-52.5c0.4-4.9,1.8-9.7,4.5-14l30.9-51.4c1.6-2.5,0.2-5.8-2.6-6.6l-31.1-8.4c-0.9-0.3-1.8-0.2-2.7,0.1l-40.3,15.3
	c-11.2,4.3-23.7,4.2-34.9-0.3c-15.8-6.3-37-15.1-42.5-17.4c-0.9-0.4-1.8-0.5-2.8-0.2l-36.4,9.3C124.4,42.3,122.9,45.4,124.3,47.9z"
	/>
<path class="st3" d="M153.2,210.3h144.4c1.2,0,2.1,1,2.1,2.1v14.4c0,3.4-3.6,6.1-8.1,6.1H159.2c-4.5,0-8.1-2.7-8.1-6.1l0-14.4
	C151.1,211.3,152,210.3,153.2,210.3z"/>
</svg>
