<?xml version="1.0" encoding="utf-8"?>
<!-- Generator: Adobe Illustrator 26.0.2, SVG Export Plug-In . SVG Version: 6.00 Build 0)  -->
<svg version="1.1" id="Calque_1" xmlns="http://www.w3.org/2000/svg" xmlns:xlink="http://www.w3.org/1999/xlink" x="0px" y="0px"
	 viewBox="0 0 788 1005" style="enable-background:new 0 0 788 1005;" xml:space="preserve">
<style type="text/css">
	.st0{fill:#D68F72;}
	.st1{fill:#AD6542;}
	.st2{fill:#DBD1C1;}
	.st3{fill:#ED5875;}
	.st4{fill:none;stroke:#BCBCBC;stroke-width:2;stroke-linecap:round;stroke-miterlimit:10;}
	.st5{fill:#D3BB54;}
	.st6{fill:#BCBCBC;}
	.st7{fill:none;stroke:#BCBCBC;stroke-width:4.6229;stroke-linecap:round;stroke-miterlimit:10;}
	.st8{fill:none;stroke:#D3BB54;stroke-width:5.5475;stroke-linecap:round;stroke-miterlimit:10;}
</style>
<g id="Calque_1_00000011743013760090112840000000336151291609051309_">
	<g id="Calque_12">
		<path class="st0" d="M465.8,459.5c0,0-0.1,3.9-9.3,10c-10.9,7.3-6.9,21.4-8.4,28.7c-1,4.9-9.9,17.3-13.7,16.6
			c-10.8-2-16.9-16.2-26.7-20.4c-5.7-2.4-8.2-4.7-13.7-2c-5.5-2.8-8-0.5-13.7,2c-9.8,4.2-15.8,18.5-26.7,20.4
			c-3.9,0.7-12.7-11.7-13.7-16.6c-1.5-7.3,2.5-21.4-8.4-28.7c-9.2-6.1-11.6-11-11.6-11c-7-17.1-6.1-26.7,3.9-29.7s29.4-7,38.6-10.1
			c4.7-1.6,8.5-3.4,10.6-5.8l1.6-37.3l18.3-0.6h2.2l14.3,0.5l4,0.1l0.7,15.7l0.6,12.9v0.5l0.4,8.2c0.4,0.5,0.9,0.9,1.5,1.3
			c2.7,2,6.8,3.2,11.6,4.2c6.5,1.3,30.5,8,37.8,9.4c3.1,0.6-2.8-0.9,0,0C475.8,430.6,472.8,442.4,465.8,459.5z"/>
		<path class="st1" d="M416.5,414.1c-5.4,4.2-18.8,11.4-21.3,12.6c-8.2,3.9-28.3-5-32.8-8.1c4.7-1.6,8.5-3.4,10.6-5.8l1.6-37.3h38.8
			l1.2,28.5v0.5l0.4,8.2C415.4,413.2,415.9,413.7,416.5,414.1z"/>
	</g>
</g>
<path class="st2" d="M344.6,433.7c9,13.5-0.9,21.2-4.1,28c-5.1,10.9-2.7,33.4-4.6,44.5c-0.9,5.2-5.9,17.3-18,16.9l0,0
	c-15.5-1-16.1-14.1-15.9-19.1c0.3-10.3-4.4-53,3.6-64.7c0,0,7.2-12.2,21-13.2C335.5,425.5,341,428.2,344.6,433.7L344.6,433.7z"/>
<path class="st0" d="M325.9,517.7c-10.2,6-17.6,0.6-22.9-4.9c-3.8-3.9-34.9-44.7-43.5-55.7c-4.9-6.2-7.7-9.4-2.3-12.7
	c4.8-3.1,12.6,1.6,15.7,3.3c28.6,16.6,48.9,30.5,59.1,49.8C338.4,510.4,329.3,515.7,325.9,517.7z"/>
<path class="st2" d="M445.8,433.4c-9,13.5,0.9,21.2,4.1,28c5.1,10.9,2.7,33.4,4.6,44.5c0.9,5.2,5.9,17.3,18,16.9l0,0
	c15.5-1,16.1-14.1,15.9-19.1c-0.3-10.3,4.4-53-3.6-64.7c0,0-7.2-12.2-21-13.2C455,425.1,449.5,427.9,445.8,433.4L445.8,433.4z"/>
<path class="st0" d="M468.6,514c11.5,2.7,17-4.6,20.5-11.4c2.5-4.8,20.2-53,25.2-66c2.8-7.4,4.6-11.2-1.5-12.8
	c-5.5-1.5-11.6,5.2-14,7.8c-22.5,24.3-37.8,43.5-41.8,65C454.5,510.7,464.7,513.1,468.6,514z"/>
<path class="st0" d="M518.3,401.7c3.8-2.9,7.4-6.1,10.5-9.7c0,0,2.5,3.3,2.1,5.3c-0.3,1.6-5.9,8.4-5.9,8.4l0,0
	c27.2-10.6,48.9-16,52.1-16.5c2.2-0.4,8.6,1.7,8.6,1.7S559.9,401.7,553,405c-23.7,11.3-29.3,17.3-36.6,27.3c-1.3,1.8-16.2-0.1-14-4
	c0.8-1.3-0.5-9,1.4-11.1C511.3,409.1,518,401.9,518.3,401.7z"/>
<path class="st2" d="M451.5,539.4c9.9-43.4,13.9-110.9,5.9-113.3c-3.4-1-27.2,14-62.7,15c-39.1,1.1-63.8-23.7-66.9-10.3
	c-3.1,13.2,2.3,60.4,8.3,97.5l-11.8,56.8c-0.4,2.1-0.1,4.2,0.9,6.1l0,0c1.6,2.9,4.6,4.6,7.8,4.6h118.7c4.1,0,7.6-2.8,8.6-6.7
	l1.2-4.8c0.4-1.4,0.4-2.9,0-4.4L451.5,539.4z"/>
<path class="st0" d="M263.2,445.4c0.4-0.4-0.2-3.1-0.1-3.7c0.7-2.9,2.6-12,2.2-13.7c-0.4-2-3.6-10.5-3.7-12.1
	c-0.1-1.6,1.9-11.2,0.8-11.4c-0.7,0-2.3,0-3.7,0.1c-1.2,0.1-2.3,0.9-2.7,2.1l-1.8,5.2c-0.1,0.4-0.2,0.9-0.2,1.3l0.5,3.9
	c0.2,1.7-1.8,2.7-3,1.4l-7.1-7.6c-0.1-0.1-0.3-0.2-0.3-0.4c-1.3-2-6.1,2.5-6.1,2.5c-0.1-0.1-3.1,3.3-4.2,4.5
	c-0.3,0.3-0.5,0.6-0.8,0.9l-2.2,2.9c-1.9,2.5-3,5.6-3,8.8c0.1,1.4,0.2,2.6,1.1,3.2c0.2,0.1,0.4,0.3,0.5,0.5l16.8,16.8
	c0.5,0.5,1.2,0.8,1.8,0.9l3.7,0.4c0.9,0,5.5,1.8,6,1.2L263.2,445.4z"/>
<polygon class="st3" points="453.5,526 333.5,542.2 336.7,528.5 332.8,492.4 458.2,491.6 "/>
<path class="st4" d="M354.3,418.3c0,0,27.3,120.6,43.1,124c15.8,3.5,34.4-124.8,34.4-124.8"/>
<g>
	
		<ellipse transform="matrix(0.1446 -0.9895 0.9895 0.1446 -204.967 864.7834)" class="st5" cx="397.7" cy="550.9" rx="8.6" ry="8.6"/>
	<path class="st5" d="M392.9,554.1c0,0,5.9,5,6.3,8.6c0.1,0.9,0.1,1.5,0,1.9c0,0.3,0.2,0.5,0.5,0.5l6.7,0c0.3,0,0.6-0.2,0.6-0.5
		l-1.1-13.1"/>
</g>
<g>
	<path class="st6" d="M249.1,433.4l2.8,0.2c2.2,0.2,4.1-1.5,4.3-3.6l2.8-35c0.2-2.2-1.5-4.1-3.6-4.3l-2.8-0.2
		c-2.2-0.2-4.1,1.5-4.3,3.6l-2.8,35C245.3,431.3,246.9,433.2,249.1,433.4z"/>
	<path class="st7" d="M238.3,391.8l-0.7,7.6c-0.2,3.2,1,6.3,3.3,8.4l8.1,7.1"/>
	<circle class="st6" cx="191.2" cy="379.8" r="10.6"/>
	<path class="st3" d="M268.3,372l0.6,1.6c2.8,7.8,1.9,16.5-2.5,23.6l0,0c-0.6,1.1-1.9,1.7-3.2,1.4c-8.4-1.7-40.7-6.6-71.9,10.5
		c-3.4,1.7,2-65.3,4.8-58.7c27.7,18.8,60.7,19.7,69.4,19.7C266.7,369.9,267.8,370.8,268.3,372z"/>
</g>
<line class="st8" x1="157.4" y1="379.1" x2="173.7" y2="380"/>
<line class="st8" x1="160.2" y1="350.7" x2="176.3" y2="367.7"/>
<line class="st8" x1="162.8" y1="407.5" x2="176.5" y2="392.3"/>
<path class="st0" d="M252.4,425l-6.2,7.3c-3.3,3.9-9.2,4.4-13.1,1.1l0,0c-3.9-3.3-4.4-9.2-1.1-13.1l6.2-7.3
	c3.3-3.9,9.2-4.4,13.1-1.1h0C255.2,415.3,255.7,421.1,252.4,425z"/>
</svg>
