<?xml version="1.0" encoding="utf-8"?>
<!-- Generator: Adobe Illustrator 26.0.2, SVG Export Plug-In . SVG Version: 6.00 Build 0)  -->
<svg version="1.1" id="Calque_1" xmlns="http://www.w3.org/2000/svg" xmlns:xlink="http://www.w3.org/1999/xlink" x="0px" y="0px"
	 viewBox="0 0 381.1 238.8" style="enable-background:new 0 0 381.1 238.8;" xml:space="preserve">
<style type="text/css">
	.st0{fill:#D68F72;}
	.st1{fill:#AD6542;}
	.st2{fill:#DBD1C1;}
	.st3{fill:#ED5875;}
	.st4{fill:none;stroke:#BCBCBC;stroke-width:1.8391;stroke-linecap:round;stroke-miterlimit:10;}
	.st5{fill:#D3BB54;}
	.st6{fill:#BCBCBC;}
	.st7{fill:none;stroke:#BCBCBC;stroke-width:4.2511;stroke-linecap:round;stroke-miterlimit:10;}
	.st8{fill:none;stroke:#D3BB54;stroke-width:5.1013;stroke-linecap:round;stroke-miterlimit:10;}
</style>
<g id="Calque_1_00000011743013760090112840000000336151291609051309_">
	<g id="Calque_12">
		<path class="st0" d="M262.8,142.7c0,0-0.1,3.6-8.6,9.2c-10,6.7-6.3,19.7-7.7,26.4c-0.9,4.5-9.1,15.9-12.6,15.3
			c-9.9-1.8-15.5-14.9-24.6-18.8c-5.2-2.2-7.5-4.3-12.6-1.8c-5.1-2.6-7.4-0.5-12.6,1.8c-9,3.9-14.5,17-24.6,18.8
			c-3.6,0.6-11.7-10.8-12.6-15.3c-1.4-6.7,2.3-19.7-7.7-26.4c-8.5-5.6-10.7-10.1-10.7-10.1c-6.4-15.7-5.6-24.6,3.6-27.3
			c9.2-2.8,27-6.4,35.5-9.3c4.3-1.5,7.8-3.1,9.7-5.3l1.5-34.3l16.8-0.6h2l13.1,0.5l3.7,0.1l0.6,14.4l0.6,11.9v0.5l0.4,7.5
			c0.4,0.5,0.8,0.8,1.4,1.2c2.5,1.8,6.3,2.9,10.7,3.9c6,1.2,28,7.4,34.8,8.6c2.9,0.6-2.6-0.8,0,0
			C271.9,116.1,269.2,126.9,262.8,142.7z"/>
		<path class="st1" d="M217.4,100.9c-5,3.9-17.3,10.5-19.6,11.6c-7.5,3.6-26-4.6-30.2-7.4c4.3-1.5,7.8-3.1,9.7-5.3l1.5-34.3h35.7
			l1.1,26.2v0.5l0.4,7.5C216.4,100.1,216.9,100.5,217.4,100.9z"/>
	</g>
</g>
<path class="st2" d="M151.3,118.9c8.3,12.4-0.8,19.5-3.8,25.7c-4.7,10-2.5,30.7-4.2,40.9c-0.8,4.8-5.4,15.9-16.6,15.5l0,0
	c-14.3-0.9-14.8-13-14.6-17.6c0.3-9.5-4-48.7,3.3-59.5c0,0,6.6-11.2,19.3-12.1C142.9,111.4,148,113.9,151.3,118.9L151.3,118.9z"/>
<path class="st0" d="M130.3,193.1c-10.6,2.5-15.6-4.2-18.9-10.5c-2.3-4.4-18.6-48.7-23.2-60.7c-2.7-6.8-4.2-10.3,1.4-11.8
	c5.1-1.4,10.7,4.8,12.9,7.2c20.7,22.3,34.8,40,38.4,59.8C143.3,190,133.9,192.2,130.3,193.1z"/>
<path class="st2" d="M244.4,118.7c-8.3,12.4,0.8,19.5,3.8,25.7c4.7,10,2.5,30.7,4.2,40.9c0.8,4.8,5.4,15.9,16.6,15.5l0,0
	c14.3-0.9,14.8-13,14.6-17.6c-0.3-9.5,4-48.7-3.3-59.5c0,0-6.6-11.2-19.3-12.1C252.8,111,247.8,113.6,244.4,118.7L244.4,118.7z"/>
<path class="st0" d="M265.3,192.8c10.6,2.5,15.6-4.2,18.9-10.5c2.3-4.4,18.6-48.7,23.2-60.7c2.6-6.8,4.2-10.3-1.4-11.8
	c-5.1-1.4-10.7,4.8-12.9,7.2c-20.7,22.3-34.8,40-38.4,59.8C252.4,189.7,261.7,192,265.3,192.8z"/>
<path class="st0" d="M311,89.5c3.5-2.7,6.8-5.6,9.7-8.9c0,0,2.3,3,1.9,4.9c-0.3,1.5-5.4,7.7-5.4,7.7l0,0c25-9.7,45-14.7,47.9-15.2
	c2-0.4,7.9,1.6,7.9,1.6s-23.7,9.9-30.1,13c-21.8,10.4-26.9,15.9-33.7,25.1c-1.2,1.7-14.9-0.1-12.9-3.7c0.7-1.2-0.5-8.3,1.3-10.2
	C304.6,96.3,310.8,89.7,311,89.5z"/>
<path class="st2" d="M249.6,216.1c9.1-39.9,12.8-102,5.4-104.2c-3.1-0.9-25,12.9-57.7,13.8c-36,1-58.7-21.8-61.5-9.5
	c-2.9,12.1,2.1,55.5,7.7,89.7l-10.8,52.2c-0.4,1.9-0.1,3.9,0.8,5.6l0,0c1.4,2.6,4.2,4.3,7.2,4.3h109.2c3.7,0,7-2.5,7.9-6.2l1.1-4.4
	c0.3-1.3,0.3-2.7,0-4L249.6,216.1z"/>
<path class="st0" d="M94.8,112.5c0.5-0.3,0.6-2.8,0.9-3.3c1.4-2.4,5.5-9.9,5.6-11.5c0.2-1.9-0.3-10.2,0-11.6
	c0.3-1.4,4.7-9.4,3.7-9.8c-0.6-0.2-2-0.6-3.2-0.9c-1.1-0.3-2.3,0.2-3,1.1l-3,4.1c-0.2,0.3-0.4,0.8-0.5,1.1l-0.6,3.6
	c-0.3,1.5-2.3,1.9-3.1,0.4l-4.2-8.6c-0.1-0.2-0.2-0.3-0.2-0.4c-0.6-2.1-6,0.6-6,0.6c-0.1-0.1-3.7,2-4.9,2.8
	c-0.3,0.2-0.6,0.4-0.9,0.6l-2.7,2c-2.4,1.7-4.2,4.1-5,6.9c-0.3,1.3-0.5,2.4,0.1,3.1c0.2,0.2,0.3,0.3,0.3,0.6l10.2,19.3
	c0.3,0.6,0.9,1,1.4,1.3l3.1,1.4c0.8,0.3,4.3,3,5,2.7L94.8,112.5z"/>
<polygon class="st3" points="251.4,203.8 141.1,218.7 144.1,206.2 140.4,172.9 255.8,172.1 "/>
<path class="st4" d="M160.2,104.8c0,0,25.1,110.9,39.6,114.1c14.5,3.2,31.7-114.7,31.7-114.7"/>
<g>
	
		<ellipse transform="matrix(0.1446 -0.9895 0.9895 0.1446 -53.182 391.9773)" class="st5" cx="200.1" cy="226.7" rx="7.9" ry="7.9"/>
	<path class="st5" d="M195.8,229.7c0,0,5.4,4.6,5.8,7.9c0.1,0.8,0.1,1.4,0,1.7c0,0.3,0.2,0.5,0.5,0.5l6.2,0c0.3,0,0.5-0.2,0.5-0.5
		l-1-12"/>
</g>
<g>
	<path class="st6" d="M85.6,98.2l2.4,0.9c1.9,0.8,4-0.2,4.8-2l11.9-30c0.8-1.9-0.2-4-2-4.8l-2.4-0.9c-1.9-0.8-4,0.2-4.8,2l-11.9,30
		C82.8,95.3,83.8,97.5,85.6,98.2z"/>
	<path class="st7" d="M87.4,58.8l-2.6,6.5c-1,2.7-0.9,5.8,0.7,8.2l5.2,8.4"/>
	<circle class="st6" cx="49.2" cy="35.5" r="9.8"/>
	<path class="st3" d="M119.1,49.4l0.1,1.5c0.3,7.7-2.8,15-8.6,20.1l0,0c-0.9,0.8-2.1,0.9-3.1,0.3c-6.9-3.7-34-16.8-66.1-10.2
		c-3.5,0.6,19.4-56.9,20.1-50.3c19.3,24,48,33.8,55.7,36C118.3,47.2,119,48.2,119.1,49.4z"/>
</g>
<line class="st8" x1="19.7" y1="25.7" x2="33.9" y2="30.9"/>
<line class="st8" x1="29.9" y1="1.5" x2="39.5" y2="20.8"/>
<line class="st8" x1="16.8" y1="52.1" x2="32.9" y2="42.4"/>
<path class="st0" d="M90.8,91.8l-7.4,4.7c-4,2.5-9.3,1.4-11.8-2.6l0,0c-2.5-4-1.4-9.3,2.6-11.8l7.4-4.7c4-2.5,9.3-1.4,11.8,2.6l0,0
	C95.9,83.9,94.8,89.2,90.8,91.8z"/>
</svg>
