<?xml version="1.0" encoding="utf-8"?>
<!-- Generator: Adobe Illustrator 26.0.2, SVG Export Plug-In . SVG Version: 6.00 Build 0)  -->
<svg version="1.1" id="Calque_1" xmlns="http://www.w3.org/2000/svg" xmlns:xlink="http://www.w3.org/1999/xlink" x="0px" y="0px"
	 viewBox="0 0 788 1005" style="enable-background:new 0 0 788 1005;" xml:space="preserve">
<style type="text/css">
	.st0{fill:#D68F72;}
	.st1{fill:#AD6542;}
	.st2{fill:#4E6566;}
	.st3{fill:#295446;}
	.st4{fill:#9C3A26;}
	.st5{fill:#873022;}
	.st6{fill:#AFAFAF;}
	.st7{fill:#898989;}
</style>
<g id="Calque_1_00000180341625070977574980000007372930342611508925_">
	<g id="Calque_12">
		<path class="st0" d="M465.8,460c0,0-0.1,3.9-9.3,10c-10.9,7.3-6.9,21.4-8.4,28.7c-1,4.9-9.9,17.3-13.7,16.6
			c-10.8-2-16.9-16.2-26.7-20.4c-5.7-2.4-8.2-4.7-13.7-2c-5.5-2.8-8-0.5-13.7,2c-9.8,4.2-15.8,18.5-26.7,20.4
			c-3.9,0.7-12.7-11.7-13.7-16.6c-1.5-7.3,2.5-21.4-8.4-28.7c-9.2-6.1-11.6-11-11.6-11c-7-17.1-6.1-26.8,3.9-29.8s29.4-7,38.6-10.1
			c4.7-1.6,8.5-3.4,10.6-5.8l1.6-37.3l18.3-0.6h2.2l14.3,0.5l4,0.1l0.7,15.7l0.6,12.9v0.5l0.4,8.2c0.4,0.5,0.9,0.9,1.5,1.3
			c2.7,2,6.8,3.2,11.6,4.2c6.5,1.3,30.5,8,37.8,9.4c3.1,0.6-2.8-0.9,0,0C475.8,431.1,472.8,442.8,465.8,460z"/>
		<path class="st1" d="M416.5,414.5c-5.4,4.2-18.8,11.4-21.3,12.6c-8.2,3.9-28.3-5-32.8-8.1c4.7-1.6,8.5-3.4,10.6-5.8l1.6-37.3h38.8
			l1.2,28.6v0.5l0.4,8.2C415.4,413.7,415.9,414.2,416.5,414.5z"/>
	</g>
</g>
<path class="st0" d="M352.5,455.7c-18.9,22.7-62.6,33.7-75.6,44.2c-6.1,5-22.2,14.3-30.2,5.4l0,0c-9.8-11.9-6,3.1-0.6-2.2
	c11-10.7,35.3-30.3,44.3-42.5c6.7-9.1,11.2-19.4,29-26.3c0,0,17.8-8,28.5,0.6C354.6,440.4,355.6,447.2,352.5,455.7L352.5,455.7z"/>
<path class="st0" d="M256.1,501.3c16,2.3,18.3-9.1,20.2-15.1c2-6.5,0-45.5,1.7-63.4c0.9-10.1,1.7-15.5-4.7-16.6
	c-5.8-1-10.5,8.5-11.8,12.5c-12.3,37.6-9.1,19.2-18.3,64.8C239.5,502.2,252,500.7,256.1,501.3z"/>
<path class="st2" d="M440.6,451.5c1.8,19.7,8.5,26.6,16.1,33c31,26,28.7,68.8,20.9,59.1c4.5,5.6,17.5,17.2,27.7,11.2l0,0
	c12.7-8.3,3.9-23.7,0.1-29.5c-7.6-11.7-19.1-73.1-34.4-82.9c0,0-15-10.8-27.6-5.6C435.3,440.2,439.9,443.3,440.6,451.5L440.6,451.5z
	"/>
<path class="st0" d="M505.2,531.8c-10.4-5.7-18,2.7-23.5,10.8c-3.9,5.7-7,52.2-15.8,68.2c-5,9-14,1.3-8.5,4.6c5,3,17.6,2.2,20.4-1
	c29-33.7,23-30.5,33.4-57.8C518.1,538.8,508.8,533.8,505.2,531.8z"/>
<path class="st2" d="M479.2,430.2c-4.5-5.5-11.4-7.1-18.6-9.1c-9.4-2.6-35.6-7.1-35.6-7.1s-20.4,27-35.7,25.8
	c-6.2-0.5-31.7-16.9-33.4-22.7l-29.7,6.3l-10.1,4.6c-10.7,6.5-37.5,34.6-37.5,34.6s0.2-32.5,0-29c0,0-22.4-6.1-24.5,0.8
	c-1.7,5.5-9.1,32.6-14.5,53.8c-1.4,5.5-0.2,15.1,4.1,18.9c5.5,4.9,13.3,6.5,16.5,5.3c49.4-18,60.8-26.7,60.8-26.7
	s12.3,36.9,12.6,40.4c0.3,3.5-4.4,41.5-4.4,41.5h0.1c1,11.4,1.7,13.1,1.7,19.6s5.6,11.7,12.5,11.7h99c7,0,12.6-5.2,12.6-11.7
	s0.2-8.2,0.4-19.7h-0.1c-0.4-2.1-6.6-37.7-6.2-40.4c1.8-11.7,10.9-33,12.5-36.7c4,11.1,11.5,30.9,16.3,42.4l-7.5,53.5l16.8,19.4
	c0,0,14.7-23.3,23-38.1c3.5-6.1,8.1-19.9,8.2-26.9C518.8,510.7,495.5,450,479.2,430.2z"/>
<path class="st3" d="M327.3,557.9L312,631.8c-1.1,5.8,9.3,11.2,18.8,12.4c0,0,41.6,8.5,59.3,8.9c18.4,0.4,72.9-5.9,72.9-5.9
	c0.1,0,0.2,0,0.2,0c10.3-0.9,10.2-8.4,8.6-14.6l-9.7-41.2l-8.8-34.1"/>
<path class="st3" d="M338.6,417.4l1.3-0.5c2-0.7,4.3,0.2,4.9,1.9l11,30.6c0.2,0.7-0.2,1.5-1,1.7l-3.4,1c-0.9,0.2-1.8-0.1-2.1-0.9
	L336.6,421C335.9,419.6,336.8,418,338.6,417.4z"/>
<path class="st3" d="M451.4,416l-0.7-0.2c-2.5-0.9-5.4,0.2-6.3,2.5l-12.2,35.6c-0.3,1,0.3,2.2,1.4,2.5l3.2,0.9
	c1.2,0.4,2.6-0.1,3-1.2l13.9-35.2C454.7,419,453.5,416.8,451.4,416z"/>
<circle class="st3" cx="353.9" cy="457.6" r="3.8"/>
<circle class="st3" cx="433.9" cy="462" r="3.8"/>
<path class="st3" d="M346.4,467.5l92.6,4.8c2.6,0.1,4.7,2,5.4,4.4l6.5,25.2c0.1,0.5,0.2,0.9,0.2,1.4v48.6H325.3l1.6-50
	c0-0.8,0.2-1.5,0.5-2.3l13.2-28.8C341.8,468.8,344,467.4,346.4,467.5z"/>
<path class="st3" d="M357.5,471.6l-6.9-0.4c-1.5-0.1-2.7-1.4-2.6-3l0.1-2.3c0.1-1.5,1.4-2.7,3-2.6l6.9,0.4c1.5,0.1,2.7,1.4,2.6,3
	l-0.1,2.3C360.4,470.5,359.1,471.6,357.5,471.6z"/>
<path class="st3" d="M434.6,478.2l-7.7-1.1c-1.6-0.2-2.9-1.7-2.6-3.5l0.5-3.6c0.2-1.6,1.7-2.9,3.5-2.6l7.7,1.1
	c1.6,0.2,2.9,1.7,2.6,3.5l-0.5,3.6C437.8,477.3,436.3,478.5,434.6,478.2z"/>
<path class="st4" d="M356.7,488.5l-2,23.1l25.6,7.8c6.8,2.1,14.1,2.6,21,1.5l26.1-4l1-23.5L356.7,488.5z"/>
<path class="st5" d="M356.7,488.3l-2.4,11.4l35.3,6.5c1.4,0.3,3,0.3,4.4,0.2l35-3.6v-12L356.7,488.3z"/>
<path class="st5" d="M450.1,561.1H326.2c-1.2,0-2.2-0.9-2.2-2.2v-12c0-1.2,0.9-2.2,2.2-2.2h123.9c1.2,0,2.2,0.9,2.2,2.2v12
	C452.3,560.1,451.3,561.1,450.1,561.1z"/>
<path class="st5" d="M317.8,552.9c0,0-21.4,59.8-15.8,65.5c5.5,5.8,60.8,12,65.6,8.3c4.8-3.7,11-69.5,11-69.5L317.8,552.9z"/>
<path class="st6" d="M344.7,578.5L341,579c-1.1,0.1-2.2-0.6-2.3-1.7l-6.3-46.3c-0.1-1.1,0.6-2.2,1.7-2.3l3.7-0.5
	c1.1-0.1,2.2,0.6,2.3,1.7l6.3,46.3C346.6,577.3,345.8,578.3,344.7,578.5z"/>
<path class="st6" d="M349,578.9L349,578.9c-1.1,0-2.1-0.9-2.1-2.1v-36.6c0-1.1,0.9-2.1,2.1-2.1l0,0c1.1,0,2.1,0.9,2.1,2.1v36.6
	C351,578,350.1,578.9,349,578.9z"/>
<path class="st6" d="M354.8,578.7l-1.6-0.4c-1.1-0.3-1.7-1.3-1.5-2.5l6-25c0.3-1.1,1.3-1.7,2.5-1.5l1.6,0.4c1.1,0.3,1.7,1.3,1.5,2.5
	l-6,25C356.9,578.3,355.8,579,354.8,578.7z"/>
<path class="st4" d="M318.3,557.3c0,0-20.9,57.9-12.7,60.1c8.2,2.2,50.4,10.8,56.1,6.6c5.5-4.2,4.4-62.2,4.4-62.2L318.3,557.3z"/>
<path class="st6" d="M427.9,600.5l7.3-3.5c0.2-0.1,0.5-0.2,0.7-0.2l19.1-2c0.7-0.1,1.4,0.2,1.9,0.7l9.7,6.8c0.7,0.7,0.7-3.2,1.5-3.5
	l0.4-0.3c1.2-0.4,8.3,8.1,8.7,9.4c1.1,2.8,2,6.8,0.7,7.9c-2.9,2.6-5.9,7.2-8.6,7.2c-3.6-0.1-11.6-6.7-14.3-8.7
	c-0.6-0.4-1.4-0.6-2.1-0.3l-7.7,2.5c-0.2,0.1-0.4,0.2-0.6,0.2c-1.3,0.8-6.7,4.5-7.1,4.6c-2.4,1-7.6-2.6-10.6-4.8
	c-1.1-0.9-1.2-2.5-0.2-3.5l7-6.8c0.2-0.2,0.2-0.2,0.4-0.3l8.1-4.8l-5.5,0.8c-0.2,0-0.5,0.1-0.7,0.2c-1.3,0.7-6.1,3.1-6.7,3.1
	c-0.3,0-0.9-0.2-1.5-0.5C426.2,603.9,426.2,601.3,427.9,600.5z"/>
<path class="st6" d="M256.4,421.9l1.4-9.3c0.3-1.7-0.1-3.6-0.9-5.2l-3.5-6.4c-1-1.8-1.3-4-0.7-6.1l4.8-18.5c0.9-2.8,3.1-5.1,5.9-5.9
	l18.1-4.9c4.2-1.2,8.6,1.2,10,5.4l3.4,10.7c0.6,1.9,0.6,4.1-0.3,6l-2.7,5.9c-0.2,0.5-0.6,1.2-0.9,1.6l-5.3,7c-1,1.2-1.6,2.9-1.7,4.5
	l-0.3,6.8c0,0-0.2,8.4-2,10.2c-4.3,4.2-18.5,7-23.9,4.2C255.5,426.7,256.3,422.1,256.4,421.9z"/>
<path class="st6" d="M290.2,392.8c0.2-0.4,0.8-0.9,1.3-1l5.7-1.2c1.6-0.2,2.9,1.3,2.2,2.7l0,0c-0.3,0.3-0.3,0.5-0.6,0.8L282.7,407
	L290.2,392.8z"/>
<path class="st7" d="M234.8,428.6l-1.2-1.5c-1.2-1.5-0.8-3.7,0.9-4.6l53.1-28.1c2.2-1.1,2.2-4.2,0.1-5.3l-0.5-0.3
	c-0.7-0.2-1.4-0.4-2.1-0.2l-58.8,12.1c-1.6,0.3-3.2-0.7-3.6-2.3l-0.2-0.7c-0.4-1.7,0.6-3.4,2.4-3.7l67.3-12.4c0.7-0.1,1.4-0.5,1.8-1
	l7.7-9.2c1.9-2.1,5.5-0.9,5.4,2.1l-0.1,3.5c0,0.7-0.3,1.4-0.8,1.9l-2.1,2.5c-1.9,2-0.2,5.3,2.5,5l0.8-0.1c0.2,0,0.3,0.1,0.5,0
	l10.1,0.6c0.9,0.1,1.7-0.2,2.3-0.8l6-5.8c0.6-0.6,0.9-1.4,0.9-2.2l0-4.3c0.1-0.9-0.4-1.8-1.1-2.4l-2.3-1.8c-0.9-0.7-1.3-1.8-1.2-2.9
	l0,0c0.3-2.2,2.8-3.3,4.7-2.1l5.2,3.4c0.9,0.5,1.4,1.5,1.4,2.5l0.2,10.8c0,1-0.5,2-1.2,2.6l-11.6,8.7c-0.5,0.5-1.2,0.7-2,0.6
	l-13.2-1.2c-0.6,0-1.2,0.1-1.8,0.4L239,429.3C237.7,430,236,429.6,234.8,428.6z"/>
<path class="st6" d="M283.6,392.4h-14.1c-5.1,0-9.3-4.2-9.3-9.3l0,0c0-5.1,4.2-9.3,9.3-9.3h14.1c5.1,0,9.3,4.2,9.3,9.3l0,0
	C292.9,388.2,288.7,392.4,283.6,392.4z"/>
</svg>
