<?xml version="1.0" encoding="utf-8"?>
<!-- Generator: Adobe Illustrator 26.0.2, SVG Export Plug-In . SVG Version: 6.00 Build 0)  -->
<svg version="1.1" id="Calque_1" xmlns="http://www.w3.org/2000/svg" xmlns:xlink="http://www.w3.org/1999/xlink" x="0px" y="0px"
	 viewBox="0 0 788 1005" style="enable-background:new 0 0 788 1005;" xml:space="preserve">
<style type="text/css">
	.st0{fill:#605F5E;}
	.st1{fill:#E8AF49;}
	.st2{fill:#D68F72;}
	.st3{fill:#AD6542;}
	.st4{fill:#CC0000;}
</style>
<g>
	<path class="st0" d="M243.6,405.8c6.9,6.7,13.8,13.4,20.6,20.2c12.1,13.5,44.9,50.4,57.4,64.3c12.6,14.1,45.2,50.7,57.4,64.3
		c5.9,7.5,11.9,15.1,17.7,22.7c-6.9-6.7-13.8-13.4-20.5-20.2c-12.1-13.5-44.9-50.4-57.4-64.3c-12.6-14.1-45.2-50.7-57.4-64.3
		C255.4,421,249.6,413.5,243.6,405.8L243.6,405.8z"/>
</g>
<g>
	<path class="st1" d="M219.1,385.2c2.3,1.2,4.8,2.8,7.1,4.2c1.4,0.9,3.3,2.1,4.7,2.9c2.4,1.5,4.2,3.6,5.5,6.4c0,0.1-0.1,0.3-0.2,0.3
		c-2.1-0.3-3.8-1.1-5.4-2s-2.8-2.4-4.1-3.7c-1-1-3-2.8-4-3.8c-1.3-1.3-2.6-2.6-3.9-4C218.6,385.4,218.9,385.1,219.1,385.2
		L219.1,385.2z"/>
</g>
<g>
	<path class="st1" d="M241.2,369.4c0.8,2.9,1.6,6.2,2.2,9.2c0.4,1.8,0.9,4.3,1.4,6.1c0.7,3.1,0.6,6.2-0.5,9.5c0,0.2-0.3,0.2-0.4,0
		c-1.3-2-2-3.9-2.4-6c-0.5-2-0.3-4.1-0.4-6.2c-0.1-1.5-0.2-4.7-0.3-6.3c0-2.1-0.1-4.2,0-6.2C240.9,369.2,241.2,369.2,241.2,369.4
		L241.2,369.4z"/>
</g>
<g>
	<path class="st1" d="M263,392.9c-1.8,1.3-3.8,2.6-5.7,3.7c-1.1,0.7-2.7,1.6-3.8,2.3c-2,1.2-4.2,1.6-6.8,1.2c-0.2,0-0.2-0.2-0.2-0.3
		c1.8-3,4.4-4.2,7.6-4.8c1.1-0.3,3.2-1,4.3-1.3c1.5-0.4,2.9-0.8,4.4-1.1C263.1,392.6,263.2,392.9,263,392.9L263,392.9z"/>
</g>
<g>
	<path class="st1" d="M273.5,409.5c-2.4,0.2-5,0.3-7.3,0.4c-1.5,0.1-3.4,0-4.9,0.1c-2.6,0.1-4.8-0.7-7.1-2.3c-0.1,0-0.1-0.2,0-0.3
		c2.4-1.3,4.9-1.6,7.4-1.1c2.2,0.6,4.9,1,7.1,1.6c1.6,0.4,3.2,0.8,4.7,1.2C273.9,409.2,273.9,409.5,273.5,409.5L273.5,409.5z"/>
</g>
<g>
	<path class="st1" d="M254.9,435.5c-1.4-2.5-2.7-5.3-3.9-7.8c-0.7-1.6-1.7-3.7-2.5-5.3c-1.3-2.7-1.8-5.6-1.4-8.7
		c0-0.2,0.2-0.2,0.4-0.1c1.6,1.5,2.7,3.1,3.5,4.9c0.9,1.8,1.1,3.7,1.6,5.5c0.3,1.4,1.1,4.2,1.5,5.6c0.4,1.9,0.9,3.8,1.2,5.6
		C255.3,435.5,255.1,435.6,254.9,435.5L254.9,435.5z"/>
</g>
<g>
	<path class="st1" d="M226.4,429.6c1.1-2.2,2.4-4.5,3.6-6.6c0.8-1.3,1.8-3.1,2.5-4.4c1.3-2.3,3.2-3.9,5.8-5c0.1,0,0.3,0.1,0.3,0.2
		c-0.2,1.9-0.8,3.5-1.6,5c-0.8,1.5-2.2,2.5-3.3,3.7c-0.8,0.9-2.5,2.7-3.4,3.6c-1.2,1.2-2.3,2.3-3.6,3.5
		C226.6,429.9,226.2,429.7,226.4,429.6L226.4,429.6z"/>
</g>
<g>
	<path class="st1" d="M210.1,408.5c2.8-0.7,6.1-1.3,9-1.9c1.8-0.3,4.2-0.7,6-1.1c3.1-0.6,6.1-0.3,9.2,0.9c0.2,0,0.2,0.3,0,0.4
		c-1.9,1.2-3.9,1.8-5.9,2.2s-4,0.1-6.1,0.1c-1.5,0-4.6,0-6.1,0c-2.1-0.1-4.1-0.1-6.1-0.2C209.9,408.9,209.9,408.6,210.1,408.5
		L210.1,408.5z"/>
</g>
<g>
	<path class="st1" d="M228.6,375c1.1,0.9,2.1,2.1,3.1,3.1c0.5,0.7,1.3,1.6,2,2.1c1.1,1.2,1.2,2.7,0.7,4.5c0,0.2-0.2,0.2-0.3,0.2
		c-1.3-0.3-2.2-0.9-2.9-1.6c-0.8-0.7-0.8-1.7-1.1-2.6c-0.3-0.7-0.8-2-1-2.7c-0.3-0.9-0.6-1.9-0.8-2.8
		C228.1,375,228.4,374.9,228.6,375L228.6,375z"/>
</g>
<g>
	<path class="st1" d="M261.1,377.1c-1.1,2-2.4,4.1-3.7,6c-0.7,0.9-1.1,2.1-2,2.8c-1,0.7-2,1.2-3.6,1.4c-0.1,0-0.3-0.1-0.3-0.2
		c0-1.6,0.5-2.7,1.1-3.7c0.6-1,1.7-1.5,2.7-2.3c0.7-0.5,2.1-1.6,2.8-2.2c1-0.7,1.9-1.4,2.9-2C261,376.7,261.2,377,261.1,377.1
		L261.1,377.1z"/>
</g>
<g>
	<path class="st1" d="M278.2,397.6c-2,0.9-4.1,1.8-6.2,2.5c-1.1,0.3-2,1-3.2,1c-1.1-0.1-2.3-0.3-3.5-1c-0.1,0-0.2-0.3-0.1-0.4
		c0.9-1.2,1.9-1.8,2.9-2.3s2.2-0.2,3.3-0.2c0.9,0,2.5,0,3.3-0.1c1.1,0.1,2.2,0,3.3,0.2C278.4,397.3,278.5,397.6,278.2,397.6
		L278.2,397.6z"/>
</g>
<g>
	<path class="st1" d="M264.8,429.8c-1.2-0.8-2.3-1.8-3.5-2.7c-0.6-0.6-1.5-1.4-2.2-1.9c-1.3-1.1-1.5-2.5-1.3-4.4
		c0-0.2,0.1-0.3,0.3-0.3c1.4,0.1,2.3,0.6,3.1,1.2c0.8,0.6,1,1.6,1.4,2.5c0.3,0.6,1.1,1.9,1.3,2.6c0.4,0.9,0.8,1.8,1.2,2.7
		C265,429.8,264.9,429.9,264.8,429.8L264.8,429.8z"/>
</g>
<g>
	<path class="st1" d="M235.8,440c0.1-1.5,0.4-3.1,0.6-4.6c0.2-0.9,0.5-2.1,0.5-3c0.3-1.7,1.4-2.8,3.2-3.6c0.1,0,0.3,0,0.4,0.1
		c0.6,1.3,0.6,2.4,0.5,3.4c-0.1,1.1-0.9,1.8-1.4,2.7c-0.3,0.7-1.2,2-1.6,2.6c-0.6,0.9-1.1,1.7-1.8,2.6
		C235.9,440.3,235.8,440.2,235.8,440L235.8,440z"/>
</g>
<g>
	<path class="st1" d="M213.8,423.9c1.4-1.4,3-3,4.5-4.3c0.9-0.8,2.2-1.9,3.1-2.8c1.7-1.5,3.6-2.1,6-2.1c0.2,0,0.2,0.1,0.2,0.2
		c-0.5,1.6-1.4,2.8-2.4,3.8s-2.4,1.4-3.6,2c-0.9,0.5-2.8,1.4-3.7,1.8c-1.2,0.6-2.5,1.2-3.8,1.7C213.8,424.3,213.6,424.1,213.8,423.9
		L213.8,423.9z"/>
</g>
<g>
	<path class="st1" d="M207.1,394c2.4,0.3,4.9,0.9,7.2,1.3c1.4,0.3,3.4,0.8,4.8,1c2.5,0.6,4.5,1.8,6.3,3.9c0.1,0.1,0.1,0.2-0.1,0.3
		c-2.7,0.7-5.1,0.4-7.5-0.7c-2-1.1-4.6-2.1-6.6-3.2c-1.5-0.7-2.9-1.5-4.4-2.3C206.9,394.2,206.9,394,207.1,394L207.1,394z"/>
</g>
<g id="Calque_1_00000092416591651727795750000013287074332493574055_">
	<g id="Calque_12">
		<path class="st2" d="M465.8,459.5c0,0-0.1,3.9-9.3,10c-10.9,7.3-6.9,21.4-8.4,28.7c-1,4.9-9.9,17.3-13.7,16.6
			c-10.8-2-16.9-16.2-26.7-20.4c-5.7-2.4-8.2-4.7-13.7-2c-5.5-2.8-8-0.5-13.7,2c-9.8,4.2-15.8,18.5-26.7,20.4
			c-3.9,0.7-12.7-11.7-13.7-16.6c-1.5-7.3,2.5-21.4-8.4-28.7c-9.2-6.1-11.6-11-11.6-11c-7-17.1-6.1-26.7,3.9-29.7s29.4-7,38.6-10.1
			c4.7-1.6,8.5-3.4,10.6-5.8l1.6-37.3l18.3-0.6h2.2l14.3,0.5l4,0.1l0.7,15.7l0.6,12.9v0.5l0.4,8.2c0.4,0.5,0.9,0.9,1.5,1.3
			c2.7,2,6.8,3.2,11.6,4.2c6.5,1.3,30.5,8,37.8,9.4c3.1,0.6-2.8-0.9,0,0C475.8,430.6,472.8,442.4,465.8,459.5z"/>
		<path class="st3" d="M416.5,414.1c-5.4,4.2-18.8,11.4-21.3,12.6c-8.2,3.9-28.3-5-32.8-8.1c4.7-1.6,8.5-3.4,10.6-5.8l1.6-37.3h38.8
			l1.2,28.5v0.5l0.4,8.2C415.4,413.2,415.9,413.7,416.5,414.1z"/>
	</g>
</g>
<path class="st2" d="M347.9,444.2c0.2,19.8-13.4,25.3-20.4,32.4c-11.1,11.2-22.3,39.5-30.7,52.2c-3.9,6-15.6,18.7-26.4,13.6l0,0
	c-13.5-7.1-6.3-23.3-3.1-29.3c6.4-12.3,27.5-65.9,41.7-77.1c0,0,13.8-12,26.9-8C344.3,430.6,347.8,436,347.9,444.2L347.9,444.2z"/>
<path class="st2" d="M266.4,525.3c5.6-10.4,16.8-6.7,26.1-2.1c6.6,3.2,67.6,41,84.3,51.1c9.4,5.7,14.6,8.5,11.8,14.2
	c-2.5,5.2-13.5,2.4-17.8,1.4c-40.6-9.9-70.7-19.4-95.2-38.9C259.5,538.1,264.4,528.9,266.4,525.3z"/>
<path class="st2" d="M444.9,428.4c-5.5,11.8,3.9,22.1,7,28.7c5,10.6,5.5,31.4,8,41.8c1.2,4.9,6.2,16.6,15.3,17.2l0,0
	c11.6,0.3,10.7-11.8,10.1-16.6c-1.2-8.7-6.2-48.7-12.4-65c-1.3-3.3-3.8-5.9-7.1-7.2c-2-0.8-4.8-1.7-8.4-2.4
	c-6.8-1.2-10.4-2.3-12.6,2.6L444.9,428.4z"/>
<path class="st2" d="M479.4,520c11.2,2.7,16.6-4.7,20-11.4c2.5-4.8,19.7-53.3,24.6-66.5c2.8-7.4,4.5-11.3-1.4-12.9
	c-5.4-1.5-11.3,5.2-13.6,7.8c-22,24.5-36.9,43.8-40.8,65.5C465.6,516.7,475.5,519.1,479.4,520z"/>
<path class="st2" d="M527.8,407c2.7-2,5.2-4.2,7.5-6.6c1.7-1.8,4.9-0.6,4.9,1.8c0,0.1,0,0.3,0,0.4c-0.3,1.6-5.8,8.5-5.8,8.5l0,0
	c26.5-10.7,47.7-16.1,50.8-16.6c0,0,0,0,0.1,0c2.9-0.4,4,3.7,1.3,4.8c-8,3.4-20.5,8.9-25,11.1c-23,11.4-28.6,17.5-35.7,27.5
	c-1.2,1.8-15.8-0.1-13.7-4c0.8-1.4-0.5-9.1,1.4-11.1C521,414.4,527.5,407.2,527.8,407z"/>
<path class="st4" d="M335.4,426.2c0,16.2-3.4,57.2-3.6,59.8c0,0.1,0,0.2,0,0.2c0,3.1,0.8,65.5-2,86.4c-1.6,11.5-18.2,44.7-18.4,46.6
	c0,0.1,0,0.1,0,0.2c-2.7,13.2,5.7,26.1,18.8,28.9c1.7,0.4,3.4,0.5,5.1,0.5h122c11.6,0,20.9-9.4,20.9-20.9c0-2-0.3-4-0.9-6
	c0-0.1-0.1-0.2-0.1-0.3c-0.4-2.5-19.5-36.3-22.1-48.2c-2.6-12.2,0.3-79.9,0.5-83.4c0-0.1,0-0.2,0-0.3l-3.8-64
	c-0.1-1.1-0.9-2.1-2-2.4l-11.4-2.9c-0.5-0.1-0.9-0.1-1.4,0c-5.1,1.5-12.9,4.2-20.2,6.7c-12.8,4.5-26.7,5-39.9,1.4l-28.9-8
	c-0.5-0.1-1-0.1-1.5,0l-9.4,3C336,424.1,335.4,425.1,335.4,426.2z"/>
</svg>
