<?xml version="1.0" encoding="utf-8"?>
<!-- Generator: Adobe Illustrator 26.0.1, SVG Export Plug-In . SVG Version: 6.00 Build 0)  -->
<svg version="1.1" id="Calque_1" xmlns="http://www.w3.org/2000/svg" xmlns:xlink="http://www.w3.org/1999/xlink" x="0px" y="0px"
	 viewBox="0 0 788 1005" style="enable-background:new 0 0 788 1005;" xml:space="preserve">
<style type="text/css">
	.st0{fill:#5E6D70;}
	.st1{fill:#8E5736;}
	.st2{fill:#83B5C6;}
	.st3{fill:#6999AA;}
	.st4{fill:#87B6C7;}
	.st5{fill:#5291C0;}
</style>
<g id="Calque_9">
	<path class="st0" d="M465,684.6c0.5,7-5.4,13-13.8,13.9l0,0c-8,0.9-16-3.1-19-9.4c0,0-19.9-45.6-24.1-62.3c-1-4-2.2-15.9-2.2-15.9
		l-2.8-27.9c0,0-0.4-13.2,15.8-16.5c18.6-3.7,21,4.7,21,4.7s16.6,43.1,19.7,57C462.6,641,465,684.6,465,684.6z"/>
	<path class="st1" d="M357.2,682.9c-8.8-0.4-14.1,2.5-15.8,7.7c0,0-2.8,23.2-3.6,33c-1.3,15.7-0.5,48,2.4,63.7
		c0.6,3.5,1.8,13.8,1.8,13.8c0.4,3.1,4,5.6,8.3,5.7l0,0c4.2,0.1,7.7-2,8.2-5c0,0,1.5-11.8,2.3-15.7c3-14.1,11.6-42,12.9-56.3
		c0.8-8.6-0.1-35.2-0.1-35.2C373.2,685.7,364.8,683.4,357.2,682.9L357.2,682.9z"/>
	<path class="st1" d="M460,679.5c9-1.9,9.3,4.4,12.2,9.2c0,0,6.9,13.8,10.1,23.3c5.1,15.3,18.3,80.7,18.3,80.7
		c0.3,3.1,0.9,7.2-3.5,8.1l0,0c-4.3,0.8-9.8,0.1-11-2.8c0,0-27-55.7-31.9-69.6c-2.9-8.4-8.4-34.8-8.4-34.8
		C444.1,684.9,452.3,681.3,460,679.5L460,679.5z"/>
	<path class="st2" d="M350.1,791.5L350.1,791.5c-4.1,0.1-7.9,1.7-9.6,4.3l0,0c-4,5.7-20.8,13.4-20.8,13.4c-3,1.6-4.5,4.2-3.8,6.8
		l0,0l41.1-0.2l2.3-0.5c2.6-0.5,4.4-2.3,4.1-4.2l-2.4-13.9C359.8,793.8,355.3,791.4,350.1,791.5z"/>
	<path class="st3" d="M317,815.8L317,815.8c-0.6-2.3,1.8-4.5,5.1-4.8l24.4-2.5c3.1-0.3,6.1,1,6.9,3.2l1.4,4L317,815.8z"/>
	<path class="st4" d="M492.2,795.8c3.7-1.1,3.4-3.3,4.8-4.6c0.9-0.8,4.5-1.6,5.1-0.7c6.5,10.7,31,19.1,31,19.1
		c3.2,1.8,3.9,4.3,3.4,7l0,0c0,0-19.3,5.2-32.7-0.8c-2.7-1.2-9.7-1.7-9.7-1.7s-12.5,0.1-11.8-3.2l0.2-17.1
		C483.5,790.2,485.9,797.7,492.2,795.8z"/>
	<path class="st5" d="M335.2,530.3c0,0,8.2,10,0.7,10s2.7,242.9,2.7,242.9s0.7,4.8,21.4-2.5c12.2-4.3,30.2-129.4,42.4-135.4
		c10.8-5.3,62.9,137.7,75.2,135c21.1-4.7,24-5,23.4-4.6c-0.6,0.3-1.4,0.1-1.7-0.5c-0.1-0.2-0.1-0.4-0.2-0.6
		c-1.2-44.3-46.7-207.2-45.6-202.7l-15.4-31.4l1.9-8.1l-103.2-1.8"/>
</g>
</svg>
