<?xml version="1.0" encoding="utf-8"?>
<!-- Generator: Adobe Illustrator 26.0.1, SVG Export Plug-In . SVG Version: 6.00 Build 0)  -->
<svg version="1.1" id="Calque_1" xmlns="http://www.w3.org/2000/svg" xmlns:xlink="http://www.w3.org/1999/xlink" x="0px" y="0px"
	 viewBox="0 0 243 238.4" style="enable-background:new 0 0 243 238.4;" xml:space="preserve">
<style type="text/css">
	.st0{fill:#5E6D70;}
	.st1{fill:#8E5736;}
	.st2{fill:#83B5C6;}
	.st3{fill:#6999AA;}
	.st4{fill:none;stroke:#6699AA;stroke-width:2;stroke-linecap:round;stroke-miterlimit:10;}
	.st5{fill:#87B6C7;}
	.st6{fill:#6699AA;}
	.st7{fill:none;stroke:#6399AA;stroke-width:2;stroke-linecap:round;stroke-miterlimit:10;}
	.st8{fill:#8DB5D5;}
</style>
<g id="Calque_9">
	<path class="st0" d="M35.2,129.7c1.3,5.8,9,10.3,18.1,10.4l0,0c8.7,0.1,16.1-3.8,17.7-9.3c0,0,9.4-39.3,9.6-53.4
		c0-3.3-1.7-13.3-1.7-13.3l-4.2-23.3c0,0-2.9-11-20.9-12.3c-20.6-1.5-21,5.6-21,5.6s-6.6,37-6.4,48.7
		C26.8,93.5,35.2,129.7,35.2,129.7z"/>
	<path class="st0" d="M176.3,125.9c0.5,5.9-5.8,10.9-14.7,11.6l0,0c-8.5,0.7-17-2.6-20.3-7.9c0,0-21.2-38.1-25.7-52.1
		c-1.1-3.3-2.4-13.3-2.4-13.3l-2.9-23.3c0,0-0.4-11.1,16.9-13.8c19.9-3.1,22.4,4,22.4,4s17.7,36,21.1,47.6
		C173.6,89.5,176.3,125.9,176.3,125.9z"/>
	<path class="st1" d="M53.2,120.4c-9.8,0.1-15.6,2.8-17.1,7.2c0,0-1.6,19.5-1.8,27.7c-0.4,13.2,2.6,40,6.9,53
		c0.9,2.8,2.9,11.4,2.9,11.4c0.7,2.6,4.9,4.4,9.7,4.3l0,0c4.7-0.1,8.5-2.1,8.8-4.6c0,0,0.9-9.9,1.5-13.2
		c2.4-11.9,10.1-35.7,10.7-47.7c0.3-7.2-2.5-29.4-2.5-29.4C71.3,121.9,61.7,120.4,53.2,120.4z"/>
	<path class="st1" d="M159.9,116.7c9.8-0.6,16.1,1.8,18.5,6.1c0,0,7,18.5,9.1,26.8c3.4,13.2,0,65.4,0,65.4c-0.1,2.6-0.1,6.1-4.9,6.3
		l0,0c-4.7,0.2-10.4-0.9-11.2-3.5c0,0-21-49-24.3-61.1c-2-7.3-4.2-29.8-4.2-29.8C142.4,119.4,151.6,117.3,159.9,116.7L159.9,116.7z"
		/>
	<path class="st2" d="M53.5,215.2L53.5,215.2c-4.4,0-8.4,1.4-10.3,3.6l0,0c-4.3,4.8-22.3,11.2-22.3,11.2c-3.2,1.3-4.8,3.5-4,5.7l0,0
		l43.9-0.1l2.5-0.4c2.8-0.5,4.7-1.9,4.4-3.5l-2.5-11.6C63.9,217.2,59,215.1,53.5,215.2z"/>
	<path class="st3" d="M18.2,235.5L18.2,235.5c-0.6-1.9,1.9-3.7,5.5-4l26.1-2.1c3.4-0.3,6.5,0.9,7.3,2.6l1.5,3.3L18.2,235.5z"/>
	<path class="st4" d="M44.3,219.8c2.1-0.8,4.2-1.3,6.4-1.4c2.5,0,4.9,0.4,7.3,1.1"/>
	<path class="st4" d="M41.2,222.4c2.1-0.8,4.3-1.2,6.5-1.3c2.5,0.1,4.9,0.5,7.2,1.2"/>
	<path class="st5" d="M181.1,218.7c4.6-1.1,4.2-3.2,6-4.4c1.1-0.7,5.6-1.6,6.4-0.7c8.1,10.4,44.8,15.8,44.8,15.8
		c3.9,1.7,4.9,4.2,4.2,6.7l0,0c0,0-32.1,5.4-48.8-0.4c-3.3-1.2-12-1.7-12-1.7s-15.5,0.1-14.7-3.1l2-14.3
		C170.2,213.3,173.2,220.6,181.1,218.7z"/>
	<path class="st6" d="M242.9,236.2c0.5-4.2-3.3-6.8-4.6-6.7c-1.8,0.2-4.7,1.2-6.5,1.4c-2.9,0.3-11.6,0-11.6,0
		c-2-0.2-3.9,1.2-4.1,3.2v0.1v4c0,0,5.3,0.4,17.8-1C236,237.1,242.9,236.2,242.9,236.2z"/>
	<path class="st7" d="M198.4,219.1c-2.1,0.6-4.3,0.9-6.5,1.1"/>
	<path class="st7" d="M202.5,221.4c-2.1,0.7-4.2,1.1-6.4,1.3"/>
	<path class="st8" d="M33.2,0c0.1,2.5-23.2,122.7-33,173.1c-2.2,11.6,12.6,22.3,35.1,25.1c1.1,0,2.1,0.2,3.1,0.6
		c0.6,1,30.1,0,29.3,0.7l0,0l94.1-1.4c0,0-66.7-129.2-69.3-133.2c-0.5-0.8,13,69.7,18.2,114c1.4,12,22.8,20.9,46.5,19.3
		c1.6-0.2,3.1-0.2,4.7-0.1l27.6-3.6c0.8-0.3,1.6-0.5,2.5-0.7c20.9-5.9,30.6-17.3,25.7-29.1L149.8,2.3L33.2,0z"/>
</g>
</svg>
