<?xml version="1.0" encoding="utf-8"?>
<!-- Generator: Adobe Illustrator 26.0.1, SVG Export Plug-In . SVG Version: 6.00 Build 0)  -->
<svg version="1.1" id="Calque_1" xmlns="http://www.w3.org/2000/svg" xmlns:xlink="http://www.w3.org/1999/xlink" x="0px" y="0px"
	 viewBox="0 0 224.3 238" style="enable-background:new 0 0 224.3 238;" xml:space="preserve">
<style type="text/css">
	.st0{fill:#D68F72;}
	.st1{fill:#8E5736;}
	.st2{fill:#83B5C6;}
	.st3{fill:#6999AA;}
	.st4{fill:#87B6C7;}
	.st5{fill:#2A5D58;}
	.st6{fill:#66725B;}
</style>
<g id="Calque_9">
	<path class="st0" d="M167.6,123c0.8,5.9-5.2,10.9-14.1,11.8l0,0c-8.5,0.9-17.2-2.3-20.8-7.6c0,0-23.3-37.8-28.6-51.7
		c-1.2-3.3-3.1-13.3-3.1-13.3l-4.2-23.3c0,0-1-11.1,16.1-14c19.7-3.4,22.6,3.7,22.6,3.7s19.7,35.8,23.7,47.3
		C163,86.6,167.6,123,167.6,123z"/>
	<path class="st1" d="M38.4,118c-9.8,0.1-15.6,2.8-17.1,7.2c0,0-1.6,19.5-1.8,27.7c-0.4,13.2,2.6,40,6.9,53c0.9,2.8,3,11.4,3,11.4
		c0.7,2.5,4.9,4.4,9.6,4.3l0,0c4.7-0.1,8.5-2.1,8.8-4.6c0,0,0.9-9.9,1.5-13.2c2.4-11.9,10.1-35.7,10.7-47.7
		c0.3-7.2-2.5-29.3-2.5-29.3C56.5,119.5,46.9,118.1,38.4,118L38.4,118z"/>
	<path class="st1" d="M150.8,113.9c9.7-0.7,16.2,1.5,18.9,5.8c0,0,8,18.4,10.6,26.6c4.1,13.2,3.6,65.3,3.6,65.3
		c0.1,2.6,0.3,6.1-4.5,6.4l0,0c-4.7,0.3-10.4-0.8-11.4-3.3c0,0-23.8-48.7-27.7-60.7c-2.4-7.2-5.8-29.7-5.8-29.7
		C133.4,117,142.5,114.7,150.8,113.9z"/>
	<path class="st2" d="M26.4,216.4L26.4,216.4c-4.3,4.8-22.2,11.2-22.2,11.2c-3.2,1.3-4.8,3.5-4,5.7l0,0l43.9-0.1l2.5-0.4
		c2.8-0.5,4.7-1.9,4.4-3.5l-2.5-11.6c-1.3-2.9-6.2-5.8-11.6-4.8C33.9,213.3,28.6,214.9,26.4,216.4z"/>
	<path class="st3" d="M1.3,233.2L1.3,233.2c-0.6-1.9,1.9-3.7,5.5-4l26.1-2.1c3.4-0.3,6.5,0.9,7.3,2.6l1.5,3.3L1.3,233.2z"/>
	<path class="st4" d="M177.6,215.7c4.5-1.1,4-3.3,5.7-4.5c1-0.8,5.6-1.6,6.3-0.7c8.6,10.3,30,18.8,30,18.8c4,1.7,5.1,4.1,4.6,6.7
		l0,0c0,0-16.9,3.4-33.6,1.3c-3.6-0.5-12.1-1.5-12.1-1.5s-15.5,0.3-14.9-2.9l1.7-18.9C166.4,210.4,169.8,217.6,177.6,215.7z"/>
	<polygon class="st5" points="18.3,144.3 61.2,154.5 87.2,55.2 133.9,157.3 183.8,138.8 144.1,6.2 141.9,0 22.9,0.8 	"/>
	<polygon class="st6" points="64.2,157.4 10,147.3 15,133.1 64.2,148.1 	"/>
	<polygon class="st6" points="189.3,142.1 126.2,158.9 125,144 189.3,133.3 	"/>
</g>
</svg>
