<?xml version="1.0" encoding="utf-8"?>
<!-- Generator: Adobe Illustrator 26.0.2, SVG Export Plug-In . SVG Version: 6.00 Build 0)  -->
<svg version="1.1" id="Calque_1" xmlns="http://www.w3.org/2000/svg" xmlns:xlink="http://www.w3.org/1999/xlink" x="0px" y="0px"
	 viewBox="0 0 788 1005" style="enable-background:new 0 0 788 1005;" xml:space="preserve">
<style type="text/css">
	.st0{fill:#FA9980;}
	.st1{fill:#B25B49;}
	.st2{fill:#F4CB89;}
	.st3{fill:#7EA885;}
</style>
<path class="st0" d="M359.6,121.3l-2.4-1.6c-1.6-1.1-3.7-0.9-5.1,0.3l-0.6,0.5c-1,0.9-1.6,2.2-1.5,3.5l0.8,10.9
	c0.1,0.7,0.3,1.4,0.7,2c1.4,2.2,4.9,7.6,5.4,8.3c0.1,0.1,0.3,0.3,0.5,0.4c2.4,1.3,5.4-0.2,6-2.9l2.1-9.1c0.2-1,0.1-2-0.4-2.9
	l-4.1-7.8C360.7,122.2,360.2,121.7,359.6,121.3z"/>
<path class="st0" d="M430,121.3l3-1.7c1.7-1,3.9-0.6,5.2,0.9l0.1,0.1c0.8,0.9,1.2,2,1.1,3.1l-0.8,11.2c-0.1,0.7-0.3,1.4-0.7,2
	c-1.4,2.2-4.9,7.6-5.4,8.3c-0.1,0.1-0.3,0.3-0.5,0.4c-2.4,1.3-5.4-0.2-6-2.9l-2.1-9.1c-0.2-1-0.1-2,0.4-2.9l4-7.7
	C428.7,122.3,429.3,121.7,430,121.3z"/>
<path class="st0" d="M432.1,100.1c-1.4-6.8-5-12.9-10.4-17.2l-4.2-3.5c-4.8-3.9-10.8-6.3-17-6.7l-5.6-0.3h-0.1l-5.6,0.3
	c-6.2,0.4-12.2,2.7-17,6.7l-4.3,3.5c-5.3,4.4-9,10.4-10.4,17.2c-0.5,2.5-0.9,4.5-0.9,4.6c0,0.5,2.7,14.8,2.7,14.8v8l0.2,1.1
	l3.7,25.3c0.4,2.7,1.6,5.2,3.4,7.3c0,0,12.2,11.4,16.5,14.9c1.6,1.3,10.6,2.8,11.6,3l0,0h0.1l0.9-0.2l0.6-0.1
	c2.9-0.5,8.8-1.7,10.1-2.8c4.4-3.4,16.5-14.9,16.5-14.9c1.8-2,3-4.6,3.4-7.3l3.7-25.5l0.1-0.9v-8c0,0,2.7-14.3,2.7-14.8
	C433,104.5,432.6,102.5,432.1,100.1z"/>
<g>
	<path class="st1" d="M394.9,145.9l4.2-1.6c0,0,0.7-0.4,1.5-0.9c1.3-0.7,2.9-1.6,2.9-1.7c0.3,0.1,0.6,0.3,0.9,0.4L403,143l-1.6,0.8
		h2l2.6-2.1v-1.4h-2.2l-7.1,2.5h-1.8V145.9z"/>
	<path class="st1" d="M394.9,145.9l-4.2-1.6l-1.5-0.9c-1.3-0.7-2.9-1.6-2.9-1.7c-0.3,0.1-0.6,0.3-0.9,0.4l1.5,0.8l1.6,0.8h-2
		l-2.6-2.1v-1.4h2.2l7.1,2.5h1.8L394.9,145.9z"/>
</g>
<path class="st1" d="M428.3,140.3l1.9-13.2c0,0,4.7-4.7,5.1-4.8s0.6,2,0.6,2l-1.1,9.4l-2.7,4.7L428.3,140.3z"/>
<path class="st1" d="M361.4,141.3l-1.9-13.2c0,0-4.7-4.7-5.1-4.8s-0.6,2-0.6,2l1.1,9.4l2.7,4.7L361.4,141.3z"/>
<circle class="st0" cx="420.4" cy="89.8" r="14.1"/>
<path class="st2" d="M368,60.6c-0.2,0.2-0.5,0.3-0.8,0.3c-2.1-0.2-10.2,0-13.5,11.5c-3.8,13-2.9,28.4-2.9,28.8l0,0
	c0.1,0.4,4.6,13,8.3,20.5c0.2,0.5,0.9,0.2,0.8-0.3c-0.7-4.2-1.7-12.1-0.4-14.6c1.8-3.3,3.4-3.4,3.9-6.3c0.5-2.8-1.4-7.2,1.3-11
	c2.7-3.8,7.5-7.4,10.9-7.4s12.9,9.3,26.3,9.7c13.4,0.4,34.4-11.5,34.4-19.4c0-4.9-1.3-8.1-2.3-9.8c-0.4-0.7-1.4-0.6-1.7,0.1
	c-0.9,2-2.9,5.2-6,5.4c-4.6,0.3-17.6-14.9-35.9-14.4C374.6,54.4,369.2,59.3,368,60.6z"/>
<path class="st2" d="M426.5,88.3c1.3-1,4.8-3.6,7-5.9c0.8-0.8,2-0.3,2.1,0.9c0.5,6.8-1.3,22.4-5.6,37.4c-0.1,0.5-0.9,0.3-0.8-0.2
	c0.8-5.2,1.6-12.3-0.2-15.5c-2.8-5-3-3.3-3.1-15.6C426,89,426.2,88.6,426.5,88.3z"/>
<path class="st3" d="M357.7,100.4l12-4.3c14.9-5.3,31.8-5.5,46.8-0.6l14.8,4.9c2.8,0.9,5.9-0.4,6.7-2.8l2.7-9.1
	c0.9-3.2-9.4-10.9-17-15.9c-5.3-3.6-11.5-5.8-18.1-6.5c-6.2-0.7-12.4-0.7-18.6-0.2c-5.9,0.5-11.5,2.3-16.4,5.2
	c-9.5,5.4-24.6,14.6-23.6,17.1l4,9.7C351.9,100.2,355,101.4,357.7,100.4z"/>
</svg>
