<?xml version="1.0" encoding="utf-8"?>
<!-- Generator: Adobe Illustrator 26.0.2, SVG Export Plug-In . SVG Version: 6.00 Build 0)  -->
<svg version="1.1" id="Calque_1" xmlns="http://www.w3.org/2000/svg" xmlns:xlink="http://www.w3.org/1999/xlink" x="0px" y="0px"
	 viewBox="0 0 788 1005" style="enable-background:new 0 0 788 1005;" xml:space="preserve">
<style type="text/css">
	.st0{fill:#FA9980;}
	.st1{fill:#B25B49;}
	.st2{fill:#F4CB89;}
</style>
<g id="Calque_9">
	<path class="st0" d="M359.6,121.3l-2.4-1.6c-1.6-1.1-3.7-0.9-5.1,0.3l-0.6,0.5c-1,0.9-1.6,2.2-1.5,3.5l0.8,10.9
		c0.1,0.7,0.3,1.4,0.7,2c1.4,2.2,4.9,7.6,5.4,8.3c0.1,0.1,0.3,0.3,0.5,0.4c2.4,1.3,5.4-0.2,6-2.9l2.1-9.1c0.2-1,0.1-2-0.4-2.9
		l-4.1-7.8C360.7,122.2,360.2,121.7,359.6,121.3z"/>
	<path class="st0" d="M430,121.3l3-1.7c1.7-1,3.9-0.6,5.2,0.9l0.1,0.1c0.8,0.9,1.2,2,1.1,3.1l-0.8,11.2c-0.1,0.7-0.3,1.4-0.7,2
		c-1.4,2.2-4.9,7.6-5.4,8.3c-0.1,0.1-0.3,0.3-0.5,0.4c-2.4,1.3-5.4-0.2-6-2.9l-2.1-9.1c-0.2-1-0.1-2,0.4-2.9l4-7.7
		C428.7,122.3,429.3,121.7,430,121.3z"/>
	<path class="st0" d="M432.1,100.1c-1.4-6.8-5-12.9-10.4-17.2l-4.2-3.5c-4.8-3.9-10.8-6.3-17-6.7l-5.6-0.3h-0.1l-5.6,0.3
		c-6.2,0.4-12.2,2.7-17,6.7l-4.3,3.5c-5.3,4.4-9,10.4-10.4,17.2c-0.5,2.5-0.9,4.5-0.9,4.6c0,0.5,2.7,14.8,2.7,14.8v8l0.2,1.1
		l3.7,25.3c0.4,2.7,1.6,5.2,3.4,7.3c0,0,12.2,11.4,16.5,14.9c1.6,1.3,10.6,2.8,11.6,3l0,0h0.1l0.9-0.2l0.6-0.1
		c2.9-0.5,8.8-1.7,10.1-2.8c4.4-3.4,16.5-14.9,16.5-14.9c1.8-2,3-4.6,3.4-7.3l3.7-25.5l0.1-0.9v-8c0,0,2.7-14.3,2.7-14.8
		C433,104.5,432.6,102.5,432.1,100.1z"/>
	<path class="st1" d="M428.3,140.3l1.9-13.2c0,0,4.7-4.7,5.1-4.8s0.6,2,0.6,2l-1.1,9.4l-2.7,4.7L428.3,140.3z"/>
	<path class="st1" d="M361.4,141.3l-1.9-13.2c0,0-4.7-4.7-5.1-4.8s-0.6,2-0.6,2l1.1,9.4l2.7,4.7L361.4,141.3z"/>
	<path class="st1" d="M394.9,145.9l4.2-1.6c0,0,0.7-0.4,1.5-0.9c1.3-0.7,2.9-1.6,2.9-1.7c0.3,0.1,0.6,0.3,0.9,0.4L403,143l-1.6,0.8
		h2l2.6-2.1v-1.4h-2.2l-7.1,2.5h-1.8V145.9z"/>
	<path class="st1" d="M394.9,145.9l-4.2-1.6l-1.5-0.9c-1.3-0.7-2.9-1.6-2.9-1.7c-0.3,0.1-0.6,0.3-0.9,0.4l1.5,0.8l1.6,0.8h-2
		l-2.6-2.1v-1.4h2.2l7.1,2.5h1.8L394.9,145.9z"/>
</g>
<g id="Calque_1_00000133508527750184312950000001338693480840790948_">
	<path class="st2" d="M410.4,86.5c0,0-0.1,0-0.1,0.1c-4.7,1.4-9.2,3.3-13.5,5.7c-3.9,2.3-15.1,6.2-19.4,7.6
		c-0.7,0.2-1.3-0.4-1.1-1.1l1.2-3.1c0.3-0.8-0.6-1.5-1.3-1c-3.3,2.2-9.3,6.3-11.4,8.4c-3.5,3.7-4.8,9.1-5.2,12.9
		c-0.1,0.9-1.4,1-1.7,0.2c-2-6.3-5.2-18.2-3.7-26.1c0.1-0.7-0.6-1.2-1.2-0.9c-0.8,0.4-1.7,0.7-2.5,1c-0.7,0.2-1.3-0.4-1.1-1.1
		c1.4-4.2,5.6-15.9,10.4-20.7c5.7-5.6,11.6-7.2,15.1-7.6c0.8-0.1,1-1.2,0.3-1.6l-1.2-0.6c-0.7-0.4-0.6-1.4,0.2-1.6
		c4.6-1.1,15.6-3.5,23.4-2.2c11.3,1.7,16.4,8,17.8,9.9c0.2,0.3,0.6,0.4,0.9,0.3c2.3-0.7,10.9-2.5,17.9,8.3
		c6.1,9.3,3.6,20.9,3.5,21.5c0,0,0,0,0,0l-5.8,20.2c-0.3,1-1.7,0.8-1.7-0.2c-0.1-5.6-0.2-13.3-0.5-15c-0.2-1-0.3-3.2-0.5-5.3
		c-0.1-0.9-1.4-1.1-1.7-0.2l0,0c-0.2,0.6-0.9,0.8-1.3,0.4c-1.6-1.3-5-4.4-7.5-10.4C418,82.3,411.1,86,410.4,86.5z"/>
</g>
</svg>
