<?xml version="1.0" encoding="utf-8"?>
<!-- Generator: Adobe Illustrator 26.0.2, SVG Export Plug-In . SVG Version: 6.00 Build 0)  -->
<svg version="1.1" id="Layer_1" xmlns="http://www.w3.org/2000/svg" xmlns:xlink="http://www.w3.org/1999/xlink" x="0px" y="0px"
	 viewBox="0 0 188 167.8" style="enable-background:new 0 0 188 167.8;" xml:space="preserve">
<style type="text/css">
	.st0{fill:#FA9980;}
	.st1{fill:#B25B49;}
	.st2{fill:#F4CB89;}
</style>
<g>
	<polygon class="st0" points="59,55.9 55.6,67.1 72,76.7 115.3,75.3 131,70.8 130.4,65 126.3,57.8 	"/>
	<path class="st0" d="M59.4,100.6L57,99c-1.6-1.1-3.7-0.9-5.1,0.3l-0.6,0.5c-1,0.9-1.6,2.2-1.5,3.5l0.8,10.9c0.1,0.7,0.3,1.4,0.7,2
		c1.4,2.2,4.9,7.6,5.4,8.3c0.1,0.1,0.3,0.3,0.5,0.4c2.4,1.3,5.4-0.2,6-2.9l2.1-9.1c0.2-1,0.1-2-0.4-2.9l-4.1-7.8
		C60.5,101.5,60,101,59.4,100.6z"/>
	<path class="st0" d="M129.9,100.6l3-1.7c1.7-1,3.9-0.6,5.2,0.9l0.1,0.1c0.8,0.9,1.2,2,1.1,3.1l-0.8,11.2c-0.1,0.7-0.3,1.4-0.7,2
		c-1.4,2.2-4.9,7.6-5.4,8.3c-0.1,0.1-0.3,0.3-0.5,0.4c-2.4,1.3-5.4-0.2-6-2.9l-2.1-9.1c-0.2-1-0.1-2,0.4-2.9l4-7.7
		C128.6,101.6,129.1,101,129.9,100.6z"/>
	<path class="st0" d="M132,79.4c-1.4-6.8-5-12.9-10.4-17.2l-4.2-3.5c-4.8-3.9-10.8-6.3-17-6.7l-5.6-0.3h-0.1L89.1,52
		c-6.2,0.4-12.3-7.5-17.1-3.6l-10.6,3.2c-5.3,4.4-2.5,20.9-3.8,27.7c-0.5,2.5-0.9,4.5-0.9,4.6c0,0.5,2.7,14.8,2.7,14.8v8l0.2,1.1
		l3.7,25.3c0.4,2.7,1.6,5.2,3.4,7.3c0,0,12.2,11.4,16.5,14.9c1.6,1.3,10.6,2.8,11.6,3l0,0h0.1l0.9-0.2l0.6-0.1
		c2.9-0.5,8.8-1.7,10.1-2.8c4.4-3.4,16.5-14.9,16.5-14.9c1.8-2,3-4.6,3.4-7.3l3.7-25.5l0.1-0.9v-8c0,0,2.7-14.3,2.7-14.8
		C132.9,83.8,132.5,81.8,132,79.4z"/>
	<path class="st1" d="M128.2,119.6l1.9-13.2c0,0,4.7-4.7,5.1-4.8s0.6,2,0.6,2l-1.1,9.4l-2.7,4.7L128.2,119.6z"/>
	<path class="st1" d="M61.3,120.6l-1.9-13.2c0,0-4.7-4.7-5.1-4.8s-0.6,2-0.6,2l1.1,9.4l2.7,4.7L61.3,120.6z"/>
	<g>
		<path class="st1" d="M94.8,122.2l4.2-1.6c0,0,0.7-0.4,1.5-0.9c1.3-0.7,2.9-1.6,2.9-1.7c0.3,0.1,0.6,0.3,0.9,0.4l-1.4,0.9l-1.6,0.8
			h2l2.6-2.1v-1.4h-2.2l-7.1,2.5h-1.8V122.2z"/>
		<path class="st1" d="M94.8,122.2l-4.2-1.6l-1.5-0.9c-1.3-0.7-2.9-1.6-2.9-1.7c-0.3,0.1-0.6,0.3-0.9,0.4l1.5,0.8l1.6,0.8h-2
			l-2.6-2.1v-1.4H86l7.1,2.5h1.8L94.8,122.2z"/>
	</g>
	<path class="st2" d="M107.4,29.7c-1.8,7.5,3.7,8.4,8.8,10.3c3.1,1.2,6.1,3.2,8.4,5.6c8.5,8.7,6.5,17-6.4,25.2
		c0.9-2.4,1.5-4.2,2.8-7.7c-19,15.7-37.1,13-56.2,0.3c1.4,3,2.3,5,3.3,7.3C58,67.3,54.9,60.7,59,51.7c3.7-8.2,10.9-11.8,19.1-14
		C80.6,37.1,106,31.8,107.4,29.7z"/>
	<path class="st2" d="M129.3,102.9c-1.4-10.1-3.4-20.2-4-30.3c-0.2-3.5,3.1-7.1,5.3-11.7C135.9,73.6,135.2,86.8,129.3,102.9z"/>
	<path class="st2" d="M55,63.5c5.7,4.1,7.6,8.7,5.8,15.7c-1.9,7.3-0.7,15-1.9,24.5C54.4,89.2,50.4,76.7,55,63.5z"/>
	<path class="st2" d="M58.8,102.5l4.6,32.3c0,0,0.8,4.2,3.2,6.6c2.5,2.4,14.8,14.4,16.5,15.3c1.7,0.8,9.2,3.1,11.7,3.1
		s10.4-2,11.6-3.1s16.5-15.3,16.5-15.3s2.8-3.2,3.4-7.5s3.8-27.5,3.8-27.5v-6l-2.7,12.7c-0.1,0.3-0.2,0.6-0.4,0.9l-12.5,21.1
		c-0.4,0.6-0.6,1.3-0.8,2l-1.3,7.4c-0.1,0.7-0.5,1.4-1.1,1.8l-7.2,5.8c-0.4,0.3-1,0.6-1.5,0.6l-2,0.2c-1.2,0.1-2.4-0.5-3-1.6
		l-1.8-3.6c-0.2-0.5-0.7-0.8-1.3-0.9h-0.2c-0.6-0.1-1.2,0.2-1.5,0.8l-1.5,3.3c-0.7,1.6-2.7,2.3-4.2,1.3l-6-3.6
		c-0.8-0.5-1.4-1.4-1.5-2.4l-0.5-6.6c-0.1-1-0.4-2-1-3l-14.4-21.4c-0.1-0.2-0.2-0.4-0.3-0.6L58.8,102.5z"/>
</g>
</svg>
