<?xml version="1.0" encoding="utf-8"?>
<!-- Generator: Adobe Illustrator 26.0.2, SVG Export Plug-In . SVG Version: 6.00 Build 0)  -->
<svg version="1.1" id="Calque_1" xmlns="http://www.w3.org/2000/svg" xmlns:xlink="http://www.w3.org/1999/xlink" x="0px" y="0px"
	 viewBox="0 0 788 1005" style="enable-background:new 0 0 788 1005;" xml:space="preserve">
<style type="text/css">
	.st0{fill:#FA9980;}
	.st1{fill:#B25B49;}
	.st2{fill:#F4CB89;}
	.st3{fill:#EFD5AF;}
</style>
<path class="st0" d="M371.3,63.1l-1.2,0.2c-1.7,0.3-3.4,0.9-4.9,1.7l-0.9,0.5c-1.6,0.9-2.4,2.7-2,4.4l2.7,12.8
	c0.7,3.1,4.4,4.3,6.7,2.1l7.6-7c1.4-1.3,1.7-3.4,0.7-5l-4.6-7.7C374.6,63.6,373,62.8,371.3,63.1z"/>
<g id="Calque_9">
	<path class="st0" d="M359.6,121.3l-2.4-1.6c-1.6-1.1-3.7-0.9-5.1,0.3l-0.6,0.5c-1,0.9-1.6,2.2-1.5,3.5l0.8,10.9
		c0.1,0.7,0.3,1.4,0.7,2c1.4,2.2,4.9,7.6,5.4,8.3c0.1,0.1,0.3,0.3,0.5,0.4c2.4,1.3,5.4-0.2,6-2.9l2.1-9.1c0.2-1,0.1-2-0.4-2.9
		l-4.1-7.8C360.7,122.2,360.2,121.7,359.6,121.3z"/>
	<path class="st0" d="M430,121.3l3-1.7c1.7-1,3.9-0.6,5.2,0.9l0.1,0.1c0.8,0.9,1.2,2,1.1,3.1l-0.8,11.2c-0.1,0.7-0.3,1.4-0.7,2
		c-1.4,2.2-4.9,7.6-5.4,8.3c-0.1,0.1-0.3,0.3-0.5,0.4c-2.4,1.3-5.4-0.2-6-2.9l-2.1-9.1c-0.2-1-0.1-2,0.4-2.9l4-7.7
		C428.7,122.3,429.3,121.7,430,121.3z"/>
	<path class="st0" d="M432.1,100.1c-1.4-6.8-5-12.9-10.4-17.2l6.6-13c-4.8-3.9-21.6,3.2-27.8,2.8l-5.6-0.3h-0.1l-5.6,0.3
		c-6.2,0.4-12.2,2.7-17,6.7l-4.3,3.5c-5.3,4.4-9,10.4-10.4,17.2c-0.5,2.5-0.9,4.5-0.9,4.6c0,0.5,2.7,14.8,2.7,14.8v8l0.2,1.1
		l3.7,25.3c0.4,2.7,1.6,5.2,3.4,7.3c0,0,12.2,11.4,16.5,14.9c1.6,1.3,10.6,2.8,11.6,3l0,0h0.1l0.9-0.2l0.6-0.1
		c2.9-0.5,8.8-1.7,10.1-2.8c4.4-3.4,16.5-14.9,16.5-14.9c1.8-2,3-4.6,3.4-7.3l3.7-25.5l0.1-0.9v-8c0,0,2.7-14.3,2.7-14.8
		C433,104.5,432.6,102.5,432.1,100.1z"/>
	<path class="st1" d="M428.3,140.3l1.9-13.2c0,0,4.7-4.7,5.1-4.8s0.6,2,0.6,2l-1.1,9.4l-2.7,4.7L428.3,140.3z"/>
	<path class="st1" d="M361.4,141.3l-1.9-13.2c0,0-4.7-4.7-5.1-4.8s-0.6,2-0.6,2l1.1,9.4l2.7,4.7L361.4,141.3z"/>
	<path class="st1" d="M394.9,145.9l4.2-1.6c0,0,0.7-0.4,1.5-0.9c1.3-0.7,2.9-1.6,2.9-1.7c0.3,0.1,0.6,0.3,0.9,0.4L403,143l-1.6,0.8
		h2l2.6-2.1v-1.4h-2.2l-7.1,2.5h-1.8V145.9z"/>
	<path class="st1" d="M394.9,145.9l-4.2-1.6l-1.5-0.9c-1.3-0.7-2.9-1.6-2.9-1.7c-0.3,0.1-0.6,0.3-0.9,0.4l1.5,0.8l1.6,0.8h-2
		l-2.6-2.1v-1.4h2.2l7.1,2.5h1.8L394.9,145.9z"/>
</g>
<path class="st2" d="M352.9,109.5c2.8,4.8,5.3,11.2,7.9,16.5c0.2,0.4,0.9,0.3,0.9-0.2c0.8-9.7,2-20.5,2.9-30.4
	c0.1-0.8-0.7-1.4-1.5-1.2l-2.1,0.7c12-8.5,9.1-19.2,3.9-31.4c-14.3,5.1-14.3,20.2-16.3,32.9c-0.3,2.2,0,4.4,0.9,6.4l0.9,2
	C351.1,106.3,352,107.9,352.9,109.5z"/>
<path class="st3" d="M436.4,103.4l6.7,4.1l-10.5-21.3l-16-11.7l-5,4.3c0,0,6.9,0.4,11.4,5.1C427.5,88.6,436.4,103.4,436.4,103.4z"/>
<path class="st2" d="M436,108.6c-4.6,4-4.6,12.9-7.3,18.5c-0.2,0.4-0.8,0.3-0.8-0.1c-1.7-12.2,4.6-23.7-8.1-45.4
	c4.6,1.2,14.7,11.3,19.4,22.6l-0.4,0.8C438.3,106.4,437.2,107.6,436,108.6z"/>
<path class="st2" d="M441.5,106.6c-21.9-43.6-29-18.3-69.6-28.9c-0.2,0-0.3-0.2-0.4-0.3c-11.3-26.7,6.9-28.9,37.6-27.7
	c1.2,0,1.5,1.7,0.4,2.2l-3.3,1.2c-0.5,0.2-0.5,1,0.1,1.1c8.4,1.3,17,2,21.4,10.5c6.8,13.7,12.2,27.5,16.3,42.3
	c0.1,0.5-0.4,0.9-0.8,0.7l-1.3-0.7C441.6,106.8,441.5,106.7,441.5,106.6z"/>
</svg>
