<?xml version="1.0" encoding="utf-8"?>
<!-- Generator: Adobe Illustrator 26.0.2, SVG Export Plug-In . SVG Version: 6.00 Build 0)  -->
<svg version="1.1" id="Layer_1" xmlns="http://www.w3.org/2000/svg" xmlns:xlink="http://www.w3.org/1999/xlink" x="0px" y="0px"
	 viewBox="0 0 788 1005" style="enable-background:new 0 0 788 1005;" xml:space="preserve">
<style type="text/css">
	.st0{fill:#FA9980;}
	.st1{fill:#683B2F;}
	.st2{fill:#B25B49;}
</style>
<g id="Calque_9">
	<path class="st0" d="M359.7,121.4l-2.6-1.7c-1.5-1-3.5-0.9-4.9,0.3l-0.8,0.7c-1,0.8-1.5,2.1-1.4,3.4l0.8,11c0,0.7,0.3,1.3,0.6,1.9
		c1.4,2.2,4.9,7.6,5.4,8.4c0.2,0.2,0.5,0.4,1,0.6c2.3,0.9,4.9-0.5,5.4-2.9l2.2-9.5c0.2-0.9,0.1-1.9-0.4-2.8l-4.2-8
		C360.7,122.3,360.2,121.7,359.7,121.4z"/>
	<path class="st0" d="M430,121.3l3.2-1.8c1.7-0.9,3.7-0.6,5,0.8l0.3,0.3c0.7,0.8,1.1,1.9,1,3l-0.8,11.3c0,0.7-0.3,1.3-0.6,1.9
		c-1.4,2.2-4.9,7.6-5.4,8.4c-0.2,0.2-0.5,0.4-1,0.6c-2.3,0.9-4.9-0.5-5.4-2.9l-2.2-9.5c-0.2-0.9-0.1-1.9,0.4-2.8l4.1-7.8
		C428.7,122.3,429.3,121.7,430,121.3z"/>
	<path class="st0" d="M432.1,100.1c-1.4-6.8-7-17.2-12.3-21.5l-13.3-3.4c-4.8-3.9,0.2-2-6-2.3l-5.6-0.3h-0.1l-5.6,0.3
		c-6.2,0.4-12.2,2.7-17,6.7l-4.3,3.5c-5.3,4.4-9,10.4-10.4,17.2c-0.5,2.5-0.9,4.5-0.9,4.6c0,0.5,2.7,14.8,2.7,14.8v8l0.2,1.1
		l3.7,25.3c0.4,2.7,1.6,5.2,3.4,7.3c0,0,12.2,11.4,16.5,14.9c1.6,1.3,10.6,2.8,11.6,3l0,0h0.1l0.9-0.2l0.6-0.1
		c2.9-0.5,8.8-1.7,10.1-2.8c4.4-3.4,16.5-14.9,16.5-14.9c1.8-2,3-4.6,3.4-7.3l3.7-25.5l0.1-0.9v-6.3c1.7-5.3,2.6-10.9,2.7-16.5
		C433,104.5,432.6,102.5,432.1,100.1z"/>
	<path class="st1" d="M390.7,143.4l-4.9-2.1l-0.9,0.9c0,0,3.1,1.8,3.5,1.9s3.8,0,3.8,0L390.7,143.4z"/>
	<path class="st1" d="M398.3,143.4l4.9-2.1l1.6,0.9c-0.6,0.6-1.3,1.2-2.1,1.7c-0.5,0.1-1,0.1-1.5,0.1L398.3,143.4z"/>
	<path class="st2" d="M394.9,145.9l4.2-1.6c0,0,0.7-0.4,1.5-0.9c1.3-0.7,2.9-1.6,2.9-1.7c0.3,0.1,0.6,0.3,0.9,0.4L403,143l-1.6,0.8
		h2l2.6-2.1v-1.4h-2.2l-7.1,2.5h-1.8L394.9,145.9z"/>
	<path class="st2" d="M394.9,145.9l-4.2-1.6l-1.5-0.9c-1.3-0.7-2.9-1.6-2.9-1.7c-0.3,0.1-0.6,0.3-0.9,0.4l1.5,0.8l1.6,0.8h-2
		l-2.6-2.1v-1.4h2.2l7.1,2.5h1.8L394.9,145.9z"/>
	<path class="st2" d="M428.3,140.3l1.9-13.2c0,0,4.7-4.7,5.1-4.8s0.6,2,0.6,2l-1.1,9.4l-2.7,4.7L428.3,140.3z"/>
	<path class="st2" d="M361.4,141.3l-1.9-13.2c0,0-4.7-4.7-5.1-4.8s-0.6,2-0.6,2l1.1,9.4l2.7,4.7L361.4,141.3z"/>
</g>
<g id="Calque_1">
	<polygon class="st0" points="425.4,151.1 371,151.1 371,142.3 372.5,142.5 397.6,144.4 423.8,142.4 423.8,140.8 425.2,141 	"/>
	<path class="st0" d="M432.2,101c-1.4-6.8-5.1-18.1-10.4-22.4l-4.3-3.6c-4.8-3.9-10.8-6.3-17-6.7l-5.6-0.3h-0.1l-5.6,0.3
		c-6.2,0.4-12.2,2.7-17,6.7l-4.2,3.5c-5.4,4.4-9,15.7-10.3,22.5c-0.5,2.5-0.9,4.5-0.9,4.6c0.2,5,1.1,10,2.7,14.8v8l0.2,1.1l3.7,25.3
		c0.4,2.7,1.6,5.2,3.4,7.3c0,0,12.2,11.4,16.5,14.9c1.6,1.3,10.6,2.8,11.6,3l0,0h0.1l0,0l0.9-0.2l0.6-0.1c2.9-0.5,8.8-1.7,10.1-2.8
		c4.4-3.4,16.5-14.9,16.5-14.9c1.8-2,3-4.6,3.4-7.3l3.7-25.5l0.1-0.9v-8c0,0,2.7-14.3,2.7-14.8C433.1,105.4,432.7,103.4,432.2,101z"
		/>
	<path class="st0" d="M410.9,117.6l-5.5,3c0,0-4.1-2.1-4.2-2.5s-0.5-7.6-0.5-7.6c1.5-0.1,3-0.3,4.5-0.6c0.3-0.1,10.3-2.2,11.4-2.4
		s11.3,3.3,11.8,3.4s0.6,4.5,0.7,4.8c-0.3,0.8-0.6,1.6-1.1,2.4h-5.6l-3.1-3.9c0,0-7.1-0.2-7.5,0.5
		C411.3,115.6,411,116.6,410.9,117.6z"/>
	<path class="st0" d="M379.6,117.6l5.5,3c0,0,4.1-2.1,4.2-2.5s0.5-7.6,0.5-7.6c-1.5-0.1-3-0.3-4.5-0.6c-0.3-0.1-10.3-2.2-11.4-2.4
		s-11.3,3.3-11.8,3.4s-0.6,4.5-0.7,4.8c0.3,0.8,0.6,1.6,1.1,2.4h5.6l3.1-3.9c0,0,7.1-0.2,7.5,0.5
		C379.2,115.6,379.5,116.6,379.6,117.6z"/>
	<path class="st2" d="M394.9,145.9l4.2-1.6c0,0,0.7-0.4,1.5-0.9c1.3-0.7,2.9-1.6,2.9-1.7c0.3,0.1,0.6,0.3,0.9,0.4L403,143l-1.6,0.8
		h2l2.6-2.1v-1.4h-2.2l-7.1,2.5h-1.8L394.9,145.9z"/>
	<path class="st2" d="M394.9,145.9l-4.2-1.6l-1.5-0.9c-1.3-0.7-2.9-1.6-2.9-1.7c-0.3,0.1-0.6,0.3-0.9,0.4l1.5,0.8l1.6,0.8h-2
		l-2.6-2.1v-1.4h2.2l7.1,2.5h1.8L394.9,145.9z"/>
</g>
</svg>
