<?xml version="1.0" encoding="utf-8"?>
<!-- Generator: Adobe Illustrator 26.0.2, SVG Export Plug-In . SVG Version: 6.00 Build 0)  -->
<svg version="1.1" id="Layer_1" xmlns="http://www.w3.org/2000/svg" xmlns:xlink="http://www.w3.org/1999/xlink" x="0px" y="0px"
	 viewBox="0 0 188 167.8" style="enable-background:new 0 0 188 167.8;" xml:space="preserve">
<style type="text/css">
	.st0{fill:#FA9980;}
	.st1{fill:#B25B49;}
	.st2{fill:#F4CB89;}
	.st3{fill:#82BDF9;}
	.st4{fill:#3B3BCC;}
</style>
<path class="st0" d="M59.5,75.3c1.2,2.7,4.6,3.5,6.9,1.7c4.6-3.8,13-8.8,25-9.1c14.1-0.4,24.1,3.5,29.8,7.6c2.4,1.8,5.9,0.7,6.9-2.1
	l2.1-5.8c0.4-1,0.4-2.1,0-3.1l-1.6-4.1c-0.6-1.6-2-2.7-3.7-2.9l-33-3.6c-0.4,0-0.8,0-1.2,0L60.8,59c-1.4,0.2-2.7,1.2-3.3,2.5
	l-1.3,2.8c-0.6,1.2-0.6,2.6,0,3.8L59.5,75.3z"/>
<g id="Calque_9_00000065056160469081639780000014059754452373455029_">
	<path class="st0" d="M60,101.5l-2.8-1.9c-1.4-0.9-3.3-0.8-4.5,0.3l-1.1,0.9c-0.9,0.8-1.4,1.9-1.3,3.1l0.8,11.2
		c0,0.6,0.2,1.3,0.6,1.8c1.4,2.1,5,7.7,5.5,8.4c0.2,0.3,0.8,0.6,1.5,0.8c2.1,0.7,4.4-0.6,4.9-2.7l2.3-9.8c0.2-0.9,0.1-1.8-0.3-2.6
		l-4.2-8.1C60.9,102.3,60.5,101.8,60,101.5z"/>
	<path class="st0" d="M130.2,101.4l3.5-2c1.5-0.9,3.5-0.6,4.7,0.8l0.5,0.6c0.7,0.8,1,1.8,1,2.8l-0.8,11.5c0,0.6-0.2,1.3-0.6,1.8
		c-1.4,2.1-5,7.7-5.5,8.4c-0.2,0.3-0.8,0.6-1.5,0.8c-2.1,0.7-4.4-0.6-4.9-2.7l-2.3-9.8c-0.2-0.9-0.1-1.8,0.3-2.6l4.1-8
		C129,102.3,129.5,101.8,130.2,101.4z"/>
	<path class="st0" d="M132.4,80.2c-1.4-6.8-5-12.9-10.4-17.2l-4.2-3.5c-4.8-3.9-10.8-6.3-17-6.7l-5.6-0.3h-0.1l-5.6,0.3
		c-6.2,0.4-12.2,2.7-17,6.7L68.2,63c-5.3,4.4-9,10.4-10.4,17.2c-0.5,2.5-0.9,4.5-0.9,4.6c0,0.5,2.7,14.8,2.7,14.8v8l0.2,1.1
		l3.7,25.3c0.4,2.7,1.6,5.2,3.4,7.3c0,0,12.2,11.4,16.5,14.9c1.6,1.3,10.6,2.8,11.6,3l0,0h0.1L96,159l0.6-0.1
		c2.9-0.5,8.8-1.7,10.1-2.8c4.4-3.4,16.5-14.9,16.5-14.9c1.8-2,3-4.6,3.4-7.3l3.7-25.5l0.1-0.9v-8c0,0,2.7-14.3,2.7-14.8
		C133.3,84.6,132.9,82.6,132.4,80.2z"/>
	<path class="st1" d="M128.6,120.4l1.9-13.2c0,0,4.7-4.7,5.1-4.8s0.6,2,0.6,2l-1.1,9.4l-2.7,4.7L128.6,120.4z"/>
	<path class="st1" d="M61.7,121.4l-1.9-13.2c0,0-4.7-4.7-5.1-4.8s-0.6,2-0.6,2l1.1,9.4l2.7,4.7L61.7,121.4z"/>
</g>
<path class="st1" d="M94.2,126l4.2-1.6c0,0,0.7-0.4,1.5-0.9c1.3-0.7,2.9-1.6,2.9-1.7c0.3,0.1,0.6,0.3,0.9,0.4l-1.4,0.9l-1.6,0.8h2
	l2.6-2.1v-1.4h-2.2l-7.1,2.5h-1.8V126z"/>
<path class="st1" d="M94.2,126l-4.2-1.6l-1.5-0.9c-1.3-0.7-2.9-1.6-2.9-1.7c-0.3,0.1-0.6,0.3-0.9,0.4l1.5,0.8l1.6,0.8h-2l-2.6-2.1
	v-1.4h2.2l7.1,2.5h1.8L94.2,126z"/>
<path class="st2" d="M103.1,36.3c1.5-2.1,2.9-4.1,4.4-6.2c-1.8,7.5,3.7,8.4,8.8,10.3c3.1,1.2,6.1,3.2,8.4,5.6
	c8.5,8.7,6.5,17-6.4,25.2c0.9-2.4,1.5-4.2,2.8-7.7c-19,15.7-37.1,13-56.2,0.3c1.4,3,2.3,5,3.3,7.3C58,67.7,55,61.1,59,52.2
	c3.7-8.2,10.9-11.8,19.1-14c2.6-0.7,5.2-1.1,7.8-1.7c-6.6-10.6-6.9-17.4-1.1-22.8c4.6-4.3,12.8-5,17.7-1.4c6.2,4.5,6,9.9-0.7,22.8
	C102.2,35.5,102.6,35.9,103.1,36.3z"/>
<path class="st2" d="M129.3,103.3c-1.4-10.1-3.4-20.2-4-30.3c-0.2-3.5,3.1-7.1,5.3-11.7C135.9,74,135.2,87.3,129.3,103.3z"/>
<path class="st2" d="M55,63.9c5.7,4.1,7.6,8.7,5.8,15.7c-1.9,7.3-0.7,15-1.9,24.5C54.4,89.6,50.4,77.1,55,63.9z"/>
<path class="st3" d="M102.3,36.7H84.8c-0.7,0-1.3-0.6-1.3-1.3v0c0-0.7,0.6-1.3,1.3-1.3h17.4c0.7,0,1.3,0.6,1.3,1.3v0
	C103.5,36.1,103,36.7,102.3,36.7z"/>
<path class="st4" d="M102.2,34.5H84.8c-0.7,0-1.3-0.6-1.3-1.3v0c0-0.7,0.6-1.3,1.3-1.3h17.4c0.7,0,1.3,0.6,1.3,1.3v0
	C103.5,33.9,102.9,34.5,102.2,34.5z"/>
</svg>
