<?xml version="1.0" encoding="utf-8"?>
<!-- Generator: Adobe Illustrator 26.0.2, SVG Export Plug-In . SVG Version: 6.00 Build 0)  -->
<svg version="1.1" id="Layer_1" xmlns="http://www.w3.org/2000/svg" xmlns:xlink="http://www.w3.org/1999/xlink" x="0px" y="0px"
	 viewBox="0 0 188 167.8" style="enable-background:new 0 0 188 167.8;" xml:space="preserve">
<style type="text/css">
	.st0{fill:#FA9980;}
	.st1{fill:#B25B49;}
	.st2{fill:#F4CB89;}
</style>
<circle class="st0" cx="120.3" cy="70" r="14.1"/>
<g id="Calque_9_00000081610824357458620360000002941462526359659425_">
	<path class="st0" d="M59.5,101.8l-2.4-1.6c-1.6-1-3.7-0.9-5.1,0.3l-0.6,0.5c-1,0.9-1.6,2.2-1.5,3.5l0.8,10.9c0.1,0.7,0.3,1.4,0.7,2
		c1.4,2.2,4.9,7.6,5.4,8.3c0.1,0.2,0.3,0.3,0.6,0.5c2.4,1.2,5.3-0.3,5.9-2.9l2.2-9.2c0.2-1,0.1-2-0.4-2.9l-4.1-7.9
		C60.5,102.7,60.1,102.2,59.5,101.8z"/>
	<path class="st0" d="M129.8,101.8l3-1.7c1.7-1,3.9-0.6,5.2,0.8l0.1,0.2c0.8,0.9,1.2,2,1.1,3.1l-0.8,11.2c-0.1,0.7-0.3,1.4-0.7,2
		c-1.4,2.2-4.9,7.6-5.4,8.3c-0.1,0.2-0.3,0.3-0.6,0.5c-2.4,1.2-5.3-0.3-5.9-2.9l-2.2-9.2c-0.2-1-0.1-2,0.4-2.9l4-7.7
		C128.5,102.8,129.1,102.2,129.8,101.8z"/>
	<path class="st0" d="M131.9,80.5c-1.4-6.8-5-12.9-10.4-17.2l-4.2-3.5c-4.8-3.9-10.8-6.3-17-6.7l-5.6-0.3h-0.1L89,53.1
		c-6.2,0.4-12.2,2.7-17,6.7l-4.3,3.5c-5.3,4.4-9,10.4-10.4,17.2c-0.5,2.5-0.9,4.5-0.9,4.6c0,0.5,2.7,14.8,2.7,14.8v8l0.2,1.1
		l3.7,25.3c0.4,2.7,1.6,5.2,3.4,7.3c0,0,12.2,11.4,16.5,14.9c1.6,1.3,10.6,2.8,11.6,3l0,0h0.1l0.9-0.2l0.6-0.1
		c2.9-0.5,8.8-1.7,10.1-2.8c4.4-3.4,16.5-14.9,16.5-14.9c1.8-2,3-4.6,3.4-7.3l3.7-25.5l0.1-0.9v-8c0,0,2.7-14.3,2.7-14.8
		C132.8,85,132.4,83,131.9,80.5z"/>
	<path class="st1" d="M94.8,126.4l4.2-1.6c0,0,0.7-0.4,1.5-0.9c1.3-0.7,2.9-1.6,2.9-1.7c0.3,0.1,0.6,0.3,0.9,0.4l-1.5,0.8l-1.6,0.8
		h2l2.6-2.1v-1.4h-2.2l-7.1,2.5h-1.8L94.8,126.4z"/>
	<path class="st1" d="M94.8,126.4l-4.2-1.6l-1.5-0.9c-1.3-0.7-2.9-1.6-2.9-1.7c-0.3,0.1-0.6,0.3-0.9,0.4l1.5,0.8l1.6,0.8h-2
		l-2.6-2.1v-1.4H86l7.1,2.5h1.8L94.8,126.4z"/>
	<path class="st1" d="M128.1,120.8l1.9-13.2c0,0,4.7-4.7,5.1-4.8s0.6,2,0.6,2l-1.1,9.4L132,119L128.1,120.8z"/>
	<path class="st1" d="M61.2,121.8l-1.9-13.2c0,0-4.7-4.7-5.1-4.8s-0.6,2-0.6,2l1.1,9.4l2.7,4.7L61.2,121.8z"/>
</g>
<path class="st2" d="M67.9,43.8c-0.2,0.2-0.5,0.3-0.8,0.3c-2.1-0.2-10.2,0-13.5,11.5c-3.8,13-2.9,28.4-2.9,28.8l0,0
	c0.1,0.4,4.6,13,8.3,20.5c0.2,0.5,0.9,0.2,0.8-0.3c-0.7-4.2-1.7-12.1-0.4-14.6c1.8-3.3,3.4-3.4,3.9-6.3c0.5-2.8-1.4-7.2,1.3-11
	c2.7-3.8,7.5-7.4,10.9-7.4s12.9,9.3,26.3,9.7c13.4,0.4,34.4-11.5,34.4-19.4c0-4.9-1.3-8.1-2.3-9.8c-0.4-0.7-1.4-0.6-1.7,0.1
	c-0.9,2-2.9,5.2-6,5.4c-4.6,0.3-17.6-14.9-35.9-14.4C74.5,37.6,69.1,42.5,67.9,43.8z"/>
<path class="st2" d="M126.4,71.5c1.3-1,4.8-3.6,7-5.9c0.8-0.8,2-0.3,2.1,0.9c0.5,6.8-1.3,22.4-5.6,37.4c-0.1,0.5-0.9,0.3-0.8-0.2
	c0.8-5.2,1.6-12.3-0.2-15.5c-2.8-5-3-3.3-3.1-15.6C125.9,72.2,126.1,71.8,126.4,71.5z"/>
</svg>
