<?xml version="1.0" encoding="utf-8"?>
<!-- Generator: Adobe Illustrator 26.0.2, SVG Export Plug-In . SVG Version: 6.00 Build 0)  -->
<svg version="1.1" id="Calque_1" xmlns="http://www.w3.org/2000/svg" xmlns:xlink="http://www.w3.org/1999/xlink" x="0px" y="0px"
	 viewBox="0 0 788 1005" style="enable-background:new 0 0 788 1005;" xml:space="preserve">
<style type="text/css">
	.st0{fill:none;stroke:#2E858E;stroke-width:3;stroke-miterlimit:10;}
	.st1{fill:#FA9980;}
	.st2{fill:#B25B49;}
	.st3{fill:#F4CB89;}
	.st4{fill:#2E858E;}
</style>
<path class="st0" d="M345.7,115.5c-1-3.1-1.5-6.4-1.5-9.7c0-21.7,22.4-39.4,50-39.4c27.6,0,50,17.6,50,39.4c0,3.5-0.6,6.8-1.7,10.1"
	/>
<path class="st1" d="M364.5,74l-8.1,13.6c-1,1.7-1.2,3.6-0.7,5.5l1.9,6.6c0.8,2.9,3.4,4.9,6.4,5l5.5,0.2c3.9,0.2,7.1-2.8,7.2-6.7
	l0.7-20.3c0.2-4.7-4.2-8.2-8.8-7l0,0C367,71.3,365.5,72.5,364.5,74z"/>
<g id="Calque_9">
	<path class="st1" d="M360.5,121.9l-6-4l-4.7,4l1,14.1c0,0,5.4,8.3,6,9.2s5.5,1.8,5.5,1.8l3.5-14.9L360.5,121.9z"/>
	<path class="st1" d="M428.9,121.9l7.1-4l3.6,4l-1,14.1c0,0-5.4,8.3-6,9.2s-5.5,1.8-5.5,1.8l-3.5-14.9L428.9,121.9z"/>
	<path class="st1" d="M429.4,90.6c-1.4-6.8-2.3-3.4-7.7-7.7l-4.2-3.5c-4.8-3.9-10.8-6.3-17-6.7l-5.6-0.3h-0.1l-5.6,0.3
		c-6.2,0.4-12.2,2.7-17,6.7l-4.3,3.5c-5.3,4.4-9,0.1-10.4,6.8c-0.5,2.5-2.5,10.1-2.6,14c-0.1,5.7,4.4,15.8,4.4,15.8v8l0.2,1.1
		l3.7,25.3c0.4,2.7,1.6,5.2,3.4,7.3c0,0,12.2,11.4,16.5,14.9c1.6,1.3,10.6,2.8,11.6,3l0,0h0.1l0.9-0.2l0.6-0.1
		c2.9-0.5,8.8-1.7,10.1-2.8c4.4-3.4,16.5-14.9,16.5-14.9c1.8-2,3-4.6,3.4-7.3l3.7-25.5l0.1-0.9v-8c0,0,2.9-11,2.7-14.8
		S429.9,93.1,429.4,90.6z"/>
	<path class="st2" d="M428.3,140.3l1.9-13.2c0,0,4.7-4.7,5.1-4.8s0.6,2,0.6,2l-1.1,9.4l-2.7,4.7L428.3,140.3z"/>
	<path class="st2" d="M361.4,141.3l-1.9-13.2c0,0-4.7-4.7-5.1-4.8s-0.6,2-0.6,2l1.1,9.4l2.7,4.7L361.4,141.3z"/>
	<path class="st2" d="M394.9,145.9l4.2-1.6c0,0,0.7-0.4,1.5-0.9c1.3-0.7,2.9-1.6,2.9-1.7c0.3,0.1,0.6,0.3,0.9,0.4L403,143l-1.6,0.8
		h2l2.6-2.1v-1.4h-2.2l-7.1,2.5h-1.8V145.9z"/>
	<path class="st2" d="M394.9,145.9l-4.2-1.6l-1.5-0.9c-1.3-0.7-2.9-1.6-2.9-1.7c-0.3,0.1-0.6,0.3-0.9,0.4l1.5,0.8l1.6,0.8h-2
		l-2.6-2.1v-1.4h2.2l7.1,2.5h1.8L394.9,145.9z"/>
</g>
<path class="st3" d="M349.6,93.9c0-3.5,0.5-7,1.5-10.3c1.4-4.6,2.8-9.2,4.2-13.8c2.1-6.8,6.7-11.9,13.2-13.7
	c8.4-2.3,17.1-3.5,25.8-4.4c4.9-0.5,9.8-0.3,15.2-0.2c2,0,3.5,2,2.9,4c-0.7,2.4-1.3,4.4-1.9,6.5c0.7,0.3,6.9-7.4,6.9-7.4
	c0.7-1,2.4-0.7,2.6,0.6l1,5.3c0.2,1.1,1.1,1.9,2.1,2c1.1,0.1,2.1,0.3,2.6,0.9c19.6,26.1,11.9,41.1,3,61.3c-1.7-10.7-1.7-22.6-3-34.7
	c-0.4-3.9-4.2-6.6-8.1-5.8l-11,2.4c-0.8,0.2-1.6-0.4-1.6-1.3v-1.4c-0.4,0-1-0.2-1.2,0c-4.9,3.7-9.7,4.8-15.9,2.4
	c-6.1-2.3-12.8-3.1-19.4-4.1c-0.6-0.1-1.2,0-1.8,0.2c-3.5,0.9-5.9,4-6.2,7.6c-0.8,11.2,0.9,22.8-0.9,34.1c-1.1-3.4-4.4-7.1-7-11
	c-2.1-3-3.1-6.6-3.1-10.2V93.9z"/>
<g>
	<path class="st4" d="M359.7,147.5l-1.7,0.4c-1.8,0.4-3.6-0.8-3.9-2.6l-5.4-26.5c-0.4-1.8,0.8-3.6,2.6-3.9l1.7-0.4
		c1.8-0.4,3.6,0.8,3.9,2.6l5.4,26.5C362.7,145.3,361.5,147.1,359.7,147.5z"/>
	<path class="st4" d="M353.7,145.7l-3.5,0.7c-1.8,0.4-3.6-0.8-3.9-2.6l-4.2-20.5c-0.4-1.8,0.8-3.6,2.6-3.9l3.5-0.7L353.7,145.7z"/>
	<path class="st4" d="M343.7,113.6l2.1-1.2c0.5-0.3,1.1,0,1.2,0.5l1.5,7.3c0.1,0.4-0.2,0.8-0.5,0.9l0,0c-0.4,0.1-0.7,0-0.9-0.4
		l-3.6-6.1C343.2,114.4,343.3,113.9,343.7,113.6z"/>
</g>
<g>
	<path class="st4" d="M428.7,147.5l1.7,0.4c1.8,0.4,3.6-0.8,3.9-2.6l5.4-26.5c0.4-1.8-0.8-3.6-2.6-3.9l-1.7-0.4
		c-1.8-0.4-3.6,0.8-3.9,2.6l-5.4,26.5C425.7,145.3,426.9,147.1,428.7,147.5z"/>
	<path class="st4" d="M434.7,145.7l3.5,0.7c1.8,0.4,3.6-0.8,3.9-2.6l4.2-20.5c0.4-1.8-0.8-3.6-2.6-3.9l-3.5-0.7L434.7,145.7z"/>
	<path class="st4" d="M444.7,113.6l-2.1-1.2c-0.5-0.3-1.1,0-1.2,0.5l-1.5,7.3c-0.1,0.4,0.2,0.8,0.5,0.9l0,0c0.4,0.1,0.7,0,0.9-0.4
		l3.6-6.1C445.2,114.4,445.1,113.9,444.7,113.6z"/>
</g>
<path class="st0" d="M357.2,146.9l-14.8,11.8c-2.5,2-2,5.9,0.9,7.2l10.1,4.4"/>
<circle class="st4" cx="357.2" cy="170.3" r="5.8"/>
</svg>
