<?xml version="1.0" encoding="utf-8"?>
<!-- Generator: Adobe Illustrator 26.0.2, SVG Export Plug-In . SVG Version: 6.00 Build 0)  -->
<svg version="1.1" id="Layer_1" xmlns="http://www.w3.org/2000/svg" xmlns:xlink="http://www.w3.org/1999/xlink" x="0px" y="0px"
	 viewBox="0 0 188 167.8" style="enable-background:new 0 0 188 167.8;" xml:space="preserve">
<style type="text/css">
	.st0{fill:#FA9980;}
	.st1{fill:#B25B49;}
	.st2{fill:#F4CB89;}
	.st3{fill:#D3D3D3;stroke:#D34B1C;stroke-width:0.958;stroke-miterlimit:10;}
	.st4{fill:#D3D3D3;}
	.st5{fill:#D34B1C;}
	.st6{fill:#CE3E17;}
</style>
<g id="Calque_9_00000057124518843231681570000011131848479283015811_">
	<path class="st0" d="M60.2,110.3l-2.4-1.6c-1.6-1.1-3.7-0.9-5.1,0.3l-0.6,0.5c-1,0.9-1.6,2.2-1.5,3.5l0.8,10.9
		c0.1,0.7,0.3,1.4,0.7,2c1.4,2.2,4.9,7.6,5.4,8.3c0.1,0.1,0.3,0.3,0.5,0.4c2.4,1.3,5.4-0.2,6-2.9l2.1-9.1c0.2-1,0.1-2-0.4-2.9
		l-4.1-7.8C61.2,111.2,60.8,110.7,60.2,110.3z"/>
	<path class="st0" d="M130.6,110.3l3-1.7c1.7-1,3.9-0.6,5.2,0.9l0.1,0.1c0.8,0.9,1.2,2,1.1,3.1l-0.8,11.2c-0.1,0.7-0.3,1.4-0.7,2
		c-1.4,2.2-4.9,7.6-5.4,8.3c-0.1,0.1-0.3,0.3-0.5,0.4c-2.4,1.3-5.4-0.2-6-2.9l-2.1-9.1c-0.2-1-0.1-2,0.4-2.9l4-7.7
		C129.3,111.3,129.8,110.7,130.6,110.3z"/>
	<path class="st0" d="M132.7,89.1c-1.4-6.8-3.2-21.1-8.5-25.4L112,61.5c-4.8-3.9-4.7,0.7-10.9,0.4l-5.6-0.3h-0.1l-5.6,0.3
		c-6.2,0.4-11.1-3.2-15.9,0.7l-7.3,1.8c-5.4,4.4-7,18.1-8.4,24.8c-0.5,2.5-0.9,4.5-0.9,4.6c0,0.5-3,5.1-3,5.1l5.7,17.7l0.2,1.1
		l3.7,25.3c0.4,2.7,1.6,5.2,3.4,7.3c0,0,12.2,11.4,16.5,14.9c1.6,1.3,10.6,2.8,11.6,3l0,0h0.1l0.9-0.2l0.6-0.1
		c2.9-0.5,8.8-1.7,10.1-2.8c4.4-3.4,16.5-14.9,16.5-14.9c1.8-2,3-4.6,3.4-7.3l3.7-25.5l0.1-0.9v-8c0,0,2.7-14.3,2.7-14.8
		C133.6,93.5,133.2,91.5,132.7,89.1z"/>
	<path class="st1" d="M128.9,129.3l1.9-13.2c0,0,4.7-4.7,5.1-4.8s0.6,2,0.6,2l-1.1,9.4l-2.7,4.7L128.9,129.3z"/>
	<path class="st1" d="M62,130.3l-1.9-13.2c0,0-4.7-4.7-5.1-4.8s-0.6,2-0.6,2l1.1,9.4l2.7,4.7L62,130.3z"/>
	<g>
		<path class="st1" d="M95.5,133.9l4.2-1.6c0,0,0.7-0.4,1.5-0.9c1.3-0.7,2.9-1.6,2.9-1.7c0.3,0.1,0.6,0.3,0.9,0.4l-1.4,0.9l-1.6,0.8
			h2l2.6-2.1v-1.4h-2.2l-7.1,2.5h-1.8V133.9z"/>
		<path class="st1" d="M95.5,133.9l-4.2-1.6l-1.5-0.9c-1.3-0.7-2.9-1.6-2.9-1.7c-0.3,0.1-0.6,0.3-0.9,0.4l1.5,0.8l1.6,0.8h-2
			l-2.6-2.1v-1.4h2.2l7.1,2.5h1.8L95.5,133.9z"/>
	</g>
</g>
<g id="Calque_7_00000102524250810266612280000006660728358502384278_">
	<path class="st2" d="M58,110.8c0,0-0.5-15.6,0.9-20.4c1.9-6.7,5.9-18.1,11.3-20.5c5.7-2.6,20.5,1.9,26.6,2
		c5.8,0.1,17.4-5.7,22.9-3.3c3.4,1.5,7.8,9.8,9.3,13.9c2.8,7.3,1.6,25.9,1.6,25.9l-0.1,2c1.4-0.5,3.1-1.4,4.3-2.3
		c2-13.2,4.2-42.8-8.8-50.8c-5.6-3.5-22-8.6-28-9.3s-18.5,1-24.7,2.5c-6.4,1.5-8.2,5.2-13.3,9.8c-7.6,6.7-7.9,38.1-4.9,46.7
		L58,110.8z"/>
</g>
<g>
	<path class="st3" d="M118.2,44.5c0,0,22.5-0.9,13.7-27.8c-8.8-26.8-29-8.9-29-8.9S95.7-2,78,1.5S55.1,15.9,55.1,15.9
		S24.5,5.1,25.9,41.1c1.4,36,38.2,10.3,38.2,10.3"/>
	<path class="st3" d="M47.9,49.5l6.1,31.6c0,0,34.3-33.8,71-25.1c0-10.1-7.4-20.1-7.4-20.1S77.5,26.1,47.9,49.5z"/>
	<g>
		<path class="st4" d="M61.5,37.5c0,0,5.9,11.1,22.6,8.4c16.7-2.7,20-16.8,20-16.8"/>
		<path class="st5" d="M61.5,37.5C69.2,48.7,86.8,48,96.7,40c3.4-2.8,5.9-6.6,7.4-10.7c-1.3,5.4-5,10.2-9.6,13.3
			C84.4,49,68.1,48.7,61.5,37.5L61.5,37.5z"/>
	</g>
</g>
<circle class="st6" cx="59.4" cy="132.4" r="1.8"/>
<circle class="st6" cx="131.1" cy="131.8" r="1.8"/>
</svg>
