<?xml version="1.0" encoding="utf-8"?>
<!-- Generator: Adobe Illustrator 26.0.2, SVG Export Plug-In . SVG Version: 6.00 Build 0)  -->
<svg version="1.1" id="Calque_1" xmlns="http://www.w3.org/2000/svg" xmlns:xlink="http://www.w3.org/1999/xlink" x="0px" y="0px"
	 viewBox="0 0 788 1005" style="enable-background:new 0 0 788 1005;" xml:space="preserve">
<style type="text/css">
	.st0{fill:#FA9980;}
	.st1{fill:#B25B49;}
	.st2{fill:#F4CB89;}
	.st3{fill:#D3D3D3;stroke:#D34B1C;stroke-width:0.958;stroke-miterlimit:10;}
	.st4{fill:#D3D3D3;}
	.st5{fill:#D34B1C;}
	.st6{fill:#CE3E17;}
</style>
<g id="Calque_9">
	<path class="st0" d="M359.6,121.3l-2.4-1.6c-1.6-1.1-3.7-0.9-5.1,0.3l-0.6,0.5c-1,0.9-1.6,2.2-1.5,3.5l0.8,10.9
		c0.1,0.7,0.3,1.4,0.7,2c1.4,2.2,4.9,7.6,5.4,8.3c0.1,0.1,0.3,0.3,0.5,0.4c2.4,1.3,5.4-0.2,6-2.9l2.1-9.1c0.2-1,0.1-2-0.4-2.9
		l-4.1-7.8C360.7,122.2,360.2,121.7,359.6,121.3z"/>
	<path class="st0" d="M430,121.3l3-1.7c1.7-1,3.9-0.6,5.2,0.9l0.1,0.1c0.8,0.9,1.2,2,1.1,3.1l-0.8,11.2c-0.1,0.7-0.3,1.4-0.7,2
		c-1.4,2.2-4.9,7.6-5.4,8.3c-0.1,0.1-0.3,0.3-0.5,0.4c-2.4,1.3-5.4-0.2-6-2.9l-2.1-9.1c-0.2-1-0.1-2,0.4-2.9l4-7.7
		C428.7,122.3,429.3,121.7,430,121.3z"/>
	<path class="st0" d="M432.1,100.1c-1.4-6.8-3.2-21.1-8.5-25.4l-12.2-2.2c-4.8-3.9-4.7,0.7-10.9,0.4l-5.6-0.3h-0.1l-5.6,0.3
		c-6.2,0.4-11.1-3.2-15.9,0.7l-7.3,1.8c-5.4,4.4-7,18.1-8.4,24.8c-0.5,2.5-0.9,4.5-0.9,4.6c0,0.5-3,5.1-3,5.1l5.7,17.7l0.2,1.1
		l3.7,25.3c0.4,2.7,1.6,5.2,3.4,7.3c0,0,12.2,11.4,16.5,14.9c1.6,1.3,10.6,2.8,11.6,3l0,0h0.1l0.9-0.2l0.6-0.1
		c2.9-0.5,8.8-1.7,10.1-2.8c4.4-3.4,16.5-14.9,16.5-14.9c1.8-2,3-4.6,3.4-7.3l3.7-25.5l0.1-0.9v-8c0,0,2.7-14.3,2.7-14.8
		C433,104.5,432.6,102.5,432.1,100.1z"/>
	<path class="st1" d="M428.3,140.3l1.9-13.2c0,0,4.7-4.7,5.1-4.8s0.6,2,0.6,2l-1.1,9.4l-2.7,4.7L428.3,140.3z"/>
	<path class="st1" d="M361.4,141.3l-1.9-13.2c0,0-4.7-4.7-5.1-4.8s-0.6,2-0.6,2l1.1,9.4l2.7,4.7L361.4,141.3z"/>
	<g>
		<path class="st1" d="M394.9,145.9l4.2-1.6c0,0,0.7-0.4,1.5-0.9c1.3-0.7,2.9-1.6,2.9-1.7c0.3,0.1,0.6,0.3,0.9,0.4L403,143l-1.6,0.8
			h2l2.6-2.1v-1.4h-2.2l-7.1,2.5h-1.8V145.9z"/>
		<path class="st1" d="M394.9,145.9l-4.2-1.6l-1.5-0.9c-1.3-0.7-2.9-1.6-2.9-1.7c-0.3,0.1-0.6,0.3-0.9,0.4l1.5,0.8l1.6,0.8h-2
			l-2.6-2.1v-1.4h2.2l7.1,2.5h1.8L394.9,145.9z"/>
	</g>
</g>
<g id="Calque_7">
	<path class="st2" d="M357.4,121.8c0,0-0.5-15.6,0.9-20.4c1.9-6.7,5.9-18.1,11.3-20.5c5.7-2.6,20.5,1.9,26.6,2
		c5.8,0.1,17.4-5.7,22.9-3.3c3.4,1.5,7.8,9.8,9.3,13.9c2.8,7.3,1.6,25.9,1.6,25.9l-0.1,2c1.4-0.5,3.1-1.4,4.3-2.3
		c2-13.2,4.2-42.8-8.8-50.8c-5.6-3.5-22-8.6-28-9.3s-18.5,1-24.7,2.5c-6.4,1.5-8.2,5.2-13.3,9.8c-7.6,6.7-7.9,38.1-4.9,46.7
		L357.4,121.8z"/>
</g>
<g>
	<path class="st3" d="M417.6,55.5c0,0,22.5-0.9,13.7-27.8c-8.8-26.8-29-8.9-29-8.9s-7.2-9.8-24.8-6.3c-17.6,3.4-22.9,14.4-22.9,14.4
		s-30.7-10.7-29.2,25.3s38.2,10.3,38.2,10.3"/>
	<path class="st3" d="M347.4,60.5l6.1,31.6c0,0,34.3-33.8,71-25.1c0-10.1-7.4-20.1-7.4-20.1S376.9,37.1,347.4,60.5z"/>
	<g>
		<path class="st4" d="M360.9,48.5c0,0,5.9,11.1,22.6,8.4c16.7-2.7,20-16.8,20-16.8"/>
		<path class="st5" d="M360.9,48.5c7.8,11.2,25.4,10.5,35.3,2.5c3.4-2.8,5.9-6.6,7.4-10.7c-1.3,5.4-5,10.2-9.6,13.3
			C383.9,60,367.5,59.7,360.9,48.5L360.9,48.5z"/>
	</g>
</g>
<circle class="st6" cx="358.9" cy="143.4" r="1.8"/>
<circle class="st6" cx="430.5" cy="142.8" r="1.8"/>
</svg>
