<?xml version="1.0" encoding="utf-8"?>
<!-- Generator: Adobe Illustrator 26.0.2, SVG Export Plug-In . SVG Version: 6.00 Build 0)  -->
<svg version="1.1" id="Calque_1" xmlns="http://www.w3.org/2000/svg" xmlns:xlink="http://www.w3.org/1999/xlink" x="0px" y="0px"
	 viewBox="0 0 788 1005" style="enable-background:new 0 0 788 1005;" xml:space="preserve">
<style type="text/css">
	.st0{fill:#FA9980;}
	.st1{fill:#B25B49;}
	.st2{fill:#F4CB89;}
</style>
<g>
	<polygon class="st0" points="359.1,76.6 355.7,87.8 372.2,97.4 415.5,96 431.1,91.5 430.5,85.7 426.5,78.5 	"/>
	<path class="st0" d="M359.6,121.3l-2.4-1.6c-1.6-1.1-3.7-0.9-5.1,0.3l-0.6,0.5c-1,0.9-1.6,2.2-1.5,3.5l0.8,10.9
		c0.1,0.7,0.3,1.4,0.7,2c1.4,2.2,4.9,7.6,5.4,8.3c0.1,0.1,0.3,0.3,0.5,0.4c2.4,1.3,5.4-0.2,6-2.9l2.1-9.1c0.2-1,0.1-2-0.4-2.9
		l-4.1-7.8C360.7,122.2,360.2,121.7,359.6,121.3z"/>
	<path class="st0" d="M430,121.3l3-1.7c1.7-1,3.9-0.6,5.2,0.9l0.1,0.1c0.8,0.9,1.2,2,1.1,3.1l-0.8,11.2c-0.1,0.7-0.3,1.4-0.7,2
		c-1.4,2.2-4.9,7.6-5.4,8.3c-0.1,0.1-0.3,0.3-0.5,0.4c-2.4,1.3-5.4-0.2-6-2.9l-2.1-9.1c-0.2-1-0.1-2,0.4-2.9l4-7.7
		C428.7,122.3,429.3,121.7,430,121.3z"/>
	<path class="st0" d="M432.1,100.1c-1.4-6.8-5-12.9-10.4-17.2l-4.2-3.5c-4.8-3.9-10.8-6.3-17-6.7l-5.6-0.3h-0.1l-5.6,0.3
		c-6.2,0.4-12.3-7.5-17.1-3.6l-10.6,3.2c-5.3,4.4-2.5,20.9-3.8,27.7c-0.5,2.5-0.9,4.5-0.9,4.6c0,0.5,2.7,14.8,2.7,14.8v8l0.2,1.1
		l3.7,25.3c0.4,2.7,1.6,5.2,3.4,7.3c0,0,12.2,11.4,16.5,14.9c1.6,1.3,10.6,2.8,11.6,3l0,0h0.1l0.9-0.2l0.6-0.1
		c2.9-0.5,8.8-1.7,10.1-2.8c4.4-3.4,16.5-14.9,16.5-14.9c1.8-2,3-4.6,3.4-7.3l3.7-25.5l0.1-0.9v-8c0,0,2.7-14.3,2.7-14.8
		C433,104.5,432.6,102.5,432.1,100.1z"/>
	<path class="st1" d="M428.3,140.3l1.9-13.2c0,0,4.7-4.7,5.1-4.8s0.6,2,0.6,2l-1.1,9.4l-2.7,4.7L428.3,140.3z"/>
	<path class="st1" d="M361.4,141.3l-1.9-13.2c0,0-4.7-4.7-5.1-4.8s-0.6,2-0.6,2l1.1,9.4l2.7,4.7L361.4,141.3z"/>
	<g>
		<path class="st1" d="M394.9,145.9l4.2-1.6c0,0,0.7-0.4,1.5-0.9c1.3-0.7,2.9-1.6,2.9-1.7c0.3,0.1,0.6,0.3,0.9,0.4L403,143l-1.6,0.8
			h2l2.6-2.1v-1.4h-2.2l-7.1,2.5h-1.8V145.9z"/>
		<path class="st1" d="M394.9,145.9l-4.2-1.6l-1.5-0.9c-1.3-0.7-2.9-1.6-2.9-1.7c-0.3,0.1-0.6,0.3-0.9,0.4l1.5,0.8l1.6,0.8h-2
			l-2.6-2.1v-1.4h2.2l7.1,2.5h1.8L394.9,145.9z"/>
	</g>
	<path class="st2" d="M407.6,50.4c-1.8,7.5,3.7,8.4,8.8,10.3c3.1,1.2,6.1,3.2,8.4,5.6c8.5,8.7,6.5,17-6.4,25.2
		c0.9-2.4,1.5-4.2,2.8-7.7c-19,15.7-37.1,13-56.2,0.3c1.4,3,2.3,5,3.3,7.3c-10.1-3.4-13.2-10-9.1-18.9c3.7-8.2,10.9-11.8,19.1-14
		C380.7,57.8,406.1,52.5,407.6,50.4z"/>
	<path class="st2" d="M429.4,123.6c-1.4-10.1-3.4-20.2-4-30.3c-0.2-3.5,3.1-7.1,5.3-11.7C436,94.3,435.4,107.5,429.4,123.6z"/>
	<path class="st2" d="M355.1,84.2c5.7,4.1,7.6,8.7,5.8,15.7c-1.9,7.3-0.7,15-1.9,24.5C354.6,109.9,350.5,97.4,355.1,84.2z"/>
	<path class="st2" d="M359,123.2l4.6,32.3c0,0,0.8,4.2,3.2,6.6c2.5,2.4,14.8,14.4,16.5,15.3c1.7,0.8,9.2,3.1,11.7,3.1
		s10.4-2,11.6-3.1c1.2-1,16.5-15.3,16.5-15.3s2.8-3.2,3.4-7.5s3.8-27.5,3.8-27.5v-6l-2.7,12.7c-0.1,0.3-0.2,0.6-0.4,0.9l-12.5,21.1
		c-0.4,0.6-0.6,1.3-0.8,2l-1.3,7.4c-0.1,0.7-0.5,1.4-1.1,1.8l-7.2,5.8c-0.4,0.3-1,0.6-1.5,0.6l-2,0.2c-1.2,0.1-2.4-0.5-3-1.6
		l-1.8-3.6c-0.2-0.5-0.7-0.8-1.3-0.9h-0.2c-0.6-0.1-1.2,0.2-1.5,0.8l-1.5,3.3c-0.7,1.6-2.7,2.3-4.2,1.3l-6-3.6
		c-0.8-0.5-1.4-1.4-1.5-2.4l-0.5-6.6c-0.1-1-0.4-2-1-3l-14.4-21.4c-0.1-0.2-0.2-0.4-0.3-0.6L359,123.2z"/>
</g>
</svg>
