<svg xmlns="http://www.w3.org/2000/svg" viewBox="0 0 788 1005"><defs><style>.cls-1,.cls-7,.cls-8{fill:none;}.cls-2{fill:#944e31;}.cls-3{fill:#87b6c7;}.cls-4{fill:#6c9aab;}.cls-5{fill:#c69c6d;}.cls-6{fill:#699aab;}.cls-7{stroke:#699aab;}.cls-7,.cls-8{stroke-linecap:round;stroke-miterlimit:10;stroke-width:2px;}.cls-8{stroke:#669aab;}</style></defs><g id="Calque_7" data-name="Calque 7"><path class="cls-1" d="M435.15,398.77c16.15,5.22,23.2,9.63,27,16.57,3.11,5.61,6,18.48,6.27,24.89.54,15.07-7.77,52.95-21.93,65.58-14.4,12.86-84.79,12.86-99.2,0-14.15-12.63-22.47-50.51-21.92-65.58.23-6.41,3.16-19.28,6.27-24.89,3.84-6.94,10.88-11.35,27-16.57,18.49-6,37.29-5,37.29-5S416.66,392.79,435.15,398.77Z"/><polygon points="231.59 486.19 231.69 486.14 231.59 486.1 231.59 486.19"/><polygon points="231.69 486.14 231.79 486.19 231.79 486.1 231.69 486.14"/><polygon points="231.59 486.19 231.69 486.14 231.59 486.1 231.59 486.19"/><polygon points="231.69 486.14 231.79 486.19 231.79 486.1 231.69 486.14"/><path class="cls-2" d="M338.12,638c-13.93-.19-22.33,6.71-24.88,18.16,0,0-7.1,55.37-8.31,77-1.93,34.7,2.49,101.61,7.2,136,1,7.53,3,30.27,3,30.27a13.13,13.13,0,0,0,13.21,11.83h0a13.12,13.12,0,0,0,12.9-11.81s2.23-26.14,3.49-34.79c4.58-31.35,18-93.52,20-125.14,1.21-19-.45-77.51-.45-77.51C363.5,642.85,350,638.6,338.12,638Z"/><path class="cls-3" d="M327.63,891.45h0a16,16,0,0,0-14.12,9.16h0C307.66,913,283,929.48,283,929.48a15.11,15.11,0,0,0-5.54,14.63h0l60.27-.33,3.38-1a8.51,8.51,0,0,0,6-9l-3.46-30A16,16,0,0,0,327.63,891.45Z"/><path class="cls-4" d="M279.14,943.81h0a9,9,0,0,1,7.52-10.36L322.5,928a9,9,0,0,1,10.08,6.76l2.06,8.51Z"/><path class="cls-5" d="M435.69,398.12c16.15,5.22,23.2,9.63,27,16.56,3.11,5.62,6,18.49,6.27,24.9.54,15.07-7.77,52.95-21.93,65.58-14.4,12.86-84.79,12.86-99.2,0-14.15-12.63-22.47-50.51-21.92-65.58.23-6.41,3.16-19.28,6.27-24.9,3.84-6.93,10.88-11.34,27-16.56,18.49-6,37.29-5,37.29-5S417.2,392.14,435.69,398.12Z"/><path class="cls-5" d="M477,655.32a26.84,26.84,0,0,1-25.45,24.44h0a26.84,26.84,0,0,1-27.34-20.34s-18.85-88.81-20.94-120.84c-.52-7.9,4.1-83.43,4.1-83.43s-2.83-22.42,29.27-29c28.61-5.86,31.73,11.76,31.73,11.76s14.9,77.91,16,104.5C485.45,566.94,477,655.32,477,655.32Z"/><path class="cls-2" d="M453.93,638c12.43-.19,19.94,6.71,22.21,18.16,0,0,14.38,53.37,15.46,75,1.72,34.7-10.26,103.61-14.46,138-.92,7.53-2.67,30.27-2.67,30.27-.59,6.77-5.72,11.91-11.79,11.83h0c-6-.08-10.92-5.16-11.52-11.81,0,0-2-26.14-3.12-34.79C444,833.37,432,771.2,430.16,739.58c-1.08-19,.4-77.51.4-77.51.71-19.22,12.73-23.47,23.37-24.05Z"/><path class="cls-2" d="M476.94,887.61C475.72,921.62,517,926,517,926c4.42,3.47-67,21.84-66.62,17.8,0,0,1.46-52-1-65.21C447.58,869.29,477.65,867.64,476.94,887.61Z"/><path class="cls-3" d="M464.07,906.46c6.38-2.18,5.93-6.82,8.47-9.37,1.53-1.54,7.86-3.19,8.79-1.22,10.68,22.66,61.16,35.37,61.16,35.37,5.36,3.82,6.56,9.1,5.55,14.63h0s-43.77,9.37-67.77-1.33c-4.81-2.15-9,3.06-9,3.06s-22.42,3.72-21.16-3.06l-2.54-42.71C449.31,894.44,453.11,910.19,464.07,906.46Z"/><path class="cls-6" d="M548.56,946.31c.84-9-4.26-14.65-6-14.43-2.5.32-6.5,2.39-9,2.82-4,.68-16-.29-16-.29-3.08-.32-5.62,2.76-5.86,7.09l-.2,8.64s7.32,1,24.64-1.59C539.07,948.12,548.56,946.31,548.56,946.31Z"/><polygon class="cls-5" points="325.95 439.58 281.39 844.11 310.53 856.17 313.25 879.33 345.4 876.41 349.21 852.41 370.87 838.78 405.96 538.58 417.03 441.78 325.95 439.58"/><polygon class="cls-5" points="399.48 416.48 401.12 517.51 414.36 845.8 442.24 862.04 447.58 886.19 476.57 883.18 478.72 858.01 517.19 835.47 483.22 528.72 405.7 416.95 399.48 416.48"/><path class="cls-7" d="M310.66,910.05s4.73-3.36,8.9-3.35c5.11,0,10,3.12,10,3.12"/><path class="cls-8" d="M491.84,905.71s-5.1,2.07-9,2.15"/><path class="cls-8" d="M497.5,910.67s-5,2.4-8.86,2.74"/><path class="cls-1" d="M434.13,390.66c16.16,5.22,23.2,9.62,27.05,16.56,3.11,5.61,6,18.48,6.27,24.9.54,15.06-7.77,52.94-21.93,65.58-14.4,12.85-84.8,12.85-99.2,0-14.16-12.64-22.47-50.52-21.93-65.58.23-6.42,3.16-19.29,6.27-24.9,3.85-6.94,10.89-11.34,27-16.56,18.49-6,37.29-5,37.29-5S415.64,384.68,434.13,390.66Z"/><polygon points="230.58 478.07 230.68 478.03 230.58 477.98 230.58 478.07"/><polygon points="230.68 478.03 230.78 478.07 230.78 477.98 230.68 478.03"/><polygon points="230.58 478.07 230.68 478.03 230.58 477.98 230.58 478.07"/><polygon points="230.68 478.03 230.78 478.07 230.78 477.98 230.68 478.03"/></g></svg>