<?xml version="1.0" encoding="utf-8"?>
<!-- Generator: Adobe Illustrator 26.0.1, SVG Export Plug-In . SVG Version: 6.00 Build 0)  -->
<svg version="1.1" id="Calque_1" xmlns="http://www.w3.org/2000/svg" xmlns:xlink="http://www.w3.org/1999/xlink" x="0px" y="0px"
	 viewBox="0 0 788 1005" style="enable-background:new 0 0 788 1005;" xml:space="preserve">
<style type="text/css">
	.st0{fill:#5B4C49;}
	.st1{fill:none;}
	.st2{fill:#455E26;}
</style>
<path class="st0" d="M306.2,891.1L306.2,891.1c-6.1,0.1-11.6,3.7-14.2,9.2l0,0c-5.9,12.3-30.5,28.9-30.5,28.9
	c-4.4,3.5-6.6,9.1-5.6,14.6l0,0l60.3-0.3l3.4-1c3.9-1.2,6.4-5,6-9l-3.5-30C320.4,896.1,313.7,890.9,306.2,891.1z"/>
<path class="st0" d="M257.7,943.5L257.7,943.5c-0.8-4.9,2.5-9.5,7.4-10.3c0,0,0.1,0,0.1,0l35.8-5.4c4.6-0.7,9,2.2,10.1,6.8l2.1,8.5
	L257.7,943.5z"/>
<path class="st0" d="M495.7,886.5c-1.2,34,40,38.4,40,38.4c4.4,3.5-67,21.8-66.6,17.8c0,0,1.5-52-1-65.2
	C466.3,868.2,496.4,866.5,495.7,886.5z"/>
<path class="st0" d="M482.8,905.3c6.4-2.2,5.9-6.8,8.5-9.4c1.5-1.5,7.9-3.2,8.8-1.2c10.7,22.7,61.2,35.4,61.2,35.4
	c5.4,3.8,6.6,9.1,5.5,14.6l0,0c0,0-43.8,9.4-67.8-1.3c-4.8-2.2-9,3-9,3s-22.4,3.7-21.1-3.1l-2.5-42.7
	C468.1,893.3,471.9,909.1,482.8,905.3z"/>
<path class="st0" d="M567.3,945.2c0.8-9-4.3-14.7-6-14.4c-2.5,0.3-6.5,2.4-9,2.8c-4,0.7-16-0.3-16-0.3c-3.1-0.3-5.6,2.8-5.9,7.1
	l-0.2,8.6c0,0,7.3,1,24.6-1.6C557.8,947,567.3,945.2,567.3,945.2z"/>
<polygon points="242,478.8 242.1,478.8 242,478.7 "/>
<polygon points="242.1,478.8 242.2,478.8 242.2,478.7 "/>
<polygon points="242,478.8 242.1,478.8 242,478.7 "/>
<polygon points="242.1,478.8 242.2,478.8 242.2,478.7 "/>
<path class="st1" d="M429.5,400c14.8,4.7,21.3,8.6,24.8,14.8c2.9,5,5.5,16.5,5.8,22.3c0.5,13.5-7.1,47.4-20.1,58.7
	c-13.2,11.5-77.9,11.5-91.1,0c-13-11.3-20.6-45.2-20.1-58.7c0.2-5.7,2.9-17.3,5.8-22.3c3.5-6.2,10-10.2,24.8-14.8
	c17-5.4,34.3-4.5,34.3-4.5S412.5,394.7,429.5,400z"/>
<polygon points="241.3,478.3 241.4,478.3 241.3,478.2 "/>
<polygon points="241.4,478.3 241.4,478.3 241.4,478.2 "/>
<polygon points="241.3,478.3 241.4,478.3 241.3,478.2 "/>
<polygon points="241.4,478.3 241.4,478.3 241.4,478.2 "/>
<path class="st2" d="M361.3,900.9c1.2,13.4-39.2-228.1-25.8-227.5l0,0c12.8,0.6,24.3-7.9,27.3-20.3c0,0,18.9-88.8,21-120.8
	c0.5-7.6,0.1-34.2,0.1-34.2l-3-47.5c0,0-2.8-22.4-26.9-25.9c-27.8-4.1-29.2,10.5-29.2,10.5s-48.5,426.9-49.7,453.5
	C274.1,913.2,361.3,900.9,361.3,900.9z"/>
<path class="st2" d="M430.8,905c-1.2,13.4,30.3-232.2,16.9-231.5l0,0c-12.8,0.6-24.3-7.9-27.3-20.3c0,0-18.9-88.8-21-120.8
	c-0.5-7.9,3.3-81.7,3.3-81.7s-2.6-20.1,26.9-25.9c26.3-5.2,29.2,10.5,29.2,10.5s56.9,423.4,58.1,450
	C517.9,909.6,430.8,905,430.8,905z"/>
<path class="st2" d="M450.1,631.7c12.4-0.2,19.9,6.7,22.2,18.2c0,0,14.4,53.4,15.5,75c1.7,34.7-10.2,103.6-14.5,138
	c-0.9,7.5-2.7,30.3-2.7,30.3c-0.6,6.8-5.7,11.9-11.8,11.8l0,0c-6-0.1-10.9-5.2-11.5-11.8c0,0-2-26.1-3.1-34.8
	c-4.1-31.3-16.1-93.5-17.9-125.1c-1.1-19,0.4-77.5,0.4-77.5C427.4,636.5,439.4,632.2,450.1,631.7L450.1,631.7z"/>
<path class="st2" d="M330.1,435L330.1,435l-39.4,465.8l21-0.9l49.7,1c0,0,34.3-327.2,39-360.7c4-28.3-10.4,13.6-7.5-5.9l0,0
	l1.7-99.9L330.1,435z"/>
<polygon class="st2" points="386.7,444 387.7,537.2 387.7,537.2 394.4,591 430.8,905 511.4,895.7 496.6,865.6 471.9,693.9 
	442.2,448 392.4,444.4 "/>
<path class="st2" d="M434.7,404.9c16.4,5.4,23.6,9.9,27.6,17c3.2,5.8,48.8,436.7,49.1,444.1c0.6,17.3-50.6-364-65-351
	c-14.7,13.2-86.3,13.2-100.9,0c-14.4-13-22.9-51.9-22.3-67.4c0.2-6.6-0.2-8.3,0.3-14.8c1.4-16.3,17.1-22.4,33.6-27.8
	c18.8-6.1,38-5.2,38-5.2S415.9,398.8,434.7,404.9z"/>
</svg>
