<svg id="Calque_1" data-name="Calque 1" xmlns="http://www.w3.org/2000/svg" viewBox="0 0 388 581.43"><defs><style>.cls-1{fill:#5b4c49;}.cls-2{fill:none;}.cls-3{fill:#455e26;}</style></defs><path class="cls-1" d="M106.16,523.32h0A16.05,16.05,0,0,0,92,532.48h0c-5.85,12.34-30.55,28.87-30.55,28.87A15.12,15.12,0,0,0,55.94,576h0l60.27-.33,3.39-1a8.54,8.54,0,0,0,6-9l-3.47-29.95A16,16,0,0,0,106.16,523.32Z"/><path class="cls-1" d="M57.67,575.68h0a9,9,0,0,1,7.52-10.36L101,559.91a9,9,0,0,1,10.08,6.77l2.06,8.5Z"/><path class="cls-1" d="M295.69,518.71c-1.21,34,40.05,38.37,40.05,38.37,4.43,3.47-67,21.84-66.61,17.8,0,0,1.45-52-1-65.2C266.33,500.39,296.4,498.74,295.69,518.71Z"/><path class="cls-1" d="M282.82,537.56c6.38-2.18,5.93-6.81,8.47-9.36,1.54-1.54,7.87-3.19,8.79-1.22,10.69,22.65,61.16,35.36,61.16,35.36,5.36,3.82,6.56,9.1,5.55,14.63h0S323,586.34,299,575.64c-4.81-2.14-9,3.06-9,3.06s-22.42,3.73-21.15-3.06l-2.54-42.7C268.07,525.55,271.87,541.3,282.82,537.56Z"/><path class="cls-1" d="M367.31,577.42c.85-9-4.26-14.66-6-14.44-2.5.32-6.51,2.39-9,2.82-4,.69-16-.29-16-.29-3.07-.31-5.61,2.76-5.86,7.09l-.2,8.64s7.32,1,24.64-1.58C357.83,579.23,367.31,577.42,367.31,577.42Z"/><polygon points="28.59 112.64 28.68 112.6 28.59 112.55 28.59 112.64"/><polygon points="28.68 112.6 28.78 112.64 28.78 112.55 28.68 112.6"/><polygon points="28.59 112.64 28.68 112.6 28.59 112.55 28.59 112.64"/><polygon points="28.68 112.6 28.78 112.64 28.78 112.55 28.68 112.6"/><path class="cls-2" d="M232.68,24.58c16.16,5.22,23.2,9.63,27,16.56,3.11,5.62,6,18.48,6.27,24.9.55,15.07-7.77,52.94-21.92,65.58-14.41,12.86-84.8,12.86-99.2,0C130.71,119,122.4,81.11,122.94,66c.23-6.42,3.16-19.28,6.27-24.9,3.84-6.93,10.89-11.34,27-16.56,18.49-6,37.3-5,37.3-5S214.19,18.6,232.68,24.58Z"/><polygon points="27.75 112.09 27.85 112.05 27.75 112 27.75 112.09"/><polygon points="27.85 112.05 27.95 112.09 27.95 112 27.85 112.05"/><polygon points="27.75 112.09 27.85 112.05 27.75 112 27.75 112.09"/><polygon points="27.85 112.05 27.95 112.09 27.95 112 27.85 112.05"/><path class="cls-3" d="M161.34,533.12c1.18,13.36-39.21-228.1-25.81-227.45h0a26.84,26.84,0,0,0,27.34-20.34s18.85-88.82,20.95-120.84c.49-7.58-.83-30.36-.83-30.36l-3.28-53.07s-3-25.06-29.27-29c-30.3-4.53-31.73,11.76-31.73,11.76S76.3,494.28,75.17,520.88C74.13,545.39,161.34,533.12,161.34,533.12Z"/><path class="cls-3" d="M230.84,537.22c-1.19,13.36,30.29-232.2,16.89-231.55h0a26.84,26.84,0,0,1-27.34-20.34s-18.85-88.82-20.95-120.84c-.51-7.91,4.11-83.43,4.11-83.43s-2.84-22.42,29.26-29c28.61-5.86,31.74,11.76,31.74,11.76s51.19,426.93,52.32,453.53C317.91,541.86,230.84,537.22,230.84,537.22Z"/><path class="cls-3" d="M250.09,263.93c12.43-.2,19.94,6.71,22.21,18.16,0,0,14.38,53.36,15.45,75,1.73,34.69-10.25,103.61-14.46,138-.92,7.54-2.66,30.27-2.66,30.27-.6,6.78-5.72,11.91-11.8,11.83h0c-6-.07-10.92-5.16-11.51-11.8,0,0-2-26.14-3.12-34.79-4.09-31.35-16.08-93.53-17.88-125.14-1.09-19,.39-77.52.39-77.52.71-19.22,12.73-23.46,23.38-24Z"/><path class="cls-3" d="M124.45,63.71,114.23,83.85,90.67,533l21-.92,49.66,1s34.27-327.19,39-360.73c4-28.29-10.35,13.61-7.54-5.89h0l1.77-103.56Z"/><polygon class="cls-3" points="186.07 73.8 187.71 169.42 187.71 169.42 194.43 223.27 230.84 537.22 311.35 527.87 296.63 497.85 285.44 320.3 261.15 71.65 192.29 74.25 186.07 73.8"/><path class="cls-3" d="M238.28,30.1c17.9,6,25.7,11.06,30,19,3.45,6.45,8.64,112.85,8.9,120.22.6,17.31-10.56-30.79-26.24-16.27-15.95,14.77-93.92,14.77-109.87,0-15.68-14.52-24.89-58-24.29-75.35.26-7.37-.25-9.3.35-16.59,1.5-18.18,18.66-25,36.55-31,20.48-6.87,41.31-5.79,41.31-5.79S217.8,23.23,238.28,30.1Z"/></svg>