<?xml version="1.0" encoding="utf-8"?>
<!-- Generator: Adobe Illustrator 26.0.1, SVG Export Plug-In . SVG Version: 6.00 Build 0)  -->
<svg version="1.1" id="Calque_1" xmlns="http://www.w3.org/2000/svg" xmlns:xlink="http://www.w3.org/1999/xlink" x="0px" y="0px"
	 viewBox="0 0 788 1005" style="enable-background:new 0 0 788 1005;" xml:space="preserve">
<style type="text/css">
	.st0{fill:#3FA9F5;}
	.st1{fill:#87B6C7;}
	.st2{fill:#6C9AAB;}
	.st3{fill:#944E31;}
	.st4{fill:#699AAB;}
	.st5{fill:#D48550;}
	.st6{fill:none;stroke:#699AAB;stroke-width:2;stroke-linecap:round;stroke-miterlimit:10;}
	.st7{fill:none;stroke:#669AAB;stroke-width:2;stroke-linecap:round;stroke-miterlimit:10;}
</style>
<g id="Calque_7">
	<polygon points="238.6,478.1 238.7,478 238.6,478 	"/>
	<polygon points="238.7,478 238.8,478.1 238.8,478 	"/>
	<polygon points="238.6,478.1 238.7,478 238.6,478 	"/>
	<polygon points="238.7,478 238.8,478.1 238.8,478 	"/>
	<polygon points="233.9,479.4 234,479.4 233.9,479.4 	"/>
	<polygon points="234,479.4 234.1,479.4 234.1,479.4 	"/>
	<polygon points="233.9,479.4 234,479.4 233.9,479.4 	"/>
	<polygon points="234,479.4 234.1,479.4 234.1,479.4 	"/>
	<path class="st0" d="M340.5,631.3c-13.9-0.2-22.3,6.7-24.9,18.2c0,0-7.1,55.4-8.3,77c-1.9,34.7,2.5,101.6,7.2,136
		c1,7.5,3,30.3,3,30.3c0.7,6.8,6.4,11.9,13.2,11.8l0,0c6.7-0.1,12.2-5.2,12.9-11.8c0,0,2.2-26.1,3.5-34.8c4.6-31.3,18-93.5,20-125.1
		c1.2-19-0.4-77.5-0.4-77.5C365.8,636.1,352.4,631.8,340.5,631.3L340.5,631.3z"/>
	<path class="st1" d="M330,884.7L330,884.7c-6.1,0.1-11.5,3.7-14.1,9.2l0,0c-5.8,12.3-30.5,28.9-30.5,28.9
		c-4.4,3.5-6.6,9.1-5.5,14.6l0,0L340,937l3.4-1c3.9-1.2,6.4-5,6-9l-3.4-29.9C344.3,889.7,337.6,884.5,330,884.7z"/>
	<path class="st2" d="M281.5,937.1L281.5,937.1c-0.8-4.9,2.5-9.5,7.4-10.3c0,0,0.1,0,0.1,0l35.9-5.4c4.6-0.7,9,2.2,10.1,6.8l2.1,8.5
		L281.5,937.1z"/>
	<path class="st0" d="M456.3,631.3c12.4-0.2,19.9,6.7,22.2,18.2c0,0,14.4,53.4,15.5,75c1.7,34.7-10.2,103.6-14.5,138
		c-0.9,7.5-2.7,30.3-2.7,30.3c-0.6,6.8-5.7,11.9-11.8,11.8l0,0c-6-0.1-10.9-5.2-11.5-11.8c0,0-2-26.1-3.1-34.8
		c-4.1-31.3-16.1-93.5-17.9-125.1c-1.1-19,0.4-77.5,0.4-77.5C433.6,636.1,445.6,631.8,456.3,631.3L456.3,631.3z"/>
	<path class="st3" d="M479.3,880.9c-1.2,34,40,38.4,40,38.4c4.4,3.5-67,21.8-66.6,17.8c0,0,1.5-52-1-65.2
		C449.9,862.5,480,860.9,479.3,880.9z"/>
	<path class="st1" d="M466.4,899.7c6.4-2.2,5.9-6.8,8.5-9.4c1.5-1.5,7.9-3.2,8.8-1.2c10.7,22.7,61.2,35.4,61.2,35.4
		c5.4,3.8,6.6,9.1,5.5,14.6l0,0c0,0-43.8,9.4-67.8-1.3c-4.8-2.1-9,3.1-9,3.1s-22.4,3.7-21.1-3.1l-2.5-42.7
		C451.6,887.7,455.5,903.5,466.4,899.7z"/>
	<path class="st4" d="M550.9,939.6c0.8-9-4.3-14.7-6-14.4c-2.5,0.3-6.5,2.4-9,2.8c-4,0.7-16-0.3-16-0.3c-3.1-0.3-5.6,2.8-5.9,7.1
		l-0.2,8.6c0,0,7.3,1,24.6-1.6C541.4,941.4,550.9,939.6,550.9,939.6z"/>
	<path class="st5" d="M327.3,432.7l-2,17.9l-44,450.7l37-1.6l34.8,0.7c0,0,12.6-142.1,15.4-175.9c1.6-19.6-2.8,19.5,0,0
		c4.1-28.4,31-190.5,31-190.5l1-102.1L327.3,432.7z"/>
	<polygon class="st5" points="392.3,433.8 393.9,530.1 421.5,698.8 435.9,872.9 437,904.6 510.4,887.9 491.6,683.7 491.6,683.7 
		460.6,431.9 398,434.2 	"/>
	<path class="st6" d="M313,903.3c0,0,4.7-3.4,8.9-3.3c5.1,0,10,3.1,10,3.1"/>
	<path class="st7" d="M494.2,899c0,0-5.1,2.1-9,2.2"/>
	<path class="st7" d="M499.8,903.9c0,0-5,2.4-8.9,2.7"/>
</g>
</svg>
