<?xml version="1.0" encoding="utf-8"?>
<!-- Generator: Adobe Illustrator 26.0.1, SVG Export Plug-In . SVG Version: 6.00 Build 0)  -->
<svg version="1.1" id="Calque_1" xmlns="http://www.w3.org/2000/svg" xmlns:xlink="http://www.w3.org/1999/xlink" x="0px" y="0px"
	 viewBox="0 0 788 1005" style="enable-background:new 0 0 788 1005;" xml:space="preserve">
<style type="text/css">
	.st0{fill:#614652;}
	.st1{fill:#FA9980;}
	.st2{fill:#352B28;}
	.st3{fill:#547687;}
</style>
<path class="st0" d="M312.6,648.7c1.2,13.4,12,23.8,25.4,24.4l0,0c12.8,0.6,24.3-7.9,27.3-20.3c0,0,18.9-88.8,21-120.8
	c0.5-7.6-0.8-30.4-0.8-30.4l-3.3-53.1c0,0-3-25.1-29.3-29c-30.3-4.5-31.7,11.8-31.7,11.8s-14.9,78.9-16,105.5
	C304.1,561.3,312.6,648.7,312.6,648.7z"/>
<path class="st1" d="M336.8,631.4c-13.9-0.2-22.3,6.7-24.9,18.2c0,0-7.1,55.4-8.3,77c-1.9,34.7,2.5,101.6,7.2,136
	c1,7.5,3,30.3,3,30.3c0.6,6.8,6.4,12,13.2,11.9l0,0c6.7-0.1,12.2-5.2,12.9-11.8c0,0,2.2-26.1,3.5-34.8c4.6-31.3,18-93.5,20-125.1
	c1.2-19-0.4-77.5-0.4-77.5C362.2,636.2,348.7,632,336.8,631.4L336.8,631.4z"/>
<path class="st2" d="M277.8,937.2L277.8,937.2c-0.8-4.9,2.5-9.5,7.4-10.4c0,0,0.1,0,0.1,0l35.9-5.4c4.6-0.7,9,2.2,10.1,6.8l2.1,8.5
	L277.8,937.2z"/>
<path class="st3" d="M438.3,397.9c17.9,6,25.7,11.1,30,19c3.5,6.5,6.7,21.2,7,28.6c0.6,17.3-8.6,60.8-24.3,75.4
	c-16,14.8-93.9,14.8-109.9,0c-15.7-14.5-24.9-58-24.3-75.4c0.3-7.4-0.2-9.3,0.4-16.6c1.5-18.2,18.7-25,36.5-31
	c20.5-6.9,41.3-5.8,41.3-5.8S417.8,391,438.3,397.9z"/>
<path class="st1" d="M452.6,631.4c12.4-0.2,19.9,6.7,22.2,18.2c0,0,14.4,53.4,15.5,75c1.7,34.7-10.2,103.6-14.5,138
	c-0.9,7.5-2.7,30.3-2.7,30.3c-0.6,6.8-5.7,11.9-11.8,11.8l0,0c-6-0.1-10.9-5.2-11.5-11.8c0,0-2-26.1-3.1-34.8
	c-4.1-31.3-16.1-93.5-17.9-125.1c-1.1-19,0.4-77.5,0.4-77.5C429.9,636.2,441.9,631.9,452.6,631.4L452.6,631.4z"/>
<path class="st2" d="M475.3,876.5c-3.5,33.8,37.3,41,37.3,41c4.2,3.8-68.4,17.2-67.7,13.2c0,0,5-51.8,3.5-65.1
	C447.3,856.2,477.4,856.7,475.3,876.5z"/>
<path class="st2" d="M542.7,940.1c1.5-8.9-3.2-14.9-5-14.8c-2.5,0.1-6.7,1.9-9.2,2.2c-4,0.4-15.9-1.4-15.9-1.4
	c-3-0.5-5.8,2.4-6.3,6.7l-0.8,8.6c0,0,7.2,1.5,24.7,0.1C533.1,941.2,542.7,940.1,542.7,940.1z"/>
<polygon class="st3" points="317.1,428.9 314.9,449.5 289.7,653.1 380,659.4 395.8,531.6 397.6,428 "/>
<polygon class="st3" points="388.5,441.2 390.4,536.9 408.3,664.6 508.5,664.8 474.9,439.1 395.7,441.7 "/>
<polygon class="st3" points="353.4,810.6 339.3,895.6 313.8,892.8 305.5,807.2 "/>
<polygon class="st3" points="436.2,796.6 447.5,896.7 472.9,895.1 485.6,796 "/>
<path class="st2" d="M326.3,884.8L326.3,884.8c-6.1,0.2-11.5,3.7-14.1,9.2l0,0c-5.8,12.3-30.5,28.9-30.5,28.9
	c-4.4,3.5-6.6,9.1-5.6,14.6l0,0l60.3-0.3l3.4-1c3.9-1.2,6.4-5,6-9l-3.5-30C340.5,889.8,333.8,884.6,326.3,884.8z"/>
<path class="st2" d="M461.1,894.6c6.5-1.8,6.4-6.5,9.1-8.9c1.6-1.5,8.1-2.7,8.9-0.6c9.1,23.7,58.5,40,58.5,40
	c5.1,4.2,5.9,9.7,4.5,15.2l0,0c0,0-44.3,6.5-67.5-6c-4.6-2.5-9.2,2.5-9.2,2.5s-22.6,2.2-20.9-4.6l0.5-43.4
	C447.3,881.5,449.9,897.7,461.1,894.6z"/>
<path class="st3" d="M438.3,397.9c17.9,6,25.7,11.1,30,19c3.5,6.5,6.7,21.2,7,28.6c0.6,17.3-8.6,60.8-24.3,75.4
	c-16,14.8-93.9,14.8-109.9,0c-15.7-14.5-24.9-58-24.3-75.4c0.3-7.4-0.2-9.3,0.4-16.6c1.5-18.2,18.7-25,36.5-31
	c20.5-6.9,41.3-5.8,41.3-5.8S417.8,391,438.3,397.9z"/>
</svg>
