<svg id="Calque_1" data-name="Calque 1" xmlns="http://www.w3.org/2000/svg" viewBox="0 0 388 581.43"><defs><style>.cls-1{fill:#d79072;}.cls-2{fill:#72787a;}.cls-3{fill:#889991;}.cls-4{fill:#614652;}.cls-5{fill:none;stroke:#4f3742;stroke-miterlimit:10;}</style></defs><path class="cls-1" d="M136.75,263.59c-13.92-.19-22.33,6.72-24.87,18.17,0,0-7.11,55.36-8.31,77-1.93,34.69,2.48,101.61,7.19,136,1,7.54,3,30.27,3,30.27A13.1,13.1,0,0,0,127,536.89h0a13.11,13.11,0,0,0,12.9-11.8s2.23-26.14,3.5-34.79c4.58-31.35,18-93.53,20-125.15,1.22-19-.44-77.51-.44-77.51-.8-19.22-14.26-23.46-26.18-24.05Z"/><path class="cls-2" d="M126.26,517h0a16,16,0,0,0-14.12,9.17h0c-5.84,12.34-30.55,28.87-30.55,28.87A15.12,15.12,0,0,0,76,569.68h0l60.27-.33,3.39-1a8.54,8.54,0,0,0,6-9l-3.46-30A16,16,0,0,0,126.26,517Z"/><path class="cls-3" d="M77.77,569.38h0A9,9,0,0,1,85.29,559l35.85-5.41a9,9,0,0,1,10.07,6.77l2.06,8.5Z"/><path class="cls-1" d="M252.56,263.59c12.44-.19,19.94,6.72,22.22,18.17,0,0,14.38,53.36,15.45,75,1.72,34.69-10.25,103.61-14.46,138-.92,7.54-2.66,30.27-2.66,30.27-.6,6.78-5.72,11.91-11.8,11.83h0c-6-.08-10.92-5.16-11.51-11.8,0,0-2-26.14-3.12-34.79-4.1-31.35-16.08-93.53-17.88-125.15-1.09-19,.39-77.51.39-77.51.71-19.22,12.73-23.46,23.37-24.05Z"/><path class="cls-2" d="M275.57,513.19c-1.21,34,40.05,38.37,40.05,38.37,4.43,3.46-67,21.83-66.61,17.79,0,0,1.45-52-1-65.2C246.21,494.86,276.28,493.21,275.57,513.19Z"/><path class="cls-2" d="M262.7,532c6.38-2.18,5.93-6.81,8.47-9.36,1.54-1.54,7.87-3.19,8.79-1.22,10.69,22.66,61.16,35.37,61.16,35.37,5.36,3.82,6.57,9.09,5.55,14.62h0s-43.77,9.37-67.77-1.33c-4.8-2.14-9,3.06-9,3.06s-22.42,3.73-21.15-3.06l-2.54-42.7C248,520,251.75,535.77,262.7,532Z"/><path class="cls-3" d="M347.19,571.89c.85-9-4.26-14.66-6-14.44-2.5.32-6.51,2.39-9,2.82-4,.69-16-.28-16-.28-3.07-.32-5.61,2.76-5.86,7.09l-.2,8.63s7.32,1,24.64-1.58C337.71,573.7,347.19,571.89,347.19,571.89Z"/><path class="cls-4" d="M161.25,534.14a1.8,1.8,0,0,1,0,.22A1.64,1.64,0,0,0,161.25,534.14Z"/><path class="cls-4" d="M161.23,534.36c0,.22,0,.43,0,.64C161.2,534.77,161.22,534.56,161.23,534.36Z"/><path class="cls-4" d="M161.26,534v.15A.76.76,0,0,0,161.26,534Z"/><path class="cls-4" d="M161.29,533.64c0,.11,0,.22,0,.35Z"/><path class="cls-4" d="M161.35,532.94a1,1,0,0,0,0,.15C161.34,533,161.35,533,161.35,532.94Z"/><path class="cls-4" d="M161.34,533.09v.13A.53.53,0,0,1,161.34,533.09Z"/><path class="cls-4" d="M161.33,533.22c0,.06,0,.12,0,.19S161.32,533.29,161.33,533.22Z"/><path class="cls-4" d="M161.31,533.41l0,.23A2,2,0,0,0,161.31,533.41Z"/><path class="cls-4" d="M289.44,335.76c-1.69-45.09-5.58-148.69-6.39-167.76-1.13-26.6-7.87-90.27-7.87-90.27s-11.28-31.86-39.89-26c-20.23,4.15-26.58,14.58-28.52,21.73l-9.37.36.19-11-23.47.25c-4.37-5.16-11-9.83-21.2-11.35-30.3-4.53-31.73,11.76-31.73,11.76s0,.06,0,.17l-4.1.05-2.16,20.61L93.67,532.91l21-.92,46.67,1C163,513.31,173,324.87,175.82,305.37c3-20.89,12.42-86.26,17.18-119.36l24.75,148.82L232.2,505.77l1.11,31.11,54.79-6.36,22.09-3.1Z"/><polygon class="cls-5" points="194.57 122.06 189.57 82.06 204.57 82.06 203.57 114.34 194.57 122.06"/><path class="cls-4" d="M238.28,30.1c17.9,6,25.7,11.06,30,19,3.45,6.45,6.69,21.23,6.95,28.6.6,17.31-8.61,60.83-24.29,75.35-15.95,14.77-93.92,14.77-109.87,0-15.68-14.52-24.89-58-24.29-75.35.26-7.37-.25-9.3.35-16.59,1.5-18.18,18.66-25,36.55-31,20.48-6.87,41.31-5.79,41.31-5.79S217.8,23.23,238.28,30.1Z"/></svg>