<svg xmlns="http://www.w3.org/2000/svg" viewBox="0 0 388 581.43"><defs><style>.cls-1{fill:#3fa9f5;}.cls-2{fill:#87b6c7;}.cls-3{fill:#6c9aab;}.cls-4{fill:#944e31;}.cls-5{fill:#699aab;}.cls-6{fill:#d48550;}.cls-7,.cls-8{fill:none;stroke-linecap:round;stroke-miterlimit:10;stroke-width:2px;}.cls-7{stroke:#699aab;}.cls-8{stroke:#669aab;}</style></defs><g id="Calque_7" data-name="Calque 7"><polygon points="30.58 110.29 30.68 110.25 30.58 110.19 30.58 110.29"/><polygon points="30.68 110.25 30.78 110.29 30.78 110.19 30.68 110.25"/><polygon points="30.58 110.29 30.68 110.25 30.58 110.19 30.58 110.29"/><polygon points="30.68 110.25 30.78 110.29 30.78 110.19 30.68 110.25"/><polygon points="25.92 111.66 26.02 111.62 25.92 111.57 25.92 111.66"/><polygon points="26.02 111.62 26.12 111.66 26.12 111.57 26.02 111.62"/><polygon points="25.92 111.66 26.02 111.62 25.92 111.57 25.92 111.66"/><polygon points="26.02 111.62 26.12 111.66 26.12 111.57 26.02 111.62"/><path class="cls-1" d="M132.45,263.49c-13.92-.19-22.33,6.72-24.87,18.16,0,0-7.11,55.37-8.31,77-1.93,34.69,2.48,101.61,7.19,136,1,7.54,3,30.27,3,30.27a13.11,13.11,0,0,0,13.2,11.83h0A13.11,13.11,0,0,0,135.55,525s2.23-26.13,3.5-34.78c4.58-31.35,18-93.53,20-125.15,1.22-19-.44-77.51-.44-77.51-.8-19.22-14.26-23.47-26.18-24.05Z"/><path class="cls-2" d="M122,516.92h0a16.05,16.05,0,0,0-14.12,9.16h0C102,538.42,77.29,555,77.29,555a15.14,15.14,0,0,0-5.55,14.63h0l60.27-.33,3.39-1a8.54,8.54,0,0,0,6-9l-3.46-30A16,16,0,0,0,122,516.92Z"/><path class="cls-3" d="M73.47,569.28h0A9,9,0,0,1,81,558.92l35.85-5.41a9,9,0,0,1,10.07,6.77l2.06,8.5Z"/><path class="cls-1" d="M248.26,263.49c12.44-.19,19.94,6.72,22.22,18.16,0,0,14.38,53.37,15.45,75,1.72,34.69-10.25,103.61-14.46,138-.92,7.54-2.66,30.27-2.66,30.27-.6,6.77-5.72,11.91-11.8,11.83h0c-6-.08-10.92-5.16-11.51-11.81,0,0-2-26.13-3.12-34.78-4.1-31.35-16.08-93.53-17.88-125.15-1.09-19,.39-77.51.39-77.51.71-19.22,12.73-23.47,23.37-24.05Z"/><path class="cls-4" d="M271.27,513.08c-1.21,34,40.05,38.37,40.05,38.37,4.43,3.47-67,21.84-66.61,17.8,0,0,1.45-52-1-65.2C241.91,494.76,272,493.11,271.27,513.08Z"/><path class="cls-2" d="M258.4,531.93c6.38-2.18,5.93-6.81,8.47-9.36,1.54-1.55,7.87-3.19,8.79-1.22,10.69,22.65,61.16,35.36,61.16,35.36,5.36,3.82,6.56,9.1,5.55,14.63h0S298.6,580.71,274.6,570c-4.8-2.14-9,3.06-9,3.06s-22.42,3.73-21.15-3.06l-2.54-42.7C243.65,519.92,247.45,535.67,258.4,531.93Z"/><path class="cls-5" d="M342.89,571.79c.85-9-4.26-14.66-6-14.44-2.5.32-6.51,2.39-9,2.82-4,.69-16-.29-16-.29-3.07-.31-5.61,2.76-5.86,7.09l-.2,8.64s7.32,1,24.64-1.58C333.41,573.6,342.89,571.79,342.89,571.79Z"/><path class="cls-6" d="M112.78,63.61l-2.16,20.6L73.35,533.52l37-1.63,34.82.71s12.6-142.1,15.37-175.87c1.61-19.63-2.81,19.5,0,0,4.09-28.39,31-190.45,31-190.45l1.77-103.56Z"/><polygon class="cls-6" points="184.24 64.91 185.88 162.27 213.45 331.04 227.9 505.1 229.01 536.78 302.37 520.15 283.62 315.91 283.62 315.91 259.33 62.72 190.47 65.37 184.24 64.91"/><path class="cls-7" d="M105,535.53s4.74-3.36,8.91-3.35c5.1,0,10,3.11,10,3.11"/><path class="cls-8" d="M286.17,531.18s-5.1,2.07-9,2.16"/><path class="cls-8" d="M291.83,536.15s-4.95,2.39-8.86,2.73"/></g></svg>