<?xml version="1.0" encoding="utf-8"?>
<!-- Generator: Adobe Illustrator 26.0.1, SVG Export Plug-In . SVG Version: 6.00 Build 0)  -->
<svg version="1.1" id="Calque_1" xmlns="http://www.w3.org/2000/svg" xmlns:xlink="http://www.w3.org/1999/xlink" x="0px" y="0px"
	 viewBox="0 0 788 1005" style="enable-background:new 0 0 788 1005;" xml:space="preserve">
<style type="text/css">
	.st0{fill:#472E1D;}
	.st1{fill:#944E31;}
	.st2{fill:#3A4649;}
	.st3{fill:#172F35;}
	.st4{fill:none;stroke:#2E1000;stroke-miterlimit:10;}
</style>
<g id="Calque_1_00000054958475498596709360000002685910429235096498_">
	<path class="st0" d="M438.4,404.2c16.2,5.2,23.3,9.7,27.1,16.6c3.1,5.6,6.1,18.6,6.3,25c0.5,15.1-7.8,53.2-22,65.9
		c-14.4,12.9-85.1,12.9-99.5,0c-14.2-12.7-22.6-50.7-22-65.9c0.2-6.4-0.2-8.1,0.3-14.5c1.4-15.9,16.9-21.9,33.1-27.1
		c18.6-6,37.4-5.1,37.4-5.1S419.9,398.2,438.4,404.2z"/>
</g>
<g id="Calque_7">
	<polygon points="253.6,474.3 253.7,474.3 253.6,474.3 	"/>
	<polygon points="253.7,474.3 253.8,474.3 253.8,474.3 	"/>
	<polygon points="253.6,474.3 253.7,474.3 253.6,474.3 	"/>
	<polygon points="253.7,474.3 253.8,474.3 253.8,474.3 	"/>
	<path class="st1" d="M337.1,629.9c-13.9-0.2-22.3,6.7-24.9,18.2c0,0-7.1,55.4-8.3,77c-1.9,34.7,2.5,101.6,7.2,136
		c1,7.5,3,30.3,3,30.3c0.7,6.8,6.4,11.9,13.2,11.8l0,0c6.7-0.1,12.2-5.2,12.9-11.8c0,0,2.2-26.1,3.5-34.8c4.6-31.3,18-93.5,20-125.2
		c1.2-19-0.4-77.5-0.4-77.5C362.5,634.7,349,630.5,337.1,629.9L337.1,629.9z"/>
	<path class="st2" d="M326.6,883.3L326.6,883.3c-6.1,0.1-11.5,3.7-14.1,9.2l0,0c-5.9,12.3-30.6,28.9-30.6,28.9
		c-4.4,3.5-6.6,9.1-5.5,14.6l0,0l60.3-0.3l3.4-1c3.9-1.2,6.4-5,6-9l-3.5-30C340.9,888.3,334.2,883.1,326.6,883.3z"/>
	<path class="st3" d="M278.1,935.7L278.1,935.7c-0.8-4.9,2.5-9.5,7.4-10.3c0,0,0.1,0,0.1,0l35.8-5.4c4.6-0.7,9,2.2,10.1,6.8l2.1,8.5
		L278.1,935.7z"/>
	<path class="st1" d="M452.9,629.9c12.4-0.2,19.9,6.7,22.2,18.2c0,0,9.1,50.9,11.2,72.5c4.5,46-5.4,107.1-10.2,140.6
		c-1.1,7.5-2.7,30.3-2.7,30.3c-0.6,6.8-5.7,11.9-11.8,11.8l0,0c-6-0.1-10.9-5.2-11.5-11.8c0,0-2-26.1-3.1-34.8
		c-4.1-31.3-16.1-93.5-17.9-125.2c-1.1-19,0.4-77.5,0.4-77.5C430.2,634.7,442.3,630.5,452.9,629.9L452.9,629.9z"/>
	<path class="st1" d="M475.9,879.5c-1.2,34,40.1,38.4,40.1,38.4c4.4,3.5-67,21.8-66.6,17.8c0,0,1.5-52-1-65.2
		C446.6,861.2,476.6,859.5,475.9,879.5z"/>
	<path class="st2" d="M464.6,898.3c6.4-2.2,5.9-6.8,8.5-9.4c1.5-1.5,7.9-3.2,8.8-1.2c10.7,22.7,61.2,35.4,61.2,35.4
		c5.3,3.8,6.6,9.1,5.5,14.6l0,0c0,0-26.6,13.5-66,3.8c-5.1-1.3-10.8-2.1-10.8-2.1s-25.4,3.3-24.1-3.5l0.4-42.3
		C449.8,886.3,453.6,902.1,464.6,898.3z"/>
	<path class="st3" d="M547.5,938.2c0.8-9-4.3-14.7-6-14.4c-2.5,0.3-6.5,2.4-9,2.8c-4,0.7-13.3,2.8-13.3,2.8
		c-3.1-0.3-5.6,2.8-5.9,7.1l-0.2,8.6c0,0,3.1,0.1,20.5-2.5C536.5,942.1,547.5,938.2,547.5,938.2z"/>
	<path class="st0" d="M329.2,432.3l-1.9,18l-33.7,462.3l14.5-12.9c6.4-4.4,14.8-4.3,21.1,0.2l16.8,19.8c0,0,21.4-164,24.1-197.8
		c1.6-19.6,3.9-58.2,6.7-77.7c4.1-28.4,19.5-111.7,19.5-111.7l2.6-101.1L329.2,432.3z"/>
	<path class="st0" d="M395.2,432.3l1.4,85.3l26.3,179.1l20.6,176.8l4.4,42.5l18.3-14.6c24.7-9,26.3,0.3,36.2,6.3l-1.1-25L493,681.5
		L470.4,430l-69.8,2.7L395.2,432.3z"/>
	<polygon class="st4" points="396.2,483.3 391.9,448.4 404.9,448.4 404.1,476.6 	"/>
</g>
</svg>
