<?xml version="1.0" encoding="utf-8"?>
<!-- Generator: Adobe Illustrator 26.0.1, SVG Export Plug-In . SVG Version: 6.00 Build 0)  -->
<svg version="1.1" id="Calque_1" xmlns="http://www.w3.org/2000/svg" xmlns:xlink="http://www.w3.org/1999/xlink" x="0px" y="0px"
	 viewBox="0 0 788 1005" style="enable-background:new 0 0 788 1005;" xml:space="preserve">
<style type="text/css">
	.st0{fill:none;}
	.st1{fill:#944E31;}
	.st2{fill:#87B6C7;}
	.st3{fill:#6C9AAB;}
	.st4{fill:#C69C6D;}
	.st5{fill:#699AAB;}
	.st6{fill:none;stroke:#699AAB;stroke-width:2;stroke-linecap:round;stroke-miterlimit:10;}
	.st7{fill:none;stroke:#669AAB;stroke-width:2;stroke-linecap:round;stroke-miterlimit:10;}
</style>
<g id="Calque_7">
	<path class="st0" d="M434,402.7c15.7,4.3,22.5,7.9,26.2,13.5c3,4.6,5.8,15.1,6.1,20.3c0.5,12.3-5.6,56.6-19.8,69.2
		c-14.4,12.9-84.8,12.9-99.2,0c-14.1-12.6-20.3-56.9-19.8-69.2c0.2-5.2,3.1-15.8,6.1-20.3c3.7-5.7,10.6-9.3,26.2-13.5
		c17.9-4.9,36.2-4.1,36.2-4.1S416.1,397.8,434,402.7z"/>
	<polygon points="231.6,486.2 231.7,486.1 231.6,486.1 	"/>
	<polygon points="231.7,486.1 231.8,486.2 231.8,486.1 	"/>
	<polygon points="231.6,486.2 231.7,486.1 231.6,486.1 	"/>
	<polygon points="231.7,486.1 231.8,486.2 231.8,486.1 	"/>
	<path class="st1" d="M338.1,638c-13.9-0.2-22.3,6.7-24.9,18.2c0,0-7.1,55.4-8.3,77c-1.9,34.7,2.5,101.6,7.2,136
		c1,7.5,3,30.3,3,30.3c0.7,6.8,6.4,11.9,13.2,11.8l0,0c6.7-0.1,12.2-5.2,12.9-11.8c0,0,2.2-26.1,3.5-34.8c4.6-31.3,18-93.5,20-125.1
		c1.2-19-0.5-77.5-0.5-77.5C363.5,642.8,350,638.6,338.1,638z"/>
	<path class="st2" d="M327.6,891.5L327.6,891.5c-6.1,0.1-11.5,3.7-14.1,9.2l0,0c-5.9,12.4-30.5,28.9-30.5,28.9
		c-4.4,3.5-6.6,9.1-5.5,14.6l0,0l60.3-0.3l3.4-1c3.9-1.2,6.4-5,6-9l-3.5-30C341.9,896.4,335.2,891.2,327.6,891.5z"/>
	<path class="st3" d="M279.1,943.8L279.1,943.8c-0.8-4.9,2.5-9.5,7.4-10.3c0,0,0.1,0,0.1,0l35.8-5.5c4.6-0.7,9,2.2,10.1,6.8l2.1,8.5
		L279.1,943.8z"/>
	<path class="st4" d="M434.5,402.2c15.7,4.3,22.5,7.9,26.2,13.5c3,4.6,5.8,15.1,6.1,20.4c0.5,12.3-5.6,56.5-19.8,69.1
		c-14.4,12.9-84.8,12.9-99.2,0c-14.1-12.6-20.3-56.8-19.8-69.1c0.2-5.2,3.1-15.8,6.1-20.4c3.7-5.7,10.6-9.3,26.2-13.5
		c17.9-4.9,36.2-4.1,36.2-4.1S416.6,397.3,434.5,402.2z"/>
	<path class="st4" d="M477,655.3c-1.2,13.4-12.1,23.8-25.5,24.4l0,0c-12.8,0.6-24.3-7.9-27.3-20.3c0,0-18.9-88.8-20.9-120.8
		c-0.5-7.9,3.8-89.8,3.8-89.8s-2.7-18.3,28.4-23.7c27.8-4.8,30.8,9.6,30.8,9.6s17,81.1,18.1,107.7C485.5,566.9,477,655.3,477,655.3z
		"/>
	<path class="st1" d="M453.9,638c12.4-0.2,19.9,6.7,22.2,18.2c0,0,14.4,53.4,15.5,75c1.7,34.7-10.3,103.6-14.5,138
		c-0.9,7.5-2.7,30.3-2.7,30.3c-0.6,6.8-5.7,11.9-11.8,11.8l0,0c-6-0.1-10.9-5.2-11.5-11.8c0,0-2-26.1-3.1-34.8
		c-4-31.3-16-93.5-17.9-125.1c-1.1-19,0.4-77.5,0.4-77.5C431.3,642.9,443.3,638.6,453.9,638L453.9,638z"/>
	<path class="st1" d="M476.9,887.6c-1.2,34,40.1,38.4,40.1,38.4c4.4,3.5-67,21.8-66.6,17.8c0,0,1.5-52-1-65.2
		C447.6,869.3,477.6,867.6,476.9,887.6z"/>
	<path class="st2" d="M464.1,906.5c6.4-2.2,5.9-6.8,8.5-9.4c1.5-1.5,7.9-3.2,8.8-1.2c10.7,22.7,61.2,35.4,61.2,35.4
		c5.4,3.8,6.6,9.1,5.5,14.6l0,0c0,0-43.8,9.4-67.8-1.3c-4.8-2.2-9,3.1-9,3.1s-22.4,3.7-21.2-3.1l-2.5-42.7
		C449.3,894.4,453.1,910.2,464.1,906.5z"/>
	<path class="st5" d="M548.6,946.3c0.8-9-4.3-14.7-6-14.4c-2.5,0.3-6.5,2.4-9,2.8c-4,0.7-16-0.3-16-0.3c-3.1-0.3-5.6,2.8-5.9,7.1
		l-0.2,8.6c0,0,7.3,1,24.6-1.6C539.1,948.1,548.6,946.3,548.6,946.3z"/>
	<polygon class="st4" points="328.1,436.1 281.4,844.1 310.5,856.2 313.2,879.3 345.4,876.4 349.2,852.4 370.9,838.8 406,538.6 
		416.4,437.9 	"/>
	<polygon class="st4" points="399.4,417.2 401.1,517.5 414.4,845.8 442.2,862 447.6,886.2 476.6,883.2 478.7,858 517.2,835.5 
		483.2,528.7 405.4,417.6 	"/>
	<path class="st6" d="M310.7,910c0,0,4.7-3.4,8.9-3.3c5.1,0,10,3.1,10,3.1"/>
	<path class="st7" d="M491.8,905.7c0,0-5.1,2.1-9,2.2"/>
	<path class="st7" d="M497.5,910.7c0,0-5,2.4-8.9,2.7"/>
	<path class="st0" d="M433,396.1c15.7,4.3,22.5,7.9,26.2,13.5c3,4.6,5.8,15.1,6.1,20.4c0.5,12.3-5.7,55.1-19.8,67.7
		c-14.4,12.9-84.8,12.9-99.2,0c-14.2-12.6-20.3-55.4-19.8-67.7c0.2-5.2,3.1-15.8,6.1-20.4c3.7-5.7,10.6-9.3,26.2-13.5
		c17.9-4.9,36.2-4.1,36.2-4.1S415.1,391.2,433,396.1z"/>
	<polygon points="230.6,478.1 230.7,478 230.6,478 	"/>
	<polygon points="230.7,478 230.8,478.1 230.8,478 	"/>
	<polygon points="230.6,478.1 230.7,478 230.6,478 	"/>
	<polygon points="230.7,478 230.8,478.1 230.8,478 	"/>
</g>
</svg>
