<?xml version="1.0" encoding="utf-8"?>
<!-- Generator: Adobe Illustrator 26.0.2, SVG Export Plug-In . SVG Version: 6.00 Build 0)  -->
<svg version="1.1" id="Calque_9" xmlns="http://www.w3.org/2000/svg" xmlns:xlink="http://www.w3.org/1999/xlink" x="0px" y="0px"
	 viewBox="0 0 200 200" style="enable-background:new 0 0 200 200;" xml:space="preserve">
<style type="text/css">
	.st0{fill:#60131D;}
	.st1{clip-path:url(#SVGID_00000043417190355108247760000015415387110716135852_);}
	.st2{fill:#955A40;}
	.st3{clip-path:url(#SVGID_00000157992258636766924350000010011838742901192879_);}
	.st4{clip-path:url(#SVGID_00000029040033990197382790000002326349149433419940_);}
	.st5{fill:#6E4031;}
	.st6{clip-path:url(#SVGID_00000026844727920608364460000004022747628195093405_);}
	.st7{fill:#90573A;}
	.st8{fill:#129B94;}
</style>
<path class="st0" d="M149.7,146.8c0,0,29.3,2.5,31.2-22.2C182.8,100,163.1,94,163.1,94s19.7-23.2-1.8-35.9s-32.7,5.6-33.1,13
	c-0.4,7.4-35.6,20.1-41.2,33.8c0,0-18.3-36.6-25-41.5s-25.7-6.7-31.7,6.3s0,27,7,30.6c0,0-17.6,13.4-9.5,33.5s27.4,16.9,27.4,16.9
	s-1.1,17.2,16.5,26c17.6,8.8,31.5-4.6,31.5-4.6s14.6,13.7,34,2.5S149.7,146.8,149.7,146.8z"/>
<g>
	<g>
		<defs>
			<polygon id="SVGID_1_" points="138.6,142.8 138.6,142.8 149.4,142.8 149.4,155.9 138.6,155.9 			"/>
		</defs>
		<clipPath id="SVGID_00000168101043097063750710000000792062771584442501_">
			<use xlink:href="#SVGID_1_"  style="overflow:visible;"/>
		</clipPath>
		<g style="clip-path:url(#SVGID_00000168101043097063750710000000792062771584442501_);">
			<path class="st2" d="M138.9,150.5c0-0.2,0.7-1.5,5-5c1.4-1.2,3.2-2.2,5-2.6c0.5,0.5,0.6,1.1,0.5,1.8c-0.1,0.8-4,2.7-5.1,3.8
				c-2.2,2.4-4.1,4.8-5.7,7.6L138.9,150.5z"/>
		</g>
	</g>
</g>
<g>
	<g>
		<defs>
			<polygon id="SVGID_00000072239377916694376560000018328449528171745701_" points="65.5,142.8 65.5,142.8 54.7,142.8 54.7,155.9 
				65.5,155.9 			"/>
		</defs>
		<clipPath id="SVGID_00000000187303100059847010000001150148725163446424_">
			<use xlink:href="#SVGID_00000072239377916694376560000018328449528171745701_"  style="overflow:visible;"/>
		</clipPath>
		<g style="clip-path:url(#SVGID_00000000187303100059847010000001150148725163446424_);">
			<path class="st2" d="M65.2,150.5c0-0.2-0.7-1.5-5-5c-1.4-1.2-3.2-2.2-5-2.6c-0.5,0.5-0.6,1.1-0.5,1.8c0.1,0.8,4,2.7,5.1,3.8
				c2.2,2.4,4.1,4.8,5.7,7.6L65.2,150.5z"/>
		</g>
	</g>
</g>
<g id="random">
	<g>
		<g>
			<defs>
				<polygon id="SVGID_00000000933653445233238140000006035636962284669883_" points="131.2,138.7 131.2,138.7 154.3,138.7 
					154.3,170.8 131.2,170.8 				"/>
			</defs>
			<clipPath id="SVGID_00000155134122590837384950000012590543934081762471_">
				<use xlink:href="#SVGID_00000000933653445233238140000006035636962284669883_"  style="overflow:visible;"/>
			</clipPath>
			<g style="clip-path:url(#SVGID_00000155134122590837384950000012590543934081762471_);">
				<path class="st5" d="M131.2,167.4l8.2-24.3c0,0,8-8,13.9-2.5c3.9,3.7-5.1,28.8-10.1,29.8C134.8,172.1,131.2,167.4,131.2,167.4z"
					/>
			</g>
		</g>
	</g>
</g>
<g id="random2">
	<g>
		<g>
			<defs>
				<polygon id="SVGID_00000130604399023676035280000001255276299970230439_" points="73.9,138.7 73.9,138.7 50.8,138.7 50.8,170.8 
					73.9,170.8 				"/>
			</defs>
			<clipPath id="SVGID_00000117637762440357745860000013519397118506713524_">
				<use xlink:href="#SVGID_00000130604399023676035280000001255276299970230439_"  style="overflow:visible;"/>
			</clipPath>
			<g style="clip-path:url(#SVGID_00000117637762440357745860000013519397118506713524_);">
				<path class="st5" d="M73.9,167.4l-8.2-24.3c0,0-8-8-13.9-2.5c-3.9,3.7,5.1,28.8,10.1,29.8C70.3,172.1,73.9,167.4,73.9,167.4z"/>
			</g>
		</g>
	</g>
</g>
<path class="st7" d="M103.6,77.2L103.6,77.2c-22.6-0.1-40.8,10.5-40.8,43c0,7.5,0.6,14.9,1.7,22.4c1,6.5,2.6,12.8,4.8,19.1
	c7.3,20.5,19.9,33.3,34.4,33.3v0.1c14.3,0,26.7-12.4,34.1-32.4c3-8.4,5-17.1,6-26c0.6-5.4,0.9-10.9,0.9-16.3
	C144.5,87.8,126.2,77.2,103.6,77.2z"/>
<path class="st0" d="M48.9,41.3c0,0-32.3-2.7-34.4,24.5s19.6,33.8,19.6,33.8s-21.8,25.6,1.9,39.6s36.1-6.2,36.5-14.4
	c0.4-8.2,39.2-22.1,45.5-37.3c0,0,20.2,40.4,27.6,45.8s28.4,7.4,35-7c6.6-14.4,0-29.8-7.8-33.8c0,0,19.4-14.8,10.5-36.9
	S153,37.1,153,37.1s1.2-19-18.3-28.7S100,13.4,100,13.4S83.9-1.8,62.5,10.6S48.9,41.3,48.9,41.3z"/>
<path class="st8" d="M60.1,85.9c0,0,47.9-58.8,85.9,0c0,0-1.2-20-21.8-28.9c-9.7-4.2-21.1-4.3-31.3-1C64,65.6,60.1,85.9,60.1,85.9z"
	/>
</svg>
