<?xml version="1.0" encoding="utf-8"?>
<!-- Generator: Adobe Illustrator 26.0.2, SVG Export Plug-In . SVG Version: 6.00 Build 0)  -->
<svg version="1.1" id="Calque_9" xmlns="http://www.w3.org/2000/svg" xmlns:xlink="http://www.w3.org/1999/xlink" x="0px" y="0px"
	 viewBox="0 0 788 1005" style="enable-background:new 0 0 788 1005;" xml:space="preserve">
<style type="text/css">
	.st0{fill:#60131D;}
	.st1{clip-path:url(#SVGID_00000121246601249189312930000010261851194789055650_);}
	.st2{fill:#955A40;}
	.st3{clip-path:url(#SVGID_00000136411308895486183320000014442127869298463639_);}
	.st4{clip-path:url(#SVGID_00000133504221934674978230000014209074971468978092_);}
	.st5{fill:#6E4031;}
	.st6{clip-path:url(#SVGID_00000172434941461037036040000006191450367534603930_);}
	.st7{fill:#90573A;}
	.st8{fill:#129B94;}
</style>
<path class="st0" d="M443,254.9c0,0,31,2.6,33-23.5S457.2,199,457.2,199s20.9-24.6-1.9-38c-22.7-13.4-34.7,6-35,13.8
	c-0.4,7.8-37.6,21.2-43.6,35.8c0,0-19.4-38.7-26.5-44c-7.1-5.2-27.2-7.1-33.5,6.7c-6.3,13.8,0,28.6,7.5,32.4c0,0-18.6,14.2-10,35.4
	s29,17.9,29,17.9s-1.1,18.3,17.5,27.6c18.6,9.3,33.3-4.8,33.3-4.8s15.5,14.5,36,2.6C450.5,272.4,443,254.9,443,254.9z"/>
<g>
	<g>
		<defs>
			<polygon id="SVGID_1_" points="431.2,250.6 431.2,250.6 442.7,250.6 442.7,264.5 431.2,264.5 			"/>
		</defs>
		<clipPath id="SVGID_00000073716007952500641080000018139442287247468952_">
			<use xlink:href="#SVGID_1_"  style="overflow:visible;"/>
		</clipPath>
		<g style="clip-path:url(#SVGID_00000073716007952500641080000018139442287247468952_);">
			<path class="st2" d="M431.5,258.8c0-0.2,0.7-1.6,5.3-5.3c1.5-1.3,3.4-2.3,5.3-2.8c0.5,0.5,0.6,1.2,0.5,1.9
				c-0.1,0.8-4.2,2.9-5.4,4c-2.3,2.5-4.3,5.1-6,8L431.5,258.8z"/>
		</g>
	</g>
</g>
<g>
	<g>
		<defs>
			<polygon id="SVGID_00000054245060328039371960000004862925079388197783_" points="353.8,250.6 353.8,250.6 342.4,250.6 
				342.4,264.5 353.8,264.5 			"/>
		</defs>
		<clipPath id="SVGID_00000070832409914659822520000004618639651614556326_">
			<use xlink:href="#SVGID_00000054245060328039371960000004862925079388197783_"  style="overflow:visible;"/>
		</clipPath>
		<g style="clip-path:url(#SVGID_00000070832409914659822520000004618639651614556326_);">
			<path class="st2" d="M353.5,258.8c0-0.2-0.7-1.6-5.3-5.3c-1.5-1.3-3.4-2.3-5.3-2.8c-0.5,0.5-0.6,1.2-0.5,1.9
				c0.1,0.8,4.2,2.9,5.4,4c2.3,2.5,4.3,5.1,6,8L353.5,258.8z"/>
		</g>
	</g>
</g>
<g id="random">
	<g>
		<g>
			<defs>
				<polygon id="SVGID_00000178181771341689451410000000287206505276013970_" points="423.4,246.3 423.4,246.3 447.8,246.3 
					447.8,280.3 423.4,280.3 				"/>
			</defs>
			<clipPath id="SVGID_00000101060843478123242750000015267346267292073601_">
				<use xlink:href="#SVGID_00000178181771341689451410000000287206505276013970_"  style="overflow:visible;"/>
			</clipPath>
			<g style="clip-path:url(#SVGID_00000101060843478123242750000015267346267292073601_);">
				<path class="st5" d="M423.4,276.7l8.7-25.7c0,0,8.5-8.5,14.7-2.6c4.1,3.9-5.4,30.5-10.7,31.5
					C427.2,281.7,423.4,276.7,423.4,276.7z"/>
			</g>
		</g>
	</g>
</g>
<g id="random2">
	<g>
		<g>
			<defs>
				<polygon id="SVGID_00000083055729644646858590000001466025681283250869_" points="362.7,246.3 362.7,246.3 338.3,246.3 
					338.3,280.3 362.7,280.3 				"/>
			</defs>
			<clipPath id="SVGID_00000020362909915524497290000014638516910959768999_">
				<use xlink:href="#SVGID_00000083055729644646858590000001466025681283250869_"  style="overflow:visible;"/>
			</clipPath>
			<g style="clip-path:url(#SVGID_00000020362909915524497290000014638516910959768999_);">
				<path class="st5" d="M362.7,276.7L354,251c0,0-8.5-8.5-14.7-2.6c-4.1,3.9,5.4,30.5,10.7,31.5
					C358.9,281.7,362.7,276.7,362.7,276.7z"/>
			</g>
		</g>
	</g>
</g>
<path class="st7" d="M394.2,181.2L394.2,181.2c-23.9-0.1-43.2,11.1-43.2,45.5c0,7.9,0.6,15.8,1.8,23.7c1.1,6.9,2.8,13.6,5.1,20.2
	c7.7,21.7,21.1,35.2,36.4,35.2v0.1c15.1,0,28.3-13.1,36.1-34.3c3.2-8.9,5.3-18.1,6.3-27.5c0.6-5.7,1-11.5,1-17.2
	C437.5,192.4,418.1,181.2,394.2,181.2z"/>
<g id="DBytZ0_00000098182156842457507290000000478024350864056998_">
	
		<image style="overflow:visible;" width="564" height="705" id="DBytZ0" xlink:href="6E55B21CAE773806.jpg"  transform="matrix(0.3135 0 0 0.3135 181.2706 698.8863)">
	</image>
</g>
<path class="st0" d="M336.3,143.3c0,0-34.2-2.9-36.4,25.9c-2.2,28.8,20.8,35.8,20.8,35.8s-23,27.1,2.1,41.9
	c25.1,14.8,38.2-6.6,38.6-15.2c0.4-8.6,41.5-23.4,48.1-39.5c0,0,21.4,42.8,29.2,48.5c7.8,5.8,30,7.8,37-7.4c7-15.2,0-31.6-8.2-35.7
	c0,0,20.5-15.7,11.1-39.1s-32.1-19.7-32.1-19.7s1.2-20.1-19.3-30.4c-20.6-10.3-36.8,5.3-36.8,5.3s-17.1-16-39.7-2.9
	C328.1,123.9,336.3,143.3,336.3,143.3z"/>
<path class="st8" d="M348.2,190.5c0,0,50.7-62.3,90.9,0c0,0-1.2-21.2-23.1-30.6c-10.3-4.4-22.3-4.6-33.1-1.1
	C352.3,168.9,348.2,190.5,348.2,190.5z"/>
<image style="overflow:visible;" width="900" height="900" xlink:href="../../../../../../Users/silvia.garofalo/Desktop/SPA0187_square.jpg"  transform="matrix(0.2294 0 0 0.2294 855.3463 -340.8073)">
</image>
</svg>
