<?xml version="1.0" encoding="utf-8"?>
<!-- Generator: Adobe Illustrator 26.0.2, SVG Export Plug-In . SVG Version: 6.00 Build 0)  -->
<svg version="1.1" id="Calque_9" xmlns="http://www.w3.org/2000/svg" xmlns:xlink="http://www.w3.org/1999/xlink" x="0px" y="0px"
	 viewBox="0 0 200 200" style="enable-background:new 0 0 200 200;" xml:space="preserve">
<style type="text/css">
	.st0{fill:#60131D;}
	.st1{fill:#6F412A;}
	.st2{fill:#90573A;}
	.st3{fill:#E5B94C;}
</style>
<path class="st0" d="M74.2,22.9c0,0-15.4-1.3-16.4,11.6s9.3,16.1,9.3,16.1s-10.3,12.2,0.9,18.8s17.2-3,17.4-6.8
	c0.2-3.9,18.7-10.5,21.6-17.7c0,0,9.6,19.2,13.1,21.8c3.5,2.6,13.5,3.5,16.6-3.3c3.1-6.8,0-14.2-3.7-16.1c0,0,9.2-7,5-17.6
	s-14.4-8.9-14.4-8.9s0.6-9.1-8.7-13.7S98.5,9.6,98.5,9.6s-7.7-7.2-17.8-1.3S74.2,22.9,74.2,22.9z"/>
<circle class="st0" cx="98.4" cy="98.9" r="54.7"/>
<path class="st1" d="M147.1,153.3c-3.2,0.9-6.7,0.5-9.7-1c3.5-9.6,5.7-19.6,6.8-29.8c2.4-2.1,8.8-6.6,13.7-1.7
	C162,124.8,152.4,152.1,147.1,153.3z"/>
<path class="st2" d="M98.3,54.6v-0.1c-25.9,0-46.7,12.1-46.7,49.3c0,8.5,0.6,17.1,1.9,25.6c1.2,7.5,3,14.7,5.5,21.9
	c8.3,23.5,22.8,38.1,39.4,38.1v0.1c16.3,0,30.6-14.2,39.1-37.1c3.5-9.6,5.7-19.6,6.8-29.8c0.6-6.2,1.1-12.4,1.1-18.6
	C145.1,66.7,124.2,54.6,98.3,54.6z"/>
<path class="st1" d="M59,151.2c-1.8,1.4-5.4,3.2-11.5,1.9c-5.3-1.1-14.9-28.5-10.8-32.5c6.3-6.2,14.8,2.7,14.8,2.7l1.9,6
	C54.7,136.9,56.5,144.2,59,151.2z"/>
<path class="st0" d="M51.5,123.4c0,0,3.8-23.2,28.1-43.3s49.3,0.9,49.3,0.9s7.2,56,15.3,41.6c8.1-14.4,3.9-29.8,3.9-29.8L137.3,64
	l-20.6-11.8l-16.5-4.7l-26.4,6.9L59,64.9L47.7,89L51.5,123.4z"/>
<path class="st3" d="M70.7,54.5c0,0,33.3-30.9,59,1.4c0,0-7.9-5-18.6-8.4c-5-1.6-10.9-1.7-16.2-0.4C80,50.8,70.7,54.5,70.7,54.5z"/>
</svg>
