<?xml version="1.0" encoding="utf-8"?>
<!-- Generator: Adobe Illustrator 26.0.2, SVG Export Plug-In . SVG Version: 6.00 Build 0)  -->
<svg version="1.1" id="Calque_9" xmlns="http://www.w3.org/2000/svg" xmlns:xlink="http://www.w3.org/1999/xlink" x="0px" y="0px"
	 viewBox="0 0 788 1005" style="enable-background:new 0 0 788 1005;" xml:space="preserve">
<style type="text/css">
	.st0{fill:#60131D;}
	.st1{fill:#6F412A;}
	.st2{fill:#90573A;}
</style>
<circle class="st0" cx="393.9" cy="215.7" r="50.7"/>
<path class="st0" d="M422.1,153.3c0,0-9.9-13.7-21.5-5.3c-11.5,8.4-6.7,19.3-6.7,19.3s-17.6,0.1-15.1,14.3
	c2.5,14.2,14.8,12.2,18.2,9.6s22.2,8,30.3,5.3c0,0-9.1,21.8-8.8,26.6c0.4,4.8,6.8,13.8,14.7,11.5s11.8-10.2,10.7-14.6
	c0,0,12.5,2.6,18.2-8.5c5.7-11.1-2.9-18.4-2.9-18.4s7.9-6,5.2-17.1c-2.8-11-13.9-12.1-13.9-12.1s0.5-11.6-11.7-15.8
	C426.7,144,422.1,153.3,422.1,153.3z"/>
<path class="st1" d="M427.2,268.3l8.1-24.5c0,0,7.9-8.1,13.6-2.5c3.8,3.8-5.1,29-10,30C430.7,273.1,427.2,268.3,427.2,268.3z"/>
<path class="st1" d="M360.8,268.3l-8.1-24.5c0,0-7.9-8.1-13.6-2.5c-3.8,3.8,5.1,29,10,30C357.3,273.1,360.8,268.3,360.8,268.3z"/>
<path class="st2" d="M393.9,180.1c-23.9,0-43.3,11.2-43.3,45.6c0,46,27.5,79,43.3,79s43.3-33,43.3-79
	C437.2,191.3,417.9,180.1,393.9,180.1z"/>
<path class="st2" d="M394.2,181.2L394.2,181.2c-23.9-0.1-43.2,11.1-43.2,45.5c0,7.9,0.6,15.8,1.8,23.7c1.1,6.9,2.8,13.6,5.1,20.2
	c7.7,21.7,21.1,35.3,36.4,35.3l0,0c15.1,0,28.3-13.1,36.1-34.3c3.2-8.9,5.3-18.1,6.3-27.5c0.6-5.7,1-11.5,1-17.2
	C437.5,192.4,418.1,181.2,394.2,181.2z"/>
<path class="st0" d="M394.5,197.8c0,0-21.3,5.1-31.3,17.9s-8.9,33.4-12.6,26.7c-7.3-13.6-3.7-33.9-3.7-33.9l11-24.5l39.1-11.5
	l40.8,20.8l3.7,27.6c0,0-2.5,25.8-6.5,22.9c-6.3-4.4-2.1-20-8.9-28C415.2,203.1,394.5,197.8,394.5,197.8z"/>
</svg>
