<?xml version="1.0" encoding="utf-8"?>
<!-- Generator: Adobe Illustrator 26.0.2, SVG Export Plug-In . SVG Version: 6.00 Build 0)  -->
<svg version="1.1" id="Calque_9" xmlns="http://www.w3.org/2000/svg" xmlns:xlink="http://www.w3.org/1999/xlink" x="0px" y="0px"
	 viewBox="0 0 788 1005" style="enable-background:new 0 0 788 1005;" xml:space="preserve">
<style type="text/css">
	.st0{fill:#60131D;}
	.st1{clip-path:url(#SVGID_00000152249195237505581760000015398767067753265540_);}
	.st2{fill:#6F412A;}
	.st3{clip-path:url(#SVGID_00000004523519998218061160000007611526770185063825_);}
	.st4{clip-path:url(#SVGID_00000131350738115028596930000008966694967451399814_);}
	.st5{fill:#6E4031;}
	.st6{clip-path:url(#SVGID_00000093178611217844674960000006114332997459797401_);}
	.st7{clip-path:url(#SVGID_00000073703417614033389010000018084796939473111729_);}
	.st8{fill:#FFFFFF;}
	.st9{fill:none;}
	.st10{fill:#90573A;}
	.st11{fill:#D2A7D8;}
</style>
<path class="st0" d="M350.7,187.4c0,0-26.2-2.2-27.9,19.8c-1.7,22,15.9,27.4,15.9,27.4s-17.6,20.8,1.6,32.1
	c19.2,11.3,29.3-5,29.6-11.6c0.3-6.6,31.8-17.9,36.8-30.2c0,0,16.4,32.7,22.3,37.1c6,4.4,23,6,28.3-5.7s0-24.2-6.3-27.3
	c0,0,15.7-12,8.5-29.9c-7.2-17.9-24.5-15.1-24.5-15.1s0.9-15.4-14.8-23.3s-28.2,4.1-28.2,4.1s-13.1-12.3-30.4-2.2
	C344.4,172.6,350.7,187.4,350.7,187.4z"/>
<g id="random">
	<g>
		<g>
			<defs>
				<polygon id="SVGID_1_" points="426.1,245 426.1,245 449.4,245 449.4,277.4 426.1,277.4 				"/>
			</defs>
			<clipPath id="SVGID_00000072961114923991047700000002879224836537693356_">
				<use xlink:href="#SVGID_1_"  style="overflow:visible;"/>
			</clipPath>
			<g style="clip-path:url(#SVGID_00000072961114923991047700000002879224836537693356_);">
				<path class="st2" d="M426.1,273.9l8.3-24.5c0,0,8.1-8.1,14-2.5c3.9,3.8-5.2,29-10.1,30C429.7,278.7,426.1,273.9,426.1,273.9z"/>
			</g>
		</g>
	</g>
</g>
<g id="random2">
	<g>
		<g>
			<defs>
				<polygon id="SVGID_00000052813552292580675780000011856387605971839625_" points="364.5,245 364.5,245 341.3,245 341.3,277.4 
					364.5,277.4 				"/>
			</defs>
			<clipPath id="SVGID_00000102544262071840282490000012609419492243727771_">
				<use xlink:href="#SVGID_00000052813552292580675780000011856387605971839625_"  style="overflow:visible;"/>
			</clipPath>
			<g style="clip-path:url(#SVGID_00000102544262071840282490000012609419492243727771_);">
				<path class="st2" d="M364.5,273.9l-8.3-24.5c0,0-8.1-8.1-14-2.5c-3.9,3.8,5.2,29,10.2,30C361,278.7,364.5,273.9,364.5,273.9z"/>
			</g>
		</g>
	</g>
</g>
<g id="random3">
	<g>
		<g>
			<defs>
				<polygon id="SVGID_00000127041398638443678870000008753946238314121127_" points="430.4,248.5 430.4,248.5 441.9,248.5 
					441.9,262.4 430.4,262.4 				"/>
			</defs>
			<clipPath id="SVGID_00000102530970050549983470000012849754307475289263_">
				<use xlink:href="#SVGID_00000127041398638443678870000008753946238314121127_"  style="overflow:visible;"/>
			</clipPath>
			<g style="clip-path:url(#SVGID_00000102530970050549983470000012849754307475289263_);">
				<path class="st5" d="M430.7,256.6c0-0.2,0.7-1.6,5.3-5.3c1.5-1.3,3.4-2.3,5.3-2.8c0.4,0.5,0.6,1.2,0.5,1.9
					c-0.1,0.9-4.2,2.9-5.4,4c-1.9,1.7-6,7.8-6,8L430.7,256.6z"/>
			</g>
		</g>
	</g>
</g>
<g id="random4">
	<g>
		<g>
			<defs>
				<polygon id="SVGID_00000134248529339698835910000013298387187863746946_" points="353,248.5 353,248.5 341.6,248.5 341.6,262.4 
					353,262.4 				"/>
			</defs>
			<clipPath id="SVGID_00000157270447372265241630000008437480538378699678_">
				<use xlink:href="#SVGID_00000134248529339698835910000013298387187863746946_"  style="overflow:visible;"/>
			</clipPath>
			<g style="clip-path:url(#SVGID_00000157270447372265241630000008437480538378699678_);">
				<path class="st5" d="M352.7,256.6c0-0.2-0.7-1.6-5.3-5.3c-1.5-1.3-3.4-2.3-5.3-2.8c-0.4,0.5-0.6,1.2-0.5,1.9
					c0.1,0.9,4.2,2.9,5.4,4c1.9,1.7,6,7.8,6,8L352.7,256.6z"/>
			</g>
		</g>
	</g>
</g>
<g>
	<g>
		<defs>
			<polygon id="SVGID_00000043414838352124014960000007066782611364570250_" points="376.5,235.4 376.5,235.4 361.4,235.4 
				361.4,250 376.5,250 			"/>
		</defs>
		<clipPath id="SVGID_00000144311299216554816850000014424841547621713806_">
			<use xlink:href="#SVGID_00000043414838352124014960000007066782611364570250_"  style="overflow:visible;"/>
		</clipPath>
		<g style="clip-path:url(#SVGID_00000144311299216554816850000014424841547621713806_);">
			<ellipse class="st8" cx="369" cy="242.7" rx="7.5" ry="7.3"/>
		</g>
	</g>
</g>
<rect x="716.5" y="506.9" class="st9" width="112.5" height="211.2"/>
<path class="st10" d="M394.2,181.2L394.2,181.2c-23.9-0.1-43.2,11.1-43.2,45.5c0,7.9,0.6,15.8,1.8,23.7c1.1,6.9,2.8,13.6,5.1,20.2
	c7.7,21.7,21.1,35.2,36.4,35.2v0.1c15.1,0,28.3-13.1,36.1-34.3c3.2-8.9,5.3-18.1,6.3-27.5c0.6-5.7,1-11.5,1-17.2
	C437.5,192.4,418.1,181.2,394.2,181.2z"/>
<path class="st0" d="M351,249l-3.8-2.4c-0.4-0.2-0.6-0.5-0.9-0.9c-1.5-2.5-7.5-13.4-7.5-24.5c0-16,28.2-43.5,44-46.4
	c4-0.7,8.2,0.3,11.4,2.8c0.5,0.4,1,0.6,1.6,0.6c3.8-0.1,17.9-0.3,22.7,1.7c24.7,10.6,29.7,28,29,39.7c-0.7,8.4-2.7,16.8-6,24.5
	c-0.2,0.5-0.6,0.9-1,1.2l-2.7,1.7c-1.6,1-3.8,0-4-1.9l-2-15.4c-0.1-0.7-0.5-1.3-1-1.8l-10.8-8c-0.3-0.2-0.5-0.5-0.7-0.8
	c-1.2-2.1-6.2-10.5-5.9-10.5c0.2,0,1,3.9,1.7,6.8c0.3,1.6-0.9,3.2-2.6,3.2c-3.5,0-8.7-0.2-10.6-1.4c-1.2-0.8-2.6-3.5-3.6-5.7
	c-0.7-1.6-2.7-2-4.1-0.9c-2.9,2.4-7.3,6-9.2,7.1c-2,1.2-5.2,1.9-7.7,2.3c-1.7,0.3-3.2-1.1-3-2.9v0c0.3-2.7-3.1-4-4.7-1.8l-4,5.4
	c-0.1,0.2-0.3,0.3-0.4,0.5l-7.9,6.5c-0.6,0.5-0.9,1.1-1,1.8L355,247C354.9,249,352.7,250.1,351,249z"/>
<path class="st11" d="M347.8,222.7c0,0,50.7-62.3,90.9,0c0,0-1.2-21.2-23.1-30.6c-10.3-4.4-22.3-4.6-33.1-1.1
	C351.9,201.2,347.8,222.7,347.8,222.7z"/>
<path class="st11" d="M393.6,189.6c0,0-2.2,8.6,0,9c2.2,0.4,7.5-0.8,6.7-4.5c-0.8-3.8-1.7-7.1-3.8-7.1S393.6,189.6,393.6,189.6z"/>
<path class="st11" d="M411.7,200.4l-14.3-3.1c-0.5-0.1-1.1-0.1-1.6,0l-14.4,2.8c-2.5,0.5-4.9-1.5-4.8-4.1l0.2-5.6
	c0.1-2.5,2.3-4.3,4.7-3.9l14.4,2.3c0.5,0.1,1.1,0.1,1.6-0.1l14.4-3.4c2.6-0.6,5,1.4,5,4l-0.2,7.2C416.5,199.1,414.1,201,411.7,200.4
	z"/>
</svg>
