<?xml version="1.0" encoding="utf-8"?>
<!-- Generator: Adobe Illustrator 26.0.2, SVG Export Plug-In . SVG Version: 6.00 Build 0)  -->
<svg version="1.1" id="Calque_9" xmlns="http://www.w3.org/2000/svg" xmlns:xlink="http://www.w3.org/1999/xlink" x="0px" y="0px"
	 viewBox="0 0 788 1005" style="enable-background:new 0 0 788 1005;" xml:space="preserve">
<style type="text/css">
	.st0{fill:#60131D;}
	.st1{fill:#6F412A;}
	.st2{fill:#90573A;}
</style>
<path class="st0" d="M328,187.2c0,0-22.6,6.1-17.3,25.1c5.3,19,21.7,18.1,21.7,18.1s-8.4,22.8,11.1,26.4c19.5,3.6,23-13.2,21.2-18.8
	c-1.8-5.6,23.8-10.1,24.3-21.9c0,0,21.1,7.8,27.4,9.6c6.4,1.9,14.1-1.9,15-13.3c0.9-11.4-0.4-20.3-6.7-21c0,0,9.5-14.8-2-27.7
	c-11.5-12.8-25.2-5.2-25.2-5.2s-3.9-13.2-19.5-15c-15.6-1.8-22.3,12-22.3,12s-14.7-6.3-26.1,7.4C318.3,176.8,328,187.2,328,187.2z"
	/>
<path class="st1" d="M427.2,266.2l8.1-24.5c0,0,7.9-8.1,13.6-2.5c3.8,3.8-5.1,29-10,30C430.7,270.9,427.2,266.2,427.2,266.2z"/>
<path class="st1" d="M360.8,266.2l-8.1-24.5c0,0-7.9-8.1-13.6-2.5c-3.8,3.8,5.1,29,10,30C357.3,270.9,360.8,266.2,360.8,266.2z"/>
<path class="st2" d="M393.9,178c-23.9,0-43.3,11.2-43.3,45.6c0,46,27.5,79,43.3,79l0,0c15.8,0,43.3-33,43.3-79
	C437.2,189.2,417.9,178,393.9,178z"/>
<path class="st2" d="M394.2,178.2L394.2,178.2c-23.9-0.1-43.2,11.1-43.2,45.5c0,7.9,0.6,15.8,1.8,23.7c1.1,6.9,2.8,13.6,5.1,20.2
	c7.7,21.7,21.1,35.2,36.4,35.2v0.1c15.1,0,28.3-13.1,36.1-34.3c3.2-8.9,5.3-18.1,6.3-27.5c0.6-5.7,1-11.5,1-17.2
	C437.5,189.4,418.1,178.2,394.2,178.2z"/>
<path class="st0" d="M428.9,192.8c-2.7,3.2-6.1,5.7-10,7.4c-5.8,2.5-15,5.5-24.6,5.3c-16-0.4-45.9,11.1-41.6,36.2
	c0.8,4.5,3.8,9.5-9.2,8.7c-16.8-1.1-11.7-30.8-11.7-30.8s6.4,8.1,6.3-5.3c5-57.9,74.2-78.7,92.9-26.6C431,187.6,433,192,428.9,192.8
	L428.9,192.8z"/>
<path class="st0" d="M431.5,201.1c-0.4-1-1.2-3.5-0.7-4.5c1.9-3.1,4.1-0.1,5.3,2c1.3,2.3,2.6,7.5-1.4,6.8
	C433.5,205.2,432,202.4,431.5,201.1z"/>
<path class="st0" d="M435.5,216.6c-0.1-1.1-0.2-3.8,0.6-4.5c2.6-2.5,3.9,1,4.5,3.3c0.7,2.6,0.5,7.9-3.1,6.2
	C436.2,221,435.7,217.9,435.5,216.6z"/>
<path class="st0" d="M435.6,229.9c0.1-1.1,0.7-3.7,1.7-4.2c3.2-1.8,3.6,2,3.6,4.4c0,2.6-1.4,7.8-4.6,5.2
	C435.2,234.4,435.4,231.2,435.6,229.9z"/>
</svg>
