<?xml version="1.0" encoding="utf-8"?>
<!-- Generator: Adobe Illustrator 26.0.2, SVG Export Plug-In . SVG Version: 6.00 Build 0)  -->
<svg version="1.1" id="Calque_9" xmlns="http://www.w3.org/2000/svg" xmlns:xlink="http://www.w3.org/1999/xlink" x="0px" y="0px"
	 viewBox="0 0 200 200" style="enable-background:new 0 0 200 200;" xml:space="preserve">
<style type="text/css">
	.st0{fill:#60131D;}
	.st1{clip-path:url(#SVGID_00000095306439734611003760000003611016386548938135_);}
	.st2{fill:#6F412A;}
	.st3{clip-path:url(#SVGID_00000085953870386678573820000003520491061009513912_);}
	.st4{clip-path:url(#SVGID_00000044136637337846259370000001645867328159693729_);}
	.st5{fill:#6E4031;}
	.st6{clip-path:url(#SVGID_00000118361089066806474590000008892737966407043501_);}
	.st7{clip-path:url(#SVGID_00000181087403957624937660000013021749544134182547_);}
	.st8{fill:#FFFFFF;}
	.st9{fill:#90573A;}
	.st10{fill:#D2A7D8;}
</style>
<path class="st0" d="M51.5,52c0,0-29.8-2.5-31.7,22.6s18.1,31.2,18.1,31.2s-20.1,23.7,1.8,36.6s33.3-5.7,33.7-13.3
	c0.4-7.5,36.2-20.4,41.9-34.4c0,0,18.6,37.3,25.4,42.3c6.8,5,26.2,6.8,32.3-6.5s0-27.5-7.2-31.1c0,0,17.9-13.6,9.7-34.1
	c-8.2-20.4-27.9-17.2-27.9-17.2s1.1-17.6-16.8-26.5s-32.1,4.7-32.1,4.7s-14.9-14-34.6-2.5S51.5,52,51.5,52z"/>
<g id="random">
	<g>
		<g>
			<defs>
				<polygon id="SVGID_1_" points="137.3,117.6 137.3,117.6 163.9,117.6 163.9,154.5 137.3,154.5 				"/>
			</defs>
			<clipPath id="SVGID_00000031889356680441976400000008093712289436101817_">
				<use xlink:href="#SVGID_1_"  style="overflow:visible;"/>
			</clipPath>
			<g style="clip-path:url(#SVGID_00000031889356680441976400000008093712289436101817_);">
				<path class="st2" d="M137.3,150.6l9.5-27.9c0,0,9.2-9.2,15.9-2.8c4.4,4.3-5.9,33-11.5,34.2C141.4,156,137.3,150.6,137.3,150.6z"
					/>
			</g>
		</g>
	</g>
</g>
<g id="random2">
	<g>
		<g>
			<defs>
				<polygon id="SVGID_00000018230980968259382190000007466833674680877700_" points="67.2,117.6 67.2,117.6 40.8,117.6 40.8,154.5 
					67.2,154.5 				"/>
			</defs>
			<clipPath id="SVGID_00000069370835003336718290000016572940225023351204_">
				<use xlink:href="#SVGID_00000018230980968259382190000007466833674680877700_"  style="overflow:visible;"/>
			</clipPath>
			<g style="clip-path:url(#SVGID_00000069370835003336718290000016572940225023351204_);">
				<path class="st2" d="M67.2,150.6l-9.5-27.9c0,0-9.2-9.2-15.9-2.8c-4.4,4.3,5.9,33,11.6,34.2C63.2,156,67.2,150.6,67.2,150.6z"/>
			</g>
		</g>
	</g>
</g>
<g id="random3">
	<g>
		<g>
			<defs>
				<polygon id="SVGID_00000170991857415210805950000012326852359948146599_" points="142.2,121.6 142.2,121.6 155.3,121.6 
					155.3,137.5 142.2,137.5 				"/>
			</defs>
			<clipPath id="SVGID_00000085943765656939040210000003950789793814138036_">
				<use xlink:href="#SVGID_00000170991857415210805950000012326852359948146599_"  style="overflow:visible;"/>
			</clipPath>
			<g style="clip-path:url(#SVGID_00000085943765656939040210000003950789793814138036_);">
				<path class="st5" d="M142.6,130.9c0-0.2,0.8-1.8,6-6c1.7-1.5,3.9-2.6,6-3.2c0.5,0.6,0.7,1.4,0.6,2.2c-0.1,1-4.8,3.3-6.1,4.6
					c-2.2,1.9-6.8,8.9-6.8,9.1L142.6,130.9z"/>
			</g>
		</g>
	</g>
</g>
<g id="random4">
	<g>
		<g>
			<defs>
				<polygon id="SVGID_00000079468483862959351140000000717289017333164427_" points="54.1,121.6 54.1,121.6 41.1,121.6 41.1,137.5 
					54.1,137.5 				"/>
			</defs>
			<clipPath id="SVGID_00000018238020505010089590000017753418009542881455_">
				<use xlink:href="#SVGID_00000079468483862959351140000000717289017333164427_"  style="overflow:visible;"/>
			</clipPath>
			<g style="clip-path:url(#SVGID_00000018238020505010089590000017753418009542881455_);">
				<path class="st5" d="M53.8,130.9c0-0.2-0.8-1.8-6-6c-1.7-1.5-3.9-2.6-6-3.2c-0.5,0.6-0.7,1.4-0.6,2.2c0.1,1,4.8,3.3,6.1,4.6
					c2.2,1.9,6.8,8.9,6.8,9.1L53.8,130.9z"/>
			</g>
		</g>
	</g>
</g>
<g>
	<g>
		<defs>
			<polygon id="SVGID_00000163043207617052684180000013539712467129720198_" points="80.9,106.7 80.9,106.7 63.7,106.7 63.7,123.3 
				80.9,123.3 			"/>
		</defs>
		<clipPath id="SVGID_00000048489809260075828740000003202380082055854782_">
			<use xlink:href="#SVGID_00000163043207617052684180000013539712467129720198_"  style="overflow:visible;"/>
		</clipPath>
		<g style="clip-path:url(#SVGID_00000048489809260075828740000003202380082055854782_);">
			<ellipse class="st8" cx="72.3" cy="115" rx="8.5" ry="8.3"/>
		</g>
	</g>
</g>
<path class="st9" d="M101,45L101,45c-27.2-0.1-49.2,12.6-49.2,51.8c0,9,0.7,18,2,27c1.3,7.9,3.2,15.5,5.8,23
	c8.8,24.7,24,40.1,41.5,40.1v0.1c17.2,0,32.2-14.9,41.1-39.1c3.6-10.1,6-20.6,7.2-31.3c0.7-6.5,1.1-13.1,1.1-19.6
	C150.3,57.7,128.2,45,101,45z"/>
<path class="st0" d="M51.8,122.2l-4.3-2.7c-0.4-0.3-0.7-0.6-1-1c-1.7-2.9-8.5-15.3-8.5-27.8c0-18.2,32.1-49.5,50.1-52.8
	c4.5-0.8,9.3,0.4,13,3.2c0.5,0.4,1.2,0.7,1.9,0.7c4.3-0.1,20.4-0.3,25.8,2c28.1,12.1,33.8,31.9,33,45.2c-0.8,9.6-3,19.1-6.8,28
	c-0.2,0.6-0.6,1-1.2,1.4l-3.1,2c-1.8,1.2-4.3,0-4.6-2.1l-2.3-17.5c-0.1-0.8-0.5-1.5-1.2-2l-12.3-9.1c-0.3-0.2-0.6-0.5-0.8-0.9
	c-1.4-2.4-7.1-12-6.8-12c0.2,0,1.2,4.5,1.9,7.8c0.4,1.9-1,3.6-2.9,3.6c-3.9,0-9.9-0.2-12.1-1.6c-1.3-0.9-3-4-4.1-6.5
	c-0.8-1.8-3.1-2.3-4.6-1.1c-3.3,2.7-8.3,6.8-10.5,8.1c-2.2,1.3-6,2.2-8.8,2.7c-1.9,0.3-3.7-1.3-3.5-3.3v0c0.3-3-3.6-4.5-5.4-2.1
	l-4.6,6.1c-0.1,0.2-0.3,0.4-0.5,0.5l-9,7.4c-0.6,0.5-1,1.3-1.1,2.1l-1.4,19.7C56.2,122.2,53.7,123.5,51.8,122.2z"/>
<path class="st10" d="M48.2,92.3c0,0,57.7-70.9,103.5,0c0,0-1.4-24.1-26.3-34.8c-11.7-5-25.4-5.2-37.7-1.2
	C52.9,67.8,48.2,92.3,48.2,92.3z"/>
<path class="st10" d="M100.3,54.6c0,0-2.6,9.8,0,10.2c2.6,0.4,8.5-0.9,7.7-5.1c-0.9-4.3-1.9-8.1-4.4-8.1S100.3,54.6,100.3,54.6z"/>
<path class="st10" d="M120.9,66.9l-16.3-3.5c-0.6-0.1-1.2-0.1-1.9,0l-16.4,3.2c-2.9,0.6-5.6-1.7-5.5-4.7l0.2-6.4
	c0.1-2.8,2.6-4.9,5.4-4.4l16.3,2.6c0.6,0.1,1.2,0.1,1.8-0.1l16.5-3.9c2.9-0.7,5.7,1.6,5.7,4.6l-0.2,8.2
	C126.4,65.4,123.7,67.5,120.9,66.9z"/>
</svg>
