<?xml version="1.0" encoding="utf-8"?>
<!-- Generator: Adobe Illustrator 26.0.2, SVG Export Plug-In . SVG Version: 6.00 Build 0)  -->
<svg version="1.1" id="Calque_9" xmlns="http://www.w3.org/2000/svg" xmlns:xlink="http://www.w3.org/1999/xlink" x="0px" y="0px"
	 viewBox="0 0 788 1005" style="enable-background:new 0 0 788 1005;" xml:space="preserve">
<style type="text/css">
	.st0{fill:#90573A;}
	.st1{fill:#6F412A;}
	.st2{fill:#60131D;}
	.st3{fill:#ED5875;}
</style>
<circle class="st0" cx="419.3" cy="192.5" r="17.6"/>
<path class="st1" d="M427.2,268.9l8.1-24.5c0,0,7.9-8.1,13.6-2.5c3.8,3.8-5.1,29-10,30C430.7,273.6,427.2,268.9,427.2,268.9z"/>
<path class="st1" d="M360.8,268.9l-8.1-24.5c0,0-7.9-8.1-13.6-2.5c-3.8,3.8,5.1,29,10,30C357.3,273.6,360.8,268.9,360.8,268.9z"/>
<path class="st0" d="M394.2,180.5L394.2,180.5c-23.9-0.1-43.2,11.1-43.2,45.5c0,7.9,0.6,15.8,1.8,23.7c1.1,6.9,2.8,13.6,5.1,20.2
	c7.7,21.7,21.1,35.3,36.4,35.3l0,0c15.1,0,28.3-13.1,36.1-34.3c3.2-8.9,5.3-18.1,6.3-27.5c0.6-5.7,1-11.5,1-17.2
	C437.5,191.7,418.1,180.5,394.2,180.5z"/>
<path class="st2" d="M420.4,191.7l-1.3,1.5c-2,2.3-1.8,5.8,0.4,7.9l11.8,11.5c0.7,0.7,1.1,1.6,1.2,2.6l0.9,28.8
	c0.1,2.6,3.4,3.5,4.9,1.4l3.7-5.4c0.7-1,2.3-10.7,3.7-19.6c1.5-9.5,0.1-19.3-4-28l-3.1-6.7c-0.1-0.2-0.2-0.4-0.3-0.5
	c-0.8-0.7-1.8-1.1-2.8-1.1H435c-2.8,0-5.5,0.8-7.8,2.3l-3.3,2.2C422.5,189.5,421.4,190.5,420.4,191.7z"/>
<path class="st2" d="M317.8,201.5c0,0-16.8,15.3-3.8,29.4c13,14,26.8,6,26.8,6s5.9,2.6,10.5,9.1c0.6,0.9,2.1,0.7,2.3-0.4
	c1.7-6.7-5.2-24.5,0.1-31.7c6.5-4.8,25-8.6,29.6-14.5c0,0,21.6-2.6,27.9-3.9s8.8-9.8,19.3-12.6c10.7-2.9-4.7-32-27.3-20.8
	c0,0,1.6-17-14-23c-15.6-5.9-24,6.7-24,6.7s-9.2-9.7-23.5-4.3s-13.9,20.3-13.9,20.3s-15.5,1.1-19.2,18
	C304.6,196.8,317.8,201.5,317.8,201.5z"/>
<path class="st3" d="M357.1,213l11.6-4.6c14.4-5.7,30.8-6,45.3-0.6l14.3,5.3c2.7,1,5.7,3.6,6.4,1l0.7-2.9c0.9-3.4-7.4-18.6-14.6-24
	c-5.1-3.8-11.1-6.2-17.5-7c-6-0.7-12-0.8-18-0.2c-5.7,0.5-11.1,2.5-15.9,5.6c-9,5.8-20.8,23.2-19.9,25.9l1.1,2.9
	C351.5,216.8,354.5,214,357.1,213z"/>
</svg>
