<?xml version="1.0" encoding="utf-8"?>
<!-- Generator: Adobe Illustrator 26.0.2, SVG Export Plug-In . SVG Version: 6.00 Build 0)  -->
<svg version="1.1" id="Calque_9" xmlns="http://www.w3.org/2000/svg" xmlns:xlink="http://www.w3.org/1999/xlink" x="0px" y="0px"
	 viewBox="0 0 788 1005" style="enable-background:new 0 0 788 1005;" xml:space="preserve">
<style type="text/css">
	.st0{fill:#60131D;}
	.st1{fill:#6F412A;}
	.st2{fill:#90573A;}
	.st3{fill:#E5B94C;}
</style>
<g>
	<path class="st0" d="M367.2,145.3c0,0-17.2-1.4-18.3,13s10.5,18,10.5,18s-11.6,13.7,1,21.1c12.6,7.4,19.2-3.3,19.4-7.7
		c0.2-4.3,20.9-11.8,24.2-19.9c0,0,10.8,21.5,14.7,24.4c3.9,2.9,15.1,3.9,18.6-3.7c3.5-7.7,0-15.9-4.1-18c0,0,10.3-7.9,5.6-19.7
		c-4.8-11.8-16.1-9.9-16.1-9.9s0.6-10.1-9.7-15.3s-18.5,2.7-18.5,2.7s-8.6-8.1-20-1.4C363.1,135.6,367.2,145.3,367.2,145.3z"/>
	<circle class="st0" cx="394.4" cy="222.1" r="50.6"/>
	<path class="st1" d="M439.4,272.4c-3,0.8-6.2,0.5-9-0.9c3.2-8.9,5.3-18.1,6.3-27.5c2.2-1.9,8.1-6.1,12.7-1.6
		C453.2,246.1,444.3,271.3,439.4,272.4z"/>
	<path class="st2" d="M394.3,181.2v-0.1c-23.9,0-43.2,11.2-43.2,45.6c0,7.9,0.6,15.8,1.8,23.7c1.1,6.9,2.8,13.6,5.1,20.2
		c7.7,21.7,21.1,35.2,36.4,35.2v0.1c15.1,0,28.3-13.1,36.1-34.3c3.2-8.9,5.3-18.1,6.3-27.5c0.6-5.7,1-11.5,1-17.2
		C437.6,192.4,418.3,181.2,394.3,181.2z"/>
	<path class="st1" d="M358,270.5c-1.7,1.3-5,3-10.6,1.8c-4.9-1-13.8-26.3-10-30c5.8-5.7,13.7,2.5,13.7,2.5l1.8,5.5
		C354,257.2,355.7,264,358,270.5z"/>
	<path class="st0" d="M351.1,244.8c0,0,3.5-21.4,26-40c22.5-18.6,52,9.9,52,9.9s5.4,45.6,7.7,29.4c2.1-15.1,3.6-27.5,3.6-27.5
		l-10-26.7l-19-10.9l-15.3-4.3l-24.4,6.4l-13.7,9.6l-10.4,22.2L351.1,244.8z"/>
	<path class="st3" d="M368.8,181.1c0,0,30.7-28.5,54.6,1.3c0,0-7.3-4.6-17.2-7.8c-4.7-1.5-10.1-1.5-14.9-0.4
		C377.4,177.6,368.8,181.1,368.8,181.1z"/>
</g>
</svg>
