<svg xmlns="http://www.w3.org/2000/svg" xmlns:xlink="http://www.w3.org/1999/xlink" viewBox="0 0 388 327.1"><defs><style>.cls-1{fill:none;}.cls-2{fill:#e78367;}.cls-3{fill:#b85d40;}.cls-4{fill:#ce6a52;}.cls-5{fill:#b55943;}.cls-6{clip-path:url(#clip-path);}.cls-7{fill:#625177;}.cls-8{clip-path:url(#clip-path-2);}</style><clipPath id="clip-path"><rect class="cls-1" x="89.78" y="38.27" width="86.42" height="270.28"/></clipPath><clipPath id="clip-path-2"><rect class="cls-1" x="176.2" y="38.27" width="86.42" height="270.28"/></clipPath></defs><g id="Calque_4" data-name="Calque 4"><path class="cls-2" d="M240.43,123l2.16,18.26-21.08,75.33h-92.1L106.89,141l2.64-18.74-17-36.82,51.25-20.58A20.34,20.34,0,0,0,156.48,46V33.19H195V45.72A20.32,20.32,0,0,0,208.27,64.8l51.37,18.94Z"/><path class="cls-3" d="M156.86,32.76h38.48V43.34h0c-8.64,11-14.34,15.83-20.89,15.77-4.94,0-12.67-9.72-17.67-13.57l.08-1.93Z"/></g><g id="Calque_3" data-name="Calque 3"><path class="cls-2" d="M240.43,123l2.16,18.26-21.08,75.33h-92.1L106.89,141l2.64-18.74-17-36.82,51.25-20.58A20.34,20.34,0,0,0,156.48,46V33.19H195V45.72A20.32,20.32,0,0,0,208.27,64.8l51.37,18.94Z"/><path class="cls-3" d="M156.86,32.76h38.48V43.34h0c-8.64,11-14.34,15.83-20.89,15.77-4.94,0-12.67-9.72-17.67-13.57l.08-1.93Z"/><path class="cls-4" d="M288.34,202.61v0h0l-12.24-99.09h0c-1.56-12.65-12.75-22.52-25-22s-20.9,11.13-19.33,23.78a5,5,0,0,0,.08.56s24.66,102,24.67,102c2.6,10.2,10.31,16.52,18,15.44C283.13,222,290.48,217.53,288.34,202.61Z"/><path class="cls-4" d="M282.24,196.64c-8.32-9-20.16-8.3-28.87.12-.19.18-3.71,4.31-3.71,4.31l-56.15,77.49s-5.29,5.47.69,11.62c5.37,5.51,11.32-.71,11.32-.71l69-55.68c8-6.43,14.52-14.47,14.12-25C288.48,204.5,284.84,199.45,282.24,196.64Z"/><path class="cls-4" d="M289.25,238.32l-.07-.11-.58.36-.14.08Z"/><path class="cls-5" d="M157,39.6h38.42v9.95h0c-8.63,10.31-14.32,14.88-20.85,14.83-4.94,0-12.65-9.15-17.64-12.76L157,49.8Z"/><g id="_Répétition_miroir_" data-name="&lt;Répétition miroir&gt;"><g class="cls-6"><path class="cls-7" d="M120.82,213.72c.36-33.84-31-132.23-31-132.23L153,53.77l.9-15.13,42.33-.37,10.59,15L260.85,74.5,227.49,177.9,185.64,308.55H96.42S120.56,238.09,120.82,213.72Z"/></g></g><g id="_Répétition_miroir_2" data-name="&lt;Répétition miroir&gt;"><g class="cls-8"><path class="cls-7" d="M231.59,213.72c-.37-33.84,31-132.23,31-132.23l-63.2-27.72-.89-15.13-42.34-.37-10.59,15-54,21.18,33.36,103.4,41.84,130.65H256S231.85,238.09,231.59,213.72Z"/></g></g><path class="cls-2" d="M109.16,201.21s0,0,0,0h0L74.68,111.41l0,0A23.46,23.46,0,0,1,86.84,81.76a20.81,20.81,0,0,1,28.07,11.88,4.56,4.56,0,0,1,.18.52l24.74,97.63c2.35,9.83-1.61,18.56-8.92,21C122.67,215.46,114.1,214.86,109.16,201.21Z"/><path class="cls-2" d="M110,195.14c-.26-13.27,8.76-22,20.93-22.51.26,0,5.68.33,5.68.33l94.59,14.31s7.64,0,7.6,9.26c0,8.35-8.66,8.33-8.66,8.33L141.42,217c-10.23,1.4-20.57.49-27.64-7.75C110.92,205.93,110,199.28,110,195.14Z"/><path class="cls-2" d="M135.19,224.8l0-.13q.33-.06.66-.15l.16,0Z"/><path class="cls-2" d="M229.52,188.72s-6,14.82-1,15.32l1.83.18,40.41,2.56,48.92-6.46L315.23,193l-7.34-2-34.22,2.31L262.1,186l20.56-14.23-3.86-6.62-20.69,9.16-17.74,4.24Z"/></g></svg>