<svg xmlns="http://www.w3.org/2000/svg" xmlns:xlink="http://www.w3.org/1999/xlink" viewBox="0 0 388 327.1"><defs><style>.cls-1{fill:none;}.cls-2{fill:#e78367;}.cls-3{fill:#b85d40;}.cls-4{fill:#b55943;}.cls-5{clip-path:url(#clip-path);}.cls-6{fill:#3a7b61;}.cls-7{clip-path:url(#clip-path-2);}</style><clipPath id="clip-path"><rect class="cls-1" x="91.53" y="38.27" width="84.68" height="270.28"/></clipPath><clipPath id="clip-path-2"><rect class="cls-1" x="176.2" y="38.27" width="84.68" height="270.28"/></clipPath></defs><g id="Calque_4" data-name="Calque 4"><path class="cls-2" d="M240.43,123l2.16,18.26-21.08,75.33h-92.1L106.89,141l2.64-18.74-17-36.82,51.25-20.58A20.34,20.34,0,0,0,156.48,46V33.19H195V45.72A20.32,20.32,0,0,0,208.27,64.8l51.37,18.94Z"/><path class="cls-3" d="M156.86,32.76h38.48V43.34h0c-8.64,11-14.34,15.83-20.89,15.77-4.94,0-12.67-9.72-17.67-13.57l.08-1.93Z"/></g><g id="Calque_3" data-name="Calque 3"><path class="cls-2" d="M89.48,201.71l0,0h0L124,111.9h0a23.47,23.47,0,0,0-12.13-29.63A20.81,20.81,0,0,0,83.74,94.14c-.07.17-.13.34-.19.52L58.82,192.29c-2.35,9.83,1.61,18.56,8.92,21C76,216,84.55,215.36,89.48,201.71Z"/><path class="cls-2" d="M88.7,195.64c.26-13.27-8.76-22-20.93-22.51-.26,0-5.68.33-5.68.33l-94.59,14.3s-7.64,0-7.61,9.27c0,8.35,8.67,8.33,8.67,8.33l88.66,12.15c10.23,1.41,20.58.5,27.64-7.74C87.73,206.43,88.62,199.78,88.7,195.64Z"/><path class="cls-2" d="M63.46,225.3l0-.13c-.22,0-.44-.09-.66-.15l-.16,0Z"/><path class="cls-2" d="M288.34,202.61v0h0l-12.24-99.09h0c-1.56-12.65-12.75-22.52-25-22s-20.9,11.13-19.33,23.78a5,5,0,0,0,.08.56s24.66,102,24.67,102c2.6,10.2,10.31,16.52,18,15.44C283.13,222,290.48,217.53,288.34,202.61Z"/><path class="cls-2" d="M282.24,196.64c-8.32-9-20.16-8.3-28.87.12-.19.18-3.71,4.31-3.71,4.31l-56.15,77.49s-5.29,5.47.69,11.62c5.37,5.51,11.32-.71,11.32-.71l69-55.68c8-6.43,14.52-14.47,14.12-25C288.48,204.5,284.84,199.45,282.24,196.64Z"/><path class="cls-2" d="M289.25,238.32l-.07-.11-.58.36-.14.08Z"/><path class="cls-2" d="M240.91,123.81,243.08,141,222,211.77H129.9l-22.53-71L110,123.13,93,88.52l51.24-19.34A19.16,19.16,0,0,0,157,51.44v-12h38.48V51.21c0,8,5.31,15.16,13.3,17.93l51.38,17.8Z"/><path class="cls-4" d="M157,39.6h38.42v9.95h0c-8.63,10.31-14.32,14.88-20.85,14.83-4.94,0-12.65-9.15-17.64-12.76L157,49.8Z"/><g id="_Répétition_miroir_" data-name="&lt;Répétition miroir&gt;"><g class="cls-5"><path class="cls-6" d="M122.25,213.72c.36-33.84-30.72-132.23-30.72-132.23l62.56-27.72L155,38.64l41.9-.37,10.49,15L260.85,74.5l-33,103.4L186.41,308.55H98.1S122,238.09,122.25,213.72Z"/></g></g><g id="_Répétition_miroir_2" data-name="&lt;Répétition miroir&gt;"><g class="cls-7"><path class="cls-6" d="M230.16,213.72c-.36-33.84,30.72-132.23,30.72-132.23L198.32,53.77l-.88-15.13-41.91-.37-10.48,15L91.56,74.5l33,103.4L166,308.55h88.31S230.42,238.09,230.16,213.72Z"/></g></g></g></svg>