<svg xmlns="http://www.w3.org/2000/svg" viewBox="0 0 388 327.1"><defs><style>.cls-1{fill:#e78367;}.cls-2{fill:#ffc145;}.cls-3{fill:#c35959;}.cls-4{fill:#b85d40;}.cls-5{fill:#4c56b4;}</style></defs><g id="Calque_4" data-name="Calque 4"><path class="cls-1" d="M240.43,123l2.16,18.26-21.08,75.33h-92.1L106.89,141l2.64-18.74-17-36.82,51.25-20.58A20.34,20.34,0,0,0,156.48,46V33.19H195V45.72A20.32,20.32,0,0,0,208.27,64.8l51.37,18.94Z"/></g><g id="Calque_3" data-name="Calque 3"><path class="cls-1" d="M108.54,129.27,65.3,209.7h0c-4.48,5.69-16.95,5.58-23,1.56h0a13.87,13.87,0,0,1-5.18-16.72l2.17-5.42s14.4-28.5,18.93-42.1c5.54-16.65,11.35-50.46,34.24-61.41l18.32-.39c10.4,5.18,18.73,18.46,13.12,28.64Z"/><path class="cls-1" d="M48.18,213.52h0a15.23,15.23,0,0,0,13.41-8.86,9.27,9.27,0,0,0,.73-1.59c1.68-9,3.48-24.95,1.59-34-4.39-20.94-24.13-83.54-24.13-83.54h0a8.89,8.89,0,0,0-11.3-4.4l-1,.38a8.88,8.88,0,0,0-5.42,10c.16.77.29,1.47.37,2,1.36,9.46,5.58,71,7.19,83.77.94,7.46,1.76,19.15,5.22,25.82C36.81,206.92,43.16,213.66,48.18,213.52Z"/><rect class="cls-2" x="23.26" y="113.62" width="28.4" height="10.59" transform="translate(-14.08 5.39) rotate(-6.93)"/><path class="cls-3" d="M240.67,140.22c0,14.3-19.29,41.29-33.59,41.29a25.89,25.89,0,0,1,0-51.77C221.38,129.74,240.67,125.92,240.67,140.22Z"/><circle class="cls-3" cx="175.49" cy="77.77" r="25.89"/><path class="cls-1" d="M246.38,129.27l-1.2,3.83-23.67,83.64h-92.1l-22.52-75.57,2.64-18.74-17-36.82L143.73,65a20.33,20.33,0,0,0,12.75-18.87V33.38H195V45.91A20.32,20.32,0,0,0,208.27,65l51.37,18.94Z"/><path class="cls-4" d="M156.56,33.37H195V44h0c-8.64,11-14.34,15.83-20.89,15.77-4.94,0-12.67-9.72-17.67-13.57l.08-1.93Z"/><path class="cls-5" d="M134.54,133l-24,55.35h0q1.61,13.77,2.19,27.59c1.75,41.38,0,38.87-11.89,78.49H247.63c-13.67-42.6-13.74-33.85-11.13-78.56q.8-13.67,2.62-27.28h0l-23.33-58L174.7,176.38Z"/><path class="cls-1" d="M286.91,211h0c4.48,5.69,17.55,7.24,23.58,3.23h0a13.87,13.87,0,0,0,5.18-16.72l-2.17-5.42s-18.29-39-22.82-52.57c-5.54-16.66-16.19-68.34-44.72-54.13h0c-10.4,5.18-6.39,37.51-.78,47.68Z"/><path class="cls-1" d="M304.43,216.52h0A15.24,15.24,0,0,1,291,207.65a9.08,9.08,0,0,1-.73-1.58c-1.68-9.06.47-27.75,2.36-36.76,4.4-20.95,24.14-83.55,24.14-83.55h0a8.9,8.9,0,0,1,11.29-4.4l1,.38a8.9,8.9,0,0,1,5.42,10.05c-.16.77-.29,1.47-.37,2-1.36,9.45-5.58,71-7.19,83.77-.94,7.45-5.72,21.94-9.18,28.61C315.8,209.92,309.45,216.65,304.43,216.52Z"/><path class="cls-1" d="M317.55,84.36s-1,15.94,3.86,14.85l1.79-.39,39.18-10.23,44.44-21.47L404.37,65A13.48,13.48,0,0,0,395,61.86h0a13.6,13.6,0,0,0-4.36,1l-23.41,9.51a20.71,20.71,0,0,1-12.82.92l-6.71-1.66,11.32-15a6.71,6.71,0,0,0-.92-9.09l-1.08-1L340.2,61.76l-8.33,5.14a32,32,0,0,0-11.24,11.84Z"/><path class="cls-1" d="M39.22,84.36s1,15.94-3.86,14.85l-1.79-.39L-5.61,88.59-50,67.12-47.59,65a13.44,13.44,0,0,1,9.41-3.18h0a13.6,13.6,0,0,1,4.36,1l23.42,9.51a20.67,20.67,0,0,0,12.81.92L9.12,71.6l-11.32-15a6.71,6.71,0,0,1,.92-9.09l1.08-1L16.57,61.76,24.9,66.9A31.93,31.93,0,0,1,36.14,78.74Z"/><path class="cls-5" d="M220.79,217.77H127.1c-15,0-27.11-46.56-27.11-61.54l13.82-82.09,42.91,41.23,17.86,18.3L195,112.05l39.63-39.79,16.94,83.13C251.61,170.36,235.77,217.77,220.79,217.77Z"/><path class="cls-2" d="M123.52,70.24c.52,3.2,41.38,52.86,51.45,51s51-52.21,51-52.21l8.69,3.2s-43.43,63.25-60.33,63.25c-17.47,0-60.53-61.37-60.53-61.37Z"/></g></svg>