<svg xmlns="http://www.w3.org/2000/svg" xmlns:xlink="http://www.w3.org/1999/xlink" viewBox="0 0 388 327.1"><defs><style>.cls-1{fill:none;}.cls-2{fill:#e78367;}.cls-3{fill:#b85d40;}.cls-4{fill:#b55943;}.cls-5{clip-path:url(#clip-path);}.cls-6{fill:#b7267d;}.cls-7{clip-path:url(#clip-path-2);}</style><clipPath id="clip-path"><rect class="cls-1" x="87.1" y="65.88" width="86.8" height="261.22"/></clipPath><clipPath id="clip-path-2"><rect class="cls-1" x="173.91" y="65.88" width="86.8" height="261.22"/></clipPath></defs><g id="Calque_4" data-name="Calque 4"><path class="cls-2" d="M240.43,123l2.16,18.26-21.08,75.33h-92.1L106.89,141l2.64-18.74-17-36.82,51.25-20.58A20.34,20.34,0,0,0,156.48,46V33.19H195V45.72A20.32,20.32,0,0,0,208.27,64.8l51.37,18.94Z"/><path class="cls-3" d="M156.86,32.76h38.48V43.34h0c-8.64,11-14.34,15.83-20.89,15.77-4.94,0-12.67-9.72-17.67-13.57l.08-1.93Z"/></g><g id="Calque_3" data-name="Calque 3"><path class="cls-2" d="M372.68,40.4l10.87-11.64,19-11.75s1.81,3.78,1.41,5c-1.29,3.94-6.72,8.18-10,11-.43.38-1.16,2.79-.9,3.27,1.05,2,6.05.93,6.05.93L385,45.1Z"/><path class="cls-2" d="M377.92,39.56l5.82,14.63,35-9.44,31-21.6s-4-3.22-5.69-3.33c-8.82-.58-24.27,10.32-32.55,13.31C402.51,36.36,377.92,39.56,377.92,39.56Z"/><ellipse class="cls-2" cx="380.05" cy="46.1" rx="9.69" ry="8.95" transform="translate(-2.66 36.35) rotate(-5.46)"/><path class="cls-2" d="M240.65,121.52l2.17,18.25L221.74,215.1h-92.1l-22.53-75.57,2.65-18.74L92.71,84,144,63.39a20.32,20.32,0,0,0,12.76-18.87V31.74h38.48V44.27a20.33,20.33,0,0,0,13.3,19.08l51.38,18.94Z"/><path class="cls-2" d="M353.63,123.07l3.5,2a12.73,12.73,0,0,1,5,17.05h0A14,14,0,0,1,346.42,149l-5.54-1.4S218.51,125.44,229.13,97.07h0C233,86.73,245,77.36,255.57,81.4Z"/><path class="cls-2" d="M100,158.79l-33.2,48.88L64.21,211a13.89,13.89,0,0,1-18.61,3h0a13.89,13.89,0,0,1-5.18-16.72l2.17-5.42s18.3-39,22.82-52.57c5.54-16.66,16.2-68.34,44.72-54.13h0c10.4,5.18,18.72,18.46,13.11,28.64Z"/><path class="cls-4" d="M156.77,31.92h38.42V42.51h0c-8.63,11-14.32,15.83-20.85,15.77-4.94,0-12.65-9.72-17.64-13.57l.07-1.93Z"/><path class="cls-2" d="M346,148.45h0a17.28,17.28,0,0,0,15.22-2.92,9.7,9.7,0,0,0,1.27-1c5.14-6.38,10.89-21.16,12.92-28.52,4.72-17.11,13.1-70.12,13.1-70.12h0c0-3.76-3.53-6.61-8-6.52h-1c-4.12.08-7.82,2.64-8.78,6.08-.18.63-.35,1.2-.5,1.63-2.67,7.55-24.08,55.39-27.87,65.5-2.22,5.92-4,18.24-3.71,24.27C338.88,140.24,341.63,147.14,346,148.45Z"/><g id="_Répétition_miroir_" data-name="&lt;Répétition miroir&gt;"><g class="cls-5"><path class="cls-6" d="M121.13,215.1c.5-34.72-34-134.66-34-134.66l19.11-8.58,13.18-6L176.29,106l13.37-20.57,47.63,21.06-11.76,82.6-50.92,138-57.61-30a23.11,23.11,0,0,1-11.82-25.77S120.92,229.7,121.13,215.1Z"/></g></g><g id="_Répétition_miroir_2" data-name="&lt;Répétition miroir&gt;"><g class="cls-7"><path class="cls-6" d="M226.69,215.1c-.51-34.72,34-134.66,34-134.66L241.6,71.86l-13.18-6L171.53,106,158.16,85.43l-47.64,21.06,11.76,82.6,50.92,138,57.61-30a23.12,23.12,0,0,0,11.83-25.77S226.9,229.7,226.69,215.1Z"/></g></g><path class="cls-2" d="M159.23,166.34s-15.09-5.22-12.2-9.3l1.06-1.5,24.59-32.18,37-32.67,2.59,8.17-3.31,6.85L184.75,130l-2.11,13.51,24.23-6.18,2.46,7.26-20.49,9.59L174,164.8Z"/><path class="cls-2" d="M41,205h0a15.24,15.24,0,0,0,11.37,11.37,9,9,0,0,0,1.69.4c9.21-.16,27.1-6,35.55-9.66,19.65-8.48,77.05-40.33,77.05-40.33h0a8.89,8.89,0,0,0,2.06-11.94l-.57-.87a8.9,8.9,0,0,0-10.93-3.31c-.72.31-1.38.58-1.89.76-9,3.23-68.49,19.65-80.65,23.78-7.11,2.41-20.36,10-26.21,14.7C45.19,192.56,39.86,200.12,41,205Z"/></g></svg>