<?xml version="1.0" encoding="utf-8"?>
<!-- Generator: Adobe Illustrator 26.0.1, SVG Export Plug-In . SVG Version: 6.00 Build 0)  -->
<svg version="1.1" id="Calque_1" xmlns="http://www.w3.org/2000/svg" xmlns:xlink="http://www.w3.org/1999/xlink" x="0px" y="0px"
	 viewBox="0 0 788 1005.1" style="enable-background:new 0 0 788 1005.1;" xml:space="preserve">
<style type="text/css">
	.st0{fill:#E78367;}
	.st1{fill:#B85D40;}
	.st2{fill:#CE6A52;}
	.st3{fill:#B55943;}
	.st4{clip-path:url(#SVGID_00000135650644858829327180000006855289816188511678_);}
	.st5{fill:#625177;}
	.st6{clip-path:url(#SVGID_00000044868748320120135500000003096634684814173625_);}
</style>
<g id="Calque_4">
	<path class="st0" d="M440.4,283.9l2.2,18.2l-21.1,75.3h-92.1l-22.5-75.6l2.6-18.7l-17-36.8l51.2-20.6c7.7-3.1,12.8-10.6,12.8-18.9
		v-12.8H395v12.5c0,8.5,5.3,16.1,13.3,19.1l51.4,18.9L440.4,283.9z"/>
	<path class="st1" d="M356.9,193.7h38.5v10.6l0,0c-8.6,11-14.3,15.8-20.9,15.8c-4.9,0-12.7-9.7-17.7-13.6l0.1-1.9V193.7z"/>
</g>
<path class="st0" d="M440.4,283.9l2.2,18.2l-21.1,75.3h-92.1l-22.5-75.6l2.6-18.7l-17-36.8l51.2-20.6c7.7-3.1,12.8-10.6,12.8-18.9
	v-12.8H395v12.5c0,8.5,5.3,16.1,13.3,19.1l51.4,18.9L440.4,283.9z"/>
<path class="st1" d="M356.9,193.7h38.5v10.6l0,0c-8.6,11-14.3,15.8-20.9,15.8c-4.9,0-12.7-9.7-17.7-13.6l0.1-1.9V193.7z"/>
<path class="st2" d="M488.3,363.5L488.3,363.5L488.3,363.5l-12.2-99.1l0,0c-1.6-12.6-12.8-22.5-25-22.1s-20.9,11.1-19.3,23.8
	c0,0.2,0,0.4,0.1,0.6c0,0,24.7,102,24.7,102c2.6,10.2,10.3,16.5,18,15.4C483.1,382.9,490.5,378.5,488.3,363.5z"/>
<path class="st2" d="M482.2,357.6c-8.3-9-20.2-8.3-28.9,0.1c-0.2,0.2-3.7,4.3-3.7,4.3l-56.1,77.5c0,0-5.3,5.5,0.7,11.6
	c5.4,5.5,11.3-0.7,11.3-0.7l69-55.7c8-6.4,14.5-14.5,14.1-25C488.5,365.4,484.8,360.4,482.2,357.6z"/>
<path class="st2" d="M489.2,399.2l-0.1-0.1c-0.2,0.1-0.4,0.2-0.6,0.4l-0.1,0.1L489.2,399.2z"/>
<path class="st3" d="M357,200.5h38.4v9.9l0,0c-8.6,10.3-14.3,14.9-20.9,14.8c-4.9,0-12.6-9.1-17.6-12.8l0.1-1.8V200.5z"/>
<g id="_Repetition_miroir_">
	<g>
		<defs>
			<rect id="SVGID_1_" x="289.8" y="199.2" width="86.4" height="270.3"/>
		</defs>
		<clipPath id="SVGID_00000175310359815641635690000017997989939376587684_">
			<use xlink:href="#SVGID_1_"  style="overflow:visible;"/>
		</clipPath>
		<g style="clip-path:url(#SVGID_00000175310359815641635690000017997989939376587684_);">
			<path class="st5" d="M320.8,374.6c0.4-33.8-31-132.2-31-132.2l63.2-27.7l0.9-15.1l42.3-0.4l10.6,15l54,21.2l-33.4,103.4
				l-41.8,130.6h-89.2C296.4,469.5,320.6,399,320.8,374.6z"/>
		</g>
	</g>
</g>
<g id="_Repetition_miroir_2">
	<g>
		<defs>
			<rect id="SVGID_00000132790941240685373610000000946866611456036234_" x="376.2" y="199.2" width="86.4" height="270.3"/>
		</defs>
		<clipPath id="SVGID_00000014621028425628721060000016046690481860825475_">
			<use xlink:href="#SVGID_00000132790941240685373610000000946866611456036234_"  style="overflow:visible;"/>
		</clipPath>
		<g style="clip-path:url(#SVGID_00000014621028425628721060000016046690481860825475_);">
			<path class="st5" d="M431.6,374.6c-0.4-33.8,31-132.2,31-132.2l-63.2-27.7l-0.9-15.1l-42.3-0.4l-10.6,15l-54,21.2l33.4,103.4
				l41.8,130.6H456C456,469.4,431.9,399,431.6,374.6z"/>
		</g>
	</g>
</g>
<path class="st0" d="M309.2,362.1L309.2,362.1L309.2,362.1l-34.5-89.8l0,0c-4.4-11.5,0.9-24.5,12.1-29.6c10.5-4.7,22.8,0,27.5,10.5
	c0.2,0.4,0.4,0.9,0.6,1.4c0.1,0.2,0.1,0.3,0.2,0.5c0,0,24.7,97.6,24.7,97.6c2.4,9.8-1.6,18.5-8.9,21
	C322.7,376.4,314.1,375.8,309.2,362.1z"/>
<path class="st0" d="M335.2,385.7v-0.1l0.7-0.1h0.2L335.2,385.7z"/>
<path class="st0" d="M429.5,349.6c0,0-6,14.8-1,15.3l1.8,0.2l40.4,2.6l48.9-6.5l-4.5-7.3l-7.3-2l-34.2,2.3l-11.6-7.2l20.6-14.2
	l-3.9-6.6l-20.7,9.2l-17.7,4.2L429.5,349.6z"/>
<path class="st5" d="M356.9,235c3.1-7-1.1-36.2,9.1-36s14-1,17,2s19,55,19,55l3.5,194.4V461c0,0-60.5,8.5-60.5,0
	C345,452.6,356.9,235,356.9,235z"/>
<path class="st0" d="M310,356.1c-0.3-13.3,8.8-22,20.9-22.5c0.3,0,5.7,0.3,5.7,0.3l94.6,14.3c0,0,7.6,0,7.6,9.3
	c0,8.3-8.7,8.3-8.7,8.3l-88.7,12.2c-10.2,1.4-20.6,0.5-27.6-7.7C310.9,366.9,310,360.2,310,356.1z"/>
</svg>
