<svg xmlns="http://www.w3.org/2000/svg" viewBox="0 0 788 1005.07"><defs><style>.cls-1{fill:#e78367;}.cls-2{fill:#b85d40;}.cls-3{fill:none;}.cls-4{fill:#968031;}</style></defs><g id="Calque_4" data-name="Calque 4"><path class="cls-1" d="M440.43,283.89l2.16,18.25-21.08,75.33h-92.1L306.89,301.9l2.64-18.73-17-36.82,51.25-20.58a20.35,20.35,0,0,0,12.75-18.88V194.11H395v12.53a20.35,20.35,0,0,0,13.31,19.09l51.37,18.93Z"/><path class="cls-2" d="M356.86,193.68h38.48v10.59h0c-8.64,11-14.34,15.82-20.89,15.77-4.94,0-12.67-9.73-17.67-13.57l.08-1.94Z"/></g><g id="Calque_3" data-name="Calque 3"><polygon points="212.74 476.9 212.84 476.86 212.74 476.81 212.74 476.9"/><polygon points="212.84 476.86 212.93 476.9 212.93 476.81 212.84 476.86"/><polygon points="212.74 476.9 212.84 476.86 212.74 476.81 212.74 476.9"/><polygon points="212.84 476.86 212.93 476.9 212.93 476.81 212.84 476.86"/><path class="cls-3" d="M409.22,387.7c15.55,5.29,22.33,9.75,26,16.78,3,5.69,5.82,18.72,6,25.22.52,15.26-7.48,53.62-21.11,66.42-13.86,13-81.63,13-95.49,0-13.63-12.8-21.64-51.16-21.12-66.42.23-6.5,3.05-19.53,6-25.22,3.7-7,10.48-11.49,26-16.78,17.79-6.05,35.9-5.09,35.9-5.09S391.42,381.65,409.22,387.7Z"/><polygon points="212.38 477.24 212.47 477.2 212.38 477.14 212.38 477.24"/><polygon points="212.47 477.2 212.57 477.24 212.57 477.14 212.47 477.2"/><polygon points="212.38 477.24 212.47 477.2 212.38 477.14 212.38 477.24"/><polygon points="212.47 477.2 212.57 477.24 212.57 477.14 212.47 477.2"/><polygon points="204.64 477.25 204.73 477.2 204.64 477.15 204.64 477.25"/><polygon points="204.73 477.2 204.83 477.25 204.83 477.15 204.73 477.2"/><polygon points="204.64 477.25 204.73 477.2 204.64 477.15 204.64 477.25"/><polygon points="204.73 477.2 204.83 477.25 204.83 477.15 204.73 477.2"/><path class="cls-1" d="M128,268.69,114.26,258l-22.81-9.58s-1.44,4.24-.8,5.49c2,4,8.67,7.63,12.67,10.15.53.34,1.71,2.76,1.5,3.31-.87,2.24-6.55,1.85-6.55,1.85l16.92,6.18Z"/><path class="cls-1" d="M122.11,268.58l-4.21,16.24L77.81,280,40.33,261.78s3.94-4,5.79-4.34c9.65-1.89,28.37,7.32,38,9.26C94.47,268.79,122.11,268.58,122.11,268.58Z"/><ellipse class="cls-1" cx="120.75" cy="275.77" rx="10.8" ry="9.5" transform="translate(-8.73 3.99) rotate(-1.83)"/><polygon points="216.13 500.02 216.23 499.98 216.13 499.94 216.13 500.02"/><polygon points="216.23 499.98 216.32 500.02 216.32 499.94 216.23 499.98"/><polygon points="216.13 500.02 216.23 499.98 216.13 499.94 216.13 500.02"/><polygon points="216.23 499.98 216.32 500.02 216.32 499.94 216.23 499.98"/><path class="cls-3" d="M412.61,415.25c15.55,5,22.33,9.26,26,15.94,3,5.41,5.81,17.79,6,24,.52,14.5-7.48,51-21.11,63.13-13.87,12.38-81.63,12.38-95.5,0-13.63-12.16-21.63-48.63-21.11-63.13.23-6.18,3.05-18.56,6-24,3.7-6.68,10.48-10.92,26-15.94,17.8-5.76,35.91-4.85,35.91-4.85S394.81,409.49,412.61,415.25Z"/><path class="cls-1" d="M437.94,336.13l-10.11-5.45S408.16,308.82,407.29,308s-15.61-13.22-16.62-14.23-8.24-10.5-8.24-10.5l-4.59,9.24,7.53,10.94,9,8.91-22.79-4.26s-34.34-10-34.92-8.84-1.42,7.79-.26,8.36,33.48,10.86,33.48,10.86-41-5.65-41.25-3.63S328,324,329.77,324s36.63,3.64,36.63,3.64-37.17,2.71-36.59,3.86,2.85,8.09,2.85,8.09L369,338.34l-25.64,8.44s4.35,7.19,5.5,7.19,29.39-8.16,29.39-8.16,28.53,3,30,2.23c4.23-2.12,13.85,4,13.85,4Z"/><path class="cls-3" d="M413.62,415.25c15.55,5,22.33,9.26,26,15.94,3,5.41,5.82,17.79,6,24,.52,14.5-7.48,51-21.11,63.13-13.86,12.38-81.63,12.38-95.49,0-13.63-12.16-21.64-48.63-21.12-63.13.23-6.18,3-18.56,6-24,3.7-6.68,10.48-10.92,26-15.94,17.8-5.76,35.9-4.85,35.9-4.85S395.82,409.49,413.62,415.25Z"/><path class="cls-1" d="M501.6,359.08l2.85,2.88a12.72,12.72,0,0,0,17.76.53h0a14,14,0,0,0,2.63-16.93l-2.74-5S471.32,224.48,445,245.21h0c-9,6.36-15.05,20.35-8.47,29.55Z"/><path class="cls-1" d="M278.35,321.36,232,358l-3.45,2.35a13.89,13.89,0,0,1-18.64-2.76h0a13.9,13.9,0,0,1,.09-17.51l3.7-4.51s29.17-31.67,37.57-43.27c10.3-14.22,38.05-67.69,58.94-38.17h0c8.36,8.07,12.3,23.24,3.89,31.26Z"/><path class="cls-1" d="M227.46,360.58h0A15.22,15.22,0,0,0,231.57,345a8.81,8.81,0,0,0-.51-1.67c-4.77-7.88-18.82-20.39-26.23-25.86-17.22-12.71-73.62-46.29-73.62-46.29h0a8.88,8.88,0,0,0-11.36,4.23l-.46.93a8.87,8.87,0,0,0,2.64,11.1c.63.47,1.19.9,1.61,1.25,7.31,6.15,51.44,49.3,61.12,57.74,5.67,4.93,18.87,12.57,25.89,15.25C214.59,363.22,223.81,364,227.46,360.58Z"/><path class="cls-4" d="M316.13,235.28l-23.92,8.86,14.06,59.63,17.46,74.65s-18.15,48.92-21.85,65.87c-2.05,9.46-9.06,33.65-9.67,48.77-.29,7.16,10.93,13.24,18.08,13.7l64.18,4.1h58.95c9.51,0,29.94-5.45,29.28-14.94-1.13-16.26-15.16-50-21.41-66.22-4.73-12.29-3.35-44-3.35-44l4.47-83.55,3-25.75L449.53,240l-26.57-9"/><path class="cls-1" d="M526.36,355.57h0A17.26,17.26,0,0,1,517,367.94a9.77,9.77,0,0,1-1.45.71c-8,1.8-23.79.44-31.3-1-17.43-3.3-68.71-19.16-68.71-19.16l-7.79-1.88c-3.35-1.7,3.42-4.2,5.46-8.16l.45-.89c1.88-3.65,1.15-8.91,4.22-7.08a12.77,12.77,0,0,0,6.79,2.15c7.95.94,60.33,2.82,71.08,3.88,6.28.62,18.13,4.47,23.42,7.38C522.15,345.53,527.13,351,526.36,355.57Z"/><path class="cls-1" d="M417.9,330.49l-13.76-10.66-22.82-9.58s-1.43,4.23-.79,5.49c2,4,8.66,7.63,12.66,10.15.53.33,1.71,2.76,1.5,3.31-.87,2.24-6.54,1.85-6.54,1.85l16.91,6.18Z"/><path class="cls-1" d="M412,330.38l-4.21,16.24-40.08-4.83-37.48-18.21s3.93-4,5.78-4.34c9.66-1.89,28.38,7.32,38,9.26C384.34,330.59,412,330.38,412,330.38Z"/><ellipse class="cls-1" cx="410.63" cy="337.57" rx="10.8" ry="9.5" transform="translate(-10.55 13.26) rotate(-1.83)"/></g></svg>