<svg xmlns="http://www.w3.org/2000/svg" xmlns:xlink="http://www.w3.org/1999/xlink" viewBox="0 0 788 1005"><defs><style>.cls-1{fill:none;}.cls-2{fill:#b26959;}.cls-3{fill:#904c3d;}.cls-4{clip-path:url(#clip-path);}.cls-5{fill:#fbfbfb;stroke:#7fadd5;stroke-miterlimit:10;stroke-width:0.25px;}.cls-6{clip-path:url(#clip-path-2);}</style><clipPath id="clip-path"><rect class="cls-1" x="310.61" y="195.13" width="90.33" height="271.67"/></clipPath><clipPath id="clip-path-2"><rect class="cls-1" x="400.94" y="195.13" width="90.33" height="271.67"/></clipPath></defs><g id="Calque_3" data-name="Calque 3"><path class="cls-1" d="M440,398.91c16.27,4.84,23.42,9.08,27.42,15.93,3.24,5.54,6.47,18.33,6.85,24.74.9,15.05-6.53,53.11-20.38,66.08-14.1,13.19-84.48,14.83-99.17,2.32-14.45-12.3-23.65-50-23.46-65.05.08-6.42,2.71-19.35,5.69-25,3.67-7,10.61-11.59,26.64-17.19,18.35-6.41,37.17-5.9,37.17-5.9S421.35,393.37,440,398.91Z"/><path class="cls-2" d="M607.42,168.8l11.29-12.09,19.78-12.2s1.88,3.92,1.46,5.22c-1.33,4.09-7,8.49-10.34,11.45-.45.39-1.21,2.89-.94,3.4,1.1,2.06,6.28.95,6.28.95l-14.79,8.16Z"/><path class="cls-2" d="M612.87,167.93l6,15.2,36.34-9.81,32.17-22.43s-4.16-3.35-5.91-3.47c-9.16-.6-25.22,10.72-33.82,13.83C638.4,164.6,612.87,167.93,612.87,167.93Z"/><ellipse class="cls-2" cx="615.07" cy="174.72" rx="10.06" ry="9.29" transform="translate(-13.83 59.28) rotate(-5.46)"/><path class="cls-2" d="M470.27,253.06l1.19,18.56-20.84,78.65H355l-23.4-78.5,2.75-19.46-17.71-38.25,53.23-21.37a21.13,21.13,0,0,0,13.25-19.61V159.8h40v13a21.14,21.14,0,0,0,13.83,19.83l53.36,19.66Z"/><path class="cls-2" d="M587.63,254.68l3.63,2.11a13.22,13.22,0,0,1,5.21,17.71h0a14.52,14.52,0,0,1-16.33,7.1l-5.75-1.45s-127.12-23-116.09-52.48h0c4-10.75,16.5-20.47,27.47-16.27Z"/><path class="cls-2" d="M324.16,291.78l-34.49,50.78L287,346a14.42,14.42,0,0,1-19.32,3.08h0a14.43,14.43,0,0,1-5.39-17.37l2.26-5.63s19-40.49,23.7-54.61c5.76-17.3,16.83-71,46.46-56.23h0c10.8,5.38,19.45,19.18,13.62,29.75Z"/><path class="cls-3" d="M383.14,160H423v11h0c-9,11.39-14.87,16.43-21.66,16.38-5.12,0-13.13-10.11-18.32-14.1l.08-2Z"/><path class="cls-2" d="M579.74,281h0a17.94,17.94,0,0,0,15.81-3,9.41,9.41,0,0,0,1.33-1c5.34-6.63,11.31-22,13.42-29.63,4.9-17.77,13.61-72.84,13.61-72.84h0c0-3.9-3.67-6.86-8.3-6.77l-1,0c-4.27.07-8.12,2.74-9.12,6.31-.18.65-.36,1.24-.52,1.69-2.77,7.84-25,57.54-29,68-2.3,6.15-4.13,19-3.84,25.22C572.31,272.52,575.17,279.68,579.74,281Z"/><g id="random" data-name="&lt;Répétition miroir&gt;"><g class="cls-4"><path class="cls-5" d="M346.11,350.27c.53-36.06-35.34-139.87-35.34-139.87l19.85-8.92,13.69-6.21L403.41,237l13.89-21.38,49.48,21.89-12.22,85.8L401.67,466.62l-59.85-31.19a24,24,0,0,1-12.28-26.77S345.89,365.44,346.11,350.27Z"/></g></g><g id="random2" data-name="&lt;Répétition miroir&gt;"><g class="cls-6"><path class="cls-5" d="M455.76,350.27c-.52-36.06,35.35-139.87,35.35-139.87l-19.85-8.92-13.69-6.21L398.47,237l-13.89-21.38-49.49,21.89,12.22,85.8,52.9,143.36,59.84-31.19a24,24,0,0,0,12.28-26.77S456,365.44,455.76,350.27Z"/></g></g><path class="cls-2" d="M262.87,339.79h0a15.82,15.82,0,0,0,11.8,11.82,9.39,9.39,0,0,0,1.77.41c9.56-.17,28.14-6.24,36.93-10,20.4-8.82,80-41.9,80-41.9h0a9.23,9.23,0,0,0,2.14-12.4l-.6-.91a9.22,9.22,0,0,0-11.34-3.43c-.75.32-1.44.6-2,.79-9.34,3.35-71.14,20.41-83.78,24.69-7.39,2.51-21.15,10.38-27.22,15.28C267.23,326.86,261.69,334.71,262.87,339.79Z"/><path class="cls-2" d="M391.49,299.48l16.44,1.78,22.94-3.7s-1.13-4.2-2.3-4.91c-3.69-2.22-10.84-1.86-15.31-1.9-.6,0-2.81-1.4-2.94-2-.51-2.28,4.13-4.83,4.13-4.83l-16.52,3.5Z"/><path class="cls-2" d="M396.17,296.58l-5.36-15.45,33.92-16.33,39-4.05s-1,5.25-2.21,6.48c-6.54,6.44-26.08,8.37-34.63,11.65C417.67,282.41,396.17,296.58,396.17,296.58Z"/><ellipse class="cls-2" cx="393.4" cy="290" rx="10.06" ry="9.29" transform="translate(-95.26 281.19) rotate(-35.36)"/></g></svg>