<?xml version="1.0" encoding="utf-8"?>
<!-- Generator: Adobe Illustrator 26.0.1, SVG Export Plug-In . SVG Version: 6.00 Build 0)  -->
<svg version="1.1" id="Calque_1" xmlns="http://www.w3.org/2000/svg" xmlns:xlink="http://www.w3.org/1999/xlink" x="0px" y="0px"
	 viewBox="0 0 788 1005.1" style="enable-background:new 0 0 788 1005.1;" xml:space="preserve">
<style type="text/css">
	.st0{fill:#E78367;}
	.st1{fill:#B85D40;}
	.st2{fill:#FFC145;}
	.st3{fill:#3C3D4E;}
	.st4{fill:#C35959;}
	.st5{fill:#1A1818;}
	.st6{fill:#BAA535;}
	.st7{fill:#4F626C;}
</style>
<g id="Calque_4">
	<path class="st0" d="M440.4,283.9l2.2,18.2l-21.1,75.3h-92.1l-22.5-75.6l2.6-18.7l-17-36.8l51.2-20.6c7.7-3.1,12.8-10.6,12.8-18.9
		v-12.8H395v12.5c0,8.5,5.3,16.1,13.3,19.1l51.4,18.9L440.4,283.9z"/>
	<path class="st1" d="M356.9,193.7h38.5v10.6l0,0c-8.6,11-14.3,15.8-20.9,15.8c-4.9,0-12.7-9.7-17.7-13.6l0.1-1.9V193.7z"/>
</g>
<g id="Calque_3">
	<path class="st0" d="M300.5,319.8l-33.2,48.9l-2.6,3.3c-4.5,5.7-12.6,7-18.6,3l0,0c-5.5-3.6-7.6-10.6-5.2-16.7l2.2-5.4
		c0,0,18.3-39,22.8-52.6c5.5-16.7,16.2-68.3,44.7-54.1l0,0c10.4,5.2,18.7,18.5,13.1,28.6L300.5,319.8z"/>
	<path class="st0" d="M252.1,377.2L252.1,377.2c5.8-0.2,11-3.6,13.4-8.9c0.3-0.5,0.5-1,0.7-1.6c1.7-9.1-0.5-27.8-2.4-36.8
		c-4.4-21-24.1-83.6-24.1-83.6l0,0c-2-4.2-7-6.1-11.3-4.4l-1,0.4c-4,1.6-6.3,5.8-5.4,10c0.2,0.8,0.3,1.5,0.4,2
		c1.4,9.4,5.6,71,7.2,83.8c0.9,7.5,5.7,21.9,9.2,28.6C240.8,370.6,247.1,377.4,252.1,377.2z"/>
	<path class="st0" d="M239,245.1c0,0,1,15.9-3.9,14.9l-1.8-0.4l-39.2-10.2l-44.4-21.5l6.5-5.5l7.6,0.4l31.8,12.9l13.3-3.3
		l-15.1-19.9l5.7-5.1l16.8,15.2l15.5,9.6L239,245.1z"/>
	
		<rect x="223.3" y="274.6" transform="matrix(0.9927 -0.1207 0.1207 0.9927 -32.0322 30.6945)" class="st2" width="28.4" height="10.6"/>
	<polygon class="st3" points="215.6,510.3 215.7,510.3 215.6,510.2 	"/>
	<polygon class="st3" points="215.7,510.3 215.8,510.3 215.8,510.2 	"/>
	<polygon class="st3" points="215.6,510.3 215.7,510.3 215.6,510.2 	"/>
	<polygon class="st3" points="215.7,510.3 215.8,510.3 215.8,510.2 	"/>
	<polygon class="st3" points="215.2,510.7 215.3,510.6 215.2,510.6 	"/>
	<polygon class="st3" points="215.3,510.6 215.4,510.7 215.4,510.6 	"/>
	<polygon class="st3" points="215.2,510.7 215.3,510.6 215.2,510.6 	"/>
	<polygon class="st3" points="215.3,510.6 215.4,510.7 215.4,510.6 	"/>
	<polygon points="217,510.6 217.1,510.6 217,510.6 	"/>
	<polygon points="217.1,510.6 217.1,510.6 217.1,510.6 	"/>
	<polygon points="217,510.6 217.1,510.6 217,510.6 	"/>
	<path class="st4" d="M440.7,301.1c0,14.3-19.3,41.3-33.6,41.3c-14.3-0.3-25.7-12.1-25.4-26.4c0.3-13.9,11.5-25.1,25.4-25.4
		C421.4,290.7,440.7,286.9,440.7,301.1z"/>
	<circle class="st4" cx="375.5" cy="238.7" r="25.9"/>
	<polygon class="st5" points="216.6,501.1 216.5,501.1 216.5,501 	"/>
	<polygon points="216.7,501 216.7,501.1 216.6,501.1 	"/>
	<polygon class="st5" points="216.6,501.1 216.5,501.1 216.5,501 	"/>
	<polygon points="216.7,501 216.7,501.1 216.6,501.1 	"/>
	<path class="st0" d="M459.6,244.9l-17,57.5l-21.1,75.3h-92.1l-22.5-75.6l2.6-18.7l-17-36.8l51.2-20.5c7.7-3.1,12.7-10.6,12.8-18.9
		v-12.8H395v12.5c0,8.5,5.3,16.1,13.3,19.1L459.6,244.9L459.6,244.9z"/>
	<path class="st1" d="M356.6,194.3H395v10.6l0,0c-8.6,11-14.3,15.8-20.9,15.8c-4.9,0-12.7-9.7-17.7-13.6l0.1-1.9L356.6,194.3z"/>
	<path class="st6" d="M374.9,379.7H421c0,0,20.9,57.8,21,62.8s-68.3,67.5-67.3,70c1,2.5-6.4-4.3-6.4-5S374.9,379.7,374.9,379.7z"/>
	<path class="st6" d="M373.9,379.7h-46.1c0,0-20.9,57.8-21,62.8s56.3,67.5,55.3,70c-1,2.5,6.4-4.3,6.4-5S373.9,379.7,373.9,379.7z"
		/>
	<path class="st7" d="M342.5,224.3L305.9,300c0,0.1,0,0.2,0,0.3l0.1,0.6c5.2,41.7-31.7,222.2-31.7,222.2c-1.4,4.5,0.9,9.3,5.4,11
		l31.9,10.8c49.5,16.8,103.1,17.9,153.1,2.7c9.2-2.8,15.2-5.3,15.2-6.9c1-49-27.5-138.3-29.9-145.4l-15.5,6.6
		c-14.4-42.5,0.8-56.2,7-100.6l0.1-0.6c0-0.1-0.1,0.7-0.1,0.6l-34-76.8c-0.1-0.2-0.3-0.3-0.6-0.3l-31.7,7.6c-0.1,0-0.2,0-0.2,0
		l-31.8-7.6C342.9,224,342.6,224.1,342.5,224.3z"/>
	<path class="st0" d="M462.7,319l38.8,44.5l3,3c5.1,5.1,13.3,5.4,18.8,0.7l0,0c5-4.3,6.3-11.5,3.1-17.2l-2.8-5.1
		c0,0-22.9-36.5-29-49.4c-7.5-15.9-24.3-65.9-50.9-48.4l0,0c-9.7,6.4-16.4,20.6-9.6,30L462.7,319z"/>
	<polygon class="st3" points="365.9,334.2 414.9,454.4 512.5,413.4 475.7,289.4 	"/>
	<path class="st0" d="M524.8,348.4L524.8,348.4c2.1,5.1,1.6,10.8-1.2,15.5c-0.2,0.5-0.5,0.9-0.8,1.4c-5.8,5.8-19.8,13.2-26.9,16.1
		c-16.5,6.6-68.2,21-68.2,21l0,0c-3.7,0.4-7-2.8-7.4-7.2l-0.1-1c-0.4-4.1,1.7-8.1,5-9.4c0.6-0.2,1.1-0.5,1.5-0.7
		c7.2-3.5,52.3-30.2,61.9-35.1c5.6-2.9,17.7-6,23.7-6.4C515.9,342.2,523,344.2,524.8,348.4z"/>
	<polygon class="st0" points="422.5,386.2 405.2,378 386.9,376.6 390.4,383.3 399,385.7 403.1,390.1 392.3,392.2 390.7,384.2 
		385.6,384.3 378.4,396.9 385.9,420.3 402.1,423.2 427,405.5 434.5,401.8 449.9,395.2 433.7,380.8 427.1,384.7 	"/>
</g>
</svg>
