<svg xmlns="http://www.w3.org/2000/svg" viewBox="0 0 788 1005.07"><defs><style>.cls-1{fill:#e78367;}.cls-2{fill:#b85d40;}.cls-3{fill:#fff;}.cls-4{fill:#d12e2e;}.cls-5{fill:#f7a386;}.cls-6{fill:none;}.cls-7{fill:#ba3f28;}</style></defs><g id="Calque_4" data-name="Calque 4"><path class="cls-1" d="M440.43,283.89l2.16,18.25-21.08,75.33h-92.1L306.89,301.9l2.64-18.73-17-36.82,51.25-20.58a20.35,20.35,0,0,0,12.75-18.88V194.11H395v12.53a20.35,20.35,0,0,0,13.31,19.09l51.37,18.93Z"/><path class="cls-2" d="M356.86,193.68h38.48v10.59h0c-8.64,11-14.34,15.82-20.89,15.77-4.94,0-12.67-9.73-17.67-13.57l.08-1.94Z"/></g><g id="Calque_3" data-name="Calque 3"><polygon class="cls-3" points="378.06 368.86 348.23 368.86 339.73 312.57 387.22 312.57 378.06 368.86"/><polygon class="cls-4" points="381.05 353.29 349.6 353.29 341.87 335.24 385.08 335.24 381.05 353.29"/><path class="cls-5" d="M321.05,370.76c-4.33-3.9-6.63-17.59-4.28-22.93,1-2.28,8.45-5.26,8.45-5.26l8.19-3.6.82-10.16L347,321.88l21.42-.92,2.79,30.19-21.33,15.14-12.78-1.76-10.24,5.69S323,372.55,321.05,370.76Z"/><polygon points="215.83 498.67 215.92 498.63 215.83 498.58 215.83 498.67"/><polygon points="215.92 498.63 216.02 498.67 216.02 498.58 215.92 498.63"/><polygon points="215.83 498.67 215.92 498.63 215.83 498.58 215.83 498.67"/><polygon points="215.92 498.63 216.02 498.67 216.02 498.58 215.92 498.63"/><path class="cls-6" d="M412.3,413.89c15.56,5,22.34,9.27,26,15.95,3,5.41,5.81,17.79,6,24,.52,14.5-7.49,51-21.12,63.13-13.86,12.38-81.63,12.38-95.49,0-13.63-12.16-21.63-48.63-21.11-63.13.22-6.18,3-18.56,6-24,3.7-6.68,10.48-10.92,26-15.95,17.8-5.75,35.9-4.84,35.9-4.84S394.5,408.14,412.3,413.89Z"/><path class="cls-1" d="M437.63,334.78l-10.1-5.45S407.86,307.47,407,306.61s-15.61-13.22-16.62-14.23-8.25-10.5-8.25-10.5l-4.58,9.24,7.52,10.94,9,8.91-22.79-4.26s-34.34-10-34.92-8.84-1.42,7.79-.26,8.36,33.47,10.86,33.47,10.86-41-5.65-41.24-3.63-.55,9.23,1.18,9.22,36.63,3.65,36.63,3.65-37.17,2.71-36.59,3.86,2.84,8.09,2.84,8.09L368.73,337l-25.64,8.44s4.34,7.19,5.5,7.19S378,344.46,378,344.46s28.54,3,30,2.22c4.23-2.12,13.85,4,13.85,4Z"/><path class="cls-6" d="M413.32,413.89c15.55,5,22.33,9.27,26,15.95,3,5.41,5.81,17.79,6,24,.52,14.5-7.48,51-21.11,63.13-13.87,12.38-81.63,12.38-95.5,0-13.63-12.16-21.63-48.63-21.11-63.13.23-6.18,3.05-18.56,6-24,3.7-6.68,10.48-10.92,26-15.95,17.8-5.75,35.91-4.84,35.91-4.84S395.52,408.14,413.32,413.89Z"/><path class="cls-1" d="M127.72,262.53,114,251.87l-22.81-9.58s-1.44,4.24-.8,5.49c2,4,8.66,7.63,12.66,10.15.54.34,1.71,2.76,1.5,3.31-.86,2.24-6.54,1.85-6.54,1.85l16.92,6.18Z"/><path class="cls-1" d="M121.81,262.42l-4.21,16.24-40.09-4.83L40,255.62s3.94-4,5.79-4.34c9.65-1.89,28.37,7.32,38,9.26C94.16,262.63,121.81,262.42,121.81,262.42Z"/><ellipse class="cls-1" cx="120.45" cy="269.61" rx="10.8" ry="9.5" transform="translate(-8.53 3.98) rotate(-1.83)"/><path class="cls-1" d="M278.05,315.2l-46.37,36.63-3.46,2.35a13.87,13.87,0,0,1-18.63-2.76h0a13.88,13.88,0,0,1,.09-17.51l3.7-4.51S201.6,334.64,210,323c10.3-14.22,79.82-93.14,99.88-75.07h0c8.36,8.07,12.31,23.24,3.9,31.26Z"/><path class="cls-1" d="M227.16,354.42h0a15.24,15.24,0,0,0,4.11-15.54,8.81,8.81,0,0,0-.51-1.67c-4.77-7.87-18.82-20.39-26.23-25.86-17.22-12.71-73.62-46.29-73.62-46.29h0a8.88,8.88,0,0,0-11.36,4.23l-.46.93a8.87,8.87,0,0,0,2.64,11.1c.63.47,1.19.9,1.61,1.25,7.31,6.15,51.43,49.3,61.12,57.74,5.66,4.93,18.87,12.57,25.89,15.25C214.29,357.06,223.5,357.86,227.16,354.42Z"/><path class="cls-7" d="M315.83,233.93l-23.92,8.86,4.45,58.77,6.11,69.88s-44.48,328-45.09,343.08c-.29,7.16,33,18.48,40.11,18.94l64.18,4.1,84.27-1.7c9.51,0,50.83-.72,50.17-10.21-1.14-16.26-51-346.38-51-346.38l4.06-77.71,2.38-27.48-2.36-35.48-26.57-9-47.24,20.81Z"/><path class="cls-1" d="M281.11,257.47l-13.77-10.66-22.81-9.58s-1.44,4.23-.8,5.49c2,4,8.67,7.62,12.67,10.15.53.33,1.71,2.76,1.5,3.31-.87,2.24-6.55,1.85-6.55,1.85l16.92,6.18Z"/><path class="cls-1" d="M275.19,257.35,271,273.6l-40.09-4.84-37.48-18.2s3.94-4,5.79-4.34c9.65-1.9,28.37,7.31,38,9.25C247.55,257.57,275.19,257.35,275.19,257.35Z"/><ellipse class="cls-1" cx="273.83" cy="264.54" rx="10.8" ry="9.5" transform="translate(-8.29 8.86) rotate(-1.83)"/><path class="cls-1" d="M430.85,311l-46.36,36.63L381,350a13.88,13.88,0,0,1-18.63-2.77h0a13.88,13.88,0,0,1,.08-17.5L365,314.85s18.06-21.9,29-31.14c30.66-25.89,42.29-54.51,68.46-43.22h0c15.71,10.23,12.37,30.46-.93,43.76C454.35,291.45,430.85,311,430.85,311Z"/><path class="cls-1" d="M380.54,349.36h0a15.23,15.23,0,0,0,4.11-15.55,8.76,8.76,0,0,0-.51-1.66c-4.77-7.88-18.82-20.4-26.23-25.87C340.69,293.57,284.29,260,284.29,260h0a8.89,8.89,0,0,0-11.36,4.23l-.46.93a8.87,8.87,0,0,0,2.64,11.1c.63.47,1.19.91,1.61,1.26,7.31,6.15,51.44,49.3,61.12,57.74,5.67,4.93,18.87,12.57,25.89,15.25C367.67,352,376.88,352.8,380.54,349.36Z"/></g></svg>