<?xml version="1.0" encoding="utf-8"?>
<!-- Generator: Adobe Illustrator 26.0.1, SVG Export Plug-In . SVG Version: 6.00 Build 0)  -->
<svg version="1.1" id="Calque_1" xmlns="http://www.w3.org/2000/svg" xmlns:xlink="http://www.w3.org/1999/xlink" x="0px" y="0px"
	 viewBox="0 0 788 1005" style="enable-background:new 0 0 788 1005;" xml:space="preserve">
<style type="text/css">
	.st0{fill:none;stroke:#662C34;stroke-width:2;stroke-linecap:round;stroke-miterlimit:10;}
	.st1{fill:#020202;}
	.st2{fill:#51281D;}
	.st3{fill:#FFFFFF;}
	.st4{fill:#502F21;}
</style>
<path class="st0" d="M380.6,270.9c3.6,1.6,8.4,2.5,13.5,2.4c5.1-0.1,9.8-1.1,13.2-2.8"/>
<path class="st1" d="M419.9,243.8c0,0-0.6-0.1-2.9-0.7c-4.4-1.1-6.9-1.2-8.9-0.6c-2.7,0.9-5.8,2.1-6.6,0.4c-0.1-0.3,1.5-3.3,6.8-3.7
	c5-0.4,7.9,1.6,11,3c0.4,0.2,0.6,0.5,0.6,1V243.8z"/>
<path class="st2" d="M423.9,237.6c-0.1,0-0.3-0.1-0.4-0.1c0,0-3.4-2-6.8-3.2c-7.6-2.7-8.2-1.6-11-1.4c-0.8,0.1-2.6-0.6-3-1.2
	c-0.3-0.5-0.5-2.2,0-2.6c0.2-0.1,4-2.1,12.7,1c3.6,1.3,9.1,5.2,9.2,5.3c0.5,0.3,0.7,1,0.4,1.5C424.8,237.4,424.4,237.6,423.9,237.6z
	"/>
<path class="st2" d="M363.1,229.5c0.1,0,0.3,0,0.4,0c0,0,3.8-1.2,7.4-1.6c8-1,8.4,0.3,11,1.1c0.8,0.2,2.7-0.1,3.2-0.5
	c0.4-0.4,1-2.1,0.5-2.5c-0.2-0.2-3.4-2.9-12.6-1.8c-3.8,0.5-10,3.1-10.2,3.2c-0.6,0.2-0.9,0.8-0.7,1.4
	C362.3,229.1,362.7,229.4,363.1,229.5z"/>
<g>
	<circle class="st3" cx="372.3" cy="241.4" r="6.1"/>
	<circle cx="372.3" cy="241.4" r="4.1"/>
</g>
<path class="st4" d="M401.2,260.6c0,0-4.7,3.7-7.4,3.7c-2.6,0-7-3.6-7-3.6s5.4,0.7,7.2,0.7S401.2,260.6,401.2,260.6z"/>
</svg>
