<?xml version="1.0" encoding="utf-8"?>
<!-- Generator: Adobe Illustrator 25.4.1, SVG Export Plug-In . SVG Version: 6.00 Build 0)  -->
<svg version="1.1" id="Calque_1" xmlns="http://www.w3.org/2000/svg" xmlns:xlink="http://www.w3.org/1999/xlink" x="0px" y="0px"
	 viewBox="0 0 200 200" style="enable-background:new 0 0 200 200;" xml:space="preserve">
<style type="text/css">
	.st0{fill:#FFFFFF;}
	.st1{fill:#080808;stroke:#000000;stroke-miterlimit:10;}
	.st2{clip-path:url(#SVGID_00000151508357853694040170000010759154191752104345_);}
	.st3{fill:none;stroke:#000000;stroke-width:2;stroke-linecap:round;stroke-miterlimit:10;}
	.st4{clip-path:url(#SVGID_00000067928340363765510540000003548812230820253111_);}
	.st5{fill:#844F3D;}
	.st6{fill:#664F59;}
</style>
<g id="Calque_10">
	<circle class="st0" cx="116.8" cy="85.4" r="6.8"/>
	<circle class="st0" cx="82" cy="85.4" r="6.8"/>
	<circle class="st1" cx="84.1" cy="85.5" r="4"/>
	<circle class="st1" cx="119" cy="85.5" r="4"/>
	<g>
		<g>
			<defs>
				<rect id="SVGID_1_" x="108.6" y="68.4" width="22.1" height="6.7"/>
			</defs>
			<clipPath id="SVGID_00000109713266949531535090000010376816754571277458_">
				<use xlink:href="#SVGID_1_"  style="overflow:visible;"/>
			</clipPath>
			<g style="clip-path:url(#SVGID_00000109713266949531535090000010376816754571277458_);">
				<path class="st3" d="M109.6,72.7c6.1-4.9,14.8-4.2,20.2,1.4"/>
			</g>
		</g>
	</g>
	<g>
		<g>
			<defs>
				<rect id="SVGID_00000172419074140919168790000007138867393420593811_" x="69.3" y="68.4" width="22.2" height="6.7"/>
			</defs>
			<clipPath id="SVGID_00000151518674783941918720000008586050776320400542_">
				<use xlink:href="#SVGID_00000172419074140919168790000007138867393420593811_"  style="overflow:visible;"/>
			</clipPath>
			<g style="clip-path:url(#SVGID_00000151518674783941918720000008586050776320400542_);">
				<path class="st3" d="M90.5,72.7c-6.1-4.9-14.8-4.3-20.2,1.4"/>
			</g>
		</g>
	</g>
	<path class="st5" d="M107.9,107.6c0,0-4.7,3.7-7.4,3.7s-7-3.6-7-3.6s5.4,0.7,7.2,0.7S107.9,107.6,107.9,107.6z"/>
	<ellipse class="st6" cx="100.4" cy="127.1" rx="2.9" ry="4.5"/>
</g>
</svg>
