<?xml version="1.0" encoding="utf-8"?>
<!-- Generator: Adobe Illustrator 26.0.1, SVG Export Plug-In . SVG Version: 6.00 Build 0)  -->
<svg version="1.1" id="Calque_1" xmlns="http://www.w3.org/2000/svg" xmlns:xlink="http://www.w3.org/1999/xlink" x="0px" y="0px"
	 viewBox="0 0 788 1005" style="enable-background:new 0 0 788 1005;" xml:space="preserve">
<style type="text/css">
	.st0{fill:#FFFFFF;}
	.st1{fill:#080808;}
	.st2{clip-path:url(#SVGID_00000101086105821303383210000018319277851489969076_);}
	.st3{fill:none;stroke:#000000;stroke-width:2;stroke-linecap:round;stroke-miterlimit:10;}
	.st4{clip-path:url(#SVGID_00000124163141467926766910000001114002052764910246_);}
	.st5{fill:none;stroke:#5B2945;stroke-width:2;stroke-linecap:round;stroke-miterlimit:10;}
	.st6{fill:#5D3829;}
	.st7{fill:#4DA0FF;}
</style>
<g id="Calque_10">
	<path class="st0" d="M417.6,242.6c0,3.7-3,6.8-6.8,6.8s-6.8-3-6.8-6.8l0,0H417.6z"/>
	<path class="st0" d="M382.8,242.6c0,3.7-3,6.8-6.8,6.8s-6.8-3-6.8-6.8l0,0H382.8z"/>
	<path class="st1" d="M380.1,243.2c0,2.2-1.8,4-4,4s-4-1.8-4-4c0-0.2,0-0.4,0-0.6h7.9C380.1,242.8,380.1,243,380.1,243.2z"/>
	<path class="st1" d="M415.1,243.2c0,2.2-1.8,4-4,4s-4-1.8-4-4c0-0.2,0-0.4,0-0.6h7.9C415,242.8,415.1,243,415.1,243.2z"/>
	<g>
		<defs>
			<rect id="SVGID_1_" x="402.9" y="228.2" width="21.6" height="7.1"/>
		</defs>
		<clipPath id="SVGID_00000008134349776230199570000013328870254540369562_">
			<use xlink:href="#SVGID_1_"  style="overflow:visible;"/>
		</clipPath>
		<g style="clip-path:url(#SVGID_00000008134349776230199570000013328870254540369562_);">
			<path class="st3" d="M403.9,229.2c9.8,0.2,19.6,5.1,19.6,5.1"/>
		</g>
	</g>
	<g>
		<defs>
			<rect id="SVGID_00000076596850612579600660000013224401405290288275_" x="363.7" y="228.2" width="21.6" height="7.1"/>
		</defs>
		<clipPath id="SVGID_00000087403158630500165020000012778529115879368620_">
			<use xlink:href="#SVGID_00000076596850612579600660000013224401405290288275_"  style="overflow:visible;"/>
		</clipPath>
		<g style="clip-path:url(#SVGID_00000087403158630500165020000012778529115879368620_);">
			<path class="st3" d="M384.3,229.2c-9.8,0.2-19.6,5.1-19.6,5.1"/>
		</g>
	</g>
	<path class="st5" d="M382.8,281.4c3.1,0.1,7.2,0.2,11.3,0.2s8.1-0.1,11-0.2"/>
	<path class="st6" d="M402,264.8c0,0-4.7,3.7-7.4,3.7c-2.6,0-7-3.6-7-3.6s5.4,0.7,7.2,0.7S402,264.8,402,264.8z"/>
	<ellipse class="st7" cx="370.8" cy="253" rx="3.9" ry="4.4"/>
</g>
</svg>
