<svg xmlns="http://www.w3.org/2000/svg" xmlns:xlink="http://www.w3.org/1999/xlink" viewBox="0 0 788 1005"><defs><style>.cls-1,.cls-5,.cls-7{fill:none;}.cls-2{fill:#fff;}.cls-3{fill:#080808;}.cls-4{clip-path:url(#clip-path);}.cls-5{stroke:#000;}.cls-5,.cls-7{stroke-linecap:round;stroke-miterlimit:10;stroke-width:2px;}.cls-6{clip-path:url(#clip-path-2);}.cls-7{stroke:#522a19;}.cls-8{fill:#6d323a;}.cls-9{fill:#4f9ffd;}</style><clipPath id="clip-path"><rect class="cls-1" x="402.72" y="89.97" width="21.58" height="7.06"/></clipPath><clipPath id="clip-path-2"><rect class="cls-1" x="363.5" y="89.97" width="21.58" height="7.06"/></clipPath></defs><g id="yeux"><path class="cls-2" d="M417.43,104.36a6.75,6.75,0,0,1-13.5,0Z"/><path class="cls-2" d="M382.58,104.36a6.75,6.75,0,0,1-13.5,0Z"/><path class="cls-3" d="M379.91,104.94a4,4,0,0,1-8,0,2.78,2.78,0,0,1,0-.58h7.9A2.78,2.78,0,0,1,379.91,104.94Z"/><path class="cls-3" d="M414.85,104.94a4,4,0,0,1-8,0,2.78,2.78,0,0,1,0-.58h7.9A2.78,2.78,0,0,1,414.85,104.94Z"/><g class="cls-4"><path class="cls-5" d="M403.72,91c9.84.17,19.58,5.06,19.58,5.06"/></g><g class="cls-6"><path class="cls-5" d="M384.08,91C374.24,91.14,364.5,96,364.5,96"/></g><path class="cls-7" d="M382.61,143.12c3.1.14,7.19.22,11.26.21s8.06-.09,11-.25"/><path class="cls-8" d="M401.8,126.53s-4.7,3.69-7.43,3.69c-2.58,0-7-3.6-7-3.6s5.4.73,7.21.72S401.8,126.53,401.8,126.53Z"/><ellipse class="cls-9" cx="370.53" cy="114.78" rx="3.87" ry="4.38"/></g></svg>