<svg xmlns="http://www.w3.org/2000/svg" viewBox="0 0 136.02 88.85"><defs><style>.cls-1{fill:#aa5b3f;}.cls-2{fill:#6d323a;}.cls-3{fill:#36344d;}.cls-4{fill:#3157a3;}</style></defs><g id="Calque_7" data-name="Calque 7"><path class="cls-1" d="M19.93,67.88s-4.69-1.78-5.46-1.72-4,.82-4.61.74S5.65,65.56,5.6,66s0,2.22,0,2.22l2.9,1.42,3.74.06L7.57,73.22S.62,76.73.15,76.84.43,79.1.43,79.1l8.8-3.77L1,81.77l1.53,2,8.71-6.84L3.75,85.24,6,86.35l6.92-7.21L9.2,85.74s2,1,2.31.51,4.32-6,4.32-6l7.06-5.81.36-2.34Z"/><path class="cls-1" d="M115.45,26.23C115.3,36,108.8,34.65,106.09,37c-3.19,2.73-2.1,12.7-4.36,16.25-.62,1-2.89,2.56-4,2.3-3.18-.73-6.1-7.8-8.83-9.58-1.61-1-6-.92-7.67,0-2.85,1.57-5.65,8.85-8.82,9.58-1.13.26-3.39-1.33-4-2.3C66.12,49.67,67.22,39.7,64,37c-2.7-2.32-9.2-1-9.36-10.74-.1-6.75,8.88-9.48,8.88-9.48l10.2-5.06a8,8,0,0,0,1.8-1.22,6.35,6.35,0,0,0,.58-.58l.16-.18,0,0A23.82,23.82,0,0,1,80,6.52c.36-.27-1.21-1.18-1.21-1.54L79,3.92l-.43-1.77,13.21.44V5.3h0c0,.16,0,.33,0,.49a7.3,7.3,0,0,0,4,5.63l10.29,5.1a5.77,5.77,0,0,0,.81.34C108.63,17.48,115.54,20.3,115.45,26.23Z"/><polygon class="cls-1" points="92 14.85 85.02 23.1 81.26 18.61 78.11 14.85 78.3 4.3 78.3 3.73 78.32 2.59 91.79 2.59 91.79 2.65 91.81 3.83 91.81 3.84 91.82 4.23 91.83 5.3 91.83 5.31 91.84 5.63 91.87 7.36 92 14.85"/><path class="cls-2" d="M92.13,7l-.26.32C90.56,9,84.55,16.25,81.26,18.61c-.81.58-1.46.86-1.83.68-1.72-.83-3.77-8.91-3.77-8.91l0,0a4.69,4.69,0,0,0,.44-.47c.09-.1.17-.21.27-.34l0,0a13.51,13.51,0,0,0,1.68-3.85,34.41,34.41,0,0,0,.15-4.06,1.21,1.21,0,0,0,0-.25A1.36,1.36,0,0,1,79.63,0H90.31a1.38,1.38,0,0,1,1.38,1.31l0,1.28h0l.05,1.14V5.44l0,.19,0,.17L92.11,7Z"/><path class="cls-1" d="M100.76,28.9c3,6.35,10.39,9.85,10.39,9.85S124.59,47.06,129,49.91c2.09,1.34-.22,4,3.27-1.13h0c2.88-4.22,3.33-8.13,1.45-9.61-3.81-3-9.58-7.65-12.78-11.23-2.38-2.67-5-7.7-11-9.19A7.59,7.59,0,0,0,102,20.84l-.13.16a7.26,7.26,0,0,0-1.07,7.9Z"/><path class="cls-1" d="M130.7,37.48c-4.9-1.22-7.86,4-8.82,6s-1.94,6.36-2.43,8.52c-1.24,5.54-2.61,15-3.9,20.4-.85,3.55-1.39,5.39.73,6.54,1.93,1,3.88-2,4.66-3.12,3.2-4.8,9.58-14.09,12.09-19.65A40.63,40.63,0,0,0,136,46.56C136.61,39.58,132.13,37.84,130.7,37.48Z"/><path class="cls-1" d="M55.66,53.63c-2.3-3.87-7.14-2.5-8.86-1.9a39.38,39.38,0,0,0-6.41,3.76c-4,2.65-15.76,10.93-20.21,12.2-3.1.9,2,6.32,2,6.32a36,36,0,0,1,5.41-2.8C32.09,69.6,38.71,69,46.33,66.68a26.57,26.57,0,0,0,7.33-4.09C58.08,58.68,56.33,54.75,55.66,53.63Z"/><path class="cls-1" d="M70.15,25.34c.71,7-3.78,13.81-3.78,13.81S59.18,53.23,56.86,58c-1.09,2.23-3.29,6.92-8.93,4.34h0c-4.65-2.12-3.39-7-2.55-9.19,1.7-4.55,6.11-13.4,7-18.11.66-3.52.3-9.19,4.61-13.54a7.58,7.58,0,0,1,8-2.39l.19.07a7.27,7.27,0,0,1,5,6.2Z"/><path class="cls-1" d="M116.73,77.81c.52.81.78,2.29-.76,3.77,0,0-4.47,5.13-6.45,6.18-.88.46-3.24,1.59-3.9.83-1.86-2.12-3.07-7.26-2.47-10.59.18-1,2.39-2,3.39-2.24s3.28.67,4.4.71c.4,0,1.1,0,1.82-.1C114.27,76.23,116,76.7,116.73,77.81Z"/><polygon class="cls-2" points="114.25 74.65 113.2 76.35 114.06 79.52 115.07 82.59 116.49 81.06 119.06 79.28 114.25 74.65"/><polygon class="cls-3" points="113.57 75.75 115.93 71.75 121.13 77.32 118.28 80.55 113.57 75.75"/><polygon class="cls-4" points="64.46 78.79 64.84 73.08 104.71 73.08 104.75 82.59 64.46 78.79"/><polygon class="cls-4" points="49.78 41.87 62.03 48.64 65.93 40.75 66.58 58.58 64.63 70.93 64.82 73.25 105.12 74.92 107.23 68.42 107.23 58.21 106.14 37.87 117.89 43.54 125.41 32.05 113.57 18.28 99.27 12.71 86.27 19.67 72.9 12.15 58.13 19.11 53.58 24.69 49.78 41.87"/></g></svg>