<svg xmlns="http://www.w3.org/2000/svg" viewBox="0 0 110.82 131.9"><defs><style>.cls-1{fill:#aa5b3f;}.cls-2{fill:#6d323a;}.cls-3{fill:#473415;}.cls-4{fill:none;stroke:#000;stroke-miterlimit:10;stroke-width:3px;}.cls-5{fill:#a38a6d;}.cls-6{fill:#4a330f;}.cls-7{fill:#3e322e;}.cls-8{fill:#574640;}</style></defs><g id="Calque_5" data-name="Calque 5"><path class="cls-1" d="M60.1,67.08C64,69.62,68.2,79.75,72.75,80.8c1.61.37,4.85-1.91,5.74-3.31,3.24-5.08,1.68-19.35,6.25-23.27,3.88-3.32,13.19-1.42,13.41-15.38.13-8.49-9.77-12.53-12.2-13.4-.39-.14-.77-.3-1.15-.48L70.06,17.65a10.36,10.36,0,0,1-5.75-9.14l-.08-6.57-9.8.75-9.68-.75,0,5.72A11.48,11.48,0,0,1,38.41,18l-14.6,7.25s-12.87,3.9-12.72,13.57c.22,14,9.53,12.06,13.4,15.38,4.58,3.92,3,18.19,6.25,23.27.89,1.4,4.13,3.68,5.75,3.31C41,79.75,45,69.32,49.13,67.08,51.53,65.76,57.81,65.58,60.1,67.08Z"/><polygon class="cls-1" points="55.1 0 64.19 1.45 64.56 22.54 54.56 34.36 44.67 22.54 45.04 1.45 55.1 0"/><path class="cls-2" d="M64.74,11.36l-.37.46c-1.87,2.3-10.48,12.74-15.19,16.11-1.16.83-2.09,1.23-2.62,1-2.46-1.19-5.4-12.77-5.4-12.77a6.19,6.19,0,0,0,.66-.7,14,14,0,0,0,2.83-6,1.89,1.89,0,0,1,.05-.23c.09-.5.17-1.1.24-1.76.15-1.55.22-3.47.26-5.45V1.43c0-.48,0-1,0-1.43h19V5.07l0,4,0,.28,0,.24.34,1.66Z"/><polygon class="cls-3" points="25.75 114.28 26.29 106.1 82.65 106.1 83.38 113.19 25.75 114.28"/><path class="cls-4" d="M79,38.06c-2.34,9.78,2.72,20.31,2.72,20.31S89.21,79.74,91.6,86.9c1.12,3.38,3.34,10.45,11.84,7.88h0c7-2.11,6.14-9.22,5.38-12.56-1.54-6.77-6.09-20.18-6.43-27-.25-5.11,1.35-13.09-3.93-20.1,0,0-3.69-6.2-10.86-4.92l-.29.05A10.44,10.44,0,0,0,79,38.06Z"/><path class="cls-5" d="M68.29,19.92s19.57,6.91,25.5,10.43c10.41,6.18-6.53,27.27-6.53,27.27L83.52,81.25l1.82,24.44L82.54,110l-55.73.29-3-4.32L24,82.38s-1.92-18.44-5.77-22.91c-8.67-10-.46-31.35-.46-31.35L41,19.88S47.1,34.18,55.46,33.4C64.81,32.53,68.29,19.92,68.29,19.92Z"/><polygon class="cls-6" points="25.71 114 26.26 105.82 82.62 105.82 83.35 112.91 25.71 114"/><path class="cls-1" d="M70.8,121.61l14.46-6.36,8.29,8.47-.94,3.81-4.36,4.37s-8.26-7-8.26-7.64-6.3,1.56-6.3,1.56Z"/><path class="cls-1" d="M39,119.07l-14.09-6-8.65,8.1L17.2,125l4.36,4.36s8.25-7,8.25-7.63,6.31,1.55,6.31,1.55Z"/><polygon class="cls-7" points="99.53 32.91 107.18 53.26 110.31 92.88 93.78 124.24 82.95 113.69 93.21 86.61 91.21 58.11 99.53 32.91"/><polygon class="cls-8" points="67.27 15.21 70.26 58.96 70.26 120.39 91.64 113.12 94.92 57.82 99.45 32.63 67.27 15.21"/><polygon class="cls-7" points="80.98 25.47 77.31 33.02 72.83 32.35 68.94 39.01 67.29 15.38 74.77 22.7 80.98 25.47"/><polygon class="cls-7" points="9.69 32.91 3.14 51.44 0 91.06 16.53 122.42 27.36 111.87 17.1 84.79 19.1 56.29 9.69 32.91"/><polygon class="cls-8" points="43.04 13.39 40.05 57.14 40.05 118.57 18.67 111.3 15.39 56 9.41 32.63 43.04 13.39"/><path class="cls-7" d="M43,13.26s-.6,7,.56,8.92c2,3.26,9,4.65,9,4.65l-2,7-4.7-1.43L41,41.21l.12-8.11a11.93,11.93,0,0,1-4.5-11C36.9,19.47,43,13.26,43,13.26Z"/></g></svg>