<svg xmlns="http://www.w3.org/2000/svg" viewBox="0 0 788 1005"><defs><style>.cls-1{fill:#638189;}.cls-2{fill:#3a4649;}.cls-3{fill:#172f35;}.cls-4{fill:#d79072;}.cls-5{fill:#87b6c7;}</style></defs><g id="Calque_5" data-name="Calque 5"><path class="cls-1" d="M438.28,391.48c17.9,5.22,25.7,9.63,30,16.56,3.45,5.62,6.69,18.49,6.95,24.9.6,15.07-8.61,52.94-24.29,65.58-15.95,12.86-93.92,12.86-109.87,0-15.68-12.64-24.89-50.51-24.29-65.58.26-6.41,3.51-19.28,6.95-24.9,4.26-6.93,12.06-11.34,29.95-16.56,20.48-6,41.31-5,41.31-5S417.8,385.5,438.28,391.48Z"/></g><g id="Calque_7" data-name="Calque 7"><path class="cls-2" d="M326.26,884.8h0A16.06,16.06,0,0,0,312.14,894h0c-5.84,12.34-30.55,28.87-30.55,28.87A15.14,15.14,0,0,0,276,937.47h0l60.27-.33,3.39-1a8.54,8.54,0,0,0,6-9l-3.46-30A16,16,0,0,0,326.26,884.8Z"/><path class="cls-3" d="M277.77,937.17h0a9,9,0,0,1,7.52-10.37l35.85-5.41a9,9,0,0,1,10.07,6.77l2.06,8.51Z"/><path class="cls-4" d="M475.57,881c-1.21,34,40.05,38.37,40.05,38.37,4.43,3.47-67,21.84-66.61,17.8,0,0,1.45-52-1-65.21C446.21,862.65,476.28,861,475.57,881Z"/><path class="cls-2" d="M464.22,899.81c6.38-2.17,5.93-6.81,8.47-9.36,1.53-1.54,7.86-3.19,8.79-1.22,10.68,22.66,61.16,35.37,61.16,35.37,5.36,3.82,6.56,9.1,5.55,14.63h0s-26.55,13.5-66,3.79c-5.11-1.26-10.76-2.07-10.76-2.07s-25.39,3.3-24.13-3.48l.44-42.28C449.46,887.8,453.27,903.55,464.22,899.81Z"/><path class="cls-3" d="M547.19,939.67c.85-9-4.26-14.65-6-14.43-2.5.32-6.51,2.38-9,2.81-4,.69-13.36,2.76-13.36,2.76-3.07-.32-5.62,2.76-5.86,7.09l-.2,8.63s3.14.07,20.46-2.51C536.13,943.59,547.19,939.67,547.19,939.67Z"/><path class="cls-1" d="M317.4,431.49l-2.17,20.61L305.08,864l5.69,31.42C317.13,891.08,347.4,884,347.4,884s19.71-126.72,22.48-160.48c1.61-19.64,3.92-58.17,6.73-77.66,4.1-28.4,19.53-111.69,19.53-111.69l1.77-103.56Z"/><polygon class="cls-1" points="393.32 441.25 394.96 536.87 422.52 702.62 449.2 888.33 449.2 888.33 485.48 880.75 483.05 535.78 474.99 430.61 399.54 441.7 393.32 441.25"/><rect class="cls-5" x="305.08" y="878.29" width="44.47" height="19.72"/><rect class="cls-5" x="446.27" y="880.7" width="42.69" height="19.8" transform="translate(-116.16 71.43) rotate(-7.77)"/></g></svg>