<svg xmlns="http://www.w3.org/2000/svg" viewBox="0 0 138.15 166.1"><defs><style>.cls-1{fill:#638189;}.cls-2{fill:#3a4649;}.cls-3{fill:#172f35;}.cls-4{fill:#d79072;}.cls-5{fill:#87b6c7;}</style></defs><g id="Calque_7" data-name="Calque 7"><path class="cls-1" d="M76.74,32.94c3.27,1,4.7,1.76,5.47,3a12.59,12.59,0,0,1,1.27,4.55c.11,2.75-1.57,9.66-4.43,12S61.9,54.83,59,52.48s-4.54-9.22-4.43-12A12.57,12.57,0,0,1,55.82,36c.78-1.26,2.21-2.07,5.47-3A26.33,26.33,0,0,1,68.83,32,28.37,28.37,0,0,1,76.74,32.94Z"/><path class="cls-2" d="M56.3,123h0a2.91,2.91,0,0,0-2.58,1.67h0c-1.07,2.25-5.58,5.27-5.58,5.27a2.74,2.74,0,0,0-1,2.67h0l11-.06.62-.19a1.55,1.55,0,0,0,1.1-1.63l-.64-5.47A2.92,2.92,0,0,0,56.3,123Z"/><path class="cls-3" d="M47.44,132.56h0a1.65,1.65,0,0,1,1.38-1.9l6.54-1a1.64,1.64,0,0,1,1.84,1.23l.38,1.56Z"/><path class="cls-4" d="M83.55,122.3c-.22,6.21,7.31,7,7.31,7,.81.64-12.23,4-12.16,3.25,0,0,.27-9.49-.19-11.9C78.19,119,83.68,118.65,83.55,122.3Z"/><path class="cls-2" d="M81.48,125.74c1.16-.4,1.08-1.25,1.55-1.71.28-.28,1.43-.58,1.6-.22,2,4.13,11.17,6.45,11.17,6.45a2.51,2.51,0,0,1,1,2.67h0s-4.85,2.47-12,.7c-.93-.23-2-.38-2-.38s-4.64.6-4.41-.64l.08-7.72C78.79,123.55,79.48,126.42,81.48,125.74Z"/><path class="cls-3" d="M96.63,133c.15-1.64-.78-2.67-1.1-2.63s-1.19.43-1.64.51c-.72.13-2.44.51-2.44.51-.56-.06-1,.5-1.07,1.29l0,1.58a35.12,35.12,0,0,0,3.73-.46C94.61,133.73,96.63,133,96.63,133Z"/><path class="cls-1" d="M54.68,40.24,54.28,44l-1.85,75.2,1,5.73c1.16-.8,6.68-2.09,6.68-2.09s3.6-23.13,4.11-29.3c.29-3.58.71-10.61,1.23-14.17C66.23,74.19,69.05,59,69.05,59l.32-18.91Z"/><polygon class="cls-1" points="68.54 42.03 68.84 59.48 73.87 89.74 78.74 123.64 78.74 123.64 85.36 122.26 84.92 59.28 83.45 40.08 69.67 42.11 68.54 42.03"/><rect class="cls-5" x="52.43" y="121.81" width="8.12" height="3.6"/><rect class="cls-5" x="78.2" y="122.25" width="7.79" height="3.61" transform="translate(-16.02 12.24) rotate(-7.77)"/></g></svg>