<svg xmlns="http://www.w3.org/2000/svg" viewBox="0 0 138.15 166.1"><defs><style>.cls-1{fill:none;}.cls-2{fill:#614652;}.cls-3{fill:#d79072;}.cls-4{fill:#3f302b;}</style></defs><g id="Calque_7" data-name="Calque 7"><path class="cls-1" d="M77.69,33c3,1,4.24,1.76,4.94,3a13.48,13.48,0,0,1,1.14,4.55c.1,2.75-1.41,9.66-4,12s-15.48,2.35-18.11,0-4.1-9.22-4-12A13.72,13.72,0,0,1,58.8,36c.71-1.26,2-2.07,4.94-3a21.59,21.59,0,0,1,6.81-.92A23.23,23.23,0,0,1,77.69,33Z"/><path class="cls-2" d="M78.51,32.86c3.27,1,4.7,1.76,5.47,3a12.59,12.59,0,0,1,1.27,4.55c.11,2.75-1.57,9.66-4.43,12s-17.15,2.35-20.06,0-4.54-9.22-4.43-12a12.37,12.37,0,0,1,1.26-4.55c.78-1.26,2.2-2.07,5.47-3a26.33,26.33,0,0,1,7.54-.92A28.37,28.37,0,0,1,78.51,32.86Z"/><polygon points="40.53 48.94 40.55 48.93 40.53 48.92 40.53 48.94"/><polygon points="40.55 48.93 40.57 48.94 40.57 48.92 40.55 48.93"/><polygon points="40.53 48.94 40.55 48.93 40.53 48.92 40.53 48.94"/><polygon points="40.55 48.93 40.57 48.94 40.57 48.92 40.55 48.93"/><path class="cls-2" d="M55.56,79.81a4.9,4.9,0,0,0,4.65,4.46h0a4.88,4.88,0,0,0,5-3.71S68.64,64.35,69,58.5c.09-1.38-.15-5.54-.15-5.54l-.6-9.69A6.27,6.27,0,0,0,62.93,38c-5.53-.83-5.79,2.14-5.79,2.14s-2.72,14.41-2.93,19.26C54,63.86,55.56,79.81,55.56,79.81Z"/><path class="cls-3" d="M60,76.65c-2.54,0-4.08,1.23-4.54,3.32,0,0-1.3,10.11-1.52,14.06a170.49,170.49,0,0,0,1.32,24.83c.18,1.37.54,5.52.54,5.52a2.39,2.39,0,0,0,2.41,2.16h0a2.4,2.4,0,0,0,2.36-2.15s.4-4.77.63-6.35c.84-5.72,3.29-17.07,3.66-22.85.22-3.47-.08-14.15-.08-14.15-.15-3.51-2.6-4.28-4.78-4.39Z"/><path class="cls-4" d="M58.06,122.92h0a2.91,2.91,0,0,0-2.57,1.67h0c-1.07,2.25-5.58,5.27-5.58,5.27a2.74,2.74,0,0,0-1,2.67h0l11-.06.62-.19a1.54,1.54,0,0,0,1.09-1.64L61,125.18A2.91,2.91,0,0,0,58.06,122.92Z"/><path class="cls-4" d="M49.21,132.48h0a1.65,1.65,0,0,1,1.38-1.9l6.54-1A1.64,1.64,0,0,1,59,130.83l.37,1.55Z"/><path class="cls-2" d="M85.34,79.81a4.9,4.9,0,0,1-4.65,4.46h0a4.88,4.88,0,0,1-5-3.71S72.26,64.35,71.88,58.5c-.1-1.44.75-15.23.75-15.23S72.11,39.18,78,38c5.22-1.07,5.79,2.14,5.79,2.14s2.72,14.23,2.93,19.08C86.88,63.68,85.34,79.81,85.34,79.81Z"/><path class="cls-3" d="M81.12,76.65A3.79,3.79,0,0,1,85.18,80S87.8,89.71,88,93.66c.31,6.33-1.87,18.91-2.64,25.2-.17,1.37-.49,5.52-.49,5.52a2.23,2.23,0,0,1-2.15,2.16h0a2.24,2.24,0,0,1-2.1-2.15s-.37-4.77-.57-6.35c-.75-5.72-2.94-17.07-3.27-22.85-.2-3.47.08-14.15.08-14.15.12-3.51,2.32-4.28,4.26-4.39Z"/><path class="cls-4" d="M85.89,121.77c-1,6.13,6.38,7.86,6.38,7.86.72.73-12.64,2.43-12.47,1.71,0,0,1.45-9.39,1.29-11.84C81,117.78,86.47,118.17,85.89,121.77Z"/><path class="cls-4" d="M83.13,124.89c1.2-.25,1.23-1.1,1.74-1.51.32-.24,1.5-.39,1.63,0,1.41,4.35,10.27,7.8,10.27,7.8a2.5,2.5,0,0,1,.67,2.78h0s-8.14.7-12.25-1.79c-.82-.49-1.69.35-1.69.35s-4.15.17-3.77-1l.52-7.8C80.73,122.38,81.06,125.32,83.13,124.89Z"/><path class="cls-4" d="M97.52,134c.36-1.61-.44-2.75-.75-2.75s-1.24.29-1.7.31a20.22,20.22,0,0,1-2.88-.42c-.55-.13-1.08.37-1.22,1.15l-.24,1.56a18.3,18.3,0,0,0,4.5.28C95.76,134.14,97.52,134,97.52,134Z"/><path class="cls-2" d="M56.39,40.16,56,43.92l-7.13,82,7.09-.31,6.36.13s2.3-25.94,2.8-32.11c.3-3.58,2.45-14.12,3-17.68.75-5.18,2.69-17.08,2.69-17.08L71.09,40Z"/><polygon class="cls-2" points="69.44 41.95 69.73 59.4 74.76 89.66 77.39 120.86 77.59 126.54 90.13 125.08 90.73 119.49 88.65 89.76 85.25 40.43 70.57 42.03 69.44 41.95"/></g></svg>