<svg xmlns="http://www.w3.org/2000/svg" viewBox="0 0 788 1005"><defs><style>.cls-1{fill:#a37636;}.cls-2{fill:#87b6c7;}.cls-3{fill:#6c9aab;}.cls-4{fill:#d79072;}.cls-5{fill:#699aab;}.cls-6,.cls-7,.cls-8{fill:none;stroke-miterlimit:10;}.cls-6{stroke:#699aab;}.cls-6,.cls-7{stroke-linecap:round;stroke-width:2px;}.cls-7{stroke:#669aab;}.cls-8{stroke:#4f3742;}</style></defs><g id="Calque_5" data-name="Calque 5"><path class="cls-1" d="M438.28,391.48c17.9,5.22,25.7,9.63,30,16.56,3.45,5.62,6.69,18.49,6.95,24.9.6,15.07-8.61,52.94-24.29,65.58-15.95,12.86-93.92,12.86-109.87,0-15.68-12.64-24.89-50.51-24.29-65.58.26-6.41,3.51-19.28,6.95-24.9,4.26-6.93,12.06-11.34,29.95-16.56,20.48-6,41.31-5,41.31-5S417.8,385.5,438.28,391.48Z"/></g><g id="Calque_7" data-name="Calque 7"><path class="cls-1" d="M316,650.05a26.84,26.84,0,0,0,25.44,24.45h0a26.85,26.85,0,0,0,27.34-20.35s18.85-88.81,20.95-120.84c.5-7.57-.82-30.36-.82-30.36l-3.28-53.07s-3-25.06-29.27-29c-30.3-4.53-31.73,11.76-31.73,11.76s-14.9,78.91-16,105.5C307.57,562.67,316,650.05,316,650.05Z"/><path class="cls-1" d="M332.1,632.75c-13.93-.19-22.33,6.71-24.88,18.16,0,0-7.1,55.37-8.3,77-1.93,34.69,2.48,101.6,7.19,136,1,7.53,3,30.27,3,30.27a13.13,13.13,0,0,0,13.21,11.83h0a13.12,13.12,0,0,0,12.9-11.81s2.23-26.14,3.49-34.79c4.58-31.35,18-93.52,20-125.14,1.21-19-.45-77.51-.45-77.51-.79-19.22-14.25-23.47-26.17-24Z"/><path class="cls-2" d="M330.61,886.18h0a16,16,0,0,0-14.12,9.16h0c-5.85,12.34-30.55,28.87-30.55,28.87a15.1,15.1,0,0,0-5.55,14.63h0l60.27-.33,3.38-1a8.51,8.51,0,0,0,6-9l-3.46-30A16,16,0,0,0,330.61,886.18Z"/><path class="cls-3" d="M282.12,938.54h0a9,9,0,0,1,7.52-10.36l35.84-5.41a9,9,0,0,1,10.08,6.76l2.06,8.51Z"/><path class="cls-1" d="M437.77,392.85c16.15,5.22,23.2,9.63,27,16.56,3.11,5.62,6,18.49,6.27,24.9.54,15.07-7.77,52.95-21.93,65.58-14.4,12.86-84.79,12.86-99.2,0-14.15-12.63-22.47-50.51-21.92-65.58.23-6.41,3.16-19.28,6.27-24.9,3.84-6.93,10.88-11.34,27-16.56,18.49-6,37.29-5,37.29-5S419.28,386.87,437.77,392.85Z"/><path class="cls-1" d="M480,650.05a26.85,26.85,0,0,1-25.45,24.45h0a26.85,26.85,0,0,1-27.34-20.35s-18.85-88.81-20.94-120.84c-.52-7.9,4.1-83.43,4.1-83.43s-2.83-22.42,29.27-29c28.61-5.86,31.73,11.76,31.73,11.76s14.9,77.91,16,104.5C488.43,561.67,480,650.05,480,650.05Z"/><path class="cls-1" d="M447.91,632.75c12.43-.19,19.94,6.71,22.21,18.16,0,0,14.38,53.37,15.46,75,1.72,34.69-10.26,103.6-14.46,138-.92,7.53-2.67,30.27-2.67,30.27-.59,6.77-5.72,11.91-11.79,11.83h0c-6-.08-10.92-5.16-11.52-11.81,0,0-2-26.14-3.12-34.79-4.09-31.35-16.07-93.52-17.88-125.14-1.08-19,.4-77.51.4-77.51.71-19.22,12.73-23.47,23.37-24Z"/><path class="cls-4" d="M479.92,882.34c-1.21,34,40.05,38.37,40.05,38.37,4.42,3.47-67,21.84-66.62,17.8,0,0,1.46-52-1-65.21C450.56,864,480.63,862.37,479.92,882.34Z"/><path class="cls-2" d="M467.05,901.19c6.38-2.18,5.93-6.82,8.47-9.37,1.53-1.54,7.86-3.19,8.79-1.22C495,913.26,545.47,926,545.47,926c5.36,3.82,6.56,9.1,5.55,14.63h0s-43.77,9.37-67.77-1.33c-4.81-2.15-9,3.06-9,3.06s-22.42,3.73-21.16-3.06l-2.54-42.71C452.29,889.17,456.1,904.93,467.05,901.19Z"/><path class="cls-5" d="M551.54,941c.84-9-4.26-14.65-6-14.43-2.5.32-6.5,2.39-9,2.82-4,.68-15.95-.29-15.95-.29-3.07-.32-5.62,2.76-5.86,7.09l-.2,8.64s7.32,1,24.64-1.59C542.05,942.85,551.54,941,551.54,941Z"/><path class="cls-1" d="M320.53,432.86l-2.17,20.61-21.24,448.6,21-.92,34.83.71s12.6-142.1,15.37-175.87c1.61-19.63,2.3-59.14,5.11-78.64,4.09-28.4,25.84-111.81,25.84-111.81L401,432Z"/><polygon class="cls-1" points="392.89 442.62 394.53 538.24 422.1 703.99 436.55 874.92 437.66 906.04 492.45 899.68 491.54 863.37 492.26 689.13 467.97 440.48 399.11 443.07 392.89 442.62"/><path class="cls-6" d="M304.64,904.79s4.73-3.36,8.9-3.36c5.11,0,10,3.12,10,3.12"/><path class="cls-7" d="M485.82,900.44s-5.1,2.07-9,2.15"/><path class="cls-7" d="M491.48,905.4s-5,2.4-8.86,2.74"/><polygon class="cls-8" points="398.02 491.22 393.02 451.22 408.02 451.22 407.02 483.5 398.02 491.22"/><path class="cls-1" d="M315.32,485.92C315,490.65,263,900,263,900s89.25,10.14,90,1.91S392,545.8,392,545.8L436.76,906s82.4-13.25,82.51-16.34S484.54,517,484.08,513.7,388.92,503,388.92,503l-48.06,7.48Z"/></g></svg>