<?xml version="1.0" encoding="utf-8"?>
<!-- Generator: Adobe Illustrator 26.0.1, SVG Export Plug-In . SVG Version: 6.00 Build 0)  -->
<svg version="1.1" id="Calque_1" xmlns="http://www.w3.org/2000/svg" xmlns:xlink="http://www.w3.org/1999/xlink" x="0px" y="0px"
	 viewBox="0 0 788 1005" style="enable-background:new 0 0 788 1005;" xml:space="preserve">
<style type="text/css">
	.st0{fill:#E1795D;}
	.st1{fill:#FD8C75;}
	.st2{fill:#FDB485;}
</style>
<g>
	<path class="st0" d="M360.8,268.5l-8.1-24.5c0,0-7.9-8.1-13.6-2.5c-3.8,3.8,5.1,29,10,30C357.3,273.3,360.8,268.5,360.8,268.5z"/>
	<path class="st0" d="M427.2,268.5l8.1-24.5c0,0,7.9-8.1,13.6-2.5c3.8,3.8-5.1,29-10,30C430.7,273.3,427.2,268.5,427.2,268.5z"/>
	<path class="st1" d="M394.2,181.2L394.2,181.2c-23.9-0.1-43.2,11.1-43.2,45.5c0,7.9,0.6,15.8,1.8,23.7c1.1,6.9,2.8,13.6,5.1,20.2
		c7.7,21.7,21.1,35.2,36.4,35.2v0.1c15.1,0,28.3-13.1,36.1-34.3c3.2-8.9,5.3-18.1,6.3-27.5c0.6-5.7,1-11.5,1-17.2
		C437.5,192.4,418.1,181.2,394.2,181.2z"/>
</g>
<g id="Calque_10">
	<path class="st2" d="M353.3,245.6c0,0-41.5-53.6,27.7-70.8c0,0-37.8-33.9,12.7-33.9c51.5,0,15.6,32.4,12.9,33
		c0,0,66.5,27.5,29.4,71.6c0,0-1.4-40.4-8.8-43.5c-0.4,3.3-0.6,6.7-0.6,10c-10.7,2.2-21.6,3.2-32.5,3c-12.1-0.2-24.2-1.4-36.1-3.5
		v-9.6C348.8,208.5,353.3,245.6,353.3,245.6z"/>
</g>
</svg>
