<svg xmlns="http://www.w3.org/2000/svg" viewBox="0 0 788 1005"><defs><style>.cls-1{fill:#bf8f64;}.cls-2{fill:#e1b386;}.cls-3{fill:#d68f72;}.cls-4{fill:#b9785c;}</style></defs><g id="Calque_9" data-name="Calque 9"><path class="cls-1" d="M413.81,310.49s44.37-26.34,41.87-38.59S444,179.43,436.54,180.55,409.94,275.14,413.27,293Z"/><path class="cls-2" d="M371.88,313.67s-22.76,2.35-29.72-5.09-14-80.93,2.5-118.11C359,158.18,367.46,275,372.43,292.75Z"/></g><g id="Calque_10" data-name="Calque 10"><path class="cls-3" d="M392.94,180.85c23.91,0,43.28,11.19,43.28,45.61,0,46-27.44,79-43.28,79"/><path class="cls-4" d="M427.73,269.3l6.61-24.79s7.88-8.13,13.62-2.49c3.82,3.75-5.09,29-10,30C429.66,273.78,427.73,269.3,427.73,269.3Z"/><path class="cls-4" d="M359.8,269l-8.14-24.5S343.78,236.38,338,242c-3.82,3.75,5.09,29,10,30C356.34,273.78,359.8,269,359.8,269Z"/><path class="cls-3" d="M392.94,180.85c-23.9,0-43.28,11.19-43.28,45.61,0,46,27.45,79,43.28,79"/><path class="cls-2" d="M336.8,224.47c-.72,4.09,12.93,18,12.93,18-.17-38.74,34.78-39.69,25.35-57.13-3.75-7-18.31-13.32-24.13-7.49S339.3,210.32,336.8,224.47Z"/><path class="cls-2" d="M439,220.25c-7.49-.83-69.9-28.29-71.56-42.44s41.88-7.37,41.88-7.37,30.3,3.75,32.45,14.86c1.19,6.12,3,12.93,2.89,18.82A28,28,0,0,1,439,220.25Z"/><path class="cls-2" d="M403.2,205.17c2,.66,51.15,24.11,55.45,30.06s-1,32.74-1,32.74,17.17-24.51,12.88-38-22-11-27.72-35.39C441.18,187.61,403.2,205.17,403.2,205.17Z"/></g></svg>