<?xml version="1.0" encoding="utf-8"?>
<!-- Generator: Adobe Illustrator 26.0.1, SVG Export Plug-In . SVG Version: 6.00 Build 0)  -->
<svg version="1.1" id="Calque_1" xmlns="http://www.w3.org/2000/svg" xmlns:xlink="http://www.w3.org/1999/xlink" x="0px" y="0px"
	 viewBox="0 0 788 1005" style="enable-background:new 0 0 788 1005;" xml:space="preserve">
<style type="text/css">
	.st0{fill:#B89471;}
	.st1{fill:#E1795D;}
	.st2{fill:#FD8C75;}
	.st3{fill:#FDB485;}
</style>
<path class="st0" d="M375.1,245c8.8,17.6,17.7,36.6,17.7,36.6s-7.7,5.2-25.4,5.2s-27.4-33.7-29.7-35.2l2-3.8l4.6-23l36.5-48.2
	l10.4-2.9c0,0,13.9,23.2-3,52.8C384.5,233.1,380.1,239.3,375.1,245z"/>
<g>
	<path class="st1" d="M360.8,268.5l-8.1-24.5c0,0-7.9-8.1-13.6-2.5c-3.8,3.8,5.1,29,10,30C357.3,273.3,360.8,268.5,360.8,268.5z"/>
	<path class="st1" d="M427.2,268.5l8.1-24.5c0,0,7.9-8.1,13.6-2.5c3.8,3.8-5.1,29-10,30C430.7,273.3,427.2,268.5,427.2,268.5z"/>
	<path class="st2" d="M394.2,181.2L394.2,181.2c-23.9-0.1-43.2,11.1-43.2,45.5c0,7.9,0.6,15.8,1.8,23.7c1.1,6.9,2.8,13.6,5.1,20.2
		c7.7,21.7,21.1,35.2,36.4,35.2v0.1c15.1,0,28.3-13.1,36.1-34.3c3.2-8.9,5.3-18.1,6.3-27.5c0.6-5.7,1-11.5,1-17.2
		C437.5,192.4,418.1,181.2,394.2,181.2z"/>
</g>
<path class="st3" d="M403.1,181.2c-0.1,1.6,15,3.9-19,22.9c-40.3,22.5-46.1,68.9-20.7,81.2c0,0-58.2-23-25.4-57
	c26.7-27.7,9.3-43.3,48.5-60.3C416.7,154.9,403.1,181.2,403.1,181.2z"/>
<path class="st3" d="M419.7,165.9c8.2,2.3,22.4,10.4,25.2,36.4c1.5,13.5,24.6,42.6-12,47.6c0,0,6-13.4-8-43.8
	c-11.2-24.4-28.8,6.5-24.8-24.9C402.3,164.6,413.5,164.2,419.7,165.9z"/>
</svg>
