<svg xmlns="http://www.w3.org/2000/svg" viewBox="0 0 788 1005"><defs><style>.cls-1{fill:#d68f72;}.cls-2{fill:#b9785c;}.cls-3{fill:#8c5c4b;}.cls-4{fill:#e1b386;}</style></defs><g id="Calque_10" data-name="Calque 10"><path class="cls-1" d="M393.94,178c23.91,0,43.28,11.2,43.28,45.61,0,46-27.44,79-43.28,79"/><path class="cls-2" d="M427.2,266.16l8.14-24.49s7.88-8.13,13.62-2.49c3.82,3.75-5.09,29-10,30C430.66,270.94,427.2,266.16,427.2,266.16Z"/><path class="cls-3" d="M360.8,266.16l-8.14-24.49s-7.88-8.13-13.62-2.49c-3.82,3.75,5.09,29,10,30C357.34,270.94,360.8,266.16,360.8,266.16Z"/><path class="cls-1" d="M393.94,302.63c-15.83,0-43.28-33.05-43.28-79C350.66,189.2,370,178,393.94,178"/><path class="cls-4" d="M423.64,189.56s-13.48,7.49-29.54,7.13-47.74,8.47-41.44,45-4.27,47.18-17.27,45.67-15.72-11.13-15.72-11.13,14.17-12.07,18.44-62.09c4.95-57.93,74.2-78.74,92.93-26.61,0,0,2,4.36-2.13,5.24Z"/><path class="cls-4" d="M431.53,201.13c-.44-1-1.24-3.54-.66-4.52,1.88-3.15,4.07-.09,5.27,2,1.32,2.29,2.65,7.48-1.37,6.83C433.45,205.21,432.05,202.37,431.53,201.13Z"/><path class="cls-4" d="M435.5,216.6c-.14-1.14-.25-3.75.58-4.54,2.65-2.52,3.94,1,4.54,3.32.66,2.56.55,7.92-3.15,6.22C436.25,221,435.67,217.93,435.5,216.6Z"/><path class="cls-4" d="M435.58,229.92c.15-1.13.7-3.69,1.69-4.25,3.2-1.79,3.57,2,3.57,4.35,0,2.64-1.44,7.8-4.6,5.24C435.2,234.41,435.41,231.25,435.58,229.92Z"/></g></svg>