<svg xmlns="http://www.w3.org/2000/svg" viewBox="0 0 788 1005"><defs><style>.cls-1{fill:#d68f72;}.cls-2{fill:#b9785c;}.cls-3{fill:#e1b386;}</style></defs><g id="Calque_10" data-name="Calque 10"><path class="cls-1" d="M392.94,180.85c23.91,0,43.28,11.19,43.28,45.61,0,46-27.44,79-43.28,79"/><path class="cls-2" d="M426.2,269l8.14-24.5s7.88-8.13,13.62-2.49c3.82,3.75-5.09,29-10,30C429.66,273.78,426.2,269,426.2,269Z"/><path class="cls-2" d="M359.8,269l-8.14-24.5S343.78,236.38,338,242c-3.82,3.75,5.09,29,10,30C356.34,273.78,359.8,269,359.8,269Z"/><path class="cls-1" d="M392.94,180.85c-23.9,0-43.28,11.19-43.28,45.61,0,46,27.45,79,43.28,79"/><circle class="cls-3" cx="335.79" cy="194.51" r="26.19"/><circle class="cls-3" cx="459.67" cy="194.51" r="26.19"/><path class="cls-3" d="M352.05,251.9l-8.26-5.68s-8-12.38-8-25c0-16,29-43.51,45.31-46.45a15.14,15.14,0,0,1,12.43,3.41s18.69-.6,24.29,1.73c25.45,10.57,30.61,28,29.85,39.7a79.45,79.45,0,0,1-6.46,25.31l-9.32,3.05-.52-19.22-12.5-9s-6.66-11-6.4-11,2.37,9.86,2.37,9.86-11.2.63-14.2-1.29c-2.16-1.38-5.13-8.88-5.13-8.88s-9.1,7.64-12.25,9.43c-3.63,2.06-11.48,2.77-11.48,2.77l1.32-12.78-10.2,13.31-11.33,9Z"/></g></svg>