<?xml version="1.0" encoding="utf-8"?>
<!-- Generator: Adobe Illustrator 26.0.1, SVG Export Plug-In . SVG Version: 6.00 Build 0)  -->
<svg version="1.1" id="Calque_1" xmlns="http://www.w3.org/2000/svg" xmlns:xlink="http://www.w3.org/1999/xlink" x="0px" y="0px"
	 viewBox="0 0 788 1005" style="enable-background:new 0 0 788 1005;" xml:space="preserve">
<style type="text/css">
	.st0{fill:#FDB485;}
	.st1{fill:#E1795D;}
	.st2{fill:#FD8C75;}
</style>
<g id="Calque_10">
	<path class="st0" d="M334.9,230.3c1,2.2-13.2,31.7-16.5,43.7c-6.9,25.3,27.9,50.7,27.9,50.7c17.6-4.4,26.6-8.6,26.6-8.6l1.3-35.5
		c0,0-22.6-38.1-22.2-40.4S334.9,230.3,334.9,230.3z"/>
	<path class="st0" d="M427.2,268.3c0,0,6.9,4.8,10,1.5c3.8-4,1-24.5,3.5-20c4.5,8.1,13.8,24.1,17.7,28.6
		c8.6,9.9-10.7,49.1-21.3,45.5s-19.6-1.7-22.2-7.8c-2-4.9-0.8-23.8-0.8-23.8L427.2,268.3z"/>
	<g>
		<path class="st1" d="M360.8,268.5l-8.1-24.5c0,0-7.9-8.1-13.6-2.5c-3.8,3.8,5.1,29,10,30C357.3,273.3,360.8,268.5,360.8,268.5z"/>
		<path class="st1" d="M427.2,268.5l8.1-24.5c0,0,7.9-8.1,13.6-2.5c3.8,3.8-5.1,29-10,30C430.7,273.3,427.2,268.5,427.2,268.5z"/>
		<path class="st2" d="M394.2,181.2L394.2,181.2c-23.9-0.1-43.2,11.1-43.2,45.5c0,7.9,0.6,15.8,1.8,23.7c1.1,6.9,2.8,13.6,5.1,20.2
			c7.7,21.7,21.1,35.2,36.4,35.2v0.1c15.1,0,28.3-13.1,36.1-34.3c3.2-8.9,5.3-18.1,6.3-27.5c0.6-5.7,1-11.5,1-17.2
			C437.5,192.4,418.1,181.2,394.2,181.2z"/>
	</g>
	<path class="st0" d="M458.5,278.3c-19.9-30.2-21.2-95.9-30.8-98.6c-13.8-3.9-18.3,4.2-18.3,4.2l-5,11.6c0,0,25.8,4.2,25.8,22.5
		s15,46.6,5,55.8"/>
	<path class="st0" d="M339,241.3c4.1-6.6,13.6,2.5,13.6,2.5s-4.7-32.1,40.9-39.9c26.6-4.6,17.3-29.3,10.6-30.2s-18.8,1.3-24.1,2.3
		c-3.7,0.7-14.8,2.2-22.3,8.8s-14.9,19.8-22.9,46.5"/>
</g>
</svg>
