<?xml version="1.0" encoding="utf-8"?>
<!-- Generator: Adobe Illustrator 26.0.1, SVG Export Plug-In . SVG Version: 6.00 Build 0)  -->
<svg version="1.1" id="Calque_1" xmlns="http://www.w3.org/2000/svg" xmlns:xlink="http://www.w3.org/1999/xlink" x="0px" y="0px"
	 viewBox="0 0 200 200" style="enable-background:new 0 0 200 200;" xml:space="preserve">
<style type="text/css">
	.st0{fill:#B89471;}
	.st1{fill:#E1795D;}
	.st2{fill:#FD8C75;}
	.st3{fill:#FDB485;}
</style>
<g>
	<path class="st0" d="M71.2,104.8C80,122.4,89,141.4,89,141.4s-7.7,5.2-25.4,5.2s-27.4-33.7-29.7-35.2l2-3.8l4.6-23L77,36.4
		l10.4-2.9c0,0,13.9,23.2-3,52.8C80.6,92.9,76.2,99.1,71.2,104.8z"/>
	<g>
		<path class="st1" d="M56.9,128.3l-8.1-24.5c0,0-7.9-8.1-13.6-2.5c-3.8,3.8,5.1,29,10,30C53.4,133.1,56.9,128.3,56.9,128.3z"/>
		<path class="st1" d="M123.4,128.3l8.1-24.5c0,0,7.9-8.1,13.6-2.5c3.8,3.8-5.1,29-10,30C126.9,133.1,123.4,128.3,123.4,128.3z"/>
		<path class="st2" d="M90.4,41L90.4,41c-23.9-0.1-43.2,11.1-43.2,45.5c0,7.9,0.6,15.8,1.8,23.7c1.1,6.9,2.8,13.6,5.1,20.2
			c7.7,21.7,21.1,35.2,36.4,35.2v0.1c15.1,0,28.3-13.1,36.1-34.3c3.2-8.9,5.3-18.1,6.3-27.5c0.6-5.7,1-11.5,1-17.2
			C133.6,52.2,114.2,41,90.4,41z"/>
	</g>
	<path class="st3" d="M99.2,41c-0.1,1.6,15,3.9-19,22.9C40,86.4,34.1,132.8,59.5,145.1c0,0-58.2-23-25.4-57
		c26.7-27.7,9.3-43.3,48.5-60.3C112.9,14.7,99.2,41,99.2,41z"/>
	<path class="st3" d="M115.9,25.7c8.2,2.3,22.4,10.4,25.2,36.4c1.5,13.5,24.6,42.6-12,47.6c0,0,6-13.4-8-43.8
		C109.9,41.5,92.3,72.4,96.3,41C98.4,24.4,109.6,24,115.9,25.7z"/>
</g>
</svg>
