<svg xmlns="http://www.w3.org/2000/svg" xmlns:xlink="http://www.w3.org/1999/xlink" viewBox="0 0 788 1005"><defs><style>.cls-1{fill:none;}.cls-2{fill:#d68f72;}.cls-3{fill:#b9785c;}.cls-4{clip-path:url(#clip-path);}.cls-5{fill:#955a40;}.cls-6{clip-path:url(#clip-path-2);}.cls-7{fill:#e1b386;}</style><clipPath id="clip-path"><polygon class="cls-1" points="431.25 250.65 431.25 250.65 442.67 250.65 442.67 264.52 431.25 264.52 431.25 250.65"/></clipPath><clipPath id="clip-path-2"><polygon class="cls-1" points="353.81 250.65 353.81 250.65 342.38 250.65 342.38 264.52 353.81 264.52 353.81 250.65"/></clipPath></defs><g id="Calque_10" data-name="Calque 10"><path class="cls-2" d="M390.58,181.91c23.91,0,43.28,11.19,43.28,45.61,0,46-27.44,79-43.28,79"/><path class="cls-3" d="M425.37,270.36,432,245.57s7.88-8.13,13.62-2.49c3.82,3.75-5.09,29-10,30C427.3,274.84,425.37,270.36,425.37,270.36Z"/><path class="cls-3" d="M357.44,270.07l-8.14-24.5s-7.88-8.13-13.62-2.49c-3.82,3.75,5.09,29,10,30C354,274.84,357.44,270.07,357.44,270.07Z"/><path class="cls-2" d="M390.58,181.91c-23.9,0-43.28,11.19-43.28,45.61,0,46,27.45,79,43.28,79"/><g class="cls-4"><path class="cls-5" d="M431.53,258.76c0-.25.71-1.63,5.33-5.32a14.09,14.09,0,0,1,5.31-2.79,2.14,2.14,0,0,1,.47,1.89c-.13.84-4.16,2.89-5.41,4a49.17,49.17,0,0,0-6,8Z"/></g><g class="cls-6"><path class="cls-5" d="M353.52,258.76c0-.25-.71-1.63-5.33-5.32a14,14,0,0,0-5.31-2.79,2.14,2.14,0,0,0-.47,1.89c.13.84,4.16,2.89,5.41,4a49.17,49.17,0,0,1,6,8Z"/></g><path class="cls-7" d="M349.3,245.57S307.81,192,377,174.82c0,0-37.82-33.89,12.66-33.89,51.55,0,15.64,32.41,12.92,33,0,0,66.46,27.46,29.44,71.6,0,0-1.44-40.35-8.75-43.47a97.4,97.4,0,0,0-.58,10,146.1,146.1,0,0,1-32.47,3,227.37,227.37,0,0,1-36.11-3.49v-9.65C344.82,208.49,349.3,245.57,349.3,245.57Z"/></g></svg>