<?xml version="1.0" encoding="utf-8"?>
<!-- Generator: Adobe Illustrator 26.0.1, SVG Export Plug-In . SVG Version: 6.00 Build 0)  -->
<svg version="1.1" id="Calque_1" xmlns="http://www.w3.org/2000/svg" xmlns:xlink="http://www.w3.org/1999/xlink" x="0px" y="0px"
	 viewBox="0 0 788 1005" style="enable-background:new 0 0 788 1005;" xml:space="preserve">
<style type="text/css">
	.st0{fill:#B89471;}
	.st1{fill:#FDB485;}
	.st2{fill:#E1795D;}
	.st3{fill:#FD8C75;}
</style>
<g id="Calque_10">
	<path class="st0" d="M430.2,184.3c0,0,30.6,21.2,26.2,65.5c-3.7,37.1-42.4,67-42.4,67l-2.9-21.5l15-26.2l2.2-66.9L430.2,184.3z"/>
	<path class="st1" d="M422.1,309.7c-0.8,0.6,28.3-32.8,25-54.3s2.3-23.7,2.9-23.2s7.2,20.5,7.2,20.9S450,287.6,422.1,309.7z"/>
	<g>
		<path class="st2" d="M360.8,268.5l-8.1-24.5c0,0-7.9-8.1-13.6-2.5c-3.8,3.8,5.1,29,10,30C357.3,273.3,360.8,268.5,360.8,268.5z"/>
		<path class="st2" d="M427.2,268.5l8.1-24.5c0,0,7.9-8.1,13.6-2.5c3.8,3.8-5.1,29-10,30C430.7,273.3,427.2,268.5,427.2,268.5z"/>
		<path class="st3" d="M394.2,181.2L394.2,181.2c-23.9-0.1-43.2,11.1-43.2,45.5c0,7.9,0.6,15.8,1.8,23.7c1.1,6.9,2.8,13.6,5.1,20.2
			c7.7,21.7,21.1,35.2,36.4,35.2v0.1c15.1,0,28.3-13.1,36.1-34.3c3.2-8.9,5.3-18.1,6.3-27.5c0.6-5.7,1-11.5,1-17.2
			C437.5,192.4,418.1,181.2,394.2,181.2z"/>
	</g>
	<path class="st1" d="M351,244.1l-6.8-3.9c0,0-7-12.1-6.9-24c0-15.1,28.2-41.1,44-43.8c4.3-0.7,8.7,0.4,12.1,3.2
		c0,0,18.2-0.6,23.6,1.6c24.7,10,29.8,26.4,29,37.5c-0.9,12.6-2.8,25.4-2.8,25.4l-8.9,4.5l-4.1-21.2l-12.1-8.5
		c0,0-6.5-10.4-6.2-10.4s2.3,9.3,2.3,9.3s-10.9,0.6-13.8-1.2c-2.1-1.3-5-8.4-5-8.4s-8.8,7.2-11.9,8.9c-3.5,1.9-11.1,2.6-11.1,2.6
		l1.3-12.1l-9.9,12.6l-11,8.5L351,244.1z"/>
	<path class="st1" d="M393.4,175.5c0,0,15.8-7.4,24.9-1.6s31.2,19.8,37.6,46.4c4.4,18.4,3,34.2-4.5,48.6c0,0-17.4-0.8-17.1-24.4
		c0.4-31.5-22.5-40.1-22.5-40.1L393.4,175.5z"/>
</g>
</svg>
