<svg xmlns="http://www.w3.org/2000/svg" viewBox="0 0 788 1005"><defs><style>.cls-1{fill:#b89471;}.cls-2{fill:#d68f72;}.cls-3{fill:#b9785c;}.cls-4{fill:#e1b386;}</style></defs><g id="Calque_10" data-name="Calque 10"><path class="cls-1" d="M375.09,245c8.81,17.63,17.69,36.58,17.69,36.58s-7.72,5.25-25.39,5.25S340,253.17,337.72,251.64l2-3.78,4.59-23,36.53-48.24,10.43-2.91s13.88,23.22-3,52.75A107,107,0,0,1,375.09,245Z"/><path class="cls-2" d="M392.94,180.85c23.91,0,43.28,11.19,43.28,45.61,0,46-27.44,79-43.28,79"/><path class="cls-3" d="M427.73,269.3l6.61-24.79s7.88-8.13,13.62-2.49c3.82,3.75-5.09,29-10,30C429.66,273.78,427.73,269.3,427.73,269.3Z"/><path class="cls-3" d="M359.8,269l-8.14-24.5S343.78,236.38,338,242c-3.82,3.75,5.09,29,10,30C356.34,273.78,359.8,269,359.8,269Z"/><path class="cls-2" d="M392.94,180.85c-23.9,0-43.28,11.19-43.28,45.61,0,46,27.45,79,43.28,79"/><path class="cls-4" d="M401,181.23c-.12,1.6,15,3.93-19,22.92-40.27,22.46-46.09,68.91-20.7,81.18,0,0-58.22-23-25.39-57,26.7-27.66,9.34-43.28,48.48-60.32C414.58,154.91,401,181.23,401,181.23Z"/><path class="cls-4" d="M419.66,165.94c8.25,2.32,22.41,10.44,25.21,36.45,1.45,13.48,24.62,42.56-12,47.59,0,0,6.05-13.4-8-43.82-11.24-24.4-28.79,6.46-24.77-24.93C402.26,164.63,413.49,164.2,419.66,165.94Z"/></g></svg>