<?xml version="1.0" encoding="utf-8"?>
<!-- Generator: Adobe Illustrator 26.0.1, SVG Export Plug-In . SVG Version: 6.00 Build 0)  -->
<svg version="1.1" id="Calque_1" xmlns="http://www.w3.org/2000/svg" xmlns:xlink="http://www.w3.org/1999/xlink" x="0px" y="0px"
	 viewBox="0 0 788 1005" style="enable-background:new 0 0 788 1005;" xml:space="preserve">
<style type="text/css">
	.st0{fill:#D68F67;}
	.st1{fill:#FDB485;}
	.st2{fill:#E1795D;}
	.st3{fill:#FD8C75;}
</style>
<g id="Calque_9">
	<path class="st0" d="M413.8,310.5c0,0,44.4-26.3,41.9-38.6s-11.7-92.5-19.1-91.3s-26.6,94.6-23.3,112.4L413.8,310.5z"/>
	<path class="st1" d="M371.9,313.7c0,0-22.8,2.4-29.7-5.1s-14-80.9,2.5-118.1c14.3-32.3,22.8,84.5,27.8,102.3L371.9,313.7z"/>
</g>
<g>
	<path class="st2" d="M360.8,268.5l-8.1-24.5c0,0-7.9-8.1-13.6-2.5c-3.8,3.8,5.1,29,10,30C357.3,273.3,360.8,268.5,360.8,268.5z"/>
	<path class="st2" d="M427.2,268.5l8.1-24.5c0,0,7.9-8.1,13.6-2.5c3.8,3.8-5.1,29-10,30C430.7,273.3,427.2,268.5,427.2,268.5z"/>
	<path class="st3" d="M394.2,181.2L394.2,181.2c-23.9-0.1-43.2,11.1-43.2,45.5c0,7.9,0.6,15.8,1.8,23.7c1.1,6.9,2.8,13.6,5.1,20.2
		c7.7,21.7,21.1,35.2,36.4,35.2v0.1c15.1,0,28.3-13.1,36.1-34.3c3.2-8.9,5.3-18.1,6.3-27.5c0.6-5.7,1-11.5,1-17.2
		C437.5,192.4,418.1,181.2,394.2,181.2z"/>
</g>
<path class="st1" d="M336.8,224.5c-0.7,4.1,12.9,18,12.9,18c-0.2-38.7,34.8-39.7,25.4-57.1c-3.8-7-18.3-13.3-24.1-7.5
	S339.3,210.3,336.8,224.5z"/>
<path class="st1" d="M439,220.2c-7.5-0.8-69.9-28.3-71.6-42.4s41.9-7.4,41.9-7.4s30.3,3.8,32.5,14.9c1.2,6.1,3,12.9,2.9,18.8
	C444.5,210,442.5,215.6,439,220.2z"/>
<path class="st1" d="M403.2,205.2c2,0.7,51.1,24.1,55.5,30.1s-1,32.7-1,32.7s17.2-24.5,12.9-38s-22-11-27.7-35.4
	C441.2,187.6,403.2,205.2,403.2,205.2z"/>
</svg>
