<?xml version="1.0" encoding="utf-8"?>
<!-- Generator: Adobe Illustrator 26.0.1, SVG Export Plug-In . SVG Version: 6.00 Build 0)  -->
<svg version="1.1" id="Calque_1" xmlns="http://www.w3.org/2000/svg" xmlns:xlink="http://www.w3.org/1999/xlink" x="0px" y="0px"
	 viewBox="0 0 788 1005" style="enable-background:new 0 0 788 1005;" xml:space="preserve">
<style type="text/css">
	.st0{fill:#795333;}
	.st1{fill:#D68F72;}
	.st2{fill:#E1795D;}
	.st3{fill:#FD8C75;}
	.st4{fill:#FDB485;}
</style>
<path class="st0" d="M407.4,277.9c0,4-3.7,22.2,0,20.4s44.9-5.3,44.9-5.3L435,247L407.4,277.9z"/>
<path class="st0" d="M354.7,261.3l18.6,26.2l-0.9,13.5c0,0-35.6-15.3-42.8-23.1S354.7,261.3,354.7,261.3z"/>
<path class="st1" d="M393.9,180.4c23.9,0,43.3,11.2,43.3,45.6c0,46-27.4,79-43.3,79"/>
<g>
	<path class="st2" d="M360.8,268.5l-8.1-24.5c0,0-7.9-8.1-13.6-2.5c-3.8,3.8,5.1,29,10,30C357.3,273.3,360.8,268.5,360.8,268.5z"/>
	<path class="st2" d="M427.2,268.5l8.1-24.5c0,0,7.9-8.1,13.6-2.5c3.8,3.8-5.1,29-10,30C430.7,273.3,427.2,268.5,427.2,268.5z"/>
	<path class="st3" d="M394.2,181.2L394.2,181.2c-23.9-0.1-43.2,11.1-43.2,45.5c0,7.9,0.6,15.8,1.8,23.7c1.1,6.9,2.8,13.6,5.1,20.2
		c7.7,21.7,21.1,35.2,36.4,35.2v0.1c15.1,0,28.3-13.1,36.1-34.3c3.2-8.9,5.3-18.1,6.3-27.5c0.6-5.7,1-11.5,1-17.2
		C437.5,192.4,418.1,181.2,394.2,181.2z"/>
</g>
<path class="st4" d="M354.8,225.1c4.3-6.8,20.2-12.5,25.4-19.9s5.1-9.5,5.1-9.5c2.6,8.1,54.2,5,50.6,33c0,0-10.4,47.4-0.5,57
	c5.9,5.8,13.3,9.8,17,7.5s-1.7-36.1,4.4-53.6c6.3-18-9.5-34.9-16.2-42.3s-29.4-30.2-41.2-28.7s-23.5,5.1-22.1,14
	c0,0-15.5-7.4-22.1,6.6s-33.9,80.9-33.9,80.9l0,0c0,0-0.2,8.2,14,8.9c7,0.3,12.5-4.8,14-11.5C355.6,239.6,352.2,229.1,354.8,225.1z"
	/>
</svg>
