<?xml version="1.0" encoding="utf-8"?>
<!-- Generator: Adobe Illustrator 26.0.1, SVG Export Plug-In . SVG Version: 6.00 Build 0)  -->
<svg version="1.1" id="Calque_1" xmlns="http://www.w3.org/2000/svg" xmlns:xlink="http://www.w3.org/1999/xlink" x="0px" y="0px"
	 viewBox="0 0 200 200" style="enable-background:new 0 0 200 200;" xml:space="preserve">
<style type="text/css">
	.st0{fill:#D68F67;}
	.st1{fill:#B89471;}
	.st2{fill:#E1795D;}
	.st3{fill:#FD8C75;}
	.st4{fill:#FDB485;}
</style>
<g id="Calque_10_00000152259385666874928240000011234206120528109215_">
	<path class="st0" d="M127.2,193.3c-4-1.4-7.3-3.2-9.2-5.9l-0.6-17.8c8.5-8.9,16.2-22.8,20.5-40.2c1,4.3,2.1-40.5,2.6-36.4
		c0.4,3.8,8.8,11.1,8.7,14.7C148.8,123.5,135.3,183.1,127.2,193.3z"/>
	<path class="st0" d="M99.9,75.1v63.6h-2l-18.3,0.8l-0.7,20.2L78,187.4c-2.4,3.4-7,5.5-12.6,7C55.3,184.6,47,170.6,42,153.8
		c-11.3-37.9-1.3-73.2,26.3-81.4C78.7,69.1,89.7,70.3,99.9,75.1z"/>
	<path class="st1" d="M102.2,62.3c-1.2-0.7-9.1-21.9-8.3-22.3s10.3-1,15.2,0s16,15.1,15.7,19.1s-3.4,5.9-9,5.6
		C111.2,64.3,106.6,63.5,102.2,62.3z"/>
	<path class="st1" d="M119.2,61.6c-3.6-5.8,0.8,4.7-27.5,1.7C78,61.9,49.2,77.9,53.5,129c0,0,11-58.7,56.4-55.7
		C109.8,73.3,123.3,68.1,119.2,61.6z"/>
	<g>
		<path class="st2" d="M65.8,138.9l-8.1-24.5c0,0-7.9-8.1-13.6-2.5c-3.8,3.8,5.1,29,10,30C62.3,143.7,65.8,138.9,65.8,138.9z"/>
		<path class="st2" d="M132.2,138.9l8.1-24.5c0,0,7.9-8.1,13.6-2.5c3.8,3.8-5.1,29-10,30C135.7,143.7,132.2,138.9,132.2,138.9z"/>
		<path class="st3" d="M99.2,51.6L99.2,51.6C75.3,51.5,56,62.7,56,97.1c0,7.9,0.6,15.8,1.8,23.7c1.1,6.9,2.8,13.6,5.1,20.2
			c7.7,21.7,21.1,35.2,36.4,35.2v0.1c15.1,0,28.3-13.1,36.1-34.3c3.2-8.9,5.3-18.1,6.3-27.5c0.6-5.7,1-11.5,1-17.2
			C142.5,62.8,123.1,51.6,99.2,51.6z"/>
	</g>
	<path class="st4" d="M106.3,40.3c-0.7,0.2,6.2,4.3,8.5,8.4s5.2,7.2,5.6,13.7c0.8,15.4,25.4,34.2,25.4,56c0,17-18.1,43.1-19.1,60
		c-2.4,38.6,21.9,44.9,21.9,44.9s-5.3-27.5-5.3-37.4c0-63.7,34.3-47,12.8-100.9C142.5,51.4,113.4,37.8,106.3,40.3z"/>
	<path class="st4" d="M68.8,261.1c0,0,8.7-39.5-21.5-75.6c-15.9-19-31.1-57-11.7-81c14.3-17.6,12.2-34.7,22.5-46.1
		c31.4-34.7,51.6-17.9,57.8-5.1c3.5,7.3,4.9,9.2,1.2,14.3c-12.3,17-32.9-17.3-63.2,52.6c-6.4,14.7,21.4,55.4,32.6,70.5
		C122,238.6,68.8,261.1,68.8,261.1z"/>
</g>
</svg>
