<svg xmlns="http://www.w3.org/2000/svg" viewBox="0 0 788 1005"><defs><style>.cls-1{fill:#795333;}.cls-2{fill:#d68f72;}.cls-3{fill:#b9785c;}.cls-4{fill:#e1b386;}</style></defs><g id="Calque_9" data-name="Calque 9"><path class="cls-1" d="M407.39,277.93c0,4-3.68,22.19,0,20.44s44.88-5.27,44.88-5.27L435,247Z"/><path class="cls-1" d="M354.67,261.3l18.58,26.18L372.33,301s-35.61-15.27-42.82-23.07S354.67,261.3,354.67,261.3Z"/></g><g id="Calque_10" data-name="Calque 10"><path class="cls-2" d="M393.94,180.37c23.91,0,43.28,11.19,43.28,45.61,0,46-27.44,79-43.28,79"/><path class="cls-3" d="M427.2,268.53l8.14-24.5s7.88-8.13,13.62-2.49c3.82,3.75-5.09,29-10,30C430.66,273.3,427.2,268.53,427.2,268.53Z"/><path class="cls-3" d="M360.8,268.53,352.66,244s-7.88-8.13-13.62-2.49c-3.82,3.75,5.09,29,10,30C357.34,273.3,360.8,268.53,360.8,268.53Z"/><path class="cls-2" d="M393.94,180.37c-23.9,0-43.28,11.19-43.28,45.61,0,46,27.45,79,43.28,79"/><path class="cls-4" d="M354.76,225.1c4.3-6.82,20.22-12.54,25.37-19.9s5.13-9.5,5.13-9.5c2.57,8.05,54.25,5,50.57,33,0,0-10.39,47.35-.55,57,5.87,5.75,13.32,9.83,17,7.46s-1.69-36.14,4.39-53.55c6.29-18-9.54-34.91-16.16-42.27s-29.43-30.17-41.2-28.69-23.55,5.15-22.08,14c0,0-15.45-7.36-22.07,6.62s-33.85,80.94-33.85,80.94h0s-.21,8.17,14,8.86c7,.34,12.49-4.75,14-11.54C355.58,239.55,352.22,229.13,354.76,225.1Z"/></g></svg>