<svg xmlns="http://www.w3.org/2000/svg" viewBox="0 0 788 1005"><defs><style>.cls-1{fill:#9b704c;}.cls-2{fill:#b89471;}.cls-3{fill:#d68f72;}.cls-4{fill:#b9785c;}.cls-5{fill:#e7b687;}.cls-6{fill:#e1b386;}</style></defs><g id="Calque_10" data-name="Calque 10"><path class="cls-1" d="M424.22,322.87c-4-1.39-7.29-3.23-9.18-5.93l-.61-17.76c8.49-8.86,16.24-22.83,20.46-40.2,1,4.26,2.15-40.53,2.56-36.36.37,3.76,8.81,11.06,8.72,14.69C445.76,253.1,432.32,312.73,424.22,322.87Z"/><path class="cls-1" d="M394.94,204.7v63.55h-2l-18.32.81-.69,20.18-.94,27.7c-2.4,3.44-7,5.47-12.61,7-10.09-9.75-18.4-23.84-23.42-40.65-11.32-37.91-1.34-73.17,26.29-81.43C373.7,198.71,384.71,199.92,394.94,204.7Z"/><path class="cls-2" d="M397.19,191.9c-1.22-.66-9.15-21.92-8.33-22.27s10.27-1,15.17,0,16.05,15.14,15.71,19.11-3.4,5.94-9,5.61A85.83,85.83,0,0,1,397.19,191.9Z"/><path class="cls-3" d="M438.22,230.72A119.34,119.34,0,0,1,434.89,259c-4.22,17.37-12,31.34-20.46,40.2C408,306,401,309.74,394.94,309.74V185.11C418.84,185.11,438.22,196.31,438.22,230.72Z"/><path class="cls-3" d="M394.94,185.11c-23.9,0-43.28,11.2-43.28,45.61,0,46,26.34,79,43.28,79"/><path class="cls-4" d="M430.39,273.27,437,248.2s9.43-7.55,15.17-1.91c3.82,3.75-5.09,29-10,30C433.85,278.05,430.39,273.27,430.39,273.27Z"/><path class="cls-4" d="M359.8,273.27l-7.71-27.42s-8.31-5.2-14,.44c-3.82,3.75,5.09,29,10,30C356.34,278.05,359.8,273.27,359.8,273.27Z"/><path class="cls-5" d="M401.29,169.92c-.73.25,6.16,4.26,8.47,8.35s5.23,7.22,5.58,13.69c.84,15.36,25.44,34.2,25.44,56,0,17-18.08,43.14-19.12,60-2.39,38.56,21.86,44.89,21.86,44.89s-5.34-27.51-5.34-37.44c0-63.71,34.33-47,12.77-100.87C437.49,181,408.4,167.44,401.29,169.92Z"/><path class="cls-6" d="M363.82,390.73s8.66-39.53-21.51-75.61c-15.92-19-31.15-57-11.69-81,14.28-17.65,12.17-34.72,22.46-46.06,31.42-34.66,51.6-17.91,57.77-5.07,3.52,7.31,4.93,9.21,1.23,14.34-12.27,17-32.93-17.28-63.16,52.64-6.36,14.72,21.39,55.44,32.59,70.53C417,368.22,363.82,390.73,363.82,390.73Z"/><path class="cls-2" d="M414.2,191.21c-3.62-5.77.76,4.69-27.54,1.72-13.74-1.44-42.55,14.63-38.24,65.68,0,0,11-58.72,56.39-55.69C404.81,202.92,418.26,197.67,414.2,191.21Z"/></g></svg>