<svg xmlns="http://www.w3.org/2000/svg" viewBox="0 0 788 1005"><defs><style>.cls-1{fill:#e1b386;}.cls-2{fill:#d68f72;}.cls-3{fill:#b9785c;}</style></defs><g id="Calque_10" data-name="Calque 10"><path class="cls-1" d="M334.89,230.31c.95,2.18-13.21,31.67-16.47,43.71-6.86,25.34,27.94,50.7,27.94,50.7,17.57-4.42,26.6-8.65,26.6-8.65l1.33-35.47s-22.6-38.08-22.16-40.37S334.89,230.31,334.89,230.31Z"/><path class="cls-2" d="M393.94,180.13c23.91,0,43.28,11.2,43.28,45.61,0,46-27.44,79-43.28,79"/><path class="cls-3" d="M427.2,268.29l8.14-24.49s7.88-8.13,13.62-2.49c3.82,3.75-5.09,29-10,30C430.66,273.07,427.2,268.29,427.2,268.29Z"/><path class="cls-3" d="M360.8,268.29l-8.14-24.49s-7.88-8.13-13.62-2.49c-3.82,3.75,5.09,29,10,30C357.34,273.07,360.8,268.29,360.8,268.29Z"/><path class="cls-2" d="M393.94,180.13c-23.9,0-43.28,11.2-43.28,45.61,0,46,27.45,79,43.28,79"/><path class="cls-1" d="M339,241.31c4.07-6.55,13.62,2.49,13.62,2.49s-4.71-32.08,40.89-39.9c26.57-4.55,17.31-29.33,10.65-30.16S385.38,175,380.07,176c-3.66.68-14.81,2.16-22.3,8.82s-14.94,19.78-22.88,46.53"/><path class="cls-1" d="M458.48,278.34c-19.94-30.23-21.2-95.86-30.81-98.57-13.8-3.88-18.31,4.16-18.31,4.16l-5,11.65s25.79,4.16,25.79,22.47,15,46.6,5,55.75"/><path class="cls-1" d="M427.2,268.29s6.87,4.76,10,1.45c3.78-4,1-24.54,3.52-20,4.5,8.14,13.84,24.08,17.74,28.58,8.58,9.89-10.69,49.1-21.26,45.49s-19.62-1.66-22.18-7.76c-2-4.86-.81-23.77-.81-23.77Z"/></g></svg>