<svg xmlns="http://www.w3.org/2000/svg" xmlns:xlink="http://www.w3.org/1999/xlink" viewBox="0 0 788 1005"><defs><style>.cls-1{fill:none;}.cls-2{fill:#b89471;}.cls-3{fill:#d68f72;}.cls-4{fill:#b9785c;}.cls-5{clip-path:url(#clip-path);}.cls-6{fill:#6e4031;}.cls-7{clip-path:url(#clip-path-2);}.cls-8{fill:#e1b386;}</style><clipPath id="clip-path"><polygon class="cls-1" points="430.44 248.54 430.44 248.54 441.86 248.54 441.86 262.41 430.44 262.41 430.44 248.54"/></clipPath><clipPath id="clip-path-2"><polygon class="cls-1" points="352.99 248.54 352.99 248.54 341.57 248.54 341.57 262.41 352.99 262.41 352.99 248.54"/></clipPath></defs><g id="Calque_10" data-name="Calque 10"><path class="cls-2" d="M430.22,184.28s30.59,21.17,26.19,65.48c-3.69,37.12-42.37,67-42.37,67l-2.88-21.54,15-26.23,2.22-66.87Z"/><path class="cls-3" d="M392.94,180.85c23.91,0,43.28,11.19,43.28,45.61,0,46-27.44,79-43.28,79"/><path class="cls-4" d="M427.73,269.3l6.61-24.79s7.88-8.13,13.62-2.49c3.82,3.75-5.09,29-10,30C429.66,273.78,427.73,269.3,427.73,269.3Z"/><path class="cls-4" d="M359.8,269l-8.14-24.5S343.78,236.38,338,242c-3.82,3.75,5.09,29,10,30C356.34,273.78,359.8,269,359.8,269Z"/><path class="cls-3" d="M392.94,180.85c-23.9,0-43.28,11.19-43.28,45.61,0,46,27.45,79,43.28,79"/><g class="cls-5"><path class="cls-6" d="M430.72,256.65c0-.25.71-1.63,5.33-5.32a14,14,0,0,1,5.31-2.79,2.13,2.13,0,0,1,.47,1.88c-.13.85-4.16,2.9-5.41,4-1.91,1.68-6,7.78-6,8Z"/></g><g class="cls-7"><path class="cls-6" d="M352.71,256.65c0-.25-.71-1.63-5.33-5.32a14.09,14.09,0,0,0-5.31-2.79,2.13,2.13,0,0,0-.47,1.88c.13.85,4.16,2.9,5.41,4,1.9,1.68,6,7.78,6,8Z"/></g><path class="cls-8" d="M351,244.06l-6.77-3.87s-7-12.07-6.94-24c.05-15.13,28.19-41.07,44-43.84a15,15,0,0,1,12.08,3.21s18.16-.56,23.6,1.64c24.73,10,29.75,26.43,29,37.47-.85,12.65-2.82,25.38-2.82,25.38l-8.88,4.48-4.14-21.24-12.15-8.47s-6.47-10.41-6.22-10.41,2.31,9.3,2.31,9.3-10.89.6-13.81-1.22c-2.09-1.3-5-8.37-5-8.37s-8.84,7.2-11.9,8.9c-3.53,1.94-11.15,2.61-11.15,2.61l1.28-12.06-9.91,12.56-11,8.49Z"/><path class="cls-8" d="M393.43,175.54s15.79-7.38,24.9-1.63,31.23,19.75,37.61,46.4c4.42,18.44,3,34.16-4.46,48.58,0,0-17.44-.8-17.14-24.38.39-31.5-22.51-40.12-22.51-40.12Z"/><path class="cls-8" d="M422.06,309.74c-.76.6,28.27-32.79,25-54.26s2.26-23.69,2.92-23.24,7.23,20.48,7.16,20.85S450,287.6,422.06,309.74Z"/></g></svg>