<svg xmlns="http://www.w3.org/2000/svg" viewBox="0 0 200 200"><defs><style>.cls-1{fill:#d48f72;}.cls-2{fill:#a85d3d;}.cls-3{fill:#d79072;}.cls-4{fill:none;}.cls-5{fill:#46455b;}.cls-6{fill:#c77a58;}.cls-7{fill:#37344d;}.cls-8{fill:#da9172;}</style></defs><g id="Calque_5" data-name="Calque 5"><polygon points="22.76 174.54 22.8 174.52 22.76 174.5 22.76 174.54"/><polygon points="22.8 174.52 22.85 174.54 22.85 174.5 22.8 174.52"/><polygon points="22.76 174.54 22.8 174.52 22.76 174.5 22.76 174.54"/><polygon points="22.8 174.52 22.85 174.54 22.85 174.5 22.8 174.52"/><path class="cls-1" d="M153.7,66.46c-.27,17.6-12,15.21-16.9,19.39-5.77,4.94-3.79,22.94-7.88,29.35-1.12,1.76-5.2,4.63-7.24,4.16-5.74-1.31-11-14.09-15.94-17.3-2.9-1.89-10.81-1.66-13.84,0-5.16,2.83-10.21,16-16,17.3-2,.47-6.12-2.4-7.24-4.16-4.09-6.41-2.11-24.41-7.88-29.35C56,81.67,44.21,84.06,43.93,66.46c-.19-12.19,16-17.12,16-17.12l18.41-9.13A14.12,14.12,0,0,0,81.63,38a11.56,11.56,0,0,0,1.05-1c.1-.1.2-.21.29-.32l0,0a14.55,14.55,0,0,0,3.31-7.53,13.74,13.74,0,0,0,.11-1.92V23.78H111l0,2.27v.69l0,1.47c0,.15,0,.31,0,.46v0c0,.29,0,.59.07.89a13.72,13.72,0,0,0,.43,2.1,13,13,0,0,0,6.74,8.06L136.88,49a14.3,14.3,0,0,0,1.45.61C141.39,50.66,153.87,55.76,153.7,66.46Z"/><path class="cls-1" d="M111.35,45.91l-12.6,14.9L92,52.7l-5.68-6.79.33-19v-1l0-2.06H111v.1L111,26h0v.71l0,1.93v.6l.05,3.12Z"/><path class="cls-2" d="M111.58,31.81l-.46.58C108.75,35.29,97.9,48.45,92,52.7c-1.47,1-2.63,1.56-3.3,1.24-3.1-1.5-6.81-16.1-6.81-16.1l0,0a8.18,8.18,0,0,0,.79-.86c.15-.17.31-.37.49-.6l0,0a17.91,17.91,0,0,0,3.06-7l.06-.29c.12-.63.22-1.38.3-2.21q0-.49.09-1c0-.65.09-1.34.12-2.06H111v2.06l0,3.08.07.35.06.31.43,2.1Z"/><path class="cls-3" d="M189.67,90.27c-8.51-3.29-15,5.41-17.15,8.71s-4.89,11-6.25,14.74c-3.46,9.64-8,26.29-11.55,35.67-2.31,6.17-3.71,9.36-.16,11.88,3.23,2.3,7.39-2.63,9.05-4.54,6.81-7.89,20.31-23.12,26.06-32.51,2.36-3.86,6.41-12.1,7.39-16.52C199.78,95.35,192.14,91.22,189.67,90.27Z"/><path class="cls-4" d="M116.34,134.16c7.4,2.4,10.63,4.41,12.4,7.59,1.42,2.58,2.76,8.48,2.87,11.42.25,6.91-3.56,24.27-10.05,30.07s-38.88,5.89-45.48,0S65.77,160.08,66,153.17c.11-2.94,1.45-8.84,2.88-11.42,1.76-3.18,5-5.19,12.4-7.59a54,54,0,0,1,17.09-2.31A58.37,58.37,0,0,1,116.34,134.16Z"/><path class="cls-3" d="M16.29,119.26c9.12-.07,11.94-10.54,12.74-14.4s.53-12,.4-16c-.32-10.24-2.18-27.4-2.35-37.42-.12-6.59,0-10.06-4.22-11.11-3.85-1-5.91,5.16-6.74,7.55-3.44,9.84-10.41,29-12.3,39.81C3,92.14,2.3,101.29,3,105.76,5,118.25,13.64,119.28,16.29,119.26Z"/><path class="cls-5" d="M111,25.84s1.41,9.87,5.32,12.27c3.21,2,18,9.61,28.05,12.27,16,4.22,32.47,29.24,50.37,40.15,3.34,2,4.07,9.47,3.89,12.22-.35,5.11-4.68,14-7.22,19.17-4.91,9.93-23.43,33.89-23.43,33.89l-1.16,1.8a3.69,3.69,0,0,1-5.61.71l-6.11-5.67A5.15,5.15,0,0,1,154,146.5l3.5-6.68,12.16-36.56L138.64,85,135,108.4a47,47,0,0,0,0,14.16l7.05,46.86-6.1,9.66-77.39.18-.74-1.62a19.75,19.75,0,0,1-1.68-10.55l5.67-48.46a38.28,38.28,0,0,0,0-8.95L59.17,88.24s-23.8,19.83-31.27,25.9c-3,2.47-11.83,7.43-15.67,6.65-3.66-.73-8.7-6.64-9.74-10-1.59-5-1.29-15.88-.33-21.06,1.53-8.31,7.7-29.49,9.92-37a3.13,3.13,0,0,1,3.56-2.2l12,2.15a2.1,2.1,0,0,1,1.72,2.07l0,23.15s11.41-19.36,17.57-22.8c14.45-8.07,32.44-15.29,34.94-17.29,3.43-2.73,4.56-12,4.56-12Z"/><path class="cls-3" d="M156,159.61c.93,1.46,1.41,4.14-1.37,6.8,0,0-8.09,9.27-11.65,11.16-1.59.84-5.86,2.87-7.05,1.51-3.36-3.84-5.53-13.12-4.46-19.13.32-1.8,4.32-3.69,6.11-4,2-.39,5.94,1.2,8,1.27a30.16,30.16,0,0,0,3.3-.18C151.56,156.75,154.75,157.61,156,159.61Z"/><polygon class="cls-6" points="151.54 153.91 149.65 156.97 151.19 162.7 153.01 168.24 155.57 165.48 160.23 162.25 151.54 153.91"/><polygon class="cls-7" points="150.3 155.9 154.57 148.67 163.96 158.72 158.8 164.56 150.3 155.9"/><path class="cls-3" d="M22,44.52c-1.38-.83-3-3-2-6.66,0,0,2-12.15,3.94-15.57.84-1.53,3.22-5.43,4.76-4.82,4.34,1.72,10.23,8.8,12.13,14.62.57,1.74-1.66,5.38-2.89,6.58s-5.14,1.88-6.73,2.81a27.6,27.6,0,0,0-2.46,1.78C26.76,44.83,23.92,45.65,22,44.52Z"/><polygon class="cls-8" points="28.07 47.32 28.14 43.68 24.35 39.41 20.43 35.44 19.7 39.13 17.57 44.27 28.07 47.32"/><polygon class="cls-7" points="28.23 45.62 28.39 53.15 14.24 50.84 17.41 42.78 28.23 45.62"/></g></svg>