<svg xmlns="http://www.w3.org/2000/svg" viewBox="0 0 388 618.27"><defs><style>.cls-1{fill:#286c7c;}.cls-2{fill:#e78367;}.cls-3{fill:#3d3d3d;}</style></defs><g id="Calque_3" data-name="Calque 3"><path class="cls-1" d="M191.45,152.53l-3.1-42.1s33.88-51.53,34.8-51.6,18.6,21.31,18.6,21.31L247,97l16.11,69.82s-3.08,140.07-3,141.58c.05.53,0,4.61-.1,9.64a23.23,23.23,0,0,1-21.52,22.77h0c-11.31.83-17.44-3.06-20.14-14.07L214.75,312S201.94,242,203.06,239.91c.74-1.41-10.81-49.06-8.95-51.22S191.45,152.53,191.45,152.53Z"/><path class="cls-2" d="M217.16,352.59c.37-.84,14.06-37.75,25.14-35.78h0a21.24,21.24,0,0,1,17.51,21.9l-.34,7.29s-11.64,75.16-12.89,76.48-32,114.93-32.53,117.66a12.29,12.29,0,0,1-13.56,10h0c-7.54-.91-7.82-5.6-5.67-12.89l9.59-127Z"/><path class="cls-2" d="M212.25,491.5c4.77.52,11.68,2.81,9.18,16.86-.88,4.95-1.78,19.37,1.62,25.32.94,1.64,43.57,32.2,46.65,35.25a4.78,4.78,0,0,1,1.38,4l-.61,4.63-34-.18-47.4-15.2,7.23-40.5L201,504.4l1.33-4.07C204.88,490.66,205.19,490.74,212.25,491.5Z"/><path class="cls-1" d="M180,16.32l32,0a21.51,21.51,0,0,1,20.56,15.13S259,116.23,265.62,168.05c5.49,43.3,5.51,172.9,5.51,172.9l-42.68,161.9L194.67,500s-1.2-73.28,4.32-96.88c3.15-13.46,19.46-63.18,19.46-63.18l-30-151-10-41.36Z"/><path class="cls-1" d="M173.64,148.21V106s-37.57-48.9-38.49-48.9-22.8,21.09-22.8,21.09l-2.87,18.26-6.25,71.31S114.67,320,114.66,321.51c0,.54.35,4.61.8,9.61a23.23,23.23,0,0,0,23.14,21.13h0c11.33,0,17.17-4.33,19.05-15.51l2.54-15s9.54-83.47,8.27-85.51c-.84-1.35,7.19-49.71,5.18-51.73S173.64,148.21,173.64,148.21Z"/><path class="cls-2" d="M157,349.89c-.22-.9-7.25-39.62-18.5-39.62h0a21.25,21.25,0,0,0-21.07,18.51l-.94,7.22s-4.93,66.57-3.93,68.09,19.71,116.3,19.73,119.09a12.29,12.29,0,0,0,11.6,12.2h0c7.59.42,8.68-4.15,7.84-11.7l12.76-126.75Z"/><path class="cls-2" d="M143.16,510.77c-4.8-.11-11.94,1.25-11.31,15.51.22,5-1.77,27.06-5.93,32.52-1.14,1.5-1.93,5.72-5.39,8.34a3.56,3.56,0,0,0-1.41,3.35l-1,5.38,33.89,1,10-6.72-7-27.31L152.62,525l-.78-4.22C150.58,510.9,150.26,510.93,143.16,510.77Z"/><path class="cls-1" d="M180,15.33l-32.59,0a21.51,21.51,0,0,0-20.63,15.37L111.18,83S92.13,132.13,90.6,144.82C84.64,194.34,113.15,330,113.15,330s-4.32,55.81-3,74.37c1.62,23.47,16.7,92.59,16.7,92.59l28,.05s10.63-73.23,11.08-97.84c.3-16.3-5-48.71-5-65,.09-36.56,12.62-109,16.47-145.32,1.07-10.07,4.13-43.51,4.13-43.51Z"/><polygon class="cls-3" points="131.12 536.23 153.82 535.08 162.79 573.77 156.55 578.29 114.25 578.25 116.43 566.16 123.27 551.67 131.12 536.23"/><polygon class="cls-3" points="195.88 525.09 222.26 528.53 271.64 570.23 272.24 578.2 236.01 578.29 187.74 563.37 195.88 525.09"/></g></svg>