<svg xmlns="http://www.w3.org/2000/svg" viewBox="0 0 388 618.27"><defs><style>.cls-1{fill:#baa535;}.cls-2{fill:#e78367;}.cls-3{fill:#b5b5b5;}.cls-3,.cls-6{stroke:#7fadd5;stroke-miterlimit:10;stroke-width:0.25px;}.cls-4{fill:#9c9c9c;}.cls-5{fill:none;}.cls-6{fill:#e5e5e5;}</style></defs><g id="Calque_3" data-name="Calque 3"><path class="cls-1" d="M165,139.71v-43s-32.78-49.83-33.58-49.83-19.88,21.49-19.88,21.49L109.05,87l-5.46,72.66s10,155.15,10,156.69c0,.54.31,4.69.71,9.79,1,12.19,9.7,21.53,20.18,21.53h0c9.89,0,15-4.42,16.63-15.81l2.21-15.31s8.32-85.06,7.22-87.13c-.74-1.38,6.26-50.66,4.51-52.72S165,139.71,165,139.71Z"/><path class="cls-2" d="M149.58,353.23c-.2-.89-6.7-39-17.1-39h0c-9.87,0-18.2,7.78-19.47,18.19l-.87,7.11S107.58,405,108.5,406.5s18.23,114.32,18.24,117c0,6.39,4.73,11.65,10.73,12h0c7,.41,8-4.08,7.24-11.51L156.5,399.46Z"/><path class="cls-2" d="M136.84,511.36c-4.44-.11-11,1.23-10.46,15.24.21,4.94-1.64,26.61-5.48,32-1.06,1.47-1.79,5.62-5,8.2a3.6,3.6,0,0,0-1.31,3.29l-.89,5.29,31.32.95,9.24-6.61-6.49-26.83-2.21-17.49-.72-4.14C143.69,511.48,143.4,511.52,136.84,511.36Z"/><path class="cls-2" d="M170.64,34.47l-30.12,0c-8.8,0-15.06.86-21.36,12.43,0,0-9.73,15.62-11.88,21.4C101.42,84,96.08,121.5,94.67,134.67c-5.5,51.39,14.42,189.85,14.42,189.85s-4,57.91-2.8,77.17c1.49,24.35,15.43,96.07,15.43,96.07l25.88.05s9.83-76,10.24-101.52c.28-16.91-4.62-50.54-4.58-67.46.09-37.93,11.67-113,15.22-150.78,1-10.45,25.58-52.38,25.58-52.38Z"/><path class="cls-3" d="M125.7,536.38l21-1.13s10,28.44,8.29,38c-.67,3.85-5.19,10.83-8.29,13-3.69,2.55-16.79,5.63-16.79,5.63s-17.21-9.22-19.78-14.19c-1.37-2.65,2-11.88,2-11.88l6.32-14.25Z"/><path class="cls-4" d="M289.34,583.51s9.81,5,13.29,5.92c7.24,2,29.73,3.77,29.73,3.77v-9.69l-21.51-10.39-21.51,10.39"/><path class="cls-2" d="M236.77,353.08c0-.91-.76-39.59,9.43-41.8h0c9.66-2.1,19.3,3.76,22.5,13.68l2.19,6.78s16.77,63.13,16.15,64.79,3.66,115.89,4.15,118.57c1.17,6.27-2.44,12.41-8.25,14h0c-6.79,1.89-8.62-2.29-9.26-9.73l-35-119.56Z"/><path class="cls-2" d="M279,505.3c4.33-1.05,11.05-1.14,13.11,12.71.73,4.89,6.61,25.72,11.39,30.15,1.31,1.23,2.81,5.14,6.42,7a3.5,3.5,0,0,1,1.9,2.94l1.87,5L283.19,565l-10-9.49,1-17-1.12-17.6-.07-4.21C272.32,506.88,272.61,506.85,279,505.3Z"/><path class="cls-2" d="M121.19,38.25l22-3.5c8.62-2,55-4.36,59.14,4.36,0,0,4.3-11.58,44.86,78.09,20.87,46.14,25.56,198.27,25.56,198.27s14.23,55.85,16.5,75c2.88,24.19.08,115.4.08,115.4l-6.4,23.28s-40.19-107.47-45.15-132.4c-3.29-16.5-4.48-50.56-7.53-67.12-6.85-37.15-31.59-108.15-41.8-144.31-2.82-10-25-52.35-25-52.35Z"/><polygon class="cls-3" points="294.63 527.45 273.85 530.81 273.19 555.48 283.19 564.97 289.35 583.51 332.36 583.51 313.46 553.39 304.59 540.78 294.63 527.45"/><polygon class="cls-2" points="273.85 530.81 297.65 567.48 319.98 570.67 309.42 547.64 294.63 527.45 273.85 530.81"/><polygon class="cls-2" points="125.7 536.38 122.35 564.19 146.69 564.19 146.69 535.25 134.52 528.54 125.7 536.38"/><polygon points="16.68 136.32 16.77 136.29 16.68 136.24 16.68 136.32"/><polygon points="16.77 136.29 16.87 136.32 16.87 136.24 16.77 136.29"/><polygon points="16.68 136.32 16.77 136.29 16.68 136.24 16.68 136.32"/><polygon points="16.77 136.29 16.87 136.32 16.87 136.24 16.77 136.29"/><path class="cls-5" d="M213.15,51.55c15.56,5,22.34,9.27,26,15.94,3,5.41,5.81,17.8,6,24,.52,14.51-7.49,51-21.11,63.13-13.87,12.38-81.64,12.38-95.5,0C115,142.43,107,106,107.51,91.46c.22-6.17,3-18.56,6-24,3.7-6.67,10.48-10.91,26-15.94,17.8-5.76,35.9-4.85,35.9-4.85S195.36,45.79,213.15,51.55Z"/><path class="cls-6" d="M241.92,66.9c12,55,31.26,135.4,30.83,140.19C264.09,304.93,160.28,521.8,160.28,521.8c-22.71,9.69-135.45,45.67-85.22-324.56,3.91-28.84,20-86.58,31.5-129.17,0,0,9.76-27.75,21.21-39s89.46-10.14,99.78-.06S241.92,66.9,241.92,66.9Z"/></g></svg>