<svg xmlns="http://www.w3.org/2000/svg" xmlns:xlink="http://www.w3.org/1999/xlink" viewBox="0 0 200 200"><defs><style>.cls-1,.cls-4{fill:none;}.cls-2{fill:#fff;}.cls-3{clip-path:url(#clip-path);}.cls-4{stroke:#000;stroke-linecap:round;stroke-miterlimit:10;stroke-width:2px;}.cls-5{clip-path:url(#clip-path-2);}.cls-6{fill:#844f3d;}.cls-7{fill:#66183f;}.cls-8{fill:#bfbfbf;}</style><clipPath id="clip-path"><rect class="cls-1" x="68.41" y="93.46" width="23.15" height="6.96"/></clipPath><clipPath id="clip-path-2"><rect class="cls-1" x="108.44" y="93.46" width="23.15" height="6.96"/></clipPath></defs><g id="Calque_10" data-name="Calque 10"><circle class="cls-2" cx="81.46" cy="113.04" r="6.75"/><circle class="cls-2" cx="117.69" cy="113.04" r="6.75"/><circle cx="79.25" cy="111.32" r="3.29"/><circle cx="115.59" cy="111.32" r="3.29"/><g class="cls-3"><path class="cls-4" d="M90.56,99.41c-2.88-2.32-8.24-5.85-14.35-4.74-5.33,1-6.8,4.64-6.8,4.64"/></g><g class="cls-5"><path class="cls-4" d="M109.44,99.41c2.88-2.32,8.24-5.85,14.35-4.74,5.33,1,6.8,4.64,6.8,4.64"/></g><path class="cls-6" d="M106.81,133.5s-4.7,3.69-7.43,3.69c-2.58,0-7-3.59-7-3.59s5.4.73,7.21.72S106.81,133.5,106.81,133.5Z"/><path class="cls-7" d="M83.81,147.93c.29-.63,1.42-1.63,3.5-2.54a29.27,29.27,0,0,1,10.56-2.1,22.73,22.73,0,0,1,15.86,6.06s-4.59,11.74-15.81,10.88C89.78,159.6,83.81,147.93,83.81,147.93Z"/><path class="cls-8" d="M98.27,148.31,90,147.94l-2.2-.92a28.22,28.22,0,0,1,11.43-2c6.7.35,10.32,2.92,10.32,2.92l-1.71.8Z"/></g></svg>