<svg xmlns="http://www.w3.org/2000/svg" xmlns:xlink="http://www.w3.org/1999/xlink" viewBox="0 0 788 1005"><defs><style>.cls-1,.cls-3,.cls-6{fill:none;}.cls-2{clip-path:url(#clip-path);}.cls-3{stroke:#000;}.cls-3,.cls-6{stroke-linecap:round;stroke-miterlimit:10;stroke-width:2px;}.cls-4{clip-path:url(#clip-path-2);}.cls-5{fill:#844f3d;}.cls-6{stroke:#6b3457;}.cls-7{fill:#020202;}</style><clipPath id="clip-path"><rect class="cls-1" x="363.56" y="226.28" width="22.15" height="6.06"/></clipPath><clipPath id="clip-path-2"><rect class="cls-1" x="402.53" y="226.28" width="22.15" height="6.06"/></clipPath></defs><g id="Calque_10" data-name="Calque 10"><g class="cls-2"><path class="cls-3" d="M384.71,228.19s-6.36-1.87-12.1-.24a38.37,38.37,0,0,0-8.05,3.39"/></g><g class="cls-4"><path class="cls-3" d="M403.53,228.19s6.36-1.87,12.1-.24a38.08,38.08,0,0,1,8.05,3.39"/></g><path class="cls-5" d="M401,265s-4.69,3.69-7.42,3.69-7-3.59-7-3.59,5.4.73,7.22.71S401,265,401,265Z"/><path class="cls-6" d="M380.29,276.88a18.63,18.63,0,0,0,13.62,5.52,18.94,18.94,0,0,0,13.29-6.49"/><path class="cls-7" d="M421.78,242.75a2.1,2.1,0,0,1-2.89.64c-1.77-1.13-6.93-1.21-8.88-.56-2.66.89-5.77,2.15-6.62.4-.14-.28,1.45-3.33,6.84-3.66s9.11,2.85,11.55,3.18Z"/><path class="cls-7" d="M365.58,242.75a2.09,2.09,0,0,0,2.88.64c1.77-1.13,6.93-1.21,8.88-.56,2.66.89,5.77,2.15,6.62.4.14-.28-1.45-3.33-6.84-3.66s-9.11,2.85-11.54,3.18Z"/></g></svg>