<svg xmlns="http://www.w3.org/2000/svg" xmlns:xlink="http://www.w3.org/1999/xlink" viewBox="0 0 788 1005"><defs><style>.cls-1,.cls-4{fill:none;}.cls-2{fill:#fff;}.cls-3{clip-path:url(#clip-path);}.cls-4{stroke:#000;stroke-linecap:round;stroke-miterlimit:10;stroke-width:2px;}.cls-5{clip-path:url(#clip-path-2);}.cls-6{fill:#844f3d;}.cls-7{fill:#66183f;}.cls-8{fill:#bfbfbf;}</style><clipPath id="clip-path"><rect class="cls-1" x="362.53" y="223.07" width="23.15" height="6.96"/></clipPath><clipPath id="clip-path-2"><rect class="cls-1" x="402.56" y="223.07" width="23.15" height="6.96"/></clipPath></defs><g id="Calque_10" data-name="Calque 10"><circle class="cls-2" cx="375.58" cy="242.65" r="6.75"/><circle class="cls-2" cx="411.82" cy="242.65" r="6.75"/><circle cx="373.37" cy="240.93" r="3.29"/><circle cx="409.71" cy="240.93" r="3.29"/><g class="cls-3"><path class="cls-4" d="M384.68,229c-2.88-2.31-8.24-5.85-14.35-4.74-5.33,1-6.8,4.64-6.8,4.64"/></g><g class="cls-5"><path class="cls-4" d="M403.56,229c2.89-2.31,8.24-5.85,14.35-4.74,5.33,1,6.81,4.64,6.81,4.64"/></g><path class="cls-6" d="M400.93,263.12s-4.7,3.69-7.42,3.68-7-3.59-7-3.59,5.4.73,7.22.72S400.93,263.12,400.93,263.12Z"/><path class="cls-7" d="M377.93,277.54c.29-.63,1.43-1.63,3.51-2.54A29.16,29.16,0,0,1,392,272.9,22.82,22.82,0,0,1,407.86,279s-4.59,11.74-15.81,10.88C383.9,289.21,377.93,277.54,377.93,277.54Z"/><path class="cls-8" d="M392.4,277.92l-8.25-.37-2.21-.91a28.13,28.13,0,0,1,11.43-2c6.7.36,10.32,2.92,10.32,2.92l-1.71.8Z"/></g></svg>