<svg xmlns="http://www.w3.org/2000/svg" xmlns:xlink="http://www.w3.org/1999/xlink" viewBox="0 0 200 200"><defs><style>.cls-1,.cls-5,.cls-7{fill:none;}.cls-2{fill:#fff;}.cls-3{fill:#080808;}.cls-4{clip-path:url(#clip-path);}.cls-5{stroke:#000;}.cls-5,.cls-7{stroke-linecap:round;stroke-miterlimit:10;stroke-width:2px;}.cls-6{clip-path:url(#clip-path-2);}.cls-7{stroke:#5b2945;}.cls-8{fill:#844f3d;}.cls-9{fill:#4da0ff;}</style><clipPath id="clip-path"><rect class="cls-1" x="108.82" y="104.15" width="21.58" height="7.06"/></clipPath><clipPath id="clip-path-2"><rect class="cls-1" x="69.6" y="104.15" width="21.58" height="7.06"/></clipPath></defs><g id="Calque_10" data-name="Calque 10"><path class="cls-2" d="M123.53,118.54a6.75,6.75,0,0,1-13.5,0Z"/><path class="cls-2" d="M88.68,118.54a6.75,6.75,0,0,1-13.5,0Z"/><path class="cls-3" d="M86,119.12a4,4,0,0,1-8,0,2.78,2.78,0,0,1,0-.58H86A2.78,2.78,0,0,1,86,119.12Z"/><path class="cls-3" d="M121,119.12a4,4,0,0,1-8,0,2.78,2.78,0,0,1,0-.58h7.9A2.78,2.78,0,0,1,121,119.12Z"/><g class="cls-4"><path class="cls-5" d="M109.82,105.15c9.84.17,19.58,5,19.58,5"/></g><g class="cls-6"><path class="cls-5" d="M90.18,105.15c-9.84.17-19.58,5-19.58,5"/></g><path class="cls-7" d="M88.71,157.3c3.1.14,7.19.22,11.26.21s8.06-.1,11-.25"/><path class="cls-8" d="M107.89,140.71s-4.69,3.69-7.42,3.69c-2.58,0-7-3.6-7-3.6s5.4.73,7.21.72S107.89,140.71,107.89,140.71Z"/><ellipse class="cls-9" cx="76.63" cy="128.96" rx="3.87" ry="4.38"/></g></svg>