<svg xmlns="http://www.w3.org/2000/svg" viewBox="0 0 200 200"><defs><style>.cls-1{fill:#fff;}.cls-2,.cls-4{fill:none;stroke-linecap:round;stroke-miterlimit:10;stroke-width:2px;}.cls-2{stroke:#000;}.cls-3{fill:#844f3d;}.cls-4{stroke:#662c34;}.cls-5{fill:#020202;}</style></defs><g id="Calque_10" data-name="Calque 10"><circle class="cls-1" cx="81.58" cy="116.36" r="5.28"/><circle cx="81.55" cy="116.4" r="4"/><path class="cls-2" d="M109.19,104.28s5.74.68,10.35,1.56a47.46,47.46,0,0,1,10.56,3.39"/><path class="cls-2" d="M90.06,103.78a14.89,14.89,0,0,0-20.16,1.39"/><path class="cls-3" d="M106.3,135.86s-4.69,3.69-7.42,3.69c-2.58,0-7-3.6-7-3.6s5.4.73,7.21.72S106.3,135.86,106.3,135.86Z"/><path class="cls-4" d="M85.64,150.71a18.63,18.63,0,0,0,13.61,5.52,19,19,0,0,0,13.29-6.49"/><path class="cls-5" d="M72.44,114.25a2.09,2.09,0,0,0,2.88.64c1.77-1.13,3.8-2.75,5.75-2.1,2.66.89,2.55,2.9,5.85,3.28.31,0-.68-6.21-6.07-6.54s-6,4.39-8.41,4.72Z"/><path class="cls-5" d="M125.74,116.85a2.09,2.09,0,0,1-2.88.64c-1.77-1.13-6.93-1.21-8.88-.56-2.66.89-5.77,2.15-6.62.4-.14-.28,1.45-3.33,6.84-3.66s9.11,2.85,11.54,3.18Z"/></g></svg>