<svg xmlns="http://www.w3.org/2000/svg" xmlns:xlink="http://www.w3.org/1999/xlink" viewBox="0 0 198 210.78"><defs><style>.cls-1,.cls-11,.cls-2{fill:none;}.cls-2{stroke:#fafafa;}.cls-11,.cls-2{stroke-miterlimit:10;}.cls-3{fill:#e9b992;}.cls-4{clip-path:url(#clip-path);}.cls-5{fill:#d3745e;}.cls-6{clip-path:url(#clip-path-2);}.cls-7{fill:#e78367;}.cls-8{clip-path:url(#clip-path-3);}.cls-9{fill:#55baca;}.cls-10{clip-path:url(#clip-path-4);}.cls-11{stroke:#54331a;}</style><clipPath id="clip-path"><polygon class="cls-1" points="134.13 110.89 134.13 110.89 151.99 110.89 151.99 144.17 134.13 144.17 134.13 110.89"/></clipPath><clipPath id="clip-path-2"><polygon class="cls-1" points="63.72 110.89 63.72 110.89 45.85 110.89 45.85 144.17 63.72 144.17 63.72 110.89"/></clipPath><clipPath id="clip-path-3"><polygon class="cls-1" points="139.8 139.22 139.8 139.22 150.3 139.22 150.3 155.72 139.8 155.72 139.8 139.22"/></clipPath><clipPath id="clip-path-4"><polygon class="cls-1" points="57.26 139.22 57.26 139.22 46.76 139.22 46.76 155.72 57.26 155.72 57.26 139.22"/></clipPath></defs><g id="Calque_3" data-name="Calque 3"><path class="cls-2" d="M106,43.68c8.8-9.46,6.14-25.18,6.14-25.18"/><path class="cls-3" d="M144.33,116.76c-12.11,6.42-12.82-24.23-13.8-25.88-3-1.23-7,1.36-10.2.52-7.36-2-28.68,1.25-31.89,3.28-.84.53,13.1,16,12.31,16.57-7.33,5.55-17.11,29.25-16.7,40.1.84,22.52,9.19,46.1-9.25,57.67-21.38,13.42-30.18-5.25-36.89-12.28C31.81,190.36,8.37,169,28.48,128c4.4-9,9.34-17.58,11.52-27.32C46.87,70,59.7,27.58,95.87,35.91c12.15,2.8,8,5,11.89,3.75,12.95-4,67.67-2.2,41.09,63.55C146,110.15,145.79,113.51,144.33,116.76Z"/><g id="_Répétition_miroir_" data-name="&lt;Répétition miroir&gt;"><g class="cls-4"><path class="cls-5" d="M142.85,144c4.49-2.13,7.05-13.22,8.4-18,1-3.57,1.44-12.71-1.66-14.75-2.71-1.77-12.37,3.81-12.37,3.81l-.95,13.23-2.14,13.95S140.84,144.91,142.85,144Z"/></g></g><g id="_Répétition_miroir_2" data-name="&lt;Répétition miroir&gt;"><g class="cls-6"><path class="cls-5" d="M55,144c-4.49-2.13-7-13.22-8.4-18-1-3.57-1.44-12.71,1.66-14.75C51,109.46,60.63,115,60.63,115l.95,13.23,2.14,13.95S57,144.91,55,144Z"/></g></g><rect class="cls-1" x="98.57" y="67.04" width="41.71" height="112.28"/><path class="cls-7" d="M139.21,102.07C138,95.18,133.37,82.6,128.38,77.7c-5.82-5.72-17-9.4-26.31-10.39V67c-1.09,0-2.21,0-3.33,0L97.1,67v.11c-10.64.75-22.35,4.7-28.31,10.55-5,4.9-9.61,17.48-10.83,24.37-1.81,10.24,3.53,42.06,6.82,51.92,7.77,23.22,16.38,18.21,23.1,23.1,2.59,1.89,10.7,1.72,10.7,1.72s8.07.11,10.7-1.72c8-5.57,14.8-.93,23.1-23.1C136,144.25,141,112.31,139.21,102.07Z"/><rect class="cls-1" x="56.9" y="67.04" width="41.71" height="112.28"/><g class="cls-8"><rect class="cls-9" x="139.8" y="139.22" width="10.5" height="16.5" rx="5.25"/></g><g class="cls-10"><rect class="cls-9" x="46.76" y="139.22" width="10.5" height="16.5" rx="5.25"/></g><path class="cls-3" d="M56.9,111.7c-.28-4.18,7.74-31.36,11.71-30.45,11.76,2.67,28.89,4.42,30,4.49,1.9.12,18.75-.76,30.58-4.49,5.42-1.71,10.27,31.94,10.27,31.94l6.53-2.3,1.66-49.43-94.29.85Z"/><path class="cls-11" d="M129.15,81.25s31.91-41.59-21.39-41.59"/><path class="cls-11" d="M76.82,82.85s-24-40.62.94-46.65C98.92,31.09,106,43.68,106,43.68c21.61,26.91-7.44,42.06-7.44,42.06"/><path class="cls-11" d="M61.86,85.74s-18.4-2.91-12.4-15.15"/><path class="cls-11" d="M56.9,111.7s-19.35-1.27-16.9-11"/><path class="cls-11" d="M135.51,89.88s13.56,11.72,18.91-4.14"/><path class="cls-11" d="M46.76,129.83s-27.17,18.11-9.92,37.09,13.59,43.33,13.59,43.33"/><path class="cls-11" d="M64.79,154s-5.52,13,4,24.83,9.3,28.35,6,30.2"/></g></svg>