<svg xmlns="http://www.w3.org/2000/svg" xmlns:xlink="http://www.w3.org/1999/xlink" viewBox="0 0 788 1005.07"><defs><style>.cls-1,.cls-2{fill:none;}.cls-2{stroke:#fafafa;stroke-miterlimit:10;}.cls-3{clip-path:url(#clip-path);}.cls-4{fill:#d3745e;}.cls-5{clip-path:url(#clip-path-2);}.cls-6{fill:#e78367;}.cls-7{clip-path:url(#clip-path-3);}.cls-8{fill:#55baca;}.cls-9{clip-path:url(#clip-path-4);}.cls-10{fill:#e9b992;}</style><clipPath id="clip-path"><polygon class="cls-1" points="408.61 157.66 408.61 157.66 426.47 157.66 426.47 190.94 408.61 190.94 408.61 157.66"/></clipPath><clipPath id="clip-path-2"><polygon class="cls-1" points="338.2 157.66 338.2 157.66 320.33 157.66 320.33 190.94 338.2 190.94 338.2 157.66"/></clipPath><clipPath id="clip-path-3"><polygon class="cls-1" points="414.28 186 414.28 186 424.78 186 424.78 202.5 414.28 202.5 414.28 186"/></clipPath><clipPath id="clip-path-4"><polygon class="cls-1" points="331.73 186 331.73 186 321.23 186 321.23 202.5 331.73 202.5 331.73 186"/></clipPath></defs><g id="Calque_3" data-name="Calque 3"><path class="cls-2" d="M380.49,90.46c8.8-9.46,6.14-25.18,6.14-25.18"/><g id="_Repetition_miroir_" data-name="&lt;Repetition miroir&gt;"><g class="cls-3"><path class="cls-4" d="M417.33,190.74c4.49-2.12,7.05-13.21,8.4-18,1-3.57,1.44-12.71-1.67-14.74-2.7-1.77-12.36,3.81-12.36,3.81l-.95,13.23L408.61,189S415.32,191.69,417.33,190.74Z"/></g></g><g id="_Repetition_miroir_2" data-name="&lt;Repetition miroir&gt;"><g class="cls-5"><path class="cls-4" d="M329.48,190.74c-4.49-2.12-7.05-13.21-8.4-18-1-3.57-1.44-12.71,1.66-14.74,2.71-1.77,12.37,3.81,12.37,3.81l.95,13.23L338.2,189S331.49,191.69,329.48,190.74Z"/></g></g><rect class="cls-1" x="373.05" y="113.82" width="41.71" height="112.28"/><path class="cls-6" d="M413.69,148.85c-1.22-6.89-5.84-19.47-10.84-24.38-5.82-5.71-17-9.4-26.3-10.38v-.27c-1.08,0-2.2,0-3.33,0-.55,0-1.1,0-1.64,0v.11c-10.63.75-22.34,4.7-28.3,10.54-5,4.91-9.61,17.49-10.83,24.38-1.81,10.23,3.52,42.06,6.82,51.91C347,224,355.65,219,362.37,223.87c2.59,1.89,10.7,1.72,10.7,1.72s8.07.11,10.7-1.72c8-5.57,14.8-.93,23.1-23.11C410.51,191,415.5,159.08,413.69,148.85Z"/><rect class="cls-1" x="331.38" y="113.82" width="41.71" height="112.28"/><g class="cls-7"><rect class="cls-8" x="414.28" y="186" width="10.5" height="16.5" rx="5.25"/></g><g class="cls-9"><rect class="cls-8" x="321.23" y="186" width="10.5" height="16.5" rx="5.25"/></g><path class="cls-10" d="M334.39,140.61c.31-1.55,23.09,4.14,23.09,4.14l3.25-8.47v8.47s7,.3,6.58,0,0-13.95,0-13.95l1.55,2.86s.78,11.14,1.36,11.22,41.27-4.27,41.27-4.27,5.19,40.89,0,76.54c-.07.5,1.9-2.09,5-6.5,5.86-8.28,6.15-72,6.15-72.5s-2.11-15.26-10.85-23.53c-7.73-7.31-14.56-5.73-14.56-5.73s-4.66-8.78-14.37-11.14c-7-1.7-17.47,1.52-18.25,1.86s-22.75,3-34.22,24.1c-8.34,15.35-7,60.9-6.79,62.93s.93,19.25,1.74,20.45c6.18,9.14,10.75,10.25,10.51,10C333.27,200.94,332.12,152,334.39,140.61Z"/></g></svg>