<svg xmlns="http://www.w3.org/2000/svg" xmlns:xlink="http://www.w3.org/1999/xlink" viewBox="0 0 198 210.78"><defs><style>.cls-1,.cls-10,.cls-7,.cls-8,.cls-9{fill:none;}.cls-2{clip-path:url(#clip-path);}.cls-3{fill:#d3745e;}.cls-4{clip-path:url(#clip-path-2);}.cls-5{fill:#e78367;}.cls-6{fill:#e9b992;}.cls-7{stroke:#542f13;}.cls-10,.cls-7,.cls-8,.cls-9{stroke-miterlimit:10;}.cls-8{stroke:#5b412e;}.cls-9{stroke:#3d2513;}.cls-10{stroke:#68452b;}.cls-11{clip-path:url(#clip-path-3);}.cls-12{fill:#55baca;}.cls-13{clip-path:url(#clip-path-4);}</style><clipPath id="clip-path"><polygon class="cls-1" points="134.13 110.89 134.13 110.89 151.99 110.89 151.99 144.17 134.13 144.17 134.13 110.89"/></clipPath><clipPath id="clip-path-2"><polygon class="cls-1" points="63.72 110.89 63.72 110.89 45.85 110.89 45.85 144.17 63.72 144.17 63.72 110.89"/></clipPath><clipPath id="clip-path-3"><polygon class="cls-1" points="139.8 139.22 139.8 139.22 150.3 139.22 150.3 155.72 139.8 155.72 139.8 139.22"/></clipPath><clipPath id="clip-path-4"><polygon class="cls-1" points="57.26 139.22 57.26 139.22 46.76 139.22 46.76 155.72 57.26 155.72 57.26 139.22"/></clipPath></defs><g id="Calque_3" data-name="Calque 3"><g id="_Répétition_miroir_" data-name="&lt;Répétition miroir&gt;"><g class="cls-2"><path class="cls-3" d="M142.85,144c4.49-2.13,7.05-13.22,8.4-18,1-3.57,1.44-12.71-1.66-14.75-2.71-1.77-12.37,3.81-12.37,3.81l-.95,13.23-2.14,13.95S140.84,144.91,142.85,144Z"/></g></g><g id="_Répétition_miroir_2" data-name="&lt;Répétition miroir&gt;"><g class="cls-4"><path class="cls-3" d="M55,144c-4.49-2.13-7-13.22-8.4-18-1-3.57-1.44-12.71,1.66-14.75C51,109.46,60.63,115,60.63,115l.95,13.23,2.14,13.95S57,144.91,55,144Z"/></g></g><rect class="cls-1" x="98.57" y="67.04" width="41.71" height="112.28"/><path class="cls-5" d="M139.21,102.07C138,95.18,133.37,82.6,128.38,77.7c-5.82-5.72-17-9.4-26.31-10.39V67c-1.09,0-2.21,0-3.33,0L97.1,67v.11c-10.64.75-22.35,4.7-28.31,10.55-5,4.9-9.61,17.48-10.83,24.37-1.81,10.24,3.53,42.06,6.82,51.92,7.77,23.22,16.38,18.21,23.1,23.1,2.59,1.89,10.7,1.72,10.7,1.72s8.07.11,10.7-1.72c8-5.57,14.8-.93,23.1-23.1C136,144.25,141,112.31,139.21,102.07Z"/><rect class="cls-1" x="56.9" y="67.04" width="41.71" height="112.28"/><path class="cls-6" d="M57.91,114.53s-8.38-.37-9.33-4.27S43.2,91.22,44.64,85c1.62-7,12.17-18,17.8-22.42,5.17-4.07,23.9-11,23.9-11l16.73.34,7.26-1.07s22.73,4.87,28.46,9.74C144.1,65.05,151.1,78.2,152,85.12c.79,6.29-3.12,25.14-3.12,25.14L139.37,114l-4.21-12.82-7-18.76L98.89,85.71l-30.58-2.5-4.24,17.44"/><path class="cls-7" d="M68.14,59.24C62.89,65.91,64,74.65,66.77,82.69c.33,1,1,2.06,2,2"/><path class="cls-8" d="M62.65,102.15A17.88,17.88,0,0,1,46.24,82.78l.62.09"/><path class="cls-9" d="M98.09,85.48c8.92-32.2,5-33.62,5-33.62"/><path class="cls-10" d="M127,82.54s14.25-13.47,11.25-21.47"/><path class="cls-7" d="M134.52,100.57s15.86-4.1,16.88-14.83"/><g class="cls-11"><rect class="cls-12" x="139.8" y="139.22" width="10.5" height="16.5" rx="5.25"/></g><g class="cls-13"><rect class="cls-12" x="46.76" y="139.22" width="10.5" height="16.5" rx="5.25"/></g></g></svg>