<svg xmlns="http://www.w3.org/2000/svg" xmlns:xlink="http://www.w3.org/1999/xlink" viewBox="0 0 788 1005.07"><defs><style>.cls-1,.cls-11,.cls-2{fill:none;}.cls-2{stroke:#fafafa;}.cls-11,.cls-2{stroke-miterlimit:10;}.cls-3{fill:#e9b992;}.cls-4{clip-path:url(#clip-path);}.cls-5{fill:#d3745e;}.cls-6{clip-path:url(#clip-path-2);}.cls-7{fill:#e78367;}.cls-8{clip-path:url(#clip-path-3);}.cls-9{fill:#55baca;}.cls-10{clip-path:url(#clip-path-4);}.cls-11{stroke:#54331a;}</style><clipPath id="clip-path"><polygon class="cls-1" points="408.61 157.66 408.61 157.66 426.47 157.66 426.47 190.94 408.61 190.94 408.61 157.66"/></clipPath><clipPath id="clip-path-2"><polygon class="cls-1" points="338.2 157.66 338.2 157.66 320.33 157.66 320.33 190.94 338.2 190.94 338.2 157.66"/></clipPath><clipPath id="clip-path-3"><polygon class="cls-1" points="414.28 186 414.28 186 424.78 186 424.78 202.5 414.28 202.5 414.28 186"/></clipPath><clipPath id="clip-path-4"><polygon class="cls-1" points="331.73 186 331.73 186 321.23 186 321.23 202.5 331.73 202.5 331.73 186"/></clipPath></defs><g id="Calque_3" data-name="Calque 3"><path class="cls-2" d="M380.49,90.46c8.8-9.46,6.14-25.18,6.14-25.18"/><path class="cls-3" d="M418.81,163.54C406.7,170,406,139.3,405,137.66c-3-1.23-7,1.36-10.2.51-7.36-1.95-28.68,1.25-31.89,3.29-.84.53,13.1,16,12.31,16.57-7.33,5.55-17.11,29.25-16.7,40.1.84,22.52,9.18,46.09-9.25,57.67-21.38,13.42-30.18-5.25-36.89-12.28-6.1-6.39-29.54-27.78-9.43-68.76,4.4-8.95,9.34-17.58,11.52-27.32,6.87-30.68,19.7-73.09,55.87-64.75,12.15,2.8,8,5,11.89,3.75,12.95-4,67.67-2.21,41.08,63.54C420.52,156.93,420.27,160.29,418.81,163.54Z"/><g id="_Repetition_miroir_" data-name="&lt;Repetition miroir&gt;"><g class="cls-4"><path class="cls-5" d="M417.33,190.74c4.49-2.12,7.05-13.21,8.4-18,1-3.57,1.44-12.71-1.67-14.74-2.7-1.77-12.36,3.81-12.36,3.81l-.95,13.23L408.61,189S415.32,191.69,417.33,190.74Z"/></g></g><g id="_Repetition_miroir_2" data-name="&lt;Repetition miroir&gt;"><g class="cls-6"><path class="cls-5" d="M329.48,190.74c-4.49-2.12-7.05-13.21-8.4-18-1-3.57-1.44-12.71,1.66-14.74,2.71-1.77,12.37,3.81,12.37,3.81l.95,13.23L338.2,189S331.49,191.69,329.48,190.74Z"/></g></g><rect class="cls-1" x="373.05" y="113.82" width="41.71" height="112.28"/><path class="cls-7" d="M413.69,148.85c-1.22-6.89-5.84-19.47-10.84-24.38-5.82-5.71-17-9.4-26.3-10.38v-.27c-1.08,0-2.2,0-3.33,0-.55,0-1.1,0-1.64,0v.11c-10.63.75-22.34,4.7-28.3,10.54-5,4.91-9.61,17.49-10.83,24.38-1.81,10.23,3.52,42.06,6.82,51.91C347,224,355.65,219,362.37,223.87c2.59,1.89,10.7,1.72,10.7,1.72s8.07.11,10.7-1.72c8-5.57,14.8-.93,23.1-23.11C410.51,191,415.5,159.08,413.69,148.85Z"/><rect class="cls-1" x="331.38" y="113.82" width="41.71" height="112.28"/><g class="cls-8"><rect class="cls-9" x="414.28" y="186" width="10.5" height="16.5" rx="5.25"/></g><g class="cls-10"><rect class="cls-9" x="321.23" y="186" width="10.5" height="16.5" rx="5.25"/></g><path class="cls-3" d="M331.38,158.48c-.28-4.19,7.74-31.36,11.71-30.46,11.76,2.67,28.89,4.43,30,4.5,1.9.12,18.75-.77,30.58-4.5,5.42-1.71,10.26,31.95,10.26,31.95l6.54-2.31,1.66-49.42-94.29.85Z"/><path class="cls-11" d="M403.63,128s31.9-41.58-21.39-41.58"/><path class="cls-11" d="M351.3,129.62S327.25,89,352.23,83c21.17-5.11,28.26,7.48,28.26,7.48,21.6,26.91-7.44,42.06-7.44,42.06"/><path class="cls-11" d="M336.34,132.52s-18.4-2.91-12.4-15.15"/><path class="cls-11" d="M331.38,158.48s-19.36-1.27-16.9-11"/><path class="cls-11" d="M410,136.66s13.56,11.72,18.91-4.14"/><path class="cls-11" d="M321.23,176.6s-27.16,18.12-9.91,37.1S324.91,257,324.91,257"/><path class="cls-11" d="M339.27,200.76s-5.52,13,4,24.84,9.3,28.35,6,30.2"/></g></svg>