<svg xmlns="http://www.w3.org/2000/svg" xmlns:xlink="http://www.w3.org/1999/xlink" viewBox="0 0 198 210.78"><defs><style>.cls-1,.cls-11,.cls-2{fill:none;}.cls-2{stroke:#fafafa;}.cls-11,.cls-2{stroke-miterlimit:10;}.cls-3{clip-path:url(#clip-path);}.cls-4{fill:#d3745e;}.cls-5{clip-path:url(#clip-path-2);}.cls-6{fill:#e78367;}.cls-7{clip-path:url(#clip-path-3);}.cls-8{fill:#55baca;}.cls-9{clip-path:url(#clip-path-4);}.cls-10{fill:#e9b992;}.cls-11{stroke:#54331a;}</style><clipPath id="clip-path"><polygon class="cls-1" points="134.13 110.89 134.13 110.89 151.99 110.89 151.99 144.17 134.13 144.17 134.13 110.89"/></clipPath><clipPath id="clip-path-2"><polygon class="cls-1" points="63.72 110.89 63.72 110.89 45.85 110.89 45.85 144.17 63.72 144.17 63.72 110.89"/></clipPath><clipPath id="clip-path-3"><polygon class="cls-1" points="139.8 139.22 139.8 139.22 150.3 139.22 150.3 155.72 139.8 155.72 139.8 139.22"/></clipPath><clipPath id="clip-path-4"><polygon class="cls-1" points="57.26 139.22 57.26 139.22 46.76 139.22 46.76 155.72 57.26 155.72 57.26 139.22"/></clipPath></defs><g id="Calque_3" data-name="Calque 3"><path class="cls-2" d="M106,43.68c8.8-9.46,6.14-25.18,6.14-25.18"/><g id="_Repetition_miroir_" data-name="&lt;Repetition miroir&gt;"><g class="cls-3"><path class="cls-4" d="M142.85,144c4.49-2.13,7.05-13.22,8.4-18,1-3.57,1.44-12.71-1.66-14.75-2.71-1.77-12.37,3.81-12.37,3.81l-.95,13.23-2.14,13.95S140.84,144.91,142.85,144Z"/></g></g><g id="_Repetition_miroir_2" data-name="&lt;Repetition miroir&gt;"><g class="cls-5"><path class="cls-4" d="M55,144c-4.49-2.13-7-13.22-8.4-18-1-3.57-1.44-12.71,1.66-14.75C51,109.46,60.63,115,60.63,115l.95,13.23,2.14,13.95S57,144.91,55,144Z"/></g></g><rect class="cls-1" x="98.57" y="67.04" width="41.71" height="112.28"/><path class="cls-6" d="M139.21,102.07C138,95.18,133.37,82.6,128.38,77.7c-5.82-5.72-17-9.4-26.31-10.39V67c-1.09,0-2.21,0-3.33,0L97.1,67v.11c-10.64.75-22.35,4.7-28.31,10.55-5,4.9-9.61,17.48-10.83,24.37-1.81,10.24,3.53,42.06,6.82,51.92,7.77,23.22,16.38,18.21,23.1,23.1,2.59,1.89,10.7,1.72,10.7,1.72s8.07.11,10.7-1.72c8-5.57,14.8-.93,23.1-23.1C136,144.25,141,112.31,139.21,102.07Z"/><rect class="cls-1" x="56.9" y="67.04" width="41.71" height="112.28"/><g class="cls-7"><rect class="cls-8" x="139.8" y="139.22" width="10.5" height="16.5" rx="5.25"/></g><g class="cls-9"><rect class="cls-8" x="46.76" y="139.22" width="10.5" height="16.5" rx="5.25"/></g><path class="cls-10" d="M136.78,121.33c-1.47-.62-2.07-11.15-3.91-19.64-4.15-19.22-41.43-14.54-44.62-15.26-4.4-1-6.94-2.08-8.34-3.1-.69,6.59-4.61,10.79-8.47,15.27-5.09,5.9-10.09,12.28-7.45,25.24.31,1.52,5,11.86,6.88,22.69,1.47,8.34,1.36,9.88.62,11.43s-3.68,7.72-13.23,9c-5.82.75,10.57-29-4.9-13.29-.65.66-36.43-18.34-26.72-49.73,3.33-10.77,14.73-22.12,23-29.13a75.12,75.12,0,0,1,9.05-6.86s-8-10.21,5.85-20.83A60.29,60.29,0,0,1,79.9,39c9.95-3.77,2.8,0,12.91,0,16.28,0,32,11.43,32,11.43s12.13,9,23.53,41.08C156.15,113.61,138.25,122,136.78,121.33Z"/><path class="cls-11" d="M80,81.36s-2.93-19.2,24.7-12.54c42.87,10.33,32,52.51,32,52.51"/><path class="cls-11" d="M66.61,71.89S51.85,50.31,83.12,49.65s57.2,27.28,58.13,27"/></g></svg>