<svg xmlns="http://www.w3.org/2000/svg" xmlns:xlink="http://www.w3.org/1999/xlink" viewBox="0 0 198 210.78"><defs><style>.cls-1,.cls-2{fill:none;}.cls-2{stroke:#fafafa;stroke-miterlimit:10;}.cls-3{clip-path:url(#clip-path);}.cls-4{fill:#d3745e;}.cls-5{clip-path:url(#clip-path-2);}.cls-6{fill:#e78367;}.cls-7{clip-path:url(#clip-path-3);}.cls-8{fill:#55baca;}.cls-9{clip-path:url(#clip-path-4);}.cls-10{fill:#e9b992;}</style><clipPath id="clip-path"><polygon class="cls-1" points="134.13 110.89 134.13 110.89 151.99 110.89 151.99 144.17 134.13 144.17 134.13 110.89"/></clipPath><clipPath id="clip-path-2"><polygon class="cls-1" points="63.72 110.89 63.72 110.89 45.85 110.89 45.85 144.17 63.72 144.17 63.72 110.89"/></clipPath><clipPath id="clip-path-3"><polygon class="cls-1" points="139.8 139.22 139.8 139.22 150.3 139.22 150.3 155.72 139.8 155.72 139.8 139.22"/></clipPath><clipPath id="clip-path-4"><polygon class="cls-1" points="57.26 139.22 57.26 139.22 46.76 139.22 46.76 155.72 57.26 155.72 57.26 139.22"/></clipPath></defs><g id="Calque_3" data-name="Calque 3"><path class="cls-2" d="M106,43.68c8.8-9.46,6.14-25.18,6.14-25.18"/><g id="_Répétition_miroir_" data-name="&lt;Répétition miroir&gt;"><g class="cls-3"><path class="cls-4" d="M142.85,144c4.49-2.13,7.05-13.22,8.4-18,1-3.57,1.44-12.71-1.66-14.75-2.71-1.77-12.37,3.81-12.37,3.81l-.95,13.23-2.14,13.95S140.84,144.91,142.85,144Z"/></g></g><g id="_Répétition_miroir_2" data-name="&lt;Répétition miroir&gt;"><g class="cls-5"><path class="cls-4" d="M55,144c-4.49-2.13-7-13.22-8.4-18-1-3.57-1.44-12.71,1.66-14.75C51,109.46,60.63,115,60.63,115l.95,13.23,2.14,13.95S57,144.91,55,144Z"/></g></g><rect class="cls-1" x="98.57" y="67.04" width="41.71" height="112.28"/><path class="cls-6" d="M139.21,102.07C138,95.18,133.37,82.6,128.38,77.7c-5.82-5.72-17-9.4-26.31-10.39V67c-1.09,0-2.21,0-3.33,0L97.1,67v.11c-10.64.75-22.35,4.7-28.31,10.55-5,4.9-9.61,17.48-10.83,24.37-1.81,10.24,3.53,42.06,6.82,51.92,7.77,23.22,16.38,18.21,23.1,23.1,2.59,1.89,10.7,1.72,10.7,1.72s8.07.11,10.7-1.72c8-5.57,14.8-.93,23.1-23.1C136,144.25,141,112.31,139.21,102.07Z"/><rect class="cls-1" x="56.9" y="67.04" width="41.71" height="112.28"/><g class="cls-7"><rect class="cls-8" x="139.8" y="139.22" width="10.5" height="16.5" rx="5.25"/></g><g class="cls-9"><rect class="cls-8" x="46.76" y="139.22" width="10.5" height="16.5" rx="5.25"/></g><path class="cls-10" d="M59.91,93.83C60.22,92.28,83,98,83,98l3.25-8.47V98s7,.29,6.58,0,0-14,0-14l1.56,2.87S95.16,98,95.75,98.11,137,93.83,137,93.83s5.18,40.89,0,76.54c-.08.5,1.89-2.09,5-6.5,5.86-8.28,6.15-72,6.15-72.49s-2.11-15.27-10.85-23.54c-7.72-7.3-14.56-5.73-14.56-5.73S118.12,53.34,108.41,51c-7-1.69-17.47,1.52-18.25,1.86s-22.74,3-34.21,24.1c-8.35,15.36-7,60.9-6.8,62.93s.93,19.25,1.75,20.45c6.17,9.14,10.74,10.25,10.5,10C58.8,154.16,57.64,105.26,59.91,93.83Z"/></g></svg>