<?xml version="1.0" encoding="utf-8"?>
<!-- Generator: Adobe Illustrator 26.0.2, SVG Export Plug-In . SVG Version: 6.00 Build 0)  -->
<svg version="1.1" id="Layer_1" xmlns="http://www.w3.org/2000/svg" xmlns:xlink="http://www.w3.org/1999/xlink" x="0px" y="0px"
	 viewBox="0 0 788 683" style="enable-background:new 0 0 788 683;" xml:space="preserve">
<style type="text/css">
	.st0{fill:#3688B2;}
	.st1{fill:#84331E;}
	.st2{fill:#72271F;}
	.st3{fill:#131944;}
	.st4{fill:#D79072;}
	.st5{fill:none;stroke:#6999AA;stroke-width:2;stroke-linecap:round;stroke-miterlimit:10;}
	.st6{fill:none;stroke:#6699AA;stroke-width:2;stroke-linecap:round;stroke-miterlimit:10;}
	.st7{fill:#1F2959;}
</style>
<g>
	<path class="st0" d="M314.1,326.9c1.2,13.4,12,23.8,25.4,24.4l0,0c12.8,0.6,24.3-7.9,27.3-20.3c0,0,18.9-88.8,21-120.8
		c0.5-7.6-0.8-30.4-0.8-30.4l-3.3-53.1c0,0-3-25.1-29.3-29c-30.3-4.5-31.7,11.8-31.7,11.8s-14.9,78.9-16,105.5
		C305.6,239.5,314.1,326.9,314.1,326.9z"/>
	<path class="st0" d="M338.3,309.6c-13.9-0.2-22.3,6.7-24.9,18.2c0,0-7.1,55.4-8.3,77c-1.9,34.7,2.5,101.6,7.2,136
		c1,7.5,3,30.3,3,30.3c0.6,6.8,6.4,12,13.2,11.9l0,0c6.7-0.1,12.2-5.2,12.9-11.8c0,0,2.2-26.1,3.5-34.8c4.6-31.4,18-93.5,20-125.1
		c1.2-19-0.4-77.5-0.4-77.5C363.7,314.4,350.2,310.2,338.3,309.6L338.3,309.6z"/>
	<path class="st1" d="M327.8,563L327.8,563c-6.1,0.2-11.5,3.7-14.1,9.2l0,0c-5.8,12.3-30.5,28.9-30.5,28.9
		c-4.4,3.5-6.6,9.1-5.6,14.6l0,0l60.3-0.3l3.4-1c3.9-1.2,6.4-5,6-9l-3.5-30C342,568,335.3,562.9,327.8,563z"/>
	<path class="st2" d="M279.3,615.4L279.3,615.4c-0.8-4.9,2.5-9.5,7.4-10.4c0,0,0.1,0,0.1,0l35.9-5.4c4.6-0.7,9,2.2,10.1,6.8l2.1,8.5
		L279.3,615.4z"/>
	<path class="st3" d="M435.8,69.7c16.2,5.2,23.2,9.6,27,16.6c3.1,5.6,6,18.5,6.3,24.9c0.5,15.1-7.8,52.9-21.9,65.6
		c-14.4,12.9-84.8,12.9-99.2,0c-14.2-12.6-30-52-29.4-67c0.2-6.4,3.8-18.9,12.2-26.6c5.9-5.3,12.4-8.2,28.6-13.4
		c18.5-6,37.3-5,37.3-5S417.3,63.7,435.8,69.7z"/>
	<path class="st3" d="M477.2,326.9c-1.2,13.4-12,23.8-25.4,24.4l0,0c-12.8,0.6-24.3-7.9-27.3-20.3c0,0-18.9-88.8-20.9-120.8
		c-0.5-7.9,4.1-83.4,4.1-83.4s-2.8-22.4,29.3-29c28.6-5.9,31.7,11.8,31.7,11.8s14.9,77.9,16,104.5
		C485.6,238.5,477.2,326.9,477.2,326.9z"/>
	<path class="st0" d="M454.1,309.6c12.4-0.2,19.9,6.7,22.2,18.2c0,0,14.4,53.4,15.5,75c1.7,34.7-10.2,103.6-14.5,138
		c-0.9,7.5-2.7,30.3-2.7,30.3c-0.6,6.8-5.7,11.9-11.8,11.8l0,0c-6-0.1-10.9-5.2-11.5-11.8c0,0-2-26.1-3.1-34.8
		c-4.1-31.4-16.1-93.5-17.9-125.1c-1.1-19,0.4-77.5,0.4-77.5C431.4,314.4,443.4,310.1,454.1,309.6L454.1,309.6z"/>
	<path class="st4" d="M477.1,559.2c-1.2,34,40.1,38.4,40.1,38.4c4.4,3.5-67,21.8-66.6,17.8c0,0,1.5-52-1-65.2
		C447.7,540.9,477.8,539.2,477.1,559.2z"/>
	<path class="st1" d="M464.2,578c6.4-2.2,5.9-6.8,8.5-9.4c1.5-1.5,7.9-3.2,8.8-1.2c10.7,22.7,61.2,35.4,61.2,35.4
		c5.3,3.8,6.6,9.1,5.5,14.6l0,0c0,0-38.8,15.2-62.8,4.5c-4.8-2.2-13.9-2.7-13.9-2.7s-31.6,0.3-30.3-6.5l-2.5-42.7
		C440.3,562.6,453.3,581.8,464.2,578z"/>
	<path class="st2" d="M548.7,617.9c0.8-9-4.3-14.7-6-14.4c-2.5,0.3-6.5,2.4-9,2.8c-4,0.7-16-0.3-16-0.3c-3.1-0.3-5.6,2.8-5.9,7.1
		l-0.2,12.5c0,0,9-2.5,24.6-5.4C539.2,619.6,548.7,617.9,548.7,617.9z"/>
	<path class="st3" d="M318.6,109.7l-2.2,20.6c-0.5,9.5-0.9,19-1.4,28.6l-19.9,420l21-0.9l34.8,0.7c0,0,12.6-142.1,15.4-175.9
		c1.6-19.6,2.3-59.1,5.1-78.6c4.1-28.4,25.8-111.8,25.8-111.8l1.8-103.6L318.6,109.7z"/>
	<polygon class="st3" points="390.1,119.5 391.7,215.1 419.3,380.8 433.7,551.8 434.8,582.9 489.6,576.5 488.7,540.2 489.4,366 
		465.1,117.3 396.3,119.9 	"/>
	<path class="st5" d="M310.8,581.6c0,0,4.7-3.4,8.9-3.3c5.1,0,10,3.1,10,3.1"/>
	<path class="st6" d="M492,577.3c0,0-5.1,2.1-9,2.2"/>
	<path class="st3" d="M401,241.6c6.2,7.2,3.4,374.3-55.4,350.4c-38.1-15.5-53.7,16.9-59.7-22.3s-4.9-313.3,29.2-410.8
		c0,0,166.4-14.4,166.5,27.8s73.6,402.9,32.1,396.6c-62.4-9.5-78.9,26.9-92-3.9S401,241.6,401,241.6z"/>
	<path class="st7" d="M284.1,538.2l97.5,5.5c5.4,0.3,9.6,5,9.3,10.4l-1.8,31.5c-0.3,5.4-5,9.6-10.4,9.3l-97.5-5.5
		c-5.4-0.3-9.6-5-9.3-10.4l1.8-31.5C274,542.1,278.7,537.9,284.1,538.2z"/>
	<path class="st7" d="M421.6,549.1l101.9-16.2c5.4-0.9,10.4,2.8,11.3,8.2l5,31.2c0.9,5.4-2.8,10.4-8.2,11.3l-101.9,16.2
		c-5.4,0.9-10.4-2.8-11.3-8.2l-5-31.2C412.6,555,416.2,550,421.6,549.1z"/>
</g>
</svg>
