<?xml version="1.0" encoding="utf-8"?>
<!-- Generator: Adobe Illustrator 26.0.3, SVG Export Plug-In . SVG Version: 6.00 Build 0)  -->
<svg version="1.1" id="Layer_1" xmlns="http://www.w3.org/2000/svg" xmlns:xlink="http://www.w3.org/1999/xlink" x="0px" y="0px"
	 viewBox="0 0 788 705" style="enable-background:new 0 0 788 705;" xml:space="preserve">
<style type="text/css">
	.st0{fill:#614652;}
	.st1{fill:#B85727;}
	.st2{fill:#C4A69F;}
	.st3{fill:#B18980;}
	.st4{fill:none;stroke:#4F3742;stroke-miterlimit:10;}
	.st5{fill:#8CB5B5;}
</style>
<path class="st0" d="M345.3,351.7c3.3,13,15.6,21.6,29,20.2l0,0c12.7-1.4,22.7-11.6,23.8-24.4c0,0,4.7-90.7,1.8-122.6
	c-0.7-7.6-5.5-29.9-5.5-29.9l-11.5-51.9c0,0-6.8-24.3-33.4-24.1c-30.6,0.3-29.5,16.6-29.5,16.6s-2.4,80.3,0.7,106.7
	C323.3,266.7,345.3,351.7,345.3,351.7z"/>
<path class="st1" d="M366.5,330.8c-13.8,2-21,10.1-21.7,21.8c0,0,1.6,55.8,3.8,77.4c3.5,34.6,18.3,100,28.4,133.2
	c2.2,7.3,7.7,29.4,7.7,29.4c1.7,6.6,8.2,10.8,14.9,9.6l0,0c6.6-1.1,11.3-7,10.9-13.7c0,0-1.9-26.2-2-34.9
	c-0.4-31.7,3.2-95.2,0.2-126.7c-1.8-19-12.5-76.5-12.5-76.5C392.3,331.6,378.4,329.5,366.5,330.8L366.5,330.8z"/>
<path class="st2" d="M396.5,584.5L396.5,584.5c-6.1,0.1-11.5,3.6-14.2,9.1l0,0c-5.9,12.3-30.7,28.7-30.7,28.7
	c-4.4,3.4-6.6,9.1-5.6,14.6l0,0h60.3l3.4-1c3.9-1.2,6.4-4.9,6-8.9l-3.3-30C410.7,589.5,404,584.3,396.5,584.5z"/>
<path class="st3" d="M347.7,636.6L347.7,636.6c-0.8-4.9,2.6-9.5,7.5-10.3c0,0,0.1,0,0.1,0l35.9-5.2c4.6-0.6,8.9,2.3,10,6.8l2,8.5
	L347.7,636.6z"/>
<path class="st0" d="M644.6,158c12.6,4.5,20,17.7,17.2,30.8l0,0c-2.6,12.5-13.8,21.5-26.6,21.3c0,0-90.7-4.2-122.2-10.2
	c-7.8-1.5-79.7-25-79.7-25s-22.4-2.9-20.7-35.6c1.5-29.2,19.3-27.8,19.3-27.8s79.1,5.2,105.2,10.9C561.2,127.6,644.6,158,644.6,158z
	"/>
<path class="st1" d="M660.4,179.7c6.1,10.8,3.7,20.7-5.3,28.2c0,0-40,38.2-58.4,49.5c-29.6,18.1-95.9,40.6-128.1,53.4
	c-7,2.8-27.9,12.2-27.9,12.2c-6.2,2.7-13.2,0.7-16-4.7l0,0c-2.8-5.3-0.7-12.1,4.9-15.8c0,0,22-14.3,29-19.4
	c25.6-18.6,74.4-58.9,101.3-75.6c16.1-10.1,68.2-36.8,68.2-36.8C645.3,162.1,654.8,170.7,660.4,179.7z"/>
<path class="st1" d="M451,314.3c-33.9,3.2-34.1,53.2-34.1,53.2c-2.9,4.8-30.3-63.6-26.2-63.8c0,0,51.8-5.2,64.5-9.4
	C464.2,291.4,470.9,312.4,451,314.3z"/>
<path class="st2" d="M438.1,310.5c3,6,7.5,5,10.4,7.2c1.7,1.3,4.2,7.4,2.3,8.6c-21.1,13.5-27.2,65.2-27.2,65.2
	c-3.1,5.8-8.2,7.7-13.8,7.4l0,0c0,0-14.9-42.2-7.4-67.4c1.5-5-4.2-8.5-4.2-8.5s-6.6-21.8,0.3-21.4l42-8
	C448.1,294.3,433,300.1,438.1,310.5z"/>
<path class="st3" d="M400.8,401.4c9-0.3,14-6.1,13.5-7.8c-0.6-2.4-3.2-6.2-4-8.5c-1.2-3.8-1.8-15.9-1.8-15.9
	c-0.1-3.1-3.5-5.2-7.8-4.9l-8.6,0.9c0,0,0,7.4,4.7,24.2C397.8,392.2,400.8,401.4,400.8,401.4z"/>
<path class="st3" d="M379.4,603c0,0,4.8-3.3,8.9-3.3c5.1,0,10,3.2,10,3.2"/>
<polygon class="st4" points="396,189.6 391,149.6 406,149.6 405,181.9 "/>
<path class="st5" d="M319.6,128.5c0,0,58-10.8,148.6-14.2c69.7-2.6,179.7,34.6,188.8,46.5s15.8,39.1,6.8,44.2
	c-30.3,17.1-72.9,76.7-99.7,89c-65.9,30.1-79.4,10.5-87.5,13.6s-12.6,5.1-12.6,5.1l-16.7-21.9c0,0,16.8-10.2,16.7-11.7
	c-0.1-1,13.4-24.2,29.8-47.7c9.7-13.9,27.1-21.2,37.3-21.2c0,0-60,32.5-135.6-10.4C355.7,177.3,319.6,128.5,319.6,128.5z"/>
<path class="st5" d="M322.8,119c-1.3,2.3-9.6,71.2-10.5,120.8s-20.7,225.3,5.3,257.5s59.1,65.9,59.1,65.9l4.2,19.7
	c8.6-3.7,29.7-6.4,29.7-6.4l-1.8-15.6c4.6-7.8,29.9-72.8,25.1-105s-22.8-16.9-23.3-57.5c-0.5-40.8-3.9-96.5-4.7-96.4
	c17.5-25,16.1-65.8,24.7-87s1.1-99-7-98.4S329.7,106.7,322.8,119z"/>
<path class="st5" d="M323.6,167.2c-1.3-2.3-4.6-16.1-4.6-16.1s-0.7-25.7,4.6-39.5s38.8-28.3,83.3-25.4s54.1,12.8,61.6,22.4
	s0.5,20.7-1.5,21.7s-140.6,50.9-143.4,39.4"/>
</svg>
