<?xml version="1.0" encoding="utf-8"?>
<!-- Generator: Adobe Illustrator 26.0.3, SVG Export Plug-In . SVG Version: 6.00 Build 0)  -->
<svg version="1.1" id="Layer_1" xmlns="http://www.w3.org/2000/svg" xmlns:xlink="http://www.w3.org/1999/xlink" x="0px" y="0px"
	 viewBox="0 0 788 1005" style="enable-background:new 0 0 788 1005;" xml:space="preserve">
<style type="text/css">
	.st0{fill:#B85727;}
	.st1{fill:#7F91D3;}
	.st2{fill:#7EA885;}
	.st3{fill:none;stroke:#7EA885;stroke-width:2;stroke-linecap:round;stroke-miterlimit:10;}
</style>
<g>
	<path class="st0" d="M336.7,631.3c-13.9-0.2-22.3,6.7-24.9,18.2c0,0-7.1,55.4-8.3,77c-1.9,34.7,2.5,101.6,7.2,136
		c1,7.5,3,30.3,3,30.3c0.6,6.8,6.4,12,13.2,11.9l0,0c6.7-0.1,12.2-5.2,12.9-11.8c0,0,2.2-26.1,3.5-34.8c4.6-31.3,18-93.5,20-125.1
		c1.2-19-0.4-77.5-0.4-77.5C362.1,636.1,348.7,631.9,336.7,631.3L336.7,631.3z"/>
	<path class="st1" d="M326.2,884.7L326.2,884.7c-6.1,0.2-11.5,3.7-14.1,9.2l0,0c-5.8,12.3-30.5,28.9-30.5,28.9
		c-4.4,3.5-6.6,9.1-5.6,14.6l0,0l60.3-0.3l3.4-1c3.9-1.2,6.4-5,6-9l-3.5-30C340.4,889.7,333.8,884.5,326.2,884.7z"/>
	<path class="st1" d="M277.7,937.1L277.7,937.1c-0.8-4.9,2.5-9.5,7.4-10.4h0.1l35.9-5.4c4.6-0.7,9,2.2,10.1,6.8l2.1,8.5L277.7,937.1
		z"/>
	<path class="st0" d="M452.5,631.3c12.4-0.2,19.9,6.7,22.2,18.2c0,0,14.4,53.4,15.5,75c1.7,34.7-10.2,103.6-14.5,138
		c-0.9,7.5-2.7,30.3-2.7,30.3c-0.6,6.8-5.7,11.9-11.8,11.8l0,0c-6-0.1-10.9-5.2-11.5-11.8c0,0-2-26.1-3.1-34.8
		c-4.1-31.3-16.1-93.5-17.9-125.1c-1.1-19,0.4-77.5,0.4-77.5C429.9,636.1,441.9,631.8,452.5,631.3L452.5,631.3z"/>
	<path class="st0" d="M474.2,878c-1.2,34,41.4,41.2,41.4,41.2c4.4,3.5-67,21.8-66.6,17.8c0,0,1.5-52-1-65.2
		C446.2,862.6,474.9,858,474.2,878z"/>
	<path class="st1" d="M462.7,899.7c6.4-2.2,5.9-6.8,8.5-9.4c1.5-1.5,7.9-3.2,8.8-1.2c10.7,22.7,61.2,35.4,61.2,35.4
		c5.4,3.8,6.6,9.1,5.5,14.6l0,0c0,0-43.8,9.4-67.8-1.3c-4.8-2.2-9,3-9,3s-22.4,3.7-21.2-3l-2.5-42.7
		C448,887.7,451.7,903.5,462.7,899.7z"/>
	<path class="st1" d="M547.2,939.6c0.8-9-4.3-14.7-6-14.4c-2.5,0.3-6.5,2.4-9,2.8c-4,0.7-16-0.3-16-0.3c-3.1-0.3-5.6,2.8-5.9,7.1
		l-0.2,8.6c0,0,7.3,1,24.6-1.6C537.7,941.4,547.2,939.6,547.2,939.6z"/>
	<path class="st2" d="M330.2,431c-7.6,0.1-11.8-9.6-13.1-2.2l-2.2,15.2l-12.8,95c-0.1,0.5-0.1,1-0.1,1.4l-6.8,163.7
		c-0.3,7.8,5.8,15.1,16.2,19.4h0.1c2.1,0.9,4.3,1.2,6.6,1.2l12.9-0.5c19.8-0.8,35.8-10.6,37.5-23c3.6-25.7,9.5-67,11.3-81.2
		c1.6-12.3,0.3-40.2,3.1-52.5c3.8-16.4,11.4-63.5,12.7-71c0.1-0.7,0.2-1.4,0.2-2.1l1.3-47.8c0.2-8.8-6.9-16.1-15.7-16L330.2,431z"/>
	<path class="st2" d="M388.5,437.2l1.6,60l19.6,102.1l6.7,104.9c0.2,2.4,1.1,4.7,2.8,6.4l0,0c2,2.1,3.7,4.3,5.5,6.5
		c6.4,7.9,25.7,7.6,41,6.7l2.5-0.1c16.6-0.9,30.2-8.5,33.8-18.7l1.1-3.1l-8.3-93L473.4,433l-78.7,4.4L388.5,437.2z"/>
	<path class="st3" d="M309.3,903.3c0,0,4.7-3.4,8.9-3.3c5.1,0,10,3.1,10,3.1"/>
	<path class="st3" d="M306.4,908.9c0,0,4.7-3.4,8.9-3.3c5.1,0,10,3.1,10,3.1"/>
	<path class="st3" d="M490.4,899c0,0-5.1,2.1-9,2.2"/>
	<path class="st3" d="M496.1,903.9c0,0-5,2.4-8.9,2.7"/>
	<path class="st2" d="M438.3,397.8c17.9,6,25.7,11.1,30,19c3.5,6.5,6.7,21.2,7,28.6c0.6,17.3-8.6,60.8-24.3,75.4
		c-16,14.8-93.9,14.8-109.9,0c-15.7-14.5-24.9-58-24.3-75.4c0.3-7.4-0.2-9.3,0.4-16.6c1.5-18.2,18.7-25,36.5-31
		c20.5-6.9,41.3-5.8,41.3-5.8S417.8,390.9,438.3,397.8z"/>
	<path class="st1" d="M474.1,436.2c0,0,20.1,164.4,20.8,172.6c0.7,8.2,8.3,93,8.3,93s-2,8.8-8.3,12.8c-0.1,0.1-8.9-102.4-14-136
		s-21.5-171.4-21.5-171.4s6.3,4,8.5,8.9S472.6,428.3,474.1,436.2z"/>
	<path class="st1" d="M301.4,535.5c0,0-0.7,44.7-1.4,52.9c-0.7,8.2-4.5,118.1-4.5,118.1s1.2,8.4,7.6,12.4
		c0.1,0.1,2.1-105.2,4.7-139.1c4.6-60.9,21.5-171.4,21.5-171.4s-7.9,6-10.1,10.8C316.9,424,302.8,527.6,301.4,535.5z"/>
	<path class="st2" d="M276.4,930.1c0,0-1.2,3.7-0.5,7.2l60.3-0.3c0,0,9.8-1.2,9.4-9.5l-0.4-3.3l-7,4.8c-1.7,1.2-3.7,1.8-5.8,1.7
		L276.4,930.1z"/>
	<path class="st2" d="M448.5,934.4l0.2,3.7c0,0-0.3,1.4,0.8,2.1c1.1,0.7,2.1,1.2,3.7,1.4s6.7,0.9,16.7-0.7c0,0,2.9-3.8,7.1-3.6
		c3.3,0.2,3.2,3,18.3,4.8c15.1,1.7,23.5,2.3,31.2,1.2s15.4-2.4,20.8-3.6V937c0,0-24.3,3.5-38,2.7s-29.6-6-32.2-6.2
		c-5.8-0.5-9,3.2-10.1,3.2S448.5,934.4,448.5,934.4z"/>
</g>
</svg>
