<?xml version="1.0" encoding="utf-8"?>
<!-- Generator: Adobe Illustrator 26.0.2, SVG Export Plug-In . SVG Version: 6.00 Build 0)  -->
<svg version="1.1" id="Layer_1" xmlns="http://www.w3.org/2000/svg" xmlns:xlink="http://www.w3.org/1999/xlink" x="0px" y="0px"
	 viewBox="0 0 788 1005" style="enable-background:new 0 0 788 1005;" xml:space="preserve">
<style type="text/css">
	.st0{fill:#3688B2;}
	.st1{fill:#84331E;}
	.st2{fill:#72271F;}
	.st3{fill:#131944;}
	.st4{fill:#D79072;}
	.st5{fill:none;stroke:#6999AA;stroke-width:2;stroke-linecap:round;stroke-miterlimit:10;}
	.st6{fill:none;stroke:#6699AA;stroke-width:2;stroke-linecap:round;stroke-miterlimit:10;}
	.st7{fill:#1F2959;}
</style>
<path class="st0" d="M312.6,648.7c1.2,13.4,12,23.8,25.4,24.4l0,0c12.8,0.6,24.3-7.9,27.3-20.3c0,0,18.9-88.8,21-120.8
	c0.5-7.6-0.8-30.4-0.8-30.4l-3.3-53.1c0,0-3-25.1-29.3-29c-30.3-4.5-31.7,11.8-31.7,11.8s-14.9,78.9-16,105.5
	C304.1,561.3,312.6,648.7,312.6,648.7z"/>
<path class="st0" d="M336.8,631.4c-13.9-0.2-22.3,6.7-24.9,18.2c0,0-7.1,55.4-8.3,77c-1.9,34.7,2.5,101.6,7.2,136
	c1,7.5,3,30.3,3,30.3c0.6,6.8,6.4,12,13.2,11.9l0,0c6.7-0.1,12.2-5.2,12.9-11.8c0,0,2.2-26.1,3.5-34.8c4.6-31.3,18-93.5,20-125.1
	c1.2-19-0.4-77.5-0.4-77.5C362.2,636.2,348.7,632,336.8,631.4L336.8,631.4z"/>
<path class="st1" d="M326.3,884.8L326.3,884.8c-6.1,0.2-11.5,3.7-14.1,9.2l0,0c-5.8,12.3-30.5,28.9-30.5,28.9
	c-4.4,3.5-6.6,9.1-5.6,14.6l0,0l60.3-0.3l3.4-1c3.9-1.2,6.4-5,6-9l-3.5-30C340.5,889.8,333.8,884.6,326.3,884.8z"/>
<path class="st2" d="M277.8,937.2L277.8,937.2c-0.8-4.9,2.5-9.5,7.4-10.4c0,0,0.1,0,0.1,0l35.9-5.4c4.6-0.7,9,2.2,10.1,6.8l2.1,8.5
	L277.8,937.2z"/>
<path class="st3" d="M434.3,391.5c16.2,5.2,23.2,9.6,27,16.6c3.1,5.6,6,18.5,6.3,24.9c0.5,15.1-7.8,52.9-21.9,65.6
	c-14.4,12.9-84.8,12.9-99.2,0c-14.2-12.6-30-52-29.4-67c0.2-6.4,3.8-18.9,12.2-26.6c5.9-5.3,12.4-8.2,28.6-13.4
	c18.5-6,37.3-5,37.3-5S415.8,385.5,434.3,391.5z"/>
<path class="st3" d="M475.6,648.7c-1.2,13.4-12,23.8-25.4,24.4l0,0c-12.8,0.6-24.3-7.9-27.3-20.3c0,0-18.9-88.8-20.9-120.8
	c-0.5-7.9,4.1-83.4,4.1-83.4s-2.8-22.4,29.3-29c28.6-5.9,31.7,11.8,31.7,11.8s14.9,77.9,16,104.5
	C484.1,560.3,475.6,648.7,475.6,648.7z"/>
<path class="st0" d="M452.6,631.4c12.4-0.2,19.9,6.7,22.2,18.2c0,0,14.4,53.4,15.5,75c1.7,34.7-10.2,103.6-14.5,138
	c-0.9,7.5-2.7,30.3-2.7,30.3c-0.6,6.8-5.7,11.9-11.8,11.8l0,0c-6-0.1-10.9-5.2-11.5-11.8c0,0-2-26.1-3.1-34.8
	c-4.1-31.3-16.1-93.5-17.9-125.1c-1.1-19,0.4-77.5,0.4-77.5C429.9,636.2,441.9,631.9,452.6,631.4L452.6,631.4z"/>
<path class="st4" d="M475.6,881c-1.2,34,40.1,38.4,40.1,38.4c4.4,3.5-67,21.8-66.6,17.8c0,0,1.5-52-1-65.2
	C446.2,862.7,476.3,861,475.6,881z"/>
<path class="st1" d="M462.7,899.8c6.4-2.2,5.9-6.8,8.5-9.4c1.5-1.5,7.9-3.2,8.8-1.2c10.7,22.7,61.2,35.4,61.2,35.4
	c5.3,3.8,6.6,9.1,5.5,14.6l0,0c0,0-38.8,15.2-62.8,4.5c-4.8-2.2-13.9-2.7-13.9-2.7s-31.6,0.3-30.3-6.5l-2.5-42.7
	C438.8,884.4,451.8,903.5,462.7,899.8z"/>
<path class="st2" d="M547.2,939.7c0.8-9-4.3-14.7-6-14.4c-2.5,0.3-6.5,2.4-9,2.8c-4,0.7-16-0.3-16-0.3c-3.1-0.3-5.6,2.8-5.9,7.1
	l-0.2,12.5c0,0,9-2.5,24.6-5.4C537.7,941.4,547.2,939.7,547.2,939.7z"/>
<path class="st3" d="M317.1,431.5l-2.2,20.6c-0.5,9.5-0.9,19-1.4,28.6l-19.9,420l21-0.9l34.8,0.7c0,0,12.6-142.1,15.4-175.9
	c1.6-19.6,2.3-59.1,5.1-78.6c4.1-28.4,25.8-111.8,25.8-111.8l1.8-103.6L317.1,431.5z"/>
<polygon class="st3" points="388.5,441.2 390.2,536.9 417.8,702.6 432.2,873.5 433.3,904.7 488.1,898.3 487.2,862 487.9,687.8 
	463.6,439.1 394.8,441.7 "/>
<path class="st5" d="M309.3,903.4c0,0,4.7-3.4,8.9-3.3c5.1,0,10,3.1,10,3.1"/>
<path class="st6" d="M490.5,899.1c0,0-5.1,2.1-9,2.2"/>
<path class="st3" d="M399.5,563.4c6.2,7.2,3.4,374.3-55.4,350.4c-38.1-15.5-53.7,16.9-59.7-22.3s-4.9-313.3,29.2-410.8
	c0,0,166.4-14.4,166.5,27.8s73.6,402.9,32.1,396.6c-62.4-9.5-78.9,26.9-92-3.9S399.5,563.4,399.5,563.4z"/>
<path class="st7" d="M282.6,860l97.5,5.5c5.4,0.3,9.6,5,9.3,10.4l-1.8,31.5c-0.3,5.4-5,9.6-10.4,9.3l-97.5-5.5
	c-5.4-0.3-9.6-5-9.3-10.4l1.8-31.5C272.5,863.9,277.2,859.7,282.6,860z"/>
<path class="st7" d="M420.1,870.9L522,854.7c5.4-0.9,10.4,2.8,11.3,8.2l5,31.2c0.9,5.4-2.8,10.4-8.2,11.3l-101.9,16.2
	c-5.4,0.9-10.4-2.8-11.3-8.2l-5-31.2C411.1,876.8,414.7,871.8,420.1,870.9z"/>
</svg>
