<?xml version="1.0" encoding="utf-8"?>
<!-- Generator: Adobe Illustrator 26.0.3, SVG Export Plug-In . SVG Version: 6.00 Build 0)  -->
<svg version="1.1" id="Layer_1" xmlns="http://www.w3.org/2000/svg" xmlns:xlink="http://www.w3.org/1999/xlink" x="0px" y="0px"
	 viewBox="0 0 788 679.6" style="enable-background:new 0 0 788 679.6;" xml:space="preserve">
<style type="text/css">
	.st0{fill:#1E1E1E;}
	.st1{fill:#944E31;}
	.st2{fill:#444444;}
	.st3{fill:#232323;}
</style>
<g id="Calque_1_00000067925932904696621430000017367076925061659539_">
	<path class="st0" d="M436.8,63.2C453.7,68.5,461,73,465,80.1c3.2,5.7,6.3,18.8,6.5,25.4c0.6,15.4-2.7,60.4-18.6,74.9
		c52.7-48-151.2-36-111.7,0c-16-14.5-19.3-60.5-18.7-75.9c0.2-6.5-0.2-8.3,0.3-14.7c1.4-16.1,17.5-22.2,34.4-27.6
		c19.3-6.1,38.9-5.1,38.9-5.1S417.5,57.1,436.8,63.2z"/>
</g>
<path class="st1" d="M336.7,302.5c-13.9-0.2-22.3,6.7-24.9,18.2c0,0-7.1,55.4-8.3,77c-1.9,34.7,2.5,101.6,7.2,136
	c1,7.5,3,30.3,3,30.3c0.7,6.8,6.4,11.9,13.2,11.8l0,0c6.7-0.1,12.2-5.2,12.9-11.8c0,0,2.2-26.1,3.5-34.8c4.6-31.3,18-93.5,20-125.2
	c1.2-19-0.4-77.5-0.4-77.5C362.1,307.3,348.6,303.1,336.7,302.5L336.7,302.5z"/>
<path class="st2" d="M326.2,555.9L326.2,555.9c-6.1,0.1-11.5,3.7-14.1,9.2l0,0c-5.9,12.3-30.6,28.9-30.6,28.9
	c-4.4,3.5-6.6,9.1-5.5,14.6l0,0l60.3-0.3l3.4-1c3.9-1.2,6.4-5,6-9l-3.5-30C340.5,560.9,333.8,555.7,326.2,555.9z"/>
<path class="st3" d="M277.7,608.3L277.7,608.3c-0.8-4.9,2.5-9.5,7.4-10.3h0.1l35.8-5.4c4.6-0.7,9,2.2,10.1,6.8l2.1,8.5L277.7,608.3z
	"/>
<path class="st1" d="M452.5,302.5c12.4-0.2,19.9,6.7,22.2,18.2c0,0,9.1,50.9,11.2,72.5c4.5,46-5.4,107.1-10.2,140.6
	c-1.1,7.5-2.7,30.3-2.7,30.3c-0.6,6.8-5.7,11.9-11.8,11.8l0,0c-6-0.1-10.9-5.2-11.5-11.8c0,0-2-26.1-3.1-34.8
	c-4.1-31.3-16.1-93.5-17.9-125.2c-1.1-19,0.4-77.5,0.4-77.5C429.8,307.3,441.9,303.1,452.5,302.5L452.5,302.5z"/>
<path class="st1" d="M475.5,552.1c-1.2,34,40.1,38.4,40.1,38.4c4.4,3.5-67,21.8-66.6,17.8c0,0,1.5-52-1-65.2
	C446.2,533.8,476.2,532.1,475.5,552.1z"/>
<path class="st2" d="M464.2,570.9c6.4-2.2,5.9-6.8,8.5-9.4c1.5-1.5,7.9-3.2,8.8-1.2c10.7,22.7,61.2,35.4,61.2,35.4
	c5.3,3.8,6.6,9.1,5.5,14.6l0,0c0,0-26.6,13.5-66,3.8c-5.1-1.3-10.8-2.1-10.8-2.1s-25.4,3.3-24.1-3.5l0.4-42.3
	C449.4,558.9,453.2,574.7,464.2,570.9z"/>
<path class="st3" d="M547.1,610.8c0.8-9-4.3-14.7-6-14.4c-2.5,0.3-6.5,2.4-9,2.8c-4,0.7-13.3,2.8-13.3,2.8c-3.1-0.3-5.6,2.8-5.9,7.1
	l-0.2,8.6c0,0,3.1,0.1,20.5-2.5C536.1,614.7,547.1,610.8,547.1,610.8z"/>
<path class="st0" d="M497.9,379.4c-1-41-26.5-267.9-26.5-268l-0.5-7.4c-0.8-10.9-10.3-19.4-21.6-19.4H347.5
	c-11.1,0-25.5,8.1-26.6,18.8l-1.2,12h0.1c0,0-24.3,238-23.2,266s10,188.1,10,188.1l45-1.6c0,0,25.7-175.5,25.7-199.5
	s20.9-182,20.9-182s22.7,148,21.7,172s18.9,216.8,18.9,216.8l54-5.5C492.8,569.7,498.9,420.4,497.9,379.4z"/>
<path class="st0" d="M349.4,578.7l-46.7-4.8c-1.8-0.2-3.1-1.8-2.9-3.6l0.3-3.3c0.2-1.8,1.8-3.1,3.6-2.9l46.7,4.8
	c1.8,0.2,3.1,1.8,2.9,3.6l-0.3,3.3C352.9,577.6,351.2,578.9,349.4,578.7z"/>
<path class="st3" d="M352.4,574l-50.8-5.2c-1.8-0.2-3.1-1.8-2.9-3.6l0.5-4.7c0.2-1.8,1.8-3.1,3.6-2.9l50.8,5.2
	c1.8,0.2,3.1,1.8,2.9,3.6l-0.5,4.7C355.8,572.9,354.1,574.2,352.4,574z"/>
<path class="st0" d="M493.3,574.2l-49.2,10.5c-2.2,0.5-4.4-0.8-4.8-2.8l-0.8-3.7c-0.4-2,1.1-4.1,3.3-4.5l49.2-10.5
	c2.2-0.5,4.4,0.8,4.8,2.8l0.8,3.7C497,571.7,495.5,573.7,493.3,574.2z"/>
<path class="st3" d="M494.7,568.1l-53.6,11.4c-2.2,0.5-4.4-0.8-4.8-2.8l-1.1-5.2c-0.4-2,1.1-4.1,3.3-4.5l53.6-11.4
	c2.2-0.5,4.4,0.8,4.8,2.8l1.1,5.2C498.5,565.6,497,567.6,494.7,568.1z"/>
</svg>
