<?xml version="1.0" encoding="utf-8"?>
<!-- Generator: Adobe Illustrator 26.0.3, SVG Export Plug-In . SVG Version: 6.00 Build 0)  -->
<svg version="1.1" id="Layer_1" xmlns="http://www.w3.org/2000/svg" xmlns:xlink="http://www.w3.org/1999/xlink" x="0px" y="0px"
	 viewBox="0 0 788 659.7" style="enable-background:new 0 0 788 659.7;" xml:space="preserve">
<style type="text/css">
	.st0{fill:none;stroke:#4F3742;stroke-miterlimit:10;}
	.st1{fill:#B85727;}
	.st2{fill:#DDCCB8;}
	.st3{fill:#404356;}
	.st4{fill:none;stroke:#404356;stroke-width:2;stroke-linecap:round;stroke-miterlimit:10;}
	.st5{fill:#2E323D;}
</style>
<polygon class="st0" points="394.8,114.7 389.5,72 405.5,72 404.4,106.4 "/>
<path d="M219.6,103.6h0.1H219.6z"/>
<polygon points="219.7,103.6 219.8,103.6 219.8,103.6 "/>
<path d="M219.6,103.6h0.1H219.6z"/>
<polygon points="219.7,103.6 219.8,103.6 219.8,103.6 "/>
<path class="st1" d="M333.2,265.5c-14.8-0.2-23.8,7.1-26.5,19.4c0,0-7.6,59-8.8,82.1c-2,37,2.7,108.3,7.7,145
	c1.1,8,3.2,32.3,3.2,32.3c0.6,7.2,6.8,12.8,14.1,12.7l0,0c7.1-0.1,13-5.5,13.7-12.6c0,0,2.3-27.8,3.7-37.1
	c4.9-33.4,19.2-99.7,21.3-133.3c1.3-20.3-0.4-82.6-0.4-82.6C360.3,270.6,345.9,266.1,333.2,265.5L333.2,265.5z"/>
<path class="st2" d="M322,535.6L322,535.6c-6.5,0.2-12.3,3.9-15,9.8l0,0c-6.2,13.1-32.5,30.8-32.5,30.8c-4.7,3.7-7,9.7-6,15.6l0,0
	l64.3-0.3l3.6-1.1c4.2-1.3,6.8-5.3,6.4-9.6l-3.7-32C337.2,540.9,330,535.4,322,535.6z"/>
<path class="st3" d="M270.3,591.4L270.3,591.4c-0.9-5.2,2.7-10.1,7.9-11.1h0.1l38.3-5.8c4.9-0.7,9.6,2.3,10.8,7.2l2.2,9.1
	L270.3,591.4z"/>
<path class="st1" d="M456.6,265.5c13.2-0.2,21.2,7.1,23.7,19.4c0,0,15.3,56.9,16.5,79.9c1.8,37-10.9,110.4-15.5,147.1
	c-1,8-2.9,32.3-2.9,32.3c-0.6,7.2-6.1,12.7-12.6,12.6l0,0c-6.4-0.1-11.6-5.5-12.3-12.6c0,0-2.1-27.8-3.3-37.1
	c-4.4-33.4-17.2-99.7-19.1-133.3c-1.2-20.3,0.4-82.6,0.4-82.6C432.4,270.6,445.2,266,456.6,265.5L456.6,265.5z"/>
<path class="st1" d="M480.7,506.4c-1.3,36.2,43.1,65.7,43.1,65.7c4.7,3.7-71.4,23.2-71,19c0,0,1.6-55.4-1.1-69.5
	C449.8,511.7,481.5,485.2,480.7,506.4z"/>
<path class="st2" d="M467.4,551.6c6.8-2.3,6.3-7.2,9.1-10c1.6-1.6,10.4-11.6,11.4-9.5c11.4,24.2,63.2,45.9,63.2,45.9
	c5.8,4.1,7,9.7,5.9,15.6l0,0c0,0-46.7,10-72.3-1.4c-5.1-2.3-11.4-1-11.4-1s-23.9,3.9-22.5-3.3l-1-41.4
	C451.7,538.8,455.8,555.5,467.4,551.6z"/>
<path class="st3" d="M557.5,594.1c0.9-9.6-4.6-15.7-6.4-15.3c-2.7,0.3-6.9,2.6-9.6,3c-4.3,0.7-17.1-0.3-17.1-0.3
	c-3.3-0.3-6,3-6.3,7.6l-0.2,9.2c0,0,7.8,1.1,26.2-1.7C547.3,596,557.5,594.1,557.5,594.1z"/>
<path class="st4" d="M303.9,555.4c0,0,5-3.6,9.5-3.5c5.4,0,10.7,3.3,10.7,3.3"/>
<g>
	<path class="st5" d="M393.5,104l-2.9-20c-0.5-3.2,2-6.1,5.2-6.1h3.6c3,0,5.4,2.5,5.3,5.5l-0.7,20c-0.1,1.6-0.9,3.1-2.2,4.1l0,0
		C398.7,109.8,394.1,107.9,393.5,104z"/>
	<path class="st5" d="M219.6,103.6h0.1H219.6z"/>
	<polygon class="st5" points="219.7,103.6 219.8,103.6 219.8,103.6 	"/>
	<path class="st5" d="M219.6,103.6h0.1H219.6z"/>
	<polygon class="st5" points="219.7,103.6 219.8,103.6 219.8,103.6 	"/>
	<path class="st5" d="M307.4,283.8c0,0.1,0,0.2,0,0.4c1.4,14.2,12.8,25.2,27.1,25.8l0,0c13.6,0.6,25.8-8.3,29-21.4
		c0-0.1,0.1-0.3,0.1-0.4c1-5.2,20.7-111.9,22.8-139c0.5-6.6-0.9-26.3-0.9-26.3L382.3,77c0-0.2,0-0.4-0.1-0.6
		c-0.5-2.7-4.9-21.7-29.7-24.8c-30.8-3.9-32.3,10.2-32.3,10.2s-15.1,68.4-16.3,91.5C302.9,174.1,307.2,278.8,307.4,283.8z"/>
	<path class="st5" d="M481.2,283.8c0,0.1,0,0.2,0,0.4c-1.4,14.2-12.8,25.2-27.1,25.8l0,0c-13.6,0.6-25.8-8.3-29-21.4
		c0-0.1-0.1-0.3-0.1-0.4c-1-5.3-20.6-111.9-22.7-139c-0.5-6.5,3.7-66,4.1-71.9c0-0.3,0-0.5,0-0.8C406.2,74,406,57,436.2,51.7
		c25.1-4.4,26.6,6.1,26.6,9.1c0,0.6,0.1,1.1,0.2,1.7c2.5,8.2,20.6,68.4,21.7,89.9C485.8,173.2,481.4,278.8,481.2,283.8z"/>
	<path class="st5" d="M325.6,41.5c-5.5,8.5-18,60.7-18.8,64c0,0.1,0,0.2-0.1,0.3c-0.5,2.9-7.2,41.9-7.2,46
		c0,4.3-12.5,185-12.6,187.4c-0.1,2.2,6.7,101,7.4,111.7c0,0.6,0,1.2-0.2,1.8l-6,20.4c-0.7,2.5,0.4,5.1,2.7,6.2l3.7,1.8
		c1.3,0.6,2.2,1.8,2.7,3.1l5.7,17.6c0.1,0.2,0.1,0.5,0.2,0.7l2.9,16.2c0.5,2.8,3.2,4.7,6,4.3l23.5-3.5c2.2-0.3,4-2,4.4-4.2l2-10.5
		c0.2-1.2,0.8-2.2,1.7-3l16.6-14.3c1.5-1.3,2.2-3.4,1.6-5.4l-4.1-15.3c-0.5-1.9,0.1-4,1.5-5.3c3.7-3.4,10.3-9.7,9.7-11.5
		c-0.8-2.3-5.6-51.2-6.1-56.4c0-0.3,0-0.6,0-0.9l8.8-123.1c0-0.3,0.1-0.5,0.1-0.8l15.6-69.5c1.3-5.6,9.3-5.5,10.4,0.2l24.8,129.6
		c0.1,0.3,0.1,0.7,0.1,1v57.1c0,0.5,0.1,1,0.2,1.5c1.2,3.9,6.7,22.4,7.2,28.9c0.5,6.2-4.5,30.4-6,37.5c-0.3,1.3-0.1,2.6,0.6,3.8
		l6.4,10.9c0.4,0.7,0.6,1.4,0.7,2.1l1.8,17.3c0.3,2.6,2.5,4.7,5.1,4.8c3.3,0.1,7.2,0.1,7.3-0.2c0.1-0.4,2.5,11,3.8,17.8
		c0.6,2.8,3.2,4.6,6,4.2l22.8-3.6c2.4-0.4,4.2-2.3,4.5-4.7l1.9-20.8c0.1-1,0.4-1.9,1-2.7l7.8-10.5c0.9-1.3,1.3-2.9,0.9-4.4
		l-3.1-13.3c-0.4-1.7,0.1-3.5,1.3-4.8l7.1-7.7c0.9-1,1.4-2.3,1.4-3.6V331.3c0-0.1,0-0.2,0-0.3l-13.6-218.5c0-0.7-0.2-1.4-0.5-2
		l-25-51.6"/>
	<path class="st5" d="M462.7,41.7c3.2,4.9,0.4,15.8,0.7,21.3c0.5,13.1-7.9,45.9-22.3,56.8c-14.7,11.2-80.6,11.4-95.2,0.3
		c-14.4-10.9-22.9-43.8-22.3-56.8c0.2-5.5,3.2-16.7,6.4-21.6"/>
	<g id="yeux_00000023963404585674431360000002073258227633789859_">
		<path class="st5" d="M320.6,93.9c-0.3-0.1-0.6-0.2-1-0.3c-1.9-0.9-8.9-4.3-8.6-5.3c0.3-1.1,9.7-49.8,15.8-53.7
			c6.1-3.9,123.1-5.8,131.6,0c8.6,5.8,24.2,48.7,28,63.8c3.9,15.2-0.7,27.2-3.5,31.8C480.5,134.6,330.2,96.4,320.6,93.9z"/>
	</g>
</g>
</svg>
