<?xml version="1.0" encoding="utf-8"?>
<!-- Generator: Adobe Illustrator 26.0.3, SVG Export Plug-In . SVG Version: 6.00 Build 0)  -->
<svg version="1.1" id="Layer_1" xmlns="http://www.w3.org/2000/svg" xmlns:xlink="http://www.w3.org/1999/xlink" x="0px" y="0px"
	 viewBox="0 0 788 679.6" style="enable-background:new 0 0 788 679.6;" xml:space="preserve">
<style type="text/css">
	.st0{fill:#913323;}
	.st1{fill:#944E31;}
	.st2{fill:#FF9292;}
	.st3{fill:#893024;}
	.st4{fill:none;stroke:#893124;stroke-miterlimit:10;}
</style>
<polygon points="230.1,154.2 230.2,154.1 230.1,154.1 "/>
<polygon points="230.2,154.1 230.3,154.2 230.3,154.1 "/>
<polygon points="230.1,154.2 230.2,154.1 230.1,154.1 "/>
<polygon points="230.2,154.1 230.3,154.2 230.3,154.1 "/>
<g id="Calque_1_00000000915634752664794440000014261876144632733597_">
	<path class="st0" d="M435.7,65.7c17.9,5.8,25.7,10.6,30,18.3c3.4,6.3,6.8,20.4,7,27.5c0.6,16.6-8.6,58.6-24.3,72.5
		c14.7-13-135.5-22.7-109.9,0c-15.7-14-24.9-55.8-24.3-72.5c0.3-7.1-0.2-8.9,0.3-16c1.4-17.4,18.7-24.1,36.5-29.9
		c20.4-6.7,41.3-5.6,41.3-5.6S415.2,59,435.7,65.7z"/>
</g>
<path class="st1" d="M334.3,295.1c-14.5-0.2-23.2,7-25.8,18.9c0,0-7.4,57.5-8.6,80c-1.9,36,2.6,105.5,7.5,141.2
	c1,7.8,3.1,31.5,3.1,31.5c0.7,7.1,6.7,12.3,13.7,12.2l0,0c7-0.1,12.7-5.4,13.4-12.2c0,0,2.3-27.1,3.6-36.1
	c4.8-32.5,18.7-97.1,20.7-130c1.2-19.7-0.4-80.5-0.4-80.5C360.6,300,346.7,295.7,334.3,295.1L334.3,295.1z"/>
<path class="st2" d="M323.4,558.1L323.4,558.1c-6.4,0.1-11.9,3.8-14.7,9.5l0,0c-6.2,12.8-31.8,30-31.8,30c-4.6,3.6-6.9,9.4-5.7,15.2
	l0,0l62.6-0.3l3.5-1c4-1.2,6.7-5.2,6.3-9.3l-3.6-31.2C338.3,563.4,331.3,557.9,323.4,558.1z"/>
<path class="st3" d="M273,612.6L273,612.6c-0.8-5.1,2.6-9.8,7.7-10.7h0.1l37.1-5.6c4.8-0.7,9.3,2.3,10.5,7.1l2.2,8.8L273,612.6z"/>
<path class="st1" d="M454.6,295.1c12.9-0.2,20.6,7,23.1,18.9c0,0,15,55.5,16.1,77.8c1.7,36-10.6,107.6-15.1,143.3
	c-0.9,7.8-2.8,31.5-2.8,31.5c-0.6,7.1-5.9,12.3-12.2,12.2l0,0c-6.3-0.1-11.3-5.4-11.9-12.2c0,0-2.1-27.1-3.2-36.1
	c-4.3-32.5-16.7-97.1-18.6-130c-1.1-19.7,0.4-80.5,0.4-80.5C431,300,443.5,295.7,454.6,295.1L454.6,295.1z"/>
<path class="st1" d="M478.3,554.2c-1.2,35.3,41.6,39.9,41.6,39.9c4.6,3.6-69.5,22.7-69.1,18.5c0,0,1.5-53.9-1-67.7
	C448,535.2,479.1,533.4,478.3,554.2z"/>
<path class="st2" d="M465.1,573.7c6.7-2.3,6.2-7.1,8.8-9.7c1.5-1.5,8.2-3.3,9.1-1.2c11.1,23.6,63.6,36.7,63.6,36.7
	c5.5,3.9,6.9,9.4,5.7,15.2l0,0c0,0-45.4,9.7-70.4-1.3c-5-2.2-9.3,3.2-9.3,3.2s-23.3,3.8-21.9-3.2l-2.6-44.3
	C449.7,561.2,453.6,577.6,465.1,573.7z"/>
<path class="st3" d="M552.7,615.2c0.8-9.3-4.5-15.3-6.3-15c-2.6,0.3-6.8,2.5-9.3,2.9c-4.1,0.7-16.6-0.3-16.6-0.3
	c-3.2-0.3-5.8,2.9-6.2,7.4l-0.2,8.9c0,0,7.6,1,25.5-1.6C543,617,552.7,615.2,552.7,615.2z"/>
<path class="st0" d="M316.7,89.6l-2.2,19.8l-31.9,394.8l-8.2,21.5c-1.7,4.6-1.1,9.8,1.8,13.8l3.2,4.4c-1.1,14.9,10.1,27.8,25,28.9
	c1,0.1,2.1,0.1,3.1,0l3.8-0.2l14.8-0.2c16.2-0.3,29.4-13.1,30.3-29.2l11.5-130.9c0,0,9.1-79.4,12-99.7
	c4.3-29.5,11.5-148.5,11.5-148.5l5.8-75.6L316.7,89.6z"/>
<path class="st0" d="M388.2,101.2l-2.3,65.5c0,0.6,0.4,1.1,1,1.2l4,0.5c0.6,0.1,1,0.5,1,1.1l35.5,371.7
	c0.7,19.3,16.9,34.4,36.2,33.6c3.2-0.1,6.6-0.7,9.5-1.7l11.2-3.6c15.7-5.1,25.6-20.6,23.8-37c0-0.2,0-0.3,0.1-0.5l2.6-7.4
	c1.3-3.8,1.2-7.8-0.3-11.5l-6.4-15.7c0-0.1-0.1-0.2-0.1-0.4l-9.2-134.3l-24.2-251.3c-0.1-0.5-0.5-1-1-1.1l-75.3-10.1l-4.8-0.4
	C388.8,99.9,388.2,100.5,388.2,101.2z"/>
<path class="st4" d="M305.7,577.4c0,0,4.9-3.5,9.2-3.4c5.3,0,10.4,3.2,10.4,3.2"/>
<path class="st4" d="M493.8,573c0,0-5.3,2.2-9.3,2.3"/>
<path class="st4" d="M499.8,578.1c0,0-5.2,2.5-9.2,2.8"/>
<path class="st3" d="M288.2,364.7l-3.7,55.1c-0.1,1.6,1.2,3.1,2.9,3.1h17.1c1.5,0,2.8-1.2,2.9-2.7l3.1-52c0.1-1.4-0.9-2.8-2.4-3
	l-16.5-3.1C290,361.8,288.4,363,288.2,364.7z"/>
<path class="st3" d="M298.7,184.2l-4.9,73.7c-0.1,1.6,1.2,3.1,2.9,3.1h24.2c1.5,0,2.8-1.2,2.9-2.7l4.1-69.4c0.1-1.4-0.9-2.8-2.4-3
	l-23.3-4.3C300.3,181.4,298.8,182.6,298.7,184.2z"/>
<path class="st3" d="M497,263.7l4.9,73.7c0.1,1.6-1.2,3.1-2.9,3.1h-24.2c-1.5,0-2.8-1.2-2.9-2.7l-4.1-69.4c-0.1-1.4,0.9-2.8,2.4-3
	l23.3-4.3C495.4,260.8,496.9,262.1,497,263.7z"/>
</svg>
