<?xml version="1.0" encoding="utf-8"?>
<!-- Generator: Adobe Illustrator 26.0.1, SVG Export Plug-In . SVG Version: 6.00 Build 0)  -->
<svg version="1.1" id="Calque_1" xmlns="http://www.w3.org/2000/svg" xmlns:xlink="http://www.w3.org/1999/xlink" x="0px" y="0px"
	 viewBox="0 0 788 1005" style="enable-background:new 0 0 788 1005;" xml:space="preserve">
<style type="text/css">
	.st0{clip-path:url(#SVGID_00000081649888325545075550000014659849663057609870_);fill:#573623;}
	.st1{clip-path:url(#SVGID_00000000220234379209348210000004984148781951527307_);fill:#573623;}
	.st2{fill:#9D5E70;}
</style>
<g>
	<defs>
		<polygon id="SVGID_1_" points="411.8,293 411.8,293 455.2,293 455.2,306.2 411.8,306.2 		"/>
	</defs>
	<clipPath id="SVGID_00000176766258023322687790000017534944971625937580_">
		<use xlink:href="#SVGID_1_"  style="overflow:visible;"/>
	</clipPath>
</g>
<g>
	<defs>
		<polygon id="SVGID_00000031887072473829866140000014930000723887339156_" points="369.7,293 369.7,293 326.3,293 326.3,306.2 
			369.7,306.2 		"/>
	</defs>
	<clipPath id="SVGID_00000084494883260367034680000010290709109910772889_">
		<use xlink:href="#SVGID_00000031887072473829866140000014930000723887339156_"  style="overflow:visible;"/>
	</clipPath>
</g>
<g>
	<defs>
		
			<rect id="SVGID_00000117667475477586176700000014829169245551930298_" x="426" y="277.6" transform="matrix(0.2712 -0.9625 0.9625 0.2712 27.3005 631.3372)" width="9.2" height="40.1"/>
	</defs>
	<clipPath id="SVGID_00000080908898610571149800000014747094150067089296_">
		<use xlink:href="#SVGID_00000117667475477586176700000014829169245551930298_"  style="overflow:visible;"/>
	</clipPath>
	<path style="clip-path:url(#SVGID_00000080908898610571149800000014747094150067089296_);fill:#573623;" d="M416.2,297.4
		c-1.5-0.1-4.8-2-5.3-3c-0.5-1,1.6-3.3,2.6-3.7c0.5-0.2,7.9-2.7,22.9,5.4c7.2,3.9,13.5,9.7,12.2,11.3
		C448.1,308.1,436.9,299.1,416.2,297.4z"/>
</g>
<g>
	<defs>
		
			<rect id="SVGID_00000167363122916119585290000011590632019454595509_" x="330.8" y="293" transform="matrix(0.9755 -0.22 0.22 0.9755 -56.8762 84.4705)" width="40.1" height="9.2"/>
	</defs>
	<clipPath id="SVGID_00000085963921704952089560000011531138032482630034_">
		<use xlink:href="#SVGID_00000167363122916119585290000011590632019454595509_"  style="overflow:visible;"/>
	</clipPath>
	<path style="clip-path:url(#SVGID_00000085963921704952089560000011531138032482630034_);fill:#573623;" d="M365.3,298.1
		c1.5,0,4.9-1.7,5.5-2.7c0.5-1-1.4-3.3-2.4-3.9c-0.4-0.2-7.7-3.1-23.2,4.2c-7.4,3.5-14,9-12.8,10.7
		C332.9,307.1,344.5,298.7,365.3,298.1z"/>
</g>
<path class="st2" d="M417.2,373.9c0,4.2-23.5,8.2-27.9,8.2s-25-4-25-8.2c0,0,15.1,4.6,27.8,3.9C407,376.9,417.2,373.9,417.2,373.9z"
	/>
<path d="M447.9,327.2c-1.4,2-3.9,2.6-5.9,1.3c-3.6-2.3-14.2-2.5-18.2-1.1c-5.4,1.8-11.8,4.4-13.5,0.8c-0.3-0.6,3-6.8,14-7.5
	C435.3,320.1,442.9,326.6,447.9,327.2L447.9,327.2z"/>
<g>
	<path d="M332.9,327.2c1.4,2,3.9,2.6,5.9,1.3c3.6-2.3,14.2-2.5,18.2-1.1c5.4,1.8,11.8,4.4,13.5,0.8c0.3-0.6-3-6.8-14-7.5
		C345.5,320.1,337.9,326.6,332.9,327.2L332.9,327.2z"/>
</g>
</svg>
