<?xml version="1.0" encoding="utf-8"?>
<!-- Generator: Adobe Illustrator 26.0.1, SVG Export Plug-In . SVG Version: 6.00 Build 0)  -->
<svg version="1.1" id="Calque_1" xmlns="http://www.w3.org/2000/svg" xmlns:xlink="http://www.w3.org/1999/xlink" x="0px" y="0px"
	 viewBox="0 0 134.8 141.7" style="enable-background:new 0 0 134.8 141.7;" xml:space="preserve">
<style type="text/css">
	.st0{clip-path:url(#SVGID_00000157996818529886111790000007960680968003946670_);fill:#573623;}
	.st1{clip-path:url(#SVGID_00000012451764862560870020000000831850477411142528_);fill:#573623;}
	.st2{clip-path:url(#SVGID_00000063602690894623914080000015437790606116413322_);fill:#573623;}
	.st3{clip-path:url(#SVGID_00000119819235419835703000000010032292038666721213_);fill:#573623;}
	.st4{clip-path:url(#SVGID_00000065062856614340094470000002042771665008434820_);fill:#FFFFFF;}
	.st5{clip-path:url(#SVGID_00000121257916711400827240000007842220632123622583_);fill:#FFFFFF;}
	.st6{clip-path:url(#SVGID_00000049194786906556249350000004569426001955262594_);fill:#090909;}
	.st7{clip-path:url(#SVGID_00000044880373303636371980000017052506036601251487_);fill:#090909;}
	.st8{fill:#9D5E70;}
	.st9{fill:#99533D;}
	.st10{fill:#F4EBE9;}
</style>
<g>
	<g>
		<defs>
			<polygon id="SVGID_1_" points="86.7,7.4 86.7,7.4 130.1,7.4 130.1,20.6 86.7,20.6 			"/>
		</defs>
		<clipPath id="SVGID_00000100343257907443683020000013881967686818317715_">
			<use xlink:href="#SVGID_1_"  style="overflow:visible;"/>
		</clipPath>
		<path style="clip-path:url(#SVGID_00000100343257907443683020000013881967686818317715_);fill:#573623;" d="M128,20.6
			c-0.3,0-0.6-0.1-0.8-0.2c-4.3-1.8-8.8-3.2-13.3-4.3c-14.6-3.3-15.5-1-20.5,0c-1.5,0.3-5-0.6-5.7-1.4c-0.7-0.9-1.4-4-0.5-4.7
			c0.4-0.3,6.9-4.8,23.5-1c6.9,1.6,17.9,7.6,18.2,7.7c1.1,0.4,1.6,1.6,1.2,2.7C129.7,20.1,128.9,20.7,128,20.6L128,20.6z"/>
	</g>
</g>
<g>
	<g>
		<defs>
			<polygon id="SVGID_00000011024098041722294190000016924512657062024346_" points="44.6,7.4 44.6,7.4 1.2,7.4 1.2,20.6 44.6,20.6 
							"/>
		</defs>
		<clipPath id="SVGID_00000181088347670844752990000015242428900547223440_">
			<use xlink:href="#SVGID_00000011024098041722294190000016924512657062024346_"  style="overflow:visible;"/>
		</clipPath>
		<path style="clip-path:url(#SVGID_00000181088347670844752990000015242428900547223440_);fill:#573623;" d="M3.3,20.6
			c0.3,0,0.6-0.1,0.8-0.2c4.3-1.8,8.8-3.2,13.4-4.3c14.6-3.3,15.5-1,20.5,0c1.5,0.3,5-0.6,5.7-1.4c0.7-0.9,1.4-4,0.5-4.7
			c-0.4-0.3-6.9-4.8-23.5-1c-6.9,1.6-17.9,7.6-18.2,7.7c-1.1,0.4-1.6,1.6-1.2,2.7C1.7,20.1,2.5,20.7,3.3,20.6L3.3,20.6z"/>
	</g>
</g>
<g>
	<g>
		<defs>
			<rect id="SVGID_00000121966487024568996220000013577009145234461874_" x="85.4" y="7.4" width="40.1" height="9.2"/>
		</defs>
		<clipPath id="SVGID_00000128454862258708837970000003965513169120012988_">
			<use xlink:href="#SVGID_00000121966487024568996220000013577009145234461874_"  style="overflow:visible;"/>
		</clipPath>
		<path style="clip-path:url(#SVGID_00000128454862258708837970000003965513169120012988_);fill:#573623;" d="M91.6,15.7
			c-1.4,0.3-5.2-0.6-5.9-1.5c-0.7-0.9,0.6-3.6,1.5-4.3c0.4-0.3,6.9-4.8,23.5-1c8,1.8,15.6,5.7,14.8,7.6
			C125.2,17.3,112,11.7,91.6,15.7z"/>
	</g>
</g>
<g>
	<g>
		<defs>
			<rect id="SVGID_00000183230808941378049080000000184661100648504224_" x="5.8" y="7.4" width="40.1" height="9.2"/>
		</defs>
		<clipPath id="SVGID_00000077294637081906544550000005153074104075732132_">
			<use xlink:href="#SVGID_00000183230808941378049080000000184661100648504224_"  style="overflow:visible;"/>
		</clipPath>
		<path style="clip-path:url(#SVGID_00000077294637081906544550000005153074104075732132_);fill:#573623;" d="M39.8,15.7
			c1.5,0.3,5.2-0.6,5.9-1.5s-0.6-3.6-1.5-4.3c-0.4-0.3-6.9-4.8-23.5-1c-8,1.8-15.6,5.7-14.8,7.6C6.2,17.3,19.3,11.7,39.8,15.7z"/>
	</g>
</g>
<g>
	<g>
		<defs>
			<polygon id="SVGID_00000033356323325934916190000012445745785703255431_" points="89.2,32.4 89.2,32.4 117.1,32.4 117.1,59.2 
				89.2,59.2 			"/>
		</defs>
		<clipPath id="SVGID_00000041279336315116908230000003696991701082524034_">
			<use xlink:href="#SVGID_00000033356323325934916190000012445745785703255431_"  style="overflow:visible;"/>
		</clipPath>
		
			<ellipse style="clip-path:url(#SVGID_00000041279336315116908230000003696991701082524034_);fill:#FFFFFF;" cx="103.2" cy="45.8" rx="14" ry="13.4"/>
	</g>
</g>
<g>
	<g>
		<defs>
			<polygon id="SVGID_00000152227357699020623520000013975085008821137043_" points="42.1,32.4 42.1,32.4 14.2,32.4 14.2,59.2 
				42.1,59.2 			"/>
		</defs>
		<clipPath id="SVGID_00000013907264605701402230000003204357826559221384_">
			<use xlink:href="#SVGID_00000152227357699020623520000013975085008821137043_"  style="overflow:visible;"/>
		</clipPath>
		
			<ellipse style="clip-path:url(#SVGID_00000013907264605701402230000003204357826559221384_);fill:#FFFFFF;" cx="28.2" cy="45.8" rx="14" ry="13.4"/>
	</g>
</g>
<g>
	<g>
		<defs>
			<polygon id="SVGID_00000041290347890163462470000002363369674004540863_" points="93.7,38.4 93.7,38.4 112.4,38.4 112.4,57.1 
				93.7,57.1 			"/>
		</defs>
		<clipPath id="SVGID_00000124125656028934195560000008559237426017512123_">
			<use xlink:href="#SVGID_00000041290347890163462470000002363369674004540863_"  style="overflow:visible;"/>
		</clipPath>
		
			<circle style="clip-path:url(#SVGID_00000124125656028934195560000008559237426017512123_);fill:#090909;" cx="103.1" cy="47.8" r="9.3"/>
	</g>
</g>
<g>
	<g>
		<defs>
			<polygon id="SVGID_00000116914274214413748170000011903508453565490838_" points="37.6,38.4 37.6,38.4 19,38.4 19,57.1 
				37.6,57.1 			"/>
		</defs>
		<clipPath id="SVGID_00000032624188707352923550000014590905246651632798_">
			<use xlink:href="#SVGID_00000116914274214413748170000011903508453565490838_"  style="overflow:visible;"/>
		</clipPath>
		
			<circle style="clip-path:url(#SVGID_00000032624188707352923550000014590905246651632798_);fill:#090909;" cx="28.3" cy="47.8" r="9.3"/>
	</g>
</g>
<path class="st8" d="M53.9,95.2c0-1.7,1.3-3.8,11.8-3.8s13,1.8,13,3.4s-2.9,6.6-13.4,6.6C54.7,101.4,53.9,96.8,53.9,95.2z"/>
<path class="st9" d="M54.3,73.7c-1,0.1-1.4,0.7-0.6,1c3,1.2,8.6,3.3,12.3,3.3c3.5,0,8.9-2.1,11.7-3.3c0.8-0.3,0.4-0.9-0.6-1
	c-3.3-0.2-4.7,0.6-11.4,0.6C59.9,74.4,57.6,73.5,54.3,73.7z"/>
<path class="st10" d="M19,96.4l1.7-22.7c0,0,33.3-13.5,45.1-13.4c11.2,0.1,42.7,13.4,42.7,13.4s4.9,23.5,4,24.3
	c-1,0.8-2.6,12.7-4,13.8c-1.3,1.2-21,12.3-21.7,13c-0.4,0.3-12.1,5.7-23.9,5.5c-11.3-0.1-22.9-5.8-22.9-5.8l-19.3-16.3L19,96.4z"/>
</svg>
