<?xml version="1.0" encoding="utf-8"?>
<!-- Generator: Adobe Illustrator 26.0.1, SVG Export Plug-In . SVG Version: 6.00 Build 0)  -->
<svg version="1.1" id="Calque_1" xmlns="http://www.w3.org/2000/svg" xmlns:xlink="http://www.w3.org/1999/xlink" x="0px" y="0px"
	 viewBox="0 0 127.6 141.7" style="enable-background:new 0 0 127.6 141.7;" xml:space="preserve">
<style type="text/css">
	.st0{clip-path:url(#SVGID_00000094599639638852724190000015371285409263339401_);fill:#573623;}
	.st1{clip-path:url(#SVGID_00000124872574537313115490000000550724907614330779_);fill:#573623;}
	.st2{fill:#9D5E70;}
	.st3{fill:#FFFFFF;}
	.st4{fill:#040404;}
	.st5{fill:#00ABFF;}
</style>
<g>
	<g>
		<defs>
			
				<rect id="SVGID_1_" x="98.7" y="9.1" transform="matrix(0.2712 -0.9625 0.9625 0.2712 47.247 120.7049)" width="9.2" height="40.1"/>
		</defs>
		<clipPath id="SVGID_00000176757299068638356300000008019265449355728791_">
			<use xlink:href="#SVGID_1_"  style="overflow:visible;"/>
		</clipPath>
		<path style="clip-path:url(#SVGID_00000176757299068638356300000008019265449355728791_);fill:#573623;" d="M88.9,29
			c-1.5-0.1-4.8-2-5.3-3s1.6-3.3,2.6-3.7c0.5-0.2,7.9-2.7,22.9,5.4c7.2,3.9,13.5,9.7,12.2,11.3C120.8,39.7,109.7,30.7,88.9,29z"/>
	</g>
</g>
<g>
	<g>
		<defs>
			
				<rect id="SVGID_00000170258942076137051930000017004987793717737362_" x="3.2" y="24.6" transform="matrix(0.9755 -0.22 0.22 0.9755 -5.8454 5.8249)" width="40.1" height="9.2"/>
		</defs>
		<clipPath id="SVGID_00000129922588088562089850000013415990347525286323_">
			<use xlink:href="#SVGID_00000170258942076137051930000017004987793717737362_"  style="overflow:visible;"/>
		</clipPath>
		<path style="clip-path:url(#SVGID_00000129922588088562089850000013415990347525286323_);fill:#573623;" d="M37.7,29.7
			c1.5,0,4.9-1.7,5.5-2.7c0.5-1-1.4-3.3-2.4-3.9c-0.4-0.2-7.7-3.1-23.2,4.2c-7.4,3.5-14,9-12.8,10.7C5.3,38.7,16.9,30.3,37.7,29.7z"
			/>
	</g>
</g>
<path class="st2" d="M34.1,99.5c0-3.5,23.5-6.8,27.9-6.8c4.5,0,25,3.3,25,6.8c0,0-15.1-3.8-27.8-3.2C44.4,97,34.1,99.5,34.1,99.5z"
	/>
<path class="st3" d="M113.7,45.8c-0.1,7.8-6.4,14.1-14.2,14.1s-14.1-6.3-14.2-14.1H113.7z"/>
<path class="st3" d="M40.5,45.8c-0.1,7.8-6.4,14.1-14.2,14.1c-7.8,0-14.1-6.3-14.2-14.1H40.5z"/>
<path class="st4" d="M34.8,47c0,4.6-3.8,8.4-8.4,8.4S18,51.6,18,47c0-0.4,0-0.8,0.1-1.2h16.6C34.8,46.2,34.8,46.6,34.8,47z"/>
<path class="st4" d="M108.3,47c0,4.6-3.8,8.4-8.4,8.4s-8.4-3.8-8.4-8.4c0-0.4,0-0.8,0.1-1.2h16.6C108.3,46.2,108.3,46.6,108.3,47z"
	/>
<ellipse class="st5" cx="15.1" cy="67.7" rx="8.1" ry="9.2"/>
</svg>
