<svg id="Calque_1" data-name="Calque 1" xmlns="http://www.w3.org/2000/svg" viewBox="0 0 788 1005"><defs><style>.cls-1{fill:#d79072;}.cls-2{fill:#72787a;}.cls-3{fill:#889991;}.cls-4{fill:#614652;}.cls-5{fill:none;stroke:#4f3742;stroke-miterlimit:10;}</style></defs><path class="cls-1" d="M336.75,631.38c-13.92-.19-22.33,6.71-24.87,18.16,0,0-7.11,55.37-8.31,77-1.93,34.69,2.48,101.61,7.19,136,1,7.53,3,30.27,3,30.27A13.11,13.11,0,0,0,327,904.68h0a13.11,13.11,0,0,0,12.9-11.81s2.23-26.14,3.5-34.79c4.58-31.35,18-93.52,20-125.14,1.22-19-.44-77.52-.44-77.52-.8-19.21-14.26-23.46-26.18-24Z"/><path class="cls-2" d="M326.26,884.8h0A16.06,16.06,0,0,0,312.14,894h0c-5.84,12.34-30.55,28.87-30.55,28.87A15.14,15.14,0,0,0,276,937.47h0l60.27-.33,3.39-1a8.54,8.54,0,0,0,6-9l-3.46-30A16,16,0,0,0,326.26,884.8Z"/><path class="cls-3" d="M277.77,937.17h0a9,9,0,0,1,7.52-10.37l35.85-5.41a9,9,0,0,1,10.07,6.77l2.06,8.51Z"/><path class="cls-1" d="M452.56,631.38c12.44-.19,19.94,6.71,22.22,18.16,0,0,14.38,53.37,15.45,75,1.72,34.69-10.25,103.61-14.46,138-.92,7.53-2.66,30.27-2.66,30.27-.6,6.77-5.72,11.91-11.8,11.83h0c-6-.08-10.92-5.16-11.51-11.81,0,0-2-26.14-3.12-34.79-4.1-31.35-16.08-93.52-17.88-125.14-1.09-19,.39-77.52.39-77.52.71-19.21,12.73-23.46,23.37-24Z"/><path class="cls-2" d="M475.57,881c-1.21,34,40.05,38.37,40.05,38.37,4.43,3.47-67,21.84-66.61,17.8,0,0,1.45-52-1-65.21C446.21,862.65,476.28,861,475.57,881Z"/><path class="cls-2" d="M462.7,899.81c6.38-2.17,5.93-6.81,8.47-9.36,1.54-1.54,7.87-3.19,8.79-1.22,10.69,22.66,61.16,35.37,61.16,35.37,5.36,3.82,6.57,9.1,5.55,14.63h0s-43.77,9.37-67.77-1.33c-4.8-2.15-9,3.05-9,3.05s-22.42,3.73-21.15-3.05l-2.54-42.71C448,887.8,451.75,903.55,462.7,899.81Z"/><path class="cls-3" d="M547.19,939.67c.85-9-4.26-14.65-6-14.43-2.5.32-6.51,2.38-9,2.81-4,.69-16-.28-16-.28-3.07-.32-5.61,2.76-5.86,7.09l-.2,8.64s7.32,1,24.64-1.59C537.71,941.48,547.19,939.67,547.19,939.67Z"/><path class="cls-4" d="M361.25,901.93a1.49,1.49,0,0,1,0,.21A1.49,1.49,0,0,0,361.25,901.93Z"/><path class="cls-4" d="M361.23,902.14c0,.22,0,.43-.05.65C361.2,902.56,361.22,902.34,361.23,902.14Z"/><path class="cls-4" d="M361.26,901.78v.15A.81.81,0,0,0,361.26,901.78Z"/><path class="cls-4" d="M361.29,901.42q0,.17,0,.36Z"/><path class="cls-4" d="M361.35,900.73a.79.79,0,0,0,0,.14S361.35,900.78,361.35,900.73Z"/><path class="cls-4" d="M361.34,900.87V901A.61.61,0,0,1,361.34,900.87Z"/><path class="cls-4" d="M361.33,901s0,.11,0,.18S361.32,901.07,361.33,901Z"/><path class="cls-4" d="M361.31,901.19l0,.23A2,2,0,0,0,361.31,901.19Z"/><path class="cls-4" d="M489.44,703.55c-1.69-45.1-5.58-148.7-6.39-167.77-1.13-26.6-7.87-90.27-7.87-90.27s-11.28-31.85-39.89-26c-20.23,4.15-26.58,14.59-28.52,21.74l-9.37.35.19-11-23.47.26c-4.37-5.16-11-9.84-21.2-11.36-30.3-4.53-31.73,11.77-31.73,11.77s0,.05,0,.17l-4.1,0-2.16,20.61L293.67,900.7l21-.92,46.67,1C363,881.09,373,692.65,375.82,673.15c3-20.88,12.42-86.25,17.18-119.36l24.75,148.83L432.2,873.55l1.11,31.12,54.79-6.36,22.09-3.11Z"/><polygon class="cls-5" points="394.57 489.85 389.57 449.85 404.57 449.85 403.57 482.13 394.57 489.85"/><path class="cls-4" d="M438.28,397.88c17.9,6,25.7,11.06,30,19,3.45,6.45,6.69,21.23,6.95,28.6.6,17.32-8.61,60.83-24.29,75.35-15.95,14.77-93.92,14.77-109.87,0-15.68-14.52-24.89-58-24.29-75.35.26-7.37-.25-9.3.35-16.58,1.5-18.18,18.66-25.05,36.55-31.05,20.48-6.87,41.31-5.78,41.31-5.78S417.8,391,438.28,397.88Z"/></svg>