<svg id="Calque_1" data-name="Calque 1" xmlns="http://www.w3.org/2000/svg" viewBox="0 0 788 1005"><defs><style>.cls-1{fill:#614652;}.cls-2{fill:#a85b3b;}.cls-3{fill:#352b28;}.cls-4{fill:#547687;}</style></defs><path class="cls-1" d="M312.56,648.68A26.84,26.84,0,0,0,338,673.12h0a26.84,26.84,0,0,0,27.34-20.34S384.2,564,386.29,531.94c.5-7.58-.82-30.36-.82-30.36l-3.28-53.07s-3-25.06-29.27-29c-30.3-4.53-31.73,11.77-31.73,11.77s-14.9,78.9-16,105.5C304.12,561.3,312.56,648.68,312.56,648.68Z"/><path class="cls-2" d="M336.75,631.38c-13.92-.19-22.33,6.71-24.87,18.16,0,0-7.11,55.37-8.31,77-1.93,34.69,2.48,101.61,7.19,136,1,7.53,3,30.27,3,30.27A13.11,13.11,0,0,0,327,904.68h0a13.11,13.11,0,0,0,12.9-11.81s2.23-26.14,3.5-34.79c4.58-31.35,18-93.52,20-125.14,1.22-19-.44-77.52-.44-77.52-.8-19.21-14.26-23.46-26.18-24Z"/><path class="cls-3" d="M277.77,937.17h0a9,9,0,0,1,7.52-10.37l35.85-5.41a9,9,0,0,1,10.07,6.77l2.06,8.51Z"/><path class="cls-4" d="M438.28,397.88c17.9,6,25.7,11.06,30,19,3.45,6.45,6.69,21.23,6.95,28.6.6,17.32-8.61,60.83-24.29,75.35-15.95,14.77-93.92,14.77-109.87,0-15.68-14.52-24.89-58-24.29-75.35.26-7.37-.25-9.3.35-16.58,1.5-18.18,18.66-25.05,36.55-31.05,20.48-6.87,41.31-5.78,41.31-5.78S417.8,391,438.28,397.88Z"/><path class="cls-2" d="M452.56,631.38c12.44-.19,19.94,6.71,22.22,18.16,0,0,14.38,53.37,15.45,75,1.72,34.69-10.25,103.61-14.46,138-.92,7.53-2.66,30.27-2.66,30.27-.6,6.77-5.72,11.91-11.8,11.83h0c-6-.08-10.92-5.16-11.51-11.81,0,0-2-26.14-3.12-34.79-4.1-31.35-16.08-93.52-17.88-125.14-1.09-19,.39-77.52.39-77.52.71-19.21,12.73-23.46,23.37-24Z"/><path class="cls-3" d="M475.28,876.55c-3.55,33.84,37.31,41,37.31,41,4.18,3.77-68.35,17.16-67.69,13.15,0,0,5.05-51.79,3.47-65.12C447.26,856.24,477.37,856.67,475.28,876.55Z"/><path class="cls-3" d="M542.68,940.06c1.46-8.93-3.24-14.91-5-14.81-2.51.14-6.65,1.93-9.16,2.19-4,.41-15.89-1.39-15.89-1.39-3.05-.53-5.8,2.36-6.34,6.67l-.8,8.6s7.24,1.5,24.69.12C533.09,941.21,542.68,940.06,542.68,940.06Z"/><polygon class="cls-4" points="317.08 428.93 314.92 449.53 289.67 653.13 379.98 659.41 395.82 531.6 397.59 428.05 317.08 428.93"/><polygon class="cls-4" points="388.55 441.25 390.43 536.87 408.32 664.62 508.55 664.76 474.87 439.11 395.7 441.7 388.55 441.25"/><polygon class="cls-4" points="353.42 810.57 339.28 895.59 313.75 892.85 305.46 807.21 353.42 810.57"/><polygon class="cls-4" points="436.19 796.61 447.54 896.69 472.87 895.12 485.61 795.96 436.19 796.61"/><path class="cls-3" d="M326.26,884.8h0A16.06,16.06,0,0,0,312.14,894h0c-5.84,12.34-30.55,28.87-30.55,28.87A15.14,15.14,0,0,0,276,937.47h0l60.27-.33,3.39-1a8.54,8.54,0,0,0,6-9l-3.46-30A16,16,0,0,0,326.26,884.8Z"/><path class="cls-3" d="M461.14,894.63c6.51-1.77,6.38-6.49,9.1-8.89,1.64-1.46,8.07-2.69,8.86-.63,9.06,23.67,58.53,40,58.53,40,5.08,4.23,5.91,9.66,4.51,15.19h0s-44.33,6.46-67.51-6c-4.65-2.5-9.19,2.47-9.19,2.47s-22.63,2.23-20.89-4.56l.46-43.4C447.26,881.45,449.94,897.65,461.14,894.63Z"/><path class="cls-4" d="M438.28,397.88c17.9,6,25.7,11.06,30,19,3.45,6.45,6.69,21.23,6.95,28.6.6,17.32-8.61,60.83-24.29,75.35-15.95,14.77-93.92,14.77-109.87,0-15.68-14.52-24.89-58-24.29-75.35.26-7.37-.25-9.3.35-16.58,1.5-18.18,18.66-25.05,36.55-31.05,20.48-6.87,41.31-5.78,41.31-5.78S417.8,391,438.28,397.88Z"/></svg>