<svg id="Calque_1" data-name="Calque 1" xmlns="http://www.w3.org/2000/svg" viewBox="0 0 788 1005.07"><defs><style>.cls-1{fill:#715d63;}.cls-2{fill:#f7a386;}.cls-3{fill:#55525c;}</style></defs><path class="cls-1" d="M481.83,486.82c-23.32,2.48-44.51,10-69.8,18.32,0,0-11.55.45-10.77-.15l-70.83-16.58L336.35,430a20.89,20.89,0,0,1,20.78-18.78H457a20.88,20.88,0,0,1,20.83,19.41Z"/><rect class="cls-2" x="334.23" y="851.03" width="22.13" height="63.41"/><path class="cls-3" d="M345.29,897.27l-11.06,2.64-7,20.7v6.61l-8.15,14.09s4.65,4.84,7,4,50.08-1.76,50.08-1.76v-4.84l-8.73-14.1-7-22L354,897.27Z"/><rect class="cls-2" x="455.67" y="854.48" width="22.13" height="63.41" transform="translate(933.47 1772.37) rotate(180)"/><path class="cls-3" d="M466.73,900.72l11.07,2.64,7,20.7v6.6l8.16,14.09s-4.66,4.85-7,4S435.87,947,435.87,947v-4.85L444.61,928l7-22,6.41-5.28Z"/><path class="cls-2" d="M330.19,490.75c0,2.64.72,169.1,0,171.74s-8.61,64.73-8.61,67.38,12.92,138,12.92,138l23.69-2.64s15.08-120.88,15.08-122.86.71-46.9,0-48.89,28-188.54,28-188.54V433.25L360,433c-13.69-.1-25.23,11.26-26.72,26.3Z"/><path class="cls-2" d="M481.83,486.82c0,2.66-.72,170.61,0,173.28s8.61,65.31,8.61,68-12.92,139.29-12.92,139.29l-23.69-2.67s-15.07-122-15.07-124-.72-47.32,0-49.32-28-190.23-28-190.23V432.8l41.56-.34c13.71-.12,25.27,11.26,26.75,26.33Z"/><path class="cls-1" d="M326.5,588.09c7.58,0,163.94,9.87,163.94,9.87l-4.63-87-8-80.3L336.35,430l-6.16,60.75Z"/></svg>