<svg xmlns="http://www.w3.org/2000/svg" viewBox="0 0 788 1005"><defs><style>.cls-1{fill:#614652;}.cls-2{fill:#944e31;}.cls-3{fill:#87b6c7;}.cls-4{fill:#6c9aab;}.cls-5{fill:#699aab;}.cls-6,.cls-7,.cls-8{fill:none;stroke-miterlimit:10;}.cls-6{stroke:#699aab;}.cls-6,.cls-7{stroke-linecap:round;stroke-width:2px;}.cls-7{stroke:#669aab;}.cls-8{stroke:#4f3742;}</style></defs><g id="Calque_1" data-name="Calque 1"><path class="cls-1" d="M438.28,397.88c17.9,6,25.7,11.06,30,19,3.45,6.45,6.69,21.23,6.95,28.6.6,17.32-8.61,60.83-24.29,75.35-15.95,14.77-93.92,14.77-109.87,0-15.68-14.52-24.89-58-24.29-75.35.26-7.37-.25-9.3.35-16.58,1.5-18.18,18.66-25.05,36.55-31.05,20.48-6.87,41.31-5.78,41.31-5.78S417.8,391,438.28,397.88Z"/></g><g id="Calque_7" data-name="Calque 7"><path class="cls-2" d="M337.11,629.9c-13.93-.19-22.34,6.72-24.88,18.17,0,0-7.1,55.36-8.31,77-1.93,34.69,2.48,101.61,7.19,136,1,7.54,3,30.27,3,30.27a13.11,13.11,0,0,0,13.21,11.83h0a13.12,13.12,0,0,0,12.9-11.8s2.23-26.14,3.49-34.79c4.58-31.35,18-93.53,20-125.15,1.22-19-.44-77.51-.44-77.51-.79-19.22-14.25-23.46-26.17-24.05Z"/><path class="cls-3" d="M326.61,883.33h0a16,16,0,0,0-14.11,9.16h0c-5.85,12.35-30.56,28.88-30.56,28.88A15.12,15.12,0,0,0,276.39,936h0l60.27-.33,3.39-1a8.53,8.53,0,0,0,6-9l-3.46-29.95A16,16,0,0,0,326.61,883.33Z"/><path class="cls-4" d="M278.12,935.69h0a9,9,0,0,1,7.53-10.36l35.84-5.41a9,9,0,0,1,10.07,6.77l2.06,8.5Z"/><path class="cls-2" d="M452.92,629.9c12.43-.19,19.94,6.72,22.21,18.17,0,0,14.38,53.36,15.45,75,1.73,34.69-10.25,103.61-14.45,138-.92,7.54-2.67,30.27-2.67,30.27-.6,6.78-5.72,11.91-11.79,11.83h0c-6-.08-10.93-5.16-11.52-11.8,0,0-2-26.14-3.12-34.79-4.09-31.35-16.08-93.53-17.88-125.15-1.09-19,.4-77.51.4-77.51.7-19.22,12.72-23.46,23.37-24.05Z"/><path class="cls-2" d="M475.92,879.49c-1.21,34,40.06,38.38,40.06,38.38,4.42,3.46-67,21.83-66.62,17.79,0,0,1.46-52-1-65.2C446.56,861.17,476.63,859.52,475.92,879.49Z"/><path class="cls-3" d="M463.06,898.34c6.38-2.18,5.92-6.81,8.46-9.36,1.54-1.54,7.87-3.19,8.8-1.22,10.68,22.66,61.16,35.37,61.16,35.37,5.35,3.81,6.56,9.09,5.55,14.62h0s-43.78,9.37-67.77-1.33c-4.81-2.14-9,3.06-9,3.06s-22.42,3.73-21.15-3.06l-2.54-42.7C448.3,886.33,452.1,902.08,463.06,898.34Z"/><path class="cls-5" d="M547.54,938.2c.85-9-4.26-14.66-6-14.44-2.5.32-6.5,2.39-9,2.82-4,.69-15.95-.29-15.95-.29-3.08-.31-5.62,2.77-5.86,7.09l-.2,8.64s7.32,1,24.63-1.58C538.06,940,547.54,938.2,547.54,938.2Z"/><path class="cls-1" d="M317.44,429.13l-2.17,20.61-31,419.91a26.05,26.05,0,0,0,27.11,27.93l3.66-.17,14.23-.23A29.61,29.61,0,0,0,358.33,869l11.14-126s8.75-76.5,11.56-96c4.09-28.4,15.15-115.15,15.15-115.15l1.76-103.56Z"/><path class="cls-1" d="M388.9,439.78l1.64,95.62,6.17.76L427.05,867a33.68,33.68,0,0,0,44.17,30.72L482,894.22a33.68,33.68,0,0,0,22.93-35.93L501,824.61,492.05,695l-20.8-244.12-76.13-10.61Z"/><path class="cls-6" d="M309.64,901.94s4.74-3.36,8.91-3.35c5.11,0,10,3.11,10,3.11"/><path class="cls-7" d="M490.83,897.6s-5.11,2.07-9,2.15"/><path class="cls-7" d="M496.49,902.56s-5,2.39-8.87,2.73"/><polygon class="cls-8" points="394.93 488.37 389.93 448.37 404.93 448.37 403.93 480.65 394.93 488.37"/></g></svg>