<svg id="Calque_1" data-name="Calque 1" xmlns="http://www.w3.org/2000/svg" viewBox="0 0 388 581.43"><defs><style>.cls-1{fill:#614652;}.cls-2{fill:#a85b3b;}.cls-3{fill:#352b28;}.cls-4{fill:#547687;}</style></defs><path class="cls-1" d="M112.56,280.9A26.84,26.84,0,0,0,138,305.34h0A26.84,26.84,0,0,0,165.35,285s18.85-88.82,20.94-120.84c.5-7.58-.82-30.37-.82-30.37l-3.28-53.06s-3-25.07-29.27-29c-30.3-4.53-31.73,11.76-31.73,11.76s-14.9,78.91-16,105.51C104.12,193.51,112.56,280.9,112.56,280.9Z"/><path class="cls-2" d="M136.75,263.59c-13.92-.19-22.33,6.72-24.87,18.17,0,0-7.11,55.36-8.31,77-1.93,34.69,2.48,101.61,7.19,136,1,7.54,3,30.27,3,30.27A13.1,13.1,0,0,0,127,536.89h0a13.11,13.11,0,0,0,12.9-11.8s2.23-26.14,3.5-34.79c4.58-31.35,18-93.53,20-125.15,1.22-19-.44-77.51-.44-77.51-.8-19.22-14.26-23.46-26.18-24.05Z"/><path class="cls-3" d="M77.77,569.38h0A9,9,0,0,1,85.29,559l35.85-5.41a9,9,0,0,1,10.07,6.77l2.06,8.5Z"/><path class="cls-4" d="M238.28,30.1c17.9,6,25.7,11.06,30,19,3.45,6.45,6.69,21.23,6.95,28.6.6,17.31-8.61,60.83-24.29,75.35-15.95,14.77-93.92,14.77-109.87,0-15.68-14.52-24.89-58-24.29-75.35.26-7.37-.25-9.3.35-16.59,1.5-18.18,18.66-25,36.55-31,20.48-6.87,41.31-5.79,41.31-5.79S217.8,23.23,238.28,30.1Z"/><path class="cls-2" d="M252.56,263.59c12.44-.19,19.94,6.72,22.22,18.17,0,0,14.38,53.36,15.45,75,1.72,34.69-10.25,103.61-14.46,138-.92,7.54-2.66,30.27-2.66,30.27-.6,6.78-5.72,11.91-11.8,11.83h0c-6-.08-10.92-5.16-11.51-11.8,0,0-2-26.14-3.12-34.79-4.1-31.35-16.08-93.53-17.88-125.15-1.09-19,.39-77.51.39-77.51.71-19.22,12.73-23.46,23.37-24.05Z"/><path class="cls-3" d="M275.28,508.76c-3.55,33.84,37.31,41,37.31,41,4.18,3.76-68.35,17.15-67.69,13.15,0,0,5-51.79,3.47-65.12C247.26,488.46,277.37,488.89,275.28,508.76Z"/><path class="cls-3" d="M342.68,572.28c1.46-8.93-3.24-14.92-5-14.82-2.51.15-6.65,1.93-9.16,2.19-4,.41-15.89-1.39-15.89-1.39-3.05-.53-5.8,2.37-6.34,6.67l-.8,8.6s7.24,1.51,24.69.13C333.09,573.43,342.68,572.28,342.68,572.28Z"/><polygon class="cls-4" points="117.08 61.14 114.92 81.75 89.67 285.35 179.98 291.63 195.82 163.82 197.59 60.26 117.08 61.14"/><polygon class="cls-4" points="188.54 73.47 190.43 169.09 208.32 296.83 308.55 296.97 274.87 71.32 195.7 73.92 188.54 73.47"/><polygon class="cls-4" points="153.42 442.79 139.28 527.8 113.75 525.06 105.46 439.43 153.42 442.79"/><polygon class="cls-4" points="236.19 428.83 247.54 528.91 272.87 527.34 285.61 428.17 236.19 428.83"/><path class="cls-3" d="M126.26,517h0a16,16,0,0,0-14.12,9.17h0c-5.84,12.34-30.55,28.87-30.55,28.87A15.12,15.12,0,0,0,76,569.68h0l60.27-.33,3.39-1a8.54,8.54,0,0,0,6-9l-3.46-30A16,16,0,0,0,126.26,517Z"/><path class="cls-3" d="M261.14,526.84c6.51-1.76,6.38-6.48,9.1-8.89,1.64-1.45,8.07-2.68,8.86-.63,9.06,23.68,58.53,40,58.53,40,5.08,4.24,5.91,9.67,4.51,15.19h0s-44.33,6.46-67.51-6C270,564,265.44,569,265.44,569s-22.63,2.22-20.89-4.56L245,521C247.26,513.66,249.94,529.87,261.14,526.84Z"/><path class="cls-4" d="M238.28,30.1c17.9,6,25.7,11.06,30,19,3.45,6.45,6.69,21.23,6.95,28.6.6,17.31-8.61,60.83-24.29,75.35-15.95,14.77-93.92,14.77-109.87,0-15.68-14.52-24.89-58-24.29-75.35.26-7.37-.25-9.3.35-16.59,1.5-18.18,18.66-25,36.55-31,20.48-6.87,41.31-5.79,41.31-5.79S217.8,23.23,238.28,30.1Z"/></svg>