<svg xmlns="http://www.w3.org/2000/svg" viewBox="0 0 788 1005"><defs><style>.cls-1{fill:#614652;}.cls-2{fill:#ae9c6c;}</style></defs><g id="Calque_5" data-name="Calque 5"><path class="cls-1" d="M326.26,889.37h0a16.15,16.15,0,0,0-14.12,8.48h0c-5.84,11.43-30.55,26.74-30.55,26.74A13.51,13.51,0,0,0,276,938.14h0l60.27-.31,3.39-1a7.94,7.94,0,0,0,6-8.31l-3.46-27.74C340.52,894,333.85,889.2,326.26,889.37Z"/><path class="cls-1" d="M277.77,937.86h0c-.82-4.58,2.56-8.9,7.52-9.6l35.85-5a9,9,0,0,1,10.07,6.27l2.06,7.88Z"/><path class="cls-1" d="M509.35,940.44c-36.25-2.58-38.74-1.19-56.06-1.76A4.43,4.43,0,0,1,449,934l2.16-39.23c1.73-6.84-2.84,4.39,8.12.93,6.38-2,9.34,1.26,11.88-1.1,1.54-1.43,7.87-3,8.79-1.13,10.69,21,61.16,32.75,61.16,32.75,5.36,3.54,6.57,8.43,5.55,13.55"/><path class="cls-2" d="M326.93,469.24l-4.34-.71-48.5,350.82a78.57,78.57,0,0,0,38.05,78.5h0l30.11,3h0A51.65,51.65,0,0,0,396.78,849l-3.88-228,4.17-152.41Z"/><path class="cls-2" d="M388.54,469.32l1.64,97.82L402.85,818c-1.69,38.45,4.88,86.39,43.37,85.88h0l38.29-5.68A58,58,0,0,0,533,829.92L463.63,467.33l-84.19,1.38Z"/></g></svg>