<svg id="Calque_1" data-name="Calque 1" xmlns="http://www.w3.org/2000/svg" viewBox="0 0 388 581.43"><defs><style>.cls-1{fill:#9b8762;}.cls-2{fill:#1c8505;}.cls-3{fill:#685d5a;}.cls-4{fill:#b28a81;}.cls-10,.cls-5,.cls-8,.cls-9{fill:none;stroke-miterlimit:10;}.cls-5{stroke:#000;stroke-width:3px;}.cls-6{fill:#b1887f;}.cls-7{fill:#a37636;}.cls-8{stroke:#b1887f;}.cls-8,.cls-9{stroke-linecap:round;stroke-width:2px;}.cls-9{stroke:#b0877d;}.cls-10{stroke:#927c54;}</style></defs><polygon points="27.96 115.13 28.06 115.09 27.96 115.04 27.96 115.13"/><polygon points="28.06 115.09 28.16 115.13 28.16 115.04 28.06 115.09"/><polygon points="27.96 115.13 28.06 115.09 27.96 115.04 27.96 115.13"/><polygon points="28.06 115.09 28.16 115.13 28.16 115.04 28.06 115.09"/><path class="cls-1" d="M141.69,287.55a26.84,26.84,0,0,0,28.95,20.17h0a26.84,26.84,0,0,0,23.83-24.36s4.74-90.67,1.8-122.63c-.69-7.56-5.55-29.86-5.55-29.86L179.18,79s-6.84-24.29-33.44-24.06c-30.63.26-29.5,16.57-29.5,16.57s-2.39,80.27.66,106.72C119.7,202.56,141.69,287.55,141.69,287.55Z"/><path class="cls-2" d="M162.88,266.68c-13.79,2-21,10.13-21.73,21.83,0,0,1.63,55.8,3.82,77.36,3.52,34.56,18.33,100,28.36,133.23,2.2,7.29,7.68,29.44,7.68,29.44a13.13,13.13,0,0,0,14.9,9.62h0a13.12,13.12,0,0,0,10.89-13.68s-1.88-26.17-2-34.91c-.38-31.68,3.16-95.19.22-126.73-1.78-19-12.55-76.5-12.55-76.5-3.79-18.85-17.75-20.94-29.61-19.66Z"/><path class="cls-3" d="M192.81,520.33h0a16,16,0,0,0-14.16,9.09h0c-5.91,12.31-30.7,28.73-30.7,28.73a15.11,15.11,0,0,0-5.61,14.59h0l60.27,0,3.39-1a8.52,8.52,0,0,0,6.05-8.94l-3.32-30A16,16,0,0,0,192.81,520.33Z"/><path class="cls-4" d="M144.07,572.45h0a9,9,0,0,1,7.57-10.32l35.87-5.24a9,9,0,0,1,10,6.82l2,8.51Z"/><path class="cls-5" d="M232.06,26.49c16.15,4.62,23.2,8.52,27,14.67,3.11,5,6,16.37,6.27,22.05.55,13.34-7.77,46.89-21.93,58.08-14.4,11.39-84.79,11.39-99.19,0-14.16-11.19-22.48-44.74-21.93-58.08.23-5.68,3.16-17.08,6.27-22.05,3.84-6.15,10.88-10,27-14.67,18.49-5.3,37.3-4.46,37.3-4.46S213.57,21.19,232.06,26.49Z"/><path class="cls-2" d="M247.37,283.73c-33.88,3.17-34.13,53.2-34.13,53.2-2.87,4.83-30.27-63.64-26.21-63.78,0,0,51.77-5.24,64.52-9.41C260.54,260.8,267.27,281.87,247.37,283.73Z"/><path class="cls-3" d="M234.44,279.92c3,6,7.52,5,10.37,7.19,1.73,1.33,4.18,7.39,2.34,8.56-21.1,13.51-27.21,65.2-27.21,65.2-3.1,5.81-8.18,7.68-13.79,7.39h0s-14.92-42.21-7.4-67.38c1.51-5.05-4.18-8.53-4.18-8.53S188,270.6,194.88,271l42-8C244.45,263.74,229.32,269.53,234.44,279.92Z"/><path class="cls-6" d="M197.13,337.28c9-.31,14-6.1,13.55-7.8-.64-2.43-3.21-6.14-4-8.55-1.19-3.84-1.77-15.86-1.77-15.86-.08-3.09-3.46-5.21-7.78-4.89l-8.6.91s-.05,7.38,4.74,24.23C194.12,328.11,197.13,337.28,197.13,337.28Z"/><polygon class="cls-7" points="114.44 86.89 115.94 64.39 265.47 55.84 264.49 83.71 114.44 86.89"/><path class="cls-8" d="M175.75,538.85s4.75-3.34,8.92-3.31c5.11,0,10,3.16,10,3.16"/><path class="cls-9" d="M230.11,309.38s-2.71-4.79-3.3-8.67"/><path class="cls-9" d="M225.91,315.63s-3-4.61-3.85-8.44"/><polygon class="cls-10" points="192.31 125.44 187.31 85.44 202.31 85.44 201.31 117.72 192.31 125.44"/><path class="cls-7" d="M111.64,130.19s58-10.84,148.54-14.25c69.66-2.62,179.65,34.65,188.85,46.56s15.83,39.15,6.78,44.25c-30.3,17.09-83.71,81.17-110.43,93.39-65.85,30.12-77-14.95-85.07-11.81a52.63,52.63,0,0,0-13.16,7.34L236.9,263s7-11.19,18-10.44c.95.06,5.41-8.32,19.27-29.08,9.38-14,38.75-11.64,48.87-11.64,0,0-60,32.49-135.61-10.35C147.76,179,111.64,130.19,111.64,130.19Z"/><path class="cls-7" d="M119.17,54.9c-1.27,2.28-9.62,71.19-10.54,120.85S87.9,401.06,113.9,433.25s59.15,65.86,59.15,65.86l4.21,19.69c8.62-3.7,29.72-6.38,29.72-6.38l-1.8-15.58c4.65-7.82,29.93-72.79,25.09-105s-16-17.58-23.29-57.53-4.67-96.42-4.67-96.42c17.46-25,16.1-65.86,24.66-87s1.07-99-7-98.38S126,42.56,119.17,54.9Z"/><path class="cls-7" d="M119,103c-1.34-2.29-4.57-16.14-4.57-16.14s-.74-25.71,4.57-39.5S157.77,19.12,202.31,22s54.1,12.76,61.63,22.38,7.31,80.07,5.3,81.08-147.4-8.52-150.23-20"/></svg>