<svg xmlns="http://www.w3.org/2000/svg" viewBox="0 0 488 621.07"><defs><style>.cls-1{fill:#614652;}.cls-2{fill:#944e31;}.cls-3{fill:#3a4649;}.cls-4{fill:#172f35;}.cls-5{fill:#472e1d;}</style></defs><g id="Calque_7" data-name="Calque 7"><polygon points="79.87 89.94 79.97 89.9 79.87 89.85 79.87 89.94"/><polygon points="79.97 89.9 80.07 89.94 80.07 89.85 79.97 89.9"/><polygon points="79.87 89.94 79.97 89.9 79.87 89.85 79.87 89.94"/><polygon points="79.97 89.9 80.07 89.94 80.07 89.85 79.97 89.9"/><polygon points="80.58 94.14 80.68 94.1 80.58 94.05 80.58 94.14"/><polygon points="80.68 94.1 80.78 94.14 80.78 94.05 80.68 94.1"/><polygon points="80.58 94.14 80.68 94.1 80.58 94.05 80.58 94.14"/><polygon points="80.68 94.1 80.78 94.14 80.78 94.05 80.68 94.1"/><path class="cls-1" d="M173.48,263.28c1,13.36,10.32,23.8,21.8,24.44h0c11,.62,20.79-7.9,23.43-20.34,0,0,16.16-88.81,17.95-120.84.43-7.58-.7-30.36-.7-30.36l-2.81-53.07s-2.55-25.06-25.09-29c-26-4.54-27.19,11.76-27.19,11.76s-12.77,78.9-13.73,105.5C166.25,175.9,173.48,263.28,173.48,263.28Z"/><path class="cls-2" d="M187.11,246c-13.93-.19-22.34,6.71-24.88,18.16,0,0-7.1,55.37-8.31,77-1.93,34.7,2.48,101.61,7.19,136,1,7.53,3,30.27,3,30.27a13.12,13.12,0,0,0,13.21,11.83h0a13.12,13.12,0,0,0,12.9-11.81s2.23-26.14,3.49-34.79c4.58-31.35,18-93.52,20-125.14,1.22-19-.44-77.52-.44-77.52-.79-19.21-14.25-23.46-26.17-24Z"/><path class="cls-3" d="M176.61,499.41h0a16,16,0,0,0-14.11,9.16h0c-5.85,12.34-30.56,28.87-30.56,28.87a15.14,15.14,0,0,0-5.55,14.63h0l60.27-.33,3.39-1a8.53,8.53,0,0,0,6-9l-3.46-30A16,16,0,0,0,176.61,499.41Z"/><path class="cls-4" d="M128.12,551.77h0a9,9,0,0,1,7.53-10.37L171.49,536a9,9,0,0,1,10.07,6.77l2.06,8.51Z"/><path class="cls-2" d="M302.92,246c12.43-.19,19.94,6.71,22.21,18.16,0,0,9.07,50.91,11.18,72.47,4.52,46-5.43,107.11-10.18,140.57-1.07,7.51-2.67,30.27-2.67,30.27-.6,6.77-5.72,11.91-11.79,11.83h0c-6-.08-10.93-5.16-11.52-11.81,0,0-2-26.14-3.12-34.79-4.09-31.35-16.08-93.52-17.88-125.14-1.09-19,.4-77.52.4-77.52.7-19.21,12.72-23.46,23.37-24Z"/><path class="cls-2" d="M325.92,495.57c-1.21,34,40.06,38.37,40.06,38.37,4.42,3.47-67,21.84-66.62,17.8,0,0,1.46-52-1-65.21C296.56,477.25,326.63,475.6,325.92,495.57Z"/><path class="cls-3" d="M314.57,514.41c6.38-2.17,5.93-6.81,8.47-9.36,1.54-1.54,7.87-3.19,8.79-1.22C342.52,526.49,393,539.2,393,539.2c5.35,3.82,6.56,9.1,5.55,14.63h0s-26.56,13.5-66,3.79c-5.12-1.25-10.77-2.07-10.77-2.07s-25.39,3.3-24.12-3.48l.43-42.28C299.82,502.4,303.62,518.15,314.57,514.41Z"/><path class="cls-4" d="M397.54,554.27c.85-9-4.26-14.65-6-14.43-2.5.32-6.5,2.38-9,2.82-4,.68-13.35,2.75-13.35,2.75-3.08-.32-5.62,2.76-5.86,7.09l-.2,8.63s3.14.07,20.45-2.51C386.48,558.19,397.54,554.27,397.54,554.27Z"/><path class="cls-5" d="M169.12,7.64,165.58,66.7l-21.88,462,14.52-12.88a18.26,18.26,0,0,1,21.06.22l16.82,19.84s21.37-164,24.14-197.77c1.61-19.64,3.92-58.16,6.73-77.66,4.09-28.4,19.52-111.69,19.52-111.69l-1-147.72Z"/><path class="cls-5" d="M243.67,55.85l1.64,95.62,27.56,165.75,20.58,173.2L297.82,532l18.32-14.31c24.68-8.87,26.28.29,36.16,6.13l-1.09-24.45-8.17-197L319,12.92,236.76,0Z"/><circle class="cls-5" cx="314.28" cy="36.71" r="4.68"/></g></svg>