<svg id="Calque_1" data-name="Calque 1" xmlns="http://www.w3.org/2000/svg" viewBox="0 0 488 621.07"><defs><style>.cls-1{fill:#a85b3b;}.cls-2{fill:#352b28;}.cls-3{fill:#547687;}</style></defs><path class="cls-1" d="M186.75,247.45c-13.92-.19-22.33,6.72-24.87,18.16,0,0-7.11,55.37-8.31,77-1.93,34.69,2.48,101.61,7.19,136,1,7.54,3,30.27,3,30.27A13.11,13.11,0,0,0,177,520.75h0a13.11,13.11,0,0,0,12.9-11.8s2.23-26.14,3.5-34.79c4.58-31.35,18-93.53,20-125.15,1.22-19-.44-77.51-.44-77.51-.8-19.22-14.26-23.46-26.18-24.05Z"/><path class="cls-2" d="M127.77,553.24h0a9,9,0,0,1,7.52-10.36l35.85-5.41a9,9,0,0,1,10.07,6.77l2.06,8.5Z"/><path class="cls-1" d="M302.56,247.45c12.44-.19,19.94,6.72,22.22,18.16,0,0,14.38,53.37,15.45,75,1.72,34.69-10.25,103.61-14.46,138-.92,7.54-2.66,30.27-2.66,30.27-.6,6.77-5.72,11.91-11.8,11.83h0c-6-.08-10.92-5.16-11.51-11.8,0,0-2-26.14-3.12-34.79-4.1-31.35-16.08-93.53-17.88-125.15-1.09-19,.39-77.51.39-77.51.71-19.22,12.73-23.46,23.37-24.05Z"/><path class="cls-2" d="M325.28,492.62c-3.55,33.84,37.31,41,37.31,41,4.18,3.76-68.35,17.15-67.69,13.15,0,0,5.05-51.79,3.47-65.12C297.26,472.31,327.37,472.75,325.28,492.62Z"/><path class="cls-2" d="M392.68,556.13c1.46-8.92-3.24-14.91-5-14.81-2.51.14-6.65,1.93-9.16,2.19-4,.41-15.89-1.39-15.89-1.39-3.05-.53-5.8,2.37-6.34,6.67l-.8,8.6s7.24,1.51,24.69.12C383.09,557.28,392.68,556.13,392.68,556.13Z"/><polygon class="cls-3" points="167.08 47.57 164.91 68.17 139.67 271.77 229.98 278.05 245.82 150.24 247.59 46.69 167.08 47.57"/><polygon class="cls-3" points="238.54 57.33 240.43 152.94 258.32 280.69 358.55 280.83 323.6 46.69 247.59 46.69 238.54 57.33"/><polygon class="cls-3" points="203.42 426.64 189.28 511.66 163.75 508.92 155.46 423.29 203.42 426.64"/><polygon class="cls-3" points="286.19 412.69 297.54 512.76 322.87 511.2 335.61 412.03 286.19 412.69"/><path class="cls-2" d="M176.26,500.88h0A16.05,16.05,0,0,0,162.14,510h0c-5.84,12.35-30.55,28.87-30.55,28.87A15.14,15.14,0,0,0,126,553.54h0l60.27-.33,3.39-1a8.54,8.54,0,0,0,6-9l-3.46-30A16,16,0,0,0,176.26,500.88Z"/><path class="cls-2" d="M311.14,510.7c6.51-1.76,6.38-6.48,9.1-8.89,1.64-1.46,8.07-2.69,8.86-.63,9.06,23.68,58.53,40,58.53,40,5.08,4.24,5.91,9.67,4.51,15.19h0s-44.33,6.46-67.51-6c-4.65-2.5-9.19,2.48-9.19,2.48s-22.63,2.22-20.89-4.56l.46-43.41C297.26,497.52,299.94,513.73,311.14,510.7Z"/></svg>