<svg xmlns="http://www.w3.org/2000/svg" viewBox="0 0 388 507.74"><defs><style>.cls-1{fill:#614652;}.cls-2{fill:#ae9c6c;}</style></defs><g id="Calque_5" data-name="Calque 5"><path class="cls-1" d="M126.26,456.66h0a16.16,16.16,0,0,0-14.12,8.49h0c-5.84,11.43-30.55,26.74-30.55,26.74A13.49,13.49,0,0,0,76,505.43h0l60.27-.3,3.39-1a7.93,7.93,0,0,0,6-8.31l-3.46-27.74C140.52,461.28,133.85,456.5,126.26,456.66Z"/><path class="cls-1" d="M77.77,505.15h0c-.82-4.58,2.56-8.9,7.52-9.59l35.85-5a9,9,0,0,1,10.07,6.26l2.06,7.88Z"/><path class="cls-1" d="M309.35,507.74c-36.25-2.59-38.74-1.2-56.06-1.76a4.44,4.44,0,0,1-4.28-4.69l2.16-39.22c1.73-6.85-2.84,4.39,8.12.93,6.38-2,9.34,1.25,11.88-1.11,1.54-1.43,7.87-2.95,8.79-1.13,10.69,21,61.16,32.76,61.16,32.76,5.36,3.53,6.57,8.42,5.55,13.54"/><path class="cls-2" d="M126.93,36.54l-4.34-.71L74.09,386.64a78.58,78.58,0,0,0,38.05,78.51h0l30.11,3h0a51.64,51.64,0,0,0,54.53-51.84l-3.88-228,4.17-152.41Z"/><path class="cls-2" d="M188.54,36.61l1.64,97.82,12.67,250.88c-1.69,38.45,4.88,86.39,43.37,85.87h0l38.29-5.68A58,58,0,0,0,333,397.21L263.63,34.63,179.44,36Z"/></g></svg>