<?xml version="1.0" encoding="utf-8"?>
<!-- Generator: Adobe Illustrator 26.0.3, SVG Export Plug-In . SVG Version: 6.00 Build 0)  -->
<svg version="1.1" id="Calque_1" xmlns="http://www.w3.org/2000/svg" xmlns:xlink="http://www.w3.org/1999/xlink" x="0px" y="0px"
	 viewBox="0 0 788 1005" style="enable-background:new 0 0 788 1005;" xml:space="preserve">
<style type="text/css">
	.st0{clip-path:url(#SVGID_00000009549712672944634560000005740225868084520621_);}
	.st1{fill:#423522;}
	.st2{clip-path:url(#SVGID_00000054238179093272284250000001962431207839404444_);}
	.st3{fill:#5E3E35;}
	.st4{fill:#66183F;}
	.st5{fill:#BFBFBF;}
	.st6{fill:#FFFFFF;}
</style>
<g>
	<g>
		<g>
			<defs>
				<rect id="SVGID_1_" x="360.5" y="223.1" width="23.1" height="7"/>
			</defs>
			<clipPath id="SVGID_00000160156805608228286390000016310283143139093175_">
				<use xlink:href="#SVGID_1_"  style="overflow:visible;"/>
			</clipPath>
			<g style="clip-path:url(#SVGID_00000160156805608228286390000016310283143139093175_);">
				<g>
					<path class="st1" d="M382.7,229c-6.4-3.7-15.6-6.6-21.2-0.1c1.2-4.2,6.3-6.1,10.4-5.8C376.1,223.5,380,225.8,382.7,229
						L382.7,229z"/>
				</g>
			</g>
		</g>
	</g>
</g>
<g>
	<g>
		<g>
			<defs>
				<rect id="SVGID_00000030470759074270149850000008209546454858874782_" x="404.6" y="223.1" width="23.1" height="7"/>
			</defs>
			<clipPath id="SVGID_00000038376386622741996180000015131666926301656497_">
				<use xlink:href="#SVGID_00000030470759074270149850000008209546454858874782_"  style="overflow:visible;"/>
			</clipPath>
			<g style="clip-path:url(#SVGID_00000038376386622741996180000015131666926301656497_);">
				<g>
					<path class="st1" d="M405.6,229c2.7-3.2,6.6-5.5,10.8-5.9c4.1-0.4,9.2,1.5,10.4,5.8C421.2,222.4,412,225.3,405.6,229L405.6,229
						z"/>
				</g>
			</g>
		</g>
	</g>
</g>
<path class="st3" d="M400.9,263.1c0,0-4.7,3.7-7.4,3.7s-7-3.6-7-3.6s5.4,0.7,7.2,0.7S400.9,263.1,400.9,263.1z"/>
<path class="st4" d="M377.9,277.5c0.3-0.6,1.4-1.6,3.5-2.5c3.4-1.3,6.9-2.1,10.6-2.1c5.9-0.1,11.6,2.1,15.9,6.1
	c0,0-4.6,11.7-15.8,10.9C383.9,289.2,377.9,277.5,377.9,277.5z"/>
<path class="st5" d="M392.4,277.9l-8.2-0.4l-2.2-0.9c3.6-1.5,7.5-2.1,11.4-2c6.7,0.4,10.3,2.9,10.3,2.9l-1.7,0.8L392.4,277.9z"/>
<g>
	<g>
		<path class="st6" d="M404.1,243.1c0,0,6.3,2.7,12.5,1c6.2-1.7,6.4-3,6.4-3l-5-4.4l-3.4-1l-6,0.6l-1.5,1.4l-2,2.6L404.1,243.1z"/>
		<path class="st1" d="M408.1,237.1c-2.1,1.5-3.2,3.8-4.1,6.2c-0.1-0.1-0.2-0.1-0.2-0.2c0-0.4,0-0.7,0.1-1c1.3-2.8,2.8-5.7,5.6-6.5
			c3.8-1.1,7.5-0.6,10.8,2.3c1.1,1,2.1,2,3.2,3.1c-1.6,1.8-7,3.9-7.6,3c0.4-0.1,0.7-0.1,1-0.2c0.8-0.4,1.7-0.7,2.5-1.2
			c0.4-0.2,0.2-0.6-0.2-0.6c-0.1,0-0.2,0-0.5,0c1-1.1,1-1.4,0-2.6c-0.7-0.9-1.4-1.6-2.1-2.2C416.3,236.7,413.5,235.7,408.1,237.1z"
			/>
	</g>
	<g>
		<path class="st6" d="M383.3,243.3c0,0-6.3,2.7-12.5,1c-6.2-1.7-6.4-3-6.4-3l5-4.4l3.4-1l6,0.6l1.5,1.4l2,2.6L383.3,243.3z"/>
		<path class="st1" d="M379.3,237.3c2.1,1.5,3.2,3.8,4.1,6.2c0.1-0.1,0.2-0.1,0.2-0.2c0-0.4,0-0.7-0.1-1c-1.3-2.8-2.8-5.7-5.6-6.5
			c-3.8-1.1-7.5-0.6-10.8,2.3c-1.1,1-2.1,2-3.2,3.1c1.6,1.8,7,3.9,7.6,3c-0.4-0.1-0.7-0.1-1-0.2c-0.8-0.4-1.7-0.7-2.5-1.2
			c-0.4-0.2-0.2-0.6,0.2-0.6c0.1,0,0.2,0,0.5,0c-1-1.1-1-1.4,0-2.6c0.7-0.9,1.4-1.6,2.1-2.2c0.3-0.2,0.7-0.2,1.1-0.4
			C374.4,236.2,377.1,236.2,379.3,237.3z"/>
	</g>
	<path class="st1" d="M412.8,237.8l-0.1-0.2c-0.2-0.4-0.4-0.9-0.8-1.2c-1.3,0-2.5,0.4-3.8,0.4c-0.3,0.2-0.9,0.9-1.1,1
		c-0.2,0.4-0.8,0.5-0.8,1c-0.1,0.4-0.4,0.7-0.4,1l0,0c-0.3,2.6,0.8,4.3,2.9,4.7c0.2,0,0.3,0,0.5,0h0.2c2.1-0.1,3.7-2.2,3.7-4.8
		C413.1,239,413,238.4,412.8,237.8z"/>
	<path class="st1" d="M375.1,237.8l-0.1-0.2c-0.2-0.4-0.4-0.9-0.8-1.2c-1.3,0-2.5,0.4-3.8,0.4c-0.3,0.2-0.9,0.9-1.1,1
		c-0.2,0.4-0.8,0.5-0.8,1c-0.1,0.4-0.4,0.7-0.4,1l0,0c-0.3,2.6,0.8,4.3,2.9,4.7c0.2,0,0.3,0,0.5,0h0.2c2.1-0.1,3.7-2.2,3.7-4.8
		C375.3,239,375.2,238.4,375.1,237.8z"/>
</g>
</svg>
