<?xml version="1.0" encoding="utf-8"?>
<!-- Generator: Adobe Illustrator 26.0.3, SVG Export Plug-In . SVG Version: 6.00 Build 0)  -->
<svg version="1.1" id="Calque_1" xmlns="http://www.w3.org/2000/svg" xmlns:xlink="http://www.w3.org/1999/xlink" x="0px" y="0px"
	 viewBox="0 0 788 1005" style="enable-background:new 0 0 788 1005;" xml:space="preserve">
<style type="text/css">
	.st0{clip-path:url(#SVGID_00000133508546720829996020000009425543138842374786_);}
	.st1{fill:#423522;}
	.st2{clip-path:url(#SVGID_00000059277064796120432330000013673020015345727138_);}
	.st3{fill:#5E3E35;}
	.st4{fill:#66183F;}
	.st5{fill:#FFFFFF;}
</style>
<g>
	<g>
		<g>
			<defs>
				<rect id="SVGID_1_" x="407.4" y="227.1" width="22.1" height="6.7"/>
			</defs>
			<clipPath id="SVGID_00000074435028450821346490000009917436522955148709_">
				<use xlink:href="#SVGID_1_"  style="overflow:visible;"/>
			</clipPath>
			<g style="clip-path:url(#SVGID_00000074435028450821346490000009917436522955148709_);">
				<g>
					<path class="st1" d="M408.4,231.4c4.9-6.3,16.2-5.5,20.2,1.4C422.6,228.5,414.9,227.9,408.4,231.4L408.4,231.4z"/>
				</g>
			</g>
		</g>
	</g>
</g>
<g>
	<g>
		<g>
			<defs>
				<rect id="SVGID_00000020380680165662021240000003236210215063812757_" x="364.1" y="227.1" width="22.1" height="6.7"/>
			</defs>
			<clipPath id="SVGID_00000140009409106155739510000017475736285548716975_">
				<use xlink:href="#SVGID_00000020380680165662021240000003236210215063812757_"  style="overflow:visible;"/>
			</clipPath>
			<g style="clip-path:url(#SVGID_00000140009409106155739510000017475736285548716975_);">
				<g>
					<path class="st1" d="M385.3,231.4c-6.5-3.5-14.2-2.9-20.2,1.4C369.1,225.9,380.4,225.1,385.3,231.4L385.3,231.4z"/>
				</g>
			</g>
		</g>
	</g>
</g>
<path class="st3" d="M404.8,266.2c0,0-4.7,3.7-7.4,3.7s-7-3.6-7-3.6s5.4,0.7,7.2,0.7S404.8,266.2,404.8,266.2z"/>
<ellipse class="st4" cx="397.2" cy="285.7" rx="2.9" ry="4.5"/>
<g>
	<g>
		<path class="st5" d="M386.1,244.4l-2-2.6l-1.5-1.4l-6-0.6l-3.4,1l-5,4.4c0,0,0.2,1.3,6.4,3s12.6-1,12.6-1L386.1,244.4z"/>
		<path class="st1" d="M374.5,241.3c-0.7,0.6-1.4,1.3-2.1,2.2c-1,1.2-1,1.5,0,2.6c-0.3,0-0.4,0-0.5,0c-0.4,0-0.6,0.4-0.2,0.6
			c0.8,0.5,1.7,0.8,2.5,1.2c0.3,0.1,0.6,0.1,1,0.2c-0.6,0.9-6-1.2-7.7-3c1.1-1.1,2.1-2.1,3.2-3.1c3.3-2.9,7.1-3.4,10.9-2.3
			c2.8,0.8,4.3,3.7,5.6,6.5c0.1,0.3,0.1,0.6,0.1,1c0,0.1-0.1,0.1-0.2,0.2c-0.9-2.4-2-4.7-4.1-6.2
			C377.7,239.8,374.8,240.8,374.5,241.3z"/>
	</g>
	<g>
		<path class="st5" d="M409.1,244.7l2-2.6l1.5-1.4l6-0.6l3.4,1l5,4.4c0,0-0.2,1.3-6.4,3c-6.2,1.7-12.6-1-12.6-1L409.1,244.7z"/>
		<path class="st1" d="M419.6,241.1c0.4,0.2,0.8,0.2,1.1,0.4c0.7,0.6,1.4,1.3,2.1,2.2c1,1.2,1,1.5,0,2.6c0.3,0,0.4,0,0.5,0
			c0.4,0,0.6,0.4,0.2,0.6c-0.8,0.5-1.7,0.8-2.5,1.2c-0.3,0.1-0.6,0.1-1,0.2c0.6,0.9,6-1.2,7.7-3c-1.1-1.1-2.1-2.1-3.2-3.1
			c-3.3-2.9-7.1-3.4-10.9-2.3c-2.8,0.8-4.3,3.7-5.6,6.5c-0.1,0.3-0.1,0.6-0.1,1c0,0.1,0.1,0.1,0.2,0.2c0.9-2.4,2-4.7,4.1-6.2
			C414.3,240.3,417,240.3,419.6,241.1z"/>
	</g>
	<path class="st1" d="M378.1,243.8c0,2.6,1.6,4.7,3.7,4.8h0.2c0.2,0,0.3,0,0.5,0c2.1-0.4,3.2-2.1,2.9-4.7l0,0c0-0.3-0.3-0.6-0.4-1
		c0-0.5-0.6-0.6-0.8-1c-0.2-0.1-0.8-0.8-1.1-1c-1.3,0-2.5-0.4-3.8-0.4c-0.4,0.3-0.6,0.8-0.8,1.2l-0.1,0.2
		C378.2,242.5,378.1,243.1,378.1,243.8z"/>
	<path class="st1" d="M416,243.8c0,2.6,1.6,4.7,3.7,4.8h0.2c0.2,0,0.3,0,0.5,0c2.1-0.4,3.2-2.1,2.9-4.7l0,0c0-0.3-0.3-0.6-0.4-1
		c0-0.5-0.6-0.6-0.8-1c-0.2-0.1-0.8-0.8-1.1-1c-1.3,0-2.5-0.4-3.8-0.4c-0.4,0.3-0.6,0.8-0.8,1.2l-0.1,0.2
		C416.2,242.5,416.1,243.1,416,243.8z"/>
</g>
</svg>
