<?xml version="1.0" encoding="utf-8"?>
<!-- Generator: Adobe Illustrator 26.0.3, SVG Export Plug-In . SVG Version: 6.00 Build 0)  -->
<svg version="1.1" id="Layer_1" xmlns="http://www.w3.org/2000/svg" xmlns:xlink="http://www.w3.org/1999/xlink" x="0px" y="0px"
	 viewBox="0 0 200 200" style="enable-background:new 0 0 200 200;" xml:space="preserve">
<style type="text/css">
	.st0{fill:#423522;}
	.st1{fill:#5E3E35;}
	.st2{fill:#662C34;}
	.st3{fill:#FFFFFF;}
</style>
<g>
	<path class="st0" d="M82.9,89.1C75.5,86.3,68,85.5,60.4,88c-2.4,0.7-4.9,1.9-7.4,3.2C58.2,80.1,76.2,78.8,82.9,89.1L82.9,89.1z"/>
</g>
<path class="st1" d="M109.7,138c0,0-6.9,5.5-10.9,5.5c-3.8,0-10.3-5.3-10.3-5.3s8,1,10.6,1S109.7,138,109.7,138z"/>
<g>
	<path class="st2" d="M79.3,158.3c13,8.3,27.1,7.5,39.7-1.3C111.1,171.6,88.2,172.7,79.3,158.3L79.3,158.3z"/>
</g>
<g>
	<path class="st0" d="M115.3,89.1c6.6-10.3,24.6-9,29.8,2.1c-2.5-1.3-4.9-2.5-7.4-3.2C130.2,85.5,122.7,86.3,115.3,89.1L115.3,89.1z
		"/>
</g>
<g>
	<g>
		<path class="st3" d="M83.8,111.2c0,0-9.3,3.9-18.4,1.4c-9.1-2.5-9.4-4.2-9.4-4.2l7.4-6.4l5-1.4l8.9,0.9l2.2,1.9l3,3.7L83.8,111.2z
			"/>
		<path class="st0" d="M77.9,102.6c3.1,2.1,4.7,5.5,6,8.8c0.1-0.2,0.3-0.2,0.3-0.4c0-0.5,0-1.1-0.1-1.4c-1.9-4.1-4.1-8.1-8.3-9.4
			c-5.6-1.6-11.1-0.9-15.9,3.4c-1.6,1.4-3.1,2.8-4.7,4.4c2.4,2.7,10.3,5.7,11.2,4.2c-0.6-0.2-1-0.2-1.5-0.4
			c-1.2-0.5-2.5-1.1-3.7-1.8c-0.6-0.4-0.3-0.9,0.3-0.9c0.1,0,0.3,0,0.7,0c-1.5-1.6-1.5-1.9,0-3.7c1-1.2,2.1-2.3,3.1-3.2
			c0.4-0.4,1-0.4,1.6-0.5c0,0.7,0.1,1.4,0.1,1.9c-0.3,2.8,0.1,5.5,1.8,7.6c0.7,1.1,2.8,1.6,4.3,1.4c1.5-0.2,2.5-0.7,3.5-2.3
			c1-1.8,1.5-3.5,1.3-5.5C78,104.3,77.9,103.6,77.9,102.6z"/>
	</g>
	<g>
		<path class="st3" d="M114.4,111.4c0,0,9.3,3.9,18.4,1.4c9.1-2.5,9.4-4.2,9.4-4.2l-7.4-6.4l-5-1.4l-8.9,0.9l-2.2,1.9l-3,3.7
			L114.4,111.4z"/>
		<path class="st0" d="M120.3,102.7c-3.1,2.1-4.7,5.5-6,8.8c-0.1-0.2-0.3-0.2-0.3-0.4c0-0.5,0-1.1,0.1-1.4c1.9-4.1,4.1-8.1,8.3-9.4
			c5.6-1.6,11.1-0.9,15.9,3.4c1.6,1.4,3.1,2.8,4.7,4.4c-2.4,2.7-10.3,5.7-11.2,4.2c0.6-0.2,1-0.2,1.5-0.4c1.2-0.5,2.5-1.1,3.7-1.8
			c0.6-0.4,0.3-0.9-0.3-0.9c-0.1,0-0.3,0-0.7,0c1.5-1.6,1.5-1.9,0-3.7c-1-1.2-2.1-2.3-3.1-3.2c-0.4-0.4-1-0.4-1.6-0.5
			c0,0.7-0.1,1.4-0.1,1.9c0.3,2.8-0.1,5.5-1.8,7.6c-0.7,1.1-2.8,1.6-4.3,1.4s-2.5-0.7-3.5-2.3c-1-1.8-1.5-3.5-1.3-5.5
			C120.2,104.5,120.2,104,120.3,102.7z"/>
	</g>
</g>
</svg>
