<?xml version="1.0" encoding="utf-8"?>
<!-- Generator: Adobe Illustrator 26.0.3, SVG Export Plug-In . SVG Version: 6.00 Build 0)  -->
<svg version="1.1" id="Layer_1" xmlns="http://www.w3.org/2000/svg" xmlns:xlink="http://www.w3.org/1999/xlink" x="0px" y="0px"
	 viewBox="0 0 200 200" style="enable-background:new 0 0 200 200;" xml:space="preserve">
<style type="text/css">
	.st0{fill:#FFFFFF;}
	.st1{fill:#423522;}
	.st2{clip-path:url(#SVGID_00000079459893601755453250000006156167258702629794_);}
	.st3{clip-path:url(#SVGID_00000079470202395908434690000013594271408402970027_);}
	.st4{fill:#5B2945;}
	.st5{fill:#63382D;}
</style>
<g id="Calque_10">
	<path class="st0" d="M140.3,95.3c0,5.8-4.7,10.7-10.7,10.7c-6,0-10.7-5.1-10.7-8.1L140.3,95.3z"/>
	<path class="st0" d="M78.8,96.8c0,4.3-4.6,9.2-10.6,9.2s-10.7-4.7-10.7-10.7l0,0L78.8,96.8z"/>
	<path class="st1" d="M74.7,96.2c0,3.5-2.8,6.3-6.3,6.3c-3.5,0-6.3-2.8-6.3-6.3c0-0.3,0-1.6,0-1.9l12.5,0.9
		C74.7,95.6,74.7,95.9,74.7,96.2z"/>
	<path class="st1" d="M136.3,96.2c0,3.5-2.8,6.3-6.3,6.3c-3.5,0-6.3-2.8-6.3-6.3c0-0.3,0-0.6,0-0.9l12.6-0.9
		C136.3,94.6,136.3,95.9,136.3,96.2z"/>
	<g>
		<g>
			<g>
				<g>
					<defs>
						<rect id="SVGID_1_" x="117" y="72.7" width="34.1" height="11.2"/>
					</defs>
					<clipPath id="SVGID_00000005967747343376259100000000762823201062621062_">
						<use xlink:href="#SVGID_1_"  style="overflow:visible;"/>
					</clipPath>
					<g style="clip-path:url(#SVGID_00000005967747343376259100000000762823201062621062_);">
						<g>
							<path class="st1" d="M118.6,74.3c10.7-1.9,22.3,1.6,30.9,8.1C139.3,79.9,128.9,76.8,118.6,74.3L118.6,74.3z"/>
						</g>
					</g>
				</g>
			</g>
		</g>
	</g>
	<g>
		<g>
			<g>
				<g>
					<defs>
						<rect id="SVGID_00000138547669295998219800000014793179177760333218_" x="48.9" y="72.7" width="34.1" height="11.2"/>
					</defs>
					<clipPath id="SVGID_00000100371230438190051710000009715230816983118258_">
						<use xlink:href="#SVGID_00000138547669295998219800000014793179177760333218_"  style="overflow:visible;"/>
					</clipPath>
					<g style="clip-path:url(#SVGID_00000100371230438190051710000009715230816983118258_);">
						<g>
							<path class="st1" d="M81.4,74.3c-10.3,2.5-20.7,5.7-30.9,8.1C59.1,75.8,70.6,72.4,81.4,74.3L81.4,74.3z"/>
						</g>
					</g>
				</g>
			</g>
		</g>
	</g>
	<g>
		<path class="st4" d="M82.2,156.5c5.8-1.7,11.7-2.1,17.7-2.1c6,0,11.8,0.3,17.5,2.1C106,160.1,93.5,160.1,82.2,156.5L82.2,156.5z"
			/>
	</g>
	<path class="st5" d="M112.5,130.3c0,0-7.4,5.8-11.7,5.8c-4.1,0-11.1-5.7-11.1-5.7s8.5,1.1,11.4,1.1S112.5,130.3,112.5,130.3z"/>
</g>
<path class="st1" d="M53.4,96.5c1.1,0.9,3.5,1.3,5.2,0.6c3.2-1.1,6.8-2.7,10.4-2.1c4.9,0.9,4.4,2.8,10.6,3.2c0.5,0-1.3-6-10.9-6.3
	C59,91.8,57.7,96.2,53.4,96.5z"/>
<path class="st1" d="M143.9,96.5c-1.1,0.9-3.3,1.3-4.9,0.6c-3.2-1.1-6.5-2.7-9.9-2.1c-4.6,0.9-4.3,2.8-10.1,3.2
	c-0.5,0,1.3-6,10.4-6.3S139.6,96.2,143.9,96.5z"/>
</svg>
