<?xml version="1.0" encoding="utf-8"?>
<!-- Generator: Adobe Illustrator 26.0.3, SVG Export Plug-In . SVG Version: 6.00 Build 0)  -->
<svg version="1.1" id="Layer_1" xmlns="http://www.w3.org/2000/svg" xmlns:xlink="http://www.w3.org/1999/xlink" x="0px" y="0px"
	 viewBox="0 0 200 200" style="enable-background:new 0 0 200 200;" xml:space="preserve">
<style type="text/css">
	.st0{clip-path:url(#SVGID_00000063618818339172593310000012649415074235340161_);}
	.st1{fill:#423522;}
	.st2{clip-path:url(#SVGID_00000094584048543342885340000006898233871602191255_);}
	.st3{fill:#5E3E35;}
	.st4{fill:#6B3457;}
</style>
<g id="Calque_10">
	<g>
		<g>
			<g>
				<defs>
					<rect id="SVGID_1_" x="53" y="77.9" width="32" height="8.8"/>
				</defs>
				<clipPath id="SVGID_00000040543104698634807460000003818289089741827740_">
					<use xlink:href="#SVGID_1_"  style="overflow:visible;"/>
				</clipPath>
				<g style="clip-path:url(#SVGID_00000040543104698634807460000003818289089741827740_);">
					<g>
						<path class="st1" d="M83.5,80.7c-5.2-0.1-10.1-0.3-14.8,0.6c-4.8,0.9-9.6,2.7-14.3,4.1C62.1,78.2,74.1,75.6,83.5,80.7
							L83.5,80.7z"/>
					</g>
				</g>
			</g>
		</g>
	</g>
	<g>
		<g>
			<g>
				<defs>
					<rect id="SVGID_00000182520442292466263350000005463630969378021559_" x="115.1" y="77.9" width="32" height="8.8"/>
				</defs>
				<clipPath id="SVGID_00000137852484747667379560000005682614614136310434_">
					<use xlink:href="#SVGID_00000182520442292466263350000005463630969378021559_"  style="overflow:visible;"/>
				</clipPath>
				<g style="clip-path:url(#SVGID_00000137852484747667379560000005682614614136310434_);">
					<g>
						<path class="st1" d="M116.5,80.7c9.4-5.1,21.4-2.5,29.1,4.6c-4.8-1.4-9.6-3.2-14.3-4.1C126.6,80.4,121.7,80.5,116.5,80.7
							L116.5,80.7z"/>
					</g>
				</g>
			</g>
		</g>
	</g>
	<path class="st3" d="M110,135.4c0,0-6.8,3.9-10.7,3.9c-3.9,0-10.1-3.8-10.1-3.8s7.8,0.7,10.4,0.7C102.2,136.3,110,135.4,110,135.4z
		"/>
	<g>
		<path class="st4" d="M80,151.2c12.7,8.1,26.9,7.4,38.9-1.4C111.3,164.3,88.7,165.2,80,151.2L80,151.2z"/>
	</g>
	<path class="st1" d="M143,101.8c-0.9,1.4-2.7,1.9-4.2,0.9c-2.6-1.6-10-1.7-12.9-0.9c-3.9,1.3-8.4,3-9.6,0.6
		c-0.1-0.4,2.2-4.8,9.8-5.4S139.4,101.2,143,101.8L143,101.8z"/>
	<path class="st1" d="M55.9,101.8c0.9,1.4,2.7,1.9,4.2,0.9c2.6-1.6,10-1.7,12.9-0.9c3.9,1.3,8.4,3,9.6,0.6c0.1-0.4-2.2-4.8-9.8-5.4
		S59.3,101.2,55.9,101.8L55.9,101.8z"/>
</g>
</svg>
