<?xml version="1.0" encoding="utf-8"?>
<!-- Generator: Adobe Illustrator 26.0.3, SVG Export Plug-In . SVG Version: 6.00 Build 0)  -->
<svg version="1.1" id="Calque_1" xmlns="http://www.w3.org/2000/svg" xmlns:xlink="http://www.w3.org/1999/xlink" x="0px" y="0px"
	 viewBox="0 0 788 1005" style="enable-background:new 0 0 788 1005;" xml:space="preserve">
<style type="text/css">
	.st0{fill:#FFFFFF;}
	.st1{fill:#423522;}
	.st2{clip-path:url(#SVGID_00000118389970023923499970000003382896616968212413_);}
	.st3{clip-path:url(#SVGID_00000026849674590616757520000000800976164348438719_);}
	.st4{fill:#5B2945;}
	.st5{fill:#63382D;}
</style>
<g id="Calque_10">
	<path class="st0" d="M419.6,244.1c0,3.7-3,6.8-6.8,6.8s-6.8-3.2-6.8-5.1L419.6,244.1z"/>
	<path class="st0" d="M380.7,245.1c0,2.7-2.9,5.8-6.7,5.8s-6.8-3-6.8-6.8l0,0L380.7,245.1z"/>
	<path class="st1" d="M378.1,244.7c0,2.2-1.8,4-4,4s-4-1.8-4-4c0-0.2,0-1,0-1.2l7.9,0.6C378.1,244.3,378.1,244.5,378.1,244.7z"/>
	<path class="st1" d="M417.1,244.7c0,2.2-1.8,4-4,4s-4-1.8-4-4c0-0.2,0-0.4,0-0.6l8-0.6C417.1,243.7,417.1,244.5,417.1,244.7z"/>
	<g>
		<g>
			<g>
				<g>
					<defs>
						<rect id="SVGID_1_" x="404.9" y="229.8" width="21.6" height="7.1"/>
					</defs>
					<clipPath id="SVGID_00000178897290062882736500000000738669676313919137_">
						<use xlink:href="#SVGID_1_"  style="overflow:visible;"/>
					</clipPath>
					<g style="clip-path:url(#SVGID_00000178897290062882736500000000738669676313919137_);">
						<g>
							<path class="st1" d="M405.9,230.8c6.8-1.2,14.1,1,19.6,5.1C419,234.4,412.4,232.4,405.9,230.8L405.9,230.8z"/>
						</g>
					</g>
				</g>
			</g>
		</g>
	</g>
	<g>
		<g>
			<g>
				<g>
					<defs>
						<rect id="SVGID_00000113348064096673988470000007883348282360389509_" x="361.7" y="229.8" width="21.6" height="7.1"/>
					</defs>
					<clipPath id="SVGID_00000075857223604697123460000010382748944570064809_">
						<use xlink:href="#SVGID_00000113348064096673988470000007883348282360389509_"  style="overflow:visible;"/>
					</clipPath>
					<g style="clip-path:url(#SVGID_00000075857223604697123460000010382748944570064809_);">
						<g>
							<path class="st1" d="M382.3,230.8c-6.5,1.6-13.1,3.6-19.6,5.1C368.2,231.8,375.5,229.6,382.3,230.8L382.3,230.8z"/>
						</g>
					</g>
				</g>
			</g>
		</g>
	</g>
	<g>
		<path class="st4" d="M382.8,282.9c3.7-1.1,7.4-1.3,11.2-1.3c3.8,0,7.5,0.2,11.1,1.3C397.9,285.2,390,285.2,382.8,282.9
			L382.8,282.9z"/>
	</g>
	<path class="st5" d="M402,266.3c0,0-4.7,3.7-7.4,3.7c-2.6,0-7-3.6-7-3.6s5.4,0.7,7.2,0.7S402,266.3,402,266.3z"/>
</g>
<path class="st1" d="M364.6,244.9c0.7,0.6,2.2,0.8,3.3,0.4c2-0.7,4.3-1.7,6.6-1.3c3.1,0.6,2.8,1.8,6.7,2c0.3,0-0.8-3.8-6.9-4
	C368.1,241.9,367.3,244.7,364.6,244.9z"/>
<path class="st1" d="M421.9,244.9c-0.7,0.6-2.1,0.8-3.1,0.4c-2-0.7-4.1-1.7-6.3-1.3c-2.9,0.6-2.7,1.8-6.4,2c-0.3,0,0.8-3.8,6.6-4
	S419.2,244.7,421.9,244.9z"/>
</svg>
