<?xml version="1.0" encoding="utf-8"?>
<!-- Generator: Adobe Illustrator 26.0.3, SVG Export Plug-In . SVG Version: 6.00 Build 0)  -->
<svg version="1.1" id="Calque_1" xmlns="http://www.w3.org/2000/svg" xmlns:xlink="http://www.w3.org/1999/xlink" x="0px" y="0px"
	 viewBox="0 0 788 1005" style="enable-background:new 0 0 788 1005;" xml:space="preserve">
<style type="text/css">
	.st0{fill:#423522;}
	.st1{fill:#662C34;}
	.st2{fill:#5E3E35;}
	.st3{fill:#FFFFFF;}
</style>
<g id="Calque_10">
	<g>
		<path class="st0" d="M405.3,233.9c3.7-0.7,7.3-0.5,11,0.2c3.7,0.8,7.2,2.2,9.9,4.8c-1.9-0.2-3.7-0.5-5.4-0.8
			C415.7,237,410.1,236.2,405.3,233.9L405.3,233.9z"/>
	</g>
	<g>
		<path class="st0" d="M382.2,233.4c-5-1.9-10.1-2.5-15.2-0.8c-1.6,0.5-3.3,1.3-5,2.2C365.5,227.3,377.7,226.4,382.2,233.4
			L382.2,233.4z"/>
	</g>
	<g>
		<path class="st1" d="M379.8,280.3c8.8,5.6,18.6,5.1,26.9-1C401.4,289.4,385.8,290,379.8,280.3L379.8,280.3z"/>
	</g>
	<path class="st0" d="M421.9,246.5c-0.6,1-1.9,1.3-2.9,0.6c-1.8-1.1-6.9-1.2-8.9-0.6c-2.7,0.9-5.8,2.1-6.6,0.4
		c-0.1-0.3,1.5-3.3,6.8-3.7S419.4,246.1,421.9,246.5L421.9,246.5z"/>
</g>
<path class="st2" d="M400.4,266.5c0,0-4.7,3.7-7.4,3.7c-2.6,0-7-3.6-7-3.6s5.4,0.7,7.2,0.7C395,267.3,400.4,266.5,400.4,266.5z"/>
<g>
	<path class="st1" d="M379.8,280.3c8.8,5.6,18.4,5.1,26.9-0.9C401.3,289.3,385.8,290,379.8,280.3L379.8,280.3z"/>
</g>
<g>
	<g>
		<path class="st3" d="M382.8,248.4c0,0-6.3,2.6-12.5,1c-6.2-1.7-6.4-2.9-6.4-2.9l5-4.3l3.4-1l6,0.6l1.5,1.3l2,2.5L382.8,248.4z"/>
		<path class="st0" d="M378.8,242.5c2.1,1.4,3.2,3.7,4.1,6c0.1-0.1,0.2-0.1,0.2-0.2c0-0.4,0-0.7-0.1-1c-1.3-2.8-2.8-5.5-5.6-6.4
			c-3.8-1.1-7.5-0.6-10.8,2.3c-1.1,1-2.1,1.9-3.2,3c1.6,1.8,7,3.8,7.6,2.9c-0.4-0.1-0.7-0.1-1-0.2c-0.8-0.4-1.7-0.7-2.5-1.2
			c-0.4-0.2-0.2-0.6,0.2-0.6c0.1,0,0.2,0,0.5,0c-1-1.1-1-1.3,0-2.5c0.7-0.8,1.4-1.6,2.1-2.2c0.3-0.2,0.7-0.2,1.1-0.4
			c0,0.5,0.1,1,0.1,1.3c-0.2,1.9,0.1,3.7,1.2,5.2c0.5,0.7,1.9,1.1,2.9,1s1.7-0.5,2.4-1.6c0.7-1.2,1-2.4,0.9-3.7
			C378.9,243.7,378.8,243.2,378.8,242.5z"/>
	</g>
</g>
</svg>
