<?xml version="1.0" encoding="utf-8"?>
<!-- Generator: Adobe Illustrator 26.0.3, SVG Export Plug-In . SVG Version: 6.00 Build 0)  -->
<svg version="1.1" id="Calque_1" xmlns="http://www.w3.org/2000/svg" xmlns:xlink="http://www.w3.org/1999/xlink" x="0px" y="0px"
	 viewBox="0 0 788 1005" style="enable-background:new 0 0 788 1005;" xml:space="preserve">
<style type="text/css">
	.st0{fill:#423522;}
	.st1{fill:#5E3E35;}
	.st2{fill:#662C34;}
	.st3{fill:#FFFFFF;}
</style>
<g>
	<path class="st0" d="M382.2,233c-5-1.9-10.1-2.5-15.2-0.8c-1.6,0.5-3.3,1.3-5,2.2C365.5,226.9,377.7,226,382.2,233L382.2,233z"/>
</g>
<path class="st1" d="M400.4,266.1c0,0-4.7,3.7-7.4,3.7c-2.6,0-7-3.6-7-3.6s5.4,0.7,7.2,0.7S400.4,266.1,400.4,266.1z"/>
<g>
	<path class="st2" d="M379.8,279.9c8.8,5.6,18.4,5.1,26.9-0.9C401.3,288.9,385.8,289.6,379.8,279.9L379.8,279.9z"/>
</g>
<g>
	<path class="st0" d="M404.2,233c4.5-7,16.7-6.1,20.2,1.4c-1.7-0.9-3.3-1.7-5-2.2C414.3,230.5,409.2,231.1,404.2,233L404.2,233z"/>
</g>
<g>
	<g>
		<path class="st3" d="M382.8,248c0,0-6.3,2.6-12.5,1c-6.2-1.7-6.4-2.9-6.4-2.9l5-4.3l3.4-1l6,0.6l1.5,1.3l2,2.5L382.8,248z"/>
		<path class="st0" d="M378.8,242.1c2.1,1.4,3.2,3.7,4.1,6c0.1-0.1,0.2-0.1,0.2-0.2c0-0.4,0-0.7-0.1-1c-1.3-2.8-2.8-5.5-5.6-6.4
			c-3.8-1.1-7.5-0.6-10.8,2.3c-1.1,1-2.1,1.9-3.2,3c1.6,1.8,7,3.8,7.6,2.9c-0.4-0.1-0.7-0.1-1-0.2c-0.8-0.4-1.7-0.7-2.5-1.2
			c-0.4-0.2-0.2-0.6,0.2-0.6c0.1,0,0.2,0,0.5,0c-1-1.1-1-1.3,0-2.5c0.7-0.8,1.4-1.6,2.1-2.2c0.3-0.2,0.7-0.2,1.1-0.4
			c0,0.5,0.1,1,0.1,1.3c-0.2,1.9,0.1,3.7,1.2,5.2c0.5,0.7,1.9,1.1,2.9,1c1-0.1,1.7-0.5,2.4-1.6c0.7-1.2,1-2.4,0.9-3.7
			C378.9,243.3,378.8,242.8,378.8,242.1z"/>
	</g>
	<g>
		<path class="st3" d="M403.6,248.1c0,0,6.3,2.6,12.5,1c6.2-1.7,6.4-2.9,6.4-2.9l-5-4.3l-3.4-1l-6,0.6l-1.5,1.3l-2,2.5L403.6,248.1z
			"/>
		<path class="st0" d="M407.6,242.2c-2.1,1.4-3.2,3.7-4.1,6c-0.1-0.1-0.2-0.1-0.2-0.2c0-0.4,0-0.7,0.1-1c1.3-2.8,2.8-5.5,5.6-6.4
			c3.8-1.1,7.5-0.6,10.8,2.3c1.1,1,2.1,1.9,3.2,3c-1.6,1.8-7,3.8-7.6,2.9c0.4-0.1,0.7-0.1,1-0.2c0.8-0.4,1.7-0.7,2.5-1.2
			c0.4-0.2,0.2-0.6-0.2-0.6c-0.1,0-0.2,0-0.5,0c1-1.1,1-1.3,0-2.5c-0.7-0.8-1.4-1.6-2.1-2.2c-0.3-0.2-0.7-0.2-1.1-0.4
			c0,0.5-0.1,1-0.1,1.3c0.2,1.9-0.1,3.7-1.2,5.2c-0.5,0.7-1.9,1.1-2.9,1c-1-0.1-1.7-0.5-2.4-1.6c-0.7-1.2-1-2.4-0.9-3.7
			C407.5,243.4,407.5,243.1,407.6,242.2z"/>
	</g>
</g>
</svg>
