<svg xmlns="http://www.w3.org/2000/svg" viewBox="0 0 138.15 166.1"><defs><style>.cls-1{fill:#3689b3;}.cls-2{fill:#87b6c7;}.cls-3{fill:#6c9aab;}.cls-4{fill:#d79072;}.cls-5{fill:#699aab;}.cls-6,.cls-7{fill:none;stroke-linecap:round;stroke-miterlimit:10;stroke-width:2px;}.cls-6{stroke:#699aab;}.cls-7{stroke:#669aab;}</style></defs><g id="Calque_7" data-name="Calque 7"><path class="cls-1" d="M76.88,33.11c3.27,1,4.7,1.76,5.47,3a12.59,12.59,0,0,1,1.27,4.55c.11,2.75-1.57,9.66-4.43,12S62,55,59.13,52.65s-4.54-9.22-4.43-12A12.57,12.57,0,0,1,56,36.13c.78-1.26,2.21-2.07,5.47-3A26.33,26.33,0,0,1,69,32.19,28.37,28.37,0,0,1,76.88,33.11Z"/><path class="cls-1" d="M53.91,80.06a4.89,4.89,0,0,0,4.64,4.46h0a4.88,4.88,0,0,0,5-3.71S67,64.6,67.37,58.75c.09-1.38-.15-5.54-.15-5.54l-.6-9.69a6.28,6.28,0,0,0-5.35-5.29c-5.53-.83-5.79,2.14-5.79,2.14s-2.72,14.41-2.92,19.26C52.37,64.11,53.91,80.06,53.91,80.06Z"/><path class="cls-1" d="M58.32,76.9c-2.54,0-4.07,1.23-4.54,3.32,0,0-1.29,10.11-1.51,14.06a169.09,169.09,0,0,0,1.31,24.83c.19,1.37.54,5.53.54,5.53a2.39,2.39,0,0,0,2.41,2.15h0a2.39,2.39,0,0,0,2.36-2.15s.41-4.77.64-6.35c.83-5.72,3.28-17.07,3.65-22.85.22-3.47-.08-14.15-.08-14.15C63,77.78,60.5,77,58.32,76.9Z"/><path class="cls-2" d="M56.41,123.17h0a2.91,2.91,0,0,0-2.58,1.67h0c-1.07,2.25-5.58,5.27-5.58,5.27a2.78,2.78,0,0,0-1,2.67h0l11-.06.62-.19a1.56,1.56,0,0,0,1.1-1.64l-.63-5.46A2.93,2.93,0,0,0,56.41,123.17Z"/><path class="cls-3" d="M47.56,132.73h0a1.64,1.64,0,0,1,1.37-1.9l6.54-1a1.64,1.64,0,0,1,1.84,1.23l.38,1.55Z"/><path class="cls-1" d="M83.68,80.06A4.9,4.9,0,0,1,79,84.52h0a4.9,4.9,0,0,1-5-3.71S70.6,64.6,70.22,58.75c-.09-1.44.75-15.23.75-15.23s-.52-4.09,5.34-5.29c5.22-1.07,5.79,2.14,5.79,2.14S84.82,54.6,85,59.45C85.22,63.93,83.68,80.06,83.68,80.06Z"/><path class="cls-1" d="M79.46,76.9a3.79,3.79,0,0,1,4.06,3.32S86.14,90,86.34,93.91c.32,6.33-1.87,18.91-2.64,25.2-.17,1.37-.49,5.53-.49,5.53a2.23,2.23,0,0,1-2.15,2.15h0a2.24,2.24,0,0,1-2.1-2.15s-.36-4.77-.57-6.35c-.75-5.72-2.93-17.07-3.26-22.85-.2-3.47.07-14.15.07-14.15.13-3.51,2.32-4.28,4.26-4.39Z"/><path class="cls-4" d="M83.66,122.47c-.22,6.2,7.32,7,7.32,7,.8.63-12.24,4-12.16,3.25,0,0,.26-9.5-.19-11.9C78.31,119.12,83.79,118.82,83.66,122.47Z"/><path class="cls-2" d="M81.32,125.91c1.16-.4,1.08-1.25,1.54-1.71.28-.28,1.44-.58,1.61-.22,2,4.13,11.16,6.45,11.16,6.45a2.48,2.48,0,0,1,1,2.67h0s-8,1.71-12.37-.24c-.87-.39-1.64.56-1.64.56s-4.09.68-3.86-.56l-.46-7.8C78.62,123.71,79.32,126.59,81.32,125.91Z"/><path class="cls-5" d="M96.74,133.18c.15-1.64-.78-2.67-1.1-2.63s-1.18.43-1.64.51a19.19,19.19,0,0,1-2.91-.05c-.56-.06-1,.5-1.07,1.29l0,1.58a18.36,18.36,0,0,0,4.49-.29C95,133.51,96.74,133.18,96.74,133.18Z"/><path class="cls-1" d="M54.73,40.41l-.39,3.77-.25,5.21-3.63,76.68,3.83-.17,6.36.13s2.3-25.94,2.81-32.11c.29-3.58.42-10.79.93-14.35.75-5.19,4.72-20.41,4.72-20.41l.32-18.91Z"/><polygon class="cls-1" points="67.78 42.2 68.08 59.65 73.11 89.91 75.75 121.11 75.95 126.79 85.95 125.63 85.79 119 85.92 87.19 81.48 41.8 68.91 42.28 67.78 42.2"/><path class="cls-6" d="M53.31,126.56a3.44,3.44,0,0,1,1.63-.61,3.84,3.84,0,0,1,1.81.57"/><path class="cls-7" d="M86.39,125.77a5.69,5.69,0,0,1-1.65.39"/><path class="cls-7" d="M87.42,126.68a6.11,6.11,0,0,1-1.62.5"/><path class="cls-1" d="M69.78,64.49c1.13,1.32.61,68.34-10.12,64-7-2.83-9.8,3.1-10.9-4.07s-.9-57.19,5.33-75c0,0,30.37-2.62,30.39,5.07s13.44,73.55,5.87,72.4c-11.39-1.73-14.4,4.91-16.8-.72S69.78,64.49,69.78,64.49Z"/></g></svg>