<svg xmlns="http://www.w3.org/2000/svg" viewBox="0 0 788 1005"><defs><style>.cls-1{fill:#614652;}.cls-2{fill:#aa5b3f;}.cls-3{fill:#87b6c7;}.cls-4{fill:#6c9aab;}.cls-5{fill:#d79072;}.cls-6{fill:#699aab;}.cls-10,.cls-7,.cls-9{fill:none;}.cls-7{stroke:#699aab;stroke-linecap:round;stroke-width:2px;}.cls-7,.cls-9{stroke-miterlimit:10;}.cls-8{fill:#6c6b6a;}.cls-9{stroke:#4f3742;}</style></defs><g id="Calque_5" data-name="Calque 5"><path class="cls-1" d="M312.56,648.68A26.84,26.84,0,0,0,338,673.12h0a26.84,26.84,0,0,0,27.34-20.34S384.2,564,386.29,531.94c.5-7.58-.82-30.36-.82-30.36l-3.28-53.07s-3-25.06-29.27-29c-30.3-4.53-31.73,11.77-31.73,11.77s-14.9,78.9-16,105.5C304.12,561.3,312.56,648.68,312.56,648.68Z"/><path class="cls-2" d="M336.75,631.38c-13.92-.19-22.33,6.71-24.87,18.16,0,0-7.11,55.37-8.31,77-1.93,34.69,2.48,101.61,7.19,136,1,7.53,3,30.27,3,30.27A13.11,13.11,0,0,0,327,904.68h0a13.11,13.11,0,0,0,12.9-11.81s2.23-26.14,3.5-34.79c4.58-31.35,18-93.52,20-125.14,1.22-19-.44-77.52-.44-77.52-.8-19.21-14.26-23.46-26.18-24Z"/><path class="cls-3" d="M326.26,884.8h0A16.06,16.06,0,0,0,312.14,894h0c-5.84,12.34-30.55,28.87-30.55,28.87A15.14,15.14,0,0,0,276,937.47h0l60.27-.33,3.39-1a8.54,8.54,0,0,0,6-9l-3.46-30A16,16,0,0,0,326.26,884.8Z"/><path class="cls-4" d="M277.77,937.17h0a9,9,0,0,1,7.52-10.37l35.85-5.41a9,9,0,0,1,10.07,6.77l2.06,8.51Z"/><path class="cls-1" d="M475.65,648.68a26.83,26.83,0,0,1-25.44,24.44h0a26.83,26.83,0,0,1-27.34-20.34S404,564,401.92,531.94c-.52-7.91,4.1-83.43,4.1-83.43s-2.83-22.42,29.27-29C463.9,413.66,467,431.28,467,431.28s14.9,77.9,16,104.5C484.09,560.3,475.65,648.68,475.65,648.68Z"/><path class="cls-5" d="M452.56,631.38c12.44-.19,19.94,6.71,22.22,18.16,0,0,14.38,53.37,15.45,75,1.72,34.69-10.25,103.61-14.46,138-.92,7.53-2.66,30.27-2.66,30.27-.6,6.77-5.72,11.91-11.8,11.83h0c-6-.08-10.92-5.16-11.51-11.81,0,0-2-26.14-3.12-34.79-4.1-31.35-16.08-93.52-17.88-125.14-1.09-19,.39-77.52.39-77.52.71-19.21,12.73-23.46,23.37-24Z"/><path class="cls-2" d="M475.21,857.43c-1.21,34,40.41,61.62,40.41,61.62,4.43,3.47-67,21.84-66.61,17.8,0,0,1.45-52-1-65.2C446.21,862.36,475.92,837.45,475.21,857.43Z"/><path class="cls-3" d="M462.7,899.81c6.38-2.17,5.93-6.81,8.47-9.36,1.54-1.54,9.76-10.89,10.69-8.92,10.68,22.66,59.26,43.07,59.26,43.07,5.36,3.82,6.57,9.1,5.55,14.63h0s-43.77,9.37-67.77-1.33c-4.8-2.15-10.66-.9-10.66-.9s-22.42,3.73-21.15-3.06l-.87-38.75C448,887.8,451.75,903.55,462.7,899.81Z"/><path class="cls-6" d="M547.19,939.67c.85-9-4.26-14.65-6-14.43-2.5.32-6.51,2.38-9,2.81-4,.69-16-.28-16-.28-3.07-.32-5.61,2.76-5.86,7.09l-.2,8.64s7.32,1,24.64-1.59C537.71,941.48,547.19,939.67,547.19,939.67Z"/><path class="cls-7" d="M309.29,903.41s4.74-3.36,8.91-3.35c5.1,0,10,3.11,10,3.11"/><path class="cls-8" d="M326.58,410.93C321,421,308,485,308,485s-7.09,48.29-7.09,53.2S284,713,284,715.22c0,1.42-3.25,37.32-5.63,63.85a79.44,79.44,0,0,0,13.28,51.58l1.83,2.7,15.07,23.31L312.1,877l30.27-4.46,2.91-15,19.19-16.63s6.56-30.91,5.8-33.17-5.8-53.28-5.8-53.28l28.32-205.15,27.77,145.54v54.83s-7.2,36.48-6.63,43.22,7.61,21.62,7.61,21.62,20.65,34.89,20.88,34.41,4.48,21.39,4.48,21.39l29.93-4.68,2.32-24.78,17.46-16.29h0a35.8,35.8,0,0,0,20.16-34.81L508.4,673.15l-17-181.2L473.24,421.5"/><path class="cls-8" d="M434.32,391.48c16.16,5.22,23.2,9.63,27,16.56,3.11,5.62,6,18.49,6.27,24.9.55,15.07-7.77,52.94-21.92,65.58-14.41,12.86-84.8,12.86-99.2,0C332.35,485.88,324,448,324.58,432.94c.23-6.41,3.16-19.28,6.27-24.9,3.84-6.93,10.89-11.34,27-16.56,18.49-6,37.3-5,37.3-5S415.83,385.5,434.32,391.48Z"/><polygon class="cls-9" points="394.57 489.85 389.57 449.85 404.57 449.85 403.57 482.13 394.57 489.85"/><path class="cls-10" d="M434.32,391.48c16.16,5.22,23.2,9.63,27,16.56,3.11,5.62,6,18.49,6.27,24.9.55,15.07-7.77,52.94-21.92,65.58-14.41,12.86-84.8,12.86-99.2,0C332.35,485.88,324,448,324.58,432.94c.23-6.41,3.16-19.28,6.27-24.9,3.84-6.93,10.89-11.34,27-16.56,18.49-6,37.3-5,37.3-5S415.83,385.5,434.32,391.48Z"/><path class="cls-8" d="M438.28,391.48c17.9,5.22,25.7,9.63,30,16.56,3.45,5.62,6.69,18.49,6.95,24.9.6,15.07-8.61,52.94-24.29,65.58-15.95,12.86-93.92,12.86-109.87,0-15.68-12.64-24.89-50.51-24.29-65.58.26-6.41,3.51-19.28,6.95-24.9,4.26-6.93,12.06-11.34,29.95-16.56,20.48-6,41.31-5,41.31-5S417.8,385.5,438.28,391.48Z"/></g></svg>