<svg xmlns="http://www.w3.org/2000/svg" viewBox="0 0 138.15 166.1"><defs><style>.cls-1,.cls-6,.cls-8,.cls-9{fill:none;}.cls-2{fill:#6c6b6a;}.cls-3{fill:#d79072;}.cls-4{fill:#87b6c7;}.cls-5{fill:#6c9aab;}.cls-6{stroke:#000;stroke-width:3px;}.cls-6,.cls-8,.cls-9{stroke-miterlimit:10;}.cls-7{fill:#699aab;}.cls-8{stroke:#699aab;}.cls-8,.cls-9{stroke-linecap:round;stroke-width:2px;}.cls-9{stroke:#669aab;}.cls-10{fill:#9599ba;}</style></defs><g id="Calque_5" data-name="Calque 5"><path class="cls-1" d="M76.29,33.48c2.95,1,4.23,1.76,4.93,3a13.38,13.38,0,0,1,1.15,4.54c.1,2.75-1.42,9.67-4,12s-15.48,2.35-18.11,0-4.11-9.22-4-12a13.62,13.62,0,0,1,1.15-4.54c.7-1.27,2-2.07,4.94-3a21.51,21.51,0,0,1,6.8-.92A23.3,23.3,0,0,1,76.29,33.48Z"/><path class="cls-2" d="M51,122.49c.22,2.44,5.61.83,8.06,1L58.55,84.8c2.34.11-2.36,32.39-1.8,30.12C67.12,64.19,67,64.46,67.37,59c.09-1.38-.15-5.54-.15-5.54l-.6-9.69a6.28,6.28,0,0,0-5.35-5.29c-5.53-.83-5.79,2.15-5.79,2.15s-2.72,14.4-2.92,19.26C52.37,64.38,51,122.49,51,122.49Z"/><path class="cls-3" d="M58.32,77.18c-2.54,0-4.07,1.22-4.54,3.31,0,0-1.29,10.11-1.51,14.06a169,169,0,0,0,1.31,24.83c.19,1.38.54,5.53.54,5.53a2.4,2.4,0,0,0,2.41,2.16h0a2.4,2.4,0,0,0,2.36-2.16s.41-4.77.64-6.35c.83-5.72,3.28-17.07,3.65-22.84.22-3.48-.08-14.15-.08-14.15-.14-3.51-2.6-4.29-4.78-4.39Z"/><path class="cls-4" d="M56.41,123.44h0a2.93,2.93,0,0,0-2.58,1.67h0c-1.07,2.26-5.58,5.27-5.58,5.27a2.8,2.8,0,0,0-1,2.67h0l11-.06.62-.18a1.56,1.56,0,0,0,1.1-1.64l-.63-5.47A2.94,2.94,0,0,0,56.41,123.44Z"/><path class="cls-5" d="M47.56,133h0a1.63,1.63,0,0,1,1.37-1.89l6.54-1a1.64,1.64,0,0,1,1.84,1.24l.38,1.55Z"/><path class="cls-6" d="M76.13,33.38c3,1,4.24,1.76,4.94,3A13.62,13.62,0,0,1,82.22,41c.1,2.75-1.42,9.67-4,12s-15.48,2.35-18.11,0-4.1-9.22-4-12a13.38,13.38,0,0,1,1.15-4.54c.7-1.27,2-2.07,4.93-3A21.59,21.59,0,0,1,69,32.46,23.23,23.23,0,0,1,76.13,33.38Z"/><path class="cls-2" d="M83.68,80.34A4.91,4.91,0,0,1,79,84.8h0a4.91,4.91,0,0,1-5-3.72S70.6,64.87,70.22,59c-.09-1.44.75-15.23.75-15.23s-.52-4.09,5.34-5.29c5.22-1.07,7.23,1.34,7.23,1.34s1.28,15,1.49,19.89C85.22,64.2,83.68,80.34,83.68,80.34Z"/><path class="cls-3" d="M79.46,77.18a3.77,3.77,0,0,1,4.06,3.31s2.62,9.74,2.82,13.69c.32,6.34-1.87,18.92-2.64,25.2-.17,1.38-.49,5.53-.49,5.53a2.23,2.23,0,0,1-2.15,2.16h0a2.25,2.25,0,0,1-2.1-2.16s-.36-4.77-.57-6.35c-.75-5.72-2.93-17.07-3.26-22.84-.2-3.48.07-14.15.07-14.15.13-3.51,2.32-4.29,4.26-4.39Z"/><path class="cls-3" d="M83.66,122.74c-.22,6.21,7.32,7,7.32,7,.8.63-13.34,3.25-13.27,2.51,0,0,1.37-8.76.92-11.17C78.31,119.4,83.79,119.09,83.66,122.74Z"/><path class="cls-4" d="M81.32,126.18c1.16-.4,1.08-1.24,1.54-1.71.28-.28,1.44-.58,1.61-.22,2,4.14,11.16,6.46,11.16,6.46a2.47,2.47,0,0,1,1,2.67h0s-8,1.71-12.37-.25a7.17,7.17,0,0,0-2.75-.17s-4.09.68-3.86-.56l.65-7.06C78.62,124,79.32,126.86,81.32,126.18Z"/><path class="cls-7" d="M96.74,133.46c.15-1.65-.78-2.68-1.1-2.64s-1.18.44-1.64.52a20.26,20.26,0,0,1-2.91-.06c-.56-.05-1,.51-1.07,1.3l0,1.58a18.36,18.36,0,0,0,4.49-.29C95,133.79,96.74,133.46,96.74,133.46Z"/><path class="cls-2" d="M56.53,40.63l-1.87-.14-4.3,85.81,3.84-.17,6.36.13s2.29-25.94,2.8-32.1c.29-3.59,1.62-11.25,2.14-14.81.74-5.19,3.51-20,3.51-20l.32-18.9Z"/><polygon class="cls-2" points="67.78 42.47 68.08 59.92 73.11 90.18 75.75 121.39 75.95 127.07 87.96 125.67 87.96 119.88 85.92 87.47 84.74 56.6 72.19 42.47 67.78 42.47"/><path class="cls-8" d="M53.31,126.84a3.33,3.33,0,0,1,1.63-.61,3.88,3.88,0,0,1,1.81.56"/><path class="cls-9" d="M86.39,126.05a6.06,6.06,0,0,1-1.65.39"/><polygon class="cls-10" points="60.37 127.2 49.03 126.44 49.91 124.37 49.45 121.25 61.51 120.7 62.2 122.44 60.37 127.2"/><polygon class="cls-10" points="88.63 126.54 75.78 127.46 74.63 124.09 74.27 120.71 89.04 120.71 89.27 124.08 88.63 126.54"/><path class="cls-4" d="M89.27,128.3l-11-1s3-4.54,4.72-4.54h1.11c1.28,0,1.34.48,3.09,3.31A20.38,20.38,0,0,0,89.27,128.3Z"/><path class="cls-2" d="M76.86,32.84c3.26.95,4.69,1.75,5.47,3a12.47,12.47,0,0,1,1.26,4.54c.11,2.75-1.57,9.67-4.43,12S62,54.72,59.1,52.38s-4.54-9.23-4.43-12a12.48,12.48,0,0,1,1.27-4.54c.77-1.27,2.2-2.07,5.46-3A26,26,0,0,1,69,31.92,28,28,0,0,1,76.86,32.84Z"/></g></svg>