<svg xmlns="http://www.w3.org/2000/svg" viewBox="0 0 138.15 166.1"><defs><style>.cls-1{fill:#a37636;}.cls-2{fill:#87b6c7;}.cls-3{fill:#6c9aab;}.cls-4{fill:#d79072;}.cls-5{fill:#699aab;}.cls-6,.cls-7{fill:none;stroke-linecap:round;stroke-miterlimit:10;stroke-width:2px;}.cls-6{stroke:#699aab;}.cls-7{stroke:#669aab;}</style></defs><g id="Calque_7" data-name="Calque 7"><path class="cls-1" d="M76.89,33c3.26,1,4.69,1.76,5.46,3a12.48,12.48,0,0,1,1.27,4.54c.11,2.75-1.57,9.67-4.43,12s-17.15,2.35-20.06,0-4.54-9.22-4.43-12A12.47,12.47,0,0,1,56,36c.78-1.27,2.21-2.07,5.47-3A26.11,26.11,0,0,1,69,32.07,28.24,28.24,0,0,1,76.89,33Z"/><path class="cls-1" d="M54.56,80.19a4.9,4.9,0,0,0,4.65,4.46h0a4.89,4.89,0,0,0,5-3.71S67.64,64.72,68,58.88c.09-1.39-.15-5.55-.15-5.55l-.59-9.68a6.3,6.3,0,0,0-5.35-5.3c-5.53-.83-5.79,2.15-5.79,2.15s-2.72,14.4-2.93,19.26C53,64.23,54.56,80.19,54.56,80.19Z"/><path class="cls-1" d="M57.5,77C55,77,53.42,78.25,53,80.34c0,0-1.3,10.11-1.52,14.06a170.42,170.42,0,0,0,1.32,24.83c.18,1.38.54,5.53.54,5.53a2.39,2.39,0,0,0,2.41,2.16h0a2.39,2.39,0,0,0,2.36-2.16s.4-4.77.64-6.35c.83-5.72,3.28-17.07,3.65-22.84.22-3.48-.08-14.15-.08-14.15-.15-3.51-2.6-4.29-4.78-4.39Z"/><path class="cls-2" d="M57.23,123.29h0A3,3,0,0,0,54.65,125h0c-1.07,2.25-5.58,5.27-5.58,5.27a2.78,2.78,0,0,0-1,2.67h0l11-.06.62-.19a1.56,1.56,0,0,0,1.1-1.64l-.63-5.47A2.94,2.94,0,0,0,57.23,123.29Z"/><path class="cls-3" d="M48.38,132.85h0A1.64,1.64,0,0,1,49.75,131l6.54-1a1.64,1.64,0,0,1,1.84,1.24l.38,1.55Z"/><path class="cls-1" d="M76.79,33.23c2.95,1,4.24,1.76,4.94,3a13.37,13.37,0,0,1,1.14,4.54c.1,2.75-1.42,9.67-4,12s-15.48,2.34-18.11,0-4.1-9.23-4-12a13.6,13.6,0,0,1,1.14-4.54c.7-1.27,2-2.07,4.94-3a21.41,21.41,0,0,1,6.81-.91A23.05,23.05,0,0,1,76.79,33.23Z"/><path class="cls-1" d="M84.5,80.19a4.89,4.89,0,0,1-4.64,4.46h0a4.91,4.91,0,0,1-5-3.71S71.42,64.72,71,58.88c-.09-1.45.75-15.23.75-15.23s-.52-4.1,5.34-5.3c5.23-1.07,5.8,2.15,5.8,2.15s2.72,14.22,2.92,19.08C86,64.05,84.5,80.19,84.5,80.19Z"/><path class="cls-1" d="M78.64,77a3.77,3.77,0,0,1,4.06,3.31s2.62,9.75,2.82,13.7c.31,6.33-1.87,18.91-2.64,25.19-.17,1.38-.49,5.53-.49,5.53a2.24,2.24,0,0,1-2.15,2.16h0a2.24,2.24,0,0,1-2.1-2.16s-.37-4.77-.57-6.35c-.75-5.72-2.94-17.07-3.27-22.84-.19-3.48.08-14.15.08-14.15.13-3.51,2.32-4.29,4.26-4.39Z"/><path class="cls-4" d="M84.49,122.59c-.22,6.21,7.31,7,7.31,7,.81.63-12.23,4-12.16,3.25,0,0,.26-9.5-.19-11.91C79.13,119.25,84.62,119,84.49,122.59Z"/><path class="cls-2" d="M82.14,126c1.16-.4,1.08-1.24,1.54-1.71.28-.28,1.44-.58,1.61-.22,1.95,4.14,11.16,6.46,11.16,6.46a2.5,2.5,0,0,1,1,2.67h0s-8,1.71-12.38-.25c-.87-.39-1.64.56-1.64.56s-4.09.68-3.86-.56l-.46-7.79C79.44,123.84,80.14,126.71,82.14,126Z"/><path class="cls-5" d="M97.56,133.31c.16-1.65-.78-2.68-1.09-2.64s-1.19.44-1.64.52a20.74,20.74,0,0,1-2.92-.05c-.56-.06-1,.5-1.07,1.29l0,1.58a18.36,18.36,0,0,0,4.49-.29C95.83,133.64,97.56,133.31,97.56,133.31Z"/><path class="cls-1" d="M55.39,40.54,55,44.3l-3.87,81.89L55,126l6.36.12s2.3-25.94,2.8-32.1c.3-3.58.42-10.8.94-14.36.74-5.18,4.71-20.41,4.71-20.41l.33-18.9Z"/><polygon class="cls-1" points="68.6 42.32 68.9 59.78 73.93 90.03 76.57 121.24 76.77 126.92 86.77 125.76 86.61 119.13 86.74 87.32 82.31 41.93 69.73 42.4 68.6 42.32"/><path class="cls-6" d="M52.49,126.69a3.44,3.44,0,0,1,1.62-.61,3.85,3.85,0,0,1,1.82.57"/><path class="cls-7" d="M85.56,125.9a6,6,0,0,1-1.64.39"/><path class="cls-7" d="M86.6,126.8a5.74,5.74,0,0,1-1.62.5"/><path class="cls-1" d="M54.44,50.22c-.06.87-9.56,75.59-9.56,75.59s16.29,1.85,16.43.34,7.13-65,7.13-65l8.17,65.76s15-2.42,15.06-3-6.34-68-6.42-68.64-17.38-2-17.38-2L59.1,54.7Z"/></g></svg>