<?xml version="1.0" encoding="utf-8"?>
<!-- Generator: Adobe Illustrator 26.0.1, SVG Export Plug-In . SVG Version: 6.00 Build 0)  -->
<svg version="1.1" id="Calque_1" xmlns="http://www.w3.org/2000/svg" xmlns:xlink="http://www.w3.org/1999/xlink" x="0px" y="0px"
	 viewBox="0 0 788 1005" style="enable-background:new 0 0 788 1005;" xml:space="preserve">
<style type="text/css">
	.st0{fill:#614652;}
	.st1{fill:#AA5B3F;}
	.st2{fill:#87B6C7;}
	.st3{fill:#6C9AAB;}
	.st4{fill:#D79072;}
	.st5{fill:#699AAB;}
	.st6{fill:none;stroke:#699AAB;stroke-width:2;stroke-linecap:round;stroke-miterlimit:10;}
	.st7{fill:#6C6B6A;}
	.st8{fill:none;}
</style>
<g id="Calque_5">
	<path class="st0" d="M385.6,504c-3.2,0.1-6.3,0.2-9.3,0.1C379.4,504.2,382.5,504.1,385.6,504C385.6,504,385.6,504,385.6,504z"/>
	<path class="st1" d="M336.8,631.4c-13.9-0.2-22.3,6.7-24.9,18.2c0,0-7.1,55.4-8.3,77c-1.9,34.7,2.5,101.6,7.2,136
		c1,7.5,3,30.3,3,30.3c0.6,6.8,6.4,12,13.2,11.9l0,0c6.7-0.1,12.2-5.2,12.9-11.8c0,0,2.2-26.1,3.5-34.8c4.6-31.3,18-93.5,20-125.1
		c1.2-19-0.4-77.5-0.4-77.5C362.2,636.2,348.7,632,336.8,631.4L336.8,631.4z"/>
	<path class="st2" d="M326.3,884.8L326.3,884.8c-6.1,0.2-11.5,3.7-14.1,9.2l0,0c-5.8,12.3-30.5,28.9-30.5,28.9
		c-4.4,3.5-6.6,9.1-5.6,14.6l0,0l60.3-0.3l3.4-1c3.9-1.2,6.4-5,6-9l-3.5-30C340.5,889.8,333.8,884.6,326.3,884.8z"/>
	<path class="st3" d="M277.8,937.2L277.8,937.2c-0.8-4.9,2.5-9.5,7.4-10.4c0,0,0.1,0,0.1,0l35.9-5.4c4.6-0.7,9,2.2,10.1,6.8l2.1,8.5
		L277.8,937.2z"/>
	<path class="st0" d="M420.9,500.7c-5.9,0.9-12.1,1.6-18.4,2.2v-0.1C408.8,502.3,415,501.6,420.9,500.7z"/>
	<path class="st4" d="M452.6,631.4c12.4-0.2,19.9,6.7,22.2,18.2c0,0,14.4,53.4,15.5,75c1.7,34.7-10.2,103.6-14.5,138
		c-0.9,7.5-2.7,30.3-2.7,30.3c-0.6,6.8-5.7,11.9-11.8,11.8l0,0c-6-0.1-10.9-5.2-11.5-11.8c0,0-2-26.1-3.1-34.8
		c-4.1-31.3-16.1-93.5-17.9-125.1c-1.1-19,0.4-77.5,0.4-77.5C429.9,636.2,441.9,631.9,452.6,631.4L452.6,631.4z"/>
	<path class="st1" d="M475.2,857.4c-1.2,34,40.4,61.6,40.4,61.6c4.4,3.5-67,21.8-66.6,17.8c0,0,1.5-52-1-65.2
		C446.2,862.4,475.9,837.5,475.2,857.4z"/>
	<path class="st2" d="M462.7,899.8c6.4-2.2,5.9-6.8,8.5-9.4c1.5-1.5,9.8-10.9,10.7-8.9c10.7,22.7,59.3,43.1,59.3,43.1
		c5.4,3.8,6.6,9.1,5.5,14.6l0,0c0,0-43.8,9.4-67.8-1.3c-4.8-2.2-10.7-0.9-10.7-0.9s-22.4,3.7-21.1-3.1l-0.9-38.8
		C448,887.8,451.8,903.5,462.7,899.8z"/>
	<path class="st5" d="M547.2,939.7c0.8-9-4.3-14.7-6-14.4c-2.5,0.3-6.5,2.4-9,2.8c-4,0.7-16-0.3-16-0.3c-3.1-0.3-5.6,2.8-5.9,7.1
		l-0.2,8.6c0,0,7.3,1,24.6-1.6C537.7,941.5,547.2,939.7,547.2,939.7z"/>
	<path class="st6" d="M309.3,903.4c0,0,4.7-3.4,8.9-3.3c5.1,0,10,3.1,10,3.1"/>
	<path class="st7" d="M420.9,500.7c-5.9,0.9-12.1,1.6-18.4,2.2c-5.7,0.5-11.4,0.9-16.9,1.1c-3.2,0.1-6.3,0.2-9.3,0.1
		c3,0,6.1-0.1,9.2-0.2c5.5-0.2,11.2-0.6,16.9-1.1C408.8,502.3,415,501.6,420.9,500.7z"/>
	<path class="st7" d="M420.9,500.7c-5.9,0.9-12.1,1.6-18.4,2.2c-5.7,0.5-11.4,0.9-16.9,1.1c-3.2,0.1-6.3,0.2-9.3,0.1
		c3,0,6.1-0.1,9.2-0.2c5.5-0.2,11.2-0.6,16.9-1.1C408.8,502.3,415,501.6,420.9,500.7z"/>
	<path class="st7" d="M420.9,500.7c-5.9,0.9-12.1,1.6-18.4,2.2c-5.7,0.5-11.4,0.9-16.9,1.1c-3.2,0.1-6.3,0.2-9.3,0.1
		c3,0,6.1-0.1,9.2-0.2c5.5-0.2,11.2-0.6,16.9-1.1C408.8,502.3,415,501.6,420.9,500.7z"/>
	<path class="st8" d="M420.9,500.7c-5.9,0.9-12.1,1.6-18.4,2.2c-5.7,0.5-11.4,0.9-16.9,1.1c-3.2,0.1-6.3,0.2-9.3,0.1
		c3,0,6.1-0.1,9.2-0.2c5.5-0.2,11.2-0.6,16.9-1.1C408.8,502.3,415,501.6,420.9,500.7z"/>
	<path class="st7" d="M516.8,789.8l-8.4-116.6L484,513.7c-2.8-18.5-6.8-36.8-12-54.7l-8.3-28.9c-0.6-2.4-1.5-5-2.4-6.5
		c-1.9-3.1-11.1-19.2-27.3-22.5c-10.7-2.2-22-2.9-29.8-3.1c-0.5,0-0.9,0-1.4,0c-0.5,0-1,0-1.5,0c-0.5,0-1,0-1.4,0c-2.8,0-4.6,0-5,0
		c-0.1,0-0.1,0-0.1,0s-0.1,0-0.2,0c-0.5,0-2.1,0-4.3,0c-0.4,0-0.9,0-1.3,0c-0.2,0-0.4,0-0.7,0c-7.1,0.1-19,0.8-30.9,3.2
		c-16.2,3.3-23.2,6.1-27.1,10.5C327.3,415,308,485,308,485s-7.1,48.3-7.1,53.2c0,4.9-16.9,174.8-16.9,177c0,1.4-3.2,37.3-5.6,63.9
		c-1.6,18.2,3,36.4,13.3,51.6l1.8,2.7l15.1,23.3l3.5,20.3l30.3-4.5l2.9-15l19.2-16.6c0,0,6.6-30.9,5.8-33.2s-5.8-53.3-5.8-53.3
		l28.3-205.2l27.8,145.5v54.8c0,0-7.2,36.5-6.6,43.2c0.6,6.7,7.6,21.6,7.6,21.6s20.7,34.9,20.9,34.4c0.2-0.5,4.5,21.4,4.5,21.4
		l29.9-4.7l2.3-24.8l17.5-16.3c12.4-6,20.2-18.6,20.2-32.2C516.9,791.5,516.8,790.6,516.8,789.8z M402.5,503
		c-5.7,0.5-11.4,0.9-16.9,1.1c-3.2,0.1-6.3,0.2-9.3,0.1c3,0,6.1-0.1,9.2-0.2c5.5-0.2,11.2-0.6,16.9-1.1c6.3-0.6,12.5-1.3,18.4-2.1
		C415,501.6,408.8,502.4,402.5,503z"/>
</g>
</svg>
