<?xml version="1.0" encoding="utf-8"?>
<!-- Generator: Adobe Illustrator 26.0.1, SVG Export Plug-In . SVG Version: 6.00 Build 0)  -->
<svg version="1.1" id="Calque_1" xmlns="http://www.w3.org/2000/svg" xmlns:xlink="http://www.w3.org/1999/xlink" x="0px" y="0px"
	 viewBox="0 0 788 1005" style="enable-background:new 0 0 788 1005;" xml:space="preserve">
<style type="text/css">
	.st0{clip-path:url(#SVGID_00000077289079431582494580000008238475568201490329_);}
	.st1{fill:none;stroke:#000000;stroke-width:2;stroke-linecap:round;stroke-miterlimit:10;}
	.st2{clip-path:url(#SVGID_00000173856699540471322770000011675876492636392366_);}
	.st3{fill:#5E3E35;}
	.st4{fill:none;stroke:#6B3457;stroke-width:2;stroke-linecap:round;stroke-miterlimit:10;}
	.st5{fill:#020202;}
</style>
<g id="Calque_10">
	<g>
		<defs>
			<rect id="SVGID_1_" x="361.6" y="226.3" width="22.1" height="6.1"/>
		</defs>
		<clipPath id="SVGID_00000114775702738526939700000009757102445730244772_">
			<use xlink:href="#SVGID_1_"  style="overflow:visible;"/>
		</clipPath>
		<g style="clip-path:url(#SVGID_00000114775702738526939700000009757102445730244772_);">
			<path class="st1" d="M382.7,228.2c0,0-6.4-1.9-12.1-0.2c-2.8,0.8-5.5,2-8,3.4"/>
		</g>
	</g>
	<g>
		<defs>
			<rect id="SVGID_00000108997145091798906850000004968896670366659987_" x="404.5" y="226.3" width="22.1" height="6.1"/>
		</defs>
		<clipPath id="SVGID_00000090991024124094772130000016853620863096567988_">
			<use xlink:href="#SVGID_00000108997145091798906850000004968896670366659987_"  style="overflow:visible;"/>
		</clipPath>
		<g style="clip-path:url(#SVGID_00000090991024124094772130000016853620863096567988_);">
			<path class="st1" d="M405.5,228.2c0,0,6.4-1.9,12.1-0.2c2.8,0.8,5.5,2,8,3.4"/>
		</g>
	</g>
	<path class="st3" d="M401,266c0,0-4.7,2.7-7.4,2.7s-7-2.6-7-2.6s5.4,0.5,7.2,0.5C395.6,266.6,401,266,401,266z"/>
	<path class="st4" d="M380.3,276.9c3.6,3.6,8.5,5.6,13.6,5.5c5.1-0.3,9.9-2.6,13.3-6.5"/>
	<path class="st5" d="M423.8,242.8c-0.6,1-1.9,1.3-2.9,0.6c-1.8-1.1-6.9-1.2-8.9-0.6c-2.7,0.9-5.8,2.1-6.6,0.4
		c-0.1-0.3,1.5-3.3,6.8-3.7S421.3,242.4,423.8,242.8L423.8,242.8z"/>
	<path class="st5" d="M363.6,242.8c0.6,1,1.9,1.3,2.9,0.6c1.8-1.1,6.9-1.2,8.9-0.6c2.7,0.9,5.8,2.1,6.6,0.4c0.1-0.3-1.5-3.3-6.8-3.7
		S366,242.4,363.6,242.8L363.6,242.8z"/>
</g>
</svg>
