<svg xmlns="http://www.w3.org/2000/svg" xmlns:xlink="http://www.w3.org/1999/xlink" viewBox="0 0 788 1005"><defs><style>.cls-1,.cls-11,.cls-9{fill:none;}.cls-2{fill:#d68f72;}.cls-3{fill:#b9785c;}.cls-4{clip-path:url(#clip-path);}.cls-5{fill:#955a40;}.cls-6{clip-path:url(#clip-path-2);}.cls-7{fill:#e1b386;}.cls-8{fill:#fff;}.cls-9{stroke:#000;}.cls-11,.cls-9{stroke-linecap:round;stroke-miterlimit:10;stroke-width:2px;}.cls-10{fill:#844f3d;}.cls-11{stroke:#662c34;}.cls-12{fill:#020202;}</style><clipPath id="clip-path"><polygon class="cls-1" points="431.25 250.65 431.25 250.65 442.67 250.65 442.67 264.52 431.25 264.52 431.25 250.65"/></clipPath><clipPath id="clip-path-2"><polygon class="cls-1" points="353.81 250.65 353.81 250.65 342.38 250.65 342.38 264.52 353.81 264.52 353.81 250.65"/></clipPath></defs><g id="Calque_10" data-name="Calque 10"><path class="cls-2" d="M390.58,181.91c23.91,0,43.28,11.19,43.28,45.61,0,46-27.44,79-43.28,79"/><path class="cls-3" d="M425.37,270.36,432,245.57s7.88-8.13,13.62-2.49c3.82,3.75-5.09,29-10,30C427.3,274.84,425.37,270.36,425.37,270.36Z"/><path class="cls-3" d="M357.44,270.07l-8.14-24.5s-7.88-8.13-13.62-2.49c-3.82,3.75,5.09,29,10,30C354,274.84,357.44,270.07,357.44,270.07Z"/><path class="cls-2" d="M390.58,181.91c-23.9,0-43.28,11.19-43.28,45.61,0,46,27.45,79,43.28,79"/><g class="cls-4"><path class="cls-5" d="M431.53,258.76c0-.25.71-1.63,5.33-5.32a14.09,14.09,0,0,1,5.31-2.79,2.14,2.14,0,0,1,.47,1.89c-.13.84-4.16,2.89-5.41,4a49.17,49.17,0,0,0-6,8Z"/></g><g class="cls-6"><path class="cls-5" d="M353.52,258.76c0-.25-.71-1.63-5.33-5.32a14,14,0,0,0-5.31-2.79,2.14,2.14,0,0,0-.47,1.89c.13.84,4.16,2.89,5.41,4a49.17,49.17,0,0,1,6,8Z"/></g><path class="cls-7" d="M349.3,245.57S307.81,192,377,174.82c0,0-37.82-33.89,12.66-33.89,51.55,0,15.64,32.41,12.92,33,0,0,66.46,27.46,29.44,71.6,0,0-1.44-40.35-8.75-43.47a97.4,97.4,0,0,0-.58,10,146.1,146.1,0,0,1-32.47,3,227.37,227.37,0,0,1-36.11-3.49v-9.65C344.82,208.49,349.3,245.57,349.3,245.57Z"/><circle class="cls-8" cx="375.7" cy="245.59" r="5.28"/><circle cx="375.67" cy="245.62" r="4"/><path class="cls-9" d="M384.18,233A14.89,14.89,0,0,0,364,234.39"/><path class="cls-10" d="M400.42,265.08s-4.69,3.69-7.42,3.69c-2.58,0-7-3.59-7-3.59s5.4.73,7.21.71S400.42,265.08,400.42,265.08Z"/><path class="cls-11" d="M379.76,279.93a18.62,18.62,0,0,0,13.61,5.52A19,19,0,0,0,406.66,279"/><path class="cls-12" d="M366.56,243.47a2.09,2.09,0,0,0,2.88.64c1.77-1.13,3.8-2.75,5.75-2.1,2.66.89,2.55,2.9,5.85,3.28.32,0-.68-6.21-6.07-6.54s-6,4.39-8.41,4.72Z"/><circle class="cls-8" cx="410.72" cy="245.59" r="5.28"/><circle cx="410.75" cy="245.62" r="4"/><path class="cls-9" d="M402.24,233a14.88,14.88,0,0,1,20.16,1.39"/><path class="cls-12" d="M419.87,243.47a2.1,2.1,0,0,1-2.89.64c-1.77-1.13-3.8-2.75-5.75-2.1-2.66.89-2.55,2.9-5.85,3.28-.31,0,.68-6.21,6.07-6.54s6,4.39,8.42,4.72Z"/></g></svg>