<svg id="Calque_1" data-name="Calque 1" xmlns="http://www.w3.org/2000/svg" viewBox="0 0 788 1005"><defs><style>.cls-1{fill:#1a1818;}.cls-2{fill:#227287;}.cls-3{fill:#d79072;}.cls-4{fill:#87b6c7;}.cls-5{fill:#6c9aab;}.cls-10,.cls-11,.cls-12,.cls-6{fill:none;stroke-miterlimit:10;}.cls-6{stroke:#000;stroke-width:3px;}.cls-7{fill:#614652;}.cls-8{fill:#699aab;}.cls-9{fill:#473415;}.cls-10{stroke:#699aab;}.cls-10,.cls-11{stroke-linecap:round;stroke-width:2px;}.cls-11{stroke:#669aab;}.cls-12{stroke:#4f3742;}</style></defs><polygon class="cls-1" points="243.43 514.01 243.33 514.05 243.33 513.97 243.43 514.01"/><polygon points="243.53 513.97 243.53 514.05 243.43 514.01 243.53 513.97"/><polygon class="cls-1" points="243.43 514.01 243.33 514.05 243.33 513.97 243.43 514.01"/><polygon points="243.53 513.97 243.53 514.05 243.43 514.01 243.53 513.97"/><path class="cls-2" d="M357.06,673.73c3.26,12,15.62,20,28.95,18.68h0c12.74-1.29,22.72-10.74,23.83-22.57,0,0,4.74-84,1.8-113.56-.69-7-5.55-27.66-5.55-27.66l-11.54-48.07s-6.84-22.49-33.44-22.29c-30.63.24-29.5,15.36-29.5,15.36s-2.38,74.33.66,98.82C335.07,595,357.06,673.73,357.06,673.73Z"/><path class="cls-3" d="M363,654.4c-13.78,1.84-21,9.38-21.73,20.22,0,0,1.64,51.67,3.83,71.64,3.51,32,18.33,92.58,28.36,123.39,2.19,6.74,7.68,27.26,7.68,27.26,1.72,6.1,8.18,10,14.89,8.91h0c6.59-1,11.28-6.49,10.9-12.67,0,0-1.89-24.23-2-32.33-.37-29.34,3.17-88.15.22-117.37-1.77-17.59-12.55-70.84-12.55-70.84-3.78-17.46-17.74-19.4-29.61-18.21Z"/><path class="cls-4" d="M392.92,889.3h0a16.19,16.19,0,0,0-14.16,8.43h0c-5.9,11.4-30.69,26.6-30.69,26.6a13.51,13.51,0,0,0-5.62,13.52h0l60.27,0,3.39-.93a8,8,0,0,0,6.06-8.29l-3.32-27.75C407.16,894,400.51,889.17,392.92,889.3Z"/><path class="cls-5" d="M344.18,937.58h0c-.8-4.59,2.61-8.89,7.58-9.56l35.86-4.85a9,9,0,0,1,10.05,6.31l2,7.88Z"/><path class="cls-6" d="M432.17,432c16.16,4.29,23.2,7.9,27.05,13.59,3.11,4.6,6,15.16,6.27,20.42.54,12.36-7.77,43.43-21.93,53.8-14.4,10.54-84.8,10.54-99.2,0-14.16-10.37-22.47-41.44-21.93-53.8.23-5.26,3.16-15.82,6.27-20.42,3.85-5.69,10.89-9.3,27.05-13.59,18.49-4.9,37.29-4.13,37.29-4.13S413.68,427.05,432.17,432Z"/><path class="cls-7" d="M641.06,494.39c12.63,4.18,20,16.35,17.24,28.51h0c-2.64,11.61-13.77,19.89-26.58,19.75,0,0-90.7-3.86-122.22-9.46C501.72,531.8,429.8,510,429.8,510s-22.41-2.71-20.67-33c1.55-27,19.38-25.69,19.38-25.69s79.15,4.86,105.17,10.06C557.67,466.17,641.06,494.39,641.06,494.39Z"/><path class="cls-3" d="M656.86,514.47c6.12,10,3.65,19.19-5.31,26.12,0,0-40,35.35-58.45,45.82C563.47,603.19,497.23,624,465,635.86c-7.06,2.59-27.85,11.26-27.85,11.26-6.24,2.51-13.2.63-16-4.35h0c-2.78-4.88-.69-11.17,4.85-14.6,0,0,22-13.21,29.05-18,25.57-17.23,74.41-54.54,101.31-70,16.19-9.32,68.24-34,68.24-34,17.21-7.94,26.69-.05,32.3,8.34Z"/><path class="cls-3" d="M447.49,639.11c-33.88,2.93-34.14,49.27-34.14,49.27-2.87,4.47-30.27-58.94-26.21-59.07,0,0,51.77-4.85,64.53-8.72C460.65,617.87,467.38,637.38,447.49,639.11Z"/><path class="cls-4" d="M434.55,635.58c3,5.6,7.52,4.63,10.38,6.66,1.72,1.23,4.17,6.84,2.34,7.93-21.1,12.51-27.21,60.38-27.21,60.38-3.1,5.38-8.18,7.11-13.8,6.84h0s-14.92-39.09-7.39-62.4c1.51-4.67-4.19-7.9-4.19-7.9S388.1,627,395,627.3l42-7.41C444.57,620.59,429.44,626,434.55,635.58Z"/><path class="cls-8" d="M412.5,719.79c9-.3,14-5.66,13.55-7.23-.64-2.26-3.21-5.69-3.95-7.92-1.19-3.55-1.77-14.68-1.77-14.68-.08-2.87-3.46-4.83-7.78-4.54l-8.59.84s-.06,6.84,4.73,22.44C409.49,711.29,412.5,719.79,412.5,719.79Z"/><polygon class="cls-9" points="314.56 487.89 316.06 467.05 471.06 467.05 473.06 485.11 314.56 487.89"/><path class="cls-10" d="M375.86,906.46s4.76-3.09,8.93-3.06a22.54,22.54,0,0,1,9.94,2.92"/><path class="cls-11" d="M445.48,662.86s-2.71-4.44-3.3-8"/><path class="cls-11" d="M441.28,668.65s-3-4.26-3.84-7.81"/><polygon class="cls-12" points="407.68 523.59 402.68 486.55 417.68 486.55 416.68 516.44 407.68 523.59"/><path class="cls-2" d="M316.06,467.05s58-10,148.54-13.18C534.27,451.44,644.26,486,653.45,497s15.83,36.25,6.78,41c-30.3,15.83-72.93,71-99.66,82.37-65.85,27.9-79.45,9.72-87.51,12.63s-12.63,4.66-12.63,4.66l-16.7-20.26s16.8-9.46,16.7-10.86c-.06-.87,13.39-22.4,29.79-44.2,9.66-12.84,27.12-19.65,37.24-19.65,0,0-60,30.08-135.61-9.59C352.18,512.26,316.06,467.05,316.06,467.05Z"/><path class="cls-2" d="M319.29,458.26c-1.27,2.12-9.62,65.94-10.54,111.93S288,778.85,314,808.66s59.14,61,59.14,61l4.21,18.23C386,884.46,407.1,882,407.1,882l-1.81-14.43c4.65-7.24,29.93-67.4,25.09-97.21s-16-16.28-23.28-53.28-4.67-89.3-4.67-89.3c17.45-23.11,16.09-61,24.66-80.57s1.07-91.65-7-91.11S326.15,446.84,319.29,458.26Z"/><path class="cls-2" d="M319.13,502.84c-1.35-2.12-4.57-14.95-4.57-14.95s-.75-23.8,4.57-36.58,38.76-26.18,83.3-23.53,54.09,11.81,61.63,20.73.5,19.16-1.51,20.09S322,515.7,319.13,505.07"/></svg>