<svg id="Calque_1" data-name="Calque 1" xmlns="http://www.w3.org/2000/svg" viewBox="0 0 788 1005"><defs><style>.cls-1{fill:#614652;}.cls-2{fill:#36344d;}.cls-3{fill:#1a1818;}.cls-4{fill:none;}</style></defs><path class="cls-1" d="M307.12,681.5c1.18,12.37,12,22,25.44,22.63h0c12.8.58,24.25-7.31,27.34-18.83,0,0,18.85-82.26,21-111.92.49-7-.82-28.12-.82-28.12l-3.29-49.14s-3-23.21-29.27-26.86c-30.3-4.19-31.73,10.9-31.73,10.9s-7.89,75.85-9,100.49C305.68,603.35,307.12,681.5,307.12,681.5Z"/><path class="cls-2" d="M331.31,665.47c-13.93-.17-22.34,6.22-24.88,16.82,0,0-7.1,51.28-8.31,71.32-1.93,32.12,2.48,94.1,7.19,126,1,7,3,28,3,28,.67,6.27,6.4,11,13.21,11h0c6.68-.07,12.23-4.78,12.9-10.94,0,0,2.23-24.2,3.49-32.21,4.58-29,18-86.62,20-115.9,1.22-17.63-.44-71.79-.44-71.79-.79-17.8-14.25-21.73-26.17-22.27Z"/><path class="cls-2" d="M320.81,900.17h0a16.15,16.15,0,0,0-14.11,8.49h0c-5.85,11.43-30.56,26.74-30.56,26.74A13.51,13.51,0,0,0,270.59,949h0l60.27-.31,3.39-.95a7.94,7.94,0,0,0,6-8.31l-3.46-27.74C335.07,904.79,328.4,900,320.81,900.17Z"/><path class="cls-2" d="M272.33,948.67h0c-.83-4.59,2.56-8.91,7.52-9.6l35.84-5a9,9,0,0,1,10.07,6.27l2.07,7.87Z"/><path class="cls-1" d="M470.2,681.5c-1.18,12.37-12,22-25.44,22.63h0c-12.8.58-24.25-7.31-27.34-18.83,0,0-18.85-82.26-20.95-111.92-.51-7.32,4.11-77.26,4.11-77.26s-2.84-20.77,29.27-26.86c28.6-5.42,31.73,10.9,31.73,10.9s7.89,77.7,9,102.34C471.64,605.2,470.2,681.5,470.2,681.5Z"/><path class="cls-2" d="M447.12,665.47c12.43-.17,19.94,6.22,22.21,16.82,0,0,14.38,49.43,15.45,69.46,1.73,32.13-10.25,96-14.45,127.84-.92,7-2.67,28-2.67,28a11.89,11.89,0,0,1-11.79,11h0a11.88,11.88,0,0,1-11.52-10.94s-2-24.2-3.12-32.21c-4.09-29-16.08-86.62-17.88-115.9-1.09-17.63.4-71.79.4-71.79.7-17.8,12.72-21.73,23.37-22.27Z"/><path class="cls-2" d="M470.12,896.62c-1.21,31.5,40.06,35.54,40.06,35.54,4.42,3.21-67,20.22-66.62,16.48,0,0,1.46-48.17-1-60.39C440.76,879.65,470.83,878.13,470.12,896.62Z"/><path class="cls-2" d="M457.26,914.08c6.38-2,5.92-6.31,8.46-8.67,1.54-1.43,7.87-3,8.8-1.14,10.68,21,61.16,32.76,61.16,32.76,5.35,3.54,6.56,8.43,5.55,13.54h0s-43.78,8.68-67.77-1.23c-4.81-2-9,2.84-9,2.84s-22.42,3.45-21.15-2.84l-2.54-39.55C442.5,903,446.3,917.54,457.26,914.08Z"/><path class="cls-2" d="M541.74,951c.85-8.34-4.26-13.57-6-13.37-2.5.29-6.5,2.21-9,2.61-4,.64-15.95-.27-15.95-.27-3.08-.29-5.62,2.56-5.86,6.57l-.2,8s7.32.93,24.63-1.47C532.26,952.66,541.74,951,541.74,951Z"/><path class="cls-2" d="M311.64,480.36l-2.17,19.08L296.55,640.67l-6.81,242.74c-.32,11.51,5.82,22.35,16.22,28.65l3.27,2,16.36-1c19.84-1.19,35.77-15.59,37.52-33.93,3.64-38,9.46-99,11.31-119.9,1.62-18.18.3-59.4,3.12-77.46,4.09-26.29,12.84-106.33,12.84-106.33l1.76-95.9Z"/><path class="cls-2" d="M383.1,489.4,384.74,578,404.3,728.67l17.45,153.68,2.19,7c4.6,14.79,19.89,24.47,36.43,23.07l2.47-.21c16.56-1.4,30.24-12.57,33.8-27.62l1.11-4.65-8.28-137.29L465.18,499.45l-75.86-9.64Z"/><path class="cls-2" d="M303.84,917.41s4.74-3.11,8.91-3.11a22.49,22.49,0,0,1,10,2.89"/><path class="cls-2" d="M485,913.39a33.78,33.78,0,0,1-9,2"/><path class="cls-2" d="M490.69,918a33.22,33.22,0,0,1-8.87,2.53"/><polygon class="cls-3" points="224.88 524.82 224.78 524.86 224.78 524.77 224.88 524.82"/><polygon points="224.98 524.77 224.98 524.86 224.88 524.82 224.98 524.77"/><polygon class="cls-3" points="224.88 524.82 224.78 524.86 224.78 524.77 224.88 524.82"/><polygon points="224.98 524.77 224.98 524.86 224.88 524.82 224.98 524.77"/><path class="cls-4" d="M428.87,443.3c16.16,4.84,23.2,8.92,27.05,15.34,3.11,5.2,6,17.12,6.27,23.06.54,13.95-7.77,49-21.93,60.73-14.4,11.91-84.8,11.91-99.2,0-14.16-11.7-22.47-46.78-21.93-60.73.23-5.94,3.16-17.86,6.27-23.06,3.85-6.42,10.89-10.5,27.05-15.34,18.49-5.54,37.29-4.66,37.29-4.66S410.38,437.76,428.87,443.3Z"/><polygon class="cls-2" points="462.21 468.16 312.26 468.53 310.61 489.39 466.15 509.11 462.21 468.16"/></svg>