<svg id="Calque_1" data-name="Calque 1" xmlns="http://www.w3.org/2000/svg" viewBox="0 0 388 507.74"><defs><style>.cls-1{fill:#87b6c7;}.cls-2{fill:#6c9aab;}.cls-3{fill:#d79072;}.cls-4{fill:#699aab;}.cls-5,.cls-6{fill:none;stroke-linecap:round;stroke-miterlimit:10;stroke-width:2px;}.cls-5{stroke:#699aab;}.cls-6{stroke:#669aab;}.cls-7{fill:#614652;}</style></defs><path class="cls-1" d="M123.79,431.92h0a16.15,16.15,0,0,0-14.11,8.49h0c-5.85,11.43-30.56,26.74-30.56,26.74a13.49,13.49,0,0,0-5.55,13.54h0l60.27-.3,3.39-.95a7.94,7.94,0,0,0,6-8.31l-3.46-27.74C138.05,436.54,131.38,431.76,123.79,431.92Z"/><path class="cls-2" d="M75.31,480.42h0c-.83-4.59,2.56-8.91,7.52-9.6l35.84-5a9,9,0,0,1,10.07,6.27l2.07,7.87Z"/><path class="cls-3" d="M273.1,428.37c-1.21,31.49,40.06,35.54,40.06,35.54,4.42,3.21-67,20.22-66.62,16.48,0,0,1.46-48.18-1-60.39C243.74,411.4,273.81,409.87,273.1,428.37Z"/><path class="cls-1" d="M260.24,445.82c6.38-2,5.92-6.31,8.46-8.67,1.54-1.42,7.87-2.95,8.8-1.13,10.68,21,61.16,32.76,61.16,32.76,5.35,3.53,6.56,8.42,5.55,13.54h0s-43.78,8.68-67.77-1.23c-4.81-2-9,2.83-9,2.83s-22.42,3.46-21.15-2.83l-2.54-39.55C245.48,434.7,249.28,449.29,260.24,445.82Z"/><path class="cls-4" d="M344.72,482.74c.85-8.34-4.26-13.58-6-13.37-2.5.29-6.5,2.21-9,2.61-4,.63-15.95-.27-15.95-.27-3.08-.29-5.62,2.56-5.86,6.57l-.2,8s7.32.92,24.63-1.47C335.24,484.41,344.72,482.74,344.72,482.74Z"/><path class="cls-5" d="M106.82,449.16s4.74-3.12,8.91-3.11a22.49,22.49,0,0,1,10,2.89"/><path class="cls-6" d="M288,445.13a33.51,33.51,0,0,1-9,2"/><path class="cls-6" d="M293.67,449.73a33.22,33.22,0,0,1-8.87,2.53"/><path class="cls-7" d="M126.93,11.8l-4.34-.71L93.15,446.44l21-.85,44.77.85h0s16.81-142.86,19.62-160.92C182.64,259.22,195.3,107,195.3,107l1.77-95.9Z"/><polygon class="cls-7" points="188.54 11.88 190.18 109.7 212.42 263.65 232.2 421.5 233.31 450.32 305.56 439.36 305.56 439.36 287.92 249.44 263.63 9.89 179.44 11.27 188.54 11.88"/></svg>