<svg id="Calque_1" data-name="Calque 1" xmlns="http://www.w3.org/2000/svg" viewBox="0 0 388 507.74"><defs><style>.cls-1{fill:#d79072;}.cls-2{fill:#352b28;}.cls-3{fill:#215372;}.cls-4{fill:#547687;}</style></defs><path class="cls-1" d="M136.75,197.22c-13.92-.18-22.33,6.22-24.87,16.82,0,0-7.11,51.28-8.31,71.31-1.93,32.13,2.48,94.11,7.19,126,1,7,3,28,3,28,.66,6.27,6.4,11,13.2,11h0c6.68-.08,12.24-4.78,12.9-10.94,0,0,2.23-24.21,3.5-32.22,4.58-29,18-86.61,20-115.89,1.22-17.63-.44-71.79-.44-71.79-.8-17.8-14.26-21.73-26.18-22.27Z"/><path class="cls-2" d="M77.77,480.42h0c-.82-4.59,2.56-8.91,7.52-9.6l35.85-5a9,9,0,0,1,10.07,6.27l2.06,7.87Z"/><path class="cls-1" d="M252.56,197.22C265,197,272.5,203.44,274.78,214c0,0,14.38,49.42,15.45,69.46,1.72,32.13-10.25,96-14.46,127.84-.92,7-2.66,28-2.66,28a11.89,11.89,0,0,1-11.8,11h0a11.89,11.89,0,0,1-11.51-10.94s-2-24.21-3.12-32.22c-4.1-29-16.08-86.61-17.88-115.89-1.09-17.63.39-71.79.39-71.79.71-17.8,12.73-21.73,23.37-22.27Z"/><path class="cls-2" d="M275.28,424.27c-3.55,31.35,37.31,38,37.31,38,4.18,3.49-68.35,15.88-67.69,12.18,0,0,5-48,3.47-60.31C247.26,405.47,277.37,405.87,275.28,424.27Z"/><path class="cls-2" d="M342.68,483.09c1.46-8.26-3.24-13.81-5-13.71-2.51.13-6.65,1.78-9.16,2-4,.38-15.89-1.28-15.89-1.28-3.05-.49-5.8,2.19-6.34,6.17l-.8,8s7.24,1.39,24.69.11C333.09,484.16,342.68,483.09,342.68,483.09Z"/><polygon class="cls-3" points="117.08 12.1 114.92 31.19 89.67 219.74 179.98 225.56 195.82 107.19 197.55 13.74 117.08 12.1"/><polygon class="cls-3" points="188.54 21.14 190.43 109.7 208.32 228 308.55 228.13 274.87 19.16 195.7 21.56 188.54 21.14"/><polygon class="cls-3" points="114.92 31.19 117.21 11.58 273.81 11.58 276.56 29.62 114.92 31.19"/><polygon class="cls-4" points="153.42 363.17 139.28 441.91 113.75 439.37 105.46 360.06 153.42 363.17"/><polygon class="cls-4" points="236.19 350.25 247.54 442.93 272.87 441.48 285.61 349.64 236.19 350.25"/><path class="cls-2" d="M126.26,431.92h0a16.16,16.16,0,0,0-14.12,8.49h0c-5.84,11.43-30.55,26.74-30.55,26.74A13.49,13.49,0,0,0,76,480.69h0l60.27-.3,3.39-.95a8,8,0,0,0,6-8.31l-3.46-27.74C140.52,436.54,133.85,431.76,126.26,431.92Z"/><path class="cls-2" d="M261.14,441c6.51-1.63,6.38-6,9.1-8.24,1.64-1.34,8.07-2.48,8.86-.58,9.06,21.93,58.53,37.08,58.53,37.08,5.08,3.92,5.91,9,4.51,14.06h0s-44.33,6-67.51-5.58c-4.65-2.32-9.19,2.29-9.19,2.29s-22.63,2.06-20.89-4.22l.46-40.2C247.26,428.81,249.94,443.82,261.14,441Z"/><polygon points="29.24 79.08 29.34 79.05 29.24 79 29.24 79.08"/><polygon points="29.34 79.05 29.44 79.08 29.44 79 29.34 79.05"/><polygon points="29.24 79.08 29.34 79.05 29.24 79 29.24 79.08"/><polygon points="29.34 79.05 29.44 79.08 29.44 79 29.34 79.05"/></svg>