<svg id="Calque_1" data-name="Calque 1" xmlns="http://www.w3.org/2000/svg" viewBox="0 0 388 507.74"><defs><style>.cls-1{fill:#1a1818;}.cls-2{fill:#44394b;}.cls-3{fill:#61565a;}</style></defs><polygon class="cls-1" points="30.32 71.41 30.22 71.45 30.22 71.37 30.32 71.41"/><polygon points="30.42 71.37 30.42 71.45 30.32 71.41 30.42 71.37"/><polygon class="cls-1" points="30.32 71.41 30.22 71.45 30.22 71.37 30.32 71.41"/><polygon points="30.42 71.37 30.42 71.45 30.32 71.41 30.42 71.37"/><polygon points="27.91 93.06 28.01 93.02 27.91 92.97 27.91 93.06"/><polygon points="28.01 93.02 28.11 93.06 28.11 92.97 28.01 93.02"/><polygon points="27.91 93.06 28.01 93.02 27.91 92.97 27.91 93.06"/><polygon points="28.01 93.02 28.11 93.06 28.11 92.97 28.01 93.02"/><path class="cls-2" d="M126.26,446.77h0a16.15,16.15,0,0,0-14.12,8.48h0C106.3,466.68,81.59,482,81.59,482A13.51,13.51,0,0,0,76,495.54h0l60.27-.31,3.39-1a7.94,7.94,0,0,0,6-8.31l-3.46-27.74C140.52,451.39,133.85,446.6,126.26,446.77Z"/><path class="cls-2" d="M77.77,495.26h0c-.82-4.58,2.56-8.9,7.52-9.6l35.85-5a9,9,0,0,1,10.07,6.27l2.06,7.88Z"/><path class="cls-2" d="M275.57,443.21c-1.21,31.5,40.05,35.54,40.05,35.54,4.43,3.21-67,20.22-66.61,16.48,0,0,1.45-48.17-1-60.39C246.21,426.25,276.28,424.72,275.57,443.21Z"/><path class="cls-2" d="M264.22,460.67c6.38-2,5.93-6.31,8.47-8.67,1.53-1.43,7.86-3,8.79-1.13,10.68,21,61.16,32.75,61.16,32.75,5.36,3.54,6.56,8.43,5.55,13.55h0s-26.55,12.5-66,3.51c-5.11-1.16-10.76-1.91-10.76-1.91s-25.39,3.05-24.13-3.23l.44-39.15C249.46,449.54,253.27,464.13,264.22,460.67Z"/><path class="cls-2" d="M347.19,497.58c.85-8.34-4.26-13.57-6-13.37-2.5.3-6.51,2.21-9,2.61-4,.64-13.36,2.55-13.36,2.55-3.07-.3-5.62,2.55-5.86,6.56l-.2,8s3.14.07,20.46-2.33C336.13,501.21,347.19,497.58,347.19,497.58Z"/><path class="cls-3" d="M126.93,26.64l-4.34-.71L77.65,428.7l36.5,31.73,28.1-2.2,19.1-17.5s14.38-122.31,17.19-140.37c4.1-26.29,16.76-178.52,16.76-178.52l1.77-95.91Z"/><polygon class="cls-3" points="188.54 26.72 190.18 124.54 212.42 278.5 232.2 436.35 247.26 464.05 281.86 461.29 321.27 428.7 263.63 24.73 179.44 26.11 188.54 26.72"/></svg>