<svg id="Calque_1" data-name="Calque 1" xmlns="http://www.w3.org/2000/svg" viewBox="0 0 388 507.74"><defs><style>.cls-1{fill:#614652;}.cls-2{fill:#36344d;}.cls-3{fill:#1a1818;}.cls-4{fill:none;}</style></defs><path class="cls-1" d="M107.12,224.05c1.18,12.38,12,22,25.44,22.64h0c12.8.57,24.25-7.32,27.34-18.84,0,0,18.85-82.25,20.95-111.91.49-7-.82-28.12-.82-28.12l-3.29-49.15s-3-23.21-29.27-26.85c-30.3-4.2-31.73,10.89-31.73,10.89s-7.89,75.86-9,100.49C105.68,145.9,107.12,224.05,107.12,224.05Z"/><path class="cls-2" d="M131.31,208c-13.93-.18-22.34,6.22-24.88,16.82,0,0-7.1,51.28-8.31,71.31-1.93,32.13,2.48,94.11,7.19,126,1,7,3,28,3,28,.67,6.27,6.4,11,13.21,11h0c6.68-.08,12.23-4.78,12.9-10.94,0,0,2.23-24.21,3.49-32.22,4.58-29,18-86.61,20-115.89,1.22-17.63-.44-71.79-.44-71.79-.79-17.8-14.25-21.73-26.17-22.27Z"/><path class="cls-2" d="M120.81,442.73h0a16.13,16.13,0,0,0-14.11,8.49h0C100.85,462.65,76.14,478,76.14,478a13.49,13.49,0,0,0-5.55,13.54h0l60.27-.3,3.39-1a7.92,7.92,0,0,0,6-8.3l-3.46-27.75C135.07,447.35,128.4,442.57,120.81,442.73Z"/><path class="cls-2" d="M72.33,491.22h0c-.83-4.58,2.56-8.9,7.52-9.59l35.84-5a9,9,0,0,1,10.07,6.27l2.07,7.87Z"/><path class="cls-1" d="M270.2,224.05c-1.18,12.38-12,22-25.44,22.64h0c-12.8.57-24.25-7.32-27.34-18.84,0,0-18.85-82.25-20.95-111.91-.51-7.32,4.11-77.27,4.11-77.27s-2.84-20.76,29.27-26.85c28.6-5.43,31.73,10.89,31.73,10.89s7.89,77.71,9,102.34C271.64,147.76,270.2,224.05,270.2,224.05Z"/><path class="cls-2" d="M247.12,208c12.43-.18,19.94,6.22,22.21,16.82,0,0,14.38,49.42,15.45,69.46,1.73,32.13-10.25,96-14.45,127.84-.92,7-2.67,28-2.67,28a11.89,11.89,0,0,1-11.79,11h0a11.89,11.89,0,0,1-11.52-10.94s-2-24.21-3.12-32.22c-4.09-29-16.08-86.61-17.88-115.89-1.09-17.63.4-71.79.4-71.79.7-17.8,12.72-21.73,23.37-22.27Z"/><path class="cls-2" d="M270.12,439.18c-1.21,31.49,40.06,35.54,40.06,35.54,4.42,3.21-67,20.22-66.62,16.48,0,0,1.46-48.18-1-60.39C240.76,422.21,270.83,420.68,270.12,439.18Z"/><path class="cls-2" d="M257.26,456.63c6.38-2,5.92-6.31,8.46-8.67,1.54-1.43,7.87-2.95,8.8-1.13,10.68,21,61.16,32.76,61.16,32.76,5.35,3.53,6.56,8.42,5.55,13.54h0s-43.78,8.68-67.77-1.23c-4.81-2-9,2.83-9,2.83s-22.42,3.46-21.15-2.83l-2.54-39.55C242.5,445.51,246.3,460.1,257.26,456.63Z"/><path class="cls-2" d="M341.74,493.54c.85-8.34-4.26-13.57-6-13.36-2.5.29-6.5,2.21-9,2.61-4,.63-15.95-.27-15.95-.27-3.08-.29-5.62,2.56-5.86,6.57l-.2,8s7.32.92,24.63-1.47C332.26,495.22,341.74,493.54,341.74,493.54Z"/><path class="cls-2" d="M111.64,22.91,109.47,42,96.55,183.23,89.74,426c-.32,11.51,5.82,22.35,16.22,28.65l3.27,2,16.36-1c19.84-1.19,35.77-15.6,37.52-33.93,3.64-38,9.46-98.95,11.31-119.9,1.62-18.18.3-59.4,3.12-77.46C181.63,198,190.38,118,190.38,118l1.76-95.9Z"/><path class="cls-2" d="M183.1,32l1.64,88.55L204.3,271.23,221.75,424.9l2.19,7.05c4.6,14.78,19.89,24.46,36.43,23.07l2.47-.21c16.56-1.4,30.24-12.57,33.8-27.62l1.11-4.65-8.28-137.29L265.18,42l-75.86-9.63Z"/><path class="cls-2" d="M103.84,460s4.74-3.12,8.91-3.11a22.55,22.55,0,0,1,10,2.88"/><path class="cls-2" d="M285,455.94a33.63,33.63,0,0,1-9,2"/><path class="cls-2" d="M290.69,460.54a33.22,33.22,0,0,1-8.87,2.53"/><polygon class="cls-3" points="24.88 67.38 24.78 67.42 24.78 67.33 24.88 67.38"/><polygon points="24.98 67.33 24.98 67.42 24.88 67.38 24.98 67.33"/><polygon class="cls-3" points="24.88 67.38 24.78 67.42 24.78 67.33 24.88 67.38"/><polygon points="24.98 67.33 24.98 67.42 24.88 67.38 24.98 67.33"/><path class="cls-4" d="M228.87-14.14c16.16,4.83,23.2,8.91,27,15.34,3.11,5.2,6,17.11,6.27,23.05.54,14-7.77,49-21.93,60.74-14.4,11.91-84.8,11.91-99.2,0-14.16-11.7-22.47-46.78-21.93-60.74.23-5.94,3.16-17.85,6.27-23,3.85-6.43,10.89-10.51,27-15.34,18.49-5.54,37.29-4.66,37.29-4.66S210.38-19.68,228.87-14.14Z"/><polygon class="cls-2" points="262.21 10.72 112.26 11.08 110.61 31.95 266.15 51.67 262.21 10.72"/></svg>