<svg id="Calque_1" data-name="Calque 1" xmlns="http://www.w3.org/2000/svg" viewBox="0 0 388 507.74"><defs><style>.cls-1{fill:#d79072;}.cls-2{fill:#87b6c7;}.cls-3{fill:#6c9aab;}.cls-4{fill:#699aab;}.cls-5,.cls-6{fill:none;stroke-linecap:round;stroke-miterlimit:10;stroke-width:2px;}.cls-5{stroke:#699aab;}.cls-6{stroke:#669aab;}.cls-7{fill:#614652;}</style></defs><path class="cls-1" d="M136.75,212.06c-13.92-.17-22.33,6.22-24.87,16.83,0,0-7.11,51.27-8.31,71.31-1.93,32.13,2.48,94.1,7.19,126,1,7,3,28,3,28,.66,6.28,6.4,11,13.2,11h0c6.68-.07,12.24-4.78,12.9-10.93,0,0,2.23-24.21,3.5-32.22,4.58-29,18-86.62,20-115.9,1.22-17.63-.44-71.79-.44-71.79-.8-17.79-14.26-21.73-26.18-22.27Z"/><path class="cls-2" d="M126.26,446.77h0a16.15,16.15,0,0,0-14.12,8.48h0C106.3,466.68,81.59,482,81.59,482A13.51,13.51,0,0,0,76,495.54h0l60.27-.31,3.39-1a7.94,7.94,0,0,0,6-8.31l-3.46-27.74C140.52,451.39,133.85,446.6,126.26,446.77Z"/><path class="cls-3" d="M77.77,495.26h0c-.82-4.58,2.56-8.9,7.52-9.6l35.85-5a9,9,0,0,1,10.07,6.27l2.06,7.88Z"/><path class="cls-1" d="M252.56,212.06c12.44-.17,19.94,6.22,22.22,16.83,0,0,14.38,49.42,15.45,69.46C292,330.47,280,394.3,275.77,426.18c-.92,7-2.66,28-2.66,28a11.88,11.88,0,0,1-11.8,11h0a11.88,11.88,0,0,1-11.51-10.93s-2-24.21-3.12-32.22c-4.1-29-16.08-86.62-17.88-115.9-1.09-17.63.39-71.79.39-71.79.71-17.79,12.73-21.73,23.37-22.27Z"/><path class="cls-1" d="M275.57,443.21c-1.21,31.5,40.05,35.54,40.05,35.54,4.43,3.21-67,20.22-66.61,16.48,0,0,1.45-48.17-1-60.39C246.21,426.25,276.28,424.72,275.57,443.21Z"/><path class="cls-2" d="M262.7,460.67c6.38-2,5.93-6.31,8.47-8.67,1.54-1.43,7.87-3,8.79-1.13,10.69,21,61.16,32.75,61.16,32.75,5.36,3.54,6.57,8.43,5.55,13.55h0s-43.77,8.67-67.77-1.23c-4.8-2-9,2.83-9,2.83s-22.42,3.45-21.15-2.84l-2.54-39.54C248,449.54,251.75,464.13,262.7,460.67Z"/><path class="cls-4" d="M347.19,497.58c.85-8.34-4.26-13.57-6-13.37-2.5.3-6.51,2.21-9,2.61-4,.64-16-.26-16-.26-3.07-.3-5.61,2.55-5.86,6.56l-.2,8s7.32.93,24.64-1.47C337.71,499.26,347.19,497.58,347.19,497.58Z"/><path class="cls-5" d="M109.29,464s4.74-3.11,8.91-3.1a22.46,22.46,0,0,1,10,2.88"/><path class="cls-6" d="M290.47,460a33.67,33.67,0,0,1-9,2"/><path class="cls-6" d="M296.13,464.57a33.09,33.09,0,0,1-8.86,2.53"/><path class="cls-7" d="M126.93,26.64l-4.34-.71L93.15,461.29l21-.86,44.77.86h0s16.81-142.87,19.62-160.93c4.1-26.29,16.76-178.52,16.76-178.52l1.77-95.91Z"/><polygon class="cls-7" points="188.54 26.72 190.18 124.54 212.42 278.5 232.2 436.35 233.31 465.16 305.56 454.2 305.56 454.2 287.92 264.28 263.63 24.73 179.44 26.11 188.54 26.72"/></svg>