<svg id="Calque_1" data-name="Calque 1" xmlns="http://www.w3.org/2000/svg" viewBox="0 0 788 1005"><defs><style>.cls-1{fill:#d79072;}.cls-2{fill:#352b28;}.cls-3{fill:#215372;}.cls-4{fill:#547687;}</style></defs><path class="cls-1" d="M336.75,654.66c-13.92-.17-22.33,6.22-24.87,16.82,0,0-7.11,51.28-8.31,71.32-1.93,32.13,2.48,94.1,7.19,126,1,7,3,28,3,28,.66,6.28,6.4,11,13.2,11h0c6.68-.07,12.24-4.78,12.9-10.93,0,0,2.23-24.21,3.5-32.22,4.58-29,18-86.62,20-115.9,1.22-17.63-.44-71.79-.44-71.79-.8-17.79-14.26-21.73-26.18-22.27Z"/><path class="cls-2" d="M277.77,937.86h0c-.82-4.58,2.56-8.9,7.52-9.6l35.85-5a9,9,0,0,1,10.07,6.27l2.06,7.88Z"/><path class="cls-1" d="M452.56,654.66c12.44-.17,19.94,6.22,22.22,16.82,0,0,14.38,49.43,15.45,69.47C492,773.07,480,836.9,475.77,868.78c-.92,7-2.66,28-2.66,28a11.88,11.88,0,0,1-11.8,11h0a11.88,11.88,0,0,1-11.51-10.93s-2-24.21-3.12-32.22c-4.1-29-16.08-86.62-17.88-115.9-1.09-17.63.39-71.79.39-71.79.71-17.79,12.73-21.73,23.37-22.27Z"/><path class="cls-2" d="M475.28,881.72c-3.55,31.34,37.31,38,37.31,38,4.18,3.49-68.35,15.89-67.69,12.18,0,0,5.05-48,3.47-60.31C447.26,862.91,477.37,863.31,475.28,881.72Z"/><path class="cls-2" d="M542.68,940.54c1.46-8.27-3.24-13.81-5-13.72-2.51.13-6.65,1.79-9.16,2-4,.38-15.89-1.29-15.89-1.29-3.05-.49-5.8,2.19-6.34,6.18l-.8,8s7.24,1.4,24.69.12C533.09,941.6,542.68,940.54,542.68,940.54Z"/><polygon class="cls-3" points="317.08 469.55 314.92 488.63 289.67 677.19 379.98 683 395.82 564.63 397.55 471.19 317.08 469.55"/><polygon class="cls-3" points="388.55 478.59 390.43 567.14 408.32 685.45 508.55 685.58 474.87 476.6 395.7 479 388.55 478.59"/><polygon class="cls-3" points="314.92 488.63 317.21 469.03 473.81 469.03 476.56 487.06 314.92 488.63"/><polygon class="cls-4" points="353.42 820.62 339.28 899.35 313.75 896.81 305.46 817.51 353.42 820.62"/><polygon class="cls-4" points="436.19 807.69 447.54 900.37 472.87 898.92 485.61 807.08 436.19 807.69"/><path class="cls-2" d="M326.26,889.37h0a16.15,16.15,0,0,0-14.12,8.48h0c-5.84,11.43-30.55,26.74-30.55,26.74A13.51,13.51,0,0,0,276,938.14h0l60.27-.31,3.39-1a7.94,7.94,0,0,0,6-8.31l-3.46-27.74C340.52,894,333.85,889.2,326.26,889.37Z"/><path class="cls-2" d="M461.14,898.46c6.51-1.63,6.38-6,9.1-8.23,1.64-1.35,8.07-2.49,8.86-.58,9.06,21.92,58.53,37.07,58.53,37.07,5.08,3.92,5.91,8.95,4.51,14.07h0s-44.33,6-67.51-5.59c-4.65-2.32-9.19,2.29-9.19,2.29s-22.63,2.06-20.89-4.22l.46-40.2C447.26,886.26,449.94,901.27,461.14,898.46Z"/><polygon points="229.24 536.53 229.34 536.49 229.24 536.44 229.24 536.53"/><polygon points="229.34 536.49 229.44 536.53 229.44 536.44 229.34 536.49"/><polygon points="229.24 536.53 229.34 536.49 229.24 536.44 229.24 536.53"/><polygon points="229.34 536.49 229.44 536.53 229.44 536.44 229.34 536.49"/></svg>