<svg xmlns="http://www.w3.org/2000/svg" viewBox="0 0 388 507.74"><defs><style>.cls-1{fill:#465260;}.cls-2{fill:#d79072;}.cls-3{fill:#87b6c7;}.cls-4{fill:#6c9aab;}.cls-5{fill:#699aab;}.cls-6{fill:none;stroke:#699aab;stroke-linecap:round;stroke-miterlimit:10;stroke-width:2px;}</style></defs><g id="Calque_1" data-name="Calque 1"><polygon class="cls-1" points="104.64 291.39 82.05 277.19 82.05 182.06 115.35 132.94 104.64 291.39"/><polygon class="cls-1" points="180.46 203.81 157.87 189.61 157.87 94.48 191.18 45.36 180.46 203.81"/><polygon class="cls-1" points="281.11 284.86 303.7 270.65 303.7 175.53 270.39 126.4 281.11 284.86"/></g><g id="Calque_7" data-name="Calque 7"><polygon class="cls-2" points="138.14 463.87 111.44 458.49 111.44 415.88 138.14 424.47 138.14 463.87"/><path class="cls-3" d="M121.61,448h0a16.15,16.15,0,0,0-14.12,8.48h0c-5.85,11.43-30.55,26.74-30.55,26.74a13.47,13.47,0,0,0-5.55,13.55h0l60.27-.31,3.38-.95a7.92,7.92,0,0,0,6-8.31l-3.46-27.74C135.86,452.66,129.19,447.87,121.61,448Z"/><path class="cls-4" d="M73.12,496.53h0c-.83-4.58,2.56-8.9,7.52-9.6l35.84-5a9,9,0,0,1,10.08,6.27l2.06,7.88Z"/><path class="cls-2" d="M269,431.74C267.77,463.23,311,480,311,480c4.42,3.21-67,20.22-66.62,16.48,0,0,1.46-48.17-1-60.38C241.56,427.52,269,431.74,269,431.74Z"/><path class="cls-3" d="M258.05,461.94c6.38-2,5.93-6.31,8.47-8.67,1.53-1.43,7.86-3,8.79-1.13,10.68,21,61.16,32.75,61.16,32.75,5.36,3.54,6.56,8.43,5.55,13.55h0l-36.48,3.95s-28.74-3.61-61.44-5.18l.59-40.26C246.42,450.11,247.1,465.4,258.05,461.94Z"/><path class="cls-5" d="M342.54,498.85c.84-8.34-4.26-13.57-6-13.37-2.5.3-6.5,2.21-9,2.61-4,.64-15.95-.26-15.95-.26-3.07-.3-5.62,2.55-5.86,6.56l-.2,8s7.32.93,24.64-1.47C333.05,500.53,342.54,498.85,342.54,498.85Z"/><path class="cls-6" d="M104.64,465.27s4.73-3.11,8.9-3.1a22.55,22.55,0,0,1,10,2.88"/><path class="cls-1" d="M300.36,410.93l-31.05,27.41L243.24,440l-25.78-27.74-5-135.09-19.08-132.1c-3.72,43.67-11.71,135.43-14.8,155.3l-8.08,113.23L138.19,440l-26.75-1.65L91,408.29,122.59,25.93l4.34.71,30.94-.31,30.67-.95,23.29-1.14,51.79-.85,24.29,239.55Z"/></g></svg>