<?xml version="1.0" encoding="utf-8"?>
<!-- Generator: Adobe Illustrator 26.0.3, SVG Export Plug-In . SVG Version: 6.00 Build 0)  -->
<svg version="1.1" id="Calque_1" xmlns="http://www.w3.org/2000/svg" xmlns:xlink="http://www.w3.org/1999/xlink" x="0px" y="0px"
	 viewBox="0 0 260.5 240.1" style="enable-background:new 0 0 260.5 240.1;" xml:space="preserve">
<style type="text/css">
	.st0{fill:#BC3737;}
	.st1{clip-path:url(#SVGID_00000023244921909735013860000014056617189279752379_);}
	.st2{fill:#CCAA97;}
	.st3{clip-path:url(#SVGID_00000128475872873276030490000005051160394829270696_);}
	.st4{fill:#423522;}
	.st5{fill:#E0B9A0;}
	.st6{fill:#BF9079;}
</style>
<g>
	<polygon class="st0" points="236.8,98.8 194.7,73.3 243.3,81.2 	"/>
</g>
<g>
	<polygon class="st0" points="16.7,81 70.6,74.6 22.4,99.2 	"/>
</g>
<g>
	<g id="random">
		<g>
			<g>
				<g>
					<g>
						<defs>
							<polygon id="SVGID_1_" points="194.2,129 194.2,129 228.6,129 228.6,179.3 194.2,179.3 							"/>
						</defs>
						<clipPath id="SVGID_00000036943185427369088660000013546803660096770964_">
							<use xlink:href="#SVGID_1_"  style="overflow:visible;"/>
						</clipPath>
						<g style="clip-path:url(#SVGID_00000036943185427369088660000013546803660096770964_);">
							<path class="st2" d="M194.2,175.1l6.6-36.9c0,0,13.1-15.1,24.5-6.3c7.6,5.9,1.2,43.7-7.6,46.1
								C202.9,182.2,194.2,175.1,194.2,175.1z"/>
						</g>
					</g>
				</g>
			</g>
		</g>
	</g>
	<g id="random2">
		<g>
			<g>
				<g>
					<g>
						<defs>
							<polygon id="SVGID_00000042718388022760475540000014516420730904973193_" points="72.2,129 72.2,129 37.7,129 37.7,179.3 
								72.2,179.3 							"/>
						</defs>
						<clipPath id="SVGID_00000060740896465535632360000000779548235387084965_">
							<use xlink:href="#SVGID_00000042718388022760475540000014516420730904973193_"  style="overflow:visible;"/>
						</clipPath>
						<g style="clip-path:url(#SVGID_00000060740896465535632360000000779548235387084965_);">
							<path class="st2" d="M72.2,175.1l-6.6-36.9c0,0-13.1-15.1-24.5-6.3c-7.6,5.9-1.2,43.7,7.6,46.1
								C63.6,182.2,72.2,175.1,72.2,175.1z"/>
						</g>
					</g>
				</g>
			</g>
		</g>
	</g>
	<path class="st4" d="M50.8,122.2c0-46.7,36.7-84.6,82.1-84.6s82.1,37.9,82.1,84.6s-67.4,81.5-82.1,84.6
		C149.3,201.1,50.8,168.9,50.8,122.2z"/>
	<path class="st5" d="M137.1,41.8h-2.8c-41.1,0-70,26.3-70,67.5c0,0,0.8,33.8,2.9,48c1.7,11.4,4,24.4,18.1,43.9
		c8.2,11.4,33.7,22.3,48.4,23.8l0,0c14.7-1.5,42.7-12.9,50.9-24.3c14.2-19.6,16.5-32.5,18.1-43.9c2-14.3,2.9-48,2.9-48
		c0-41.1-28.9-67.5-70-67.5h-2.8"/>
	<path class="st6" d="M122.6,175.6c-0.9,0.1-1.3,0.6-0.6,0.9c2.8,1.1,7.9,3,11.4,3c3.2,0,8.2-1.9,10.8-3c0.7-0.3,0.4-0.8-0.6-0.9"/>
	<path class="st2" d="M59.8,106.7c0,0,0.6-66.5,71.9-66.5s74.2,69.3,74.2,69.3s-17.5,16.7-49.6-19.1c0.4,0.4-9.7,23.3-21.5,23.6
		c-11.8,0.4-22.7-26.2-22.7-26.2S87.3,114.3,59.8,106.7z"/>
	<g>
		<path class="st4" d="M58.7,107c0,0,2.1-67.8,73.4-67.8c73.8,0,77.5,70.2,77.5,70.2s-20.5,9.4-52.5-26.4
			c0.4,0.4-10.4,30.6-22.2,30.9S113,81.7,113,81.7S86.2,114.7,58.7,107z"/>
	</g>
</g>
<ellipse transform="matrix(0.8331 -0.5532 0.5532 0.8331 -16.1328 44.6157)" class="st4" cx="65.9" cy="49" rx="31.6" ry="27.2"/>
<ellipse transform="matrix(0.5532 -0.8331 0.8331 0.5532 49.1901 187.5897)" class="st4" cx="199.5" cy="47.9" rx="27" ry="33.1"/>
<g>
	<path class="st0" d="M96.9,47.2c-13.6,8.1-24.6,18.3-34,31C67.4,62.9,81.2,50.2,96.9,47.2L96.9,47.2z"/>
</g>
<g>
	<path class="st0" d="M168.4,46c15.7,3,29.5,15.7,34,31C193.2,64.4,182,54.2,168.4,46L168.4,46z"/>
</g>
<g>
	<polygon class="st0" points="34.5,106.4 63.3,77.3 50.6,116.3 	"/>
</g>
<g>
	<polygon class="st0" points="218.1,115.2 202.4,77 233.4,104.2 	"/>
</g>
</svg>
