<?xml version="1.0" encoding="utf-8"?>
<!-- Generator: Adobe Illustrator 26.0.3, SVG Export Plug-In . SVG Version: 6.00 Build 0)  -->
<svg version="1.1" id="Calque_1" xmlns="http://www.w3.org/2000/svg" xmlns:xlink="http://www.w3.org/1999/xlink" x="0px" y="0px"
	 viewBox="0 0 788 1005" style="enable-background:new 0 0 788 1005;" xml:space="preserve">
<style type="text/css">
	.st0{fill:#BC3737;}
	.st1{clip-path:url(#SVGID_00000048474860098746470150000009480530649945041060_);}
	.st2{fill:#CCAA97;}
	.st3{clip-path:url(#SVGID_00000173853864765458925960000012312731863393662857_);}
	.st4{fill:#423522;}
	.st5{fill:#E0B9A0;}
	.st6{fill:#BF9079;}
</style>
<g>
	<polygon class="st0" points="504.5,276 458.8,248.4 511.5,257 	"/>
</g>
<g>
	<polygon class="st0" points="266,256.8 324.4,249.8 272.2,276.5 	"/>
</g>
<g>
	<g id="random">
		<g>
			<g>
				<g>
					<g>
						<defs>
							<polygon id="SVGID_1_" points="458.3,308.8 458.3,308.8 495.6,308.8 495.6,363.3 458.3,363.3 							"/>
						</defs>
						<clipPath id="SVGID_00000020357981485292605580000007710667905362675883_">
							<use xlink:href="#SVGID_1_"  style="overflow:visible;"/>
						</clipPath>
						<g style="clip-path:url(#SVGID_00000020357981485292605580000007710667905362675883_);">
							<path class="st2" d="M458.3,358.7l7.2-40c0,0,14.2-16.4,26.5-6.8c8.2,6.4,1.3,47.3-8.2,50
								C467.7,366.4,458.3,358.7,458.3,358.7z"/>
						</g>
					</g>
				</g>
			</g>
		</g>
	</g>
	<g id="random2">
		<g>
			<g>
				<g>
					<g>
						<defs>
							<polygon id="SVGID_00000126293780500650861270000000910402822133712256_" points="326.1,308.8 326.1,308.8 288.8,308.8 
								288.8,363.3 326.1,363.3 							"/>
						</defs>
						<clipPath id="SVGID_00000147197781846694273470000017814069919843832994_">
							<use xlink:href="#SVGID_00000126293780500650861270000000910402822133712256_"  style="overflow:visible;"/>
						</clipPath>
						<g style="clip-path:url(#SVGID_00000147197781846694273470000017814069919843832994_);">
							<path class="st2" d="M326.1,358.7l-7.2-40c0,0-14.2-16.4-26.5-6.8c-8.2,6.4-1.3,47.3,8.2,50
								C316.8,366.4,326.1,358.7,326.1,358.7z"/>
						</g>
					</g>
				</g>
			</g>
		</g>
	</g>
	<path class="st4" d="M303,301.4c0-50.6,39.8-91.7,88.9-91.7s88.9,41.1,88.9,91.7s-73,88.3-88.9,91.7C409.7,386.9,303,352,303,301.4
		z"/>
	<path class="st5" d="M396.5,214.3h-3c-44.5,0-75.8,28.5-75.8,73.1c0,0,0.9,36.6,3.1,52c1.8,12.4,4.3,26.4,19.6,47.6
		c8.9,12.3,36.5,24.2,52.4,25.8l0,0c15.9-1.6,46.3-14,55.2-26.3c15.4-21.2,17.9-35.2,19.6-47.6c2.2-15.5,3.1-52,3.1-52
		c0-44.5-31.3-73.1-75.8-73.1h-3"/>
	<path class="st6" d="M380.8,359.3c-1,0.1-1.4,0.7-0.6,1c3,1.2,8.6,3.3,12.3,3.3c3.5,0,8.9-2.1,11.7-3.3c0.8-0.3,0.4-0.9-0.6-1"/>
	<path class="st2" d="M312.7,284.6c0,0,0.7-72,77.9-72s80.4,75.1,80.4,75.1s-19,18.1-53.7-20.7c0.4,0.4-10.5,25.2-23.3,25.6
		s-24.6-28.4-24.6-28.4S342.5,292.9,312.7,284.6z"/>
	<g>
		<path class="st4" d="M311.5,285c0,0,2.3-73.5,79.5-73.5c80,0,84,76.1,84,76.1s-22.2,10.2-56.9-28.6c0.4,0.4-11.3,33.2-24.1,33.5
			s-23.7-35-23.7-35S341.3,293.3,311.5,285z"/>
	</g>
</g>
<ellipse transform="matrix(0.8331 -0.5532 0.5532 0.8331 -69.5924 213.696)" class="st4" cx="319.3" cy="222.2" rx="34.2" ry="29.5"/>
<ellipse transform="matrix(0.5532 -0.8331 0.8331 0.5532 23.2631 485.2979)" class="st4" cx="464" cy="221" rx="29.3" ry="35.9"/>
<g>
	<path class="st0" d="M352.9,220.1c-14.8,8.8-26.6,19.9-36.9,33.6C320.9,237.1,335.9,223.4,352.9,220.1L352.9,220.1z"/>
</g>
<g>
	<path class="st0" d="M430.4,218.9c17,3.3,32,17,36.9,33.6C457.2,238.8,445.1,227.7,430.4,218.9L430.4,218.9z"/>
</g>
<g>
	<polygon class="st0" points="285.3,284.3 316.4,252.8 302.7,295 	"/>
</g>
<g>
	<polygon class="st0" points="484.2,293.8 467.2,252.4 500.8,281.9 	"/>
</g>
</svg>
