<?xml version="1.0" encoding="utf-8"?>
<!-- Generator: Adobe Illustrator 26.0.3, SVG Export Plug-In . SVG Version: 6.00 Build 0)  -->
<svg version="1.1" id="Calque_1" xmlns="http://www.w3.org/2000/svg" xmlns:xlink="http://www.w3.org/1999/xlink" x="0px" y="0px"
	 viewBox="0 0 294.1 266.9" style="enable-background:new 0 0 294.1 266.9;" xml:space="preserve">
<style type="text/css">
	.st0{fill:#423522;}
	.st1{clip-path:url(#SVGID_00000026149640156468248200000003194815065750177156_);}
	.st2{fill:#CCAA97;}
	.st3{clip-path:url(#SVGID_00000163046524801711744400000005542064739581888656_);}
	.st4{fill:#E0B9A0;}
	.st5{fill:#BF9079;}
	.st6{fill:#802336;}
</style>
<ellipse transform="matrix(0.5532 -0.8331 0.8331 0.5532 62.7786 191.5058)" class="st0" cx="209.9" cy="37.2" rx="31" ry="37.9"/>
<g>
	<g id="random">
		<g>
			<g>
				<g>
					<g>
						<defs>
							<polygon id="SVGID_1_" points="215.1,151.6 215.1,151.6 253.5,151.6 253.5,207.7 215.1,207.7 							"/>
						</defs>
						<clipPath id="SVGID_00000178902123684304309970000011574260818191356085_">
							<use xlink:href="#SVGID_1_"  style="overflow:visible;"/>
						</clipPath>
						<g style="clip-path:url(#SVGID_00000178902123684304309970000011574260818191356085_);">
							<path class="st2" d="M215.1,203l7.4-41.2c0,0,14.6-16.9,27.3-7c8.4,6.6,1.3,48.7-8.4,51.5C224.7,210.9,215.1,203,215.1,203z"
								/>
						</g>
					</g>
				</g>
			</g>
		</g>
	</g>
	<g id="random2">
		<g>
			<g>
				<g>
					<g>
						<defs>
							<polygon id="SVGID_00000047740763847087087770000004113948503183602844_" points="78.9,151.6 78.9,151.6 40.5,151.6 
								40.5,207.7 78.9,207.7 							"/>
						</defs>
						<clipPath id="SVGID_00000065066189674791689550000000150660744144619159_">
							<use xlink:href="#SVGID_00000047740763847087087770000004113948503183602844_"  style="overflow:visible;"/>
						</clipPath>
						<g style="clip-path:url(#SVGID_00000065066189674791689550000000150660744144619159_);">
							<path class="st2" d="M78.9,203l-7.4-41.2c0,0-14.6-16.9-27.3-7c-8.4,6.6-1.3,48.7,8.4,51.5C69.4,210.9,78.9,203,78.9,203z"/>
						</g>
					</g>
				</g>
			</g>
		</g>
	</g>
	<path class="st0" d="M55.2,144c0-52.1,41-94.4,91.5-94.4s91.5,42.3,91.5,94.4s-75.2,90.9-91.5,94.4C165,232,55.2,196.1,55.2,144z"
		/>
	<path class="st4" d="M151.4,54.3h-3.1c-45.8,0-78,29.3-78,75.3c0,0,0.9,37.7,3.2,53.5c1.9,12.8,4.4,27.2,20.2,49
		c9.2,12.7,37.6,24.9,54,26.6l0,0c16.4-1.6,47.7-14.4,56.8-27.1c15.9-21.8,18.4-36.2,20.2-49c2.3-16,3.2-53.5,3.2-53.5
		c0-45.8-32.2-75.3-78-75.3h-3.1"/>
	<path class="st5" d="M135.3,203.6c-1,0.1-1.4,0.7-0.6,1c3.1,1.2,8.9,3.4,12.7,3.4c3.6,0,9.2-2.2,12-3.4c0.8-0.3,0.4-0.9-0.6-1
		c-3.4-0.2-4.8,0.6-11.7,0.6C141,204.3,138.7,203.4,135.3,203.6z"/>
	<path class="st2" d="M75.4,142.5c-0.7,2.3-2.2,5-2.5,2.8c-3.1-25.7-6.8-74.6,75.1-74.9c83.5-0.1,82.4,49.6,77.9,73.5
		c-0.4,2.3-6,14.2-6.6,11.9c-3.5-12.1-12.7-33.8-34.7-48c-1.3-0.8-3.2,0-3.4,1.5c-0.1,1.1-0.3,2.4-0.4,3.5c-0.2,1.8-2.4,2.6-3.7,1.3
		l-14.3-13.6c-1.3-1.2-3.6-0.4-3.7,1.4l-0.5,7.2c-0.1,2.1-2.8,2.8-4,1.1l-8.5-12.4c-0.7-1-2.2-1.2-3.2-0.4l-21.6,18
		c-1.5,1.3-3.9-0.1-3.5-2.2l2.4-11.4c0.4-2.1-2-3.4-3.5-2.2C106.2,108.8,83.7,116,75.4,142.5z"/>
	<path class="st0" d="M70.3,151c0,0-25.5-98.3,77.9-98.4c98,4.1,75.8,88.4,75.8,88.4s-7.3-32.6-42.2-52.8c0.3,0.3-1.2,11.2-1.2,11.2
		l-20.8-19.7l-1.2,18l-13.4-19.5l-23.4,0.2C121.8,78.5,74.7,112.4,70.3,151z"/>
	<path class="st6" d="M157.9,20.6c-2.9,9.4-6.7,21.6-9.1,29c-1.1,3.6,1.2,7.2,4.9,7.9l32.3,5.5c1.2,0.2,2.5,0.8,3.3,1.8l31.3,31
		c2.5,2.5,6.6,2.4,9-0.2l18.4-20.4c3.3-3.6,1.2-9.5-3.6-10.3L195.6,57c-1.8-0.3-3.3-1.3-4.2-2.8l-22.2-34.9
		C166.3,14.8,159.6,15.6,157.9,20.6z"/>
	<path class="st0" d="M75.3,148.4c-0.7,2.3-4,2-4.2-0.4c-3.1-25.7-2-87.2,79.9-87.3c83.5-0.1,80.1,61.5,75.7,85.3
		c-0.4,2.3-3.6,2.5-4.2,0.2c-3.5-12.1-12.7-33.8-34.7-48c-1.3-0.8-3.2,0-3.4,1.5c-0.1,1.1-0.3,2.4-0.4,3.5c-0.2,1.8-2.4,2.6-3.7,1.3
		l-14.4-13.5c-1.3-1.2-3.6-0.4-3.7,1.4l-0.5,7.2c-0.1,2.1-2.8,2.8-4,1.1l-8.5-12.4c-0.7-1-2.2-1.2-3.2-0.4l-21.6,18
		c-1.5,1.3-3.9-0.1-3.5-2.2l2.4-11.4c0.4-2.1-2-3.4-3.5-2.2C109.1,98.9,83.6,121.7,75.3,148.4z"/>
</g>
</svg>
