<?xml version="1.0" encoding="utf-8"?>
<!-- Generator: Adobe Illustrator 26.0.3, SVG Export Plug-In . SVG Version: 6.00 Build 0)  -->
<svg version="1.1" id="Calque_1" xmlns="http://www.w3.org/2000/svg" xmlns:xlink="http://www.w3.org/1999/xlink" x="0px" y="0px"
	 viewBox="0 0 234.1 271" style="enable-background:new 0 0 234.1 271;" xml:space="preserve">
<style type="text/css">
	.st0{clip-path:url(#SVGID_00000181792021945617102540000005441909702608999593_);}
	.st1{fill:#CCAA97;}
	.st2{clip-path:url(#SVGID_00000177467991151395078250000017376108580514611379_);}
	.st3{fill:#E0B9A0;}
	.st4{fill:#BF9079;}
	.st5{fill:#D3D3D3;stroke:#D34B1C;stroke-width:1.51;stroke-miterlimit:10;}
	.st6{fill:#D3D3D3;}
	.st7{fill:#D34B1C;}
	.st8{fill:#423522;}
</style>
<g id="random">
	<g>
		<g>
			<g>
				<g>
					<defs>
						<polygon id="SVGID_1_" points="199.4,198 199.4,198 233.1,198 233.1,247.4 199.4,247.4 						"/>
					</defs>
					<clipPath id="SVGID_00000013189565857676016750000009008739916215646879_">
						<use xlink:href="#SVGID_1_"  style="overflow:visible;"/>
					</clipPath>
					<g style="clip-path:url(#SVGID_00000013189565857676016750000009008739916215646879_);">
						<path class="st1" d="M199.4,243.2l6.5-36.2c0,0,12.9-14.9,24-6.2c7.4,5.8,1.2,42.9-7.4,45.3
							C207.9,250.2,199.4,243.2,199.4,243.2z"/>
					</g>
				</g>
			</g>
		</g>
	</g>
</g>
<g id="random2">
	<g>
		<g>
			<g>
				<g>
					<defs>
						<polygon id="SVGID_00000052812014628161121060000005464060278001641652_" points="79.6,198 79.6,198 45.8,198 45.8,247.4 
							79.6,247.4 						"/>
					</defs>
					<clipPath id="SVGID_00000035529457176599919400000000912627697541245092_">
						<use xlink:href="#SVGID_00000052812014628161121060000005464060278001641652_"  style="overflow:visible;"/>
					</clipPath>
					<g style="clip-path:url(#SVGID_00000035529457176599919400000000912627697541245092_);">
						<path class="st1" d="M79.6,243.2L73.1,207c0,0-12.9-14.9-24-6.2c-7.4,5.8-1.2,42.9,7.4,45.3C71.2,250.2,79.6,243.2,79.6,243.2
							z"/>
					</g>
				</g>
			</g>
		</g>
	</g>
</g>
<path class="st3" d="M143.4,112.4h-2.7c-40.3,0-68.7,25.8-68.7,66.2c0,0,0.8,33.2,2.8,47.1c1.6,11.2,3.9,23.9,17.8,43.1
	c8.1,11.1,33.1,21.9,47.5,23.4l0,0c14.4-1.4,41.9-12.7,50-23.8c14-19.2,16.2-31.9,17.8-43.1c2-14,2.8-47.1,2.8-47.1
	c0-40.3-28.4-66.2-68.7-66.2h-2.7"/>
<path class="st4" d="M129.1,243.8c-0.9,0.1-1.3,0.6-0.5,0.9c2.7,1.1,7.8,3,11.1,3c3.2,0,8.1-1.9,10.6-3c0.7-0.3,0.4-0.8-0.5-0.9
	c-3-0.2-4.3,0.5-10.3,0.5C134.2,244.4,132.1,243.6,129.1,243.8z"/>
<path class="st1" d="M73,209.4c-0.9-1.1-61.3-86.8,48.3-119.1c0,0,45-2.8,40.7-1.7c0,0,98.5,37.1,45.9,124.9c0,0,2.2-20.5-4.4-25.9
	c-15.8-13.2-50.5-14.3-61-46.2c-10.8,31.9-48.2,33.7-64.7,45.5C71.2,191.6,73,209.4,73,209.4z"/>
<g>
	<path class="st5" d="M167.1,79.1c0,0,40.8-3.2,23.3-51.2c-17.9-47.8-53.1-14.4-53.1-14.4s-13.4-17-45.2-9.8S51.6,31.3,51.6,31.3
		S-4.7,13.8,0.3,78.6S70.1,95,70.1,95"/>
	<path class="st5" d="M40.5,92.6l15,58.4c0,0,57.9-64.7,124.7-51.3c-0.7-18.2-14.7-35.9-14.7-35.9S92.6,48.2,40.5,92.6z"/>
	<g>
		<path class="st6" d="M64.2,69.9c0,0,11.5,19.8,41.5,14c30-5.9,35.2-31.4,35.2-31.4"/>
		<path class="st7" d="M64.2,69.9c14.7,19.8,46.7,17.8,63.8,2.4c5.9-5.3,10.4-12.4,12.6-19.9c-2.2,10.8-9.4,20.7-19,26.4
			C104,89.2,76.1,88.9,64.2,69.9L64.2,69.9z"/>
	</g>
</g>
<path class="st8" d="M73,209.4c-0.9-1.1-61.3-86.8,48.3-119.1c0,0,45-2.8,40.7-1.7c0,0,98.5,37.1,45.9,124.9c0,0,2.2-20.5-4.4-25.9
	c-15.8-13.2-51-22.8-61.5-54.7C131.2,165,94.3,175.2,77.8,187C71.2,191.6,73,209.4,73,209.4z"/>
</svg>
