<?xml version="1.0" encoding="utf-8"?>
<!-- Generator: Adobe Illustrator 26.0.3, SVG Export Plug-In . SVG Version: 6.00 Build 0)  -->
<svg version="1.1" id="Calque_1" xmlns="http://www.w3.org/2000/svg" xmlns:xlink="http://www.w3.org/1999/xlink" x="0px" y="0px"
	 viewBox="0 0 788 1005" style="enable-background:new 0 0 788 1005;" xml:space="preserve">
<style type="text/css">
	.st0{clip-path:url(#SVGID_00000038401613695019805290000016283151603863558536_);}
	.st1{fill:#CCAA97;}
	.st2{clip-path:url(#SVGID_00000182502463761495128150000010045352968188118413_);}
	.st3{fill:#423522;}
	.st4{fill:#E0B9A0;}
	.st5{fill:#BF9079;}
</style>
<g id="random">
	<g>
		<g>
			<g>
				<g>
					<defs>
						<polygon id="SVGID_1_" points="458.3,308.8 458.3,308.8 495.6,308.8 495.6,363.3 458.3,363.3 						"/>
					</defs>
					<clipPath id="SVGID_00000026165559512898840840000014186146985384458380_">
						<use xlink:href="#SVGID_1_"  style="overflow:visible;"/>
					</clipPath>
					<g style="clip-path:url(#SVGID_00000026165559512898840840000014186146985384458380_);">
						<path class="st1" d="M458.3,358.7l7.2-40c0,0,14.2-16.4,26.5-6.8c8.2,6.4,1.3,47.3-8.2,50
							C467.7,366.4,458.3,358.7,458.3,358.7z"/>
					</g>
				</g>
			</g>
		</g>
	</g>
</g>
<g id="random2">
	<g>
		<g>
			<g>
				<g>
					<defs>
						<polygon id="SVGID_00000124861001121133748100000001330881972571568006_" points="326.1,308.8 326.1,308.8 288.8,308.8 
							288.8,363.3 326.1,363.3 						"/>
					</defs>
					<clipPath id="SVGID_00000029739590551734689620000013225553331172672160_">
						<use xlink:href="#SVGID_00000124861001121133748100000001330881972571568006_"  style="overflow:visible;"/>
					</clipPath>
					<g style="clip-path:url(#SVGID_00000029739590551734689620000013225553331172672160_);">
						<path class="st1" d="M326.1,358.7l-7.2-40c0,0-14.2-16.4-26.5-6.8c-8.2,6.4-1.3,47.3,8.2,50
							C316.8,366.4,326.1,358.7,326.1,358.7z"/>
					</g>
				</g>
			</g>
		</g>
	</g>
</g>
<path class="st3" d="M303,296.4c0-50.6,39.8-91.7,88.9-91.7s88.9,41.1,88.9,91.7s-73,88.3-88.9,91.7C409.7,381.9,303,347,303,296.4z
	"/>
<path class="st4" d="M396.5,214.3h-3c-44.5,0-75.8,28.5-75.8,73.1c0,0,0.9,36.6,3.1,52c1.8,12.4,4.3,26.4,19.6,47.6
	c8.9,12.3,36.5,24.2,52.4,25.8l0,0c15.9-1.6,46.3-14,55.2-26.3c15.4-21.2,17.9-35.2,19.6-47.6c2.2-15.5,3.1-52,3.1-52
	c0-44.5-31.3-73.1-75.8-73.1h-3"/>
<path class="st5" d="M380.8,359.3c-1,0.1-1.4,0.7-0.6,1c3,1.2,8.6,3.3,12.3,3.3c3.5,0,8.9-2.1,11.7-3.3c0.8-0.3,0.4-0.9-0.6-1
	c-3.3-0.2-4.7,0.6-11.4,0.6C386.4,360,384.1,359.1,380.8,359.3z"/>
<path class="st1" d="M320.8,302.9c-1,0.2-2-0.3-2.3-1.2c-3-11.2-17.6-78.6,75.3-77.2c92.9,1.4,74.3,69.9,70.6,81.3
	c-0.3,0.9-1.4,1.4-2.4,1.1c-10.1-2.9-58.4-18.5-70.2-49.5c-0.5-1.4-2.8-1.5-3.5-0.2C383,267.3,365.7,293.2,320.8,302.9z"/>
<g>
	<path class="st3" d="M410,182.2c-0.6,15-8.3,34.3-18.4,45.5C392.2,212.7,400,193.4,410,182.2L410,182.2z"/>
</g>
<g>
	<path class="st3" d="M386.4,186.4c7.8,12.9,12,33.2,9.8,48.1C388.4,221.7,384.3,201.3,386.4,186.4L386.4,186.4z"/>
</g>
<path class="st3" d="M314.4,304c0,0-22.7-93.7,78.6-92.2s79,93.4,79,93.4s-68.7-24.7-78.3-63.2C393.4,242.1,372.5,292,314.4,304z"/>
</svg>
