<?xml version="1.0" encoding="utf-8"?>
<!-- Generator: Adobe Illustrator 26.0.1, SVG Export Plug-In . SVG Version: 6.00 Build 0)  -->
<svg version="1.1" id="Calque_1" xmlns="http://www.w3.org/2000/svg" xmlns:xlink="http://www.w3.org/1999/xlink" x="0px" y="0px"
	 viewBox="0 0 788 1005" style="enable-background:new 0 0 788 1005;" xml:space="preserve">
<style type="text/css">
	.st0{fill:#B06F54;}
	.st1{fill:#8A5035;}
	.st2{fill:#9BAA5E;}
	.st3{fill:#7B8254;}
</style>
<g id="Calque_1_00000163780928151170470520000003815068576437974401_">
	<g id="Calque_12">
		<path class="st0" d="M465.8,459.5c0,0-0.1,3.9-9.3,10c-10.9,7.3-6.9,21.4-8.4,28.7c-1,4.9-9.9,17.3-13.7,16.6
			c-10.8-2-16.9-16.2-26.7-20.4c-5.7-2.4-8.2-4.7-13.7-2c-5.5-2.8-8-0.5-13.7,2c-9.8,4.2-15.8,18.5-26.7,20.4
			c-3.9,0.7-12.7-11.7-13.7-16.6c-1.5-7.3,2.5-21.4-8.4-28.7c-9.2-6.1-11.6-11-11.6-11c-7-17.1-6.1-26.7,3.9-29.7s29.4-7,38.6-10.1
			c4.7-1.6,8.5-3.4,10.6-5.8l1.6-37.3l18.3-0.6h2.2l14.3,0.5l4,0.1l0.7,15.7l0.6,12.9v0.5l0.4,8.2c0.4,0.5,0.9,0.9,1.5,1.3
			c2.7,2,6.8,3.2,11.6,4.2c6.5,1.3,30.5,8,37.8,9.4c3.1,0.6-2.8-0.9,0,0C475.8,430.6,472.8,442.4,465.8,459.5z"/>
		<path class="st1" d="M416.5,414.1c-5.4,4.2-18.8,11.4-21.3,12.6c-8.2,3.9-28.3-5-32.8-8.1c4.7-1.6,8.5-3.4,10.6-5.8l1.6-37.3h38.8
			l1.2,28.5v0.5l0.4,8.2C415.4,413.2,415.9,413.7,416.5,414.1z"/>
	</g>
</g>
<g id="Calque_9">
	<path class="st0" d="M347.9,444.2c0.2,19.8-13.4,25.3-20.4,32.4c-11.1,11.2-22.3,39.5-30.7,52.2c-3.9,6-15.6,18.7-26.4,13.6l0,0
		c-13.5-7.1-6.3-23.3-3.1-29.3c6.4-12.3,27.5-65.9,41.7-77.1c0,0,13.8-12,26.9-8C344.3,430.6,347.8,436,347.9,444.2L347.9,444.2z"/>
	<path class="st0" d="M266.4,525.3c5.6-10.4,16.8-6.7,26.1-2.1c6.6,3.2,67.6,41,84.3,51.1c9.4,5.7,14.6,8.5,11.8,14.2
		c-2.5,5.2-13.5,2.4-17.8,1.4c-40.6-9.9-70.7-19.4-95.2-38.9C259.5,538.1,264.4,528.9,266.4,525.3z"/>
	<path class="st0" d="M445.9,434.4c-5.5,11.3,2.9,19,6,25.3c5,10.1,5.5,30,8,40c1.2,4.7,6.2,15.9,15.3,16.4l0,0
		c11.6,0.3,10.7-11.3,10.1-15.9c-1.3-9.2-2.1-46.9-9.3-58c0,0-6.7-11.4-17.2-13.4C452,427.7,448.1,429.7,445.9,434.4L445.9,434.4z"
		/>
	<path class="st0" d="M479.4,520c11.2,2.7,16.6-4.7,20-11.4c2.5-4.8,19.7-53.3,24.6-66.5c2.8-7.4,4.5-11.3-1.4-12.9
		c-5.4-1.5-11.3,5.2-13.6,7.8c-22,24.5-36.9,43.8-40.8,65.5C465.6,516.7,475.5,519.1,479.4,520z"/>
	<path class="st0" d="M527.8,407c3.8-2.9,7.2-6.1,10.3-9.7c0,0,2.4,3.3,2.1,5.3c-0.3,1.6-5.8,8.5-5.8,8.5l0,0
		c26.5-10.7,47.7-16.1,50.8-16.6c2.2-0.4,8.3,1.8,8.3,1.8s-25.1,10.8-31.9,14.1c-23,11.4-28.6,17.5-35.7,27.5
		c-1.2,1.8-15.8-0.1-13.7-4c0.8-1.4-0.5-9.1,1.4-11.1C521,414.4,527.5,407.2,527.8,407z"/>
	<path class="st2" d="M348.1,421.4c8.5,4.3,47.6,41.2,47.6,41.2l46.6-41.2l19.9,3.6c0,0-1.9,103.7-2,113.5s7.9,78.5,7.9,78.5H321
		l6.5-130.4l-2.3-61.8L348.1,421.4z"/>
	<polygon class="st3" points="305.8,517.7 268,502.4 275,487.3 312.9,502.6 	"/>
	<path class="st2" d="M325.2,424.7c0,0-17.9,6.4-20,8.8s-39.1,42.3-38.4,44s8.3,9.9,8.3,9.9l37.9,15.3c0,0,8.5-2.7,9-4
		s6.6,17.5,6.6,18.5s125.4-4,125.4-4l6.3-2.5l27.5-48.3c0,0-1.7-27.9-2.8-28.9s-22.7-8.4-22.7-8.4l-19.9-3.6c0,0-16.3-2.2-16.2-2.2
		s-30.3,30.5-30.3,30.5s-36.6-31.9-36.7-30.5s-10.9,2.2-10.9,2.2L325.2,424.7z"/>
	<path class="st3" d="M372.8,457.3c0.7,1.5,23-7.6,23-7.6l-32.6-38.3c0,0-18,10.3-15,10S368.5,447.7,372.8,457.3z"/>
	<path class="st3" d="M418.8,457.3c-0.7,1.5-23-7.6-23-7.6l32.6-38.3c0,0,18,10.3,15,10S423.1,447.7,418.8,457.3z"/>
</g>
<g id="Calque_10">
	<rect x="321" y="617" class="st3" width="147.1" height="23.4"/>
</g>
</svg>
