<?xml version="1.0" encoding="utf-8"?>
<!-- Generator: Adobe Illustrator 26.0.1, SVG Export Plug-In . SVG Version: 6.00 Build 0)  -->
<svg version="1.1" id="Calque_1" xmlns="http://www.w3.org/2000/svg" xmlns:xlink="http://www.w3.org/1999/xlink" x="0px" y="0px"
	 viewBox="0 0 788 1005" style="enable-background:new 0 0 788 1005;" xml:space="preserve">
<style type="text/css">
	.st0{fill:#B06F54;}
	.st1{fill:#8A5035;}
	.st2{fill:#84453D;}
	.st3{fill:#55427C;}
</style>
<g id="Calque_1_00000172437985603907471230000002299007060273112194_">
	<g id="Calque_12">
		<path class="st0" d="M465.8,459.5c0,0-0.1,3.9-9.3,10c-10.9,7.3-6.9,21.4-8.4,28.7c-1,4.9-9.9,17.3-13.7,16.6
			c-10.8-2-16.9-16.2-26.7-20.4c-5.7-2.4-8.2-4.7-13.7-2c-5.5-2.8-8-0.5-13.7,2c-9.8,4.2-15.8,18.5-26.7,20.4
			c-3.9,0.7-12.7-11.7-13.7-16.6c-1.5-7.3,2.5-21.4-8.4-28.7c-9.2-6.1-11.6-11-11.6-11c-7-17.1-6.1-26.7,3.9-29.7s29.4-7,38.6-10.1
			c4.7-1.6,8.5-3.4,10.6-5.8l1.6-37.3l18.3-0.6h2.2l14.3,0.5l4,0.1l0.7,15.7l0.6,12.9v0.5l0.4,8.2c0.4,0.5,0.9,0.9,1.5,1.3
			c2.7,2,6.8,3.2,11.6,4.2c6.5,1.3,30.5,8,37.8,9.4c3.1,0.6-2.8-0.9,0,0C475.8,430.6,472.8,442.4,465.8,459.5z"/>
		<path class="st1" d="M416.5,414.1c-5.4,4.2-18.8,11.4-21.3,12.6c-8.2,3.9-28.3-5-32.8-8.1c4.7-1.6,8.5-3.4,10.6-5.8l1.6-37.3h38.8
			l1.2,28.5v0.5l0.4,8.2C415.4,413.2,415.9,413.7,416.5,414.1z"/>
	</g>
</g>
<g id="Calque_9">
	<path class="st0" d="M562.2,475.6c0.3-2.5,8.7-17.2,9.7-19.2s18.4-11.2,19.2-10.2s-1.1,6.2-1.1,6.2l-4.3,3.2l19.6-5l8.4-2.2
		c0.7-0.2,1.5,0.2,1.7,1c0,0.1,0.1,0.3,0,0.4l-0.1,1.5c-0.1,1.9-1.3,3.6-3.2,4.3l-15.6,5.8l-1.6,14.9c0,0-17.9,9-21.3,8.5
		c-1-0.1-5.7,1.7-7.2-1.3C565.5,481.7,562.2,475.6,562.2,475.6z"/>
	<path class="st0" d="M347.3,447.6c2.6,15.8-32.2,64.2-38.6,75.6c-3,5.4-12.7,17.4-23.6,15c-13.8-3.6-8.7-17.7-6.5-23
		c4.6-10.9,26.5-67.3,40.1-77.4c6.9-5.1,12-3.8,24.9-2.5C351.9,436.1,346.2,441.1,347.3,447.6L347.3,447.6z"/>
	<path class="st0" d="M429,439.4c2.9,19.6,17.2,23.3,25.3,29.3c12.7,9.6,28.2,36.1,38.5,47.5c4.8,5.4,18.4,16.4,28.2,9.9l0,0
		c12.3-8.9,2.6-23.9-1.5-29.4c-8.2-11.3-41.8-55.4-57.7-64.5c0,0-10.1-0.8-22.4,4.9C431.5,440.9,427.8,431.3,429,439.4L429,439.4z"
		/>
	<path class="st0" d="M505.7,522.3c6.3,9.5,17.3,5.4,26.2,0.7c6.3-3.4,26.7-29.1,42.6-39.4c9-5.8,9.5-8.6,6.2-13.9
		c-2.9-4.8-14,2-17.9,4c-39.7,19.7-49.9,24.1-49.9,24.1C496,508.5,503.5,519.1,505.7,522.3z"/>
	<path class="st2" d="M311,431.9c-0.4,5.8,18.7,59.9,18.7,59.9l-1.8,82l1.7,24.9h127.5l2.5-25.2l4.9-83.2l11.1-58l-55.6-18.8
		c0,0-23.5,18-26,18s-25.5-18-25.5-18L311,431.9z"/>
	<path class="st0" d="M276.1,530.1c-2.5-11,8.5-15,18.5-17.2c7.1-1.6,43.3-3.4,62.4-6.1c10.8-1.5,16.5-2.6,18.1,3.3
		c1.4,5.3-44.5,24.6-75.6,33.2C280,548.7,277,533.8,276.1,530.1z"/>
	<path class="st0" d="M352,507.8c4.2-2.2,12.1-11.1,13.2-12.6s14.9-8.5,15.4-7.6s0.7,4,0.7,4l-7.8,6.5l19.5-3.3
		c0,0,12.4-2.4,16.4-1.7c1.1,0.2-0.7,4.1-0.7,4.1l-18.4,6.8l-5.5,11.8c-1.7,3.7-5.4,6.1-9.5,6.1c-4.6,0-10.1,0-11.6-0.4
		c-0.8-0.2-6.6-1.5-7.3-4.1C356.1,515.7,352,507.8,352,507.8z"/>
	<path class="st3" d="M281.1,498.9l40.7,8.1l7.8-15.2l15.5-69l-34.2,9.1C306.3,440.7,281.1,498.9,281.1,498.9z"/>
	<polygon class="st3" points="443.8,508.1 464.5,490.3 486.8,514.5 515.4,488.4 475.6,432.3 450.5,425.6 435.9,448 	"/>
</g>
</svg>
