<?xml version="1.0" encoding="utf-8"?>
<!-- Generator: Adobe Illustrator 26.0.1, SVG Export Plug-In . SVG Version: 6.00 Build 0)  -->
<svg version="1.1" id="Calque_1" xmlns="http://www.w3.org/2000/svg" xmlns:xlink="http://www.w3.org/1999/xlink" x="0px" y="0px"
	 viewBox="0 0 364.8 244.8" style="enable-background:new 0 0 364.8 244.8;" xml:space="preserve">
<style type="text/css">
	.st0{fill:#B06F54;}
	.st1{fill:#8A5035;}
	.st2{fill:#84B4DF;}
	.st3{fill:#965D54;}
</style>
<g id="Calque_1_00000030450274395184595760000010282145738978418841_">
	<g id="Calque_12">
		<path class="st0" d="M303.6,84.5c0,0-0.1,3.9-9.3,10c-10.9,7.3-6.9,21.4-8.4,28.7c-1,4.9-9.9,17.3-13.7,16.6
			c-10.8-2-16.9-16.2-26.7-20.4c-5.7-2.4-8.2-4.7-13.7-2c-5.5-2.8-8-0.5-13.7,2c-9.8,4.2-15.8,18.5-26.7,20.4
			c-3.9,0.7-12.7-11.7-13.7-16.6c-1.5-7.3,2.5-21.4-8.4-28.7c-9.2-6.1-11.6-11-11.6-11c-7-17.1-6.1-26.7,3.9-29.7s29.4-7,38.6-10.1
			c4.7-1.6,8.5-3.4,10.6-5.8l1.6-37.3L230.7,0h2.2l14.3,0.5l4,0.1l0.7,15.7l0.6,12.9v0.5l0.4,8.2c0.4,0.5,0.9,0.9,1.5,1.3
			c2.7,2,6.8,3.2,11.6,4.2c6.5,1.3,30.5,8,37.8,9.4c3.1,0.6-2.8-0.9,0,0C313.6,55.6,310.6,67.4,303.6,84.5z"/>
		<path class="st1" d="M254.3,39.1c-5.4,4.2-18.8,11.4-21.3,12.6c-8.2,3.9-28.3-5-32.8-8.1c4.7-1.6,8.5-3.4,10.6-5.8l1.6-37.3h38.8
			l1.2,28.5v0.5l0.4,8.2C253.2,38.2,253.7,38.7,254.3,39.1z"/>
	</g>
</g>
<g id="Calque_9">
	<path class="st0" d="M196.4,70.9c-4.6,21.5-19.4,24.7-27.9,30.9c-13.6,9.8-26.2,29.2-37.4,41.2c-5.3,5.7-11.7,6.6-17.8,2.5
		l-4.1-2.5c-11.5-10.5,1-21.4,5.5-27.3c9.3-12,20.7-24.7,27.8-38c5.3-9.9,16.3-12.8,32.9-21.8c0,0,1.5-12.2,13.3-5
		C196.3,55.5,198.3,62.1,196.4,70.9L196.4,70.9z"/>
	<path class="st0" d="M124.5,147.3c9.5-5.7,6.4-15.2,4.4-18.5c-2.1-3.6-42.1-40.9-49.5-49.2c-4.2-4.7-6.1,0.6-9.4,2.6
		c-3,1.9-0.4,7.6,0.6,9.9c2.2,5,31,49.8,33.5,53.4C109.3,152.9,121.8,148.9,124.5,147.3z"/>
	<path class="st0" d="M49,52.9l-3,8.3c1.3,1.1,2.6,2.4,3.7,3.7c1.3,1.6,5.5,5.9,5.5,5.9l1,3.1c-5.9,0.9-8.1,2-15.2,2.5
		c-5.4,0.4-17.7-2.6-22.9-4.7c-2.8-1.1-7.4-5.9-10.4-6.3C5.6,65.1,0,68.2,0,68.2l12,10.2c0,0,21.1,9.8,28.3,12.4
		c7.8,2.8,24,6.8,32.1,7c2.6,0,7.8,0.1,10.7-4.2c2.5-3.7,0.4-8-1.1-10.6C79.8,79,49.4,53,49,52.9z"/>
	<path class="st0" d="M269.7,68.6c4,17.7,17.3,20.1,25,25.2c12.2,8,28.1,31.1,38.2,41c4.8,4.6,17.8,13.8,26.3,7.3l0,0
		c10.5-8.8,3.1-19.7-1-24.5c-8.3-9.8-30-33.3-36.3-44.1c-4.7-8.1-4.5-11.8-19.5-19.2c0,0-14.8-8.2-25.6-2.2
		C269.9,55.9,268,61.3,269.7,68.6L269.7,68.6z"/>
	<path class="st0" d="M364.5,129.8c-4.2-14.5-12-12.2-18.7-11.4c-7.2,0.9-74.1,24.1-92.4,29.9c-10.3,3.3-15.9,4.8-14.4,10.7
		c1.4,5.3,12.6,5,17,4.9c41.5-0.8,72.2-4.7,100.6-16.4C364.5,144.3,365.5,133.5,364.5,129.8z"/>
	<path class="st2" d="M210.4,148.6c-8.2,4.1-20.6,9.2-20.6,9.2s6.3,4.6,8.9,4.9c2.1,0.2,11.3-4,11.3-4l16.3,2.6
		c-3.4,4.5-11.7,6.8-16.2,11.8c-3.5,3.9-14.3,10-19.5,12c-2.9,1.1-9.7,0.9-12.1,2.6c-1.7,1.2-3.1,7.1-3.1,7.1l16.2-0.9
		c0,0,22.2-7.3,29.3-10.3c7.6-3.2,22-11.3,27.7-16.6c1.9-1.7,5.4-5.1,4.2-10.1c-1.1-4.2-5.9-5.8-9-6.7
		C239.1,149.2,210.8,148.4,210.4,148.6z"/>
	<path class="st3" d="M166.3,241.3c-1.9-9.9,6.6-126.9,1.1-133.3c0,0-19.9,16.3-19.4,15.6s-22.2-25.8-22.2-25.8l25.7-44.9
		c16.3-9.2,51.1-11.9,51.1-11.9s37,20,62.2-0.8c0,0,30.8,2.9,49.3,11.9c0,0,28.9,39.9,28.9,39.8s-28.9,22.6-28.9,22.6
		s-17.7-9.4-17.7-9.5s5,80.5,3.9,97.3s9.1,24.3-3,29.9S168.2,251.2,166.3,241.3z"/>
</g>
</svg>
