<?xml version="1.0" encoding="utf-8"?>
<!-- Generator: Adobe Illustrator 26.0.1, SVG Export Plug-In . SVG Version: 6.00 Build 0)  -->
<svg version="1.1" id="Calque_1" xmlns="http://www.w3.org/2000/svg" xmlns:xlink="http://www.w3.org/1999/xlink" x="0px" y="0px"
	 viewBox="0 0 506.7 221" style="enable-background:new 0 0 506.7 221;" xml:space="preserve">
<style type="text/css">
	.st0{fill:#B06F54;}
	.st1{fill:#8A5035;}
	.st2{fill:#6BA6D8;}
</style>
<g id="Calque_1_00000141419347045656369490000000233441889925167021_">
	<g id="Calque_12">
		<path class="st0" d="M326.8,84.5c0,0-0.1,3.9-9.3,10c-10.9,7.3-6.9,21.4-8.4,28.7c-1,4.9-9.9,17.3-13.7,16.6
			c-10.8-2-16.9-16.2-26.7-20.4c-5.7-2.4-8.2-4.7-13.7-2c-5.5-2.8-8-0.5-13.7,2c-9.8,4.2-15.8,18.5-26.7,20.4
			c-3.9,0.7-12.7-11.7-13.7-16.6c-1.5-7.3,2.5-21.4-8.4-28.7c-9.2-6.1-11.6-11-11.6-11c-7-17.1-6.1-26.7,3.9-29.7s29.4-7,38.6-10.1
			c4.7-1.6,8.5-3.4,10.6-5.8l1.6-37.3L253.9,0h2.2l14.3,0.5l4,0.1l0.7,15.7l0.6,12.9v0.5l0.4,8.2c0.4,0.5,0.9,0.9,1.5,1.3
			c2.7,2,6.8,3.2,11.6,4.2c6.5,1.3,30.5,8,37.8,9.4c3.1,0.6-2.8-0.9,0,0C336.8,55.6,333.8,67.4,326.8,84.5z"/>
		<path class="st1" d="M277.5,39.1c-5.4,4.2-18.8,11.4-21.3,12.6c-8.2,3.9-28.3-5-32.8-8.1c4.7-1.6,8.5-3.4,10.6-5.8l1.6-37.3h38.8
			l1.2,28.5v0.5l0.4,8.2C276.4,38.2,276.9,38.7,277.5,39.1z"/>
	</g>
</g>
<g id="Calque_9">
	<path class="st0" d="M218.8,63.8C215,79.7,203,82,196,86.6c-11.1,7.2-25.8,28.1-35,37c-4.3,4.2-16.3,12.5-23.8,6.8l0,0
		c-9.4-7.8-2.6-17.6,1.1-22c7.6-8.9,25-25.4,30.7-35.2c4.3-7.3,6.7-15.2,20.3-21.9c0,0,13.5-7.5,23.1-2.2
		C218.6,52.4,220.3,57.3,218.8,63.8L218.8,63.8z"/>
	<path class="st0" d="M286.9,63.8c3.8,15.9,15.8,18.2,22.8,22.8c11.1,7.2,25.8,28.1,35,37c4.3,4.2,16.3,12.5,23.8,6.8l0,0
		c9.4-7.8,2.6-17.6-1.1-22c-7.6-8.9-24.9-25.4-30.7-35.2c-4.3-7.3-6.7-15.2-20.3-21.9c0,0-13.5-7.5-23.1-2.2
		C287,52.4,285.4,57.3,286.9,63.8L286.9,63.8z"/>
	<path class="st0" d="M353.3,119.9c3-10.8,13-9.1,18.5-8.6c6,0.5,61.3,15.9,76.4,19.8c8.5,2.2,13.2,3.2,12.1,7.5
		c-1,4-10.2,4.4-13.8,4c-38.8-3.8-48.1-4.9-82.7-9.7C347.4,130.7,352.5,122.6,353.3,119.9z"/>
	<path class="st0" d="M449.8,131.4c0,0,8-6.2,9.8-6.7s11-3,12.4-3.7s8.3-6.1,8.9-5.3c0.2,0.3,0.6,1.1,1.1,1.8
		c0.8,1.5,0.5,3.2-0.7,4.4l-1.5,1.5c-1.2,1.1-2.6,2-4.1,2.6l-6.1,2.4l14.2,2.8l18.4,0.6c1.2,0,2.3,0.8,2.7,2l0,0
		c0.3,1.4-1,2.7-2.8,2.7l-20,0.1l22.3,4.8c1.4,0.2,2.4,1.5,2.3,2.9c0,0.1,0,0.2,0,0.3l0,0c-0.6,1.5-2.2,2.3-3.8,1.9l-23.9-5.2
		l21.5,8.2c1.3,0.3,2,1.7,1.7,2.9c-0.1,0.2-0.1,0.4-0.2,0.6l0,0c-0.9,1.2-2.5,1.7-3.9,1.2l-20.5-7.2l11.6,7.3c1.1,0.6,1.5,2,0.9,3
		c-0.1,0.3-0.3,0.5-0.5,0.7l0,0c-1,0.9-2.5,1-3.7,0.4l-13.9-6.9l-20.7-5.7l-4.5-3.8L449.8,131.4z"/>
	<path class="st0" d="M154,119.8c-3-10.8-13-9.1-18.5-8.6c-6,0.5-61.3,15.9-76.4,19.8c-8.6,2.2-13.2,3.2-12.1,7.5
		c1,4,10.2,4.4,13.8,4c38.8-3.8,48.1-4.9,82.7-9.7C159.9,130.6,154.8,122.6,154,119.8z"/>
	<path class="st0" d="M56.8,131.4c0,0-8-6.2-9.8-6.7s-11.1-3-12.4-3.7s-8.3-6.1-8.9-5.3c-0.2,0.3-0.6,1.1-1.1,1.8
		c-0.8,1.4-0.5,3.2,0.7,4.4l1.5,1.5c1.2,1.1,2.6,2,4.1,2.6l6.1,2.4l-14.2,2.8l-18.4,0.6c-1.2,0-2.3,0.8-2.6,2l0,0
		c-0.3,1.4,1,2.7,2.8,2.7l20,0.1l-22.3,4.9c-1.4,0.2-2.4,1.5-2.3,2.9c0,0.1,0,0.2,0,0.3l0,0c0.6,1.5,2.2,2.3,3.8,1.9l23.9-5.2
		l-21.5,8.2c-1.3,0.3-2,1.7-1.7,2.9c0.1,0.2,0.1,0.4,0.2,0.6l0,0c0.9,1.2,2.5,1.7,3.9,1.2l20.6-7.2l-11.6,7.3c-1.1,0.6-1.5,2-0.9,3
		c0.1,0.3,0.3,0.5,0.5,0.7l0,0c1,0.9,2.5,1,3.7,0.4l13.9-6.9l20.7-5.7l4.5-3.8L56.8,131.4z"/>
	<path class="st2" d="M441.2,122.3c0,0-1.5,21.2-2.1,23.3c-0.1,0.5-6.5,12.9-14,11.1C402,151,355,137.4,355,137.4L318.7,102
		c0,0-1.8,67.3,2.4,89.2c2,10.3,10,29.1-2.4,29.4c-31.1,0.8-123.5,0-123.5,0c-13.7,0-9-19.8-7.8-31.3c2.2-21.3-3.8-85.5-3.8-85.5
		s-24.6,29-28.3,29.5c-2.8,0.3-46.1,12.4-67.6,18.4L75.9,155l-6.2-9.3l-2.2-22l12.2-2.2l55.7-10.1c0,0,44.5-62.7,46.2-61l30.2-7.4
		h1.4c0,0,8.3,4.3,17.5,8.8c6.6,3.3,13.8,6.7,18.5,8.7l37.1-19.7l18.8,4.7l23.9,4.8l44.2,54.5l54.3,14L441.2,122.3z"/>
</g>
</svg>
