<?xml version="1.0" encoding="utf-8"?>
<!-- Generator: Adobe Illustrator 26.0.3, SVG Export Plug-In . SVG Version: 6.00 Build 0)  -->
<svg version="1.1" id="Calque_1" xmlns="http://www.w3.org/2000/svg" xmlns:xlink="http://www.w3.org/1999/xlink" x="0px" y="0px"
	 viewBox="0 0 150 122.7" style="enable-background:new 0 0 150 122.7;" xml:space="preserve">
<style type="text/css">
	.st0{fill:#F7E4EC;}
	.st1{fill:#3D332F;}
	.st2{fill:#51412B;}
	.st3{fill:#310800;}
	.st4{fill:#993131;}
	.st5{fill:#EBB4C9;}
	.st6{fill:#B53535;}
</style>
<path class="st0" d="M87.3,51.5c0,0,12.4,7.2,14.9-4.4l-5.9-2.9l-5.9,1.5L86,50.8L87.3,51.5z"/>
<path class="st1" d="M106.1,45.3c-3.3,5.1-5.8,1.7-5.8,1.7c-1.4-1.2-3.3-1.7-5.1-1.5h-0.2c-1.9,0.3-4.2,1.9-6.2,3.5
	c-1.3,1.1-2.6,2.3-3.8,3.5c1-2,2.3-3.9,3.8-5.6c0.9-1.1,2.1-1.9,3.3-2.6c2.7-1.3,5.6-1.1,8.6,0.1C102.4,45.1,104.2,45.4,106.1,45.3z
	"/>
<path class="st2" d="M66.2,35.8c0.4-0.3,1.9-0.7,0.6-2.4c-1-1.4-2.8-3.7-5.6-4.6c-3.4-1.2-7.1-1.1-10.4,0.3c-2.9,1.3-8,6.4-8,6.4
	s6-3.4,8.2-3.9c3-0.8,6.2-0.8,9.3,0.1C62.8,32.5,66.2,35.8,66.2,35.8z"/>
<path class="st3" d="M62.8,80.3c0,0,10.7-2.2,10.8-2.2s3.9,0,3.9,0l10.3,2.3L80.1,91l-9.5,0.2L62.8,80.3z"/>
<path class="st0" d="M63.9,51.7c0,0-12.4,7.2-14.9-4.4l7.2-3l5.2,1.8l3.9,5L63.9,51.7z"/>
<path class="st1" d="M95.9,48.1c0,2-1.7,3.6-3.7,3.6c-1.6,0-3-1.1-3.5-2.6c-0.1-0.3-0.1-0.7-0.1-1c0-0.4,0.1-0.7,0.1-1.1
	c0.9-1.1,2.1-1.9,3.3-2.6h0.2C94.3,44.4,95.9,46.1,95.9,48.1C95.9,48.1,95.9,48.1,95.9,48.1L95.9,48.1z"/>
<circle class="st1" cx="54.8" cy="47.9" r="3.7"/>
<path class="st4" d="M86.3,80.8l3.4-1c0,0-6.8,11.9-9.9,12.8c-2.9,1-6,1-8.8,0c-3.1-0.9-9.4-12.8-9.4-12.8l2.9,1c0,0,4.4,9,10.8,9.4
	C81.4,90.6,86.3,80.8,86.3,80.8z"/>
<path class="st1" d="M66.7,52.6c0,0-5.2-6.7-9.2-7.2c-2.1-0.1-4.2,0.5-6,1.6c0,0-2.5,3.3-5.8-1.7c1.8,0.1,3.6-0.1,5.4-0.7
	C56.8,42.3,62,43.4,66.7,52.6z"/>
<path class="st5" d="M65.3,78.8l1,1.5c0.6,0.4,1.3,0.6,2,0.6c0,0,5.3,0.2,7.1,0.2s6.9-0.2,6.9-0.2c0.7,0,1.4-0.2,2-0.6l0.4-1.2
	L65.3,78.8z"/>
<path class="st6" d="M89.7,79.8l-3.4,1c0,0-8.2-1.8-11-1.8s-10.8,1.8-10.8,1.8l-2.9-1c0.4-0.6,8.2-5,10.5-4.3
	c1.1,0.3,2.1,0.7,3.2,1.2c0,0,1-0.4,3.4-1.2S89.3,79.2,89.7,79.8z"/>
<path class="st2" d="M83.8,35.8c-0.4-0.3-1.9-0.7-0.6-2.4c1-1.4,2.8-3.7,5.6-4.6c3.4-1.2,7.1-1.1,10.3,0.3c2.9,1.3,8,6.4,8,6.4
	s-6-3.4-8.2-3.9c-3-0.8-6.2-0.8-9.3,0.1C87.2,32.5,83.8,35.8,83.8,35.8z"/>
</svg>
