<?xml version="1.0" encoding="utf-8"?>
<!-- Generator: Adobe Illustrator 26.0.3, SVG Export Plug-In . SVG Version: 6.00 Build 0)  -->
<svg version="1.1" id="Calque_1" xmlns="http://www.w3.org/2000/svg" xmlns:xlink="http://www.w3.org/1999/xlink" x="0px" y="0px"
	 viewBox="0 0 150 122.7" style="enable-background:new 0 0 150 122.7;" xml:space="preserve">
<style type="text/css">
	.st0{fill:#F7E4EC;}
	.st1{fill:#3D332F;}
	.st2{fill:#51412B;}
	.st3{fill:#310800;}
	.st4{fill:#993131;}
	.st5{fill:#EBB4C9;}
	.st6{fill:#B53535;}
</style>
<path class="st0" d="M87,48.6c0,0,12.4,7.2,15-4.4l-0.2-0.9l-12.2-0.4l-3.9,5L87,48.6z"/>
<path class="st1" d="M89.6,46.5c0.7,3.9,9.2,6.2,10.3-2.5l-2.2-2.8l-4.5,0.4l-3.9,1.8C89.4,43.4,89.1,43.4,89.6,46.5z"/>
<circle class="st1" cx="94.2" cy="44.1" r="2.8"/>
<path class="st1" d="M84.7,49.7c0,0,5.8-7.6,9.9-8.1c3.1-0.4,5.3,2.5,5.3,2.5s2.5,3.3,5.8-1.7c-1.8,0.1-3.7-0.1-5.4-0.7
	C94.6,39.3,89.4,40.4,84.7,49.7z"/>
<path class="st2" d="M66.2,38c0.4-0.3,1.9-0.7,0.6-2.4c-1.2-1.3-2.8-2.3-4.6-2.7c-3.8-0.7-7.8-0.7-11.7,0c-3.1,0.8-7.7,4.9-7.7,4.9
	s6.2-2.1,8.4-2.3c2.7-0.1,5.5,0.2,8.2,0.7C61.2,36.4,66.2,38,66.2,38z"/>
<path class="st3" d="M62.5,77.3c0,0,10.7-2.2,10.8-2.2s3.9,0,3.9,0l10.3,2.3l-9.7,10.4h-4.9L62.5,77.3z"/>
<path class="st2" d="M83.8,37.9c-0.4-0.3-1.9-0.7-0.6-2.4c1.2-1.3,2.8-2.3,4.6-2.7c3.8-0.7,7.8-0.7,11.7,0c3.1,0.8,7.7,4.8,7.7,4.8
	s-6.2-2.1-8.4-2.3c-2.7-0.1-5.5,0.2-8.2,0.7C88.8,36.3,83.8,37.9,83.8,37.9z"/>
<path class="st0" d="M63.6,48.7c0,0-12.4,7.2-14.9-4.4l0.2-0.9l12.2-0.4l3.9,4.9L63.6,48.7z"/>
<circle class="st1" cx="56.4" cy="44.1" r="2.8"/>
<path class="st4" d="M86,77.9l3.4-1c0,0-6.8,11.9-9.9,12.8c-2.9,1-6,1-8.9,0c-3.1-0.9-9.4-12.8-9.4-12.8l2.9,1c0,0,7.3,8,10.8,8
	S86,77.9,86,77.9z"/>
<path class="st1" d="M60.8,46.2c-0.7,3.9-9.2,6.2-10.4-2.5l2.2-2.8l4.5,0.4l3.9,1.8C61.1,43.1,61.4,43.1,60.8,46.2z"/>
<path class="st1" d="M66.3,49.7c0,0-5.8-7.6-9.9-8.1c-3.1-0.4-5.3,2.5-5.3,2.5s-2.5,3.3-5.8-1.7c1.8,0.1,3.7-0.1,5.4-0.7
	C56.5,39.3,61.6,40.4,66.3,49.7z"/>
<path class="st5" d="M65.3,76.9l0.7,1.4c0.4,0.8,1.1,1.3,2,1.3c0,0,5.3,0.4,7.1,0.4s6.9-0.4,6.9-0.4c0.9-0.1,1.6-0.6,2-1.4l0.4-0.9
	L65.3,76.9z"/>
<path class="st6" d="M89.4,76.9l-3.4,1c0,0-8.2-0.8-11-0.8s-10.8,0.8-10.8,0.8l-2.9-1c0.4-0.6,8.2-5,10.5-4.3
	c1.1,0.3,2.2,0.7,3.2,1.2c0,0,1-0.4,3.3-1.2S89,76.3,89.4,76.9z"/>
</svg>
