<?xml version="1.0" encoding="utf-8"?>
<!-- Generator: Adobe Illustrator 26.0.3, SVG Export Plug-In . SVG Version: 6.00 Build 0)  -->
<svg version="1.1" id="Calque_1" xmlns="http://www.w3.org/2000/svg" xmlns:xlink="http://www.w3.org/1999/xlink" x="0px" y="0px"
	 viewBox="0 0 788 1005.1" style="enable-background:new 0 0 788 1005.1;" xml:space="preserve">
<style type="text/css">
	.st0{fill:#F7E4EC;}
	.st1{fill:#3D332F;}
	.st2{fill:#51412B;}
	.st3{fill:#310800;}
	.st4{fill:#993131;}
	.st5{fill:#EBB4C9;}
	.st6{fill:#B53535;}
</style>
<path class="st0" d="M418.8,144.1c0,0,12.4,7.2,14.9-4.4l-5.9-2.9l-5.9,1.5l-4.5,5.1L418.8,144.1z"/>
<path class="st1" d="M437.5,137.8c-3.3,5.1-5.8,1.7-5.8,1.7c-1.4-1.2-3.3-1.7-5.1-1.5h-0.2c-1.9,0.3-4.2,1.9-6.2,3.5
	c-1.3,1.1-2.6,2.3-3.7,3.5c1-2,2.2-3.9,3.8-5.6c0.9-1.1,2.1-1.9,3.3-2.6c2.7-1.3,5.6-1.1,8.6,0.1
	C433.9,137.7,435.7,137.9,437.5,137.8z"/>
<path class="st2" d="M397.7,128.4c0.4-0.3,1.9-0.7,0.6-2.4c-1-1.4-2.8-3.7-5.6-4.6c-3.4-1.2-7.1-1.1-10.4,0.3c-2.9,1.3-8,6.4-8,6.4
	s6-3.4,8.2-3.9c3-0.8,6.2-0.8,9.3,0.1C394.3,125.1,397.7,128.4,397.7,128.4z"/>
<path class="st3" d="M394.3,172.8c0,0,10.7-2.1,10.8-2.2s3.9,0,3.9,0l10.3,2.3l-7.7,10.7l-9.5,0.2L394.3,172.8z"/>
<path class="st0" d="M395.4,144.2c0,0-12.4,7.2-14.9-4.4l7.2-3l5.2,1.8l3.9,5L395.4,144.2z"/>
<path class="st1" d="M427.4,140.6c0,2-1.6,3.6-3.7,3.6c-1.6,0-3.1-1.1-3.5-2.6c-0.1-0.3-0.1-0.7-0.1-1c0-0.4,0.1-0.7,0.2-1.1
	c0.9-1.1,2.1-1.9,3.3-2.6h0.2C425.8,137,427.4,138.6,427.4,140.6L427.4,140.6z"/>
<circle class="st1" cx="386.3" cy="140.5" r="3.6"/>
<path class="st4" d="M417.8,173.4l3.4-1c0,0-6.8,11.9-9.9,12.8c-2.9,1-6,1-8.9,0c-3.1-0.9-9.4-12.8-9.4-12.8l2.9,1
	c0,0,4.4,9,10.8,9.4C412.9,183.2,417.8,173.4,417.8,173.4z"/>
<path class="st1" d="M398.1,145.2c0,0-5.2-6.7-9.2-7.2c-2.1-0.1-4.2,0.5-6,1.6c0,0-2.5,3.3-5.8-1.8c1.8,0.1,3.7-0.1,5.4-0.7
	C388.2,134.8,393.4,135.9,398.1,145.2z"/>
<path class="st5" d="M396.8,171.3l1,1.5c0.6,0.4,1.3,0.6,2,0.6c0,0,5.4,0.2,7.1,0.2s6.9-0.2,6.9-0.2c0.7,0,1.4-0.2,2-0.6l0.4-1.2
	L396.8,171.3z"/>
<path class="st6" d="M421.2,172.4l-3.4,1c0,0-8.2-1.8-11-1.8s-10.8,1.8-10.8,1.8l-2.9-1c0.4-0.6,8.2-5,10.5-4.3
	c1.1,0.3,2.1,0.7,3.2,1.1c0,0,1-0.4,3.4-1.1S420.7,171.8,421.2,172.4z"/>
<path class="st2" d="M415.3,128.4c-0.4-0.3-1.9-0.7-0.6-2.4c1-1.4,2.8-3.7,5.6-4.6c3.4-1.2,7.1-1.1,10.4,0.3c2.9,1.3,8,6.4,8,6.4
	s-6-3.4-8.2-3.9c-3-0.8-6.2-0.8-9.3,0.1C418.6,125.1,415.3,128.4,415.3,128.4z"/>
</svg>
