<?xml version="1.0" encoding="utf-8"?>
<!-- Generator: Adobe Illustrator 26.0.3, SVG Export Plug-In . SVG Version: 6.00 Build 0)  -->
<svg version="1.1" id="Calque_1" xmlns="http://www.w3.org/2000/svg" xmlns:xlink="http://www.w3.org/1999/xlink" x="0px" y="0px"
	 viewBox="0 0 788 1005.1" style="enable-background:new 0 0 788 1005.1;" xml:space="preserve">
<style type="text/css">
	.st0{fill:#DDB6A8;}
	.st1{fill:#3D332F;}
	.st2{fill:#51412B;}
	.st3{fill:#B53535;}
	.st4{fill:#993131;}
</style>
<path class="st0" d="M418.8,144.1c0,0,12.4,7.2,14.9-4.4l-0.2-0.9l-12.2-0.4l-3.9,4.9L418.8,144.1z"/>
<path class="st1" d="M421.4,142c0.7,3.9,9.2,6.2,10.3-2.5l-2.2-2.9L425,137l-3.9,1.8C421.2,138.9,420.8,139,421.4,142z"/>
<circle class="st1" cx="426" cy="139.6" r="2.8"/>
<path class="st1" d="M416.5,145.2c0,0,5.9-7.6,9.9-8.1c3.1-0.4,5.3,2.5,5.3,2.5s2.5,3.3,5.8-1.8c-1.8,0.1-3.7-0.1-5.4-0.7
	C426.4,134.8,421.2,135.9,416.5,145.2z"/>
<path class="st2" d="M398,133.5c0.4-0.5,1.9-1,0.6-3.4c-1.1-1.8-2.7-3.1-4.6-3.9c-2.7-1.1-8.9-1-11.6-0.1c-3.1,1.1-7.7,6.9-7.7,6.9
	s6.1-3,8.4-3.3c2.8-0.1,5.5,0.2,8.2,1C393,131.2,398,133.5,398,133.5z"/>
<path class="st2" d="M415.6,133.4c-0.4-0.5-1.9-1-0.6-3.5c1.1-1.8,2.7-3.1,4.6-3.9c2.7-1.1,8.9-1,11.6-0.1c3.1,1.1,7.7,6.9,7.7,6.9
	s-6.1-3-8.4-3.3c-2.8-0.1-5.5,0.2-8.2,1C420.6,131.2,415.6,133.4,415.6,133.4z"/>
<path class="st0" d="M395.4,144.2c0,0-12.4,7.2-14.9-4.4l0.2-0.9l12.2-0.4l3.9,5L395.4,144.2z"/>
<circle class="st1" cx="388.2" cy="139.6" r="2.8"/>
<path class="st3" d="M395.2,177.1c0.4-0.6,6-7.8,8.4-7c1.3,0.4,2.5,1.2,3.3,2.4l1.9,4.7L395.2,177.1z"/>
<path class="st4" d="M406.8,183l1.9-5.9h-13.5c0,0,4.1,4.2,7.2,5.1C403.8,182.8,405.3,183,406.8,183z"/>
<path class="st3" d="M418.5,177.1c-0.4-0.6-6-7.8-8.4-7c-1.3,0.4-2.5,1.2-3.3,2.4l0.3,4.7L418.5,177.1z"/>
<path class="st4" d="M406.8,183l0.3-5.9h11.3c0,0-4.1,4.2-7.2,5.1C409.8,182.8,408.3,183,406.8,183z"/>
<path class="st1" d="M392.6,141.7c-0.7,3.9-9.2,6.2-10.4-2.5l2.3-2.5l4.4,0l3.9,1.8C392.9,138.6,393.2,138.6,392.6,141.7z"/>
<path class="st1" d="M398.1,145.2c0,0-5.9-7.6-9.9-8.1c-3.1-0.4-5.3,2.5-5.3,2.5s-2.5,3.3-5.8-1.8c1.8,0.1,3.7-0.1,5.4-0.7
	C388.2,134.8,393.4,135.9,398.1,145.2z"/>
</svg>
