<?xml version="1.0" encoding="utf-8"?>
<!-- Generator: Adobe Illustrator 26.0.3, SVG Export Plug-In . SVG Version: 6.00 Build 0)  -->
<svg version="1.1" id="Calque_1" xmlns="http://www.w3.org/2000/svg" xmlns:xlink="http://www.w3.org/1999/xlink" x="0px" y="0px"
	 viewBox="0 0 788 1005" style="enable-background:new 0 0 788 1005;" xml:space="preserve">
<style type="text/css">
	.st0{fill:#D68F72;}
	.st1{fill:#90573A;}
	.st2{fill:#2E3532;}
	.st3{fill:#D3D3D3;}
	.st4{fill:none;stroke:#2E3532;stroke-width:2;stroke-linecap:round;stroke-miterlimit:10;}
	.st5{fill:#5E6D70;}
</style>
<path class="st0" d="M335.2,700.6c1.3,5.9,9,10.3,18.1,10.4l0,0c8.7,0.1,16.1-3.8,17.7-9.3c0,0,9.4-39.3,9.6-53.4
	c0-3.3-1.7-13.3-1.7-13.3l-4.2-23.3c0,0-2.9-11-20.8-12.3c-20.6-1.6-21,5.6-21,5.6s-6.6,37-6.4,48.7
	C326.7,664.4,335.2,700.6,335.2,700.6z"/>
<path class="st0" d="M476.3,696.8c0.5,5.9-5.8,10.8-14.7,11.6l0,0c-8.5,0.8-17-2.5-20.3-7.9c0,0-21.2-38.1-25.7-52.1
	c-1.1-3.3-2.4-13.3-2.4-13.3l-2.9-23.3c0,0-0.4-11.1,16.9-13.8c19.9-3.1,22.5,4,22.5,4s17.7,36,21,47.6
	C473.6,660.4,476.3,696.8,476.3,696.8z"/>
<path class="st1" d="M353.2,691.3c-9.8,0.1-15.6,2.8-17.1,7.2c0,0-1.6,19.5-1.8,27.7c-0.4,13.2,2.6,40,6.9,53c0.9,2.8,3,11.4,3,11.4
	c0.7,2.6,4.9,4.4,9.6,4.3l0,0c4.7-0.1,8.5-2.1,8.8-4.6c0,0,0.9-9.9,1.5-13.2c2.4-11.9,10.1-35.7,10.7-47.7
	c0.3-7.2-2.5-29.3-2.5-29.3C371.3,692.8,361.7,691.3,353.2,691.3L353.2,691.3z"/>
<path class="st1" d="M459.9,687.6c9.8-0.6,16.1,1.8,18.5,6l0,0c3.4,13.2,9.1,92.1,9.1,92.1c-0.1,2.6-0.1,6.1-4.9,6.3l0,0
	c-4.7,0.2-10.4-0.9-11.2-3.5c0,0-21-49-24.3-61.1c-2-7.3-4.2-29.8-4.2-29.8C442.4,690.3,451.6,688.2,459.9,687.6L459.9,687.6z"/>
<path class="st2" d="M325.1,645c-0.5,1.9,7.2,59.6,4.7,89.4c-0.5,6.5,0.2,13.1,2.2,19.3l10.3,30.8l21,0.3c0,0,8.2-16.6,13.1-28
	c1.9-4.3,2.9-9,3.1-13.8c0.7-24.4,3-103.1,4.5-109.9C386.5,622.1,325.7,642.8,325.1,645z"/>
<path class="st2" d="M425.5,624.3c0,2,13.7,87.9,18.4,117.4c1.1,6.4,3.3,12.7,6.8,18.2l18.3,26.3l18.8-4.4c0,0,4.7-17.4,6.7-29.7
	c0.8-4.6,0.6-9.4-0.3-14.1c-4.9-22.6-23.6-92.9-25.7-105.8c-0.2-1.3-0.5-2.6-1.1-3.8C457.6,605.9,425.6,622.1,425.5,624.3z"/>
<path class="st3" d="M353.5,786.1L353.5,786.1c-4.4,0-8.4,1.4-10.3,3.5l0,0c-4.2,4.8-14,14-14,14c-3.2,1.3-2.3,3.8-1.5,6l0,0
	l33.1-0.1l2.5-0.4c2.8-0.5,4.7-1.9,4.4-3.5l-2.5-14.8C363.9,788,359,786,353.5,786.1z"/>
<path class="st4" d="M344.3,790.7c2.1-0.8,4.2-1.3,6.4-1.4c2.5,0,4.9,0.4,7.3,1.1"/>
<path class="st4" d="M341.2,793.3c2.1-0.8,4.3-1.2,6.5-1.3c2.5,0,4.9,0.5,7.2,1.2"/>
<path class="st3" d="M481.7,789.8c4.6-1.1,7-6.5,7.5-5.4c3.3,8,34.6,12.9,34.6,12.9c3.9,1.7,8.5,10,7.9,12.5l0,0c-4.7-0.5-48,0-48,0
	s-15.5,0.1-14.7-3.1l0.7-18.9C470.9,784.4,473.9,791.7,481.7,789.8z"/>
<path class="st5" d="M335.2,703.5c1.3,5.8,9,10.3,18.1,10.4l0,0c8.7,0.1,16.1-3.8,17.7-9.3c0,0,9.4-39.3,9.6-53.4
	c0-3.3-1.7-13.3-1.7-13.3l-4.2-23.3c0,0-2.9-11-20.9-12.3c-20.6-1.5-21,5.6-21,5.6s-6.6,37-6.4,48.7
	C326.8,667.3,335.2,703.5,335.2,703.5z"/>
<path class="st5" d="M476.3,699.7c0.5,5.9-5.8,10.9-14.7,11.6l0,0c-8.5,0.7-17-2.6-20.3-7.9c0,0-21.2-38.1-25.7-52.1
	c-1.1-3.3-2.4-13.3-2.4-13.3l-2.9-23.3c0,0-0.4-11.1,16.9-13.8c19.9-3.1,22.4,4,22.4,4s17.7,36,21.1,47.6
	C473.6,663.3,476.3,699.7,476.3,699.7z"/>
<path class="st4" d="M503.3,792.6c-1.9,1.2-3.8,2.1-5.9,2.8"/>
<path class="st4" d="M498.4,790.5c-1.9,1.2-3.8,2.1-5.9,2.8"/>
<path class="st2" d="M361.3,570.3c-16.7-0.3-31.1,11.7-33.8,28.2c-7.3,44.6,2,75.4,2.8,112.6c4.8,16.6,48.9,13.6,48.9,13.6
	s19.1-77,16.5-81.1c-0.5-0.8,40.2,36.3,45.4,80.6c1.4,12,49.2-8.6,44.3-20.4l-25.9-109.7c-4.8-12.9-19.9-22.1-33.7-22.4L361.3,570.3
	z"/>
</svg>
