<?xml version="1.0" encoding="utf-8"?>
<!-- Generator: Adobe Illustrator 26.0.3, SVG Export Plug-In . SVG Version: 6.00 Build 0)  -->
<svg version="1.1" id="Calque_1" xmlns="http://www.w3.org/2000/svg" xmlns:xlink="http://www.w3.org/1999/xlink" x="0px" y="0px"
	 viewBox="0 0 788 1005" style="enable-background:new 0 0 788 1005;" xml:space="preserve">
<style type="text/css">
	.st0{fill:#90573A;}
	.st1{fill:#E8E0BF;}
	.st2{fill:#2E858E;}
</style>
<path class="st0" d="M348.9,701.1c-10.3,0.1-16.2,2.8-17.8,7.2c0,0,11,11.2,10.8,19.4c-0.4,13.2-4.5,29.1,0,42.1
	c1,2.8,0,30.7,0,30.7c0.7,2.6,5.1,4.4,10.1,4.3l0,0c4.9-0.1,8.9-2.1,9.2-4.6c0,0,2.8-24,3.5-27.3c2.5-11.9,0.9-25.6,1.5-37.6
	c0.3-7.2,2.8-25.3,2.8-25.3C367.7,702.6,357.7,701.2,348.9,701.1L348.9,701.1z"/>
<path class="st0" d="M466,697c10.1-0.7,5.8-10,8.6-5.7c0,0,14.6,64.3,17.3,72.5c4.3,13.2,8.1,30.4,8.1,30.4
	c0.1,2.6,10.2,7.3,5.3,7.6l-9.5-0.7c-4.9,0.3-10.9-0.8-11.9-3.3c0,0-21.3-50.6-25.4-62.6c-2.5-7.2-9.5-27.8-9.5-27.8
	C447.9,700,457.4,697.8,466,697L466,697z"/>
<path class="st1" d="M349.3,796L349.3,796c-4.6,0-8.7,1.4-10.7,3.5l0,0c-4.4,4.8-8.4,7.3-9.9,10.6c-0.7,1.4-0.5,4,0.3,6.2h28
	l2.6-0.4c3-0.5,4.9-1.9,4.6-3.5l-2.6-11.6C360.1,797.9,355.1,795.9,349.3,796z"/>
<path class="st1" d="M494,798.8c4.7-1.1,4.2-3.3,6-4.5c1.1-0.8,2.4-2,3.2-1.1c9,10.3,29.8,16,29.8,16c4.2,1.7,5.3,4.1,4.8,6.7l0,0
	c0,0-8.6,6.3-27.9,2.2c-3.9-0.8-12.6-1.5-12.6-1.5s-16.2,0.3-15.5-2.9l-0.5-16.6C482.3,793.5,485.8,800.7,494,798.8z"/>
<path class="st2" d="M340,795.5l24.5,0.3C363.9,793.5,392,654,392,654l0,0c0,0,39.2,62.6,42.7,67.2s42.6,75.7,42.6,75.7l0,0
	l24.2-6.9l-19.6-72l-1.5-7l-23.6-93l-5.8-26.3c0,0-109.1-9.2-109.1-3.4s-15.2,45.7-15.8,56.6C324.5,678,340,795.5,340,795.5"/>
<ellipse class="st2" cx="523.9" cy="806.2" rx="5.4" ry="5.4"/>
<path class="st1" d="M473.8,685.5l-57.9,6.2l-10.8-17.4c0,0,56.2-27.5,59.3-26.7C464.5,651.6,473.8,685.5,473.8,685.5z"/>
<circle class="st2" cx="344.8" cy="802.1" r="6"/>
</svg>
