<?xml version="1.0" encoding="utf-8"?>
<!-- Generator: Adobe Illustrator 26.0.3, SVG Export Plug-In . SVG Version: 6.00 Build 0)  -->
<svg version="1.1" id="Calque_1" xmlns="http://www.w3.org/2000/svg" xmlns:xlink="http://www.w3.org/1999/xlink" x="0px" y="0px"
	 viewBox="0 0 788 1005" style="enable-background:new 0 0 788 1005;" xml:space="preserve">
<style type="text/css">
	.st0{clip-path:url(#SVGID_00000168087809932223935060000011301251925126061242_);}
	.st1{fill:#854532;}
	.st2{clip-path:url(#SVGID_00000095296925008164175150000003873336061978078353_);}
	.st3{fill:#A85B3B;}
	.st4{fill:#AAA3A5;}
	.st5{fill:#0D314F;}
	.st6{fill:#CC3E78;}
</style>
<g>
	<g>
		<defs>
			<polygon id="SVGID_1_" points="429.7,176.4 429.7,176.4 446.1,176.4 446.1,209.3 429.7,209.3 			"/>
		</defs>
		<clipPath id="SVGID_00000085236120374761277980000002959672668520115105_">
			<use xlink:href="#SVGID_1_"  style="overflow:visible;"/>
		</clipPath>
		<g style="clip-path:url(#SVGID_00000085236120374761277980000002959672668520115105_);">
			<path class="st1" d="M429.7,209.3l3-28.2c0,0,6.6-7.8,12.2-3.2c3.8,3-3.1,28.2-7.5,29.5C430,209.5,429.7,209.3,429.7,209.3z"/>
		</g>
	</g>
</g>
<g>
	<g>
		<defs>
			<polygon id="SVGID_00000147934952975460842810000003751166098033907092_" points="358.3,176.4 358.3,176.4 341.9,176.4 
				341.9,209.3 358.3,209.3 			"/>
		</defs>
		<clipPath id="SVGID_00000107565143560076975300000007600390377282692737_">
			<use xlink:href="#SVGID_00000147934952975460842810000003751166098033907092_"  style="overflow:visible;"/>
		</clipPath>
		<g style="clip-path:url(#SVGID_00000107565143560076975300000007600390377282692737_);">
			<path class="st1" d="M358.3,209.3l-3-28.2c0,0-6.6-7.8-12.2-3.2c-3.8,3,3.1,28.2,7.5,29.5C358,209.5,358.3,209.3,358.3,209.3z"/>
		</g>
	</g>
</g>
<path class="st3" d="M377.3,247.9L364.4,234c-2.5-2.7-4.2-6-4.9-9.6l-4.1-20.1c-0.2-0.9-0.3-1.8-0.4-2.8l-1.4-22.8v-6.4
	c0-21.5,17.4-38.9,38.9-38.9h1.5c21.5,0,38.9,17.4,38.9,38.9v6.4l-1.4,22.8c-0.1,0.9-0.2,1.8-0.4,2.8l-4.1,20.1
	c-0.7,3.6-2.4,6.9-4.9,9.6l-12.9,13.9c-3.8,4.1-9.1,6.4-14.7,6.4h-2.6C386.4,254.3,381.1,252,377.3,247.9z"/>
<path class="st4" d="M429.6,148.6c12,10.4,6.6,29.5,6.6,29.5l-3.9,10.8c0,0,0.8-5.3-6.2-20.4c-1.7-3.5,1.9-13-0.2-16.6
	c-4.6-7.9-9.4-11.1-9.4-11.1S421.6,141.6,429.6,148.6z"/>
<path class="st4" d="M356.9,148.3c-12,10.2-6.6,29-6.6,29l3.9,10.7c0,0-0.8-5.2,6.2-20c1.7-3.5-1.9-12.8,0.2-16.4
	c4.6-7.8,9.4-10.9,9.4-10.9S364.9,141.4,356.9,148.3z"/>
<path class="st4" d="M402.8,123.6c1.5-2.1,2.9-4.1,4.4-6.2c-1.8,7.5,3.7,8.4,8.8,10.3c3.1,1.2,6.1,3.2,8.4,5.6
	c8.5,8.7,6.5,17-6.4,25.2c0.9-2.4,1.5-4.2,2.8-7.7c-19,15.7-37.1,13-56.2,0.3c1.4,3,2.3,5,3.3,7.3c-10.2-3.4-13.2-10-9.2-18.9
	c3.7-8.2,10.9-11.8,19.1-14c2.6-0.7,5.2-1.1,7.8-1.7c-6.6-10.6-6.9-17.4-1.1-22.8c4.6-4.3,12.8-5,17.7-1.4c6.2,4.5,6,9.9-0.7,22.8
	C401.9,122.8,402.3,123.2,402.8,123.6z"/>
<path class="st5" d="M402,124h-17.5c-0.7,0-1.3-0.6-1.3-1.3l0,0c0-0.7,0.6-1.3,1.3-1.3h17.4c0.7,0,1.3,0.6,1.3,1.3l0,0
	C403.2,123.4,402.7,124,402,124z"/>
<path class="st6" d="M401.9,121.8h-17.4c-0.7,0-1.3-0.6-1.3-1.3l0,0c0-0.7,0.6-1.3,1.3-1.3h17.4c0.7,0,1.3,0.6,1.3,1.3l0,0
	C403.2,121.2,402.6,121.8,401.9,121.8z"/>
</svg>
