<?xml version="1.0" encoding="utf-8"?>
<!-- Generator: Adobe Illustrator 26.0.3, SVG Export Plug-In . SVG Version: 6.00 Build 0)  -->
<svg version="1.1" id="Layer_1" xmlns="http://www.w3.org/2000/svg" xmlns:xlink="http://www.w3.org/1999/xlink" x="0px" y="0px"
	 viewBox="0 0 188 202.1" style="enable-background:new 0 0 188 202.1;" xml:space="preserve">
<style type="text/css">
	.st0{clip-path:url(#SVGID_00000007425723569052500420000017239539151889246865_);}
	.st1{fill:#854532;}
	.st2{clip-path:url(#SVGID_00000019662236974806288630000011109428772678587325_);}
	.st3{fill:#A85B3B;}
	.st4{fill:#AAA3A5;}
	.st5{fill:#277A9B;}
	.st6{fill:#22677C;}
</style>
<g id="Calque_1">
	<g id="random">
		<g>
			<g>
				<defs>
					<polygon id="SVGID_1_" points="130.2,93.2 130.2,93.2 146.6,93.2 146.6,126.1 130.2,126.1 					"/>
				</defs>
				<clipPath id="SVGID_00000111165921894840597180000018325740082796062886_">
					<use xlink:href="#SVGID_1_"  style="overflow:visible;"/>
				</clipPath>
				<g style="clip-path:url(#SVGID_00000111165921894840597180000018325740082796062886_);">
					<path class="st1" d="M130.2,126.1l3-28.2c0,0,6.6-7.8,12.2-3.2c3.8,3-3.1,28.2-7.5,29.5C130.5,126.3,130.2,126.1,130.2,126.1z"
						/>
				</g>
			</g>
		</g>
	</g>
	<g id="random2">
		<g>
			<g>
				<defs>
					<polygon id="SVGID_00000065774302243347141350000002657533712733346230_" points="58.8,93.2 58.8,93.2 42.4,93.2 42.4,126.1 
						58.8,126.1 					"/>
				</defs>
				<clipPath id="SVGID_00000032645405728439878550000012482055122075721110_">
					<use xlink:href="#SVGID_00000065774302243347141350000002657533712733346230_"  style="overflow:visible;"/>
				</clipPath>
				<g style="clip-path:url(#SVGID_00000032645405728439878550000012482055122075721110_);">
					<path class="st1" d="M58.8,126.1l-3-28.2c0,0-6.6-7.8-12.2-3.2c-3.8,3,3.1,28.2,7.5,29.5C58.5,126.3,58.8,126.1,58.8,126.1z"/>
				</g>
			</g>
		</g>
	</g>
	<path class="st3" d="M79,165l-13.3-14.3c-2.4-2.6-4-5.8-4.7-9.2l-4.2-20.4c-0.2-0.9-0.3-1.8-0.4-2.6L55,95.6v-6.4
		c0-21.5,17.4-38.9,38.9-38.9h1.5c21.5,0,38.9,17.4,38.9,38.9v6.4l-1.4,22.9c-0.1,0.9-0.2,1.8-0.4,2.6l-4.2,20.4
		c-0.7,3.5-2.3,6.7-4.7,9.2L110.5,165c-3.6,3.9-8.8,6.2-14.1,6.2h-3.2C87.8,171.1,82.7,168.9,79,165z"/>
</g>
<path class="st4" d="M55.6,104.8c0,0-0.6-13.8,0.9-18c2-5.9,6.1-16,11.6-18.2c5.9-2.3,21.1,1.6,27.4,1.8c5.9,0.1,18-5.1,23.6-3
	c3.5,1.3,8,8.7,9.6,12.3c2.9,6.5,5.2,28.2,5.2,28.2s3.5-20.2,2-27.6c-1.4-6.5-9.7-20.6-14.7-24.6s-18.1-5.9-24.3-6.6
	c-6.2-0.7-19.2,0.9-25,3.6C66.4,55.2,58,65.1,55,70.6c-1.8,3.3-3.8,11-3.7,14.8C51.5,90.4,55.6,104.8,55.6,104.8z"/>
<g>
	<path class="st5" d="M135.6,73.6c-1.1,4.1-0.6,8.7-2.1,13c-0.7,1.8-2,2.3-4.2,2.2c-2.6-0.2-5.2-1-7.7-1.7
		c-3.5-0.9-7.1-1.8-10.6-2.8c-9.8-2.9-19.3-2.4-29.2-0.3c-6.7,1.6-13.3,3.4-20.2,4.4c-5.4,0.9-6.3,0.4-7.5-3.8c-0.3-1-0.4-2-0.7-3
		c-0.5-3-0.4-6.2-1.4-9.2l16.5-2.2c17.2-2.2,34.8-2,51.9,0.8L135.6,73.6z"/>
	<path class="st6" d="M135.5,74.7c0.2-0.9,0.4-1.8,0.9-2.5c-0.9-9.1-3-17.5-6.6-25.6c-2.3-5.3-6.6-8.6-12.5-10.7
		c-2.8-1-5.8-1.7-8.7-2.3c-4.4-1-9.2-0.4-13.4-2.3c-1-0.5-2.2-0.2-2.9,0.4c-1.2,0.9-2.4,0.9-3.8,1c-4.7,0.2-9.2,1.1-13.6,2.2
		c-7.6,2.1-13.7,5.8-16.3,12.8c-2.1,5.4-3.9,10.8-5,16.5c-0.5,3.2-2.1,6.4-1,9.6l14.8-2.1c18.6-2.5,37.4-2.1,55.9,1L135.5,74.7z"/>
</g>
</svg>
