<?xml version="1.0" encoding="utf-8"?>
<!-- Generator: Adobe Illustrator 26.0.3, SVG Export Plug-In . SVG Version: 6.00 Build 0)  -->
<svg version="1.1" id="Layer_1" xmlns="http://www.w3.org/2000/svg" xmlns:xlink="http://www.w3.org/1999/xlink" x="0px" y="0px"
	 viewBox="0 0 788 1005" style="enable-background:new 0 0 788 1005;" xml:space="preserve">
<style type="text/css">
	.st0{clip-path:url(#SVGID_00000115485907415340920150000003425952390029107329_);}
	.st1{fill:#854532;}
	.st2{clip-path:url(#SVGID_00000140695479720972339590000005689221847580415365_);}
	.st3{fill:#A85B3B;}
	.st4{fill:#AAA3A5;}
</style>
<g>
	<g>
		<defs>
			<polygon id="SVGID_1_" points="356.6,177 356.6,177 340.3,177 340.3,209.9 356.6,209.9 			"/>
		</defs>
		<clipPath id="SVGID_00000098214724099218593330000000361622061236376492_">
			<use xlink:href="#SVGID_1_"  style="overflow:visible;"/>
		</clipPath>
		<g style="clip-path:url(#SVGID_00000098214724099218593330000000361622061236376492_);">
			<path class="st1" d="M356.6,209.9l-3-28.2c0,0-6.6-7.8-12.2-3.2c-3.8,3,3.1,28.2,7.5,29.5C356.3,210.1,356.6,209.9,356.6,209.9z"
				/>
		</g>
	</g>
</g>
<g>
	<g>
		<defs>
			<polygon id="SVGID_00000152969111538634311920000000928901081850329477_" points="429.7,177 429.7,177 446.1,177 446.1,209.9 
				429.7,209.9 			"/>
		</defs>
		<clipPath id="SVGID_00000152952803328398575380000000328158133491144615_">
			<use xlink:href="#SVGID_00000152969111538634311920000000928901081850329477_"  style="overflow:visible;"/>
		</clipPath>
		<g style="clip-path:url(#SVGID_00000152952803328398575380000000328158133491144615_);">
			<path class="st1" d="M429.7,209.9l3-28.2c0,0,6.6-7.8,12.2-3.2c3.8,3-3.1,28.2-7.5,29.5C430,210.1,429.7,209.9,429.7,209.9z"/>
		</g>
	</g>
</g>
<path class="st3" d="M383.2,254.9l-22.6-24.4l-5.5-27l-1.5-24.2v-6.4c0-21.5,17.4-38.9,38.9-38.9h1.4c21.5,0,38.9,17.4,38.9,38.9
	v6.4l-1.5,24.2l-5.5,27l-22.6,24.4L383.2,254.9L383.2,254.9z"/>
<path class="st4" d="M429.6,149.2c12,10.4,6.6,29.5,6.6,29.5l-3.9,10.8c0,0,0.8-5.3-6.2-20.4c-1.7-3.5,1.9-13-0.2-16.6
	c-4.6-7.9-9.4-11.1-9.4-11.1S421.6,142.2,429.6,149.2z"/>
<path class="st4" d="M356.9,148.9c-12,10.2-6.6,29-6.6,29l3.9,10.7c0,0-0.8-5.2,6.2-20c1.7-3.5-1.9-12.8,0.2-16.3
	c4.6-7.8,9.3-10.9,9.3-10.9S364.9,142,356.9,148.9z"/>
<path class="st4" d="M376.2,217.7L355.7,206c0.3,1.1,2.1,20.3,3.2,31.8c0.5,5.3,3.6,10.1,8.4,12.6l18.5,10.1
	c4.8,2.6,10.5,2.6,15.3,0.1c5.5-2.9,12.8-6.8,18.3-9.7c4.8-2.5,8-7.3,8.5-12.7c1.2-12.2,3.3-33,3.1-32.2
	c-0.2,1.1-20.1,11.5-20.1,11.5s-13.5-2.5-16.8-2.7C390.9,214.6,376.2,217.7,376.2,217.7 M410.4,226.3l-0.6,3.6
	c-0.5,3.3-3,5.9-6.2,6.7l-9.6,2.3c-1.7,0.4-3.4,0.3-5-0.4l-7.4-2.9c-2.5-1-4.4-3.2-5-5.9l-0.8-3.5 M375.7,226.3l17.7-3.2l17,3.2"/>
<polygon class="st3" points="410.4,226.3 375.7,226.3 374.9,211.6 411.4,211.6 "/>
</svg>
