<?xml version="1.0" encoding="utf-8"?>
<!-- Generator: Adobe Illustrator 26.0.3, SVG Export Plug-In . SVG Version: 6.00 Build 0)  -->
<svg version="1.1" id="Layer_1" xmlns="http://www.w3.org/2000/svg" xmlns:xlink="http://www.w3.org/1999/xlink" x="0px" y="0px"
	 viewBox="0 0 188 202.1" style="enable-background:new 0 0 188 202.1;" xml:space="preserve">
<style type="text/css">
	.st0{fill:#353535;}
	.st1{fill:#D48F72;}
	.st2{clip-path:url(#SVGID_00000128483760429344067690000009784782819911214247_);}
	.st3{fill:#A85B3B;}
	.st4{clip-path:url(#SVGID_00000074415599676644131460000003643911548878812328_);}
	.st5{clip-path:url(#SVGID_00000160149594008890888100000013413408605947071419_);}
	.st6{fill:#854532;}
	.st7{clip-path:url(#SVGID_00000140016282964239592960000010502069129519307951_);}
	.st8{fill:#AAA3A5;}
</style>
<path class="st0" d="M61,94.8L37.6,77c-1.2-0.9-2.8-0.7-3.7,0.4l-3,3.7c-1,1.2-0.7,3.1,0.7,4l24.1,15.1L56,93l-18.7,11.8
	c-1.3,0.9-1.7,2.8-0.6,4l2.9,3.5c0.9,1.1,2.5,1.3,3.6,0.5L64,98.3L61,94.8z"/>
<polygon class="st1" points="127.6,68.3 140.1,80.3 137.7,91.1 127.6,88.9 "/>
<g id="Calque_1">
	<g id="random">
		<g>
			<g>
				<defs>
					<polygon id="SVGID_1_" points="140.1,109.9 140.1,109.9 156.5,109.9 156.5,142.9 140.1,142.9 					"/>
				</defs>
				<clipPath id="SVGID_00000002362675605865454120000017413409836612742530_">
					<use xlink:href="#SVGID_1_"  style="overflow:visible;"/>
				</clipPath>
				<g style="clip-path:url(#SVGID_00000002362675605865454120000017413409836612742530_);">
					<path class="st3" d="M140.1,142.9l3-28.2c0,0,6.6-7.8,12.2-3.2c3.8,3-3.1,28.2-7.5,29.5C140.4,143,140.1,142.9,140.1,142.9z"/>
				</g>
			</g>
		</g>
	</g>
	<g id="random2">
		<g>
			<g>
				<defs>
					<polygon id="SVGID_00000023272933876081489320000011791774361258218648_" points="68.7,109.9 68.7,109.9 52.3,109.9 
						52.3,142.9 68.7,142.9 					"/>
				</defs>
				<clipPath id="SVGID_00000029752757171348701860000011135695555819759285_">
					<use xlink:href="#SVGID_00000023272933876081489320000011791774361258218648_"  style="overflow:visible;"/>
				</clipPath>
				<g style="clip-path:url(#SVGID_00000029752757171348701860000011135695555819759285_);">
					<path class="st3" d="M68.7,142.9l-3-28.2c0,0-6.6-7.8-12.2-3.2c-3.8,3,3.1,28.2,7.5,29.5C68.4,143,68.7,142.9,68.7,142.9z"/>
				</g>
			</g>
		</g>
	</g>
</g>
<g id="Calque_5">
	<g>
		<g>
			<defs>
				<polygon id="SVGID_00000100374770516637162410000001872889130472872635_" points="140.1,109.9 140.1,109.9 156.5,109.9 
					156.5,142.9 140.1,142.9 				"/>
			</defs>
			<clipPath id="SVGID_00000011750663333312106570000014460655398220026275_">
				<use xlink:href="#SVGID_00000100374770516637162410000001872889130472872635_"  style="overflow:visible;"/>
			</clipPath>
			<g style="clip-path:url(#SVGID_00000011750663333312106570000014460655398220026275_);">
				<path class="st6" d="M140.1,142.9l3-28.2c0,0,6.6-7.8,12.2-3.2c3.8,3-3.1,28.2-7.5,29.5C140.4,143,140.1,142.9,140.1,142.9z"/>
			</g>
		</g>
	</g>
	<g>
		<g>
			<defs>
				<polygon id="SVGID_00000004538052878898881560000000147523885704883874_" points="68.7,109.9 68.7,109.9 52.3,109.9 52.3,142.9 
					68.7,142.9 				"/>
			</defs>
			<clipPath id="SVGID_00000055707425920535547730000011049762797395926918_">
				<use xlink:href="#SVGID_00000004538052878898881560000000147523885704883874_"  style="overflow:visible;"/>
			</clipPath>
			<g style="clip-path:url(#SVGID_00000055707425920535547730000011049762797395926918_);">
				<path class="st6" d="M68.7,142.9l-3-28.2c0,0-6.6-7.8-12.2-3.2c-3.8,3,3.1,28.2,7.5,29.5C68.4,143,68.7,142.9,68.7,142.9z"/>
			</g>
		</g>
	</g>
	<path class="st3" d="M87.6,181.4l-12.8-13.8c-2.5-2.7-4.2-6.1-5-9.7l-4.1-20.1c-0.2-0.9-0.3-1.8-0.4-2.8l-1.4-22.8v-6.3
		c0-21.5,17.4-38.9,38.8-39h0.1h1.5c21.5,0,38.9,17.4,38.9,38.9v6.3l-1.4,22.8c-0.1,0.9-0.2,1.9-0.4,2.8l-4.1,20.1
		c-0.7,3.6-2.5,7-5,9.7l-12.8,13.9c-3.8,4.1-9.1,6.4-14.7,6.4h-2.5C96.8,187.8,91.5,185.5,87.6,181.4z"/>
</g>
<path class="st8" d="M107.8,80c0,0,19.8-0.4,21.7,1.2c1.5,1.3,2.5,8.6,2.7,10.8c0,0.4,0.2,0.8,0.5,1.1l7.8,6.9
	c0.3,0.2,0.4,0.6,0.5,1l0.8,18c0.2,1.2-0.3,2.7,0.5,1.9c1-0.6,2.9-1.5,2.7-1.2c4.1-45.7-6.5-55-9.6-56.3c-0.4-0.2-0.8-0.5-0.9-1
	c-0.6-2.2-3-8.4-9.2-12.1c-0.5-0.3-0.9-1.1-0.6-1.8c1.2-4.5,7.4-19.7,6.4-23.4c-0.6-2.9-6.1,4.9-7.8,9.7c-0.2,0.8-1.3-0.6-1.4-1.4
	c-3.7-13.5,13.3-14.9,15.5-18.1c0.9-1.2-19.2-1-21,8.1c-0.2,0.8-1.2,0.8-1.3-0.1c-0.2-2.7-0.5-5.5-1.3-6.6c-1.2-1.7-3.5,3.8-4.5,6.6
	c-0.2,0.5-1,0.5-1.2,0c-0.9-2.1-2.5-5.4-4-5.1c-1.3,0.2-0.1,9,1.1,15.5c0.1,0.8-0.9,1.2-1.2,0.4c-1.4-2.8-3.2-5.5-5.2-5
	c-3.8,1,5.2,14.8,6.4,16.6c0.1,0.1,0.1,0.2,0.2,0.3l0.4,1.2c0.3,1.1-0.4,2.3-1.4,2.2l-2.6-0.2c-0.3,0-0.5-0.1-0.8-0.3
	C98.6,47,84.6,35.7,81.7,35.3c-2.7-0.4-1.6,6.9,7,13c1.2,0.9,0.8,2.9-0.8,3l0,0c-0.2,0-0.4-0.1-0.6-0.2c-2.3-1.3-15.6-8.7-21-4.5
	c-1,0.8-0.8,2.5,0.4,2.8c0.6,0.2,1.3,0.4,2.1,0.6c1.4,0.4,1.4,2.7,0,3.1c-3.2,0.9-6.7,2.5-8.1,5.6c-2.8,6.4,15-3.7,17-3.1
	c1.6,0.4-2.3,4.2-3.9,5.6c-0.3,0.3-0.9,0.4-1.3,0.3c-3.9-1.2-22.5-6.9-23.9-2.2c-1,3.2,5.6,5.4,11.1,6.6c1.4,0.3,1.6,2.6,0.1,3.1
	c-6.3,2.4-14.9,7-16,15.2c-0.2,1.5,1.4,2.4,2.4,1.3c2.2-2.2,5.7-5.5,10.1-7.7c1.4-0.6,2.7,1,1.8,2.4c-4.1,6.5-10.5,18.9-4.7,27.1
	c2.4,2.6,5.7-11.6,7.7-20.8c0.3-1.6-1.5-2.7-2.5-1.4c-2.6,3.5-6.3,7.4-10.5,8.6c-1.1,0.3-1.4,1.8-0.6,2.7c2.4,2.5,9.9,3.1,16.6-14
	c0,0-5.5,14.4-4.9,18.6c0.5,3.7,4,15.4,4.5,18.2c0.1,0.4,0.2,0.3,0.4,0.5l1.4,1.5l1.5-22.7c0-0.4,0.2-0.8,0.5-1l4.1-3.7
	c0.3-0.3,0.5-0.9,0.5-1.3c-0.1-2.1,0-7.3,2.5-8.8C78,81.8,107.8,80,107.8,80z"/>
<path class="st0" d="M124.6,48.1h-18.4c-0.3,0-0.6-0.3-0.6-0.6v-0.2c0-0.3,0.3-0.6,0.6-0.6h18.5c0.3,0,0.6,0.3,0.6,0.6v0.2
	C125.3,47.7,125,48.1,124.6,48.1z"/>
<path class="st0" d="M124.6,50.1h-18.4c-0.3,0-0.6-0.3-0.6-0.6v-0.8c0-0.3,0.3-0.6,0.6-0.6h18.5c0.3,0,0.6,0.3,0.6,0.6v0.8
	C125.3,49.8,125,50.1,124.6,50.1z"/>
<path class="st0" d="M67.3,99l11.6-5.1c14.4-6.3,30.8-6.6,45.3-0.7l14.3,5.8c2.7,1.1,5.7,4,6.4,1.1l0.7-3.2
	c0.9-3.8-7.4-20.5-14.6-26.5c-5.1-4.2-11.1-6.8-17.5-7.7c-6.2-0.7-12.1-0.8-18.1-0.2c-5.7,0.6-11.1,2.8-15.8,6.2
	c-9,6.4-20.8,25.6-19.9,28.6l1.1,3.2C61.7,103.2,64.7,100.1,67.3,99z"/>
</svg>
