<?xml version="1.0" encoding="utf-8"?>
<!-- Generator: Adobe Illustrator 26.0.3, SVG Export Plug-In . SVG Version: 6.00 Build 0)  -->
<svg version="1.1" id="Calque_1" xmlns="http://www.w3.org/2000/svg" xmlns:xlink="http://www.w3.org/1999/xlink" x="0px" y="0px"
	 viewBox="0 0 188 202.1" style="enable-background:new 0 0 188 202.1;" xml:space="preserve">
<style type="text/css">
	.st0{clip-path:url(#SVGID_00000002369636967850947070000000173070011729680775_);}
	.st1{fill:#854532;}
	.st2{clip-path:url(#SVGID_00000065043874713929832210000015508022266525889458_);}
	.st3{fill:#A85B3B;}
</style>
<g>
	<g>
		<g>
			<defs>
				<polygon id="SVGID_1_" points="129.7,86.8 129.7,86.8 146.1,86.8 146.1,119.7 129.7,119.7 				"/>
			</defs>
			<clipPath id="SVGID_00000121978059178794615560000002436655518201819060_">
				<use xlink:href="#SVGID_1_"  style="overflow:visible;"/>
			</clipPath>
			<g style="clip-path:url(#SVGID_00000121978059178794615560000002436655518201819060_);">
				<path class="st1" d="M129.7,119.7l3-28.2c0,0,6.6-7.8,12.2-3.2c3.8,3-3.1,28.2-7.5,29.5C130,119.9,129.7,119.7,129.7,119.7z"/>
			</g>
		</g>
	</g>
	<g>
		<g>
			<defs>
				<polygon id="SVGID_00000116197976301789827150000000928426624801870226_" points="58.3,86.8 58.3,86.8 41.9,86.8 41.9,119.7 
					58.3,119.7 				"/>
			</defs>
			<clipPath id="SVGID_00000163053529877337346220000005395974415156813716_">
				<use xlink:href="#SVGID_00000116197976301789827150000000928426624801870226_"  style="overflow:visible;"/>
			</clipPath>
			<g style="clip-path:url(#SVGID_00000163053529877337346220000005395974415156813716_);">
				<path class="st1" d="M58.3,119.7l-3-28.2c0,0-6.6-7.8-12.2-3.2c-3.8,3,3.1,28.2,7.5,29.5C58,119.9,58.3,119.7,58.3,119.7z"/>
			</g>
		</g>
	</g>
	<path class="st3" d="M77.3,158.3l-12.8-13.9c-2.5-2.7-4.2-6-4.9-9.6l-4.1-20.1c-0.2-0.9-0.3-1.8-0.4-2.8l-1.4-22.8v-6.4
		c0-21.5,17.4-38.9,38.9-38.9H94c21.5,0,38.9,17.4,38.9,38.9v6.4l-1.4,22.8c-0.1,0.9-0.2,1.9-0.4,2.8l-4.1,20.1
		c-0.7,3.6-2.4,6.9-4.9,9.6l-12.9,13.9c-3.8,4.1-9.1,6.4-14.7,6.4H92C86.4,164.7,81.1,162.4,77.3,158.3z"/>
</g>
</svg>
