<?xml version="1.0" encoding="utf-8"?>
<!-- Generator: Adobe Illustrator 26.0.3, SVG Export Plug-In . SVG Version: 6.00 Build 0)  -->
<svg version="1.1" id="Layer_1" xmlns="http://www.w3.org/2000/svg" xmlns:xlink="http://www.w3.org/1999/xlink" x="0px" y="0px"
	 viewBox="0 0 788 1005" style="enable-background:new 0 0 788 1005;" xml:space="preserve">
<style type="text/css">
	.st0{clip-path:url(#SVGID_00000132056527189198118150000012865194443289446589_);}
	.st1{fill:#854532;}
	.st2{clip-path:url(#SVGID_00000041264787044245431930000000622982632321792640_);}
	.st3{fill:#A85B3B;}
	.st4{fill:#AAA3A5;}
</style>
<g>
	<g>
		<g>
			<defs>
				<polygon id="SVGID_1_" points="429.7,177 429.7,177 446.1,177 446.1,210 429.7,210 				"/>
			</defs>
			<clipPath id="SVGID_00000109721382176445326600000008985311196252492467_">
				<use xlink:href="#SVGID_1_"  style="overflow:visible;"/>
			</clipPath>
			<g style="clip-path:url(#SVGID_00000109721382176445326600000008985311196252492467_);">
				<path class="st1" d="M429.7,210l3-28.2c0,0,6.6-7.8,12.2-3.2c3.8,3-3.1,28.2-7.5,29.5C430,210.1,429.7,210,429.7,210z"/>
			</g>
		</g>
	</g>
</g>
<g>
	<g>
		<g>
			<defs>
				<polygon id="SVGID_00000153666277568261177250000003042108574737421460_" points="358.3,177 358.3,177 341.9,177 341.9,210 
					358.3,210 				"/>
			</defs>
			<clipPath id="SVGID_00000080919508637855330910000015903518634770181553_">
				<use xlink:href="#SVGID_00000153666277568261177250000003042108574737421460_"  style="overflow:visible;"/>
			</clipPath>
			<g style="clip-path:url(#SVGID_00000080919508637855330910000015903518634770181553_);">
				<path class="st1" d="M358.3,210l-3-28.2c0,0-6.6-7.8-12.2-3.2c-3.8,3,3.1,28.2,7.5,29.5C358,210.1,358.3,210,358.3,210z"/>
			</g>
		</g>
	</g>
</g>
<path class="st3" d="M377.2,248.4l-12.8-13.8c-2.5-2.7-4.2-6.1-5-9.7l-4.1-20.1c-0.2-0.9-0.3-1.8-0.4-2.8l-1.4-22.8v-0.1V173
	c0-21.5,17.4-38.9,38.8-39h0.1l0,0c22.3,0,40.4,18.1,40.4,40.4v4.8v0.1l-1.4,22.8c-0.1,0.9-0.2,1.9-0.4,2.8l-4.1,20.1
	c-0.7,3.6-2.5,7-5,9.7l-12.8,13.8c-3.8,4.1-9.2,6.5-14.8,6.5h-2.4C386.5,254.9,381.1,252.6,377.2,248.4z"/>
<g>
	<g id="Calque_6_00000138574580992109259530000004055695868823735972_">
		<path class="st4" d="M414.5,142.7c0,0-13.3,7.2-19.7,10.4c-5.5,2.8-20.6,0.9-20.6,0.9s-11.9,6.6-15.1,9.5
			c-6.6,5.9-7.9,15.1-7.9,15.1s-7.5-19.3-3.4-29.5c-1.6,1.3,26.6-26.4,26.6-26.4s10.3-7.3,21.6-5.8c14.9,1.9,20.3,10,20.3,10
			s11.6-4.3,20.7,7.9c7,9.1,3.9,20.5,3.9,20.5l-5.9,22.4c0,0-2.6-14.9-3.1-17.6c-0.4-1.6-2.4-1.7-3.4-2.9c0,0-6.4-6.7-9-12
			C418.8,143.6,414.5,142.7,414.5,142.7z"/>
	</g>
	<path class="st4" d="M415.9,132.2l-15-15.3c-0.1-0.1-0.1-0.1-0.2-0.2c-2-1.1-26.8-14.5-38.6-4.1c-0.7,0.6-0.3,1.6,0.4,1.8
		c2.7,0.7,8,1.6,12.2,2.4c1.1,0.2,1.1,1.8,0.1,2c-9,2-25.3,7.4-31.4,21.8c-0.3,0.8,0.2,1.6,1.1,1.5c1.9-0.2,4.7-0.3,4.7-0.3
		s-15.5,5.9-14,10.5c0.2,0.6,0.9,0.9,1.5,0.6c0,0,0,0,0.1,0c1-0.4,2,0.7,1.2,1.6c-3,3.7-6.1,8.9-3,12c0.3,0.3,1,0.4,1.5,0.1
		c0.9-0.8,2.7-2.2,4.4-3.7c0.9-0.8,2.1,0.2,1.6,1.2c-3.9,7.1-9.1,18.8-1.9,21.8c0.6,0.2,1.1,0,1.3-0.6c0.4-1.1,1.3-3.4,2.2-5.6
		c0.4-1.1,2.1-0.7,2,0.4c-0.6,6.8,0.2,15.3,7.3,14c0.6-0.1,0.9-0.6,0.9-1c0-2.2-0.2-8.2-0.3-9.3c0-0.1,0-0.2,0-0.3
		c1-3,15.7-46.1,61.5-49.3C416.1,133.9,416.6,132.9,415.9,132.2z"/>
	<path class="st4" d="M412,135.4c-1.5-8.7-3.5-27.8,7.2-26.7c0.9,0.1,1.5,0.9,1.3,1.8c-0.1,1.3-0.4,3.3-0.8,5.2
		c-0.2,1.6,1.7,2.5,2.7,1.3c4.8-4.9,13-11.3,17.4-2.2c0.3,0.7,0.1,1.6-0.6,2c-1.7,1.1-5,3.5-8.3,5.6c-1.3,0.9-0.7,2.9,0.9,2.9
		c0.6,0,1.1,0,1.7,0.1c2,0.3,1.5,3.4-0.6,3.1c-5-0.7-12.9-0.1-18.3,7.4C414.1,137.3,412.2,136.8,412,135.4z"/>
	<path class="st4" d="M414.5,142.7c0,0,32.6,1.8,34.3,30.6c0,0.9-1.5,1-2.2,0.4c-1.1-0.7-2.8-1.8-4.4-2.9c-1.3-0.9-2.9,0.4-2.4,1.9
		c2.5,6.4,4.7,16.7-5.4,16.7c-0.8,0-1.5-0.6-1.6-1.3c-0.3-2-0.9-6.1-1.6-9.9c-0.2-1.6-2.4-1.9-3-0.4c-0.2,0.6-0.6,1-0.8,1.5
		c-1.2,1.7-3.7-0.1-2.6-1.8C428,172.6,422.3,152,414.5,142.7z"/>
</g>
</svg>
