<?xml version="1.0" encoding="utf-8"?>
<!-- Generator: Adobe Illustrator 26.0.3, SVG Export Plug-In . SVG Version: 6.00 Build 0)  -->
<svg version="1.1" id="Layer_1" xmlns="http://www.w3.org/2000/svg" xmlns:xlink="http://www.w3.org/1999/xlink" x="0px" y="0px"
	 viewBox="0 0 788 1005" style="enable-background:new 0 0 788 1005;" xml:space="preserve">
<style type="text/css">
	.st0{fill:#353535;}
	.st1{fill:#D48F72;}
	.st2{clip-path:url(#SVGID_00000143606371646385315640000011167926580142811826_);}
	.st3{fill:#A85B3B;}
	.st4{clip-path:url(#SVGID_00000065052456416556855020000004931630067425732010_);}
	.st5{clip-path:url(#SVGID_00000092436233239043574120000013936864978302342300_);}
	.st6{fill:#854532;}
	.st7{clip-path:url(#SVGID_00000129897613525135118550000006758774658124742820_);}
	.st8{fill:#AAA3A5;}
</style>
<path class="st0" d="M350.6,161.9l-23.4-17.8c-1.2-0.9-2.8-0.7-3.7,0.4l-3,3.7c-1,1.2-0.7,3.1,0.7,4l24.1,15.1l0.3-7.2l-18.7,11.8
	c-1.3,0.9-1.7,2.8-0.6,4l2.9,3.5c0.9,1.1,2.5,1.3,3.6,0.5l20.8-14.5L350.6,161.9z"/>
<polygon class="st1" points="417.2,135.4 429.7,147.4 427.3,158.2 417.2,156 "/>
<g id="Calque_1">
	<g id="random">
		<g>
			<g>
				<defs>
					<polygon id="SVGID_1_" points="429.7,177 429.7,177 446.1,177 446.1,210 429.7,210 					"/>
				</defs>
				<clipPath id="SVGID_00000151524750988970226520000004705815035092060072_">
					<use xlink:href="#SVGID_1_"  style="overflow:visible;"/>
				</clipPath>
				<g style="clip-path:url(#SVGID_00000151524750988970226520000004705815035092060072_);">
					<path class="st3" d="M429.7,210l3-28.2c0,0,6.6-7.8,12.2-3.2c3.8,3-3.1,28.2-7.5,29.5C430,210.1,429.7,210,429.7,210z"/>
				</g>
			</g>
		</g>
	</g>
	<g id="random2">
		<g>
			<g>
				<defs>
					<polygon id="SVGID_00000013183989455984587090000016423434038337794693_" points="358.3,177 358.3,177 341.9,177 341.9,210 
						358.3,210 					"/>
				</defs>
				<clipPath id="SVGID_00000076593667338301491700000004394575399651389626_">
					<use xlink:href="#SVGID_00000013183989455984587090000016423434038337794693_"  style="overflow:visible;"/>
				</clipPath>
				<g style="clip-path:url(#SVGID_00000076593667338301491700000004394575399651389626_);">
					<path class="st3" d="M358.3,210l-3-28.2c0,0-6.6-7.8-12.2-3.2c-3.8,3,3.1,28.2,7.5,29.5C358,210.1,358.3,210,358.3,210z"/>
				</g>
			</g>
		</g>
	</g>
</g>
<g id="Calque_5">
	<g>
		<g>
			<defs>
				<polygon id="SVGID_00000036240868429782614420000010011530311693138088_" points="429.7,177 429.7,177 446.1,177 446.1,210 
					429.7,210 				"/>
			</defs>
			<clipPath id="SVGID_00000095316077464606633810000008540631704703332795_">
				<use xlink:href="#SVGID_00000036240868429782614420000010011530311693138088_"  style="overflow:visible;"/>
			</clipPath>
			<g style="clip-path:url(#SVGID_00000095316077464606633810000008540631704703332795_);">
				<path class="st6" d="M429.7,210l3-28.2c0,0,6.6-7.8,12.2-3.2c3.8,3-3.1,28.2-7.5,29.5C430,210.1,429.7,210,429.7,210z"/>
			</g>
		</g>
	</g>
	<g>
		<g>
			<defs>
				<polygon id="SVGID_00000018198641909250674480000012161578040563046806_" points="358.3,177 358.3,177 341.9,177 341.9,210 
					358.3,210 				"/>
			</defs>
			<clipPath id="SVGID_00000116215756268481438690000007335013576907319690_">
				<use xlink:href="#SVGID_00000018198641909250674480000012161578040563046806_"  style="overflow:visible;"/>
			</clipPath>
			<g style="clip-path:url(#SVGID_00000116215756268481438690000007335013576907319690_);">
				<path class="st6" d="M358.3,210l-3-28.2c0,0-6.6-7.8-12.2-3.2c-3.8,3,3.1,28.2,7.5,29.5C358,210.1,358.3,210,358.3,210z"/>
			</g>
		</g>
	</g>
	<path class="st3" d="M377.2,248.5l-12.8-13.8c-2.5-2.7-4.2-6.1-5-9.7l-4.1-20.1c-0.2-0.9-0.3-1.8-0.4-2.8l-1.4-22.8V173
		c0-21.5,17.4-38.9,38.8-39h0.1h1.5c21.5,0,38.9,17.4,38.9,38.9v6.3l-1.4,22.8c-0.1,0.9-0.2,1.9-0.4,2.8l-4.1,20.1
		c-0.7,3.6-2.5,7-5,9.7l-12.8,13.9c-3.8,4.1-9.1,6.4-14.7,6.4h-2.5C386.4,254.9,381.1,252.6,377.2,248.5z"/>
</g>
<path class="st8" d="M397.4,147.1c0,0,19.8-0.4,21.7,1.2c1.5,1.3,2.5,8.6,2.7,10.8c0,0.4,0.2,0.8,0.5,1.1l7.8,6.9
	c0.3,0.2,0.4,0.6,0.5,1l0.8,18c0.2,1.2-0.3,2.7,0.5,1.9c1-0.6,2.9-1.5,2.7-1.2c4.1-45.7-6.5-55-9.6-56.3c-0.4-0.2-0.8-0.5-0.9-1
	c-0.6-2.2-3-8.4-9.2-12.1c-0.5-0.3-0.9-1.1-0.6-1.8c1.2-4.5,7.4-19.7,6.4-23.4c-0.6-2.9-6.1,4.9-7.8,9.7c-0.2,0.8-1.3-0.6-1.4-1.4
	C407.8,87,424.8,85.6,427,82.4c0.9-1.2-19.2-1-21,8.1c-0.2,0.8-1.2,0.8-1.3-0.1c-0.2-2.7-0.5-5.5-1.3-6.6c-1.2-1.7-3.5,3.8-4.5,6.6
	c-0.2,0.5-1,0.5-1.2,0c-0.9-2.1-2.5-5.4-4-5.1c-1.3,0.2-0.1,9,1.1,15.5c0.1,0.8-0.9,1.2-1.2,0.4c-1.4-2.8-3.2-5.5-5.2-5
	c-3.8,1,5.2,14.8,6.4,16.6c0.1,0.1,0.1,0.2,0.2,0.3l0.4,1.2c0.3,1.1-0.4,2.3-1.4,2.2l-2.6-0.2c-0.3,0-0.5-0.1-0.8-0.3
	c-2.4-1.9-16.3-13.2-19.3-13.6c-2.7-0.4-1.6,6.9,7,13c1.2,0.9,0.8,2.9-0.8,3l0,0c-0.2,0-0.4-0.1-0.6-0.2c-2.3-1.3-15.6-8.7-21-4.5
	c-1,0.8-0.8,2.5,0.4,2.8c0.6,0.2,1.3,0.4,2.1,0.6c1.4,0.4,1.4,2.7,0,3.1c-3.2,0.9-6.7,2.5-8.1,5.6c-2.8,6.4,15-3.7,17-3.1
	c1.6,0.4-2.3,4.2-3.9,5.6c-0.3,0.3-0.9,0.4-1.3,0.3c-3.9-1.2-22.5-6.9-23.9-2.2c-1,3.2,5.6,5.4,11.1,6.6c1.4,0.3,1.6,2.6,0.1,3.1
	c-6.3,2.4-14.9,7-16,15.2c-0.2,1.5,1.4,2.4,2.4,1.3c2.2-2.2,5.7-5.5,10.1-7.7c1.4-0.6,2.7,1,1.8,2.4c-4.1,6.5-10.5,18.9-4.7,27.1
	c2.4,2.6,5.7-11.6,7.7-20.8c0.3-1.6-1.5-2.7-2.5-1.4c-2.6,3.5-6.3,7.4-10.5,8.6c-1.1,0.3-1.4,1.8-0.6,2.7c2.4,2.5,9.9,3.1,16.6-14
	c0,0-5.5,14.4-4.9,18.6c0.5,3.7,4,15.4,4.5,18.2c0.1,0.4,0.2,0.3,0.4,0.5l1.4,1.5l1.5-22.7c0-0.4,0.2-0.8,0.5-1l4.1-3.7
	c0.3-0.3,0.5-0.9,0.5-1.3c-0.1-2.1,0-7.3,2.5-8.8C367.6,148.9,397.4,147.1,397.4,147.1z"/>
<path class="st0" d="M414.2,115.1h-18.4c-0.3,0-0.6-0.3-0.6-0.6v-0.2c0-0.3,0.3-0.6,0.6-0.6h18.5c0.3,0,0.6,0.3,0.6,0.6v0.2
	C414.9,114.8,414.6,115.1,414.2,115.1z"/>
<path class="st0" d="M414.2,117.2h-18.4c-0.3,0-0.6-0.3-0.6-0.6v-0.8c0-0.3,0.3-0.6,0.6-0.6h18.5c0.3,0,0.6,0.3,0.6,0.6v0.8
	C414.9,116.9,414.6,117.2,414.2,117.2z"/>
<path class="st0" d="M356.9,166.1l11.6-5.1c14.4-6.3,30.8-6.6,45.3-0.7l14.3,5.8c2.7,1.1,5.7,4,6.4,1.1l0.7-3.2
	c0.9-3.8-7.4-20.5-14.6-26.5c-5.1-4.2-11.1-6.8-17.5-7.7c-6.2-0.7-12.1-0.8-18.1-0.2c-5.7,0.6-11.1,2.8-15.8,6.2
	c-9,6.4-20.8,25.6-19.9,28.6l1.1,3.2C351.3,170.3,354.3,167.2,356.9,166.1z"/>
</svg>
