<?xml version="1.0" encoding="utf-8"?>
<!-- Generator: Adobe Illustrator 26.0.3, SVG Export Plug-In . SVG Version: 6.00 Build 0)  -->
<svg version="1.1" id="Layer_1" xmlns="http://www.w3.org/2000/svg" xmlns:xlink="http://www.w3.org/1999/xlink" x="0px" y="0px"
	 viewBox="0 0 188 202.1" style="enable-background:new 0 0 188 202.1;" xml:space="preserve">
<style type="text/css">
	.st0{fill:none;stroke:#2E858E;stroke-width:3.0906;stroke-miterlimit:10;}
	.st1{fill:#A85B3B;}
	.st2{fill:#2E858E;}
	.st3{fill:#AAA3A5;}
</style>
<path class="st0" d="M41.4,89.8c-1.1-2.7-1.6-5.5-1.6-8.3c0-18.6,25.1-33.9,56-33.9s56,15.1,56,33.9c0,3-0.7,5.9-2,8.7"/>
<path class="st1" d="M79.3,160.5L65.9,146c-2.5-2.7-4.2-6.1-4.9-9.7l-4.2-20.9c-0.2-0.9-0.3-1.9-0.4-2.8l-1.4-23.5V89v-6.4
	c0-22.1,17.9-40.1,40-40.2H95l0,0c23,0,41.6,18.6,41.6,41.6V89v0.1l-1.4,23.5c-0.1,0.9-0.2,1.9-0.4,2.8l-4.2,20.9
	c-0.7,3.6-2.5,7-4.9,9.7l-13.5,14.5c-3.8,4.1-9.2,6.5-14.7,6.5h-3C88.6,167,83.1,164.7,79.3,160.5z"/>
<path class="st0" d="M54.4,125l-16.7,13.2c-2.8,2.3-2.3,6.6,1,8l11.3,4.9"/>
<circle class="st2" cx="54.4" cy="151.2" r="6.5"/>
<path class="st3" d="M55.5,109.8l-6.7-42.5c0,0,11.5-32.3,49.3-31.4c37.8,0.9,44.8,28.4,44.8,28.4l-6.7,42.9l-3.8-37.3
	c0,0-37.4-15.5-72-1.8L55.5,109.8z"/>
<g>
	<path class="st2" d="M57.2,125.7l-2,0.4c-2.1,0.4-4-0.9-4.3-2.9l-6.1-29.8c-0.4-2.1,0.9-4,2.9-4.3l2-0.4c2.1-0.4,4,0.9,4.3,2.9
		l6.1,29.8C60.5,123.2,59.1,125.2,57.2,125.7z"/>
	<path class="st2" d="M50.4,123.6l-3.9,0.8c-2.1,0.4-4-0.9-4.3-2.9l-4.7-23c-0.4-2.1,0.9-4,2.9-4.3l3.9-0.8L50.4,123.6z"/>
	<path class="st2" d="M39.2,87.6l2.4-1.3c0.5-0.3,1.2,0,1.3,0.5l1.6,8.1c0.1,0.4-0.2,0.9-0.5,1l0,0c-0.4,0.1-0.8,0-1-0.4l-4-6.8
		C38.6,88.5,38.7,88,39.2,87.6z"/>
</g>
<g>
	<path class="st2" d="M134.5,125.7l2,0.4c2.1,0.4,4-0.9,4.3-2.9l6.1-29.8c0.4-2.1-0.9-4-2.9-4.3l-2-0.4c-2.1-0.4-4,0.9-4.3,2.9
		l-6.1,29.8C131.1,123.2,132.5,125.2,134.5,125.7z"/>
	<path class="st2" d="M141.2,123.6l3.9,0.8c2.1,0.4,4-0.9,4.3-2.9l4.7-23c0.4-2.1-0.9-4-2.9-4.3l-3.9-0.8L141.2,123.6z"/>
	<path class="st2" d="M152.5,87.6l-2.4-1.3c-0.5-0.3-1.2,0-1.3,0.5l-1.6,8.1c-0.1,0.4,0.2,0.9,0.5,1l0,0c0.4,0.1,0.8,0,1-0.4l4-6.8
		C153.1,88.5,153,88,152.5,87.6z"/>
</g>
</svg>
