<?xml version="1.0" encoding="utf-8"?>
<!-- Generator: Adobe Illustrator 26.0.3, SVG Export Plug-In . SVG Version: 6.00 Build 0)  -->
<svg version="1.1" id="Calque_1" xmlns="http://www.w3.org/2000/svg" xmlns:xlink="http://www.w3.org/1999/xlink" x="0px" y="0px"
	 viewBox="0 0 188 202.1" style="enable-background:new 0 0 188 202.1;" xml:space="preserve">
<style type="text/css">
	.st0{clip-path:url(#SVGID_00000005260369764382818730000011661936308817576592_);}
	.st1{fill:#854532;}
	.st2{clip-path:url(#SVGID_00000013164803117297483840000005393813024073245582_);}
	.st3{fill:#A85B3B;}
	.st4{fill:#AAA3A5;}
</style>
<g>
	<g>
		<defs>
			<polygon id="SVGID_1_" points="133.1,82.5 133.1,82.5 150.8,82.5 150.8,118.2 133.1,118.2 			"/>
		</defs>
		<clipPath id="SVGID_00000174559945006395964630000007422376141176746892_">
			<use xlink:href="#SVGID_1_"  style="overflow:visible;"/>
		</clipPath>
		<g style="clip-path:url(#SVGID_00000174559945006395964630000007422376141176746892_);">
			<path class="st1" d="M133.1,118.2l3.2-30.5c0,0,7.1-8.4,13.2-3.5c4.1,3.2-3.4,30.5-8.1,31.9C133.4,118.3,133.1,118.2,133.1,118.2
				z"/>
		</g>
	</g>
</g>
<g>
	<g>
		<defs>
			<polygon id="SVGID_00000115483121968891711970000002250552274060064944_" points="55.9,82.5 55.9,82.5 38.2,82.5 38.2,118.2 
				55.9,118.2 			"/>
		</defs>
		<clipPath id="SVGID_00000034065542230244327060000009267942507307030403_">
			<use xlink:href="#SVGID_00000115483121968891711970000002250552274060064944_"  style="overflow:visible;"/>
		</clipPath>
		<g style="clip-path:url(#SVGID_00000034065542230244327060000009267942507307030403_);">
			<path class="st1" d="M55.9,118.2l-3.2-30.5c0,0-7.1-8.4-13.2-3.5c-4.1,3.2,3.4,30.5,8.1,31.9C55.6,118.3,55.9,118.2,55.9,118.2z"
				/>
		</g>
	</g>
</g>
<path class="st3" d="M76.3,159.7l-13.7-14.8c-2.7-2.9-4.6-6.6-5.4-10.6l-4.4-21.6c-0.2-1-0.3-2.1-0.4-3L50.8,85v-6.8
	c0-23.2,18.8-42.1,42-42.2h0.1h1.6c23.2,0,42.1,18.8,42.1,42.1v6.8l-1.5,24.7c-0.1,1-0.2,2.1-0.4,3l-4.4,21.6
	c-0.8,4-2.7,7.7-5.4,10.6L111,159.6c-4.1,4.4-9.9,7-16.1,7h-2.4C86.4,166.7,80.4,164.2,76.3,159.7z"/>
<path class="st4" d="M133,52.4c13,11.2,7.1,31.9,7.1,31.9L135.9,96c0,0,0.9-5.7-6.7-21.9c-1.8-3.8,2.1-14.1-0.2-17.9
	c-5-8.5-10.2-12-10.2-12S124.3,44.9,133,52.4z"/>
<path class="st4" d="M54.4,52.1c-13,11-7.1,31.4-7.1,31.4L51.5,95c0,0-0.9-5.6,6.7-21.6c1.8-3.8-2.1-13.8,0.2-17.7
	c5-8.4,10.2-11.8,10.2-11.8S63,44.6,54.4,52.1z"/>
<path class="st4" d="M104.1,172.3c-8.9,12.9,2.1,15.5-3.4,15.5s-19.2-18.5-19.2-25.2s7.2-1.3,12.7-2.3
	C100.1,159.3,115.5,155.8,104.1,172.3z"/>
</svg>
