<?xml version="1.0" encoding="utf-8"?>
<!-- Generator: Adobe Illustrator 26.0.3, SVG Export Plug-In . SVG Version: 6.00 Build 0)  -->
<svg version="1.1" id="Calque_1" xmlns="http://www.w3.org/2000/svg" xmlns:xlink="http://www.w3.org/1999/xlink" x="0px" y="0px"
	 viewBox="0 0 788 1005" style="enable-background:new 0 0 788 1005;" xml:space="preserve">
<style type="text/css">
	.st0{clip-path:url(#SVGID_00000070807058909591880740000011298527499763780535_);}
	.st1{fill:#854532;}
	.st2{clip-path:url(#SVGID_00000098921947006786348370000004714397001446152632_);}
	.st3{fill:#A85B3B;}
	.st4{fill:#AAA3A5;}
	.st5{fill:#B22947;}
	.st6{fill:#87213C;}
</style>
<g>
	<g>
		<defs>
			<polygon id="SVGID_1_" points="429.7,177 429.7,177 446.1,177 446.1,210 429.7,210 			"/>
		</defs>
		<clipPath id="SVGID_00000060021010975307746190000005077861578695846035_">
			<use xlink:href="#SVGID_1_"  style="overflow:visible;"/>
		</clipPath>
		<g style="clip-path:url(#SVGID_00000060021010975307746190000005077861578695846035_);">
			<path class="st1" d="M429.7,210l3-28.2c0,0,6.6-7.8,12.2-3.2c3.8,3-3.1,28.2-7.5,29.5C430,210.1,429.7,210,429.7,210z"/>
		</g>
	</g>
</g>
<g>
	<g>
		<defs>
			<polygon id="SVGID_00000072270064443218741160000015828730352378314943_" points="358.3,177 358.3,177 341.9,177 341.9,210 
				358.3,210 			"/>
		</defs>
		<clipPath id="SVGID_00000173138615635118855250000003974859569563546273_">
			<use xlink:href="#SVGID_00000072270064443218741160000015828730352378314943_"  style="overflow:visible;"/>
		</clipPath>
		<g style="clip-path:url(#SVGID_00000173138615635118855250000003974859569563546273_);">
			<path class="st1" d="M358.3,210l-3-28.2c0,0-6.6-7.8-12.2-3.2c-3.8,3,3.1,28.2,7.5,29.5C358,210.1,358.3,210,358.3,210z"/>
		</g>
	</g>
</g>
<path class="st3" d="M377.1,248.3l-12.5-13.5c-2.6-2.8-4.3-6.2-5.1-9.9l-4.1-19.9c-0.2-0.9-0.3-1.9-0.4-2.8l-1.4-22.8V173
	c0-21.5,17.4-38.9,38.8-39h0.1h1.5c21.5,0,38.9,17.4,38.9,38.9v6.3l-1.4,22.8c-0.1,1-0.2,1.9-0.4,2.8l-4.1,19.9
	c-0.8,3.7-2.5,7.2-5.1,9.9l-12.6,13.6c-3.9,4.2-9.4,6.6-15.1,6.6h-2C386.5,254.9,381,252.5,377.1,248.3z"/>
<path class="st4" d="M354.2,184.9c0,0-0.6-12.6,0.9-16.4c2-5.4,6.1-14.6,11.6-16.6c5.9-2.1,21.1,1.5,27.4,1.6
	c5.9,0.1,18-4.6,23.6-2.7c3.5,1.2,8,7.9,9.6,11.2c2.9,5.9,5.2,25.7,5.2,25.7s3.5-18.4,2-25.1c-1.4-5.9-9.7-18.8-14.7-22.4
	s-18.1-5.4-24.3-6s-19.2,0.8-25,3.3c-5.5,2.3-13.9,11.3-16.9,16.3c-1.8,3-3.8,10-3.7,13.5C350.1,171.8,354.2,184.9,354.2,184.9z"/>
<g>
	<path class="st5" d="M325.7,156.3c1.4-4.3,4.7-7.2,7.8-10.1c11-10.4,23.4-19,36.3-26.9c1.9-1.2,3-2.4,2.2-4.5
		c-1-2.5,0.2-4.3,2.2-5.4c2.3-1.3,4.8-1.3,6.5,0.9c1.4,1.8,2.5,1.3,4,0.5c9.8-5.3,19.9-9.9,30.7-12.8c5.7-1.5,11.4-2,17.2-1.2
		c3.3,0.4,6,1.9,6.7,5.7c0.9,6.6-4,9.8-8.1,13.3c-11.7,10.1-25.5,16.6-39.4,23.1c-9.5,4.4-19.1,8.6-29.1,12.1
		c-9.6,3.4-19.2,6.7-29.2,8.6C330.3,160.1,327.2,160,325.7,156.3z"/>
	<path class="st6" d="M325.7,156.3c1.5,3.7,4.6,3.8,7.8,3.2c10-1.9,19.6-5.2,29.2-8.6c10-3.5,19.6-7.6,29.1-12.1
		c13.8-6.5,27.7-13,39.4-23.1c4-3.5,8.9-6.8,8.1-13.3c2.3,5.3,1.2,10.5-0.5,15.5c-2.7,8.1-7,15.4-12.3,22.1
		c-1.6,0.6-3.1-0.5-4.6-0.6c-12-0.7-23.3,2.4-34.4,6.3c-9.1,3.2-18,7-27.4,9.7c-4.3,1.2-8.9,1.6-12.9,3.9c-5.5,1-11,2.3-16.7,2
		C326.4,161.1,325.6,160.1,325.7,156.3z"/>
	<path class="st5" d="M347.2,159.3c4-2.3,8.6-2.7,12.9-3.9c9.3-2.7,18.2-6.5,27.4-9.7c11.1-3.8,22.4-7,34.4-6.3
		c1.6,0.1,3,1.2,4.6,0.6c0.5,2.6,0.9,5.1,1.5,7.7c0.4,1.6-0.2,2-1.7,1.8c-16.1-1.4-31.7,1.7-47.1,5.5c-10,2.4-20,5.1-28.9,10.5
		c-1.5,0.9-2,0.2-2.2-1.1C347.8,162.7,347.5,161,347.2,159.3z"/>
</g>
</svg>
