<?xml version="1.0" encoding="utf-8"?>
<!-- Generator: Adobe Illustrator 26.0.3, SVG Export Plug-In . SVG Version: 6.00 Build 0)  -->
<svg version="1.1" id="Calque_1" xmlns="http://www.w3.org/2000/svg" xmlns:xlink="http://www.w3.org/1999/xlink" x="0px" y="0px"
	 viewBox="0 0 788 1005" style="enable-background:new 0 0 788 1005;" xml:space="preserve">
<style type="text/css">
	.st0{clip-path:url(#SVGID_00000046331455794572051850000018151667106078640521_);}
	.st1{fill:#854532;}
	.st2{clip-path:url(#SVGID_00000113352071024875830400000007832974105531644348_);}
	.st3{fill:#A85B3B;}
	.st4{fill:#AAA3A5;}
</style>
<g>
	<g>
		<defs>
			<polygon id="SVGID_1_" points="429.7,177 429.7,177 446.1,177 446.1,210 429.7,210 			"/>
		</defs>
		<clipPath id="SVGID_00000155107862433172827160000010725242404113735301_">
			<use xlink:href="#SVGID_1_"  style="overflow:visible;"/>
		</clipPath>
		<g style="clip-path:url(#SVGID_00000155107862433172827160000010725242404113735301_);">
			<path class="st1" d="M429.7,210l3-28.2c0,0,6.6-7.8,12.2-3.2c3.8,3-3.1,28.2-7.5,29.5C430,210.1,429.7,210,429.7,210z"/>
		</g>
	</g>
</g>
<g>
	<g>
		<defs>
			<polygon id="SVGID_00000003800068829442460410000004968731654186239368_" points="358.3,177 358.3,177 341.9,177 341.9,210 
				358.3,210 			"/>
		</defs>
		<clipPath id="SVGID_00000114771665932245213950000011132171419341242791_">
			<use xlink:href="#SVGID_00000003800068829442460410000004968731654186239368_"  style="overflow:visible;"/>
		</clipPath>
		<g style="clip-path:url(#SVGID_00000114771665932245213950000011132171419341242791_);">
			<path class="st1" d="M358.3,210l-3-28.2c0,0-6.6-7.8-12.2-3.2c-3.8,3,3.1,28.2,7.5,29.5C358,210.1,358.3,210,358.3,210z"/>
		</g>
	</g>
</g>
<path class="st3" d="M377.2,248.5l-12.8-13.8c-2.5-2.7-4.2-6-5-9.7l-4.1-20.1c-0.2-0.9-0.3-1.8-0.4-2.8l-1.4-22.8V173
	c0-21.5,17.4-38.9,38.8-39h0.1h1.5c21.5,0,38.9,17.4,38.9,38.9v6.3l-1.4,22.8c-0.1,0.9-0.2,1.9-0.4,2.8l-4.1,20.1
	c-0.7,3.6-2.5,7-5,9.7L409,248.5c-3.8,4.1-9.1,6.4-14.7,6.4h-2.5C386.4,254.9,381.1,252.6,377.2,248.5z"/>
<path class="st4" d="M353.7,195.3l-6.5-41.3c0,0,11.1-31.3,47.8-30.5s43.5,27.6,43.5,27.6l-6.5,41.6l-3.6-36.2c0,0-36.3-15-69.9-1.8
	L353.7,195.3z"/>
<path class="st4" d="M353.7,195.3l4.4,34.7c0,0,0.9,4.5,3.5,7.1c2.8,2.5,16.3,15.6,18.2,16.4c1.9,0.9,10.2,3.3,12.9,3.3
	c2.8,0,11.5-2.2,12.8-3.3c1.3-1.1,18.2-16.4,18.2-16.4s3.1-3.4,3.8-8.1c0.7-4.6,4.2-29.6,4.2-29.6v-6.5l-3,13.7
	c-0.1,0.3-0.2,0.7-0.4,1l-13.8,22.7c-0.4,0.7-0.7,1.4-0.9,2.2l-1.4,7.9c-0.1,0.8-0.6,1.5-1.2,2l-7.9,6.3c-0.4,0.3-1.1,0.7-1.7,0.7
	l-2.2,0.2c-1.3,0.1-2.6-0.6-3.3-1.8l-2-3.9c-0.2-0.6-0.8-0.9-1.4-1h-0.2c-0.7-0.1-1.3,0.2-1.7,0.9l-1.7,3.5c-0.8,1.8-3,2.4-4.6,1.4
	l-6.6-3.9c-0.9-0.6-1.5-1.5-1.7-2.5l-0.6-7.1c-0.1-1.1-0.4-2.2-1.1-3.2l-15.9-23.1c-0.1-0.2-0.2-0.4-0.3-0.7L353.7,195.3z"/>
</svg>
