<?xml version="1.0" encoding="utf-8"?>
<!-- Generator: Adobe Illustrator 26.0.3, SVG Export Plug-In . SVG Version: 6.00 Build 0)  -->
<svg version="1.1" id="Calque_1" xmlns="http://www.w3.org/2000/svg" xmlns:xlink="http://www.w3.org/1999/xlink" x="0px" y="0px"
	 viewBox="0 0 188 202.1" style="enable-background:new 0 0 188 202.1;" xml:space="preserve">
<style type="text/css">
	.st0{clip-path:url(#SVGID_00000179633864978849703900000009978871394025409689_);}
	.st1{fill:#854532;}
	.st2{clip-path:url(#SVGID_00000002345491675662632920000004552473844822457772_);}
	.st3{fill:#A85B3B;}
	.st4{fill:#AAA3A5;}
	.st5{fill:#0D314F;}
	.st6{fill:#CC3E78;}
</style>
<g>
	<g>
		<defs>
			<polygon id="SVGID_1_" points="130.2,102.2 130.2,102.2 146.6,102.2 146.6,135.1 130.2,135.1 			"/>
		</defs>
		<clipPath id="SVGID_00000008870347908439449850000016737490151510214546_">
			<use xlink:href="#SVGID_1_"  style="overflow:visible;"/>
		</clipPath>
		<g style="clip-path:url(#SVGID_00000008870347908439449850000016737490151510214546_);">
			<path class="st1" d="M130.2,135.1l3-28.2c0,0,6.6-7.8,12.2-3.2c3.8,3-3.1,28.2-7.5,29.5C130.5,135.3,130.2,135.1,130.2,135.1z"/>
		</g>
	</g>
</g>
<g>
	<g>
		<defs>
			<polygon id="SVGID_00000005226367159108871780000005271961337429368208_" points="58.8,102.2 58.8,102.2 42.4,102.2 42.4,135.1 
				58.8,135.1 			"/>
		</defs>
		<clipPath id="SVGID_00000181053123503561712630000012180265351316518064_">
			<use xlink:href="#SVGID_00000005226367159108871780000005271961337429368208_"  style="overflow:visible;"/>
		</clipPath>
		<g style="clip-path:url(#SVGID_00000181053123503561712630000012180265351316518064_);">
			<path class="st1" d="M58.8,135.1l-3-28.2c0,0-6.6-7.8-12.2-3.2c-3.8,3,3.1,28.2,7.5,29.5C58.5,135.3,58.8,135.1,58.8,135.1z"/>
		</g>
	</g>
</g>
<path class="st3" d="M77.8,173.7l-12.9-13.9c-2.5-2.7-4.2-6-4.9-9.6l-4.1-20.1c-0.2-0.9-0.3-1.8-0.4-2.8l-1.4-22.8v-6.4
	c0-21.5,17.4-38.9,38.9-38.9h1.5c21.5,0,38.9,17.4,38.9,38.9v6.4l-1.4,22.8c-0.1,0.9-0.2,1.8-0.4,2.8l-4.1,20.1
	c-0.7,3.6-2.4,6.9-4.9,9.6l-12.9,13.9c-3.8,4.1-9.1,6.4-14.7,6.4h-2.6C86.9,180.1,81.6,177.8,77.8,173.7z"/>
<path class="st4" d="M130.1,74.4c12,10.4,6.6,29.5,6.6,29.5l-3.9,10.8c0,0,0.8-5.3-6.2-20.4c-1.7-3.5,1.9-13-0.2-16.6
	c-4.6-7.9-9.4-11.1-9.4-11.1S122.1,67.4,130.1,74.4z"/>
<path class="st4" d="M57.4,74.1c-12,10.2-6.6,29-6.6,29l3.9,10.7c0,0-0.8-5.2,6.2-20c1.7-3.5-1.9-12.8,0.2-16.4
	c4.6-7.8,9.4-10.9,9.4-10.9S65.4,67.2,57.4,74.1z"/>
<path class="st4" d="M103.3,49.4c1.5-2.1,2.9-4.1,4.4-6.2c-1.8,7.5,3.7,8.4,8.8,10.3c3.1,1.2,6.1,3.2,8.4,5.6
	c8.5,8.7,6.5,17-6.4,25.2c0.9-2.4,1.5-4.2,2.8-7.7c-19,15.7-37.1,13-56.2,0.3c1.4,3,2.3,5,3.3,7.3c-10.2-3.4-13.2-10-9.2-18.9
	c3.7-8.2,10.9-11.8,19.1-14c2.6-0.7,5.2-1.1,7.8-1.7c-6.6-10.6-6.9-17.4-1.1-22.8c4.6-4.3,12.8-5,17.7-1.4c6.2,4.5,6,9.9-0.7,22.8
	C102.4,48.6,102.8,49,103.3,49.4z"/>
<path class="st5" d="M102.5,49.8H85c-0.7,0-1.3-0.6-1.3-1.3l0,0c0-0.7,0.6-1.3,1.3-1.3h17.4c0.7,0,1.3,0.6,1.3,1.3l0,0
	C103.7,49.2,103.2,49.8,102.5,49.8z"/>
<path class="st6" d="M102.4,47.6H85c-0.7,0-1.3-0.6-1.3-1.3l0,0c0-0.7,0.6-1.3,1.3-1.3h17.4c0.7,0,1.3,0.6,1.3,1.3l0,0
	C103.7,47,103.1,47.6,102.4,47.6z"/>
</svg>
