<?xml version="1.0" encoding="utf-8"?>
<!-- Generator: Adobe Illustrator 26.0.3, SVG Export Plug-In . SVG Version: 6.00 Build 0)  -->
<svg version="1.1" id="Calque_1" xmlns="http://www.w3.org/2000/svg" xmlns:xlink="http://www.w3.org/1999/xlink" x="0px" y="0px"
	 viewBox="0 0 788 1005" style="enable-background:new 0 0 788 1005;" xml:space="preserve">
<style type="text/css">
	.st0{clip-path:url(#SVGID_00000024695323701327206930000008162917665272484743_);}
	.st1{fill:#854532;}
	.st2{clip-path:url(#SVGID_00000142154130995575316890000017073002324321469354_);}
	.st3{fill:#A85B3B;}
	.st4{fill:#AAA3A5;}
	.st5{fill:#7EA885;}
</style>
<g>
	<g>
		<defs>
			<polygon id="SVGID_1_" points="429.7,176.4 429.7,176.4 446.1,176.4 446.1,209.3 429.7,209.3 			"/>
		</defs>
		<clipPath id="SVGID_00000029750221769935058690000014119774824483475598_">
			<use xlink:href="#SVGID_1_"  style="overflow:visible;"/>
		</clipPath>
		<g style="clip-path:url(#SVGID_00000029750221769935058690000014119774824483475598_);">
			<path class="st1" d="M429.7,209.3l3-28.2c0,0,6.6-7.8,12.2-3.2c3.8,3-3.1,28.2-7.5,29.5C430,209.5,429.7,209.3,429.7,209.3z"/>
		</g>
	</g>
</g>
<g>
	<g>
		<defs>
			<polygon id="SVGID_00000057831714039739163600000017877475342001176250_" points="358.3,176.4 358.3,176.4 341.9,176.4 
				341.9,209.3 358.3,209.3 			"/>
		</defs>
		<clipPath id="SVGID_00000062879855035079450380000007546760969522989494_">
			<use xlink:href="#SVGID_00000057831714039739163600000017877475342001176250_"  style="overflow:visible;"/>
		</clipPath>
		<g style="clip-path:url(#SVGID_00000062879855035079450380000007546760969522989494_);">
			<path class="st1" d="M358.3,209.3l-3-28.2c0,0-6.6-7.8-12.2-3.2c-3.8,3,3.1,28.2,7.5,29.5C358,209.5,358.3,209.3,358.3,209.3z"/>
		</g>
	</g>
</g>
<path class="st3" d="M377.3,248l-13-14c-2.5-2.7-4.2-6-4.9-9.5l-4.1-20.2c-0.2-0.9-0.3-1.8-0.4-2.7l-1.4-22.8v-6.4
	c0-21.5,17.4-38.9,38.9-38.9h1.5c21.5,0,38.9,17.4,38.9,38.9v6.4l-1.4,22.8c-0.1,0.9-0.2,1.8-0.4,2.7l-4.1,20.2
	c-0.7,3.6-2.4,6.9-4.9,9.5l-13,14c-3.8,4.1-9,6.4-14.6,6.4h-2.7C386.4,254.3,381.1,252,377.3,248z"/>
<path class="st4" d="M353.9,187.7c0,0-0.7-19.1,0.8-23c2-5.5,6.2-14.7,11.7-16.8c6-2.1,21.3,1.5,27.7,1.6c6,0.1,18.2-4.6,23.8-2.7
	c3.5,1.2,8.1,8,9.7,11.3c2.9,6,4.4,32.3,4.4,32.3s4.3-25,2.8-31.7c-1.4-6-9.8-19-14.9-22.6s-18.3-5.5-24.5-6.1s-19.4,0.8-25.3,3.3
	c-5.6,2.3-14,11.4-17.1,16.5c-1.8,3-3.8,10.1-3.7,13.6C349.6,168,353.9,187.7,353.9,187.7z"/>
<path class="st5" d="M359.2,165.8l11-4c13.6-4.9,29.1-5,42.9-0.6l13.6,4.5c2.6,0.8,5.4-0.3,6.1-2.6l2.4-8.3
	c0.8-2.9-8.6-10-15.6-14.6c-4.9-3.3-10.5-5.3-16.6-6c-5.7-0.7-11.4-0.7-17.1-0.2c-5.4,0.4-10.5,2.1-15.1,4.8
	c-8.8,5-22.6,13.4-21.6,15.7l3.7,8.9C353.9,165.6,356.8,166.7,359.2,165.8z"/>
</svg>
