<?xml version="1.0" encoding="utf-8"?>
<!-- Generator: Adobe Illustrator 26.0.1, SVG Export Plug-In . SVG Version: 6.00 Build 0)  -->
<svg version="1.1" id="Calque_1" xmlns="http://www.w3.org/2000/svg" xmlns:xlink="http://www.w3.org/1999/xlink" x="0px" y="0px"
	 viewBox="0 0 119.9 141.7" style="enable-background:new 0 0 119.9 141.7;" xml:space="preserve">
<style type="text/css">
	.st0{clip-path:url(#SVGID_00000020380590819602058260000012209682908828726418_);}
	.st1{fill:#573623;}
	.st2{clip-path:url(#SVGID_00000034795589654785591060000009561784379828972425_);}
	.st3{clip-path:url(#SVGID_00000050654242567972037420000012432863766539056783_);}
	.st4{fill:#FFFFFF;}
	.st5{clip-path:url(#SVGID_00000044162107143720562670000000033607560085586817_);}
	.st6{clip-path:url(#SVGID_00000120530387766916625730000003553051398188363661_);}
	.st7{fill:#090909;}
	.st8{clip-path:url(#SVGID_00000026873251155298700940000003658602234178067073_);}
	.st9{fill:#840048;}
	.st10{fill:#C5C5C5;}
</style>
<g>
	<g>
		<defs>
			<rect id="SVGID_1_" x="79.7" y="20.4" width="40.1" height="9.2"/>
		</defs>
		<clipPath id="SVGID_00000018221177671015526330000001667251351342751655_">
			<use xlink:href="#SVGID_1_"  style="overflow:visible;"/>
		</clipPath>
		<g style="clip-path:url(#SVGID_00000018221177671015526330000001667251351342751655_);">
			<path class="st1" d="M85.9,28.7c-1.4,0.3-5.2-0.6-5.9-1.5c-0.7-0.9,0.6-3.6,1.5-4.3c0.4-0.3,6.9-4.8,23.5-1
				c8,1.8,15.6,5.7,14.8,7.6C119.5,30.3,106.3,24.7,85.9,28.7z"/>
		</g>
	</g>
</g>
<g>
	<g>
		<defs>
			<path id="SVGID_00000140699166470714100000000012144422628675886732_" d="M4.6,20.4h31c2.5,0,4.6,2.1,4.6,4.6l0,0
				c0,2.5-2.1,4.6-4.6,4.6h-31C2.1,29.6,0,27.5,0,25l0,0C0.1,22.5,2.1,20.4,4.6,20.4z"/>
		</defs>
		<clipPath id="SVGID_00000181809185705416731340000014619466711901080706_">
			<use xlink:href="#SVGID_00000140699166470714100000000012144422628675886732_"  style="overflow:visible;"/>
		</clipPath>
		<g style="clip-path:url(#SVGID_00000181809185705416731340000014619466711901080706_);">
			<path class="st1" d="M34.1,28.7c1.5,0.3,5.2-0.6,5.9-1.5s-0.6-3.6-1.5-4.3c-0.4-0.3-6.9-4.8-23.5-1c-8,1.8-15.6,5.7-14.8,7.6
				C0.5,30.3,13.6,24.7,34.1,28.7z"/>
		</g>
	</g>
</g>
<g>
	<g>
		<defs>
			<polygon id="SVGID_00000116202555791096091040000011502567809405730462_" points="83.5,45.4 83.5,45.4 111.4,45.4 111.4,72.2 
				83.5,72.2 			"/>
		</defs>
		<clipPath id="SVGID_00000127754139980005042780000000295073039981597365_">
			<use xlink:href="#SVGID_00000116202555791096091040000011502567809405730462_"  style="overflow:visible;"/>
		</clipPath>
		<g style="clip-path:url(#SVGID_00000127754139980005042780000000295073039981597365_);">
			<ellipse class="st4" cx="97.5" cy="58.8" rx="14" ry="13.4"/>
		</g>
	</g>
</g>
<g>
	<g>
		<defs>
			<polygon id="SVGID_00000129926868657744467590000001257531589193951105_" points="36.4,45.4 36.4,45.4 8.5,45.4 8.5,72.2 
				36.4,72.2 			"/>
		</defs>
		<clipPath id="SVGID_00000039118798872545792620000009628900070965261240_">
			<use xlink:href="#SVGID_00000129926868657744467590000001257531589193951105_"  style="overflow:visible;"/>
		</clipPath>
		<g style="clip-path:url(#SVGID_00000039118798872545792620000009628900070965261240_);">
			<ellipse class="st4" cx="22.5" cy="58.8" rx="14" ry="13.4"/>
		</g>
	</g>
</g>
<g>
	<g>
		<defs>
			<polygon id="SVGID_00000022518173947684424460000003079790180370325937_" points="83.6,46.7 83.6,46.7 102.2,46.7 102.2,65.4 
				83.6,65.4 			"/>
		</defs>
		<clipPath id="SVGID_00000169523277372730578800000004583348447058285468_">
			<use xlink:href="#SVGID_00000022518173947684424460000003079790180370325937_"  style="overflow:visible;"/>
		</clipPath>
		<g style="clip-path:url(#SVGID_00000169523277372730578800000004583348447058285468_);">
			<circle class="st7" cx="92.9" cy="56" r="9.3"/>
		</g>
	</g>
</g>
<g>
	<g>
		<defs>
			<polygon id="SVGID_00000035526392667992873360000007608688544534888857_" points="27.8,46.7 27.8,46.7 9.2,46.7 9.2,65.4 
				27.8,65.4 			"/>
		</defs>
		<clipPath id="SVGID_00000163053332130331624960000005727825262659219367_">
			<use xlink:href="#SVGID_00000035526392667992873360000007608688544534888857_"  style="overflow:visible;"/>
		</clipPath>
		<g style="clip-path:url(#SVGID_00000163053332130331624960000005727825262659219367_);">
			<circle class="st7" cx="18.5" cy="56" r="9.3"/>
		</g>
	</g>
</g>
<g>
	<path class="st9" d="M45,108.9c0.3-0.6,1.4-1.6,3.5-2.5c2.3-1,5.8-1.9,10.6-2.1c9.6-0.4,15.9,6.1,15.9,6.1s-4.6,11.7-15.8,10.9
		C51,120.5,45,108.9,45,108.9z"/>
	<path class="st10" d="M59.5,109.2l-8.2-0.4l-2.2-0.9c0,0,5.3-2.3,11.4-2c6.7,0.4,10.3,2.9,10.3,2.9l-1.7,0.8L59.5,109.2z"/>
</g>
</svg>
