<?xml version="1.0" encoding="utf-8"?>
<!-- Generator: Adobe Illustrator 26.0.3, SVG Export Plug-In . SVG Version: 6.00 Build 0)  -->
<svg version="1.1" id="Calque_1" xmlns="http://www.w3.org/2000/svg" xmlns:xlink="http://www.w3.org/1999/xlink" x="0px" y="0px"
	 viewBox="0 0 588 350.8" style="enable-background:new 0 0 588 350.8;" xml:space="preserve">
<style type="text/css">
	.st0{fill:#7F4C36;}
	.st1{fill:#90573A;}
	.st2{fill:#A04558;}
	.st3{fill:#375D63;}
	.st4{fill:#B14A5D;}
	.st5{fill:#DD959D;}
</style>
<rect x="272.2" class="st0" width="39.5" height="85.6"/>
<path class="st1" d="M444,171.2l-48.2-60.1l-11.1-17.4c-6.4-10-15.6-17.8-26.4-22.5L316.2,53c0,0-3.5-6.4-4.4-25.2
	C307.1,39.3,267.2,52,267.2,52l-43.6,18.8c-11.3,4.9-20.8,13.2-27.2,23.8l-11.6,19.3l-43.6,52.7c-6.2,7.5-5.2,18.6,2.3,24.8
	c7.5,6.2,18.6,5.2,24.9-2.3c0.1-0.1,0.2-0.2,0.2-0.3l54.7-58.2L224,209l-15.4,128.2c-1.1,9.4,5.1,18,14.3,20
	c0,0,50.5,13.7,67.8,14.4c17.9,0.7,71-9.5,71-9.5c0.1,0,0.2,0,0.2,0c10-1.5,16.8-10.7,15.4-20.7l-18.8-128l0.6-78.6l56.7,60.8
	c6.9,7.4,18.6,8,26.2,1.2C449.3,190.1,450.2,178.9,444,171.2z"/>
<path class="st2" d="M147.3,156.9c0,0-8.6,53.4,9.7,59.1C157,216,176.9,176.3,147.3,156.9z"/>
<path class="st2" d="M450.7,169.9c0,0,3.9,43.1-14.5,48.7C436.2,218.6,421.1,189.2,450.7,169.9z"/>
<path class="st3" d="M366.1,317.3c-23.3,2.5-44.5,10-69.8,18.3c0,0-11.5,0.5-10.8-0.1l-70.8-16.6l5.9-58.4
	c1.1-10.7,10.1-18.8,20.8-18.8h99.9c11,0,20.1,8.5,20.8,19.4L366.1,317.3z"/>
<polyline class="st1" points="493.3,131.4 518.3,98.3 501.6,88.9 478.6,114.2 "/>
<path class="st4" d="M444,171.2l-48.2-60.1l-11.1-17.4c-6.4-10-15.6-17.8-26.4-22.5l-10-4.3L294,123.5l-54.4-59.6l-16.1,6.9
	c-11.3,4.9-20.8,13.2-27.2,23.8l-11.6,19.3l-43.6,52.7c-6.2,7.5-5.2,18.6,2.3,24.8c7.5,6.2,18.6,5.2,24.9-2.3
	c0.1-0.1,0.2-0.2,0.2-0.3l54.7-58.2l0.7,78.4l-15.4,128.2c-1.1,9.4,5.1,18,14.3,20c0,0,50.5,13.7,67.8,14.4c17.9,0.7,71-9.5,71-9.5
	c0.1,0,0.2,0,0.2,0c10-1.5,16.8-10.7,15.4-20.7l-18.8-128l0.6-78.6l56.7,60.8c6.9,7.4,18.6,8,26.2,1.2
	C449.3,190.1,450.2,178.9,444,171.2z"/>
<path class="st1" d="M61.7,94.5l12.6-9l21.1,20l0,0l62.5,58l5.2,7.1c5.5,7.6,4.3,18.2-2.8,24.4l0,0c-7.6,6.6-19,5.8-25.6-1.7
	c-0.3-0.3-0.5-0.6-0.7-0.9l-53.2-75.3L61.7,94.5z"/>
<path class="st1" d="M64.9,94.9c2.4-1.7,5.9-4.4,7.4-5.6c0.5-0.4,0.9-0.9,1.1-1.5l6.3-16c0.1-0.3,0.2-0.7,0.2-1.1
	c0.1-1.4,0.4-5.3,0.3-6.9c-0.1-1.6,0.2-11.7,0.3-14.5c0-0.5,0.1-1,0.3-1.4l2.6-5.4c1.1-2.4-0.7-5.1-3.3-5h-0.3
	c-1.2,0-2.2,0.7-2.9,1.7l-3.1,5c-0.2,0.3-0.3,0.6-0.4,0.9l-3.1,10.4l-7.5-9.6c-0.7-0.9-1.9-1.4-3.1-1.3l-6.9,0.7
	c-1,0.1-1.9,0.6-2.5,1.4l-13,17c-0.8,1-0.9,2.4-0.4,3.6l6.4,14.6c0.3,0.6,0.7,1.1,1.2,1.5L60.8,95C62.1,95.7,63.7,95.8,64.9,94.9z"
	/>
<path class="st1" d="M512.1,102c-2.5-1.6-6.4-4.5-7.9-5.7c-0.4-0.3-0.8-0.7-1-1.2l-6.9-16c-0.1-0.3-0.2-0.6-0.2-0.9
	c-0.1-1.4-0.5-5.4-0.5-6.9c0-1.7-0.5-11.9-0.7-14.6c0-0.4-0.1-0.8-0.3-1.2l-3.2-6.2c-1-2,0.5-4.4,2.7-4.4h1.4c1,0,1.9,0.5,2.5,1.4
	l3.4,5.2c0.1,0.2,0.3,0.5,0.3,0.7l3.4,10.3l7.4-10c0.6-0.8,1.6-1.3,2.6-1.2l7.4,0.5c0.8,0.1,1.6,0.5,2.1,1.1l13.8,17
	c0.7,0.9,0.9,2,0.5,3l-6.1,15.2c-0.2,0.5-0.5,1-1,1.3l-16.4,12.4C514.6,102.6,513.2,102.7,512.1,102z"/>
<path class="st4" d="M149.9,156.1c0,0,15,41.6,7.1,59.9c1.1,6.4,66.3-85.3,66.3-85.3"/>
<path class="st1" d="M483.1,109.3L422,168.9l-5,7.3c-5.3,7.8-3.8,18.4,3.5,24.3l0,0c7.7,6.4,19.2,5.3,25.6-2.5
	c0.2-0.3,0.5-0.6,0.7-0.9l52.8-73.9"/>
<path class="st4" d="M433.3,157.8c0,0-4.9,42.4,3,60.8c-1.1,6.4-61.5-75-61.5-75"/>
<path class="st5" d="M223.8,132.4l15.8-68.5l54.4,59.6l54.2-56.7l10.9,68l-50.2,15.5l28.5,229.4c0.2,1.8-0.9,3.4-2.6,3.8l-38.5,9.6
	c-0.6,0.1-1.2,0.1-1.8,0l-34.3-9.6c-1.7-0.5-2.7-2.1-2.5-3.8l25.9-228.2L223.8,132.4z"/>
</svg>
