<?xml version="1.0" encoding="utf-8"?>
<!-- Generator: Adobe Illustrator 26.0.3, SVG Export Plug-In . SVG Version: 6.00 Build 0)  -->
<svg version="1.1" id="Layer_1" xmlns="http://www.w3.org/2000/svg" xmlns:xlink="http://www.w3.org/1999/xlink" x="0px" y="0px"
	 viewBox="0 0 588 350.8" style="enable-background:new 0 0 588 350.8;" xml:space="preserve">
<style type="text/css">
	.st0{fill:#90573A;}
	.st1{fill:#4C443F;}
	.st2{fill:#375D63;}
	.st3{fill:#E0B9A0;}
	.st4{fill:#161615;}
	.st5{fill:#5A5A5A;}
	.st6{fill:#7F4C36;}
	.st7{fill:#3D3D3D;}
	.st8{fill:none;stroke:#9B9B9B;stroke-miterlimit:10;}
</style>
<path class="st0" d="M394.1,105.5c4.6,8.5,5.5,38.4,5.5,38.4l19.3,74.6c2.5,9.6-3,19.4-12.4,22.5l0,0c-9.7,3.1-20.1-2.1-23.4-11.8
	l-27.4-88.5l27.1-45C382.8,95.7,392.3,102.2,394.1,105.5z"/>
<path class="st1" d="M394.1,195c1-1.8,2.2-3.5,3.1-5.4c0.7-1.4,0.6-2.9-0.4-4.3c-0.9-1.3-2-1.5-3.2-0.6c-1.8,1.3-3.6,2.6-5.4,3.9
	c-1.6,1.1-3.4,2-5.4,2.2c-5.4,0.4-9.4-4.1-8.9-9.8c0.3-3.6,2.8-6.5,6.7-7.5c2.1-0.6,4.2-0.7,6.3-1.2c1.2-0.3,2.3-0.7,3.4-1.3
	c0.9-0.5,1.6-1.5,1.1-2.6c-0.4-1-1.6-1.2-2.5-1c-1.6,0.5-3.1,1.1-4.6,1.8c-1.8,0.8-3.5,1.9-5.3,2.7c-4.1,1.7-9.1-0.6-10.5-4.7
	c-1.1-3.2,0.7-7.2,4.1-8.6c2.6-1.1,5.2-1.3,7.9-0.6c1.1,0.3,2.2,1.1,3.1,1.8c0.7,0.5,0.9,1.3-0.1,1.8c-1.1,0.6-2.3,1.3-3.5,1.5
	c-0.8,0.2-1.8-0.3-2.5-0.7c-1.2-0.7-2.4-1.8-3.9-0.8c-1.4,0.8-2.5,1.9-2.4,3.7s1,3.3,2.6,4c0.6,0.3,1.5,0.2,2.2-0.1
	c3.1-1.5,6.1-3.2,9.1-4.8c0.9-0.5,1.9-1,2.8-1.4c3.4-1.2,7.2,0.9,8.4,4.5c1.1,3.4-0.8,7-4.4,7.8c-1.1,0.3-2.3,0.1-3.5,0
	c-3.1-0.3-6.1,0.1-8.8,1.9c-1.6,1.2-2.5,2.7-2.7,4.7c-0.4,4,4.5,6.7,7.5,4.8c1.9-1.2,3.6-2.9,5.5-4.2c1.2-0.9,2.5-1.8,3.9-2.2
	c3.3-1,6.1,1.1,6,4.6C399.6,189.4,397.3,192.5,394.1,195z M379,161.8c0.1-0.1,0.1-0.2,0.2-0.3c-0.3-0.2-0.7-0.5-1-0.7
	c-0.1,0.1-0.2,0.2-0.2,0.4C378.3,161.4,378.7,161.6,379,161.8z"/>
<g id="Calque_1_00000070813835829861192000000008072974033708630182_">
	<path class="st2" d="M373.9,335.6c-23.3,2.5-44.5,10-69.8,18.3c0,0-11.5,0.5-10.8-0.1l-70.8-16.6l5.9-58.4
		c1.1-10.7,10.1-18.8,20.8-18.8h99.9c11,0,20.1,8.5,20.8,19.4L373.9,335.6z"/>
</g>
<polygon class="st3" points="161.9,90.9 156.5,72.2 137.1,69.2 144.2,104.8 "/>
<polygon class="st0" points="319.5,18.3 280,18.3 280,67.7 293.5,116.7 309.1,116.7 319.5,67.7 "/>
<path class="st0" d="M151.3,209.7L151.3,209.7c7.5,6.2,18.6,5.2,24.9-2.3c0.1-0.1,0.2-0.2,0.2-0.3l54.7-58.2L214,96.6l-21.4,35.6
	L149,184.8C142.8,192.4,143.8,203.5,151.3,209.7z"/>
<path class="st0" d="M144.8,198.6l-3.9-111l-1.5-14.2l17.2-1.2c2.5-0.5,23.9,105.6,23.1,108.6c-0.8,2.7,1,15.1,1,15.1l-0.2,1.8
	c-0.9,8.7-7.9,15.4-16.5,16l0,0c-8.7,0.6-16.7-5.1-18.8-13.6L144.8,198.6z"/>
<path class="st4" d="M366.9,153.2c0,2.7-0.5,63.2-0.6,76.2c0,1.6,0.1,3.2,0.3,4.8l18.5,125.6c1.5,10-5.4,19.2-15.4,20.7
	c-0.1,0-0.2,0-0.2,0s-53.1,10.1-71,9.5c-17.3-0.7-67.8-14.4-67.8-14.4c-9.2-2-15.4-10.6-14.3-20l15.2-126.2c0.2-1.3,0.2-2.7,0.2-4
	l-0.6-71.5c0-1.6-0.2-3.2-0.4-4.8"/>
<path class="st4" d="M365.1,96.7l2.5,42.7l-0.7,14.6l-52.5,11.7l-83.5-15.3l-0.5-7.6l18.7-52.6l31.1-23.9c0,0,34.2-0.8,38.8-0.8
	c0.3,0,0.6,0.1,0.9,0.3L365.1,96.7z"/>
<path class="st5" d="M230.7,149c-0.3-1.6-0.6-3.2-1.2-4.7l-15.4-46.9c-1-2.9,0.5-6,3.4-7.2l61.9-24.3c0.3-0.1,0.6,0,0.7,0.3"/>
<path class="st5" d="M376.9,170.5l-69.1,17.9c-2.3,0.6-3.9,2.7-3.8,5.1l3.7,96.7c0.1,3.4,3.4,5.7,6.6,4.7l59.5-18.8
	c2-0.6,3.4-2.4,3.5-4.5l5.9-95.8C383.4,172.3,380.2,169.7,376.9,170.5z"/>
<path class="st0" d="M302.3,270.2l-3.7-19.2c-0.4-1.9,3.4-4.8,5-5.7l3.6-2.1c0.8-0.5,1.4-1.1,1.8-2l0.3-0.7c0.7-1.6,2.4-2.6,4.1-2.5
	l11.8,4.6c0.7,0,9.6-0.4,10.2-0.7l58.9-29.2l9.5-4.2c0.3-0.1,0.5-0.2,0.8-0.3c3.6-0.8,3.1,0,1.6,1.9c-3,3.7,1.3,8.8,5.4,6.5l0.7-0.4
	c2.2-1.2,5-0.3,6,2c5.3,12.6-3,26.6-12.2,28.9l-72.3,16.5c-0.4,0.1-0.8,0.2-1.2,0.4l-10.8,6c-0.4,0.2-0.7,0.3-1.1,0.4l-6.2,1.4
	c-0.1,0-0.3,0.1-0.4,0.1l-6.1,1.5C305.9,273.8,302.8,272.4,302.3,270.2z"/>
<path class="st5" d="M320.1,65.9l60.5,24.6c2.7,1.1,4.2,4.1,3.4,7c-4.2,14.3-17.1,53.2-17.1,55.7"/>
<polygon class="st6" points="279.9,18.3 319.4,18.3 319.5,50.9 280,61.6 "/>
<path class="st0" d="M155.9,74.2c0.7-0.4,1.3-0.9,1.8-1.5c2-3.3,8.3-13.7,8.6-15.9c0.3-2.7,0-14.4,0.6-16.5s7.1-13.1,5.8-13.6
	c-0.8-0.3-2.9-0.9-4.6-1.5c-1.6-0.5-3.3,0.1-4.3,1.5l-4.4,5.7c-0.3,0.5-0.6,1.1-0.8,1.6l-1,5c-0.5,2.2-3.4,2.5-4.3,0.5l-0.4-3.5
	c-0.1-0.2-4.7-6.4-4.7-6.6c-2.1-2.7-8.5,0.5-8.5,0.5c-0.1-0.1-5.3,2.7-7.1,3.8c-0.5,0.3-0.9,0.6-1.3,0.9l-4,2.7
	c-3.5,2.3-6.1,5.6-7.4,9.4c-0.6,1.8-0.8,3.4,0,4.3c0.2,0.2,0.4,0.5,0.5,0.8l12.8,24.6c0.4,0.8,1.2,1.4,1.8,1.9l4.3,2.1
	c1.1,0.4,2.3,0.5,3.3,0L155.9,74.2z"/>
<path class="st5" d="M160.3,30.8c-1.8-1.6-3.6-3.1-5.5-4.7c-0.3,0.3-0.9,0.9-1.5,1.4c-0.9-1-1.7-1.9-2.6-2.8c0.5-0.6,1.3-1.4,2-2.3
	c-1-1.4-3.3-2.5-1.5-4.4s3,0.4,4.5,1.3c0.8-0.8,1.6-1.6,2.5-2.5c0.8,0.9,1.6,1.8,2.5,2.8c-0.4,0.5-0.9,1.2-1.7,2.3
	c1.6,1.4,3,3.5,4.9,4.1c1.6,0.5,2.9,0.9,4,2.1c0.1,0.1,0.1,0.1,0.2,0.2c0.1,0.9-2.4,1.8,0.1,2.8c0.5-0.6,1.1-1.3,1.7-2
	c-1.4-3.1-1.3-3.8,1.2-6.5c3.2-3.4,6.5-6.8,9.7-10.2c2.2-2.3,3.2-2.4,6.1-1c0.6-0.6,1.2-1.3,2.3-2.5c-1.7-1.4-3.3-2.6-4.8-3.9
	c-1.2-1.1-3-2.2-1.3-4c1.6-1.7,2.8,0.1,3.9,1.1c0.3,0.2,0.5,0.5,0.8,0.8c0.9,0.7,1.6,0.7,2.4-0.4c3.1-4.5,7.2-4.6,10.5-0.4
	c0.4,0.5,1.2,0.8,1.8,0.9c0.9,0.1,1.8,0,2.8,0c0,1.3,0.1,2.5,0.1,3.8c-0.8,0.1-1.5,0.2-2.3,0.2c-1.2,0-2,0.3-2.8,1.4
	c-0.9,1.2-2.3,2-3.3,2.9c3.5,3.3,7.3,6.9,11.1,10.6c1.8-2,3.2-0.4,4.7,1c1.3,1.2,1.7,2.5,0.2,4c0.4,0.5,0.8,1,1.2,1.6
	c-1.3,1.1-1.9,3.1-4.2,2.3c-0.4-0.1-1.3,0.6-1.8,1.1c-5.7,5.9-11.3,11.8-16.9,17.8c-0.6,0.7-0.5,2-1,2.9c-0.5,1.2-1.3,2.2-1.9,3.3
	c-8.2-7.8-16.1-15.5-24.1-23.1c-0.4,0.2-0.7,0.3-1.1,0.5c0.1,0.6-0.1,1.4,0.2,1.8c2.1,2.7,2.1,4.2-0.2,6.7
	c-5.2,5.5-10.4,11-15.6,16.5c-2.4,2.5-4.3,2.6-6.8,0.2c-1.4-1.3-2.8-2.6-4.1-3.9c-2.5-2.4-2.6-4.4-0.3-6.8
	c5.2-5.6,10.5-11.1,15.8-16.6c2.2-2.3,4-2.4,6.5-0.4c0.3,0.3,0.7,0.5,1,0.7C160.1,31.1,160.2,30.9,160.3,30.8z M189.6,14
	c1.6,2.8,1.5,4-0.6,6.2c-3.2,3.4-6.4,6.6-9.5,10.1c-1.9,2.1-3.8,3.4-6.4,1.6c-0.9,0.7-1.6,1.2-2.2,1.7c2.7,2.5,5.1,4.8,7.4,7
	c0.7-0.5,1.4-1.1,2.1-1.7c-1.6-2.7-1.5-3.9,0.4-5.9c3.4-3.6,6.8-7.1,10.2-10.7c2.3-2.4,3.3-2.6,6.2-1.2c0.6-0.6,1.2-1.2,1.6-1.6
	c-2.6-2.4-5-4.8-7.3-7C191,12.9,190.3,13.5,189.6,14z M202.2,22.1c-0.8,0.7-1.6,1.2-2.2,1.7c1.6,2.8,1.5,3.9-0.5,6
	c-3.2,3.4-6.4,6.6-9.5,10.1c-1.9,2.1-3.9,3.6-6.7,1.6c-0.7,0.8-1.3,1.5-1.7,1.9c1.5,1.4,2.8,2.7,4.1,3.9
	c6.8-7.2,13.6-14.4,20.4-21.6C204.8,24.6,203.5,23.3,202.2,22.1z M195.5,7.9c1-1.3,2-2.1,2-2.8s-1.2-1.9-1.8-1.9
	c-0.7,0-1.8,1.1-1.9,1.8C193.6,5.7,194.6,6.5,195.5,7.9z"/>
<path class="st5" d="M126.9,65.3c2.8-3,5.7-6.1,8.4-9c1.2,1.2,2.5,2.4,3.7,3.5c-2.7,2.9-5.7,5.9-8.6,9
	C129.4,67.7,128.2,66.5,126.9,65.3z"/>
<path class="st7" d="M119.3,76.4c2.1-2.8,4.3-5.7,6.5-8.7c0.9,0.8,1.5,1.3,2.6,2.2c-2.9,2.5-5.6,4.8-8.4,7.2
	C119.7,76.8,119.5,76.6,119.3,76.4z"/>
<path class="st0" d="M152.3,46.8l-14.2,8.8c-3.9,2.4-9.1,1.2-11.5-2.7l0,0c-2.4-3.9-1.2-9.1,2.7-11.5l18.9-12.1l6.2,8.8
	C156.2,41,155.2,45,152.3,46.8z"/>
<path class="st8" d="M310.8,187.7c0-1.9,1.5-3.4,3.4-3.4s3.4,1.5,3.4,3.4s-1.5,3.4-3.4,3.4"/>
<path class="st8" d="M332.2,182.2c0-1.9,1.5-3.4,3.4-3.4s3.4,1.5,3.4,3.4s-1.5,3.4-3.4,3.4"/>
<path class="st8" d="M321.5,184.7c0-1.9,1.5-3.4,3.4-3.4s3.4,1.5,3.4,3.4s-1.5,3.4-3.4,3.4"/>
<path class="st8" d="M344,179.3c0-1.9,1.5-3.4,3.4-3.4s3.4,1.5,3.4,3.4s-1.5,3.4-3.4,3.4"/>
<path class="st8" d="M365.4,173.7c0-1.9,1.5-3.4,3.4-3.4s3.4,1.5,3.4,3.4s-1.5,3.4-3.4,3.4"/>
<path class="st8" d="M354.7,176.3c0-1.9,1.5-3.4,3.4-3.4s3.4,1.5,3.4,3.4s-1.5,3.4-3.4,3.4"/>
<path class="st1" d="M346.2,250.5c-0.3,1.3-1.5,1.1-2.4,1.5c-0.5,0.3-1.1,0.4-1.7,0.6c-0.5,0.1-0.6,0.5-0.5,0.9
	c0,0.1,0.1,0.2,0.1,0.3c-0.1,0.3-0.1,0.6-0.3,0.9c0,0.1-0.5,0-0.5,0c-0.1-0.3,0-0.6,0-1.1c-0.3-0.3-0.6-0.3-1,0.2
	c-0.2,0.2-0.4,0.4-0.6,0.5c-2,0.6-4,1-6.1,0.9c-0.3,0-0.5-0.1-0.9-0.2c0.5-0.5,0.7-0.9,1.2-1.2c1.5-0.9,3.1-1.7,4.7-2.6
	c0.2-0.1,0.6-0.1,0.9,0c0.6,0.1,0.8-0.1,0.9-0.5c-0.3-0.4-0.5-0.6-0.7-0.8c0,0,0.2-0.4,0.3-0.4c0.3,0.1,0.5,0.2,0.8,0.3
	c0,0,0,0.1,0.1,0.1c-0.2-0.1-0.4-0.1-0.6-0.2c0.2,0.4,0.4,0.7,0.7,1.1c0-0.3,0-0.6-0.1-0.9c0.6,1,0.6,0.9,1.7,0.5
	c0.5-0.2,1.1-0.4,1.6-0.5c0,0.2,0,0.4-0.1,0.7c0.4-0.1,0.6-0.2,0.9-0.2c0-0.1,0-0.1,0-0.2c-0.3-0.1-0.6-0.2-0.9-0.3
	c0.4-0.1,0.8-0.3,1.3-0.4c0,0.2,0,0.4-0.1,0.6c0.1,0,0.3-0.1,0.4-0.1c-0.1-0.2-0.2-0.4-0.4-0.5c0.4-0.1,0.8-0.2,1.1-0.4
	c0.5-0.4,1,0,1.5,0.1c0.1,0,0.2,0.5,0.2,0.7c0,0.3-0.2,0.6-0.3,0.9C347,250.7,346.4,251.6,346.2,250.5c0.2-0.1,0.5-0.3,0.5-0.3
	c-0.1-0.3-0.3-0.5-0.4-0.7c-0.1,0-0.2,0.1-0.3,0.1C346.1,249.9,346.2,250.2,346.2,250.5z M339.1,252.6c0.3,0.1,0.4,0.2,0.7,0.4
	c-0.8,0.4-1.7,0.2-2.2,1.1c-1-0.4-2.6-0.2-4.2,0.7c1.3,0.3,2.5,0,3.7-0.1c1.3-0.2,2.3-0.8,3.2-1.7c-0.2-0.1-0.4-0.3-0.6-0.4
	c0.1-0.3,0.1-0.5,0.2-0.7c-2.6-0.4-4.5,0.9-6.3,2.6c1.3-0.5,2.9-0.4,3.5-1.9c0.9,0.4,1.6-0.4,2.5-0.4
	C339.3,252.2,339.2,252.4,339.1,252.6z M341,251.9c0.5,0.2,0.9,0.5,1.2,0c0.1-0.2-0.1-0.6-0.3-0.7
	C341.4,250.9,341.3,251.5,341,251.9z M344.8,251.1c0-0.1-0.1-0.1-0.1-0.2c-0.2,0.1-0.5,0.3-0.8,0.5
	C344.6,251.8,344.7,251.3,344.8,251.1z M341.4,254.4c0.1,0,0.2,0,0.3,0c-0.1-0.4-0.1-0.8-0.2-1.2h-0.1
	C341.3,253.6,341.4,254,341.4,254.4z M345.8,250.8c-0.2,0-0.4-0.1-0.5,0c-0.1,0-0.1,0.2-0.1,0.3c0.1,0,0.3,0.2,0.4,0.1
	C345.7,251.2,345.7,251,345.8,250.8z M343.4,250.9c0-0.1,0.1-0.2,0.1-0.3c-0.2-0.1-0.4-0.1-0.7-0.2c0,0.1,0,0.2-0.1,0.2
	C342.9,250.8,343.1,250.9,343.4,250.9z M343.7,251.4c-0.1,0-0.1-0.1-0.2-0.1c-0.1,0.2-0.3,0.4-0.4,0.6c0.1,0,0.1,0.1,0.2,0.1
	C343.4,251.8,343.6,251.6,343.7,251.4z"/>
<g>
	<path class="st1" d="M414,234.6c-1.9-4.3-3.8-8.5-5.7-12.8c0.3-0.1,0.6-0.3,0.9-0.4c2.1,4.2,5.1,7.9,6.2,12.5
		C415,234.1,414.5,234.3,414,234.6z"/>
	<path class="st1" d="M403.4,233.3c3.4,0.8,6.8,1.5,10.3,2.3c-0.1,0.5-0.3,1-0.4,1.6c-3.4-0.9-6.8-1.9-10.1-2.8
		C403.2,234,403.3,233.7,403.4,233.3z"/>
	<path class="st1" d="M417.9,225.7c0.1,2.1,0.2,4.2,0.3,6.3c-0.4,0-0.8,0.1-1.2,0.1c-0.1-2.1-0.2-4.2-0.4-6.4
		C417.1,225.7,417.5,225.7,417.9,225.7z"/>
	<path class="st1" d="M414.7,239c-0.9,1.3-1.8,2.6-2.7,3.9c-0.3-0.2-0.6-0.4-0.9-0.6c0.9-1.3,1.8-2.6,2.7-3.9
		C414.1,238.6,414.4,238.8,414.7,239z"/>
</g>
<g>
	<path class="st1" d="M360.3,248.4c-0.6,0.1-0.8,0.6-1.1,1c-0.2,0.3-0.5,0.7-0.8,0.8c-0.7,0.3-1.5,0.4-1.6,1.4
		c-0.4-0.7-0.3-1.1,0.4-1.6c0.6-0.4,1-0.8,1.2-1.5c0.1-0.4,0.2-0.8,0.3-1.3c-1.5,0.4-3,0.8-4.5,1.1c0-0.1-0.1-0.2-0.1-0.3
		c1.4-0.7,2.7-1.4,4.1-2.2c-0.4-0.3-0.8-0.5-1.2-0.8c-0.5-0.4-1.1-0.4-1.8-0.3c-0.8,0.1-1.1-0.1-1.4-0.9c0.9,0.7,1.5,0.2,2.3-0.1
		c0.3-0.1,0.7,0,1.1,0.1s0.9,0.1,1.3,0.2c0-0.1,0-0.2,0.1-0.2c-1.4-0.8-2.9-1.7-4.3-2.5c0-0.1,0.1-0.2,0.1-0.3
		c1.6,0.5,3.2,1,4.8,1.5c0-0.6-0.4-0.8-0.8-1c-0.6-0.3-1-0.7-1.1-1.3c-0.1-0.7-0.6-1-1.2-1.3c0.6-0.4,1-0.2,1.5,0.4
		c0.3,0.4,0.7,0.7,1.2,1.1c0.2,0.1,0.5,0.1,0.7,0.2c0.3,0.1,0.6,0.2,0.9,0.3c-0.4-1.5-0.8-3-1.1-4.5c0.1,0,0.2-0.1,0.3-0.1
		c0.7,1.4,1.4,2.7,2.2,4.1c0.6-1,1.4-1.8,1.1-3.1c-0.2-0.7,0.1-1,0.9-1.2c-0.5,0.8-0.2,1.4,0.1,2.1c0.1,0.3,0,0.8,0,1.2
		c-0.1,0.5-0.3,0.9,0,1.4c0.9-1.5,1.7-2.9,2.6-4.4c0.1,0,0.2,0.1,0.3,0.1c-0.5,1.6-1,3.2-1.5,4.8c0.5,0,0.8-0.4,1-0.8
		c0.3-0.7,0.8-0.9,1.4-1.1c0.5-0.2,0.9-0.6,1.3-0.9c0.2,0.4,0.1,0.7-0.5,1.3c-0.4,0.4-0.9,0.9-1.2,1.4c-0.2,0.4-0.3,0.9-0.4,1.5
		c1.5-0.4,3-0.8,4.5-1.1c0,0.1,0.1,0.2,0.1,0.3c-1.4,0.7-2.7,1.4-4.1,2.2c0.4,0.3,0.7,0.5,1.1,0.8c0.6,0.4,1.2,0.4,1.8,0.3
		c0.8-0.1,1.1,0.1,1.4,0.7c-0.4,0-0.8-0.2-1.2-0.1c-0.4,0.1-0.7,0.4-1.1,0.4c-0.3,0.1-0.7,0-1-0.1c-0.5-0.1-0.9-0.4-1.4,0
		c1.5,0.9,2.9,1.7,4.3,2.6c0,0.1-0.1,0.2-0.1,0.3c-1.6-0.5-3.2-1-4.8-1.5c0,0.5,0.1,0.7,0.7,0.9c0.7,0.3,1,0.8,1.2,1.5
		c0.2,0.5,0.6,0.9,0.9,1.3c-0.2,0.2-0.4,0.2-0.8,0c-0.2-0.2-0.5-0.4-0.6-0.7c-0.4-0.6-1-1-1.7-1.1c-0.3-0.1-0.7-0.2-1-0.3
		c0.4,1.5,0.8,3,1.2,4.5c-0.1,0-0.2,0.1-0.2,0.1c-0.7-1.4-1.4-2.7-2.2-4.1c-0.3,0.4-0.7,0.8-0.8,1.3c-0.2,0.5-0.2,1.1-0.2,1.6
		c0,0.8-0.1,1.2-0.8,1.4c0.1-0.4,0.2-0.8,0.1-1.2c0-0.4-0.4-0.7-0.4-1.1c-0.1-0.3,0-0.7,0.1-1c0.1-0.5,0.4-0.9,0-1.5
		c-0.9,1.5-1.7,2.9-2.6,4.4c-0.1,0-0.2-0.1-0.3-0.1C359.3,251.6,359.8,250,360.3,248.4z M361.2,242.4c-0.6-0.6-0.8-0.6-1.3,0
		c-1.2,1.3-1.3,3.2-0.3,4.6c1.2,1.7,2.8,1.9,4.4,1.4c1.8-0.6,2.8-2.5,2.4-4.2c-0.4-1.9-2.1-3.2-3.9-3c-0.6,0-1.2,0.1-1.7,0.6
		C360.9,242,361,242.2,361.2,242.4z M369.9,245.3c-1.3,0.4-2.1-1-3.3-1.1c0,0.5,0,1,0,1.3c0.6,0.1,1.1,0.1,1.6,0.3
		C368.9,246,369.4,245.7,369.9,245.3z M360.5,241.4c-1-0.7-2.6-0.4-3.1-1.8c0.1,0.9,0.4,1.6,1.3,1.9c0.3,0.1,0.6,0.5,0.8,0.8
		C359.8,242,360.1,241.8,360.5,241.4z M367.8,239.7c-0.7,0-1.2,0.2-1.6,0.9c-0.2,0.4-0.6,0.8-1,1.2c0.2,0.3,0.5,0.6,0.9,1
		C366.9,241.8,366.5,240.3,367.8,239.7z M358.6,244.3c-0.5-0.1-1.1-0.1-1.5-0.2c-0.7-0.3-1.2-0.1-1.8,0.4c1.4-0.4,2.1,1,3.3,1.1
		C358.6,245.1,358.6,244.7,358.6,244.3z M362.1,248.9c0,0.4,0.1,0.9-0.1,1.2c-0.4,0.8-0.2,1.5,0.4,2.3c-0.2-1.1,0.1-1.8,0.7-2.6
		c0.2-0.2,0.3-0.6,0.4-1C362.9,248.9,362.4,248.9,362.1,248.9z M363,237.3c0.2,1-0.1,1.8-0.7,2.5c-0.2,0.3-0.3,0.7-0.4,1
		c0.6,0,1,0,1.4,0c0-0.4-0.1-0.8,0.1-1.2C363.7,238.9,363.6,238.2,363,237.3z M357.5,250.1c0.7-0.1,1.2-0.2,1.6-0.9
		c0.2-0.4,0.6-0.8,1-1.2c-0.2-0.3-0.6-0.6-0.9-1C358.4,248,358.7,249.5,357.5,250.1z M365.8,247.5c-0.3,0.3-0.6,0.6-1,0.9
		c0.9,0.7,2.5,0.4,3.1,1.8c-0.3-1-0.1-1.4-1.3-1.9C366.3,248.2,366.1,247.8,365.8,247.5z M355.5,241.6c0,0.1,0,0.1-0.1,0.2
		c1.1,0.6,2.2,1.2,3.3,1.8c0-0.1,0.1-0.1,0.1-0.2c-0.4-0.2-0.7-0.4-1.1-0.6c0,0,0-0.1,0.1-0.1c0.4,0.1,0.8,0.3,1.2,0.4
		c0-0.1,0-0.1,0.1-0.2C357.9,242.4,356.7,242,355.5,241.6z M360.6,249.7h-0.1c0.1-0.4,0.2-0.8,0.4-1.2c-0.1,0-0.2,0-0.3-0.1
		c-0.4,1.2-0.8,2.4-1.2,3.6c0.1,0,0.1,0,0.2,0.1c0.6-1.1,1.2-2.2,1.8-3.3c-0.1,0-0.1-0.1-0.2-0.1C361,249,360.8,249.4,360.6,249.7z
		 M358.8,246.2c0-0.1-0.1-0.1-0.1-0.2c-1.1,0.6-2.3,1.1-3.4,1.7c0,0.1,0,0.1,0.1,0.2c1.2-0.3,2.4-0.7,3.7-1c0-0.1,0-0.2-0.1-0.2
		c-0.5,0.1-1.1,0.3-1.6,0.4l0,0C357.8,246.7,358.3,246.4,358.8,246.2z M366.3,243c0,0.1,0,0.2,0.1,0.2c0.6-0.2,1.1-0.3,1.7-0.5l0,0
		c-0.5,0.3-1,0.5-1.5,0.8c0,0.1,0.1,0.1,0.1,0.2c1.1-0.6,2.3-1.1,3.4-1.7c0-0.1,0-0.1-0.1-0.2C368.7,242.4,367.5,242.7,366.3,243z
		 M364.8,240h0.1c-0.1,0.4-0.3,0.8-0.4,1.2c0.1,0,0.1,0,0.2,0.1c0.4-1.2,0.8-2.3,1.2-3.5c-0.1,0-0.1,0-0.2-0.1
		c-0.6,1.1-1.2,2.2-1.8,3.3c0.1,0,0.1,0.1,0.2,0.1C364.4,240.8,364.6,240.4,364.8,240z M366.2,246.7c0,0.1,0,0.2-0.1,0.2
		c1.2,0.4,2.4,0.8,3.6,1.2c0-0.1,0-0.1,0.1-0.2c-1.1-0.6-2.2-1.2-3.3-1.8c0,0.1-0.1,0.1-0.1,0.2c0.4,0.2,0.7,0.4,1.1,0.6v0.1
		C367.1,246.9,366.7,246.8,366.2,246.7z M360,237.6c-0.1,0-0.1,0.1-0.2,0.1c0.3,1.2,0.7,2.3,1,3.5c0.1,0,0.1,0,0.2-0.1
		c-0.1-0.5-0.2-0.9-0.4-1.4h0.1c0.2,0.4,0.4,0.9,0.6,1.3c0.1,0,0.1-0.1,0.2-0.1C361.1,239.8,360.5,238.7,360,237.6z M364.5,248.6
		c-0.1,0-0.1,0-0.2,0.1c0.1,0.5,0.3,0.9,0.4,1.4h-0.1c-0.2-0.4-0.5-0.9-0.7-1.3c-0.1,0-0.1,0.1-0.2,0.1c0.5,1.1,1.1,2.2,1.6,3.3
		c0.1,0,0.1,0,0.2-0.1C365.2,250.9,364.8,249.7,364.5,248.6z"/>
	<path class="st1" d="M363.2,245.9c0-0.1,0.1-0.3,0.2-0.4c0.3,0.1,0.4,0.1,0.3,0.5c-0.1,0.3-0.1,0.8,0.5,0.9c0.1,0,0.1,0.2,0.2,0.3
		l-0.1,0.2c-0.1,0-0.3-0.1-0.3-0.1C363.7,246.8,363.5,246.4,363.2,245.9z"/>
	<path class="st1" d="M363.1,243.9c-0.7-0.1-0.7-0.1-0.7-0.7c0-0.2-0.2-0.5-0.2-0.7c0-0.1,0-0.3,0.1-0.4h0.2c0,0.1-0.1,0.2,0,0.3
		c0,0.3,0.1,0.5,0.2,0.8C362.7,243.5,362.9,243.6,363.1,243.9z"/>
	<path class="st1" d="M364.2,242.7c0.2,0,0.3,0,0.4,0c-0.1,0.1-0.2,0.2-0.2,0.3c0.2,0.1,0.4,0.2,0.5,0.3c-0.1,0.1-0.2,0.2-0.3,0.3
		C364.5,243.3,364.4,243,364.2,242.7z"/>
	<path class="st1" d="M363.3,244.1c0.1-0.3,0.2-0.7,0.3-1c0.1,0,0.1,0,0.2,0.1c-0.1,0.3-0.3,0.6-0.4,1
		C363.4,244.1,363.4,244.1,363.3,244.1z"/>
	<path class="st1" d="M360.7,242.7c-0.2-0.2-0.3-0.3-0.5-0.5c0.2,0,0.3,0,0.5,0.1C360.7,242.4,360.7,242.6,360.7,242.7z"/>
	<path class="st1" d="M363.9,245c0.3,0.1,0.5,0.3,0.8,0.4c0,0.1-0.1,0.1-0.1,0.2c-0.3-0.1-0.5-0.3-0.8-0.4
		C363.9,245.1,363.9,245,363.9,245z"/>
	<path class="st1" d="M360.4,244.9c0.2,0.5,0.4,0.9,0.5,1.4C360.7,245.8,360.6,245.4,360.4,244.9z"/>
	<path class="st1" d="M365.3,245.6c-0.1-0.2-0.1-0.4-0.2-0.5l0,0c0.1,0.1,0.3,0.1,0.4,0.2C365.5,245.3,365.4,245.4,365.3,245.6z"/>
	<path class="st1" d="M365,244.7c0.1-0.1,0.3-0.1,0.4-0.2c0,0.1,0,0.1,0.1,0.2c-0.1,0.1-0.3,0.1-0.4,0.2
		C365,244.8,365,244.7,365,244.7z"/>
	<path class="st1" d="M361.6,245.1c0-0.1,0-0.3,0-0.4h0.1c0,0.1,0.1,0.2,0.1,0.4C361.7,245.1,361.6,245.1,361.6,245.1z"/>
	<path class="st1" d="M362,245.8c-0.1-0.1-0.2-0.2-0.3-0.3l0.1-0.1C361.9,245.5,362,245.6,362,245.8C362,245.7,362,245.8,362,245.8z
		"/>
</g>
<g>
	<path class="st1" d="M393.6,118.4c0-0.2,0-0.3-0.1-0.5c-0.6,0.4-0.6,1-0.5,1.5c0,2.3,0.7,4.4,1.4,6.6c0.5,1.6,1,3.2,1.4,4.8
		c0.3,1.1,0.1,1.5-0.6,2c0.1,0.6,0.4,1.1,0.4,1.7c0,0.4-0.1,0.9-0.4,1c-0.2,0.2-0.7,0-1-0.1s-0.5-0.4-0.7-0.6
		c-0.5-0.6-1.1-1-1.9-1.2c-0.4-0.1-0.9-0.6-1.1-1.1c-0.5-0.9-1.3-1.2-2.1-1.6c-0.9-0.3-1.8-0.7-2.4-1.3c-1.9-1.6-2.2-4-0.9-6.3
		c1.5-2.8,3.9-4.7,6.6-6.2c0.5-0.3,1.1-0.5,1.7-0.8c0.1-0.1,0.2-0.3,0.4-0.4c0.1-0.1,0.2-0.2,0.3-0.3c-0.1,0.2-0.2,0.4-0.3,0.6
		c0,0.1,0.2,0.2,0.2,0.2l0,0c0,0.6,0,1.2,0.1,1.8l0,0C393.7,118.3,393.7,118.3,393.6,118.4z M394,128.6c0.5-0.1,1-0.2,0.8-0.9
		c-0.7-2.5-1.5-5-2.2-7.6c0.1,0.1,0.1,0.2,0,0.3c-0.2,2.2-0.1,4.4,0.5,6.6C393.2,127.7,393.3,128.3,394,128.6c-0.1,0-0.2,0-0.4,0
		c0.2,0.6,0.4,1.2,0.6,1.8c0.1,0.2,0.5,0.5,0.6,0.5c0.2-0.2,0.6-0.5,0.6-0.7c0-0.5-0.2-1-0.2-1.2C394.6,128.8,394.3,128.7,394,128.6
		z M386.4,125.8c1.1-0.7,1.3-1.7,1.6-2.7c0.4-1.3,1-2.5,1.7-3.6c0.6-0.9,1.5-1.5,2.5-1.9c-0.1,0.2-0.2,0.3-0.4,0.4
		c-2.3,1.4-3.2,3.6-3.8,6.1c-0.2,1.1,0,2,0.6,2.9c0.3-0.5,0.6-0.9,0.8-1.2c0.4,1.1,0.8,2.1,1.2,3.2c0.1,0,0.2,0,0.3-0.1
		c0-0.8,0.1-1.7,0.1-2.5c0-1.7-0.1-3.4,0.5-5c0.4-1,0.6-2,1-3.1c-1.9,2-3,4.2-2.9,6.9c-0.6-3.4,1.3-5.8,3.5-8
		c-0.5,0-0.9-0.1-1.2,0.1c-2.4,1.3-4.5,3-6.2,5.3c-0.1,0.1-0.2,0.3-0.1,0.4C385.9,123.9,386.2,124.9,386.4,125.8z M391.3,128.2
		c-0.1,0.6-0.1,1.1-0.2,1.9c-0.6-1.3-1.2-2.4-1.7-3.6c-0.5,0.7-0.5,1-0.3,1.7c0.1,0.3,0.2,0.7,0.2,1c0,1.3,1,2,1.8,2.7
		c0.5,0.4,1.2,0.5,1.9,0.8C393.2,131,392,129.7,391.3,128.2z M392.1,121.3c-0.7,2-0.9,4.6-0.5,6.4c0.1,0.6,0.2,1.6,1,1.4
		c0.8-0.2,0.4-1.1,0.3-1.7c-0.2-1.1-0.5-2.2-0.7-3.3C392.1,123.3,392.1,122.4,392.1,121.3z M386.7,128.5c0.4-2-1.3-3.4-1.3-5.2
		C383.8,125.6,384.4,127.5,386.7,128.5z M393.4,129c-0.4,0.2-0.7,0.4-1,0.6c0,0,0.1,0.1,0.1,0.2c0.4,1,1,2,0.8,3.2
		c-0.1,0.5,0.4,0.8,1,0.8s0.6-0.4,0.4-0.8C394.3,131.7,393.8,130.3,393.4,129z M388.9,129.5c0.2-1-0.3-2.7-1.3-4.3
		c-0.5,0.5-0.9,0.9-0.6,1.7c0.2,0.5,0.2,1.2,0.3,1.8C387.7,128.9,388.3,129.2,388.9,129.5z"/>
	<path class="st1" d="M397.7,125.6c-0.2,0.6-0.3,1.2-0.5,1.7c-0.2,0.6-0.7,0.7-1.1,0.2s-0.6-1-1-1.5c0.3,0.1,0.5,0.2,0.8,0.3
		c0-0.1,0.1-0.2,0.1-0.2c-0.3-0.2-0.7-0.3-1.2-0.5c0.1,0.2,0.2,0.3,0.2,0.4c-0.3-0.5-0.6-1.1-0.8-1.7c-0.2-1-0.4-1.9-0.5-2.9
		c-0.1-0.5-0.1-1-0.1-1.5c0.1,0,0.2,0,0.3,0c1.2,1.1,2.4,0.9,3.3-0.4c0.1,0,0.2-0.1,0.3-0.1c0.1,0.9,0.2,1.9,0.3,2.8
		c0.1,0.9,0.1,1.9,0.1,2.8C398,125.1,397.8,125.4,397.7,125.6c0-0.1,0.1-0.3,0.2-0.6c-0.4,0.4-0.7,0.6-1,0.9
		c0.1,0.1,0.1,0.1,0.2,0.2C397.3,126,397.5,125.8,397.7,125.6z M396.9,121.2c-0.1,0-0.1-0.1-0.2-0.1c-0.2,0.3-0.3,0.5-0.5,0.8
		c0.1,0,0.1,0.1,0.2,0.1C396.6,121.7,396.7,121.4,396.9,121.2z M394.9,121.3c-0.1,0-0.1,0.1-0.2,0.1c0.2,0.2,0.4,0.4,0.6,0.6
		c0.1-0.1,0.1-0.1,0.2-0.2C395.3,121.7,395.1,121.5,394.9,121.3z"/>
	<path class="st1" d="M397.3,119.4c-0.9,1.4-2.1,1.5-3.3,0.4c0-0.5-0.1-1.1-0.1-1.6l0,0c0.1-0.6,0.5-1.2-0.1-1.8l0,0
		c0.2-0.2,0.4-0.5,0.6-0.7c0.1-0.2,0.1-0.4,0.2-0.7c-0.4,0.3-0.6,0.5-0.8,0.6c-0.1,0.1-0.2,0.2-0.3,0.3c-0.1-1,0-1.8,0.9-2.4
		c0.5-0.4,1.6-0.1,2,0.6c0.2,0.4,0.3,0.9,0.4,1.3c-0.1,0-0.2-0.1-0.4-0.1c-0.3-0.1-0.6-0.2-0.9-0.3c-0.1,0.1-0.2,0.3-0.3,0.4
		c0.5,0.2,1,0.5,1.4,0.7l0,0c-0.5,0.7,0.1,1.2,0.4,1.8l0,0C397.1,118.4,397.2,118.9,397.3,119.4z M395.4,119.2
		c0.9-1.3,0.9-2.5,0-3.3c-0.1-0.1-0.6-0.1-0.6,0c-0.2,0.4-0.5,1-0.4,1.4C394.6,117.9,395,118.5,395.4,119.2z M394.6,119.8
		c0-0.1,0.1-0.1,0.1-0.2c-0.2-0.1-0.3-0.2-0.5-0.3c0,0.1-0.1,0.1-0.1,0.2C394.2,119.6,394.4,119.7,394.6,119.8z"/>
	<path class="st1" d="M393.2,113.2c-0.3-0.1-0.7-0.2-1-0.3c0-0.1,0-0.1,0-0.2c0.3,0.1,0.7,0.2,1,0.3
		C393.2,113.1,393.2,113.1,393.2,113.2z"/>
	<path class="st1" d="M395.3,116.1c0,0.3,0.1,0.5,0.1,0.8h-0.2c-0.1-0.2-0.1-0.5-0.2-0.7C395.1,116.1,395.2,116.1,395.3,116.1z"/>
	<path class="st1" d="M395.4,117.7c0,0.3,0.1,0.5,0.1,0.8c-0.1,0-0.1,0-0.2,0c-0.1-0.2-0.2-0.5-0.2-0.7
		C395.2,117.8,395.3,117.8,395.4,117.7z"/>
</g>
</svg>
