<?xml version="1.0" encoding="utf-8"?>
<!-- Generator: Adobe Illustrator 26.0.3, SVG Export Plug-In . SVG Version: 6.00 Build 0)  -->
<svg version="1.1" id="Layer_1" xmlns="http://www.w3.org/2000/svg" xmlns:xlink="http://www.w3.org/1999/xlink" x="0px" y="0px"
	 viewBox="0 0 588 350.8" style="enable-background:new 0 0 588 350.8;" xml:space="preserve">
<style type="text/css">
	.st0{fill:#90573A;}
	.st1{fill:#7F4C36;}
	.st2{fill:#9CCBF2;}
	.st3{fill:#587CC6;}
	.st4{fill:#4D6FAA;}
	.st5{fill:#DCE8EF;}
</style>
<path class="st0" d="M212,88.8l7.9,18.4l135.6,2.4l6.1-16.4c0.5-1.3,2.4-0.7,2.1,0.6l-8.1,30.7l77.6,50.2c8.2,6,19.7,4.4,25.9-3.7
	c5.9-8,4.7-19.2-2.9-25.6l-58.6-50.1l-24.3-25.8c-1.5-1.6-3.3-2.9-5.3-3.8l-14-6.2"/>
<path class="st1" d="M354.3,58.4l-38.6-17.2c-4.5-2-7.4-6.5-7.4-11.5L308.4,8h-40.3l0.5,21.4c0.1,5.1-2.9,9.8-7.6,11.8l-30.6,13.1
	l-2.5,87.6h83.5L354.3,58.4z"/>
<path class="st0" d="M230.3,55.4L203.1,67c-0.2,0.1-0.3,0.2-0.5,0.4l-21.2,35.3l-43.6,52.7c-6.2,7.5-5.2,18.6,2.3,24.8
	c7.5,6.2,18.6,5.2,24.9-2.3c0.1-0.1,0.2-0.2,0.2-0.3l54.7-58.2l-9.8-29.9c-0.4-1.2,1.4-1.9,1.9-0.7"/>
<path class="st0" d="M443.7,175.4c10.6,3.5,15.8-6.2,19.1-15.1c2.3-6.4,18.7-70.5,23.4-87.8c2.7-9.8,4.3-15-1.3-17.1
	c-5.2-1.9-12.3,12.2-14.5,15.6c-20.9,32.4-27,46.7-41.4,77.1C420.8,165.3,440.1,174.2,443.7,175.4z"/>
<path class="st2" d="M489.9,26.1c2.8-3,5.4-6.3,7.7-9.7c1-1.4,3.1-1.1,3.6,0.6c0.3,1.1,0.6,2.3,0.5,3.3c-0.3,2.1-5.5,11.2-5.5,11.2
	l0,0C521.5,17.4,548.7,3.7,551.7,3c0.9-0.2,2.6,0.2,4.1,0.7c1.6,0.6,1.9,2.7,0.4,3.6c-6.9,4.1-22,13.2-27,16.6
	c-22,15.1-34.4,29.6-41.2,42.8c-1.2,2.3-15.1-0.2-13-5.3c0.7-1.8-0.5-12,1.3-14.7C483.3,35.9,489.6,26.4,489.9,26.1z"/>
<path class="st0" d="M151.1,180.5c-10.6,3.5-15.8-6.2-19.1-15.1c-2.3-6.4-18.7-70.4-23.4-87.8c-2.6-9.8-4.3-15,1.4-17.1
	c5.1-1.9,12.3,12.2,14.5,15.6c20.9,32.4,26.9,46.7,41.4,77.1C174,170.5,154.8,179.3,151.1,180.5z"/>
<path class="st2" d="M105,31.2c-2.8-3-5.4-6.3-7.7-9.7c-1-1.4-3.1-1.1-3.6,0.6c-0.3,1.1-0.6,2.3-0.5,3.3c0.3,2.1,5.5,11.2,5.5,11.2
	l0,0C73.4,22.5,46.1,8.8,43.2,8.1c-0.9-0.2-2.6,0.2-4.1,0.7c-1.6,0.6-1.9,2.7-0.4,3.6c6.9,4.1,22,13.2,26.9,16.6
	c22,15,34.4,29.6,41.2,42.8c1.2,2.3,15.1-0.2,13-5.3c-0.7-1.8,0.5-12-1.3-14.7C111.5,41,105.3,31.5,105,31.2z"/>
<path class="st3" d="M361.3,218.2h0.6l2.5-2.9c3.1-3.6,4-8.5,2.3-12.9c-2-5.3-4.5-12-4.5-14c0.2-24.3,0.4-54.9,0.4-56.8
	c0-3.1,15.7-53.1,17.3-61.2c0.1-0.5-0.2-1.1-0.7-1.3l-52.8-22.9c-6.2-2.7-13.4,0-16.4,6l-9.5,19.2c-4.6,9.3-17.8,9.4-22.6,0.3
	l-11-20.9c-3.1-5.9-10.2-8.4-16.3-5.7l-56.2,24.3c0,0,0,0,0,0.1l18.1,55.7c0.4,1.2,0.6,2.5,0.6,3.8l0.5,58.1c0,1.3-0.2,2.5-0.5,3.7
	l-4.1,13.9c-0.9,3.1-0.6,6.4,0.8,9.3l0,0c1,2,1.5,4.2,1.3,6.4c-0.2,3.8-0.6,9.9-0.9,14.3l-5.8,81.8c-0.4,5.8,3.1,11.1,8.6,12.9
	l24.8,5.3c25.9,5.6,52.7,5.7,78.7,0.3c16.6-3.4,34.1-7.1,43.6-9.3c5.9-1.4,10-6.9,9.7-13l-3.9-77.2
	C365.6,229.1,364,223.1,361.3,218.2z"/>
<polygon class="st4" points="360.6,231 363.7,278.6 319.9,286.2 310.3,280.2 308,228.8 360.9,221.2 "/>
<circle class="st2" cx="230.9" cy="197.6" r="6.7"/>
<circle class="st5" cx="230.9" cy="197.6" r="5.4"/>
<g>
	<path class="st5" d="M231.1,197.6c0.4,7.9,0.8,15.8,0.9,23.7c0.3,5.9,0.6,11.8-0.5,17.7c-0.3,2-0.7,3.9-1.3,5.9h-0.4
		c-2-7.8-1.8-15.8-0.9-23.7c0.5-7.9,1.1-15.7,1.9-23.6C230.7,197.6,231.1,197.6,231.1,197.6L231.1,197.6z"/>
</g>
<g>
	<path class="st5" d="M248.8,190.8c0.4,7.9,0.8,15.8,0.9,23.7c0.3,5.9,0.6,11.8-0.5,17.7c-0.3,2-0.7,3.9-1.3,5.9h-0.4
		c-2-7.8-1.8-15.8-0.9-23.7c0.5-7.9,1.1-15.7,1.9-23.6C248.4,190.8,248.8,190.8,248.8,190.8L248.8,190.8z"/>
</g>
<polygon class="st4" points="214.1,232.7 211,280.2 254.9,287.8 264.4,281.9 266.7,230.5 213.8,222.9 "/>
<g>
	<path class="st5" d="M248.4,196.1c-0.1-3-0.3-7-0.3-9.5c-1-5.1,2.5-8.3,7.5-6.8c2.2,0.6,2.8,2.4,2,4.4c-0.3,0.7-0.5,1.3-0.7,2h-0.2
		c-0.5-1.2,0.2-3-0.4-4c-0.3-0.6-1.9-0.7-3.1-0.7c-3-0.3-4,2.2-3.8,4.8c-0.2,3.2-0.5,6.5-0.7,9.7
		C248.6,196.1,248.4,196.1,248.4,196.1L248.4,196.1z"/>
</g>
</svg>
