<?xml version="1.0" encoding="utf-8"?>
<!-- Generator: Adobe Illustrator 26.0.3, SVG Export Plug-In . SVG Version: 6.00 Build 0)  -->
<svg version="1.1" id="Calque_1" xmlns="http://www.w3.org/2000/svg" xmlns:xlink="http://www.w3.org/1999/xlink" x="0px" y="0px"
	 viewBox="0 0 588 350.8" style="enable-background:new 0 0 588 350.8;" xml:space="preserve">
<style type="text/css">
	.st0{fill:#375D63;}
	.st1{fill:#90573A;}
	.st2{fill:#7F4C36;}
	.st3{fill:#BC3737;}
	.st4{fill:#F49595;}
	.st5{fill:#FFFFFF;}
	.st6{fill:#D2DAE4;}
	.st7{fill:none;stroke:#D2DAE4;stroke-width:2;stroke-miterlimit:10;}
	.st8{fill:none;stroke:#EAD3D3;stroke-width:3;stroke-linecap:round;stroke-miterlimit:10;}
	.st9{fill:#EAD3D3;}
</style>
<path class="st0" d="M419.9,431.7c-23.3,2.5-44.5,10-69.8,18.3c0,0-11.5,0.5-10.8-0.1l-70.8-16.6l5.9-58.4
	c1.1-10.7,10.1-18.8,20.8-18.8h99.9c11,0,20.1,8.5,20.8,19.4L419.9,431.7z"/>
<path class="st1" d="M218.3,178c2.8-0.2,5.2-2,6.2-4.6c2.2-6,4.9-16.1,5.8-17.7c1.3-2.3,13.6-26.7,12.3-26.9
	c-0.8-0.1-3.2,0.4-5.2,0.9c-1.8,0.4-3.3,1.5-4.3,3l0,0c-3.4,5.1-11.2,3.9-12.9-2l-3.7-13c0,0-9.1-36-10.2-34.8
	c-0.9,0.8-1.8,1.5-2.7,2.2c-2.1,1.6-3.1,4.3-2.6,6.9l4.7,25.2c0.3,1.8,0,3.6-1,5.2l-13,20.4c-1.1,1.8-1.4,4-0.8,6
	c1.9,6.1,6.2,19.1,8,21.6c0.7,1,5.1,9.1,8.9,8.6C209.2,178.7,214.5,178.3,218.3,178z"/>
<rect x="324.5" y="114.4" class="st2" width="39.5" height="47.4"/>
<path class="st3" d="M444.3,411.1l-12.7-6.8c-2-1.1-3-3.3-2.6-5.5l0.7-3.3c0.2-1,0.1-2.1-0.3-3.1l0,0c-0.8-1.9-0.4-4.1,1-5.6
	l7.8-7.9c0.5-0.6,1-1.2,1.2-2l25.9-79.4c0.1-0.3,0.2-0.6,0.4-0.9l4.1-7.2c4.6-8.2,14.7-11.6,23.3-7.7l0,0c9.2,4.1,13.2,14.9,9.1,24
	c-0.1,0.3-0.3,0.7-0.5,1L460,385.9c-0.4,0.7-0.6,1.5-0.6,2.3c0,3.9-0.2,16-0.9,15.9c-0.6-0.1-2.9,1.1-4.4,1.8
	c-0.7,0.4-1.4,0.9-1.8,1.6l-1.4,2C449.4,411.6,446.5,412.3,444.3,411.1z"/>
<path class="st3" d="M189.9,291.8l12.3-91.3c0.1-0.6,0-1.2-0.3-1.7l-3.9-6.6c-0.4-0.7-0.5-1.5-0.2-2.2l3.1-8.1
	c0.3-0.7,0.9-1.3,1.6-1.5l20.8-6.5c1.5-0.5,3,0.5,3.3,2l1.2,7.1c0.1,0.7,0.6,1.4,1.2,1.8l0,0c1.1,0.7,1.5,2,1,3.1l-5.6,14
	c-0.1,0.3-0.2,0.7-0.2,1.1c0.3,6.8,3.4,74.6,3,77.3c-0.4,2.6-1.3,13.2-1.5,14.8c0,0.2,0,0.3-0.1,0.4l-0.4,1.5
	c-2.3,8.4-10.3,13.9-18.9,13.1l0,0c-8.7-0.8-15.6-7.8-16.3-16.5l-0.1-1.3C189.9,292.2,189.9,292,189.9,291.8z"/>
<path class="st3" d="M497.8,285.6l-48.2-60.1l-14.4-22.7c-4.2-6.5-10.2-11.7-17.3-14.7L370,167.4l-1.5-14c-0.3-2.5-2.3-4.3-4.8-4.3
	l-35.9-0.3c-2.4,0-4.5,1.8-4.9,4.2l-1.9,13.5l-49.6,21.4c-7.4,3.2-13.6,8.7-17.8,15.6l-15,24.9L195,281.1
	c-6.2,7.5-5.2,18.6,2.3,24.8c7.5,6.2,18.6,5.2,24.9-2.3c0.1-0.1,0.2-0.2,0.2-0.3l54.7-58.2l0.7,78.4l-20.5,140.4
	c-1.1,9.4,10.1,5.8,19.3,7.8c0,0,50.5,13.7,67.8,14.4c17.9,0.7,71-9.5,71-9.5c0.1,0,0.2,0,0.2,0c10-1.5,25.3,1.4,23.9-8.6
	l-27.2-140.1l0.6-78.6l56.7,60.8c6.9,7.4,18.6,8,26.2,1.2C503.1,304.5,504,293.3,497.8,285.6z"/>
<path class="st1" d="M404,423.2c0.7-3,12-13.3,12.9-13.3s15-5.7,16-6.3s16.4,5.6,16.2,6.4s-5.7,25.1-7.1,26.1s-5.7,6.6-6.6,6.6
	c-0.6,0-9.8-2.5-16.1-4.3c-3.9-1.1-7.3-3.4-9.7-6.6C406.9,428.2,403.5,425.3,404,423.2z"/>
<path class="st3" d="M368.2,172.7h-47.3c-3.8,0-6.8-3.1-6.8-6.8v-16.8c0-3.8,3.1-6.8,6.8-6.8h47.3c3.8,0,6.8,3.1,6.8,6.8v16.8
	C375,169.6,371.9,172.7,368.2,172.7z"/>
<g>
	<path class="st4" d="M226,166.2h-30.6c-4.5,0-8.1-3.6-8.1-8.1V81c0-4.5,3.6-8.1,8.1-8.1H226c4.5,0,8.1,3.6,8.1,8.1v77.1
		C234.1,162.5,230.5,166.2,226,166.2z"/>
	<path class="st5" d="M228.9,160.4h-36.4c-1.2,0-2.3-1-2.3-2.3V83.9c0-1.2,1-2.3,2.3-2.3h36.4c1.2,0,2.3,1,2.3,2.3v74.2
		C231.2,159.3,230.2,160.4,228.9,160.4z"/>
	<path class="st5" d="M219.5,77.8H202c-0.3,0-0.6-0.3-0.6-0.6v-0.3c0-0.3,0.3-0.6,0.6-0.6h17.5c0.3,0,0.6,0.3,0.6,0.6v0.3
		C220.1,77.6,219.8,77.8,219.5,77.8z"/>
	<circle class="st6" cx="210.7" cy="115" r="9.9"/>
	<path class="st6" d="M223.9,160.5h-26.4v-21.6c0-6,4.8-10.8,10.8-10.8h4.8c6,0,10.8,4.8,10.8,10.8L223.9,160.5L223.9,160.5z"/>
	<path class="st7" d="M217.3,98.6c-1.7-1.7-4-2.7-6.6-2.7s-4.9,1-6.6,2.7"/>
	<path class="st7" d="M219.2,96c-2.1-2.4-5.1-3.9-8.5-3.9s-6.5,1.5-8.5,4"/>
	<path class="st7" d="M221.9,92.9c-2.5-3.4-6.6-5.6-11.2-5.6c-4.6,0-8.7,2.2-11.2,5.7"/>
	<path class="st7" d="M215.4,101.2c-1.1-1.3-2.8-2.1-4.6-2.1c-1.9,0-3.5,0.8-4.7,2.1"/>
</g>
<path class="st4" d="M167.3,69.2c4.1-6.6,6.5-14.3,6.5-22.6c0-23.6-19.1-42.8-42.8-42.8S88.2,23,88.2,46.6s19.1,42.8,42.8,42.8
	c7.1,0,13.8-1.8,19.7-4.8l18.4,4.5c0.6,0.2,1.2-0.4,1.1-1L167.3,69.2z"/>
<path class="st8" d="M131,3.8"/>
<path class="st8" d="M131,3.8c-23.6,0-42.8,19.1-42.8,42.8c0,23.6,19.1,42.8,42.8,42.8c7.1,0,13.8-1.8,19.7-4.8l18.4,4.5
	c0.6,0.2,1.2-0.4,1.1-1l-2.9-18.8c4.1-6.6,6.5-14.3,6.5-22.6"/>
<path class="st9" d="M147,33.3c-4.4-3.2-10.4-2.4-14.2,1.4l-1.8,1.8l0,0l-2.1-2.1c-4.2-4.2-11.1-4.2-15.4,0l0,0
	c-4.2,4.2-4.2,11.1,0,15.4l2.1,2.1l0,0l14.8,14.8c0.3,0.3,0.8,0.3,1.1,0l14.8-14.8l0,0l2-2C153.1,45.2,152.6,37.3,147,33.3z"/>
<path class="st1" d="M186.9,110.3h-0.5c-1.7,0-3.1-1.4-3.1-3.1v-4.1c0-1.7,1.4-3.1,3.1-3.1h0.5c1.7,0,3.1,1.4,3.1,3.1v4.1
	C190,108.9,188.6,110.3,186.9,110.3z"/>
<path class="st1" d="M187,120.4h-0.5c-1.7,0-3.1-1.4-3.1-3.1v-4.1c0-1.7,1.4-3.1,3.1-3.1h0.5c1.7,0,3.1,1.4,3.1,3.1v4.1
	C190.1,119,188.7,120.4,187,120.4z"/>
<path class="st1" d="M187.1,130.6h-0.5c-1.7,0-3.1-1.4-3.1-3.1v-4.1c0-1.7,1.4-3.1,3.1-3.1h0.5c1.7,0,3.1,1.4,3.1,3.1v4.1
	C190.1,129.2,188.8,130.6,187.1,130.6z"/>
</svg>
