<?xml version="1.0" encoding="utf-8"?>
<!-- Generator: Adobe Illustrator 26.0.3, SVG Export Plug-In . SVG Version: 6.00 Build 0)  -->
<svg version="1.1" id="Layer_1" xmlns="http://www.w3.org/2000/svg" xmlns:xlink="http://www.w3.org/1999/xlink" x="0px" y="0px"
	 viewBox="0 0 788 1005.1" style="enable-background:new 0 0 788 1005.1;" xml:space="preserve">
<style type="text/css">
	.st0{fill:#375D63;}
	.st1{fill:#7F4C36;}
	.st2{fill:#9C3A26;}
	.st3{fill:#295446;}
	.st4{fill:#90573A;}
	.st5{fill:#873022;}
	.st6{fill:#AFAFAF;}
	.st7{fill:#898989;}
</style>
<g id="Calque_1">
	<path class="st0" d="M481.8,486.8c-23.3,2.5-44.5,10-69.8,18.3c0,0-11.5,0.5-10.8-0.1l-70.8-16.6l5.9-58.4
		c1.1-10.7,10.1-18.8,20.8-18.8H457c11,0,20.1,8.5,20.8,19.4L481.8,486.8z"/>
</g>
<rect x="387.9" y="169.5" class="st1" width="39.5" height="47.4"/>
<path class="st2" d="M468.1,386c0-0.1,6.6-68.9,6.7-80c0.9-0.3,0.3-0.1,1.1-0.4l55.5,59.6c6.9,7.4,18.6,8,26.2,1.2
	c7.4-6.6,8.3-17.8,2.1-25.6l-48.1-60c-0.1-0.1-0.1-0.2-0.2-0.3l-16.1-25.3c-3-4.8-7.4-8.5-12.6-10.7l-49.3-21.3
	c-1-0.4-1.6-1.3-1.7-2.4l-1.5-14c-0.2-1.5-1.4-2.6-2.9-2.6l-39.3-0.3c-1.5,0-2.7,1.1-2.9,2.5l-1.9,13.5c-0.1,1-0.8,1.9-1.7,2.3
	L335.9,242c-8.7,3.8-14.9,11.6-16.5,20.9l-7,39.6l-13,67.1c-1.9,9.5,4.3,18.8,13.9,20.7c9.6,1.9,18.8-4.3,20.7-13.9
	c0-0.1,0.1-0.3,0.1-0.4l4.6-17.7c0.1-0.6,7.6-33.2,7.6-32.7c0,0-0.9,61.2-0.9,61.3"/>
<path class="st3" d="M345.2,386.9l-24.9,119.7c-1.1,9.4,9.1,18.2,18.3,20.2c0,0,50.5,13.7,67.8,14.4c17.9,0.7,71-9.5,71-9.5
	c0.1,0,0.2,0,0.2,0c10-1.5,21-12,19.5-22l-29-123.7"/>
<path class="st2" d="M536,362.6c4,10.5,14.8,8.3,23.8,5.2c6.4-2.2,66.3-30.2,82.7-37.6c9.3-4.2,14.3-6.1,12.3-11.9
	c-1.8-5.2-17.2-1.8-21.3-1.3c-38.3,4.3-53.2,8.8-85.9,16.9C529.3,338.5,534.7,359,536,362.6z"/>
<path class="st4" d="M680.8,303.6c5.4,0.3,10.8,0.1,16.2-0.6c0,0-1.9,4.5-4.2,6c-1.8,1.1-12.2,2.9-12.2,2.9l0,0
	c27,10.6,54.8,23,57.2,24.9c1.7,1.3,3.2,7.6,3.2,7.6s-26.2-9.5-33.7-11.7c-25.5-7.4-44.7-7.8-59.2-4.7c-2.6,0.5-9.4-11.8-4.2-13.4
	c1.8-0.6,9-8,12.2-8.3C669,304.8,680.4,303.6,680.8,303.6z"/>
<path class="st2" d="M657.1,309.9l3,14.1c0.5,2.2-0.6,4.4-2.5,5.5l-2.9,1.6c-0.9,0.5-1.7,1.3-2.1,2.2l0,0c-0.9,1.9-2.9,3-4.9,2.8
	l-11.1-0.8c-0.8-0.1-1.6,0.1-2.3,0.4L557,367.4c-0.3,0.1-0.6,0.2-0.9,0.3l-8.1,1.6c-9.2,1.8-18.4-3.7-21-12.8l0,0
	c-2.8-9.6,2.7-19.7,12.4-22.5c0.4-0.1,0.7-0.2,1.1-0.3l87.3-19.4c0.8-0.2,1.5-0.5,2.1-1c3-2.5,12.4-10.2,12.7-9.6
	c0.3,0.5,2.7,1.6,4.2,2.2c0.8,0.3,1.6,0.4,2.4,0.3l2.5-0.3C654.2,305.6,656.6,307.4,657.1,309.9z"/>
<path class="st3" d="M352.2,232.8l1.8-0.8c2.7-1.2,5.7,0.3,6.5,3l14.6,48.7c0.3,1.1-0.3,2.3-1.4,2.7l-4.6,1.6
	c-1.2,0.4-2.4-0.2-2.8-1.4l-16.7-48C348.7,236.5,349.9,233.8,352.2,232.8z"/>
<path class="st3" d="M472,237.9l-0.8-0.3c-2.9-1.3-6.3,0.3-7.3,3.4l-14.3,47.7c-0.4,1.4,0.3,2.9,1.7,3.4l3.7,1.3
	c1.4,0.5,3-0.2,3.5-1.7l16.3-47C475.8,241.9,474.5,239,472,237.9z"/>
<circle class="st3" cx="373.4" cy="292.6" r="3.7"/>
<circle class="st3" cx="451.3" cy="297.8" r="3.7"/>
<path class="st3" d="M366.1,303.2l90.2,4.7c2.5,0.1,4.6,1.9,5.3,4.3l6.3,24.5c0.1,0.5,0.2,0.9,0.2,1.4v47.3H345.5l1.6-48.7
	c0-0.8,0.2-1.5,0.5-2.2l12.9-28C361.6,304.4,363.8,303.1,366.1,303.2z"/>
<path class="st3" d="M345.5,385.5"/>
<path class="st3" d="M377,307.1l-6.7-0.4c-1.5-0.1-2.6-1.4-2.5-2.9l0.1-2.2c0.1-1.5,1.4-2.6,2.9-2.5l6.7,0.4
	c1.5,0.1,2.6,1.4,2.5,2.9l-0.1,2.2C379.7,306.1,378.4,307.2,377,307.1z"/>
<path class="st3" d="M452,313.6l-7.5-1.1c-1.6-0.2-2.8-1.7-2.5-3.4l0.5-3.5c0.2-1.6,1.7-2.8,3.4-2.5l7.5,1.1
	c1.6,0.2,2.8,1.7,2.5,3.4l-0.5,3.5C455.1,312.7,453.6,313.8,452,313.6z"/>
<path class="st2" d="M376.1,323.6l-1.9,22.5l24.9,7.6c6.6,2,13.7,2.5,20.5,1.5l25.4-3.9l1-22.9L376.1,323.6z"/>
<path class="st5" d="M376.1,323.4l-2.3,11.1l34.4,6.3c1.4,0.3,2.9,0.3,4.3,0.2l34.1-3.5v-11.7L376.1,323.4z"/>
<path class="st5" d="M467.1,394.3H346.4c-1.2,0-2.1-0.9-2.1-2.1v-11.7c0-1.2,0.9-2.1,2.1-2.1h120.7c1.2,0,2.1,0.9,2.1,2.1v11.7
	C469.2,393.4,468.2,394.3,467.1,394.3z"/>
<path class="st5" d="M338.2,386.3c0,0-20.8,58.2-15.4,63.8c5.4,5.6,59.2,11.7,63.9,8.1c4.7-3.6,10.7-67.7,10.7-67.7L338.2,386.3z"/>
<path class="st6" d="M364.4,411.2l-3.6,0.5c-1.1,0.1-2.1-0.6-2.2-1.7l-6.1-45.1c-0.1-1.1,0.6-2.1,1.7-2.2l3.6-0.5
	c1.1-0.1,2.1,0.6,2.2,1.7l6.1,45.1C366.3,410.1,365.5,411.1,364.4,411.2z"/>
<path class="st6" d="M368.6,411.7L368.6,411.7c-1.1,0-2-0.9-2-2v-35.6c0-1.1,0.9-2,2-2l0,0c1.1,0,2,0.9,2,2v35.6
	C370.6,410.8,369.7,411.7,368.6,411.7z"/>
<path class="st6" d="M374.2,411.5l-1.6-0.4c-1.1-0.3-1.7-1.3-1.5-2.4l5.8-24.3c0.3-1.1,1.3-1.7,2.4-1.5l1.6,0.4
	c1.1,0.3,1.7,1.3,1.5,2.4l-5.8,24.3C376.3,411.1,375.2,411.8,374.2,411.5z"/>
<path class="st2" d="M338.7,390.6c0,0-20.4,56.4-12.4,58.5c8.1,2.1,49.1,10.5,54.6,6.4c5.4-4.1,4.3-60.6,4.3-60.6L338.7,390.6z"/>
<path class="st7" d="M342.5,394.3l38.1-91.1c0.3-0.8,0.4-1.6,0.2-2.4l-3.7-17.1c-0.2-1-0.1-2,0.4-2.8l9.4-16.6
	c0.6-1.1,1.8-1.9,3.1-2l14-1.5c1.3-0.1,2.7,0.4,3.5,1.4l5.3,6.3c1.9,2.2,0.8,5.7-2,6.4l0,0c-1.4,0.4-2.9,0-3.9-1l-2.7-2.7
	c-0.9-0.8-2.1-1.3-3.3-1.1l-5.6,0.7c-1.1,0.1-2.1,0.7-2.8,1.6l-6.5,8.8c-0.7,0.9-0.9,2-0.7,3.1l2.4,13.1c0,0.2,0.1,0.4,0.1,0.6v1
	c0.1,3.6,4.6,5.3,7,2.5l2.9-3.2c0.6-0.7,1.5-1.2,2.4-1.3l4.6-0.7c3.8-0.6,6.1,4,3.5,6.7l-10.8,11.5c-0.6,0.7-1,1.6-1.1,2.5
	l-5.5,89.6c-0.1,2.3-2.2,4-4.5,3.7l-0.9-0.1c-2.1-0.3-3.7-2.2-3.5-4.3l6.4-78.5c0.1-1-0.2-1.9-0.7-2.7l-0.5-0.7
	c-1.9-2.6-5.9-2.1-7,0.9L352,398.6c-0.9,2.4-3.8,3.3-5.9,2l-2.1-1.3C342.4,398.1,341.7,396.1,342.5,394.3z"/>
<path class="st2" d="M329.8,389.3l72.4-57l-31.1,2.2c0,0-48.3,15.1-50.4,16.8s-11.8,9.2-11.8,9.2l-1.2,1.3c-5.8,6.4-6.3,16-1.3,23
	l0,0c5,7,14.4,9.2,22,5.2L329.8,389.3z"/>
<path class="st4" d="M357,364.9c-4.3-3.9-6.6-17.6-4.3-22.9c1-2.2,8.5-5.2,8.5-5.2l6-2.6c1.4-0.6,2.7-1.7,3.5-3l4.5-7.1
	c0.3-0.5,0.7-1,1.1-1.4l4.4-4.4c1.4-1.4,3.3-2.2,5.3-2.3l10.7-0.5c4.3-0.2,7.9,3,8.3,7.2l1.7,18c0.3,2.8-1,5.6-3.3,7.3l-15,10.6
	c-1.7,1.2-3.7,1.7-5.7,1.4l-7-1c-1.7-0.2-3.5,0.1-5,0.9l-7.9,4.4C362.8,364.3,359,366.7,357,364.9z"/>
<path class="st4" d="M367.4,335.6l6.1-18.8c0.1-0.3,0.3-0.5,0.5-0.8l0,0c1.1-1.1,2.9-0.4,3.2,1.1l0.8,5.5c0.1,0.5-0.1,1.1-0.4,1.5
	L367.4,335.6z"/>
</svg>
