<?xml version="1.0" encoding="utf-8"?>
<!-- Generator: Adobe Illustrator 26.0.3, SVG Export Plug-In . SVG Version: 6.00 Build 0)  -->
<svg version="1.1" id="Layer_1" xmlns="http://www.w3.org/2000/svg" xmlns:xlink="http://www.w3.org/1999/xlink" x="0px" y="0px"
	 viewBox="0 0 588 350.8" style="enable-background:new 0 0 588 350.8;" xml:space="preserve">
<style type="text/css">
	.st0{fill:#375D63;}
	.st1{fill:#90573A;}
	.st2{fill:#7F4C36;}
	.st3{fill:#D3D3D3;}
	.st4{fill:#D34B1C;}
</style>
<g>
	<g id="Calque_1_00000180352489093704844010000013830218214247062939_">
		<path class="st0" d="M366.8,353.1c-23.3,2.5-44.5,10-69.8,18.3c0,0-11.5,0.5-10.8-0.1l-70.8-16.6l5.9-58.4
			c1.1-10.7,10.1-18.8,20.8-18.8H342c11,0,20.1,8.5,20.8,19.4L366.8,353.1z"/>
	</g>
	<path class="st1" d="M187.2,50c0.2-0.5,0.6-0.9,1.1-1c2.8-0.7,12-3,11.5-1.1c-0.6,2.1-8.8,19.9-9.9,22.3c-0.1,0.2-0.2,0.3-0.3,0.5
		c-2,2-18.2,18.3-20.4,20.2c-1.9,1.7-13.1,0.6-16.9,0.2c-0.8-0.1-1.4-0.7-1.4-1.4l-0.8-7.1c0-0.2-0.1-0.4-0.2-0.6l-14.4-27.4
		c-0.1-0.2-0.2-0.5-0.2-0.7L134.8,19c0-0.8,0.6-1.6,1.5-1.6l2-0.2c0.9-0.1,1.7,0.5,1.8,1.4l3,22.8c0,0.2,0.4,0.2,0.4,0l-0.9-37.8
		c0-0.8,0.6-1.6,1.5-1.7l4.2-0.5c0.8-0.1,1.6,0.5,1.8,1.3l5.7,29.7c0.1,0.3,0.6,0.3,0.5-0.1l-1.4-30.1c0-0.9,0.6-1.6,1.5-1.7
		l4.1-0.5c0.9-0.1,1.7,0.5,1.8,1.4l3.9,35.2c0.2,1.5,2.2,2,3,0.7l3.6-5.8c0.3-0.5,0.8-0.8,1.3-0.8c3.4-0.1,12.7,0.4,16,0.6
		c0.7,0,1.3,0.6,1.5,1.3c0.5,2.3,1.2,7,1.7,9.7c0.2,1.1-0.7,2-1.8,1.9l-5.1-0.5c-0.6-0.1-1.1-0.4-1.3-1l-0.9-2
		c-0.3-0.7-1.1-1.1-1.8-0.9l-4.8,1c-0.5,0.1-0.9,0.4-1.1,0.8l-2.5,4.5c-0.2,0.4-0.3,0.8-0.2,1.2l3,12.1c0.2,0.9,1.2,1.5,2.1,1.2
		l4.4-1.5c0.5-0.2,0.8-0.5,1-1L187.2,50z"/>
	<polygon class="st1" points="169.7,114.2 171,83.2 150.6,87.4 146.6,127.2 	"/>
	<rect x="272.9" y="35.8" class="st2" width="39.5" height="53.6"/>
	<path class="st3" d="M136.8,213.5l9.3-90.4c0.2-1.7,0-3.5-0.4-5.1l-1.2-4.5c-0.1-0.5-0.1-1.1,0.1-1.6l3.3-8.5
		c0.3-0.7,0.9-1.3,1.6-1.5l20.8-6.5c1.5-0.5,3,0.5,3.3,2l1.2,7.1c0.1,0.7,0.6,1.4,1.2,1.8l0,0c1.1,0.7,1.5,2,1,3.1l-5.6,13.9
		c-0.1,0.3-0.2,0.7-0.2,1.1c0.3,6.8,3.4,74.6,3,77.3c-0.4,2.8-1.5,15.1-1.5,15.1l-0.5,1.7c-2.3,8.4-10.3,13.9-18.9,13.1l0,0
		c-8.7-0.8-15.6-7.8-16.3-16.5L136.8,213.5z"/>
	<path class="st3" d="M444.7,207l-48.2-60.1l-14.4-22.7c-4.1-6.5-10.1-11.6-17.2-14.7l-48-20.7l-2-18.3l-12.2-0.1
		c-4,0-7.5,2.7-8.5,6.6l-1.5,12.4L291.2,77c-1-4-4.6-6.8-8.7-6.8l-12.1-0.1l-2.5,17.7l-49.7,21.5c-7.4,3.2-13.6,8.6-17.7,15.5
		l-15,25l-43.6,52.6c-6.2,7.5-5.1,18.6,2.3,24.8c7.5,6.2,18.6,5.2,24.9-2.3c0.1-0.1,0.2-0.2,0.2-0.3l54.7-58.2l0.5,66.5
		c0.1,7.9-0.4,15.8-1.3,23.6l-14,116.5c-1.1,9.4,5.1,18,14.3,20c0,0,50.5,13.7,67.8,14.4c17.9,0.7,71-9.5,71-9.5c0.1,0,0.2,0,0.2,0
		c10-1.5,16.8-10.7,15.4-20.7l-16.7-113.9c-1.4-9.4-2-18.9-1.9-28.3c0.2-22.1,0.5-62.2,0.5-64.4c0-1.5,0,0,0,0l56.7,60.8
		c6.9,7.4,18.6,8,26.1,1.2C450,225.9,450.9,214.7,444.7,207z"/>
	<path class="st1" d="M350.9,344.6c0.5-1,12-13.3,12.9-13.3s15-5.7,16-6.3s16.4,5.6,16.2,6.4s-5.7,25.1-7.1,26.1s-5.7,6.6-6.6,6.6
		c-0.6,0-10.7-2.8-17-4.6c-3.3-0.9-6.2-2.9-8.2-5.6C354.2,350.2,350.5,345.2,350.9,344.6z"/>
	<path class="st3" d="M391.1,332.5l-12.7-6.8c-2-1.1-3-3.3-2.6-5.5l0.7-3.3c0.2-1,0.1-2.1-0.3-3.1l0,0c-0.8-1.9-0.4-4.1,1-5.6
		l7.8-7.9c0.6-0.6,1-1.2,1.2-2l25.9-79.5c0.1-0.3,0.2-0.6,0.4-0.9l4.1-7.2c4.6-8.2,14.7-11.6,23.3-7.7l0,0c9.2,4.1,13.3,14.9,9.2,24
		c-0.2,0.4-0.3,0.7-0.5,1l-41.7,79.1c-0.4,0.7-0.6,1.5-0.6,2.3c0,3.9-0.2,16-0.9,15.9c-0.6-0.1-2.9,1.1-4.4,1.8
		c-0.7,0.4-1.4,1-1.8,1.6l-1.4,2C396.3,333,393.4,333.7,391.1,332.5z"/>
	<g>
		<path class="st4" d="M292.7,89.5c-10.4,5.3-22.6,11.2-33.1,16.3c-6.6,2.6-11.1,7.2-11.2,14.6l0.1,5.3c0.1,7,0.1,14.1,0.1,21.1
			c-1,42.2,0.4,84.4,1.3,126.5c0.5,42,1.4,85.1-0.4,126.5c-3.3-70.2-2-140.5-2.2-210.8c-0.4-20.3-1.4-43-1.4-63.2v-5.3
			c-0.1-5.7,3.1-11.3,8-14.3c2.7-1.6,6.9-3.1,9.7-4.5c4.8-2.1,14.5-6.3,19.4-8.4c3.2-1.4,6.5-2.8,9.7-4.1V89.5L292.7,89.5z"/>
	</g>
	<circle class="st4" cx="262.8" cy="130.5" r="3.4"/>
	<circle class="st4" cx="264.2" cy="198" r="3.4"/>
	<circle class="st4" cx="265" cy="327.9" r="3.4"/>
	<circle class="st4" cx="265" cy="265.4" r="3.4"/>
	<path class="st4" d="M269.9,73.3c0,0-3.9,2-5.6,6.5c-0.3,0.3-7,2.3-4.8,6.5s3.4,3.7,3.4,3.7s22,0.3,29.9,8.7c0.2,0,23.3-8.1,30.9-7
		c0.2,0.1,2.3-4.6,0-5.7c-2.3-1.1,0.6-4.2-0.9-6.7c-1.4-2.5-2.4-5.1-4.8-3.9c-2.4,1.1-25.3,9.3-25.3,16.3
		C292.9,91.6,286.5,80.9,269.9,73.3z"/>
	<path class="st4" d="M287.5,88.3c0,0,6.8-4.2,11.2,0c0.8,5.9,2.2,9.8,0,10.4s-6.5,2.8-8.2,1.7C288.9,99.2,281.3,96.1,287.5,88.3z"
		/>
	<path class="st4" d="M287.3,95.1l-8.8,11.3c-0.3,0.4-0.4,0.8-0.3,1.3l4.5,18.5c0.3,1.4,2.2,1.6,2.8,0.3l6.8-14.7
		c0.1-0.3,0.2-0.6,0.1-0.9l-2.5-15.2C289.8,94.5,288.1,94.1,287.3,95.1z"/>
	<path class="st4" d="M298.7,91.4l14.3,7.8c0.5,0.3,0.9,0.8,0.9,1.4l1.8,23.4c0.1,1.6-1.8,2.6-3,1.4l-10.8-10
		c-0.3-0.2-0.4-0.5-0.5-0.9l-5.2-21.2C295.8,91.8,297.4,90.6,298.7,91.4z"/>
</g>
</svg>
