<?xml version="1.0" encoding="utf-8"?>
<!-- Generator: Adobe Illustrator 26.0.3, SVG Export Plug-In . SVG Version: 6.00 Build 0)  -->
<svg version="1.1" id="Calque_1" xmlns="http://www.w3.org/2000/svg" xmlns:xlink="http://www.w3.org/1999/xlink" x="0px" y="0px"
	 viewBox="0 0 588 350.8" style="enable-background:new 0 0 588 350.8;" xml:space="preserve">
<style type="text/css">
	.st0{fill:#90573A;}
	.st1{fill:#7F4C36;}
	.st2{fill:#95C1BE;}
	.st3{fill:none;stroke:#95C1BE;stroke-width:2;stroke-linecap:round;stroke-miterlimit:10;}
	.st4{fill:#888215;}
	.st5{fill:#9E9520;}
	.st6{fill:#CECECE;}
</style>
<path class="st0" d="M442.7,170.9L394.6,111c-0.1-0.1-0.2-0.3-0.3-0.4l-13.7-21.5c-3.5-5.4-8.4-9.8-14.2-12.6l-48.5-22.9
	c-1.3-0.6-2.2-1.7-2.6-3l-3.9-50.8h-39.5l-4.5,50c-0.4,1.3-1.3,2.3-2.5,2.9l-48.2,20.9c-7,3-13,8.2-16.9,14.8l-15.1,25.2
	c-0.1,0.2-0.2,0.4-0.4,0.5L141,166.5c-6.2,7.5-5.2,18.6,2.3,24.8c7.5,6.2,18.6,5.2,24.9-2.3c0.1-0.1,0.2-0.2,0.2-0.3l54.7-57.7
	l0.7,77.6c0,0.2,0,0.4,0,0.6l-15.4,127.9c-1.1,9.4,5.1,18,14.3,20c0,0,50.5,13.7,67.8,14.4c17.9,0.7,71-9.5,71-9.5
	c0.1,0,0.2,0,0.2,0c10-1.5,16.8-10.7,15.4-20.7l-18.8-127.7c0-0.2,0-0.5,0-0.7c0-5.1,0.5-64.7,0.6-76.4l55.7,58.9
	c6.9,7.4,18.6,8,26.2,1.2C448,189.8,448.9,178.6,442.7,170.9z"/>
<polygon class="st1" points="271.9,-0.3 311.4,-0.3 313.9,31.6 268,43 "/>
<path class="st2" d="M380.6,342.8l-20.2-125.2c-1.4-8.8-2.1-17.7-2-26.6l0.2-20.2c0.2-25.8-3.7-51.8-15.6-75L319.1,54
	c0,0,13.9,24.5,11.7,37.8c-2.2,13.3-39,54.2-39.5,72.2v1.2c-0.5-18-37.2-59-39.5-72.2c-2.2-13.3,13.1-40.5,13.1-40.5l-20.6,36.4
	c-14,24.6-21.2,52.1-21.1,80l0,0c0.1,22.5-1.2,45-4,67.4L202.9,349c-6.2,50.7,44.6,21.8,87.4,71.4c6.3,7.3,38,27.4,42,18.7
	c21.2-46.1,52.1-47.7,50.1-79.9C382,353.7,381.5,348.2,380.6,342.8z"/>
<path class="st0" d="M242.4,313.7c2,0.8-22.5-31.2-22.5-31.2l-0.3-6.5c-0.1-2.1-2.2-3.6-4.2-2.9l-4.8,1.5l0,0
	c-6.5-9.3-11.6-19.4-15.2-30.2l-21.1-64.8l-4.3-7.7c-4.6-8.2-14.7-11.6-23.3-7.7c-9.2,4.1-13.2,14.9-9.1,24c0.1,0.3,0.3,0.7,0.5,1
	l54.4,95.3c4.4,7.7,9.9,14.7,16.4,20.7c2,1.8,4,3.5,5.9,4.8c5.7,3.8,18.1,12.2,25.2,17.1c1.7,1.2,4-0.2,3.7-2.3L242.4,313.7z"/>
<path class="st2" d="M222.8,191.7c0,0-117.8,201.9-93.6,212.6c24.2,10.7,37.7,5.6,46.1,18s26.4,12.9,32.1,28.7
	c5.6,15.7,37.7,12.7,50.6,21.7c12.9,9,23.2-4.7,41.2,0.9s32.5,12.8,55,7.7s16.8-28.1,35.7-30.4c18.9-2.2-5.3-7.9,26.2-18.6
	c31.5-10.7,13.5-27.6,42.7-36s6.2-25.3,29.8-30.9c23.6-5.6-111.8-109.9-130-163.7"/>
<path class="st3" d="M267.7,47.3l5.1,1.9c12.3,4.5,25.8,4.2,37.8-0.9l4.5-1.9"/>
<g id="GcAfxX_00000158726393485427391440000013673085389559127732_">
	<g>
		<path class="st4" d="M341.3,245.9c1.4-1.2,2.9-2.4,4.8-4c-0.1,1.1-0.2,1.6-0.2,2.1c-3.1,5-7.3,9.3-8.4,15.3h-0.1
			c-0.2,0.2-0.3,0.3-0.5,0.5c-0.8,0.8-1.7,1.6-2.6,2.5c0.4,1.8,0.8,3.7,1.3,5.6c0.5,1.5,1,3.1,1.5,4.6c0.1,0.1,0.1,0.1,0.2,0.2v0.1
			c0.7,1.4,1.5,2.8,2.2,4.2c1.6,2.7,3.2,5.3,5.5,9.3c-0.5-2.7-0.8-3.9-1-5.1c0.6-5.9,1.1-11.8,1.7-17.7c0.1-0.2,0.2-0.4,0.3-0.5
			c0.1-0.1,0.1-0.3,0.2-0.4c0.6-1,1.1-2.1,1.9-3.4c0.4,1.2,0.7,2,1,2.7c-1.8,6.9-2.7,13.8-2.6,20.9v0.1c-0.1,0.2-0.2,0.4-0.3,0.7
			c-0.3,0.7-0.5,1.4-0.8,2.1c5.2,6,11.8,9.9,20.3,12.9c-10.9,1.1-15-10.4-24.2-10.4c-2.6-2.9-6.3-2.9-10-4.2c0,0.1-0.3-0.3-0.8-0.9
			c-0.5,0.2-1.1,0.4-1.6,0.6c-1.2-1-2.3-2-3.9-3.4c1-0.1,1.4-0.1,1.8-0.1c5.6,2,11.1,4.1,16.7,6.1c0.1,0,0.2,0,0.2,0
			c0.1-0.1,0.2-0.3,0.1-0.3c-2.6-4.1-5.1-8.1-8.1-12.8c-1-0.4-2.9-1.1-4.8-1.8c-1-1.1-1.9-2.3-2.5-3c-1.6-1-2.7-1.7-3.8-2.4
			c0-0.1,0.1-0.2,0.1-0.3c-1.6-0.9-3.2-1.8-4.7-2.8c-0.1,0-0.1-0.1-0.1-0.2c-0.1-0.1-0.2-0.3-0.4-0.4c-0.6-1.1-1.3-2.3-2.2-3.9
			c1.1,0.3,1.8,0.5,2.5,0.6c4.2,3.5,8.3,7.1,13,11c0.2-1,0.3-1.3,0.3-1.6c0.9,1.1,1.7,2.2,2.8,3.6c-0.3-1.1-0.5-1.8-0.7-2.4
			s-0.4-1.1-0.5-1.7c-0.3-1.3-0.6-2.7-1-4c-0.3-1.1-0.7-2.3-1-3.4c-0.1-1.7-0.1-3.4-0.2-5.1c0.2,0,0.4-0.1,0.5-0.1
			c0.2,1.8,0.5,3.5,0.7,5.3c0,0.3,0,0.5,0.1,1.4c0.3-0.8,0.4-1.1,0.5-1.3c0.2-0.9,0.3-1.8,0.5-2.7
			C337.9,254.5,340.7,250.8,341.3,245.9z"/>
		<path class="st5" d="M332.8,260.7c0.3,1.1,0.7,2.3,1,3.4c-0.9,0.6-1.8,1.2-2.8,1.8c0.8,1,1.5,1.9,2.2,2.7
			c-0.1,0.3-0.1,0.6-0.3,1.6c-4.7-4-8.8-7.5-13-11c1.8,0.6,3.5,1.2,5.4,1.8c-0.1-1.4-0.6-3.4,1.5-3.7
			C329.3,257,331.3,258.6,332.8,260.7z"/>
		<path class="st4" d="M331.7,252.5c-6.3-5-10.6-11.1-10.6-19.9c0.9,0.7,1.5,1.2,2.1,1.7c2.7,4.6,5.4,9.3,8.1,13.9
			c0.2,0.9,0.5,1.7,0.7,2.6c0,0.1,0,0.2,0,0.2c0,0.2-0.1,0.3,0.4-2.3c-0.3,2.6-0.3,2.5-0.3,2.3s0.1-0.3,0.1-0.5c0-0.4,0-0.8,0-1.2
			c0.4,1.2,0.9,2.3,1.3,3.5c-0.2,0-0.4-0.1-0.6-0.2c0,0.3,0,0.6,0,0.8C332.5,253.2,332.1,252.8,331.7,252.5z"/>
		<path class="st5" d="M339.4,277.1c-0.7-1.4-1.5-2.8-2.2-4.2c0.7-1.1,1.4-2.2,2.2-3.3c1.1-1.5,2.3-2.8,4.3-1.6c0.7-1.5,1.3-3,2-4.4
			c-0.6,5.9-1.1,11.8-1.7,17.7c-0.1-0.6-0.2-1.2-0.3-1.8c0-0.3-0.1-0.5-0.1-0.8c-0.1-0.5-0.3-1-0.3-1.1
			C341.7,277.4,340.6,277.2,339.4,277.1z"/>
		<path class="st5" d="M333.7,252.9c-0.4-1.2-0.9-2.3-1.3-3.5c0-0.6,0-1.3-0.1-1.9c0.2,0,0.3-0.1,0.5-0.1c2.2-1.9,4.4-6.6,6.7,0.1
			c0.6-0.5,1.2-1,1.8-1.5c-0.7,4.8-3.4,8.5-6.4,12.1c0.3-1.3,0.6-2.7,0.9-3.9C335.1,253.7,334.4,253.3,333.7,252.9z"/>
		<path class="st4" d="M333,241.8c0.3-0.9,0.6-1.7,0.9-2.6c3.4-3.2,5.2-7.3,6.8-11.6c1-0.8,2-1.6,3.3-2.7c-0.1,1.2-0.2,1.9-0.2,2.6
			c-2.9,4.2-6,8.2-6.5,13.5c-0.6,0.7-1.3,1.3-1.9,2c-0.1,0.1-0.2,0.3-0.4,0.4c-0.7,0.7-1.5,1.4-2.2,2.1c-0.2,0-0.3-0.1-0.5-0.1
			c0.1-0.5,0.1-1,0.2-1.5C332.6,243.2,332.8,242.5,333,241.8z"/>
		<path class="st5" d="M346.2,283c-0.1-7.1,0.7-14.1,2.6-20.9C351.3,269.4,349.3,276.3,346.2,283z"/>
		<path class="st4" d="M334.7,233.4c-0.4,0.8-0.9,1.6-1.6,3.1c-0.3-2.2-0.5-3.6-0.6-5.1c1.4-5.5,2.9-11.1,4.3-16.6
			c0.3-0.4,0.6-0.8,1.1-1.4c0.2,0.9,0.3,1.4,0.5,2c0,0.3,0,0.5,0,0.8l0,0C336,221.7,335.1,227.5,334.7,233.4z"/>
		<path class="st5" d="M337.4,259.3c1.2-6,5.4-10.3,8.4-15.3C345.4,250.4,342,255.2,337.4,259.3z"/>
		<path class="st5" d="M334.7,233.4c0.4-5.9,1.3-11.8,3.7-17.3C339.9,222.5,337.7,228.1,334.7,233.4z"/>
		<path class="st5" d="M343.4,286.4c-5.6-2-11.1-4.1-16.7-6.1C333.3,279.6,338.6,282.4,343.4,286.4z"/>
		<path class="st5" d="M337.2,241c0.5-5.3,3.6-9.4,6.5-13.5C343.4,232.9,340.9,237.2,337.2,241z"/>
		<path class="st5" d="M336.7,214.9c-1.4,5.5-2.9,11.1-4.3,16.6C331.8,225.4,332.8,219.8,336.7,214.9z"/>
		<path class="st5" d="M331.3,248.2c-2.7-4.6-5.4-9.3-8.1-13.9C327.9,237.8,330.1,242.7,331.3,248.2z"/>
		<path class="st5" d="M328.8,283.8c0.5-0.2,1.1-0.4,1.6-0.6c0.5,0.6,0.9,1,0.8,0.9c3.8,1.3,7.5,1.3,10,4.2
			C336.6,288.1,332.4,286.8,328.8,283.8z"/>
		<path class="st5" d="M320,263.1c1.6,0.9,3.2,1.8,4.7,2.8c0,0.1-0.1,0.2-0.1,0.3c1.1,0.7,2.2,1.4,3.8,2.4c0.6,0.7,1.5,1.8,2.5,3
			C326.3,269.8,322.6,267.2,320,263.1z"/>
		<path class="st5" d="M340.7,227.6c-1.6,4.3-3.5,8.3-6.8,11.6C334.9,234.6,337,230.6,340.7,227.6z"/>
		<path class="st5" d="M333,241.8c-0.2,0.7-0.4,1.4-0.6,2.2c0-1.4,0.1-2.8,0.1-4.2c0.1,0,0.3,0,0.4,0C333,240.4,333,241.1,333,241.8
			z"/>
		<path class="st5" d="M331.7,252.5c0.4,0.3,0.9,0.7,1.3,1c0,0.6,0.1,1.3,0.1,1.9c-0.2,0-0.4,0.1-0.5,0.1
			C332.3,254.5,332,253.5,331.7,252.5z"/>
		<path class="st5" d="M337,272.6c-0.5-1.5-1-3.1-1.5-4.6C336,269.5,336.5,271.1,337,272.6z"/>
		<path class="st4" d="M332.8,247.4c-0.2,0-0.3,0.1-0.5,0.1c0-0.7,0-1.4,0-2.1c0.2,0,0.3,0.1,0.5,0.1
			C332.8,246.1,332.8,246.8,332.8,247.4z"/>
		<path class="st5" d="M332.8,239.1C333.2,237.5,333.1,237.7,332.8,239.1C332.9,237.7,332.9,237.4,332.8,239.1z"/>
		<path class="st5" d="M336.8,259.9c0.2-0.2,0.3-0.3,0.5-0.5C337.2,259.6,337,259.7,336.8,259.9z"/>
		<path class="st5" d="M338.4,216.2c0-0.3,0-0.5,0-0.8C338.4,215.7,338.4,215.9,338.4,216.2z"/>
		<path class="st5" d="M345.9,283.7c0.1-0.2,0.2-0.4,0.3-0.7C346.1,283.2,346,283.5,345.9,283.7z"/>
		<path class="st5" d="M319.5,262.5c0.1,0.1,0.2,0.3,0.4,0.4C319.7,262.8,319.6,262.7,319.5,262.5z"/>
		<path class="st5" d="M346,262.7c-0.1,0.1-0.1,0.3-0.2,0.4C345.8,263,345.9,262.8,346,262.7z"/>
		<path class="st5" d="M332.4,250.6c0,0.2-0.1,0.3-0.1,0.5l-0.2-0.1c0-0.1,0-0.1,0-0.2C332.2,250.7,332.3,250.7,332.4,250.6z"/>
		<path class="st5" d="M335,243.4c0.1-0.1,0.2-0.3,0.4-0.4C335.2,243.1,335.1,243.3,335,243.4z"/>
		<path class="st5" d="M333.1,236.3c0,0.1,0.1,0.2,0.1,0.3h-0.1C333.1,236.6,333.1,236.5,333.1,236.3L333.1,236.3z"/>
		<path class="st5" d="M335.3,269.8c-0.2-0.6-0.4-1.1-0.5-1.7C334.9,268.7,335.1,269.3,335.3,269.8z"/>
		<path class="st5" d="M333.8,260.7c0.2,0,0.4,0.1,0.6,0.1c-0.1,0.2-0.2,0.5-0.5,1.3C333.8,261.2,333.8,261,333.8,260.7z"/>
		<path class="st5" d="M332.3,251.1c0,0.2,0,0.3,0.3-2.3c-0.5,2.6-0.4,2.4-0.4,2.3C332.1,251,332.3,251.1,332.3,251.1z"/>
		<path class="st4" d="M343.6,279.5c0-0.3-0.1-0.5-0.1-0.8C343.5,279,343.5,279.2,343.6,279.5z"/>
	</g>
</g>
<path class="st0" d="M351.5,291.6c4.4-1.4,9.5-3.1,9.5-3.1l-8.1-2.6c-1.1-0.3-1.6-1.5-1.1-2.5c0.6-1.3,1.8-2.2,3.8-2.2l14.8-0.5l0,0
	c6.5-9.3,11.6-19.4,15.2-30.2l21.1-64.8l4.3-7.7c4.6-8.2,14.7-11.6,23.3-7.7c9.2,4.1,13.2,14.9,9.1,24c-0.1,0.3-0.3,0.7-0.5,1
	l-54.4,95.3c-4.4,7.7-11.7,17.6-18.2,23.6c-2,1.8-10.3,1.9-12.8,1.5c-4.9-1.8-8.4-9.6-10.3-15.3C346,296.7,347.9,292.8,351.5,291.6z
	"/>
<circle class="st6" cx="291.4" cy="52.9" r="2.8"/>
</svg>
