<?xml version="1.0" encoding="utf-8"?>
<!-- Generator: Adobe Illustrator 26.0.3, SVG Export Plug-In . SVG Version: 6.00 Build 0)  -->
<svg version="1.1" id="Calque_1" xmlns="http://www.w3.org/2000/svg" xmlns:xlink="http://www.w3.org/1999/xlink" x="0px" y="0px"
	 viewBox="0 0 788 1005" style="enable-background:new 0 0 788 1005;" xml:space="preserve">
<style type="text/css">
	.st0{fill:#E2E2E2;}
	.st1{fill:#D1D1D1;}
	.st2{fill:#635132;}
	.st3{fill:#FFFFFF;}
	.st4{fill:#423522;}
</style>
<path class="st0" d="M362.8,125.2c7-4.1,18.5-9.9,23.4-12.2c1.6-0.8,3.4-1.2,5.2-1.2h8c1.9,0,4,0.5,5.7,1.5l20.7,11.3
	c4.2,2.3,6.6,6.9,6.1,11.7l-1.1,10.8c-0.3,2.9-1.7,5.7-4,7.6L410,169.4c-2.2,1.9-4.9,2.9-7.8,2.9h-15.4c-2.8,0-5.5-1-7.7-2.8
	L361,154c-2.6-2.3-4.1-5.5-4.1-8.9v-9.5C357,131.2,359.2,127.4,362.8,125.2z"/>
<path class="st1" d="M358.9,143.7c2.8-0.8,21.9,7,23.4,7.8c1.6,0.8,22-0.1,23.8,0s18.1-5.4,21.3-6.7s-0.8,7.1-0.8,7.1L408,168.7
	h-26.4l-18.7-16.9L358.9,143.7z"/>
<g>
	<path class="st2" d="M400.6,89.5c0.1,0.4,0.1,0.9,0.1,1.2c0.1,0.6,0.4,1,1,1.1l2.2,0.6c0.2,0,0.3,0,0.6,0l15.1-3.1
		c0.2,0,0.3,0,0.6,0c1.3,0.3,8,1.8,8,1.7c0-0.1,1.2,0.4,2.3,1c0.9,0.4,1.9-0.3,1.8-1.3l0,0c0-0.4-0.3-0.8-0.7-1
		c-2.3-1.1-10.7-5.1-10.8-5c-0.2,0.1-8.5,0.7-9.7,0.8c-0.1,0-0.1,0-0.2,0l-9.4,2.4C400.8,88.3,400.5,88.9,400.6,89.5z"/>
	<path class="st2" d="M388.5,89.5c-0.1,0.4-0.1,0.9-0.1,1.2c-0.1,0.6-0.4,1-1,1.1l-2.2,0.6c-0.2,0-0.3,0-0.6,0l-15.1-3.1
		c-0.2,0-0.3,0-0.6,0c-1.3,0.3-8,1.8-8,1.7c0-0.1-1.2,0.4-2.3,1c-0.9,0.4-1.9-0.3-1.8-1.3l0,0c0-0.4,0.3-0.8,0.7-1
		c2.3-1.1,10.7-5.1,10.8-5c0.2,0.1,8.5,0.7,9.7,0.8c0.1,0,0.1,0,0.2,0l9.4,2.4C388.3,88.3,388.6,88.9,388.5,89.5z"/>
</g>
<g>
	<g>
		<path class="st3" d="M382.6,104.7c0,0-7.2,2.5-14.3,0.9c-7.1-1.6-7.3-2.8-7.3-2.8l5.7-4.1l3.9-0.9l6.9,0.6l1.7,1.3l2.3,2.4
			L382.6,104.7z"/>
		<path class="st4" d="M378,99c2.4,1.4,3.7,3.6,4.7,5.7c0.1-0.1,0.2-0.1,0.2-0.2c0-0.3,0-0.7-0.1-0.9c-1.5-2.6-3.2-5.3-6.4-6.1
			c-4.4-1-8.6-0.6-12.4,2.2c-1.3,0.9-2.4,1.8-3.7,2.9c1.8,1.7,8,3.7,8.7,2.8c-0.5-0.1-0.8-0.1-1.1-0.2c-0.9-0.3-2-0.7-2.9-1.1
			c-0.5-0.2-0.2-0.6,0.2-0.6c0.1,0,0.2,0,0.6,0c-1.1-1-1.1-1.3,0-2.4c0.8-0.8,1.6-1.5,2.4-2.1c0.3-0.2,0.8-0.2,1.3-0.3
			c0,0.5,0.1,0.9,0.1,1.3c-0.2,1.8,0.1,3.6,1.4,4.9c0.6,0.7,2.2,1,3.3,0.9c1.1-0.1,2-0.5,2.8-1.5c0.8-1.1,1.1-2.3,1-3.6
			C378.1,100.2,378,99.7,378,99z"/>
	</g>
	<g>
		<path class="st3" d="M406.5,104.8c0,0,7.2,2.5,14.3,0.9c7.1-1.6,7.3-2.8,7.3-2.8l-5.7-4.1l-3.9-0.9l-6.9,0.6l-1.7,1.3l-2.3,2.4
			L406.5,104.8z"/>
		<path class="st4" d="M411.1,99.1c-2.4,1.4-3.7,3.6-4.7,5.7c-0.1-0.1-0.2-0.1-0.2-0.2c0-0.3,0-0.7,0.1-0.9c1.5-2.6,3.2-5.3,6.4-6.1
			c4.4-1,8.6-0.6,12.4,2.2c1.3,0.9,2.4,1.8,3.7,2.9c-1.8,1.7-8,3.7-8.7,2.8c0.5-0.1,0.8-0.1,1.1-0.2c0.9-0.3,2-0.7,2.9-1.1
			c0.5-0.2,0.2-0.6-0.2-0.6c-0.1,0-0.2,0-0.6,0c1.1-1,1.1-1.3,0-2.4c-0.8-0.8-1.6-1.5-2.4-2.1c-0.3-0.2-0.8-0.2-1.3-0.3
			c0,0.5-0.1,0.9-0.1,1.3c0.2,1.8-0.1,3.6-1.4,4.9c-0.6,0.7-2.2,1-3.3,0.9c-1.1-0.1-2-0.5-2.8-1.5c-0.8-1.1-1.1-2.3-1-3.6
			C410.9,100.3,410.9,99.9,411.1,99.1z"/>
	</g>
</g>
</svg>
