<?xml version="1.0" encoding="utf-8"?>
<!-- Generator: Adobe Illustrator 26.0.3, SVG Export Plug-In . SVG Version: 6.00 Build 0)  -->
<svg version="1.1" id="Calque_1" xmlns="http://www.w3.org/2000/svg" xmlns:xlink="http://www.w3.org/1999/xlink" x="0px" y="0px"
	 viewBox="0 0 788 1005" style="enable-background:new 0 0 788 1005;" xml:space="preserve">
<style type="text/css">
	.st0{fill:#310800;}
	.st1{fill:#964B5F;}
	.st2{fill:#EBB4C9;}
	.st3{fill:#FFFFFF;}
	.st4{fill:#423522;}
	.st5{fill:#635132;}
</style>
<g>
	<path class="st0" d="M380.9,144.4c0,0,11.8-2.3,12-2.4c0.2-0.1,4.3,0,4.3,0l11.4,2.5l-8.5,11.8l-10.5,0.2L380.9,144.4z"/>
	<path class="st1" d="M406.9,145l3.8-1.1c0,0-7.5,13.2-11,14.2c-3.2,1.1-6.6,1.1-9.8,0c-3.4-1-10.4-14.2-10.4-14.2l3.2,1.1
		c0,0,4.9,10,12,10.4C401.5,155.9,406.9,145,406.9,145z"/>
	<path class="st2" d="M383.7,142.7l1.1,1.7c0.7,0.4,1.4,0.7,2.2,0.7c0,0,6,0.2,7.9,0.2c2,0,7.6-0.2,7.6-0.2c0.8,0,1.5-0.2,2.2-0.7
		l0.4-1.3L383.7,142.7z"/>
	<path class="st1" d="M410.7,143.9l-3.8,1.1c0,0-9.1-2-12.2-2s-12,2-12,2l-3.2-1.1c0.4-0.7,9.1-5.5,11.6-4.8
		c1.2,0.3,2.3,0.8,3.5,1.2c0,0,1.1-0.4,3.7-1.2C400.9,138.4,410.1,143.3,410.7,143.9z"/>
</g>
<g>
	<g>
		<path class="st3" d="M406.3,105.5c0,0,7,2.5,14,0.9c6.9-1.6,7.1-2.7,7.1-2.7l-5.6-4l-3.8-0.9l-6.7,0.6l-1.7,1.2l-2.2,2.3
			L406.3,105.5z"/>
		<path class="st4" d="M410.8,100c-2.3,1.3-3.6,3.5-4.6,5.6c-0.1-0.1-0.2-0.1-0.2-0.2c0-0.3,0-0.7,0.1-0.9c1.5-2.6,3.1-5.1,6.3-5.9
			c4.2-1,8.4-0.6,12.1,2.1c1.2,0.9,2.3,1.8,3.6,2.8c-1.8,1.7-7.8,3.6-8.5,2.7c0.4-0.1,0.8-0.1,1.1-0.2c0.9-0.3,1.9-0.7,2.8-1.1
			c0.4-0.2,0.2-0.6-0.2-0.6c-0.1,0-0.2,0-0.6,0c1.1-1,1.1-1.2,0-2.3c-0.8-0.8-1.6-1.5-2.3-2C419.9,99.7,416.8,98.8,410.8,100z"/>
	</g>
	<g>
		<path class="st3" d="M383.1,105.7c0,0-7,2.5-14,0.9c-6.9-1.6-7.1-2.7-7.1-2.7l5.6-4l3.8-0.9l6.7,0.6l1.7,1.2l2.2,2.3L383.1,105.7z
			"/>
		<path class="st4" d="M378.6,100.2c2.3,1.3,3.6,3.5,4.6,5.6c0.1-0.1,0.2-0.1,0.2-0.2c0-0.3,0-0.7-0.1-0.9c-1.5-2.6-3.1-5.1-6.3-5.9
			c-4.2-1-8.4-0.6-12.1,2.1c-1.2,0.9-2.3,1.8-3.6,2.8c1.8,1.7,7.8,3.6,8.5,2.7c-0.4-0.1-0.8-0.1-1.1-0.2c-0.9-0.3-1.9-0.7-2.8-1.1
			c-0.4-0.2-0.2-0.6,0.2-0.6c0.1,0,0.2,0,0.6,0c-1.1-1-1.1-1.2,0-2.3c0.8-0.8,1.6-1.5,2.3-2c0.3-0.2,0.8-0.2,1.2-0.3
			C373.2,99.2,376.2,99.2,378.6,100.2z"/>
	</g>
	<path class="st4" d="M416,100.7l-0.1-0.2c-0.2-0.3-0.4-0.8-0.9-1.1c-1.5,0-2.8,0.3-4.2,0.3c-0.3,0.2-1,0.8-1.2,0.9
		c-0.2,0.3-0.9,0.4-0.9,0.9c-0.1,0.3-0.4,0.7-0.4,0.9l0,0c-0.3,2.3,0.9,3.9,3.2,4.2c0.2,0,0.3,0,0.6,0h0.2c2.3-0.1,4.1-2,4.1-4.4
		C416.4,101.8,416.2,101.2,416,100.7z"/>
	<path class="st4" d="M373.9,100.7l-0.1-0.2c-0.2-0.3-0.4-0.8-0.9-1.1c-1.5,0-2.8,0.3-4.2,0.3c-0.3,0.2-1,0.8-1.2,0.9
		c-0.2,0.3-0.9,0.4-0.9,0.9c-0.1,0.3-0.4,0.7-0.4,0.9l0,0c-0.3,2.3,0.9,3.9,3.2,4.2c0.2,0,0.3,0,0.6,0h0.2c2.3-0.1,4.1-2,4.1-4.4
		C374.2,101.8,374,101.2,373.9,100.7z"/>
	<path class="st5" d="M400.3,83.4c0.1,0.4,0.1,0.9,0.1,1.2c0.1,0.6,0.4,1,1,1.1l2.2,0.6c0.2,0,0.3,0,0.6,0l14.8-3c0.2,0,0.3,0,0.6,0
		c1.3,0.3,7.9,1.8,7.9,1.7c0-0.1,1.2,0.4,2.3,1c0.9,0.4,1.9-0.3,1.8-1.3l0,0c0-0.4-0.3-0.8-0.7-1c-2.3-1.1-10.5-5-10.6-4.9
		c-0.2,0.1-8.4,0.7-9.5,0.8c-0.1,0-0.1,0-0.2,0l-9.3,2.5C400.5,82.2,400.2,82.7,400.3,83.4z"/>
	<path class="st5" d="M388.3,83.4c-0.1,0.4-0.1,0.9-0.1,1.2c-0.1,0.6-0.4,1-1,1.1l-2.2,0.6c-0.2,0-0.3,0-0.6,0l-14.8-3
		c-0.2,0-0.3,0-0.6,0c-1.3,0.3-7.9,1.8-7.9,1.7c0-0.1-1.2,0.4-2.3,1c-0.9,0.4-1.9-0.3-1.8-1.3l0,0c0-0.4,0.3-0.8,0.7-1
		c2.3-1.1,10.5-5,10.6-4.9c0.2,0.1,8.4,0.7,9.5,0.8c0.1,0,0.1,0,0.2,0l9.3,2.5C388.1,82.2,388.4,82.7,388.3,83.4z"/>
</g>
</svg>
