<?xml version="1.0" encoding="utf-8"?>
<!-- Generator: Adobe Illustrator 26.0.3, SVG Export Plug-In . SVG Version: 6.00 Build 0)  -->
<svg version="1.1" id="Calque_1" xmlns="http://www.w3.org/2000/svg" xmlns:xlink="http://www.w3.org/1999/xlink" x="0px" y="0px"
	 viewBox="0 0 788 1005" style="enable-background:new 0 0 788 1005;" xml:space="preserve">
<style type="text/css">
	.st0{fill:#635132;}
	.st1{fill:#964B5F;}
	.st2{fill:#423522;}
	.st3{fill:#FFFFFF;}
</style>
<path class="st0" d="M400.5,91.3c0.1,0.4,0.1,0.9,0.1,1.2c0.1,0.6,0.4,1,1,1.1l2.2,0.6c0.2,0,0.3,0,0.6,0l14.8-3c0.2,0,0.3,0,0.6,0
	c1.3,0.3,7.9,1.8,7.9,1.7s1.2,0.4,2.3,1c0.9,0.4,1.9-0.3,1.8-1.3l0,0c0-0.4-0.3-0.8-0.7-1c-2.3-1.1-10.5-5-10.6-4.9
	c-0.2,0.1-8.3,0.7-9.5,0.8c-0.1,0-0.1,0-0.2,0l-9.2,2.4C400.7,90.1,400.4,90.6,400.5,91.3z"/>
<path class="st0" d="M388.6,91.3c-0.1,0.4-0.1,0.9-0.1,1.2c-0.1,0.6-0.4,1-1,1.1l-2.2,0.6c-0.2,0-0.3,0-0.6,0l-14.8-3
	c-0.2,0-0.3,0-0.6,0c-1.3,0.3-7.9,1.8-7.9,1.7s-1.2,0.4-2.3,1c-0.9,0.4-1.9-0.3-1.8-1.3l0,0c0-0.4,0.3-0.8,0.7-1
	c2.3-1.1,10.5-5,10.6-4.9c0.2,0.1,8.3,0.7,9.5,0.8c0.1,0,0.1,0,0.2,0l9.2,2.4C388.4,90.1,388.7,90.6,388.6,91.3z"/>
<path class="st1" d="M411.3,143.5l-7.8,5.9c-0.2,0.1-0.4,0.2-0.7,0.2l-7.2,1.1c-0.1,0-0.3,0-0.4,0l-7.1-1.1c-0.2,0-0.4-0.1-0.7-0.2
	l-7.8-5.9c-0.1-0.1-0.1-0.3,0.1-0.3l4.2,0.3l6.3,0.6c0.1,0,0.1,0,0.2,0l4.6,1c0.2,0,0.4,0,0.6,0l4.7-1c0.1,0,0.1,0,0.2,0l6.3-0.6
	l4.2-0.3C411.3,143.1,411.4,143.4,411.3,143.5z"/>
<path class="st2" d="M428.3,106.3l-4.1-1.3c0,0-10.1,0.1-10.6,0.6c0,0-2.3,0.8-3.8,1.4c-1.4,0.8-3.1,0.3-3.1,0.3l0.2-1.3
	c0,0,4-3.3,5.6-3.7c2.6-0.6,11.2,0.7,11.4,0.7c0.3,0.1,5.3,2.1,5.9,2.9C430,106.1,428.3,106.3,428.3,106.3z"/>
<g>
	<path class="st3" d="M382.6,105.2c0,0-7.1,2.5-14.1,0.9s-7.2-2.7-7.2-2.7l5.6-4.1l3.8-0.9l6.8,0.6l1.7,1.2l2.3,2.4L382.6,105.2z"/>
	<path class="st2" d="M378.1,99.6c2.4,1.4,3.6,3.5,4.6,5.6c0.1-0.1,0.2-0.1,0.2-0.2c0-0.3,0-0.7-0.1-0.9c-1.5-2.6-3.2-5.2-6.3-6
		c-4.3-1-8.4-0.6-12.2,2.1c-1.2,0.9-2.4,1.8-3.6,2.8c1.8,1.7,7.9,3.6,8.6,2.7c-0.5-0.1-0.8-0.1-1.1-0.2c-0.9-0.3-1.9-0.7-2.8-1.1
		c-0.5-0.2-0.2-0.6,0.2-0.6c0.1,0,0.2,0,0.6,0c-1.1-1-1.1-1.2,0-2.4c0.8-0.8,1.6-1.5,2.4-2c0.3-0.2,0.8-0.2,1.2-0.3
		c0,0.5,0.1,0.9,0.1,1.2c-0.2,1.8,0.1,3.5,1.4,4.8c0.6,0.7,2.1,1,3.3,0.9c1.1-0.1,1.9-0.5,2.7-1.5c0.8-1.1,1.1-2.3,1-3.5
		C378.3,100.8,378.1,100.3,378.1,99.6z"/>
</g>
</svg>
