<?xml version="1.0" encoding="utf-8"?>
<!-- Generator: Adobe Illustrator 26.0.3, SVG Export Plug-In . SVG Version: 6.00 Build 0)  -->
<svg version="1.1" id="Calque_1" xmlns="http://www.w3.org/2000/svg" xmlns:xlink="http://www.w3.org/1999/xlink" x="0px" y="0px"
	 viewBox="0 0 788 1005" style="enable-background:new 0 0 788 1005;" xml:space="preserve">
<style type="text/css">
	.st0{fill:#964B5F;}
	.st1{fill:#635132;}
	.st2{fill:#FFFFFF;}
	.st3{fill:#423522;}
</style>
<path class="st0" d="M408.2,145l-6.3,4.9c-0.1,0.1-0.2,0.2-0.4,0.2l-6.6,1.9c-0.2,0.1-0.4,0.1-0.7,0l-6.6-1.9
	c-0.1,0-0.3-0.1-0.4-0.2l-6.3-4.9c-0.8-0.6-0.6-1.7,0.2-2.1l2.2-1.1c0.2-0.1,0.4-0.1,0.8-0.1l5.7,0.9c0.1,0,0.1,0,0.2,0l4.6,0.1
	l4.6-0.1c0.1,0,0.1,0,0.2,0l5.6-0.9c0.2,0,0.6,0,0.8,0.1l2.3,1.1C408.8,143.3,408.9,144.5,408.2,145z"/>
<g>
	<path class="st1" d="M400.5,91.2c0.1,0.4,0.1,0.9,0.1,1.2c0.1,0.6,0.4,1,1,1.1l2.2,0.6c0.2,0,0.3,0,0.6,0l14.8-3c0.2,0,0.3,0,0.6,0
		c1.3,0.3,7.9,1.8,7.9,1.7s1.2,0.4,2.3,1c0.9,0.4,1.9-0.3,1.8-1.3l0,0c0-0.4-0.3-0.8-0.7-1c-2.3-1.1-10.5-5-10.6-4.9
		c-0.2,0.1-8.3,0.7-9.5,0.8c-0.1,0-0.1,0-0.2,0l-9.2,2.4C400.7,90,400.4,90.6,400.5,91.2z"/>
	<path class="st1" d="M388.6,91.2c-0.1,0.4-0.1,0.9-0.1,1.2c-0.1,0.6-0.4,1-1,1.1l-2.2,0.6c-0.2,0-0.3,0-0.6,0l-14.8-3
		c-0.2,0-0.3,0-0.6,0c-1.3,0.3-7.9,1.8-7.9,1.7s-1.2,0.4-2.3,1c-0.9,0.4-1.9-0.3-1.8-1.3l0,0c0-0.4,0.3-0.8,0.7-1
		c2.3-1.1,10.5-5,10.6-4.9c0.2,0.1,8.3,0.7,9.5,0.8c0.1,0,0.1,0,0.2,0l9.2,2.4C388.4,90,388.7,90.6,388.6,91.2z"/>
</g>
<g>
	<g>
		<path class="st2" d="M382.8,106.1c0,0-7.1,2.5-14.1,0.9c-7-1.6-7.2-2.7-7.2-2.7l5.6-4.1l3.8-0.9l6.8,0.6l1.7,1.2l2.3,2.4
			L382.8,106.1z"/>
		<path class="st3" d="M378.3,100.5c2.4,1.4,3.6,3.5,4.6,5.6c0.1-0.1,0.2-0.1,0.2-0.2c0-0.3,0-0.7-0.1-0.9c-1.5-2.6-3.2-5.2-6.3-6
			c-4.3-1-8.4-0.6-12.2,2.1c-1.2,0.9-2.4,1.8-3.6,2.8c1.8,1.7,7.9,3.6,8.6,2.7c-0.5-0.1-0.8-0.1-1.1-0.2c-0.9-0.3-1.9-0.7-2.8-1.1
			c-0.5-0.2-0.2-0.6,0.2-0.6c0.1,0,0.2,0,0.6,0c-1.1-1-1.1-1.2,0-2.4c0.8-0.8,1.6-1.5,2.4-2c0.3-0.2,0.8-0.2,1.2-0.3
			c0,0.5,0.1,0.9,0.1,1.2c-0.2,1.8,0.1,3.5,1.4,4.8c0.6,0.7,2.1,1,3.3,0.9c1.1-0.1,1.9-0.5,2.7-1.5c0.8-1.1,1.1-2.3,1-3.5
			C378.4,101.7,378.3,101.2,378.3,100.5z"/>
	</g>
	<g>
		<path class="st2" d="M406.3,106.2c0,0,7.1,2.5,14.1,0.9c7-1.6,7.2-2.7,7.2-2.7l-5.6-4.1l-3.8-0.9l-6.8,0.6l-1.7,1.2l-2.3,2.4
			L406.3,106.2z"/>
		<path class="st3" d="M410.8,100.7c-2.4,1.4-3.6,3.5-4.6,5.6c-0.1-0.1-0.2-0.1-0.2-0.2c0-0.3,0-0.7,0.1-0.9c1.5-2.6,3.2-5.2,6.3-6
			c4.3-1,8.4-0.6,12.2,2.1c1.2,0.9,2.4,1.8,3.6,2.8c-1.8,1.7-7.9,3.6-8.6,2.7c0.5-0.1,0.8-0.1,1.1-0.2c0.9-0.3,1.9-0.7,2.8-1.1
			c0.5-0.2,0.2-0.6-0.2-0.6c-0.1,0-0.2,0-0.6,0c1.1-1,1.1-1.2,0-2.4c-0.8-0.8-1.6-1.5-2.4-2c-0.3-0.2-0.8-0.2-1.2-0.3
			c0,0.5-0.1,0.9-0.1,1.2c0.2,1.8-0.1,3.5-1.4,4.8c-0.6,0.7-2.1,1-3.3,0.9c-1.1-0.1-1.9-0.5-2.7-1.5c-0.8-1.1-1.1-2.3-1-3.5
			C410.7,101.8,410.7,101.4,410.8,100.7z"/>
	</g>
</g>
</svg>
