<?xml version="1.0" encoding="utf-8"?>
<!-- Generator: Adobe Illustrator 26.0.3, SVG Export Plug-In . SVG Version: 6.00 Build 0)  -->
<svg version="1.1" id="Calque_1" xmlns="http://www.w3.org/2000/svg" xmlns:xlink="http://www.w3.org/1999/xlink" x="0px" y="0px"
	 viewBox="0 0 788 1005" style="enable-background:new 0 0 788 1005;" xml:space="preserve">
<style type="text/css">
	.st0{fill:#310800;}
	.st1{fill:#964B5F;}
	.st2{fill:#EBB4C9;}
	.st3{fill:#635132;}
	.st4{fill:#FFFFFF;}
	.st5{fill:#423522;}
</style>
<g>
	<path class="st0" d="M380.2,144c0,0,12-2.3,12.1-2.5s4.4,0,4.4,0l11.5,2.6l-10.9,11.6h-5.6L380.2,144z"/>
	<path class="st1" d="M406.5,144.5l3.7-1.1c0,0-9.3,14.1-12,14.8c-4,0.7-5.5,0.8-8.7-0.3c-2.1-1.6-10.8-14.5-10.8-14.5l3.2,1.1
		c0,0,8.3,9.2,12.3,9.2S406.5,144.5,406.5,144.5z"/>
	<path class="st2" d="M383.4,143.4l0.8,1.6c0.4,0.9,1.2,1.5,2.2,1.6c0,0,6,0.4,7.9,0.4s7.7-0.4,7.7-0.4c1-0.1,1.8-0.7,2.2-1.6l0.4-1
		L383.4,143.4z"/>
	<path class="st1" d="M410.2,143.4l-3.6,1c-0.2,0-0.3,0.1-0.5,0c-1.5-0.1-9.3-0.9-12.1-0.9c-2.8,0-10.4,0.7-11.9,0.9
		c-0.2,0-0.4,0-0.5-0.1l-2.9-1c0.3-0.6,7.7-3.3,10.6-4.4c0.8-0.3,1.6-0.3,2.3,0c0.6,0.2,1.3,0.5,2,0.7c0.3,0.1,0.6,0.1,0.8,0
		c0.4-0.1,1.2-0.4,2.3-0.7c0.7-0.2,1.5-0.2,2.2,0C401.9,140,409.9,142.9,410.2,143.4z"/>
</g>
<g>
	<path class="st3" d="M400.4,90.8c0.1,0.4,0.1,0.9,0.1,1.2c0.1,0.6,0.4,1,1,1.1l2.2,0.6c0.2,0,0.3,0,0.6,0l14.8-3c0.2,0,0.3,0,0.6,0
		c1.3,0.3,7.9,1.8,7.9,1.7s1.2,0.4,2.3,1c0.9,0.4,1.9-0.3,1.8-1.3l0,0c0-0.4-0.3-0.8-0.7-1c-2.3-1.1-10.5-5-10.6-4.9
		c-0.2,0.1-8.3,0.7-9.5,0.8c-0.1,0-0.1,0-0.2,0l-9.2,2.4C400.6,89.6,400.3,90.2,400.4,90.8z"/>
	<path class="st3" d="M388.5,90.8c-0.1,0.4-0.1,0.9-0.1,1.2c-0.1,0.6-0.4,1-1,1.1l-2.2,0.6c-0.2,0-0.3,0-0.6,0l-14.8-3
		c-0.2,0-0.3,0-0.6,0c-1.3,0.3-7.9,1.8-7.9,1.7s-1.2,0.4-2.3,1c-0.9,0.4-1.9-0.3-1.8-1.3l0,0c0-0.4,0.3-0.8,0.7-1
		c2.3-1.1,10.5-5,10.6-4.9c0.2,0.1,8.3,0.7,9.5,0.8c0.1,0,0.1,0,0.2,0l9.2,2.4C388.3,89.6,388.6,90.2,388.5,90.8z"/>
</g>
<g>
	<g>
		<path class="st4" d="M382.8,105.7c0,0-7.1,2.5-14.1,0.9c-7-1.6-7.2-2.7-7.2-2.7l5.6-4.1l3.8-0.9l6.8,0.6l1.7,1.2l2.3,2.4
			L382.8,105.7z"/>
		<path class="st5" d="M378.3,100.1c2.4,1.4,3.6,3.5,4.6,5.6c0.1-0.1,0.2-0.1,0.2-0.2c0-0.3,0-0.7-0.1-0.9c-1.5-2.6-3.2-5.2-6.3-6
			c-4.3-1-8.4-0.6-12.2,2.1c-1.2,0.9-2.4,1.8-3.6,2.8c1.8,1.7,7.9,3.6,8.6,2.7c-0.5-0.1-0.8-0.1-1.1-0.2c-0.9-0.3-1.9-0.7-2.8-1.1
			c-0.5-0.2-0.2-0.6,0.2-0.6c0.1,0,0.2,0,0.6,0c-1.1-1-1.1-1.2,0-2.4c0.8-0.8,1.6-1.5,2.4-2c0.3-0.2,0.8-0.2,1.2-0.3
			c0,0.5,0.1,0.9,0.1,1.2c-0.2,1.8,0.1,3.5,1.4,4.8c0.6,0.7,2.1,1,3.3,0.9c1.1-0.1,1.9-0.5,2.7-1.5c0.8-1.1,1.1-2.3,1-3.5
			C378.4,101.3,378.3,100.8,378.3,100.1z"/>
	</g>
	<g>
		<path class="st4" d="M406.2,105.8c0,0,7.1,2.5,14.1,0.9c7-1.6,7.2-2.7,7.2-2.7l-5.6-4.1L418,99l-6.8,0.6l-1.7,1.2l-2.3,2.4
			L406.2,105.8z"/>
		<path class="st5" d="M410.7,100.3c-2.4,1.4-3.6,3.5-4.6,5.6c-0.1-0.1-0.2-0.1-0.2-0.2c0-0.3,0-0.7,0.1-0.9c1.5-2.6,3.2-5.2,6.3-6
			c4.3-1,8.4-0.6,12.2,2.1c1.2,0.9,2.4,1.8,3.6,2.8c-1.8,1.7-7.9,3.6-8.6,2.7c0.5-0.1,0.8-0.1,1.1-0.2c0.9-0.3,1.9-0.7,2.8-1.1
			c0.5-0.2,0.2-0.6-0.2-0.6c-0.1,0-0.2,0-0.6,0c1.1-1,1.1-1.2,0-2.4c-0.8-0.8-1.6-1.5-2.4-2c-0.3-0.2-0.8-0.2-1.2-0.3
			c0,0.5-0.1,0.9-0.1,1.2c0.2,1.8-0.1,3.5-1.4,4.8c-0.6,0.7-2.1,1-3.3,0.9c-1.1-0.1-1.9-0.5-2.7-1.5c-0.8-1.1-1.1-2.3-1-3.5
			C410.6,101.4,410.6,101,410.7,100.3z"/>
	</g>
</g>
</svg>
