<?xml version="1.0" encoding="utf-8"?>
<!-- Generator: Adobe Illustrator 26.0.3, SVG Export Plug-In . SVG Version: 6.00 Build 0)  -->
<svg version="1.1" id="Calque_1" xmlns="http://www.w3.org/2000/svg" xmlns:xlink="http://www.w3.org/1999/xlink" x="0px" y="0px"
	 viewBox="0 0 788 1005" style="enable-background:new 0 0 788 1005;" xml:space="preserve">
<style type="text/css">
	.st0{fill:#964B5F;}
	.st1{fill:#FFFFFF;}
	.st2{fill:#423522;}
	.st3{fill:#635132;}
</style>
<ellipse class="st0" cx="394.3" cy="147.5" rx="5.4" ry="6.8"/>
<g>
	<g>
		<path class="st1" d="M382.5,104.7c0,0-7.2,2.5-14.3,0.9s-7.3-2.7-7.3-2.7l5.7-4.1l3.9-0.9l6.9,0.6l1.7,1.3l2.3,2.4L382.5,104.7z"
			/>
		<path class="st2" d="M377.8,99.1c2.4,1.4,3.7,3.5,4.7,5.7c0.1-0.1,0.2-0.1,0.2-0.2c0-0.3,0-0.7-0.1-0.9c-1.5-2.6-3.2-5.3-6.4-6.1
			c-4.3-1-8.6-0.6-12.3,2.2c-1.3,0.9-2.4,1.8-3.7,2.9c1.8,1.7,8,3.7,8.7,2.7c-0.5-0.1-0.8-0.1-1.1-0.2c-0.9-0.3-1.9-0.7-2.9-1.1
			c-0.5-0.2-0.2-0.6,0.2-0.6c0.1,0,0.2,0,0.6,0c-1.1-1-1.1-1.3,0-2.4c0.8-0.8,1.6-1.5,2.4-2.1C368.4,98.8,371.6,97.8,377.8,99.1z"/>
	</g>
	<g>
		<path class="st1" d="M406.2,104.9c0,0,7.2,2.5,14.3,0.9c7.1-1.6,7.3-2.7,7.3-2.7L422,99l-3.9-0.9l-6.9,0.6l-1.7,1.3l-2.3,2.4
			L406.2,104.9z"/>
		<path class="st2" d="M410.7,99.3c-2.4,1.4-3.7,3.5-4.7,5.7c-0.1-0.1-0.2-0.1-0.2-0.2c0-0.3,0-0.7,0.1-0.9c1.5-2.6,3.2-5.3,6.4-6.1
			c4.3-1,8.6-0.6,12.3,2.2c1.3,0.9,2.4,1.8,3.7,2.9c-1.8,1.7-8,3.7-8.7,2.7c0.5-0.1,0.8-0.1,1.1-0.2c0.9-0.3,1.9-0.7,2.9-1.1
			c0.5-0.2,0.2-0.6-0.2-0.6c-0.1,0-0.2,0-0.6,0c1.1-1,1.1-1.3,0-2.4c-0.8-0.8-1.6-1.5-2.4-2.1c-0.3-0.2-0.8-0.2-1.3-0.3
			C416.4,98.2,413.4,98.2,410.7,99.3z"/>
	</g>
	<path class="st3" d="M400.7,90.4c0.1,0.5,0.1,0.9,0.1,1.3c0.1,0.6,0.5,1,1,1.1l2.3,0.6c0.2,0,0.3,0,0.6,0l15.2-3.1
		c0.2,0,0.3,0,0.6,0c1.4,0.3,8.1,1.8,8.1,1.7c0-0.1,1.3,0.5,2.4,1c0.9,0.5,1.9-0.3,1.8-1.4l0,0c0-0.5-0.3-0.8-0.7-1
		c-2.4-1.1-10.7-5.1-10.9-5c-0.2,0.1-8.6,0.7-9.7,0.8c-0.1,0-0.1,0-0.2,0l-9.5,2.5C400.9,89.2,400.6,89.7,400.7,90.4z"/>
	<path class="st3" d="M388.4,90.4c-0.1,0.5-0.1,0.9-0.1,1.3c-0.1,0.6-0.5,1-1,1.1l-2.3,0.6c-0.2,0-0.3,0-0.6,0l-15.2-3.1
		c-0.2,0-0.3,0-0.6,0c-1.4,0.3-8.1,1.8-8.1,1.7c0-0.1-1.3,0.5-2.4,1c-0.9,0.5-1.9-0.3-1.8-1.4l0,0c0-0.5,0.3-0.8,0.7-1
		c2.4-1.1,10.7-5.1,10.9-5c0.2,0.1,8.6,0.7,9.7,0.8c0.1,0,0.1,0,0.2,0l9.5,2.5C388.2,89.2,388.5,89.7,388.4,90.4z"/>
	<path class="st2" d="M372.1,101.5c0,2.4,1.8,4.3,4.2,4.5h0.2c0.2,0,0.3,0,0.6,0c2.4-0.3,3.7-1.9,3.3-4.3l0,0c0-0.3-0.3-0.7-0.5-0.9
		c-0.1-0.3-0.8-0.5-0.9-0.9c-0.2-0.2-0.9-0.8-1.3-0.9c-1.5,0-2.7-0.3-4.3-0.3c-0.3,0.3-0.7,0.8-0.9,1.1l-0.1,0.2
		C372.3,100.4,372.2,100.9,372.1,101.5z"/>
	<path class="st2" d="M415.3,101.5c0,2.4,1.8,4.3,4.2,4.5h0.2c0.2,0,0.3,0,0.6,0c2.4-0.3,3.7-1.9,3.3-4.3l0,0c0-0.3-0.3-0.7-0.5-0.9
		c-0.1-0.3-0.8-0.5-0.9-0.9c-0.2-0.2-0.9-0.8-1.3-0.9c-1.5,0-2.7-0.3-4.3-0.3c-0.3,0.3-0.7,0.8-0.9,1.1l-0.1,0.2
		C415.4,100.4,415.3,100.9,415.3,101.5z"/>
</g>
</svg>
