<?xml version="1.0" encoding="utf-8"?>
<!-- Generator: Adobe Illustrator 26.0.3, SVG Export Plug-In . SVG Version: 6.00 Build 0)  -->
<svg version="1.1" id="Calque_1" xmlns="http://www.w3.org/2000/svg" xmlns:xlink="http://www.w3.org/1999/xlink" x="0px" y="0px"
	 viewBox="0 0 788 1005" style="enable-background:new 0 0 788 1005;" xml:space="preserve">
<style type="text/css">
	.st0{fill:#964B5F;}
	.st1{fill:#423522;}
	.st2{fill:#635132;}
</style>
<path class="st0" d="M411,143.5l-7.3,5.5c-0.3,0.2-0.7,0.4-1.1,0.4l-6.8,1.1c-0.2,0-0.6,0-0.8,0l-6.7-1.1c-0.4-0.1-0.8-0.2-1.1-0.4
	l-7.3-5.5c-0.2-0.2-0.1-0.6,0.2-0.6l3.9,0.3l6.2,0.6c0.1,0,0.2,0,0.3,0l4.3,1c0.3,0.1,0.8,0.1,1.1,0l4.4-1c0.1,0,0.2,0,0.3,0
	l6.3-0.6l3.9-0.3C411.1,143.1,411.2,143.4,411,143.5z"/>
<path class="st1" d="M428.2,107.9l-4.1-1.3c0,0-10.1,0.1-10.5,0.6c0,0-2.3,0.8-3.8,1.4c-1.4,0.8-3.1,0.3-3.1,0.3l0.2-1.3
	c0,0,4-3.3,5.5-3.7c2.6-0.6,11.2,0.7,11.3,0.7c0.3,0.1,5.3,2.1,5.9,2.9C429.9,107.6,428.2,107.9,428.2,107.9z"/>
<path class="st2" d="M400.5,91.4c0.1,0.4,0.1,0.9,0.1,1.2c0.1,0.6,0.4,1,1,1.1l2.2,0.6c0.2,0,0.3,0,0.6,0l14.8-3c0.2,0,0.3,0,0.6,0
	c1.3,0.3,7.9,1.8,7.9,1.7s1.2,0.4,2.3,1c0.9,0.4,1.9-0.3,1.8-1.3l0,0c0-0.4-0.3-0.8-0.7-1c-2.3-1.1-10.4-5-10.5-4.9
	c-0.2,0.1-8.3,0.7-9.4,0.8c-0.1,0-0.1,0-0.2,0l-9.2,2.4C400.7,90.2,400.4,90.8,400.5,91.4z"/>
<path class="st2" d="M388.6,91.4c-0.1,0.4-0.1,0.9-0.1,1.2c-0.1,0.6-0.4,1-1,1.1l-2.2,0.6c-0.2,0-0.3,0-0.6,0l-14.8-3
	c-0.2,0-0.3,0-0.6,0c-1.3,0.3-7.9,1.8-7.9,1.7s-1.2,0.4-2.3,1c-0.9,0.4-1.9-0.3-1.8-1.3l0,0c0-0.4,0.3-0.8,0.7-1
	c2.3-1.1,10.4-5,10.5-4.9c0.2,0.1,8.3,0.7,9.4,0.8c0.1,0,0.1,0,0.2,0l9.2,2.4C388.4,90.2,388.7,90.8,388.6,91.4z"/>
<path class="st1" d="M362.7,107.9l4.1-1.3c0,0,10.1,0.1,10.5,0.6c0,0,2.3,0.8,3.8,1.4c1.4,0.8,3.1,0.3,3.1,0.3l-0.2-1.3
	c0,0-4-3.3-5.5-3.7c-2.6-0.6-11.2,0.7-11.3,0.7c-0.3,0.1-5.3,2.1-5.9,2.9C361,107.6,362.7,107.9,362.7,107.9z"/>
</svg>
