<svg xmlns="http://www.w3.org/2000/svg" xmlns:xlink="http://www.w3.org/1999/xlink" viewBox="0 0 788 1005"><defs><style>.cls-1,.cls-5{fill:none;}.cls-2{fill:#fff;}.cls-3{fill:#080808;}.cls-3,.cls-5{stroke:#000;stroke-miterlimit:10;}.cls-4{clip-path:url(#clip-path);}.cls-5{stroke-linecap:round;stroke-width:2px;}.cls-6{clip-path:url(#clip-path-2);}.cls-7{fill:#844f3d;}.cls-8{fill:#66183f;}.cls-9{fill:#020202;}</style><clipPath id="clip-path"><rect class="cls-1" x="405.43" y="227.07" width="22.15" height="6.68"/></clipPath><clipPath id="clip-path-2"><rect class="cls-1" x="366.14" y="227.07" width="22.15" height="6.68"/></clipPath></defs><g id="Calque_10" data-name="Calque 10"><circle class="cls-2" cx="413.64" cy="243.97" r="6.75"/><circle class="cls-2" cx="378.79" cy="243.97" r="6.75"/><circle class="cls-3" cx="380.87" cy="244.11" r="4"/><circle class="cls-3" cx="415.81" cy="244.11" r="4"/><g class="cls-4"><path class="cls-5" d="M406.43,231.35a14.89,14.89,0,0,1,20.16,1.39"/></g><g class="cls-6"><path class="cls-5" d="M387.3,231.35a14.89,14.89,0,0,0-20.16,1.39"/></g><path class="cls-7" d="M404.76,266.2s-4.69,3.69-7.42,3.69-7-3.6-7-3.6,5.4.73,7.21.72S404.76,266.2,404.76,266.2Z"/><ellipse class="cls-8" cx="397.18" cy="285.66" rx="2.88" ry="4.5"/><path class="cls-9" d="M370.89,241.31a2.1,2.1,0,0,0,2.89.65c1.77-1.14,3.8-2.75,5.75-2.1,2.66.88,2.55,2.9,5.85,3.27.31,0-.68-6.2-6.07-6.53s-6,4.39-8.42,4.71Z"/><path class="cls-9" d="M421.43,240.79a2.09,2.09,0,0,1-2.88.65c-1.77-1.14-3.8-2.75-5.76-2.1-2.65.88-2.54,2.9-5.85,3.27-.31,0,.69-6.2,6.07-6.53s6,4.39,8.42,4.71Z"/></g></svg>