<?xml version="1.0" encoding="utf-8"?>
<!-- Generator: Adobe Illustrator 26.0.3, SVG Export Plug-In . SVG Version: 6.00 Build 0)  -->
<svg version="1.1" id="Layer_1" xmlns="http://www.w3.org/2000/svg" xmlns:xlink="http://www.w3.org/1999/xlink" x="0px" y="0px"
	 viewBox="0 0 200 200" style="enable-background:new 0 0 200 200;" xml:space="preserve">
<style type="text/css">
	.st0{fill:#FFFFFF;}
	.st1{fill:#3E9ACE;}
	.st2{clip-path:url(#SVGID_00000089542986263711840230000015154629358309724600_);}
	.st3{fill:#60131D;}
	.st4{clip-path:url(#SVGID_00000054987011528266706200000011284988147803267993_);}
	.st5{fill:#66183F;}
	.st6{fill:#BFBFBF;}
	.st7{fill:#6A2C17;}
</style>
<g id="Calque_10_00000005989671192673774120000012601667272445967521_">
	<circle class="st0" cx="78.7" cy="112.1" r="5.9"/>
	<circle class="st0" cx="118.7" cy="112.1" r="5.9"/>
	<circle class="st1" cx="76.9" cy="111.3" r="3.3"/>
	<circle class="st1" cx="117.2" cy="111.3" r="3.3"/>
	<g>
		<g>
			<g>
				<g>
					<defs>
						<rect id="SVGID_1_" x="66" y="93.5" width="23.1" height="7"/>
					</defs>
					<clipPath id="SVGID_00000025407127879422003900000010309708625949844367_">
						<use xlink:href="#SVGID_1_"  style="overflow:visible;"/>
					</clipPath>
					<g style="clip-path:url(#SVGID_00000025407127879422003900000010309708625949844367_);">
						<g>
							<path class="st3" d="M88.2,99.4c-6.4-3.7-15.6-6.6-21.2-0.1c1.2-4.2,6.3-6.1,10.4-5.8C81.6,93.8,85.5,96.2,88.2,99.4
								L88.2,99.4z"/>
						</g>
					</g>
				</g>
			</g>
		</g>
	</g>
	<g>
		<g>
			<g>
				<g>
					<defs>
						<rect id="SVGID_00000181059542396892286900000003804696911222444960_" x="110.1" y="93.5" width="23.1" height="7"/>
					</defs>
					<clipPath id="SVGID_00000133522703078735298390000008289185807814127275_">
						<use xlink:href="#SVGID_00000181059542396892286900000003804696911222444960_"  style="overflow:visible;"/>
					</clipPath>
					<g style="clip-path:url(#SVGID_00000133522703078735298390000008289185807814127275_);">
						<g>
							<path class="st3" d="M111.1,99.4c2.7-3.2,6.6-5.5,10.8-5.9c4.1-0.4,9.2,1.5,10.4,5.8C126.6,92.8,117.5,95.7,111.1,99.4
								L111.1,99.4z"/>
						</g>
					</g>
				</g>
			</g>
		</g>
	</g>
	<path class="st5" d="M83.4,147.9c0.3-0.6,1.4-1.6,3.5-2.5c3.4-1.3,6.9-2.1,10.6-2.1c5.9-0.1,11.6,2.1,15.9,6.1
		c0,0-4.6,11.7-15.8,10.9C89.4,159.6,83.4,147.9,83.4,147.9z"/>
	<path class="st6" d="M97.9,148.3l-8.2-0.4l-2.2-0.9c3.6-1.5,7.5-2.1,11.4-2c6.7,0.4,10.3,2.9,10.3,2.9l-1.7,0.8L97.9,148.3z"/>
	<path class="st3" d="M69.1,108.4c0.7,1,2.2,1.3,3.3,0.6c2.1-1.1,4.4-2.8,6.7-2.1c3.1,0.9,2.9,2.9,6.8,3.3c0.3,0-0.8-6.2-7-6.5
		C72.6,103.4,71.8,108,69.1,108.4z"/>
	<path class="st3" d="M127.5,107.8c-0.7,1-2.1,1.3-3.2,0.6c-2-1.1-4.2-2.8-6.5-2.1c-3,0.9-2.8,2.9-6.6,3.3c-0.3,0,0.8-6.2,6.8-6.5
		C124,102.8,124.7,107.4,127.5,107.8z"/>
</g>
<g>
	<path class="st7" d="M106.3,134.3c1.6-0.7-0.4-2.5,1.1-3.2c2.1,4,1.2,5-4,5C103.3,134,105.1,134.6,106.3,134.3z"/>
	<path class="st7" d="M106.3,134.3c-1,0.7-2,1.2-3,1.9c-0.3,0.1-0.6,0.1-0.9,0.1c-1,0.3-1.2-0.1-1-1
		C102.9,134,104.2,132.3,106.3,134.3z"/>
	<path class="st7" d="M91.8,134.2c-1.6-0.7,0.4-2.5-1.1-3.2c-2.1,4-1.2,5,4,5C94.8,133.9,93,134.5,91.8,134.2z"/>
	<path class="st7" d="M91.8,134.2c1,0.7,2,1.2,3,1.9c0.3,0.1,0.6,0.1,0.9,0.1c1,0.3,1.2-0.1,1-1C95.3,134,93.9,132.3,91.8,134.2z"/>
	<path class="st7" d="M95.7,136.3c0.3-0.3,0.7-0.7,1-1c1.6,0.9,3.1,1.2,4.8,0c0.3,0.3,0.7,0.7,1,1C100.2,137.7,98,137.8,95.7,136.3z
		"/>
</g>
</svg>
