<?xml version="1.0" encoding="utf-8"?>
<!-- Generator: Adobe Illustrator 26.0.3, SVG Export Plug-In . SVG Version: 6.00 Build 0)  -->
<svg version="1.1" id="Calque_1" xmlns="http://www.w3.org/2000/svg" xmlns:xlink="http://www.w3.org/1999/xlink" x="0px" y="0px"
	 viewBox="0 0 788 1005" style="enable-background:new 0 0 788 1005;" xml:space="preserve">
<style type="text/css">
	.st0{fill:#FFFFFF;}
	.st1{fill:#3E9ACE;}
	.st2{fill:#60131D;}
	.st3{fill:#662C34;}
	.st4{fill:#6A2C17;}
</style>
<g id="Calque_10_00000145024288679841750560000005483392707181101754_">
	<circle class="st0" cx="356.2" cy="151.6" r="5.1"/>
	<circle class="st1" cx="356.2" cy="151.6" r="3.9"/>
	<g>
		<path class="st2" d="M386.6,140c3.6-0.7,7-0.5,10.6,0.1c3.5,0.7,6.9,2.2,9.6,4.7c-1.8-0.1-3.5-0.5-5.2-0.8
			C396.6,143,391.2,142.3,386.6,140L386.6,140z"/>
	</g>
	<g>
		<path class="st2" d="M364.4,139.5c-4.8-1.8-9.7-2.3-14.6-0.7c-1.6,0.5-3.1,1.2-4.8,2.1C348.3,133.6,360.1,132.7,364.4,139.5
			L364.4,139.5z"/>
	</g>
	<g>
		<path class="st3" d="M362.1,184.7c8.5,5.3,17.8,4.9,25.9-1C382.9,193.4,367.8,194.1,362.1,184.7L362.1,184.7z"/>
	</g>
	<path class="st2" d="M347.5,149.6c0.6,1,1.8,1.3,2.8,0.6c1.7-1.1,3.7-2.7,5.6-2c2.6,0.9,2.4,2.8,5.7,3.2c0.3,0-0.7-6-5.9-6.3
		C350.4,144.8,349.8,149.2,347.5,149.6z"/>
	<path class="st2" d="M402.6,152.1c-0.6,1-1.8,1.3-2.8,0.6c-1.7-1.1-6.6-1.2-8.6-0.6c-2.6,0.9-5.6,2-6.4,0.4
		c-0.1-0.3,1.4-3.2,6.5-3.6C396.4,148.5,400.2,151.7,402.6,152.1L402.6,152.1z"/>
</g>
<g>
	<path class="st4" d="M382.2,171.1c1.6-0.7-0.4-2.5,1.1-3.2c2.1,4,1.2,5-4,5C379.2,170.8,381,171.4,382.2,171.1z"/>
	<path class="st4" d="M382.2,171.1c-1,0.7-2,1.2-3,1.9c-0.3,0.1-0.6,0.1-0.9,0.1c-1,0.3-1.2-0.1-1-1
		C378.8,170.8,380.1,169.1,382.2,171.1z"/>
	<path class="st4" d="M367.7,171.1c-1.6-0.7,0.4-2.5-1.1-3.2c-2.1,4-1.2,5,4,5C370.7,170.7,368.9,171.3,367.7,171.1z"/>
	<path class="st4" d="M367.7,171.1c1,0.7,2,1.2,3,1.9c0.3,0.1,0.6,0.1,0.9,0.1c1,0.3,1.2-0.1,1-1
		C371.2,170.8,369.8,169.1,367.7,171.1z"/>
	<path class="st4" d="M371.6,173.1c0.3-0.3,0.7-0.7,1-1c1.6,0.9,3.1,1.2,4.8,0c0.3,0.3,0.7,0.7,1,1
		C376.1,174.5,373.9,174.6,371.6,173.1z"/>
</g>
</svg>
