<?xml version="1.0" encoding="utf-8"?>
<!-- Generator: Adobe Illustrator 26.0.3, SVG Export Plug-In . SVG Version: 6.00 Build 0)  -->
<svg version="1.1" id="Layer_1" xmlns="http://www.w3.org/2000/svg" xmlns:xlink="http://www.w3.org/1999/xlink" x="0px" y="0px"
	 viewBox="0 0 200 200" style="enable-background:new 0 0 200 200;" xml:space="preserve">
<style type="text/css">
	.st0{fill:#FFFFFF;}
	.st1{fill:#3E9ACE;}
	.st2{fill:#60131D;}
	.st3{fill:#662C34;}
	.st4{fill:#6A2C17;}
</style>
<g id="Calque_10">
	<circle class="st0" cx="79.6" cy="116.5" r="5.3"/>
	<circle class="st1" cx="79.6" cy="116.5" r="4"/>
	<g>
		<path class="st2" d="M88.1,103.9c-5-1.9-10.1-2.5-15.2-0.8c-1.6,0.5-3.3,1.3-5,2.2C71.4,97.8,83.6,96.9,88.1,103.9L88.1,103.9z"/>
	</g>
	<g>
		<path class="st3" d="M85.7,150.8c8.8,5.6,18.4,5.1,26.9-0.9C107.2,159.8,91.7,160.5,85.7,150.8L85.7,150.8z"/>
	</g>
	<path class="st2" d="M70.5,114.4c0.6,1,1.9,1.3,2.9,0.6c1.8-1.1,3.8-2.8,5.8-2.1c2.7,0.9,2.5,2.9,5.9,3.3c0.3,0-0.7-6.2-6.1-6.5
		S72.9,114,70.5,114.4z"/>
	<circle class="st0" cx="118.6" cy="116.5" r="5.3"/>
	<circle class="st1" cx="118.7" cy="116.5" r="4"/>
	<g>
		<path class="st2" d="M110.1,103.9c4.5-7,16.7-6.1,20.2,1.4c-1.7-0.9-3.3-1.7-5-2.2C120.2,101.4,115.1,102,110.1,103.9L110.1,103.9
			z"/>
	</g>
	<path class="st2" d="M127.8,114.4c-0.6,1-1.9,1.3-2.9,0.6c-1.8-1.1-3.8-2.8-5.8-2.1c-2.7,0.9-2.5,2.9-5.9,3.3
		c-0.3,0,0.7-6.2,6.1-6.5S125.3,114,127.8,114.4z"/>
</g>
<g>
	<path class="st4" d="M106.2,136.7c1.6-0.7-0.4-2.5,1.1-3.2c2.1,4,1.2,5-4,5C103.2,136.4,104.9,137,106.2,136.7z"/>
	<path class="st4" d="M106.2,136.7c-1,0.7-2,1.2-3,1.9c-0.3,0.1-0.6,0.1-0.9,0.1c-1,0.3-1.2-0.1-1-1
		C102.8,136.4,104.1,134.7,106.2,136.7z"/>
	<path class="st4" d="M91.7,136.6c-1.6-0.7,0.4-2.5-1.1-3.2c-2.1,4-1.2,5,4,5C94.7,136.3,92.9,136.9,91.7,136.6z"/>
	<path class="st4" d="M91.7,136.6c1,0.7,2,1.2,3,1.9c0.3,0.1,0.6,0.1,0.9,0.1c1,0.3,1.2-0.1,1-1C95.1,136.4,93.8,134.7,91.7,136.6z"
		/>
	<path class="st4" d="M95.5,138.7c0.3-0.3,0.7-0.7,1-1c1.6,0.9,3.1,1.2,4.8,0c0.3,0.3,0.7,0.7,1,1
		C100.1,140.1,97.8,140.2,95.5,138.7z"/>
</g>
</svg>
