<?xml version="1.0" encoding="utf-8"?>
<!-- Generator: Adobe Illustrator 26.0.3, SVG Export Plug-In . SVG Version: 6.00 Build 0)  -->
<svg version="1.1" id="Layer_1" xmlns="http://www.w3.org/2000/svg" xmlns:xlink="http://www.w3.org/1999/xlink" x="0px" y="0px"
	 viewBox="0 0 200 200" style="enable-background:new 0 0 200 200;" xml:space="preserve">
<style type="text/css">
	.st0{fill:#FFFFFF;}
	.st1{fill:#3E9ACE;}
	.st2{fill:#60131D;}
	.st3{fill:#662C34;}
	.st4{fill:#6A2C17;}
</style>
<g id="Calque_10_00000148618915152737153190000017007598636674158984_">
	<circle class="st0" cx="80.7" cy="116.3" r="5.1"/>
	<circle class="st1" cx="80.7" cy="116.3" r="3.9"/>
	<g>
		<path class="st2" d="M111.1,104.7c3.6-0.7,7-0.5,10.6,0.1c3.5,0.7,6.9,2.2,9.6,4.7c-1.8-0.1-3.5-0.5-5.2-0.8
			C121.1,107.7,115.7,107,111.1,104.7L111.1,104.7z"/>
	</g>
	<g>
		<path class="st2" d="M88.9,104.2c-4.8-1.8-9.7-2.3-14.6-0.7c-1.6,0.5-3.1,1.2-4.8,2.1C72.8,98.3,84.6,97.4,88.9,104.2L88.9,104.2z
			"/>
	</g>
	<g>
		<path class="st3" d="M86.6,149.4c8.5,5.3,17.8,4.9,25.9-1C107.4,158.1,92.3,158.8,86.6,149.4L86.6,149.4z"/>
	</g>
	<path class="st2" d="M72,114.3c0.6,1,1.8,1.3,2.8,0.6c1.7-1.1,3.7-2.7,5.6-2c2.6,0.9,2.4,2.8,5.7,3.2c0.3,0-0.7-6-5.9-6.3
		C74.9,109.5,74.3,113.9,72,114.3z"/>
	<path class="st2" d="M127.1,116.8c-0.6,1-1.8,1.3-2.8,0.6c-1.7-1.1-6.6-1.2-8.6-0.6c-2.6,0.9-5.6,2-6.4,0.4
		c-0.1-0.3,1.4-3.2,6.5-3.6C120.9,113.2,124.7,116.4,127.1,116.8L127.1,116.8z"/>
</g>
<g>
	<path class="st4" d="M106.7,135.9c1.6-0.7-0.4-2.5,1.1-3.2c2.1,4,1.2,5-4,5C103.7,135.5,105.4,136.1,106.7,135.9z"/>
	<path class="st4" d="M106.7,135.9c-1,0.7-2,1.2-3,1.9c-0.3,0.1-0.6,0.1-0.9,0.1c-1,0.3-1.2-0.1-1-1
		C103.3,135.5,104.6,133.8,106.7,135.9z"/>
	<path class="st4" d="M92.2,135.8c-1.6-0.7,0.4-2.5-1.1-3.2c-2.1,4-1.2,5,4,5C95.2,135.4,93.4,136,92.2,135.8z"/>
	<path class="st4" d="M92.2,135.8c1,0.7,2,1.2,3,1.9c0.3,0.1,0.6,0.1,0.9,0.1c1,0.3,1.2-0.1,1-1C95.6,135.5,94.3,133.8,92.2,135.8z"
		/>
	<path class="st4" d="M96,137.8c0.3-0.3,0.7-0.7,1-1c1.6,0.9,3.1,1.2,4.8,0c0.3,0.3,0.7,0.7,1,1C100.6,139.2,98.3,139.3,96,137.8z"
		/>
</g>
</svg>
