<?xml version="1.0" encoding="utf-8"?>
<!-- Generator: Adobe Illustrator 26.0.3, SVG Export Plug-In . SVG Version: 6.00 Build 0)  -->
<svg version="1.1" id="Calque_1" xmlns="http://www.w3.org/2000/svg" xmlns:xlink="http://www.w3.org/1999/xlink" x="0px" y="0px"
	 viewBox="0 0 788 1005" style="enable-background:new 0 0 788 1005;" xml:space="preserve">
<style type="text/css">
	.st0{fill:#FFFFFF;}
	.st1{fill:#3E9ACE;}
	.st2{clip-path:url(#SVGID_00000149375364548032433930000001367442813522643630_);}
	.st3{fill:#60131D;}
	.st4{clip-path:url(#SVGID_00000100354285242570570760000011085112986975228823_);}
	.st5{fill:#5B2945;}
	.st6{fill:#6A2C17;}
</style>
<g id="Calque_10_00000050620936194914206440000002819451268540510375_">
	<path class="st0" d="M399.9,148c0,3.7-3,6.8-6.8,6.8s-6.8-3.2-6.8-5.1L399.9,148z"/>
	<path class="st0" d="M361.1,149c0,2.7-2.9,5.8-6.7,5.8s-6.8-3-6.8-6.8l0,0L361.1,149z"/>
	<path class="st1" d="M358.4,148.6c0,2.2-1.8,4-4,4s-4-1.8-4-4c0-0.2,0-1,0-1.2l7.9,0.6C358.4,148.2,358.4,148.4,358.4,148.6z"/>
	<path class="st1" d="M397.4,148.6c0,2.2-1.8,4-4,4s-4-1.8-4-4c0-0.2,0-0.4,0-0.6l8-0.6C397.4,147.6,397.4,148.4,397.4,148.6z"/>
	<g>
		<g>
			<g>
				<g>
					<defs>
						<rect id="SVGID_1_" x="385.2" y="133.7" width="21.6" height="7.1"/>
					</defs>
					<clipPath id="SVGID_00000031170103162226699500000002179536643162719924_">
						<use xlink:href="#SVGID_1_"  style="overflow:visible;"/>
					</clipPath>
					<g style="clip-path:url(#SVGID_00000031170103162226699500000002179536643162719924_);">
						<g>
							<path class="st3" d="M386.2,134.7c6.8-1.2,14.1,1,19.6,5.1C399.3,138.3,392.8,136.3,386.2,134.7L386.2,134.7z"/>
						</g>
					</g>
				</g>
			</g>
		</g>
	</g>
	<g>
		<g>
			<g>
				<g>
					<defs>
						<rect id="SVGID_00000054240183080525512150000015460418662376202137_" x="342" y="133.7" width="21.6" height="7.1"/>
					</defs>
					<clipPath id="SVGID_00000146497399292644380420000007376499268490116231_">
						<use xlink:href="#SVGID_00000054240183080525512150000015460418662376202137_"  style="overflow:visible;"/>
					</clipPath>
					<g style="clip-path:url(#SVGID_00000146497399292644380420000007376499268490116231_);">
						<g>
							<path class="st3" d="M362.6,134.7c-6.5,1.6-13.1,3.6-19.6,5.1C348.5,135.7,355.8,133.6,362.6,134.7L362.6,134.7z"/>
						</g>
					</g>
				</g>
			</g>
		</g>
	</g>
	<g>
		<path class="st5" d="M364,186.7c3.7-1.1,7.4-1.3,11.2-1.3s7.5,0.2,11.1,1.3C379.1,189,371.3,189,364,186.7L364,186.7z"/>
	</g>
	<g>
		<path class="st6" d="M382.5,170.9c1.6-0.7-0.4-2.5,1.1-3.2c2.1,4,1.2,5-4,5C379.5,170.6,381.2,171.2,382.5,170.9z"/>
		<path class="st6" d="M382.5,170.9c-1,0.7-2,1.2-3,1.9c-0.3,0.1-0.6,0.1-0.9,0.1c-1,0.3-1.2-0.1-1-1
			C379.1,170.6,380.4,168.9,382.5,170.9z"/>
		<path class="st6" d="M368,170.8c-1.6-0.7,0.4-2.5-1.1-3.2c-2.1,4-1.2,5,4,5C371,170.5,369.2,171.1,368,170.8z"/>
		<path class="st6" d="M368,170.8c1,0.7,2,1.2,3,1.9c0.3,0.1,0.6,0.1,0.9,0.1c1,0.3,1.2-0.1,1-1C371.4,170.6,370.1,168.9,368,170.8z
			"/>
		<path class="st6" d="M371.9,172.9c0.3-0.3,0.7-0.7,1-1c1.6,0.9,3.1,1.2,4.8,0c0.3,0.3,0.7,0.7,1,1
			C376.4,174.3,374.2,174.4,371.9,172.9z"/>
	</g>
</g>
<path class="st3" d="M344.9,148.9c0.7,0.6,2.2,0.8,3.3,0.4c2-0.7,4.3-1.7,6.6-1.3c3.1,0.6,2.8,1.8,6.7,2c0.3,0-0.8-3.8-6.9-4
	C348.5,145.8,347.7,148.7,344.9,148.9z"/>
<path class="st3" d="M402.2,148.9c-0.7,0.6-2.1,0.8-3.1,0.4c-2-0.7-4.1-1.7-6.3-1.3c-2.9,0.6-2.7,1.8-6.4,2c-0.3,0,0.8-3.8,6.6-4
	C398.9,145.8,399.5,148.7,402.2,148.9z"/>
</svg>
