<?xml version="1.0" encoding="utf-8"?>
<!-- Generator: Adobe Illustrator 26.0.3, SVG Export Plug-In . SVG Version: 6.00 Build 0)  -->
<svg version="1.1" id="Calque_1" xmlns="http://www.w3.org/2000/svg" xmlns:xlink="http://www.w3.org/1999/xlink" x="0px" y="0px"
	 viewBox="0 0 788 1005" style="enable-background:new 0 0 788 1005;" xml:space="preserve">
<style type="text/css">
	.st0{clip-path:url(#SVGID_00000015320852419379591210000007325575831571466153_);}
	.st1{fill:#60131D;}
	.st2{clip-path:url(#SVGID_00000109002583188142015760000007714206395772141225_);}
	.st3{fill:#6B3457;}
	.st4{fill:#6A2C17;}
</style>
<g id="Calque_10_00000019659383673959856280000009110790659063740059_">
	<g>
		<g>
			<g>
				<g>
					<defs>
						<rect id="SVGID_1_" x="342.7" y="130.9" width="22.1" height="6.1"/>
					</defs>
					<clipPath id="SVGID_00000137816561051213531590000004795863306288743854_">
						<use xlink:href="#SVGID_1_"  style="overflow:visible;"/>
					</clipPath>
					<g style="clip-path:url(#SVGID_00000137816561051213531590000004795863306288743854_);">
						<g>
							<path class="st1" d="M363.8,132.8c-3.6-0.1-7-0.2-10.2,0.4c-3.3,0.6-6.6,1.9-9.9,2.8C349,131.1,357.3,129.3,363.8,132.8
								L363.8,132.8z"/>
						</g>
					</g>
				</g>
			</g>
		</g>
	</g>
	<g>
		<g>
			<g>
				<g>
					<defs>
						<rect id="SVGID_00000054950333202694638160000007577845096737748608_" x="385.6" y="130.9" width="22.1" height="6.1"/>
					</defs>
					<clipPath id="SVGID_00000162351892164224551780000014292484491287621257_">
						<use xlink:href="#SVGID_00000054950333202694638160000007577845096737748608_"  style="overflow:visible;"/>
					</clipPath>
					<g style="clip-path:url(#SVGID_00000162351892164224551780000014292484491287621257_);">
						<g>
							<path class="st1" d="M386.6,132.8c6.5-3.5,14.8-1.7,20.1,3.2c-3.3-1-6.6-2.2-9.9-2.8C393.6,132.6,390.2,132.7,386.6,132.8
								L386.6,132.8z"/>
						</g>
					</g>
				</g>
			</g>
		</g>
	</g>
	<g>
		<path class="st3" d="M361.4,181.5c8.8,5.6,18.6,5.1,26.9-1C383,190.5,367.4,191.2,361.4,181.5L361.4,181.5z"/>
	</g>
	<path class="st1" d="M404.9,147.4c-0.6,1-1.9,1.3-2.9,0.6c-1.8-1.1-6.9-1.2-8.9-0.6c-2.7,0.9-5.8,2.1-6.6,0.4
		c-0.1-0.3,1.5-3.3,6.8-3.7C398.6,143.7,402.4,147,404.9,147.4L404.9,147.4z"/>
	<path class="st1" d="M344.7,147.4c0.6,1,1.9,1.3,2.9,0.6c1.8-1.1,6.9-1.2,8.9-0.6c2.7,0.9,5.8,2.1,6.6,0.4c0.1-0.3-1.5-3.3-6.8-3.7
		C351,143.7,347.1,147,344.7,147.4L344.7,147.4z"/>
</g>
<g>
	<path class="st4" d="M382.1,170.5c1.6-0.7-0.4-2.5,1.1-3.2c2.1,4,1.2,5-4,5C379.1,170.2,380.8,170.8,382.1,170.5z"/>
	<path class="st4" d="M382.1,170.5c-1,0.7-2,1.2-3,1.9c-0.3,0.1-0.6,0.1-0.9,0.1c-1,0.3-1.2-0.1-1-1
		C378.7,170.2,380,168.5,382.1,170.5z"/>
	<path class="st4" d="M367.6,170.4c-1.6-0.7,0.4-2.5-1.1-3.2c-2.1,4-1.2,5,4,5C370.6,170.1,368.8,170.7,367.6,170.4z"/>
	<path class="st4" d="M367.6,170.4c1,0.7,2,1.2,3,1.9c0.3,0.1,0.6,0.1,0.9,0.1c1,0.3,1.2-0.1,1-1C371,170.2,369.7,168.5,367.6,170.4
		z"/>
	<path class="st4" d="M371.4,172.5c0.3-0.3,0.7-0.7,1-1c1.6,0.9,3.1,1.2,4.8,0c0.3,0.3,0.7,0.7,1,1C376,173.9,373.7,174,371.4,172.5
		z"/>
</g>
</svg>
