<?xml version="1.0" encoding="utf-8"?>
<!-- Generator: Adobe Illustrator 26.0.3, SVG Export Plug-In . SVG Version: 6.00 Build 0)  -->
<svg version="1.1" id="Layer_1" xmlns="http://www.w3.org/2000/svg" xmlns:xlink="http://www.w3.org/1999/xlink" x="0px" y="0px"
	 viewBox="0 0 200 200" style="enable-background:new 0 0 200 200;" xml:space="preserve">
<style type="text/css">
	.st0{fill:#FFFFFF;}
	.st1{fill:#3E9ACE;}
	.st2{clip-path:url(#SVGID_00000029748119353149010180000011622100832954196112_);}
	.st3{fill:#60131D;}
	.st4{clip-path:url(#SVGID_00000129205705861779152440000010233210113321541529_);}
	.st5{fill:#66183F;}
	.st6{fill:#6A2C17;}
</style>
<g id="Calque_10_00000092456279158252509710000010318401613197991304_">
	<circle class="st0" cx="121.9" cy="114.3" r="6.8"/>
	<circle class="st0" cx="83" cy="114.3" r="6.8"/>
	<circle class="st1" cx="85.1" cy="114.4" r="4"/>
	<circle class="st1" cx="124" cy="114.4" r="4"/>
	<g>
		<g>
			<g>
				<defs>
					<rect id="SVGID_1_" x="113.6" y="97.4" width="22.1" height="6.7"/>
				</defs>
				<clipPath id="SVGID_00000176761849041225928210000008205266661135367818_">
					<use xlink:href="#SVGID_1_"  style="overflow:visible;"/>
				</clipPath>
				<g style="clip-path:url(#SVGID_00000176761849041225928210000008205266661135367818_);">
					<g>
						<path class="st3" d="M114.6,101.7c4.9-6.3,16.2-5.5,20.2,1.4C128.9,98.8,121.1,98.3,114.6,101.7L114.6,101.7z"/>
					</g>
				</g>
			</g>
		</g>
	</g>
	<g>
		<g>
			<g>
				<defs>
					<rect id="SVGID_00000037679961426615422640000008337766984549909662_" x="70.4" y="97.4" width="22.1" height="6.7"/>
				</defs>
				<clipPath id="SVGID_00000136387517168630151440000012842180806045053333_">
					<use xlink:href="#SVGID_00000037679961426615422640000008337766984549909662_"  style="overflow:visible;"/>
				</clipPath>
				<g style="clip-path:url(#SVGID_00000136387517168630151440000012842180806045053333_);">
					<g>
						<path class="st3" d="M91.5,101.7c-6.5-3.5-14.2-2.9-20.2,1.4C75.4,96.3,86.6,95.5,91.5,101.7L91.5,101.7z"/>
					</g>
				</g>
			</g>
		</g>
	</g>
	<ellipse class="st5" cx="103.5" cy="156.1" rx="2.9" ry="4.5"/>
	<path class="st3" d="M75.1,111.6c0.6,1,1.9,1.3,2.9,0.6c1.8-1.1,3.8-2.8,5.8-2.1c2.7,0.9,2.5,2.9,5.9,3.3c0.3,0-0.7-6.2-6.1-6.5
		S77.5,111.3,75.1,111.6z"/>
	<path class="st3" d="M129.6,111.1c-0.6,1-1.9,1.3-2.9,0.6c-1.8-1.1-3.8-2.8-5.8-2.1c-2.6,0.9-2.5,2.9-5.9,3.3
		c-0.3,0,0.7-6.2,6.1-6.5S127.2,110.8,129.6,111.1z"/>
</g>
<g>
	<path class="st6" d="M110.7,137.5c1.6-0.7-0.4-2.5,1.1-3.2c2.1,4,1.2,5-4,5C107.7,137.2,109.5,137.7,110.7,137.5z"/>
	<path class="st6" d="M110.7,137.5c-1,0.7-2,1.2-3,1.9c-0.3,0.1-0.6,0.1-0.9,0.1c-1,0.3-1.2-0.1-1-1
		C107.3,137.2,108.6,135.4,110.7,137.5z"/>
	<path class="st6" d="M96.2,137.4c-1.6-0.7,0.4-2.5-1.1-3.2c-2.1,4-1.2,5,4,5C99.2,137.1,97.4,137.7,96.2,137.4z"/>
	<path class="st6" d="M96.2,137.4c1,0.7,2,1.2,3,1.9c0.3,0.1,0.6,0.1,0.9,0.1c1,0.3,1.2-0.1,1-1C99.6,137.2,98.3,135.4,96.2,137.4z"
		/>
	<path class="st6" d="M100.1,139.5c0.3-0.3,0.7-0.7,1-1c1.6,0.9,3.1,1.2,4.8,0c0.3,0.3,0.7,0.7,1,1
		C104.6,140.9,102.4,141,100.1,139.5z"/>
</g>
</svg>
