<?xml version="1.0" encoding="utf-8"?>
<!-- Generator: Adobe Illustrator 26.0.3, SVG Export Plug-In . SVG Version: 6.00 Build 0)  -->
<svg version="1.1" id="Calque_1" xmlns="http://www.w3.org/2000/svg" xmlns:xlink="http://www.w3.org/1999/xlink" x="0px" y="0px"
	 viewBox="0 0 788 1005" style="enable-background:new 0 0 788 1005;" xml:space="preserve">
<style type="text/css">
	.st0{fill:#FFFFFF;}
	.st1{fill:#3E9ACE;}
	.st2{clip-path:url(#SVGID_00000142874007491375422310000003257049193106843299_);}
	.st3{fill:#60131D;}
	.st4{clip-path:url(#SVGID_00000114043554340777757480000011633924193659288458_);}
	.st5{fill:#66183F;}
	.st6{fill:#BFBFBF;}
	.st7{fill:#6A2C17;}
</style>
<g id="Calque_10_00000105420901872539977650000017420680573496741563_">
	<circle class="st0" cx="354.6" cy="148.8" r="5.9"/>
	<circle class="st0" cx="394.6" cy="148.8" r="5.9"/>
	<circle class="st1" cx="352.8" cy="148" r="3.3"/>
	<circle class="st1" cx="393.1" cy="148" r="3.3"/>
	<g>
		<g>
			<g>
				<g>
					<defs>
						<rect id="SVGID_1_" x="341.9" y="130.2" width="23.1" height="7"/>
					</defs>
					<clipPath id="SVGID_00000085963468015385740670000007714818043015406472_">
						<use xlink:href="#SVGID_1_"  style="overflow:visible;"/>
					</clipPath>
					<g style="clip-path:url(#SVGID_00000085963468015385740670000007714818043015406472_);">
						<g>
							<path class="st3" d="M364.1,136.1c-6.4-3.7-15.6-6.6-21.2-0.1c1.2-4.2,6.3-6.1,10.4-5.8C357.5,130.5,361.4,132.9,364.1,136.1
								L364.1,136.1z"/>
						</g>
					</g>
				</g>
			</g>
		</g>
	</g>
	<g>
		<g>
			<g>
				<g>
					<defs>
						<rect id="SVGID_00000133500394374360245740000012309860683170246071_" x="386" y="130.2" width="23.1" height="7"/>
					</defs>
					<clipPath id="SVGID_00000036229898064475586290000016215027371174322598_">
						<use xlink:href="#SVGID_00000133500394374360245740000012309860683170246071_"  style="overflow:visible;"/>
					</clipPath>
					<g style="clip-path:url(#SVGID_00000036229898064475586290000016215027371174322598_);">
						<g>
							<path class="st3" d="M387,136.1c2.7-3.2,6.6-5.5,10.8-5.9c4.1-0.4,9.2,1.5,10.4,5.8C402.5,129.5,393.4,132.4,387,136.1
								L387,136.1z"/>
						</g>
					</g>
				</g>
			</g>
		</g>
	</g>
	<path class="st5" d="M359.3,184.6c0.3-0.6,1.4-1.6,3.5-2.5c3.4-1.3,6.9-2.1,10.6-2.1c5.9-0.1,11.6,2.1,15.9,6.1
		c0,0-4.6,11.7-15.8,10.9C365.3,196.3,359.3,184.6,359.3,184.6z"/>
	<path class="st6" d="M373.8,185l-8.2-0.4l-2.2-0.9c3.6-1.5,7.5-2.1,11.4-2c6.7,0.4,10.3,2.9,10.3,2.9l-1.7,0.8L373.8,185z"/>
	<path class="st3" d="M345,145.1c0.7,1,2.2,1.3,3.3,0.6c2.1-1.1,4.4-2.8,6.7-2.1c3.1,0.9,2.9,2.9,6.8,3.3c0.3,0-0.8-6.2-7-6.5
		C348.5,140.1,347.7,144.7,345,145.1z"/>
	<path class="st3" d="M403.4,144.5c-0.7,1-2.1,1.3-3.2,0.6c-2-1.1-4.2-2.8-6.5-2.1c-3,0.9-2.8,2.9-6.6,3.3c-0.3,0,0.8-6.2,6.8-6.5
		C399.9,139.5,400.6,144.1,403.4,144.5z"/>
</g>
<g>
	<path class="st7" d="M382.2,171c1.6-0.7-0.4-2.5,1.1-3.2c2.1,4,1.2,5-4,5C379.3,170.7,381,171.2,382.2,171z"/>
	<path class="st7" d="M382.2,171c-1,0.7-2,1.2-3,1.9c-0.3,0.1-0.6,0.1-0.9,0.1c-1,0.3-1.2-0.1-1-1
		C378.9,170.7,380.2,168.9,382.2,171z"/>
	<path class="st7" d="M367.7,170.9c-1.6-0.7,0.4-2.5-1.1-3.2c-2.1,4-1.2,5,4,5C370.8,170.6,369,171.2,367.7,170.9z"/>
	<path class="st7" d="M367.7,170.9c1,0.7,2,1.2,3,1.9c0.3,0.1,0.6,0.1,0.9,0.1c1,0.3,1.2-0.1,1-1
		C371.2,170.7,369.9,168.9,367.7,170.9z"/>
	<path class="st7" d="M371.6,173c0.3-0.3,0.7-0.7,1-1c1.6,0.9,3.1,1.2,4.8,0c0.3,0.3,0.7,0.7,1,1C376.1,174.4,373.9,174.5,371.6,173
		z"/>
</g>
</svg>
