<?xml version="1.0" encoding="utf-8"?>
<!-- Generator: Adobe Illustrator 26.0.3, SVG Export Plug-In . SVG Version: 6.00 Build 0)  -->
<svg version="1.1" id="Calque_1" xmlns="http://www.w3.org/2000/svg" xmlns:xlink="http://www.w3.org/1999/xlink" x="0px" y="0px"
	 viewBox="0 0 788 1005" style="enable-background:new 0 0 788 1005;" xml:space="preserve">
<style type="text/css">
	.st0{fill:#844F3D;}
	.st1{fill:none;stroke:#662C34;stroke-width:2;stroke-linecap:round;stroke-miterlimit:10;}
	.st2{fill:#FFFFFF;}
	.st3{fill:#3E9ACE;}
	.st4{fill:#60131D;}
	.st5{fill:#5E3E35;}
	.st6{fill:#DDDDDD;}
</style>
<path class="st0" d="M381.9,170.1c0,0-4.7,3.7-7.4,3.7c-2.7,0-7-3.6-7-3.6s5.4,0.7,7.2,0.7S381.9,170.1,381.9,170.1z"/>
<path class="st1" d="M361.3,184.9c3.6,3.6,8.5,5.6,13.6,5.5c5.1-0.3,9.9-2.6,13.3-6.5"/>
<g id="Calque_10_00000063619633380875399050000015430313818454911132_">
	<circle class="st2" cx="355.6" cy="150.7" r="5.3"/>
	<circle class="st3" cx="355.6" cy="150.7" r="4"/>
	<g>
		<path class="st4" d="M364.1,138.1c-5-1.9-10.1-2.5-15.2-0.8c-1.6,0.5-3.3,1.3-5,2.2C347.5,132,359.6,131.1,364.1,138.1
			L364.1,138.1z"/>
	</g>
	<path class="st5" d="M382.3,170.2c0,0-4.7,3.7-7.4,3.7c-2.6,0-7-3.6-7-3.6s5.4,0.7,7.2,0.7S382.3,170.2,382.3,170.2z"/>
	<path class="st1" d="M361.7,185c3.6,3.6,8.5,5.6,13.6,5.5c5.1-0.3,9.9-2.6,13.3-6.4"/>
	<path class="st4" d="M346.5,148.6c0.6,1,1.9,1.3,2.9,0.6c1.8-1.1,3.8-2.8,5.8-2.1c2.7,0.9,2.5,2.9,5.9,3.3c0.3,0-0.7-6.2-6.1-6.5
		S348.9,148.2,346.5,148.6z"/>
	<circle class="st2" cx="394.6" cy="150.7" r="5.3"/>
	<circle class="st3" cx="394.7" cy="150.7" r="4"/>
	<g>
		<path class="st4" d="M386.1,138.1c4.5-7,16.7-6.1,20.2,1.4c-1.7-0.9-3.3-1.7-5-2.2C396.3,135.6,391.1,136.1,386.1,138.1
			L386.1,138.1z"/>
	</g>
	<path class="st4" d="M403.8,148.6c-0.6,1-1.9,1.3-2.9,0.6c-1.8-1.1-3.8-2.8-5.8-2.1c-2.7,0.9-2.5,2.9-5.9,3.3
		c-0.3,0,0.7-6.2,6.1-6.5S401.3,148.2,403.8,148.6z"/>
</g>
<path class="st6" d="M375.3,203L375.3,203c-6,0-22.2-11.3-22.2-17.4v-11.1c0-6,16.2-14.2,22.2-14.2l0,0c6,0,22.2,8.2,22.2,14.2v11.2
	C397.5,191.7,381.3,203,375.3,203z"/>
</svg>
