<?xml version="1.0" encoding="utf-8"?>
<!-- Generator: Adobe Illustrator 26.0.3, SVG Export Plug-In . SVG Version: 6.00 Build 0)  -->
<svg version="1.1" id="Layer_1" xmlns="http://www.w3.org/2000/svg" xmlns:xlink="http://www.w3.org/1999/xlink" x="0px" y="0px"
	 viewBox="0 0 200 200" style="enable-background:new 0 0 200 200;" xml:space="preserve">
<style type="text/css">
	.st0{fill:#FFFFFF;}
	.st1{fill:#3E9ACE;}
	.st2{clip-path:url(#SVGID_00000159441267468527970280000014387715896596201659_);}
	.st3{fill:#60131D;}
	.st4{clip-path:url(#SVGID_00000032616387768895786410000015693185570896982958_);}
	.st5{fill:#5B2945;}
	.st6{fill:#6A2C17;}
</style>
<g id="Calque_10_00000097491537823172697380000008808635251896918401_">
	<path class="st0" d="M123.8,119c0.8-0.1,1.5,0.6,1.3,1.4c-0.7,2.9-3.4,5.2-6.6,5.2c-3.8,0-6.8-3.2-6.8-5.1L123.8,119z"/>
	<path class="st0" d="M89.5,119.8c0,2.7-2.9,5.8-6.7,5.8s-6.8-3-6.8-6.8l0,0L89.5,119.8z"/>
	<path class="st1" d="M87.8,119.4c0,2.2-1.8,4-4,4s-4-1.8-4-4c0-0.2,0-1,0-1.2l7.9,0.6C87.8,119,87.8,119.2,87.8,119.4z"/>
	<path class="st1" d="M122.8,119.4c0,2.2-1.8,4-4,4s-4-1.8-4-4c0-0.2,0-0.4,0-0.6l8-0.6C122.8,118.4,122.8,119.2,122.8,119.4z"/>
	<g>
		<g>
			<g>
				<g>
					<defs>
						<rect id="SVGID_1_" x="110.6" y="104.5" width="21.6" height="7.1"/>
					</defs>
					<clipPath id="SVGID_00000031209358132605563460000004203519058457824680_">
						<use xlink:href="#SVGID_1_"  style="overflow:visible;"/>
					</clipPath>
					<g style="clip-path:url(#SVGID_00000031209358132605563460000004203519058457824680_);">
						<g>
							<path class="st3" d="M111.6,105.5c6.8-1.2,14.1,1,19.6,5.1C124.7,109.1,118.2,107.1,111.6,105.5L111.6,105.5z"/>
						</g>
					</g>
				</g>
			</g>
		</g>
	</g>
	<g>
		<g>
			<g>
				<g>
					<defs>
						<rect id="SVGID_00000016769090628806249440000012726928646384575115_" x="71.4" y="104.5" width="21.6" height="7.1"/>
					</defs>
					<clipPath id="SVGID_00000112602279074336973850000000209827896774239652_">
						<use xlink:href="#SVGID_00000016769090628806249440000012726928646384575115_"  style="overflow:visible;"/>
					</clipPath>
					<g style="clip-path:url(#SVGID_00000112602279074336973850000000209827896774239652_);">
						<g>
							<path class="st3" d="M92,105.5c-6.5,1.6-13.1,3.6-19.6,5.1C77.9,106.5,85.2,104.4,92,105.5L92,105.5z"/>
						</g>
					</g>
				</g>
			</g>
		</g>
	</g>
	<g>
		<path class="st5" d="M89.4,157.5c3.7-1.1,7.4-1.3,11.2-1.3s7.5,0.2,11.1,1.3C104.5,159.8,96.7,159.8,89.4,157.5L89.4,157.5z"/>
	</g>
	<g>
		<path class="st6" d="M107.9,141.7c1.6-0.7-0.4-2.5,1.1-3.2c2.1,4,1.2,5-4,5C104.9,141.4,106.7,142,107.9,141.7z"/>
		<path class="st6" d="M107.9,141.7c-1,0.7-2,1.2-3,1.9c-0.3,0.1-0.6,0.1-0.9,0.1c-1,0.3-1.2-0.1-1-1
			C104.5,141.4,105.8,139.7,107.9,141.7z"/>
		<path class="st6" d="M93.4,141.6c-1.6-0.7,0.4-2.5-1.1-3.2c-2.1,4-1.2,5,4,5C96.4,141.3,94.6,141.9,93.4,141.6z"/>
		<path class="st6" d="M93.4,141.6c1,0.7,2,1.2,3,1.9c0.3,0.1,0.6,0.1,0.9,0.1c1,0.3,1.2-0.1,1-1C96.9,141.4,95.5,139.7,93.4,141.6z
			"/>
		<path class="st6" d="M97.3,143.7c0.3-0.3,0.7-0.7,1-1c1.6,0.9,3.1,1.2,4.8,0c0.3,0.3,0.7,0.7,1,1
			C101.8,145.1,99.6,145.2,97.3,143.7z"/>
	</g>
</g>
<path class="st3" d="M73.3,119.7c0.7,0.6,2.2,0.8,3.3,0.4c2-0.7,4.3-1.7,6.6-1.3c3.1,0.6,2.8,1.8,6.7,2c0.3,0-0.8-3.8-6.9-4
	C76.9,116.6,76.1,119.5,73.3,119.7z"/>
<path class="st3" d="M126.6,119.7c-0.7,0.6-2.1,0.8-3.1,0.4c-2-0.7-4.1-1.7-6.3-1.3c-2.9,0.6-2.7,1.8-6.4,2c-0.3,0,0.8-3.8,6.6-4
	C123.3,116.6,123.9,119.5,126.6,119.7z"/>
</svg>
