<?xml version="1.0" encoding="utf-8"?>
<!-- Generator: Adobe Illustrator 26.0.3, SVG Export Plug-In . SVG Version: 6.00 Build 0)  -->
<svg version="1.1" id="Calque_1" xmlns="http://www.w3.org/2000/svg" xmlns:xlink="http://www.w3.org/1999/xlink" x="0px" y="0px"
	 viewBox="0 0 788 1005" style="enable-background:new 0 0 788 1005;" xml:space="preserve">
<style type="text/css">
	.st0{fill:#FFFFFF;}
	.st1{fill:#3E9ACE;}
	.st2{fill:#60131D;}
	.st3{fill:#662C34;}
	.st4{fill:#6A2C17;}
</style>
<g id="Calque_10">
	<circle class="st0" cx="355.5" cy="150.7" r="5.3"/>
	<circle class="st1" cx="355.5" cy="150.7" r="4"/>
	<g>
		<path class="st2" d="M364,138.1c-5-1.9-10.1-2.5-15.2-0.8c-1.6,0.5-3.3,1.3-5,2.2C347.3,132,359.5,131.1,364,138.1L364,138.1z"/>
	</g>
	<g>
		<path class="st3" d="M361.6,185c8.8,5.6,18.4,5.1,26.9-0.9C383.1,194,367.6,194.7,361.6,185L361.6,185z"/>
	</g>
	<path class="st2" d="M346.4,148.6c0.6,1,1.9,1.3,2.9,0.6c1.8-1.1,3.8-2.8,5.8-2.1c2.7,0.9,2.5,2.9,5.9,3.3c0.3,0-0.7-6.2-6.1-6.5
		S348.8,148.2,346.4,148.6z"/>
	<circle class="st0" cx="394.5" cy="150.7" r="5.3"/>
	<circle class="st1" cx="394.6" cy="150.7" r="4"/>
	<g>
		<path class="st2" d="M386,138.1c4.5-7,16.7-6.1,20.2,1.4c-1.7-0.9-3.3-1.7-5-2.2C396.1,135.6,391,136.2,386,138.1L386,138.1z"/>
	</g>
	<path class="st2" d="M403.7,148.6c-0.6,1-1.9,1.3-2.9,0.6c-1.8-1.1-3.8-2.8-5.8-2.1c-2.7,0.9-2.5,2.9-5.9,3.3
		c-0.3,0,0.7-6.2,6.1-6.5S401.2,148.2,403.7,148.6z"/>
</g>
<g>
	<path class="st4" d="M382.1,170.9c1.6-0.7-0.4-2.5,1.1-3.2c2.1,4,1.2,5-4,5C379.1,170.6,380.8,171.2,382.1,170.9z"/>
	<path class="st4" d="M382.1,170.9c-1,0.7-2,1.2-3,1.9c-0.3,0.1-0.6,0.1-0.9,0.1c-1,0.3-1.2-0.1-1-1
		C378.7,170.6,380,168.9,382.1,170.9z"/>
	<path class="st4" d="M367.6,170.8c-1.6-0.7,0.4-2.5-1.1-3.2c-2.1,4-1.2,5,4,5C370.6,170.5,368.8,171.1,367.6,170.8z"/>
	<path class="st4" d="M367.6,170.8c1,0.7,2,1.2,3,1.9c0.3,0.1,0.6,0.1,0.9,0.1c1,0.3,1.2-0.1,1-1C371,170.6,369.7,168.9,367.6,170.8
		z"/>
	<path class="st4" d="M371.4,172.9c0.3-0.3,0.7-0.7,1-1c1.6,0.9,3.1,1.2,4.8,0c0.3,0.3,0.7,0.7,1,1
		C376,174.3,373.7,174.4,371.4,172.9z"/>
</g>
</svg>
