<?xml version="1.0" encoding="utf-8"?>
<!-- Generator: Adobe Illustrator 26.0.3, SVG Export Plug-In . SVG Version: 6.00 Build 0)  -->
<svg version="1.1" id="Layer_1" xmlns="http://www.w3.org/2000/svg" xmlns:xlink="http://www.w3.org/1999/xlink" x="0px" y="0px"
	 viewBox="0 0 200 200" style="enable-background:new 0 0 200 200;" xml:space="preserve">
<style type="text/css">
	.st0{clip-path:url(#SVGID_00000061471381197508671940000016821467861548401596_);}
	.st1{fill:#60131D;}
	.st2{clip-path:url(#SVGID_00000061471197006772959920000017936496052641033150_);}
	.st3{fill:#6B3457;}
	.st4{fill:#6A2C17;}
</style>
<g id="Calque_10_00000049931615080089641910000003613095833169520795_">
	<g>
		<g>
			<g>
				<g>
					<defs>
						<rect id="SVGID_1_" x="67.6" y="96.7" width="22.1" height="6.1"/>
					</defs>
					<clipPath id="SVGID_00000101811563086775209710000010568044662609264272_">
						<use xlink:href="#SVGID_1_"  style="overflow:visible;"/>
					</clipPath>
					<g style="clip-path:url(#SVGID_00000101811563086775209710000010568044662609264272_);">
						<g>
							<path class="st1" d="M88.7,98.6c-3.6-0.1-7-0.2-10.2,0.4c-3.3,0.6-6.6,1.9-9.9,2.8C73.9,96.9,82.2,95.1,88.7,98.6L88.7,98.6z
								"/>
						</g>
					</g>
				</g>
			</g>
		</g>
	</g>
	<g>
		<g>
			<g>
				<g>
					<defs>
						<rect id="SVGID_00000031192512710187208030000010932314668358553759_" x="110.5" y="96.7" width="22.1" height="6.1"/>
					</defs>
					<clipPath id="SVGID_00000096044069805080280650000016129013755258482344_">
						<use xlink:href="#SVGID_00000031192512710187208030000010932314668358553759_"  style="overflow:visible;"/>
					</clipPath>
					<g style="clip-path:url(#SVGID_00000096044069805080280650000016129013755258482344_);">
						<g>
							<path class="st1" d="M111.5,98.6c6.5-3.5,14.8-1.7,20.1,3.2c-3.3-1-6.6-2.2-9.9-2.8C118.5,98.4,115.1,98.5,111.5,98.6
								L111.5,98.6z"/>
						</g>
					</g>
				</g>
			</g>
		</g>
	</g>
	<g>
		<path class="st3" d="M86.3,147.3c8.8,5.6,18.6,5.1,26.9-1C107.9,156.3,92.3,157,86.3,147.3L86.3,147.3z"/>
	</g>
	<path class="st1" d="M129.8,113.2c-0.6,1-1.9,1.3-2.9,0.6c-1.8-1.1-6.9-1.2-8.9-0.6c-2.7,0.9-5.8,2.1-6.6,0.4
		c-0.1-0.3,1.5-3.3,6.8-3.7C123.5,109.5,127.3,112.8,129.8,113.2L129.8,113.2z"/>
	<path class="st1" d="M69.6,113.2c0.6,1,1.9,1.3,2.9,0.6c1.8-1.1,6.9-1.2,8.9-0.6c2.7,0.9,5.8,2.1,6.6,0.4c0.1-0.3-1.5-3.3-6.8-3.7
		C75.9,109.5,72,112.8,69.6,113.2L69.6,113.2z"/>
</g>
<g>
	<path class="st4" d="M106.9,136.3c1.6-0.7-0.4-2.5,1.1-3.2c2.1,4,1.2,5-4,5C104,136,105.7,136.5,106.9,136.3z"/>
	<path class="st4" d="M106.9,136.3c-1,0.7-2,1.2-3,1.9c-0.3,0.1-0.6,0.1-0.9,0.1c-1,0.3-1.2-0.1-1-1
		C103.6,136,104.9,134.2,106.9,136.3z"/>
	<path class="st4" d="M92.4,136.2c-1.6-0.7,0.4-2.5-1.1-3.2c-2.1,4-1.2,5,4,5C95.5,135.9,93.7,136.5,92.4,136.2z"/>
	<path class="st4" d="M92.4,136.2c1,0.7,2,1.2,3,1.9c0.3,0.1,0.6,0.1,0.9,0.1c1,0.3,1.2-0.1,1-1C95.9,136,94.6,134.2,92.4,136.2z"/>
	<path class="st4" d="M96.3,138.3c0.3-0.3,0.7-0.7,1-1c1.6,0.9,3.1,1.2,4.8,0c0.3,0.3,0.7,0.7,1,1
		C100.9,139.7,98.6,139.8,96.3,138.3z"/>
</g>
</svg>
