<?xml version="1.0" encoding="utf-8"?>
<!-- Generator: Adobe Illustrator 26.0.3, SVG Export Plug-In . SVG Version: 6.00 Build 0)  -->
<svg version="1.1" id="Calque_1" xmlns="http://www.w3.org/2000/svg" xmlns:xlink="http://www.w3.org/1999/xlink" x="0px" y="0px"
	 viewBox="0 0 788 1005" style="enable-background:new 0 0 788 1005;" xml:space="preserve">
<style type="text/css">
	.st0{fill:#FFFFFF;}
	.st1{fill:#3E9ACE;}
	.st2{clip-path:url(#SVGID_00000015340496029568353790000011924127061320648340_);}
	.st3{fill:#60131D;}
	.st4{clip-path:url(#SVGID_00000130611155850275584480000009283645935365671095_);}
	.st5{fill:#66183F;}
	.st6{fill:#6A2C17;}
</style>
<g id="Calque_10_00000092456279158252509710000010318401613197991304_">
	<circle class="st0" cx="393.3" cy="147.9" r="6.8"/>
	<circle class="st0" cx="354.4" cy="147.9" r="6.8"/>
	<circle class="st1" cx="356.5" cy="148" r="4"/>
	<circle class="st1" cx="395.4" cy="148" r="4"/>
	<g>
		<g>
			<g>
				<g>
					<defs>
						<rect id="SVGID_1_" x="385" y="131" width="22.1" height="6.7"/>
					</defs>
					<clipPath id="SVGID_00000091703555732944158260000000422156938341567658_">
						<use xlink:href="#SVGID_1_"  style="overflow:visible;"/>
					</clipPath>
					<g style="clip-path:url(#SVGID_00000091703555732944158260000000422156938341567658_);">
						<g>
							<path class="st3" d="M386,135.3c4.9-6.3,16.2-5.5,20.2,1.4C400.3,132.4,392.5,131.9,386,135.3L386,135.3z"/>
						</g>
					</g>
				</g>
			</g>
		</g>
	</g>
	<g>
		<g>
			<g>
				<g>
					<defs>
						<rect id="SVGID_00000078746706014525397910000003577681127775842182_" x="341.8" y="131" width="22.1" height="6.7"/>
					</defs>
					<clipPath id="SVGID_00000150093823077551862940000005882585102430304153_">
						<use xlink:href="#SVGID_00000078746706014525397910000003577681127775842182_"  style="overflow:visible;"/>
					</clipPath>
					<g style="clip-path:url(#SVGID_00000150093823077551862940000005882585102430304153_);">
						<g>
							<path class="st3" d="M362.9,135.3c-6.5-3.5-14.2-2.9-20.2,1.4C346.8,129.9,358,129.1,362.9,135.3L362.9,135.3z"/>
						</g>
					</g>
				</g>
			</g>
		</g>
	</g>
	<ellipse class="st5" cx="374.9" cy="189.7" rx="2.9" ry="4.5"/>
	<path class="st3" d="M346.5,145.2c0.6,1,1.9,1.3,2.9,0.6c1.8-1.1,3.8-2.8,5.8-2.1c2.7,0.9,2.5,2.9,5.9,3.3c0.3,0-0.7-6.2-6.1-6.5
		S348.9,144.9,346.5,145.2z"/>
	<path class="st3" d="M401,144.7c-0.6,1-1.9,1.3-2.9,0.6c-1.8-1.1-3.8-2.8-5.8-2.1c-2.6,0.9-2.5,2.9-5.9,3.3c-0.3,0,0.7-6.2,6.1-6.5
		S398.6,144.4,401,144.7z"/>
</g>
<g>
	<path class="st6" d="M382.4,170.8c1.6-0.7-0.4-2.5,1.1-3.2c2.1,4,1.2,5-4,5C379.4,170.5,381.1,171.1,382.4,170.8z"/>
	<path class="st6" d="M382.4,170.8c-1,0.7-2,1.2-3,1.9c-0.3,0.1-0.6,0.1-0.9,0.1c-1,0.3-1.2-0.1-1-1
		C379,170.5,380.3,168.8,382.4,170.8z"/>
	<path class="st6" d="M367.9,170.8c-1.6-0.7,0.4-2.5-1.1-3.2c-2.1,4-1.2,5,4,5C370.9,170.4,369.1,171,367.9,170.8z"/>
	<path class="st6" d="M367.9,170.8c1,0.7,2,1.2,3,1.9c0.3,0.1,0.6,0.1,0.9,0.1c1,0.3,1.2-0.1,1-1C371.3,170.5,370,168.8,367.9,170.8
		z"/>
	<path class="st6" d="M371.7,172.8c0.3-0.3,0.7-0.7,1-1c1.6,0.9,3.1,1.2,4.8,0c0.3,0.3,0.7,0.7,1,1
		C376.3,174.2,374,174.3,371.7,172.8z"/>
</g>
</svg>
