<svg xmlns="http://www.w3.org/2000/svg" viewBox="0 0 130.98 119.27"><defs><style>.cls-1{fill:#aa5b3f;}.cls-2{fill:#473415;}.cls-3{fill:#472e1d;}.cls-4{fill:#d1924e;}.cls-5{fill:#db493e;}.cls-6{fill:#efc081;}</style></defs><g id="Calque_7" data-name="Calque 7"><path class="cls-1" d="M8.71,29C8.52,28.24,3.2,13.66,3.2,13.66s6.57-3.09,6.37-3.85S7.91-1.62,7.91-1.62l2.88-.72L13,10.56l1.56-10,2.93,1.1-.78,12.25,2.51,4.26-3.92,9.16Z"/><path class="cls-1" d="M20.41,60.83c-.86-8.25-3.91-33.12-2.64-41.13.89-5.6-9.61-1.5-9.61-1.5a76.52,76.52,0,0,1,.1,10.67c-.9,8.41-4.53,19.37-6.51,33.22"/><polygon class="cls-2" points="48.32 105.35 48.85 97.4 103.64 97.4 104.34 104.29 48.32 105.35"/><circle class="cls-3" cx="100.36" cy="95.03" r="1.65"/><polyline class="cls-4" points="120.68 87.79 118.45 82.97 114.58 67.54 115.15 57.91 112.33 27.94 94.78 11.21 76.39 34.48 58.06 10.43 37.15 20.13 29.76 27.89 21.03 38.93 18.8 28.12 4.78 33 0 64.79 10.77 74.32 48.37 50.25 49.27 75.07 46.56 92.26 46.81 105.39 106.81 104.54 105.4 88.13 103.53 76.2 104.34 46.24"/><path class="cls-5" d="M90.13,11.05s19,7.48,24.78,11.28C125,29,108.57,51.81,108.57,51.81l-3.63,25.55,1.76,26.42L104,108.41l-54.17.31-2.94-4.67.21-25.47s5.39-20.67,1.64-25.5C40.3,42.22,41,19.92,41,19.92L63.55,11s6,15.46,14.11,14.62C86.75,24.68,90.13,11.05,90.13,11.05Z"/><polygon class="cls-4" points="43.98 109.36 44.14 97.48 60.78 97.48 61.11 113.48 43.98 109.36"/><path class="cls-1" d="M92.57,109.27l14.06-6.18,8.05,8.23-.91,3.71-4.24,4.24s-8-6.82-8-7.42-6.14,1.51-6.14,1.51Z"/><polygon class="cls-4" points="120.5 23.68 127.93 43.46 130.98 81.98 114.91 112.46 104.38 102.21 114.35 75.88 112.41 48.17 120.5 23.68"/><polygon class="cls-6" points="89.14 6.47 92.05 49 81.71 106.06 107.98 99.94 114.68 80.61 116.02 47.89 120.42 23.4 89.14 6.47"/><polygon class="cls-4" points="102.46 16.45 98.9 23.79 94.54 23.14 90.76 29.6 89.16 6.63 96.43 13.76 102.46 16.45"/><polygon class="cls-6" points="65.78 3.71 62.67 46.35 62.67 106.06 41.89 99 38.7 45.24 35.47 20.13 65.78 3.71"/><path class="cls-4" d="M65.78,3.71s-.79,7.68.33,9.54c1.91,3.16,8.75,4.52,8.75,4.52l-2,6.83-4.57-1.38L63.6,31.74l.12-7.88a11.58,11.58,0,0,1-4.38-10.69C59.61,10.61,65.78,3.71,65.78,3.71Z"/><polygon class="cls-4" points="89.79 110 84.88 104.69 105.69 100.45 107.15 104.44 89.79 110"/></g></svg>