<svg xmlns="http://www.w3.org/2000/svg" viewBox="0 0 131.77 105.93"><defs><style>.cls-1{fill:#87442d;}.cls-2{fill:#aa5b3f;}.cls-3{fill:#c1272d;}.cls-4{fill:#823f1d;}.cls-5{fill:#ff931e;}</style></defs><g id="Calque_5" data-name="Calque 5"><path class="cls-1" d="M59.55,25.63l0,3.93a7.87,7.87,0,0,1-4.37,7.1l-10,5s-4.83,1.93-4.73,8.56c.15,9.57,2.54,9,5.2,11.29,3.14,2.68,2.06,12.47,4.28,16,.61,1,2.83,2.52,3.94,2.27,3.12-.72,5.86-7.87,8.67-9.41,1.65-.9,5.94-1,7.52,0C72.76,72,75.63,79,78.75,79.69c1.1.25,3.33-1.31,3.94-2.27,2.22-3.48,1.14-13.27,4.28-16,2.66-2.27,5.8-2.47,6-12,.09-5.81-3.46-7.09-5.12-7.69a6,6,0,0,1-.79-.33l-10.1-5A7.07,7.07,0,0,1,73,30.14l-.06-4.5"/><path class="cls-2" d="M80.66,43.42c5.53-4.13,13.53-3.8,13.53-3.8s15.48-1.07,20.64-1.5c2.43-.21,7.49-.73,8.17,5.32h0c.56,5-4.15,6.37-6.45,6.79-4.69.87-14.36,1.63-18.77,3.28-3.29,1.22-7.88,4.39-13.72,3,0,0-4.91-.64-6-5.5l0-.2a7.15,7.15,0,0,1,2.69-7.35Z"/><path class="cls-2" d="M113.72,49.16c-4.46-2.16-3.4-8-2.89-10s2.54-6,3.53-7.95c2.55-4.95,7.47-12.95,9.89-17.82,1.59-3.21,2.34-4.95,4.66-4.48,2.12.43,1.7,3.92,1.55,5.29-.6,5.63-1.64,16.64-3.24,22.41a39.59,39.59,0,0,1-3.83,9.06C119.5,51.29,115,49.78,113.72,49.16Z"/><polygon class="cls-3" points="46.53 102.64 46.9 97.03 85.54 97.03 86.03 101.89 46.53 102.64"/><path class="cls-2" d="M51.56,44C46,39.85,38,40.19,38,40.19s-15.48-1.07-20.63-1.51C15,38.47,9.9,38,9.22,44h0c-.57,5,4.14,6.37,6.45,6.79,4.68.87,14.35,1.64,18.77,3.28,3.29,1.22,7.88,4.39,13.72,3a7.44,7.44,0,0,0,6-5.51l0-.19A7.16,7.16,0,0,0,51.56,44Z"/><path class="cls-2" d="M18.49,49.72c4.46-2.16,3.41-8,2.9-10a49,49,0,0,0-3.54-7.95c-2.54-5-7.46-12.95-9.88-17.83C6.37,10.69,5.62,9,3.3,9.43c-2.11.43-1.69,3.91-1.55,5.28C2.36,20.34,3.4,31.36,5,37.13a40.19,40.19,0,0,0,3.82,9.06C12.72,51.86,17.2,50.35,18.49,49.72Z"/><path class="cls-2" d="M1.13,12.26A8.91,8.91,0,0,1,.35,9L0,3A2,2,0,0,1,.5,1.63h0A2.57,2.57,0,0,1,2.41.79L7.56,0A1.51,1.51,0,0,1,9.21.9L9.07,2.52s.47,2.2.49,1.54C9.66,1.73,10,.15,12.05.38l-.36,3.86a3,3,0,0,1-.46,1.24c-.5.86-.85,2.86-1.36,3.54a28.24,28.24,0,0,0-2.76,3.16c-.28.65.31,1.5.31,1.5h0a2.35,2.35,0,0,1-2.95,2L2.29,15Z"/><path class="cls-4" d="M9.2.9,8.88,4l-2,3.26L4.92,7l.32.26A2.5,2.5,0,0,1,6.16,9.5L6,10.58,7.25,8.13l.64-.46L9.67,4,9.58,2.33Z"/><path class="cls-2" d="M130.65,12.26A9.11,9.11,0,0,0,131.43,9l.34-6a2,2,0,0,0-.49-1.37h0a2.58,2.58,0,0,0-1.91-.84L124.21,0a1.5,1.5,0,0,0-1.64.9l.13,1.62s-.46,2.2-.49,1.54c-.09-2.33-.46-3.91-2.49-3.68l.37,3.86a3,3,0,0,0,.46,1.24c.49.86.84,2.86,1.35,3.54a28.24,28.24,0,0,1,2.76,3.16c.29.65-.3,1.5-.3,1.5h0a2.33,2.33,0,0,0,2.94,2l2.19-.61Z"/><path class="cls-4" d="M122.57.9,122.89,4l2,3.26,2-.33-.32.26a2.54,2.54,0,0,0-.92,2.27l.13,1.08-1.21-2.45-.65-.46L122.11,4l.08-1.65Z"/><path class="cls-5" d="M34.77,37.84l6.74,21.27v0c.13.51,3.19,12.87,3.66,17.39.54,5-1.45,27.6-1.45,27.6,0,.33,44.62,1.79,44.62,1.79a.57.57,0,0,0,.6-.61c-.16-3.09-.82-16.89-.09-26.18.36-4.62,3.58-18.27,3.71-18.83v0l7-22.5a.58.58,0,0,0-.53-.76l-16.14-.69a.67.67,0,0,0-.31.07l-14.3,7.85a.6.6,0,0,1-.58,0l-14.28-8.5a.62.62,0,0,0-.35-.08L35.28,37.08A.59.59,0,0,0,34.77,37.84Z"/></g></svg>