<svg xmlns="http://www.w3.org/2000/svg" viewBox="0 0 788 1005"><defs><style>.cls-1{fill:#3c3d4e;}.cls-2{fill:#d18d7e;}.cls-3{fill:#b7267d;}.cls-4{fill:#3d3d3d;}</style></defs><g id="Calque_3" data-name="Calque 3"><path class="cls-1" d="M423.41,400.48c16.16,5.22,23.2,9.63,27,16.56,3.11,5.62,6,18.49,6.28,24.9.54,15.07-7.77,52.94-21.93,65.58-14.4,12.86-84.8,12.86-99.2,0-14.16-12.64-22.47-50.51-21.93-65.58.23-6.41,3.16-19.28,6.27-24.9,3.84-6.93,10.89-11.34,27.05-16.56,18.49-6,37.29-5,37.29-5S404.92,394.5,423.41,400.48Z"/><path class="cls-1" d="M375.05,495.23V451.37s-39-50.8-40-50.8-23.68,21.91-23.68,21.91l-3,19-6.5,74.07s11.89,158.16,11.88,159.73c0,.56.36,4.78.83,10a24.13,24.13,0,0,0,24,21.95h0c11.78,0,17.84-4.5,19.8-16.11l2.63-15.61s9.92-86.71,8.6-88.83c-.88-1.4,7.46-51.64,5.37-53.74S375.05,495.23,375.05,495.23Z"/><path class="cls-2" d="M357.72,704.73c-.23-.93-7.53-41.16-19.22-41.16h0a22.06,22.06,0,0,0-21.88,19.23l-1,7.5s-5.12,69.15-4.09,70.73,20.48,120.81,20.5,123.7a12.77,12.77,0,0,0,12.05,12.68h0c7.89.44,9-4.31,8.15-12.16L365.5,753.59Z"/><path class="cls-2" d="M343.4,871.84c-5-.11-12.41,1.3-11.75,16.12.23,5.21-1.85,28.11-6.16,33.78-1.19,1.56-2,5.94-5.6,8.66a3.71,3.71,0,0,0-1.47,3.48l-1,5.6,35.2,1,10.38-7-7.29-28.37-2.49-18.47-.81-4.38C351.1,872,350.77,872,343.4,871.84Z"/><path class="cls-3" d="M381.67,357.23l-33.86,0a22.33,22.33,0,0,0-21.43,16l-16.21,54.38s-19.79,51-21.37,64.2c-6.19,51.44,18.93,250.3,20.26,269.58,1.68,24.37,17.35,96.17,17.35,96.17l29.08,0S366.54,781.47,367,755.9c.31-16.93,8-180.7,12-218.47,1.11-10.46,4.29-45.19,4.29-45.19Z"/><polygon class="cls-4" points="330.88 898.29 354.47 897.1 363.79 937.29 357.31 941.99 313.37 941.94 315.63 929.39 322.74 914.33 330.88 898.29"/><path class="cls-2" d="M408.11,704.73c.23-.93,7.53-41.16,19.21-41.16h0a22.08,22.08,0,0,1,21.89,19.23l1,7.5s5.12,69.15,4.08,70.73-20.48,120.81-20.49,123.7a12.78,12.78,0,0,1-12.06,12.68h0c-7.88.44-9-4.31-8.14-12.16L400.33,753.59Z"/><path class="cls-2" d="M422.43,871.84c5-.11,12.41,1.3,11.75,16.12-.23,5.21,1.84,28.11,6.16,33.78,1.19,1.56,2,5.94,5.6,8.66a3.71,3.71,0,0,1,1.47,3.48l1,5.6-35.2,1-10.38-7,7.29-28.37,2.49-18.47.81-4.38C414.73,872,415.06,872,422.43,871.84Z"/><path class="cls-3" d="M365.49,357.19H418a22.33,22.33,0,0,1,21.43,16l16.2,54.38s19.8,51,21.38,64.2c6.19,51.44-18.94,250.3-20.26,269.58-1.68,24.37-17.35,96.17-17.35,96.17l-29.08,0s-11-76.06-11.52-101.63c-.31-16.93-8-180.7-12-218.47-1.1-10.46-4.29-45.19-4.29-45.19Z"/><polygon class="cls-4" points="434.94 898.29 411.36 897.1 402.04 937.29 408.52 941.99 452.46 941.94 450.2 929.39 443.09 914.33 434.94 898.29"/><path class="cls-3" d="M324.09,371H444.48l27.34,79.61a189.41,189.41,0,0,1,10.11,53.8L498.8,918.84H401.7L384.62,502.71l-2.31,0L379.56,918.5l-98.44,3.72,6.49-416.89a184,184,0,0,1,9.9-56.77Z"/></g></svg>