<svg xmlns="http://www.w3.org/2000/svg" viewBox="0 0 788 702.8"><defs><style>.cls-1{fill:#3c3d4e;}.cls-2{fill:#d18d7e;}.cls-3{fill:#3d3d3d;}</style></defs><g id="Calque_3" data-name="Calque 3"><path class="cls-1" d="M400.88,193.08V149.22s-39-50.8-40-50.8-23.69,21.91-23.69,21.91l-3,19-6.5,74.07s11.89,158.16,11.88,159.73c0,.56.36,4.78.83,10a24.13,24.13,0,0,0,24,21.95h0c11.78,0,17.84-4.5,19.8-16.11l2.63-15.61s9.92-86.71,8.6-88.82c-.88-1.41,7.46-51.65,5.37-53.75S400.88,193.08,400.88,193.08Z"/><path class="cls-2" d="M383.55,402.58c-.23-.93-7.53-41.16-19.22-41.16h0a22.07,22.07,0,0,0-21.88,19.23l-1,7.51s-5.12,69.14-4.08,70.72,20.48,120.82,20.49,123.71a12.77,12.77,0,0,0,12.06,12.67h0c7.88.44,9-4.31,8.14-12.16l13.25-131.65Z"/><path class="cls-2" d="M369.23,569.7c-5-.12-12.41,1.3-11.75,16.11.23,5.22-1.84,28.11-6.16,33.78-1.19,1.56-2,5.95-5.6,8.67a3.68,3.68,0,0,0-1.47,3.47l-1,5.6,35.2,1,10.38-7L381.54,603l-2.49-18.47-.81-4.38C376.93,569.83,376.6,569.86,369.23,569.7Z"/><path class="cls-1" d="M407.84,42.55l-33.86,0a22.34,22.34,0,0,0-21.43,16L336,125.35s-19.79,51-21.37,64.21c-6.19,51.44,18.93,250.31,20.26,269.59,1.68,24.38,17.35,96.18,17.35,96.18l29.08,0s11.05-76.07,11.51-101.64c.31-16.92,8-180.71,12-218.48,1.11-10.46,4.3-45.2,4.3-45.2Z"/><polygon class="cls-3" points="356.71 596.14 380.3 594.95 389.62 635.14 383.14 639.84 339.2 639.79 341.46 627.24 348.57 612.18 356.71 596.14"/><path class="cls-2" d="M433.94,402.58c.23-.93,7.53-41.16,19.21-41.16h0A22.07,22.07,0,0,1,475,380.65l1,7.51s5.12,69.14,4.08,70.72S459.62,579.7,459.61,582.59a12.77,12.77,0,0,1-12.06,12.67h0c-7.88.44-9-4.31-8.14-12.16L426.16,451.45Z"/><path class="cls-2" d="M448.26,569.7c5-.12,12.41,1.3,11.75,16.11-.23,5.22,1.84,28.11,6.16,33.78,1.19,1.56,2,5.95,5.6,8.67a3.68,3.68,0,0,1,1.47,3.47l1,5.6-35.2,1-10.38-7L436,603l2.49-18.47.81-4.38C440.56,569.83,440.89,569.86,448.26,569.7Z"/><path class="cls-1" d="M391.67,42.51h52.52a22.34,22.34,0,0,1,21.43,16l15.86,66.87s19.8,51,21.38,64.21c6.19,51.44-18.94,250.31-20.26,269.59-1.68,24.38-17.35,96.18-17.35,96.18l-29.08,0s-11.05-76.07-11.51-101.64c-.31-16.92-8-180.71-12-218.48-1.11-10.46-4.3-45.2-4.3-45.2Z"/><polygon class="cls-3" points="460.77 596.14 437.19 594.95 427.87 635.14 434.35 639.84 478.29 639.79 476.03 627.24 468.92 612.18 460.77 596.14"/></g></svg>