<svg xmlns="http://www.w3.org/2000/svg" viewBox="0 0 788 1005"><defs><style>.cls-1{fill:#fa9980;}.cls-2{fill:#b25b49;}.cls-3{fill:#683b2f;}</style></defs><g id="Calque_9" data-name="Calque 9"><path class="cls-1" d="M360.53,121.94l-6-4-4.69,4,1,14.11s5.35,8.27,6,9.25,5.52,1.78,5.52,1.78l3.51-14.92Z"/><path class="cls-1" d="M428.91,121.94l7.06-4,3.64,4-1,14.11s-5.35,8.27-6,9.25-5.52,1.78-5.52,1.78l-3.51-14.92Z"/><path class="cls-1" d="M432.07,100.05c-1.36-6.77-3.16-21.08-8.51-25.44l-12.21-2.25c-4.83-3.93-4.67.74-10.88.36l-5.63-.35h-.11l-5.63.35c-6.21.38-11.09-3.25-15.91.68l-7.31,1.82c-5.35,4.36-7,18.07-8.38,24.83-.49,2.48-.88,4.46-.88,4.63,0,.48-2.95,5.06-2.95,5.06l5.66,17.7.16,1.08,3.69,25.34a13.86,13.86,0,0,0,3.41,7.28s12.17,11.42,16.53,14.86c1.65,1.3,10.57,2.83,11.61,3v0h.11l.89-.16.57-.1c2.88-.53,8.83-1.71,10.14-2.75,4.37-3.44,16.54-14.86,16.54-14.86a13.94,13.94,0,0,0,3.41-7.28l3.72-25.52.13-.9v-8s2.71-14.32,2.71-14.8C433,104.51,432.56,102.53,432.07,100.05Z"/><path class="cls-2" d="M394.92,145.9l4.23-1.6s.7-.38,1.54-.86c1.28-.72,2.89-1.64,2.89-1.68a5.08,5.08,0,0,1,.87.44L403,143l-1.6.84h2l2.61-2.08v-1.44H403.8l-7.07,2.47h-1.81Z"/><path class="cls-2" d="M394.92,145.9l-4.23-1.6-1.53-.86c-1.28-.72-2.9-1.64-2.9-1.68a5.08,5.08,0,0,0-.87.44l1.45.79,1.6.84h-2l-2.61-2.08v-1.44h2.18l7.07,2.47h1.8Z"/><path class="cls-2" d="M428.3,140.31l1.92-13.19s4.74-4.67,5.12-4.76.63,2,.63,2l-1.14,9.42-2.7,4.71Z"/><path class="cls-2" d="M361.35,141.33l-1.92-13.19s-4.74-4.66-5.12-4.75-.64,2-.64,2l1.15,9.43,2.69,4.7Z"/></g><g id="Calque_7" data-name="Calque 7"><path class="cls-3" d="M357.36,121.84s-.54-15.56.85-20.36c1.94-6.67,5.9-18.12,11.28-20.54,5.74-2.58,20.46,1.86,26.56,2,5.75.11,17.43-5.68,22.85-3.29,3.44,1.51,7.75,9.84,9.31,13.92,2.82,7.34,2,25.93,2,25.93v1.7a19.07,19.07,0,0,0,3.93-2.07c1.95-13.15,4.23-42.82-8.76-50.8-5.65-3.48-22-8.56-28-9.34s-18.51,1-24.7,2.49c-6.41,1.5-8.17,5.25-13.29,9.77-7.57,6.67-7.91,38.12-4.88,46.71Z"/></g></svg>