<svg xmlns="http://www.w3.org/2000/svg" viewBox="0 0 188 167.78"><defs><style>.cls-1{fill:#fa9980;}.cls-2{fill:#683b2f;}.cls-3{fill:#bc5848;}</style></defs><g id="Calque_9" data-name="Calque 9"><path class="cls-1" d="M60.53,101.6l-6-4-4.69,4,1,14.11s5.35,8.28,6,9.25,5.52,1.79,5.52,1.79l3.51-14.93Z"/><path class="cls-1" d="M128.91,101.6l7.06-4,3.64,4-1,14.11s-5.35,8.28-6,9.25-5.52,1.79-5.52,1.79l-3.51-14.93Z"/><path class="cls-1" d="M132.07,79.71A29.79,29.79,0,0,0,121.69,62.5L117.44,59a29.75,29.75,0,0,0-17-6.64L94.84,52h-.11l-5.63.36a29.75,29.75,0,0,0-17,6.64L67.87,62.5A29.76,29.76,0,0,0,57.51,79.71c-.5,2.48-.89,4.46-.89,4.63,0,.48,2.71,14.81,2.71,14.81v8l.16,1.07,3.69,25.35a13.87,13.87,0,0,0,3.41,7.27s12.17,11.42,16.53,14.87c1.65,1.29,10.57,2.82,11.61,3v0h.11v0l.89-.15.57-.11c2.88-.52,8.83-1.71,10.14-2.74C110.81,152.22,123,140.8,123,140.8a13.94,13.94,0,0,0,3.41-7.27L130.11,108l.13-.89v-8S133,84.82,133,84.34C133,84.17,132.56,82.19,132.07,79.71Z"/><path class="cls-2" d="M90.71,123.05l-4.93-2-.94.86s3.14,1.75,3.46,1.86,3.78,0,3.78,0Z"/><path class="cls-2" d="M98.32,123.05l4.93-2,1.56.86a18.72,18.72,0,0,1-2.06,1.73,8.79,8.79,0,0,1-1.48.13Z"/><path class="cls-3" d="M94.92,125.56,99.15,124l1.54-.86c1.28-.72,2.89-1.64,2.89-1.68s.87.43.87.43l-1.45.8-1.6.83h2l2.61-2.07V120H103.8l-7.07,2.47H94.92Z"/><path class="cls-3" d="M94.92,125.56,90.69,124l-1.53-.86c-1.28-.72-2.9-1.64-2.9-1.68s-.87.43-.87.43l1.45.8,1.6.83h-2l-2.61-2.07V120h2.18l7.07,2.47h1.8Z"/><path class="cls-3" d="M128.3,120l1.92-13.19s4.74-4.66,5.12-4.76.63,2,.63,2l-1.14,9.43-2.7,4.7Z"/><path class="cls-3" d="M61.35,121l-1.92-13.19s-4.74-4.67-5.12-4.76-.64,2-.64,2l1.15,9.43,2.69,4.7Z"/></g><g id="Calque_1" data-name="Calque 1"><polygon class="cls-1" points="123.42 130.73 69.02 130.73 68.96 122 70.54 122.12 95.58 124.07 121.8 122.07 121.84 120.43 123.25 120.66 123.42 130.73"/><path class="cls-1" d="M130.2,80.62c-1.36-6.76-5.08-18.08-10.43-22.44l-4.25-3.48a29.75,29.75,0,0,0-17-6.64l-5.63-.35h-.1l-5.63.35a29.75,29.75,0,0,0-17,6.64L66,58.18c-5.35,4.36-9,15.68-10.32,22.44-.5,2.48-.89,4.46-.89,4.64,0,.47,2.71,14.8,2.71,14.8v8l.16,1.08,3.69,25.34a13.87,13.87,0,0,0,3.41,7.27s12.17,11.43,16.53,14.87c1.65,1.29,10.57,2.83,11.62,3v0H93l.89-.16.57-.1c2.88-.53,8.83-1.72,10.14-2.75,4.37-3.44,16.54-14.87,16.54-14.87a13.94,13.94,0,0,0,3.41-7.27l3.72-25.52.13-.9v-8s2.71-14.33,2.71-14.8C131.08,85.08,130.69,83.1,130.2,80.62Z"/><path class="cls-1" d="M108.87,97.26l-5.52,3s-4.12-2.09-4.16-2.47-.48-7.57-.48-7.57a32.5,32.5,0,0,0,4.46-.6c.27-.08,10.34-2.16,11.35-2.38s11.33,3.32,11.82,3.39.57,4.52.66,4.77a12.12,12.12,0,0,1-1.08,2.39h-5.63l-3.07-3.92s-7.06-.16-7.51.52A11.82,11.82,0,0,0,108.87,97.26Z"/><path class="cls-1" d="M77.65,97.26l5.52,3s4.12-2.09,4.16-2.47.48-7.57.48-7.57a32.5,32.5,0,0,1-4.46-.6C83.08,89.57,73,87.49,72,87.27s-11.33,3.32-11.82,3.39-.57,4.52-.66,4.77a12.12,12.12,0,0,0,1.08,2.39h5.63l3.06-3.92s7.07-.16,7.52.52A11.82,11.82,0,0,1,77.65,97.26Z"/></g></svg>