<?xml version="1.0" encoding="utf-8"?>
<!-- Generator: Adobe Illustrator 26.0.2, SVG Export Plug-In . SVG Version: 6.00 Build 0)  -->
<svg version="1.1" id="Layer_1" xmlns="http://www.w3.org/2000/svg" xmlns:xlink="http://www.w3.org/1999/xlink" x="0px" y="0px"
	 viewBox="0 0 588 350.8" style="enable-background:new 0 0 588 350.8;" xml:space="preserve">
<style type="text/css">
	.st0{fill:#375D63;}
	.st1{fill:#D79072;}
	.st2{fill:#9C3A26;}
	.st3{fill:#295446;}
	.st4{fill:#F7A386;}
	.st5{fill:#873022;}
	.st6{fill:#AFAFAF;}
	.st7{fill:#898989;}
</style>
<g id="Calque_1">
	<path class="st0" d="M381.8,317.3c-23.3,2.5-44.5,10-69.8,18.3c0,0-11.5,0.5-10.8-0.1l-70.8-16.6l5.9-58.4
		c1.1-10.7,10.1-18.8,20.8-18.8H357c11,0,20.1,8.5,20.8,19.4L381.8,317.3z"/>
</g>
<g id="Calque_1_00000083085909953186230870000002510007503774626944_">
	<path class="st0" d="M381.8,317.2c-23.3,2.5-44.5,10-69.8,18.3c0,0-11.5,0.5-10.8-0.1l-70.8-16.6l5.9-58.4
		c1.1-10.7,10.1-18.8,20.8-18.8H357c11,0,20.1,8.5,20.8,19.4L381.8,317.2z"/>
</g>
<rect x="287.9" y="-0.1" class="st1" width="39.5" height="47.4"/>
<path class="st2" d="M368.1,216.4c0-0.1,6.6-68.9,6.7-80c0.9-0.3,0.3-0.1,1.1-0.4l55.5,59.6c6.9,7.4,18.6,8,26.2,1.2
	c7.4-6.6,8.3-17.8,2.1-25.6l-48.1-60c-0.1-0.1-0.1-0.2-0.2-0.3l-16.1-25.3c-3-4.8-7.4-8.5-12.6-10.7l-49.3-21.3
	c-1-0.4-1.6-1.3-1.7-2.4l-1.5-14c-0.2-1.5-1.4-2.6-2.9-2.6l-39.3-0.3c-1.5,0-2.7,1.1-2.9,2.5l-1.9,13.5c-0.1,1-0.8,1.9-1.7,2.3
	l-45.6,19.8c-8.7,3.8-14.9,11.6-16.5,20.9l-7,39.6l-13,67.1c-1.9,9.5,4.3,18.8,13.9,20.7c9.6,1.9,18.8-4.3,20.7-13.9
	c0-0.1,0.1-0.3,0.1-0.4l8.3-36.2c6.9-32.7,2.1,18.6,2.1,19.2c0,0,0.9,27.9,0.9,28"/>
<path class="st3" d="M245.2,217.3L220.3,337c-1.1,9.4,9.1,18.2,18.3,20.2c0,0,50.5,13.7,67.8,14.4c17.9,0.7,71-9.5,71-9.5
	c0.1,0,0.2,0,0.2,0c10-1.5,21-12,19.5-22l-29.1-123.7"/>
<path class="st2" d="M436,193c4,10.5,14.8,8.3,23.8,5.2c6.4-2.2,66.4-30.2,82.7-37.6c9.3-4.2,14.3-6.1,12.3-11.9
	c-1.8-5.2-17.2-1.8-21.3-1.3c-38.3,4.3-53.2,8.8-85.9,16.9C429.3,168.9,434.6,189.4,436,193z"/>
<path class="st4" d="M580.8,134c5.4,0.3,10.8,0.1,16.2-0.6c0,0-1.9,4.5-4.2,6c-1.8,1.1-12.2,2.9-12.2,2.9l0,0
	c27,10.6,54.8,23,57.2,24.9c1.7,1.3,3.2,7.6,3.2,7.6s-26.2-9.5-33.7-11.7c-25.5-7.4-44.7-7.8-59.2-4.7c-2.6,0.5-9.4-11.8-4.2-13.4
	c1.8-0.6,9-8,12.2-8.3C569,135.2,580.4,134,580.8,134z"/>
<path class="st2" d="M557.1,140.3l3,14.1c0.5,2.2-0.6,4.4-2.5,5.5l-2.9,1.6c-0.9,0.5-1.7,1.3-2.1,2.2l0,0c-0.9,1.9-2.9,3-4.9,2.8
	l-11.1-0.8c-0.8-0.1-1.6,0.1-2.3,0.4l-77.3,31.7c-0.3,0.1-0.6,0.2-0.9,0.3l-8.1,1.6c-9.2,1.8-18.4-3.7-21-12.8l0,0
	c-2.8-9.6,2.7-19.7,12.4-22.5c0.4-0.1,0.7-0.2,1.1-0.3l87.3-19.4c0.8-0.2,1.5-0.5,2.1-1c3-2.5,12.4-10.2,12.7-9.6
	c0.3,0.5,2.7,1.6,4.2,2.2c0.8,0.3,1.6,0.4,2.4,0.3l2.5-0.3C554.2,136.1,556.5,137.8,557.1,140.3z"/>
<path class="st3" d="M252.2,63.3l1.8-0.8c2.7-1.2,5.7,0.3,6.5,3l14.6,48.7c0.3,1.1-0.3,2.3-1.4,2.7l-4.6,1.6
	c-1.2,0.4-2.4-0.2-2.8-1.4l-16.7-48C248.7,66.9,249.9,64.3,252.2,63.3z"/>
<path class="st3" d="M372,68.3l-0.8-0.3c-2.9-1.3-6.3,0.3-7.3,3.4L349.7,119c-0.4,1.4,0.3,2.9,1.7,3.4l3.7,1.3
	c1.4,0.5,3-0.2,3.5-1.7l16.3-47C375.8,72.3,374.5,69.4,372,68.3z"/>
<circle class="st3" cx="273.4" cy="123" r="3.7"/>
<circle class="st3" cx="351.3" cy="128.2" r="3.7"/>
<path class="st3" d="M266.1,133.6l90.2,4.7c2.5,0.1,4.6,1.9,5.3,4.3l6.3,24.5c0.1,0.5,0.2,0.9,0.2,1.4v47.3H245.5l1.6-48.7
	c0-0.8,0.2-1.5,0.5-2.2l12.9-28C261.6,134.8,263.7,133.5,266.1,133.6z"/>
<path class="st3" d="M245.5,215.9"/>
<path class="st3" d="M276.9,137.6l-6.7-0.4c-1.5-0.1-2.6-1.4-2.5-2.9l0.1-2.2c0.1-1.5,1.4-2.6,2.9-2.5l6.7,0.4
	c1.5,0.1,2.6,1.4,2.5,2.9l-0.1,2.2C279.7,136.5,278.4,137.6,276.9,137.6z"/>
<path class="st3" d="M352,144l-7.5-1.1c-1.6-0.2-2.8-1.7-2.5-3.4l0.5-3.5c0.2-1.6,1.7-2.8,3.4-2.5l7.5,1.1c1.6,0.2,2.8,1.7,2.5,3.4
	l-0.5,3.5C355.1,143.1,353.6,144.3,352,144z"/>
<path class="st2" d="M276.1,154l-1.9,22.5l24.9,7.6c6.6,2,13.7,2.5,20.5,1.5l25.4-3.9l1-22.9L276.1,154z"/>
<path class="st5" d="M276.1,153.8l-2.3,11.1l34.4,6.3c1.4,0.3,2.9,0.3,4.3,0.2l34.1-3.5v-11.7L276.1,153.8z"/>
<path class="st5" d="M367.1,224.7H246.4c-1.2,0-2.1-0.9-2.1-2.1v-11.7c0-1.2,0.9-2.1,2.1-2.1h120.7c1.2,0,2.1,0.9,2.1,2.1v11.7
	C369.2,223.8,368.2,224.7,367.1,224.7z"/>
<path class="st5" d="M238.2,216.8c0,0-20.8,58.2-15.4,63.8c5.4,5.6,59.2,11.7,63.9,8.1c4.7-3.6,10.7-67.7,10.7-67.7L238.2,216.8z"/>
<path class="st6" d="M264.4,241.7l-3.6,0.5c-1.1,0.1-2.1-0.6-2.2-1.7l-6.1-45.1c-0.1-1.1,0.6-2.1,1.7-2.2l3.6-0.5
	c1.1-0.1,2.1,0.6,2.2,1.7l6.1,45.1C266.3,240.5,265.5,241.5,264.4,241.7z"/>
<path class="st6" d="M268.6,242.1L268.6,242.1c-1.1,0-2-0.9-2-2v-35.6c0-1.1,0.9-2,2-2l0,0c1.1,0,2,0.9,2,2v35.6
	C270.5,241.2,269.7,242.1,268.6,242.1z"/>
<path class="st6" d="M274.2,241.9l-1.6-0.4c-1.1-0.3-1.7-1.3-1.5-2.4l5.8-24.3c0.3-1.1,1.3-1.7,2.4-1.5l1.6,0.4
	c1.1,0.3,1.7,1.3,1.5,2.4l-5.8,24.3C276.3,241.5,275.2,242.2,274.2,241.9z"/>
<path class="st2" d="M238.7,221c0,0-20.4,56.4-12.4,58.5s49.1,10.5,54.6,6.4c5.4-4.1,4.3-60.6,4.3-60.6L238.7,221z"/>
<path class="st7" d="M242.5,224.7l38.1-91.1c0.3-0.8,0.4-1.6,0.2-2.4l-3.7-17.1c-0.2-1-0.1-2,0.4-2.8l9.4-16.6
	c0.6-1.1,1.8-1.9,3.1-2l14-1.5c1.3-0.1,2.7,0.4,3.5,1.4l5.3,6.3c1.9,2.2,0.8,5.7-2,6.4v0c-1.4,0.4-2.9,0-3.9-1l-2.7-2.7
	c-0.9-0.8-2.1-1.3-3.3-1.1l-5.6,0.7c-1.1,0.1-2.1,0.7-2.8,1.6l-6.5,8.8c-0.7,0.9-0.9,2-0.7,3.1l2.4,13.1c0,0.2,0.1,0.4,0.1,0.6l0,1
	c0.1,3.6,4.6,5.3,7,2.5l2.9-3.2c0.6-0.7,1.5-1.2,2.4-1.3l4.6-0.7c3.8-0.6,6.1,4,3.5,6.7L297.5,145c-0.6,0.7-1,1.6-1.1,2.5l-5.5,89.6
	c-0.1,2.3-2.2,4-4.5,3.7l-0.9-0.1c-2.1-0.3-3.7-2.2-3.5-4.3l6.4-78.5c0.1-1-0.2-1.9-0.7-2.7l-0.5-0.7c-1.9-2.6-5.9-2.1-7,0.9
	L252,229c-0.9,2.4-3.8,3.3-5.9,2l-2.1-1.3C242.4,228.6,241.7,226.5,242.5,224.7z"/>
<g>
	<path class="st2" d="M229.8,219.7l72.4-57l-31.1,2.2c0,0-48.3,15.1-50.4,16.8s-11.8,9.2-11.8,9.2l-1.2,1.3c-5.8,6.4-6.3,16-1.3,23
		l0,0c5,7,14.4,9.2,22,5.2L229.8,219.7z"/>
	<path class="st4" d="M257,195.3c-4.3-3.9-6.6-17.6-4.3-22.9c1-2.2,8.5-5.2,8.5-5.2l6-2.6c1.4-0.6,2.7-1.7,3.5-3l4.5-7.1
		c0.3-0.5,0.7-1,1.1-1.4l4.4-4.4c1.4-1.4,3.3-2.2,5.3-2.3l10.7-0.5c4.3-0.2,7.9,3,8.3,7.2l1.7,18c0.3,2.8-1,5.6-3.3,7.3l-15,10.6
		c-1.7,1.2-3.7,1.7-5.7,1.4l-7-1c-1.7-0.2-3.5,0.1-5,0.9l-7.9,4.4C262.8,194.8,259,197.1,257,195.3z"/>
	<path class="st4" d="M267.4,166l6.1-18.8c0.1-0.3,0.3-0.5,0.5-0.8h0c1.1-1.1,2.9-0.4,3.2,1.1l0.8,5.5c0.1,0.5-0.1,1.1-0.4,1.5
		L267.4,166z"/>
</g>
</svg>
