<?xml version="1.0" encoding="utf-8"?>
<!-- Generator: Adobe Illustrator 26.0.2, SVG Export Plug-In . SVG Version: 6.00 Build 0)  -->
<svg version="1.1" id="Calque_1" xmlns="http://www.w3.org/2000/svg" xmlns:xlink="http://www.w3.org/1999/xlink" x="0px" y="0px"
	 viewBox="0 0 788 1005.1" style="enable-background:new 0 0 788 1005.1;" xml:space="preserve">
<style type="text/css">
	.st0{fill:#375D63;}
	.st1{fill:#F7A386;}
	.st2{fill:#D79072;}
	.st3{fill:#D39844;}
	.st4{fill:#A92AC4;}
	.st5{fill:none;stroke:#A92AC4;stroke-width:2;stroke-linecap:round;stroke-miterlimit:10;}
	.st6{fill:none;stroke:#A92AC4;stroke-width:2;stroke-linecap:round;stroke-miterlimit:10;stroke-dasharray:0.9934,2.9802;}
	.st7{fill:none;stroke:#A92AC4;stroke-miterlimit:10;}
</style>
<path class="st0" d="M481.8,486.8c-23.3,2.5-44.5,10-69.8,18.3c0,0-11.5,0.5-10.8-0.1l-70.8-16.6l5.9-58.4
	c1.1-10.7,10.1-18.8,20.8-18.8H457c11,0,20.1,8.5,20.8,19.4L481.8,486.8z"/>
<path class="st1" d="M280.2,233.1c2.8-0.2,5.2-2,6.2-4.6c2.2-6,4.9-16.1,5.8-17.7c1.3-2.3,13.6-26.7,12.3-26.9
	c-0.8-0.1-3.2,0.4-5.2,0.9c-1.8,0.4-3.3,1.5-4.3,3v0c-3.4,5.1-11.2,3.9-12.9-2l-3.7-13c0,0-9.1-36-10.2-34.8
	c-0.9,0.8-1.8,1.5-2.7,2.2c-2.1,1.6-3.1,4.3-2.6,6.9l4.7,25.2c0.3,1.8,0,3.6-1,5.2l-13,20.4c-1.1,1.8-1.4,4-0.8,6
	c1.9,6.1,6.2,19.1,8,21.6c0.7,1,5.1,9.1,8.9,8.6C271.1,233.8,276.4,233.4,280.2,233.1z"/>
<rect x="386.4" y="169.5" class="st2" width="39.5" height="47.4"/>
<path class="st3" d="M506.2,466.2l-12.7-6.8c-2-1.1-3-3.3-2.6-5.5l0.7-3.3c0.2-1,0.1-2.1-0.3-3.1l0,0c-0.8-1.9-0.4-4.1,1-5.6
	l7.8-7.9c0.5-0.6,1-1.2,1.2-2l25.9-79.4c0.1-0.3,0.2-0.6,0.4-0.9l4.1-7.2c4.6-8.2,14.7-11.6,23.3-7.7l0,0c9.2,4.1,13.2,14.9,9.1,24
	c-0.1,0.3-0.3,0.7-0.5,1l-41.7,79.2c-0.4,0.7-0.6,1.5-0.6,2.3c0,3.9-0.2,16-0.9,15.9c-0.6-0.1-2.9,1.1-4.4,1.8
	c-0.7,0.4-1.4,0.9-1.8,1.6l-1.4,2C511.3,466.7,508.4,467.4,506.2,466.2z"/>
<path class="st3" d="M251.8,346.9l12.3-91.3c0.1-0.6,0-1.2-0.3-1.7l-3.9-6.6c-0.4-0.7-0.5-1.5-0.2-2.2l3.1-8.1
	c0.3-0.7,0.9-1.3,1.6-1.5l20.8-6.5c1.5-0.5,3,0.5,3.3,2l1.2,7.1c0.1,0.7,0.6,1.4,1.2,1.8l0,0c1.1,0.7,1.5,2,1,3.1l-5.6,14
	c-0.1,0.3-0.2,0.7-0.2,1.1c0.3,6.8,3.4,74.6,3,77.3c-0.4,2.6-1.3,13.2-1.5,14.8c0,0.2,0,0.3-0.1,0.4l-0.4,1.5
	c-2.3,8.4-10.3,13.9-18.9,13.1l0,0c-8.7-0.8-15.6-7.8-16.3-16.5l-0.1-1.3C251.8,347.3,251.8,347.1,251.8,346.9z"/>
<path class="st4" d="M559.7,340.7l-48.2-60.1l-14.4-22.7c-4.2-6.5-10.2-11.7-17.3-14.7l-47.9-20.7l-1.5-14c-0.3-2.5-2.3-4.3-4.8-4.3
	l-35.9-0.3c-2.4,0-4.5,1.8-4.9,4.2l-1.9,13.5l-49.6,21.4c-7.4,3.2-13.6,8.7-17.8,15.6l-15,24.9l-43.6,52.7
	c-6.2,7.5-5.2,18.6,2.3,24.8c7.5,6.2,18.6,5.2,24.9-2.3c0.1-0.1,0.2-0.2,0.2-0.3l54.7-58.2l0.7,78.4L319.2,519
	c-1.1,9.4,10.1,5.8,19.3,7.8c0,0,50.5,13.7,67.8,14.4c17.9,0.7,71-9.5,71-9.5c0.1,0,0.2,0,0.2,0c10-1.5,25.3,1.4,23.9-8.6L474.2,383
	l0.6-78.6l56.7,60.8c6.9,7.4,18.6,8,26.2,1.2C565,359.6,565.9,348.4,559.7,340.7z"/>
<path class="st1" d="M465.9,478.3c0.7-3,12-13.3,12.9-13.3s15-5.7,16-6.3s16.4,5.6,16.2,6.4s-5.7,25.1-7.1,26.1s-5.7,6.6-6.6,6.6
	c-0.6,0-9.8-2.5-16.1-4.3c-3.9-1.1-7.3-3.4-9.7-6.6C468.8,483.3,465.4,480.4,465.9,478.3z"/>
<path class="st3" d="M431.2,227.4h-47.3c-3.8,0-6.8-3.1-6.8-6.8v-16.8c0-3.8,3.1-6.8,6.8-6.8h47.3c3.8,0,6.8,3.1,6.8,6.8v16.8
	C438,224.3,434.9,227.4,431.2,227.4z"/>
<path class="st3" d="M470.4,399.6H344.7c-9.9,0-18-8.1-18-18v-8.8c0-9.9,8.1-18,18-18h125.7c9.9,0,18,8.1,18,18v8.8
	C488.4,391.5,480.3,399.6,470.4,399.6z"/>
<path class="st3" d="M477.5,364.3H335.9c-6.6,0-12-5.4-12-12v-10.5c0-6.6,5.4-12,12-12h141.7c6.6,0,12,5.4,12,12v10.5
	C489.5,358.9,484.1,364.3,477.5,364.3z"/>
<path class="st3" d="M470.8,339.4H341.4c-6.6,0-12-5.4-12-12v-7.9c0-6.6,5.4-12,12-12h129.4c6.6,0,12,5.4,12,12v7.9
	C482.8,334,477.4,339.4,470.8,339.4z"/>
<path class="st3" d="M325.8,311.8l-29.7-20.3c-3.5-2.4-4.5-7.3-2-10.9l2.9-4.2c2.4-3.5,7.3-4.5,10.9-2l29.7,20.3
	c3.5,2.4,4.5,7.3,2,10.9l-2.9,4.2C334.2,313.3,329.3,314.2,325.8,311.8z"/>
<path class="st3" d="M313.6,326.2l-29.7-20.3c-3.5-2.4-4.5-7.3-2-10.9l2.9-4.2c2.4-3.5,7.3-4.5,10.9-2l29.7,20.3
	c3.5,2.4,4.5,7.3,2,10.9l-2.9,4.2C322,327.7,317.1,328.7,313.6,326.2z"/>
<path class="st3" d="M301.7,342.2L272,321.9c-3.5-2.4-4.5-7.3-2-10.9l2.9-4.2c2.4-3.5,7.3-4.5,10.9-2l29.7,20.3
	c3.5,2.4,4.5,7.3,2,10.9l-2.9,4.2C310.1,343.7,305.2,344.6,301.7,342.2z"/>
<path class="st3" d="M290.8,358.1l-29.7-20.3c-3.5-2.4-4.5-7.3-2-10.9l2.9-4.2c2.4-3.5,7.3-4.5,10.9-2l29.7,20.3
	c3.5,2.4,4.5,7.3,2,10.9l-2.9,4.2C299.2,359.7,294.3,360.6,290.8,358.1z"/>
<path class="st3" d="M277.6,365.8l-29.7-20.3c-3.5-2.4-4.5-7.3-2-10.9l2.9-4.2c2.4-3.5,7.3-4.5,10.9-2l29.7,20.3
	c3.5,2.4,4.5,7.3,2,10.9l-2.9,4.2C286,367.3,281.1,368.2,277.6,365.8z"/>
<path class="st3" d="M289.3,335.1l-35.9-2.8c-4.3-0.3-7.5-4.1-7.2-8.4l0.4-5.1c0.3-4.3,4.1-7.5,8.4-7.2l35.9,2.8
	c4.3,0.3,7.5,4.1,7.2,8.4l-0.4,5.1C297.4,332.2,293.6,335.4,289.3,335.1z"/>
<path class="st3" d="M279.2,316.5l-24.3-1.9c-4.3-0.3-7.5-4.1-7.2-8.4l0.4-5.1c0.3-4.3,4.1-7.5,8.4-7.2l24.3,1.9
	c4.3,0.3,7.5,4.1,7.2,8.4l-0.4,5.1C287.3,313.6,283.5,316.8,279.2,316.5z"/>
<path class="st3" d="M281.6,300.6l-25.1-2c-4.3-0.3-7.5-4.1-7.2-8.4l0.4-5.1c0.3-4.3,4.1-7.5,8.4-7.2l25.1,2
	c4.3,0.3,7.5,4.1,7.2,8.4l-0.4,5.1C289.7,297.7,285.9,300.9,281.6,300.6z"/>
<path class="st3" d="M281.9,284l-21-1.7c-4.3-0.3-7.5-4.1-7.2-8.4l0.4-5.1c0.3-4.3,4.1-7.5,8.4-7.2l21,1.7c4.3,0.3,7.5,4.1,7.2,8.4
	l-0.4,5.1C290,281.1,286.2,284.3,281.9,284z"/>
<path class="st3" d="M282.3,268.8l-18.7-1.5c-4.9-0.4-8.6-4.7-8.2-9.6l0.2-2.9c0.4-4.9,4.7-8.6,9.6-8.2l18.7,1.5
	c4.9,0.4,8.6,4.7,8.2,9.6l-0.2,2.9C291.5,265.5,287.2,269.2,282.3,268.8z"/>
<path class="st3" d="M264.5,370.9l-16.5-11.3c-3.5-2.4-4.5-7.3-2-10.9v0c2.4-3.5,7.3-4.5,10.9-2l16.5,11.3c3.5,2.4,4.5,7.3,2,10.9v0
	C272.9,372.4,268,373.3,264.5,370.9z"/>
<path class="st3" d="M337.7,295.4L308,275.1c-3.5-2.4-4.5-7.3-2-10.9l2.9-4.2c2.4-3.5,7.3-4.5,10.9-2l29.7,20.3
	c3.5,2.4,4.5,7.3,2,10.9l-2.9,4.2C346.1,296.9,341.2,297.8,337.7,295.4z"/>
<path class="st3" d="M348.8,279.2l-29.7-20.3c-3.5-2.4-4.5-7.3-2-10.9l2.9-4.2c2.4-3.5,7.3-4.5,10.9-2l29.7,20.3
	c3.5,2.4,4.5,7.3,2,10.9l-2.9,4.2C357.2,280.7,352.3,281.6,348.8,279.2z"/>
<path class="st3" d="M346.8,276.6l-15-32.7c-1.8-3.9-0.1-8.6,3.8-10.4l4.6-2.1c3.9-1.8,8.6-0.1,10.4,3.8l15,32.7
	c1.8,3.9,0.1,8.6-3.8,10.4l-4.6,2.1C353.3,282.2,348.6,280.5,346.8,276.6z"/>
<path class="st3" d="M364.5,270.1l-15-32.7c-1.8-3.9-0.1-8.6,3.8-10.4l4.6-2.1c3.9-1.8,8.6-0.1,10.4,3.8l15,32.7
	c1.8,3.9,0.1,8.6-3.8,10.4l-4.6,2.1C370.9,275.8,366.3,274,364.5,270.1z"/>
<path class="st3" d="M382.1,262.5l-15-32.7c-1.8-3.9-0.1-8.6,3.8-10.4l4.6-2.1c3.9-1.8,8.6-0.1,10.4,3.8l15,32.7
	c1.8,3.9,0.1,8.6-3.8,10.4l-4.6,2.1C388.6,268.2,383.9,266.4,382.1,262.5z"/>
<path class="st3" d="M489.1,316.5l29.7-20.3c3.5-2.4,4.5-7.3,2-10.9l-2.9-4.2c-2.4-3.5-7.3-4.5-10.9-2l-29.7,20.3
	c-3.5,2.4-4.5,7.3-2,10.9l2.9,4.2C480.7,318,485.6,319,489.1,316.5z"/>
<path class="st3" d="M501.3,331l29.7-20.3c3.5-2.4,4.5-7.3,2-10.9l-2.9-4.2c-2.4-3.5-7.3-4.5-10.9-2l-29.7,20.3
	c-3.5,2.4-4.5,7.3-2,10.9l2.9,4.2C492.9,332.5,497.8,333.4,501.3,331z"/>
<path class="st3" d="M510.1,343.8l29.7-20.3c3.5-2.4,4.5-7.3,2-10.9l-2.9-4.2c-2.4-3.5-7.3-4.5-10.9-2l-29.7,20.3
	c-3.5,2.4-4.5,7.3-2,10.9l2.9,4.2C501.6,345.3,506.5,346.2,510.1,343.8z"/>
<path class="st3" d="M518.7,353.9l29.7-20.3c3.5-2.4,4.5-7.3,2-10.9l-2.9-4.2c-2.4-3.5-7.3-4.5-10.9-2L507,336.7
	c-3.5,2.4-4.5,7.3-2,10.9l2.9,4.2C510.3,355.4,515.2,356.3,518.7,353.9z"/>
<path class="st3" d="M530.7,368.7l29.7-20.3c3.5-2.4,4.5-7.3,2-10.9l-2.9-4.2c-2.4-3.5-7.3-4.5-10.9-2L519,351.5
	c-3.5,2.4-4.5,7.3-2,10.9l2.9,4.2C522.3,370.2,527.2,371.1,530.7,368.7z"/>
<path class="st3" d="M530.1,374.5l34.4-10.5c4.1-1.2,6.5-5.6,5.2-9.8l-1.5-4.9c-1.2-4.1-5.6-6.5-9.8-5.2L524,354.6
	c-4.1,1.2-6.5,5.6-5.2,9.8l1.5,4.9C521.6,373.4,525.9,375.7,530.1,374.5z"/>
<path class="st3" d="M525.2,379.8l27.7,2.2c4.3,0.3,8.1-2.9,8.4-7.2l0.4-5.1c0.3-4.3-2.9-8.1-7.2-8.4l-27.7-2.2
	c-4.3-0.3-8.1,2.9-8.4,7.2l-0.4,5.1C517.6,375.7,520.9,379.4,525.2,379.8z"/>
<path class="st3" d="M517.1,393.1l27.9,6.6c4.2,1,8.4-1.6,9.4-5.8l1.2-5c1-4.2-1.6-8.4-5.8-9.4l-27.9-6.6c-4.2-1-8.4,1.6-9.4,5.8
	l-1.2,5C510.3,387.8,512.9,392.1,517.1,393.1z"/>
<path class="st3" d="M509.5,404.8l27.7,12.7c3.9,1.8,8.6,0.1,10.4-3.8l2.1-4.6c1.8-3.9,0.1-8.6-3.8-10.4l-27.7-12.7
	c-3.9-1.8-8.6-0.1-10.4,3.8l-2.1,4.6C503.9,398.3,505.6,403,509.5,404.8z"/>
<path class="st3" d="M504.5,420.7l24,11c3.9,1.8,8.6,0.1,10.4-3.8l2.1-4.6c1.8-3.9,0.1-8.6-3.8-10.4l-24-11
	c-3.9-1.8-8.6-0.1-10.4,3.8l-2.1,4.6C498.9,414.2,500.6,418.9,504.5,420.7z"/>
<path class="st3" d="M502.2,434.3l17.5,8c3.9,1.8,8.6,0.1,10.4-3.8l2.1-4.6c1.8-3.9,0.1-8.6-3.8-10.4l-17.5-8
	c-3.9-1.8-8.6-0.1-10.4,3.8l-2.1,4.6C496.5,427.8,498.3,432.5,502.2,434.3z"/>
<path class="st3" d="M477.2,300.2l29.7-20.3c3.5-2.4,4.5-7.3,2-10.9l-2.9-4.2c-2.4-3.5-7.3-4.5-10.9-2L465.5,283
	c-3.5,2.4-4.5,7.3-2,10.9l2.9,4.2C468.8,301.7,473.7,302.6,477.2,300.2z"/>
<path class="st3" d="M466.1,283.9l29.7-20.3c3.5-2.4,4.5-7.3,2-10.9l-2.9-4.2c-2.4-3.5-7.3-4.5-10.9-2l-29.7,20.3
	c-3.5,2.4-4.5,7.3-2,10.9l2.9,4.2C457.7,285.4,462.6,286.4,466.1,283.9z"/>
<path class="st3" d="M468.1,281.4l15-32.7c1.8-3.9,0.1-8.6-3.8-10.4l-4.6-2.1c-3.9-1.8-8.6-0.1-10.4,3.8l-15,32.7
	c-1.8,3.9-0.1,8.6,3.8,10.4l4.6,2.1C461.6,287,466.3,285.3,468.1,281.4z"/>
<path class="st3" d="M450.4,274.9l15-32.7c1.8-3.9,0.1-8.6-3.8-10.4l-4.6-2.1c-3.9-1.8-8.6-0.1-10.4,3.8l-15,32.7
	c-1.8,3.9-0.1,8.6,3.8,10.4l4.6,2.1C444,280.5,448.6,278.8,450.4,274.9z"/>
<path class="st3" d="M432.8,267.3l15-32.7c1.8-3.9,0.1-8.6-3.8-10.4l-4.6-2.1c-3.9-1.8-8.6-0.1-10.4,3.8l-15,32.7
	c-1.8,3.9-0.1,8.6,3.8,10.4l4.6,2.1C426.3,272.9,431,271.2,432.8,267.3z"/>
<path class="st3" d="M471.4,317.6H342c-6.6,0-12-5.4-12-12v-7.9c0-6.6,5.4-12,12-12h129.4c6.6,0,12,5.4,12,12v7.9
	C483.4,312.2,478,317.6,471.4,317.6z"/>
<path class="st3" d="M470.8,292.6H341.4c-6.6,0-12-5.4-12-12v-7.9c0-6.6,5.4-12,12-12h129.4c6.6,0,12,5.4,12,12v7.9
	C482.8,287.2,477.4,292.6,470.8,292.6z"/>
<path class="st3" d="M471.4,272.5H342c-6.6,0-12-5.4-12-12v-7.9c0-6.6,5.4-12,12-12h129.4c6.6,0,12,5.4,12,12v7.9
	C483.4,267.1,478,272.5,471.4,272.5z"/>
<path class="st3" d="M428.4,257.8H385c-6.6,0-12-5.4-12-12v-7.9c0-6.6,5.4-12,12-12h43.3c6.6,0,12,5.4,12,12v7.9
	C440.4,252.4,435,257.8,428.4,257.8z"/>
<g>
	<g>
		<line class="st5" x1="407.5" y1="196.9" x2="407.5" y2="197.4"/>
		<line class="st6" x1="407.5" y1="200.4" x2="407.5" y2="397.6"/>
		<line class="st5" x1="407.5" y1="399.1" x2="407.5" y2="399.6"/>
	</g>
</g>
<g>
	<path class="st7" d="M409.1,198.8H406v-1.5c0-0.9,0.7-1.6,1.6-1.6l0,0c0.9,0,1.6,0.7,1.6,1.6V198.8z"/>
	<path class="st7" d="M409.5,204.6h-3.4c-0.8,0-1.5-0.8-1.2-1.6l1.2-4.1h3.1l1.6,4C411,203.7,410.4,204.6,409.5,204.6z"/>
</g>
</svg>
