<?xml version="1.0" encoding="utf-8"?>
<!-- Generator: Adobe Illustrator 26.0.2, SVG Export Plug-In . SVG Version: 6.00 Build 0)  -->
<svg version="1.1" id="Calque_1" xmlns="http://www.w3.org/2000/svg" xmlns:xlink="http://www.w3.org/1999/xlink" x="0px" y="0px"
	 viewBox="0 0 588 350.8" style="enable-background:new 0 0 588 350.8;" xml:space="preserve">
<style type="text/css">
	.st0{fill:#D79072;}
	.st1{fill:#F7A386;}
	.st2{fill:#A04558;}
	.st3{fill:#375D63;}
	.st4{fill:#B14A5D;}
	.st5{fill:#DD959D;}
</style>
<g>
	<rect x="276.3" y="1.2" class="st0" width="39.5" height="85.6"/>
	<path class="st0" d="M276.3,24.4c0,0-0.3,37.4-15.2,41.2c-14.9,3.8,75.7,2,75.7,2s-20,5.6-21-43.2S276.3,24.4,276.3,24.4z"/>
</g>
<path class="st1" d="M448.1,172.4l-48.2-60.1l-11.1-17.4c-6.4-10-15.6-17.8-26.4-22.5l-42.1-18.2c0,0-3.5-6.4-4.4-25.2
	c-4.7,11.5-44.6,24.2-44.6,24.2L227.7,72c-11.3,4.9-20.8,13.2-27.2,23.8l-11.6,19.3l-43.6,52.7c-6.2,7.5-5.2,18.6,2.3,24.8
	c7.5,6.2,18.6,5.2,24.9-2.3c0.1-0.1,0.2-0.2,0.2-0.3l54.7-58.2l0.7,78.4l-15.4,128.2c-1.1,9.4,5.1,18,14.3,20
	c0,0,50.5,13.7,67.8,14.4c17.9,0.7,71-9.5,71-9.5c0.1,0,0.2,0,0.2,0c10-1.5,16.8-10.7,15.4-20.7l-18.8-128l0.6-78.6l56.7,60.8
	c6.9,7.4,18.6,8,26.2,1.2C453.4,191.3,454.4,180.1,448.1,172.4z"/>
<path class="st2" d="M151.4,158.1c0,0-8.6,53.4,9.7,59.1C161.1,217.2,181,177.5,151.4,158.1z"/>
<path class="st2" d="M454.9,171.1c0,0,3.9,43.1-14.5,48.7C440.4,219.8,425.2,190.4,454.9,171.1z"/>
<path class="st3" d="M370.2,318.5c-23.3,2.5-44.5,10-69.8,18.3c0,0-11.5,0.5-10.8-0.1l-70.8-16.6l5.9-58.4
	c1.1-10.7,10.1-18.8,20.8-18.8h99.9c11,0,20.1,8.5,20.8,19.4L370.2,318.5z"/>
<polyline class="st1" points="497.4,132.6 522.5,99.5 505.7,90.1 482.7,115.4 "/>
<path class="st4" d="M448.1,172.4l-48.2-60.1l-11.1-17.4c-6.4-10-15.6-17.8-26.4-22.5l-10-4.3l-54.3,56.6l-54.4-59.6L227.6,72
	c-11.3,4.9-20.8,13.2-27.2,23.8l-11.6,19.3l-43.6,52.7c-6.2,7.5-5.2,18.6,2.3,24.8c7.5,6.2,18.6,5.2,24.9-2.3
	c0.1-0.1,0.2-0.2,0.2-0.3l54.7-58.2l0.7,78.4l-15.4,128.2c-1.1,9.4,5.1,18,14.3,20c0,0,50.5,13.7,67.8,14.4c17.9,0.7,71-9.5,71-9.5
	c0.1,0,0.2,0,0.2,0c10-1.5,16.8-10.7,15.4-20.7l-18.8-128l0.6-78.6l56.7,60.8c6.9,7.4,18.6,8,26.2,1.2
	C453.4,191.3,454.4,180.1,448.1,172.4z"/>
<path class="st1" d="M65.8,95.7l12.6-9l21.1,20l0,0l62.5,58l5.2,7.1c5.5,7.6,4.3,18.2-2.8,24.4l0,0c-7.6,6.6-19,5.8-25.6-1.7
	c-0.3-0.3-0.5-0.6-0.7-0.9L85,118.3L65.8,95.7z"/>
<path class="st1" d="M69,96.1c2.4-1.7,5.9-4.4,7.4-5.6c0.5-0.4,0.9-0.9,1.1-1.5l6.3-16c0.1-0.3,0.2-0.7,0.2-1.1
	c0.1-1.4,0.4-5.3,0.3-6.9c-0.1-1.6,0.2-11.7,0.3-14.5c0-0.5,0.1-1,0.3-1.4l2.6-5.4c1.1-2.4-0.7-5.1-3.3-5H84c-1.2,0-2.2,0.7-2.9,1.7
	l-3.1,5c-0.2,0.3-0.3,0.6-0.4,0.9l-3.1,10.4L67,47.1c-0.7-0.9-1.9-1.4-3.1-1.3L57,46.5c-1,0.1-1.9,0.6-2.5,1.4l-13,17
	c-0.8,1-0.9,2.4-0.4,3.6l6.4,14.6c0.3,0.6,0.7,1.1,1.2,1.5L65,96.2C66.2,96.9,67.8,97,69,96.1z"/>
<path class="st1" d="M516.2,103.2c-2.5-1.6-6.4-4.5-7.9-5.7c-0.4-0.3-0.8-0.7-1-1.2l-6.9-16c-0.1-0.3-0.2-0.6-0.2-0.9
	c-0.1-1.4-0.5-5.4-0.5-6.9c0-1.7-0.5-11.9-0.7-14.6c0-0.4-0.1-0.8-0.3-1.2l-3.2-6.2c-1-2,0.5-4.4,2.7-4.4h1.4c1,0,1.9,0.5,2.5,1.4
	l3.4,5.2c0.1,0.2,0.3,0.5,0.3,0.7l3.4,10.3l7.4-10c0.6-0.8,1.6-1.3,2.6-1.2l7.4,0.5c0.8,0.1,1.6,0.5,2.1,1.1l13.8,17
	c0.7,0.9,0.9,2,0.5,3L537,89.3c-0.2,0.5-0.5,1-1,1.3L519.5,103C518.8,103.8,517.4,103.9,516.2,103.2z"/>
<path class="st4" d="M154,157.3c0,0,15,41.6,7.1,59.9c1.1,6.4,66.3-85.3,66.3-85.3"/>
<path class="st1" d="M487.2,110.5l-61.1,59.6l-5,7.3c-5.3,7.8-3.8,18.4,3.5,24.3l0,0c7.7,6.4,19.2,5.3,25.6-2.5
	c0.2-0.3,0.5-0.6,0.7-0.9l52.8-73.9"/>
<path class="st4" d="M437.4,159c0,0-4.9,42.4,3,60.8c-1.1,6.4-61.5-75-61.5-75"/>
<path class="st5" d="M227.9,133.6l15.8-68.5l54.4,59.6L352.3,68l10.9,68L313,151.5l28.5,229.4c0.2,1.8-0.9,3.4-2.6,3.8l-38.5,9.6
	c-0.6,0.1-1.2,0.1-1.8,0l-34.3-9.6c-1.7-0.5-2.7-2.1-2.5-3.8l25.9-228.2L227.9,133.6z"/>
</svg>
