<svg xmlns="http://www.w3.org/2000/svg" viewBox="0 0 788 1005.07"><defs><style>.cls-1{fill:#375d63;}.cls-2{fill:#d79072;}.cls-3{fill:#8f2727;}.cls-4{fill:#f7a386;}.cls-5{fill:#d39844;}</style></defs><g id="Calque_1" data-name="Calque 1"><path class="cls-1" d="M481.83,486.82c-23.32,2.48-44.51,10-69.8,18.32,0,0-11.55.45-10.77-.15l-70.83-16.58L336.35,430a20.89,20.89,0,0,1,20.78-18.78H457a20.88,20.88,0,0,1,20.83,19.41Z"/></g><g id="Calque_3" data-name="Calque 3"><rect class="cls-2" x="387.89" y="169.5" width="39.52" height="47.38"/><path class="cls-3" d="M490.67,247.88c0,3-15.85,53.5-15.85,56.47s-.63,78.61-.63,78.61L493,511a18.22,18.22,0,0,1-15.62,20.71s-53.09,10.13-71,9.45c-17.32-.66-67.82-14.38-67.82-14.38a18.23,18.23,0,0,1-14.31-20l15.43-128.21L339,300.15l-17.14-52.27,61-26.38,2.51-17.68,44.49.36,2,18.31Z"/><path class="cls-4" d="M549.31,336.51h0l-82.84-48v0c-10.57-6.13-13.94-19.84-7.53-30.63s20.22-14.55,30.79-8.42l.47.29,79.35,60.23c7.87,6.15,9.76,15.41,5,21.87C569.24,339.09,561.65,344,549.31,336.51Z"/><path class="cls-4" d="M612.56,224.8,622,208.44l18.64-18.14s3,4.22,2.81,5.82c-.49,5-5.6,11.31-8.56,15.43-.39.54-.64,3.62-.23,4.16,1.68,2.2,7.05-.11,7.05-.11L627.55,228Z"/><path class="cls-4" d="M615.87,221.51,624,239.18l39.1-14.13,33.28-28.88s-4.9-3.7-6.85-3.72c-10.15-.09-26.74,14.46-35.93,18.75C643.68,215.82,615.87,221.51,615.87,221.51Z"/><ellipse class="cls-4" cx="618.72" cy="231.07" rx="9.23" ry="9.27" transform="translate(25.89 522.21) rotate(-46.63)"/><path class="cls-4" d="M549.62,335.72c-10.45-6.64-12.33-18.79-6.08-29.33.13-.22,3.36-4.63,3.36-4.63l62.7-72.55s4.13-6.47,11.34-1.63c6.48,4.34,1.75,11.63,1.75,11.63l-38.9,81.23c-4.49,9.38-10.84,17.65-21.09,19.36C558.54,340.49,552.88,337.8,549.62,335.72Z"/><path class="cls-4" d="M583.43,331.89l-.11-.06c.13-.2.27-.39.39-.59a1.19,1.19,0,0,0,.09-.15Z"/><path class="cls-4" d="M283.78,366.16a.06.06,0,0,0,0,0h0L312.65,264h0c3.69-13,17.49-20.4,30.82-16.47s21.17,17.72,17.48,30.76q-.08.29-.18.57s-42.93,101.71-42.94,101.72c-4.44,10.14-13.87,14.71-22.1,11.4C286.48,388.26,279.12,381.46,283.78,366.16Z"/><path class="cls-4" d="M415.9,400.29l20.08-4,28.12,2.18s-1.31,5.44-2.73,6.46c-4.47,3.22-16.45,1.12-21.92,1.66-.72.07-2.41.7-2.55,1.42-.59,2.94,7.36,9.46,7.36,9.46L424,414.81Z"/><path class="cls-4" d="M421.69,403.45l-6.29,20.14,41.77,17,47.77.88s-1.27-6.54-2.82-8c-8.11-7.44-32.05-7.76-42.55-11C448.23,419.05,421.69,403.45,421.69,403.45Z"/><ellipse class="cls-4" cx="418.41" cy="412.09" rx="12.01" ry="12.06" transform="translate(-31.91 35.14) rotate(-4.63)"/><path class="cls-4" d="M284.71,366.27c4.27-13,16.81-18.39,29.84-14.57.28.08,5.89,2.34,5.89,2.34l95.09,47.45s8.08,2.67,4.86,11.74c-2.89,8.14-12,5.06-12,5.06l-97.89-19.52c-11.3-2.25-21.92-6.8-26.57-17.34C282,377.15,283.38,370.34,284.71,366.27Z"/><path class="cls-4" d="M298.09,401.52l0-.13.75.26.18.06Z"/><polygon class="cls-5" points="493.15 246.47 474.71 319.13 339.32 340.25 321.84 247.88 382.82 221.5 431.85 222.49 493.15 246.47"/></g></svg>