<?xml version="1.0" encoding="utf-8"?>
<!-- Generator: Adobe Illustrator 26.0.2, SVG Export Plug-In . SVG Version: 6.00 Build 0)  -->
<svg version="1.1" id="Calque_1" xmlns="http://www.w3.org/2000/svg" xmlns:xlink="http://www.w3.org/1999/xlink" x="0px" y="0px"
	 viewBox="0 0 201.4 241.4" style="enable-background:new 0 0 201.4 241.4;" xml:space="preserve">
<style type="text/css">
	.st0{fill:#110907;}
	.st1{fill:#5E5E5E;}
	.st2{clip-path:url(#SVGID_00000088831311356372960440000017482557888980405377_);}
	.st3{fill:#7F4A2F;}
	.st4{clip-path:url(#SVGID_00000161602716962162500140000011735431661595264959_);}
	.st5{clip-path:url(#SVGID_00000150788643090132322790000005846102284969115837_);}
	.st6{fill:#573623;}
	.st7{clip-path:url(#SVGID_00000111150836105255363160000000232806358068532904_);}
	.st8{clip-path:url(#SVGID_00000136388889681559388930000005701706916516683443_);}
	.st9{fill:#FFFFFF;}
	.st10{clip-path:url(#SVGID_00000121264226234389001170000011048261715031371960_);}
	.st11{clip-path:url(#SVGID_00000121254965729014402970000017926474721047300269_);}
	.st12{fill:#090909;}
	.st13{clip-path:url(#SVGID_00000032640269988110032190000009693313755484994970_);}
	.st14{fill:#8E5736;}
	.st15{fill:#59342B;}
	.st16{fill:#7EA885;}
</style>
<path class="st0" d="M172,119c0,40-32.3,72.5-71.9,72.5S28.2,159.1,28.2,119s32.3-69.4,71.9-69.4S172,78.9,172,119z"/>
<path class="st1" d="M77,175.2c0,0,0,2.6,0,1.7v-0.2C77,176.2,77,175.7,77,175.2z"/>
<path class="st1" d="M77,175.2c0,0,0,2.6,0,1.7v-0.2C77,176.2,77,175.7,77,175.2z"/>
<path class="st1" d="M77,175.2c0,0,0,2.6,0,1.7v-0.2C77,176.2,77,175.7,77,175.2z"/>
<path class="st1" d="M77,175.2c0,0,0,2.6,0,1.7v-0.2C77,176.2,77,175.7,77,175.2z"/>
<path class="st1" d="M77,175.2c0,0,0,2.6,0,1.7v-0.2C77,176.2,77,175.7,77,175.2z"/>
<g id="random">
	<g>
		<g>
			<g>
				<defs>
					<polygon id="SVGID_1_" points="151.7,147.1 151.7,147.1 181.8,147.1 181.8,199.4 151.7,199.4 					"/>
				</defs>
				<clipPath id="SVGID_00000130634567388997676620000013182174930068479148_">
					<use xlink:href="#SVGID_1_"  style="overflow:visible;"/>
				</clipPath>
				<g style="clip-path:url(#SVGID_00000130634567388997676620000013182174930068479148_);">
					<path class="st3" d="M151.7,196l6.6-39.6c0,0,10.3-14.4,20.7-7.3c6.9,4.8-0.7,45.7-8,48.5C158.4,202.4,151.7,196,151.7,196z"/>
				</g>
			</g>
		</g>
	</g>
</g>
<g id="random2">
	<g>
		<g>
			<g>
				<defs>
					<polygon id="SVGID_00000102513847353685785840000015654138019733962152_" points="49.1,147.1 49.1,147.1 19.1,147.1 
						19.1,199.4 49.1,199.4 					"/>
				</defs>
				<clipPath id="SVGID_00000139266275603948760790000011161909964197822880_">
					<use xlink:href="#SVGID_00000102513847353685785840000015654138019733962152_"  style="overflow:visible;"/>
				</clipPath>
				<g style="clip-path:url(#SVGID_00000139266275603948760790000011161909964197822880_);">
					<path class="st3" d="M49.1,196l-6.6-39.6c0,0-10.3-14.4-20.7-7.3c-6.9,4.8,0.7,45.7,8,48.5C42.5,202.4,49.1,196,49.1,196z"/>
				</g>
			</g>
		</g>
	</g>
</g>
<g>
	<g>
		<g>
			<defs>
				<polygon id="SVGID_00000065789479742835526450000005512690610346552237_" points="118.1,125.9 118.1,125.9 154.4,125.9 
					154.4,136.9 118.1,136.9 				"/>
			</defs>
			<clipPath id="SVGID_00000127765874294662817640000001021996459283206031_">
				<use xlink:href="#SVGID_00000065789479742835526450000005512690610346552237_"  style="overflow:visible;"/>
			</clipPath>
			<g style="clip-path:url(#SVGID_00000127765874294662817640000001021996459283206031_);">
				<path class="st6" d="M152.6,136.9c-0.3,0-0.5-0.1-0.7-0.2c-3.7-1.5-7.3-2.7-11.2-3.7c-12.2-2.7-13-0.8-17.2,0
					c-1.2,0.3-4.2-0.5-4.9-1.2c-0.7-0.8-1.1-3.3-0.4-3.9c0.3-0.3,5.7-3.9,19.7-0.8c5.8,1.3,15,6.4,15.3,6.5c0.8,0.4,1.3,1.4,0.8,2.3
					C154,136.5,153.4,137,152.6,136.9L152.6,136.9z"/>
			</g>
		</g>
	</g>
</g>
<g>
	<g>
		<g>
			<defs>
				<polygon id="SVGID_00000083056771829396997520000001978018891031302279_" points="82.8,125.9 82.8,125.9 46.4,125.9 46.4,136.9 
					82.8,136.9 				"/>
			</defs>
			<clipPath id="SVGID_00000117675213153670992250000017108650957808220320_">
				<use xlink:href="#SVGID_00000083056771829396997520000001978018891031302279_"  style="overflow:visible;"/>
			</clipPath>
			<g style="clip-path:url(#SVGID_00000117675213153670992250000017108650957808220320_);">
				<path class="st6" d="M48.2,136.9c0.3,0,0.5-0.1,0.7-0.2c3.7-1.5,7.3-2.7,11.2-3.7c12.2-2.7,13-0.8,17.2,0
					c1.2,0.3,4.2-0.5,4.9-1.2c0.7-0.8,1.1-3.3,0.4-3.9c-0.3-0.3-5.7-3.9-19.7-0.8c-5.8,1.3-15,6.4-15.3,6.5
					c-0.8,0.4-1.3,1.4-0.8,2.3C46.8,136.5,47.4,137,48.2,136.9L48.2,136.9z"/>
			</g>
		</g>
	</g>
</g>
<g>
	<g>
		<g>
			<defs>
				<polygon id="SVGID_00000116957337662601707260000009388759069695313070_" points="125.9,147.7 125.9,147.7 149.3,147.7 
					149.3,170.2 125.9,170.2 				"/>
			</defs>
			<clipPath id="SVGID_00000170970992837970972290000015381343238937932426_">
				<use xlink:href="#SVGID_00000116957337662601707260000009388759069695313070_"  style="overflow:visible;"/>
			</clipPath>
			<g style="clip-path:url(#SVGID_00000170970992837970972290000015381343238937932426_);">
				<ellipse class="st9" cx="137.5" cy="159.1" rx="11.7" ry="11.3"/>
			</g>
		</g>
	</g>
</g>
<g>
	<g>
		<g>
			<defs>
				<polygon id="SVGID_00000108269109530257639710000008320326196679041163_" points="75,147.7 75,147.7 51.5,147.7 51.5,170.2 
					75,170.2 				"/>
			</defs>
			<clipPath id="SVGID_00000083076071172250260270000018358663111966136966_">
				<use xlink:href="#SVGID_00000108269109530257639710000008320326196679041163_"  style="overflow:visible;"/>
			</clipPath>
			<g style="clip-path:url(#SVGID_00000083076071172250260270000018358663111966136966_);">
				<ellipse class="st9" cx="63.3" cy="159.1" rx="11.7" ry="11.3"/>
			</g>
		</g>
	</g>
</g>
<g>
	<g>
		<g>
			<defs>
				<polygon id="SVGID_00000164496012950761114180000002860106694324110988_" points="129.7,152.8 129.7,152.8 145.3,152.8 
					145.3,168.4 129.7,168.4 				"/>
			</defs>
			<clipPath id="SVGID_00000004543155084831423510000010605765600382363563_">
				<use xlink:href="#SVGID_00000164496012950761114180000002860106694324110988_"  style="overflow:visible;"/>
			</clipPath>
			<g style="clip-path:url(#SVGID_00000004543155084831423510000010605765600382363563_);">
				<circle class="st12" cx="137.5" cy="160.7" r="7.9"/>
			</g>
		</g>
	</g>
</g>
<g>
	<g>
		<g>
			<defs>
				<polygon id="SVGID_00000103249607016105071850000000266111925057726869_" points="71.2,152.8 71.2,152.8 55.6,152.8 55.6,168.4 
					71.2,168.4 				"/>
			</defs>
			<clipPath id="SVGID_00000024712859305002431040000015855778004404191881_">
				<use xlink:href="#SVGID_00000103249607016105071850000000266111925057726869_"  style="overflow:visible;"/>
			</clipPath>
			<g style="clip-path:url(#SVGID_00000024712859305002431040000015855778004404191881_);">
				<circle class="st12" cx="63.4" cy="160.7" r="7.9"/>
			</g>
		</g>
	</g>
</g>
<path class="st14" d="M161.7,167.4c1.9-13,2.6-43.6,2.6-43.6c0-36.8-25.4-60.5-61.8-61.2l0,0h-4.3l0,0C62,63.3,36.4,87,36.4,123.8
	c0,0,0.8,30.7,2.6,43.6c1.5,10.4-10.3,28.2,2.5,46C49,223.7,85,229.7,98.4,233c0.6,0.2,1.1,0.3,1.7,0.3c0.1,0,0.3,0,0.3,0h0.3
	c0.6,0,1.1-0.1,1.7-0.3c11.3-2.8,38.4-7.5,51.2-14.9c2.1-0.7,3.8-2,5-3.8c0.3-0.3,0.5-0.6,0.8-0.8
	C172.1,195.7,160.2,177.8,161.7,167.4z"/>
<path class="st15" d="M90.5,179.5c-0.8,0.1-1.1,0.6-0.5,0.8c2.4,0.9,7,2.7,10.1,2.7c2.9,0,7.3-1.7,9.6-2.6c0.7-0.3,0.3-0.8-0.5-0.8
	c-2.7-0.2-3.8,0.5-9.4,0.5C95.1,180.1,93.3,179.4,90.5,179.5z"/>
<path d="M32.1,134.6l-5.8-21.2c0.2-0.8,3.1-5.8,3.8-5.9l9.4-18.3c-22-11.7,79-17.2,84.4-6.3l20.7,5.9c0.4,0.2,13,9.7,13.4,10l6.3,31
	c0.5,0.8,1.3,1.3,2.3,1l9.5-2.7c1.5-0.5,2.3-2.7,1.2-4l-1.3-1.9c-0.7-0.8-0.7-2.1-0.2-2.9l4.6-8.6c0.4-0.7,1-1.2,1.9-1.2l10.2-0.2
	c1.7,0,2.7-2.3,1.7-3.9l-3.8-5.9c-0.7-1-0.5-2.5,0.4-3.4l20.3-18.8c1.3-1.2,1-3.6-0.5-4.2l-8.5-3.9c-0.5-0.2-0.8-0.5-1-1l-14.7-27.4
	c-0.7-1.3-2.3-1.5-3.2-0.5l-5.6,5.9c-0.7,0.7-1.7,0.8-2.5,0.4l-10.9-7.7c-1.7-1.2-3.9,0.8-3.1,3.1l0,0c0.4,1.2,0,2.5-1,3.1l-2.1,1.2
	c-0.8,0.5-1.7,0.4-2.3-0.4l-6.8-6.8c-0.4-0.4-0.7-0.8-0.7-1.5l-2.9-21.8c-0.2-1.7-1.9-2.7-3.2-1.9l-17.5,11.3
	c-1,0.7-2.3,0.4-2.9-0.8l-7.3-13.2c-0.7-1.2-2.1-1.5-3.1-0.7l-7.6,6.3c-1,0.8-2.3,0.5-3.1-0.5L95,8c-0.8-1.3-2.5-1.3-3.4,0l-2.3,3.6
	c-0.4,0.5-0.8,0.8-1.5,0.8l-26.1,3.1c-1.7,0.2-2.5,2.3-1.5,3.9l1.2,2.1c0.7,1.2,0.4,2.7-0.7,3.6l-31,22.1c-1,0.7-2.3,0.4-2.9-0.7
	l-6.7-10.3c-1-1.5-3.2-1.2-3.8,0.7l-3.7,11.3c-0.5,1.3-1.7,2.1-2.9,1.3l-3.6-1.7c-1.5-0.7-3.1,0.5-3.1,2.3l1,34.4
	c0,0.8-0.4,1.9-1,2.3l-12.7,8.5c-1.3,0.8-1.5,3.2-0.2,4.2L9,113.2c0.7,0.5,1,1.3,1,2.3l-0.5,9.7c0,1.2,0.7,2.3,1.7,2.5l13.4,2.9
	c0.5,0.2,1,0.5,1.3,1l2.3,3.8C29.4,137,31.6,136.5,32.1,134.6z"/>
<path class="st16" d="M35,120.5l20.3-7.3c25.3-9,54-9.4,79.4-1l25.1,8.3c4.8,1.5,10-0.7,11.3-4.8l4.6-15.5
	c1.5-5.4-15.9-18.5-28.9-27c-9-6.1-19.5-9.8-30.8-11.1c-10.5-1.2-21-1.2-31.6-0.4c-10,0.8-19.5,3.9-27.9,8.8
	c-16.1,9.2-41.7,24.8-40,29.1l6.8,16.5C25.2,120.1,30.4,122.2,35,120.5z"/>
</svg>
