<?xml version="1.0" encoding="utf-8"?>
<!-- Generator: Adobe Illustrator 26.0.2, SVG Export Plug-In . SVG Version: 6.00 Build 0)  -->
<svg version="1.1" id="Calque_1" xmlns="http://www.w3.org/2000/svg" xmlns:xlink="http://www.w3.org/1999/xlink" x="0px" y="0px"
	 viewBox="0 0 788 1005" style="enable-background:new 0 0 788 1005;" xml:space="preserve">
<style type="text/css">
	.st0{fill:#110907;}
	.st1{fill:#5E5E5E;}
	.st2{clip-path:url(#SVGID_00000137117013317450354350000009164114570113765799_);}
	.st3{fill:#7F4A2F;}
	.st4{clip-path:url(#SVGID_00000116937664520991065380000007770690020777402550_);}
	.st5{clip-path:url(#SVGID_00000052096964477543161670000007283564473698076290_);}
	.st6{fill:#573623;}
	.st7{clip-path:url(#SVGID_00000068653296603531526950000017840086342651486636_);}
	.st8{clip-path:url(#SVGID_00000096041023843244664600000018219185587042851007_);}
	.st9{fill:#FFFFFF;}
	.st10{clip-path:url(#SVGID_00000024719051552651799620000008012770800439367296_);}
	.st11{clip-path:url(#SVGID_00000178903788370621071440000006365378333091008417_);}
	.st12{fill:#090909;}
	.st13{clip-path:url(#SVGID_00000006681544056193505510000003974974824440352132_);}
	.st14{fill:#8E5736;}
	.st15{fill:#59342B;}
	.st16{fill:#7EA885;}
</style>
<path class="st0" d="M482.6,271c0,49.6-39.9,89.8-89.1,89.8s-89.1-40.1-89.1-89.8s39.9-86,89.1-86S482.6,221.4,482.6,271z"/>
<path class="st1" d="M364.9,340.6c0,0,0,3.2,0,2.1v-0.2C364.9,341.9,364.9,341.2,364.9,340.6z"/>
<path class="st1" d="M364.9,340.6c0,0,0,3.2,0,2.1v-0.2C364.9,341.9,364.9,341.2,364.9,340.6z"/>
<path class="st1" d="M364.9,340.6c0,0,0,3.2,0,2.1v-0.2C364.9,341.9,364.9,341.2,364.9,340.6z"/>
<path class="st1" d="M364.9,340.6c0,0,0,3.2,0,2.1v-0.2C364.9,341.9,364.9,341.2,364.9,340.6z"/>
<path class="st1" d="M364.9,340.6c0,0,0,3.2,0,2.1v-0.2C364.9,341.9,364.9,341.2,364.9,340.6z"/>
<g id="random">
	<g>
		<g>
			<defs>
				<polygon id="SVGID_1_" points="457.5,305.9 457.5,305.9 494.7,305.9 494.7,370.6 457.5,370.6 				"/>
			</defs>
			<clipPath id="SVGID_00000062176587027896662810000014804767773451092362_">
				<use xlink:href="#SVGID_1_"  style="overflow:visible;"/>
			</clipPath>
			<g style="clip-path:url(#SVGID_00000062176587027896662810000014804767773451092362_);">
				<path class="st3" d="M457.5,366.4l8.1-49c0,0,12.8-17.9,25.7-9c8.6,5.9-0.8,56.6-9.9,60C465.7,374.3,457.5,366.4,457.5,366.4z"
					/>
			</g>
		</g>
	</g>
</g>
<g id="random2">
	<g>
		<g>
			<defs>
				<polygon id="SVGID_00000029004186204896712430000010191187749749547145_" points="330.5,305.9 330.5,305.9 293.3,305.9 
					293.3,370.6 330.5,370.6 				"/>
			</defs>
			<clipPath id="SVGID_00000044167694129624504750000015578895345488781214_">
				<use xlink:href="#SVGID_00000029004186204896712430000010191187749749547145_"  style="overflow:visible;"/>
			</clipPath>
			<g style="clip-path:url(#SVGID_00000044167694129624504750000015578895345488781214_);">
				<path class="st3" d="M330.5,366.4l-8.1-49c0,0-12.8-17.9-25.7-9c-8.6,5.9,0.8,56.6,9.9,60C322.3,374.3,330.5,366.4,330.5,366.4z
					"/>
			</g>
		</g>
	</g>
</g>
<g>
	<g>
		<defs>
			<polygon id="SVGID_00000147925390302630919840000004682426067649881482_" points="415.9,279.5 415.9,279.5 460.9,279.5 
				460.9,293.2 415.9,293.2 			"/>
		</defs>
		<clipPath id="SVGID_00000004513075156493461770000014398336802730301091_">
			<use xlink:href="#SVGID_00000147925390302630919840000004682426067649881482_"  style="overflow:visible;"/>
		</clipPath>
		<g style="clip-path:url(#SVGID_00000004513075156493461770000014398336802730301091_);">
			<path class="st6" d="M458.7,293.2c-0.3,0-0.6-0.1-0.8-0.2c-4.5-1.9-9.1-3.4-13.8-4.5c-15.1-3.4-16.1-1-21.3,0
				c-1.5,0.3-5.2-0.6-6-1.5s-1.4-4.1-0.5-4.9c0.4-0.3,7.1-4.9,24.4-1c7.2,1.6,18.6,7.9,18.9,8c1.1,0.5,1.6,1.7,1.1,2.8
				C460.4,292.7,459.6,293.3,458.7,293.2L458.7,293.2z"/>
		</g>
	</g>
</g>
<g>
	<g>
		<defs>
			<polygon id="SVGID_00000070100918149610770050000012924186277352673459_" points="372.1,279.5 372.1,279.5 327.1,279.5 
				327.1,293.2 372.1,293.2 			"/>
		</defs>
		<clipPath id="SVGID_00000016775436505828012730000007582232826879073155_">
			<use xlink:href="#SVGID_00000070100918149610770050000012924186277352673459_"  style="overflow:visible;"/>
		</clipPath>
		<g style="clip-path:url(#SVGID_00000016775436505828012730000007582232826879073155_);">
			<path class="st6" d="M329.3,293.2c0.3,0,0.6-0.1,0.8-0.2c4.5-1.9,9.1-3.4,13.8-4.5c15.1-3.4,16.1-1,21.3,0c1.5,0.3,5.2-0.6,6-1.5
				s1.4-4.1,0.5-4.9c-0.4-0.3-7.1-4.9-24.4-1c-7.2,1.6-18.6,7.9-18.9,8c-1.1,0.5-1.6,1.7-1.1,2.8
				C327.6,292.7,328.4,293.3,329.3,293.2L329.3,293.2z"/>
		</g>
	</g>
</g>
<g>
	<g>
		<defs>
			<polygon id="SVGID_00000137835149706468728770000017176067121447379856_" points="425.5,306.6 425.5,306.6 454.5,306.6 
				454.5,334.5 425.5,334.5 			"/>
		</defs>
		<clipPath id="SVGID_00000081610273467564356660000018092734430458783930_">
			<use xlink:href="#SVGID_00000137835149706468728770000017176067121447379856_"  style="overflow:visible;"/>
		</clipPath>
		<g style="clip-path:url(#SVGID_00000081610273467564356660000018092734430458783930_);">
			<ellipse class="st9" cx="440" cy="320.6" rx="14.5" ry="13.9"/>
		</g>
	</g>
</g>
<g>
	<g>
		<defs>
			<polygon id="SVGID_00000178190562403167765420000000191031746559600537_" points="362.5,306.6 362.5,306.6 333.5,306.6 
				333.5,334.5 362.5,334.5 			"/>
		</defs>
		<clipPath id="SVGID_00000165937584472743879020000000806366270339222401_">
			<use xlink:href="#SVGID_00000178190562403167765420000000191031746559600537_"  style="overflow:visible;"/>
		</clipPath>
		<g style="clip-path:url(#SVGID_00000165937584472743879020000000806366270339222401_);">
			<ellipse class="st9" cx="348" cy="320.6" rx="14.5" ry="13.9"/>
		</g>
	</g>
</g>
<g>
	<g>
		<defs>
			<polygon id="SVGID_00000047026044419033527790000006144668207647216289_" points="430.2,312.9 430.2,312.9 449.6,312.9 
				449.6,332.3 430.2,332.3 			"/>
		</defs>
		<clipPath id="SVGID_00000065050393750062753320000013005608017654003123_">
			<use xlink:href="#SVGID_00000047026044419033527790000006144668207647216289_"  style="overflow:visible;"/>
		</clipPath>
		<g style="clip-path:url(#SVGID_00000065050393750062753320000013005608017654003123_);">
			<circle class="st12" cx="439.9" cy="322.6" r="9.7"/>
		</g>
	</g>
</g>
<g>
	<g>
		<defs>
			<polygon id="SVGID_00000012466959400896349280000002565914639855102138_" points="357.8,312.9 357.8,312.9 338.4,312.9 
				338.4,332.3 357.8,332.3 			"/>
		</defs>
		<clipPath id="SVGID_00000115479862191518467310000002225389323424050314_">
			<use xlink:href="#SVGID_00000012466959400896349280000002565914639855102138_"  style="overflow:visible;"/>
		</clipPath>
		<g style="clip-path:url(#SVGID_00000115479862191518467310000002225389323424050314_);">
			<circle class="st12" cx="348.1" cy="322.6" r="9.7"/>
		</g>
	</g>
</g>
<path class="st14" d="M469.9,331c2.3-16.1,3.2-54,3.2-54c0-45.5-31.5-74.9-76.5-75.8l0,0h-5.3l0,0c-45,0.9-76.5,30.3-76.5,75.8
	c0,0,0.9,38,3.2,54c1.8,12.9-12.8,35,3.1,57c9.2,12.7,53.8,20.1,70.4,24.3c0.7,0.2,1.4,0.3,2.1,0.3c0.1,0,0.3,0,0.4,0s0.3,0,0.4,0
	c0.7,0,1.4-0.1,2.1-0.3c13.9-3.5,47.5-9.3,63.4-18.5c2.5-0.8,4.7-2.4,6.1-4.7c0.3-0.3,0.6-0.7,0.9-1
	C482.8,366,468.1,343.9,469.9,331z"/>
<path class="st15" d="M381.7,346c-1,0.1-1.4,0.7-0.6,1c3,1.2,8.7,3.4,12.5,3.4c3.6,0,9-2.1,11.8-3.3c0.8-0.3,0.4-1-0.6-1
	c-3.4-0.2-4.8,0.6-11.6,0.6C387.4,346.7,385.1,345.8,381.7,346z"/>
<path d="M309.4,290.3l-7.1-26.3c0.2-1.1,3.8-7.1,4.6-7.4l11.6-22.7c-27.3-14.5,97.7-21.2,104.5-7.8l25.6,7.4
	c0.4,0.2,16.2,12,16.6,12.4l7.8,38.5c0.6,1.1,1.7,1.7,2.9,1.3l11.8-3.4c1.9-0.6,2.7-3.4,1.5-5l-1.7-2.3c-0.8-1.1-0.8-2.5-0.2-3.6
	l5.7-10.7c0.4-0.8,1.3-1.5,2.3-1.5l12.6-0.2c2.1,0,3.4-2.9,2.1-4.8l-4.6-7.4c-0.8-1.3-0.6-3.2,0.4-4.2l25.2-23.3
	c1.7-1.5,1.3-4.4-0.6-5.3l-10.5-4.8c-0.6-0.2-1.1-0.6-1.3-1.3l-18.1-33.8c-0.8-1.7-2.9-1.9-4-0.6l-6.9,7.4c-0.8,0.8-2.1,1.1-3.2,0.4
	l-13.5-9.5c-2.1-1.5-4.8,1.1-3.8,3.8l0,0c0.4,1.5,0,3.2-1.3,3.8l-2.5,1.5c-1.1,0.6-2.1,0.4-2.9-0.4L454,172
	c-0.4-0.4-0.8-1.1-0.8-1.9l-3.6-26.9c-0.2-2.1-2.3-3.4-4-2.3L423.9,155c-1.3,0.8-2.7,0.4-3.6-1.1l-9-16.4c-0.8-1.5-2.5-1.9-3.8-0.8
	l-9.5,7.8c-1.3,1.1-2.7,0.6-3.8-0.6l-6.9-10.3c-1.1-1.7-3.2-1.7-4.2,0l-2.9,4.4c-0.4,0.6-1.1,1.1-1.9,1.1l-32.4,3.8
	c-2.1,0.2-3.2,2.9-1.9,4.8l1.5,2.5c0.8,1.5,0.4,3.4-0.8,4.4l-38.3,27.5c-1.3,0.8-2.7,0.4-3.6-0.8l-8.2-12.8c-1.3-1.9-4-1.5-4.6,0.8
	l-4.6,14.1c-0.6,1.7-2.1,2.5-3.6,1.7l-4.4-2.1c-1.9-0.8-3.8,0.6-3.8,2.9l1.3,42.7c0,1.1-0.4,2.3-1.3,2.7l-15.8,10.5
	c-1.7,1.1-1.9,4-0.2,5.3l23.1,16.8c0.8,0.6,1.3,1.7,1.3,2.7l-0.6,12c0,1.5,0.8,2.9,2.1,3.2l16.6,3.6c0.6,0.2,1.3,0.6,1.7,1.3
	l2.9,4.6C306,293.3,308.8,292.7,309.4,290.3z"/>
<path class="st16" d="M313,272.9l25.2-9c31.3-11.1,66.8-11.6,98.4-1.3l31.1,10.3c5.9,1.9,12.4-0.8,14.1-5.9l5.7-19.1
	c1.9-6.7-19.8-22.9-35.7-33.4c-11.1-7.6-24.2-12.2-38-13.7c-13-1.5-26.1-1.5-39.1-0.4c-12.4,1.1-24.2,4.8-34.5,10.9
	c-20,11.4-51.7,30.7-49.6,35.9l8.4,20.4C300.8,272.5,307.3,275,313,272.9z"/>
</svg>
