<?xml version="1.0" encoding="utf-8"?>
<!-- Generator: Adobe Illustrator 26.0.2, SVG Export Plug-In . SVG Version: 6.00 Build 0)  -->
<svg version="1.1" id="Calque_1" xmlns="http://www.w3.org/2000/svg" xmlns:xlink="http://www.w3.org/1999/xlink" x="0px" y="0px"
	 viewBox="0 0 788 1005" style="enable-background:new 0 0 788 1005;" xml:space="preserve">
<style type="text/css">
	.st0{fill:#5E5E5E;}
	.st1{clip-path:url(#SVGID_00000131330181143266690070000004445205451414019459_);}
	.st2{fill:#7F4A2F;}
	.st3{clip-path:url(#SVGID_00000106111126209828424290000016025634570559546758_);}
	.st4{clip-path:url(#SVGID_00000183931233359588712380000005158332304091436725_);}
	.st5{fill:#573623;}
	.st6{clip-path:url(#SVGID_00000158015333099662550800000008248734920201170336_);}
	.st7{clip-path:url(#SVGID_00000083779910979338239410000008529967799920049807_);}
	.st8{fill:#FFFFFF;}
	.st9{clip-path:url(#SVGID_00000142161937070153067260000015266878375693957275_);}
	.st10{clip-path:url(#SVGID_00000091011595750614385820000001985763389152008863_);}
	.st11{fill:#090909;}
	.st12{clip-path:url(#SVGID_00000129885833150421835350000009229315502030214799_);}
	.st13{fill:#8E5736;}
	.st14{fill:#59342B;}
</style>
<path class="st0" d="M364.9,340.6c0,0,0,3.2,0,2.1v-0.2C364.9,341.9,364.9,341.2,364.9,340.6z"/>
<path class="st0" d="M364.9,340.6c0,0,0,3.2,0,2.1v-0.2C364.9,341.9,364.9,341.2,364.9,340.6z"/>
<path class="st0" d="M364.9,340.6c0,0,0,3.2,0,2.1v-0.2C364.9,341.9,364.9,341.2,364.9,340.6z"/>
<path class="st0" d="M364.9,340.6c0,0,0,3.2,0,2.1v-0.2C364.9,341.9,364.9,341.2,364.9,340.6z"/>
<path class="st0" d="M364.9,340.6c0,0,0,3.2,0,2.1v-0.2C364.9,341.9,364.9,341.2,364.9,340.6z"/>
<g id="random">
	<g>
		<g>
			<defs>
				<polygon id="SVGID_1_" points="457.5,305.9 457.5,305.9 494.7,305.9 494.7,370.6 457.5,370.6 				"/>
			</defs>
			<clipPath id="SVGID_00000034067356319055744190000015700249411614517137_">
				<use xlink:href="#SVGID_1_"  style="overflow:visible;"/>
			</clipPath>
			<g style="clip-path:url(#SVGID_00000034067356319055744190000015700249411614517137_);">
				<path class="st2" d="M457.5,366.4l8.1-49c0,0,12.8-17.9,25.7-9c8.6,5.9-0.8,56.6-9.9,60C465.7,374.3,457.5,366.4,457.5,366.4z"
					/>
			</g>
		</g>
	</g>
</g>
<g id="random2">
	<g>
		<g>
			<defs>
				<polygon id="SVGID_00000061429846591781189980000011236580208295400087_" points="330.5,305.9 330.5,305.9 293.3,305.9 
					293.3,370.6 330.5,370.6 				"/>
			</defs>
			<clipPath id="SVGID_00000113331290999630386480000008583637006458914450_">
				<use xlink:href="#SVGID_00000061429846591781189980000011236580208295400087_"  style="overflow:visible;"/>
			</clipPath>
			<g style="clip-path:url(#SVGID_00000113331290999630386480000008583637006458914450_);">
				<path class="st2" d="M330.5,366.4l-8.1-49c0,0-12.8-17.9-25.7-9c-8.6,5.9,0.8,56.6,9.9,60C322.3,374.3,330.5,366.4,330.5,366.4z
					"/>
			</g>
		</g>
	</g>
</g>
<g>
	<g>
		<defs>
			<polygon id="SVGID_00000077296959702083105400000012253142247998799020_" points="415.9,279.5 415.9,279.5 460.9,279.5 
				460.9,293.2 415.9,293.2 			"/>
		</defs>
		<clipPath id="SVGID_00000053538233979922342060000000221516190686271123_">
			<use xlink:href="#SVGID_00000077296959702083105400000012253142247998799020_"  style="overflow:visible;"/>
		</clipPath>
		<g style="clip-path:url(#SVGID_00000053538233979922342060000000221516190686271123_);">
			<path class="st5" d="M458.7,293.2c-0.3,0-0.6-0.1-0.8-0.2c-4.5-1.9-9.1-3.4-13.8-4.5c-15.1-3.4-16.1-1-21.3,0
				c-1.5,0.3-5.2-0.6-6-1.5s-1.4-4.1-0.5-4.9c0.4-0.3,7.1-4.9,24.4-1c7.2,1.6,18.6,7.9,18.9,8c1.1,0.5,1.6,1.7,1.1,2.8
				C460.4,292.7,459.6,293.3,458.7,293.2L458.7,293.2z"/>
		</g>
	</g>
</g>
<g>
	<g>
		<defs>
			<polygon id="SVGID_00000000182299995818316730000005934575319980944061_" points="372.1,279.5 372.1,279.5 327.1,279.5 
				327.1,293.2 372.1,293.2 			"/>
		</defs>
		<clipPath id="SVGID_00000090277779280407996220000004345215249587075258_">
			<use xlink:href="#SVGID_00000000182299995818316730000005934575319980944061_"  style="overflow:visible;"/>
		</clipPath>
		<g style="clip-path:url(#SVGID_00000090277779280407996220000004345215249587075258_);">
			<path class="st5" d="M329.3,293.2c0.3,0,0.6-0.1,0.8-0.2c4.5-1.9,9.1-3.4,13.8-4.5c15.1-3.4,16.1-1,21.3,0c1.5,0.3,5.2-0.6,6-1.5
				s1.4-4.1,0.5-4.9c-0.4-0.3-7.1-4.9-24.4-1c-7.2,1.6-18.6,7.9-18.9,8c-1.1,0.5-1.6,1.7-1.1,2.8
				C327.6,292.7,328.4,293.3,329.3,293.2L329.3,293.2z"/>
		</g>
	</g>
</g>
<g>
	<g>
		<defs>
			<polygon id="SVGID_00000137810185741857737300000009118563658999861385_" points="425.5,306.6 425.5,306.6 454.5,306.6 
				454.5,334.5 425.5,334.5 			"/>
		</defs>
		<clipPath id="SVGID_00000114074095590378819170000002655980516908715442_">
			<use xlink:href="#SVGID_00000137810185741857737300000009118563658999861385_"  style="overflow:visible;"/>
		</clipPath>
		<g style="clip-path:url(#SVGID_00000114074095590378819170000002655980516908715442_);">
			<ellipse class="st8" cx="440" cy="320.6" rx="14.5" ry="13.9"/>
		</g>
	</g>
</g>
<g>
	<g>
		<defs>
			<polygon id="SVGID_00000110457616970802772140000012685228643476366517_" points="362.5,306.6 362.5,306.6 333.5,306.6 
				333.5,334.5 362.5,334.5 			"/>
		</defs>
		<clipPath id="SVGID_00000155114791868679694440000006614231422793414283_">
			<use xlink:href="#SVGID_00000110457616970802772140000012685228643476366517_"  style="overflow:visible;"/>
		</clipPath>
		<g style="clip-path:url(#SVGID_00000155114791868679694440000006614231422793414283_);">
			<ellipse class="st8" cx="348" cy="320.6" rx="14.5" ry="13.9"/>
		</g>
	</g>
</g>
<g>
	<g>
		<defs>
			<polygon id="SVGID_00000032608126634679393970000008228141204590751139_" points="430.2,312.9 430.2,312.9 449.6,312.9 
				449.6,332.3 430.2,332.3 			"/>
		</defs>
		<clipPath id="SVGID_00000062881680403628392690000017800290690361502867_">
			<use xlink:href="#SVGID_00000032608126634679393970000008228141204590751139_"  style="overflow:visible;"/>
		</clipPath>
		<g style="clip-path:url(#SVGID_00000062881680403628392690000017800290690361502867_);">
			<circle class="st11" cx="439.9" cy="322.6" r="9.7"/>
		</g>
	</g>
</g>
<g>
	<g>
		<defs>
			<polygon id="SVGID_00000000900758976283134350000004801757211764956033_" points="357.8,312.9 357.8,312.9 338.4,312.9 
				338.4,332.3 357.8,332.3 			"/>
		</defs>
		<clipPath id="SVGID_00000128448891282394673580000012158260956729517451_">
			<use xlink:href="#SVGID_00000000900758976283134350000004801757211764956033_"  style="overflow:visible;"/>
		</clipPath>
		<g style="clip-path:url(#SVGID_00000128448891282394673580000012158260956729517451_);">
			<circle class="st11" cx="348.1" cy="322.6" r="9.7"/>
		</g>
	</g>
</g>
<path class="st13" d="M469.9,331c2.3-16.1,3.2-54,3.2-54c0-45.5-31.5-74.9-76.5-75.8l0,0h-5.3l0,0c-45,0.9-76.5,30.3-76.5,75.8
	c0,0,0.9,38,3.2,54c1.8,12.9-12.8,35,3.1,57c9.2,12.7,53.8,20.1,70.4,24.3c0.7,0.2,1.4,0.3,2.1,0.3c0.1,0,0.3,0,0.4,0s0.3,0,0.4,0
	c0.7,0,1.4-0.1,2.1-0.3c13.9-3.5,47.5-9.3,63.4-18.5c2.5-0.8,4.7-2.4,6.1-4.7c0.3-0.3,0.6-0.7,0.9-1
	C482.8,366,468.1,343.9,469.9,331z"/>
<path d="M398.9,209.4c-19.7-22.3-13.5-62.6,12.3-47.9c6.9,3.9-27.7,2.3,28,42.1c19.8,14.2,19.7,27.7,19.7,27.7
	S409.9,221.8,398.9,209.4z"/>
<path d="M385.5,225.6c-27.4-11.6-39.2-50.7-9.6-48.5c7.9,0.6-24,14,43.4,25.9c24,4.3,29.7,16.5,29.7,16.5S400.8,232.1,385.5,225.6z"
	/>
<path class="st14" d="M381.7,346c-1,0.1-1.4,0.7-0.6,1c3,1.2,8.7,3.4,12.5,3.4c3.6,0,9-2.1,11.8-3.3c0.8-0.3,0.4-1-0.6-1
	c-3.4-0.2-4.8,0.6-11.6,0.6C387.4,346.7,385.1,345.8,381.7,346z"/>
</svg>
