<?xml version="1.0" encoding="utf-8"?>
<!-- Generator: Adobe Illustrator 26.0.2, SVG Export Plug-In . SVG Version: 6.00 Build 0)  -->
<svg version="1.1" id="Calque_1" xmlns="http://www.w3.org/2000/svg" xmlns:xlink="http://www.w3.org/1999/xlink" x="0px" y="0px"
	 viewBox="0 0 201.4 211.4" style="enable-background:new 0 0 201.4 211.4;" xml:space="preserve">
<style type="text/css">
	.st0{fill:#5E5E5E;}
	.st1{clip-path:url(#SVGID_00000005984534594553520670000001782922165945311651_);}
	.st2{fill:#7F4A2F;}
	.st3{clip-path:url(#SVGID_00000051369089569241584480000018403267878147337864_);}
	.st4{clip-path:url(#SVGID_00000000212782949361109350000006321376796422641086_);}
	.st5{fill:#573623;}
	.st6{clip-path:url(#SVGID_00000071558928357725026700000009299058428961004975_);}
	.st7{clip-path:url(#SVGID_00000182503877368193911170000006506454755890453120_);}
	.st8{fill:#FFFFFF;}
	.st9{clip-path:url(#SVGID_00000019657495960355074460000003500895586735446193_);}
	.st10{clip-path:url(#SVGID_00000114068437967705384310000002408655716994066604_);}
	.st11{fill:#090909;}
	.st12{clip-path:url(#SVGID_00000163768133071377343520000008398813926434052787_);}
	.st13{fill:#8E5736;}
	.st14{fill:#59342B;}
</style>
<path class="st0" d="M76.7,133.5c0,0,0,2.6,0,1.7v-0.2C76.7,134.6,76.7,134,76.7,133.5z"/>
<path class="st0" d="M76.7,133.5c0,0,0,2.6,0,1.7v-0.2C76.7,134.6,76.7,134,76.7,133.5z"/>
<path class="st0" d="M76.7,133.5c0,0,0,2.6,0,1.7v-0.2C76.7,134.6,76.7,134,76.7,133.5z"/>
<path class="st0" d="M76.7,133.5c0,0,0,2.6,0,1.7v-0.2C76.7,134.6,76.7,134,76.7,133.5z"/>
<path class="st0" d="M76.7,133.5c0,0,0,2.6,0,1.7v-0.2C76.7,134.6,76.7,134,76.7,133.5z"/>
<g id="random">
	<g>
		<g>
			<g>
				<defs>
					<polygon id="SVGID_1_" points="153.1,104.9 153.1,104.9 183.8,104.9 183.8,158.3 153.1,158.3 					"/>
				</defs>
				<clipPath id="SVGID_00000113318878635588496350000010247408277639625151_">
					<use xlink:href="#SVGID_1_"  style="overflow:visible;"/>
				</clipPath>
				<g style="clip-path:url(#SVGID_00000113318878635588496350000010247408277639625151_);">
					<path class="st2" d="M153.1,154.8l6.7-40.4c0,0,10.6-14.8,21.2-7.4c7.1,4.9-0.7,46.7-8.2,49.5
						C159.9,161.3,153.1,154.8,153.1,154.8z"/>
				</g>
			</g>
		</g>
	</g>
</g>
<g id="random2">
	<g>
		<g>
			<g>
				<defs>
					<polygon id="SVGID_00000147212996809972178120000009867703999200025533_" points="48.3,104.9 48.3,104.9 17.6,104.9 
						17.6,158.3 48.3,158.3 					"/>
				</defs>
				<clipPath id="SVGID_00000119812838695778959340000012962715618290891666_">
					<use xlink:href="#SVGID_00000147212996809972178120000009867703999200025533_"  style="overflow:visible;"/>
				</clipPath>
				<g style="clip-path:url(#SVGID_00000119812838695778959340000012962715618290891666_);">
					<path class="st2" d="M48.3,154.8l-6.7-40.4c0,0-10.6-14.8-21.2-7.4c-7.1,4.9,0.7,46.7,8.2,49.5
						C41.5,161.3,48.3,154.8,48.3,154.8z"/>
				</g>
			</g>
		</g>
	</g>
</g>
<g>
	<g>
		<g>
			<defs>
				<polygon id="SVGID_00000176038918275142333260000016071831296295395736_" points="118.8,83.1 118.8,83.1 155.9,83.1 155.9,94.4 
					118.8,94.4 				"/>
			</defs>
			<clipPath id="SVGID_00000157292165671126446570000016280982215223723663_">
				<use xlink:href="#SVGID_00000176038918275142333260000016071831296295395736_"  style="overflow:visible;"/>
			</clipPath>
			<g style="clip-path:url(#SVGID_00000157292165671126446570000016280982215223723663_);">
				<path class="st5" d="M154.1,94.4c-0.2,0-0.5-0.1-0.7-0.2c-3.7-1.6-7.5-2.8-11.4-3.7c-12.5-2.8-13.3-0.8-17.6,0
					c-1.2,0.2-4.3-0.5-5-1.2c-0.7-0.7-1.2-3.4-0.4-4c0.3-0.2,5.9-4,20.1-0.8c5.9,1.3,15.3,6.5,15.6,6.6c0.9,0.4,1.3,1.4,0.9,2.3
					C155.5,94,154.8,94.5,154.1,94.4L154.1,94.4z"/>
			</g>
		</g>
	</g>
</g>
<g>
	<g>
		<g>
			<defs>
				<polygon id="SVGID_00000163032514316286355240000000262465592840480684_" points="82.6,83.1 82.6,83.1 45.5,83.1 45.5,94.4 
					82.6,94.4 				"/>
			</defs>
			<clipPath id="SVGID_00000155825367864770924240000012421554705978368653_">
				<use xlink:href="#SVGID_00000163032514316286355240000000262465592840480684_"  style="overflow:visible;"/>
			</clipPath>
			<g style="clip-path:url(#SVGID_00000155825367864770924240000012421554705978368653_);">
				<path class="st5" d="M47.3,94.4c0.2,0,0.5-0.1,0.7-0.2c3.7-1.6,7.5-2.8,11.4-3.7c12.5-2.8,13.3-0.8,17.6,0
					c1.2,0.2,4.3-0.5,5-1.2c0.7-0.7,1.2-3.4,0.4-4c-0.3-0.2-5.9-4-20.1-0.8c-5.9,1.3-15.3,6.5-15.6,6.6c-0.9,0.4-1.3,1.4-0.9,2.3
					C45.9,94,46.6,94.5,47.3,94.4L47.3,94.4z"/>
			</g>
		</g>
	</g>
</g>
<g>
	<g>
		<g>
			<defs>
				<polygon id="SVGID_00000066504715272214436200000014985978861742779566_" points="126.7,105.5 126.7,105.5 150.6,105.5 
					150.6,128.5 126.7,128.5 				"/>
			</defs>
			<clipPath id="SVGID_00000049201976589133125600000014171770024941426312_">
				<use xlink:href="#SVGID_00000066504715272214436200000014985978861742779566_"  style="overflow:visible;"/>
			</clipPath>
			<g style="clip-path:url(#SVGID_00000049201976589133125600000014171770024941426312_);">
				<ellipse class="st8" cx="138.7" cy="117" rx="12" ry="11.5"/>
			</g>
		</g>
	</g>
</g>
<g>
	<g>
		<g>
			<defs>
				<polygon id="SVGID_00000038378789748098145270000003243737887991355319_" points="74.7,105.5 74.7,105.5 50.8,105.5 50.8,128.5 
					74.7,128.5 				"/>
			</defs>
			<clipPath id="SVGID_00000074419229510316723350000017280424468716405659_">
				<use xlink:href="#SVGID_00000038378789748098145270000003243737887991355319_"  style="overflow:visible;"/>
			</clipPath>
			<g style="clip-path:url(#SVGID_00000074419229510316723350000017280424468716405659_);">
				<ellipse class="st8" cx="62.7" cy="117" rx="12" ry="11.5"/>
			</g>
		</g>
	</g>
</g>
<g>
	<g>
		<g>
			<defs>
				<polygon id="SVGID_00000049211355396283300530000016085936545453702539_" points="130.6,110.7 130.6,110.7 146.6,110.7 
					146.6,126.7 130.6,126.7 				"/>
			</defs>
			<clipPath id="SVGID_00000098925498732649950370000008685095671441628036_">
				<use xlink:href="#SVGID_00000049211355396283300530000016085936545453702539_"  style="overflow:visible;"/>
			</clipPath>
			<g style="clip-path:url(#SVGID_00000098925498732649950370000008685095671441628036_);">
				<circle class="st11" cx="138.6" cy="118.7" r="8"/>
			</g>
		</g>
	</g>
</g>
<g>
	<g>
		<g>
			<defs>
				<polygon id="SVGID_00000014596538238447368250000006926020951934665648_" points="70.8,110.7 70.8,110.7 54.8,110.7 54.8,126.7 
					70.8,126.7 				"/>
			</defs>
			<clipPath id="SVGID_00000091016818852628030970000008549013268834203812_">
				<use xlink:href="#SVGID_00000014596538238447368250000006926020951934665648_"  style="overflow:visible;"/>
			</clipPath>
			<g style="clip-path:url(#SVGID_00000091016818852628030970000008549013268834203812_);">
				<circle class="st11" cx="62.8" cy="118.7" r="8"/>
			</g>
		</g>
	</g>
</g>
<path class="st13" d="M163.3,125.6C165.2,112.3,166,81,166,81c0-37.5-26-61.8-63.1-62.5l0,0h-4.4l0,0c-37.1,0.7-63.1,25-63.1,62.5
	c0,0,0.7,31.4,2.6,44.6c1.5,10.6-10.6,28.9,2.6,47c7.6,10.5,44.4,16.6,58.1,20.1c0.6,0.2,1.2,0.2,1.7,0.2c0.1,0,0.2,0,0.3,0
	c0.1,0,0.2,0,0.3,0c0.6,0,1.2-0.1,1.7-0.2c11.5-2.9,39.2-7.7,52.3-15.3c2.1-0.7,3.9-2,5-3.9c0.2-0.2,0.5-0.6,0.7-0.8
	C174,154.5,161.8,136.2,163.3,125.6z"/>
<path class="st14" d="M90.6,138c-0.8,0.1-1.2,0.6-0.5,0.8c2.5,1,7.2,2.8,10.3,2.8c3,0,7.4-1.7,9.7-2.7c0.7-0.2,0.3-0.8-0.5-0.8
	c-2.8-0.2-4,0.5-9.6,0.5C95.3,138.5,93.4,137.8,90.6,138z"/>
</svg>
