<?xml version="1.0" encoding="utf-8"?>
<!-- Generator: Adobe Illustrator 26.0.2, SVG Export Plug-In . SVG Version: 6.00 Build 0)  -->
<svg version="1.1" id="Calque_1" xmlns="http://www.w3.org/2000/svg" xmlns:xlink="http://www.w3.org/1999/xlink" x="0px" y="0px"
	 viewBox="0 0 244.4 234" style="enable-background:new 0 0 244.4 234;" xml:space="preserve">
<style type="text/css">
	.st0{fill:#5E5E5E;}
	.st1{clip-path:url(#SVGID_00000036930660177083924460000007916455666700263314_);}
	.st2{fill:#7F4A2F;}
	.st3{clip-path:url(#SVGID_00000080175512323880913840000018017403554769903748_);}
	.st4{clip-path:url(#SVGID_00000181078194066350229910000014300888380548281748_);}
	.st5{fill:#573623;}
	.st6{clip-path:url(#SVGID_00000038378904690272610830000013862352241046592433_);}
	.st7{clip-path:url(#SVGID_00000127741424250579560750000014687012329394010031_);}
	.st8{fill:#FFFFFF;}
	.st9{clip-path:url(#SVGID_00000047037066517451647290000002370428246787666329_);}
	.st10{clip-path:url(#SVGID_00000129205327317975450600000001257539072283015043_);}
	.st11{fill:#090909;}
	.st12{clip-path:url(#SVGID_00000178180379844101156920000012036154861219650479_);}
	.st13{fill:#8E5736;}
	.st14{fill:#59342B;}
	.st15{fill:#481F09;}
	.st16{fill:#C4D6B4;}
</style>
<path class="st0" d="M95.3,159.1c0,0,0,3,0,2v-0.2C95.3,160.4,95.3,159.7,95.3,159.1z"/>
<path class="st0" d="M95.3,159.1c0,0,0,3,0,2v-0.2C95.3,160.4,95.3,159.7,95.3,159.1z"/>
<path class="st0" d="M95.3,159.1c0,0,0,3,0,2v-0.2C95.3,160.4,95.3,159.7,95.3,159.1z"/>
<path class="st0" d="M95.3,159.1c0,0,0,3,0,2v-0.2C95.3,160.4,95.3,159.7,95.3,159.1z"/>
<path class="st0" d="M95.3,159.1c0,0,0,3,0,2v-0.2C95.3,160.4,95.3,159.7,95.3,159.1z"/>
<g id="random">
	<g>
		<g>
			<defs>
				<polygon id="SVGID_1_" points="181.8,126.7 181.8,126.7 216.6,126.7 216.6,187.2 181.8,187.2 				"/>
			</defs>
			<clipPath id="SVGID_00000049916460001498290310000016610442115509793435_">
				<use xlink:href="#SVGID_1_"  style="overflow:visible;"/>
			</clipPath>
			<g style="clip-path:url(#SVGID_00000049916460001498290310000016610442115509793435_);">
				<path class="st2" d="M181.8,183.2l7.6-45.8c0,0,12-16.7,24-8.4c8,5.5-0.7,52.9-9.3,56.1C189.5,190.6,181.8,183.2,181.8,183.2z"
					/>
			</g>
		</g>
	</g>
</g>
<g id="random2">
	<g>
		<g>
			<defs>
				<polygon id="SVGID_00000117668476083056099730000017228477121953352338_" points="63.2,126.7 63.2,126.7 28.4,126.7 28.4,187.2 
					63.2,187.2 				"/>
			</defs>
			<clipPath id="SVGID_00000074404922599109192320000016991895924802334889_">
				<use xlink:href="#SVGID_00000117668476083056099730000017228477121953352338_"  style="overflow:visible;"/>
			</clipPath>
			<g style="clip-path:url(#SVGID_00000074404922599109192320000016991895924802334889_);">
				<path class="st2" d="M63.2,183.2l-7.6-45.8c0,0-12-16.7-24-8.4c-8,5.5,0.7,52.9,9.3,56.1C55.5,190.6,63.2,183.2,63.2,183.2z"/>
			</g>
		</g>
	</g>
</g>
<g>
	<g>
		<defs>
			<polygon id="SVGID_00000138535356398710035530000017601378110304848532_" points="143,102 143,102 185,102 185,114.8 143,114.8 
							"/>
		</defs>
		<clipPath id="SVGID_00000070107291053752094310000005378057248144416390_">
			<use xlink:href="#SVGID_00000138535356398710035530000017601378110304848532_"  style="overflow:visible;"/>
		</clipPath>
		<g style="clip-path:url(#SVGID_00000070107291053752094310000005378057248144416390_);">
			<path class="st5" d="M183,114.8c-0.3,0-0.6-0.1-0.7-0.2c-4.2-1.8-8.5-3.2-12.9-4.2c-14.1-3.2-15-0.9-19.9,0
				c-1.4,0.3-4.9-0.6-5.6-1.4c-0.7-0.8-1.3-3.8-0.5-4.6c0.4-0.3,6.6-4.6,22.8-0.9c6.7,1.5,17.4,7.4,17.7,7.5c1,0.5,1.5,1.6,1,2.6
				C184.6,114.4,183.8,114.9,183,114.8L183,114.8z"/>
		</g>
	</g>
</g>
<g>
	<g>
		<defs>
			<polygon id="SVGID_00000166636714910223212740000005155470771465529784_" points="102,102 102,102 60,102 60,114.8 102,114.8 			
				"/>
		</defs>
		<clipPath id="SVGID_00000124156322170756033870000009053281366848949678_">
			<use xlink:href="#SVGID_00000166636714910223212740000005155470771465529784_"  style="overflow:visible;"/>
		</clipPath>
		<g style="clip-path:url(#SVGID_00000124156322170756033870000009053281366848949678_);">
			<path class="st5" d="M62,114.8c0.3,0,0.6-0.1,0.7-0.2c4.2-1.8,8.5-3.2,12.9-4.2c14.1-3.2,15-0.9,19.9,0c1.4,0.3,4.9-0.6,5.6-1.4
				c0.7-0.8,1.3-3.8,0.5-4.6c-0.4-0.3-6.6-4.6-22.8-0.9c-6.7,1.5-17.4,7.4-17.7,7.5c-1,0.5-1.5,1.6-1,2.6
				C60.4,114.4,61.2,114.9,62,114.8L62,114.8z"/>
		</g>
	</g>
</g>
<g>
	<g>
		<defs>
			<polygon id="SVGID_00000132089537562094065250000006061965641332703413_" points="151.9,127.4 151.9,127.4 179,127.4 179,153.4 
				151.9,153.4 			"/>
		</defs>
		<clipPath id="SVGID_00000005965999292955883570000015002981724835499927_">
			<use xlink:href="#SVGID_00000132089537562094065250000006061965641332703413_"  style="overflow:visible;"/>
		</clipPath>
		<g style="clip-path:url(#SVGID_00000005965999292955883570000015002981724835499927_);">
			<ellipse class="st8" cx="165.5" cy="140.4" rx="13.6" ry="13"/>
		</g>
	</g>
</g>
<g>
	<g>
		<defs>
			<polygon id="SVGID_00000181805307423882117090000013501263349267902114_" points="93.1,127.4 93.1,127.4 66,127.4 66,153.4 
				93.1,153.4 			"/>
		</defs>
		<clipPath id="SVGID_00000172413689352555275240000001306001683368745887_">
			<use xlink:href="#SVGID_00000181805307423882117090000013501263349267902114_"  style="overflow:visible;"/>
		</clipPath>
		<g style="clip-path:url(#SVGID_00000172413689352555275240000001306001683368745887_);">
			<ellipse class="st8" cx="79.5" cy="140.4" rx="13.6" ry="13"/>
		</g>
	</g>
</g>
<g>
	<g>
		<defs>
			<polygon id="SVGID_00000100352894379769976280000004058113640896912054_" points="156.3,133.3 156.3,133.3 174.5,133.3 
				174.5,151.4 156.3,151.4 			"/>
		</defs>
		<clipPath id="SVGID_00000008124935442334685250000007848103991415041213_">
			<use xlink:href="#SVGID_00000100352894379769976280000004058113640896912054_"  style="overflow:visible;"/>
		</clipPath>
		<g style="clip-path:url(#SVGID_00000008124935442334685250000007848103991415041213_);">
			<circle class="st11" cx="165.4" cy="142.3" r="9.1"/>
		</g>
	</g>
</g>
<g>
	<g>
		<defs>
			<polygon id="SVGID_00000036248651395706954600000001371315327833630899_" points="88.7,133.3 88.7,133.3 70.5,133.3 70.5,151.4 
				88.7,151.4 			"/>
		</defs>
		<clipPath id="SVGID_00000127743498379667621520000012089987821251014581_">
			<use xlink:href="#SVGID_00000036248651395706954600000001371315327833630899_"  style="overflow:visible;"/>
		</clipPath>
		<g style="clip-path:url(#SVGID_00000127743498379667621520000012089987821251014581_);">
			<circle class="st11" cx="79.6" cy="142.3" r="9.1"/>
		</g>
	</g>
</g>
<path class="st13" d="M195.1,150.2c2.1-15,3-50.5,3-50.5c0-42.5-29.4-70-71.5-70.8l0,0h-5l0,0c-42.1,0.8-71.5,28.3-71.5,70.8
	c0,0,0.8,35.5,3,50.5c1.7,12.1-12,32.7,2.9,53.3c8.6,11.9,50.3,18.8,65.8,22.7c0.7,0.2,1.3,0.3,2,0.3c0.1,0,0.3,0,0.4,0
	c0.1,0,0.3,0,0.4,0c0.7,0,1.3-0.1,2-0.3c13-3.3,44.4-8.7,59.2-17.3c2.3-0.7,4.4-2.2,5.7-4.4c0.3-0.3,0.6-0.7,0.8-0.9
	C207.1,182.9,193.3,162.2,195.1,150.2z"/>
<path class="st14" d="M111,164.2c-0.9,0.1-1.3,0.7-0.6,0.9c2.8,1.1,8.1,3.2,11.7,3.2c3.4,0,8.4-2,11-3.1c0.7-0.3,0.4-0.9-0.6-0.9
	c-3.2-0.2-4.5,0.6-10.8,0.6C116.3,164.8,114.2,164,111,164.2z"/>
<path class="st15" d="M197.1,78.3c0,0,0,5.4-0.7,16.9c-5,4.5-64.9-3.6-104.1-1.8c-8,0.4-32.6-0.2-41.6-0.7
	C49.8,80.9,49,78.2,49,78.2c0-36.5,28.2-60,70.7-60.7l0,0h5l0,0C167.4,18.3,197.1,41.9,197.1,78.3z"/>
<path class="st16" d="M104.6,7.7l34.4,0.4c32.9,0.3,59.3,27.2,59,60.1l0,0l-0.2,20.4l0,0L49,87.1l0,0l-1.9-13
	C44.8,53.3,51.3,32.5,68,19.8C78.2,12.1,90.9,7.6,104.6,7.7z"/>
</svg>
