<?xml version="1.0" encoding="utf-8"?>
<!-- Generator: Adobe Illustrator 26.0.0, SVG Export Plug-In . SVG Version: 6.00 Build 0)  -->
<svg version="1.1" id="Calque_1" xmlns="http://www.w3.org/2000/svg" xmlns:xlink="http://www.w3.org/1999/xlink" x="0px" y="0px"
	 viewBox="0 0 788 1005" style="enable-background:new 0 0 788 1005;" xml:space="preserve">
<style type="text/css">
	.st0{fill:#8E4917;}
	.st1{fill:#DE9D92;}
	.st2{fill:#F6AF97;}
	.st3{fill:#DB975A;}
</style>
<g id="Calque_7">
	<path class="st0" d="M447.9,57.1c-0.4,1.3,19.7,24.4,4.2,49.3c-10.2,16.4,1.4,29.3-8,38.7s-41.1,15.8-56.9,11.8
		s-37.5-0.4-44.5-16.7c-20-46.7-7.8-65.5-0.9-75.7c9.2-13.7,19.1,10.3,32.7,7.3S447.9,57.1,447.9,57.1z"/>
	<path class="st1" d="M432.3,127.9l3-22.8c0,0,11.8-9.4,19.2-3.6c4.6,3.7-4.5,28.2-12.6,30C437.3,132.6,432.3,127.9,432.3,127.9z"/>
	<path class="st1" d="M357.7,127.9l-3-22.8c0,0-11.9-9.4-19.2-3.6c-4.6,3.7,4.5,28.2,12.6,30C352.7,132.6,357.7,127.9,357.7,127.9z"
		/>
	<path class="st2" d="M393.2,168c-3-0.3-7.2-0.4-9.4-1.2c-5.4-2.1-11.8-7.7-18.6-14c-1.5-1.3-2.9-2.8-4-4.5
		c-3.6-5.9-5.4-20.1-5.5-27c-0.2-5.4-0.7-10.7-1.6-16l-4.1-2.9l0.4-20.7c0-21.5,20.7-39.7,42.2-39.7h4.5c21.5,0,42.2,18.2,42.2,39.7
		l0.4,20.7l-4.1,2.9c-0.9,5.3-1.5,10.6-1.6,16c-0.1,6.9-1.9,21.1-5.5,27c-1.1,1.7-2.5,3.2-4,4.5c-6.8,6.3-13.2,11.9-18.6,14
		c-2.2,0.8-6.4,0.9-9.4,1.2"/>
	<path class="st3" d="M371.4,61.8c-17.9-2.6-17.2-17.6-8.8-25.9c14.5-14.3,47.5-20.5,70.6-1.2c24.8,20.8,22.2,45.6,14.1,48.9
		c-2.5,1-3.8,15.7-5.2,14.6c-8.9-6.9-9.3-19.7-11.3-26.4c-2.5-8.1-3.8-22.7-38-13.2C390.3,59.3,374,62.2,371.4,61.8z"/>
	<path class="st3" d="M374.5,62.7c-31.2,6.3-24.6,40.7-24.6,40.7c-0.6,4.8-1.5,9.8-2.5,14.3c0.1,5.9-0.8,12.9-4.4,18
		c-7.4,10.4-21,8.6-21,8.6c6.3-1.8,14.4-22.3,10.6-35c-3.1-16.6-3.3-37.7,10.1-51.3c6.9-7,23-8.1,23.8-2.3
		C366.5,55.8,382.7,61,374.5,62.7z"/>
	<path class="st0" d="M374.5,61.7c-1.2-0.1-0.6-16,27-17s48.6,10.1,51.5,23.6s-4.9,31.3-5.3,31.3c-8.3,0.6-7.2,7.5-13-6.4
		c-3.7-8.9-3.6-23.3-15.9-27.7S399.9,64,374.5,61.7z"/>
	<path class="st0" d="M374.5,61.7c0,0-17.4-4.2-23,9.3c-4.1,9.8-2.5,25.4-1.6,31.4c0,0,4.2,3.5,4.4,2.4
		C354.3,104.1,354.2,67.4,374.5,61.7z"/>
</g>
</svg>
