<?xml version="1.0" encoding="utf-8"?>
<!-- Generator: Adobe Illustrator 26.0.0, SVG Export Plug-In . SVG Version: 6.00 Build 0)  -->
<svg version="1.1" id="Calque_1" xmlns="http://www.w3.org/2000/svg" xmlns:xlink="http://www.w3.org/1999/xlink" x="0px" y="0px"
	 viewBox="0 0 788 1005" style="enable-background:new 0 0 788 1005;" xml:space="preserve">
<style type="text/css">
	.st0{fill:#DE9D92;}
	.st1{fill:#F6AF97;}
	.st2{fill:#DB975A;}
</style>
<g id="Calque_7">
	<path class="st0" d="M432.3,127.9l3-22.8c0,0,11.8-9.4,19.2-3.6c4.6,3.7-4.5,28.2-12.6,30C437.3,132.6,432.3,127.9,432.3,127.9z"/>
	<path class="st0" d="M357.7,127.9l-3-22.8c0,0-11.9-9.4-19.2-3.6c-4.6,3.7,4.5,28.2,12.6,30C352.7,132.6,357.7,127.9,357.7,127.9z"
		/>
	<path class="st1" d="M393.2,168c-3-0.3-7.2-0.4-9.4-1.2c-5.4-2.1-11.8-7.7-18.6-14c-1.5-1.3-2.9-2.8-4-4.5
		c-3.6-5.9-5.4-20.1-5.5-27c-0.2-5.4-0.7-10.7-1.6-16l-4.1-2.9l0.4-20.7c0-21.5,20.7-39.7,42.2-39.7h4.5c21.5,0,42.2,18.2,42.2,39.7
		l0.4,20.7l-4.1,2.9c-0.9,5.3-1.5,10.6-1.6,16c-0.1,6.9-1.9,21.1-5.5,27c-1.1,1.7-2.5,3.2-4,4.5c-6.8,6.3-13.2,11.9-18.6,14
		c-2.2,0.8-6.4,0.9-9.4,1.2"/>
</g>
<g id="cheuveu">
	<path class="st2" d="M431.5,59.4c0,0-29.6,4.3-38.1,2.5c-38-8.3-34.4-0.3-39.9,5.2c4.3-19.5-4.5-25.8,39.1-29.1
		c11-0.8,22.4,0,28.4-6.5c1.6-1.7,0.9-6.6-1.6-9.3s6.8-0.8,14,4.9s12.9,16.3,8.5,22.6C439.4,53.3,431.5,59.4,431.5,59.4z"/>
</g>
</svg>
