<svg xmlns="http://www.w3.org/2000/svg" viewBox="0 0 200 200"><defs><style>.cls-1{fill:#de9d92;}.cls-2{fill:#f6af97;}.cls-3{fill:#db975a;}</style></defs><g id="Calque_7" data-name="Calque 7"><path class="cls-1" d="M138.93,123.93l3-22.8s11.84-9.43,19.2-3.55c4.62,3.69-4.47,28.23-12.61,30C143.91,128.61,138.93,123.93,138.93,123.93Z"/><path class="cls-1" d="M64.31,123.93l-3-22.8S49.42,91.7,42.06,97.58c-4.62,3.69,4.47,28.23,12.61,30C59.33,128.61,64.31,123.93,64.31,123.93Z"/><path class="cls-2" d="M99.79,164.06c-3.05-.26-7.19-.36-9.42-1.2-5.44-2.06-11.82-7.67-18.62-14a23,23,0,0,1-4-4.52c-3.57-5.9-5.35-20.14-5.5-27a119.52,119.52,0,0,0-1.65-16l-4.1-2.89.35-20.73c0-21.49,20.73-39.72,42.22-39.72h4.57c21.49,0,42.22,18.23,42.22,39.72l.35,20.73-4.1,2.89a121.41,121.41,0,0,0-1.65,16c-.15,6.9-1.93,21.14-5.5,27a23,23,0,0,1-4,4.52c-6.8,6.31-13.18,11.92-18.62,14-2.22.84-6.37.94-9.42,1.2"/></g><g id="cheuveu"><path class="cls-3" d="M56.49,98.38s1.19-18.13,2.78-22.57C61.49,69.63,66,59,72.14,56.77c6.55-2.39,23.34,1.73,30.31,1.84,6.56.1,19.88-5.26,26.07-3,3.92,1.4,8.83,9.11,10.62,12.9,3.21,6.8,7.06,29.92,7.06,29.92s2.65-21.55.93-29.27c-1.52-6.8-10.7-21.62-16.27-25.76s-20-6.21-26.9-6.93-21.22.91-27.58,3.74c-6,2.69-15.33,13-18.62,18.73-2,3.48-4.25,11.51-4.14,15.53C53.75,79.62,56.49,98.38,56.49,98.38Z"/></g></svg>