<?xml version="1.0" encoding="utf-8"?>
<!-- Generator: Adobe Illustrator 26.0.0, SVG Export Plug-In . SVG Version: 6.00 Build 0)  -->
<svg version="1.1" id="Calque_1" xmlns="http://www.w3.org/2000/svg" xmlns:xlink="http://www.w3.org/1999/xlink" x="0px" y="0px"
	 viewBox="0 0 788 1005" style="enable-background:new 0 0 788 1005;" xml:space="preserve">
<style type="text/css">
	.st0{fill:#DE9D92;}
	.st1{fill:#F6AF97;}
	.st2{fill:#DB975A;}
</style>
<g id="Calque_7">
	<path class="st0" d="M432.3,127.9l3-22.8c0,0,11.8-9.4,19.2-3.6c4.6,3.7-4.5,28.2-12.6,30C437.3,132.6,432.3,127.9,432.3,127.9z"/>
	<path class="st0" d="M357.7,127.9l-3-22.8c0,0-11.9-9.4-19.2-3.6c-4.6,3.7,4.5,28.2,12.6,30C352.7,132.6,357.7,127.9,357.7,127.9z"
		/>
	<path class="st1" d="M393.2,168c-3-0.3-7.2-0.4-9.4-1.2c-5.4-2.1-11.8-7.7-18.6-14c-1.5-1.3-2.9-2.8-4-4.5
		c-3.6-5.9-5.4-20.1-5.5-27c-0.2-5.4-0.7-10.7-1.6-16l-4.1-2.9l0.4-20.7c0-21.5,20.7-39.7,42.2-39.7h4.5c21.5,0,42.2,18.2,42.2,39.7
		l0.4,20.7l-4.1,2.9c-0.9,5.3-1.5,10.6-1.6,16c-0.1,6.9-1.9,21.1-5.5,27c-1.1,1.7-2.5,3.2-4,4.5c-6.8,6.3-13.2,11.9-18.6,14
		c-2.2,0.8-6.4,0.9-9.4,1.2"/>
</g>
<g id="cheuveu">
	<path class="st2" d="M419.4,56.4c0,0-16.1,12.2-22.8,15.2c-5.8,2.6-25.2,7.4-25.2,7.4l3.4-6.6c0,0-12.7,6.2-16.2,9
		c-7.1,5.6-8.4,14.2-8.4,14.2s-8-18.1-3.5-27.8c-1.8,1.3-6.9,2.3-6.9,2.3s6-14.8,13-20c6.3-4.8,14.1-7.3,22-7l-7.5-2.9
		c0,0,18.4-4,30.5-2.5c15.9,1.8,21.6,9.4,21.6,9.4s12.3-4,22,7.3c7.4,8.6,4.1,19.4,4.1,19.4l-6.2,21c0,0-2.7-14.1-3.4-16.6
		c-0.5-3-0.7-5.9-0.9-8.9l-2.1,5c-4.3-2.2-7.9-5.7-10.1-10C422,62.6,419.4,56.4,419.4,56.4z"/>
</g>
</svg>
