<?xml version="1.0" encoding="utf-8"?>
<!-- Generator: Adobe Illustrator 26.0.3, SVG Export Plug-In . SVG Version: 6.00 Build 0)  -->
<svg version="1.1" id="Calque_1" xmlns="http://www.w3.org/2000/svg" xmlns:xlink="http://www.w3.org/1999/xlink" x="0px" y="0px"
	 viewBox="0 0 788 1005" style="enable-background:new 0 0 788 1005;" xml:space="preserve">
<style type="text/css">
	.st0{fill:#5E6D70;}
	.st1{fill:#D48F72;}
	.st2{fill:#22677C;}
	.st3{fill:#293C51;}
	.st4{fill:none;stroke:#293C51;stroke-width:2;stroke-linecap:round;stroke-miterlimit:10;}
</style>
<g>
	<path class="st0" d="M337.8,716.1c1.3,5.9,9,10.3,18.1,10.4l0,0c8.7,0.1,16.1-3.8,17.7-9.3c0,0,9.4-39.3,9.6-53.4
		c0-3.3-1.7-13.3-1.7-13.3l-4.2-23.3c0,0-2.9-11-20.9-12.3c-20.6-1.6-21,5.6-21,5.6s-6.6,37-6.4,48.7
		C329.4,679.9,337.8,716.1,337.8,716.1z"/>
	<path class="st1" d="M355.8,706.8c-9.8,0.1-15.6,2.8-17.1,7.2c0,0-1.6,19.5-1.8,27.7c-0.4,13.2,2.6,40,6.9,53
		c0.9,2.8,2.9,11.4,2.9,11.4c0.7,2.5,4.9,4.4,9.7,4.3l0,0c4.7-0.1,8.5-2.1,8.8-4.6c0,0,0.9-9.9,1.5-13.2
		c2.4-11.9,10.1-35.7,10.7-47.7c0.3-7.2-2.5-29.3-2.5-29.3C373.8,708.3,364.2,706.8,355.8,706.8L355.8,706.8z"/>
	<path class="st1" d="M462.6,703c9.8-0.6,7.7-4.4,10.2-0.1c0,0,4.1,15.2,6.2,23.5c3.4,13.2,11.2,74.8,11.2,74.8
		c-0.1,2.6-1.1,7.4-5.9,7.6l-4-0.6c-4.7,0.2-5.4-1.6-6.2-4.2c0,0-21-49-24.3-61.1c-2-7.3-4.2-29.8-4.2-29.8
		C445,705.8,454.1,703.7,462.6,703L462.6,703z"/>
	<path class="st2" d="M356.1,801.6L356.1,801.6c-4.4,0.1-8.4,1.4-10.3,3.6l0,0c-4.2,4.8-22.2,11.2-22.2,11.2c-3.2,1.3-4.8,3.5-4,5.7
		l0,0l43.9-0.1l2.5-0.4c2.8-0.5,4.7-1.9,4.4-3.5l-2.5-11.6C366.6,803.5,361.6,801.5,356.1,801.6z"/>
	<path class="st3" d="M320.8,821.9L320.8,821.9c-0.6-1.9,1.9-3.7,5.5-4l26.1-2.1c3.4-0.3,6.5,0.9,7.3,2.6l1.5,3.3L320.8,821.9z"/>
	<path class="st4" d="M346.8,806.2c2.1-0.8,4.2-1.3,6.4-1.4c2.5,0,4.9,0.4,7.3,1.1"/>
	<path class="st4" d="M343.7,808.8c2.1-0.8,4.3-1.2,6.5-1.3c2.5,0,4.9,0.5,7.2,1.2"/>
	<path class="st2" d="M482.6,807.1c3.9-1.1,3.5-3.2,5.1-4.4c0.9-0.7,4.8-1.5,5.4-0.7c6.8,10.4,37.9,15.8,37.9,15.8
		c3.3,1.7,4.1,4.2,3.6,6.7l0,0c0,0-27.1,5.4-41.2-0.4c-2.8-1.2-10.1-1.7-10.1-1.7s-13.1,0.1-12.4-3.1l1.7-14.3
		C473.5,801.6,476.1,808.9,482.6,807.1z"/>
	<path class="st3" d="M534.9,824.5c0.4-4.2-2.8-6.8-3.8-6.6c-1.5,0.2-4,1.2-5.5,1.4c-3.3,0.2-6.5,0.2-9.8,0
		c-1.8-0.1-3.4,1.3-3.5,3.2c0,0.1,0,0.1,0,0.2v4c0,0,4.5,0.4,15.1-1C529.1,825.5,534.9,824.5,534.9,824.5z"/>
	<path class="st4" d="M496.6,807c-2.1,0.6-4.3,0.9-6.5,1.1"/>
	<path class="st4" d="M502,809.7c-2.1,0.7-4.2,1.1-6.4,1.3"/>
	<path class="st3" d="M370.6,789.7L370.6,789.7c-0.5-2.3,23.3-146.8,23.3-146.8h5.9c0,0,31.4,68.5,33,74.1c3,10.7,31,69.2,31,69.2
		s23.9,0.2,25.4,2.3s0.1-14.1,0.1-14.1s-11.4-86.9-17.2-115.4c-2.2-11-11.2-43.2-11.2-43.2L450,589.1c0,0-113-6.8-113-1s1.3-5.8,0,0
		c-3.6,15.5-11,70.3-10.8,86.3c0.5,29.5,14.8,114.8,14.8,114.8L370.6,789.7"/>
	<path class="st2" d="M366.8,795.5l-25.1-2c-2.2-0.2-4.1-1.9-4.4-4.1l-0.4-2.4c-0.5-3,2-5.7,5.1-5.5l25.9,1.8
		c2.8,0.2,4.9,2.8,4.4,5.6l-0.4,2.5C371.6,793.9,369.3,795.6,366.8,795.5z"/>
	<path class="st2" d="M489,791.8l-25,0.4c-2,0-3.9-1.2-4.6-3.2l-1.7-4.6c-1.1-3.1,1.1-6.4,4.5-6.5l26-0.4c2.4,0,4.4,1.7,4.8,4
		l0.7,4.6C494.1,789.1,491.9,791.7,489,791.8z"/>
</g>
</svg>
