<?xml version="1.0" encoding="utf-8"?>
<!-- Generator: Adobe Illustrator 26.0.3, SVG Export Plug-In . SVG Version: 6.00 Build 0)  -->
<svg version="1.1" id="Calque_1" xmlns="http://www.w3.org/2000/svg" xmlns:xlink="http://www.w3.org/1999/xlink" x="0px" y="0px"
	 viewBox="0 0 788 1005.1" style="enable-background:new 0 0 788 1005.1;" xml:space="preserve">
<style type="text/css">
	.st0{fill:none;stroke:#2E858E;stroke-width:3;stroke-miterlimit:10;}
	.st1{fill:#90573A;}
	.st2{fill:#7F4C36;}
	.st3{fill:#3D0811;}
	.st4{fill:#704232;}
	.st5{fill:#593328;}
	.st6{fill:#2E858E;}
</style>
<path class="st0" d="M358.7,137.5c-1-3.9-1.5-7.9-1.5-12.1c0-27,22.4-48.9,50-48.9s50,21.9,50,48.9c0,4.3-0.6,8.5-1.7,12.5"/>
<path class="st1" d="M444.2,120.9c-1.4-6.7-5-12.8-10.4-17.2l-4.3-3.5c-4.8-3.9-10.8-6.2-17-6.6l-5.6-0.4h-0.1l-5.6,0.4
	c-6.2,0.3-12.2,2.7-17,6.6l-4.2,3.5c-5.4,4.4-9,10.4-10.4,17.2c-0.5,2.4-0.9,4.4-0.9,4.6c0,0.5,2.7,14.8,2.7,14.8v8l0.2,1.1v0.1
	l-0.1-0.2l3.7,25.3c0.4,2.7,1.6,5.3,3.4,7.3c0,0,0,0,0.1,0.1l0,0c0,0,12.1,11.5,16.5,14.9c1.6,1.3,10.6,2.8,11.6,3h0.1l0.9-0.2
	l0.6-0.1c2.8-0.6,8.8-1.8,10.1-2.8c4.3-3.5,16.5-14.9,16.5-14.9c1.9-2,3.1-4.5,3.5-7.2l4.1-25.5l0.3-1.4l-0.6-7.4
	c0,0,2.7-14.3,2.7-14.8C445,125.3,444.6,123.3,444.2,120.9z"/>
<path class="st2" d="M373.4,162.4l-1.9-13.2c0,0-4.7-4.7-5.1-4.8s-0.6,2.1-0.6,2.1l1.1,9.4l2.7,4.7L373.4,162.4z"/>
<path class="st3" d="M415.8,74c-0.1,1.9,20.1,25.4-18.5,38.1c-24.4,8-25.7,34.7-25.7,34.7c-26.8-24-2.2-72.6,28.1-77.4
	S415.8,74,415.8,74z"/>
<path class="st3" d="M422.7,71.8c6.5-0.3,12.7,2.5,17.2,7.3c6.8,7.2,15.2,21.9,15.8,46.6c0.2,10-3.6,36.5-21.4,34
	c0,0,13.8,5.2,5.4-30.5c-7.3-30.6-27.5-24.3-28.6-44C410.5,74.8,416.7,72.1,422.7,71.8z"/>
<g>
	<path class="st4" d="M406.5,162.1c0,0-5.4-2.2-5.6-2.4s-1,1.2-1,1.2l-3.9,1.3l0.5,3.1l3.2,1.2l4.2-1.2l2.5,1.1L406.5,162.1z"/>
	<path class="st5" d="M402.7,164.2l-2.2-2.1l-3,1c0,0,0.4,1.5,0.8,1.6l2.6,0.9L402.7,164.2z"/>
	<path class="st4" d="M406.5,162.1c0,0,5.4-2.2,5.6-2.4s1,1.2,1,1.2l3.9,1.2l-0.5,3.1l-3.2,1.2l-4.2-1.2l-2.5,1.1L406.5,162.1z"/>
	<path class="st5" d="M410,164.2l2.2-2.1l3,1c0,0-0.4,1.5-0.8,1.6l-2.6,0.9L410,164.2z"/>
</g>
<g>
	<path class="st6" d="M372.8,169.6l-1.7,0.4c-1.8,0.4-3.6-0.8-3.9-2.6l-5.4-26.5c-0.4-1.8,0.8-3.6,2.6-3.9l1.7-0.4
		c1.8-0.4,3.6,0.8,3.9,2.6l5.4,26.5C375.7,167.4,374.6,169.2,372.8,169.6z"/>
	<path class="st6" d="M366.8,167.8l-3.5,0.7c-1.8,0.4-3.6-0.8-3.9-2.6l-4.2-20.5c-0.4-1.8,0.8-3.6,2.6-3.9l3.5-0.7L366.8,167.8z"/>
	<path class="st6" d="M356.8,135.7l2.1-1.2c0.5-0.3,1.1,0,1.2,0.5l1.5,7.3c0.1,0.4-0.2,0.8-0.5,0.9l0,0c-0.4,0.1-0.7,0-0.9-0.4
		l-3.6-6.1C356.2,136.5,356.4,136,356.8,135.7z"/>
</g>
<g>
	<path class="st6" d="M441.8,169.6l1.7,0.4c1.8,0.4,3.6-0.8,3.9-2.6l5.4-26.5c0.4-1.8-0.8-3.6-2.6-3.9l-1.7-0.4
		c-1.8-0.4-3.6,0.8-3.9,2.6l-5.4,26.5C438.8,167.4,439.9,169.2,441.8,169.6z"/>
	<path class="st6" d="M447.8,167.8l3.5,0.7c1.8,0.4,3.6-0.8,3.9-2.6l4.2-20.5c0.4-1.8-0.8-3.6-2.6-3.9l-3.5-0.7L447.8,167.8z"/>
	<path class="st6" d="M457.8,135.7l-2.1-1.2c-0.5-0.3-1.1,0-1.2,0.5l-1.5,7.3c-0.1,0.4,0.2,0.8,0.5,0.9l0,0c0.4,0.1,0.7,0,0.9-0.4
		l3.6-6.1C458.3,136.5,458.1,136,457.8,135.7z"/>
</g>
<path class="st0" d="M370.3,169l-14.9,11.8c-2.5,2-2,5.9,0.9,7.2l10.1,4.4"/>
<circle class="st6" cx="370.3" cy="192.4" r="5.8"/>
</svg>
