<?xml version="1.0" encoding="utf-8"?>
<!-- Generator: Adobe Illustrator 26.0.3, SVG Export Plug-In . SVG Version: 6.00 Build 0)  -->
<svg version="1.1" id="Calque_1" xmlns="http://www.w3.org/2000/svg" xmlns:xlink="http://www.w3.org/1999/xlink" x="0px" y="0px"
	 viewBox="0 0 788 1005.1" style="enable-background:new 0 0 788 1005.1;" xml:space="preserve">
<style type="text/css">
	.st0{fill:#28060D;}
	.st1{fill:#90573A;}
	.st2{fill:#704232;}
	.st3{fill:#593328;}
	.st4{fill:#7F4C36;}
	.st5{fill:#93273E;}
	.st6{clip-path:url(#SVGID_00000027576230308060570360000015553735684889215117_);}
	.st7{fill:#B7837E;}
	.st8{fill:#B26959;}
	.st9{fill:#3D0811;}
	.st10{fill:#B22947;}
	.st11{fill:#87213C;}
</style>
<path class="st0" d="M421.4,116.8c15.7-3.7,22.7-6.1,26-6.7c3.2-0.6,2.9,0.6,3.7,4c1.8,6.9,4.6,38.5,4.6,38.5s-2.3,16.2-5.8,24.4
	s-2.5,38.2-4.5,33.8c-5.1-11.6-13-25.3-18.2-25.8c-5.2-0.5-5.8-1.6-8.8-6.3C415.5,174,421.4,116.8,421.4,116.8z"/>
<g>
	<path class="st1" d="M371.2,141.5l-5.6-1.6c-1-0.3-2.1,0-2.8,0.8l-0.3,0.3c-0.5,0.6-0.8,1.3-0.8,2.1l0.9,12.1
		c0,0.5,0.2,0.9,0.4,1.3c1.3,1.9,5.1,7.8,5.6,8.6c0.3,0.4,1.5,0.8,2.7,1.2c1.5,0.4,3.1-0.5,3.4-2.1l2.6-11.2
		c0.2-0.7,0.1-1.3-0.2-1.9l-4.3-8.2C372.6,142.2,372,141.7,371.2,141.5z"/>
	<path class="st1" d="M442,141.5l5.6-1.6c1-0.3,2.1,0,2.8,0.8l0.3,0.3c0.5,0.6,0.8,1.3,0.8,2.1l-0.9,12.1c0,0.5-0.2,0.9-0.4,1.3
		c-1.3,1.9-5.1,7.8-5.6,8.6c-0.3,0.4-1.5,0.8-2.7,1.2c-1.5,0.4-3.1-0.5-3.4-2.1l-2.6-11.2c-0.2-0.7-0.1-1.3,0.2-1.9l4.3-8.2
		C440.6,142.2,441.2,141.7,442,141.5z"/>
	<path class="st1" d="M445,125.5c0,0.5-2.7,14.8-2.7,14.8v8l-0.1,0.9l-3.7,25.5c-0.4,2.7-1.6,5.2-3.5,7.2c0,0-12.2,11.4-16.5,14.9
		c-1.3,1-7.3,2.2-10.1,2.8l-0.6,0.1l-0.9,0.2l0,0l0,0h-0.1c-1-0.2-10-1.7-11.6-3c-4.4-3.4-16.5-14.9-16.5-14.9c-1.8-2-3-4.6-3.4-7.3
		l-3.7-25.3l-0.2-1.1v-8c0,0-2.7-14.3-2.7-14.8c0-0.2,0.4-2.2,0.9-4.6c1.4-6.8,5-12.8,10.4-17.2l4.2-3.5c4.8-3.9,10.8-6.3,17-6.6
		l5.6-0.4h0.1l0,0l5.6,0.4c6.2,0.4,12.2,2.7,17,6.6l4.3,3.5c5.4,4.4,9,10.5,10.4,17.2C444.6,123.3,445,125.3,445,125.5z"/>
	<path class="st2" d="M406.5,162c0,0-5.4-2.2-5.6-2.4s-1,1.2-1,1.2l-3.9,1.3l0.5,3.1l3.2,1.2l4.2-1.2l2.5,1.1L406.5,162z"/>
	<path class="st3" d="M402.7,164.1l-2.2-2.1l-3,1c0,0,0.4,1.5,0.8,1.6l2.6,0.9L402.7,164.1z"/>
	<path class="st2" d="M406.5,162c0,0,5.4-2.2,5.6-2.4s1,1.2,1,1.2l3.9,1.2l-0.5,3.1l-3.2,1.2l-4.2-1.2l-2.5,1.1L406.5,162z"/>
	<path class="st3" d="M410,164.1l2.2-2.1l3,1c0,0-0.4,1.5-0.8,1.6l-2.6,0.9L410,164.1z"/>
	<path class="st4" d="M440.3,161.4l1.9-13.2c0,0,4.7-4.7,5.1-4.8s0.6,2.1,0.6,2.1l-1.1,9.4l-2.7,4.7L440.3,161.4z"/>
	<path class="st4" d="M373.4,162.4l-1.9-13.2c0,0-4.7-4.7-5.1-4.8s-0.6,2.1-0.6,2.1l1.1,9.4l2.7,4.7L373.4,162.4z"/>
	<circle class="st5" cx="371.2" cy="163.8" r="1.3"/>
	<circle class="st5" cx="368.4" cy="161.4" r="0.8"/>
	<circle class="st5" cx="366.4" cy="158.8" r="0.6"/>
	<circle class="st5" cx="441.9" cy="163.8" r="1.1"/>
	<circle class="st5" cx="445" cy="161.4" r="0.9"/>
	<circle class="st5" cx="447" cy="158.2" r="0.6"/>
</g>
<g>
	<g>
		<g>
			<g>
				<g>
					<g>
						<g>
							<g>
								<defs>
									<polygon id="SVGID_1_" points="369.4,128.4 369.4,128.4 354.1,128.4 354.1,158.1 369.4,158.1 									"/>
								</defs>
								<clipPath id="SVGID_00000127766767974376508010000017869360173742419330_">
									<use xlink:href="#SVGID_1_"  style="overflow:visible;"/>
								</clipPath>
								<g style="clip-path:url(#SVGID_00000127766767974376508010000017869360173742419330_);">
									<path class="st7" d="M368.4,134.4c0,0-5.1-6.3-8.2-6c-4.5,0.5-6.5,8.9-6,12.6c0.8,4.7,4.9,14.9,10.2,17
										c1,0.4,4.9-0.9,4.9-0.9L368.4,134.4z"/>
								</g>
							</g>
						</g>
					</g>
				</g>
			</g>
		</g>
	</g>
</g>
<path class="st8" d="M384.2,101.3c0.9-2.1,2-4,3.3-5.8c1.4-1.8,2.9-3.4,4.5-4.9c1.7-1.5,3.4-2.9,5.4-4c1.9-1.2,3.9-2.2,6-2.9
	c-2.1,0.9-4,2-5.8,3.1c-1.9,1.2-3.6,2.6-5.2,4c-1.7,1.5-3.2,3-4.6,4.7C386.5,97.4,385.3,99.3,384.2,101.3z"/>
<path class="st9" d="M412.5,77.8c2.6,13.5-8.9,18.5-0.6,20c15.3,2.7,22.9,7.3,26.8,13.8c7.4,12.2,15.4,36.9,6.8,56.5
	c-6,13.6-8.2,46,11.8,56.1c0,0-10.5-11.3,3.9-39.5s-2.5-68.7-23.1-89.6C412.5,69,412.5,77.8,412.5,77.8z"/>
<path class="st9" d="M412.5,77.8c0,0.8,1.1,16.7-13.9,20.7c-15.1,4-20.5,12.6-22.7,19.8c-4.2,13.6-6.3,39.4,6.9,56.5
	c9,11.8,18.9,42.7,2,57.3c0,0,7.5-13.5-13.3-37.5c-20.8-24-22.8-69.4-5.7-93.5C396,58.3,412.5,77.8,412.5,77.8z"/>
<path class="st10" d="M329.8,116.2c0.9-4.7,3.9-8.3,6.8-11.8c10.2-12.6,22-23.6,34.5-33.8c1.9-1.5,2.9-3,1.7-5.1
	c-1.4-2.6-0.5-4.5,1.5-6c2.2-1.7,4.9-2.1,7,0c1.8,1.7,2.9,1,4.3-0.1c9.6-7,19.7-13.3,30.7-18c5.8-2.5,11.8-3.7,18-3.8
	c3.6,0,6.7,1.1,7.9,5c1.9,6.9-2.9,11-6.6,15.3c-10.8,12.4-24.6,21.3-38.3,30.2c-9.3,6.1-19,11.9-29,17c-9.7,5-19.4,9.9-29.7,13.4
	C335.2,119.6,332,120,329.8,116.2z"/>
<path class="st11" d="M329.8,116.2c2.2,3.7,5.4,3.3,8.8,2.3c10.3-3.4,20-8.5,29.7-13.4c10-5.1,19.6-10.9,29-17
	c13.7-8.9,27.3-17.8,38.3-30.2c3.7-4.3,8.5-8.5,6.6-15.3c3.2,5.2,2.8,10.9,1.7,16.5c-1.7,9-5.1,17.3-9.7,25.2c-1.7,0.9-3.3-0.1-5,0
	c-12.8,1-24.3,6-35.5,11.7c-9.2,4.7-18,10-27.5,14.3c-4.3,2-9.1,3-13.1,6c-5.7,1.9-11.3,4-17.3,4.5
	C331.2,121.2,330.2,120.4,329.8,116.2z"/>
<path class="st10" d="M353,116.3c3.9-3,8.7-4.1,13.1-6c9.4-4.2,18.3-9.6,27.5-14.3c11.2-5.7,22.7-10.7,35.5-11.7
	c1.7-0.1,3.3,0.8,5,0c0.9,2.7,1.8,5.3,2.8,7.9c0.7,1.7,0.1,2.1-1.5,2.2c-17.2,0.9-33.2,6.5-49,12.7c-10.2,4-20.5,8.3-29.1,15.3
	c-1.5,1.2-2.1,0.6-2.5-0.9C354.2,119.8,353.6,118.1,353,116.3z"/>
</svg>
