<?xml version="1.0" encoding="utf-8"?>
<!-- Generator: Adobe Illustrator 26.0.3, SVG Export Plug-In . SVG Version: 6.00 Build 0)  -->
<svg version="1.1" id="Calque_1" xmlns="http://www.w3.org/2000/svg" xmlns:xlink="http://www.w3.org/1999/xlink" x="0px" y="0px"
	 viewBox="0 0 158 161.8" style="enable-background:new 0 0 158 161.8;" xml:space="preserve">
<style type="text/css">
	.st0{fill:#590400;}
	.st1{fill:#90573A;}
	.st2{fill:#704232;}
	.st3{fill:#593328;}
	.st4{fill:#7F4C36;}
	.st5{fill:none;}
	.st6{fill:#770B00;}
</style>
<ellipse class="st0" cx="74.7" cy="101.8" rx="54.5" ry="33.3"/>
<ellipse class="st0" cx="74.8" cy="84.6" rx="54.5" ry="32.7"/>
<path class="st1" d="M109.3,51.6c-1.3-6.3-4.7-12.1-9.8-16.3L95.4,32c-4.5-3.7-10.2-5.9-16.1-6.2l-5.3-0.4H74l-5.3,0.4
	c-5.9,0.3-11.5,2.6-16.1,6.2l-4,3.3c-5.1,4.2-8.5,9.8-9.8,16.3c-0.5,2.3-0.9,4.2-0.9,4.3c0,0.5,2.6,14,2.6,14v7.6l0.2,1l3.5,23.9h0
	c0.4,2.6,1.5,5,3.2,6.9c0,0,11.4,10.9,15.6,14.1c1.5,1.2,10,2.6,11,2.8h0.1l0.9-0.2l0.6-0.1c2.6-0.6,8.3-1.7,9.5-2.6
	c4.1-3.3,15.6-14.1,15.6-14.1c1.8-1.9,2.9-4.2,3.3-6.8h0l3.5-24.1l0.1-0.9v-7.6c0,0,2.6-13.5,2.6-14
	C110.1,55.7,109.7,53.9,109.3,51.6z"/>
<g>
	<path class="st1" d="M40.2,71l-5-1.4c-1-0.3-2.2,0-2.9,0.8l0,0c-0.6,0.6-0.9,1.4-0.9,2.3l0.8,11.2c0,0.5,0.2,0.9,0.5,1.4
		c1.2,1.9,4.8,7.4,5.3,8c0.2,0.4,1.1,0.7,2.2,1c1.6,0.5,3.3-0.6,3.7-2.2L46.2,82c0.2-0.7,0.1-1.4-0.3-2.1L42,72.4
		C41.7,71.7,41,71.2,40.2,71z"/>
	<path class="st1" d="M107.4,71l5-1.4c1-0.3,2.2,0,2.9,0.8l0,0c0.6,0.6,0.9,1.4,0.9,2.3l-0.8,11.2c0,0.5-0.2,0.9-0.5,1.4
		c-1.2,1.9-4.8,7.4-5.3,8c-0.2,0.4-1.1,0.7-2.2,1c-1.6,0.5-3.3-0.6-3.7-2.2L101.4,82c-0.2-0.7-0.1-1.4,0.3-2.1l3.9-7.6
		C105.9,71.7,106.6,71.2,107.4,71z"/>
	<path class="st2" d="M74,90.5c0,0-5.4-2.2-5.6-2.4s-0.9,1.1-0.9,1.1l-3.6,1.1l0.5,2.9l3,1.1l4-1.1l2.6,1.1L74,90.5z"/>
	<path class="st3" d="M70.1,92.4l-2.1-2l-2.8,0.9c0,0,0.4,1.4,0.8,1.5l2.5,0.9L70.1,92.4z"/>
	<path class="st2" d="M73.4,90.5c0,0,5.4-2.2,5.6-2.4s0.9,1.1,0.9,1.1l3.7,1.1l-0.5,2.9l-3,1.1l-4-1.1l-2.6,1.1L73.4,90.5z"/>
	<path class="st3" d="M77,92.4l2.1-2l2.8,0.9c0,0-0.4,1.4-0.8,1.5l-2.5,0.9L77,92.4z"/>
	<path class="st4" d="M105.7,89.9l1.8-12.5c0,0,4.4-4.4,4.8-4.5c0.4-0.1,0.6,2,0.6,2l-1,8.9l-2.6,4.4L105.7,89.9z"/>
	<path class="st4" d="M42.4,90.8l-1.8-12.5c0,0-4.4-4.4-4.8-4.5c-0.4-0.1-0.6,2-0.6,2l1,8.9l2.6,4.4L42.4,90.8z"/>
</g>
<rect x="73.4" y="19.9" class="st5" width="38.8" height="104.5"/>
<rect x="34.7" y="19.9" class="st5" width="38.8" height="104.5"/>
<path class="st6" d="M138.1,87.7c-3.4-25.3-10.8-49-25.1-69.1c-6.2-8.6-14-15.2-24.1-17.1c0,0,0,0,0-0.1c-4.3-0.6-8.5-1.3-12.8-1.7
	c-12.6-1-22.8,5.5-31.7,14.6c-16,16.8-25.6,38.1-33.1,61C8.2,85,8.4,94.2,12.5,103c3.9,8.2,9.5,15.2,16.4,20.3
	c5.1,3.8,9.5,9.1,15.9,10.3c0.6-3.6-0.8-5.5-3.6-7.4c-10.7-7.1-18.6-16.7-21.4-31.3c1.6,0.1,1.7,1.2,2,2.1
	c3.7,12.1,11.8,19.9,20.6,27c1.6,1.2,2.7,1,4.3-0.5c2.6-2.5,5.7-3.5,9.3-2.3c-0.8,1.5-1.8,1-2.7,1.1c-4.6,0.6-6.6,4.7-4.4,9.5
	c0.7,1.4,2.5,2.6,0.7,4.4c-0.1,2.6-3.5,3.4-2.9,6.4c0,3.2,3.2,5.4,1.9,9.1c-0.1,0.7,1.1,1.9,2.4,2.5c8.5,4.1,17.7,4.9,26.7,6.7
	c1.5,0.3,1.9-0.8,2.5-2c1.3-2.6,2.8-4.9,4.3-7.4c0.3-0.6,0.6-0.7,0.9,0c-1,5.9-4.7,10.3-6.5,15.8c-2.6,8-5.9,15.8-8.3,24
	c-2.2,7.5-4.3,14.7-4.2,22.7c0,0.5,0,0.9,0,1.3c0.1,1-0.4,2.6,0.9,2.8c1.5,0.3,1.3-1.5,1.5-2.5c1-4.7,2.6-8.5,4.2-13.6
	c2-6.2,4.3-11.5,6.2-17.9c2.6-8.3,5.1-17.6,8.1-25.7c0.7-1.7,1.1-3.8,3.9-5.2c-6.5,16.6-11.4,32.9-17.2,48.9
	c-0.4,4.6-2.9,8.5-3.8,13.3c0.9,0,1.3,0.1,1.5-0.1c3.6-4.4,7.7-4.6,12-2.2c4.5,2.5,9.1,5.1,13.8,7.8c1.6,0.8,3.4,2.4,9.2,1.6
	c0.3-1.7,0.5-3.4,0.8-5.1c0.3-7.5-0.4-14.8-0.8-22.3c-1.2-14-0.9-28-0.8-42c0.1-9.5-0.3-18.3-11.2-21.9c8.7-0.7,13.9,4.6,13.4,11.2
	c-0.5,7-1,13.9-1.3,20.9c-0.5,10.7,0.4,21.4,1.3,32c3.9-0.9,7.9-1,11.6-3c4.8-2.6,5.3-4.4,1.7-9.1c-0.4-0.6-0.8-1.1-1.1-1.7
	c-2.7-3.9-3.4-8.8-4.7-13.3c-2.1-7.3-2.7-14.9-5-22.2c-0.3-0.9-0.1-2,0.9-3.2c2.8,12.7,5.9,25.2,8.8,37.9c4.2-0.6,5.8-4.5,8.1-7.6
	c0.8-1-0.2-2.4-0.8-3.5c-3.6-7.2-6.1-14.8-8.9-22.4c-2.7-4.6-5.6-9.2-8.3-13.8c0,0,0,0,0,0c0,0,0.1,0,0.1,0c2.8,4.4,7.7,0.4,9.1-0.7
	c3.3-2.3,6.8-4.5,9.7-7.3c4.4-4.1,8.8-8.2,9.7-15.2C139.9,102.9,139.1,95.2,138.1,87.7z M53.3,135.9c-0.3-0.1-0.5-0.5-0.8-0.8
	c0.2-0.2,0.3-0.4,0.6-0.6c0.2,0.2,0.7,0.4,0.8,0.7C54.1,135.7,53.7,136,53.3,135.9z M96,141.7c-1,2.6-1,5.9-3.8,7.4
	c-0.3,0.6-0.6,1.1-0.9,1.7c-0.1,0.4-0.2,0.8-0.3,1.1c-0.1,0-0.3-0.2-0.3-0.2c0.1-0.4,0.3-0.7,0.6-0.9c0.2-0.7,0.5-1.2,0.8-1.9
	C92.4,145.8,94.2,143.8,96,141.7z M100.8,129.9c-5.4-1-6.3-0.5-8.2,5.2c-1.3,4.1-3.2,7.9-4.9,11.9c-1.2,3-3.9,2.6-5.9,2.7
	c-9.4,0.3-18.8,0.9-28.1-1.4c4.9,0,9.7-0.1,14.7,0c5.2,0.1,10.3-0.6,15.4-0.9c2.1-0.2,3.1-1.6,3.1-3.4s-1.8-1.6-2.9-1.7
	c-6.4-0.8-12.8-1.3-19.2-1.9c-3-1.2-6.5-1-9.2-3.9c2.9,1.3,6.4,0.9,9.2,2.9c6.9-0.1,13.7,1.2,20.6,1.1c2.6,0,3.9-1,4.3-3.9
	c0.1-0.7,0.2-1.4,0.4-2.1c1.5-6.9,0.9-7.9-5.1-9.6c-0.8-0.2-1,1.5-1.8,1.3c-7.6-1.4-7.9,1-15.4-0.4c-0.6,0.9-8.8-4.9-9.3-5.9
	c-2.9,0.1-5-1.7-7.3-3.3c-10.3-7.4-18.6-16.4-20.4-31c-1-9.5-0.5-18.7,2.5-27.7c0.5-1.6,4.5-9.3,6.2-11.4
	c11-14.3,25.2-19.7,41.7-18.2c6.1,0.6,11.1,4.7,15.5,9.7c5.9,6.6,10.8,13.9,13.6,22.7c-0.3,3,3.2,3.9,2.9,6.9
	c0.4,5.2,2.6,9.9,3.2,15.2c0.7,6.3-0.6,11.9-3.7,16.8c-3.8,6.1-8.7,11-14.6,14.4c-2.7,2.6-5.3,5.5-9.1,6c-0.7,0.3-2.4,1.9-2.4,2.6
	c2.8,0.9,5.5,2,8,3.7c2.6,1.7,4.3-0.2,6.2-1.5c8.4-6,14.6-14.3,18.9-24.3c-1.6,12.9-8.9,20.8-18.5,26.9c2.8,2.5,7.6,1,8.8,6.2
	C106.9,133,104.1,130.6,100.8,129.9z"/>
<path class="st0" d="M44.8,133.7c0.5-3.6-0.5-5.5-3.3-7.4c-10.7-7.2-19.4-16.7-22-31.2c1.5-1,2.3,1.3,2.6,2
	c3.7,12.1,11.8,19.9,20.6,27c1.6,1.2,2.7,0.9,4.3-0.5c2.6-2.5,5.6-3.5,9.3-2.3c-0.9,1.4-2,1-2.7,1.1c-4.6,0.7-6.6,4.7-4.4,9.5
	c0.7,1.4,2.4,2.6,0.7,4.4C47.9,135.8,45.7,135.7,44.8,133.7z"/>
<path class="st0" d="M83,124.4c1.3-0.3,2.6-1.4,3.8-1.7c2.7,0.9,5.5,2,8,3.7c2.6,1.7,4.3-0.2,6.2-1.5c8.3-6,14.6-14.2,18.9-24.3
	c-1.6,12.9-8.8,20.8-18.5,26.9c3.1,2.2,7.8,1.1,8.8,6.2l0,0c-3.3-0.7-6.1-3.1-9.5-3.8c-5.5-1-6.4-0.5-8.2,5.2
	c-1.3,4.1-3.3,7.9-4.9,11.9c-1.2,3-3.9,2.7-5.9,2.7c-9.4,0.3-18.8,0.8-28.1-1.5c4.9,0,9.8-0.2,14.7-0.1c5.2,0.1,10.2-0.7,15.3-1
	c2.2-0.1,3-1.2,3-3.1c0-1.8-1.7-1.6-2.7-1.7c-6.3-0.8-12.8-1.2-19.2-1.9c0-0.3,0-0.9-0.1-1.2c6.9-0.1,13.7,1.2,20.6,1.1
	c2.7-0.1,3.9-0.9,4.3-3.6c0.1-0.7,0.3-1.4,0.4-2.1c1.5-7,0.9-8-5.1-9.6C84.5,125,83.8,124.7,83,124.4z"/>
<g>
	<path class="st0" d="M96.6,37.4c-4.5-4.9-9.5-9-15.6-9.5c-16.3-1.4-30.5,3.9-41.6,18c-1.6,2.2-3.5,4.1-3.8,7.1
		c-0.9,1.2-1.9,3.4-2.4,4.9c-3,9-3.6,18.2-2.5,27.7c1.7,14.6,10.1,23.6,20.4,31c2.3,1.6,4.4,3.4,7.3,3.3c-1.8-0.9-1.8-1.7-2.8-2.6
		c-5.8-4.7-12.3-8.4-15.2-16.4c-0.1-0.5-2.1-5.1-2.4-7.2c-0.8-6.4-1.7-12.9-2.2-19.3c-0.3-3.7-0.9-7.6,0.6-11.2
		c-0.7-1.2-0.5-1.8,0-0.9c3.2-1.3,22-13.8,24.9-14.4c8.2-1.6,16.6-1.8,24.8,0.4c3.7,1,21.1,8.4,24.1,11.4
		C107.4,51.1,102.7,43.9,96.6,37.4z"/>
	<path class="st0" d="M116.6,82.7c-0.5-5.3-2.8-9.9-3.2-15.2c-1.5,0.1-1.4,1.3-1.6,2.5c-0.9,6.3-2,12.8-3,19.1
		c-0.4,2.3-0.8,4.6-0.9,7c-0.5,8.4-5.3,11.7-6.7,12.7c-0.2,0.1-2.9,3.3-3.9,5.1c0.3,0,0.7,0.1,1,0.1c6-3.4,10.8-8.3,14.6-14.4
		C115.9,94.6,117.2,89,116.6,82.7z"/>
</g>
<path class="st0" d="M108,195.6c-0.5,0-1.1,0.1-1.6,0.1c-1.2-14-0.9-28.3-0.8-42.3c0-8.3,0-18.2-11-21.8c8.5-0.9,13.7,4.5,13.3,11
	c-0.6,6.9-1,13.9-1.3,20.9C106.2,174.2,107.1,184.9,108,195.6z"/>
<path class="st0" d="M70.1,215.6c-0.3,0-1.7,2.3-2,2.3c1.1-8.9,5.5-18.6,8-26.7c3.2-10.9,6.7-21.2,10.4-31.7c0.9-2.3,2-5,4.9-6.6
	C83.4,174.2,77.3,195,70.1,215.6z"/>
<path class="st0" d="M120.2,180.8c0,0.3,0.6,1.9,0.6,2.2c-3.1-3.6-4.4-9.8-5.7-14.4c-2.1-7.3-2.7-15.1-5-22.3
	c-0.3-0.9,0.3-2.2,1.2-3.4C114.3,155.5,117.2,168.1,120.2,180.8z"/>
<path class="st0" d="M97.1,113.9c0.3,0,0.7,0.1,0.9,0.1c-2.7,2.6-5.3,5.7-9.1,6.1C92,117.9,94,115.4,97.1,113.9z"/>
<path class="st0" d="M64.8,139.5c0,0.3-0.1,0.9,0,1.1c-3-1.1-6.7-1.1-9.2-4C58.4,137.9,62,137.5,64.8,139.5z"/>
<path class="st0" d="M92.1,149c0.3-3.1,2.1-5.2,3.9-7.3c-0.9,2.8-1.1,5.8-3.8,7.5C92.2,149.2,92.1,149,92.1,149z"/>
<path class="st0" d="M53.1,134.5c0.3,0.2,0.7,0.4,0.8,0.7c0.2,0.5-0.2,0.9-0.6,0.7c-0.3-0.1-0.5-0.5-0.8-0.8
	C52.6,134.9,52.8,134.7,53.1,134.5z"/>
<path class="st0" d="M91.4,150.8c0.2-0.6,0.4-1.2,0.7-1.8l0.2,0.2C92.1,149.7,91.8,150.3,91.4,150.8
	C91.5,150.9,91.4,150.8,91.4,150.8z"/>
<path class="st0" d="M91.4,150.8c-0.1,0.4-0.2,0.9-0.3,1.2c-0.1-0.1-0.3-0.3-0.3-0.3C90.9,151.4,91.1,151.1,91.4,150.8
	C91.3,150.7,91.4,150.8,91.4,150.8z"/>
</svg>
