<?xml version="1.0" encoding="utf-8"?>
<!-- Generator: Adobe Illustrator 26.0.3, SVG Export Plug-In . SVG Version: 6.00 Build 0)  -->
<svg version="1.1" id="Calque_1" xmlns="http://www.w3.org/2000/svg" xmlns:xlink="http://www.w3.org/1999/xlink" x="0px" y="0px"
	 viewBox="0 0 788 1005.1" style="enable-background:new 0 0 788 1005.1;" xml:space="preserve">
<style type="text/css">
	.st0{fill:#90573A;}
	.st1{fill:#F7A386;}
	.st2{fill:#704232;}
	.st3{fill:#593328;}
	.st4{fill:#7F4C36;}
	.st5{fill:#3D0811;}
	.st6{fill:#93273E;}
</style>
<g>
	<path class="st0" d="M371.1,141.4l-5.2-1.5c-1.1-0.3-2.4,0-3.2,0.9l0,0c-0.6,0.6-0.9,1.5-0.9,2.4l0.8,11.9c0,0.5,0.2,1.1,0.5,1.5
		c1.3,2,5.1,7.8,5.6,8.5c0.2,0.4,1.2,0.7,2.3,1c1.7,0.5,3.5-0.6,4-2.3l2.5-10.7c0.2-0.7,0.1-1.5-0.3-2.2L373,143
		C372.6,142.2,371.9,141.7,371.1,141.4z"/>
	<path class="st0" d="M442.1,141.4l5.2-1.5c1.1-0.3,2.4,0,3.2,0.9l0,0c0.6,0.6,0.9,1.5,0.9,2.4l-0.8,11.9c0,0.5-0.2,1.1-0.5,1.5
		c-1.3,2-5.1,7.8-5.6,8.5c-0.2,0.4-1.2,0.7-2.3,1c-1.7,0.5-3.5-0.6-4-2.3l-2.5-10.7c-0.2-0.7-0.1-1.5,0.3-2.2l4.1-7.9
		C440.6,142.2,441.3,141.7,442.1,141.4z"/>
	<polygon class="st1" points="408.7,93.1 406.8,93.2 406.8,93.1 406.9,93.1 	"/>
	<path class="st0" d="M445.1,125.5c0,0.5-2.7,14.8-2.7,14.8v8l-0.1,0.9l-3.7,25.5c-0.4,2.7-1.6,5.2-3.4,7.3c0,0-12.1,11.4-16.5,14.8
		c-1.3,1-7.3,2.2-10.1,2.8l-0.6,0.1l-0.9,0.2H407v-0.1l0,0h-0.1c-1-0.2-10-1.7-11.6-3c-4.4-3.4-16.5-14.9-16.5-14.9
		c-1.8-2-3-4.6-3.4-7.3l-3.7-25.3l-0.2-1.1v-8c0,0-2.7-14.3-2.7-14.8c0-0.2,0.4-2.2,0.9-4.6c1.4-6.8,5-12.8,10.4-17.2l4.2-3.5
		c4.8-3.9,10.8-6.3,17-6.6l7.6-0.4v0.2l3.9,0.2c6.2,0.4,12.2,2.7,17,6.6l4.2,3.5c5.3,4.4,9,10.4,10.4,17.2
		C444.7,123.4,445.1,125.4,445.1,125.5z"/>
	<path class="st2" d="M406.8,162.1c0,0-5.7-2.3-5.9-2.5s-1,1.2-1,1.2l-3.8,1.2l0.5,3.1l3.2,1.2l4.2-1.2l2.8,1.2L406.8,162.1z"/>
	<path class="st3" d="M402.7,164.1l-2.2-2.1l-3,1c0,0,0.4,1.5,0.8,1.6l2.6,0.9L402.7,164.1z"/>
	<path class="st2" d="M406.2,162.1c0,0,5.7-2.3,5.9-2.5s1,1.2,1,1.2l3.9,1.2l-0.5,3.1l-3.2,1.2l-4.2-1.2l-2.8,1.2L406.2,162.1z"/>
	<path class="st3" d="M410,164.1l2.2-2.1l3,1c0,0-0.4,1.5-0.8,1.6l-2.6,0.9L410,164.1z"/>
	<path class="st4" d="M440.3,161.4l1.9-13.2c0,0,4.7-4.7,5.1-4.8s0.6,2.1,0.6,2.1l-1.1,9.4l-2.7,4.7L440.3,161.4z"/>
	<path class="st4" d="M373.4,162.4l-1.9-13.2c0,0-4.7-4.7-5.1-4.8s-0.6,2.1-0.6,2.1l1.1,9.4l2.7,4.7L373.4,162.4z"/>
	<path class="st5" d="M460.4,114.9c-5.9-29.4-33.8-49.2-52.3-35.7c-16.1-13.4-49.5,5.5-54.7,36.6c-3.2,15.3-5.1,34.8,24.2,44.2
		c0.8,0.3,1.5-0.6,1-1.4c-3.5-5.5-11.4-24.2-5-40.3c0.1-0.2,31.1-14.9,31.2-14.9c5.3,0,33.3,9.9,34,10.7c0.7,0.8,8.3,25.1-5.4,43.7
		c-0.1,0.3-0.2,0.5-0.1,0.8c0.1,0.6,0.7,0.9,1.2,0.8C442.7,158,467.7,151,460.4,114.9z"/>
	<circle class="st6" cx="368.7" cy="165.1" r="3"/>
	<circle class="st6" cx="444.6" cy="165.1" r="3"/>
</g>
</svg>
