<?xml version="1.0" encoding="utf-8"?>
<!-- Generator: Adobe Illustrator 26.0.3, SVG Export Plug-In . SVG Version: 6.00 Build 0)  -->
<svg version="1.1" id="Calque_1" xmlns="http://www.w3.org/2000/svg" xmlns:xlink="http://www.w3.org/1999/xlink" x="0px" y="0px"
	 viewBox="0 0 788 1005.1" style="enable-background:new 0 0 788 1005.1;" xml:space="preserve">
<style type="text/css">
	.st0{fill:#90573A;}
	.st1{fill:#F7A386;}
	.st2{fill:#704232;}
	.st3{fill:#593328;}
	.st4{fill:#7F4C36;}
	.st5{fill:#3D0811;}
</style>
<g>
	<g>
		<path class="st0" d="M371.1,141.4l-5.2-1.5c-1.1-0.3-2.4,0-3.2,0.9l0,0c-0.6,0.6-0.9,1.5-0.9,2.4l0.8,11.9c0,0.5,0.2,1.1,0.5,1.5
			c1.3,2,5.1,7.8,5.6,8.5c0.2,0.4,1.2,0.7,2.3,1c1.7,0.5,3.5-0.6,4-2.3l2.5-10.7c0.2-0.7,0.1-1.5-0.3-2.2L373,143
			C372.6,142.2,371.9,141.7,371.1,141.4z"/>
		<path class="st0" d="M442.1,141.4l5.2-1.5c1.1-0.3,2.4,0,3.2,0.9l0,0c0.6,0.6,0.9,1.5,0.9,2.4l-0.8,11.9c0,0.5-0.2,1.1-0.5,1.5
			c-1.3,2-5.1,7.8-5.6,8.5c-0.2,0.4-1.2,0.7-2.3,1c-1.7,0.5-3.5-0.6-4-2.3l-2.5-10.7c-0.2-0.7-0.1-1.5,0.3-2.2l4.1-7.9
			C440.6,142.2,441.3,141.7,442.1,141.4z"/>
		<path class="st1" d="M406.8,199.8L406.8,199.8L406.8,199.8z"/>
		<polygon class="st1" points="406.9,93.1 406.8,93.1 406.8,93.1 406.6,93.1 406.8,93.1 		"/>
		<path class="st0" d="M444.7,125.5c0,0.5-2.7,14.8-2.7,14.8v8l-0.1,0.9l-3.3,22.5l-0.4,3c-0.4,2.7-1.6,5.2-3.4,7.3
			c-0.2,0.2-1.1,1.1-2.5,2.3c-1.4,1.3-3.2,2.9-5.1,4.7c-3.3,3.1-7,6.3-9,7.9c-0.3,0.2-0.6,0.4-0.9,0.5c-3,1-6.1,1.7-9.2,2.2H408
			l-0.5,0.1l-0.7,0.1h-0.1l0,0c-0.1,0-0.1,0-0.2,0c-1.7-0.3-9.3-1.6-11.2-2.8l-0.2-0.1c-1.6-1.3-4.4-3.8-7.2-6.3
			c-4.6-4.2-9.3-8.6-9.3-8.6c-1.8-2-3-4.6-3.4-7.3l-3.7-25.3l-0.2-1.1v-8c0,0-2.7-14.3-2.7-14.8c0-0.2,0.4-2.1,0.9-4.6
			c1.4-6.8,5-12.8,10.4-17.2l4.2-3.5c4.8-3.9,10.8-6.3,17-6.7l5.4-0.3h0.1h0.2l5.4,0.3c4.9,0.3,9.6,1.8,13.8,4.4
			c1.1,0.7,2.1,1.4,3.1,2.2l4.2,3.5c5.4,4.4,9,10.4,10.4,17.2C444.3,123.3,444.7,125.3,444.7,125.5z"/>
		<polygon class="st1" points="406.6,93.1 406.5,93.1 406.5,93.1 		"/>
		<path class="st1" d="M406.8,199.8h-0.1h-0.1v-0.1C406.6,199.8,406.7,199.8,406.8,199.8z"/>
		<path class="st2" d="M406.5,162c0,0-5.4-2.2-5.6-2.4s-1,1.2-1,1.2l-3.9,1.3l0.5,3.1l3.2,1.2l4.2-1.2l2.5,1.1L406.5,162z"/>
		<path class="st3" d="M402.7,164.1l-2.2-2.1l-3,1c0,0,0.4,1.5,0.8,1.6l2.6,0.9L402.7,164.1z"/>
		<path class="st2" d="M406.5,162c0,0,5.4-2.2,5.6-2.4s1,1.2,1,1.2l3.9,1.2l-0.5,3.1l-3.2,1.2l-4.2-1.2l-2.5,1.1L406.5,162z"/>
		<path class="st3" d="M410,164.1l2.2-2.1l3,1c0,0-0.4,1.5-0.8,1.6l-2.6,0.9L410,164.1z"/>
		<path class="st4" d="M440.3,161.4l1.9-13.2c0,0,4.7-4.7,5.1-4.8s0.6,2.1,0.6,2.1l-1.1,9.4l-2.7,4.7L440.3,161.4z"/>
		<path class="st4" d="M373.4,162.4l-1.9-13.2c0,0-4.7-4.7-5.1-4.8s-0.6,2.1-0.6,2.1l1.1,9.4l2.7,4.7L373.4,162.4z"/>
		<path class="st5" d="M380.1,74.4c0,0-27.6,18.4-24.4,35.1s15.7,34.9,16.9,37.8c1,2.4-3.9-21.1-3.9-21.1s9.4-1.5,15.4-8.2
			c0,0-2.1,8.2-11.1,10.7c0,0.2,22.3-6.7,30.7-15.2c0,0.2-1.3,3.2-3,5.2c0.2,0,5.4-3,8.6-7.9c0.2,0.4-1.5,8.2-6.2,12
			c0.4-0.2,15.9-1.3,23.4-18.7c0,0.4-1.3,12.6,3.9,16.5c11.1,8.2,12,21.7,11.5,26.9c0.2,0.4,6.7-12.5,9.9-17.9
			c3.2-5.4,6-11.8,5.6-16.9s-3.2-14.1-6.2-17.6c0.2,0.2-3.8-19.7-27.2-20.6c-0.2-0.6,2.2-3,6.6-3c0.4,0-7.7-1.1-11.1,1.9
			c0,0-0.2-5.6-8.8-7.7c0,0.4,4.3,5.8,2.4,7.1c0.2,0.2-23.8-13.5-40.7,2.4C372.6,75,380.1,72.9,380.1,74.4z"/>
	</g>
</g>
</svg>
