<?xml version="1.0" encoding="utf-8"?>
<!-- Generator: Adobe Illustrator 26.0.3, SVG Export Plug-In . SVG Version: 6.00 Build 0)  -->
<svg version="1.1" id="Calque_1" xmlns="http://www.w3.org/2000/svg" xmlns:xlink="http://www.w3.org/1999/xlink" x="0px" y="0px"
	 viewBox="0 0 788 1005.1" style="enable-background:new 0 0 788 1005.1;" xml:space="preserve">
<style type="text/css">
	.st0{fill:#F4CB89;}
	.st1{fill:#B26959;}
	.st2{fill:#C58C85;}
	.st3{clip-path:url(#SVGID_00000182518164809886764690000000805109625853715634_);}
	.st4{fill:#B7837E;}
	.st5{clip-path:url(#SVGID_00000076561284892841252880000010823419756120738432_);}
	.st6{fill:#8D4B51;}
</style>
<g>
	<path class="st0" d="M393.3,90.4c0,0-14,7.4-10,19.3c2,6.5-6.5,0.9-6.2-0.8c0.1-3.1-1.8-5.9-4.6-7.2c-3.6-1.4-2.9-4.2-2.9-4.2
		c0.2-0.9,0.5-1.8,1-2.6c0.6-0.8,0.9-1.7,0.9-2.7c0-0.8-0.5-1.8-2-2.5c-1-0.4-1.8-1.3-2-2.4c-0.1-0.8,0.7-1.9,3.1-4.1
		c1.4-1.4,1.9-3.5,1.3-5.4c-1.2-1.7-2.2-3.5-2.9-5.5c-0.6-2.3,3.5-2.8,3.9-3s2.4-1,2.4-3.1s-1.7-4.4-0.9-5.5s5.4-0.6,5.4-0.6
		c1.4,0,2.7-0.6,3.6-1.6c1.3-1.6,1.7-6.2,3.4-7.2s5.2,1,6,1.5c1.3,0.7,2.8,1,4.3,1c1.3-0.1,2.7-0.9,4.2-3s2.5-4.2,5-4.4
		s4.4,3.6,4.8,4.2c0.4,0.5,2.2,2.9,5,3s4.7-1.7,6.4-2.2s2.7-0.4,3.5,0.2c0.8,0.6,1.4,2.6,1.7,3.8c0.1,1.5,0.9,2.8,2.1,3.6
		c1.8,1.3,3.6,1,5.1,1s2.2-0.3,3,0.6s0.4,2.3-0.3,3.7c-0.6,1.1-0.6,2.3,0,3.4c0.5,1.1,1.6,1.4,3,1.9s2.6,1,2.8,2.8
		c0.1,1.8-1.3,3-1.8,3.8c-0.9,1-1.3,2.3-1.3,3.6c0.3,1.7,1.1,3.3,2.5,4.4c0.9,0.8,2.1,1.6,2,3.2c0,1.6-1.7,2.1-2.2,2.5
		c-0.9,0.6-1.5,1.6-1.7,2.7c0,1,0.4,2,1.1,2.8c0.6,0.8,0.9,1.7,0.8,2.7c0,1.2-0.5,2.2-2.1,3.1s-3.5,2-4.1,3.3s-1.4,8.2-1.1,5.5
		c2-22.4-7-4.1-9.3-5.9s0.9-5.1-3.2-9.1c-0.7-0.7-0.6-1.3-1.3-1.8c-0.5-0.4-1-0.9-1.3-1.5c-0.2-0.3-1.1-4.4-0.8-5.4
		c0.3-1-1.8-1.6-2.6-2.2c-0.7-0.4-1.1-1.1-1.4-1.8c-0.3-0.8-0.4-1.9-1-1.9s-1,1.2-1.7,2.2s-1.1,1.7-2.2,2s-3.2-0.7-4.5-0.2
		c-1.4,0.5-1.2,1.4-1.5,2.1s-0.4,1.4-1.3,1.5c-0.7,0.3-1.5,0.2-2.2-0.1c-1.4-0.5-1.4-0.5-2-0.3s-1.1,1-1.5,1.6s-0.3,1-0.8,1.2
		C396.2,90.6,394.5,90,393.3,90.4z"/>
	<circle class="st1" cx="407" cy="117.8" r="38.3"/>
	<path class="st0" d="M406.8,162.6c-22.9,0-41.5-18.8-41.5-42.1s18.6-42,41.5-42"/>
	<path class="st0" d="M406,78.5c23.8,0,43.1,18.8,43.1,42.1s-19.3,42.1-43.1,42.1"/>
	<path class="st2" d="M442.6,114.1c-0.9-9-38.4-12.3-40.9-12.5h-8.1c-0.1,0-0.3,0-0.5,0l-6.1,0.9c0,0-15.5,2.4-16.4,11.7
		c-2.2,22.2-1,31,0.5,55.9c0.5,9.6,24.5,26.2,29.2,29.3c0.5,0.3,1.1,0.5,1.7,0.6l4.5,0.1h0.2l4.5-0.1c0.6,0,1.2-0.2,1.7-0.6
		c4.7-3.2,28.7-19.8,29.2-29.3C443.6,145.1,444.8,136.4,442.6,114.1z"/>
	<g>
		<g>
			<defs>
				<polygon id="SVGID_1_" points="442.8,132.4 442.8,132.4 458.3,132.4 458.3,162.6 442.8,162.6 				"/>
			</defs>
			<clipPath id="SVGID_00000137123474465648130470000006518406126605451420_">
				<use xlink:href="#SVGID_1_"  style="overflow:visible;"/>
			</clipPath>
			<g style="clip-path:url(#SVGID_00000137123474465648130470000006518406126605451420_);">
				<path class="st4" d="M443.8,138.4c0,0,5.2-6.4,8.3-6.1c4.6,0.5,6.7,9,6.1,12.8c-0.7,4.8-5,15.1-10.4,17.3c-1.1,0.4-5-0.9-5-0.9
					L443.8,138.4z"/>
			</g>
		</g>
	</g>
	<g>
		<g>
			<defs>
				<polygon id="SVGID_00000129206560772059690970000007286955382363236241_" points="370.5,132.4 370.5,132.4 355,132.4 355,162.6 
					370.5,162.6 				"/>
			</defs>
			<clipPath id="SVGID_00000051363372920172534480000010196290919058104990_">
				<use xlink:href="#SVGID_00000129206560772059690970000007286955382363236241_"  style="overflow:visible;"/>
			</clipPath>
			<g style="clip-path:url(#SVGID_00000051363372920172534480000010196290919058104990_);">
				<path class="st4" d="M369.5,138.4c0,0-5.2-6.4-8.3-6.1c-4.6,0.5-6.6,9-6.1,12.8c0.8,4.8,5,15.1,10.4,17.3c1.1,0.4,5-0.9,5-0.9
					L369.5,138.4z"/>
			</g>
		</g>
	</g>
	<path class="st0" d="M378.6,88.4c-0.1,1-0.6,1.9-1.4,2.6c-0.7,0.7-1.4,1.3-2.3,1.8c-0.4,0.3-0.8,0.5-1.2,0.8
		c-0.4,0.3-0.7,0.6-1,0.9c-0.6,0.7-1.2,1.4-1.6,2.2c-0.2,0.4-0.3,0.8-0.4,1.2c0,0.2,0,0.3,0.1,0.5s0.2,0.3,0.3,0.5
		c0.6,0.7,1.3,1.3,2,1.9c1.5,1.2,3,2.5,4.4,3.8c0.8,0.8,1.4,1.7,1.7,2.8c0.1,0.7,0,1.3-0.3,1.9c-0.3,0.5-0.6,0.9-1,1.3
		c-1.4,1.5-3,2.6-4.4,3.8c-0.7,0.6-1.3,1.2-1.8,1.9c-0.2,0.3-0.3,0.6-0.4,0.9c0,0.3,0,0.6,0.1,0.8c0.4,0.7,0.9,1.3,1.5,1.8
		c0.7,0.6,1.4,1.2,2.2,1.7s1.5,1.2,2.3,1.8c0.4,0.3,0.8,0.7,1.2,1.1c0.5,0.5,0.8,1.1,1,1.7c0.1,0.4,0.1,0.9,0,1.3
		c0,0.2-0.1,0.4-0.1,0.6l-0.2,0.5c-0.3,0.5-0.6,1-1,1.5c-0.7,0.8-1.4,1.5-2.1,2.2s-1.4,1.3-2.1,1.9c-0.6,0.6-1.2,1.2-1.7,1.9
		c-0.4,0.4-0.6,1-0.6,1.5c0.2,0.6,0.5,1.1,1,1.5c1.2,1.2,2.8,2.2,4.4,3.5c0.9,0.7,1.6,1.7,2.1,2.8l0.2,0.5c0,0.2,0,0.4,0,0.5
		c0,0.3,0,0.7-0.1,1c-0.2,0.6-0.4,1.2-0.9,1.7c-1.4,1.5-3,2.7-4.7,3.7c-0.8,0.5-1.5,1.1-2.2,1.7c-0.7,0.6-1.1,1.4-1.3,2.3H370
		c0-1,0.3-2,1-2.8c0.6-0.8,1.3-1.5,2-2.2c1.4-1.2,2.7-2.5,3.8-3.9c0.2-0.3,0.3-0.6,0.4-0.9c0-0.1,0-0.2,0-0.4c0-0.1,0-0.1,0-0.2
		c0-0.1-0.1-0.1-0.1-0.2c-0.4-0.6-0.9-1.2-1.5-1.6c-0.7-0.5-1.5-1-2.3-1.6c-0.9-0.5-1.7-1.1-2.5-1.8c-1-0.8-1.7-2-2-3.2
		c-0.1-0.4-0.1-0.8,0-1.1c0-0.3,0.1-0.7,0.2-1s0.2-0.6,0.4-0.9c0.1-0.3,0.3-0.5,0.5-0.8c0.6-0.9,1.3-1.6,2.1-2.3
		c0.7-0.7,1.5-1.3,2.2-1.9c0.7-0.6,1.4-1.2,2-1.8c0.3-0.3,0.5-0.5,0.7-0.8l0.1-0.2V127v-0.1c-0.1-0.3-0.3-0.5-0.5-0.7
		c-0.3-0.3-0.6-0.6-0.9-0.9c-0.6-0.6-1.4-1.2-2.1-1.8s-1.5-1.2-2.2-2c-0.8-0.7-1.5-1.7-2-2.7c-0.3-0.6-0.3-1.3-0.2-2
		c0.1-0.6,0.4-1.2,0.8-1.7c0.6-0.8,1.4-1.6,2.2-2.2c1.5-1.2,3.1-2.3,4.4-3.5c0.6-0.6,1.1-1.3,1-1.8c-0.2-0.8-0.6-1.5-1.2-2.1
		c-1.3-1.4-2.6-2.7-4-4c-0.7-0.7-1.4-1.4-2-2.2c-0.2-0.2-0.3-0.5-0.4-0.7s-0.1-0.3-0.1-0.5c0-0.1,0-0.3,0-0.4c0.1-0.5,0.3-1,0.5-1.5
		c0.5-0.9,1.1-1.7,1.9-2.3c0.4-0.3,0.7-0.7,1.1-0.9c0.4-0.3,0.8-0.5,1.2-0.8c0.8-0.5,1.6-1,2.3-1.7c0.7-0.6,1.2-1.4,1.4-2.3
		L378.6,88.4z"/>
	<path class="st2" d="M385.6,104.7c0.9-2.1,2-4.1,3.4-5.9s2.9-3.5,4.6-5s3.5-2.9,5.5-4.1c1.9-1.2,4-2.2,6.1-2.9
		c-2.1,0.9-4.1,2-5.9,3.2c-1.9,1.2-3.7,2.6-5.3,4.1c-1.7,1.5-3.2,3.1-4.7,4.8C387.9,100.8,386.6,102.7,385.6,104.7z"/>
</g>
<g id="Calque_3_00000177465848162245240080000008476260514197900972_">
	<path class="st6" d="M411.3,159.7c0,0.9-2.1,1.6-4.8,1.6s-4.8-0.7-4.8-1.6"/>
</g>
</svg>
