<?xml version="1.0" encoding="utf-8"?>
<!-- Generator: Adobe Illustrator 26.0.3, SVG Export Plug-In . SVG Version: 6.00 Build 0)  -->
<svg version="1.1" id="Calque_1" xmlns="http://www.w3.org/2000/svg" xmlns:xlink="http://www.w3.org/1999/xlink" x="0px" y="0px"
	 viewBox="0 0 788 1005.1" style="enable-background:new 0 0 788 1005.1;" xml:space="preserve">
<style type="text/css">
	.st0{fill:#F7A386;}
	.st1{fill:#E59690;}
	.st2{fill:#F4CB89;}
	.st3{fill:#B26959;}
	.st4{fill:#C58C85;}
	.st5{clip-path:url(#SVGID_00000135680304066328214960000011447655542779986610_);}
	.st6{fill:#B7837E;}
	.st7{clip-path:url(#SVGID_00000029034661941679437260000001094701285474688911_);}
	.st8{fill:#8D4B51;}
</style>
<g>
	<path class="st0" d="M406.8,199.8L406.8,199.8L406.8,199.8L406.8,199.8L406.8,199.8z"/>
	<path class="st1" d="M408.3,199.5l-0.6,0.1C407.7,199,408.1,199.5,408.3,199.5z"/>
	<path class="st2" d="M379.2,163.8c0,0,9.7,8.4,17.4,1.9c4.3-3.4,2.6,4.6,1.2,4.9c-2.3,0.9-3.9,3.1-4.1,5.6c0,3.1-2.3,3.4-2.3,3.4
		c-0.7,0.1-1.5,0.2-2.2,0.1c-0.8-0.2-1.5-0.2-2.3,0.1c-0.6,0.2-1.2,0.9-1.4,2.3c0,0.9-0.5,1.7-1.2,2.1c-0.6,0.3-1.6,0-4-1.1
		c-2.4-1.2-4.4,0.6-4.4,0.6c-0.8,1.4-2,2.8-3.2,3.8c-1.6,1.1-3.1-1.8-3.4-2.1c-0.3-0.2-1.5-1.5-3-0.9c-1.5,0.7-2.9,2.6-3.9,2.3
		s-2-3.9-2-3.9c-0.4-1.1-1.2-1.9-2.3-2.2c-1.6-0.5-5.2,0.5-6.4-0.4c-1.2-1-0.8-4.2-0.6-4.9c0.1-1.2-0.1-2.4-0.5-3.5
		c-0.5-0.9-1.5-1.8-3.5-2.3s-3.9-0.6-4.8-2.5c-0.9-1.8,1.4-4.4,1.8-4.8c0.3-0.4,1.5-2.5,0.7-4.6s-2.7-3-3.5-4.2
		c-0.9-1.1-1.1-1.9-0.9-2.7s1.5-1.8,2.4-2.4c1.1-0.5,1.8-1.5,2.1-2.6c0.4-1.7-0.3-3-0.7-4.1c-0.4-1.1-0.9-1.6-0.4-2.4s1.6-1,2.9-0.9
		c1,0.1,1.9-0.2,2.6-1c0.7-0.7,0.6-1.6,0.5-2.8c0-1.2,0.1-2.3,1.3-2.9c1.3-0.6,2.6,0.1,3.4,0.2c1,0.4,2.1,0.3,3.1-0.1
		c1.2-0.7,2.2-1.8,2.6-3.2c0.3-0.9,0.6-2,1.8-2.4c1.2-0.4,2.1,0.7,2.5,0.9c0.7,0.5,1.6,0.7,2.5,0.5c0.7-0.4,1.4-0.9,1.8-1.6
		s1-1.2,1.8-1.4c0.9-0.4,1.8-0.3,2.9,0.7s2.5,2,3.7,2.1s6.6-1.3,4.5-0.8c-17.4,5.1-1,6.5-1.7,8.7c-0.7,2.3-4.1,0.8-5.9,5.1
		c-0.3,0.7-0.8,0.8-1,1.5c-0.2,0.5-0.4,1-0.7,1.4c-0.2,0.2-3,2.1-3.8,2.2s-0.6,1.9-0.9,2.7c-0.1,0.6-0.5,1.1-0.9,1.6
		c-0.5,0.5-1.3,0.9-1.1,1.3c0.2,0.5,1.2,0.5,2.2,0.7s1.6,0.3,2.1,1.1c0.5,0.7,0.4,2.6,1.2,3.4c0.8,0.8,1.4,0.5,1.9,0.5
		s1.2-0.1,1.5,0.5c0.4,0.4,0.6,1.1,0.6,1.7c0,1.2,0,1.2,0.4,1.6c0.3,0.4,1.1,0.5,1.6,0.7c0.6,0.1,0.8-0.1,1.1,0.2
		S378.6,163,379.2,163.8z"/>
	<circle class="st3" cx="407.2" cy="117.9" r="38.3"/>
	<path class="st2" d="M407,162.7c-22.9,0-41.5-18.8-41.5-42S384,78.6,407,78.6"/>
	<path class="st2" d="M406.2,78.6c23.8,0,43.1,18.8,43.1,42.1s-19.3,42.1-43.1,42.1"/>
	<path class="st4" d="M442.8,114.1c-0.9-9-38.4-12.3-40.9-12.5h-8.1c-0.1,0-0.3,0-0.5,0l-6.1,0.9c0,0-15.5,2.4-16.4,11.7
		c-2.2,22.2-1,31,0.5,55.9c0.5,9.6,24.5,26.2,29.2,29.4c0.5,0.3,1.1,0.5,1.7,0.6l4.5,0.1h0.2l4.5-0.1c0.6,0,1.2-0.2,1.7-0.6
		c4.7-3.2,28.7-19.8,29.2-29.4C443.7,145.1,445,136.4,442.8,114.1z"/>
	<g>
		<g>
			<g>
				<defs>
					<polygon id="SVGID_1_" points="442.9,132.4 442.9,132.4 458.4,132.4 458.4,162.6 442.9,162.6 					"/>
				</defs>
				<clipPath id="SVGID_00000067957847306073442890000006620135571290152372_">
					<use xlink:href="#SVGID_1_"  style="overflow:visible;"/>
				</clipPath>
				<g style="clip-path:url(#SVGID_00000067957847306073442890000006620135571290152372_);">
					<path class="st6" d="M444,138.5c0,0,5.2-6.4,8.3-6.1c4.6,0.5,6.7,9,6.1,12.8c-0.7,4.8-5,15.1-10.4,17.3c-1.1,0.4-5-0.9-5-0.9
						L444,138.5z"/>
				</g>
			</g>
		</g>
	</g>
	<g>
		<g>
			<g>
				<defs>
					<polygon id="SVGID_00000123401546185707479810000015533429579933272961_" points="370.7,132.4 370.7,132.4 355.2,132.4 
						355.2,162.6 370.7,162.6 					"/>
				</defs>
				<clipPath id="SVGID_00000090280169148023885560000012389641684740544421_">
					<use xlink:href="#SVGID_00000123401546185707479810000015533429579933272961_"  style="overflow:visible;"/>
				</clipPath>
				<g style="clip-path:url(#SVGID_00000090280169148023885560000012389641684740544421_);">
					<path class="st6" d="M369.6,138.5c0,0-5.2-6.4-8.3-6.1c-4.6,0.5-6.6,9-6.1,12.8c0.8,4.8,5,15.1,10.4,17.3c1.1,0.4,5-0.9,5-0.9
						L369.6,138.5z"/>
				</g>
			</g>
		</g>
	</g>
	<path class="st4" d="M423.3,103.7c-1.3-1.9-2.6-3.6-4.1-5.3c-1.4-1.7-3-3.3-4.8-4.7c-1.6-1.4-3.5-2.8-5.5-3.9c2,1,4,2.2,5.7,3.6
		c1.8,1.4,3.5,3,5,4.7s2.8,3.6,3.9,5.5c1.2,2,2,4.1,2.6,6.3C425.5,107.8,424.5,105.8,423.3,103.7z"/>
	<path class="st8" d="M411.5,159.7c0,0.9-2.1,1.6-4.8,1.6s-4.8-0.7-4.8-1.6"/>
</g>
</svg>
