<?xml version="1.0" encoding="utf-8"?>
<!-- Generator: Adobe Illustrator 26.0.3, SVG Export Plug-In . SVG Version: 6.00 Build 0)  -->
<svg version="1.1" id="Calque_1" xmlns="http://www.w3.org/2000/svg" xmlns:xlink="http://www.w3.org/1999/xlink" x="0px" y="0px"
	 viewBox="0 0 788 1005.1" style="enable-background:new 0 0 788 1005.1;" xml:space="preserve">
<style type="text/css">
	.st0{fill:#E2BD86;}
	.st1{fill:#C58C85;}
	.st2{fill:#F4CB89;}
	.st3{clip-path:url(#SVGID_00000116214264838878990070000003221878680364979626_);}
	.st4{fill:#B7837E;}
	.st5{clip-path:url(#SVGID_00000036223828437508960770000015146263937291749768_);}
	.st6{fill:#B26959;}
	.st7{fill:#8D4B51;}
	.st8{fill:#B22947;}
	.st9{fill:#87213C;}
</style>
<g id="Calque_3">
	<path class="st0" d="M423.6,120.6c16-3.8,23.1-6.2,26.4-6.8s2.9,0.6,3.8,4.1c1.8,7,4.7,39.1,4.7,39.1s-2.3,16.5-5.9,24.8
		s-7,13-11.8,13s-6-4.4-11.3-4.9s-5.9-1.6-8.9-6.4S423.6,120.6,423.6,120.6z"/>
	<circle class="st1" cx="407.3" cy="117.9" r="38.3"/>
	<path class="st2" d="M407.1,162.7c-23,0-41.5-18.8-41.5-42s18.6-42,41.5-42"/>
	<path class="st1" d="M442.9,114.1c-0.9-9-38.4-12.3-40.9-12.5h-8.1c-0.2,0-0.3,0-0.5,0l-6.1,0.9c0,0-15.5,2.4-16.4,11.7
		c-2.2,22.2-1,31,0.5,55.9c0.6,9.6,24.5,26.2,29.2,29.4c0.5,0.3,1.1,0.5,1.7,0.6l4.4,0.1h0.2l4.4-0.1c0.6,0,1.2-0.2,1.7-0.6
		c4.7-3.2,28.7-19.8,29.2-29.4C443.8,145.1,445,136.4,442.9,114.1z"/>
	<g>
		<g>
			<g>
				<g>
					<g>
						<g>
							<defs>
								<polygon id="SVGID_1_" points="443,132.4 443,132.4 458.5,132.4 458.5,162.6 443,162.6 								"/>
							</defs>
							<clipPath id="SVGID_00000030474308933156838680000000447498095070488458_">
								<use xlink:href="#SVGID_1_"  style="overflow:visible;"/>
							</clipPath>
							<g style="clip-path:url(#SVGID_00000030474308933156838680000000447498095070488458_);">
								<path class="st4" d="M444,138.5c0,0,5.2-6.4,8.3-6.1c4.6,0.5,6.6,9,6.1,12.8c-0.8,4.8-5,15.1-10.4,17.3c-1,0.4-5-0.9-5-0.9
									L444,138.5z"/>
							</g>
						</g>
					</g>
				</g>
			</g>
		</g>
	</g>
	<g>
		<g>
			<g>
				<g>
					<g>
						<g>
							<defs>
								<polygon id="SVGID_00000057853825559003700910000011729751084104286348_" points="370.7,132.4 370.7,132.4 355.2,132.4 
									355.2,162.6 370.7,162.6 								"/>
							</defs>
							<clipPath id="SVGID_00000001652487205541767770000000668778123848405430_">
								<use xlink:href="#SVGID_00000057853825559003700910000011729751084104286348_"  style="overflow:visible;"/>
							</clipPath>
							<g style="clip-path:url(#SVGID_00000001652487205541767770000000668778123848405430_);">
								<path class="st4" d="M369.7,138.5c0,0-5.2-6.4-8.3-6.1c-4.6,0.5-6.6,9-6.1,12.8c0.8,4.8,5,15.1,10.4,17.3c1,0.4,5-0.9,5-0.9
									L369.7,138.5z"/>
							</g>
						</g>
					</g>
				</g>
			</g>
		</g>
	</g>
	<path class="st6" d="M385.8,104.8c0.9-2.1,2-4.1,3.4-5.9s2.9-3.5,4.6-5s3.5-2.9,5.5-4.1c1.9-1.2,4-2.2,6.1-2.9
		c-2.1,0.9-4.1,2-5.9,3.2c-1.9,1.2-3.7,2.6-5.3,4.1c-1.7,1.5-3.3,3.1-4.7,4.8C388.1,100.9,386.9,102.8,385.8,104.8z"/>
	<path class="st2" d="M414.5,80.9c2.6,13.7-9,18.8-0.6,20.3c15.6,2.7,23.3,7.4,27.2,14c7.5,12.4,15.7,37.5,6.9,57.4
		c-6.1,13.8-8.3,46.8,12,57c0,0-10.7-11.5,4-40.2s-2.5-69.8-23.5-91.1C414.5,72,414.5,80.9,414.5,80.9z"/>
	<path class="st2" d="M414.5,80.9c0,0.8,1.1,17-14.1,21c-15.4,4.1-20.8,12.8-23.1,20.1c-4.3,13.8-6.4,40.1,7,57.4
		c9.2,12,19.2,43.4,2,58.2c0,0,7.6-13.7-13.5-38.1s-23.2-70.6-5.8-95C397.8,61.1,414.5,80.9,414.5,80.9z"/>
</g>
<path class="st7" d="M411.7,161.2c0,0.9-2.1,1.6-4.8,1.6s-4.8-0.7-4.8-1.6"/>
<path class="st8" d="M330.5,120c0.9-4.8,4-8.4,6.9-12c10.3-12.8,22.3-24,35-34.4c1.9-1.5,2.9-3,1.7-5.2c-1.4-2.6-0.5-4.6,1.5-6.1
	c2.2-1.7,5-2.1,7.1,0c1.8,1.7,2.9,1,4.4-0.1c9.8-7.1,20-13.5,31.2-18.3c5.9-2.5,12-3.8,18.3-3.9c3.7,0,6.8,1.1,8,5.1
	c1.9,7-2.9,11.2-6.7,15.6c-11,12.6-25,21.7-38.9,30.7c-9.5,6.2-19.3,12.1-29.5,17.3c-9.9,5.1-19.7,10.1-30.2,13.6
	C336,123.4,332.7,123.8,330.5,120z"/>
<path class="st9" d="M330.5,120c2.2,3.8,5.5,3.4,8.9,2.3c10.5-3.5,20.3-8.6,30.2-13.6c10.2-5.2,19.9-11.1,29.5-17.3
	c13.9-9,27.8-18.1,38.9-30.7c3.8-4.4,8.6-8.6,6.7-15.6c3.3,5.3,2.8,11.1,1.7,16.8c-1.7,9.1-5.2,17.6-9.9,25.6
	c-1.7,0.9-3.4-0.1-5.1,0c-13,1-24.7,6.1-36.1,11.9c-9.4,4.8-18.3,10.2-28,14.5c-4.4,2-9.3,3.1-13.3,6.1c-5.8,1.9-11.5,4.1-17.6,4.6
	C331.9,125.1,330.9,124.2,330.5,120z"/>
<path class="st8" d="M354.1,120.1c4-3,8.8-4.2,13.3-6.1c9.6-4.3,18.6-9.8,28-14.5c11.4-5.8,23.1-10.9,36.1-11.9
	c1.7-0.1,3.4,0.8,5.1,0c0.9,2.7,1.8,5.4,2.8,8c0.7,1.7,0.1,2.1-1.5,2.2c-17.5,0.9-33.8,6.6-49.8,12.9c-10.4,4.1-20.8,8.4-29.6,15.6
	c-1.5,1.2-2.1,0.6-2.5-0.9C355.3,123.6,354.7,121.9,354.1,120.1z"/>
</svg>
