<?xml version="1.0" encoding="utf-8"?>
<!-- Generator: Adobe Illustrator 26.0.3, SVG Export Plug-In . SVG Version: 6.00 Build 0)  -->
<svg version="1.1" id="Calque_1" xmlns="http://www.w3.org/2000/svg" xmlns:xlink="http://www.w3.org/1999/xlink" x="0px" y="0px"
	 viewBox="0 0 788 1005.1" style="enable-background:new 0 0 788 1005.1;" xml:space="preserve">
<style type="text/css">
	.st0{fill:#B26959;}
	.st1{fill:#F4CB89;}
	.st2{fill:#C58C85;}
	.st3{clip-path:url(#SVGID_00000087384939054375503340000005700550856871492745_);}
	.st4{fill:#B7837E;}
	.st5{clip-path:url(#SVGID_00000147914110049726998710000001475805768862732438_);}
	.st6{fill:#ED5875;}
	.st7{fill:#8D4B51;}
</style>
<g id="Calque_3">
	<circle class="st0" cx="407.1" cy="118.4" r="38.3"/>
	<path class="st1" d="M406.9,163.1c-22.9,0-41.5-18.6-41.5-41.5s18.6-41.5,41.5-41.5"/>
	<path class="st1" d="M407.6,80.1c22.9,0,41.5,18.6,41.5,41.5s-18.6,41.5-41.5,41.5l0,0"/>
	<path class="st2" d="M442.7,114.6c-0.9-9.3-36-14.7-36-14.7l0,0c0,0-35.1,5.4-36,14.7c-2.2,22.2-1,31,0.5,55.9
		c0.6,9.8,25.5,26.8,29.5,29.5c0.3,0.2,0.8,0.4,1.2,0.4l4.8,0.1h0.1l4.8-0.1c0.4,0,0.8-0.1,1.2-0.4c4-2.7,28.9-19.8,29.5-29.5
		C443.6,145.6,444.8,136.8,442.7,114.6z"/>
	<g>
		<g>
			<g>
				<g>
					<g>
						<defs>
							<polygon id="SVGID_1_" points="442.8,132.9 442.8,132.9 458.3,132.9 458.3,163.1 442.8,163.1 							"/>
						</defs>
						<clipPath id="SVGID_00000126319544690961743750000004577499053812215734_">
							<use xlink:href="#SVGID_1_"  style="overflow:visible;"/>
						</clipPath>
						<g style="clip-path:url(#SVGID_00000126319544690961743750000004577499053812215734_);">
							<path class="st4" d="M443.8,139c0,0,5.2-6.4,8.3-6.1c4.6,0.5,6.6,9,6.1,12.8c-0.7,4.8-5,15.1-10.4,17.3c-1.1,0.4-5-0.9-5-0.9
								L443.8,139z"/>
						</g>
					</g>
				</g>
			</g>
		</g>
	</g>
	<g>
		<g>
			<g>
				<g>
					<g>
						<defs>
							<polygon id="SVGID_00000037679281118912393570000010368135506453080974_" points="370.5,132.9 370.5,132.9 355,132.9 
								355,163.1 370.5,163.1 							"/>
						</defs>
						<clipPath id="SVGID_00000161617082654260419850000002389016131317329852_">
							<use xlink:href="#SVGID_00000037679281118912393570000010368135506453080974_"  style="overflow:visible;"/>
						</clipPath>
						<g style="clip-path:url(#SVGID_00000161617082654260419850000002389016131317329852_);">
							<path class="st4" d="M369.5,139c0,0-5.2-6.4-8.3-6.1c-4.6,0.5-6.7,9-6.1,12.8c0.7,4.8,5,15.1,10.4,17.3c1.1,0.4,5-0.9,5-0.9
								L369.5,139z"/>
						</g>
					</g>
				</g>
			</g>
		</g>
	</g>
	<ellipse class="st6" cx="364.5" cy="162.6" rx="4" ry="4.5"/>
	<ellipse class="st6" cx="448.5" cy="163.6" rx="4" ry="4.5"/>
	<path class="st6" d="M370.9,119.2l11.6-4.6c14.4-5.7,30.8-6,45.3-0.6l14.3,5.3c2.7,1,5.7,3.6,6.4,1l0.7-2.9
		c0.9-3.4-7.4-18.6-14.6-24c-5.1-3.8-11.1-6.2-17.5-7c-6-0.7-12-0.8-18-0.2c-5.7,0.5-11.1,2.5-15.9,5.6c-9,5.8-20.8,23.2-19.9,25.9
		l1.1,2.9C365.3,123,368.3,120.2,370.9,119.2z"/>
</g>
<path class="st7" d="M411.5,161.7c0,0.9-2.1,1.6-4.8,1.6s-4.8-0.7-4.8-1.6"/>
</svg>
