<?xml version="1.0" encoding="utf-8"?>
<!-- Generator: Adobe Illustrator 26.0.3, SVG Export Plug-In . SVG Version: 6.00 Build 0)  -->
<svg version="1.1" id="Calque_1" xmlns="http://www.w3.org/2000/svg" xmlns:xlink="http://www.w3.org/1999/xlink" x="0px" y="0px"
	 viewBox="0 0 158 159.3" style="enable-background:new 0 0 158 159.3;" xml:space="preserve">
<style type="text/css">
	.st0{fill:#B26959;}
	.st1{fill:#C58C85;}
	.st2{clip-path:url(#SVGID_00000021811040441178136350000011565007451749783683_);}
	.st3{fill:#B7837E;}
	.st4{clip-path:url(#SVGID_00000057870346668953168720000012974556061803049617_);}
	.st5{fill:#282828;}
	.st6{fill:#F4CB89;}
	.st7{fill:#8D4B51;}
</style>
<g id="Calque_3">
	<circle class="st0" cx="80.9" cy="73" r="38.3"/>
	<path class="st1" d="M116.4,69.2c-0.9-9.3-36-14.7-36-14.7l0,0c0,0-35.1,5.4-36,14.7c-2.2,22.2-1,31,0.5,55.9
		c0.6,9.8,25.6,26.9,29.5,29.5c0.3,0.2,0.7,0.4,1.1,0.4l4.8,0.1h0.1l4.8-0.1c0.4,0,0.8-0.1,1.1-0.4c3.9-2.6,28.9-19.8,29.5-29.5
		C117.4,100.2,118.7,91.3,116.4,69.2z"/>
	<g>
		<g>
			<g>
				<g>
					<defs>
						<polygon id="SVGID_1_" points="116.6,87.5 116.6,87.5 132.1,87.5 132.1,117.7 116.6,117.7 						"/>
					</defs>
					<clipPath id="SVGID_00000176031388866647119840000017112510962071801770_">
						<use xlink:href="#SVGID_1_"  style="overflow:visible;"/>
					</clipPath>
					<g style="clip-path:url(#SVGID_00000176031388866647119840000017112510962071801770_);">
						<path class="st3" d="M117.7,93.5c0,0,5.2-6.4,8.3-6.1c4.6,0.5,6.7,9,6,12.8c-0.7,4.8-5,15.1-10.3,17.3c-1,0.4-5-0.9-5-0.9
							L117.7,93.5z"/>
					</g>
				</g>
			</g>
		</g>
	</g>
	<g>
		<g>
			<g>
				<g>
					<defs>
						<polygon id="SVGID_00000171719284518193933360000014373712279918543270_" points="44.4,87.5 44.4,87.5 28.9,87.5 28.9,117.7 
							44.4,117.7 						"/>
					</defs>
					<clipPath id="SVGID_00000001649951902232293250000012021168008759772092_">
						<use xlink:href="#SVGID_00000171719284518193933360000014373712279918543270_"  style="overflow:visible;"/>
					</clipPath>
					<g style="clip-path:url(#SVGID_00000001649951902232293250000012021168008759772092_);">
						<path class="st3" d="M43.3,93.5c0,0-5.2-6.4-8.3-6.1c-4.6,0.5-6.7,9-6.1,12.8c0.8,4.8,5,15.1,10.4,17.3c1,0.4,5-0.9,5-0.9
							L43.3,93.5z"/>
					</g>
				</g>
			</g>
		</g>
	</g>
	<ellipse class="st5" cx="38.3" cy="117.2" rx="4" ry="4.5"/>
	<ellipse class="st5" cx="122.3" cy="118.2" rx="4" ry="4.5"/>
	<path class="st6" d="M45.9,98.3c-0.5-0.6-33.6-46.2,24.6-63.4c0,0-31.8-33.9,10.7-33.9c43.4,0,13.2,32.4,10.9,33
		c0,0,54.5,21.8,23.4,65.9c0,0,0.2-34.7-6-37.8c-0.5,4.9-0.5,10-0.5,10c-8.9,2.2-18.1,3.2-27.3,3c-10.2-0.2-20.4-1.4-30.4-3.5v-9.7
		C43.6,68.6,45.9,98.3,45.9,98.3z"/>
</g>
<path class="st7" d="M85.3,116c0,0.9-2.1,1.6-4.8,1.6s-4.8-0.7-4.8-1.6"/>
</svg>
