<?xml version="1.0" encoding="utf-8"?>
<!-- Generator: Adobe Illustrator 26.0.3, SVG Export Plug-In . SVG Version: 6.00 Build 0)  -->
<svg version="1.1" id="Calque_1" xmlns="http://www.w3.org/2000/svg" xmlns:xlink="http://www.w3.org/1999/xlink" x="0px" y="0px"
	 viewBox="0 0 788 1005.1" style="enable-background:new 0 0 788 1005.1;" xml:space="preserve">
<style type="text/css">
	.st0{fill:#F4CB89;}
	.st1{fill:#C58C85;}
	.st2{fill:#8D4B51;}
	.st3{fill:none;stroke:#2E858E;stroke-width:3;stroke-miterlimit:10;}
	.st4{fill:#2E858E;}
</style>
<g>
	<g id="Calque_3">
		<path class="st0" d="M387.8,166.2l-28,9.7c0,0-23.6-36.1-21.6-41.1s8.4-9.1,14.6-11.9s16.3-24.3,20.1-23.6s35.8-4.1,35.8-4.1
			s31-0.3,34.5,5.6s19.9,31.4,19.9,31.4l5.3,23.3l-10.8,16.7c0,0-18.7,9.5-24.1,10S387.8,166.2,387.8,166.2z"/>
		<path class="st0" d="M438.4,157.2c-7.8,12.3-7.5,11.8-8.8,14.4c0.1,0.5,0.8,0.3,3.2,0.3c1.5,0.1,2.8,1,3.5,2.3
			c0.2,1.5,0.5,3.1,1.1,4.5c0.8,1.5,3.4-0.2,3.7-0.3c1-0.4,2.1-0.2,2.9,0.5c1,1.2,1.4,3.3,2.3,3.5s3.3-2.4,3.3-2.4
			c0.8-0.7,1.8-1.1,2.8-1c1.5,0.2,4.1,2.5,5.5,2.2s2.4-3.2,2.5-3.9c0.4-1,1-2,1.9-2.7c0.8-0.6,1.9-0.9,3.8-0.5s3.5,1.1,5-0.1
			s0.6-4.2,0.5-4.7c-0.2-1.5,0.2-3,1.2-4.2c1.5-1.4,3.4-1.5,4.6-2.1s1.7-1.2,1.8-1.9s-0.5-2.1-1-2.9c-0.7-0.9-0.9-2-0.7-3.1
			c0.3-1.6,1.5-2.4,2.3-3.2c0.9-0.8,1.4-0.9,1.4-1.9c0-0.9-1-1.5-2-1.9c-0.9-0.3-1.5-1-1.7-1.9c-0.3-0.8,0.2-1.6,0.7-2.6
			s0.9-1.9,0.1-3s-2.3-1-2.9-1.2c-1-0.1-1.9-0.6-2.5-1.3c-0.7-1.1-1-2.4-0.9-3.7c0.3-1,0.1-2-0.5-2.8c-0.8-0.9-2-0.3-2.5-0.2
			c-0.8,0.1-1.7-0.1-2.3-0.7c-0.5-0.6-0.7-1.3-0.8-2.1c-0.1-0.7-0.4-1.4-0.9-1.9c-0.7-0.7-1.8-1-2.8-0.7c-1.3,0.2-2.9,0.7-3.9,0.3
			s-4.9-3.8-3.4-2.5c12.5,11.3-1.7,5.8-2.1,8s3.1,2.4,2.9,6.7c0,0.7,0.3,1.1,0.2,1.6c-0.1,0.5-0.1,1,0.1,1.5
			c0.6,1.2,1.4,2.4,2.3,3.3c0.7,0.4-0.2,1.8-0.3,2.6c-0.1,0.6-0.1,1.2,0.2,1.7c0.2,0.6,0.7,1.2,0.4,1.6s-1.2-0.1-2.1-0.4
			c-0.7-0.3-1.5-0.3-2.2,0c-0.8,0.4-1.4,2-2.4,2.4s-1.4-0.1-1.9-0.4c-0.5-0.2-0.9-0.6-1.5-0.2s-0.6,0.2-1.1,1.2s-0.5,1-0.9,1.2
			c-0.5,0.2-1.1,0.1-1.6-0.2c-0.4-0.1-0.7-0.2-1.1-0.2C443.3,154.5,439.1,155.7,438.4,157.2z"/>
		<path class="st0" d="M434.9,162.6c-12.4,7.7-11.9,7.4-14.1,9.2c-0.2,0.5,0.6,0.6,2.8,1.6c1.3,0.7,2.1,2.1,2.1,3.6
			c-0.5,1.5-0.8,3-0.9,4.5c0.1,1.8,3.1,1.3,3.5,1.3c1.1,0,2,0.7,2.4,1.7c0.4,1.5-0.2,3.6,0.5,4.1s4-0.7,4-0.7c1-0.3,2-0.1,2.9,0.4
			c1.3,0.9,2.6,4,4,4.4s3.5-1.9,3.9-2.4c0.8-0.8,1.8-1.3,2.9-1.6c1-0.2,2.1,0,3.7,1.2s2.7,2.5,4.6,2.1s2.4-3.6,2.5-4
			c0.5-1.5,1.5-2.6,2.9-3.2c2-0.6,3.8,0.2,5.1,0.1c0.9,0.1,1.9-0.2,2.5-0.9c0.5-0.6,0.4-2.2,0.4-3.1c-0.2-1.1,0-2.2,0.7-3.1
			c1-1.3,2.3-1.5,3.5-1.9s1.6-0.2,2-1.1s-0.2-1.8-1-2.6c-0.6-0.6-0.9-1.5-0.8-2.4s0.8-1.4,1.7-2s1.7-1.3,1.4-2.6s-1.6-1.9-2.1-2.3
			c-0.8-0.5-1.4-1.3-1.7-2.3c-0.2-1.3,0.1-2.6,0.8-3.7c0.7-0.7,1-1.7,0.8-2.7c-0.4-1.1-1.6-1.1-2.2-1.3c-0.8-0.2-1.5-0.8-1.8-1.6
			c-0.2-0.8-0.1-1.5,0.2-2.2c0.2-0.7,0.2-1.4,0-2.1c-0.3-1-1.2-1.7-2.2-1.8c-1.3-0.3-2.9-0.7-3.7-1.4c-0.8-0.8-2.8-5.6-2-3.7
			c6.4,15.6-4.1,4.5-5.4,6.3c-1.2,1.8,1.8,3.5-0.3,7.2c-0.3,0.6-0.2,1.1-0.5,1.6c-0.3,0.4-0.5,0.9-0.6,1.4c0,1.4,0.2,2.7,0.6,4
			c0.4,0.6-1,1.6-1.4,2.2c-0.4,0.4-0.6,1-0.6,1.6c0,0.7,0.1,1.4-0.3,1.6s-1-0.6-1.7-1.2c-0.5-0.6-1.2-0.9-2-0.9
			c-0.9,0-2.1,1.2-3.2,1.1s-1.2-0.7-1.6-1.1s-0.6-0.9-1.2-0.8c-0.6,0-1.1,0.2-1.5,0.6c-0.9,0.7-0.9,0.7-1.3,0.7s-1-0.4-1.4-0.9
			c-0.3-0.3-0.6-0.5-0.9-0.7C440.4,162.3,436.1,161.5,434.9,162.6z"/>
		<path class="st0" d="M442.7,157.8c-12.4,7.7-11.9,7.4-14.1,9.2c-0.2,0.5,0.6,0.6,2.8,1.6c1.3,0.7,2.1,2.1,2.1,3.6
			c-0.5,1.5-0.8,3-0.9,4.5c0.1,1.8,3.1,1.3,3.5,1.3c1.1,0,2,0.7,2.4,1.7c0.4,1.5-0.2,3.6,0.5,4.1s4-0.7,4-0.7c1-0.3,2-0.1,2.9,0.4
			c1.3,0.9,2.6,4,4,4.4s3.5-1.9,3.9-2.4c0.8-0.8,1.8-1.3,2.9-1.6c1-0.2,2.1,0,3.7,1.2s2.7,2.5,4.6,2.1s2.4-3.6,2.5-4
			c0.5-1.5,1.5-2.6,2.9-3.2c2-0.6,3.8,0.2,5.1,0.1c0.9,0.1,1.9-0.2,2.5-0.9c0.5-0.6,0.4-2.2,0.4-3.1c-0.2-1.1,0-2.2,0.7-3.1
			c1-1.3,2.3-1.5,3.5-1.9s1.6-0.2,2-1.1s-0.2-1.8-1-2.6c-0.6-0.6-0.9-1.5-0.8-2.4s0.8-1.4,1.7-2s1.7-1.3,1.4-2.6s-1.6-1.9-2.1-2.3
			c-0.8-0.5-1.4-1.3-1.7-2.3c-0.2-1.3,0.1-2.6,0.8-3.7c0.7-0.7,1-1.7,0.8-2.7c-0.4-1.1-1.6-1.1-2.1-1.3c-0.8-0.2-1.5-0.8-1.8-1.6
			c-0.2-0.8-0.1-1.5,0.2-2.2c0.2-0.7,0.2-1.4,0-2.1c-0.3-1-1.2-1.7-2.2-1.8c-1.3-0.3-2.9-0.7-3.7-1.4c-0.8-0.8-4.7-3-3.9-1.1
			c6.4,15.6-2.2,1.9-3.5,3.7c-1.2,1.8,1.8,3.5-0.3,7.2c-0.3,0.6-0.2,1.1-0.5,1.6c-0.3,0.4-0.5,0.9-0.6,1.4c0,1.4,0.2,2.7,0.6,4
			c0.4,0.6-1,1.6-1.4,2.2c-0.4,0.4-0.6,1-0.6,1.6c0,0.7,0.1,1.4-0.3,1.6s-1-0.6-1.7-1.2c-0.5-0.6-1.2-0.9-2-0.9
			c-0.9,0-2.1,1.2-3.2,1.1s-1.2-0.7-1.6-1.1s-0.6-0.9-1.2-0.8c-0.6,0-1.1,0.2-1.5,0.6c-0.9,0.7-0.9,0.7-1.3,0.7s-1-0.4-1.4-0.9
			c-0.3-0.3-0.6-0.5-0.9-0.7C448.3,157.5,444,156.7,442.7,157.8z"/>
		<path class="st0" d="M366.4,159.3c3.1,14.2,3.1,13.7,3.4,16.5c-0.2,0.5-0.9,0-3.1-0.8c-1.4-0.4-2.9,0-4,1
			c-0.7,1.4-1.5,2.7-2.6,3.8c-1.3,1.2-3.1-1.4-3.4-1.6c-0.8-0.7-1.9-0.9-2.9-0.5c-1.3,0.8-2.4,2.6-3.3,2.5s-2.3-3.4-2.3-3.4
			c-0.5-0.9-1.3-1.6-2.3-1.8c-1.5-0.3-4.7,1-6,0.2s-1.1-3.8-1.1-4.5c0-1.1-0.3-2.2-0.9-3.2c-0.5-0.9-1.5-1.5-3.4-1.8
			s-3.7-0.2-4.7-1.8s0.9-4.2,1.1-4.6c0.7-1.3,0.8-2.9,0.2-4.3c-0.9-1.8-2.7-2.6-3.6-3.5c-0.7-0.6-1.1-1.5-1.1-2.4
			c0.1-0.7,1.2-1.8,2-2.4c0.9-0.6,1.5-1.6,1.7-2.7c0.2-1.6-0.6-2.7-1.1-3.8s-1-1.3-0.7-2.2s1.4-1,2.5-1.1c0.9,0,1.7-0.4,2.3-1.2
			c0.5-0.7,0.4-1.6,0.2-2.7s-0.2-2.1,0.9-2.8s2.5-0.2,3.1-0.1c1,0.2,2,0.1,2.8-0.4c1-0.8,1.8-1.9,2.1-3.2c0-1,0.5-1.9,1.4-2.5
			c1.1-0.5,2,0.4,2.4,0.6c0.7,0.4,1.6,0.5,2.4,0.2c0.7-0.4,1.2-1,1.5-1.7c0.3-0.6,0.8-1.2,1.5-1.5c0.9-0.4,2-0.3,2.8,0.3
			c1.2,0.7,2.5,1.6,3.6,1.6s5.9-1.9,4-1.2c-15.6,6.4-0.3,6.1-0.7,8.2c-0.4,2.1-3.7,1.2-5,5.3c-0.2,0.7-0.7,0.9-0.8,1.5
			c-0.1,0.5-0.3,1-0.5,1.4c-0.1,0.2-2.6,2.2-3.3,2.4c-0.8,0.1-0.5,1.8-0.5,2.5c-0.1,0.6-0.3,1.1-0.8,1.5c-0.4,0.5-1.1,0.9-0.9,1.3
			s1.1,0.3,2.1,0.4c0.8-0.1,1.5,0.2,2.1,0.8s0.6,2.4,1.4,3.1c0.8,0.7,1.3,0.3,1.9,0.3s1.1-0.2,1.5,0.3s0.5,0.4,0.7,1.5
			s0.1,1.1,0.5,1.4c0.5,0.3,1,0.5,1.6,0.4c0.4,0,0.7,0,1.1,0.1C362.7,155.1,366.3,157.6,366.4,159.3z"/>
		<path class="st0" d="M367.9,165.5c9,11.4,8.7,11,10.2,13.4c0,0.5-0.8,0.4-3.2,0.6c-1.5,0.2-2.7,1.3-3.2,2.7c0,1.5-0.2,3.1-0.7,4.6
			c-0.7,1.6-3.4,0.1-3.7,0c-1-0.3-2.1,0-2.8,0.8c-0.9,1.3-1,3.4-1.9,3.7s-3.5-2-3.5-2c-0.8-0.6-1.9-0.8-2.9-0.7
			c-1.5,0.4-3.8,2.9-5.3,2.8s-2.7-3-2.9-3.6c-0.5-1-1.2-1.9-2.2-2.5c-0.9-0.5-2-0.7-3.9-0.1s-3.4,1.4-5,0.4s-1-4.2-1-4.6
			c0.1-1.5-0.5-3-1.7-4c-1.6-1.3-3.6-1.1-4.8-1.6s-1.8-1-2-1.7s0.3-2.2,0.7-3c0.6-0.9,0.7-2.1,0.3-3.1c-0.5-1.6-1.7-2.2-2.6-2.9
			s-1.5-0.8-1.5-1.7s0.8-1.6,1.8-2.1c0.8-0.4,1.4-1.1,1.5-2c0.2-0.9-0.3-1.6-0.9-2.5s-1.1-1.8-0.4-2.9s2.1-1.2,2.8-1.5
			c1-0.2,1.8-0.8,2.4-1.6c0.6-1.1,0.8-2.5,0.5-3.7c-0.4-0.9-0.3-2,0.2-2.8c0.7-0.9,1.9-0.5,2.5-0.5c0.8,0,1.7-0.3,2.2-0.9
			c0.4-0.6,0.6-1.4,0.5-2.2c0-0.7,0.2-1.4,0.7-2c0.6-0.8,1.7-1.2,2.7-0.9c1.4,0.1,3,0.4,4-0.1s4.5-4.3,3.2-2.8
			c-11.3,12.5,2.3,5.6,2.9,7.7s-2.8,2.7-2.2,6.9c0.1,0.7-0.2,1.1,0,1.6c0.1,0.5,0.2,1,0.1,1.5c0,0.2-1.3,3.1-2,3.6s0.4,1.8,0.6,2.5
			c0.2,0.6,0.2,1.2,0,1.7c-0.2,0.6-0.6,1.3-0.2,1.6s1.2-0.2,2-0.6c0.7-0.4,1.5-0.5,2.2-0.2c0.8,0.3,1.6,1.9,2.6,2.1s1.4-0.3,1.9-0.5
			s0.9-0.7,1.5-0.4s0.6,0.1,1.2,1.1s0.6,0.9,1,1.1c0.6,0.1,1.1,0,1.6-0.3c0.3-0.2,0.7-0.3,1.1-0.4
			C362.8,163.4,367.1,164.1,367.9,165.5z"/>
		<path class="st0" d="M362.1,158.4c9,11.4,8.7,11,10.2,13.4c0,0.5-0.8,0.4-3.2,0.6c-1.5,0.2-2.7,1.3-3.2,2.7c0,1.5-0.2,3.1-0.7,4.6
			c-0.7,1.6-3.4,0.1-3.7,0.1c-1-0.3-2.1,0-2.8,0.8c-0.9,1.3-1,3.4-1.9,3.7s-3.5-2-3.5-2c-0.8-0.6-1.9-0.8-2.9-0.6
			c-1.5,0.4-3.8,2.9-5.3,2.8s-2.7-3-2.9-3.6c-0.5-1-1.2-1.9-2.1-2.5c-0.9-0.5-2-0.7-3.9-0.1s-3.4,1.4-5,0.4s-1-4.2-1-4.6
			c0.1-1.5-0.5-3-1.7-4c-1.6-1.3-3.6-1.1-4.8-1.6s-1.8-1-2-1.7s0.3-2.2,0.7-3c0.6-0.9,0.7-2.1,0.3-3.1c-0.5-1.6-1.7-2.2-2.6-2.9
			s-1.5-0.8-1.5-1.7s0.8-1.6,1.8-2.1c0.8-0.4,1.4-1.1,1.5-2c0.2-0.9-0.3-1.6-1-2.5c-0.6-0.9-1.1-1.8-0.4-3s2.1-1.2,2.8-1.5
			c1-0.2,1.8-0.8,2.4-1.6c0.6-1.1,0.8-2.5,0.5-3.7c-0.4-0.9-0.3-2,0.2-2.8c0.7-0.9,1.9-0.5,2.5-0.5c0.8,0,1.7-0.3,2.2-0.9
			c0.4-0.6,0.6-1.4,0.5-2.2c0-0.7,0.2-1.4,0.7-2c0.6-0.8,1.7-1.2,2.7-0.9c1.3,0.1,3,0.4,4-0.1s4.5-4.3,3.1-2.8
			c-11.3,12.6,2.3,5.6,2.9,7.7c0.6,2.1-2.8,2.7-2.2,6.9c0.1,0.7-0.2,1.1,0,1.7c0.1,0.5,0.2,1,0.1,1.5c0,0.2-1.3,3.2-2,3.6
			s0.4,1.8,0.6,2.5c0.2,0.6,0.2,1.2,0,1.7c-0.2,0.6-0.6,1.3-0.3,1.6s1.2-0.2,2.1-0.6c0.7-0.4,1.5-0.4,2.2-0.2
			c0.8,0.3,1.6,1.8,2.6,2.1s1.3-0.3,1.9-0.5s0.9-0.7,1.4-0.4s0.6,0.1,1.3,1.1s0.6,0.9,1,1.1c0.6,0.1,1.1,0,1.6-0.3
			c0.3-0.2,0.7-0.3,1.1-0.4C357,156.2,361.3,156.9,362.1,158.4z"/>
		<circle class="st1" cx="406.4" cy="117.8" r="38.3"/>
		<path class="st0" d="M406.2,162.6c-22.9,0-41.5-18.6-41.5-41.5s18.6-41.5,41.5-41.5"/>
		<path class="st0" d="M407,79.5c22.9,0,41.5,18.6,41.5,41.6c0,22.9-18.6,41.5-41.5,41.5"/>
		<path class="st1" d="M442,114.1c-0.9-9.3-36-14.7-36-14.7l0,0c0,0-35,5.5-35.9,14.7c-2.2,22.2-1,31,0.5,55.9
			c0.6,9.8,25.6,26.9,29.5,29.5c0.3,0.2,0.7,0.3,1.1,0.4l4.8,0.1h0.1l4.8-0.1c0.4,0,0.8-0.1,1.1-0.4c3.9-2.6,28.9-19.7,29.5-29.5
			C443,145.1,444.2,136.3,442,114.1z"/>
		<g>
			<g>
				<g>
					<defs>
						<polygon id="SVGID_1_" points="442.2,132.3 442.2,132.3 457.6,132.3 457.6,162.6 442.2,162.6 						"/>
					</defs>
					<clipPath id="SVGID_00000057120121893589107450000011299791257124819348_">
						<use xlink:href="#SVGID_1_"  style="overflow:visible;"/>
					</clipPath>
				</g>
			</g>
		</g>
		<g>
			<g>
				<g>
					<defs>
						<polygon id="SVGID_00000112614793519190051900000009541288136621910969_" points="369.9,132.3 369.9,132.3 354.4,132.3 
							354.4,162.6 369.9,162.6 						"/>
					</defs>
					<clipPath id="SVGID_00000144315898611519254480000007763554909550522779_">
						<use xlink:href="#SVGID_00000112614793519190051900000009541288136621910969_"  style="overflow:visible;"/>
					</clipPath>
				</g>
			</g>
		</g>
	</g>
	<g id="Calque_3_00000157995965982150204780000014983467293535698605_">
		<path class="st2" d="M410.8,159.7c0,0.9-2.1,1.6-4.8,1.6s-4.8-0.7-4.8-1.6"/>
	</g>
</g>
<path class="st3" d="M358.1,132.5c-1-3-1.5-6-1.5-9.2c0-20.5,22.4-37.2,50-37.2s50,16.7,50,37.2c0,3.3-0.6,6.5-1.7,9.5"/>
<g>
	<path class="st4" d="M369.9,166l-2.1,0.3c-2.2,0.3-4.3-1.4-4.4-3.6l-3.5-32.6c-0.3-2.2,1.4-4.3,3.6-4.4l2.1-0.3
		c2.2-0.3,4.3,1.4,4.4,3.6l3.5,32.6C373.8,163.7,372.1,165.7,369.9,166z"/>
	<path class="st4" d="M362.8,163.2l-4.3,0.4c-2.2,0.3-4.3-1.4-4.4-3.6l-2.8-25.2c-0.3-2.2,1.4-4.3,3.6-4.4l4.3-0.4L362.8,163.2z"/>
	<path class="st4" d="M354.4,123.3l2.7-1.2c0.6-0.3,1.3,0.1,1.4,0.7l1,9c0.1,0.5-0.3,0.9-0.7,1l0,0c-0.5,0.1-0.8-0.1-1-0.6l-3.7-7.8
		C353.7,124.2,353.9,123.6,354.4,123.3z"/>
</g>
<g>
	<path class="st4" d="M444.6,166.3l2.1,0.2c2.2,0.2,4.2-1.6,4.3-3.8l2-32.7c0.2-2.2-1.6-4.2-3.8-4.3l-2.1-0.2
		c-2.2-0.2-4.2,1.6-4.3,3.8l-2.1,32.7C440.6,164.2,442.3,166.1,444.6,166.3z"/>
	<path class="st4" d="M451.5,163.1l4.3,0.3c2.2,0.2,4.2-1.6,4.3-3.8l1.6-25.3c0.2-2.2-1.6-4.2-3.8-4.3l-4.3-0.3L451.5,163.1z"/>
	<path class="st4" d="M458.2,122.9l-2.7-1.1c-0.7-0.3-1.3,0.2-1.4,0.8l-0.6,9c-0.1,0.5,0.4,0.9,0.8,1l0,0c0.5,0.1,0.8-0.1,1-0.6
		l3.3-7.9C458.9,123.8,458.7,123.2,458.2,122.9z"/>
</g>
<path class="st3" d="M366.9,161.5l-18,14.3c-3,2.4-2.4,7.2,1.1,8.7l12.3,5.3"/>
<circle class="st4" cx="366.9" cy="189.9" r="7"/>
</svg>
