<?xml version="1.0" encoding="utf-8"?>
<!-- Generator: Adobe Illustrator 26.0.3, SVG Export Plug-In . SVG Version: 6.00 Build 0)  -->
<svg version="1.1" id="Calque_1" xmlns="http://www.w3.org/2000/svg" xmlns:xlink="http://www.w3.org/1999/xlink" x="0px" y="0px"
	 viewBox="0 0 788 1005.1" style="enable-background:new 0 0 788 1005.1;" xml:space="preserve">
<style type="text/css">
	.st0{fill:#353535;}
	.st1{fill:#F4CB89;}
	.st2{fill:#C58C85;}
	.st3{clip-path:url(#SVGID_00000087402607285084128930000006802745547623940771_);}
	.st4{fill:#B7837E;}
	.st5{clip-path:url(#SVGID_00000177479257129690735700000009732143439619073694_);}
	.st6{fill:#8D4B51;}
</style>
<path class="st0" d="M373,118.4L352,102.4c-1-0.8-2.5-0.6-3.4,0.4l-2.7,3.3c-0.9,1.1-0.6,2.8,0.6,3.6l21.7,13.6l0.3-6.5l-16.8,10.7
	c-1.2,0.8-1.5,2.5-0.6,3.6l2.6,3.2c0.8,1,2.2,1.2,3.3,0.5l18.7-13L373,118.4z"/>
<g id="Calque_3_00000126287511969790463610000010054987771210602893_">
	<path class="st1" d="M388.1,186.5c0,14.6,0,14-0.3,16.9c-0.3,0.4-0.8-0.2-2.9-1.5c-1.3-0.7-2.9-0.7-4.2,0.1c-1,1.2-2.1,2.3-3.4,3.2
		c-1.5,0.9-2.7-2-3-2.3c-0.6-0.9-1.7-1.3-2.7-1.1c-1.5,0.4-2.9,2.1-3.8,1.7s-1.5-3.8-1.5-3.8c-0.3-1-1-1.8-1.9-2.3
		c-1.4-0.6-4.8-0.1-5.9-1.1s-0.3-4-0.1-4.6c0.2-1.1,0.2-2.2-0.1-3.3c-0.4-0.9-1.1-1.8-3-2.5s-3.5-1-4.2-2.8s1.8-3.9,2.1-4.2
		c1-1.1,1.4-2.7,1.2-4.2c-0.5-2-2.1-3.1-2.8-4.2c-0.6-0.7-0.8-1.7-0.5-2.6c0.3-0.7,1.6-1.5,2.4-1.9c1-0.4,1.8-1.2,2.2-2.2
		c0.6-1.5,0-2.8-0.2-3.9s-0.6-1.5-0.2-2.3s1.6-0.7,2.7-0.5c0.9,0.2,1.8,0,2.5-0.6s0.7-1.4,0.8-2.6s0.3-2.1,1.5-2.6s2.5,0.4,3.1,0.6
		c0.9,0.4,1.9,0.5,2.8,0.2c1.2-0.5,2.1-1.5,2.7-2.6c0.4-0.8,0.7-1.8,1.9-2.1c1.2-0.3,1.9,0.8,2.2,1.1c0.6,0.6,1.5,0.8,2.3,0.7
		c0.8-0.2,1.4-0.7,1.9-1.4c0.4-0.6,1.1-0.9,1.8-1.1c1-0.2,2,0.1,2.7,0.9c1,0.9,2.1,2.1,3.2,2.4c1.1,0.3,6.2-0.6,4.2-0.2
		c-16.6,2.8-1.6,5.9-2.5,7.9s-3.9,0.4-6,4.1c-0.4,0.6-0.9,0.7-1,1.3c-0.2,0.5-0.5,0.9-0.8,1.2c-1.2,0.7-2.4,1.3-3.8,1.6
		c-0.8-0.1-0.8,1.6-1.1,2.3c-0.2,0.6-0.6,1-1.1,1.4s-1.3,0.7-1.2,1.1s1.1,0.5,2,0.8c0.8,0.1,1.4,0.6,1.9,1.2
		c0.4,0.7,0.1,2.4,0.7,3.3s1.2,0.6,1.8,0.7s1.1,0,1.4,0.6c0.3,0.5,0.4,1.1,0.3,1.6c-0.1,1.1-0.1,1.1,0.1,1.5s0.9,0.6,1.5,0.7
		c0.4,0.1,0.7,0.2,1.1,0.4C385.4,181.6,388.4,184.8,388.1,186.5z"/>
	<path class="st1" d="M427,186.5c0,14.6,0,14,0.3,16.9c0.3,0.4,0.8-0.2,2.9-1.5c1.3-0.7,2.9-0.7,4.2,0.1c1,1.2,2.1,2.3,3.4,3.2
		c1.5,0.9,2.7-2,3-2.3c0.6-0.9,1.7-1.3,2.7-1.1c1.5,0.4,2.9,2.1,3.8,1.7s1.5-3.8,1.5-3.8c0.3-1,1-1.8,1.9-2.3
		c1.4-0.6,4.8-0.1,5.9-1.1s0.3-4,0.1-4.6c-0.2-1.1-0.2-2.2,0.1-3.3c0.4-0.9,1.1-1.8,3-2.5s3.5-1,4.2-2.8s-1.8-3.9-2.1-4.2
		c-1-1.1-1.4-2.7-1.2-4.2c0.5-2,2.1-3.1,2.8-4.2c0.6-0.7,0.8-1.7,0.5-2.6c-0.3-0.7-1.6-1.5-2.4-1.9c-1-0.4-1.9-1.2-2.2-2.2
		c-0.6-1.5,0-2.8,0.2-3.9s0.6-1.5,0.2-2.3s-1.6-0.7-2.7-0.5c-0.9,0.2-1.8,0-2.5-0.6s-0.7-1.4-0.8-2.6s-0.2-2.1-1.5-2.6
		s-2.5,0.4-3.1,0.6c-0.9,0.4-1.9,0.5-2.9,0.2c-1.2-0.5-2.1-1.5-2.7-2.6c-0.4-0.8-0.8-1.8-1.9-2.1s-1.9,0.8-2.2,1.1
		c-0.6,0.6-1.5,0.8-2.3,0.7c-0.7-0.3-1.3-0.7-1.8-1.4c-0.4-0.6-1.1-0.9-1.8-1.1c-1-0.2-2,0.1-2.7,0.9c-1,0.9-2.1,2.1-3.2,2.4
		c-1.1,0.3-6.2-0.6-4.2-0.2c16.6,2.8,1.6,5.9,2.5,7.9s3.9,0.4,6,4.1c0.4,0.6,0.9,0.7,1.1,1.3c0.2,0.5,0.5,0.9,0.8,1.2
		c1.2,0.7,2.4,1.3,3.7,1.6c0.8-0.1,0.8,1.6,1.1,2.3c0.2,0.6,0.6,1,1.1,1.4s1.3,0.7,1.2,1.1s-1.1,0.5-2,0.8c-0.8,0.1-1.4,0.6-1.9,1.2
		c-0.4,0.7-0.1,2.4-0.7,3.3s-1.2,0.6-1.8,0.7s-1.1,0-1.4,0.6c-0.3,0.5-0.4,1.1-0.3,1.6c0.1,1.1,0.1,1.1-0.1,1.5s-0.9,0.6-1.5,0.7
		c-0.4,0.1-0.7,0.2-1.1,0.4C429.7,181.6,426.7,184.8,427,186.5z"/>
	<circle class="st2" cx="407.5" cy="118.1" r="38.3"/>
	<path class="st1" d="M407.3,162.9c-22.9,0-41.5-18.6-41.5-41.5s18.9-41.6,41.8-41.6"/>
	<path class="st1" d="M408,79.8c22.9,0,41.5,18.6,41.5,41.5s-18.6,41.5-41.5,41.5l0,0"/>
	<path class="st2" d="M443.1,114.3c-0.9-9.3-36-14.7-36-14.7l0,0c0,0-35.1,5.4-36,14.7c-2.2,22.2-1,31,0.5,55.9
		c0.6,9.8,25.5,26.8,29.5,29.5c0.4,0.2,0.8,0.4,1.2,0.4l4.8,0.1h0.1l4.8-0.1c0.4,0,0.8-0.1,1.2-0.4c4-2.7,28.9-19.8,29.5-29.5
		C444,145.3,445.2,136.6,443.1,114.3z"/>
	<g>
		<g>
			<g>
				<g>
					<defs>
						<polygon id="SVGID_1_" points="443.2,132.6 443.2,132.6 458.7,132.6 458.7,162.8 443.2,162.8 						"/>
					</defs>
					<clipPath id="SVGID_00000144296409340631431480000018097116704405183913_">
						<use xlink:href="#SVGID_1_"  style="overflow:visible;"/>
					</clipPath>
					<g style="clip-path:url(#SVGID_00000144296409340631431480000018097116704405183913_);">
						<path class="st4" d="M444.3,138.7c0,0,5.2-6.4,8.3-6.1c4.6,0.5,6.6,9,6.1,12.8c-0.7,4.8-5,15.1-10.4,17.3
							c-1.1,0.4-5-0.9-5-0.9L444.3,138.7z"/>
					</g>
				</g>
			</g>
		</g>
	</g>
	<g>
		<g>
			<g>
				<g>
					<defs>
						<polygon id="SVGID_00000052066030484179438530000015005979255505937853_" points="370.9,132.6 370.9,132.6 355.5,132.6 
							355.5,162.8 370.9,162.8 						"/>
					</defs>
					<clipPath id="SVGID_00000059297592772396557020000000886086534944094349_">
						<use xlink:href="#SVGID_00000052066030484179438530000015005979255505937853_"  style="overflow:visible;"/>
					</clipPath>
					<g style="clip-path:url(#SVGID_00000059297592772396557020000000886086534944094349_);">
						<path class="st4" d="M369.9,138.7c0,0-5.2-6.4-8.3-6.1c-4.6,0.5-6.7,9-6.1,12.8c0.7,4.8,5,15.1,10.4,17.3c1.1,0.4,5-0.9,5-0.9
							L369.9,138.7z"/>
					</g>
				</g>
			</g>
		</g>
	</g>
	<ellipse class="st0" cx="364.9" cy="162.3" rx="4" ry="4.5"/>
	<ellipse class="st0" cx="448.9" cy="163.3" rx="4" ry="4.5"/>
</g>
<g id="Calque_3_00000177465848162245240080000008476260514197900972_">
	<path class="st6" d="M411.8,160c0,0.9-2.1,1.6-4.8,1.6s-4.8-0.7-4.8-1.6"/>
</g>
<path class="st0" d="M371.6,120.2l11.6-4.6c14.4-5.7,30.8-6,45.3-0.6l14.3,5.3c2.7,1,5.7,3.6,6.4,1l0.7-2.9
	c0.9-3.4-7.4-18.6-14.6-24c-5.1-3.8-11.1-6.2-17.5-7c-6-0.7-12-0.8-18-0.2c-5.7,0.5-11.1,2.5-15.9,5.6c-9,5.8-20.8,23.2-19.9,25.9
	l1.1,2.9C366,124,369,121.2,371.6,120.2z"/>
</svg>
