<?xml version="1.0" encoding="utf-8"?>
<!-- Generator: Adobe Illustrator 26.0.2, SVG Export Plug-In . SVG Version: 6.00 Build 0)  -->
<svg version="1.1" id="Calque_1" xmlns="http://www.w3.org/2000/svg" xmlns:xlink="http://www.w3.org/1999/xlink" x="0px" y="0px"
	 viewBox="0 0 206.9 212.4" style="enable-background:new 0 0 206.9 212.4;" xml:space="preserve">
<style type="text/css">
	.st0{fill:#60131D;}
	.st1{clip-path:url(#SVGID_00000173139304509537902310000001507974702711347352_);}
	.st2{fill:#B9785C;}
	.st3{clip-path:url(#SVGID_00000011032201240623038360000002345772409634533046_);}
	.st4{fill:#D68F72;}
	.st5{fill:#99533D;}
</style>
<g>
	<path class="st0" d="M70.4,25.6c0,0-17.6,0.2-17.4,14.9c0.1,14.8,12.3,17.3,12.3,17.3s-10.4,15,3,21.3s19.2-5.1,19-9.6
		c-0.2-4.5,19.3-2.8,21.9-11.3c0,0,13.8,9.7,18.1,12.2c4.2,2.6,15.8,2.6,18.6-5.5c2.8-8.1-1.5-16.2-6-17.8c0,0,9.7-8.9,3.8-20.5
		c-5.9-11.5-17.3-8.5-17.3-8.5S126,7.8,115.1,3.6S96.6,8,96.6,8s-9.5-7.3-20.4,0.4C65.2,16.1,70.4,25.6,70.4,25.6z"/>
	<g id="random">
		<g>
			<g>
				<g>
					<defs>
						<polygon id="SVGID_1_" points="154.9,129.1 154.9,129.1 183.9,129.1 183.9,171.6 154.9,171.6 						"/>
					</defs>
					<clipPath id="SVGID_00000036222486067381838030000018356743612843812238_">
						<use xlink:href="#SVGID_1_"  style="overflow:visible;"/>
					</clipPath>
					<g style="clip-path:url(#SVGID_00000036222486067381838030000018356743612843812238_);">
						<path class="st2" d="M154.9,168l5.6-31.1c0,0,11.1-12.8,20.6-5.3c6.4,5,1,36.8-6.4,38.9C162.2,174,154.9,168,154.9,168z"/>
					</g>
				</g>
			</g>
		</g>
	</g>
	<g id="random2">
		<g>
			<g>
				<g>
					<defs>
						<polygon id="SVGID_00000053508181977529031340000002089193515278835587_" points="52,129.1 52,129.1 23,129.1 23,171.6 
							52,171.6 						"/>
					</defs>
					<clipPath id="SVGID_00000077322828295736521290000004991859648358521767_">
						<use xlink:href="#SVGID_00000053508181977529031340000002089193515278835587_"  style="overflow:visible;"/>
					</clipPath>
					<g style="clip-path:url(#SVGID_00000077322828295736521290000004991859648358521767_);">
						<path class="st2" d="M52,168l-5.6-31.1c0,0-11.1-12.8-20.6-5.3c-6.4,5-1,36.8,6.4,38.9C44.8,174,52,168,52,168z"/>
					</g>
				</g>
			</g>
		</g>
	</g>
	<path class="st4" d="M103.9,210c12.4-1.2,36-10.9,43-20.5c11.9-16.5,13.9-27.4,15.3-37c1.7-12.1,2.4-40.5,2.4-40.5
		c0-34.7-24.4-56.9-59-56.9h-2.3"/>
	<path class="st4" d="M106.8,55.5h-2.3c-34.6,0-59,22.2-59,56.9c0,0,0.7,28.5,2.4,40.5c1.4,9.7,3.3,20.5,15.3,37
		c6.9,9.6,28.4,18.8,40.8,20.1"/>
	<path class="st2" d="M102.9,75.3L102.9,75.3l-55.3,37.4c-1.8,1.2-4.3,0.8-5.4-1c-0.5-0.6-0.7-1.4-0.7-2.2
		c-0.2-14.2,5.6-45.9,60.9-52.8c0.2,0,0.3,0,0.5-0.1c4.1,0,55.7,0.7,64.9,52.6c2.9,16.3-0.9,9.3-2.5,5.9c-0.5-0.9-1.2-1.6-2.2-1.9
		c-8.9-3.3-54.2-20.9-60.6-38.1"/>
	<path class="st5" d="M94.6,168.4c-0.8,0.1-1.1,0.5-0.5,0.8c2.3,0.9,6.7,2.6,9.6,2.6c2.7,0,6.9-1.6,9.1-2.6c0.6-0.2,0.3-0.7-0.5-0.8
		c-2.6-0.2-3.7,0.5-8.9,0.5C98.9,168.9,97.1,168.3,94.6,168.4z"/>
	<path class="st0" d="M103.1,66.7c-0.5,0.6-0.9,1.2-1.4,1.6C89.5,81,55.3,89.8,51.1,104.1c-4.3,14.9-4.6,34.4-4.6,34.4
		s-9.4-8.9-9-8.4C18.6,107.7,16,68.8,66.7,50.4c28.2-10.2,36.3-3.6,36.3-3.6c0.1,0.2,0.2,0.5,0.4,0.6
		C105.2,49.7,112,54.5,103.1,66.7z"/>
	<path class="st0" d="M166.5,131.7c-0.5,0.2-3,5.8-3,5.8s1.2-16.6-2.7-31.5c-4-14.9-47.4-25.4-56.7-39c0.5-0.5-0.3,0.4,0.1-0.1
		c8.2-12.2,0.2-17.6-1.4-19.8c3.4-1.4,28-2.6,47.2,5C207.8,74.8,167,131.6,166.5,131.7z"/>
</g>
</svg>
