<?xml version="1.0" encoding="utf-8"?>
<!-- Generator: Adobe Illustrator 26.0.2, SVG Export Plug-In . SVG Version: 6.00 Build 0)  -->
<svg version="1.1" id="Calque_1" xmlns="http://www.w3.org/2000/svg" xmlns:xlink="http://www.w3.org/1999/xlink" x="0px" y="0px"
	 viewBox="0 0 260.5 240.1" style="enable-background:new 0 0 260.5 240.1;" xml:space="preserve">
<style type="text/css">
	.st0{clip-path:url(#SVGID_00000124875161740781273780000002437293294679821730_);}
	.st1{fill:#B9785C;}
	.st2{clip-path:url(#SVGID_00000084505405792794603350000003273839718589665962_);}
	.st3{fill:#60131D;}
	.st4{fill:#D68F72;}
	.st5{fill:#99533D;}
	.st6{fill:#C83C55;}
	.st7{fill:#FFBD75;}
</style>
<g>
	<g id="random">
		<g>
			<g>
				<g>
					<defs>
						<polygon id="SVGID_1_" points="187.9,128.3 187.9,128.3 221.4,128.3 221.4,177.2 187.9,177.2 						"/>
					</defs>
					<clipPath id="SVGID_00000115513859066335421860000015674173915942990517_">
						<use xlink:href="#SVGID_1_"  style="overflow:visible;"/>
					</clipPath>
					<g style="clip-path:url(#SVGID_00000115513859066335421860000015674173915942990517_);">
						<path class="st1" d="M187.9,173.1l6.5-35.9c0,0,12.7-14.7,23.8-6.1c7.4,5.7,1.2,42.4-7.4,44.9
							C196.3,180,187.9,173.1,187.9,173.1z"/>
					</g>
				</g>
			</g>
		</g>
	</g>
	<g id="random2">
		<g>
			<g>
				<g>
					<defs>
						<polygon id="SVGID_00000054968160533699287600000002214424284189446583_" points="69.3,128.3 69.3,128.3 35.8,128.3 
							35.8,177.2 69.3,177.2 						"/>
					</defs>
					<clipPath id="SVGID_00000079473553136416911930000006296634630101781130_">
						<use xlink:href="#SVGID_00000054968160533699287600000002214424284189446583_"  style="overflow:visible;"/>
					</clipPath>
					<g style="clip-path:url(#SVGID_00000079473553136416911930000006296634630101781130_);">
						<path class="st1" d="M69.3,173.1l-6.5-35.9c0,0-12.7-14.7-23.8-6.1c-7.4,5.7-1.2,42.4,7.4,44.9C61,180,69.3,173.1,69.3,173.1z
							"/>
					</g>
				</g>
			</g>
		</g>
	</g>
	<path class="st3" d="M48.6,121.7c0-45.4,35.7-82.3,79.8-82.3s79.8,36.9,79.8,82.3s-65.5,79.2-79.8,82.3
		C144.3,198.4,48.6,167.1,48.6,121.7z"/>
	<path class="st4" d="M132.5,43.6h-2.7c-39.9,0-68,25.6-68,65.6c0,0,0.8,32.8,2.8,46.6c1.6,11.1,3.9,23.7,17.6,42.7
		c8,11,32.7,21.7,47,23.1l0,0c14.3-1.4,41.5-12.6,49.5-23.6c13.8-19,16.1-31.6,17.6-42.7c2-13.9,2.8-46.6,2.8-46.6
		c0-39.9-28.1-65.6-68-65.6h-2.7"/>
	<path class="st3" d="M128,61.7L128,61.7L57.9,109c0,0-11.8-58.6,71.1-68.8c7.4,2.2,62-1.3,73.7,60.6c4.1,23.3-3.7,5.2-3.7,5.2
		s-63.3-22.4-71.7-44.6"/>
	<path class="st5" d="M118.4,173.6c-0.9,0.1-1.3,0.6-0.5,0.9c2.7,1.1,7.7,3,11,3c3.1,0,8-1.9,10.5-3c0.7-0.3,0.4-0.8-0.5-0.9"/>
	<path class="st1" d="M57.3,106.6c0,0,0.6-64.6,69.9-64.6s72.2,67.3,72.2,67.3s-17.1,16.3-48.2-18.5c0.3,0.3-9.4,22.6-20.9,23
		s-22.1-25.5-22.1-25.5S84,114,57.3,106.6z"/>
	<g>
		<path class="st3" d="M56.2,107c0,0,2-65.9,71.3-65.9s75.4,68.3,75.4,68.3s-19.9,9.1-51-25.7c0.3,0.3-10.1,29.7-21.6,30.1
			s-21.3-31.4-21.3-31.4S82.9,114.4,56.2,107z"/>
		<path class="st3" d="M6.2,80.3c0,0,17.9-44.3,65.6-17.9c0.3,0,6.4-8.4,6.4-8.4S72.4,19.4,38,19.1C3.5,18.7-4,64.7,6.2,80.3z"/>
		<path class="st3" d="M254.8,79.9c0,0-17.9-44.3-65.6-17.9c-0.3,0-6.4-8.4-6.4-8.4s5.7-34.5,40.2-34.8S265,64.4,254.8,79.9z"/>
		<circle class="st6" cx="68.6" cy="61.6" r="7.7"/>
		<circle class="st7" cx="79.3" cy="51.6" r="7.7"/>
		<circle class="st6" cx="188.3" cy="63.5" r="7.7"/>
		<circle class="st7" cx="177.6" cy="53.6" r="7.7"/>
	</g>
</g>
</svg>
