<?xml version="1.0" encoding="utf-8"?>
<!-- Generator: Adobe Illustrator 26.0.2, SVG Export Plug-In . SVG Version: 6.00 Build 0)  -->
<svg version="1.1" id="Calque_1" xmlns="http://www.w3.org/2000/svg" xmlns:xlink="http://www.w3.org/1999/xlink" x="0px" y="0px"
	 viewBox="0 0 244.1 222.6" style="enable-background:new 0 0 244.1 222.6;" xml:space="preserve">
<style type="text/css">
	.st0{clip-path:url(#SVGID_00000051378397236124999450000008820249188089694859_);}
	.st1{fill:#B9785C;}
	.st2{clip-path:url(#SVGID_00000129170354912329009660000002292928618208461244_);}
	.st3{fill:#60131D;}
	.st4{fill:#D68F72;}
	.st5{fill:#99533D;}
</style>
<g id="random">
	<g>
		<g>
			<g>
				<defs>
					<polygon id="SVGID_1_" points="185,122.7 185,122.7 220.3,122.7 220.3,174.2 185,174.2 					"/>
				</defs>
				<clipPath id="SVGID_00000157272816871235142580000014959727987420189855_">
					<use xlink:href="#SVGID_1_"  style="overflow:visible;"/>
				</clipPath>
				<g style="clip-path:url(#SVGID_00000157272816871235142580000014959727987420189855_);">
					<path class="st1" d="M185,169.9l6.8-37.8c0,0,13.4-15.5,25.1-6.4c7.8,6.1,1.2,44.7-7.8,47.3C193.9,177.1,185,169.9,185,169.9z"
						/>
				</g>
			</g>
		</g>
	</g>
</g>
<g id="random2">
	<g>
		<g>
			<g>
				<defs>
					<polygon id="SVGID_00000026149320190807530690000008078828641006827657_" points="60,122.7 60,122.7 24.7,122.7 24.7,174.2 
						60,174.2 					"/>
				</defs>
				<clipPath id="SVGID_00000010997996402809957560000008462544415355688064_">
					<use xlink:href="#SVGID_00000026149320190807530690000008078828641006827657_"  style="overflow:visible;"/>
				</clipPath>
				<g style="clip-path:url(#SVGID_00000010997996402809957560000008462544415355688064_);">
					<path class="st1" d="M60,169.9L53.2,132c0,0-13.4-15.5-25.1-6.4c-7.8,6.1-1.2,44.7,7.8,47.3C51.2,177.1,60,169.9,60,169.9z"/>
				</g>
			</g>
		</g>
	</g>
</g>
<path class="st3" d="M38.2,115.7c0-47.8,37.6-86.7,84-86.7s84,38.9,84,86.7s-69,83.5-84,86.7C139,196.5,38.2,163.5,38.2,115.7z"/>
<path class="st4" d="M126.6,33.3h-2.8c-42.1,0-71.7,26.9-71.7,69.1c0,0,0.9,34.6,2.9,49.2c1.7,11.7,4.1,25,18.5,45
	c8.4,11.6,34.5,22.9,49.5,24.4l0,0c15-1.5,43.8-13.2,52.2-24.9c14.6-20,16.9-33.3,18.5-45c2.1-14.7,2.9-49.2,2.9-49.2
	c0-42.1-29.6-69.1-71.7-69.1h-2.8"/>
<path class="st5" d="M111.7,170.4c-0.9,0.1-1.3,0.7-0.6,0.9c2.8,1.1,8.1,3.1,11.6,3.1c3.3,0,8.4-2,11.1-3.1c0.8-0.3,0.4-0.9-0.6-0.9
	c-3.1-0.2-4.4,0.6-10.8,0.6C117,171.1,114.8,170.2,111.7,170.4z"/>
<path class="st1" d="M55,129.8c-1,0.2-1.9-0.3-2.1-1.3c-2.9-12.4-16.7-87,71.2-85.5c87.8,1.5,70.2,77.4,66.7,90
	c-0.3,1-1.3,1.5-2.3,1.2c-9.5-3.3-55.2-20.5-66.3-54.9c-0.5-1.5-2.6-1.7-3.3-0.2C113.8,90.4,97.5,119,55,129.8z"/>
<g>
	<path class="st3" d="M139.3,3c-0.6,14.3-7.9,32.4-17.4,43.1C122.5,31.8,129.8,13.7,139.3,3L139.3,3z"/>
</g>
<g>
	<path class="st3" d="M117,7c7.4,12.2,11.3,31.3,9.2,45.5C118.8,40.2,115,21.1,117,7L117,7z"/>
</g>
<path class="st3" d="M48.9,131.1c0,0-21.4-101.8,74.3-100.1c95.8,1.7,74.7,101.5,74.7,101.5s-65-26.8-74-68.6
	C123.6,63.8,103.8,118.1,48.9,131.1z"/>
</svg>
