<?xml version="1.0" encoding="utf-8"?>
<!-- Generator: Adobe Illustrator 26.0.2, SVG Export Plug-In . SVG Version: 6.00 Build 0)  -->
<svg version="1.1" id="Calque_1" xmlns="http://www.w3.org/2000/svg" xmlns:xlink="http://www.w3.org/1999/xlink" x="0px" y="0px"
	 viewBox="0 0 294.1 266.9" style="enable-background:new 0 0 294.1 266.9;" xml:space="preserve">
<style type="text/css">
	.st0{clip-path:url(#SVGID_00000034078089715668311790000000459360241783895443_);}
	.st1{fill:#B9785C;}
	.st2{clip-path:url(#SVGID_00000167364648108804119880000002615486596479772549_);}
	.st3{fill:#60131D;}
	.st4{fill:#D68F72;}
	.st5{fill:#99533D;}
	.st6{fill:#802336;}
</style>
<g>
	<g id="random">
		<g>
			<g>
				<g>
					<defs>
						<polygon id="SVGID_1_" points="171.6,161.6 171.6,161.6 208.9,161.6 208.9,216.1 171.6,216.1 						"/>
					</defs>
					<clipPath id="SVGID_00000113324035180918190100000003701760871274911673_">
						<use xlink:href="#SVGID_1_"  style="overflow:visible;"/>
					</clipPath>
					<g style="clip-path:url(#SVGID_00000113324035180918190100000003701760871274911673_);">
						<path class="st1" d="M171.6,211.5l7.2-40c0,0,14.2-16.4,26.5-6.8c8.2,6.4,1.3,47.3-8.2,50C181,219.2,171.6,211.5,171.6,211.5z
							"/>
					</g>
				</g>
			</g>
		</g>
	</g>
	<g id="random2">
		<g>
			<g>
				<g>
					<defs>
						<polygon id="SVGID_00000150809952678110428670000000354535980199758471_" points="39.4,161.6 39.4,161.6 2.1,161.6 2.1,216.1 
							39.4,216.1 						"/>
					</defs>
					<clipPath id="SVGID_00000160168579802902808290000016632363521596661396_">
						<use xlink:href="#SVGID_00000150809952678110428670000000354535980199758471_"  style="overflow:visible;"/>
					</clipPath>
					<g style="clip-path:url(#SVGID_00000160168579802902808290000016632363521596661396_);">
						<path class="st1" d="M39.4,211.5l-7.2-40c0,0-14.2-16.4-26.5-6.8c-8.2,6.4-1.3,47.3,8.2,50C30.1,219.2,39.4,211.5,39.4,211.5z
							"/>
					</g>
				</g>
			</g>
		</g>
	</g>
	<path class="st3" d="M16.3,154.2c0-50.6,39.8-91.7,88.9-91.7s88.9,41.1,88.9,91.7s-73,88.3-88.9,91.7
		C123,239.7,16.3,204.8,16.3,154.2z"/>
	<path class="st4" d="M109.8,67.1h-3C62.3,67.1,31,95.6,31,140.2c0,0,0.9,36.6,3.1,52c1.8,12.4,4.3,26.4,19.6,47.6
		c8.9,12.3,36.5,24.2,52.4,25.8l0,0c15.9-1.6,46.3-14,55.2-26.3c15.4-21.2,17.9-35.2,19.6-47.6c2.2-15.5,3.1-52,3.1-52
		c0-44.5-31.3-73.1-75.8-73.1h-3"/>
	<path class="st5" d="M94.1,212.1c-1,0.1-1.4,0.7-0.6,1c3,1.2,8.6,3.3,12.3,3.3c3.5,0,8.9-2.1,11.7-3.3c0.8-0.3,0.4-0.9-0.6-1
		c-3.3-0.2-4.7,0.6-11.4,0.6C99.7,212.8,97.4,211.9,94.1,212.1z"/>
	<path class="st1" d="M36,152.8c-0.7,2.2-2.1,4.9-2.4,2.7c-3-25-6.6-72.5,72.9-72.7c81.1-0.1,80,48.2,75.7,71.4
		c-0.4,2.2-5.8,13.8-6.4,11.6c-3.4-11.8-12.3-32.8-33.7-46.6c-1.3-0.8-3.1,0-3.3,1.5c-0.1,1.1-0.3,2.3-0.4,3.4
		c-0.2,1.7-2.3,2.5-3.6,1.3L121,112.3c-1.3-1.2-3.5-0.4-3.6,1.4l-0.5,7c-0.1,2-2.7,2.7-3.9,1.1l-8.3-12c-0.7-1-2.1-1.2-3.1-0.4
		l-21,17.5c-1.5,1.3-3.8-0.1-3.4-2.1l2.3-11.1c0.4-2-1.9-3.3-3.4-2.1C65.9,120,44,127,36,152.8z"/>
	<path class="st3" d="M31,161.1c0,0-24.8-95.5,75.7-95.6c95.2,4,73.6,85.9,73.6,85.9s-7.1-31.7-41-51.3c0.3,0.3-1.2,10.9-1.2,10.9
		l-20.1-19.1l-1.2,17.5l-13-18.9L81,90.6C81,90.6,35.3,123.6,31,161.1z"/>
	<path class="st3" d="M147.9,74.8c0,0-34.1-71.7,42.6-73.5s50.8,78.1,59.3,103.3c8.5,25.2,12.4,49.7,42.3,43
		c0,0.4-37.1,33.4-53.9-5.7c0,0-11.9-27.4-12.8-59c-0.7-23.1-27-35.2-36.2-32.3C166.2,57.7,147.9,74.8,147.9,74.8z"/>
	<path class="st6" d="M116.1,34.4c-2.8,9.1-6.5,21-8.8,28.2c-1.1,3.5,1.2,7,4.8,7.7l31.4,5.3c1.2,0.2,2.4,0.8,3.2,1.7l30.4,30.1
		c2.4,2.4,6.4,2.3,8.7-0.2l17.9-19.8c3.2-3.5,1.2-9.2-3.5-10l-47.5-7.7c-1.7-0.3-3.2-1.3-4.1-2.7L126.9,33
		C124.2,28.7,117.6,29.5,116.1,34.4z"/>
	<path class="st3" d="M35.8,158.5c-0.7,2.2-3.9,1.9-4.1-0.4c-3-25-1.9-84.7,77.6-84.8c81.1-0.1,77.8,59.7,73.5,82.8
		c-0.4,2.2-3.5,2.4-4.1,0.2c-3.4-11.8-12.3-32.8-33.7-46.6c-1.3-0.8-3.1,0-3.3,1.5c-0.1,1.1-0.3,2.3-0.4,3.4
		c-0.2,1.7-2.3,2.5-3.6,1.3l-13.9-13.2c-1.3-1.2-3.5-0.4-3.6,1.4l-0.5,7c-0.1,2-2.7,2.7-3.9,1.1l-8.3-12c-0.7-1-2.1-1.2-3.1-0.4
		l-21,17.5c-1.5,1.3-3.8-0.1-3.4-2.1l2.3-11.1c0.4-2-1.9-3.3-3.4-2.1C68.7,110.4,43.9,132.7,35.8,158.5z"/>
</g>
</svg>
