<?xml version="1.0" encoding="utf-8"?>
<!-- Generator: Adobe Illustrator 26.0.2, SVG Export Plug-In . SVG Version: 6.00 Build 0)  -->
<svg version="1.1" id="Calque_1" xmlns="http://www.w3.org/2000/svg" xmlns:xlink="http://www.w3.org/1999/xlink" x="0px" y="0px"
	 viewBox="0 0 788 1005" style="enable-background:new 0 0 788 1005;" xml:space="preserve">
<style type="text/css">
	.st0{clip-path:url(#SVGID_00000129187080376505299790000014276612601659034272_);}
	.st1{fill:#B9785C;}
	.st2{clip-path:url(#SVGID_00000121979951887400474330000006680325223408915631_);}
	.st3{fill:#60131D;}
	.st4{fill:#D68F72;}
	.st5{fill:#99533D;}
	.st6{fill:#D3D3D3;stroke:#D34B1C;stroke-width:1.51;stroke-miterlimit:10;}
	.st7{fill:#D3D3D3;}
	.st8{fill:#D34B1C;}
</style>
<g id="random">
	<g>
		<g>
			<g>
				<defs>
					<polygon id="SVGID_1_" points="458.3,308.8 458.3,308.8 495.6,308.8 495.6,363.3 458.3,363.3 					"/>
				</defs>
				<clipPath id="SVGID_00000165208267482391145040000011471325516870124985_">
					<use xlink:href="#SVGID_1_"  style="overflow:visible;"/>
				</clipPath>
				<g style="clip-path:url(#SVGID_00000165208267482391145040000011471325516870124985_);">
					<path class="st1" d="M458.3,358.7l7.2-40c0,0,14.2-16.4,26.5-6.8c8.2,6.4,1.3,47.3-8.2,50C467.7,366.4,458.3,358.7,458.3,358.7
						z"/>
				</g>
			</g>
		</g>
	</g>
</g>
<g id="random2">
	<g>
		<g>
			<g>
				<defs>
					<polygon id="SVGID_00000114785335289691699880000013631199238105321901_" points="326.1,308.8 326.1,308.8 288.8,308.8 
						288.8,363.3 326.1,363.3 					"/>
				</defs>
				<clipPath id="SVGID_00000048469612080969351260000010334400371376260280_">
					<use xlink:href="#SVGID_00000114785335289691699880000013631199238105321901_"  style="overflow:visible;"/>
				</clipPath>
				<g style="clip-path:url(#SVGID_00000048469612080969351260000010334400371376260280_);">
					<path class="st1" d="M326.1,358.7l-7.2-40c0,0-14.2-16.4-26.5-6.8c-8.2,6.4-1.3,47.3,8.2,50
						C316.8,366.4,326.1,358.7,326.1,358.7z"/>
				</g>
			</g>
		</g>
	</g>
</g>
<path class="st3" d="M297.6,270.7c-0.2-50.6,45.2-61,94.2-61s88.9,41.1,88.9,91.7s-88.2,16.3-104,19.6
	C368.8,331.2,297.9,342.7,297.6,270.7z"/>
<path class="st4" d="M396.5,214.3h-3c-44.5,0-75.8,28.5-75.8,73.1c0,0,0.9,36.6,3.1,52c1.8,12.4,4.3,26.4,19.6,47.6
	c8.9,12.3,36.5,24.2,52.4,25.8l0,0c15.9-1.6,46.3-14,55.2-26.3c15.4-21.2,17.9-35.2,19.6-47.6c2.2-15.5,3.1-52,3.1-52
	c0-44.5-31.3-73.1-75.8-73.1h-3"/>
<path class="st1" d="M394.4,256.9c-19.1,20.4-32.4,21.4-41.8,9.2l-39.1,21.2c0,0-14.8-65.3,77.8-76.7c0,0,71.4-1.9,83.7,67.6
	c4.6,26-36-4.8-36-4.8S403.6,281.6,394.4,256.9"/>
<path class="st5" d="M380.8,359.3c-1,0.1-1.4,0.7-0.6,1c3,1.2,8.6,3.3,12.3,3.3c3.5,0,8.9-2.1,11.7-3.3c0.8-0.3,0.4-0.9-0.6-1
	c-3.3-0.2-4.7,0.6-11.4,0.6C386.4,360,384.1,359.1,380.8,359.3z"/>
<path class="st3" d="M312.7,314.6L312.7,314.6c-0.4-0.3-0.8-0.7-1.1-1.1c-2.4-3.8-14-23.1-13.9-42.8c-0.1-85,94.7-79.4,102.9-75.2
	c0.6,0.3,1.1,3.8,1.8,3.8c4.7-0.1,60.9-6.4,84.1,27.9c15.8,23.4,12.3,54.8-5,77.1c-6,7.7-11.2,12.8-11.2,12.8l0,0l-0.9-31.5
	c0-1.2-0.6-2.3-1.6-3l-20.2-14.1c-0.4-0.3-0.8-0.7-1-1.1c-2.1-3.3-11.5-18.4-11-18.4c0.3,0,2.1,7.6,3.2,12.7
	c0.5,2.3-1.2,4.5-3.6,4.6c-6.3,0.1-17.2-0.1-20.9-2.4c-2.4-1.5-5.4-7.1-7.3-11.1c-1-2.2-3.8-2.8-5.7-1.3
	c-5.2,4.1-14.3,11.2-18.3,13.3c-4.1,2.3-11.1,3.6-15.8,4.2c-2.4,0.3-4.5-1.7-4.3-4.1l0.5-4.5c0.4-3.7-4.3-5.7-6.7-2.7l-9.9,12.5
	c-0.2,0.2-0.4,0.5-0.7,0.6l-19,14.6c-0.6,0.5-1.1,1.2-1.3,1.9l-7.4,25.3C317.7,315,314.8,316.1,312.7,314.6z"/>
<g>
	<path class="st6" d="M422.7,177.5c0,0,45-3.5,25.7-56.5c-19.8-52.8-58.6-15.9-58.6-15.9S375,86.3,339.9,94.3s-44.7,30.5-44.7,30.5
		s-62.1-19.3-56.6,52.2s77,18.1,77,18.1"/>
	<path class="st6" d="M283,192.4l16.6,64.5c0,0,63.9-71.4,137.7-56.6c-0.8-20.1-16.2-39.6-16.2-39.6S340.5,143.4,283,192.4z"/>
	<g>
		<path class="st7" d="M309.1,167.4c0,0,12.7,21.9,45.8,15.4c33.1-6.5,38.8-34.7,38.8-34.7"/>
		<path class="st8" d="M309.1,167.4c16.2,21.9,51.6,19.6,70.4,2.7c6.5-5.9,11.5-13.7,13.9-22c-2.4,11.9-10.4,22.8-21,29.1
			C353.1,188.7,322.3,188.4,309.1,167.4L309.1,167.4z"/>
	</g>
</g>
</svg>
