<?xml version="1.0" encoding="utf-8"?>
<!-- Generator: Adobe Illustrator 26.0.3, SVG Export Plug-In . SVG Version: 6.00 Build 0)  -->
<svg version="1.1" id="Calque_1" xmlns="http://www.w3.org/2000/svg" xmlns:xlink="http://www.w3.org/1999/xlink" x="0px" y="0px"
	 viewBox="0 0 788 1005.1" style="enable-background:new 0 0 788 1005.1;" xml:space="preserve">
<style type="text/css">
	.st0{fill:#282220;}
	.st1{fill:#310800;}
	.st2{fill:#993131;}
	.st3{fill:#EBB4C9;}
	.st4{fill:#B53535;}
	.st5{fill:#FFE4DE;}
	.st6{fill:#0F0F0F;}
</style>
<path class="st0" d="M397.7,128.4c0.4-0.3,1.9-0.7,0.6-2.4c-1-1.4-2.8-3.7-5.6-4.6c-3.4-1.2-7.1-1.1-10.4,0.3c-2.9,1.3-8,6.4-8,6.4
	s6-3.4,8.2-3.9c3-0.8,6.2-0.8,9.3,0.1C394.3,125.1,397.7,128.4,397.7,128.4z"/>
<path class="st1" d="M394.3,172.8c0,0,10.7-2.1,10.8-2.2s3.9,0,3.9,0l10.3,2.3l-7.7,10.7l-9.5,0.2L394.3,172.8z"/>
<path class="st2" d="M417.8,173.4l3.4-1c0,0-6.8,11.9-9.9,12.8c-2.9,1-6,1-8.9,0c-3.1-0.9-9.4-12.8-9.4-12.8l2.9,1
	c0,0,4.4,9,10.8,9.4C412.9,183.2,417.8,173.4,417.8,173.4z"/>
<path class="st3" d="M396.8,171.3l1,1.5c0.6,0.4,1.3,0.6,2,0.6c0,0,5.4,0.2,7.1,0.2s6.9-0.2,6.9-0.2c0.7,0,1.4-0.2,2-0.6l0.4-1.2
	L396.8,171.3z"/>
<path class="st4" d="M421.2,172.4l-3.4,1c0,0-8.2-1.8-11-1.8s-10.8,1.8-10.8,1.8l-2.9-1c0.4-0.6,8.2-5,10.5-4.3
	c1.1,0.3,2.1,0.7,3.2,1.1c0,0,1-0.4,3.4-1.1S420.7,171.8,421.2,172.4z"/>
<path class="st0" d="M415.3,128.4c-0.4-0.3-1.9-0.7-0.6-2.4c1-1.4,2.8-3.7,5.6-4.6c3.4-1.2,7.1-1.1,10.4,0.3c2.9,1.3,8,6.4,8,6.4
	s-6-3.4-8.2-3.9c-3-0.8-6.2-0.8-9.3,0.1C418.6,125.1,415.3,128.4,415.3,128.4z"/>
<g>
	<g>
		<path class="st5" d="M417.2,143.8l6.5-4.7l6.4,0.1l4.9,4.1c0,0-4,3.8-9.3,3.9c-1.1-0.1-6.5-1-8.7-1.2c-0.4,0-0.5-0.5-0.4-0.9
			L417.2,143.8z"/>
		<g>
			<path class="st6" d="M416.6,145.1c2.2-6.5,9.1-9.2,15.4-6.7c1.9,0.8,3.7,2.3,5.8,1.6c0.2,0.1,0.1,0.2,0,0.3
				c-0.2,0.3-0.6,0.8-0.8,1c-3.4,4.2-8.8,7.1-14.2,5.6c-1.9-0.4-3.9-0.6-5.8-0.9c3.9,0.2,7.7,1.7,11.6,0.8c3.3-0.8,6.1-3.1,8.3-5.6
				c0.2-0.3,0.6-0.7,0.8-1c0,0,0.1-0.1,0.1-0.1c0,0,0,0.2,0.1,0.1c-2,0.7-4.1-0.8-5.9-1.6C425.7,136.1,418.9,138.8,416.6,145.1
				L416.6,145.1z"/>
		</g>
		<path class="st0" d="M416.6,145.2c0,0,3.6-4,8.9-4.7c0,0,4-0.8,8.1,4c0,0,3.8-3.4,4.2-4.3c-2.8,1.4-5.3-3-11.8-2.6
			C422.8,137.8,418.8,139,416.6,145.2z"/>
		<ellipse class="st0" cx="423.6" cy="142.3" rx="3.7" ry="4.1"/>
	</g>
	<g>
		<path class="st5" d="M397.5,143.8l-6.5-4.7l-6.4,0.1l-4.9,4.1c0,0,4,3.8,9.3,3.9c1.1-0.1,6.5-1,8.7-1.2c0.4,0,0.5-0.5,0.4-0.9
			L397.5,143.8z"/>
		<g>
			<path class="st6" d="M398.1,145.1c-2.3-6.4-9.1-9.1-15.3-6.5c-1.8,0.8-3.9,2.4-5.9,1.6c0.1,0,0.1-0.1,0.1-0.1
				c0,0,0.1,0.1,0.1,0.1c0.2,0.3,0.6,0.7,0.8,1c3.3,4.2,8.7,7,14.1,5.6c1.9-0.3,3.9-0.6,5.8-0.8c-3.9,0.3-7.7,1.9-11.6,0.9
				c-3.4-0.8-6.2-3.1-8.4-5.7c-0.2-0.3-0.6-0.7-0.8-1c-0.1-0.1-0.2-0.2,0-0.3c2.1,0.7,4-0.7,5.8-1.6
				C389,135.9,395.9,138.7,398.1,145.1L398.1,145.1z"/>
		</g>
		<path class="st0" d="M398.1,145.2c0,0-3.6-4-8.9-4.7c0,0-4-0.8-8.1,4c0,0-3.3-2.6-4.2-4.3c2.8,1.4,5.3-3,11.8-2.6
			C391.9,137.8,395.9,139,398.1,145.2z"/>
		<ellipse class="st0" cx="386.7" cy="142.1" rx="3.7" ry="4.1"/>
	</g>
</g>
</svg>
