<?xml version="1.0" encoding="utf-8"?>
<!-- Generator: Adobe Illustrator 26.0.3, SVG Export Plug-In . SVG Version: 6.00 Build 0)  -->
<svg version="1.1" id="Calque_1" xmlns="http://www.w3.org/2000/svg" xmlns:xlink="http://www.w3.org/1999/xlink" x="0px" y="0px"
	 viewBox="0 0 150 122.7" style="enable-background:new 0 0 150 122.7;" xml:space="preserve">
<style type="text/css">
	.st0{fill:#282220;}
	.st1{fill:#310800;}
	.st2{fill:#993131;}
	.st3{fill:#EBB4C9;}
	.st4{fill:#B53535;}
	.st5{fill:#FFE4DE;}
	.st6{fill:#0F0F0F;}
</style>
<path class="st0" d="M66.2,35.8c0.4-0.3,1.9-0.7,0.6-2.4c-1-1.4-2.8-3.7-5.6-4.6c-3.4-1.2-7.1-1.1-10.4,0.3c-2.9,1.3-8,6.4-8,6.4
	s6-3.4,8.2-3.9c3-0.8,6.2-0.8,9.3,0.1C62.8,32.5,66.2,35.8,66.2,35.8z"/>
<path class="st1" d="M62.8,80.3c0,0,10.7-2.2,10.8-2.2s3.9,0,3.9,0l10.3,2.3L80.1,91l-9.5,0.2L62.8,80.3z"/>
<path class="st2" d="M86.3,80.8l3.4-1c0,0-6.8,11.9-9.9,12.8c-2.9,1-6,1-8.8,0c-3.1-0.9-9.4-12.8-9.4-12.8l2.9,1c0,0,4.4,9,10.8,9.4
	C81.4,90.6,86.3,80.8,86.3,80.8z"/>
<path class="st3" d="M65.3,78.8l1,1.5c0.6,0.4,1.3,0.6,2,0.6c0,0,5.3,0.2,7.1,0.2s6.9-0.2,6.9-0.2c0.7,0,1.4-0.2,2-0.6l0.4-1.2
	L65.3,78.8z"/>
<path class="st4" d="M89.7,79.8l-3.4,1c0,0-8.2-1.8-11-1.8s-10.8,1.8-10.8,1.8l-2.9-1c0.4-0.6,8.2-5,10.5-4.3
	c1.1,0.3,2.1,0.7,3.2,1.2c0,0,1-0.4,3.4-1.2S89.3,79.2,89.7,79.8z"/>
<path class="st0" d="M83.8,35.8c-0.4-0.3-1.9-0.7-0.6-2.4c1-1.4,2.8-3.7,5.6-4.6c3.4-1.2,7.1-1.1,10.3,0.3c2.9,1.3,8,6.4,8,6.4
	s-6-3.4-8.2-3.9c-3-0.8-6.2-0.8-9.3,0.1C87.2,32.5,83.8,35.8,83.8,35.8z"/>
<g>
	<g>
		<path class="st5" d="M85.8,51.3l6.5-4.7l6.4,0.1l4.9,4.1c0,0-4,3.8-9.3,3.9c-1.1-0.1-6.5-1-8.7-1.2c-0.4,0-0.5-0.5-0.4-0.9
			L85.8,51.3z"/>
		<g>
			<path class="st6" d="M85.1,52.6c2.2-6.5,9.1-9.2,15.4-6.7c1.9,0.8,3.7,2.3,5.8,1.6c0.2,0.1,0.1,0.2,0,0.3c-0.2,0.3-0.6,0.8-0.8,1
				c-3.4,4.2-8.8,7.1-14.2,5.6c-1.9-0.4-3.9-0.6-5.8-0.9c3.9,0.2,7.7,1.7,11.6,0.8c3.3-0.8,6.1-3.1,8.3-5.6c0.2-0.3,0.6-0.7,0.8-1
				c0,0,0.1-0.1,0.1-0.1c0,0,0,0.2,0.1,0.1c-2,0.7-4.1-0.8-5.9-1.6C94.3,43.5,87.5,46.3,85.1,52.6L85.1,52.6z"/>
		</g>
		<path class="st0" d="M85.1,52.6c0,0,3.6-4,8.9-4.7c0,0,4-0.8,8.1,4c0,0,3.8-3.4,4.2-4.3c-2.8,1.4-5.3-3-11.8-2.6
			C91.3,45.3,87.3,46.4,85.1,52.6z"/>
		<ellipse class="st0" cx="92.2" cy="49.7" rx="3.7" ry="4.1"/>
	</g>
	<g>
		<path class="st5" d="M66,51.3l-6.5-4.7l-6.4,0.1l-4.9,4.1c0,0,4,3.8,9.3,3.9c1.1-0.1,6.5-1,8.7-1.2c0.4,0,0.5-0.5,0.4-0.9L66,51.3
			z"/>
		<g>
			<path class="st6" d="M66.7,52.6c-2.3-6.4-9.1-9.1-15.3-6.5c-1.8,0.8-3.9,2.4-5.9,1.6c0.1,0,0.1-0.1,0.1-0.1c0,0,0.1,0.1,0.1,0.1
				c0.2,0.3,0.6,0.7,0.8,1c3.3,4.2,8.7,7,14.1,5.6c1.9-0.3,3.9-0.6,5.8-0.8c-3.9,0.3-7.7,1.9-11.6,0.9c-3.4-0.8-6.2-3.1-8.4-5.7
				c-0.2-0.3-0.6-0.7-0.8-1c-0.1-0.1-0.2-0.2,0-0.3c2.1,0.7,4-0.7,5.8-1.6C57.5,43.4,64.4,46.1,66.7,52.6L66.7,52.6z"/>
		</g>
		<path class="st0" d="M66.7,52.6c0,0-3.6-4-8.9-4.7c0,0-4-0.8-8.1,4c0,0-3.3-2.6-4.2-4.3c2.8,1.4,5.3-3,11.8-2.6
			C60.5,45.3,64.5,46.4,66.7,52.6z"/>
		<ellipse class="st0" cx="55.3" cy="49.6" rx="3.7" ry="4.1"/>
	</g>
</g>
</svg>
