<?xml version="1.0" encoding="utf-8"?>
<!-- Generator: Adobe Illustrator 26.0.3, SVG Export Plug-In . SVG Version: 6.00 Build 0)  -->
<svg version="1.1" id="Calque_1" xmlns="http://www.w3.org/2000/svg" xmlns:xlink="http://www.w3.org/1999/xlink" x="0px" y="0px"
	 viewBox="0 0 788 1005.1" style="enable-background:new 0 0 788 1005.1;" xml:space="preserve">
<style type="text/css">
	.st0{fill:#282220;}
	.st1{fill:#B53535;}
	.st2{fill:#993131;}
	.st3{fill:#FFE4DE;}
	.st4{fill:#0F0F0F;}
</style>
<path class="st0" d="M398,133.5c0.4-0.5,1.9-1,0.6-3.4c-1.1-1.8-2.7-3.1-4.6-3.9c-2.7-1.1-8.9-1-11.6-0.1c-3.1,1.1-7.7,6.9-7.7,6.9
	s6.1-3,8.4-3.3c2.8-0.1,5.5,0.2,8.2,1C393,131.2,398,133.5,398,133.5z"/>
<path class="st0" d="M415.6,133.4c-0.4-0.5-1.9-1-0.6-3.5c1.1-1.8,2.7-3.1,4.6-3.9c2.7-1.1,8.9-1,11.6-0.1c3.1,1.1,7.7,6.9,7.7,6.9
	s-6.1-3-8.4-3.3c-2.8-0.1-5.5,0.2-8.2,1C420.6,131.2,415.6,133.4,415.6,133.4z"/>
<path class="st1" d="M395.2,177.1c0.4-0.6,6-7.8,8.4-7c1.3,0.4,2.5,1.2,3.3,2.4l1.9,4.7L395.2,177.1z"/>
<path class="st1" d="M418.5,177.1c-0.4-0.6-6-7.8-8.4-7c-1.3,0.4-2.5,1.2-3.3,2.4l0.3,4.7L418.5,177.1z"/>
<path class="st2" d="M408.7,177.1h-1.6h-11.9c0,0,4.1,4.2,7.2,5.1c1.4,0.6,2.9,0.8,4.4,0.8s3-0.2,4.4-0.8c3.1-0.9,7.2-5.1,7.2-5.1
	H408.7z"/>
<path d="M-712.4-327.1c-7.8,1.5-15.5,3.4-23.4,4.2c-7.8,0.9-15.8,0.9-23.7,0.8c-8.2-0.1-15.2-3.8-20.9-9.2
	c-4.5-4.3-9.4-6.7-15.5-7.6c-7.3-1.1-10.4-5.9-9.3-13.1c0.3-2,0.5-4.3,3.7-3.1c0.5,0.2,1.4,0,1.9-0.4c3.2-2,6.3-4.1,10.3-1.8
	c0,0,0.5-0.7,0.7-1c1.3-2.3,2.6-3.3,5.7-2.6c1.5,0.4,3.5-2.8,5.5-3.2c7.1-1.5,14.4-3.3,21.6-3.4c10.5-0.1,20.3,2.9,29.5,8.5
	c8.9,5.4,14.3,13.8,19.9,21.9c1.6,2.3,0.5,6.7,0,9.9c-0.1,0.7-3.6,0.7-5.5,1.1C-712.2-326.4-712.3-326.8-712.4-327.1z M-764-342.7
	c-0.3-1.7-0.5-3.4-0.8-5.1c-1.8,0.3-3.9,0.3-5.5,1c-3.6,1.6-7,3.9-10.6,5.5c-3.9,1.8-3.7,3.8-0.9,6.3c6.5,5.8,14,9.5,22.7,10.4
	c0.7,0.1,1.5-0.2,2.3-0.3c-0.6-0.6-1.1-1.1-1.8-1.7C-763.7-330.7-764.9-336.4-764-342.7z M-715.1-329.2c1.6,0.2,3,0.8,4.2,0.5
	c0.6-0.1,1.6-2.1,1.4-2.3c-5.3-5.8-10.8-11.5-16.4-17c-0.6-0.6-2.6-0.5-3.6,0c-0.6,0.3-0.6,2-0.6,3.1c0,4.8,0.7,9.8-0.2,14.5
	c-0.8,4.4,0.7,3.9,3.6,3.3C-722.7-327.9-718.8-328.5-715.1-329.2z"/>
<path d="M-772.7-406.5c12.4-2.4,23.6,4.5,35.5,9.4c5.5,2.2,11.2,3.9,16.5,6.4c6.1,2.9,12.2,6,17.7,9.8c3.8,2.6,3.8,11.3,0.6,14.7
	c-0.9,0.9-3.2,1.4-4.4,0.9c-2.8-1.2-5.3-3.1-7.9-4.7c-1.4-0.9-2.6-2.2-4.1-2.7c-9.6-3.2-17.8-8.3-25.2-15.3
	c-8.6-8.1-19.8-9.9-30.8-11c-12.6-1.2-25,0.8-36.9,5.4c-1,0.4-2.3,0-3.4,0c0.7-0.8,1.2-1.9,2.1-2.4
	C-801.2-403.8-788.1-407-772.7-406.5z"/>
<path d="M-666.8-373.3c1.2-4.5,2.2-8.7,7.5-10.8c16.3-6.6,32-14.4,48.5-20.5c11.2-4.1,23.3-3.1,34.9-0.1c6.7,1.7,13,4.6,19.5,7.1
	c1.2,0.5,2.4,1.2,3.4,2c0.8,0.7,1.1,1.8,1.7,2.7c-1.1-0.1-2.2,0-3.2-0.4c-17.5-6-34.9-8.2-53.1-2.7c-7.7,2.4-14,6.1-19.3,11.9
	c-1.7,1.8-4,3.3-6.2,4.5c-4.4,2.2-9,3.9-13.3,6.2c-3.2,1.8-6,4.4-9.1,6.6C-662-362.3-665.6-366.2-666.8-373.3z"/>
<g>
	<path class="st3" d="M417.2,143.9l6.5-4.7l6.4,0.1l4.9,4.1c0,0-4,3.8-9.3,3.9c-1.1-0.1-6.5-1-8.7-1.2c-0.4,0-0.5-0.5-0.4-0.9
		L417.2,143.9z"/>
	<g>
		<path class="st4" d="M416.6,145.2c2.2-6.5,9.1-9.2,15.4-6.7c1.9,0.8,3.7,2.3,5.8,1.6c0.2,0.1,0.1,0.2,0,0.3
			c-0.2,0.3-0.6,0.8-0.8,1c-3.4,4.2-8.8,7.1-14.2,5.6c-1.9-0.4-3.9-0.6-5.8-0.9c3.9,0.2,7.7,1.7,11.6,0.8c3.3-0.8,6.1-3.1,8.3-5.6
			c0.2-0.3,0.6-0.7,0.8-1l0.1-0.1c0,0,0,0.2,0.1,0.1c-2,0.7-4.1-0.8-5.9-1.6C425.7,136.1,418.9,138.8,416.6,145.2L416.6,145.2z"/>
	</g>
	<path class="st0" d="M416.6,145.2c0,0,3.6-4,8.9-4.7c0,0,4-0.8,8.1,4c0,0,3.8-3.4,4.2-4.3c-2.8,1.4-5.3-3-11.8-2.6
		C422.8,137.8,418.7,139,416.6,145.2z"/>
	<ellipse class="st0" cx="425.1" cy="143.2" rx="3.7" ry="4.1"/>
</g>
<g>
	<path class="st3" d="M397.5,143.9l-6.5-4.7l-6.4,0.1l-4.9,4.1c0,0,4,3.8,9.3,3.9c1.1-0.1,6.5-1,8.7-1.2c0.4,0,0.5-0.5,0.4-0.9
		L397.5,143.9z"/>
	<g>
		<path class="st4" d="M398.1,145.2c-2.3-6.4-9.1-9.1-15.3-6.5c-1.8,0.8-3.9,2.4-5.9,1.6c0.1,0,0.1-0.1,0.1-0.1l0.1,0.1
			c0.2,0.3,0.6,0.7,0.8,1c3.3,4.2,8.7,7,14.1,5.6c1.9-0.3,3.9-0.6,5.8-0.8c-3.9,0.3-7.7,1.9-11.6,0.9c-3.4-0.8-6.2-3.1-8.4-5.7
			c-0.2-0.3-0.6-0.7-0.8-1c-0.1-0.1-0.2-0.2,0-0.3c2.1,0.7,4-0.7,5.8-1.6C389,135.9,395.9,138.7,398.1,145.2L398.1,145.2z"/>
	</g>
	<path class="st0" d="M398.1,145.2c0,0-3.6-4-8.9-4.7c0,0-4-0.8-8.1,4c0,0-3.3-2.6-4.2-4.3c2.8,1.4,5.3-3,11.8-2.6
		C391.9,137.8,395.9,139,398.1,145.2z"/>
	<ellipse class="st0" cx="389.5" cy="143.2" rx="3.7" ry="4.1"/>
</g>
</svg>
