<?xml version="1.0" encoding="utf-8"?>
<!-- Generator: Adobe Illustrator 26.0.3, SVG Export Plug-In . SVG Version: 6.00 Build 0)  -->
<svg version="1.1" id="Layer_1" xmlns="http://www.w3.org/2000/svg" xmlns:xlink="http://www.w3.org/1999/xlink" x="0px" y="0px"
	 viewBox="0 0 788 1005.1" style="enable-background:new 0 0 788 1005.1;" xml:space="preserve">
<style type="text/css">
	.st0{fill:#282220;}
	.st1{fill:#B53535;}
	.st2{fill:#993131;}
	.st3{fill:#3D332F;}
	.st4{fill:#FFE4DE;}
	.st5{fill:#0F0F0F;}
</style>
<g id="Calque_3_00000145766104090312213860000003735513193576462755_">
	<path class="st0" d="M398,133.5c0.4-0.3,1.9-0.7,0.6-2.5c-1.2-1.4-2.8-2.4-4.6-2.8c-3.8-0.8-7.8-0.8-11.6-0.1c-3.1,0.8-7.7,5-7.7,5
		s6.2-2.2,8.4-2.4c2.7-0.1,5.5,0.2,8.2,0.7C392.9,131.9,398,133.5,398,133.5z"/>
	<path class="st0" d="M415.5,133.4c-0.4-0.3-1.9-0.7-0.6-2.5c1.2-1.4,2.8-2.3,4.6-2.8c2.7-0.8,8.9-0.7,11.6,0c3.1,0.8,7.7,5,7.7,5
		s-6.1-2.2-8.4-2.4c-2.7-0.1-5.5,0.2-8.2,0.7C420.6,131.8,415.5,133.4,415.5,133.4z"/>
	<path class="st1" d="M413.6,177.3c-0.2-0.7-1.9-6.5-4.2-7.2c-0.9-0.4-1.9-0.2-2.6,0.6l0.4,7.4L413.6,177.3z"/>
	<path class="st1" d="M400.1,177.5c0.2-0.7,1.9-6.6,4.2-7.2c0.9-0.4,1.9-0.2,2.6,0.5l-0.4,7.4L400.1,177.5z"/>
	<path class="st2" d="M407.2,178.1L407.2,178.1l-7.1-0.7c0,0,0,5.9,3.1,6.8c2,0.6,3.2,0.4,3.9,0.3c0.2,0.1,1,0.3,3.4-0.4
		c3.1-0.9,3.1-6.8,3.1-6.8L407.2,178.1z"/>
	<path class="st3" d="M411.2,177.6c0,3.1-2.6,5.4-4.5,5.4s-4.4-2.2-4.4-5.3c0-3.1,2.4-5.9,4.4-5.9S411.2,174.5,411.2,177.6z"/>
</g>
<g>
	<g>
		<path class="st4" d="M398,145.2c0.1,0.4,0,0.9-0.4,0.9c-2.2,0.2-7.6,1.1-8.7,1.2c-5.3-0.1-9.3-3.9-9.3-3.9l4.9-4.1l6.4-0.1
			l6.5,4.7L398,145.2z"/>
		<g>
			<path class="st5" d="M398.1,145.2c-2.4-6.3-9.2-9.1-15.4-6.5c-1.8,0.8-3.9,2.3-5.9,1.6c0.1,0.1,0.1-0.1,0.1-0.1l0.1,0.1
				c0.2,0.3,0.6,0.7,0.8,1c2.2,2.5,5,4.8,8.3,5.6c3.9,0.9,7.7-0.6,11.6-0.8c-1.9,0.3-3.9,0.5-5.8,0.9c-5.4,1.5-10.8-1.4-14.2-5.6
				c-0.2-0.2-0.6-0.7-0.8-1c-0.1-0.1-0.2-0.2,0-0.3c2.1,0.7,3.9-0.8,5.8-1.6C389,136,395.9,138.7,398.1,145.2L398.1,145.2z"/>
		</g>
		<path class="st0" d="M388.7,137.6c-6.5-0.4-9,4-11.8,2.6c0.4,0.9,4.2,4.3,4.2,4.3c4.1-4.8,8.1-4,8.1-4c5.3,0.7,8.9,4.7,8.9,4.7
			C395.9,139,391.9,137.9,388.7,137.6z"/>
		<ellipse class="st0" cx="391" cy="142.3" rx="3.7" ry="4.1"/>
	</g>
	<g>
		<path class="st4" d="M416.6,145.2c-0.1,0.4,0,0.9,0.4,0.9c2.2,0.2,7.6,1.1,8.7,1.2c5.3-0.1,9.3-3.9,9.3-3.9l-4.9-4.1l-6.4-0.1
			l-6.5,4.7L416.6,145.2z"/>
		<g>
			<path class="st5" d="M416.5,145.2c2.3-6.5,9.2-9.2,15.3-6.8c1.8,0.9,3.7,2.3,5.8,1.6c0.2,0.1,0.1,0.2,0,0.3
				c-0.2,0.3-0.6,0.7-0.8,1c-2.2,2.6-5,4.9-8.4,5.7c-3.9,1-7.7-0.6-11.6-0.9c1.9,0.2,3.9,0.5,5.8,0.8c5.4,1.4,10.8-1.4,14.1-5.6
				c0.2-0.3,0.6-0.7,0.8-1l0.1-0.1c0,0,0,0.1,0.1,0.1c-2,0.8-4.1-0.8-5.9-1.6C425.6,136.1,418.8,138.8,416.5,145.2L416.5,145.2z"/>
		</g>
		<path class="st0" d="M425.9,137.6c6.5-0.4,9,4,11.8,2.6c-0.9,1.7-4.2,4.3-4.2,4.3c-4.1-4.8-8.1-4-8.1-4c-5.3,0.7-8.9,4.7-8.9,4.7
			C418.7,139,422.7,137.9,425.9,137.6z"/>
		<ellipse class="st0" cx="427.9" cy="142.2" rx="3.7" ry="4.1"/>
	</g>
</g>
</svg>
