<?xml version="1.0" encoding="utf-8"?>
<!-- Generator: Adobe Illustrator 26.0.3, SVG Export Plug-In . SVG Version: 6.00 Build 0)  -->
<svg version="1.1" id="Calque_1" xmlns="http://www.w3.org/2000/svg" xmlns:xlink="http://www.w3.org/1999/xlink" x="0px" y="0px"
	 viewBox="0 0 788 1005.1" style="enable-background:new 0 0 788 1005.1;" xml:space="preserve">
<style type="text/css">
	.st0{fill:#211616;}
	.st1{fill:#F7E4EC;}
	.st2{fill:#282220;}
	.st3{fill:#B53535;}
	.st4{fill:#993131;}
	.st5{fill:#FFE4DE;}
	.st6{fill:#0F0F0F;}
</style>
<polygon class="st0" points="395.8,177.8 392.3,174.2 398.6,174.4 406.8,176 414.3,174.5 421.4,174.1 414.3,180.4 406.8,182.9 
	399.1,180.6 "/>
<path class="st1" d="M395.8,175.5l0.4,0.9c0.3,0.6,0.8,2.4,1.5,2.6l7.2,2.9c1.1,0.5,2.3,0.5,3.5,0.2l7.2-2.8
	c0.9-0.3,1.2-2.5,1.4-3.4v-0.1l-10.2,0.2L395.8,175.5z"/>
<path class="st2" d="M398.1,130.4c0.4-0.4,1.9-0.8,0.6-2.6c-1.2-1.4-2.8-2.5-4.6-2.9c-2.7-0.8-8.9-0.8-11.6,0
	c-3.1,0.8-7.7,5.2-7.7,5.2s6.1-2.3,8.4-2.5c2.8-0.1,5.5,0.2,8.2,0.8C393,128.7,398.1,130.4,398.1,130.4z"/>
<path class="st2" d="M415.6,130.3c-0.4-0.4-1.9-0.8-0.6-2.6c1.2-1.4,2.8-2.4,4.6-2.9c2.7-0.8,8.9-0.8,11.6,0
	c3.1,0.8,7.7,5.1,7.7,5.1s-6.1-2.2-8.4-2.5c-2.7-0.1-5.5,0.2-8.2,0.8C420.7,128.7,415.6,130.3,415.6,130.3z"/>
<path class="st3" d="M422.5,173.6c0,0-12.5,5.4-15.8,5.4s-15.6-5.2-15.6-5.2c3.9,0.6,10.2-1.2,12.3-0.5c1.1,0.2,2.2,0.7,3.2,1.3
	c1.2-0.5,2.5-1,3.8-1.3C413,172.5,419.2,174.2,422.5,173.6z"/>
<path class="st4" d="M421.4,174.1c0,0-6.6,7.6-9.9,8.3c-3.1,0.8-6.4,0.8-9.5,0c-3.3-0.7-9.7-8.1-9.7-8.1s11.2,4.5,14.5,4.5
	S421.4,174.1,421.4,174.1z"/>
<g>
	<g>
		<path class="st5" d="M417.2,143.9l6.5-4.7l6.4,0.1l4.9,4.1c0,0-4,3.8-9.3,3.9c-1.1-0.1-6.5-1-8.7-1.2c-0.4,0-0.5-0.5-0.4-0.9
			L417.2,143.9z"/>
		<g>
			<path class="st6" d="M416.5,145.2c2.2-6.5,9.1-9.2,15.4-6.7c1.9,0.8,3.7,2.3,5.8,1.6c0.2,0.1,0.1,0.2,0,0.3
				c-0.2,0.3-0.6,0.8-0.8,1c-3.4,4.2-8.8,7.1-14.2,5.6c-1.9-0.4-3.9-0.6-5.8-0.9c3.9,0.2,7.7,1.7,11.6,0.8c3.3-0.8,6.1-3.1,8.3-5.6
				c0.2-0.3,0.6-0.7,0.8-1l0.1-0.1c0,0,0,0.2,0.1,0.1c-2,0.7-4.1-0.8-5.9-1.6C425.7,136.1,418.8,138.8,416.5,145.2L416.5,145.2z"/>
		</g>
		<path class="st2" d="M416.5,145.2c0,0,3.6-4,8.9-4.7c0,0,4-0.8,8.1,4c0,0,3.8-3.4,4.2-4.3c-2.8,1.4-5.3-3-11.8-2.6
			C422.7,137.8,418.7,139,416.5,145.2z"/>
		<ellipse class="st2" cx="425.1" cy="143.2" rx="3.7" ry="4.1"/>
	</g>
	<g>
		<path class="st5" d="M397.4,143.9l-6.5-4.7l-6.4,0.1l-4.9,4.1c0,0,4,3.8,9.3,3.9c1.1-0.1,6.5-1,8.7-1.2c0.4,0,0.5-0.5,0.4-0.9
			L397.4,143.9z"/>
		<g>
			<path class="st6" d="M398.1,145.2c-2.3-6.4-9.1-9.1-15.3-6.5c-1.8,0.8-3.9,2.4-5.9,1.6c0.1,0,0.1-0.1,0.1-0.1l0.1,0.1
				c0.2,0.3,0.6,0.7,0.8,1c3.3,4.2,8.7,7,14.1,5.6c1.9-0.3,3.9-0.6,5.8-0.8c-3.9,0.3-7.7,1.9-11.6,0.9c-3.4-0.8-6.2-3.1-8.4-5.7
				c-0.2-0.3-0.6-0.7-0.8-1c-0.1-0.1-0.2-0.2,0-0.3c2.1,0.7,4-0.7,5.8-1.6C388.9,135.9,395.8,138.7,398.1,145.2L398.1,145.2z"/>
		</g>
		<path class="st2" d="M398.1,145.2c0,0-3.6-4-8.9-4.7c0,0-4-0.8-8.1,4c0,0-3.3-2.6-4.2-4.3c2.8,1.4,5.3-3,11.8-2.6
			C391.9,137.8,395.9,139,398.1,145.2z"/>
		<ellipse class="st2" cx="389.5" cy="143.2" rx="3.7" ry="4.1"/>
	</g>
</g>
</svg>
