<svg xmlns="http://www.w3.org/2000/svg" viewBox="0 0 788 1005"><defs><style>.cls-1{fill:#b26959;}.cls-2{fill:#f1a93d;}</style></defs><g id="Calque_3" data-name="Calque 3"><polygon class="cls-1" points="480.89 218.19 463.89 266.83 444.02 323.81 342.17 322.2 323.1 269.33 306.1 218.19 371.72 187.67 372.63 169.24 415.42 169.24 415.94 187.59 480.89 218.19"/><path class="cls-1" d="M339.55,323c0-28.72,27.35-52,53.56-52s49.94,22.87,49.94,51.59S419.31,375,393.11,375,339.55,351.68,339.55,323Z"/><path class="cls-1" d="M547,314.79l0,0h0L454.23,261v0c-11.83-6.87-15.6-22.22-8.42-34.28s22.63-16.3,34.47-9.43c.18.1.35.21.51.32L569.63,285c8.81,6.89,10.93,17.26,5.64,24.49C569.3,317.67,560.81,323.17,547,314.79Z"/><path class="cls-1" d="M616.3,190.66l10.51-14.13L646,161.74s2.29,4.23,2,5.7c-1,4.63-6.41,9.87-9.59,13.36-.43.47-1,3.29-.67,3.83,1.32,2.22,6.55.67,6.55.67l-14.47,10Z"/><path class="cls-1" d="M621.82,189.35l7.57,16.49,36.47-13.19,31-26.92s-4.57-3.45-6.38-3.47c-9.47-.09-25,13.48-33.51,17.48C647.76,184.05,621.82,189.35,621.82,189.35Z"/><ellipse class="cls-1" cx="624.69" cy="196.75" rx="10.33" ry="10.37" transform="translate(52.71 515.8) rotate(-46.63)"/><path class="cls-1" d="M547.34,313.91c-11.69-7.44-13.8-21-6.8-32.84.14-.25,3.75-5.18,3.75-5.18l70.19-81.21s4.63-7.25,12.7-1.83c7.25,4.86,2,13,2,13L585.59,296.8c-5,10.49-12.13,19.75-23.61,21.67C557.33,319.24,551,316.23,547.34,313.91Z"/><path class="cls-1" d="M585.19,309.62l-.12-.08c.15-.21.3-.43.44-.66,0-.05.07-.1.1-.16Z"/><path class="cls-2" d="M328.28,282.66l15.19,76.63a18.5,18.5,0,0,1-.55,9.34l-12.34,38h121.9l-7.74-37.73a24.87,24.87,0,0,1-.31-10.62l14.29-75.56-42.4-95.15-44.22.09-43.82,95"/><path class="cls-1" d="M228.78,300.31l0,0h0L302,222l0,0c9.35-10,25.15-10.23,35.3-.52s10.8,25.71,1.45,35.71c-.14.15-.28.29-.43.43L252.7,329c-8.68,7-19.27,6.78-25.12,0C221,321.4,217.51,311.89,228.78,300.31Z"/><path class="cls-1" d="M306.94,417.51l1.84,1.42a15.7,15.7,0,0,0,17,1.6,33.77,33.77,0,0,0,12.51-11.36l9.9-15.88a1.6,1.6,0,0,0-2.18-2.22l-28.93,17.25a1.67,1.67,0,0,0-.74,1Z"/><path class="cls-1" d="M322.22,414,314.67,397l22.8-16.66,24.94-14.21s.91,12.6-.43,14.33l-5.66,6C346.77,394.12,322.22,414,322.22,414Z"/><ellipse class="cls-1" cx="312.95" cy="408.74" rx="10.33" ry="10.37" transform="translate(-39.53 33.55) rotate(-5.77)"/><path class="cls-1" d="M231.75,299.15c11.14-8.25,24.6-5.34,33.1,5.42.18.23,3.49,5.37,3.49,5.37L319,404.58s5.11,6.93-2.85,12.52c-7.14,5-12.85-2.85-12.85-2.85L234,341c-8-8.46-14.09-18.41-11.76-29.81C223.19,306.56,228.27,301.73,231.75,299.15Z"/><path class="cls-1" d="M225.25,338.69l.1-.1.54.58.14.13Z"/></g></svg>