<?xml version="1.0" encoding="utf-8"?>
<!-- Generator: Adobe Illustrator 26.0.2, SVG Export Plug-In . SVG Version: 6.00 Build 0)  -->
<svg version="1.1" id="Calque_1" xmlns="http://www.w3.org/2000/svg" xmlns:xlink="http://www.w3.org/1999/xlink" x="0px" y="0px"
	 viewBox="0 0 788 1005.1" style="enable-background:new 0 0 788 1005.1;" xml:space="preserve">
<style type="text/css">
	.st0{fill:#301C0F;}
	.st1{fill:#B26959;}
	.st2{fill:#A56055;}
	.st3{fill:none;stroke:#000000;stroke-width:2;stroke-linecap:round;stroke-miterlimit:10;}
	.st4{fill:#CECECE;}
	.st5{fill:#E8AF49;}
</style>
<g>
	<g>
		<path class="st0" d="M230.3,198.9c6.3,11.2,12.4,22.5,18.5,33.8c10.2,22,37.9,81.8,48.5,104.5c10.6,22.9,38.2,82.3,48.5,104.5
			c4.7,11.9,9.4,23.9,13.9,35.9c-6.3-11.2-12.4-22.5-18.4-33.8c-10.2-21.9-37.9-81.8-48.5-104.5c-10.6-22.9-38.2-82.3-48.5-104.5
			C239.5,222.9,234.8,211,230.3,198.9L230.3,198.9z"/>
	</g>
	<path class="st1" d="M558.7,340.7l-48.1-59.9c-0.1-0.1-0.2-0.3-0.3-0.4l-13.7-21.5c-3.5-5.4-8.4-9.8-14.2-12.6l-48.5-22.9
		c-1.3-0.6-2.2-1.7-2.6-3l-3.9-50.8h-39.5l-4.5,50c-0.4,1.3-1.3,2.3-2.5,2.9l-48.2,20.9c-7,3-13,8.2-16.9,14.8l-15.1,25.2
		c-0.1,0.2-0.2,0.4-0.4,0.5L257,336.3c-6.2,7.5-5.2,18.6,2.3,24.8c7.5,6.2,18.6,5.2,24.9-2.3c0.1-0.1,0.2-0.2,0.2-0.3l54.7-57.7
		l0.7,77.6c0,0.2,0,0.4,0,0.6l-15.4,127.9c-1.1,9.4,5.1,18,14.3,20c0,0,50.5,13.7,67.8,14.4c17.9,0.7,71-9.5,71-9.5
		c0.1,0,0.2,0,0.2,0c10-1.5,16.8-10.7,15.4-20.7l-18.8-127.7c0-0.2,0-0.5,0-0.7c0-5.1,0.5-64.7,0.6-76.4l55.7,58.9
		c6.9,7.4,18.6,8,26.2,1.2C564,359.6,564.9,348.4,558.7,340.7z"/>
	<polygon class="st2" points="387.9,169.5 427.4,169.5 429.9,201.4 384,212.8 	"/>
	<path d="M496.6,512.6l-20.2-125.2c-1.4-8.8-2.1-17.7-2-26.6l0.2-20.2c0.2-25.8-3.7-51.8-15.6-75l-23.9-41.8
		c0,0,13.9,24.5,11.7,37.8c-2.2,13.3-39,54.2-39.5,72.2v1.2c-0.5-18-37.2-59-39.5-72.2c-2.2-13.3,13.1-40.5,13.1-40.5l-20.6,36.4
		c-14,24.6-21.2,52.1-21.1,80l0,0c0.1,22.5-1.2,45-4,67.4l-16.3,112.7c-6.2,50.7,44.6,21.8,87.4,71.4c6.3,7.3,38,27.4,42,18.7
		c21.2-46.1,52.1-47.7,50.1-79.9C498,523.5,497.5,518,496.6,512.6z"/>
	<g>
		<path class="st1" d="M358.4,483.5c2,0.8-22.5-31.2-22.5-31.2l-0.3-6.5c-0.1-2.1-2.2-3.6-4.2-2.9l-4.8,1.5l0,0
			c-6.5-9.3-11.6-19.4-15.2-30.2l-21.1-64.8l-4.3-7.7c-4.6-8.2-14.7-11.6-23.3-7.7c-9.2,4.1-13.2,14.9-9.1,24c0.1,0.3,0.3,0.7,0.5,1
			l54.4,95.3c4.4,7.7,9.9,14.7,16.4,20.7c2,1.8,4,3.5,5.9,4.8c5.7,3.8,18.1,12.2,25.2,17.1c1.7,1.2,4-0.2,3.7-2.3L358.4,483.5z"/>
		<path class="st1" d="M455.6,488.8c-2,0.8,22.5-31.2,22.5-31.2l0.3-6.5c0.1-2.1,2.2-3.6,4.2-2.9l4.8,1.5l0,0
			c6.5-9.3,11.6-19.4,15.2-30.2l21.1-64.8l4.3-7.7c4.6-8.2,14.7-11.6,23.3-7.7c9.2,4.1,13.2,14.9,9.1,24c-0.1,0.3-0.3,0.7-0.5,1
			l-54.4,95.3c-4.4,7.7-9.9,14.7-16.4,20.7c-2,1.8-4,3.5-5.9,4.8c-5.7,3.8-18.1,12.2-25.2,17.1c-1.7,1.2-4-0.2-3.7-2.3L455.6,488.8z
			"/>
	</g>
	<path d="M338.8,361.5c0,0-117.8,201.9-93.6,212.6c24.2,10.7,37.7,5.6,46.1,18s26.4,12.9,32.1,28.7c5.6,15.7,37.7,12.7,50.6,21.7
		s23.2-4.7,41.2,0.9s32.5,12.8,55,7.7s16.8-28.1,35.7-30.4c18.9-2.2-5.3-7.9,26.2-18.6c31.5-10.7,13.5-27.6,42.7-36
		s6.2-25.3,29.8-30.9c23.6-5.6-111.8-109.9-130-163.7"/>
	<path class="st3" d="M383.7,217.1l5.1,1.9c12.3,4.5,25.8,4.2,37.8-0.9l4.5-1.9"/>
	<path class="st4" d="M408.3,228.2c0-2.4,0.8-4.5,2.1-6.3c-0.8-0.3-1.6-0.4-2.4-0.4c-4.3,0-7.8,3.5-7.8,7.8s3.5,7.8,7.8,7.8
		c1.4,0,2.7-0.4,3.9-1C409.6,234.1,408.3,231.3,408.3,228.2z"/>
	<g>
		<path class="st5" d="M206.8,163c2.5,2.5,5.1,5.5,7.5,8.1c1.4,1.7,3.4,4,4.9,5.5c2.5,2.9,4,6.2,4.5,10.3c0,0.2-0.2,0.4-0.4,0.3
			c-2.5-1.2-4.4-2.9-6.1-4.7c-1.7-1.8-2.6-4.2-3.8-6.3c-0.9-1.6-2.8-4.8-3.6-6.4c-1.2-2.2-2.3-4.3-3.4-6.6
			C206.2,163.1,206.6,162.8,206.8,163L206.8,163z"/>
	</g>
	<g>
		<path class="st5" d="M241.3,151.4c-0.1,4-0.4,8.5-0.7,12.6c-0.2,2.5-0.5,5.9-0.6,8.4c-0.3,4.3-1.7,8.2-4.3,12
			c-0.1,0.2-0.4,0.1-0.5-0.1c-0.9-3-1-5.8-0.8-8.6c0.1-2.8,1.2-5.4,1.9-8.1c0.5-2,1.6-6.1,2.1-8.1c0.8-2.7,1.5-5.4,2.4-8
			C240.9,151,241.3,151.1,241.3,151.4L241.3,151.4z"/>
	</g>
	<g>
		<path class="st5" d="M260.1,189.9c-2.8,0.9-5.9,1.8-8.7,2.5c-1.7,0.4-4.1,1-5.8,1.5c-3.1,0.8-6,0.4-9.2-1.1
			c-0.2-0.1-0.2-0.4-0.1-0.5c3.5-3.1,7.3-3.6,11.6-3.2c1.5,0,4.5,0,6,0c2,0.1,4,0.1,6,0.3C260.3,189.5,260.3,189.9,260.1,189.9
			L260.1,189.9z"/>
	</g>
	<g>
		<path class="st5" d="M267.1,215.2c-3.1-0.6-6.5-1.5-9.5-2.3c-1.9-0.5-4.4-1.3-6.3-1.7c-3.3-0.9-5.9-2.8-8.2-5.7
			c-0.1-0.1-0.1-0.3,0.1-0.4c3.6-0.7,6.9-0.1,9.9,1.5c2.6,1.6,5.9,3.2,8.5,4.8c1.9,1.1,3.8,2.2,5.6,3.4
			C267.6,214.9,267.4,215.3,267.1,215.2L267.1,215.2z"/>
	</g>
	<g>
		<path class="st5" d="M233.2,241.2c-0.8-3.7-1.4-7.8-2-11.5c-0.3-2.3-0.8-5.4-1.2-7.7c-0.6-4-0.1-7.8,1.6-11.7
			c0.1-0.2,0.4-0.2,0.5,0c1.5,2.5,2.2,5,2.6,7.6c0.5,2.6,0,5.2-0.1,7.7c-0.1,1.9-0.2,5.8-0.3,7.7c-0.2,2.6-0.3,5.2-0.6,7.7
			C233.7,241.4,233.3,241.4,233.2,241.2L233.2,241.2z"/>
	</g>
	<g>
		<path class="st5" d="M199,222.6c2.2-2.4,4.8-4.8,7.2-7.1c1.5-1.3,3.5-3.2,4.9-4.6c2.6-2.4,5.6-3.7,9.4-4.1c0.2,0,0.4,0.2,0.3,0.4
			c-1,2.4-2.4,4.2-4,5.8s-3.8,2.4-5.7,3.5c-1.4,0.9-4.3,2.5-5.8,3.3c-2,1.1-3.9,2.1-6,3.1C199.1,223.1,198.8,222.7,199,222.6
			L199,222.6z"/>
	</g>
	<g>
		<path class="st5" d="M186.4,189.4c3.9,0.2,8.3,0.7,12.2,1.1c2.4,0.3,5.7,0.7,8.1,0.9c4.2,0.5,7.9,2,11.4,4.7
			c0.2,0.1,0.1,0.4-0.1,0.5c-2.9,0.8-5.7,0.8-8.4,0.5c-2.7-0.2-5.2-1.4-7.8-2.2c-1.9-0.6-5.9-1.8-7.8-2.4c-2.6-0.9-5.2-1.7-7.7-2.6
			C186,189.8,186.1,189.4,186.4,189.4L186.4,189.4z"/>
	</g>
	<g>
		<path class="st5" d="M222.9,153.6c1,1.6,1.9,3.5,2.7,5.2c0.4,1.1,1.1,2.5,1.7,3.5c0.9,2,0.5,3.9-0.8,6.1c-0.1,0.2-0.3,0.2-0.5,0.1
			c-1.6-0.9-2.5-2-3.1-3.2c-0.7-1.2-0.3-2.5-0.4-3.8c-0.1-1-0.2-2.9-0.2-3.9c0-1.3,0-2.6,0.1-3.9
			C222.4,153.5,222.8,153.4,222.9,153.6L222.9,153.6z"/>
	</g>
	<g>
		<path class="st5" d="M263.7,168.9c-2.2,2.1-4.7,4.3-7.1,6.2c-1.2,0.9-2.2,2.3-3.7,2.8s-3.1,0.8-5.1,0.4c-0.2,0-0.3-0.2-0.3-0.4
			c0.6-2,1.7-3.2,2.9-4.3s2.8-1.3,4.3-1.9c1.1-0.4,3.3-1.3,4.4-1.7c1.5-0.5,3-1,4.5-1.5C263.7,168.4,263.9,168.8,263.7,168.9
			L263.7,168.9z"/>
	</g>
	<g>
		<path class="st5" d="M277.7,201.8c-2.9,0.4-6,0.7-8.9,0.8c-1.5,0-3,0.5-4.4,0s-2.8-1.2-4.1-2.7c-0.1-0.1-0.1-0.4,0-0.5
			c1.6-1.2,3.1-1.6,4.6-1.8s2.9,0.6,4.3,1c1.1,0.3,3.2,0.9,4.2,1.2c1.4,0.5,2.8,0.9,4.2,1.5C278,201.4,278,201.8,277.7,201.8
			L277.7,201.8z"/>
	</g>
	<g>
		<path class="st5" d="M248,237.7c-1.2-1.5-2.3-3.2-3.4-4.8c-0.6-1-1.4-2.4-2.1-3.3c-1.2-1.9-1-3.8,0-6.2c0.1-0.2,0.3-0.3,0.5-0.2
			c1.7,0.7,2.7,1.7,3.5,2.7c0.8,1.1,0.7,2.5,0.9,3.7c0.2,0.9,0.6,2.9,0.7,3.8c0.2,1.3,0.4,2.6,0.5,3.9
			C248.4,237.8,248.1,237.9,248,237.7L248,237.7z"/>
	</g>
	<g>
		<path class="st5" d="M206.9,239.5c0.7-1.9,1.7-3.8,2.6-5.6c0.6-1.1,1.4-2.5,1.8-3.7c1.1-2.1,2.8-3,5.5-3.4c0.2,0,0.4,0.1,0.4,0.3
			c0.3,1.9-0.1,3.3-0.7,4.5c-0.6,1.3-1.9,1.9-2.9,2.9c-0.7,0.7-2.3,2.1-3.1,2.7c-1.1,0.9-2.1,1.7-3.3,2.6
			C207.1,240,206.8,239.8,206.9,239.5L206.9,239.5z"/>
	</g>
	<g>
		<path class="st5" d="M185,210.4c2.3-1.3,5-2.7,7.4-3.8c1.5-0.7,3.6-1.6,5-2.4c2.7-1.3,5.4-1.3,8.5-0.4c0.2,0.1,0.2,0.2,0.2,0.4
			c-1.3,1.9-2.9,3-4.6,3.9c-1.6,0.9-3.6,0.8-5.4,1.2c-1.4,0.3-4.1,0.7-5.4,0.9c-1.8,0.3-3.7,0.5-5.5,0.7
			C184.9,210.9,184.7,210.6,185,210.4L185,210.4z"/>
	</g>
	<g>
		<path class="st5" d="M188.2,169.6c2.9,1.3,5.9,3,8.7,4.5c1.7,1,4,2.3,5.8,3.1c3,1.7,5.1,4.1,6.6,7.4c0.1,0.2,0,0.3-0.2,0.4
			c-3.7-0.2-6.7-1.5-9.3-3.8c-2.1-2.2-5-4.5-7.2-6.6c-1.6-1.5-3.2-3-4.7-4.6C187.7,169.8,187.9,169.5,188.2,169.6L188.2,169.6z"/>
	</g>
</g>
</svg>
