<svg xmlns="http://www.w3.org/2000/svg" viewBox="0 0 588 550"><defs><style>.cls-1{fill:#b26959;}.cls-2{fill:#d39844;}.cls-3{fill:#fff;}.cls-4{fill:#d12e2e;}</style></defs><g id="Calque_3" data-name="Calque 3"><rect class="cls-1" x="162" y="111.95" width="39.52" height="47.38"/><path class="cls-1" d="M87.21,332.67h0A17.65,17.65,0,0,0,108,318.38l20.14-77.27L96,190.33l-9.61,54.58-13.18,73C71.31,327.43,77.67,330.79,87.21,332.67Z"/><path class="cls-1" d="M264.78,190.33,285.59,223l48.23,60.12a18.67,18.67,0,0,1-2.07,25.57h0a18.69,18.69,0,0,1-26.15-1.14l-59.08-63.38Z"/><path class="cls-1" d="M99.76,339.06l72.4-57,7.56-2.33,6.65-8.94-6.15-25.11L170,250l-2.89-1.52-10.36,14.3s-64,36.55-66.14,38.35-11.74,9.19-11.74,9.19l-.74-6.46c-5.8,6.36-6.78,23.82-1.74,30.78h0a17.15,17.15,0,0,0,22,5.2Z"/><path class="cls-2" d="M264.78,190.33c0,3-15.85,53.5-15.85,56.47s-.63,78.61-.63,78.61l16.8,96a18.21,18.21,0,0,1-15.62,20.7s-51.85-11.81-69.74-12.49c-17.32-.67-69.06,7.57-69.06,7.57a18.24,18.24,0,0,1-14.31-20L113.75,321l-.67-78.41L96,190.33l61-26.38,2.51-17.68,44.49.36,2,18.31Z"/><polygon class="cls-3" points="183.92 312.73 154.09 312.73 145.59 256.44 193.09 256.44 183.92 312.73"/><polygon class="cls-4" points="186.91 297.16 155.47 297.16 147.73 279.11 190.95 279.11 186.91 297.16"/><path class="cls-1" d="M100.5,336.66c-4.33-3.91-4.45-24-2.1-29.3a19.17,19.17,0,0,1,2.1-3.7l38.77-20.83.82-10.15,12.77-6.94,21.41-.92,2.8,30.19-21.34,15.14-11.14-6.39S102.48,338.44,100.5,336.66Z"/><path class="cls-1" d="M310.14,305c4,10.47,14.77,8.3,23.76,5.17,6.41-2.23,66.34-30.19,82.73-37.58,9.27-4.18,14.31-6.16,12.35-11.88-1.78-5.2-17.21-1.77-21.29-1.31-38.28,4.32-53.22,8.79-85.87,16.92C303.39,280.94,308.76,301.44,310.14,305Z"/><path class="cls-1" d="M454.88,246a81.88,81.88,0,0,0,16.14-.6s-1.93,4.55-4.17,5.95c-1.83,1.14-12.16,2.87-12.16,2.87h0c26.95,10.58,54.79,23,57.21,24.85,1.72,1.29,3.26,7.61,3.26,7.61s-26.19-9.48-33.71-11.66c-25.55-7.44-44.69-7.82-59.23-4.67-2.56.56-9.4-11.78-4.15-13.4,1.84-.57,9-8,12.21-8.35C443.1,247.2,454.47,246,454.88,246Z"/></g></svg>