<?xml version="1.0" encoding="utf-8"?>
<!-- Generator: Adobe Illustrator 26.0.2, SVG Export Plug-In . SVG Version: 6.00 Build 0)  -->
<svg version="1.1" id="Layer_1" xmlns="http://www.w3.org/2000/svg" xmlns:xlink="http://www.w3.org/1999/xlink" x="0px" y="0px"
	 viewBox="0 0 588 350.8" style="enable-background:new 0 0 588 350.8;" xml:space="preserve">
<style type="text/css">
	.st0{fill:#B26959;}
	.st1{fill:#9CCBF2;}
	.st2{fill:#587CC6;}
	.st3{fill:#4D6FAA;}
	.st4{fill:#DCE8EF;}
</style>
<path class="st0" d="M475.8,156.7l-58.6-50.1L393,80.8c-1.5-1.6-3.3-2.9-5.3-3.8l-60-26.7l0.2-29.9h-40.4l0.7,29.9l-65.5,28
	c-0.2,0.1-0.3,0.2-0.5,0.4L200.9,114l-43.6,52.7c-6.2,7.5-5.2,18.6,2.3,24.8s18.6,5.2,24.9-2.3c0.1-0.1,0.2-0.2,0.2-0.3l54.7-58.2
	l-9.8-29.9c-0.4-1.2,1.4-1.9,1.9-0.7l7.9,18.4l135.6,2.4l6.1-16.4c0.5-1.3,2.4-0.7,2.1,0.6l-8.1,30.7l77.6,50.2
	c8.2,6,19.7,4.4,25.9-3.7C484.5,174.3,483.3,163.1,475.8,156.7z"/>
<path class="st0" d="M463.3,186.7c10.6,3.5,15.8-6.2,19.1-15.1c2.3-6.4,18.7-70.5,23.4-87.8c2.7-9.8,4.3-15-1.3-17.1
	c-5.2-1.9-12.3,12.2-14.5,15.6c-20.9,32.4-27,46.7-41.4,77.1C440.4,176.7,459.6,185.5,463.3,186.7z"/>
<path class="st1" d="M509.5,37.4c2.8-3,5.4-6.3,7.7-9.7c1-1.4,3.1-1.1,3.6,0.6c0.3,1.1,0.6,2.3,0.5,3.3c-0.3,2.1-5.5,11.2-5.5,11.2
	l0,0C541,28.6,568.3,15,571.2,14.2c0.9-0.2,2.6,0.2,4.1,0.7c1.6,0.6,1.9,2.7,0.4,3.6c-6.9,4.1-22,13.2-27,16.6
	c-22,15.1-34.4,29.6-41.2,42.8c-1.2,2.3-15.1-0.2-13-5.3c0.7-1.8-0.5-12,1.3-14.7C502.9,47.2,509.2,37.7,509.5,37.4z"/>
<path class="st0" d="M170.7,191.8c-10.6,3.5-15.8-6.2-19.1-15.1c-2.3-6.4-18.7-70.4-23.4-87.8c-2.6-9.8-4.3-15,1.4-17.1
	c5.1-1.9,12.3,12.2,14.5,15.6c20.9,32.4,26.9,46.7,41.4,77.1C193.6,181.8,174.4,190.6,170.7,191.8z"/>
<path class="st1" d="M124.5,42.5c-2.8-3-5.4-6.3-7.7-9.7c-1-1.4-3.1-1.1-3.6,0.6c-0.3,1.1-0.6,2.3-0.5,3.3
	c0.3,2.1,5.5,11.2,5.5,11.2l0,0C93,33.7,65.7,20.1,62.8,19.4c-0.9-0.2-2.6,0.2-4.1,0.7c-1.6,0.6-1.9,2.7-0.4,3.6
	c6.9,4.1,22,13.2,26.9,16.6c22,15,34.4,29.6,41.2,42.8c1.2,2.3,15.1-0.2,13-5.3c-0.7-1.8,0.5-12-1.3-14.7
	C131.1,52.3,124.8,42.8,124.5,42.5z"/>
<path class="st2" d="M380.3,228h0.6l2.5-2.8c3.1-3.5,3.9-8.4,2.2-12.8c-2-5.3-4.4-11.9-4.4-13.8c0.2-24.1,0.4-54.4,0.4-56.4
	c0-3.1,15.5-52.7,17.2-60.7c0.1-0.5-0.2-1.1-0.7-1.3l-52.4-22.6c-6.1-2.6-13.3,0-16.2,5.9l-9.5,19c-4.6,9.2-17.6,9.3-22.4,0.3
	l-11-20.8c-3.1-5.8-10.1-8.3-16.1-5.7l-55.7,24.1c0,0,0,0,0,0.1l18,55.2c0.4,1.2,0.6,2.5,0.6,3.8l0.5,57.6c0,1.3-0.2,2.5-0.5,3.7
	l-4.1,13.8c-0.9,3.1-0.6,6.4,0.8,9.2l0,0c1,2,1.4,4.2,1.3,6.4c-0.2,3.7-0.6,9.8-0.9,14.2l-5.8,81.1c-0.4,5.7,3.1,11,8.6,12.8
	l24.6,5.3c25.7,5.5,52.3,5.6,78,0.3c16.4-3.4,33.9-7,43.2-9.2c5.9-1.4,9.9-6.8,9.6-12.9l-3.8-76.5
	C384.5,238.8,382.9,232.9,380.3,228z"/>
<polygon class="st3" points="380.2,242.3 383.3,289.9 339.4,297.5 329.9,291.6 327.6,240.1 380.5,232.5 "/>
<ellipse transform="matrix(0.1602 -0.9871 0.9871 0.1602 4.1718 422.7034)" class="st1" cx="250.5" cy="208.9" rx="6.7" ry="6.7"/>
<circle class="st4" cx="250.5" cy="208.9" r="5.4"/>
<g>
	<path class="st4" d="M250.7,208.9c0.4,7.9,0.8,15.8,0.9,23.7c0.3,5.9,0.6,11.8-0.5,17.7c-0.3,2-0.7,3.9-1.3,5.9h-0.4
		c-2-7.8-1.8-15.8-0.9-23.7c0.5-7.9,1.1-15.7,1.9-23.6C250.3,208.9,250.7,208.9,250.7,208.9L250.7,208.9z"/>
</g>
<g>
	<path class="st4" d="M268.3,202.1c0.4,7.9,0.8,15.8,0.9,23.7c0.3,5.9,0.6,11.8-0.5,17.7c-0.3,2-0.7,3.9-1.3,5.9H267
		c-2-7.8-1.8-15.8-0.9-23.7c0.5-7.9,1.1-15.7,1.9-23.6C267.9,202.1,268.3,202.1,268.3,202.1L268.3,202.1z"/>
</g>
<polygon class="st3" points="233.7,244 230.6,291.6 274.5,299.1 284,293.2 286.3,241.8 233.4,234.2 "/>
<g>
	<path class="st4" d="M267.9,207.4c-0.1-3-0.3-7-0.3-9.5c-1-5.1,2.5-8.3,7.5-6.8c2.2,0.6,2.8,2.4,2,4.4c-0.3,0.7-0.5,1.3-0.7,2h-0.2
		c-0.5-1.2,0.2-3-0.4-4c-0.3-0.6-1.9-0.7-3.1-0.7c-3-0.3-4,2.2-3.8,4.8c-0.2,3.2-0.5,6.5-0.7,9.7
		C268.1,207.4,267.9,207.4,267.9,207.4L267.9,207.4z"/>
</g>
</svg>
