<?xml version="1.0" encoding="utf-8"?>
<!-- Generator: Adobe Illustrator 26.0.1, SVG Export Plug-In . SVG Version: 6.00 Build 0)  -->
<svg version="1.1" id="Layer_1" xmlns="http://www.w3.org/2000/svg" xmlns:xlink="http://www.w3.org/1999/xlink" x="0px" y="0px"
	 viewBox="0 0 588 350.8" style="enable-background:new 0 0 588 350.8;" xml:space="preserve">
<style type="text/css">
	.st0{fill:#375D63;}
	.st1{fill:#A56156;}
	.st2{fill:#227287;}
	.st3{fill:#B26959;}
	.st4{fill:#F7A386;}
	.st5{fill:#FCD700;}
</style>
<g>
	<g id="Calque_1">
		<path class="st0" d="M381.8,317.3c-23.3,2.5-44.5,10-69.8,18.3c0,0-11.5,0.5-10.8-0.1l-70.8-16.6l5.9-58.4
			c1.1-10.7,10.1-18.8,20.8-18.8H357c11,0,20.1,8.5,20.8,19.4L381.8,317.3z"/>
	</g>
	<rect x="287.9" class="st1" width="39.5" height="47.4"/>
	<path class="st2" d="M377.8,72.8c7.6,3.3,11.5,11.7,9.2,19.6c-4.7,16.1-12.2,40.4-12.2,42.5c0,3-0.6,78.6-0.6,78.6l18.8,128
		c1.5,10-5.4,19.2-15.4,20.7c-0.1,0-0.2,0-0.2,0s-53.1,10.1-71,9.5c-17.3-0.7-67.8-14.4-67.8-14.4c-9.2-2-15.4-10.6-14.3-20
		l15.4-128.2l-0.7-78.4l-12.5-38.1c-2.6-8,1.3-16.7,9-20.1L282.9,52l2.1-15.1c0.2-1.5,1.5-2.6,3-2.5l39.3,0.4c1.5,0,2.7,1.1,2.9,2.6
		l1.7,15.7L377.8,72.8z"/>
	<path class="st3" d="M449.3,167L449.3,167l-82.8-48l0,0c-10.6-6.1-13.9-19.8-7.5-30.6s20.2-14.6,30.8-8.4l0.5,0.3l79.3,60.2
		c7.9,6.1,9.8,15.4,5,21.9C469.2,169.6,461.7,174.5,449.3,167z"/>
	<path class="st3" d="M512.6,55.3l9.4-16.4l18.6-18.1c0,0,3,4.2,2.8,5.8c-0.5,5-5.6,11.3-8.6,15.4c-0.4,0.5-0.6,3.6-0.2,4.2
		c1.7,2.2,7-0.1,7-0.1l-14.1,12.4L512.6,55.3z"/>
	<path class="st3" d="M515.9,52l8.1,17.7l39.1-14.1l33.3-28.9c0,0-4.9-3.7-6.8-3.7c-10.2-0.1-26.7,14.5-35.9,18.8
		C543.7,46.3,515.9,52,515.9,52z"/>
	
		<ellipse transform="matrix(0.6867 -0.7269 0.7269 0.6867 117.6754 396.3614)" class="st3" cx="518.7" cy="61.7" rx="9.2" ry="9.3"/>
	<path class="st3" d="M449.6,166.2c-10.5-6.6-12.3-18.8-6.1-29.3c0.1-0.2,3.4-4.6,3.4-4.6l62.7-72.6c0,0,4.1-6.5,11.3-1.6
		c6.5,4.3,1.8,11.6,1.8,11.6l-38.9,81.2c-4.5,9.4-10.8,17.6-21.1,19.4C458.5,171,452.9,168.3,449.6,166.2z"/>
	<path class="st4" d="M483.4,162.4l-0.1-0.1c0.1-0.2,0.3-0.4,0.4-0.6l0.1-0.1L483.4,162.4z"/>
	<path class="st3" d="M183.8,196.7L183.8,196.7L183.8,196.7l28.8-102.2l0,0c3.7-13,17.5-20.4,30.8-16.5s21.2,17.7,17.5,30.8
		c-0.1,0.2-0.1,0.4-0.2,0.6c-0.1,0.3-42.9,101.7-42.9,101.7c-4.4,10.1-13.9,14.7-22.1,11.4C186.5,218.8,179.1,212,183.8,196.7z"/>
	<path class="st3" d="M315.9,230.8l20.1-4l28.1,2.2c0,0-1.3,5.4-2.7,6.5c-4.5,3.2-16.5,1.1-21.9,1.7c-0.7,0.1-2.4,0.7-2.5,1.4
		c-0.6,2.9,7.4,9.5,7.4,9.5l-20.3-2.7L315.9,230.8z"/>
	<path class="st3" d="M321.7,234l-6.3,20.1l41.8,17L405,272c0,0-1.3-6.5-2.8-8c-8.1-7.4-32-7.8-42.5-11
		C348.2,249.5,321.7,234,321.7,234z"/>
	
		<ellipse transform="matrix(0.9967 -8.072378e-02 8.072378e-02 0.9967 -18.5433 26.4929)" class="st3" cx="318.4" cy="242.6" rx="12" ry="12.1"/>
	<path class="st3" d="M184.7,196.8c4.3-13,16.8-18.4,29.8-14.6c0.3,0.1,5.9,2.3,5.9,2.3l95.1,47.5c0,0,8.1,2.7,4.9,11.7
		c-2.9,8.1-12,5.1-12,5.1l-97.9-19.5c-11.3-2.2-21.9-6.8-26.6-17.3C182,207.6,183.4,200.8,184.7,196.8z"/>
	<path class="st4" d="M198.1,232v-0.1l0.8,0.3l0.2,0.1L198.1,232z"/>
	<path class="st5" d="M392.4,79.7l-17.7,69.9l-135.4,21.1l-17-89.8c-0.3-1.5,0.5-2.9,1.9-3.5L282.8,52l49.1,1l58.6,23
		C392,76.6,392.8,78.2,392.4,79.7z"/>
</g>
<path class="st4" d="M483.4,162.4l-0.1-0.1c0.1-0.2,0.3-0.4,0.4-0.6l0.1-0.1L483.4,162.4z"/>
<path class="st4" d="M198.1,232v-0.1l0.8,0.3l0.2,0.1L198.1,232z"/>
</svg>
