<svg xmlns="http://www.w3.org/2000/svg" viewBox="0 0 588 550"><defs><style>.cls-1{fill:#904c3d;}.cls-2{fill:#b26959;}.cls-3{fill:#5e574f;}.cls-4{fill:#3a61a7;}</style></defs><g id="Calque_3" data-name="Calque 3"><polygon class="cls-1" points="199.28 158.66 265.1 130.59 264.44 100.66 304.85 100.66 304.62 130.59 367.65 158.66 351.98 201.09 216.41 198.71 199.28 158.66"/><polygon class="cls-1" points="304.85 114.29 265.33 114.29 265.33 161.66 285.74 179.14 304.85 161.66 304.85 114.29"/><path class="cls-2" d="M136.66,271.46h0a17.66,17.66,0,0,0,25.11-2.59l54.68-58.2L199.31,158.4,177.91,194l-43.56,52.65A17.66,17.66,0,0,0,136.66,271.46Z"/><path class="cls-2" d="M367.69,158.4l26.53,28.24,58.6,50.08a18.68,18.68,0,0,1,2.72,25.51h0a18.67,18.67,0,0,1-25.9,3.74L352,215.8Z"/><path class="cls-2" d="M440.29,266.73c10.64,3.53,15.78-6.16,19.06-15.1,2.34-6.37,18.72-70.45,23.4-87.81,2.65-9.81,4.32-15-1.35-17.07-5.15-1.93-12.28,12.18-14.51,15.62-20.93,32.35-26.95,46.74-41.37,77.14C417.38,256.67,436.63,265.52,440.29,266.73Z"/><path class="cls-2" d="M486.45,117.39a82,82,0,0,0,9.77-12.86s2.3,4.37,2,7c-.28,2.13-5.49,11.22-5.49,11.22h0C518,108.62,545.24,95,548.18,94.27c2.09-.51,8,2.3,8,2.3s-23.94,14.25-30.39,18.67c-22,15-34.39,29.6-41.17,42.84-1.19,2.33-15.07-.19-13-5.29.73-1.78-.46-12,1.29-14.73C479.89,127.24,486.17,117.69,486.45,117.39Z"/><path class="cls-2" d="M147.71,271.84c-10.64,3.53-15.78-6.16-19.06-15.1-2.34-6.37-18.72-70.45-23.4-87.81-2.65-9.81-4.32-15,1.35-17.07,5.15-1.93,12.28,12.18,14.51,15.62,20.93,32.35,27,46.74,41.37,77.14C170.62,261.78,151.37,270.63,147.71,271.84Z"/><path class="cls-2" d="M101.55,122.5a82,82,0,0,1-9.77-12.86s-2.3,4.38-2,7c.28,2.13,5.49,11.22,5.49,11.22h0c-25.26-14.13-52.55-27.75-55.49-28.48-2.09-.51-7.95,2.31-7.95,2.31s23.94,14.24,30.39,18.66c22,15.05,34.39,29.6,41.17,42.84,1.19,2.33,15.07-.19,13-5.29-.73-1.78.46-12-1.29-14.72C108.11,132.35,101.83,122.8,101.55,122.5Z"/><path class="cls-1" d="M264.91,101.88l41.58-.29.56,12.17c-9.21,11.39-17.22,16.83-24.19,16.78-5.26,0-13.5-10.11-18.82-14.1l.08-2Z"/><path class="cls-3" d="M201.66,451.57l13.12-124.86-3.45-6.83,5.56-18.67L209.15,222l-10.1-64.32,61-26.37,25.5,48.32h6.17l17.37-47.34,58.82,25.39c0,3-7.36,60.67-7.36,63.64,0,1.78-8.49,57.44-8.67,79.48,0,3.16,6.62,19.11,6.62,19.11l-6.84,7.86,18.76,128.05"/><polygon class="cls-4" points="357.03 359.43 209.9 357.4 214.78 326.71 352.07 326.71 357.03 359.43"/></g></svg>