<?xml version="1.0" encoding="utf-8"?>
<!-- Generator: Adobe Illustrator 26.0.1, SVG Export Plug-In . SVG Version: 6.00 Build 0)  -->
<svg version="1.1" id="Calque_1" xmlns="http://www.w3.org/2000/svg" xmlns:xlink="http://www.w3.org/1999/xlink" x="0px" y="0px"
	 viewBox="0 0 588 350.8" style="enable-background:new 0 0 588 350.8;" xml:space="preserve">
<style type="text/css">
	.st0{fill:#375D63;}
	.st1{fill:#B26959;}
	.st2{fill:#A56156;}
	.st3{fill:#AC9D7C;}
	.st4{fill:#D39844;}
</style>
<g>
	<path class="st0" d="M381.8,317.3c-23.3,2.5-44.5,10-69.8,18.3c0,0-11.5,0.5-10.8-0.1l-70.8-16.6l5.9-58.4
		c1.1-10.7,10.1-18.8,20.8-18.8H357c11,0,20.1,8.5,20.8,19.4L381.8,317.3z"/>
	<path class="st1" d="M184.2,63.3c2.2-1.9,6.7-19.8,8-22.1s13.6-26.7,12.3-26.9s-8,1.6-8,1.6l-10.1,15.5l-8-28.2
		c0,0-9.1-36-10.2-34.8c-1.9,1.7-4,3.3-6.1,4.7l6,32.4l-16.3,25.6c0,0,6.6,21.5,9,24.8c0.7,1,5.1,9.1,8.9,8.6
		C172,64.2,184.2,63.3,184.2,63.3z"/>
	<rect x="286.4" y="0" class="st2" width="39.5" height="47.4"/>
	<path class="st3" d="M159.2,191.4L159.2,191.4c7.5,6.2,18.6,5.2,24.9-2.3c0.1-0.1,0.2-0.2,0.2-0.3l54.7-58.2l-17.1-52.3l-21.4,35.6
		l-43.6,52.6C150.7,174.1,151.7,185.2,159.2,191.4z"/>
	<path class="st3" d="M390.7,78.4l20.8,32.7l48.2,60.1c6.2,7.7,5.3,18.9-2.1,25.6l0,0c-7.6,6.8-19.2,6.3-26.2-1.1l-56.7-60.8
		L390.7,78.4z"/>
	<path class="st3" d="M410.2,298.8l-20-10.8l1.8-8.5l-2-4.6l11.1-11.2l26.4-81l4.3-7.7c4.6-8.2,14.7-11.6,23.3-7.7l0,0
		c9.2,4.1,13.2,14.9,9.1,24c-0.1,0.3-0.3,0.7-0.5,1l-42.5,80.2c0,0-0.1,17.3-0.9,17.1s-5.5,2.5-5.5,2.5L410.2,298.8z"/>
	<path class="st3" d="M151.8,177.7l12.4-92.4l-5-8.4l4-10.5l24.8-7.7l1.8,11.1l2.9,1.7L186.1,88c0,0,3.4,75,3,77.8
		s-1.5,15.1-1.5,15.1l-0.5,1.7c-2.3,8.4-10.3,13.9-18.9,13.1l0,0c-8.7-0.8-15.6-7.8-16.3-16.5L151.8,177.7z"/>
	<path class="st4" d="M390.7,78.4c0,3-15.9,53.5-15.9,56.5s-0.6,78.6-0.6,78.6l18.8,128c1.5,10-5.4,19.2-15.4,20.7
		c-0.1,0-0.2,0-0.2,0s-53.1,10.1-71,9.5c-17.3-0.7-67.8-14.4-67.8-14.4c-9.2-2-15.4-10.6-14.3-20l15.4-128.2l-0.7-78.4l-17.1-52.3
		l61-26.4l2.5-17.7l44.5,0.4l2,18.3L390.7,78.4z"/>
	<path class="st1" d="M368.1,313.1c0,0-2.8-3.3-2.2-4.2s12-13.3,12.9-13.3s15-5.7,16-6.3s16.4,5.6,16.2,6.4s-5.7,25.1-7.1,26.1
		s-5.7,6.6-6.6,6.6s-21.9-6-21.9-6l-9.5-13.5L368.1,313.1z"/>
</g>
</svg>
