<?xml version="1.0" encoding="utf-8"?>
<!-- Generator: Adobe Illustrator 26.0.1, SVG Export Plug-In . SVG Version: 6.00 Build 0)  -->
<svg version="1.1" id="Calque_1" xmlns="http://www.w3.org/2000/svg" xmlns:xlink="http://www.w3.org/1999/xlink" x="0px" y="0px"
	 viewBox="0 0 788 1005.1" style="enable-background:new 0 0 788 1005.1;" xml:space="preserve">
<style type="text/css">
	.st0{fill:#A56156;}
	.st1{fill:#B26959;}
	.st2{fill:#FFA608;}
</style>
<rect x="387.9" y="169.5" class="st0" width="39.5" height="47.4"/>
<path class="st1" d="M259.2,360.9L259.2,360.9c7.5,6.2,18.6,5.2,24.9-2.3c0.1-0.1,0.2-0.2,0.2-0.3l54.7-58.2l2.8-9.1l-11.4-45.4
	l-5.6,1.6l-24.3,36.2L256.9,336C250.7,343.6,251.7,354.7,259.2,360.9z"/>
<path class="st1" d="M490.5,248.7l21,31.9l48.2,60.1c6.2,7.7,5.3,18.9-2.1,25.6l0,0c-7.6,6.8-19.2,6.3-26.2-1.1l-56.7-60.8
	l-6.1-13.4l9.6-45.4L490.5,248.7z"/>
<path class="st1" d="M598.5,278.7l-60.9,59.7l-5,7.3c-5.3,7.8-3.8,18.4,3.5,24.3l0,0c7.7,6.4,19.2,5.3,25.6-2.5
	c0.2-0.3,0.5-0.6,0.7-0.9l53-73.5"/>
<polyline class="st1" points="609.2,301.3 632.9,269.5 616.8,259 594.2,283.4 "/>
<path class="st1" d="M357.1,382.9l-18-82.4c0-0.2-0.1-0.4-0.1-0.5l-15.4-47.1c-0.9-2.7,0.5-5.7,3.2-6.8l56.8-22.6
	c1.4-0.6,2.5-1.7,3.1-3.1h0c0.8-2.1,2.8-3.5,5.1-3.5h32.1c2.2,0,4.2,1.4,5.1,3.4l0,0.1c0.5,1.4,1.6,2.4,3,3l54.6,22.7
	c2.5,1.1,3.9,3.8,3.2,6.5c-3.6,13.2-14.8,49.3-14.8,51.8c0,3-11.9,80-11.9,80"/>
<path class="st1" d="M178.4,265.7L190,255l21.1,20l0,0l62.5,58l5.2,7.1c5.5,7.6,4.3,18.2-2.8,24.4l0,0c-7.6,6.6-19,5.8-25.6-1.7
	c-0.3-0.3-0.5-0.6-0.7-0.9l-53.2-75.3L178.4,265.7z"/>
<path class="st1" d="M178.4,265.7c1.6-0.5,10.3-7.5,10.3-7.5l6.9-17.4c0,0,0.4-5.5,0.3-7.4s0.3-15.2,0.3-15.2l5.4-11.4l-8,0.3
	l-4.3,7l-3.2,10.9l-8.7-11.1l-10.4,1l-15.2,19.8l7.6,17.4L178.4,265.7z"/>
<path class="st1" d="M629.7,272.5c-1.6-0.5-10.5-7.2-10.5-7.2l-7.4-17.1c0,0-0.6-5.5-0.5-7.4s-0.7-15.2-0.7-15.2l-5.7-11.2l8,0.1
	l4.5,6.9l3.5,10.7l8.4-11.3l10.4,0.8l15.7,19.4l-7.1,17.6L629.7,272.5z"/>
<path class="st2" d="M339,300.1l48.9-83.2h39.5l47.3,87.5l-1.3,74c-0.7,3.5,0.6,15.6,1.5,19.1l17.6,112.3c0.4,2.1,4.5,28.7,2.3,28.7
	l-168-22.9c-2.1,0-5.1-4.7-4.7-6.7l15.2-108c1-3,2.5-17.9,1.9-21L339,300.1z"/>
<path class="st1" d="M351.6,266.1c0,11.6-9.4,21-21,21s-33.2,18.1-33.2,6.5s18.9-51.7,39.4-50C348.2,244.6,351.6,254.5,351.6,266.1z
	"/>
<path class="st1" d="M462.7,266.9c0,11.6,9.4,21,21,21s33.2,18.1,33.2,6.5s-18.9-51.7-39.4-50C466,245.4,462.7,255.3,462.7,266.9z"
	/>
</svg>
