<svg xmlns="http://www.w3.org/2000/svg" viewBox="0 0 788 1005"><defs><style>.cls-1{fill:#3c3d4e;}.cls-2{fill:#c29433;}.cls-3{fill:#c35959;}.cls-4{fill:#b26959;}.cls-5{fill:#904c3d;}.cls-6{fill:#b7267d;}.cls-7{fill:#f2c343;}.cls-8{fill:none;stroke:#000;stroke-miterlimit:10;stroke-width:0.25px;opacity:0.55;}.cls-9{fill:#3d3d3d;}</style></defs><g id="Calque_3" data-name="Calque 3"><polygon class="cls-1" points="219.32 488.54 219.42 488.5 219.32 488.45 219.32 488.54"/><polygon class="cls-1" points="219.42 488.5 219.52 488.54 219.52 488.45 219.42 488.5"/><polygon class="cls-1" points="219.32 488.54 219.42 488.5 219.32 488.45 219.32 488.54"/><polygon class="cls-1" points="219.42 488.5 219.52 488.54 219.52 488.45 219.42 488.5"/><polygon class="cls-1" points="218.94 488.88 219.03 488.84 218.94 488.79 218.94 488.88"/><polygon class="cls-1" points="219.03 488.84 219.13 488.88 219.13 488.79 219.03 488.84"/><polygon class="cls-1" points="218.94 488.88 219.03 488.84 218.94 488.79 218.94 488.88"/><polygon class="cls-1" points="219.03 488.84 219.13 488.88 219.13 488.79 219.03 488.84"/><polygon class="cls-2" points="270.25 419.96 325.06 395.95 357.65 294.42 294.13 326.83 291.38 346.56 270.25 419.96"/><path class="cls-3" d="M450.57,272.1c0,14.86-20,42.89-34.89,42.89s-14.85-53.77,0-53.77S450.57,257.25,450.57,272.1Z"/><path class="cls-4" d="M305.14,293.1l-34.49,50.78L268,347.29a14.41,14.41,0,0,1-19.32,3.08h0A14.41,14.41,0,0,1,243.25,333l2.26-5.63s19-40.49,23.7-54.61c5.76-17.31,16.83-71,46.46-56.23h0c10.8,5.38,19.45,19.18,13.62,29.75Z"/><path class="cls-4" d="M254.51,352.8h0a17,17,0,0,0,14.93-9.86,10.38,10.38,0,0,0,.81-1.77c1.87-10.07-.53-30.88-2.63-40.91-4.89-23.3-26.86-93-26.86-93h0a9.9,9.9,0,0,0-12.57-4.9l-1.07.43a9.88,9.88,0,0,0-6,11.18c.17.85.32,1.63.4,2.23,1.52,10.52,6.21,79,8,93.22,1.05,8.3,6.36,24.43,10.21,31.85C241.86,345.46,248.92,353,254.51,352.8Z"/><path class="cls-4" d="M241.3,215.44s1.07,16.56-4,15.43l-1.87-.42-40.7-10.62-46.15-22.3,6.78-5.76,7.9.42,33,13.41L210,202.18l-15.65-20.72,6-5.28L217.77,192l16.13,9.95Z"/><path class="cls-4" d="M450.32,254.38l2.25,19-17.39,78.14,8.6,36.16-122,.5,9.39-36.66L311.6,273.09l2.75-19.46-17.71-38.25L349.86,194a21.11,21.11,0,0,0,13.26-19.6V161.12h40v13A21.11,21.11,0,0,0,416.91,194l53.37,19.67Z"/><path class="cls-5" d="M363.19,161.12h40v11h0c-9,11.39-14.9,16.43-21.7,16.38-5.13,0-13.16-10.1-18.35-14.1l.07-2Z"/><path class="cls-6" d="M330.07,355.05l-2.91,12.07H437.25l3.81-15.64,15-75.64-2.26-21.36-68.36,0-68.35-.81-4.46,23.82,17.61,70.4A13.44,13.44,0,0,1,330.07,355.05Z"/><polygon class="cls-7" points="346.57 195.33 286.07 212.34 284.06 216 263.27 255.44 289.58 273.03 270.25 419.96 301.91 411.19 346.57 195.33"/><polyline class="cls-7" points="466.87 409.12 461.07 406.8 420.61 195.32 470.7 207.29 493.92 419.95 466.87 409.12"/><path class="cls-4" d="M474.35,291.88l40.34,46.26,3.08,3.06a14.43,14.43,0,0,0,19.56.74h0a14.42,14.42,0,0,0,3.25-17.89l-2.92-5.32s-23.74-37.9-30.1-51.36c-7.79-16.48-25.25-68.45-52.89-50.22h0c-10.07,6.64-17,21.38-9.94,31.17Z"/><polyline class="cls-8" points="301.91 411.19 301.91 368.23 317.07 287.87 314.35 275.56 327.87 202.84"/><polyline class="cls-8" points="466.87 409.12 466.87 368.23 451.7 287.87 454.43 275.56"/><polygon class="cls-9" points="371.69 300.23 428.86 425.02 524.02 382.49 485.73 253.67 371.69 300.23"/><path class="cls-4" d="M538.86,328.4h0a18,18,0,0,1-1.23,16.05,9.57,9.57,0,0,1-.88,1.44c-6,6.05-20.56,13.72-27.92,16.68-17.1,6.88-70.83,21.77-70.83,21.77h0c-3.88.39-7.23-2.87-7.67-7.48l-.1-1c-.4-4.25,1.8-8.37,5.24-9.77.63-.26,1.19-.5,1.62-.71,7.48-3.64,54.34-31.36,64.33-36.46,5.85-3,18.36-6.25,24.62-6.67C529.55,322,537,324,538.86,328.4Z"/><polygon class="cls-4" points="432.51 367.66 414.57 359.16 395.54 357.68 399.17 364.58 408.2 367.08 412.45 371.74 401.21 373.91 399.58 365.58 394.23 365.71 386.8 378.78 394.51 403.02 411.38 406.09 437.26 387.73 444.98 383.82 461.07 376.95 444.16 362.01 437.35 366.11 432.51 367.66"/><polygon class="cls-7" points="452.9 207.2 470.7 207.29 482.81 210.38 514.45 263.11 491.25 272.25 485.73 253.67 444.97 270.31 432.35 228.66 452.9 207.2"/><line class="cls-8" x1="452.86" y1="267.09" x2="440.91" y2="202.84"/></g></svg>