<svg xmlns="http://www.w3.org/2000/svg" viewBox="0 0 588 550"><defs><style>.cls-1{fill:#b26959;}.cls-2,.cls-3{fill:#992314;}.cls-3{stroke:#fff;stroke-miterlimit:10;stroke-width:0.25px;}.cls-4{fill:#904c3d;}</style></defs><g id="Calque_3" data-name="Calque 3"><polygon points="62.3 471.57 62.4 471.53 62.3 471.48 62.3 471.57"/><polygon points="62.4 471.53 62.5 471.57 62.5 471.48 62.4 471.53"/><polygon points="62.3 471.57 62.4 471.53 62.3 471.48 62.3 471.57"/><polygon points="62.4 471.53 62.5 471.57 62.5 471.48 62.4 471.53"/><path class="cls-1" d="M375.81,285l0,0h0L283,231.2v0c-11.83-6.87-15.6-22.21-8.42-34.28s22.62-16.3,34.47-9.43l.51.32,88.83,67.43c8.81,6.88,10.93,17.25,5.64,24.48C398.11,287.85,389.62,293.36,375.81,285Z"/><path class="cls-1" d="M445.11,160.84l10.51-14.13,19.23-14.79s2.29,4.24,2,5.71c-1,4.62-6.41,9.87-9.59,13.36-.43.46-1,3.28-.67,3.83,1.32,2.22,6.55.66,6.55.66l-14.47,10Z"/><path class="cls-1" d="M450.63,159.53,458.2,176l36.47-13.18,31-26.93s-4.57-3.45-6.38-3.47c-9.47-.09-25,13.49-33.51,17.48C476.57,154.23,450.63,159.53,450.63,159.53Z"/><ellipse class="cls-1" cx="453.5" cy="166.94" rx="10.33" ry="10.37" transform="translate(20.75 382) rotate(-46.63)"/><path class="cls-1" d="M376.15,284.09c-11.69-7.44-13.8-21-6.8-32.84.14-.25,3.75-5.18,3.75-5.18l70.19-81.21s4.63-7.25,12.7-1.83c7.25,4.86,2,13,2,13L414.4,267c-5,10.49-12.13,19.75-23.61,21.67C386.14,289.42,379.81,286.41,376.15,284.09Z"/><path class="cls-1" d="M414,279.8l-.12-.07c.15-.22.3-.44.44-.67,0-.05.07-.1.1-.16Z"/><polygon class="cls-1" points="310.08 187.38 293.08 236.03 273.21 293 171.35 291.4 152.29 238.53 135.29 187.38 200.91 156.87 201.81 138.43 244.6 138.43 245.13 156.78 310.08 187.38"/><path class="cls-1" d="M168.73,292.15c0-28.72,27.36-52,53.56-52s49.94,22.87,49.94,51.59-23.74,52.41-49.94,52.41S168.73,320.87,168.73,292.15Z"/><path class="cls-2" d="M166.28,281.61l4.58,48.32a46.67,46.67,0,0,1-1.37,16.47l-18.42,69.06,144.67-2.9-15.21-64a80.82,80.82,0,0,1-2.2-18.46l-.15-38.48a73.86,73.86,0,0,1,4.12-24.65l27.78-79.55-64.95-30.59L221.89,263.93,198.9,176l2-19.15-65.62,30.51,28.54,82.91A49.19,49.19,0,0,1,166.28,281.61Z"/><polygon class="cls-3" points="244.77 146 216.47 263.92 216.53 273.63 223.68 295.25 269.41 225.24 252.55 203.84 269.41 202.26 269.41 167.39 244.77 146"/><polygon class="cls-3" points="201.54 147.04 206.33 192.21 233.7 324.62 180.14 230.25 191.16 207.27 173.01 197.76 166.52 174.78 201.54 147.04"/><path class="cls-1" d="M96.2,304.18s0,0,0,0h0L125.35,201h0c3.73-13.16,17.67-20.61,31.14-16.64s21.38,17.9,17.65,31.07a5.58,5.58,0,0,1-.18.58s-43.36,102.73-43.37,102.74c-4.48,10.24-14,14.86-22.32,11.52C98.92,326.51,91.49,319.64,96.2,304.18Z"/><path class="cls-1" d="M233.61,340.64l16.29,6.69,19.08,15s-3.53,3.27-5,3.32c-4.72.18-12.3-7-16.47-9.27-.55-.29-2.06-.64-2.5-.19-1.83,1.82.75,10.28.75,10.28l-13.24-11.55Z"/><path class="cls-1" d="M236.24,345.66l-14.1,11.42,21.79,32.07,33.76,23.41s2.22-5.28,1.79-7c-2.26-9.2-19.24-20.84-25.23-28.15C247.79,369.48,236.24,345.66,236.24,345.66Z"/><ellipse class="cls-1" cx="229.78" cy="350.28" rx="10.37" ry="10.33" transform="translate(-188.01 381.07) rotate(-60.95)"/><path class="cls-1" d="M97.14,304.3c4.31-13.18,17-18.58,30.14-14.72.27.08,5.94,2.36,5.94,2.36l96.05,47.93s8.16,2.69,4.91,11.86C231.26,360,222,356.84,222,356.84l-98.87-19.71c-11.41-2.28-22.14-6.88-26.83-17.52C94.44,315.29,95.79,308.41,97.14,304.3Z"/><path class="cls-1" d="M110.65,339.91l0-.14.75.27.19,0Z"/><path class="cls-2" d="M153.64,180.36l-12.94,4.5s19,9.06,20.67,34c.9,13.23-2,38.48-2,38.48l19.31-.74L177.26,202,165,184.18Z"/><path class="cls-4" d="M202.5,127.49l41.58-.29.56,12.17c-9.21,11.39-17.21,16.83-24.18,16.77-5.27,0-13.5-10.1-18.83-14.1l.08-2Z"/></g></svg>