<svg xmlns="http://www.w3.org/2000/svg" viewBox="0 0 588 550"><defs><style>.cls-1{fill:#b26959;}.cls-2{fill:#f1a93d;}</style></defs><g id="Calque_3" data-name="Calque 3"><polygon class="cls-1" points="315.72 201.16 298.72 249.8 278.85 306.78 177 305.17 157.93 252.3 140.93 201.16 206.55 170.64 207.46 152.21 250.25 152.21 250.77 170.56 315.72 201.16"/><path class="cls-1" d="M174.38,305.93c0-28.72,27.35-52,53.56-52s49.94,22.87,49.94,51.59-23.74,52.41-49.94,52.41S174.38,334.65,174.38,305.93Z"/><path class="cls-1" d="M381.83,297.76l0,0h0L289.06,244v0c-11.83-6.87-15.6-22.22-8.42-34.28s22.63-16.3,34.47-9.43c.18.1.35.21.51.32L404.46,268c8.81,6.88,10.93,17.25,5.64,24.48C404.13,300.64,395.64,306.14,381.83,297.76Z"/><path class="cls-1" d="M451.13,173.63l10.51-14.13,19.23-14.79s2.29,4.23,2,5.71c-1,4.62-6.41,9.86-9.59,13.35-.43.47-1,3.29-.67,3.83,1.32,2.23,6.55.67,6.55.67l-14.47,10Z"/><path class="cls-1" d="M456.65,172.32l7.57,16.49,36.47-13.19,31-26.92s-4.57-3.45-6.38-3.47c-9.47-.09-25,13.48-33.51,17.48C482.59,167,456.65,172.32,456.65,172.32Z"/><ellipse class="cls-1" cx="459.52" cy="179.72" rx="10.33" ry="10.37" transform="translate(13.34 390.39) rotate(-46.63)"/><path class="cls-1" d="M382.17,296.88c-11.69-7.44-13.8-21-6.8-32.84.14-.25,3.75-5.18,3.75-5.18l70.19-81.21s4.63-7.25,12.7-1.83c7.25,4.86,2,13,2,13l-43.55,90.93c-5,10.49-12.13,19.75-23.61,21.67C392.16,302.21,385.83,299.2,382.17,296.88Z"/><path class="cls-1" d="M420,292.59l-.12-.07c.15-.22.3-.44.44-.67,0-.05.07-.1.1-.16Z"/><path class="cls-2" d="M163.11,265.63l15.19,76.63a18.5,18.5,0,0,1-.55,9.34l-12.34,38h121.9l-7.74-37.73a24.87,24.87,0,0,1-.31-10.62l14.29-75.55-42.4-95.16-44.22.09-43.82,95"/><path class="cls-1" d="M63.61,283.28l0,0h0l73.2-78.3,0,0c9.35-10,25.15-10.23,35.3-.52s10.8,25.71,1.45,35.71c-.14.15-.28.29-.43.43L87.53,312c-8.68,7-19.27,6.78-25.12,0C55.8,304.37,52.34,294.86,63.61,283.28Z"/><path class="cls-1" d="M141.77,400.48l1.84,1.42a15.7,15.7,0,0,0,17,1.6,33.77,33.77,0,0,0,12.51-11.36l9.9-15.88a1.6,1.6,0,0,0-2.18-2.22L151.9,391.29a1.67,1.67,0,0,0-.74,1Z"/><path class="cls-1" d="M157.05,397,149.5,380l22.8-16.66,24.94-14.21s.91,12.6-.43,14.33l-5.66,6C181.6,377.09,157.05,397,157.05,397Z"/><ellipse class="cls-1" cx="147.78" cy="391.71" rx="10.33" ry="10.37" transform="translate(-38.65 16.85) rotate(-5.77)"/><path class="cls-1" d="M66.58,282.12c11.14-8.25,24.6-5.34,33.1,5.42.18.23,3.49,5.37,3.49,5.37l50.63,94.64s5.11,6.93-2.85,12.52c-7.14,5-12.85-2.85-12.85-2.85L68.84,324c-8-8.46-14.09-18.41-11.76-29.81C58,289.53,63.1,284.7,66.58,282.12Z"/><path class="cls-1" d="M60.08,321.66l.1-.1.54.58.14.13Z"/></g></svg>