<?xml version="1.0" encoding="utf-8"?>
<!-- Generator: Adobe Illustrator 26.0.1, SVG Export Plug-In . SVG Version: 6.00 Build 0)  -->
<svg version="1.1" id="Calque_1" xmlns="http://www.w3.org/2000/svg" xmlns:xlink="http://www.w3.org/1999/xlink" x="0px" y="0px"
	 viewBox="0 0 588 350.8" style="enable-background:new 0 0 588 350.8;" xml:space="preserve">
<style type="text/css">
	.st0{fill:#A56156;}
	.st1{fill:#B26959;}
	.st2{fill:#FFA608;}
</style>
<rect x="287.9" class="st0" width="39.5" height="47.4"/>
<path class="st1" d="M159.2,191.4L159.2,191.4c7.5,6.2,18.6,5.2,24.9-2.3c0.1-0.1,0.2-0.2,0.2-0.3l54.7-58.2l2.8-9.1l-11.4-45.4
	l-5.6,1.6l-24.3,36.2l-43.6,52.6C150.7,174.1,151.7,185.2,159.2,191.4z"/>
<path class="st1" d="M390.5,79.2l21,31.9l48.2,60.1c6.2,7.7,5.3,18.9-2.1,25.6l0,0c-7.6,6.8-19.2,6.3-26.2-1.1l-56.7-60.8l-6.1-13.4
	l9.6-45.4L390.5,79.2z"/>
<path class="st1" d="M498.5,109.2l-60.9,59.7l-5,7.3c-5.3,7.8-3.8,18.4,3.5,24.3l0,0c7.7,6.4,19.2,5.3,25.6-2.5
	c0.2-0.3,0.5-0.6,0.7-0.9l53-73.5"/>
<polyline class="st1" points="509.2,131.8 532.9,100 516.8,89.5 494.2,113.9 "/>
<path class="st1" d="M257.1,213.4l-18-82.4c0-0.2-0.1-0.4-0.1-0.5l-15.4-47.1c-0.9-2.7,0.5-5.7,3.2-6.8l56.8-22.6
	c1.4-0.6,2.5-1.7,3.1-3.1v0c0.8-2.1,2.8-3.5,5.1-3.5h32.1c2.2,0,4.2,1.4,5.1,3.4l0,0.1c0.5,1.4,1.6,2.4,3,3l54.6,22.7
	c2.5,1.1,3.9,3.8,3.2,6.5c-3.6,13.2-14.8,49.3-14.8,51.8c0,3-11.9,80-11.9,80"/>
<path class="st1" d="M78.4,96.2L90,85.5l21.1,20l0,0l62.5,58l5.2,7.1c5.5,7.6,4.3,18.2-2.8,24.4l0,0c-7.6,6.6-19,5.8-25.6-1.7
	c-0.3-0.3-0.5-0.6-0.7-0.9l-53.2-75.3L78.4,96.2z"/>
<path class="st1" d="M78.4,96.2c1.6-0.5,10.3-7.5,10.3-7.5l6.9-17.4c0,0,0.4-5.5,0.3-7.4s0.3-15.2,0.3-15.2l5.4-11.4l-8,0.3l-4.3,7
	l-3.2,10.9l-8.7-11.1l-10.4,1L51.8,65.2l7.6,17.4L78.4,96.2z"/>
<path class="st1" d="M529.7,103c-1.6-0.5-10.5-7.2-10.5-7.2l-7.4-17.1c0,0-0.6-5.5-0.5-7.4s-0.7-15.2-0.7-15.2l-5.7-11.2l8,0.1
	l4.5,6.9l3.5,10.7l8.4-11.3l10.4,0.8l15.7,19.4l-7.1,17.6L529.7,103z"/>
<path class="st2" d="M239,130.6l48.9-83.2h39.5l47.3,87.5l-1.3,74c-0.7,3.5,0.6,15.6,1.5,19.1l17.6,112.3c0.4,2.1,4.5,28.7,2.3,28.7
	l-168-22.9c-2.1,0-5.1-4.7-4.7-6.7l15.2-108c1-3,2.5-17.9,1.9-21L239,130.6z"/>
<path class="st1" d="M251.6,96.6c0,11.6-9.4,21-21,21c-11.6,0-33.2,18.1-33.2,6.5s18.9-51.7,39.4-50C248.2,75.1,251.6,85,251.6,96.6
	z"/>
<path class="st1" d="M362.7,97.4c0,11.6,9.4,21,21,21c11.6,0,33.2,18.1,33.2,6.5s-18.9-51.7-39.4-50C366,75.9,362.7,85.8,362.7,97.4
	z"/>
</svg>
