<?xml version="1.0" encoding="utf-8"?>
<!-- Generator: Adobe Illustrator 26.0.3, SVG Export Plug-In . SVG Version: 6.00 Build 0)  -->
<svg version="1.1" id="Calque_1" xmlns="http://www.w3.org/2000/svg" xmlns:xlink="http://www.w3.org/1999/xlink" x="0px" y="0px"
	 viewBox="0 0 388 507.7" style="enable-background:new 0 0 388 507.7;" xml:space="preserve">
<style type="text/css">
	.st0{fill:#227287;}
	.st1{fill:#A85B3B;}
	.st2{fill:#87B6C7;}
	.st3{fill:#6C9AAB;}
	.st4{fill:none;stroke:#000000;stroke-width:3;stroke-miterlimit:10;}
	.st5{fill:#614652;}
	.st6{fill:#699AAB;}
	.st7{fill:#473415;}
	.st8{fill:none;stroke:#699AAB;stroke-width:2;stroke-linecap:round;stroke-miterlimit:10;}
	.st9{fill:none;stroke:#669AAB;stroke-width:2;stroke-linecap:round;stroke-miterlimit:10;}
	.st10{fill:none;stroke:#4F3742;stroke-miterlimit:10;}
</style>
<path class="st0" d="M77.2,233.9c3.3,12.1,15.6,20,29,18.7l0,0c12.8-1.3,22.7-10.7,23.8-22.6c0,0,4.7-84,1.8-113.6
	c-0.7-7-5.6-27.7-5.6-27.7l-11.6-48.1c0,0-6.8-22.5-33.4-22.3c-30.6,0.2-29.5,15.4-29.5,15.4s-2.4,74.3,0.7,98.8
	C55.2,155.2,77.2,233.9,77.2,233.9z"/>
<path class="st1" d="M83.2,214.6c-13.8,1.8-21,9.4-21.7,20.2c0,0,1.6,51.7,3.8,71.6c3.5,32,18.3,92.6,28.4,123.4
	c2.2,6.7,7.7,27.2,7.7,27.2c1.7,6.1,8.2,10,14.9,8.9l0,0c6.6-1,11.3-6.5,10.9-12.7c0,0-1.9-24.2-2-32.3
	c-0.4-29.3,3.2-88.2,0.2-117.4c-1.8-17.6-12.6-70.8-12.6-70.8C109,215.3,95,213.4,83.2,214.6z"/>
<path class="st2" d="M113.1,449.5L113.1,449.5c-5.9,0-11.3,3.2-14.2,8.4l0,0c-5.9,11.4-30.7,26.6-30.7,26.6c-4.4,3-6.6,8.3-5.6,13.5
	l0,0h60.3l3.4-0.9c3.8-0.9,6.3-4.4,6.1-8.3L129,461C127.3,454.1,120.7,449.3,113.1,449.5z"/>
<path class="st3" d="M64.3,497.7L64.3,497.7c-0.8-4.6,2.6-8.9,7.6-9.6l35.9-4.9c4.4-0.7,8.7,2,10,6.3l2,7.9L64.3,497.7z"/>
<path class="st4" d="M152.3-7.9c16.1,4.3,23.2,7.9,27,13.6c3.1,4.6,6,15.2,6.3,20.4c0.5,12.4-7.8,43.4-21.9,53.8
	c-14.4,10.6-84.8,10.6-99.2,0C50.4,69.5,42,38.5,42.6,26.1c0.2-5.3,3.2-15.8,6.3-20.4c3.8-5.7,10.9-9.3,27-13.6
	c18.5-4.9,37.3-4.1,37.3-4.1S133.9-12.8,152.3-7.9z"/>
<path class="st5" d="M361.2,54.5c12.6,4.2,20,16.4,17.2,28.5l0,0c-2.6,11.6-13.8,19.9-26.6,19.8c0,0-90.7-3.8-122.2-9.5
	C221.9,92,150,70.2,150,70.2s-22.4-2.7-20.7-33c1.6-27,19.4-25.7,19.4-25.7s79.1,4.9,105.2,10C277.8,26.3,361.2,54.5,361.2,54.5z"/>
<path class="st1" d="M377,74.6c6.1,10,3.7,19.2-5.3,26.1c0,0-40,35.4-58.4,45.8c-29.6,16.8-95.9,37.6-128.1,49.4
	c-7,2.6-27.9,11.2-27.9,11.2c-6.2,2.5-13.2,0.6-16-4.3l0,0c-2.8-4.9-0.7-11.2,4.9-14.6c0,0,22-13.2,29.1-18
	c25.6-17.2,74.4-54.5,101.3-70c16.2-9.3,68.2-34,68.2-34C361.9,58.3,371.4,66.3,377,74.6L377,74.6z"/>
<path class="st1" d="M167.6,199.2c-33.9,2.9-34.1,49.3-34.1,49.3c-2.9,4.5-30.3-58.9-26.2-59.1c0,0,51.8-4.9,64.5-8.7
	C180.8,178,187.6,197.5,167.6,199.2z"/>
<path class="st2" d="M154.7,195.7c3,5.6,7.5,4.6,10.4,6.7c1.7,1.2,4.2,6.8,2.3,7.9c-21.1,12.5-27.2,60.4-27.2,60.4
	c-3.1,5.4-8.2,7.1-13.8,6.8l0,0c0,0-14.9-39.1-7.4-62.4c1.5-4.7-4.2-7.9-4.2-7.9s-6.6-20.1,0.3-19.8l42-7.4
	C164.7,180.7,149.6,186.1,154.7,195.7z"/>
<path class="st6" d="M126.3,277.8c9-0.3,14-5.6,13.5-7.2c-0.6-2.3-3.2-5.7-4-7.9c-1.2-3.6-1.8-14.7-1.8-14.7
	c-0.1-2.9-3.4-4.8-7.8-4.5l-8.6,0.8c0,0-0.1,6.8,4.7,22.4C123.3,269.3,126.3,277.8,126.3,277.8z"/>
<polygon class="st7" points="34.7,48 36.2,27.2 191.2,27.2 193.2,45.3 "/>
<path class="st8" d="M96,466.6c0,0,4.8-3.1,8.9-3.1c3.5,0.2,6.9,1.2,10,2.9"/>
<path class="st9" d="M159.3,220.9c0,0-2.7-4.4-3.3-8"/>
<path class="st9" d="M155.1,226.7c0,0-3-4.3-3.9-7.8"/>
<polygon class="st10" points="127.8,83.7 122.8,46.7 137.9,46.7 136.9,76.6 "/>
<path class="st0" d="M36.2,27.2c0,0,58-10,148.6-13.2c69.7-2.4,179.6,32.1,188.8,43.1s15.8,36.3,6.8,41
	c-30.3,15.8-72.9,71.1-99.7,82.4c-65.9,27.9-79.4,9.7-87.5,12.6s-12.6,4.7-12.6,4.7l-16.7-20.2c0,0,16.8-9.5,16.7-10.9
	c-0.1-0.9,13.4-22.4,29.8-44.2c9.6-12.9,27.1-19.7,37.3-19.7c0,0-59.9,30.1-135.6-9.6C72.3,72.4,36.2,27.2,36.2,27.2z"/>
<path class="st0" d="M39.5,18.4c-1.3,2.1-9.6,65.9-10.5,111.9S8.2,339,34.2,368.8s59.2,61,59.2,61l4.2,18.2
	c8.6-3.4,29.7-5.9,29.7-5.9l-1.8-14.4c4.6-7.2,29.9-67.4,25.1-97.2s-16-16.3-23.3-53.3s-4.7-89.3-4.7-89.3
	c17.5-23.1,16.1-61,24.7-80.6s1.1-91.7-7-91.1S46.3,7,39.5,18.4z"/>
<path class="st0" d="M39.3,63c-1.3-2.1-4.6-15-4.6-15S34,24.2,39.3,11.5s38.8-26.2,83.3-23.5s54.1,11.8,61.6,20.7s0.5,19.2-1.5,20.1
	S42.1,75.8,39.3,65.2"/>
</svg>
