<?xml version="1.0" encoding="utf-8"?>
<!-- Generator: Adobe Illustrator 26.0.3, SVG Export Plug-In . SVG Version: 6.00 Build 0)  -->
<svg version="1.1" id="Calque_1" xmlns="http://www.w3.org/2000/svg" xmlns:xlink="http://www.w3.org/1999/xlink" x="0px" y="0px"
	 viewBox="0 0 788 1005" style="enable-background:new 0 0 788 1005;" xml:space="preserve">
<style type="text/css">
	.st0{fill:none;}
	.st1{fill:#A85B3B;}
	.st2{fill:#E2B440;}
	.st3{fill:#D1A33D;}
	.st4{fill:#B22947;}
	.st5{fill:#944E31;}
	.st6{fill:none;stroke:#D1A33D;stroke-width:4;stroke-linecap:round;stroke-miterlimit:10;}
</style>
<path class="st0" d="M432.8,397c15.7,4.3,22.5,7.9,26.2,13.5c3,4.6,5.8,15.1,6.1,20.3c0.5,12.3-5.6,56.6-19.8,69.2
	c-14.4,12.9-84.8,12.9-99.2,0c-14.1-12.6-20.3-56.9-19.8-69.2c0.2-5.2,3.1-15.8,6.1-20.3c3.7-5.7,10.6-9.3,26.2-13.5
	c17.9-4.9,36.2-4.1,36.2-4.1S414.9,392.1,432.8,397z"/>
<path class="st1" d="M336.9,632.3c-13.9-0.2-22.3,6.7-24.9,18.2c0,0-7.1,55.4-8.3,77c-1.9,34.7,2.5,101.6,7.2,136
	c1,7.5,3,30.3,3,30.3c0.7,6.8,6.4,11.9,13.2,11.8l0,0c6.7-0.1,12.2-5.2,12.9-11.8c0,0,2.2-26.1,3.5-34.8c4.6-31.3,18-93.5,20-125.1
	c1.2-19-0.5-77.5-0.5-77.5C362.3,637.1,348.8,632.9,336.9,632.3z"/>
<path class="st2" d="M326.4,885.8L326.4,885.8c-6.1,0.1-11.5,3.7-14.1,9.2l0,0c-5.9,12.4-30.5,28.9-30.5,28.9
	c-4.4,3.5-6.6,9.1-5.5,14.6l0,0l60.3-0.3l3.4-1c3.9-1.2,6.4-5,6-9l-3.5-30C340.7,890.7,334,885.5,326.4,885.8z"/>
<path class="st3" d="M277.9,938.1L277.9,938.1c-0.8-4.9,2.5-9.5,7.4-10.3h0.1l35.8-5.5c4.6-0.7,9,2.2,10.1,6.8l2.1,8.5L277.9,938.1z
	"/>
<path class="st4" d="M428.6,396.5c15,4.3,21.5,7.9,25,13.5c2.9,4.6,5.5,15.1,5.8,20.4c0.5,12.3-5.4,56.5-18.9,69.1
	c-13.8,12.9-81.1,12.9-94.8,0c-13.5-12.6-19.4-56.8-18.9-69.1c0.2-5.2,3-15.8,5.8-20.4c3.5-5.7,10.1-9.3,25-13.5
	c17.1-4.9,34.6-4.1,34.6-4.1S411.5,391.6,428.6,396.5z"/>
<path class="st4" d="M475.8,649.6c-1.2,13.4-12.1,23.8-25.5,24.4l0,0c-12.8,0.6-24.3-7.9-27.3-20.3c0,0-18.9-88.8-20.9-120.8
	c-0.5-7.9,3.8-89.8,3.8-89.8s-2.7-18.3,28.4-23.7c27.8-4.8,22.4,7.3,22.4,7.3s25.4,95.5,26.5,122.1
	C484.3,573.3,475.8,649.6,475.8,649.6z"/>
<path class="st5" d="M452.7,632.3c12.4-0.2,19.9,6.7,22.2,18.2c0,0,14.4,53.4,15.5,75c1.7,34.7-10.3,103.6-14.5,138
	c-0.9,7.5-2.7,30.3-2.7,30.3c-0.6,6.8-5.7,11.9-11.8,11.8l0,0c-6-0.1-10.9-5.2-11.5-11.8c0,0-2-26.1-3.1-34.8
	c-4-31.3-16-93.5-17.9-125.1c-1.1-19,0.4-77.5,0.4-77.5C430.1,637.2,442.1,632.9,452.7,632.3L452.7,632.3z"/>
<path class="st1" d="M475.7,881.9c-1.2,34,40.1,38.4,40.1,38.4c4.4,3.5-67,21.8-66.6,17.8c0,0,1.5-52-1-65.2
	C446.4,863.6,476.4,861.9,475.7,881.9z"/>
<path class="st2" d="M462.9,900.8c6.4-2.2,5.9-6.8,8.5-9.4c1.5-1.5,7.9-3.2,8.8-1.2c10.7,22.7,61.2,35.4,61.2,35.4
	c5.4,3.8,6.6,9.1,5.5,14.6l0,0c0,0-43.8,9.4-67.8-1.3c-4.8-2.2-9,3.1-9,3.1s-22.4,3.7-21.2-3.1l-2.5-42.7
	C448.1,888.7,451.9,904.5,462.9,900.8z"/>
<path class="st3" d="M546.9,940.1c0.8-9-4.3-14.7-6-14.4c-2.5,0.3-6.5,2.4-9,2.8c-4,0.7-16-0.3-16-0.3c-3.1-0.3-5.6,2.8-5.9,7.1
	l-0.2,8.6c0,0,7.3,1,24.6-1.6C537.4,941.9,546.9,940.1,546.9,940.1z"/>
<path class="st4" d="M325.4,443.9l-43.9,383.4c-0.8,6.6,3,12.9,9.1,15.5l10.7,4.4c5,2.1,8.5,6.7,9.1,12l1.3,10.8
	c0.2,2,2,3.5,4.1,3.3l25.7-2.3c1.7-0.2,3.1-1.5,3.4-3.1l2.3-14.4c0.7-4.3,3.2-8,6.8-10.3l9.9-6.2c3.8-2.4,6.4-6.4,6.9-10.9
	L405.1,533l8.7-84.6c0.9-8.7-5.8-16.3-14.5-16.4l-58.5-1.2C332.8,430.6,326.3,436.3,325.4,443.9z"/>
<path class="st4" d="M402.4,411.8c-2.2-0.1-4.1,1.6-4.1,3.9l1.6,103.1l12.8,309.4c0.3,7.4,4.4,14.2,10.8,18l11,6.4
	c4.1,2.4,7.1,6.4,8.1,11.1l3,13.6c0.4,1.9,2.2,3.2,4.1,3l22.4-2.3c1.8-0.2,3.3-1.7,3.4-3.5l1.2-14.5c0.4-4.7,3.1-9,7.2-11.4
	l13.1-7.7c11.5-6.7,17.9-19.5,16.5-32.7l-35.1-281c-0.1-0.6-25.9-10.9-7.3-9.9l-65.9-103.9C404.6,412.5,403.5,411.9,402.4,411.8
	L402.4,411.8z"/>
<path class="st6" d="M309.5,904.3c0,0,4.7-3.4,8.9-3.3c5.1,0,10,3.1,10,3.1"/>
<path class="st6" d="M490.6,900c0,0-5.1,2.1-9,2.2"/>
<path class="st6" d="M496.3,905c0,0-5,2.4-8.9,2.7"/>
<path class="st4" d="M322.1,482.9c0,0-66.6,258.2-60.7,277.6s13.4,32.9,16.8,50.6s6.7,27.8,10.1,27.8s58.2-10.1,58.2-10.1
	l14.3-106.3l-6.7-81L322.1,482.9z"/>
<path class="st4" d="M456.7,454.3c0,0,82.2,270,76.3,289.4c-5.9,19.4-8.4,5.9-11.8,23.6c-3.4,17.7-7.2,56.9-10.6,56.9
	S452.9,785,452.9,785l-14.3-106.3l6.7-81L456.7,454.3z"/>
<path class="st4" d="M370.1,738.3c0-1.1,21.4-61.9,24.7-60.7c3.4,1.1,4.5-2.2,5.6,0.4c1.1,2.6,21,67.9,21,67.9l-12.3-217.2
	l-22.1-1.5L370.1,738.3z"/>
</svg>
