<?xml version="1.0" encoding="utf-8"?>
<!-- Generator: Adobe Illustrator 26.0.3, SVG Export Plug-In . SVG Version: 6.00 Build 0)  -->
<svg version="1.1" id="Calque_1" xmlns="http://www.w3.org/2000/svg" xmlns:xlink="http://www.w3.org/1999/xlink" x="0px" y="0px"
	 viewBox="0 0 788 1005" style="enable-background:new 0 0 788 1005;" xml:space="preserve">
<style type="text/css">
	.st0{fill:#614652;}
	.st1{fill:#A85B3B;}
	.st2{fill:#9CCBF2;}
	.st3{fill:#4D6FAA;}
	.st4{fill:none;}
</style>
<path class="st0" d="M308.2,642.5c1.2,13.7,12.3,24.4,26.1,25l0,0c13.1,0.6,24.9-8.1,28-20.8c0,0,21.1-109.9,23-137.2
	c0.4-6.5-0.7-25.8-0.7-25.8l-2.9-45.1c0,0-5.7-21.3-28.8-24.6c-26.7-3.9-27.9,10.1-27.9,10.1s-10.2,67.1-11.1,89.6
	C313,534.5,308.2,642.5,308.2,642.5z"/>
<path class="st1" d="M333.1,624.8c-14.3-0.2-22.9,6.9-25.5,18.7c0,0-7.3,56.8-8.5,79c-1.9,35.6,2.6,104.2,7.4,139.5
	c1,7.7,3.1,31.1,3.1,31.1c0.6,7,6.6,12.3,13.5,12.2l0,0c6.9-0.1,12.5-5.3,13.2-12.1c0,0,2.3-26.8,3.6-35.7
	c4.7-32.1,18.5-95.9,20.5-128.3c1.2-19.5-0.4-79.5-0.4-79.5C359.1,629.7,345.3,625.4,333.1,624.8L333.1,624.8z"/>
<path class="st2" d="M322.3,884.7L322.3,884.7c-6.3,0.2-11.8,3.8-14.5,9.4l0,0c-5.9,12.6-31.2,29.6-31.2,29.6
	c-4.5,3.6-6.8,9.3-5.7,15l0,0l61.8-0.3l3.5-1c4-1.2,6.6-5.1,6.2-9.2l-3.6-30.8C336.9,889.8,330,884.5,322.3,884.7z"/>
<path class="st3" d="M272.6,938.4L272.6,938.4c-0.8-5,2.6-9.7,7.6-10.7h0.1l36.8-5.5c4.7-0.7,9.2,2.3,10.4,7l2.2,8.7L272.6,938.4z"
	/>
<path class="st0" d="M475.4,642.5c-1.2,13.7-12.3,24.4-26.1,25l0,0c-13.1,0.6-24.9-8.1-28-20.8c0,0-20.5-109.9-22.4-137.2
	c-0.4-6.8,3.6-71,3.6-71s-2.5-19.1,25.7-24.6c25.2-4.9,27.9,10.1,27.9,10.1s13.1,66.3,14.1,88.8
	C471.3,533.6,475.4,642.5,475.4,642.5z"/>
<path class="st1" d="M451.8,624.8c12.7-0.2,20.4,6.9,22.8,18.7c0,0,14.8,54.8,15.9,76.9c1.7,35.6-10.5,106.3-14.9,141.5
	c-0.9,7.7-2.8,31.1-2.8,31.1c-0.6,7-5.8,12.2-12.1,12.1l0,0c-6.2-0.1-11.2-5.3-11.8-12.1c0,0-2.1-26.8-3.2-35.7
	c-4.2-32.1-16.5-95.9-18.4-128.3c-1.1-19.5,0.4-79.5,0.4-79.5C428.6,629.7,440.9,625.3,451.8,624.8L451.8,624.8z"/>
<path class="st1" d="M475,856.6c-1.2,34.9,41.4,63.2,41.4,63.2c4.5,3.6-68.7,22.4-68.3,18.3c0,0,1.5-53.3-1-66.9
	C445.3,861.7,475.7,836.2,475,856.6z"/>
<path class="st2" d="M462.2,900c6.6-2.3,6.1-7,8.7-9.6c1.5-1.5,10.1-11.2,11-9.1c11,23.3,60.8,44.2,60.8,44.2
	c5.5,3.9,6.8,9.3,5.6,15l0,0c0,0-44.9,9.6-69.5-1.3c-4.9-2.3-11-0.9-11-0.9s-23,3.8-21.6-3.2l-0.9-39.8
	C447.1,887.7,451,903.8,462.2,900z"/>
<path class="st3" d="M548.9,941c0.8-9.2-4.4-15.1-6.2-14.8c-2.6,0.3-6.7,2.5-9.2,2.9c-4.1,0.7-16.4-0.3-16.4-0.3
	c-3.2-0.3-5.7,2.9-6.1,7.3l-0.2,8.8c0,0,7.5,1,25.2-1.6C539.1,942.8,548.9,941,548.9,941z"/>
<path class="st3" d="M325.9,421.4c-4.9,8.5-10.8,56-10.8,56s-4.9,33.2-4.9,37.4c0,4.2-31.2,193.6-31.2,195.9
	c0,1.4-3.3,38.3-5.7,65.4c-1.6,18.7,3.1,37.3,13.6,52.9l1.8,2.8l15.5,23.9l3.7,20.8l31.1-4.6l3-15.4c0,0,31.3-33.2,35-47.5
	c4.3-16.7-9-68.3-9-68.3l22.8-200.3l28.4,149.3v56.2c0,0-8.5,33.2-6.8,44.3c2.5,15.9,29,57.9,29.2,57.4s4.6,21.9,4.6,21.9l30.7-4.8
	l2.4-25.4c0,0,34.1-36.8,38.6-52.4c8.3-28.8-8.6-119.6-8.6-119.6l-39.7-180.2l-13.7-63.4L325.9,421.4z"/>
<path class="st3" d="M428.3,404.9c15.4,4.4,21.9,8.2,25.6,14.1c3,4.8,5.6,15.7,5.9,21.1c0.5,12.8-7.4,45-20.8,55.8
	c-13.7,11-80.3,11-93.9,0c-13.3-10.8-24.6-43-24.1-55.8c0.2-5.4,3-16.4,5.9-21.1c3.7-5.8,13.5-9.6,28.9-14.1
	c17.5-5.1,35.3-4.2,35.3-4.2S410.9,399.7,428.3,404.9z"/>
<path class="st4" d="M427.5,390.1c14.3,4.4,20.4,8.2,23.8,14.1c2.8,4.8,5.2,15.7,5.5,21.1c0.5,12.8-6.9,45-19.3,55.8
	c-12.7,11-77.7,11-90.4,0c-12.4-10.8-19.8-43-19.3-55.8c0.2-5.4,2.8-16.4,5.5-21.1c3.4-5.8,12.6-9.6,26.9-14.1
	c16.3-5.1,32.8-4.2,32.8-4.2S411.3,385,427.5,390.1z"/>
</svg>
