<?xml version="1.0" encoding="utf-8"?>
<!-- Generator: Adobe Illustrator 26.0.3, SVG Export Plug-In . SVG Version: 6.00 Build 0)  -->
<svg version="1.1" id="Layer_1" xmlns="http://www.w3.org/2000/svg" xmlns:xlink="http://www.w3.org/1999/xlink" x="0px" y="0px"
	 viewBox="0 0 388 507.7" style="enable-background:new 0 0 388 507.7;" xml:space="preserve">
<style type="text/css">
	.st0{fill:#614652;}
	.st1{fill:#A85B3B;}
	.st2{fill:#9CCBF2;}
	.st3{fill:#DDDDDD;}
	.st4{fill:none;}
</style>
<path class="st0" d="M93,198.9c1.2,13.7,12.3,24.4,26.1,25l0,0c13.1,0.6,24.9-8.1,28-20.8c0,0,21.1-109.9,23-137.2
	c0.4-6.5-0.7-25.8-0.7-25.8L166.5-5c0,0-5.7-21.3-28.8-24.6c-26.7-3.9-27.9,10.1-27.9,10.1S99.6,47.6,98.7,70.1
	C97.8,90.9,93,198.9,93,198.9z"/>
<path class="st1" d="M117.9,181.2c-14.3-0.2-22.9,6.9-25.5,18.7c0,0-7.3,56.8-8.5,79c-1.9,35.6,2.6,104.2,7.4,139.5
	c1,7.7,3.1,31.1,3.1,31.1c0.6,7,6.6,12.3,13.5,12.2l0,0c6.9-0.1,12.5-5.3,13.2-12.1c0,0,2.3-26.8,3.6-35.7
	c4.7-32.1,18.5-95.9,20.5-128.3c1.2-19.5-0.4-79.5-0.4-79.5C143.9,186.1,130,181.9,117.9,181.2L117.9,181.2z"/>
<path class="st2" d="M107,441.1L107,441.1c-6.3,0.2-11.8,3.8-14.5,9.4l0,0c-5.9,12.6-31.2,29.6-31.2,29.6c-4.5,3.6-6.8,9.3-5.7,15
	l0,0l61.8-0.3l3.5-1c4-1.2,6.6-5.1,6.2-9.2l-3.6-30.8C121.6,446.2,114.8,440.9,107,441.1z"/>
<path class="st3" d="M57.4,494.9L57.4,494.9c-0.8-5,2.6-9.7,7.6-10.7h0.1l36.8-5.5c4.7-0.7,9.2,2.3,10.4,7l2.2,8.7L57.4,494.9z"/>
<path class="st0" d="M260.1,198.9c-1.2,13.7-12.3,24.4-26.1,25l0,0c-13.1,0.6-24.9-8.1-28-20.8c0,0-20.5-109.9-22.4-137.2
	c-0.4-6.8,3.6-71,3.6-71s-2.5-19.1,25.7-24.6c25.2-4.9,27.9,10.1,27.9,10.1S254,46.7,255,69.2C256,90,260.1,198.9,260.1,198.9z"/>
<path class="st1" d="M236.5,181.2c12.7-0.2,20.4,6.9,22.8,18.7c0,0,14.8,54.8,15.9,76.9c1.7,35.6-10.5,106.3-14.9,141.5
	c-0.9,7.7-2.8,31.1-2.8,31.1c-0.6,7-5.8,12.2-12.1,12.1l0,0c-6.2-0.1-11.2-5.3-11.8-12.1c0,0-2.1-26.8-3.2-35.7
	c-4.2-32.1-16.5-95.9-18.4-128.3c-1.1-19.5,0.4-79.5,0.4-79.5C213.4,186.1,225.6,181.7,236.5,181.2L236.5,181.2z"/>
<path class="st1" d="M259.8,413c-1.2,34.9,41.4,63.2,41.4,63.2c4.5,3.6-68.7,22.4-68.3,18.3c0,0,1.5-53.3-1-66.9
	C230,418.1,260.5,392.6,259.8,413z"/>
<path class="st2" d="M247,456.4c6.6-2.3,6.1-7,8.7-9.6c1.5-1.5,10.1-11.2,11-9.1c11,23.3,60.8,44.2,60.8,44.2
	c5.5,3.9,6.8,9.3,5.6,15l0,0c0,0-44.9,9.6-69.5-1.3c-4.9-2.3-11-0.9-11-0.9s-23,3.8-21.6-3.2l-0.9-39.8
	C231.9,444.1,235.8,460.2,247,456.4z"/>
<path class="st3" d="M333.7,497.4c0.8-9.2-4.4-15.1-6.2-14.8c-2.6,0.3-6.7,2.5-9.2,2.9c-4.1,0.7-16.4-0.3-16.4-0.3
	c-3.2-0.3-5.7,2.9-6.1,7.3l-0.2,8.8c0,0,7.5,1,25.2-1.6C323.8,499.2,333.7,497.4,333.7,497.4z"/>
<path class="st3" d="M110.6-22.2c-4.9,8.5-10.8,56-10.8,56S95,67,95,71.2c0,4.2-31.2,193.6-31.2,195.9c0,1.4-3.3,38.3-5.7,65.4
	c-1.6,18.7,3.1,37.3,13.6,52.9l1.8,2.8l15.5,23.9l3.7,20.8l31.1-4.6l3-15.4c0,0,31.3-33.2,35-47.5c4.3-16.7-9-68.3-9-68.3
	l22.8-200.3l28.4,149.3v56.2c0,0-8.5,33.2-6.8,44.3c2.5,15.9,29,57.9,29.2,57.4S231,426,231,426l30.7-4.8l2.4-25.4
	c0,0,34.1-36.8,38.6-52.4c8.3-28.8-8.6-119.6-8.6-119.6L254.4,43.6l-13.7-63.4L110.6-22.2z"/>
<path class="st3" d="M213-38.7c15.4,4.4,21.9,8.2,25.6,14.1c3,4.8,5.6,15.7,5.9,21.1c0.5,12.8-7.4,45-20.8,55.8
	c-13.7,11-80.3,11-93.9,0c-13.3-10.8-24.6-43-24.1-55.8c0.2-5.4,3-16.4,5.9-21.1c3.7-5.8,13.5-9.6,28.9-14.1
	c17.5-5.1,35.3-4.2,35.3-4.2S195.6-43.9,213-38.7z"/>
<path class="st4" d="M212.2-53.5c14.3,4.4,20.4,8.2,23.8,14.1c2.8,4.8,5.2,15.7,5.5,21.1c0.5,12.8-6.9,45-19.3,55.8
	c-12.7,11-77.7,11-90.4,0c-12.4-10.8-19.8-43-19.3-55.8c0.2-5.4,2.8-16.4,5.5-21.1c3.4-5.8,12.6-9.6,26.9-14.1
	c16.3-5.1,32.8-4.2,32.8-4.2S196-58.6,212.2-53.5z"/>
</svg>
