<?xml version="1.0" encoding="utf-8"?>
<!-- Generator: Adobe Illustrator 26.0.3, SVG Export Plug-In . SVG Version: 6.00 Build 0)  -->
<svg version="1.1" id="Calque_1" xmlns="http://www.w3.org/2000/svg" xmlns:xlink="http://www.w3.org/1999/xlink" x="0px" y="0px"
	 viewBox="0 0 788 1005" style="enable-background:new 0 0 788 1005;" xml:space="preserve">
<style type="text/css">
	.st0{fill:#1A1818;}
	.st1{fill:#227287;}
	.st2{fill:#A85B3B;}
	.st3{fill:#87B6C7;}
	.st4{fill:#6C9AAB;}
	.st5{fill:none;stroke:#000000;stroke-width:3;stroke-miterlimit:10;}
	.st6{fill:#614652;}
	.st7{fill:#699AAB;}
	.st8{fill:none;stroke:#699AAB;stroke-width:2;stroke-linecap:round;stroke-miterlimit:10;}
	.st9{fill:none;stroke:#669AAB;stroke-width:2;stroke-linecap:round;stroke-miterlimit:10;}
	.st10{fill:none;stroke:#4F3742;stroke-miterlimit:10;}
</style>
<polygon class="st0" points="243.4,514 243.3,514 243.3,514 "/>
<polygon points="243.5,514 243.5,514 243.4,514 "/>
<polygon class="st0" points="243.4,514 243.3,514 243.3,514 "/>
<polygon points="243.5,514 243.5,514 243.4,514 "/>
<path class="st1" d="M357.1,673.7c3.3,12,15.6,20,29,18.7l0,0c12.7-1.3,22.7-10.7,23.8-22.6c0,0,4.7-84,1.8-113.6
	c-0.7-7-5.5-27.7-5.5-27.7l-11.5-48.1c0,0-6.8-22.5-33.4-22.3c-30.6,0.2-29.5,15.4-29.5,15.4s-2.4,74.3,0.7,98.8
	C335.1,595,357.1,673.7,357.1,673.7z"/>
<path class="st2" d="M363,654.4c-13.8,1.8-21,9.4-21.7,20.2c0,0,1.6,51.7,3.8,71.6c3.5,32,18.3,92.6,28.4,123.4
	c2.2,6.7,7.7,27.3,7.7,27.3c1.7,6.1,8.2,10,14.9,8.9l0,0c6.6-1,11.3-6.5,10.9-12.7c0,0-1.9-24.2-2-32.3
	c-0.4-29.3,3.2-88.2,0.2-117.4c-1.8-17.6-12.5-70.8-12.5-70.8C388.8,655.1,374.9,653.2,363,654.4L363,654.4z"/>
<path class="st3" d="M392.9,889.3L392.9,889.3c-5.9,0-11.3,3.2-14.2,8.4l0,0c-5.9,11.4-30.7,26.6-30.7,26.6c-4.4,3-6.6,8.3-5.6,13.5
	l0,0h60.3l3.4-0.9c3.8-0.9,6.3-4.4,6.1-8.3l-3.3-27.8C407.2,894,400.5,889.2,392.9,889.3z"/>
<path class="st4" d="M344.2,937.6L344.2,937.6c-0.8-4.6,2.6-8.9,7.6-9.6l35.9-4.8c4.5-0.7,8.8,2,10,6.3l2,7.9L344.2,937.6z"/>
<path class="st5" d="M432.2,432c16.2,4.3,23.2,7.9,27,13.6c3.1,4.6,6,15.2,6.3,20.4c0.5,12.4-7.8,43.4-21.9,53.8
	c-14.4,10.5-84.8,10.5-99.2,0c-14.2-10.4-22.5-41.4-21.9-53.8c0.2-5.3,3.2-15.8,6.3-20.4c3.9-5.7,10.9-9.3,27-13.6
	c18.5-4.9,37.3-4.1,37.3-4.1S413.7,427,432.2,432z"/>
<path class="st6" d="M641.1,494.4c12.6,4.2,20,16.4,17.2,28.5l0,0c-2.6,11.6-13.8,19.9-26.6,19.8c0,0-90.7-3.9-122.2-9.5
	c-7.8-1.4-79.7-23.2-79.7-23.2s-22.4-2.7-20.7-33c1.5-27,19.4-25.7,19.4-25.7s79.1,4.9,105.2,10.1
	C557.7,466.2,641.1,494.4,641.1,494.4z"/>
<path class="st2" d="M656.9,514.5c6.1,10,3.7,19.2-5.3,26.1c0,0-40,35.3-58.5,45.8c-29.6,16.8-95.9,37.6-128.1,49.5
	c-7.1,2.6-27.9,11.3-27.9,11.3c-6.2,2.5-13.2,0.6-16-4.3l0,0c-2.8-4.9-0.7-11.2,4.9-14.6c0,0,22-13.2,29-18
	c25.6-17.2,74.4-54.5,101.3-70c16.2-9.3,68.2-34,68.2-34C641.8,498.2,651.3,506.1,656.9,514.5L656.9,514.5z"/>
<path class="st2" d="M447.5,639.1c-33.9,2.9-34.1,49.3-34.1,49.3c-2.9,4.5-30.3-58.9-26.2-59.1c0,0,51.8-4.8,64.5-8.7
	C460.6,617.9,467.4,637.4,447.5,639.1z"/>
<path class="st3" d="M434.5,635.6c3,5.6,7.5,4.6,10.4,6.7c1.7,1.2,4.2,6.8,2.3,7.9c-21.1,12.5-27.2,60.4-27.2,60.4
	c-3.1,5.4-8.2,7.1-13.8,6.8l0,0c0,0-14.9-39.1-7.4-62.4c1.5-4.7-4.2-7.9-4.2-7.9s-6.6-20.1,0.3-19.8l42-7.4
	C444.6,620.6,429.4,626,434.5,635.6z"/>
<path class="st7" d="M406.4,717.9c9-0.3,14-5.7,13.5-7.2c-0.6-2.3-3.2-5.7-4-7.9c-1.2-3.5-1.8-14.7-1.8-14.7
	c-0.1-2.9-3.5-4.8-7.8-4.5l-8.6,0.8c0,0-0.1,6.8,4.7,22.4C403.4,709.4,406.4,717.9,406.4,717.9z"/>
<path class="st8" d="M375.9,906.5c0,0,4.8-3.1,8.9-3.1c3.5,0.2,6.9,1.2,9.9,2.9"/>
<path class="st9" d="M439.4,660.9c0,0-2.7-4.4-3.3-8"/>
<path class="st9" d="M435.2,666.7c0,0-3-4.3-3.8-7.8"/>
<polygon class="st10" points="407.7,523.6 402.7,486.5 417.7,486.5 416.7,516.4 "/>
<path class="st1" d="M316.1,467c0,0,58-10,148.5-13.2c69.7-2.4,179.7,32.1,188.9,43.1s15.8,36.2,6.8,41
	c-30.3,15.8-72.9,71-99.7,82.4c-65.9,27.9-79.5,9.7-87.5,12.6s-12.6,4.7-12.6,4.7l-16.7-20.3c0,0,16.8-9.5,16.7-10.9
	c-0.1-0.9,13.4-22.4,29.8-44.2c9.7-12.8,27.1-19.7,37.2-19.7c0,0-60,30.1-135.6-9.6C352.2,512.3,316.1,467,316.1,467z"/>
<path class="st1" d="M319.3,458.3c-1.3,2.1-9.6,65.9-10.5,111.9S288,778.8,314,808.7s59.1,61,59.1,61l4.2,18.2
	c8.6-3.4,29.8-5.9,29.8-5.9l-1.8-14.4c4.6-7.2,29.9-67.4,25.1-97.2s-16-16.3-23.3-53.3s-4.7-89.3-4.7-89.3
	c17.5-23.1,16.1-61,24.7-80.6s1.1-91.6-7-91.1S326.1,446.8,319.3,458.3z"/>
<path class="st1" d="M319.1,500.8c-1.4-2.1-4.6-15-4.6-15s-0.8-23.8,4.6-36.6s38.8-26.2,83.3-23.5s54.1,11.8,61.6,20.7
	s0.5,19.2-1.5,20.1S322,513.7,319.1,503.1"/>
</svg>
