<?xml version="1.0" encoding="utf-8"?>
<!-- Generator: Adobe Illustrator 26.0.3, SVG Export Plug-In . SVG Version: 6.00 Build 0)  -->
<svg version="1.1" id="Layer_1" xmlns="http://www.w3.org/2000/svg" xmlns:xlink="http://www.w3.org/1999/xlink" x="0px" y="0px"
	 viewBox="0 0 388 507.7" style="enable-background:new 0 0 388 507.7;" xml:space="preserve">
<style type="text/css">
	.st0{fill:none;}
	.st1{fill:#A85B3B;}
	.st2{fill:#CCCCCC;}
	.st3{fill:#353535;}
	.st4{fill:#944E31;}
	.st5{fill:none;stroke:#353535;stroke-width:2;stroke-linecap:round;stroke-miterlimit:10;}
</style>
<path class="st0" d="M222.7,2.6c14.4,4,20.7,7.3,24.1,12.4c2.8,4.2,5.3,13.9,5.6,18.7c0.5,11.3-5.1,52-18.2,63.6
	c-13.2,11.9-77.9,11.9-91.2,0c-13-11.6-18.7-52.3-18.2-63.6c0.2-4.8,2.8-14.5,5.6-18.7c3.4-5.2,9.7-8.5,24.1-12.4
	c16.4-4.5,33.3-3.8,33.3-3.8S206.3-1.9,222.7,2.6z"/>
<path class="st1" d="M134.6,218.8c-12.8-0.2-20.5,6.2-22.9,16.7c0,0-6.5,50.9-7.6,70.8c-1.7,31.9,2.3,93.4,6.6,125
	c0.9,6.9,2.8,27.8,2.8,27.8c0.6,6.2,5.9,10.9,12.1,10.8l0,0c6.2-0.1,11.2-4.8,11.9-10.8c0,0,2-24,3.2-32
	c4.2-28.8,16.5-85.9,18.4-115c1.1-17.5-0.5-71.2-0.5-71.2C158,223.2,145.5,219.4,134.6,218.8z"/>
<path class="st2" d="M125,451.8L125,451.8c-5.6,0.1-10.6,3.4-13,8.5l0,0c-5.4,11.4-28,26.6-28,26.6c-4,3.2-6.1,8.4-5.1,13.4l0,0
	l55.4-0.3l3.1-0.9c3.6-1.1,5.9-4.6,5.5-8.3l-3.2-27.6C138.1,456.2,131.9,451.4,125,451.8z"/>
<path class="st3" d="M80.5,500.5L80.5,500.5c-0.7-4.5,2.3-8.7,6.8-9.5h0.1l32.9-5.1c4.2-0.6,8.3,2,9.3,6.2l1.9,7.8L80.5,500.5z"/>
<path class="st3" d="M262.2,234.7c-1.1,12.3-11.1,21.9-23.4,22.4l0,0c-11.8,0.6-22.3-7.3-25.1-18.7c0,0-17.4-81.6-19.2-111
	C194,120,198,44.8,198,44.8s-2.5-16.7,26.1-21.7c25.5-4.4,20.6,6.7,20.6,6.7S268,117.5,269,142.1
	C270.1,164.6,262.2,234.7,262.2,234.7z"/>
<path class="st4" d="M241,218.8c11.4-0.2,18.3,6.2,20.4,16.7c0,0,13.2,49.1,14.2,68.9c1.6,31.9-9.5,95.2-13.3,126.8
	c-0.8,6.9-2.5,27.8-2.5,27.8c-0.6,6.2-5.2,10.9-10.8,10.8l0,0c-5.5-0.1-10-4.8-10.6-10.8c0,0-1.8-24-2.8-32
	c-3.7-28.8-14.7-85.9-16.4-115c-1-17.5,0.4-71.2,0.4-71.2C220.3,223.3,231.3,219.4,241,218.8L241,218.8z"/>
<path class="st1" d="M262.2,448.1c-1.1,31.2,36.8,35.3,36.8,35.3c4,3.2-61.6,20-61.2,16.4c0,0,1.4-47.8-0.9-59.9
	C235.2,431.4,262.8,429.8,262.2,448.1z"/>
<path class="st2" d="M250.4,465.5c5.9-2,5.4-6.2,7.8-8.6c1.4-1.4,7.3-2.9,8.1-1.1c9.8,20.9,56.2,32.5,56.2,32.5
	c5,3.5,6.1,8.4,5.1,13.4l0,0c0,0-40.2,8.6-62.3-1.2c-4.4-2-8.3,2.8-8.3,2.8s-20.6,3.4-19.5-2.8l-2.3-39.2
	C236.8,454.4,240.3,468.9,250.4,465.5z"/>
<path class="st3" d="M328,502c0.7-8.3-4-13.5-5.5-13.2c-2.3,0.3-6,2.2-8.3,2.6c-3.6,0.6-14.6-0.3-14.6-0.3c-2.8-0.3-5.1,2.6-5.4,6.5
	l-0.2,7.9c0,0,6.7,0.9,22.6-1.5C319.3,503.8,328,502,328,502z"/>
<path class="st5" d="M109.4,468.8c0,0,4.3-3.1,8.2-3c4.7,0,9.2,2.8,9.2,2.8"/>
<path class="st5" d="M275.8,464.8c0,0-4.7,1.9-8.3,2"/>
<path class="st5" d="M281.1,469.4c0,0-4.6,2.2-8.2,2.5"/>
<path class="st3" d="M264.7,122.4l0-0.2c0,0,0,0-0.1-0.1c-9.9-33.8-17.8-60-19.6-65.7c1.7-9.9,2.4-18.8,2.2-23.2
	c-0.3-4.8-2.8-14.5-5.4-18.7c-3.2-5.1-9.2-8.4-23-12.4c-15.7-4.5-33.4-3.8-33.4-3.8s-16.1-0.7-31.8,3.8C140,6,134,9.4,130.7,14.5
	c-2.7,4.2-5.2,13.9-5.4,18.7c-0.1,1.8,0,4.4,0.3,7.5c-0.8,1.5-1.3,3.1-1.6,4.9l-5,43.5c-10.5,40.9-58.6,231.5-53.8,247.4
	c5.4,17.8,12.3,30.2,15.4,46.5c1.1,5.6,2.1,10.3,3.2,14.1l-0.1,0.8c-0.7,6.1,2.8,11.9,8.4,14.2l9.8,4c4.6,1.9,7.8,6.2,8.4,11
	l1.2,9.9c0.2,1.8,1.8,3.2,3.8,3l23.6-2.1c1.6-0.2,2.8-1.4,3.1-2.8l2.1-13.2c0.6-4,2.9-7.4,6.2-9.5l9.1-5.7c3.5-2.2,5.9-5.9,6.3-10
	l14.1-120.8c3.7-9.1,6.9-16,8-15.6c3.1,1,4.1-2,5.1,0.4c0.4,0.9,3.2,9.9,6.5,20.8l4.9,117.2c0.3,6.8,4,13,9.9,16.5l10.1,5.9
	c3.8,2.2,6.5,5.9,7.4,10.2l2.8,12.5c0.4,1.7,2,2.9,3.8,2.8l20.6-2.1c1.7-0.2,3-1.6,3.1-3.2l1.1-13.3c0.4-4.3,2.8-8.3,6.6-10.5
	l12-7.1c6.4-3.8,11.1-9.5,13.5-16.2c2.9-5.6,6-36.6,8.8-51.4c3.1-16.3,5.4-3.9,10.8-21.7C318.3,309.4,286.6,197.3,264.7,122.4z
	 M244.2,60.9l-2.1,27.2l-3.7-5.8C240.9,75.8,242.8,68.2,244.2,60.9z"/>
</svg>
