<?xml version="1.0" encoding="utf-8"?>
<!-- Generator: Adobe Illustrator 26.0.1, SVG Export Plug-In . SVG Version: 6.00 Build 0)  -->
<svg version="1.1" id="Calque_1" xmlns="http://www.w3.org/2000/svg" xmlns:xlink="http://www.w3.org/1999/xlink" x="0px" y="0px"
	 viewBox="0 0 388 354.5" style="enable-background:new 0 0 388 354.5;" xml:space="preserve">
<style type="text/css">
	.st0{fill:#D68F72;}
	.st1{fill:#BF673C;}
	.st2{fill:#4E6566;}
</style>
<g id="Calque_10">
	<path class="st0" d="M193,167c-5.5-3.6-8-0.6-13.7,2.5c-9.8,5.3-15.8,23.7-26.7,26.2c-3.9,0.9-12.7-15.1-13.7-21.3
		c-1.5-9.3,2.5-27.5-8.4-36.9c-9.2-7.9-21.5-3.7-25.5-16.3c-7-22,13.5-38.5,23.4-42.3c15.2-5.9,37.1-5.1,43.5-14.2l0.9-27.7
		l0.7-20.2l18.3-0.8h2.2l18.3,0.8L213,37l0.9,27.7c6.4,9.1,28.4,8.3,43.5,14.2c10,3.9,30.4,20.4,23.4,42.4
		c-4,12.6-16.2,8.4-25.5,16.3c-10.9,9.3-6.9,27.5-8.4,36.8c-1,6.3-9.9,22.2-13.7,21.3c-10.8-2.5-16.9-20.9-26.7-26.2
		C201,166.4,198.5,163.4,193,167"/>
	<path class="st1" d="M172.5,65c0,0,31.8,11.4,41.2-10.8l-1.3-37.4h-38.8L172.5,65z"/>
	<path class="st0" d="M154.8,101.9c-17.5,22.7-64.1,60.9-76.1,71.3c-5.7,5-20.6,14.3-28.1,5.4l0,0c-9.1-11.9,0.4-24,5.4-29.3
		c10.2-10.7,32.8-30.3,41.1-42.6c6.2-9.2,10.4-19.4,27-26.3c0,0,16.5-8,26.4,0.6C156.9,86.6,157.8,93.3,154.8,101.9L154.8,101.9z"/>
	<path class="st0" d="M59.4,174.6c14.9,2.3,17-9.1,18.7-15.1c1.9-6.5,6-72.7,7.5-90.6c0.9-10.1,1.6-15.5-4.4-16.6
		c-5.4-1-9.7,8.5-10.9,12.5c-11.4,37.7-14.4,46.4-22.9,92C44,175.5,55.6,174.1,59.4,174.6z"/>
	<path class="st0" d="M84.6,70.1c0,0,11.1-5.3,12.5-7s8.4-10.2,9.8-11.3s11.2-5.7,10.4-6.8c-0.3-0.4-1.1-1.2-1.9-2
		c-1.5-1.6-3.8-2.1-5.8-1.4l-2.5,0.9c-1.9,0.6-3.6,1.7-5,3.1l-5.5,5.3l2.3-16.4l6.8-19.8c0.5-1.4-0.1-3-1.4-3.8l0,0
		c-1.5-0.9-3.5-0.4-4.4,1.2c-0.1,0.1-0.1,0.3-0.2,0.4l-8.5,21.1l3.1-26c0.2-1.9-1.1-3.7-3.1-3.9l0,0l0,0c-1.9-0.2-3.7,1.1-3.9,3.1
		L84,34.6L82.6,7.8c-0.1-1.9-1.7-3.4-3.7-3.3c-0.1,0-0.1,0-0.2,0l0,0c-1.8,0.2-3.1,1.7-3.1,3.5l0.5,25.3l-4.5-15.9
		c-0.5-1.8-2.4-2.9-4.2-2.3c-0.1,0-0.2,0.1-0.3,0.1l0,0c-1.5,0.6-2.4,2.2-2.1,3.7L67.9,37l-1.4,24.7l2.9,6.6L84.6,70.1z"/>
	<path class="st0" d="M236.7,97.7c1.6,19.7,14.8,24.1,21.9,30.5c11.3,10.2,24.3,37.4,33.2,49.3c4.2,5.6,16.2,17.2,25.7,11.2l0,0
		c11.8-8.3,3.6-23.7,0.1-29.5c-7.1-11.7-31.6-63.3-45.8-73.1c0,0-13.9-10.8-25.6-5.6C238.7,83.8,236,89.5,236.7,97.7L236.7,97.7z"/>
	<path class="st0" d="M317.4,165.6c-9.7-5.7-16.7,2.7-21.8,10.8c-3.6,5.7-33.1,65-41.3,80.9c-4.6,9-7.4,13.7-2.3,17
		c4.6,3,13.8-5,16.4-8.2c26.9-33.7,45-48.3,54.6-75.6C329.3,172.6,320.8,167.6,317.4,165.6z"/>
	<path class="st2" d="M84.4,85.4c0,0-19-4.4-21,2.4S42.1,175,42.1,175s16,17.5,21.2,15.4s58.9-54.9,62.4-52.5s14,58.1,14.3,61.5
		s2.6,34.1,2.6,34.1h99.7c0,0,0.7-37.4,0.8-40.2s15.7-62.4,18.7-58.6s30.8,47.2,30.8,47.2L261,240.7l19.2,14.1l42.1-49.2l7.6-26.3
		L275,84.1l-24.7-9.4l-39.2-10.4c0,0-13.3,17.4-42.1,0l0,0l-51.8,14.8l-35.4,41.4L84.4,85.4"/>
	<path class="st2" d="M134.9,236.4L134.9,236.4c0-6.5,6.9-13.4,6.1-24.9h101.7c-0.2,11.5,7.5,18.4,7.5,24.9l0,0
		c0,6.5-5.2,11.7-11.7,11.7l0,0h-91.9C140.1,248.1,134.9,242.9,134.9,236.4L134.9,236.4z"/>
	<path class="st0" d="M200.4,251.5l14.2-6.7l24.7-2.6l15.9,16.1l8.3-3c0,0,4.7,10.8,2.5,12.8c-3.5,3.1-7.8,6.9-11,6.8
		c-5.2-0.1-18.3-10.2-18.3-10.2l-11,3.5c0,0-8.3,5.5-8.8,5.8c-4.2,1.7-15.1-7.7-15.1-7.7l10.9-10.6l10-5.9l-7,1.1
		c0,0-7.6,3.9-8.4,3.8C205.7,254.7,200.4,251.5,200.4,251.5z"/>
</g>
</svg>
