<svg xmlns="http://www.w3.org/2000/svg" viewBox="0 0 788 354.46"><defs><style>.cls-1{fill:#d68f72;}.cls-2{fill:#bf673c;}.cls-3{fill:#72615b;}</style></defs><g id="Calque_10" data-name="Calque 10"><path class="cls-1" d="M393,167c-5.48-3.57-8-.62-13.73,2.52-9.75,5.34-15.83,23.72-26.67,26.21-3.85.89-12.68-15.06-13.71-21.32-1.53-9.32,2.52-27.51-8.39-36.85-9.24-7.91-21.45-3.68-25.46-16.29-7-22,17.26-35.8,27.21-39.65,15.17-5.88,33.33-7.79,39.71-16.93L372.9,37l.69-20.19L391.91,16h2.18l18.32.81L413.1,37l.94,27.7c6.38,9.14,28.35,8.35,43.52,14.23C467.51,82.8,488,99.31,481,121.29c-4,12.61-16.22,8.38-25.46,16.29-10.91,9.34-6.86,27.53-8.39,36.85-1,6.26-9.86,22.21-13.71,21.32-10.84-2.49-16.92-20.87-26.67-26.21C401,166.4,398.48,163.45,393,167"/><path class="cls-2" d="M372.51,65s31.77,11.39,41.17-10.81l-1.27-37.4H373.59Z"/><path class="cls-1" d="M353.38,100.08c-4.3,21.53-18,24.68-25.91,30.88-12.61,9.85-29.26,38.17-39.71,50.2-4.93,5.67-18.47,17-27.07,9.22h0C250,179.82,257.74,166.5,262,160.59c8.61-12,28.33-34.49,34.89-47.79,4.88-9.91,7.64-20.68,23.1-29.78,0,0,15.3-10.15,26.26-3,7,4.59,8.93,11.18,7.15,20.06Z"/><path class="cls-1" d="M430.79,100.08c4.3,21.53,18,24.68,25.91,30.88,12.62,9.85,29.26,38.17,39.71,50.2,4.93,5.67,18.47,17,27.07,9.22h0c10.66-10.56,2.95-23.88-1.28-29.79-8.62-12-28.34-34.49-34.89-47.79-4.88-9.91-7.65-20.68-23.11-29.78,0,0-15.3-10.15-26.26-3-7,4.59-8.93,11.18-7.15,20.06Z"/><path class="cls-1" d="M506.21,176.15c3.39-14.67,14.77-12.35,21-11.73,6.75.68,69.61,21.63,86.8,26.91,9.71,3,15,4.3,13.74,10.22-1.11,5.39-11.57,5.95-15.65,5.48-44.11-5.12-54.62-6.69-93.89-13.14C499.5,190.81,505.34,179.9,506.21,176.15Z"/><path class="cls-1" d="M615.75,191.76s9-8.36,11.13-9.08,12.55-4.09,14-5,9.44-8.31,10.09-7.19c.27.45.74,1.45,1.21,2.49a5.63,5.63,0,0,1-.84,5.93l-1.73,2a13.6,13.6,0,0,1-4.68,3.55l-7,3.19,16.1,3.86,20.87.89a3.17,3.17,0,0,1,3,2.69h0a3.18,3.18,0,0,1-3.12,3.67l-22.69.17,25.36,6.58a3.52,3.52,0,0,1,2.53,4.3h0a3.52,3.52,0,0,1-4.3,2.52l-27.14-7,24.42,11.1a3.49,3.49,0,0,1,1.64,4.79h0a3.49,3.49,0,0,1-4.43,1.61l-23.33-9.71,13.18,10a3.39,3.39,0,0,1,.42,5h0a3.37,3.37,0,0,1-4.19.59l-15.79-9.33L617,211.69l-5.13-5.1Z"/><path class="cls-1" d="M279.82,176.05c-3.39-14.66-14.76-12.34-21-11.72C252,165,189.19,186,172,191.23c-9.71,3-15,4.31-13.74,10.23,1.12,5.39,11.58,5.95,15.65,5.48,44.12-5.12,54.62-6.69,93.9-13.14C286.54,190.72,280.69,179.81,279.82,176.05Z"/><path class="cls-1" d="M169.44,191.76s-9-8.36-11.13-9.08-12.55-4.09-14-5-9.44-8.31-10.1-7.19c-.26.45-.73,1.45-1.2,2.49a5.62,5.62,0,0,0,.83,5.93l1.73,2a13.54,13.54,0,0,0,4.69,3.55l7,3.19-16.09,3.86-20.88.89a3.17,3.17,0,0,0-3,2.69h0a3.18,3.18,0,0,0,3.12,3.67L133,199l-25.36,6.58a3.54,3.54,0,0,0-2.53,4.3h0a3.53,3.53,0,0,0,4.3,2.52l27.14-7-24.41,11.1a3.49,3.49,0,0,0-1.65,4.79h0a3.5,3.5,0,0,0,4.43,1.61l23.34-9.71-13.19,10a3.39,3.39,0,0,0-.42,5h0a3.39,3.39,0,0,0,4.2.59l15.78-9.33,23.52-7.72,5.13-5.1Z"/><path class="cls-3" d="M347.13,71.6c1.58,0-12,3.77-12,3.77.33,15.08-3.63,61.78-3.63,61.78s.86,65.07-2,86.51c-1.61,11.92-11.68,46.68-11.68,46.68a24.45,24.45,0,0,0,23.91,29.57l107.85.06a20.92,20.92,0,0,0,20-27S457.63,237,455,224.68c-2.71-12.49.48-83.47.48-83.47l-3.93-66.1-14-3.51C425.72,75,400.21,85.51,397.1,85.45c-4-.07-50-13.85-50-13.85"/></g></svg>