<svg xmlns="http://www.w3.org/2000/svg" viewBox="0 0 788 354.46"><defs><style>.cls-1{fill:#d68f72;}.cls-2{fill:#bf673c;}.cls-3{fill:#4e6566;}.cls-4{fill:#55427c;}.cls-5{fill:#bc7a68;}</style></defs><g id="Calque_10" data-name="Calque 10"><path class="cls-1" d="M394,166.31c-5.48-3.57-8-.63-13.73,2.52-9.75,5.34-15.83,23.72-26.67,26.21-3.85.88-12.68-15.07-13.71-21.32-1.53-9.32,2.52-27.51-8.39-36.85-9.24-7.91-21.45-3.69-25.46-16.3-7-22,13.45-38.49,23.4-42.34C344.61,72.35,366.58,73.13,373,64l.94-27.7.69-20.19,18.32-.81h2.18l18.32.81.69,20.19L415,64c6.38,9.13,28.35,8.35,43.52,14.23C468.51,82.08,489,98.6,482,120.57c-4,12.61-16.22,8.39-25.46,16.3-10.91,9.34-6.86,27.53-8.39,36.85-1,6.25-9.86,22.2-13.71,21.32-10.84-2.49-16.92-20.87-26.67-26.21-5.74-3.15-8.25-6.09-13.73-2.52"/><path class="cls-2" d="M373,64s32.32,11.71,41.72-10.5l-1.27-37.39H374.59Z"/><path class="cls-1" d="M582.21,122.44c.26-2.54,8.11-17.2,9-19.17s19-12.5,19.73-11.57-1,6.18-1,6.18L604,102.46l18.18-5S645.35,88.69,645,90a61.66,61.66,0,0,0-.33,6.64l-19.37,9.54L619,122.09s-22.94,10-26.12,9.64c-.94-.12-5.28,1.72-6.67-1.32C585.27,128.49,582.21,122.44,582.21,122.44Z"/><path class="cls-1" d="M436.76,249.22c6.52-28,3.46-111.19,1.68-120.54-7.88-41.37-84.81-40.93-92.71.52-3.66,19.25-4.08,92.24,2.55,120"/><path class="cls-1" d="M342.27,93c3.23,19.55-8.45,27-13.78,34.93-8.46,12.66-14.46,42.2-20.16,55.93-2.69,6.47-11.52,20.69-22.16,17.17h0c-13.49-5.12-9.3-22.1-7.34-28.54,4-13.09,13.83-70.38,26.53-82.11,6.46-6,20.12-14.92,32.75-12.76C346.23,79,340.94,85,342.27,93Z"/><path class="cls-1" d="M433.73,97.07c2.66,19.63,16,23.28,23.45,29.33,11.81,9.6,26.23,36.08,35.72,47.52,4.48,5.4,17.09,16.38,26.23,9.9h0c11.39-8.87,2.38-23.87-1.38-29.44-7.67-11.34-34.82-61.57-49.52-70.67,0,0-14.45-10-25.89-4.26-7.34,3.72-9.71,9.53-8.61,17.62Z"/><path class="cls-1" d="M505.14,179.52c5.9,9.54,16.06,5.41,24.31.66,5.88-3.38,56.07-43.57,70.8-53.88,8.33-5.82,6.38-7.77,3.4-13-2.72-4.78-18.55,5.17-22.17,7.1-36.88,19.69-44.93,17.58-69.66,34.55C496.16,165.66,503.12,176.24,505.14,179.52Z"/><rect class="cls-3" x="335.04" y="226.67" width="115.32" height="23.41"/><path class="cls-4" d="M335,76.41c-.33,5.78,0,64.52,0,64.52V211l2.31,27.36H445l5.34-26.9,3.25-79.3V76.59l-31.72-9.35s-24.67,13.4-27,13.4S373,64,373,64Z"/><path class="cls-5" d="M276.2,188.85c-2.29-11,7.92-15,17.18-17.21,6.59-1.6,72.12-10.57,89.9-13.24,10.05-1.51,15.35-2.58,16.81,3.29C401.41,167,380.79,172.45,377,174c-35.36,14.11-50.17,19.52-79,28.13C279.79,207.53,277,192.62,276.2,188.85Z"/><path class="cls-5" d="M370.42,161.57c4.77-2.51,13.86-12.64,15.1-14.27s16.91-9.72,17.47-8.78.75,4.44.75,4.44l-8.84,7.4,22.05-4s13.95-2.9,18.49-2.23c1.27.19-.86,4.55-.86,4.55l-20.77,8-6.37,13.25a12.34,12.34,0,0,1-10.8,7c-5.16.13-11.34.18-13-.26-.9-.24-7.39-1.56-8.16-4.44C375,170.29,370.42,161.57,370.42,161.57Z"/><rect class="cls-3" x="334.85" y="224.68" width="115.32" height="23.41"/></g></svg>