<?xml version="1.0" encoding="utf-8"?>
<!-- Generator: Adobe Illustrator 26.0.1, SVG Export Plug-In . SVG Version: 6.00 Build 0)  -->
<svg version="1.1" id="Calque_1" xmlns="http://www.w3.org/2000/svg" xmlns:xlink="http://www.w3.org/1999/xlink" x="0px" y="0px"
	 viewBox="0 0 488 354.5" style="enable-background:new 0 0 488 354.5;" xml:space="preserve">
<style type="text/css">
	.st0{fill:#D68F72;}
	.st1{fill:#BF673C;}
	.st2{fill:#7C8E7B;}
	.st3{fill:#423632;}
</style>
<g id="Calque_10">
	<path class="st0" d="M271,87.2c0,19.8,12.9,25.2,19.5,32.2c10.5,11.1,21.4,39.3,29.4,51.9c3.8,5.9,14.9,18.5,24.9,13.3l0,0
		c12.6-7.3,5.6-23.3,2.5-29.4c-6.2-12.2-26.6-65.7-40.1-76.7c0,0-13.1-11.9-25.3-7.7C274.1,73.6,271,79,271,87.2L271,87.2z"/>
	<path class="st0" d="M244,166.5c-5.5-3.6-8-0.6-13.7,2.5c-9.8,5.3-15.8,23.7-26.7,26.2c-3.9,0.9-1-16.3-2-22.6
		c-1.5-9.3-9.2-26.3-20.1-35.6c-9.2-7.9-14.1-3.6-18.1-16.2c-7-22,6.1-38.6,16-42.5c15.2-5.9,37.1-5.1,43.5-14.2l0.9-27.7l0.7-20.2
		l18.3-0.8h2.2l18.3,0.8l0.7,20.2l0.9,27.7c6.4,9.1,36,3.7,48.3,14.4c2.6,2.3,15.8,17.3,43.5,91.1c4.7,12.4-41-40.5-50.3-32.6
		c-10.9,9.3-6.9,27.5-8.4,36.9c-1,6.3-9.9,22.2-13.7,21.3c-10.8-2.5-16.9-20.9-26.7-26.2C252,165.9,249.5,163,244,166.5"/>
	<path class="st1" d="M220.8,70c0,0,36.7,44.4,46.1,22.2l-3.5-75.9h-38.8L220.8,70z"/>
	<path class="st2" d="M294.1,248.1c6.5-28,27.4-164.6,19.2-169.5c-15.2-8.9-22.6-12.2-38-14.1c-11.1-1.3-18.7,28-28.8,28.9
		c-6.3,0.6-24-29.1-29.6-28c-14.4,2.7-28.5,7.1-41.8,13.2c-3.7,19.2,7.2,144.8,13.8,172.6"/>
	<path class="st0" d="M193.3,92.2c8.6,17.8-0.5,28.2-3.3,37.4c-4.5,14.5-1.9,44.6-3.4,59.4c-0.7,7-5.2,23.1-16.4,22.8l0,0
		c-14.4-1.1-15.2-18.6-15.1-25.3c0.1-13.7-0.8-73.7,6.4-89.4c0,0,2.2-13.2,14.9-14.7C184.5,81.3,189.7,84.9,193.3,92.2L193.3,92.2z"
		/>
	<path class="st0" d="M155.5,201.7c-0.4-16.5,5.2-25.9,12.4-29.4c10.3-4.9,76.1-0.6,93.8-3.7c10-1.8,15.3-3,16.9,2.9
		c1.5,5.3-7.8,10.1-11.5,12c-34.1,18-60.7,29.8-89.6,31C158.6,215.2,155.6,205.6,155.5,201.7z"/>
	<path class="st0" d="M306,169.1c4.3-3.3,8.9-6.2,13.7-8.6c0,0-4.2-2.7-6.8-2.6c-2.1,0.1-11.7,4.5-11.7,4.5l0,0
		c16.3-23.9,25.2-43.3,26.1-46.2c0.7-2-1.6-8.1-1.6-8.1s-16.3,22.6-21.3,28.6c-16.9,20.5-25.4,25.1-39.2,30.7
		c-2.4,1-1.1,15,4.1,13.4c1.8-0.6,11.9,1.5,14.8,0C295.6,174.8,305.7,169.4,306,169.1z"/>
	<rect x="184.9" y="224.7" class="st3" width="109.2" height="23.4"/>
	<path class="st0" d="M239.7,54l14.3-1l20.4,4.8l21.4,21.9c0,0,12.2,22.6,8.9,23.7c-5,1.8-17.9-11.3-21.4-12.6
		c-5.7-2.1-12.2-10.4-12.2-10.4l-13.5-0.7c0,0-9.9,4.6-10.5,4.6c-5.3,0.1-13.5-10.2-13.5-10.2l14.2-11.4l12.4,0.4l-7.3-4
		c0,0-7.4,1-8.2,0.7C243.1,59.2,239.7,54,239.7,54z"/>
	<path class="st0" d="M351.5,180c9.2-6.6,4.5-16.8-0.8-25c-3.8-5.9-45.8-58.7-57-73.2c-6.4-8.2-9.5-12.7-14.6-9.3
		c-4.6,3.1,4.3,15.5,6.1,19.2c19.7,39.6,20.1,62.3,41.1,83C340.1,188.2,348.4,182.3,351.5,180z"/>
	<path class="st2" d="M190,129.6c0,0-0.7-24.5-14.9-51l24.3-8.6l27.4,48.9L190,129.6z"/>
	<polygon class="st2" points="184.9,248.1 184.9,217.4 300.2,211 300.2,248.1 	"/>
</g>
</svg>
