<svg xmlns="http://www.w3.org/2000/svg" viewBox="0 0 788 1005"><defs><style>.cls-1{fill:#d68f72;}.cls-2{fill:#bf673c;}.cls-3{fill:#9baa5e;}.cls-4{fill:#3a1d20;}.cls-5{fill:#4e6566;}</style></defs><g id="Calque_10" data-name="Calque 10"><path class="cls-1" d="M394,416.25c-5.48-3.57-8-.63-13.73,2.52-9.75,5.34-15.83,23.72-26.67,26.21-3.85.89-12.68-15.07-13.71-21.32-1.53-9.32,2.52-27.51-8.39-36.85-9.24-7.91-21.45-3.68-25.46-16.3-7-22,13.45-38.48,23.4-42.34,15.17-5.88,37.14-5.1,43.52-14.23l.94-27.7.69-20.19,18.32-.81h2.18l18.32.81.69,20.19.94,27.7c6.38,9.13,28.35,8.35,43.52,14.23C468.51,332,489,348.54,482,370.51c-4,12.62-16.22,8.39-25.46,16.3-10.91,9.34-6.86,27.53-8.39,36.85-1,6.25-9.86,22.21-13.71,21.32-10.84-2.49-16.92-20.87-26.67-26.21-5.74-3.15-8.25-6.09-13.73-2.52"/><path class="cls-2" d="M373.51,314.25s31.77,11.4,41.17-10.81l-1.27-37.39H374.59Z"/><path class="cls-1" d="M350.41,344.4c.21,19.81-12.47,25.35-19,32.41C321.16,388,310.72,416.31,303,429c-3.64,6-14.53,18.68-24.52,13.58h0c-12.55-7.12-5.81-23.26-2.89-29.32,5.95-12.33,25.54-66,38.76-77.1,0,0,12.85-12,25-8,7.81,2.61,11,8,11.08,16.19Z"/><path class="cls-1" d="M274.72,425.55c5.16-10.45,15.63-6.66,24.24-2.11,6.13,3.24,62.74,41,78.25,51.1,8.76,5.69,13.56,8.47,11,14.22-2.34,5.22-12.52,2.43-16.52,1.38-37.66-9.91-65.65-19.37-88.4-38.91C268.34,438.4,273,429.14,274.72,425.55Z"/><path class="cls-1" d="M438,341c-8.39,17.95.86,28.24,3.84,37.36,4.73,14.46,2.54,44.53,4.32,59.29.85,7,5.51,23,16.7,22.52h0c14.38-1.3,14.92-18.78,14.77-25.5-.31-13.69,4.05-70.62-3.38-86.23,0,0-6.72-16.26-19.47-17.59C446.6,330,441.46,333.58,438,341Z"/><path class="cls-1" d="M459.25,460.15c10.64,3.53,15.78-6.16,19.06-15.1,2.34-6.37,18.73-70.44,23.41-87.8,2.64-9.81,4.31-15-1.35-17.08-5.16-1.92-10.74,6.89-13,10.33-20.93,32.35-35.11,57.81-38.83,86.5C446.13,455.83,455.6,458.94,459.25,460.15Z"/><path class="cls-1" d="M505.41,310.82A82.33,82.33,0,0,0,515.18,298s2.3,4.38,2,7c-.28,2.14-5.49,11.23-5.49,11.23h0C536.91,302.05,557.06,295,560,294.24c2.09-.52,8,2.3,8,2.3s-23.94,14.25-30.4,18.67c-21.95,15-27.23,23.06-34,36.3-1.19,2.33-15.07-.2-13-5.29.73-1.79-.46-12,1.29-14.73C498.85,320.67,505.14,311.12,505.41,310.82Z"/><path class="cls-3" d="M350.66,321.63c7.88,4.25,44.22,41.24,44.22,41.24l43.26-41.24,18.46,3.64s-7.89,101.94-8,111.73,1.6,63.17,1.6,63.17H334.85L331.5,386.81,329.33,325Z"/><rect class="cls-4" x="334.85" y="476.76" width="115.32" height="23.41"/><rect class="cls-5" x="334.85" y="476.76" width="115.32" height="23.41"/></g></svg>