<svg xmlns="http://www.w3.org/2000/svg" viewBox="0 0 788 354.46"><defs><style>.cls-1{fill:#d68f72;}.cls-2{fill:#bf673c;}.cls-3{fill:#bdb15c;}.cls-4{fill:#aa9d5e;}</style></defs><g id="Calque_10" data-name="Calque 10"><path class="cls-1" d="M390.64,168.08c-5.48-3.57-8-.62-13.73,2.52-9.75,5.35-15.83,23.72-26.67,26.21-3.85.89-12.68-15.06-13.71-21.31-1.53-9.33,2.52-27.52-8.39-36.86-9.24-7.9-21.45-3.68-25.46-16.29-7-22,17.26-35.79,27.21-39.65,15.17-5.88,33.33-7.79,39.71-16.93l.94-27.7.69-20.19,18.32-.8h2.18l18.32.8.69,20.19.94,27.7C418.06,74.91,440,74.12,455.2,80c9.95,3.86,30.39,20.37,23.4,42.35-4,12.61-16.22,8.39-25.46,16.29-10.91,9.34-6.86,27.53-8.39,36.86-1,6.25-9.86,22.2-13.71,21.31-10.84-2.49-16.92-20.86-26.67-26.21-5.74-3.14-8.25-6.09-13.73-2.52"/><path class="cls-2" d="M370.15,66.09s31.77,11.39,41.17-10.81l-1.27-37.4H371.23Z"/><path class="cls-1" d="M194.9,91.6C207.66,97,203.15,79.21,203.85,75c.55-3.32-8.95-16.55-8.95-16.55L183.74,42.93s-4.53-3.39-6.21-4.37-13-8.64-13-8.64L157.69,19l-4.15,7,3.63,7.56,7.56,8.75-14.38,1.37-4.85,9.49,8.72,24,19.26,3.06,9.46-2.76Z"/><path class="cls-3" d="M349.83,100.74c-4.31,21.53-18,24.68-25.91,30.88-12.62,9.85-29.26,38.17-39.72,50.2-4.92,5.67-18.46,17-27.07,9.22h0c-10.65-10.56-2.95-23.88,1.29-29.79,8.62-12,28.33-34.49,34.89-47.79,4.88-9.91,7.64-20.68,23.11-29.78,0,0,15.3-10.15,26.26-3,7,4.59,8.92,11.18,7.15,20.06Z"/><path class="cls-3" d="M368.6,53.65h43l.29,11.14,60.66,18.89L507.7,154l8.17,28.49-48.26,48.75L453,236.39c-2.28-.1-3.51-18.4-5.29-24.1-.55-1.73,30.33-35,27.3-39.1s-17.35-36.07-17.35-36.07-7.11,33.47-6.49,35.83,6.11,73.73,6.11,73.73L453,258.37s5,20.21,4.66,22.3c-.45,2.51-127.83.32-127.28-2.95,1.87-11,5.53-25.44,5.53-25.44s-6.43-9.93-6.06-11.78c1.62-8.1,8.15-49.89,7.47-56.92s-8.16-49.75-9.73-46.43-54.74,61.23-62.42,64.77-77.58-105.4-77.74-101.84,2-6.27,2-6.27l-4.93-11.1,19.57-14.47,4.8,7.38c.46.82,11.77,3.75,9.38,2.51-1.66-.86,52.75,66.4,52.75,66.4l36.13-59.92s62.48-16,61.16-20.71Z"/><rect class="cls-3" x="366.39" y="45.76" width="47.65" height="9.9" rx="3.23"/><polygon class="cls-4" points="453.74 201.79 453 236.39 467.61 231.26 462.26 193.68 453.74 201.79"/></g></svg>