<?xml version="1.0" encoding="utf-8"?>
<!-- Generator: Adobe Illustrator 26.0.1, SVG Export Plug-In . SVG Version: 6.00 Build 0)  -->
<svg version="1.1" id="Calque_1" xmlns="http://www.w3.org/2000/svg" xmlns:xlink="http://www.w3.org/1999/xlink" x="0px" y="0px"
	 viewBox="0 0 388 354.5" style="enable-background:new 0 0 388 354.5;" xml:space="preserve">
<style type="text/css">
	.st0{fill:#D68F72;}
	.st1{fill:#BF673C;}
	.st2{fill:#72615B;}
</style>
<g id="Calque_10">
	<path class="st0" d="M193,167c-5.5-3.6-8-0.6-13.7,2.5c-9.8,5.3-15.8,23.7-26.7,26.2c-3.9,0.9-12.7-15.1-13.7-21.3
		c-1.5-9.3,2.5-27.5-8.4-36.9c-9.2-7.9-21.5-3.7-25.5-16.3c-7-22,17.3-35.8,27.2-39.7c15.2-5.9,33.3-7.8,39.7-16.9l0.9-27.7
		l0.7-20.2l18.3-0.8h2.2l18.3,0.8l0.7,20.2l0.9,27.7c6.4,9.1,28.4,8.3,43.5,14.2c10,3.9,30.4,20.4,23.4,42.4
		c-4,12.6-16.2,8.4-25.5,16.3c-10.9,9.3-6.9,27.5-8.4,36.8c-1,6.3-9.9,22.2-13.7,21.3c-10.8-2.5-16.9-20.9-26.7-26.2
		C201,166.4,198.5,163.4,193,167"/>
	<path class="st1" d="M172.5,65c0,0,31.8,11.4,41.2-10.8l-1.3-37.4h-38.8L172.5,65z"/>
	<path class="st0" d="M153.4,100.1c-4.3,21.5-18,24.7-25.9,30.9c-12.6,9.9-29.3,38.2-39.7,50.2c-4.9,5.7-18.5,17-27.1,9.2l0,0
		c-10.7-10.6-3-23.9,1.3-29.8c8.6-12,28.3-34.5,34.9-47.8c4.9-9.9,7.6-20.7,23.1-29.8c0,0,15.3-10.2,26.3-3
		C153.3,84.6,155.2,91.2,153.4,100.1L153.4,100.1z"/>
	<path class="st0" d="M230.8,100.1c4.3,21.5,18,24.7,25.9,30.9c12.6,9.9,29.3,38.2,39.7,50.2c4.9,5.7,18.5,17,27.1,9.2l0,0
		c10.7-10.6,3-23.9-1.3-29.8c-8.6-12-28.3-34.5-34.9-47.8c-4.9-9.9-7.6-20.7-23.1-29.8c0,0-15.3-10.2-26.3-3
		C230.9,84.6,229,91.2,230.8,100.1L230.8,100.1z"/>
	<path class="st0" d="M306.2,176.1c3.4-14.7,14.8-12.4,21-11.7c6.8,0.7,69.6,21.6,86.8,26.9c9.7,3,15,4.3,13.7,10.2
		c-1.1,5.4-11.6,5.9-15.7,5.5c-44.1-5.1-54.6-6.7-93.9-13.1C299.5,190.8,305.3,179.9,306.2,176.1z"/>
	<path class="st0" d="M415.8,191.8c0,0,9-8.4,11.1-9.1s12.5-4.1,14-5s9.4-8.3,10.1-7.2c0.3,0.4,0.7,1.4,1.2,2.5
		c0.9,2,0.6,4.3-0.8,5.9l-1.7,2c-1.3,1.5-2.9,2.7-4.7,3.6l-7,3.2l16.1,3.9l20.9,0.9c1.5,0.1,2.8,1.2,3,2.7l0,0
		c0.3,1.7-0.9,3.4-2.7,3.6c-0.2,0-0.3,0-0.5,0l-22.7,0.2l25.4,6.6c1.9,0.5,3,2.4,2.5,4.3l0,0l0,0c-0.5,1.9-2.4,3-4.3,2.5l0,0
		l-27.1-7l24.4,11.1c1.8,0.8,2.5,2.9,1.7,4.6c0,0.1-0.1,0.1-0.1,0.2l0,0c-0.8,1.6-2.8,2.3-4.4,1.6l-23.3-9.7l13.2,10
		c1.5,1.1,1.8,3.3,0.6,4.8c-0.1,0.1-0.1,0.2-0.2,0.2l0,0c-1.1,1.2-2.8,1.4-4.2,0.6l-15.8-9.3l-23.5-7.7l-5.1-5.1L415.8,191.8z"/>
	<path class="st0" d="M79.8,176.1c-3.4-14.7-14.8-12.3-21-11.7C52,165-10.8,186-28,191.2c-9.7,3-15,4.3-13.7,10.2
		c1.1,5.4,11.6,5.9,15.6,5.5c44.1-5.1,54.6-6.7,93.9-13.1C86.5,190.7,80.7,179.8,79.8,176.1z"/>
	<path class="st0" d="M-30.6,191.8c0,0-9-8.4-11.1-9.1s-12.6-4.1-14-5s-9.4-8.3-10.1-7.2c-0.3,0.4-0.7,1.4-1.2,2.5
		c-0.9,2-0.6,4.3,0.8,5.9l1.7,2c1.3,1.5,2.9,2.7,4.7,3.6l7,3.2l-16.1,3.9l-20.9,0.9c-1.5,0.1-2.8,1.2-3,2.7l0,0
		c-0.3,1.7,0.9,3.4,2.7,3.6c0.2,0,0.3,0,0.5,0L-67,199l-25.4,6.6c-1.9,0.5-3,2.4-2.5,4.3l0,0c0.5,1.9,2.4,3,4.3,2.5l27.1-7
		l-24.4,11.1c-1.8,0.8-2.5,2.9-1.7,4.6c0,0.1,0.1,0.1,0.1,0.2l0,0c0.8,1.6,2.8,2.3,4.4,1.6l23.3-9.7l-13.2,10
		c-1.5,1.1-1.8,3.3-0.6,4.8c0.1,0.1,0.1,0.2,0.2,0.2l0,0c1.1,1.2,2.8,1.4,4.2,0.6l15.8-9.3l23.5-7.7l5.1-5.1L-30.6,191.8z"/>
	<path class="st2" d="M147.1,71.6c1.6,0-12,3.8-12,3.8c0.3,15.1-3.6,61.8-3.6,61.8s0.9,65.1-2,86.5c-1.6,11.9-11.7,46.7-11.7,46.7
		c-2.8,13.2,5.6,26.2,18.8,29c1.7,0.4,3.4,0.5,5.1,0.5l107.9,0.1c11.6,0,20.9-9.4,20.9-20.9c0-2.1-0.3-4.1-0.9-6.1
		c0,0-12-36-14.6-48.3c-2.7-12.5,0.5-83.5,0.5-83.5l-3.9-66.1l-14-3.5c-11.8,3.4-37.3,13.9-40.5,13.9
		C193.1,85.4,147.1,71.6,147.1,71.6"/>
</g>
</svg>
