<?xml version="1.0" encoding="utf-8"?>
<!-- Generator: Adobe Illustrator 26.0.1, SVG Export Plug-In . SVG Version: 6.00 Build 0)  -->
<svg version="1.1" id="Calque_1" xmlns="http://www.w3.org/2000/svg" xmlns:xlink="http://www.w3.org/1999/xlink" x="0px" y="0px"
	 viewBox="0 0 388 354.5" style="enable-background:new 0 0 388 354.5;" xml:space="preserve">
<style type="text/css">
	.st0{fill:#D68F72;}
	.st1{fill:#BF673C;}
	.st2{fill:#DECF90;}
	.st3{fill:#B5AA79;}
</style>
<g id="Calque_10">
	<path class="st0" d="M215,171.9c-5.5-3.6-8-0.6-13.7,2.5c-9.8,5.3-15.8,23.7-26.7,26.2c-3.9,0.9-12.7-15.1-13.7-21.3
		c-1.5-9.3,2.5-27.5-8.4-36.9c-9.2-7.9-21.5-3.7-25.5-16.3c-7-22,17.3-35.8,27.2-39.7c15.2-5.9,33.3-7.8,39.7-16.9l0.9-27.7
		l0.7-20.2l18.3-0.8h2.2l18.3,0.8l0.7,20.2l0.9,27.7c6.4,9.1,28.4,8.3,43.5,14.2c10,3.9,30.4,20.4,23.4,42.4
		c-4,12.6-16.2,8.4-25.5,16.3c-10.9,9.3-19.2,27.1-20.8,36.4c-1,6.2-13.3,15.2-17.2,14.4c-10.8-2.5-1.1-13.5-10.8-18.8
		C223,171.3,220.5,168.3,215,171.9"/>
	<path class="st1" d="M193.9,69.9c0,0,32.4,10.6,41.8-11.6l-1.2-37.4L195,21.7L193.9,69.9z"/>
	<path class="st0" d="M179.4,105.3c-4.3,21.5-18,24.7-25.9,30.9c-12.6,9.8-29.3,38.2-39.7,50.2c-4.9,5.7-18.5,17-27.1,9.2l-3.8-2.5
		c-10.6-10.6,0.9-21.4,5.1-27.3c8.6-12,28.3-34.5,34.9-47.8c4.9-9.9,9.8-18.1,25.3-27.2c0,0,16.9-9.5,27.9-2.3
		C183,93,181.2,96.4,179.4,105.3L179.4,105.3z"/>
	<path class="st0" d="M104.5,193.9c9.9-13.6,1-17.2-0.8-23.2c-5.3-18.5-46.6-56.1-58-69.9C39.3,92.9,36,88.6,31,92
		c-4.6,3.1-0.6,12.7,0.9,16.6c3.3,8.4,44.2,75.8,48,81.7C87.9,202.6,101.6,198,104.5,193.9z"/>
	<path class="st0" d="M9.5,60.6l-1.1,2.7c-0.8,2-0.6,4.2,0.4,6c0.4,0.7,0.8,1.3,1.2,1.9c1.2,1.6,3.1,4.8,3.1,4.8l3.8,7.6
		c-5.5,0.8-7.5,2-14.1,2.5c-5.1,0.4-16.4-2.6-21.2-4.7c-2.6-1.2-6.9-5.9-9.6-6.3c-2-0.3-7.1,2.8-7.1,2.8L-24,88.2
		c0,0,19.6,9.8,26.3,12.4c7.2,2.8,22.3,6.8,29.8,7c2.4,0,7.2,0.1,9.9-4.2c2.4-3.7,0.4-8-1-10.6C38.9,88.7,9.9,60.7,9.5,60.6z"/>
	<path class="st0" d="M255.1,106.9c4.3,21.5,18,24.7,25.9,30.9c12.6,9.8,29.3,38.2,39.7,50.2c4.9,5.7,18.5,17,27.1,9.2l0,0
		c10.7-10.6,3-23.9-1.3-29.8c-8.6-12-28.3-34.5-34.9-47.8c-4.9-9.9-7.6-20.7-23.1-29.8c0,0-15.3-10.2-26.3-3
		C255.2,91.4,253.3,98,255.1,106.9L255.1,106.9z"/>
	<polyline class="st2" points="281,320 264.1,192.7 281,137.7 318.2,125.7 299.1,91.2 212.1,102.8 133.4,87.1 108.2,119.7 
		149.6,142 161.5,204.1 158.4,304.9 	"/>
	<path class="st3" d="M149.6,142c5.5-1.1,61.6,6.9,65.6,8.2s65.8-12.5,65.8-12.5l-6.6,21.5L216,169.6l-61.8-9.1L149.6,142"/>
	<path class="st0" d="M348.5,187.1c-3.9-14.5-15.2-11.8-21.4-11c-6.7,0.9-68.8,24.1-85.8,29.9c-9.6,3.3-14.8,4.8-13.4,10.7
		c1.3,5.3,11.7,5,15.8,4.9c38.5-0.8,67.6-3.4,93.4-16.4C354,196.7,349.5,190.8,348.5,187.1z"/>
	<path class="st0" d="M201.4,206.3c-7.6,4.1-19.1,9.3-19.1,9.3s5.9,4.6,8.3,4.9c2,0.2,10.5-4,10.5-4l15.1,2.6
		c-3.2,4.5-10.8,6.8-15,11.9c-3.2,3.9-13.3,10-18.1,12c-2.6,1.1-9,0.9-11.2,2.6c-1.6,1.2-2.9,7.1-2.9,7.1l15.1-0.9
		c0,0,20.6-7.3,27.2-10.3c7-3.2,20.4-11.3,25.8-16.6c1.7-1.7,5-5.1,3.9-10.1c-1-4.3-5.4-5.8-8.3-6.7
		C228,206.9,201.7,206.1,201.4,206.3z"/>
</g>
</svg>
