<svg xmlns="http://www.w3.org/2000/svg" viewBox="0 0 788 1005"><defs><style>.cls-1{fill:#d68f72;}.cls-2{fill:#bf673c;}.cls-3{fill:#bdb15c;}.cls-4{fill:#aa9d5e;}</style></defs><g id="Calque_10" data-name="Calque 10"><path class="cls-1" d="M390.64,420.16c-5.48-3.58-8-.63-13.73,2.51-9.75,5.35-15.83,23.72-26.67,26.22-3.85.88-12.68-15.07-13.71-21.32-1.53-9.33,2.52-27.52-8.39-36.86-9.24-7.9-21.45-3.68-25.46-16.29-7-22,17.26-35.79,27.21-39.65,15.17-5.88,33.33-7.79,39.71-16.93l.94-27.7.69-20.18,18.32-.81h2.18l18.32.81.69,20.18.94,27.7c6.38,9.14,28.35,8.35,43.52,14.24,9.95,3.85,30.39,20.36,23.4,42.34-4,12.61-16.22,8.39-25.46,16.29-10.91,9.34-6.86,27.53-8.39,36.86-1,6.25-9.86,22.2-13.71,21.32-10.84-2.5-16.92-20.87-26.67-26.22-5.74-3.14-8.25-6.09-13.73-2.51"/><path class="cls-2" d="M370.15,318.16s31.77,11.4,41.17-10.81L410.05,270H371.23Z"/><path class="cls-1" d="M194.9,343.67c12.76,5.44,8.25-12.39,8.95-16.65.55-3.32-8.95-16.54-8.95-16.54L183.74,295s-4.53-3.39-6.21-4.37-13-8.64-13-8.64l-6.83-10.89-4.15,7,3.63,7.57,7.56,8.74-14.38,1.37-4.85,9.49,8.72,24,19.26,3.06,9.46-2.76Z"/><path class="cls-3" d="M349.83,352.81c-4.31,21.53-18,24.68-25.91,30.88-12.62,9.85-29.26,38.17-39.72,50.21-4.92,5.67-18.46,17-27.07,9.21h0c-10.65-10.56-2.95-23.87,1.29-29.79,8.62-12,28.33-34.49,34.89-47.79,4.88-9.9,7.64-20.68,23.11-29.77,0,0,15.3-10.16,26.26-3,7,4.6,8.92,11.19,7.15,20.06Z"/><path class="cls-3" d="M368.6,305.72h43l.29,11.14,60.66,18.89,35.19,70.36,8.17,28.48-48.26,48.75L453,488.46c-2.28-.09-3.51-18.39-5.29-24.1-.55-1.73,30.33-35,27.3-39.1s-17.35-36.07-17.35-36.07-7.11,33.47-6.49,35.83,6.11,73.73,6.11,73.73L453,510.44s5,20.21,4.66,22.31c-.45,2.5-127.83.31-127.28-3,1.87-11,5.53-25.43,5.53-25.43s-6.43-9.94-6.06-11.79c1.62-8.09,8.15-49.89,7.47-56.92s-8.16-49.75-9.73-46.43S272.85,450.45,265.17,454s-77.58-105.4-77.74-101.84,2-6.27,2-6.27l-4.93-11.1,19.57-14.46,4.8,7.37c.46.82,11.77,3.76,9.38,2.51-1.66-.86,52.75,66.4,52.75,66.4l36.13-59.91s62.48-16,61.16-20.72Z"/><rect class="cls-3" x="366.39" y="297.84" width="47.65" height="9.9" rx="3.23"/><polygon class="cls-4" points="453.74 453.86 453 488.46 467.61 483.34 462.26 445.75 453.74 453.86"/></g></svg>