<svg xmlns="http://www.w3.org/2000/svg" viewBox="0 0 788 354.46"><defs><style>.cls-1{fill:#d68f72;}.cls-2{fill:#bf673c;}.cls-3{fill:#3fa9f5;}</style></defs><g id="Calque_10" data-name="Calque 10"><path class="cls-1" d="M393,167c-5.48-3.57-8-.62-13.73,2.52-9.75,5.34-15.83,23.72-26.67,26.21-3.85.89-12.68-15.06-13.71-21.32-1.53-9.32,2.52-27.51-8.39-36.85-9.24-7.91-21.45-3.68-25.46-16.29-7-22,17.26-35.8,27.21-39.65,15.17-5.88,33.33-7.79,39.71-16.93L372.9,37l.69-20.19L391.91,16h2.18l18.32.81L413.1,37l.94,27.7c6.38,9.14,28.35,8.35,43.52,14.23C467.51,82.8,488,99.31,481,121.29c-4,12.61-16.22,8.38-25.46,16.29-10.91,9.34-6.86,27.53-8.39,36.85-1,6.26-9.86,22.21-13.71,21.32-10.84-2.49-16.92-20.87-26.67-26.21C401,166.4,398.48,163.45,393,167"/><path class="cls-2" d="M372.51,65s31.77,11.39,41.17-10.81l-1.27-37.4H373.59Z"/><path class="cls-1" d="M443.32,103.34c1.62,21.9,14.79,26.71,21.92,33.84,11.31,11.32,25.66,42.08,34.28,55.49,4.06,6.32,15.84,19.46,25.47,13h0c12-8.92,6.34-23.2,3-29.67-6.8-13.14-25.27-39.08-30.14-53.08-3.63-10.43-5-21.46-19.27-32.39,0,0-13.94-12-25.69-6.2-7.56,3.69-10.24,10-9.56,19Z"/><path class="cls-1" d="M522.51,177.84c13.4,6.89,9.86,18.8,7.72,24.72-2.31,6.39-37.88,61.87-46.89,77.43-5.09,8.79-7.57,13.61-13.06,11.09-5-2.3-4.92-7.19-1.81-16.48,15.81-47.31,15.84-55.48,31.76-88.16C507,172.54,519.09,176.09,522.51,177.84Z"/><path class="cls-1" d="M353.45,108.85c-4.31,21.53-18,24.69-25.92,30.89-12.61,9.84-29.26,38.16-39.71,50.2-4.93,5.67-18.46,17-27.07,9.21h0c-10.65-10.56-2.95-23.87,1.29-29.79,8.61-12,28.33-34.49,34.89-47.79,4.88-9.9,7.64-20.68,23.1-29.77,0,0,15.31-10.16,26.26-3,7,4.6,8.93,11.19,7.16,20.06Z"/><path class="cls-1" d="M270.36,197.79c15-1.18,14.4-12.78,14.71-19.06.33-6.78-11.08-72-13.75-89.83-1.51-10.05-2-15.44-8.08-15.11-5.49.3-7.6,10.57-7.73,14.67-1.48,44.39-1.48,55-.92,94.8C254.86,202.25,266.52,198.09,270.36,197.79Z"/><path class="cls-1" d="M285.42,62.61a6.93,6.93,0,0,1,3.4-3c2.52-1,6.23-2.35,5.95-1.09-.43,1.9-7.23,19.44-7.23,19.44S276.83,84.41,272.34,95c-1,2.3-15.06.89-15.06.89l-1-7.44L243.81,64.65l-1.47-29.44A2.14,2.14,0,0,1,244.18,33h0a2.13,2.13,0,0,1,2.4,1.78l4.62,21-3.12-33.13a3,3,0,0,1,2.55-3.1l.25,0a3,3,0,0,1,3.3,2.32l4.38,28-.73-28.45a3,3,0,0,1,2.56-3.17h0a3,3,0,0,1,3.34,2.54l4,29.35,7.55-8.7c2-.27,10.48,4.19,10.48,4.19.48,1,3.82,9.93,3.82,9.93l-3.31-.3A5.36,5.36,0,0,1,281.85,52l-.27-.61-2.91-.46L275,60.54l2.95,9.12,4.48-1.72Z"/><path class="cls-3" d="M288.67,120.6l34.46,36.78L332.25,144l8.28,117.51h102L456.5,137.15l14.89,26.67,38.45-27.92-31.2-50.45L440.72,73.7S406,85.79,394,85.45c-10.74-.3-41-12.78-41-12.78L316.48,85.21,288.67,120.6"/><path class="cls-1" d="M436.13,288.17s-1.52-3.93-.7-4.61,15.42-7.72,16.23-7.46,15.79.15,16.9,0,11.36,8.34,10.91,9-11.18,23.12-12.81,23.54-7.41,3.91-8.22,3.65S440,299.11,440,299.11l2-8Z"/></g></svg>