<?xml version="1.0" encoding="utf-8"?>
<!-- Generator: Adobe Illustrator 26.0.1, SVG Export Plug-In . SVG Version: 6.00 Build 0)  -->
<svg version="1.1" id="Calque_1" xmlns="http://www.w3.org/2000/svg" xmlns:xlink="http://www.w3.org/1999/xlink" x="0px" y="0px"
	 viewBox="0 0 488 354.5" style="enable-background:new 0 0 488 354.5;" xml:space="preserve">
<style type="text/css">
	.st0{fill:#D68F72;}
	.st1{fill:#BF673C;}
	.st2{fill:#4E6566;}
	.st3{fill:#55427C;}
	.st4{fill:#BC7A68;}
</style>
<g id="Calque_10">
	<path class="st0" d="M224.3,182.3c-5.5-3.6-8-0.6-13.7,2.5c-9.8,5.3-15.8,23.7-26.7,26.2c-3.9,0.9-12.7-15.1-13.7-21.3
		c-1.5-9.3,2.5-27.5-8.4-36.9c-9.2-7.9-21.5-3.7-25.5-16.3c-7-22,13.5-38.5,23.4-42.3c15.2-5.9,37.1-5.1,43.6-14.2l0.9-27.7
		l0.7-20.2l18.3-0.8h2.2l18.3,0.8l0.7,20.2l0.9,27.7c6.4,9.1,28.4,8.3,43.5,14.2c10,3.9,30.5,20.4,23.5,42.3
		c-4,12.6-16.2,8.4-25.5,16.3c-10.9,9.3-6.9,27.5-8.4,36.9c-1,6.2-9.9,22.2-13.7,21.3c-10.8-2.5-16.9-20.9-26.7-26.2
		C232.3,181.6,229.8,178.7,224.3,182.3"/>
	<path class="st1" d="M203.3,80c0,0,32.3,11.7,41.7-10.5l-1.3-37.4h-38.9L203.3,80z"/>
	<path class="st0" d="M412.5,138.4c0.3-2.5,8.1-17.2,9-19.2s19-12.5,19.7-11.6s-1,6.2-1,6.2l-5.9,4.6l18.2-5c0,0,23.2-8.8,22.8-7.5
		c-0.2,2.2-0.3,4.4-0.3,6.6l-19.4,9.5l-6.3,15.9c0,0-22.9,10-26.1,9.6c-0.9-0.1-5.3,1.7-6.7-1.3
		C415.6,144.4,412.5,138.4,412.5,138.4z"/>
	<path class="st0" d="M267.1,265.2c6.5-28,3.5-111.2,1.7-120.5c-7.9-41.4-84.8-40.9-92.7,0.5c-3.7,19.2-4.1,92.2,2.5,120"/>
	<path class="st0" d="M172.6,109c3.2,19.6-8.5,27-13.8,34.9c-8.5,12.7-14.5,42.2-20.2,55.9c-2.7,6.5-11.5,20.7-22.2,17.2l0,0
		c-13.5-5.1-9.3-22.1-7.3-28.5c4-13.1,13.8-70.4,26.5-82.1c6.5-6,20.1-14.9,32.8-12.8C176.5,95,171.2,101,172.6,109z"/>
	<path class="st0" d="M264,113c2.7,19.6,16,23.3,23.5,29.3c11.8,9.6,26.2,36.1,35.7,47.5c4.5,5.4,17.1,16.4,26.2,9.9l0,0
		c11.4-8.9,2.4-23.9-1.4-29.4c-7.7-11.3-34.8-61.6-49.5-70.7c0,0-14.5-10-25.9-4.3C265.3,99.1,262.9,104.9,264,113L264,113z"/>
	<path class="st0" d="M335.4,195.5c5.9,9.5,16.1,5.4,24.3,0.7c5.9-3.4,56.1-43.6,70.8-53.9c8.3-5.8,6.4-7.8,3.4-13
		c-2.7-4.8-18.5,5.2-22.2,7.1c-36.9,19.7-44.9,17.6-69.7,34.6C326.5,181.6,333.4,192.2,335.4,195.5z"/>
	<rect x="165.3" y="242.6" class="st2" width="115.3" height="23.4"/>
	<path class="st3" d="M165.3,92.4c-0.3,5.8,0,64.5,0,64.5V227l2.3,27.4h107.7l5.3-26.9l3.2-79.3V92.5l-31.7-9.3
		c0,0-24.7,13.4-27,13.4S203.3,80,203.3,80L165.3,92.4z"/>
	<path class="st4" d="M106.5,204.8c-2.3-11,7.9-15,17.2-17.2c6.6-1.6,72.1-10.6,89.9-13.2c10-1.5,15.4-2.6,16.8,3.3
		c1.3,5.3-19.3,10.8-23.1,12.3c-35.4,14.1-50.2,19.5-79,28.1C110.1,223.5,107.3,208.6,106.5,204.8z"/>
	<path class="st4" d="M200.7,177.5c4.8-2.5,13.9-12.6,15.1-14.3s16.9-9.7,17.5-8.8s0.8,4.4,0.8,4.4l-8.8,7.4l22-4
		c0,0,14-2.9,18.5-2.2c1.3,0.2-0.9,4.6-0.9,4.6l-20.8,8l-6.4,13.2c-2,4.2-6.2,6.9-10.8,7c-5.2,0.1-11.3,0.2-13-0.3
		c-0.9-0.2-7.4-1.6-8.2-4.4C205.3,186.2,200.7,177.5,200.7,177.5z"/>
	<rect x="165.1" y="240.6" class="st2" width="115.3" height="23.4"/>
</g>
</svg>
