<svg xmlns="http://www.w3.org/2000/svg" viewBox="0 0 788 1005"><defs><style>.cls-1{fill:#d68f72;}.cls-2{fill:#bf673c;}.cls-3{fill:#decf90;}.cls-4{fill:#b5aa79;}</style></defs><g id="Calque_10" data-name="Calque 10"><path class="cls-1" d="M393,419.09c-5.48-3.57-8-.62-13.73,2.52-9.75,5.35-15.83,23.72-26.67,26.21-3.85.89-12.68-15.06-13.71-21.31-1.53-9.33,2.52-27.52-8.39-36.86-9.24-7.9-21.45-3.68-25.46-16.29-7-22,17.26-35.79,27.21-39.65,15.17-5.88,33.33-7.79,39.71-16.93l.94-27.7.69-20.19,18.32-.8h2.18l18.32.8.69,20.19.94,27.7c6.38,9.14,28.35,8.35,43.52,14.23,9.95,3.86,30.39,20.37,23.4,42.35-4,12.61-16.22,8.39-25.46,16.29-10.91,9.34-19.25,27.09-20.78,36.42-1,6.25-13.33,15.25-17.18,14.37-10.84-2.5-1.06-13.48-10.81-18.83-5.74-3.14-8.25-6.09-13.73-2.52"/><path class="cls-2" d="M371.88,317.1s32.38,10.58,41.78-11.62l-1.16-37.39-39.54.8Z"/><path class="cls-1" d="M357.38,352.49c-4.3,21.54-18,24.69-25.91,30.89-12.62,9.85-29.26,38.17-39.71,50.2-4.93,5.67-18.47,17-27.07,9.22l-3.84-2.51c-10.65-10.56.89-21.37,5.12-27.29,8.62-12,28.34-34.48,34.89-47.78,4.89-9.91,9.84-18.14,25.31-27.24,0,0,16.9-9.5,27.86-2.35,7,4.6,5.13,8,3.35,16.86Z"/><path class="cls-1" d="M282.54,441.07c9.87-13.63,1-17.16-.77-23.21-5.28-18.5-46.59-56.06-58-69.93-6.47-7.83-9.7-12.17-14.7-8.78-4.55,3.08-.6,12.74.92,16.55,3.34,8.4,44.22,75.79,48,81.74C265.94,449.83,279.59,445.15,282.54,441.07Z"/><path class="cls-1" d="M187.54,307.78l-1.08,2.66a6.82,6.82,0,0,0,.41,6,16.56,16.56,0,0,0,1.25,1.91c1.21,1.59,3.12,4.78,3.12,4.78l3.73,7.63c-5.48.85-7.54,2-14.1,2.47-5.05.38-16.44-2.58-21.24-4.68-2.62-1.15-6.88-5.88-9.65-6.29-2-.28-7.12,2.84-7.12,2.84L154,335.35s19.56,9.8,26.31,12.41c7.21,2.8,22.3,6.84,29.83,7,2.43,0,7.21.06,9.94-4.23,2.36-3.69.42-8-1-10.59C216.91,335.85,187.9,307.89,187.54,307.78Z"/><path class="cls-1" d="M433.05,354c4.3,21.54,18,24.69,25.91,30.89,12.62,9.84,29.26,38.17,39.71,50.2,4.93,5.67,18.47,17,27.07,9.21h0c10.65-10.56,3-23.87-1.28-29.79-8.62-12-28.34-34.49-34.89-47.78-4.89-9.91-7.65-20.68-23.11-29.78,0,0-15.3-10.16-26.26-3-7,4.6-8.93,11.19-7.15,20.06Z"/><polyline class="cls-3" points="458.96 567.22 442.07 439.92 458.96 384.91 496.15 372.89 477.07 338.34 390.09 349.95 311.38 334.3 286.17 366.84 327.58 389.22 339.52 451.24 336.35 552.04"/><path class="cls-4" d="M327.59,389.22c5.55-1.1,61.58,6.9,65.57,8.23S459,384.91,459,384.91l-6.6,21.5L394,416.76l-61.75-9.08-4.66-18.46"/><path class="cls-1" d="M526.45,434.27c-3.9-14.54-15.19-11.82-21.43-11-6.72.91-68.8,24.07-85.8,29.94-9.6,3.33-14.79,4.84-13.37,10.71,1.31,5.34,11.74,5,15.83,4.92,38.52-.84,67.55-3.41,93.38-16.44C532,443.87,527.45,438,526.45,434.27Z"/><path class="cls-1" d="M379.39,453.45c-7.6,4.14-19.14,9.26-19.14,9.26s5.85,4.62,8.28,4.9c2,.23,10.47-4,10.47-4l15.1,2.61c-3.2,4.54-10.84,6.8-15,11.87-3.23,3.89-13.27,10-18.12,12-2.64,1.09-9,.86-11.23,2.58-1.57,1.21-2.9,7.08-2.9,7.08l15.09-.87s20.64-7.25,27.21-10.29c7-3.25,20.41-11.29,25.75-16.61,1.72-1.71,5.05-5.13,3.87-10.08-1-4.26-5.44-5.83-8.31-6.66C406,454,379.72,453.27,379.39,453.45Z"/></g></svg>