<svg xmlns="http://www.w3.org/2000/svg" viewBox="0 0 788 1005"><defs><style>.cls-1{fill:#d68f72;}.cls-2{fill:#bf673c;}.cls-3{fill:#4694b5;}</style></defs><g id="Calque_10" data-name="Calque 10"><path class="cls-1" d="M393,419.09c-5.48-3.57-8-.62-13.73,2.52-9.75,5.35-15.83,23.72-26.67,26.21-3.85.89-12.68-15.06-13.71-21.31-1.53-9.33,2.52-27.52-8.39-36.86-9.24-7.9-21.45-3.68-25.46-16.29-7-22,17.26-35.79,27.21-39.65,15.17-5.88,33.33-7.79,39.71-16.93l.94-27.7.69-20.19,18.32-.8h2.18l18.32.8.69,20.19.94,27.7c6.38,9.14,28.35,8.35,43.52,14.23,9.95,3.86,30.39,20.37,23.4,42.35-4,12.61-16.22,8.39-25.46,16.29-10.91,9.34-6.86,27.53-8.39,36.86-1,6.25-9.86,22.2-13.71,21.31-10.84-2.49-16.92-20.86-26.67-26.21-5.74-3.14-8.25-6.09-13.73-2.52"/><path class="cls-2" d="M372.51,317.1s31.77,11.39,41.17-10.81l-1.27-37.4H373.59Z"/><path class="cls-1" d="M344.13,341.38c8.38,17.95-.87,28.24-3.85,37.35-4.73,14.47-2.53,44.53-4.32,59.3-.84,7-5.5,23-16.7,22.51h0c-14.37-1.29-14.91-18.77-14.76-25.5.3-13.69-4.05-70.62,3.38-86.22,0,0,6.72-16.27,19.46-17.6,8.19-.85,13.33,2.76,16.79,10.16Z"/><path class="cls-1" d="M322.89,460.55c-10.65,3.53-15.79-6.15-19.07-15.09-2.33-6.38-18.72-70.45-23.4-87.81-2.64-9.81-4.31-15,1.35-17.08,5.15-1.92,10.74,6.9,13,10.34,20.93,32.34,35.11,57.8,38.83,86.49C336,456.24,326.54,459.34,322.89,460.55Z"/><path class="cls-1" d="M276.73,311.22A82.3,82.3,0,0,1,267,298.35s-2.29,4.38-1.95,7c.28,2.14,5.49,11.23,5.49,11.23h0c-25.27-14.13-45.42-21.21-48.36-21.94-2.08-.51-7.94,2.3-7.94,2.3s23.94,14.25,30.39,18.67c22,15.05,27.24,23.06,34,36.3,1.2,2.33,15.08-.19,13-5.29-.72-1.78.47-12-1.29-14.73C283.29,321.07,277,311.52,276.73,311.22Z"/><path class="cls-1" d="M438,341c-8.39,17.95.86,28.24,3.84,37.36,4.73,14.46,2.54,44.53,4.32,59.29.85,7,5.51,23,16.7,22.52h0c14.38-1.3,14.92-18.78,14.77-25.5-.31-13.69,4.05-70.62-3.38-86.23,0,0-6.72-16.26-19.47-17.59C446.6,330,441.46,333.58,438,341Z"/><path class="cls-1" d="M459.25,460.15c10.64,3.53,15.78-6.16,19.06-15.1,2.34-6.37,18.73-70.44,23.41-87.8,2.64-9.81,4.31-15-1.35-17.08-5.16-1.92-10.74,6.89-13,10.33-20.93,32.35-35.11,57.81-38.83,86.5C446.13,455.83,455.6,458.94,459.25,460.15Z"/><path class="cls-1" d="M505.41,310.82A82.33,82.33,0,0,0,515.18,298s2.3,4.38,2,7c-.28,2.14-5.49,11.23-5.49,11.23h0C536.91,302.05,557.06,295,560,294.24c2.09-.52,8,2.3,8,2.3s-23.94,14.25-30.4,18.67c-21.95,15-27.23,23.06-34,36.3-1.19,2.33-15.07-.2-13-5.29.73-1.79-.46-12,1.29-14.73C498.85,320.67,505.14,311.12,505.41,310.82Z"/><path class="cls-3" d="M315.15,333.71c.06,0,17.38,27.66,20.81,104.32.77,17.12-4.45,87-4.45,87l122.38-5.78s-9.15-65.77-8-84.92c4.31-73.75,19.26-101.8,19.26-101.8l-52.51-18.15-9.29,27.09-18.39,1.62L371.1,315.7l-56,18h0"/></g></svg>