<?xml version="1.0" encoding="utf-8"?>
<!-- Generator: Adobe Illustrator 26.0.1, SVG Export Plug-In . SVG Version: 6.00 Build 0)  -->
<svg version="1.1" id="Calque_1" xmlns="http://www.w3.org/2000/svg" xmlns:xlink="http://www.w3.org/1999/xlink" x="0px" y="0px"
	 viewBox="0 0 388 354.5" style="enable-background:new 0 0 388 354.5;" xml:space="preserve">
<style type="text/css">
	.st0{fill:#D68F72;}
	.st1{fill:#BF673C;}
	.st2{fill:#BDB15C;}
	.st3{fill:#AA9D5E;}
</style>
<g id="Calque_10">
	<path class="st0" d="M204.6,170c-5.5-3.6-8-0.6-13.7,2.5c-9.8,5.4-15.8,23.7-26.7,26.2c-3.9,0.9-12.7-15.1-13.7-21.3
		c-1.5-9.3,2.5-27.5-8.4-36.9c-9.2-7.9-21.5-3.7-25.5-16.3c-7-22,17.3-35.8,27.2-39.7c15.2-5.9,33.3-7.8,39.7-16.9l0.9-27.7
		l0.7-20.2l18.3-0.8h2.2l18.3,0.8l0.7,20.2l0.9,27.7c6.4,9.1,28.3,8.4,43.5,14.2c10,3.9,30.4,20.4,23.4,42.3
		c-4,12.6-16.2,8.4-25.5,16.3c-10.9,9.3-6.9,27.5-8.4,36.9c-1,6.2-9.9,22.2-13.7,21.3c-10.8-2.5-16.9-20.9-26.7-26.2
		C212.6,169.4,210.1,166.4,204.6,170"/>
	<path class="st1" d="M184.1,68c0,0,31.8,11.4,41.2-10.8L224,19.8h-38.8L184.1,68z"/>
	<path class="st0" d="M8.9,93.5c12.8,5.4,8.2-12.4,9-16.6C18.5,73.6,9,60.3,9,60.3L-2.3,44.9c0,0-4.5-3.4-6.2-4.4s-13-8.6-13-8.6
		L-28.3,21l-4.1,7l3.6,7.6l7.6,8.8l-14.4,1.4l-4.9,9.5l8.7,24l19.3,3.1l9.5-2.8L8.9,93.5z"/>
	<path class="st2" d="M163.8,102.7c-4.3,21.5-18,24.7-25.9,30.9c-12.6,9.9-29.3,38.2-39.7,50.2c-4.9,5.7-18.5,17-27.1,9.2l0,0
		c-10.6-10.6-2.9-23.9,1.3-29.8c8.6-12,28.3-34.5,34.9-47.8c4.9-9.9,7.6-20.7,23.1-29.8c0,0,15.3-10.2,26.3-3
		C163.7,87.2,165.6,93.8,163.8,102.7z"/>
	<path class="st2" d="M182.6,55.6h43l0.3,11.1l60.7,18.9l35.1,70.3l8.2,28.5l-48.3,48.8l-14.6,5.1c-2.3-0.1-3.5-18.4-5.3-24.1
		c-0.5-1.7,30.3-35,27.3-39.1S271.7,139,271.7,139s-7.1,33.5-6.5,35.8s6.1,73.7,6.1,73.7l-4.3,11.7c0,0,5,20.2,4.7,22.3
		c-0.5,2.5-127.8,0.3-127.3-3c1.9-11,5.5-25.4,5.5-25.4s-6.4-9.9-6.1-11.8c1.6-8.1,8.1-49.9,7.5-56.9s-8.2-49.8-9.7-46.4
		s-54.7,61.2-62.4,64.8S1.6,98.4,1.4,102s2-6.3,2-6.3l-4.9-11.1l19.6-14.5l4.8,7.4c0.5,0.8,11.8,3.8,9.4,2.5
		C30.6,79.1,85,146.4,85,146.4l36.1-59.9c0,0,62.5-16,61.2-20.7L182.6,55.6z"/>
	<path class="st2" d="M183.6,47.7h41.2c1.8,0,3.2,1.4,3.2,3.2v3.4c0,1.8-1.4,3.2-3.2,3.2h-41.2c-1.8,0-3.2-1.4-3.2-3.2v-3.4
		C180.4,49.1,181.8,47.7,183.6,47.7z"/>
	<polygon class="st3" points="267.7,203.7 267,238.3 281.6,233.2 276.3,195.6 	"/>
</g>
</svg>
