<?xml version="1.0" encoding="utf-8"?>
<!-- Generator: Adobe Illustrator 26.0.2, SVG Export Plug-In . SVG Version: 6.00 Build 0)  -->
<svg version="1.1" id="Calque_1" xmlns="http://www.w3.org/2000/svg" xmlns:xlink="http://www.w3.org/1999/xlink" x="0px" y="0px"
	 viewBox="0 0 788 1005.1" style="enable-background:new 0 0 788 1005.1;" xml:space="preserve">
<style type="text/css">
	.st0{fill:#9F6042;}
	.st1{fill:#9CCBF2;}
	.st2{fill:#4D6FAA;}
</style>
<polygon points="198,514.6 198.1,514.6 198,514.5 "/>
<polygon points="198.1,514.6 198.1,514.6 198.1,514.5 "/>
<polygon points="198,514.6 198.1,514.6 198,514.5 "/>
<polygon points="198.1,514.6 198.1,514.6 198.1,514.5 "/>
<polygon points="197.6,515 197.7,514.9 197.6,514.9 "/>
<polygon points="197.7,514.9 197.8,515 197.8,514.9 "/>
<polygon points="197.6,515 197.7,514.9 197.6,514.9 "/>
<polygon points="197.7,514.9 197.8,515 197.8,514.9 "/>
<path class="st0" d="M370.1,521.1v-42.2c0,0-37.6-48.9-38.5-48.9s-22.8,21.1-22.8,21.1l-2.9,18.3l-6.2,71.3
	c0,0,11.4,152.2,11.4,153.8c0,0.5,0.4,4.6,0.8,9.6c1.1,12,11.1,21.1,23.1,21.1l0,0c11.3,0,17.2-4.3,19-15.5l2.5-15
	c0,0,9.5-83.5,8.3-85.5c-0.8-1.3,7.2-49.7,5.2-51.7S370.1,521.1,370.1,521.1z"/>
<path class="st0" d="M353.4,722.8c-0.2-0.9-7.2-39.6-18.5-39.6l0,0c-10.7,0-19.7,7.9-21.1,18.5l-0.9,7.2c0,0-4.9,66.6-3.9,68.1
	s19.7,116.3,19.7,119.1c0,6.5,5.1,11.8,11.6,12.2l0,0c7.6,0.4,8.7-4.2,7.8-11.7l12.7-126.8L353.4,722.8z"/>
<path class="st0" d="M339.6,883.6c-4.8-0.1-11.9,1.2-11.3,15.5c0.2,5-1.8,27.1-5.9,32.5c-1.1,1.5-1.9,5.7-5.4,8.3
	c-1,0.7-1.5,1.8-1.4,2.9c0,0.3,0,0.5,0,0.8l-0.3,1.8c-0.3,1.7,1,3.3,2.7,3.3l29.7,0.9c0.6,0,1.2-0.1,1.7-0.5h0
	c5.5-3.7,8.1-10.5,6.5-17l-4.2-16.4c0-0.1,0-0.2-0.1-0.3l-2.4-17.6c0-0.1,0-0.1,0-0.2l-0.8-4c0-0.1,0-0.1,0-0.2
	C347,883.8,346.7,883.8,339.6,883.6z"/>
<path class="st0" d="M376.5,388.2h-32.6c-9.5,0-17.9,6.2-20.6,15.4L307.6,456c0,0-19,49.1-20.6,61.8c-6,49.5,22.5,185.2,22.5,185.2
	s-4.3,55.8-3,74.4c1.6,23.5,25.5,139.4,25.5,139.4l11.4,5.4c0,0,18.4-125.4,18.9-150c0.3-16.3-5-48.7-5-65
	c0.1-36.6,12.6-109,16.5-145.3c1.1-10.1,4.1-43.5,4.1-43.5L376.5,388.2z"/>
<path class="st0" d="M401.9,722.8c0.2-0.9,7.2-39.6,18.5-39.6l0,0c10.7,0,19.7,7.9,21.1,18.5l0.9,7.2c0,0,4.9,66.6,3.9,68.1
	s-19.7,116.3-19.7,119.1c0,6.5-5.1,11.8-11.6,12.2l0,0c-7.6,0.4-8.7-4.2-7.8-11.7l-12.8-126.7L401.9,722.8z"/>
<path class="st0" d="M415.7,883.6c4.8-0.1,11.9,1.2,11.3,15.5c-0.2,5,1.8,27.1,5.9,32.5c1.1,1.5,1.9,5.7,5.4,8.3
	c1,0.8,1.6,2.1,1.4,3.3l1,5.4l-33.9,1l0,0c-6-4-8.8-11.4-7-18.4l4-15.6l2.4-17.8l0.8-4.2C408.3,883.8,408.6,883.8,415.7,883.6z"/>
<path class="st0" d="M360.9,388.2h50.6c9.5,0,17.9,6.2,20.6,15.4l15.6,52.4c0,0,19,49.1,20.6,61.8c6,49.5-22.5,185.1-22.5,185.1
	s4.3,55.8,3,74.4c-1.6,23.5-25.7,136.7-25.7,136.7l-8-5.7c0,0-21.6-111.6-22-136.2c-0.3-16.3,5-48.7,5-65
	c-0.1-36.6-12.6-109-16.5-145.3c-1.1-10.1-4.1-43.5-4.1-43.5L360.9,388.2z"/>
<path class="st1" d="M339.2,904.3L339.2,904.3c-5.8,0.1-11.1,3.5-13.6,8.8l0,0c-5.7,11.8-29.6,27.6-29.6,27.6
	c-4.3,3.3-6.4,8.7-5.4,14.1l0,0h58l3.3-1c3.7-1.1,6.2-4.7,5.8-8.6l-3.2-28.8C352.9,909.2,346.5,904.2,339.2,904.3z"/>
<path class="st2" d="M292.3,954.5L292.3,954.5c-0.8-4.7,2.4-9.1,7.1-9.9c0.1,0,0.1,0,0.2,0l34.5-5c4.4-0.6,8.6,2.2,9.7,6.6l2,8.2
	L292.3,954.5z"/>
<path class="st1" d="M415.4,904.3L415.4,904.3c5.8,0.1,11.1,3.5,13.6,8.8l0,0c5.7,11.8,29.5,27.7,29.5,27.7
	c4.3,3.3,6.4,8.7,5.5,14.1l0,0h-58l-3.3-1c-3.7-1.1-6.2-4.7-5.8-8.6l3.2-28.8C401.7,909.2,408.1,904.2,415.4,904.3z"/>
<path class="st2" d="M462.3,954.5L462.3,954.5c0.8-4.7-2.4-9.1-7.1-9.9c-0.1,0-0.1,0-0.2,0l-34.5-5c-4.4-0.6-8.6,2.2-9.7,6.6l-2,8.2
	L462.3,954.5z"/>
<path class="st2" d="M438.5,425c-0.9-5.9-3.6-13.5-3.6-13.5l-0.4-1c-0.7-1.8-1.2-3.7-1.5-5.6c-1.5-9.6-8.1-16.7-16-16.7h-78.5
	c-8.4,0-15.5,8.1-16.3,18.8l-5.3,18"/>
<path class="st2" d="M319.9,415.5c0,0-18.6,45.9-29.5,89s-16.2,76.7-4.2,120.2c12,43.5,0.8,105.7,0,113.2c-0.8,7.5,10.1,39,2.2,68.2
	c-7.9,29.2-16.9,47.2-15,62.6c1.9,15.4,11.6,34.5,20.6,35.4c9,0.9,25.5-3.2,46.1-2.1c20.6,1.1,18.3,1.9,19.1-12
	c0.8-13.9,12.1-108.4,11.1-124.9c-1-16.5-4.3-51-4-69.4c0.4-18.4,11.5-125.6,11.5-125.6s9.8,89.2,9.8,107.2c0,18-4.5,97.5-4.1,114.4
	s13.7,71.6,12.5,85.1c-1.2,13.5-13.6,25.9-4.6,27.2c9,1.3,78,14,77.6,0.1s-2-163.8-4.9-190.8c-3-27,17.1-109.1,11.7-180
	c-0.8-10.5-38.2-112.9-38.2-112.9L319.9,415.5z"/>
</svg>
