<?xml version="1.0" encoding="utf-8"?>
<!-- Generator: Adobe Illustrator 26.0.2, SVG Export Plug-In . SVG Version: 6.00 Build 0)  -->
<svg version="1.1" id="Layer_1" xmlns="http://www.w3.org/2000/svg" xmlns:xlink="http://www.w3.org/1999/xlink" x="0px" y="0px"
	 viewBox="0 0 588 605.7" style="enable-background:new 0 0 588 605.7;" xml:space="preserve">
<style type="text/css">
	.st0{fill:#374942;}
	.st1{fill:#D34B1C;}
	.st2{fill:#D3D3D3;}
	.st3{fill:#2E3532;}
</style>
<g id="Calque_1_00000168119210224901798890000005159474805026601887_">
	<path class="st0" d="M347.3,94.1c-25.2,2.7-16.5,10.2-43.9,19.2c0,0-12.5,0.5-11.7-0.1l-52.8-22.3l5.5-50.2
		c1.2-11.6-12-29.2-0.4-29.2l88.2,17.6c11.9,0,2.3,5.1,3.1,16.9L347.3,94.1z"/>
</g>
<rect x="219.1" y="488.1" class="st1" width="23.9" height="68.7"/>
<path class="st2" d="M231,538.3l-12,2.8l-7.6,22.4v7.2l-8.8,15.3c0,0,6,4.4,8.6,3.6c2.6-0.9,53.3-1.1,53.3-1.1v-5.2l-9.4-15.3
	l-7.6-23.8l-6.9-5.7H231V538.3z"/>
<rect x="350.6" y="491.9" class="st1" width="23.9" height="68.7"/>
<path class="st2" d="M362.7,541.9l12,2.8l7.6,22.4v7.2l8.9,15.3c0,0-5.4,3.7-8,2.7s-53.9-0.3-53.9-0.3v-5.2l9.4-15.4l7.6-23.8
	l6.9-5.7h9.4V541.9z"/>
<path class="st3" d="M215.3,102.1c0,2.8,0.7,178,0,180.8c-0.7,2.4-10.1,113.1-13.3,151.2c-0.7,8.3,0.2,16.7,2.8,24.6l15.2,46.8H243
	c0,0,12.1-28.3,18.4-42.9c2.4-5.5,3.7-11.5,3.9-17.6c0.9-31.1,3.8-131.6,5.7-140.3c3.1-14.1,21.1-192.6,21.1-192.6V34.6l-44.6-0.3
	c-14.7-0.1-10.5,13.1-12.1,29.5L215.3,102.1z"/>
<path class="st3" d="M377.6,163.8c0,2.9,0.6,114.4,1.4,117.4c0.7,2.4,16.5,104.8,22.2,142.1c1.3,8.8,0.2,17.8-3.1,26l-23.6,56.6
	l-23.7-2.7l-19-54.9c-2.5-7.2-3.6-14.7-3.4-22.3c0.9-30,3.4-108.9,4-110.7c0.8-2.2-30.3-206.1-30.3-206.1V34.9l45.1-0.3
	c14.8-0.1-8,15.7-6.4,32L377.6,163.8z"/>
<path class="st1" d="M225.5,14.6v9.4c0,1.7,1.1,3.1,2.5,3.1h121.4c1.4,0,2.5-1.4,2.5-3.1v-9.4c0-1.7-1.1-3.1-2.5-3.1H228
	C226.6,11.5,225.5,12.9,225.5,14.6z"/>
<path class="st1" d="M235.7,19.4c-0.8,0,2.2-0.3-1.5,0l-4.9,1.4c-2.8,4.4-2.2,16.7-3,21.9L187,250.6c-0.5,3.9,2.1,7.5,6,8
	c20.4,3,79.8,11.6,109,11.6c28.7,0,75.6-6.9,93-9.8c3.8-0.7,6.4-4.1,5.9-7.8L359.2,85.4c-3.9-15.8-6.3-32.1-6.4-48.4
	c0-2.6-0.3-8-0.9-8.9l-1.2-4.7c-0.4-0.7-5.1-1-5.9-1L235.7,19.4z"/>
<path class="st1" d="M209.6,582.1l-3.3-2.7l-3.8,6.6l3.8,2.8c1.3,1,3,1.5,4.7,1.5l53.4-2v-5.2l-49.2,1.1
	C213.2,584.2,211.2,583.5,209.6,582.1z"/>
<path class="st1" d="M329.2,586.8v5.2l52.6,2.4c1.6,0.1,3.3-0.4,4.7-1.4l4.7-3.4l-2.5-4.3l-3.7,3.1c-1.1,1-2.5,1.4-3.9,1.3
	L329.2,586.8z"/>
</svg>
