<svg xmlns="http://www.w3.org/2000/svg" viewBox="0 0 588 605.71"><defs><style>.cls-1{fill:#9f6042;}.cls-2{fill:#55525c;}.cls-3{fill:#167c52;}.cls-4{fill:#7c2c78;}</style></defs><g id="Calque_3" data-name="Calque 3"><rect class="cls-1" x="202.47" y="496.68" width="22.13" height="63.41"/><path class="cls-2" d="M213.53,542.92l-11.06,2.64-7,20.7v6.6L187.33,587s4.66,4.85,7,4,50.07-1.76,50.07-1.76v-4.85l-8.73-14.09-7-22-6.4-5.28Z"/><rect class="cls-1" x="323.91" y="500.13" width="22.13" height="63.41" transform="translate(669.95 1063.66) rotate(180)"/><path class="cls-2" d="M335,546.36,346,549l7,20.69v6.61l8.15,14.09s-4.66,4.84-7,4-50.07-1.76-50.07-1.76v-4.84l8.73-14.09,7-22,6.4-5.29Z"/><path class="cls-3" d="M198.44,136.39c0,2.64.72,169.1,0,171.74s-8.62,64.74-8.62,67.38,12.93,138.06,12.93,138.06l23.68-2.65S241.51,390,241.51,388.06s.72-46.9,0-48.88,28-188.54,28-188.54V78.9l-41.23-.29c-13.69-.09-25.23,11.27-26.72,26.31Z"/><path class="cls-3" d="M350.07,132.46c0,2.67-.72,170.62,0,173.28s8.62,65.31,8.62,68S345.76,513,345.76,513l-23.68-2.66s-15.08-122-15.08-124-.72-47.32,0-49.31-28-190.24-28-190.24V78.45l41.57-.35c13.71-.11,25.27,11.27,26.75,26.34Z"/><polygon class="cls-4" points="115.83 145.73 115.92 145.69 115.83 145.65 115.83 145.73"/><polygon class="cls-4" points="115.92 145.69 116.02 145.73 116.02 145.65 115.92 145.69"/><polygon class="cls-4" points="115.83 145.73 115.92 145.69 115.83 145.65 115.83 145.73"/><polygon class="cls-4" points="115.92 145.69 116.02 145.73 116.02 145.65 115.92 145.69"/><path class="cls-4" d="M312.3,61c15.56,5,22.34,9.27,26,16,3,5.4,5.81,17.79,6,24,.52,14.5-7.49,51-21.12,63.13-13.86,12.38-81.63,12.38-95.49,0-13.63-12.16-21.63-48.63-21.11-63.13.22-6.18,3-18.57,6-24,3.7-6.68,10.48-10.92,26-16,17.8-5.75,35.9-4.84,35.9-4.84S294.5,55.2,312.3,61Z"/><path class="cls-3" d="M313.32,61c15.55,5,22.33,9.27,26,16,3,5.4,5.81,17.79,6,24,.52,14.5-7.48,51-21.11,63.13-13.87,12.38-81.63,12.38-95.5,0-13.63-12.16-21.63-48.63-21.11-63.13.23-6.18,3.05-18.57,6-24,3.7-6.68,10.48-10.92,26-16,17.8-5.75,35.91-4.84,35.91-4.84S295.52,55.2,313.32,61Z"/><rect class="cls-3" x="228.28" y="78.61" width="95.64" height="73.56"/></g></svg>