<svg xmlns="http://www.w3.org/2000/svg" viewBox="0 0 588 605.71"><defs><style>.cls-1{fill:#3c3d4e;}.cls-2{fill:#9f6042;}.cls-3{fill:#4c56b4;}.cls-4{fill:#3d3d3d;}.cls-5{fill:#1a1818;}.cls-6{fill:#a6b42c;}</style></defs><g id="Calque_3" data-name="Calque 3"><polygon class="cls-1" points="115.57 157.4 115.66 157.36 115.57 157.31 115.57 157.4"/><polygon class="cls-1" points="115.66 157.36 115.76 157.4 115.76 157.31 115.66 157.36"/><polygon class="cls-1" points="115.57 157.4 115.66 157.36 115.57 157.31 115.57 157.4"/><polygon class="cls-1" points="115.66 157.36 115.76 157.4 115.76 157.31 115.66 157.36"/><path class="cls-1" d="M312,72.62c15.56,5,22.34,9.27,26,15.94,3,5.41,5.81,17.8,6,24,.53,14.51-7.48,51-21.11,63.13-13.86,12.38-81.63,12.38-95.49,0C213.88,163.5,205.88,127,206.4,112.53c.22-6.17,3-18.56,6-24,3.69-6.67,10.48-10.91,26-15.94,17.8-5.76,35.9-4.85,35.9-4.85S294.24,66.86,312,72.62Z"/><polygon class="cls-1" points="115.2 157.72 115.3 157.68 115.2 157.63 115.2 157.72"/><polygon class="cls-1" points="115.3 157.68 115.39 157.72 115.39 157.63 115.3 157.68"/><polygon class="cls-1" points="115.2 157.72 115.3 157.68 115.2 157.63 115.2 157.72"/><polygon class="cls-1" points="115.3 157.68 115.39 157.72 115.39 157.63 115.3 157.68"/><path class="cls-2" d="M265.49,163.83V121.61S227.92,72.7,227,72.7s-22.79,21.1-22.79,21.1l-2.87,18.26-6.26,71.3s11.44,152.26,11.43,153.77c0,.54.35,4.6.8,9.61a23.23,23.23,0,0,0,23.14,21.13h0c11.34,0,17.17-4.33,19.05-15.51l2.54-15s9.54-83.47,8.27-85.51c-.84-1.35,7.19-49.71,5.18-51.73S265.49,163.83,265.49,163.83Z"/><path class="cls-2" d="M251.8,365.51c-.22-.9-7.24-39.63-18.5-39.63h0a21.26,21.26,0,0,0-21.07,18.51l-.93,7.23s-4.93,66.57-3.94,68.08S227.08,536,227.09,538.8A12.3,12.3,0,0,0,238.7,551h0c7.58.42,8.68-4.15,7.83-11.71l12.76-126.74Z"/><path class="cls-3" d="M226.52,547.5H248.4s-.81,13.14,5.8,35.86c1.09,3.75-3.64,16.53-6.73,18.66-2.2,1.52-7.75,3.23-11.87,4.36a12.12,12.12,0,0,1-9.34-1.22c-5.28-3.09-13.63-8.36-15.37-11.7-1.37-2.65,2-11.88,2-11.88l6.32-14.25Z"/><path class="cls-2" d="M238,525.68c-4.79-.1-11.94,1.26-11.31,15.52.23,5-1.77,27.06-5.93,32.51-1.14,1.51-1.93,5.73-5.38,8.35A3.54,3.54,0,0,0,214,585.4l-1,5.39,33.89,1,3.92-13.11-1.66-16-1.59-33.57-1.34-4.73C245,514.47,245.11,525.85,238,525.68Z"/><path class="cls-4" d="M226,551.85l-3.57,27.49c0,4.36,7.17,1.48,11.53,1.48h0c5.06,0,11.7,7.67,12.84,2.75l1.63-36.07,3.16,32.82-1.86,13.14-36.7.82v-9.57l8-15.22Z"/><path class="cls-2" d="M297.31,365.51c.22-.9,7.25-39.63,18.5-39.63h0a21.25,21.25,0,0,1,21.07,18.51l.94,7.23s4.93,66.57,3.93,68.08S322,536,322,538.8a12.29,12.29,0,0,1-11.6,12.2h0c-7.59.42-8.68-4.15-7.84-11.71L289.83,412.55Z"/><polygon points="116.96 157.71 117.06 157.67 116.96 157.63 116.96 157.71"/><polygon points="117.06 157.67 117.15 157.71 117.15 157.63 117.06 157.67"/><polygon points="116.96 157.71 117.06 157.67 116.96 157.63 116.96 157.71"/><polygon class="cls-5" points="116.61 148.13 116.52 148.17 116.52 148.08 116.61 148.13"/><polygon points="116.71 148.08 116.71 148.17 116.61 148.13 116.71 148.08"/><polygon class="cls-5" points="116.61 148.13 116.52 148.17 116.52 148.08 116.61 148.13"/><polygon points="116.71 148.08 116.71 148.17 116.61 148.13 116.71 148.08"/><path class="cls-6" d="M180.93,483.5s5.56-313.09,8.6-333.9C194.6,115,218,41,218,41l114.23,1.31s24.6,69.84,24.6,107.29c0,15.92,8.76,258.6,12.8,328.64l-18.29.52L250.05,483.5,235.38,259.39l1.41,224.11Z"/><path class="cls-3" d="M324,548H302.16s.81,13.14-5.8,35.85c-1.09,3.76,3.64,16.54,6.73,18.67,2.2,1.52,7.74,3.23,11.86,4.36a12.14,12.14,0,0,0,9.35-1.22c5.28-3.09,13.63-8.36,15.36-11.7,1.37-2.65-2-11.88-2-11.88l-6.32-14.25Z"/><path class="cls-2" d="M312.54,526.15c4.8-.11,11.95,1.25,11.31,15.51-.22,5,1.78,27.07,5.93,32.52,1.15,1.5,1.94,5.73,5.39,8.35a3.54,3.54,0,0,1,1.42,3.34l1,5.39-33.89,1-3.91-13.12,1.66-16L303,529.58l1.34-4.73C305.6,514.93,305.45,526.31,312.54,526.15Z"/><path class="cls-4" d="M324.59,552.31l3.57,27.5c-.05,4.36-7.17,1.48-11.53,1.48h0c-5.06,0-11.7,7.67-12.84,2.74L302.16,548,299,580.79l1.87,13.14,36.69.81v-9.56L329.6,570Z"/></g></svg>