<?xml version="1.0" encoding="utf-8"?>
<!-- Generator: Adobe Illustrator 26.0.2, SVG Export Plug-In . SVG Version: 6.00 Build 0)  -->
<svg version="1.1" id="Calque_9" xmlns="http://www.w3.org/2000/svg" xmlns:xlink="http://www.w3.org/1999/xlink" x="0px" y="0px"
	 viewBox="0 0 388 454.8" style="enable-background:new 0 0 388 454.8;" xml:space="preserve">
<style type="text/css">
	.st0{fill:#9E6754;}
	.st1{fill:#90573A;}
	.st2{fill:#A85E85;}
	.st3{fill:#505D26;}
	.st4{fill:#006A44;}
	.st5{fill:#004282;}
	.st6{fill:#E05942;}
</style>
<path class="st0" d="M123.4,245.3c1.2,10.9,8.5,19.2,16.9,19.4l0,0c8.1,0.2,15.1-7.1,16.6-17.4c0,0,8.8-73.4,9-99.7
	c0-6.2-1.6-24.9-1.6-24.9l-3.9-43.5c0,0-2.8-20.5-19.5-23c-19.3-2.9-19.6,10.5-19.6,10.5s-6.2,69-6,90.9
	C115.5,177.8,123.4,245.3,123.4,245.3z"/>
<path class="st0" d="M261.2,237.2c0.8,11-4.9,20.4-13.2,22.1l0,0c-8,1.6-16.1-4.3-19.4-14.2c0,0-21.8-70.6-26.8-96.5
	c-1.2-6.1-2.9-24.8-2.9-24.8L195,80.3c0,0-1-20.7,15.1-26.1c18.5-6.3,21.2,6.8,21.2,6.8s18.5,66.8,22.2,88.3
	C256.9,169.3,261.2,237.2,261.2,237.2z"/>
<path class="st1" d="M140.2,228c-9.2,0.2-14.6,5.3-16,13.4c0,0-1.5,36.4-1.7,51.7c-0.4,24.6,2.5,74.7,6.5,99
	c0.9,5.3,2.8,21.3,2.8,21.3c0.5,4.6,4.4,8.1,9,8l0,0c4.6-0.4,8.1-4.1,8.2-8.7c0,0,0.8-18.5,1.4-24.7c2.2-22.3,9.5-66.6,10-89
	c0.3-13.5-2.3-54.8-2.3-54.8C157.1,230.7,148.1,228.1,140.2,228L140.2,228z"/>
<path class="st1" d="M245.4,220.3c9.1-1.3,15.1,2.9,17.7,10.8c0,0,7.5,34.3,9.9,49.7c3.8,24.6,3.4,122,3.4,122
	c0.1,4.9,0.2,11.4-4.2,11.9l0,0c-4.4,0.5-9.8-1.5-10.7-6.2c0,0-22.2-91-25.9-113.4c-2.2-13.5-5.5-55.4-5.5-55.4
	C229.2,226,237.7,221.8,245.4,220.3L245.4,220.3z"/>
<path class="st2" d="M138.5,405L138.5,405c-4.2,0.2-8,2.8-9.6,6.6l0,0c-4,8.9-20.8,20.9-20.8,20.9c-3,2.6-4.5,6.6-3.8,10.6l0,0
	l41.1-0.2l2.3-0.7c2.7-1,4.4-3.6,4.1-6.5l-2.4-21.7C148.4,408.7,143.8,405,138.5,405z"/>
<path class="st3" d="M105.5,442.9L105.5,442.9c-0.6-3.5,1.7-6.8,5.1-7.5l24.4-3.9c3.2-0.4,6.2,1.7,6.9,4.9l1.4,6.2L105.5,442.9z"/>
<g>
	<g>
		<g>
			<g>
				<path class="st4" d="M139.7,417.7c-0.1-0.1-0.3-0.2-0.4-0.3c2.3-5.6,2.9-12,1.9-18.3c1.4,0.3,2.7,0.7,4.1,1.3
					c0,4.2-0.7,8.2-2,12L139.7,417.7z"/>
				<path class="st5" d="M146.6,407.1c0.5-1.8,0.8-3.7,1-5.6c0.7,0.3,1.3,0.7,2,1.1L146.6,407.1z"/>
			</g>
			<g>
				<path class="st6" d="M138.6,417.1c1.6-5.8,1.6-12.2,0-18.4c-0.7-0.1-1.5-0.1-2.2-0.2l-0.5,0l-0.4,0c-0.7,0-1.4,0.1-2,0.2
					c-1.4,3.3-1.5,6.5-1.2,9.6c0.3,3.1,1.2,6,2.3,8.9c0.4-0.2,0.9-0.4,1.2-0.6c-0.8-3.3-1.2-6.9,0.1-10.3l0.4,0
					c0.1-0.5,0.3-0.9,0.5-1.4c0.9,3.9,1.2,7.9,0.8,11.8C137.8,416.8,138.2,417,138.6,417.1z"/>
				<path class="st5" d="M136.2,411.2c0.3,1.8,0.4,3.6,0.4,5.4c-0.3,0-0.6-0.1-0.9-0.1l0.4,0c0,0,0,0,0,0c-0.2-1.3-0.3-2.6-0.1-4
					l-0.1,0C136,412.1,136.1,411.6,136.2,411.2z"/>
			</g>
			<g>
				<path class="st4" d="M133.2,418c0.2-0.1,0.3-0.2,0.5-0.3c-1.3-2.7-2.3-5.6-3-8.6c-0.7-3-1-6.2-0.6-9.5c-1.6,0.5-2.9,1.2-4.1,1.8
					c0.6,4.1,1.8,7.9,3.4,11.6L133.2,418z"/>
				<path class="st5" d="M125.6,407.9c-0.6-1.8-1.1-3.6-1.6-5.4c-0.5,0.3-1.1,0.7-1.6,1.1L125.6,407.9z"/>
			</g>
		</g>
	</g>
</g>
<g>
	<g>
		<g>
			<g>
				<path class="st4" d="M136.9,422.8c-0.2-0.1-0.3-0.2-0.5-0.3c2.3-5.6,3.1-11.9,2.1-18.3c1.4,0.3,2.7,0.8,4,1.3
					c-0.1,4.2-0.9,8.2-2.2,11.9L136.9,422.8z"/>
				<path class="st5" d="M143.8,412.2c0.5-1.8,0.9-3.7,1.1-5.6c0.6,0.3,1.2,0.7,1.8,1.1L143.8,412.2z"/>
			</g>
			<g>
				<path class="st6" d="M135.7,422.2c1.7-5.8,1.9-12.2,0.3-18.5c-0.3,0-0.6-0.1-0.9-0.1c-0.3,0-0.6-0.1-1-0.1c-0.6-0.1-2.1,0-3,0.1
					c-1.5,3.2-1.8,6.5-1.6,9.6c0.2,3.1,0.9,6.1,2,8.9c0.4-0.2,0.8-0.4,1.2-0.5c-0.4-1.9-0.6-3.9-0.5-5.8c0.1-1,0.2-2,0.5-3
					c0.1-0.5,0.3-1,0.5-1.5c0.2-0.5,0.4-1,0.6-1.4c1,3.9,1.1,7.9,0.7,11.8C134.9,421.9,135.3,422,135.7,422.2z"/>
				<path class="st5" d="M133.4,416.2c0.3,1.8,0.3,3.6,0.3,5.4c-0.2,0-0.5-0.1-0.6-0.1l-0.1,0c0,0,0,0,0,0c0,0,0,0,0,0l-0.1,0
					c0-0.4-0.1-0.9-0.1-1.3c0-0.4,0-0.9,0-1.3C133,417.9,133.2,417,133.4,416.2z"/>
			</g>
			<g>
				<path class="st4" d="M130.3,422.9c0.2-0.1,0.3-0.2,0.5-0.3c-1.2-2.8-2.2-5.7-2.8-8.7c-0.6-3-0.8-6.2-0.2-9.5
					c-1.7,0.5-3,1.1-4.2,1.7c0.4,4.1,1.5,8,3,11.7L130.3,422.9z"/>
				<path class="st5" d="M122.8,412.6c-0.6-1.8-1-3.6-1.4-5.5c-0.5,0.3-1.1,0.7-1.7,1.2L122.8,412.6z"/>
			</g>
		</g>
	</g>
</g>
<path class="st2" d="M270.6,410.3c4.2-2.1,3.8-6.1,5.4-8.4c1-1.4,5.2-3.1,5.9-1.4c8.1,19.2,42.8,28.4,42.8,28.4
	c3.8,3.1,4.8,7.6,4.3,12.5l0,0c0,0-29.8,11-45.7,0.5c-3.2-2.1-11.3-2.8-11.3-2.8s-14.5,0.6-13.9-5.4l1.2-26.7
	C260.1,400.4,263.3,413.9,270.6,410.3z"/>
<path class="st3" d="M329.3,441.2c0.2-7.8-3.5-12.5-4.6-12.3c-1.7,0.4-4.3,2.3-6,2.8c-2.7,0.7-10.8,0.3-10.8,0.3
	c-2.1-0.2-3.7,2.6-3.7,6.3l0.2,7.5c0,0,5,0.6,16.6-2.3C323,443.1,329.3,441.2,329.3,441.2z"/>
<path class="st3" d="M96,271l12.3,10.2c8.8,7.3,20.9,9.1,31.4,4.8l42.7-17.7c5.6-2.3,11.7-2.9,17.7-1.8l61.5,12.1
	c7.8,1.5,15.8,0,22.5-4.3c10.4-6.7,23.9-17,20.2-23.4c-5.8-10.1-67.7-230.3-67.7-230.3L220,7.8l-91.6,1.5L85.5,241.9
	C83.5,252.8,87.5,263.9,96,271z"/>
<path class="st3" d="M152.7-5.5h57.6c14.5,0,26.2,11.7,26.2,26.2l0,0h-110l0,0C126.5,6.2,138.3-5.5,152.7-5.5z"/>
<g>
	<g>
		<g>
			<g>
				<path class="st4" d="M286.8,418.8c-0.1-0.1-0.3-0.2-0.4-0.3c2.3-5.6,2.9-12,1.9-18.3c1.4,0.3,2.7,0.7,4.1,1.3
					c0,4.2-0.7,8.2-2,12L286.8,418.8z"/>
				<path class="st5" d="M293.7,408.2c0.5-1.8,0.8-3.7,1-5.6c0.7,0.3,1.3,0.7,2,1.1L293.7,408.2z"/>
			</g>
			<g>
				<path class="st6" d="M285.7,418.2c1.6-5.8,1.6-12.2,0-18.4c-0.7-0.1-1.5-0.1-2.2-0.2l-0.5,0l-0.4,0c-0.7,0-1.4,0.1-2,0.2
					c-1.4,3.3-1.5,6.5-1.2,9.6c0.3,3.1,1.2,6,2.3,8.9c0.4-0.2,0.9-0.4,1.2-0.6c-0.8-3.3-1.2-6.9,0.1-10.3l0.4,0
					c0.1-0.5,0.3-0.9,0.5-1.4c0.9,3.9,1.2,7.9,0.8,11.8C284.9,417.9,285.3,418.1,285.7,418.2z"/>
				<path class="st5" d="M283.3,412.2c0.3,1.8,0.4,3.6,0.4,5.4c-0.3,0-0.6-0.1-0.9-0.1l0.4,0c0,0,0,0,0,0c-0.2-1.3-0.3-2.6-0.1-4
					l-0.1,0C283,413.1,283.2,412.7,283.3,412.2z"/>
			</g>
			<g>
				<path class="st4" d="M280.3,419.1c0.2-0.1,0.3-0.2,0.5-0.3c-1.3-2.7-2.3-5.6-3-8.6c-0.7-3-1-6.2-0.6-9.5
					c-1.6,0.5-2.9,1.2-4.1,1.8c0.6,4.1,1.8,7.9,3.4,11.6L280.3,419.1z"/>
				<path class="st5" d="M272.7,409c-0.6-1.8-1.1-3.6-1.6-5.4c-0.5,0.3-1.1,0.7-1.6,1.1L272.7,409z"/>
			</g>
		</g>
	</g>
</g>
<g>
	<g>
		<g>
			<g>
				<path class="st4" d="M293,420.9c-0.2-0.1-0.3-0.2-0.5-0.3c2.3-5.6,3.1-11.9,2.1-18.3c1.4,0.3,2.7,0.8,4,1.3
					c-0.1,4.2-0.9,8.2-2.2,11.9L293,420.9z"/>
				<path class="st5" d="M299.9,410.3c0.5-1.8,0.9-3.7,1.1-5.6c0.6,0.3,1.2,0.7,1.8,1.1L299.9,410.3z"/>
			</g>
			<g>
				<path class="st6" d="M291.8,420.3c1.7-5.8,1.9-12.2,0.3-18.5c-0.3,0-0.6-0.1-0.9-0.1c-0.3,0-0.6-0.1-1-0.1c-0.6-0.1-2.1,0-3,0.1
					c-1.5,3.2-1.8,6.5-1.6,9.6c0.2,3.1,0.9,6.1,2,8.9c0.4-0.2,0.8-0.4,1.2-0.5c-0.4-1.9-0.6-3.9-0.5-5.8c0.1-1,0.2-2,0.5-3
					c0.1-0.5,0.3-1,0.5-1.5c0.2-0.5,0.4-1,0.6-1.4c1,3.9,1.1,7.9,0.7,11.8C291,419.9,291.4,420.1,291.8,420.3z"/>
				<path class="st5" d="M289.5,414.2c0.3,1.8,0.3,3.6,0.3,5.4c-0.2,0-0.5-0.1-0.6-0.1l-0.1,0c0,0,0,0,0,0c0,0,0,0,0,0l-0.1,0
					c0-0.4-0.1-0.9-0.1-1.3c0-0.4,0-0.9,0-1.3C289.1,416,289.2,415.1,289.5,414.2z"/>
			</g>
			<g>
				<path class="st4" d="M286.3,421c0.2-0.1,0.3-0.2,0.5-0.3c-1.2-2.8-2.2-5.7-2.8-8.7c-0.6-3-0.8-6.2-0.2-9.5
					c-1.7,0.5-3,1.1-4.2,1.7c0.4,4.1,1.5,8,3,11.7L286.3,421z"/>
				<path class="st5" d="M278.9,410.7c-0.6-1.8-1-3.6-1.4-5.5c-0.5,0.3-1.1,0.7-1.7,1.2L278.9,410.7z"/>
			</g>
		</g>
	</g>
</g>
</svg>
