<?xml version="1.0" encoding="utf-8"?>
<!-- Generator: Adobe Illustrator 26.0.3, SVG Export Plug-In . SVG Version: 6.00 Build 0)  -->
<svg version="1.1" id="Calque_9" xmlns="http://www.w3.org/2000/svg" xmlns:xlink="http://www.w3.org/1999/xlink" x="0px" y="0px"
	 viewBox="0 0 788 1005" style="enable-background:new 0 0 788 1005;" xml:space="preserve">
<style type="text/css">
	.st0{fill:#90573A;}
	.st1{fill:#C3DFED;}
	.st2{fill:#C439AA;}
</style>
<path class="st0" d="M334.4,726.2c1.2,10.9,8.5,19.2,16.9,19.4l0,0c8.1,0.2,15.1-7.1,16.6-17.4c0,0,8.8-73.4,9-99.7
	c0-6.2-1.6-24.9-1.6-24.9l-3.9-43.5c0,0-2.8-20.5-19.5-23c-19.3-2.9-19.6,10.5-19.6,10.5s-6.2,69-6,90.9
	C326.5,658.7,334.4,726.2,334.4,726.2z"/>
<path class="st0" d="M472.2,718.1c0.8,11-4.9,20.4-13.2,22.1l0,0c-8,1.6-16.1-4.3-19.4-14.2c0,0-21.8-70.6-26.8-96.5
	c-1.2-6.1-2.9-24.8-2.9-24.8l-3.9-43.5c0,0-1-20.7,15.1-26.1c18.5-6.3,21.2,6.8,21.2,6.8s18.5,66.8,22.2,88.3
	C467.9,650.2,472.2,718.1,472.2,718.1z"/>
<path class="st0" d="M351.2,708.9c-9.2,0.2-14.6,5.3-16,13.4c0,0-1.5,36.4-1.7,51.7c-0.4,24.6,2.5,74.7,6.5,99
	c0.9,5.3,2.8,21.3,2.8,21.3c0.5,4.6,4.4,8.1,9,8l0,0c4.6-0.4,8.1-4.1,8.2-8.7c0,0,0.8-18.5,1.4-24.7c2.2-22.3,9.5-66.6,10-89
	c0.3-13.5-2.3-54.8-2.3-54.8C368.1,711.6,359.1,709,351.2,708.9L351.2,708.9z"/>
<path class="st0" d="M456.4,701.2c9.1-1.3,15.1,2.9,17.7,10.8c0,0,7.5,34.3,9.9,49.7c3.8,24.6,3.4,122,3.4,122
	c0.1,4.9,0.2,11.4-4.2,11.9l0,0c-4.4,0.5-9.8-1.5-10.7-6.2c0,0-22.2-91-25.9-113.4c-2.2-13.5-5.5-55.4-5.5-55.4
	C440.2,706.9,448.7,702.7,456.4,701.2L456.4,701.2z"/>
<path class="st1" d="M349.5,885.9L349.5,885.9c-4.2,0.2-8,2.8-9.6,6.6l0,0c-4,8.9-20.8,20.9-20.8,20.9c-3,2.6-4.5,6.6-3.8,10.6l0,0
	l41.1-0.2l2.3-0.7c2.7-1,4.4-3.6,4.1-6.5l-2.4-21.7C359.4,889.6,354.8,885.9,349.5,885.9z"/>
<path class="st2" d="M316.5,923.8L316.5,923.8c-0.6-3.5,1.7-6.8,5.1-7.5l24.4-3.9c3.2-0.4,6.2,1.7,6.9,4.9l1.4,6.2L316.5,923.8z"/>
<path class="st1" d="M481.6,891.2c4.2-2.1,3.8-6.1,5.4-8.4c1-1.4,5.2-3.1,5.9-1.4c8.1,19.2,42.8,28.4,42.8,28.4
	c3.8,3.1,4.8,7.6,4.3,12.5l0,0c0,0-29.8,11-45.7,0.5c-3.2-2.1-11.3-2.8-11.3-2.8s-14.5,0.6-13.9-5.4l1.2-26.7
	C471.1,881.3,474.3,894.8,481.6,891.2z"/>
<path class="st2" d="M540.3,922.1c0.2-7.8-3.5-12.5-4.6-12.3c-1.7,0.4-4.3,2.3-6,2.8c-2.7,0.7-10.8,0.3-10.8,0.3
	c-2.1-0.2-3.7,2.6-3.7,6.3l0.2,7.5c0,0,5,0.6,16.6-2.3C534,924,540.3,922.1,540.3,922.1z"/>
<path class="st1" d="M337.6,491.2C337.3,577.8,292.7,661,297,661c2,0,50.3,15.6,102,15c56.6-0.7,117.1-17.5,116.2-18.4
	c-1.7-1.6-68.5-85.7-69.1-169.1c2.6,3-52.1,1.5-52.1,1.5s-55.1-0.1-53.8,0.9L337.6,491.2z"/>
<g>
	<path class="st2" d="M347.2,894.2c0,0.3,0.2,0.7,0,1.2c-0.1,0.5-0.7,0.8-1.2,0.7s-0.8-0.6-1-0.9c-0.2-0.3-0.4-0.5-0.6-1
		c-0.5-0.9,0.4-2.2,1.6-2.1c0.5,0,1.1,0.4,1.2,0.9C347.4,893.5,347.2,893.9,347.2,894.2C347.2,894.2,347.2,893.9,347.2,894.2z
		 M347,894.2c0-0.5-0.9-0.3-0.9,0c0,0,0-0.3-0.5,0c-0.2,0.1-0.2,0.4,0,0.5s0.5-0.2,0.5-0.3c0.1-0.1,0,0,0.3,0.1
		C346.6,894.6,347,894.5,347,894.2L347,894.2z"/>
</g>
<g>
	<path class="st2" d="M345.9,894.8c-1.6-1.6-3.6-3.3-5.7-3.8l0.2-0.1c-0.6,1.1-1.3,2.3-1.6,3.4c-0.2,0.7-0.5,1.5,0.2,2.1
		c1.3,1.1,3.8,1.1,5.2,0.1c1.5-2,2.4-4.6,4.3-6.3c0.5-0.5,1.5-1.2,2.5-1c1.1,0.3,1.9,0.8,2.7,1.6c2,1.6,2.3,5.2,0.1,6.8
		c-1.4,1.1-3.4,1.8-5,0.8c-0.3-0.2-0.5-0.6-0.6-0.8C347.7,896.5,346.9,895.6,345.9,894.8L345.9,894.8z M346,894.7
		c1,0.7,2,1.6,2.8,2.6c0.2,0.2,0.3,0.3,0.4,0.3c1.1,0.3,2.5-0.7,3.2-1.4c1.9-1.9-0.2-4.4-2-5.1c-1.5,0.6-2.7,2.4-3.9,3.6
		c-0.6,0.7-1.3,1.7-2,2.4c-1.9,1.1-6.9,1.5-7.5-1.3c-0.4-2.2,0.7-4.2,1.9-5.8C341,887.7,344.6,893.5,346,894.7L346,894.7z"/>
</g>
<g>
	<path class="st2" d="M494.7,893.9c0,0.3,0.5,0.3,0.7,0.1s0.2-0.3,0.2-0.1c0.1,0.1,0.4,0.3,0.6,0.2s0.1-0.4-0.1-0.5
		c-0.5-0.1-0.5,0.2-0.5,0.2C495.5,893.4,494.6,893.4,494.7,893.9L494.7,893.9z M494.5,894c-0.1-0.3-0.4-0.6-0.4-1.1s0.4-1,0.9-1.2
		c1.1-0.3,2.3,0.7,2.1,1.6c-0.1,0.5-0.3,0.7-0.4,1.1c-0.1,0.3-0.2,0.9-0.7,1.1c-0.4,0.3-1.1,0.1-1.3-0.4
		C494.5,894.6,494.6,894.2,494.5,894C494.5,894,494.6,894.2,494.5,894z"/>
</g>
<g>
	<path class="st2" d="M495.7,894.1c1.1-1.5,3.1-8,5.5-6.3c1.6,1.3,3.1,3,3.3,5.1c0.1,2.9-4.8,3.8-6.9,3.2c-0.8-0.5-1.8-1.3-2.5-1.8
		c-1.4-0.9-3-2.3-4.7-2.5c0.1-0.1-0.4,0.3-0.6,0.6c-1,1.1-1.7,2.8-0.8,4.1c0.9,1.1,3,2,4.3,1.3c0.1-0.1,0.2-0.2,0.3-0.4
		C494.2,896.2,494.9,895,495.7,894.1L495.7,894.1z M495.9,894.2c-0.8,1-1.4,2.1-1.5,3.3c0,0.2-0.1,0.6-0.4,0.9
		c-1.3,1.4-3.5,1.2-5.1,0.5c-2.5-1-3.1-4.6-1.6-6.6c0.6-0.9,1.3-1.6,2.2-2.2c0.9-0.5,2.1,0,2.6,0.3c2.3,1.2,3.8,3.5,5.7,5.1
		c1.6,0.6,4.1-0.1,5-1.5c0.5-0.7,0-1.4-0.4-2c-0.7-1-1.6-2-2.5-2.9c0,0,0.2,0.1,0.2,0C498.6,890.1,497,892.3,495.9,894.2
		L495.9,894.2z"/>
</g>
</svg>
