<?xml version="1.0" encoding="utf-8"?>
<!-- Generator: Adobe Illustrator 26.0.3, SVG Export Plug-In . SVG Version: 6.00 Build 0)  -->
<svg version="1.1" id="Calque_9" xmlns="http://www.w3.org/2000/svg" xmlns:xlink="http://www.w3.org/1999/xlink" x="0px" y="0px"
	 viewBox="0 0 388 454.8" style="enable-background:new 0 0 388 454.8;" xml:space="preserve">
<style type="text/css">
	.st0{fill:#85AFAC;}
	.st1{fill:#90573A;}
	.st2{fill:#9ED2D0;}
</style>
<g>
	<path class="st0" d="M158.3,398.5l-6.4-1.9c-1,0.4-2.5,5.7-2.8,6.9l-9.7,27.7c-1.1,3.2-0.4,6.8,2,9.3c4.8,5.3,13.3,13.5,19.7,12.9
		c1.7-0.2,22.5-6.9,23.1-15.7l0,0c0-0.8-4.7-14.7-4.7-14.7c-0.2-0.2-2.9-15.2-8.4-28.3l-3.6-2.8c-0.7-0.5-2,5.8-2.7,5.8l-5.9,0.4
		C158.7,398.4,158.5,398.4,158.3,398.5z"/>
	<path class="st1" d="M170.8,387.1c0.5,7.1,9.5,34.6-7.5,38.5c-6.9,1.7-15.1-2.3-16.1-9.4c-1.2-7.3,2.9-17.3,5-26.4
		C153.7,382.9,170.4,380,170.8,387.1z"/>
	<circle class="st2" cx="160.5" cy="428.7" r="8.8"/>
	<path class="st1" d="M151.3,379.5c0,0,2.1,7.1,0,14.1c-2.1,6.9,8.4,11.7,8.4,11.7l4.7-17.5L151.3,379.5z"/>
	<path class="st1" d="M133.4,232c2,11.6,10.3,19.9,19.2,19.5l0,0c8.6-0.3,15.5-8.5,16.5-19.6c0,0,4.6-78.5,3.2-106.5
		c-0.3-6.7-0.1-27.9-0.1-27.9l-0.9-44.9c0,0-13.5-21-31.5-22.5c-20.7-1.9-20.2,12.4-20.2,12.4s-2.2,73.7-0.4,97
		C120.7,160.8,133.4,232,133.4,232z"/>
	<path class="st1" d="M268.9,227.5c0.3,11.7-8.5,21.9-17.3,23.3l0,0c-8.5,1.4-16.9-5.3-20.1-15.9c0,0-20.2-76-24.3-103.7
		c-1-6.5-4.9-25.1-4.9-25.1l-11.4-46.6c0,0,11.8-23.2,29-28.3c20-5.9,22.3,8.2,22.3,8.2s16.8,71.9,19.7,94.9
		C264.8,155.6,268.9,227.5,268.9,227.5z"/>
	<path class="st1" d="M150.1,212.5c-9.8,0.8-15.2,6.5-16.1,15.3c0,0,0.8,38.7,1.5,55.1c1.2,26.2,7.4,79.2,13.3,104.6
		c1.3,5.6,4.4,22.5,4.4,22.5c0.8,4.9,5.2,8.4,10.1,8l0,0c4.8-0.7,8.3-4.9,8.2-9.7c0,0-0.3-19.7-0.1-26.3c0.9-23.8,5.8-71.3,4.9-95.1
		c-0.5-14.4-6-58-6-58C168.3,214.3,158.6,212.1,150.1,212.5z"/>
	<path class="st1" d="M258.9,215.4c8.9,4.1,11.8,11.3,9.4,20c0,0-13.3,34.9-20.2,50.1C237.2,309.6,179.9,396,179.9,396
		c-2.8,4.4-6.4,10.3-10.7,8.2l0,0c-4.3-2.2-7.9-7-5.9-11.7c0,0,33.4-93.9,43.2-115.9c5.9-13.3,27.5-52.5,27.5-52.5
		C241.1,211.1,251,212.3,258.9,215.4L258.9,215.4z"/>
	<path class="st0" d="M179.8,394.3l5.6-3.7l20.9,40.6c0,0,10.1,17.9,3.9,23.2c-2.5,2.2-21.3-5.7-26.7-9.8
		c-9.6-7.3-7.4-21.3-24.5-34.6c-2.9-2.4-4.5-10.4-1.3-14.9l8.7-12.9l5,4.3L179.8,394.3z"/>
	<path class="st1" d="M189.3,380.7l-22.9,1.3c4.8,6.9,11,40,29.7,47.4c13.6,5.5,5.8-8,5.5-7.9c-0.4,0.1-11.3-19.6-12.9-26.8
		C187.9,391.4,189.4,380.7,189.3,380.7z"/>
	<ellipse class="st2" cx="203.1" cy="428.7" rx="7.3" ry="7.3"/>
</g>
<g id="Calque_1_00000071519901466194454640000002149211624443550375_">
	<path class="st2" d="M246.9,60c-19.5,2.1-42,9.6-63.1,16.6c0,0-9.6,0.4-9-0.1C155,71.9,139,64.8,119.2,60.1c0,0-0.7-29.3,0.8-36
		c2-8.8,9.5-24.1,18.4-24.1l83,4c9.2,0,16.8,7.1,17.4,16.2L246.9,60z"/>
</g>
</svg>
