<?xml version="1.0" encoding="utf-8"?>
<!-- Generator: Adobe Illustrator 26.0.3, SVG Export Plug-In . SVG Version: 6.00 Build 0)  -->
<svg version="1.1" id="Calque_9" xmlns="http://www.w3.org/2000/svg" xmlns:xlink="http://www.w3.org/1999/xlink" x="0px" y="0px"
	 viewBox="0 0 788 1005" style="enable-background:new 0 0 788 1005;" xml:space="preserve">
<style type="text/css">
	.st0{fill:#B26959;}
	.st1{fill:#FFE2F8;}
	.st2{fill:#375D63;}
	.st3{fill:#221944;}
	.st4{fill:#FF92CD;}
	.st5{fill:none;stroke:#4D6FAA;stroke-width:2;stroke-linecap:round;stroke-miterlimit:10;}
</style>
<g>
	<polygon class="st0" points="377.5,899.2 361.7,897.8 355.6,848.9 375.5,842.4 	"/>
	<path class="st1" d="M360.5,883.7c-0.9,0.3-2.3,5-2.6,6l-8.5,23.3c-1.3,3.5-0.4,7.4,2.2,10.2c4.5,4.7,11.7,11,17.3,10.5
		c1.6-0.2,18.3-7.5,18.3-13.1s-1.3-13.7-1.3-13.7c-0.2-0.2-3.8-11-8.7-22.4L360.5,883.7z"/>
	<path class="st2" d="M339.8,553.6c0.2,2.1,1,139.7,0.6,141.9s-2.9,53.3-2.8,55.4c0.2,2.1,19.2,111.8,19.2,111.8L376,859
		c0,0,4.7-99.5,4.6-101.1s-2.4-38.3-3.1-39.8c-0.7-1.6,11-155.4,11-155.4l-4.5-58.5l-33.7,2.4c-11.1,0.8-13,12.2-13.2,24.5
		L339.8,553.6z"/>
	<polygon class="st0" points="476.6,898.8 496.5,894.9 490.9,844.7 470.6,847.3 	"/>
	<path class="st1" d="M491.8,898.2l2.6-6.4l42.7,27.1c0,0,5.2,9.3,2.8,17.5c-1,3.3-16.4,6.2-22.4,5.4c-10.7-1.6-15.4-15.4-34.7-18.5
		c-3.4-0.6-8.2-7-7.8-12.8l0.9-16.4l5.8,1.1L491.8,898.2z"/>
	<path class="st2" d="M454.3,546.3c0.2,2.1,16.8,138.5,17.7,140.5c0.8,2,13.7,52.1,13.9,54.3c0.2,2.2,8.5,122.4,8.5,122.4l-22.7,2.9
		c0,0-26.2-108.1-26.5-109.7s-5.4-38.3-5-40c0.4-1.6-42.1-151.5-42.1-151.5l-6.9-55.5l33.7-4.5c11.1-1.5,21.7,6.5,24.4,18.6
		L454.3,546.3z"/>
	<path class="st1" d="M495.7,888.2l-19.8,5.6c6.8,3.2,26.6,26,44.4,23.4c13.1-1.9,1-8.7,0.7-8.5s-17.7-10-22.2-15
		C496.7,891.3,495.7,888.2,495.7,888.2z"/>
	<path class="st3" d="M501.2,813.7c-0.4-13.9-2.5-72.8-6.8-81.8s-11.7-39-10.8-48.5c0.8-9.6-10.5-61.1-12.9-68.4
		c-2.5-7.4-23.2-106.3-23.2-106.3l-0.3-4.4c-0.6-8.9-8-15.9-17-15.9h-75.8c-8.7,0-16.1,6.6-17,15.4l-1.8,18
		c0,0-20.4,124.3-15.5,142.3s-4.1,58.5,0,67.6c3.9,8.7,2.8,61.6,8.5,73c5.8,11.4,9.5,19.6,8.7,33.5s9.6,21.3,12.6,28.2
		c2.9,6.9,5.7,15.9,5.7,15.9L377,882c0,0-0.5-19.3,3.6-24.2s8.2-60.5,6.9-71.9c-1.2-11.4,1.4-50.7,2.9-62.1
		c1.6-11.4-0.2-48.2,0.7-65.4c0.9-17.2-2.3-41.8,0-49.1c2.5-7.7,0.1-14.7,4.2-19.6c4.1-4.9,9,11.4,12.3,27
		c3.3,15.5,4.9,27,11.4,45.8s6.5,64.6,10.6,78.5s14,40.9,13.2,55.6c-0.9,14.7,1.6,32.3,7.3,43.7c5.6,11.4,7.4,12.5,13.1,22.4
		s7.4,17.1,7.4,17.1l25.9-7.4v-17.7C496.5,854.5,501.5,827.6,501.2,813.7z"/>
	<path class="st4" d="M540.5,932.3c0,0-18.6,4.8-21.7,3.7c-3.2-1.1-25.5-18.3-31.5-18.6s-12.2-5.6-12.2-5.6s1.7,10.8,8.7,11.8
		s26,17,32.3,18s13.8-0.7,13.8-0.7s8.8-1.7,9.8-4C540.7,934.7,540.5,932.3,540.5,932.3z"/>
	<path class="st4" d="M348.9,914.5c0,0,8.3,11.4,18.5,11.4s19.5-9.6,19.5-9.6s1,3.9,0.2,6s-7.2,12-19.2,12.1
		S345.6,920.6,348.9,914.5z"/>
</g>
<path class="st5" d="M360.9,898.5c0,0,3.2-2.5,6-2.6c2.4,0.1,4.8,0.8,6.8,2.1"/>
<path class="st5" d="M361,903.3c0,0,3.2-2.4,6.1-2.4c2.4,0.1,4.8,0.9,6.8,2.2"/>
<path class="st5" d="M507.2,904.1c-1.9,1-4,1.7-6.1,2"/>
<path class="st5" d="M511.1,908.3c-1.8,1.2-3.9,2-6,2.5"/>
</svg>
