<?xml version="1.0" encoding="utf-8"?>
<!-- Generator: Adobe Illustrator 26.0.2, SVG Export Plug-In . SVG Version: 6.00 Build 0)  -->
<svg version="1.1" id="Calque_9" xmlns="http://www.w3.org/2000/svg" xmlns:xlink="http://www.w3.org/1999/xlink" x="0px" y="0px"
	 viewBox="0 0 788 1005" style="enable-background:new 0 0 788 1005;" xml:space="preserve">
<style type="text/css">
	.st0{fill:#374942;}
	.st1{fill:#D34B1C;}
	.st2{fill:#D3D3D3;}
	.st3{fill:#2E3532;}
</style>
<g>
	<g id="Calque_1">
		<path class="st0" d="M441.4,539.2c-15.7,2.1-30.1,8.5-47.2,15.5c0,0-7.8,0.4-7.3-0.1L339,540.6l4-49.6c0.7-9.1,6.8-16,14.1-16
			h67.5c7.4,0,13.6,7.2,14.1,16.5L441.4,539.2z"/>
	</g>
	<rect x="329.2" y="848.4" class="st1" width="18.8" height="53.8"/>
	<path class="st2" d="M338.5,887.7l-9.4,2.2l-5.9,17.6v5.6l-6.9,12c0,0,4.7,3.5,6.7,2.8s41.8-0.8,41.8-0.8v-4.1l-7.4-12l-5.9-18.7
		l-5.4-4.5L338.5,887.7L338.5,887.7z"/>
	<rect x="432.2" y="851.3" class="st1" width="18.8" height="53.8"/>
	<path class="st2" d="M441.6,890.5l9.4,2.2l5.9,17.6v5.6l7,12c0,0-4.2,2.9-6.3,2.1c-2-0.8-42.2-0.3-42.2-0.3v-4.1l7.4-12.1l5.9-18.7
		l5.4-4.5L441.6,890.5L441.6,890.5z"/>
	<path class="st3" d="M334.2,541.9c0,2.2-7.4,143.5-8,145.7c-0.5,1.9-7.9,88.6-10.4,118.4c-0.5,6.5,0.2,13.1,2.2,19.3l11.9,36.7
		h18.1c0,0,9.5-22.2,14.4-33.6c1.9-4.3,2.9-9,3.1-13.8c0.7-24.4,3-103.1,4.5-109.9c2.5-11,16.6-150.8,16.6-150.8v-60.8l-35-0.3
		c-11.5-0.1-13.4,9.5-14.7,22.3L334.2,541.9z"/>
	<path class="st3" d="M446.5,539.2c0,2.3,7.4,144.8,8,147.1c0.5,1.9,12.9,82.1,17.4,111.3c1,6.9,0.2,13.9-2.5,20.4l-18.5,44.3
		l-18.6-2.1l-14.9-43c-2-5.6-2.8-11.5-2.6-17.5c0.7-23.5,2.6-85.3,3.1-86.8c0.6-1.7-23.8-161.5-23.8-161.5v-58.1l35.3-0.3
		c11.6-0.1,13.5,9.6,14.7,22.3L446.5,539.2z"/>
	<path class="st1" d="M345.3,477.5v7.4c0,1.4,0.8,2.5,1.8,2.5h87.4c1,0,1.8-1.1,1.8-2.5v-7.4c0-1.4-0.8-2.5-1.8-2.5h-87.4
		C346.1,475,345.3,476.1,345.3,477.5z"/>
	<path class="st1" d="M345.4,480.2l-0.6,0.8c-2.2,3.5-3.7,7.3-4.3,11.4L304,662.3c-0.4,3.1,1.6,5.9,4.7,6.3
		c16,2.4,62.5,9.1,85.4,9.1c22.5,0,59.2-5.4,72.8-7.6c3-0.5,5-3.2,4.6-6.1L440.8,491c-0.3-2.8-1.4-5.5-3.1-7.9l-1.4-2L345.4,480.2z"
		/>
	<path class="st1" d="M321.8,922l-2.5-2.1l-3,5.2l3,2.2c1,0.8,2.4,1.2,3.7,1.2l41.8-1.5v-4.1l-38.5,0.8
		C324.6,923.6,323,923,321.8,922z"/>
	<path class="st1" d="M415.4,925.7v4.1l41.2,1.9c1.3,0.1,2.5-0.3,3.7-1.1l3.7-2.6l-2-3.4L459,927c-0.8,0.8-2,1.1-3.1,1L415.4,925.7z
		"/>
</g>
</svg>
