<svg xmlns="http://www.w3.org/2000/svg" xmlns:xlink="http://www.w3.org/1999/xlink" viewBox="0 0 788 1005"><defs><style>.cls-1,.cls-5,.cls-7{fill:none;}.cls-2{fill:#fff;}.cls-3{fill:#080808;}.cls-4{clip-path:url(#clip-path);}.cls-5{stroke:#000;}.cls-5,.cls-7{stroke-linecap:round;stroke-miterlimit:10;stroke-width:2px;}.cls-6{clip-path:url(#clip-path-2);}.cls-7{stroke:#532b19;}.cls-8{fill:#844f3d;}.cls-9{fill:#4da0ff;}</style><clipPath id="clip-path"><rect class="cls-1" x="406.4" y="92.92" width="21.58" height="7.06"/></clipPath><clipPath id="clip-path-2"><rect class="cls-1" x="367.18" y="92.92" width="21.58" height="7.06"/></clipPath></defs><g id="Calque_7" data-name="Calque 7"><path class="cls-2" d="M421.1,107.31a6.75,6.75,0,0,1-13.5,0Z"/><path class="cls-2" d="M386.25,107.31a6.75,6.75,0,0,1-13.5,0Z"/><path class="cls-3" d="M383.58,107.89a4,4,0,0,1-8,0,2.78,2.78,0,0,1,.05-.58h7.9A2.78,2.78,0,0,1,383.58,107.89Z"/><path class="cls-3" d="M418.52,107.89a4,4,0,0,1-8,0,2.78,2.78,0,0,1,.05-.58h7.9A2.78,2.78,0,0,1,418.52,107.89Z"/><g class="cls-4"><path class="cls-5" d="M407.4,93.92c9.84.17,19.58,5,19.58,5"/></g><g class="cls-6"><path class="cls-5" d="M387.76,93.92c-9.84.17-19.58,5-19.58,5"/></g><path class="cls-7" d="M386.29,146.07c3.1.14,7.19.22,11.26.21s8.06-.1,11-.25"/><path class="cls-8" d="M405.47,129.47s-4.69,3.69-7.42,3.69-7-3.59-7-3.59,5.4.73,7.21.72S405.47,129.47,405.47,129.47Z"/><ellipse class="cls-9" cx="374.21" cy="117.72" rx="3.87" ry="4.38"/></g></svg>