<svg xmlns="http://www.w3.org/2000/svg" xmlns:xlink="http://www.w3.org/1999/xlink" viewBox="0 0 788 1005"><defs><style>.cls-1,.cls-5{fill:none;}.cls-2{fill:#fff;}.cls-3{fill:#080808;}.cls-3,.cls-5{stroke:#000;}.cls-3,.cls-5,.cls-8{stroke-miterlimit:10;}.cls-4{clip-path:url(#clip-path);}.cls-5,.cls-8{stroke-linecap:round;}.cls-5{stroke-width:2px;}.cls-6{clip-path:url(#clip-path-2);}.cls-7{fill:#844f3d;}.cls-8{fill:#532b19;stroke:#532b19;}</style><clipPath id="clip-path"><rect class="cls-1" x="404.65" y="89.84" width="22.15" height="6.68"/></clipPath><clipPath id="clip-path-2"><rect class="cls-1" x="365.36" y="89.84" width="22.15" height="6.68"/></clipPath></defs><g id="Calque_7" data-name="Calque 7"><circle class="cls-2" cx="412.85" cy="106.75" r="6.75"/><circle class="cls-2" cx="378" cy="106.75" r="6.75"/><circle class="cls-3" cx="380.08" cy="106.89" r="4"/><circle class="cls-3" cx="415.02" cy="106.89" r="4"/><g class="cls-4"><path class="cls-5" d="M405.65,94.12a14.89,14.89,0,0,1,20.15,1.4"/></g><g class="cls-6"><path class="cls-5" d="M386.51,94.12a14.89,14.89,0,0,0-20.15,1.4"/></g><path class="cls-7" d="M404,129s-4.69,3.69-7.42,3.69-7-3.59-7-3.59,5.4.73,7.21.72S404,129,404,129Z"/><ellipse class="cls-8" cx="396.39" cy="148.44" rx="2.88" ry="4.5"/></g></svg>