<svg xmlns="http://www.w3.org/2000/svg" xmlns:xlink="http://www.w3.org/1999/xlink" viewBox="0 0 788 1005"><defs><style>.cls-1,.cls-5,.cls-7{fill:none;}.cls-2{fill:#fff;}.cls-3{fill:#080808;}.cls-3,.cls-5{stroke:#000;}.cls-3,.cls-5,.cls-7{stroke-miterlimit:10;}.cls-4{clip-path:url(#clip-path);}.cls-5,.cls-7{stroke-linecap:round;stroke-width:2px;}.cls-6{clip-path:url(#clip-path-2);}.cls-7{stroke:#532b19;}.cls-8{fill:#844f3d;}</style><clipPath id="clip-path"><rect class="cls-1" x="406.15" y="91.84" width="22.15" height="6.68"/></clipPath><clipPath id="clip-path-2"><rect class="cls-1" x="366.86" y="91.84" width="22.15" height="6.68"/></clipPath></defs><g id="Calque_7" data-name="Calque 7"><circle class="cls-2" cx="414.35" cy="108.75" r="6.75"/><circle class="cls-2" cx="379.5" cy="108.75" r="6.75"/><circle class="cls-3" cx="379.58" cy="107.89" r="4"/><circle class="cls-3" cx="414.52" cy="107.89" r="4"/><g class="cls-4"><path class="cls-5" d="M407.15,96.12a14.89,14.89,0,0,1,20.15,1.4"/></g><g class="cls-6"><path class="cls-5" d="M388,96.12a14.89,14.89,0,0,0-20.15,1.4"/></g><path class="cls-7" d="M381.68,143.06a23.2,23.2,0,0,0,31.15-1"/><path class="cls-8" d="M405.47,131s-4.69,3.69-7.42,3.69-7-3.59-7-3.59,5.4.73,7.21.72S405.47,131,405.47,131Z"/></g></svg>