<svg xmlns="http://www.w3.org/2000/svg" xmlns:xlink="http://www.w3.org/1999/xlink" viewBox="0 0 788 1005"><defs><style>.cls-1,.cls-4{fill:none;}.cls-2{fill:#fff;}.cls-3{clip-path:url(#clip-path);}.cls-4{stroke:#000;stroke-linecap:round;stroke-miterlimit:10;stroke-width:2px;}.cls-5{clip-path:url(#clip-path-2);}.cls-6{fill:#844f3d;}.cls-7{fill:#532b19;}.cls-8{fill:#bfbfbf;}</style><clipPath id="clip-path"><rect class="cls-1" x="365.57" y="89.93" width="23.15" height="6.96"/></clipPath><clipPath id="clip-path-2"><rect class="cls-1" x="405.61" y="89.93" width="23.15" height="6.96"/></clipPath></defs><g id="Calque_7" data-name="Calque 7"><circle class="cls-2" cx="378.63" cy="109.51" r="6.75"/><circle class="cls-2" cx="414.86" cy="109.51" r="6.75"/><circle cx="376.42" cy="107.79" r="3.29"/><circle cx="412.76" cy="107.79" r="3.29"/><g class="cls-3"><path class="cls-4" d="M387.73,95.88c-2.89-2.31-8.24-5.85-14.35-4.74-5.33,1-6.81,4.64-6.81,4.64"/></g><g class="cls-5"><path class="cls-4" d="M406.61,95.88c2.88-2.31,8.24-5.85,14.35-4.74,5.33,1,6.8,4.64,6.8,4.64"/></g><path class="cls-6" d="M404,130s-4.69,3.69-7.42,3.69-7-3.59-7-3.59,5.4.73,7.21.72S404,130,404,130Z"/><path class="cls-7" d="M381,144.4c.28-.63,1.42-1.63,3.5-2.54a29.2,29.2,0,0,1,10.55-2.1,22.74,22.74,0,0,1,15.87,6.06s-4.59,11.74-15.81,10.88C387,156.07,381,144.4,381,144.4Z"/><path class="cls-8" d="M395.44,144.78l-8.25-.37L385,143.5a28.2,28.2,0,0,1,11.44-2c6.7.36,10.31,2.92,10.31,2.92l-1.71.8Z"/></g></svg>