<svg xmlns="http://www.w3.org/2000/svg" xmlns:xlink="http://www.w3.org/1999/xlink" viewBox="0 0 788 1005"><defs><style>.cls-1,.cls-3,.cls-8{fill:none;}.cls-2{clip-path:url(#clip-path);}.cls-3{stroke:#000;}.cls-3,.cls-8{stroke-linecap:round;stroke-miterlimit:10;stroke-width:2px;}.cls-4{clip-path:url(#clip-path-2);}.cls-5{clip-path:url(#clip-path-3);}.cls-6{clip-path:url(#clip-path-4);}.cls-7{fill:#844f3d;}.cls-8{stroke:#532b19;}</style><clipPath id="clip-path"><rect class="cls-1" x="406.32" y="102.23" width="18.47" height="6.31"/></clipPath><clipPath id="clip-path-2"><rect class="cls-1" x="368.36" y="102.23" width="18.47" height="6.31"/></clipPath><clipPath id="clip-path-3"><rect class="cls-1" x="366.57" y="90.72" width="22.15" height="6.06"/></clipPath><clipPath id="clip-path-4"><rect class="cls-1" x="405.54" y="90.72" width="22.15" height="6.06"/></clipPath></defs><g id="Calque_7" data-name="Calque 7"><g class="cls-2"><path class="cls-3" d="M407.32,107.55a10.24,10.24,0,0,1,8.24-4.32,10.65,10.65,0,0,1,8.23,4.32"/></g><g class="cls-4"><path class="cls-3" d="M385.82,107.55a10.24,10.24,0,0,0-8.23-4.32,10.65,10.65,0,0,0-8.23,4.32"/></g><g class="cls-5"><path class="cls-3" d="M387.73,92.63s-6.36-1.87-12.1-.24a38.31,38.31,0,0,0-8.06,3.39"/></g><g class="cls-6"><path class="cls-3" d="M406.54,92.63s6.36-1.87,12.11-.24a38.37,38.37,0,0,1,8.05,3.39"/></g><path class="cls-7" d="M404,129.47s-4.69,3.69-7.42,3.69-7-3.59-7-3.59,5.4.73,7.21.72S404,129.47,404,129.47Z"/><path class="cls-8" d="M383.31,141.32a18.66,18.66,0,0,0,13.61,5.53,19,19,0,0,0,13.29-6.49"/></g></svg>