<svg xmlns="http://www.w3.org/2000/svg" viewBox="0 0 788 1005"><defs><style>.cls-1,.cls-4{fill:none;stroke-linecap:round;stroke-miterlimit:10;stroke-width:2px;}.cls-1{stroke:#000;}.cls-2{fill:#fff;}.cls-3{fill:#844f3d;}.cls-4{stroke:#532b19;}</style></defs><g id="Calque_7" data-name="Calque 7"><path class="cls-1" d="M407.32,108.55s2.76-1.32,8.24-1.32a21.78,21.78,0,0,1,8.23,1.32"/><circle class="cls-2" cx="379.25" cy="107.98" r="5.28"/><circle cx="379.22" cy="108.01" r="4"/><path class="cls-1" d="M406.86,95.89s5.74.68,10.35,1.56a47.46,47.46,0,0,1,10.56,3.39"/><path class="cls-1" d="M387.73,95.38a14.9,14.9,0,0,0-20.16,1.4"/><path class="cls-3" d="M404,127.47s-4.69,3.69-7.42,3.69-7-3.59-7-3.59,5.4.73,7.21.72S404,127.47,404,127.47Z"/><path class="cls-4" d="M383.31,142.32a18.66,18.66,0,0,0,13.61,5.53,19,19,0,0,0,13.29-6.49"/></g></svg>