<svg xmlns="http://www.w3.org/2000/svg" xmlns:xlink="http://www.w3.org/1999/xlink" viewBox="0 0 100 100"><defs><style>.cls-1,.cls-4{fill:none;}.cls-2{fill:#fff;}.cls-3{clip-path:url(#clip-path);}.cls-4{stroke:#000;stroke-linecap:round;stroke-miterlimit:10;stroke-width:2px;}.cls-5{clip-path:url(#clip-path-2);}.cls-6{fill:#844f3d;}.cls-7{fill:#532b19;}.cls-8{fill:#bfbfbf;}</style><clipPath id="clip-path"><rect class="cls-1" x="18.41" y="21.71" width="23.15" height="6.96"/></clipPath><clipPath id="clip-path-2"><rect class="cls-1" x="58.44" y="21.71" width="23.15" height="6.96"/></clipPath></defs><g id="Calque_7" data-name="Calque 7"><circle class="cls-2" cx="31.46" cy="41.29" r="6.75"/><circle class="cls-2" cx="67.69" cy="41.29" r="6.75"/><circle cx="29.25" cy="39.57" r="3.29"/><circle cx="65.59" cy="39.57" r="3.29"/><g class="cls-3"><path class="cls-4" d="M40.56,27.66c-2.88-2.31-8.24-5.85-14.35-4.74-5.33,1-6.8,4.64-6.8,4.64"/></g><g class="cls-5"><path class="cls-4" d="M59.44,27.66c2.88-2.31,8.24-5.85,14.35-4.74,5.33,1,6.8,4.64,6.8,4.64"/></g><path class="cls-6" d="M56.81,61.76s-4.7,3.69-7.43,3.68-7-3.59-7-3.59,5.4.73,7.21.72S56.81,61.76,56.81,61.76Z"/><path class="cls-7" d="M33.81,76.18c.29-.63,1.42-1.63,3.5-2.54a29.27,29.27,0,0,1,10.56-2.1A22.73,22.73,0,0,1,63.73,77.6S59.14,89.34,47.92,88.48C39.78,87.85,33.81,76.18,33.81,76.18Z"/><path class="cls-8" d="M48.27,76.56,40,76.19l-2.2-.91a28.13,28.13,0,0,1,11.43-2c6.7.36,10.32,2.92,10.32,2.92l-1.71.8Z"/></g></svg>