<svg xmlns="http://www.w3.org/2000/svg" xmlns:xlink="http://www.w3.org/1999/xlink" viewBox="0 0 100 100"><defs><style>.cls-1,.cls-5,.cls-7{fill:none;}.cls-2{fill:#fff;}.cls-3{fill:#080808;}.cls-4{clip-path:url(#clip-path);}.cls-5{stroke:#000;}.cls-5,.cls-7{stroke-linecap:round;stroke-miterlimit:10;stroke-width:2px;}.cls-6{clip-path:url(#clip-path-2);}.cls-7{stroke:#532b19;}.cls-8{fill:#844f3d;}.cls-9{fill:#4da0ff;}</style><clipPath id="clip-path"><rect class="cls-1" x="58.82" y="25.22" width="21.58" height="7.06"/></clipPath><clipPath id="clip-path-2"><rect class="cls-1" x="19.6" y="25.22" width="21.58" height="7.06"/></clipPath></defs><g id="Calque_7" data-name="Calque 7"><path class="cls-2" d="M73.53,39.61a6.75,6.75,0,0,1-13.5,0Z"/><path class="cls-2" d="M38.68,39.61a6.75,6.75,0,0,1-13.5,0Z"/><path class="cls-3" d="M36,40.19a4,4,0,0,1-8,0,2.78,2.78,0,0,1,0-.58H36A2.78,2.78,0,0,1,36,40.19Z"/><path class="cls-3" d="M71,40.19a4,4,0,0,1-8,0,2.78,2.78,0,0,1,0-.58h7.9A2.78,2.78,0,0,1,71,40.19Z"/><g class="cls-4"><path class="cls-5" d="M59.82,26.22c9.84.17,19.58,5.05,19.58,5.05"/></g><g class="cls-6"><path class="cls-5" d="M40.18,26.22c-9.84.17-19.58,5.05-19.58,5.05"/></g><path class="cls-7" d="M38.71,78.37c3.1.14,7.19.22,11.26.21s8.06-.1,11-.25"/><path class="cls-8" d="M57.89,61.78s-4.69,3.69-7.42,3.68c-2.58,0-7-3.59-7-3.59s5.4.73,7.21.72S57.89,61.78,57.89,61.78Z"/><ellipse class="cls-9" cx="26.63" cy="50.03" rx="3.87" ry="4.38"/></g></svg>