<svg xmlns="http://www.w3.org/2000/svg" xmlns:xlink="http://www.w3.org/1999/xlink" viewBox="0 0 100 100"><defs><style>.cls-1,.cls-5,.cls-7{fill:none;}.cls-2{fill:#fff;}.cls-3{fill:#080808;}.cls-3,.cls-5{stroke:#000;}.cls-3,.cls-5,.cls-7{stroke-miterlimit:10;}.cls-4{clip-path:url(#clip-path);}.cls-5,.cls-7{stroke-linecap:round;stroke-width:2px;}.cls-6{clip-path:url(#clip-path-2);}.cls-7{stroke:#532b19;}.cls-8{fill:#844f3d;}</style><clipPath id="clip-path"><rect class="cls-1" x="62.15" y="21.8" width="22.15" height="6.68"/></clipPath><clipPath id="clip-path-2"><rect class="cls-1" x="22.86" y="21.8" width="22.15" height="6.68"/></clipPath></defs><g id="Calque_7" data-name="Calque 7"><circle class="cls-2" cx="70.35" cy="38.7" r="6.75"/><circle class="cls-2" cx="35.5" cy="38.7" r="6.75"/><circle class="cls-3" cx="35.58" cy="37.85" r="4"/><circle class="cls-3" cx="70.52" cy="37.85" r="4"/><g class="cls-4"><path class="cls-5" d="M63.15,26.08a14.89,14.89,0,0,1,20.15,1.4"/></g><g class="cls-6"><path class="cls-5" d="M44,26.08a14.89,14.89,0,0,0-20.15,1.4"/></g><path class="cls-7" d="M37.68,73a23.23,23.23,0,0,0,31.15-1"/><path class="cls-8" d="M61.47,60.93s-4.69,3.69-7.42,3.69c-2.58,0-7-3.59-7-3.59s5.4.73,7.21.71S61.47,60.93,61.47,60.93Z"/></g></svg>