<svg xmlns="http://www.w3.org/2000/svg" viewBox="0 0 100 100"><defs><style>.cls-1,.cls-4{fill:none;stroke-linecap:round;stroke-miterlimit:10;stroke-width:2px;}.cls-1{stroke:#000;}.cls-2{fill:#fff;}.cls-3{fill:#844f3d;}.cls-4{stroke:#532b19;}</style></defs><g id="Calque_7" data-name="Calque 7"><path class="cls-1" d="M63.32,38.51s2.76-1.31,8.24-1.31a21.93,21.93,0,0,1,8.23,1.31"/><circle class="cls-2" cx="35.25" cy="37.94" r="5.28"/><circle cx="35.22" cy="37.97" r="4"/><path class="cls-1" d="M62.86,25.85s5.74.68,10.35,1.56A47.46,47.46,0,0,1,83.77,30.8"/><path class="cls-1" d="M43.73,25.35a14.89,14.89,0,0,0-20.16,1.39"/><path class="cls-3" d="M60,57.44s-4.69,3.69-7.42,3.68c-2.58,0-7-3.59-7-3.59s5.4.73,7.21.72S60,57.44,60,57.44Z"/><path class="cls-4" d="M39.31,72.29a18.65,18.65,0,0,0,13.61,5.52,19,19,0,0,0,13.29-6.49"/></g></svg>