<?xml version="1.0" encoding="utf-8"?>
<!-- Generator: Adobe Illustrator 26.0.3, SVG Export Plug-In . SVG Version: 6.00 Build 0)  -->
<svg version="1.1" id="Calque_1" xmlns="http://www.w3.org/2000/svg" xmlns:xlink="http://www.w3.org/1999/xlink" x="0px" y="0px"
	 viewBox="0 0 788 1005" style="enable-background:new 0 0 788 1005;" xml:space="preserve">
<style type="text/css">
	.st0{fill:#5E5E5E;}
	.st1{clip-path:url(#SVGID_00000085931042883574940830000006330933138044717731_);}
	.st2{fill:#924125;}
	.st3{clip-path:url(#SVGID_00000128460506229912657700000008980355578825764031_);}
	.st4{clip-path:url(#SVGID_00000173863686396605308060000008667515032270312115_);}
	.st5{fill:#573623;}
	.st6{clip-path:url(#SVGID_00000051373254900684087210000002285871368807078562_);}
	.st7{clip-path:url(#SVGID_00000048492341620612921940000010423232594082225045_);}
	.st8{fill:#FFFFFF;}
	.st9{clip-path:url(#SVGID_00000058558094356562618120000002446374287727336113_);}
	.st10{clip-path:url(#SVGID_00000111170091646211197500000016058925373277013946_);}
	.st11{fill:#090909;}
	.st12{clip-path:url(#SVGID_00000178164556707231607610000013157149666397182850_);}
	.st13{fill:#B85727;}
	.st14{fill:#C18544;}
</style>
<path class="st0" d="M362.9,340.6c0,0,0,3.2,0,2.1v-0.2C362.9,341.9,362.9,341.2,362.9,340.6z"/>
<path class="st0" d="M362.9,340.6c0,0,0,3.2,0,2.1v-0.2C362.9,341.9,362.9,341.2,362.9,340.6z"/>
<path class="st0" d="M362.9,340.6c0,0,0,3.2,0,2.1v-0.2C362.9,341.9,362.9,341.2,362.9,340.6z"/>
<path class="st0" d="M362.9,340.6c0,0,0,3.2,0,2.1v-0.2C362.9,341.9,362.9,341.2,362.9,340.6z"/>
<path class="st0" d="M362.9,340.6c0,0,0,3.2,0,2.1v-0.2C362.9,341.9,362.9,341.2,362.9,340.6z"/>
<g id="random">
	<g>
		<g>
			<g>
				<g>
					<g>
						<defs>
							<polygon id="SVGID_1_" points="455.5,305.9 455.5,305.9 492.7,305.9 492.7,370.6 455.5,370.6 							"/>
						</defs>
						<clipPath id="SVGID_00000152974735557224968410000018242846700270028982_">
							<use xlink:href="#SVGID_1_"  style="overflow:visible;"/>
						</clipPath>
						<g style="clip-path:url(#SVGID_00000152974735557224968410000018242846700270028982_);">
							<path class="st2" d="M455.5,366.4l8.1-49c0,0,12.8-17.9,25.7-9c8.6,5.9-0.8,56.6-9.9,60C463.7,374.3,455.5,366.4,455.5,366.4
								z"/>
						</g>
					</g>
				</g>
			</g>
		</g>
	</g>
</g>
<g id="random2">
	<g>
		<g>
			<g>
				<g>
					<g>
						<defs>
							<polygon id="SVGID_00000000211006595928111690000004597874960618888336_" points="328.5,305.9 328.5,305.9 291.3,305.9 
								291.3,370.6 328.5,370.6 							"/>
						</defs>
						<clipPath id="SVGID_00000123411866939574525900000005969263395963522724_">
							<use xlink:href="#SVGID_00000000211006595928111690000004597874960618888336_"  style="overflow:visible;"/>
						</clipPath>
						<g style="clip-path:url(#SVGID_00000123411866939574525900000005969263395963522724_);">
							<path class="st2" d="M328.5,366.4l-8.1-49c0,0-12.8-17.9-25.7-9c-8.6,5.9,0.8,56.6,9.9,60
								C320.3,374.3,328.5,366.4,328.5,366.4z"/>
						</g>
					</g>
				</g>
			</g>
		</g>
	</g>
</g>
<g>
	<g>
		<g>
			<g>
				<g>
					<defs>
						<polygon id="SVGID_00000130607288496755386420000013531348357656594842_" points="413.9,279.5 413.9,279.5 458.9,279.5 
							458.9,293.2 413.9,293.2 						"/>
					</defs>
					<clipPath id="SVGID_00000165232802456469358960000016885441666276899732_">
						<use xlink:href="#SVGID_00000130607288496755386420000013531348357656594842_"  style="overflow:visible;"/>
					</clipPath>
					<g style="clip-path:url(#SVGID_00000165232802456469358960000016885441666276899732_);">
						<path class="st5" d="M456.7,293.2c-0.3,0-0.6-0.1-0.8-0.2c-4.5-1.9-9.1-3.4-13.8-4.5c-15.1-3.4-16.1-1-21.3,0
							c-1.5,0.3-5.2-0.6-6-1.5s-1.4-4.1-0.5-4.9c0.4-0.3,7.1-4.9,24.4-1c7.2,1.6,18.6,7.9,18.9,8c1.1,0.5,1.6,1.7,1.1,2.8
							C458.4,292.7,457.6,293.3,456.7,293.2L456.7,293.2z"/>
					</g>
				</g>
			</g>
		</g>
	</g>
</g>
<g>
	<g>
		<g>
			<g>
				<g>
					<defs>
						<polygon id="SVGID_00000098915802342106627530000012544301009941519778_" points="370.1,279.5 370.1,279.5 325.1,279.5 
							325.1,293.2 370.1,293.2 						"/>
					</defs>
					<clipPath id="SVGID_00000074420079275219232610000011128583622698166177_">
						<use xlink:href="#SVGID_00000098915802342106627530000012544301009941519778_"  style="overflow:visible;"/>
					</clipPath>
					<g style="clip-path:url(#SVGID_00000074420079275219232610000011128583622698166177_);">
						<path class="st5" d="M327.3,293.2c0.3,0,0.6-0.1,0.8-0.2c4.5-1.9,9.1-3.4,13.8-4.5c15.1-3.4,16.1-1,21.3,0
							c1.5,0.3,5.2-0.6,6-1.5s1.4-4.1,0.5-4.9c-0.4-0.3-7.1-4.9-24.4-1c-7.2,1.6-18.6,7.9-18.9,8c-1.1,0.5-1.6,1.7-1.1,2.8
							C325.6,292.7,326.4,293.3,327.3,293.2L327.3,293.2z"/>
					</g>
				</g>
			</g>
		</g>
	</g>
</g>
<g>
	<g>
		<g>
			<g>
				<g>
					<defs>
						<polygon id="SVGID_00000145765289535945968540000003904162628958487433_" points="423.5,306.6 423.5,306.6 452.5,306.6 
							452.5,334.5 423.5,334.5 						"/>
					</defs>
					<clipPath id="SVGID_00000155124746231033331050000004237589885533186490_">
						<use xlink:href="#SVGID_00000145765289535945968540000003904162628958487433_"  style="overflow:visible;"/>
					</clipPath>
					<g style="clip-path:url(#SVGID_00000155124746231033331050000004237589885533186490_);">
						<ellipse class="st8" cx="438" cy="320.6" rx="14.5" ry="13.9"/>
					</g>
				</g>
			</g>
		</g>
	</g>
</g>
<g>
	<g>
		<g>
			<g>
				<g>
					<defs>
						<polygon id="SVGID_00000128483845158881033360000005463122430818343327_" points="360.5,306.6 360.5,306.6 331.5,306.6 
							331.5,334.5 360.5,334.5 						"/>
					</defs>
					<clipPath id="SVGID_00000127038865769388094830000006543157267641057210_">
						<use xlink:href="#SVGID_00000128483845158881033360000005463122430818343327_"  style="overflow:visible;"/>
					</clipPath>
					<g style="clip-path:url(#SVGID_00000127038865769388094830000006543157267641057210_);">
						<ellipse class="st8" cx="346" cy="320.6" rx="14.5" ry="13.9"/>
					</g>
				</g>
			</g>
		</g>
	</g>
</g>
<g>
	<g>
		<g>
			<g>
				<g>
					<defs>
						<polygon id="SVGID_00000079450459108640057610000003695380986745135513_" points="428.2,312.9 428.2,312.9 447.6,312.9 
							447.6,332.3 428.2,332.3 						"/>
					</defs>
					<clipPath id="SVGID_00000038387196150543861830000010089109613538610844_">
						<use xlink:href="#SVGID_00000079450459108640057610000003695380986745135513_"  style="overflow:visible;"/>
					</clipPath>
					<g style="clip-path:url(#SVGID_00000038387196150543861830000010089109613538610844_);">
						<circle class="st11" cx="437.9" cy="322.6" r="9.7"/>
					</g>
				</g>
			</g>
		</g>
	</g>
</g>
<g>
	<g>
		<g>
			<g>
				<g>
					<defs>
						<polygon id="SVGID_00000080885434881943095250000005605129360276726948_" points="355.8,312.9 355.8,312.9 336.4,312.9 
							336.4,332.3 355.8,332.3 						"/>
					</defs>
					<clipPath id="SVGID_00000054949914497848219640000014954226901091872152_">
						<use xlink:href="#SVGID_00000080885434881943095250000005605129360276726948_"  style="overflow:visible;"/>
					</clipPath>
					<g style="clip-path:url(#SVGID_00000054949914497848219640000014954226901091872152_);">
						<circle class="st11" cx="346.1" cy="322.6" r="9.7"/>
					</g>
				</g>
			</g>
		</g>
	</g>
</g>
<path class="st13" d="M469.7,331c2.3-16.1,3.2-54,3.2-54c0-45.5-31.5-74.9-76.5-75.8l0,0h-5.3l0,0c-45,0.9-76.5,30.3-76.5,75.8
	c0,0,0.9,38,3.2,54c1.8,12.9-12.8,35,3.1,57c9.2,12.7,53.8,20.1,70.4,24.3c0.7,0.2,1.4,0.3,2.1,0.3c0.1,0,0.3,0,0.4,0s0.3,0,0.4,0
	c0.7,0,1.4-0.1,2.1-0.3c13.9-3.5,47.5-9.3,63.4-18.5c2.5-0.8,4.7-2.4,6.1-4.7c0.3-0.3,0.6-0.7,0.9-1
	C482.5,366,467.8,343.9,469.7,331z"/>
<path class="st2" d="M379.7,346c-1,0.1-1.4,0.7-0.6,1c3,1.2,8.7,3.4,12.5,3.4c3.6,0,9-2.1,11.8-3.3c0.8-0.3,0.4-1-0.6-1
	c-3.4-0.2-4.8,0.6-11.6,0.6C385.4,346.7,383.1,345.8,379.7,346z"/>
<path class="st14" d="M315.9,312.8c0,0,17.1-6.2,5.5-44.3c-4.3-13.7,14.4-25.7,29.6-19c15.1,6.7,35.6,9.9,43.4,9.9
	c7.7,0,44.1-8,51.1-11.8s21.1-5.2,25,13.2c3.9,18.3-3.5,42.9,0.9,48.8c0.3,0,7.4-2.9,10.2-3.7c0.1,0.2,30.7-107.7-85.2-107.7
	s-88.7,109.3-88.3,109C308.5,307,315.2,311,315.9,312.8z"/>
</svg>
