<?xml version="1.0" encoding="utf-8"?>
<!-- Generator: Adobe Illustrator 26.0.3, SVG Export Plug-In . SVG Version: 6.00 Build 0)  -->
<svg version="1.1" id="Calque_1" xmlns="http://www.w3.org/2000/svg" xmlns:xlink="http://www.w3.org/1999/xlink" x="0px" y="0px"
	 viewBox="0 0 201.4 258.2" style="enable-background:new 0 0 201.4 258.2;" xml:space="preserve">
<style type="text/css">
	.st0{fill:#5E5E5E;}
	.st1{clip-path:url(#SVGID_00000062914285107273727580000001874837520891113391_);}
	.st2{fill:#924125;}
	.st3{clip-path:url(#SVGID_00000067933368623047388040000010729556529044686722_);}
	.st4{clip-path:url(#SVGID_00000080920014150553586970000012282082475041578390_);}
	.st5{fill:#573623;}
	.st6{clip-path:url(#SVGID_00000168798707020189195270000017005870364034701214_);}
	.st7{clip-path:url(#SVGID_00000105418666497008181580000005133980863690065061_);}
	.st8{fill:#FFFFFF;}
	.st9{clip-path:url(#SVGID_00000015331464453422604410000002173745921510449028_);}
	.st10{clip-path:url(#SVGID_00000149362820001074992050000001544259194568684672_);}
	.st11{fill:#090909;}
	.st12{clip-path:url(#SVGID_00000161601292027942271050000004668786270128183965_);}
	.st13{fill:#B85727;}
	.st14{fill:#C18544;}
	.st15{opacity:0.84;fill:#481F09;enable-background:new    ;}
	.st16{fill:#682E2F;}
	.st17{fill:#8F381F;}
</style>
<path class="st0" d="M71.5,170.1c0,0,0,3.2,0,2.1V172C71.5,171.4,71.5,170.7,71.5,170.1z"/>
<path class="st0" d="M71.5,170.1c0,0,0,3.2,0,2.1V172C71.5,171.4,71.5,170.7,71.5,170.1z"/>
<path class="st0" d="M71.5,170.1c0,0,0,3.2,0,2.1V172C71.5,171.4,71.5,170.7,71.5,170.1z"/>
<path class="st0" d="M71.5,170.1c0,0,0,3.2,0,2.1V172C71.5,171.4,71.5,170.7,71.5,170.1z"/>
<path class="st0" d="M71.5,170.1c0,0,0,3.2,0,2.1V172C71.5,171.4,71.5,170.7,71.5,170.1z"/>
<g id="random">
	<g>
		<g>
			<g>
				<g>
					<defs>
						<polygon id="SVGID_1_" points="164.1,135.4 164.1,135.4 201.3,135.4 201.3,200.1 164.1,200.1 						"/>
					</defs>
					<clipPath id="SVGID_00000038394399578794318400000016882014140575184546_">
						<use xlink:href="#SVGID_1_"  style="overflow:visible;"/>
					</clipPath>
					<g style="clip-path:url(#SVGID_00000038394399578794318400000016882014140575184546_);">
						<path class="st2" d="M164.1,195.9l8.1-49c0,0,12.8-17.9,25.7-9c8.6,5.9-0.8,56.6-9.9,60C172.3,203.8,164.1,195.9,164.1,195.9z
							"/>
					</g>
				</g>
			</g>
		</g>
	</g>
</g>
<g id="random2">
	<g>
		<g>
			<g>
				<g>
					<defs>
						<polygon id="SVGID_00000140731628581412759680000012940528617617233281_" points="37.1,135.4 37.1,135.4 -0.1,135.4 
							-0.1,200.1 37.1,200.1 						"/>
					</defs>
					<clipPath id="SVGID_00000043450045747147513110000000410143246312805811_">
						<use xlink:href="#SVGID_00000140731628581412759680000012940528617617233281_"  style="overflow:visible;"/>
					</clipPath>
					<g style="clip-path:url(#SVGID_00000043450045747147513110000000410143246312805811_);">
						<path class="st2" d="M37.1,195.9l-8.1-49c0,0-12.8-17.9-25.7-9c-8.6,5.9,0.8,56.6,9.9,60C28.9,203.8,37.1,195.9,37.1,195.9z"
							/>
					</g>
				</g>
			</g>
		</g>
	</g>
</g>
<g>
	<g>
		<g>
			<g>
				<defs>
					<polygon id="SVGID_00000071526770925499686670000018303456365089666221_" points="122.5,109 122.5,109 167.5,109 167.5,122.7 
						122.5,122.7 					"/>
				</defs>
				<clipPath id="SVGID_00000101799313003032698520000010505969289092307848_">
					<use xlink:href="#SVGID_00000071526770925499686670000018303456365089666221_"  style="overflow:visible;"/>
				</clipPath>
				<g style="clip-path:url(#SVGID_00000101799313003032698520000010505969289092307848_);">
					<path class="st5" d="M165.3,122.7c-0.3,0-0.6-0.1-0.8-0.2c-4.5-1.9-9.1-3.4-13.8-4.5c-15.1-3.4-16.1-1-21.3,0
						c-1.5,0.3-5.2-0.6-6-1.5s-1.4-4.1-0.5-4.9c0.4-0.3,7.1-4.9,24.4-1c7.2,1.6,18.6,7.9,18.9,8c1.1,0.5,1.6,1.7,1.1,2.8
						C167,122.2,166.2,122.8,165.3,122.7L165.3,122.7z"/>
				</g>
			</g>
		</g>
	</g>
</g>
<g>
	<g>
		<g>
			<g>
				<defs>
					<polygon id="SVGID_00000071526388662484341600000010772775578728937892_" points="78.7,109 78.7,109 33.7,109 33.7,122.7 
						78.7,122.7 					"/>
				</defs>
				<clipPath id="SVGID_00000155868982736349416630000004141001676953882300_">
					<use xlink:href="#SVGID_00000071526388662484341600000010772775578728937892_"  style="overflow:visible;"/>
				</clipPath>
				<g style="clip-path:url(#SVGID_00000155868982736349416630000004141001676953882300_);">
					<path class="st5" d="M35.9,122.7c0.3,0,0.6-0.1,0.8-0.2c4.5-1.9,9.1-3.4,13.8-4.5c15.1-3.4,16.1-1,21.3,0
						c1.5,0.3,5.2-0.6,6-1.5s1.4-4.1,0.5-4.9c-0.4-0.3-7.1-4.9-24.4-1c-7.2,1.6-18.6,7.9-18.9,8c-1.1,0.5-1.6,1.7-1.1,2.8
						C34.2,122.2,35,122.8,35.9,122.7L35.9,122.7z"/>
				</g>
			</g>
		</g>
	</g>
</g>
<g>
	<g>
		<g>
			<g>
				<defs>
					<polygon id="SVGID_00000079470866987125254230000000455009608259009692_" points="132.1,136.1 132.1,136.1 161.1,136.1 
						161.1,164 132.1,164 					"/>
				</defs>
				<clipPath id="SVGID_00000052801890800665290000000013867269796141524612_">
					<use xlink:href="#SVGID_00000079470866987125254230000000455009608259009692_"  style="overflow:visible;"/>
				</clipPath>
				<g style="clip-path:url(#SVGID_00000052801890800665290000000013867269796141524612_);">
					<ellipse class="st8" cx="146.6" cy="150.1" rx="14.5" ry="13.9"/>
				</g>
			</g>
		</g>
	</g>
</g>
<g>
	<g>
		<g>
			<g>
				<defs>
					<polygon id="SVGID_00000168800045921984896690000010369073730736393092_" points="69.1,136.1 69.1,136.1 40.1,136.1 40.1,164 
						69.1,164 					"/>
				</defs>
				<clipPath id="SVGID_00000116930628141257725210000002897239250637211008_">
					<use xlink:href="#SVGID_00000168800045921984896690000010369073730736393092_"  style="overflow:visible;"/>
				</clipPath>
				<g style="clip-path:url(#SVGID_00000116930628141257725210000002897239250637211008_);">
					<ellipse class="st8" cx="54.6" cy="150.1" rx="14.5" ry="13.9"/>
				</g>
			</g>
		</g>
	</g>
</g>
<g>
	<g>
		<g>
			<g>
				<defs>
					<polygon id="SVGID_00000050658671251596604650000005872622992098416769_" points="136.8,142.4 136.8,142.4 156.2,142.4 
						156.2,161.8 136.8,161.8 					"/>
				</defs>
				<clipPath id="SVGID_00000066497668317617058510000007869403591283166892_">
					<use xlink:href="#SVGID_00000050658671251596604650000005872622992098416769_"  style="overflow:visible;"/>
				</clipPath>
				<g style="clip-path:url(#SVGID_00000066497668317617058510000007869403591283166892_);">
					<circle class="st11" cx="146.5" cy="152.1" r="9.7"/>
				</g>
			</g>
		</g>
	</g>
</g>
<g>
	<g>
		<g>
			<g>
				<defs>
					<polygon id="SVGID_00000166661350001859289230000008606473291431349940_" points="64.4,142.4 64.4,142.4 45,142.4 45,161.8 
						64.4,161.8 					"/>
				</defs>
				<clipPath id="SVGID_00000029764803129069450770000000601578771156306078_">
					<use xlink:href="#SVGID_00000166661350001859289230000008606473291431349940_"  style="overflow:visible;"/>
				</clipPath>
				<g style="clip-path:url(#SVGID_00000029764803129069450770000000601578771156306078_);">
					<circle class="st11" cx="54.7" cy="152.1" r="9.7"/>
				</g>
			</g>
		</g>
	</g>
</g>
<path class="st13" d="M176.5,160.5c2.3-16.1,3.2-54,3.2-54c0-45.5-31.5-74.9-76.5-75.8l0,0h-5.3l0,0c-45,0.9-76.5,30.3-76.5,75.8
	c0,0,0.9,38,3.2,54c1.8,12.9-12.8,35,3.1,57c9.2,12.7,53.8,20.1,70.4,24.3c0.7,0.2,1.4,0.3,2.1,0.3c0.1,0,0.3,0,0.4,0s0.3,0,0.4,0
	c0.7,0,1.4-0.1,2.1-0.3c13.9-3.5,47.5-9.3,63.4-18.5c2.5-0.8,4.7-2.4,6.1-4.7c0.3-0.3,0.6-0.7,0.9-1
	C189.4,195.5,174.7,173.4,176.5,160.5z"/>
<path class="st2" d="M88.3,175.5c-1,0.1-1.4,0.7-0.6,1c3,1.2,8.7,3.4,12.5,3.4c3.6,0,9-2.1,11.8-3.3c0.8-0.3,0.4-1-0.6-1
	c-3.4-0.2-4.8,0.6-11.6,0.6C94,176.2,91.7,175.3,88.3,175.5z"/>
<path class="st14" d="M22.6,141.8c0,0,16.7-6.1,5.4-43.3c-4.2-13.4,14.1-25.1,28.9-18.6c14.8,6.6,34.7,9.6,42.4,9.6
	c7.5,0,43.1-7.8,49.9-11.5c6.9-3.7,20.7-5.1,24.4,12.9c3.8,17.9-4.3,45.5,3,50.9c0.3,0,4.5-3.7,7.2-4.5
	c0.1,0.2,30.6-107.5-82.6-107.5S14.7,137.5,15.1,137.2C15.5,137,21.9,140,22.6,141.8z"/>
<path class="st15" d="M187,84.6c0,0,1.4,13.5,0.5,27.9c-10.7,7.3-41.6-19.6-87.6-19.7c-43.5-0.1-74.6,24-87.8,20.2
	c-0.9-14.7,0-28.4,0-28.4c0-45.5,34.8-74.9,84.5-75.8l0,0h5.9l0,0C152.3,9.8,187,39.1,187,84.6z"/>
<path class="st16" d="M197,68.4c0,41.1-44.1,21.3-98.5,21.3S0,109.6,0,68.4S44.1,8.8,98.5,8.8S197,27.3,197,68.4z"/>
<path class="st17" d="M197,70.6c0,34.4-44.1,0-98.5,0S0,105,0,70.6S44.1,8.8,98.5,8.8S197,36.2,197,70.6z"/>
</svg>
