<?xml version="1.0" encoding="utf-8"?>
<!-- Generator: Adobe Illustrator 26.0.3, SVG Export Plug-In . SVG Version: 6.00 Build 0)  -->
<svg version="1.1" id="Calque_1" xmlns="http://www.w3.org/2000/svg" xmlns:xlink="http://www.w3.org/1999/xlink" x="0px" y="0px"
	 viewBox="0 0 788 1005" style="enable-background:new 0 0 788 1005;" xml:space="preserve">
<style type="text/css">
	.st0{fill:#5E5E5E;}
	.st1{clip-path:url(#SVGID_00000150068809085561913710000012666861056954366392_);}
	.st2{fill:#924125;}
	.st3{clip-path:url(#SVGID_00000044869582459075661980000009682763466436293823_);}
	.st4{clip-path:url(#SVGID_00000039844318651180074890000016508633955623856020_);}
	.st5{fill:#573623;}
	.st6{clip-path:url(#SVGID_00000072265343446845911770000004851034265721104558_);}
	.st7{clip-path:url(#SVGID_00000052090590303386815110000012841306977495369360_);}
	.st8{fill:#FFFFFF;}
	.st9{clip-path:url(#SVGID_00000111902785387270148270000006032296784613216437_);}
	.st10{clip-path:url(#SVGID_00000182486715331842880010000015967241456203020984_);}
	.st11{fill:#090909;}
	.st12{clip-path:url(#SVGID_00000135675378101196510920000015037437934784695685_);}
	.st13{fill:#B85727;}
	.st14{fill:#C18544;}
	.st15{fill:#B22947;}
	.st16{fill:#87213C;}
</style>
<path class="st0" d="M364.9,340.6c0,0,0,3.2,0,2.1v-0.2C364.9,341.9,364.9,341.2,364.9,340.6z"/>
<path class="st0" d="M364.9,340.6c0,0,0,3.2,0,2.1v-0.2C364.9,341.9,364.9,341.2,364.9,340.6z"/>
<path class="st0" d="M364.9,340.6c0,0,0,3.2,0,2.1v-0.2C364.9,341.9,364.9,341.2,364.9,340.6z"/>
<path class="st0" d="M364.9,340.6c0,0,0,3.2,0,2.1v-0.2C364.9,341.9,364.9,341.2,364.9,340.6z"/>
<path class="st0" d="M364.9,340.6c0,0,0,3.2,0,2.1v-0.2C364.9,341.9,364.9,341.2,364.9,340.6z"/>
<g id="random">
	<g>
		<g>
			<g>
				<g>
					<defs>
						<polygon id="SVGID_1_" points="457.5,305.9 457.5,305.9 494.7,305.9 494.7,370.6 457.5,370.6 						"/>
					</defs>
					<clipPath id="SVGID_00000049208012547560123570000005769114030007027371_">
						<use xlink:href="#SVGID_1_"  style="overflow:visible;"/>
					</clipPath>
					<g style="clip-path:url(#SVGID_00000049208012547560123570000005769114030007027371_);">
						<path class="st2" d="M457.5,366.4l8.1-49c0,0,12.8-17.9,25.7-9c8.6,5.9-0.8,56.6-9.9,60C465.7,374.3,457.5,366.4,457.5,366.4z
							"/>
					</g>
				</g>
			</g>
		</g>
	</g>
</g>
<g id="random2">
	<g>
		<g>
			<g>
				<g>
					<defs>
						<polygon id="SVGID_00000037672717945822568250000012312782014295696266_" points="330.5,305.9 330.5,305.9 293.3,305.9 
							293.3,370.6 330.5,370.6 						"/>
					</defs>
					<clipPath id="SVGID_00000125596573698649452430000016610808131348306846_">
						<use xlink:href="#SVGID_00000037672717945822568250000012312782014295696266_"  style="overflow:visible;"/>
					</clipPath>
					<g style="clip-path:url(#SVGID_00000125596573698649452430000016610808131348306846_);">
						<path class="st2" d="M330.5,366.4l-8.1-49c0,0-12.8-17.9-25.7-9c-8.6,5.9,0.8,56.6,9.9,60
							C322.3,374.3,330.5,366.4,330.5,366.4z"/>
					</g>
				</g>
			</g>
		</g>
	</g>
</g>
<g>
	<g>
		<g>
			<g>
				<defs>
					<polygon id="SVGID_00000109724367963553227410000017401671404568716964_" points="415.9,279.5 415.9,279.5 460.9,279.5 
						460.9,293.2 415.9,293.2 					"/>
				</defs>
				<clipPath id="SVGID_00000045583977184943645990000009439572239045159819_">
					<use xlink:href="#SVGID_00000109724367963553227410000017401671404568716964_"  style="overflow:visible;"/>
				</clipPath>
				<g style="clip-path:url(#SVGID_00000045583977184943645990000009439572239045159819_);">
					<path class="st5" d="M458.7,293.2c-0.3,0-0.6-0.1-0.8-0.2c-4.5-1.9-9.1-3.4-13.8-4.5c-15.1-3.4-16.1-1-21.3,0
						c-1.5,0.3-5.2-0.6-6-1.5s-1.4-4.1-0.5-4.9c0.4-0.3,7.1-4.9,24.4-1c7.2,1.6,18.6,7.9,18.9,8c1.1,0.5,1.6,1.7,1.1,2.8
						C460.4,292.7,459.6,293.3,458.7,293.2L458.7,293.2z"/>
				</g>
			</g>
		</g>
	</g>
</g>
<g>
	<g>
		<g>
			<g>
				<defs>
					<polygon id="SVGID_00000017480359849365206850000001610350960898146181_" points="372.1,279.5 372.1,279.5 327.1,279.5 
						327.1,293.2 372.1,293.2 					"/>
				</defs>
				<clipPath id="SVGID_00000095301853439338324990000008717256880395530629_">
					<use xlink:href="#SVGID_00000017480359849365206850000001610350960898146181_"  style="overflow:visible;"/>
				</clipPath>
				<g style="clip-path:url(#SVGID_00000095301853439338324990000008717256880395530629_);">
					<path class="st5" d="M329.3,293.2c0.3,0,0.6-0.1,0.8-0.2c4.5-1.9,9.1-3.4,13.8-4.5c15.1-3.4,16.1-1,21.3,0
						c1.5,0.3,5.2-0.6,6-1.5s1.4-4.1,0.5-4.9c-0.4-0.3-7.1-4.9-24.4-1c-7.2,1.6-18.6,7.9-18.9,8c-1.1,0.5-1.6,1.7-1.1,2.8
						C327.6,292.7,328.4,293.3,329.3,293.2L329.3,293.2z"/>
				</g>
			</g>
		</g>
	</g>
</g>
<g>
	<g>
		<g>
			<g>
				<defs>
					<polygon id="SVGID_00000176727934970528713020000013904530381983984802_" points="425.5,306.6 425.5,306.6 454.5,306.6 
						454.5,334.5 425.5,334.5 					"/>
				</defs>
				<clipPath id="SVGID_00000070808156725641460290000003546824414302144670_">
					<use xlink:href="#SVGID_00000176727934970528713020000013904530381983984802_"  style="overflow:visible;"/>
				</clipPath>
				<g style="clip-path:url(#SVGID_00000070808156725641460290000003546824414302144670_);">
					<ellipse class="st8" cx="440" cy="320.6" rx="14.5" ry="13.9"/>
				</g>
			</g>
		</g>
	</g>
</g>
<g>
	<g>
		<g>
			<g>
				<defs>
					<polygon id="SVGID_00000042731050688622845510000003003927895768516229_" points="362.5,306.6 362.5,306.6 333.5,306.6 
						333.5,334.5 362.5,334.5 					"/>
				</defs>
				<clipPath id="SVGID_00000162327496858425816540000006517315199880406957_">
					<use xlink:href="#SVGID_00000042731050688622845510000003003927895768516229_"  style="overflow:visible;"/>
				</clipPath>
				<g style="clip-path:url(#SVGID_00000162327496858425816540000006517315199880406957_);">
					<ellipse class="st8" cx="348" cy="320.6" rx="14.5" ry="13.9"/>
				</g>
			</g>
		</g>
	</g>
</g>
<g>
	<g>
		<g>
			<g>
				<defs>
					<polygon id="SVGID_00000158010987667995590330000011903834917756457403_" points="430.2,312.9 430.2,312.9 449.6,312.9 
						449.6,332.3 430.2,332.3 					"/>
				</defs>
				<clipPath id="SVGID_00000163056251412776829190000000165793164449000338_">
					<use xlink:href="#SVGID_00000158010987667995590330000011903834917756457403_"  style="overflow:visible;"/>
				</clipPath>
				<g style="clip-path:url(#SVGID_00000163056251412776829190000000165793164449000338_);">
					<circle class="st11" cx="439.9" cy="322.6" r="9.7"/>
				</g>
			</g>
		</g>
	</g>
</g>
<g>
	<g>
		<g>
			<g>
				<defs>
					<polygon id="SVGID_00000101064068310862160020000000077307253333301672_" points="357.8,312.9 357.8,312.9 338.4,312.9 
						338.4,332.3 357.8,332.3 					"/>
				</defs>
				<clipPath id="SVGID_00000180346526199110413490000012448778899665817744_">
					<use xlink:href="#SVGID_00000101064068310862160020000000077307253333301672_"  style="overflow:visible;"/>
				</clipPath>
				<g style="clip-path:url(#SVGID_00000180346526199110413490000012448778899665817744_);">
					<circle class="st11" cx="348.1" cy="322.6" r="9.7"/>
				</g>
			</g>
		</g>
	</g>
</g>
<path class="st13" d="M469.9,331c2.3-16.1,3.2-54,3.2-54c0-45.5-31.5-74.9-76.5-75.8l0,0h-5.3l0,0c-45,0.9-76.5,30.3-76.5,75.8
	c0,0,0.9,38,3.2,54c1.8,12.9-12.8,35,3.1,57c9.2,12.7,53.8,20.1,70.4,24.3c0.7,0.2,1.4,0.3,2.1,0.3c0.1,0,0.3,0,0.4,0s0.3,0,0.4,0
	c0.7,0,1.4-0.1,2.1-0.3c13.9-3.5,47.5-9.3,63.4-18.5c2.5-0.8,4.7-2.4,6.1-4.7c0.3-0.3,0.6-0.7,0.9-1
	C482.8,366,468.1,343.9,469.9,331z"/>
<path class="st2" d="M381.7,346c-1,0.1-1.4,0.7-0.6,1c3,1.2,8.7,3.4,12.5,3.4c3.6,0,9-2.1,11.8-3.3c0.8-0.3,0.4-1-0.6-1
	c-3.4-0.2-4.8,0.6-11.6,0.6C387.4,346.7,385.1,345.8,381.7,346z"/>
<path class="st14" d="M317.2,312.9c0,0,17.1-6.2,5.5-44.3c-4.3-13.7,14.4-25.7,29.6-19c15.1,6.7,35.6,9.9,43.4,9.9
	c7.7,0,44.1-8,51.1-11.8s20.8-5.2,24.7,13.2c3.9,18.3-4.2,44.3,0.2,50.2c0.3,0,8.4-4.2,11.3-5c0.1,0.2,30.7-107.7-85.2-107.7
	s-88.7,109.3-88.3,109C309.9,307.1,316.5,311.1,317.2,312.9z"/>
<g>
	<path class="st15" d="M257.9,245.2c3-9.1,9.9-15.3,16.5-21.4c23.3-22.1,49.5-40.4,76.9-57.1c3.9-2.6,6.4-5.2,4.8-9.5
		c-2.2-5.2,0.6-9.1,4.8-11.6c4.9-2.8,10.1-2.8,13.7,1.8c3,3.9,5.2,2.8,8.5,1c20.7-11,42.1-20.7,65.1-26.9c12-3.2,24.3-4.2,36.6-2.6
		c6.9,0.7,12.7,3.9,14.3,12c1.8,14.2-8.5,20.8-17.3,28.2c-24.9,21.7-54.1,35.4-83.7,49.3c-20.3,9.4-40.5,18.2-61.9,25.6
		c-20.3,7.4-40.8,14.3-62,18.2C267.4,253.3,261,253.2,257.9,245.2z"/>
	<path class="st16" d="M257.9,245.2c3.2,7.8,9.7,8.1,16.5,6.8c21.1-3.9,41.5-11,62-18.2c21.1-7.4,41.5-16.1,61.9-25.6
		c29.2-13.7,58.7-27.6,83.7-49.2c8.5-7.4,18.9-14.3,17.3-28.2c4.9,11.1,2.6,22.3-1,32.8c-5.8,17.3-15.5,33.2-26.7,47.4
		c-3.3,1.4-5.9-1.1-9.1-1.5c-25.5-1.6-49.5,4.7-73,12.8c-19.7,6.8-38.4,15.4-58.3,21.2c-9.1,2.6-19.2,3.5-27.7,8.5
		c-11.7,2.2-23,4.4-35.2,3.6C259.3,255.4,257.7,253.3,257.9,245.2z"/>
	<path class="st15" d="M303.4,251.8c8.5-4.9,18.2-5.8,27.5-8.4c19.8-5.8,38.5-14,58-21c23.4-8.1,47.7-14.7,73-13.1
		c3.3,0.2,6.4,2.7,9.7,1.4c1,5.5,1.8,10.7,3.2,16.5c0.7,3.3-0.6,4.2-3.6,3.9c-34.3-3-67.2,3.6-99.8,11.7
		c-21.1,5.2-42.5,10.7-61.2,22.3c-3.2,1.8-4.2,0.6-4.8-2.3C304.8,258.7,304,255.4,303.4,251.8z"/>
</g>
</svg>
