<?xml version="1.0" encoding="utf-8"?>
<!-- Generator: Adobe Illustrator 26.0.3, SVG Export Plug-In . SVG Version: 6.00 Build 0)  -->
<svg version="1.1" id="Calque_1" xmlns="http://www.w3.org/2000/svg" xmlns:xlink="http://www.w3.org/1999/xlink" x="0px" y="0px"
	 viewBox="0 0 788 1005" style="enable-background:new 0 0 788 1005;" xml:space="preserve">
<style type="text/css">
	.st0{fill:#353535;}
	.st1{fill:#5E5E5E;}
	.st2{clip-path:url(#SVGID_00000088837698206814752880000004710363688474110886_);}
	.st3{fill:#924125;}
	.st4{clip-path:url(#SVGID_00000039820764148959735290000003105629215785332384_);}
	.st5{clip-path:url(#SVGID_00000152957942112125878130000015988759688820742069_);}
	.st6{fill:#573623;}
	.st7{clip-path:url(#SVGID_00000016061238960011480600000013538347492734621109_);}
	.st8{clip-path:url(#SVGID_00000166664715084271358390000002705453435457885085_);}
	.st9{fill:#FFFFFF;}
	.st10{clip-path:url(#SVGID_00000090296823523794152900000013060763945744110520_);}
	.st11{clip-path:url(#SVGID_00000028296831423383828340000008630285974939937683_);}
	.st12{fill:#090909;}
	.st13{clip-path:url(#SVGID_00000052086980790084487810000010658240313112591500_);}
	.st14{fill:#B85727;}
	.st15{fill:#C18544;}
</style>
<path class="st0" d="M311.4,277l-45.2-34.4c-2.3-1.8-5.4-1.4-7.2,0.7l-5.9,7.2c-2,2.3-1.4,6.1,1.4,7.7l46.6,29.3l0.7-14l-36.2,23
	c-2.5,1.8-3.4,5.4-1.1,7.7l5.6,6.8c1.8,2,4.7,2.5,7,0.9l40.3-27.9L311.4,277z"/>
<path class="st1" d="M364.9,340.6c0,0,0,3.2,0,2.1v-0.2C364.9,341.9,364.9,341.2,364.9,340.6z"/>
<path class="st1" d="M364.9,340.6c0,0,0,3.2,0,2.1v-0.2C364.9,341.9,364.9,341.2,364.9,340.6z"/>
<path class="st1" d="M364.9,340.6c0,0,0,3.2,0,2.1v-0.2C364.9,341.9,364.9,341.2,364.9,340.6z"/>
<path class="st1" d="M364.9,340.6c0,0,0,3.2,0,2.1v-0.2C364.9,341.9,364.9,341.2,364.9,340.6z"/>
<path class="st1" d="M364.9,340.6c0,0,0,3.2,0,2.1v-0.2C364.9,341.9,364.9,341.2,364.9,340.6z"/>
<g id="random">
	<g>
		<g>
			<g>
				<g>
					<defs>
						<polygon id="SVGID_1_" points="457.5,305.9 457.5,305.9 494.7,305.9 494.7,370.6 457.5,370.6 						"/>
					</defs>
					<clipPath id="SVGID_00000016062251877903605100000000440445362308665248_">
						<use xlink:href="#SVGID_1_"  style="overflow:visible;"/>
					</clipPath>
					<g style="clip-path:url(#SVGID_00000016062251877903605100000000440445362308665248_);">
						<path class="st3" d="M457.5,366.4l8.1-49c0,0,12.8-17.9,25.7-9c8.6,5.9-0.8,56.6-9.9,60C465.7,374.3,457.5,366.4,457.5,366.4z
							"/>
					</g>
				</g>
			</g>
		</g>
	</g>
</g>
<g id="random2">
	<g>
		<g>
			<g>
				<g>
					<defs>
						<polygon id="SVGID_00000114031639997284404840000012629412051005878429_" points="330.5,305.9 330.5,305.9 293.3,305.9 
							293.3,370.6 330.5,370.6 						"/>
					</defs>
					<clipPath id="SVGID_00000076597501212658941190000003422367018427253908_">
						<use xlink:href="#SVGID_00000114031639997284404840000012629412051005878429_"  style="overflow:visible;"/>
					</clipPath>
					<g style="clip-path:url(#SVGID_00000076597501212658941190000003422367018427253908_);">
						<path class="st3" d="M330.5,366.4l-8.1-49c0,0-12.8-17.9-25.7-9c-8.6,5.9,0.8,56.6,9.9,60
							C322.3,374.3,330.5,366.4,330.5,366.4z"/>
					</g>
				</g>
			</g>
		</g>
	</g>
</g>
<g>
	<g>
		<g>
			<g>
				<defs>
					<polygon id="SVGID_00000138532551321165576210000006960934931195403416_" points="415.9,279.5 415.9,279.5 460.9,279.5 
						460.9,293.2 415.9,293.2 					"/>
				</defs>
				<clipPath id="SVGID_00000017518590203250299510000003443364628404248987_">
					<use xlink:href="#SVGID_00000138532551321165576210000006960934931195403416_"  style="overflow:visible;"/>
				</clipPath>
				<g style="clip-path:url(#SVGID_00000017518590203250299510000003443364628404248987_);">
					<path class="st6" d="M458.7,293.2c-0.3,0-0.6-0.1-0.8-0.2c-4.5-1.9-9.1-3.4-13.8-4.5c-15.1-3.4-16.1-1-21.3,0
						c-1.5,0.3-5.2-0.6-6-1.5s-1.4-4.1-0.5-4.9c0.4-0.3,7.1-4.9,24.4-1c7.2,1.6,18.6,7.9,18.9,8c1.1,0.5,1.6,1.7,1.1,2.8
						C460.4,292.7,459.6,293.3,458.7,293.2L458.7,293.2z"/>
				</g>
			</g>
		</g>
	</g>
</g>
<g>
	<g>
		<g>
			<g>
				<defs>
					<polygon id="SVGID_00000039820536805911720400000001525221577377074094_" points="372.1,279.5 372.1,279.5 327.1,279.5 
						327.1,293.2 372.1,293.2 					"/>
				</defs>
				<clipPath id="SVGID_00000103943498274855878120000011505411170484188299_">
					<use xlink:href="#SVGID_00000039820536805911720400000001525221577377074094_"  style="overflow:visible;"/>
				</clipPath>
				<g style="clip-path:url(#SVGID_00000103943498274855878120000011505411170484188299_);">
					<path class="st6" d="M329.3,293.2c0.3,0,0.6-0.1,0.8-0.2c4.5-1.9,9.1-3.4,13.8-4.5c15.1-3.4,16.1-1,21.3,0
						c1.5,0.3,5.2-0.6,6-1.5s1.4-4.1,0.5-4.9c-0.4-0.3-7.1-4.9-24.4-1c-7.2,1.6-18.6,7.9-18.9,8c-1.1,0.5-1.6,1.7-1.1,2.8
						C327.6,292.7,328.4,293.3,329.3,293.2L329.3,293.2z"/>
				</g>
			</g>
		</g>
	</g>
</g>
<g>
	<g>
		<g>
			<g>
				<defs>
					<polygon id="SVGID_00000024723569685504847780000010669638329642562730_" points="425.5,306.6 425.5,306.6 454.5,306.6 
						454.5,334.5 425.5,334.5 					"/>
				</defs>
				<clipPath id="SVGID_00000093898672336025114950000016928472867101070780_">
					<use xlink:href="#SVGID_00000024723569685504847780000010669638329642562730_"  style="overflow:visible;"/>
				</clipPath>
				<g style="clip-path:url(#SVGID_00000093898672336025114950000016928472867101070780_);">
					<ellipse class="st9" cx="440" cy="320.6" rx="14.5" ry="13.9"/>
				</g>
			</g>
		</g>
	</g>
</g>
<g>
	<g>
		<g>
			<g>
				<defs>
					<polygon id="SVGID_00000133496477961948529150000011636675670739461511_" points="362.5,306.6 362.5,306.6 333.5,306.6 
						333.5,334.5 362.5,334.5 					"/>
				</defs>
				<clipPath id="SVGID_00000081607576754317010470000017591241845328691385_">
					<use xlink:href="#SVGID_00000133496477961948529150000011636675670739461511_"  style="overflow:visible;"/>
				</clipPath>
				<g style="clip-path:url(#SVGID_00000081607576754317010470000017591241845328691385_);">
					<ellipse class="st9" cx="348" cy="320.6" rx="14.5" ry="13.9"/>
				</g>
			</g>
		</g>
	</g>
</g>
<g>
	<g>
		<g>
			<g>
				<defs>
					<polygon id="SVGID_00000123432295002073952260000004156894281563594141_" points="430.2,312.9 430.2,312.9 449.6,312.9 
						449.6,332.3 430.2,332.3 					"/>
				</defs>
				<clipPath id="SVGID_00000114074654913705014190000001689445184099320992_">
					<use xlink:href="#SVGID_00000123432295002073952260000004156894281563594141_"  style="overflow:visible;"/>
				</clipPath>
				<g style="clip-path:url(#SVGID_00000114074654913705014190000001689445184099320992_);">
					<circle class="st12" cx="439.9" cy="322.6" r="9.7"/>
				</g>
			</g>
		</g>
	</g>
</g>
<g>
	<g>
		<g>
			<g>
				<defs>
					<polygon id="SVGID_00000116936839722342431750000010854213671174778046_" points="357.8,312.9 357.8,312.9 338.4,312.9 
						338.4,332.3 357.8,332.3 					"/>
				</defs>
				<clipPath id="SVGID_00000181088356554658016920000002447323118960804767_">
					<use xlink:href="#SVGID_00000116936839722342431750000010854213671174778046_"  style="overflow:visible;"/>
				</clipPath>
				<g style="clip-path:url(#SVGID_00000181088356554658016920000002447323118960804767_);">
					<circle class="st12" cx="348.1" cy="322.6" r="9.7"/>
				</g>
			</g>
		</g>
	</g>
</g>
<path class="st14" d="M469.9,331c2.3-16.1,3.2-54,3.2-54c0-45.5-31.5-74.9-76.5-75.8l0,0h-5.3l0,0c-45,0.9-76.5,30.3-76.5,75.8
	c0,0,0.9,38,3.2,54c1.8,12.9-12.8,35,3.1,57c9.2,12.7,53.8,20.1,70.4,24.3c0.7,0.2,1.4,0.3,2.1,0.3c0.1,0,0.3,0,0.4,0s0.3,0,0.4,0
	c0.7,0,1.4-0.1,2.1-0.3c13.9-3.5,47.5-9.3,63.4-18.5c2.5-0.8,4.7-2.4,6.1-4.7c0.3-0.3,0.6-0.7,0.9-1
	C482.8,366,468.1,343.9,469.9,331z"/>
<path class="st3" d="M381.7,346c-1,0.1-1.4,0.7-0.6,1c3,1.2,8.7,3.4,12.5,3.4c3.6,0,9-2.1,11.8-3.3c0.8-0.3,0.4-1-0.6-1
	c-3.4-0.2-4.8,0.6-11.6,0.6C387.4,346.7,385.1,345.8,381.7,346z"/>
<path class="st15" d="M316.2,311.4c0,0,16.8-6.1,5.4-43.6c-4.2-13.5,14.2-25.3,29.1-18.7s35,9.7,42.7,9.7c7.6,0,43.4-7.9,50.3-11.6
	c6.9-3.7,20.8-5.1,24.6,13c3.8,18-4.3,45.8,3,51.3c0.3,0,4.5-3.7,7.3-4.5c0.1,0.2,30.8-108.3-83.2-108.3s-87.2,108.3-86.8,108
	C309,306.5,315.5,309.6,316.2,311.4z"/>
<path class="st0" d="M320.2,284l23.9-9.6c29.8-11.7,63.5-12.4,93.3-1.3L467,284c5.7,2,11.7,7.4,13.3,2l1.5-5.9
	c2-7.2-15.2-38.3-30-49.6c-10.4-7.8-23-12.6-36.1-14.3c-12.6-1.3-25-1.5-37.4-0.4c-11.7,1.1-23,5.2-32.6,11.5
	c-18.5,12.2-42.8,48-41.1,53.5l2.2,5.9C308.7,291.8,314.8,286,320.2,284z"/>
</svg>
