<?xml version="1.0" encoding="utf-8"?>
<!-- Generator: Adobe Illustrator 26.0.3, SVG Export Plug-In . SVG Version: 6.00 Build 0)  -->
<svg version="1.1" id="Calque_1" xmlns="http://www.w3.org/2000/svg" xmlns:xlink="http://www.w3.org/1999/xlink" x="0px" y="0px"
	 viewBox="0 0 788 1005" style="enable-background:new 0 0 788 1005;" xml:space="preserve">
<style type="text/css">
	.st0{fill:#E2AB81;}
	.st1{fill:#5E5E5E;}
	.st2{clip-path:url(#SVGID_00000026869701901440765890000007914769719032149141_);}
	.st3{fill:#924125;}
	.st4{clip-path:url(#SVGID_00000070093328662274218090000013669668512842627516_);}
	.st5{clip-path:url(#SVGID_00000121995570444418099070000009802621955532379830_);}
	.st6{fill:#573623;}
	.st7{clip-path:url(#SVGID_00000121990073426693130110000010147068277918865822_);}
	.st8{clip-path:url(#SVGID_00000061448138946857380140000003999664987120092848_);}
	.st9{fill:#FFFFFF;}
	.st10{clip-path:url(#SVGID_00000037676701495469092540000008444817361198835646_);}
	.st11{clip-path:url(#SVGID_00000168079316127160928000000015423559774953272248_);}
	.st12{fill:#090909;}
	.st13{clip-path:url(#SVGID_00000168817312475466651730000003634047657786434206_);}
	.st14{fill:#B85727;}
	.st15{fill:#C18544;}
</style>
<path class="st0" d="M482.6,271c0,49.6-39.9,89.8-89.1,89.8s-89.1-40.1-89.1-89.8s39.9-86,89.1-86S482.6,221.4,482.6,271z"/>
<path class="st1" d="M364.9,340.6c0,0,0,3.2,0,2.1v-0.2C364.9,341.9,364.9,341.2,364.9,340.6z"/>
<path class="st1" d="M364.9,340.6c0,0,0,3.2,0,2.1v-0.2C364.9,341.9,364.9,341.2,364.9,340.6z"/>
<path class="st1" d="M364.9,340.6c0,0,0,3.2,0,2.1v-0.2C364.9,341.9,364.9,341.2,364.9,340.6z"/>
<path class="st1" d="M364.9,340.6c0,0,0,3.2,0,2.1v-0.2C364.9,341.9,364.9,341.2,364.9,340.6z"/>
<path class="st1" d="M364.9,340.6c0,0,0,3.2,0,2.1v-0.2C364.9,341.9,364.9,341.2,364.9,340.6z"/>
<g id="random">
	<g>
		<g>
			<g>
				<g>
					<g>
						<defs>
							<polygon id="SVGID_1_" points="457.5,305.9 457.5,305.9 494.7,305.9 494.7,370.6 457.5,370.6 							"/>
						</defs>
						<clipPath id="SVGID_00000097480355996659015070000013145034024170473401_">
							<use xlink:href="#SVGID_1_"  style="overflow:visible;"/>
						</clipPath>
						<g style="clip-path:url(#SVGID_00000097480355996659015070000013145034024170473401_);">
							<path class="st3" d="M457.5,366.4l8.1-49c0,0,12.8-17.9,25.7-9c8.6,5.9-0.8,56.6-9.9,60C465.7,374.3,457.5,366.4,457.5,366.4
								z"/>
						</g>
					</g>
				</g>
			</g>
		</g>
	</g>
</g>
<g id="random2">
	<g>
		<g>
			<g>
				<g>
					<g>
						<defs>
							<polygon id="SVGID_00000109027872160360089220000008148790903302424469_" points="330.5,305.9 330.5,305.9 293.3,305.9 
								293.3,370.6 330.5,370.6 							"/>
						</defs>
						<clipPath id="SVGID_00000124138016444671699930000006520171558002770581_">
							<use xlink:href="#SVGID_00000109027872160360089220000008148790903302424469_"  style="overflow:visible;"/>
						</clipPath>
						<g style="clip-path:url(#SVGID_00000124138016444671699930000006520171558002770581_);">
							<path class="st3" d="M330.5,366.4l-8.1-49c0,0-12.8-17.9-25.7-9c-8.6,5.9,0.8,56.6,9.9,60
								C322.3,374.3,330.5,366.4,330.5,366.4z"/>
						</g>
					</g>
				</g>
			</g>
		</g>
	</g>
</g>
<g>
	<g>
		<g>
			<g>
				<g>
					<defs>
						<polygon id="SVGID_00000081620135518904696270000002952338407662978178_" points="415.9,279.5 415.9,279.5 460.9,279.5 
							460.9,293.2 415.9,293.2 						"/>
					</defs>
					<clipPath id="SVGID_00000145027830430058770030000017860986352154263975_">
						<use xlink:href="#SVGID_00000081620135518904696270000002952338407662978178_"  style="overflow:visible;"/>
					</clipPath>
					<g style="clip-path:url(#SVGID_00000145027830430058770030000017860986352154263975_);">
						<path class="st6" d="M458.7,293.2c-0.3,0-0.6-0.1-0.8-0.2c-4.5-1.9-9.1-3.4-13.8-4.5c-15.1-3.4-16.1-1-21.3,0
							c-1.5,0.3-5.2-0.6-6-1.5s-1.4-4.1-0.5-4.9c0.4-0.3,7.1-4.9,24.4-1c7.2,1.6,18.6,7.9,18.9,8c1.1,0.5,1.6,1.7,1.1,2.8
							C460.4,292.7,459.6,293.3,458.7,293.2L458.7,293.2z"/>
					</g>
				</g>
			</g>
		</g>
	</g>
</g>
<g>
	<g>
		<g>
			<g>
				<g>
					<defs>
						<polygon id="SVGID_00000005949023540265169460000007094068302645520301_" points="372.1,279.5 372.1,279.5 327.1,279.5 
							327.1,293.2 372.1,293.2 						"/>
					</defs>
					<clipPath id="SVGID_00000142864695538431709700000007192174925109194133_">
						<use xlink:href="#SVGID_00000005949023540265169460000007094068302645520301_"  style="overflow:visible;"/>
					</clipPath>
					<g style="clip-path:url(#SVGID_00000142864695538431709700000007192174925109194133_);">
						<path class="st6" d="M329.3,293.2c0.3,0,0.6-0.1,0.8-0.2c4.5-1.9,9.1-3.4,13.8-4.5c15.1-3.4,16.1-1,21.3,0
							c1.5,0.3,5.2-0.6,6-1.5s1.4-4.1,0.5-4.9c-0.4-0.3-7.1-4.9-24.4-1c-7.2,1.6-18.6,7.9-18.9,8c-1.1,0.5-1.6,1.7-1.1,2.8
							C327.6,292.7,328.4,293.3,329.3,293.2L329.3,293.2z"/>
					</g>
				</g>
			</g>
		</g>
	</g>
</g>
<g>
	<g>
		<g>
			<g>
				<g>
					<defs>
						<polygon id="SVGID_00000169559130894675298870000008948795298710411176_" points="425.5,306.6 425.5,306.6 454.5,306.6 
							454.5,334.5 425.5,334.5 						"/>
					</defs>
					<clipPath id="SVGID_00000042702624656368711830000013549955290577138607_">
						<use xlink:href="#SVGID_00000169559130894675298870000008948795298710411176_"  style="overflow:visible;"/>
					</clipPath>
					<g style="clip-path:url(#SVGID_00000042702624656368711830000013549955290577138607_);">
						<ellipse class="st9" cx="440" cy="320.6" rx="14.5" ry="13.9"/>
					</g>
				</g>
			</g>
		</g>
	</g>
</g>
<g>
	<g>
		<g>
			<g>
				<g>
					<defs>
						<polygon id="SVGID_00000127028435313969295150000009561683637258399657_" points="362.5,306.6 362.5,306.6 333.5,306.6 
							333.5,334.5 362.5,334.5 						"/>
					</defs>
					<clipPath id="SVGID_00000128474043066005658780000011556153546926660530_">
						<use xlink:href="#SVGID_00000127028435313969295150000009561683637258399657_"  style="overflow:visible;"/>
					</clipPath>
					<g style="clip-path:url(#SVGID_00000128474043066005658780000011556153546926660530_);">
						<ellipse class="st9" cx="348" cy="320.6" rx="14.5" ry="13.9"/>
					</g>
				</g>
			</g>
		</g>
	</g>
</g>
<g>
	<g>
		<g>
			<g>
				<g>
					<defs>
						<polygon id="SVGID_00000134961322940444481510000001085671003124736157_" points="430.2,312.9 430.2,312.9 449.6,312.9 
							449.6,332.3 430.2,332.3 						"/>
					</defs>
					<clipPath id="SVGID_00000158728973922770440720000018156716092725857936_">
						<use xlink:href="#SVGID_00000134961322940444481510000001085671003124736157_"  style="overflow:visible;"/>
					</clipPath>
					<g style="clip-path:url(#SVGID_00000158728973922770440720000018156716092725857936_);">
						<circle class="st12" cx="439.9" cy="322.6" r="9.7"/>
					</g>
				</g>
			</g>
		</g>
	</g>
</g>
<g>
	<g>
		<g>
			<g>
				<g>
					<defs>
						<polygon id="SVGID_00000093139316711070996480000016773570808363498687_" points="357.8,312.9 357.8,312.9 338.4,312.9 
							338.4,332.3 357.8,332.3 						"/>
					</defs>
					<clipPath id="SVGID_00000004532149959320102160000008508767204037228697_">
						<use xlink:href="#SVGID_00000093139316711070996480000016773570808363498687_"  style="overflow:visible;"/>
					</clipPath>
					<g style="clip-path:url(#SVGID_00000004532149959320102160000008508767204037228697_);">
						<circle class="st12" cx="348.1" cy="322.6" r="9.7"/>
					</g>
				</g>
			</g>
		</g>
	</g>
</g>
<path class="st14" d="M469.9,331c2.3-16.1,3.2-54,3.2-54c0-45.5-31.5-74.9-76.5-75.8l0,0h-5.3l0,0c-45,0.9-76.5,30.3-76.5,75.8
	c0,0,0.9,38,3.2,54c1.8,12.9-12.8,35,3.1,57c9.2,12.7,53.8,20.1,70.4,24.3c0.7,0.2,1.4,0.3,2.1,0.3c0.1,0,0.3,0,0.4,0s0.3,0,0.4,0
	c0.7,0,1.4-0.1,2.1-0.3c13.9-3.5,47.5-9.3,63.4-18.5c2.5-0.8,4.7-2.4,6.1-4.7c0.3-0.3,0.6-0.7,0.9-1
	C482.8,366,468.1,343.9,469.9,331z"/>
<path class="st3" d="M381.7,346c-1,0.1-1.4,0.7-0.6,1c3,1.2,8.7,3.4,12.5,3.4c3.6,0,9-2.1,11.8-3.3c0.8-0.3,0.4-1-0.6-1
	c-3.4-0.2-4.8,0.6-11.6,0.6C387.4,346.7,385.1,345.8,381.7,346z"/>
<path class="st15" d="M319.8,290.6l0.1-18.6c0-0.1,0-0.2,0-0.3c0.5-1.7,3.8-10.6,4.4-10.9l7.9-14.6c0.3-0.6,0.1-1.3-0.4-1.6
	c-18.1-12.1,128.1-15.1,136-3.9c0.1,0.2,0.2,0.4,0.2,0.6l4.1,44.9c0,0.1,0.1,0.3,0.1,0.4c0,0,0,0,0,0c0.4,1,1.8,1,2.3,0.1l1.6-2.8
	c0.1-0.2,0.3-0.4,0.5-0.5c1.4-0.7,2-2.9,1-4.2l-1.5-2c-0.7-1-0.7-2.2-0.2-3.2l5-9.4c0.2-0.5,0.2,4,0.4,6.8c0.1,1,1.3,1.5,2.1,0.9
	l6.5-5.6l5.3-4c1-0.8,1.5-2.5,0.6-3.8l-4-6.5c-0.7-1.1-0.5-2.8,0.4-3.7l22.1-20.4c1.5-1.3,1.1-3.9-0.5-4.7l-9.2-4.2
	c-0.5-0.2-1-0.5-1.1-1.1l-15.9-29.7c-0.7-1.5-2.5-1.7-3.5-0.5l-6.1,6.5c-0.7,0.7-1.8,1-2.8,0.4l-11.8-8.3c-1.8-1.3-4.2,1-3.3,3.3
	l0,0c0.4,1.3,0,2.8-1.1,3.3l-2.2,1.3c-1,0.5-1.8,0.4-2.5-0.4l-7.4-7.5c-0.4-0.4-0.7-1-0.7-1.7l-3.2-23.6c-0.2-1.8-2-3-3.5-2
	l-19,12.4c-1.1,0.7-2.4,0.4-3.2-1l-7.9-14.4c-0.7-1.3-2.2-1.7-3.3-0.7l-8.3,6.8c-1.1,1-2.4,0.5-3.3-0.5l-6.1-9c-1-1.5-2.8-1.5-3.7,0
	l-2.5,3.9c-0.4,0.5-1,1-1.7,1l-28.4,3.3c-1.8,0.2-2.8,2.5-1.7,4.2l1.3,2.2c0.7,1.3,0.4,3-0.7,3.9l-33.6,24.1
	c-1.1,0.7-2.4,0.4-3.2-0.7l-7.2-11.2c-1.1-1.7-3.5-1.3-4,0.7l-4,12.4c-0.5,1.5-1.8,2.2-3.2,1.5l-3.9-1.8c-1.7-0.7-3.3,0.5-3.3,2.5
	l1.1,37.5c0,1-0.4,2-1.1,2.4l-13.9,9.2c-1.5,1-1.7,3.5-0.2,4.7l20.3,14.7c0.7,0.5,1.1,1.5,1.1,2.4l-0.5,10.5c0,1.3,0.7,2.5,1.8,2.8
	l14.6,3.2c0.5,0.2,1.1,0.5,1.5,1.1l2.5,4C316.8,293.2,319.3,292.7,319.8,290.6z"/>
<path class="st15" d="M315.9,312.8c0,0,16.9-6.1,5.4-43.8c-4.2-13.5,14.3-25.4,29.2-18.8s35.1,9.7,42.9,9.7
	c7.6,0,43.6-7.9,50.5-11.6c6.9-3.7,20.9-5.1,24.7,13c3.8,18.1-4.3,46,3,51.5c0.3,0,4.5-3.7,7.3-4.5c0.1,0.2,30.9-108.7-83.5-108.7
	S307.9,308.3,308.3,308C308.7,307.9,315.2,311,315.9,312.8z"/>
</svg>
