<?xml version="1.0" encoding="utf-8"?>
<!-- Generator: Adobe Illustrator 26.0.3, SVG Export Plug-In . SVG Version: 6.00 Build 0)  -->
<svg version="1.1" id="Calque_1" xmlns="http://www.w3.org/2000/svg" xmlns:xlink="http://www.w3.org/1999/xlink" x="0px" y="0px"
	 viewBox="0 0 201.4 235.6" style="enable-background:new 0 0 201.4 235.6;" xml:space="preserve">
<style type="text/css">
	.st0{fill:#5E5E5E;}
	.st1{clip-path:url(#SVGID_00000135686240953398387830000008528409457344327818_);}
	.st2{fill:#924125;}
	.st3{clip-path:url(#SVGID_00000031919709231845808950000011694901810084662687_);}
	.st4{clip-path:url(#SVGID_00000045579591343023138360000000997748969815388601_);}
	.st5{fill:#573623;}
	.st6{clip-path:url(#SVGID_00000086678512853792262580000014173192890672094849_);}
	.st7{clip-path:url(#SVGID_00000120554533510820022100000009574530420898026886_);}
	.st8{fill:#FFFFFF;}
	.st9{clip-path:url(#SVGID_00000095313287800258849500000012658173101725331353_);}
	.st10{clip-path:url(#SVGID_00000183216811219771205230000008674174052860044450_);}
	.st11{fill:#090909;}
	.st12{clip-path:url(#SVGID_00000111887218155025016560000013986510639652793219_);}
	.st13{fill:#B85727;}
	.st14{fill:#C18544;}
</style>
<path class="st0" d="M80.9,169.1c0,0,0,2.6,0,1.7v-0.2C80.9,170.2,80.9,169.6,80.9,169.1z"/>
<path class="st0" d="M80.9,169.1c0,0,0,2.6,0,1.7v-0.2C80.9,170.2,80.9,169.6,80.9,169.1z"/>
<path class="st0" d="M80.9,169.1c0,0,0,2.6,0,1.7v-0.2C80.9,170.2,80.9,169.6,80.9,169.1z"/>
<path class="st0" d="M80.9,169.1c0,0,0,2.6,0,1.7v-0.2C80.9,170.2,80.9,169.6,80.9,169.1z"/>
<path class="st0" d="M80.9,169.1c0,0,0,2.6,0,1.7v-0.2C80.9,170.2,80.9,169.6,80.9,169.1z"/>
<g id="random">
	<g>
		<g>
			<g>
				<g>
					<defs>
						<polygon id="SVGID_1_" points="155.5,141.2 155.5,141.2 185.4,141.2 185.4,193.3 155.5,193.3 						"/>
					</defs>
					<clipPath id="SVGID_00000125570183040277514990000005094550952090094226_">
						<use xlink:href="#SVGID_1_"  style="overflow:visible;"/>
					</clipPath>
					<g style="clip-path:url(#SVGID_00000125570183040277514990000005094550952090094226_);">
						<path class="st2" d="M155.5,189.9l6.5-39.5c0,0,10.3-14.4,20.7-7.2c6.9,4.8-0.6,45.6-8,48.3
							C162.1,196.3,155.5,189.9,155.5,189.9z"/>
					</g>
				</g>
			</g>
		</g>
	</g>
</g>
<g id="random2">
	<g>
		<g>
			<g>
				<g>
					<defs>
						<polygon id="SVGID_00000001631064564672144170000005944099246996148628_" points="53.2,141.2 53.2,141.2 23.2,141.2 
							23.2,193.3 53.2,193.3 						"/>
					</defs>
					<clipPath id="SVGID_00000140702275695998330950000011006075566789156763_">
						<use xlink:href="#SVGID_00000001631064564672144170000005944099246996148628_"  style="overflow:visible;"/>
					</clipPath>
					<g style="clip-path:url(#SVGID_00000140702275695998330950000011006075566789156763_);">
						<path class="st2" d="M53.2,189.9l-6.5-39.5c0,0-10.3-14.4-20.7-7.2c-6.9,4.8,0.6,45.6,8,48.3
							C46.6,196.3,53.2,189.9,53.2,189.9z"/>
					</g>
				</g>
			</g>
		</g>
	</g>
</g>
<g>
	<g>
		<g>
			<g>
				<defs>
					<polygon id="SVGID_00000122691039292323186600000011422159366487026621_" points="122,119.9 122,119.9 158.2,119.9 158.2,131 
						122,131 					"/>
				</defs>
				<clipPath id="SVGID_00000097468091464225890630000017004424443429211780_">
					<use xlink:href="#SVGID_00000122691039292323186600000011422159366487026621_"  style="overflow:visible;"/>
				</clipPath>
				<g style="clip-path:url(#SVGID_00000097468091464225890630000017004424443429211780_);">
					<path class="st5" d="M156.4,131c-0.2,0-0.5-0.1-0.6-0.2c-3.6-1.5-7.3-2.7-11.1-3.6c-12.2-2.7-13-0.8-17.2,0
						c-1.2,0.2-4.2-0.5-4.8-1.2c-0.6-0.7-1.1-3.3-0.4-3.9c0.3-0.2,5.7-3.9,19.7-0.8c5.8,1.3,15,6.4,15.2,6.4
						c0.9,0.4,1.3,1.4,0.9,2.3C157.8,130.6,157.2,131,156.4,131L156.4,131z"/>
				</g>
			</g>
		</g>
	</g>
</g>
<g>
	<g>
		<g>
			<g>
				<defs>
					<polygon id="SVGID_00000120549506446532976890000003924492303255855262_" points="86.7,119.9 86.7,119.9 50.4,119.9 50.4,131 
						86.7,131 					"/>
				</defs>
				<clipPath id="SVGID_00000148638707882717917600000007548037241970413226_">
					<use xlink:href="#SVGID_00000120549506446532976890000003924492303255855262_"  style="overflow:visible;"/>
				</clipPath>
				<g style="clip-path:url(#SVGID_00000148638707882717917600000007548037241970413226_);">
					<path class="st5" d="M52.2,131c0.2,0,0.5-0.1,0.6-0.2c3.6-1.5,7.3-2.7,11.1-3.6c12.2-2.7,13-0.8,17.2,0
						c1.2,0.2,4.2-0.5,4.8-1.2c0.6-0.7,1.1-3.3,0.4-3.9c-0.3-0.2-5.7-3.9-19.7-0.8c-5.8,1.3-15,6.4-15.2,6.4
						c-0.9,0.4-1.3,1.4-0.9,2.3C50.8,130.6,51.5,131,52.2,131L52.2,131z"/>
				</g>
			</g>
		</g>
	</g>
</g>
<g>
	<g>
		<g>
			<g>
				<defs>
					<polygon id="SVGID_00000034073800184756826530000013825144528953061255_" points="129.7,141.8 129.7,141.8 153.1,141.8 
						153.1,164.2 129.7,164.2 					"/>
				</defs>
				<clipPath id="SVGID_00000180355778187432944570000004602009664650495374_">
					<use xlink:href="#SVGID_00000034073800184756826530000013825144528953061255_"  style="overflow:visible;"/>
				</clipPath>
				<g style="clip-path:url(#SVGID_00000180355778187432944570000004602009664650495374_);">
					<ellipse class="st8" cx="141.4" cy="153" rx="11.7" ry="11.2"/>
				</g>
			</g>
		</g>
	</g>
</g>
<g>
	<g>
		<g>
			<g>
				<defs>
					<polygon id="SVGID_00000079484684879155874740000006298447098838241709_" points="79,141.8 79,141.8 55.6,141.8 55.6,164.2 
						79,164.2 					"/>
				</defs>
				<clipPath id="SVGID_00000030446624845437772480000017367282763345745086_">
					<use xlink:href="#SVGID_00000079484684879155874740000006298447098838241709_"  style="overflow:visible;"/>
				</clipPath>
				<g style="clip-path:url(#SVGID_00000030446624845437772480000017367282763345745086_);">
					<ellipse class="st8" cx="67.3" cy="153" rx="11.7" ry="11.2"/>
				</g>
			</g>
		</g>
	</g>
</g>
<g>
	<g>
		<g>
			<g>
				<defs>
					<polygon id="SVGID_00000171701344303480075890000017205702626618936994_" points="133.5,146.8 133.5,146.8 149.1,146.8 
						149.1,162.5 133.5,162.5 					"/>
				</defs>
				<clipPath id="SVGID_00000064323259931943143800000014455408640741493895_">
					<use xlink:href="#SVGID_00000171701344303480075890000017205702626618936994_"  style="overflow:visible;"/>
				</clipPath>
				<g style="clip-path:url(#SVGID_00000064323259931943143800000014455408640741493895_);">
					<circle class="st11" cx="141.3" cy="154.6" r="7.8"/>
				</g>
			</g>
		</g>
	</g>
</g>
<g>
	<g>
		<g>
			<g>
				<defs>
					<polygon id="SVGID_00000143601189298946819540000010334931545487943557_" points="75.2,146.8 75.2,146.8 59.5,146.8 
						59.5,162.5 75.2,162.5 					"/>
				</defs>
				<clipPath id="SVGID_00000168815225547687342040000017506670238547631008_">
					<use xlink:href="#SVGID_00000143601189298946819540000010334931545487943557_"  style="overflow:visible;"/>
				</clipPath>
				<g style="clip-path:url(#SVGID_00000168815225547687342040000017506670238547631008_);">
					<circle class="st11" cx="67.4" cy="154.6" r="7.8"/>
				</g>
			</g>
		</g>
	</g>
</g>
<path class="st13" d="M162.3,208.1c0.2-0.2,0.5-0.6,0.7-0.8c12.8-17.7,1-35.5,2.5-45.9c1.9-13,2.6-43.5,2.6-43.5
	c0-36.7-25.4-60.3-61.6-61.1l0,0h-4.3l0,0C66,57.6,40.6,81.3,40.6,117.9c0,0,0.7,30.6,2.6,43.5c1.4,10.4-10.3,28.2,2.5,45.9
	c7.4,10.2,43.3,16.2,56.7,19.6c0.6,0.2,1.1,0.2,1.7,0.2c0.1,0,0.2,0,0.3,0s0.2,0,0.3,0c0.6,0,1.1-0.1,1.7-0.2
	c11.2-2.8,42.1-10.6,54.9-18L162.3,208.1z"/>
<path class="st2" d="M94.4,173.5c-0.8,0.1-1.1,0.6-0.5,0.8c2.4,1,7,2.7,10.1,2.7c2.9,0,7.2-1.7,9.5-2.7c0.6-0.2,0.3-0.8-0.5-0.8
	c-2.7-0.2-3.9,0.5-9.3,0.5C99,174.1,97.2,173.3,94.4,173.5z"/>
<g id="Calque_6_00000138574580992109259530000004055695868823735972_">
	<path class="st14" d="M146.8,79.2c-3.1-1.9-7.1-1.9-10.4-0.2c-6.8,3.6-20.4,10.9-28,14.7c-3.8,1.9-10.5,2.5-16.9,2.5
		c-12.9,0-25.5,3.6-36.2,10.9c-2,1.4-3.7,2.6-4.8,3.5c-10.7,9.7-12.7,24.5-12.7,24.5s-12.2-31.3-5.5-47.8c-2.6,2.2,43-42.7,43-42.7
		s16.7-11.8,35-9.4c24.2,3.1,32.9,16.2,32.9,16.2s18.7-6.9,33.6,12.7c11.3,14.7,6.4,33.3,6.4,33.3l-9.7,36.3c0,0-4.2-24.2-5.1-28.5
		c-0.7-2.6-3.8-2.7-5.5-4.8c0,0-10.4-10.9-14.5-19.4C148.2,80.3,147.6,79.7,146.8,79.2z"/>
</g>
<path class="st14" d="M142.6,59.9l-24.3-24.7c-0.2-0.2-0.2-0.2-0.4-0.4c-3.3-1.9-43.4-23.4-62.5-6.7c-1.1,0.9-0.6,2.6,0.7,2.9
	c4.3,1.1,12.9,2.6,19.8,3.8c1.9,0.4,1.9,2.9,0.2,3.3c-14.5,3.3-41.1,12-50.8,35.2c-0.6,1.3,0.4,2.6,1.9,2.3c3.1-0.4,7.7-0.6,7.7-0.6
	S9.7,84.7,12,92.1c0.4,0.9,1.4,1.4,2.3,0.9c0,0,0,0,0.2,0c1.6-0.7,3.3,1.1,2,2.6c-4.9,6-9.8,14.3-4.9,19.4c0.6,0.6,1.6,0.7,2.3,0.2
	c1.4-1.3,4.3-3.6,7.1-6c1.4-1.3,3.5,0.4,2.6,2c-6.4,11.4-14.7,30.5-3.1,35.2c0.9,0.4,1.9,0,2.2-0.9c0.7-1.9,2.2-5.5,3.6-9.1
	c0.7-1.9,3.5-1.1,3.3,0.7c-0.9,11.1,0.4,24.7,11.8,22.7c0.9-0.2,1.4-0.9,1.4-1.6c0-3.6-0.4-13.3-0.6-15.1c0-0.2,0-0.4,0-0.6
	c1.6-4.9,25.5-74.7,99.6-79.9C142.9,62.7,143.6,61,142.6,59.9z"/>
<path class="st14" d="M136.2,65c-2.3-14.2-5.6-45,11.6-43.3c1.4,0.2,2.3,1.4,2.2,2.9c-0.2,2.2-0.7,5.2-1.3,8.4
	c-0.4,2.6,2.7,4,4.3,2.2c7.8-8,21.1-18.4,28.2-3.6c0.6,1.1,0.2,2.6-0.9,3.3c-2.7,1.9-8.1,5.6-13.5,9.1c-2.2,1.5-1.1,4.8,1.4,4.8
	c0.9,0,1.9,0,2.7,0.2c3.3,0.6,2.3,5.5-0.9,5.1c-8.1-1.1-20.9-0.2-29.6,12C139.7,68.1,136.6,67.3,136.2,65z"/>
<path class="st14" d="M140.4,76.8c0,0,52.8,2.9,55.6,49.6c0,1.4-2.3,1.6-3.6,0.7c-1.9-1.1-4.5-2.9-7.1-4.8c-2.2-1.4-4.8,0.7-3.8,3.1
	c4,10.4,5.2,27.1-11.1,27.1c-1.3,0-2.3-0.9-2.6-2.2c-0.6-3.3-1.4-9.8-2.6-15.9c-0.4-2.6-1.4-3.1-2.5-0.7c-0.4,0.9-0.9,1.6-1.3,2.3
	c-2,2.7-6-0.2-4.2-2.9C162.2,125.3,152.9,91.9,140.4,76.8z"/>
</svg>
