<?xml version="1.0" encoding="utf-8"?>
<!-- Generator: Adobe Illustrator 26.0.3, SVG Export Plug-In . SVG Version: 6.00 Build 0)  -->
<svg version="1.1" id="Calque_1" xmlns="http://www.w3.org/2000/svg" xmlns:xlink="http://www.w3.org/1999/xlink" x="0px" y="0px"
	 viewBox="0 0 788 1005" style="enable-background:new 0 0 788 1005;" xml:space="preserve">
<style type="text/css">
	.st0{fill:#5E5E5E;}
	.st1{clip-path:url(#SVGID_00000109723664449229401880000002322869007893170316_);}
	.st2{fill:#924125;}
	.st3{clip-path:url(#SVGID_00000147916522552392418460000010647899531263441343_);}
	.st4{clip-path:url(#SVGID_00000119087859172932354910000004091812317401745820_);}
	.st5{fill:#573623;}
	.st6{clip-path:url(#SVGID_00000147915121852846714240000012923412962330345405_);}
	.st7{clip-path:url(#SVGID_00000159457040647802773280000002659901460476898994_);}
	.st8{fill:#FFFFFF;}
	.st9{clip-path:url(#SVGID_00000161591098282998199830000005533311765940407170_);}
	.st10{clip-path:url(#SVGID_00000134237868788217721000000003269741078201582523_);}
	.st11{fill:#090909;}
	.st12{clip-path:url(#SVGID_00000138567975641842610660000011279763634939260076_);}
	.st13{fill:#B85727;}
</style>
<path class="st0" d="M364.9,340.6c0,0,0,3.2,0,2.1v-0.2C364.9,341.9,364.9,341.2,364.9,340.6z"/>
<path class="st0" d="M364.9,340.6c0,0,0,3.2,0,2.1v-0.2C364.9,341.9,364.9,341.2,364.9,340.6z"/>
<path class="st0" d="M364.9,340.6c0,0,0,3.2,0,2.1v-0.2C364.9,341.9,364.9,341.2,364.9,340.6z"/>
<path class="st0" d="M364.9,340.6c0,0,0,3.2,0,2.1v-0.2C364.9,341.9,364.9,341.2,364.9,340.6z"/>
<path class="st0" d="M364.9,340.6c0,0,0,3.2,0,2.1v-0.2C364.9,341.9,364.9,341.2,364.9,340.6z"/>
<g id="random">
	<g>
		<g>
			<g>
				<defs>
					<polygon id="SVGID_1_" points="457.5,305.9 457.5,305.9 494.7,305.9 494.7,370.6 457.5,370.6 					"/>
				</defs>
				<clipPath id="SVGID_00000134218224665195563070000007471586249264757687_">
					<use xlink:href="#SVGID_1_"  style="overflow:visible;"/>
				</clipPath>
				<g style="clip-path:url(#SVGID_00000134218224665195563070000007471586249264757687_);">
					<path class="st2" d="M457.5,366.4l8.1-49c0,0,12.8-17.9,25.7-9c8.6,5.9-0.8,56.6-9.9,60C465.7,374.3,457.5,366.4,457.5,366.4z"
						/>
				</g>
			</g>
		</g>
	</g>
</g>
<g id="random2">
	<g>
		<g>
			<g>
				<defs>
					<polygon id="SVGID_00000002351653041350886720000000820790669543461810_" points="330.5,305.9 330.5,305.9 293.3,305.9 
						293.3,370.6 330.5,370.6 					"/>
				</defs>
				<clipPath id="SVGID_00000029761532097247929510000016457666897717193658_">
					<use xlink:href="#SVGID_00000002351653041350886720000000820790669543461810_"  style="overflow:visible;"/>
				</clipPath>
				<g style="clip-path:url(#SVGID_00000029761532097247929510000016457666897717193658_);">
					<path class="st2" d="M330.5,366.4l-8.1-49c0,0-12.8-17.9-25.7-9c-8.6,5.9,0.8,56.6,9.9,60C322.3,374.3,330.5,366.4,330.5,366.4
						z"/>
				</g>
			</g>
		</g>
	</g>
</g>
<g>
	<g>
		<g>
			<defs>
				<polygon id="SVGID_00000155138078615610418840000001910723322119479958_" points="415.9,279.5 415.9,279.5 460.9,279.5 
					460.9,293.2 415.9,293.2 				"/>
			</defs>
			<clipPath id="SVGID_00000070840488582156617290000000646791255362621117_">
				<use xlink:href="#SVGID_00000155138078615610418840000001910723322119479958_"  style="overflow:visible;"/>
			</clipPath>
			<g style="clip-path:url(#SVGID_00000070840488582156617290000000646791255362621117_);">
				<path class="st5" d="M458.7,293.2c-0.3,0-0.6-0.1-0.8-0.2c-4.5-1.9-9.1-3.4-13.8-4.5c-15.1-3.4-16.1-1-21.3,0
					c-1.5,0.3-5.2-0.6-6-1.5s-1.4-4.1-0.5-4.9c0.4-0.3,7.1-4.9,24.4-1c7.2,1.6,18.6,7.9,18.9,8c1.1,0.5,1.6,1.7,1.1,2.8
					C460.4,292.7,459.6,293.3,458.7,293.2L458.7,293.2z"/>
			</g>
		</g>
	</g>
</g>
<g>
	<g>
		<g>
			<defs>
				<polygon id="SVGID_00000178923133803179339470000012513781807025113787_" points="372.1,279.5 372.1,279.5 327.1,279.5 
					327.1,293.2 372.1,293.2 				"/>
			</defs>
			<clipPath id="SVGID_00000124871520824845402400000011623226677023551881_">
				<use xlink:href="#SVGID_00000178923133803179339470000012513781807025113787_"  style="overflow:visible;"/>
			</clipPath>
			<g style="clip-path:url(#SVGID_00000124871520824845402400000011623226677023551881_);">
				<path class="st5" d="M329.3,293.2c0.3,0,0.6-0.1,0.8-0.2c4.5-1.9,9.1-3.4,13.8-4.5c15.1-3.4,16.1-1,21.3,0
					c1.5,0.3,5.2-0.6,6-1.5s1.4-4.1,0.5-4.9c-0.4-0.3-7.1-4.9-24.4-1c-7.2,1.6-18.6,7.9-18.9,8c-1.1,0.5-1.6,1.7-1.1,2.8
					C327.6,292.7,328.4,293.3,329.3,293.2L329.3,293.2z"/>
			</g>
		</g>
	</g>
</g>
<g>
	<g>
		<g>
			<defs>
				<polygon id="SVGID_00000086681543716299128260000005368924857019404473_" points="425.5,306.6 425.5,306.6 454.5,306.6 
					454.5,334.5 425.5,334.5 				"/>
			</defs>
			<clipPath id="SVGID_00000129886893458928114430000012323877600869617025_">
				<use xlink:href="#SVGID_00000086681543716299128260000005368924857019404473_"  style="overflow:visible;"/>
			</clipPath>
			<g style="clip-path:url(#SVGID_00000129886893458928114430000012323877600869617025_);">
				<ellipse class="st8" cx="440" cy="320.6" rx="14.5" ry="13.9"/>
			</g>
		</g>
	</g>
</g>
<g>
	<g>
		<g>
			<defs>
				<polygon id="SVGID_00000044147763448701948200000012045051000551144327_" points="362.5,306.6 362.5,306.6 333.5,306.6 
					333.5,334.5 362.5,334.5 				"/>
			</defs>
			<clipPath id="SVGID_00000180351571589269020880000002920374550347155621_">
				<use xlink:href="#SVGID_00000044147763448701948200000012045051000551144327_"  style="overflow:visible;"/>
			</clipPath>
			<g style="clip-path:url(#SVGID_00000180351571589269020880000002920374550347155621_);">
				<ellipse class="st8" cx="348" cy="320.6" rx="14.5" ry="13.9"/>
			</g>
		</g>
	</g>
</g>
<g>
	<g>
		<g>
			<defs>
				<polygon id="SVGID_00000183971448391446534930000016926165643009551238_" points="430.2,312.9 430.2,312.9 449.6,312.9 
					449.6,332.3 430.2,332.3 				"/>
			</defs>
			<clipPath id="SVGID_00000167371539504764517870000007506335180158146944_">
				<use xlink:href="#SVGID_00000183971448391446534930000016926165643009551238_"  style="overflow:visible;"/>
			</clipPath>
			<g style="clip-path:url(#SVGID_00000167371539504764517870000007506335180158146944_);">
				<circle class="st11" cx="439.9" cy="322.6" r="9.7"/>
			</g>
		</g>
	</g>
</g>
<g>
	<g>
		<g>
			<defs>
				<polygon id="SVGID_00000070113554716953802030000016583492229369381781_" points="357.8,312.9 357.8,312.9 338.4,312.9 
					338.4,332.3 357.8,332.3 				"/>
			</defs>
			<clipPath id="SVGID_00000135654130711998922810000014091764955841529486_">
				<use xlink:href="#SVGID_00000070113554716953802030000016583492229369381781_"  style="overflow:visible;"/>
			</clipPath>
			<g style="clip-path:url(#SVGID_00000135654130711998922810000014091764955841529486_);">
				<circle class="st11" cx="348.1" cy="322.6" r="9.7"/>
			</g>
		</g>
	</g>
</g>
<path class="st13" d="M469.9,331c2.3-16.1,3.2-54,3.2-54c0-45.5-31.5-74.9-76.5-75.8l0,0h-5.3l0,0c-45,0.9-76.5,30.3-76.5,75.8
	c0,0,0.9,38,3.2,54c1.8,12.9-12.8,35,3.1,57c9.2,12.7,53.8,20.1,70.4,24.3c0.7,0.2,1.4,0.3,2.1,0.3c0.1,0,0.3,0,0.4,0s0.3,0,0.4,0
	c0.7,0,1.4-0.1,2.1-0.3c13.9-3.5,47.5-9.3,63.4-18.5c2.5-0.8,4.7-2.4,6.1-4.7c0.3-0.3,0.6-0.7,0.9-1
	C482.8,366,468.1,343.9,469.9,331z"/>
<path class="st2" d="M381.7,346c-1,0.1-1.4,0.7-0.6,1c3,1.2,8.7,3.4,12.5,3.4c3.6,0,9-2.1,11.8-3.3c0.8-0.3,0.4-1-0.6-1
	c-3.4-0.2-4.8,0.6-11.6,0.6C387.4,346.7,385.1,345.8,381.7,346z"/>
</svg>
