<?xml version="1.0" encoding="utf-8"?>
<!-- Generator: Adobe Illustrator 26.0.3, SVG Export Plug-In . SVG Version: 6.00 Build 0)  -->
<svg version="1.1" id="Calque_1" xmlns="http://www.w3.org/2000/svg" xmlns:xlink="http://www.w3.org/1999/xlink" x="0px" y="0px"
	 viewBox="0 0 788 1005" style="enable-background:new 0 0 788 1005;" xml:space="preserve">
<style type="text/css">
	.st0{fill:#5E5E5E;}
	.st1{clip-path:url(#SVGID_00000103256583134715173310000009095704238638911674_);}
	.st2{fill:#924125;}
	.st3{clip-path:url(#SVGID_00000058578736277757612990000008070071152434394033_);}
	.st4{clip-path:url(#SVGID_00000038381366853446663980000017045698743981925027_);}
	.st5{fill:#573623;}
	.st6{clip-path:url(#SVGID_00000081638373050609585050000006024240852403328143_);}
	.st7{clip-path:url(#SVGID_00000183250170169756158950000017600139153770460833_);}
	.st8{fill:#FFFFFF;}
	.st9{clip-path:url(#SVGID_00000165919531388820136200000009868525624191706006_);}
	.st10{clip-path:url(#SVGID_00000123420705395470620480000009152243229775101884_);}
	.st11{fill:#090909;}
	.st12{clip-path:url(#SVGID_00000145034163492215188650000000287060553212945068_);}
	.st13{fill:#B85727;}
	.st14{fill:#C18544;}
	.st15{opacity:0.84;fill:#481F09;enable-background:new    ;}
	.st16{fill:#682E2F;}
	.st17{fill:#8F381F;}
</style>
<path class="st0" d="M364.9,340.6c0,0,0,3.2,0,2.1v-0.2C364.9,341.9,364.9,341.2,364.9,340.6z"/>
<path class="st0" d="M364.9,340.6c0,0,0,3.2,0,2.1v-0.2C364.9,341.9,364.9,341.2,364.9,340.6z"/>
<path class="st0" d="M364.9,340.6c0,0,0,3.2,0,2.1v-0.2C364.9,341.9,364.9,341.2,364.9,340.6z"/>
<path class="st0" d="M364.9,340.6c0,0,0,3.2,0,2.1v-0.2C364.9,341.9,364.9,341.2,364.9,340.6z"/>
<path class="st0" d="M364.9,340.6c0,0,0,3.2,0,2.1v-0.2C364.9,341.9,364.9,341.2,364.9,340.6z"/>
<g id="random">
	<g>
		<g>
			<g>
				<g>
					<defs>
						<polygon id="SVGID_1_" points="457.5,305.9 457.5,305.9 494.7,305.9 494.7,370.6 457.5,370.6 						"/>
					</defs>
					<clipPath id="SVGID_00000114756130285796552520000017088986290787927997_">
						<use xlink:href="#SVGID_1_"  style="overflow:visible;"/>
					</clipPath>
					<g style="clip-path:url(#SVGID_00000114756130285796552520000017088986290787927997_);">
						<path class="st2" d="M457.5,366.4l8.1-49c0,0,12.8-17.9,25.7-9c8.6,5.9-0.8,56.6-9.9,60C465.7,374.3,457.5,366.4,457.5,366.4z
							"/>
					</g>
				</g>
			</g>
		</g>
	</g>
</g>
<g id="random2">
	<g>
		<g>
			<g>
				<g>
					<defs>
						<polygon id="SVGID_00000045619990787483578890000007110805942782716094_" points="330.5,305.9 330.5,305.9 293.3,305.9 
							293.3,370.6 330.5,370.6 						"/>
					</defs>
					<clipPath id="SVGID_00000071540014674084213130000002826742620580460197_">
						<use xlink:href="#SVGID_00000045619990787483578890000007110805942782716094_"  style="overflow:visible;"/>
					</clipPath>
					<g style="clip-path:url(#SVGID_00000071540014674084213130000002826742620580460197_);">
						<path class="st2" d="M330.5,366.4l-8.1-49c0,0-12.8-17.9-25.7-9c-8.6,5.9,0.8,56.6,9.9,60
							C322.3,374.3,330.5,366.4,330.5,366.4z"/>
					</g>
				</g>
			</g>
		</g>
	</g>
</g>
<g>
	<g>
		<g>
			<g>
				<defs>
					<polygon id="SVGID_00000042012409858298619990000009632799136039006884_" points="415.9,279.5 415.9,279.5 460.9,279.5 
						460.9,293.2 415.9,293.2 					"/>
				</defs>
				<clipPath id="SVGID_00000168103793155434257900000003213588173382359997_">
					<use xlink:href="#SVGID_00000042012409858298619990000009632799136039006884_"  style="overflow:visible;"/>
				</clipPath>
				<g style="clip-path:url(#SVGID_00000168103793155434257900000003213588173382359997_);">
					<path class="st5" d="M458.7,293.2c-0.3,0-0.6-0.1-0.8-0.2c-4.5-1.9-9.1-3.4-13.8-4.5c-15.1-3.4-16.1-1-21.3,0
						c-1.5,0.3-5.2-0.6-6-1.5s-1.4-4.1-0.5-4.9c0.4-0.3,7.1-4.9,24.4-1c7.2,1.6,18.6,7.9,18.9,8c1.1,0.5,1.6,1.7,1.1,2.8
						C460.4,292.7,459.6,293.3,458.7,293.2L458.7,293.2z"/>
				</g>
			</g>
		</g>
	</g>
</g>
<g>
	<g>
		<g>
			<g>
				<defs>
					<polygon id="SVGID_00000119097235491764831840000016338877314667082917_" points="372.1,279.5 372.1,279.5 327.1,279.5 
						327.1,293.2 372.1,293.2 					"/>
				</defs>
				<clipPath id="SVGID_00000078016832481421922250000002471468046570314151_">
					<use xlink:href="#SVGID_00000119097235491764831840000016338877314667082917_"  style="overflow:visible;"/>
				</clipPath>
				<g style="clip-path:url(#SVGID_00000078016832481421922250000002471468046570314151_);">
					<path class="st5" d="M329.3,293.2c0.3,0,0.6-0.1,0.8-0.2c4.5-1.9,9.1-3.4,13.8-4.5c15.1-3.4,16.1-1,21.3,0
						c1.5,0.3,5.2-0.6,6-1.5s1.4-4.1,0.5-4.9c-0.4-0.3-7.1-4.9-24.4-1c-7.2,1.6-18.6,7.9-18.9,8c-1.1,0.5-1.6,1.7-1.1,2.8
						C327.6,292.7,328.4,293.3,329.3,293.2L329.3,293.2z"/>
				</g>
			</g>
		</g>
	</g>
</g>
<g>
	<g>
		<g>
			<g>
				<defs>
					<polygon id="SVGID_00000090264882932206216650000017583750317221355952_" points="425.5,306.6 425.5,306.6 454.5,306.6 
						454.5,334.5 425.5,334.5 					"/>
				</defs>
				<clipPath id="SVGID_00000175286949895184496870000007456181927501726370_">
					<use xlink:href="#SVGID_00000090264882932206216650000017583750317221355952_"  style="overflow:visible;"/>
				</clipPath>
				<g style="clip-path:url(#SVGID_00000175286949895184496870000007456181927501726370_);">
					<ellipse class="st8" cx="440" cy="320.6" rx="14.5" ry="13.9"/>
				</g>
			</g>
		</g>
	</g>
</g>
<g>
	<g>
		<g>
			<g>
				<defs>
					<polygon id="SVGID_00000076569158151314352060000014124882231698773403_" points="362.5,306.6 362.5,306.6 333.5,306.6 
						333.5,334.5 362.5,334.5 					"/>
				</defs>
				<clipPath id="SVGID_00000145027775701481725270000015097703870057274545_">
					<use xlink:href="#SVGID_00000076569158151314352060000014124882231698773403_"  style="overflow:visible;"/>
				</clipPath>
				<g style="clip-path:url(#SVGID_00000145027775701481725270000015097703870057274545_);">
					<ellipse class="st8" cx="348" cy="320.6" rx="14.5" ry="13.9"/>
				</g>
			</g>
		</g>
	</g>
</g>
<g>
	<g>
		<g>
			<g>
				<defs>
					<polygon id="SVGID_00000176731820006974134290000008710229075354369414_" points="430.2,312.9 430.2,312.9 449.6,312.9 
						449.6,332.3 430.2,332.3 					"/>
				</defs>
				<clipPath id="SVGID_00000059297939438617716870000016624230877286730148_">
					<use xlink:href="#SVGID_00000176731820006974134290000008710229075354369414_"  style="overflow:visible;"/>
				</clipPath>
				<g style="clip-path:url(#SVGID_00000059297939438617716870000016624230877286730148_);">
					<circle class="st11" cx="439.9" cy="322.6" r="9.7"/>
				</g>
			</g>
		</g>
	</g>
</g>
<g>
	<g>
		<g>
			<g>
				<defs>
					<polygon id="SVGID_00000052801173114649767200000010685024081081693597_" points="357.8,312.9 357.8,312.9 338.4,312.9 
						338.4,332.3 357.8,332.3 					"/>
				</defs>
				<clipPath id="SVGID_00000181048107362888442260000005311169964921334696_">
					<use xlink:href="#SVGID_00000052801173114649767200000010685024081081693597_"  style="overflow:visible;"/>
				</clipPath>
				<g style="clip-path:url(#SVGID_00000181048107362888442260000005311169964921334696_);">
					<circle class="st11" cx="348.1" cy="322.6" r="9.7"/>
				</g>
			</g>
		</g>
	</g>
</g>
<path class="st13" d="M469.9,331c2.3-16.1,3.2-54,3.2-54c0-45.5-31.5-74.9-76.5-75.8l0,0h-5.3l0,0c-45,0.9-76.5,30.3-76.5,75.8
	c0,0,0.9,38,3.2,54c1.8,12.9-12.8,35,3.1,57c9.2,12.7,53.8,20.1,70.4,24.3c0.7,0.2,1.4,0.3,2.1,0.3c0.1,0,0.3,0,0.4,0s0.3,0,0.4,0
	c0.7,0,1.4-0.1,2.1-0.3c13.9-3.5,47.5-9.3,63.4-18.5c2.5-0.8,4.7-2.4,6.1-4.7c0.3-0.3,0.6-0.7,0.9-1
	C482.8,366,468.1,343.9,469.9,331z"/>
<path class="st2" d="M381.7,346c-1,0.1-1.4,0.7-0.6,1c3,1.2,8.7,3.4,12.5,3.4c3.6,0,9-2.1,11.8-3.3c0.8-0.3,0.4-1-0.6-1
	c-3.4-0.2-4.8,0.6-11.6,0.6C387.4,346.7,385.1,345.8,381.7,346z"/>
<path class="st14" d="M316,312.3c0,0,16.7-6.1,5.4-43.3c-4.2-13.4,14.1-25.1,28.9-18.6c14.8,6.6,34.7,9.6,42.4,9.6
	c7.5,0,43.1-7.8,49.9-11.5c6.9-3.7,20.7-5.1,24.4,12.9c3.8,17.9-4.3,45.5,3,50.9c0.3,0,4.5-3.7,7.2-4.5
	c0.1,0.2,30.6-107.5-82.6-107.5S308.1,308,308.5,307.7C308.9,307.5,315.3,310.5,316,312.3z"/>
<path class="st15" d="M480.4,255.1c0,0,1.4,13.5,0.5,27.9c-10.7,7.3-41.6-19.6-87.6-19.7c-43.5-0.1-74.6,24-87.8,20.2
	c-0.9-14.7,0-28.4,0-28.4c0-45.5,34.8-74.9,84.5-75.8l0,0h5.9l0,0C445.7,180.3,480.4,209.6,480.4,255.1z"/>
<path class="st16" d="M490.4,239c0,41.1-44.1,21.3-98.5,21.3s-98.5,19.8-98.5-21.3s44.1-59.7,98.5-59.7S490.4,197.8,490.4,239z"/>
<path class="st17" d="M490.4,241.1c0,34.4-44.1,0-98.5,0s-98.5,34.4-98.5,0s44.1-61.8,98.5-61.8S490.4,206.7,490.4,241.1z"/>
</svg>
