<?xml version="1.0" encoding="utf-8"?>
<!-- Generator: Adobe Illustrator 26.0.3, SVG Export Plug-In . SVG Version: 6.00 Build 0)  -->
<svg version="1.1" id="Calque_1" xmlns="http://www.w3.org/2000/svg" xmlns:xlink="http://www.w3.org/1999/xlink" x="0px" y="0px"
	 viewBox="0 0 239.2 221.9" style="enable-background:new 0 0 239.2 221.9;" xml:space="preserve">
<style type="text/css">
	.st0{fill:#353535;}
	.st1{fill:#5E5E5E;}
	.st2{clip-path:url(#SVGID_00000151515159884699698520000004465881284466034831_);}
	.st3{fill:#924125;}
	.st4{clip-path:url(#SVGID_00000133521898899111249950000001440575759189737355_);}
	.st5{clip-path:url(#SVGID_00000094587164709297344260000014055515016690601102_);}
	.st6{fill:#573623;}
	.st7{clip-path:url(#SVGID_00000090281762275444731470000001837396927603662740_);}
	.st8{clip-path:url(#SVGID_00000011743976430167230810000003032220367156181645_);}
	.st9{fill:#FFFFFF;}
	.st10{clip-path:url(#SVGID_00000065050596760001481600000005257079571434535049_);}
	.st11{clip-path:url(#SVGID_00000083773376289953277600000008736956468985622936_);}
	.st12{fill:#090909;}
	.st13{clip-path:url(#SVGID_00000063629755775882268040000004780379232692044689_);}
	.st14{fill:#B85727;}
	.st15{fill:#C18544;}
</style>
<path class="st0" d="M59,85.3L18.4,54.4c-2.1-1.6-4.8-1.3-6.5,0.6l-5.3,6.5c-1.8,2.1-1.3,5.5,1.3,6.9l41.8,26.3l0.6-12.6l-32.5,20.6
	c-2.2,1.6-3.1,4.8-1,6.9l5,6.1c1.6,1.8,4.2,2.2,6.3,0.8l36.2-25L59,85.3z"/>
<path class="st1" d="M107.1,142.4c0,0,0,2.9,0,1.9v-0.2C107.1,143.6,107.1,142.9,107.1,142.4z"/>
<path class="st1" d="M107.1,142.4c0,0,0,2.9,0,1.9v-0.2C107.1,143.6,107.1,142.9,107.1,142.4z"/>
<path class="st1" d="M107.1,142.4c0,0,0,2.9,0,1.9v-0.2C107.1,143.6,107.1,142.9,107.1,142.4z"/>
<path class="st1" d="M107.1,142.4c0,0,0,2.9,0,1.9v-0.2C107.1,143.6,107.1,142.9,107.1,142.4z"/>
<path class="st1" d="M107.1,142.4c0,0,0,2.9,0,1.9v-0.2C107.1,143.6,107.1,142.9,107.1,142.4z"/>
<g id="random">
	<g>
		<g>
			<g>
				<g>
					<defs>
						<polygon id="SVGID_1_" points="190.2,111.2 190.2,111.2 223.6,111.2 223.6,169.3 190.2,169.3 						"/>
					</defs>
					<clipPath id="SVGID_00000152971551117836663950000010091694439621326763_">
						<use xlink:href="#SVGID_1_"  style="overflow:visible;"/>
					</clipPath>
					<g style="clip-path:url(#SVGID_00000152971551117836663950000010091694439621326763_);">
						<path class="st3" d="M190.2,165.6l7.3-44c0,0,11.5-16.1,23.1-8.1c7.7,5.3-0.7,50.8-8.9,53.9
							C197.6,172.7,190.2,165.6,190.2,165.6z"/>
					</g>
				</g>
			</g>
		</g>
	</g>
</g>
<g id="random2">
	<g>
		<g>
			<g>
				<g>
					<defs>
						<polygon id="SVGID_00000034050914439283927120000016664351420530399158_" points="76.2,111.2 76.2,111.2 42.8,111.2 
							42.8,169.3 76.2,169.3 						"/>
					</defs>
					<clipPath id="SVGID_00000005242656519027144890000015301375575470430102_">
						<use xlink:href="#SVGID_00000034050914439283927120000016664351420530399158_"  style="overflow:visible;"/>
					</clipPath>
					<g style="clip-path:url(#SVGID_00000005242656519027144890000015301375575470430102_);">
						<path class="st3" d="M76.2,165.6l-7.3-44c0,0-11.5-16.1-23.1-8.1c-7.7,5.3,0.7,50.8,8.9,53.9
							C68.8,172.7,76.2,165.6,76.2,165.6z"/>
					</g>
				</g>
			</g>
		</g>
	</g>
</g>
<g>
	<g>
		<g>
			<g>
				<defs>
					<polygon id="SVGID_00000093893922353226632530000011911645135802800775_" points="152.8,87.5 152.8,87.5 193.2,87.5 
						193.2,99.8 152.8,99.8 					"/>
				</defs>
				<clipPath id="SVGID_00000170973481197078175910000005557862684681736106_">
					<use xlink:href="#SVGID_00000093893922353226632530000011911645135802800775_"  style="overflow:visible;"/>
				</clipPath>
				<g style="clip-path:url(#SVGID_00000170973481197078175910000005557862684681736106_);">
					<path class="st6" d="M191.3,99.8c-0.3,0-0.5-0.1-0.7-0.2c-4-1.7-8.2-3.1-12.4-4c-13.6-3.1-14.5-0.9-19.1,0
						c-1.3,0.3-4.7-0.5-5.4-1.3c-0.7-0.8-1.3-3.7-0.4-4.4c0.4-0.3,6.4-4.4,21.9-0.9c6.5,1.4,16.7,7.1,17,7.2c1,0.4,1.4,1.5,1,2.5
						C192.8,99.4,192.1,99.9,191.3,99.8L191.3,99.8z"/>
				</g>
			</g>
		</g>
	</g>
</g>
<g>
	<g>
		<g>
			<g>
				<defs>
					<polygon id="SVGID_00000078727925772040761570000008042237326309488793_" points="113.5,87.5 113.5,87.5 73.1,87.5 73.1,99.8 
						113.5,99.8 					"/>
				</defs>
				<clipPath id="SVGID_00000085219338666253158840000002168148832943749802_">
					<use xlink:href="#SVGID_00000078727925772040761570000008042237326309488793_"  style="overflow:visible;"/>
				</clipPath>
				<g style="clip-path:url(#SVGID_00000085219338666253158840000002168148832943749802_);">
					<path class="st6" d="M75.1,99.8c0.3,0,0.5-0.1,0.7-0.2c4-1.7,8.2-3.1,12.4-4c13.6-3.1,14.5-0.9,19.1,0c1.3,0.3,4.7-0.5,5.4-1.3
						c0.7-0.8,1.3-3.7,0.4-4.4c-0.4-0.3-6.4-4.4-21.9-0.9c-6.5,1.4-16.7,7.1-17,7.2c-1,0.4-1.4,1.5-1,2.5
						C73.6,99.4,74.3,99.9,75.1,99.8L75.1,99.8z"/>
				</g>
			</g>
		</g>
	</g>
</g>
<g>
	<g>
		<g>
			<g>
				<defs>
					<polygon id="SVGID_00000132068321994094496270000014845693301175653261_" points="161.5,111.9 161.5,111.9 187.5,111.9 
						187.5,136.9 161.5,136.9 					"/>
				</defs>
				<clipPath id="SVGID_00000020394293234869640930000015566069189466656185_">
					<use xlink:href="#SVGID_00000132068321994094496270000014845693301175653261_"  style="overflow:visible;"/>
				</clipPath>
				<g style="clip-path:url(#SVGID_00000020394293234869640930000015566069189466656185_);">
					<ellipse class="st9" cx="174.5" cy="124.4" rx="13" ry="12.5"/>
				</g>
			</g>
		</g>
	</g>
</g>
<g>
	<g>
		<g>
			<g>
				<defs>
					<polygon id="SVGID_00000132807736781920869690000002142500260040755079_" points="104.9,111.9 104.9,111.9 78.9,111.9 
						78.9,136.9 104.9,136.9 					"/>
				</defs>
				<clipPath id="SVGID_00000045589019700191733090000009938290691969072768_">
					<use xlink:href="#SVGID_00000132807736781920869690000002142500260040755079_"  style="overflow:visible;"/>
				</clipPath>
				<g style="clip-path:url(#SVGID_00000045589019700191733090000009938290691969072768_);">
					<ellipse class="st9" cx="91.9" cy="124.4" rx="13" ry="12.5"/>
				</g>
			</g>
		</g>
	</g>
</g>
<g>
	<g>
		<g>
			<g>
				<defs>
					<polygon id="SVGID_00000162346409414676684010000004921321350986516382_" points="165.7,117.5 165.7,117.5 183.1,117.5 
						183.1,134.9 165.7,134.9 					"/>
				</defs>
				<clipPath id="SVGID_00000001662095920447009730000000330441842175044234_">
					<use xlink:href="#SVGID_00000162346409414676684010000004921321350986516382_"  style="overflow:visible;"/>
				</clipPath>
				<g style="clip-path:url(#SVGID_00000001662095920447009730000000330441842175044234_);">
					<circle class="st12" cx="174.4" cy="126.2" r="8.7"/>
				</g>
			</g>
		</g>
	</g>
</g>
<g>
	<g>
		<g>
			<g>
				<defs>
					<polygon id="SVGID_00000074442396184883699820000002097963327026053565_" points="100.7,117.5 100.7,117.5 83.3,117.5 
						83.3,134.9 100.7,134.9 					"/>
				</defs>
				<clipPath id="SVGID_00000112595287702283122000000017247422510757937289_">
					<use xlink:href="#SVGID_00000074442396184883699820000002097963327026053565_"  style="overflow:visible;"/>
				</clipPath>
				<g style="clip-path:url(#SVGID_00000112595287702283122000000017247422510757937289_);">
					<circle class="st12" cx="92" cy="126.2" r="8.7"/>
				</g>
			</g>
		</g>
	</g>
</g>
<path class="st14" d="M201.3,133.8c2.1-14.5,2.9-48.5,2.9-48.5c0-40.9-28.3-67.2-68.7-68.1l0,0h-4.8l0,0
	C90.4,18,62.1,44.4,62.1,85.3c0,0,0.8,34.1,2.9,48.5c1.6,11.6-11.5,31.4,2.8,51.2c8.3,11.4,48.3,18,63.2,21.8
	c0.6,0.2,1.3,0.3,1.9,0.3c0.1,0,0.3,0,0.4,0c0.1,0,0.3,0,0.4,0c0.6,0,1.3-0.1,1.9-0.3c12.5-3.1,42.6-8.3,56.9-16.6
	c2.2-0.7,4.2-2.2,5.5-4.2c0.3-0.3,0.5-0.6,0.8-0.9C212.9,165.2,199.7,145.4,201.3,133.8z"/>
<path class="st3" d="M122.1,147.2c-0.9,0.1-1.3,0.6-0.5,0.9c2.7,1.1,7.8,3.1,11.2,3.1c3.2,0,8.1-1.9,10.6-3c0.7-0.3,0.4-0.9-0.5-0.9
	c-3.1-0.2-4.3,0.5-10.4,0.5C127.3,147.9,125.2,147.1,122.1,147.2z"/>
<path class="st15" d="M63.3,116.1c0,0,15.1-5.5,4.8-39.1c-3.8-12.1,12.7-22.7,26.1-16.8s31.4,8.7,38.3,8.7c6.8,0,39-7.1,45.2-10.4
	c6.2-3.3,18.7-4.6,22.1,11.7c3.4,16.2-3.9,41.1,2.7,46.1c0.3,0,4-3.3,6.6-4c0.1,0.2,27.7-97.2-74.7-97.2s-78.3,97.2-77.9,97
	C56.9,111.7,62.7,114.5,63.3,116.1z"/>
<path class="st0" d="M66.9,91.6L88.4,83c26.8-10.5,57-11.1,83.8-1.2l26.6,9.8c5.1,1.8,10.5,6.6,11.9,1.8l1.3-5.3
	c1.8-6.5-13.6-34.4-26.9-44.5c-9.3-7-20.6-11.3-32.4-12.8c-11.3-1.2-22.4-1.3-33.6-0.4c-10.5,1-20.6,4.7-29.3,10.3
	c-16.6,11-38.4,43.1-36.9,48l2,5.3C56.6,98.6,62.1,93.4,66.9,91.6z"/>
</svg>
