<?xml version="1.0" encoding="utf-8"?>
<!-- Generator: Adobe Illustrator 26.0.3, SVG Export Plug-In . SVG Version: 6.00 Build 0)  -->
<svg version="1.1" id="Calque_1" xmlns="http://www.w3.org/2000/svg" xmlns:xlink="http://www.w3.org/1999/xlink" x="0px" y="0px"
	 viewBox="0 0 232.6 241.7" style="enable-background:new 0 0 232.6 241.7;" xml:space="preserve">
<style type="text/css">
	.st0{fill:#E2AB81;}
	.st1{fill:#5E5E5E;}
	.st2{clip-path:url(#SVGID_00000023248973883611370910000002268459234186805169_);}
	.st3{fill:#924125;}
	.st4{clip-path:url(#SVGID_00000132089643871630865860000014005913644182026646_);}
	.st5{clip-path:url(#SVGID_00000023248789737602371510000015642145982250919819_);}
	.st6{fill:#573623;}
	.st7{clip-path:url(#SVGID_00000094589251427897738410000011985390708893991588_);}
	.st8{clip-path:url(#SVGID_00000114774440317693584230000002511446706974320791_);}
	.st9{fill:#FFFFFF;}
	.st10{clip-path:url(#SVGID_00000028283359997528301560000005361742206126745260_);}
	.st11{clip-path:url(#SVGID_00000037692260460726931670000014651178240004340878_);}
	.st12{fill:#090909;}
	.st13{clip-path:url(#SVGID_00000183219092391441101520000005080834819633784759_);}
	.st14{fill:#B85727;}
	.st15{fill:#C18544;}
</style>
<path class="st0" d="M195.4,111.1c0,44.3-35.6,80.2-79.6,80.2s-79.6-35.8-79.6-80.2S72,34.3,115.9,34.3S195.4,66.8,195.4,111.1z"/>
<path class="st1" d="M90.4,173.3c0,0,0,2.9,0,1.9V175C90.4,174.4,90.4,173.8,90.4,173.3z"/>
<path class="st1" d="M90.4,173.3c0,0,0,2.9,0,1.9V175C90.4,174.4,90.4,173.8,90.4,173.3z"/>
<path class="st1" d="M90.4,173.3c0,0,0,2.9,0,1.9V175C90.4,174.4,90.4,173.8,90.4,173.3z"/>
<path class="st1" d="M90.4,173.3c0,0,0,2.9,0,1.9V175C90.4,174.4,90.4,173.8,90.4,173.3z"/>
<path class="st1" d="M90.4,173.3c0,0,0,2.9,0,1.9V175C90.4,174.4,90.4,173.8,90.4,173.3z"/>
<g id="random">
	<g>
		<g>
			<g>
				<g>
					<g>
						<defs>
							<polygon id="SVGID_1_" points="173,142.3 173,142.3 206.2,142.3 206.2,200 173,200 							"/>
						</defs>
						<clipPath id="SVGID_00000049217555392794407750000002901948794495549593_">
							<use xlink:href="#SVGID_1_"  style="overflow:visible;"/>
						</clipPath>
						<g style="clip-path:url(#SVGID_00000049217555392794407750000002901948794495549593_);">
							<path class="st3" d="M173,196.3l7.2-43.7c0,0,11.4-16,22.9-8c7.7,5.3-0.7,50.5-8.8,53.6C180.4,203.3,173,196.3,173,196.3z"/>
						</g>
					</g>
				</g>
			</g>
		</g>
	</g>
</g>
<g id="random2">
	<g>
		<g>
			<g>
				<g>
					<g>
						<defs>
							<polygon id="SVGID_00000029027459738123095410000004993127583625337221_" points="59.6,142.3 59.6,142.3 26.4,142.3 
								26.4,200 59.6,200 							"/>
						</defs>
						<clipPath id="SVGID_00000045611782659001544740000018287323357508643005_">
							<use xlink:href="#SVGID_00000029027459738123095410000004993127583625337221_"  style="overflow:visible;"/>
						</clipPath>
						<g style="clip-path:url(#SVGID_00000045611782659001544740000018287323357508643005_);">
							<path class="st3" d="M59.6,196.3l-7.2-43.7c0,0-11.4-16-22.9-8c-7.7,5.3,0.7,50.5,8.8,53.6C52.3,203.3,59.6,196.3,59.6,196.3
								z"/>
						</g>
					</g>
				</g>
			</g>
		</g>
	</g>
</g>
<g>
	<g>
		<g>
			<g>
				<g>
					<defs>
						<polygon id="SVGID_00000157283620671838216500000011446271169630862515_" points="135.9,118.7 135.9,118.7 176.1,118.7 
							176.1,130.9 135.9,130.9 						"/>
					</defs>
					<clipPath id="SVGID_00000057863732886581761020000016224166876818021793_">
						<use xlink:href="#SVGID_00000157283620671838216500000011446271169630862515_"  style="overflow:visible;"/>
					</clipPath>
					<g style="clip-path:url(#SVGID_00000057863732886581761020000016224166876818021793_);">
						<path class="st6" d="M174.1,130.9c-0.3,0-0.5-0.1-0.7-0.2c-4-1.7-8.1-3-12.3-4c-13.5-3-14.4-0.9-19,0
							c-1.3,0.3-4.6-0.5-5.4-1.3c-0.7-0.8-1.2-3.7-0.4-4.4c0.4-0.3,6.3-4.4,21.8-0.9c6.4,1.4,16.6,7.1,16.9,7.1c1,0.4,1.4,1.5,1,2.5
							C175.6,130.5,174.9,131,174.1,130.9L174.1,130.9z"/>
					</g>
				</g>
			</g>
		</g>
	</g>
</g>
<g>
	<g>
		<g>
			<g>
				<g>
					<defs>
						<polygon id="SVGID_00000039092432513652894240000005859487621869358994_" points="96.8,118.7 96.8,118.7 56.6,118.7 
							56.6,130.9 96.8,130.9 						"/>
					</defs>
					<clipPath id="SVGID_00000114775801486464637830000002274500371033493641_">
						<use xlink:href="#SVGID_00000039092432513652894240000005859487621869358994_"  style="overflow:visible;"/>
					</clipPath>
					<g style="clip-path:url(#SVGID_00000114775801486464637830000002274500371033493641_);">
						<path class="st6" d="M58.6,130.9c0.3,0,0.5-0.1,0.7-0.2c4-1.7,8.1-3,12.3-4c13.5-3,14.4-0.9,19,0c1.3,0.3,4.6-0.5,5.4-1.3
							s1.2-3.7,0.4-4.4c-0.4-0.3-6.3-4.4-21.8-0.9c-6.4,1.4-16.6,7.1-16.9,7.1c-1,0.4-1.4,1.5-1,2.5C57,130.5,57.8,131,58.6,130.9
							L58.6,130.9z"/>
					</g>
				</g>
			</g>
		</g>
	</g>
</g>
<g>
	<g>
		<g>
			<g>
				<g>
					<defs>
						<polygon id="SVGID_00000169522197345049654070000000949572233702340495_" points="144.5,142.9 144.5,142.9 170.4,142.9 
							170.4,167.8 144.5,167.8 						"/>
					</defs>
					<clipPath id="SVGID_00000046316145337632160050000017746490843638787732_">
						<use xlink:href="#SVGID_00000169522197345049654070000000949572233702340495_"  style="overflow:visible;"/>
					</clipPath>
					<g style="clip-path:url(#SVGID_00000046316145337632160050000017746490843638787732_);">
						<ellipse class="st9" cx="157.4" cy="155.4" rx="12.9" ry="12.4"/>
					</g>
				</g>
			</g>
		</g>
	</g>
</g>
<g>
	<g>
		<g>
			<g>
				<g>
					<defs>
						<polygon id="SVGID_00000121249805799578455980000008785004864570499977_" points="88.2,142.9 88.2,142.9 62.3,142.9 
							62.3,167.8 88.2,167.8 						"/>
					</defs>
					<clipPath id="SVGID_00000167357625443798020430000012427387100782736795_">
						<use xlink:href="#SVGID_00000121249805799578455980000008785004864570499977_"  style="overflow:visible;"/>
					</clipPath>
					<g style="clip-path:url(#SVGID_00000167357625443798020430000012427387100782736795_);">
						<ellipse class="st9" cx="75.3" cy="155.4" rx="12.9" ry="12.4"/>
					</g>
				</g>
			</g>
		</g>
	</g>
</g>
<g>
	<g>
		<g>
			<g>
				<g>
					<defs>
						<polygon id="SVGID_00000011030685827601663720000006823391750592685190_" points="148.7,148.5 148.7,148.5 166,148.5 
							166,165.8 148.7,165.8 						"/>
					</defs>
					<clipPath id="SVGID_00000172413954126476644190000016807196659007230082_">
						<use xlink:href="#SVGID_00000011030685827601663720000006823391750592685190_"  style="overflow:visible;"/>
					</clipPath>
					<g style="clip-path:url(#SVGID_00000172413954126476644190000016807196659007230082_);">
						<circle class="st12" cx="157.3" cy="157.2" r="8.7"/>
					</g>
				</g>
			</g>
		</g>
	</g>
</g>
<g>
	<g>
		<g>
			<g>
				<g>
					<defs>
						<polygon id="SVGID_00000049926440237147824340000017389178247455815581_" points="84,148.5 84,148.5 66.7,148.5 66.7,165.8 
							84,165.8 						"/>
					</defs>
					<clipPath id="SVGID_00000091733652283433626530000010674972137427858863_">
						<use xlink:href="#SVGID_00000049926440237147824340000017389178247455815581_"  style="overflow:visible;"/>
					</clipPath>
					<g style="clip-path:url(#SVGID_00000091733652283433626530000010674972137427858863_);">
						<circle class="st12" cx="75.4" cy="157.2" r="8.7"/>
					</g>
				</g>
			</g>
		</g>
	</g>
</g>
<path class="st14" d="M184.1,164.7c2.1-14.4,2.9-48.2,2.9-48.2c0-40.6-28.1-66.9-68.3-67.7l0,0h-4.7l0,0
	c-40.2,0.8-68.3,27.1-68.3,67.7c0,0,0.8,33.9,2.9,48.2c1.6,11.5-11.4,31.2,2.8,50.9c8.2,11.3,48,17.9,62.9,21.7
	c0.6,0.2,1.2,0.3,1.9,0.3c0.1,0,0.3,0,0.4,0c0.1,0,0.3,0,0.4,0c0.6,0,1.2-0.1,1.9-0.3c12.4-3.1,42.4-8.3,56.6-16.5
	c2.2-0.7,4.2-2.1,5.4-4.2c0.3-0.3,0.5-0.6,0.8-0.9C195.6,195.9,182.5,176.2,184.1,164.7z"/>
<path class="st3" d="M105.4,178.1c-0.9,0.1-1.2,0.6-0.5,0.9c2.7,1.1,7.8,3,11.2,3c3.2,0,8-1.9,10.5-2.9c0.7-0.3,0.4-0.9-0.5-0.9
	c-3-0.2-4.3,0.5-10.4,0.5C110.4,178.7,108.4,177.9,105.4,178.1z"/>
<path class="st15" d="M50.1,128.6l0.1-16.6c0-0.1,0-0.2,0-0.3c0.4-1.5,3.4-9.5,4-9.7l7-13c0.3-0.5,0.1-1.1-0.4-1.5
	C44.7,76.6,175.2,74,182.2,84c0.1,0.1,0.1,0.3,0.2,0.5l3.6,40.1c0,0.1,0,0.2,0.1,0.4c0,0,0,0,0,0c0.3,0.9,1.6,0.9,2,0.1l1.4-2.5
	c0.1-0.2,0.3-0.3,0.5-0.4c1.3-0.7,1.7-2.6,0.9-3.8l-1.3-1.8c-0.6-0.9-0.6-2-0.2-2.8l4.5-8.4c0.2-0.4,0.2,3.5,0.4,6.1
	c0.1,0.9,1.2,1.4,1.9,0.8l5.8-5l4.8-3.5c0.9-0.7,1.3-2.3,0.6-3.4l-3.6-5.8c-0.6-1-0.5-2.5,0.3-3.3L223.7,73c1.3-1.2,1-3.4-0.5-4.2
	l-8.2-3.8c-0.5-0.2-0.9-0.5-1-1l-14.2-26.5c-0.6-1.3-2.3-1.5-3.1-0.5l-5.4,5.8c-0.6,0.6-1.6,0.9-2.5,0.3l-10.6-7.4
	c-1.6-1.2-3.8,0.9-3,3l0,0c0.3,1.2,0,2.5-1,3l-2,1.2c-0.9,0.5-1.6,0.3-2.3-0.3l-6.6-6.7c-0.3-0.3-0.6-0.9-0.6-1.5l-2.8-21.1
	c-0.2-1.6-1.8-2.7-3.1-1.8l-17,11c-1,0.6-2.1,0.3-2.8-0.9l-7.1-12.8c-0.6-1.2-2-1.5-3-0.6l-7.4,6.1c-1,0.9-2.1,0.5-3-0.5l-5.4-8.1
	c-0.9-1.3-2.5-1.3-3.3,0l-2.3,3.4c-0.3,0.5-0.9,0.9-1.5,0.9l-25.4,3c-1.6,0.2-2.5,2.3-1.5,3.8l1.2,2c0.6,1.2,0.3,2.7-0.6,3.4
	l-30,21.5c-1,0.6-2.1,0.3-2.8-0.6l-6.4-10c-1-1.5-3.1-1.2-3.6,0.6l-3.6,11c-0.5,1.3-1.6,2-2.8,1.3L25,44.5c-1.5-0.6-3,0.5-3,2.3
	l1,33.5c0,0.9-0.3,1.8-1,2.1L9.7,90.6c-1.3,0.9-1.5,3.1-0.2,4.2l18.1,13.2c0.6,0.5,1,1.3,1,2.1l-0.5,9.4c0,1.2,0.6,2.3,1.6,2.5
	l13,2.8c0.5,0.2,1,0.5,1.3,1l2.3,3.6C47.4,130.9,49.6,130.5,50.1,128.6z"/>
<path class="st15" d="M46.6,148.4c0,0,15.1-5.4,4.8-39.1c-3.7-12.1,12.8-22.7,26.1-16.8s31.3,8.7,38.3,8.7c6.8,0,38.9-7.1,45.1-10.4
	c6.2-3.3,18.7-4.6,22.1,11.6c3.4,16.2-3.8,41.1,2.7,46c0.3,0,4-3.3,6.5-4c0.1,0.2,27.6-97.1-74.6-97.1s-78.1,97.1-77.8,96.8
	C40.2,144.1,46,146.8,46.6,148.4z"/>
</svg>
