<?xml version="1.0" encoding="utf-8"?>
<!-- Generator: Adobe Illustrator 26.0.3, SVG Export Plug-In . SVG Version: 6.00 Build 0)  -->
<svg version="1.1" id="Calque_1" xmlns="http://www.w3.org/2000/svg" xmlns:xlink="http://www.w3.org/1999/xlink" x="0px" y="0px"
	 viewBox="0 0 226.8 247.1" style="enable-background:new 0 0 226.8 247.1;" xml:space="preserve">
<style type="text/css">
	.st0{fill:#5285A2;}
	.st1{fill:#5E5E5E;}
	.st2{clip-path:url(#SVGID_00000036970471346595647660000012726666752021498039_);}
	.st3{fill:#924125;}
	.st4{clip-path:url(#SVGID_00000029762653426349977400000001648874711697483709_);}
	.st5{clip-path:url(#SVGID_00000132799258066259922630000008452332960606949522_);}
	.st6{fill:#573623;}
	.st7{clip-path:url(#SVGID_00000062162375554883000830000005930402487171396751_);}
	.st8{clip-path:url(#SVGID_00000033341510284149988160000008952489746935913095_);}
	.st9{fill:#FFFFFF;}
	.st10{clip-path:url(#SVGID_00000115486773688551342040000010254280752972204974_);}
	.st11{clip-path:url(#SVGID_00000105397953532299996360000002713688427066863284_);}
	.st12{fill:#090909;}
	.st13{clip-path:url(#SVGID_00000179625177758989159890000011788744208829056169_);}
	.st14{fill:#B85727;}
	.st15{fill:#C18544;}
	.st16{fill:#75A6C6;}
</style>
<path class="st0" d="M38.3,77c0,0-8.3-7.4-11-11.8c-2.7-4.4-4.1-5.8-4.4-10.7c-0.3-4.9,12.6-26.6,31.3-38.2
	C72.9,4.7,93.5,1.5,101.2,2.1c7.6,0.5,9.6,2.4,9.6,2.4s8.4,8.3,12.1,18.9"/>
<path class="st1" d="M104.2,178.8c0,0,0,2.9,0,1.9v-0.2C104.2,180,104.2,179.3,104.2,178.8z"/>
<path class="st1" d="M104.2,178.8c0,0,0,2.9,0,1.9v-0.2C104.2,180,104.2,179.3,104.2,178.8z"/>
<path class="st1" d="M104.2,178.8c0,0,0,2.9,0,1.9v-0.2C104.2,180,104.2,179.3,104.2,178.8z"/>
<path class="st1" d="M104.2,178.8c0,0,0,2.9,0,1.9v-0.2C104.2,180,104.2,179.3,104.2,178.8z"/>
<path class="st1" d="M104.2,178.8c0,0,0,2.9,0,1.9v-0.2C104.2,180,104.2,179.3,104.2,178.8z"/>
<g id="random">
	<g>
		<g>
			<g>
				<g>
					<defs>
						<polygon id="SVGID_1_" points="188.2,147.3 188.2,147.3 222,147.3 222,206 188.2,206 						"/>
					</defs>
					<clipPath id="SVGID_00000096041967209355501590000014290951108140145539_">
						<use xlink:href="#SVGID_1_"  style="overflow:visible;"/>
					</clipPath>
					<g style="clip-path:url(#SVGID_00000096041967209355501590000014290951108140145539_);">
						<path class="st3" d="M188.2,202.2l7.3-44.4c0,0,11.6-16.2,23.3-8.2c7.8,5.4-0.7,51.3-9,54.4
							C195.7,209.4,188.2,202.2,188.2,202.2z"/>
					</g>
				</g>
			</g>
		</g>
	</g>
</g>
<g id="random2">
	<g>
		<g>
			<g>
				<g>
					<defs>
						<polygon id="SVGID_00000018228825169610709870000015145510815815358115_" points="73,147.3 73,147.3 39.3,147.3 39.3,206 
							73,206 						"/>
					</defs>
					<clipPath id="SVGID_00000183215903660499438160000000155202987772834460_">
						<use xlink:href="#SVGID_00000018228825169610709870000015145510815815358115_"  style="overflow:visible;"/>
					</clipPath>
					<g style="clip-path:url(#SVGID_00000183215903660499438160000000155202987772834460_);">
						<path class="st3" d="M73,202.2l-7.3-44.4c0,0-11.6-16.2-23.3-8.2c-7.8,5.4,0.7,51.3,9,54.4C65.6,209.4,73,202.2,73,202.2z"/>
					</g>
				</g>
			</g>
		</g>
	</g>
</g>
<g>
	<g>
		<g>
			<g>
				<defs>
					<polygon id="SVGID_00000109729275722981459460000000088012747233462682_" points="150.5,123.4 150.5,123.4 191.3,123.4 
						191.3,135.8 150.5,135.8 					"/>
				</defs>
				<clipPath id="SVGID_00000129183513312334439500000017795807951862723490_">
					<use xlink:href="#SVGID_00000109729275722981459460000000088012747233462682_"  style="overflow:visible;"/>
				</clipPath>
				<g style="clip-path:url(#SVGID_00000129183513312334439500000017795807951862723490_);">
					<path class="st6" d="M189.3,135.8c-0.3,0-0.5-0.1-0.7-0.2c-4.1-1.7-8.3-3.1-12.5-4.1c-13.7-3.1-14.6-0.9-19.3,0
						c-1.4,0.3-4.7-0.5-5.4-1.4c-0.7-0.8-1.3-3.7-0.5-4.4c0.4-0.3,6.4-4.4,22.1-0.9c6.5,1.5,16.9,7.2,17.1,7.3c1,0.5,1.5,1.5,1,2.5
						C190.9,135.3,190.1,135.9,189.3,135.8L189.3,135.8z"/>
				</g>
			</g>
		</g>
	</g>
</g>
<g>
	<g>
		<g>
			<g>
				<defs>
					<polygon id="SVGID_00000078723358369801792970000006208530420969503422_" points="110.8,123.4 110.8,123.4 70,123.4 70,135.8 
						110.8,135.8 					"/>
				</defs>
				<clipPath id="SVGID_00000008828666535945202700000011113493343429566392_">
					<use xlink:href="#SVGID_00000078723358369801792970000006208530420969503422_"  style="overflow:visible;"/>
				</clipPath>
				<g style="clip-path:url(#SVGID_00000008828666535945202700000011113493343429566392_);">
					<path class="st6" d="M71.9,135.8c0.3,0,0.5-0.1,0.7-0.2c4.1-1.7,8.3-3.1,12.5-4.1c13.7-3.1,14.6-0.9,19.3,0
						c1.4,0.3,4.7-0.5,5.4-1.4c0.7-0.8,1.3-3.7,0.5-4.4c-0.4-0.3-6.4-4.4-22.1-0.9c-6.5,1.5-16.9,7.2-17.1,7.3c-1,0.5-1.5,1.5-1,2.5
						C70.4,135.3,71.1,135.9,71.9,135.8L71.9,135.8z"/>
				</g>
			</g>
		</g>
	</g>
</g>
<g>
	<g>
		<g>
			<g>
				<defs>
					<polygon id="SVGID_00000019653172115374088610000006479144975199127682_" points="159.2,147.9 159.2,147.9 185.5,147.9 
						185.5,173.3 159.2,173.3 					"/>
				</defs>
				<clipPath id="SVGID_00000145016182833074389270000002972733799869471907_">
					<use xlink:href="#SVGID_00000019653172115374088610000006479144975199127682_"  style="overflow:visible;"/>
				</clipPath>
				<g style="clip-path:url(#SVGID_00000145016182833074389270000002972733799869471907_);">
					<ellipse class="st9" cx="172.4" cy="160.6" rx="13.2" ry="12.6"/>
				</g>
			</g>
		</g>
	</g>
</g>
<g>
	<g>
		<g>
			<g>
				<defs>
					<polygon id="SVGID_00000127746317096784306380000000174807832587122102_" points="102.1,147.9 102.1,147.9 75.8,147.9 
						75.8,173.3 102.1,173.3 					"/>
				</defs>
				<clipPath id="SVGID_00000050644499384152832380000012984111041773101212_">
					<use xlink:href="#SVGID_00000127746317096784306380000000174807832587122102_"  style="overflow:visible;"/>
				</clipPath>
				<g style="clip-path:url(#SVGID_00000050644499384152832380000012984111041773101212_);">
					<ellipse class="st9" cx="88.9" cy="160.6" rx="13.2" ry="12.6"/>
				</g>
			</g>
		</g>
	</g>
</g>
<g>
	<g>
		<g>
			<g>
				<defs>
					<polygon id="SVGID_00000008117274579897526670000006123292444998741161_" points="163.5,153.7 163.5,153.7 181.1,153.7 
						181.1,171.3 163.5,171.3 					"/>
				</defs>
				<clipPath id="SVGID_00000142861643165400192100000007082476064256131242_">
					<use xlink:href="#SVGID_00000008117274579897526670000006123292444998741161_"  style="overflow:visible;"/>
				</clipPath>
				<g style="clip-path:url(#SVGID_00000142861643165400192100000007082476064256131242_);">
					<circle class="st12" cx="172.3" cy="162.5" r="8.8"/>
				</g>
			</g>
		</g>
	</g>
</g>
<g>
	<g>
		<g>
			<g>
				<defs>
					<polygon id="SVGID_00000152241969914429425700000003189535752980634015_" points="97.8,153.7 97.8,153.7 80.2,153.7 
						80.2,171.3 97.8,171.3 					"/>
				</defs>
				<clipPath id="SVGID_00000093176168824669254580000007047584152835326349_">
					<use xlink:href="#SVGID_00000152241969914429425700000003189535752980634015_"  style="overflow:visible;"/>
				</clipPath>
				<g style="clip-path:url(#SVGID_00000093176168824669254580000007047584152835326349_);">
					<circle class="st12" cx="89" cy="162.5" r="8.8"/>
				</g>
			</g>
		</g>
	</g>
</g>
<path class="st14" d="M199.5,170.1c2.1-14.6,2.9-49,2.9-49c0-41.3-28.6-67.9-69.4-68.8l0,0h-4.8l0,0c-40.8,0.8-69.4,27.5-69.4,68.8
	c0,0,0.8,34.5,2.9,49c1.6,11.7-11.6,31.7,2.8,51.7c8.3,11.5,48.8,18.2,63.9,22c0.6,0.2,1.3,0.3,1.9,0.3c0.1,0,0.3,0,0.4,0
	c0.1,0,0.3,0,0.4,0c0.6,0,1.3-0.1,1.9-0.3c12.6-3.2,43.1-8.4,57.5-16.8c2.3-0.7,4.3-2.2,5.5-4.3c0.3-0.3,0.5-0.6,0.8-0.9
	C211.2,201.8,197.9,181.8,199.5,170.1z"/>
<path class="st3" d="M119.5,183.7c-0.9,0.1-1.3,0.6-0.5,0.9c2.7,1.1,7.9,3.1,11.3,3.1c3.3,0,8.2-1.9,10.7-3c0.7-0.3,0.4-0.9-0.5-0.9
	c-3.1-0.2-4.4,0.5-10.5,0.5C124.7,184.3,122.6,183.5,119.5,183.7z"/>
<path class="st15" d="M60.1,152.2c0,0,15.2-5.5,4.9-39.6c-3.8-12.2,12.9-23,26.4-17c13.5,6,31.7,8.8,38.7,8.8
	c6.9,0,39.4-7.2,45.6-10.5c6.3-3.4,18.9-4.6,22.3,11.8c3.4,16.3-3.9,41.5,2.7,46.5c0.3,0,4.1-3.4,6.6-4.1
	c0.1,0.2,27.9-98.2-75.5-98.2s-79.1,98.2-78.7,98C53.5,147.8,59.4,150.6,60.1,152.2z"/>
<path class="st16" d="M150.7,52c0,0-36.2,1.6-57.9,16.5S59,97.8,51.1,114.3c0.8,0.8-21.4,3.3-36.6-11.3c0,0-4.6-0.1-6.3,2.5
	c0,0.2,4.4-6.3,4.4-6.3s-10.2,3.4-10.9-3c0,0,8.3,1.1,10.6-0.2c0,0.1-5.6-7.9-5.6-7.9l4.1-2.9l4.2,7.6c0,0,19.8-15.6,20.9-31.7
	c0.3-0.1-7.7-6.8-7.7-6.8s6.5-0.9,8.3,1.7l-4.9-7.3l5.2-2.4l4.2,7.2c0,0-1.5-5.5,2.4-8.7c0.1,0.4,0,6.6,1.5,6.9
	c0,0.1,14.5-0.9,27.8-10.5S97,17.2,97,17.2l-7.1-6.7l5.6-4.7l4.8,7.9c0,0-0.1-6.7,3.4-7.9c-0.1,0-0.1,7.5,0.9,9.1
	c-0.1-0.1,10.4,4.6,23.7,3.7s25.2-8.2,25.2-8.2V3.1l3.7-0.5l-1.5,10.7l6.3-7.1l0.9,2.7l-5.8,6.5C157,15.5,160.5,42.1,150.7,52z"/>
</svg>
