<?xml version="1.0" encoding="utf-8"?>
<!-- Generator: Adobe Illustrator 26.0.3, SVG Export Plug-In . SVG Version: 6.00 Build 0)  -->
<svg version="1.1" id="Calque_1" xmlns="http://www.w3.org/2000/svg" xmlns:xlink="http://www.w3.org/1999/xlink" x="0px" y="0px"
	 viewBox="0 0 214.7 254.2" style="enable-background:new 0 0 214.7 254.2;" xml:space="preserve">
<style type="text/css">
	.st0{fill:#5E5E5E;}
	.st1{clip-path:url(#SVGID_00000162313731360993758820000006298712829970937774_);}
	.st2{fill:#924125;}
	.st3{clip-path:url(#SVGID_00000139277287219633433580000014981127872683936438_);}
	.st4{clip-path:url(#SVGID_00000152262843517422856800000001709023586905883528_);}
	.st5{fill:#573623;}
	.st6{clip-path:url(#SVGID_00000029033071134561767770000010371123500443685511_);}
	.st7{clip-path:url(#SVGID_00000129192066383437041630000009627461078957813428_);}
	.st8{fill:#FFFFFF;}
	.st9{clip-path:url(#SVGID_00000054958502693961693020000002047641774774989242_);}
	.st10{clip-path:url(#SVGID_00000054261476572638595980000005710046477628428713_);}
	.st11{fill:#090909;}
	.st12{clip-path:url(#SVGID_00000054227804207883312870000017304750242532853913_);}
	.st13{fill:#B85727;}
	.st14{fill:#C18544;}
	.st15{fill:#B22947;}
	.st16{fill:#87213C;}
</style>
<path class="st0" d="M92.4,191.5c0,0,0,2.7,0,1.8v-0.2C92.4,192.6,92.4,192,92.4,191.5z"/>
<path class="st0" d="M92.4,191.5c0,0,0,2.7,0,1.8v-0.2C92.4,192.6,92.4,192,92.4,191.5z"/>
<path class="st0" d="M92.4,191.5c0,0,0,2.7,0,1.8v-0.2C92.4,192.6,92.4,192,92.4,191.5z"/>
<path class="st0" d="M92.4,191.5c0,0,0,2.7,0,1.8v-0.2C92.4,192.6,92.4,192,92.4,191.5z"/>
<path class="st0" d="M92.4,191.5c0,0,0,2.7,0,1.8v-0.2C92.4,192.6,92.4,192,92.4,191.5z"/>
<g id="random">
	<g>
		<g>
			<g>
				<g>
					<defs>
						<polygon id="SVGID_1_" points="171.8,161.7 171.8,161.7 203.7,161.7 203.7,217.2 171.8,217.2 						"/>
					</defs>
					<clipPath id="SVGID_00000125582414343411265310000003729926123229417360_">
						<use xlink:href="#SVGID_1_"  style="overflow:visible;"/>
					</clipPath>
					<g style="clip-path:url(#SVGID_00000125582414343411265310000003729926123229417360_);">
						<path class="st2" d="M171.8,213.6l6.9-42c0,0,11-15.4,22-7.7c7.4,5.1-0.7,48.5-8.5,51.5C178.8,220.4,171.8,213.6,171.8,213.6z
							"/>
					</g>
				</g>
			</g>
		</g>
	</g>
</g>
<g id="random2">
	<g>
		<g>
			<g>
				<g>
					<defs>
						<polygon id="SVGID_00000052798805635863773020000018425199903938078854_" points="62.9,161.7 62.9,161.7 31,161.7 31,217.2 
							62.9,217.2 						"/>
					</defs>
					<clipPath id="SVGID_00000081634118203239207710000010262180687131498375_">
						<use xlink:href="#SVGID_00000052798805635863773020000018425199903938078854_"  style="overflow:visible;"/>
					</clipPath>
					<g style="clip-path:url(#SVGID_00000081634118203239207710000010262180687131498375_);">
						<path class="st2" d="M62.9,213.6l-6.9-42c0,0-11-15.4-22-7.7c-7.4,5.1,0.7,48.5,8.5,51.5C55.8,220.4,62.9,213.6,62.9,213.6z"
							/>
					</g>
				</g>
			</g>
		</g>
	</g>
</g>
<g>
	<g>
		<g>
			<g>
				<defs>
					<polygon id="SVGID_00000100350780436297540410000013270298113821924497_" points="136.1,139.1 136.1,139.1 174.7,139.1 
						174.7,150.8 136.1,150.8 					"/>
				</defs>
				<clipPath id="SVGID_00000155146759072141064360000000158538320276701883_">
					<use xlink:href="#SVGID_00000100350780436297540410000013270298113821924497_"  style="overflow:visible;"/>
				</clipPath>
				<g style="clip-path:url(#SVGID_00000155146759072141064360000000158538320276701883_);">
					<path class="st5" d="M172.8,150.8c-0.3,0-0.5-0.1-0.7-0.2c-3.9-1.6-7.8-2.9-11.8-3.9c-13-2.9-13.8-0.9-18.3,0
						c-1.3,0.3-4.5-0.5-5.1-1.3s-1.2-3.5-0.4-4.2c0.3-0.3,6.1-4.2,20.9-0.9c6.2,1.4,16,6.8,16.2,6.9c0.9,0.4,1.4,1.5,0.9,2.4
						C174.3,150.4,173.6,150.9,172.8,150.8L172.8,150.8z"/>
				</g>
			</g>
		</g>
	</g>
</g>
<g>
	<g>
		<g>
			<g>
				<defs>
					<polygon id="SVGID_00000022532072564062188760000017128159425291867313_" points="98.6,139.1 98.6,139.1 60,139.1 60,150.8 
						98.6,150.8 					"/>
				</defs>
				<clipPath id="SVGID_00000091733144169201268130000009087877935341285053_">
					<use xlink:href="#SVGID_00000022532072564062188760000017128159425291867313_"  style="overflow:visible;"/>
				</clipPath>
				<g style="clip-path:url(#SVGID_00000091733144169201268130000009087877935341285053_);">
					<path class="st5" d="M61.8,150.8c0.3,0,0.5-0.1,0.7-0.2c3.9-1.6,7.8-2.9,11.8-3.9c13-2.9,13.8-0.9,18.3,0
						c1.3,0.3,4.5-0.5,5.1-1.3s1.2-3.5,0.4-4.2c-0.3-0.3-6.1-4.2-20.9-0.9c-6.2,1.4-16,6.8-16.2,6.9c-0.9,0.4-1.4,1.5-0.9,2.4
						C60.4,150.4,61.1,150.9,61.8,150.8L61.8,150.8z"/>
				</g>
			</g>
		</g>
	</g>
</g>
<g>
	<g>
		<g>
			<g>
				<defs>
					<polygon id="SVGID_00000006678674285690219490000008864966945194213007_" points="144.4,162.3 144.4,162.3 169.2,162.3 
						169.2,186.3 144.4,186.3 					"/>
				</defs>
				<clipPath id="SVGID_00000094618834615079646990000012889571355368733094_">
					<use xlink:href="#SVGID_00000006678674285690219490000008864966945194213007_"  style="overflow:visible;"/>
				</clipPath>
				<g style="clip-path:url(#SVGID_00000094618834615079646990000012889571355368733094_);">
					<ellipse class="st8" cx="156.8" cy="174.3" rx="12.4" ry="11.9"/>
				</g>
			</g>
		</g>
	</g>
</g>
<g>
	<g>
		<g>
			<g>
				<defs>
					<polygon id="SVGID_00000024710777426953987190000017982123025187529355_" points="90.3,162.3 90.3,162.3 65.4,162.3 
						65.4,186.3 90.3,186.3 					"/>
				</defs>
				<clipPath id="SVGID_00000016791076271953102510000015038461014273018244_">
					<use xlink:href="#SVGID_00000024710777426953987190000017982123025187529355_"  style="overflow:visible;"/>
				</clipPath>
				<g style="clip-path:url(#SVGID_00000016791076271953102510000015038461014273018244_);">
					<ellipse class="st8" cx="77.9" cy="174.3" rx="12.4" ry="11.9"/>
				</g>
			</g>
		</g>
	</g>
</g>
<g>
	<g>
		<g>
			<g>
				<defs>
					<polygon id="SVGID_00000160150672785075562580000017245793723681184657_" points="148.4,167.7 148.4,167.7 165,167.7 
						165,184.4 148.4,184.4 					"/>
				</defs>
				<clipPath id="SVGID_00000143592016116607087480000002456813922616922527_">
					<use xlink:href="#SVGID_00000160150672785075562580000017245793723681184657_"  style="overflow:visible;"/>
				</clipPath>
				<g style="clip-path:url(#SVGID_00000143592016116607087480000002456813922616922527_);">
					<circle class="st11" cx="156.7" cy="176" r="8.3"/>
				</g>
			</g>
		</g>
	</g>
</g>
<g>
	<g>
		<g>
			<g>
				<defs>
					<polygon id="SVGID_00000001650106206117470760000010583860848203332003_" points="86.3,167.7 86.3,167.7 69.7,167.7 
						69.7,184.4 86.3,184.4 					"/>
				</defs>
				<clipPath id="SVGID_00000108991088720456138910000010706824886689771411_">
					<use xlink:href="#SVGID_00000001650106206117470760000010583860848203332003_"  style="overflow:visible;"/>
				</clipPath>
				<g style="clip-path:url(#SVGID_00000108991088720456138910000010706824886689771411_);">
					<circle class="st11" cx="78" cy="176" r="8.3"/>
				</g>
			</g>
		</g>
	</g>
</g>
<path class="st13" d="M182.4,183.3c2-13.8,2.7-46.3,2.7-46.3c0-39-27-64.2-65.6-65l0,0H115l0,0c-38.6,0.8-65.6,26-65.6,65
	c0,0,0.8,32.6,2.7,46.3c1.5,11.1-11,30,2.7,48.9c7.9,10.9,46.1,17.2,60.4,20.8c0.6,0.2,1.2,0.3,1.8,0.3c0.1,0,0.3,0,0.3,0
	s0.3,0,0.3,0c0.6,0,1.2-0.1,1.8-0.3c11.9-3,40.7-8,54.4-15.9c2.1-0.7,4-2.1,5.2-4c0.3-0.3,0.5-0.6,0.8-0.9
	C193.5,213.3,180.9,194.3,182.4,183.3z"/>
<path class="st2" d="M106.8,196.1c-0.9,0.1-1.2,0.6-0.5,0.9c2.6,1,7.5,2.9,10.7,2.9c3.1,0,7.7-1.8,10.1-2.8c0.7-0.3,0.3-0.9-0.5-0.9
	c-2.9-0.2-4.1,0.5-9.9,0.5C111.7,196.7,109.7,195.9,106.8,196.1z"/>
<path class="st14" d="M51.5,167.7c0,0,14.7-5.3,4.7-38c-3.7-11.8,12.4-22,25.4-16.3c13,5.7,30.5,8.5,37.2,8.5
	c6.6,0,37.8-6.9,43.8-10.1c6-3.3,17.8-4.4,21.1,11.4c3.3,15.7-3.5,38,0.3,43c0.3,0,7.2-3.6,9.7-4.3c0.1,0.2,26.3-92.4-73.1-92.4
	S44.5,163.3,44.9,163C45.2,162.8,50.9,166.2,51.5,167.7z"/>
<g>
	<path class="st15" d="M0.6,109.7c2.6-7.8,8.5-13.1,14.2-18.4c20-19,42.5-34.7,66-49c3.3-2.2,5.5-4.5,4.1-8.1
		c-1.9-4.5,0.5-7.8,4.1-9.9c4.2-2.4,8.7-2.4,11.8,1.5c2.6,3.3,4.5,2.4,7.3,0.9c17.8-9.4,36.1-17.8,55.8-23.1
		c10.3-2.7,20.8-3.6,31.4-2.2c5.9,0.6,10.9,3.3,12.3,10.3c1.5,12.2-7.3,17.8-14.8,24.2c-21.4,18.6-46.4,30.4-71.8,42.3
		c-17.4,8.1-34.7,15.6-53.1,22c-17.4,6.3-35,12.3-53.2,15.6C8.8,116.6,3.3,116.5,0.6,109.7z"/>
	<path class="st16" d="M0.6,109.7c2.7,6.7,8.3,6.9,14.2,5.8c18.1-3.3,35.6-9.4,53.2-15.6c18.1-6.3,35.6-13.8,53.1-22
		c25-11.8,50.3-23.7,71.8-42.2c7.3-6.3,16.2-12.3,14.8-24.2c4.2,9.5,2.2,19.1-0.9,28.1c-5,14.8-13.3,28.5-22.9,40.7
		c-2.8,1.2-5.1-0.9-7.8-1.3c-21.9-1.4-42.5,4-62.6,11c-16.9,5.8-32.9,13.2-50,18.2c-7.8,2.2-16.5,3-23.8,7.3
		c-10,1.9-19.7,3.8-30.2,3.1C1.8,118.4,0.4,116.6,0.6,109.7z"/>
	<path class="st15" d="M39.6,115.3c7.3-4.2,15.6-5,23.6-7.2c17-5,33-12,49.7-18c20.1-6.9,40.9-12.6,62.6-11.2
		c2.8,0.2,5.5,2.3,8.3,1.2c0.9,4.7,1.5,9.2,2.7,14.2c0.6,2.8-0.5,3.6-3.1,3.3c-29.4-2.6-57.6,3.1-85.6,10
		c-18.1,4.5-36.5,9.2-52.5,19.1c-2.7,1.5-3.6,0.5-4.1-2C40.8,121.2,40.1,118.4,39.6,115.3z"/>
</g>
</svg>
