<svg xmlns="http://www.w3.org/2000/svg" viewBox="0 0 788 702.75"><defs><style>.cls-1{fill:none;}.cls-2{fill:#d18d7e;}.cls-3{fill:#b26959;}.cls-4{fill:#f1a93d;}.cls-5{fill:#213f52;}</style></defs><g id="Calque_3" data-name="Calque 3"><path class="cls-1" d="M434.32,104.25c16.16,5.22,23.2,9.62,27,16.56,3.11,5.61,6,18.48,6.27,24.9.55,15.06-7.77,52.94-21.92,65.58-14.41,12.85-84.8,12.85-99.2,0-14.16-12.64-22.47-50.52-21.93-65.58.23-6.42,3.16-19.29,6.27-24.9,3.84-6.94,10.89-11.34,27-16.56,18.49-6,37.3-5,37.3-5S415.83,98.27,434.32,104.25Z"/><path class="cls-2" d="M386,199V155.14s-39-50.8-40-50.8c-.49,0-6.71,5.77-12.65,11.39A44.31,44.31,0,0,0,320,141.09l-.65,4.13-6.5,74.07S324.71,377.45,324.69,379c0,.56.37,4.78.84,10a24.13,24.13,0,0,0,24,21.95h0a20.2,20.2,0,0,0,19.92-16.84L372,379.23s9.91-86.71,8.6-88.83c-.88-1.4,7.46-51.64,5.37-53.74S386,199,386,199Z"/><path class="cls-3" d="M368.63,408.5c-.23-.94-7.53-41.17-19.22-41.17h0a22.06,22.06,0,0,0-21.88,19.23l-1,7.51s-5.12,69.15-4.09,70.72S342.94,585.61,343,588.5A12.77,12.77,0,0,0,355,601.18h0c7.88.43,9-4.32,8.14-12.16L376.4,457.36Z"/><path class="cls-3" d="M354.3,575.61c-5-.11-12.4,1.3-11.74,16.12.23,5.21-1.85,28.11-6.16,33.77-1.19,1.56-2,6-5.6,8.67a3.71,3.71,0,0,0-1.48,3.48l-1,5.59,35.21,1,10.37-7-7.28-28.36-2.49-18.47-.81-4.38C362,575.75,361.68,575.78,354.3,575.61Z"/><path class="cls-3" d="M394.83,49.75l-36.93,0-36.82,81.56s-19.79,51-21.38,64.2c-6.18,51.44,23.42,192.34,23.42,192.34s-4.48,58-3.15,77.26c1.68,24.37,26.54,144.85,26.54,144.85l11.8,5.6s19.13-130.29,19.6-155.86c.31-16.93-5.2-50.6-5.15-67.53.1-38,13.11-113.18,17.11-150.95,1.11-10.46,4.29-45.2,4.29-45.2Z"/><path class="cls-3" d="M438.56,440.17c-5.27-23.18-12.1-67.17-2.62-70.5h0c10.46-3.67,24.3,9.35,29.29,19.26l3.41,6.76s27.71,63.55,27.26,65.38,20.67,120.79,21.6,123.52a12.75,12.75,0,0,1-7.17,15.95h0c-7.3,3-9.94-1.08-11.71-8.77L453.37,478Z"/><path class="cls-3" d="M376.4,50.47h42.24c9.86-.76,21.32,21.94,24.86,31.18l20.28,53s12,47.61,14.7,60.61c8.42,53.21,12.74,185.22,12.74,185.22s6.84,8.26,2.12,61.39c-2.16,24.34,17.89,154.69,17.89,154.69l-14,3.37S459,518.92,443,450.58c-2.42-10.32-11.89-37-13.22-53.91-3-37.86-19.39-109.86-26.25-147.21-1.89-10.35-7.71-44.74-7.71-44.74Z"/><path class="cls-4" d="M326.73,540.35s-30.92-319.47-27.88-340.28C303.92,165.49,336,97.85,336,97.85L450.2,99.16s37.39,84.33,37.39,121.77c0,15.92,5.62,104.21,9.66,174.24,4.7,81.65,12.09,145.18,12.09,145.18H368.05L346.51,211.29l8.29,329.06Z"/><path class="cls-3" d="M521.21,599.29l-3.71-14.7-21.26,13.09,4.43,9.28-2.27,12.38,43.4,11.3L581.23,622l-.92-4.22s-25-1-25.89-1.61S521.21,599.29,521.21,599.29Z"/><path class="cls-5" d="M503.54,642.89c-.57-.91-5.14-23.55-5.14-23.55l.71-3.88L542,626.27,581.23,622l.82,3.72-39.34,8.59-23.3-4.78,4.2,9Z"/><polygon class="cls-5" points="541.97 626.27 566.36 616.94 580.31 617.81 581.67 624.01 541.97 626.27"/><polygon class="cls-5" points="326.73 643.11 332.21 628.8 372.19 629.27 375.46 644.85 326.73 643.11"/></g></svg>