<svg xmlns="http://www.w3.org/2000/svg" viewBox="0 0 138.15 166.1"><defs><style>.cls-1{fill:#614652;}.cls-2{fill:#d79072;}.cls-3{fill:#3a4649;}.cls-4{fill:#172f35;}.cls-5{fill:#472e1d;}.cls-6{fill:#473415;}.cls-7{fill:none;stroke:#2e1000;stroke-miterlimit:10;}</style></defs><g id="Calque_5" data-name="Calque 5"><polygon points="37 48.93 37.02 48.92 37 48.91 37 48.93"/><polygon points="37.02 48.92 37.04 48.93 37.04 48.91 37.02 48.92"/><polygon points="37 48.93 37.02 48.92 37 48.91 37 48.93"/><polygon points="37.02 48.92 37.04 48.93 37.04 48.91 37.02 48.92"/><path class="cls-1" d="M54,79.8a4.55,4.55,0,0,0,4,4.46h0a4.33,4.33,0,0,0,4.28-3.71s3-16.21,3.28-22.06c.07-1.38-.13-5.54-.13-5.54l-.52-9.69s-.46-4.57-4.58-5.29c-4.74-.83-5,2.14-5,2.14S53,54.52,52.8,59.37C52.64,63.85,54,79.8,54,79.8Z"/><path class="cls-2" d="M56.45,76.64c-2.54,0-4.08,1.23-4.54,3.32,0,0-1.3,10.11-1.52,14.06a170.41,170.41,0,0,0,1.31,24.83c.19,1.37.55,5.53.55,5.53a2.39,2.39,0,0,0,2.41,2.15h0A2.38,2.38,0,0,0,57,124.38s.41-4.77.64-6.35c.84-5.72,3.29-17.07,3.66-22.85.22-3.47-.08-14.15-.08-14.15-.15-3.51-2.61-4.28-4.78-4.39Z"/><path class="cls-3" d="M54.53,122.91h0A2.91,2.91,0,0,0,52,124.58h0c-1.07,2.25-5.58,5.27-5.58,5.27a2.74,2.74,0,0,0-1,2.67h0l11-.06.62-.19a1.56,1.56,0,0,0,1.09-1.64l-.63-5.46A2.91,2.91,0,0,0,54.53,122.91Z"/><path class="cls-4" d="M45.68,132.47h0a1.65,1.65,0,0,1,1.37-1.9l6.55-1a1.64,1.64,0,0,1,1.84,1.23l.37,1.55Z"/><path class="cls-2" d="M77.59,76.64a3.77,3.77,0,0,1,4,3.32s1.66,9.29,2,13.23c.82,8.4-1,19.55-1.86,25.66-.2,1.37-.49,5.53-.49,5.53a2.23,2.23,0,0,1-2.15,2.15h0a2.25,2.25,0,0,1-2.11-2.15s-.36-4.77-.56-6.35c-.75-5.72-2.94-17.07-3.27-22.85-.2-3.47.07-14.15.07-14.15.13-3.51,2.33-4.28,4.27-4.39Z"/><path class="cls-2" d="M81.79,122.21c-.22,6.2,7.31,7,7.31,7,.81.63-12.23,4-12.16,3.25,0,0,.27-9.5-.19-11.9C76.43,118.86,81.92,118.56,81.79,122.21Z"/><path class="cls-3" d="M79.72,125.65c1.16-.4,1.08-1.25,1.54-1.71.28-.28,1.44-.58,1.61-.22,1.95,4.13,11.16,6.45,11.16,6.45a2.5,2.5,0,0,1,1,2.67h0s-4.85,2.47-12,.7c-.93-.23-2-.38-2-.38s-4.63.6-4.4-.64l.08-7.72C77,123.45,77.72,126.33,79.72,125.65Z"/><path class="cls-4" d="M94.86,132.92c.16-1.64-.77-2.67-1.09-2.63s-1.19.43-1.64.51c-.72.13-2.44.5-2.44.5-.56-.05-1,.51-1.07,1.3l0,1.58a35,35,0,0,0,3.74-.46C92.84,133.64,94.86,132.92,94.86,132.92Z"/><path class="cls-5" d="M52.92,40.15l-.4,3.77-4,84.34,2.66-2.36A3.32,3.32,0,0,1,55,126l3.07,3.62S62,99.63,62.5,93.46c.29-3.58.71-10.61,1.23-14.17.74-5.19,3.56-20.39,3.56-20.39L67.61,40Z"/><path class="cls-5" d="M66.77,41.94l.3,17.45,5,30.26,3.75,31.62.8,7.59L80,126.25c4.51-1.62,4.8,0,6.61,1.12l-.2-4.46-1.5-36L81.23,37.82,67.91,42Z"/><polygon class="cls-6" points="52.79 43.77 53.06 39.66 81.36 39.66 81.72 43.22 52.79 43.77"/><polygon class="cls-7" points="67 50.81 66.09 43.51 68.83 43.51 68.65 49.4 67 50.81"/><path class="cls-5" d="M75,32.85c3.27.95,4.69,1.76,5.47,3a12.59,12.59,0,0,1,1.27,4.55c.11,2.75-1.57,9.66-4.44,12s-17.14,2.35-20.05,0-4.55-9.22-4.44-12a12.59,12.59,0,0,1,1.27-4.55c.78-1.26,2.2-2.07,5.47-3a26.33,26.33,0,0,1,7.54-.92A28.4,28.4,0,0,1,75,32.85Z"/></g></svg>