<svg xmlns="http://www.w3.org/2000/svg" viewBox="0 0 788 702.75"><defs><style>.cls-1{fill:#3c3d4e;}.cls-2{fill:#d18d7e;}.cls-3{fill:#b7267d;}.cls-4{fill:#3d3d3d;}</style></defs><g id="Calque_3" data-name="Calque 3"><path class="cls-1" d="M423.41,98.25c16.16,5.22,23.2,9.62,27,16.56,3.11,5.61,6,18.48,6.28,24.9.54,15.06-7.77,52.94-21.93,65.58-14.4,12.85-84.8,12.85-99.2,0-14.16-12.64-22.47-50.52-21.93-65.58.23-6.42,3.16-19.29,6.27-24.9,3.84-6.94,10.89-11.34,27.05-16.56,18.49-6,37.29-5,37.29-5S404.92,92.27,423.41,98.25Z"/><path class="cls-1" d="M375.05,193V149.14s-39-50.8-40-50.8-23.68,21.91-23.68,21.91l-3,19-6.5,74.07S313.8,371.45,313.79,373c0,.56.36,4.78.83,10a24.13,24.13,0,0,0,24,21.95h0c11.78,0,17.84-4.5,19.8-16.12l2.63-15.6s9.92-86.71,8.6-88.83c-.88-1.4,7.46-51.64,5.37-53.74S375.05,193,375.05,193Z"/><path class="cls-2" d="M357.72,402.5c-.23-.94-7.53-41.17-19.22-41.17h0a22.06,22.06,0,0,0-21.88,19.23l-1,7.51s-5.12,69.15-4.09,70.72S332,579.61,332.05,582.5a12.78,12.78,0,0,0,12.05,12.68h0c7.89.43,9-4.32,8.15-12.16L365.5,451.36Z"/><path class="cls-2" d="M343.4,569.61c-5-.11-12.41,1.3-11.75,16.12.23,5.21-1.85,28.11-6.16,33.77-1.19,1.56-2,6-5.6,8.67a3.71,3.71,0,0,0-1.47,3.48l-1,5.59,35.2,1,10.38-7-7.29-28.36-2.49-18.47-.81-4.38C351.1,569.75,350.77,569.78,343.4,569.61Z"/><path class="cls-3" d="M381.67,55l-33.86,0a22.33,22.33,0,0,0-21.43,16L310.17,125.3s-19.79,51-21.37,64.2c-6.19,51.44,18.93,250.29,20.26,269.58,1.68,24.37,17.35,96.17,17.35,96.17l29.08,0S366.54,479.23,367,453.67c.31-16.93,8-180.7,12-218.47,1.11-10.46,4.29-45.2,4.29-45.2Z"/><polygon class="cls-4" points="330.88 596.06 354.47 594.87 363.79 635.06 357.31 639.76 313.37 639.71 315.63 627.15 322.74 612.1 330.88 596.06"/><path class="cls-2" d="M408.11,402.5c.23-.94,7.53-41.17,19.21-41.17h0a22.08,22.08,0,0,1,21.89,19.23l1,7.51s5.12,69.15,4.08,70.72S433.79,579.61,433.78,582.5a12.78,12.78,0,0,1-12.06,12.68h0c-7.88.43-9-4.32-8.14-12.16L400.33,451.36Z"/><path class="cls-2" d="M422.43,569.61c5-.11,12.41,1.3,11.75,16.12-.23,5.21,1.84,28.11,6.16,33.77,1.19,1.56,2,6,5.6,8.67a3.71,3.71,0,0,1,1.47,3.48l1,5.59-35.2,1-10.38-7,7.29-28.36,2.49-18.47.81-4.38C414.73,569.75,415.06,569.78,422.43,569.61Z"/><path class="cls-3" d="M365.49,55H418a22.33,22.33,0,0,1,21.43,16l16.2,54.38s19.8,51,21.38,64.2c6.19,51.44-18.94,250.29-20.26,269.58-1.68,24.37-17.35,96.17-17.35,96.17l-29.08,0s-11-76.07-11.52-101.63c-.31-16.93-8-180.7-12-218.47-1.1-10.46-4.29-45.2-4.29-45.2Z"/><polygon class="cls-4" points="434.94 596.06 411.36 594.87 402.04 635.06 408.52 639.76 452.46 639.71 450.2 627.15 443.09 612.1 434.94 596.06"/><path class="cls-3" d="M324.09,68.72H444.48l27.34,79.6a189.48,189.48,0,0,1,10.11,53.81L498.8,616.61H401.7L384.62,200.48l-2.31,0-2.75,415.82L281.12,620l6.49-416.9a184,184,0,0,1,9.9-56.76Z"/></g></svg>