<svg xmlns="http://www.w3.org/2000/svg" viewBox="0 0 788 702.75"><defs><style>.cls-1{fill:#b26959;}.cls-2{fill:none;}.cls-3{fill:#baa535;}.cls-4{fill:#6b91b1;}.cls-5{fill:#7fadd5;}.cls-6{fill:#213f52;}</style></defs><g id="Calque_3" data-name="Calque 3"><path class="cls-1" d="M360,575.24c-3.19-22.94-12.41,1.3-11.75,16.11.23,5.22-1.84,28.11-6.16,33.78-1.19,1.56-2,6-5.6,8.67a3.68,3.68,0,0,0-1.47,3.47l-1,5.6,35.2,1,10.38-7-7.28-28.36-1.15-29.09L369,585.67C367.73,575.37,361.05,582.54,360,575.24Z"/><path class="cls-2" d="M440,96.68c16.27,4.84,23.42,9.08,27.42,15.92,3.24,5.55,6.47,18.34,6.85,24.75.9,15.05-6.53,53.11-20.38,66.08-14.1,13.18-84.48,14.83-99.17,2.32-14.45-12.31-23.65-50-23.46-65.05.08-6.42,2.71-19.36,5.69-25,3.67-7,10.61-11.59,26.64-17.19,18.35-6.41,37.17-5.91,37.17-5.91S421.35,91.14,440,96.68Z"/><path class="cls-3" d="M393.85,192.53l-1-43.84s-40.2-49.88-41.15-49.85c-.72,0-13.48,12.73-19.75,19a14.26,14.26,0,0,0-4.05,8.22L326,140.33l-4.77,74.2s15.59,157.84,15.61,159.41c0,.56.47,4.77,1.07,10a24.13,24.13,0,0,0,24.54,21.38h0A20.21,20.21,0,0,0,381.94,388L384.1,373s7.88-86.91,6.51-89c-.9-1.38,6.26-51.81,4.12-53.85S393.85,192.53,393.85,192.53Z"/><path class="cls-4" d="M397.23,54.38l-49.05,1.1L327.4,126.34S308.81,177.81,307.53,191c-5,51.57,16.66,253.43,18.44,272.67C328.22,488,331.23,563,331.23,563l51.54-7.78s9.26-76.31,9.13-101.89c-.09-16.93,3.73-180.85,6.85-218.7.86-10.48,3.23-45.28,3.23-45.28Z"/><path class="cls-1" d="M376.35,410.16c.38-.88,14.71-39.17,26.21-37.1h0a22.07,22.07,0,0,1,18.13,22.81l-.38,7.57s-7.23,68.95-8.53,70.32S370.17,589,369.64,591.86a12.76,12.76,0,0,1-14.11,10.34h0c-7.83-1-8.11-5.85-5.85-13.41L360,456.87Z"/><path class="cls-5" d="M397.49,51.4l54.88,1c9.73,1.75,7.56.89,9.44,11.2l10.77,51.06s11.56,75.68,10.78,88.94c-3,51.72-6.75,246-9,265.15-2.25,18.87-11.58,124.94-11.58,124.94l-110-41.92s2.64-76.83,6.72-102.07c2.7-16.72,24.25-179.26,27-217.14.77-10.49,14.92-69.16,14.92-69.16L368.06,146.9a51.51,51.51,0,0,1-27.6-56.46l7.72-37.83Z"/><polygon class="cls-6" points="332.45 642.74 337.94 628.42 377.91 628.89 381.19 644.48 332.45 642.74"/></g></svg>