<svg xmlns="http://www.w3.org/2000/svg" viewBox="0 0 788 702.8"><defs><style>.cls-1{fill:#f7a386;}.cls-2{fill:#592e57;}.cls-3{fill:#55525c;}.cls-4{fill:#7f3366;}</style></defs><g id="Calque_3" data-name="Calque 3"><polygon class="cls-1" points="407.65 593.53 411.59 608.75 423.65 545.09 399.23 534.72 407.65 593.53"/><path class="cls-2" d="M482.16,161.75c-.4,2.81-26.27,180.1-25.94,183s-1.05,70.36-1.45,73.18S420.82,563,420.82,563l-23.61-6.58s3-131.23,3.29-133.34S406.86,373,407.88,371s.12-205.39.12-205.39L413.61,47l41.82,6.25c13.88,2.07,29.09,58.23,28.33,74.5Z"/><polygon class="cls-1" points="429.32 608.52 408.65 608.52 394.97 545.1 420.08 534.25 429.32 608.52"/><path class="cls-3" d="M413.31,591l-6.87-1.31c-1.07.5-2.16,6.23-2.33,7.53l-8.86,35.85s16.24,18,26.15,16.07c1.83-.36,23.1-16.93,22.76-19h0C444,629.41,438,615,438,615c-.19-.24-4.67-15.84-11.42-29.1l-4.09-2.62c-.69-.46-1.51,6.27-2.29,6.4l-6.08,1A3.61,3.61,0,0,0,413.31,591Z"/><path class="cls-4" d="M327.21,163c.46,2.81,30.57,179.55,30.29,182.49s2.39,70.33,2.86,73.13S398.24,563,398.24,563l24.34-7S417,424.81,416.7,422.7s-7.52-50-8.63-51.94,3-205,3-205,13.18-43.75,12.08-47.53C419.71,106.59,417,47,417,47L386.26,47,343,54c-14.35,2.35-19.2,58.71-18.11,75Z"/><path class="cls-1" d="M425.48,577.66c1.26,7.58,13.19,35.77-4.28,41.71-7.18,2.44-16-1-17.87-8.47-2-7.68,1.51-18.72,2.76-28.51C407.06,574.77,424.22,570.08,425.48,577.66Z"/></g></svg>