<svg xmlns="http://www.w3.org/2000/svg" viewBox="0 0 788 702.8"><defs><style>.cls-1{fill:none;}.cls-2{fill:#d18d7e;}.cls-3{fill:#b26959;}.cls-4{fill:#364948;}.cls-5{fill:#213f52;}</style></defs><g id="Calque_3" data-name="Calque 3"><path class="cls-1" d="M444.81,97.36c16.16,5.22,23.2,9.63,27,16.56,3.11,5.62,6,18.49,6.27,24.9.55,15.07-7.77,52.94-21.92,65.58-14.41,12.86-84.8,12.86-99.2,0-14.16-12.64-22.47-50.51-21.93-65.58.23-6.41,3.16-19.28,6.27-24.9,3.84-6.93,10.89-11.34,27-16.56,18.49-6,37.3-5,37.3-5S426.32,91.38,444.81,97.36Z"/><path class="cls-2" d="M396.45,192.11V148.25s-39-50.8-40-50.8c-.49,0-6.71,5.77-12.65,11.39a44.33,44.33,0,0,0-13.36,25.37l-.65,4.12-6.5,74.07s11.89,158.16,11.87,159.73c0,.56.37,4.78.84,10a24.13,24.13,0,0,0,24,21.95h0A20.19,20.19,0,0,0,380,387.23l2.51-14.89s9.91-86.71,8.6-88.83c-.88-1.4,7.46-51.64,5.37-53.74S396.45,192.11,396.45,192.11Z"/><path class="cls-3" d="M379.12,401.61c-.23-.93-7.53-41.16-19.22-41.16h0A22.08,22.08,0,0,0,338,379.68l-1,7.5s-5.12,69.15-4.09,70.73,20.48,120.81,20.5,123.71a12.76,12.76,0,0,0,12.05,12.67h0c7.88.44,9-4.31,8.14-12.16l13.25-131.66Z"/><path class="cls-3" d="M364.79,568.72c-5-.11-12.4,1.31-11.75,16.12.24,5.22-1.84,28.11-6.16,33.78-1.18,1.56-2,5.94-5.59,8.67a3.69,3.69,0,0,0-1.48,3.47l-1,5.6,35.21,1,10.37-7L377.11,602l-2.49-18.47-.81-4.38C372.5,568.86,372.17,568.89,364.79,568.72Z"/><path class="cls-3" d="M410.87,50.5H362.32l-30.75,73.88s-19.79,51-21.38,64.21C304,240,333.61,380.92,333.61,380.92s-4.48,58-3.15,77.26C332.14,482.56,357,603,357,603l11.8,5.59s19.13-130.29,19.6-155.86c.31-16.92-5.2-50.59-5.15-67.53.1-38,13.11-113.18,17.11-151,1.11-10.46,4.29-45.2,4.29-45.2Z"/><path class="cls-3" d="M449.05,433.29c-5.27-23.19-12.1-67.18-2.62-70.5h0c10.46-3.68,24.3,9.35,29.29,19.25l3.41,6.76s27.71,63.56,27.26,65.39S527.06,575,528,577.71a12.76,12.76,0,0,1-7.17,15.95h0c-7.3,3-9.94-1.09-11.71-8.78L463.86,471.07Z"/><path class="cls-3" d="M378.76,52.41l52.37-4c9.86-.76,19.32,17.1,22.85,26.34l20.29,53s12,47.61,14.7,60.61c8.42,53.22,12.74,185.23,12.74,185.23s6.84,8.26,2.12,61.38c-2.16,24.34,17.89,154.69,17.89,154.69l-14,3.37s-38.25-81-54.28-149.34c-2.42-10.31-11.89-37-13.22-53.91-3-37.86-19.39-109.85-26.25-147.21-1.89-10.35-7.71-44.74-7.71-44.74Z"/><path class="cls-4" d="M337.22,533.46S306.3,214,309.34,193.18C314.41,158.61,346.45,91,346.45,91l114.24,1.31S498.08,176.6,498.08,214c0,15.93,5.62,104.21,9.66,174.25,4.7,81.64,12.09,145.17,12.09,145.17H378.54L357,204.4l8.29,329.06Z"/><path class="cls-3" d="M531.7,592.4,528,577.71l-21.26,13.08,4.43,9.29-2.27,12.38,43.4,11.29,39.43-8.61-.92-4.21s-25-1-25.89-1.62S531.7,592.4,531.7,592.4Z"/><path class="cls-5" d="M514,636c-.57-.92-5.14-23.55-5.14-23.55l.71-3.88,42.86,10.8,39.26-4.24.82,3.72-39.34,8.59-23.3-4.78,4.2,9Z"/><polygon class="cls-5" points="552.46 619.38 576.85 610.05 590.8 610.92 592.16 617.12 552.46 619.38"/><polygon class="cls-5" points="337.22 636.23 342.7 621.91 382.68 622.38 385.95 637.97 337.22 636.23"/></g></svg>