<svg xmlns="http://www.w3.org/2000/svg" viewBox="0 0 788 1005.07"><defs><style>.cls-1{fill:#f7a386;}.cls-2{fill:#592e57;}.cls-3{fill:#55525c;}.cls-4{fill:#7f3366;}</style></defs><g id="Calque_3" data-name="Calque 3"><polygon class="cls-1" points="407.65 895.77 411.59 911 423.65 847.33 399.23 836.96 407.65 895.77"/><path class="cls-2" d="M482.16,464c-.4,2.81-26.27,180.11-25.94,183s-1.05,70.36-1.45,73.17-33.95,145.08-33.95,145.08l-23.61-6.58s3-131.22,3.29-133.33,6.36-50.1,7.38-52.1.12-205.39.12-205.39l5.61-118.68,41.82,6.25c13.88,2.07,29.09,58.23,28.33,74.5Z"/><polygon class="cls-1" points="429.32 910.77 408.65 910.76 394.97 847.35 420.08 836.5 429.32 910.77"/><path class="cls-3" d="M413.31,893.23l-6.87-1.32c-1.07.5-2.16,6.23-2.33,7.54l-8.86,35.84s16.24,18,26.15,16.07c1.83-.36,23.1-16.93,22.76-19h0c-.12-.71-6.2-15.1-6.2-15.1-.19-.24-4.67-15.84-11.42-29.09l-4.09-2.62c-.69-.46-1.51,6.26-2.29,6.4l-6.08,1A2.75,2.75,0,0,0,413.31,893.23Z"/><path class="cls-4" d="M327.21,465.23c.46,2.81,30.57,179.56,30.29,182.49s2.39,70.33,2.86,73.14,37.88,144.38,37.88,144.38l24.34-7S417,727.05,416.7,724.94s-7.52-50-8.63-51.94,3-205,3-205,13.18-43.74,12.08-47.52c-3.4-11.6-6.07-71.15-6.07-71.15l-30.78-.08L343,356.28c-14.35,2.35-19.2,58.7-18.11,75Z"/><path class="cls-1" d="M425.48,879.9c1.26,7.58,13.19,35.77-4.28,41.71-7.18,2.44-16-1-17.87-8.46-2-7.68,1.51-18.73,2.76-28.51C407.06,877,424.22,872.32,425.48,879.9Z"/></g></svg>