<?xml version="1.0" encoding="utf-8"?>
<!-- Generator: Adobe Illustrator 26.0.1, SVG Export Plug-In . SVG Version: 6.00 Build 0)  -->
<svg version="1.1" id="Calque_1" xmlns="http://www.w3.org/2000/svg" xmlns:xlink="http://www.w3.org/1999/xlink" x="0px" y="0px"
	 viewBox="0 0 119.8 141.7" style="enable-background:new 0 0 119.8 141.7;" xml:space="preserve">
<style type="text/css">
	.st0{clip-path:url(#SVGID_00000099655587281665340490000012804981131585941672_);}
	.st1{fill:#573623;}
	.st2{clip-path:url(#SVGID_00000042702873311438693830000014044130796085337262_);}
	.st3{clip-path:url(#SVGID_00000029042494287281781440000001835333118812332218_);}
	.st4{fill:#FFFFFF;}
	.st5{clip-path:url(#SVGID_00000041285470980667698170000007536751921715537854_);}
	.st6{clip-path:url(#SVGID_00000146490603669408421550000016468307171725567393_);}
	.st7{fill:#090909;}
	.st8{clip-path:url(#SVGID_00000000924572815550318450000002848523683906457224_);}
	.st9{fill:#9D5E70;}
	.st10{clip-path:url(#SVGID_00000026165489062237823080000015344415786185776795_);}
	.st11{clip-path:url(#SVGID_00000038378632090224767710000005834032236056701354_);}
	.st12{clip-path:url(#SVGID_00000163760436082366211240000000270400168773606314_);}
	.st13{clip-path:url(#SVGID_00000018236391116940546430000008758372635599855793_);}
	.st14{clip-path:url(#SVGID_00000150098623853395412820000010719405824031468417_);}
	.st15{clip-path:url(#SVGID_00000071559232734309832330000007908644471941569679_);}
</style>
<g>
	<g>
		<defs>
			<rect id="SVGID_1_" x="79.6" y="21.7" width="40.1" height="9.2"/>
		</defs>
		<clipPath id="SVGID_00000052817198265667117130000006161192857738870173_">
			<use xlink:href="#SVGID_1_"  style="overflow:visible;"/>
		</clipPath>
		<g style="clip-path:url(#SVGID_00000052817198265667117130000006161192857738870173_);">
			<path class="st1" d="M85.8,30c-1.4,0.3-5.2-0.6-5.9-1.5c-0.7-0.9,0.6-3.6,1.5-4.3c0.4-0.3,6.9-4.8,23.5-1
				c8,1.8,15.6,5.7,14.8,7.6C119.4,31.6,106.2,26,85.8,30z"/>
		</g>
	</g>
</g>
<g>
	<g>
		<defs>
			<rect id="SVGID_00000097477111858424797370000005187067450111389363_" y="21.7" width="40.1" height="9.2"/>
		</defs>
		<clipPath id="SVGID_00000148643216980042025270000015249977731822199230_">
			<use xlink:href="#SVGID_00000097477111858424797370000005187067450111389363_"  style="overflow:visible;"/>
		</clipPath>
		<g style="clip-path:url(#SVGID_00000148643216980042025270000015249977731822199230_);">
			<path class="st1" d="M34,30c1.5,0.3,5.2-0.6,5.9-1.5s-0.6-3.6-1.5-4.3c-0.4-0.3-6.9-4.8-23.5-1c-8,1.8-15.6,5.7-14.8,7.6
				C0.4,31.6,13.5,26,34,30z"/>
		</g>
	</g>
</g>
<g>
	<g>
		<defs>
			<polygon id="SVGID_00000022553573920126169210000000577253435204646532_" points="83.4,46.7 83.4,46.7 111.3,46.7 111.3,73.5 
				83.4,73.5 			"/>
		</defs>
		<clipPath id="SVGID_00000175282220963818397680000016480838221290327690_">
			<use xlink:href="#SVGID_00000022553573920126169210000000577253435204646532_"  style="overflow:visible;"/>
		</clipPath>
		<g style="clip-path:url(#SVGID_00000175282220963818397680000016480838221290327690_);">
			<ellipse class="st4" cx="97.4" cy="60.1" rx="14" ry="13.4"/>
		</g>
	</g>
</g>
<g>
	<g>
		<defs>
			<polygon id="SVGID_00000161600613059908480520000018145361359470566539_" points="36.3,46.7 36.3,46.7 8.4,46.7 8.4,73.5 
				36.3,73.5 			"/>
		</defs>
		<clipPath id="SVGID_00000161617727326534760840000012561808638671266716_">
			<use xlink:href="#SVGID_00000161600613059908480520000018145361359470566539_"  style="overflow:visible;"/>
		</clipPath>
		<g style="clip-path:url(#SVGID_00000161617727326534760840000012561808638671266716_);">
			<ellipse class="st4" cx="22.4" cy="60.1" rx="14" ry="13.4"/>
		</g>
	</g>
</g>
<g>
	<g>
		<defs>
			<polygon id="SVGID_00000156575211946326666340000011239327842402001307_" points="93.3,50.8 93.3,50.8 111.9,50.8 111.9,69.4 
				93.3,69.4 			"/>
		</defs>
		<clipPath id="SVGID_00000100372335043669101310000005513526638715803789_">
			<use xlink:href="#SVGID_00000156575211946326666340000011239327842402001307_"  style="overflow:visible;"/>
		</clipPath>
		<g style="clip-path:url(#SVGID_00000100372335043669101310000005513526638715803789_);">
			<circle class="st7" cx="102.6" cy="60.1" r="9.3"/>
		</g>
	</g>
</g>
<g>
	<g>
		<defs>
			<polygon id="SVGID_00000116914337620509797190000003968104415280076984_" points="37.5,50.8 37.5,50.8 18.9,50.8 18.9,69.4 
				37.5,69.4 			"/>
		</defs>
		<clipPath id="SVGID_00000061430759667447474870000004757570844670699671_">
			<use xlink:href="#SVGID_00000116914337620509797190000003968104415280076984_"  style="overflow:visible;"/>
		</clipPath>
		<g style="clip-path:url(#SVGID_00000061430759667447474870000004757570844670699671_);">
			<circle class="st7" cx="28.2" cy="60.1" r="9.3"/>
		</g>
	</g>
</g>
<ellipse class="st9" cx="59.9" cy="112.4" rx="5.7" ry="7.6"/>
<g>
	<g>
		<defs>
			<rect id="SVGID_00000051357425780393630790000009109881098812185765_" x="79.6" y="21.7" width="40.1" height="9.2"/>
		</defs>
		<clipPath id="SVGID_00000159444760455211278410000014273641154314509477_">
			<use xlink:href="#SVGID_00000051357425780393630790000009109881098812185765_"  style="overflow:visible;"/>
		</clipPath>
		<g style="clip-path:url(#SVGID_00000159444760455211278410000014273641154314509477_);">
			<path class="st1" d="M85.8,30c-1.4,0.3-5.2-0.6-5.9-1.5c-0.7-0.9,0.6-3.6,1.5-4.3c0.4-0.3,6.9-4.8,23.5-1
				c8,1.8,15.6,5.7,14.8,7.6C119.4,31.6,106.2,26,85.8,30z"/>
		</g>
	</g>
</g>
<g>
	<g>
		<defs>
			<rect id="SVGID_00000046312756351688684570000011017141842966856619_" y="21.7" width="40.1" height="9.2"/>
		</defs>
		<clipPath id="SVGID_00000178897116550553620120000000600098604147358393_">
			<use xlink:href="#SVGID_00000046312756351688684570000011017141842966856619_"  style="overflow:visible;"/>
		</clipPath>
		<g style="clip-path:url(#SVGID_00000178897116550553620120000000600098604147358393_);">
			<path class="st1" d="M34,30c1.5,0.3,5.2-0.6,5.9-1.5s-0.6-3.6-1.5-4.3c-0.4-0.3-6.9-4.8-23.5-1c-8,1.8-15.6,5.7-14.8,7.6
				C0.4,31.6,13.5,26,34,30z"/>
		</g>
	</g>
</g>
<g>
	<g>
		<defs>
			<polygon id="SVGID_00000008837456679018205200000008272983779990936458_" points="83.4,46.7 83.4,46.7 111.3,46.7 111.3,73.5 
				83.4,73.5 			"/>
		</defs>
		<clipPath id="SVGID_00000044870962781258681180000007168457987186708868_">
			<use xlink:href="#SVGID_00000008837456679018205200000008272983779990936458_"  style="overflow:visible;"/>
		</clipPath>
		<g style="clip-path:url(#SVGID_00000044870962781258681180000007168457987186708868_);">
			<ellipse class="st4" cx="97.4" cy="60.1" rx="14" ry="13.4"/>
		</g>
	</g>
</g>
<g>
	<g>
		<defs>
			<polygon id="SVGID_00000157989519462712002300000007556995002618722730_" points="36.3,46.7 36.3,46.7 8.4,46.7 8.4,73.5 
				36.3,73.5 			"/>
		</defs>
		<clipPath id="SVGID_00000041274289793962430100000013585257212069417630_">
			<use xlink:href="#SVGID_00000157989519462712002300000007556995002618722730_"  style="overflow:visible;"/>
		</clipPath>
		<g style="clip-path:url(#SVGID_00000041274289793962430100000013585257212069417630_);">
			<ellipse class="st4" cx="22.4" cy="60.1" rx="14" ry="13.4"/>
		</g>
	</g>
</g>
<g>
	<g>
		<defs>
			<polygon id="SVGID_00000024707597946729400620000002972438797706549429_" points="93.3,50.8 93.3,50.8 111.9,50.8 111.9,69.4 
				93.3,69.4 			"/>
		</defs>
		<clipPath id="SVGID_00000085228792975812713460000017736119483151158690_">
			<use xlink:href="#SVGID_00000024707597946729400620000002972438797706549429_"  style="overflow:visible;"/>
		</clipPath>
		<g style="clip-path:url(#SVGID_00000085228792975812713460000017736119483151158690_);">
			<circle class="st7" cx="102.6" cy="60.1" r="9.3"/>
		</g>
	</g>
</g>
<g>
	<g>
		<defs>
			<polygon id="SVGID_00000003083242148720142790000003654457960236537783_" points="37.5,50.8 37.5,50.8 18.9,50.8 18.9,69.4 
				37.5,69.4 			"/>
		</defs>
		<clipPath id="SVGID_00000166653634459300449460000010527861498800181389_">
			<use xlink:href="#SVGID_00000003083242148720142790000003654457960236537783_"  style="overflow:visible;"/>
		</clipPath>
		<g style="clip-path:url(#SVGID_00000166653634459300449460000010527861498800181389_);">
			<circle class="st7" cx="28.2" cy="60.1" r="9.3"/>
		</g>
	</g>
</g>
<ellipse class="st9" cx="59.9" cy="112.4" rx="5.7" ry="7.6"/>
</svg>
