<?xml version="1.0" encoding="utf-8"?>
<!-- Generator: Adobe Illustrator 26.0.3, SVG Export Plug-In . SVG Version: 6.00 Build 0)  -->
<svg version="1.1" id="Calque_1" xmlns="http://www.w3.org/2000/svg" xmlns:xlink="http://www.w3.org/1999/xlink" x="0px" y="0px"
	 viewBox="0 0 127.6 141.7" style="enable-background:new 0 0 127.6 141.7;" xml:space="preserve">
<style type="text/css">
	.st0{clip-path:url(#SVGID_00000121262284065874633870000008897666188933950368_);fill:#423522;}
	.st1{clip-path:url(#SVGID_00000064348269420957121620000014225310961466402210_);fill:#423522;}
	.st2{clip-path:url(#SVGID_00000121280072889222904880000015772613939573775777_);fill:#423522;}
	.st3{clip-path:url(#SVGID_00000026843668980654487370000016036632667287650955_);fill:#423522;}
	.st4{fill:#9D5E70;}
	.st5{fill:#FFFFFF;}
	.st6{fill:#423522;}
</style>
<g>
	<g>
		<g>
			<defs>
				<polygon id="SVGID_1_" points="85,25.1 85,25.1 128.4,25.1 128.4,38.4 85,38.4 				"/>
			</defs>
			<clipPath id="SVGID_00000029741596424652065560000007150713134444793992_">
				<use xlink:href="#SVGID_1_"  style="overflow:visible;"/>
			</clipPath>
			<path style="clip-path:url(#SVGID_00000029741596424652065560000007150713134444793992_);fill:#423522;" d="M126.4,38.4
				c-0.3,0-0.6-0.1-0.8-0.2c-4.3-1.8-8.8-3.2-13.3-4.3c-14.6-3.3-15.5-1-20.5,0c-1.5,0.3-5-0.6-5.7-1.4s-1.4-4-0.5-4.7
				c0.4-0.3,6.9-4.8,23.5-1c6.9,1.6,17.9,7.6,18.2,7.7c1.1,0.4,1.6,1.6,1.2,2.7C128,37.9,127.2,38.4,126.4,38.4L126.4,38.4z"/>
		</g>
	</g>
</g>
<g>
	<g>
		<g>
			<defs>
				<polygon id="SVGID_00000041264049934144691630000005076980100897962170_" points="42.9,25.1 42.9,25.1 -0.5,25.1 -0.5,38.4 
					42.9,38.4 				"/>
			</defs>
			<clipPath id="SVGID_00000103243573467268441950000012041319013172641982_">
				<use xlink:href="#SVGID_00000041264049934144691630000005076980100897962170_"  style="overflow:visible;"/>
			</clipPath>
			<path style="clip-path:url(#SVGID_00000103243573467268441950000012041319013172641982_);fill:#423522;" d="M1.5,38.4
				c0.3,0,0.6-0.1,0.8-0.2c4.3-1.8,8.8-3.2,13.4-4.3c14.6-3.3,15.5-1,20.5,0c1.5,0.3,5-0.6,5.7-1.4s1.4-4,0.5-4.7
				c-0.4-0.3-6.9-4.8-23.5-1C12,28.4,1,34.4,0.7,34.5c-1.1,0.4-1.6,1.6-1.2,2.7C0,37.9,0.8,38.4,1.5,38.4L1.5,38.4z"/>
		</g>
	</g>
</g>
<g>
	<g>
		<g>
			<defs>
				<rect id="SVGID_00000021804423125348904300000005524920439401197954_" x="83.8" y="25.1" width="40.1" height="9.2"/>
			</defs>
			<clipPath id="SVGID_00000075870907476969991660000001712316947095909304_">
				<use xlink:href="#SVGID_00000021804423125348904300000005524920439401197954_"  style="overflow:visible;"/>
			</clipPath>
			<path style="clip-path:url(#SVGID_00000075870907476969991660000001712316947095909304_);fill:#423522;" d="M89.9,33.4
				c-1.4,0.3-5.2-0.6-5.9-1.5s0.6-3.6,1.5-4.3c0.4-0.3,6.9-4.8,23.5-1c8,1.8,15.6,5.7,14.8,7.6C123.5,35,110.2,29.4,89.9,33.4z"/>
		</g>
	</g>
</g>
<g>
	<g>
		<g>
			<defs>
				<rect id="SVGID_00000074436452312298647530000015674989466728269225_" x="4" y="25.1" width="40.1" height="9.2"/>
			</defs>
			<clipPath id="SVGID_00000018942509803654244230000006719949181880547742_">
				<use xlink:href="#SVGID_00000074436452312298647530000015674989466728269225_"  style="overflow:visible;"/>
			</clipPath>
			<path style="clip-path:url(#SVGID_00000018942509803654244230000006719949181880547742_);fill:#423522;" d="M38,33.4
				c1.5,0.3,5.2-0.6,5.9-1.5s-0.6-3.6-1.5-4.3c-0.4-0.3-6.9-4.8-23.5-1c-8,1.8-15.6,5.7-14.8,7.6C4.5,35,17.6,29.4,38,33.4z"/>
		</g>
	</g>
</g>
<path class="st4" d="M52.1,112.9c0-1.7,1.3-3.8,11.8-3.8s13,1.8,13,3.4s-2.9,6.6-13.4,6.6S52.1,114.5,52.1,112.9z"/>
<g>
	<g>
		<path class="st5" d="M44.3,69.6c0,0-12.3,4.3-24.4,1.6C7.8,68.5,7.4,66.5,7.4,66.5l9.7-7l6.6-1.6l11.7,1l2.9,2.1l3.9,4.1
			L44.3,69.6z"/>
		<path class="st6" d="M36.5,60.1c4.1,2.3,6.2,6,8,9.7c0.2-0.2,0.4-0.2,0.4-0.4c0-0.6,0-1.2-0.2-1.6c-2.5-4.5-5.5-9-10.9-10.3
			c-7.4-1.8-14.6-1-21.1,3.7c-2.1,1.6-4.1,3.1-6.2,4.9c3.1,2.9,13.6,6.2,14.8,4.7c-0.8-0.2-1.4-0.2-1.9-0.4
			c-1.6-0.6-3.3-1.2-4.9-1.9c-0.8-0.4-0.4-1,0.4-1c0.2,0,0.4,0,1,0c-1.9-1.8-1.9-2.1,0-4.1c1.4-1.4,2.7-2.5,4.1-3.5
			c0.6-0.4,1.4-0.4,2.1-0.6c0,0.8,0.2,1.6,0.2,2.1c-0.4,3.1,0.2,6,2.3,8.4c1,1.2,3.7,1.8,5.7,1.6c1.9-0.2,3.3-0.8,4.7-2.5
			c1.4-1.9,1.9-3.9,1.8-6C36.7,62,36.5,61.3,36.5,60.1z"/>
	</g>
	<g>
		<path class="st5" d="M84.8,69.8c0,0,12.3,4.3,24.4,1.6c12.1-2.7,12.5-4.7,12.5-4.7l-9.7-7l-6.6-1.6l-11.7,1l-2.9,2.1l-3.9,4.1
			L84.8,69.8z"/>
		<path class="st6" d="M92.6,60.3c-4.1,2.3-6.2,6-8,9.7c-0.2-0.2-0.4-0.2-0.4-0.4c0-0.6,0-1.2,0.2-1.6c2.5-4.5,5.5-9,10.9-10.3
			c7.4-1.8,14.6-1,21.1,3.7c2.1,1.6,4.1,3.1,6.2,4.9c-3.1,2.9-13.6,6.2-14.8,4.7c0.8-0.2,1.4-0.2,1.9-0.4c1.6-0.6,3.3-1.2,4.9-1.9
			c0.8-0.4,0.4-1-0.4-1c-0.2,0-0.4,0-1,0c1.9-1.8,1.9-2.1,0-4.1c-1.4-1.4-2.7-2.5-4.1-3.5c-0.6-0.4-1.4-0.4-2.1-0.6
			c0,0.8-0.2,1.6-0.2,2.1c0.4,3.1-0.2,6-2.3,8.4c-1,1.2-3.7,1.8-5.7,1.6s-3.3-0.8-4.7-2.5c-1.4-1.9-1.9-3.9-1.8-6
			C92.4,62.2,92.4,61.6,92.6,60.3z"/>
	</g>
</g>
</svg>
