<?xml version="1.0" encoding="utf-8"?>
<!-- Generator: Adobe Illustrator 26.0.3, SVG Export Plug-In . SVG Version: 6.00 Build 0)  -->
<svg version="1.1" id="Calque_1" xmlns="http://www.w3.org/2000/svg" xmlns:xlink="http://www.w3.org/1999/xlink" x="0px" y="0px"
	 viewBox="0 0 788 1005" style="enable-background:new 0 0 788 1005;" xml:space="preserve">
<style type="text/css">
	.st0{clip-path:url(#SVGID_00000003077899688468228340000010592194477142752185_);fill:#423522;}
	.st1{clip-path:url(#SVGID_00000062902584889064823570000004326121509962126262_);fill:#423522;}
	.st2{clip-path:url(#SVGID_00000167371147122026862040000010684953129920798141_);fill:#423522;}
	.st3{clip-path:url(#SVGID_00000140701148559654339440000003266187577739210122_);fill:#423522;}
	.st4{fill:#9D5E70;}
	.st5{fill:#99533D;}
	.st6{fill:#F4EBE9;}
	.st7{fill:#FFFFFF;}
	.st8{fill:#423522;}
</style>
<g>
	<g>
		<g>
			<defs>
				<polygon id="SVGID_1_" points="411.9,292 411.9,292 455.3,292 455.3,305.2 411.9,305.2 				"/>
			</defs>
			<clipPath id="SVGID_00000121985446614773157190000017788881830594011571_">
				<use xlink:href="#SVGID_1_"  style="overflow:visible;"/>
			</clipPath>
			<path style="clip-path:url(#SVGID_00000121985446614773157190000017788881830594011571_);fill:#423522;" d="M453.2,305.2
				c-0.3,0-0.6-0.1-0.8-0.2c-4.3-1.8-8.8-3.2-13.3-4.3c-14.6-3.3-15.5-1-20.5,0c-1.5,0.3-5-0.6-5.7-1.4c-0.7-0.9-1.4-4-0.5-4.7
				c0.4-0.3,6.9-4.8,23.5-1c6.9,1.6,17.9,7.6,18.2,7.7c1.1,0.4,1.6,1.6,1.2,2.7C454.9,304.7,454.1,305.3,453.2,305.2L453.2,305.2z"
				/>
		</g>
	</g>
</g>
<g>
	<g>
		<g>
			<defs>
				<polygon id="SVGID_00000009579690835870974490000018243145643303921564_" points="369.8,292 369.8,292 326.4,292 326.4,305.2 
					369.8,305.2 				"/>
			</defs>
			<clipPath id="SVGID_00000139257948728909392330000001761820884949086109_">
				<use xlink:href="#SVGID_00000009579690835870974490000018243145643303921564_"  style="overflow:visible;"/>
			</clipPath>
			<path style="clip-path:url(#SVGID_00000139257948728909392330000001761820884949086109_);fill:#423522;" d="M328.5,305.2
				c0.3,0,0.6-0.1,0.8-0.2c4.3-1.8,8.8-3.2,13.4-4.3c14.6-3.3,15.5-1,20.5,0c1.5,0.3,5-0.6,5.7-1.4c0.7-0.9,1.4-4,0.5-4.7
				c-0.4-0.3-6.9-4.8-23.5-1c-6.9,1.6-17.9,7.6-18.2,7.7c-1.1,0.4-1.6,1.6-1.2,2.7C326.9,304.7,327.7,305.3,328.5,305.2L328.5,305.2
				z"/>
		</g>
	</g>
</g>
<g>
	<g>
		<g>
			<defs>
				<rect id="SVGID_00000067195562215910075830000001371653573470280106_" x="410.6" y="292" width="40.1" height="9.2"/>
			</defs>
			<clipPath id="SVGID_00000001625709949045171150000012910224105843598733_">
				<use xlink:href="#SVGID_00000067195562215910075830000001371653573470280106_"  style="overflow:visible;"/>
			</clipPath>
			<path style="clip-path:url(#SVGID_00000001625709949045171150000012910224105843598733_);fill:#423522;" d="M416.8,300.3
				c-1.4,0.3-5.2-0.6-5.9-1.5c-0.7-0.9,0.6-3.6,1.5-4.3c0.4-0.3,6.9-4.8,23.5-1c8,1.8,15.6,5.7,14.8,7.6
				C450.4,301.9,437.2,296.3,416.8,300.3z"/>
		</g>
	</g>
</g>
<g>
	<g>
		<g>
			<defs>
				<rect id="SVGID_00000148663019824897026840000009948003762441146017_" x="331" y="292" width="40.1" height="9.2"/>
			</defs>
			<clipPath id="SVGID_00000137832804336023046800000007231761421175336378_">
				<use xlink:href="#SVGID_00000148663019824897026840000009948003762441146017_"  style="overflow:visible;"/>
			</clipPath>
			<path style="clip-path:url(#SVGID_00000137832804336023046800000007231761421175336378_);fill:#423522;" d="M365,300.3
				c1.5,0.3,5.2-0.6,5.9-1.5s-0.6-3.6-1.5-4.3c-0.4-0.3-6.9-4.8-23.5-1c-8,1.8-15.6,5.7-14.8,7.6C331.4,301.9,344.5,296.3,365,300.3
				z"/>
		</g>
	</g>
</g>
<path class="st4" d="M379.1,379.8c0-1.7,1.3-3.8,11.8-3.8s13,1.8,13,3.4s-2.9,6.6-13.4,6.6C379.9,386,379.1,381.4,379.1,379.8z"/>
<path class="st5" d="M379.5,358.3c-1,0.1-1.4,0.7-0.6,1c3,1.2,8.6,3.3,12.3,3.3c3.5,0,8.9-2.1,11.7-3.3c0.8-0.3,0.4-0.9-0.6-1
	c-3.3-0.2-4.7,0.6-11.4,0.6C385.1,359,382.8,358.1,379.5,358.3z"/>
<path class="st6" d="M344.4,378.9l0.6-8.5c0.6-7.5,5.5-13.9,12.5-16.5c10.8-3.9,26.2-9,33.5-9c7.2,0.1,22.6,5.5,32.9,9.5
	c6.2,2.4,10.7,7.8,11.9,14.2c1.2,6.4,2.4,13.6,2,14c-0.1,3.5-2.6,12.7-4,13.8c-1.2,1.1-17.1,10.1-20.9,12.5
	c-0.9,0.6-1.8,1.1-2.8,1.5c-3.9,1.6-12.9,4.7-21.9,4.6c-7.8-0.1-15.7-2.8-19.9-4.5c-1.9-0.8-3.6-1.8-5.1-3.1l-11.6-9.8
	c-3.6-3-5.9-7.2-6.6-11.9l-0.4-2.6C344.3,381.7,344.3,380.3,344.4,378.9z"/>
<g>
	<g>
		<path class="st7" d="M371.2,338c0,0-12.3,4.3-24.4,1.6c-12.1-2.7-12.5-4.7-12.5-4.7l9.7-7l6.6-1.6l11.7,1l2.9,2.1l3.9,4.1
			L371.2,338z"/>
		<path class="st8" d="M363.5,328.5c4.1,2.3,6.2,6,8,9.7c0.2-0.2,0.4-0.2,0.4-0.4c0-0.6,0-1.2-0.2-1.6c-2.5-4.5-5.5-9-10.9-10.3
			c-7.4-1.8-14.6-1-21.1,3.7c-2.1,1.6-4.1,3.1-6.2,4.9c3.1,2.9,13.6,6.2,14.8,4.7c-0.8-0.2-1.4-0.2-1.9-0.4
			c-1.6-0.6-3.3-1.2-4.9-1.9c-0.8-0.4-0.4-1,0.4-1c0.2,0,0.4,0,1,0c-1.9-1.8-1.9-2.1,0-4.1c1.4-1.4,2.7-2.5,4.1-3.5
			c0.6-0.4,1.4-0.4,2.1-0.6c0,0.8,0.2,1.6,0.2,2.1c-0.4,3.1,0.2,6,2.3,8.4c1,1.2,3.7,1.8,5.7,1.6c1.9-0.2,3.3-0.8,4.7-2.5
			c1.4-1.9,1.9-3.9,1.8-6C363.6,330.4,363.5,329.7,363.5,328.5z"/>
	</g>
	<g>
		<path class="st7" d="M411.8,338.2c0,0,12.3,4.3,24.4,1.6c12.1-2.7,12.5-4.7,12.5-4.7l-9.7-7l-6.6-1.6l-11.7,1l-2.9,2.1l-3.9,4.1
			L411.8,338.2z"/>
		<path class="st8" d="M419.5,328.7c-4.1,2.3-6.2,6-8,9.7c-0.2-0.2-0.4-0.2-0.4-0.4c0-0.6,0-1.2,0.2-1.6c2.5-4.5,5.5-9,10.9-10.3
			c7.4-1.8,14.6-1,21.1,3.7c2.1,1.6,4.1,3.1,6.2,4.9c-3.1,2.9-13.6,6.2-14.8,4.7c0.8-0.2,1.4-0.2,1.9-0.4c1.6-0.6,3.3-1.2,4.9-1.9
			c0.8-0.4,0.4-1-0.4-1c-0.2,0-0.4,0-1,0c1.9-1.8,1.9-2.1,0-4.1c-1.4-1.4-2.7-2.5-4.1-3.5c-0.6-0.4-1.4-0.4-2.1-0.6
			c0,0.8-0.2,1.6-0.2,2.1c0.4,3.1-0.2,6-2.3,8.4c-1,1.2-3.7,1.8-5.7,1.6c-2-0.2-3.3-0.8-4.7-2.5c-1.4-1.9-1.9-3.9-1.8-6
			C419.4,330.6,419.4,330,419.5,328.7z"/>
	</g>
</g>
</svg>
