<?xml version="1.0" encoding="utf-8"?>
<!-- Generator: Adobe Illustrator 26.0.3, SVG Export Plug-In . SVG Version: 6.00 Build 0)  -->
<svg version="1.1" id="Calque_1" xmlns="http://www.w3.org/2000/svg" xmlns:xlink="http://www.w3.org/1999/xlink" x="0px" y="0px"
	 viewBox="0 0 788 1005" style="enable-background:new 0 0 788 1005;" xml:space="preserve">
<style type="text/css">
	.st0{clip-path:url(#SVGID_00000106106826248831852600000014142806648419444657_);fill:#423522;}
	.st1{clip-path:url(#SVGID_00000106858133290474753410000007610345429890515354_);fill:#423522;}
	.st2{fill:#9D5E70;}
	.st3{fill:#FFFFFF;}
	.st4{fill:#423522;}
	.st5{fill:#00ABFF;}
</style>
<g>
	<g>
		<g>
			<defs>
				
					<rect id="SVGID_1_" x="428.9" y="288.7" transform="matrix(0.2712 -0.9625 0.9625 0.2712 18.7805 642.2787)" width="9.2" height="40.1"/>
			</defs>
			<clipPath id="SVGID_00000033340641399981737090000012221507763437985463_">
				<use xlink:href="#SVGID_1_"  style="overflow:visible;"/>
			</clipPath>
			<path style="clip-path:url(#SVGID_00000033340641399981737090000012221507763437985463_);fill:#423522;" d="M419.1,308.6
				c-1.5-0.1-4.8-2-5.3-3s1.6-3.3,2.6-3.7c0.5-0.2,7.9-2.7,22.9,5.4c7.2,3.9,13.5,9.7,12.2,11.3C451,319.3,439.9,310.3,419.1,308.6z
				"/>
		</g>
	</g>
</g>
<g>
	<g>
		<g>
			<defs>
				
					<rect id="SVGID_00000142895905095852181820000000467352106374400168_" x="333.4" y="304.2" transform="matrix(0.9755 -0.22 0.22 0.9755 -59.2763 85.3251)" width="40.1" height="9.2"/>
			</defs>
			<clipPath id="SVGID_00000049186832395757677950000016460064717962439309_">
				<use xlink:href="#SVGID_00000142895905095852181820000000467352106374400168_"  style="overflow:visible;"/>
			</clipPath>
			<path style="clip-path:url(#SVGID_00000049186832395757677950000016460064717962439309_);fill:#423522;" d="M367.9,309.3
				c1.5,0,4.9-1.7,5.5-2.7c0.5-1-1.4-3.3-2.4-3.9c-0.4-0.2-7.7-3.1-23.2,4.2c-7.4,3.5-14,9-12.8,10.7
				C335.5,318.3,347.1,309.9,367.9,309.3z"/>
		</g>
	</g>
</g>
<path class="st2" d="M364.3,379.1c0-3.5,23.5-6.8,27.9-6.8c4.5,0,25,3.3,25,6.8c0,0-15.1-3.8-27.8-3.2
	C374.6,376.6,364.3,379.1,364.3,379.1z"/>
<path class="st3" d="M443.9,325.4c-0.1,7.8-6.4,14.1-14.2,14.1s-14.1-6.3-14.2-14.1H443.9z"/>
<path class="st3" d="M370.7,325.4c-0.1,7.8-6.4,14.1-14.2,14.1c-7.8,0-14.1-6.3-14.2-14.1H370.7z"/>
<path class="st4" d="M365,326.6c0,4.6-3.8,8.4-8.4,8.4s-8.4-3.8-8.4-8.4c0-0.4,0-0.8,0.1-1.2h16.6C365,325.8,365,326.2,365,326.6z"
	/>
<path class="st4" d="M438.5,326.6c0,4.6-3.8,8.4-8.4,8.4s-8.4-3.8-8.4-8.4c0-0.4,0-0.8,0.1-1.2h16.6
	C438.5,325.8,438.5,326.2,438.5,326.6z"/>
<ellipse class="st5" cx="345.3" cy="347.3" rx="8.1" ry="9.2"/>
</svg>
