<?xml version="1.0" encoding="utf-8"?>
<!-- Generator: Adobe Illustrator 26.0.3, SVG Export Plug-In . SVG Version: 6.00 Build 0)  -->
<svg version="1.1" id="Calque_1" xmlns="http://www.w3.org/2000/svg" xmlns:xlink="http://www.w3.org/1999/xlink" x="0px" y="0px"
	 viewBox="0 0 788 1005.1" style="enable-background:new 0 0 788 1005.1;" xml:space="preserve">
<style type="text/css">
	.st0{fill:#FF6D45;}
	.st1{fill:#F7A386;}
	.st2{fill:#2B2B2B;}
	.st3{fill:#547A87;}
	.st4{fill:none;stroke:#666666;stroke-width:5;stroke-linecap:round;stroke-miterlimit:10;}
</style>
<path class="st0" d="M481.8,486.8c-23.3,2.5-44.5,10-69.8,18.3c0,0-11.5,0.5-10.8-0.1l-70.8-16.6l5.9-58.4
	c1.1-10.7,10.1-18.8,20.8-18.8H457c11,0,20.1,8.5,20.8,19.4L481.8,486.8z"/>
<rect x="334.2" y="851" class="st1" width="22.1" height="63.4"/>
<path class="st2" d="M344.9,897.4l-8.6,2c-1.3,0.3-2.3,1.2-2.7,2.5l-6.1,18.1c-0.1,0.4-0.2,0.8-0.2,1.2v5c0,0.7-0.2,1.3-0.5,1.9
	l-6.1,10.5c-0.9,1.6-0.5,3.7,1,4.9c1.5,1.1,3.3,2.2,4.5,1.8c2-0.7,35.1-1.5,46.4-1.7c2.1,0,3.7-1.7,3.7-3.8l0,0c0-0.7-0.2-1.4-0.6-2
	l-7.9-12.8c-0.2-0.3-0.3-0.5-0.4-0.8l-6.5-20.5c-0.2-0.7-0.6-1.3-1.2-1.8l-4.5-3.7c-0.7-0.6-1.5-0.9-2.4-0.9h-7
	C345.4,897.3,345.2,897.3,344.9,897.4z"/>
<rect x="455.7" y="854.5" class="st1" width="22.1" height="63.4"/>
<path class="st2" d="M466.7,900.7l9,2.1c1.3,0.3,2.3,1.2,2.7,2.5l6.1,18.1c0.1,0.4,0.2,0.8,0.2,1.2v4.9c0,0.7,0.2,1.3,0.5,1.9
	l6.1,10.5c1,1.6,0.6,3.8-1,4.9c-1.5,1.1-3.3,2.2-4.5,1.8c-1.9-0.7-35.1-1.5-46.4-1.7c-2.1,0-3.7-1.7-3.7-3.8v0c0-0.7,0.2-1.4,0.6-2
	l7.9-12.9c0.2-0.3,0.3-0.5,0.4-0.8l6.5-20.5c0.2-0.7,0.6-1.3,1.2-1.8l4.5-3.7c0.7-0.6,1.5-0.9,2.4-0.9h7.3V900.7z"/>
<path class="st0" d="M330.2,490.8c0,2.6,0.7,169.1,0,171.7s-8.6,64.7-8.6,67.4s12.9,138,12.9,138l23.7-2.6
	c0,0,15.1-120.9,15.1-122.9s0.7-46.9,0-48.9s28-188.5,28-188.5v-71.7L360,433c-13.7-0.1-25.2,11.3-26.7,26.3L330.2,490.8z"/>
<path class="st0" d="M481.8,486.8c0,2.7-0.7,170.6,0,173.3s8.6,65.3,8.6,68s-12.9,139.3-12.9,139.3l-23.7-2.7c0,0-15.1-122-15.1-124
	s-0.7-47.3,0-49.3s-28-190.2-28-190.2v-68.4l41.6-0.3c13.7-0.1,25.3,11.3,26.8,26.3L481.8,486.8z"/>
<path class="st3" d="M347.8,410.6l119.9-0.5c4,0,7.4,2.8,8.2,6.7c5.3,25.8,22.7,126.1,23.4,141.2l25,367.9c0.1,0.9-0.7,1.7-1.6,1.7
	h-93.8c-0.9,0-1.6-0.7-1.6-1.6l-17-398.4H408l-2.7,398.1c0,0.9-0.7,1.6-1.6,1.6l-95.1,3.5c-0.9,0-1.7-0.7-1.7-1.7l11-373.6
	c0.2-15.3,13.5-104.1,18.1-134.6C336.8,415,341.8,410.6,347.8,410.6z"/>
<line class="st4" x1="329.5" y1="941.8" x2="368.9" y2="940.1"/>
<line class="st4" x1="484.1" y1="945.3" x2="444.7" y2="943.6"/>
<path class="st2" d="M349.6,409.8c-7,0-13.1,4.9-14.4,11.8l-27.7,149.6c-1.5,9,5.4,17.2,14.5,17.2h175.5c9.1,0,16-8.2,14.5-17.2
	l-32.8-150.3c-1.7-6.4-7.5-10.9-14.2-10.9L349.6,409.8z"/>
</svg>
