<?xml version="1.0" encoding="utf-8"?>
<!-- Generator: Adobe Illustrator 26.0.3, SVG Export Plug-In . SVG Version: 6.00 Build 0)  -->
<svg version="1.1" id="Calque_1" xmlns="http://www.w3.org/2000/svg" xmlns:xlink="http://www.w3.org/1999/xlink" x="0px" y="0px"
	 viewBox="0 0 788 1005.1" style="enable-background:new 0 0 788 1005.1;" xml:space="preserve">
<style type="text/css">
	.st0{fill:#B7837E;}
	.st1{fill:#9ED2D0;}
	.st2{fill:#C58C85;}
	.st3{fill:#D31149;}
</style>
<path class="st0" d="M454.4,666.4c0.1,1.1-0.1,12.6-0.4,25.9c-0.7,27.7-4.4,55.2-11.2,82l-23.9,94.6l-23.6-6.1
	c0,0,3-121.8,3.3-123.7s6.4-46.5,7.4-48.3s0.1-190.6,0.1-190.6l11-63.7l41.8,5.8c13.9,1.9,23.9,14.9,23.1,30
	C482.1,472.2,454.1,663.7,454.4,666.4z"/>
<path class="st1" d="M410.5,894.7l-0.9-0.2c-3.3-0.6-6.5,1.6-7.1,5c-0.1,0.3-0.1,0.6-0.1,0.9c0,0.2-0.1,0.5-0.1,0.7l-7.9,29.4
	c-0.6,2.2,0.1,4.6,1.8,6.1c5,4.6,16,13.6,23.4,12.3c1.8-0.3,22.8-9,22.8-17.6l0,0c-0.1-0.7-6.2-14-6.2-14
	c-0.2-0.2-4.3-13.5-10.6-25.5c-0.5-1-1.3-1.8-2.3-2.4l-2.6-1.5c-0.7-0.4-1.5,5.8-2.3,5.9l-6.1,1c-0.1,0-0.1,0-0.2,0
	C411.5,894.9,411,894.8,410.5,894.7z"/>
<path class="st2" d="M423.7,882.6c0-0.1,0-0.1,0-0.1l-2.8-21c-0.5-11.3-5.6-120.8-5.9-122.7c-0.3-2-7.5-46.4-8.6-48.2
	c-1.1-1.8,3-190.3,3-190.3s8.2-33.6,8.3-37.3c0.1-14.9,1.8-47,1.8-47l-63.7-4.7c-14.4,2.2-27.3,42.4-26.2,57.5l2,31.5
	c0.5,2.6,24.3,164.1,24.1,166.8c-0.1,1.6,0.9,24.6,1.8,43.4c0.7,16.2,3.4,32.3,7.8,47.9l30.4,107.5l7.1,29.2
	c-1.4,6.7-2.8,13.5-1.3,18.5c1.9,6.8,10.7,10.1,17.9,7.8C436.9,915.8,425,889.6,423.7,882.6z"/>
<g id="Calque_1_00000071519901466194454640000002149211624443550375_">
	<path class="st1" d="M481.9,466.6c-23.3,2.5-46.4,27.8-71.7,36.1c0,0-11.5,0.5-10.8-0.1c-23.6-5.5-46-36.4-69.6-41.9
		c0,0,2.5-12.7,4.3-20.7c2.4-10.5,11.3-28.8,22-28.8l99.1,4.8c11,0,20.1,8.5,20.8,19.4L481.9,466.6z"/>
</g>
<path class="st3" d="M432.4,918.1c-3.3,8-15.7,15.7-15.7,15.7s-12.2-7.8-15.7-15.7c-3.6-8.1,10.2-19.3,15.7-7.7
	C422.4,898.7,435.9,909.7,432.4,918.1z"/>
</svg>
