<?xml version="1.0" encoding="utf-8"?>
<!-- Generator: Adobe Illustrator 26.0.3, SVG Export Plug-In . SVG Version: 6.00 Build 0)  -->
<svg version="1.1" id="Layer_1" xmlns="http://www.w3.org/2000/svg" xmlns:xlink="http://www.w3.org/1999/xlink" x="0px" y="0px"
	 viewBox="0 0 788 1005.1" style="enable-background:new 0 0 788 1005.1;" xml:space="preserve">
<style type="text/css">
	.st0{fill:#293C51;}
	.st1{fill:#22677C;}
	.st2{fill:#334C5E;}
</style>
<rect x="334.2" y="851" class="st0" width="22.1" height="63.4"/>
<path class="st1" d="M344.9,897.4l-8.6,2c-1.3,0.3-2.3,1.2-2.7,2.5l-6.1,18.1c-0.1,0.4-0.2,0.8-0.2,1.2v5c0,0.7-0.2,1.3-0.5,1.9
	l-6.1,10.5c-1,1.7-0.6,3.8,1,4.9c1.5,1.1,3.3,2.2,4.5,1.8c1.9-0.7,35-1.4,46.3-1.7c2.1,0,3.7-1.7,3.7-3.8l0,0c0-0.7-0.2-1.4-0.6-2
	l-7.9-12.8c-0.2-0.3-0.3-0.6-0.4-0.9l-6.5-20.5c-0.2-0.7-0.6-1.3-1.2-1.8l-4.5-3.7c-0.7-0.6-1.6-0.9-2.4-0.9h-6.9
	C345.4,897.3,345.1,897.3,344.9,897.4z"/>
<rect x="455.7" y="854.5" class="st1" width="22.1" height="63.4"/>
<path class="st1" d="M467.2,900.8l8.6,2c1.3,0.3,2.3,1.2,2.7,2.5l6.1,18.1c0.1,0.4,0.2,0.8,0.2,1.2v4.9c0,0.7,0.2,1.3,0.5,1.9
	l6.1,10.5c1,1.7,0.6,3.8-1,4.9c-1.5,1.1-3.3,2.2-4.5,1.8c-1.9-0.7-35.1-1.4-46.3-1.7c-2.1,0-3.7-1.7-3.7-3.8l0,0
	c0-0.7,0.2-1.4,0.6-2l7.9-12.8c0.2-0.3,0.3-0.6,0.4-0.9l6.5-20.5c0.2-0.7,0.6-1.3,1.2-1.8l4.5-3.7c0.7-0.6,1.5-0.9,2.4-0.9h6.9
	C466.6,900.7,466.9,900.8,467.2,900.8z"/>
<path class="st0" d="M330.2,490.8c0,2.6,0.7,169.1,0,171.7s-8.6,64.7-8.6,67.4s12.9,138,12.9,138l23.7-2.6
	c0,0,15.1-120.9,15.1-122.9s0.7-46.9,0-48.9s28-188.5,28-188.5v-71.7L360,433c-13.7-0.1-25.2,11.3-26.7,26.3L330.2,490.8z"/>
<path class="st0" d="M481.8,486.8c0,2.7-0.7,170.6,0,173.3s8.6,65.3,8.6,68s-12.9,139.3-12.9,139.3l-23.7-2.7c0,0-15.1-122-15.1-124
	s-0.7-47.3,0-49.3s-28-190.2-28-190.2v-68.4l41.6-0.3c13.7-0.1,25.3,11.3,26.8,26.3L481.8,486.8z"/>
<path class="st0" d="M502,706c-1-41-23.6-267.9-23.6-268l-0.5-7.4c-0.8-10.9-9.9-19.4-20.8-19.4h-99.9c-10.7,0-19.7,8.1-20.8,18.8
	l-1.2,12h-0.9c0,0-27.2,238-26.2,266s13.6,197,13.6,197H369c0,0,17-186,17-210s20.1-182,20.1-182S428,661,427,685s17,220,17,220h42
	C486,905,503,747,502,706z"/>
<path class="st0" d="M369.3,910.7h-46.9c-1.8,0-3.3-1.5-3.3-3.3v-3.3c0-1.8,1.5-3.3,3.3-3.3h46.9c1.8,0,3.3,1.5,3.3,3.3v3.3
	C372.7,909.2,371.2,910.7,369.3,910.7z"/>
<path class="st2" d="M371.8,905.7h-51.1c-1.8,0-3.3-1.5-3.3-3.3v-4.7c0-1.8,1.5-3.3,3.3-3.3h51.1c1.8,0,3.3,1.5,3.3,3.3v4.7
	C375.1,904.2,373.6,905.7,371.8,905.7z"/>
<path class="st0" d="M485.7,912.4h-40.3c-1.8,0-3.3-1.5-3.3-3.3v-3.3c0-1.8,1.5-3.3,3.3-3.3h40.3c1.8,0,3.3,1.5,3.3,3.3v3.3
	C489,910.9,487.5,912.4,485.7,912.4z"/>
<path class="st2" d="M487.8,907.4h-43.9c-1.8,0-3.3-1.5-3.3-3.3v-4.7c0-1.8,1.5-3.3,3.3-3.3h43.9c1.8,0,3.3,1.5,3.3,3.3v4.7
	C491.2,905.9,489.7,907.4,487.8,907.4z"/>
</svg>
