<?xml version="1.0" encoding="utf-8"?>
<!-- Generator: Adobe Illustrator 26.0.3, SVG Export Plug-In . SVG Version: 6.00 Build 0)  -->
<svg version="1.1" id="Layer_1" xmlns="http://www.w3.org/2000/svg" xmlns:xlink="http://www.w3.org/1999/xlink" x="0px" y="0px"
	 viewBox="0 0 288 561.6" style="enable-background:new 0 0 288 561.6;" xml:space="preserve">
<style type="text/css">
	.st0{fill:#2E858E;}
	.st1{fill:#C58C85;}
	.st2{fill:#E8E0BF;}
</style>
<g>
	<g id="Calque_1">
		<path class="st0" d="M155.9,83.8c-23.3,2.5-46.2,14.7-71.5,23c0,0-11.5,0.5-10.8-0.1L4.8,61.2l3.9-29.5
			C9.8,21,18.8,12.9,29.5,12.9h99.9c11,0,20.1,8.5,20.8,19.4L155.9,83.8z"/>
	</g>
	<polygon class="st1" points="62.7,515.3 43.3,513.6 35.8,453.8 60.2,445.9 	"/>
	<path class="st2" d="M49.2,497.8l-6.3-1.8c-1,0.4-2.5,5.6-2.8,6.8l-9.6,27.4c-1.1,3.2-0.4,6.7,1.9,9.2c4.7,5.3,13.2,13.4,19.6,12.8
		c1.7-0.2,22.2-6.8,22.9-15.6l0,0c0-0.7-4.6-14.5-4.6-14.5c-0.2-0.2-3-15-8.3-27.9l-3.6-2.8c-0.6-0.5-1.9,5.7-2.7,5.7l-5.8,0.4
		C49.7,497.6,49.4,497.7,49.2,497.8z"/>
	<path class="st0" d="M4.1,94.9c0.2,2.6,13.7,168.5,13.2,171.2c-0.3,1.5-1.3,21.3-2.1,39.2c-0.9,18.9,0.3,37.9,3.5,56.6l18.7,108.7
		l23.4-4.5c0,0,5.8-121.7,5.6-123.7s-2.9-46.8-3.8-48.7s13.5-190.1,13.5-190.1l-5.5-71.5L29.4,35C15.8,36,5.1,48.2,4.8,63.3
		L4.1,94.9z"/>
	<path class="st1" d="M61.7,486.5c0.5,7.1,9.4,34.2-7.5,38.2c-6.9,1.7-14.9-2.3-16-9.3c-1.2-7.3,3-17.2,5-26.1
		C44.6,482.3,61.1,479.4,61.7,486.5z"/>
	<polygon class="st1" points="184.4,514.7 208.2,510 201.3,448.7 176.5,451.8 	"/>
	<path class="st2" d="M202.5,513l3.2-6.6l42.4,26.8c0,0,19.5,11.3,16.6,19.8c-1.2,3.4-23.4,6.3-30.8,5.4
		c-13.1-1.6-18.8-16-42.4-19.2c-4.1-0.6-10-7.3-9.5-13.4l1.1-17l7.1,1.2L202.5,513z"/>
	<path class="st0" d="M153.9,71.6c1.8,8.1,3.2,16.3,4.2,24.5c4.8,39.1,19.2,157.4,20.1,159.6c0.6,1.4,5.7,21.5,10.2,39.2
		c4.5,18,7.5,36.4,8.8,54.9l8.5,122l-27.8,3.5c0,0-32.1-132.2-32.4-134.2s-6.6-46.9-6.1-48.9S87.9,106.9,87.9,106.9L79.4,39
		l41.2-5.5c13.6-1.8,26.5,8,29.8,22.8L153.9,71.6z"/>
	<path class="st1" d="M204,494.7l-21,14c8.3,3.9,32.5,31.8,54.3,28.6c16-2.3,1.2-10.7,0.8-10.4s-21.7-12.2-27.1-18.4
		C208.4,505.6,204,494.7,204,494.7z"/>
	<polygon class="st2" points="175.9,238.7 126.5,244 121.9,227.3 171.5,205.2 	"/>
	<circle class="st0" cx="51.2" cy="527.6" r="8.7"/>
	<circle class="st0" cx="243.6" cy="532.6" r="8.1"/>
</g>
</svg>
