<svg xmlns="http://www.w3.org/2000/svg" viewBox="0 0 788 1005"><defs><style>.cls-1{fill:#85331e;}.cls-2{fill:#aa5b3f;}.cls-3{fill:#6d323a;}.cls-4,.cls-5,.cls-7{fill:none;}.cls-4{stroke:#000;stroke-width:3px;}.cls-4,.cls-7{stroke-miterlimit:10;}.cls-6{fill:#473415;}.cls-7{stroke:#4f3742;}.cls-8{fill:#72271f;}</style></defs><g id="Calque_1" data-name="Calque 1"><path class="cls-1" d="M323.84,176.58c0-24.93,33.09-12.46,73.82-12.46s73.68-12.47,73.68,12.46-37.59,49.6-78.32,49.6S323.84,201.52,323.84,176.58Z"/><path class="cls-2" d="M124.07,410.34s-18.46-7-21.51-6.81-15.77,3.23-18.15,3S67.85,401.17,67.64,403s-.15,8.73-.15,8.73l11.4,5.6,14.75.26-18.25,13.8S48,445.18,46.19,445.59s1.07,8.91,1.07,8.91l34.67-14.84L49.61,465l6,7.66,34.31-26.94L60.34,478.7l8.83,4.38,27.24-28.4-14.59,26s8,4,9.11,2,17-23.6,17-23.6l27.79-22.9,1.41-9.18Z"/><path class="cls-2" d="M516.73,243c-.6,38.39-26.2,33.17-36.86,42.29-12.58,10.77-8.27,50-17.18,64-2.45,3.84-11.36,10.1-15.8,9.08-12.51-2.87-24-30.73-34.77-37.73-6.33-4.12-23.57-3.62-30.19,0-11.25,6.16-22.27,34.86-34.77,37.73-4.44,1-13.35-5.24-15.8-9.08-8.91-14-4.6-53.24-17.19-64-10.65-9.12-36.25-3.9-36.86-42.29-.41-26.59,35-37.34,35-37.34l40.15-19.91a31.4,31.4,0,0,0,7.1-4.82,29.11,29.11,0,0,0,2.29-2.29l.63-.71,0-.06a31.55,31.55,0,0,0,7.22-16.43,30.71,30.71,0,0,0,.25-4.19l0-2.84,0-4.51h53.63l.06,5,0,1.5,0,3.21c0,.33,0,.67,0,1v0c0,.65.09,1.3.16,1.95a29.38,29.38,0,0,0,.93,4.57,28.5,28.5,0,0,0,14.7,17.59L480,204.77a27.41,27.41,0,0,0,3.16,1.33C489.87,208.48,517.1,219.61,516.73,243Z"/><path class="cls-2" d="M424.37,198.13l-27.5,32.5-14.8-17.69-12.39-14.81.72-41.56,0-2.21.08-4.51h53v.23l.08,4.66v0l0,1.56.07,4.21v0l0,1.28.12,6.79Z"/><path class="cls-3" d="M424.87,167.38l-1,1.25c-5.16,6.33-28.83,35-41.79,44.31-3.2,2.29-5.74,3.39-7.2,2.69-6.76-3.26-14.84-35.1-14.84-35.1l.08-.07a21,21,0,0,0,1.73-1.87q.48-.57,1.05-1.32l.06-.08A39.39,39.39,0,0,0,369.61,162c0-.21.09-.42.13-.64.26-1.37.48-3,.66-4.82.07-.71.13-1.45.19-2.21.11-1.42.2-2.94.28-4.51h52.67v.23l0,4.28,0,6.72.15.76.14.67.93,4.57Z"/><path class="cls-4" d="M466.65,405.46c-.88-4-5.67-25.28-5.61-33.83.06-9.17,4-27.71,1.8-36.66-9.77-39.58-123.53-39.65-133.32,0-2.21,8.95,1.74,27.49,1.8,36.66.06,8.55-4.73,29.81-5.61,33.83-11,50.33,70.35,73.38,70.35,73.38S477.69,455.79,466.65,405.46Z"/><path class="cls-5" d="M435.23,390.61c16.16,5.22,23.2,9.62,27,16.56,3.11,5.61,6,18.48,6.27,24.9.54,15.06-7.77,52.94-21.93,65.58-14.4,12.85-84.8,12.85-99.2,0C333.26,485,325,447.13,325.49,432.07c.23-6.42,3.16-19.29,6.28-24.9,3.84-6.94,10.88-11.34,27-16.56,18.49-6,37.29-5,37.29-5S416.74,384.63,435.23,390.61Z"/><path class="cls-2" d="M281.17,350.89c-9.71-15-32.38-8.32-40.5-5.45s-23.15,12.15-30.55,16.69c-18.94,11.63-75.51,47.87-96.36,54.09-14.58,4.36,7.52,25,7.52,25s15.52-9,25.69-12.62c21.36-7.58,52.08-11.54,87.86-22.82,9.41-3,27.21-12.24,34.87-18.27C291.12,370.63,284,355.25,281.17,350.89Z"/><path class="cls-4" d="M338.33,239.46c2.77,27.54-14.91,54.37-14.91,54.37s-28.3,55.46-37.45,74.1c-4.31,8.78-13,27.24-35.18,17.1h0c-18.31-8.36-13.33-27.42-10-36.21,6.71-17.9,24.05-52.75,27.52-71.33,2.58-13.84,1.17-36.18,18.12-53.32,0,0,12.34-15.54,31.43-9.39l.76.24a28.69,28.69,0,0,1,19.75,24.44Z"/><path class="cls-2" d="M672.7,410.34s18.46-7,21.5-6.81,15.78,3.23,18.16,3,16.55-5.31,16.77-3.53.14,8.73.14,8.73l-11.39,5.6-14.75.26,18.25,13.8s27.37,13.84,29.2,14.25-1.08,8.91-1.08,8.91l-34.66-14.84L747.15,465l-6,7.66-34.31-26.94,29.6,32.94-8.82,4.38-27.25-28.4,14.59,26s-8,4-9.11,2-17-23.6-17-23.6L661,436.18l-1.4-9.18Z"/><path class="cls-2" d="M515.59,350.89c9.71-15,32.39-8.32,40.5-5.45s23.15,12.15,30.55,16.69c19,11.63,75.52,47.87,96.36,54.09,14.58,4.36-7.51,25-7.51,25s-15.52-9-25.69-12.62C628.43,421,597.71,417,561.94,405.75c-9.41-3-27.22-12.24-34.87-18.27C505.65,370.63,512.77,355.25,515.59,350.89Z"/><path class="cls-4" d="M458.44,239.46c-2.77,27.54,14.91,54.37,14.91,54.37s28.3,55.46,37.44,74.1c4.31,8.78,13,27.24,35.19,17.1h0c18.31-8.36,13.33-27.42,10-36.21-6.7-17.9-24-52.75-27.51-71.33-2.58-13.84-1.17-36.18-18.13-53.32,0,0-12.34-15.54-31.43-9.39l-.75.24a28.67,28.67,0,0,0-19.75,24.44Z"/></g><g id="Calque_7" data-name="Calque 7"><polygon class="cls-6" points="316.71 451.3 318.21 428.8 473.21 428.8 475.21 448.3 316.71 451.3"/><polygon class="cls-7" points="394.57 489.85 389.57 449.85 404.57 449.85 403.57 482.13 394.57 489.85"/><polygon class="cls-1" points="172.08 380.1 180.48 437.17 231.14 418.32 287.35 386.8 303.1 350.25 308.17 391.62 304.59 425.57 313.56 480.97 479.45 480.97 490.4 430.91 490.4 389.02 487.46 351.48 517.51 398.93 527.29 403.92 615.96 439.56 640.29 391.09 569.33 347.56 520.32 220.21 454 187.27 402.8 214.7 350.14 185.08 285.99 213.5 270.07 233.45 234.39 340.69 172.08 380.1"/><path class="cls-8" d="M328.93,196.9s45.36,42.22,67.25,46.91c0,0-26.31,15.42-46.28,5s-38.41-46.94-37.56-47.31S328.93,196.9,328.93,196.9Z"/><path class="cls-1" d="M181.48,377.52c-1,0-34.18,20.11-34.18,20.11s4,32.79,5,33,31.16-4.83,32.5-6.18S181.48,377.52,181.48,377.52Z"/><path class="cls-1" d="M630.19,389.58c1,0,29.38,12.76,29.43,14.41S648,432.48,648,432.48l-47.88-10.73Z"/><rect class="cls-8" x="307.97" y="446.4" width="177.56" height="43.44"/></g></svg>