<svg xmlns="http://www.w3.org/2000/svg" viewBox="0 0 788 1005"><defs><style>.cls-1{fill:#aa5b3f;}.cls-2{fill:#6d323a;}.cls-3,.cls-4{fill:none;}.cls-4{stroke:#000;stroke-miterlimit:10;stroke-width:3px;}.cls-5{fill:#d1924e;}.cls-6{fill:#db493e;}.cls-7{fill:#efc081;}</style></defs><g id="Calque_7" data-name="Calque 7"><path class="cls-1" d="M207.37,194.35c-.61-2.43-17.45-48.59-17.45-48.59s20.79-9.78,20.18-12.21-5.27-36.16-5.27-36.16l9.11-2.31L221.05,136,226,104.32l9.28,3.47-2.48,38.77,7.94,13.5-12.39,29Z"/><polygon points="229.52 475.34 229.62 475.3 229.52 475.25 229.52 475.34"/><polygon points="229.62 475.3 229.72 475.34 229.72 475.25 229.62 475.3"/><polygon points="229.52 475.34 229.62 475.3 229.52 475.25 229.52 475.34"/><polygon points="229.62 475.3 229.72 475.34 229.72 475.25 229.62 475.3"/><path class="cls-1" d="M515.11,237.82c-.6,38.39-26.2,33.17-36.86,42.29-12.58,10.77-8.27,50-17.18,64-2.45,3.84-11.36,10.1-15.8,9.08-12.51-2.87-24-30.73-34.77-37.73-6.33-4.12-23.57-3.62-30.19,0-11.25,6.16-22.27,34.86-34.77,37.73-4.44,1-13.35-5.24-15.8-9.08-8.91-14-4.6-53.24-17.19-64-10.65-9.12-36.25-3.9-36.86-42.29-.41-26.59,35-37.34,35-37.34l40.15-19.91a31.4,31.4,0,0,0,7.1-4.82,29.11,29.11,0,0,0,2.29-2.29l.63-.71,0-.06a31.55,31.55,0,0,0,7.22-16.43,30.71,30.71,0,0,0,.25-4.19l0-2.84,0-4.51H422l.06,5,0,1.5,0,3.21c0,.33,0,.67,0,1v0c0,.65.09,1.3.16,1.95a29.38,29.38,0,0,0,.93,4.57c2.19,7.55,10.43,10.71,17.68,14.31l37.55,23.38a27.41,27.41,0,0,0,3.16,1.33C488.25,203.35,515.48,214.48,515.11,237.82Z"/><path class="cls-1" d="M422.75,193l-27.5,34.3-14.8-17.69L368.06,194.8l.72-41.56,0-2.21.08-4.51h53v.23l.08,4.66v0l0,1.56.07,4.21v0l0,1.28.12,6.79Z"/><path class="cls-2" d="M423.25,162.78l-1,1.25c-5.16,6.33-28.83,35-41.79,44.31-3.2,2.29-5.74,3.39-7.2,2.69-6.76-3.26-14.84-35.1-14.84-35.1l.08-.07a21,21,0,0,0,1.73-1.87q.48-.57,1-1.32l.06-.08A39.39,39.39,0,0,0,368,157.43c0-.21.09-.42.13-.64.26-1.37.48-3,.66-4.82.07-.71.13-1.45.19-2.21.11-1.42.2-2.94.28-4.51h52.67v.23l0,4.28,0,6.72.15.76.14.67.93,4.57Z"/><path class="cls-3" d="M433.61,387.27c16.16,5.23,23.2,9.63,27.05,16.57,3.11,5.61,6,18.48,6.27,24.9.54,15.06-7.77,52.94-21.93,65.58-14.4,12.85-84.8,12.85-99.2,0-14.16-12.64-22.47-50.52-21.93-65.58.23-6.42,3.16-19.29,6.27-24.9C334,396.9,341,392.5,357.19,387.27c18.49-6,37.29-5,37.29-5S415.12,381.3,433.61,387.27Z"/><path class="cls-1" d="M217.37,354.49c17.73-2.26,21.51-25.59,22.44-34.15s-.93-26.12-1.83-34.76c-2.29-22.11-10.48-88.8-7.07-110.28,2.39-15-25.76-4-25.76-4s1.4,17.89.26,28.62C203,222.44,193.28,251.84,188,289c-1.4,9.76-.74,29.83,1.38,39.34C195.27,354.92,212.22,355.15,217.37,354.49Z"/><path class="cls-4" d="M334.65,246.63c-8.55,26.33-35.53,43.78-35.53,43.78S250.89,329.8,235,343.18c-7.48,6.31-22.84,19.72-39.1,1.51h0c-13.4-15-1.17-30.47,5.39-37.2,13.34-13.69,43.24-38.61,53.88-54.23,7.94-11.63,15.63-32.65,38.05-41.52,0,0,17.55-9.26,32.55,4l.6.52a28.7,28.7,0,0,1,8.25,30.32Z"/><polyline class="cls-5" points="521.42 401.62 515.11 387.99 504.16 344.32 505.78 317.1 497.79 232.31 448.13 184.97 396.11 250.81 344.27 182.78 285.12 210.21 264.2 232.15 239.52 263.39 233.21 232.81 193.54 246.63 180.01 336.55 210.48 363.5 316.84 295.42 319.4 365.63 311.72 414.27 312.45 451.42 482.17 449 478.19 402.57 472.91 368.83 475.19 284.08"/><path class="cls-4" d="M464.45,234.4c-6.44,26.92,7.47,55.88,7.47,55.88s20.6,58.76,27.16,78.45c3.09,9.28,9.2,28.74,32.57,21.68h0c19.27-5.83,16.89-25.38,14.8-34.54-4.23-18.64-16.74-55.5-17.68-74.38-.7-14.06,3.7-36-10.81-55.26,0,0-10.14-17.07-29.88-13.54l-.78.14a28.67,28.67,0,0,0-22.85,21.57Z"/><path class="cls-6" d="M435,184.52s53.83,21.16,70.12,31.91c28.64,18.91-18,83.4-18,83.4l-10.27,72.29,5,74.73-7.7,13.09-153.26.89-8.3-13.21.59-72.05s15.24-58.48,4.63-72.16c-23.82-30.71-21.75-93.8-21.75-93.8l63.72-25.2s16.9,43.74,39.9,41.35C425.43,223.09,435,184.52,435,184.52Z"/><polygon class="cls-5" points="304.43 462.65 304.88 429.05 351.95 429.05 352.89 474.3 304.43 462.65"/><path class="cls-1" d="M441.9,462.39l39.77-17.49,22.77,23.28-2.57,10.49-12,12s-22.71-19.28-22.71-21S449.82,474,449.82,474Z"/><polygon class="cls-5" points="520.9 220.26 541.93 276.21 550.55 385.18 505.08 471.41 475.3 442.4 503.52 367.93 498.03 289.54 520.9 220.26"/><polygon class="cls-7" points="432.18 171.56 440.41 291.89 411.17 453.32 485.48 436 504.44 381.3 508.22 288.76 520.68 219.47 432.18 171.56"/><polygon class="cls-5" points="469.88 199.79 459.8 220.56 447.46 218.71 436.77 237.01 432.24 172.03 452.81 192.18 469.88 199.79"/><polygon class="cls-7" points="366.12 163.75 357.32 284.39 357.32 453.32 298.53 433.33 289.51 281.25 280.37 210.21 366.12 163.75"/><path class="cls-5" d="M366.12,163.75s-2.24,21.73.93,27c5.4,9,24.75,12.8,24.75,12.8l-5.59,19.31-12.93-3.91-13.35,24.13.34-22.3S345.74,211,347.9,190.53C348.66,183.28,366.12,163.75,366.12,163.75Z"/></g></svg>