<svg xmlns="http://www.w3.org/2000/svg" viewBox="0 0 788 1005"><defs><style>.cls-1{fill:#d48f72;}.cls-2{fill:#a85d3d;}.cls-3,.cls-5{fill:none;}.cls-3{stroke:#000;stroke-miterlimit:10;stroke-width:3px;}.cls-4{fill:#d79072;}.cls-6{fill:#46455b;}.cls-7{fill:#aa5b3f;}.cls-8{fill:#6d323a;}.cls-9{fill:#37344d;}</style></defs><g id="Calque_5" data-name="Calque 5"><path class="cls-1" d="M411.2,321.48c10.75,7,22.27,34.85,34.77,37.73,4.44,1,13.35-5.25,15.8-9.09,8.91-14,4.6-53.23,17.19-64,10.65-9.12,36.25-3.91,36.86-42.3.36-23.34-26.87-34.47-33.53-36.84a29.51,29.51,0,0,1-3.17-1.34l-40.53-20.1a28.48,28.48,0,0,1-15.82-25.14l-.23-18.05-27,2.06L369,142.34l.11,15.73a31.54,31.54,0,0,1-17.53,28.5l-40.15,19.92s-35.41,10.74-35,37.33c.6,38.39,26.2,33.18,36.85,42.3,12.59,10.77,8.28,50,17.19,64,2.45,3.84,11.36,10.11,15.8,9.09,12.51-2.88,23.52-31.57,34.77-37.73C387.63,317.85,404.88,317.36,411.2,321.48Z"/><polygon class="cls-1" points="397.45 137 422.45 141 423.45 199 395.95 231.5 368.76 199 369.76 141 397.45 137"/><path class="cls-2" d="M424,168.25s-41.89,52.17-50,48.25c-6.76-3.26-14.84-35.1-14.84-35.1s6.9-6,9.58-18.5c1.55-7.21,1.67-22.86,1.5-34.92h52.33l.15,34Z"/><path class="cls-3" d="M458,250.55c11.9,25,40.93,38.77,40.93,38.77s53,32.77,70.43,44c8.23,5.28,25.21,16.57,39-3.61h0c11.33-16.63-2.81-30.35-10.19-36.17-15-11.83-47.9-32.65-60.5-46.74-9.38-10.49-19.75-30.33-43.13-36.2,0,0-18.61-6.9-31.75,8.25l-.52.6A28.69,28.69,0,0,0,458,250.55Z"/><path class="cls-4" d="M594.25,295.74c-18.55-7.17-32.67,11.81-37.39,19s-10.68,23.93-13.63,32.14c-7.55,21-17.52,57.34-25.19,77.81-5,13.46-8.09,20.41-.35,25.92,7,5,16.13-5.75,19.74-9.92,14.85-17.2,44.3-50.41,56.84-70.91,5.14-8.41,14-26.39,16.11-36C616.32,306.82,599.65,297.83,594.25,295.74Z"/><path class="cls-3" d="M465.74,406.33c-.88-4-5.67-25.27-5.62-33.83.06-9.17,4-27.71,1.81-36.65-9.77-39.58-123.54-39.66-133.32,0-2.21,8.94,1.74,27.48,1.8,36.65.06,8.56-4.73,29.82-5.62,33.83-11,50.33,70.35,73.38,70.35,73.38S476.78,456.66,465.74,406.33Z"/><path class="cls-5" d="M434.32,391.48c16.16,5.22,23.2,9.63,27,16.56,3.11,5.62,6,18.49,6.27,24.9.55,15.07-7.77,52.94-21.92,65.58-14.41,12.86-84.8,12.86-99.2,0C332.35,485.88,324,448,324.58,432.94c.23-6.41,3.16-19.28,6.27-24.9,3.84-6.93,10.89-11.34,27-16.56,18.49-6,37.3-5,37.3-5S415.83,385.5,434.32,391.48Z"/><path class="cls-4" d="M216.11,359c19.9-.15,26.06-23,27.8-31.42s1.15-26.17.87-34.9c-.7-22.34-4.75-59.77-5.14-81.62-.25-14.37,0-21.95-9.2-24.23-8.39-2.08-12.88,11.26-14.71,16.47-7.5,21.45-22.69,63.16-26.82,86.83-1.7,9.71-3.32,29.68-1.76,39.42C191.52,356.77,210.33,359,216.11,359Z"/><path class="cls-3" d="M335.35,250.84c-8.54,26.32-35.52,43.78-35.52,43.78S251.6,334,235.73,347.39c-7.47,6.3-22.83,19.72-39.09,1.5h0c-13.4-15-1.17-30.46,5.39-37.19,13.33-13.69,43.23-38.62,53.88-54.23,7.93-11.63,15.63-32.65,38-41.52,0,0,17.56-9.27,32.56,4l.59.53a28.69,28.69,0,0,1,8.25,30.32Z"/><path class="cls-6" d="M422.65,155.23s3.06,21.51,11.59,26.76c7,4.3,39.18,20.95,61.18,26.76,34.89,9.2,70.82,63.78,109.85,87.57,7.29,4.44,8.89,20.65,8.48,26.65-.75,11.14-10.19,30.6-15.74,41.81-10.71,21.65-51.1,73.91-51.1,73.91l-2.53,3.93a8.05,8.05,0,0,1-12.24,1.55L518.82,431.8a11.19,11.19,0,0,1-2.31-13.4l7.63-14.57,26.53-79.75L483,284.23,472.7,350.74l17.7,117.65-13.3,21.07-168.78.39-6.69-14.54,14.9-127.47-6.88-56.51s-51.92,43.25-68.21,56.49c-6.63,5.39-25.81,16.19-34.19,14.51-8-1.6-19-14.5-21.24-21.75-3.45-11-2.81-34.65-.72-45.94,3.34-18.12,16.8-64.32,21.63-80.71a6.84,6.84,0,0,1,7.77-4.78l26.06,4.68c2.18.4,7.63.67,7.63,2.88l-3.81,52.13s24.89-42.22,38.33-49.73c31.52-17.6,70.74-33.35,76.21-37.71,7.48-6,9.94-26.17,9.94-26.17"/><path class="cls-7" d="M522.55,447c2,3.19,3.06,9-3,14.84,0,0-17.63,20.22-25.4,24.34-3.48,1.84-12.79,6.25-15.38,3.3-7.33-8.39-12.07-28.61-9.72-41.73.7-3.93,9.41-8.05,13.33-8.82,4.31-.84,12.95,2.62,17.34,2.78a67.49,67.49,0,0,0,7.19-.39C512.83,440.75,519.77,442.62,522.55,447Z"/><polygon class="cls-8" points="511.11 434.55 506.97 441.24 510.34 453.74 514.31 465.81 519.9 459.79 530.05 452.75 511.11 434.55"/><polygon class="cls-9" points="508.4 438.88 517.72 423.13 538.19 445.04 526.94 457.77 508.4 438.88"/><path class="cls-7" d="M230.29,196c-3-1.8-6.47-6.43-4.42-14.53,0,0,4.46-26.5,8.59-34,1.85-3.34,7-11.83,10.39-10.51,9.47,3.75,22.32,19.19,26.46,31.88,1.24,3.81-3.62,11.74-6.31,14.35-2.95,2.87-11.2,4.1-14.66,6.13a59.86,59.86,0,0,0-5.38,3.9C240.63,196.64,234.42,198.44,230.29,196Z"/><polygon class="cls-7" points="243.49 202.07 243.64 194.14 235.37 184.82 226.82 176.17 225.23 184.22 220.58 195.43 243.49 202.07"/><polygon class="cls-9" points="244.15 198.36 244.5 214.79 213.65 209.75 220.55 192.17 244.15 198.36"/></g></svg>