<svg xmlns="http://www.w3.org/2000/svg" viewBox="0 0 151.88 119.27"><defs><style>.cls-1{fill:#aa5b3f;}.cls-2{fill:#6d323a;}.cls-3{fill:#36344d;}.cls-4{fill:#9599ba;}.cls-5{fill:#473415;}.cls-6{fill:#472e1d;}.cls-7{fill:#d1924e;}.cls-8{fill:#db493e;}.cls-9{fill:#efc081;}</style></defs><g id="Calque_7" data-name="Calque 7"><path class="cls-1" d="M93.74,7.23c.56,1.81.9,3.35,2.74,4.21l10.49,8c.26.12,1.75,3.86,2,3.95,1.7.57,7.26-3.57,7.17,2-.15,9.18-6.68,7.93-9.4,10.11-3.2,2.58-2.11,12-4.38,15.31-.62.92-2.89,2.42-4,2.17-3.19-.68-6.13-7.35-8.87-9-1.61-1-6-.87-7.69,0-2.87,1.47-5.68,8.34-8.87,9-1.13.25-3.4-1.25-4-2.17-2.27-3.34-1.17-12.73-4.38-15.31-2.71-2.18-9.24-.93-9.39-10.11C55,19,66.55,20.25,66.55,20.25l7.74-8.57a7.52,7.52,0,0,0,1.81-1.15,6.06,6.06,0,0,0,.58-.55l.17-.17h0A7.43,7.43,0,0,0,78.7,5.87a8.39,8.39,0,0,0,.06-1V3.11"/><polyline class="cls-1" points="96.08 4.72 98.38 13.76 86.56 20.25 82.79 16.49 79.63 13.35 79.81 4.54 79.82 4.07 79.84 3.11"/><path class="cls-1" d="M117.74,65.15c.68.56,1.27,1.72.09,3.21,0,0-3.25,5-5,6.22-.76.55-2.83,1.89-3.64,1.4a12.08,12.08,0,0,1-4.76-8.18c0-.84,1.89-2.1,2.82-2.44s3.37-.07,4.47-.24c.39-.06,1.07-.23,1.76-.42C115,64.31,116.8,64.37,117.74,65.15Z"/><polygon class="cls-2" points="114.61 63.03 113.96 64.61 115.5 67.04 117.17 69.35 118.22 67.84 120.35 65.91 114.61 63.03"/><polygon class="cls-3" points="114.18 64.06 115.62 60.36 121.94 63.94 119.86 67.1 114.18 64.06"/><polygon class="cls-4" points="65.47 66.75 65.47 60.48 106.31 61.26 106.09 66.01 65.47 66.75"/><path class="cls-1" d="M21.18,29.73C21,29,16,15.18,16,15.18s6.23-2.93,6-3.66S20.42.69,20.42.69L23.14,0l2.13,12.24,1.48-9.47,2.78,1-.75,11.61,2.38,4-3.71,8.68Z"/><path class="cls-1" d="M32.26,59.89c-.81-7.82-3.7-31.39-2.5-39,.85-5.31-9.11-1.42-9.11-1.42a72,72,0,0,1,.1,10.12c-.85,8-4.29,18.36-6.17,31.49"/><polygon class="cls-5" points="59.66 106.07 60.16 98.53 112.11 98.53 112.78 105.07 59.66 106.07"/><circle class="cls-6" cx="109" cy="96.29" r="1.57"/><polyline class="cls-7" points="128.27 89.42 126.15 84.85 122.48 70.22 123.03 61.09 120.35 32.68 103.71 16.81 86.27 38.88 68.9 16.08 49.07 25.27 42.06 32.62 33.79 43.09 31.67 32.84 18.38 37.48 12.88 66.75 24.06 76.65 59.7 53.83 60.56 77.36 57.99 93.66 58.23 106.11 115.11 105.3 113.78 89.74 112.01 78.43 112.78 50.03"/><path class="cls-8" d="M99.3,16.66s18,7.09,23.5,10.7c9.6,6.33-6,28-6,28l-3.44,24.22,1.68,25L112.44,109l-51.37.3-2.78-4.43.2-24.15S63.6,61.09,60,56.51c-8-10.29-7.29-31.44-7.29-31.44L74.1,16.63s5.67,14.65,13.38,13.85C96.1,29.59,99.3,16.66,99.3,16.66Z"/><polygon class="cls-7" points="55.54 109.88 55.7 98.61 71.47 98.61 71.79 113.78 55.54 109.88"/><path class="cls-1" d="M101.62,109.79,115,103.93l7.63,7.8-.86,3.52-4,4s-7.61-6.47-7.61-7-5.82,1.44-5.82,1.44Z"/><polygon class="cls-7" points="128.09 28.64 135.14 47.39 138.03 83.91 122.79 112.81 112.81 103.09 122.27 78.13 120.43 51.86 128.09 28.64"/><polygon class="cls-9" points="98.36 12.32 101.12 52.65 91.32 106.75 116.22 100.95 122.58 82.61 123.84 51.59 128.02 28.38 98.36 12.32"/><polygon class="cls-7" points="110.99 21.78 107.62 28.74 103.48 28.12 99.9 34.25 98.38 12.47 105.27 19.23 110.99 21.78"/><polygon class="cls-9" points="76.22 9.7 73.27 50.13 73.27 106.75 53.57 100.05 50.55 49.08 47.48 25.27 76.22 9.7"/><path class="cls-7" d="M76.22,9.7s-.75,7.28.31,9.05c1.81,3,8.3,4.28,8.3,4.28L83,29.51,78.62,28.2l-4.48,8.08.12-7.47a11,11,0,0,1-4.15-10.14C70.37,16.25,76.22,9.7,76.22,9.7Z"/><polygon class="cls-7" points="98.98 110.48 94.32 105.44 114.06 101.43 115.44 105.2 98.98 110.48"/></g></svg>