<svg xmlns="http://www.w3.org/2000/svg" viewBox="0 0 788 1005"><defs><style>.cls-1{fill:#6d323a;}.cls-2{fill:#7a919e;}.cls-3{fill:#d48f72;}.cls-4{fill:#aa5b3f;}.cls-5{fill:#95acba;}.cls-6{fill:#d79072;stroke:#000;stroke-width:3px;}.cls-10,.cls-6{stroke-miterlimit:10;}.cls-7{fill:#9599ba;}.cls-8{fill:#605b5b;}.cls-9{fill:#adcbde;}.cls-10{fill:none;stroke:#839ba5;}</style></defs><g id="Calque_1" data-name="Calque 1"><polygon class="cls-1" points="422.47 142.34 369.75 142.34 369.77 141 370.23 140.93 397.45 137 422.45 141 422.47 142.34"/></g><g id="Calque_7" data-name="Calque 7"><polygon class="cls-2" points="364.84 193.85 365.7 164.95 426.18 164.31 425.84 193.85 364.84 193.85"/><path class="cls-3" d="M515.82,243.82c-.37,23.36-10,30.57-19.87,34.69-6.35,2.65-12.82,4-17,7.6-12.59,10.77-8.28,50-17.18,64-2.45,3.84-11.37,10.1-15.81,9.08-12.5-2.87-24-30.73-34.77-37.73-6.32-4.12-23.57-3.62-30.18,0-11.25,6.16-22.27,34.86-34.77,37.73-4.44,1-13.36-5.24-15.81-9.08-8.61-13.52-4.85-50.73-16-62.88a11.24,11.24,0,0,0-1.16-1.13C302.6,277,277,282.21,276.4,243.82c-.22-13.73,9.12-23.24,18.2-29.22a72.31,72.31,0,0,1,16.79-8.12l40.15-19.91a31.32,31.32,0,0,0,8.56-6.23c.31-.31.62-.64.91-1l.1-.12A31.64,31.64,0,0,0,367.54,168a29.82,29.82,0,0,0,.83-3.12,27.37,27.37,0,0,0,.46-2.71v0a30.77,30.77,0,0,0,.24-4.09L369,142.34l.79.06.46,0,25.38,2,26.88-2.06h.07l.08,5.72v.38l.14,10.83,0,1.48c0,.88.08,1.76.18,2.63v.09l.12.87a27.78,27.78,0,0,0,.77,3.51h0c.09.32.19.65.3,1a27.12,27.12,0,0,0,1.91,4.51,28.38,28.38,0,0,0,10.5,11.09q1,.6,2,1.11l1.2.59,39.33,19.51a28.32,28.32,0,0,0,3.17,1.33,71,71,0,0,1,19.92,11C509.59,223.92,516,232.41,515.82,243.82Z"/><polygon class="cls-4" points="423.45 199 409.42 215.58 398.92 227.98 395.95 231.5 387.15 220.98 381.15 213.81 368.77 199 368.86 193.84 368.91 191.15 369.25 170.91 369.36 164.9 369.49 157.35 369.75 142.4 369.75 142.34 369.77 141 370.23 140.93 397.45 137 422.45 141 422.47 142.34 422.47 142.35 422.63 151.57 422.76 159.27 422.79 160.75 422.82 162.66 422.85 164.34 422.94 169.5 422.98 171.49 422.98 171.5 423.36 193.84 423.45 199"/><path class="cls-1" d="M424,168.25l-1,1.25c-2.88,3.54-11.57,14.1-20.93,24.34-4,4.32-8,8.58-11.84,12.22-1.82,1.76-3.58,3.36-5.23,4.77-1.34,1.13-2.61,2.14-3.79,3-3.2,2.29-5.74,3.39-7.2,2.69-6.75-3.26-14.83-35.1-14.83-35.1a14,14,0,0,0,1-1c.26-.28.55-.61.88-1l.1-.12a35.54,35.54,0,0,0,4.37-6.94,38.16,38.16,0,0,0,1.88-4.58h0c.3-.89.59-1.83.84-2.81.18-.65.34-1.32.49-2,.05-.23.09-.45.14-.7v0c.26-1.37.47-3,.65-4.81.42-4.24.63-9.49.72-14.91v-.1c0-.47,0-.94,0-1.41L397.45,137l25,4,0,1.34h.12l0,5.72v3.51l.05,10.38.14.71.15.72v.09l.18.87.71,3.51h0Z"/><path class="cls-5" d="M458,250.55c11.9,25,40.93,38.77,40.93,38.77s53,32.77,70.43,44c8.23,5.28,25.21,16.57,39-3.61h0c11.33-16.63-2.81-30.35-10.19-36.17-15-11.83-47.9-32.65-60.5-46.74-9.38-10.49-23.29-34.09-46.67-39.95,0,0-15.07-3.15-28.21,12l-.52.6A28.69,28.69,0,0,0,458,250.55Z"/><path class="cls-6" d="M325.81,224c17.78,21.22,18.25,53.35,18.25,53.35s7.78,61.78,10.69,82.33c1.38,9.69,4.59,29.83-19.48,33.93h0c-19.84,3.38-26.43-15.18-28.66-24.31-4.52-18.57-9.77-57.14-17.35-74.45-5.64-12.9-19.37-30.58-15-54.28,0,0,1.47-19.8,20.71-25.45l.76-.22a28.69,28.69,0,0,1,30.07,9.1Z"/><polygon class="cls-7" points="320.13 451.3 321.63 423.93 476.63 423.93 473.51 447.77 320.13 451.3"/><path class="cls-5" d="M312.9,410.49l1.63-132.17L294,212.65,359,179l42.81,52.53,36.33-49.16,64.66,30-10.44,101-26.6,72.06,8.18,10.8a23.1,23.1,0,0,1,3.27,22l-2.7,7.33L318.36,428l-3.62-8.34A22.27,22.27,0,0,1,312.9,410.49Z"/><path class="cls-7" d="M458.07,346.9l1.2,10.16-8.56,5.74,1.12,3.08c-26.65,13.08-93,45.26-93.59,45.49-1.59.58-10.8,4.77-16.08,4.77-8.8,0-29.36-12.16-29.36-12.16s-2.15-13.93.16-13.38,123-45.93,125.81-45.23S458.07,346.9,458.07,346.9Z"/><rect class="cls-8" x="451.02" y="233.57" width="225.48" height="156.33" rx="10.58" transform="translate(-32.59 68.08) rotate(-6.72)"/><path class="cls-4" d="M670,361.2h2.47a6.79,6.79,0,0,1,6.79,6.79v15.44a6.79,6.79,0,0,1-6.79,6.79h0a6.79,6.79,0,0,1-6.79-6.79V365.53A4.33,4.33,0,0,1,670,361.2Z" transform="translate(-95.91 321.17) rotate(-25.13)"/><path class="cls-1" d="M607.73,385.14l40.46-6.66-2.09,20.94a3.66,3.66,0,0,1-4.53,3.19L632,400.24A41.56,41.56,0,0,1,615,391.38Z"/><path class="cls-4" d="M638.53,362.12h10.29a16.82,16.82,0,0,1,16.82,16.82v5.26a15.9,15.9,0,0,1-15.9,15.9h-8.88A10.11,10.11,0,0,1,630.74,390V369.9a7.78,7.78,0,0,1,7.78-7.78Z" transform="translate(-100.5 311.38) rotate(-25.13)"/><path class="cls-4" d="M451.83,322.79l13,20.09,11.45-2.25,24.17-3.74a16.64,16.64,0,0,0,13.16-10.95l6.73-19.24,29.79-4.41a8.66,8.66,0,0,0,7.28-8.46l0-1.22-34.92,2.54,1.88-5-17.72.3-10.39.05a31,31,0,0,0-16,4.57l-9.44,5.73c-2,2.17-2.65,3.18-6.43,8.4L459,316.72"/><path class="cls-4" d="M310.73,373.21c-3.84-19.52,17.3-30.13,25.21-33.52s25.41-6.37,34-7.85c22-3.78,59.51-7.3,81-11.3,14.13-2.63,21.51-4.42,25.59,4.16,3.71,7.81-4.14,13.7-8.88,16.53-19.51,11.64-61.65,36.06-84,44.85-9.18,3.61-28.42,9.19-38.27,9.61C317.81,396.87,311.84,378.88,310.73,373.21Z"/><path class="cls-5" d="M320.12,201.58s-43.2,16.32-50.82,26.31c-7.31,9.58-3.1,48.94-3.1,48.94s16.62,94.07,37.83,116c5,5.15,22.43,9.93,31.35,12.1a15.61,15.61,0,0,0,10.17-.95l100.86-45.63-8.46-40-91.14,11.88-18-67.58"/><polygon class="cls-9" points="355.72 183.32 365.7 164.95 393.37 211.45 377.44 235.85 355.72 183.32"/><polygon class="cls-9" points="440.1 185.17 426.18 164.31 405.49 210.69 424.19 234.01 440.1 185.17"/><polygon class="cls-7" points="393.37 211.45 401.54 231.5 390.52 222.41 377.44 235.85 393.37 211.45"/><polygon class="cls-7" points="401.54 231.5 405.49 210.69 424.19 234.01 410.81 223.47 401.54 231.5"/><path class="cls-10" d="M328.59,260.23c1.34,0,18.22,70,18.22,70L438,318.37l8.46,40"/></g></svg>