<svg xmlns="http://www.w3.org/2000/svg" viewBox="0 0 788 1005"><defs><style>.cls-1{fill:#aa5b3f;}.cls-2{fill:#6d323a;}.cls-3{fill:#473415;}.cls-4{fill:none;stroke:#000;stroke-miterlimit:10;stroke-width:3px;}.cls-5{fill:#a38a6d;}.cls-6{fill:#4a330f;}.cls-7{fill:#3e322e;}.cls-8{fill:#574640;}</style></defs><g id="Calque_5" data-name="Calque 5"><path class="cls-1" d="M411.2,321.48c10.75,7,22.27,34.85,34.77,37.73,4.44,1,13.35-5.25,15.8-9.09,8.91-14,4.6-53.23,17.19-64,10.65-9.12,36.25-3.91,36.86-42.3.36-23.34-26.87-34.47-33.53-36.84a29.51,29.51,0,0,1-3.17-1.34l-40.53-20.1a28.48,28.48,0,0,1-15.82-25.14l-.23-18.05-27,2.06L369,142.34l.11,15.73a31.54,31.54,0,0,1-17.53,28.5l-40.15,19.92s-35.41,10.74-35,37.33c.6,38.39,26.2,33.18,36.85,42.3,12.59,10.77,8.28,50,17.19,64,2.45,3.84,11.36,10.11,15.8,9.09,12.51-2.88,23.52-31.57,34.77-37.73C387.63,317.85,404.88,317.36,411.2,321.48Z"/><polygon class="cls-1" points="397.45 137 422.45 141 423.45 199 395.95 231.5 368.76 199 369.76 141 397.45 137"/><path class="cls-2" d="M424,168.25l-1,1.25c-5.16,6.33-28.83,35-41.79,44.31-3.2,2.29-5.74,3.39-7.2,2.69-6.76-3.26-14.84-35.1-14.84-35.1a18.69,18.69,0,0,0,1.81-1.94,38.48,38.48,0,0,0,7.77-16.56c0-.21.09-.42.13-.64.26-1.37.48-3,.66-4.82.42-4.26.63-9.55.72-15,0-.51,0-1,0-1.51,0-1.31,0-2.63,0-3.93h52.31l.05,10.58V151l.05,11,.15.76.14.67.93,4.57Z"/><polygon class="cls-3" points="316.71 451.3 318.21 428.8 473.21 428.8 475.21 448.3 316.71 451.3"/><path class="cls-4" d="M463.17,241.66c-6.44,26.92,7.47,55.88,7.47,55.88s20.6,58.77,27.16,78.46c3.09,9.28,9.2,28.74,32.57,21.67h0c19.27-5.82,16.89-25.38,14.81-34.54-4.24-18.64-16.75-55.5-17.69-74.37-.7-14.06,3.7-36-10.8-55.27,0,0-10.14-17.06-29.89-13.53l-.78.14a28.69,28.69,0,0,0-22.85,21.56Z"/><path class="cls-5" d="M433.71,191.77s53.83,19,70.12,28.7c28.64,17-17.95,75-17.95,75l-10.27,65,5,67.2-7.7,11.77-153.26.8-8.3-11.88.6-64.79s-5.27-50.71-15.88-63c-23.83-27.61-1.25-86.21-1.25-86.21l63.72-22.66s16.9,39.32,39.91,37.17C424.15,226.45,433.71,191.77,433.71,191.77Z"/><polygon class="cls-6" points="316.62 450.52 318.12 428.02 473.12 428.02 475.12 447.52 316.62 450.52"/><path class="cls-1" d="M440.62,471.46,480.39,454l22.78,23.27-2.57,10.5-12,12s-22.7-19.27-22.7-21S448.55,483,448.55,483Z"/><path class="cls-1" d="M353.17,464.46,314.4,448l-23.78,22.27,2.57,10.5,12,12s22.7-19.27,22.7-21S345.24,476,345.24,476Z"/><polygon class="cls-7" points="519.62 227.52 540.65 283.48 549.28 392.44 503.81 478.67 474.02 449.67 502.24 375.2 496.75 296.8 519.62 227.52"/><polygon class="cls-8" points="430.9 178.82 439.14 299.16 439.14 468.09 497.93 448.1 506.94 296.02 519.41 226.74 430.9 178.82"/><polygon class="cls-7" points="468.6 207.06 458.52 227.83 446.19 225.97 435.49 244.28 430.97 179.29 451.53 199.45 468.6 207.06"/><polygon class="cls-7" points="272.56 227.52 254.53 278.48 245.91 387.44 291.37 473.67 321.16 444.67 292.94 370.2 298.43 291.8 272.56 227.52"/><polygon class="cls-8" points="364.28 173.82 356.05 294.16 356.05 463.09 297.25 443.1 288.24 291.02 271.77 226.74 364.28 173.82"/><path class="cls-7" d="M364.25,173.47s-1.64,19.27,1.53,24.54c5.39,9,24.75,12.79,24.75,12.79l-5.59,19.32L372,226.2l-13.35,24.13L359,228s-14.52-9.78-12.37-30.24C347.39,190.55,364.25,173.47,364.25,173.47Z"/></g></svg>