<svg xmlns="http://www.w3.org/2000/svg" viewBox="0 0 169.18 81.6"><defs><style>.cls-1{fill:#85331e;}.cls-2{fill:#aa5b3f;}.cls-3{fill:#6d323a;}.cls-4,.cls-6{fill:none;stroke-miterlimit:10;}.cls-4{stroke:#000;stroke-width:3px;}.cls-5{fill:#473415;}.cls-6{stroke:#4f3742;}.cls-7{fill:#72271f;}</style></defs><g id="Calque_7" data-name="Calque 7"><path class="cls-1" d="M68.48,8.48c0-5.39,7.15-2.69,16-2.69s15.93-2.7,15.93,2.69S92.24,19.2,83.43,19.2,68.48,13.87,68.48,8.48Z"/><path class="cls-2" d="M25.29,59a30.73,30.73,0,0,0-4.65-1.47c-.66.05-3.41.69-3.93.63s-3.58-1.15-3.62-.76,0,1.89,0,1.89l2.46,1.21,3.19,0-4,3s-5.91,3-6.31,3.08.23,1.92.23,1.92l7.5-3.2-7,5.48,1.3,1.66,7.42-5.83-6.4,7.13,1.91.94,5.89-6.14-3.16,5.62s1.73.86,2,.44,3.68-5.1,3.68-5.1l6-5,.3-2Z"/><path class="cls-2" d="M110.17,22.83c-.12,8.3-5.66,7.17-8,9.14-2.72,2.33-1.79,10.82-3.72,13.84-.53.83-2.45,2.18-3.41,2-2.71-.62-5.2-6.64-7.52-8.15-1.37-.89-5.1-.79-6.53,0-2.43,1.33-4.81,7.53-7.51,8.15-1,.22-2.89-1.13-3.42-2-1.93-3-1-11.51-3.72-13.84-2.3-2-7.83-.84-8-9.14C58.33,17.08,66,14.76,66,14.76l8.68-4.31a6.77,6.77,0,0,0,1.53-1,5.78,5.78,0,0,0,.5-.49l.14-.16h0A6.89,6.89,0,0,0,78.4,5.2a6.85,6.85,0,0,0,0-.91V2.7H90l0,1.08v1a1.48,1.48,0,0,0,0,.21h0c0,.14,0,.28,0,.42a6.68,6.68,0,0,0,.2,1,6.18,6.18,0,0,0,3.18,3.8l8.76,4.35a5.24,5.24,0,0,0,.69.28C104.37,15.38,110.25,17.78,110.17,22.83Z"/><polygon class="cls-2" points="90.21 13.14 84.26 20.17 81.06 16.34 78.38 13.14 78.54 4.16 78.55 3.68 78.56 2.7 90.03 2.7 90.03 2.75 90.05 3.76 90.05 3.76 90.05 4.1 90.07 5.01 90.07 5.02 90.07 5.29 90.1 6.76 90.21 13.14"/><path class="cls-3" d="M90.32,6.49l-.22.27c-1.12,1.37-6.24,7.58-9,9.58-.69.5-1.24.74-1.55.58C78,16.22,76.3,9.34,76.3,9.34l0,0s.18-.18.37-.4l.23-.29v0a8.46,8.46,0,0,0,1.44-3.27l0-.14c0-.3.1-.65.14-1,0-.16,0-.32,0-.48,0-.31,0-.64.06-1H90V5.13l0,.16,0,.15.2,1Z"/><path class="cls-4" d="M99.35,58a49.46,49.46,0,0,1-1.21-7.31c0-2,.86-6,.39-7.93-2.12-8.55-26.71-8.57-28.83,0-.47,1.94.38,6,.39,7.93A50.82,50.82,0,0,1,68.88,58C66.49,68.84,84.09,73.83,84.09,73.83S101.74,68.84,99.35,58Z"/><path class="cls-2" d="M59.25,46.17c-2.1-3.25-7-1.8-8.76-1.18a47.54,47.54,0,0,0-6.6,3.61C39.79,51.11,27.56,59,23.06,60.29c-3.15.94,1.62,5.4,1.62,5.4A43.78,43.78,0,0,1,30.24,63c4.62-1.64,11.26-2.5,19-4.93a32.06,32.06,0,0,0,7.54-4C61.4,50.43,59.86,47.11,59.25,46.17Z"/><path class="cls-2" d="M143.89,59a30.73,30.73,0,0,1,4.65-1.47c.66.05,3.41.69,3.93.63s3.58-1.15,3.62-.76,0,1.89,0,1.89l-2.46,1.21-3.19,0,3.95,3s5.92,3,6.31,3.08-.23,1.92-.23,1.92l-7.5-3.2,7,5.48-1.3,1.66-7.42-5.83,6.4,7.13-1.91.94-5.89-6.14L153,74.22s-1.73.86-2,.44-3.68-5.1-3.68-5.1l-6-5-.3-2Z"/><path class="cls-2" d="M109.93,46.17c2.1-3.25,7-1.8,8.76-1.18a47.54,47.54,0,0,1,6.6,3.61c4.1,2.51,16.33,10.35,20.83,11.69,3.15.94-1.62,5.4-1.62,5.4A43.78,43.78,0,0,0,138.94,63c-4.62-1.64-11.26-2.5-19-4.93a32.25,32.25,0,0,1-7.54-4C107.78,50.43,109.32,47.11,109.93,46.17Z"/><polygon class="cls-5" points="66.93 67.87 67.26 63.01 100.77 63.01 101.2 67.22 66.93 67.87"/><polyline class="cls-6" points="82.69 67.56 85.93 67.56 85.71 74.54"/><polygon class="cls-1" points="35.67 52.48 37.48 64.82 48.43 60.74 60.59 53.93 63.99 46.03 65.09 54.97 64.31 62.31 66.25 74.29 102.12 74.29 104.48 63.47 104.48 54.41 103.85 46.29 110.34 56.55 112.46 57.63 131.63 65.33 136.89 54.86 121.55 45.45 110.18 18.35 96.89 11.44 85.55 16.72 74.16 10.32 58.92 16.97 56.85 20.78 49.14 43.96 35.67 52.48"/><path class="cls-7" d="M69.58,12.87S79.38,22,84.11,23c0,0-5.68,3.33-10,1.08S65.81,14,66,13.88,69.58,12.87,69.58,12.87Z"/><path class="cls-1" d="M37.7,51.92c-.22,0-7.39,4.35-7.39,4.35s.87,7.09,1.09,7.13a55.12,55.12,0,0,0,7-1.34C38.71,61.78,37.7,51.92,37.7,51.92Z"/><path class="cls-1" d="M134.7,54.53c.22,0,6.35,2.76,6.37,3.12s-2.53,6.15-2.53,6.15l-10.35-2.31Z"/><rect class="cls-7" x="65.4" y="66.88" width="38.39" height="9.39"/></g></svg>