<?xml version="1.0" encoding="utf-8"?>
<!-- Generator: Adobe Illustrator 26.0.3, SVG Export Plug-In . SVG Version: 6.00 Build 0)  -->
<svg version="1.1" id="Calque_1" xmlns="http://www.w3.org/2000/svg" xmlns:xlink="http://www.w3.org/1999/xlink" x="0px" y="0px"
	 viewBox="0 0 788 1005" style="enable-background:new 0 0 788 1005;" xml:space="preserve">
<style type="text/css">
	.st0{fill:#C9C9C9;}
	.st1{fill:#CA9072;}
	.st2{fill:#B28079;}
	.st3{fill:#D3D3D3;}
	.st4{fill:#B7B7B7;}
	.st5{fill:#353535;}
</style>
<polygon class="st0" points="434.8,191.3 360.6,191.3 360.7,160.2 435,158.8 "/>
<path class="st1" d="M502.8,237.8c-0.6,38.4-13.2,39.2-23.9,48.3c-12.6,10.8-8.3,50-17.2,64c-2.5,3.8-11.4,10.1-15.8,9.1
	c-12.5-2.9-24-30.7-34.8-37.7c-6.3-4.1-23.6-3.6-30.2,0c-11.2,6.2-22.3,34.9-34.8,37.7c-4.4,1-13.3-5.2-15.8-9.1
	c-8.9-14-4.6-53.2-17.2-64c-10.7-9.1-20.2-6.9-20.9-45.3c-0.4-26.6,19-34.3,19-34.3l40.1-19.9c2.6-1.3,5.1-2.9,7.4-4.9
	c0.7-0.6,1.3-1.2,2-1.8c0.2-0.2,0.4-0.4,0.7-0.6c0,0,0,0,0-0.1c5.6-5.8,9.3-13.4,9.2-21.3l-0.7-6.8h52.5l0.1,5.3v0.8v4.2
	c0,0.5,0.1,1,0.1,1.5c0.2,1.9,0.6,3.8,1.2,5.7c0.8,2.5,1.9,4.8,3.3,7c2.7,4.2,6.5,7.6,11.2,9.9l40.5,20.1c1,0.5,2.1,1,3.2,1.3
	C489,209.3,503.2,214.5,502.8,237.8z"/>
<path class="st1" d="M497,209.6c24.6,12.8,37.3,42.3,37.3,42.3s30.9,54.1,41.5,71.9c4.9,8.4,15.6,25.8-5,38.8l0,0
	c-17,10.8-30.2-4-35.8-11.5c-11.3-15.4-31-49-44.5-62.1c-10.1-9.8-29.6-20.8-34.6-44.4c0,0-6.2-18.9,9.4-31.4l0.6-0.5
	C474.7,205.7,486.9,204.4,497,209.6L497,209.6z"/>
<path class="st1" d="M331.1,208.5l-0.7-0.4c-17.5-9.8-32.6,3.1-32.6,3.1c-19.9,13.5-22.9,35.7-28.1,48.8
	c-7,17.5-30.8,48.3-40.8,64.6c-5,8-13.6,25.7,2.8,37.5l0,0c19.9,14.2,31.9-2.1,37.9-9.9c12.6-16.5,51.1-65.4,51.1-65.4
	s22.6-22.9,25.2-50.5C346.9,225,341.1,214.1,331.1,208.5z"/>
<path class="st2" d="M424.1,168.6l-1,1.2c-5.2,6.3-28.8,35-41.8,44.3c-3.2,2.3-5.7,3.4-7.2,2.7c-5.7-2.7-13-27.4-15.2-35.1
	c0.7-0.6,1.3-1.2,2-1.8c0.1,0,0.1,0,0.2-0.1c0.1-0.2,0.3-0.4,0.5-0.5c0,0,0,0,0-0.1c0.2-0.2,0.4-0.5,0.5-0.7l0.1-0.1
	c3.3-4.5,5.5-9.7,6.7-15.2c0-0.2,0.1-0.4,0.1-0.6c0.3-1.4,0.5-3,0.7-4.8c0.1-0.7,0.1-1.4,0.2-2.2c0.1-1.4,0.2-2.9,0.3-4.5h52.6v11.2
	l0.1,0.7v0.1l0.1,0.7l0.9,4.6L424.1,168.6z"/>
<path class="st3" d="M578.6,322.8c-0.5-1.2-1.1-2.2-1.5-3.3l-31.9-50.1c-1.1-1.8-2.1-3.7-2.9-5.6c-2.3-5.3-5.9-10.3-9.1-15.1
	L519.8,228c-5.4-8.3-13.3-14.8-22.7-18.8l-63.4-26.5l-32.8,68.5l-32-69.8L303.2,209c-9.8,4.1-18,11-23.4,19.8l-8.9,14.3
	c-7.3,11.8-14.9,28-23.5,40l-22,39.6c-5.4,13.3,19.7-8.1,29.5-0.2c9.9,7.9,10.7,41.2,19.1,31.6c0.1-0.1,0.3-0.3,0.3-0.4l43.5-61
	l5.1,77.8c0.1,10.1-12.9,26.8-14.1,36.8l-17.6,138.9c-1.5,12,6.7,23,18.9,25.6c0,0,66.7,17.5,89.6,18.4
	c23.6,0.9,93.8-12.1,93.8-12.1c0.1,0,0.3,0,0.3,0c13.2-1.9,22.2-13.7,20.3-26.5L492,405.9c-1.8-12-19.3-30.9-19.2-42.9
	c0.3-28.3,16.8-69.1,16.8-69.1l34.5,61c9.1,9.5,8.2-24.7,18.1-33.4C551.6,313.1,584.4,335.4,578.6,322.8z"/>
<path class="st3" d="M360.7,160.2l-10.5,24.7l-55.9,24.7l21.4,115.5c1.6,6.5,4.4,12.6,8,18.1l4.1,6.2l135.6,1.9l6.1-9.4
	c3.4-5.1,5.9-10.9,7.5-16.9l21.7-118.6l-58.5-21.5l-5.2-26.2l-40.5,80.6L360.7,160.2z"/>
<g>
	<path class="st4" d="M434.8,159c-31.1,63.7-64,127.3-98.1,189.4C367.9,284.7,400.7,221.1,434.8,159L434.8,159z"/>
</g>
<g>
	<path class="st4" d="M295.1,213.4c9.6,30.2,12,67.7,18.3,98.6c-9.6-30.1-11.1-62.1-17.5-93.2L295.1,213.4z"/>
</g>
<g>
	<path class="st4" d="M497.8,211.6c-6.3,30.3-4.6,69.6-14.2,99.1C489.9,280.5,488.2,241,497.8,211.6L497.8,211.6z"/>
</g>
<g>
	<path class="st5" d="M469.5,387H325.1c-3.1,0-5.7-2.4-5.7-5.7v-17.1c0-3.1,2.4-5.7,5.7-5.7h144.5c3.1,0,5.7,2.4,5.7,5.7v17.1
		C475,384.4,472.6,387,469.5,387z"/>
	<path class="st5" d="M412,388.6h-18.1c-5.8,0-10.6-4.7-10.6-10.6v-12.7c0-5.8,4.7-10.6,10.6-10.6H412c5.8,0,10.6,4.7,10.6,10.6V378
		C422.7,383.8,418,388.6,412,388.6z"/>
	<path class="st5" d="M397.3,372.8l-44.8,49.7c-2.3,2.4-2.1,6.3,0.3,8.6l7.8,7.5c2.6,2.6,6.9,2.1,9.2-0.8l38.9-51.9l-16.4-2
		l23.4,44.5c1.7,3.2,6,4.3,9,2.1l8.6-6c2.6-1.8,3.4-5.4,1.8-8.1l-28.9-49.9L397.3,372.8z"/>
</g>
<path class="st1" d="M581.5,350.7c-2.7,17.3-23.3,19.7-30.9,20c-7.6,0.4-22.8-2.4-30.4-3.8c-19.3-3.5-51.3-11.9-70.2-15.1
	c-12.5-2.1-19-2.8-19.8-11.1c-0.7-7.6,11.4-9.7,16.2-10.6c19.6-3.8,57.8-11.5,78.8-12.1c8.6-0.2,26.2,0.9,34.5,3.5
	C582.8,329,582.3,345.7,581.5,350.7z"/>
<path class="st1" d="M223.9,349.2c2.1,17.3,22.6,20.5,30.2,21.1s22.9-1.6,30.5-2.7c19.4-2.8,51.7-10,70.7-12.6
	c12.5-1.6,19.1-2.2,20.3-10.4c1-7.5-11.1-10.1-15.8-11.2c-19.4-4.5-57.3-13.6-78.3-14.8c-8.6-0.6-26.2,0.1-34.6,2.3
	C223.4,327.6,223.3,344.2,223.9,349.2z"/>
<path class="st1" d="M351.4,349.1l-2.7-7.5c-0.2-0.3-0.2-0.8-0.4-1.1c-1-4.5,3.8-7.1,3.8-7.1s5.7-0.9,7.9-2
	c2.1-1.1,10.3-10.6,10.3-10.6c2.2-1.9,9.1-3.7,12-5.7c0.9-0.6,3.1-1.9,4.2-1.9l13.5-2.4c1.4,7-4.1,8.8-12.2,9.8
	c-2.4,0.3,5.6,1.3,5.6,1.3l5.6-1c2.6,1.1,3.5,2.5,3.6,5.5l-1.3,18.3c0.2,2.5-0.7,5-2.4,6.9l0,0c-1.2,1.2-2.9,2-4.7,2.1l-21.2,0.4
	c-4,0.1-8-0.4-11.7-1.8L351.4,349.1z"/>
<path class="st1" d="M393.8,319.7l-5.8,0.2l-12.5,7.3l-1.4,2.4l-8.2,5l3.7-0.7c3-0.6,6.1,0.4,8.2,2.6l1,1.1l-1.7-6.9l10.9-7.8
	l10.9-2L393.8,319.7z"/>
<path class="st1" d="M452.6,349.6l2.7-7.5c0.2-0.3,0.2-0.8,0.4-1.1c0.9-4.4-1.9-8.8-6.3-9.8l0,0c0,0-3.1,1.8-5.3,0.6
	c-2.1-1.1-10.3-10.6-10.3-10.6c-2.2-2-9.1-3.8-12-5.8c-0.9-0.6-3.1-1.9-4.2-1.9L404,311c-1.4,7.1,4.1,8.8,12.2,9.8
	c2.4,0.3-5.6,1.3-5.6,1.3l-5.7-0.9c-2.6,1.1-3.5,2.5-3.6,5.5l1.3,18.3c-0.2,2.6,0.7,5.1,2.4,7l0,0c1.2,1.2,2.9,2,4.7,2.1l21.2,0.5
	c4,0.2,8-0.5,11.7-1.8L452.6,349.6z"/>
<path class="st1" d="M410.3,320.4l5.8,0.2l12.4,7.2l1.4,2.4l8.2,5l-3.7-0.7c-2.9-0.6-6.1,0.4-8.2,2.6l-1,1.1l1.7-6.9l-10.9-7.9
	l-10.9-2L410.3,320.4z"/>
</svg>
