<?xml version="1.0" encoding="utf-8"?>
<!-- Generator: Adobe Illustrator 26.0.3, SVG Export Plug-In . SVG Version: 6.00 Build 0)  -->
<svg version="1.1" id="Calque_1" xmlns="http://www.w3.org/2000/svg" xmlns:xlink="http://www.w3.org/1999/xlink" x="0px" y="0px"
	 viewBox="0 0 788 1005" style="enable-background:new 0 0 788 1005;" xml:space="preserve">
<style type="text/css">
	.st0{fill:#CA9072;}
	.st1{fill:#BA846C;}
	.st2{fill:none;stroke:#000000;stroke-width:3;stroke-miterlimit:10;}
	.st3{fill:#473415;}
	.st4{fill:#FA9980;}
	.st5{fill:#587CC6;}
	.st6{fill:#9CCBF2;}
	.st7{fill:#DCE8EF;}
	.st8{fill:#4D6FAA;}
</style>
<path d="M230.2,479.5h0.1H230.2z"/>
<polygon points="230.3,479.5 230.4,479.5 230.4,479.5 "/>
<path d="M230.2,479.5h0.1H230.2z"/>
<polygon points="230.3,479.5 230.4,479.5 230.4,479.5 "/>
<path class="st0" d="M515.8,243.8c-0.6,38.4-26.2,33.2-36.9,42.3c-12.6,10.8-8.3,50-17.2,64c-2.5,3.8-11.4,10.1-15.8,9.1
	c-12.5-2.9-24-30.7-34.8-37.7c-6.3-4.1-23.6-3.6-30.2,0c-11.2,6.2-22.3,34.9-34.8,37.7c-4.4,1-13.4-5.2-15.8-9.1
	c-8.9-14-4.6-53.2-17.2-64c-10.6-9.1-36.2-3.9-36.9-42.3c-0.4-26.6,35-37.3,35-37.3l40.1-19.9c9.5-4.7,16-13.8,17.3-24.3
	c0.2-1.4,0.3-2.8,0.2-4.2v-7h53.6l0,0l0.1,6.1v3.2c0,0.3,0,0.7,0,1l0,0c0,0.6,0.1,1.3,0.2,1.9c0.2,1.5,0.5,3.1,0.9,4.6
	c2.2,7.7,7.6,14,14.7,17.6l40.5,20.1c1,0.5,2.1,1,3.2,1.3C489,209.4,516.2,220.5,515.8,243.8z"/>
<polygon class="st0" points="423.5,199 396,231.5 381.1,213.8 368.8,199 369.5,157.4 369.6,151.1 422.6,151.1 422.7,157.2 
	422.8,161.4 422.8,161.4 422.8,162.7 422.9,169.5 "/>
<path class="st1" d="M424,168.2l-1,1.2c-5.1,6.3-28.8,35.1-41.8,44.3c-3.2,2.3-5.7,3.4-7.2,2.7c-6.8-3.3-14.8-35.1-14.8-35.1
	c0.6-0.6,1.3-1.3,1.8-1.9c3.9-4.8,6.5-10.5,7.8-16.6c0-0.2,0.1-0.4,0.1-0.6c0.3-1.4,0.5-3,0.7-4.8s0.3-4.1,0.5-6.4h52.7v10.9
	l0.1,0.8l0.1,0.7l0.9,4.6L424,168.2z"/>
<path class="st2" d="M458,250.6c11.9,25,40.9,38.8,40.9,38.8s53,32.8,70.4,44c8.2,5.3,25.2,16.6,39-3.6l0,0
	c11.3-16.6-2.8-30.4-10.2-36.2c-15-11.8-47.9-32.6-60.5-46.7c-9.4-10.5-19.8-30.3-43.1-36.2c0,0-18.6-6.9-31.8,8.2l-0.5,0.6
	C454.8,228,453.1,240.3,458,250.6z"/>
<path class="st0" d="M594.2,295.7c-18.5-7.2-32.7,11.8-37.4,19s-10.7,23.9-13.6,32.1c-7.5,21-17.5,57.3-25.2,77.8
	c-5,13.5-8.1,20.4-0.3,25.9c7,5,16.1-5.8,19.7-9.9c14.8-17.2,44.3-50.4,56.8-70.9c5.1-8.4,14-26.4,16.1-36
	C616.3,306.8,599.7,297.8,594.2,295.7z"/>
<path class="st0" d="M197.4,299.7c18.6-7.2,32.7,11.8,37.4,19s10.7,23.9,13.6,32.1c7.6,21,17.5,57.3,25.2,77.8
	c5,13.5,8.1,20.4,0.3,25.9c-7,5-16.1-5.8-19.7-9.9c-14.9-17.2-44.3-50.4-56.8-70.9c-5.1-8.4-14-26.4-16.1-36
	C175.3,310.8,192,301.8,197.4,299.7z"/>
<path class="st2" d="M333.7,254.6c-11.9,25-40.9,38.8-40.9,38.8s-52.9,32.8-70.4,44c-8.2,5.3-25.2,16.6-38.9-3.6l0,0
	c-11.3-16.6,2.8-30.4,10.2-36.2c15-11.8,47.9-32.6,60.5-46.7c9.4-10.5,19.8-30.3,43.1-36.2c0,0,18.6-6.9,31.8,8.2l0.5,0.6
	C337,232.1,338.6,244.3,333.7,254.6L333.7,254.6z"/>
<path class="st3" d="M316.9,448.2l1.5-21.8l154.5-1.3l2.1,20.2c0.1,1.4-1,2.7-2.4,2.7l-153.2,2.9
	C317.9,450.8,316.8,449.6,316.9,448.2z"/>
<path class="st4" d="M521.4,448.8c2.5,2.9,4.3,8.5-0.8,15.1c0,0-14.5,22.6-21.6,27.8c-3.2,2.3-11.7,8-14.7,5.5
	c-8.5-7.2-16.1-26.6-15.6-39.9c0.1-4,8.1-9.3,11.9-10.6c4.1-1.5,13.2,0.7,17.6,0.2c2.4-0.3,4.7-0.8,7.1-1.4
	C510.9,444,518,444.9,521.4,448.8z"/>
<path d="M230.8,478.8h0.1H230.8z"/>
<polygon points="230.9,478.8 231,478.8 231,478.8 "/>
<path d="M230.8,478.8h0.1H230.8z"/>
<polygon points="230.9,478.8 231,478.8 231,478.8 "/>
<path class="st2" d="M458.6,249.9c11.9,25,40.9,38.8,40.9,38.8s53,32.8,70.4,44c8.2,5.3,25.2,16.6,39-3.6l0,0
	c11.3-16.6-2.8-30.4-10.2-36.2c-15-11.8-47.9-32.6-60.5-46.7c-9.4-10.5-19.8-30.3-43.1-36.2c0,0-18.6-6.9-31.8,8.2l-0.5,0.6
	C455.4,227.3,453.7,239.6,458.6,249.9z"/>
<path class="st2" d="M334.3,253.9c-11.9,25-40.9,38.8-40.9,38.8s-52.9,32.8-70.4,44c-8.2,5.3-25.2,16.6-38.9-3.6l0,0
	c-11.3-16.6,2.8-30.4,10.2-36.2c15-11.8,47.9-32.6,60.5-46.7c9.4-10.5,19.8-30.3,43.1-36.2c0,0,18.6-6.9,31.8,8.2l0.5,0.6
	C337.6,231.4,339.2,243.6,334.3,253.9L334.3,253.9z"/>
<path class="st5" d="M429.7,184.4c2.2-2.8,6-3.8,9.3-2.6c9.4,3.4,34.7,14,50.7,20.8c9.2,3.9,17.7,9.1,25.4,15.4
	c25.6,21,85.6,70.4,95,78.9c1.2,1.1,2,2.5,2.5,4.1c1.3,5,4.2,16.6,3.8,21.3c-0.8,11.1-10.2,30.6-15.7,41.8
	c-9.3,18.7-58.5-37.4-58.5-37.4c1.2-3.6-0.3-7.6-3.5-9.7l-42.3-26.7c-5.1-3.2-11.8-0.2-12.7,5.8l-8.1,51.5c-0.1,0.6-0.1,1.3-0.1,1.9
	l13.6,168.4c0.1,1.8-0.3,3.7-1.3,5.2l-2.2,3.3c-2.5,3.8-6.8,6.1-11.4,6.2l-48.4,11.9c-17.5,4.3-35.7,4.6-53.3,0.8l-56.1-11.9
	c-4.5,0-8.7-2.2-11.3-5.8l-2.7-3.8c-1-1.4-1.5-3.1-1.5-4.9l10.6-166.4c0-0.4,0-0.9-0.1-1.3l-7-47c-0.9-5.9-7.4-9-12.6-6
	c0,0-48.8,32.5-47.2,36.3c0,0-62.6,32.8-71.3,1c-1.5-5.7-0.1-20.9,0.7-27.5c0.2-2.1,1.2-4,2.8-5.3l65.2-57.3l37.5-30.7
	c9-7.4,19.3-13.2,30.2-17.2l42.6-15.6c3.5-1.2,7.4,0,9.6,3L429.7,184.4z"/>
<path class="st6" d="M522,448.1c2.5,2.9,4.3,8.5-0.8,15.1c0,0-14.5,22.6-21.6,27.8c-3.2,2.3-11.7,8-14.7,5.5
	c-8.5-7.2-16.1-26.6-15.6-39.9c0.1-4,8.1-9.3,11.9-10.6c4.1-1.5,13.2,0.7,17.6,0.2c2.4-0.3,4.7-0.8,7.1-1.4
	C511.5,443.3,518.6,444.2,522,448.1z"/>
<polygon class="st6" points="520.6,418.3 507.4,444.4 512.5,456.3 518.1,467.7 522.8,460.9 543.8,433.1 "/>
<path class="st6" d="M270.9,452.1c-2.5,2.9-4.3,8.5,0.8,15.1c0,0,14.5,22.6,21.6,27.8c3.2,2.3,11.7,8,14.7,5.5
	c8.5-7.2,16.1-26.6,15.6-39.9c-0.1-4-8.1-9.3-11.9-10.6c-4.1-1.5-13.2,0.7-17.5,0.2c-2.4-0.3-4.7-0.8-7.1-1.4
	C281.4,447.3,274.3,448.2,270.9,452.1z"/>
<polygon class="st6" points="273.5,426.1 285.5,448.4 280.3,460.3 274.7,471.7 270,464.9 252.4,441.2 "/>
<g>
	<ellipse class="st6" cx="323.1" cy="354" rx="7.6" ry="7.6"/>
	<circle class="st7" cx="323.1" cy="354" r="6.1"/>
	<g>
		<path class="st7" d="M323.3,354c0.5,8.9,0.9,17.9,1,26.8c0.3,6.7,0.7,13.3-0.6,20c-0.3,2.3-0.8,4.4-1.5,6.7h-0.5
			c-2.3-8.8-2-17.9-1-26.8c0.6-8.9,1.2-17.7,2.1-26.7H323.3L323.3,354z"/>
	</g>
	<g>
		<path class="st7" d="M343.2,346.3c0.5,8.9,0.9,17.9,1,26.8c0.3,6.7,0.7,13.3-0.6,20c-0.3,2.3-0.8,4.4-1.5,6.7h-0.5
			c-2.3-8.8-2-17.9-1-26.8c0.6-8.9,1.2-17.7,2.1-26.7H343.2L343.2,346.3z"/>
	</g>
	<polygon class="st8" points="304.1,393.7 300.6,447.5 350.2,455.9 360.9,449.3 363.5,391.2 303.7,382.6 	"/>
	<g>
		<path class="st7" d="M342.7,352.3c-0.1-3.4-0.3-7.9-0.3-10.7c-1.1-5.8,2.8-9.4,8.5-7.7c2.5,0.7,3.2,2.7,2.3,5
			c-0.3,0.8-0.6,1.5-0.8,2.3h-0.2c-0.6-1.4,0.2-3.4-0.5-4.5c-0.3-0.7-2.1-0.8-3.5-0.8c-3.4-0.3-4.5,2.5-4.3,5.4
			c-0.2,3.6-0.6,7.3-0.8,11C343,352.3,342.7,352.3,342.7,352.3L342.7,352.3z"/>
	</g>
</g>
<polygon class="st8" points="483.4,390.6 486.9,444.4 437.3,453 426.6,446.3 424,388.1 483.8,379.5 "/>
</svg>
