<?xml version="1.0" encoding="utf-8"?>
<!-- Generator: Adobe Illustrator 26.0.3, SVG Export Plug-In . SVG Version: 6.00 Build 0)  -->
<svg version="1.1" id="Calque_1" xmlns="http://www.w3.org/2000/svg" xmlns:xlink="http://www.w3.org/1999/xlink" x="0px" y="0px"
	 viewBox="0 0 588 387" style="enable-background:new 0 0 588 387;" xml:space="preserve">
<style type="text/css">
	.st0{fill:#CA9072;}
	.st1{fill:#AF7E68;}
	.st2{fill:none;stroke:#000000;stroke-width:3;stroke-miterlimit:10;}
	.st3{fill:#634B47;}
	.st4{fill:#EAEAEA;}
	.st5{fill:#7081AF;}
	.st6{fill:#7787B3;}
	.st7{fill:#F4F4F4;}
	.st8{fill:#95ACBA;}
</style>
<path d="M185.5,369.8h0.1H185.5z"/>
<polygon points="185.6,369.8 185.7,369.8 185.7,369.8 "/>
<path d="M185.5,369.8h0.1H185.5z"/>
<polygon points="185.6,369.8 185.7,369.8 185.7,369.8 "/>
<polyline class="st0" points="378.6,32.6 378.7,41.4 379,57.6 379.5,89.3 352.1,121.8 324.9,89.3 325.1,77.6 325.7,41.4 325.8,32.8 
	350.9,34.7 "/>
<path class="st1" d="M377.1,32.7l-0.2,8.7l-0.2,9.4L363.3,65c0,0-23.5,19.8-31.6,15.9c-2-1-4.3-2.1-6.5-3.3
	c-5.5-2.9-10.7-5.9-10.7-5.9c0.6-0.6,1.3-1.3,1.8-1.9c3.9-4.8,6.5-10.5,7.8-16.6c0-0.1,0.1-0.3,0.1-0.5v-0.1c0-0.3,0.1-0.6,0.1-1
	s0-0.6,0.1-0.9s0-0.5,0-0.8s0-0.3,0-0.5c0-0.7,0-1.4,0-2.1V46c0-0.6,0-1.2,0-1.9c0-1,0-1.9,0-2.8l0,0l-0.1-8.7l1.6,0.1l25,1.9
	L377.1,32.7z"/>
<path class="st2" d="M411.5,126.6c-1.3,27.6,17.7,53.5,17.7,53.5s31.2,53.9,41.3,72c4.8,8.5,14.4,26.5,36,15.2l0,0
	c17.8-9.3,11.9-28.1,8.1-36.7c-7.6-17.5-26.8-51.4-31.2-69.8c-3.3-13.7-3.1-36.1-20.9-52.3c0,0-13.1-14.9-31.9-7.7l-0.7,0.3
	C419.3,105.1,412,115.1,411.5,126.6L411.5,126.6z"/>
<path class="st0" d="M162.8,235.1c-19.6,3.6-29.9-17.7-33.2-25.6s-6.1-25.5-7.4-34.1c-3.5-22.1-6.6-59.6-10.3-81.1
	c-2.5-14.2-4.2-21.6,4.5-25.5c7.9-3.6,14.8,8.6,17.6,13.4c11.4,19.6,34.2,57.7,42.7,80.2c3.5,9.2,8.9,28.5,9.1,38.4
	C186.5,228.3,168.5,234.1,162.8,235.1z"/>
<path class="st2" d="M289,144.9c-11.9,25-40.9,38.8-40.9,38.8s-52.9,32.8-70.4,44c-8.2,5.3-25.2,16.6-38.9-3.6l0,0
	c-11.3-16.6,2.8-30.4,10.2-36.2c15-11.8,47.9-32.6,60.5-46.7c9.4-10.5,19.8-30.3,43.1-36.2c0,0,18.6-6.9,31.8,8.2l0.5,0.6
	C292.3,122.4,293.9,134.6,289,144.9L289,144.9z"/>
<path class="st3" d="M517.4,235c-9-17.7-32.2-13-40.5-10.8S453,234.9,445.3,239c-19.7,10.6-51.3,31-70.7,41.1
	c-12.7,6.7-19.6,9.8-17.6,19.1c1.9,8.4,15.8,6.5,21.3,5.8c22.5-2.9,66.6-8,89.7-14.9c9.5-2.8,28-10.3,36-16.1
	C526.4,258,520,240.2,517.4,235z"/>
<path class="st0" d="M128.9,71.3l-4-19.7c-0.1-0.4-0.2-0.7-0.4-1.1l-10.2-19.9c-1.5-2.8-5.6-3.1-7.2-0.3c-0.1,0.2-0.2,0.4-0.2,0.6
	c-1.2,5.4,1.9,13.7,3.5,18.9c0.2,0.7-0.6,4-1.2,4.4c-0.1,0.1-0.2,0.1-0.3,0.2c-2.2,1-3.3,3.6-2.1,5.7l4.4,7.6c0.7,1.1,1.8,1.9,3.1,2
	L128.9,71.3z"/>
<path class="st0" d="M119.1,71.1l-11.6,9.8L76.1,49.4c-0.4-0.4-0.8-0.9-1-1.5L58.7,10.8C57.2,7.3,60,3.3,63.8,4
	c0.3,0,0.5,0.1,0.7,0.2c10.1,4.6,19.7,26.7,26.8,35.2c5.5,6.6,20.1,18.2,27.7,24C121.4,65.4,121.4,69.1,119.1,71.1z"/>
<ellipse class="st0" cx="117" cy="73.6" rx="12.1" ry="12.1"/>
<path class="st4" d="M300.3,81.8c1.3-1.3,17.4-20.3,18.9-20.3c0.7,0,13.8,31.6,29,32.1c18.5,0.5,36.1-32.1,36.1-32.1l8.9,14l5,160.5
	l-97.9,1.3V81.8z"/>
<path class="st4" d="M112.3,135.8l-5.9-32.6c-0.1-0.7,0.2-1.4,0.8-1.8c5.5-3.8,32.6-22,34.2-21c1.5,0.9,8,19,9.7,23.8
	c0.2,0.7,0,1.5-0.5,2l-35.3,30.7C114.2,137.8,112.5,137.2,112.3,135.8z"/>
<path class="st4" d="M444.3,394c0.5,2.2-1,4.4-3.2,4.9c-0.1,0-0.3,0-0.4,0.1c-16.6,1.8-46,14-60.7,9.6c-8.5-2.6-24.5-1.7-25.9-6.5
	c-0.3-0.6,0.4-195,3-217s22.2-89.8,27.1-111.9c0.6-2.6,1.2-4.9,1.2-4.9L439.2,93l0.2,0.1l25.5,9.9c0.8,0.3,1.5,0.9,2,1.7l14.1,22.6
	c0.2,0.3,0.3,0.5,0.4,0.8l39.3,112.1c3.6,22.2-9.1,24.9-11,25.8l-75.1,18.3c-1.9,0.9-2.9,3.1-2.1,5.1l2.7,16.2
	C435.4,305.6,444.3,394,444.3,394z"/>
<path class="st4" d="M317.3,67.5c0,0,29.5,101.4,29.5,116.9s13.7,208.4,6,217.6c-7.8,9.2-33.8,1.6-47.4,1.6s-32.6-7.9-32.6-7.9
	c-6.7-1.1-11.2-7.5-10-14.1c0-0.3,0.1-0.5,0.2-0.8l11.8-86.9l-4.5-54l-9.3-60.2c0,0-98.5,62.4-101.8,61.8
	c-21.1-3.8-30.3-26.4-30.3-26.4l-16-95.1c0,0,25-34.2,26.2-35c4-3,37.5,76.7,37.5,76.7l55.1-55.3L317.3,67.5z"/>
<path class="st5" d="M340.8,110.1l18.3-0.1c0,0,6.4,73,6.2,75.2c-5.3,55.4-2,48-1.8,49.2s-12.6,16-12.6,16s-2.5-16.1-3.2-18.2
	s-9.4-18.5-11.2-48C336.4,182.4,340.8,110.1,340.8,110.1z"/>
<path class="st6" d="M335.9,101.1c0.9-1.8,6.7-13.2,8.9-15.3c1.7-1.6,11.8,0,11.8,0l8.9,14.2c0,0-3.7,9.6-6.6,11
	c-1.5,0.7-8.8,0.4-17.2,0C339.4,110.8,336.7,101.8,335.9,101.1z"/>
<path class="st7" d="M378.9,53.2l7.8,12L367.5,108c0,0-7.8-18-11-22.1C355.1,84,378.9,53.2,378.9,53.2z"/>
<path class="st8" d="M331.2,206.5l6.6,120.1c0.3,4.6,4.1,8.1,8.7,7.9l88.5-4c4.2-0.2,7.6-3.5,7.9-7.6L453,205.5
	c0.4-4.9-3.5-9.1-8.4-9.1l-105.2,1.3C334.7,197.8,330.9,201.8,331.2,206.5z"/>
<path class="st7" d="M324,53.2l-7.8,10.5l18,44.2c0,0,7.1-18,11.8-22.7C347.7,83.7,324,53.2,324,53.2z"/>
<path class="st0" d="M372.3,280.3L354.5,268c-0.4-0.3-0.8-0.4-1.2-0.5l-15.1-3.7c-2.8-0.7-5.2,2-4.3,4.7l0.4,1.1
	c0.3,1,1,1.7,1.9,2.2l7.8,3.6c0.6,0.3,1.2,0.7,1.5,1.3l0,0c1.6,2.4-0.1,5.6-3,5.6l-3.6,0.1c-2,0.1-3.7-1.5-3.7-3.5l-0.1-3.5
	c-0.1-1.8-1.4-3.2-3.1-3.5l-1.3-0.2c-1.3-0.2-2.5,0.3-3.4,1.3l-9,11.2c-0.6,0.8-0.9,1.8-0.8,2.8l3.9,26.4c0.2,1.3,1.1,2.5,2.4,2.9
	l15.8,5.6c0.9,0.3,1.9,0.3,2.8-0.2l32.5-15.9c0.2-0.1,0.3-0.1,0.5-0.2l9.5-3c0.1,0,0.2,0,0.2-0.1l14.6-3.6c2.6-0.6,3.7-3.8,2-5.9
	L390,278.6c-1-1.2-2.7-1.7-4.2-1.1l-6,2.4c-0.3,0.1-0.5,0.2-0.8,0.2l-4.2,0.6C374,281,373.1,280.8,372.3,280.3z"/>
<path class="st4" d="M372.5,279.3c2.7,4.2,13.3,30.5,16.1,30.2c90.6-11.1,121.6-38.5,121.6-38.5l0.2-0.1c6.2-3.7,10-10.4,10.2-17.6
	l0.3-12.2c0,0-21.8-19.2-24.1-19.2s-39.3,9.7-42.7,9.3S372.5,279.3,372.5,279.3z"/>
<path class="st4" d="M422.2,307l-35.3,4.1c-0.3,0-0.7-0.1-0.8-0.4c-2.5-4.1-20.3-34.4-19.2-36c1.1-1.6,21.4-7.3,25-8.4
	c0.3-0.1,0.7,0,0.9,0.3l30,38.9C423.2,306.2,422.9,307,422.2,307z"/>
</svg>
