<?xml version="1.0" encoding="utf-8"?>
<!-- Generator: Adobe Illustrator 26.0.3, SVG Export Plug-In . SVG Version: 6.00 Build 0)  -->
<svg version="1.1" id="Calque_1" xmlns="http://www.w3.org/2000/svg" xmlns:xlink="http://www.w3.org/1999/xlink" x="0px" y="0px"
	 viewBox="0 0 588 387" style="enable-background:new 0 0 588 387;" xml:space="preserve">
<style type="text/css">
	.st0{fill:#C9C9C9;}
	.st1{fill:#CA9072;}
	.st2{fill:#B28079;}
	.st3{fill:#D3D3D3;}
	.st4{fill:#B7B7B7;}
	.st5{fill:#353535;}
</style>
<polygon class="st0" points="326,41.2 251.8,41.2 251.9,10.1 326.1,8.7 "/>
<path class="st1" d="M394,87.7c-0.6,38.4-13.2,39.2-23.9,48.3c-12.6,10.8-8.3,50-17.2,64c-2.5,3.8-11.4,10.1-15.8,9.1
	c-12.5-2.9-24-30.7-34.8-37.7c-6.3-4.1-23.6-3.6-30.2,0c-11.2,6.2-22.3,34.9-34.8,37.7c-4.4,1-13.3-5.2-15.8-9.1
	c-8.9-14-4.6-53.2-17.2-64c-10.7-9.1-20.2-6.9-20.9-45.3c-0.4-26.6,19-34.3,19-34.3l40.1-19.9c2.6-1.3,5.1-2.9,7.4-4.9
	c0.7-0.6,1.3-1.2,2-1.8c0.2-0.2,0.4-0.4,0.7-0.6c0,0,0,0,0-0.1c5.6-5.8,9.3-13.4,9.2-21.3L261.1,1h52.5l0.1,5.3v0.8v4.2
	c0,0.5,0.1,1,0.1,1.5c0.2,1.9,0.6,3.8,1.2,5.7c0.8,2.5,1.9,4.8,3.3,7c2.7,4.2,6.5,7.6,11.2,9.9L370,55.5c1,0.5,2.1,1,3.2,1.3
	C380.2,59.2,394.4,64.4,394,87.7z"/>
<path class="st1" d="M388.2,59.6c24.6,12.8,37.3,42.3,37.3,42.3s30.9,54.1,41.5,71.9c4.9,8.4,15.6,25.8-5,38.8l0,0
	c-17,10.8-30.2-4-35.8-11.5c-11.3-15.4-31-49-44.5-62.1c-10.1-9.8-29.6-20.8-34.6-44.4c0,0-6.2-18.9,9.4-31.4l0.6-0.5
	C365.8,55.6,378.1,54.3,388.2,59.6L388.2,59.6z"/>
<path class="st1" d="M222.3,58.5l-0.7-0.4c-17.5-9.8-32.6,3.1-32.6,3.1c-19.9,13.5-22.9,35.7-28.1,48.8c-7,17.5-30.8,48.3-40.8,64.6
	c-5,8-13.6,25.7,2.8,37.5l0,0c19.9,14.2,31.9-2.1,37.9-9.9c12.6-16.5,51.1-65.4,51.1-65.4s22.6-22.9,25.2-50.5
	C238.1,74.9,232.3,64,222.3,58.5z"/>
<path class="st2" d="M315.3,18.5l-1,1.2c-5.2,6.3-28.8,35-41.8,44.3c-3.2,2.3-5.7,3.4-7.2,2.7c-5.7-2.7-13-27.4-15.2-35.1
	c0.7-0.6,1.3-1.2,2-1.8c0.1,0,0.1,0,0.2-0.1c0.1-0.2,0.3-0.4,0.5-0.5c0,0,0,0,0-0.1c0.2-0.2,0.4-0.5,0.5-0.7l0.1-0.1
	c3.3-4.5,5.5-9.7,6.7-15.2c0-0.2,0.1-0.4,0.1-0.6c0.3-1.4,0.5-3,0.7-4.8c0.1-0.7,0.1-1.4,0.2-2.2c0.1-1.4,0.2-2.9,0.3-4.5H314v11.2
	l0.1,0.7V13l0.1,0.7l0.9,4.6L315.3,18.5z"/>
<path class="st3" d="M469.7,172.7c-0.5-1.2-1.1-2.2-1.5-3.3l-31.9-50.1c-1.1-1.8-2.1-3.7-2.9-5.6c-2.3-5.3-5.9-10.3-9.1-15.1L411,78
	c-5.4-8.3-13.3-14.8-22.7-18.8l-63.4-26.5L292,101.2l-32-69.8l-65.7,27.5c-9.8,4.1-18,11-23.4,19.8L162.2,93
	c-7.3,11.8-14.9,28-23.5,40l-22,39.6c-5.4,13.3,19.7-8.1,29.5-0.2c9.9,7.9,10.7,41.2,19.1,31.6c0.1-0.1,0.3-0.3,0.3-0.4l43.5-61
	l5.1,77.8c0.1,10.1-12.9,26.8-14.1,36.8l-17.6,138.9c-1.5,12,6.7,23,18.9,25.6c0,0,66.7,17.5,89.6,18.4
	c23.6,0.9,93.8-12.1,93.8-12.1c0.1,0,0.3,0,0.3,0c13.2-1.9,22.2-13.7,20.3-26.5l-22.1-145.6c-1.8-12-19.3-30.9-19.2-42.9
	c0.3-28.3,16.8-69.1,16.8-69.1l34.5,61c9.1,9.5,8.2-24.7,18.1-33.4C442.8,163.1,475.6,185.4,469.7,172.7z"/>
<path class="st3" d="M251.9,10.1l-10.5,24.7l-55.9,24.7L206.9,175c1.6,6.5,4.4,12.6,8,18.1l4.1,6.2l135.6,1.9l6.1-9.4
	c3.4-5.1,5.9-10.9,7.5-16.9l21.7-118.6l-58.5-21.5l-5.2-26.2l-40.5,80.6L251.9,10.1z"/>
<g>
	<path class="st4" d="M326,9c-31.1,63.7-64,127.3-98.1,189.4C259,134.6,291.9,71,326,9L326,9z"/>
</g>
<g>
	<path class="st4" d="M186.2,63.4c9.6,30.2,12,67.7,18.3,98.6c-9.6-30.1-11.1-62.1-17.5-93.2L186.2,63.4z"/>
</g>
<g>
	<path class="st4" d="M389,61.5c-6.3,30.3-4.6,69.6-14.2,99.1C381.1,130.4,379.4,90.9,389,61.5L389,61.5z"/>
</g>
<g>
	<path class="st5" d="M360.7,236.9H216.2c-3.1,0-5.7-2.4-5.7-5.7v-17.1c0-3.1,2.4-5.7,5.7-5.7h144.5c3.1,0,5.7,2.4,5.7,5.7v17.1
		C366.2,234.3,363.8,236.9,360.7,236.9z"/>
	<path class="st5" d="M303.1,238.5h-18.1c-5.8,0-10.6-4.7-10.6-10.6v-12.7c0-5.8,4.7-10.6,10.6-10.6h18.1c5.8,0,10.6,4.7,10.6,10.6
		v12.7C313.9,233.7,309.1,238.5,303.1,238.5z"/>
	<path class="st5" d="M288.5,222.7l-44.8,49.7c-2.3,2.4-2.1,6.3,0.3,8.6l7.8,7.5c2.6,2.6,6.9,2.1,9.2-0.8l38.9-51.9l-16.4-2
		l23.4,44.5c1.7,3.2,6,4.3,9,2.1l8.6-6c2.6-1.8,3.4-5.4,1.8-8.1l-28.9-49.9L288.5,222.7z"/>
</g>
<path class="st1" d="M472.6,200.6c-2.7,17.3-23.3,19.7-30.9,20s-22.8-2.4-30.4-3.8c-19.3-3.5-51.3-11.9-70.2-15.1
	c-12.5-2.1-19-2.8-19.8-11.1c-0.7-7.6,11.4-9.7,16.2-10.6c19.6-3.8,57.8-11.5,78.8-12.1c8.6-0.2,26.2,0.9,34.5,3.5
	C473.9,178.9,473.4,195.6,472.6,200.6z"/>
<path class="st1" d="M115.1,199.2c2.1,17.3,22.6,20.5,30.2,21.1c7.6,0.7,22.9-1.6,30.5-2.7c19.4-2.8,51.7-10,70.7-12.6
	c12.5-1.6,19.1-2.2,20.3-10.4c1-7.5-11.1-10.1-15.8-11.2c-19.4-4.5-57.3-13.6-78.3-14.8c-8.6-0.6-26.2,0.1-34.6,2.3
	C114.5,177.5,114.5,194.1,115.1,199.2z"/>
<path class="st1" d="M242.6,199l-2.7-7.5c-0.2-0.3-0.2-0.8-0.4-1.1c-1-4.5,3.8-7.1,3.8-7.1s5.7-0.9,7.9-2
	c2.1-1.1,10.3-10.6,10.3-10.6c2.2-1.9,9.1-3.7,12-5.7c0.9-0.6,3.1-1.9,4.2-1.9l13.5-2.4c1.4,7-4.1,8.8-12.2,9.8
	c-2.4,0.3,5.6,1.3,5.6,1.3l5.6-1c2.6,1.1,3.5,2.5,3.6,5.5l-1.3,18.3c0.2,2.5-0.7,5-2.4,6.9l0,0c-1.2,1.2-2.9,2-4.7,2.1l-21.2,0.4
	c-4,0.1-8-0.4-11.7-1.8L242.6,199z"/>
<path class="st1" d="M285,169.6l-5.8,0.2l-12.5,7.3l-1.4,2.4l-8.2,5l3.7-0.7c3-0.6,6.1,0.4,8.2,2.6l1,1.1l-1.7-6.9l10.9-7.8l10.9-2
	L285,169.6z"/>
<path class="st1" d="M343.8,199.6l2.7-7.5c0.2-0.3,0.2-0.8,0.4-1.1c0.9-4.4-1.9-8.8-6.3-9.8l0,0c0,0-3.1,1.8-5.3,0.6
	c-2.1-1.1-10.3-10.6-10.3-10.6c-2.2-2-9.1-3.8-12-5.8c-0.9-0.6-3.1-1.9-4.2-1.9l-13.5-2.4c-1.4,7.1,4.1,8.8,12.2,9.8
	c2.4,0.3-5.6,1.3-5.6,1.3l-5.7-0.9c-2.6,1.1-3.5,2.5-3.6,5.5l1.3,18.3c-0.2,2.6,0.7,5.1,2.4,7l0,0c1.2,1.2,2.9,2,4.7,2.1l21.2,0.5
	c4,0.2,8-0.5,11.7-1.8L343.8,199.6z"/>
<path class="st1" d="M301.5,170.3l5.8,0.2l12.4,7.2l1.4,2.4l8.2,5l-3.7-0.7c-2.9-0.6-6.1,0.4-8.2,2.6l-1,1.1l1.7-6.9l-10.9-7.9
	l-10.9-2L301.5,170.3z"/>
</svg>
