<?xml version="1.0" encoding="utf-8"?>
<!-- Generator: Adobe Illustrator 26.0.3, SVG Export Plug-In . SVG Version: 6.00 Build 0)  -->
<svg version="1.1" id="Calque_1" xmlns="http://www.w3.org/2000/svg" xmlns:xlink="http://www.w3.org/1999/xlink" x="0px" y="0px"
	 viewBox="0 0 588 387" style="enable-background:new 0 0 588 387;" xml:space="preserve">
<style type="text/css">
	.st0{fill:#7A919E;}
	.st1{fill:#9D9B88;}
	.st2{fill:#CA9072;}
	.st3{fill:#2E858E;}
	.st4{fill:#9F9D8A;stroke:#000000;stroke-width:3;stroke-miterlimit:10;}
	.st5{fill:#25686B;}
	.st6{fill:#E8E0BF;}
	.st7{fill:#FA9980;}
	.st8{fill:#B7826A;}
	.st9{fill:#3B9E9E;}
</style>
<path d="M97.5,395.9h0.1H97.5z"/>
<polygon points="97.6,395.9 97.7,395.9 97.7,395.9 "/>
<path d="M97.5,395.9h0.1H97.5z"/>
<polygon points="97.6,395.9 97.7,395.9 97.7,395.9 "/>
<polygon class="st0" points="182.3,70.6 183.3,37.3 252.9,36.6 252.4,70.6 "/>
<path d="M27.4,399.2L27.4,399.2L27.4,399.2z"/>
<polygon points="27.5,399.2 27.6,399.2 27.6,399.2 "/>
<path d="M27.4,399.2L27.4,399.2L27.4,399.2z"/>
<polygon points="27.5,399.2 27.6,399.2 27.6,399.2 "/>
<path class="st1" d="M235.6,217.4c12.4,8.1,25.7,40.2,40,43.4c5.1,1.2,15.4-6,18.2-10.5c10.2-16.1,5.3-61.2,19.8-73.6
	c12.2-10.5,41.7-4.5,42.5-48.7c0.5-26.8-31-39.7-38.5-42.3c-1.3-0.5-2.4-0.9-3.7-1.5l-46.6-23.1c-11-5.4-18.1-16.7-18.2-28.9
	l-0.2-20.9l-31.1,2.4l-30.5-2.4l0.1,18.1c0.1,13.9-7.7,26.6-20.1,32.8L121.2,85c0,0-40.7,12.3-40.3,42.9
	c0.7,44.2,30.1,38.2,42.5,48.7c14.5,12.4,9.5,57.5,19.8,73.6c2.9,4.4,13.1,11.6,18.2,10.5c14.4-3.3,27-36.4,40-43.4
	C208.5,213.3,228.4,212.7,235.6,217.4z"/>
<polygon class="st2" points="219.9,5.2 248.6,9.8 249.8,76.5 218.1,113.9 186.9,76.5 188,9.8 "/>
<path class="st3" d="M289.5,135.9c13.7,28.8,47.1,44.6,47.1,44.6s61,37.7,81,50.6c9.4,6.1,29,19.1,44.9-4.1l0,0
	c13-19.1-3.2-35-11.7-41.7c-17.3-13.6-55.1-37.5-69.6-53.7c-10.8-12.1-26.8-39.2-53.7-45.9c0,0-17.4-3.6-32.4,13.8l-0.6,0.7
	C285.8,109.9,283.8,124,289.5,135.9z"/>
<path class="st4" d="M137.4,105.3c20.5,24.4,20.9,61.4,20.9,61.4s9,71.1,12.3,94.7c1.6,11.2,5.3,34.3-22.4,39l0,0
	c-22.8,3.9-30.4-17.5-33-28c-5.2-21.4-11.3-65.7-20-85.7c-6.4-14.8-22.3-35.2-17.3-62.5c0,0,1.7-22.8,23.8-29.2l0.9-0.2
	C115.4,91.1,129,95.3,137.4,105.3L137.4,105.3z"/>
<path class="st3" d="M122.5,319.8l1.8-152.1l-23.6-75.6l74.8-38.7l49.2,60.4l41.8-56.6L341,91.8l-12,116.2l-30.6,83l15.2,12.4
	c5.5,7.2,7.1,58.8,4,67.3l0,0c-1.8,4.1-6,6.7-10.4,6.6l-86.8,8.7c-15.8,1.6-31.6,0.3-46.9-3.6L129.6,371c-2.3,0-4.3-1.7-4.4-4
	l-0.3-5.4C123.2,358.2,122.5,323.4,122.5,319.8z"/>
<path class="st5" d="M289.6,246.7l1.4,11.7l-9.9,6.6l1.3,3.6c-30.6,15.1-107,52.1-107.7,52.4c-1.8,0.7-12.4,36.6-18.5,36.6
	c-10.1,0-33.8-45.1-33.8-45.1s-2.4-16,0.2-15.4c2.6,0.6,141.5-52.8,144.7-52C270.5,245.7,289.6,246.7,289.6,246.7z"/>
<path class="st6" d="M284,130.6l233.5-27.5c6.7-0.8,12.8,4,13.5,10.7l18.2,154.4c0.8,6.7-4,12.8-10.7,13.5l-233.5,27.5
	c-6.7,0.8-12.8-4-13.5-10.7L273.3,144C272.5,137.5,277.3,131.4,284,130.6z"/>
<path class="st2" d="M528.2,271.5l2.5-1.2c3.9-1.8,8.6-0.1,10.4,3.8l7.5,16.2c1.8,3.9,0.1,8.6-3.8,10.4l0,0
	c-3.9,1.8-8.6,0.1-10.4-3.8l-8.6-18.8C524.7,275.5,525.7,272.7,528.2,271.5z"/>
<path class="st5" d="M461.7,290.6l46.6-7.7l-2.4,24c-0.2,2.3-2.3,4-4.6,3.8c-0.2,0-0.5,0-0.6-0.1l-11-2.8
	c-7.2-1.8-13.9-5.3-19.6-10.2L461.7,290.6z"/>
<path class="st2" d="M489,271.1l10.7-5.1c9.7-4.5,21.2-0.3,25.8,9.3l0,0l2.5,5.5c4.3,9.2,0.3,20-8.7,24.3l0,0l-9.2,4.4
	c-5.9,2.8-12.8,0.2-15.5-5.5l0,0l-9.8-20.9C482.6,278.4,484.5,273.1,489,271.1L489,271.1L489,271.1z"/>
<path class="st2" d="M282.4,218.8l14.5,22.4c0.2,0.5,0.8,0.7,1.3,0.6l12.4-2.4l27.8-4.3c7-1,12.8-6,15.2-12.7l7.5-21.4
	c0.1-0.5,0.6-0.8,1-0.8l33.5-4.9c4.8-0.8,8.3-4.8,8.4-9.8v-1.4l-38.2,2.8c-0.9,0.1-1.6-0.8-1.3-1.7l0.8-2.1c0.3-0.8-0.3-1.7-1.3-1.7
	l-18.5,0.3h-12c-6.6,0-12.9,1.8-18.4,5.3l-10.7,6.4c-0.1,0.1-0.2,0.1-0.3,0.2c-2.2,2.4-3,3.7-7.2,9.5l-6.2,8.6"/>
<path class="st2" d="M120,276.9c-4.4-22.4,19.9-34.6,29-38.5s29.2-7.4,39.1-9.1c25.3-4.4,68.5-8.4,93.2-13c16.2-3,24.7-5.1,29.5,4.8
	c4.3,9-4.7,15.8-10.2,19c-22.4,13.3-70.9,41.5-96.6,51.7c-10.6,4.1-32.7,10.6-44.1,11C128.2,304.2,121.3,283.5,120,276.9z"/>
<path class="st3" d="M130.8,79.5c0,0-49.7,18.8-58.4,30.3c-8.4,11-3.6,56.3-3.6,56.3s19.1,108.3,43.5,133.5
	c5.8,5.9,25.8,11.4,36.1,13.9c3.9,0.9,8.1,0.6,11.7-1.2l116.1-52.5l-9.8-46l-104.8,13.7l-20.7-77.8"/>
<polygon class="st5" points="215.2,90.8 224.5,113.9 211.8,103.4 196.7,119 "/>
<polygon class="st5" points="224.5,113.9 229.1,90 250.6,116.8 235.2,104.7 "/>
<g>
	<path class="st5" d="M140.6,146.9c0.2,0.2,0.3,0.5,0.5,0.8c0.2,0.5,0.7,2.1,0.9,2.5c5.1,16.9,9.5,35.1,13.8,52.1l3.5,13.9
		c0.9,6.4,5.3,10.8,12.1,9.4l3.6-0.5c14.6-2.1,63.1-8.2,78.5-10.1c2-0.2,5.2-0.8,7.1-0.8c3.8,0,7.2,3,7.8,6.7
		c1.6,7.4,6.3,31.1,7.9,38.8c-1.2-5.4-6.8-30.4-7.7-35.1l-0.8-3.6c-0.6-3.5-3.8-6.2-7.4-6.2c-2,0.1-5.2,0.6-7.1,0.8
		c-15.6,2.1-63.5,8.5-78.5,10.4l-3.6,0.5c-7,1.4-11.9-3.2-12.8-10l-3.5-13.9c-3.7-14.5-9.2-38.1-13.2-52.2l-0.6-1.7l-0.3-0.8
		C140.9,147.4,140.8,147.1,140.6,146.9L140.6,146.9z"/>
</g>
<path class="st2" d="M522.6,273.5c0,0,2.9,1.2,6.3,0.7s13.1,24.3,13.1,24.3l-3.7,2.4c0,0-7.8-3.7-17.3,3.3
	C522.2,296.9,522.6,273.5,522.6,273.5z"/>
<path d="M27,398.8h0.1H27z"/>
<polygon points="27.2,398.8 27.3,398.8 27.3,398.8 "/>
<path d="M27,398.8h0.1H27z"/>
<polygon points="27.2,398.8 27.3,398.8 27.3,398.8 "/>
<path class="st7" d="M34.1-39.3l-0.5-0.1c0.1,0.3,0.2,0.6,0.5,0.9V-39.3z"/>
<path class="st8" d="M248.6,48.2l-0.7-37.6c-0.1-0.3-0.2-0.6-0.5-0.9l-28.3-4.5l-31.9,4.6l-1,61.8c6.1,3.1,13,4.8,20.4,4.8
	C225.5,76.4,241.7,64.8,248.6,48.2z"/>
<polygon class="st9" points="171.8,58.4 183.3,37.3 215.2,90.8 196.7,119 "/>
<polygon class="st9" points="268.9,60.6 252.9,36.6 229.1,90 250.6,116.8 "/>
</svg>
