<?xml version="1.0" encoding="utf-8"?>
<!-- Generator: Adobe Illustrator 26.0.3, SVG Export Plug-In . SVG Version: 6.00 Build 0)  -->
<svg version="1.1" id="Calque_1" xmlns="http://www.w3.org/2000/svg" xmlns:xlink="http://www.w3.org/1999/xlink" x="0px" y="0px"
	 viewBox="0 0 588 387" style="enable-background:new 0 0 588 387;" xml:space="preserve">
<style type="text/css">
	.st0{fill:#CA9072;}
	.st1{fill:#293C51;}
	.st2{fill:#B7826A;}
	.st3{fill:none;stroke:#000000;stroke-width:3;stroke-miterlimit:10;}
	.st4{fill:#473415;}
	.st5{fill:#472E1D;}
	.st6{fill:#277A9B;}
	.st7{fill:#22677C;}
	.st8{fill:#AFAFAF;}
	.st9{fill:none;}
	.st10{fill:#898989;}
	.st11{fill:#606060;}
</style>
<path class="st0" d="M117.4,228c19.9-0.1,26.1-23,27.8-31.4s1.1-26.2,0.9-34.9c-0.7-22.3-4.8-59.8-5.1-81.6
	c-0.2-14.4,0-21.9-9.2-24.2c-8.4-2.1-12.9,11.3-14.7,16.5c-7.5,21.4-22.7,63.2-26.8,86.8c-1.7,9.7-3.3,29.7-1.8,39.4
	C92.8,225.8,111.6,228,117.4,228z"/>
<path class="st0" d="M126.6,67.6c-3.3-1.2-7.6-5-7.2-13.4c0,0-0.9-26.9,1.6-35c1.1-3.6,4.5-13,8.1-12.4c10,1.8,25.7,14.3,32.3,25.9
	c2,3.5-1.2,12.2-3.3,15.3c-2.3,3.4-10.2,6.3-13.1,8.9c-1.6,1.5-3.1,3.2-4.5,4.9C136.9,66.2,131.1,69.2,126.6,67.6z"/>
<path class="st0" d="M495.5,164.7c-18.5-7.2-32.7,11.8-37.4,19s-10.7,23.9-13.6,32.1c-7.5,21-17.5,57.3-25.2,77.8
	c-5,13.5-8.1,20.4-0.3,25.9c7,5,16.1-5.8,19.7-9.9c14.8-17.2,44.3-50.4,56.8-70.9c5.1-8.4,14-26.4,16.1-36
	C517.6,175.8,501,166.8,495.5,164.7z"/>
<path class="st0" d="M422.2,316c2,3.2,3.1,9-3,14.8c0,0-17.6,20.2-25.4,24.3c-3.5,1.8-12.8,6.2-15.4,3.3
	c-7.3-8.4-12.1-28.6-9.7-41.7c0.7-3.9,9.4-8,13.3-8.8c4.3-0.8,13,2.6,17.3,2.8c2.4,0,4.8-0.1,7.2-0.4
	C412.4,309.8,419.4,311.6,422.2,316z"/>
<polygon class="st0" points="412.4,303.5 408.3,310.2 411.6,322.7 415.6,334.8 421.2,328.8 431.3,321.8 "/>
<path class="st1" d="M411.2,305.4l5.3-9c1.3-2.1,4.2-2.5,5.9-0.6l14.8,15.8c1.3,1.4,1.3,3.6,0.1,5l-6.3,7.2
	c-1.4,1.6-3.9,1.7-5.5,0.1l-13.7-14C410.5,308.7,410.3,306.9,411.2,305.4z"/>
<path class="st0" d="M417.1,112.8c-0.6,38.4-26.2,33.2-36.9,42.3c-12.6,10.8-8.3,50-17.2,64c-2.5,3.8-11.4,10.1-15.8,9.1
	c-12.5-2.9-24-30.7-34.8-37.7c-6.3-4.1-23.6-3.6-30.2,0c-11.2,6.2-22.3,34.9-34.8,37.7c-4.4,1-13.4-5.2-15.8-9.1
	c-8.9-14-4.6-53.2-17.2-64c-10.6-9.1-36.2-3.9-36.9-42.3c-0.4-26.6,35-37.3,35-37.3l40.1-19.9c2.6-1.3,5-2.9,7.1-4.8
	c0.8-0.7,1.6-1.5,2.3-2.3c0.2-0.2,0.4-0.5,0.6-0.7c4-4.7,6.5-10.4,7.2-16.4c0.2-1.4,0.3-2.8,0.2-4.2l0.4-2.8l0.4-3l0.2-1.1h52.6
	l0.1,4.6v1.5v3.2c0,0.3,0,0.7,0,1l0,0c0,0.6,0.1,1.3,0.2,1.9c0.2,1.5,0.5,3.1,0.9,4.6c2.2,7.7,7.6,14,14.7,17.6L380,74.8
	c1,0.5,2.1,1,3.2,1.3C390.3,78.4,417.5,89.5,417.1,112.8z"/>
<path class="st2" d="M325.3,37.2l-1,1.2c-5.1,6.3-28.8,35.1-41.8,44.3c-3.2,2.3-5.7,3.4-7.2,2.7c-6.8-3.3-14.8-35.1-14.8-35.1
	l0.1-0.1c0.6-0.6,1.2-1.2,1.7-1.9c0.3-0.4,0.7-0.8,1-1.3v-0.1c3.3-4.5,5.5-9.7,6.7-15.2c0-0.2,0.1-0.4,0.1-0.6
	c0.4-2.3,0.7-4.7,0.9-7c0.1-1,0.1-2,0.2-3l0.1-1.1H324v4.2v6.7l0.1,0.8l0.1,0.7l0.9,4.6L325.3,37.2z"/>
<path class="st3" d="M359.7,119.7c11.9,25,40.9,38.8,40.9,38.8s53,32.8,70.4,44c8.2,5.3,25.2,16.6,39-3.6l0,0
	c11.3-16.6-2.8-30.4-10.2-36.2c-15-11.8-47.9-32.6-60.5-46.7c-9.4-10.5-19.8-30.3-43.1-36.2c0,0-18.6-6.9-31.8,8.3l-0.5,0.6
	C356.5,97.2,354.8,109.4,359.7,119.7L359.7,119.7z"/>
<path class="st3" d="M237.1,120c-8.5,26.3-35.5,43.8-35.5,43.8s-48.2,39.4-64.1,52.8c-7.5,6.3-22.8,19.7-39.1,1.5l0,0
	c-13.4-15-1.2-30.5,5.4-37.2c13.3-13.7,43.2-38.6,53.9-54.2c7.9-11.6,15.6-32.7,38-41.5c0,0,17.5-9.3,32.6,4l0.6,0.5
	C237.4,97.2,240.6,109.1,237.1,120z"/>
<polygon class="st4" points="219.2,324.6 220.7,302.1 375.7,302.1 377.7,321.6 "/>
<circle class="st5" cx="366.4" cy="295.4" r="4.7"/>
<path class="st6" d="M382.4,280.3l7.7-49.9c0.1-0.4,0.1-0.9,0.1-1.3l0.9-57.6c0-2.6,2.9-4.3,5.2-3l45.6,24.6c4,2.2,5.9,6.9,4.5,11.2
	l-22.3,70c-0.3,0.9,0.1,1.8,1,2.2l33.9,15.3c0.8,0.3,1.7,0.1,2.2-0.6l54.6-80.7c3.1-6.9,4.8-14.3,4.7-21.9c0-3.2-0.5-6.8-0.9-9.8
	c-0.6-4-2.6-7.7-5.6-10.4l-87.3-78.7c-9.1-8.2-19.9-14.2-31.6-17.6l-40.9-12c-2.4-0.7-5-0.4-7.1,0.7L303.8,84
	c-2.9,1.5-6.3,1.5-9.1-0.1l-43.9-24.7c-2.7-1.5-5.9-1.6-8.6-0.3l-39.9,18.5c-8.7,4-16.7,9.6-23.5,16.4l-12,12.1
	c-0.2,0.2-0.4,0.4-0.6,0.7l-20.8,27.9l0.4-23.6c0.2-2-1.5-3-3.3-2.4l-40.5,10.3c-0.8,0.2-1.6,0.5-2.3,0.9c-2.6,1.4-4.4,4-4.9,7
	l-11.9,79.2c-0.2,1.3,0.6,5.1,1.7,9.4c2.5,9.3,10.1,16.3,19.6,17.9c6.3,1.1,12.8,1.9,14.5,0.8l84-53.7c2.2-1.4,5.1,0.1,5.2,2.7
	l2.3,59.4l2.5,31.5"/>
<path class="st1" d="M212.7,273.8l1.2,14.5c0,0.2,0,0.4,0,0.6l-13,91.1c0.2,9.2,7,16.7,15.8,18c3.3,0.5,6.5,1,9.7,1.7l40.6,6.2
	c24.9,5.8,50.9,5.1,75.5-2.1l39.5-8.9c11.3-0.3,19.7-10.5,17.9-21.6l-17.4-90c-0.2-1-0.2-2,0-3"/>
<path class="st1" d="M220.5,60.8l2.6-1.1c3.8-1.6,8.1,0.4,9.2,4l20.7,64.9c0.4,1.5-0.4,3.1-2,3.6l-6.5,2.1c-1.7,0.5-3.4-0.3-4-1.9
	l-23.7-64C215.5,65.6,217.2,62.2,220.5,60.8z"/>
<path class="st1" d="M390.5,66.8l-1.1-0.4c-4.1-1.8-8.9,0.4-10.4,4.6l-20.1,64.4c-0.6,1.9,0.4,3.9,2.4,4.6l5.3,1.8
	c2,0.7,4.3-0.3,5-2.3l23.1-63.6C395.9,72.2,394,68.3,390.5,66.8z"/>
<circle class="st1" cx="250.6" cy="140.8" r="5.3"/>
<circle class="st1" cx="361.1" cy="148.2" r="5.3"/>
<path class="st1" d="M240.2,155.8l128,6.7c3.5,0.1,6.5,2.7,7.5,6.1l8.6,33.5c0.2,0.8,0.4,1.7,0.6,2.5c0,0.3,0.1,0.5,0.1,0.8v67.1
	h-174l2.3-69.1c0-1.1,0.3-2.1,0.7-3.1l18.3-39.7C233.8,157.5,236.8,155.7,240.2,155.8z"/>
<path class="st1" d="M255.5,159.5l-9.5-0.6c-2.1-0.1-3.7-2-3.5-4.1l0.1-3.1c0.1-2.1,2-3.7,4.1-3.5l9.5,0.6c2.1,0.1,3.7,2,3.5,4.1
	l-0.1,3.1C259.5,157.9,257.7,159.5,255.5,159.5z"/>
<path class="st1" d="M362.1,169.6l-10.6-1.6c-2.3-0.3-4-2.4-3.5-4.8l0.7-5c0.3-2.3,2.4-4,4.8-3.5l10.6,1.6c2.3,0.3,4,2.4,3.5,4.8
	l-0.7,5C366.5,168.3,364.4,170,362.1,169.6z"/>
<path class="st6" d="M254.4,184.8l-2.7,31.9l35.3,10.8c9.4,2.8,19.4,3.5,29.1,2.1l36-5.5l1.4-32.5L254.4,184.8z"/>
<path class="st7" d="M254.4,184.5l-3.3,15.8l48.8,8.9c2,0.4,4.1,0.4,6.1,0.3l48.4-5v-16.6L254.4,184.5z"/>
<path class="st7" d="M383.5,285.1H212.2c-1.7,0-3-1.3-3-3v-16.6c0-1.7,1.3-3,3-3h171.3c1.7,0,3,1.3,3,3v16.6
	C386.5,283.8,385.1,285.1,383.5,285.1z"/>
<path class="st7" d="M205.8,277.7c0,0-20.8,58.2-15.4,63.8c5.4,5.6,59.2,11.7,63.9,8.1s10.7-67.7,10.7-67.7L205.8,277.7z"/>
<path class="st8" d="M232,302.6l-3.6,0.5c-1.1,0.1-2.1-0.6-2.2-1.7l-6.1-45.1c-0.1-1.1,0.6-2.1,1.7-2.2l3.6-0.5
	c1.1-0.1,2.1,0.6,2.2,1.7l6.1,45.1C233.9,301.4,233.1,302.4,232,302.6z"/>
<path class="st8" d="M236.2,303L236.2,303c-1.1,0-2-0.9-2-2v-35.6c0-1.1,0.9-2,2-2l0,0c1.1,0,2,0.9,2,2V301
	C238.1,302.1,237.3,303,236.2,303z"/>
<path class="st8" d="M241.8,302.8l-1.6-0.4c-1.1-0.3-1.7-1.3-1.5-2.4l5.8-24.3c0.3-1.1,1.3-1.7,2.4-1.5l1.6,0.4
	c1.1,0.3,1.7,1.3,1.5,2.4l-5.8,24.3C243.9,302.4,242.8,303.1,241.8,302.8z"/>
<path class="st6" d="M206.3,281.9c0,0-20.4,56.4-12.4,58.5s49.1,10.5,54.6,6.4c5.4-4.1,4.3-60.6,4.3-60.6L206.3,281.9z"/>
<path class="st0" d="M145.5,51l0.7,1.3c1.2,2.1,4.1,2.6,6,1.3l17.5-12.5c0.9-0.6,1.5-1.6,1.6-2.7l0,0c0.5-3.1-2.3-5.7-5.4-4.7
	l-3.9,1.2c-2.5,0.8-5.2-0.9-5.3-3.6l-0.3-3.2"/>
<path class="st9" d="M335.6,260.5c16.2,5.2,23.2,9.6,27,16.6c3.1,5.6,6,18.5,6.3,24.9c0.5,15.1-7.8,52.9-21.9,65.6
	c-14.4,12.9-84.8,12.9-99.2,0c-14.1-12.6-22.5-50.5-21.9-65.6c0.2-6.4,3.2-19.3,6.3-24.9c3.8-6.9,10.9-11.3,27-16.6
	c18.5-6,37.3-5,37.3-5S317.1,254.5,335.6,260.5z"/>
<polygon class="st0" points="140.7,70.9 141.4,58.8 129.3,55.6 119.2,48.9 119.2,57.1 115.9,75.7 "/>
<g>
	<path class="st10" d="M75.7,47.6l88.9,13c0.1,0,0.2,0,0.3,0.1c1.7,1.9,4.1,3.2,6.9,3.6c1,0.1,1.9,0.1,2.9-0.1
		c2.4,1.7,5.2,3.2,8.4,4.4c10.5,3.7,21.5-0.4,22.6-3.7c1.2-3.2-4.8-13.5-15.2-17.2c-3.2-1.1-6.4-1.8-9.2-1.9
		c-1.7-1.9-4.1-3.1-6.8-3.5c-0.8-0.1-1.5-0.1-2.2-0.1L91.9,0.5c-1.7-1-3.8-0.4-5.1,1l-1.5,2c-1.5,2-0.9,4.9,1.5,6l71.1,34.1
		c2.9,1.3,3,5.4,0.3,7l-0.7,0.5c-0.8,0.4-1.8,0.6-2.8,0.4L77,38.7c-2.1-0.3-4.1,1.1-4.6,3.1l-0.2,0.9C71.9,45.2,73.4,47.3,75.7,47.6
		z"/>
	<g>
		<path class="st11" d="M205.7,65c-4.3-1.3-9.1-3.1-13.2-4.7c-1.4-0.5-2.9-1.1-4.3-1.8l0.6-0.1c-1.7,1.2-4.1,2.8-5.7,3.9
			c-1.9,1.2-4,2.7-5.9,3.5c0.1,0,11.3-8.1,11.3-8C188.3,57.8,205.9,64.8,205.7,65L205.7,65z"/>
	</g>
</g>
<path class="st0" d="M130.9,11.5c0.2,0.2-3.8,18.7-7.7,25.2c-0.8,1.4-0.2,3.3,1.4,3.9l0.4,0.1c1.1,0.4,2.4-0.1,3-1l4.7-1.1
	c-0.7,1.4,0.1,3.1,1.6,3.6l0,0c1.2,0.5,2.4-0.1,3-1.1l2.9-1.4c-0.5,1.4,0.2,3,1.6,3.5l1,0.3c1.3,0.5,2.6-0.1,3.2-1.3l4.1-1.6
	c-0.4,1.4,0.4,2.8,1.7,3.3l1.9,0.7c1.4,0.5,3.2-0.5,3.6-1.8L159,40c3.9-6.4,1.4-14.8-5.5-17.9L130.9,11.5z"/>
</svg>
