<?xml version="1.0" encoding="utf-8"?>
<!-- Generator: Adobe Illustrator 26.0.3, SVG Export Plug-In . SVG Version: 6.00 Build 0)  -->
<svg version="1.1" id="Layer_1" xmlns="http://www.w3.org/2000/svg" xmlns:xlink="http://www.w3.org/1999/xlink" x="0px" y="0px"
	 viewBox="0 0 588 387" style="enable-background:new 0 0 588 387;" xml:space="preserve">
<style type="text/css">
	.st0{fill:#CA9072;}
	.st1{fill:#A8756C;}
	.st2{fill:#473415;}
	.st3{fill:#D3D3D3;}
	.st4{fill:#262521;}
	.st5{fill:#D34B1C;}
</style>
<path class="st0" d="M443,115.1c9.8,29.7,40.3,49.2,40.3,49.2s54.8,44.3,72.6,59.3c8.5,7.1,25.9,22.1,44.2,1.5l0,0
	c15-17.1,1.1-34.4-6.3-42c-15.1-15.4-49-43.4-61.1-61c-9-13.1-17.8-36.8-43.1-46.6c0,0-19.9-10.4-36.7,4.7l-0.7,0.6
	C442.5,89.5,439,103,443,115.1L443,115.1z"/>
<path class="st0" d="M67.6,300.5c-0.5-0.6-1-0.9-1.6-1.2c-4.2-1.6-20.3-7.5-23.3-7.3c-3.4,0.2-17.8,3.6-20.4,3.3
	c-2.6-0.3-18.7-6-19-4c-0.1,1.4-0.1,5.1-0.1,7.6c0,1.4,0.8,2.7,2,3.3l10.2,5c0.5,0.2,1,0.3,1.6,0.3l5.3,0.1c3.5,0.1,5,4.5,2.1,6.7
	l-12,9c-0.2,0.1-0.3,0.2-0.6,0.3c-3.2,1.6-30.7,15.6-32.6,16c-1.1,0.2-0.7,3.3,0,6c0.6,2.1,2.9,3.4,5,2.5l31.6-13.4
	c0.6-0.2,1,0.6,0.6,0.9l-30.4,23.9c-1.6,1.2-1.9,3.5-0.7,5.2l2.3,2.8c1.2,1.6,3.6,1.9,5.2,0.6l31.3-25c0.5-0.3,1,0.2,0.6,0.7
	l-26.6,29.7c-1.6,1.8-1.1,4.6,1.1,5.8l3.2,1.6c1.5,0.7,3.2,0.5,4.3-0.8l26.8-27.9c0.3-0.3,0.9,0.1,0.7,0.5l-13,23.1
	c-1.1,1.9-0.2,4.4,1.9,5.2c2.6,1,5.8,1.8,6.4,0.6c1.1-2.1,16.7-23.3,19-26.3c0.2-0.2,0.3-0.5,0.6-0.7l29.9-24.7
	c0.7-0.6,1.1-1.4,1.2-2.3l1.1-7.5c0.1-1-0.1-2-0.7-2.8L67.6,300.5z"/>
<polygon points="187.8,376.8 187.9,376.8 187.8,376.7 "/>
<polygon points="187.9,376.8 188,376.8 188,376.7 "/>
<polygon points="187.8,376.8 187.9,376.8 187.8,376.7 "/>
<polygon points="187.9,376.8 188,376.8 188,376.7 "/>
<path class="st0" d="M510.3,110.6c-0.7,43.4-29.6,37.5-41.7,47.8c-14.2,12.2-9.4,56.5-19.4,72.3c-2.8,4.3-12.9,11.4-17.8,10.3
	c-14.1-3.3-27.1-34.7-39.3-42.6c-7.1-4.6-26.6-4.1-34.1,0c-12.6,7-25.2,39.4-39.3,42.6c-5,1.1-15.1-5.9-17.8-10.3
	c-10.1-15.8-5.2-60.1-19.4-72.3c-12-10.3-40.9-4.4-41.7-47.8c-0.5-30,39.5-42.1,39.5-42.1L324.6,46c2.9-1.5,5.5-3.3,7.9-5.4
	c0.9-0.8,1.8-1.7,2.6-2.6l0.7-0.8V37c4.5-5.3,7.3-11.7,8.1-18.5c0.2-1.6,0.3-3.2,0.2-4.7v-3.2V5.5h60.9l0.1,5.6v1.7v3.6
	c0,0.3,0,0.8,0,1.1l0,0c0,0.7,0.1,1.5,0.1,2.1c1.4,10.8,8,20.2,17.8,25.1l45.7,22.7c1.1,0.6,2.4,1.1,3.6,1.5
	C480,71.7,510.7,84.2,510.3,110.6z"/>
<path class="st0" d="M406.1,60L375,96.7l-16.7-20l-14-16.7l0.8-47v-2.5l0.1-5.1h59.8v0.2l0.1,5.3l0,0v1.8l0.1,4.7v1.5l0.1,7.7
	L406.1,60z"/>
<path class="st1" d="M406.6,25.3l-1.1,1.4c-5.8,7.1-32.5,39.5-47.2,50c-3.6,2.6-6.4,3.8-8.1,3c-7.7-3.7-16.8-39.6-16.8-39.6
	s0.1,0,0.1-0.1c0.7-0.7,1.4-1.4,1.9-2.1c0.3-0.5,0.8-0.9,1.2-1.5l0.1-0.1c3.7-5.1,6.2-11,7.5-17.2c0-0.2,0.1-0.5,0.1-0.7
	c0.3-1.6,0.6-3.4,0.8-5.4c0.1-0.8,0.1-1.6,0.2-2.5c0.1-1.6,0.2-3.3,0.3-5.1h59.4v0.2v4.9V18l0.1,0.9l0.1,0.8l1,5.2L406.6,25.3z"/>
<path class="st0" d="M589.3,185.2c-19.8-10.6-38.3,8.6-44.6,15.9c-6.3,7.3-15.4,25.3-19.9,34.1c-11.4,22.5-27.8,61.8-39.3,83.6
	c-7.6,14.3-12,21.7-4.1,29c7.1,6.5,18.9-4.2,23.5-8.4c19.1-17.2,56.8-50.1,73.7-71.4c7-8.7,19.4-27.6,23.1-38.1
	C612.5,200.6,595.1,188.2,589.3,185.2z"/>
<path class="st0" d="M244.4,232.5c-11-16.9-36.6-9.4-45.7-6.2c-9.1,3.2-26.2,13.7-34.6,18.9c-21.3,13.1-85.3,54.1-108.9,61.1
	c-16.5,5,8.5,28.2,8.5,28.2s17.5-10.2,29-14.2c24.2-8.6,58.8-13,99.3-25.7c10.6-3.4,30.7-13.8,39.4-20.7
	C255.5,254.8,247.5,237.4,244.4,232.5z"/>
<path class="st0" d="M308.8,106.7c3.2,31.1-16.8,61.4-16.8,61.4s-32,62.7-42.3,83.7c-4.9,9.9-14.7,30.7-39.7,19.3l0,0
	c-20.7-9.5-15-30.9-11.3-40.9c7.6-20.2,27.2-59.5,31.1-80.5c2.9-15.6,1.4-40.9,20.4-60.2c0,0,13.9-17.5,35.5-10.6l0.9,0.2
	C298.8,83,307.6,93.8,308.8,106.7L308.8,106.7z"/>
<polygon points="193.4,374.8 193.5,374.6 193.4,374.6 "/>
<polygon points="193.5,374.6 193.7,374.8 193.7,374.6 "/>
<polygon points="193.4,374.8 193.5,374.6 193.4,374.6 "/>
<polygon points="193.5,374.6 193.7,374.8 193.7,374.6 "/>
<path d="M188.1,376.2h0.1H188.1z"/>
<polygon points="188.2,376.2 188.4,376.2 188.4,376.2 "/>
<path d="M188.1,376.2h0.1H188.1z"/>
<polygon points="188.2,376.2 188.4,376.2 188.4,376.2 "/>
<polygon class="st2" points="285.8,344.4 287.5,319 462.5,319 464.8,341 "/>
<path class="st3" d="M222.3,181.3l48.8,27c0.7,0.3,1.5,0.1,1.8-0.6l12.1-24.5c1.1-2.1,4.4-1.4,4.3,1.1l-2.4,67.6l-3,56l-3.6,39.5
	c-0.7,7.2,4.7,13.7,12,14.3c0.2,0,0.3,0,0.6,0l47.5,16.5c16.1,5.6,33.5,6.5,50.1,2.8l55-12.4l0,0c10.1,0.5,18.6-7.3,19.1-17.4
	c0-0.5,0-0.8,0-1.2l-1.1-57.1l-0.3-47.7v-0.1l5.1-81.4c0.1-1.1,1.5-1.8,2.4-1l38.2,33.4c0.8,0.7,2,0.6,2.6-0.2l41.4-50.9
	c2-2.6,2-6.2,0-8.7l-39.4-48c-7-8.6-16.1-15.2-26.4-19.4l-49-19.6l0,0l-21,6.3c-25.4,7.7-52.5,7-77.5-2l-18.5-6.7l0,0l-53.3,24.7
	c-7.5,3.5-14.1,8.6-19.5,14.9l0,0c-8.2,9.7-14,21.2-16.9,33.5l-12.4,53.6C218.3,176.8,219.6,179.9,222.3,181.3z"/>
<path class="st0" d="M485.6,344.2c1.8,3.8,2.1,10.5-5.4,16.1c0,0-22.6,20.1-32,23.6c-4.2,1.6-15.2,5.2-17.7,1.5
	c-7-10.4-9.5-33.8-5-48.1c1.4-4.3,11.6-7.7,16.1-8c5-0.3,14.1,4.7,19.1,5.5c2.7,0.3,5.4,0.6,8.1,0.6
	C475.6,335.8,483.1,338.8,485.6,344.2z"/>
<polygon class="st0" points="478,329.8 470.9,335.7 472.8,350.1 475.6,364.3 482.7,358.4 495,351.8 "/>
<path class="st3" d="M474.8,331.2l7.2-7.7c0.3-0.3,0.8-0.3,1.1,0l19,21.1c0.3,0.6,0.2,1.1-0.2,1.6l-9,7.6c-0.3,0.3-0.9,0.2-1.2-0.1
	l-16.7-20.3C474.3,332.6,474.3,331.7,474.8,331.2z"/>
<path class="st4" d="M484,349.1l-7.3-9.3c-1.6-2-1.2-5.1,0.8-6.7l9.3-7.3c2-1.6,5.1-1.2,6.7,0.8l7.3,9.3c1.6,2,1.2,5.1-0.8,6.7
	l-9.3,7.3C488.6,351.5,485.6,351.2,484,349.1z"/>
<path class="st3" d="M504.9,102.8c-6-9.5-14.7-16.9-25.1-21.5l-39.4-31.1c-15.2-6.5-26.8-6-31.7-21.6c0,0-28.3,10.1-28.6,11.9
	L376,51.2l-3-10.5c-1.5-5.9-32.9-9.8-32.9-9.8s-18,15.9-32.7,22.4l-40.7,30.6c-10.8,4.6-19.8,17.6-25.7,27.7"/>
<g>
	<path class="st5" d="M342.7,33.2c0,0-5.8,2.9-8.2,9.5c-0.5,0.5-10.3,3.4-7,9.5c3.3,6.2,5,5.4,5,5.4s32.3,0.5,43.8,12.8
		c0.3,0,34.2-11.9,45.3-10.3c0.3,0.1,3.4-6.8,0-8.4c-3.4-1.6,0.9-6.2-1.4-9.8c-2-3.6-3.5-7.5-7-5.8C409.7,37.7,376,49.8,376,60
		C376.5,60,367.1,44.3,342.7,33.2z"/>
	<path class="st5" d="M368.6,55.2c0,0,9.9-6.2,16.5,0c1.1,8.7,3.3,14.3,0,15.2c-3.3,0.9-9.5,4.1-12.1,2.5
		C370.6,71.2,359.4,66.7,368.6,55.2z"/>
	<path class="st5" d="M368.2,65.2l-12.9,16.6c-0.5,0.6-0.6,1.1-0.5,1.9l6.5,27.1c0.5,2,3.3,2.4,4.1,0.5l9.9-21.6
		c0.1-0.5,0.3-0.9,0.1-1.4L372,66.1C372,64.3,369.4,63.8,368.2,65.2z"/>
	<path class="st5" d="M385,59.7l21,11.4c0.7,0.5,1.4,1.1,1.4,2l2.6,34.3c0.1,2.4-2.6,3.8-4.4,2l-15.8-14.7c-0.5-0.3-0.6-0.7-0.7-1.4
		l-7.7-31.1C380.8,60.4,383,58.6,385,59.7z"/>
</g>
<g>
	<g>
		<path class="st5" d="M381.2,55.8c-11.7,5.4-25.5,11.5-37.4,16.7c-7.5,2.7-12.5,7.3-12.6,14.9l0.1,5.4c0.1,7.1,0.1,14.5,0.1,21.6
			c-1.1,43.2,0.5,86.4,1.5,129.5c0.6,43,1.6,87.2-0.5,129.5c-3.7-71.9-2.3-143.9-2.5-215.9c-0.5-20.8-1.6-44-1.6-64.7v-5.4
			c-0.1-5.9,3.5-11.5,9-14.7c3-1.7,7.8-3.2,11-4.6c5.4-2.1,16.4-6.4,21.9-8.6c3.6-1.5,7.3-2.8,11-4.2V55.8L381.2,55.8z"/>
	</g>
	<ellipse class="st5" cx="347.5" cy="97.8" rx="3.8" ry="3.5"/>
	<ellipse class="st5" cx="349" cy="166.9" rx="3.8" ry="3.5"/>
	<ellipse class="st5" cx="349.9" cy="300" rx="3.8" ry="3.5"/>
	<ellipse class="st5" cx="349.9" cy="236" rx="3.8" ry="3.5"/>
</g>
</svg>
