<?xml version="1.0" encoding="utf-8"?>
<!-- Generator: Adobe Illustrator 26.0.3, SVG Export Plug-In . SVG Version: 6.00 Build 0)  -->
<svg version="1.1" id="Layer_1" xmlns="http://www.w3.org/2000/svg" xmlns:xlink="http://www.w3.org/1999/xlink" x="0px" y="0px"
	 viewBox="0 0 788 1005" style="enable-background:new 0 0 788 1005;" xml:space="preserve">
<style type="text/css">
	.st0{fill:#CA9072;}
	.st1{fill:#B58069;}
	.st2{fill:#473415;}
	.st3{fill:#EDEDED;}
	.st4{fill:#587CC6;}
	.st5{fill:#DDDDDD;}
	.st6{fill:none;stroke:#9CCBF2;stroke-width:4.5415;stroke-linecap:round;stroke-miterlimit:10;}
	.st7{fill:#9CCBF2;}
</style>
<polygon points="231.5,477.2 231.6,477.2 231.5,477.1 "/>
<polygon points="231.6,477.2 231.7,477.2 231.7,477.1 "/>
<polygon points="231.5,477.2 231.6,477.2 231.5,477.1 "/>
<polygon points="231.6,477.2 231.7,477.2 231.7,477.1 "/>
<path class="st0" d="M517.1,241.5c-0.6,38.4-26.2,33.2-36.9,42.3c-12.6,10.8-8.3,50-17.2,64c-2.5,3.8-11.4,10.1-15.8,9.1
	c-12.5-2.9-24-30.7-34.8-37.7c-6.3-4.1-23.6-3.6-30.2,0c-11.3,6.2-22.3,34.9-34.8,37.7c-4.4,1-13.4-5.2-15.8-9.1
	c-8.9-14-4.6-53.2-17.2-64c-10.6-9.1-36.2-3.9-36.9-42.3c-0.4-26.6,35-37.3,35-37.3l40.1-19.9c2.6-1.3,5-2.9,7.1-4.8
	c0.8-0.7,1.6-1.5,2.3-2.3l0.6-0.7v-0.1c3.9-4.7,6.5-10.4,7.2-16.4c0.2-1.4,0.3-2.8,0.2-4.2V153v-4.5h54l0.1,5v1.5v3.2
	c0,0.3,0,0.7,0,1l0,0c0,0.6,0.1,1.3,0.2,1.9c0.2,1.5,0.5,3.1,0.9,4.6c2.2,7.7,7.6,14,14.7,17.6l40.5,20.1c1,0.5,2.1,1,3.2,1.3
	C490.2,207,517.5,218.1,517.1,241.5z"/>
<path class="st0" d="M424.7,196.7l-27.5,32.5l-14.8-17.7L370,196.7l0.7-41.6v-2.2l0.1-4.5h53v0.2l0.1,4.7l0,0v1.6l0.1,4.2l0,0v1.3
	l0.1,6.8L424.7,196.7z"/>
<path class="st1" d="M425.2,165.9l-1,1.2c-5.2,6.3-28.8,35-41.8,44.3c-3.2,2.3-5.7,3.4-7.2,2.7c-6.8-3.3-14.8-35.1-14.8-35.1
	l0.1-0.1c0.6-0.6,1.2-1.2,1.7-1.9c0.3-0.4,0.7-0.8,1-1.3l0.1-0.1c3.3-4.5,5.6-9.7,6.7-15.2c0-0.2,0.1-0.4,0.1-0.6
	c0.3-1.4,0.5-3,0.7-4.8c0.1-0.7,0.1-1.4,0.2-2.2c0.1-1.4,0.2-2.9,0.3-4.5H424v0.2v4.3v6.7l0.1,0.8l0.1,0.7l0.9,4.6L425.2,165.9z"/>
<path class="st0" d="M282.3,349.4c-9.7-15-32.4-8.3-40.5-5.5s-23.1,12.1-30.5,16.7c-18.9,11.6-75.5,47.9-96.4,54.1
	c-14.6,4.4,7.5,25,7.5,25s15.5-9,25.7-12.6c21.4-7.6,52.1-11.5,87.9-22.8c9.4-3,27.2-12.2,34.9-18.3
	C292.3,369.2,285.1,353.8,282.3,349.4z"/>
<path class="st0" d="M516.8,349.4c9.7-15,32.4-8.3,40.5-5.5s23.1,12.1,30.5,16.7c19,11.6,75.5,47.9,96.4,54.1
	c14.6,4.4-7.5,25-7.5,25s-15.5-9-25.7-12.6c-21.4-7.6-52.1-11.5-87.9-22.8c-9.4-3-27.2-12.2-34.9-18.3
	C506.8,369.2,513.9,353.8,516.8,349.4z"/>
<polygon class="st2" points="317.1,497.8 318.6,427.3 473.6,427.3 475.6,494.8 "/>
<path class="st3" d="M287.9,384.1l12.7-36.5c1.2-3.4,6.2-2.1,5.7,1.4l-2.9,18.2c0,0.1,0,0.2,0,0.3l-4.7,78.7
	c-0.9,8.6,0.2,33.3,3.2,41.5l6.3,17.2c0.7,1.8,2.3,3,4.3,3l74.2-2.4c26.5,4.6-7.7,4.4,18.9,0.6l71.2,3.4c2,0,3.7-1.2,4.4-3.1
	l4.8-13.9c3.2-9.4,3.9-35.5,1.9-45.2l-8.3-73.4c-0.1-0.3-0.1-0.5-0.1-0.8l-0.8-36.2c-0.1-4.9,6.6-6.5,8.7-2.1l29.6,61.9
	c0.4,0.9,52.4-50.4,52-51.4l-40.3-104.8c-5.2-13.5-15.5-24.4-28.7-30.4l-57.3-25.7c-1.6-0.7-3.4-0.5-4.7,0.6l-0.6,0.5
	c-26,20.5-62.6,20.6-88.7,0.3l0,0c-1.4-1.1-3.2-1.3-4.8-0.5l-47,22.4c-7,3.3-13.1,8.2-17.9,14.2l-2.7,3.3
	c-3.9,4.9-6.9,10.5-8.9,16.4l-32.2,96.7C234.8,339.2,287.5,385.2,287.9,384.1z"/>
<path class="st4" d="M424.4,513.6h-54.9c-8.2,0-14.9-5.7-14.9-12.6v-301c0-6.9,6.7-12.6,14.9-12.6h54.9c8.2,0,14.9,5.7,14.9,12.6
	v301C439.3,508,432.6,513.6,424.4,513.6z"/>
<path class="st3" d="M430.8,177.7l-22.6,94.2c-0.9,3.7-1.4,7.3-1.4,11.1l-1.4,230.5c0,3.1,3.5,5.4,7.1,4.8l69-16.8l-3.1-302.8
	l-45.2-21.9C432.1,176.3,431,176.7,430.8,177.7z"/>
<path class="st3" d="M362.3,177.7l22.6,94.2c0.9,3.7,1.4,7.3,1.4,11.1l1.4,230.5c0,3.1-3.5,5.4-7.1,4.8l-72.3-14.6l6.5-305.6
	l45.2-21.3C360.9,176.3,362.2,176.7,362.3,177.7z"/>
<path class="st5" d="M319.3,287.5l1.1,36.1c0.1,2.1,1.7,3.8,3.8,4.1l32.1,2.4c1,0.1,2-0.2,2.9-0.9l4.5-3.5c1.1-0.9,1.7-2.1,1.6-3.6
	l-2-37.3c-0.1-2.1-1.9-3.8-4-4l-36.2-1.6c-2.6-0.1-4.7,2.1-4.3,4.7l0.4,3.1C319.3,287.1,319.3,287.3,319.3,287.5z"/>
<g>
	<ellipse transform="matrix(0.9715 -0.237 0.237 0.9715 -61.8832 88.0464)" class="st4" cx="335.3" cy="301.4" rx="3.3" ry="4.7"/>
	
		<ellipse transform="matrix(0.9059 -0.4234 0.4234 0.9059 -99.3575 168.4834)" class="st4" cx="329.5" cy="307.9" rx="3.3" ry="4.7"/>
	<ellipse transform="matrix(0.237 -0.9715 0.9715 0.237 -30.3283 564.1371)" class="st4" cx="344" cy="301.4" rx="4.7" ry="3.3"/>
	
		<ellipse transform="matrix(0.4234 -0.9059 0.9059 0.4234 -77.3522 494.2119)" class="st4" cx="349.6" cy="307.9" rx="4.7" ry="3.3"/>
	<path class="st4" d="M346.7,314.8c0,0-1.4-0.5-1.9-1c-0.2-0.2-0.7-1.1-1.1-2c-0.1-0.5-0.4-1-0.6-1.4v-0.1l0,0c-0.7-1.2-2-2-3.1-1.9
		c-1.5-0.1-3.3,1-4.2,3.1v0.1c-0.4,0.6-0.9,1.5-1.4,2c-0.7,0.7-1.9,1.1-1.9,1.1l0,0c-0.1,0-0.2,0-0.2,0.1c-1.6,0.7-2.1,3.3-1,5.7
		c1.1,2.4,3.3,3.6,5,2.9c0.1-0.1,0.4-0.1,0.5-0.2c0.5-0.2,2.5-1,3.1-1c0.7,0,2.6,1.1,3.1,1.4c1.6,0.7,3.8-0.5,5-2.9
		C348.8,318.2,348.4,315.6,346.7,314.8z"/>
</g>
<g>
	<path class="st6" d="M363.6,171.5l-12.3,12.4c-3.5,3.5-4.9,8.3-3.9,12.9l14.4,65.3c0.9,4.4,4.1,8.3,8.5,10.1l23.6,10.5
		c4.7,2.1,10,1.9,14.5-0.5l27.2-14.8c4.7-2.5,7.6-7.1,7.7-12.1l2.3-59.8c0.1-4.3-0.4-10.5-3.7-13.3l-11.7-10.7"/>
	<line class="st6" x1="399.5" y1="284.6" x2="398" y2="466.8"/>
	<circle class="st7" cx="397.9" cy="468" r="10.5"/>
</g>
<path class="st7" d="M125.8,409.6c-0.4-0.5-0.9-0.8-1.4-1.1c-3.7-1.4-18-6.6-20.6-6.5c-3,0.2-15.7,3.2-18.2,2.9s-16.6-5.3-16.8-3.5
	c-0.1,1.2-0.1,4.5-0.1,6.7c0,1.3,0.7,2.4,1.9,3l8.9,4.4c0.4,0.2,0.9,0.3,1.4,0.3l4.4,0.1c3.2,0.1,4.5,4.1,1.9,6l-10.3,7.8
	c-0.2,0.1-0.3,0.2-0.5,0.3c-2.8,1.4-27.2,13.7-28.9,14.1c-1,0.2-0.6,2.8,0,5.1c0.5,2,2.7,3.1,4.5,2.3l26.4-11.3
	c0.7-0.3,1.3,0.7,0.7,1.2l-25.6,20.1c-1.4,1.1-1.7,3.2-0.6,4.7l1.9,2.4c1.1,1.4,3.2,1.7,4.7,0.6l25.5-20c0.7-0.5,1.5,0.4,0.9,1
	L64.4,474c-1.5,1.6-1,4.2,1,5.2l2.7,1.3c1.3,0.6,2.9,0.4,3.9-0.7L93.8,457c0.6-0.6,1.5,0.1,1.1,0.8L84.8,476c-1,1.8-0.2,4,1.7,4.7
	c2.3,0.9,5,1.6,5.6,0.5c1-1.9,14.8-20.6,16.8-23.3c0.2-0.2,0.3-0.4,0.6-0.6l26.5-21.8c0.6-0.5,1-1.3,1.2-2.1l1-6.5
	c0.1-0.9-0.1-1.8-0.7-2.6L125.8,409.6z"/>
<path class="st7" d="M673.3,409.6c0.4-0.5,0.9-0.8,1.4-1.1c3.7-1.4,18-6.6,20.6-6.5c3,0.2,15.8,3.2,18.2,2.9s16.5-5.3,16.8-3.5
	c0.1,1.2,0.2,4.5,0.2,6.7c0,1.3-0.7,2.4-1.9,3l-8.9,4.4c-0.4,0.2-0.9,0.3-1.4,0.3l-4.4,0.1c-3.2,0.1-4.5,4.1-1.9,6l10.3,7.8
	c0.2,0.1,0.3,0.2,0.5,0.3c2.8,1.4,27.2,13.7,28.9,14.1c1,0.2,0.6,2.8,0,5.1c-0.5,2-2.7,3.1-4.5,2.3l-27.6-11.8
	c-0.6-0.2-1,0.5-0.5,0.9l26.6,20.9c1.4,1.1,1.7,3.2,0.6,4.7l-1.9,2.4c-1.1,1.4-3.2,1.7-4.7,0.6l-27-21.3c-0.5-0.4-1.1,0.3-0.7,0.7
	l22.7,25.3c1.5,1.6,1,4.2-1,5.2l-2.7,1.3c-1.3,0.6-2.9,0.4-3.9-0.7L704.3,456c-0.4-0.4-1.1,0.1-0.8,0.6l10.8,19.3
	c1,1.8,0.2,4-1.7,4.7c-2.3,0.9-5,1.6-5.6,0.5c-1-1.9-14.8-20.6-16.8-23.3c-0.2-0.2-0.3-0.4-0.6-0.6l-26.5-21.8
	c-0.6-0.5-1-1.3-1.2-2.1l-1-6.5c-0.1-0.9,0.1-1.8,0.7-2.6L673.3,409.6z"/>
</svg>
