<svg xmlns="http://www.w3.org/2000/svg" viewBox="0 0 200 200"><defs><style>.cls-1{fill:#d48f72;}.cls-2{fill:#a85d3d;}.cls-3{fill:#d79072;}.cls-4{fill:#473415;}.cls-5{fill:#da9172;}.cls-6{fill:#823f1d;}.cls-7{fill:#00b9a7;}</style></defs><g id="Calque_5" data-name="Calque 5"><path class="cls-1" d="M140.39,88.29c-.23,14.42-5,14.71-9,18.13-4.72,4-3.1,18.79-6.45,24-.92,1.44-4.27,3.79-5.93,3.41-4.7-1.08-9-11.54-13.06-14.17-2.38-1.55-8.85-1.36-11.33,0-4.23,2.31-8.37,13.09-13.06,14.17-1.67.38-5-2-5.93-3.41-3.35-5.25-1.73-20-6.46-24-4-3.42-7.6-2.59-7.83-17-.16-10,7.13-12.9,7.13-12.9l15.08-7.47a12.1,12.1,0,0,0,3.52-2.67,11.87,11.87,0,0,0,3-6.46,10.39,10.39,0,0,0,.09-1.58l0-2.76h20.14l0,2.43,0,1.21c0,.12,0,.25,0,.37v0c0,.24,0,.48.06.73a10,10,0,0,0,.35,1.71,10.66,10.66,0,0,0,5.52,6.61l15.21,7.55c.39.19.79.35,1.19.5C135.19,77.6,140.53,79.53,140.39,88.29Z"/><polygon class="cls-1" points="110.59 73.71 100.27 85.92 94.71 79.27 90.06 73.71 90.33 58.11 90.37 55.58 110.28 55.58 110.28 55.67 110.32 58.01 110.35 59.59 110.35 59.61 110.35 60.09 110.4 62.64 110.59 73.71"/><path class="cls-2" d="M110.78,62.17s-.14.16-.38.47C108.46,65,99.57,75.79,94.71,79.27c-1.2.86-2.16,1.28-2.71,1-2.53-1.22-5.57-13.18-5.57-13.18a6.56,6.56,0,0,0,.68-.72A14.52,14.52,0,0,0,90,60.16a2,2,0,0,1,0-.24c.1-.52.18-1.13.25-1.81s.13-1.62.17-2.53h19.78v.09l0,4.13,0,.29.06.25.35,1.71Z"/><path class="cls-3" d="M121.93,79.23c8.33-6.22,20.38-5.72,20.38-5.72s23.33-1.61,31.09-2.27c3.66-.31,11.28-1.09,12.31,8h0c.85,7.51-6.25,9.59-9.72,10.23-7.05,1.3-21.62,2.46-28.27,4.93-5,1.85-11.88,6.62-20.67,4.48,0,0-7.39-1-9.1-8.3l-.07-.29a10.78,10.78,0,0,1,4.05-11.08Z"/><path class="cls-3" d="M171.74,87.87c-6.72-3.25-5.13-12-4.37-15.13s3.83-9.06,5.33-12c3.84-7.46,11.24-19.5,14.9-26.85,2.4-4.83,3.52-7.45,7-6.74,3.18.65,2.56,5.9,2.34,8-.92,8.48-2.48,25.08-4.9,33.77-1,3.57-3.65,10.6-5.75,13.65C180.44,91.09,173.69,88.82,171.74,87.87Z"/><polygon class="cls-4" points="70.51 168.45 71.07 160 129.27 160 130.02 167.32 70.51 168.45"/><path class="cls-5" d="M78.08,80.08c-8.33-6.22-20.38-5.72-20.38-5.72s-23.33-1.61-31.1-2.27c-3.65-.31-11.27-1.09-12.3,8h0c-.85,7.51,6.25,9.59,9.71,10.23,7.06,1.3,21.63,2.46,28.28,4.94,5,1.84,11.88,6.61,20.67,4.47,0,0,7.39-1,9.1-8.3l.07-.29a10.78,10.78,0,0,0-4-11.08Z"/><path class="cls-3" d="M28.27,88.72c6.72-3.25,5.13-12,4.37-15.13s-3.83-9.06-5.33-12c-3.84-7.46-11.25-19.5-14.9-26.85-2.4-4.83-3.53-7.45-7-6.74-3.18.65-2.56,5.9-2.34,8C4,44.46,5.53,61.06,8,69.75c1,3.57,3.65,10.6,5.75,13.65C19.57,91.94,26.32,89.67,28.27,88.72Z"/><path class="cls-5" d="M2.11,32.29A13.81,13.81,0,0,1,.93,27.38l-.52-9a3.06,3.06,0,0,1,.75-2.06h0A3.94,3.94,0,0,1,4,15l7.77-1.19a2.25,2.25,0,0,1,2.47,1.36l-.2,2.43s.7,3.32.74,2.33c.14-3.51.7-5.9,3.75-5.56L18,20.21a4.63,4.63,0,0,1-.69,1.86c-.75,1.3-1.28,4.32-2,5.34,0,0-3.76,3.83-4.16,4.75s.47,2.27.47,2.27h0a3.53,3.53,0,0,1-4.44,2.94l-3.29-.93Z"/><path class="cls-6" d="M14.28,15.18l-.49,4.73-3,4.91-3-.5.48.39A3.8,3.8,0,0,1,9.7,28.13l-.2,1.62,1.83-3.69,1-.69L15,19.82l-.12-2.49Z"/><path class="cls-3" d="M197.23,32.29a13.4,13.4,0,0,0,1.18-4.91l.52-9a3,3,0,0,0-.75-2.06h0A3.9,3.9,0,0,0,195.31,15l-7.77-1.19a2.27,2.27,0,0,0-2.48,1.36l.21,2.43s-.7,3.32-.74,2.33c-.15-3.51-.7-5.9-3.75-5.56l.54,5.83a4.64,4.64,0,0,0,.7,1.86c.74,1.3,1.27,4.32,2,5.34,0,0,3.76,3.83,4.16,4.75s-.46,2.27-.46,2.27h0a3.52,3.52,0,0,0,4.44,2.94l3.29-.93Z"/><path class="cls-6" d="M185.07,15.18l.48,4.73,3,4.91,3-.5-.49.39a3.79,3.79,0,0,0-1.38,3.42l.19,1.62L188,26.06l-1-.69-2.68-5.55.13-2.49Z"/><path class="cls-7" d="M50.63,73l10.5,33.13s4.78,19.27,5.52,26.23c.82,7.8,2.57,32.51,2.57,32.51L68.71,175l63.93,1.65s-1.43-24.55-.2-40.38c.56-7.11,5.61-28.4,5.61-28.4l10.91-35-25.71-1.09L101.06,83.94l-22.2-13.2Z"/></g></svg>