<svg xmlns="http://www.w3.org/2000/svg" viewBox="0 0 200 200"><defs><style>.cls-1{fill:#d48f72;}.cls-2{fill:#bf7764;}.cls-3{fill:none;stroke:#000;stroke-miterlimit:10;stroke-width:3px;}.cls-4{fill:#d79072;}.cls-5{fill:#473415;}.cls-6{fill:#ddd;}.cls-7{fill:#9b1717;}.cls-8{fill:#5b3c25;}.cls-9{fill:#472e1d;}.cls-10{fill:#b81717;}.cls-11{fill:#fff;}.cls-12{fill:#fef6ba;}</style></defs><g id="Calque_5" data-name="Calque 5"><polygon points="56.25 164.39 56.3 164.38 56.25 164.36 56.25 164.39"/><polygon points="56.3 164.38 56.34 164.39 56.34 164.36 56.3 164.38"/><polygon points="56.25 164.39 56.3 164.38 56.25 164.36 56.25 164.39"/><polygon points="56.3 164.38 56.34 164.39 56.34 164.36 56.3 164.38"/><path class="cls-1" d="M177.32,64.46c-.25,16.28-11.1,14.07-15.62,17.93-5.33,4.57-3.51,21.22-7.28,27.14-1,1.63-4.82,4.28-6.7,3.85-5.31-1.22-10.19-13-14.74-16-2.69-1.74-10-1.53-12.8,0-4.77,2.61-9.44,14.78-14.74,16-1.88.43-5.66-2.22-6.7-3.85C95,103.61,96.79,87,91.45,82.39c-4.51-3.86-15.37-1.65-15.62-17.93-.18-11.27,14.83-15.83,14.83-15.83l17-8.44a13.5,13.5,0,0,0,4-3,13.32,13.32,0,0,0,3.37-7.5c0-.05,0-.1,0-.15s0-.2,0-.3a.22.22,0,0,0,0-.08c0-.35,0-.69,0-1v-1l0-2.15h22.74v1.07l0,3a11.88,11.88,0,0,0,.4,2.92,12.08,12.08,0,0,0,6.31,7.74l17.18,8.52a12.2,12.2,0,0,0,1.34.56C165.94,49.85,177.48,54.57,177.32,64.46Z"/><polygon class="cls-1" points="138.51 45.46 126.85 59.24 115.33 45.46 115.41 40.49 115.68 25 138.16 25 138.28 32.02 138.51 45.46"/><path class="cls-2" d="M137.4,25l-.09,4.1-5.71,6.08s-10,8.38-13.42,6.72c-.84-.41-1.81-.91-2.77-1.41-2.31-1.23-4.52-2.49-4.52-2.49a7.92,7.92,0,0,0,.77-.82,16.36,16.36,0,0,0,3.3-7c0-.15.05-.31.07-.48s0-.1,0-.15a2.66,2.66,0,0,0,0-.3.22.22,0,0,0,0-.08c0-.44,0-.93,0-1.44v-.56c0-.26,0-.53,0-.8,0-.46,0-.92,0-1.35Z"/><path class="cls-3" d="M152.05,61.26C151.49,73,159.57,84,159.57,84s13.21,22.86,17.49,30.54c2,3.63,6.1,11.25,15.28,6.47h0c7.56-3.95,5-11.91,3.44-15.56-3.23-7.43-11.35-21.8-13.23-29.59-1.39-5.8-1.29-15.29-8.85-22.17,0,0-5.57-6.3-13.51-3.28l-.32.12a12.15,12.15,0,0,0-7.82,10.78Z"/><path class="cls-4" d="M46.62,107.28c-8.29,1.53-12.68-7.49-14.08-10.86S30,85.62,29.39,82c-1.5-9.35-2.8-25.26-4.39-34.39-1-6-1.76-9.14,1.9-10.83,3.33-1.53,6.26,3.66,7.44,5.69,4.83,8.33,14.49,24.48,18.11,34,1.48,3.91,3.75,12.09,3.88,16.27C56.69,104.4,49,106.84,46.62,107.28Z"/><path class="cls-3" d="M100.13,69c-5,10.59-17.36,16.44-17.36,16.44S60.32,99.34,52.91,104.08c-3.49,2.24-10.69,7-16.51-1.53h0c-4.8-7,1.19-12.86,4.32-15.33,6.36-5,20.31-13.84,25.65-19.81,4-4.45,8.37-12.86,18.28-15.35,0,0,7.89-2.93,13.46,3.5l.22.25a12.16,12.16,0,0,1,1.8,13.2Z"/><polygon class="cls-5" points="92.92 152.42 93.55 142.88 159.26 142.88 160.11 151.15 92.92 152.42"/><path class="cls-4" d="M196.93,107.23c-3.83-7.52-13.65-5.52-17.18-4.58s-10.14,4.53-13.4,6.29c-8.33,4.5-21.76,13.14-30,17.43-5.4,2.82-8.32,4.16-7.44,8.09.81,3.57,6.72,2.74,9,2.45,9.55-1.23,28.25-3.38,38-6.3,4-1.2,11.88-4.38,15.28-6.82C200.76,117,198,109.41,196.93,107.23Z"/><path class="cls-1" d="M31.53,36.39l-1.74-8.57L24.28,17.11s-1.93,1.41-2.1,2.14c-.52,2.29.8,5.79,1.49,8a3.38,3.38,0,0,1-.51,1.87c-1.06.72-3.08-1.09-3.08-1.09l4.39,7.55Z"/><path class="cls-1" d="M29.33,34.64l-6.89,5.8L8.83,26.81.58,8.15s2.78-.58,3.6-.21c4.27,2,8.36,11.33,11.37,14.94C18.79,26.77,29.33,34.64,29.33,34.64Z"/><ellipse class="cls-1" cx="26.47" cy="37.35" rx="5.15" ry="5.13" transform="translate(-10.34 10.13) rotate(-18.18)"/><path class="cls-6" d="M104.92,42.27c.57-.56,7.38-8.61,8-8.61.29,0,5.84,13.41,12.31,13.59,7.82.22,15.3-13.59,15.3-13.59l3.8,5.94,2.12,68.05-41.53.57Z"/><path class="cls-6" d="M26.52,64.53,24.16,51.39s11.86-8.1,12.5-7.71,3.59,8.87,3.59,8.87Z"/><path class="cls-7" d="M122.09,54.28l7.75,0s6,28.72,5.75,29.59-3.94,22.63-3.88,23.15-5.34,6.79-5.34,6.79-5.42-7.83-5.7-8.7-2-19.67-2.4-20.37S122.09,54.28,122.09,54.28Z"/><path class="cls-8" d="M163.5,137.33l7.57,37.32a1.74,1.74,0,0,1-1.52,2.08c-7.05.78-24.58,5.94-30.81,4.06-3.62-1.09-6.64-6.66-7.69-12.58-5.12-29.06-3.64-75.24-2-82.2,2.15-9.15,9.4-38.07,11.5-47.44.24-1.08.49-2.09.49-2.09l1.64.75,32.07,14h0a1.79,1.79,0,0,1,.85.71l6,9.6a1.87,1.87,0,0,1,.16.35l16.66,47.54c.89,3.3-.25,9.2-1.51,9.94l-35,8.73a1.75,1.75,0,0,0-.91,2.17l2.43,6.87A2.17,2.17,0,0,1,163.5,137.33Z"/><path class="cls-8" d="M112.12,36.21s12.52,43,12.52,49.55,4.35,69.84-3.16,81.44c-2.78,4.3-8.67,11.49-14.42,11.49s-19.75-3.34-19.75-3.34A5.2,5.2,0,0,1,83.13,169l6.7-36.86s2.49-17.13,2.35-22.88c-.16-6.45-3.93-25.52-3.93-25.52S46.49,110.24,45.08,110c-8.95-1.6-12.83-11.19-12.83-11.19L20.8,62.69S38.89,49.91,39.39,49.54c1.69-1.26,13.06,26.64,13.06,26.64L75.83,52.72Z"/><path class="cls-9" d="M111.67,34.62l-4.17,3.69-2.65,39.22,7.27,3.62v8.74s11,34.71,11.69,33.66.83-32.16.83-32.16V85.76L118.24,58Z"/><path class="cls-10" d="M120,50.48c.39-.75,2.85-5.61,3.76-6.49.72-.7,5,0,5,0l3.79,6s-1.58,4.07-2.79,4.64c-.63.29-3.73.17-7.3,0C121.49,54.59,120.36,50.77,120,50.48Z"/><path class="cls-9" d="M141.55,35.23,145,38.31l2.64,39.22-7.26,3.62v8.74s-11,34.71-11.69,33.66-.83-32.16-.83-32.16V85.76L134.23,58Z"/><path class="cls-11" d="M138.25,30.16l3.3,5.07-8.12,18.14s-3.29-7.63-4.67-9.38C128.15,43.22,138.25,30.16,138.25,30.16Z"/><polygon class="cls-12" points="117.8 91.47 120.97 149.58 165.11 147.58 170.01 90.82 117.8 91.47"/><path class="cls-11" d="M115,30.16l-3.28,4.46,7.65,18.75s3-7.63,5-9.61C125,43.07,115,30.16,115,30.16Z"/><polygon class="cls-1" points="135.95 126.78 127.66 121.04 118.23 118.73 119.49 122.49 123.81 124.48 125.55 127.17 119.74 127.33 119.61 123.02 116.92 122.64 112.12 128.59 113.99 141.37 122.19 144.3 136.68 137.23 140.86 135.9 149.5 133.79 142.25 124.9 138.5 126.4 135.95 126.78"/><path class="cls-6" d="M155.33,137.87l-13.3.93s-6.91-12.16-6.46-12.73,9.18-2.52,9.18-2.52Z"/><path class="cls-8" d="M140.65,124c1.13,1.79,10.8,24.11,11.59,23.22s41.63-24.76,41.63-24.76l.1-.06a9,9,0,0,0,4.31-7.43l.12-5.17s-9.25-8.14-10.23-8.14-16.65,4.09-18.09,3.92S140.65,124,140.65,124Z"/><circle class="cls-9" cx="26.14" cy="65.45" r="1.98"/><circle class="cls-9" cx="28.13" cy="71.96" r="1.98"/><circle class="cls-9" cx="161.49" cy="136.07" r="1.98"/><circle class="cls-9" cx="155.33" cy="140.04" r="1.98"/></g></svg>