<svg xmlns="http://www.w3.org/2000/svg" viewBox="0 0 188 167.78"><defs><style>.cls-1{fill:#a85b3b;}.cls-2{fill:#854532;}.cls-3{fill:#5b3627;}</style></defs><g id="Calque_9" data-name="Calque 9"><path class="cls-1" d="M60.53,101.6l-6-4-4.69,4,1,14.11s5.35,8.28,6,9.25,5.52,1.79,5.52,1.79l3.51-14.93Z"/><path class="cls-1" d="M128.91,101.6l7.06-4,3.64,4-1,14.11s-5.35,8.28-6,9.25-5.52,1.79-5.52,1.79l-3.51-14.93Z"/><path class="cls-1" d="M132.07,79.71A29.79,29.79,0,0,0,121.69,62.5L117.44,59a29.75,29.75,0,0,0-17-6.64L94.84,52h-.11l-5.63.36c-6.21.38-6.19-11.74-11-7.8L67.87,62.5A29.76,29.76,0,0,0,57.51,79.71c-.5,2.48-.89,4.46-.89,4.63,0,.48,2.71,14.81,2.71,14.81v8l.16,1.07,3.69,25.35a13.87,13.87,0,0,0,3.41,7.27s12.17,11.42,16.53,14.87c1.65,1.29,10.57,2.82,11.61,3v0h.11v0l.89-.15.57-.11c2.88-.52,8.83-1.71,10.14-2.74C110.81,152.22,123,140.8,123,140.8a13.94,13.94,0,0,0,3.41-7.27L130.11,108l.13-.89v-8S133,84.82,133,84.34C133,84.17,132.56,82.19,132.07,79.71Z"/><path class="cls-2" d="M94.92,125.56,99.15,124l1.54-.86c1.28-.72,2.89-1.64,2.89-1.68s.87.43.87.43l-1.45.8-1.6.83h2l2.61-2.07V120H103.8l-7.07,2.47H94.92Z"/><path class="cls-2" d="M94.92,125.56,90.69,124l-1.53-.86c-1.28-.72-2.9-1.64-2.9-1.68s-.87.43-.87.43l1.45.8,1.6.83h-2l-2.61-2.07V120h2.18l7.07,2.47h1.8Z"/><path class="cls-2" d="M128.3,120l1.92-13.19s4.74-4.66,5.12-4.76.63,2,.63,2l-1.14,9.43-2.7,4.7Z"/><path class="cls-2" d="M61.35,121l-1.92-13.19s-4.74-4.67-5.12-4.76-.64,2-.64,2l1.15,9.43,2.69,4.7Z"/></g><g id="Calque_7" data-name="Calque 7"><path class="cls-3" d="M75.93,51.73S75,60,72.17,64c-4.31,6.06-9.83,8-12.1,11.23-2,2.87-2.42,13.06-2.42,13.06s-5.07-8.4-5.24-11.44c-.13-2.21,2.82-8.53,2.82-8.53l-5.38,2.91s-.64-7.18.15-9.49c.72-2.1,5-6.8,5-6.8l-4.1.17s4.71-8.6,11.76-10.43c2.36-.61,9.82,1.08,9.82,1.08S74.19,36,95.29,35.19c24.81-.92,39.8,12.11,39.8,12.11l-5.24,1.84a13.3,13.3,0,0,1,9,7.35c1.55,3.48,3.48,13.84,3.48,13.84l-4.52-2.2a25.39,25.39,0,0,1-.46,15.74c-.65,1.79-4.65,9-4.65,9s0-10.47-4.17-18.56a33.64,33.64,0,0,0-6.84-8.65l-.93,4.8S112.2,59.13,97,59.08C91.24,59.06,75.93,51.73,75.93,51.73Z"/></g></svg>