<svg xmlns="http://www.w3.org/2000/svg" viewBox="0 0 788 1005"><defs><style>.cls-1{fill:#944e31;}.cls-2{fill:#a85b3b;}.cls-3{fill:#613b32;}.cls-4{fill:#5b3627;}</style></defs><g id="Calque_9" data-name="Calque 9"><path class="cls-1" d="M360,147h0c-1-.17-4.7-.89-5.28-1.73s-6-9.25-6-9.25l-1.34-15.05,5-3.06,4.91,3.26,2.72,5.31,3.54,3.81,1.21,15.58Z"/><path class="cls-1" d="M437.46,121.85l-1,14.11s-5.36,8.27-6,9.25c-.53.77-3.7,1.44-5,1.68l-3.71-1.08,2.21-21,4.22-3.78,5.9-4.14Z"/><path class="cls-2" d="M402,136.32a3.23,3.23,0,0,0-.94-1.85l-1.11-1.1L399,136.5l1.36-1.53,1.69,2.25Zm-16.31-2.95-1.11,1.1a3.23,3.23,0,0,0-.94,1.85l-.13.9,1.69-2.25,1.36,1.53Z"/><path class="cls-2" d="M402,136.32a3.23,3.23,0,0,0-.94-1.85l-1.11-1.1L399,136.5l1.36-1.53,1.69,2.25Zm-16.31-2.95-1.11,1.1a3.23,3.23,0,0,0-.94,1.85l-.13.9,1.69-2.25,1.36,1.53Z"/><path class="cls-2" d="M386.51,136.5,385.15,135l-1.69,2.25.13-.9a3.23,3.23,0,0,1,.94-1.85l1.11-1.1Z"/><path class="cls-2" d="M392.77,142.69v4.18h-.1v-1.11l-4.13-1.56-.34-.19a16.5,16.5,0,0,1-2.05-.05l-.48-.23h-1.34l-2.62-2.08v-1.44h2.18l7.08,2.47Z"/><path class="cls-2" d="M392.77,179.6v.25h-.1c-1.05-.18-10-1.71-11.61-3-4.37-3.44-16.54-14.86-16.54-14.86a13,13,0,0,1-1.79-2.53,14.07,14.07,0,0,0,1.76,2.45S376.67,173.3,381,176.75c1.31,1,7.26,2.22,10.13,2.74.12,0,.86.07,1.5.11A.33.33,0,0,0,392.77,179.6Z"/><polygon class="cls-2" points="392.77 73.18 392.77 73.19 392.72 73.18 392.77 73.18"/><path class="cls-2" d="M402.08,137.22,400.39,135,399,136.5l.87-3.13,1.11,1.1a3.23,3.23,0,0,1,.94,1.85Z"/><polygon class="cls-2" points="392.72 73.18 392.67 73.19 392.67 73.18 392.72 73.18"/><path class="cls-2" d="M430,100.87a29.79,29.79,0,0,0-10.38-17.21l-4.25-3.47a29.83,29.83,0,0,0-17-6.65l-5.63-.35h-.1l-5.63.35a29.83,29.83,0,0,0-17,6.65l-4.25,3.47a29.78,29.78,0,0,0-10.37,17.21c-.5,2.48-.88,4.46-.88,4.63,0,.48,2.7,14.8,2.7,14.8v8l.13.86,0,.22L360,147l1.13,7.73c.05.31.1.62.17.93s.17.71.27,1.06.16.48.24.72c.16.42.33.83.52,1.23l.07.14c.11.23.23.45.35.67a14.07,14.07,0,0,0,1.76,2.45S376.67,173.3,381,176.75c1.31,1,7.26,2.22,10.13,2.74.12,0,.86.07,1.5.11a.33.33,0,0,0,.1,0l.9.07.57-.1c2.88-.53,8.83-1.71,10.13-2.75,4.37-3.44,16.55-14.86,16.55-14.86a13.92,13.92,0,0,0,3.4-7.28l1.14-7.79,2.59-17.73.13-.9v-8s2.7-14.32,2.7-14.8C430.88,105.33,430.49,103.35,430,100.87Zm-26.17,40.79-2.62,2.08h-.43a.88.88,0,0,1-.18.1,8.89,8.89,0,0,1-1.49.13l-1.19-.27-.92.51-4.23,1.6v1.06h-.1v-1.11l-4.13-1.56-.34-.19a16.5,16.5,0,0,1-2.05-.05l-.48-.23h-1.34l-2.62-2.08v-1.44h2.18l7.08,2.47h3.6l7.08-2.47h2.18Z"/><path class="cls-2" d="M393.67,179.67l-.9.16h-.1v-.25a.33.33,0,0,0,.1,0Z"/><path class="cls-2" d="M403.83,140.22v1.44l-2.62,2.08h-.43a.88.88,0,0,1-.18.1,8.89,8.89,0,0,1-1.49.13l-1.19-.27-.92.51-4.23,1.6v1.06h-.1v-4.19h1.9l7.08-2.47Z"/><path class="cls-3" d="M389.92,144l-1.72,0a16.5,16.5,0,0,1-2.05-.05l-.48-.23c-1-.5-3-1.63-3-1.63l.95-.86,4.93,2.05Z"/><path class="cls-3" d="M402.66,142.11s-1.33,1.24-1.88,1.63a.88.88,0,0,1-.18.1,8.89,8.89,0,0,1-1.49.13l-1.19-.27-1.75-.4,4.92-2.05Z"/><path class="cls-1" d="M403.83,140.22v1.44l-2.62,2.08h-2l1.6-.83,1.45-.8a5.08,5.08,0,0,0-.87-.44c0,.05-1.62,1-2.9,1.69l-.61.34-.92.51-4.23,1.6v-3.12h1.8l7.08-2.47Z"/><path class="cls-1" d="M392.77,142.69v3.12l-.1,0-4.13-1.56-.34-.19-1.19-.66c-1.28-.73-2.9-1.64-2.9-1.69a5.08,5.08,0,0,0-.87.44l1.45.8,1.6.83h-2l-2.62-2.08v-1.44h2.18l7.08,2.47Z"/><path class="cls-1" d="M361.28,155.61c-.08-.33-.14-.66-.19-1L360,146.94l-2.61-17.86,0,0,0,.22L360,147l1.13,7.73C361.16,155,361.21,155.3,361.28,155.61Z"/></g><g id="Calque_7" data-name="Calque 7"><path class="cls-4" d="M374.09,80.19s-.86,8.27-3.61,12.3c-4.13,6.06-9.41,8-11.59,11.23-1.93,2.87-2.32,13.06-2.32,13.06s-4.85-8.4-5-11.45c-.12-2.2,2.71-8.52,2.71-8.52l-5.15,2.91s-.62-7.18.14-9.5c.68-2.09,4.75-6.8,4.75-6.8l-3.93.18s4.51-8.6,11.27-10.43c2.26-.61,9.4,1.08,9.4,1.08s1.68-9.82,21.89-10.6c23.76-.92,38.12,12.11,38.12,12.11l-5,1.84a12.81,12.81,0,0,1,8.6,7.35c1.48,3.48,3.33,13.84,3.33,13.84l-4.33-2.2a26.43,26.43,0,0,1-.44,15.73c-.62,1.79-4.46,9-4.46,9s0-10.47-4-18.57a33.14,33.14,0,0,0-6.55-8.64L417,98.89s-8.17-11.3-22.76-11.35C388.75,87.52,374.09,80.19,374.09,80.19Z"/></g></svg>