<svg xmlns="http://www.w3.org/2000/svg" viewBox="0 0 788 1005"><defs><style>.cls-1{fill:#a85b3b;}.cls-2{fill:#3e322e;}.cls-3{fill:#854532;}.cls-4{fill:#6f3c25;}</style></defs><g id="Calque_9" data-name="Calque 9"><path class="cls-1" d="M360.53,121.94l-6-4-4.69,4,1,14.11s5.35,8.27,6,9.25,5.52,1.78,5.52,1.78l3.51-14.92Z"/><path class="cls-1" d="M428.91,121.94l7.06-4,3.64,4-1,14.11s-5.35,8.27-6,9.25-5.52,1.78-5.52,1.78l-3.51-14.92Z"/><path class="cls-1" d="M432.07,100.05a29.76,29.76,0,0,0-10.38-17.21l-4.25-3.47a29.69,29.69,0,0,0-17-6.65l-5.63-.35h-.11l-5.63.35a29.69,29.69,0,0,0-17,6.65l-4.26,3.47a29.73,29.73,0,0,0-10.36,17.21c-.5,2.48-.89,4.46-.89,4.63,0,.48,2.71,14.8,2.71,14.8v8l.16,1.08,3.69,25.34a13.86,13.86,0,0,0,3.41,7.28s12.17,11.42,16.53,14.86c1.65,1.3,10.57,2.83,11.61,3v0h.11l.89-.16.57-.1c2.88-.53,8.83-1.71,10.14-2.75,4.37-3.44,16.54-14.86,16.54-14.86a13.94,13.94,0,0,0,3.41-7.28l3.72-25.52.13-.9v-8s2.71-14.32,2.71-14.8C433,104.51,432.56,102.53,432.07,100.05Z"/><path class="cls-2" d="M390.71,143.39l-4.93-2.06-.94.87s3.14,1.75,3.46,1.86,3.78,0,3.78,0Z"/><path class="cls-2" d="M398.32,143.39l4.93-2.06,1.56.87a18.72,18.72,0,0,1-2.06,1.73,8.79,8.79,0,0,1-1.48.13Z"/><path class="cls-3" d="M394.92,145.9l4.23-1.6s.7-.38,1.54-.86c1.28-.72,2.89-1.64,2.89-1.68a5.08,5.08,0,0,1,.87.44L403,143l-1.6.84h2l2.61-2.08v-1.44H403.8l-7.07,2.47h-1.81Z"/><path class="cls-3" d="M394.92,145.9l-4.23-1.6-1.53-.86c-1.28-.72-2.9-1.64-2.9-1.68a5.08,5.08,0,0,0-.87.44l1.45.79,1.6.84h-2l-2.61-2.08v-1.44h2.18l7.07,2.47h1.8Z"/><path class="cls-3" d="M428.3,140.31l1.92-13.19s4.74-4.67,5.12-4.76.63,2,.63,2l-1.14,9.42-2.7,4.71Z"/><path class="cls-3" d="M361.35,141.33l-1.92-13.19s-4.74-4.66-5.12-4.75-.64,2-.64,2l1.15,9.43,2.69,4.7Z"/></g><g id="Calque_1" data-name="Calque 1"><path class="cls-4" d="M410.32,86.51a67.31,67.31,0,0,0-13.62,5.65c-4.86,2.91-21.14,8.25-21.14,8.25l2.82-7.3S367.7,100,364.82,103c-5.91,6.22-5.41,17.35-5.41,17.35s-8.29-21.67-4.56-32.34c-1.53,1.41-5.78,2.53-5.78,2.53S354.12,74.11,360,68.32c9-8.9,18.42-7.73,18.42-7.73l-6.26-3.25s15.42-4.38,25.57-2.83c13.31,2.05,18.13,10.43,18.13,10.43s10.28-4.45,18.45,8.11c6.19,9.53,3.45,21.48,3.45,21.48l-7.39,25.86s-.1-18.16-.64-20.92c-.42-2.17-.73-9.91-.73-9.91l-1.8,5.51s-5-2.79-8.45-11.14C418,82.19,410.32,86.51,410.32,86.51Z"/></g></svg>