<svg xmlns="http://www.w3.org/2000/svg" viewBox="0 0 188 199.76"><defs><style>.cls-1{fill:#944e31;}.cls-2{fill:#a85b3b;}.cls-3{fill:#613b32;}.cls-4{fill:#3c2824;}.cls-5{fill:#4f3d3b;}</style></defs><g id="Calque_7" data-name="Calque 7"><path class="cls-1" d="M60.17,147h0c-1-.17-4.7-.89-5.28-1.73s-6-9.25-6-9.25L47.52,121l5-3.06,4.91,3.26,2.72,5.31,3.54,3.81,1.21,15.58Z"/><path class="cls-1" d="M137.65,121.94l-1,14.11s-5.36,8.27-6,9.25c-.53.77-3.7,1.44-5,1.68L122,145.9l2.2-21,4.22-3.78,5.91-4.14Z"/><path class="cls-2" d="M102.14,136.41a3.23,3.23,0,0,0-.94-1.85l-1.11-1.1-.87,3.13,1.36-1.53,1.69,2.25Zm-16.31-2.95-1.11,1.1a3.23,3.23,0,0,0-.94,1.85l-.13.9,1.69-2.25,1.36,1.53Z"/><path class="cls-2" d="M102.14,136.41a3.23,3.23,0,0,0-.94-1.85l-1.11-1.1-.87,3.13,1.36-1.53,1.69,2.25Zm-16.31-2.95-1.11,1.1a3.23,3.23,0,0,0-.94,1.85l-.13.9,1.69-2.25,1.36,1.53Z"/><path class="cls-2" d="M86.7,136.59l-1.36-1.53-1.69,2.25.13-.9a3.23,3.23,0,0,1,.94-1.85l1.11-1.1Z"/><path class="cls-2" d="M93,142.78V147h-.1v-1.11l-4.13-1.56-.34-.19a16.5,16.5,0,0,1-2-.05l-.48-.23H84.52l-2.62-2.08v-1.44h2.18l7.08,2.47Z"/><path class="cls-2" d="M93,179.69v.25h-.1c-1-.18-10-1.71-11.61-3-4.37-3.44-16.54-14.86-16.54-14.86a13,13,0,0,1-1.79-2.53A14.07,14.07,0,0,0,64.68,162s12.18,11.42,16.55,14.87c1.31,1,7.26,2.22,10.13,2.74.12,0,.86.07,1.5.11Z"/><polygon class="cls-2" points="92.96 73.27 92.96 73.28 92.91 73.27 92.96 73.27"/><path class="cls-2" d="M102.27,137.31l-1.69-2.25-1.36,1.53.87-3.13,1.11,1.1a3.23,3.23,0,0,1,.94,1.85Z"/><polygon class="cls-2" points="92.91 73.27 92.86 73.28 92.86 73.27 92.91 73.27"/><path class="cls-2" d="M130.19,101a29.79,29.79,0,0,0-10.38-17.21l-4.25-3.47a29.83,29.83,0,0,0-17-6.65L93,73.28h-.1l-5.63.35a29.83,29.83,0,0,0-17,6.65L66,83.75A29.78,29.78,0,0,0,55.63,101c-.5,2.48-.88,4.46-.88,4.63,0,.48,2.7,14.8,2.7,14.8v8l.13.86,0,.22L60.17,147l1.13,7.73c.05.31.1.62.17.93s.17.71.27,1.06.16.48.24.72c.16.42.33.83.52,1.23,0,0,0,.1.07.14.11.23.23.45.35.67A14.07,14.07,0,0,0,64.68,162s12.18,11.42,16.55,14.87c1.31,1,7.26,2.22,10.13,2.74.12,0,.86.07,1.5.11H93l.9.07.57-.1c2.88-.53,8.83-1.71,10.13-2.75,4.37-3.44,16.55-14.86,16.55-14.86a13.92,13.92,0,0,0,3.4-7.28l1.14-7.79,2.59-17.73.13-.9v-8s2.7-14.32,2.7-14.8C131.07,105.42,130.68,103.44,130.19,101ZM104,141.75l-2.62,2.08H101a.88.88,0,0,1-.18.1,8.89,8.89,0,0,1-1.49.13l-1.19-.27-.92.51L93,145.9V147h-.1v-1.11l-4.13-1.56-.34-.19a16.5,16.5,0,0,1-2-.05l-.48-.23H84.52l-2.62-2.08v-1.44h2.18l7.08,2.47h3.6l7.08-2.47H104Z"/><path class="cls-2" d="M93.86,179.76l-.9.16h-.1v-.25H93Z"/><path class="cls-2" d="M104,140.31v1.44l-2.62,2.08H101a.88.88,0,0,1-.18.1,8.89,8.89,0,0,1-1.49.13l-1.19-.27-.92.51L93,145.9V147h-.1v-4.19h1.9l7.08-2.47Z"/><path class="cls-3" d="M90.11,144.09l-1.72,0a16.5,16.5,0,0,1-2-.05l-.48-.23c-1-.5-3-1.63-3-1.63l.95-.86,4.93,2Z"/><path class="cls-3" d="M102.85,142.2s-1.33,1.24-1.88,1.63a.88.88,0,0,1-.18.1,8.89,8.89,0,0,1-1.49.13l-1.19-.27-1.75-.4,4.92-2Z"/><path class="cls-1" d="M104,140.31v1.44l-2.62,2.08h-2L101,143l1.45-.8a5.08,5.08,0,0,0-.87-.44c0,.05-1.62,1-2.9,1.69l-.61.34-.92.51L93,145.9v-3.12h1.8l7.08-2.47Z"/><path class="cls-1" d="M93,142.78v3.12l-.1,0-4.13-1.56-.34-.19-1.19-.66c-1.28-.73-2.9-1.64-2.9-1.69a5.08,5.08,0,0,0-.87.44l1.45.8,1.6.83h-2l-2.62-2.08v-1.44h2.18l7.08,2.47Z"/><path class="cls-1" d="M61.47,155.7c-.08-.33-.14-.66-.19-1L60.16,147l-2.61-17.86,0,0,0,.22L60.17,147l1.13,7.73C61.35,155.08,61.4,155.39,61.47,155.7Z"/></g><g id="Calque_1" data-name="Calque 1"><path class="cls-4" d="M59,121.31l-2.72-15.72L66.94,83.75l26.33,3.13s26.32-1.55,26.66-1.18,8.62,19.89,8.62,19.89L126,120.39v.92s5.72-2.77,5.34-3.37c-.28-.45,9.51-4.91,6.21-19.19-1.22-5.27-6.06-20.19-13.48-29.86-6.75-8.81-44.5-11.43-56.88-4-8.65,5.22-18.11,37.69-18.5,37.31s5.52,15.71,5.52,15.71Z"/><path class="cls-5" d="M138.22,88.8,49.07,106.26,44,78.36A23.54,23.54,0,0,1,62.65,51.05l42.93-8.41a23.54,23.54,0,0,1,27.69,18.9Z"/><path class="cls-5" d="M56.87,97.22l-45.16,8.84a7.37,7.37,0,0,0-5.81,8.65l-.29.05,52.68-10.31Z"/></g></svg>