<?xml version="1.0" encoding="utf-8"?>
<!-- Generator: Adobe Illustrator 25.4.1, SVG Export Plug-In . SVG Version: 6.00 Build 0)  -->
<svg version="1.1" id="Calque_1" xmlns="http://www.w3.org/2000/svg" xmlns:xlink="http://www.w3.org/1999/xlink" x="0px" y="0px"
	 viewBox="0 0 788 1005.1" style="enable-background:new 0 0 788 1005.1;" xml:space="preserve">
<style type="text/css">
	.st0{fill:#3D332F;}
	.st1{fill:#F7A386;}
	.st2{fill:#E7A09B;}
	.st3{fill:#BC6860;}
	.st4{fill:#A16559;}
</style>
<g id="Calque_3">
	<path class="st0" d="M370.2,148l2.2-6.2l3.6-27.9l28,1.9l32.4-0.7l6.1,17.7l-1.5,16.2c0,0,19.9-37.2,21.5-40.3s32.2-55.1-5.9-62.5
		c-47.3-9.1-106.9,20.7-110.9,40.2S369.1,146.4,370.2,148z"/>
	<path class="st1" d="M372.4,141.8l-8.4-2.4l-2.3,2.4l1,14.1c0,0,5.4,8.3,6,9.2s5.5,1.8,5.5,1.8l3.5-14.9L372.4,141.8z"/>
	<path class="st1" d="M440.8,141.8l8.4-2.4l2.3,2.4l-1,14.1c0,0-5.4,8.3-6,9.2s-5.5,1.8-5.5,1.8l-3.5-14.9L440.8,141.8z"/>
	<path class="st1" d="M445,125.5c0,0.5-2.7,14.8-2.7,14.8v8l-0.1,0.9l-3.7,25.5c-0.4,2.7-1.6,5.2-3.5,7.2c0,0-12.2,11.4-16.5,14.9
		c-1.3,1-7.3,2.2-10.1,2.8l-0.6,0.1l-0.9,0.2h0v0h-0.1c-1-0.2-10-1.7-11.6-3c-4.4-3.4-16.5-14.9-16.5-14.9c-1.8-2-3-4.6-3.4-7.3
		l-3.7-25.3l-0.2-1.1v-8c0,0-2.7-14.3-2.7-14.8c0-0.2,0.4-2.2,0.9-4.6c1.4-6.8,5-12.8,10.4-17.2l4.2-3.5c4.8-3.9,10.8-6.3,17-6.6
		l5.6-0.4h0.1l0,0l5.6,0.4c6.2,0.4,12.2,2.7,17,6.6l4.3,3.5c5.4,4.4,9,10.5,10.4,17.2C444.6,123.3,445,125.3,445,125.5z"/>
	<polygon class="st2" points="417.4,143.5 422.6,137.6 435.5,139.2 436.8,131.2 438.9,132.9 445,125.4 442.2,141.2 437.7,140.5 
		426.9,145.9 	"/>
	<path class="st2" d="M442.1,149.1l-3.7,25.5c-0.4,2.7-1.6,5.2-3.4,7.3c0,0-11.8,12-16.5,14.9c-3.5,2.1-11.4,3-11.6,3
		c0.1-0.6,0.5-1.2,1-1.5l1.5-0.1c2.6-0.2,5-1.8,6.2-4.2l8.1-16.2c0,0,8.7-20,9.3-20.3s5.7-3.7,5.7-3.7L442.1,149.1z"/>
	<path class="st2" d="M408.3,199.5c-0.5,0.1-1,0.2-1.5,0.3c-3,0-10.1-1.7-11.7-3c-4.4-3.4-16.5-14.9-16.5-14.9c-1.8-2-3-4.6-3.4-7.3
		l-3.7-25.3l3.2,4.6c0,0,5.1,3.3,5.7,3.7s9.3,20.3,9.3,20.3l8.1,16.1c1.2,2.4,3.6,4,6.3,4.2l2.5,0.1h0.1h1
		C408.1,198.6,408.2,199.1,408.3,199.5z"/>
	<path class="st3" d="M406.5,162c0,0-5.4-2.2-5.6-2.4s-1,1.2-1,1.2l-3.9,1.3l0.5,3.1l3.2,1.2l4.2-1.2l2.5,1.1L406.5,162z"/>
	<path class="st0" d="M402.7,164.1l-2.2-2.1l-3,1c0,0,0.4,1.5,0.8,1.6l2.6,0.9L402.7,164.1z"/>
	<path class="st3" d="M406.5,162c0,0,5.4-2.2,5.6-2.4s1,1.2,1,1.2l3.9,1.2l-0.5,3.1l-3.2,1.2l-4.2-1.2l-2.5,1.1L406.5,162z"/>
	<path class="st0" d="M410,164.1l2.2-2.1l3,1c0,0-0.4,1.5-0.8,1.6l-2.6,0.9L410,164.1z"/>
	<path class="st4" d="M440.3,161.4l1.9-13.2c0,0,4.7-4.7,5.1-4.8s0.6,2.1,0.6,2.1l-1.1,9.4l-2.7,4.7L440.3,161.4z"/>
	<path class="st4" d="M373.4,162.4l-1.9-13.2c0,0-4.7-4.7-5.1-4.8s-0.6,2.1-0.6,2.1l1.1,9.4l2.7,4.7L373.4,162.4z"/>
	<path class="st0" d="M347.2,94.1c0.9-1.2,12.1,16.3,13.8,16.1c18.1-1.7,11.4-48.6,42.6-31.3c4,1.8,8.5,2.1,12.8,0.9
		c18.7-4.8,23.9,18.9,23.9,18.9s3.2-18.6,3-19.9s-29.1-20.8-31.5-21.7s-22.4,0-23.6,0s-28.7,14.9-30,15.5S347.2,94.1,347.2,94.1z"/>
	<path class="st0" d="M406,106.8l28.6-5.6l-36.4-21.8l-39.1,25.1l29.9,3C394.6,108.1,400.4,107.9,406,106.8z"/>
</g>
</svg>
