<svg xmlns="http://www.w3.org/2000/svg" viewBox="0 0 188 167.78"><defs><style>.cls-1{fill:#a85b3b;}.cls-2{fill:#854532;}.cls-3{fill:#382d28;}</style></defs><g id="Calque_9" data-name="Calque 9"><path class="cls-1" d="M60.53,101.6l-6-4-4.69,4,1,14.11s5.35,8.28,6,9.25,5.52,1.79,5.52,1.79l3.51-14.93Z"/><path class="cls-1" d="M128.91,101.6l7.06-4,3.64,4-1,14.11s-5.35,8.28-6,9.25-5.52,1.79-5.52,1.79l-3.51-14.93Z"/><path class="cls-1" d="M132.07,79.71A29.79,29.79,0,0,0,121.69,62.5L117.44,59a29.75,29.75,0,0,0-17-6.64L94.84,52h-.11l-5.63.36c-6.21.38-12.29-7.5-17.11-3.56L61.35,52C56,56.38,58.86,73,57.51,79.71c-.5,2.48-.89,4.46-.89,4.63,0,.48,2.71,14.81,2.71,14.81v8l.16,1.07,3.69,25.35a13.87,13.87,0,0,0,3.41,7.27s12.17,11.42,16.53,14.87c1.65,1.29,10.57,2.82,11.61,3v0h.11v0l.89-.15.57-.11c2.88-.52,8.83-1.71,10.14-2.74C110.81,152.22,123,140.8,123,140.8a13.94,13.94,0,0,0,3.41-7.27L130.11,108l.13-.89v-8S133,84.82,133,84.34C133,84.17,132.56,82.19,132.07,79.71Z"/><path class="cls-2" d="M94.92,125.56,99.15,124l1.54-.86c1.28-.72,2.89-1.64,2.89-1.68s.87.43.87.43l-1.45.8-1.6.83h2l2.61-2.07V120H103.8l-7.07,2.47H94.92Z"/><path class="cls-2" d="M94.92,125.56,90.69,124l-1.53-.86c-1.28-.72-2.9-1.64-2.9-1.68s-.87.43-.87.43l1.45.8,1.6.83h-2l-2.61-2.07V120h2.18l7.07,2.47h1.8Z"/><path class="cls-2" d="M128.3,120l1.92-13.19s4.74-4.66,5.12-4.76.63,2,.63,2l-1.14,9.43-2.7,4.7Z"/><path class="cls-2" d="M61.35,121l-1.92-13.19s-4.74-4.67-5.12-4.76-.64,2-.64,2l1.15,9.43,2.69,4.7Z"/></g><g id="Calque_7" data-name="Calque 7"><path class="cls-3" d="M80.76,55.42s12.56,6.67,38.85,13.44c13,3.35,12.67,21.57,12.67,21.57s-.75-1.48,5.89-8.06c4.56-4.51,4.45-36.1-8.57-43.8-9.54-5.64-25.21-7.65-37.11-6.85C79.09,32.63,78.84,39,78.84,39s-12.67-1.72-16.34-.3c-9.8,3.77-16.14,11.68-15.18,25,.51,7.13,10,24.78,10,24.78s2.12-14.94,7.5-22.63A24.73,24.73,0,0,1,80.76,55.42Z"/></g></svg>