<svg xmlns="http://www.w3.org/2000/svg" viewBox="0 0 188 167.78"><defs><style>.cls-1{fill:#a85b3b;}.cls-2{fill:#854532;}.cls-3{fill:#3c2824;}</style></defs><g id="Calque_9" data-name="Calque 9"><path class="cls-1" d="M60.53,101.6l-6-4-4.69,4,1,14.11s5.35,8.28,6,9.25,5.52,1.79,5.52,1.79l3.51-14.93Z"/><path class="cls-1" d="M128.91,101.6l7.06-4,3.64,4-1,14.11s-5.35,8.28-6,9.25-5.52,1.79-5.52,1.79l-3.51-14.93Z"/><path class="cls-1" d="M129.36,70.24c-1.36-6.76-2.32-3.38-7.67-7.74L117.44,59a29.75,29.75,0,0,0-17-6.64L94.84,52h-.11l-5.63.36a29.75,29.75,0,0,0-17,6.64L67.87,62.5c-5.34,4.36-9,.1-10.36,6.86-.5,2.48-2.5,10.07-2.57,14-.11,5.72,4.39,15.81,4.39,15.81v8l.16,1.07,3.69,25.35a13.87,13.87,0,0,0,3.41,7.27s12.17,11.42,16.53,14.87c1.65,1.29,10.57,2.82,11.61,3v0h.11v0l.89-.15.57-.11c2.88-.52,8.83-1.71,10.14-2.74C110.81,152.22,123,140.8,123,140.8a13.94,13.94,0,0,0,3.41-7.27L130.11,108l.13-.89v-8S133.1,88.1,133,84.34,129.85,72.72,129.36,70.24Z"/><path class="cls-2" d="M94.92,125.56,99.15,124l1.54-.86c1.28-.72,2.89-1.64,2.89-1.68s.87.43.87.43l-1.45.8-1.6.83h2l2.61-2.07V120H103.8l-7.07,2.47H94.92Z"/><path class="cls-2" d="M94.92,125.56,90.69,124l-1.53-.86c-1.28-.72-2.9-1.64-2.9-1.68s-.87.43-.87.43l1.45.8,1.6.83h-2l-2.61-2.07V120h2.18l7.07,2.47h1.8Z"/><path class="cls-2" d="M128.3,120l1.92-13.19s4.74-4.66,5.12-4.76.63,2,.63,2l-1.14,9.43-2.7,4.7Z"/><path class="cls-2" d="M61.35,121l-1.92-13.19s-4.74-4.67-5.12-4.76-.64,2-.64,2l1.15,9.43,2.69,4.7Z"/></g><g id="Calque_7" data-name="Calque 7"><path class="cls-3" d="M129.51,71.46s-18.58-9.37-39-10.48C64.85,59.59,61,72.29,55.44,77.8c-7.2,0-13.21-37.21,18.38-38.37,11-.41,45.53,5.25,49.09,2.8,1.94-1.33.9-6.64-1.57-9.27s11.8,8.35,14.53,12.35c1.88,2.75,2.63,10.45,1.88,13.69C136.78,63.25,129.51,71.46,129.51,71.46Z"/></g></svg>