<svg xmlns="http://www.w3.org/2000/svg" viewBox="0 0 788 1005.07"><defs><style>.cls-1{fill:#f7a386;}.cls-2{fill:#e7a09b;}.cls-3{fill:#bc6860;}.cls-4{fill:#3d332f;}.cls-5{fill:#a16559;}.cls-6{fill:#422915;}</style></defs><g id="Calque_3" data-name="Calque 3"><path class="cls-1" d="M372.44,141.79l-8.36-2.43-2.34,2.43,1,14.11s5.36,8.28,6,9.25,5.51,1.79,5.51,1.79L377.8,152Z"/><path class="cls-1" d="M440.83,141.79l8.36-2.43,2.34,2.43-1,14.11s-5.35,8.28-6,9.25-5.52,1.79-5.52,1.79L435.48,152Z"/><path class="cls-1" d="M406.84,93.13V199.79h-.1c-1.05-.17-10-1.71-11.61-3-4.37-3.44-16.54-14.87-16.54-14.87a13.85,13.85,0,0,1-3.4-7.27l-3.7-25.34-.16-1.08v-8s-2.7-14.33-2.7-14.8c0-.18.38-2.16.88-4.64a29.83,29.83,0,0,1,10.37-17.21l4.25-3.47a29.78,29.78,0,0,1,17-6.64l5.63-.36h.1Z"/><path class="cls-1" d="M445,125.45c0,.47-2.7,14.8-2.7,14.8v8l-.13.89-3.72,25.53A14,14,0,0,1,435,181.9s-12.18,11.43-16.54,14.87c-1.31,1-7.26,2.22-10.14,2.75l-.57.1-.9.16h-.1V93.13h.1l5.63.36a29.75,29.75,0,0,1,17,6.64l4.26,3.47a29.78,29.78,0,0,1,10.37,17.21C444.56,123.29,445,125.27,445,125.45Z"/><polygon class="cls-2" points="417.41 143.52 422.6 137.57 435.49 139.22 436.78 131.19 438.85 132.92 444.95 125.44 442.22 141.24 437.72 140.49 426.9 145.93 417.41 143.52"/><path class="cls-2" d="M442.12,149.1l-3.72,25.53A14,14,0,0,1,435,181.9s-11.8,12-16.54,14.87c-3.45,2.11-11.44,3-11.61,3a2.07,2.07,0,0,1,1-1.5l1.55-.12a7.57,7.57,0,0,0,6.16-4.16l8.12-16.17s8.7-20,9.33-20.31,5.74-3.66,5.74-3.66Z"/><path class="cls-2" d="M408.31,199.52a12.68,12.68,0,0,1-1.47.27c-3,0-10.06-1.73-11.71-3-4.37-3.44-16.54-14.87-16.54-14.87a13.85,13.85,0,0,1-3.4-7.27l-3.7-25.34,3.25,4.58s5.1,3.34,5.73,3.66,9.34,20.31,9.34,20.31l8.06,16.06a7.6,7.6,0,0,0,6.32,4.18l2.55.15h.1l1,0A3.61,3.61,0,0,1,408.31,199.52Z"/><path class="cls-3" d="M406.5,162s-5.43-2.16-5.65-2.38-1,1.24-1,1.24L396,162.14l.54,3.13,3.24,1.19,4.22-1.19,2.49,1.07Z"/><path class="cls-4" d="M402.74,164.08,400.58,162l-3,1s.43,1.46.75,1.57l2.59.86Z"/><path class="cls-3" d="M406.5,162s5.39-2.16,5.61-2.38,1,1.24,1,1.24l3.89,1.25-.54,3.13-3.24,1.19L409,165.27l-2.49,1.07Z"/><path class="cls-4" d="M410.05,164.08l2.16-2.05,3,1s-.43,1.46-.76,1.57l-2.59.86Z"/><path class="cls-5" d="M440.32,161.4l1.93-13.19s4.74-4.67,5.12-4.76.63,2.05.63,2.05l-1.14,9.43-2.7,4.7Z"/><path class="cls-5" d="M373.38,162.43l-1.92-13.2s-4.74-4.66-5.12-4.75-.64,2.05-.64,2.05l1.15,9.42,2.69,4.71Z"/><path class="cls-6" d="M442.22,141.24c3.93-26.37-13.78-11.57-33.84-41-1.28-1.88-1.93,2-2.47,3.07s-.59,2.13-2,2.29-1.26.55-3.49-.2-2.18-.75-3.15-.51-1.76,1.45-2.31,2.44-.46,1.45-1.34,1.85-3.65-.48-5.5.08c0,0-23,14.27-16.74,32.06,0,0-4.56-1.39-7.28-2-2.48-.54-3.53-11.05-9.32-13.17s-4.62-6.22-4.62-6.22a11.09,11.09,0,0,1,1.51-3.88c1.29-2.15,1.34-2.85,1.34-4s-.84-2.64-3.23-3.82-2.73-2.4-2.94-3.58,1.09-2.87,4.87-6.14,2.06-8.07,2.06-8.07-3.74-4.72-4.66-8.1,5.58-4.21,6.25-4.53,3.87-1.53,3.74-4.6-2.64-6.65-1.43-8.19,8.57-.94,8.57-.94,3.65,0,5.75-2.4,2.78-9.21,5.42-10.71,8.36,1.54,9.49,2.25a15.12,15.12,0,0,0,6.85,1.41c2.14-.19,4.24-1.3,6.67-4.44s3.91-6.34,8-6.62,7,5.43,7.56,6.22,3.57,4.33,7.94,4.41,7.52-2.48,10.2-3.23,4.33-.55,5.63.32,2.23,3.89,2.65,5.66.58,3.51,3.4,5.4,5.67,1.49,8.19,1.53,3.48-.47,4.78.87.59,3.46-.42,5.51a5.21,5.21,0,0,0,0,5.07c.76,1.58,2.56,2.13,4.79,2.88s4.2,1.57,4.41,4.25-2.1,4.52-2.81,5.66.91,6.44,1.16,9.23-5.69,4.59-4.22,5.73,3.32,2.36,3.27,4.72-2.64,3.15-3.57,3.74-2.68,2.24-2.68,4.09,1.09,3.07,1.84,4.13a6,6,0,0,1,1.31,4c0,1.85-11.08,13.18-12.58,15.57,0,0-5,3-7,1.88"/></g></svg>