<svg xmlns="http://www.w3.org/2000/svg" viewBox="0 0 788 1005"><defs><style>.cls-1{fill:#a85b3b;}.cls-2{fill:#944e31;}.cls-3{fill:#613b32;}.cls-4{fill:#6f3c25;}</style></defs><g id="Calque_7" data-name="Calque 7"><path class="cls-1" d="M363.92,132.16l-.76,3.23-2.75,11.69-.23,0h0c-1-.17-4.7-.89-5.28-1.73s-6-9.25-6-9.25l-1-14.11,4.68-4,4.91,3.26,1.11.74Z"/><path class="cls-1" d="M437.66,121.94l-1,14.11s-5.36,8.27-6,9.25c-.53.77-3.7,1.44-5,1.68l-.54.1-2.71-11.47-.81-3.45L427,121.94l1.42-.8,5.64-3.2Z"/><path class="cls-1" d="M430.2,101a29.79,29.79,0,0,0-10.38-17.21l-4.25-3.47a29.83,29.83,0,0,0-17-6.65L393,73.28h-.1l-5.63.35a29.83,29.83,0,0,0-17,6.65L366,83.75A29.78,29.78,0,0,0,355.64,101c-.5,2.48-.88,4.46-.88,4.63,0,.48,2.7,14.8,2.7,14.8v.81l1.11.74,5.35,10.22-.76,3.23c1.46.94,3.17,2,3.52,2.21s1.92,4,3.65,8c.39.89,5.68,1.66,5.68,1.66l1.27.08,9-1.52,6.55,1.16v-1.11l-4.13-1.56-.34-.19a16.5,16.5,0,0,1-2-.05l-.48-.23h-1.34l-2.62-2.08v-1.44h2.18l7.08,2.47h3.6l7.08-2.47H404v1.44l-2.62,2.08H401a.88.88,0,0,1-.18.1,8.89,8.89,0,0,1-1.49.13l-1.19-.27-.92.51L393,145.9V147l7.39-1,9.44,1.35s5.29-.78,5.68-1.66c1.73-3.95,3.44-7.89,3.65-8s1.88-1.15,3.28-2.06l-.81-3.45L427,121.94l1.42-.8v-.75s2.7-14.32,2.7-14.8C431.08,105.42,430.69,103.44,430.2,101Zm-44.85,34.1-1.69,2.25.13-.9a3.23,3.23,0,0,1,.94-1.85l1.11-1.1.87,3.13Zm15.24,0-1.36,1.53.87-3.13,1.11,1.1a3.23,3.23,0,0,1,.94,1.85l.13.9Z"/><path class="cls-1" d="M386.71,136.59l-1.36-1.53-1.69,2.25.13-.9a3.23,3.23,0,0,1,.94-1.85l1.11-1.1Z"/><path class="cls-1" d="M409.79,158l-9,13.91s-6.05.77-7.48.72c-.17-1.58-.3-2.23-.3-.15v.09h-.1c-1-.17-9.21-2-9.21-2L376,157.91,375,155.65l12.86-6,5.06,1,.1,0,4.74-.91Z"/><path class="cls-1" d="M363.16,135.39l-2.75,11.69-.23,0-2.56-17.61,0-.22-.13-.86V121.2l1.11.74,5.35,10.22Z"/><path class="cls-1" d="M393,142.78V147h-.1v-1.11l-4.13-1.56-.34-.19a16.5,16.5,0,0,1-2-.05l-.48-.23h-1.34l-2.62-2.08v-1.44h2.18l7.08,2.47Z"/><path class="cls-1" d="M392.87,172.55h.1v7.38h-.1c-1.05-.18-10-1.71-11.61-3-4.37-3.44-16.54-14.86-16.54-14.86a13,13,0,0,1-1.79-2.53,14.07,14.07,0,0,0,1.76,2.45s12.18,11.42,16.55,14.87c1.31,1,7.26,2.22,10.13,2.74.12,0,.86.07,1.5.11Z"/><polygon class="cls-1" points="392.97 73.27 392.97 73.28 392.92 73.27 392.97 73.27"/><path class="cls-1" d="M402.28,137.31l-1.69-2.25-1.36,1.53.87-3.13,1.11,1.1a3.23,3.23,0,0,1,.94,1.85Z"/><polygon class="cls-1" points="392.92 73.27 392.87 73.28 392.87 73.27 392.92 73.27"/><path class="cls-1" d="M393.75,178.21a14.13,14.13,0,0,1,.12,1.55l-.9.16h-.1v-7.39h.1v-.09c0-2.08.13-1.43.3.15.15,1.37.31,3.44.43,5a.38.38,0,0,0,0,.1c0,.16,0,.31,0,.46S393.76,178.2,393.75,178.21Z"/><path class="cls-1" d="M401.85,140.31H404v1.44l-2.62,2.08H401a.88.88,0,0,1-.18.1,8.89,8.89,0,0,1-1.49.13l-1.19-.27-.92.51L393,145.9V147h-.1v-4.19h1.9Z"/><path class="cls-1" d="M428.38,121.14v7.21l-.13.9L425.66,147l-.54.1-2.71-11.47-.81-3.45L427,121.94Z"/><path class="cls-2" d="M393.27,172.62a.78.78,0,0,1-.27,0l0,0v-.09C393,170.39,393.1,171,393.27,172.62Z"/><path class="cls-2" d="M393.75,178.21a14.13,14.13,0,0,1,.12,1.55C393.86,179.64,393.81,179,393.75,178.21Z"/><path class="cls-2" d="M428.25,129.25,425.66,147l-.54.1-2.71-11.47c1.29-.82,2.45-1.59,2.45-1.59Z"/><path class="cls-3" d="M390.12,144.09l-1.72,0a16.5,16.5,0,0,1-2-.05l-.48-.23c-1-.5-3-1.63-3-1.63l.95-.86,4.93,2Z"/><path class="cls-3" d="M402.86,142.2s-1.33,1.24-1.88,1.63a.88.88,0,0,1-.18.1,8.89,8.89,0,0,1-1.49.13l-1.19-.27-1.75-.4,4.92-2Z"/><path class="cls-2" d="M402.28,137.31l-1.69-2.25-1.36,1.53.87-3.13,1.11,1.1a3.23,3.23,0,0,1,.94,1.85Z"/><path class="cls-2" d="M404,140.31v1.44l-2.62,2.08h-2l1.6-.83,1.45-.8a5.08,5.08,0,0,0-.87-.44c0,.05-1.62,1-2.9,1.69l-.61.34-.92.51L393,145.9v-3.12h1.8l7.08-2.47Z"/><path class="cls-2" d="M393,142.78v3.12l-.1,0-4.13-1.56-.34-.19-1.19-.66c-1.28-.73-2.9-1.64-2.9-1.69a5.08,5.08,0,0,0-.87.44l1.45.8,1.6.83h-2l-2.62-2.08v-1.44h2.18l7.08,2.47Z"/><path class="cls-2" d="M386.71,136.59l-1.36-1.53-1.69,2.25.13-.9a3.23,3.23,0,0,1,.94-1.85l1.11-1.1Z"/><path class="cls-2" d="M425.66,147l-1.14,7.79a13.92,13.92,0,0,1-3.4,7.28s-12.18,11.42-16.55,14.86c-1.3,1-7.25,2.22-10.13,2.75l-.57.1a14.13,14.13,0,0,0-.12-1.55s0,0,0,0,0-.3,0-.46a.38.38,0,0,1,0-.1c-.12-1.56-.28-3.63-.43-5,1.43,0,7.48-.72,7.48-.72l9-13.91-12.08-8.26-4.74.91-.1,0-5.06-1-12.86,6,1.07,2.26,7.64,12.66s8.18,1.81,9.21,2v7.14c-.64,0-1.38-.09-1.5-.11-2.87-.52-8.82-1.71-10.13-2.74-4.37-3.45-16.55-14.87-16.55-14.87a14.07,14.07,0,0,1-1.76-2.45c-.12-.22-.24-.44-.35-.67,0,0,0-.09-.07-.14-.19-.4-.36-.81-.52-1.23-.08-.24-.17-.48-.24-.72s-.19-.7-.27-1.06-.12-.62-.17-.93L360.18,147l.23,0,2.75-11.69c1.46.94,3.17,2,3.52,2.21s1.92,4,3.65,8c.39.89,5.68,1.66,5.68,1.66l1.27.08,9-1.52,6.55,1.16h.1l7.39-1,9.44,1.35s5.29-.78,5.68-1.66c1.73-3.95,3.44-7.89,3.65-8s1.88-1.15,3.28-2.06l2.71,11.47Z"/><path class="cls-2" d="M360.41,147.08l-.23,0,1.13,7.73c.05.31.1.62.17.93-.08-.33-.14-.66-.19-1L360.17,147l-2.61-17.86,0,0,3.36,4.73s1,.68,2.21,1.45Z"/><path class="cls-2" d="M393.87,179.76l-.9-.07h-.1v-7.14h.1l0,0c.13.29.48,3,.7,5a.38.38,0,0,0,0,.1c0,.16,0,.31,0,.46s0,0,0,0A14.13,14.13,0,0,1,393.87,179.76Z"/></g><g id="Calque_1" data-name="Calque 1"><path class="cls-4" d="M407.21,87.87a62.39,62.39,0,0,0-13,5.64c-4.63,2.92-20.17,8.25-20.17,8.25l2.69-7.29s-10.2,6.9-12.94,9.93c-5.65,6.22-6.71,15.8-6.71,15.8s-6.38-20.13-2.81-30.79c-1.46,1.4-5.52,2.52-5.52,2.52s4.82-16.47,10.4-22.25c8.58-8.9,17.58-7.74,17.58-7.74l-6-3.24s14.73-4.39,24.41-2.83c12.71,2,17.31,10.43,17.31,10.43s9.81-4.46,17.61,8.1c5.91,9.54,3.3,21.48,3.3,21.48l-5,23.34s-2.18-15.63-2.7-18.4c-.4-2.16-.7-9.9-.7-9.9l-1.71,5.5s-4.82-2.79-8.07-11.13C414.54,83.54,407.21,87.87,407.21,87.87Z"/></g></svg>