<?xml version="1.0" encoding="utf-8"?>
<!-- Generator: Adobe Illustrator 25.4.1, SVG Export Plug-In . SVG Version: 6.00 Build 0)  -->
<svg version="1.1" id="Calque_1" xmlns="http://www.w3.org/2000/svg" xmlns:xlink="http://www.w3.org/1999/xlink" x="0px" y="0px"
	 viewBox="0 0 788 1005.1" style="enable-background:new 0 0 788 1005.1;" xml:space="preserve">
<style type="text/css">
	.st0{fill:#4C3726;}
	.st1{fill:#F7A386;}
	.st2{fill:#E59690;}
	.st3{fill:#B07671;}
	.st4{fill:#CD766D;}
</style>
<path class="st0" d="M381.6,114c-2.6,0.5-24.9,30.4-25.4,34.4s-3.6,15.5-2.1,18.5s11.6,14.6,11.6,14.6l9.6,3.2l10.9-3.1l3.2-52.3
	L381.6,114z"/>
<path class="st1" d="M372.4,141.8l-8.4-2.4l-2.3,2.4l1,14.1c0,0,5.4,8.3,6,9.2s5.5,1.8,5.5,1.8l3.5-14.9L372.4,141.8z"/>
<path class="st1" d="M440.8,141.8l8.4-2.4l2.3,2.4l-1,14.1c0,0-5.4,8.3-6,9.2s-5.5,1.8-5.5,1.8l-3.5-14.9L440.8,141.8z"/>
<path class="st1" d="M445,125.5c0,0.5-2.7,14.8-2.7,14.8v8l-0.1,0.9l-3.7,25.5c-0.4,2.7-1.6,5.2-3.5,7.2c0,0-12.2,11.4-16.5,14.9
	c-1.3,1-7.3,2.2-10.1,2.8l-0.6,0.1l-0.9,0.2h0v0h-0.1c-1-0.2-10-1.7-11.6-3c-4.4-3.4-16.5-14.9-16.5-14.9c-1.8-2-3-4.6-3.4-7.3
	l-3.7-25.3l-0.2-1.1v-8c0,0-2.7-14.3-2.7-14.8c0-0.2,0.4-2.2,0.9-4.6c1.4-6.8,5-12.8,10.4-17.2l4.2-3.5c4.8-3.9,10.8-6.3,17-6.6
	l5.6-0.4h0.1l0,0l5.6,0.4c6.2,0.4,12.2,2.7,17,6.6l4.3,3.5c5.4,4.4,9,10.5,10.4,17.2C444.6,123.3,445,125.3,445,125.5z"/>
<polygon class="st2" points="417.4,143.5 422.6,137.6 435.5,139.2 436.8,131.2 438.9,132.9 445,125.4 442.2,141.2 437.7,140.5 
	426.9,145.9 "/>
<path class="st2" d="M442.1,149.1l-3.7,25.5c-0.4,2.7-1.6,5.2-3.4,7.3c0,0-12.2,11.4-16.5,14.9c-1.3,1-7.3,2.2-10.1,2.8l-0.6,0.1
	c-0.1-0.6,0.4-0.1,0.6-0.1s4.3-1.6,5.4-2.7c3.8-3.8,10-19,10-19s5.7-16.1,9.3-20.3c1.1-1.3,4.5-2.6,5.7-3.7
	C440,152.4,441.1,150.8,442.1,149.1z"/>
<path class="st1" d="M408.3,199.5l-0.6,0.1l-0.9,0.2h-0.1l0,0c-1-0.2-10-1.7-11.6-3c-4.4-3.4-16.5-14.9-16.5-14.9
	c-1.8-2-3-4.6-3.4-7.3l-3.7-25.3l3.2,4.6c0,0,5.1,3.3,5.7,3.7s9.3,20.3,9.3,20.3l10,20l6.9,0.4h0.1h1
	C408.1,198.7,408.2,199.1,408.3,199.5z"/>
<polygon class="st2" points="396.2,143.6 391,137.7 378.1,139.3 376.8,131.3 374.7,133 368.6,125.5 371.4,141.3 375.9,140.6 
	386.7,146 "/>
<path class="st1" d="M417,162.1l-0.5,3.1l-3.2,1.2l-4.2-1.2l-2.5,1.1l-2.5-1.1l-4.2,1.2l-3.2-1.2l-0.5-3.1l3.9-1.2
	c0,0,0.8-1.5,1-1.2s5.6,2.4,5.6,2.4s5.4-2.1,5.6-2.4s1,1.2,1,1.2L417,162.1z"/>
<path class="st3" d="M440.3,161.4l1.9-13.2c0,0,4.7-4.7,5.1-4.8s0.6,2.1,0.6,2.1l-1.1,9.4l-2.7,4.7L440.3,161.4z"/>
<path class="st3" d="M373.4,162.4l-1.9-13.2c0,0-4.7-4.7-5.1-4.8s-0.6,2.1-0.6,2.1l1.1,9.4l2.7,4.7L373.4,162.4z"/>
<ellipse class="st0" cx="421.7" cy="61.6" rx="21.5" ry="23.6"/>
<path class="st0" d="M392.6,38c0,0-4.5,28.8,15.5,37.5s-5-13.9-5-13.9C402.1,55.2,395.6,49.7,392.6,38z"/>
<path class="st0" d="M415.8,74c-0.1,1.9,16.4,17.3-18.5,38.1s-59.7,53-24.1,71.9c0,0-58.1-8.6-23.3-46.3
	c22.6-24.6,19.5-63.5,49.8-68.3S415.8,74,415.8,74z"/>
<path class="st0" d="M433.3,73.3c0,0,22.5,13.9,24.1,52.3s-23.1,63-40.9,60.5c0,0,32.4-21.4,24-57.1c-7.3-30.6-28.3-24.1-29.4-43.8
	S433.3,73.3,433.3,73.3z"/>
<path class="st4" d="M408.8,164.7l3.5-2.4l0.9-1.1l-0.9-1.3l-5.7,0.4l-5.5-0.8l-1,1.2l0.7,1.1l3.5,2.7
	C405.5,165.6,407.3,165.6,408.8,164.7z"/>
</svg>
