<svg xmlns="http://www.w3.org/2000/svg" viewBox="0 0 788 1005"><defs><style>.cls-1{fill:#a85b3b;}.cls-2{fill:#854532;}.cls-3{fill:#3c2824;}</style></defs><g id="Calque_9" data-name="Calque 9"><path class="cls-1" d="M360.53,121.94l-6-4-4.69,4,1,14.11s5.35,8.27,6,9.25,5.52,1.78,5.52,1.78l3.51-14.92Z"/><path class="cls-1" d="M428.91,121.94l7.06-4,3.64,4-1,14.11s-5.35,8.27-6,9.25-5.52,1.78-5.52,1.78l-3.51-14.92Z"/><path class="cls-1" d="M429.36,90.57c-1.36-6.76-2.32-3.37-7.67-7.73l-4.25-3.47a29.69,29.69,0,0,0-17-6.65l-5.63-.35h-.11l-5.63.35a29.69,29.69,0,0,0-17,6.65l-4.26,3.47c-5.34,4.36-9,.09-10.36,6.85-.5,2.48-2.5,10.07-2.57,14-.11,5.73,4.39,15.81,4.39,15.81v8l.16,1.08,3.69,25.34a13.86,13.86,0,0,0,3.41,7.28s12.17,11.42,16.53,14.86c1.65,1.3,10.57,2.83,11.61,3v0h.11l.89-.16.57-.1c2.88-.53,8.83-1.71,10.14-2.75,4.37-3.44,16.54-14.86,16.54-14.86a13.94,13.94,0,0,0,3.41-7.28l3.72-25.52.13-.9v-8s2.86-11,2.71-14.8S429.85,93.05,429.36,90.57Z"/><path class="cls-2" d="M394.92,145.9l4.23-1.6s.7-.38,1.54-.86c1.28-.72,2.89-1.64,2.89-1.68a5.08,5.08,0,0,1,.87.44L403,143l-1.6.84h2l2.61-2.08v-1.44H403.8l-7.07,2.47h-1.81Z"/><path class="cls-2" d="M394.92,145.9l-4.23-1.6-1.53-.86c-1.28-.72-2.9-1.64-2.9-1.68a5.08,5.08,0,0,0-.87.44l1.45.79,1.6.84h-2l-2.61-2.08v-1.44h2.18l7.07,2.47h1.8Z"/><path class="cls-2" d="M428.3,140.31l1.92-13.19s4.74-4.67,5.12-4.76.63,2,.63,2l-1.14,9.42-2.7,4.71Z"/><path class="cls-2" d="M361.35,141.33l-1.92-13.19s-4.74-4.66-5.12-4.75-.64,2-.64,2l1.15,9.43,2.69,4.7Z"/></g><g id="Calque_7" data-name="Calque 7"><path class="cls-3" d="M429.51,91.8s-18.58-9.37-39-10.48c-25.64-1.4-29.52,11.31-35.05,16.82-7.2,0-13.21-37.22,18.38-38.38,11-.4,45.53,5.26,49.09,2.81,1.94-1.33.9-6.65-1.57-9.27s11.8,8.35,14.53,12.34c1.88,2.75,2.63,10.45,1.88,13.7C436.78,83.59,429.51,91.8,429.51,91.8Z"/></g></svg>