<svg xmlns="http://www.w3.org/2000/svg" viewBox="0 0 788 1005"><defs><style>.cls-1{fill:#a85b3b;}.cls-2{fill:#854532;}.cls-3{fill:#5b3627;}</style></defs><g id="Calque_9" data-name="Calque 9"><path class="cls-1" d="M360.53,121.94l-6-4-4.69,4,1,14.11s5.35,8.27,6,9.25,5.52,1.78,5.52,1.78l3.51-14.92Z"/><path class="cls-1" d="M428.91,121.94l7.06-4,3.64,4-1,14.11s-5.35,8.27-6,9.25-5.52,1.78-5.52,1.78l-3.51-14.92Z"/><path class="cls-1" d="M432.07,100.05a29.76,29.76,0,0,0-10.38-17.21l-4.25-3.47a29.69,29.69,0,0,0-17-6.65l-5.63-.35h-.11l-5.63.35c-6.21.38-6.19-11.73-11-7.8L367.87,82.84a29.73,29.73,0,0,0-10.36,17.21c-.5,2.48-.89,4.46-.89,4.63,0,.48,2.71,14.8,2.71,14.8v8l.16,1.08,3.69,25.34a13.86,13.86,0,0,0,3.41,7.28s12.17,11.42,16.53,14.86c1.65,1.3,10.57,2.83,11.61,3v0h.11l.89-.16.57-.1c2.88-.53,8.83-1.71,10.14-2.75,4.37-3.44,16.54-14.86,16.54-14.86a13.94,13.94,0,0,0,3.41-7.28l3.72-25.52.13-.9v-8s2.71-14.32,2.71-14.8C433,104.51,432.56,102.53,432.07,100.05Z"/><path class="cls-2" d="M394.92,145.9l4.23-1.6s.7-.38,1.54-.86c1.28-.72,2.89-1.64,2.89-1.68a5.08,5.08,0,0,1,.87.44L403,143l-1.6.84h2l2.61-2.08v-1.44H403.8l-7.07,2.47h-1.81Z"/><path class="cls-2" d="M394.92,145.9l-4.23-1.6-1.53-.86c-1.28-.72-2.9-1.64-2.9-1.68a5.08,5.08,0,0,0-.87.44l1.45.79,1.6.84h-2l-2.61-2.08v-1.44h2.18l7.07,2.47h1.8Z"/><path class="cls-2" d="M428.3,140.31l1.92-13.19s4.74-4.67,5.12-4.76.63,2,.63,2l-1.14,9.42-2.7,4.71Z"/><path class="cls-2" d="M361.35,141.33l-1.92-13.19s-4.74-4.66-5.12-4.75-.64,2-.64,2l1.15,9.43,2.69,4.7Z"/></g><g id="Calque_7" data-name="Calque 7"><path class="cls-3" d="M375.93,72.06s-.9,8.28-3.76,12.31c-4.31,6.06-9.83,8-12.1,11.22-2,2.88-2.42,13.06-2.42,13.06s-5.07-8.4-5.24-11.44c-.13-2.2,2.82-8.53,2.82-8.53l-5.38,2.92s-.64-7.19.15-9.5c.72-2.09,5-6.8,5-6.8l-4.1.17s4.71-8.59,11.76-10.42c2.36-.61,9.82,1.08,9.82,1.08s1.75-9.83,22.85-10.61c24.81-.92,39.8,12.12,39.8,12.12l-5.24,1.83a13.33,13.33,0,0,1,9,7.35c1.55,3.49,3.48,13.85,3.48,13.85l-4.52-2.2a25.36,25.36,0,0,1-.46,15.73c-.65,1.79-4.65,9-4.65,9s0-10.46-4.17-18.56A33.49,33.49,0,0,0,421.66,86l-.93,4.79S412.2,79.46,397,79.41C391.24,79.4,375.93,72.06,375.93,72.06Z"/></g></svg>