<svg xmlns="http://www.w3.org/2000/svg" viewBox="0 0 788 1005"><defs><style>.cls-1{fill:#a85b3b;}.cls-2{fill:#3e322e;}.cls-3{fill:#854532;}.cls-4{fill:#a85d3d;}</style></defs><g id="Calque_9" data-name="Calque 9"><path class="cls-1" d="M360.53,121.94l-6-4-4.69,4,1,14.11s5.35,8.27,6,9.25,5.52,1.78,5.52,1.78l3.51-14.92Z"/><path class="cls-1" d="M428.91,121.94l7.06-4,3.64,4-1,14.11s-5.35,8.27-6,9.25-5.52,1.78-5.52,1.78l-3.51-14.92Z"/><path class="cls-1" d="M432.07,100.05a29.76,29.76,0,0,0-10.38-17.21l-4.25-3.47a29.69,29.69,0,0,0-17-6.65l-5.63-.35h-.11l-5.63.35a29.69,29.69,0,0,0-17,6.65l-4.26,3.47a29.73,29.73,0,0,0-10.36,17.21c-.5,2.48-.89,4.46-.89,4.63,0,.48,2.71,14.8,2.71,14.8v8l.16,1.08,3.69,25.34a13.86,13.86,0,0,0,3.41,7.28s12.17,11.42,16.53,14.86c1.65,1.3,10.57,2.83,11.61,3v0h.11l.89-.16.57-.1c2.88-.53,8.83-1.71,10.14-2.75,4.37-3.44,16.54-14.86,16.54-14.86a13.94,13.94,0,0,0,3.41-7.28l3.72-25.52.13-.9v-8s2.71-14.32,2.71-14.8C433,104.51,432.56,102.53,432.07,100.05Z"/><path class="cls-2" d="M390.71,143.39l-4.93-2.06-.94.87s3.14,1.75,3.46,1.86,3.78,0,3.78,0Z"/><path class="cls-2" d="M398.32,143.39l4.93-2.06,1.56.87a18.72,18.72,0,0,1-2.06,1.73,8.79,8.79,0,0,1-1.48.13Z"/><path class="cls-3" d="M394.92,145.9l4.23-1.6s.7-.38,1.54-.86c1.28-.72,2.89-1.64,2.89-1.68a5.08,5.08,0,0,1,.87.44L403,143l-1.6.84h2l2.61-2.08v-1.44H403.8l-7.07,2.47h-1.81Z"/><path class="cls-3" d="M394.92,145.9l-4.23-1.6-1.53-.86c-1.28-.72-2.9-1.64-2.9-1.68a5.08,5.08,0,0,0-.87.44l1.45.79,1.6.84h-2l-2.61-2.08v-1.44h2.18l7.07,2.47h1.8Z"/><path class="cls-3" d="M428.3,140.31l1.92-13.19s4.74-4.67,5.12-4.76.63,2,.63,2l-1.14,9.42-2.7,4.71Z"/><path class="cls-3" d="M361.35,141.33l-1.92-13.19s-4.74-4.66-5.12-4.75-.64,2-.64,2l1.15,9.43,2.69,4.7Z"/></g><g id="Calque_1" data-name="Calque 1"><polygon class="cls-4" points="423.42 151.07 369.02 151.07 368.96 142.34 370.54 142.46 395.58 144.41 421.8 142.41 421.84 140.77 423.25 141 423.42 151.07"/><path class="cls-1" d="M430.2,101c-1.36-6.76-5.08-18.09-10.43-22.45L415.52,75a29.76,29.76,0,0,0-17-6.65L392.92,68h-.1l-5.63.35a29.83,29.83,0,0,0-17,6.65L366,78.51c-5.35,4.36-9,15.69-10.32,22.45-.5,2.48-.89,4.46-.89,4.63,0,.48,2.71,14.8,2.71,14.8v8l.16,1.08,3.69,25.34a13.86,13.86,0,0,0,3.41,7.28s12.17,11.42,16.53,14.86c1.65,1.3,10.57,2.83,11.62,3v0h.1v0l.89-.16.57-.1c2.88-.53,8.83-1.71,10.14-2.75,4.37-3.44,16.54-14.86,16.54-14.86a13.94,13.94,0,0,0,3.41-7.28l3.72-25.52.13-.9v-8s2.71-14.32,2.71-14.8C431.08,105.42,430.69,103.44,430.2,101Z"/><path class="cls-1" d="M408.87,117.59l-5.52,3s-4.12-2.1-4.16-2.47-.48-7.57-.48-7.57a35.92,35.92,0,0,0,4.46-.6c.27-.09,10.34-2.17,11.35-2.38s11.33,3.32,11.82,3.39.57,4.52.66,4.77a12.39,12.39,0,0,1-1.08,2.39h-5.63l-3.07-3.92s-7.06-.16-7.51.52A11.65,11.65,0,0,0,408.87,117.59Z"/><path class="cls-1" d="M377.65,117.59l5.52,3s4.12-2.1,4.16-2.47.48-7.57.48-7.57a35.92,35.92,0,0,1-4.46-.6c-.27-.09-10.34-2.17-11.35-2.38s-11.33,3.32-11.82,3.39-.57,4.52-.66,4.77a12.39,12.39,0,0,0,1.08,2.39h5.63l3.06-3.92s7.07-.16,7.52.52A11.65,11.65,0,0,1,377.65,117.59Z"/></g></svg>