<?xml version="1.0" encoding="utf-8"?>
<!-- Generator: Adobe Illustrator 25.4.1, SVG Export Plug-In . SVG Version: 6.00 Build 0)  -->
<svg version="1.1" id="Calque_1" xmlns="http://www.w3.org/2000/svg" xmlns:xlink="http://www.w3.org/1999/xlink" x="0px" y="0px"
	 viewBox="0 0 788 1005.1" style="enable-background:new 0 0 788 1005.1;" xml:space="preserve">
<style type="text/css">
	.st0{fill:#E2927D;}
	.st1{fill:#F7A386;}
	.st2{fill:#D79072;}
	.st3{fill:#3D332F;}
	.st4{fill:#A06B58;}
	.st5{fill:#9E8261;}
</style>
<g id="Calque_3">
	<path class="st0" d="M372.4,141.8l-8.4-2.4l-2.3,2.4l1,14.1c0,0,5.4,8.3,6,9.2s5.5,1.8,5.5,1.8l3.5-14.9L372.4,141.8z"/>
	<path class="st0" d="M440.8,141.8l8.4-2.4l2.3,2.4l-1,14.1c0,0-5.4,8.3-6,9.2s-5.5,1.8-5.5,1.8l-3.5-14.9L440.8,141.8z"/>
	<polygon class="st1" points="408.7,93.1 406.8,93.2 406.8,93.1 406.9,93.1 	"/>
	<path class="st1" d="M445.1,125.5c0,0.5-2.7,14.8-2.7,14.8v8l-0.1,0.9l-3.7,25.5c-0.4,2.7-1.6,5.2-3.4,7.3c0,0-12.1,11.4-16.5,14.8
		c-1.3,1-7.3,2.2-10.1,2.8l-0.6,0.1l-0.9,0.2h-0.1l0-0.1l0,0h-0.1c-1-0.2-10-1.7-11.6-3c-4.4-3.4-16.5-14.9-16.5-14.9
		c-1.8-2-3-4.6-3.4-7.3l-3.7-25.3l-0.2-1.1v-8c0,0-2.7-14.3-2.7-14.8c0-0.2,0.4-2.2,0.9-4.6c1.4-6.8,5-12.8,10.4-17.2l4.2-3.5
		c4.8-3.9,10.8-6.3,17-6.6l7.6-0.4v0.2l3.9,0.2c6.2,0.4,12.2,2.7,17,6.6l4.2,3.5c5.3,4.4,9,10.4,10.4,17.2
		C444.7,123.4,445.1,125.4,445.1,125.5z"/>
	<path class="st1" d="M414.5,136.6l1.1-6.2c0,0,7.5-5.3,15-3.6c2.8,0.9,5.6,2,8.3,3.2l-0.1,2.9l6.1-7.5l-2.7,15.8l-4.7-3.4
		c0,0-3.7,0.7-11.1-1.1c-4.2-1-10,8.4-10,8.4L414.5,136.6z"/>
	<path class="st1" d="M440.3,159.6c0.3,3.8-0.8,10.1-2.8,12.6c-1.5,1.9-8.2,5.1-9.3,2.3c-2-5.2,1.1-12.8,4.7-17
		c1.1-1.3,4.2-4.3,5.7-3.7C440.1,154.4,440.2,158.1,440.3,159.6z"/>
	<path class="st1" d="M400.4,136.9l-2.4-6.5c0,0-5.8-3.9-14.9-2.9c-2.2,0.2-8.4,2.5-8.4,2.5l-0.1,2.9l-6.1-7.5l2.7,15.8l5.8-3.5
		h14.6l6.5,7.3L400.4,136.9z"/>
	<path class="st2" d="M406.8,162.1c0,0-5.7-2.3-5.9-2.5s-1,1.2-1,1.2l-3.8,1.2l0.5,3.1l3.2,1.2l4.2-1.2l2.8,1.2L406.8,162.1z"/>
	<path class="st3" d="M402.7,164.1l-2.2-2.1l-3,1c0,0,0.4,1.5,0.8,1.6l2.6,0.9L402.7,164.1z"/>
	<path class="st2" d="M406.2,162.1c0,0,5.7-2.3,5.9-2.5s1,1.2,1,1.2l3.9,1.2l-0.5,3.1l-3.2,1.2l-4.2-1.2l-2.8,1.2L406.2,162.1z"/>
	<path class="st3" d="M410,164.1l2.2-2.1l3,1c0,0-0.4,1.5-0.8,1.6l-2.6,0.9L410,164.1z"/>
	<path class="st4" d="M440.3,161.4l1.9-13.2c0,0,4.7-4.7,5.1-4.8s0.6,2.1,0.6,2.1l-1.1,9.4l-2.7,4.7L440.3,161.4z"/>
	<path class="st4" d="M373.4,162.4l-1.9-13.2c0,0-4.7-4.7-5.1-4.8s-0.6,2.1-0.6,2.1l1.1,9.4l2.7,4.7L373.4,162.4z"/>
	<path class="st1" d="M374.3,161.4c-0.3,3.8,0.8,10.1,2.8,12.6c1.5,1.9,8.2,5.1,9.3,2.3c2-5.2-1.1-12.8-4.8-17
		c-1.1-1.3-4.1-4.3-5.7-3.7C374.5,156.2,374.4,159.9,374.3,161.4z"/>
	<path class="st5" d="M408.7,74.9c-16.1-0.5-48.5,7.7-55.3,39.9c-3.3,15.7-5.2,35.9,26.7,44.9c0,0-15.2-19.6-6.1-39.9
		c0,0-3.1-1.4-1.1-0.1s16.4-3.7,16.4-3.7s3.5-7.2,3.5-6.7c0.3,1.2,0.7,2.3,1.1,3.4l5.2-1.3c0,0,5.5-1.2,5.5-0.7s0.3-12.4,0.3-12.4"
		/>
	<path class="st5" d="M374.6,116.5c0,0-3.1-1.4-1.1-0.1s15.8-0.2,15.8-0.2"/>
	<path class="st5" d="M353.2,115c0-0.1,0-0.2,0-0.3c6.9-32,39.2-40.2,55.3-39.7c14.6,0.5,20.5,7.4,22.1,9.5c0.2,0.3,0.6,0.5,1,0.4
		c3.6-0.3,23-0.5,28.9,28.9c7.3,36.1-17.7,43.1-25.9,44.5c-0.5,0.1-1.1-0.2-1.2-0.8c-0.1-0.3,0-0.5,0.1-0.8
		c13.7-18.6,6.1-46.9,5.4-47.7s-31.8-2.9-37.1-2.9c-0.4,0-0.8-0.3-1-0.7l-0.7-1.9c-0.2-0.6-0.9-0.8-1.5-0.6
		c-0.2,0.1-0.3,0.2-0.5,0.4c-0.5,0.9-1.3,1.6-2.1,2.2c-2.1,1-7.9,0.6-10.9,0.3c-0.6,0-1-0.5-0.9-1.1c0-0.2,0.1-0.3,0.2-0.5l0,0
		c0.7-1-0.6-2.1-1.6-1.3c-5.5,4.2-9.6,9.9-11.9,16.4c-0.3,1.1-0.4,2.3-0.3,3.4c0,0.6-0.6,1.1-1.2,1c-0.3,0-0.6-0.2-0.8-0.4l-6.5-7.7
		c-0.2-0.3-0.6-0.4-1-0.4l-6.8,0.8c-0.6,0.1-1.1-0.3-1.2-0.9L353.2,115z"/>
</g>
</svg>
