<?xml version="1.0" encoding="utf-8"?>
<!-- Generator: Adobe Illustrator 26.0.2, SVG Export Plug-In . SVG Version: 6.00 Build 0)  -->
<svg version="1.1" id="Calque_1" xmlns="http://www.w3.org/2000/svg" xmlns:xlink="http://www.w3.org/1999/xlink" x="0px" y="0px"
	 viewBox="0 0 240.4 238.9" style="enable-background:new 0 0 240.4 238.9;" xml:space="preserve">
<style type="text/css">
	.st0{fill:#5E6D70;}
	.st1{fill:#D68F72;}
	.st2{fill:#E3AB58;}
	.st3{fill:#3F507E;}
</style>
<path class="st0" d="M327.6,709.4c1.3,5.9,9,10.3,18.1,10.4l0,0c8.7,0.1,16.1-3.8,17.7-9.3c0,0,9.4-39.3,9.6-53.4
	c0-3.3-1.7-13.3-1.7-13.3l-4.2-23.3c0,0-2.9-11-20.8-12.3c-20.6-1.5-21,5.6-21,5.6s-6.6,37-6.4,48.7
	C319.1,673.2,327.6,709.4,327.6,709.4z"/>
<path class="st0" d="M474.8,705c0.8,5.9-5.2,10.9-14.1,11.8l0,0c-8.5,0.9-17.2-2.3-20.8-7.6c0,0-23.3-37.8-28.6-51.7
	c-1.2-3.3-3.1-13.3-3.1-13.3l-4.2-23.3c0,0-1-11.1,16.1-14c19.7-3.4,22.7,3.7,22.7,3.7s19.7,35.8,23.7,47.3
	C470.1,668.7,474.8,705,474.8,705z"/>
<path class="st1" d="M345.6,700.1c-9.8,0.1-15.6,2.8-17.1,7.2c0,0-1.6,19.5-1.8,27.7c-0.4,13.2,2.6,40,6.9,53c0.9,2.8,3,11.4,3,11.4
	c0.7,2.6,4.9,4.4,9.6,4.3l0,0c4.7-0.1,8.5-2.1,8.8-4.6c0,0,0.9-9.9,1.5-13.2c2.4-11.9,10.1-35.7,10.7-47.7
	c0.3-7.2-2.5-29.3-2.5-29.3C363.7,701.6,354,700.2,345.6,700.1L345.6,700.1z"/>
<path class="st1" d="M457.9,696c9.7-0.7,16.2,1.5,18.9,5.8c0,0,8,18.4,10.6,26.6c4.1,13.2,3.6,65.3,3.6,65.3
	c0.1,2.6,0.3,6.1-4.5,6.4l0,0c-4.7,0.3-10.4-0.8-11.4-3.3c0,0-23.8-48.7-27.7-60.7c-2.4-7.2-5.8-29.7-5.8-29.7
	C440.5,699,449.6,696.8,457.9,696z"/>
<path class="st2" d="M343.8,794.9L343.8,794.9c-4.4,0-8.4,1.4-10.3,3.5l0,0c-4.3,4.8-22.2,11.2-22.2,11.2c-3.2,1.3-4.8,3.5-4,5.7
	l0,0l43.9-0.1l2.5-0.4c2.8-0.5,4.7-1.9,4.4-3.5l-2.5-11.6C354.1,796.8,349.3,794.8,343.8,794.9z"/>
<path class="st3" d="M308.5,815.2L308.5,815.2c-0.6-1.9,1.9-3.7,5.5-4l26.1-2.1c3.4-0.3,6.5,0.9,7.3,2.6l1.5,3.3L308.5,815.2z"/>
<path class="st3" d="M334.5,799.5c2.1-0.8,4.2-1.3,6.4-1.4c2.5,0,4.9,0.4,7.3,1.1"/>
<path class="st3" d="M331.4,802.1c2.1-0.8,4.3-1.2,6.5-1.3c2.5,0.1,4.9,0.5,7.2,1.2"/>
<path class="st2" d="M484.8,797.7c4.5-1.1,4-3.3,5.7-4.5c1-0.7,5.6-1.6,6.3-0.7c8.7,10.3,45.7,15.2,45.7,15.2c4,1.7,5.1,4.1,4.6,6.7
	l0,0c0,0-31.8,5.9-48.8,0.2c-3.4-1.1-12.1-1.5-12.1-1.5s-15.5,0.3-14.9-2.9l1.2-14.3C473.6,792.5,477,799.7,484.8,797.7z"/>
<path class="st3" d="M547.5,814.3c0.2-4.2-3.7-6.7-4.9-6.6c-1.8,0.2-4.6,1.2-6.4,1.5c-2.8,0.4-11.5,0.2-11.5,0.2
	c-1.9-0.2-3.7,1.1-4,3.1c0,0.1,0,0.2,0,0.3l0.2,4c0,0,5.3,0.3,17.8-1.2C540.7,815.3,547.5,814.3,547.5,814.3z"/>
<g>
	<path class="st3" d="M502,797.8c-1.9,1.3-4.3,1.7-6.5,1.2C497.6,798.1,499.7,797.7,502,797.8L502,797.8z"/>
</g>
<g>
	<path class="st3" d="M506.3,800c-1.8,1.4-4.1,1.9-6.3,1.4C502.1,800.5,504,800.1,506.3,800L506.3,800z"/>
</g>
<path class="st3" d="M332.1,584.2c-7.1,13-11.4,27.2-12.8,42c-4.5,47.6-14.3,154.5-10.8,154.5c4.5,0,39.3,3.7,39.3,3.7
	c5.8,0.6,43.7,1.7,61,2c13.1,0.2,23-11.9,20.1-24.7l-39.4-178.3C389.5,583.4,330.7,583.3,332.1,584.2L332.1,584.2z"/>
<path class="st3" d="M445.7,580c8.5,15.2,35.6,109,39.5,126c11.2,48.9,13.2,72.6,9.7,72.7c-4.6,0.1-61.8,9.1-63.7,8.1
	c-29.5-14.9-41.5-138.3-41.5-138.3l-2.1-64c0,0,58.5-7,57.2-6.1L445.7,580z"/>
<path class="st0" d="M19.4,130.7c1.3,5.9,9,10.3,18.1,10.4l0,0c8.7,0.1,16.1-3.8,17.7-9.3c0,0,9.4-39.3,9.6-53.4
	c0-3.3-1.7-13.3-1.7-13.3l-4.2-23.3c0,0-2.9-11-20.8-12.3c-20.6-1.5-21,5.6-21,5.6s-6.6,37-6.4,48.7
	C10.9,94.5,19.4,130.7,19.4,130.7z"/>
<path class="st0" d="M166.6,126.3c0.8,5.9-5.2,10.9-14.1,11.8l0,0c-8.5,0.9-17.2-2.3-20.8-7.6c0,0-23.3-37.8-28.6-51.7
	c-1.2-3.3-3.1-13.3-3.1-13.3l-4.2-23.3c0,0-1-11.1,16.1-14c19.7-3.4,22.7,3.7,22.7,3.7s19.7,35.8,23.7,47.3
	C161.9,90,166.6,126.3,166.6,126.3z"/>
<path class="st1" d="M37.4,121.4c-9.8,0.1-15.6,2.8-17.1,7.2c0,0-1.6,19.5-1.8,27.7c-0.4,13.2,2.6,40,6.9,53c0.9,2.8,3,11.4,3,11.4
	c0.7,2.6,4.9,4.4,9.6,4.3l0,0c4.7-0.1,8.5-2.1,8.8-4.6c0,0,0.9-9.9,1.5-13.2c2.4-11.9,10.1-35.7,10.7-47.7
	c0.3-7.2-2.5-29.3-2.5-29.3C55.5,122.9,45.8,121.5,37.4,121.4L37.4,121.4z"/>
<path class="st1" d="M149.7,117.3c9.7-0.7,16.2,1.5,18.9,5.8c0,0,8,18.4,10.6,26.6c4.1,13.2,3.6,65.3,3.6,65.3
	c0.1,2.6,0.3,6.1-4.5,6.4l0,0c-4.7,0.3-10.4-0.8-11.4-3.3c0,0-23.8-48.7-27.7-60.7c-2.4-7.2-5.8-29.7-5.8-29.7
	C132.3,120.3,141.4,118.1,149.7,117.3z"/>
<path class="st2" d="M35.6,216.2L35.6,216.2c-4.4,0-8.4,1.4-10.3,3.5l0,0c-4.3,4.8-22.2,11.2-22.2,11.2c-3.2,1.3-4.8,3.5-4,5.7l0,0
	l43.9-0.1l2.5-0.4c2.8-0.5,4.7-1.9,4.4-3.5L47.4,221C45.9,218.1,41.1,216.1,35.6,216.2z"/>
<path class="st3" d="M0.3,236.5L0.3,236.5c-0.6-1.9,1.9-3.7,5.5-4l26.1-2.1c3.4-0.3,6.5,0.9,7.3,2.6l1.5,3.3L0.3,236.5z"/>
<path class="st3" d="M26.3,220.8c2.1-0.8,4.2-1.3,6.4-1.4c2.5,0,4.9,0.4,7.3,1.1"/>
<path class="st3" d="M23.2,223.4c2.1-0.8,4.3-1.2,6.5-1.3c2.5,0.1,4.9,0.5,7.2,1.2"/>
<path class="st2" d="M176.6,219c4.5-1.1,4-3.3,5.7-4.5c1-0.7,5.6-1.6,6.3-0.7c8.7,10.3,45.7,15.2,45.7,15.2c4,1.7,5.1,4.1,4.6,6.7
	l0,0c0,0-31.8,5.9-48.8,0.2c-3.4-1.1-12.1-1.5-12.1-1.5s-15.5,0.3-14.9-2.9l1.2-14.3C165.4,213.8,168.8,221,176.6,219z"/>
<path class="st3" d="M239.3,235.6c0.2-4.2-3.7-6.7-4.9-6.6c-1.8,0.2-4.6,1.2-6.4,1.5c-2.8,0.4-11.5,0.2-11.5,0.2
	c-1.9-0.2-3.7,1.1-4,3.1c0,0.1,0,0.2,0,0.3l0.2,4c0,0,5.3,0.3,17.8-1.2C232.5,236.6,239.3,235.6,239.3,235.6z"/>
<g>
	<path class="st3" d="M193.8,219.1c-1.9,1.3-4.3,1.7-6.5,1.2C189.4,219.4,191.5,219.1,193.8,219.1L193.8,219.1z"/>
</g>
<g>
	<path class="st3" d="M198.1,221.3c-1.8,1.4-4.1,1.9-6.3,1.4C193.9,221.8,195.8,221.4,198.1,221.3L198.1,221.3z"/>
</g>
<path class="st3" d="M23.9,5.5c-7.1,13-11.4,27.2-12.8,42C6.6,95.1-3.2,202,0.3,202c4.5,0,39.3,3.7,39.3,3.7c5.8,0.6,43.7,1.7,61,2
	c13.1,0.2,23-11.9,20.1-24.7L81.3,4.7C81.3,4.7,22.5,4.6,23.9,5.5L23.9,5.5z"/>
<path class="st3" d="M137.5,1.3c8.5,15.2,35.6,109,39.5,126c11.2,48.9,13.2,72.6,9.7,72.7c-4.6,0.1-61.8,9.1-63.7,8.1
	C93.5,193.3,81.5,69.8,81.5,69.8l-2.1-64c0,0,58.5-7,57.2-6.1L137.5,1.3z"/>
</svg>
