<?xml version="1.0" encoding="utf-8"?>
<!-- Generator: Adobe Illustrator 26.0.3, SVG Export Plug-In . SVG Version: 6.00 Build 0)  -->
<svg version="1.1" id="Calque_1" xmlns="http://www.w3.org/2000/svg" xmlns:xlink="http://www.w3.org/1999/xlink" x="0px" y="0px"
	 viewBox="0 0 788 1005" style="enable-background:new 0 0 788 1005;" xml:space="preserve">
<style type="text/css">
	.st0{clip-path:url(#SVGID_00000049907940142147055320000006576409237416674739_);fill:#60131D;}
	.st1{clip-path:url(#SVGID_00000020356500292515550080000000379394960713075867_);fill:#60131D;}
	.st2{clip-path:url(#SVGID_00000056390711893622365350000012171832428381687455_);fill:#60131D;}
	.st3{clip-path:url(#SVGID_00000029739465886350802460000006935911756735540614_);fill:#60131D;}
	.st4{clip-path:url(#SVGID_00000058560856987500741280000015750875911689859992_);fill:#FFFFFF;}
	.st5{clip-path:url(#SVGID_00000183213911141422053900000018291773394428135100_);fill:#FFFFFF;}
	.st6{clip-path:url(#SVGID_00000031899236583257147110000002077099390071144870_);fill:#090909;}
	.st7{clip-path:url(#SVGID_00000152224621563231066270000017880699257233332414_);fill:#090909;}
	.st8{fill:#77323B;}
	.st9{fill:none;stroke:#6A2C18;stroke-width:2;stroke-linecap:round;stroke-miterlimit:10;}
</style>
<g>
	<g>
		<g>
			<defs>
				<polygon id="SVGID_1_" points="413.3,293 413.3,293 456.6,293 456.6,306.2 413.3,306.2 				"/>
			</defs>
			<clipPath id="SVGID_00000065783981413732515440000006657112289494410901_">
				<use xlink:href="#SVGID_1_"  style="overflow:visible;"/>
			</clipPath>
			<path style="clip-path:url(#SVGID_00000065783981413732515440000006657112289494410901_);fill:#60131D;" d="M454.6,306.2
				c-0.3,0-0.6-0.1-0.8-0.2c-4.3-1.8-8.8-3.2-13.3-4.3c-14.6-3.3-15.5-1-20.5,0c-1.5,0.3-5-0.6-5.7-1.4s-1.4-4-0.5-4.7
				c0.4-0.3,6.9-4.8,23.5-1c6.9,1.6,17.9,7.6,18.2,7.7c1.1,0.4,1.6,1.6,1.2,2.7C456.3,305.7,455.5,306.3,454.6,306.2L454.6,306.2z"
				/>
		</g>
	</g>
</g>
<g>
	<g>
		<g>
			<defs>
				<polygon id="SVGID_00000168831491133787811670000014574548257108667525_" points="371.1,293 371.1,293 327.8,293 327.8,306.2 
					371.1,306.2 				"/>
			</defs>
			<clipPath id="SVGID_00000093861275741539550290000007893183602678068865_">
				<use xlink:href="#SVGID_00000168831491133787811670000014574548257108667525_"  style="overflow:visible;"/>
			</clipPath>
			<path style="clip-path:url(#SVGID_00000093861275741539550290000007893183602678068865_);fill:#60131D;" d="M329.8,306.2
				c0.3,0,0.6-0.1,0.8-0.2c4.3-1.8,8.8-3.2,13.4-4.3c14.6-3.3,15.5-1,20.5,0c1.5,0.3,5-0.6,5.7-1.4s1.4-4,0.5-4.7
				c-0.4-0.3-6.9-4.8-23.5-1c-6.9,1.6-17.9,7.6-18.2,7.7c-1.1,0.4-1.6,1.6-1.2,2.7C328.2,305.7,329,306.3,329.8,306.2L329.8,306.2z"
				/>
		</g>
	</g>
</g>
<g>
	<g>
		<g>
			<defs>
				<rect id="SVGID_00000038415572456071929450000012343800950503067823_" x="412" y="293" width="40.1" height="9.2"/>
			</defs>
			<clipPath id="SVGID_00000157999779342470632250000017671551833504671381_">
				<use xlink:href="#SVGID_00000038415572456071929450000012343800950503067823_"  style="overflow:visible;"/>
			</clipPath>
			<path style="clip-path:url(#SVGID_00000157999779342470632250000017671551833504671381_);fill:#60131D;" d="M418.1,301.3
				c-1.4,0.3-5.2-0.6-5.9-1.5s0.6-3.6,1.5-4.3c0.4-0.3,6.9-4.8,23.5-1c8,1.8,15.6,5.7,14.8,7.6C451.7,302.9,438.5,297.3,418.1,301.3
				z"/>
		</g>
	</g>
</g>
<g>
	<g>
		<g>
			<defs>
				<rect id="SVGID_00000178888414055291080410000017786721560974056115_" x="332.3" y="293" width="40.1" height="9.2"/>
			</defs>
			<clipPath id="SVGID_00000088827157676371239870000012627029620926499251_">
				<use xlink:href="#SVGID_00000178888414055291080410000017786721560974056115_"  style="overflow:visible;"/>
			</clipPath>
			<path style="clip-path:url(#SVGID_00000088827157676371239870000012627029620926499251_);fill:#60131D;" d="M366.3,301.3
				c1.5,0.3,5.2-0.6,5.9-1.5s-0.6-3.6-1.5-4.3c-0.4-0.3-6.9-4.8-23.5-1c-8,1.8-15.6,5.7-14.8,7.6
				C332.7,302.9,345.9,297.3,366.3,301.3z"/>
		</g>
	</g>
</g>
<g>
	<g>
		<g>
			<defs>
				<polygon id="SVGID_00000009578476377762468120000001099148724138448260_" points="415.8,318 415.8,318 443.7,318 443.7,344.8 
					415.8,344.8 				"/>
			</defs>
			<clipPath id="SVGID_00000167359455005633538000000012914078303344526241_">
				<use xlink:href="#SVGID_00000009578476377762468120000001099148724138448260_"  style="overflow:visible;"/>
			</clipPath>
			
				<ellipse style="clip-path:url(#SVGID_00000167359455005633538000000012914078303344526241_);fill:#FFFFFF;" cx="429.7" cy="331.4" rx="14" ry="13.4"/>
		</g>
	</g>
</g>
<g>
	<g>
		<g>
			<defs>
				<polygon id="SVGID_00000145038077191206955630000000663485853979681158_" points="368.6,318 368.6,318 340.7,318 340.7,344.8 
					368.6,344.8 				"/>
			</defs>
			<clipPath id="SVGID_00000156559088026313087560000013806035803498654608_">
				<use xlink:href="#SVGID_00000145038077191206955630000000663485853979681158_"  style="overflow:visible;"/>
			</clipPath>
			
				<ellipse style="clip-path:url(#SVGID_00000156559088026313087560000013806035803498654608_);fill:#FFFFFF;" cx="354.7" cy="331.4" rx="14" ry="13.4"/>
		</g>
	</g>
</g>
<g>
	<g>
		<g>
			<defs>
				<polygon id="SVGID_00000065055566088874395490000004354731995627228842_" points="420.3,324 420.3,324 438.9,324 438.9,342.7 
					420.3,342.7 				"/>
			</defs>
			<clipPath id="SVGID_00000146465048411686265600000013011208838091218593_">
				<use xlink:href="#SVGID_00000065055566088874395490000004354731995627228842_"  style="overflow:visible;"/>
			</clipPath>
			
				<circle style="clip-path:url(#SVGID_00000146465048411686265600000013011208838091218593_);fill:#090909;" cx="429.6" cy="333.4" r="9.3"/>
		</g>
	</g>
</g>
<g>
	<g>
		<g>
			<defs>
				<polygon id="SVGID_00000109736033588364377910000014646830825889116347_" points="364.1,324 364.1,324 345.5,324 345.5,342.7 
					364.1,342.7 				"/>
			</defs>
			<clipPath id="SVGID_00000102530563474758726890000003065142686549473940_">
				<use xlink:href="#SVGID_00000109736033588364377910000014646830825889116347_"  style="overflow:visible;"/>
			</clipPath>
			
				<circle style="clip-path:url(#SVGID_00000102530563474758726890000003065142686549473940_);fill:#090909;" cx="354.8" cy="333.4" r="9.3"/>
		</g>
	</g>
</g>
<path class="st8" d="M380.4,380.8c0-1.7,1.3-3.8,11.8-3.8s13,1.8,13,3.4s-2.9,6.6-13.4,6.6S380.4,382.4,380.4,380.8z"/>
<path class="st9" d="M387.5,1117c3.1,0.1,7.2,0.2,11.3,0.2c4.1,0,8.1-0.1,11-0.2"/>
</svg>
