<?xml version="1.0" encoding="utf-8"?>
<!-- Generator: Adobe Illustrator 26.0.3, SVG Export Plug-In . SVG Version: 6.00 Build 0)  -->
<svg version="1.1" id="Calque_1" xmlns="http://www.w3.org/2000/svg" xmlns:xlink="http://www.w3.org/1999/xlink" x="0px" y="0px"
	 viewBox="0 0 788 1005" style="enable-background:new 0 0 788 1005;" xml:space="preserve">
<style type="text/css">
	.st0{clip-path:url(#SVGID_00000119811848553319775140000007273653319109703854_);}
	.st1{fill:#60131D;}
	.st2{clip-path:url(#SVGID_00000026121997288304641980000012582571267860186801_);}
	.st3{clip-path:url(#SVGID_00000016768613674629977680000016085588380631562145_);}
	.st4{fill:#FFFFFF;}
	.st5{clip-path:url(#SVGID_00000073002892213458321830000014846684770867092117_);}
	.st6{clip-path:url(#SVGID_00000057143233209059024730000016219329851203806087_);}
	.st7{fill:#090909;}
	.st8{clip-path:url(#SVGID_00000057117268632503618750000009650463267456321469_);}
	.st9{fill:#77323B;}
	.st10{fill:#C5C5C5;}
</style>
<g>
	<g>
		<g>
			<defs>
				<rect id="SVGID_1_" x="410.6" y="293" width="40.1" height="9.2"/>
			</defs>
			<clipPath id="SVGID_00000161633612436908069890000008686302897855114648_">
				<use xlink:href="#SVGID_1_"  style="overflow:visible;"/>
			</clipPath>
			<g style="clip-path:url(#SVGID_00000161633612436908069890000008686302897855114648_);">
				<path class="st1" d="M416.8,301.3c-1.4,0.3-5.2-0.6-5.9-1.5c-0.7-0.9,0.6-3.6,1.5-4.3c0.4-0.3,6.9-4.8,23.5-1
					c8,1.8,15.6,5.7,14.8,7.6C450.4,302.9,437.2,297.3,416.8,301.3z"/>
			</g>
		</g>
	</g>
</g>
<g>
	<g>
		<g>
			<defs>
				<path id="SVGID_00000030455380712449921000000013580935851674605732_" d="M335.5,293h31c2.5,0,4.6,2.1,4.6,4.6l0,0
					c0,2.5-2.1,4.6-4.6,4.6h-31c-2.5,0-4.6-2.1-4.6-4.6l0,0C331,295.1,333,293,335.5,293z"/>
			</defs>
			<clipPath id="SVGID_00000076567331533198113560000009254111677025121156_">
				<use xlink:href="#SVGID_00000030455380712449921000000013580935851674605732_"  style="overflow:visible;"/>
			</clipPath>
			<g style="clip-path:url(#SVGID_00000076567331533198113560000009254111677025121156_);">
				<path class="st1" d="M365,301.3c1.5,0.3,5.2-0.6,5.9-1.5s-0.6-3.6-1.5-4.3c-0.4-0.3-6.9-4.8-23.5-1c-8,1.8-15.6,5.7-14.8,7.6
					C331.4,302.9,344.5,297.3,365,301.3z"/>
			</g>
		</g>
	</g>
</g>
<g>
	<g>
		<g>
			<defs>
				<polygon id="SVGID_00000045578123804497847150000007274885483672839048_" points="414.4,318 414.4,318 442.3,318 442.3,344.8 
					414.4,344.8 				"/>
			</defs>
			<clipPath id="SVGID_00000143592780056733263970000011481270977104977289_">
				<use xlink:href="#SVGID_00000045578123804497847150000007274885483672839048_"  style="overflow:visible;"/>
			</clipPath>
			<g style="clip-path:url(#SVGID_00000143592780056733263970000011481270977104977289_);">
				<ellipse class="st4" cx="428.4" cy="331.4" rx="14" ry="13.4"/>
			</g>
		</g>
	</g>
</g>
<g>
	<g>
		<g>
			<defs>
				<polygon id="SVGID_00000180334854515989641240000014381802740632511111_" points="367.3,318 367.3,318 339.4,318 339.4,344.8 
					367.3,344.8 				"/>
			</defs>
			<clipPath id="SVGID_00000078739053950592416550000015173131856843804313_">
				<use xlink:href="#SVGID_00000180334854515989641240000014381802740632511111_"  style="overflow:visible;"/>
			</clipPath>
			<g style="clip-path:url(#SVGID_00000078739053950592416550000015173131856843804313_);">
				<ellipse class="st4" cx="353.4" cy="331.4" rx="14" ry="13.4"/>
			</g>
		</g>
	</g>
</g>
<g>
	<g>
		<g>
			<defs>
				<polygon id="SVGID_00000040545759423706292310000005241556699352669074_" points="414.5,319.3 414.5,319.3 433.1,319.3 
					433.1,338 414.5,338 				"/>
			</defs>
			<clipPath id="SVGID_00000107552292083778493130000001009530967345857193_">
				<use xlink:href="#SVGID_00000040545759423706292310000005241556699352669074_"  style="overflow:visible;"/>
			</clipPath>
			<g style="clip-path:url(#SVGID_00000107552292083778493130000001009530967345857193_);">
				<circle class="st7" cx="423.8" cy="328.6" r="9.3"/>
			</g>
		</g>
	</g>
</g>
<g>
	<g>
		<g>
			<defs>
				<polygon id="SVGID_00000085238580118526930750000012008644942213709718_" points="358.7,319.3 358.7,319.3 340.1,319.3 
					340.1,338 358.7,338 				"/>
			</defs>
			<clipPath id="SVGID_00000155148097976449668980000011755765902710515639_">
				<use xlink:href="#SVGID_00000085238580118526930750000012008644942213709718_"  style="overflow:visible;"/>
			</clipPath>
			<g style="clip-path:url(#SVGID_00000155148097976449668980000011755765902710515639_);">
				<circle class="st7" cx="349.4" cy="328.6" r="9.3"/>
			</g>
		</g>
	</g>
</g>
<g>
	<path class="st9" d="M375.9,381.5c0.3-0.6,1.4-1.6,3.5-2.5c2.3-1,5.8-1.9,10.6-2.1c9.6-0.4,15.9,6.1,15.9,6.1s-4.6,11.7-15.8,10.9
		C381.9,393.1,375.9,381.5,375.9,381.5z"/>
	<path class="st10" d="M390.4,381.8l-8.2-0.4l-2.2-0.9c0,0,5.3-2.3,11.4-2c6.7,0.4,10.3,2.9,10.3,2.9l-1.7,0.8L390.4,381.8z"/>
</g>
</svg>
