<?xml version="1.0" encoding="utf-8"?>
<!-- Generator: Adobe Illustrator 26.0.2, SVG Export Plug-In . SVG Version: 6.00 Build 0)  -->
<svg version="1.1" id="Calque_1" xmlns="http://www.w3.org/2000/svg" xmlns:xlink="http://www.w3.org/1999/xlink" x="0px" y="0px"
	 viewBox="0 0 119.9 141.7" style="enable-background:new 0 0 119.9 141.7;" xml:space="preserve">
<style type="text/css">
	.st0{clip-path:url(#SVGID_00000016790880600911738650000009360420253181780379_);}
	.st1{fill:#60131D;}
	.st2{clip-path:url(#SVGID_00000122001246642785634280000007105538206792350649_);}
	.st3{clip-path:url(#SVGID_00000095311828007672560360000013200345972900117683_);}
	.st4{fill:#FFFFFF;}
	.st5{clip-path:url(#SVGID_00000165952582441273650650000016693831807950080143_);}
	.st6{clip-path:url(#SVGID_00000115490882602975117580000017225218159831675270_);}
	.st7{fill:#090909;}
	.st8{clip-path:url(#SVGID_00000133520671626305366870000003278330887999714452_);}
	.st9{fill:#840048;}
	.st10{fill:#C5C5C5;}
</style>
<g>
	<g>
		<g>
			<defs>
				<rect id="SVGID_1_" x="79.7" y="20.4" width="40.1" height="9.2"/>
			</defs>
			<clipPath id="SVGID_00000011033689791636091750000016534023344704825494_">
				<use xlink:href="#SVGID_1_"  style="overflow:visible;"/>
			</clipPath>
			<g style="clip-path:url(#SVGID_00000011033689791636091750000016534023344704825494_);">
				<path class="st1" d="M85.9,28.7c-1.4,0.3-5.2-0.6-5.9-1.5c-0.7-0.9,0.6-3.6,1.5-4.3c0.4-0.3,6.9-4.8,23.5-1
					c8,1.8,15.6,5.7,14.8,7.6C119.5,30.3,106.3,24.7,85.9,28.7z"/>
			</g>
		</g>
	</g>
</g>
<g>
	<g>
		<g>
			<defs>
				<path id="SVGID_00000010993583474678817190000011927394574593424545_" d="M4.6,20.4h31c2.5,0,4.6,2.1,4.6,4.6l0,0
					c0,2.5-2.1,4.6-4.6,4.6h-31C2.1,29.6,0,27.5,0,25l0,0C0.1,22.5,2.1,20.4,4.6,20.4z"/>
			</defs>
			<clipPath id="SVGID_00000129900634129881549300000012719443152929254045_">
				<use xlink:href="#SVGID_00000010993583474678817190000011927394574593424545_"  style="overflow:visible;"/>
			</clipPath>
			<g style="clip-path:url(#SVGID_00000129900634129881549300000012719443152929254045_);">
				<path class="st1" d="M34.1,28.7c1.5,0.3,5.2-0.6,5.9-1.5s-0.6-3.6-1.5-4.3c-0.4-0.3-6.9-4.8-23.5-1c-8,1.8-15.6,5.7-14.8,7.6
					C0.5,30.3,13.6,24.7,34.1,28.7z"/>
			</g>
		</g>
	</g>
</g>
<g>
	<g>
		<g>
			<defs>
				<polygon id="SVGID_00000086686762095263064890000015632479380320719004_" points="83.5,45.4 83.5,45.4 111.4,45.4 111.4,72.2 
					83.5,72.2 				"/>
			</defs>
			<clipPath id="SVGID_00000127730380158701295860000015574529694872214162_">
				<use xlink:href="#SVGID_00000086686762095263064890000015632479380320719004_"  style="overflow:visible;"/>
			</clipPath>
			<g style="clip-path:url(#SVGID_00000127730380158701295860000015574529694872214162_);">
				<ellipse class="st4" cx="97.5" cy="58.8" rx="14" ry="13.4"/>
			</g>
		</g>
	</g>
</g>
<g>
	<g>
		<g>
			<defs>
				<polygon id="SVGID_00000095320449224910829110000008628029955140064146_" points="36.4,45.4 36.4,45.4 8.5,45.4 8.5,72.2 
					36.4,72.2 				"/>
			</defs>
			<clipPath id="SVGID_00000176743677097288139930000017088346454729698725_">
				<use xlink:href="#SVGID_00000095320449224910829110000008628029955140064146_"  style="overflow:visible;"/>
			</clipPath>
			<g style="clip-path:url(#SVGID_00000176743677097288139930000017088346454729698725_);">
				<ellipse class="st4" cx="22.5" cy="58.8" rx="14" ry="13.4"/>
			</g>
		</g>
	</g>
</g>
<g>
	<g>
		<g>
			<defs>
				<polygon id="SVGID_00000054230114740881287290000000878557538283228816_" points="83.6,46.7 83.6,46.7 102.2,46.7 102.2,65.4 
					83.6,65.4 				"/>
			</defs>
			<clipPath id="SVGID_00000134219525456574108610000009252366838878908832_">
				<use xlink:href="#SVGID_00000054230114740881287290000000878557538283228816_"  style="overflow:visible;"/>
			</clipPath>
			<g style="clip-path:url(#SVGID_00000134219525456574108610000009252366838878908832_);">
				<circle class="st7" cx="92.9" cy="56" r="9.3"/>
			</g>
		</g>
	</g>
</g>
<g>
	<g>
		<g>
			<defs>
				<polygon id="SVGID_00000135649767904365989470000017213771712550498218_" points="27.8,46.7 27.8,46.7 9.2,46.7 9.2,65.4 
					27.8,65.4 				"/>
			</defs>
			<clipPath id="SVGID_00000070828994328244512030000010083660477813834670_">
				<use xlink:href="#SVGID_00000135649767904365989470000017213771712550498218_"  style="overflow:visible;"/>
			</clipPath>
			<g style="clip-path:url(#SVGID_00000070828994328244512030000010083660477813834670_);">
				<circle class="st7" cx="18.5" cy="56" r="9.3"/>
			</g>
		</g>
	</g>
</g>
<g>
	<path class="st9" d="M45,108.9c0.3-0.6,1.4-1.6,3.5-2.5c2.3-1,5.8-1.9,10.6-2.1c9.6-0.4,15.9,6.1,15.9,6.1s-4.6,11.7-15.8,10.9
		C51,120.5,45,108.9,45,108.9z"/>
	<path class="st10" d="M59.5,109.2l-8.2-0.4l-2.2-0.9c0,0,5.3-2.3,11.4-2c6.7,0.4,10.3,2.9,10.3,2.9l-1.7,0.8L59.5,109.2z"/>
</g>
</svg>
