<?xml version="1.0" encoding="utf-8"?>
<!-- Generator: Adobe Illustrator 26.0.3, SVG Export Plug-In . SVG Version: 6.00 Build 0)  -->
<svg version="1.1" id="Calque_1" xmlns="http://www.w3.org/2000/svg" xmlns:xlink="http://www.w3.org/1999/xlink" x="0px" y="0px"
	 viewBox="0 0 788 1005" style="enable-background:new 0 0 788 1005;" xml:space="preserve">
<style type="text/css">
	.st0{clip-path:url(#SVGID_00000101795982866738476610000011522926724266622106_);}
	.st1{fill:#573623;}
	.st2{clip-path:url(#SVGID_00000044869383377790926780000010895569680208801198_);}
	.st3{clip-path:url(#SVGID_00000015355614869014042540000008871486717451346052_);}
	.st4{fill:#FFFFFF;}
	.st5{clip-path:url(#SVGID_00000003092314097562870670000000128980081519985319_);}
	.st6{clip-path:url(#SVGID_00000036221455597621096000000011549554197248819113_);}
	.st7{fill:#090909;}
	.st8{clip-path:url(#SVGID_00000024718250468286355090000014257137344903156415_);}
	.st9{fill:#9D5E70;}
	.st10{clip-path:url(#SVGID_00000042731910990295942120000015003774538873268098_);}
	.st11{fill:#60131D;}
	.st12{clip-path:url(#SVGID_00000123420291211498562130000002210573962028853662_);}
	.st13{clip-path:url(#SVGID_00000127044621273469579270000008323814207606603946_);}
	.st14{clip-path:url(#SVGID_00000066481332457764532780000001520438948227238825_);}
	.st15{clip-path:url(#SVGID_00000011001142895598988780000007052706506656146092_);}
	.st16{clip-path:url(#SVGID_00000174560268459191271800000017610537490975718037_);}
	.st17{fill:#77323B;}
</style>
<g>
	<g>
		<g>
			<defs>
				<rect id="SVGID_1_" x="410.6" y="293" width="40.1" height="9.2"/>
			</defs>
			<clipPath id="SVGID_00000133529671633441454100000008887397064653938349_">
				<use xlink:href="#SVGID_1_"  style="overflow:visible;"/>
			</clipPath>
			<g style="clip-path:url(#SVGID_00000133529671633441454100000008887397064653938349_);">
				<path class="st1" d="M416.8,301.3c-1.4,0.3-5.2-0.6-5.9-1.5c-0.7-0.9,0.6-3.6,1.5-4.3c0.4-0.3,6.9-4.8,23.5-1
					c8,1.8,15.6,5.7,14.8,7.6C450.4,302.9,437.2,297.3,416.8,301.3z"/>
			</g>
		</g>
	</g>
</g>
<g>
	<g>
		<g>
			<defs>
				<rect id="SVGID_00000160171255270331001280000003544323028085409966_" x="331" y="293" width="40.1" height="9.2"/>
			</defs>
			<clipPath id="SVGID_00000016792338681372055030000011184371718332129941_">
				<use xlink:href="#SVGID_00000160171255270331001280000003544323028085409966_"  style="overflow:visible;"/>
			</clipPath>
			<g style="clip-path:url(#SVGID_00000016792338681372055030000011184371718332129941_);">
				<path class="st1" d="M365,301.3c1.5,0.3,5.2-0.6,5.9-1.5s-0.6-3.6-1.5-4.3c-0.4-0.3-6.9-4.8-23.5-1c-8,1.8-15.6,5.7-14.8,7.6
					C331.4,302.9,344.5,297.3,365,301.3z"/>
			</g>
		</g>
	</g>
</g>
<g>
	<g>
		<g>
			<defs>
				<polygon id="SVGID_00000063631262634523405760000015035192167107516339_" points="414.4,318 414.4,318 442.3,318 442.3,344.8 
					414.4,344.8 				"/>
			</defs>
			<clipPath id="SVGID_00000170262587470037776770000016514816899002821248_">
				<use xlink:href="#SVGID_00000063631262634523405760000015035192167107516339_"  style="overflow:visible;"/>
			</clipPath>
			<g style="clip-path:url(#SVGID_00000170262587470037776770000016514816899002821248_);">
				<ellipse class="st4" cx="428.4" cy="331.4" rx="14" ry="13.4"/>
			</g>
		</g>
	</g>
</g>
<g>
	<g>
		<g>
			<defs>
				<polygon id="SVGID_00000183946653665744326630000014291399160457444028_" points="367.3,318 367.3,318 339.4,318 339.4,344.8 
					367.3,344.8 				"/>
			</defs>
			<clipPath id="SVGID_00000080925116066374189190000001084244022481424521_">
				<use xlink:href="#SVGID_00000183946653665744326630000014291399160457444028_"  style="overflow:visible;"/>
			</clipPath>
			<g style="clip-path:url(#SVGID_00000080925116066374189190000001084244022481424521_);">
				<ellipse class="st4" cx="353.4" cy="331.4" rx="14" ry="13.4"/>
			</g>
		</g>
	</g>
</g>
<g>
	<g>
		<g>
			<defs>
				<polygon id="SVGID_00000071532355391258533840000013869053564145899702_" points="424.3,322.1 424.3,322.1 442.9,322.1 
					442.9,340.7 424.3,340.7 				"/>
			</defs>
			<clipPath id="SVGID_00000074444030892723478320000000040845259225127838_">
				<use xlink:href="#SVGID_00000071532355391258533840000013869053564145899702_"  style="overflow:visible;"/>
			</clipPath>
			<g style="clip-path:url(#SVGID_00000074444030892723478320000000040845259225127838_);">
				<circle class="st7" cx="433.6" cy="331.4" r="9.3"/>
			</g>
		</g>
	</g>
</g>
<g>
	<g>
		<g>
			<defs>
				<polygon id="SVGID_00000111150123270486568500000004248863525503044247_" points="368.5,322.1 368.5,322.1 349.9,322.1 
					349.9,340.7 368.5,340.7 				"/>
			</defs>
			<clipPath id="SVGID_00000093888679393247718030000004781470736927884425_">
				<use xlink:href="#SVGID_00000111150123270486568500000004248863525503044247_"  style="overflow:visible;"/>
			</clipPath>
			<g style="clip-path:url(#SVGID_00000093888679393247718030000004781470736927884425_);">
				<circle class="st7" cx="359.2" cy="331.4" r="9.3"/>
			</g>
		</g>
	</g>
</g>
<ellipse class="st9" cx="390.9" cy="383.7" rx="5.7" ry="7.6"/>
<g>
	<g>
		<g>
			<defs>
				<rect id="SVGID_00000111183046535896434310000018053845981914276490_" x="410.6" y="293" width="40.1" height="9.2"/>
			</defs>
			<clipPath id="SVGID_00000066500142660466749080000011503559111980939416_">
				<use xlink:href="#SVGID_00000111183046535896434310000018053845981914276490_"  style="overflow:visible;"/>
			</clipPath>
			<g style="clip-path:url(#SVGID_00000066500142660466749080000011503559111980939416_);">
				<path class="st11" d="M416.8,301.3c-1.4,0.3-5.2-0.6-5.9-1.5c-0.7-0.9,0.6-3.6,1.5-4.3c0.4-0.3,6.9-4.8,23.5-1
					c8,1.8,15.6,5.7,14.8,7.6C450.4,302.9,437.2,297.3,416.8,301.3z"/>
			</g>
		</g>
	</g>
</g>
<g>
	<g>
		<g>
			<defs>
				<rect id="SVGID_00000141419191257803308670000009672932981729340563_" x="331" y="293" width="40.1" height="9.2"/>
			</defs>
			<clipPath id="SVGID_00000127765605342033154830000006437178258913834665_">
				<use xlink:href="#SVGID_00000141419191257803308670000009672932981729340563_"  style="overflow:visible;"/>
			</clipPath>
			<g style="clip-path:url(#SVGID_00000127765605342033154830000006437178258913834665_);">
				<path class="st11" d="M365,301.3c1.5,0.3,5.2-0.6,5.9-1.5s-0.6-3.6-1.5-4.3c-0.4-0.3-6.9-4.8-23.5-1c-8,1.8-15.6,5.7-14.8,7.6
					C331.4,302.9,344.5,297.3,365,301.3z"/>
			</g>
		</g>
	</g>
</g>
<g>
	<g>
		<g>
			<defs>
				<polygon id="SVGID_00000079452409119014766090000005932235163554119056_" points="414.4,318 414.4,318 442.3,318 442.3,344.8 
					414.4,344.8 				"/>
			</defs>
			<clipPath id="SVGID_00000090266865735597775860000004669124695187681438_">
				<use xlink:href="#SVGID_00000079452409119014766090000005932235163554119056_"  style="overflow:visible;"/>
			</clipPath>
			<g style="clip-path:url(#SVGID_00000090266865735597775860000004669124695187681438_);">
				<ellipse class="st4" cx="428.4" cy="331.4" rx="14" ry="13.4"/>
			</g>
		</g>
	</g>
</g>
<g>
	<g>
		<g>
			<defs>
				<polygon id="SVGID_00000148637865200641850200000009026298640173503364_" points="367.3,318 367.3,318 339.4,318 339.4,344.8 
					367.3,344.8 				"/>
			</defs>
			<clipPath id="SVGID_00000148659136820885769700000000599935824384492470_">
				<use xlink:href="#SVGID_00000148637865200641850200000009026298640173503364_"  style="overflow:visible;"/>
			</clipPath>
			<g style="clip-path:url(#SVGID_00000148659136820885769700000000599935824384492470_);">
				<ellipse class="st4" cx="353.4" cy="331.4" rx="14" ry="13.4"/>
			</g>
		</g>
	</g>
</g>
<g>
	<g>
		<g>
			<defs>
				<polygon id="SVGID_00000146479948867334386790000006795067121156563378_" points="424.3,322.1 424.3,322.1 442.9,322.1 
					442.9,340.7 424.3,340.7 				"/>
			</defs>
			<clipPath id="SVGID_00000060732091519216877820000007832081897326019713_">
				<use xlink:href="#SVGID_00000146479948867334386790000006795067121156563378_"  style="overflow:visible;"/>
			</clipPath>
			<g style="clip-path:url(#SVGID_00000060732091519216877820000007832081897326019713_);">
				<circle class="st7" cx="433.6" cy="331.4" r="9.3"/>
			</g>
		</g>
	</g>
</g>
<g>
	<g>
		<g>
			<defs>
				<polygon id="SVGID_00000173130518520647180770000000154166415417301652_" points="368.5,322.1 368.5,322.1 349.9,322.1 
					349.9,340.7 368.5,340.7 				"/>
			</defs>
			<clipPath id="SVGID_00000083784644883577509600000011836508109875249569_">
				<use xlink:href="#SVGID_00000173130518520647180770000000154166415417301652_"  style="overflow:visible;"/>
			</clipPath>
			<g style="clip-path:url(#SVGID_00000083784644883577509600000011836508109875249569_);">
				<circle class="st7" cx="359.2" cy="331.4" r="9.3"/>
			</g>
		</g>
	</g>
</g>
<ellipse class="st17" cx="390.9" cy="383.7" rx="5.7" ry="7.6"/>
</svg>
