<?xml version="1.0" encoding="utf-8"?>
<!-- Generator: Adobe Illustrator 26.0.2, SVG Export Plug-In . SVG Version: 6.00 Build 0)  -->
<svg version="1.1" id="Calque_1" xmlns="http://www.w3.org/2000/svg" xmlns:xlink="http://www.w3.org/1999/xlink" x="0px" y="0px"
	 viewBox="0 0 127.6 141.7" style="enable-background:new 0 0 127.6 141.7;" xml:space="preserve">
<style type="text/css">
	.st0{clip-path:url(#SVGID_00000077286471753491205100000006039936691603939993_);fill:#60131D;}
	.st1{clip-path:url(#SVGID_00000054229683785952545110000006054001993047312772_);fill:#60131D;}
	.st2{clip-path:url(#SVGID_00000139997089168225425660000006881422955583505322_);fill:#60131D;}
	.st3{clip-path:url(#SVGID_00000166651110512845939530000008462809678168509871_);fill:#60131D;}
	.st4{clip-path:url(#SVGID_00000055702455375001485010000004701972896749787065_);fill:#FFFFFF;}
	.st5{clip-path:url(#SVGID_00000178897629577672260300000006183580984320130954_);fill:#FFFFFF;}
	.st6{clip-path:url(#SVGID_00000154419273477639392400000001424976033543888821_);fill:#090909;}
	.st7{clip-path:url(#SVGID_00000017497327687787447270000010941841694724766095_);fill:#090909;}
	.st8{fill:#9D5E70;}
</style>
<g>
	<g>
		<g>
			<defs>
				<polygon id="SVGID_1_" points="84.8,16.5 84.8,16.5 128.1,16.5 128.1,29.7 84.8,29.7 				"/>
			</defs>
			<clipPath id="SVGID_00000035504160532814604960000008999865674391485364_">
				<use xlink:href="#SVGID_1_"  style="overflow:visible;"/>
			</clipPath>
			<path style="clip-path:url(#SVGID_00000035504160532814604960000008999865674391485364_);fill:#60131D;" d="M126.1,29.7
				c-0.3,0-0.6-0.1-0.8-0.2c-4.3-1.8-8.8-3.2-13.3-4.3c-14.6-3.3-15.5-1-20.5,0c-1.5,0.3-5-0.6-5.7-1.4s-1.4-4-0.5-4.7
				c0.4-0.3,6.9-4.8,23.5-1c6.9,1.6,17.9,7.6,18.2,7.7c1.1,0.4,1.6,1.6,1.2,2.7C127.8,29.2,127,29.8,126.1,29.7L126.1,29.7z"/>
		</g>
	</g>
</g>
<g>
	<g>
		<g>
			<defs>
				<polygon id="SVGID_00000162320169323462811530000003854711851265683609_" points="42.6,16.5 42.6,16.5 -0.7,16.5 -0.7,29.7 
					42.6,29.7 				"/>
			</defs>
			<clipPath id="SVGID_00000066508022772945225640000012369139247124642740_">
				<use xlink:href="#SVGID_00000162320169323462811530000003854711851265683609_"  style="overflow:visible;"/>
			</clipPath>
			<path style="clip-path:url(#SVGID_00000066508022772945225640000012369139247124642740_);fill:#60131D;" d="M1.3,29.7
				c0.3,0,0.6-0.1,0.8-0.2c4.3-1.8,8.8-3.2,13.4-4.3c14.6-3.3,15.5-1,20.5,0c1.5,0.3,5-0.6,5.7-1.4s1.4-4,0.5-4.7
				c-0.4-0.3-6.9-4.8-23.5-1c-6.9,1.6-17.9,7.6-18.2,7.7c-1.1,0.4-1.6,1.6-1.2,2.7C-0.3,29.2,0.5,29.8,1.3,29.7L1.3,29.7z"/>
		</g>
	</g>
</g>
<g>
	<g>
		<g>
			<defs>
				<rect id="SVGID_00000116923934669479200550000011174039184015262648_" x="83.5" y="16.5" width="40.1" height="9.2"/>
			</defs>
			<clipPath id="SVGID_00000160903380176656541210000011727749696256035746_">
				<use xlink:href="#SVGID_00000116923934669479200550000011174039184015262648_"  style="overflow:visible;"/>
			</clipPath>
			<path style="clip-path:url(#SVGID_00000160903380176656541210000011727749696256035746_);fill:#60131D;" d="M89.6,24.8
				c-1.4,0.3-5.2-0.6-5.9-1.5s0.6-3.6,1.5-4.3c0.4-0.3,6.9-4.8,23.5-1c8,1.8,15.6,5.7,14.8,7.6C123.2,26.4,110,20.8,89.6,24.8z"/>
		</g>
	</g>
</g>
<g>
	<g>
		<g>
			<defs>
				<rect id="SVGID_00000015346041320571956170000010474851678104362661_" x="3.8" y="16.5" width="40.1" height="9.2"/>
			</defs>
			<clipPath id="SVGID_00000061457568103500829590000012897269819807968906_">
				<use xlink:href="#SVGID_00000015346041320571956170000010474851678104362661_"  style="overflow:visible;"/>
			</clipPath>
			<path style="clip-path:url(#SVGID_00000061457568103500829590000012897269819807968906_);fill:#60131D;" d="M37.8,24.8
				c1.5,0.3,5.2-0.6,5.9-1.5s-0.6-3.6-1.5-4.3c-0.4-0.3-6.9-4.8-23.5-1c-8,1.8-15.6,5.7-14.8,7.6C4.2,26.4,17.4,20.8,37.8,24.8z"/>
		</g>
	</g>
</g>
<g>
	<g>
		<g>
			<defs>
				<polygon id="SVGID_00000080897417321892159390000001619634683904365204_" points="87.3,41.5 87.3,41.5 115.2,41.5 115.2,68.3 
					87.3,68.3 				"/>
			</defs>
			<clipPath id="SVGID_00000165928455222698132050000010947766148898080128_">
				<use xlink:href="#SVGID_00000080897417321892159390000001619634683904365204_"  style="overflow:visible;"/>
			</clipPath>
			
				<ellipse style="clip-path:url(#SVGID_00000165928455222698132050000010947766148898080128_);fill:#FFFFFF;" cx="101.2" cy="54.9" rx="14" ry="13.4"/>
		</g>
	</g>
</g>
<g>
	<g>
		<g>
			<defs>
				<polygon id="SVGID_00000130612430548270288790000011529727405239167122_" points="40.1,41.5 40.1,41.5 12.2,41.5 12.2,68.3 
					40.1,68.3 				"/>
			</defs>
			<clipPath id="SVGID_00000038394932609531069720000001691899246163290026_">
				<use xlink:href="#SVGID_00000130612430548270288790000011529727405239167122_"  style="overflow:visible;"/>
			</clipPath>
			
				<ellipse style="clip-path:url(#SVGID_00000038394932609531069720000001691899246163290026_);fill:#FFFFFF;" cx="26.2" cy="54.9" rx="14" ry="13.4"/>
		</g>
	</g>
</g>
<g>
	<g>
		<g>
			<defs>
				<polygon id="SVGID_00000039844248797137687440000009391092582723664517_" points="91.8,47.5 91.8,47.5 110.4,47.5 110.4,66.2 
					91.8,66.2 				"/>
			</defs>
			<clipPath id="SVGID_00000142162784633366962850000004394559774955271093_">
				<use xlink:href="#SVGID_00000039844248797137687440000009391092582723664517_"  style="overflow:visible;"/>
			</clipPath>
			
				<circle style="clip-path:url(#SVGID_00000142162784633366962850000004394559774955271093_);fill:#090909;" cx="101.1" cy="56.9" r="9.3"/>
		</g>
	</g>
</g>
<g>
	<g>
		<g>
			<defs>
				<polygon id="SVGID_00000035498994604178257840000005041070476411407234_" points="35.6,47.5 35.6,47.5 17,47.5 17,66.2 
					35.6,66.2 				"/>
			</defs>
			<clipPath id="SVGID_00000156585076803836106610000012939912478450463122_">
				<use xlink:href="#SVGID_00000035498994604178257840000005041070476411407234_"  style="overflow:visible;"/>
			</clipPath>
			
				<circle style="clip-path:url(#SVGID_00000156585076803836106610000012939912478450463122_);fill:#090909;" cx="26.3" cy="56.9" r="9.3"/>
		</g>
	</g>
</g>
<path class="st8" d="M51.9,104.3c0-1.7,1.3-3.8,11.8-3.8s13,1.8,13,3.4s-2.9,6.6-13.4,6.6S51.9,105.9,51.9,104.3z"/>
</svg>
