<?xml version="1.0" encoding="utf-8"?>
<!-- Generator: Adobe Illustrator 26.0.2, SVG Export Plug-In . SVG Version: 6.00 Build 0)  -->
<svg version="1.1" id="Calque_1" xmlns="http://www.w3.org/2000/svg" xmlns:xlink="http://www.w3.org/1999/xlink" x="0px" y="0px"
	 viewBox="0 0 788 1005" style="enable-background:new 0 0 788 1005;" xml:space="preserve">
<style type="text/css">
	.st0{clip-path:url(#SVGID_00000147186931036484653050000018241237785975325832_);fill:#60131D;}
	.st1{clip-path:url(#SVGID_00000127040899906569041090000004234317459991684271_);fill:#60131D;}
	.st2{clip-path:url(#SVGID_00000027583370115044725480000012668541913486581171_);fill:#60131D;}
	.st3{clip-path:url(#SVGID_00000116919009917929261560000003188607431796744876_);fill:#60131D;}
	.st4{clip-path:url(#SVGID_00000121242631452504404720000018210884961567268007_);fill:#FFFFFF;}
	.st5{clip-path:url(#SVGID_00000057137325790898073750000014830061265244209049_);fill:#FFFFFF;}
	.st6{clip-path:url(#SVGID_00000065787884054521473130000004448827513306643362_);fill:#090909;}
	.st7{clip-path:url(#SVGID_00000140696402744541967380000002619660511936637866_);fill:#090909;}
	.st8{fill:#9D5E70;}
	.st9{fill:#99533D;}
	.st10{fill:#F4EBE9;}
</style>
<g>
	<g>
		<defs>
			<polygon id="SVGID_1_" points="411.9,292 411.9,292 455.3,292 455.3,305.2 411.9,305.2 			"/>
		</defs>
		<clipPath id="SVGID_00000016060839671526320810000005078848672302379154_">
			<use xlink:href="#SVGID_1_"  style="overflow:visible;"/>
		</clipPath>
		<path style="clip-path:url(#SVGID_00000016060839671526320810000005078848672302379154_);fill:#60131D;" d="M453.2,305.2
			c-0.3,0-0.6-0.1-0.8-0.2c-4.3-1.8-8.8-3.2-13.3-4.3c-14.6-3.3-15.5-1-20.5,0c-1.5,0.3-5-0.6-5.7-1.4c-0.7-0.9-1.4-4-0.5-4.7
			c0.4-0.3,6.9-4.8,23.5-1c6.9,1.6,17.9,7.6,18.2,7.7c1.1,0.4,1.6,1.6,1.2,2.7C454.9,304.7,454.1,305.3,453.2,305.2L453.2,305.2z"/>
	</g>
</g>
<g>
	<g>
		<defs>
			<polygon id="SVGID_00000147197102193847062790000014257378098301129658_" points="369.8,292 369.8,292 326.4,292 326.4,305.2 
				369.8,305.2 			"/>
		</defs>
		<clipPath id="SVGID_00000005949723798011764330000011832440491851044275_">
			<use xlink:href="#SVGID_00000147197102193847062790000014257378098301129658_"  style="overflow:visible;"/>
		</clipPath>
		<path style="clip-path:url(#SVGID_00000005949723798011764330000011832440491851044275_);fill:#60131D;" d="M328.5,305.2
			c0.3,0,0.6-0.1,0.8-0.2c4.3-1.8,8.8-3.2,13.4-4.3c14.6-3.3,15.5-1,20.5,0c1.5,0.3,5-0.6,5.7-1.4c0.7-0.9,1.4-4,0.5-4.7
			c-0.4-0.3-6.9-4.8-23.5-1c-6.9,1.6-17.9,7.6-18.2,7.7c-1.1,0.4-1.6,1.6-1.2,2.7C326.9,304.7,327.7,305.3,328.5,305.2L328.5,305.2z
			"/>
	</g>
</g>
<g>
	<g>
		<defs>
			<rect id="SVGID_00000008855933464588719650000004328777431016284860_" x="410.6" y="292" width="40.1" height="9.2"/>
		</defs>
		<clipPath id="SVGID_00000177460949688214359940000008401827143045916565_">
			<use xlink:href="#SVGID_00000008855933464588719650000004328777431016284860_"  style="overflow:visible;"/>
		</clipPath>
		<path style="clip-path:url(#SVGID_00000177460949688214359940000008401827143045916565_);fill:#60131D;" d="M416.8,300.3
			c-1.4,0.3-5.2-0.6-5.9-1.5c-0.7-0.9,0.6-3.6,1.5-4.3c0.4-0.3,6.9-4.8,23.5-1c8,1.8,15.6,5.7,14.8,7.6
			C450.4,301.9,437.2,296.3,416.8,300.3z"/>
	</g>
</g>
<g>
	<g>
		<defs>
			<rect id="SVGID_00000108305802720785447010000001211116589567740582_" x="331" y="292" width="40.1" height="9.2"/>
		</defs>
		<clipPath id="SVGID_00000010309124153868896730000002196582027399039901_">
			<use xlink:href="#SVGID_00000108305802720785447010000001211116589567740582_"  style="overflow:visible;"/>
		</clipPath>
		<path style="clip-path:url(#SVGID_00000010309124153868896730000002196582027399039901_);fill:#60131D;" d="M365,300.3
			c1.5,0.3,5.2-0.6,5.9-1.5s-0.6-3.6-1.5-4.3c-0.4-0.3-6.9-4.8-23.5-1c-8,1.8-15.6,5.7-14.8,7.6C331.4,301.9,344.5,296.3,365,300.3z
			"/>
	</g>
</g>
<g>
	<g>
		<defs>
			<polygon id="SVGID_00000036943532009105927020000014790712672800217487_" points="414.4,317 414.4,317 442.3,317 442.3,343.8 
				414.4,343.8 			"/>
		</defs>
		<clipPath id="SVGID_00000171701988093273230670000017598986650743866553_">
			<use xlink:href="#SVGID_00000036943532009105927020000014790712672800217487_"  style="overflow:visible;"/>
		</clipPath>
		
			<ellipse style="clip-path:url(#SVGID_00000171701988093273230670000017598986650743866553_);fill:#FFFFFF;" cx="428.4" cy="330.4" rx="14" ry="13.4"/>
	</g>
</g>
<g>
	<g>
		<defs>
			<polygon id="SVGID_00000012472959841625602420000001235708820333668274_" points="367.3,317 367.3,317 339.4,317 339.4,343.8 
				367.3,343.8 			"/>
		</defs>
		<clipPath id="SVGID_00000169543393337572404150000002423988156574244487_">
			<use xlink:href="#SVGID_00000012472959841625602420000001235708820333668274_"  style="overflow:visible;"/>
		</clipPath>
		
			<ellipse style="clip-path:url(#SVGID_00000169543393337572404150000002423988156574244487_);fill:#FFFFFF;" cx="353.4" cy="330.4" rx="14" ry="13.4"/>
	</g>
</g>
<g>
	<g>
		<defs>
			<polygon id="SVGID_00000067221867305284415200000013246196730775395513_" points="418.9,323 418.9,323 437.6,323 437.6,341.7 
				418.9,341.7 			"/>
		</defs>
		<clipPath id="SVGID_00000029026288228022235060000003633043139472477849_">
			<use xlink:href="#SVGID_00000067221867305284415200000013246196730775395513_"  style="overflow:visible;"/>
		</clipPath>
		
			<circle style="clip-path:url(#SVGID_00000029026288228022235060000003633043139472477849_);fill:#090909;" cx="428.3" cy="332.4" r="9.3"/>
	</g>
</g>
<g>
	<g>
		<defs>
			<polygon id="SVGID_00000008138784245270548430000002991659544955024781_" points="362.8,323 362.8,323 344.2,323 344.2,341.7 
				362.8,341.7 			"/>
		</defs>
		<clipPath id="SVGID_00000041986830190486325730000013264766459598598035_">
			<use xlink:href="#SVGID_00000008138784245270548430000002991659544955024781_"  style="overflow:visible;"/>
		</clipPath>
		
			<circle style="clip-path:url(#SVGID_00000041986830190486325730000013264766459598598035_);fill:#090909;" cx="353.5" cy="332.4" r="9.3"/>
	</g>
</g>
<path class="st8" d="M379.1,379.8c0-1.7,1.3-3.8,11.8-3.8s13,1.8,13,3.4s-2.9,6.6-13.4,6.6C379.9,386,379.1,381.4,379.1,379.8z"/>
<path class="st9" d="M379.5,358.3c-1,0.1-1.4,0.7-0.6,1c3,1.2,8.6,3.3,12.3,3.3c3.5,0,8.9-2.1,11.7-3.3c0.8-0.3,0.4-0.9-0.6-1
	c-3.3-0.2-4.7,0.6-11.4,0.6C385.1,359,382.8,358.1,379.5,358.3z"/>
<path class="st10" d="M344.4,378.9l0.6-8.5c0.6-7.5,5.5-13.9,12.5-16.5c10.8-3.9,26.2-9,33.5-9c7.2,0.1,22.6,5.5,32.9,9.5
	c6.2,2.4,10.7,7.8,11.9,14.2c1.2,6.4,2.4,13.6,2,14c-0.1,3.5-2.6,12.7-4,13.8c-1.2,1.1-17.1,10.1-20.9,12.5
	c-0.9,0.6-1.8,1.1-2.8,1.5c-3.9,1.6-12.9,4.7-21.9,4.6c-7.8-0.1-15.7-2.8-19.9-4.5c-1.9-0.8-3.6-1.8-5.1-3.1l-11.6-9.8
	c-3.6-3-5.9-7.2-6.6-11.9l-0.4-2.6C344.3,381.7,344.3,380.3,344.4,378.9z"/>
</svg>
