<?xml version="1.0" encoding="utf-8"?>
<!-- Generator: Adobe Illustrator 26.0.3, SVG Export Plug-In . SVG Version: 6.00 Build 0)  -->
<svg version="1.1" id="Layer_1" xmlns="http://www.w3.org/2000/svg" xmlns:xlink="http://www.w3.org/1999/xlink" x="0px" y="0px"
	 viewBox="0 0 388 581.4" style="enable-background:new 0 0 388 581.4;" xml:space="preserve">
<style type="text/css">
	.st0{fill:#5275B2;}
	.st1{fill:#E0B9A0;}
	.st2{fill:#9CCBF2;}
	.st3{fill:#86B9DB;}
	.st4{fill:#CA9072;}
	.st5{fill:none;stroke:#669AAB;stroke-width:2;stroke-linecap:round;stroke-miterlimit:10;}
</style>
<g id="Calque_1_00000169525946424355177590000002523185231365584262_">
	<path class="st0" d="M232.4,46.6c16.5,4.7,23.7,8.6,27.6,14.8c3.2,5,4.4,16.5,4.6,22.3c0.6,13.5-0.5,62.7-16.2,77.2
		c-16,14.8-93.9,14.8-109.9,0c-15.7-14.5-18.6-63.7-18-77.2c0.2-5.7-0.2-7.2,0.3-12.9c1.4-14.2,17.2-19.5,33.7-24.2
		c18.9-5.4,38-4.5,38-4.5S213.6,41.3,232.4,46.6z"/>
</g>
<path class="st1" d="M136.6,263.6c-13.9-0.2-22.3,6.7-24.9,18.2c0,0-7.1,55.4-8.3,77c-1.9,34.7,2.5,101.6,7.2,136
	c1,7.5,3,30.3,3,30.3c0.7,6.8,6.4,11.9,13.2,11.8l0,0c6.7-0.1,12.2-5.2,12.9-11.8c0,0,2.2-26.1,3.5-34.8c4.6-31.3,18-93.5,20-125.2
	c1.2-19-0.4-77.5-0.4-77.5C162,268.4,148.5,264.2,136.6,263.6L136.6,263.6z"/>
<path class="st2" d="M126.1,517L126.1,517c-6.1,0.1-11.5,3.7-14.1,9.2l0,0c-5.9,12.3-30.6,28.9-30.6,28.9c-4.4,3.5-6.6,9.1-5.5,14.6
	l0,0l60.3-0.3l3.4-1c3.9-1.2,6.4-5,6-9l-3.5-30C140.4,522,133.7,516.8,126.1,517z"/>
<path class="st3" d="M77.6,569.4L77.6,569.4c-0.8-4.9,2.5-9.5,7.4-10.3h0.1l35.8-5.4c4.6-0.7,9,2.2,10.1,6.8l2.1,8.5L77.6,569.4z"/>
<path class="st4" d="M252.4,263.6c12.4-0.2,19.9,6.7,22.2,18.2c0,0,14.4,53.4,15.5,75c1.7,34.7-10.2,103.6-14.5,138
	c-0.9,7.5-2.7,30.3-2.7,30.3c-0.6,6.8-5.7,11.9-11.8,11.8l0,0c-6-0.1-10.9-5.2-11.5-11.8c0,0-2-26.1-3.1-34.8
	c-4.1-31.3-16.1-93.5-17.9-125.2c-1.1-19,0.4-77.5,0.4-77.5C229.7,268.4,241.8,264.2,252.4,263.6L252.4,263.6z"/>
<path class="st1" d="M275.4,513.2c-1.2,34,40.1,38.4,40.1,38.4c4.4,3.5-67,21.8-66.6,17.8c0,0,1.5-52-1-65.2
	C246.1,494.9,276.1,493.2,275.4,513.2z"/>
<path class="st2" d="M262.6,532c6.4-2.2,5.9-6.8,8.5-9.4c1.5-1.5,7.9-3.2,8.8-1.2c10.7,22.7,61.2,35.4,61.2,35.4
	c5.3,3.8,6.6,9.1,5.5,14.6l0,0c0,0-43.8,9.4-67.8-1.3c-4.8-2.1-9,3.1-9,3.1s-22.4,3.7-21.1-3.1l-2.5-42.7
	C247.8,520,251.6,535.8,262.6,532z"/>
<path class="st3" d="M347,571.9c0.8-9-4.3-14.7-6-14.4c-2.5,0.3-6.5,2.4-9,2.8c-4,0.7-16-0.3-16-0.3c-3.1-0.3-5.6,2.8-5.9,7.1
	l-0.2,8.6c0,0,7.3,1,24.6-1.6C337.6,573.7,347,571.9,347,571.9z"/>
<path class="st0" d="M123,66l-2,15.6L83.8,491.8c-1.1,14,7.7,20.4,22.1,21.4c1,0.1,29.4-3.1,29.4-3.1c15.6-0.3,26.9,8.3,27.7-6.9
	l8.5-131.2c0,0,6.3-78.1,9.1-97.1c4.1-27.7,15.1-112.1,15.1-112.1l1.4-97.5L123,66z"/>
<path class="st0" d="M188.8,75.3l1.2,92.3l6.2,0.8l15,335.3c0.7,18.1,24,9.4,42.6,8.8c2.3-0.1,18.9-0.3,27.5-0.5
	c5.2-0.1,10.4-1.6,14.6-4.6c7.6-5.5,9.8-13.7,8.4-25.4l-3.9-32.8l-8.9-126.1L264.6,83.7l-70.1-8L188.8,75.3z"/>
<path class="st5" d="M281.3,533.5"/>
<path class="st5" d="M290.3,531.3"/>
</svg>
