<?xml version="1.0" encoding="utf-8"?>
<!-- Generator: Adobe Illustrator 26.0.3, SVG Export Plug-In . SVG Version: 6.00 Build 0)  -->
<svg version="1.1" id="Calque_1" xmlns="http://www.w3.org/2000/svg" xmlns:xlink="http://www.w3.org/1999/xlink" x="0px" y="0px"
	 viewBox="0 0 788 1005" style="enable-background:new 0 0 788 1005;" xml:space="preserve">
<style type="text/css">
	.st0{fill:#3FA9F5;}
	.st1{fill:#D3D3D3;}
	.st2{fill:#D34B1C;}
	.st3{fill:#E0B9A0;}
	.st4{fill:#2E3532;}
	.st5{fill:none;stroke:#D34B1C;stroke-width:2;stroke-miterlimit:10;}
</style>
<g>
	<path class="st0" d="M340.5,631.3c-13.9-0.2-22.3,6.7-24.9,18.2c0,0-7.1,55.4-8.3,77c-1.9,34.7,2.5,101.6,7.2,136
		c1,7.5,3,30.3,3,30.3c0.7,6.8,6.4,11.9,13.2,11.8l0,0c6.7-0.1,12.2-5.2,12.9-11.8c0,0,2.2-26.1,3.5-34.8c4.6-31.3,18-93.5,20-125.1
		c1.2-19-0.4-77.5-0.4-77.5C365.8,636.1,352.4,631.8,340.5,631.3L340.5,631.3z"/>
	<path class="st1" d="M330,884.7L330,884.7c-6.1,0.1-11.5,3.7-14.1,9.2l0,0c-5.8,12.3-30.5,28.9-30.5,28.9
		c-4.4,3.5-6.6,9.1-5.5,14.6l0,0L340,937l3.4-1c3.9-1.2,6.4-5,6-9l-3.4-29.9C344.3,889.7,337.6,884.5,330,884.7z"/>
	<path class="st2" d="M281.5,937.1L281.5,937.1c-0.8-4.9,2.5-9.5,7.4-10.3h0.1l35.9-5.4c4.6-0.7,9,2.2,10.1,6.8l2.1,8.5L281.5,937.1
		z"/>
	<path class="st0" d="M456.3,631.3c12.4-0.2,19.9,6.7,22.2,18.2c0,0,14.4,53.4,15.5,75c1.7,34.7-10.2,103.6-14.5,138
		c-0.9,7.5-2.7,30.3-2.7,30.3c-0.6,6.8-5.7,11.9-11.8,11.8l0,0c-6-0.1-10.9-5.2-11.5-11.8c0,0-2-26.1-3.1-34.8
		c-4.1-31.3-16.1-93.5-17.9-125.1c-1.1-19,0.4-77.5,0.4-77.5C433.6,636.1,445.6,631.8,456.3,631.3L456.3,631.3z"/>
	<path class="st3" d="M479.3,880.9c-1.2,34,40,38.4,40,38.4c4.4,3.5-67,21.8-66.6,17.8c0,0,1.5-52-1-65.2
		C449.9,862.5,480,860.9,479.3,880.9z"/>
	<path class="st1" d="M466.4,899.7c6.4-2.2,5.9-6.8,8.5-9.4c1.5-1.5,7.9-3.2,8.8-1.2c10.7,22.7,61.2,35.4,61.2,35.4
		c5.4,3.8,6.6,9.1,5.5,14.6l0,0c0,0-43.8,9.4-67.8-1.3c-4.8-2.1-9,3.1-9,3.1s-22.4,3.7-21.1-3.1l-2.5-42.7
		C451.6,887.7,455.5,903.5,466.4,899.7z"/>
	<path class="st2" d="M550.9,939.6c0.8-9-4.3-14.7-6-14.4c-2.5,0.3-6.5,2.4-9,2.8c-4,0.7-16-0.3-16-0.3c-3.1-0.3-5.6,2.8-5.9,7.1
		l-0.2,8.6c0,0,7.3,1,24.6-1.6C541.4,941.4,550.9,939.6,550.9,939.6z"/>
	<path class="st4" d="M321.4,432.5l-2.1,19.6l-36.9,437.8c-0.5,6,4.4,11.1,10.4,10.9l25.6-1.1l25.4,0.5c5.3,0.1,9.7-3.9,10.2-9.2
		c2.8-32.2,12.2-138,14.6-166.6c1.6-19.6-2.8,19.5,0,0c4.1-28.4,31-228.5,31-228.5l0.7-64.4L321.4,432.5z"/>
	<path class="st4" d="M391.4,433.7l2,55.3l27.5,206.7l15,177.2l0.6,17.5c0.3,7.4,7.1,12.7,14.3,11l49.5-11.3
		c5.7-1.3,9.6-6.7,9.1-12.5l-17.9-194l0,0l-26.6-252l-67.5,2.5L391.4,433.7z"/>
	<path class="st5" d="M313,903.3c0,0,4.7-3.4,8.9-3.3c5.1,0,10,3.1,10,3.1"/>
	<path class="st5" d="M494.2,899c0,0-5.1,2.1-9,2.2"/>
	<path class="st5" d="M499.8,903.9c0,0-5,2.4-8.9,2.7"/>
	<path class="st2" d="M323.7,413.1v8.7c0,1.6,1.2,2.9,2.7,2.9h133.2c1.5,0,2.7-1.3,2.7-2.9v-8.7c0-1.6-1.2-2.9-2.7-2.9H326.5
		C325,410.2,323.7,411.5,323.7,413.1z"/>
	<path class="st2" d="M326.7,416.3l-0.7,1c-2.6,4.1-4.5,8.6-5.2,13.4l-31.7,200.1c-0.5,3.6,1.9,6.9,5.6,7.4
		c19.1,2.8,74.8,10.7,102.3,10.7c26.9,0,71-6.4,87.2-9c3.6-0.6,6-3.8,5.5-7.2L466.2,429c-0.4-3.3-1.6-6.5-3.7-9.3l-1.7-2.3
		L326.7,416.3z"/>
</g>
</svg>
