<?xml version="1.0" encoding="utf-8"?>
<!-- Generator: Adobe Illustrator 26.0.3, SVG Export Plug-In . SVG Version: 6.00 Build 0)  -->
<svg version="1.1" id="Layer_1" xmlns="http://www.w3.org/2000/svg" xmlns:xlink="http://www.w3.org/1999/xlink" x="0px" y="0px"
	 viewBox="0 0 388 581.4" style="enable-background:new 0 0 388 581.4;" xml:space="preserve">
<style type="text/css">
	.st0{fill:#E0B9A0;}
	.st1{fill:#547A87;}
	.st2{fill:#2B2B2B;}
	.st3{fill:#FA9980;}
	.st4{fill:none;stroke:#2B2B2B;stroke-width:4;stroke-linecap:round;stroke-miterlimit:10;}
</style>
<path class="st0" d="M136.5,263.6c-13.9-0.2-22.3,6.7-24.9,18.2c0,0-7.1,55.4-8.3,77c-1.9,34.7,2.5,101.6,7.2,136
	c1,7.5,3,30.3,3,30.3c0.6,6.8,6.4,12,13.2,11.9l0,0c6.7-0.1,12.2-5.2,12.9-11.8c0,0,2.2-26.1,3.5-34.8c4.6-31.3,18-93.5,20-125.1
	c1.2-19-0.4-77.5-0.4-77.5C161.9,268.4,148.5,264.2,136.5,263.6L136.5,263.6z"/>
<path class="st1" d="M126,517L126,517c-6.1,0.2-11.5,3.7-14.1,9.2l0,0c-5.8,12.3-30.5,28.9-30.5,28.9c-4.4,3.5-6.6,9.1-5.6,14.6l0,0
	l60.3-0.3l3.4-1c3.9-1.2,6.4-5,6-9l-3.5-30C140.2,522,133.6,516.8,126,517z"/>
<path class="st2" d="M77.5,569.4L77.5,569.4c-0.8-4.9,2.5-9.5,7.4-10.4H85l35.9-5.4c4.6-0.7,9,2.2,10.1,6.8l2.1,8.5L77.5,569.4z"/>
<path class="st3" d="M252.3,263.6c12.4-0.2,19.9,6.7,22.2,18.2c0,0,14.4,53.4,15.5,75c1.7,34.7-10.2,103.6-14.5,138
	c-0.9,7.5-2.7,30.3-2.7,30.3c-0.6,6.8-5.7,11.9-11.8,11.8l0,0c-6-0.1-10.9-5.2-11.5-11.8c0,0-2-26.1-3.1-34.8
	c-4.1-31.3-16.1-93.5-17.9-125.1c-1.1-19,0.4-77.5,0.4-77.5C229.7,268.4,241.7,264.1,252.3,263.6L252.3,263.6z"/>
<path class="st0" d="M274,510.3c-1.2,34,41.4,41.2,41.4,41.2c4.4,3.5-67,21.8-66.6,17.8c0,0,1.5-52-1-65.2
	C246,494.9,274.7,490.3,274,510.3z"/>
<path class="st1" d="M262.5,532c6.4-2.2,5.9-6.8,8.5-9.4c1.5-1.5,7.9-3.2,8.8-1.2c10.7,22.7,61.2,35.4,61.2,35.4
	c5.4,3.8,6.6,9.1,5.5,14.6l0,0c0,0-43.8,9.4-67.8-1.3c-4.8-2.2-9,3-9,3s-22.4,3.7-21.2-3l-2.5-42.7C247.8,520,251.5,535.8,262.5,532
	z"/>
<path class="st2" d="M347,571.9c0.8-9-4.3-14.7-6-14.4c-2.5,0.3-6.5,2.4-9,2.8c-4,0.7-16-0.3-16-0.3c-3.1-0.3-5.6,2.8-5.9,7.1
	l-0.2,8.6c0,0,7.3,1,24.6-1.6C337.5,573.7,347,571.9,347,571.9z"/>
<path class="st1" d="M130,65.8c-7.6,0.2-11.8-14.4-13.1-3.3l-2.2,22.8l-12.8,142.8c-0.1,0.8-0.1,1.5-0.1,2.1l-6.8,246
	c-0.3,11.7,5.8,22.7,16.2,29.2h0.1c2.1,1.4,4.3,1.8,6.6,1.8l12.9-0.8c19.8-1.2,35.8-15.9,37.5-34.6c3.6-38.6,9.5-100.7,11.3-122
	c1.6-18.5,0.3-60.4,3.1-78.9c3.8-24.6,11.4-95.4,12.7-106.7c0.1-1.1,0.2-2.1,0.2-3.2l1.3-71.8c0.2-13.2-6.9-24.2-15.7-24L130,65.8z"
	/>
<path class="st1" d="M188.3,71.7l1.6,91.8l19.6,156.2l6.7,160.5c0.2,3.7,1.1,7.2,2.8,9.8l0,0c2,3.2,3.7,6.6,5.5,9.9
	c6.4,12.1,25.7,11.6,41,10.3l2.5-0.2c16.6-1.4,30.2-13,33.8-28.6l1.1-4.7l-8.3-142.3L273.2,65.3L194.5,72L188.3,71.7z"/>
<path class="st4" d="M109.1,535.6c0,0,4.7-3.4,8.9-3.3c5.1,0,10,3.1,10,3.1"/>
<path class="st4" d="M106.2,541.2c0,0,4.7-3.4,8.9-3.3c5.1,0,10,3.1,10,3.1"/>
<path class="st4" d="M290.2,531.3c0,0-5.1,2.1-9,2.2"/>
<path class="st4" d="M295.9,536.2c0,0-5,2.4-8.9,2.7"/>
<path class="st1" d="M238.1,30.1c17.9,6,25.7,11.1,30,19c3.5,6.5,6.7,21.2,7,28.6c0.6,17.3-8.6,60.8-24.3,75.4
	c-16,14.8-93.9,14.8-109.9,0c-15.7-14.5-24.9-58-24.3-75.4c0.3-7.4-0.2-9.3,0.4-16.6c1.5-18.2,18.7-25,36.5-31
	c20.5-6.9,41.3-5.8,41.3-5.8S217.6,23.2,238.1,30.1z"/>
<path class="st2" d="M273.9,82.6c0,0,20.1,244.3,20.8,256.5c0.7,12.2,8.3,138.2,8.3,138.2s-2,13.1-8.3,19
	c-0.1,0.1-8.9-152.1-14-202.1S259.2,39.5,259.2,39.5s6.3,5.9,8.5,13.2S272.4,70.9,273.9,82.6z"/>
<path class="st2" d="M101.2,228c0,0-0.7,65.9-1.4,77.9c-0.7,12.1-4.5,174-4.5,174s1.2,12.4,7.6,18.3c0.1,0.1,2.1-155,4.7-205
	c4.6-89.7,21.5-252.5,21.5-252.5s-7.9,8.8-10.1,15.9C116.7,63.7,102.6,216.3,101.2,228z"/>
<path class="st2" d="M76.2,562.4c0,0-1.2,3.7-0.5,7.2l60.3-0.3c0,0,9.8-1.2,9.4-9.5l-0.4-3.3l-7,4.8c-1.7,1.2-3.7,1.8-5.8,1.7
	L76.2,562.4z"/>
<path class="st2" d="M248.3,566.7l0.2,3.7c0,0-0.3,1.4,0.8,2.1c1.1,0.7,2.1,1.2,3.7,1.4s6.7,0.9,16.7-0.7c0,0,2.9-3.8,7.1-3.6
	c3.3,0.2,3.2,3,18.3,4.8c15.1,1.7,23.5,2.3,31.2,1.2s15.4-2.4,20.8-3.6v-2.7c0,0-24.3,3.5-38,2.7s-29.6-6-32.2-6.2
	c-5.8-0.5-9,3.2-10.1,3.2S248.3,566.7,248.3,566.7z"/>
</svg>
