<?xml version="1.0" encoding="utf-8"?>
<!-- Generator: Adobe Illustrator 26.0.3, SVG Export Plug-In . SVG Version: 6.00 Build 0)  -->
<svg version="1.1" id="Layer_1" xmlns="http://www.w3.org/2000/svg" xmlns:xlink="http://www.w3.org/1999/xlink" x="0px" y="0px"
	 viewBox="0 0 388 581.4" style="enable-background:new 0 0 388 581.4;" xml:space="preserve">
<style type="text/css">
	.st0{fill:#9B2745;}
	.st1{fill:#E0B9A0;}
	.st2{fill:#E2B440;}
	.st3{fill:#CCA03E;}
	.st4{fill:#944E31;}
	.st5{fill:none;stroke:#CCA03E;stroke-width:4;stroke-linecap:round;stroke-miterlimit:10;}
</style>
<path class="st0" d="M238.4,27.6c15.7,4.3,22.5,7.9,26.2,13.5c3,4.6,5.8,15.1,6.1,20.3c0.5,12.3-5.6,56.6-19.8,69.2
	c-14.4,12.9-84.8,12.9-99.2,0c-14.1-12.6-20.3-56.9-19.8-69.2c0.2-5.2,3.1-15.8,6.1-20.3c3.7-5.7,10.6-9.3,26.2-13.5
	c17.9-4.9,36.2-4.1,36.2-4.1S220.5,22.7,238.4,27.6z"/>
<polygon class="st0" points="36,111.1 36.1,111 36,111 "/>
<polygon class="st0" points="36.1,111 36.2,111.1 36.2,111 "/>
<polygon class="st0" points="36,111.1 36.1,111 36,111 "/>
<polygon class="st0" points="36.1,111 36.2,111.1 36.2,111 "/>
<path class="st1" d="M142.5,262.9c-13.9-0.2-22.3,6.7-24.9,18.2c0,0-7.1,55.4-8.3,77c-1.9,34.7,2.5,101.6,7.2,136
	c1,7.5,3,30.3,3,30.3c0.7,6.8,6.4,11.9,13.2,11.8l0,0c6.7-0.1,12.2-5.2,12.9-11.8c0,0,2.2-26.1,3.5-34.8c4.6-31.3,18-93.5,20-125.1
	c1.2-19-0.5-77.5-0.5-77.5C167.9,267.7,154.4,263.5,142.5,262.9z"/>
<path class="st2" d="M132,516.4L132,516.4c-6.1,0.1-11.5,3.7-14.1,9.2l0,0c-5.9,12.4-30.5,28.9-30.5,28.9c-4.4,3.5-6.6,9.1-5.5,14.6
	l0,0l60.3-0.3l3.4-1c3.9-1.2,6.4-5,6-9l-3.5-30C146.3,521.3,139.6,516.1,132,516.4z"/>
<path class="st3" d="M83.5,568.7L83.5,568.7c-0.8-4.9,2.5-9.5,7.4-10.3H91l35.8-5.5c4.6-0.7,9,2.2,10.1,6.8l2.1,8.5L83.5,568.7z"/>
<path class="st0" d="M238.9,27.1c15.7,4.3,22.5,7.9,26.2,13.5c3,4.6,5.8,15.1,6.1,20.4c0.5,12.3-5.6,56.5-19.8,69.1
	c-14.4,12.9-84.8,12.9-99.2,0c-14.1-12.6-20.3-56.8-19.8-69.1c0.2-5.2,3.1-15.8,6.1-20.4c3.7-5.7,10.6-9.3,26.2-13.5
	c17.9-4.9,36.2-4.1,36.2-4.1S221,22.2,238.9,27.1z"/>
<path class="st0" d="M281.4,280.2c-1.2,13.4-12.1,23.8-25.5,24.4l0,0c-12.8,0.6-24.3-7.9-27.3-20.3c0,0-18.9-88.8-20.9-120.8
	c-0.5-7.9,3.8-89.8,3.8-89.8s-2.7-18.3,28.4-23.7c27.8-4.8,30.8,9.6,30.8,9.6s17,81.1,18.1,107.7
	C289.9,191.8,281.4,280.2,281.4,280.2z"/>
<path class="st4" d="M258.3,262.9c12.4-0.2,19.9,6.7,22.2,18.2c0,0,14.4,53.4,15.5,75c1.7,34.7-10.3,103.6-14.5,138
	c-0.9,7.5-2.7,30.3-2.7,30.3c-0.6,6.8-5.7,11.9-11.8,11.8l0,0c-6-0.1-10.9-5.2-11.5-11.8c0,0-2-26.1-3.1-34.8
	c-4-31.3-16-93.5-17.9-125.1c-1.1-19,0.4-77.5,0.4-77.5C235.7,267.8,247.7,263.5,258.3,262.9L258.3,262.9z"/>
<path class="st1" d="M281.3,512.5c-1.2,34,40.1,38.4,40.1,38.4c4.4,3.5-67,21.8-66.6,17.8c0,0,1.5-52-1-65.2
	C252,494.2,282,492.5,281.3,512.5z"/>
<path class="st2" d="M268.5,531.4c6.4-2.2,5.9-6.8,8.5-9.4c1.5-1.5,7.9-3.2,8.8-1.2c10.7,22.7,61.2,35.4,61.2,35.4
	c5.4,3.8,6.6,9.1,5.5,14.6l0,0c0,0-43.8,9.4-67.8-1.3c-4.8-2.2-9,3.1-9,3.1s-22.4,3.7-21.2-3.1l-2.5-42.7
	C253.7,519.3,257.5,535.1,268.5,531.4z"/>
<path class="st3" d="M353,571.2c0.8-9-4.3-14.7-6-14.4c-2.5,0.3-6.5,2.4-9,2.8c-4,0.7-16-0.3-16-0.3c-3.1-0.3-5.6,2.8-5.9,7.1
	l-0.2,8.6c0,0,7.3,1,24.6-1.6C343.5,573,353,571.2,353,571.2z"/>
<path class="st0" d="M131,74.5L87.1,457.9c-0.8,6.6,3,12.9,9.1,15.5l10.7,4.4c5,2.1,8.5,6.7,9.1,12l1.3,10.8c0.2,2,2,3.5,4.1,3.3
	l25.7-2.3c1.7-0.2,3.1-1.5,3.4-3.1l2.3-14.4c0.7-4.3,3.2-8,6.8-10.3l9.9-6.2c3.8-2.4,6.4-6.4,6.9-10.9l34-293.2l8.7-84.6
	c0.9-8.7-5.8-16.3-14.5-16.4l-58.5-1.2C138.4,61.1,131.8,66.8,131,74.5z"/>
<path class="st0" d="M208,42.4c-2.2-0.1-4.1,1.6-4.1,3.9l1.6,103.1l12.8,309.4c0.3,7.4,4.4,14.2,10.8,18l11,6.4
	c4.1,2.4,7.1,6.4,8.1,11.1l3,13.6c0.4,1.9,2.2,3.2,4.1,3l22.4-2.3c1.8-0.2,3.3-1.7,3.4-3.5l1.2-14.5c0.4-4.7,3.1-9,7.2-11.4
	l13.1-7.7c11.5-6.7,17.9-19.5,16.5-32.7l-31.5-284.1c-0.1-0.6-0.3-1.3-0.7-1.8L210.7,44.1C210.2,43.1,209.1,42.5,208,42.4L208,42.4z
	"/>
<path class="st5" d="M115.1,534.9c0,0,4.7-3.4,8.9-3.3c5.1,0,10,3.1,10,3.1"/>
<path class="st5" d="M296.2,530.6c0,0-5.1,2.1-9,2.2"/>
<path class="st5" d="M301.9,535.6c0,0-5,2.4-8.9,2.7"/>
<polygon class="st0" points="35,103 35.1,102.9 35,102.9 "/>
<polygon class="st0" points="35.1,102.9 35.2,103 35.2,102.9 "/>
<polygon class="st0" points="35,103 35.1,102.9 35,102.9 "/>
<polygon class="st0" points="35.1,102.9 35.2,103 35.2,102.9 "/>
<path class="st0" d="M127.6,113.5c0,0-66.6,258.2-60.7,277.6c5.9,19.4,13.4,32.9,16.8,50.6s6.7,27.8,10.1,27.8s58.2-10.1,58.2-10.1
	l14.4-106.3l-6.7-81L127.6,113.5z"/>
<path class="st0" d="M274.4,84.8c0,0,70,270,64.1,289.4c-5.9,19.4-8.4,5.9-11.8,23.6s-7.2,56.9-10.6,56.9s-57.7-39.2-57.7-39.2
	l-14.3-106.3l6.7-81L274.4,84.8z"/>
<path class="st0" d="M175.6,368.9c0-1.1,21.4-61.9,24.7-60.7s4.5-2.2,5.6,0.4s21,67.9,21,67.9l-12.4-217.1l-22.1-1.5L175.6,368.9z"
	/>
</svg>
