<?xml version="1.0" encoding="utf-8"?>
<!-- Generator: Adobe Illustrator 26.0.2, SVG Export Plug-In . SVG Version: 6.00 Build 0)  -->
<svg version="1.1" id="Calque_1" xmlns="http://www.w3.org/2000/svg" xmlns:xlink="http://www.w3.org/1999/xlink" x="0px" y="0px"
	 viewBox="0 0 788 1005.1" style="enable-background:new 0 0 788 1005.1;" xml:space="preserve">
<style type="text/css">
	.st0{fill:#E78367;}
	.st1{fill:#B85D40;}
	.st2{fill:none;}
	.st3{fill:#824E3A;}
	.st4{fill:#9F6042;}
	.st5{fill:#D3D3D3;}
	.st6{fill:#D34B1C;}
</style>
<g id="Calque_4">
	<path class="st0" d="M440.4,283.9l2.2,18.2l-21.1,75.3h-92.1l-22.5-75.6l2.6-18.7l-17-36.8l37.9-15.2l13.4-5.4
		c7.7-3.1,12.8-10.6,12.8-18.9V194H395v12.5c0,8.5,5.3,16.1,13.3,19.1l12.9,4.8l38.5,14.2L440.4,283.9z"/>
	<path class="st1" d="M421.2,230.5c-11.1,8.7-34,13.9-49.7,13.9c-11.1,0-29.6-7-41.1-13.3l13.4-5.4c7.7-3.1,12.8-10.6,12.8-18.9
		v-11.5l0.3-1.3l0.1-0.4h38v13c0,8.5,5.3,16.1,13.3,19.1L421.2,230.5z"/>
</g>
<path class="st2" d="M410.9,411.5c15.7,4.7,22.5,8.7,26.4,15.3c3.1,5.3,6.2,17.6,6.6,23.8c0.9,14.5-6.3,51.1-19.6,63.6
	c-13.6,12.7-81.3,14.3-95.5,2.2c-13.9-11.8-22.8-48.1-22.6-62.6c0.1-6.2,2.6-18.6,5.5-24.1c3.5-6.8,10.2-11.2,25.7-16.5
	c17.6-6.2,35.8-5.7,35.8-5.7S393,406.2,410.9,411.5z"/>
<path class="st2" d="M414.5,413.9c15.6,5,22.3,9.3,26,16c3,5.4,5.8,17.8,6,24c0.5,14.5-7.5,51-21.1,63.1
	c-13.9,12.4-81.6,12.4-95.5,0c-13.6-12.2-21.6-48.6-21.1-63.1c0.2-6.2,3-18.6,6-24c3.7-6.7,10.5-10.9,26-16
	c17.8-5.8,35.9-4.8,35.9-4.8S396.7,408.1,414.5,413.9z"/>
<path class="st3" d="M440.3,282.4l2.2,18.2L421.4,376h-92.1l-22.5-75.6l2.6-18.7l-17-36.8l51.2-20.6c7.7-3.1,12.8-10.6,12.8-18.9
	v-12.8h38.5v12.5c0,8.5,5.3,16.1,13.3,19.1l51.4,18.9L440.3,282.4z"/>
<path class="st4" d="M502.5,357.7l2.9,2.9c4.8,5,12.7,5.2,17.8,0.5l0,0c4.6-4.4,5.7-11.4,2.6-16.9l-2.8-5c0,0-52.4-112.8-77.1-95.3
	l0,0c-9,6.4-15,20.4-8.5,29.5L502.5,357.7z"/>
<path class="st4" d="M302.4,319.9L274,371.7l-2.3,3.5c-3.9,6.1-10.8,3.6-17.1,0.2l0,0c-5.8-3.1-9.7-5.3-7.9-11.6l1.6-5.6
	c0,0,14.5-40.5,17.7-54.5c3.9-17.1,9.6-69.6,39.4-58.1l0,0c10.9,4.2,20.4,16.6,15.8,27.3L302.4,319.9z"/>
<path class="st3" d="M356.5,192.8h38.4v10.6l0,0c-8.6,11-14.3,15.8-20.9,15.8c-4.9,0-12.6-9.7-17.6-13.6l0.1-1.9V192.8z"/>
<path class="st4" d="M525.1,344L525.1,344c2.8,4.7,3.1,10.4,1,15.5c-0.2,0.5-0.4,1-0.6,1.5c-4.9,6.6-17.7,15.9-24.3,19.7
	c-15.4,8.9-64.5,30.4-64.5,30.4l0,0c-3.6,0.9-7.3-1.8-8.3-6.1l-0.2-1c-1-4,0.6-8.2,3.7-10c0.6-0.3,1.1-0.6,1.4-0.9
	c6.6-4.5,47.5-37.3,56.3-43.5c5.2-3.6,16.6-8.5,22.5-9.7C515.4,339.1,522.7,340,525.1,344z"/>
<path class="st4" d="M263.2,379.5L263.2,379.5c5.7-1.1,10.3-5.3,11.8-10.9c0.2-0.5,0.4-1.1,0.5-1.7c0.2-9.2-4.9-27.3-8.3-35.9
	c-7.7-20-37.3-78.6-37.3-78.6l0,0c-2.7-3.8-7.8-4.9-11.8-2.5l-0.9,0.5c-3.7,2.2-5.3,6.8-3.7,10.8c0.3,0.7,0.5,1.4,0.7,1.9
	c2.9,9.1,17,69.2,20.6,81.5c2.1,7.2,9.2,20.7,13.7,26.8C250.9,374.9,258.3,380.5,263.2,379.5z"/>
<path class="st4" d="M427.6,394.1c2-1.5,5.8-2.4,9.9,1.4c0,0,9.5,7.7,9.5,13.5c0,20.6,30.8,26.7,29.7,29.1c-3.3,7-11-1.2-38.7-6.9
	c-2.6-0.5-9-9.2-9.7-11.8c-0.7-2.8-3.2-7-3.3-9.9c-0.1-1.6-0.3-3.2-0.6-4.7C423.9,400.8,424.9,396.1,427.6,394.1z"/>
<path class="st4" d="M226.8,252.8c0.7-0.2,1.3-0.7,1.7-1.3c2.2-2.9,9.3-12.2,9.7-14.3c0.5-2.5,1.3-13.4,2.1-15.2s8.1-11.7,6.8-12.4
	c-0.7-0.4-2.7-1.1-4.3-1.7c-1.4-0.5-3-0.1-4.1,1l-4.7,5.1c-0.4,0.4-0.7,0.9-0.8,1.4l-0.7,2.3c-0.9,2.8-4.8,2.8-5.7,0l-3.2-9.5
	c-0.1-0.2-0.1-0.4-0.2-0.6c-0.5-2.9-4-25.4-4-26.9c0-0.6-0.9-1-2.2-1.2c-2.5-0.5-4.7,1.6-4.5,4.1l2.4,24.5c0,0.4-0.5,0.5-0.7,0.1
	l-9.6-26.7c-0.7-2-2.9-3-4.8-2.3l-0.2,0.1c-2,0.7-3,2.9-2.3,4.9l9.8,27.3c0.1,0.4-0.4,0.7-0.6,0.3L192.9,187
	c-1.2-2.2-4.3-2.6-6.1-0.8l-0.1,0.1c-1.1,1.2-1.4,2.9-0.6,4.4l12.8,24.7c0.2,0.4-0.3,0.7-0.6,0.4l-11.6-13.3
	c-1.7-1.9-4.8-1.7-6.1,0.5c-0.7,1.1-1.1,2.2-0.6,2.8c1.2,1.4,12.1,17.2,13.9,19.8c0.2,0.2,0.3,0.5,0.4,0.8l10.3,26.8
	c0.3,0.8,0.9,1.5,1.7,2l4,2.2c1,0.5,2.1,0.6,3.1,0.3L226.8,252.8z"/>
<path class="st5" d="M230.7,337.6c-3.9-13.3-7-26.9-9.3-40.6l-2.7-15.9c-0.4-1.7-1.2-3.3-2.1-4.7l-2.6-3.9c-0.3-0.4-0.5-1-0.4-1.5
	l0.3-9.1c0.1-0.8,0.4-1.5,1-1.9l17.5-13c1.3-1,3-0.5,3.8,0.8l3.5,6.3c0.3,0.6,1,1.1,1.7,1.3l0,0c1.3,0.3,2.1,1.4,2,2.6l-0.7,15
	c0,0.3,0,0.7,0.2,1.1c2.5,6.3,31.6,66.4,32.1,69.1c0.5,2.8-0.1,17.6-0.1,17.6l0.1,1.8c0.6,8.7-5.1,16.5-13.5,18.6l0,0
	c-8.5,2.1-17.3-2.2-20.8-10.2L230.7,337.6z"/>
<path class="st5" d="M528.6,339.5l-33.9-55c-4.2-6.7-8.9-13.1-14-19.1l-10.9-12.6c-4.1-6.5-11.7-10.6-18.8-13.7l-50.2-17.8l-2-18.3
	l-12.2-0.1c-4,0-7.5,2.7-8.5,6.6l-1.5,12.4l-1.5-12.4c-1-4-4.6-6.8-8.7-6.8l-12.1-0.1l-2.5,17.7l-54.5,19.5
	c-7.4,3.2-16,10.2-20.1,17.1l-7.7,25.4l-24.5,71.2c-6.2,7.5-5.1,18.6,2.3,24.8c7.5,6.2,18.6,5.2,24.9-2.3c0.1-0.1,4.7-9.3,4.7-9.4
	l32.5-57.9l-1,56.8c0.1,7.9-0.4,15.8-1.3,23.6L289,491.2c-1.1,9.4,9.2,32.3,18.4,34.3c0,0,50.5,13.7,67.8,14.4
	c17.9,0.7,71-9.5,71-9.5c0.1,0,0.2,0,0.2,0c10-1.5,28.5-26.5,27.1-36.5l-28.4-98.1c-1.4-9.4-2-18.9-1.9-28.3
	c0.2-22.1,0.5-62.2,0.5-64.4c0-1.5,0,0,0,0l56.7,60.8c6.9,7.4,18.6,8,26.1,1.2C533.9,358.4,534.8,347.2,528.6,339.5z"/>
<path class="st5" d="M415.6,423.6l-6.4-12.9c-1-2.1-0.5-4.4,1.1-6l2.5-2.3c0.7-0.7,1.3-1.7,1.5-2.7l0,0c0.4-2,2-3.6,4-4l10.9-1.9
	c0.8-0.1,1.5-0.4,2.1-0.9l67-50c0.3-0.2,0.5-0.4,0.8-0.5l7.5-3.5c8.5-4,18.7-1,23.5,7.2l0,0c5.1,8.7,2.3,19.8-6.3,24.9
	c-0.4,0.2-0.6,0.4-1,0.5L443.1,412c-0.7,0.3-1.4,0.9-1.8,1.5c-2.3,3.2-9.4,12.9-9.9,12.5c-0.4-0.4-3-0.8-4.6-1.1
	c-0.8-0.1-1.7,0-2.4,0.3l-2.3,0.8C419.5,427,416.7,425.9,415.6,423.6z"/>
<g>
	<path class="st6" d="M376.6,222c-10.4,5.3-22.6,11.3-33.1,16.3c-6.6,2.6-11.1,7.2-11.2,14.6l0.1,5.3c0.1,7,0.1,14.1,0.1,21.1
		c-1,42.2,0.4,84.4,1.3,126.5c0.5,42,1.4,85.1-0.4,126.5c-3.3-70.2-2-140.5-2.2-210.8c-0.4-20.3-1.4-43-1.4-63.2V253
		c-0.1-5.7,3.1-11.3,8-14.3c2.7-1.6,6.9-3.1,9.7-4.5c4.8-2.1,14.5-6.3,19.4-8.4c3.2-1.4,6.5-2.8,9.7-4.1
		C376.5,221.8,376.6,222,376.6,222L376.6,222z"/>
</g>
<circle class="st6" cx="346.7" cy="263" r="3.4"/>
<circle class="st6" cx="348.1" cy="330.6" r="3.4"/>
<circle class="st6" cx="348.9" cy="460.4" r="3.4"/>
<circle class="st6" cx="348.9" cy="397.9" r="3.4"/>
<path class="st6" d="M353.8,205.8c0,0-3.9,2-5.6,6.5c-0.3,0.3-7,2.3-4.8,6.5s3.4,3.7,3.4,3.7s22,0.3,29.9,8.7c0.2,0,23.3-8.1,30.9-7
	c0.2,0.1,2.3-4.6,0-5.7s0.6-4.2-0.9-6.7c-1.4-2.5-2.4-5.1-4.8-3.9c-2.4,1.1-25.3,9.3-25.3,16.3C376.8,224.2,370.5,213.4,353.8,205.8
	z"/>
<path class="st6" d="M371.4,220.8c0,0,6.7-4.2,11.2,0c0.8,5.9,2.2,9.8,0,10.4c-2.2,0.6-6.5,2.8-8.2,1.7
	C372.9,231.8,365.3,228.6,371.4,220.8z"/>
<path class="st6" d="M371.2,227.6l-8.8,11.3c-0.3,0.4-0.4,0.8-0.3,1.3l4.5,18.5c0.3,1.4,2.2,1.6,2.8,0.3l6.8-14.7
	c0.1-0.3,0.2-0.6,0.1-0.9l-2.4-15.1C373.7,227,372,226.6,371.2,227.6z"/>
<path class="st6" d="M382.6,223.9l14.3,7.8c0.5,0.3,0.9,0.8,0.9,1.4l1.8,23.4c0.1,1.6-1.8,2.6-3,1.4l-10.8-10.1
	c-0.3-0.2-0.4-0.5-0.5-0.9l-5.2-21.2C379.7,224.4,381.3,223.1,382.6,223.9z"/>
</svg>
