<?xml version="1.0" encoding="utf-8"?>
<!-- Generator: Adobe Illustrator 26.0.1, SVG Export Plug-In . SVG Version: 6.00 Build 0)  -->
<svg version="1.1" id="Calque_1" xmlns="http://www.w3.org/2000/svg" xmlns:xlink="http://www.w3.org/1999/xlink" x="0px" y="0px"
	 viewBox="0 0 788 1005.1" style="enable-background:new 0 0 788 1005.1;" xml:space="preserve">
<style type="text/css">
	.st0{fill:#E78367;}
	.st1{fill:#824E3A;}
	.st2{fill:#9F6042;}
	.st3{fill:#B55943;}
	.st4{clip-path:url(#SVGID_00000080906831482500953360000011648552145645021873_);}
	.st5{fill:#3A7B61;}
	.st6{clip-path:url(#SVGID_00000114773907753025987930000011425559523731061684_);}
	.st7{fill:#65C2C4;}
	.st8{fill:#3CA5A5;}
</style>
<g id="Calque_4">
	<path class="st0" d="M440.4,283.9l2.2,18.2l-21.1,75.3h-92.1l-22.5-75.6l2.6-18.7l-17-36.8l37.9-15.2l13.4-5.4
		c7.7-3.1,12.8-10.6,12.8-18.9v-12.8H395v12.5c0,8.5,5.3,16.1,13.3,19.1l12.9,4.8l38.5,14.2L440.4,283.9z"/>
	<path class="st1" d="M421.2,230.5c-11.1,8.7-34,13.9-49.7,13.9c-11.1,0-29.6-7-41.1-13.3l13.4-5.4c7.7-3.1,12.8-10.6,12.8-18.9
		v-11.5l0.3-1.3l0.1-0.4H395v13c0,8.5,5.3,16.1,13.3,19.1L421.2,230.5z"/>
</g>
<g id="Calque_3">
	<path class="st2" d="M289.5,362.6L289.5,362.6L289.5,362.6l34.5-89.8l0,0c4.4-11.5-0.9-24.5-12.1-29.6c-10.5-4.7-22.8,0-27.5,10.5
		c-0.2,0.5-0.4,0.9-0.6,1.4c-0.1,0.2-0.1,0.3-0.2,0.5c0,0-24.7,97.6-24.7,97.6c-2.4,9.8,1.6,18.5,8.9,21
		C276,376.9,284.5,376.3,289.5,362.6z"/>
	<path class="st2" d="M288.7,356.6c0.3-13.3-8.8-22-20.9-22.5c-0.3,0-5.7,0.3-5.7,0.3l-94.6,14.3c0,0-7.6,0-7.6,9.3
		c0,8.3,8.7,8.3,8.7,8.3l88.7,12.2c10.2,1.4,20.6,0.5,27.6-7.7C287.7,367.4,288.6,360.7,288.7,356.6z"/>
	<path class="st2" d="M263.5,386.2v-0.1l-0.7-0.1h-0.2L263.5,386.2z"/>
	<path class="st2" d="M169.1,350.1c0,0,6,14.8,1,15.3l-1.8,0.2l-40.4,2.6L79,361.7l4.5-7.3l7.3-2l34.2,2.3l11.6-7.3L116,333.2
		l3.9-6.6l20.7,9.2l17.7,4.2L169.1,350.1z"/>
	<path class="st2" d="M488.3,363.5L488.3,363.5L488.3,363.5l-12.2-99.1l0,0c-1.6-12.6-12.8-22.5-25-22.1s-20.9,11.1-19.3,23.8
		c0,0.2,0,0.4,0.1,0.6c0,0,24.7,102,24.7,102c2.6,10.2,10.3,16.5,18,15.4C483.1,382.9,490.5,378.5,488.3,363.5z"/>
	<path class="st2" d="M482.2,357.6c-8.3-9-20.2-8.3-28.9,0.1c-0.2,0.2-3.7,4.3-3.7,4.3l-56.1,77.5c0,0-5.3,5.5,0.7,11.6
		c5.4,5.5,11.3-0.7,11.3-0.7l69-55.7c8-6.4,14.5-14.5,14.1-25C488.5,365.4,484.8,360.4,482.2,357.6z"/>
	<path class="st2" d="M489.2,399.2l-0.1-0.1c-0.2,0.1-0.4,0.2-0.6,0.4l-0.1,0.1L489.2,399.2z"/>
	<path class="st0" d="M440.8,284.7l2.2,17.1l-21.3,70.8h-92.9l-8.6-70.4l-11.4-18.2l-17.2-34.6l51.7-19.4
		c7.8-2.9,12.9-9.9,12.9-17.7v-12h38.8v11.8c0,8,5.4,15.2,13.4,17.9l51.8,17.8L440.8,284.7z"/>
	<path class="st3" d="M356.2,200.5h38.7v9.9l0,0c-8.7,10.3-14.4,14.9-21,14.8c-5,0-12.8-9.1-17.8-12.8l0.1-1.8L356.2,200.5z"/>
	<g id="_Repetition_miroir_">
		<g>
			<defs>
				<rect id="SVGID_1_" x="290.1" y="199.2" width="85.4" height="270.3"/>
			</defs>
			<clipPath id="SVGID_00000032620099538413007790000001193179530386183066_">
				<use xlink:href="#SVGID_1_"  style="overflow:visible;"/>
			</clipPath>
			<g style="clip-path:url(#SVGID_00000032620099538413007790000001193179530386183066_);">
				<path class="st5" d="M321.1,374.6c0.4-33.8-31-132.2-31-132.2l63.1-27.7l0.9-15.1l42.2-0.4l10.6,15l53.9,21.2l-33.3,103.4
					l-41.8,130.6h-89C296.8,469.5,320.8,399,321.1,374.6z"/>
			</g>
		</g>
	</g>
	<g id="_Repetition_miroir_2">
		<g>
			<defs>
				<rect id="SVGID_00000049936717951396547220000013090953677216184510_" x="375.5" y="199.2" width="85.4" height="270.3"/>
			</defs>
			<clipPath id="SVGID_00000104702056785847997370000005498785262791862666_">
				<use xlink:href="#SVGID_00000049936717951396547220000013090953677216184510_"  style="overflow:visible;"/>
			</clipPath>
			<g style="clip-path:url(#SVGID_00000104702056785847997370000005498785262791862666_);">
				<path class="st5" d="M429.9,374.6c-0.4-33.8,31-132.2,31-132.2l-63.1-27.7l-0.9-15.1l-42.2-0.4l-10.6,15l-53.9,21.2l33.3,103.4
					l41.8,130.6h89C454.2,469.4,430.2,399,429.9,374.6z"/>
			</g>
		</g>
	</g>
</g>
<polygon class="st7" points="353.2,214.7 285,244.4 303.3,326.6 290.1,469.5 376.1,496 460.9,469.5 440,334 466.5,242.4 
	397.8,214.7 396.9,199.6 354.1,199.6 "/>
<path class="st8" d="M296.1,233.1c1.6,3.5,1.3,5.4,5.4,5.7c8.3,0.6,35.7-14.3,31.3-13.4c0,0-0.9-7.6-3.7-6.1
	C326.4,220.8,296.1,233.1,296.1,233.1z"/>
<path class="st8" d="M419.1,219.2c-1.2,3.7-2.7,4.9,0.1,7.9c5.7,6,36,13.5,32.1,11.2c0,0,4.4-6.3,1.4-7S419.1,219.2,419.1,219.2z"/>
</svg>
