<?xml version="1.0" encoding="utf-8"?>
<!-- Generator: Adobe Illustrator 26.0.2, SVG Export Plug-In . SVG Version: 6.00 Build 0)  -->
<svg version="1.1" id="Calque_1" xmlns="http://www.w3.org/2000/svg" xmlns:xlink="http://www.w3.org/1999/xlink" x="0px" y="0px"
	 viewBox="0 0 588 328.3" style="enable-background:new 0 0 588 328.3;" xml:space="preserve">
<style type="text/css">
	.st0{fill:#9F6042;}
	.st1{fill:#824E3A;}
	.st2{fill:#2D2A29;}
	.st3{fill:#424251;}
</style>
<g>
	<g id="Calque_4">
		<path class="st0" d="M359.5,126.6l2.2,18.2l-21.1,75.3h-92.1L226,144.5l2.6-18.7l-17-36.8l37.9-15.2l13.4-5.4
			c7.7-3.1,12.8-10.6,12.8-18.9V36.7h38.4v12.5c0,8.5,5.3,16.1,13.3,19.1l12.9,4.8l38.5,14.2L359.5,126.6z"/>
		<path class="st1" d="M340.3,73.2c-11.1,8.7-34,13.9-49.7,13.9c-11.1,0-29.6-7-41.1-13.3l13.4-5.4c7.7-3.1,12.8-10.6,12.8-18.9V38
			l0.3-1.3l0.1-0.4h38v13c0,8.5,5.3,16.1,13.3,19.1L340.3,73.2z"/>
	</g>
	<g id="Calque_3">
		<path class="st0" d="M154.1,99.4c-2.7-6.9-11.1-26.9-13.6-33c-0.5-1.1-0.3-2.3,0.5-3.2c3.2-3.8,11.9-14.2,14.9-17.9
			c0.6-0.8,0.8-1.8,0.6-2.7c-1.4-5.3-5.2-23.1-6.6-29.9c-0.3-1.6,0.6-3.1,2.1-3.6l0.3-0.1c1.7-0.5,3.4,0.4,3.9,2.1l9.8,33.5
			c0.1,0.5,0.9,0.5,1,0l5.4-28c0.4-2.1,2.8-3.2,4.6-2.1l0,0c1,0.6,1.6,1.7,1.5,2.9l-2.7,34.7c0,0.5,0,1,0.2,1.5l6.7,15.6
			c0.3,0.7,0.3,1.5,0.1,2.3l-9.3,26.4c-0.4,1.1-1.4,1.9-2.6,2.1l-13.5,1.6C156,101.5,154.6,100.7,154.1,99.4z"/>
		<path class="st0" d="M422.7,200.9l2.9,2.9c4.8,5,12.7,5.2,17.8,0.5l0,0c4.6-4.4,5.7-11.3,2.6-16.9l-2.7-5
			c0,0-52.4-112.8-77.2-95.3l0,0c-9,6.4-15,20.3-8.5,29.5L422.7,200.9z"/>
		<path class="st0" d="M222.7,163l-28.4,51.8l-2.3,3.5c-3.9,6.1-11.9,8.1-18.2,4.7l0,0c-5.8-3.1-8.6-9.8-6.8-16.1l1.6-5.6
			c0,0,14.5-40.5,17.7-54.5c3.9-17.1,9.6-69.6,39.4-58.1l0,0c10.9,4.2,20.4,16.6,15.8,27.3L222.7,163z"/>
		<path class="st0" d="M441.5,184.2L441.5,184.2c4.4,3.8,6.6,9.5,6,15.1c0,0.6-0.1,1.1-0.2,1.7c-2.9,8.1-13.3,21.4-18.9,27.2
			c-13.1,13.6-57.2,50.4-57.2,50.4l0,0c-3.5,2-8.1,0.5-10.6-3.5l-0.6-0.9c-2.3-3.7-2.1-8.4,0.6-11.1c0.5-0.5,0.9-1,1.2-1.3
			c5.4-6.5,37.3-52,44.5-60.9c4.2-5.2,14.6-13.6,20.3-16.7C429.8,182.3,437.8,181,441.5,184.2z"/>
		<path class="st0" d="M178.9,225.2L178.9,225.2c5.8,0.1,11.1-3.2,13.8-8.3c0.3-0.5,0.6-1,0.8-1.5c2-9,0.6-27.8-0.9-36.8
			c-1.1-6.3-3.4-16.5-6.1-27.6c-6.3-25.8-14.7-56.8-14.7-56.8l0,0c-1.9-4.3-6.7-6.4-11.1-4.9l-1,0.4c-4.1,1.4-6.5,5.6-5.8,9.8
			c0.1,0.8,0.2,1.5,0.3,2c1,9.5,0.3,60.1,3.9,84c1.1,7.4,4.8,22.2,8,29C167.8,218.2,173.9,225.1,178.9,225.2z"/>
		<path class="st0" d="M196.6,188.1c-1-10.1-4.9-29.5-10.8-39.2l0.8-2.6l28.9,30.5c0,0-22.2,41.6-24.7,43.1
			C190.8,219.8,198.1,203.9,196.6,188.1z"/>
		<path class="st2" d="M186.1,146.2c0,0,7.2-44.8,18.6-55.2s167-9.1,167-9.1s18.6,8.6,28,22.9c5.7,8.7,10.9,17.8,15.5,27.1
			l-28.9,23.8L364.6,128l0.5,18.3l-16.8,77.5l28.6,61.7c1.2,2.5,0.9,5.5-0.8,7.7c-1.7,2.2-3.7,5-5.5,7.6c-3.8,5.3-9.1,9.5-15.2,11.9
			c-46.5,18.1-124.2-5.1-124.2-5.1l-15.7-10.9l11.6-71.7l1.9-72.9l-13.3,25L186.1,146.2z"/>
		<polyline class="st0" points="374.7,250.1 372.6,254.9 376.1,262.7 380,270.2 383,265.7 388.9,260.1 		"/>
	</g>
	<g>
		<path class="st3" d="M346.1,222.5c0,0-89.8,57.4-120,54.5c-20-1.8-16.8,11.2-12.3,20.3c2.6,5.2,7.5,8.8,13.3,9.7l4.1,0.6
			c0,0,122.6-43.3,123.6-63.6S346.1,222.5,346.1,222.5z"/>
	</g>
</g>
</svg>
