<?xml version="1.0" encoding="utf-8"?>
<!-- Generator: Adobe Illustrator 26.0.2, SVG Export Plug-In . SVG Version: 6.00 Build 0)  -->
<svg version="1.1" id="Calque_1" xmlns="http://www.w3.org/2000/svg" xmlns:xlink="http://www.w3.org/1999/xlink" x="0px" y="0px"
	 viewBox="0 0 788 1005.1" style="enable-background:new 0 0 788 1005.1;" xml:space="preserve">
<style type="text/css">
	.st0{fill:#E78367;}
	.st1{fill:#824E3A;}
	.st2{fill:#9F6042;}
	.st3{fill:#65C2C4;}
	.st4{fill:#3CA5A5;}
</style>
<g id="Calque_4">
	<path class="st0" d="M440.4,283.9l2.2,18.2l-21.1,75.3h-92.1l-22.5-75.6l2.6-18.7l-17-36.8l37.9-15.2l13.4-5.4
		c7.7-3.1,12.8-10.6,12.8-18.9V194H395v12.5c0,8.5,5.3,16.1,13.3,19.1l12.9,4.8l38.5,14.2L440.4,283.9z"/>
	<path class="st1" d="M421.2,230.5c-11.1,8.7-34,13.9-49.7,13.9c-11.1,0-29.6-7-41.1-13.3l13.4-5.4c7.7-3.1,12.8-10.6,12.8-18.9
		v-11.5l0.3-1.3l0.1-0.4h38v13c0,8.5,5.3,16.1,13.3,19.1L421.2,230.5z"/>
</g>
<g id="Calque_3">
	<path class="st2" d="M289.5,362.6L289.5,362.6L289.5,362.6l34.5-89.8l0,0c4.4-11.5-0.9-24.5-12.1-29.6c-10.5-4.7-22.8,0-27.5,10.5
		c-0.2,0.5-0.4,0.9-0.6,1.4c-0.1,0.2-0.1,0.3-0.2,0.5l-24.7,97.6c-2.4,9.8,1.6,18.5,8.9,21C276,376.9,284.5,376.3,289.5,362.6z"/>
	<path class="st2" d="M288.7,356.6c0.3-13.3-8.8-22-20.9-22.5c-0.3,0-5.7,0.3-5.7,0.3l-94.6,14.3c0,0-7.6,0-7.6,9.3
		c0,8.3,8.7,8.3,8.7,8.3l88.7,12.2c10.2,1.4,20.6,0.5,27.6-7.7C287.7,367.4,288.6,360.7,288.7,356.6z"/>
	<path class="st2" d="M263.5,386.2v-0.1l-0.7-0.1h-0.2L263.5,386.2z"/>
	<path class="st2" d="M168.4,349.4c0.5,0.4,0.8,1,1.1,1.6c1.2,3.3,4.9,13.9,0.6,14.4l-1.8,0.2l-40,2.6c-0.3,0-0.6,0-0.8,0l-42.1-5.6
		c-3-0.4-4.6-3.8-3-6.4l0.2-0.4c0.6-0.9,1.4-1.6,2.5-1.8l5-1.4c0.5-0.1,0.9-0.2,1.4-0.1l32.1,2.2c0.9,0.1,1.8-0.2,2.5-0.6l5-3.2
		c2.6-1.6,2.6-5.3,0.1-7l-12.1-8.4c-1.8-1.3-2.4-3.7-1.2-5.6h0c1.1-1.8,3.4-2.6,5.3-1.7l16.9,7.5c0.2,0.1,0.5,0.2,0.7,0.2l16.2,3.9
		c0.7,0.2,1.4,0.5,1.9,1L168.4,349.4z"/>
	<path class="st2" d="M488.3,363.5L488.3,363.5L488.3,363.5l-12.2-99.1l0,0c-1.6-12.6-12.8-22.5-25-22.1s-20.9,11.1-19.3,23.8
		c0,0.2,0,0.4,0.1,0.6l24.7,102c2.6,10.2,10.3,16.5,18,15.4C483.1,382.9,490.5,378.5,488.3,363.5z"/>
	<path class="st2" d="M482.2,357.6c-8.3-9-20.2-8.3-28.9,0.1c-0.2,0.2-3.7,4.3-3.7,4.3l-56.1,77.5c0,0-5.3,5.5,0.7,11.6
		c5.4,5.5,11.3-0.7,11.3-0.7l69-55.7c8-6.4,14.5-14.5,14.1-25C488.5,365.4,484.8,360.4,482.2,357.6z"/>
	<path class="st2" d="M489.2,399.2l-0.1-0.1c-0.2,0.1-0.4,0.2-0.6,0.4l-0.1,0.1L489.2,399.2z"/>
	<g id="_Repetition_miroir_">
		<g>
			<g>
				<defs>
					<rect id="SVGID_1_" x="290.1" y="199.2" width="85.4" height="270.3"/>
				</defs>
				<clipPath id="SVGID_00000041256240438361139160000015031647015468933015_">
					<use xlink:href="#SVGID_1_"  style="overflow:visible;"/>
				</clipPath>
			</g>
		</g>
	</g>
	<g id="_Repetition_miroir_2">
		<g>
			<g>
				<defs>
					<rect id="SVGID_00000065071291279081132550000005250932781781253523_" x="375.5" y="199.2" width="85.4" height="270.3"/>
				</defs>
				<clipPath id="SVGID_00000004545415105123775320000015259665942847730335_">
					<use xlink:href="#SVGID_00000065071291279081132550000005250932781781253523_"  style="overflow:visible;"/>
				</clipPath>
			</g>
		</g>
	</g>
</g>
<path class="st3" d="M347.8,217.1l-55.5,24.2c-4.2,1.8-6.5,6.4-5.5,10.9l16.3,73c0.2,1,0.3,2,0.2,3l-12.3,133.6
	c-0.4,4.5,2.4,8.7,6.7,10.1l60.7,18.7c11.6,3.6,24.1,3.6,35.7-0.1L453,472c4.5-1.4,7.4-5.9,6.6-10.6l-19.3-125.2
	c-0.2-1.4-0.1-2.8,0.3-4.1l23.5-81.2c1.4-4.7-1.1-9.7-5.6-11.6l-55-22.2c-3.4-1.4-5.8-4.6-6-8.3v0c-0.3-5.1-4.5-9-9.6-9h-24.7
	c-5.1,0-9.3,4-9.6,9l0,0.2C353.3,212.4,351.1,215.6,347.8,217.1z"/>
<path class="st4" d="M296.1,233.1c1.6,3.5,1.3,5.4,5.4,5.7c8.3,0.6,35.7-14.3,31.3-13.4c0,0-0.9-7.6-3.7-6.1
	C326.4,220.8,296.1,233.1,296.1,233.1z"/>
<path class="st4" d="M419.1,219.2c-1.2,3.7-2.7,4.9,0.1,7.9c5.7,6,36,13.5,32.1,11.2c0,0,4.4-6.3,1.4-7S419.1,219.2,419.1,219.2z"/>
</svg>
