<?xml version="1.0" encoding="utf-8"?>
<!-- Generator: Adobe Illustrator 26.0.2, SVG Export Plug-In . SVG Version: 6.00 Build 0)  -->
<svg version="1.1" id="Layer_1" xmlns="http://www.w3.org/2000/svg" xmlns:xlink="http://www.w3.org/1999/xlink" x="0px" y="0px"
	 viewBox="0 0 588 328.3" style="enable-background:new 0 0 588 328.3;" xml:space="preserve">
<style type="text/css">
	.st0{fill:#E78367;}
	.st1{fill:#824E3A;}
	.st2{fill:#9F6042;}
	.st3{fill:#65C2C4;}
	.st4{fill:#3CA5A5;}
</style>
<g id="Calque_4_00000099633890675296439560000008027774347991173275_">
	<path class="st0" d="M369.2,105.1l2.2,18.2l-21.1,75.3h-92.1L235.7,123l2.6-18.7l-17-36.8l37.9-15.2l13.4-5.4
		c7.7-3.1,12.8-10.6,12.8-18.9V15.2h38.4v12.5c0,8.5,5.3,16.1,13.3,19.1l12.9,4.8l38.5,14.2L369.2,105.1z"/>
	<path class="st1" d="M350,51.7c-11.1,8.7-34,13.9-49.7,13.9c-11.1,0-29.6-7-41.1-13.3l13.4-5.4c7.7-3.1,12.8-10.6,12.8-18.9V16.5
		l0.3-1.3l0.1-0.4h38v13c0,8.5,5.3,16.1,13.3,19.1L350,51.7z"/>
</g>
<g id="Calque_3_00000182501811801239257330000016786397879716782236_">
	<path class="st2" d="M218.3,183.8L218.3,183.8L218.3,183.8L252.8,94l0,0c4.4-11.5-0.9-24.5-12.1-29.6c-10.5-4.7-22.8,0-27.5,10.5
		c-0.2,0.5-0.4,0.9-0.6,1.4c-0.1,0.2-0.1,0.3-0.2,0.5l-24.7,97.6c-2.4,9.8,1.6,18.5,8.9,21C204.8,198.1,213.3,197.5,218.3,183.8z"/>
	<path class="st2" d="M217.5,177.8c0.3-13.3-8.8-22-20.9-22.5c-0.3,0-5.7,0.3-5.7,0.3l-94.6,14.3c0,0-7.6,0-7.6,9.3
		c0,8.3,8.7,8.3,8.7,8.3l88.7,12.2c10.2,1.4,20.6,0.5,27.6-7.7C216.5,188.6,217.4,181.9,217.5,177.8z"/>
	<path class="st2" d="M192.3,207.4v-0.1l-0.7-0.1h-0.2L192.3,207.4z"/>
	<path class="st2" d="M97.2,170.6c0.5,0.4,0.8,1,1.1,1.6c1.2,3.3,4.9,13.9,0.6,14.4l-1.8,0.2l-40,2.6c-0.3,0-0.6,0-0.8,0l-42.1-5.6
		c-3-0.4-4.6-3.8-3-6.4l0.2-0.4c0.6-0.9,1.4-1.6,2.5-1.8l5-1.4c0.5-0.1,0.9-0.2,1.4-0.1l32.1,2.2c0.9,0.1,1.8-0.2,2.5-0.6l5-3.2
		c2.6-1.6,2.6-5.3,0.1-7l-12.1-8.4c-1.8-1.3-2.4-3.7-1.2-5.6h0c1.1-1.8,3.4-2.6,5.3-1.7l16.9,7.5c0.2,0.1,0.5,0.2,0.7,0.2l16.2,3.9
		c0.7,0.2,1.4,0.5,1.9,1L97.2,170.6z"/>
	<path class="st2" d="M417.1,184.7L417.1,184.7L417.1,184.7l-12.2-99.1l0,0c-1.6-12.6-12.8-22.5-25-22.1S359,74.6,360.6,87.3
		c0,0.2,0,0.4,0.1,0.6l24.7,102c2.6,10.2,10.3,16.5,18,15.4C411.9,204.1,419.3,199.7,417.1,184.7z"/>
	<path class="st2" d="M411,178.8c-8.3-9-20.2-8.3-28.9,0.1c-0.2,0.2-3.7,4.3-3.7,4.3l-56.1,77.5c0,0-5.3,5.5,0.7,11.6
		c5.4,5.5,11.3-0.7,11.3-0.7l69-55.7c8-6.4,14.5-14.5,14.1-25C417.3,186.6,413.6,181.6,411,178.8z"/>
	<path class="st2" d="M418,220.4l-0.1-0.1c-0.2,0.1-0.4,0.2-0.6,0.4l-0.1,0.1L418,220.4z"/>
	<g id="_Repetition_miroir__00000159445488743914812450000013561767432584987315_">
		<g>
			<g>
				<defs>
					<rect id="SVGID_1_" x="218.9" y="20.4" width="85.4" height="270.3"/>
				</defs>
				<clipPath id="SVGID_00000086673740569153121620000013535439480901515165_">
					<use xlink:href="#SVGID_1_"  style="overflow:visible;"/>
				</clipPath>
			</g>
		</g>
	</g>
	<g id="_Repetition_miroir_2_00000048474395483509597040000012276241313735982744_">
		<g>
			<g>
				<defs>
					<rect id="SVGID_00000151524998802370721870000004428504534326146723_" x="304.3" y="20.4" width="85.4" height="270.3"/>
				</defs>
				<clipPath id="SVGID_00000143619401643945805270000007370285227041149355_">
					<use xlink:href="#SVGID_00000151524998802370721870000004428504534326146723_"  style="overflow:visible;"/>
				</clipPath>
			</g>
		</g>
	</g>
</g>
<path class="st3" d="M276.6,38.2l-55.5,24.2c-4.2,1.8-6.5,6.4-5.5,10.9l16.3,73c0.2,1,0.3,2,0.2,3l-12.3,133.6
	c-0.4,4.5,2.4,8.7,6.7,10.1l60.7,18.7c11.6,3.6,24.1,3.6,35.7-0.1l59.1-18.5c4.5-1.4,7.4-5.9,6.6-10.6l-19.3-125.2
	c-0.2-1.4-0.1-2.8,0.3-4.1l23.5-81.2c1.4-4.7-1.1-9.7-5.6-11.6l-55-22.2c-3.4-1.4-5.8-4.6-6-8.3v0c-0.3-5.1-4.5-9-9.6-9H292
	c-5.1,0-9.3,4-9.6,9l0,0.2C282.2,33.6,280,36.8,276.6,38.2z"/>
<path class="st4" d="M224.9,54.3c1.6,3.5,1.3,5.4,5.4,5.7c8.3,0.6,35.7-14.3,31.3-13.4c0,0-0.9-7.6-3.7-6.1
	C255.2,42,224.9,54.3,224.9,54.3z"/>
<path class="st4" d="M347.9,40.4c-1.2,3.7-2.7,4.9,0.1,7.9c5.7,6,36,13.5,32.1,11.2c0,0,4.4-6.3,1.4-7S347.9,40.4,347.9,40.4z"/>
</svg>
