<?xml version="1.0" encoding="utf-8"?>
<!-- Generator: Adobe Illustrator 26.0.2, SVG Export Plug-In . SVG Version: 6.00 Build 0)  -->
<svg version="1.1" id="Layer_1" xmlns="http://www.w3.org/2000/svg" xmlns:xlink="http://www.w3.org/1999/xlink" x="0px" y="0px"
	 viewBox="0 0 588 328.3" style="enable-background:new 0 0 588 328.3;" xml:space="preserve">
<style type="text/css">
	.st0{fill:#E78367;}
	.st1{fill:#B85D40;}
	.st2{fill:#9F6042;}
	.st3{fill:#FFC145;}
	.st4{fill:#3C3D4E;}
	.st5{fill:#C35959;}
	.st6{fill:#1A1818;}
	.st7{fill:#824E3A;}
	.st8{fill:#BAA535;}
	.st9{fill:#E8E0BF;}
	.st10{fill:#2E858E;}
	.st11{fill:none;stroke:#FFC145;stroke-width:2;stroke-linecap:round;stroke-miterlimit:10;}
</style>
<g id="Calque_4">
	<path class="st0" d="M363.5,100l2.2,18.2l-21.1,75.3h-92.1L230,117.9l2.6-18.7l-17-36.8l37.9-15.2l13.4-5.4
		c7.7-3.1,12.8-10.6,12.8-18.9V10.1h38.4v12.5c0,8.5,5.3,16.1,13.3,19.1l12.9,4.8l38.5,14.2L363.5,100z"/>
	<path class="st1" d="M344.3,46.6c-11.1,8.7-34,13.9-49.7,13.9c-11.1,0-29.6-7-41.1-13.3l13.4-5.4c7.7-3.1,12.8-10.6,12.8-18.9V11.4
		l0.3-1.3l0.1-0.4h38v13c0,8.5,5.3,16.1,13.3,19.1L344.3,46.6z"/>
</g>
<path class="st2" d="M223.6,135.9l-33.2,48.9l-2.6,3.3c-4.5,5.7-12.6,7-18.6,3l0,0c-5.5-3.6-7.6-10.6-5.2-16.7l2.2-5.4
	c0,0,18.3-39,22.8-52.6c5.5-16.7,16.2-68.3,44.7-54.1l0,0c10.4,5.2,18.7,18.5,13.1,28.6L223.6,135.9z"/>
<path class="st2" d="M175.2,193.3L175.2,193.3c5.8-0.2,11-3.6,13.4-8.9c0.3-0.5,0.5-1,0.7-1.6c1.7-9.1-0.5-27.8-2.4-36.8
	c-4.4-21-24.1-83.6-24.1-83.6l0,0c-2-4.2-7-6.1-11.3-4.4l-1,0.4c-4,1.6-6.3,5.8-5.4,10c0.2,0.8,0.3,1.5,0.4,2
	c1.4,9.4,5.6,71,7.2,83.8c0.9,7.5,5.7,21.9,9.2,28.6C163.9,186.7,170.2,193.5,175.2,193.3z"/>
<path class="st2" d="M161.6,60.4c0.3,0.6,0.5,1.2,0.5,1.9c0.1,3.5,0.2,14.7-3.9,13.9l-1.8-0.4l-38.8-10.1c-0.3-0.1-0.5-0.2-0.8-0.3
	L78.6,46.8c-2.7-1.3-3.2-5-0.9-7l0.3-0.3c0.8-0.7,1.9-1,2.9-1l5.2,0.3c0.5,0,0.9,0.1,1.4,0.3l29.9,12.1c0.8,0.3,1.7,0.4,2.6,0.2
	l5.8-1.4c2.9-0.7,4.2-4.2,2.3-6.6l-8.9-11.7c-1.3-1.7-1.1-4.2,0.5-5.7l0,0c1.6-1.4,4-1.4,5.6,0l13.7,12.4c0.2,0.2,0.4,0.3,0.6,0.5
	l14.3,8.8c0.6,0.4,1.1,0.9,1.5,1.5L161.6,60.4z"/>
<path class="st3" d="M147.4,92.3l25.1-3.1c0.8-0.1,1.6,0.5,1.7,1.3l0.9,7.5c0.1,0.8-0.5,1.6-1.3,1.7l-25.1,3.1
	c-0.8,0.1-1.6-0.5-1.7-1.3L146,94C145.9,93.1,146.5,92.4,147.4,92.3z"/>
<polygon class="st4" points="138.7,326.4 138.8,326.4 138.7,326.3 "/>
<polygon class="st4" points="138.8,326.4 138.9,326.4 138.9,326.3 "/>
<polygon class="st4" points="138.7,326.4 138.8,326.4 138.7,326.3 "/>
<polygon class="st4" points="138.8,326.4 138.9,326.4 138.9,326.3 "/>
<polygon class="st4" points="138.3,326.8 138.4,326.7 138.3,326.7 "/>
<polygon class="st4" points="138.4,326.7 138.5,326.8 138.5,326.7 "/>
<polygon class="st4" points="138.3,326.8 138.4,326.7 138.3,326.7 "/>
<polygon class="st4" points="138.4,326.7 138.5,326.8 138.5,326.7 "/>
<path d="M140.1,326.7h0.1H140.1z"/>
<path d="M140.2,326.7L140.2,326.7L140.2,326.7z"/>
<path d="M140.1,326.7h0.1H140.1z"/>
<path class="st5" d="M363.8,117.2c0,14.3-19.3,41.3-33.6,41.3c-14.3-0.3-25.7-12.1-25.4-26.4c0.3-13.9,11.5-25.1,25.4-25.4
	C344.5,106.8,363.8,103,363.8,117.2z"/>
<circle class="st5" cx="298.6" cy="54.8" r="25.9"/>
<polygon class="st6" points="139.7,317.2 139.6,317.2 139.6,317.1 "/>
<polygon points="139.8,317.1 139.8,317.2 139.7,317.2 "/>
<polygon class="st6" points="139.7,317.2 139.6,317.2 139.6,317.1 "/>
<polygon points="139.8,317.1 139.8,317.2 139.7,317.2 "/>
<path class="st2" d="M382.7,61l-17,57.5l-21.1,75.3h-92.1L230,118.2l2.6-18.7l-17-36.8l51.2-20.5c7.7-3.1,12.7-10.6,12.8-18.9V10.5
	h38.5V23c0,8.5,5.3,16.1,13.3,19.1L382.7,61L382.7,61z"/>
<path class="st7" d="M279.7,10.4h38.4V21l0,0c-8.6,11-14.3,15.8-20.9,15.8c-4.9,0-12.7-9.7-17.7-13.6l0.1-1.9L279.7,10.4z"/>
<path class="st8" d="M298,195.8h46.1c0,0,20.9,57.8,21,62.8c0.1,5-62.3,67.5-61.3,70s-6.4-4.3-6.4-5S298,195.8,298,195.8z"/>
<path class="st9" d="M265.6,40.4L229,116.1c0,0.1,0,0.2,0,0.3l0.1,0.6c5.2,41.7-1,108.6-13.8,148.6l-7.8,24.4
	c-1.4,4.5-0.5,7.2,5.4,11c89.1,58.3,156.8,63.7,180.5,63.6c5.3,0,9.5-4.3,9.6-9.5c0.3-22.9-3.9-53.8-10.5-73.1l-3.1-9.1
	c-14.3-42.3-29.6-109.5-23.7-153.9c0.1-0.5,0.2-1,0.3-1.5l0.1-0.3c0-0.1,0.3-0.8,0.3-0.9l-35.9-75.7c-0.1-0.2-0.3-0.3-0.6-0.3
	l-31.7,7.6c-0.1,0-0.2,0-0.2,0l-31.8-7.6C266,40.1,265.7,40.2,265.6,40.4z"/>
<path class="st2" d="M385.8,135.1l38.8,44.5l3,3c5.1,5.1,13.3,5.4,18.8,0.7l0,0c5-4.3,6.3-11.5,3.1-17.2l-2.8-5.1
	c0,0-22.9-36.5-29-49.4c-7.5-15.9-24.3-65.9-50.9-48.4l0,0c-9.7,6.4-16.4,20.6-9.6,30L385.8,135.1z"/>
<path class="st10" d="M290.5,153.6l52.1,113.8c0.8,1.7,2.8,2.5,4.6,1.7l85.7-38.4c1.6-0.7,2.4-2.5,1.9-4.1l-34.9-117.4
	c-0.6-2-2.7-3-4.6-2.2l-102.9,42C290.5,149.7,289.6,151.8,290.5,153.6z"/>
<path class="st2" d="M447.9,164.5L447.9,164.5c2.1,5.1,1.6,10.8-1.2,15.5c-0.2,0.5-0.5,0.9-0.8,1.4c-5.8,5.8-19.8,13.2-26.9,16.1
	c-16.5,6.6-68.2,21-68.2,21l0,0c-3.7,0.4-7-2.8-7.4-7.2l-0.1-1c-0.4-4.1,1.7-8.1,5-9.4c0.6-0.2,1.1-0.5,1.5-0.7
	c7.2-3.5,52.3-30.2,61.9-35.1c5.6-2.9,17.7-6,23.7-6.4C439,158.3,446.1,160.3,447.9,164.5z"/>
<polygon class="st2" points="345.6,202.3 328.3,194.1 310,192.7 313.5,199.4 322.1,201.8 326.2,206.2 315.4,208.3 313.8,200.3 
	308.7,200.4 301.5,213 309,236.4 325.2,239.3 350.1,221.6 357.6,217.9 373,211.3 356.8,196.9 350.2,200.8 "/>
<path class="st10" d="M229,116.1c-0.3-1.6-22.3-44.4-22.3-44.4c-1-2.9,0.5-6,3.4-7.2L265,40.2c0.3-0.1,0.6,0,0.7,0.3"/>
<path class="st10" d="M330.2,40.2l58.1,21.7c2.7,1.1,4.7,4.3,3.9,7.2c-4.2,14.3-25.9,44.6-25.9,47.1"/>
<line class="st11" x1="304.8" y1="142" x2="316.2" y2="169.4"/>
</svg>
