<?xml version="1.0" encoding="utf-8"?>
<!-- Generator: Adobe Illustrator 26.0.2, SVG Export Plug-In . SVG Version: 6.00 Build 0)  -->
<svg version="1.1" id="Calque_1" xmlns="http://www.w3.org/2000/svg" xmlns:xlink="http://www.w3.org/1999/xlink" x="0px" y="0px"
	 viewBox="0 0 788 1005.1" style="enable-background:new 0 0 788 1005.1;" xml:space="preserve">
<style type="text/css">
	.st0{fill:#824E3A;}
	.st1{fill:#625177;}
	.st2{fill:#E78367;}
	.st3{fill:#B85D40;}
	.st4{fill:#B55943;}
	.st5{clip-path:url(#SVGID_00000165941211904708112350000008131678838405708206_);}
	.st6{clip-path:url(#SVGID_00000100385007893896032400000007090538608694488240_);}
	.st7{fill:#295446;}
	.st8{fill:#9C3A26;}
	.st9{fill:#873022;}
	.st10{fill:#AFAFAF;}
	.st11{fill:#9F6042;}
	.st12{fill:#898989;}
</style>
<path class="st0" d="M482.2,357.6c-8.3-9-20.2-8.3-28.9,0.1c-0.2,0.2-3.7,4.3-3.7,4.3l-56.1,77.5c0,0-5.3,5.5,0.7,11.6
	c5.4,5.5,11.3-0.7,11.3-0.7l69-55.7c8-6.4,14.5-14.5,14.1-25C488.5,365.4,484.8,360.4,482.2,357.6z"/>
<path class="st0" d="M488.3,363.5L488.3,363.5L488.3,363.5l-12.2-99.1l0,0c-1.6-12.6-12.8-22.5-25-22.1s-20.9,11.1-19.3,23.8
	c0,0.2,0,0.4,0.1,0.6l24.7,102c2.6,10.2,10.3,16.5,18,15.4C483.1,382.9,490.5,378.5,488.3,363.5z"/>
<path class="st1" d="M286.8,242.7l66.2-28l0.9-15.1h44.6l0.9,15.1l63.2,27.7l-19.5,70.9l6.9,86.2l21.9,75.4c0.7,2.3-0.4,4.8-2.6,5.9
	c-12.2,6.2-52.8,25-93.4,25.2c-41.4,0.2-82.7-20.3-94-25.7c-1.7-0.8-2.5-2.8-2-4.6l33.7-105.5L315,308
	C315,308,301.7,268.5,286.8,242.7z"/>
<g id="Calque_4">
	<path class="st2" d="M440.4,283.9l2.2,18.2l-21.1,75.3h-92.1l-22.5-75.6l2.6-18.7l-17-36.8l37.9-15.2l13.4-5.4
		c7.7-3.1,12.8-10.6,12.8-18.9V194H395v12.5c0,8.5,5.3,16.1,13.3,19.1l12.9,4.8l38.5,14.2L440.4,283.9z"/>
	<path class="st3" d="M421.2,230.5c-11.1,8.7-34,13.9-49.7,13.9c-11.1,0-29.6-7-41.1-13.3l13.4-5.4c7.7-3.1,12.8-10.6,12.8-18.9
		v-11.5l0.3-1.3l0.1-0.4h38v13c0,8.5,5.3,16.1,13.3,19.1L421.2,230.5z"/>
</g>
<path class="st2" d="M440.4,283.9l2.2,18.2l-21.1,75.3h-92.1l-22.5-75.6l2.6-18.7l-17-36.8l51.2-20.6c7.7-3.1,12.8-10.6,12.8-18.9
	V194H395v12.5c0,8.5,5.3,16.1,13.3,19.1l51.4,18.9L440.4,283.9z"/>
<path class="st3" d="M356.9,193.7h38.5v10.6l0,0c-8.6,11-14.3,15.8-20.9,15.8c-4.9,0-12.7-9.7-17.7-13.6l0.1-1.9V193.7z"/>
<path class="st0" d="M489.2,399.2l-0.1-0.1c-0.2,0.1-0.4,0.2-0.6,0.4l-0.1,0.1L489.2,399.2z"/>
<path class="st4" d="M357,200.5h38.4v9.9l0,0c-8.6,10.3-14.3,14.9-20.9,14.8c-4.9,0-12.6-9.1-17.6-12.8l0.1-1.8V200.5z"/>
<g id="_Repetition_miroir_">
	<g>
		<g>
			<defs>
				<rect id="SVGID_1_" x="289.8" y="199.2" width="86.4" height="270.3"/>
			</defs>
			<clipPath id="SVGID_00000013907221886282546920000006694561899803531709_">
				<use xlink:href="#SVGID_1_"  style="overflow:visible;"/>
			</clipPath>
			<g style="clip-path:url(#SVGID_00000013907221886282546920000006694561899803531709_);">
				<path class="st1" d="M320.8,374.6c0.4-33.8-31-132.2-31-132.2l63.2-27.7l0.7-11.6c0.1-2,1.7-3.5,3.7-3.5l34.6-0.3
					c2.6,0,5.1,1.2,6.6,3.4l8.2,11.6l54,21.2l-33.4,103.4l-41.8,130.6h-89.2C296.4,469.5,320.6,399,320.8,374.6z"/>
			</g>
		</g>
	</g>
</g>
<g id="_Repetition_miroir_2">
	<g>
		<g>
			<defs>
				<polyline id="SVGID_00000133487522147634850100000009819862810825058979_" points="462.6,199.2 462.6,469.5 376.2,469.5 
					376.2,199.2 				"/>
			</defs>
			<clipPath id="SVGID_00000034088653998908182520000014042441429307301308_">
				<use xlink:href="#SVGID_00000133487522147634850100000009819862810825058979_"  style="overflow:visible;"/>
			</clipPath>
			<g style="clip-path:url(#SVGID_00000034088653998908182520000014042441429307301308_);">
				<path class="st1" d="M431.6,374.6c-0.3-29.5,23.5-108.2,29.6-127.7c0.8-2.5-0.5-5.3-2.9-6.3l-56-24.5c-1.8-0.8-3-2.5-3.1-4.5
					l-0.4-7c-0.2-2.7-2.4-4.9-5.2-4.9l-34.7-0.3c-1.7,0-3.3,0.8-4.3,2.2l-8.1,11.5c-0.6,0.8-1.4,1.5-2.4,1.8l-48,18.8
					c-2.6,1-3.9,3.8-3.1,6.5l31.9,98.7l40.6,127c0.7,2.2,2.7,3.6,5,3.6h78.1c3.6,0,6.1-3.5,5-6.9
					C447.7,444.3,431.8,394.4,431.6,374.6z"/>
			</g>
		</g>
	</g>
</g>
<path class="st2" d="M335.2,385.7v-0.1l0.7-0.1h0.2L335.2,385.7z"/>
<path class="st7" d="M320.3,223.2l1.8-0.8c2.7-1.2,5.7,0.3,6.5,3l14.6,48.7c0.3,1.1-0.3,2.3-1.4,2.7l-4.6,1.6
	c-1.2,0.4-2.4-0.2-2.8-1.4l-16.7-48C316.8,226.8,318,224.2,320.3,223.2z"/>
<path class="st7" d="M440.1,228.2l-0.8-0.3c-2.9-1.3-6.3,0.3-7.3,3.4l-14.2,47.6c-0.4,1.4,0.3,2.9,1.7,3.4l3.7,1.3
	c1.4,0.5,3-0.2,3.5-1.7l16.3-47C443.9,232.2,442.6,229.3,440.1,228.2z"/>
<circle class="st7" cx="341.5" cy="282.9" r="3.7"/>
<circle class="st7" cx="419.4" cy="288.1" r="3.7"/>
<path class="st7" d="M334.2,293.5l90.2,4.7c2.5,0.1,4.6,1.9,5.3,4.3l13,24.8c0.1,0.5,0.2,1.6,0.2,2.1l4.4,46.3H313.6l1.6-48.7
	c0-0.8,0.2-1.5,0.5-2.2l12.9-28C329.7,294.7,331.8,293.4,334.2,293.5z"/>
<path class="st7" d="M345,297.5l-6.7-0.4c-1.5-0.1-2.6-1.4-2.5-2.9l0.1-2.2c0.1-1.5,1.4-2.6,2.9-2.5l6.7,0.4
	c1.5,0.1,2.6,1.4,2.5,2.9l-0.1,2.2C347.8,296.4,346.5,297.5,345,297.5z"/>
<path class="st7" d="M420.1,303.9l-7.5-1.1c-1.6-0.2-2.8-1.7-2.5-3.4l0.5-3.5c0.2-1.6,1.7-2.8,3.4-2.5l7.5,1.1
	c1.6,0.2,2.8,1.7,2.5,3.4l-0.5,3.5C423.2,303,421.7,304.2,420.1,303.9z"/>
<path class="st8" d="M344.2,313.9l-1.9,22.5l24.9,7.6c6.6,2,13.7,2.5,20.5,1.5l25.4-3.9l1-22.9L344.2,313.9z"/>
<path class="st9" d="M344.2,313.7l-2.3,11.1l34.4,6.3c1.4,0.3,2.9,0.3,4.3,0.2l34.1-3.5v-11.7L344.2,313.7z"/>
<path class="st7" d="M310.7,382.2l-33.3,99.3c-1.1,9.4-2.2,13,7,15c0,0,75.9,11,93.2,11.7c17.9,0.7,85-17.2,85-17.2
	c10-1.5,12.9-2.7,11.4-12.7l-25.3-95.2"/>
<path class="st9" d="M446.7,384.6H311.9c-1.3,0-2.3-0.9-2.3-2.1v-11.7c0-1.2,1-2.1,2.3-2.1h134.8c1.3,0,2.3,0.9,2.3,2.1v11.7
	C449,383.7,447.9,384.6,446.7,384.6z"/>
<g>
	<path class="st9" d="M306.3,376.7c0,0-20.8,58.2-15.4,63.8s59.2,11.7,63.9,8.1s10.7-67.7,10.7-67.7L306.3,376.7z"/>
	<path class="st10" d="M332.5,401.6l-3.6,0.5c-1.1,0.1-2.1-0.6-2.2-1.7l-6.1-45.1c-0.1-1.1,0.6-2.1,1.7-2.2l3.6-0.5
		c1.1-0.1,2.1,0.6,2.2,1.7l6.1,45.1C334.4,400.4,333.6,401.4,332.5,401.6z"/>
	<path class="st10" d="M336.7,402L336.7,402c-1.1,0-2-0.9-2-2v-35.6c0-1.1,0.9-2,2-2l0,0c1.1,0,2,0.9,2,2V400
		C338.6,401.1,337.8,402,336.7,402z"/>
	<path class="st10" d="M342.3,401.8l-1.6-0.4c-1.1-0.3-1.7-1.3-1.5-2.4l5.8-24.3c0.3-1.1,1.3-1.7,2.4-1.5l1.6,0.4
		c1.1,0.3,1.7,1.3,1.5,2.4l-5.8,24.3C344.4,401.4,343.3,402.1,342.3,401.8z"/>
	<path class="st8" d="M306.8,380.9c0,0-20.4,56.4-12.4,58.5s49.1,10.5,54.6,6.4c5.4-4.1,4.3-60.6,4.3-60.6L306.8,380.9z"/>
</g>
<path class="st11" d="M271,359.1L271,359.1L271,359.1l3.6-96.1l0,0c0.5-12.3,10.5-22.2,22.8-22.5c11.5-0.2,21,9,21.2,20.5
	c0,0.4,0,1,0,1.5c0,0.2,0,0.3,0,0.5l-15.7,99.4c-1.6,10-8.7,16.4-16.4,15.8C277.8,377.6,270.1,373.6,271,359.1z"/>
<path class="st11" d="M274.1,353.9c5-12.3,16.7-16.8,28.1-12.5c0.3,0.1,5.1,2.5,5.1,2.5l81.4,50.4c0,0,7,3,3.3,11.5
	c-3.3,7.6-11.3,4.2-11.3,4.2l-86.4-23.7c-9.9-2.7-19.1-7.6-22.3-17.9C270.7,364.2,272.5,357.7,274.1,353.9z"/>
<path class="st12" d="M343,424.6l84.8-50.6c0.7-0.5,1.3-1,1.6-1.8l7.2-15.9c0.4-0.9,1.1-1.7,2-2l17.4-7.8c1.1-0.5,2.6-0.5,3.7,0.2
	l12.1,7.1c1.1,0.7,1.9,1.9,2,3.2l0.5,8.2c0.2,2.9-2.7,5.1-5.4,4l0,0c-1.4-0.5-2.3-1.7-2.5-3.1l-0.6-3.8c-0.2-1.2-0.9-2.3-2-2.8
	l-4.9-2.8c-0.9-0.6-2.1-0.7-3.2-0.4l-10.5,3.2c-1.1,0.3-1.9,1.1-2.4,2.1l-5.9,12c-0.1,0.2-0.2,0.4-0.3,0.5l-0.6,0.8
	c-2.1,3,0.5,7,4.1,6.2l4.2-0.8c0.9-0.2,1.9-0.1,2.7,0.4l4.1,2.2c3.4,1.8,2.5,6.8-1.2,7.5l-15.5,3c-0.9,0.2-1.8,0.7-2.4,1.4
	l-57.7,68.8c-1.4,1.8-4.1,1.9-5.8,0.3l-0.7-0.6c-1.5-1.5-1.7-4-0.3-5.5l51.8-59.3c0.7-0.7,1-1.6,1-2.6l0-0.9c0-3.2-3.5-5.2-6.2-3.4
	l-66.4,42.4c-2.2,1.4-5,0.4-5.9-1.9l-0.9-2.3C340.6,427.6,341.3,425.5,343,424.6z"/>
<g>
	<path class="st11" d="M369.4,407c-1.1-5.7,3.2-15.4,8.2-18.3c3,1.5,9.7,3.7,12.8,4.6c1,0.3,2.1,0.3,3.1-0.1l6.3-2.3
		c1.5,0.4,2,0.3,3.4-0.2l7.8-3c0.5-0.2,1.2-0.4,1.7-0.5l6.2-0.9c2-0.3,4,0.2,5.6,1.3l8.9,6c3.6,2.4,4.6,7.1,2.4,10.7l-9.3,15.5
		c-1.4,2.4-4.1,3.9-7,3.9l-18.4-0.4c-2.1,0-4-0.8-5.4-2.3l-5-5c-1.2-1.2-2.5-3.6-4.1-3.8l-3.5-1.3c-1.5-0.6-3-1-4.6-1.4
		C376.9,409,374.2,408.2,369.4,407z"/>
	<path class="st11" d="M397.9,392.2l16.1-11.5c0.3-0.2,0.5-0.2,0.9-0.3l0,0c1.5-0.2,2.6,1.4,1.9,2.8l-2.6,4.9
		c-0.2,0.5-0.7,0.8-1.2,1L397.9,392.2z"/>
</g>
<path class="st1" d="M286.8,242.7c0,0,12.2,11.2,16.2,24.3c1.5,5.1,8,50.2,8,50.2l13-25.4v-37.2l-18.6-19.8L286.8,242.7z"/>
</svg>
