<?xml version="1.0" encoding="utf-8"?>
<!-- Generator: Adobe Illustrator 26.0.1, SVG Export Plug-In . SVG Version: 6.00 Build 0)  -->
<svg version="1.1" id="Calque_1" xmlns="http://www.w3.org/2000/svg" xmlns:xlink="http://www.w3.org/1999/xlink" x="0px" y="0px"
	 viewBox="0 0 588 328.3" style="enable-background:new 0 0 588 328.3;" xml:space="preserve">
<style type="text/css">
	.st0{fill:#E78367;}
	.st1{fill:#B85D40;}
	.st2{fill:#9F6042;}
	.st3{fill:#824E3A;}
	.st4{clip-path:url(#SVGID_00000046311908650693201970000003758908021655775627_);}
	.st5{fill:#AF6D98;}
	.st6{clip-path:url(#SVGID_00000110463928058133255360000012069761629933411253_);}
</style>
<g>
	<g id="Calque_4_00000106123228697183081500000001100169289183264647_">
		<path class="st0" d="M340.7,117.8l2.2,18.2l-21.1,75.3h-92.1l-22.5-75.6l2.6-18.7l-17-36.8l37.9-15.2l13.4-5.4
			c7.7-3.1,12.8-10.6,12.8-18.9V28h38.5v12.5c0,8.5,5.3,16.1,13.3,19.1l12.9,4.8L360,78.6L340.7,117.8z"/>
		<path class="st1" d="M321.5,64.4c-11.1,8.7-34,13.9-49.7,13.9c-11.1,0-29.6-7-41.1-13.3l13.4-5.4c7.7-3.1,12.8-10.6,12.8-18.9
			V29.3l0.3-1.3l0.1-0.4h38.1v13c0,8.5,5.3,16.1,13.3,19.1L321.5,64.4z"/>
	</g>
	<path class="st2" d="M473,35.2l10.9-11.6l19-11.7c0,0,1.8,3.8,1.4,5c-1.3,3.9-6.7,8.2-10,11c-0.4,0.4-1.2,2.8-0.9,3.3
		c1,2,6,0.9,6,0.9l-14.1,7.9L473,35.2z"/>
	<path class="st2" d="M478.2,34.4l5.8,14.6l35-9.4L550,18c0,0-4-3.2-5.7-3.3c-8.8-0.6-24.3,10.3-32.5,13.3
		C502.8,31.2,478.2,34.4,478.2,34.4z"/>
	
		<ellipse transform="matrix(0.9955 -9.515081e-02 9.515081e-02 0.9955 -1.7138 45.893)" class="st2" cx="480.4" cy="40.9" rx="9.7" ry="8.9"/>
	<path class="st2" d="M341,116.4l2.2,18.2l-21.1,75.3H230l-22.5-75.6l2.6-18.7l-17-36.8l51.3-20.6c7.7-3.1,12.8-10.6,12.8-18.9V26.6
		h38.5v12.5c0,8.5,5.3,16.1,13.3,19.1l51.4,18.9L341,116.4z"/>
	<path class="st2" d="M453.9,117.9l3.5,2c6,3.4,8.2,11,5,17l0,0c-3.1,5.6-9.5,8.4-15.7,6.8l-5.5-1.4c0,0-122.4-22.1-111.7-50.5l0,0
		c3.9-10.4,15.9-19.7,26.4-15.7L453.9,117.9z"/>
	<path class="st2" d="M200.3,153.6l-33.2,48.9l-2.6,3.3c-4.5,5.7-12.6,7-18.6,3l0,0c-5.5-3.6-7.6-10.6-5.2-16.7l2.2-5.4
		c0,0,18.3-39,22.8-52.6c5.5-16.6,16.2-68.3,44.7-54.1l0,0c10.4,5.2,18.7,18.5,13.1,28.6L200.3,153.6z"/>
	<path class="st3" d="M257.1,26.8h38.4v10.6l0,0c-8.6,11-14.3,15.8-20.9,15.8c-4.9,0-12.6-9.7-17.6-13.6l0.1-1.9L257.1,26.8z"/>
	<path class="st2" d="M446.3,143.3L446.3,143.3c5.3,1.5,10.9,0.4,15.2-2.9c0.5-0.3,0.9-0.6,1.3-1c5.1-6.4,10.9-21.2,12.9-28.5
		c4.7-17.1,13.1-70.1,13.1-70.1l0,0c0-3.8-3.5-6.6-8-6.5h-1c-4.1,0.1-7.8,2.6-8.8,6.1c-0.2,0.6-0.3,1.2-0.5,1.6
		c-2.7,7.6-24.1,55.4-27.9,65.5c-2.2,5.9-4,18.2-3.7,24.3C439.2,135.1,441.9,142,446.3,143.3z"/>
	<g id="_Repetition_miroir__00000041975263867646696590000008315881415661546113_">
		<g>
			<defs>
				<rect id="SVGID_1_" x="187.4" y="60.7" width="86.8" height="261.2"/>
			</defs>
			<clipPath id="SVGID_00000041257693509636452190000016193422369036360325_">
				<use xlink:href="#SVGID_1_"  style="overflow:visible;"/>
			</clipPath>
			<g style="clip-path:url(#SVGID_00000041257693509636452190000016193422369036360325_);">
				<path class="st5" d="M221.4,209.9c0.5-34.7-34-134.6-34-134.6l19.1-8.6l13.2-6l56.9,40.1L290,80.2l47.6,21.1l-11.8,82.6
					l-50.9,138l-57.6-30c-9.4-4.9-14.2-15.5-11.8-25.8C205.5,266.1,221.2,224.5,221.4,209.9z"/>
			</g>
		</g>
	</g>
	<g id="_Repetition_miroir_2_00000179614567614449538420000009795141883590225305_">
		<g>
			<defs>
				<rect id="SVGID_00000152247831576886231750000017966403663012746675_" x="274.2" y="60.7" width="86.8" height="261.2"/>
			</defs>
			<clipPath id="SVGID_00000099654718844778277770000011809847936360074889_">
				<use xlink:href="#SVGID_00000152247831576886231750000017966403663012746675_"  style="overflow:visible;"/>
			</clipPath>
			<g style="clip-path:url(#SVGID_00000099654718844778277770000011809847936360074889_);">
				<path class="st5" d="M327,209.9c-0.5-34.7,34-134.6,34-134.6l-19.1-8.6l-13.2-6l-56.9,40.1l-13.4-20.6l-47.6,21.1l11.8,82.6
					l50.9,138l57.6-30c9.4-4.9,14.2-15.5,11.8-25.8C343,266.1,327.2,224.5,327,209.9z"/>
			</g>
		</g>
	</g>
	<path class="st5" d="M207.4,134.3c0,0-1.7,71-6.1,98.7c-8.3,51.9-22.4,76.8-1.8,93.2c47.5,37.7,158.4,20.3,161.5-4.3
		c5.8-45-28-141-17.9-187.3C355.9,76.2,207.4,134.3,207.4,134.3z"/>
	<g>
		<path class="st2" d="M259.5,161.2c0,0-15.1-5.3-12.2-9.3l1.1-1.5l24.6-32.2l37-32.7l2.6,8.2l-3.3,6.9l-24.2,24.3l-2.1,13.5
			l24.2-6.2l2.5,7.3l-20.5,9.6l-14.8,10.6L259.5,161.2z"/>
		<path class="st2" d="M141.3,199.8L141.3,199.8c1.3,5.6,5.7,10.1,11.4,11.4c0.5,0.2,1.1,0.3,1.7,0.4c9.2-0.2,27.1-6,35.5-9.6
			c19.6-8.5,77-40.3,77-40.3l0,0c3.7-2.8,4.6-8,2.1-11.9l-0.6-0.9c-2.4-3.6-7-5-10.9-3.3c-0.7,0.3-1.4,0.6-1.9,0.8
			c-9,3.2-68.5,19.6-80.6,23.8c-7.1,2.4-20.4,10-26.2,14.7C145.5,187.4,140.2,194.9,141.3,199.8z"/>
	</g>
</g>
</svg>
