<?xml version="1.0" encoding="utf-8"?>
<!-- Generator: Adobe Illustrator 26.0.2, SVG Export Plug-In . SVG Version: 6.00 Build 0)  -->
<svg version="1.1" id="Calque_1" xmlns="http://www.w3.org/2000/svg" xmlns:xlink="http://www.w3.org/1999/xlink" x="0px" y="0px"
	 viewBox="0 0 788 1005.1" style="enable-background:new 0 0 788 1005.1;" xml:space="preserve">
<style type="text/css">
	.st0{fill:#9F6042;}
	.st1{fill:#89513E;}
	.st2{fill:none;}
	.st3{fill:#587CC6;}
	.st4{fill:#4D6FAA;}
	.st5{fill:#9CCBF2;}
	.st6{fill:#DCE8EF;}
	.st7{fill:#8ABBDD;}
</style>
<g id="Calque_4">
	<path class="st0" d="M440.4,283.9l2.2,18.2l-21.1,75.3h-92.1l-22.5-75.6l2.6-18.7l-17-36.8l37.9-15.2l13.4-5.4
		c7.7-3.1,12.8-10.6,12.8-18.9V194H395v12.5c0,8.5,5.3,16.1,13.3,19.1l12.9,4.8l38.5,14.2L440.4,283.9z"/>
	<path class="st1" d="M421.2,230.5c-11.1,8.7-34,13.9-49.7,13.9c-11.1,0-29.6-7-41.1-13.3l13.4-5.4c7.7-3.1,12.8-10.6,12.8-18.9
		v-11.5l0.3-1.3l0.1-0.4h38v13c0,8.5,5.3,16.1,13.3,19.1L421.2,230.5z"/>
</g>
<polygon points="204,514.6 204.1,514.6 204,514.5 "/>
<polygon points="204.1,514.6 204.1,514.6 204.1,514.5 "/>
<polygon points="204,514.6 204.1,514.6 204,514.5 "/>
<polygon points="204.1,514.6 204.1,514.6 204.1,514.5 "/>
<path class="st2" d="M400.4,429.9c15.6,5,22.3,9.3,26,16c3,5.4,5.8,17.8,6,24c0.5,14.5-7.5,51-21.1,63.1
	c-13.9,12.4-81.6,12.4-95.5,0c-13.6-12.2-21.6-48.6-21.1-63.1c0.2-6.2,3-18.6,6-24c3.7-6.7,10.5-10.9,26-16
	c17.8-5.8,35.9-4.8,35.9-4.8S382.6,424.1,400.4,429.9z"/>
<polygon points="203.6,515 203.7,514.9 203.6,514.9 "/>
<polygon points="203.7,514.9 203.8,515 203.8,514.9 "/>
<polygon points="203.6,515 203.7,514.9 203.6,514.9 "/>
<polygon points="203.7,514.9 203.8,515 203.8,514.9 "/>
<polygon points="193.3,513.9 193.4,513.9 193.3,513.8 "/>
<polygon points="193.4,513.9 193.5,513.9 193.5,513.8 "/>
<polygon points="193.3,513.9 193.4,513.9 193.3,513.8 "/>
<polygon points="193.4,513.9 193.5,513.9 193.5,513.8 "/>
<path class="st2" d="M415.5,411.3c15.5,5,22.3,9.3,26,15.9c3,5.4,5.8,17.8,6,24c0.5,14.5-7.5,51-21.1,63.1
	c-13.9,12.4-81.6,12.4-95.5,0c-13.6-12.2-21.6-48.6-21.1-63.1c0.2-6.2,3-18.6,6-24c3.7-6.7,10.5-10.9,26-15.9
	c17.8-5.8,35.9-4.9,35.9-4.9S397.7,405.5,415.5,411.3z"/>
<path class="st0" d="M233.4,339.9c-7.1-10.8-4.9-16.7-10.9-14.6s-36.4,19.9-41.9,23.3c-14.2,8.6-56.5,35.2-72,39.9
	c-10.9,3.3,5.4,18,5.4,18s11.6-6.6,19.2-9.3c15.9-5.7,20.4-9.8,47.1-18.2c7-2.2,49.4-20.8,55.2-25.2
	C251.4,341.3,235.5,343,233.4,339.9z"/>
<path class="st0" d="M545.8,252.2c-11-7.6-5.8-17.7-3.4-23.7s10-23.7,13.6-29.1c9.2-13.9,40.3-55.2,44.2-79.3
	c1.8-11.2,18.7,0.3,18.7,0.3s-8.7,26-11.7,33.5c-6.2,15.8-6.8,28.5-16.2,55c-2.5,6.9-17.5,28-22.2,33.6
	C555.7,257.9,548.9,254.4,545.8,252.2z"/>
<path class="st0" d="M542,258.4l12.6-4.2c6.5-2.5,1.6-9.4-0.8-15.9l0,0c-2.2-6-8.2-9.7-14.6-9l-5.7,0.6c0,0-124.3,4.1-117.9,33.7
	l0,0c2.3,10.8,12.8,21.8,23.9,19.4L542,258.4z"/>
<path class="st0" d="M281.7,317l-46.4,36.6l-3.5,2.4c-6,4.1-14.1,2.9-18.6-2.8l0,0c-4.1-5.1-4.1-12.4,0.1-17.5l3.7-4.5
	c0,0,29.2-31.7,37.6-43.3c10.3-14.2,36-60.3,58.9-38.2l0,0c8.4,8.1,12.3,23.2,3.9,31.3L281.7,317z"/>
<polygon points="407.7,656 407.8,656 407.7,655.9 "/>
<polygon points="407.8,656 407.9,656 407.9,655.9 "/>
<polygon points="407.7,656 407.8,656 407.7,655.9 "/>
<polygon points="407.8,656 407.9,656 407.9,655.9 "/>
<path d="M407.4,656.3h0.1H407.4z"/>
<path d="M407.5,656.3L407.5,656.3L407.5,656.3z"/>
<path d="M407.4,656.3h0.1H407.4z"/>
<path d="M407.5,656.3L407.5,656.3L407.5,656.3z"/>
<path class="st3" d="M447.4,384.9h0.6l2.5-2.8c3.1-3.5,3.9-8.4,2.2-12.8c-2-5.3-4.4-11.9-4.4-13.8c0.2-24.1,0.4-54.4,0.4-56.4
	c0-3.1,15.5-52.7,17.2-60.7c0.1-0.5-0.2-1.1-0.7-1.3l-52.4-22.6c-6.1-2.6-13.3,0-16.2,5.9l-9.5,19c-4.6,9.2-17.6,9.3-22.4,0.3
	l-9.5-18c-3.1-5.8-10-7.1-16-4.5l-55.9,28.7c0,0,0-0.1,0,0l16.6,46.8c0.4,1.2,0.6,2.5,0.6,3.8L301,354c0,1.3-0.2,2.5-0.5,3.7
	l-4.1,13.8c-0.9,3.1-0.6,6.4,0.8,9.2l0,0c1,2,1.4,4.2,1.3,6.4c-0.2,3.7-0.6,9.8-0.9,14.2l-5.8,81.1c-0.4,5.7,3.1,11,8.6,12.8
	l24.6,5.3c25.7,5.5,52.3,5.6,78,0.3c16.4-3.4,33.9-7,43.2-9.2c5.9-1.4,9.9-6.8,9.6-12.9l-3.8-76.5
	C451.6,395.7,450,389.8,447.4,384.9z"/>
<polygon class="st4" points="447.3,399.2 450.4,446.8 406.5,454.4 397,448.5 394.7,397 447.6,389.4 "/>
<ellipse transform="matrix(0.3162 -0.9487 0.9487 0.3162 -129.8235 551.4572)" class="st5" cx="317.6" cy="365.8" rx="6.7" ry="6.7"/>
<circle class="st6" cx="317.6" cy="365.8" r="5.4"/>
<g>
	<path class="st6" d="M317.8,365.8c0.4,7.9,0.8,15.8,0.9,23.7c0.3,5.9,0.6,11.8-0.5,17.7c-0.3,2-0.7,3.9-1.3,5.9h-0.4
		c-2-7.8-1.8-15.8-0.9-23.7c0.5-7.9,1.1-15.7,1.9-23.6C317.4,365.8,317.8,365.8,317.8,365.8L317.8,365.8z"/>
</g>
<g>
	<path class="st6" d="M335.4,359c0.4,7.9,0.8,15.8,0.9,23.7c0.3,5.9,0.6,11.8-0.5,17.7c-0.3,2-0.7,3.9-1.3,5.9h-0.4
		c-2-7.8-1.8-15.8-0.9-23.7c0.5-7.9,1.1-15.7,1.9-23.6C335,359,335.4,359,335.4,359L335.4,359z"/>
</g>
<polygon class="st4" points="300.8,400.9 297.7,448.5 341.6,456 351.1,450.1 353.4,398.7 300.5,391.1 "/>
<g>
	<path class="st6" d="M335,364.3c-0.1-3-0.3-7-0.3-9.5c-1-5.1,2.5-8.3,7.5-6.8c2.2,0.6,2.8,2.4,2,4.4c-0.3,0.7-0.5,1.3-0.7,2h-0.2
		c-0.5-1.2,0.2-3-0.4-4c-0.3-0.6-1.9-0.7-3.1-0.7c-3-0.3-4,2.2-3.8,4.8c-0.2,3.2-0.5,6.5-0.7,9.7C335.2,364.3,335,364.3,335,364.3
		L335,364.3z"/>
</g>
<path class="st5" d="M618.9,120.3c1.4-3.2,2.3-6.7,2.4-10.2l1.1-18.8c0-1.6-0.5-3.1-1.6-4.3l0,0c-1.5-1.7-3.7-2.6-6-2.6l-16.1-2.5
	c-2.7-0.1-4,0.6-5.1,2.8l0.4,5.1c0,0-1.5,6.9-1.5,4.8c-0.3-7.3-1.5-12.2-7.8-11.5l1.1,12.1c-0.1,1,0.9,3,1.4,3.9
	c1.6,2.7,2.7,9,4.2,11.1c0,0,7.8,8,8.6,9.9c0.9,2.1-1,4.7-1,4.7l0,0c0.5,4,4.2,6.8,8.2,6.3c0.3,0,0.7-0.1,1-0.2l6.8-1.9L618.9,120.3
	z"/>
<path class="st7" d="M593.6,84.7l1,9.8l6.2,10.2l6.2-1l-1,0.8c-2.1,1.7-3.2,4.4-2.9,7.1l0.4,3.4l-3.8-7.7l-2-1.4l-5.6-11.5l0.3-5.2
	L593.6,84.7z"/>
<path class="st5" d="M116.9,385.3c-0.3-0.4-0.7-0.6-1.1-0.8c-2.8-1-13.4-5-15.4-4.9c-2.3,0.2-11.8,2.4-13.6,2.2s-12.4-4-12.5-2.6
	c-0.1,0.9-0.1,3.3-0.1,4.9c0,1,0.5,1.8,1.4,2.2l6.6,3.3c0.3,0.2,0.7,0.3,1.1,0.3l3.2,0.1c2.4,0,3.3,3,1.5,4.5l-7.7,5.8
	c-0.1,0.1-0.2,0.2-0.4,0.2c-2.1,1.1-20.4,10.3-21.6,10.6c-0.7,0.2-0.4,2.1,0,3.8c0.4,1.5,2,2.3,3.4,1.7l19.5-8.4
	c0.6-0.2,1,0.5,0.5,0.9l-19,14.9c-1.1,0.9-1.3,2.4-0.4,3.5l1.4,1.8c0.8,1.1,2.4,1.3,3.5,0.4L86.1,415c0.5-0.4,1.2,0.3,0.7,0.8
	L71,433.4c-1.1,1.2-0.7,3.2,0.7,3.9l2,1c1,0.5,2.2,0.3,2.9-0.5l16.2-16.9c0.4-0.5,1.2,0.1,0.9,0.6l-7.5,13.3c-0.8,1.3-0.1,3,1.3,3.6
	c1.7,0.6,3.7,1.2,4.1,0.3c0.7-1.4,11-15.3,12.5-17.4c0.1-0.2,0.3-0.3,0.4-0.4l19.8-16.3c0.5-0.4,0.8-1,0.9-1.6l0.7-4.9
	c0.1-0.7-0.1-1.4-0.5-1.9L116.9,385.3z"/>
</svg>
