<svg xmlns="http://www.w3.org/2000/svg" xmlns:xlink="http://www.w3.org/1999/xlink" viewBox="0 0 788 1005.07"><defs><style>.cls-1{fill:none;}.cls-2{fill:#b26959;}.cls-3{fill:#5c2a00;}.cls-4{clip-path:url(#clip-path);}.cls-5{fill:#904c3d;}.cls-6{clip-path:url(#clip-path-2);}</style><clipPath id="clip-path"><polygon class="cls-1" points="446.9 112.83 446.9 112.83 462.39 112.83 462.39 143.05 446.9 143.05 446.9 112.83"/></clipPath><clipPath id="clip-path-2"><polygon class="cls-1" points="374.62 112.83 374.62 112.83 359.13 112.83 359.13 143.05 374.62 143.05 374.62 112.83"/></clipPath></defs><g id="Calque_3" data-name="Calque 3"><rect class="cls-2" x="389.34" y="139.56" width="39.52" height="47.38"/><path class="cls-3" d="M397.46,70.84s-14,7.38-10,19.28c1.95,6.48-6.46.9-6.25-.79a7.66,7.66,0,0,0-4.64-7.16c-3.63-1.43-2.89-4.17-2.89-4.17a7.88,7.88,0,0,1,.94-2.59,4.48,4.48,0,0,0,.85-2.67c0-.77-.53-1.77-2-2.56a2.94,2.94,0,0,1-1.85-2.4c-.13-.79.69-1.92,3.06-4.11s1.29-5.4,1.29-5.4A20.92,20.92,0,0,1,373,52.85c-.58-2.27,3.5-2.82,3.92-3s2.43-1,2.35-3.09-1.66-4.45-.9-5.47,5.37-.64,5.37-.64a5.11,5.11,0,0,0,3.61-1.6c1.32-1.61,1.74-6.17,3.4-7.17s5.24,1,6,1.5a8.87,8.87,0,0,0,4.29.95c1.34-.13,2.66-.87,4.19-3s2.45-4.24,5-4.42,4.4,3.63,4.75,4.16,2.23,2.9,5,2.95,4.72-1.66,6.41-2.16,2.71-.37,3.53.21,1.39,2.61,1.66,3.8a4.77,4.77,0,0,0,2.13,3.6c1.76,1.27,3.56,1,5.14,1s2.18-.31,3,.58.37,2.32-.26,3.69a3.67,3.67,0,0,0,0,3.4c.47,1.05,1.61,1.42,3,1.92s2.64,1.05,2.77,2.85-1.32,3-1.77,3.79a5.18,5.18,0,0,0-1.26,3.58,7.11,7.11,0,0,0,2.45,4.37c.92.77,2.08,1.59,2.05,3.17s-1.66,2.1-2.24,2.5a3.84,3.84,0,0,0-1.68,2.74A4.71,4.71,0,0,0,446,75.84a4.21,4.21,0,0,1,.81,2.67c0,1.23-.55,2.18-2.08,3.13s-3.45,2-4.13,3.27-1.38,8.19-1.14,5.5c2-22.4-7-4.14-9.28-5.9s.89-5.12-3.2-9.11c-.69-.67-.63-1.35-1.27-1.79a5.36,5.36,0,0,1-1.29-1.51c-.16-.26-1.08-4.42-.76-5.37S421.8,65.1,421,64.52a3.31,3.31,0,0,1-1.37-1.83c-.31-.83-.42-1.89-1-1.91S417.56,62,416.87,63s-1.08,1.65-2.18,2-3.16-.71-4.51-.18-1.21,1.37-1.55,2-.37,1.42-1.27,1.53a2.81,2.81,0,0,1-2.18-.13c-1.4-.5-1.37-.5-2-.34s-1.1,1-1.45,1.63-.29,1-.84,1.24S398.62,70.47,397.46,70.84Z"/><circle class="cls-2" cx="411.16" cy="98.32" r="38.29"/><path class="cls-3" d="M411,143.11c-22.94,0-41.54-18.83-41.54-42.05S388,59,411,59"/><path class="cls-3" d="M410.14,59c23.8,0,43.1,18.83,43.1,42.05s-19.3,42.06-43.1,42.06"/><path class="cls-2" d="M446.75,94.57c-.89-9-38.39-12.32-40.94-12.54h-8.07a3.4,3.4,0,0,0-.45,0l-6.15.86s-15.46,2.37-16.36,11.66c-2.18,22.22-1,31,.47,55.94.55,9.57,24.52,26.18,29.22,29.35a3.28,3.28,0,0,0,1.74.55l4.45.14h.2l4.45-.14a3.28,3.28,0,0,0,1.74-.55c4.7-3.17,28.66-19.78,29.21-29.35C447.71,125.56,448.92,116.79,446.75,94.57Z"/><g class="cls-4"><path class="cls-5" d="M447.93,118.91s5.23-6.4,8.3-6.07c4.59.49,6.66,9,6.06,12.83-.74,4.8-5,15.12-10.35,17.3-1.06.42-5-.85-5-.85Z"/></g><g class="cls-6"><path class="cls-5" d="M373.59,118.91s-5.23-6.4-8.3-6.07c-4.59.49-6.65,9-6.06,12.83.75,4.8,5,15.12,10.35,17.3,1.06.42,5-.85,5-.85Z"/></g><path class="cls-2" d="M389.72,85.22a25.31,25.31,0,0,1,3.42-5.86,37.79,37.79,0,0,1,4.64-5,41.53,41.53,0,0,1,5.45-4.07,28.21,28.21,0,0,1,6.13-2.91,35.72,35.72,0,0,0-5.92,3.23,45.18,45.18,0,0,0-5.33,4.13,41.17,41.17,0,0,0-4.67,4.85A31.11,31.11,0,0,0,389.72,85.22Z"/></g></svg>