<svg xmlns="http://www.w3.org/2000/svg" viewBox="0 0 788 1005.07"><defs><style>.cls-1{fill:#e2927d;}.cls-2{fill:#f7a386;}.cls-3{fill:#d79072;}.cls-4{fill:#3d332f;}.cls-5{fill:#a06b58;}.cls-6{fill:#9e8261;}</style></defs><g id="Calque_3" data-name="Calque 3"><path class="cls-1" d="M372.44,141.79l-8.36-2.43-2.34,2.43,1,14.11s5.36,8.28,6,9.25,5.51,1.79,5.51,1.79L377.8,152Z"/><path class="cls-1" d="M440.83,141.79l8.36-2.43,2.34,2.43-1,14.11s-5.35,8.28-6,9.25-5.52,1.79-5.52,1.79L435.48,152Z"/><path class="cls-2" d="M406.84,93.13V199.79h-.1c-1.05-.17-10-1.71-11.61-3-4.37-3.44-16.54-14.87-16.54-14.87a13.85,13.85,0,0,1-3.4-7.27l-3.7-25.34-.16-1.08v-8s-2.7-14.33-2.7-14.8c0-.18.38-2.16.88-4.64a29.83,29.83,0,0,1,10.37-17.21l4.25-3.47a29.78,29.78,0,0,1,17-6.64l5.63-.36h.1Z"/><path class="cls-2" d="M445.1,125.54c0,.48-2.71,14.8-2.71,14.8v8l-.13.9-3.72,25.52a13.94,13.94,0,0,1-3.41,7.28S423,193.42,418.59,196.86c-1.31,1-7.26,2.22-10.14,2.75l-.57.1-.89.16h-.11V93.22H407l5.63.35a29.86,29.86,0,0,1,17,6.65l4.25,3.47a29.79,29.79,0,0,1,10.38,17.21C444.71,123.39,445.1,125.37,445.1,125.54Z"/><path class="cls-2" d="M414.48,136.58l1.15-6.25s7.53-5.26,15-3.56a82.57,82.57,0,0,1,8.3,3.2l-.06,2.95,6.1-7.48-2.73,15.8-4.67-3.43s-3.73.7-11.06-1.05c-4.16-1-10,8.4-10,8.4Z"/><path class="cls-2" d="M440.32,159.63c.27,3.77-.75,10.12-2.77,12.65-1.5,1.87-8.24,5.08-9.29,2.26-1.95-5.24,1.07-12.8,4.74-17,1.12-1.28,4.16-4.29,5.74-3.66C440.12,154.42,440.22,158.14,440.32,159.63Z"/><path class="cls-2" d="M400.44,136.92l-2.36-6.5s-5.8-3.92-14.9-2.86c-2.17.25-8.38,2.5-8.38,2.5l-.06,2.95-6.11-7.47,2.73,15.79,5.76-3.52h14.56l6.45,7.34Z"/><path class="cls-3" d="M406.77,162.14s-5.7-2.27-5.92-2.49-1,1.24-1,1.24L396,162.14l.54,3.13,3.24,1.19,4.22-1.19,2.78,1.19Z"/><path class="cls-4" d="M402.74,164.08,400.58,162l-3,1s.43,1.46.75,1.57l2.59.86Z"/><path class="cls-3" d="M406.2,162.14s5.69-2.27,5.91-2.49,1,1.24,1,1.24l3.89,1.25-.54,3.13-3.24,1.19L409,165.27l-2.77,1.19Z"/><path class="cls-4" d="M410.05,164.08l2.16-2.05,3,1s-.43,1.46-.76,1.57l-2.59.86Z"/><path class="cls-5" d="M440.32,161.4l1.93-13.19s4.74-4.67,5.12-4.76.63,2.05.63,2.05l-1.14,9.43-2.7,4.7Z"/><path class="cls-5" d="M373.38,162.43l-1.92-13.2s-4.74-4.66-5.12-4.75-.64,2.05-.64,2.05l1.15,9.42,2.69,4.71Z"/><path class="cls-2" d="M374.32,161.37c-.27,3.77.75,10.12,2.78,12.65,1.49,1.87,8.23,5.08,9.29,2.26,1.95-5.24-1.08-12.8-4.75-17-1.12-1.28-4.15-4.29-5.73-3.66C374.52,156.16,374.42,159.88,374.32,161.37Z"/><path class="cls-6" d="M408.73,74.93c-16.1-.52-48.51,7.7-55.31,39.88-3.31,15.67-5.25,35.85,26.73,44.95,0,0-15.19-19.59-6.12-39.88,0,0-3.08-1.44-1.09-.11s16.36-3.66,16.36-3.66,3.55-7.25,3.55-6.72a25.94,25.94,0,0,0,1.15,3.42l5.22-1.32s5.53-1.18,5.53-.66.33-12.38.33-12.38"/><path class="cls-6" d="M374.56,116.46s-3.08-1.44-1.09-.11,15.83-.24,15.83-.24"/><path class="cls-6" d="M353.24,115a1.13,1.13,0,0,1,0-.32c6.88-32,39.2-40.25,55.28-39.72,14.62.47,20.46,7.44,22.08,9.5a1.09,1.09,0,0,0,1,.4c3.63-.3,22.95-.51,28.9,28.93,7.29,36.09-17.68,43.14-25.85,44.47a1,1,0,0,1-1.06-1.52c13.66-18.62,6.12-46.9,5.35-47.72s-31.8-2.94-37.08-2.89a1.07,1.07,0,0,1-1-.68l-.68-1.86a1.11,1.11,0,0,0-1.91-.24,7.57,7.57,0,0,1-2.09,2.18c-2.08,1-7.94.56-10.9.29a1,1,0,0,1-.78-1.54h0c.71-1-.64-2.06-1.59-1.3A35.14,35.14,0,0,0,371,119.4a10.83,10.83,0,0,0-.33,3.45,1.09,1.09,0,0,1-1.92.63l-6.48-7.65a1.11,1.11,0,0,0-1-.37l-6.81.81a1.07,1.07,0,0,1-1.21-.87Z"/></g></svg>