<svg xmlns="http://www.w3.org/2000/svg" viewBox="0 0 788 1005.07"><defs><style>.cls-1{fill:#e2927d;}.cls-2{fill:#f7a386;}.cls-3{fill:#e59690;}.cls-4{fill:#d79072;}.cls-5{fill:#3d332f;}.cls-6{fill:#b47d7c;}.cls-7{fill:#895d3e;}.cls-8{fill:#3a61a7;}</style></defs><g id="Calque_3" data-name="Calque 3"><path class="cls-1" d="M372.44,141.79l-8.36-2.43-2.34,2.43,1,14.11s5.36,8.28,6,9.25,5.51,1.79,5.51,1.79L377.8,152Z"/><path class="cls-1" d="M440.83,141.79l8.36-2.43,2.34,2.43-1,14.11s-5.35,8.28-6,9.25-5.52,1.79-5.52,1.79L435.48,152Z"/><path class="cls-2" d="M406.73,93.22V199.89h0l-.07,0c-1.05-.17-10-1.7-11.61-3-4.37-3.44-16.54-14.86-16.54-14.86a13.85,13.85,0,0,1-3.4-7.28l-3.7-25.34-.16-1.08v-8s-2.7-14.32-2.7-14.8c0-.17.38-2.15.88-4.63a29.83,29.83,0,0,1,10.37-17.21l4.25-3.47a29.86,29.86,0,0,1,17-6.65l5.63-.35h.1Z"/><path class="cls-2" d="M445.1,125.54c0,.48-2.76,14.8-2.76,14.8v8l-.13.9-3.79,25.52A13.8,13.8,0,0,1,435,182s-12.39,11.42-16.84,14.86c-1.33,1-7.39,2.22-10.32,2.75l-.58.1-.91.16h-.1V93.22h.1l5.73.35a30.68,30.68,0,0,1,17.28,6.65l4.33,3.47a29.7,29.7,0,0,1,10.56,17.21C444.7,123.39,445.1,125.37,445.1,125.54Z"/><path class="cls-3" d="M414.48,136.58l1.15-6.25s7.53-5.26,15-3.56a82.57,82.57,0,0,1,8.3,3.2l-.06,2.95,6.1-7.48-2.73,15.8-4.67-3.43s-.73,1.76-8.07,0c-4.16-1-13,7.35-13,7.35Z"/><path class="cls-3" d="M442.12,149.1l-3.72,25.53A14,14,0,0,1,435,181.9s-12.18,11.43-16.54,14.87c-1.31,1-7.26,2.22-10.14,2.75l-.57.1c-.06-.62-.08-1.33.1-1.33.33,0,5.81-.48,5.81-.48l10-20s8.7-20,9.33-20.31,5.74-3.66,5.74-3.66Z"/><path class="cls-3" d="M408.31,199.52l-.57.1-.9.16h-.1v0c-1.05-.17-10-1.71-11.61-3-4.37-3.44-16.54-14.87-16.54-14.87a13.85,13.85,0,0,1-3.4-7.27l-3.7-25.34,3.25,4.58s5.1,3.34,5.73,3.66,9.34,20.31,9.34,20.31l10,20,6.91.42h.1l1,0A3.61,3.61,0,0,1,408.31,199.52Z"/><path class="cls-3" d="M400.44,136.92l-2.36-6.5s-5.8-3.92-14.9-2.86c-2.17.25-8.38,2.5-8.38,2.5l-.06,2.95-6.11-7.47,2.73,15.79,5.76-3.52h14.56l6.45,7.34Z"/><path class="cls-4" d="M406.77,162.14s-5.7-2.27-5.92-2.49-1,1.24-1,1.24L396,162.14l.54,3.13,3.24,1.19,4.22-1.19,2.78,1.19Z"/><path class="cls-5" d="M402.74,164.08,400.58,162l-3,1s.43,1.46.75,1.57l2.59.86Z"/><path class="cls-4" d="M406.2,162.14s5.69-2.27,5.91-2.49,1,1.24,1,1.24l3.89,1.25-.54,3.13-3.24,1.19L409,165.27l-2.77,1.19Z"/><path class="cls-5" d="M410.05,164.08l2.16-2.05,3,1s-.43,1.46-.76,1.57l-2.59.86Z"/><path class="cls-6" d="M440.32,161.4l1.93-13.19s4.74-4.67,5.12-4.76.63,2.05.63,2.05l-1.14,9.43-2.7,4.7Z"/><path class="cls-6" d="M373.38,162.43l-1.92-13.2s-4.74-4.66-5.12-4.75-.64,2.05-.64,2.05l1.15,9.42,2.69,4.71Z"/><path class="cls-5" d="M347.16,94.06c.93-1.15,12.09,16.26,13.84,16.1,18.08-1.65,11.41-48.61,42.6-31.27a19,19,0,0,0,12.78.93c18.67-4.8,23.87,18.94,23.87,18.94s3.18-18.63,3.05-19.87-29.06-20.75-31.48-21.68-22.41,0-23.56,0-28.71,14.87-29.95,15.48S347.16,94.06,347.16,94.06Z"/><path class="cls-7" d="M370.19,148l2.25-6.19L376,113.9l28,1.88,32.43-.67,4.43,26.68.24,7.18s19.9-37.22,21.45-40.31,32.25-55.13-5.87-62.47c-47.28-9.11-106.86,20.66-110.88,40.17S369.08,146.44,370.19,148Z"/><path class="cls-7" d="M405,107.78l28.58-5.55L397.21,80.44,358.06,105.5l29.87,3A58.68,58.68,0,0,0,405,107.78Z"/><ellipse class="cls-8" cx="448" cy="172.28" rx="7.35" ry="10.92"/><ellipse class="cls-8" cx="365.7" cy="172.77" rx="7.35" ry="10.92"/></g></svg>