<?xml version="1.0" encoding="utf-8"?>
<!-- Generator: Adobe Illustrator 26.0.0, SVG Export Plug-In . SVG Version: 6.00 Build 0)  -->
<svg version="1.1" id="Calque_1" xmlns="http://www.w3.org/2000/svg" xmlns:xlink="http://www.w3.org/1999/xlink" x="0px" y="0px"
	 viewBox="0 0 158 161.8" style="enable-background:new 0 0 158 161.8;" xml:space="preserve">
<style type="text/css">
	.st0{fill:#D79072;}
	.st1{fill:#F7A386;}
	.st2{fill:#A06B58;}
	.st3{fill:#895D3E;}
</style>
<g>
	<g id="Calque_1_00000021836177604944401720000009401136972475906944_">
		<path class="st0" d="M44.8,103.8l-8.4-2.4l-2.3,2.4l1,14.1c0,0,5.4,8.3,6,9.2s5.5,1.8,5.5,1.8l3.5-14.9L44.8,103.8z"/>
		<path class="st0" d="M113.2,103.8l8.4-2.4l2.3,2.4l-1,14.1c0,0-5.4,8.3-6,9.2s-5.5,1.8-5.5,1.8l-3.5-14.9L113.2,103.8z"/>
		<path class="st1" d="M116.5,82.8c-1.4-6.8-5-12.8-10.4-17.2l-4.3-3.5c-4.8-3.9-10.8-6.3-17-6.6l-5.6-0.4h0h-0.1h0v0l-5.6,0.4
			c-6.2,0.4-12.2,2.7-17,6.6l-4.2,3.5c-5.3,4.4-9,10.4-10.4,17.2c-0.5,2.5-0.9,4.5-0.9,4.6c0,0.5,2.7,14.8,2.7,14.8v8l0.2,1.1
			l3.7,25.3c0.4,2.7,1.6,5.2,3.4,7.3c0,0,12.2,11.4,16.5,14.9c1.6,1.3,10.6,2.8,11.6,3h0.1v0h0l0.9-0.2l0.6-0.1
			c2.9-0.5,8.8-1.8,10.1-2.8c4.4-3.4,16.5-14.9,16.5-14.9c1.8-2,3-4.5,3.5-7.2l3.7-25.5l0.1-0.9v-8c0,0,2.7-14.3,2.7-14.8
			C117.4,87.3,116.9,85.3,116.5,82.8z"/>
		<path class="st2" d="M112.7,123.4l1.9-13.2c0,0,4.7-4.7,5.1-4.8s0.6,2,0.6,2l-1.1,9.4l-2.7,4.7L112.7,123.4z"/>
		<path class="st2" d="M45.7,124.4l-1.9-13.2c0,0-4.7-4.7-5.1-4.8s-0.6,2-0.6,2l1.1,9.5l2.7,4.7L45.7,124.4z"/>
	</g>
	<g id="Calque_3">
		<path class="st3" d="M44.8,103.8c-0.4-0.6-33.6-46.2,24.6-63.4c0,0-31.8-33.9,10.7-33.9c43.4,0,13.2,32.4,10.9,33
			c0,0,54.5,21.8,23.3,65.9c0,0,0.2-34.7-6-37.8c-0.5,4.9-0.5,10-0.5,10c-8.9,2.2-18.1,3.2-27.3,3c-10.2-0.2-20.4-1.4-30.3-3.5v-9.6
			C42.4,74.1,44.8,103.8,44.8,103.8z"/>
	</g>
</g>
</svg>
