<?xml version="1.0" encoding="utf-8"?>
<!-- Generator: Adobe Illustrator 25.4.1, SVG Export Plug-In . SVG Version: 6.00 Build 0)  -->
<svg version="1.1" id="Calque_1" xmlns="http://www.w3.org/2000/svg" xmlns:xlink="http://www.w3.org/1999/xlink" x="0px" y="0px"
	 viewBox="0 0 788 1005.1" style="enable-background:new 0 0 788 1005.1;" xml:space="preserve">
<style type="text/css">
	.st0{fill:#F7A386;}
	.st1{fill:#69482E;}
	.st2{fill:#D18774;}
	.st3{fill:#E59690;}
	.st4{fill:#D79072;}
	.st5{fill:#B07671;}
	.st6{fill:#895D3E;}
</style>
<path class="st0" d="M391.5,81.8l18.8-3.2c0,0,8.7,0.9,9.1,1.6s2.6,13.5,1.8,15.1s-9.1,4.4-9.1,4.4s-0.7-1.7-2-1.7s-7.3-1.5-8.2-2.2
	S391.5,81.8,391.5,81.8z"/>
<path class="st1" d="M453.6,230.2c0,0-19-6.7-26.2-9.1v-32.2c-3.4,3.1-7,6.3-9,7.9c-1.3,1-7,2.2-10,2.7h-0.2l-0.6,0.1l-0.9,0.2h-0.1
	l0,0c-1-0.2-10-1.7-11.6-3c-1.3-1-3.2-2.6-5.2-4.5c2.4,6.3,3.7,13,3.9,19.8c-2.2-0.7-4.2-1.4-5.9-2c-2.5-0.9-4.2-1.8-4.7-2.4
	c-2.7-3.5-12.8-17.2-13.8-19.7s-13.1-35.9-13.1-36.6s9.2-38.1,10.3-39.1s23-18.1,24.4-19.1l6.9,0.8l8.9,1h0.1l1,0.1l10.2,1
	l26.1,24.8l5.3,5c0,0,9.2,28.3,8.9,31.3s-6.6,14.2-8.9,15.3S453.6,230.2,453.6,230.2z"/>
<path class="st2" d="M427.4,169.5v19.4c-3.4,3.1-7,6.3-9,7.9c-1.3,1-7,2.2-10,2.7h-0.2l-0.6,0.1l-0.9,0.2h-0.1l0,0
	c-1-0.2-10-1.7-11.6-3c-1.3-1-3.2-2.6-5.2-4.5c2.4,6.3,3.7,13,3.9,19.8c0.2,5.6-0.9,11.1-3.2,16.2h-2.7v-58.7H427.4z"/>
<path class="st0" d="M372.4,141.8l-8.4-2.4l-2.3,2.4l1,14.1c0,0,5.4,8.3,6,9.2s5.5,1.8,5.5,1.8l3.5-14.9L372.4,141.8z"/>
<path class="st0" d="M440.8,141.8l8.4-2.4l2.3,2.4l-1,14.1c0,0-5.4,8.3-6,9.2s-5.5,1.8-5.5,1.8l-3.5-14.9L440.8,141.8z"/>
<path class="st0" d="M445,125.5c0,0.5-2.7,14.8-2.7,14.8v8l-0.1,0.9l-3.7,25.5c-0.4,2.7-1.6,5.2-3.4,7.3c0,0-3.6,3.4-7.6,7
	c-3.4,3-7,6.3-9,7.9c-1.3,1-7,2.2-10,2.7h-0.2l-0.6,0.1l-0.9,0.2h-0.1c-1.1-0.2-10-1.7-11.6-3c-1.3-1-3.2-2.6-5.2-4.5l-2-1.8
	c-4.6-4.2-9.3-8.6-9.3-8.6c-1.8-2-3-4.6-3.4-7.3l-3.7-25.3l-0.2-1.1v-8c0,0-2.7-14.3-2.7-14.8c0-0.2,0.4-2.1,0.9-4.6
	c1.4-6.8,5-12.8,10.4-17.2l4.2-3.5c4.8-3.9,10.8-6.2,17-6.7l5.6-0.3h0.1l0,0l2.2,0.1l3.4,0.2c6.2,0.4,12.2,2.7,17,6.7l4.2,3.5
	c5.4,4.4,9,10.4,10.4,17.2C444.6,123.3,445,125.3,445,125.5z"/>
<path class="st0" d="M406.8,199.8L406.8,199.8L406.8,199.8C406.8,199.8,406.8,199.8,406.8,199.8L406.8,199.8z"/>
<polygon class="st3" points="417.4,143.5 422.6,137.6 435.5,139.2 436.8,131.2 438.9,132.9 445,125.4 442.2,141.2 437.7,140.5 
	426.9,145.9 "/>
<path class="st3" d="M408.3,199.5l-0.6,0.1C407.7,199,408.1,199.5,408.3,199.5z"/>
<path class="st3" d="M442.1,149.1l-3.7,25.5c-0.4,2.7-1.6,5.2-3.4,7.3c0,0-3.6,3.4-7.6,7c-3.4,3.1-7,6.3-9,7.9c-1.3,1-7,2.2-10,2.7
	c0.9-0.3,4.2-1.7,5.2-2.6c3.8-3.8,10-19,10-19s1.4-3.9,3.2-8.3c1.9-4.6,4.3-9.8,6.1-12c1.1-1.3,4.4-2.5,5.7-3.7
	C440,152.4,441.1,150.8,442.1,149.1z"/>
<path class="st0" d="M408.3,199.5l-0.6,0.1l-0.9,0.2h-0.1l0,0c-1-0.2-10-1.7-11.6-3c-1.3-1-3.2-2.6-5.2-4.5l-2-1.8
	c-4.6-4.2-9.3-8.6-9.3-8.6c-1.8-2-3-4.6-3.4-7.3l-3.7-25.3l1.1,1.5l2.2,3.1c0,0,5.1,3.3,5.7,3.7c0.4,0.2,4.8,10,7.4,15.9l1.9,4.4
	l10,20l6.9,0.4h0.1h1C408.1,198.7,408.2,199.1,408.3,199.5z"/>
<polygon class="st0" points="396.2,143.6 391,137.7 378.1,139.3 376.8,131.3 374.7,133 368.6,125.5 371.4,141.3 375.9,140.6 
	386.7,146 "/>
<path class="st4" d="M417.2,162.1l-0.5,3.1l-3.2,1.2l-4.2-1.2l-1.4,0.6c-0.7,0.3-1.4,0.3-2.1,0l-1.4-0.6l-4.3,1.2l-3.2-1.2l-0.5-3.1
	l3.9-1.2c0,0,0.8-1.5,1-1.2s5.6,1.4,5.6,1.4s5.4-1.2,5.6-1.4s1,1.2,1,1.2L417.2,162.1z"/>
<path class="st0" d="M401.5,162.9L401.5,162.9c-0.6-0.5-1.4-0.7-2.1-0.4l-1,0.3c-0.5,0.2-1.1,0.1-1.6-0.1c-0.4-0.2-0.9-0.4-1.3-0.6
	c0.4,1.1,0.7,2.2,0.8,3.3c0.2,1.2,1.3,1.9,2.5,1.7c0.1,0,0.1,0,0.2,0h5.8C406.4,166.5,402.8,164,401.5,162.9z"/>
<path class="st0" d="M411.2,163L411.2,163c0.6-0.6,1.5-0.8,2.3-0.5l1,0.3c0.5,0.2,1,0.2,1.5,0c0.9-0.3,2.2-0.8,2-0.8
	c-0.5,1.2-0.8,2.4-1,3.6c-0.3,1.2-1.5,2-2.7,1.8c-0.1,0-0.1,0-0.1,0l-5.2,0.1C407.2,167,409.9,164.2,411.2,163z"/>
<path class="st5" d="M440.3,161.4l1.9-13.2c0,0,4.7-4.7,5.1-4.8s0.6,2.1,0.6,2.1l-1.1,9.4l-2.7,4.7L440.3,161.4z"/>
<path class="st5" d="M373.4,162.4l-1.9-13.2c0,0-4.7-4.7-5.1-4.8s-0.6,2.1-0.6,2.1l1.1,9.4l2.7,4.7L373.4,162.4z"/>
<path class="st6" d="M412.6,79.5c2.6,13.7-9,18.8-0.6,20.3c15.6,2.7,23.3,7.4,27.2,14c7.5,12.4,15.7,37.5,6.9,57.4
	c-6.1,13.8-8.3,46.8,12,57c0,0-10.7-11.5,4-40.2s4.1-72.4-16.9-93.7C419.2,67.9,412.6,79.5,412.6,79.5z"/>
<path class="st6" d="M409.1,93.3c-0.4,0.6-0.8,1.2-1.3,1.7c-0.3,0.4-0.6,0.7-1,1c0,0-0.1,0.1-0.1,0.1c-2.3,2.2-5.1,3.7-8.1,4.4
	c-15.4,4.1-20.8,12.8-23.1,20.1c-2.9,9.8-3.9,20-2.9,30.2c0.9,9.6,3.8,19.4,9.9,27.2c2.2,2.9,4,6.1,5.5,9.4c0.7,1.5,1.4,3.1,2,4.8
	c2.4,6.3,3.7,13,3.9,19.7c0.2,5.6-0.9,11.1-3.2,16.2c-1.5,3.1-3.6,5.8-6.2,8c0,0,7.6-13.7-13.5-38.1s-23.2-70.6-5.8-95
	c31-43.4,47.6-23.6,47.6-23.6C412.6,80,413.1,87.2,409.1,93.3z"/>
</svg>
