<svg id="Calque_1" data-name="Calque 1" xmlns="http://www.w3.org/2000/svg" viewBox="0 0 788 1005.07"><defs><style>.cls-1{fill:#4c3726;}.cls-2{fill:#f7a386;}.cls-3{fill:#e59690;}.cls-4{fill:#b07671;}.cls-5{fill:#cd766d;}</style></defs><path class="cls-1" d="M381.56,114c-2.64.52-24.9,30.42-25.41,34.37s-3.63,15.46-2.08,18.5,11.58,14.56,11.58,14.56l9.56,3.24,10.92-3.11,3.21-52.26Z"/><path class="cls-2" d="M372.44,141.79l-8.36-2.43-2.34,2.43,1,14.11s5.36,8.28,6,9.25,5.51,1.79,5.51,1.79L377.8,152Z"/><path class="cls-2" d="M440.83,141.79l8.36-2.43,2.34,2.43-1,14.11s-5.35,8.28-6,9.25-5.52,1.79-5.52,1.79L435.48,152Z"/><path class="cls-2" d="M406.84,93.13V199.79h-.1c-1.05-.17-10-1.71-11.61-3-4.37-3.44-16.54-14.87-16.54-14.87a13.85,13.85,0,0,1-3.4-7.27l-3.7-25.34-.16-1.08v-8s-2.7-14.33-2.7-14.8c0-.18.38-2.16.88-4.64a29.83,29.83,0,0,1,10.37-17.21l4.25-3.47a29.78,29.78,0,0,1,17-6.64l5.63-.36h.1Z"/><path class="cls-2" d="M445,125.45c0,.47-2.7,14.8-2.7,14.8v8l-.13.89-3.72,25.53A14,14,0,0,1,435,181.9s-12.18,11.43-16.54,14.87c-1.31,1-7.26,2.22-10.14,2.75l-.57.1-.9.16h-.1V93.13h.1l5.63.36a29.75,29.75,0,0,1,17,6.64l4.26,3.47a29.78,29.78,0,0,1,10.37,17.21C444.56,123.29,445,125.27,445,125.45Z"/><polygon class="cls-3" points="417.41 143.52 422.6 137.57 435.49 139.22 436.78 131.19 438.85 132.92 444.95 125.44 442.22 141.24 437.72 140.49 426.9 145.93 417.41 143.52"/><path class="cls-3" d="M442.12,149.1l-3.72,25.53A14,14,0,0,1,435,181.9s-12.18,11.43-16.54,14.87c-1.31,1-7.26,2.22-10.14,2.75l-.57.1c-.06-.62.39-.1.57-.1s4.31-1.62,5.37-2.69c3.78-3.8,10-19,10-19s5.66-16.1,9.33-20.31c1.12-1.28,4.45-2.55,5.74-3.66A32.23,32.23,0,0,0,442.12,149.1Z"/><path class="cls-2" d="M408.31,199.52l-.57.1-.9.16h-.1v0c-1.05-.17-10-1.71-11.61-3-4.37-3.44-16.54-14.87-16.54-14.87a13.85,13.85,0,0,1-3.4-7.27l-3.7-25.34,3.25,4.58s5.1,3.34,5.73,3.66,9.34,20.31,9.34,20.31l10,20,6.91.42h.1l1,0A3.61,3.61,0,0,1,408.31,199.52Z"/><polygon class="cls-3" points="396.17 143.61 390.99 137.66 378.09 139.31 376.8 131.28 374.74 133.01 368.63 125.54 371.36 141.33 375.86 140.58 386.69 146.02 396.17 143.61"/><path class="cls-2" d="M417,162.14l-.54,3.13-3.24,1.19L409,165.27l-2.49,1.07-2.5-1.07-4.21,1.19-3.24-1.19-.54-3.13,3.89-1.24s.75-1.46,1-1.24,5.61,2.36,5.61,2.36,5.43-2.15,5.64-2.36,1,1.24,1,1.24Z"/><path class="cls-4" d="M440.32,161.4l1.93-13.19s4.74-4.67,5.12-4.76.63,2.05.63,2.05l-1.14,9.43-2.7,4.7Z"/><path class="cls-4" d="M373.38,162.43l-1.92-13.2s-4.74-4.66-5.12-4.75-.64,2.05-.64,2.05l1.15,9.42,2.69,4.71Z"/><ellipse class="cls-1" cx="421.68" cy="61.62" rx="21.48" ry="23.62"/><path class="cls-1" d="M392.61,38s-4.46,28.77,15.45,37.49-5-13.87-5-13.87C402.11,55.22,395.56,49.65,392.61,38Z"/><path class="cls-1" d="M415.78,74c-.12,1.89,16.37,17.35-18.46,38.07s-59.71,53-24.09,71.93c0,0-58.15-8.55-23.31-46.33,22.63-24.55,19.46-63.46,49.8-68.3S415.78,74,415.78,74Z"/><path class="cls-1" d="M433.34,73.35s22.49,13.92,24.11,52.31-23.06,63-40.86,60.48c0,0,32.42-21.36,24-57.08C433.3,98.48,412.27,105,411.17,85.24S433.34,73.35,433.34,73.35Z"/><path class="cls-5" d="M408.77,164.66l3.47-2.43.91-1.1-.93-1.27-5.74.44-5.51-.84-1,1.21.66,1.15,3.45,2.71A4,4,0,0,0,408.77,164.66Z"/></svg>