<?xml version="1.0" encoding="utf-8"?>
<!-- Generator: Adobe Illustrator 26.0.0, SVG Export Plug-In . SVG Version: 6.00 Build 0)  -->
<svg version="1.1" id="Calque_1" xmlns="http://www.w3.org/2000/svg" xmlns:xlink="http://www.w3.org/1999/xlink" x="0px" y="0px"
	 viewBox="0 0 788 1005.1" style="enable-background:new 0 0 788 1005.1;" xml:space="preserve">
<style type="text/css">
	.st0{fill:#F7A386;}
	.st1{fill:#E7A09B;}
	.st2{fill:#BC6860;}
	.st3{fill:#3D332F;}
	.st4{fill:#A16559;}
	.st5{fill:#422915;}
</style>
<g id="Calque_3">
	<path class="st0" d="M372.4,141.8l-8.4-2.4l-2.3,2.4l1,14.1c0,0,5.4,8.3,6,9.2s5.5,1.8,5.5,1.8l3.5-14.9L372.4,141.8z"/>
	<path class="st0" d="M440.8,141.8l8.4-2.4l2.3,2.4l-1,14.1c0,0-5.4,8.3-6,9.2s-5.5,1.8-5.5,1.8l-3.5-14.9L440.8,141.8z"/>
	<path class="st0" d="M444.1,120.8c-1.4-6.8-5-12.8-10.4-17.2l-4.3-3.5c-4.8-3.9-10.8-6.3-17-6.6l-5.6-0.4h0l0,0h-0.1l-5.6,0.4
		c-6.2,0.4-12.2,2.7-17,6.6l-4.2,3.5c-5.3,4.4-9,10.4-10.4,17.2c-0.5,2.5-0.9,4.5-0.9,4.6c0,0.5,2.7,14.8,2.7,14.8v8l0.2,1.1
		l3.7,25.3c0.4,2.7,1.6,5.2,3.4,7.3c0,0,12.2,11.4,16.5,14.9c1.6,1.3,10.6,2.8,11.6,3h0.1v0h0l0.9-0.2l0.6-0.1
		c2.9-0.5,8.8-1.8,10.1-2.8c4.4-3.4,16.5-14.9,16.5-14.9c1.8-2,3-4.5,3.5-7.2l3.7-25.5l0.1-0.9v-8c0,0,2.7-14.3,2.7-14.8
		C445,125.3,444.6,123.3,444.1,120.8z"/>
	<polygon class="st1" points="417.4,143.5 422.6,137.6 435.5,139.2 436.8,131.2 438.9,132.9 445,125.4 442.2,141.2 437.7,140.5 
		426.9,145.9 	"/>
	<path class="st1" d="M442.1,149.1l-3.7,25.5c-0.4,2.7-1.6,5.2-3.4,7.3c0,0-11.8,12-16.5,14.9c-3.5,2.1-11.4,3-11.6,3
		c0.1-0.6,0.5-1.2,1-1.5l1.5-0.1c2.6-0.2,5-1.8,6.2-4.2l8.1-16.2c0,0,8.7-20,9.3-20.3s5.7-3.7,5.7-3.7L442.1,149.1z"/>
	<path class="st1" d="M408.3,199.5c-0.5,0.1-1,0.2-1.5,0.3c-3,0-10.1-1.7-11.7-3c-4.4-3.4-16.5-14.9-16.5-14.9c-1.8-2-3-4.6-3.4-7.3
		l-3.7-25.3l3.2,4.6c0,0,5.1,3.3,5.7,3.7s9.3,20.3,9.3,20.3l8.1,16.1c1.2,2.4,3.6,4,6.3,4.2l2.5,0.1h0.1h1
		C408.1,198.6,408.2,199.1,408.3,199.5z"/>
	<path class="st2" d="M406.5,162c0,0-5.4-2.2-5.6-2.4s-1,1.2-1,1.2l-3.9,1.3l0.5,3.1l3.2,1.2l4.2-1.2l2.5,1.1L406.5,162z"/>
	<path class="st3" d="M402.7,164.1l-2.2-2.1l-3,1c0,0,0.4,1.5,0.8,1.6l2.6,0.9L402.7,164.1z"/>
	<path class="st2" d="M406.5,162c0,0,5.4-2.2,5.6-2.4s1,1.2,1,1.2l3.9,1.2l-0.5,3.1l-3.2,1.2l-4.2-1.2l-2.5,1.1L406.5,162z"/>
	<path class="st3" d="M410,164.1l2.2-2.1l3,1c0,0-0.4,1.5-0.8,1.6l-2.6,0.9L410,164.1z"/>
	<path class="st4" d="M440.3,161.4l1.9-13.2c0,0,4.7-4.7,5.1-4.8s0.6,2.1,0.6,2.1l-1.1,9.4l-2.7,4.7L440.3,161.4z"/>
	<path class="st4" d="M373.4,162.4l-1.9-13.2c0,0-4.7-4.7-5.1-4.8s-0.6,2.1-0.6,2.1l1.1,9.4l2.7,4.7L373.4,162.4z"/>
	<path class="st5" d="M442.2,141.2c3.9-26.4-13.8-11.6-33.8-41c-1.3-1.9-1.9,2-2.5,3.1s-0.6,2.1-2,2.3s-1.3,0.6-3.5-0.2
		s-2.2-0.8-3.1-0.5s-1.8,1.4-2.3,2.4s-0.5,1.4-1.3,1.8s-3.6-0.5-5.5,0.1c0,0-23,14.3-16.7,32.1c0,0-4.6-1.4-7.3-2
		c-2.5-0.5-3.5-11.1-9.3-13.2s-4.6-6.2-4.6-6.2c0.3-1.4,0.8-2.7,1.5-3.9c1.3-2.2,1.3-2.8,1.3-4s-0.8-2.6-3.2-3.8s-2.7-2.4-2.9-3.6
		s1.1-2.9,4.9-6.1s2.1-8.1,2.1-8.1s-3.7-4.7-4.7-8.1s5.6-4.2,6.2-4.5s3.9-1.5,3.7-4.6s-2.6-6.7-1.4-8.2s8.6-0.9,8.6-0.9
		s3.6,0,5.8-2.4s2.8-9.2,5.4-10.7s8.4,1.5,9.5,2.2c2.1,1,4.5,1.5,6.9,1.4c2.1-0.2,4.2-1.3,6.7-4.4s3.9-6.3,8-6.6s7,5.4,7.6,6.2
		s3.6,4.3,7.9,4.4s7.5-2.5,10.2-3.2s4.3-0.5,5.6,0.3s2.2,3.9,2.6,5.7s0.6,3.5,3.4,5.4c2.8,1.9,5.7,1.5,8.2,1.5s3.5-0.5,4.8,0.9
		s0.6,3.5-0.4,5.5c-0.9,1.6-0.9,3.5,0,5.1c0.8,1.6,2.6,2.1,4.8,2.9s4.2,1.6,4.4,4.2s-2.1,4.5-2.8,5.7s0.9,6.4,1.2,9.2
		s-5.7,4.6-4.2,5.7s3.3,2.4,3.3,4.7s-2.6,3.2-3.6,3.7s-2.7,2.2-2.7,4.1s1.1,3.1,1.8,4.1c0.9,1.1,1.4,2.6,1.3,4
		c0,1.8-11.1,13.2-12.6,15.6C449.3,139.3,444.3,142.3,442.2,141.2"/>
</g>
</svg>
