<?xml version="1.0" encoding="utf-8"?>
<!-- Generator: Adobe Illustrator 25.4.1, SVG Export Plug-In . SVG Version: 6.00 Build 0)  -->
<svg version="1.1" id="Calque_1" xmlns="http://www.w3.org/2000/svg" xmlns:xlink="http://www.w3.org/1999/xlink" x="0px" y="0px"
	 viewBox="0 0 788 1005.1" style="enable-background:new 0 0 788 1005.1;" xml:space="preserve">
<style type="text/css">
	.st0{fill:#9E8261;}
	.st1{fill:#D79072;}
	.st2{fill:#F7A386;}
	.st3{fill:#E59690;}
	.st4{fill:#3D332F;}
	.st5{fill:#A06B58;}
</style>
<path class="st0" d="M473.8,124.1c-3.1,1.8-16.3,42.4-72.1,45.3c-50.5,2.6-62.2-41.3-65-44.4c5.9-37.9,41.4-63.8,79.3-57.9
	C445.5,71.7,468.8,94.6,473.8,124.1L473.8,124.1z"/>
<path class="st1" d="M372.4,141.8l-8.4-2.4l-2.3,2.4l1,14.1c0,0,5.4,8.3,6,9.2s5.5,1.8,5.5,1.8l3.5-14.9L372.4,141.8z"/>
<path class="st1" d="M440.8,141.8l8.4-2.4l2.3,2.4l-1,14.1c0,0-5.4,8.3-6,9.2s-5.5,1.8-5.5,1.8l-3.5-14.9L440.8,141.8z"/>
<path class="st2" d="M445,125.5c0,0.5-2.7,14.8-2.7,14.8v8l-0.1,0.9l-3.7,25.5c-0.4,2.7-1.6,5.2-3.5,7.2c0,0-12.2,11.4-16.5,14.9
	c-1.3,1-7.3,2.2-10.1,2.8l-0.6,0.1l-0.9,0.2h0v0h-0.1c-1-0.2-10-1.7-11.6-3c-4.4-3.4-16.5-14.9-16.5-14.9c-1.8-2-3-4.6-3.4-7.3
	l-3.7-25.3l-0.2-1.1v-8c0,0-2.7-14.3-2.7-14.8c0-0.2,0.4-2.2,0.9-4.6c1.4-6.8,5-12.8,10.4-17.2l4.2-3.5c4.8-3.9,10.8-6.3,17-6.6
	l5.6-0.4h0.1l0,0l5.6,0.4c6.2,0.4,12.2,2.7,17,6.6l4.3,3.5c5.4,4.4,9,10.5,10.4,17.2C444.6,123.3,445,125.3,445,125.5z"/>
<polygon class="st3" points="417.4,143.5 422.6,137.6 435.5,139.2 436.8,131.2 438.9,132.9 445,125.4 442.2,141.2 437.7,140.5 
	426.9,145.9 "/>
<path class="st3" d="M442.1,149.1l-3.7,25.5c-0.4,2.7-1.6,5.2-3.4,7.3c0,0-12.2,11.4-16.5,14.9c-1.3,1-7.3,2.2-10.1,2.8l-0.6,0.1
	c-0.1-0.6-0.1-1.3,0.1-1.3c0.3,0,5.8-0.5,5.8-0.5l10-20c0,0,8.7-20,9.3-20.3s5.7-3.7,5.7-3.7L442.1,149.1z"/>
<path class="st3" d="M408.3,199.5l-0.6,0.1l-0.9,0.2h-0.1l0,0c-1-0.2-10-1.7-11.6-3c-4.4-3.4-16.5-14.9-16.5-14.9
	c-1.8-2-3-4.6-3.4-7.3l-3.7-25.3l3.2,4.6c0,0,5.1,3.3,5.7,3.7s9.3,20.3,9.3,20.3l10,20l6.9,0.4h0.1h1
	C408.1,198.7,408.2,199.1,408.3,199.5z"/>
<polygon class="st3" points="396.2,143.6 391,137.7 378.1,139.3 376.8,131.3 374.7,133 368.6,125.5 371.4,141.3 375.9,140.6 
	386.7,146 "/>
<path class="st1" d="M406.8,162.1c0,0-5.7-2.3-5.9-2.5s-1,1.2-1,1.2l-3.8,1.2l0.5,3.1l3.2,1.2l4.2-1.2l2.8,1.2L406.8,162.1z"/>
<path class="st4" d="M402.7,164.1l-2.2-2.1l-3,1c0,0,0.4,1.5,0.8,1.6l2.6,0.9L402.7,164.1z"/>
<path class="st1" d="M406.2,162.1c0,0,5.7-2.3,5.9-2.5s1,1.2,1,1.2l3.9,1.2l-0.5,3.1l-3.2,1.2l-4.2-1.2l-2.8,1.2L406.2,162.1z"/>
<path class="st4" d="M410,164.1l2.2-2.1l3,1c0,0-0.4,1.5-0.8,1.6l-2.6,0.9L410,164.1z"/>
<path class="st5" d="M440.3,161.4l1.9-13.2c0,0,4.7-4.7,5.1-4.8s0.6,2.1,0.6,2.1l-1.1,9.4l-2.7,4.7L440.3,161.4z"/>
<path class="st5" d="M373.4,162.4l-1.9-13.2c0,0-4.7-4.7-5.1-4.8s-0.6,2.1-0.6,2.1l1.1,9.4l2.7,4.7L373.4,162.4z"/>
<ellipse transform="matrix(0.8976 -0.4407 0.4407 0.8976 -4.5289 178.6179)" class="st0" cx="382.3" cy="99.1" rx="42.8" ry="15.6"/>
</svg>
