<svg xmlns="http://www.w3.org/2000/svg" viewBox="0 0 788 1005.07"><defs><style>.cls-1{fill:#3d332f;}.cls-2{fill:#f7a386;}.cls-3{fill:#e7a09b;}.cls-4{fill:#bc6860;}.cls-5{fill:#a16559;}</style></defs><g id="Calque_3" data-name="Calque 3"><path class="cls-1" d="M370.19,148l2.25-6.19L376,113.9l28,1.88,32.43-.67,6.15,17.73L441.07,149s19.9-37.22,21.45-40.31,32.25-55.13-5.87-62.47c-47.28-9.11-106.86,20.66-110.88,40.17S369.08,146.44,370.19,148Z"/><path class="cls-2" d="M372.44,141.79l-8.36-2.43-2.34,2.43,1,14.11s5.36,8.28,6,9.25,5.51,1.79,5.51,1.79L377.8,152Z"/><path class="cls-2" d="M440.83,141.79l8.36-2.43,2.34,2.43-1,14.11s-5.35,8.28-6,9.25-5.52,1.79-5.52,1.79L435.48,152Z"/><path class="cls-2" d="M406.84,93.13V199.79h-.1c-1.05-.17-10-1.71-11.61-3-4.37-3.44-16.54-14.87-16.54-14.87a13.85,13.85,0,0,1-3.4-7.27l-3.7-25.34-.16-1.08v-8s-2.7-14.33-2.7-14.8c0-.18.38-2.16.88-4.64a29.83,29.83,0,0,1,10.37-17.21l4.25-3.47a29.78,29.78,0,0,1,17-6.64l5.63-.36h.1Z"/><path class="cls-2" d="M445,125.45c0,.47-2.7,14.8-2.7,14.8v8l-.13.89-3.72,25.53A14,14,0,0,1,435,181.9s-12.18,11.43-16.54,14.87c-1.31,1-7.26,2.22-10.14,2.75l-.57.1-.9.16h-.1V93.13h.1l5.63.36a29.75,29.75,0,0,1,17,6.64l4.26,3.47a29.78,29.78,0,0,1,10.37,17.21C444.56,123.29,445,125.27,445,125.45Z"/><polygon class="cls-3" points="417.41 143.52 422.6 137.57 435.49 139.22 436.78 131.19 438.85 132.92 444.95 125.44 442.22 141.24 437.72 140.49 426.9 145.93 417.41 143.52"/><path class="cls-3" d="M442.12,149.1l-3.72,25.53A14,14,0,0,1,435,181.9s-11.8,12-16.54,14.87c-3.45,2.11-11.44,3-11.61,3a2.07,2.07,0,0,1,1-1.5l1.55-.12a7.57,7.57,0,0,0,6.16-4.16l8.12-16.17s8.7-20,9.33-20.31,5.74-3.66,5.74-3.66Z"/><path class="cls-3" d="M408.31,199.52a12.68,12.68,0,0,1-1.47.27c-3,0-10.06-1.73-11.71-3-4.37-3.44-16.54-14.87-16.54-14.87a13.85,13.85,0,0,1-3.4-7.27l-3.7-25.34,3.25,4.58s5.1,3.34,5.73,3.66,9.34,20.31,9.34,20.31l8.06,16.06a7.6,7.6,0,0,0,6.32,4.18l2.55.15h.1l1,0A3.61,3.61,0,0,1,408.31,199.52Z"/><path class="cls-4" d="M406.5,162s-5.43-2.16-5.65-2.38-1,1.24-1,1.24L396,162.14l.54,3.13,3.24,1.19,4.22-1.19,2.49,1.07Z"/><path class="cls-1" d="M402.74,164.08,400.58,162l-3,1s.43,1.46.75,1.57l2.59.86Z"/><path class="cls-4" d="M406.5,162s5.39-2.16,5.61-2.38,1,1.24,1,1.24l3.89,1.25-.54,3.13-3.24,1.19L409,165.27l-2.49,1.07Z"/><path class="cls-1" d="M410.05,164.08l2.16-2.05,3,1s-.43,1.46-.76,1.57l-2.59.86Z"/><path class="cls-5" d="M440.32,161.4l1.93-13.19s4.74-4.67,5.12-4.76.63,2.05.63,2.05l-1.14,9.43-2.7,4.7Z"/><path class="cls-5" d="M373.38,162.43l-1.92-13.2s-4.74-4.66-5.12-4.75-.64,2.05-.64,2.05l1.15,9.42,2.69,4.71Z"/><path class="cls-1" d="M347.16,94.06c.93-1.15,12.09,16.26,13.84,16.1,18.08-1.65,11.41-48.61,42.6-31.27a19,19,0,0,0,12.78.93c18.67-4.8,23.87,18.94,23.87,18.94s3.18-18.63,3.05-19.87-29.06-20.75-31.48-21.68-22.41,0-23.56,0-28.71,14.87-29.95,15.48S347.16,94.06,347.16,94.06Z"/><path class="cls-1" d="M406,106.78l28.58-5.55L398.21,79.44,359.06,104.5l29.87,3A58.68,58.68,0,0,0,406,106.78Z"/></g></svg>