<?xml version="1.0" encoding="utf-8"?>
<!-- Generator: Adobe Illustrator 26.0.0, SVG Export Plug-In . SVG Version: 6.00 Build 0)  -->
<svg version="1.1" id="Calque_1" xmlns="http://www.w3.org/2000/svg" xmlns:xlink="http://www.w3.org/1999/xlink" x="0px" y="0px"
	 viewBox="0 0 158 161.8" style="enable-background:new 0 0 158 161.8;" xml:space="preserve">
<style type="text/css">
	.st0{fill:#E2927D;}
	.st1{fill:#F7A386;}
	.st2{fill:#A06B58;}
	.st3{fill:#9E8261;}
</style>
<g id="Calque_3">
	<path class="st0" d="M44.7,103.8l-8.4-2.4l-2.3,2.4l1,14.1c0,0,5.4,8.3,6,9.2s5.5,1.8,5.5,1.8L50,114L44.7,103.8z"/>
	<path class="st0" d="M113.1,103.8l8.4-2.4l2.3,2.4l-1,14.1c0,0-5.4,8.3-6,9.2s-5.5,1.8-5.5,1.8l-3.5-14.9L113.1,103.8z"/>
	<g>
		<path class="st1" d="M117.3,87.5c0,0.5-2.7,14.8-2.7,14.8v8l-0.1,0.9l-3.7,25.5c-0.4,2.7-1.6,5.2-3.4,7.3c0,0-12.1,11.4-16.5,14.8
			c-1.3,1-7.3,2.2-10.1,2.7c-0.2,0-0.4,0.1-0.6,0.1l-0.9,0.2h-0.1V55.2h0.1l5.6,0.4c6.2,0.4,12.2,2.7,17,6.6l4.2,3.5
			c5.3,4.4,9,10.4,10.4,17.2C117,85.4,117.3,87.4,117.3,87.5z"/>
		<path class="st1" d="M80.1,55.1v106.7H80c-1-0.2-10-1.7-11.6-3c-4.4-3.4-16.5-14.9-16.5-14.9c-1.8-2-3-4.6-3.4-7.3l-3.7-25.3
			l-0.2-1.1v-8c0,0-2.7-14.3-2.7-14.8c0-0.2,0.4-2.2,0.9-4.6c1.4-6.8,5-12.8,10.4-17.2l4.2-3.5c4.8-3.9,10.8-6.3,17-6.6L80.1,55.1
			L80.1,55.1z"/>
	</g>
	<path class="st1" d="M86.7,98.6l1.2-6.2c0,0,7.5-5.3,15-3.6c2.8,0.9,5.6,2,8.3,3.2l-0.1,3l6.1-7.5l-2.7,15.8l-4.7-3.4
		c0,0-3.7,0.7-11.1-1c-4.2-1-10,8.4-10,8.4L86.7,98.6z"/>
	<path class="st1" d="M112.6,121.6c0.3,3.8-0.8,10.1-2.8,12.7c-1.5,1.9-8.2,5.1-9.3,2.3c-2-5.2,1.1-12.8,4.7-17
		c1.1-1.3,4.2-4.3,5.7-3.7C112.4,116.4,112.5,120.1,112.6,121.6z"/>
	<path class="st1" d="M72.7,98.9l-2.4-6.5c0,0-5.8-3.9-14.9-2.9c-2.2,0.3-8.4,2.5-8.4,2.5l-0.1,3l-6.1-7.5l2.7,15.8l5.8-3.5h14.6
		l6.4,7.3L72.7,98.9z"/>
	<path class="st2" d="M112.6,123.4l1.9-13.2c0,0,4.7-4.7,5.1-4.8s0.6,2,0.6,2l-1.1,9.4l-2.7,4.7L112.6,123.4z"/>
	<path class="st2" d="M45.6,124.4l-1.9-13.2c0,0-4.7-4.7-5.1-4.8s-0.6,2-0.6,2l1.1,9.5l2.7,4.7L45.6,124.4z"/>
	<path class="st1" d="M46.6,123.4c-0.3,3.8,0.8,10.1,2.8,12.7c1.5,1.9,8.2,5.1,9.3,2.3c2-5.2-1.1-12.8-4.8-17
		c-1.1-1.3-4.2-4.3-5.7-3.7C46.8,118.2,46.7,121.9,46.6,123.4z"/>
	<path class="st3" d="M81,36.9c-16.1-0.5-48.5,7.7-55.3,39.9c-3.3,15.7-5.2,35.8,26.7,45c0,0-15.2-19.6-6.1-39.9
		c0,0-3.1-1.4-1.1-0.1s16.4-3.7,16.4-3.7s3.5-7.2,3.5-6.7c0.3,1.2,0.7,2.3,1.1,3.4l5.2-1.3c0,0,5.5-1.2,5.5-0.7s0.3-12.4,0.3-12.4"
		/>
	<path class="st3" d="M46.8,78.5c0,0-3.1-1.4-1.1-0.1s15.8-0.2,15.8-0.2"/>
	<path class="st3" d="M25.5,77c0-0.1,0-0.2,0-0.3C32.4,44.6,64.7,36.4,80.8,37c14.6,0.5,20.5,7.4,22.1,9.5c0.2,0.3,0.6,0.4,1,0.4
		c3.6-0.3,23-0.5,28.9,28.9c7.3,36.1-17.7,43.1-25.9,44.5c-0.5,0.1-1.1-0.2-1.2-0.8c-0.1-0.3,0-0.5,0.1-0.8
		c13.7-18.6,6.1-46.9,5.3-47.7s-31.8-2.9-37.1-2.9c-0.4,0-0.8-0.3-1-0.7l-0.7-1.9c-0.2-0.6-0.9-0.8-1.5-0.6
		c-0.2,0.1-0.3,0.2-0.4,0.3c-0.5,0.9-1.3,1.6-2.1,2.2c-2.1,1-7.9,0.6-10.9,0.3c-0.6,0-1-0.5-0.9-1.1c0-0.2,0.1-0.3,0.2-0.5l0,0
		c0.7-1-0.6-2.1-1.6-1.3c-5.5,4.2-9.6,9.9-11.9,16.4c-0.3,1.1-0.4,2.3-0.3,3.4c0,0.6-0.5,1.1-1.1,1c-0.3,0-0.6-0.2-0.8-0.4l-6.5-7.7
		c-0.3-0.3-0.6-0.4-1-0.4l-6.8,0.8c-0.6,0.1-1.1-0.3-1.2-0.9L25.5,77z"/>
</g>
</svg>
