<svg id="Calque_1" data-name="Calque 1" xmlns="http://www.w3.org/2000/svg" viewBox="0 0 788 1005.07"><defs><style>.cls-1{fill:#9e8261;}.cls-2{fill:#d79072;}.cls-3{fill:#f7a386;}.cls-4{fill:#e59690;}.cls-5{fill:#3d332f;}.cls-6{fill:#a06b58;}</style></defs><path class="cls-1" d="M473.8,124.11c-3.1,1.85-16.28,42.43-72.13,45.29-50.48,2.59-62.24-41.27-65-44.43a69.46,69.46,0,0,1,137.12-.86Z"/><path class="cls-2" d="M372.44,141.79l-8.36-2.43-2.34,2.43,1,14.11s5.36,8.28,6,9.25,5.51,1.79,5.51,1.79L377.8,152Z"/><path class="cls-2" d="M440.83,141.79l8.36-2.43,2.34,2.43-1,14.11s-5.35,8.28-6,9.25-5.52,1.79-5.52,1.79L435.48,152Z"/><path class="cls-3" d="M406.84,93.13V199.79h-.1c-1.05-.17-10-1.71-11.61-3-4.37-3.44-16.54-14.87-16.54-14.87a13.85,13.85,0,0,1-3.4-7.27l-3.7-25.34-.16-1.08v-8s-2.7-14.33-2.7-14.8c0-.18.38-2.16.88-4.64a29.83,29.83,0,0,1,10.37-17.21l4.25-3.47a29.78,29.78,0,0,1,17-6.64l5.63-.36h.1Z"/><path class="cls-3" d="M445,125.45c0,.47-2.7,14.8-2.7,14.8v8l-.13.89-3.72,25.53A14,14,0,0,1,435,181.9s-12.18,11.43-16.54,14.87c-1.31,1-7.26,2.22-10.14,2.75l-.57.1-.9.16h-.1V93.13h.1l5.63.36a29.75,29.75,0,0,1,17,6.64l4.26,3.47a29.78,29.78,0,0,1,10.37,17.21C444.56,123.29,445,125.27,445,125.45Z"/><polygon class="cls-4" points="417.41 143.52 422.6 137.57 435.49 139.22 436.78 131.19 438.85 132.92 444.95 125.44 442.22 141.24 437.72 140.49 426.9 145.93 417.41 143.52"/><path class="cls-4" d="M442.12,149.1l-3.72,25.53A14,14,0,0,1,435,181.9s-12.18,11.43-16.54,14.87c-1.31,1-7.26,2.22-10.14,2.75l-.57.1c-.06-.62-.08-1.33.1-1.33.33,0,5.81-.48,5.81-.48l10-20s8.7-20,9.33-20.31,5.74-3.66,5.74-3.66Z"/><path class="cls-4" d="M408.31,199.52l-.57.1-.9.16h-.1v0c-1.05-.17-10-1.71-11.61-3-4.37-3.44-16.54-14.87-16.54-14.87a13.85,13.85,0,0,1-3.4-7.27l-3.7-25.34,3.25,4.58s5.1,3.34,5.73,3.66,9.34,20.31,9.34,20.31l10,20,6.91.42h.1l1,0A3.61,3.61,0,0,1,408.31,199.52Z"/><polygon class="cls-4" points="396.17 143.61 390.99 137.66 378.09 139.31 376.8 131.28 374.74 133.01 368.63 125.54 371.36 141.33 375.86 140.58 386.69 146.02 396.17 143.61"/><path class="cls-2" d="M406.77,162.14s-5.7-2.27-5.92-2.49-1,1.24-1,1.24L396,162.14l.54,3.13,3.24,1.19,4.22-1.19,2.78,1.19Z"/><path class="cls-5" d="M402.74,164.08,400.58,162l-3,1s.43,1.46.75,1.57l2.59.86Z"/><path class="cls-2" d="M406.2,162.14s5.69-2.27,5.91-2.49,1,1.24,1,1.24l3.89,1.25-.54,3.13-3.24,1.19L409,165.27l-2.77,1.19Z"/><path class="cls-5" d="M410.05,164.08l2.16-2.05,3,1s-.43,1.46-.76,1.57l-2.59.86Z"/><path class="cls-6" d="M440.32,161.4l1.93-13.19s4.74-4.67,5.12-4.76.63,2.05.63,2.05l-1.14,9.43-2.7,4.7Z"/><path class="cls-6" d="M373.38,162.43l-1.92-13.2s-4.74-4.66-5.12-4.75-.64,2.05-.64,2.05l1.15,9.42,2.69,4.71Z"/><ellipse class="cls-1" cx="382.28" cy="99.08" rx="42.83" ry="15.6" transform="translate(-4.54 178.6) rotate(-26.15)"/></svg>