<?xml version="1.0" encoding="utf-8"?>
<!-- Generator: Adobe Illustrator 25.4.1, SVG Export Plug-In . SVG Version: 6.00 Build 0)  -->
<svg version="1.1" id="Calque_1" xmlns="http://www.w3.org/2000/svg" xmlns:xlink="http://www.w3.org/1999/xlink" x="0px" y="0px"
	 viewBox="0 0 788 1005.1" style="enable-background:new 0 0 788 1005.1;" xml:space="preserve">
<style type="text/css">
	.st0{fill:#B2805F;}
	.st1{fill:#C4A070;}
	.st2{fill:#D79072;}
	.st3{fill:#F7A386;}
	.st4{fill:#E7A09B;}
	.st5{fill:#BC6860;}
	.st6{fill:#3D332F;}
	.st7{fill:#A16559;}
</style>
<g id="Calque_3">
	<path class="st0" d="M445.9,160.4c-1,7-2,13.4-2.4,17.8c-0.1,0.9-0.2,1.8-0.4,2.7c-2.1,8.2-10.3,15.3-15.6,18.7v-10.2
		c-2.8,2.7-5.8,5.2-9,7.5c-0.3,0.2-0.6,0.4-0.9,0.5l0,0c-3.1,1.5-8.4,2.2-10.1,2.4h-0.2H407h-0.2c-3,0-9.5-1.6-11.4-2.9l-0.2-0.1
		c-1.6-1.3-4.4-3.8-7.2-6.3v21.1l-3.6,7.1l-1.4,2.8c0,0-19.1-26.3-19.4-28.3c0,0-9.1-38-7.8-40.8s16.5-46.5,21.5-52.6
		s11.2-11.6,19.1-14.5c7.1-2.6,26.2,5.1,34.8,9.3c0.9,0.5,1.8,0.9,2.4,1.2c6.8,3.7,11.3,17.6,14.6,27.7
		C450.2,130.4,447.9,146.5,445.9,160.4z"/>
	<path class="st1" d="M442.2,148.2c0,0,12.1,37.6,9.3,47.7s-16,23.1-16,23.1c-1-5.2-0.3-10.5,2.1-15.2c3.9-7.9,8.2-11.3,6.6-19.2
		s-7.3-14.6-11.2-27.1S442.2,148.2,442.2,148.2z"/>
	<path class="st2" d="M427.4,169.5v19.8c-2.8,2.7-5.8,5.2-9,7.5c-0.3,0.2-0.6,0.4-0.9,0.5l0,0c-3.1,1.5-8.4,2.2-10.1,2.4h-0.2H407
		h-0.2c-3,0-9.5-1.6-11.4-2.9l-0.2-0.1c-1.6-1.3-4.4-3.8-7.2-6.3v-21L427.4,169.5z"/>
	<path class="st3" d="M372.4,141.8l-8.4-2.4l-2.3,2.4l1,14.1c0,0,5.4,8.3,6,9.2s5.5,1.8,5.5,1.8l3.5-14.9L372.4,141.8z"/>
	<path class="st3" d="M440.8,141.8l8.4-2.4l2.3,2.4l-1,14.1c0,0-5.4,8.3-6,9.2s-5.5,1.8-5.5,1.8l-3.5-14.9L440.8,141.8z"/>
	<polygon class="st3" points="406.8,199.8 406.8,199.8 406.8,199.8 	"/>
	<polygon class="st3" points="406.9,93.1 406.8,93.1 406.8,93.1 406.6,93.1 406.8,93.1 	"/>
	<path class="st3" d="M444.7,125.5c0,0.5-2.7,14.8-2.7,14.8v8l-0.1,0.9l-3.3,22.5l-0.4,3c-0.4,2.7-1.6,5.2-3.4,7.3
		c-0.2,0.2-1.1,1.1-2.5,2.3c-1.4,1.3-3.2,2.9-5.1,4.7c-3.3,3.1-7,6.3-9,7.9c-0.3,0.2-0.6,0.4-0.9,0.5c-3,1-6.1,1.7-9.2,2.2H408
		l-0.5,0.1l-0.7,0.1l-0.1,0h0c-0.1,0-0.1,0-0.2,0c-1.7-0.3-9.3-1.6-11.2-2.8l-0.2-0.1c-1.6-1.3-4.4-3.8-7.2-6.3
		c-4.6-4.2-9.3-8.6-9.3-8.6c-1.8-2-3-4.6-3.4-7.3l-3.7-25.3l-0.2-1.1v-8c0,0-2.7-14.3-2.7-14.8c0-0.2,0.4-2.1,0.9-4.6
		c1.4-6.8,5-12.8,10.4-17.2l4.2-3.5c4.8-3.9,10.8-6.3,17-6.7l5.4-0.3l0.1,0l0.2,0l5.4,0.3c4.9,0.3,9.6,1.8,13.8,4.4
		c1.1,0.7,2.1,1.4,3.1,2.2l4.2,3.5c5.4,4.4,9,10.4,10.4,17.2C444.3,123.3,444.7,125.3,444.7,125.5z"/>
	<polygon class="st3" points="406.6,93.1 406.5,93.1 406.5,93.1 	"/>
	<path class="st3" d="M406.8,199.8l-0.1,0h-0.1v-0.1C406.6,199.8,406.7,199.8,406.8,199.8z"/>
	<polygon class="st4" points="417.4,143.5 422.6,137.6 435.5,139.2 436.8,131.2 438.9,132.9 445,125.4 442.2,141.2 437.7,140.5 
		426.9,145.9 	"/>
	<path class="st4" d="M442.1,149.1l-3.3,22.5l-0.4,3c-0.4,2.7-1.6,5.2-3.4,7.3l0,0c-0.4,0.4-3.8,3.8-7.5,7.3c-2.8,2.7-5.8,5.2-9,7.5
		c-0.3,0.2-0.6,0.3-0.9,0.5l0,0c-3.1,1.5-8.4,2.2-10.1,2.4h-0.2H407h-0.1v-0.1c0.1-0.6,0.5-1.1,1-1.4l1.5-0.1c2.6-0.2,5-1.8,6.2-4.2
		l8.1-16.2c0,0,1.7-3.9,3.7-8.3c2.5-5.5,5.3-11.8,5.7-12c0.6-0.3,5.7-3.7,5.7-3.7L442.1,149.1z"/>
	<path class="st4" d="M408.3,199.5h-0.1l-0.8,0.2h-0.2H407h-0.2c-3,0-9.5-1.6-11.4-2.9l-0.2-0.1c-1.6-1.3-4.4-3.8-7.2-6.3
		c-4.6-4.2-9.3-8.6-9.3-8.6c-1.8-2-3-4.6-3.4-7.3l-3.7-25.3l3.2,4.6c0,0,5.1,3.3,5.7,3.7c0.4,0.2,4.8,10,7.4,15.9l1.9,4.4l8,16.1
		c1.2,2.4,3.6,4,6.3,4.2l2.5,0.1h0.1h1C408.1,198.6,408.3,199,408.3,199.5z"/>
	<path class="st5" d="M406.5,162c0,0-5.4-2.2-5.6-2.4s-1,1.2-1,1.2l-3.9,1.3l0.5,3.1l3.2,1.2l4.2-1.2l2.5,1.1L406.5,162z"/>
	<path class="st6" d="M402.7,164.1l-2.2-2.1l-3,1c0,0,0.4,1.5,0.8,1.6l2.6,0.9L402.7,164.1z"/>
	<path class="st5" d="M406.5,162c0,0,5.4-2.2,5.6-2.4s1,1.2,1,1.2l3.9,1.2l-0.5,3.1l-3.2,1.2l-4.2-1.2l-2.5,1.1L406.5,162z"/>
	<path class="st6" d="M410,164.1l2.2-2.1l3,1c0,0-0.4,1.5-0.8,1.6l-2.6,0.9L410,164.1z"/>
	<path class="st7" d="M440.3,161.4l1.9-13.2c0,0,4.7-4.7,5.1-4.8s0.6,2.1,0.6,2.1l-1.1,9.4l-2.7,4.7L440.3,161.4z"/>
	<path class="st7" d="M373.4,162.4l-1.9-13.2c0,0-4.7-4.7-5.1-4.8s-0.6,2.1-0.6,2.1l1.1,9.4l2.7,4.7L373.4,162.4z"/>
	<path class="st1" d="M425.9,98.1c3.3-1.2,13-10.2,13-10.2s-5.5-10.8-8.8-13c-7.6-4.9-27.2-4.7-36.1-2.8
		c-6.1,1.3-16.9,8.8-21.3,13.4c-3.5,3.6-10,17.2-10,17.2l-4,13.7c0,0-8.6,13.5-10.4,18.4c-2,5.2-5.5,16.5-4.4,22
		c0.8,4.1,10.1,32.7,8.4,36.6c-15.9,37.1,20.5,32.1,19.3,33.2s-6.3,14,22.2,8.2c0,0-42.8-68.1-30.9-78.7c8.6-7.7,9.7-14.1,14.4-33.7
		c0.3-1.1,4.8-10.2,10.5-18.9c7.8-12,21.5-7.2,22.4-6.9C421.2,100.9,425.9,98.1,425.9,98.1z"/>
	<path class="st1" d="M438.9,87.9l-13,10.2l10.6,12.9c0,0,5.9,6.5,6.8,9.2c1.7,5-1,21.2-1,21.2l6.9-2c0.7-1.9,1.1-5.8,1.3-7.8
		c0.6-4.2,0-17,0-17s-2.5-13-4.4-17C444.8,94.9,438.9,87.9,438.9,87.9z"/>
	<path class="st1" d="M433.4,95.9c0,0-8.8,2.6-14.4,2.9c-4.7,0.2-26.2-5.8-31.4-5.7c0,0,38.6-21.3,47.9-11.3S433.4,95.9,433.4,95.9z
		"/>
	<path class="st0" d="M373.4,136.1c1.2,0,4.4-36.9,14.2-43c16.3-10,47.8,4,38.2,5c-6.9,0.7-31.6-1.9-34.1,0.6
		C384.4,106,373.4,136.1,373.4,136.1z"/>
</g>
</svg>
