<?xml version="1.0" encoding="utf-8"?>
<!-- Generator: Adobe Illustrator 26.0.1, SVG Export Plug-In . SVG Version: 6.00 Build 0)  -->
<svg version="1.1" id="Calque_1" xmlns="http://www.w3.org/2000/svg" xmlns:xlink="http://www.w3.org/1999/xlink" x="0px" y="0px"
	 viewBox="0 0 254.3 218.9" style="enable-background:new 0 0 254.3 218.9;" xml:space="preserve">
<style type="text/css">
	.st0{fill:#3D332F;}
	.st1{fill:#F7A386;}
	.st2{fill:#BC6860;}
	.st3{fill:#A16559;}
</style>
<g id="Calque_3">
	<path class="st0" d="M90.9,148l2.2-6.2l3.6-27.9l28,1.9l32.4-0.7l6.1,17.7l-1.5,16.2c0,0,19.9-37.2,21.5-40.3s32.2-55.1-5.9-62.5
		C130,37.1,70.4,66.9,66.4,86.4S89.8,146.4,90.9,148z"/>
	<path class="st1" d="M93.1,141.8l-8.4-2.4l-2.3,2.4l1,14.1c0,0,5.4,8.3,6,9.2s5.5,1.8,5.5,1.8l3.5-14.9L93.1,141.8z"/>
	<path class="st1" d="M161.5,141.8l8.4-2.4l2.3,2.4l-1,14.1c0,0-5.4,8.3-6,9.2s-5.5,1.8-5.5,1.8l-3.5-14.9L161.5,141.8z"/>
	<path class="st1" d="M165.7,125.5c0,0.5-2.7,14.8-2.7,14.8v8l-0.1,0.9l-3.7,25.5c-0.4,2.7-1.6,5.2-3.5,7.2c0,0-12.2,11.4-16.5,14.9
		c-1.3,1-7.3,2.2-10.1,2.8l-0.6,0.1l-0.9,0.2l0,0l0,0h-0.1c-1-0.2-10-1.7-11.6-3c-4.4-3.4-16.5-14.9-16.5-14.9c-1.8-2-3-4.6-3.4-7.3
		l-3.7-25.3l-0.2-1.1v-8c0,0-2.7-14.3-2.7-14.8c0-0.2,0.4-2.2,0.9-4.6c1.4-6.8,5-12.8,10.4-17.2l4.2-3.5c4.8-3.9,10.8-6.3,17-6.6
		l5.6-0.4h0.1l0,0l5.6,0.4c6.2,0.4,12.2,2.7,17,6.6l4.3,3.5c5.4,4.4,9,10.5,10.4,17.2C165.3,123.3,165.7,125.3,165.7,125.5z"/>
	<path class="st2" d="M127.2,162c0,0-5.4-2.2-5.6-2.4s-1,1.2-1,1.2l-3.9,1.3l0.5,3.1l3.2,1.2l4.2-1.2l2.7,1.2L127.2,162z"/>
	<path class="st0" d="M123.4,164.1l-2.2-2.1l-3,1c0,0,0.4,1.5,0.8,1.6l2.6,0.9L123.4,164.1z"/>
	<path class="st2" d="M127.2,162.1c0,0,5.4-2.2,5.6-2.4s1,1.2,1,1.2l3.9,1.2l-0.5,3.1l-3.2,1.2l-4.2-1.2l-2.6,1.1V162.1z"/>
	<path class="st0" d="M130.7,164.1l2.2-2.1l3,1c0,0-0.4,1.5-0.8,1.6l-2.6,0.9L130.7,164.1z"/>
	<path class="st3" d="M161,161.4l1.9-13.2c0,0,4.7-4.7,5.1-4.8s0.6,2.1,0.6,2.1l-1.1,9.4l-2.7,4.7L161,161.4z"/>
	<path class="st3" d="M94.1,162.4l-1.9-13.2c0,0-4.7-4.7-5.1-4.8s-0.6,2.1-0.6,2.1l1.1,9.4l2.7,4.7L94.1,162.4z"/>
	<path class="st0" d="M67.9,94.1c0.9-1.2,12.1,16.3,13.8,16.1c18.1-1.7,11.4-48.6,42.6-31.3c4,1.8,8.5,2.1,12.8,0.9
		C155.8,75,161,98.7,161,98.7s3.2-18.6,3-19.9S134.9,58,132.5,57.1s-22.4,0-23.6,0S80.2,72,78.9,72.6S67.9,94.1,67.9,94.1z"/>
	<path class="st0" d="M126.7,106.8l28.6-5.6l-36.4-21.8l-39.1,25.1l29.9,3C115.3,108.1,121.1,107.9,126.7,106.8z"/>
</g>
</svg>
