<svg xmlns="http://www.w3.org/2000/svg" viewBox="0 0 788 1005.07"><defs><style>.cls-1{fill:#b2805f;}.cls-2{fill:#c4a070;}.cls-3{fill:#d79072;}.cls-4{fill:#f7a386;}.cls-5{fill:#e7a09b;}.cls-6{fill:#bc6860;}.cls-7{fill:#3d332f;}.cls-8{fill:#a16559;}</style></defs><g id="Calque_3" data-name="Calque 3"><path class="cls-1" d="M445.87,160.38c-1,7-2,13.44-2.36,17.81a15.88,15.88,0,0,1-.44,2.66c-2.07,8.22-10.32,15.26-15.65,18.67V189.27a74.21,74.21,0,0,1-9,7.5,3.91,3.91,0,0,1-.93.49h0c-3.15,1.47-8.36,2.23-10.09,2.45l-.22,0-.23,0h-.23c-3,0-9.55-1.63-11.44-2.9l-.17-.12c-1.65-1.3-4.43-3.75-7.23-6.28v21.15l-3.64,7.07-1.44,2.79s-19.06-26.3-19.42-28.31c0,0-9.07-38-7.83-40.76s16.5-46.5,21.55-52.64,11.21-11.57,19.06-14.46c7.07-2.61,26.16,5.07,34.81,9.35.94.46,1.76.88,2.43,1.25,6.78,3.72,11.3,17.59,14.59,27.71C450.2,130.37,447.93,146.49,445.87,160.38Z"/><path class="cls-2" d="M442.25,148.21s12.13,37.59,9.28,47.71-16,23.13-16,23.13a24,24,0,0,1,2.06-15.23c3.92-7.9,8.25-11.31,6.62-19.18s-7.27-14.57-11.16-27.11S442.25,148.21,442.25,148.21Z"/><path class="cls-3" d="M427.42,169.5v19.77a74.21,74.21,0,0,1-9,7.5,3.91,3.91,0,0,1-.93.49h0c-3.15,1.47-8.36,2.23-10.09,2.45l-.22,0-.23,0h-.23c-3,0-9.55-1.63-11.44-2.9l-.17-.12c-1.65-1.3-4.43-3.75-7.23-6.28v-21Z"/><path class="cls-4" d="M372.44,141.79l-8.36-2.43-2.34,2.43,1,14.11s5.36,8.28,6,9.25,5.51,1.79,5.51,1.79L377.8,152Z"/><path class="cls-4" d="M440.83,141.79l8.36-2.43,2.34,2.43-1,14.11s-5.35,8.28-6,9.25-5.52,1.79-5.52,1.79L435.48,152Z"/><path class="cls-4" d="M406.85,93.13V199.79h0l-.07,0c-1-.16-9.41-1.61-11.44-2.88l-.17-.12c-1.65-1.3-4.43-3.75-7.23-6.28-4.6-4.17-9.3-8.58-9.3-8.58a13.86,13.86,0,0,1-3.41-7.28l-3.69-25.34-.16-1.08v-8s-2.71-14.32-2.71-14.8c0-.17.39-2.15.88-4.63a29.83,29.83,0,0,1,10.37-17.21l4.25-3.47a29.82,29.82,0,0,1,17-6.65l5.63-.35h.11Z"/><path class="cls-4" d="M444.74,125.45c0,.48-2.71,14.8-2.71,14.8v8l-.13.9-3.28,22.54-.44,3a13.94,13.94,0,0,1-3.41,7.28l0,0c-.36.34-3.78,3.53-7.54,7-3.35,3.05-7,6.29-9,7.86a3.91,3.91,0,0,1-.93.49h0a60,60,0,0,1-9.2,2.25l-.11,0-.46.08-.89.16h-.11V93.13h.11l5.63.35a29.75,29.75,0,0,1,13.82,4.41,28.59,28.59,0,0,1,3.15,2.24l4.25,3.47a29.79,29.79,0,0,1,10.38,17.21C444.35,123.3,444.74,125.28,444.74,125.45Z"/><polygon class="cls-5" points="417.41 143.52 422.6 137.57 435.49 139.22 436.78 131.19 438.85 132.92 444.95 125.44 442.22 141.24 437.72 140.49 426.9 145.93 417.41 143.52"/><path class="cls-5" d="M442.12,149.11l-3.28,22.54-.44,3a13.94,13.94,0,0,1-3.41,7.28l0,0c-.38.38-3.77,3.8-7.54,7.33a74.21,74.21,0,0,1-9,7.5,8.07,8.07,0,0,1-.93.49h0c-3.15,1.47-8.36,2.23-10.09,2.45l-.22,0-.23,0h-.12v-.06a2.13,2.13,0,0,1,1-1.44l1.55-.11a7.59,7.59,0,0,0,6.16-4.16l8.12-16.18s1.72-3.93,3.67-8.34c2.46-5.52,5.31-11.79,5.67-12,.64-.32,5.73-3.66,5.73-3.66Z"/><path class="cls-5" d="M408.31,199.52l-.11,0-.78.18-.22,0-.23,0h-.23c-3,0-9.55-1.63-11.44-2.9l-.17-.12c-1.65-1.3-4.43-3.75-7.23-6.28-4.6-4.17-9.3-8.58-9.3-8.58a13.86,13.86,0,0,1-3.41-7.28l-3.69-25.34,3.24,4.58s5.1,3.34,5.74,3.66c.44.22,4.82,10,7.42,15.93l1.92,4.38,8.05,16.07a7.6,7.6,0,0,0,6.33,4.17l2.54.15h.11l1,0A3.49,3.49,0,0,1,408.31,199.52Z"/><path class="cls-6" d="M406.5,162s-5.43-2.16-5.65-2.38-1,1.24-1,1.24L396,162.14l.54,3.13,3.24,1.19,4.22-1.19,2.49,1.07Z"/><path class="cls-7" d="M402.74,164.08,400.58,162l-3,1s.43,1.46.75,1.57l2.59.86Z"/><path class="cls-6" d="M406.5,162s5.39-2.16,5.61-2.38,1,1.24,1,1.24l3.89,1.25-.54,3.13-3.24,1.19L409,165.27l-2.49,1.07Z"/><path class="cls-7" d="M410.05,164.08l2.16-2.05,3,1s-.43,1.46-.76,1.57l-2.59.86Z"/><path class="cls-8" d="M440.32,161.4l1.93-13.19s4.74-4.67,5.12-4.76.63,2.05.63,2.05l-1.14,9.43-2.7,4.7Z"/><path class="cls-8" d="M373.38,162.43l-1.92-13.2s-4.74-4.66-5.12-4.75-.64,2.05-.64,2.05l1.15,9.42,2.69,4.71Z"/><path class="cls-2" d="M425.85,98.09c3.29-1.19,13-10.22,13-10.22s-5.54-10.84-8.83-13c-7.63-4.92-27.24-4.65-36.12-2.83-6.13,1.26-16.89,8.84-21.26,13.36-3.45,3.57-10,17.15-10,17.15l-4,13.69S350,129.7,348.2,134.66c-2,5.24-5.5,16.47-4.42,22,.81,4.1,10.06,32.7,8.41,36.57-15.9,37.1,20.49,32.1,19.29,33.21s-6.27,14,22.19,8.19c0,0-42.78-68.07-30.93-78.69,8.59-7.69,9.7-14.11,14.37-33.71.28-1.14,4.84-10.25,10.51-18.94,7.82-12,21.47-7.24,22.38-6.87C421.22,100.87,425.85,98.09,425.85,98.09Z"/><path class="cls-2" d="M438.89,87.87l-13,10.22L436.48,111s5.93,6.51,6.82,9.21c1.68,5-1.05,21.21-1.05,21.21l6.94-2c.74-1.88,1.08-5.8,1.34-7.75.57-4.21,0-17,0-17s-2.51-13-4.42-17C444.81,94.88,438.89,87.87,438.89,87.87Z"/><path class="cls-2" d="M433.41,95.92S424.65,98.53,419,98.8c-4.66.22-26.17-5.83-31.36-5.67,0,0,38.63-21.35,47.86-11.32S433.41,95.92,433.41,95.92Z"/><path class="cls-1" d="M373.38,136.08c1.21,0,4.37-36.92,14.24-43,16.3-10,47.81,4,38.23,5-6.87.71-31.58-1.87-34.07.6C384.35,106,373.38,136.08,373.38,136.08Z"/></g></svg>