<?xml version="1.0" encoding="utf-8"?>
<!-- Generator: Adobe Illustrator 25.4.1, SVG Export Plug-In . SVG Version: 6.00 Build 0)  -->
<svg version="1.1" id="Calque_1" xmlns="http://www.w3.org/2000/svg" xmlns:xlink="http://www.w3.org/1999/xlink" x="0px" y="0px"
	 viewBox="0 0 788 1005.1" style="enable-background:new 0 0 788 1005.1;" xml:space="preserve">
<style type="text/css">
	.st0{fill:#3D332F;}
	.st1{fill:#E2927D;}
	.st2{fill:#F7A386;}
	.st3{fill:#E59690;}
	.st4{fill:#D79072;}
	.st5{fill:#A06B58;}
</style>
<g id="Calque_3">
	<path class="st0" d="M370.2,148l2.2-6.2l3.6-27.9l28,1.9l32.4-0.7l4.4,26.7l0.2,7.2c0,0,19.9-37.2,21.5-40.3s9.2-17.9-28.9-25.2
		c-47.3-9.1-83.8-16.6-87.8,2.9S369.1,146.4,370.2,148z"/>
	<path class="st1" d="M372.4,141.8l-8.4-2.4l-2.3,2.4l1,14.1c0,0,5.4,8.3,6,9.2s5.5,1.8,5.5,1.8l3.5-14.9L372.4,141.8z"/>
	<path class="st1" d="M440.8,141.8l8.4-2.4l2.3,2.4l-1,14.1c0,0-5.4,8.3-6,9.2s-5.5,1.8-5.5,1.8l-3.5-14.9L440.8,141.8z"/>
	<polygon class="st2" points="406.7,93.2 406.7,93.2 406.5,93.2 406.7,93.2 	"/>
	<path class="st2" d="M406.5,199.8l0.3,0v0.1h-0.1C406.6,199.9,406.5,199.9,406.5,199.8z"/>
	<path class="st2" d="M445.1,125.5c0,0.5-2.8,14.8-2.8,14.8v8l-0.1,0.9l-3.8,25.5c-0.4,2.7-1.6,5.2-3.4,7.2c0,0-12.4,11.4-16.8,14.9
		c-1.3,1-7.4,2.2-10.3,2.8l-0.6,0.1l-0.5,0.1l-0.3,0c-0.1,0-0.1,0-0.2,0c-2.1-0.4-9.7-1.7-11.2-2.9c-4.4-3.4-16.5-14.9-16.5-14.9
		c-1.8-2-3-4.6-3.4-7.3l-3.7-25.3l-0.2-1.1v-8c0,0-2.7-14.3-2.7-14.8c0-0.2,0.4-2.2,0.9-4.6c1.4-6.8,5-12.9,10.4-17.2l4.2-3.5
		c4.8-3.9,10.8-6.3,17-6.6l5.2-0.3l0.3,0l0.2,0l5.4,0.3c6.3,0.4,12.3,2.7,17.3,6.6l4.3,3.5c5.4,4.3,9.2,10.4,10.6,17.2
		C444.7,123.4,445.1,125.4,445.1,125.5z"/>
	<path class="st2" d="M406.2,199.8c0.1,0,0.1,0,0.2,0L406.2,199.8L406.2,199.8L406.2,199.8z"/>
	<polygon class="st2" points="406.5,93.2 406.2,93.2 406.2,93.2 406.3,93.2 	"/>
	<path class="st3" d="M414.5,136.6l1.1-6.2c0,0,7.5-5.3,15-3.6c2.8,0.9,5.6,2,8.3,3.2l-0.1,2.9l6.1-7.5l-2.7,15.8l-4.7-3.4
		c0,0-0.7,1.8-8.1,0c-4.2-1-13,7.4-13,7.4L414.5,136.6z"/>
	<path class="st3" d="M442.1,149.1l-3.7,25.5c-0.4,2.7-1.6,5.2-3.4,7.3c0,0-12.2,11.4-16.5,14.9c-1.3,1-7.3,2.2-10.1,2.8l-0.6,0.1
		c-0.1-0.6-0.1-1.3,0.1-1.3c0.3,0,5.8-0.5,5.8-0.5l10-20c0,0,8.7-20,9.3-20.3s5.7-3.7,5.7-3.7L442.1,149.1z"/>
	<path class="st3" d="M408.3,199.5l-0.6,0.1l-0.9,0.2h-0.1l0,0c-1-0.2-10-1.7-11.6-3c-4.4-3.4-16.5-14.9-16.5-14.9
		c-1.8-2-3-4.6-3.4-7.3l-3.7-25.3l3.2,4.6c0,0,5.1,3.3,5.7,3.7s9.3,20.3,9.3,20.3l10,20l6.9,0.4h0.1h1
		C408.1,198.7,408.2,199.1,408.3,199.5z"/>
	<path class="st3" d="M400.4,136.9l-2.4-6.5c0,0-5.8-3.9-14.9-2.9c-2.2,0.2-8.4,2.5-8.4,2.5l-0.1,2.9l-6.1-7.5l2.7,15.8l5.8-3.5
		h14.6l6.5,7.3L400.4,136.9z"/>
	<path class="st4" d="M406.8,162.1c0,0-5.7-2.3-5.9-2.5s-1,1.2-1,1.2l-3.8,1.2l0.5,3.1l3.2,1.2l4.2-1.2l2.8,1.2L406.8,162.1z"/>
	<path class="st0" d="M402.7,164.1l-2.2-2.1l-3,1c0,0,0.4,1.5,0.8,1.6l2.6,0.9L402.7,164.1z"/>
	<path class="st4" d="M406.2,162.1c0,0,5.7-2.3,5.9-2.5s1,1.2,1,1.2l3.9,1.2l-0.5,3.1l-3.2,1.2l-4.2-1.2l-2.8,1.2L406.2,162.1z"/>
	<path class="st0" d="M410,164.1l2.2-2.1l3,1c0,0-0.4,1.5-0.8,1.6l-2.6,0.9L410,164.1z"/>
	<path class="st5" d="M440.3,161.4l1.9-13.2c0,0,4.7-4.7,5.1-4.8s0.6,2.1,0.6,2.1l-1.1,9.4l-2.7,4.7L440.3,161.4z"/>
	<path class="st5" d="M373.4,162.4l-1.9-13.2c0,0-4.7-4.7-5.1-4.8s-0.6,2.1-0.6,2.1l1.1,9.4l2.7,4.7L373.4,162.4z"/>
	<path class="st0" d="M406.8,97.5l43,14.1L399,76.7l-39.2,25.1l10.5,3.9C376,106.2,401.1,98.6,406.8,97.5z"/>
	<ellipse class="st0" cx="407.5" cy="69.9" rx="25.5" ry="18.2"/>
</g>
</svg>
