<svg id="Calque_1" data-name="Calque 1" xmlns="http://www.w3.org/2000/svg" viewBox="0 0 788 1005.07"><defs><style>.cls-1{fill:#f7a386;}.cls-2{fill:#69482e;}.cls-3{fill:#d18774;}.cls-4{fill:#e59690;}.cls-5{fill:#d79072;}.cls-6{fill:#b07671;}.cls-7{fill:#895d3e;}</style></defs><path class="cls-1" d="M391.49,81.85l18.79-3.2s8.7.86,9.08,1.6,2.61,13.54,1.82,15.12-9.09,4.39-9.09,4.39-.73-1.74-2-1.74-7.34-1.51-8.21-2.16S391.49,81.85,391.49,81.85Z"/><path class="cls-2" d="M453.6,230.24s-19-6.72-26.18-9.15V188.91c-3.35,3.05-7,6.29-9,7.86-1.28,1-7,2.17-9.95,2.71l-.19,0-.57.1-.89.16h-.11v0c-1-.17-10-1.7-11.61-3-1.26-1-3.17-2.65-5.25-4.5A62.13,62.13,0,0,1,393.79,212c-2.22-.68-4.23-1.35-5.89-2-2.48-.92-4.2-1.76-4.71-2.43-2.68-3.49-12.81-17.19-13.84-19.68s-13.13-35.95-13.13-36.59,9.22-38.14,10.27-39.11,23-18.09,24.42-19.06l6.94.75,8.89,1h.11l.95.11L418,96l26.1,24.78,5.31,5s9.25,28.34,8.92,31.29-6.58,14.17-8.92,15.29S453.6,230.24,453.6,230.24Z"/><path class="cls-3" d="M427.42,169.5v19.41c-3.35,3.05-7,6.29-9,7.86-1.28,1-7,2.17-9.95,2.71l-.19,0-.57.1-.89.16h-.11v0c-1-.17-10-1.7-11.61-3-1.26-1-3.17-2.65-5.25-4.5A62.13,62.13,0,0,1,393.79,212a35.05,35.05,0,0,1-3.2,16.18H387.9V169.5Z"/><path class="cls-1" d="M372.44,141.79l-8.36-2.43-2.34,2.43,1,14.11s5.36,8.28,6,9.25,5.51,1.79,5.51,1.79L377.8,152Z"/><path class="cls-1" d="M440.83,141.79l8.36-2.43,2.34,2.43-1,14.11s-5.35,8.28-6,9.25-5.52,1.79-5.52,1.79L435.48,152Z"/><path class="cls-1" d="M406.85,93.13V199.79h0l-.07,0c-1-.17-10-1.7-11.61-3-1.26-1-3.17-2.65-5.25-4.5l-2-1.78c-4.6-4.17-9.3-8.58-9.3-8.58a13.86,13.86,0,0,1-3.41-7.28l-3.69-25.34-.16-1.08v-8s-2.71-14.32-2.71-14.8c0-.17.39-2.15.88-4.63a29.83,29.83,0,0,1,10.37-17.21l4.25-3.47a30,30,0,0,1,17-6.65l5.63-.35h.11Z"/><path class="cls-1" d="M445,125.45c0,.48-2.71,14.8-2.71,14.8v8l-.13.9-3.72,25.52a13.94,13.94,0,0,1-3.41,7.28s-3.59,3.37-7.57,7c-3.35,3.05-7,6.29-9,7.86-1.28,1-7,2.17-9.95,2.71l-.19,0-.57.1-.89.16h-.11V93.13h.11l2.22.14,3.41.21a29.76,29.76,0,0,1,17,6.65l4.25,3.47a29.79,29.79,0,0,1,10.38,17.21C444.57,123.3,445,125.28,445,125.45Z"/><polygon class="cls-4" points="417.41 143.52 422.6 137.57 435.49 139.22 436.78 131.19 438.85 132.92 444.95 125.44 442.22 141.24 437.72 140.49 426.9 145.93 417.41 143.52"/><path class="cls-4" d="M408.31,199.52l-.57.1C407.68,199,408.13,199.52,408.31,199.52Z"/><path class="cls-4" d="M442.12,149.11l-3.72,25.52a13.94,13.94,0,0,1-3.41,7.28s-3.59,3.37-7.57,7c-3.35,3.05-7,6.29-9,7.86-1.28,1-7,2.17-9.95,2.71.87-.26,4.23-1.68,5.18-2.64,3.79-3.81,10-19,10-19s1.37-3.88,3.2-8.34c1.88-4.61,4.27-9.82,6.14-12,1.11-1.28,4.44-2.54,5.73-3.66A31.74,31.74,0,0,0,442.12,149.11Z"/><path class="cls-1" d="M408.31,199.52l-.57.1-.89.16h-.11v0c-1-.17-10-1.7-11.61-3-1.26-1-3.17-2.65-5.25-4.5l-2-1.78c-4.6-4.17-9.3-8.58-9.3-8.58a13.86,13.86,0,0,1-3.41-7.28l-3.69-25.34,1.06,1.49,2.18,3.09s5.1,3.34,5.74,3.66c.44.22,4.82,10,7.42,15.93l1.92,4.38,10,20,6.91.42h.11l1,0A3.49,3.49,0,0,1,408.31,199.52Z"/><polygon class="cls-1" points="396.17 143.61 390.99 137.66 378.09 139.31 376.8 131.28 374.74 133.01 368.63 125.54 371.36 141.33 375.86 140.58 386.69 146.02 396.17 143.61"/><path class="cls-5" d="M417.23,162.14l-.54,3.13-3.24,1.19-4.21-1.19-1.44.61a2.71,2.71,0,0,1-2.11,0l-1.44-.62L400,166.46l-3.24-1.19-.54-3.13,3.89-1.24s.75-1.46,1-1.24,5.62,1.37,5.62,1.37,5.42-1.16,5.63-1.37,1,1.24,1,1.24Z"/><path class="cls-1" d="M401.51,162.85h0a2.12,2.12,0,0,0-2.1-.42l-1,.34a2.12,2.12,0,0,1-1.62-.1,9.89,9.89,0,0,1-1.26-.64,13.84,13.84,0,0,1,.83,3.27A2.13,2.13,0,0,0,399,167l5.78,0C406.41,166.49,402.79,164,401.51,162.85Z"/><path class="cls-1" d="M411.22,163h0a2.27,2.27,0,0,1,2.29-.5l1,.32a2.29,2.29,0,0,0,1.53,0c.88-.33,2.17-.82,2-.75a16,16,0,0,0-1,3.6,2.27,2.27,0,0,1-2.83,1.73l-5.22.09C407.24,167,409.94,164.19,411.22,163Z"/><path class="cls-6" d="M440.32,161.4l1.93-13.19s4.74-4.67,5.12-4.76.63,2.05.63,2.05l-1.14,9.43-2.7,4.7Z"/><path class="cls-6" d="M373.38,162.43l-1.92-13.2s-4.74-4.66-5.12-4.75-.64,2.05-.64,2.05l1.15,9.42,2.69,4.71Z"/><path class="cls-7" d="M412.65,79.48c2.59,13.66-9,18.84-.56,20.28,15.65,2.66,23.27,7.44,27.23,14,7.5,12.37,15.73,37.48,6.93,57.43-6.11,13.84-8.33,46.78,12,57,0,0-10.67-11.51,4-40.23s4.14-72.41-16.94-93.69C419.2,67.93,412.65,79.48,412.65,79.48Z"/><path class="cls-7" d="M409.07,93.28A16.35,16.35,0,0,1,407.8,95a11.22,11.22,0,0,1-.95,1,.38.38,0,0,1-.11.11,18.1,18.1,0,0,1-8.15,4.45c-15.35,4.06-20.83,12.77-23.12,20.07a80,80,0,0,0-2.91,30.2c.92,9.6,3.8,19.35,9.86,27.23a48.73,48.73,0,0,1,5.48,9.42c.7,1.53,1.37,3.15,2,4.84A62.13,62.13,0,0,1,393.79,212a35.05,35.05,0,0,1-3.2,16.18,25,25,0,0,1-6.23,8s7.62-13.72-13.47-38.12-23.23-70.64-5.84-95c30.95-43.41,47.6-23.57,47.6-23.57C412.65,80,413.12,87.25,409.07,93.28Z"/></svg>