<?xml version="1.0" encoding="utf-8"?>
<!-- Generator: Adobe Illustrator 26.0.0, SVG Export Plug-In . SVG Version: 6.00 Build 0)  -->
<svg version="1.1" id="Calque_1" xmlns="http://www.w3.org/2000/svg" xmlns:xlink="http://www.w3.org/1999/xlink" x="0px" y="0px"
	 viewBox="0 0 158 161.8" style="enable-background:new 0 0 158 161.8;" xml:space="preserve">
<style type="text/css">
	.st0{fill:#F7A386;}
	.st1{fill:#A16559;}
	.st2{fill:#422915;}
</style>
<g id="Calque_3">
	<path class="st0" d="M44.9,103.8l-8.4-2.4l-2.3,2.4l1,14.1c0,0,5.4,8.3,6,9.2s5.5,1.8,5.5,1.8l3.5-14.9L44.9,103.8z"/>
	<path class="st0" d="M113.3,103.8l8.4-2.4l2.3,2.4l-1,14.1c0,0-5.4,8.3-6,9.2s-5.5,1.8-5.5,1.8L108,114L113.3,103.8z"/>
	<path class="st0" d="M116.6,82.8c-1.4-6.8-5-12.8-10.4-17.2l-4.3-3.5c-4.8-3.9-10.8-6.3-17-6.6l-5.6-0.4h0h-0.1h0v0l-5.6,0.4
		c-6.2,0.4-12.2,2.7-17,6.6l-4.2,3.5C47,70,43.4,76,42,82.8c-0.5,2.5-0.9,4.5-0.9,4.6c0,0.5,2.7,14.8,2.7,14.8v8l0.2,1.1l3.7,25.3
		c0.4,2.7,1.6,5.2,3.4,7.3c0,0,12.2,11.4,16.5,14.9c1.6,1.3,10.6,2.8,11.6,3h0.1v0h0l0.9-0.2l0.6-0.1c2.9-0.5,8.8-1.8,10.1-2.8
		c4.4-3.4,16.5-14.9,16.5-14.9c1.8-2,3-4.5,3.5-7.2l3.7-25.5l0.1-0.9v-8c0,0,2.7-14.3,2.7-14.8C117.5,87.3,117.1,85.3,116.6,82.8z"
		/>
	<path class="st1" d="M112.8,123.4l1.9-13.2c0,0,4.7-4.7,5.1-4.8s0.6,2,0.6,2l-1.1,9.4l-2.7,4.7L112.8,123.4z"/>
	<path class="st1" d="M45.9,124.4L44,111.2c0,0-4.7-4.7-5.1-4.8s-0.6,2-0.6,2l1.1,9.5l2.7,4.7L45.9,124.4z"/>
	<path class="st2" d="M114,103.2c3.9-26.4-13.8-11.6-33.8-41c-1.3-1.9-1.9,2-2.5,3.1s-0.6,2.1-2,2.3s-1.3,0.6-3.5-0.2
		s-2.2-0.8-3.2-0.5s-1.8,1.5-2.3,2.4s-0.5,1.5-1.3,1.8s-3.7-0.5-5.5,0.1c0,0-20.4,16.4-14.1,34.2c0,0-7.2-3.5-9.9-4.1
		c-2.5-0.5-3.5-11-9.3-13.2S22,82,22,82c0.3-1.4,0.8-2.7,1.5-3.9c1.3-2.2,1.3-2.8,1.3-4s-0.8-2.6-3.2-3.8s-2.8-2.4-2.9-3.6
		s1.1-2.9,4.9-6.1s2.1-8.1,2.1-8.1s-3.8-4.7-4.7-8.1s5.6-4.2,6.2-4.5s3.9-1.5,3.7-4.6s-2.6-6.6-1.4-8.2s8.6-0.9,8.6-0.9
		s3.7,0,5.8-2.4s2.8-9.2,5.4-10.7s8.4,1.5,9.5,2.2c2.1,1,4.5,1.5,6.8,1.4c2.1-0.2,4.2-1.3,6.7-4.4s3.9-6.3,8-6.6s7,5.4,7.6,6.2
		s3.6,4.3,7.9,4.4s7.5-2.5,10.2-3.2s4.3-0.6,5.6,0.3s2.2,3.9,2.7,5.7s0.6,3.5,3.4,5.4s5.7,1.5,8.2,1.5c2.5,0,3.5-0.5,4.8,0.9
		s0.6,3.5-0.4,5.5c-0.9,1.6-0.9,3.5,0,5.1c0.8,1.6,2.6,2.1,4.8,2.9s4.2,1.6,4.4,4.2s-2.1,4.5-2.8,5.7s0.9,6.4,1.2,9.2
		s-5.7,4.6-4.2,5.7s3.3,2.4,3.3,4.7s-2.6,3.2-3.6,3.7s-2.7,2.2-2.7,4.1s1.1,3.1,1.8,4.1c0.9,1.1,1.4,2.6,1.3,4
		c-0.1,1.8-11.1,13.2-12.6,15.6C121.1,101.4,116.1,104.4,114,103.2"/>
</g>
</svg>
