<svg id="Calque_1" data-name="Calque 1" xmlns="http://www.w3.org/2000/svg" viewBox="0 0 150 122.67"><defs><style>.cls-1{fill:#f7e4ec;}.cls-2{fill:#3d332f;}.cls-3{fill:#310800;}.cls-4{fill:#993131;}.cls-5{fill:#ebb4c9;}.cls-6{fill:#b53535;}</style></defs><path class="cls-1" d="M87.35,51.54s12.38,7.21,14.92-4.42l-5.86-2.87-5.88,1.46L86,50.83Z"/><path class="cls-2" d="M106.07,45.26c-3.3,5.08-5.79,1.74-5.79,1.74a6.84,6.84,0,0,0-5.12-1.47l-.21,0c-1.94.33-4.25,1.92-6.18,3.52A43.8,43.8,0,0,0,85,52.6,24.75,24.75,0,0,1,88.79,47a11.68,11.68,0,0,1,3.33-2.57c2.71-1.34,5.57-1.08,8.57.1A13.87,13.87,0,0,0,106.07,45.26Z"/><path class="cls-2" d="M66.22,35.85c.41-.35,1.94-.71.64-2.44-1-1.38-2.79-3.71-5.59-4.63a14.57,14.57,0,0,0-10.35.3c-2.92,1.27-8,6.43-8,6.43s6-3.42,8.19-3.94a18.36,18.36,0,0,1,9.26.06C62.84,32.5,66.22,35.85,66.22,35.85Z"/><path class="cls-3" d="M62.84,80.26s10.68-2.15,10.84-2.21,3.91,0,3.91,0l10.29,2.3L80.14,91l-9.49.17Z"/><path class="cls-1" d="M63.89,51.66S51.51,58.88,49,47.24l7.17-3L61.39,46l3.87,5Z"/><path class="cls-2" d="M95.94,48.06a3.66,3.66,0,0,1-7.17,1,4.32,4.32,0,0,1-.13-1A4.19,4.19,0,0,1,88.79,47a11.68,11.68,0,0,1,3.33-2.57h.16a3.65,3.65,0,0,1,3.66,3.65Z"/><circle class="cls-2" cx="54.78" cy="47.9" r="3.65"/><path class="cls-4" d="M86.29,80.82l3.41-1s-6.83,11.92-9.91,12.8a13.6,13.6,0,0,1-8.85,0c-3.08-.88-9.37-12.8-9.37-12.8l2.87,1s4.39,9,10.75,9.42C81.39,90.62,86.29,80.82,86.29,80.82Z"/><path class="cls-2" d="M66.66,52.6s-5.19-6.74-9.25-7.23a9.88,9.88,0,0,0-6,1.63s-2.49,3.34-5.78-1.74A14.09,14.09,0,0,0,51,44.52C56.76,42.26,62,43.36,66.66,52.6Z"/><path class="cls-5" d="M65.29,78.76l1,1.52a3.28,3.28,0,0,0,2,.58s5.35.18,7.13.18,6.88-.18,6.88-.18a3.21,3.21,0,0,0,2-.6l.4-1.19Z"/><path class="cls-6" d="M89.7,79.82l-3.41,1S78.07,79,75.28,79s-10.84,1.83-10.84,1.83l-2.87-1c.44-.59,8.18-5,10.54-4.29a22.52,22.52,0,0,1,3.15,1.15s1-.42,3.36-1.15S89.26,79.23,89.7,79.82Z"/><path class="cls-2" d="M83.78,35.85c-.41-.35-1.94-.71-.64-2.44,1-1.38,2.79-3.71,5.59-4.63a14.57,14.57,0,0,1,10.35.3c2.92,1.27,8,6.43,8,6.43s-6-3.42-8.19-3.94a18.36,18.36,0,0,0-9.26.06C87.16,32.5,83.78,35.85,83.78,35.85Z"/></svg>