<svg id="Calque_1" data-name="Calque 1" xmlns="http://www.w3.org/2000/svg" viewBox="0 0 788 1005.07"><defs><style>.cls-1{fill:#f7e4ec;}.cls-2{fill:#3d332f;}.cls-3{fill:#211616;}.cls-4{fill:#b53535;}.cls-5{fill:#f77777;}</style></defs><path class="cls-1" d="M418.83,144.09s12.38,7.22,14.92-4.41l-.16-.88L427,136.38l-5.7,2.06-3.87,4.95Z"/><circle class="cls-2" cx="426.17" cy="140.76" r="3.69"/><path class="cls-2" d="M416.53,145.16s5.8-6.77,9.86-7.25a7.4,7.4,0,0,1,5.37,1.65s2.5,3.34,5.79-1.75a14,14,0,0,1-5.39-.73C426.42,134.82,421.23,135.92,416.53,145.16Z"/><polygon class="cls-3" points="395.8 177.76 392.26 174.21 398.6 174.36 406.84 175.99 414.28 174.54 421.44 174.06 414.28 180.35 406.77 182.93 399.09 180.57 395.8 177.76"/><path class="cls-1" d="M395.75,175.54l.39.91c.27.62.82,2.42,1.51,2.63l7.2,2.86a5.16,5.16,0,0,0,3.46.18l7.25-2.81c.87-.27,1.25-2.54,1.39-3.37l0-.09-10.21.18Z"/><path class="cls-2" d="M398.08,130.42c.4-.37,1.93-.76.63-2.61a9,9,0,0,0-4.6-2.93c-2.7-.82-8.9-.78-11.65,0-3.09.83-7.66,5.23-7.66,5.23s6.15-2.29,8.38-2.5a33,33,0,0,1,8.19.77C393,128.73,398.08,130.42,398.08,130.42Z"/><path class="cls-2" d="M415.63,130.33c-.4-.37-1.93-.75-.63-2.57a9,9,0,0,1,4.6-2.89c2.7-.81,8.9-.76,11.64,0,3.1.81,7.67,5.14,7.67,5.14s-6.15-2.25-8.39-2.46a34,34,0,0,0-8.18.76C420.69,128.66,415.63,130.33,415.63,130.33Z"/><path class="cls-1" d="M395.37,144.22s-12.38,7.21-14.91-4.42l.16-.87,6.7-2.55,5.55,2.18,3.87,5Z"/><circle class="cls-2" cx="387.1" cy="140.76" r="3.69"/><path class="cls-4" d="M422.5,173.61S410.05,179,406.75,179s-15.56-5.23-15.56-5.23c3.9.6,10.16-1.17,12.34-.53a10.16,10.16,0,0,1,3.22,1.31,29.93,29.93,0,0,1,3.78-1.31C413.05,172.49,419.23,174.21,422.5,173.61Z"/><path class="cls-5" d="M421.44,174.05s-6.62,7.57-9.91,8.28a19.5,19.5,0,0,1-9.52,0c-3.31-.71-9.74-8.15-9.74-8.15s11.16,4.49,14.46,4.49S421.44,174.05,421.44,174.05Z"/><path class="cls-2" d="M398.13,145.16s-5.86-6.66-9.92-7.14a7.37,7.37,0,0,0-5.31,1.54s-2.49,3.34-5.78-1.75a14,14,0,0,0,5.38-.73C388.24,134.82,393.43,135.92,398.13,145.16Z"/></svg>