<?xml version="1.0" encoding="utf-8"?>
<!-- Generator: Adobe Illustrator 26.0.2, SVG Export Plug-In . SVG Version: 6.00 Build 0)  -->
<svg version="1.1" id="Calque_9" xmlns="http://www.w3.org/2000/svg" xmlns:xlink="http://www.w3.org/1999/xlink" x="0px" y="0px"
	 viewBox="0 0 788 1005" style="enable-background:new 0 0 788 1005;" xml:space="preserve">
<style type="text/css">
	.st0{fill:#90573A;}
	.st1{fill:#DBD0BA;}
	.st2{fill:#C69C6D;}
	.st3{fill:none;stroke:#C69C6D;stroke-width:2;stroke-linecap:round;stroke-miterlimit:10;}
</style>
<path class="st0" d="M340.1,725.9c1.2,10.9,8.4,19.2,16.9,19.4l0,0c8.1,0.2,15.1-7.1,16.6-17.4c0,0,8.8-73.4,9-99.7
	c0-6.2-1.6-24.9-1.6-24.9l-3.9-43.5c0,0-2.8-20.5-19.5-23c-19.3-2.9-19.6,10.5-19.6,10.5s-6.2,69.1-6,90.9
	C332.2,658.3,340.1,725.9,340.1,725.9z"/>
<path class="st0" d="M472.2,718.9c0.5,11-5.4,20.3-13.8,21.7l0,0c-8,1.4-16-4.8-19-14.7c0,0-19.9-71.2-24.1-97.2
	c-1-6.2-2.2-24.8-2.2-24.8l-2.7-43.5c0,0-0.4-20.7,15.8-25.7c18.6-5.8,21,7.4,21,7.4s16.6,67.3,19.7,88.9
	C469.7,650.9,472.2,718.9,472.2,718.9z"/>
<path class="st0" d="M357,708.6c-9.2,0.2-14.6,5.3-16,13.4c0,0-1.5,36.4-1.7,51.7c-0.4,24.5,2.5,74.7,6.5,98.9
	c0.9,5.3,2.8,21.3,2.8,21.3c0.5,4.6,4.4,8.1,9,8l0,0c4.6-0.4,8.1-4.1,8.2-8.7c0,0,0.8-18.5,1.4-24.7c2.2-22.3,9.5-66.6,10-89
	c0.3-13.5-2.3-54.8-2.3-54.8C373.8,711.3,364.8,708.6,357,708.6L357,708.6z"/>
<path class="st0" d="M456.9,701.6c9.1-1.1,15,3.3,17.3,11.3c0,0,6.6,34.5,8.5,49.9c3.2,24.7,0,122,0,122c-0.1,4.9-0.1,11.4-4.5,11.8
	l0,0c-4.4,0.4-9.7-1.7-10.5-6.5c0,0-19.7-91.6-22.8-114.1c-1.8-13.5-3.9-55.5-3.9-55.5C440.5,706.8,449.1,702.8,456.9,701.6
	L456.9,701.6z"/>
<path class="st1" d="M357.3,885.6L357.3,885.6c-4.2,0.2-8,2.7-9.6,6.6l0,0c-4,8.9-20.8,20.9-20.8,20.9c-3.1,2.6-4.5,6.6-3.8,10.6
	l0,0l41.1-0.2l2.3-0.8c2.7-1,4.4-3.6,4.1-6.5l-2.4-21.7C367.2,889.3,362.6,885.6,357.3,885.6z"/>
<path class="st2" d="M324.2,923.5L324.2,923.5c-0.6-3.5,1.7-6.8,5.1-7.5l24.4-3.9c3.2-0.4,6.2,1.7,6.9,4.9l1.4,6.2L324.2,923.5z"/>
<path class="st1" d="M476.7,892.2c4.3-2,3.9-6,5.6-8.3c1-1.4,5.3-2.9,5.9-1.2c7.6,19.5,42,29.6,42,29.6c3.7,3.2,4.6,7.8,4,12.6l0,0
	c0,0-30,10.1-45.7-0.8c-3.1-2.2-11.2-3.1-11.2-3.1s-14.5,0.1-13.8-5.8l1.9-26.7C466.6,882,469.4,895.6,476.7,892.2z"/>
<path class="st2" d="M534.6,924.8c0.5-7.8-3.1-12.6-4.3-12.4c-1.7,0.3-4.4,2.2-6,2.6c-2.7,0.7-10.8,0-10.8,0
	c-2.1-0.2-3.8,2.5-3.9,6.2v7.5c0,0,5,0.7,16.7-1.8C528.2,926.5,534.6,924.8,534.6,924.8z"/>
<path class="st3" d="M496.8,897c-1.8,1.2-3.9,2-6,2.5"/>
<path class="st2" d="M343.1,499.9c-0.6,0-8.1,65.1-12.5,103.7c-2.1,18.4-2.3,37-0.7,55.5l6.5,73.8c0,0.2,0,0.4,0,0.6
	c-0.5,6-9.1,104.3-41.5,156.2c-1.4,2.3,0.2,5.2,2.9,5.2h103.9c2.1,0,3.7-1.8,3.4-3.9l-22.4-164.1c0-0.3,0-0.5,0-0.8l10.5-114.2
	c0.3-3.7,5.6-4.3,6.7-0.6l36.6,124.2c0.1,0.3,0.1,0.7,0.1,1l-3.8,154c0,1.8,1.3,3.4,3.2,3.5c18.5,1.3,109,7.2,104.7,2.6
	c-43.9-47.6-57.2-191.3-60.2-205.6c-9.7-47-28.9-156.1-29.5-159.9c0-0.1,0-0.1,0-0.2l-6.4-26.1c-0.4-1.5-1.7-2.6-3.2-2.6
	L343.1,499.9L343.1,499.9"/>
<path class="st3" d="M345.7,899c0,0,3.2-2.4,6.1-2.4c2.4,0.1,4.8,0.9,6.8,2.2"/>
<path class="st2" d="M343.1,499.9c0,0-1.6-13.8,47.1-11.8s52.8,10.7,54.3,16.7C445.9,510.7,343.1,499.9,343.1,499.9z"/>
</svg>
