<?xml version="1.0" encoding="utf-8"?>
<!-- Generator: Adobe Illustrator 26.0.2, SVG Export Plug-In . SVG Version: 6.00 Build 0)  -->
<svg version="1.1" id="Calque_9" xmlns="http://www.w3.org/2000/svg" xmlns:xlink="http://www.w3.org/1999/xlink" x="0px" y="0px"
	 viewBox="0 0 388 454.8" style="enable-background:new 0 0 388 454.8;" xml:space="preserve">
<style type="text/css">
	.st0{clip-path:url(#SVGID_00000013183495850503206020000017271981744758488453_);}
	.st1{fill:#745C62;}
	.st2{clip-path:url(#SVGID_00000093891727946848478480000003600614563915593352_);}
	.st3{fill:#5E6D70;}
	.st4{fill:#90573A;}
	.st5{fill:#3E0045;}
	.st6{fill:#ED5875;}
	.st7{fill:none;stroke:#ED5875;stroke-width:3;stroke-linecap:round;stroke-miterlimit:10;}
</style>
<g>
	<g>
		<g>
			<defs>
				<path id="SVGID_1_" d="M159.9-15.9L159.9-15.9c15.5,0,28.1,12.6,28.1,28.1v94.8h-56.3V12.3C131.7-3.3,144.3-15.9,159.9-15.9z"/>
			</defs>
			<clipPath id="SVGID_00000114753520791932259310000006725022885868834944_">
				<use xlink:href="#SVGID_1_"  style="overflow:visible;"/>
			</clipPath>
			<g style="clip-path:url(#SVGID_00000114753520791932259310000006725022885868834944_);">
				<path class="st1" d="M218.6-10.9c12.6,5.1,18.2,9.5,21.2,16.3c2.5,5.5,4.7,32.9,4.9,39.2c0.4,14.9-24.8,44.8-36,57.3
					c-11.3,12.6-6.3-2.8-21.7-0.8c-17.4,2.2-55.9-39.1-55.5-54c0.2-6.4,3.4-36.2,5.8-41.7c3-6.8,8.5-11.2,21.2-16.3
					c9-3.5,18.7-5.1,28.4-5c0.5,0,0.9,0,1.4,0C191.6-15.9,205.8-16.1,218.6-10.9z"/>
			</g>
		</g>
	</g>
	<g>
		<g>
			<defs>
				<path id="SVGID_00000045607936861750847320000013558287712025910413_" d="M216.1-15.9L216.1-15.9c15.5,0,28.1,12.6,28.1,28.1
					v94.8H188V12.3C188-3.3,200.6-15.9,216.1-15.9z"/>
			</defs>
			<clipPath id="SVGID_00000058552648935640974350000012415945434783504307_">
				<use xlink:href="#SVGID_00000045607936861750847320000013558287712025910413_"  style="overflow:visible;"/>
			</clipPath>
			<g style="clip-path:url(#SVGID_00000058552648935640974350000012415945434783504307_);">
				<path class="st1" d="M157.3-10.9c-12.6,5.1-18.2,9.5-21.2,16.3c-2.5,5.5-4.7,32.9-4.9,39.2c-0.4,14.9,24.8,44.8,36,57.3
					c11.3,12.6,6.3-2.8,21.7-0.8c17.4,2.2,55.9-39.1,55.5-54c-0.2-6.4-3.4-36.2-5.9-41.7c-3-6.8-8.5-11.2-21.2-16.3
					c-9.1-3.5-18.8-5.2-28.6-4.9c-0.4,0-0.8,0-1.2,0C184.4-15.9,170.1-16.1,157.3-10.9z"/>
			</g>
		</g>
	</g>
	<path class="st3" d="M133.1,242.4c1.2,11.2,8.7,19.7,17.4,19.9l0,0c8.3,0.2,15.5-7.3,17.1-17.9c0,0,9-75.4,9.2-102.4
		c0-6.4-1.6-25.6-1.6-25.6l-4-44.7c0,0-2.9-21.1-20-23.6c-19.8-3-20.1,10.8-20.1,10.8s-6.4,70.9-6.2,93.4
		C125,173,133.1,242.4,133.1,242.4z"/>
	<path class="st4" d="M150.4,224.6c-9.5,0.2-15,5.4-16.4,13.8c0,0-1.5,37.4-1.7,53.1c-0.4,25.3,2.6,76.7,6.7,101.7
		c0.9,5.4,2.9,21.9,2.9,21.9c0.5,4.7,4.5,8.3,9.2,8.2l0,0c4.7-0.4,8.3-4.2,8.4-8.9c0,0,0.8-19,1.4-25.4c2.3-22.9,9.8-68.4,10.3-91.4
		c0.3-13.9-2.4-56.3-2.4-56.3C167.8,227.4,158.5,224.7,150.4,224.6L150.4,224.6z"/>
	<path class="st4" d="M264.4,217.4c9.3-1.1,15.4,3.4,17.8,11.6c0,0,6.8,35.4,8.7,51.3c3.3,25.4,0,125.3,0,125.3
		c-0.1,5-0.1,11.7-4.6,12.1l0,0c-4.5,0.4-10-1.7-10.8-6.7c0,0-20.2-94.1-23.4-117.2c-1.8-13.9-4-57-4-57
		C247.6,222.7,256.4,218.6,264.4,217.4L264.4,217.4z"/>
	<path class="st5" d="M150.7,406.4L150.7,406.4c-4.3,0.2-8.2,2.9-9.9,6.8l0,0c-4.1,9.1-21.4,21.5-21.4,21.5
		c-3.1,2.7-4.6,6.8-3.9,10.9l0,0l42.2-0.2l2.4-0.7c2.8-1,4.5-3.7,4.2-6.7l-2.5-22.3C160.9,410.2,156.2,406.4,150.7,406.4z"/>
	<path class="st6" d="M116.8,445.3L116.8,445.3c-0.6-3.6,1.7-7,5.2-7.7l25.1-4c3.3-0.4,6.4,1.7,7.1,5l1.4,6.4L116.8,445.3z"/>
	<path class="st7" d="M141.9,415.2c0,0,3.3-2.6,6.2-2.7c2.5,0.1,4.9,0.8,7,2.2"/>
	<path class="st7" d="M138.9,420.2c0,0,3.3-2.5,6.3-2.5c2.5,0.1,4.9,0.9,7,2.3"/>
	<path class="st5" d="M284.8,413.2c4.4-2.1,4-6.2,5.8-8.5c1-1.4,5.4-3,6.1-1.2c7.8,20,43.1,30.4,43.1,30.4c3.8,3.3,4.7,8,4.1,12.9
		l0,0c0,0-30.8,10.4-46.9-0.8c-3.2-2.3-11.5-3.2-11.5-3.2s-14.9,0.2-14.2-6l2-27.4C274.3,402.7,277.2,416.7,284.8,413.2z"/>
	<path class="st6" d="M344.3,446.7c0.5-8-3.2-12.9-4.4-12.7c-1.7,0.3-4.5,2.3-6.2,2.7c-2.8,0.7-11.1,0-11.1,0
		c-2.2-0.2-3.9,2.6-4,6.4v7.7c0,0,5.1,0.7,17.2-1.8C337.7,448.4,344.3,446.7,344.3,446.7z"/>
	<path class="st7" d="M301.4,413.8c-2,1-4.1,1.7-6.3,2.1"/>
	<path class="st7" d="M305.4,418.1c-1.8,1.2-4,2.1-6.2,2.6"/>
	<path class="st5" d="M129.1,240.7c1.8,13.1,3.1,21.6,3.1,21.6s-1.2-0.1,38.2-0.5c8.3-0.1,19.1-153,27.7-153.2
		c8.5-0.1,25.2,114.6,50.8,152.2c22.8,6.6,41.6-2.1,40.2-3.2c-2.5-1.8-18.4-109.1-26.9-167.8c-3.6-25-9.3-49.6-16.8-73.7l-1.6-5.1
		c-1.7-5.7-5.3-10.7-10.2-14.2l-9.7-7.1c-5.1-3.7-11.2-5.8-17.6-5.8c-7.6,0-17.1,0-17.8,0l-21.7,1.2C155.1-14,144.2-8.3,137,1
		l-3.1,17.2C120.5,91.6,118.9,166.7,129.1,240.7z"/>
</g>
</svg>
