<?xml version="1.0" encoding="utf-8"?>
<!-- Generator: Adobe Illustrator 26.0.2, SVG Export Plug-In . SVG Version: 6.00 Build 0)  -->
<svg version="1.1" id="Calque_9" xmlns="http://www.w3.org/2000/svg" xmlns:xlink="http://www.w3.org/1999/xlink" x="0px" y="0px"
	 viewBox="0 0 388 454.8" style="enable-background:new 0 0 388 454.8;" xml:space="preserve">
<style type="text/css">
	.st0{fill:#E8E0BF;}
	.st1{fill:#90573A;}
	.st2{fill:#2E858E;}
	.st3{fill:#5E6D70;}
</style>
<path class="st0" d="M280.5,345.7l1.9-5.9l13.3,6c4.8,2.1,7.5,9.2,6.3,12.6c-7.1,19.1,1.6,29.2-2.5,39.8c-2.3,6-13.4,21.6-16.5,21.1
	c-7.6-1.2-8.3-20.5-8.3-20.5l-3.3-42.8l6.3,0.2L280.5,345.7z"/>
<path class="st1" d="M271,360.9c2.4,6.5,3.4,27.7,3,27.8s0,14.7,8.2,3.6c11.2-15.2-0.2-44.7,0.2-52.6l-19,10.3
	C263.3,350,269.8,357.8,271,360.9z"/>
<ellipse transform="matrix(0.4688 -0.8833 0.8833 0.4688 -202.4067 453.765)" class="st2" cx="276.1" cy="395.2" rx="6.9" ry="6.9"/>
<path class="st3" d="M145.1,224c1.9,10.5,9.4,18,17.6,17.6l0,0c7.8-0.4,14.1-7.9,14.9-17.9c0,0,3.8-71.4,2.3-96.8
	c-0.4-6-3.1-23.9-3.1-23.9l-6.6-41.7c0,0-4-19.6-20.3-20.9c-18.8-1.5-18.3,11.4-18.3,11.4s-1.5,67,0.1,88.1
	C133.1,159.3,145.1,224,145.1,224z"/>
<path class="st1" d="M160.3,206.1c-8.9,0.8-13.7,6-14.6,14c0,0,1,35.2,1.7,50c1.2,23.7,7.2,71.9,12.6,95c1.2,5.1,4,20.4,4,20.4
	c0.7,4.4,4.8,7.6,9.2,7.2l0,0c4.4-0.6,7.6-4.5,7.4-8.9c0,0-0.4-17.9-0.2-23.9c0.7-21.6,4.8-64.8,3.9-86.5c-0.6-13-5.7-52.7-5.7-52.7
	C176.7,207.8,167.9,205.7,160.3,206.1z"/>
<path class="st2" d="M129.8-5.4l-9.9,68.3c-0.5,3.7-0.6,7.5-0.1,11.3L139,218.9l8.1,72.1c3,27.1,7.8,54,14.1,80.5l1,4.1l18.3-0.7
	l4.6-50.8c2.1-22.7,2.4-45.6,1.1-68.3l-1.7-29.6c-0.1-0.8-0.1-1.6-0.1-2.4l-2.9-146.4l2.7,138.7c0.1,5.9,1.5,11.7,4,17l77.5,120.4
	l17-10.6c-3.3-11.9-35.5-95.9-49-125.6c-3.3-7.3-4.4-15.3-3.3-23.3L245,98.5c3-19.6,2.4-39.5-1.7-58.9l-3.6-16.9
	c-4.2-20.1-22.6-34-43.1-32.6L129.8-5.4"/>
<path class="st0" d="M240.6,127.3l-58.1,5.1l-0.3-20.5c0,0,60.5-21.3,63.6-20.5C245.9,95.5,240.6,127.3,240.6,127.3z"/>
<path class="st0" d="M169.5,397.5l-6-1.7c-0.9,0.4-2.4,5.3-2.7,6.5l-9.1,26c-1,3-0.4,6.4,1.8,8.7c4.5,5,12.5,12.7,18.6,12.1
	c1.6-0.2,21.1-6.5,21.7-14.8l0,0c0-0.7-4.4-13.8-4.4-13.8c-0.2-0.2-2.8-14.2-7.9-26.5l-3.4-2.7c-0.6-0.5-1.8,5.4-2.6,5.4l-5.5,0.4
	C169.9,397.4,169.7,397.4,169.5,397.5z"/>
<path class="st1" d="M181.3,386.8c0.5,6.7,8.9,32.5-7.1,36.2c-6.5,1.6-14.1-2.2-15.2-8.8c-1.1-6.9,2.8-16.3,4.7-24.8
	C165.2,382.8,180.9,380.1,181.3,386.8z"/>
<circle class="st2" cx="171.5" cy="425.8" r="8.3"/>
<path class="st1" d="M162.9,379.6c0,0,1.9,6.7,0,13.2s7.9,11,7.9,11l4.4-16.4L162.9,379.6z"/>
</svg>
