<?xml version="1.0" encoding="utf-8"?>
<!-- Generator: Adobe Illustrator 26.0.2, SVG Export Plug-In . SVG Version: 6.00 Build 0)  -->
<svg version="1.1" id="Calque_9" xmlns="http://www.w3.org/2000/svg" xmlns:xlink="http://www.w3.org/1999/xlink" x="0px" y="0px"
	 viewBox="0 0 388 454.8" style="enable-background:new 0 0 388 454.8;" xml:space="preserve">
<style type="text/css">
	.st0{fill:#B26959;}
	.st1{fill:#9CCBF2;}
	.st2{fill:#375D63;}
	.st3{fill:#4D6FAA;}
	.st4{fill:none;stroke:#4D6FAA;stroke-width:2;stroke-linecap:round;stroke-miterlimit:10;}
</style>
<g>
	<polygon class="st0" points="161.4,411.4 145.6,410 139.4,361.1 159.4,354.6 	"/>
	<path class="st1" d="M144.3,395.9c-0.9,0.3-2.3,5-2.6,6.1l-8.5,23.3c-1.3,3.5-0.4,7.4,2.2,10.2c4.5,4.7,11.7,11,17.3,10.5
		c1.6-0.2,18.3-7.5,18.3-13.1c0-5.6-1.3-13.7-1.3-13.7c-0.2-0.2-3.8-11-8.7-22.4L144.3,395.9z"/>
	<path class="st2" d="M123.7,65.8c0.2,2.1,1,139.7,0.6,141.9c-0.4,2.2-2.9,53.3-2.8,55.4c0.2,2.1,19.2,111.8,19.2,111.8l19.1-3.7
		c0,0,4.7-99.5,4.6-101.1c-0.2-1.6-2.4-38.3-3.1-39.8s11-155.4,11-155.4l-4.5-58.5l-33.7,2.4c-11.1,0.8-13,12.2-13.2,24.5
		L123.7,65.8z"/>
	<polygon class="st0" points="260.4,411 280.4,407 274.7,356.9 254.5,359.5 	"/>
	<path class="st1" d="M275.7,410.4l2.6-6.4l42.7,27.1c0,0,5.2,9.3,2.8,17.5c-1,3.3-16.4,6.2-22.4,5.4c-10.7-1.6-15.4-15.4-34.7-18.5
		c-3.4-0.6-8.2-7-7.8-12.8l0.9-16.4l5.8,1.1L275.7,410.4z"/>
	<path class="st2" d="M238.2,58.5c0.2,2.1,16.8,138.5,17.7,140.5c0.8,2,13.7,52.1,13.9,54.3c0.2,2.2,8.5,122.4,8.5,122.4l-22.7,2.9
		c0,0-26.2-108.1-26.5-109.7c-0.2-1.6-5.4-38.3-5-40c0.4-1.6-42.1-151.5-42.1-151.5L175,21.9l33.7-4.5c11.1-1.5,21.7,6.5,24.4,18.6
		L238.2,58.5z"/>
	<path class="st1" d="M279.6,400.4l-19.8,5.6c6.8,3.2,26.6,26,44.4,23.4c13.1-1.9,1-8.7,0.7-8.5c-0.3,0.2-17.7-10-22.2-15
		C280.5,403.5,279.6,400.4,279.6,400.4z"/>
	<path class="st3" d="M285,325.9c-0.4-13.9-2.5-72.8-6.8-81.8c-4.3-9-11.7-39-10.8-48.5c0.8-9.6-10.5-61.1-12.9-68.4
		c-2.5-7.4-23.2-106.3-23.2-106.3l-0.3-4.4c-0.6-8.9-8-15.9-17-15.9h-75.8c-8.7,0-16.1,6.6-17,15.4l-1.8,18
		c0,0-20.4,124.3-15.5,142.3s-4.1,58.5,0,67.6c3.9,8.7,2.8,61.6,8.5,73c5.8,11.4,9.5,19.6,8.7,33.5c-0.8,13.9,9.6,21.3,12.6,28.2
		s5.7,15.9,5.7,15.9l21.4-0.3c0,0-0.5-19.3,3.6-24.2c4.1-4.9,8.2-60.5,6.9-71.9c-1.2-11.4,1.4-50.7,2.9-62.1
		c1.6-11.4-0.2-48.2,0.7-65.4c0.9-17.2-2.3-41.8,0-49.1c2.5-7.7,0.1-14.7,4.2-19.6s9,11.4,12.3,27s4.9,27,11.4,45.8
		s6.5,64.6,10.6,78.5c4.1,13.9,14,40.9,13.2,55.6c-0.9,14.7,1.6,32.3,7.3,43.7c5.6,11.4,7.4,12.5,13.1,22.4
		c5.7,9.9,7.4,17.1,7.4,17.1l25.9-7.4v-17.7C280.4,366.7,285.4,339.8,285,325.9z"/>
	<path class="st3" d="M324.4,444.5c0,0-18.6,4.8-21.7,3.7c-3.2-1.1-25.5-18.3-31.5-18.6c-6-0.2-12.2-5.6-12.2-5.6s1.7,10.8,8.7,11.8
		c7,1,26,17,32.3,18c6.3,1,13.8-0.7,13.8-0.7s8.8-1.7,9.8-4C324.6,446.9,324.4,444.5,324.4,444.5z"/>
	<path class="st3" d="M132.8,426.7c0,0,8.3,11.4,18.5,11.4s19.5-9.6,19.5-9.6s1,3.9,0.2,6c-0.8,2-7.2,12-19.2,12.1
		S129.5,432.8,132.8,426.7z"/>
</g>
<path class="st4" d="M144.7,410.7c0,0,3.2-2.5,6-2.6c2.4,0.1,4.8,0.8,6.8,2.1"/>
<path class="st4" d="M144.9,415.5c0,0,3.2-2.4,6.1-2.4c2.4,0.1,4.8,0.9,6.8,2.2"/>
<path class="st4" d="M291,416.3c-1.9,1-4,1.7-6.1,2"/>
<path class="st4" d="M294.9,420.5c-1.8,1.2-3.9,2-6,2.5"/>
</svg>
