<?xml version="1.0" encoding="utf-8"?>
<!-- Generator: Adobe Illustrator 26.0.2, SVG Export Plug-In . SVG Version: 6.00 Build 0)  -->
<svg version="1.1" id="Calque_9" xmlns="http://www.w3.org/2000/svg" xmlns:xlink="http://www.w3.org/1999/xlink" x="0px" y="0px"
	 viewBox="0 0 788 1005" style="enable-background:new 0 0 788 1005;" xml:space="preserve">
<style type="text/css">
	.st0{fill:#F4C1C1;}
	.st1{fill:#90573A;}
	.st2{fill:#CC0000;}
	.st3{fill:#5E6D70;}
</style>
<g>
	<path class="st0" d="M368.3,881.3l-5.9-1.7c-0.9,0.4-2.3,5.2-2.6,6.3l-8.9,25.4c-1,2.9-0.4,6.2,1.8,8.5
		c4.4,4.9,12.2,12.4,18.1,11.8c1.6-0.2,20.6-6.3,21.2-14.4l0,0c0-0.7-4.3-13.5-4.3-13.5c-0.2-0.2-2.7-13.9-7.7-25.9l-3.3-2.6
		c-0.6-0.5-1.8,5.3-2.5,5.3l-5.4,0.4C368.7,881.2,368.5,881.2,368.3,881.3z"/>
	<path class="st1" d="M379.8,870.9c0.5,6.5,8.7,31.7-6.9,35.3c-6.3,1.6-13.8-2.1-14.8-8.6c-1.1-6.7,2.7-15.9,4.6-24.2
		C364.1,867,379.4,864.4,379.8,870.9z"/>
	<circle class="st2" cx="370.3" cy="909" r="8.1"/>
	<path class="st1" d="M361.9,863.9c0,0,1.9,6.5,0,12.9c-1.9,6.3,7.7,10.7,7.7,10.7l4.3-16L361.9,863.9z"/>
	<path class="st3" d="M345.5,728.7c1.8,10.6,9.4,18.2,17.6,17.9l0,0c7.9-0.3,14.2-7.8,15.1-18c0,0,4.2-72,2.9-97.6
		c-0.3-6.1-3-24.1-3-24.1l-6.4-42.1c0,0-3.9-19.8-20.4-21.2c-19-1.7-18.5,11.4-18.5,11.4s-2,67.6-0.4,88.9
		C333.8,663.4,345.5,728.7,345.5,728.7z"/>
	<path class="st3" d="M467.5,725c0.3,10.7-5.6,19.7-13.7,21l0,0c-7.8,1.3-15.5-4.9-18.4-14.6c0,0-18.5-69.7-22.3-95.1
		c-0.9-6-1.9-24.3-1.9-24.3l-2.1-42.5c0,0-0.1-20.2,15.7-24.9c18.3-5.4,20.4,7.5,20.4,7.5s15.4,65.9,18.1,87
		C465.9,658.6,467.5,725,467.5,725z"/>
	<path class="st1" d="M360.8,710.8c-9,0.7-13.9,6-14.8,14c0,0,0.7,35.5,1.4,50.5c1.1,24,6.8,72.6,12.2,95.9c1.2,5.1,4,20.6,4,20.6
		c0.7,4.5,4.8,7.7,9.3,7.3l0,0c4.4-0.6,7.6-4.5,7.5-8.9c0,0-0.3-18.1-0.1-24.1c0.8-21.8,5.3-65.4,4.5-87.2
		c-0.5-13.2-5.5-53.2-5.5-53.2C377.5,712.5,368.6,710.4,360.8,710.8z"/>
	<path class="st1" d="M460.5,713.5c8.2,3.8,10.8,10.4,8.6,18.3c0,0-12.2,32-18.5,45.9c-10,22.1-62.5,101.3-62.5,101.3
		c-2.6,4-5.9,9.4-9.8,7.5l0,0c-3.9-2-7.2-6.4-5.4-10.7c0,0,30.6-86.1,39.6-106.3c5.4-12.2,25.2-48.1,25.2-48.1
		C444.2,709.5,453.3,710.6,460.5,713.5L460.5,713.5z"/>
	<path class="st2" d="M475.4,746.2c-0.4-0.1-32.2-5.6-54.9-9.6c-14.3-2.5-28.9-3.2-43.3-2c-22,1.8-53.5,3.4-52-2.4
		c2.4-8.9,3-149.9,3-149.9l3.6-52.8c0,0,5.5-29.2,8.5-30.1c2.9-1,71.2-0.4,102.7-0.4l7.3,40.7l25.1,180.1V746.2z"/>
	<path class="st2" d="M331.2,539c0,0-12.4,168.6-36.9,186.6c-24.5,17.9,51.8,10.8,51.8,10.8s73.4-6.4,129.3,9.9
		s-31.9-244.5-31.9-244.5L331.2,539z"/>
	<path class="st0" d="M388,877.5l5.1-3.4l19.2,37.2c0,0,9.3,16.4,3.6,21.3c-2.3,2-19.5-5.2-24.5-9c-8.8-6.7-6.8-19.5-22.5-31.7
		c-2.7-2.2-4.1-9.5-1.2-13.7l8-11.8l4.6,3.9L388,877.5z"/>
	<path class="st1" d="M396.7,865l-21,1.2c4.4,6.3,10.1,36.7,27.2,43.5c12.5,5,5.3-7.3,5-7.2c-0.4,0.1-10.4-18-11.8-24.6
		C395.4,874.8,396.8,865,396.7,865z"/>
	<ellipse class="st2" cx="409.4" cy="909" rx="6.7" ry="6.7"/>
</g>
<path class="st2" d="M391.9,594.5c0,0.3-63.3-17.4-63.3-17.4l3.7-54.1c0,0,5.7-29.9,8.7-30.9c2.6-0.8,55.5-0.6,90.6-0.5
	c8.5,0,15.8,6.1,17.3,14.5l4.9,27.3C453.8,533.4,391.9,594.2,391.9,594.5z"/>
</svg>
