<?xml version="1.0" encoding="utf-8"?>
<!-- Generator: Adobe Illustrator 26.0.2, SVG Export Plug-In . SVG Version: 6.00 Build 0)  -->
<svg version="1.1" id="Calque_9" xmlns="http://www.w3.org/2000/svg" xmlns:xlink="http://www.w3.org/1999/xlink" x="0px" y="0px"
	 viewBox="0 0 388 454.8" style="enable-background:new 0 0 388 454.8;" xml:space="preserve">
<style type="text/css">
	.st0{fill:#8E3425;}
	.st1{clip-path:url(#SVGID_00000119840304001868088420000016185632318510948264_);}
	.st2{fill:#745C62;}
	.st3{clip-path:url(#SVGID_00000004530226562954848340000006806091173676287675_);}
	.st4{fill:#5E6D70;}
	.st5{fill:#90573A;}
	.st6{fill:#9C3A26;}
	.st7{fill:none;stroke:#8E3425;stroke-width:2;stroke-linecap:round;stroke-miterlimit:10;}
	.st8{fill:#295446;}
	.st9{fill:#315B4C;}
</style>
<polygon class="st0" points="290.5,408.4 298.8,420.3 304.2,416.8 295.8,404.4 "/>
<g>
	<defs>
		<polygon id="SVGID_1_" points="180,4 154.1,126.1 113,126.1 113,4 		"/>
	</defs>
	<clipPath id="SVGID_00000097469080668832897280000006702878769340612233_">
		<use xlink:href="#SVGID_1_"  style="overflow:visible;"/>
	</clipPath>
	<g style="clip-path:url(#SVGID_00000097469080668832897280000006702878769340612233_);">
		<path class="st2" d="M207.8,17.1c11,7.5,15.4,12.7,16.9,19.8c1.2,5.8-2.1,32.3-3.2,38.3c-2.6,14.2-32.7,37.7-45.8,47.3
			c-13.3,9.8-5.4-3.9-20.5-5.2c-17-1.5-45.4-48.6-42-62.7c1.5-6,10.5-33.7,14-38.5c4.2-5.9,10.4-8.9,23.5-11.3
			c9.6-1.5,19.4-1.1,28.9,1.2C179.5,6.2,195.1,8.5,207.8,17.1z"/>
	</g>
</g>
<g>
	<defs>
		<polygon id="SVGID_00000176730876726477843430000018107512439111520399_" points="180,4 154.1,126.1 191.7,142.8 241.3,31.2 		"/>
	</defs>
	<clipPath id="SVGID_00000174587690575730689160000007400090721328050619_">
		<use xlink:href="#SVGID_00000176730876726477843430000018107512439111520399_"  style="overflow:visible;"/>
	</clipPath>
	<g style="clip-path:url(#SVGID_00000174587690575730689160000007400090721328050619_);">
		<path class="st2" d="M149.3,4.7C136.2,7,130.1,10,125.8,16c-3.4,4.8-11.2,30.4-12.6,36.4c-3.4,14.1,14.6,47.7,22.6,61.8
			c8.2,14.3,6.5-1.3,20.8,3.6c16.1,5.6,61.2-26,63.8-40.2c1.1-6.1,4.1-35.1,2.9-40.9c-1.5-7.1-5.9-12.4-16.9-19.8
			c-8.1-5.3-17.3-8.9-26.9-10.6C179.6,6.2,164.3,2,149.3,4.7z"/>
	</g>
</g>
<path class="st4" d="M113.9,254.1c1.2,10.9,8.5,19.2,16.9,19.4l0,0c8.1,0.2,15.1-7.1,16.6-17.4c0,0,8.8-73.4,9-99.7
	c0-6.2-1.6-24.9-1.6-24.9L150.9,88c0,0-2.8-20.5-19.5-23c-19.3-2.9-19.6,10.5-19.6,10.5s-6.2,69-6,90.9
	C106,186.5,113.9,254.1,113.9,254.1z"/>
<path class="st4" d="M274.5,241.4c2,10.8-2.5,20.8-10.6,23.5l0,0c-7.7,2.5-16.5-2.4-20.9-11.8c0,0-29.8-67.7-37.7-92.8
	c-1.9-6-5.7-24.3-5.7-24.3l-8.9-42.7c0,0-3.3-20.4,12-27.7c17.6-8.4,21.9,4.3,21.9,4.3s26,64.3,32.2,85.2
	C262.4,174.5,274.5,241.4,274.5,241.4z"/>
<path class="st5" d="M130.8,236.7c-9.2,0.2-14.6,5.3-16,13.4c0,0-1.5,36.4-1.7,51.7c-0.4,24.6,2.5,74.7,6.5,98.9
	c0.9,5.3,2.8,21.3,2.8,21.3c0.5,4.6,4.4,8.1,9,8l0,0c4.5-0.4,8.1-4.1,8.2-8.7c0,0,0.8-18.5,1.4-24.7c2.2-22.3,9.5-66.6,10-89
	c0.3-13.5-2.3-54.8-2.3-54.8C147.7,239.4,138.7,236.7,130.8,236.7L130.8,236.7z"/>
<path class="st5" d="M256.9,226.5c8.9-2.4,15.4,1.1,18.8,8.7c0,0,11.4,33.2,15.5,48.2c6.6,24,17.3,120.8,17.3,120.8
	c0.6,4.8,1.5,11.3-2.8,12.3l0,0c-4.3,1-9.9-0.3-11.3-4.9c0,0-32.5-87.8-38.8-109.7c-3.7-13.2-11.8-54.4-11.8-54.4
	C241.4,234,249.4,228.8,256.9,226.5L256.9,226.5z"/>
<path class="st6" d="M131.1,413.7L131.1,413.7c-4.2,0.2-8,2.7-9.6,6.6l0,0c-4,8.9-20.8,20.9-20.8,20.9c-3.1,2.6-4.5,6.6-3.8,10.6
	l0,0l41.1-0.2l2.3-0.7c2.7-1,4.4-3.6,4.1-6.5l-2.4-21.7C140.9,417.5,136.4,413.7,131.1,413.7z"/>
<path class="st0" d="M98,451.7L98,451.7c-0.6-3.5,1.6-6.8,5.1-7.5l24.4-3.9c3.2-0.4,6.2,1.7,6.9,4.9l1.4,6.2L98,451.7z"/>
<path class="st7" d="M122.4,422.3c0,0,3.2-2.5,6-2.6c2.4,0.1,4.8,0.8,6.8,2.1"/>
<path class="st7" d="M119.5,427.2c0,0,3.2-2.4,6.1-2.4c2.4,0.1,4.8,0.9,6.8,2.2"/>
<path class="st6" d="M301.5,413.6c4.2-2.2,3.7-6.2,5.2-8.5c1-1.4,5.2-3.2,5.9-1.5c8.5,19.1,43.3,27.6,43.3,27.6
	c3.8,3,4.9,7.6,4.5,12.4l0,0c0,0-29.5,11.5-45.7,1.3c-3.2-2-11.4-2.6-11.4-2.6s-14.5,0.8-14-5.1l0.7-26.7
	C290.9,403.9,294.3,417.3,301.5,413.6z"/>
<path class="st0" d="M360.8,443.5c0.1-7.8-3.7-12.5-4.8-12.2c-1.7,0.4-4.3,2.4-5.9,2.9c-2.7,0.8-10.8,0.5-10.8,0.5
	c-2.1-0.1-3.7,2.7-3.6,6.4l0.3,7.5c0,0,5,0.5,16.6-2.6C354.5,445.5,360.8,443.5,360.8,443.5z"/>
<path class="st7" d="M317.7,413.5c-1.8,1.1-3.9,1.9-6,2.3"/>
<path class="st7" d="M321.8,417.5c-1.8,1.3-3.8,2.2-5.8,2.8"/>
<path class="st8" d="M154.9,405.5c0,0-3.4-109-3.9-113.4s24.8-185.7,24.8-185.7l0,0c0,0-6.4,1.1-3.1,9.7s68.6,151.5,68.6,151.5
	S273.6,403,275,406.9s37.9-18.6,37.9-18.6l-23.5-125.2l-8-32.3L227.9,62.7l-2.6-45.1c-0.3-5.8-4.8-10.4-10.5-10.9
	c-25.2-2.4-89.7-7.7-89.7,1c0,10.8-10.5,34-13.1,49.1c-6.1,35.3-6.1,109.7-6.1,109.7l4.3,235.2l21.9,2.5"/>
<path class="st8" d="M151.6,414.7l-40.7-1.9c-1.6-0.1-2.8-1.6-2.7-3.4l0.2-3.3c0.1-1.8,1.5-3.2,3-3.2l40.7,1.9
	c1.6,0.1,2.8,1.6,2.7,3.4l-0.2,3.3C154.6,413.4,153.3,414.7,151.6,414.7z"/>
<path class="st9" d="M154,409.9l-44.3-2.1c-1.6-0.1-2.8-1.6-2.7-3.4l0.2-4.7c0.1-1.8,1.5-3.2,3-3.2l44.3,2.1
	c1.6,0.1,2.8,1.6,2.7,3.4l-0.2,4.7C157,408.5,155.6,409.9,154,409.9z"/>
<path class="st8" d="M314.3,402.4l-35.6,10.5c-1.6,0.5-3.3-0.6-3.9-2.3l-0.9-3.2c-0.5-1.7,0.4-3.6,2-4l35.6-10.5
	c1.6-0.5,3.3,0.6,3.9,2.3l0.9,3.2C316.8,400.1,315.9,401.9,314.3,402.4z"/>
<path class="st9" d="M314.8,397.2L276,408.6c-1.6,0.5-3.3-0.6-3.9-2.3l-1.3-4.5c-0.5-1.7,0.4-3.6,2-4l38.8-11.4
	c1.6-0.5,3.3,0.6,3.9,2.3l1.3,4.5C317.4,394.8,316.5,396.7,314.8,397.2z"/>
</svg>
