<?xml version="1.0" encoding="utf-8"?>
<!-- Generator: Adobe Illustrator 26.0.2, SVG Export Plug-In . SVG Version: 6.00 Build 0)  -->
<svg version="1.1" id="Layer_1" xmlns="http://www.w3.org/2000/svg" xmlns:xlink="http://www.w3.org/1999/xlink" x="0px" y="0px"
	 viewBox="0 0 788 1005" style="enable-background:new 0 0 788 1005;" xml:space="preserve">
<style type="text/css">
	.st0{fill:#0F0706;}
	.st1{fill:#A85B3B;}
	.st2{fill:#854532;}
	.st3{fill:#7EA885;}
</style>
<g>
	<path class="st0" d="M438.5,103.2c0,23.6-19,42.7-42.4,42.7s-42.4-19.1-42.4-42.7s19-40.9,42.4-40.9S438.5,79.6,438.5,103.2z"/>
	<g id="Calque_9">
		<path class="st1" d="M360,121.6l-3.9-2.6c-0.9-0.6-2.1-0.5-3,0.2l-2.3,2c-0.6,0.5-0.9,1.3-0.9,2l0.9,12.2c0,0.4,0.2,0.8,0.4,1.2
			c1.2,1.8,5.1,7.9,5.7,8.7c0.3,0.5,1.8,1,3.1,1.3c1.3,0.3,2.7-0.5,3-1.8l2.8-11.7c0.1-0.6,0.1-1.2-0.2-1.7l-4.6-8.9
			C360.6,122.1,360.4,121.8,360,121.6z"/>
		<path class="st1" d="M429.5,121.6l4.7-2.7c1-0.6,2.3-0.4,3,0.5l1.6,1.8c0.5,0.5,0.7,1.2,0.6,1.8l-0.9,12.4c0,0.4-0.2,0.8-0.4,1.2
			c-1.2,1.8-5.1,7.9-5.7,8.7c-0.3,0.5-1.8,1-3.1,1.3c-1.3,0.3-2.7-0.5-3-1.8l-2.8-11.7c-0.1-0.6-0.1-1.2,0.2-1.7l4.6-8.8
			C428.8,122.2,429.1,121.8,429.5,121.6z"/>
		<path class="st1" d="M429.4,90.6c-1.4-6.8-2.3-3.4-7.7-7.7l-4.2-3.5c-4.8-3.9-10.8-6.3-17-6.7l-5.6-0.3h-0.1l-5.6,0.3
			c-6.2,0.4-12.2,2.7-17,6.7l-4.3,3.5c-5.3,4.4-7,4.1-8.4,10.8c-0.5,2.5-4.5,6.1-4.5,10c-0.1,5.7,4.4,15.8,4.4,15.8v8l0.2,1.1
			l3.7,25.3c0.4,2.7,1.6,5.2,3.4,7.3c0,0,12.2,11.4,16.5,14.9c1.6,1.3,10.6,2.8,11.6,3l0,0h0.1l0.9-0.2l0.6-0.1
			c2.9-0.5,8.8-1.7,10.1-2.8c4.4-3.4,16.5-14.9,16.5-14.9c1.8-2,3-4.6,3.4-7.3l3.7-25.5l0.1-0.9v-8c0,0,2.9-11,2.7-14.8
			S429.9,93.1,429.4,90.6z"/>
		<path class="st2" d="M394.9,145.9l4.2-1.6c0,0,0.7-0.4,1.5-0.9c1.3-0.7,2.9-1.6,2.9-1.7c0.3,0.1,0.6,0.3,0.9,0.4L403,143l-1.6,0.8
			h2l2.6-2.1v-1.4h-2.2l-7.1,2.5h-1.8V145.9z"/>
		<path class="st2" d="M394.9,145.9l-4.2-1.6l-1.5-0.9c-1.3-0.7-2.9-1.6-2.9-1.7c-0.3,0.1-0.6,0.3-0.9,0.4l1.5,0.8l1.6,0.8h-2
			l-2.6-2.1v-1.4h2.2l7.1,2.5h1.8L394.9,145.9z"/>
		<path class="st2" d="M428.3,140.3l1.9-13.2c0,0,4.7-4.7,5.1-4.8s0.6,2,0.6,2l-1.1,9.4l-2.7,4.7L428.3,140.3z"/>
		<path class="st2" d="M361.4,141.3l-1.9-13.2c0,0-4.7-4.7-5.1-4.8s-0.6,2-0.6,2l1.1,9.4l2.7,4.7L361.4,141.3z"/>
	</g>
	<path class="st0" d="M359.3,121.1c0,0-3.2-26,3.3-23.2c0-0.1-0.5-8-0.5-8s22.8-1.8,32.9-2c0.1-0.3-0.4-17.1-0.4-17.1l-23.3,3.5
		l-16.4,22.4l-0.2,14.8L359.3,121.1z"/>
	<path class="st0" d="M430.2,121.2c0,0,2.5-26.4-3.9-23.6c0-0.1,0.5-6.5,0.5-6.5s-11.7-4.9-22.8-3.9c-0.2,0,5.4-7.1,5.1-7
		c-0.3,0-6.9,7.2-7.2,7.2c-0.4,0-7.8,0.5-8,0.5c-0.1-0.3,0.7-20.7,0.7-20.7l32.5,11.5l4.5,17.4l4.7,12.9L430.2,121.2z"/>
	<path d="M355.6,110.5L352.2,98c0.1-0.5,1.8-3.4,2.2-3.5l5.5-10.8c-13-6.9,46.5-10.1,49.7-3.7l12.2,3.5c0.2,0.1,7.7,5.7,7.9,5.9
		l3.7,18.3c0.3,0.5,0.8,0.8,1.4,0.6l5.6-1.6c0.9-0.3,1.3-1.6,0.7-2.4l-0.8-1.1c-0.4-0.5-0.4-1.2-0.1-1.7l2.7-5.1
		c0.2-0.4,0.6-0.7,1.1-0.7l6-0.1c1,0,1.6-1.4,1-2.3l-2.2-3.5c-0.4-0.6-0.3-1.5,0.2-2l12-11.1c0.8-0.7,0.6-2.1-0.3-2.5l-5-2.3
		c-0.3-0.1-0.5-0.3-0.6-0.6l-8.6-16.1c-0.4-0.8-1.4-0.9-1.9-0.3l-3.3,3.5c-0.4,0.4-1,0.5-1.5,0.2l-6.4-4.5c-1-0.7-2.3,0.5-1.8,1.8
		l0,0c0.2,0.7,0,1.5-0.6,1.8l-1.2,0.7c-0.5,0.3-1,0.2-1.4-0.2l-4-4c-0.2-0.2-0.4-0.5-0.4-0.9l-1.7-12.8c-0.1-1-1.1-1.6-1.9-1.1
		l-10.3,6.7c-0.6,0.4-1.3,0.2-1.7-0.5l-4.3-7.8c-0.4-0.7-1.2-0.9-1.8-0.4l-4.5,3.7c-0.6,0.5-1.3,0.3-1.8-0.3l-3.3-4.9
		c-0.5-0.8-1.5-0.8-2,0l-1.4,2.1c-0.2,0.3-0.5,0.5-0.9,0.5L373,40.3c-1,0.1-1.5,1.4-0.9,2.3l0.7,1.2c0.4,0.7,0.2,1.6-0.4,2.1
		L354.1,59c-0.6,0.4-1.3,0.2-1.7-0.4l-3.9-6.1c-0.6-0.9-1.9-0.7-2.2,0.4l-2.2,6.7c-0.3,0.8-1,1.2-1.7,0.8l-2.1-1
		c-0.9-0.4-1.8,0.3-1.8,1.4l0.6,20.3c0,0.5-0.2,1.1-0.6,1.3l-7.5,5c-0.8,0.5-0.9,1.9-0.1,2.5l11,8c0.4,0.3,0.6,0.8,0.6,1.3l-0.3,5.7
		c0,0.7,0.4,1.4,1,1.5l7.9,1.7c0.3,0.1,0.6,0.3,0.8,0.6l1.4,2.2C354,111.9,355.3,111.7,355.6,110.5z"/>
	<path class="st0" d="M354.1,110.8l-1.8-4c-0.1-0.3-0.3-0.5-0.6-0.6l-6.1-2.1c-0.5-0.2-0.8-0.7-0.7-1.3l1-8.1c0-0.3,0-0.7-0.2-1l0,0
		c-0.4-0.6-0.2-1.6,0.4-1.9l9.5-4.7c0.3-0.2,0.6-0.5,0.6-1l1.4-19c0.1-0.9,0.9-1.4,1.5-0.9l7.3,5.9c0.5,0.4,1.2,0.1,1.5-0.6
		l3.1-11.4c0.1-0.5,0.5-0.8,0.9-0.8h12c0.5,0,1-0.5,1-1.2v-3.8c0-0.9,0.8-1.5,1.4-1l10.7,7c0.3,0.2,0.8,0.2,1.1-0.1l4.2-4.1
		c0.6-0.6,1.4-0.2,1.6,0.7l0.8,4.9c0.1,0.7,0.7,1.1,1.3,0.9l10.2-4.3c0.6-0.3,1.3,0.3,1.3,1.1v4.8c0,0.6,0.3,1.1,0.8,1.2l13,2.5
		c0.5,0.1,0.8,0.6,0.8,1.2V76c0,0.8,0.6,1.4,1.3,1.1l3.9-1.5c0.7-0.3,1.4,0.5,1.2,1.4l-0.7,4.4c-0.1,0.6,0.2,1.2,0.7,1.4l6.1,1.6
		c0.2,0.1,0.4,0.2,0.5,0.4l3.1,4.2c0.5,0.7,0.2,1.8-0.6,2l-5.1,1c-0.3,0.1-0.6,0.3-0.7,0.6l-2.8,7c-0.1,0.3-0.1,0.8,0,1.1l1,2.3
		c0.2,0.5,0.1,1-0.2,1.4L436,109c-0.4,0.5-1,0.4-1.4-0.1l-8-23.2l-30.4-9.2c-0.1,0-41.5,0.8-36.7,14.6l-3.7,10.5
		c-0.2,0.1,1.4,3.9,1.3,4.1l-1.2,5.2C355.3,111.7,354.4,111.6,354.1,110.8z"/>
</g>
<path class="st3" d="M357.8,101.1l12-4.3c14.9-5.3,31.8-5.5,46.8-0.6l14.8,4.9c2.8,0.9,5.9-0.4,6.7-2.8l2.7-9.1
	c0.9-3.2-9.4-10.9-17-15.9c-5.3-3.6-11.5-5.8-18.1-6.5c-6.2-0.7-12.4-0.7-18.6-0.2c-5.9,0.5-11.5,2.3-16.4,5.2
	c-9.3,5.4-24.4,14.6-23.4,17.1l4,9.7C352,100.9,355.1,102.1,357.8,101.1z"/>
</svg>
