<?xml version="1.0" encoding="utf-8"?>
<!-- Generator: Adobe Illustrator 26.0.2, SVG Export Plug-In . SVG Version: 6.00 Build 0)  -->
<svg version="1.1" id="Layer_1" xmlns="http://www.w3.org/2000/svg" xmlns:xlink="http://www.w3.org/1999/xlink" x="0px" y="0px"
	 viewBox="0 0 188 167.8" style="enable-background:new 0 0 188 167.8;" xml:space="preserve">
<style type="text/css">
	.st0{fill:#772A1F;}
	.st1{fill:#A85B3B;}
	.st2{fill:#3E322E;}
	.st3{fill:#854532;}
	.st4{fill:#893024;}
	.st5{fill:#913323;}
	.st6{fill:none;stroke:#26130D;stroke-miterlimit:10;}
</style>
<g>
	<polygon class="st0" points="46.4,86.3 55.2,89.1 134.8,87.3 144,84.9 103.7,64.8 59.1,66.6 	"/>
	<g id="Calque_9_00000121995915085350021650000014798033696199927430_">
		<path class="st1" d="M60.3,101.7l-4.9-3.3c-0.5-0.3-1.1-0.3-1.5,0.1l-3.5,3c-0.3,0.3-0.5,0.7-0.4,1.1l0.9,13.1
			c0,0.2,0.1,0.4,0.2,0.6c0.9,1.4,5.2,8.1,5.8,9c0.4,0.7,2.8,1.2,4.3,1.6c0.7,0.1,1.3-0.3,1.5-1l3.1-13.3c0.1-0.3,0-0.6-0.1-0.9
			l-5-9.5C60.6,101.9,60.5,101.8,60.3,101.7z"/>
		<path class="st1" d="M129.3,101.7l5.8-3.3c0.5-0.3,1.2-0.2,1.6,0.3l2.6,2.8c0.2,0.3,0.4,0.6,0.3,0.9l-0.9,13.2
			c0,0.2-0.1,0.4-0.2,0.6c-0.9,1.4-5.2,8.1-5.8,9c-0.4,0.7-2.8,1.2-4.3,1.6c-0.7,0.1-1.3-0.3-1.5-1l-3.1-13.3
			c-0.1-0.3,0-0.6,0.1-0.9l4.9-9.5C128.9,102,129.1,101.8,129.3,101.7z"/>
		<path class="st1" d="M132.1,80c-1.4-6.8-5-12.9-10.4-17.2l-4.2-3.5c-4.8-3.9-10.8-6.3-17-6.7l-5.6-0.3h-0.1l-5.6,0.3
			C83,53,77,55.3,72.2,59.3l-4.3,3.5c-5.3,4.4-9,10.4-10.4,17.2c-0.5,2.5-0.9,4.5-0.9,4.6c0,0.5,2.7,14.8,2.7,14.8v8l0.2,1.1
			l3.7,25.3c0.4,2.7,1.6,5.2,3.4,7.3c0,0,12.2,11.4,16.5,14.9c1.6,1.3,10.6,2.8,11.6,3l0,0h0.1l0.9-0.2l0.6-0.1
			c2.9-0.5,8.8-1.7,10.1-2.8c4.4-3.4,16.5-14.9,16.5-14.9c1.8-2,3-4.6,3.4-7.3l3.7-25.5l0.1-0.9v-8c0,0,2.7-14.3,2.7-14.8
			C133,84.4,132.6,82.4,132.1,80z"/>
		<path class="st2" d="M90.8,123.3l-4.9-2.1l-0.9,0.9c0,0,3.1,1.8,3.5,1.9s3.8,0,3.8,0L90.8,123.3z"/>
		<path class="st2" d="M98.4,123.3l4.9-2.1l1.6,0.9c-0.6,0.6-1.3,1.2-2.1,1.7c-0.5,0.1-1,0.1-1.5,0.1L98.4,123.3z"/>
		<path class="st3" d="M95,125.8l4.2-1.6c0,0,0.7-0.4,1.5-0.9c1.3-0.7,2.9-1.6,2.9-1.7c0.3,0.1,0.6,0.3,0.9,0.4l-1.5,0.8l-1.6,0.8h2
			l2.6-2.1v-1.4h-2.2l-7.1,2.5H95V125.8z"/>
		<path class="st3" d="M95,125.8l-4.2-1.6l-1.5-0.9c-1.3-0.7-2.9-1.6-2.9-1.7c-0.3,0.1-0.6,0.3-0.9,0.4l1.5,0.8l1.6,0.8h-2l-2.6-2.1
			v-1.4h2.2l7.1,2.5h1.8L95,125.8z"/>
		<path class="st3" d="M128.3,120.2l1.9-13.2c0,0,4.7-4.7,5.1-4.8s0.6,2,0.6,2l-1.1,9.4l-2.7,4.7L128.3,120.2z"/>
		<path class="st3" d="M61.4,121.2L59.5,108c0,0-4.7-4.7-5.1-4.8s-0.6,2-0.6,2l1.1,9.4l2.7,4.7L61.4,121.2z"/>
	</g>
	<g id="Calque_1_00000080895405176091649440000017744730335764095129_">
		<path d="M59.6,101.2L58,92.3c-0.8-4.4-0.1-9,1.9-13L68,63.7l27.8,3.1c0,0,27.8-1.6,28.2-1.2c0.2,0.2,3.7,8.1,6.1,13.7
			c1.6,3.6,2,7.7,1.4,11.6l-1.5,8.6l0.1,1.7c0,0,6.4-2.8,6-3.4c-0.2-0.3,0.7-6.9,1.4-11.8c0.5-3.4,0.6-6.8,0.4-10.3l-12.5-27.4H65.2
			L52.9,74.9c-0.6,4.9-0.5,9.9,0.3,14.8l1.4,8.2L59.6,101.2z"/>
	</g>
	<path class="st4" d="M53.7,64.8c0,0,8.5-20.3,12.1-22.8c3.7-2.5,29.2-5.7,29.2-5.7s25.2,3.2,27.1,4.3c2,1.1,15.9,25,15.9,25
		l-43.2-4.2L53.7,64.8z"/>
	<path class="st5" d="M46.7,86.4c0,0,20.6-10.3,48.5-10.5s47.4,9.2,47.4,9.2s2,0.3,2-1c0-1-5-14.3-7.2-20.1
		c-0.7-1.8-1.9-3.1-3.4-3.7c-5.4-2.1-19.9-6.9-38.8-7.1c-19.3-0.2-33.2,4.1-38,5.9c-1.2,0.4-2.2,1.4-2.8,2.8
		C51.5,68.3,43.5,87,46.7,86.4z"/>
	<path class="st6" d="M130.3,123.6c0.4-0.2,0.8-0.4,1.3-0.3c1.2,0.1,2,1.3,1.9,2.7c-0.1,1.4-1.2,2.4-2.4,2.3
		c-0.9-0.1-1.6-0.8-1.8-1.7"/>
	<path class="st6" d="M59,123.5c-0.4-0.2-0.8-0.4-1.3-0.3c-1.2,0.1-2,1.3-1.9,2.7s1.2,2.4,2.4,2.3c0.9-0.1,1.6-0.8,1.8-1.7"/>
</g>
</svg>
