<?xml version="1.0" encoding="utf-8"?>
<!-- Generator: Adobe Illustrator 26.0.2, SVG Export Plug-In . SVG Version: 6.00 Build 0)  -->
<svg version="1.1" id="Layer_1" xmlns="http://www.w3.org/2000/svg" xmlns:xlink="http://www.w3.org/1999/xlink" x="0px" y="0px"
	 viewBox="0 0 788 1005" style="enable-background:new 0 0 788 1005;" xml:space="preserve">
<style type="text/css">
	.st0{fill:#A85B3B;}
	.st1{fill:#854532;}
	.st2{opacity:0.92;enable-background:new    ;}
</style>
<g>
	<g id="Calque_9">
		<path class="st0" d="M360.2,121.7l-4.6-3.1c-0.6-0.4-1.4-0.4-2,0.1l-3.1,2.6c-0.4,0.3-0.6,0.9-0.6,1.4l0.9,12.8
			c0,0.3,0.1,0.5,0.3,0.8c1,1.6,5.2,8,5.8,8.9c0.4,0.6,2.4,1.1,3.9,1.5c0.9,0.2,1.8-0.4,2-1.3l3-12.7c0.1-0.4,0-0.8-0.1-1.2
			l-4.9-9.3C360.6,122.1,360.4,121.9,360.2,121.7z"/>
		<path class="st0" d="M429.3,121.7l5.5-3.1c0.7-0.4,1.5-0.2,2.1,0.3l2.3,2.5c0.3,0.3,0.5,0.8,0.4,1.2l-0.9,13
			c0,0.3-0.1,0.5-0.3,0.8c-1,1.6-5.2,8-5.8,8.9c-0.4,0.6-2.4,1.1-3.9,1.5c-0.9,0.2-1.8-0.4-2-1.3l-3-12.7c-0.1-0.4,0-0.8,0.1-1.2
			l4.8-9.2C428.8,122.1,429.1,121.9,429.3,121.7z"/>
		<path class="st0" d="M432.1,100.1c-1.4-6.8-5-12.9-10.4-17.2l-4.2-3.5c-4.8-3.9-10.8-6.3-17-6.7l-5.6-0.3h-0.1l-5.6,0.3
			c-6.2,0.4-6.2-11.7-11-7.8L368,82.8c-5.3,4.4-9,10.4-10.4,17.2c-0.5,2.5-0.9,4.5-0.9,4.6c0,0.5,2.7,14.8,2.7,14.8v8l0.2,1.1
			l3.7,25.3c0.4,2.7,1.6,5.2,3.4,7.3c0,0,12.2,11.4,16.5,14.9c1.6,1.3,10.6,2.8,11.6,3l0,0h0.1l0.9-0.2l0.6-0.1
			c2.9-0.5,8.8-1.7,10.1-2.8c4.4-3.4,16.5-14.9,16.5-14.9c1.8-2,3-4.6,3.4-7.3l3.7-25.5l0.1-0.9v-8c0,0,2.7-14.3,2.7-14.8
			C433,104.5,432.6,102.5,432.1,100.1z"/>
		<path class="st1" d="M394.9,145.9l4.2-1.6c0,0,0.7-0.4,1.5-0.9c1.3-0.7,2.9-1.6,2.9-1.7c0.3,0.1,0.6,0.3,0.9,0.4L403,143l-1.6,0.8
			h2l2.6-2.1v-1.4h-2.2l-7.1,2.5h-1.8V145.9z"/>
		<path class="st1" d="M394.9,145.9l-4.2-1.6l-1.5-0.9c-1.3-0.7-2.9-1.6-2.9-1.7c-0.3,0.1-0.6,0.3-0.9,0.4l1.5,0.8l1.6,0.8h-2
			l-2.6-2.1v-1.4h2.2l7.1,2.5h1.8L394.9,145.9z"/>
		<path class="st1" d="M428.3,140.3l1.9-13.2c0,0,4.7-4.7,5.1-4.8s0.6,2,0.6,2l-1.1,9.4l-2.7,4.7L428.3,140.3z"/>
		<path class="st1" d="M361.9,141.3l-1.9-13.2c0,0-4.7-4.7-5.1-4.8s-0.6,2-0.6,2l1.1,9.4l2.7,4.7L361.9,141.3z"/>
	</g>
	<path d="M359.3,123.4L353.4,86c0,0,10.1-28.4,43.3-27.6c33.2,0.8,39.4,25,39.4,25l-5.9,37.7L427,88.4c0,0-32.9-13.6-63.3-1.6
		L359.3,123.4z"/>
	<path class="st2" d="M359.3,123.4l4,31.4c0,0,0.8,4.1,3.2,6.4s14.8,14.1,16.5,14.9s9.2,3,11.7,3s10.4-2,11.6-3s16.5-14.9,16.5-14.9
		s2.8-3.1,3.4-7.3s3.8-26.8,3.8-26.8v-5.9l-2.7,12.4c-0.1,0.3-0.2,0.6-0.4,0.9l-12.5,20.6c-0.4,0.6-0.6,1.3-0.8,2l-1.3,7.2
		c-0.1,0.7-0.5,1.4-1.1,1.8l-7.2,5.7c-0.4,0.3-1,0.6-1.5,0.6l-2,0.2c-1.2,0.1-2.4-0.5-3-1.6l-1.8-3.5c-0.2-0.5-0.7-0.8-1.3-0.9h-0.2
		c-0.6-0.1-1.2,0.2-1.5,0.8l-1.5,3.2c-0.7,1.6-2.7,2.2-4.2,1.3l-6-3.5c-0.8-0.5-1.4-1.4-1.5-2.3l-0.5-6.4c-0.1-1-0.4-2-1-2.9
		l-14.4-20.9c-0.1-0.2-0.2-0.4-0.3-0.6L359.3,123.4z"/>
</g>
</svg>
