<?xml version="1.0" encoding="utf-8"?>
<!-- Generator: Adobe Illustrator 26.0.2, SVG Export Plug-In . SVG Version: 6.00 Build 0)  -->
<svg version="1.1" id="Layer_1" xmlns="http://www.w3.org/2000/svg" xmlns:xlink="http://www.w3.org/1999/xlink" x="0px" y="0px"
	 viewBox="0 0 788 1005" style="enable-background:new 0 0 788 1005;" xml:space="preserve">
<style type="text/css">
	.st0{fill:#A85B3B;}
	.st1{fill:#3E322E;}
	.st2{fill:#854532;}
</style>
<g>
	<path d="M437.4,98.6c0,23.6-19,42.7-42.4,42.7s-42.4-19.1-42.4-42.7s19-40.9,42.4-40.9S437.4,75,437.4,98.6z"/>
	<g id="Calque_9">
		<path class="st0" d="M360,121.6l-4-2.6c-0.9-0.6-2.1-0.5-2.9,0.2l-2.4,2c-0.6,0.5-0.9,1.3-0.8,2l0.9,12.3c0,0.4,0.2,0.8,0.4,1.1
			c1.2,1.8,5.1,7.9,5.7,8.7c0.3,0.5,1.8,1,3.1,1.3c1.3,0.3,2.6-0.5,2.9-1.8l2.8-11.7c0.1-0.6,0.1-1.2-0.2-1.7l-4.6-8.9
			C360.6,122.1,360.4,121.8,360,121.6z"/>
		<path class="st0" d="M429.5,121.6l4.7-2.7c1-0.6,2.2-0.4,3,0.5l1.6,1.8c0.4,0.5,0.7,1.1,0.6,1.8l-0.9,12.4c0,0.4-0.2,0.8-0.4,1.1
			c-1.2,1.8-5.1,7.9-5.7,8.7c-0.3,0.5-1.8,1-3.1,1.3c-1.3,0.3-2.6-0.5-2.9-1.8l-2.8-11.7c-0.1-0.6-0.1-1.2,0.2-1.7l4.6-8.8
			C428.8,122.2,429.1,121.8,429.5,121.6z"/>
		<path class="st0" d="M432.1,100.1c-1.4-6.8-5-12.9-10.4-17.2l-4.2-3.5c-4.8-3.9-10.8-6.3-17-6.7l-5.6-0.3h-0.1l-5.6,0.3
			c-6.2,0.4-12.2,2.7-17,6.7l-4.3,3.5c-5.3,4.4-9,10.4-10.4,17.2c-0.5,2.5-0.9,4.5-0.9,4.6c0,0.5,2.7,14.8,2.7,14.8v8l0.2,1.1
			l3.7,25.3c0.4,2.7,1.6,5.2,3.4,7.3c0,0,12.2,11.4,16.5,14.9c1.6,1.3,10.6,2.8,11.6,3l0,0h0.1l0.9-0.2l0.6-0.1
			c2.9-0.5,8.8-1.7,10.1-2.8c4.4-3.4,16.5-14.9,16.5-14.9c1.8-2,3-4.6,3.4-7.3l3.7-25.5l0.1-0.9v-8c0,0,2.7-14.3,2.7-14.8
			C433,104.5,432.6,102.5,432.1,100.1z"/>
		<path class="st1" d="M390.7,143.4l-4.9-2.1l-0.9,0.9c0,0,3.1,1.8,3.5,1.9s3.8,0,3.8,0L390.7,143.4z"/>
		<path class="st1" d="M398.3,143.4l4.9-2.1l1.6,0.9c-0.6,0.6-1.3,1.2-2.1,1.7c-0.5,0.1-1,0.1-1.5,0.1L398.3,143.4z"/>
		<path class="st2" d="M394.9,145.9l4.2-1.6c0,0,0.7-0.4,1.5-0.9c1.3-0.7,2.9-1.6,2.9-1.7c0.3,0.1,0.6,0.3,0.9,0.4L403,143l-1.6,0.8
			h2l2.6-2.1v-1.4h-2.2l-7.1,2.5h-1.8V145.9z"/>
		<path class="st2" d="M394.9,145.9l-4.2-1.6l-1.5-0.9c-1.3-0.7-2.9-1.6-2.9-1.7c-0.3,0.1-0.6,0.3-0.9,0.4l1.5,0.8l1.6,0.8h-2
			l-2.6-2.1v-1.4h2.2l7.1,2.5h1.8L394.9,145.9z"/>
		<path class="st2" d="M428.3,140.3l1.9-13.2c0,0,4.7-4.7,5.1-4.8s0.6,2,0.6,2l-1.1,9.4l-2.7,4.7L428.3,140.3z"/>
		<path class="st2" d="M361.4,141.3l-1.9-13.2c0,0-4.7-4.7-5.1-4.8s-0.6,2-0.6,2l1.1,9.4l2.7,4.7L361.4,141.3z"/>
	</g>
	<path d="M359.3,119.5c0,0-2.8-26.3,3.7-23.5c0-0.1-0.5-8-0.5-8s22.4,3.2,32.5,3c0.1-0.3,0-22.1,0-22.1l-30.1,7.5l-7.3,17.8
		l-2.5,15.4L359.3,119.5z"/>
	<path d="M430.4,119.5c0,0,2.7-26.6-3.7-23.8c0-0.1,0.5-6.5,0.5-6.5s-11.2,0.1-22.3,1.1c-0.2,0,4.9-12.1,4.6-12
		c-0.3,0-6.4,12.2-6.7,12.2c-0.4,0-4.7,0.5-5.1,0.5c-0.2,0,9.7-16.5,9.4-16.5c-0.2,0-11.3,16.6-11.5,16.6c-0.3,0-2.1,0-2.3,0
		c-0.1-0.3,1.3-22.1,1.3-22.1l30.1,7.5l7.3,17.8l2.5,15.4L430.4,119.5z"/>
</g>
<ellipse cx="430" cy="145.9" rx="0.7" ry="3"/>
</svg>
