<?xml version="1.0" encoding="utf-8"?>
<!-- Generator: Adobe Illustrator 26.0.2, SVG Export Plug-In . SVG Version: 6.00 Build 0)  -->
<svg version="1.1" id="Layer_1" xmlns="http://www.w3.org/2000/svg" xmlns:xlink="http://www.w3.org/1999/xlink" x="0px" y="0px"
	 viewBox="0 0 188 167.8" style="enable-background:new 0 0 188 167.8;" xml:space="preserve">
<style type="text/css">
	.st0{fill:#A85B3B;}
	.st1{fill:#854532;}
</style>
<g>
	<g id="Calque_9_00000155824912854450107230000001661950941675661187_">
		<path class="st0" d="M60.4,101.4l-4.6-3.1c-0.6-0.4-1.4-0.4-2,0.1l-3.1,2.6c-0.4,0.3-0.6,0.9-0.6,1.4l0.9,12.9
			c0,0.3,0.1,0.5,0.3,0.8c1,1.6,5.2,8,5.8,8.9c0.4,0.6,2.4,1.1,3.9,1.5c0.9,0.2,1.8-0.4,2-1.2l3-12.8c0.1-0.4,0-0.8-0.1-1.1
			l-4.9-9.3C60.8,101.8,60.6,101.6,60.4,101.4z"/>
		<path class="st0" d="M129.5,101.4l5.5-3.1c0.7-0.4,1.5-0.2,2,0.3l2.3,2.5c0.3,0.3,0.5,0.8,0.4,1.2l-0.9,13c0,0.3-0.1,0.5-0.3,0.8
			c-1,1.6-5.2,8-5.8,8.9c-0.4,0.6-2.4,1.1-3.9,1.5c-0.9,0.2-1.8-0.4-2-1.2l-3-12.8c-0.1-0.4,0-0.8,0.1-1.1l4.8-9.2
			C129,101.8,129.2,101.6,129.5,101.4z"/>
		<path class="st0" d="M132.3,79.8c-1.4-6.8-5-12.9-10.4-17.2l6.6-13c-4.8-3.9-21.6,3.2-27.8,2.8L95,52h-0.1l-5.6,0.3
			c-6.2,0.4-12.2,2.7-17,6.7L68,62.5c-5.3,4.4-9,10.4-10.4,17.2c-0.5,2.5-0.9,4.5-0.9,4.6c0,0.5,2.7,14.8,2.7,14.8v8l0.2,1.1
			l3.7,25.3c0.4,2.7,1.6,5.2,3.4,7.3c0,0,12.2,11.4,16.5,14.9c1.6,1.3,10.6,2.8,11.6,3l0,0H95l0.9-0.2l0.6-0.1
			c2.9-0.5,8.8-1.7,10.1-2.8c4.4-3.4,16.5-14.9,16.5-14.9c1.8-2,3-4.6,3.4-7.3l3.7-25.5l0.1-0.9v-8c0,0,2.7-14.3,2.7-14.8
			C133.2,84.2,132.7,82.2,132.3,79.8z"/>
		<path class="st1" d="M95.1,125.6l4.2-1.6c0,0,0.7-0.4,1.5-0.9c1.3-0.7,2.9-1.6,2.9-1.7c0.3,0.1,0.6,0.3,0.9,0.4l-1.5,0.8l-1.6,0.8
			h2l2.6-2.1V120H104l-7.1,2.5h-1.8V125.6z"/>
		<path class="st1" d="M95.1,125.6l-4.2-1.6l-1.5-0.9c-1.3-0.7-2.9-1.6-2.9-1.7c-0.3,0.1-0.6,0.3-0.9,0.4l1.5,0.8l1.6,0.8h-2
			l-2.6-2.1V120h2.2l7.1,2.5h1.8L95.1,125.6z"/>
		<path class="st1" d="M128.5,120l1.9-13.2c0,0,4.7-4.7,5.1-4.8s0.6,2,0.6,2l-1.1,9.4l-2.7,4.7L128.5,120z"/>
		<path class="st1" d="M61.5,121l-1.9-13.2c0,0-4.7-4.7-5.1-4.8s-0.6,2-0.6,2l1.1,9.4l2.7,4.7L61.5,121z"/>
	</g>
	<g id="Calque_6_00000138574580992109259530000004055695868823735972_">
		<path d="M114.1,56.7c0,0-11.9,6.4-17.6,9.3c-4.9,2.5-18.4,0.8-18.4,0.8s-10.6,5.9-13.5,8.5c-5.9,5.3-7,13.5-7,13.5
			s-6.7-17.2-3-26.3C53.2,63.7,78.3,39,78.3,39s9.2-6.5,19.3-5.2c13.3,1.7,18.1,8.9,18.1,8.9s10.3-3.8,18.5,7
			c6.2,8.1,3.5,18.3,3.5,18.3l-5.3,20c0,0-2.3-13.3-2.8-15.7c-0.4-1.4-2.1-1.5-3-2.6c0,0-5.7-6-8-10.7
			C117.9,57.5,114.1,56.7,114.1,56.7z"/>
	</g>
	<path d="M115.3,47.4l-13.4-13.6c-0.1-0.1-0.1-0.1-0.2-0.2c-1.8-1-23.9-12.9-34.4-3.7c-0.6,0.5-0.3,1.4,0.4,1.6
		c2.4,0.6,7.1,1.4,10.9,2.1c1,0.2,1,1.6,0.1,1.8c-8,1.8-22.6,6.6-28,19.4c-0.3,0.7,0.2,1.4,1,1.3c1.7-0.2,4.2-0.3,4.2-0.3
		s-13.8,5.3-12.5,9.4c0.2,0.5,0.8,0.8,1.3,0.5c0,0,0,0,0.1,0c0.9-0.4,1.8,0.6,1.1,1.4c-2.7,3.3-5.4,7.9-2.7,10.7
		c0.3,0.3,0.9,0.4,1.3,0.1c0.8-0.7,2.4-2,3.9-3.3c0.8-0.7,1.9,0.2,1.4,1.1c-3.5,6.3-8.1,16.8-1.7,19.4c0.5,0.2,1,0,1.2-0.5
		c0.4-1,1.2-3,2-5c0.4-1,1.9-0.6,1.8,0.4c-0.5,6.1,0.2,13.6,6.5,12.5c0.5-0.1,0.8-0.5,0.8-0.9c0-2-0.2-7.3-0.3-8.3
		c0-0.1,0-0.2,0-0.3c0.9-2.7,14-41.1,54.8-44C115.5,48.9,115.9,48,115.3,47.4z"/>
	<path d="M111.8,50.2c-1.3-7.8-3.1-24.8,6.4-23.8c0.8,0.1,1.3,0.8,1.2,1.6c-0.1,1.2-0.4,2.9-0.7,4.6c-0.2,1.4,1.5,2.2,2.4,1.2
		c4.3-4.4,11.6-10.1,15.5-2c0.3,0.6,0.1,1.4-0.5,1.8c-1.5,1-4.5,3.1-7.4,5c-1.2,0.8-0.6,2.6,0.8,2.6c0.5,0,1,0,1.5,0.1
		c1.8,0.3,1.3,3-0.5,2.8c-4.5-0.6-11.5-0.1-16.3,6.6C113.7,51.9,112,51.5,111.8,50.2z"/>
	<path d="M114.1,56.7c0,0,29.1,1.6,30.6,27.3c0,0.8-1.3,0.9-2,0.4c-1-0.6-2.5-1.6-3.9-2.6c-1.2-0.8-2.6,0.4-2.1,1.7
		c2.2,5.7,4.2,14.9-4.8,14.9c-0.7,0-1.3-0.5-1.4-1.2c-0.3-1.8-0.8-5.4-1.4-8.8c-0.2-1.4-2.1-1.7-2.7-0.4c-0.2,0.5-0.5,0.9-0.7,1.3
		c-1.1,1.5-3.3-0.1-2.3-1.6C126.1,83.4,121,65,114.1,56.7z"/>
</g>
</svg>
