<?xml version="1.0" encoding="utf-8"?>
<!-- Generator: Adobe Illustrator 26.0.2, SVG Export Plug-In . SVG Version: 6.00 Build 0)  -->
<svg version="1.1" id="Layer_1" xmlns="http://www.w3.org/2000/svg" xmlns:xlink="http://www.w3.org/1999/xlink" x="0px" y="0px"
	 viewBox="0 0 788 1005" style="enable-background:new 0 0 788 1005;" xml:space="preserve">
<style type="text/css">
	.st0{fill:#A85B3B;}
	.st1{fill:#854532;}
</style>
<g>
	<g id="Calque_9_00000070082356873012579230000014676906996546123695_">
		<path class="st0" d="M360.3,121.9l-6-4l-4.7,4l1,14.1c0,0,5.4,8.3,6,9.2s5.5,1.8,5.5,1.8l3.5-14.9L360.3,121.9z"/>
		<path class="st0" d="M428.7,121.9l7.1-4l3.6,4l-1,14.1c0,0-5.4,8.3-6,9.2s-5.5,1.8-5.5,1.8l-3.5-14.9L428.7,121.9z"/>
		<path class="st0" d="M431.8,100c-1.4-6.8-5-12.8-10.4-17.2l-4.2-3.5c-4.8-3.9-10.8-6.3-17-6.6l-5.6-0.4h-0.1l-5.6,0.4
			c-6.2,0.4-12.2,2.7-17,6.6l-4.2,3.5c-5.3,4.4-9,10.4-10.4,17.2c-0.5,2.5-0.9,4.5-0.9,4.6c0,0.5,2.7,14.8,2.7,14.8v8l0.2,1.1
			l3.7,25.4c0.4,2.7,1.6,5.2,3.4,7.3c0,0,12.2,11.4,16.5,14.9c1.6,1.3,10.6,2.8,11.6,3l0,0h0.1l0,0l0.9-0.1l0.6-0.1
			c2.9-0.5,8.8-1.7,10.1-2.7c4.4-3.5,16.6-14.9,16.6-14.9c1.8-2,3-4.6,3.4-7.3l3.7-25.5l0.1-0.9v-8c0,0,2.8-14.3,2.8-14.8
			C432.8,104.5,432.3,102.5,431.8,100z"/>
		<path class="st1" d="M394.7,145.9l4.2-1.6l1.5-0.9c1.3-0.7,2.9-1.6,2.9-1.7l0.9,0.4l-1.4,0.8l-1.6,0.8h2l2.6-2.1v-1.4h-2.2
			l-7.1,2.5h-1.8V145.9z"/>
		<path class="st1" d="M394.7,145.9l-4.2-1.6l-1.5-0.9c-1.3-0.7-2.9-1.6-2.9-1.7l-0.9,0.4l1.5,0.8l1.6,0.8h-2l-2.6-2.1v-1.4h2.2
			l7.1,2.5h1.8L394.7,145.9z"/>
		<path class="st1" d="M428.1,140.3l1.9-13.2c0,0,4.7-4.7,5.1-4.8c0.4-0.1,0.6,2,0.6,2l-1.1,9.4l-2.7,4.7L428.1,140.3z"/>
		<path class="st1" d="M361.1,141.3l-1.9-13.2c0,0-4.7-4.7-5.1-4.8s-0.6,2-0.6,2l1.2,9.4l2.7,4.7L361.1,141.3z"/>
	</g>
	<g id="Calque_1_00000055693544184474128600000011977034299807538316_">
		<path d="M360,122.3l-2.7-15.4c0-0.2,0-0.5,0.1-0.7l10.5-20.8c0.2-0.4,0.6-0.6,1.1-0.6l26.4,3c0.1,0,0.1,0,0.2,0
			c1.6-0.1,27.1-1.6,27.5-1.2c0.4,0.4,7.7,17.2,8.8,19.6c0.1,0.2,0.1,0.4,0.1,0.6l-2.5,14.5v0.9c0,0,3.1-1.6,2.7-2.2
			c-0.2-0.2,2.6-14.8,2.9-16.5c0-0.1,0-0.2,0-0.3L433,83.8c-0.1-0.5-0.5-1-1.1-1h-74.4c-0.6,0-1,0.4-1.1,1l-1.5,20.3
			c0,0.1,0,0.2,0,0.2l2.4,15.2c0,0.2,0.2,0.5,0.3,0.6C357.7,120.2,360,122.3,360,122.3z"/>
	</g>
	<path d="M358.5,84.2c-0.2,0-0.3,0-0.4,0.1c-0.6,0.3-2.6,1-4.2-0.9c-1.9-2.2-0.8-4.3-1-6.3c-0.3-2-5.7-1.5-5.1-4.8s2.2-3.4,3-4.8
		s-1.6-5-0.2-7s4.8-1.5,6.8-2.8s2.5-7.8,4.5-9.3s4.8,1.3,7.4-0.9s2.2-6.5,5.1-8.1s5.2,0.2,6.8-0.7c1.5-0.9,2.7-3.2,6.1-3.2
		s5.7,3.8,7.6,3.8s2.3-4,5.6-2.8c3.3,1.2,3.2,3.7,4.9,4.2s7-2.4,9-1.1c2,1.3,1.3,3.5,2.8,4.3s3.8-1.9,6-0.5s2.1,4.3,3.1,5.5
		s7.8,0.9,9.2,2.8s0.3,4.2,0.7,6.7c0.4,2.4,5.1,3.3,5.6,5c0.5,1.7-1.7,4.7-0.6,6.9c1.1,2.2,1.7,4.7,0.4,6.3s-2.4,2-3.7,3.1
		s-1.5,5.4-3,5.6s-2.7-0.9-5.3-1C427,84.2,363,84.2,358.5,84.2z"/>
</g>
</svg>
