<?xml version="1.0" encoding="utf-8"?>
<!-- Generator: Adobe Illustrator 26.0.2, SVG Export Plug-In . SVG Version: 6.00 Build 0)  -->
<svg version="1.1" id="Layer_1" xmlns="http://www.w3.org/2000/svg" xmlns:xlink="http://www.w3.org/1999/xlink" x="0px" y="0px"
	 viewBox="0 0 788 1005" style="enable-background:new 0 0 788 1005;" xml:space="preserve">
<style type="text/css">
	.st0{fill:#A85B3B;}
	.st1{fill:#3E322E;}
	.st2{fill:#854532;}
	.st3{fill:#1E1E1E;}
</style>
<g>
	<g id="Calque_9">
		<path class="st0" d="M359.8,121.5l-3.2-2.1c-1.3-0.8-2.9-0.7-4.1,0.2l-1.5,1.2c-0.8,0.7-1.3,1.7-1.2,2.8l0.8,11.5
			c0,0.6,0.2,1.1,0.5,1.6c1.3,2,5,7.7,5.5,8.5c0.2,0.4,1.1,0.7,2,1c1.9,0.6,3.8-0.6,4.3-2.5l2.5-10.5c0.2-0.8,0.1-1.6-0.3-2.3
			l-4.4-8.3C360.7,122.2,360.3,121.8,359.8,121.5z"/>
		<path class="st0" d="M429.8,121.4l3.9-2.2c1.4-0.8,3.1-0.5,4.2,0.7l0.9,0.9c0.6,0.7,0.9,1.6,0.9,2.5l-0.8,11.8
			c0,0.6-0.2,1.1-0.5,1.6c-1.3,2-5,7.7-5.5,8.5c-0.2,0.4-1.1,0.7-2,1c-1.9,0.6-3.8-0.6-4.3-2.5l-2.5-10.5c-0.2-0.8-0.1-1.6,0.3-2.3
			l4.3-8.2C428.8,122.2,429.2,121.8,429.8,121.4z"/>
		<path class="st0" d="M432.1,100.1c-1.4-6.8-5-12.9-10.4-17.2l-4.2-3.5c-4.8-3.9-10.8-6.3-17-6.7l-5.6-0.3h-0.1l-5.6,0.3
			c-6.2,0.4-12.2,2.7-17,6.7l-4.3,3.5c-5.3,4.4-9,10.4-10.4,17.2c-0.5,2.5-0.9,4.5-0.9,4.6c0,0.5,2.7,14.8,2.7,14.8v8l0.2,1.1
			l3.7,25.3c0.4,2.7,1.6,5.2,3.4,7.3c0,0,12.2,11.4,16.5,14.9c1.6,1.3,10.6,2.8,11.6,3l0,0h0.1l0.9-0.2l0.6-0.1
			c2.9-0.5,8.8-1.7,10.1-2.8c4.4-3.4,16.5-14.9,16.5-14.9c1.8-2,3-4.6,3.4-7.3l3.7-25.5l0.1-0.9v-8c0,0,2.7-14.3,2.7-14.8
			C433,104.5,432.6,102.5,432.1,100.1z"/>
		<path class="st1" d="M390.7,143.4l-4.9-2.1l-0.9,0.9c0,0,3.1,1.8,3.5,1.9s3.8,0,3.8,0L390.7,143.4z"/>
		<path class="st1" d="M398.3,143.4l4.9-2.1l1.6,0.9c-0.6,0.6-1.3,1.2-2.1,1.7c-0.5,0.1-1,0.1-1.5,0.1L398.3,143.4z"/>
		<path class="st2" d="M394.9,145.9l4.2-1.6c0,0,0.7-0.4,1.5-0.9c1.3-0.7,2.9-1.6,2.9-1.7c0.3,0.1,0.6,0.3,0.9,0.4L403,143l-1.6,0.8
			h2l2.6-2.1v-1.4h-2.2l-7.1,2.5h-1.8V145.9z"/>
		<path class="st2" d="M394.9,145.9l-4.2-1.6l-1.5-0.9c-1.3-0.7-2.9-1.6-2.9-1.7c-0.3,0.1-0.6,0.3-0.9,0.4l1.5,0.8l1.6,0.8h-2
			l-2.6-2.1v-1.4h2.2l7.1,2.5h1.8L394.9,145.9z"/>
		<path class="st2" d="M428.3,140.3l1.9-13.2c0,0,4.7-4.7,5.1-4.8s0.6,2,0.6,2l-1.1,9.4l-2.7,4.7L428.3,140.3z"/>
		<path class="st2" d="M361.4,141.3l-1.9-13.2c0,0-4.7-4.7-5.1-4.8s-0.6,2-0.6,2l1.1,9.4l2.7,4.7L361.4,141.3z"/>
	</g>
	<path d="M360.5,122.3l-2.1-11.6c-0.5-2.7-0.1-5.5,1.2-7.9l9.1-18.1l27.2,3.1c0,0,27.1-1.5,27.5-1.2c0.3,0.3,4.3,9.4,6.8,15.2
		c1.3,3,1.7,6.4,1.2,9.7l-1.7,9.8v0.9c0,0,8.2-9.1,4.7-23.3c-1.2-5.3,0.9-19.4-6.7-29.1c-7-8.8-45.9-11.4-58.7-4
		c-5.3,3.1,0.1,11.4-8.6,22.9c-5,6.5-6.5,14.2-5.3,22C355.6,115,357.6,119,360.5,122.3L360.5,122.3z"/>
	<path class="st3" d="M354.6,81.5c0,0,6.1-15,7.9-17.2c1.9-2.2,3-10.3,6.3-11.8c4.6-2.1,9.6,1.5,13.8,0.1c4.1-1.3,10.1-2.1,12.4-1.7
		c2.2,0.4,5.9,1.8,9.9,1c2.6-0.5,8,0.4,11.5,1c2.2,0.4,4.2,1.5,5.8,3.1c2.1,2.2,4.9,5.5,5.4,8.2c0.9,4.5,9.6,19,9.6,19L354.6,81.5z"
		/>
	<path d="M354.6,103.5c0,0,11.9-8.8,17.1-11.5s23.2-4,23.2-4s20.1,2.5,23.4,4c7.1,3.3,16.6,10.5,16.6,10.5s1,1.4,1.6-0.9
		c0.6-2.2-0.7-2.2-0.1-4.7c0.5-2.5,1.8-11.1,1.6-14.5c-0.2-3.4-8.2-8.8-14.3-9.9S403.2,69,395,69.2s-25.8,1.7-29.3,3.2
		s-11.3,4.3-12,6.4s-0.2,6.7,0,8.6s-0.8,7.1-0.9,8.6C352.6,99,351.4,103,354.6,103.5z"/>
	<circle class="st3" cx="430.2" cy="143.1" r="1.9"/>
	<circle class="st3" cx="359.4" cy="143.2" r="1.9"/>
</g>
</svg>
