<?xml version="1.0" encoding="utf-8"?>
<!-- Generator: Adobe Illustrator 26.0.2, SVG Export Plug-In . SVG Version: 6.00 Build 0)  -->
<svg version="1.1" id="Layer_1" xmlns="http://www.w3.org/2000/svg" xmlns:xlink="http://www.w3.org/1999/xlink" x="0px" y="0px"
	 viewBox="0 0 788 1005" style="enable-background:new 0 0 788 1005;" xml:space="preserve">
<style type="text/css">
	.st0{fill:#A85B3B;}
	.st1{fill:#854532;}
</style>
<g>
	<g id="Calque_9">
		<path class="st0" d="M360.2,121.7l-4.6-3.1c-0.6-0.4-1.4-0.4-2,0.1l-3.1,2.6c-0.4,0.3-0.6,0.9-0.6,1.4l0.9,12.9
			c0,0.3,0.1,0.5,0.3,0.8c1,1.6,5.2,8,5.8,8.9c0.4,0.6,2.4,1.1,3.9,1.5c0.9,0.2,1.8-0.4,2-1.2l3-12.8c0.1-0.4,0-0.8-0.1-1.1
			l-4.9-9.3C360.6,122.1,360.4,121.9,360.2,121.7z"/>
		<path class="st0" d="M429.3,121.7l5.5-3.1c0.7-0.4,1.5-0.2,2,0.3l2.3,2.5c0.3,0.3,0.5,0.8,0.4,1.2l-0.9,13c0,0.3-0.1,0.5-0.3,0.8
			c-1,1.6-5.2,8-5.8,8.9c-0.4,0.6-2.4,1.1-3.9,1.5c-0.9,0.2-1.8-0.4-2-1.2l-3-12.8c-0.1-0.4,0-0.8,0.1-1.1l4.8-9.2
			C428.8,122.1,429.1,121.9,429.3,121.7z"/>
		<path class="st0" d="M432.1,100.1c-1.4-6.8-5-12.9-10.4-17.2l6.6-13c-4.8-3.9-21.6,3.2-27.8,2.8l-5.6-0.3h-0.1l-5.6,0.3
			c-6.2,0.4-12.2,2.7-17,6.7l-4.3,3.5c-5.3,4.4-9,10.4-10.4,17.2c-0.5,2.5-0.9,4.5-0.9,4.6c0,0.5,2.7,14.8,2.7,14.8v8l0.2,1.1
			l3.7,25.3c0.4,2.7,1.6,5.2,3.4,7.3c0,0,12.2,11.4,16.5,14.9c1.6,1.3,10.6,2.8,11.6,3l0,0h0.1l0.9-0.2l0.6-0.1
			c2.9-0.5,8.8-1.7,10.1-2.8c4.4-3.4,16.5-14.9,16.5-14.9c1.8-2,3-4.6,3.4-7.3l3.7-25.5l0.1-0.9v-8c0,0,2.7-14.3,2.7-14.8
			C433,104.5,432.6,102.5,432.1,100.1z"/>
		<path class="st1" d="M394.9,145.9l4.2-1.6c0,0,0.7-0.4,1.5-0.9c1.3-0.7,2.9-1.6,2.9-1.7c0.3,0.1,0.6,0.3,0.9,0.4L403,143l-1.6,0.8
			h2l2.6-2.1v-1.4h-2.2l-7.1,2.5h-1.8V145.9z"/>
		<path class="st1" d="M394.9,145.9l-4.2-1.6l-1.5-0.9c-1.3-0.7-2.9-1.6-2.9-1.7c-0.3,0.1-0.6,0.3-0.9,0.4l1.5,0.8l1.6,0.8h-2
			l-2.6-2.1v-1.4h2.2l7.1,2.5h1.8L394.9,145.9z"/>
		<path class="st1" d="M428.3,140.3l1.9-13.2c0,0,4.7-4.7,5.1-4.8s0.6,2,0.6,2l-1.1,9.4l-2.7,4.7L428.3,140.3z"/>
		<path class="st1" d="M361.4,141.3l-1.9-13.2c0,0-4.7-4.7-5.1-4.8s-0.6,2-0.6,2l1.1,9.4l2.7,4.7L361.4,141.3z"/>
	</g>
	<g id="Calque_6">
		<path d="M413.9,77c0,0-11.9,6.4-17.6,9.3c-4.9,2.5-18.4,0.8-18.4,0.8s-10.6,5.9-13.5,8.5c-5.9,5.3-7,13.5-7,13.5s-6.7-17.2-3-26.3
			c-1.5,1.2,23.5-23.4,23.5-23.4s9.2-6.5,19.3-5.2c13.3,1.7,18.1,8.9,18.1,8.9s10.3-3.8,18.5,7c6.2,8.1,3.5,18.3,3.5,18.3l-5.2,19.9
			c0,0-2.3-13.3-2.8-15.7c-0.4-1.4-2.1-1.5-3-2.6c0,0-5.7-6-8-10.7C417.7,77.8,413.9,77,413.9,77z"/>
	</g>
	<path d="M415.1,67.7l-13.4-13.6c-0.1-0.1-0.1-0.1-0.2-0.2c-1.8-1-23.9-12.9-34.4-3.7c-0.6,0.5-0.3,1.4,0.4,1.6
		c2.4,0.6,7.1,1.4,10.9,2.1c1,0.2,1,1.6,0.1,1.8c-8,1.8-22.6,6.6-28,19.4c-0.3,0.7,0.2,1.4,1,1.3c1.7-0.2,4.2-0.3,4.2-0.3
		s-13.8,5.3-12.5,9.4c0.2,0.5,0.8,0.8,1.3,0.5c0,0,0,0,0.1,0c0.9-0.4,1.8,0.6,1.1,1.4c-2.7,3.3-5.4,7.9-2.7,10.7
		c0.3,0.3,0.9,0.4,1.3,0.1c0.8-0.7,2.4-2,3.9-3.3c0.8-0.7,1.9,0.2,1.4,1.1c-3.5,6.3-8.1,16.8-1.7,19.4c0.5,0.2,1,0,1.2-0.5
		c0.4-1,1.2-3,2-5c0.4-1,1.9-0.6,1.8,0.4c-0.5,6.1,0.2,13.6,6.5,12.5c0.5-0.1,0.8-0.5,0.8-0.9c0-2-0.2-7.3-0.3-8.3
		c0-0.1,0-0.2,0-0.3c0.9-2.7,14-41.1,54.8-44C415.3,69.2,415.7,68.3,415.1,67.7z"/>
	<path d="M411.6,70.5c-1.3-7.8-3.1-24.8,6.4-23.8c0.8,0.1,1.3,0.8,1.2,1.6c-0.1,1.2-0.4,2.9-0.7,4.6c-0.2,1.4,1.5,2.2,2.4,1.2
		c4.3-4.4,11.6-10.1,15.5-2c0.3,0.6,0.1,1.4-0.5,1.8c-1.5,1-4.5,3.1-7.4,5c-1.2,0.8-0.6,2.6,0.8,2.6c0.5,0,1,0,1.5,0.1
		c1.8,0.3,1.3,3-0.5,2.8c-4.5-0.6-11.5-0.1-16.3,6.6C413.5,72.1,411.8,71.7,411.6,70.5z"/>
	<path d="M413.9,77c0,0,29.1,1.6,30.6,27.3c0,0.8-1.3,0.9-2,0.4c-1-0.6-2.5-1.6-3.9-2.6c-1.2-0.8-2.6,0.4-2.1,1.7
		c2.2,5.7,4.2,14.9-4.8,14.9c-0.7,0-1.3-0.5-1.4-1.2c-0.3-1.8-0.8-5.4-1.4-8.8c-0.2-1.4-2.1-1.7-2.7-0.4c-0.2,0.5-0.5,0.9-0.7,1.3
		c-1.1,1.5-3.3-0.1-2.3-1.6C425.9,103.7,420.8,85.3,413.9,77z"/>
</g>
</svg>
