<?xml version="1.0" encoding="utf-8"?>
<!-- Generator: Adobe Illustrator 26.0.2, SVG Export Plug-In . SVG Version: 6.00 Build 0)  -->
<svg version="1.1" id="Layer_1" xmlns="http://www.w3.org/2000/svg" xmlns:xlink="http://www.w3.org/1999/xlink" x="0px" y="0px"
	 viewBox="0 0 188 167.8" style="enable-background:new 0 0 188 167.8;" xml:space="preserve">
<style type="text/css">
	.st0{fill:#110907;}
	.st1{fill:#A85B3B;}
	.st2{fill:#854532;}
	.st3{fill:#7EA885;}
</style>
<g>
	<path class="st0" d="M136.7,82.9c0,23.6-19,42.7-42.4,42.7s-42.4-19.1-42.4-42.7S70.9,42,94.3,42S136.7,59.3,136.7,82.9z"/>
	<g id="Calque_9_00000000190606720223183900000014938998746198299279_">
		<path class="st1" d="M58.7,101.6l-6-4l-4.7,4l1,14.1c0,0,5.4,8.3,6,9.2s5.5,1.8,5.5,1.8l3.5-14.9L58.7,101.6z"/>
		<path class="st1" d="M127.1,101.6l7.1-4l3.6,4l-1,14.1c0,0-5.4,8.3-6,9.2s-5.5,1.8-5.5,1.8l-3.5-14.9L127.1,101.6z"/>
		<path class="st1" d="M127.6,70.2c-1.4-6.8-2.3-3.4-7.7-7.7l-4.2-3.5c-4.8-3.9-10.8-6.3-17-6.7L93,52h-0.1l-5.6,0.3
			c-6.2,0.4-12.2,2.7-17,6.7L66,62.5c-5.3,4.4-7,4.1-8.4,10.8c-0.5,2.5-4.5,6.1-4.5,10C53,89,57.5,99.1,57.5,99.1v8l0.2,1.1
			l3.7,25.3c0.4,2.7,1.6,5.2,3.4,7.3c0,0,12.2,11.4,16.5,14.9c1.6,1.3,10.6,2.8,11.6,3l0,0H93l0.9-0.2l0.6-0.1
			c2.9-0.5,8.8-1.7,10.1-2.8c4.4-3.4,16.5-14.9,16.5-14.9c1.8-2,3-4.6,3.4-7.3l3.7-25.5l0.1-0.9v-8c0,0,2.9-11,2.7-14.8
			S128.1,72.7,127.6,70.2z"/>
		<path class="st2" d="M93.1,125.6l4.2-1.6c0,0,0.7-0.4,1.5-0.9c1.3-0.7,2.9-1.6,2.9-1.7c0.3,0.1,0.6,0.3,0.9,0.4l-1.5,0.8l-1.6,0.8
			h2l2.6-2.1V120H102l-7.1,2.5h-1.8V125.6z"/>
		<path class="st2" d="M93.1,125.6l-4.2-1.6l-1.5-0.9c-1.3-0.7-2.9-1.6-2.9-1.7c-0.3,0.1-0.6,0.3-0.9,0.4l1.5,0.8l1.6,0.8h-2
			l-2.6-2.1V120h2.2l7.1,2.5h1.8L93.1,125.6z"/>
		<path class="st2" d="M126.5,120l1.9-13.2c0,0,4.7-4.7,5.1-4.8s0.6,2,0.6,2l-1.1,9.4l-2.7,4.7L126.5,120z"/>
		<path class="st2" d="M59.6,121l-1.9-13.2c0,0-4.7-4.7-5.1-4.8s-0.6,2-0.6,2l1.1,9.4l2.7,4.7L59.6,121z"/>
	</g>
	<path class="st0" d="M57.5,100.8c0,0-3.2-26,3.3-23.2c0-0.1-0.5-8-0.5-8s22.8-1.8,32.9-2c0.1-0.3-0.4-17.1-0.4-17.1L69.5,54
		L53.1,76.4l-0.2,14.8L57.5,100.8z"/>
	<path class="st0" d="M128.4,100.9c0,0,2.5-26.4-3.9-23.6c0-0.1,0.5-6.5,0.5-6.5s-11.7-4.9-22.8-3.9c-0.2,0,5.4-7.1,5.1-7
		c-0.3,0-6.9,7.2-7.2,7.2c-0.4,0-7.8,0.5-8,0.5C92,67.3,92.8,47,92.8,47l32.5,11.5l4.5,17.4l4.7,12.9L128.4,100.9z"/>
	<path d="M53.8,90.2l-3.4-12.5c0.1-0.5,1.8-3.4,2.2-3.5l5.5-10.8c-13-6.9,46.5-10.1,49.7-3.7l12.2,3.5c0.2,0.1,7.7,5.7,7.9,5.9
		l3.7,18.3c0.3,0.5,0.8,0.8,1.4,0.6l5.6-1.6c0.9-0.3,1.3-1.6,0.7-2.4l-0.8-1.1c-0.4-0.5-0.4-1.2-0.1-1.7l2.7-5.1
		c0.2-0.4,0.6-0.7,1.1-0.7l6-0.1c1,0,1.6-1.4,1-2.3l-2.2-3.5c-0.4-0.6-0.3-1.5,0.2-2l12-11.1c0.8-0.7,0.6-2.1-0.3-2.5l-5-2.3
		c-0.3-0.1-0.5-0.3-0.6-0.6l-8.6-16.1c-0.4-0.8-1.4-0.9-1.9-0.3l-3.3,3.5c-0.4,0.4-1,0.5-1.5,0.2l-6.4-4.5c-1-0.7-2.3,0.5-1.8,1.8
		l0,0c0.2,0.7,0,1.5-0.6,1.8l-1.2,0.7c-0.5,0.3-1,0.2-1.4-0.2l-4-4c-0.2-0.2-0.4-0.5-0.4-0.9l-1.7-12.8c-0.1-1-1.1-1.6-1.9-1.1
		l-10.3,6.7c-0.6,0.4-1.3,0.2-1.7-0.5l-4.3-7.8c-0.4-0.7-1.2-0.9-1.8-0.4L96,20.8c-0.6,0.5-1.3,0.3-1.8-0.3l-3.3-4.9
		c-0.5-0.8-1.5-0.8-2,0l-1.4,2.1c-0.2,0.3-0.5,0.5-0.9,0.5L71.2,20c-1,0.1-1.5,1.4-0.9,2.3l0.7,1.2c0.4,0.7,0.2,1.6-0.4,2.1
		L52.4,38.7c-0.6,0.4-1.3,0.2-1.7-0.4l-3.9-6.1c-0.6-0.9-1.9-0.7-2.2,0.4l-2.2,6.7c-0.3,0.8-1,1.2-1.7,0.8l-2.1-1
		c-0.9-0.4-1.8,0.3-1.8,1.4l0.6,20.3c0,0.5-0.2,1.1-0.6,1.3l-7.5,5c-0.8,0.5-0.9,1.9-0.1,2.5l11,8c0.4,0.3,0.6,0.8,0.6,1.3l-0.3,5.7
		c0,0.7,0.4,1.4,1,1.5l7.9,1.7c0.3,0.1,0.6,0.3,0.8,0.6l1.4,2.2C52.2,91.6,53.5,91.3,53.8,90.2z"/>
	<path class="st0" d="M52.3,90.5l-1.8-4c-0.1-0.3-0.3-0.5-0.6-0.6l-6.1-2.1c-0.5-0.2-0.8-0.7-0.7-1.3l1-8.1c0-0.3,0-0.7-0.2-1l0,0
		c-0.4-0.6-0.2-1.6,0.4-1.9l9.5-4.7c0.3-0.2,0.6-0.5,0.6-1l1.4-19c0.1-0.9,0.9-1.4,1.5-0.9l7.3,5.9c0.5,0.4,1.2,0.1,1.5-0.6l3-11.2
		c0.1-0.5,0.5-0.8,0.9-0.8h12c0.5,0,1-0.5,1-1.2v-3.8c0-0.9,0.8-1.5,1.4-1l10.7,7c0.3,0.2,0.8,0.2,1.1-0.1l4.2-4.1
		c0.6-0.6,1.4-0.2,1.6,0.7l0.8,4.9c0.1,0.7,0.7,1.1,1.3,0.9l10.2-4.3c0.6-0.3,1.3,0.3,1.3,1.1V44c0,0.6,0.3,1.1,0.8,1.2l13,2.5
		c0.5,0.1,0.8,0.6,0.8,1.2v6.8c0,0.8,0.6,1.4,1.3,1.1l3.9-1.5c0.7-0.3,1.4,0.5,1.2,1.4l-0.7,4.4c-0.1,0.6,0.2,1.2,0.7,1.4l6.1,1.6
		c0.2,0.1,0.4,0.2,0.5,0.4l3.1,4.2c0.5,0.7,0.2,1.8-0.6,2l-5.1,1c-0.3,0.1-0.6,0.3-0.7,0.6l-2.8,7c-0.1,0.3-0.1,0.8,0,1.1l1,2.3
		c0.2,0.5,0.1,1-0.2,1.4l-3.8,4.6c-0.4,0.5-1,0.4-1.4-0.1l-8-23.2l-30.4-9.2c-0.1,0-41.5,0.8-36.7,14.6l-3.7,10.5
		c-0.2,0.1,1.4,3.9,1.3,4.1L54,90.6C53.6,91.3,52.7,91.3,52.3,90.5z"/>
</g>
<path class="st3" d="M56,81.9l12-4.3c14.9-5.3,31.8-5.5,46.8-0.6l14.8,4.9c2.8,0.9,5.9-0.4,6.7-2.8l2.7-9.1
	c0.9-3.2-9.4-10.9-17-15.9c-5.3-3.6-11.5-5.8-18.1-6.5c-6.2-0.7-12.4-0.7-18.6-0.2c-5.9,0.5-11.5,2.3-16.4,5.2
	C59.4,58,44.3,67.2,45.3,69.7l4,9.7C50.2,81.7,53.3,82.9,56,81.9z"/>
</svg>
