<svg xmlns="http://www.w3.org/2000/svg" viewBox="0 0 132.26 101.97"><defs><style>.cls-1,.cls-4{fill:none;stroke-linecap:round;stroke-miterlimit:10;stroke-width:2px;}.cls-1{stroke:#000;}.cls-2{fill:#fff;}.cls-3{fill:#814e3d;}.cls-4{stroke:#522a19;}</style></defs><g id="yeux"><path class="cls-1" d="M84.52,47.09s2.76-1.31,8.24-1.31A21.93,21.93,0,0,1,101,47.09"/><circle class="cls-2" cx="56.45" cy="46.52" r="5.28"/><circle cx="56.42" cy="46.55" r="4"/><path class="cls-1" d="M84.06,34.43s5.74.68,10.35,1.56A47.46,47.46,0,0,1,105,39.38"/><path class="cls-1" d="M64.93,33.93a14.89,14.89,0,0,0-20.16,1.39"/><path class="cls-3" d="M81.17,66s-4.69,3.69-7.42,3.69c-2.58,0-7-3.6-7-3.6s5.4.73,7.21.72S81.17,66,81.17,66Z"/><path class="cls-4" d="M60.51,80.87a18.65,18.65,0,0,0,13.61,5.52A19,19,0,0,0,87.41,79.9"/></g></svg>