<svg xmlns="http://www.w3.org/2000/svg" xmlns:xlink="http://www.w3.org/1999/xlink" viewBox="0 0 788 1005"><defs><style>.cls-1,.cls-5{fill:none;}.cls-2{fill:#fff;}.cls-3{fill:#080808;}.cls-3,.cls-5{stroke:#000;}.cls-3,.cls-5,.cls-8{stroke-miterlimit:10;}.cls-4{clip-path:url(#clip-path);}.cls-5,.cls-8{stroke-linecap:round;}.cls-5{stroke-width:2px;}.cls-6{clip-path:url(#clip-path-2);}.cls-7{fill:#814e3d;}.cls-8{fill:#522a19;stroke:#522a19;}</style><clipPath id="clip-path"><rect class="cls-1" x="402.57" y="87.6" width="22.15" height="6.68"/></clipPath><clipPath id="clip-path-2"><rect class="cls-1" x="363.28" y="87.6" width="22.15" height="6.68"/></clipPath></defs><g id="yeux"><circle class="cls-2" cx="410.78" cy="104.51" r="6.75"/><circle class="cls-2" cx="375.92" cy="104.51" r="6.75"/><circle class="cls-3" cx="378" cy="104.65" r="4"/><circle class="cls-3" cx="412.94" cy="104.65" r="4"/><g class="cls-4"><path class="cls-5" d="M403.57,91.88a14.89,14.89,0,0,1,20.15,1.4"/></g><g class="cls-6"><path class="cls-5" d="M384.43,91.88a14.89,14.89,0,0,0-20.15,1.4"/></g><path class="cls-7" d="M401.89,126.73s-4.69,3.69-7.42,3.69-7-3.59-7-3.59,5.4.73,7.21.72S401.89,126.73,401.89,126.73Z"/><ellipse class="cls-8" cx="394.31" cy="146.2" rx="2.88" ry="4.5"/></g></svg>