<svg id="Calque_1" data-name="Calque 1" xmlns="http://www.w3.org/2000/svg" viewBox="0 0 288 561.58"><defs><style>.cls-1{fill:#547ab2;}.cls-2{fill:#f7a386;}.cls-3{fill:#55525c;}</style></defs><path class="cls-1" d="M219.82,104.89c-23.32,2.49-44.52,10-69.8,18.32,0,0-11.55.46-10.77-.14L68.42,106.48l5.92-58.41A20.88,20.88,0,0,1,95.12,29.3H195a20.88,20.88,0,0,1,20.83,19.4Z"/><rect class="cls-2" x="72.21" y="469.11" width="22.13" height="63.41"/><path class="cls-3" d="M83.28,515.35,72.21,518l-7,20.69v6.61l-8.16,14.09s4.66,4.85,7,4,50.08-1.77,50.08-1.77v-4.84l-8.74-14.09-7-22L92,515.35Z"/><rect class="cls-2" x="193.66" y="472.55" width="22.13" height="63.41" transform="translate(409.44 1008.52) rotate(180)"/><path class="cls-3" d="M204.72,518.79l11.07,2.64,7,20.7v6.61l8.16,14.09s-4.66,4.84-7,4S173.86,565,173.86,565v-4.84l8.74-14.1,7-22,6.41-5.29Z"/><path class="cls-1" d="M68.18,108.82c0,2.64.72,169.1,0,171.74s-8.61,64.74-8.61,67.38S72.49,486,72.49,486l23.69-2.64s15.07-120.88,15.07-122.86.72-46.9,0-48.88,28-188.54,28-188.54V51.32L98,51c-13.69-.1-25.23,11.27-26.72,26.31Z"/><path class="cls-1" d="M219.82,104.89c0,2.66-.72,170.61,0,173.28s8.61,65.31,8.61,68-12.92,139.29-12.92,139.29l-23.69-2.67s-15.07-122-15.07-124-.72-47.32,0-49.32-28-190.23-28-190.23V50.87l41.56-.34c13.71-.11,25.27,11.27,26.75,26.33Z"/></svg>