<svg xmlns="http://www.w3.org/2000/svg" viewBox="0 0 788 1005.07"><defs><style>.cls-1{fill:#2c5d9f;}.cls-2{fill:#f7a386;}.cls-3{fill:#55525c;}</style></defs><g id="Calque_1" data-name="Calque 1"><path class="cls-1" d="M481.83,486.82c-23.32,2.48-44.51,10-69.8,18.32,0,0-11.55.45-10.77-.15l-70.83-16.58L336.35,430a20.89,20.89,0,0,1,20.78-18.78H457a20.88,20.88,0,0,1,20.83,19.41Z"/></g><g id="Calque_3" data-name="Calque 3"><polygon class="cls-2" points="390.3 913.64 370.92 911.88 363.38 852.11 387.83 844.21 390.3 913.64"/><path class="cls-3" d="M376.75,896.07l-6.33-1.8c-1.05.37-2.55,5.58-2.81,6.77L356.3,933.42s13.73,18,23.19,17.06c1.74-.17,23.08-13.68,22.93-15.63h0c-.05-.67-4.56-14.48-4.56-14.48-.16-.24-3.05-15-8.28-27.86L386,889.74c-.62-.48-1.94,5.67-2.69,5.73l-5.79.44A2.72,2.72,0,0,0,376.75,896.07Z"/><path class="cls-1" d="M331.72,493.19c.2,2.64,13.69,168.55,13.17,171.24s-3.62,65.2-3.42,67.84S365,868.92,365,868.92l23.41-4.45s5.76-121.68,5.61-123.65-2.88-46.82-3.75-48.74,13.45-190.14,13.45-190.14l-5.51-71.53L357,433.29c-13.65,1-24.29,13.17-24.62,28.28Z"/><path class="cls-2" d="M389.28,884.78c.55,7.12,9.38,34.18-7.5,38.19-6.94,1.65-14.89-2.3-16-9.33-1.2-7.27,3-17.19,5-26.12C372.24,880.56,388.73,877.67,389.28,884.78Z"/><polygon class="cls-2" points="511.98 913 535.8 908.32 528.92 846.96 504.07 850.08 511.98 913"/><path class="cls-3" d="M530.06,911.35l3.19-6.57,42.41,26.82s19.49,11.27,16.58,19.75c-1.18,3.44-23.43,6.31-30.81,5.41-13.07-1.6-18.81-16-42.37-19.24-4.09-.57-9.95-7.27-9.55-13.44l1.1-17.05,7.06,1.15Z"/><path class="cls-1" d="M484.19,482c.33,2.65,20.56,169.37,21.6,171.93s16.69,63.73,17,66.37S533.22,870,533.22,870l-27.75,3.53s-32.11-132.2-32.36-134.19S466.5,692.47,467,690.4s-51.49-185.26-51.49-185.26l-8.53-67.85,41.2-5.53c13.59-1.82,26.48,8,29.82,22.8Z"/><path class="cls-2" d="M531.57,893l-21,14c8.27,3.9,32.47,31.78,54.35,28.57,16-2.35,1.17-10.73.81-10.38S544,913,538.59,906.85C536.05,903.92,531.57,893,531.57,893Z"/></g></svg>