<svg xmlns="http://www.w3.org/2000/svg" viewBox="0 0 288 561.58"><defs><style>.cls-1{fill:#374942;}</style></defs><g id="Calque_3" data-name="Calque 3"><path class="cls-1" d="M224.65,104.89c-23.31,2.49-44.51,10-69.79,18.32,0,0-11.56.46-10.77-.14L73.25,106.48l5.93-58.41A20.87,20.87,0,0,1,100,29.3h99.9a20.88,20.88,0,0,1,20.83,19.4Z"/><rect class="cls-1" x="77.05" y="469.11" width="22.13" height="63.41"/><path class="cls-1" d="M88.11,515.35,77.05,518l-7,20.69v6.61l-8.15,14.09s4.66,4.85,7,4S119,561.58,119,561.58v-4.84l-8.74-14.09-7-22-6.4-5.28Z"/><rect class="cls-1" x="198.49" y="472.55" width="22.13" height="63.41" transform="translate(419.12 1008.52) rotate(180)"/><path class="cls-1" d="M209.56,518.79l11.06,2.64,7,20.7v6.61l8.15,14.09s-4.66,4.84-7,4S178.7,565,178.7,565v-4.84l8.73-14.1,7-22,6.4-5.29Z"/><path class="cls-1" d="M73.55,108.05c0,2.64.72,169.1,0,171.74S36.27,428.55,36.27,431.19s41.59,54,41.59,54l23.69-2.64s17.23-42.88,18-44.72c1.3-3.32,3.42-128.29,5.56-137.9,2.88-13,19.55-177.67,19.55-177.67V50.55l-41.23-.29C89.7,50.17,78.16,61.53,76.67,76.57Z"/><path class="cls-1" d="M224.65,104.89c0,2.66-.72,170.61,0,173.28s27.08,140.46,27.08,143.13-31.38,64.14-31.38,64.14l-23.69-2.67s-36.93-59.47-36.93-61.47,21.13-109.81,21.85-111.81-28-190.23-28-190.23V50.87l41.56-.34c13.71-.11,25.27,11.27,26.75,26.33Z"/><polygon class="cls-1" points="88.11 235.96 61.91 235.96 61.91 175.96 75.01 123.38 88.11 235.96"/><polygon class="cls-1" points="232.04 231.27 205.88 229.69 213.33 106.5 236.71 154.08 232.04 231.27"/></g></svg>