<svg xmlns="http://www.w3.org/2000/svg" viewBox="0 0 288 561.58"><defs><style>.cls-1{fill:#2c5d9f;}.cls-2{fill:#f7a386;}.cls-3{fill:#55525c;}</style></defs><g id="Calque_1" data-name="Calque 1"><path class="cls-1" d="M231.83,104.89c-23.32,2.49-44.51,10-69.8,18.32,0,0-11.55.46-10.77-.14L80.43,106.48l5.92-58.41A20.88,20.88,0,0,1,107.13,29.3H207a20.88,20.88,0,0,1,20.83,19.4Z"/></g><g id="Calque_3" data-name="Calque 3"><polygon class="cls-2" points="140.3 531.71 120.92 529.95 113.38 470.18 137.84 462.28 140.3 531.71"/><path class="cls-3" d="M126.75,514.14l-6.33-1.8c-1,.37-2.55,5.58-2.81,6.77L106.3,551.49s13.73,18,23.19,17.07c1.74-.18,23.08-13.69,22.93-15.64h0c0-.66-4.56-14.48-4.56-14.48-.16-.24-3.05-15-8.28-27.85L136,507.82c-.62-.49-1.94,5.66-2.69,5.72l-5.79.45A2.71,2.71,0,0,0,126.75,514.14Z"/><path class="cls-1" d="M81.72,111.27c.2,2.63,13.69,168.54,13.17,171.23s-3.62,65.21-3.42,67.84S115,487,115,487l23.41-4.46s5.76-121.68,5.61-123.65-2.88-46.82-3.75-48.74S153.67,120,153.67,120l-5.51-71.53L107,51.37c-13.65,1-24.29,13.16-24.62,28.27Z"/><path class="cls-2" d="M139.28,502.86c.55,7.11,9.38,34.18-7.5,38.18-6.94,1.65-14.89-2.29-16-9.33-1.2-7.27,3-17.18,5-26.12C122.24,498.63,138.73,495.75,139.28,502.86Z"/><polygon class="cls-2" points="261.98 531.07 285.8 526.39 278.92 465.03 254.07 468.15 261.98 531.07"/><path class="cls-3" d="M280.06,529.42l3.19-6.56,42.41,26.82s19.49,11.26,16.58,19.75c-1.18,3.43-23.43,6.31-30.81,5.4-13.07-1.59-18.81-16-42.37-19.24-4.09-.56-9.95-7.27-9.55-13.44l1.1-17,7.06,1.15Z"/><path class="cls-1" d="M234.19,100.09c.33,2.65,20.56,169.38,21.6,171.93s16.69,63.73,17,66.38,10.41,149.66,10.41,149.66l-27.75,3.53s-32.11-132.2-32.36-134.19-6.61-46.86-6.15-48.93-51.49-185.26-51.49-185.26l-8.53-67.85,41.2-5.52c13.59-1.82,26.48,8,29.82,22.79Z"/><path class="cls-2" d="M281.57,511.11l-21,14c8.27,3.9,32.47,31.79,54.35,28.57,16-2.35,1.17-10.73.81-10.38S294,531.11,288.59,524.92C286.05,522,281.57,511.11,281.57,511.11Z"/></g></svg>