<svg xmlns="http://www.w3.org/2000/svg" viewBox="0 0 288 561.58"><defs><style>.cls-1{fill:#374942;}</style></defs><g id="Calque_1" data-name="Calque 1"><path class="cls-1" d="M231.83,104.89c-23.32,2.49-44.51,10-69.8,18.32,0,0-11.55.46-10.77-.14L80.43,106.48l5.92-58.41A20.88,20.88,0,0,1,107.13,29.3H207a20.88,20.88,0,0,1,20.83,19.4Z"/></g><g id="Calque_3" data-name="Calque 3"><rect class="cls-1" x="84.23" y="469.11" width="22.13" height="63.41"/><path class="cls-1" d="M95.29,515.35,84.23,518l-7,20.69v6.61l-8.15,14.09s4.65,4.85,7,4,50.08-1.77,50.08-1.77v-4.84l-8.73-14.09-7-22L104,515.35Z"/><rect class="cls-1" x="205.67" y="472.55" width="22.13" height="63.41" transform="translate(433.47 1008.52) rotate(180)"/><path class="cls-1" d="M216.73,518.79l11.07,2.64,7,20.7v6.61l8.16,14.09s-4.66,4.84-7,4S185.87,565,185.87,565v-4.84l8.74-14.1,7-22,6.41-5.29Z"/><path class="cls-1" d="M80.73,108.05c0,2.64.72,169.1,0,171.74S43.44,428.55,43.44,431.19s41.59,54,41.59,54l23.69-2.64s17.24-42.88,18-44.72c1.31-3.32,3.43-128.29,5.56-137.9,2.89-13,19.55-177.67,19.55-177.67V50.55l-41.23-.29c-13.69-.09-25.22,11.27-26.71,26.31Z"/><path class="cls-1" d="M231.83,104.89c0,2.66-.72,170.61,0,173.28s27.08,140.46,27.08,143.13-31.39,64.14-31.39,64.14l-23.69-2.67s-36.92-59.47-36.92-61.47S188,311.49,188.76,309.49s-28-190.23-28-190.23V50.87l41.56-.34c13.71-.11,25.27,11.27,26.75,26.33Z"/><polygon class="cls-1" points="95.29 235.96 69.09 235.96 69.09 175.96 82.19 123.38 95.29 235.96"/><polygon class="cls-1" points="239.21 231.27 213.06 229.69 220.51 106.5 243.88 154.08 239.21 231.27"/></g></svg>