<svg xmlns="http://www.w3.org/2000/svg" xmlns:xlink="http://www.w3.org/1999/xlink" viewBox="0 0 788 1005.07"><defs><style>.cls-1,.cls-10,.cls-11,.cls-2,.cls-8,.cls-9{fill:none;}.cls-2{stroke:#fafafa;}.cls-10,.cls-11,.cls-2,.cls-8,.cls-9{stroke-miterlimit:10;}.cls-3{clip-path:url(#clip-path);}.cls-4{fill:#7f4b37;}.cls-5{clip-path:url(#clip-path-2);}.cls-6{fill:#9f6042;}.cls-7{fill:#2e211e;}.cls-8{stroke:#616161;}.cls-9{stroke:#6e6e6e;}.cls-10{stroke:#424242;}.cls-11{stroke:#666;}.cls-12{clip-path:url(#clip-path-3);}.cls-13{fill:#55baca;}.cls-14{clip-path:url(#clip-path-4);}</style><clipPath id="clip-path"><polygon class="cls-1" points="407.99 157.78 407.99 157.78 425.73 157.78 425.73 190.83 407.99 190.83 407.99 157.78"/></clipPath><clipPath id="clip-path-2"><polygon class="cls-1" points="338.07 157.78 338.07 157.78 320.33 157.78 320.33 190.83 338.07 190.83 338.07 157.78"/></clipPath><clipPath id="clip-path-3"><polygon class="cls-1" points="414.28 186 414.28 186 424.78 186 424.78 202.5 414.28 202.5 414.28 186"/></clipPath><clipPath id="clip-path-4"><polygon class="cls-1" points="331.73 186 331.73 186 321.23 186 321.23 202.5 331.73 202.5 331.73 186"/></clipPath></defs><g id="Calque_3" data-name="Calque 3"><path class="cls-2" d="M380.49,90.46c8.8-9.46,6.14-25.18,6.14-25.18"/><g id="_Repetition_miroir_" data-name="&lt;Repetition miroir&gt;"><g class="cls-3"><path class="cls-4" d="M416.65,190.63c4.45-2.11,7-13.12,8.34-17.87,1-3.54,1.43-12.62-1.65-14.63-2.69-1.76-12.28,3.77-12.28,3.77l-.94,13.15L408,188.9S414.65,191.57,416.65,190.63Z"/></g></g><g id="_Repetition_miroir_2" data-name="&lt;Repetition miroir&gt;"><g class="cls-5"><path class="cls-4" d="M329.41,190.63c-4.45-2.11-7-13.12-8.34-17.87-1-3.54-1.42-12.62,1.66-14.63,2.68-1.76,12.27,3.77,12.27,3.77l.95,13.15,2.12,13.85S331.41,191.57,329.41,190.63Z"/></g></g><rect class="cls-1" x="373.05" y="113.82" width="41.71" height="112.28"/><path class="cls-6" d="M413.69,148.85c-1.22-6.89-5.84-19.47-10.84-24.38-5.82-5.71-17-9.4-26.3-10.38v-.27c-1.08,0-2.2,0-3.33,0-.55,0-1.1,0-1.64,0v.11c-10.63.75-22.34,4.7-28.3,10.54-5,4.91-9.61,17.49-10.83,24.38-1.81,10.23,3.52,42.06,6.82,51.91C347,224,355.65,219,362.37,223.87c2.59,1.89,10.7,1.72,10.7,1.72s8.07.11,10.7-1.72c8-5.57,14.8-.93,23.1-23.11C410.51,191,415.5,159.08,413.69,148.85Z"/><rect class="cls-1" x="331.38" y="113.82" width="41.71" height="112.28"/><path class="cls-7" d="M331.35,160.16s-7.34.78-8.29-3.13-5.38-19-3.94-25.27c1.62-7,12.17-18,17.8-22.41,5.17-4.07,23.9-11,23.9-11L374,102.58l10.85-5s22.73,4.87,28.46,9.74c5.31,4.52,12.3,17.67,13.17,24.59.79,6.28-3.12,25.13-3.12,25.13L415,160.29l-5.39-12.35-7-18.77-29.23,3.32L342.78,130l-4.23,17.44"/><path class="cls-8" d="M345.33,105.37a26,26,0,0,0-4.08,24.09c.33.95,1,2.06,2,2"/><path class="cls-9" d="M337.13,148.93a17.88,17.88,0,0,1-16.41-19.37l.62.08"/><path class="cls-10" d="M372.57,132.26c8.92-32.2,5-33.62,5-33.62"/><path class="cls-11" d="M401.46,129.32s14.25-13.47,11.25-21.47"/><path class="cls-8" d="M409,147.35s15.86-4.1,16.87-14.83"/><g class="cls-12"><rect class="cls-13" x="414.28" y="186" width="10.5" height="16.5" rx="5.25"/></g><g class="cls-14"><rect class="cls-13" x="321.23" y="186" width="10.5" height="16.5" rx="5.25"/></g><path class="cls-7" d="M373.37,132.49c15.46-1.18,23.86-3.56,29.23-3.32l6.4,24.54s0,8.42,8.31,9.95c0,0,10.6-.58,10.6-7.79s12.64-4.67,12.64-15.18,16.41-7,7.86-16.75-9.91-10.12-10.59-17.71S427.22,99.36,418,95.1s-2-10.87-17.73-8.73-16.11,6.42-26,3.31-20.17-5.84-27-1.17a49.24,49.24,0,0,1-23.93,7.79c-7.18.19-11.28,7.4-10.6,13.63s-16.06,6.62-12,12.85,13.33,7.59,14.7,9.73-10.6,2.34-7.86,7S325,146.14,324,149.84s-11.28,8.17-6.83,11.48,21.56,6.43,13.34,9.35,10.24.47,5.12-5.22-13.68-5.49-7.87-9.38,21.54-7.4,10.26-10.71,1.42-1.56,2.68-9.94C341,133.14,368.44,132.86,373.37,132.49Z"/></g></svg>