<svg xmlns="http://www.w3.org/2000/svg" xmlns:xlink="http://www.w3.org/1999/xlink" viewBox="0 0 788 1005.07"><defs><style>.cls-1,.cls-10,.cls-7,.cls-8,.cls-9{fill:none;}.cls-2{clip-path:url(#clip-path);}.cls-3{fill:#7f4b37;}.cls-4{clip-path:url(#clip-path-2);}.cls-5{fill:#9f6042;}.cls-6{fill:#2e211e;}.cls-7{stroke:#616161;}.cls-10,.cls-7,.cls-8,.cls-9{stroke-miterlimit:10;}.cls-8{stroke:#6e6e6e;}.cls-9{stroke:#424242;}.cls-10{stroke:#666;}.cls-11{clip-path:url(#clip-path-3);}.cls-12{fill:#55baca;}.cls-13{clip-path:url(#clip-path-4);}</style><clipPath id="clip-path"><polygon class="cls-1" points="408.61 157.66 408.61 157.66 426.47 157.66 426.47 190.94 408.61 190.94 408.61 157.66"/></clipPath><clipPath id="clip-path-2"><polygon class="cls-1" points="338.2 157.66 338.2 157.66 320.33 157.66 320.33 190.94 338.2 190.94 338.2 157.66"/></clipPath><clipPath id="clip-path-3"><polygon class="cls-1" points="414.28 186 414.28 186 424.78 186 424.78 202.5 414.28 202.5 414.28 186"/></clipPath><clipPath id="clip-path-4"><polygon class="cls-1" points="331.73 186 331.73 186 321.23 186 321.23 202.5 331.73 202.5 331.73 186"/></clipPath></defs><g id="Calque_3" data-name="Calque 3"><g id="_Repetition_miroir_" data-name="&lt;Repetition miroir&gt;"><g class="cls-2"><path class="cls-3" d="M417.33,190.74c4.49-2.12,7.05-13.21,8.4-18,1-3.57,1.44-12.71-1.67-14.74-2.7-1.77-12.36,3.81-12.36,3.81l-.95,13.23L408.61,189S415.32,191.69,417.33,190.74Z"/></g></g><g id="_Repetition_miroir_2" data-name="&lt;Repetition miroir&gt;"><g class="cls-4"><path class="cls-3" d="M329.48,190.74c-4.49-2.12-7.05-13.21-8.4-18-1-3.57-1.44-12.71,1.66-14.74,2.71-1.77,12.37,3.81,12.37,3.81l.95,13.23L338.2,189S331.49,191.69,329.48,190.74Z"/></g></g><rect class="cls-1" x="373.05" y="113.82" width="41.71" height="112.28"/><path class="cls-5" d="M413.69,148.85c-1.22-6.89-5.84-19.47-10.84-24.38-5.82-5.71-17-9.4-26.3-10.38v-.27c-1.08,0-2.2,0-3.33,0-.55,0-1.1,0-1.64,0v.11c-10.63.75-22.34,4.7-28.3,10.54-5,4.91-9.61,17.49-10.83,24.38-1.81,10.23,3.52,42.06,6.82,51.91C347,224,355.65,219,362.37,223.87c2.59,1.89,10.7,1.72,10.7,1.72s8.07.11,10.7-1.72c8-5.57,14.8-.93,23.1-23.11C410.51,191,415.5,159.08,413.69,148.85Z"/><rect class="cls-1" x="331.38" y="113.82" width="41.71" height="112.28"/><path class="cls-6" d="M332.39,161.31s-8.38-.37-9.33-4.28-5.38-19-3.94-25.27c1.62-7,12.17-18,17.8-22.41,5.17-4.07,23.9-11,23.9-11l16.73.34,7.26-1.07s22.73,4.87,28.46,9.74c5.31,4.52,12.3,17.67,13.17,24.59.79,6.28-3.12,25.13-3.12,25.13l-9.48,3.73-4.2-12.82-7-18.77-29.23,3.32L342.78,130l-4.23,17.44"/><path class="cls-7" d="M342.62,106c-5.26,6.68-4.14,15.42-1.37,23.45.33.95,1,2.06,2,2"/><path class="cls-8" d="M337.13,148.93a17.88,17.88,0,0,1-16.41-19.37l.62.08"/><path class="cls-9" d="M372.57,132.26c8.92-32.2,5-33.62,5-33.62"/><path class="cls-10" d="M401.46,129.32s14.25-13.47,11.25-21.47"/><path class="cls-7" d="M409,147.35s15.86-4.1,16.87-14.83"/><g class="cls-11"><rect class="cls-12" x="414.28" y="186" width="10.5" height="16.5" rx="5.25"/></g><g class="cls-13"><rect class="cls-12" x="321.23" y="186" width="10.5" height="16.5" rx="5.25"/></g></g></svg>