<svg xmlns="http://www.w3.org/2000/svg" xmlns:xlink="http://www.w3.org/1999/xlink" viewBox="0 0 198 187.6"><defs><style>.cls-1,.cls-10,.cls-7,.cls-8,.cls-9{fill:none;}.cls-2{clip-path:url(#clip-path);}.cls-3{fill:#7f4b37;}.cls-4{clip-path:url(#clip-path-2);}.cls-5{fill:#9f6042;}.cls-6{fill:#2e211e;}.cls-7{stroke:#616161;}.cls-10,.cls-7,.cls-8,.cls-9{stroke-miterlimit:10;}.cls-8{stroke:#6e6e6e;}.cls-9{stroke:#424242;}.cls-10{stroke:#666;}.cls-11{clip-path:url(#clip-path-3);}.cls-12{fill:#55baca;}.cls-13{clip-path:url(#clip-path-4);}</style><clipPath id="clip-path"><polygon class="cls-1" points="132.42 99.85 132.42 99.85 150.28 99.85 150.28 133.13 132.42 133.13 132.42 99.85"/></clipPath><clipPath id="clip-path-2"><polygon class="cls-1" points="62.01 99.85 62.01 99.85 44.15 99.85 44.15 133.13 62.01 133.13 62.01 99.85"/></clipPath><clipPath id="clip-path-3"><polygon class="cls-1" points="138.09 128.19 138.09 128.19 148.59 128.19 148.59 144.69 138.09 144.69 138.09 128.19"/></clipPath><clipPath id="clip-path-4"><polygon class="cls-1" points="55.55 128.19 55.55 128.19 45.05 128.19 45.05 144.69 55.55 144.69 55.55 128.19"/></clipPath></defs><g id="Calque_3" data-name="Calque 3"><g id="_Repetition_miroir_" data-name="&lt;Repetition miroir&gt;"><g class="cls-2"><path class="cls-3" d="M141.14,132.93c4.49-2.13,7.05-13.22,8.4-18,1-3.57,1.44-12.71-1.66-14.74-2.71-1.78-12.37,3.8-12.37,3.8l-.95,13.23-2.14,14S139.13,133.87,141.14,132.93Z"/></g></g><g id="_Repetition_miroir_2" data-name="&lt;Repetition miroir&gt;"><g class="cls-4"><path class="cls-3" d="M53.29,132.93c-4.49-2.13-7-13.22-8.4-18-1-3.57-1.44-12.71,1.66-14.74,2.71-1.78,12.37,3.8,12.37,3.8l.95,13.23,2.14,14S55.3,133.87,53.29,132.93Z"/></g></g><rect class="cls-1" x="96.86" y="56" width="41.71" height="112.28"/><path class="cls-5" d="M137.5,91c-1.22-6.89-5.84-19.47-10.83-24.37-5.82-5.72-17-9.4-26.31-10.39V56c-1.09,0-2.21,0-3.33,0L95.4,56v.12c-10.64.74-22.35,4.69-28.3,10.54-5,4.9-9.62,17.48-10.84,24.37-1.81,10.24,3.53,42.06,6.82,51.92,7.77,23.22,16.38,18.21,23.1,23.1,2.59,1.89,10.7,1.72,10.7,1.72s8.07.11,10.7-1.72c8-5.57,14.8-.93,23.1-23.1C134.32,133.21,139.31,101.27,137.5,91Z"/><rect class="cls-1" x="55.19" y="56" width="41.71" height="112.28"/><path class="cls-6" d="M56.2,103.5s-8.38-.38-9.33-4.28-5.38-19-3.94-25.27c1.62-7,12.17-18,17.8-22.42,5.17-4.07,23.9-11.05,23.9-11.05l16.73.34,7.26-1.07s22.73,4.87,28.46,9.74c5.31,4.52,12.31,17.67,13.18,24.59.78,6.29-3.13,25.14-3.13,25.14l-9.47,3.72-4.21-12.82-7-18.76L97.18,74.67,66.6,72.17,62.36,89.61"/><path class="cls-7" d="M66.43,48.2c-5.25,6.67-4.13,15.41-1.37,23.45.33.95,1,2.06,2,1.95"/><path class="cls-8" d="M60.94,91.11A17.88,17.88,0,0,1,44.53,71.74l.62.09"/><path class="cls-9" d="M96.38,74.45c8.92-32.21,5-33.63,5-33.63"/><path class="cls-10" d="M125.27,71.5S139.52,58,136.52,50"/><path class="cls-7" d="M132.81,89.53s15.87-4.1,16.88-14.83"/><g class="cls-11"><rect class="cls-12" x="138.09" y="128.19" width="10.5" height="16.5" rx="5.25"/></g><g class="cls-13"><rect class="cls-12" x="45.05" y="128.19" width="10.5" height="16.5" rx="5.25"/></g></g></svg>