<svg xmlns="http://www.w3.org/2000/svg" xmlns:xlink="http://www.w3.org/1999/xlink" viewBox="0 0 198 187.6"><defs><style>.cls-1,.cls-10,.cls-11,.cls-2,.cls-8,.cls-9{fill:none;}.cls-2{stroke:#fafafa;}.cls-10,.cls-11,.cls-2,.cls-8,.cls-9{stroke-miterlimit:10;}.cls-3{clip-path:url(#clip-path);}.cls-4{fill:#7f4b37;}.cls-5{clip-path:url(#clip-path-2);}.cls-6{fill:#9f6042;}.cls-7{fill:#2e211e;}.cls-8{stroke:#616161;}.cls-9{stroke:#6e6e6e;}.cls-10{stroke:#424242;}.cls-11{stroke:#666;}.cls-12{clip-path:url(#clip-path-3);}.cls-13{fill:#55baca;}.cls-14{clip-path:url(#clip-path-4);}</style><clipPath id="clip-path"><polygon class="cls-1" points="131.8 99.96 131.8 99.96 149.54 99.96 149.54 133.01 131.8 133.01 131.8 99.96"/></clipPath><clipPath id="clip-path-2"><polygon class="cls-1" points="61.88 99.96 61.88 99.96 44.15 99.96 44.15 133.01 61.88 133.01 61.88 99.96"/></clipPath><clipPath id="clip-path-3"><polygon class="cls-1" points="138.09 128.19 138.09 128.19 148.59 128.19 148.59 144.69 138.09 144.69 138.09 128.19"/></clipPath><clipPath id="clip-path-4"><polygon class="cls-1" points="55.55 128.19 55.55 128.19 45.05 128.19 45.05 144.69 55.55 144.69 55.55 128.19"/></clipPath></defs><g id="Calque_3" data-name="Calque 3"><path class="cls-2" d="M104.3,32.64c8.8-9.46,6.14-25.18,6.14-25.18"/><g id="_Répétition_miroir_" data-name="&lt;Répétition miroir&gt;"><g class="cls-3"><path class="cls-4" d="M140.46,132.81c4.46-2.11,7-13.12,8.34-17.86,1-3.55,1.43-12.62-1.65-14.64-2.69-1.76-12.28,3.78-12.28,3.78l-.94,13.14-2.13,13.85S138.46,133.75,140.46,132.81Z"/></g></g><g id="_Répétition_miroir_2" data-name="&lt;Répétition miroir&gt;"><g class="cls-5"><path class="cls-4" d="M53.23,132.81c-4.46-2.11-7-13.12-8.34-17.86-1-3.55-1.43-12.62,1.65-14.64,2.68-1.76,12.27,3.78,12.27,3.78l.95,13.14,2.12,13.85S55.22,133.75,53.23,132.81Z"/></g></g><rect class="cls-1" x="96.86" y="56" width="41.71" height="112.28"/><path class="cls-6" d="M137.5,91c-1.22-6.89-5.84-19.47-10.83-24.37-5.82-5.72-17-9.4-26.31-10.39V56c-1.09,0-2.21,0-3.33,0L95.4,56v.12c-10.64.74-22.35,4.69-28.3,10.54-5,4.9-9.62,17.48-10.84,24.37-1.81,10.24,3.53,42.06,6.82,51.92,7.77,23.22,16.38,18.21,23.1,23.1,2.59,1.89,10.7,1.72,10.7,1.72s8.07.11,10.7-1.72c8-5.57,14.8-.93,23.1-23.1C134.32,133.21,139.31,101.27,137.5,91Z"/><rect class="cls-1" x="55.19" y="56" width="41.71" height="112.28"/><path class="cls-7" d="M55.16,102.34s-7.34.78-8.29-3.12-5.38-19-3.94-25.27c1.62-7,12.17-18,17.8-22.42,5.17-4.07,23.9-11.05,23.9-11.05l13.14,4.29,10.85-5s22.73,4.87,28.46,9.74c5.31,4.52,12.31,17.67,13.18,24.59.78,6.29-3.13,25.14-3.13,25.14l-8.29,3.26-5.39-12.36-7-18.76L97.18,74.67,66.6,72.17,62.36,89.61"/><path class="cls-8" d="M69.14,47.55a26,26,0,0,0-4.08,24.1c.33.95,1,2.06,2,1.95"/><path class="cls-9" d="M60.94,91.11A17.88,17.88,0,0,1,44.53,71.74l.62.09"/><path class="cls-10" d="M96.38,74.45c8.92-32.21,5-33.63,5-33.63"/><path class="cls-11" d="M125.27,71.5S139.52,58,136.52,50"/><path class="cls-8" d="M132.81,89.53s15.87-4.1,16.88-14.83"/><g class="cls-12"><rect class="cls-13" x="138.09" y="128.19" width="10.5" height="16.5" rx="5.25"/></g><g class="cls-14"><rect class="cls-13" x="45.05" y="128.19" width="10.5" height="16.5" rx="5.25"/></g><path class="cls-7" d="M97.18,74.67c15.47-1.18,23.86-3.56,29.24-3.31l6.39,24.54s0,8.42,8.31,9.94c0,0,10.6-.58,10.6-7.78s12.64-4.68,12.64-15.19,16.41-7,7.87-16.74S162.31,56,161.63,48.41,151,41.54,141.8,37.29s-2-10.88-17.73-8.74S108,35,98.05,31.86s-20.16-5.84-27-1.17a49,49,0,0,1-23.93,7.79c-7.18.2-11.28,7.4-10.59,13.63S20.46,58.73,24.56,65s13.33,7.59,14.7,9.73-10.6,2.34-7.86,7S48.83,88.32,47.81,92,36.53,100.2,41,103.51s21.56,6.42,13.35,9.34,10.23.48,5.11-5.21-13.68-5.5-7.86-9.39,21.53-7.4,10.25-10.71S63.24,86,64.5,77.61C64.85,75.33,92.25,75.05,97.18,74.67Z"/></g></svg>