<svg xmlns="http://www.w3.org/2000/svg" xmlns:xlink="http://www.w3.org/1999/xlink" viewBox="0 0 198 187.6"><defs><style>.cls-1,.cls-11,.cls-2{fill:none;}.cls-2{stroke:#fafafa;}.cls-11,.cls-2{stroke-miterlimit:10;}.cls-3{fill:#2e211e;}.cls-4{clip-path:url(#clip-path);}.cls-5{fill:#7f4b37;}.cls-6{clip-path:url(#clip-path-2);}.cls-7{fill:#9f6042;}.cls-8{clip-path:url(#clip-path-3);}.cls-9{fill:#55baca;}.cls-10{clip-path:url(#clip-path-4);}.cls-11{stroke:#606060;}</style><clipPath id="clip-path"><polygon class="cls-1" points="132.42 99.85 132.42 99.85 150.28 99.85 150.28 133.13 132.42 133.13 132.42 99.85"/></clipPath><clipPath id="clip-path-2"><polygon class="cls-1" points="62.01 99.85 62.01 99.85 44.15 99.85 44.15 133.13 62.01 133.13 62.01 99.85"/></clipPath><clipPath id="clip-path-3"><polygon class="cls-1" points="138.09 128.19 138.09 128.19 148.59 128.19 148.59 144.69 138.09 144.69 138.09 128.19"/></clipPath><clipPath id="clip-path-4"><polygon class="cls-1" points="55.55 128.19 55.55 128.19 45.05 128.19 45.05 144.69 55.55 144.69 55.55 128.19"/></clipPath></defs><g id="Calque_3" data-name="Calque 3"><path class="cls-2" d="M104.3,32.64c8.8-9.46,6.14-25.18,6.14-25.18"/><path class="cls-3" d="M142.62,105.72c-12.11,6.42-12.82-24.23-13.8-25.88-3-1.23-7,1.36-10.2.52-7.36-2-28.68,1.25-31.89,3.28-.84.53,13.1,16,12.31,16.57-7.32,5.55-17.1,29.25-16.7,40.1.84,22.52,9.19,46.1-9.25,57.67C51.71,211.4,42.91,192.73,36.2,185.7c-6.1-6.38-29.54-27.78-9.43-68.76,4.4-9,9.34-17.58,11.52-27.32C45.16,59,58,16.54,94.16,24.87c12.15,2.8,8,4.95,11.9,3.75,12.94-4,67.66-2.2,41.08,63.55C144.33,99.11,144.08,102.47,142.62,105.72Z"/><g id="_Repetition_miroir_" data-name="&lt;Repetition miroir&gt;"><g class="cls-4"><path class="cls-5" d="M141.14,132.93c4.49-2.13,7.05-13.22,8.4-18,1-3.57,1.44-12.71-1.66-14.74-2.71-1.78-12.37,3.8-12.37,3.8l-.95,13.23-2.14,14S139.13,133.87,141.14,132.93Z"/></g></g><g id="_Repetition_miroir_2" data-name="&lt;Repetition miroir&gt;"><g class="cls-6"><path class="cls-5" d="M53.29,132.93c-4.49-2.13-7-13.22-8.4-18-1-3.57-1.44-12.71,1.66-14.74,2.71-1.78,12.37,3.8,12.37,3.8l.95,13.23,2.14,14S55.3,133.87,53.29,132.93Z"/></g></g><rect class="cls-1" x="96.86" y="56" width="41.71" height="112.28"/><path class="cls-7" d="M137.5,91c-1.22-6.89-5.84-19.47-10.83-24.37-5.82-5.72-17-9.4-26.31-10.39V56c-1.09,0-2.21,0-3.33,0L95.4,56v.12c-10.64.74-22.35,4.69-28.3,10.54-5,4.9-9.62,17.48-10.84,24.37-1.81,10.24,3.53,42.06,6.82,51.92,7.77,23.22,16.38,18.21,23.1,23.1,2.59,1.89,10.7,1.72,10.7,1.72s8.07.11,10.7-1.72c8-5.57,14.8-.93,23.1-23.1C134.32,133.21,139.31,101.27,137.5,91Z"/><rect class="cls-1" x="55.19" y="56" width="41.71" height="112.28"/><g class="cls-8"><rect class="cls-9" x="138.09" y="128.19" width="10.5" height="16.5" rx="5.25"/></g><g class="cls-10"><rect class="cls-9" x="45.05" y="128.19" width="10.5" height="16.5" rx="5.25"/></g><path class="cls-3" d="M55.19,100.66c-.28-4.18,7.74-31.36,11.71-30.45,11.76,2.67,28.89,4.42,30,4.49,1.9.12,18.75-.76,30.58-4.49,5.42-1.71,10.27,31.94,10.27,31.94l6.54-2.3,1.66-49.43-94.3.85Z"/><path class="cls-11" d="M127.44,70.21s31.91-41.59-21.38-41.59"/><path class="cls-11" d="M75.11,71.81s-24-40.62.94-46.65c21.17-5.11,28.25,7.48,28.25,7.48,21.61,26.91-7.44,42.06-7.44,42.06"/><path class="cls-11" d="M60.15,74.7s-18.4-2.91-12.4-15.15"/><path class="cls-11" d="M55.19,100.66s-19.35-1.27-16.9-11"/><path class="cls-11" d="M133.8,78.84s13.56,11.72,18.91-4.14"/><path class="cls-11" d="M45.05,118.79s-27.17,18.11-9.92,37.09,13.59,43.33,13.59,43.33"/><path class="cls-11" d="M63.08,143s-5.52,13,4,24.83,9.3,28.35,6,30.2"/></g></svg>