<svg xmlns="http://www.w3.org/2000/svg" xmlns:xlink="http://www.w3.org/1999/xlink" viewBox="0 0 198 187.6"><defs><style>.cls-1,.cls-11,.cls-2{fill:none;}.cls-2{stroke:#fafafa;}.cls-11,.cls-2{stroke-miterlimit:10;}.cls-3{clip-path:url(#clip-path);}.cls-4{fill:#7f4b37;}.cls-5{clip-path:url(#clip-path-2);}.cls-6{fill:#9f6042;}.cls-7{clip-path:url(#clip-path-3);}.cls-8{fill:#55baca;}.cls-9{clip-path:url(#clip-path-4);}.cls-10{fill:#2e211e;}.cls-11{stroke:#606060;}</style><clipPath id="clip-path"><polygon class="cls-1" points="131.8 99.96 131.8 99.96 149.54 99.96 149.54 133.01 131.8 133.01 131.8 99.96"/></clipPath><clipPath id="clip-path-2"><polygon class="cls-1" points="61.88 99.96 61.88 99.96 44.15 99.96 44.15 133.01 61.88 133.01 61.88 99.96"/></clipPath><clipPath id="clip-path-3"><polygon class="cls-1" points="138.09 128.19 138.09 128.19 148.59 128.19 148.59 144.69 138.09 144.69 138.09 128.19"/></clipPath><clipPath id="clip-path-4"><polygon class="cls-1" points="55.55 128.19 55.55 128.19 45.05 128.19 45.05 144.69 55.55 144.69 55.55 128.19"/></clipPath></defs><g id="Calque_3" data-name="Calque 3"><path class="cls-2" d="M104.3,32.64c8.8-9.46,6.14-25.18,6.14-25.18"/><g id="_Répétition_miroir_" data-name="&lt;Répétition miroir&gt;"><g class="cls-3"><path class="cls-4" d="M140.46,132.81c4.46-2.11,7-13.12,8.34-17.86,1-3.55,1.43-12.62-1.65-14.64-2.69-1.76-12.28,3.78-12.28,3.78l-.94,13.14-2.13,13.85S138.46,133.75,140.46,132.81Z"/></g></g><g id="_Répétition_miroir_2" data-name="&lt;Répétition miroir&gt;"><g class="cls-5"><path class="cls-4" d="M53.23,132.81c-4.46-2.11-7-13.12-8.34-17.86-1-3.55-1.43-12.62,1.65-14.64,2.68-1.76,12.27,3.78,12.27,3.78l.95,13.14,2.12,13.85S55.22,133.75,53.23,132.81Z"/></g></g><rect class="cls-1" x="96.86" y="56" width="41.71" height="112.28"/><path class="cls-6" d="M137.5,91c-1.22-6.89-5.84-19.47-10.83-24.37-5.82-5.72-17-9.4-26.31-10.39V56c-1.09,0-2.21,0-3.33,0L95.4,56v.12c-10.64.74-22.35,4.69-28.3,10.54-5,4.9-9.62,17.48-10.84,24.37-1.81,10.24,3.53,42.06,6.82,51.92,7.77,23.22,16.38,18.21,23.1,23.1,2.59,1.89,10.7,1.72,10.7,1.72s8.07.11,10.7-1.72c8-5.57,14.8-.93,23.1-23.1C134.32,133.21,139.31,101.27,137.5,91Z"/><rect class="cls-1" x="55.19" y="56" width="41.71" height="112.28"/><g class="cls-7"><rect class="cls-8" x="138.09" y="128.19" width="10.5" height="16.5" rx="5.25"/></g><g class="cls-9"><rect class="cls-8" x="45.05" y="128.19" width="10.5" height="16.5" rx="5.25"/></g><path class="cls-10" d="M135.07,110.29c-1.47-.62-2.07-11.15-3.91-19.64C127,71.43,89.73,76.11,86.54,75.39c-4.4-1-6.94-2.08-8.34-3.1-.69,6.59-4.61,10.79-8.47,15.27-5.09,5.9-10.09,12.28-7.45,25.24.31,1.52,5,11.86,6.88,22.69,1.47,8.34,1.36,9.88.62,11.43s-3.68,7.72-13.23,9c-5.82.75,10.57-29-4.9-13.29-.65.66-36.43-18.34-26.72-49.73,3.33-10.77,14.73-22.12,23-29.13A75.12,75.12,0,0,1,57,56.87S49,46.66,62.84,36a60.29,60.29,0,0,1,15.35-8c10-3.77,2.8,0,12.91,0,16.28,0,32,11.43,32,11.43s12.13,9,23.53,41.08C154.44,102.57,136.54,110.91,135.07,110.29Z"/><path class="cls-11" d="M78.33,70.32S75.4,51.12,103,57.78c42.88,10.33,32,52.51,32,52.51"/><path class="cls-11" d="M64.9,60.85S50.15,39.27,81.41,38.61s57.2,27.29,58.13,27"/></g></svg>