<svg xmlns="http://www.w3.org/2000/svg" xmlns:xlink="http://www.w3.org/1999/xlink" viewBox="0 0 198 187.6"><defs><style>.cls-1,.cls-11,.cls-12,.cls-13,.cls-14,.cls-2,.cls-4,.cls-6{fill:none;}.cls-2{stroke:#fafafa;}.cls-11,.cls-12,.cls-13,.cls-14,.cls-2,.cls-4,.cls-6{stroke-miterlimit:10;}.cls-3{fill:#2e211e;}.cls-4{stroke:#787878;}.cls-5{fill:#666;}.cls-6{stroke:#575757;}.cls-7{clip-path:url(#clip-path);}.cls-8{fill:#7f4b37;}.cls-9{clip-path:url(#clip-path-2);}.cls-10{fill:#9f6042;}.cls-11{stroke:#616161;}.cls-12{stroke:#6e6e6e;}.cls-13{stroke:#424242;}.cls-14{stroke:#666;}.cls-15{clip-path:url(#clip-path-3);}.cls-16{fill:#55baca;}.cls-17{clip-path:url(#clip-path-4);}</style><clipPath id="clip-path"><polygon class="cls-1" points="132.42 99.85 132.42 99.85 150.28 99.85 150.28 133.13 132.42 133.13 132.42 99.85"/></clipPath><clipPath id="clip-path-2"><polygon class="cls-1" points="62.01 99.85 62.01 99.85 44.15 99.85 44.15 133.13 62.01 133.13 62.01 99.85"/></clipPath><clipPath id="clip-path-3"><polygon class="cls-1" points="138.09 128.19 138.09 128.19 148.59 128.19 148.59 144.69 138.09 144.69 138.09 128.19"/></clipPath><clipPath id="clip-path-4"><polygon class="cls-1" points="55.55 128.19 55.55 128.19 45.05 128.19 45.05 144.69 55.55 144.69 55.55 128.19"/></clipPath></defs><g id="Calque_3" data-name="Calque 3"><path class="cls-2" d="M104.3,32.64c8.8-9.46,6.14-25.18,6.14-25.18"/><ellipse class="cls-3" cx="98.28" cy="24.37" rx="22.5" ry="20.5"/><path class="cls-4" d="M104.79,32.26s14-7.43,6.14-24.8"/><path class="cls-5" d="M83.59,41.07l-.63-6s8.63-3.51,14.84-3.49c7.48,0,16.71,3.74,16.71,3.74l-1.25,6.23S104,39.83,97.8,39.44C92.44,39.1,83.59,41.07,83.59,41.07Z"/><path class="cls-6" d="M89,32.77S76.42,10.33,97.53,4.13"/><g id="_Répétition_miroir_" data-name="&lt;Répétition miroir&gt;"><g class="cls-7"><path class="cls-8" d="M141.14,132.93c4.49-2.13,7.05-13.22,8.4-18,1-3.57,1.44-12.71-1.66-14.74-2.71-1.78-12.37,3.8-12.37,3.8l-.95,13.23-2.14,14S139.13,133.87,141.14,132.93Z"/></g></g><g id="_Répétition_miroir_2" data-name="&lt;Répétition miroir&gt;"><g class="cls-9"><path class="cls-8" d="M53.29,132.93c-4.49-2.13-7-13.22-8.4-18-1-3.57-1.44-12.71,1.66-14.74,2.71-1.78,12.37,3.8,12.37,3.8l.95,13.23,2.14,14S55.3,133.87,53.29,132.93Z"/></g></g><rect class="cls-1" x="96.86" y="56" width="41.71" height="112.28"/><path class="cls-10" d="M137.5,91c-1.22-6.89-5.84-19.47-10.83-24.37-5.82-5.72-17-9.4-26.31-10.39V56c-1.09,0-2.21,0-3.33,0L95.4,56v.12c-10.64.74-22.35,4.69-28.3,10.54-5,4.9-9.62,17.48-10.84,24.37-1.81,10.24,3.53,42.06,6.82,51.92,7.77,23.22,16.38,18.21,23.1,23.1,2.59,1.89,10.7,1.72,10.7,1.72s8.07.11,10.7-1.72c8-5.57,14.8-.93,23.1-23.1C134.32,133.21,139.31,101.27,137.5,91Z"/><rect class="cls-1" x="55.19" y="56" width="41.71" height="112.28"/><path class="cls-3" d="M55.16,102.34s-7.34.78-8.29-3.12-5.38-19-3.94-25.27c1.62-7,12.17-18,17.8-22.42,5.17-4.07,23.9-11.05,23.9-11.05l13.14,4.29,10.85-5s22.73,4.87,28.46,9.74c5.31,4.52,12.31,17.67,13.18,24.59.78,6.29-3.13,25.14-3.13,25.14l-8.29,3.26-5.39-12.36-7-18.76L97.18,74.67,66.6,72.17,62.36,89.61"/><path class="cls-11" d="M69.14,47.55a26,26,0,0,0-4.08,24.1c.33.95,1,2.06,2,1.95"/><path class="cls-12" d="M60.94,91.11A17.88,17.88,0,0,1,44.53,71.74l.62.09"/><path class="cls-13" d="M96.38,74.45c8.92-32.21,5-33.63,5-33.63"/><path class="cls-14" d="M125.27,71.5S139.52,58,136.52,50"/><path class="cls-11" d="M132.81,89.53s15.87-4.1,16.88-14.83"/><g class="cls-15"><rect class="cls-16" x="138.09" y="128.19" width="10.5" height="16.5" rx="5.25"/></g><g class="cls-17"><rect class="cls-16" x="45.05" y="128.19" width="10.5" height="16.5" rx="5.25"/></g></g></svg>