<svg xmlns="http://www.w3.org/2000/svg" xmlns:xlink="http://www.w3.org/1999/xlink" viewBox="0 0 788 1005.07"><defs><style>.cls-1,.cls-11,.cls-2{fill:none;}.cls-2{stroke:#fafafa;}.cls-11,.cls-2{stroke-miterlimit:10;}.cls-3{clip-path:url(#clip-path);}.cls-4{fill:#7f4b37;}.cls-5{clip-path:url(#clip-path-2);}.cls-6{fill:#9f6042;}.cls-7{clip-path:url(#clip-path-3);}.cls-8{fill:#55baca;}.cls-9{clip-path:url(#clip-path-4);}.cls-10{fill:#2e211e;}.cls-11{stroke:#606060;}</style><clipPath id="clip-path"><polygon class="cls-1" points="407.99 157.78 407.99 157.78 425.73 157.78 425.73 190.83 407.99 190.83 407.99 157.78"/></clipPath><clipPath id="clip-path-2"><polygon class="cls-1" points="338.07 157.78 338.07 157.78 320.33 157.78 320.33 190.83 338.07 190.83 338.07 157.78"/></clipPath><clipPath id="clip-path-3"><polygon class="cls-1" points="414.28 186 414.28 186 424.78 186 424.78 202.5 414.28 202.5 414.28 186"/></clipPath><clipPath id="clip-path-4"><polygon class="cls-1" points="331.73 186 331.73 186 321.23 186 321.23 202.5 331.73 202.5 331.73 186"/></clipPath></defs><g id="Calque_3" data-name="Calque 3"><path class="cls-2" d="M380.49,90.46c8.8-9.46,6.14-25.18,6.14-25.18"/><g id="_Repetition_miroir_" data-name="&lt;Repetition miroir&gt;"><g class="cls-3"><path class="cls-4" d="M416.65,190.63c4.45-2.11,7-13.12,8.34-17.87,1-3.54,1.43-12.62-1.65-14.63-2.69-1.76-12.28,3.77-12.28,3.77l-.94,13.15L408,188.9S414.65,191.57,416.65,190.63Z"/></g></g><g id="_Repetition_miroir_2" data-name="&lt;Repetition miroir&gt;"><g class="cls-5"><path class="cls-4" d="M329.41,190.63c-4.45-2.11-7-13.12-8.34-17.87-1-3.54-1.42-12.62,1.66-14.63,2.68-1.76,12.27,3.77,12.27,3.77l.95,13.15,2.12,13.85S331.41,191.57,329.41,190.63Z"/></g></g><rect class="cls-1" x="373.05" y="113.82" width="41.71" height="112.28"/><path class="cls-6" d="M413.69,148.85c-1.22-6.89-5.84-19.47-10.84-24.38-5.82-5.71-17-9.4-26.3-10.38v-.27c-1.08,0-2.2,0-3.33,0-.55,0-1.1,0-1.64,0v.11c-10.63.75-22.34,4.7-28.3,10.54-5,4.91-9.61,17.49-10.83,24.38-1.81,10.23,3.52,42.06,6.82,51.91C347,224,355.65,219,362.37,223.87c2.59,1.89,10.7,1.72,10.7,1.72s8.07.11,10.7-1.72c8-5.57,14.8-.93,23.1-23.11C410.51,191,415.5,159.08,413.69,148.85Z"/><rect class="cls-1" x="331.38" y="113.82" width="41.71" height="112.28"/><g class="cls-7"><rect class="cls-8" x="414.28" y="186" width="10.5" height="16.5" rx="5.25"/></g><g class="cls-9"><rect class="cls-8" x="321.23" y="186" width="10.5" height="16.5" rx="5.25"/></g><path class="cls-10" d="M411.26,168.11c-1.47-.62-2.07-11.15-3.91-19.64-4.15-19.22-41.43-14.54-44.62-15.26-4.4-1-6.94-2.08-8.34-3.1-.69,6.59-4.61,10.79-8.47,15.27-5.09,5.9-10.09,12.28-7.45,25.24.31,1.52,5,11.86,6.88,22.69,1.47,8.34,1.36,9.88.62,11.43s-3.68,7.72-13.23,9c-5.82.75,10.57-29-4.9-13.29-.65.66-36.43-18.34-26.72-49.73,3.33-10.77,14.73-22.12,23-29.13a75.12,75.12,0,0,1,9.05-6.86s-8-10.21,5.85-20.83a60.29,60.29,0,0,1,15.35-8c9.95-3.77,2.8,0,12.91,0,16.28,0,32,11.43,32,11.43s12.13,9,23.53,41.08C430.63,160.39,412.73,168.73,411.26,168.11Z"/><path class="cls-11" d="M354.52,128.13s-2.94-19.2,24.7-12.53c42.87,10.33,32,52.51,32,52.51"/><path class="cls-11" d="M341.09,118.67S326.33,97.09,357.6,96.43s57.19,27.28,58.13,27"/></g></svg>