<svg xmlns="http://www.w3.org/2000/svg" viewBox="0 0 588 350.84"><defs><style>.cls-1{fill:#375d63;}.cls-2{fill:#f7a386;}.cls-3{fill:#d79072;}.cls-4{fill:#af3e1c;}</style></defs><g id="Calque_1" data-name="Calque 1"><path class="cls-1" d="M381.83,317.32c-23.32,2.49-44.51,10-69.8,18.32,0,0-11.55.45-10.77-.15l-70.83-16.58,5.92-58.41a20.89,20.89,0,0,1,20.78-18.78H357a20.88,20.88,0,0,1,20.83,19.41Z"/></g><g id="Calque_3" data-name="Calque 3"><path class="cls-2" d="M402,88.24c4.62,8.52,5.53,38.36,5.53,38.36l19.26,74.63a18.69,18.69,0,0,1-12.4,22.46h0A18.69,18.69,0,0,1,391,211.9l-34.79-85.64,34.49-47.88S400.16,85,402,88.24Z"/><path class="cls-2" d="M314.1,254.72l-5.35-22.11,7.53-4.4,2.08-4.61,15.76.74,68.11-30,9.89-4.36c9.18-2.06-4.85,4.41-2,13.37L424,195.87c9.36,13.49.22,30.37-10,32.92l-72.87,16.59s-12.93,11.47-13.39,10.74-5.49-2.48-5.49-2.48Z"/><polygon class="cls-2" points="186.42 74.34 184.21 54.99 165.55 48.77 166.68 85.11 186.42 74.34"/><polygon class="cls-3" points="327.41 0 287.89 0 287.89 47.38 301.38 94.44 316.97 94.44 327.41 47.38 327.41 0"/><path class="cls-2" d="M159.19,191.44h0a17.66,17.66,0,0,0,25.11-2.59L239,130.65,221.84,78.38,200.44,114l-43.56,52.65A17.66,17.66,0,0,0,159.19,191.44Z"/><path class="cls-2" d="M151.75,177.7,166.13,67.56l.92-14.26L184.21,55c2.59-.1,6.24,108.06,4.89,110.86-1.22,2.53-1.51,15.07-1.51,15.07l-.47,1.71a18,18,0,0,1-18.93,13.14h0a18,18,0,0,1-16.31-16.48Z"/><path class="cls-4" d="M390.67,78.38c0,3-15.85,53.5-15.85,56.47s-.63,78.61-.63,78.61l18.76,128a18.22,18.22,0,0,1-15.62,20.7s-53.09,10.13-71,9.45c-17.32-.66-67.82-14.38-67.82-14.38a18.23,18.23,0,0,1-14.31-20l15.43-128.21L239,130.65,221.84,78.38l66-31,13.49,47.06H317l10.44-47.06Z"/><path class="cls-2" d="M166.13,67.56c3-11.62-8.45-32.15-11.51-39.83a10.05,10.05,0,0,1,3.1-11.57c5-4,11.32-9.31,11-10.79-.56-2.44-4.4-36.27-4.4-36.27L173.47-33l6.12,41,5.69-31.49,9.19,3.69-3.4,38.69,7.61,13.69L185.61,61.29Z"/></g></svg>