<svg xmlns="http://www.w3.org/2000/svg" viewBox="0 0 788 1005.07"><defs><style>.cls-1{fill:#375d63;}.cls-2{fill:#d79072;}.cls-3{fill:#9c3a26;}.cls-4{fill:#fff;}.cls-5{fill:#d12e2e;}.cls-6{fill:#f7a386;}</style></defs><g id="Calque_1" data-name="Calque 1"><path class="cls-1" d="M481.83,486.82c-23.32,2.48-44.51,10-69.8,18.32,0,0-11.55.45-10.77-.15l-70.83-16.58L336.35,430a20.89,20.89,0,0,1,20.78-18.78H457a20.88,20.88,0,0,1,20.83,19.41Z"/></g><g id="Calque_3" data-name="Calque 3"><rect class="cls-2" x="387.89" y="169.5" width="39.52" height="47.38"/><path class="cls-3" d="M313.1,390.22h0a17.65,17.65,0,0,0,20.81-14.3l20.15-77.26-32.22-50.78-9.6,54.57-13,67.09A17.64,17.64,0,0,0,313.1,390.22Z"/><path class="cls-3" d="M490.67,247.88l20.81,32.69,48.23,60.12a18.68,18.68,0,0,1-2.07,25.57h0a18.68,18.68,0,0,1-26.15-1.15l-59.07-63.37Z"/><path class="cls-3" d="M325.65,396.61l72.4-57,7.57-2.33,6.64-8.94-6.15-25.11-10.19,4.29L393,306l-10.36,14.3s-64,36.55-66.13,38.34-11.75,9.2-11.75,9.2l-1.18,1.3a18.36,18.36,0,0,0-1.3,23h0a17.15,17.15,0,0,0,22,5.21Z"/><path class="cls-3" d="M490.67,247.88c0,3-15.85,53.5-15.85,56.47s-.63,78.61-.63,78.61L493,511a18.22,18.22,0,0,1-15.62,20.71s-53.09,10.13-71,9.45c-17.32-.66-67.82-14.38-67.82-14.38a18.23,18.23,0,0,1-14.31-20l15.43-128.21L339,300.15l-17.14-52.27,61-26.38,2.51-17.68,44.49.36,2,18.31Z"/><polygon class="cls-4" points="409.81 370.28 379.98 370.28 371.48 313.99 418.98 313.99 409.81 370.28"/><polygon class="cls-5" points="412.8 354.71 381.36 354.71 373.62 336.65 416.84 336.65 412.8 354.71"/><path class="cls-6" d="M352.81,372.18c-4.33-3.91-6.63-17.6-4.28-22.93C349.53,347,357,344,357,344l8.18-3.6,6.32-9.93,7.27-7.16,21.42-.92L403,352.56,381.63,367.7l-12.79-1.76-10.23,5.7S354.78,374,352.81,372.18Z"/><path class="cls-6" d="M536,362.58c4,10.47,14.77,8.3,23.76,5.17,6.41-2.23,66.35-30.2,82.74-37.59,9.26-4.17,14.3-6.15,12.34-11.87-1.77-5.2-17.21-1.77-21.28-1.31-38.28,4.32-53.23,8.79-85.88,16.92C529.28,338.49,534.65,359,536,362.58Z"/><path class="cls-6" d="M680.77,303.58a82.9,82.9,0,0,0,16.15-.6s-1.93,4.55-4.18,5.95c-1.82,1.14-12.16,2.87-12.16,2.87h0c26.95,10.58,54.79,23,57.22,24.85,1.72,1.29,3.25,7.61,3.25,7.61s-26.19-9.48-33.71-11.67c-25.55-7.43-44.68-7.81-59.22-4.66-2.56.55-9.41-11.78-4.16-13.41,1.84-.57,9-8,12.21-8.34C669,304.75,680.37,303.56,680.77,303.58Z"/><path class="cls-3" d="M656.14,305.44l4.78,22.25-7.65,4.19-2.2,4.56-15.73-1.16-78.87,32.34-8.63,1.69a18.17,18.17,0,0,1-21-12.75h0a18.17,18.17,0,0,1,13.5-22.81l88.48-19.68s13.22-11.13,13.66-10.38,5.43,2.62,5.43,2.62Z"/><polygon class="cls-6" points="363.27 342.89 369.54 323.62 372.5 320.73 373.94 330.73 363.27 342.89"/></g></svg>