<svg xmlns="http://www.w3.org/2000/svg" viewBox="0 0 788 1005.07"><defs><style>.cls-1{fill:#375d63;}.cls-2{fill:#f7a386;}.cls-3{fill:#27330e;}.cls-4{fill:#d39844;}</style></defs><g id="Calque_1" data-name="Calque 1"><path class="cls-1" d="M481.83,486.82c-23.32,2.48-44.51,10-69.8,18.32,0,0-11.55.45-10.77-.15l-70.83-16.58L336.35,430a20.89,20.89,0,0,1,20.78-18.78H457a20.88,20.88,0,0,1,20.83,19.41Z"/></g><g id="Calque_3" data-name="Calque 3"><polygon class="cls-2" points="321.84 247.88 387.67 219.8 387.01 189.87 427.41 189.87 427.18 219.8 490.22 247.88 474.55 290.31 338.98 287.93 321.84 247.88"/><path class="cls-2" d="M259.19,360.94h0a17.66,17.66,0,0,0,25.11-2.59L339,300.15l-17.14-52.27-21.4,35.59-43.56,52.65A17.66,17.66,0,0,0,259.19,360.94Z"/><path class="cls-3" d="M337.34,381.93l-3.44-6.84,5.56-18.67L339,300.15l-17.14-52.27,61-26.38,25.49,48.32h6.17l17.37-47.33,58.82,25.39c0,3-15.85,53.5-15.85,56.47,0,1.78-.22,29.59-.4,51.63,0,3.16,6.61,19.11,6.61,19.11L474.19,383"/><path class="cls-2" d="M490.22,247.88l26.53,28.24,58.6,50.08a18.68,18.68,0,0,1,2.72,25.51h0a18.67,18.67,0,0,1-25.9,3.74l-77.63-50.17Z"/><path class="cls-2" d="M562.82,356.21c10.64,3.52,15.78-6.16,19.06-15.1,2.34-6.37,18.72-70.45,23.4-87.81,2.65-9.81,4.32-15-1.35-17.07-5.15-1.93-12.29,12.18-14.51,15.62-20.93,32.35-26.95,46.74-41.37,77.14C539.91,346.15,559.16,355,562.82,356.21Z"/><path class="cls-2" d="M609,206.87A82,82,0,0,0,618.75,194s2.3,4.37,2,7c-.28,2.13-5.49,11.22-5.49,11.22h0c25.26-14.13,52.55-27.75,55.49-28.48,2.09-.51,7.95,2.3,7.95,2.3s-23.94,14.25-30.4,18.67c-22,15.05-34.38,29.6-41.16,42.84-1.19,2.33-15.07-.19-13-5.29.73-1.78-.46-12,1.29-14.73C602.42,216.72,608.7,207.17,609,206.87Z"/><path class="cls-2" d="M270.24,361.32c-10.64,3.52-15.78-6.16-19.06-15.1-2.34-6.37-18.72-70.45-23.4-87.81-2.65-9.81-4.32-15,1.35-17.07,5.15-1.93,12.28,12.18,14.51,15.62,20.93,32.35,26.95,46.74,41.37,77.14C293.15,351.26,273.89,360.11,270.24,361.32Z"/><path class="cls-2" d="M224.08,212a82,82,0,0,1-9.77-12.86s-2.3,4.37-2,7c.28,2.13,5.49,11.22,5.49,11.22h0c-25.26-14.13-52.56-27.75-55.49-28.48-2.09-.51-7.95,2.3-7.95,2.3s23.94,14.25,30.39,18.67c22,15,34.39,29.6,41.17,42.84,1.19,2.33,15.07-.19,13-5.29-.73-1.78.46-12-1.29-14.73C230.64,221.83,224.35,212.28,224.08,212Z"/><polygon class="cls-4" points="479.52 420.56 333.46 422.71 336.38 381.93 475.81 381.93 479.52 420.56"/></g></svg>