<svg id="Calque_1" data-name="Calque 1" xmlns="http://www.w3.org/2000/svg" viewBox="0 0 788 1005.07"><defs><style>.cls-1{fill:#375d63;}.cls-2{fill:#d18774;}.cls-3{fill:#ac9d7c;}.cls-4{fill:#f7a386;}</style></defs><path class="cls-1" d="M481.83,486.82c-23.32,2.48-44.51,10-69.8,18.32,0,0-11.55.45-10.77-.15l-70.83-16.58L336.35,430a20.89,20.89,0,0,1,20.78-18.78H457a20.88,20.88,0,0,1,20.83,19.41Z"/><rect class="cls-2" x="387.89" y="169.5" width="39.52" height="47.38"/><path class="cls-3" d="M259.19,360.94h0a17.66,17.66,0,0,0,25.11-2.59L339,300.15l-17.14-52.27-21.4,35.59-43.56,52.65A17.66,17.66,0,0,0,259.19,360.94Z"/><path class="cls-3" d="M489.67,247.88l20.81,32.69,48.23,60.12a18.68,18.68,0,0,1-2.07,25.57h0a18.68,18.68,0,0,1-26.15-1.15l-56.67-60.76Z"/><path class="cls-3" d="M510.16,468.34l-20.05-10.76,1.75-8.54-2.05-4.63,11.06-11.25,26.39-81.05,4.3-7.68a18.17,18.17,0,0,1,23.28-7.71h0a18.17,18.17,0,0,1,8.65,25L521.23,442s-.07,17.28-.92,17.13-5.52,2.45-5.52,2.45Z"/><path class="cls-3" d="M253.75,363.28,181,291.71l-10.63-1.15-6.52-10.41,9.49-26.75,11,5.71,3.4-1.37,10.12,16.63s68,46.26,70.12,48.43S280.1,334,280.1,334l1.18,1.53a19.66,19.66,0,0,1-.92,25.21h0a19.68,19.68,0,0,1-25.14,3.47Z"/><path class="cls-3" d="M490.67,247.88c0,3-15.85,53.5-15.85,56.47s-.63,78.61-.63,78.61L493,511a18.22,18.22,0,0,1-15.62,20.71s-53.09,10.13-71,9.45c-17.32-.66-67.82-14.38-67.82-14.38a18.23,18.23,0,0,1-14.31-20l15.43-128.21L339,300.15l-17.14-52.27,61-26.38,2.51-17.68,44.49.36,2,18.31Z"/><path class="cls-4" d="M168,268.73c1.35-1.24,6.78-12.16,6.78-12.16l-1.11-20.4s-2.13-5.66-3.07-7.51-6.71-15.27-6.71-15.27l.12-13.77-7.76,4-1.1,8.91,1.75,12.25-13.72-7-9.82,5.79-6,26.67L143,264Z"/><path class="cls-4" d="M506.64,462.5l-14.39-15-10-3.08-.56,10.73s-24.55,32-22.51,31.18l-1.9,16.21c4.58-3.11,22.32-15.15,29.55-20C495.67,476.57,506.64,462.5,506.64,462.5Z"/></svg>