<svg id="Calque_1" data-name="Calque 1" xmlns="http://www.w3.org/2000/svg" viewBox="0 0 788 1005.07"><defs><style>.cls-1{fill:#375d63;}.cls-2{fill:#d18774;}.cls-3{fill:#f7a386;}.cls-4{fill:#3f372e;}</style></defs><path class="cls-1" d="M481.83,486.82c-23.32,2.48-44.51,10-69.8,18.32,0,0-11.55.45-10.77-.15l-70.83-16.58L336.35,430a20.89,20.89,0,0,1,20.78-18.78H457a20.88,20.88,0,0,1,20.83,19.41Z"/><rect class="cls-2" x="387.89" y="169.5" width="39.52" height="47.38"/><path class="cls-3" d="M581.12,334.91s0,0,0,0h0l-73.19-78.3,0,0c-9.34-10-25.15-10.22-35.29-.52s-10.81,25.71-1.45,35.71a5.7,5.7,0,0,0,.42.43l85.65,71.43c8.68,7,19.26,6.78,25.12,0C588.93,356,592.39,346.48,581.12,334.91Z"/><path class="cls-3" d="M506.64,448.84l-14.39-15-10-3.08-.56,10.73s-24.55,32-22.51,31.18l-1.9,16.2c4.58-3.1,22.32-15.14,29.55-20C495.67,462.92,506.64,448.84,506.64,448.84Z"/><path class="cls-3" d="M578.15,333.75c-11.14-8.26-24.59-5.34-33.1,5.42-.18.23-3.48,5.37-3.48,5.37l-50.64,94.64s-5.1,6.92,2.85,12.51c7.14,5,12.86-2.85,12.86-2.85l69.26-73.26c8-8.45,14.08-18.41,11.75-29.81C586.71,341.15,581.63,336.32,578.15,333.75Z"/><path class="cls-3" d="M584.65,373.29l-.1-.11c-.17.2-.35.39-.54.58a.57.57,0,0,1-.14.13Z"/><path class="cls-3" d="M330.85,325.35l-34.48,50.78-2.69,3.42a14.41,14.41,0,0,1-19.32,3.08h0A14.43,14.43,0,0,1,269,365.26l2.26-5.63s19-40.49,23.7-54.61c5.75-17.3,16.83-71,46.45-56.23h0c10.81,5.38,19.46,19.18,13.63,29.75Z"/><path class="cls-3" d="M280.23,385.05h0a16.94,16.94,0,0,0,14.92-9.86,10.58,10.58,0,0,0,.81-1.76c1.87-10.08-.52-30.88-2.63-40.91-4.88-23.31-26.86-93-26.86-93h0a9.89,9.89,0,0,0-12.56-4.89l-1.08.43a9.88,9.88,0,0,0-6,11.17c.18.86.32,1.64.41,2.24,1.52,10.52,6.21,79,8,93.22,1,8.29,6.37,24.42,10.21,31.84C267.58,377.71,274.64,385.21,280.23,385.05Z"/><path class="cls-3" d="M267,239.69s1.07,16.56-4,15.43l-1.86-.41-40.7-10.63-46.16-22.3,6.78-5.75,7.9.41,33,13.41,13.78-3.41L220.1,205.71l6-5.27,17.42,15.77,16.12,9.95Z"/><path class="cls-4" d="M490.83,246.19c0,3-15.85,53.51-15.85,56.48s-.63,78.6-.63,78.6l18.76,128.05A18.21,18.21,0,0,1,477.49,530s-53.09,10.14-71,9.46c-17.32-.67-67.82-14.38-67.82-14.38a18.23,18.23,0,0,1-14.31-20L339.8,376.89l-.66-78.42L322,246.19l61-26.38,2.5-17.68,44.5.36,2,18.31Z"/><polygon class="cls-4" points="321.84 247.88 339.13 318.25 474.72 318.25 490.67 247.88 455.67 232.77 354.04 233.94 321.84 247.88"/></svg>