<svg id="Calque_1" data-name="Calque 1" xmlns="http://www.w3.org/2000/svg" viewBox="0 0 588 350.84"><defs><style>.cls-1{fill:#375d63;}.cls-2{fill:#d18774;}.cls-3{fill:#ac9d7c;}.cls-4{fill:#f7a386;}</style></defs><path class="cls-1" d="M381.83,317.32c-23.32,2.49-44.51,10-69.8,18.32,0,0-11.55.45-10.77-.15l-70.83-16.58,5.92-58.41a20.89,20.89,0,0,1,20.78-18.78H357a20.88,20.88,0,0,1,20.83,19.41Z"/><rect class="cls-2" x="287.89" width="39.52" height="47.38"/><path class="cls-3" d="M159.19,191.44h0a17.66,17.66,0,0,0,25.11-2.59L239,130.65,221.84,78.38,200.44,114l-43.56,52.65A17.66,17.66,0,0,0,159.19,191.44Z"/><path class="cls-3" d="M389.67,78.38l20.81,32.69,48.23,60.12a18.67,18.67,0,0,1-2.07,25.57h0a18.68,18.68,0,0,1-26.15-1.15l-56.67-60.76Z"/><path class="cls-3" d="M410.16,298.84l-20.05-10.76,1.75-8.54-2.05-4.63,11.06-11.24,26.39-81.06,4.3-7.68a18.17,18.17,0,0,1,23.28-7.71h0a18.17,18.17,0,0,1,8.65,25.05l-42.26,80.19s-.07,17.28-.92,17.14-5.52,2.44-5.52,2.44Z"/><path class="cls-3" d="M153.75,193.78,81,122.22l-10.63-1.16L63.8,110.65l9.49-26.74,11,5.7,3.4-1.37,10.12,16.63s68,46.26,70.12,48.43,12.21,11.2,12.21,11.2l1.18,1.53a19.66,19.66,0,0,1-.92,25.21h0a19.67,19.67,0,0,1-25.14,3.47Z"/><path class="cls-3" d="M390.67,78.38c0,3-15.85,53.5-15.85,56.47s-.63,78.61-.63,78.61l18.76,128a18.22,18.22,0,0,1-15.62,20.7s-53.09,10.13-71,9.45c-17.32-.66-67.82-14.38-67.82-14.38a18.23,18.23,0,0,1-14.31-20l15.43-128.21L239,130.65,221.84,78.38l61-26.38,2.51-17.68,44.49.36,2,18.31Z"/><path class="cls-4" d="M68,99.23c1.35-1.24,6.78-12.16,6.78-12.16L73.7,66.68S71.57,61,70.63,59.16s-6.71-15.27-6.71-15.27L64,30.12l-7.76,4L55.18,43l1.75,12.24-13.72-7L33.39,54l-6,26.67L43,94.51Z"/><path class="cls-4" d="M406.64,293l-14.39-15-10-3.08-.56,10.73s-24.55,32-22.51,31.18L357.31,333c4.58-3.11,22.32-15.15,29.55-20C395.67,307.07,406.64,293,406.64,293Z"/></svg>