<svg xmlns="http://www.w3.org/2000/svg" viewBox="0 0 588 350.84"><defs><style>.cls-1{fill:#375d63;}.cls-2{fill:#d79072;}.cls-3{fill:#9c3a26;}.cls-4{fill:#fff;}.cls-5{fill:#d12e2e;}.cls-6{fill:#f7a386;}</style></defs><g id="Calque_1" data-name="Calque 1"><path class="cls-1" d="M381.83,317.32c-23.32,2.49-44.51,10-69.8,18.32,0,0-11.55.45-10.77-.15l-70.83-16.58,5.92-58.41a20.89,20.89,0,0,1,20.78-18.78H357a20.88,20.88,0,0,1,20.83,19.41Z"/></g><g id="Calque_3" data-name="Calque 3"><rect class="cls-2" x="287.89" width="39.52" height="47.38"/><path class="cls-3" d="M213.1,220.72h0a17.64,17.64,0,0,0,20.81-14.29l20.15-77.27L221.84,78.38,212.24,133,199.2,200A17.64,17.64,0,0,0,213.1,220.72Z"/><path class="cls-3" d="M390.67,78.38l20.81,32.69,48.23,60.12a18.67,18.67,0,0,1-2.07,25.57h0a18.68,18.68,0,0,1-26.15-1.15l-59.07-63.37Z"/><path class="cls-3" d="M225.65,227.11l72.4-57,7.57-2.33,6.64-8.94-6.15-25.11L295.92,138,293,136.48l-10.36,14.3s-64,36.55-66.13,38.34-11.75,9.2-11.75,9.2l-1.18,1.3a18.36,18.36,0,0,0-1.3,23h0a17.15,17.15,0,0,0,22,5.21Z"/><path class="cls-3" d="M390.67,78.38c0,3-15.85,53.5-15.85,56.47s-.63,78.61-.63,78.61l18.76,128a18.22,18.22,0,0,1-15.62,20.7s-53.09,10.13-71,9.45c-17.32-.66-67.82-14.38-67.82-14.38a18.23,18.23,0,0,1-14.31-20l15.43-128.21L239,130.65,221.84,78.38l61-26.38,2.51-17.68,44.49.36,2,18.31Z"/><polygon class="cls-4" points="309.81 200.78 279.98 200.78 271.48 144.49 318.98 144.49 309.81 200.78"/><polygon class="cls-5" points="312.8 185.21 281.36 185.21 273.62 167.15 316.84 167.15 312.8 185.21"/><path class="cls-6" d="M252.81,202.68c-4.33-3.91-6.63-17.6-4.28-22.93,1-2.28,8.45-5.27,8.45-5.27l8.18-3.6,6.32-9.93,7.27-7.16,21.42-.92L303,183.06,281.63,198.2l-12.79-1.76-10.23,5.7S254.78,204.46,252.81,202.68Z"/><path class="cls-6" d="M436,193.08c4,10.47,14.77,8.3,23.76,5.17,6.41-2.23,66.35-30.2,82.74-37.59,9.26-4.17,14.3-6.15,12.34-11.87-1.77-5.2-17.21-1.77-21.28-1.31-38.28,4.32-53.23,8.79-85.88,16.92C429.28,169,434.65,189.49,436,193.08Z"/><path class="cls-6" d="M580.77,134.08a82.9,82.9,0,0,0,16.15-.6s-1.93,4.55-4.18,6c-1.82,1.14-12.16,2.87-12.16,2.87h0c26.95,10.58,54.79,23,57.22,24.85,1.72,1.29,3.25,7.61,3.25,7.61s-26.19-9.48-33.71-11.67c-25.55-7.43-44.68-7.81-59.22-4.66-2.56.56-9.41-11.78-4.16-13.41,1.84-.57,9-8,12.21-8.34C569,135.25,580.37,134.06,580.77,134.08Z"/><path class="cls-3" d="M556.14,135.94l4.78,22.25-7.65,4.19-2.2,4.56-15.73-1.16-78.87,32.34-8.63,1.69a18.17,18.17,0,0,1-20.95-12.75h0a18.17,18.17,0,0,1,13.5-22.81l88.48-19.68s13.22-11.13,13.66-10.38,5.43,2.62,5.43,2.62Z"/><polygon class="cls-6" points="263.27 173.39 269.54 154.12 272.5 151.23 273.94 161.23 263.27 173.39"/></g></svg>