<svg xmlns="http://www.w3.org/2000/svg" viewBox="0 0 788 1005"><defs><style>.cls-1{fill:#d48f72;}.cls-2{fill:#a85d3d;}.cls-3{fill:#d79072;}.cls-4{fill:#66463a;}.cls-5{fill:none;stroke:#ba7158;stroke-miterlimit:10;}</style></defs><g id="Calque_5" data-name="Calque 5"><polygon points="230.22 479.54 230.32 479.5 230.22 479.45 230.22 479.54"/><polygon points="230.32 479.5 230.42 479.54 230.42 479.45 230.32 479.5"/><polygon points="230.22 479.54 230.32 479.5 230.22 479.45 230.22 479.54"/><polygon points="230.32 479.5 230.42 479.54 230.42 479.45 230.32 479.5"/><path class="cls-1" d="M422.65,150.72l.08,6.47,0,3.21c0,.33,0,.67,0,1v0c0,.65.09,1.3.16,1.95a29.38,29.38,0,0,0,.93,4.57,28.5,28.5,0,0,0,14.7,17.59S481.2,206.59,482.28,207c6.67,2.38,33.9,13.51,33.53,36.85-.6,38.39-40.56,6.43-51.22,15.55-12.58,10.77,6.09,76.78-2.82,90.75-2.45,3.84-11.36,10.1-15.8,9.08-12.51-2.87-24-30.73-34.77-37.73-6.33-4.12-23.57-3.62-30.19,0-11.25,6.16-22.27,34.86-34.77,37.73-4.44,1-13.35-5.24-15.8-9.08-8.91-14-4.6-53.24-17.19-64-10.65-9.12-36.25-3.9-36.86-42.29-.41-26.59,35-37.34,35-37.34l40.15-19.91a26.11,26.11,0,0,0,9.39-7.11,33,33,0,0,0,7.9-17.2,30.71,30.71,0,0,0,.25-4.19l-.05-7.35h53.6"/><polygon class="cls-1" points="423.45 199 395.95 231.5 368.76 199 368.77 198.51 369.48 157.44 369.59 150.72 422.62 150.72 422.62 150.95 422.73 157.19 422.8 161.4 422.8 161.43 422.82 162.71 422.95 170.21 423.45 199"/><path class="cls-2" d="M424,168.25s-.34.72-1,2c-4.3,8.13-22.38,38.52-48.7,32.37-1.84-.43-3.71-2-5.48-4.07-5.27-6.2-9.66-17.11-9.66-17.11a18.69,18.69,0,0,0,1.81-1.94,38.48,38.48,0,0,0,7.77-16.56c0-.21.09-.42.13-.64.26-1.37.48-3,.66-4.82.2-2,.35-4.3.47-6.72h52.67V151s.1,7.83.34,12.43a42.51,42.51,0,0,0,.93,4.57Z"/><path class="cls-1" d="M445.93,205.38c24.82-5.75,51.79,8.2,51.79,8.2s54.62,20.93,72.92,27.61c8.63,3.15,26.71,9.39,20.48,31.84h0c-5.14,18.5-23.26,15.86-31.76,13.69-17.3-4.42-71.27-14.34-88.74-15.58-13-.92-13.55.13-31.55-14.21,0,0-15.91-10.1-12.91-29.1l.12-.76a26.1,26.1,0,0,1,19.65-21.69Z"/><path class="cls-3" d="M562,286.88c-16.45-6.16-16.57-28.35-16.18-36.38s4.75-23.64,6.88-31.32c5.44-19.67,17-51.75,22-71.08,3.34-12.72,4.76-19.55,12.9-18.78,7.4.69,8.22,13.92,8.59,19.12,1.55,21.35,5,63.08,3.32,85.39-.71,9.16-3.72,27.42-7.14,35.61C582.82,292.37,566.74,288.67,562,286.88Z"/><path class="cls-1" d="M337.43,233.06c5.33,27.16-9.77,55.52-9.77,55.52s-23,57.87-30.38,77.27c-3.47,9.15-10.37,28.34-33.43,20.31h0c-19-6.61-15.83-26.05-13.37-35.12,5-18.45,19-54.76,20.74-73.58,1.28-14-2.21-36.13,13.08-54.77,0,0,10.83-16.63,30.41-12.29l.78.17a28.69,28.69,0,0,1,21.94,22.49Z"/><path class="cls-1" d="M581.69,130.37l14.15-15,24.38-14.61s2.09,5.23,1.52,6.9c-1.79,5.25-8.8,10.62-13,14.25-.55.48-1.59,3.69-1.29,4.37,1.23,2.76,7.53,1.66,7.53,1.66l-18.19,9.65Z"/><path class="cls-1" d="M588.29,129.59l6.58,20.21,44.22-10.4,39.77-27.14s-4.86-4.63-7-4.9c-11-1.38-30.85,12.32-41.36,15.81C619.19,126.93,588.29,129.59,588.29,129.59Z"/><ellipse class="cls-1" cx="590.63" cy="138.59" rx="12.1" ry="12.15" transform="translate(49.07 412.03) rotate(-40)"/><path class="cls-4" d="M301.77,210.21S322.29,232,323.2,250.83s-4.51,48-4.51,48,2.58,107.74-.91,120.43c-2.07,7.51-5.81,19-2.43,32s129.61,9.91,147.23,4.94,8.54-41.94,8.54-41.94,13.23-124.66,16.62-137.71c3.07-11.8,11.14-31.6,1.69-66.92l-32.1-15.23c-7.95,13.29-16.11,10.63-30.21,11.62-17.72,1.24-51.71,3.61-62.26,3.61-17.77,0-26.86-16.55-26.86-16.55Z"/><path class="cls-3" d="M251.19,374.06c-8.78-17.84,8.85-33.56,15.59-38.89s22.87-12.73,30.78-16.39c20.26-9.36,55-20.92,74.64-30.34,12.95-6.2,20.14-11.4,26.32-4.18,5.61,6.58-4.29,16.56-8.12,20.52-15.79,16.29-46.23,48.53-65.51,62.81-7.92,5.86-25,16.23-34.42,19.19C264.18,395.06,253.75,379.25,251.19,374.06Z"/><path class="cls-3" d="M388.81,307l16.55-12.32,17.31-22.54s-5-2.69-6.68-2.31c-5.42,1.18-11.56,7.52-15.65,11.25-.54.5-3.85,1.16-4.49.78-2.6-1.54-.78-7.66-.78-7.66l-11.68,16.95Z"/><path class="cls-3" d="M390.34,300.58,371,291.72,386.44,249,418,212.6S422,218,422,220.08c.11,11.09-15.78,29.23-20.45,39.27C396.53,270.18,390.34,300.58,390.34,300.58Z"/><ellipse class="cls-3" cx="381.67" cy="297.21" rx="12.1" ry="12.15" transform="translate(-99.85 343.54) rotate(-43.4)"/><path class="cls-5" d="M266.78,335.17c21-15.18,52.39-25.91,52.39-25.91"/></g></svg>