<?xml version="1.0" encoding="utf-8"?>
<!-- Generator: Adobe Illustrator 26.0.3, SVG Export Plug-In . SVG Version: 6.00 Build 0)  -->
<svg version="1.1" id="Calque_1" xmlns="http://www.w3.org/2000/svg" xmlns:xlink="http://www.w3.org/1999/xlink" x="0px" y="0px"
	 viewBox="0 0 188 202.1" style="enable-background:new 0 0 188 202.1;" xml:space="preserve">
<style type="text/css">
	.st0{clip-path:url(#SVGID_00000061436440549699262850000018117105573433862287_);}
	.st1{fill:#B8775C;}
	.st2{clip-path:url(#SVGID_00000043438827848225036710000009838717114874365576_);}
	.st3{fill:#D48F72;}
	.st4{fill:#C18544;}
	.st5{fill:#7EA885;}
</style>
<g>
	<g>
		<defs>
			<polygon id="SVGID_1_" points="130,77.4 130,77.4 146.4,77.4 146.4,110.3 130,110.3 			"/>
		</defs>
		<clipPath id="SVGID_00000100378110826733307580000012250736733502845834_">
			<use xlink:href="#SVGID_1_"  style="overflow:visible;"/>
		</clipPath>
		<g style="clip-path:url(#SVGID_00000100378110826733307580000012250736733502845834_);">
			<path class="st1" d="M130,110.3l3-28.2c0,0,6.6-7.8,12.2-3.2c3.8,3-3.1,28.2-7.5,29.5C130.3,110.5,130,110.3,130,110.3z"/>
		</g>
	</g>
</g>
<g>
	<g>
		<defs>
			<polygon id="SVGID_00000092432294914490205890000005423986334644485025_" points="58.6,77.4 58.6,77.4 42.2,77.4 42.2,110.3 
				58.6,110.3 			"/>
		</defs>
		<clipPath id="SVGID_00000072269326524760149900000011476418228284274342_">
			<use xlink:href="#SVGID_00000092432294914490205890000005423986334644485025_"  style="overflow:visible;"/>
		</clipPath>
		<g style="clip-path:url(#SVGID_00000072269326524760149900000011476418228284274342_);">
			<path class="st1" d="M58.6,110.3l-3-28.2c0,0-6.6-7.8-12.2-3.2c-3.8,3,3.1,28.2,7.5,29.5C58.3,110.5,58.6,110.3,58.6,110.3z"/>
		</g>
	</g>
</g>
<path class="st3" d="M77.6,149l-13-14c-2.5-2.7-4.2-6-4.9-9.5l-4.1-20.2c-0.2-0.9-0.3-1.8-0.4-2.7l-1.4-22.8v-6.4
	c0-21.5,17.4-38.9,38.9-38.9h1.5c21.5,0,38.9,17.4,38.9,38.9v6.4l-1.4,22.8c-0.1,0.9-0.2,1.8-0.4,2.7l-4.1,20.2
	c-0.7,3.6-2.4,6.9-4.9,9.5l-13,14c-3.8,4.1-9,6.4-14.6,6.4H92C86.7,155.3,81.4,153,77.6,149z"/>
<path class="st4" d="M64.4,23.3c-0.2,0.2-0.5,0.3-0.9,0.3c-2.3-0.2-11.1,0-14.7,12.5c-4.1,14.2-3.2,30.9-3.2,31.4l0,0
	c0.1,0.4,5,14.2,9,22.3c0.2,0.5,1,0.2,0.9-0.3c-0.8-4.6-1.9-13.2-0.4-15.9c2-3.6,3.7-3.7,4.2-6.9c0.5-3.1-1.5-7.8,1.4-12
	c2.9-4.1,8.2-8.1,11.9-8.1c3.7,0,14.1,10.1,28.7,10.6s37.5-12.5,37.5-21.1c0-5.3-1.4-8.8-2.5-10.7c-0.4-0.8-1.5-0.7-1.9,0.1
	c-1,2.2-3.2,5.7-6.5,5.9c-5,0.3-19.2-16.2-39.1-15.7C71.6,16.5,65.7,21.9,64.4,23.3z"/>
<path class="st4" d="M128.2,53.5c1.4-1.1,5.2-3.9,7.6-6.4c0.9-0.9,2.2-0.3,2.3,1c0.5,7.4-1.4,24.4-6.1,40.8c-0.1,0.5-1,0.3-0.9-0.2
	c0.9-5.7,1.7-13.4-0.2-16.9c-3.1-5.4-3.3-3.6-3.4-17C127.6,54.2,127.9,53.8,128.2,53.5z"/>
<path class="st5" d="M53.3,66.7L66.4,62c16.2-5.8,34.6-6,51-0.7l16.1,5.3c3.1,1,6.4-0.4,7.3-3.1l2.9-9.9c1-3.5-10.2-11.9-18.5-17.3
	c-5.8-3.9-12.5-6.3-19.7-7.1C98.7,28.4,92,28.4,85.2,29c-6.4,0.5-12.5,2.5-17.9,5.7c-10.4,5.9-26.8,15.9-25.7,18.6L46,63.9
	C47,66.5,50.4,67.8,53.3,66.7z"/>
</svg>
