<?xml version="1.0" encoding="utf-8"?>
<!-- Generator: Adobe Illustrator 26.0.3, SVG Export Plug-In . SVG Version: 6.00 Build 0)  -->
<svg version="1.1" id="Calque_1" xmlns="http://www.w3.org/2000/svg" xmlns:xlink="http://www.w3.org/1999/xlink" x="0px" y="0px"
	 viewBox="0 0 788 1005" style="enable-background:new 0 0 788 1005;" xml:space="preserve">
<style type="text/css">
	.st0{clip-path:url(#SVGID_00000052104129985740020530000005689728252804538042_);}
	.st1{fill:#B8775C;}
	.st2{clip-path:url(#SVGID_00000016050138062432426650000018386429227036321701_);}
	.st3{fill:#D48F72;}
	.st4{fill:#C18544;}
	.st5{fill:#D3D3D3;stroke:#D34B1C;stroke-width:0.958;stroke-miterlimit:10;}
	.st6{fill:#D3D3D3;}
	.st7{fill:#D34B1C;}
</style>
<g>
	<g>
		<defs>
			<polygon id="SVGID_1_" points="429.7,177 429.7,177 446.1,177 446.1,210 429.7,210 			"/>
		</defs>
		<clipPath id="SVGID_00000159465976758169259810000009871963693779965573_">
			<use xlink:href="#SVGID_1_"  style="overflow:visible;"/>
		</clipPath>
		<g style="clip-path:url(#SVGID_00000159465976758169259810000009871963693779965573_);">
			<path class="st1" d="M429.7,210l3-28.2c0,0,6.6-7.8,12.2-3.2c3.8,3-3.1,28.2-7.5,29.5C430,210.1,429.7,210,429.7,210z"/>
		</g>
	</g>
</g>
<g>
	<g>
		<defs>
			<polygon id="SVGID_00000162353214136003122440000003821670717663858862_" points="358.3,177 358.3,177 341.9,177 341.9,210 
				358.3,210 			"/>
		</defs>
		<clipPath id="SVGID_00000168108714737750599380000013138394404079381942_">
			<use xlink:href="#SVGID_00000162353214136003122440000003821670717663858862_"  style="overflow:visible;"/>
		</clipPath>
		<g style="clip-path:url(#SVGID_00000168108714737750599380000013138394404079381942_);">
			<path class="st1" d="M358.3,210l-3-28.2c0,0-6.6-7.8-12.2-3.2c-3.8,3,3.1,28.2,7.5,29.5C358,210.1,358.3,210,358.3,210z"/>
		</g>
	</g>
</g>
<path class="st3" d="M377.1,248.3l-12.5-13.5c-2.6-2.8-4.3-6.2-5.1-9.9l-4.1-19.9c-0.2-0.9-0.3-1.9-0.4-2.8l-1.4-22.8V173
	c0-21.5,17.4-38.9,38.8-39h0.1h1.5c21.5,0,38.9,17.4,38.9,38.9v6.3l-1.4,22.8c-0.1,1-0.2,1.9-0.4,2.8l-4.1,19.9
	c-0.8,3.7-2.5,7.2-5.1,9.9l-12.6,13.6c-3.9,4.2-9.4,6.6-15.1,6.6h-2C386.5,254.9,381,252.5,377.1,248.3z"/>
<path class="st4" d="M354.2,184.9c0,0-0.6-12.6,0.9-16.4c2-5.4,6.1-14.6,11.6-16.6c5.9-2.1,21.1,1.5,27.4,1.6
	c5.9,0.1,18-4.6,23.6-2.7c3.5,1.2,8,7.9,9.6,11.2c2.9,5.9,5.2,25.7,5.2,25.7s3.5-18.4,2-25.1c-1.4-5.9-9.7-18.8-14.7-22.4
	s-18.1-5.4-24.3-6s-19.2,0.8-25,3.3c-5.5,2.3-13.9,11.3-16.9,16.3c-1.8,3-3.8,10-3.7,13.5C350.1,171.8,354.2,184.9,354.2,184.9z"/>
<g>
	<path class="st5" d="M414.3,129.5c0,0,22.5-0.9,13.7-27.8c-8.8-26.8-29-8.9-29-8.9s-7.2-9.8-24.9-6.3
		c-17.7,3.5-22.9,14.4-22.9,14.4s-30.6-10.8-29.2,25.2s38.2,10.3,38.2,10.3"/>
	<path class="st5" d="M344,134.5l6.1,31.6c0,0,34.3-33.8,71-25.1c0-10.1-7.4-20.1-7.4-20.1S373.6,111.1,344,134.5z"/>
	<g>
		<path class="st6" d="M357.6,122.5c0,0,5.9,11.1,22.6,8.4c16.7-2.7,20-16.8,20-16.8"/>
		<path class="st7" d="M357.6,122.5c7.7,11.2,25.3,10.5,35.2,2.5c3.4-2.8,5.9-6.6,7.4-10.7c-1.3,5.4-5,10.2-9.6,13.3
			C380.5,134,364.2,133.7,357.6,122.5L357.6,122.5z"/>
	</g>
</g>
</svg>
