<?xml version="1.0" encoding="utf-8"?>
<!-- Generator: Adobe Illustrator 26.0.3, SVG Export Plug-In . SVG Version: 6.00 Build 0)  -->
<svg version="1.1" id="Layer_1" xmlns="http://www.w3.org/2000/svg" xmlns:xlink="http://www.w3.org/1999/xlink" x="0px" y="0px"
	 viewBox="0 0 788 1005" style="enable-background:new 0 0 788 1005;" xml:space="preserve">
<style type="text/css">
	.st0{fill:none;stroke:#2E858E;stroke-width:3;stroke-miterlimit:10;}
	.st1{fill:#D48F72;}
	.st2{fill:#2E858E;}
	.st3{fill:#C18544;}
</style>
<path class="st0" d="M340.6,180c-1.1-2.6-1.6-5.3-1.6-8.1c0-18.1,24.4-32.9,54.4-32.9s54.4,14.7,54.4,32.9c0,2.9-0.7,5.7-1.9,8.4"/>
<g id="Calque_1">
	<g>
		<g>
			<defs>
				<polygon id="SVGID_1_" points="429.7,177 429.7,177 446.1,177 446.1,210 429.7,210 				"/>
			</defs>
			<clipPath id="SVGID_00000085970758910643903610000016299764322947980453_">
				<use xlink:href="#SVGID_1_"  style="overflow:visible;"/>
			</clipPath>
		</g>
	</g>
	<g>
		<g>
			<defs>
				<polygon id="SVGID_00000044147618257405894150000000192949632229013651_" points="358.3,177 358.3,177 341.9,177 341.9,210 
					358.3,210 				"/>
			</defs>
			<clipPath id="SVGID_00000125574899186522020710000005733779608677088170_">
				<use xlink:href="#SVGID_00000044147618257405894150000000192949632229013651_"  style="overflow:visible;"/>
			</clipPath>
		</g>
	</g>
	<path class="st1" d="M377.4,248.6l-13-14.1c-2.4-2.6-4.1-5.9-4.8-9.4l-4.1-20.3c-0.2-0.9-0.3-1.8-0.4-2.7l-1.4-22.8v-0.1V173
		c0-21.5,17.4-38.9,38.8-39h0.1l0,0c22.3,0,40.4,18.1,40.4,40.4v4.8v0.1l-1.4,22.8c-0.1,0.9-0.2,1.8-0.4,2.7l-4.1,20.3
		c-0.7,3.5-2.4,6.8-4.8,9.4l-13.1,14.1c-3.7,4-8.9,6.3-14.3,6.3H392C386.4,254.9,381.1,252.7,377.4,248.6z"/>
</g>
<path class="st0" d="M353.2,214.1L337,226.9c-2.7,2.2-2.2,6.4,1,7.8l11,4.8"/>
<circle class="st2" cx="353.2" cy="239.6" r="6.3"/>
<path class="st3" d="M353.8,202.4l-6.6-41.7c0,0,11.3-31.7,48.3-30.8s43.9,27.8,43.9,27.8l-6.6,42.1l-3.7-36.6
	c0,0-36.7-15.2-70.6-1.7L353.8,202.4z"/>
<g>
	<path class="st2" d="M355.9,214.8l-1.9,0.4c-2,0.4-3.9-0.9-4.2-2.8l-5.9-28.9c-0.4-2,0.9-3.9,2.8-4.2l1.9-0.4
		c2-0.4,3.9,0.9,4.2,2.8l5.9,28.9C359.1,212.4,357.8,214.3,355.9,214.8z"/>
	<path class="st2" d="M349.3,212.8l-3.8,0.8c-2,0.4-3.9-0.9-4.2-2.8l-4.6-22.3c-0.4-2,0.9-3.9,2.8-4.2l3.8-0.8L349.3,212.8z"/>
	<path class="st2" d="M338.5,177.8l2.3-1.3c0.5-0.3,1.2,0,1.3,0.5l1.6,7.9c0.1,0.4-0.2,0.9-0.5,1l0,0c-0.4,0.1-0.8,0-1-0.4l-3.9-6.6
		C337.9,178.7,338,178.2,338.5,177.8z"/>
</g>
<g>
	<path class="st2" d="M431,214.8l1.9,0.4c2,0.4,3.9-0.9,4.2-2.8l5.9-28.9c0.4-2-0.9-3.9-2.8-4.2l-1.9-0.4c-2-0.4-3.9,0.9-4.2,2.8
		l-5.9,28.9C427.7,212.4,429,214.3,431,214.8z"/>
	<path class="st2" d="M437.5,212.8l3.8,0.8c2,0.4,3.9-0.9,4.2-2.8l4.6-22.3c0.4-2-0.9-3.9-2.8-4.2l-3.8-0.8L437.5,212.8z"/>
	<path class="st2" d="M448.4,177.8l-2.3-1.3c-0.5-0.3-1.2,0-1.3,0.5l-1.6,7.9c-0.1,0.4,0.2,0.9,0.5,1l0,0c0.4,0.1,0.8,0,1-0.4
		l3.9-6.6C449,178.7,448.9,178.2,448.4,177.8z"/>
</g>
</svg>
