<?xml version="1.0" encoding="utf-8"?>
<!-- Generator: Adobe Illustrator 26.0.3, SVG Export Plug-In . SVG Version: 6.00 Build 0)  -->
<svg version="1.1" id="Layer_1" xmlns="http://www.w3.org/2000/svg" xmlns:xlink="http://www.w3.org/1999/xlink" x="0px" y="0px"
	 viewBox="0 0 788 1005" style="enable-background:new 0 0 788 1005;" xml:space="preserve">
<style type="text/css">
	.st0{clip-path:url(#SVGID_00000049209601281759233980000000892073436628659367_);}
	.st1{fill:#B8775C;}
	.st2{clip-path:url(#SVGID_00000069382844735955778070000008325294650553481385_);}
	.st3{fill:#D48F72;}
	.st4{fill:#C18544;}
</style>
<g id="Calque_1">
	<g id="random">
		<g>
			<g>
				<defs>
					<polygon id="SVGID_1_" points="428.7,176.4 428.7,176.4 445.1,176.4 445.1,209.3 428.7,209.3 					"/>
				</defs>
				<clipPath id="SVGID_00000126284042482177409960000000354257245621070998_">
					<use xlink:href="#SVGID_1_"  style="overflow:visible;"/>
				</clipPath>
				<g style="clip-path:url(#SVGID_00000126284042482177409960000000354257245621070998_);">
					<path class="st1" d="M428.7,209.3l3-28.2c0,0,6.6-7.8,12.2-3.2c3.8,3-3.1,28.2-7.5,29.5C429,209.5,428.7,209.3,428.7,209.3z"/>
				</g>
			</g>
		</g>
	</g>
	<g id="random2">
		<g>
			<g>
				<defs>
					<polygon id="SVGID_00000134234579833238816450000002512646258893620114_" points="357.3,176.4 357.3,176.4 340.9,176.4 
						340.9,209.3 357.3,209.3 					"/>
				</defs>
				<clipPath id="SVGID_00000096035447848363041890000007294397537442371717_">
					<use xlink:href="#SVGID_00000134234579833238816450000002512646258893620114_"  style="overflow:visible;"/>
				</clipPath>
				<g style="clip-path:url(#SVGID_00000096035447848363041890000007294397537442371717_);">
					<path class="st1" d="M357.3,209.3l-3-28.2c0,0-6.6-7.8-12.2-3.2c-3.8,3,3.1,28.2,7.5,29.5C357,209.5,357.3,209.3,357.3,209.3z"
						/>
				</g>
			</g>
		</g>
	</g>
	<path class="st3" d="M377.5,248.2l-13.3-14.3c-2.4-2.6-4-5.8-4.7-9.2l-4.2-20.4c-0.2-0.9-0.3-1.8-0.4-2.6l-1.4-22.9v-6.4
		c0-21.5,17.4-38.9,38.9-38.9h1.5c21.5,0,38.9,17.4,38.9,38.9v6.4l-1.4,22.9c-0.1,0.9-0.2,1.8-0.4,2.6l-4.2,20.4
		c-0.7,3.5-2.3,6.7-4.7,9.2L409,248.2c-3.6,3.9-8.8,6.2-14.1,6.2h-3.2C386.3,254.3,381.2,252.1,377.5,248.2z"/>
</g>
<g id="Calque_6_00000138574580992109259530000004055695868823735972_">
	<path class="st4" d="M416.1,146.4c0,0-13.2,7.1-19.5,10.3c-5.4,2.8-20.4,0.9-20.4,0.9s-11.7,6.5-15,9.4c-6.5,5.9-7.7,15-7.7,15
		s-7.4-19.1-3.4-29.2c-1.6,1.3,26.3-26.1,26.3-26.1s10.2-7.3,21.4-5.8c14.8,1.9,20.1,9.9,20.1,9.9s11.4-4.2,20.6,7.7
		c6.9,9,3.9,20.3,3.9,20.3l-5.9,22.2c0,0-2.5-14.8-3.1-17.4c-0.5-1.6-2.3-1.7-3.4-2.9c0,0-6.3-6.7-8.8-11.9
		C420.3,147.2,416.1,146.4,416.1,146.4z"/>
</g>
<path class="st4" d="M417.4,136L402.5,121c-0.1-0.1-0.1-0.1-0.2-0.2c-2-1.1-26.5-14.3-38.2-4.1c-0.7,0.6-0.4,1.6,0.5,1.8
	c2.7,0.7,7.9,1.6,12.1,2.3c1.1,0.2,1.1,1.8,0.1,2c-8.8,2-25,7.4-31.1,21.5c-0.4,0.8,0.2,1.6,1.1,1.5c1.9-0.2,4.7-0.4,4.7-0.4
	s-15.4,5.9-13.9,10.4c0.2,0.6,0.9,0.9,1.5,0.6c0,0,0,0,0.1,0c1-0.5,2,0.7,1.2,1.6c-3,3.6-6,8.7-3,11.9c0.4,0.4,1,0.5,1.5,0.1
	c0.9-0.7,2.7-2.2,4.4-3.6c0.9-0.7,2.1,0.2,1.6,1.2c-3.9,7-9,18.6-1.9,21.5c0.6,0.2,1.1,0,1.3-0.6c0.5-1.1,1.3-3.4,2.2-5.6
	c0.5-1.1,2.1-0.7,2,0.5c-0.6,6.8,0.2,15.1,7.3,13.9c0.6-0.1,0.9-0.6,0.9-1c0-2.2-0.2-8.1-0.4-9.2c0-0.1,0-0.2,0-0.4
	c1-3,15.5-45.6,60.8-48.9C417.6,137.7,418.1,136.7,417.4,136z"/>
<path class="st4" d="M413.5,139.1c-1.5-8.7-3.4-27.6,7.1-26.4c0.9,0.1,1.5,0.9,1.3,1.8c-0.1,1.3-0.5,3.3-0.7,5.1
	c-0.2,1.6,1.7,2.4,2.7,1.3c4.7-4.8,12.8-11.2,17.2-2.2c0.4,0.7,0.1,1.6-0.6,2c-1.7,1.1-5,3.4-8.2,5.6c-1.3,0.9-0.7,2.9,0.9,2.9
	c0.6,0,1.1,0,1.7,0.1c2,0.4,1.5,3.4-0.6,3.1c-5-0.7-12.8-0.1-18.1,7.4C415.6,141.1,413.8,140.6,413.5,139.1z"/>
<path class="st4" d="M416.1,146.4c0,0,32.3,1.8,34,30.3c0,0.9-1.5,1-2.2,0.5c-1.1-0.7-2.8-1.8-4.4-2.9c-1.3-0.9-2.9,0.5-2.3,1.9
	c2.4,6.3,4.7,16.6-5.3,16.6c-0.7,0-1.5-0.6-1.6-1.3c-0.4-2-0.9-6-1.6-9.8c-0.2-1.6-2.3-1.9-3-0.5c-0.2,0.6-0.6,1-0.7,1.5
	c-1.2,1.7-3.6-0.1-2.5-1.8C429.4,176,423.7,155.6,416.1,146.4z"/>
</svg>
