<?xml version="1.0" encoding="utf-8"?>
<!-- Generator: Adobe Illustrator 26.0.3, SVG Export Plug-In . SVG Version: 6.00 Build 0)  -->
<svg version="1.1" id="Calque_1" xmlns="http://www.w3.org/2000/svg" xmlns:xlink="http://www.w3.org/1999/xlink" x="0px" y="0px"
	 viewBox="0 0 788 1005" style="enable-background:new 0 0 788 1005;" xml:space="preserve">
<style type="text/css">
	.st0{fill:#C18544;}
	.st1{clip-path:url(#SVGID_00000087408061739624149750000009705103566782786740_);}
	.st2{fill:#B8775C;}
	.st3{clip-path:url(#SVGID_00000028288637200799595810000013810877342193600191_);}
	.st4{fill:#D48F72;}
</style>
<path class="st0" d="M446.8,194.5c0,41-22.9,29.8-52.5,29.8s-54.6,11.1-54.6-29.8s24.3-58.6,54.3-58.6
	C420.3,135.9,446.8,153.5,446.8,194.5z"/>
<g>
	<g>
		<defs>
			<polygon id="SVGID_1_" points="429.7,177 429.7,177 446.1,177 446.1,210 429.7,210 			"/>
		</defs>
		<clipPath id="SVGID_00000173126716229535368570000018214457342662931076_">
			<use xlink:href="#SVGID_1_"  style="overflow:visible;"/>
		</clipPath>
		<g style="clip-path:url(#SVGID_00000173126716229535368570000018214457342662931076_);">
			<path class="st2" d="M429.7,210l3-28.2c0,0,6.6-7.8,12.2-3.2c3.8,3-3.1,28.2-7.5,29.5C430,210.1,429.7,210,429.7,210z"/>
		</g>
	</g>
</g>
<g>
	<g>
		<defs>
			<polygon id="SVGID_00000145032242159982668010000015891397197119077307_" points="358.3,177 358.3,177 341.9,177 341.9,210 
				358.3,210 			"/>
		</defs>
		<clipPath id="SVGID_00000044171854842456676820000005466523743677731214_">
			<use xlink:href="#SVGID_00000145032242159982668010000015891397197119077307_"  style="overflow:visible;"/>
		</clipPath>
		<g style="clip-path:url(#SVGID_00000044171854842456676820000005466523743677731214_);">
			<path class="st2" d="M358.3,210l-3-28.2c0,0-6.6-7.8-12.2-3.2c-3.8,3,3.1,28.2,7.5,29.5C358,210.1,358.3,210,358.3,210z"/>
		</g>
	</g>
</g>
<path class="st4" d="M377.2,248.5l-12.8-13.8c-2.5-2.7-4.2-6-5-9.7l-4.1-20.1c-0.2-0.9-0.3-1.8-0.4-2.8l-1.4-22.8V173
	c0-21.5,17.4-38.9,38.8-39h0.1h1.5c21.5,0,38.9,17.4,38.9,38.9v6.3l-1.4,22.8c-0.1,0.9-0.2,1.9-0.4,2.8l-4.1,20.1
	c-0.7,3.6-2.5,7-5,9.7L409,248.5c-3.8,4.1-9.1,6.4-14.7,6.4h-2.5C386.4,254.9,381.1,252.6,377.2,248.5z"/>
</svg>
