<?xml version="1.0" encoding="utf-8"?>
<!-- Generator: Adobe Illustrator 26.0.3, SVG Export Plug-In . SVG Version: 6.00 Build 0)  -->
<svg version="1.1" id="Layer_1" xmlns="http://www.w3.org/2000/svg" xmlns:xlink="http://www.w3.org/1999/xlink" x="0px" y="0px"
	 viewBox="0 0 188 202.1" style="enable-background:new 0 0 188 202.1;" xml:space="preserve">
<style type="text/css">
	.st0{fill:#D48F72;}
	.st1{clip-path:url(#SVGID_00000006706375397294254880000007154283560615485070_);}
	.st2{fill:#A85B3B;}
	.st3{clip-path:url(#SVGID_00000170982412279932977700000007020885760576605331_);}
	.st4{clip-path:url(#SVGID_00000121242047922110399160000015578865403971142811_);}
	.st5{fill:#B8775C;}
	.st6{clip-path:url(#SVGID_00000021838618568128388580000010745380960387021229_);}
	.st7{fill:#C18544;}
</style>
<polygon class="st0" points="121.3,51.1 133.8,63.1 131.3,73.9 121.3,71.7 "/>
<g id="Calque_1">
	<g id="random">
		<g>
			<g>
				<defs>
					<polygon id="SVGID_1_" points="133.8,88.7 133.8,88.7 150.1,88.7 150.1,121.7 133.8,121.7 					"/>
				</defs>
				<clipPath id="SVGID_00000131340084696536135480000016336039812811428487_">
					<use xlink:href="#SVGID_1_"  style="overflow:visible;"/>
				</clipPath>
				<g style="clip-path:url(#SVGID_00000131340084696536135480000016336039812811428487_);">
					<path class="st2" d="M133.8,121.7l3-28.2c0,0,6.6-7.8,12.2-3.2c3.8,3-3.1,28.2-7.5,29.5C134,121.8,133.8,121.7,133.8,121.7z"/>
				</g>
			</g>
		</g>
	</g>
	<g id="random2">
		<g>
			<g>
				<defs>
					<polygon id="SVGID_00000011751646483860642840000012654374731454977687_" points="62.3,88.7 62.3,88.7 45.9,88.7 45.9,121.7 
						62.3,121.7 					"/>
				</defs>
				<clipPath id="SVGID_00000058585284482561071030000010769539653872558508_">
					<use xlink:href="#SVGID_00000011751646483860642840000012654374731454977687_"  style="overflow:visible;"/>
				</clipPath>
				<g style="clip-path:url(#SVGID_00000058585284482561071030000010769539653872558508_);">
					<path class="st2" d="M62.3,121.7l-3-28.2c0,0-6.6-7.8-12.2-3.2c-3.8,3,3.1,28.2,7.5,29.5C62,121.8,62.3,121.7,62.3,121.7z"/>
				</g>
			</g>
		</g>
	</g>
</g>
<g id="Calque_5">
	<g>
		<g>
			<defs>
				<polygon id="SVGID_00000018219138890604625010000002035149347289518255_" points="133.8,88.7 133.8,88.7 150.1,88.7 
					150.1,121.7 133.8,121.7 				"/>
			</defs>
			<clipPath id="SVGID_00000067200892939450887670000007120283456276951435_">
				<use xlink:href="#SVGID_00000018219138890604625010000002035149347289518255_"  style="overflow:visible;"/>
			</clipPath>
			<g style="clip-path:url(#SVGID_00000067200892939450887670000007120283456276951435_);">
				<path class="st5" d="M133.8,121.7l3-28.2c0,0,6.6-7.8,12.2-3.2c3.8,3-3.1,28.2-7.5,29.5C134,121.8,133.8,121.7,133.8,121.7z"/>
			</g>
		</g>
	</g>
	<g>
		<g>
			<defs>
				<polygon id="SVGID_00000063616912575589686660000007266535856655311495_" points="62.3,88.7 62.3,88.7 45.9,88.7 45.9,121.7 
					62.3,121.7 				"/>
			</defs>
			<clipPath id="SVGID_00000108989594280022459170000006245683881938549418_">
				<use xlink:href="#SVGID_00000063616912575589686660000007266535856655311495_"  style="overflow:visible;"/>
			</clipPath>
			<g style="clip-path:url(#SVGID_00000108989594280022459170000006245683881938549418_);">
				<path class="st5" d="M62.3,121.7l-3-28.2c0,0-6.6-7.8-12.2-3.2c-3.8,3,3.1,28.2,7.5,29.5C62,121.8,62.3,121.7,62.3,121.7z"/>
			</g>
		</g>
	</g>
	<path class="st0" d="M81.3,160.2l-12.8-13.8c-2.5-2.7-4.2-6.1-5-9.7l-4.1-20.1c-0.2-0.9-0.3-1.8-0.4-2.8L57.6,91v-6.3
		c0-21.5,17.4-38.9,38.8-39h0.1H98c21.5,0,38.9,17.4,38.9,38.9v6.3l-1.4,22.8c-0.1,0.9-0.2,1.9-0.4,2.8l-4.1,20.1
		c-0.7,3.6-2.5,7-5,9.7l-12.8,13.9c-3.8,4.1-9.1,6.4-14.7,6.4H96C90.4,166.6,85.2,164.3,81.3,160.2z"/>
</g>
<g id="Calque_1_00000133508527750184312950000001338693480840790948_">
	<path class="st7" d="M114.2,64.1c0,0-0.1,0-0.1,0.1c-5.1,1.5-10.1,3.6-14.8,6.2c-4.3,2.5-16.5,6.8-21.2,8.3
		c-0.8,0.2-1.4-0.4-1.2-1.2l1.3-3.4c0.3-0.9-0.7-1.6-1.4-1.1c-3.6,2.4-10.2,6.9-12.5,9.2c-3.8,4.1-5.3,10-5.7,14.1
		c-0.1,1-1.5,1.1-1.9,0.2c-2.2-6.9-5.7-19.9-4.1-28.6c0.1-0.8-0.7-1.3-1.3-1c-0.9,0.4-1.9,0.8-2.7,1.1c-0.8,0.2-1.4-0.4-1.2-1.2
		c1.5-4.6,6.1-17.4,11.4-22.7c6.2-6.1,12.7-7.9,16.5-8.3c0.9-0.1,1.1-1.3,0.3-1.8l-1.3-0.7c-0.8-0.4-0.7-1.5,0.2-1.8
		c5-1.2,17.1-3.8,25.6-2.4c12.4,1.9,18,8.8,19.5,10.8c0.2,0.3,0.7,0.4,1,0.3c2.5-0.8,6.7-3.7,14.3,8.1c6.7,10.2,7,24,6.9,24.6
		l-4.1,22c-0.3,1.1-1.9,0.9-1.9-0.2c-0.1-6.1-0.2-14.6-0.5-16.4c-0.2-1.1-0.3-3.5-0.5-5.8c-0.1-1-1.5-1.2-1.9-0.2l0,0
		c-0.2,0.7-1,0.9-1.4,0.4c-1.8-1.4-5.5-4.8-8.2-11.4C122.6,59.6,115,63.6,114.2,64.1z"/>
</g>
</svg>
