<?xml version="1.0" encoding="utf-8"?>
<!-- Generator: Adobe Illustrator 26.0.3, SVG Export Plug-In . SVG Version: 6.00 Build 0)  -->
<svg version="1.1" id="Calque_1" xmlns="http://www.w3.org/2000/svg" xmlns:xlink="http://www.w3.org/1999/xlink" x="0px" y="0px"
	 viewBox="0 0 188 202.1" style="enable-background:new 0 0 188 202.1;" xml:space="preserve">
<style type="text/css">
	.st0{clip-path:url(#SVGID_00000043420696007155766600000017815030095824690607_);}
	.st1{fill:#B8775C;}
	.st2{clip-path:url(#SVGID_00000116196152021085576080000013628376693207990951_);}
	.st3{fill:#D48F72;}
	.st4{fill:#C18544;}
	.st5{fill:#D3D3D3;stroke:#D34B1C;stroke-width:0.958;stroke-miterlimit:10;}
	.st6{fill:#D3D3D3;}
	.st7{fill:#D34B1C;}
</style>
<g>
	<g>
		<defs>
			<polygon id="SVGID_1_" points="137.6,91.3 137.6,91.3 154,91.3 154,124.3 137.6,124.3 			"/>
		</defs>
		<clipPath id="SVGID_00000117639693002018131700000008924109518265616052_">
			<use xlink:href="#SVGID_1_"  style="overflow:visible;"/>
		</clipPath>
		<g style="clip-path:url(#SVGID_00000117639693002018131700000008924109518265616052_);">
			<path class="st1" d="M137.6,124.3l3-28.2c0,0,6.6-7.8,12.2-3.2c3.8,3-3.1,28.2-7.5,29.5C137.9,124.4,137.6,124.3,137.6,124.3z"/>
		</g>
	</g>
</g>
<g>
	<g>
		<defs>
			<polygon id="SVGID_00000161629019441207289590000018111879120319329162_" points="66.2,91.3 66.2,91.3 49.8,91.3 49.8,124.3 
				66.2,124.3 			"/>
		</defs>
		<clipPath id="SVGID_00000037668290479533181150000011461577706493015944_">
			<use xlink:href="#SVGID_00000161629019441207289590000018111879120319329162_"  style="overflow:visible;"/>
		</clipPath>
		<g style="clip-path:url(#SVGID_00000037668290479533181150000011461577706493015944_);">
			<path class="st1" d="M66.2,124.3l-3-28.2c0,0-6.6-7.8-12.2-3.2c-3.8,3,3.1,28.2,7.5,29.5C65.9,124.4,66.2,124.3,66.2,124.3z"/>
		</g>
	</g>
</g>
<path class="st3" d="M85,162.6l-12.5-13.5c-2.6-2.8-4.3-6.2-5.1-9.9l-4.1-19.9c-0.2-0.9-0.3-1.9-0.4-2.8l-1.4-22.8v-6.4
	c0-21.5,17.4-38.9,38.8-39h0.1h1.5c21.5,0,38.9,17.4,38.9,38.9v6.3l-1.4,22.8c-0.1,1-0.2,1.9-0.4,2.8l-4.1,19.9
	c-0.8,3.7-2.5,7.2-5.1,9.9l-12.6,13.6c-3.9,4.2-9.4,6.6-15.1,6.6h-2C94.4,169.2,88.9,166.8,85,162.6z"/>
<path class="st4" d="M62.1,99.2c0,0-0.6-12.6,0.9-16.4c2-5.4,6.1-14.6,11.6-16.6c5.9-2.1,21.1,1.5,27.4,1.6c5.9,0.1,18-4.6,23.6-2.7
	c3.5,1.2,8,7.9,9.6,11.2c2.9,5.9,5.2,25.7,5.2,25.7s3.5-18.4,2-25.1c-1.4-5.9-9.7-18.8-14.7-22.4c-5-3.6-18.1-5.4-24.3-6
	s-19.2,0.8-25,3.3c-5.5,2.3-13.9,11.3-16.9,16.3c-1.8,3-3.8,10-3.7,13.5C58,86.1,62.1,99.2,62.1,99.2z"/>
<g>
	<path class="st5" d="M122.2,43.8c0,0,22.5-0.9,13.7-27.8c-8.8-26.8-29-8.9-29-8.9S99.7-2.7,82,0.8C64.3,4.3,59.1,15.2,59.1,15.2
		S28.5,4.4,29.9,40.4s38.2,10.3,38.2,10.3"/>
	<path class="st5" d="M51.9,48.8L58,80.4c0,0,34.3-33.8,71-25.1c0-10.1-7.4-20.1-7.4-20.1S81.5,25.4,51.9,48.8z"/>
	<g>
		<path class="st6" d="M65.5,36.8c0,0,5.9,11.1,22.6,8.4c16.7-2.7,20-16.8,20-16.8"/>
		<path class="st7" d="M65.5,36.8c7.7,11.2,25.3,10.5,35.2,2.5c3.4-2.8,5.9-6.6,7.4-10.7c-1.3,5.4-5,10.2-9.6,13.3
			C88.4,48.3,72.1,48,65.5,36.8L65.5,36.8z"/>
	</g>
</g>
</svg>
