<svg id="Calque_1" data-name="Calque 1" xmlns="http://www.w3.org/2000/svg" viewBox="0 0 388 556.49"><defs><style>.cls-1{fill:#595a47;}.cls-2{fill:#3a4649;}.cls-3{fill:#172f35;}.cls-4{fill:#d79072;}</style></defs><polygon class="cls-1" points="30.32 65.5 30.22 65.54 30.22 65.46 30.32 65.5"/><polygon class="cls-1" points="30.42 65.46 30.42 65.54 30.32 65.5 30.42 65.46"/><polygon class="cls-1" points="30.32 65.5 30.22 65.54 30.22 65.46 30.32 65.5"/><polygon class="cls-1" points="30.42 65.46 30.42 65.54 30.32 65.5 30.42 65.46"/><path class="cls-2" d="M126.26,440.86h0a16.15,16.15,0,0,0-14.12,8.48h0c-5.84,11.43-30.55,26.74-30.55,26.74A13.51,13.51,0,0,0,76,489.63h0l60.27-.31,3.39-.95a7.94,7.94,0,0,0,6-8.31l-3.46-27.74C140.52,445.48,133.85,440.69,126.26,440.86Z"/><path class="cls-3" d="M77.77,489.35h0c-.82-4.58,2.56-8.9,7.52-9.6l35.85-5A9,9,0,0,1,131.21,481l2.06,7.88Z"/><path class="cls-4" d="M275.57,437.3c-1.21,31.5,40.05,35.54,40.05,35.54,4.43,3.21-67,20.22-66.61,16.48,0,0,1.45-48.17-1-60.39C246.21,420.34,276.28,418.81,275.57,437.3Z"/><path class="cls-2" d="M264.22,454.76c6.38-2,5.93-6.31,8.47-8.67,1.53-1.43,7.86-3,8.79-1.13,10.68,21,61.16,32.75,61.16,32.75,5.36,3.54,6.56,8.43,5.55,13.55h0s-26.55,12.5-66,3.51c-5.11-1.16-10.76-1.91-10.76-1.91s-25.39,3.05-24.13-3.23l.44-39.15C249.46,443.63,253.27,458.22,264.22,454.76Z"/><path class="cls-3" d="M347.19,491.67c.85-8.34-4.26-13.57-6-13.37-2.5.3-6.51,2.21-9,2.61-4,.64-13.36,2.55-13.36,2.55-3.07-.3-5.62,2.55-5.86,6.56l-.2,8s3.14.07,20.46-2.33C336.13,495.3,347.19,491.67,347.19,491.67Z"/><polygon class="cls-1" points="27.91 87.15 28.01 87.11 27.91 87.06 27.91 87.15"/><polygon class="cls-1" points="28.01 87.11 28.11 87.15 28.11 87.06 28.01 87.11"/><polygon class="cls-1" points="27.91 87.15 28.01 87.11 27.91 87.06 27.91 87.15"/><polygon class="cls-1" points="28.01 87.11 28.11 87.15 28.11 87.06 28.01 87.11"/><path class="cls-1" d="M126.93,20.73,122.59,20,93.15,455.38l21-.86,44.77.86h0s16.81-142.87,19.62-160.93c4.1-26.29,16.76-178.52,16.76-178.52L197.07,20Z"/><polygon class="cls-1" points="188.54 20.81 190.18 118.63 212.42 272.59 232.2 430.44 233.31 459.25 305.56 448.29 305.56 448.29 287.92 258.37 263.63 18.82 179.44 20.2 188.54 20.81"/></svg>