<svg id="Calque_1" data-name="Calque 1" xmlns="http://www.w3.org/2000/svg" viewBox="0 0 388 556.49"><defs><style>.cls-1{fill:#844f3d;}.cls-2{fill:#574d3e;}.cls-3{fill:#473415;}.cls-4{fill:#614652;}</style></defs><path class="cls-1" d="M134.29,206.15C120.36,206,112,212.37,109.41,223c0,0-7.1,51.27-8.31,71.31-1.93,32.13,2.49,94.1,7.19,126,1,7-6.29,37.44-6.29,37.44.67,6.28,6.4,11,13.21,11h0c6.67-.07,12.23-4.78,12.9-10.94,0,0,11.51-33.61,12.77-41.62,4.58-29,18-86.62,20-115.9,1.22-17.63-.44-71.79-.44-71.79-.79-17.79-14.25-21.73-26.17-22.27Z"/><path class="cls-2" d="M114.51,450.27h0a16.13,16.13,0,0,0-14.11,8.48h0c-5.85,11.43-30.56,26.74-30.56,26.74A13.51,13.51,0,0,0,64.29,499h0l59.41-.3a6.89,6.89,0,0,0,1.69-.24l2.56-.72a7.93,7.93,0,0,0,6-8.31l-3.4-27.26a6.52,6.52,0,0,0-.19-1C128.46,454.67,121.92,450.11,114.51,450.27Z"/><path class="cls-3" d="M66,498.76h0c-.82-4.58,2.57-8.91,7.53-9.6l35.84-5a9,9,0,0,1,10.07,6.27h0a6.33,6.33,0,0,1-6.08,7.94Z"/><path class="cls-1" d="M250.1,206.15C262.53,206,270,212.37,272.31,223c0,0,14.38,49.42,15.45,69.46,1.73,32.12-10.25,95.95-14.45,127.83-.92,7-2.67,28-2.67,28a11.88,11.88,0,0,1-11.79,11h0a11.89,11.89,0,0,1-11.52-10.93s-2-24.21-3.12-32.22c-4.09-29-16.08-86.62-17.88-115.9-1.09-17.63.4-71.79.4-71.79.7-17.79,12.72-21.73,23.37-22.27Z"/><path class="cls-1" d="M273.1,437.3c-1.21,31.5,40.06,35.54,40.06,35.54,4.42,3.21-67,20.22-66.62,16.48,0,0,1.46-48.17-1-60.39C243.74,420.34,273.81,418.81,273.1,437.3Z"/><path class="cls-2" d="M260.24,454.76c6.38-2,5.92-6.31,8.46-8.67,1.54-1.43,7.87-3,8.8-1.13,10.68,21,61.16,32.75,61.16,32.75,5.35,3.54,6.56,8.43,5.55,13.55h0s-43.78,8.67-67.77-1.23c-4.81-2-9,2.83-9,2.83S245,496.31,246.29,490l-2.54-39.54C245.48,443.63,249.28,458.22,260.24,454.76Z"/><path class="cls-3" d="M344.72,491.67c.85-8.34-4.26-13.57-6-13.37-2.5.3-6.5,2.21-9,2.61-4,.64-15.95-.26-15.95-.26-3.08-.3-5.62,2.55-5.86,6.56l-.2,8s7.32.93,24.63-1.47C335.24,493.35,344.72,491.67,344.72,491.67Z"/><path class="cls-4" d="M114.09,22.88,111.93,42,81.75,459.88a6.34,6.34,0,0,0,6.59,6.66l13.88-.56h.38l34.63.65h0c1.61-18.18,35-224.6,37.8-242.66,4.09-26.3,17.8-106,17.8-106l1.77-95.9Z"/><polygon class="cls-4" points="186.08 30.08 187.72 118.63 215.28 272.13 229.73 430.44 230.85 459.25 285.64 453.36 307.73 451.19 285.45 258.37 260.33 20.22 186.08 20.22 186.08 30.08"/></svg>