<svg id="Calque_1" data-name="Calque 1" xmlns="http://www.w3.org/2000/svg" viewBox="0 0 788 1005"><defs><style>.cls-1{fill:#1a1818;}.cls-2{fill:#705f46;}.cls-3{fill:#3a4649;}.cls-4{fill:#172f35;}.cls-5{fill:#a85b3b;}</style></defs><polygon class="cls-1" points="230.32 514.01 230.22 514.05 230.22 513.97 230.32 514.01"/><polygon points="230.42 513.97 230.42 514.05 230.32 514.01 230.42 513.97"/><polygon class="cls-1" points="230.32 514.01 230.22 514.05 230.22 513.97 230.32 514.01"/><polygon points="230.42 513.97 230.42 514.05 230.32 514.01 230.42 513.97"/><path class="cls-2" d="M336.75,654.66c-13.92-.17-22.33,6.22-24.87,16.82,0,0-7.11,51.28-8.31,71.32-1.93,32.13,2.48,94.1,7.19,126,1,7,3,28,3,28,.66,6.28,6.4,11,13.2,11h0c6.68-.07,12.24-4.78,12.9-10.93,0,0,2.23-24.21,3.5-32.22,4.58-29,18-86.62,20-115.9,1.22-17.63-.44-71.79-.44-71.79-.8-17.79-14.26-21.73-26.18-22.27Z"/><path class="cls-3" d="M326.26,889.37h0a16.15,16.15,0,0,0-14.12,8.48h0c-5.84,11.43-30.55,26.74-30.55,26.74A13.51,13.51,0,0,0,276,938.14h0l60.27-.31,3.39-1a7.94,7.94,0,0,0,6-8.31l-3.46-27.74C340.52,894,333.85,889.2,326.26,889.37Z"/><path class="cls-4" d="M277.77,937.86h0c-.82-4.58,2.56-8.9,7.52-9.6l35.85-5a9,9,0,0,1,10.07,6.27l2.06,7.88Z"/><path class="cls-2" d="M452.56,654.66c12.44-.17,19.94,6.22,22.22,16.82,0,0,9.07,47.15,11.18,67.12,4.51,42.62-5.43,99.19-10.19,130.18-1.07,7-2.66,28-2.66,28a11.88,11.88,0,0,1-11.8,11h0a11.88,11.88,0,0,1-11.51-10.93s-2-24.21-3.12-32.22c-4.1-29-16.08-86.62-17.88-115.9-1.09-17.63.39-71.79.39-71.79.71-17.79,12.73-21.73,23.37-22.27Z"/><path class="cls-5" d="M475.57,885.81c-1.21,31.5,40.05,35.54,40.05,35.54,4.43,3.21-67,20.22-66.61,16.48,0,0,1.45-48.17-1-60.39C446.21,868.85,476.28,867.32,475.57,885.81Z"/><path class="cls-3" d="M464.22,903.27c6.38-2,5.93-6.31,8.47-8.67,1.53-1.43,7.86-3,8.79-1.13,10.68,21,61.16,32.75,61.16,32.75,5.36,3.54,6.56,8.43,5.55,13.55h0s-26.55,12.5-66,3.51c-5.11-1.16-10.76-1.91-10.76-1.91s-25.39,3-24.13-3.23l.44-39.16C449.46,892.14,453.27,906.73,464.22,903.27Z"/><path class="cls-4" d="M547.19,940.18c.85-8.34-4.26-13.57-6-13.37-2.5.3-6.51,2.21-9,2.61-4,.64-13.36,2.55-13.36,2.55-3.07-.3-5.62,2.55-5.86,6.56l-.2,8s3.14.07,20.46-2.33C536.13,943.81,547.19,940.18,547.19,940.18Z"/><path class="cls-2" d="M317.4,469.55l-2.17,19.08L293.35,916.51l14.52-11.94a19.47,19.47,0,0,1,21.05.21l16.83,18.38S367.11,771.27,369.88,740c1.61-18.18,3.92-53.86,6.73-71.92,4.1-26.3,19.53-103.43,19.53-103.43l1.77-95.91Z"/><path class="cls-2" d="M393.32,478.59,395,567.14l27.56,153.5L443.1,881.05l4.37,38.53,18.32-13.25c24.68-8.22,26.28.27,36.16,5.68l-1.09-22.65-8.17-182.48L480,476.19,399.54,479Z"/><polygon class="cls-2" points="316.92 484.91 317.4 469.55 479.33 467.05 480.55 486.55 316.92 484.91"/></svg>