<svg id="Calque_1" data-name="Calque 1" xmlns="http://www.w3.org/2000/svg" viewBox="0 0 388 556.49"><defs><style>.cls-1{fill:#a85b3b;}.cls-2{fill:#283528;}.cls-3{fill:#c1a795;}</style></defs><path class="cls-1" d="M136.75,206.15c-13.92-.17-22.33,6.22-24.87,16.83,0,0-7.11,51.27-8.31,71.31-1.93,32.13,2.48,94.1,7.19,126,1,7,3,28,3,28,.66,6.28,6.4,11,13.2,11h0c6.68-.07,12.24-4.78,12.9-10.93,0,0,2.23-24.21,3.5-32.22,4.58-29,18-86.62,20-115.9,1.22-17.63-.44-71.79-.44-71.79-.8-17.79-14.26-21.73-26.18-22.27Z"/><path class="cls-2" d="M77.77,489.35h0c-.82-4.58,2.56-8.9,7.52-9.6l35.85-5A9,9,0,0,1,131.21,481l2.06,7.88Z"/><path class="cls-1" d="M252.56,206.15C265,206,272.5,212.37,274.78,223c0,0,14.38,49.42,15.45,69.46C292,324.56,280,388.39,275.77,420.27c-.92,7-2.66,28-2.66,28a11.88,11.88,0,0,1-11.8,11h0a11.88,11.88,0,0,1-11.51-10.93s-2-24.21-3.12-32.22c-4.1-29-16.08-86.62-17.88-115.9-1.09-17.63.39-71.79.39-71.79.71-17.79,12.73-21.73,23.37-22.27Z"/><path class="cls-1" d="M275.28,433.21c-3.55,31.34,37.31,38,37.31,38,4.18,3.49-68.35,15.89-67.69,12.18,0,0,5-48,3.47-60.31C247.26,414.4,277.37,414.8,275.28,433.21Z"/><path class="cls-2" d="M342.68,492c1.46-8.27-3.24-13.81-5-13.72-2.51.13-6.65,1.79-9.16,2-4,.38-15.89-1.29-15.89-1.29-3.05-.49-5.8,2.19-6.34,6.18l-.8,8s7.24,1.4,24.69.12C333.09,493.09,342.68,492,342.68,492Z"/><path class="cls-3" d="M117.08,21l-2.16,19.08L70.39,372.7A40.51,40.51,0,0,0,114,418.44l41.82-3.62,40-298.69,1.77-95.91Z"/><path class="cls-3" d="M188.54,30.08l1.89,88.55,46,304.16,43.66-6.93a39.68,39.68,0,0,0,33.22-43.59L268,17.34l-79.18,2.41Z"/><path class="cls-2" d="M126.26,440.86h0a16.15,16.15,0,0,0-14.12,8.48h0c-5.84,11.43-30.55,26.74-30.55,26.74A13.51,13.51,0,0,0,76,489.63h0l60.27-.31,3.39-.95a7.94,7.94,0,0,0,6-8.31l-3.46-27.74C140.52,445.48,133.85,440.69,126.26,440.86Z"/><path class="cls-2" d="M261.14,450c6.51-1.63,6.38-6,9.1-8.23,1.64-1.35,8.07-2.49,8.86-.58,9.06,21.92,58.53,37.07,58.53,37.07,5.08,3.92,5.91,9,4.51,14.07h0s-44.33,6-67.51-5.59c-4.65-2.31-9.19,2.29-9.19,2.29s-22.63,2.06-20.89-4.22l.46-40.2C247.26,437.75,249.94,452.76,261.14,450Z"/><polygon points="29.24 88.02 29.34 87.98 29.24 87.93 29.24 88.02"/><polygon points="29.34 87.98 29.44 88.02 29.44 87.93 29.34 87.98"/><polygon points="29.24 88.02 29.34 87.98 29.24 87.93 29.24 88.02"/><polygon points="29.34 87.98 29.44 88.02 29.44 87.93 29.34 87.98"/></svg>