<?xml version="1.0" encoding="utf-8"?>
<!-- Generator: Adobe Illustrator 26.0.1, SVG Export Plug-In . SVG Version: 6.00 Build 0)  -->
<svg version="1.1" id="Calque_1" xmlns="http://www.w3.org/2000/svg" xmlns:xlink="http://www.w3.org/1999/xlink" x="0px" y="0px"
	 viewBox="0 0 130.3 155.4" style="enable-background:new 0 0 130.3 155.4;" xml:space="preserve">
<style type="text/css">
	.st0{fill:#B26959;}
	.st1{clip-path:url(#SVGID_00000102509616430012036220000013372835061775668612_);}
	.st2{fill:#904C3D;}
	.st3{clip-path:url(#SVGID_00000066500126571556513660000011122272139421789062_);}
	.st4{fill:#357ABD;}
	.st5{fill:#8D4B51;}
</style>
<g>
	<g id="Calque_3">
		<path d="M45.7,121.6c0,14.6,0,14-0.3,16.9c-0.3,0.4-0.8-0.2-2.9-1.5c-1.3-0.7-2.9-0.7-4.2,0.1c-1,1.2-2.1,2.3-3.4,3.2
			c-1.5,0.9-2.7-2-3-2.3c-0.6-0.9-1.7-1.3-2.7-1.1c-1.5,0.4-2.9,2.1-3.8,1.7s-1.5-3.8-1.5-3.8c-0.3-1-1-1.8-1.9-2.3
			c-1.4-0.6-4.8-0.1-5.9-1.1s-0.3-4-0.1-4.6c0.2-1.1,0.2-2.2-0.1-3.3c-0.4-0.9-1.1-1.8-3-2.5s-3.5-1-4.2-2.8s1.8-3.9,2.1-4.2
			c1-1.1,1.4-2.7,1.2-4.2c-0.5-2-2.1-3.1-2.8-4.2c-0.6-0.7-0.8-1.7-0.5-2.6c0.3-0.7,1.6-1.5,2.4-1.9c1-0.4,1.8-1.2,2.2-2.2
			c0.6-1.5,0-2.8-0.2-3.9s-0.6-1.5-0.2-2.3s1.6-0.7,2.7-0.5c0.9,0.2,1.8,0,2.5-0.6C19,91,19,90.1,19.1,89s0.3-2.1,1.5-2.6
			s2.5,0.4,3.1,0.6c0.9,0.4,1.9,0.5,2.8,0.2c1.2-0.5,2.1-1.5,2.7-2.6c0.4-0.8,0.7-1.8,1.9-2.1s1.9,0.8,2.2,1.1
			c0.6,0.6,1.5,0.8,2.3,0.7c0.8-0.2,1.4-0.7,1.9-1.3c0.4-0.6,1.1-0.9,1.8-1.1c1-0.2,2,0.1,2.7,0.9c1,0.9,2.1,2.1,3.2,2.4
			s6.2-0.6,4.2-0.2c-16.6,2.8-1.6,5.9-2.5,7.9s-3.9,0.4-6,4.1c-0.4,0.6-0.9,0.7-1,1.3c-0.2,0.5-0.5,0.9-0.8,1.2
			c-1.2,0.7-2.4,1.3-3.8,1.6c-0.8-0.1-0.8,1.6-1.1,2.3c-0.2,0.6-0.6,1-1.1,1.4c-0.5,0.4-1.3,0.7-1.2,1.1s1.1,0.5,2,0.8
			c0.8,0.1,1.4,0.6,1.9,1.2c0.4,0.7,0.1,2.4,0.7,3.3s1.2,0.6,1.8,0.7s1.1,0,1.4,0.6c0.3,0.5,0.4,1.1,0.3,1.6
			c-0.1,1.1-0.1,1.1,0.1,1.5s0.9,0.6,1.5,0.7c0.4,0.1,0.7,0.2,1.1,0.4C43,116.8,46,120,45.7,121.6z"/>
		<path d="M84.6,121.6c0,14.6,0,14,0.3,16.9c0.3,0.4,0.8-0.2,2.9-1.5c1.3-0.7,2.9-0.7,4.2,0.1c1,1.2,2.1,2.3,3.4,3.2
			c1.5,0.9,2.7-2,3-2.3c0.6-0.9,1.7-1.3,2.7-1.1c1.5,0.4,2.9,2.1,3.8,1.7s1.5-3.8,1.5-3.8c0.3-1,1-1.8,1.9-2.3
			c1.4-0.6,4.8-0.1,5.9-1.1s0.3-4,0.1-4.6c-0.2-1.1-0.2-2.2,0.1-3.3c0.4-0.9,1.1-1.8,3-2.5s3.5-1,4.2-2.8s-1.8-3.9-2.1-4.2
			c-1-1.1-1.4-2.7-1.2-4.2c0.5-2,2.1-3.1,2.8-4.2c0.6-0.7,0.8-1.7,0.5-2.6c-0.3-0.7-1.6-1.5-2.4-1.9c-1-0.4-1.9-1.2-2.2-2.2
			c-0.6-1.5,0-2.8,0.2-3.9s0.6-1.5,0.2-2.3s-1.6-0.7-2.7-0.5c-0.9,0.2-1.8,0-2.5-0.6c-0.7-0.6-0.7-1.4-0.8-2.6s-0.2-2.1-1.5-2.6
			s-2.5,0.4-3.1,0.6c-0.9,0.4-1.9,0.5-2.9,0.2c-1.2-0.5-2.1-1.5-2.7-2.6c-0.4-0.8-0.8-1.8-1.9-2.1s-1.9,0.8-2.2,1.1
			c-0.6,0.6-1.5,0.8-2.3,0.7c-0.7-0.3-1.3-0.7-1.8-1.4c-0.4-0.6-1.1-0.9-1.8-1.1c-1-0.2-2,0.1-2.7,0.9c-1,0.9-2.1,2.1-3.2,2.4
			S79,84.5,81,84.8c16.6,2.8,1.6,5.9,2.5,7.9s3.9,0.4,6,4.1c0.4,0.6,0.9,0.7,1.1,1.3c0.2,0.5,0.5,0.9,0.8,1.2
			c1.2,0.7,2.4,1.3,3.7,1.6c0.8-0.1,0.8,1.6,1.1,2.3c0.2,0.6,0.6,1,1.1,1.4c0.5,0.4,1.3,0.7,1.2,1.1s-1.1,0.5-2,0.8
			c-0.8,0.1-1.4,0.6-1.9,1.2c-0.4,0.7-0.1,2.4-0.7,3.3s-1.2,0.6-1.8,0.7s-1.1,0-1.4,0.6c-0.3,0.5-0.4,1.1-0.3,1.6
			c0.1,1.1,0.1,1.1-0.1,1.5s-0.9,0.6-1.5,0.7c-0.4,0.1-0.7,0.2-1.1,0.4C87.3,116.8,84.3,120,84.6,121.6z"/>
		<circle class="st0" cx="66.1" cy="53.3" r="38.3"/>
		<path d="M65.9,98c-22.9,0-41.5-18.6-41.5-41.5S42.9,15,65.9,15"/>
		<path d="M66.6,15c22.9,0,41.5,18.6,41.5,41.5S89.5,98,66.6,98l0,0"/>
		<path class="st0" d="M101.7,49.5c-0.9-9.3-36-14.7-36-14.7l0,0c0,0-35.1,5.4-36,14.7c-2.2,22.2-1,31,0.5,55.9
			c0.6,9.8,25.5,26.8,29.5,29.5c0.4,0.2,0.8,0.4,1.2,0.4l4.8,0.1h0.1l4.8-0.1c0.4,0,0.8-0.1,1.2-0.4c4-2.7,28.9-19.8,29.5-29.5
			C102.6,80.5,103.8,71.7,101.7,49.5z"/>
		<g>
			<defs>
				<polygon id="SVGID_1_" points="101.8,67.8 101.8,67.8 117.3,67.8 117.3,98 101.8,98 				"/>
			</defs>
			<clipPath id="SVGID_00000116214607221230868670000017669522981920945329_">
				<use xlink:href="#SVGID_1_"  style="overflow:visible;"/>
			</clipPath>
			<g style="clip-path:url(#SVGID_00000116214607221230868670000017669522981920945329_);">
				<path class="st2" d="M102.8,73.8c0,0,5.2-6.4,8.3-6.1c4.6,0.5,6.6,9,6.1,12.8c-0.7,4.8-5,15.1-10.4,17.3c-1.1,0.4-5-0.9-5-0.9
					L102.8,73.8z"/>
			</g>
		</g>
		<g>
			<defs>
				<polygon id="SVGID_00000152944602239968308050000010289593359677244827_" points="29.5,67.8 29.5,67.8 14,67.8 14,98 29.5,98 
									"/>
			</defs>
			<clipPath id="SVGID_00000179628359069411718170000018190567193893173404_">
				<use xlink:href="#SVGID_00000152944602239968308050000010289593359677244827_"  style="overflow:visible;"/>
			</clipPath>
			<g style="clip-path:url(#SVGID_00000179628359069411718170000018190567193893173404_);">
				<path class="st2" d="M28.5,73.8c0,0-5.2-6.4-8.3-6.1c-4.6,0.5-6.7,9-6.1,12.8c0.7,4.8,5,15.1,10.4,17.3c1.1,0.4,5-0.9,5-0.9
					L28.5,73.8z"/>
			</g>
		</g>
		<ellipse class="st4" cx="23.5" cy="97.5" rx="4" ry="4.5"/>
		<ellipse class="st4" cx="107.5" cy="98.5" rx="4" ry="4.5"/>
	</g>
	<g id="Calque_3_00000177465848162245240080000008476260514197900972_">
		<path class="st5" d="M70.4,95.1c0,0.9-2.1,1.6-4.8,1.6c-2.7,0-4.8-0.7-4.8-1.6"/>
	</g>
</g>
</svg>
