<?xml version="1.0" encoding="utf-8"?>
<!-- Generator: Adobe Illustrator 26.0.2, SVG Export Plug-In . SVG Version: 6.00 Build 0)  -->
<svg version="1.1" id="Calque_1" xmlns="http://www.w3.org/2000/svg" xmlns:xlink="http://www.w3.org/1999/xlink" x="0px" y="0px"
	 viewBox="0 0 158 161.8" style="enable-background:new 0 0 158 161.8;" xml:space="preserve">
<style type="text/css">
	.st0{fill:#B26959;}
	.st1{clip-path:url(#SVGID_00000080885545423599681380000013834874421124194470_);}
	.st2{fill:#904C3D;}
	.st3{clip-path:url(#SVGID_00000011026237266117752630000002986926731256552832_);}
	.st4{fill:#D3D3D3;stroke:#D34B1C;stroke-miterlimit:10;}
	.st5{fill:#D3D3D3;}
	.st6{fill:#D34B1C;}
	.st7{fill:#8D4B51;}
</style>
<g>
	<g id="Calque_3">
		<path d="M102.2,123.5c0.3-0.3,0.5-0.1,1.1-0.2c0.5-0.2,1.3-0.3,1.6-0.7c0.4-0.4,0.4-0.4,0.4-1.6c0-0.6,0.2-1.3,0.6-1.7
			c0.3-0.6,1-0.5,1.5-0.5s1.1,0.3,1.9-0.5c0.8-0.8,0.7-2.7,1.2-3.3c0.5-0.8,1.1-0.9,2.1-1.1c1-0.2,2-0.2,2.2-0.7
			c0.2-0.4-0.6-0.8-1.1-1.3c-0.4-0.5-0.8-1-0.9-1.6c-0.3-0.8-0.1-2.6-0.9-2.7c-0.8-0.1-3.5-2-3.7-2.2c-0.3-0.4-0.5-0.9-0.7-1.4
			c-0.2-0.7-0.7-0.8-1-1.5c-1.8-4.2-5.1-2.8-5.8-5c-0.7-2.2,15.4-3.5-1.7-8.6c-2.1-0.5,3.2,0.9,4.4,0.8c1.2-0.1,2.6-1.1,3.6-2.1
			c1.1-1,2-1.1,2.9-0.7c0.8,0.2,1.4,0.7,1.8,1.4c0.4,0.7,1.1,1.2,1.8,1.6c0.9,0.2,1.8,0,2.5-0.5c0.4-0.2,1.3-1.3,2.5-0.9
			c1.2,0.4,1.5,1.5,1.8,2.4c0.4,1.4,1.4,2.5,2.6,3.1c1,0.4,2.1,0.5,3,0.1c0.8-0.1,2.1-0.8,3.3-0.2c1.2,0.6,1.3,1.7,1.3,2.9
			c-0.1,1.2-0.2,2.1,0.5,2.8c0.7,0.8,1.6,1.1,2.6,1c1.3-0.1,2.4,0.1,2.9,0.9c0.5,0.8,0,1.3-0.4,2.4c-0.4,1.1-1.1,2.4-0.7,4
			c0.3,1.1,1,2.1,2.1,2.6c0.9,0.6,2.2,1.6,2.4,2.4c0.2,0.8,0,1.6-0.9,2.7c-0.8,1.2-2.7,2.1-3.4,4.1s0.4,4.1,0.7,4.5
			c0.4,0.4,2.7,2.9,1.8,4.7c-0.9,1.9-2.8,2-4.7,2.5s-2.9,1.4-3.4,2.3c-0.4,1.1-0.6,2.3-0.5,3.4c0.2,0.7,0.6,3.8-0.6,4.8
			c-1.2,0.9-4.7-0.1-6.3,0.4c-1.1,0.3-1.9,1.1-2.3,2.2c0,0-1,3.5-2,3.8c-1,0.3-2.4-1.6-3.8-2.3c-1.5-0.6-2.7,0.7-2.9,0.9
			c-0.3,0.3-1.8,3.1-3.3,2.1c-1.2-1-2.4-2.4-3.1-3.7c0,0-2-1.8-4.3-0.6c-2.4,1.1-3.3,1.4-3.9,1.1c-0.7-0.4-1.2-1.2-1.2-2.1
			c-0.2-1.4-0.8-2.1-1.4-2.3c-0.8-0.3-1.5-0.3-2.3-0.1c-0.7,0.1-1.5,0-2.2-0.1c0,0-2.3-0.3-2.3-3.3c-0.2-2.5-1.8-4.6-4-5.5
			c-1.4-0.3-3-8.2,1.2-4.8c7.6,6.4,17.1-1.9,17.1-1.9C101.9,125,101.9,123.8,102.2,123.5z"/>
		<circle class="st0" cx="67.1" cy="80.9" r="37.7"/>
		<path d="M66.9,124.9c-22.5,0-40.8-18.3-40.8-40.8s18.3-40.8,40.8-40.8"/>
		<path d="M67.7,43.2c22.5,0,40.8,18.3,40.8,40.9c0,22.5-18.3,40.8-40.8,40.8"/>
		<path class="st0" d="M102.1,77.2c-0.9-9.1-35.4-14.5-35.4-14.5l0,0c0,0-34.5,5.3-35.4,14.5c-2.2,21.8-1,30.5,0.5,55.1
			c0.6,9.6,25.1,26.4,29,29c0.3,0.2,0.7,0.4,1.2,0.4l4.8,0.2l4.8-0.2c0.4,0,0.8-0.1,1.2-0.4c3.9-2.7,28.4-19.5,29-29
			C103.1,107.6,104.3,99,102.1,77.2z"/>
		<g>
			<g>
				<g>
					<defs>
						<polygon id="SVGID_1_" points="102.3,95.1 102.3,95.1 117.6,95.1 117.6,124.8 102.3,124.8 						"/>
					</defs>
					<clipPath id="SVGID_00000108992691295748042350000000758589568611770511_">
						<use xlink:href="#SVGID_1_"  style="overflow:visible;"/>
					</clipPath>
					<g style="clip-path:url(#SVGID_00000108992691295748042350000000758589568611770511_);">
						<path class="st2" d="M103.3,101.1c0,0,5.1-6.3,8.2-6c4.5,0.5,6.5,8.8,6,12.6c-0.8,4.7-4.9,14.8-10.2,17
							c-1,0.4-5.3-0.9-5.3-0.9L103.3,101.1z"/>
					</g>
				</g>
			</g>
		</g>
		<g>
			<g>
				<g>
					<defs>
						<polygon id="SVGID_00000021116457564163105870000003625214522587634336_" points="31.3,95.1 31.3,95.1 16,95.1 16,124.8 
							31.3,124.8 						"/>
					</defs>
					<clipPath id="SVGID_00000051344522136270304110000006519893027472175294_">
						<use xlink:href="#SVGID_00000021116457564163105870000003625214522587634336_"  style="overflow:visible;"/>
					</clipPath>
					<g style="clip-path:url(#SVGID_00000051344522136270304110000006519893027472175294_);">
						<path class="st2" d="M30.2,101.1c0,0-5.1-6.3-8.2-6c-4.5,0.5-6.5,8.8-6,12.6c0.8,4.7,4.9,14.8,10.2,17c1,0.4,5.5-0.9,5.5-0.9
							L30.2,101.1z"/>
					</g>
				</g>
			</g>
		</g>
		<g>
			<path class="st4" d="M100.1,54.5c0,0,37.7,28.2,40.5-9.5s-29.8-27.5-29.8-27.5s-5.1-11.8-23.5-16S61.1,7.2,61.1,7.2
				s-20.4-19.5-30.8,8.3C20.1,43.4,43.8,45.2,43.8,45.2"/>
			<path class="st4" d="M44.6,36.4c0,0-8.1,10.2-8.5,20.8C74.9,49.4,108.5,87,108.5,87l8.7-33.9C87,27.3,44.6,36.4,44.6,36.4z"/>
			<g>
				<path class="st5" d="M59,29.7c0,0,3,14.9,20.4,18.3c17.4,3.4,24.1-8.1,24.1-8.1"/>
				<path class="st6" d="M103.5,39.9c-6.9,11-23.1,11.2-33.3,5.1c-5.5-3.3-9.7-9-11-15.3c1.3,4.4,3.9,8.5,7.3,11.6
					C76.3,50.2,95,51.4,103.5,39.9L103.5,39.9z"/>
			</g>
		</g>
	</g>
	<path class="st7" d="M71.5,122.7c0,0.9-2.1,1.6-4.7,1.6s-4.7-0.7-4.7-1.6"/>
</g>
</svg>
