<?xml version="1.0" encoding="utf-8"?>
<!-- Generator: Adobe Illustrator 26.0.2, SVG Export Plug-In . SVG Version: 6.00 Build 0)  -->
<svg version="1.1" id="Calque_1" xmlns="http://www.w3.org/2000/svg" xmlns:xlink="http://www.w3.org/1999/xlink" x="0px" y="0px"
	 viewBox="0 0 788 1005.1" style="enable-background:new 0 0 788 1005.1;" xml:space="preserve">
<style type="text/css">
	.st0{fill:#B26959;}
	.st1{clip-path:url(#SVGID_00000031889955907050233010000014796332227199197097_);}
	.st2{fill:#904C3D;}
	.st3{clip-path:url(#SVGID_00000123443031773915208520000017697237304978064781_);}
	.st4{fill:#8B8600;}
	.st5{fill:#8D4B51;}
</style>
<g id="Calque_3">
	<circle class="st0" cx="407.4" cy="118" r="38.3"/>
	<path d="M407.2,162.8c-22.9,0-41.5-18.6-41.5-41.5s18.6-41.5,41.5-41.5"/>
	<path d="M408,79.7c22.9,0,41.5,18.6,41.5,41.5s-18.6,41.5-41.5,41.5l0,0"/>
	<path class="st0" d="M443,114.3c-0.9-9.3-36-14.7-36-14.7l0,0c0,0-35.1,5.4-36,14.7c-2.2,22.2-1,31,0.5,55.9
		c0.5,9.4,23.8,25.6,29,29.2c0.7,0.5,1.5,0.7,2.3,0.7l4.1,0.1h0.3l4.1-0.1c0.8,0,1.6-0.3,2.3-0.7c5.2-3.5,28.4-19.8,29-29.2
		C444,145.2,445.2,136.5,443,114.3z"/>
	<path d="M385.8,121.1c0,0-22.3,11.8-16,30.7c3.1,10.3-10.3,1.4-10-1.3s-1.6-9.2-7.4-11.4s-4.6-6.6-4.6-6.6c0.3-1.5,0.8-2.9,1.5-4.1
		c1.3-2.3,1.4-3,1.4-4.3s-0.8-2.8-3.2-4.1s-2.7-2.6-2.9-3.8s1.1-3.1,4.9-6.6s2.1-8.6,2.1-8.6s-3.7-5-4.7-8.7s5.6-4.5,6.3-4.8
		s3.9-1.6,3.7-4.9s-2.6-7.1-1.4-8.7s8.6-1,8.6-1s3.7,0,5.8-2.6c2.1-2.6,2.8-9.8,5.4-11.4c2.6-1.6,8.4,1.6,9.5,2.4
		c2.1,1.1,4.5,1.6,6.8,1.5c2.1-0.2,4.2-1.4,6.7-4.7c2.4-3.4,3.9-6.8,8-7.1s7,5.8,7.6,6.6s3.6,4.6,7.9,4.7s7.5-2.7,10.2-3.4
		c2.7-0.8,4.3-0.6,5.6,0.3c1.3,0.9,2.2,4.2,2.6,6s0.6,3.7,3.4,5.8c2.8,2,5.7,1.6,8.2,1.6s3.5-0.5,4.8,0.9s0.6,3.7-0.4,5.9
		c-0.9,1.7-0.9,3.7,0,5.4c0.8,1.7,2.6,2.3,4.8,3.1c2.2,0.8,4.2,1.7,4.4,4.5s-2.1,4.8-2.8,6s-2.3,2.7-2,5.7c0.4,2.7,1.8,5.2,3.9,7
		c1.5,1.2,3.3,2.5,3.3,5s-2.6,3.4-3.6,4s-2.7,2.4-2.7,4.4s1.1,3.3,1.9,4.4c0.9,1.2,1.4,2.7,1.3,4.2c0,2-0.9,3.5-3.3,5
		s-5.5,3.2-6.6,5.2s-2.2,13.1-1.8,8.8c3.2-35.7-11.1-6.6-14.8-9.4c-3.5-2.7,1.4-8.2-5.1-14.5c-1.1-1.1-1-2.1-2-2.8
		c-0.8-0.7-1.5-1.5-2.1-2.4c-0.2-0.4-1.7-7-1.2-8.6s-2.9-2.6-4.2-3.5c-1.1-0.7-1.8-1.7-2.2-2.9c-0.5-1.3-0.7-3-1.6-3
		s-1.7,1.9-2.8,3.6s-1.7,2.6-3.5,3.2s-5-1.1-7.2-0.3s-1.9,2.2-2.5,3.3s-0.6,2.3-2,2.4s-1.3,0.6-3.5-0.2s-2.2-0.8-3.1-0.5
		s-1.8,1.6-2.3,2.6s-0.5,1.6-1.4,2S387.7,120.6,385.8,121.1z"/>
	<g>
		<g>
			<defs>
				<polygon id="SVGID_1_" points="443.2,132.5 443.2,132.5 458.6,132.5 458.6,162.7 443.2,162.7 				"/>
			</defs>
			<clipPath id="SVGID_00000059289767546616966680000009187034769553520266_">
				<use xlink:href="#SVGID_1_"  style="overflow:visible;"/>
			</clipPath>
			<g style="clip-path:url(#SVGID_00000059289767546616966680000009187034769553520266_);">
				<path class="st2" d="M444.2,138.6c0,0,5.2-6.4,8.3-6.1c4.6,0.5,6.6,9,6,12.8c-0.7,4.8-5,15.1-10.4,17.3c-1,0.4-5-0.9-5-0.9
					L444.2,138.6z"/>
			</g>
		</g>
	</g>
	<g>
		<g>
			<defs>
				<polygon id="SVGID_00000003822452715063076220000015094062166455260299_" points="370.9,132.5 370.9,132.5 355.4,132.5 
					355.4,162.7 370.9,162.7 				"/>
			</defs>
			<clipPath id="SVGID_00000101065218198635833430000017078249173592790204_">
				<use xlink:href="#SVGID_00000003822452715063076220000015094062166455260299_"  style="overflow:visible;"/>
			</clipPath>
			<g style="clip-path:url(#SVGID_00000101065218198635833430000017078249173592790204_);">
				<path class="st2" d="M369.8,138.6c0,0-5.2-6.4-8.3-6.1c-4.6,0.5-6.6,9-6.1,12.8c0.8,4.8,5,15.1,10.4,17.3c1,0.4,5-0.9,5-0.9
					L369.8,138.6z"/>
			</g>
		</g>
	</g>
	<path class="st4" d="M365.7,160c3.2,1.4,5.7,8.7,5.7,17.4c0,9.7-3.1,17.6-6.9,17.6s-6.9-7.9-6.9-17.6c0-8.2,2.2-15.1,5.1-17.1"/>
	<path class="st4" d="M451.3,160.4c2.9,2,5.1,8.9,5.1,17c0,9.7-3.1,17.6-6.9,17.6s-6.9-7.9-6.9-17.6c0-8.7,2.4-15.9,5.6-17.4"/>
	<path class="st5" d="M411.7,159.9c0,0.9-2.1,1.6-4.8,1.6s-4.8-0.7-4.8-1.6"/>
</g>
</svg>
