<svg xmlns="http://www.w3.org/2000/svg" xmlns:xlink="http://www.w3.org/1999/xlink" viewBox="0 0 788 1005"><defs><style>.cls-1{fill:none;}.cls-2{fill:#904c3d;}.cls-3{fill:#b26959;}.cls-4{clip-path:url(#clip-path);}.cls-5{clip-path:url(#clip-path-2);}.cls-6{fill:#357abd;}</style><clipPath id="clip-path"><polygon class="cls-1" points="439.24 105.81 439.24 105.81 454.73 105.81 454.73 136.03 439.24 136.03 439.24 105.81"/></clipPath><clipPath id="clip-path-2"><polygon class="cls-1" points="366.96 105.81 366.96 105.81 351.47 105.81 351.47 136.03 366.96 136.03 366.96 105.81"/></clipPath></defs><g id="Calque_3" data-name="Calque 3"><path class="cls-2" d="M383.14,160H423v11h0c-9,11.39-14.87,16.43-21.66,16.38-5.12,0-13.13-10.11-18.32-14.1l.08-2Z"/><path d="M383.13,159.67c0,14.57,0,14-.34,16.87-.34.4-.83-.21-2.88-1.5a4,4,0,0,0-4.16.11,15.51,15.51,0,0,1-3.37,3.16c-1.53.86-2.72-2-2.95-2.26a2.61,2.61,0,0,0-2.69-1.1c-1.48.45-2.91,2.06-3.8,1.71s-1.5-3.78-1.5-3.78a3.81,3.81,0,0,0-1.86-2.3c-1.42-.65-4.8-.07-5.85-1.08s-.27-4-.06-4.61a6.81,6.81,0,0,0-.14-3.29c-.36-.95-1.15-1.76-3-2.46s-3.55-1-4.18-2.78,1.79-3.89,2.1-4.24a5.09,5.09,0,0,0,1.18-4.18c-.49-2-2.11-3.1-2.8-4.22a2.86,2.86,0,0,1-.53-2.6c.26-.71,1.62-1.52,2.43-1.94a3.6,3.6,0,0,0,2.2-2.24c.58-1.53,0-2.77-.25-3.92s-.65-1.53-.16-2.29,1.61-.72,2.73-.52a2.77,2.77,0,0,0,2.47-.64c.67-.55.72-1.44.81-2.55s.26-2.11,1.53-2.56,2.45.37,3.09.55a3.89,3.89,0,0,0,2.84.23,5.36,5.36,0,0,0,2.7-2.63c.37-.81.74-1.81,1.89-2.1s1.85.8,2.25,1.14a2.85,2.85,0,0,0,2.31.7A3.57,3.57,0,0,0,375,121a3.15,3.15,0,0,1,1.77-1.1,2.67,2.67,0,0,1,2.68.9c1,.92,2.12,2.11,3.17,2.37s6.2-.59,4.21-.25c-16.64,2.85-1.65,5.87-2.49,7.87s-3.88.35-6,4.09c-.35.62-.85.71-1.05,1.26a4.13,4.13,0,0,1-.84,1.23,13.32,13.32,0,0,1-3.75,1.59c-.75-.05-.83,1.63-1.09,2.33a2.47,2.47,0,0,1-1.06,1.35c-.55.39-1.29.67-1.2,1.1s1.07.53,2,.82a2.78,2.78,0,0,1,1.86,1.21c.44.74.09,2.43.73,3.3s1.23.61,1.79.73,1.11,0,1.36.62a2.12,2.12,0,0,1,.32,1.61c-.09,1.11-.1,1.09.14,1.5s.92.61,1.46.73a4,4,0,0,1,1.06.38C380.45,154.81,383.41,158.05,383.13,159.67Z"/><path d="M422,159.67c0,14.57,0,14,.34,16.87.33.4.83-.21,2.87-1.5a4,4,0,0,1,4.17.11,15.51,15.51,0,0,0,3.37,3.16c1.53.86,2.72-2,3-2.26a2.59,2.59,0,0,1,2.69-1.1c1.47.45,2.9,2.06,3.8,1.71s1.49-3.78,1.49-3.78a3.84,3.84,0,0,1,1.87-2.3c1.41-.65,4.8-.07,5.85-1.08s.26-4,.06-4.61a6.69,6.69,0,0,1,.14-3.29c.36-.95,1.14-1.76,3-2.46s3.55-1,4.17-2.78-1.78-3.89-2.1-4.24a5.1,5.1,0,0,1-1.17-4.18c.49-2,2.11-3.1,2.8-4.22a2.86,2.86,0,0,0,.53-2.6c-.27-.71-1.62-1.52-2.43-1.94a3.63,3.63,0,0,1-2.21-2.24c-.57-1.53,0-2.77.25-3.92s.65-1.53.16-2.29-1.61-.72-2.72-.52a2.76,2.76,0,0,1-2.47-.64c-.67-.55-.72-1.44-.82-2.55s-.25-2.11-1.52-2.56-2.45.37-3.09.55a3.91,3.91,0,0,1-2.85.23,5.33,5.33,0,0,1-2.69-2.63c-.38-.81-.75-1.81-1.9-2.1s-1.85.8-2.24,1.14a2.87,2.87,0,0,1-2.32.7,3.66,3.66,0,0,1-1.78-1.38,3.11,3.11,0,0,0-1.77-1.1,2.66,2.66,0,0,0-2.67.9c-1,.92-2.12,2.11-3.17,2.37s-6.2-.59-4.21-.25c16.63,2.85,1.65,5.87,2.49,7.87s3.88.35,6,4.09c.36.62.85.71,1.06,1.26a4.13,4.13,0,0,0,.84,1.23,13.38,13.38,0,0,0,3.74,1.59c.75-.05.84,1.63,1.1,2.33a2.43,2.43,0,0,0,1.06,1.35c.54.39,1.29.67,1.19,1.1s-1.06.53-2,.82a2.76,2.76,0,0,0-1.85,1.21c-.44.74-.1,2.43-.74,3.3s-1.22.61-1.79.73-1.1,0-1.35.62a2.11,2.11,0,0,0-.33,1.61c.1,1.11.1,1.09-.13,1.5s-.92.61-1.46.73a3.85,3.85,0,0,0-1.06.38C424.69,154.81,421.74,158.05,422,159.67Z"/><circle class="cls-3" cx="403.5" cy="91.3" r="38.29"/><path d="M403.3,136.09a41.54,41.54,0,0,1,0-83.08"/><path d="M404,53a41.54,41.54,0,0,1,0,83.08"/><path class="cls-3" d="M439.09,87.55c-.92-9.3-36-14.72-36-14.72v0s-35.07,5.42-36,14.72c-2.17,22.22-.95,31,.48,55.94.56,9.76,25.48,26.84,29.48,29.52a2.25,2.25,0,0,0,1.18.37l4.78.15h.14l4.78-.15a2.25,2.25,0,0,0,1.18-.37c4-2.68,28.91-19.76,29.47-29.52C440,118.54,441.26,109.77,439.09,87.55Z"/><g class="cls-4"><path class="cls-2" d="M440.27,111.89s5.23-6.4,8.3-6.07c4.59.49,6.65,9,6.06,12.83-.74,4.8-5,15.12-10.35,17.29-1.06.43-5-.85-5-.85Z"/></g><g class="cls-5"><path class="cls-2" d="M365.93,111.89s-5.23-6.4-8.3-6.07c-4.59.49-6.66,9-6.06,12.83.74,4.8,5,15.12,10.35,17.29,1.06.43,5-.85,5-.85Z"/></g><ellipse class="cls-6" cx="360.91" cy="135.53" rx="4" ry="4.5"/><ellipse class="cls-6" cx="444.91" cy="136.53" rx="4" ry="4.5"/></g></svg>