<?xml version="1.0" encoding="utf-8"?>
<!-- Generator: Adobe Illustrator 26.0.1, SVG Export Plug-In . SVG Version: 6.00 Build 0)  -->
<svg version="1.1" id="Calque_1" xmlns="http://www.w3.org/2000/svg" xmlns:xlink="http://www.w3.org/1999/xlink" x="0px" y="0px"
	 viewBox="0 0 788 1005.1" style="enable-background:new 0 0 788 1005.1;" xml:space="preserve">
<style type="text/css">
	.st0{fill:#B26959;}
	.st1{clip-path:url(#SVGID_00000106132061168496422730000017245817469344506279_);}
	.st2{fill:#904C3D;}
	.st3{clip-path:url(#SVGID_00000150785211166078269430000001876549154666721415_);}
	.st4{fill:#213F52;}
	.st5{fill:#8D4B51;}
</style>
<g id="Calque_3">
	<circle class="st0" cx="406.8" cy="118.1" r="38.3"/>
	<path d="M406.7,162.9c-22.9,0-41.5-18.6-41.5-41.5s18.6-41.5,41.5-41.5"/>
	<path d="M407.4,79.8c22.9,0,41.5,18.6,41.5,41.6c0,22.9-18.6,41.5-41.5,41.5"/>
	<path class="st0" d="M442.4,114.3c-0.9-9.3-36-14.7-36-14.7l0,0c0,0-35.1,5.4-36,14.7c-2.2,22.2-1,31,0.5,55.9
		c0.5,9.4,23.8,25.6,29,29.2c0.7,0.5,1.5,0.7,2.3,0.7l4.1,0.1h0.3l4.1-0.1c0.8,0,1.6-0.3,2.3-0.7c5.2-3.5,28.4-19.8,29-29.2
		C443.4,145.3,444.6,136.6,442.4,114.3z"/>
	<path d="M385.3,121.2c0,0-22.3,11.8-16,30.7c3.1,10.3-10.3,1.4-10-1.3s-1.6-9.2-7.4-11.4c-5.8-2.3-4.6-6.6-4.6-6.6
		c0.3-1.5,0.8-2.9,1.5-4.1c1.3-2.3,1.3-3,1.3-4.3s-0.8-2.8-3.1-4.1s-2.7-2.6-2.9-3.8s1.1-3.1,4.9-6.6s2.1-8.6,2.1-8.6
		s-3.7-5-4.7-8.7s5.6-4.5,6.3-4.8s3.9-1.6,3.7-4.9s-2.6-7.1-1.4-8.7s8.6-1,8.6-1s3.6,0,5.8-2.6c2.1-2.6,2.8-9.8,5.4-11.4
		s8.4,1.6,9.5,2.4c2.1,1.1,4.5,1.6,6.8,1.5c2.1-0.2,4.2-1.4,6.7-4.7c2.4-3.4,3.9-6.8,8-7.1c4.1-0.3,7,5.8,7.6,6.6s3.6,4.6,7.9,4.7
		s7.5-2.7,10.2-3.4s4.3-0.6,5.6,0.3s2.2,4.2,2.6,6s0.6,3.7,3.4,5.8c2.8,2,5.7,1.6,8.2,1.6s3.5-0.5,4.8,0.9s0.6,3.7-0.4,5.9
		c-0.9,1.7-0.9,3.7,0,5.4c0.8,1.7,2.6,2.3,4.8,3.1c2.2,0.8,4.2,1.7,4.4,4.5s-2.1,4.8-2.8,6s-2.3,2.7-2,5.7c0.4,2.7,1.8,5.2,3.9,7
		c1.5,1.2,3.3,2.5,3.3,5s-2.6,3.4-3.6,4s-2.7,2.4-2.7,4.4s1.1,3.3,1.9,4.4c0.9,1.2,1.4,2.7,1.3,4.2c0,2-0.9,3.5-3.3,5
		c-2.4,1.5-5.5,3.2-6.6,5.2s-2.2,13.1-1.8,8.8c3.3-35.7-11.1-6.6-14.8-9.4c-3.5-2.7,1.4-8.2-5.1-14.5c-1.1-1.1-1-2.1-2-2.8
		c-0.8-0.7-1.5-1.5-2-2.4c-0.3-0.4-1.7-7-1.2-8.6s-2.9-2.6-4.2-3.5c-1.1-0.7-1.8-1.7-2.2-2.9c-0.5-1.3-0.7-3-1.6-3s-1.7,1.9-2.8,3.6
		s-1.7,2.6-3.5,3.1s-5-1.1-7.2-0.3s-1.9,2.2-2.5,3.3s-0.6,2.3-2,2.4s-1.3,0.6-3.5-0.2s-2.2-0.8-3.1-0.5s-1.8,1.6-2.3,2.6
		s-0.5,1.6-1.3,2S387.1,120.6,385.3,121.2z"/>
	<g>
		<defs>
			<polygon id="SVGID_1_" points="442.6,132.6 442.6,132.6 458.1,132.6 458.1,162.8 442.6,162.8 			"/>
		</defs>
		<clipPath id="SVGID_00000150101754702356918450000001867780259433502357_">
			<use xlink:href="#SVGID_1_"  style="overflow:visible;"/>
		</clipPath>
		<g style="clip-path:url(#SVGID_00000150101754702356918450000001867780259433502357_);">
			<path class="st2" d="M443.6,138.7c0,0,5.2-6.4,8.3-6.1c4.6,0.5,6.6,9,6.1,12.8c-0.8,4.8-5,15.1-10.4,17.3c-1,0.4-5-0.9-5-0.9
				L443.6,138.7z"/>
		</g>
	</g>
	<g>
		<defs>
			<polygon id="SVGID_00000127754441106101939920000014854025649314697354_" points="370.3,132.6 370.3,132.6 354.8,132.6 
				354.8,162.8 370.3,162.8 			"/>
		</defs>
		<clipPath id="SVGID_00000031208023955503667390000011806872015043975557_">
			<use xlink:href="#SVGID_00000127754441106101939920000014854025649314697354_"  style="overflow:visible;"/>
		</clipPath>
		<g style="clip-path:url(#SVGID_00000031208023955503667390000011806872015043975557_);">
			<path class="st2" d="M369.3,138.7c0,0-5.2-6.4-8.3-6.1c-4.6,0.5-6.6,9-6,12.8c0.7,4.8,5,15.1,10.4,17.3c1.1,0.4,5-0.9,5-0.9
				L369.3,138.7z"/>
		</g>
	</g>
	<path class="st4" d="M365.1,160.1c0.8,0.3,1.5,0.7,2.1,1.4c0.6,0.6,1.1,1.3,1.5,2c0.8,1.4,1.5,3,2,4.6c1,3.2,1.5,6.5,1.6,9.9
		c0.1,3.4-0.2,6.8-1,10.1c-0.4,1.7-1,3.4-1.9,5c-0.2,0.4-0.5,0.8-0.8,1.2c-0.3,0.4-0.6,0.8-1,1.2c-0.9,0.9-2,1.5-3.2,1.7
		c-1.3,0.2-2.7-0.2-3.7-1.1c-0.8-0.6-1.5-1.4-2.1-2.3c-0.9-1.6-1.6-3.2-2.1-5c-0.4-1.6-0.7-3.3-0.9-5c-0.1-0.8-0.1-1.7-0.2-2.5
		s0-1.7,0-2.5c0-3.3,0.5-6.7,1.4-9.9c0.5-1.6,1.1-3.2,1.9-4.6c0.7-1.5,1.9-2.8,3.3-3.7c-1.1,1.2-1.9,2.6-2.3,4.1
		c-0.5,1.5-0.8,3-1,4.6c-0.2,1.6-0.3,3.1-0.4,4.7c0,1.6,0,3.1,0.1,4.7c0.2,3.1,0.7,6.1,1.6,9.1c0.4,1.4,1,2.7,1.8,3.9
		c0.3,0.5,0.7,0.9,1.1,1.3c0.2,0.2,0.5,0.3,0.8,0.3c0.4,0,1.4-0.9,2.1-2c0.7-1.3,1.3-2.6,1.7-4c0.4-1.5,0.8-3,1-4.5
		c0.2-1.5,0.4-3.1,0.5-4.6c0.2-3.1,0.1-6.3-0.4-9.4c-0.2-1.6-0.6-3.1-1.1-4.6C367.3,162.5,366.4,161.1,365.1,160.1z"/>
	<path class="st4" d="M450.7,160.5c1.4,0.9,2.6,2.2,3.3,3.7c0.8,1.5,1.4,3,1.9,4.6c0.9,3.2,1.4,6.5,1.4,9.9c0,0.8,0,1.7,0,2.5
		s-0.1,1.7-0.2,2.5c-0.2,1.7-0.5,3.4-0.9,5c-0.4,1.8-1.1,3.4-2.1,5c-0.5,0.9-1.2,1.7-2,2.3c-1,0.8-2.4,1.2-3.7,1.1
		c-1.2-0.2-2.4-0.8-3.2-1.7c-0.7-0.7-1.3-1.5-1.8-2.4c-0.8-1.6-1.5-3.3-1.9-5c-0.8-3.3-1.1-6.7-1-10.1c0.1-3.3,0.6-6.7,1.6-9.9
		c0.5-1.6,1.2-3.1,2-4.6c0.4-0.7,0.9-1.4,1.5-2c0.6-0.6,1.3-1.1,2.1-1.4c-1.2,1-2.1,2.4-2.6,3.9c-0.5,1.5-0.9,3-1.1,4.6
		c-0.5,3.1-0.6,6.2-0.4,9.4c0.1,1.6,0.3,3.1,0.5,4.6c0.2,1.5,0.6,3,1,4.5c0.4,1.4,0.9,2.7,1.6,4c0.6,1.2,1.6,2.1,2.1,2
		c0.3,0,0.6-0.1,0.8-0.3c0.4-0.4,0.8-0.8,1.1-1.3c0.8-1.2,1.4-2.5,1.8-3.9c0.9-2.9,1.5-6,1.6-9.1c0.2-3.1,0.2-6.3-0.2-9.4
		c-0.2-1.6-0.5-3.1-1-4.6C452.5,163,451.8,161.6,450.7,160.5z"/>
</g>
<g id="Calque_3_00000177465848162245240080000008476260514197900972_">
	<path class="st5" d="M411.3,160c0,0.9-2.1,1.6-4.8,1.6s-4.8-0.7-4.8-1.6"/>
</g>
</svg>
