<?xml version="1.0" encoding="utf-8"?>
<!-- Generator: Adobe Illustrator 26.0.1, SVG Export Plug-In . SVG Version: 6.00 Build 0)  -->
<svg version="1.1" id="Calque_1" xmlns="http://www.w3.org/2000/svg" xmlns:xlink="http://www.w3.org/1999/xlink" x="0px" y="0px"
	 viewBox="0 0 108.2 165.4" style="enable-background:new 0 0 108.2 165.4;" xml:space="preserve">
<style type="text/css">
	.st0{fill:#B26959;}
	.st1{clip-path:url(#SVGID_00000013154600106399865890000010547072932286288030_);}
	.st2{fill:#904C3D;}
	.st3{clip-path:url(#SVGID_00000101783975215328549140000004381211962619960992_);}
	.st4{fill:#8D4B51;}
</style>
<g>
	<g>
		<path d="M40.8,49.8c0,0-14,7.4-10,19.3c2,6.5-6.5,0.9-6.2-0.8c0.1-3.1-1.8-5.9-4.6-7.2C16.3,59.8,17,57,17,57
			c0.2-0.9,0.5-1.8,1-2.6c0.6-0.8,0.9-1.7,0.9-2.7c0-0.8-0.5-1.8-2-2.5c-1-0.4-1.8-1.3-2-2.4c-0.1-0.8,0.7-1.9,3.1-4.1
			c1.4-1.4,1.9-3.5,1.3-5.4c-1.2-1.7-2.2-3.5-2.9-5.5c-0.6-2.3,3.5-2.8,3.9-3s2.4-1,2.4-3.1s-1.7-4.5-0.9-5.5s5.4-0.6,5.4-0.6
			c1.4,0,2.7-0.6,3.6-1.6c1.3-1.6,1.7-6.2,3.4-7.2s5.2,1,6,1.5c1.3,0.7,2.8,1,4.3,1c1.3-0.1,2.7-0.9,4.2-3s2.5-4.2,5-4.4
			s4.4,3.6,4.8,4.2s2.2,2.9,5,3c2.8,0.1,4.7-1.7,6.4-2.2s2.7-0.4,3.5,0.2s1.4,2.6,1.7,3.8c0.1,1.5,0.9,2.8,2.1,3.6
			c1.8,1.3,3.6,1,5.1,1s2.2-0.3,3,0.6s0.4,2.3-0.3,3.7c-0.6,1.1-0.6,2.3,0,3.4c0.5,1.1,1.6,1.4,3,1.9s2.6,1,2.8,2.8s-1.3,3-1.8,3.8
			c-0.9,1-1.3,2.3-1.3,3.6c0.3,1.7,1.1,3.3,2.5,4.4c0.9,0.8,2.1,1.6,2,3.2s-1.7,2.1-2.2,2.5c-0.9,0.6-1.5,1.6-1.7,2.7
			c0,1,0.4,2,1.1,2.8c0.6,0.8,0.9,1.7,0.8,2.7c0,1.2-0.5,2.2-2.1,3.1s-3.5,2-4.1,3.3s-1.4,8.2-1.1,5.5c2-22.4-7-4.1-9.3-5.9
			s0.9-5.1-3.2-9.1c-0.7-0.7-0.6-1.3-1.3-1.8c-0.5-0.4-1-0.9-1.3-1.5c-0.2-0.3-1.1-4.4-0.8-5.4s-1.8-1.6-2.6-2.2
			c-0.7-0.4-1.1-1.1-1.4-1.8c-0.3-0.8-0.4-1.9-1-1.9s-1,1.2-1.7,2.2s-1.1,1.7-2.2,2s-3.2-0.7-4.5-0.2s-1.2,1.4-1.5,2.1
			s-0.4,1.4-1.3,1.5c-0.7,0.3-1.5,0.2-2.2-0.1c-1.4-0.5-1.4-0.5-2-0.3s-1.1,1-1.5,1.6s-0.3,1-0.8,1.2C43.7,50,42,49.5,40.8,49.8z"/>
		<circle class="st0" cx="54.5" cy="77.3" r="38.3"/>
		<path d="M54.3,122.1c-22.9,0-41.5-18.8-41.5-42.1s18.6-42,41.5-42"/>
		<path d="M53.5,38c23.8,0,43.1,18.8,43.1,42.1s-19.3,42.1-43.1,42.1"/>
		<path class="st0" d="M90.1,73.6c-0.9-9-38.4-12.3-40.9-12.5h-8.1c-0.1,0-0.3,0-0.5,0l-6.1,0.9c0,0-15.5,2.4-16.4,11.7
			c-2.2,22.2-1,31,0.5,55.9c0.5,9.6,24.5,26.2,29.2,29.3c0.5,0.3,1.1,0.5,1.7,0.6l4.5,0.1h0.2l4.5-0.1c0.6,0,1.2-0.2,1.7-0.6
			c4.7-3.2,28.7-19.8,29.2-29.3C91.1,104.6,92.3,95.8,90.1,73.6z"/>
		<g>
			<defs>
				<polygon id="SVGID_1_" points="90.3,91.8 90.3,91.8 105.7,91.8 105.7,122.1 90.3,122.1 				"/>
			</defs>
			<clipPath id="SVGID_00000183247888698102053060000017911279197472440194_">
				<use xlink:href="#SVGID_1_"  style="overflow:visible;"/>
			</clipPath>
			<g style="clip-path:url(#SVGID_00000183247888698102053060000017911279197472440194_);">
				<path class="st2" d="M91.3,97.9c0,0,5.2-6.4,8.3-6.1c4.6,0.5,6.7,9,6.1,12.8c-0.7,4.8-5,15.1-10.4,17.3c-1.1,0.4-5-0.9-5-0.9
					L91.3,97.9z"/>
			</g>
		</g>
		<g>
			<defs>
				<polygon id="SVGID_00000083087992316640286530000014265328647697301691_" points="18,91.8 18,91.8 2.5,91.8 2.5,122.1 18,122.1 
									"/>
			</defs>
			<clipPath id="SVGID_00000142169720357469856430000003282006351857514404_">
				<use xlink:href="#SVGID_00000083087992316640286530000014265328647697301691_"  style="overflow:visible;"/>
			</clipPath>
			<g style="clip-path:url(#SVGID_00000142169720357469856430000003282006351857514404_);">
				<path class="st2" d="M16.9,97.9c0,0-5.2-6.4-8.3-6.1c-4.6,0.5-6.6,9-6.1,12.8c0.8,4.8,5,15.1,10.4,17.3c1.1,0.4,5-0.9,5-0.9
					L16.9,97.9z"/>
			</g>
		</g>
		<path d="M26.1,47.9c-0.1,1-0.6,1.9-1.4,2.6c-0.7,0.7-1.4,1.3-2.3,1.8c-0.4,0.3-0.8,0.5-1.2,0.8c-0.4,0.3-0.7,0.6-1,0.9
			c-0.6,0.7-1.2,1.4-1.6,2.2c-0.2,0.4-0.3,0.8-0.4,1.2c0,0.2,0,0.3,0.1,0.5c0.1,0.2,0.2,0.3,0.3,0.5c0.6,0.7,1.3,1.3,2,1.9
			c1.5,1.2,3,2.5,4.4,3.8c0.8,0.8,1.4,1.7,1.7,2.8c0.1,0.7,0,1.3-0.3,1.9c-0.3,0.5-0.6,0.9-1,1.3c-1.4,1.5-3,2.6-4.4,3.8
			c-0.7,0.6-1.3,1.2-1.8,1.9c-0.2,0.3-0.3,0.6-0.4,0.9c0,0.3,0,0.6,0.1,0.8c0.4,0.7,0.9,1.3,1.5,1.8c0.7,0.6,1.4,1.2,2.2,1.7
			s1.5,1.2,2.3,1.8c0.4,0.3,0.8,0.7,1.2,1.1c0.5,0.5,0.8,1.1,1,1.7c0.1,0.4,0.1,0.9,0,1.3c0,0.2-0.1,0.4-0.1,0.6l-0.2,0.5
			c-0.3,0.5-0.6,1-1,1.5c-0.7,0.8-1.4,1.5-2.1,2.2c-0.7,0.7-1.4,1.3-2.1,1.9c-0.6,0.6-1.2,1.2-1.7,1.9c-0.4,0.4-0.6,1-0.6,1.5
			c0.2,0.6,0.5,1.1,1,1.5c1.2,1.2,2.8,2.2,4.4,3.5c0.9,0.7,1.6,1.7,2.1,2.8l0.2,0.5c0,0.2,0,0.4,0,0.5c0,0.3,0,0.7-0.1,1
			c-0.2,0.6-0.4,1.2-0.9,1.7c-1.4,1.5-3,2.7-4.7,3.7c-0.8,0.5-1.5,1.1-2.2,1.7c-0.7,0.6-1.1,1.4-1.3,2.3h-0.3c0-1,0.3-2,1-2.8
			c0.6-0.8,1.3-1.5,2-2.2c1.4-1.2,2.7-2.5,3.8-3.9c0.2-0.3,0.3-0.6,0.4-0.9c0-0.1,0-0.2,0-0.4c0-0.1,0-0.1,0-0.2
			c0-0.1-0.1-0.1-0.1-0.2c-0.4-0.6-0.9-1.2-1.5-1.6c-0.7-0.5-1.5-1-2.3-1.6c-0.9-0.5-1.7-1.1-2.5-1.8c-1-0.8-1.7-2-2-3.2
			c-0.1-0.4-0.1-0.8,0-1.1c0-0.3,0.1-0.7,0.2-1c0.1-0.3,0.2-0.6,0.4-0.9c0.1-0.3,0.3-0.5,0.5-0.8c0.6-0.9,1.3-1.6,2.1-2.3
			c0.7-0.7,1.5-1.3,2.2-1.9c0.7-0.6,1.4-1.2,2-1.8c0.3-0.3,0.5-0.5,0.7-0.8l0.1-0.2c0,0,0-0.1,0-0.1s0-0.1,0-0.1
			c-0.1-0.3-0.3-0.5-0.5-0.7c-0.3-0.3-0.6-0.6-0.9-0.9c-0.6-0.6-1.4-1.2-2.1-1.8s-1.5-1.2-2.2-2c-0.8-0.7-1.5-1.7-2-2.7
			c-0.3-0.6-0.3-1.3-0.2-2c0.1-0.6,0.4-1.2,0.8-1.7c0.6-0.8,1.4-1.6,2.2-2.2c1.5-1.2,3.1-2.3,4.4-3.5c0.6-0.6,1.1-1.3,1-1.8
			c-0.2-0.8-0.6-1.5-1.2-2.1c-1.3-1.4-2.6-2.7-4-4c-0.7-0.7-1.4-1.4-2-2.2c-0.2-0.2-0.3-0.5-0.4-0.7c-0.1-0.2-0.1-0.3-0.1-0.5
			c0-0.1,0-0.3,0-0.4c0.1-0.5,0.3-1,0.5-1.5c0.5-0.9,1.1-1.7,1.9-2.3c0.4-0.3,0.7-0.7,1.1-0.9c0.4-0.3,0.8-0.5,1.2-0.8
			c0.8-0.5,1.6-1,2.3-1.7c0.7-0.6,1.2-1.4,1.4-2.3L26.1,47.9z"/>
		<path class="st0" d="M33.1,64.2c0.9-2.1,2-4.1,3.4-5.9c1.4-1.8,2.9-3.5,4.6-5c1.7-1.5,3.5-2.9,5.5-4.1c1.9-1.2,4-2.2,6.1-2.9
			c-2.1,0.9-4.1,2-5.9,3.2c-1.9,1.2-3.7,2.6-5.3,4.1c-1.7,1.5-3.2,3.1-4.7,4.8C35.4,60.3,34.1,62.2,33.1,64.2z"/>
	</g>
	<g id="Calque_3_00000177465848162245240080000008476260514197900972_">
		<path class="st4" d="M58.8,119.2c0,0.9-2.1,1.6-4.8,1.6s-4.8-0.7-4.8-1.6"/>
	</g>
</g>
</svg>
