<?xml version="1.0" encoding="utf-8"?>
<!-- Generator: Adobe Illustrator 26.0.1, SVG Export Plug-In . SVG Version: 6.00 Build 0)  -->
<svg version="1.1" id="Calque_1" xmlns="http://www.w3.org/2000/svg" xmlns:xlink="http://www.w3.org/1999/xlink" x="0px" y="0px"
	 viewBox="0 0 788 1005.1" style="enable-background:new 0 0 788 1005.1;" xml:space="preserve">
<style type="text/css">
	.st0{fill:#B26959;}
	.st1{clip-path:url(#SVGID_00000105418980069388299990000000137035358036243595_);}
	.st2{fill:#904C3D;}
	.st3{clip-path:url(#SVGID_00000108277837935850013510000012720382590107290029_);}
	.st4{fill:#357ABD;}
	.st5{fill:#8D4B51;}
</style>
<g id="Calque_3">
	<circle class="st0" cx="407.2" cy="117.8" r="38.3"/>
	<path class="st0" d="M442.8,114c-0.9-9.3-36-14.7-36-14.7l0,0c0,0-35.1,5.4-36,14.7c-2.2,22.2-1,31,0.5,55.9
		c0.6,9.8,25.6,26.9,29.5,29.5c0.3,0.2,0.7,0.4,1.1,0.4l4.8,0.1h0.1l4.8-0.1c0.4,0,0.8-0.1,1.1-0.4c3.9-2.6,28.9-19.8,29.5-29.5
		C443.8,145,445,136.2,442.8,114z"/>
	<g>
		<g>
			<defs>
				<polygon id="SVGID_1_" points="442.9,132.3 442.9,132.3 458.4,132.3 458.4,162.5 442.9,162.5 				"/>
			</defs>
			<clipPath id="SVGID_00000088132241083821383020000005949658854103128709_">
				<use xlink:href="#SVGID_1_"  style="overflow:visible;"/>
			</clipPath>
			<g style="clip-path:url(#SVGID_00000088132241083821383020000005949658854103128709_);">
				<path class="st2" d="M444,138.4c0,0,5.2-6.4,8.3-6.1c4.6,0.5,6.7,9,6,12.8c-0.7,4.8-5,15.1-10.3,17.3c-1,0.4-5-0.9-5-0.9
					L444,138.4z"/>
			</g>
		</g>
	</g>
	<g>
		<g>
			<defs>
				<polygon id="SVGID_00000179622549298689603590000001489507333543650450_" points="370.7,132.3 370.7,132.3 355.2,132.3 
					355.2,162.5 370.7,162.5 				"/>
			</defs>
			<clipPath id="SVGID_00000183966850139246401790000001432249064535215533_">
				<use xlink:href="#SVGID_00000179622549298689603590000001489507333543650450_"  style="overflow:visible;"/>
			</clipPath>
			<g style="clip-path:url(#SVGID_00000183966850139246401790000001432249064535215533_);">
				<path class="st2" d="M369.6,138.4c0,0-5.2-6.4-8.3-6.1c-4.6,0.5-6.7,9-6.1,12.8c0.8,4.8,5,15.1,10.4,17.3c1,0.4,5-0.9,5-0.9
					L369.6,138.4z"/>
			</g>
		</g>
	</g>
	<ellipse class="st4" cx="364.6" cy="162" rx="4" ry="4.5"/>
	<ellipse class="st4" cx="448.6" cy="163" rx="4" ry="4.5"/>
	<path d="M372.3,143.1c-0.5-0.6-33.6-46.2,24.6-63.4c0,0-31.8-33.9,10.7-33.9c43.4,0,13.2,32.4,10.9,33c0,0,54.5,21.8,23.4,65.9
		c0,0,0.2-34.7-6-37.8c-0.5,4.9-0.5,10-0.5,10c-8.9,2.2-18.1,3.2-27.3,3c-10.2-0.2-20.4-1.4-30.4-3.5v-9.7
		C369.9,113.4,372.3,143.1,372.3,143.1z"/>
</g>
<path class="st5" d="M411.6,160.9c0,0.9-2.1,1.6-4.8,1.6s-4.8-0.7-4.8-1.6"/>
</svg>
