<?xml version="1.0" encoding="utf-8"?>
<!-- Generator: Adobe Illustrator 26.0.1, SVG Export Plug-In . SVG Version: 6.00 Build 0)  -->
<svg version="1.1" id="Calque_1" xmlns="http://www.w3.org/2000/svg" xmlns:xlink="http://www.w3.org/1999/xlink" x="0px" y="0px"
	 viewBox="0 0 158 161.8" style="enable-background:new 0 0 158 161.8;" xml:space="preserve">
<style type="text/css">
	.st0{fill:#B26959;}
	.st1{clip-path:url(#SVGID_00000095301898983594270590000013409441986721109180_);}
	.st2{fill:#904C3D;}
	.st3{clip-path:url(#SVGID_00000020373833452055916700000016766446917750134454_);}
	.st4{fill:#8D4B51;}
</style>
<g id="Calque_3">
	<path d="M118.1,109.4c0,0-1.2-3.7,1.5-6.2s3.6-3.8,3.5-4.7c-0.1-1.2-1-2.3-2.1-2.7c-1.7-0.9-2.3-2-2.3-2.9c0-1.1,0.4-2.1,1-3
		c0.5-0.9,0.9-1.9,1.1-3c0,0,0.8-3.1-3.3-4.8c-3.3-1.4-5.4-4.6-5.3-8.2c0.2-1.9-9.4-8.3-7.1-0.9c4.5,13.6-11.5,22-11.5,22
		c-1.3,0.4-3.3-0.2-3.9,0.1s-0.6,0.7-1,1.4s-1,1.7-1.6,1.9s-0.7,0.2-2.3-0.4c-0.8-0.4-1.7-0.4-2.5-0.2c-1,0.1-1,1-1.4,1.8
		s-0.2,1.7-1.8,2.3s-3.9-0.6-5.1-0.2s-1.7,1.1-2.5,2.3s-1.3,2.6-2,2.6s-0.8-1.2-1.1-2.2c-0.3-0.9-0.8-1.6-1.6-2.1
		c-0.9-0.7-3.4-1.4-3-2.5s-0.7-5.8-0.9-6.1c-0.4-0.7-0.9-1.2-1.5-1.7c-0.7-0.5-0.7-1.3-1.5-2c-4.7-4.6-1.2-8.5-3.7-10.4
		s-12.9,18.8-10.6-6.7c0.3-3.1-0.5,4.8-1.3,6.3s-3,2.7-4.7,3.7s-2.3,2.2-2.4,3.6c0,1.1,0.3,2.1,0.9,3c0.8,0.9,1.2,2,1.3,3.2
		c-0.1,1.3-0.9,2.4-1.9,3.1c-0.7,0.4-2.5,1.1-2.6,2.9s1.3,2.7,2.4,3.6c1.5,1.3,2.5,3,2.8,5c0.2,2.1-0.9,3.2-1.5,4.1s-2.2,2.3-2,4.3
		s1.6,2.7,3.2,3.2s2.9,1,3.4,2.2c0.6,1.2,0.6,2.7,0,3.9c-0.7,1.6-1.2,3.2-0.3,4.2s1.6,0.6,3.4,0.7s3.9-0.3,5.9,1.2
		c1.4,0.9,2.3,2.4,2.4,4.1c0.3,1.4,1,3.7,1.9,4.3s1.1,0.9,1.8,0.6l0-4.7l0.1-2l0.8-12.5l41.6-0.3l0.6,12.2l0.2,6.2
		c1.6,0.8,2-5.5,3.5-7.4c1.1-1.1,2.6-1.8,4.1-1.8c0,0,5.3,0.5,6.1-0.7c0.9-1.2-0.9-3.9-1-6.3s2.2-3.3,2.7-3.5s5.1-0.9,4.5-3.5
		S118.1,109.4,118.1,109.4z"/>
	<circle class="st0" cx="86.9" cy="72.9" r="38.3"/>
	<path d="M86.7,117.7c-22.9,0-41.5-18.6-41.5-41.5s18.6-41.5,41.5-41.5"/>
	<path d="M87.4,34.6c22.9,0,41.5,18.6,41.5,41.5s-18.6,41.5-41.5,41.5l0,0"/>
	<path class="st0" d="M122.5,69.1c-0.9-9.3-36-14.7-36-14.7l0,0c0,0-35.1,5.4-36,14.7c-2.2,22.2-1,31,0.5,55.9
		c0.5,9.3,23.4,25.4,28.8,29.1c0.7,0.5,1.6,0.8,2.5,0.8l4.1,0.1l4.1-0.1c0.9,0,1.8-0.3,2.5-0.8c5.4-3.7,28.3-19.8,28.8-29.1
		C123.4,100.1,124.7,91.4,122.5,69.1z"/>
	<g>
		<defs>
			<polygon id="SVGID_1_" points="122.6,87.4 122.6,87.4 138.1,87.4 138.1,117.6 122.6,117.6 			"/>
		</defs>
		<clipPath id="SVGID_00000115484630605604735820000008109852742661324474_">
			<use xlink:href="#SVGID_1_"  style="overflow:visible;"/>
		</clipPath>
		<g style="clip-path:url(#SVGID_00000115484630605604735820000008109852742661324474_);">
			<path class="st2" d="M123.7,93.5c0,0,5.2-6.4,8.3-6.1c4.6,0.5,6.6,9,6.1,12.8c-0.8,4.8-5,15.1-10.3,17.3c-1.1,0.4-5-0.9-5-0.9
				L123.7,93.5z"/>
		</g>
	</g>
	<g>
		<defs>
			<polygon id="SVGID_00000062192090381814017250000002045046715405950889_" points="50.4,87.4 50.4,87.4 34.9,87.4 34.9,117.6 
				50.4,117.6 			"/>
		</defs>
		<clipPath id="SVGID_00000092429036927015514420000010214161096633071785_">
			<use xlink:href="#SVGID_00000062192090381814017250000002045046715405950889_"  style="overflow:visible;"/>
		</clipPath>
		<g style="clip-path:url(#SVGID_00000092429036927015514420000010214161096633071785_);">
			<path class="st2" d="M49.4,93.5c0,0-5.2-6.4-8.3-6.1c-4.6,0.5-6.7,9-6.1,12.8c0.7,4.8,5,15.1,10.4,17.3c1.1,0.4,5-0.9,5-0.9
				L49.4,93.5z"/>
		</g>
	</g>
	<ellipse cx="102.5" cy="25.3" rx="21.5" ry="18.6"/>
	<path d="M73.4,6.7c0,0-4.5,22.7,15.5,29.6s-5-10.9-5-10.9C83,20.3,76.4,15.9,73.4,6.7z"/>
	<path d="M96.6,35.1c-0.1,1.5,16.4,13.7-18.5,30s-59.7,41.8-24.1,56.7c0,0-58.1-6.8-23.3-36.5c22.6-19.4,19.5-50,49.8-53.9
		S96.6,35.1,96.6,35.1z"/>
	<path d="M114.2,34.6c0,0,22.5,11,24.1,41.2s-23.1,49.7-40.8,47.7c0,0,32.4-16.8,24-45C114.1,54.4,93.1,59.5,92,44
		S114.2,34.6,114.2,34.6z"/>
	<path class="st4" d="M91.2,114.7c0,0.9-2.1,1.6-4.8,1.6s-4.8-0.7-4.8-1.6"/>
</g>
</svg>
