<?xml version="1.0" encoding="utf-8"?>
<!-- Generator: Adobe Illustrator 26.0.1, SVG Export Plug-In . SVG Version: 6.00 Build 0)  -->
<svg version="1.1" id="Calque_1" xmlns="http://www.w3.org/2000/svg" xmlns:xlink="http://www.w3.org/1999/xlink" x="0px" y="0px"
	 viewBox="0 0 788 1005.1" style="enable-background:new 0 0 788 1005.1;" xml:space="preserve">
<style type="text/css">
	.st0{fill:#B26959;}
	.st1{clip-path:url(#SVGID_00000058561941657137407010000005044560924698672558_);}
	.st2{fill:#904C3D;}
	.st3{clip-path:url(#SVGID_00000013184341604837462490000000924727388948903851_);}
	.st4{fill:#8D4B51;}
</style>
<g id="Calque_3">
	<path d="M438.1,154c0,0-1.2-3.7,1.5-6.2s3.6-3.8,3.5-4.7c-0.1-1.2-1-2.3-2.1-2.7c-1.7-0.9-2.3-2-2.3-2.9c0-1.1,0.4-2.1,1-3
		c0.5-0.9,0.9-1.9,1.1-3c0,0,0.8-3.1-3.3-4.7c-3.3-1.4-5.4-4.6-5.3-8.2c0.2-1.9-9.4-8.3-7.1-0.9c4.5,13.6-11.5,22-11.5,22
		c-1.3,0.4-3.3-0.2-3.9,0.1c-0.6,0.3-0.6,0.7-1,1.4s-1,1.7-1.6,1.9c-0.6,0.2-0.7,0.2-2.3-0.4c-0.8-0.4-1.7-0.4-2.5-0.2
		c-1,0.1-1,1-1.4,1.8s-0.2,1.7-1.8,2.3c-1.5,0.6-3.9-0.6-5.1-0.2s-1.7,1.1-2.5,2.3c-0.8,1.2-1.3,2.6-2,2.6s-0.8-1.2-1.1-2.2
		c-0.3-0.9-0.8-1.6-1.6-2.1c-0.9-0.7-3.4-1.4-3-2.5s-0.7-5.8-0.9-6.1c-0.4-0.7-0.9-1.2-1.5-1.7c-0.7-0.5-0.7-1.3-1.5-2
		c-4.7-4.6-1.2-8.5-3.7-10.4s-12.9,18.8-10.6-6.7c0.3-3.1-0.5,4.8-1.3,6.3s-3,2.7-4.7,3.7c-1.7,1.1-2.3,2.2-2.4,3.6
		c0,1.1,0.3,2.1,0.9,3c0.8,0.9,1.2,2,1.3,3.2c-0.1,1.3-0.9,2.4-1.9,3.1c-0.7,0.4-2.5,1.1-2.6,2.9s1.3,2.7,2.4,3.6
		c1.5,1.3,2.5,3,2.8,5c0.2,2.1-0.9,3.2-1.5,4.1s-2.2,2.3-2,4.3s1.6,2.7,3.2,3.2s2.9,1,3.4,2.2c0.6,1.2,0.6,2.7,0,3.9
		c-0.7,1.6-1.2,3.2-0.3,4.2s1.6,0.6,3.4,0.7s3.9-0.3,5.9,1.2c1.4,0.9,2.3,2.4,2.4,4.1c0.3,1.4,1,3.7,1.9,4.3s1.1,0.9,1.8,0.6l0-4.7
		l0.1-2l0.8-12.6l41.6-0.3l0.6,12.2l0.2,6.2c1.6,0.8,2-5.5,3.5-7.4c1.1-1.1,2.6-1.8,4.1-1.8c0,0,5.3,0.5,6.1-0.7s-0.9-3.9-1-6.3
		s2.2-3.3,2.7-3.5s5.1-0.9,4.5-3.5S438.1,154,438.1,154z"/>
	<circle class="st0" cx="406.9" cy="117.5" r="38.3"/>
	<path d="M406.7,162.3c-22.9,0-41.5-18.6-41.5-41.5s18.6-41.5,41.5-41.5"/>
	<path d="M407.5,79.2c22.9,0,41.5,18.6,41.5,41.5s-18.6,41.5-41.5,41.5l0,0"/>
	<path class="st0" d="M442.5,113.7c-0.9-9.3-36-14.7-36-14.7l0,0c0,0-35.1,5.4-36,14.7c-2.2,22.2-1,31,0.5,55.9
		c0.5,9.3,23.4,25.4,28.8,29.1c0.7,0.5,1.6,0.8,2.5,0.8l4.1,0.1l4.1-0.1c0.9,0,1.8-0.3,2.5-0.8c5.4-3.7,28.3-19.8,28.8-29.1
		C443.5,144.7,444.7,136,442.5,113.7z"/>
	<g>
		<defs>
			<polygon id="SVGID_1_" points="442.7,132 442.7,132 458.1,132 458.1,162.2 442.7,162.2 			"/>
		</defs>
		<clipPath id="SVGID_00000115505124247703282320000014832837619445459338_">
			<use xlink:href="#SVGID_1_"  style="overflow:visible;"/>
		</clipPath>
		<g style="clip-path:url(#SVGID_00000115505124247703282320000014832837619445459338_);">
			<path class="st2" d="M443.7,138.1c0,0,5.2-6.4,8.3-6.1c4.6,0.5,6.6,9,6.1,12.8c-0.8,4.8-5,15.1-10.4,17.3c-1.1,0.4-5-0.9-5-0.9
				L443.7,138.1z"/>
		</g>
	</g>
	<g>
		<defs>
			<polygon id="SVGID_00000049197947082938197790000006773577123702695298_" points="370.4,132 370.4,132 354.9,132 354.9,162.2 
				370.4,162.2 			"/>
		</defs>
		<clipPath id="SVGID_00000021801871219300965370000016005576876654935742_">
			<use xlink:href="#SVGID_00000049197947082938197790000006773577123702695298_"  style="overflow:visible;"/>
		</clipPath>
		<g style="clip-path:url(#SVGID_00000021801871219300965370000016005576876654935742_);">
			<path class="st2" d="M369.4,138.1c0,0-5.2-6.4-8.3-6.1c-4.6,0.5-6.7,9-6.1,12.8c0.7,4.8,5,15.1,10.4,17.3c1.1,0.4,5-0.9,5-0.9
				L369.4,138.1z"/>
		</g>
	</g>
	<ellipse cx="422.5" cy="69.9" rx="21.5" ry="18.6"/>
	<path d="M393.5,51.3c0,0-4.5,22.7,15.5,29.6c19.9,6.9-5-10.9-5-10.9C403,64.9,396.4,60.5,393.5,51.3z"/>
	<path d="M416.6,79.7c-0.1,1.5,16.4,13.7-18.5,30s-59.7,41.8-24.1,56.7c0,0-58.1-6.8-23.3-36.5c22.6-19.4,19.5-50,49.8-53.9
		S416.6,79.7,416.6,79.7z"/>
	<path d="M434.2,79.2c0,0,22.5,11,24.1,41.2s-23.1,49.7-40.9,47.7c0,0,32.4-16.8,24-45c-7.2-24.1-28.3-19-29.4-34.6
		S434.2,79.2,434.2,79.2z"/>
	<path class="st4" d="M411.2,159.3c0,0.9-2.1,1.6-4.8,1.6s-4.8-0.7-4.8-1.6"/>
</g>
</svg>
