<?xml version="1.0" encoding="utf-8"?>
<!-- Generator: Adobe Illustrator 26.0.2, SVG Export Plug-In . SVG Version: 6.00 Build 0)  -->
<svg version="1.1" id="Calque_1" xmlns="http://www.w3.org/2000/svg" xmlns:xlink="http://www.w3.org/1999/xlink" x="0px" y="0px"
	 viewBox="0 0 788 1005.1" style="enable-background:new 0 0 788 1005.1;" xml:space="preserve">
<style type="text/css">
	.st0{fill:#B26959;}
	.st1{clip-path:url(#SVGID_00000148634015925026916940000006900205828343962517_);}
	.st2{fill:#904C3D;}
	.st3{clip-path:url(#SVGID_00000034091779714034977040000014060081394503825555_);}
	.st4{fill:#8D4B51;}
</style>
<g id="Calque_3">
	<path d="M423.6,120.6c16-3.8,23.1-6.2,26.4-6.8s2.9,0.6,3.8,4.1c1.8,7,4.7,39.1,4.7,39.1s-2.3,16.5-5.9,24.8s-7,13-11.8,13
		s-6-4.4-11.3-4.9s-5.9-1.6-8.9-6.4S423.6,120.6,423.6,120.6z"/>
	<circle class="st0" cx="407.3" cy="117.9" r="38.3"/>
	<path d="M407.1,162.7c-23,0-41.5-18.8-41.5-42s18.6-42,41.5-42"/>
	<path class="st0" d="M442.9,114.1c-0.9-9-38.4-12.3-40.9-12.5h-8.1c-0.2,0-0.3,0-0.5,0l-6.1,0.9c0,0-15.5,2.4-16.4,11.7
		c-2.2,22.2-1,31,0.5,55.9c0.6,9.6,24.5,26.2,29.2,29.4c0.5,0.3,1.1,0.5,1.7,0.6l4.4,0.1h0.2l4.4-0.1c0.6,0,1.2-0.2,1.7-0.6
		c4.7-3.2,28.7-19.8,29.2-29.4C443.8,145.1,445,136.4,442.9,114.1z"/>
	<g>
		<g>
			<g>
				<defs>
					<polygon id="SVGID_1_" points="443,132.4 443,132.4 458.5,132.4 458.5,162.6 443,162.6 					"/>
				</defs>
				<clipPath id="SVGID_00000145017416891927799780000009774358603488088985_">
					<use xlink:href="#SVGID_1_"  style="overflow:visible;"/>
				</clipPath>
				<g style="clip-path:url(#SVGID_00000145017416891927799780000009774358603488088985_);">
					<path class="st2" d="M444,138.5c0,0,5.2-6.4,8.3-6.1c4.6,0.5,6.6,9,6.1,12.8c-0.8,4.8-5,15.1-10.4,17.3c-1,0.4-5-0.9-5-0.9
						L444,138.5z"/>
				</g>
			</g>
		</g>
	</g>
	<g>
		<g>
			<g>
				<defs>
					<polygon id="SVGID_00000086680099450402071930000018176162461778965941_" points="370.7,132.4 370.7,132.4 355.2,132.4 
						355.2,162.6 370.7,162.6 					"/>
				</defs>
				<clipPath id="SVGID_00000080918223340053463610000000345789505718412961_">
					<use xlink:href="#SVGID_00000086680099450402071930000018176162461778965941_"  style="overflow:visible;"/>
				</clipPath>
				<g style="clip-path:url(#SVGID_00000080918223340053463610000000345789505718412961_);">
					<path class="st2" d="M369.7,138.5c0,0-5.2-6.4-8.3-6.1c-4.6,0.5-6.6,9-6.1,12.8c0.8,4.8,5,15.1,10.4,17.3c1,0.4,5-0.9,5-0.9
						L369.7,138.5z"/>
				</g>
			</g>
		</g>
	</g>
	<path class="st0" d="M385.8,104.8c0.9-2.1,2-4.1,3.4-5.9s2.9-3.5,4.6-5s3.5-2.9,5.5-4.1c1.9-1.2,4-2.2,6.1-2.9
		c-2.1,0.9-4.1,2-5.9,3.2c-1.9,1.2-3.7,2.6-5.3,4.1c-1.7,1.5-3.3,3.1-4.7,4.8C388.1,100.9,386.9,102.8,385.8,104.8z"/>
	<path d="M414.5,80.9c2.6,13.7-9,18.8-0.6,20.3c15.6,2.7,23.3,7.4,27.2,14c7.5,12.4,15.7,37.5,6.9,57.4c-6.1,13.8-8.3,46.8,12,57
		c0,0-10.7-11.5,4-40.2s4.1-72.4-16.9-93.7C421.1,69.4,414.5,80.9,414.5,80.9z"/>
	<path d="M414.5,80.9c0,0.8,1.1,17-14.1,21c-15.4,4.1-20.8,12.8-23.1,20.1c-4.3,13.8-6.4,40.1,7,57.4c9.2,12,19.2,43.4,2,58.2
		c0,0,7.6-13.7-13.5-38.1s-23.2-70.6-5.8-95C397.8,61.1,414.5,80.9,414.5,80.9z"/>
</g>
<path class="st4" d="M411.7,161.2c0,0.9-2.1,1.6-4.8,1.6s-4.8-0.7-4.8-1.6"/>
</svg>
