<?xml version="1.0" encoding="utf-8"?>
<!-- Generator: Adobe Illustrator 26.0.2, SVG Export Plug-In . SVG Version: 6.00 Build 0)  -->
<svg version="1.1" id="Calque_1" xmlns="http://www.w3.org/2000/svg" xmlns:xlink="http://www.w3.org/1999/xlink" x="0px" y="0px"
	 viewBox="0 0 788 1005.1" style="enable-background:new 0 0 788 1005.1;" xml:space="preserve">
<style type="text/css">
	.st0{fill:#B26959;}
	.st1{clip-path:url(#SVGID_00000121258611861064247900000015576170903685612454_);}
	.st2{fill:#904C3D;}
	.st3{clip-path:url(#SVGID_00000064352936958669220010000014756209544687201957_);}
	.st4{fill:#D3D3D3;stroke:#D34B1C;stroke-miterlimit:10;}
	.st5{fill:#D3D3D3;}
	.st6{fill:#D34B1C;}
	.st7{fill:#8D4B51;}
</style>
<g>
	<g id="Calque_3">
		<path d="M443.5,160.9c0.3-0.3,0.5-0.1,1.1-0.2c0.5-0.2,1.3-0.3,1.6-0.7c0.4-0.4,0.4-0.4,0.4-1.6c0-0.6,0.2-1.3,0.6-1.7
			c0.3-0.6,1-0.5,1.5-0.5s1.1,0.3,1.9-0.5c0.8-0.8,0.7-2.7,1.2-3.4c0.5-0.8,1.1-0.9,2.1-1.1s2-0.2,2.2-0.7c0.2-0.4-0.6-0.8-1.1-1.3
			c-0.4-0.5-0.8-1-0.9-1.6c-0.3-0.8-0.1-2.6-0.9-2.7s-3.6-2-3.8-2.2c-0.3-0.4-0.5-0.9-0.7-1.4c-0.2-0.7-0.7-0.8-1-1.5
			c-1.8-4.3-5.2-2.8-5.9-5.1c-0.7-2.2,15.7-3.6-1.7-8.7c-2.1-0.5,3.3,0.9,4.5,0.8s2.6-1.1,3.7-2.1s2-1.1,2.9-0.7
			c0.8,0.2,1.4,0.7,1.8,1.4s1.1,1.2,1.8,1.6c0.9,0.2,1.8,0,2.5-0.5c0.4-0.2,1.3-1.3,2.5-0.9c1.2,0.4,1.5,1.5,1.8,2.4
			c0.4,1.4,1.4,2.5,2.6,3.2c1,0.4,2.1,0.5,3.1,0.1c0.8-0.1,2.1-0.8,3.4-0.2c1.2,0.6,1.3,1.7,1.3,2.9c-0.1,1.2-0.2,2.1,0.5,2.8
			c0.7,0.8,1.6,1.1,2.6,1c1.3-0.1,2.4,0.1,2.9,0.9s0,1.3-0.4,2.4c-0.4,1.1-1.1,2.4-0.7,4.1c0.3,1.1,1,2.1,2.1,2.6
			c0.9,0.6,2.2,1.6,2.4,2.4s0,1.6-0.9,2.7c-0.8,1.2-2.7,2.1-3.5,4.2s0.4,4.2,0.7,4.6c0.4,0.4,2.7,3,1.8,4.8c-0.9,1.9-2.8,2-4.8,2.5
			s-3,1.4-3.5,2.3c-0.4,1.1-0.6,2.3-0.5,3.5c0.2,0.7,0.6,3.9-0.6,4.9c-1.2,0.9-4.8-0.1-6.4,0.4c-1.1,0.3-1.9,1.1-2.3,2.2
			c0,0-1,3.6-2,3.9s-2.4-1.6-3.9-2.3c-1.5-0.6-2.7,0.7-3,0.9c-0.3,0.3-1.8,3.2-3.4,2.1c-1.2-1-2.4-2.4-3.2-3.8c0,0-2-1.8-4.4-0.6
			c-2.4,1.1-3.4,1.4-4,1.1c-0.7-0.4-1.2-1.2-1.2-2.1c-0.2-1.4-0.8-2.1-1.4-2.3c-0.8-0.3-1.5-0.3-2.3-0.1c-0.7,0.1-1.5,0-2.2-0.1
			c0,0-2.3-0.3-2.3-3.4c-0.2-2.5-1.8-4.7-4.1-5.6c-1.4-0.3-3.1-8.3,1.2-4.9c7.7,6.5,17.4-1.9,17.4-1.9
			C443.2,162.4,443.2,161.2,443.5,160.9z"/>
		<circle class="st0" cx="407.9" cy="117.6" r="38.3"/>
		<path d="M407.7,162.4c-22.9,0-41.5-18.6-41.5-41.5s18.6-41.5,41.5-41.5"/>
		<path d="M408.5,79.3c22.9,0,41.5,18.6,41.5,41.6c0,22.9-18.6,41.5-41.5,41.5"/>
		<path class="st0" d="M443.5,113.8c-0.9-9.3-36-14.7-36-14.7l0,0c0,0-35.1,5.4-36,14.7c-2.2,22.2-1,31,0.5,56
			c0.6,9.8,25.5,26.9,29.5,29.5c0.3,0.2,0.7,0.4,1.2,0.4l4.9,0.2l4.9-0.2c0.4,0,0.8-0.1,1.2-0.4c4-2.7,28.9-19.8,29.5-29.5
			C444.5,144.8,445.7,136,443.5,113.8z"/>
		<g>
			<g>
				<g>
					<defs>
						<polygon id="SVGID_1_" points="443.7,132.1 443.7,132.1 459.2,132.1 459.2,162.3 443.7,162.3 						"/>
					</defs>
					<clipPath id="SVGID_00000101787711025475321600000015199595276750098321_">
						<use xlink:href="#SVGID_1_"  style="overflow:visible;"/>
					</clipPath>
					<g style="clip-path:url(#SVGID_00000101787711025475321600000015199595276750098321_);">
						<path class="st2" d="M444.7,138.2c0,0,5.2-6.4,8.3-6.1c4.6,0.5,6.6,9,6.1,12.8c-0.8,4.8-5,15.1-10.4,17.3c-1,0.4-5.4-1-5.4-1
							L444.7,138.2z"/>
					</g>
				</g>
			</g>
		</g>
		<g>
			<g>
				<g>
					<defs>
						<polygon id="SVGID_00000121263864905213445340000012527871552048466879_" points="371.4,132.1 371.4,132.1 355.9,132.1 
							355.9,162.3 371.4,162.3 						"/>
					</defs>
					<clipPath id="SVGID_00000137099889444373884280000005002026720733623936_">
						<use xlink:href="#SVGID_00000121263864905213445340000012527871552048466879_"  style="overflow:visible;"/>
					</clipPath>
					<g style="clip-path:url(#SVGID_00000137099889444373884280000005002026720733623936_);">
						<path class="st2" d="M370.3,138.2c0,0-5.2-6.4-8.3-6.1c-4.6,0.5-6.6,9-6.1,12.8c0.8,4.8,5,15.1,10.4,17.3
							c1,0.4,5.6-0.9,5.6-0.9L370.3,138.2z"/>
					</g>
				</g>
			</g>
		</g>
		<g>
			<path class="st4" d="M441.4,90.7c0,0,38.4,28.7,41.2-9.7c2.8-38.4-30.3-27.9-30.3-27.9s-5.2-12-23.9-16.3s-26.7,5.8-26.7,5.8
				s-20.8-19.9-31.3,8.5c-10.4,28.3,13.6,30.2,13.6,30.2"/>
			<path class="st4" d="M385,72.4c0,0-8.3,10.4-8.6,21.2c39.4-8,73.6,30.3,73.6,30.3l8.9-34.5C428.1,63.1,385,72.4,385,72.4z"/>
			<g>
				<path class="st5" d="M399.6,65.6c0,0,3.1,15.2,20.7,18.6c17.7,3.4,24.5-8.3,24.5-8.3"/>
				<path class="st6" d="M444.8,75.9c-7,11.2-23.5,11.4-33.9,5.1c-5.6-3.3-9.9-9.1-11.2-15.5c1.3,4.5,4,8.7,7.4,11.8
					C417.2,86.3,436.3,87.6,444.8,75.9L444.8,75.9z"/>
			</g>
		</g>
	</g>
	<path class="st7" d="M412.3,160.1c0,0.9-2.1,1.6-4.8,1.6s-4.8-0.7-4.8-1.6"/>
</g>
</svg>
