<svg xmlns="http://www.w3.org/2000/svg" xmlns:xlink="http://www.w3.org/1999/xlink" viewBox="0 0 788 1005.07"><defs><style>.cls-1{fill:none;}.cls-2{fill:#b26959;}.cls-3{clip-path:url(#clip-path);}.cls-4{fill:#904c3d;}.cls-5{clip-path:url(#clip-path-2);}</style><clipPath id="clip-path"><polygon class="cls-1" points="447.99 105.86 447.99 105.86 463.49 105.86 463.49 136.09 447.99 136.09 447.99 105.86"/></clipPath><clipPath id="clip-path-2"><polygon class="cls-1" points="375.72 105.86 375.72 105.86 360.23 105.86 360.23 136.09 375.72 136.09 375.72 105.86"/></clipPath></defs><g id="Calque_3" data-name="Calque 3"><rect class="cls-2" x="392.1" y="139.97" width="39.52" height="47.38"/><circle class="cls-2" cx="412.25" cy="91.35" r="38.29"/><path d="M412.06,136.15a41.54,41.54,0,0,1,0-83.08"/><path d="M412.79,53.07a41.54,41.54,0,0,1,0,83.08"/><path class="cls-2" d="M447.84,87.6c-.91-9.29-36-14.72-36-14.72v0s-35.07,5.43-36,14.72c-2.18,22.22-1,31,.47,56,.62,10.6,30,29.87,30,29.87l5.5.17,5.49-.17s29.39-19.27,30-29.87C448.8,118.6,450,109.82,447.84,87.6Z"/><g class="cls-3"><path class="cls-4" d="M449,111.94s5.23-6.39,8.3-6.06c4.59.49,6.65,9,6.06,12.82-.75,4.8-5,15.13-10.36,17.3-1,.43-5-.85-5-.85Z"/></g><g class="cls-5"><path class="cls-4" d="M374.68,111.94s-5.23-6.39-8.3-6.06c-4.58.49-6.65,9-6.06,12.82.75,4.8,5,15.13,10.36,17.3,1.05.43,5-.85,5-.85Z"/></g><path d="M374,110.87l-1.39-15.82,9-20.81L411.86,73l33.75-2.33,5.05,24.4,1.19,13.73s21.81-41.2,23.58-44,36.82-50.42-6.7-57.13c-54-8.33-122,18.89-126.62,36.74S372.69,109.46,374,110.87Z"/><path d="M409.77,63.94l32.63-5.08L400.86,38.93,356.15,61.85l34.1,2.79A83.29,83.29,0,0,0,409.77,63.94Z"/></g></svg>