<?xml version="1.0" encoding="utf-8"?>
<!-- Generator: Adobe Illustrator 26.0.0, SVG Export Plug-In . SVG Version: 6.00 Build 0)  -->
<svg version="1.1" id="Calque_1" xmlns="http://www.w3.org/2000/svg" xmlns:xlink="http://www.w3.org/1999/xlink" x="0px" y="0px"
	 viewBox="0 0 788 1005" style="enable-background:new 0 0 788 1005;" xml:space="preserve">
<style type="text/css">
	.st0{fill:#1A1818;}
	.st1{fill:#473415;}
	.st2{fill:#A85B3B;}
	.st3{fill:#5C1B00;}
	.st4{fill:#005F56;}
</style>
<g id="Calque_1_00000008860631893532153530000006658013438806378143_">
	<polygon class="st0" points="230.3,514 230.2,514 230.2,514 	"/>
	<polygon points="230.4,514 230.4,514 230.3,514 	"/>
	<polygon class="st0" points="230.3,514 230.2,514 230.2,514 	"/>
	<polygon points="230.4,514 230.4,514 230.3,514 	"/>
	<polygon class="st1" points="316.7,487.9 318.2,467 473.2,467 475.2,485.1 	"/>
	<path class="st2" d="M117.2,274.9L102,261l-25.4-12.7c0,0-1.7,5.4-1,7c2.2,5.1,9.6,9.9,14,13.2c0.6,0.4,1.9,3.6,1.6,4.3
		c-1,2.9-7.4,2.2-7.4,2.2l18.9,8.2L117.2,274.9z"/>
	<path class="st2" d="M110.6,274.6l-5,20.7l-44.9-7l-41.7-24c0,0,4.5-5,6.6-5.4c10.9-2.2,31.7,9.9,42.5,12.6
		C79.6,274.3,110.6,274.6,110.6,274.6z"/>
	
		<ellipse transform="matrix(0.5823 -0.813 0.813 0.5823 -185.1957 207.0944)" class="st2" cx="108.9" cy="283.8" rx="12.2" ry="12.1"/>
	<path class="st2" d="M515.3,299.6c-0.6,38.4-26.2,33.2-36.9,42.3c-12.6,10.8-8.3,50-17.2,64c-2.5,3.8-11.4,10.1-15.8,9.1
		c-12.5-2.9-24-30.7-34.8-37.7c-6.3-4.1-23.6-3.6-30.2,0c-11.2,6.2-22.3,34.9-34.8,37.7c-4.4,1-13.4-5.2-15.8-9.1
		c-8.9-14-4.6-53.2-17.2-64c-10.6-9.1-36.2-3.9-36.9-42.3c-0.4-26.6,35-37.3,35-37.3l40.1-19.9c2.6-1.3,5-2.9,7.1-4.8
		c0.8-0.7,1.6-1.5,2.3-2.3l0.6-0.7l0-0.1c3.9-4.7,6.5-10.4,7.2-16.4c0.2-1.4,0.3-2.8,0.2-4.2V211v-4.5h53.6l0.1,5v1.5v3.2
		c0,0.3,0,0.7,0,1l0,0c0,0.6,0.1,1.3,0.2,1.9c0.2,1.5,0.5,3.1,0.9,4.6c2.2,7.7,7.6,14,14.7,17.6l40.5,20.1c1,0.5,2.1,1,3.2,1.3
		C488.4,265.2,515.6,276.3,515.3,299.6z"/>
	<path class="st2" d="M422.9,254.8l-27.5,32.5l-14.8-17.7l-12.4-14.8l0.7-41.6v-2.2l0.1-4.5h53v0.2l0.1,4.7l0,0v1.6l0.1,4.2l0,0v1.3
		l0.1,6.8L422.9,254.8z"/>
	<path class="st3" d="M423.4,224.1l-1,1.2c-5.2,6.3-28.8,35-41.8,44.3c-3.2,2.3-5.7,3.4-7.2,2.7c-6.8-3.3-14.8-35.1-14.8-35.1
		l0.1-0.1c0.6-0.6,1.2-1.2,1.7-1.9c0.3-0.4,0.7-0.8,1-1.3l0.1-0.1c3.3-4.5,5.5-9.7,6.7-15.2c0-0.2,0.1-0.4,0.1-0.6
		c0.3-1.4,0.5-3,0.7-4.8c0.1-0.7,0.1-1.4,0.2-2.2c0.1-1.4,0.2-2.9,0.3-4.5h52.7v0.2v4.3v6.7l0.1,0.8l0.1,0.7l0.9,4.6L423.4,224.1z"
		/>
	<path class="st2" d="M457.7,296.7c-1.2,27.6,18,53.5,18,53.5s31.4,53.9,41.6,71.9c4.8,8.5,14.5,26.5,36.2,15.1l0,0
		c17.9-9.4,11.8-28.1,8-36.7c-7.7-17.5-27-51.4-31.5-69.7c-3.4-13.7-3.2-36.1-21.1-52.2c0,0-13.2-14.8-32-7.7l-0.7,0.3
		C465.4,275.3,458.2,285.3,457.7,296.7L457.7,296.7z"/>
	<path class="st2" d="M232.3,404.3c10.9-14.1-2.9-33.3-8.2-40S205,346.5,198.2,341c-17.2-14-68.2-48.5-81-66.1
		c-8.9-12.3-23,8.4-23,8.4s13.6,11.7,20.4,20.1c14.2,17.7,28.1,45.3,50.6,75.4c5.9,7.9,20.6,21.6,28.8,26.9
		C217,420.2,229.1,408.4,232.3,404.3z"/>
	<path class="st2" d="M334.8,306.6c-8.5,26.3-35.5,43.8-35.5,43.8s-48.2,39.4-64.1,52.8c-7.5,6.3-22.8,19.7-39.1,1.5l0,0
		c-13.4-15-1.2-30.5,5.4-37.2c13.3-13.7,43.2-38.6,53.9-54.2c7.9-11.6,15.6-32.7,38-41.5c0,0,17.6-9.3,32.6,4l0.6,0.5
		C335.1,283.9,338.3,295.8,334.8,306.6L334.8,306.6z"/>
</g>
<g id="Calque_7">
	<polygon class="st4" points="202.7,335.4 185.4,358.6 179.3,399.2 209.8,426.1 316.1,358 318.7,428.3 311,476.9 311.8,514 
		481.5,511.6 483.4,462.5 466.8,426.6 469.6,379.7 473.7,366.5 530.7,449 565.2,450.8 586,422.5 548.9,341.3 513.8,269.5 
		447.4,247.6 396.2,275 343.6,245.4 284.4,272.8 263.5,294.8 238.8,326 	"/>
	<path class="st2" d="M568.1,427.8c2.8-17.2-16.2-30.4-23.3-34.8s-22.7-10-30.3-12.7c-19.6-7.1-52.9-16.4-72-23.6
		c-12.6-4.7-19.2-7.5-22.5-0.4c-3,6.5,7.9,15,12.2,18.3c17.6,13.8,51.8,41.2,71.9,52.9c8.2,4.8,25.4,13,34.2,15
		C562.6,448.2,567.3,432.8,568.1,427.8z"/>
	<path class="st2" d="M460.1,365.1l-10.5-5.7c0,0-20.4-22.7-21.3-23.6S412,322.1,411,321.1s-8.6-10.9-8.6-10.9l-4.8,9.6l7.8,11.4
		l9.3,9.3l-23.7-4.4c0,0-35.7-10.4-36.3-9.2s-1.5,8.1-0.3,8.7s34.8,11.3,34.8,11.3s-42.5-5.9-42.8-3.8s-0.6,9.6,1.2,9.6
		s38,3.8,38,3.8s-38.6,2.8-38,4s3,8.4,3,8.4l37.8-1.3l-26.6,8.8c0,0,4.5,7.5,5.7,7.5s30.5-8.5,30.5-8.5s29.6,3.1,31.1,2.3
		c4.4-2.2,14.4,4.1,14.4,4.1L460.1,365.1z"/>
</g>
</svg>
