<svg id="Calque_1" data-name="Calque 1" xmlns="http://www.w3.org/2000/svg" viewBox="0 0 788 472.45"><defs><style>.cls-1{fill:#a85b3b;}.cls-2{fill:#5c1b00;}.cls-3{fill:#473415;}.cls-4{fill:#823f1d;}.cls-5{fill:#005f72;}</style></defs><path class="cls-1" d="M411.2,277.33c10.75,6.48,22.27,32.28,34.77,34.94,4.44,1,13.35-4.86,15.8-8.41,8.91-12.94,4.6-49.3,17.19-59.28,10.65-8.44,23.25-9.17,23.86-44.72.36-21.62-13.87-26.37-20.53-28.57a31.09,31.09,0,0,1-3.17-1.24l-40.53-18.61c-9.57-4.4-15.68-13.39-15.82-23.28l-.23-16.72-27,1.91-21.2-1.53-2.44,14.54c.09,11.18-9.59,21.07-20.4,26l-40.15,18.45s-19.41,7.17-19,31.8c.6,35.55,10.2,33.5,20.85,41.94,12.59,10,8.28,46.34,17.19,59.28,2.45,3.55,11.36,9.36,15.8,8.41,12.51-2.66,23.52-29.23,34.77-34.94C387.63,274,404.88,273.51,411.2,277.33Z"/><path class="cls-2" d="M397.45,79.63l25,3.7.23,46.26,1.27,5.84s-41.88,48.31-50,44.68c-6.75-3-14.84-32.5-14.84-32.5s6.9-5.59,9.58-17.13,1.07-47.15,1.07-47.15Z"/><path class="cls-1" d="M453.65,177.5c22.18-15.33,54.28-14.09,54.28-14.09s62.12-4,82.81-5.6c9.74-.77,30-2.69,32.78,19.78h0c2.26,18.52-16.65,23.65-25.89,25.23C578.84,206,540,208.88,522.32,215c-13.19,4.55-31.61,16.32-55,11,0,0-19.68-2.38-24.24-20.47l-.18-.71c-2.6-10.29,1.64-21,10.78-27.34Z"/><path class="cls-1" d="M586.3,198.83c-17.91-8-13.67-29.58-11.63-37.32s10.2-22.36,14.19-29.54c10.22-18.41,29.95-48.11,39.67-66.24,6.39-11.92,9.4-18.37,18.71-16.61,8.47,1.6,6.8,14.54,6.21,19.62-2.42,20.92-6.6,61.86-13,83.29-2.64,8.81-9.74,26.15-15.33,33.68C609.46,206.76,591.5,201.16,586.3,198.83Z"/><polygon class="cls-3" points="316.71 397.56 318.21 376.72 473.21 376.72 475.21 394.78 316.71 397.56"/><path class="cls-1" d="M336.88,179.6c-22.19-15.33-54.29-14.09-54.29-14.09s-62.12-4-82.8-5.61c-9.75-.76-30-2.69-32.78,19.78h0c-2.27,18.52,16.64,23.66,25.88,25.24,18.79,3.21,57.6,6.06,75.31,12.16,13.19,4.55,31.62,16.33,55,11,0,0,19.68-2.39,24.24-20.47l.18-.72c2.59-10.28-1.64-21-10.78-27.33Z"/><path class="cls-1" d="M204.22,200.93c17.91-8,13.67-29.58,11.63-37.32s-10.2-22.36-14.19-29.55C191.44,115.65,171.72,86,162,67.83c-6.39-11.92-9.4-18.37-18.71-16.62-8.47,1.6-6.8,14.55-6.21,19.63,2.42,20.92,6.6,61.85,13,83.29,2.64,8.8,9.75,26.15,15.34,33.67C181.06,208.86,199,203.26,204.22,200.93Z"/><path class="cls-1" d="M134.56,61.75a31.59,31.59,0,0,1-3.14-12.12L130,27.32a7.2,7.2,0,0,1,2-5.09h0a10.78,10.78,0,0,1,7.65-3.12l20.69-2.92c3.43-.08,5.11.72,6.59,3.35l-.55,6s1.87,8.2,2,5.75c.38-8.67,1.86-14.54,10-13.7L176.92,32c.12,1.18-1.2,3.57-1.84,4.59-2,3.21-3.39,10.65-5.44,13.17,0,0-10,9.45-11.08,11.71-1.14,2.43,1.23,5.6,1.23,5.6h0c-.73,5.24-6.32,8.66-11.82,7.24L139.21,72Z"/><path class="cls-4" d="M167,19.53,165.67,31.2l-7.89,12.11-8-1.23,1.29,1a9,9,0,0,1,3.69,8.42l-.52,4,4.86-9.1,2.59-1.71L168.81,31l-.33-6.14Z"/><path class="cls-1" d="M654.2,61.75a31.76,31.76,0,0,0,3.13-12.12l1.39-22.31a7.15,7.15,0,0,0-2-5.09h0a10.82,10.82,0,0,0-7.65-3.12l-20.7-2.92c-3.43-.08-5.11.72-6.58,3.35l.54,6s-1.87,8.2-2,5.75c-.38-8.67-1.85-14.54-10-13.7L611.83,32c-.11,1.18,1.21,3.57,1.84,4.59,2,3.21,3.4,10.65,5.45,13.17,0,0,10,9.45,11.07,11.71C631.33,63.85,629,67,629,67h0c.73,5.24,6.32,8.66,11.82,7.24L649.55,72Z"/><path class="cls-4" d="M621.79,19.53l1.29,11.67L631,43.31l8-1.23-1.29,1A9,9,0,0,0,634,51.47l.52,4-4.86-9.1-2.59-1.71L619.94,31l.34-6.14Z"/><path class="cls-5" d="M263.76,162.13l28,81.74s12.74,47.52,14.7,64.68c2.19,19.24,6.84,80.17,6.84,80.17l-1.35,25,170.26,4.07s-3.82-60.55-.53-99.59c1.48-17.55,14.92-70.06,14.92-70.06l29.06-86.39-68.45-2.7-59.12,30-59.12-32.54Z"/></svg>