<?xml version="1.0" encoding="utf-8"?>
<!-- Generator: Adobe Illustrator 26.0.0, SVG Export Plug-In . SVG Version: 6.00 Build 0)  -->
<svg version="1.1" id="Calque_1" xmlns="http://www.w3.org/2000/svg" xmlns:xlink="http://www.w3.org/1999/xlink" x="0px" y="0px"
	 viewBox="0 0 788 1005" style="enable-background:new 0 0 788 1005;" xml:space="preserve">
<style type="text/css">
	.st0{fill:#7A919E;}
	.st1{fill:#1A1818;}
	.st2{fill:#A85B3B;}
	.st3{fill:#5C1B00;}
	.st4{fill:#809C6B;}
	.st5{fill:#A85B3B;stroke:#000000;stroke-width:3;stroke-miterlimit:10;}
	.st6{fill:#687F54;}
	.st7{fill:#605B5B;}
	.st8{fill:#AABC9C;}
</style>
<g id="Calque_1_00000070098920485870659850000016034537576528617887_">
	<polygon class="st0" points="364.8,249.5 365.7,222.7 426.2,222.1 425.8,249.5 	"/>
	<polygon class="st1" points="230.3,514 230.2,514 230.2,514 	"/>
	<polygon points="230.4,514 230.4,514 230.3,514 	"/>
	<polygon class="st1" points="230.3,514 230.2,514 230.2,514 	"/>
	<polygon points="230.4,514 230.4,514 230.3,514 	"/>
	<path class="st2" d="M411.2,367.7c10.8,6.5,22.3,32.3,34.8,34.9c4.4,1,13.4-4.9,15.8-8.4c8.9-12.9,4.6-49.3,17.2-59.3
		c10.6-8.4,36.2-3.6,36.9-39.2c0.4-21.6-26.9-31.9-33.5-34.1c-1.1-0.3-2.1-0.8-3.2-1.2l-40.5-18.6c-9.6-4.4-15.7-13.4-15.8-23.3
		l-0.2-16.7l-27,1.9l-26.6-1.9l0.1,14.6c0.1,11.2-6.7,21.4-17.5,26.4l-40.1,18.4c0,0-35.4,10-35,34.6c0.6,35.5,26.2,30.7,36.9,39.2
		c12.6,10,8.3,46.3,17.2,59.3c2.5,3.6,11.4,9.4,15.8,8.4c12.5-2.7,23.5-29.2,34.8-34.9C387.6,364.3,404.9,363.8,411.2,367.7z"/>
	<polygon class="st2" points="397.5,196.8 422.5,200.5 423.5,254.2 396,284.3 368.8,254.2 369.8,200.5 	"/>
	<path class="st3" d="M397.5,170l25,3.7l0.2,46.2l1.3,5.8c0,0-41.9,48.3-50,44.7c-6.8-3-14.8-32.5-14.8-32.5s6.9-5.6,9.6-17.1
		s1.1-47.1,1.1-47.1L397.5,170z"/>
	<path class="st4" d="M458,302c11.9,23.1,40.9,35.9,40.9,35.9s53,30.3,70.4,40.7c8.2,4.9,25.2,15.4,39-3.3l0,0
		c11.3-15.4-2.8-28.1-10.2-33.5c-15-11-47.9-30.2-60.5-43.3c-9.4-9.7-23.3-31.6-46.7-37c0,0-15.1-2.9-28.2,11.1l-0.5,0.6
		C454.8,280.9,453.1,292.5,458,302z"/>
	<path class="st5" d="M325.8,277.4c17.8,19.6,18.2,49.4,18.2,49.4s7.8,57.2,10.7,76.2c1.4,9,4.6,27.6-19.5,31.4l0,0
		c-19.8,3.1-26.4-14-28.7-22.5c-4.5-17.2-9.8-52.9-17.4-68.9c-5.6-11.9-19.4-28.3-15-50.3c0,0,1.5-18.3,20.7-23.6l0.8-0.2
		C306.5,265.9,318.1,269.2,325.8,277.4L325.8,277.4z"/>
	<polygon class="st4" points="317.9,484.5 319.4,459.1 474.4,459.1 471.2,481.2 	"/>
	<path class="st4" d="M312.9,450.1l1.6-122.4L294,266.9l65-31.2l42.8,48.6l36.3-45.5l64.7,27.8l-10.4,93.6l-26.6,66.7l8.2,10
		c4.7,5.7,6,13.5,3.3,20.3l-2.7,6.8l-156.1,2.3l-3.6-7.7C313.5,455.9,312.9,453,312.9,450.1z"/>
	<path class="st6" d="M458.1,391.2l1.2,9.4l-8.6,5.3l1.1,2.9c-26.6,12.1-93,41.9-93.6,42.1c-1.6,0.5-10.8,4.4-16.1,4.4
		c-8.8,0-29.4-11.3-29.4-11.3s-2.1-12.9,0.2-12.4s123-42.5,125.8-41.9S458.1,391.2,458.1,391.2z"/>
	<path class="st7" d="M459.7,433l-15.8-124.3c-0.7-5.4,3.5-10.2,9.3-10.9l202.9-22.1c5.8-0.6,11.1,3.2,11.7,8.6l15.8,124.3
		c0.7,5.4-3.5,10.2-9.3,10.9l-202.9,22.1C465.6,442.2,460.4,438.4,459.7,433z"/>
	<path class="st2" d="M670.6,429.1l-7.6-15c-1.5-3-0.2-6.7,2.8-8.1c0.2-0.1,0.3-0.1,0.5-0.2l0,0c3.3-1.5,7.2-0.2,9,3l6.6,13
		c1.5,3,0.2,6.7-2.8,8.2c-0.2,0.1-0.3,0.1-0.5,0.2l-2.2,1C674.2,432,671.7,431.1,670.6,429.1z"/>
	<path class="st2" d="M607.7,426.6l40.5-6.2l-2.1,19.4c-0.3,2-2.2,3.3-4.2,3c-0.1,0-0.2,0-0.4-0.1l-9.6-2.2c-6.2-1.4-12-4.2-17-8.2
		L607.7,426.6z"/>
	<path class="st2" d="M637.2,439.1l-5.7-11.2c-3.9-7.8-0.3-17.1,8.1-20.7l2-0.9c8-3.5,17.4-0.3,21.2,7.1l5.1,10
		c2.4,4.7,0.2,10.3-4.9,12.5l-15.4,6.7C643.7,444.3,639.2,442.8,637.2,439.1z"/>
	<path class="st2" d="M451.8,368.9l13,18.6l11.5-2.1l24.2-3.5c5.9-0.7,10.9-4.6,13.2-10.1l6.7-17.8l29.8-4.1c4-0.5,7.1-3.8,7.3-7.8
		V341l-34.9,2.4l1.9-4.6l-17.7,0.3l-10.4,0c-5.6,0-11.1,1.5-16,4.2l-9.4,5.3c-2,2-2.6,3-6.4,7.8l-5.4,6.9"/>
	<path class="st2" d="M310.7,415.6c-3.8-18.1,17.3-27.9,25.2-31s25.4-5.9,34-7.3c22-3.5,59.5-6.8,81-10.5
		c14.1-2.4,21.5-4.1,25.6,3.9c3.7,7.2-4.1,12.7-8.9,15.3c-19.5,10.8-61.6,33.4-84,41.5c-9.2,3.3-28.4,8.5-38.3,8.9
		C317.8,437.5,311.8,420.8,310.7,415.6z"/>
	<path class="st4" d="M320.1,256.6c0,0-43.2,15.1-50.8,24.4c-7.3,8.9-3.1,45.3-3.1,45.3s16.6,87.1,37.8,107.4
		c5,4.8,22.4,9.2,31.4,11.2c3.4,0.8,7,0.5,10.2-0.9l100.9-42.3l-8.5-37l-91.1,11l-18-62.6"/>
	<polygon class="st8" points="355.7,239.7 365.7,222.7 393.4,265.8 377.4,288.4 	"/>
	<polygon class="st8" points="440.1,241.4 426.2,222.1 405.5,265.1 424.2,286.7 	"/>
	<polygon class="st6" points="393.4,265.8 401.5,284.3 390.5,275.9 377.4,288.4 	"/>
	<polygon class="st6" points="401.5,284.3 405.5,265.1 424.2,286.7 410.8,276.9 	"/>
</g>
</svg>
