<svg xmlns="http://www.w3.org/2000/svg" xmlns:xlink="http://www.w3.org/1999/xlink" viewBox="0 0 788 472.45"><defs><style>.cls-1,.cls-13,.cls-20{fill:none;}.cls-2{fill:#7a919e;}.cls-3{fill:#1a1818;}.cls-4,.cls-7{fill:#a85b3b;}.cls-5{fill:#5c1b00;}.cls-6{fill:#809c6b;}.cls-18,.cls-20,.cls-22,.cls-7{stroke:#000;}.cls-13,.cls-18,.cls-20,.cls-22,.cls-7{stroke-miterlimit:10;}.cls-7{stroke-width:3px;}.cls-8{fill:#687f54;}.cls-9{fill:#605b5b;}.cls-10{fill:#aabc9c;}.cls-11{fill:#26130c;}.cls-12{clip-path:url(#clip-path);}.cls-13{stroke:#9e5b3e;}.cls-13,.cls-20,.cls-22{stroke-linecap:round;}.cls-13,.cls-20{stroke-width:2px;}.cls-14{clip-path:url(#clip-path-2);}.cls-15{clip-path:url(#clip-path-3);}.cls-16{clip-path:url(#clip-path-4);}.cls-17{fill:#fff;}.cls-18{fill:#080808;}.cls-19{clip-path:url(#clip-path-5);}.cls-21{clip-path:url(#clip-path-6);}.cls-22{fill:#0a0a0a;}</style><clipPath id="clip-path"><rect class="cls-1" x="407.44" y="104.82" width="18.62" height="5.29"/></clipPath><clipPath id="clip-path-2"><rect class="cls-1" x="362.93" y="104.82" width="18.62" height="5.29"/></clipPath><clipPath id="clip-path-3"><polygon class="cls-1" points="429.72 86.69 429.72 86.69 446.06 86.69 446.06 119.63 429.72 119.63 429.72 86.69"/></clipPath><clipPath id="clip-path-4"><polygon class="cls-1" points="358.28 86.69 358.28 86.69 341.94 86.69 341.94 119.63 358.28 119.63 358.28 86.69"/></clipPath><clipPath id="clip-path-5"><rect class="cls-1" x="402.57" y="79.88" width="22.15" height="6.68"/></clipPath><clipPath id="clip-path-6"><rect class="cls-1" x="363.28" y="79.88" width="22.15" height="6.68"/></clipPath></defs><g id="Calque_1" data-name="Calque 1"><polygon class="cls-2" points="364.84 159.13 365.7 132.37 426.18 131.78 425.84 159.13 364.84 159.13"/><polygon class="cls-3" points="230.32 423.68 230.22 423.72 230.22 423.63 230.32 423.68"/><polygon points="230.42 423.63 230.42 423.72 230.32 423.68 230.42 423.63"/><polygon class="cls-3" points="230.32 423.68 230.22 423.72 230.22 423.63 230.32 423.68"/><polygon points="230.42 423.63 230.42 423.72 230.32 423.68 230.42 423.63"/><path class="cls-4" d="M411.2,277.33c10.75,6.48,22.27,32.28,34.77,34.94,4.44,1,13.35-4.86,15.8-8.41,8.91-12.94,4.6-49.3,17.19-59.28,10.65-8.44,36.25-3.61,36.86-39.17.36-21.61-26.87-31.92-33.53-34.12a31.09,31.09,0,0,1-3.17-1.24l-40.53-18.61c-9.57-4.4-15.68-13.39-15.82-23.28l-.23-16.72-27,1.91L369,111.43l.11,14.57c.09,11.18-6.72,21.43-17.53,26.39l-40.15,18.45s-35.41,9.94-35,34.57c.6,35.56,26.2,30.73,36.85,39.17,12.59,10,8.28,46.34,17.19,59.28,2.45,3.55,11.36,9.36,15.8,8.41,12.51-2.66,23.52-29.23,34.77-34.94C387.63,274,404.88,273.51,411.2,277.33Z"/><polygon class="cls-4" points="397.45 106.49 422.45 110.19 423.45 163.91 395.95 194 368.76 163.91 369.76 110.19 397.45 106.49"/><path class="cls-5" d="M397.45,79.63l25,3.7.23,46.26,1.27,5.84s-41.88,48.31-50,44.68c-6.75-3-14.84-32.5-14.84-32.5s6.9-5.59,9.58-17.13,1.07-47.15,1.07-47.15Z"/><path class="cls-6" d="M458,211.64c11.9,23.15,40.93,35.91,40.93,35.91s53,30.34,70.43,40.71c8.23,4.89,25.21,15.35,39-3.34h0c11.33-15.41-2.81-28.11-10.19-33.5-15-11-47.9-30.23-60.5-43.28-9.38-9.73-23.29-31.58-46.67-37,0,0-15.07-2.91-28.21,11.12l-.52.56A25,25,0,0,0,458,211.64Z"/><path class="cls-7" d="M325.81,187.05c17.78,19.65,18.25,49.4,18.25,49.4s7.78,57.22,10.69,76.25c1.38,9,4.59,27.62-19.48,31.42h0c-19.84,3.14-26.43-14.06-28.66-22.51-4.52-17.2-9.77-52.92-17.35-69-5.64-11.95-19.37-28.32-15-50.27,0,0,1.47-18.33,20.71-23.57l.76-.2a30.09,30.09,0,0,1,30.07,8.43Z"/><polygon class="cls-6" points="317.86 394.17 319.36 368.82 474.36 368.82 471.23 390.9 317.86 394.17"/><path class="cls-6" d="M312.9,359.77l1.63-122.41L294,176.54l65-31.18L401.79,194l36.33-45.53,64.66,27.76L492.34,269.8l-26.6,66.74,8.18,10a20.12,20.12,0,0,1,3.27,20.33l-2.7,6.79L318.36,376l-3.62-7.72A19.3,19.3,0,0,1,312.9,359.77Z"/><path class="cls-8" d="M458.07,300.87l1.2,9.41-8.56,5.32,1.12,2.85c-26.65,12.12-93,41.91-93.59,42.13-1.59.54-10.8,4.42-16.08,4.42-8.8,0-29.36-11.26-29.36-11.26s-2.15-12.91.16-12.39,123-42.54,125.81-41.9S458.07,300.87,458.07,300.87Z"/><path class="cls-9" d="M459.7,342.69,443.88,218.36c-.68-5.38,3.47-10.24,9.27-10.88l202.93-22.13c5.8-.63,11.06,3.21,11.74,8.58l15.81,124.33c.68,5.38-3.47,10.25-9.27,10.88L471.44,351.27C465.64,351.9,460.38,348.06,459.7,342.69Z"/><path class="cls-4" d="M670.62,338.78l-7.61-15a6.11,6.11,0,0,1,3.27-8.37h0a7,7,0,0,1,9,3l6.56,12.94a6.1,6.1,0,0,1-3.26,8.37l-2.24,1A4.48,4.48,0,0,1,670.62,338.78Z"/><path class="cls-4" d="M607.73,336.29l40.46-6.17-2.09,19.39a3.64,3.64,0,0,1-4.53,3l-9.54-2.2A42.72,42.72,0,0,1,615,342.06Z"/><path class="cls-4" d="M637.16,348.82l-5.69-11.22c-3.94-7.79-.32-17.07,8.09-20.72l2-.85c8-3.46,17.43-.29,21.16,7.07l5.08,10c2.37,4.68.2,10.26-4.86,12.46l-15.39,6.68A8.06,8.06,0,0,1,637.16,348.82Z"/><path class="cls-4" d="M451.83,278.55l13,18.6,11.45-2.09,24.17-3.46a16.38,16.38,0,0,0,13.16-10.14l6.73-17.82,29.79-4.08a8.25,8.25,0,0,0,7.28-7.84l0-1.12L522.51,253l1.88-4.6-17.72.28-10.39.05a32.92,32.92,0,0,0-16,4.23l-9.44,5.3c-2,2-2.65,3-6.43,7.79L459,272.93"/><path class="cls-4" d="M310.73,325.24c-3.84-18.08,17.3-27.9,25.21-31.05s25.41-5.89,34-7.26c22-3.51,59.51-6.77,81-10.47,14.13-2.43,21.51-4.09,25.59,3.85,3.71,7.24-4.14,12.69-8.88,15.31-19.51,10.78-61.65,33.4-84,41.54-9.18,3.34-28.42,8.51-38.27,8.9C317.81,347.15,311.84,330.49,310.73,325.24Z"/><path class="cls-6" d="M320.12,166.29s-43.2,15.12-50.82,24.37C262,199.53,266.2,236,266.2,236S282.82,323.1,304,343.4c5,4.77,22.43,9.2,31.35,11.21a16.77,16.77,0,0,0,10.17-.88l100.86-42.27-8.46-37-91.14,11-18-62.58"/><polygon class="cls-10" points="355.72 149.38 365.7 132.37 393.37 175.43 377.44 198.03 355.72 149.38"/><polygon class="cls-10" points="440.1 151.09 426.18 131.78 405.49 174.73 424.19 196.33 440.1 151.09"/><polygon class="cls-8" points="393.37 175.43 401.54 194 390.52 185.58 377.44 198.03 393.37 175.43"/><polygon class="cls-8" points="401.54 194 405.49 174.73 424.19 196.33 410.81 186.56 401.54 194"/><path class="cls-4" d="M383.24,164.61l-22.63-24.42-5.5-27L353.61,89V82.61a38.91,38.91,0,0,1,38.92-38.92H394a38.92,38.92,0,0,1,38.92,38.92V89l-1.5,24.19-5.5,27.05-22.64,24.42Z"/><path class="cls-11" d="M429.63,58.89c12,10.39,6.63,29.46,6.63,29.46l-3.92,10.84s.84-5.33-6.19-20.34c-1.66-3.54,1.87-13-.23-16.63-4.64-7.89-9.35-11.06-9.35-11.06S421.57,51.89,429.63,58.89Z"/><path class="cls-11" d="M356.88,58.55c-12,10.22-6.62,29-6.62,29l3.91,10.66s-.84-5.24,6.19-20c1.66-3.48-1.87-12.83.23-16.35,4.64-7.77,9.35-10.89,9.35-10.89S364.94,51.66,356.88,58.55Z"/><g class="cls-12"><path class="cls-13" d="M408.44,106.54s4.6,2.55,8.31,2.57a13.1,13.1,0,0,0,8.31-3.29"/></g><g class="cls-14"><path class="cls-13" d="M380.55,106.54s-4.6,2.55-8.31,2.57a13.13,13.13,0,0,1-8.31-3.29"/></g><path class="cls-11" d="M355,91.65s-.57-12.55.87-16.42c2-5.38,6.09-14.62,11.65-16.57,5.92-2.08,21.11,1.5,27.41,1.6,5.94.09,18-4.58,23.59-2.66,3.55,1.22,8,7.94,9.61,11.23,2.9,5.92,5.24,25.71,5.24,25.71s3.55-18.42,2-25.14C434,63.48,425.67,50.58,420.63,47s-18.09-5.4-24.33-6-19.21.79-25,3.26c-5.45,2.34-13.87,11.31-16.85,16.3-1.81,3-3.84,10-3.74,13.52C350.87,78.54,355,91.65,355,91.65Z"/><g id="_Répétition_miroir_" data-name="&lt;Répétition miroir&gt;"><g class="cls-15"><path class="cls-4" d="M429.72,119.62l3-28.25s6.56-7.83,12.25-3.25c3.78,3-3.13,28.23-7.5,29.5C430,119.81,429.72,119.62,429.72,119.62Z"/></g></g><g id="_Répétition_miroir_2" data-name="&lt;Répétition miroir&gt;"><g class="cls-16"><path class="cls-4" d="M358.28,119.62l-3-28.25s-6.56-7.83-12.25-3.25c-3.78,3,3.13,28.23,7.5,29.5C358,119.81,358.28,119.62,358.28,119.62Z"/></g></g></g><g id="Calque_5" data-name="Calque 5"><circle class="cls-17" cx="410.78" cy="96.79" r="6.75"/><circle class="cls-17" cx="375.92" cy="96.79" r="6.75"/><circle class="cls-18" cx="378" cy="96.93" r="4"/><circle class="cls-18" cx="412.94" cy="96.93" r="4"/><g class="cls-19"><path class="cls-20" d="M403.57,84.17a14.87,14.87,0,0,1,20.15,1.39"/></g><g class="cls-21"><path class="cls-20" d="M384.43,84.17a14.87,14.87,0,0,0-20.15,1.39"/></g><path class="cls-5" d="M401.89,119s-4.69,3.69-7.42,3.68-7-3.59-7-3.59,5.4.73,7.21.72S401.89,119,401.89,119Z"/><ellipse class="cls-22" cx="394.31" cy="138.48" rx="2.88" ry="4.5"/><path class="cls-11" d="M377.5,132.08c.12-3.33,9.84-7.1,18.56-6,8.9,1.17,16.41,7.4,15.76,9.1-.45,1.2-5.2.83-8.75-.35-5.15-1.69-5.14-4.18-8.41-4.55-5.71-.64-7.76,5-12.66,3.65C380.24,133.49,377.46,133.54,377.5,132.08Z"/></g></svg>