<svg id="Calque_1" data-name="Calque 1" xmlns="http://www.w3.org/2000/svg" viewBox="0 0 788 472.45"><defs><style>.cls-1{fill:#1a1818;}.cls-2{fill:#a85b3b;}.cls-3{fill:#5c1b00;}.cls-4,.cls-5{fill:none;}.cls-4{stroke:#000;stroke-miterlimit:10;stroke-width:3px;}.cls-6{fill:#46455b;}.cls-7{fill:#37344d;}</style></defs><polygon class="cls-1" points="230.32 423.68 230.22 423.72 230.22 423.63 230.32 423.68"/><polygon points="230.42 423.63 230.42 423.72 230.32 423.68 230.42 423.63"/><polygon class="cls-1" points="230.32 423.68 230.22 423.72 230.22 423.63 230.32 423.68"/><polygon points="230.42 423.63 230.42 423.72 230.32 423.68 230.42 423.63"/><path class="cls-2" d="M411.2,277.33c10.75,6.48,22.27,32.28,34.77,34.94,4.44,1,13.35-4.86,15.8-8.41,8.91-12.94,4.6-49.3,17.19-59.28,10.65-8.44,36.25-3.61,36.86-39.17.36-21.61-26.87-31.92-33.53-34.12a31.09,31.09,0,0,1-3.17-1.24l-40.53-18.61c-9.57-4.4-15.68-13.39-15.82-23.28l-.23-16.72-27,1.91-20.86,14.58L369.07,126c.09,11.18-6.72,21.43-17.53,26.39l-40.15,18.45s-35.41,9.94-35,34.57c.6,35.56,26.2,30.73,36.85,39.17,12.59,10,8.28,46.34,17.19,59.28,2.45,3.55,11.36,9.36,15.8,8.41,12.51-2.66,23.52-29.23,34.77-34.94C387.63,274,404.88,273.51,411.2,277.33Z"/><polygon class="cls-2" points="397.45 106.49 422.45 110.19 423.45 163.91 395.95 194 368.76 163.91 374.48 123.72 397.45 106.49"/><path class="cls-3" d="M397.45,79.63l25,3.7.23,46.26,1.27,5.84s-41.88,48.31-50,44.68c-6.75-3-14.84-31.29-14.84-31.29s8.92-7.1,9.94-25.45c.67-12,.71-40,.71-40Z"/><path class="cls-4" d="M458,211.64c11.9,23.15,40.93,35.91,40.93,35.91s53,30.34,70.43,40.71c8.23,4.89,25.21,15.35,39-3.34h0c11.33-15.41-2.81-28.11-10.19-33.5-15-11-47.9-30.23-60.5-43.28-9.38-9.73-19.75-28.1-43.13-33.53,0,0-18.61-6.39-31.75,7.64l-.52.56A25,25,0,0,0,458,211.64Z"/><path class="cls-2" d="M594.25,253.5c-18.55-6.64-32.67,10.93-37.39,17.6s-10.68,22.16-13.63,29.77c-7.55,19.48-17.52,53.1-25.19,72.05-5,12.47-8.09,18.9-.35,24,7,4.64,16.13-5.32,19.74-9.19,14.85-15.92,44.3-46.69,56.84-65.66,5.14-7.8,14-24.44,16.11-33.36C616.32,263.76,599.65,255.43,594.25,253.5Z"/><path class="cls-4" d="M465.74,355.91c-.88-3.71-5.67-23.4-5.62-31.33.06-8.49,4-25.66,1.81-33.94-9.77-36.66-123.54-36.73-133.32,0-2.21,8.28,1.74,25.45,1.8,33.94.06,7.93-4.73,27.62-5.62,31.33-11,46.61,70.35,68,70.35,68S476.78,402.52,465.74,355.91Z"/><path class="cls-5" d="M434.32,342.16c16.16,4.84,23.2,8.92,27,15.34,3.11,5.2,6,17.12,6.27,23.06.55,13.95-7.77,49-21.92,60.73-14.41,11.91-84.8,11.91-99.2,0-14.16-11.7-22.47-46.78-21.93-60.73.23-5.94,3.16-17.86,6.27-23.06,3.84-6.42,10.89-10.5,27-15.34,18.49-5.54,37.3-4.66,37.3-4.66S415.83,336.62,434.32,342.16Z"/><path class="cls-2" d="M216.11,312.06c19.9-.14,26.06-21.29,27.8-29.09s1.15-24.25.87-32.33c-.7-20.69-4.75-55.35-5.14-75.58-.25-13.31,0-20.34-9.2-22.45-8.39-1.92-12.88,10.43-14.71,15.26-7.5,19.86-22.69,58.49-26.82,80.41-1.7,9-3.32,27.48-1.76,36.5C191.52,310,210.33,312.1,216.11,312.06Z"/><path class="cls-4" d="M335.35,211.91c-8.54,24.38-35.52,40.54-35.52,40.54s-48.23,36.48-64.1,48.87c-7.47,5.84-22.83,18.27-39.09,1.4h0c-13.4-13.91-1.17-28.22,5.39-34.45,13.33-12.68,43.23-35.76,53.88-50.22,7.93-10.77,15.63-30.24,38-38.45,0,0,17.56-8.58,32.56,3.74l.59.49c8.53,7,11.77,18,8.25,28.08Z"/><path class="cls-6" d="M422.65,123.37s3.06,19.92,11.59,24.78c7,4,39.18,19.4,61.18,24.78,34.89,8.53,70.82,59.07,109.85,81.1,7.29,4.11,8.89,19.12,8.48,24.68C613,289,603.56,307.05,598,317.43c-10.71,20.06-51.1,68.45-51.1,68.45l-2.53,3.64A8.44,8.44,0,0,1,532.14,391L518.82,379.5a9.82,9.82,0,0,1-2.31-12.41l7.63-13.5,26.53-73.85L483,242.84,472.7,304.43l17.7,109L477.1,432.9l-168.78.36-6.69-13.46,14.9-118.06-6.88-52.33s-51.92,40-68.21,52.31c-6.63,5-25.81,15-34.19,13.44-8-1.48-19-13.43-21.24-20.14-3.45-10.15-2.81-32.09-.72-42.55,3.34-16.77,16.8-59.56,21.63-74.74a6.89,6.89,0,0,1,7.77-4.43l26.06,4.33a4.38,4.38,0,0,1,3.76,4.18l.06,46.77s24.89-39.1,38.33-46.05c31.52-16.3,70.74-30.89,76.21-34.92,7.48-5.52,9.94-24.24,9.94-24.24"/><path class="cls-2" d="M520.87,393.56c2,3,3.07,8.37-3,13.74,0,0-17.64,18.73-25.41,22.54-3.47,1.71-12.79,5.8-15.37,3.06-7.33-7.77-12.07-26.5-9.73-38.64.71-3.65,9.41-7.46,13.34-8.17,4.31-.78,13,2.43,17.34,2.57a71.46,71.46,0,0,0,7.18-.36C511.15,387.79,518.1,389.52,520.87,393.56Z"/><polygon class="cls-2" points="511.11 382.05 506.97 388.24 510.34 399.81 514.31 411 519.9 405.42 530.05 398.91 511.11 382.05"/><polygon class="cls-7" points="508.4 386.06 517.72 371.47 538.19 391.76 526.94 403.55 508.4 386.06"/><path class="cls-2" d="M228.62,161.1c-3-1.67-6.47-6-4.42-13.46,0,0,4.45-24.54,8.59-31.46,1.85-3.09,7-11,10.38-9.72,9.48,3.46,22.32,17.77,26.46,29.52,1.24,3.53-3.62,10.87-6.3,13.29-2.95,2.66-11.2,3.8-14.67,5.68a57.25,57.25,0,0,0-5.37,3.61C239,161.71,232.75,163.38,228.62,161.1Z"/><polygon class="cls-3" points="241.81 166.75 241.97 159.41 233.69 150.77 225.14 142.76 223.56 150.22 218.91 160.6 241.81 166.75"/><polygon class="cls-7" points="242.15 163.31 242.5 178.53 211.65 173.86 218.55 157.58 242.15 163.31"/></svg>