<svg xmlns="http://www.w3.org/2000/svg" xmlns:xlink="http://www.w3.org/1999/xlink" viewBox="0 0 788 1005"><defs><style>.cls-1,.cls-13,.cls-20{fill:none;}.cls-2{fill:#7a919e;}.cls-3{fill:#1a1818;}.cls-4,.cls-7{fill:#a85b3b;}.cls-5{fill:#5c1b00;}.cls-6{fill:#809c6b;}.cls-18,.cls-20,.cls-22,.cls-7{stroke:#000;}.cls-13,.cls-18,.cls-20,.cls-22,.cls-7{stroke-miterlimit:10;}.cls-7{stroke-width:3px;}.cls-8{fill:#687f54;}.cls-9{fill:#605b5b;}.cls-10{fill:#aabc9c;}.cls-11{fill:#26130c;}.cls-12{clip-path:url(#clip-path);}.cls-13{stroke:#9e5b3e;}.cls-13,.cls-20,.cls-22{stroke-linecap:round;}.cls-13,.cls-20{stroke-width:2px;}.cls-14{clip-path:url(#clip-path-2);}.cls-15{clip-path:url(#clip-path-3);}.cls-16{clip-path:url(#clip-path-4);}.cls-17{fill:#fff;}.cls-18{fill:#080808;}.cls-19{clip-path:url(#clip-path-5);}.cls-21{clip-path:url(#clip-path-6);}.cls-22{fill:#0a0a0a;}</style><clipPath id="clip-path"><rect class="cls-1" x="407.44" y="195.15" width="18.62" height="5.29"/></clipPath><clipPath id="clip-path-2"><rect class="cls-1" x="362.93" y="195.15" width="18.62" height="5.29"/></clipPath><clipPath id="clip-path-3"><polygon class="cls-1" points="429.72 177.02 429.72 177.02 446.06 177.02 446.06 209.96 429.72 209.96 429.72 177.02"/></clipPath><clipPath id="clip-path-4"><polygon class="cls-1" points="358.28 177.02 358.28 177.02 341.94 177.02 341.94 209.96 358.28 209.96 358.28 177.02"/></clipPath><clipPath id="clip-path-5"><rect class="cls-1" x="402.57" y="170.22" width="22.15" height="6.68"/></clipPath><clipPath id="clip-path-6"><rect class="cls-1" x="363.28" y="170.22" width="22.15" height="6.68"/></clipPath></defs><g id="Calque_1" data-name="Calque 1"><polygon class="cls-2" points="364.84 249.46 365.7 222.7 426.18 222.11 425.84 249.46 364.84 249.46"/><polygon class="cls-3" points="230.32 514.01 230.22 514.05 230.22 513.97 230.32 514.01"/><polygon points="230.42 513.97 230.42 514.05 230.32 514.01 230.42 513.97"/><polygon class="cls-3" points="230.32 514.01 230.22 514.05 230.22 513.97 230.32 514.01"/><polygon points="230.42 513.97 230.42 514.05 230.32 514.01 230.42 513.97"/><path class="cls-4" d="M411.2,367.66C422,374.15,433.47,399.94,446,402.6c4.44.95,13.35-4.85,15.8-8.41,8.91-12.94,4.6-49.3,17.19-59.28,10.65-8.44,36.25-3.61,36.86-39.16.36-21.62-26.87-31.93-33.53-34.13a27,27,0,0,1-3.17-1.24l-40.53-18.61c-9.57-4.4-15.68-13.39-15.82-23.28l-.23-16.72-27,1.91L369,201.76l.11,14.57c.09,11.18-6.72,21.43-17.53,26.4l-40.15,18.44s-35.41,9.95-35,34.58c.6,35.55,26.2,30.72,36.85,39.16,12.59,10,8.28,46.34,17.19,59.28,2.45,3.56,11.36,9.36,15.8,8.41,12.51-2.66,23.52-29.23,34.77-34.94C387.63,364.3,404.88,363.84,411.2,367.66Z"/><polygon class="cls-4" points="397.45 196.82 422.45 200.52 423.45 254.24 395.95 284.34 368.76 254.24 369.76 200.52 397.45 196.82"/><path class="cls-5" d="M397.45,170l25,3.71.23,46.25,1.27,5.84s-41.88,48.32-50,44.68c-6.75-3-14.84-32.5-14.84-32.5s6.9-5.59,9.58-17.13,1.07-47.14,1.07-47.14Z"/><path class="cls-6" d="M458,302c11.9,23.15,40.93,35.91,40.93,35.91s53,30.34,70.43,40.71c8.23,4.89,25.21,15.35,39-3.34h0c11.33-15.41-2.81-28.11-10.19-33.5-15-11-47.9-30.23-60.5-43.28-9.38-9.72-23.29-31.57-46.67-37,0,0-15.07-2.91-28.21,11.12l-.52.56A25,25,0,0,0,458,302Z"/><path class="cls-7" d="M325.81,277.38c17.78,19.65,18.25,49.4,18.25,49.4S351.84,384,354.75,403c1.38,9,4.59,27.62-19.48,31.42h0c-19.84,3.14-26.43-14.05-28.66-22.51-4.52-17.2-9.77-52.92-17.35-68.95-5.64-11.94-19.37-28.32-15-50.27,0,0,1.47-18.33,20.71-23.56l.76-.21a30.09,30.09,0,0,1,30.07,8.43Z"/><polygon class="cls-6" points="317.86 484.5 319.36 459.15 474.36 459.15 471.23 481.23 317.86 484.5"/><path class="cls-6" d="M312.9,450.1l1.63-122.41L294,266.88l65-31.19,42.81,48.65,36.33-45.53,64.66,27.75-10.44,93.57-26.6,66.74,8.18,10a20.09,20.09,0,0,1,3.27,20.32l-2.7,6.79-156.13,2.3-3.62-7.73A19.3,19.3,0,0,1,312.9,450.1Z"/><path class="cls-8" d="M458.07,391.2l1.2,9.41-8.56,5.32,1.12,2.85c-26.65,12.12-93,41.92-93.59,42.13-1.59.54-10.8,4.42-16.08,4.42-8.8,0-29.36-11.26-29.36-11.26s-2.15-12.91.16-12.39,123-42.54,125.81-41.9S458.07,391.2,458.07,391.2Z"/><path class="cls-9" d="M459.7,433,443.88,308.69c-.68-5.37,3.47-10.24,9.27-10.88l202.93-22.13c5.8-.63,11.06,3.21,11.74,8.59L683.63,408.6c.68,5.37-3.47,10.24-9.27,10.87L471.44,441.6C465.64,442.24,460.38,438.39,459.7,433Z"/><path class="cls-4" d="M670.62,429.11l-7.61-15a6.09,6.09,0,0,1,3.27-8.36h0a7,7,0,0,1,9,3l6.56,12.95a6.09,6.09,0,0,1-3.26,8.36l-2.24,1A4.48,4.48,0,0,1,670.62,429.11Z"/><path class="cls-4" d="M607.73,426.62l40.46-6.17-2.09,19.4a3.64,3.64,0,0,1-4.53,2.95L632,440.6A42.59,42.59,0,0,1,615,432.39Z"/><path class="cls-4" d="M637.16,439.15l-5.69-11.22c-3.94-7.79-.32-17.06,8.09-20.72l2-.85c8-3.46,17.43-.29,21.16,7.07l5.08,10c2.37,4.68.2,10.26-4.86,12.46l-15.39,6.68A8.06,8.06,0,0,1,637.16,439.15Z"/><path class="cls-4" d="M451.83,368.88l13,18.6,11.45-2.08,24.17-3.47a16.38,16.38,0,0,0,13.16-10.14L520.34,354l29.79-4.07a8.26,8.26,0,0,0,7.28-7.84l0-1.13-34.92,2.35,1.88-4.6-17.72.28-10.39.05a32.92,32.92,0,0,0-16,4.23l-9.44,5.3c-2,2-2.65,2.95-6.43,7.79L459,363.26"/><path class="cls-4" d="M310.73,415.57c-3.84-18.08,17.3-27.9,25.21-31s25.41-5.9,34-7.27c22-3.51,59.51-6.77,81-10.47,14.13-2.43,21.51-4.09,25.59,3.86,3.71,7.23-4.14,12.68-8.88,15.3-19.51,10.78-61.65,33.4-84,41.54-9.18,3.34-28.42,8.51-38.27,8.9C317.81,437.48,311.84,420.82,310.73,415.57Z"/><path class="cls-6" d="M320.12,256.62S276.92,271.74,269.3,281c-7.31,8.87-3.1,45.32-3.1,45.32S282.82,413.43,304,433.73c5,4.77,22.43,9.2,31.35,11.21a16.77,16.77,0,0,0,10.17-.88L446.41,401.8l-8.46-37-91.14,11-18-62.59"/><polygon class="cls-10" points="355.72 239.71 365.7 222.7 393.37 265.76 377.44 288.36 355.72 239.71"/><polygon class="cls-10" points="440.1 241.43 426.18 222.11 405.49 265.06 424.19 286.66 440.1 241.43"/><polygon class="cls-8" points="393.37 265.76 401.54 284.34 390.52 275.92 377.44 288.36 393.37 265.76"/><polygon class="cls-8" points="401.54 284.34 405.49 265.06 424.19 286.66 410.81 276.9 401.54 284.34"/><path class="cls-4" d="M383.24,254.94l-22.63-24.42-5.5-27-1.5-24.2v-6.34A38.91,38.91,0,0,1,392.53,134H394a38.92,38.92,0,0,1,38.92,38.92v6.34l-1.5,24.2-5.5,27-22.64,24.42Z"/><path class="cls-11" d="M429.63,149.22c12,10.39,6.63,29.47,6.63,29.47l-3.92,10.83s.84-5.33-6.19-20.34c-1.66-3.54,1.87-13-.23-16.62-4.64-7.9-9.35-11.07-9.35-11.07S421.57,142.22,429.63,149.22Z"/><path class="cls-11" d="M356.88,148.88c-12,10.22-6.62,29-6.62,29l3.91,10.66s-.84-5.24,6.19-20c1.66-3.48-1.87-12.82.23-16.35,4.64-7.77,9.35-10.89,9.35-10.89S364.94,142,356.88,148.88Z"/><g class="cls-12"><path class="cls-13" d="M408.44,196.87s4.6,2.56,8.31,2.57a13,13,0,0,0,8.31-3.29"/></g><g class="cls-14"><path class="cls-13" d="M380.55,196.87s-4.6,2.56-8.31,2.57a13.07,13.07,0,0,1-8.31-3.29"/></g><path class="cls-11" d="M355,182s-.57-12.55.87-16.42c2-5.38,6.09-14.61,11.65-16.57,5.92-2.08,21.11,1.51,27.41,1.6,5.94.09,18-4.58,23.59-2.66,3.55,1.22,8,7.94,9.61,11.23,2.9,5.92,5.24,25.71,5.24,25.71s3.55-18.42,2-25.14c-1.38-5.92-9.68-18.82-14.72-22.42s-18.09-5.4-24.33-6-19.21.79-25,3.25c-5.45,2.34-13.87,11.31-16.85,16.3-1.81,3-3.84,10-3.74,13.52C350.87,168.88,355,182,355,182Z"/><g id="_Répétition_miroir_" data-name="&lt;Répétition miroir&gt;"><g class="cls-15"><path class="cls-4" d="M429.72,210l3-28.25s6.56-7.84,12.25-3.25c3.78,3-3.13,28.22-7.5,29.5C430,210.14,429.72,210,429.72,210Z"/></g></g><g id="_Répétition_miroir_2" data-name="&lt;Répétition miroir&gt;"><g class="cls-16"><path class="cls-4" d="M358.28,210l-3-28.25s-6.56-7.84-12.25-3.25c-3.78,3,3.13,28.22,7.5,29.5C358,210.14,358.28,210,358.28,210Z"/></g></g></g><g id="Calque_5" data-name="Calque 5"><circle class="cls-17" cx="410.78" cy="187.12" r="6.75"/><circle class="cls-17" cx="375.92" cy="187.12" r="6.75"/><circle class="cls-18" cx="378" cy="187.26" r="4"/><circle class="cls-18" cx="412.94" cy="187.26" r="4"/><g class="cls-19"><path class="cls-20" d="M403.57,174.5a14.87,14.87,0,0,1,20.15,1.39"/></g><g class="cls-21"><path class="cls-20" d="M384.43,174.5a14.87,14.87,0,0,0-20.15,1.39"/></g><path class="cls-5" d="M401.89,209.35S397.2,213,394.47,213s-7-3.6-7-3.6,5.4.73,7.21.72S401.89,209.35,401.89,209.35Z"/><ellipse class="cls-22" cx="394.31" cy="228.81" rx="2.88" ry="4.5"/><path class="cls-11" d="M377.5,222.41c.12-3.33,9.84-7.1,18.56-5.95,8.9,1.17,16.41,7.4,15.76,9.11-.45,1.19-5.2.82-8.75-.35-5.15-1.7-5.14-4.19-8.41-4.56-5.71-.64-7.76,5-12.66,3.65C380.24,223.82,377.46,223.87,377.5,222.41Z"/></g></svg>