<?xml version="1.0" encoding="utf-8"?>
<!-- Generator: Adobe Illustrator 26.0.0, SVG Export Plug-In . SVG Version: 6.00 Build 0)  -->
<svg version="1.1" id="Calque_1" xmlns="http://www.w3.org/2000/svg" xmlns:xlink="http://www.w3.org/1999/xlink" x="0px" y="0px"
	 viewBox="0 0 788 1005" style="enable-background:new 0 0 788 1005;" xml:space="preserve">
<style type="text/css">
	.st0{fill:#1A1818;}
	.st1{fill:none;stroke:#000000;stroke-width:3;stroke-miterlimit:10;}
	.st2{fill:#473415;}
	.st3{fill:none;stroke:#4F3742;stroke-miterlimit:10;}
	.st4{fill:#A85B3B;}
	.st5{fill:#5C1B00;}
	.st6{fill:none;}
	.st7{fill:#BFA47C;stroke:#000000;stroke-width:3;stroke-miterlimit:10;}
	.st8{fill:#BFA47C;}
</style>
<g id="Calque_1_00000129926247847085417240000006419562811846702516_">
	<polygon class="st0" points="230.3,514 230.2,514 230.2,514 	"/>
	<polygon points="230.4,514 230.4,514 230.3,514 	"/>
	<polygon class="st0" points="230.3,514 230.2,514 230.2,514 	"/>
	<polygon points="230.4,514 230.4,514 230.3,514 	"/>
	<path class="st1" d="M434.3,432.5c16.2,4.8,23.2,8.9,27,15.3c3.1,5.2,6,17.1,6.3,23.1c0.5,14-7.8,49-21.9,60.7
		c-14.4,11.9-84.8,11.9-99.2,0c-14.2-11.7-22.5-46.8-21.9-60.7c0.2-5.9,3.2-17.9,6.3-23.1c3.8-6.4,10.9-10.5,27-15.3
		c18.5-5.5,37.3-4.7,37.3-4.7S415.8,427,434.3,432.5z"/>
	<polygon class="st2" points="316.7,487.9 318.2,467 473.2,467 475.2,485.1 	"/>
	<polygon class="st3" points="394.6,523.6 389.6,486.5 404.6,486.5 403.6,516.4 	"/>
	<path class="st4" d="M120.8,467.9c0,0-18.5-7-21.5-6.8s-15.8,3.2-18.2,3s-16.6-5.3-16.8-3.5s-0.2,8.7-0.2,8.7l11.4,5.6l14.8,0.3
		l-18.2,13.8c0,0-27.4,13.8-29.2,14.2s1,8.9,1,8.9l34.7-14.8l-32.3,25.4l6,7.7l34.3-27l-29.6,32.9l8.8,4.4l27.2-28.4l-14.6,26
		c0,0,8,4,9.1,2s17-23.6,17-23.6l27.8-22.9l1.4-9.2L120.8,467.9z"/>
	<polygon points="227.9,536.2 228,536.2 227.9,536.2 	"/>
	<polygon points="228,536.2 228.1,536.2 228.1,536.2 	"/>
	<polygon points="227.9,536.2 228,536.2 227.9,536.2 	"/>
	<polygon points="228,536.2 228.1,536.2 228.1,536.2 	"/>
	<path class="st4" d="M513.5,300.5c-0.6,38.4-26.2,33.2-36.9,42.3c-12.6,10.8-8.3,50-17.2,64c-2.5,3.8-11.4,10.1-15.8,9.1
		c-12.5-2.9-24-30.7-34.8-37.7c-6.3-4.1-23.6-3.6-30.2,0c-11.2,6.2-22.3,34.9-34.8,37.7c-4.4,1-13.4-5.2-15.8-9.1
		c-8.9-14-4.6-53.2-17.2-64c-10.6-9.1-36.2-3.9-36.9-42.3c-0.4-26.6,35-37.3,35-37.3l40.1-19.9c2.6-1.3,5-2.9,7.1-4.8
		c0.8-0.7,1.6-1.5,2.3-2.3l0.6-0.7l0-0.1c3.9-4.7,6.4-10.3,7.2-16.4c0.2-1.4,0.3-2.8,0.2-4.2V212v-4.5h53.6l0.1,5v1.5v3.2
		c0,0.3,0,0.7,0,1l0,0c0,0.6,0.1,1.3,0.2,2c0.2,1.5,0.5,3.1,0.9,4.6c2.2,7.7,7.6,14,14.7,17.6l40.5,20.1c1,0.5,2.1,1,3.2,1.3
		C486.6,266,513.9,277.2,513.5,300.5z"/>
	<path class="st4" d="M421.1,255.7l-27.5,32.5l-14.8-17.7l-12.4-14.8l0.7-41.6v-2.2l0.1-4.5h53v0.2l0.1,4.7l0,0v1.6l0.1,4.2l0,0v1.3
		l0.1,6.8L421.1,255.7z"/>
	<path class="st5" d="M421.6,225l-1,1.2c-5.2,6.3-28.8,35-41.8,44.3c-3.2,2.3-5.7,3.4-7.2,2.7c-6.8-3.3-14.8-35.1-14.8-35.1l0.1-0.1
		c0.6-0.6,1.2-1.2,1.7-1.9c0.3-0.4,0.7-0.8,1-1.3l0.1-0.1c3.3-4.5,5.5-9.7,6.7-15.2c0-0.2,0.1-0.4,0.1-0.6c0.3-1.4,0.5-3,0.7-4.8
		c0.1-0.7,0.1-1.4,0.2-2.2c0.1-1.4,0.2-2.9,0.3-4.5h52.7v0.2v4.3v6.7l0.1,0.8l0.1,0.7l0.9,4.6L421.6,225z"/>
	<path class="st1" d="M463.4,463c-0.9-4-5.7-25.3-5.6-33.8c0.1-9.2,4-27.7,1.8-36.6c-9.8-39.6-123.5-39.7-133.3,0
		c-2.2,8.9,1.8,27.5,1.8,36.6c0,8.6-4.7,29.8-5.6,33.8c-11,50.3,70.4,73.4,70.4,73.4S474.5,513.4,463.4,463z"/>
	<path class="st6" d="M432,448.2c16.2,5.2,23.2,9.6,27,16.6c3.1,5.6,6,18.5,6.3,24.9c0.5,15.1-7.8,52.9-21.9,65.6
		c-14.4,12.9-84.8,12.9-99.2,0c-14.1-12.6-22.5-50.5-21.9-65.6c0.2-6.4,3.2-19.3,6.3-24.9c3.8-6.9,10.9-11.3,27-16.6
		c18.5-6,37.3-5,37.3-5S413.5,442.2,432,448.2z"/>
	<path class="st4" d="M277.9,408.5c-9.7-15-32.4-8.3-40.5-5.5s-23.1,12.1-30.6,16.7c-18.9,11.6-75.5,47.9-96.4,54.1
		c-14.6,4.4,7.5,25,7.5,25s15.5-9,25.7-12.6c21.4-7.6,52.1-11.5,87.9-22.8c9.4-3,27.2-12.2,34.9-18.3
		C287.9,428.2,280.8,412.8,277.9,408.5z"/>
	<path class="st7" d="M335.1,297c2.8,27.5-14.9,54.4-14.9,54.4s-28.3,55.5-37.5,74.1c-4.3,8.8-13,27.2-35.2,17.1l0,0
		c-18.3-8.4-13.3-27.4-10-36.2c6.7-17.9,24-52.8,27.5-71.3c2.6-13.8,1.2-36.2,18.1-53.3c0,0,12.3-15.5,31.4-9.4l0.8,0.2
		C326.2,276.1,334,285.7,335.1,297z"/>
	<path class="st4" d="M669.5,467.9c0,0,18.5-7,21.5-6.8s15.8,3.2,18.2,3s16.5-5.3,16.8-3.5s0.1,8.7,0.1,8.7l-11.4,5.6l-14.8,0.3
		l18.2,13.8c0,0,27.4,13.8,29.2,14.2s-1.1,8.9-1.1,8.9l-34.7-14.8l32.3,25.4l-6,7.7l-34.3-27l29.6,32.9l-8.8,4.4l-27.2-28.4l14.6,26
		c0,0-8,4-9.1,2s-17-23.6-17-23.6l-27.8-22.9l-1.4-9.2L669.5,467.9z"/>
	<path class="st4" d="M512.4,408.5c9.7-15,32.4-8.3,40.5-5.5s23.1,12.1,30.5,16.7c19,11.6,75.5,47.9,96.4,54.1
		c14.6,4.4-7.5,25-7.5,25s-15.5-9-25.7-12.6c-21.4-7.6-52.1-11.5-87.9-22.8c-9.4-3-27.2-12.2-34.9-18.3
		C502.4,428.2,509.5,412.8,512.4,408.5z"/>
</g>
<g id="Calque_7">
	<path class="st8" d="M277.3,446.8c-4.4,3.6-106.2,34.5-106.2,34.5l-22-35.3l82.7-58.5c1.4-16.5,38.6-112,41.9-113.3
		s54.1-27.6,54.1-27.6l65.6,22l61.1-23.6l55.3,27.4l28.6,81.2l14,50l87.8,42.5l-26.1,35.3l-85.3-24l-56-63l2.9,46.2l4.9,123.2
		c0,0-194.6-16.8-189.4-19.4s11.2-120,11.8-122.6"/>
</g>
</svg>
