<?xml version="1.0" encoding="utf-8"?>
<!-- Generator: Adobe Illustrator 26.0.0, SVG Export Plug-In . SVG Version: 6.00 Build 0)  -->
<svg version="1.1" id="Calque_1" xmlns="http://www.w3.org/2000/svg" xmlns:xlink="http://www.w3.org/1999/xlink" x="0px" y="0px"
	 viewBox="0 0 788 1005" style="enable-background:new 0 0 788 1005;" xml:space="preserve">
<style type="text/css">
	.st0{fill:#1A1818;}
	.st1{fill:#473415;}
	.st2{fill:#FFFFFF;}
	.st3{fill:#472E1D;}
	.st4{fill:#A85B3B;}
	.st5{fill:#5C1B00;}
	.st6{fill:#4A5C70;}
	.st7{fill:#36344D;}
</style>
<g id="Calque_5">
	<polygon class="st0" points="230.3,514 230.2,514 230.2,514 	"/>
	<polygon points="230.4,514 230.4,514 230.3,514 	"/>
	<polygon class="st0" points="230.3,514 230.2,514 230.2,514 	"/>
	<polygon points="230.4,514 230.4,514 230.3,514 	"/>
	<polygon class="st1" points="316.7,487.9 318.2,467 473.2,467 475.2,485.1 	"/>
	<path class="st2" d="M423.6,220.8l7.8,11.1l-19.2,39.6c0,0-7.8-16.7-11-20.5C399.8,249.3,423.6,220.8,423.6,220.8z"/>
	<path class="st2" d="M368.7,220.8l-7.8,9.8l18,41c0,0,7.1-16.7,11.8-21C392.4,249,368.7,220.8,368.7,220.8z"/>
	<ellipse class="st3" cx="463.9" cy="460.9" rx="4.7" ry="4.3"/>
	<path class="st4" d="M205.8,256.5c-0.6-2.4-17.5-48.6-17.5-48.6s20.8-9.8,20.2-12.2s-5.3-36.2-5.3-36.2l9.1-2.3l7.1,40.9l4.9-31.6
		l9.3,3.5l-2.5,38.8l7.9,13.5l-12.4,29L205.8,256.5z"/>
	<polygon class="st5" points="227.9,535.7 228,535.6 227.9,535.6 	"/>
	<polygon class="st5" points="228,535.6 228.1,535.7 228.1,535.6 	"/>
	<polygon class="st5" points="227.9,535.7 228,535.6 227.9,535.6 	"/>
	<polygon class="st5" points="228,535.6 228.1,535.7 228.1,535.6 	"/>
	<path class="st4" d="M513.5,299.9c-0.6,38.4-26.2,33.2-36.9,42.3c-12.6,10.8-8.3,50-17.2,64c-2.5,3.8-11.4,10.1-15.8,9.1
		c-12.5-2.9-24-30.7-34.8-37.7c-6.3-4.1-23.6-3.6-30.2,0c-11.2,6.2-22.3,34.9-34.8,37.7c-4.4,1-13.4-5.2-15.8-9.1
		c-8.9-14-4.6-53.2-17.2-64c-10.6-9.1-36.2-3.9-36.9-42.3c-0.4-26.6,35-37.3,35-37.3l40.1-19.9c2.6-1.3,5-2.9,7.1-4.8
		c0.8-0.7,1.6-1.5,2.3-2.3l0.6-0.7l0-0.1c3.9-4.7,6.5-10.4,7.2-16.4c0.2-1.4,0.3-2.8,0.2-4.2v-2.8v-4.5h53.6l0.1,5v1.5v3.2
		c0,0.3,0,0.7,0,1l0,0c0,0.6,0.1,1.3,0.2,1.9c0.2,1.5,0.5,3.1,0.9,4.6c2.2,7.7,7.6,14,14.7,17.6l40.5,20.1c1,0.5,2.1,1,3.2,1.3
		C486.6,265.5,513.9,276.6,513.5,299.9z"/>
	<path class="st5" d="M421.1,255.1l-27.5,32.5l-14.8-17.7l-12.4-14.8l0.7-41.6v-2.2l0.1-4.5h53v0.2l0.1,4.7l0,0v1.6l0.1,4.2l0,0v1.3
		l0.1,6.8L421.1,255.1z"/>
	<path class="st5" d="M421.6,224.4c0,0,5.1,9.6,4.4,10.4c-5.2,6.3,6.8,30.3-17.1,40.2c-3.6,1.5-35.8-1.7-37.3-2.4
		c-6.8-3.3-35.2-23.1-35.2-23.1s20.4-12.1,20.5-12.1c0.6-0.6,1.2-1.2,1.7-1.9c0.3-0.4,0.7-0.8,1-1.3l0.1-0.1
		c3.3-4.5,5.5-9.7,6.7-15.2c0-0.2,0.1-0.4,0.1-0.6c0.3-1.4,0.5-3,0.7-4.8c0.1-0.7,0.1-1.4,0.2-2.2c0.1-1.4,0.2-2.9,0.3-4.5h52.7v0.2
		v4.3v6.7l0.1,0.8l0.1,0.7l0.9,4.6L421.6,224.4z"/>
	<path class="st5" d="M455.6,306.7c11.9,25,40.9,38.8,40.9,38.8s53,32.8,70.4,44c8.2,5.3,25.2,16.6,39-3.6l0,0
		c11.3-16.6-2.8-30.4-10.2-36.2c-15-11.8-47.9-32.6-60.5-46.7c-9.4-10.5-19.8-30.3-43.1-36.2c0,0-18.6-6.9-31.8,8.2l-0.5,0.6
		C452.4,284.2,450.8,296.4,455.6,306.7L455.6,306.7z"/>
	<path class="st4" d="M591.9,351.9c-18.6-7.2-32.7,11.8-37.4,19s-10.7,23.9-13.6,32.1c-7.5,21-17.5,57.3-25.2,77.8
		c-5,13.5-8.1,20.4-0.3,25.9c7,5,16.1-5.7,19.7-9.9c14.9-17.2,44.3-50.4,56.9-70.9c5.2-8.4,14-26.4,16.1-36
		C614,362.9,597.3,353.9,591.9,351.9z"/>
	<path class="st4" d="M215.8,416.6c17.7-2.2,21.5-25.6,22.4-34.1s-0.9-26.1-1.8-34.8c-2.3-22.1-10.5-88.8-7.1-110.3
		c2.4-15-25.8-4-25.8-4s1.4,17.9,0.3,28.6c-2.4,22.5-12.1,52-17.4,89.1c-1.4,9.8-0.7,29.8,1.4,39.3
		C193.7,417,210.6,417.3,215.8,416.6z"/>
	<path class="st5" d="M333,307c-8.5,26.3-35.5,43.8-35.5,43.8s-48.2,39.4-64.1,52.8c-7.5,6.3-22.8,19.7-39.1,1.5l0,0
		c-13.4-15-1.2-30.5,5.4-37.2c13.3-13.7,43.2-38.6,53.9-54.2c7.9-11.6,15.6-32.6,38-41.5c0,0,17.5-9.3,32.6,4l0.6,0.5
		C333.3,284.2,336.5,296.1,333,307z"/>
	<polygon class="st4" points="508.8,490.7 504.7,497.4 508,509.9 512,521.9 517.6,515.9 527.7,508.9 	"/>
	<polygon class="st3" points="506.1,495 515.4,479.2 535.9,501.2 524.6,513.9 	"/>
	<path class="st5" d="M401.9,209.4c0,0-4.7,3.6-7.4,3.6s-7-3.6-7-3.6s8.5-2.6,7.2,0.7C394,211.9,401.9,209.4,401.9,209.4z"/>
	<polygon class="st6" points="230.9,295.4 191.2,309.3 177.7,399.2 208.1,426.1 314.5,358 317.1,428.3 309.4,476.9 310.1,514 
		483.1,514 480.9,467 475.2,431.1 472.9,346.7 544.3,385.3 519.1,464.2 555.8,480.9 604.1,415.4 618.1,364.9 512.1,269.5 
		445.8,247.6 394.6,275 341.9,245.4 282.8,272.8 261.9,294.8 237.2,326 	"/>
	<path class="st4" d="M518.6,503.1c2,3.2,3.1,9-3,14.8c0,0-17.6,20.2-25.4,24.3c-3.5,1.8-12.8,6.3-15.4,3.3
		c-7.3-8.4-12.1-28.6-9.7-41.7c0.7-3.9,9.4-8.1,13.3-8.8c4.3-0.8,13,2.6,17.3,2.8c2.4,0,4.8-0.1,7.2-0.4
		C508.8,496.9,515.8,498.7,518.6,503.1z"/>
</g>
<g id="Calque_7">
	<polygon class="st7" points="506.1,495 515.4,479.2 535.9,501.2 524.6,513.9 	"/>
</g>
</svg>
