<svg xmlns="http://www.w3.org/2000/svg" xmlns:xlink="http://www.w3.org/1999/xlink" viewBox="0 0 788 472.45"><defs><style>.cls-1,.cls-11,.cls-18,.cls-3,.cls-5{fill:none;}.cls-2{fill:#1a1818;}.cls-16,.cls-18,.cls-20,.cls-3,.cls-8{stroke:#000;}.cls-11,.cls-16,.cls-18,.cls-20,.cls-3,.cls-5,.cls-8{stroke-miterlimit:10;}.cls-3,.cls-8{stroke-width:3px;}.cls-4{fill:#473415;}.cls-5{stroke:#4f3742;}.cls-6{fill:#a85b3b;}.cls-7{fill:#5c1b00;}.cls-21,.cls-8{fill:#bfa47c;}.cls-9{fill:#26130c;}.cls-10{clip-path:url(#clip-path);}.cls-11{stroke:#9e5b3e;}.cls-11,.cls-18,.cls-20{stroke-linecap:round;}.cls-11,.cls-18{stroke-width:2px;}.cls-12{clip-path:url(#clip-path-2);}.cls-13{clip-path:url(#clip-path-3);}.cls-14{clip-path:url(#clip-path-4);}.cls-15{fill:#fff;}.cls-16{fill:#080808;}.cls-17{clip-path:url(#clip-path-5);}.cls-19{clip-path:url(#clip-path-6);}.cls-20{fill:#0a0a0a;}</style><clipPath id="clip-path"><rect class="cls-1" x="407.44" y="104.82" width="18.62" height="5.29"/></clipPath><clipPath id="clip-path-2"><rect class="cls-1" x="362.93" y="104.82" width="18.62" height="5.29"/></clipPath><clipPath id="clip-path-3"><polygon class="cls-1" points="429.72 86.69 429.72 86.69 446.06 86.69 446.06 119.63 429.72 119.63 429.72 86.69"/></clipPath><clipPath id="clip-path-4"><polygon class="cls-1" points="358.28 86.69 358.28 86.69 341.94 86.69 341.94 119.63 358.28 119.63 358.28 86.69"/></clipPath><clipPath id="clip-path-5"><rect class="cls-1" x="402.57" y="79.88" width="22.15" height="6.68"/></clipPath><clipPath id="clip-path-6"><rect class="cls-1" x="363.28" y="79.88" width="22.15" height="6.68"/></clipPath></defs><g id="Calque_1" data-name="Calque 1"><polygon class="cls-2" points="230.32 423.68 230.22 423.72 230.22 423.63 230.32 423.68"/><polygon points="230.42 423.63 230.42 423.72 230.32 423.68 230.42 423.63"/><polygon class="cls-2" points="230.32 423.68 230.22 423.72 230.22 423.63 230.32 423.68"/><polygon points="230.42 423.63 230.42 423.72 230.32 423.68 230.42 423.63"/><path class="cls-3" d="M434.32,342.16c16.16,4.84,23.2,8.92,27,15.34,3.11,5.2,6,17.12,6.27,23.06.55,13.95-7.77,49-21.92,60.73-14.41,11.91-84.8,11.91-99.2,0-14.16-11.7-22.47-46.78-21.93-60.73.23-5.94,3.16-17.86,6.27-23.06,3.84-6.42,10.89-10.5,27-15.34,18.49-5.54,37.3-4.66,37.3-4.66S415.83,336.62,434.32,342.16Z"/><polygon class="cls-4" points="316.71 397.56 318.21 376.72 473.21 376.72 475.21 394.78 316.71 397.56"/><polygon class="cls-5" points="394.57 433.26 389.57 396.21 404.57 396.21 403.57 426.11 394.57 433.26"/><path class="cls-6" d="M120.84,377.58s-18.46-7.05-21.51-6.81-15.77,3.23-18.15,3-16.56-5.31-16.77-3.53-.15,8.73-.15,8.73l11.4,5.6,14.75.26-18.25,13.8S44.79,412.42,43,412.83,44,421.74,44,421.74L78.7,406.9,46.39,432.28l6,7.66L86.72,413,57.11,445.94l8.83,4.38,27.24-28.4-14.59,26s8,4,9.12,2,17-23.6,17-23.6l27.79-22.9,1.41-9.18Z"/><polygon points="227.91 445.91 228.01 445.87 227.91 445.82 227.91 445.91"/><polygon points="228.01 445.87 228.11 445.91 228.11 445.82 228.01 445.87"/><polygon points="227.91 445.91 228.01 445.87 227.91 445.82 227.91 445.91"/><polygon points="228.01 445.87 228.11 445.91 228.11 445.82 228.01 445.87"/><path class="cls-6" d="M513.5,210.19c-.6,38.39-26.2,33.17-36.86,42.29-12.58,10.77-8.27,50-17.18,64-2.45,3.84-11.36,10.1-15.8,9.08-12.51-2.87-24-30.73-34.77-37.73-6.33-4.12-23.57-3.62-30.19,0-11.25,6.16-22.27,34.86-34.77,37.73-4.44,1-13.35-5.24-15.8-9.08-8.91-14-4.6-53.24-17.19-64-10.65-9.12-36.25-3.9-36.86-42.29-.41-26.59,35-37.34,35-37.34l40.15-19.91a31.4,31.4,0,0,0,7.1-4.82,29.11,29.11,0,0,0,2.29-2.29l.63-.71.05-.06a31.55,31.55,0,0,0,7.22-16.43,30.71,30.71,0,0,0,.25-4.19l0-2.84,0-4.51h53.63l.06,5,0,1.5,0,3.21c0,.33,0,.67,0,1v0c0,.65.09,1.3.16,2a29.38,29.38,0,0,0,.93,4.57,28.5,28.5,0,0,0,14.7,17.59L476.81,172a27.41,27.41,0,0,0,3.16,1.33C486.64,175.72,513.87,186.85,513.5,210.19Z"/><path class="cls-6" d="M421.14,165.37l-27.5,32.5-14.8-17.69-12.39-14.81.72-41.56,0-2.21.08-4.51h53v.23l.08,4.66v0l0,1.56.07,4.21v0l0,1.28.12,6.79Z"/><path class="cls-7" d="M421.64,134.62l-1,1.25c-5.16,6.33-28.83,35-41.79,44.31-3.2,2.29-5.74,3.39-7.2,2.69-6.76-3.26-14.84-35.1-14.84-35.1l.08-.07a21,21,0,0,0,1.73-1.87q.48-.57,1.05-1.32l.06-.08a39.39,39.39,0,0,0,6.66-15.16c0-.21.09-.42.13-.64.26-1.37.48-3,.66-4.82.07-.71.13-1.45.19-2.21.11-1.42.2-2.94.28-4.51h52.67v.23l0,4.28,0,6.72.15.76.14.67.93,4.57Z"/><path class="cls-3" d="M463.42,372.7c-.88-4-5.67-25.28-5.61-33.83.06-9.17,4-27.71,1.8-36.66-9.77-39.58-123.53-39.65-133.32,0-2.21,9,1.75,27.49,1.81,36.66,0,8.55-4.74,29.82-5.62,33.83-11,50.33,70.35,73.38,70.35,73.38S474.46,423,463.42,372.7Z"/><path class="cls-1" d="M432,357.85c16.16,5.22,23.21,9.63,27.05,16.56,3.11,5.62,6,18.48,6.27,24.9.54,15.07-7.77,52.94-21.93,65.58-14.4,12.85-84.8,12.85-99.2,0-14.15-12.64-22.47-50.51-21.93-65.58.24-6.42,3.17-19.28,6.28-24.9,3.84-6.93,10.88-11.34,27-16.56,18.49-6,37.29-5,37.29-5S413.52,351.87,432,357.85Z"/><path class="cls-6" d="M277.94,318.14c-9.7-15-32.38-8.32-40.5-5.46s-23.15,12.15-30.55,16.69C188,341,131.38,377.25,110.53,383.46c-14.58,4.36,7.52,25,7.52,25s15.52-9,25.69-12.61c21.36-7.59,52.08-11.55,87.86-22.83,9.41-3,27.21-12.24,34.87-18.26C287.89,337.87,280.76,322.5,277.94,318.14Z"/><path class="cls-8" d="M335.1,206.7c2.77,27.54-14.91,54.37-14.91,54.37s-28.3,55.47-37.45,74.1c-4.31,8.78-13,27.24-35.18,17.1h0c-18.31-8.35-13.33-27.41-10-36.21,6.71-17.9,24-52.75,27.52-71.33,2.58-13.84,1.17-36.18,18.12-53.32,0,0,12.34-15.54,31.43-9.39l.76.24A28.7,28.7,0,0,1,335.1,206.7Z"/><path class="cls-6" d="M669.47,377.58s18.46-7.05,21.5-6.81,15.78,3.23,18.16,3,16.55-5.31,16.77-3.53.14,8.73.14,8.73l-11.39,5.6-14.75.26,18.25,13.8s27.37,13.84,29.2,14.25-1.08,8.91-1.08,8.91L711.61,406.9l32.31,25.38-6,7.66L703.59,413l29.61,32.94-8.83,4.38-27.25-28.4,14.59,26s-8,4-9.11,2-17-23.6-17-23.6l-27.8-22.9-1.4-9.18Z"/><path class="cls-6" d="M512.37,318.14c9.7-15,32.38-8.32,40.5-5.46s23.14,12.15,30.54,16.69c19,11.63,75.52,47.88,96.36,54.09,14.59,4.36-7.51,25-7.51,25s-15.52-9-25.69-12.61c-21.37-7.59-52.09-11.55-87.86-22.83-9.41-3-27.22-12.24-34.87-18.26C502.42,337.87,509.54,322.5,512.37,318.14Z"/><path class="cls-6" d="M383.24,164.61l-22.63-24.42-5.5-27L353.61,89V82.61a38.91,38.91,0,0,1,38.92-38.92H394a38.92,38.92,0,0,1,38.92,38.92V89l-1.5,24.19-5.5,27.05-22.64,24.42Z"/><path class="cls-9" d="M429.63,58.89c12,10.39,6.63,29.46,6.63,29.46l-3.92,10.84s.84-5.33-6.19-20.34c-1.66-3.54,1.87-13-.23-16.63-4.64-7.89-9.35-11.06-9.35-11.06S421.57,51.89,429.63,58.89Z"/><path class="cls-9" d="M356.88,58.55c-12,10.22-6.62,29-6.62,29l3.91,10.66s-.84-5.24,6.19-20c1.66-3.48-1.87-12.83.23-16.35,4.64-7.77,9.35-10.89,9.35-10.89S364.94,51.66,356.88,58.55Z"/><g class="cls-10"><path class="cls-11" d="M408.44,106.54s4.6,2.55,8.31,2.57a13.1,13.1,0,0,0,8.31-3.29"/></g><g class="cls-12"><path class="cls-11" d="M380.55,106.54s-4.6,2.55-8.31,2.57a13.13,13.13,0,0,1-8.31-3.29"/></g><g id="_Répétition_miroir_" data-name="&lt;Répétition miroir&gt;"><g class="cls-13"><path class="cls-6" d="M429.72,119.62l3-28.25s6.56-7.83,12.25-3.25c3.78,3-3.13,28.23-7.5,29.5C430,119.81,429.72,119.62,429.72,119.62Z"/></g></g><g id="_Répétition_miroir_2" data-name="&lt;Répétition miroir&gt;"><g class="cls-14"><path class="cls-6" d="M358.28,119.62l-3-28.25s-6.56-7.83-12.25-3.25c-3.78,3,3.13,28.23,7.5,29.5C358,119.81,358.28,119.62,358.28,119.62Z"/></g></g></g><g id="Calque_5" data-name="Calque 5"><circle class="cls-15" cx="410.78" cy="96.79" r="6.75"/><circle class="cls-15" cx="375.92" cy="96.79" r="6.75"/><circle class="cls-16" cx="378" cy="96.93" r="4"/><circle class="cls-16" cx="412.94" cy="96.93" r="4"/><g class="cls-17"><path class="cls-18" d="M403.57,84.17a14.87,14.87,0,0,1,20.15,1.39"/></g><g class="cls-19"><path class="cls-18" d="M384.43,84.17a14.87,14.87,0,0,0-20.15,1.39"/></g><path class="cls-7" d="M401.89,119s-4.69,3.69-7.42,3.68-7-3.59-7-3.59,5.4.73,7.21.72S401.89,119,401.89,119Z"/><ellipse class="cls-20" cx="394.31" cy="138.48" rx="2.88" ry="4.5"/><path class="cls-9" d="M377.5,132.08c.12-3.33,9.84-7.1,18.56-6,8.9,1.17,16.41,7.4,15.76,9.1-.45,1.2-5.2.83-8.75-.35-5.15-1.69-5.14-4.18-8.41-4.55-5.71-.64-7.76,5-12.66,3.65C380.24,133.49,377.46,133.54,377.5,132.08Z"/></g><g id="Calque_7" data-name="Calque 7"><path class="cls-21" d="M277.33,356.46C272.94,360,171.15,391,171.15,391l-22-35.27,82.68-58.54c1.35-16.48,38.62-112,41.94-113.29s54.08-27.6,54.08-27.6l65.61,22,61.15-23.68L509.87,182l28.56,81.21,14,50,87.76,42.51L614.09,391l-85.35-24-56-62.95,2.94,46.25,4.91,123.23s-194.63-16.8-189.38-19.41,11.21-120,11.79-122.6"/></g></svg>