<svg xmlns="http://www.w3.org/2000/svg" xmlns:xlink="http://www.w3.org/1999/xlink" viewBox="0 0 788 1005"><defs><style>.cls-1,.cls-15,.cls-8{fill:none;}.cls-2{fill:#1a1818;}.cls-3{fill:#473415;}.cls-4{fill:#a85b3b;}.cls-5{fill:#5c1b00;}.cls-6{fill:#26130c;}.cls-7{clip-path:url(#clip-path);}.cls-8{stroke:#9e5b3e;}.cls-15,.cls-17,.cls-8{stroke-linecap:round;}.cls-13,.cls-15,.cls-17,.cls-8{stroke-miterlimit:10;}.cls-15,.cls-8{stroke-width:2px;}.cls-9{clip-path:url(#clip-path-2);}.cls-10{clip-path:url(#clip-path-3);}.cls-11{clip-path:url(#clip-path-4);}.cls-12{fill:#fff;}.cls-13{fill:#080808;}.cls-13,.cls-15,.cls-17{stroke:#000;}.cls-14{clip-path:url(#clip-path-5);}.cls-16{clip-path:url(#clip-path-6);}.cls-17{fill:#0a0a0a;}.cls-18{fill:#005f56;}</style><clipPath id="clip-path"><rect class="cls-1" x="407.44" y="195.15" width="18.62" height="5.29"/></clipPath><clipPath id="clip-path-2"><rect class="cls-1" x="362.93" y="195.15" width="18.62" height="5.29"/></clipPath><clipPath id="clip-path-3"><polygon class="cls-1" points="429.72 177.02 429.72 177.02 446.06 177.02 446.06 209.96 429.72 209.96 429.72 177.02"/></clipPath><clipPath id="clip-path-4"><polygon class="cls-1" points="358.28 177.02 358.28 177.02 341.94 177.02 341.94 209.96 358.28 209.96 358.28 177.02"/></clipPath><clipPath id="clip-path-5"><rect class="cls-1" x="402.57" y="170.22" width="22.15" height="6.68"/></clipPath><clipPath id="clip-path-6"><rect class="cls-1" x="363.28" y="170.22" width="22.15" height="6.68"/></clipPath></defs><g id="Calque_1" data-name="Calque 1"><polygon class="cls-2" points="230.32 514.01 230.22 514.05 230.22 513.97 230.32 514.01"/><polygon points="230.42 513.97 230.42 514.05 230.32 514.01 230.42 513.97"/><polygon class="cls-2" points="230.32 514.01 230.22 514.05 230.22 513.97 230.32 514.01"/><polygon points="230.42 513.97 230.42 514.05 230.32 514.01 230.42 513.97"/><polygon class="cls-3" points="316.71 487.89 318.21 467.05 473.21 467.05 475.21 485.11 316.71 487.89"/><path class="cls-4" d="M117.22,274.85,102,261l-25.43-12.7s-1.69,5.38-1,7c2.19,5.09,9.58,9.91,14,13.21.59.44,1.87,3.56,1.62,4.26-1,2.85-7.38,2.23-7.38,2.23l18.87,8.24Z"/><path class="cls-4" d="M110.58,274.58l-5,20.66-44.89-7L19,264.24s4.49-5,6.57-5.42c10.86-2.22,31.71,9.92,42.45,12.59C79.56,274.3,110.58,274.58,110.58,274.58Z"/><ellipse class="cls-4" cx="108.93" cy="283.74" rx="12.15" ry="12.1" transform="translate(-185.18 207.11) rotate(-54.39)"/><path class="cls-4" d="M515.27,299.64c-.6,38.39-26.2,33.17-36.86,42.29-12.58,10.77-8.27,50-17.18,64-2.45,3.84-11.36,10.1-15.8,9.08-12.51-2.87-24-30.73-34.77-37.73-6.33-4.12-23.57-3.62-30.19,0-11.25,6.16-22.27,34.86-34.77,37.73-4.44,1-13.35-5.24-15.8-9.08-8.91-14-4.6-53.24-17.19-64-10.65-9.12-36.25-3.9-36.86-42.29-.41-26.59,35-37.34,35-37.34L351,242.39a31.4,31.4,0,0,0,7.1-4.82,29.11,29.11,0,0,0,2.29-2.29l.63-.71.05-.06a31.55,31.55,0,0,0,7.22-16.43,30.71,30.71,0,0,0,.25-4.19l0-2.84,0-4.51h53.63l.06,5,0,1.5,0,3.21c0,.33,0,.67,0,1v0c0,.65.09,1.3.16,1.95a29.38,29.38,0,0,0,.93,4.57,28.5,28.5,0,0,0,14.7,17.59l40.53,20.1a27.41,27.41,0,0,0,3.16,1.33C488.41,265.17,515.64,276.3,515.27,299.64Z"/><path class="cls-4" d="M422.91,254.82l-27.5,32.5-14.8-17.69-12.39-14.81.72-41.56,0-2.21.08-4.51h53v.23l.08,4.66v0l0,1.56.07,4.21v0l0,1.28.12,6.79Z"/><path class="cls-5" d="M423.41,224.07l-1,1.25c-5.16,6.33-28.83,35-41.79,44.31-3.2,2.29-5.74,3.39-7.2,2.69-6.76-3.26-14.84-35.1-14.84-35.1l.08-.07a21,21,0,0,0,1.73-1.87q.48-.57,1.05-1.32l.06-.08a39.39,39.39,0,0,0,6.66-15.16c0-.21.09-.42.13-.64.26-1.37.48-3,.66-4.82.07-.71.13-1.45.19-2.21.11-1.42.2-2.94.28-4.51h52.67v.23l0,4.28,0,6.72.15.76.14.67.93,4.57Z"/><path class="cls-4" d="M457.69,296.67c-1.23,27.65,18,53.47,18,53.47S507.1,404,517.3,422.07c4.8,8.53,14.51,26.49,36.18,15.14h0c17.87-9.35,11.82-28.11,8-36.71-7.71-17.51-27-51.35-31.53-69.71-3.36-13.68-3.2-36.06-21.13-52.24,0,0-13.23-14.84-32-7.66l-.74.29a28.68,28.68,0,0,0-18.41,25.49Z"/><path class="cls-4" d="M232.3,404.34c10.95-14.12-2.85-33.32-8.24-40S205,346.48,198.21,341c-17.24-14-68.23-48.53-81-66.15-8.93-12.32-23,8.42-23,8.42s13.63,11.68,20.4,20.08c14.22,17.66,28.11,45.34,50.58,75.38,5.91,7.9,20.55,21.64,28.76,26.87C217,420.25,229.12,408.44,232.3,404.34Z"/><path class="cls-4" d="M334.81,306.65c-8.54,26.33-35.52,43.78-35.52,43.78s-48.23,39.4-64.1,52.78c-7.47,6.3-22.83,19.72-39.09,1.5h0c-13.4-15-1.17-30.46,5.39-37.19,13.33-13.69,43.24-38.62,53.88-54.23,7.93-11.63,15.63-32.66,38-41.52,0,0,17.56-9.27,32.56,4l.59.53a28.66,28.66,0,0,1,8.25,30.31Z"/><path class="cls-4" d="M383.24,254.94l-22.63-24.42-5.5-27-1.5-24.2v-6.34A38.91,38.91,0,0,1,392.53,134H394a38.92,38.92,0,0,1,38.92,38.92v6.34l-1.5,24.2-5.5,27-22.64,24.42Z"/><path class="cls-6" d="M429.63,149.22c12,10.39,6.63,29.47,6.63,29.47l-3.92,10.83s.84-5.33-6.19-20.34c-1.66-3.54,1.87-13-.23-16.62-4.64-7.9-9.35-11.07-9.35-11.07S421.57,142.22,429.63,149.22Z"/><path class="cls-6" d="M356.88,148.88c-12,10.22-6.62,29-6.62,29l3.91,10.66s-.84-5.24,6.19-20c1.66-3.48-1.87-12.82.23-16.35,4.64-7.77,9.35-10.89,9.35-10.89S364.94,142,356.88,148.88Z"/><g class="cls-7"><path class="cls-8" d="M408.44,196.87s4.6,2.56,8.31,2.57a13,13,0,0,0,8.31-3.29"/></g><g class="cls-9"><path class="cls-8" d="M380.55,196.87s-4.6,2.56-8.31,2.57a13.07,13.07,0,0,1-8.31-3.29"/></g><g id="_Répétition_miroir_" data-name="&lt;Répétition miroir&gt;"><g class="cls-10"><path class="cls-4" d="M429.72,210l3-28.25s6.56-7.84,12.25-3.25c3.78,3-3.13,28.22-7.5,29.5C430,210.14,429.72,210,429.72,210Z"/></g></g><g id="_Répétition_miroir_2" data-name="&lt;Répétition miroir&gt;"><g class="cls-11"><path class="cls-4" d="M358.28,210l-3-28.25s-6.56-7.84-12.25-3.25c-3.78,3,3.13,28.22,7.5,29.5C358,210.14,358.28,210,358.28,210Z"/></g></g></g><g id="Calque_5" data-name="Calque 5"><circle class="cls-12" cx="410.78" cy="187.12" r="6.75"/><circle class="cls-12" cx="375.92" cy="187.12" r="6.75"/><circle class="cls-13" cx="378" cy="187.26" r="4"/><circle class="cls-13" cx="412.94" cy="187.26" r="4"/><g class="cls-14"><path class="cls-15" d="M403.57,174.5a14.87,14.87,0,0,1,20.15,1.39"/></g><g class="cls-16"><path class="cls-15" d="M384.43,174.5a14.87,14.87,0,0,0-20.15,1.39"/></g><path class="cls-5" d="M401.89,209.35S397.2,213,394.47,213s-7-3.6-7-3.6,5.4.73,7.21.72S401.89,209.35,401.89,209.35Z"/><ellipse class="cls-17" cx="394.31" cy="228.81" rx="2.88" ry="4.5"/><path class="cls-6" d="M377.5,222.41c.12-3.33,9.84-7.1,18.56-5.95,8.9,1.17,16.41,7.4,15.76,9.11-.45,1.19-5.2.82-8.75-.35-5.15-1.7-5.14-4.19-8.41-4.56-5.71-.64-7.76,5-12.66,3.65C380.24,223.82,377.46,223.87,377.5,222.41Z"/></g><g id="Calque_6" data-name="Calque 6"><path class="cls-6" d="M372,140.13s-.94,8.77-3.94,13c-4.51,6.42-10.28,8.47-12.66,11.89-2.12,3.05-2.53,13.84-2.53,13.84s-5.31-8.9-5.49-12.12c-.13-2.34,2.95-9,2.95-9l-5.62,3.09s-.67-7.61.15-10.06c.75-2.22,5.19-7.21,5.19-7.21l-4.29.19s4.93-9.11,12.31-11.05c2.47-.65,10.27,1.14,10.27,1.14s1.84-10.4,23.92-11.23c26-1,41.65,12.83,41.65,12.83l-5.49,1.95a13.94,13.94,0,0,1,9.39,7.79c1.62,3.69,3.64,14.66,3.64,14.66l-4.73-2.33a27.25,27.25,0,0,1-.47,16.67c-.68,1.9-4.88,9.52-4.88,9.52s0-11.09-4.36-19.67a35.16,35.16,0,0,0-7.16-9.15l-1,5.07s-8.93-12-24.86-12C388,147.9,372,140.13,372,140.13Z"/></g><g id="Calque_7" data-name="Calque 7"><polygon class="cls-18" points="202.71 335.42 185.41 358.64 179.31 399.18 209.78 426.13 316.14 358.05 318.7 428.27 311.02 476.91 311.75 514.05 481.47 511.63 483.39 462.55 466.79 426.61 469.6 379.73 473.66 366.52 530.68 449.04 565.16 450.84 586.04 422.55 548.94 341.26 513.75 269.55 447.43 247.6 396.23 275.03 343.56 245.41 284.42 272.84 263.5 294.78 238.81 326.02 202.71 335.42"/><path class="cls-4" d="M568.11,427.77c2.8-17.21-16.25-30.35-23.35-34.75s-22.69-10-30.35-12.73c-19.62-7.06-52.91-16.4-72-23.56-12.59-4.71-19.17-7.55-22.52-.38-3,6.53,7.94,15,12.23,18.34,17.62,13.83,51.82,41.24,71.88,52.92,8.24,4.8,25.44,13,34.17,15C562.56,448.23,567.29,432.77,568.11,427.77Z"/><path class="cls-4" d="M460.09,365.11l-10.5-5.66s-20.43-22.7-21.33-23.6S412.05,322.12,411,321.07s-8.57-10.91-8.57-10.91l-4.77,9.6,7.82,11.36,9.31,9.26L391.12,336s-35.67-10.39-36.27-9.19-1.47,8.09-.27,8.69,34.77,11.28,34.77,11.28-42.55-5.87-42.84-3.77-.57,9.59,1.23,9.58,38,3.79,38,3.79-38.61,2.81-38,4,3,8.4,3,8.4l37.78-1.34-26.63,8.76s4.51,7.48,5.71,7.47,30.53-8.47,30.53-8.47,29.64,3.07,31.15,2.31c4.4-2.2,14.39,4.15,14.39,4.15Z"/></g></svg>