<svg xmlns="http://www.w3.org/2000/svg" xmlns:xlink="http://www.w3.org/1999/xlink" viewBox="0 0 88 110.97"><defs><style>.cls-1,.cls-4,.cls-8{fill:none;}.cls-2{fill:#fff;}.cls-3{fill:#080808;stroke:#000;}.cls-3,.cls-4,.cls-8{stroke-miterlimit:10;}.cls-4{stroke:#543030;}.cls-4,.cls-8{stroke-linecap:round;stroke-width:2px;}.cls-5{fill:#844f3d;}.cls-6{fill:#423435;}.cls-7{clip-path:url(#clip-path);}.cls-8{stroke:#9e5b3e;}.cls-9{clip-path:url(#clip-path-2);}</style><clipPath id="clip-path"><rect class="cls-1" x="52.85" y="51.29" width="18.49" height="6.03"/></clipPath><clipPath id="clip-path-2"><rect class="cls-1" x="16.41" y="51.29" width="18.49" height="6.03"/></clipPath></defs><g id="Calque_6" data-name="Calque 6"><circle class="cls-2" cx="60.65" cy="43.01" r="6.75"/><circle class="cls-2" cx="25.8" cy="43.01" r="6.75"/><circle class="cls-3" cx="25.88" cy="42.16" r="4"/><circle class="cls-3" cx="60.82" cy="42.16" r="4"/><path class="cls-4" d="M32.46,78.92A43.16,43.16,0,0,0,42.82,80a40.45,40.45,0,0,0,10.12-1.27"/><path class="cls-5" d="M51.77,65.24s-4.69,3.69-7.42,3.69-7-3.6-7-3.6,5.4.73,7.21.72S51.77,65.24,51.77,65.24Z"/><path class="cls-6" d="M62.38,78.25a6.27,6.27,0,0,1-7,2.24c-2.85-.76-2.85-3.15-11.25-3.73a1.52,1.52,0,0,1-.21,0l-.22,0c-8.4.58-8.4,3-11.25,3.73a6.27,6.27,0,0,1-7-2.24c-3.18-5.2,0,0,6.11-3.9,4.14-2.65,10.22-3.77,12.39-2.9h0c2.17-.87,8.25.25,12.39,2.9C62.38,78.25,65.56,73.05,62.38,78.25Z"/><path class="cls-6" d="M54.89,27.63c-3,.81-1.42,5.76.74,4.82a15.41,15.41,0,0,1,8.61-1.22c3.87.34,7.87,3.07,8.63,3.63s2.3.22,1.16-1.53C70.76,28.33,64.27,25.1,54.89,27.63Z"/><path class="cls-6" d="M32.69,27.63c3,.81,1.42,5.76-.74,4.82a15.41,15.41,0,0,0-8.61-1.22c-3.87.34-7.87,3.07-8.63,3.63s-2.3.22-1.16-1.53C16.82,28.33,23.31,25.1,32.69,27.63Z"/><g id="random" data-name="&lt;Repetition miroir&gt;"><g class="cls-7"><path class="cls-8" d="M53.85,54.45s4.81,2.15,8.51,1.84a13.07,13.07,0,0,0,8-4"/></g></g><g id="random2" data-name="&lt;Repetition miroir&gt;"><g class="cls-9"><path class="cls-8" d="M33.9,54.45s-4.8,2.15-8.5,1.84a13,13,0,0,1-8-4"/></g></g></g></svg>