<svg xmlns="http://www.w3.org/2000/svg" xmlns:xlink="http://www.w3.org/1999/xlink" viewBox="0 0 88 110.97"><defs><style>.cls-1,.cls-3,.cls-6{fill:none;}.cls-2{clip-path:url(#clip-path);}.cls-3{stroke:#000;}.cls-3,.cls-6{stroke-linecap:round;stroke-miterlimit:10;stroke-width:2px;}.cls-4{clip-path:url(#clip-path-2);}.cls-5{fill:#844f3d;}.cls-6{stroke:#543030;}.cls-7{fill:#423435;}</style><clipPath id="clip-path"><rect class="cls-1" x="53.84" y="38.09" width="18.47" height="6.31"/></clipPath><clipPath id="clip-path-2"><rect class="cls-1" x="15.88" y="38.09" width="18.47" height="6.31"/></clipPath></defs><g id="Calque_6" data-name="Calque 6"><g class="cls-2"><path class="cls-3" d="M54.84,43.4a10.25,10.25,0,0,1,8.24-4.31,10.65,10.65,0,0,1,8.23,4.31"/></g><g class="cls-4"><path class="cls-3" d="M33.34,43.4a10.24,10.24,0,0,0-8.23-4.31,10.65,10.65,0,0,0-8.23,4.31"/></g><path class="cls-5" d="M51.49,65.33S46.8,69,44.07,69s-7-3.6-7-3.6,5.4.73,7.21.72S51.49,65.33,51.49,65.33Z"/><path class="cls-6" d="M34.73,76.68a17,17,0,0,0,9.67,2.65,16.53,16.53,0,0,0,9.43-3.12"/><path class="cls-7" d="M25.67,72.76a6.27,6.27,0,0,1,7-2.24c2.85.76,2.85,3.15,11.25,3.73a1.52,1.52,0,0,1,.21,0l.22,0c8.4-.58,8.4-3,11.25-3.73a6.27,6.27,0,0,1,7,2.24c3.18,5.2,0,0-6.11,3.9-4.13,2.64-10.22,3.77-12.39,2.9h0c-2.17.87-8.25-.26-12.39-2.9C25.67,72.76,22.49,78,25.67,72.76Z"/><path class="cls-7" d="M55.66,26.08c-3,.81-1.42,5.76.74,4.81A15.5,15.5,0,0,1,65,29.67c3.87.35,7.87,3.07,8.63,3.63s2.3.22,1.16-1.53C71.53,26.78,65,23.55,55.66,26.08Z"/><path class="cls-7" d="M33.46,26.08c3,.81,1.42,5.76-.74,4.81a15.5,15.5,0,0,0-8.61-1.22c-3.87.35-7.87,3.07-8.63,3.63s-2.3.22-1.16-1.53C17.59,26.78,24.08,23.55,33.46,26.08Z"/></g></svg>