<svg xmlns="http://www.w3.org/2000/svg" xmlns:xlink="http://www.w3.org/1999/xlink" viewBox="0 0 788 1005"><defs><style>.cls-1,.cls-8{fill:none;}.cls-2{fill:#fff;}.cls-3{fill:#080808;stroke:#000;}.cls-3,.cls-8{stroke-miterlimit:10;}.cls-4{fill:#844f3d;}.cls-5{fill:#663a3a;}.cls-6{fill:#423435;}.cls-7{clip-path:url(#clip-path);}.cls-8{stroke:#9e5b3e;stroke-linecap:round;stroke-width:2px;}.cls-9{clip-path:url(#clip-path-2);}</style><clipPath id="clip-path"><rect class="cls-1" x="401.75" y="195.47" width="18.49" height="6.03"/></clipPath><clipPath id="clip-path-2"><rect class="cls-1" x="365.3" y="195.47" width="18.49" height="6.03"/></clipPath></defs><g id="Calque_6" data-name="Calque 6"><circle class="cls-2" cx="410.65" cy="186.85" r="6.75"/><circle class="cls-2" cx="375.8" cy="186.85" r="6.75"/><circle class="cls-3" cx="379.97" cy="186.85" r="4"/><circle class="cls-3" cx="414.9" cy="186.85" r="4"/><path class="cls-4" d="M401.77,209.08s-4.69,3.69-7.42,3.68-7-3.59-7-3.59,5.4.73,7.21.72S401.77,209.08,401.77,209.08Z"/><ellipse class="cls-5" cx="394.56" cy="226.78" rx="2.88" ry="5.72"/><path class="cls-6" d="M413.07,224.56a6.27,6.27,0,0,1-7,2.24c-2.85-.76-2.85-6.36-11.25-6.94l-.21,0-.22,0c-8.4.58-8.4,6.18-11.25,6.94a6.27,6.27,0,0,1-7-2.24c-3.18-5.2,0,0,6.11-3.9,4.13-2.64,5.18-6.12,12.39-6.11h0c7.2.35,8.26,3.47,12.4,6.11C413.07,224.56,416.25,219.36,413.07,224.56Z"/><path class="cls-6" d="M405,170c-3,.81-1.43,5.76.73,4.82a15.46,15.46,0,0,1,8.62-1.22c3.87.34,7.87,3.07,8.63,3.63s2.3.22,1.15-1.54C420.85,170.7,414.36,167.47,405,170Z"/><path class="cls-6" d="M382.78,170c3,.81,1.42,5.76-.74,4.82a15.42,15.42,0,0,0-8.61-1.22c-3.87.34-7.87,3.07-8.63,3.63s-2.3.22-1.16-1.54C366.9,170.7,373.4,167.47,382.78,170Z"/><g id="random" data-name="&lt;Répétition miroir&gt;"><g class="cls-7"><path class="cls-8" d="M402.75,198.64s4.8,2.14,8.5,1.84a13.08,13.08,0,0,0,8-4"/></g></g><g id="random2" data-name="&lt;Répétition miroir&gt;"><g class="cls-9"><path class="cls-8" d="M382.79,198.64s-4.8,2.14-8.5,1.84a13.12,13.12,0,0,1-8-4"/></g></g></g></svg>