<svg xmlns="http://www.w3.org/2000/svg" xmlns:xlink="http://www.w3.org/1999/xlink" viewBox="0 0 88 110.97"><defs><style>.cls-1,.cls-2,.cls-5,.cls-8{fill:none;}.cls-2{stroke:#000;}.cls-2,.cls-5,.cls-8{stroke-linecap:round;stroke-miterlimit:10;stroke-width:2px;}.cls-3{fill:#fff;}.cls-4{fill:#844f3d;}.cls-5{stroke:#543030;}.cls-6{fill:#423435;}.cls-7{clip-path:url(#clip-path);}.cls-8{stroke:#9e5b3e;}.cls-9{clip-path:url(#clip-path-2);}</style><clipPath id="clip-path"><rect class="cls-1" x="52.69" y="52.17" width="18.49" height="6.03"/></clipPath><clipPath id="clip-path-2"><rect class="cls-1" x="16.24" y="52.17" width="18.49" height="6.03"/></clipPath></defs><g id="Calque_6" data-name="Calque 6"><path class="cls-2" d="M53.57,46.2s2.76-1.32,8.23-1.32A21.81,21.81,0,0,1,70,46.2"/><circle class="cls-3" cx="25.02" cy="45.2" r="5.94"/><circle cx="25.47" cy="45.65" r="4"/><path class="cls-4" d="M50.22,65.12s-4.69,3.69-7.42,3.69-7-3.59-7-3.59,5.4.73,7.21.71S50.22,65.12,50.22,65.12Z"/><path class="cls-5" d="M34,77.31A25,25,0,0,0,43.71,79a23.67,23.67,0,0,0,9.43-2"/><path class="cls-6" d="M61.51,77.73a6.27,6.27,0,0,1-7,2.24c-2.85-.76-2.57-.81-11-1.39h0c-8.4.58-9.11.63-12,1.39a6.27,6.27,0,0,1-7-2.24c-3.18-5.2,0,0,6.11-3.9,4.14-2.64,10.5-1.43,12.67-.56h0c2.17-.87,8-2.08,12.12.56C61.51,77.73,64.69,72.53,61.51,77.73Z"/><path class="cls-6" d="M54.2,31.58c-3.51-.41-2.74,5.33-.13,4.89a20.1,20.1,0,0,1,9.9.76c4.26,1.22,7.52,3.52,10,3.27.92-.1,3.4,0,1.6-1.24C70,35.48,65.82,33,54.2,31.58Z"/><path class="cls-6" d="M32.49,29.25c3,.81,1.43,5.76-.73,4.82a15.46,15.46,0,0,0-8.62-1.23c-3.87.35-7.87,3.08-8.63,3.63s-2.3.22-1.15-1.53C16.62,30,23.11,26.72,32.49,29.25Z"/><g id="_Répétition_miroir_" data-name="&lt;Répétition miroir&gt;"><g class="cls-7"><path class="cls-8" d="M53.69,55.33s4.81,2.15,8.5,1.85a13.08,13.08,0,0,0,8-4"/></g></g><g id="_Répétition_miroir_2" data-name="&lt;Répétition miroir&gt;"><g class="cls-9"><path class="cls-8" d="M33.74,55.33s-4.81,2.15-8.5,1.85a13.12,13.12,0,0,1-8-4"/></g></g></g></svg>