<svg xmlns="http://www.w3.org/2000/svg" xmlns:xlink="http://www.w3.org/1999/xlink" viewBox="0 0 788 1005"><defs><style>.cls-1,.cls-4,.cls-8{fill:none;}.cls-2{fill:#fff;}.cls-3{fill:#080808;stroke:#000;}.cls-3,.cls-4,.cls-8{stroke-miterlimit:10;}.cls-4{stroke:#543030;}.cls-4,.cls-8{stroke-linecap:round;stroke-width:2px;}.cls-5{fill:#844f3d;}.cls-6{fill:#423435;}.cls-7{clip-path:url(#clip-path);}.cls-8{stroke:#9e5b3e;}.cls-9{clip-path:url(#clip-path-2);}</style><clipPath id="clip-path"><rect class="cls-1" x="402.85" y="194.66" width="18.49" height="6.03"/></clipPath><clipPath id="clip-path-2"><rect class="cls-1" x="366.41" y="194.66" width="18.49" height="6.03"/></clipPath></defs><g id="Calque_6" data-name="Calque 6"><circle class="cls-2" cx="410.65" cy="186.38" r="6.75"/><circle class="cls-2" cx="375.8" cy="186.38" r="6.75"/><circle class="cls-3" cx="375.88" cy="185.53" r="4"/><circle class="cls-3" cx="410.82" cy="185.53" r="4"/><path class="cls-4" d="M382.46,222.29a43.16,43.16,0,0,0,10.36,1.08,40.45,40.45,0,0,0,10.12-1.27"/><path class="cls-5" d="M401.77,208.61s-4.69,3.69-7.42,3.69-7-3.6-7-3.6,5.4.73,7.21.72S401.77,208.61,401.77,208.61Z"/><path class="cls-6" d="M412.38,221.61a6.27,6.27,0,0,1-7,2.24c-2.85-.76-2.85-3.15-11.25-3.73l-.21,0-.22,0c-8.4.58-8.4,3-11.25,3.73a6.27,6.27,0,0,1-7-2.24c-3.18-5.2,0,0,6.11-3.9,4.14-2.64,10.22-3.77,12.39-2.9h0c2.17-.87,8.25.26,12.39,2.9C412.38,221.61,415.56,216.41,412.38,221.61Z"/><path class="cls-6" d="M404.89,171c-3,.81-1.42,5.76.74,4.82a15.41,15.41,0,0,1,8.61-1.22c3.87.34,7.87,3.07,8.63,3.63s2.3.22,1.16-1.54C420.76,171.7,414.27,168.47,404.89,171Z"/><path class="cls-6" d="M382.69,171c3,.81,1.42,5.76-.74,4.82a15.41,15.41,0,0,0-8.61-1.22c-3.87.34-7.87,3.07-8.63,3.63s-2.3.22-1.16-1.54C366.82,171.7,373.31,168.47,382.69,171Z"/><g id="_Répétition_miroir_" data-name="&lt;Répétition miroir&gt;"><g class="cls-7"><path class="cls-8" d="M403.85,197.82s4.81,2.15,8.51,1.84a13.07,13.07,0,0,0,8-4"/></g></g><g id="_Répétition_miroir_2" data-name="&lt;Répétition miroir&gt;"><g class="cls-9"><path class="cls-8" d="M383.9,197.82s-4.8,2.15-8.5,1.84a13,13,0,0,1-8-4"/></g></g></g></svg>