<svg xmlns="http://www.w3.org/2000/svg" xmlns:xlink="http://www.w3.org/1999/xlink" viewBox="0 0 788 1005"><defs><style>.cls-1,.cls-7{fill:none;}.cls-2{fill:#fff;}.cls-3{fill:#080808;}.cls-4{fill:#844f3d;}.cls-5{fill:#423435;}.cls-6{clip-path:url(#clip-path);}.cls-7{stroke:#9e5b3e;stroke-linecap:round;stroke-miterlimit:10;stroke-width:2px;}.cls-8{clip-path:url(#clip-path-2);}.cls-9{fill:#4da0ff;}</style><clipPath id="clip-path"><rect class="cls-1" x="402.97" y="193.95" width="18.49" height="6.03"/></clipPath><clipPath id="clip-path-2"><rect class="cls-1" x="366.53" y="193.95" width="18.49" height="6.03"/></clipPath></defs><g id="Calque_6" data-name="Calque 6"><path class="cls-2" d="M417.29,186.55a6.75,6.75,0,0,1-13.5,0Z"/><path class="cls-2" d="M382.44,186.55a6.75,6.75,0,0,1-13.5,0Z"/><path class="cls-3" d="M379.77,187.13a4,4,0,0,1-8,0,2.78,2.78,0,0,1,.05-.58h7.9A2.78,2.78,0,0,1,379.77,187.13Z"/><path class="cls-3" d="M414.7,187.13a4,4,0,0,1-8,0,2.78,2.78,0,0,1,.05-.58h7.9A2.78,2.78,0,0,1,414.7,187.13Z"/><path class="cls-4" d="M401.66,208.71s-4.7,3.69-7.43,3.69-7-3.59-7-3.59,5.4.73,7.21.72S401.66,208.71,401.66,208.71Z"/><path class="cls-5" d="M412.5,221.77a6.27,6.27,0,0,1-7,2.24c-2.85-.76-2.85-3.15-11.25-3.73l-.21,0-.22,0c-8.4.58-8.4,3-11.25,3.73a6.27,6.27,0,0,1-7-2.24c-3.18-5.2,0,0,6.11-3.9,4.14-2.64,10.22-3.77,12.39-2.9h0c2.17-.87,8.25.26,12.39,2.9C412.5,221.77,415.68,216.57,412.5,221.77Z"/><path class="cls-5" d="M405.55,175.39c-3.5-.42-2.73,5.32-.12,4.89a19.94,19.94,0,0,1,9.89.76c4.27,1.22,7.52,3.52,10,3.27.92-.1,3.4,0,1.6-1.24C421.4,179.28,417.18,176.77,405.55,175.39Z"/><path class="cls-5" d="M381.57,175.39c3.5-.42,2.73,5.32.13,4.89a20,20,0,0,0-9.9.76c-4.27,1.22-7.52,3.52-10,3.27-.92-.1-3.4,0-1.6-1.24C365.73,179.28,369.94,176.77,381.57,175.39Z"/><g id="_Répétition_miroir_" data-name="&lt;Répétition miroir&gt;"><g class="cls-6"><path class="cls-7" d="M404,197.11s4.81,2.15,8.5,1.84a13.14,13.14,0,0,0,8-4"/></g></g><g id="_Répétition_miroir_2" data-name="&lt;Répétition miroir&gt;"><g class="cls-8"><path class="cls-7" d="M384,197.11s-4.81,2.15-8.5,1.84a13.09,13.09,0,0,1-8-4"/></g></g><ellipse class="cls-9" cx="369.39" cy="196.96" rx="3.87" ry="4.38"/></g></svg>