<svg xmlns="http://www.w3.org/2000/svg" viewBox="0 0 200 200"><defs><style>.cls-1{fill:#7a919e;}.cls-2{fill:#d48f72;}.cls-3{fill:#a85d3d;}.cls-4{fill:#95acba;}.cls-5{fill:#9599ba;}.cls-6{fill:#605b5b;}.cls-7{fill:#bb653c;}.cls-8{fill:#d79072;}.cls-9{fill:#adcbde;}.cls-10,.cls-11,.cls-13{fill:none;}.cls-10{stroke:#839ba5;}.cls-10,.cls-13{stroke-miterlimit:10;}.cls-12{fill:#fff;}.cls-13{stroke:#fff;stroke-width:5px;}</style></defs><g id="Calque_7" data-name="Calque 7"><polygon points="18.95 180.36 19 180.34 18.95 180.32 18.95 180.36"/><polygon points="19 180.34 19.04 180.36 19.04 180.32 19 180.34"/><polygon points="18.95 180.36 19 180.34 18.95 180.32 18.95 180.36"/><polygon points="19 180.34 19.04 180.36 19.04 180.32 19 180.34"/><polygon class="cls-1" points="49.37 49.37 49.77 36.12 77.5 35.83 77.34 49.37 49.37 49.37"/><path class="cls-2" d="M118.59,72.29c-.27,17.6-12,15.21-16.9,19.39-5.76,4.93-3.79,22.94-7.87,29.35-1.13,1.76-5.21,4.63-7.25,4.16-5.73-1.32-11-14.09-15.94-17.3-2.9-1.89-10.81-1.66-13.84,0-5.16,2.82-10.21,16-15.94,17.3-2,.47-6.12-2.4-7.25-4.16-4.08-6.41-2.11-24.42-7.88-29.35C20.84,87.5,9.1,89.89,8.82,72.29c-.19-12.19,16-17.12,16-17.12L43.27,46A14.45,14.45,0,0,0,51.2,34.89,13.56,13.56,0,0,0,51.31,33l0-3.37H75.88l0,3V34c0,.15,0,.31,0,.46h0c0,.3,0,.6.07.9a13.36,13.36,0,0,0,.43,2.09,13.05,13.05,0,0,0,6.74,8.07l18.58,9.21a10.85,10.85,0,0,0,1.45.61C106.28,56.48,118.76,61.59,118.59,72.29Z"/><polygon class="cls-2" points="76.25 51.74 63.64 66.64 56.85 58.53 51.17 51.74 51.5 32.68 51.55 29.6 75.87 29.6 75.87 29.71 75.92 32.57 75.95 34.5 75.95 34.51 75.96 35.1 76.01 38.21 76.25 51.74"/><path class="cls-3" d="M76.48,37.64l-.47.57c-2.36,2.9-13.22,16.07-19.16,20.32-1.46,1-2.63,1.55-3.3,1.23-3.1-1.49-6.8-16.09-6.8-16.09a10.4,10.4,0,0,0,.83-.89,17.73,17.73,0,0,0,3.56-7.59l.06-.3c.12-.63.22-1.37.3-2.21s.16-2,.22-3.08H75.87v.11l0,5,.07.35.06.31.43,2.09Z"/><path class="cls-4" d="M92.06,75.37c5.46,11.46,18.77,17.78,18.77,17.78s24.28,15,32.29,20.15c3.78,2.42,11.56,7.6,17.86-1.65h0c5.19-7.63-1.29-13.92-4.67-16.59-6.88-5.42-22-15-27.74-21.43-4.3-4.81-10.68-15.63-21.4-18.32,0,0-6.91-1.44-12.93,5.51L94,61.1a13.14,13.14,0,0,0-1.94,14.27Z"/><path class="cls-4" d="M25.56,148.24l.74-59.79a2.24,2.24,0,0,0-.1-.68l-8.77-28a2.18,2.18,0,0,1,1.07-2.58L45.12,43.37a2.17,2.17,0,0,1,2.68.55L64.54,64.47A2.18,2.18,0,0,0,68,64.39L81.92,45.52a2.17,2.17,0,0,1,2.66-.68l26.63,12.35a2.18,2.18,0,0,1,1.25,2.19l-4.6,44.51a2.4,2.4,0,0,1-.12.53L96.05,136.09a2.15,2.15,0,0,0,.3,2.06l2.32,3.06a12.76,12.76,0,0,1,1.8,12.13l-.31.84a2.16,2.16,0,0,1-2,1.42l-68.65,1.09a2.17,2.17,0,0,1-2-1.3l-.89-2.07A12.35,12.35,0,0,1,25.56,148.24Z"/><path class="cls-5" d="M92.12,119.55l.55,4.65-3.93,2.64.52,1.41C77,134.25,46.63,149,46.35,149.1c-.73.27-5,2.19-7.38,2.19-4,0-13.46-5.57-13.46-5.57s-1-6.39.08-6.14S82,118.53,83.27,118.84,92.12,119.55,92.12,119.55Z"/><rect class="cls-6" x="88.88" y="67.59" width="103.38" height="71.68" rx="10.58" transform="translate(-11.13 17.15) rotate(-6.72)"/><path class="cls-2" d="M189.28,126.11h1.13a3.11,3.11,0,0,1,3.11,3.11v7.08a3.11,3.11,0,0,1-3.11,3.11h0a3.11,3.11,0,0,1-3.11-3.11v-8.21a2,2,0,0,1,2-2Z" transform="translate(-38.36 93.44) rotate(-25.13)"/><path class="cls-7" d="M160.74,137.08,179.29,134l-1,9.6a1.67,1.67,0,0,1-2.08,1.46L171.88,144a19,19,0,0,1-7.84-4.06Z"/><path class="cls-2" d="M175.09,126.52h4a8.23,8.23,0,0,1,8.23,8.23v1.42a7.77,7.77,0,0,1-7.77,7.77h-3.28a4.94,4.94,0,0,1-4.94-4.94v-8.67a3.8,3.8,0,0,1,3.8-3.8Z" transform="translate(-40.46 88.95) rotate(-25.13)"/><path class="cls-2" d="M89.26,108.49l6,9.21,5.25-1L111.55,115a7.64,7.64,0,0,0,6-5l3.09-8.83,13.66-2a4,4,0,0,0,3.34-3.89v-.55l-16,1.16.87-2.28-8.13.14-4.76,0a14.27,14.27,0,0,0-7.36,2.09L98,98.43A35.33,35.33,0,0,0,95,102.28l-2.49,3.43"/><path class="cls-8" d="M24.56,131.61c-1.76-9,7.93-13.81,11.56-15.37s11.65-2.92,15.6-3.6c10.1-1.73,27.28-3.35,37.13-5.18,6.48-1.2,9.86-2,11.74,1.91,1.7,3.58-1.9,6.28-4.08,7.58-8.94,5.33-28.26,16.53-38.51,20.56-4.21,1.65-13,4.21-17.55,4.41C27.81,142.46,25.07,134.21,24.56,131.61Z"/><path class="cls-4" d="M28.87,52.92S9.06,60.4,5.57,65c-3.36,4.4-1.42,22.44-1.42,22.44s7.62,43.13,17.34,53.18c2.28,2.36,10.29,4.55,14.38,5.55a7.12,7.12,0,0,0,4.66-.44l46.24-20.92-3.88-18.33-41.78,5.45-8.27-31"/><polygon class="cls-9" points="45.19 44.55 49.77 36.12 62.45 57.44 55.15 68.63 45.19 44.55"/><polygon class="cls-9" points="83.88 45.39 77.5 35.83 68.01 57.1 76.58 67.79 83.88 45.39"/><polygon class="cls-5" points="62.45 57.44 66.2 66.64 61.15 62.47 55.15 68.63 62.45 57.44"/><polygon class="cls-5" points="66.2 66.64 68.01 57.1 76.58 67.79 70.45 62.95 66.2 66.64"/><path class="cls-10" d="M32.75,79.81c.62,0,8.36,32.1,8.36,32.1l41.78-5.45,3.88,18.33"/><path class="cls-5" d="M26.3,165.76l.29-12.44,73.57.86-.43,10.57a2.61,2.61,0,0,1-2.61,2.72H27.76A1.48,1.48,0,0,1,26.3,165.76Z"/><line class="cls-11" x1="171.74" y1="74.57" x2="171.84" y2="74.42"/><path class="cls-12" d="M167.53,81.23s-8,5.91-8.09,6.06l9.26,3.61Z"/><polyline class="cls-13" points="109.02 137.24 121.33 122.4 128.2 126.53 133.65 113.71 142.74 117.7 147.08 105.62 158.69 102.3 165.45 86.07"/></g></svg>