<?xml version="1.0" encoding="utf-8"?>
<!-- Generator: Adobe Illustrator 26.0.3, SVG Export Plug-In . SVG Version: 6.00 Build 0)  -->
<svg version="1.1" id="Calque_1" xmlns="http://www.w3.org/2000/svg" xmlns:xlink="http://www.w3.org/1999/xlink" x="0px" y="0px"
	 viewBox="0 0 788 1005" style="enable-background:new 0 0 788 1005;" xml:space="preserve">
<style type="text/css">
	.st0{fill:#1C1938;}
	.st1{fill:#FF9603;}
	.st2{fill:#D8C5A7;}
	.st3{fill:#D48F72;}
	.st4{fill:#B8775C;}
	.st5{fill:#E1DBC4;}
	.st6{fill:#B22947;}
	.st7{fill:#87213C;}
	.st8{fill:#FEBC6E;}
	.st9{fill:#FFFFFF;}
	.st10{fill:#35912D;}
	.st11{fill:#E0AA4B;}
	.st12{fill:#7097BA;}
	.st13{fill:#BA3E35;}
</style>
<g>
	<path class="st0" d="M163,402.9c39.4,13.3,77.6,30.3,113.8,50.8C237.2,440.5,199.1,423.4,163,402.9L163,402.9z"/>
</g>
<path class="st1" d="M163.6,397.9c-5.2-0.5-11.3,1.6-12.7,3.9c0,0,5.8-0.1,7.2,1.5c0.7,0.7,1,1.9,1.5,3.2
	C163.1,404.4,161.2,400.7,163.6,397.9z"/>
<path class="st2" d="M159.7,406.3c0.6,1.4,1.7,3.1,4,3.8c4.1,1.4,6.9-1.5,7.3-2.4s-0.2-8.2-5.6-9.6c-0.5-0.2-1.1-0.3-1.7-0.3
	C161.2,400.7,163.1,404.4,159.7,406.3z"/>
<path class="st3" d="M235.3,414.3l-1.2,3.3c-0.3,0.8-0.1,1.7,0.5,2.3c0.8,0.7,1.6,1.6,2.3,2.4c1,1.2,3.7,4,4.6,5
	c0.3,0.3,0.4,0.5,0.5,0.8l0,0c0.4,1.2-0.4,2.5-1.6,2.7c-3.7,0.7-6,1.4-11.4,1.8c-4.8,0.4-15.9-2.3-20.6-4.2c-2.6-1-6.7-5.3-9.4-5.7
	c-0.9-0.1-2.5,0.5-4,1.1s-1.7,2.5-0.5,3.5l8.1,7c0.2,0.1,0.3,0.3,0.5,0.3c2.3,1.1,19.3,8.9,25.3,11.1c7,2.5,21.7,6.1,29,6.3
	c2.3,0,7,0.1,9.7-3.8c2.3-3.3,0.4-7.2-1-9.6c-1.6-3-20.7-19.6-27.5-25.3C237.5,412.5,235.7,412.9,235.3,414.3z"/>
<g id="Calque_1_00000135671376874874536320000007383502615432167837_">
	<g id="Calque_12">
		<path class="st3" d="M465.8,459.5c0,0-0.1,3.9-9.3,10c-10.9,7.3-6.9,21.4-8.4,28.7c-1,4.9-9.9,17.3-13.7,16.6
			c-10.8-2-16.9-16.2-26.7-20.4c-5.7-2.4-8.2-4.7-13.7-2c-5.5-2.8-8-0.5-13.7,2c-9.8,4.2-15.8,18.5-26.7,20.4
			c-3.9,0.7-12.7-11.7-13.7-16.6c-1.5-7.3,2.5-21.4-8.4-28.7c-9.2-6.1-11.6-11-11.6-11c-7-17.1-6.1-26.7,3.9-29.7s29.4-7,38.6-10.1
			c4.7-1.6,8.5-3.4,10.6-5.8l1.6-37.3l18.3-0.6h2.2l14.3,0.5l4,0.1l0.7,15.7l0.6,12.9v0.5l0.4,8.2c0.4,0.5,0.9,0.9,1.5,1.3
			c2.7,2,6.8,3.2,11.6,4.2c6.5,1.3,30.5,8,37.8,9.4c3.1,0.6-2.8-0.9,0,0C475.8,430.6,472.8,442.4,465.8,459.5z"/>
		<path class="st4" d="M416.5,414.1c-5.4,4.2-18.8,11.4-21.3,12.6c-8.2,3.9-28.3-5-32.8-8.1c4.7-1.6,8.5-3.4,10.6-5.8l1.6-37.3h38.8
			l1.2,28.5v0.5l0.4,8.2C415.4,413.2,415.9,413.7,416.5,414.1z"/>
	</g>
</g>
<path class="st5" d="M444.4,563.3c14.8-35.4,22.7-134,13-137c-3.4-1-27.2,14-62.7,15c-39.1,1.1-63.8-23.7-66.9-10.3
	c-4.5,19.1,8.9,118.7,16.1,146.5c7.5,29.1,51.4,1.4,51.4,1.4S432.8,591.1,444.4,563.3z"/>
<path class="st5" d="M344.6,434.1c9,13.5-0.9,21.2-4.1,28c-5.1,10.9-2.7,33.4-4.6,44.5c-0.9,5.2-5.9,17.3-18,16.9l0,0
	c-15.5-1-16.1-14.1-15.9-19.1c0.3-10.3-4.4-53,3.6-64.7c0,0,7.2-12.2,21-13.2C335.4,425.8,340.9,428.5,344.6,434.1L344.6,434.1z"/>
<path class="st3" d="M324,517c-10.3,5.8-17.6,0.3-22.9-5.2c-3.7-3.9-34.2-45.3-42.6-56.4c-4.8-6.3-7.5-9.5-2.1-12.7
	c4.9-3,12.6,1.8,15.6,3.6c28.4,17.1,48.4,31.2,58.3,50.8C336.7,509.9,327.5,515.1,324,517z"/>
<path class="st5" d="M445.8,433.4c-9,13.5,0.9,21.2,4.1,28c5.1,10.9,2.7,33.4,4.6,44.5c0.9,5.2,5.9,17.3,18,16.9l0,0
	c15.5-1,16.1-14.1,15.9-19.1c-0.3-10.3,4.4-53-3.6-64.7c0.6,1-7.9-12.2-21-13.2C455,425.1,449.5,427.9,445.8,433.4L445.8,433.4z"/>
<path class="st6" d="M344.7,428.4l7.7,53.5c0.2,1.2,0,2.3-0.3,3.4l-20.7,57.3c-0.2,0.5-0.3,1-0.4,1.5l-7,54.1
	c-0.2,1.5,0.1,3,0.8,4.3l1,1.9c1.2,2.3,3.6,3.7,6.2,3.7h121.2c3.2,0,6.1-2.2,6.9-5.3l1.8-7c0.2-0.9,0.3-1.9,0.1-2.8l-7.7-50.6
	c0-0.3-0.1-0.6-0.2-1l-17.6-58.9c-0.3-1.1-0.4-2.2-0.2-3.3l9.5-52.8c0.7-3.6-1.5-7.1-5.1-8.1l0,0c-4-1.1-8.1,1.5-8.9,5.6l-9.3,51.1
	c-0.6,3.4-3.5,5.8-7,5.8H374c-3.5,0-6.5-2.6-7-6.1l-6.6-48.7c-0.6-4.2-4.6-6.9-8.7-5.9l-1.6,0.4
	C346.5,421.4,344.2,424.8,344.7,428.4z"/>
<path class="st7" d="M423.7,599.6h-60.1c-7.9,0-13.8-7.3-12.1-15l9.9-46.8c1.2-5.7,6.3-9.8,12.1-9.8h40.4c5.9,0,10.9,4.1,12.1,9.8
	l9.9,46.8C437.5,592.3,431.6,599.6,423.7,599.6z"/>
<path class="st3" d="M403.7,583.3l3.5,10c0.1,0.2,0.2,0.4,0.2,0.6l7.4,14.2c0.3,1.9,2.2,3.2,4.1,2.7c0.3-0.1,0.7-0.3,1-0.4
	c1.2-0.9,1.6-2.5,1-3.9l-4.4-10c0.1-2.4,2.6-4,4.8-3l4,1.8c0.6,0.3,1.1,0.8,1.5,1.4l4.8,10.2c1,1.5,1,3.4,0.3,5l-2.6,7.4
	c-0.5,1.2-0.3,2.9,0.9,3.7c1.5,1,3.5,0.4,4.3-1.1c0,0,3.6-7.6,4.9-10.4c0.2-0.4,0.4-1,0.8-1.4c0.6-0.9,0.8-2.1,0.3-3.2l-5.6-17l0,0
	c-0.4-1-1-2-1.7-2.9l-17.9-24.1l-1-1.1c-1.5-1.9-4.7,1.1-7,3.8c-1.6,1.9-2.7,4.2-3.1,6.6l-0.9,4.8
	C402.8,579.1,403,581.2,403.7,583.3z"/>
<path class="st8" d="M345.2,609.7c-0.5,22.2,17.3,40.3,39.4,40.3c4.4,0,8.5-0.7,12.4-2c3.6-1.2,6.3-4.2,7.1-7.9
	c2.5-11.5-2.6-28.9,2.8-31.1c4-1.7,7.3,2.6,10.7,5c2.7,1.9,6.5,0,6.5-3.3l0,0c0-22-18.2-39.9-40.3-39.4
	C362.8,571.8,345.8,588.8,345.2,609.7z M412.2,603.3c0-2.4,1.9-4.4,4.4-4.4c2.4,0,4.4,1.9,4.4,4.4s-1.9,4.4-4.4,4.4
	S412.2,605.8,412.2,603.3z"/>
<path class="st3" d="M412.9,604l3,5.9c0.3,0.7,0.6,1.4,0.9,2.1c0.6,1.5,2.2,2.4,3.8,1.9c0.3-0.1,0.7-0.3,1-0.4
	c1.2-0.9,1.6-2.5,1-3.9l-3.8-7.8C416.7,602.7,414.9,603.3,412.9,604z"/>
<g>
	<g>
		<path class="st9" d="M399.9,606.4c2.9,0.5,3.5-10.1,0-10.6c-1.5-0.3-3.3-1-4.8-0.3c-3.5,1.7-3.2,7.3-2.6,10.3
			c0.6,2.9,1.1,5.8,1.7,8.7c0.3,1.6,1.7,3.7,3.2,1.9c1.7-1.8,1.3-5.2,0.9-7.3c-0.4-2.4-0.9-4.6-1.3-6.9c-0.1-0.5-0.1-1-0.3-1.6
			c-0.1-0.2-0.1-0.3-0.1-0.3c-0.1,1.8-0.2,3.8-0.3,5.6c0.2-0.1,0.4,0,0.6,0C397.8,606.2,398.9,606.2,399.9,606.4L399.9,606.4z"/>
	</g>
</g>
<g>
	<g>
		<path class="st10" d="M366,606.8c-2.6-1.7-4,8.5-1.3,10.3c1.7,1.2,3.5,2.4,5.2,3.7c0.2-3.6,0.4-7.1,0.6-10.6
			c-3.6-0.4-7.3-0.9-10.9-1.3c-3.1-0.3-3,9.4-0.6,10.6c5.1,2.5,10.1,5.1,15.2,7.6c0.2-3.6,0.4-7.1,0.6-10.6
			c-4.2,0.1-8.4,0.2-12.6,0.3c-3.4,0.1-3.2,10.8,0,10.8c4.2-0.1,8.4-0.2,12.6-0.3c3.3-0.1,3.1-9.4,0.6-10.6
			c-5.1-2.5-10.1-5.1-15.2-7.6c-0.2,3.6-0.4,7.1-0.6,10.6c3.6,0.4,7.3,0.9,10.9,1.3c1.8,0.3,2.3-3.5,2.4-4.6c0.2-1.7,0-4.7-1.7-5.9
			C369.5,609.3,367.7,608.1,366,606.8L366,606.8z"/>
	</g>
</g>
<g>
	<g>
		<path class="st11" d="M384.4,584.5c-0.3-1.3-1.5-3.1-2.8-1.7c-1.3,1.7-1.1,4.4-0.7,6.3c0.5,2.4,1,4.8,1.6,7.3
			c0.3,1.2,1.5,3.2,2.8,1.7c1.3-1.7,1.1-4.4,0.7-6.3C385.5,589.4,385,587,384.4,584.5L384.4,584.5z"/>
	</g>
</g>
<g>
	<g>
		<path class="st12" d="M362.7,594.2c0.8-2.3,1-5.2,0-7.6c-0.8-1.7-2.6-2.1-3.3,0c-1.7,4.7-1.7,11.4,2,15.1
			c2.7,2.7,7.1,3.4,10.7,4.5c3.6,1.1,4.1-9.4,1.2-10.4c-2.1-0.7-4.1-1.3-6.1-2c-1.2-0.3-2.6-0.8-3.6-1.7c-0.3-0.3-0.4-0.4-0.6-0.7
			c-0.3-0.3-0.1,0.4,0,0.1c0.1-0.5,0.1,1,0.1,1.1c-0.1-1.1-0.1,1.2,0,0.3C362.7,595.1,363.5,591.5,362.7,594.2L362.7,594.2z"/>
	</g>
</g>
<g>
	<g>
		<path class="st13" d="M390.9,632.1c1.8,1.2,2.8-2.9,3-3.7c0.3-2,0.2-5.3-1.7-6.6c-2.6-1.8-6.4-3-8.8-0.3c-2.9,3.1-3.5,8-3.8,12
			c-0.1,1.1,0.3,5.4,2.4,5.3c2.1,0,2.3-3.9,2.4-5.3c-0.2,2.5-0.1,1,0,0.4c0,0,0.1-1,0-0.3s0.2-0.6,0.2-0.6c0.1-0.4,0.4-1.7,1.3-2.2
			C387.3,629.9,389.7,631.2,390.9,632.1L390.9,632.1z"/>
	</g>
</g>
<path class="st3" d="M475.1,496.6c-10.4-5.5-17.6,0.1-22.7,5.8c-3.6,4-33,46.1-41.1,57.5c-4.6,6.4-7.3,9.7-1.8,12.8
	c4.9,2.8,12.5-2.1,15.5-4c27.9-17.8,47.6-32.5,56.9-52.3C487.9,503.4,478.6,498.5,475.1,496.6z"/>
</svg>
