<?xml version="1.0" encoding="utf-8"?>
<!-- Generator: Adobe Illustrator 26.0.3, SVG Export Plug-In . SVG Version: 6.00 Build 0)  -->
<svg version="1.1" id="Calque_1" xmlns="http://www.w3.org/2000/svg" xmlns:xlink="http://www.w3.org/1999/xlink" x="0px" y="0px"
	 viewBox="0 0 515.9 265.7" style="enable-background:new 0 0 515.9 265.7;" xml:space="preserve">
<style type="text/css">
	.st0{fill:#89777A;}
	.st1{fill:#8E5736;}
	.st2{fill:#B8775C;}
	.st3{fill:#D48F72;}
	.st4{fill:#F2D5BD;}
	.st5{fill:#A7B599;}
	.st6{fill:#C4D6B4;}
	.st7{fill:#8E7052;}
	.st8{fill:#493C2F;}
</style>
<path class="st0" d="M232.5,13.1c0,0,12-3.7,28.7-3.8c16.7-0.1,28.3,3.8,28.3,3.8l6.2,20.6l-50.9,13.4L232.5,13.1z"/>
<g id="Calque_1_00000129885711243947108220000015607203155872324286_">
	<g id="Calque_12">
		<path class="st1" d="M333.9,69.1c0,0-0.1,3.9-9.3,10c-10.9,7.3-6.9,21.4-8.4,28.7c-1,4.9-9.9,17.3-13.7,16.6
			c-10.8-2-16.9-16.2-26.7-20.4c-5.7-2.4-8.2-4.7-13.7-2c-5.5-2.8-8-0.5-13.7,2c-9.8,4.2-15.8,18.5-26.7,20.4
			c-3.9,0.7-12.7-11.7-13.7-16.6c-1.5-7.3,2.5-21.4-8.4-28.7c-9.2-6.1-11.6-11-11.6-11c-7-17.1-6.1-26.8,3.9-29.8s29.4-7,38.6-10.1
			c4.7-1.6,8.5-3.4,10.6-5.8l1.6-37.3l18.3-0.6h2.2l14.3,0.5l4,0.1l0.7,15.7l0.6,12.9v0.5l0.4,8.2c0.4,0.5,0.9,0.9,1.5,1.3
			c2.7,2,6.8,3.2,11.6,4.2c6.5,1.3,27,11.7,34.3,13.1c3.1,0.6,0.6,5.2,3.4,6.1C343.8,49.9,340.9,51.8,333.9,69.1z"/>
		<path class="st2" d="M284.6,23.6c-5.4,4.2-18.8,11.4-21.3,12.6c-8.2,3.9-28.3-5-32.8-8.1c4.7-1.6,8.5-3.4,10.6-5.8l1.6-37.3h38.8
			l1.2,28.6v0.5l0.4,8.2C283.5,22.8,284,23.3,284.6,23.6z"/>
	</g>
</g>
<path class="st3" d="M212.2,60.1c-3.9,18.3-16.5,20.9-23.8,26.2c-11.6,8.3-35.4,42.4-45,52.6c-5.4,2.5-11.8,1.6-16.4-2.2l0,0
	c-9.8-9-2.7-20.2,1.2-25.3c7.9-10.2,26-29.2,32-40.5c4.5-8.4,7-17.5,21.2-25.2c0,0,14.1-8.6,24.1-2.5
	C212.1,46.9,213.8,52.6,212.2,60.1L212.2,60.1z"/>
<path class="st3" d="M145.8,125.8c-2.8-14.9-15.2-13.3-22-13.1c-7.3,0.2-42.8,10.1-61.6,14.2c-10.6,2.3-16.3,3.3-15.3,9.3
	c0.9,5.5,12.1,6.2,16.5,6.5c41.4,3,50.1,2.6,68.5,0C151.8,139.8,146.5,129.6,145.8,125.8z"/>
<path class="st3" d="M27.3,123.2c-3,0.8-6.5,1.7-9.4,2.4c-2.6,0.6-3.2,4.1-0.9,5.4c0.6,0.4,1.2,0.6,1.6,0.8c1.3,0.4,6-0.6,8.1-1.1
	c0.6-0.1,1.3-0.1,1.9,0.2L31,132c1.8,0.8,2.3,3,1.1,4.5c-1.1,1.4-2.2,2.7-4.4,4.6c-2.8,2.4-11.4,5.3-15.5,6
	c-2.3,0.4-7.7-0.7-9.6,0.2c-0.2,0.1-0.3,0.2-0.5,0.4c-1.6,1.7-0.4,4.5,1.9,4.8l8.6,1.1c0.2,0,0.5,0,0.7,0c2.6-0.3,17.8-2.3,22.9-3.4
	c6-1.3,17.5-5.2,22.1-8.2c1.5-1,4.3-3,3.3-6.8c-0.9-3.3-4.6-5.1-7.1-6.1c-3.4-1.4-22-5.2-25.9-6C28.1,122.9,27.7,123.1,27.3,123.2z"
	/>
<path class="st3" d="M303.8,59.8c3.9,18.3,16.5,20.9,23.8,26.2c11.6,8.3,33.7,41.9,43.3,52.1c4.5,4.8,10.1,4.9,18-1.7l0,0
	c9.8-9,2.7-20.2-1.2-25.3c-7.9-10.2-26-29.2-32-40.5c-4.5-8.4-7-17.5-21.2-25.2c0,0-14.1-8.6-24.1-2.5
	C303.9,46.8,302.2,52.3,303.8,59.8L303.8,59.8z"/>
<path class="st3" d="M370.1,125.6c2.8-14.9,15.2-13.3,22-13.1c7.3,0.2,42.8,10.1,61.6,14.2c10.6,2.3,16.3,3.3,15.3,9.3
	c-0.9,5.5-12.1,6.2-16.5,6.5c-41.4,3-47.1,0.8-68.5,0C363.9,141.6,369.4,129.3,370.1,125.6z"/>
<path class="st3" d="M488.7,122.9c2.9,0.8,6.4,1.7,9.4,2.3c2.6,0.6,3.2,4.1,0.9,5.5c-0.6,0.4-1.2,0.6-1.6,0.7c-1.3,0.4-6-0.6-8-1.1
	c-0.6-0.1-1.3-0.1-1.9,0.2l-2.3,1c-1.8,0.8-2.3,3.1-1.1,4.6c1.1,1.4,2.1,2.7,4.3,4.6c2.8,2.4,11.4,5.3,15.5,6
	c2.3,0.4,7.7-0.7,9.6,0.2c0.2,0.1,0.3,0.2,0.5,0.4c1.5,1.7,0.4,4.5-1.9,4.8l-8.6,1.1c-0.3,0-0.5,0-0.8,0c-2.6-0.3-17.8-2.3-22.9-3.4
	c-6-1.3-17.5-5.2-22.1-8.2c-1.5-1-4.3-3-3.3-6.8c0.9-3.3,4.6-5.1,7.1-6.1c3.5-1.4,22-5.2,25.9-6
	C487.7,122.8,488.2,122.8,488.7,122.9z"/>
<path class="st4" d="M170.4,129.8c-1.9-1.8-38.9-37.9-35.1-40.5c3.4-2.3,3.6-2.4,31-36.2c6.5-8.1,15.6-13.7,25.7-16l34.4-7.8
	l30.9,48.1L170.4,129.8z"/>
<path class="st5" d="M225.3,35.8c-0.3-0.4,3.5-4.6,3.7-5s25.1,13.3,25.7,13.9s7.6,5.6,7.6,5.6s20-12.9,20.6-12.9s11.6,1.6,10.1,2.1
	s-15.1,209.5-15.1,209.5s-54.4-3.6-54.6-3.1C206.3,281.5,225.3,35.8,225.3,35.8z"/>
<path class="st4" d="M344.4,127.1c1.9-1.8,38.9-37.9,35.1-40.5c-2.5-1.7-19.8-22.6-31.1-36.5c-6.5-7.9-15.4-13.5-25.4-15.9
	l-31.2-7.3l9.2,15.3l-36.9,39.1L344.4,127.1z"/>
<path class="st6" d="M221.8,36.3l29,38c3.2,4.2,3.1,9.9-0.2,14l0,0c-4.3,5.3-6.8,11.9-7.3,18.7c-0.8,10.6-1.9,27.6-2.5,43.1
	c-0.2,4.8-3.5,73.4-1.7,77.3c2.6,5.7,6.5,11.1,9.6,14.9c3.6,4.3,3.5,10.6-0.3,14.8c-2.4,2.8-6.1,6.4-11.8,11.7
	c-6.8,6.3-14.5,11.8-23.8,9.3l-23.5-6.3c-5.1-1.4-8.6-6.1-8.4-11.4c4.8-134.6,4.8-134.2,4.7-139c0-3.5,5-56.5,7-77.2
	c0.5-4.9,4-8.9,8.8-10l8.8-2C214.6,31.2,219.1,32.8,221.8,36.3z"/>
<path class="st6" d="M301.9,28.6l-48.3,64.2c-2.9,3.8-4.5,8.4-4.8,13.2c-1.5,26.7-6.2,117.6-4.2,123.8c1.7,5.1,24.1,28.9,37,42.4
	c5.7,5.7,14,8,21.7,5.8l26.4-9.2c7.7-2.7,12.7-10.2,12.2-18.4c-2.3-35.3-8.3-126.4-8.3-130c0-4.4-7.8-86.4-7.8-86.4L301.9,28.6z"/>
<path class="st4" d="M202.7,204.3h28.6c2.7,0,4.9,2.2,4.9,4.9l0,0c0,2.7-2.2,4.9-4.9,4.9h-28.6c-2.7,0-4.9-2.2-4.9-4.9l0,0
	C197.8,206.5,200,204.3,202.7,204.3z"/>
<path class="st4" d="M284.9,202.1h35.2c2.7,0,4.9,2.2,4.9,4.9v1.9c0,2.7-2.2,4.9-4.9,4.9h-35.2c-2.7,0-4.9-2.2-4.9-4.9V207
	C280,204.3,282.2,202.1,284.9,202.1z"/>
<path class="st0" d="M253.7,50.1c0.4,0,8.8,5.8,8.8,5.8l9.6-7.2l-3.6-13.1l-5.4,1.1c0,0-6.5-2.2-7.3-1.1S253.7,50.1,253.7,50.1z"/>
<polygon class="st4" points="225.3,30.9 232.5,13.1 263.1,36.7 252.3,59.4 "/>
<polygon class="st4" points="301,30.9 289.5,13.1 263.1,36.7 273.9,59.4 "/>
<path class="st4" d="M176,130.6l-5.9,5c-2.1,1.8-5.2,1.6-7.2-0.3l-37.2-38c-2.1-2.1-2-5.6,0.2-7.6l5.8-5.3c2.1-1.9,5.4-1.8,7.3,0.2
	l37.4,38.3C178.5,125,178.3,128.6,176,130.6z"/>
<path class="st4" d="M341.3,130.3l5.8,4.9c2.1,1.8,5.2,1.6,7.1-0.3l37.1-37.2c2.2-2.2,2-5.7-0.3-7.7l-6.3-5.5
	c-2.1-1.8-5.3-1.7-7.3,0.3l-36.7,37.7C338.8,124.6,339,128.3,341.3,130.3z"/>
<ellipse class="st7" cx="257.3" cy="113.1" rx="3.6" ry="3.4"/>
<ellipse class="st8" cx="255.9" cy="148.6" rx="3.6" ry="3.4"/>
<ellipse class="st8" cx="254.5" cy="183.1" rx="3.6" ry="3.4"/>
</svg>
