<?xml version="1.0" encoding="utf-8"?>
<!-- Generator: Adobe Illustrator 26.0.3, SVG Export Plug-In . SVG Version: 6.00 Build 0)  -->
<svg version="1.1" id="Calque_1" xmlns="http://www.w3.org/2000/svg" xmlns:xlink="http://www.w3.org/1999/xlink" x="0px" y="0px"
	 viewBox="0 0 788 1005" style="enable-background:new 0 0 788 1005;" xml:space="preserve">
<style type="text/css">
	.st0{fill:#495656;}
	.st1{fill:#D48F72;}
	.st2{fill:#B8775C;}
	.st3{fill:#D68F72;}
	.st4{fill:#4E6566;}
	.st5{fill:#277A9B;}
	.st6{fill:#293C51;}
	.st7{fill:#22677C;}
	.st8{fill:#AFAFAF;}
	.st9{fill:#898989;}
	.st10{fill:#606060;}
</style>
<path class="st0" d="M355.6,417.6c0,0,17.1-4.9,33.8-5c16.7-0.1,35.3,1.9,35.3,1.9L424,437l-50.9,13.4L355.6,417.6z"/>
<g id="Calque_1_00000129885711243947108220000015607203155872324286_">
	<g id="Calque_12">
		<path class="st1" d="M465.8,460c0,0-0.1,3.9-9.3,10c-10.9,7.3-6.9,21.4-8.4,28.7c-1,4.9-9.9,17.3-13.7,16.6
			c-10.8-2-16.9-16.2-26.7-20.4c-5.7-2.4-8.2-4.7-13.7-2c-5.5-2.8-8-0.5-13.7,2c-9.8,4.2-15.8,18.5-26.7,20.4
			c-3.9,0.7-12.7-11.7-13.7-16.6c-1.5-7.3,2.5-21.4-8.4-28.7c-9.2-6.1-11.6-11-11.6-11c-7-17.1-6.1-26.8,3.9-29.8s29.4-7,38.6-10.1
			c4.7-1.6,8.5-3.4,10.6-5.8l1.6-37.3l18.3-0.6h2.2l14.3,0.5l4,0.1l0.7,15.7l0.6,12.9v0.5l0.4,8.2c0.4,0.5,0.9,0.9,1.5,1.3
			c2.7,2,6.8,3.2,11.6,4.2c6.5,1.3,30.5,8,37.8,9.4c3.1,0.6-2.8-0.9,0,0C475.8,431.1,472.8,442.8,465.8,460z"/>
		<path class="st2" d="M416.5,414.5c-5.4,4.2-18.8,11.4-21.3,12.6c-8.2,3.9-28.3-5-32.8-8.1c4.7-1.6,8.5-3.4,10.6-5.8l1.6-37.3h38.8
			l1.2,28.6v0.5l0.4,8.2C415.4,413.7,415.9,414.2,416.5,414.5z"/>
	</g>
</g>
<path class="st3" d="M352.5,455.7c-18.9,22.7-62.6,33.7-75.6,44.2c-6.1,5-22.2,14.3-30.2,5.4l0,0c-9.8-11.9-6,3.1-0.6-2.2
	c11-10.7,35.3-30.3,44.3-42.5c6.7-9.1,11.2-19.4,29-26.3c0,0,17.8-8,28.5,0.6C354.6,440.4,355.6,447.2,352.5,455.7L352.5,455.7z"/>
<path class="st1" d="M256.6,507.2c15.6-4.1,13.3-15.5,12.8-21.8c-0.7-6.8-17.6-41.9-23-59.1c-3.1-9.7-4.4-14.9-10.8-13.5
	c-5.7,1.3-6.4,11.9-6,16.1c3.2,39.4-0.9,21.2,8.3,66.8C241.6,514.4,252.6,508.2,256.6,507.2z"/>
<path class="st4" d="M440.6,451.5c1.8,19.7,8.5,26.6,16.1,33c31,26,28.7,68.8,20.9,59.1c4.5,5.6,17.5,17.2,27.7,11.2l0,0
	c12.7-8.3,3.9-23.7,0.1-29.5c-7.6-11.7-19.1-73.1-34.4-82.9c0,0-15-10.8-27.6-5.6C435.3,440.2,439.9,443.3,440.6,451.5L440.6,451.5z
	"/>
<path class="st1" d="M505.2,531.8c-10.4-5.7-18,2.7-23.5,10.8c-3.9,5.7-7,52.2-15.8,68.2c-5,9-14,1.3-8.5,4.6c5,3,17.6,2.2,20.4-1
	c29-33.7,23-30.5,33.4-57.8C518.1,538.8,508.8,533.8,505.2,531.8z"/>
<g id="Calque_10">
	<path class="st4" d="M331.1,604.8L331.1,604.8c0-7-3-33.5-4-45.8l132.9,5.3c-0.2,12.3-1.2,33.5-1.2,40.5l0,0c0,7-5.8,12.5-13,12.5
		H344.1C336.9,617.2,331.1,611.6,331.1,604.8z"/>
</g>
<path class="st3" d="M352.2,456.2c-18.9,22.7-62.6,33.7-75.6,44.2c-6.1,5-22.2,14.3-30.2,5.4l0,0c-9.8-11.9-6,3.1-0.6-2.2
	c11-10.7,35.3-30.3,44.3-42.5c6.7-9.1,11.2-19.4,29-26.3c0,0,17.8-8,28.5,0.6C354.3,440.9,355.3,447.7,352.2,456.2L352.2,456.2z"/>
<path class="st4" d="M440.3,452c1.8,19.7,8.5,26.6,16.1,33c31,26,28.7,68.8,20.9,59.1c4.5,5.6,17.5,17.2,27.7,11.2l0,0
	c12.7-8.3,3.9-23.7,0.1-29.5c-7.6-11.7-19.1-73.1-34.4-82.9c0,0-15-10.8-27.6-5.6C435,440.7,439.6,443.8,440.3,452L440.3,452z"/>
<path class="st5" d="M478.9,430.7c-4.5-5.5-11.4-7.1-18.6-9.1c-9.4-2.6-35.6-7.1-35.6-7.1s-20.4,27-35.7,25.8
	c-6.2-0.5-31.7-16.9-33.4-22.7l-29.7,6.3l-10.1,4.6c-10.7,6.5-47.4,42.3-47.4,42.3s-10.9-38.9-11.1-35.4c0,0-27,1.1-29.1,8
	c-1.7,5.5,1.4,26.5,7.1,46.3c2.3,6,4.2,17.2,8.5,21c5.5,4.9,13.3,6.5,16.5,5.3c49.4-18,60.8-26.7,60.8-26.7s4.1,41.9,4.4,45.4
	s3.3,33.4,3.3,33.4h0.1c1,11.4,1.7,13.1,1.7,19.6s5.6,11.7,12.5,11.7h99c7,0,12.6-5.2,12.6-11.7s4.1-8.1,4.3-19.6l0.9-3.8
	c-0.4-2.1,0.9-29.7,1.3-32.4c1.8-11.7-1.5-37.3,0.1-41c4,11.1,11.5,30.9,16.3,42.4l-7.3,52.3c-0.1,0.8,0.1,1.5,0.6,2.1l13.7,15.8
	c1.2,1.4,3.3,1.2,4.3-0.3c4.2-6.8,14.6-23.5,21.1-35.1c3.5-6.1,8.1-19.9,8.2-26.9C518.5,511.2,495.2,450.5,478.9,430.7z"/>
<path class="st6" d="M327,558.4l-15.3,73.9c-1.1,5.8,9.3,11.2,18.8,12.4c0,0,41.6,8.5,59.3,8.9c14.4,0.3,50.8-3.5,66-5.1
	c4.7-0.5,9.4-0.8,14.1-0.8l0,0c10.3-0.9,10.2-8.4,8.6-14.6l-9.7-41.2l-9.2-34.1"/>
<path class="st6" d="M338.2,417.9l1.3-0.5c2-0.7,4.3,0.2,4.9,1.9l11,30.6c0.2,0.7-0.2,1.5-1,1.7l-3.4,1c-0.9,0.2-1.8-0.1-2.1-0.9
	l-12.6-30.2C335.6,420.1,336.5,418.5,338.2,417.9z"/>
<path class="st6" d="M451.1,416.5l-0.7-0.2c-2.5-0.9-5.4,0.2-6.3,2.5l-12.2,35.6c-0.3,1,0.3,2.2,1.4,2.5l3.2,0.9
	c1.2,0.4,2.6-0.1,3-1.2l13.9-35.2C454.4,419.5,453.2,417.3,451.1,416.5z"/>
<circle class="st6" cx="353.6" cy="458.1" r="3.8"/>
<circle class="st6" cx="433.6" cy="462.5" r="3.8"/>
<path class="st6" d="M347.7,468l99.3,4.8c2.8,0.1,5,2,5.8,4.4l7.5,20c1.3,3.6,2,7.4,2,11.2l0,0l-2.3,44H325l1.7-50
	c0-0.8,0.2-1.5,0.5-2.3l14.2-28.8C342.7,469.3,345.1,467.9,347.7,468z"/>
<path class="st6" d="M357.2,472.1l-6.9-0.4c-1.5-0.1-2.7-1.4-2.6-3l0.1-2.3c0.1-1.5,1.4-2.7,3-2.6l6.9,0.4c1.5,0.1,2.7,1.4,2.6,3
	l-0.1,2.3C360.1,471,358.8,472.1,357.2,472.1z"/>
<path class="st6" d="M434.3,478.7l-7.7-1.1c-1.6-0.2-2.9-1.7-2.6-3.5l0.5-3.6c0.2-1.6,1.7-2.9,3.5-2.6l7.7,1.1
	c1.6,0.2,2.9,1.7,2.6,3.5l-0.5,3.6C437.5,477.8,436,479,434.3,478.7z"/>
<path class="st5" d="M362.4,489l-2,23.1l25.6,7.8c6.8,2.1,14.1,2.6,21,1.5l26.1-4l1-23.5L362.4,489z"/>
<path class="st7" d="M362.4,488.8l-2.4,11.4l35.3,6.5c1.4,0.3,3,0.3,4.4,0.2l35-3.6v-12L362.4,488.8z"/>
<path class="st7" d="M459,561.6H326.1c-1.3,0-2.4-0.9-2.4-2.2v-12c0-1.2,1-2.2,2.4-2.2H459c1.3,0,2.4,0.9,2.4,2.2v12
	C461.3,560.6,460.3,561.6,459,561.6z"/>
<path class="st7" d="M317.5,553.4c0,0-21.4,59.8-15.8,65.5c5.5,5.8,60.8,12,65.6,8.3c4.8-3.7,11-69.5,11-69.5L317.5,553.4z"/>
<path class="st8" d="M344.4,579l-3.7,0.5c-1.1,0.1-2.2-0.6-2.3-1.7l-6.3-46.3c-0.1-1.1,0.6-2.2,1.7-2.3l3.7-0.5
	c1.1-0.1,2.2,0.6,2.3,1.7l6.3,46.3C346.3,577.8,345.5,578.8,344.4,579z"/>
<path class="st8" d="M348.7,579.4L348.7,579.4c-1.1,0-2.1-0.9-2.1-2.1v-36.6c0-1.1,0.9-2.1,2.1-2.1l0,0c1.1,0,2.1,0.9,2.1,2.1v36.6
	C350.7,578.5,349.8,579.4,348.7,579.4z"/>
<path class="st8" d="M354.5,579.2l-1.6-0.4c-1.1-0.3-1.7-1.3-1.5-2.5l6-25c0.3-1.1,1.3-1.7,2.5-1.5l1.6,0.4c1.1,0.3,1.7,1.3,1.5,2.5
	l-6,25C356.6,578.8,355.5,579.5,354.5,579.2z"/>
<path class="st5" d="M318,557.8c0,0-20.9,57.9-12.7,60.1c8.2,2.2,50.4,10.8,56.1,6.6c5.5-4.2,4.4-62.2,4.4-62.2L318,557.8z"/>
<path class="st8" d="M427.6,601l7.3-3.5c0.2-0.1,0.5-0.2,0.7-0.2l19.1-2c0.7-0.1,1.4,0.2,1.9,0.7l9.7,6.8c0.7,0.7,0.7-3.2,1.5-3.5
	l0.4-0.3c1.2-0.4,8.3,8.1,8.7,9.4c1.1,2.8,2,6.8,0.7,7.9c-2.9,2.6-5.9,7.2-8.6,7.2c-3.6-0.1-11.6-6.7-14.3-8.7
	c-0.6-0.4-1.4-0.6-2.1-0.3l-7.7,2.5c-0.2,0.1-0.4,0.2-0.6,0.2c-1.3,0.8-6.7,4.5-7.1,4.6c-2.4,1-7.6-2.6-10.6-4.8
	c-1.1-0.9-1.2-2.5-0.2-3.5l7-6.8c0.2-0.2,0.2-0.2,0.4-0.3l8.1-4.8l-5.5,0.8c-0.2,0-0.5,0.1-0.7,0.2c-1.3,0.7-6.1,3.1-6.7,3.1
	c-0.3,0-0.9-0.2-1.5-0.5C425.8,604.5,425.8,601.8,427.6,601z"/>
<path class="st8" d="M226,434.4l-2.3-9.1c-0.4-1.7-1.5-3.3-2.8-4.4l-5.7-4.5c-1.6-1.3-2.7-3.2-3-5.4l-2.8-18.9
	c-0.3-2.9,0.9-5.9,3.2-7.7l14.8-11.5c3.4-2.7,8.4-2.2,11.3,1.1l7.4,8.5c1.3,1.5,2.1,3.5,2,5.6l-0.2,6.4c0,0.5-0.1,1.3-0.2,1.8
	l-2.2,8.5c-0.5,1.5-0.4,3.3,0.2,4.8l2.4,6.4c0,0,3.1,7.8,2.1,10.2c-2.3,5.5-14.3,13.6-20.4,13.1C227.1,439.2,226,434.6,226,434.4z"
	/>
<path class="st8" d="M245.8,394.5c0-0.4,0.4-1.1,0.8-1.4l4.8-3.3c1.4-0.8,3.2,0.1,3.1,1.6l0,0c-0.2,0.4-0.1,0.6-0.2,1l-9.7,18.1
	L245.8,394.5z"/>
<g>
	<path class="st9" d="M180.6,425.7l77.9-44.7c0.1,0,0.2-0.1,0.3-0.1c2.6,0.5,5.3,0.1,7.7-1.3c0.9-0.5,1.6-1.1,2.2-1.8
		c3,0,6.1-0.6,9.3-1.6c10.6-3.5,16.6-13.9,15.4-17.4c-1.1-3.5-12.4-8.4-22.9-4.9c-3.2,1.1-6.1,2.5-8.4,4.2c-2.6-0.5-5.2,0-7.6,1.3
		c-0.7,0.4-1.3,0.8-1.8,1.3l-89.5,15.2c-2,0.3-3.2,2-3.4,4.1l0.1,2.6c0.1,2.6,2.5,4.7,5,4.1l77.5-15.8c3.1-0.7,5.8,2.6,4.7,5.7
		l-0.3,0.8c-0.4,0.8-1,1.7-1.9,2.1l-69,37.8c-1.8,1-2.6,3.5-1.6,5.4l0.4,0.9C176.1,426.1,178.7,427.1,180.6,425.7z"/>
	<g>
		<path class="st10" d="M293.6,359.1c-4.2,1.6-9.1,3-13.3,4.3c-1.4,0.5-3,0.9-4.5,1.3l0.5-0.4c-0.6,2-1.4,4.9-2,6.9
			c-0.7,2.2-1.4,4.8-2.3,6.7c0.1,0,3.6-13.9,3.8-13.8C275.4,363.9,293.7,358.8,293.6,359.1L293.6,359.1z"/>
	</g>
</g>
<path class="st8" d="M235.2,399l-13.9,4.3c-5.1,0-9.5-8.5-9.5-13.6l0,0c0-5.1,4.2-9.3,9.3-9.3l19.2-2.6c5.1,0,4.2,6.8,4.2,11.9l0,0
	C244.5,394.8,240.3,399,235.2,399z"/>
</svg>
