<?xml version="1.0" encoding="utf-8"?>
<!-- Generator: Adobe Illustrator 26.0.3, SVG Export Plug-In . SVG Version: 6.00 Build 0)  -->
<svg version="1.1" id="Calque_1" xmlns="http://www.w3.org/2000/svg" xmlns:xlink="http://www.w3.org/1999/xlink" x="0px" y="0px"
	 viewBox="0 0 788 1005" style="enable-background:new 0 0 788 1005;" xml:space="preserve">
<style type="text/css">
	.st0{fill:#47636B;}
	.st1{fill:#8E5736;}
	.st2{fill:#B8775C;}
	.st3{fill:#D48F72;}
	.st4{fill:#75A6C6;}
	.st5{fill:#5285A2;}
	.st6{fill:#7F3C3B;}
</style>
<path class="st0" d="M362.3,418.6c1.4,0,29.5,3.5,29.5,3.5l30.5-1.7l2.9-19.5c-0.5-2.9-30.7-3.4-30.7-3.4s-29.3-0.8-30.6,2.4
	C363.1,402,362.3,418.6,362.3,418.6z"/>
<path class="st1" d="M465.8,459.5c0,0-0.1,3.9-9.3,10c-10.9,7.3-6.9,21.4-8.4,28.7c-1,4.9-9.9,17.3-13.7,16.6
	c-10.8-2-16.9-16.2-26.7-20.4c-5.7-2.4-8.2-4.7-13.7-2c-5.5-2.8-8-0.5-13.7,2c-9.8,4.2-15.8,18.5-26.7,20.4
	c-3.9,0.7-12.7-11.7-13.7-16.6c-1.5-7.3,2.5-21.4-8.4-28.7c-9.2-6.1-11.6-11-11.6-11c-7-17.1-6.1-26.7,3.9-29.7s29.4-7,38.6-10.1
	c4.7-1.6,8.5-3.4,10.6-5.8l1.6-37.3l18.3-0.6h2.2l14.3,0.5l4,0.1l0.7,15.7l0.6,12.9v0.5l0.4,8.2c0.4,0.5,0.9,0.9,1.5,1.3
	c2.7,2,6.8,3.2,11.6,4.2c6.5,1.3,30.5,8,37.8,9.4c3.1,0.6-2.8-0.9,0,0C475.8,430.6,472.8,442.4,465.8,459.5z"/>
<path class="st2" d="M416.5,414.1c-5.4,4.2-18.8,11.4-21.3,12.6c-8.2,3.9-28.3-5-32.8-8.1c4.7-1.6,8.5-3.4,10.6-5.8l1.6-37.3h38.8
	l1.2,28.5v0.5l0.4,8.2C415.4,413.2,415.9,413.7,416.5,414.1z"/>
<path class="st3" d="M443.3,442.4c3.2,12.9,10.9,21.9,17.8,25.5c10.9,5.6,29.6,21.9,38.5,28.9c4.2,3.3,18.1,15.1,31.5,3.4l-6.5-18.4
	c-1.9-4.2-7.8-10.5-11.4-14c-7.3-7-14.6-11.4-20.1-19.3c-4.1-5.9-6.2-12.3-19.7-17.4c0,0-13.3-5.7-23.2-1.1
	C443.8,433,441.9,437,443.3,442.4L443.3,442.4z"/>
<path class="st3" d="M503.4,487c8.7-11,14.1-5.7,18.3-5.8c4.5-0.1,48.9,12.4,61,15.5c6.8,1.7,10.5,2.4,10.8,8
	c0.3,5.1-6.5,6.3-9.1,6.8c-24.8,4.7-51.7,1.6-70.8-6.8C500.9,499.2,501,490,503.4,487z"/>
<path class="st3" d="M609.4,491.7c2.8,1.3,6.2,2.7,8.7,3.7c2.3,0.9,3.1,3.8,1.6,5.8c-0.6,0.8-1.2,1.4-1.6,1.6
	c-0.8,0.3-3.6-0.7-5.6-1.4c-1.2-0.5-2.6-0.3-3.6,0.5l0,0c-1.6,1.2-1.9,3.5-0.7,5.1c1.5,2.2,2.7,4,5.3,6.9c2.9,3.1,10.5,7.4,14.1,8.5
	c1.9,0.6,5.9-0.5,7.7,0.8c0.3,0.2,0.6,0.6,0.9,1.1c1.5,2.3,0,5.3-2.7,5.7l-4,0.5c-0.5,0.1-1,0-1.4-0.1c-3-0.8-14.6-3.9-18.8-5.4
	c-5.2-2-15.4-7.5-19.9-11.7c-2.7-2.2-4.3-5.3-4.5-8.8c-0.2-4.1,2.3-6.1,4-7.3c2.1-1.4,14-4.7,18-5.7
	C607.8,491.3,608.6,491.4,609.4,491.7z"/>
<path class="st3" d="M352.1,442.4c-3.3,12.9-10.9,21.9-17.8,25.5c-10.9,5.6-29.6,21.9-38.5,28.9c-4.2,3.3-18.1,15.1-31.5,3.4
	l6.5-18.4c1.9-4.2,7.8-10.5,11.4-14c7.3-7,14.6-11.4,20.1-19.3c4.1-5.9,6.2-12.3,19.7-17.4c0,0,13.3-5.7,23.2-1.1
	C351.6,433,353.4,437,352.1,442.4z"/>
<path class="st3" d="M291.9,487.1c-8.7-11-14.1-5.7-18.3-5.8c-4.5-0.1-48.9,12.5-61,15.5c-6.8,1.7-10.5,2.4-10.7,8
	c-0.3,5.1,6.5,6.3,9.1,6.8c24.8,4.7,51.7,1.6,70.8-6.8C294.4,499.3,294.3,490.1,291.9,487.1z"/>
<path class="st3" d="M187.1,491.3c-3.1,1.5-6.9,3-9.8,4.2c-2.3,0.9-3.1,3.8-1.6,5.8c0.6,0.8,1.2,1.4,1.7,1.6
	c0.8,0.3,3.6-0.7,5.6-1.4c1.2-0.5,2.6-0.3,3.6,0.5l0,0c1.6,1.2,1.9,3.5,0.7,5.1c-1.5,2.2-2.7,4-5.4,6.9c-2.9,3.1-10.5,7.4-14.1,8.5
	c-1.9,0.6-5.9-0.5-7.7,0.8c-0.3,0.2-0.6,0.6-0.9,1.1c-1.4,2.3,0,5.3,2.7,5.7l4,0.5c0.5,0.1,1,0,1.4-0.1c3-0.8,14.6-3.9,18.8-5.4
	c5.1-2,15.4-7.5,19.9-11.7c2.6-2.2,4.3-5.3,4.5-8.8c0.2-4.1-2.3-6.1-4-7.3C204,495.6,187.3,491.2,187.1,491.3z"/>
<path class="st4" d="M308.3,439.3l22.8,119.1c0.4,2.2,0.2,4.6-0.6,6.7l-6.2,16.1c-1.3,3.4-1,7.3,0.8,10.5l2.2,3.7
	c2.2,3.8,6.2,6.1,10.6,6.1h107.8c3.8,0,7.4-1.8,9.7-4.8l5.3-7c2.7-3.5,3.2-8.2,1.5-12.3l-4.6-10.5c-1-2.2-1.3-4.7-0.8-7.1L479.2,439
	c1.6-8.3-3.8-16.4-12.1-18.3l-31.5-7c-3.7-0.8-7.5,0.1-10.4,2.5l-20.8,17c-4.5,3.6-10.8,3.7-15.3,0.1l-21.2-17
	c-3.1-2.4-7.1-3.3-10.9-2.2l-40,11C310.9,426.9,307.1,433,308.3,439.3z"/>
<path class="st0" d="M383.9,440.4c0.3,0,4.3,3.2,7.1,5.5c1.7,1.4,4,1.6,5.9,0.5l9.2-4.9l-3.6-13.1l-9.2-2.4c0,0-6.8,2-7.6,3.1
	S383.9,440.4,383.9,440.4z"/>
<path class="st5" d="M356.7,417.8l7.2-17.9l25.8,20.7c2.5,2.1,3.4,5.4,2.2,8.3l-6,14.8c-0.7,1.6-2.8,2-4,0.8L356.7,417.8z"/>
<path class="st5" d="M432.4,418.8l-7.2-17.9l-30.9,21.3c-1.8,1.3-2.4,3.6-1.4,5.5l8.8,17c0.7,1.3,2.4,1.5,3.4,0.6L432.4,418.8z"/>
<g id="Calque_13">
	<path class="st6" d="M394,372.9"/>
</g>
</svg>
