<?xml version="1.0" encoding="utf-8"?>
<!-- Generator: Adobe Illustrator 26.0.3, SVG Export Plug-In . SVG Version: 6.00 Build 0)  -->
<svg version="1.1" id="Calque_1" xmlns="http://www.w3.org/2000/svg" xmlns:xlink="http://www.w3.org/1999/xlink" x="0px" y="0px"
	 viewBox="0 0 362 238.9" style="enable-background:new 0 0 362 238.9;" xml:space="preserve">
<style type="text/css">
	.st0{fill:#C9C9C9;}
	.st1{fill:#D48F72;}
	.st2{fill:#B8775C;}
	.st3{fill:#D3D3D3;}
	.st4{fill:#375D63;}
	.st5{fill:#353535;}
	.st6{fill:#B7B7B7;}
</style>
<polygon class="st0" points="215.4,39.2 156.9,39.2 155.2,14.6 217.3,13.2 "/>
<g id="Calque_1_00000080186772383945245270000010593561686452687268_">
	<g id="Calque_12">
		<path class="st1" d="M258.5,89.6c0,0-0.1,3.9-9.3,10c-10.9,7.3-6.9,21.4-8.4,28.7c-1,4.9-9.9,17.3-13.7,16.6
			c-10.8-2-16.9-16.2-26.7-20.4c-5.7-2.4-8.2-4.7-13.7-2c-5.5-2.8-8-0.5-13.7,2c-9.8,4.2-15.8,18.5-26.7,20.4
			c-3.9,0.7-12.7-11.7-13.7-16.6c-1.5-7.3,2.5-21.4-8.4-28.7c-9.2-6.1-11.6-11-11.6-11c-7-17.1-6.1-26.7,3.9-29.7s29.4-7,38.6-10.1
			c4.7-1.6,8.5-3.4,10.6-5.8l1.6-37.3l18.3-0.6h2.2l14.3,0.5l4,0.1l0.7,15.7l0.6,12.9v0.5l0.4,8.2c0.4,0.5,0.9,0.9,1.5,1.3
			c2.7,2,6.8,3.2,11.6,4.2c6.5,1.3,30.5,8,37.8,9.4c3.1,0.6-2.8-0.9,0,0C267,60.3,265.7,72,258.5,89.6z"/>
		<path class="st2" d="M209.2,44.2c-5.4,4.2-18.8,11.4-21.3,12.6c-8.2,3.9-28.3-5-32.8-8.1c4.7-1.6,8.5-3.4,10.6-5.8l1.6-37.3h38.8
			l1.2,28.5v0.5l0.4,8.2C208.1,43.3,208.6,43.8,209.2,44.2z"/>
	</g>
</g>
<path class="st3" d="M141.3,53.2c8.5,4.3,47.1,39.5,47.1,39.5L235,51.5l19.3,4.5c0,0-1.3,102.8-1.4,112.6
	c-0.1,6.8,6.6,52.1,10.9,72.1c1.4,6.8-2.9,13.5-9.8,15c-0.9,0.2-1.8,0.3-2.7,0.3l-135-1.1c-7-0.1-16.2,21.6-16.2,14.6
	c0-0.6,3.6-28.6,3.7-29.1l16.3-123.7l-1.8-58.9L141.3,53.2z"/>
<g id="Calque_1_00000180352489093704844010000013830218214247062939_">
	<path class="st4" d="M266.4,268.6c-22.9,2.4-51.8,9.8-76.8,18c0,0-11.3,0.5-10.7-0.1l-77.7-16.4l13.7-26.1
		c1.1-10.5,10-18.5,20.5-18.5H234c10.8,0,19.8,8.4,20.5,19.2L266.4,268.6z"/>
</g>
<path class="st3" d="M314.9,147.7c-0.4-0.9-0.9-1.7-1.2-2.6l-16.8-40.9c-1.7-4.8-4.1-9.5-7-13.8l-10.8-15.9
	c-4.3-6.4-10.7-11.5-18.2-14.5l-50.5-20.5l-26.2,52.9l-25.4-53.7l-52.4,21.2c-7.8,3.1-14.3,8.5-18.7,15.3l-7.1,11
	c-5.8,9.1-10.5,18.7-14,28.6l-13.5,33.6c-4.3,10.3-4.1,19.7,3.6,25.7c7.9,6.1,19.7,5.1,26.2-2.3c0.1-0.1,0.2-0.2,0.2-0.3l34.7-47
	l6.3,29.6c0.1,5-3.5,24.7-6.3,40.2c-2.4,13-5.7,25.7-10.1,38.1l-11.7,56.1c-1.2,9.3,5.4,17.7,15.1,19.7c0,0,53.6,13.5,72,14.2
	c18.8,0.7,75.5-12.4,75.5-12.4c10.5-1.5,16.7-10.5,15.2-20.5l-13-58.4c-3.8-10.8-7.3-21.8-10.1-32.9c-3.1-12.3-7.4-28.1-7.3-34.5
	c2.7-20.3,10.3-41.3,10.3-41.3l28.7,49.9c7.3,7.3,19.7,7.9,27.5,1.2C317.7,167.2,319.7,157.5,314.9,147.7z"/>
<path class="st3" d="M155.3,14.4l-8.8,19.5l-44.3,27.6l22.2,83.2c1.4,5.1,3.6,10,6.6,14.3l3.4,4.9l99.5,1.5l5.1-7.4
	c2.8-4.1,4.9-8.6,6.2-13.3l23.3-81.4l-47-29.3l-4.3-20.7l-33.6,63.6L155.3,14.4z"/>
<path class="st5" d="M251.1,182.2H115.3c-2.8,0-5.3-1.6-5.3-3.6v-11c0-2,2.3-3.6,5.3-3.6h135.6c2.8,0,5.3,1.6,5.3,3.6v11
	C256.3,180.6,253.8,182.2,251.1,182.2z"/>
<path class="st5" d="M193.8,183.2h-11.6c-3.8,0-6.8-3.1-6.8-6.8v-8.2c0-3.8,3.1-6.8,6.8-6.8h11.6c3.8,0,6.8,3.1,6.8,6.8v8.2
	C200.8,180.1,197.7,183.2,193.8,183.2z"/>
<path class="st5" d="M184.5,173.1l-28.9,32.1c-1.5,1.6-1.4,4.1,0.2,5.6l5.1,4.8c1.7,1.7,4.4,1.4,5.9-0.5l25.1-33.4l-10.5-1.3
	l15.1,28.7c1.1,2.1,3.8,2.8,5.8,1.4l5.6-3.8c1.7-1.2,2.1-3.4,1.2-5.2l-18.8-32.3L184.5,173.1z"/>
<g>
	<path class="st6" d="M217.3,13c-24.6,50.3-52.5,101-79.4,150c24.6-50.2,52.3-100.8,79.2-149.9L217.3,13z"/>
</g>
<g>
	<path class="st6" d="M102.4,61.9c7.7,24.3,13.3,50.1,18.2,75C113.1,112.7,107.5,86.9,102.4,61.9L102.4,61.9z"/>
</g>
<g>
	<path class="st6" d="M268.4,64.1c-5.1,24.4-11.7,49.5-19.4,73.2C254,112.9,260.5,87.7,268.4,64.1L268.4,64.1z"/>
</g>
<path class="st1" d="M172.9,136.5L158,137l-86.2,5.9c-1,0.1-2.1,0.3-3,0.6l0,0c-8.1,2.1-13.4,9.7-12.5,17.7
	c0.8,7.9,7.4,14.2,15.6,14.8l1.7,0.2c0,0,11.8-1.2,14.4-1.3c2.6-0.1,65.4-14.9,71.8-16.4c0.3-0.1,12.1-3.6,19.5-5.1L172.9,136.5z"/>
<path class="st1" d="M196.8,136.2l14.7,0.4L298,142l1.4,0.5c7.9,2.1,13.3,9.4,12.4,17.2c-0.7,7.8-7.1,14-15.3,14.7l-1.7,0.2
	c0,0-11.5-1.1-14.2-1.2c-2.6-0.1-64.6-14.2-70.8-15.6c-0.3-0.1-12-3.4-19.2-4.8L196.8,136.2z"/>
<path class="st1" d="M195.6,120.9c4.3-0.8,14.5,7.7,15.1,8.4c2.4,2.4,8.2,8.7,9.5,12.8c0.3,1-1,16.1-1.9,16.1s-23.8,0.6-25.2,0
	c-4.9-1.9-7.1-3.9-7.5-4.3c-3.9-3.9-0.1-10.3,0-16.5c0-3.1,1.1-6.3,3.1-8.7C191.4,125.2,192.4,122.6,195.6,120.9z"/>
<path class="st1" d="M188.4,128.8c2,2.5,3.1,5.6,3.1,8.7c0.1,6.1,3.9,12.5,0,16.5c-0.4,0.4-2.8,2.5-7.5,4.3c-1.5,0.6-24.4,0-25.2,0
	s-2.1-15.1-1.9-16.1c1.4-4.1,7.2-10.5,9.5-12.8c0.7-0.6,10.8-9.2,15.1-8.4C184.7,122.6,185.7,125.2,188.4,128.8z"/>
</svg>
