<?xml version="1.0" encoding="utf-8"?>
<!-- Generator: Adobe Illustrator 26.0.3, SVG Export Plug-In . SVG Version: 6.00 Build 0)  -->
<svg version="1.1" id="Calque_1" xmlns="http://www.w3.org/2000/svg" xmlns:xlink="http://www.w3.org/1999/xlink" x="0px" y="0px"
	 viewBox="0 0 506.7 206.1" style="enable-background:new 0 0 506.7 206.1;" xml:space="preserve">
<style type="text/css">
	.st0{fill:#D1D1D1;}
	.st1{fill:#D48F72;}
	.st2{fill:#B8775C;}
	.st3{fill:#9CCBF2;}
	.st4{fill:#EDEDED;}
	.st5{fill:#587CC6;}
	.st6{fill:#DDDDDD;}
	.st7{fill:none;stroke:#9CCBF2;stroke-width:3.7248;stroke-linecap:round;stroke-miterlimit:10;}
</style>
<polygon class="st0" points="282.9,34.6 226,34.6 226,19.2 282.9,19.1 "/>
<g id="Calque_1_00000054238580029853212470000007617440941793902732_">
	<g id="Calque_12">
		<path class="st1" d="M326.3,69.1c0,0-0.1,3.9-9.3,10c-10.9,7.3-6.9,21.4-8.4,28.7c-1,4.9-9.9,17.3-13.7,16.6
			c-10.8-2-16.9-16.2-26.7-20.4c-5.7-2.4-8.2-4.7-13.7-2c-5.5-2.8-8-0.5-13.7,2c-9.8,4.2-15.8,18.5-26.7,20.4
			c-3.9,0.7-12.7-11.7-13.7-16.6c-1.5-7.3,2.5-21.4-8.4-28.7c-9.2-6.1-11.6-11-11.6-11c-7-17.1-3.2-27.3,3.9-29.7
			c9.9-3.4,29.4-7,38.6-10.1c4.7-1.6,8.5-3.4,10.6-5.8l1.6-37.3l18.3-0.6h2.2l14.3,0.5l4,0.1l0.7,15.7l0.6,12.9v0.5l0.4,8.2
			c0.4,0.5,0.9,0.9,1.5,1.3c2.7,2,6.8,3.2,11.6,4.2c6.5,1.3,23.6,9,30.9,10.4c3.1,0.6,6.9,4.9,9.7,5.8C339.1,47,333.3,52,326.3,69.1
			z"/>
		<path class="st2" d="M277,23.7c-5.4,4.2-18.8,11.4-21.3,12.6c-8.2,3.9-28.3-5-32.8-8.1c4.7-1.6,8.5-3.4,10.6-5.8l1.6-37.3h38.8
			l1.2,28.5v0.5l0.4,8.2C275.9,22.8,276.4,23.3,277,23.7z"/>
	</g>
</g>
<path class="st1" d="M218.3,48.4c-3.8,15.9-15.8,18.2-22.8,22.8c-11.1,7.2-25.8,28.1-35,37c-4.3,4.2-16.3,12.5-23.8,6.8l0,0
	c-9.4-7.8-2.6-17.6,1.1-22c7.6-8.9,25-25.4,30.7-35.2c4.3-7.3,6.7-15.2,20.3-21.9c0,0,13.5-7.5,23.1-2.2
	C218.1,37,219.8,41.9,218.3,48.4L218.3,48.4z"/>
<path class="st1" d="M286.4,48.4c3.8,15.9,15.8,18.2,22.8,22.8c11.1,7.2,25.8,28.1,35,37c4.3,4.2,16.3,12.5,23.8,6.8l0,0
	c9.4-7.8,2.6-17.6-1.1-22c-7.6-8.9-24.9-25.4-30.7-35.2c-4.3-7.3-6.7-15.2-20.3-21.9c0,0-13.5-7.5-23.1-2.2
	C286.5,37,284.9,41.9,286.4,48.4L286.4,48.4z"/>
<path class="st1" d="M352.8,104.5c3-10.8,13-9.1,18.5-8.6c6,0.5,61.3,15.9,76.4,19.8c8.5,2.2,13.2,3.2,12.1,7.5
	c-1,4-10.2,4.4-13.8,4c-38.8-3.8-48.1-4.9-82.7-9.7C346.9,115.3,352,107.2,352.8,104.5z"/>
<path class="st3" d="M449.3,116c0,0,8-6.2,9.8-6.7s11-3,12.4-3.7s8.3-6.1,8.9-5.3c0.2,0.3,0.6,1.1,1.1,1.8c0.8,1.5,0.5,3.2-0.7,4.4
	l-1.5,1.5c-1.2,1.1-2.6,2-4.1,2.6l-6.1,2.4l14.2,2.8l18.4,0.6c1.2,0,2.3,0.8,2.7,2l0,0c0.3,1.4-1,2.7-2.8,2.7l-20,0.1l22.3,4.8
	c1.4,0.2,2.4,1.5,2.3,2.9c0,0.1,0,0.2,0,0.3l0,0c-0.6,1.5-2.2,2.3-3.8,1.9l-23.9-5.2l21.5,8.2c1.3,0.3,2,1.7,1.7,2.9
	c-0.1,0.2-0.1,0.4-0.2,0.6l0,0c-0.9,1.2-2.5,1.7-3.9,1.2l-20.5-7.2l11.6,7.3c1.1,0.6,1.5,2,0.9,3c-0.1,0.3-0.3,0.5-0.5,0.7l0,0
	c-1,0.9-2.5,1-3.7,0.4l-13.9-6.9l-20.7-5.7l-4.5-3.8L449.3,116z"/>
<path class="st1" d="M153.5,104.4c-3-10.8-13-9.1-18.5-8.6c-6,0.5-61.3,15.9-76.4,19.8c-8.6,2.2-13.2,3.2-12.1,7.5
	c1,4,10.2,4.4,13.8,4c38.8-3.8,48.1-4.9,82.7-9.7C159.4,115.2,154.3,107.2,153.5,104.4z"/>
<path class="st3" d="M56.3,116c0,0-8-6.2-9.8-6.7s-11.1-3-12.4-3.7s-8.3-6.1-8.9-5.3c-0.2,0.3-0.6,1.1-1.1,1.8
	c-0.8,1.4-0.5,3.2,0.7,4.4l1.5,1.5c1.2,1.1,2.6,2,4.1,2.6l6.1,2.4l-14.2,2.8l-18.4,0.6c-1.2,0-2.3,0.8-2.6,2l0,0
	c-0.3,1.4,1,2.7,2.8,2.7l20,0.1l-22.3,4.9c-1.4,0.2-2.4,1.5-2.3,2.9c0,0.1,0,0.2,0,0.3l0,0c0.6,1.5,2.2,2.3,3.8,1.9l23.9-5.2
	l-21.5,8.2c-1.3,0.3-2,1.7-1.7,2.9c0.1,0.2,0.1,0.4,0.2,0.6l0,0c0.9,1.2,2.5,1.7,3.9,1.2l20.6-7.2L17.1,139c-1.1,0.6-1.5,2-0.9,3
	c0.1,0.3,0.3,0.5,0.5,0.7l0,0c1,0.9,2.5,1,3.7,0.4l13.9-6.9l20.7-5.7l4.5-3.8L56.3,116z"/>
<path class="st4" d="M354.6,121l15.1-41c0.2-0.9-0.1-1.9-0.8-2.5c0,0-14.1-14-24.3-23.9c-6.2-6-13.2-11-20.9-14.9l-37.3-18.9
	c-5-2-4.8,0.2-7.1,4.8c-0.1,0.2-0.2,0.4-0.4,0.6l-14.2,15.4c-0.2,0.2-0.2,0.3-0.3,0.5c-3.8,6.9-13.9,7-18.1,0.5
	c-0.2-0.3-0.5-0.6-0.8-0.9l-15.8-10.6c-0.4-0.3-0.8-0.7-1-1.2c-2-4.6-0.4-11.3-5.2-9.3l-37.4,16c-2,0.9-3.6,2.3-4.7,3.9l-0.1-0.2
	L146.5,79c-1.5,2-2.1,4.5-1.8,6.9l8.5,31.8c1.1,8,11.5,11.1,17.1,5.1l16.7-17.6c1.6-1.7,4.6-0.7,4.7,1.7l-2.4,24.9
	c0,1-0.2,2-0.4,2.9l-3.4,10.9c-0.7,2.4-0.5,5,0.7,7.3c0.8,1.6,1.2,3.3,1.1,5c-0.2,3-0.5,7.8-0.7,11.3l-13.8,83.3
	c-0.3,4.5,2.5,8.7,6.9,10.1c0.1,0.1,0.2,0.1,0.4,0.1l20.1,4.2c21.2,4.4,56.2,4.5,77.5,0.2c13.6-2.7,47.6-5.6,55.3-7.3
	c4.8-1.1,8.2-5.4,7.9-10.2l-18.8-79.7c-0.2-5-1.6-9.8-3.8-13.6h0.5l2-2.3c2.5-2.8,3.3-6.7,1.9-10.2c-1.6-4.2-3.7-9.5-3.7-11
	c0.1-10.6-3.8-22.5-3.8-31.5c0-2,2.4-3.3,4.2-2.2l29.9,24.9C350.8,124.9,354.1,122.7,354.6,121z"/>
<path class="st5" d="M273.2,272h-37.5c-5.6,0-10.2-4.2-10.2-9.4V37.2c0-5.2,4.6-9.4,10.2-9.4h37.5c5.6,0,10.2,4.2,10.2,9.4v225.4
	C283.3,267.7,278.8,272,273.2,272z"/>
<path class="st4" d="M278,21.5l-16.3,69.2c-0.6,2.7-0.9,5.4-0.9,8.3l-0.9,171.6c0,2.3,2.3,4,4.7,3.6l54.4-11.8l-7-229.8l-27.7-13.4
	C283.7,18.8,278.6,19.3,278,21.5z"/>
<path class="st4" d="M228.9,20.8l20.6,69.9c0.6,2.7,0.9,5.4,0.9,8.3l0.9,171.6c0,2.3-2.4,4-4.9,3.6l-57.6-11l7.7-230.6l28.3-13.1
	C226.9,18.6,228.8,20.1,228.9,20.8z"/>
<path class="st6" d="M201.4,94.6l0.8,24.6c0.1,1.4,1.2,2.6,2.6,2.8l21.9,1.6c0.7,0.1,1.4-0.2,1.9-0.6l3-2.4c0.8-0.6,1.2-1.4,1.1-2.5
	l-1.4-25.5c-0.1-1.4-1.3-2.6-2.7-2.7l-24.7-1.1c-1.8-0.1-3.2,1.4-3,3.2l0.3,2.1C201.4,94.4,201.4,94.5,201.4,94.6z"/>
<g>
	<ellipse transform="matrix(0.9715 -0.237 0.237 0.9715 -18.6534 53.2788)" class="st5" cx="212.3" cy="104.2" rx="2.3" ry="3.2"/>
	
		<ellipse transform="matrix(0.9059 -0.4234 0.4234 0.9059 -26.3484 98.4344)" class="st5" cx="208.4" cy="108.5" rx="2.3" ry="3.2"/>
	<ellipse transform="matrix(0.237 -0.9715 0.9715 0.237 65.3298 291.5032)" class="st5" cx="218.2" cy="104.2" rx="3.2" ry="2.3"/>
	<ellipse transform="matrix(0.4234 -0.9059 0.9059 0.4234 29.598 263.8306)" class="st5" cx="222.1" cy="108.7" rx="3.2" ry="2.3"/>
	<path class="st5" d="M220.1,113.2c0,0-0.9-0.3-1.3-0.7c-0.2-0.2-0.5-0.8-0.8-1.4c-0.1-0.3-0.3-0.7-0.4-0.9v-0.1l0,0
		c-0.5-0.8-1.4-1.4-2.1-1.3c-1-0.1-2.3,0.7-2.9,2.1v0.1c-0.3,0.4-0.6,1-0.9,1.4c-0.5,0.5-1.3,0.8-1.3,0.8l0,0c-0.1,0-0.2,0-0.2,0.1
		c-1.1,0.5-1.4,2.3-0.7,3.9c0.8,1.6,2.3,2.5,3.4,1.9c0.1-0.1,0.3-0.1,0.3-0.2c0.3-0.2,1.7-0.7,2.1-0.7c0.5,0,1.8,0.8,2.1,0.9
		c1.1,0.5,2.6-0.3,3.4-1.9C221.6,115.5,221.3,113.8,220.1,113.2z"/>
</g>
<path class="st7" d="M231.8,21.3l-5.5,4.3c-2.1,2.1-3,5.1-2.4,8l8.9,35.2c0.6,2.7,2.5,5.1,5.2,6.2l14.5,6.5c2.9,1.3,6.2,1.1,8.9-0.3
	l16.7-9.1c2.9-1.6,4.7-4.3,4.8-7.5l1.4-30.8c0.1-2.6-0.2-6.5-2.3-8.2l-4.5-4.1"/>
<line class="st7" x1="256" y1="82.6" x2="255.1" y2="194.8"/>
<circle class="st3" cx="255" cy="195.4" r="6.5"/>
</svg>
