<?xml version="1.0" encoding="utf-8"?>
<!-- Generator: Adobe Illustrator 26.0.1, SVG Export Plug-In . SVG Version: 6.00 Build 0)  -->
<svg version="1.1" id="Calque_1" xmlns="http://www.w3.org/2000/svg" xmlns:xlink="http://www.w3.org/1999/xlink" x="0px" y="0px"
	 viewBox="0 0 788 1005" style="enable-background:new 0 0 788 1005;" xml:space="preserve">
<style type="text/css">
	.st0{fill:#8E5736;}
	.st1{fill:#8F823A;}
	.st2{fill:#493C2F;}
	.st3{fill:#998C49;}
	.st4{fill:#89777A;}
	.st5{fill:#F2D5BD;}
	.st6{fill:#8E7052;}
</style>
<g id="Calque_9">
	<path class="st0" d="M344.6,448.5c-3.9,18.3-16.5,20.9-23.8,26.2c-11.6,8.3-35.4,42.4-45,52.6c-5.4,2.5-11.8,1.6-16.4-2.2l0,0
		c-9.8-9-2.7-20.2,1.2-25.3c7.9-10.2,26-29.2,32-40.5c4.5-8.4,7-17.5,21.2-25.2c0,0,14.1-8.6,24.1-2.5
		C344.5,435.4,346.2,441,344.6,448.5L344.6,448.5z"/>
	<path class="st0" d="M278.2,514.2c-2.8-14.9-15.2-13.3-22-13.1c-7.3,0.2-42.8,10.1-61.6,14.2c-10.6,2.3-16.3,3.3-15.3,9.3
		c0.9,5.5,12.1,6.2,16.5,6.5c41.4,3,50.1,2.6,68.5,0C284.2,528.2,278.9,518,278.2,514.2z"/>
	<path class="st0" d="M160.3,511.4c-6.5,1.9-16.4,3.9-16.4,3.9s5,4.3,7.1,4.8c1.7,0.5,9-1.3,9-1.3l6.9,3.1c-2.7,2.8-3.3,4.4-6.9,7.5
		c-2.8,2.4-11.4,5.3-15.5,6c-2.3,0.4-7.7-0.7-9.6,0.2c-1.4,0.7-2.5,4.7-2.5,4.7l12.9,1.7c0,0,17.7-2.2,23.3-3.4
		c6-1.3,17.5-5.2,22.1-8.2c1.5-1,4.3-3,3.3-6.8c-0.9-3.3-4.6-5.1-7.1-6.1C183.1,515.9,160.6,511.4,160.3,511.4z"/>
	<path class="st0" d="M436.2,448.3c3.9,18.3,16.5,20.9,23.8,26.2c11.6,8.3,33.7,41.9,43.3,52.1c4.5,4.8,10.1,4.9,18-1.7l0,0
		c9.8-9,2.7-20.2-1.2-25.3c-7.9-10.2-26-29.2-32-40.5c-4.5-8.4-7-17.5-21.2-25.2c0,0-14.1-8.6-24.1-2.5
		C436.3,435.2,434.6,440.8,436.2,448.3L436.2,448.3z"/>
	<path class="st0" d="M502.5,514c2.8-14.9,15.2-13.3,22-13.1c7.3,0.2,42.8,10.1,61.6,14.2c10.6,2.3,16.3,3.3,15.3,9.3
		c-0.9,5.5-12.1,6.2-16.5,6.5c-41.4,3-47.1,0.8-68.5,0C496.3,530.1,501.8,517.8,502.5,514z"/>
	<path class="st0" d="M620.4,511.2c6.5,1.9,16.4,3.9,16.4,3.9s-5,4.3-7.1,4.8c-1.7,0.5-9-1.3-9-1.3l-6.9,3.1
		c2.8,2.8,3.3,4.4,6.9,7.5c2.8,2.4,11.4,5.3,15.5,6c2.3,0.4,7.7-0.7,9.6,0.2c1.3,0.7,2.5,4.7,2.5,4.7l-12.9,1.7
		c0,0-17.7-2.2-23.3-3.4c-6-1.3-17.5-5.2-22.1-8.2c-1.5-1-4.3-3-3.3-6.8c0.9-3.3,4.6-5.1,7.1-6.1
		C597.7,515.7,620.1,511.2,620.4,511.2z"/>
	<path class="st1" d="M302.8,518.2c-1.9-1.8-38.9-37.9-35.1-40.5s3.6-2.4,41.1-48.7l50-11.4l30.9,48.1L302.8,518.2z"/>
	<path class="st2" d="M357.7,424.3c-0.3-0.4,3.5-4.6,3.7-5s25.1,13.3,25.7,13.9s7.6,5.6,7.6,5.6s20-12.9,20.6-12.9
		s11.6,1.6,10.1,2.1s-15.1,209.5-15.1,209.5s-54.4-3.6-54.6-3.1C338.7,670,357.7,424.3,357.7,424.3z"/>
	<path class="st1" d="M476.8,515.5c1.9-1.8,38.9-37.9,35.1-40.5s-41.1-48.7-41.1-48.7l-50-11.7L390,466.1L476.8,515.5z"/>
	<path class="st3" d="M349.8,419l38.8,50.9L376.5,485c0,0-2.3,28.8-3.3,53.6c-0.2,4.8-3.5,73.4-1.7,77.3c5,11.1,14.9,20.7,14.9,20.7
		c-1.4,4.3-2.8,7.2-17.3,20.7c-6.8,6.3-14.5,11.8-23.8,9.3L313,658c5.1-143.7,5.1-143.2,5-148.1c0-4.4,7.8-85.4,7.8-85.4L349.8,419z
		"/>
	<path class="st3" d="M434.3,418l-52.7,69.1c0,0-7,123.9-4.6,131.1c1.7,5.1,24.1,28.9,37,42.4c5.7,5.7,14,8,21.7,5.8l39.5-13.8
		c0,0-9.2-139.4-9.2-143.8s-7.8-85.4-7.8-85.4L434.3,418z"/>
	<rect x="330.2" y="592.7" class="st1" width="38.4" height="9.8"/>
	<rect x="412.4" y="590.5" class="st1" width="45" height="11.7"/>
	<path class="st4" d="M386.1,438.5c0.4,0,8.8,5.8,8.8,5.8l9.6-7.2l-3.6-13.1l-5.4,1.1c0,0-6.5-2.2-7.3-1.1S386.1,438.5,386.1,438.5z
		"/>
	<polygon class="st5" points="357.7,419.4 364.9,401.5 395.5,425.1 384.7,447.9 	"/>
	<polygon class="st5" points="433.4,419.4 421.9,401.5 395.5,425.1 406.3,447.9 	"/>
	<polygon class="st1" points="312.7,515.3 298.7,527.1 254.2,481.7 267.8,469.3 	"/>
	<polygon class="st1" points="469.4,515 483.3,526.7 527.8,482.1 513.5,469.6 	"/>
	<ellipse class="st6" cx="389.7" cy="501.5" rx="3.6" ry="3.4"/>
	<ellipse class="st2" cx="388.3" cy="537.1" rx="3.6" ry="3.4"/>
	<ellipse class="st2" cx="386.9" cy="571.6" rx="3.6" ry="3.4"/>
</g>
</svg>
