<?xml version="1.0" encoding="utf-8"?>
<!-- Generator: Adobe Illustrator 26.0.1, SVG Export Plug-In . SVG Version: 6.00 Build 0)  -->
<svg version="1.1" id="Calque_1" xmlns="http://www.w3.org/2000/svg" xmlns:xlink="http://www.w3.org/1999/xlink" x="0px" y="0px"
	 viewBox="0 0 788 1005" style="enable-background:new 0 0 788 1005;" xml:space="preserve">
<style type="text/css">
	.st0{fill:#8E5736;}
	.st1{fill:#481F09;}
	.st2{fill:#D68F72;}
	.st3{fill:#A19556;}
</style>
<g id="Calque_1_00000054238580029853212470000007617440941793902732_">
	<g id="Calque_12">
		<path class="st0" d="M465.8,459.5c0,0-0.1,3.9-9.3,10c-10.9,7.3-6.9,21.4-8.4,28.7c-1,4.9-9.9,17.3-13.7,16.6
			c-10.8-2-16.9-16.2-26.7-20.4c-5.7-2.4-8.2-4.7-13.7-2c-5.5-2.8-8-0.5-13.7,2c-9.8,4.2-15.8,18.5-26.7,20.4
			c-3.9,0.7-12.7-11.7-13.7-16.6c-1.5-7.3,2.5-21.4-8.4-28.7c-9.2-6.1-11.6-11-11.6-11c-7-17.1-6.1-26.7,3.9-29.7s29.4-7,38.6-10.1
			c4.7-1.6,8.5-3.4,10.6-5.8l1.6-37.3l18.3-0.6h2.2l14.3,0.5l4,0.1l0.7,15.7l0.6,12.9v0.5l0.4,8.2c0.4,0.5,0.9,0.9,1.5,1.3
			c2.7,2,6.8,3.2,11.6,4.2c6.5,1.3,30.5,8,37.8,9.4c3.1,0.6-2.8-0.9,0,0C475.8,430.6,472.8,442.4,465.8,459.5z"/>
		<path class="st1" d="M416.5,414.1c-5.4,4.2-18.8,11.4-21.3,12.6c-8.2,3.9-28.3-5-32.8-8.1c4.7-1.6,8.5-3.4,10.6-5.8l1.6-37.3h38.8
			l1.2,28.5v0.5l0.4,8.2C415.4,413.2,415.9,413.7,416.5,414.1z"/>
	</g>
</g>
<g id="Calque_9">
	<path class="st2" d="M357.8,438.8C354,454.7,342,457,335,461.6c-11.1,7.2-25.8,28.1-35,37c-4.3,4.2-16.3,12.5-23.8,6.8l0,0
		c-9.4-7.8-2.6-17.6,1.1-22c7.6-8.9,25-25.4,30.7-35.2c4.3-7.3,6.7-15.2,20.3-21.9c0,0,13.5-7.5,23.1-2.2
		C357.6,427.4,359.3,432.3,357.8,438.8L357.8,438.8z"/>
	<path class="st2" d="M425.9,438.8c3.8,15.9,15.8,18.2,22.8,22.8c11.1,7.2,25.8,28.1,35,37c4.3,4.2,16.3,12.5,23.8,6.8l0,0
		c9.4-7.8,2.6-17.6-1.1-22c-7.6-8.9-24.9-25.4-30.7-35.2c-4.3-7.3-6.7-15.2-20.3-21.9c0,0-13.5-7.5-23.1-2.2
		C426,427.4,424.4,432.3,425.9,438.8L425.9,438.8z"/>
	<path class="st0" d="M492.3,494.9c3-10.8,13-9.1,18.5-8.6c6,0.5,61.3,15.9,76.4,19.8c8.5,2.2,13.2,3.2,12.1,7.5
		c-1,4-10.2,4.4-13.8,4c-38.8-3.8-48.1-4.9-82.7-9.7C486.4,505.7,491.5,497.6,492.3,494.9z"/>
	<path class="st0" d="M588.8,506.4c0,0,8-6.2,9.8-6.7s11-3,12.4-3.7s8.3-6.1,8.9-5.3c0.2,0.3,0.6,1.1,1.1,1.8
		c0.8,1.5,0.5,3.2-0.7,4.4l-1.5,1.5c-1.2,1.1-2.6,2-4.1,2.6l-6.1,2.4l14.2,2.8l18.4,0.6c1.2,0,2.3,0.8,2.7,2l0,0
		c0.3,1.4-1,2.7-2.8,2.7l-20,0.1l22.3,4.8c1.4,0.2,2.4,1.5,2.3,2.9c0,0.1,0,0.2,0,0.3l0,0c-0.6,1.5-2.2,2.3-3.8,1.9l-23.9-5.2
		l21.5,8.2c1.3,0.3,2,1.7,1.7,2.9c-0.1,0.2-0.1,0.4-0.2,0.6l0,0c-0.9,1.2-2.5,1.7-3.9,1.2l-20.5-7.2l11.6,7.3c1.1,0.6,1.5,2,0.9,3
		c-0.1,0.3-0.3,0.5-0.5,0.7l0,0c-1,0.9-2.5,1-3.7,0.4l-13.9-6.9l-20.7-5.7l-4.5-3.8L588.8,506.4z"/>
	<path class="st0" d="M293,494.8c-3-10.8-13-9.1-18.5-8.6c-6,0.5-61.3,15.9-76.4,19.8c-8.6,2.2-13.2,3.2-12.1,7.5
		c1,4,10.2,4.4,13.8,4c38.8-3.8,48.1-4.9,82.7-9.7C298.9,505.6,293.8,497.6,293,494.8z"/>
	<path class="st0" d="M195.8,506.4c0,0-8-6.2-9.8-6.7s-11.1-3-12.4-3.7s-8.3-6.1-8.9-5.3c-0.2,0.3-0.6,1.1-1.1,1.8
		c-0.8,1.4-0.5,3.2,0.7,4.4l1.5,1.5c1.2,1.1,2.6,2,4.1,2.6l6.1,2.4l-14.2,2.8l-18.4,0.6c-1.2,0-2.3,0.8-2.6,2l0,0
		c-0.3,1.4,1,2.7,2.8,2.7l20,0.1l-22.3,4.9c-1.4,0.2-2.4,1.5-2.3,2.9c0,0.1,0,0.2,0,0.3l0,0c0.6,1.5,2.2,2.3,3.8,1.9l23.9-5.2
		l-21.5,8.2c-1.3,0.3-2,1.7-1.7,2.9c0.1,0.2,0.1,0.4,0.2,0.6l0,0c0.9,1.2,2.5,1.7,3.9,1.2l20.6-7.2l-11.6,7.3c-1.1,0.6-1.5,2-0.9,3
		c0.1,0.3,0.3,0.5,0.5,0.7l0,0c1,0.9,2.5,1,3.7,0.4l13.9-6.9l20.7-5.7l4.5-3.8L195.8,506.4z"/>
	<path class="st3" d="M580.5,492.2c0,0-3,34.6-3.6,36.7s-90.5-21.6-90.5-21.6L458,472l2.7,125.1c3.6,9.9-6.8,7.9-19.1,7.9h-95
		c-13.7,0-22.4,1.4-19.5-9.8L323,473.7c0,0-30.6,35-34.3,35.5s-73.5,15.6-73.5,15.6l-6.2-9.3l-2.1-22l67.9-12.3
		c0,0,44.3-55.3,46.1-53.5l30.4-12.4h1.4c0,0,8.3,1.9,17.5,6.4c6.6,3.3,13.8,6.7,18.5,8.7l37.1-19.7l18.8,4.8l17.8,6.7l50.4,52.6
		L580.5,492.2z"/>
</g>
</svg>
