<?xml version="1.0" encoding="utf-8"?>
<!-- Generator: Adobe Illustrator 26.0.1, SVG Export Plug-In . SVG Version: 6.00 Build 0)  -->
<svg version="1.1" id="Calque_1" xmlns="http://www.w3.org/2000/svg" xmlns:xlink="http://www.w3.org/1999/xlink" x="0px" y="0px"
	 viewBox="0 0 279.5 275" style="enable-background:new 0 0 279.5 275;" xml:space="preserve">
<style type="text/css">
	.st0{fill:#481F09;}
	.st1{fill:#D68F72;}
	.st2{fill:#8E5736;}
	.st3{fill:#4E6566;}
	.st4{fill:#8E5249;}
</style>
<g id="Calque_1_00000129885711243947108220000015607203155872324286_">
	<g id="Calque_12">
		<path class="st0" d="M226.5,102.3c0,0-0.1,3.9-9.3,10c-10.9,7.3-6.9,21.4-8.4,28.7c-1,4.9-9.9,17.3-13.7,16.6
			c-10.8-2-16.9-16.2-26.7-20.4c-5.7-2.4-8.2-4.7-13.7-2c-5.5-2.8-8-0.5-13.7,2c-9.8,4.2-15.8,18.5-26.7,20.4
			c-3.9,0.7-12.7-11.7-13.7-16.6c-1.5-7.3,2.5-21.4-8.4-28.7c-9.2-6.1-11.6-11-11.6-11c-7-17.1-6.1-26.8,3.9-29.8s29.4-7,38.6-10.1
			c4.7-1.6,8.5-3.4,10.6-5.8l1.6-37.3l18.3-0.6h2.2l14.3,0.5l4,0.1l0.7,15.7l0.6,12.9v0.5l0.4,8.2c0.4,0.5,0.9,0.9,1.5,1.3
			c2.7,2,6.8,3.2,11.6,4.2c6.5,1.3,30.5,8,37.8,9.4c3.1,0.6-2.8-0.9,0,0C236.5,73.4,233.5,85.1,226.5,102.3z"/>
		<path class="st0" d="M177.2,56.8c-5.4,4.2-18.8,11.4-21.3,12.6c-8.2,3.9-28.3-5-32.8-8.1c4.7-1.6,8.5-3.4,10.6-5.8l1.6-37.3h38.8
			l1.2,28.6v0.5l0.4,8.2C176.1,56,176.6,56.5,177.2,56.8z"/>
	</g>
</g>
<g id="Calque_9">
	<path class="st1" d="M113.2,98c-18.9,22.7-62.6,33.7-75.6,44.2c-6.1,5-22.2,14.3-30.2,5.4l0,0c-9.8-11.9-6,3.1-0.6-2.2
		c11-10.7,35.3-30.3,44.3-42.5c6.7-9.1,11.2-19.4,29-26.3c0,0,17.8-8,28.5,0.6C115.3,82.7,116.3,89.5,113.2,98L113.2,98z"/>
	<path class="st2" d="M16.8,143.6c16,2.3,18.3-9.1,20.2-15.1c2-6.5,0-45.5,1.7-63.4C39.6,55,40.4,49.6,34,48.5
		c-5.8-1-10.5,8.5-11.8,12.5C9.9,98.6,13.1,80.2,3.9,125.8C0.2,144.5,12.7,143,16.8,143.6z"/>
	<path class="st2" d="M37.5,66.3c0,0,11.9-5.4,13.5-7s9-10.2,10.5-11.2s12.1-5.8,11.2-6.8c-0.3-0.4-1.2-1.2-2-2
		c-1.7-1.6-4.1-2.1-6.3-1.4l-2.7,0.9c-2,0.6-3.8,1.7-5.4,3.1l-6,5.3l2.5-16.4l7.3-19.7C60.6,9.6,60,8,58.6,7.3l0,0
		c-1.7-0.9-3.9-0.3-4.8,1.4c0,0.1-0.1,0.1-0.1,0.2l-9.1,21l3.4-26c0.2-2-1.3-3.7-3.2-3.9h-0.1l0,0c-2-0.3-3.9,1.1-4.2,3.1l-3.6,27.8
		L35.4,4.1c-0.2-2-2-3.5-4-3.3h-0.1l0,0c-1.9,0.1-3.3,1.7-3.4,3.5l0.5,25.3l-4.8-15.9c-0.7-1.9-2.8-3-4.7-2.3c0,0-0.1,0-0.1,0.1l0,0
		c-1.5,0.5-2.5,2.1-2.2,3.7l3.1,18.1L18.2,58l3.1,6.6L37.5,66.3z"/>
	<path class="st3" d="M201.3,93.8c1.8,19.7,8.5,26.6,16.1,33c31,26,28.7,68.8,20.9,59.1c4.5,5.6,17.5,17.2,27.7,11.2l0,0
		c12.7-8.3,3.9-23.7,0.1-29.5c-7.6-11.7-19.1-73.1-34.4-82.9c0,0-15-10.8-27.6-5.6C196,82.5,200.6,85.6,201.3,93.8L201.3,93.8z"/>
	<path class="st2" d="M265.9,174.1c-10.4-5.7-18,2.7-23.5,10.8c-3.9,5.7-7,52.2-15.8,68.2c-5,9-14,1.3-8.5,4.6c5,3,17.6,2.2,20.4-1
		c29-33.7,23-30.5,33.4-57.8C278.8,181.1,269.5,176.1,265.9,174.1z"/>
	<path class="st4" d="M15.1,80.3c-1.7,5.5-9.1,32.6-14.5,53.8c-1.4,5.5-0.2,15,4.1,18.9c5.5,4.9,13.3,6.5,16.5,5.3
		c49.4-18,60.8-26.7,60.8-26.7s5.2,59.8,5.5,63.3s1,13.5,1,13.5l128.3,9.7c0,0,0-16.9,0.5-19.8c2-12.8,7.5-57.9,5.6-62.6
		c-10-26,7.6,32.7,16.4,53.5l-13.6,46.5l22.6,15.9c0,0,14.7-23.3,23-38.1c3.5-6.1,8.1-19.9,8.2-26.9c0.3-30-19.6-94.5-41.7-112.6
		c-5.5-4.5-15.2-7.7-22.5-9.7c-9.4-2.6-38.2-7.6-38.2-7.6s-14.3,17.8-45.3,0l0,0c0,0-45.9,6.9-58.9,14.8
		c-10.7,6.4-33.4,37.2-33.4,37.2s0.2-32.5,0-29C39.7,79.5,17.2,73.4,15.1,80.3z"/>
	<path class="st2" d="M196.2,266.1l4.2-9l11.8-10.2l15-0.8h4.2c0,0,7.8,4.6,7.5,6.7c-0.3,3.1-6.3,0.5-2.8,4.2
		c2.2,2.5-14.3,4.1-14.3,4.1l-4.1,6c0,0-1.6,6.2-1.8,6.5c-1.4,2.5-11.8,0.8-11.8,0.8l0.6-10l2.4-7l-3.1,3c0,0-2.1,5-2.5,5.2
		C200.5,266.1,196.2,266.1,196.2,266.1z"/>
</g>
<g id="Calque_10">
	<path class="st3" d="M91.7,232.5L91.7,232.5c0-6.5-2.4-13.2-3.3-24.7l128.3,9.7c-0.2,11.5-0.8,8.5-0.8,15l0,0
		c0,6.5-5.6,11.7-12.6,11.7h-99C97.3,244.1,91.7,238.9,91.7,232.5z"/>
</g>
</svg>
