<?xml version="1.0" encoding="utf-8"?>
<!-- Generator: Adobe Illustrator 26.0.3, SVG Export Plug-In . SVG Version: 6.00 Build 0)  -->
<svg version="1.1" id="Layer_1" xmlns="http://www.w3.org/2000/svg" xmlns:xlink="http://www.w3.org/1999/xlink" x="0px" y="0px"
	 viewBox="0 0 788 1005.1" style="enable-background:new 0 0 788 1005.1;" xml:space="preserve">
<style type="text/css">
	.st0{fill:#5D4751;}
	.st1{fill:#B56D50;}
	.st2{fill:#90B4C4;}
	.st3{fill:#7698A8;}
	.st4{fill:#91B5C5;}
	.st5{fill:#7498A8;}
	.st6{fill:#44351A;}
	.st7{fill:none;stroke:#7498A8;stroke-width:2;stroke-linecap:round;stroke-miterlimit:10;}
	.st8{fill:none;stroke:#7198A8;stroke-width:2;stroke-linecap:round;stroke-miterlimit:10;}
	.st9{fill:none;stroke:#4B3842;stroke-miterlimit:10;}
	.st10{fill:#3B7084;}
</style>
<polygon points="220.9,518.6 221,518.6 220.9,518.5 "/>
<polygon points="221,518.6 221.1,518.6 221.1,518.5 "/>
<polygon points="220.9,518.6 221,518.6 220.9,518.5 "/>
<polygon points="221,518.6 221.1,518.6 221.1,518.5 "/>
<path class="st0" d="M330.4,684.6c3.1,12.5,15,20.8,27.9,19.4l0,0c12.3-1.3,21.9-11.2,22.9-23.5c0,0,4.6-87.3,1.7-118
	c-0.7-7.3-5.3-28.8-5.3-28.8l-11.1-50c0,0-6.6-23.4-32.2-23.2c-29.5,0.2-28.4,16-28.4,16s-2.3,77.3,0.6,102.7
	C309.2,602.8,330.4,684.6,330.4,684.6z"/>
<path class="st1" d="M350.8,664.5c-13.3,1.9-20.2,9.7-20.9,21c0,0,1.6,53.7,3.7,74.5c3.4,33.3,17.6,96.2,27.3,128.3
	c2.1,7,7.4,28.3,7.4,28.3c1.7,6.3,7.9,10.4,14.3,9.3l0,0c6.3-1.1,10.8-6.8,10.5-13.2c0,0-1.8-25.2-1.9-33.6
	c-0.4-30.5,3-91.6,0.2-122c-1.7-18.3-12.1-73.6-12.1-73.6C375.6,665.3,362.1,663.3,350.8,664.5L350.8,664.5z"/>
<path class="st2" d="M379.6,908.7L379.6,908.7c-5.8,0.1-11.1,3.5-13.6,8.8l0,0c-5.7,11.8-29.5,27.7-29.5,27.7
	c-4.3,3.3-6.3,8.7-5.4,14.1l0,0h58l3.3-1c3.7-1.1,6.2-4.7,5.8-8.6l-3.2-28.8C393.3,913.6,386.9,908.6,379.6,908.7z"/>
<path class="st3" d="M332.6,958.9L332.6,958.9c-0.8-4.7,2.4-9.2,7.2-9.9c0,0,0.1,0,0.1,0l34.5-5c4.4-0.6,8.6,2.2,9.7,6.6l2,8.2
	L332.6,958.9z"/>
<path class="st0" d="M618.4,498.2c12.1,4.4,19.2,17,16.6,29.6l0,0c-2.5,12.1-13.3,20.7-25.6,20.5c0,0-87.3-4-117.7-9.8
	c-7.5-1.4-76.7-24.1-76.7-24.1s-21.6-2.8-19.9-34.3c1.5-28.1,18.7-26.7,18.7-26.7s76.2,5,101.2,10.5
	C538.2,468.9,618.4,498.2,618.4,498.2z"/>
<path class="st1" d="M633.7,519.1c5.9,10.4,3.5,20-5.1,27.1c0,0-45.2,18.2-63,29.1c-28.5,17.5-85.6,57.7-116.6,70
	c-6.8,2.7-26.8,11.7-26.8,11.7c-6,2.6-12.7,0.7-15.4-4.5l0,0c-2.7-5.1-0.7-11.6,4.7-15.2c0,0,21.2-13.7,28-18.7
	c24.6-17.9,71.6-56.7,97.5-72.8c15.6-9.7,65.7-35.4,65.7-35.4C619.1,502.2,628.3,510.4,633.7,519.1L633.7,519.1z"/>
<path class="st1" d="M432.1,648.6c-32.6,3-32.9,51.2-32.9,51.2c-2.8,4.7-29.1-61.3-25.2-61.4c0,0,49.8-5,62.1-9.1
	C444.8,626.5,451.2,646.8,432.1,648.6z"/>
<path class="st4" d="M419.6,645c2.9,5.8,7.2,4.8,10,6.9c1.7,1.3,4,7.1,2.3,8.2c-20.3,13-26.2,62.8-26.2,62.8
	c-3,5.6-7.9,7.4-13.3,7.1l0,0c0,0-14.4-40.6-7.1-64.9c1.5-4.8-4-8.2-4-8.2s-6.3-20.9,0.3-20.6l40.4-7.8
	C429.3,629.4,414.7,635,419.6,645z"/>
<path class="st5" d="M383.7,732.5c8.7-0.3,13.5-5.9,13-7.5c-0.6-2.3-3.1-5.9-3.8-8.2c-1.1-3.7-1.7-15.3-1.7-15.3
	c-0.1-3-3.3-5-7.5-4.7l-8.3,0.9c0,0,0,7.1,4.6,23.3C380.8,723.7,383.7,732.5,383.7,732.5z"/>
<polygon class="st6" points="304.1,491.4 305.6,469.8 454.8,469.8 456.7,488.5 "/>
<path class="st7" d="M363.1,926.5c0,0,4.6-3.2,8.6-3.2c4.9,0,9.6,3,9.6,3"/>
<path class="st8" d="M415.5,673.3c-1.5-2.6-2.5-5.4-3.2-8.3"/>
<path class="st8" d="M411.4,679.3c-1.6-2.5-2.9-5.2-3.7-8.1"/>
<polygon class="st9" points="379.1,528.5 374.3,490 388.7,490 387.8,521.1 "/>
<path class="st10" d="M305.6,469.8c0,0,55.8-10.4,143-13.7c67.1-2.5,173,33.4,181.8,44.8c8.8,11.5,14.6,36.7,6.5,42.6
	c-40.3,29.8-169.8,91.5-179.8,99.5c-6.5,5.2-12.6,4.1-12.6,4.1L428.5,626c0,0,13.9-9.9,16.1-11.3c-0.1-0.9,25.1-16.8,40.9-39.5
	c9.3-13.3,41.7-29.5,51.4-29.5c0,0-63.7,12.7-158.3-7.4C335.6,529.2,305.6,469.8,305.6,469.8z"/>
<path class="st10" d="M308.7,460.6c-1.2,2.2-2.4-4.2-18.9,58c-12.3,46.2,70.8,369.6,70.8,369.6l4,19c8.3-3.6,28.6-6.1,28.6-6.1
	l-1.7-15c4.5-7.5,10-82.7,5.3-113.7s-8.1-135.6-8.1-135.6c18.7-79.8,18.1-102,26.4-122.4s-1.6-56.6-9.4-56.1
	S315.3,448.8,308.7,460.6z"/>
<path class="st10" d="M308.5,507c-1.3-2.2-4.4-15.5-4.4-15.5s2.4-50.4,7.5-63.7s27-38.4,69.9-35.6s49.6,26.4,56.9,35.6
	s10.1,42.7,8.2,43.6s-135.4,49-138.1,37.9"/>
</svg>
