<?xml version="1.0" encoding="utf-8"?>
<!-- Generator: Adobe Illustrator 26.0.3, SVG Export Plug-In . SVG Version: 6.00 Build 0)  -->
<svg version="1.1" id="Layer_1" xmlns="http://www.w3.org/2000/svg" xmlns:xlink="http://www.w3.org/1999/xlink" x="0px" y="0px"
	 viewBox="0 0 388 618.3" style="enable-background:new 0 0 388 618.3;" xml:space="preserve">
<style type="text/css">
	.st0{fill:#BAA535;}
	.st1{fill:#E78367;}
	.st2{fill:#B56D50;}
	.st3{fill:#E5E5E5;stroke:#7FADD5;stroke-width:0.25;stroke-miterlimit:10;}
	.st4{fill:none;}
</style>
<path class="st0" d="M168,149.3v-43c0,0-32.8-49.8-33.6-49.8s-19.9,21.5-19.9,21.5L112,96.5l-5.5,72.7c0,0,10,155.2,10,156.7
	c0,0.5,0.3,4.7,0.7,9.8c1,12.2,9.7,21.5,20.2,21.5l0,0c9.9,0,15-4.4,16.6-15.8l2.2-15.4c0,0,8.3-85.1,7.2-87.1
	c-0.7-1.4,6.3-50.7,4.5-52.7S168,149.3,168,149.3z"/>
<path class="st1" d="M152.6,362.8c-0.2-0.9-6.7-38.9-17.1-38.9l0,0c-9.9,0-18.2,7.8-19.5,18.2l-0.9,7.1c0,0-4.6,65.4-3.6,66.9
	s18.2,114.3,18.2,117c0,6.4,4.7,11.6,10.7,12l0,0c7,0.4,8-4.1,7.2-11.5l11.8-124.5L152.6,362.8z"/>
<path class="st2" d="M139.8,520.9c-4.4-0.1-11,1.2-10.5,15.2c0.2,4.9-1.6,26.6-5.5,32c-1.1,1.5-1.8,5.6-5,8.2c-1,0.8-1.5,2-1.3,3.3
	l-0.9,5.3l31.3,1l9.2-6.6l-6.5-26.8l-2.2-17.5l-0.7-4.1C146.7,521.1,146.4,521.1,139.8,520.9z"/>
<path class="st1" d="M173.6,44.1h-30.1c-8.8,0-15.1,0.9-21.4,12.4c0,0-9.7,15.6-11.9,21.4c-5.9,15.8-11.2,53.2-12.6,66.4
	c-5.5,51.3,14.4,189.8,14.4,189.8s-4,57.9-2.8,77.2c1.5,24.3,15.4,96.1,15.4,96.1l25.9,0c0,0,9.8-76,10.2-101.5
	c0.3-16.9-4.6-50.5-4.6-67.5c0.1-37.9,11.7-113.1,15.2-150.8c1-10.5,25.6-52.4,25.6-52.4L173.6,44.1z"/>
<path class="st3" d="M128.7,545.9l21-1.1c0,0,10,28.4,8.3,38c-0.7,3.8-5.2,10.8-8.3,13c-2.7,1.9-10.7,4.1-14.6,5.1
	c-1.4,0.4-2.9,0.2-4.2-0.5c-4.6-2.6-15.8-9.2-17.8-13.1c-1.4-2.7,2-11.9,2-11.9l6.3-14.2L128.7,545.9z"/>
<path class="st2" d="M239.7,362.6c0-0.9-0.8-39.6,9.4-41.8l0,0c9.7-2.1,19.3,3.8,22.5,13.7l2.2,6.8c0,0,16.8,63.1,16.1,64.7
	s3.7,115.9,4.1,118.6c1.2,6.3-2.4,12.4-8.2,14l0,0c-6.8,1.9-8.6-2.3-9.3-9.7l-35-119.6L239.7,362.6z"/>
<path class="st2" d="M282,514.9c4.3-1,11-1.1,13.1,12.7c0.7,4.9,6.6,25.7,11.4,30.2c1.3,1.2,2.8,5.1,6.4,7c1.1,0.6,1.8,1.7,1.9,2.9
	l1.9,5l-30.5,1.9l-3.2-3c-4.3-4.1-6.6-9.9-6.3-15.9l0.4-7.6l-1.1-17.6l-0.1-4.2C275.3,516.4,275.6,516.4,282,514.9z"/>
<path class="st2" d="M124.2,47.8l22-3.5c8.6-2,55-4.4,59.1,4.4c0,0,4.3-11.6,44.9,78.1c20.9,46.1,25.6,198.3,25.6,198.3
	s14.2,55.8,16.5,75c2.9,24.2,0.1,115.4,0.1,115.4l-6.4,23.3c0,0-40.2-107.5-45.1-132.4c-3.3-16.5-4.5-50.6-7.5-67.1
	c-6.9-37.2-31.6-108.2-41.8-144.3c-2.8-10-25-52.4-25-52.4L124.2,47.8z"/>
<path class="st3" d="M335,599.7l-0.9-8.1l0,0c0-0.3,0-0.7-0.2-1l-17.3-27.4c-0.1-0.1-0.1-0.2-0.2-0.3l-8.8-12.4l-7.7-10.3
	c-1.4-1.8-3.6-2.7-5.9-2.4l-12.1,1.9c-2.9,0.5-5.6,2.5-5.7,5.4l0.1,17.2c0,1.7,0.6,3.4,1.9,4.6l6.9,6.5c0.7,0.7,1.3,1.5,1.6,2.5
	l4.3,12.8c0.6,1.7,1.8,3,3.4,3.7c3,2,8.7,5.7,11.2,6.4c5.6,1.5,20.3,3,26.7,3.5C333.9,602.6,335.2,601.3,335,599.7z"/>
<path class="st2" d="M276.9,542.6l20.2,29.1c2.2,3.4,5.8,5.7,9.8,6.3l13.3,1.9c1.1,0.2,2-1,1.5-2.1l-9.4-20.6l-15.1-20.3l-19,0
	L276.9,542.6z"/>
<path class="st2" d="M128.7,545.9l-2.3,19.5c-0.5,4.4,2.9,8.3,7.4,8.3h5.7c5.6,0,10.2-4.6,10.2-10.2v-18.7l-12.2-6.7L128.7,545.9z"
	/>
<path class="st4" d="M216.1,61.1c15.6,5,22.3,9.3,26,15.9c3,5.4,5.8,17.8,6,24c0.5,14.5-7.5,51-21.1,63.1
	c-13.9,12.4-81.6,12.4-95.5,0c-13.5-12.2-21.5-48.7-21-63.1c0.2-6.2,3-18.6,6-24c3.7-6.7,10.5-10.9,26-15.9
	c17.8-5.8,35.9-4.9,35.9-4.9S198.3,55.4,216.1,61.1z"/>
<path class="st3" d="M244.9,76.5c12,55,31.3,135.4,30.8,140.2c-8.7,97.8-112.5,314.7-112.5,314.7c-22.7,9.7-135.5,45.7-85.2-324.6
	c3.9-28.8,20-86.6,31.5-129.2c0,0,9.8-27.8,21.2-39s89.5-10.1,99.8-0.1S244.9,76.5,244.9,76.5z"/>
</svg>
