<?xml version="1.0" encoding="utf-8"?>
<!-- Generator: Adobe Illustrator 26.0.3, SVG Export Plug-In . SVG Version: 6.00 Build 0)  -->
<svg version="1.1" id="Calque_1" xmlns="http://www.w3.org/2000/svg" xmlns:xlink="http://www.w3.org/1999/xlink" x="0px" y="0px"
	 viewBox="0 0 788 1005.1" style="enable-background:new 0 0 788 1005.1;" xml:space="preserve">
<style type="text/css">
	.st0{fill:#22677C;}
	.st1{fill:#293C51;}
	.st2{fill:#314A60;}
</style>
<path class="st0" d="M318.4,890.3l-8.6,2c-1.3,0.3-2.3,1.2-2.7,2.5l-6.1,18.1c-0.1,0.4-0.2,0.8-0.2,1.2v5c0,0.7-0.2,1.3-0.5,1.9
	l-6.1,10.5c-1,1.7-0.6,3.8,1,4.9c1.5,1.1,3.3,2.2,4.5,1.8c1.9-0.7,35-1.4,46.3-1.7c2.1,0,3.7-1.7,3.7-3.8l0,0c0-0.7-0.2-1.4-0.6-2
	l-7.9-12.8c-0.2-0.3-0.3-0.6-0.4-0.9l-6.5-20.5c-0.2-0.7-0.6-1.3-1.2-1.8l-4.5-3.7c-0.7-0.6-1.6-0.9-2.4-0.9h-6.9
	C318.9,890.1,318.6,890.2,318.4,890.3z"/>
<path class="st0" d="M440.7,893.7l8.6,2c1.3,0.3,2.3,1.2,2.7,2.5l6.1,18.1c0.1,0.4,0.2,0.8,0.2,1.2v4.9c0,0.7,0.2,1.3,0.5,1.9
	l6.1,10.5c1,1.7,0.6,3.8-1,4.9c-1.5,1.1-3.3,2.2-4.5,1.8c-1.9-0.7-35.1-1.4-46.3-1.7c-2.1,0-3.7-1.7-3.7-3.8l0,0
	c0-0.7,0.2-1.4,0.6-2l7.9-12.8c0.2-0.3,0.3-0.6,0.4-0.9l6.5-20.5c0.2-0.7,0.6-1.3,1.2-1.8l4.5-3.7c0.7-0.6,1.5-0.9,2.4-0.9h6.9
	C440.1,893.6,440.4,893.6,440.7,893.7z"/>
<path class="st1" d="M475.5,698.9c-1-41-26.6-267.9-26.6-268l-0.5-7.4c-0.8-10.9-9.9-19.4-20.8-19.4h-97c-10.7,0-19.7,8.1-20.8,18.8
	l-1.2,12l-0.1,0.2c0,0-28,237.8-27,265.8s13.6,197,13.6,197h47.4c0,0,17-186,17-210s20.1-182,20.1-182s21.9,148,20.9,172
	s17,220,17,220h42C459.5,897.9,476.5,739.9,475.5,698.9z"/>
<path class="st1" d="M342.8,903.5h-46.9c-1.8,0-3.3-1.5-3.3-3.3v-3.3c0-1.8,1.5-3.3,3.3-3.3h46.9c1.8,0,3.3,1.5,3.3,3.3v3.3
	C346.2,902.1,344.7,903.5,342.8,903.5z"/>
<path class="st2" d="M345.3,898.6h-51.1c-1.8,0-3.3-1.5-3.3-3.3v-4.7c0-1.8,1.5-3.3,3.3-3.3h51.1c1.8,0,3.3,1.5,3.3,3.3v4.7
	C348.6,897.1,347.1,898.6,345.3,898.6z"/>
<path class="st1" d="M459.2,905.2h-40.3c-1.8,0-3.3-1.5-3.3-3.3v-3.3c0-1.8,1.5-3.3,3.3-3.3h40.3c1.8,0,3.3,1.5,3.3,3.3v3.3
	C462.5,903.7,461,905.2,459.2,905.2z"/>
<path class="st2" d="M461.3,900.3h-43.9c-1.8,0-3.3-1.5-3.3-3.3v-4.7c0-1.8,1.5-3.3,3.3-3.3h43.9c1.8,0,3.3,1.5,3.3,3.3v4.7
	C464.7,898.8,463.2,900.3,461.3,900.3z"/>
</svg>
