<?xml version="1.0" encoding="utf-8"?>
<!-- Generator: Adobe Illustrator 26.0.3, SVG Export Plug-In . SVG Version: 6.00 Build 0)  -->
<svg version="1.1" id="Calque_1" xmlns="http://www.w3.org/2000/svg" xmlns:xlink="http://www.w3.org/1999/xlink" x="0px" y="0px"
	 viewBox="0 0 788 1005.1" style="enable-background:new 0 0 788 1005.1;" xml:space="preserve">
<style type="text/css">
	.st0{fill:#BAA535;}
	.st1{fill:#B56D50;}
	.st2{fill:#0F2033;}
	.st3{fill:#B22947;}
	.st4{fill:none;}
</style>
<path class="st0" d="M370.2,505.3v-53.8c0,0-35.2-52.1-36-52.1s-18.6,26.9-18.6,26.9l-2.3,23.3l-0.5,80.7c0,0,5.6,142.4,5.6,144
	c0,0.5,0.3,4.7,0.7,9.8c1,12.2,9.7,21.5,20.2,21.5l0,0c9.9,0,15-4.4,16.6-15.8l2.2-15.3c0,0,8.3-85.1,7.2-87.1
	c-0.7-1.4,6.5-33.2,4.9-35.7C368.6,549,370.2,505.3,370.2,505.3z"/>
<path class="st1" d="M354.5,711.1c-0.2-0.9-6.7-39-17.1-39l0,0c-9.9,0-18.2,7.8-19.5,18.2l-0.9,7.1c0,0-4.6,65.4-3.6,66.9
	s18.2,114.3,18.2,117.1c0,6.4,4.7,11.6,10.7,12l0,0c7,0.4,8-4.1,7.2-11.5l11.8-124.6L354.5,711.1z"/>
<path class="st1" d="M341.7,869.2c-4.4-0.1-11,1.2-10.5,15.2c0.2,4.9-1.6,26.6-5.5,32c-1.1,1.5-1.8,5.6-5,8.2c-1,0.8-1.5,2-1.3,3.3
	l-0.9,5.3l31.3,1l9.2-6.6l-6.5-26.8l-2.2-17.5l-0.7-4.1C348.6,869.3,348.3,869.4,341.7,869.2z"/>
<path class="st2" d="M370.9,383.8h-28.1c-8.2,0-14.1,1.1-19.9,15.5c0,0-9.1,19.6-11.1,26.8c-5.5,19.7-5.8,56.4-7.2,72.9
	c-5.2,64.3,9.5,183.4,9.5,183.4s-4,57.9-2.8,77.2c1.5,24.3,15.4,96.1,15.4,96.1h25.9c0,0,9.8-76,10.2-101.5
	c0.3-16.9-4.6-50.5-4.6-67.5c0.1-37.9,12-86.3,15.4-133.5c0.9-13.1,23.9-65.6,23.9-65.6L370.9,383.8z"/>
<path class="st3" d="M330.6,894.2l21-1.1c0,0,10,28.4,8.3,38c-0.7,3.9-5.2,10.8-8.3,13c-3.7,2.5-16.8,5.6-16.8,5.6
	s-17.2-9.2-19.8-14.2c-1.4-2.6,2-11.9,2-11.9l6.3-14.2L330.6,894.2z"/>
<path class="st1" d="M441.6,710.9c0-0.9-0.8-39.6,9.4-41.8l0,0c9.7-2.1,19.3,3.8,22.5,13.7l2.2,6.8c0,0,16.8,63.1,16.2,64.8
	s3.6,115.9,4.1,118.6c1.2,6.3-2.4,12.4-8.2,14l0,0c-6.8,1.9-8.6-2.3-9.3-9.7l-35-119.5L441.6,710.9z"/>
<path class="st1" d="M483.9,863.2c4.3-1,11-1.2,13.1,12.7c0.7,4.9,6.6,25.7,11.4,30.2c1.3,1.2,2.8,5.1,6.4,7
	c1.1,0.6,1.8,1.7,1.9,2.9l1.9,5l-30.5,1.9l-1.7-1.6c-5.3-5-8.1-12.1-7.7-19.4l0.3-5.5l-1-17.6l-0.1-4.2
	C477.2,864.7,477.5,864.7,483.9,863.2z"/>
<path class="st2" d="M331.1,391.5l14.1-7.4c8.1-2.5,51.4-5.5,55.2,5.4c0,0,23.5,27.8,46.5,87.5c19.5,57.7,30.6,196.2,30.6,196.2
	s14.2,55.8,16.5,75c2.9,24.2,2,97.6,2,97.6l-25.4,5.9c0,0-23.2-72.2-28.1-97.2c-3.3-16.5-4.5-50.6-7.5-67.1
	c-6.9-37.2-33.4-79.9-43-125.2c-2.6-12.5-23.3-65.5-23.3-65.5L331.1,391.5z"/>
<path class="st3" d="M518.3,911.2l-8.8-12.6l-10-13.3l-20.8,2.8l-0.4,19.6c-0.1,3.6,1.3,7,3.9,9.4l3.4,3.3c1.6,1.5,2.8,3.5,3.5,5.6
	l2.9,8.7c1.5,4.4,4.6,7.9,8.8,9.8c2.5,1.2,5.2,2.3,6.7,2.7c5.1,1.4,17.6,2.7,24.7,3.4c2.7,0.2,5-1.9,5-4.6v-1.3
	c0-2.2-0.6-4.4-1.8-6.2L518.3,911.2z"/>
<path class="st1" d="M478.7,888.1l21.1,32.5c1.7,2.6,4.5,4.4,7.6,4.8l14.3,2.1c1.3,0.2,2.3-1.2,1.8-2.4l-9.2-20.2l-15.5-21.2
	L478.7,888.1z"/>
<path class="st1" d="M330.6,894.2l-2.3,18.6c-0.6,4.9,3.2,9.2,8.1,9.2h6.9c4.5,0,8.2-3.7,8.2-8.2v-20.7l-12.2-6.7L330.6,894.2z"/>
<polygon points="212.7,476.9 212.8,476.9 212.7,476.8 "/>
<polygon points="212.8,476.9 212.9,476.9 212.9,476.8 "/>
<polygon points="212.7,476.9 212.8,476.9 212.7,476.8 "/>
<polygon points="212.8,476.9 212.9,476.9 212.9,476.8 "/>
<polygon points="212.4,477.2 212.5,477.2 212.4,477.1 "/>
<polygon points="212.5,477.2 212.6,477.2 212.6,477.1 "/>
<polygon points="212.4,477.2 212.5,477.2 212.4,477.1 "/>
<polygon points="212.5,477.2 212.6,477.2 212.6,477.1 "/>
<polygon points="204.6,477.2 204.7,477.2 204.6,477.1 "/>
<polygon points="204.7,477.2 204.8,477.2 204.8,477.1 "/>
<polygon points="204.6,477.2 204.7,477.2 204.6,477.1 "/>
<polygon points="204.7,477.2 204.8,477.2 204.8,477.1 "/>
<polygon points="216.1,500 216.2,500 216.1,499.9 "/>
<polygon points="216.2,500 216.3,500 216.3,499.9 "/>
<polygon points="216.1,500 216.2,500 216.1,499.9 "/>
<polygon points="216.2,500 216.3,500 216.3,499.9 "/>
<path class="st4" d="M405.5,412.5c14.5,6.3,20.9,11.6,24.3,19.9c2.8,6.8,10,12,10.2,19.8c0.5,18.1-7,63.8-19.7,79
	c-13,15.5-76.2,15.5-89.2,0c-12.7-15.2-20.2-60.9-19.7-79c0.2-7.7-1.8-13,1-19.8c3.5-8.4,9.8-13.7,24.3-19.9
	c16.6-7.2,33.5-6.1,33.5-6.1S388.9,405.3,405.5,412.5z"/>
<path class="st4" d="M406.5,412.5c14.5,6.3,20.9,11.6,24.3,19.9c2.8,6.8,10,12,10.2,19.8c0.5,18.1-7,63.8-19.7,79
	c-12.9,15.5-76.2,15.5-89.2,0c-12.7-15.2-20.2-60.9-19.7-79c0.2-7.7-1.8-13,1-19.8c3.5-8.4,9.8-13.7,24.3-19.9
	c16.6-7.2,33.5-6.1,33.5-6.1S389.9,405.3,406.5,412.5z"/>
</svg>
