<?xml version="1.0" encoding="utf-8"?>
<!-- Generator: Adobe Illustrator 26.0.3, SVG Export Plug-In . SVG Version: 6.00 Build 0)  -->
<svg version="1.1" id="Layer_1" xmlns="http://www.w3.org/2000/svg" xmlns:xlink="http://www.w3.org/1999/xlink" x="0px" y="0px"
	 viewBox="0 0 388 618.3" style="enable-background:new 0 0 388 618.3;" xml:space="preserve">
<style type="text/css">
	.st0{fill:#547A87;}
	.st1{fill:#B56D50;}
	.st2{fill:#2B2B2B;}
	.st3{fill:#111111;}
</style>
<path class="st0" d="M235.9,61.3c15.6,5,22.3,9.3,26,15.9c3,5.4,5.8,17.8,6,24c0.5,14.5-7.5,51-21.1,63.1
	c-13.9,12.4-81.6,12.4-95.5,0c-13.6-12.2-21.6-48.6-21.1-63.1c0.2-6.2,3-18.6,6-24c3.7-6.7,10.5-10.9,26-15.9
	c17.8-5.8,35.9-4.8,35.9-4.8S218.1,55.5,235.9,61.3z"/>
<rect x="125.8" y="481.2" class="st1" width="22.8" height="65.7"/>
<path class="st2" d="M125.8,532l-6.4,18.8c-0.6,1.7-0.9,3.5-0.9,5.4l0,0c0,2.7-0.7,5.4-2.1,7.7l-3.4,5.9c-2,3.4-0.1,7.9,3.8,8.6
	c0.6,0.1,1.1,0.1,1.5,0c2.1-0.7,37.3-1,47.9-1c1.7,0,3-1.4,3-3.1v-1.9l-6.5-10.6c-1.6-2.6-2.9-5.5-3.9-8.4l-4.5-14
	c-0.9-2.8-2.6-5.3-4.9-7.2h0c-2-1.7-4.5-2.6-7.1-2.6h-3.9c-0.8,0-1.5,0.1-2.3,0.2l-1.9,0.3L125.8,532z"/>
<rect x="251.6" y="484.8" class="st1" width="22.8" height="65.7"/>
<path class="st2" d="M275.6,538.2l5.7,16.7c0.4,1.2,0.6,2.4,0.6,3.6l0,0c0,3.3,0.9,6.5,2.5,9.4l3.4,5.9c1.6,2.8,0,6.4-3.2,7
	c-0.7,0.1-1.4,0.1-1.9-0.1c-2.1-0.8-39-0.4-49-0.3c-1.4,0-2.5-1.1-2.5-2.5v-2.5l7.2-11.7c1.2-2,2.2-4.1,2.9-6.4l5.5-17.1
	c0.5-1.5,1.4-2.8,2.5-3.8l1.8-1.5c1.9-1.6,4.3-2.4,6.8-2.4h2.5c1.8,0,3.5,0.2,5.2,0.6l6,1.4C273.4,535.1,275,536.4,275.6,538.2z"/>
<path class="st0" d="M125.6,100.9c-2.2,17.7-11.1,85.9-11,103.7c0.2,46.5,8.2,87,7.7,89c-0.7,2.2-9.7,103.8-12.7,138.8
	c-0.7,7.6,0.2,15.3,2.7,22.6l14.5,43h22.1c0,0,11.6-26,17.6-39.4c2.3-5.1,3.5-10.5,3.7-16.2c0.9-28.6,3.6-120.8,5.4-128.9
	c3-12.9,20.2-176.9,20.2-176.9V65.4l-42.6-0.3c-13,3.6-25.3,15.2-26.9,30.2L125.6,100.9z"/>
<path class="st0" d="M276.5,155.6c3.8,26.9,5.2,54.2,4,81.4c-1.1,25.4-2.2,53.5-1.7,55c0.7,2.2,15.8,96.3,21.2,130.5
	c1.2,8.1,0.2,16.3-3,23.9l-22.7,51.9l-22.7-2.5l-18.2-50.4c-2.4-6.6-3.4-13.5-3.3-20.5c0.9-27.5,3.3-100,3.8-101.6
	c0.8-2-29-189.3-29-189.3V65.8l43,2.9c14.1-0.1,21.3,33.8,22.9,48.7L276.5,155.6z"/>
<path class="st3" d="M116.8,571.2l-3.2-2.6l-1.8,3.2c-1,1.8-0.6,4.1,1.1,5.3l0.7,0.5c1.2,1,2.9,1.4,4.5,1.4l48.8-1.8
	c1.2,0,2.2-1.1,2.2-2.3v-2.8l-47,1.1C120.3,573.1,118.3,572.4,116.8,571.2z"/>
<path class="st3" d="M231.1,575.6v2.5c0,1.4,1.1,2.5,2.5,2.6l47.8,2.2c1.5,0.1,3.2-0.4,4.5-1.3l2.1-1.5c1.3-1,1.7-2.8,0.9-4.2
	l-0.9-1.6l-3.5,3c-1.1,1-2.4,1.3-3.7,1.2L231.1,575.6z"/>
</svg>
