<?xml version="1.0" encoding="utf-8"?>
<!-- Generator: Adobe Illustrator 26.0.3, SVG Export Plug-In . SVG Version: 6.00 Build 0)  -->
<svg version="1.1" id="Calque_1" xmlns="http://www.w3.org/2000/svg" xmlns:xlink="http://www.w3.org/1999/xlink" x="0px" y="0px"
	 viewBox="0 0 788 1005" style="enable-background:new 0 0 788 1005;" xml:space="preserve">
<style type="text/css">
	.st0{fill:#662C34;}
	.st1{clip-path:url(#SVGID_00000150075307641080168680000002345040076603584139_);fill:#51281D;}
	.st2{clip-path:url(#SVGID_00000070799411173147838310000016147298145968336047_);fill:#51281D;}
	.st3{fill:#FFFFFF;}
	.st4{fill:#423522;}
	.st5{fill:#AF7C66;}
</style>
<g>
	<path class="st0" d="M380.1,274.6c8.7,3,18.3,2.8,26.9-0.5C399.8,280.1,387.6,280.3,380.1,274.6L380.1,274.6z"/>
</g>
<g>
	<g>
		<g>
			<g>
				<g>
					<g>
						<g>
							<defs>
								<polygon id="SVGID_1_" points="404.5,221.3 404.5,221.3 427.9,221.3 427.9,228.4 404.5,228.4 								"/>
							</defs>
							<clipPath id="SVGID_00000137820754624253603540000014262045313376005509_">
								<use xlink:href="#SVGID_1_"  style="overflow:visible;"/>
							</clipPath>
							<path style="clip-path:url(#SVGID_00000137820754624253603540000014262045313376005509_);fill:#51281D;" d="M426.8,228.4
								c-0.1,0-0.3,0-0.4-0.1c0,0-3.6-1.5-7.2-2.3c-7.9-1.8-8.4-0.5-11.1,0c-0.8,0.2-2.7-0.3-3.1-0.8s-0.8-2.1-0.3-2.5
								c0.2-0.2,3.7-2.6,12.7-0.5c3.7,0.9,9.7,4.1,9.8,4.2c0.6,0.2,0.8,0.9,0.6,1.5C427.6,228.2,427.2,228.4,426.8,228.4z"/>
						</g>
					</g>
				</g>
			</g>
		</g>
	</g>
	<g>
		<g>
			<g>
				<g>
					<g>
						<g>
							<defs>
								<polygon id="SVGID_00000070086251466809630700000008124678160757064849_" points="381.7,221.3 381.7,221.3 358.3,221.3 
									358.3,228.4 381.7,228.4 								"/>
							</defs>
							<clipPath id="SVGID_00000090285845037054186640000008358655567782872228_">
								<use xlink:href="#SVGID_00000070086251466809630700000008124678160757064849_"  style="overflow:visible;"/>
							</clipPath>
							<path style="clip-path:url(#SVGID_00000090285845037054186640000008358655567782872228_);fill:#51281D;" d="M359.4,228.4
								c0.1,0,0.3,0,0.4-0.1c0,0,3.6-1.5,7.2-2.3c7.9-1.8,8.4-0.5,11.1,0c0.8,0.2,2.7-0.3,3.1-0.8s0.8-2.1,0.3-2.5
								c-0.2-0.2-3.7-2.6-12.7-0.5c-3.7,0.9-9.7,4.1-9.8,4.2c-0.6,0.2-0.8,0.9-0.6,1.5C358.6,228.2,359,228.4,359.4,228.4z"/>
						</g>
					</g>
				</g>
			</g>
		</g>
	</g>
</g>
<g>
	<g>
		<path class="st3" d="M383.1,244.8c0,0-6.3,2.2-12.5,0.8c-6.2-1.4-6.4-2.4-6.4-2.4l5-3.6l3.4-0.8l6,0.5l1.5,1.1l2,2.1L383.1,244.8z
			"/>
		<path class="st4" d="M379,239.9c2.1,1.2,3.2,3.1,4.1,5c0.1-0.1,0.2-0.1,0.2-0.2c0-0.3,0-0.6-0.1-0.8c-1.3-2.3-2.8-4.6-5.6-5.3
			c-3.8-0.9-7.5-0.5-10.8,1.9c-1.1,0.8-2.1,1.6-3.2,2.5c1.6,1.5,7,3.2,7.6,2.4c-0.4-0.1-0.7-0.1-1-0.2c-0.8-0.3-1.7-0.6-2.5-1
			c-0.4-0.2-0.2-0.5,0.2-0.5c0.1,0,0.2,0,0.5,0c-1-0.9-1-1.1,0-2.1c0.7-0.7,1.4-1.3,2.1-1.8c0.3-0.2,0.7-0.2,1.1-0.3
			c0,0.4,0.1,0.8,0.1,1.1c-0.2,1.6,0.1,3.1,1.2,4.3c0.5,0.6,1.9,0.9,2.9,0.8c1-0.1,1.7-0.4,2.4-1.3c0.7-1,1-2,0.9-3.1
			C379.1,240.9,379.1,240.5,379,239.9z"/>
	</g>
	<g>
		<path class="st3" d="M403.9,244.9c0,0,6.3,2.2,12.5,0.8c6.2-1.4,6.4-2.4,6.4-2.4l-5-3.6l-3.5-0.8l-6,0.5l-1.5,1.1l-2,2.1
			L403.9,244.9z"/>
		<path class="st4" d="M408,240c-2.1,1.2-3.2,3.1-4.1,5c-0.1-0.1-0.2-0.1-0.2-0.2c0-0.3,0-0.6,0.1-0.8c1.3-2.3,2.8-4.6,5.6-5.3
			c3.8-0.9,7.5-0.5,10.8,1.9c1.1,0.8,2.1,1.6,3.2,2.5c-1.6,1.5-7,3.2-7.6,2.4c0.4-0.1,0.7-0.1,1-0.2c0.8-0.3,1.7-0.6,2.5-1
			c0.4-0.2,0.2-0.5-0.2-0.5c-0.1,0-0.2,0-0.5,0c1-0.9,1-1.1,0-2.1c-0.7-0.7-1.4-1.3-2.1-1.8c-0.3-0.2-0.7-0.2-1.1-0.3
			c0,0.4-0.1,0.8-0.1,1.1c0.2,1.6-0.1,3.1-1.2,4.3c-0.5,0.6-1.9,0.9-2.9,0.8s-1.7-0.4-2.4-1.3c-0.7-1-1-2-0.9-3.1
			C407.9,241,407.9,240.7,408,240z"/>
	</g>
	<g>
		<path class="st5" d="M401,260.9c0.7,3.3-4.7,4.9-7.2,4.8c-2.5,0.1-7.9-1.5-7.2-4.8c0.4,0.7,0.9,1,1.5,1.2
			C390.5,262.8,399.6,263.4,401,260.9L401,260.9z"/>
	</g>
</g>
</svg>
