<?xml version="1.0" encoding="utf-8"?>
<!-- Generator: Adobe Illustrator 26.0.3, SVG Export Plug-In . SVG Version: 6.00 Build 0)  -->
<svg version="1.1" id="Calque_1" xmlns="http://www.w3.org/2000/svg" xmlns:xlink="http://www.w3.org/1999/xlink" x="0px" y="0px"
	 viewBox="0 0 788 1005" style="enable-background:new 0 0 788 1005;" xml:space="preserve">
<style type="text/css">
	.st0{fill:#66183F;}
	.st1{fill:#51281D;}
	.st2{fill:#FFFFFF;}
	.st3{fill:#423522;}
	.st4{fill:#AF7C66;}
</style>
<ellipse class="st0" cx="395" cy="282.7" rx="2.9" ry="4.5"/>
<path class="st1" d="M364.1,233.4c0.1,0,0.3,0,0.4,0c0,0,4.4-3.8,8-3.6c8.2,0.5,8,3.4,10.7,4.2c0.8,0.2,2.7-0.1,3.2-0.5
	c0.4-0.4,1-2.1,0.5-2.5c-0.2-0.2-6.9-5.5-16.1-4.4c-3.8,0.5-6.8,4.6-7,4.7c-0.6,0.2-0.9,0.8-0.7,1.4
	C363.3,233.1,363.7,233.4,364.1,233.4z"/>
<path class="st1" d="M426.4,232.7c-0.1,0-0.3,0-0.4,0c0,0-4.4-3.8-8-3.6c-8.2,0.5-8,3.4-10.7,4.2c-0.8,0.2-2.7-0.1-3.2-0.5
	c-0.4-0.4-1-2.1-0.5-2.5c0.2-0.2,6.9-5.5,16.1-4.4c3.8,0.5,6.8,4.6,7,4.7c0.6,0.2,0.9,0.8,0.7,1.4
	C427.2,232.4,426.8,232.7,426.4,232.7z"/>
<g>
	<g>
		<path class="st2" d="M385,247.2c0,0-6.3,2.2-12.5,0.8c-6.2-1.4-6.4-2.4-6.4-2.4l5-3.6l3.4-0.8l6,0.5l1.5,1.1l2,2.1L385,247.2z"/>
		<path class="st3" d="M380.9,242.3c2.1,1.2,3.2,3.1,4.1,5c0.1-0.1,0.2-0.1,0.2-0.2c0-0.3,0-0.6-0.1-0.8c-1.3-2.3-2.8-4.6-5.6-5.3
			c-3.8-0.9-7.5-0.5-10.8,1.9c-1.1,0.8-2.1,1.6-3.2,2.5c1.6,1.5,7,3.2,7.6,2.4c-0.4-0.1-0.7-0.1-1-0.2c-0.8-0.3-1.7-0.6-2.5-1
			c-0.4-0.2-0.2-0.5,0.2-0.5c0.1,0,0.2,0,0.5,0c-1-0.9-1-1.1,0-2.1c0.7-0.7,1.4-1.3,2.1-1.8C372.7,242,375.5,241.2,380.9,242.3z"/>
	</g>
	<g>
		<path class="st2" d="M405.7,247.4c0,0,6.3,2.2,12.5,0.8c6.2-1.4,6.4-2.4,6.4-2.4l-5-3.6l-3.4-0.8l-6,0.5l-1.5,1.1l-2,2.1
			L405.7,247.4z"/>
		<path class="st3" d="M409.7,242.5c-2.1,1.2-3.2,3.1-4.1,5c-0.1-0.1-0.2-0.1-0.2-0.2c0-0.3,0-0.6,0.1-0.8c1.3-2.3,2.8-4.6,5.6-5.3
			c3.8-0.9,7.5-0.5,10.8,1.9c1.1,0.8,2.1,1.6,3.2,2.5c-1.6,1.5-7,3.2-7.6,2.4c0.4-0.1,0.7-0.1,1-0.2c0.8-0.3,1.7-0.6,2.5-1
			c0.4-0.2,0.2-0.5-0.2-0.5c-0.1,0-0.2,0-0.5,0c1-0.9,1-1.1,0-2.1c-0.7-0.7-1.4-1.3-2.1-1.8c-0.3-0.2-0.7-0.2-1.1-0.3
			C414.7,241.5,412,241.5,409.7,242.5z"/>
	</g>
	<g>
		<path class="st4" d="M402.9,264.3c0.7,3.3-4.7,4.9-7.2,4.8c-2.5,0.1-7.9-1.5-7.2-4.8c0.4,0.7,0.9,1,1.5,1.2
			C392.4,266.3,401.5,266.9,402.9,264.3L402.9,264.3z"/>
	</g>
</g>
<path class="st3" d="M375.9,244.4c0,2.1,1.6,3.8,3.7,3.9h0.2c0.2,0,0.3,0,0.5,0c2.1-0.3,3.2-1.7,2.9-3.8l0,0c0-0.3-0.3-0.6-0.4-0.8
	c-0.1-0.3-0.7-0.4-0.8-0.8c-0.2-0.2-0.8-0.7-1.1-0.8c-1.3,0-2.4-0.3-3.8-0.3c-0.3,0.3-0.6,0.7-0.8,1l-0.1,0.2
	C376.1,243.4,376,243.9,375.9,244.4z"/>
<path class="st3" d="M413.7,244.4c0,2.1,1.6,3.8,3.7,3.9h0.2c0.2,0,0.3,0,0.5,0c2.1-0.3,3.2-1.7,2.9-3.8l0,0c0-0.3-0.3-0.6-0.4-0.8
	c-0.1-0.3-0.7-0.4-0.8-0.8c-0.2-0.2-0.8-0.7-1.1-0.8c-1.3,0-2.4-0.3-3.8-0.3c-0.3,0.3-0.6,0.7-0.8,1L414,243
	C413.8,243.4,413.7,243.9,413.7,244.4z"/>
</svg>
