<?xml version="1.0" encoding="utf-8"?>
<!-- Generator: Adobe Illustrator 26.0.3, SVG Export Plug-In . SVG Version: 6.00 Build 0)  -->
<svg version="1.1" id="Calque_1" xmlns="http://www.w3.org/2000/svg" xmlns:xlink="http://www.w3.org/1999/xlink" x="0px" y="0px"
	 viewBox="0 0 788 1005" style="enable-background:new 0 0 788 1005;" xml:space="preserve">
<style type="text/css">
	.st0{fill:#6B3457;}
	.st1{fill:#020202;}
	.st2{fill:#51281D;}
	.st3{fill:#AF7C66;}
</style>
<g id="Calque_10">
	<g>
		<path class="st0" d="M382.7,278c7.3,2.4,15.1,2.4,22.3-0.4C399.2,283.1,388.8,283.2,382.7,278L382.7,278z"/>
	</g>
	<path class="st1" d="M421.8,242.8c-0.6,1-1.9,1.3-2.9,0.6c-1.8-1.1-6.9-1.2-8.9-0.6c-2.7,0.9-5.8,2.1-6.6,0.4
		c-0.1-0.3,1.5-3.3,6.8-3.7S419.3,242.4,421.8,242.8L421.8,242.8z"/>
	<path class="st1" d="M365.6,242.8c0.6,1,1.9,1.3,2.9,0.6c1.8-1.1,6.9-1.2,8.9-0.6c2.7,0.9,5.8,2.1,6.6,0.4c0.1-0.3-1.5-3.3-6.8-3.7
		S368,242.4,365.6,242.8L365.6,242.8z"/>
	<path class="st2" d="M364.2,233.8c0.1,0,0.3-0.1,0.4-0.1c0,0,3.6-4.5,7.2-5c8.1-1,8.5,1.9,11.3,2.2c0.8,0.1,2.7-0.5,3-1
		c0.4-0.5,0.6-2.2,0.1-2.6c-0.2-0.2-7.8-4.2-16.6-1.4c-3.7,1.2-5.9,5.8-6,5.8c-0.5,0.3-0.8,1-0.5,1.5
		C363.4,233.6,363.8,233.8,364.2,233.8z"/>
	<path class="st2" d="M423.9,234.1c-0.1,0-0.3-0.1-0.4-0.1c0,0-3.4-4.7-6.9-5.4c-8-1.5-8.6,1.4-11.4,1.6c-0.8,0-2.6-0.7-3-1.2
		c-0.3-0.5-0.4-2.2,0.1-2.6c0.2-0.1,8-3.8,16.6-0.5c3.6,1.4,5.5,6.1,5.7,6.2c0.5,0.3,0.7,1,0.4,1.5
		C424.8,234,424.4,234.2,423.9,234.1z"/>
</g>
<g>
	<path class="st3" d="M386.9,263.6c1.4,2.6,10.4,2,12.9,1.2c0.6-0.2,1.2-0.5,1.5-1.2c0.7,3.3-4.7,4.9-7.2,4.8
		C391.6,268.6,386.2,267,386.9,263.6L386.9,263.6z"/>
</g>
</svg>
