<?xml version="1.0" encoding="utf-8"?>
<!-- Generator: Adobe Illustrator 26.0.3, SVG Export Plug-In . SVG Version: 6.00 Build 0)  -->
<svg version="1.1" id="Calque_1" xmlns="http://www.w3.org/2000/svg" xmlns:xlink="http://www.w3.org/1999/xlink" x="0px" y="0px"
	 viewBox="0 0 200 200" style="enable-background:new 0 0 200 200;" xml:space="preserve">
<style type="text/css">
	.st0{fill:#662C34;}
	.st1{clip-path:url(#SVGID_00000105418721641660729920000013284182768736202163_);fill:#51281D;}
	.st2{clip-path:url(#SVGID_00000176733396860722105840000014265235325511008659_);fill:#51281D;}
	.st3{fill:#FFFFFF;}
	.st4{fill:#423522;}
	.st5{fill:#AF7C66;}
	.st6{fill:#6A2C18;}
	.st7{fill:#E2E2E2;}
	.st8{fill:#D1D1D1;}
</style>
<g>
	<path class="st0" d="M84.6,117.5c10.3,3.6,21.6,3.3,31.8-0.6C107.9,124,93.5,124.3,84.6,117.5L84.6,117.5z"/>
</g>
<g>
	<g>
		<g>
			<g>
				<g>
					<g>
						<g>
							<g>
								<g>
									<defs>
										<polygon id="SVGID_1_" points="113.5,54.4 113.5,54.4 141.1,54.4 141.1,62.8 113.5,62.8 										"/>
									</defs>
									<clipPath id="SVGID_00000129169588250137841870000011722236458389834173_">
										<use xlink:href="#SVGID_1_"  style="overflow:visible;"/>
									</clipPath>
									<path style="clip-path:url(#SVGID_00000129169588250137841870000011722236458389834173_);fill:#51281D;" d="M139.9,62.8
										c-0.1,0-0.4,0-0.4-0.1c0,0-4.2-1.8-8.5-2.7c-9.3-2.1-9.9-0.6-13.1,0c-1,0.2-3.2-0.4-3.6-1c-0.4-0.6-1-2.5-0.4-3
										c0.2-0.2,4.4-3.1,15-0.6c4.4,1,11.5,4.8,11.6,5c0.7,0.2,1,1,0.7,1.8C140.8,62.6,140.3,62.8,139.9,62.8z"/>
								</g>
							</g>
						</g>
					</g>
				</g>
			</g>
		</g>
	</g>
	<g>
		<g>
			<g>
				<g>
					<g>
						<g>
							<g>
								<g>
									<defs>
										<polygon id="SVGID_00000123434350234062673550000013206910942806577798_" points="86.5,54.4 86.5,54.4 58.9,54.4 
											58.9,62.8 86.5,62.8 										"/>
									</defs>
									<clipPath id="SVGID_00000023982775597851357700000002484937814269625270_">
										<use xlink:href="#SVGID_00000123434350234062673550000013206910942806577798_"  style="overflow:visible;"/>
									</clipPath>
									<path style="clip-path:url(#SVGID_00000023982775597851357700000002484937814269625270_);fill:#51281D;" d="M60.1,62.8
										c0.1,0,0.4,0,0.4-0.1c0,0,4.2-1.8,8.5-2.7c9.3-2.1,9.9-0.6,13.1,0c1,0.2,3.2-0.4,3.6-1c0.4-0.6,1-2.5,0.4-3
										c-0.2-0.2-4.4-3.1-15-0.6c-4.4,1-11.5,4.8-11.6,5c-0.7,0.2-1,1-0.7,1.8C59.2,62.6,59.7,62.8,60.1,62.8z"/>
								</g>
							</g>
						</g>
					</g>
				</g>
			</g>
		</g>
	</g>
</g>
<g>
	<g>
		<path class="st3" d="M88.3,82.2c0,0-7.5,2.6-14.8,1c-7.3-1.6-7.6-2.9-7.6-2.9l5.9-4.2l4-1l7.1,0.6l1.8,1.3l2.4,2.5L88.3,82.2z"/>
		<path class="st4" d="M83.5,76.5c2.5,1.4,3.8,3.6,4.8,5.9c0.1-0.1,0.2-0.1,0.2-0.2c0-0.4,0-0.7-0.1-1c-1.6-2.7-3.3-5.4-6.6-6.3
			c-4.5-1-8.9-0.6-12.7,2.2c-1.3,1-2.5,1.9-3.8,3c1.9,1.8,8.3,3.8,9,2.8c-0.4-0.1-0.8-0.1-1.2-0.2c-1-0.4-2-0.7-3-1.2
			c-0.4-0.2-0.2-0.6,0.2-0.6c0.1,0,0.2,0,0.6,0c-1.2-1-1.2-1.3,0-2.5c0.8-0.8,1.6-1.6,2.5-2.1c0.4-0.2,0.8-0.2,1.3-0.4
			c0,0.4,0.1,1,0.1,1.3c-0.2,1.9,0.1,3.6,1.4,5.1c0.6,0.7,2.2,1,3.4,1c1.2-0.1,2-0.4,2.8-1.6c0.8-1.2,1.2-2.4,1-3.6
			C83.5,77.6,83.5,77.1,83.5,76.5z"/>
	</g>
	<g>
		<path class="st3" d="M112.7,82.3c0,0,7.5,2.6,14.8,1s7.6-2.8,7.6-2.8l-5.9-4.2l-4.2-1l-7.1,0.6l-1.8,1.3l-2.4,2.5L112.7,82.3z"/>
		<path class="st4" d="M117.6,76.5c-2.5,1.4-3.8,3.6-4.8,5.9c-0.1-0.1-0.2-0.1-0.2-0.2c0-0.4,0-0.7,0.1-1c1.6-2.7,3.3-5.4,6.6-6.3
			c4.5-1,8.9-0.6,12.7,2.2c1.3,1,2.5,1.9,3.8,3c-1.9,1.8-8.3,3.8-9,2.8c0.4-0.1,0.8-0.1,1.2-0.2c1-0.4,2-0.7,3-1.2
			c0.4-0.2,0.2-0.6-0.2-0.6c-0.1,0-0.2,0-0.6,0c1.2-1,1.2-1.3,0-2.5c-0.8-0.8-1.6-1.6-2.5-2.1c-0.4-0.2-0.8-0.2-1.3-0.4
			c0,0.4-0.1,1-0.1,1.3c0.2,1.9-0.1,3.6-1.4,5.1c-0.6,0.7-2.2,1-3.4,1c-1.2-0.1-2-0.4-2.8-1.6c-0.8-1.2-1.2-2.4-1-3.6
			C117.5,77.7,117.5,77.3,117.6,76.5z"/>
	</g>
	<g>
		<path class="st5" d="M109.5,101.3c0.8,3.9-5.6,5.8-8.5,5.7c-3,0.1-9.3-1.8-8.5-5.7c0.4,0.8,1,1.2,1.8,1.4
			C97,103.5,107.8,104.3,109.5,101.3L109.5,101.3z"/>
	</g>
</g>
<g>
	<path class="st0" d="M84.5,117.1c10.2,3.5,21.5,3.3,31.6-0.6C107.7,123.6,93.3,123.8,84.5,117.1L84.5,117.1z"/>
</g>
<g>
	<path class="st6" d="M110.6,103c2.4-0.9-0.6-3.5,1.5-4.6c2.9,5.8,1.8,7.2-5.8,7.2C106.4,102.5,108.8,103.4,110.6,103z"/>
	<path class="st6" d="M110.6,103c-1.4,0.9-2.8,1.8-4.2,2.7c-0.5,0.1-0.8,0.1-1.3,0.1c-1.4,0.5-1.8-0.1-1.4-1.4
		C105.8,102.5,107.7,100.1,110.6,103z"/>
	<path class="st6" d="M89.9,102.9c-2.4-0.9,0.6-3.5-1.5-4.6c-2.9,5.8-1.8,7.2,5.8,7.2C94.3,102.4,91.7,103.2,89.9,102.9z"/>
	<path class="st6" d="M89.9,102.9c1.4,0.9,2.8,1.8,4.2,2.7c0.5,0.1,0.8,0.1,1.3,0.1c1.4,0.5,1.8-0.1,1.4-1.4
		C94.8,102.5,93,100.1,89.9,102.9z"/>
	<path class="st6" d="M95.4,105.8c0.5-0.5,0.9-1.1,1.4-1.4c2.4,1.3,4.5,1.6,6.8,0c0.5,0.5,0.9,0.9,1.4,1.4
		C101.9,107.8,98.7,107.9,95.4,105.8z"/>
</g>
<path class="st7" d="M75.3,102.9c5.7-3.9,14.9-9.3,18.9-11.6c1.3-0.8,2.7-1.2,4.2-1.2h6.5c1.6,0,3.2,0.4,4.6,1.4l16.7,10.7
	c3.4,2.1,5.3,6.5,4.9,11l-0.9,10.2c-0.3,2.8-1.4,5.4-3.2,7.2l-13.5,13.9c-1.7,1.8-3.9,2.8-6.3,2.8H94.8c-2.3,0-4.5-1-6.2-2.7
	L74,130.1c-2.1-2.1-3.3-5.3-3.3-8.5v-9C70.6,108.6,72.3,105,75.3,102.9z"/>
<path class="st8" d="M72.2,120.4c2.3-0.8,17.6,6.6,18.9,7.4s17.7-0.1,19.2,0c1.5,0.1,14.6-5.1,17.2-6.3c2.6-1.2-0.6,6.8-0.6,6.8
	l-15.1,15.9H90.5l-15.1-16L72.2,120.4z"/>
</svg>
