<?xml version="1.0" encoding="utf-8"?>
<!-- Generator: Adobe Illustrator 26.0.3, SVG Export Plug-In . SVG Version: 6.00 Build 0)  -->
<svg version="1.1" id="Calque_1" xmlns="http://www.w3.org/2000/svg" xmlns:xlink="http://www.w3.org/1999/xlink" x="0px" y="0px"
	 viewBox="0 0 200 200" style="enable-background:new 0 0 200 200;" xml:space="preserve">
<style type="text/css">
	.st0{fill:#51281D;}
	.st1{fill:#662C34;}
	.st2{fill:#FFFFFF;}
	.st3{fill:#423522;}
	.st4{fill:#AF7C66;}
</style>
<path class="st0" d="M157.7,81.9c-0.2,0-0.5-0.2-0.7-0.2c0,0-5.9-3.5-11.8-5.5c-13.2-4.7-14.2-2.8-19.1-2.4c-1.4,0.2-4.5-1-5.2-2.1
	c-0.5-0.9-0.9-3.8,0-4.5c0.3-0.2,6.9-3.6,22,1.7c6.2,2.3,15.8,9,15.9,9.2c0.9,0.5,1.2,1.7,0.7,2.6C159.3,81.5,158.6,81.9,157.7,81.9
	z"/>
<path class="st0" d="M50.6,67.8c0.2,0,0.5,0,0.7,0c0,0,6.6-2.1,12.8-2.8C78,63.3,78.7,65.6,83.2,67c1.4,0.3,4.7-0.2,5.5-0.9
	c0.7-0.7,1.7-3.6,0.9-4.3c-0.3-0.3-5.9-5-21.8-3.1c-6.6,0.9-17.3,5.4-17.7,5.5c-1,0.3-1.6,1.4-1.2,2.4
	C49.2,67.1,49.9,67.7,50.6,67.8z"/>
<g>
	<path class="st1" d="M81.6,144.8c15.1,5.2,31.7,4.9,46.6-0.9C115.6,154.3,94.5,154.7,81.6,144.8L81.6,144.8z"/>
</g>
<g>
	<g>
		<path class="st2" d="M86,93.4c0,0-10.9,3.8-21.7,1.4c-10.7-2.4-11.1-4.2-11.1-4.2l8.7-6.2l5.9-1.4l10.4,0.9l2.6,1.9l3.5,3.6
			L86,93.4z"/>
		<path class="st3" d="M79.1,84.9c3.6,2.1,5.5,5.4,7.1,8.7c0.2-0.2,0.3-0.2,0.3-0.3c0-0.5,0-1-0.2-1.4c-2.3-4-4.9-8-9.7-9.2
			c-6.8-1.6-13.2-0.9-18.9,3.3c-1.9,1.4-3.6,2.8-5.5,4.3c2.8,2.6,12.1,5.5,13.2,4.2c-0.7-0.2-1.2-0.2-1.7-0.3
			c-1.4-0.5-2.9-1-4.3-1.7c-0.7-0.3-0.3-0.9,0.3-0.9c0.2,0,0.3,0,0.9,0c-1.7-1.6-1.7-1.9,0-3.6c1.2-1.2,2.4-2.3,3.6-3.1
			c0.5-0.3,1.2-0.3,1.9-0.5c0,0.7,0.2,1.4,0.2,1.9c-0.3,2.8,0.2,5.4,2.1,7.5c0.9,1,3.3,1.6,5,1.4c1.7-0.2,2.9-0.7,4.2-2.3
			c1.2-1.7,1.7-3.5,1.6-5.4C79.3,86.6,79.1,85.9,79.1,84.9z"/>
	</g>
	<g>
		<path class="st4" d="M117.1,123c1.2,5.7-8.1,8.5-12.5,8.3c-4.3,0.2-13.7-2.6-12.5-8.3c0.7,1.2,1.6,1.7,2.6,2.1
			C98.9,126.3,114.6,127.4,117.1,123L117.1,123z"/>
	</g>
	<path class="st3" d="M154,93.9l-5.9-1.7c0,0-14.4,0.2-14.9,0.7c0,0-3.3,1-5.4,1.9c-2.1,1-4.3,0.5-4.3,0.5l0.3-1.7
		c0,0,5.7-4.5,7.8-4.9c3.6-0.7,15.9,0.9,16.1,0.9c0.5,0.2,7.6,2.8,8.3,3.8C156.4,93.7,154,93.9,154,93.9z"/>
</g>
</svg>
