<?xml version="1.0" encoding="utf-8"?>
<!-- Generator: Adobe Illustrator 26.0.3, SVG Export Plug-In . SVG Version: 6.00 Build 0)  -->
<svg version="1.1" id="Calque_1" xmlns="http://www.w3.org/2000/svg" xmlns:xlink="http://www.w3.org/1999/xlink" x="0px" y="0px"
	 viewBox="0 0 788 1005" style="enable-background:new 0 0 788 1005;" xml:space="preserve">
<style type="text/css">
	.st0{fill:#51281D;}
	.st1{fill:#662C34;}
	.st2{fill:#FFFFFF;}
	.st3{fill:#423522;}
	.st4{fill:#AF7C66;}
</style>
<path class="st0" d="M424.9,237.6c-0.1,0-0.3-0.1-0.4-0.1c0,0-3.4-2-6.8-3.2c-7.6-2.7-8.2-1.6-11-1.4c-0.8,0.1-2.6-0.6-3-1.2
	c-0.3-0.5-0.5-2.2,0-2.6c0.2-0.1,4-2.1,12.7,1c3.6,1.3,9.1,5.2,9.2,5.3c0.5,0.3,0.7,1,0.4,1.5C425.8,237.4,425.4,237.6,424.9,237.6z
	"/>
<path class="st0" d="M363.1,229.5c0.1,0,0.3,0,0.4,0c0,0,3.8-1.2,7.4-1.6c8-1,8.4,0.3,11,1.1c0.8,0.2,2.7-0.1,3.2-0.5
	c0.4-0.4,1-2.1,0.5-2.5c-0.2-0.2-3.4-2.9-12.6-1.8c-3.8,0.5-10,3.1-10.2,3.2c-0.6,0.2-0.9,0.8-0.7,1.4
	C362.3,229.1,362.7,229.4,363.1,229.5z"/>
<g>
	<path class="st1" d="M381,273.9c8.7,3,18.3,2.8,26.9-0.5C400.6,279.4,388.4,279.6,381,273.9L381,273.9z"/>
</g>
<g>
	<g>
		<path class="st2" d="M383.5,244.2c0,0-6.3,2.2-12.5,0.8c-6.2-1.4-6.4-2.4-6.4-2.4l5-3.6l3.4-0.8l6,0.5l1.5,1.1l2,2.1L383.5,244.2z
			"/>
		<path class="st3" d="M379.5,239.3c2.1,1.2,3.2,3.1,4.1,5c0.1-0.1,0.2-0.1,0.2-0.2c0-0.3,0-0.6-0.1-0.8c-1.3-2.3-2.8-4.6-5.6-5.3
			c-3.9-0.9-7.6-0.5-10.9,1.9c-1.1,0.8-2.1,1.6-3.2,2.5c1.6,1.5,7,3.2,7.6,2.4c-0.4-0.1-0.7-0.1-1-0.2c-0.8-0.3-1.7-0.6-2.5-1
			c-0.4-0.2-0.2-0.5,0.2-0.5c0.1,0,0.2,0,0.5,0c-1-0.9-1-1.1,0-2.1c0.7-0.7,1.4-1.3,2.1-1.8c0.3-0.2,0.7-0.2,1.1-0.3
			c0,0.4,0.1,0.8,0.1,1.1c-0.2,1.6,0.1,3.1,1.2,4.3c0.5,0.6,1.9,0.9,2.9,0.8c1-0.1,1.7-0.4,2.4-1.3c0.7-1,1-2,0.9-3.1
			C379.6,240.3,379.5,239.9,379.5,239.3z"/>
	</g>
	<g>
		<path class="st4" d="M401.4,261.3c0.7,3.3-4.7,4.9-7.2,4.8c-2.5,0.1-7.9-1.5-7.2-4.8c0.4,0.7,0.9,1,1.5,1.2
			C390.9,263.2,400,263.8,401.4,261.3L401.4,261.3z"/>
	</g>
	<path class="st3" d="M422.7,244.5l-3.4-1c0,0-8.3,0.1-8.6,0.4c0,0-1.9,0.6-3.1,1.1c-1.2,0.6-2.5,0.3-2.5,0.3l0.2-1
		c0,0,3.3-2.6,4.5-2.8c2.1-0.4,9.2,0.5,9.3,0.5c0.3,0.1,4.4,1.6,4.8,2.2C424.1,244.4,422.7,244.5,422.7,244.5z"/>
</g>
</svg>
