<?xml version="1.0" encoding="utf-8"?>
<!-- Generator: Adobe Illustrator 26.0.3, SVG Export Plug-In . SVG Version: 6.00 Build 0)  -->
<svg version="1.1" id="Calque_1" xmlns="http://www.w3.org/2000/svg" xmlns:xlink="http://www.w3.org/1999/xlink" x="0px" y="0px"
	 viewBox="0 0 788 1005" style="enable-background:new 0 0 788 1005;" xml:space="preserve">
<style type="text/css">
	.st0{fill:#662C34;}
	.st1{clip-path:url(#SVGID_00000048498649860506536280000011204536104417708694_);fill:#51281D;}
	.st2{clip-path:url(#SVGID_00000147208454754915266800000007356139918005757879_);fill:#51281D;}
	.st3{fill:#FFFFFF;}
	.st4{fill:#423522;}
	.st5{fill:#AF7C66;}
	.st6{fill:#6A2C18;}
	.st7{fill:#E2E2E2;}
	.st8{fill:#D1D1D1;}
</style>
<g>
	<path class="st0" d="M380.2,274.9c8.8,3,18.4,2.8,27-0.5C400,280.4,387.7,280.7,380.2,274.9L380.2,274.9z"/>
</g>
<g>
	<g>
		<g>
			<g>
				<g>
					<g>
						<g>
							<g>
								<g>
									<defs>
										<polygon id="SVGID_1_" points="404.8,221.3 404.8,221.3 428.3,221.3 428.3,228.4 404.8,228.4 										"/>
									</defs>
									<clipPath id="SVGID_00000119806009322355452970000013287881728292161701_">
										<use xlink:href="#SVGID_1_"  style="overflow:visible;"/>
									</clipPath>
									<path style="clip-path:url(#SVGID_00000119806009322355452970000013287881728292161701_);fill:#51281D;" d="M427.2,228.4
										c-0.1,0-0.3,0-0.4-0.1c0,0-3.6-1.5-7.2-2.3c-7.9-1.8-8.4-0.5-11.2,0c-0.8,0.2-2.7-0.3-3.1-0.8s-0.8-2.1-0.3-2.5
										c0.2-0.2,3.7-2.6,12.8-0.5c3.7,0.9,9.8,4.1,9.8,4.2c0.6,0.2,0.8,0.9,0.6,1.5C428,228.2,427.6,228.4,427.2,228.4z"/>
								</g>
							</g>
						</g>
					</g>
				</g>
			</g>
		</g>
	</g>
	<g>
		<g>
			<g>
				<g>
					<g>
						<g>
							<g>
								<g>
									<defs>
										<polygon id="SVGID_00000041293846958027126130000014880084279349613965_" points="381.8,221.3 381.8,221.3 358.3,221.3 
											358.3,228.4 381.8,228.4 										"/>
									</defs>
									<clipPath id="SVGID_00000110445399592362079190000017805860394999769996_">
										<use xlink:href="#SVGID_00000041293846958027126130000014880084279349613965_"  style="overflow:visible;"/>
									</clipPath>
									<path style="clip-path:url(#SVGID_00000110445399592362079190000017805860394999769996_);fill:#51281D;" d="M359.4,228.4
										c0.1,0,0.3,0,0.4-0.1c0,0,3.6-1.5,7.2-2.3c7.9-1.8,8.4-0.5,11.2,0c0.8,0.2,2.7-0.3,3.1-0.8c0.4-0.5,0.8-2.1,0.3-2.5
										c-0.2-0.2-3.7-2.6-12.8-0.5c-3.7,0.9-9.8,4.1-9.8,4.2c-0.6,0.2-0.8,0.9-0.6,1.5C358.6,228.2,359,228.4,359.4,228.4z"/>
								</g>
							</g>
						</g>
					</g>
				</g>
			</g>
		</g>
	</g>
</g>
<g>
	<g>
		<path class="st3" d="M383.3,244.9c0,0-6.4,2.2-12.6,0.8c-6.2-1.4-6.4-2.5-6.4-2.5l5-3.6l3.4-0.8l6.1,0.5l1.5,1.1l2,2.1
			L383.3,244.9z"/>
		<path class="st4" d="M379.2,240c2.1,1.2,3.2,3.1,4.1,5c0.1-0.1,0.2-0.1,0.2-0.2c0-0.3,0-0.6-0.1-0.8c-1.3-2.3-2.8-4.6-5.6-5.4
			c-3.8-0.9-7.6-0.5-10.8,1.9c-1.1,0.8-2.1,1.6-3.2,2.5c1.6,1.5,7.1,3.2,7.6,2.4c-0.4-0.1-0.7-0.1-1-0.2c-0.8-0.3-1.7-0.6-2.5-1
			c-0.4-0.2-0.2-0.5,0.2-0.5c0.1,0,0.2,0,0.5,0c-1-0.9-1-1.1,0-2.1c0.7-0.7,1.4-1.3,2.1-1.8c0.3-0.2,0.7-0.2,1.1-0.3
			c0,0.4,0.1,0.8,0.1,1.1c-0.2,1.6,0.1,3.1,1.2,4.3c0.5,0.6,1.9,0.9,2.9,0.8c1-0.1,1.7-0.4,2.4-1.3c0.7-1,1-2,0.9-3.1
			C379.3,241,379.3,240.6,379.2,240z"/>
	</g>
	<g>
		<path class="st3" d="M404.1,245c0,0,6.4,2.2,12.6,0.8c6.2-1.4,6.4-2.4,6.4-2.4l-5-3.6l-3.5-0.8l-6.1,0.5l-1.5,1.1l-2,2.1
			L404.1,245z"/>
		<path class="st4" d="M408.3,240.1c-2.1,1.2-3.2,3.1-4.1,5c-0.1-0.1-0.2-0.1-0.2-0.2c0-0.3,0-0.6,0.1-0.8c1.3-2.3,2.8-4.6,5.6-5.4
			c3.8-0.9,7.6-0.5,10.8,1.9c1.1,0.8,2.1,1.6,3.2,2.5c-1.6,1.5-7.1,3.2-7.6,2.4c0.4-0.1,0.7-0.1,1-0.2c0.8-0.3,1.7-0.6,2.5-1
			c0.4-0.2,0.2-0.5-0.2-0.5c-0.1,0-0.2,0-0.5,0c1-0.9,1-1.1,0-2.1c-0.7-0.7-1.4-1.3-2.1-1.8c-0.3-0.2-0.7-0.2-1.1-0.3
			c0,0.4-0.1,0.8-0.1,1.1c0.2,1.6-0.1,3.1-1.2,4.3c-0.5,0.6-1.9,0.9-2.9,0.8c-1-0.1-1.7-0.4-2.4-1.3c-0.7-1-1-2-0.9-3.1
			C408.2,241.1,408.2,240.8,408.3,240.1z"/>
	</g>
	<g>
		<path class="st5" d="M401.4,261.1c0.7,3.3-4.7,4.9-7.2,4.9c-2.5,0.1-7.9-1.5-7.2-4.9c0.4,0.7,0.9,1,1.5,1.2
			C390.8,263,399.9,263.7,401.4,261.1L401.4,261.1z"/>
	</g>
</g>
<g>
	<path class="st0" d="M380.1,274.6c8.7,3,18.3,2.8,26.9-0.5C399.8,280.1,387.6,280.3,380.1,274.6L380.1,274.6z"/>
</g>
<g>
	<path class="st6" d="M402.3,262.6c2-0.8-0.5-3,1.3-3.9c2.5,4.9,1.5,6.1-4.9,6.1C398.7,262.2,400.8,262.9,402.3,262.6z"/>
	<path class="st6" d="M402.3,262.6c-1.2,0.8-2.4,1.5-3.6,2.3c-0.4,0.1-0.7,0.1-1.1,0.1c-1.2,0.4-1.5-0.1-1.2-1.2
		C398.2,262.2,399.8,260.1,402.3,262.6z"/>
	<path class="st6" d="M384.7,262.5c-2-0.8,0.5-3-1.3-3.9c-2.5,4.9-1.5,6.1,4.9,6.1C388.4,262.1,386.2,262.8,384.7,262.5z"/>
	<path class="st6" d="M384.7,262.5c1.2,0.8,2.4,1.5,3.6,2.3c0.4,0.1,0.7,0.1,1.1,0.1c1.2,0.4,1.5-0.1,1.2-1.2
		C388.9,262.2,387.3,260.1,384.7,262.5z"/>
	<path class="st6" d="M389.4,265c0.4-0.4,0.8-0.9,1.2-1.2c2,1.1,3.8,1.4,5.8,0c0.4,0.4,0.8,0.8,1.2,1.2
		C394.9,266.7,392.2,266.8,389.4,265z"/>
</g>
<path class="st7" d="M372.2,262.5c4.8-3.3,12.7-7.9,16.1-9.8c1.1-0.6,2.3-1,3.6-1h5.5c1.3,0,2.7,0.4,3.9,1.2l14.2,9.1
	c2.9,1.8,4.5,5.6,4.2,9.4l-0.8,8.7c-0.2,2.4-1.2,4.6-2.7,6.1L404.7,298c-1.5,1.5-3.3,2.4-5.4,2.4h-10.5c-1.9,0-3.8-0.8-5.3-2.3
	l-12.4-12.5c-1.8-1.8-2.8-4.5-2.8-7.2v-7.7C368.3,267.4,369.8,264.3,372.2,262.5z"/>
<path class="st8" d="M369.7,277.4c1.9-0.6,15,5.7,16.1,6.3c1.1,0.6,15.1-0.1,16.3,0c1.2,0.1,12.4-4.4,14.6-5.4
	c2.2-1-0.5,5.7-0.5,5.7l-12.9,13.5h-18L372.4,284L369.7,277.4z"/>
</svg>
