<?xml version="1.0" encoding="utf-8"?>
<!-- Generator: Adobe Illustrator 26.0.3, SVG Export Plug-In . SVG Version: 6.00 Build 0)  -->
<svg version="1.1" id="Calque_1" xmlns="http://www.w3.org/2000/svg" xmlns:xlink="http://www.w3.org/1999/xlink" x="0px" y="0px"
	 viewBox="0 0 200 200" style="enable-background:new 0 0 200 200;" xml:space="preserve">
<style type="text/css">
	.st0{fill:#FFFFFF;}
	.st1{fill:#080808;}
	.st2{clip-path:url(#SVGID_00000018956923447880672380000016385971969259940772_);}
	.st3{fill:none;stroke:#000000;stroke-width:2;stroke-linecap:round;stroke-miterlimit:10;}
	.st4{clip-path:url(#SVGID_00000031922841473686938130000004579388286324437691_);}
	.st5{fill:#5B2945;}
	.st6{fill:#4DA0FF;}
	.st7{fill:#AF7C66;}
</style>
<path class="st0" d="M138.6,79.1c0,6.1-4.9,11.2-11.2,11.2c-6.2,0-11.2-4.9-11.2-11.2l0,0H138.6z"/>
<path class="st0" d="M81.5,79.1c0,6.1-4.9,11.2-11.2,11.2c-6.2,0-11.2-4.9-11.2-11.2l0,0H81.5z"/>
<path class="st1" d="M77,80c0,3.6-3,6.6-6.6,6.6c-3.6,0-6.6-3-6.6-6.6c0-0.3,0-0.7,0-1h13C77,79.4,77,79.7,77,80z"/>
<path class="st1" d="M134.5,80c0,3.6-3,6.6-6.6,6.6s-6.6-3-6.6-6.6c0-0.3,0-0.7,0-1h13C134.3,79.4,134.5,79.7,134.5,80z"/>
<g>
	<g>
		<g>
			<defs>
				<rect id="SVGID_1_" x="114.4" y="55.4" width="35.5" height="11.7"/>
			</defs>
			<clipPath id="SVGID_00000044877517174524125730000010832615305273743493_">
				<use xlink:href="#SVGID_1_"  style="overflow:visible;"/>
			</clipPath>
			<g style="clip-path:url(#SVGID_00000044877517174524125730000010832615305273743493_);">
				<path class="st3" d="M116.1,57.1c16.1,0.3,32.2,8.4,32.2,8.4"/>
			</g>
		</g>
	</g>
</g>
<g>
	<g>
		<g>
			<defs>
				<rect id="SVGID_00000162316409748873221660000002687533776811732871_" x="50.1" y="55.4" width="35.5" height="11.7"/>
			</defs>
			<clipPath id="SVGID_00000084489190471996064700000011967626710035226247_">
				<use xlink:href="#SVGID_00000162316409748873221660000002687533776811732871_"  style="overflow:visible;"/>
			</clipPath>
			<g style="clip-path:url(#SVGID_00000084489190471996064700000011967626710035226247_);">
				<path class="st3" d="M83.9,57.1c-16.1,0.3-32.2,8.4-32.2,8.4"/>
			</g>
		</g>
	</g>
</g>
<g>
	<path class="st5" d="M81.5,142.8c12-2,24.6-2,36.6,0C106.1,145.4,93.4,145.4,81.5,142.8L81.5,142.8z"/>
</g>
<ellipse class="st6" cx="61.8" cy="96.1" rx="6.4" ry="7.2"/>
<g>
	<path class="st7" d="M89.2,118.9c2.3,4.3,17.1,3.3,21.2,2c1-0.3,2-0.8,2.5-2c1.1,5.4-7.7,8-11.8,7.9
		C96.9,127.1,88,124.5,89.2,118.9L89.2,118.9z"/>
</g>
</svg>
