<?xml version="1.0" encoding="utf-8"?>
<!-- Generator: Adobe Illustrator 26.0.3, SVG Export Plug-In . SVG Version: 6.00 Build 0)  -->
<svg version="1.1" id="Calque_1" xmlns="http://www.w3.org/2000/svg" xmlns:xlink="http://www.w3.org/1999/xlink" x="0px" y="0px"
	 viewBox="0 0 788 1005" style="enable-background:new 0 0 788 1005;" xml:space="preserve">
<style type="text/css">
	.st0{fill:#4C2014;}
	.st1{fill:#FFFFFF;}
	.st2{fill:#51281D;}
	.st3{fill:#423522;}
	.st4{fill:#AF7C66;}
</style>
<path class="st0" d="M379.5,277.3c0.3-0.6,1.3-1.5,3.3-2.4c3.2-1.2,6.5-2,10-2c5.6-0.1,11,2,15.1,5.8c0,0-4.4,11.1-15,10.3
	C385.2,288.3,379.5,277.3,379.5,277.3z"/>
<path class="st1" d="M393.2,277.6l-7.8-0.4l-2.1-0.9c3.4-1.4,7.1-2,10.8-1.9c6.3,0.4,9.8,2.7,9.8,2.7l-1.6,0.8L393.2,277.6z"/>
<path class="st2" d="M362.8,230.4c0.1,0,0.3,0,0.4,0c0,0,4.4-3.8,8-3.6c8.2,0.5,8,3.4,10.7,4.2c0.8,0.2,2.7-0.1,3.2-0.5
	c0.4-0.4,1-2.1,0.5-2.5c-0.2-0.2-6.9-5.5-16.1-4.4c-3.8,0.5-6.8,4.6-7,4.7c-0.6,0.2-0.9,0.8-0.7,1.4
	C362,230.1,362.4,230.4,362.8,230.4z"/>
<path class="st2" d="M425.1,229.7c-0.1,0-0.3,0-0.4,0c0,0-4.4-3.8-8-3.6c-8.2,0.5-8,3.4-10.7,4.2c-0.8,0.2-2.7-0.1-3.2-0.5
	c-0.4-0.4-1-2.1-0.5-2.5c0.2-0.2,6.9-5.5,16.1-4.4c3.8,0.5,6.8,4.6,7,4.7c0.6,0.2,0.9,0.8,0.7,1.4
	C425.9,229.4,425.5,229.7,425.1,229.7z"/>
<g>
	<g>
		<path class="st1" d="M404.7,243.5c0,0,6.3,2.2,12.5,0.8c6.2-1.4,6.4-2.4,6.4-2.4l-5-3.6l-3.4-0.8l-6,0.5l-1.5,1.1l-2,2.1
			L404.7,243.5z"/>
		<path class="st3" d="M408.7,238.6c-2.1,1.2-3.2,3.1-4.1,5c-0.1-0.1-0.2-0.1-0.2-0.2c0-0.3,0-0.6,0.1-0.8c1.3-2.3,2.8-4.6,5.6-5.3
			c3.8-0.9,7.5-0.5,10.8,1.9c1.1,0.8,2.1,1.6,3.2,2.5c-1.6,1.5-7,3.2-7.6,2.4c0.4-0.1,0.7-0.1,1-0.2c0.8-0.3,1.7-0.6,2.5-1
			c0.4-0.2,0.2-0.5-0.2-0.5c-0.1,0-0.2,0-0.5,0c1-0.9,1-1.1,0-2.1c-0.7-0.7-1.4-1.3-2.1-1.8C416.9,238.3,414.1,237.5,408.7,238.6z"
			/>
	</g>
	<g>
		<path class="st1" d="M383.9,243.7c0,0-6.3,2.2-12.5,0.8c-6.2-1.4-6.4-2.4-6.4-2.4l5-3.6l3.4-0.8l6,0.5l1.5,1.1l2,2.1L383.9,243.7z
			"/>
		<path class="st3" d="M379.9,238.8c2.1,1.2,3.2,3.1,4.1,5c0.1-0.1,0.2-0.1,0.2-0.2c0-0.3,0-0.6-0.1-0.8c-1.3-2.3-2.8-4.6-5.6-5.3
			c-3.8-0.9-7.5-0.5-10.8,1.9c-1.1,0.8-2.1,1.6-3.2,2.5c1.6,1.5,7,3.2,7.6,2.4c-0.4-0.1-0.7-0.1-1-0.2c-0.8-0.3-1.7-0.6-2.5-1
			c-0.4-0.2-0.2-0.5,0.2-0.5c0.1,0,0.2,0,0.5,0c-1-0.9-1-1.1,0-2.1c0.7-0.7,1.4-1.3,2.1-1.8c0.3-0.2,0.7-0.2,1.1-0.3
			C375,237.9,377.7,237.9,379.9,238.8z"/>
	</g>
	<g>
		<path class="st4" d="M386.8,261.6c1.4,2.6,10.4,2,12.9,1.2c0.6-0.2,1.2-0.5,1.5-1.2c0.7,3.3-4.7,4.9-7.2,4.8
			C391.5,266.6,386.1,265,386.8,261.6L386.8,261.6z"/>
	</g>
</g>
<path class="st3" d="M413.4,239.2l-0.1-0.2c-0.2-0.3-0.4-0.7-0.8-1c-1.3,0-2.5,0.3-3.8,0.3c-0.3,0.2-0.9,0.7-1.1,0.8
	c-0.2,0.3-0.8,0.4-0.8,0.8c-0.1,0.3-0.4,0.6-0.4,0.8l0,0c-0.3,2.1,0.8,3.5,2.9,3.8c0.2,0,0.3,0,0.5,0h0.2c2.1-0.1,3.7-1.8,3.7-3.9
	C413.7,240.2,413.6,239.7,413.4,239.2z"/>
<path class="st3" d="M375.7,239.2l-0.1-0.2c-0.2-0.3-0.4-0.7-0.8-1c-1.3,0-2.5,0.3-3.8,0.3c-0.3,0.2-0.9,0.7-1.1,0.8
	c-0.2,0.3-0.8,0.4-0.8,0.8c-0.1,0.3-0.4,0.6-0.4,0.8l0,0c-0.3,2.1,0.8,3.5,2.9,3.8c0.2,0,0.3,0,0.5,0h0.2c2.1-0.1,3.7-1.8,3.7-3.9
	C375.9,240.2,375.8,239.7,375.7,239.2z"/>
</svg>
