<?xml version="1.0" encoding="utf-8"?>
<!-- Generator: Adobe Illustrator 26.0.3, SVG Export Plug-In . SVG Version: 6.00 Build 0)  -->
<svg version="1.1" id="Calque_1" xmlns="http://www.w3.org/2000/svg" xmlns:xlink="http://www.w3.org/1999/xlink" x="0px" y="0px"
	 viewBox="0 0 788 1005" style="enable-background:new 0 0 788 1005;" xml:space="preserve">
<style type="text/css">
	.st0{fill:#FFFFFF;}
	.st1{fill:#080808;}
	.st2{clip-path:url(#SVGID_00000183248963338467896200000004898229972212540323_);}
	.st3{fill:none;stroke:#000000;stroke-width:2;stroke-linecap:round;stroke-miterlimit:10;}
	.st4{clip-path:url(#SVGID_00000102518373850068098460000000927129325050915972_);}
	.st5{fill:#5B2945;}
	.st6{fill:#4DA0FF;}
	.st7{fill:#AF7C66;}
</style>
<path class="st0" d="M417.6,242.6c0,3.7-3,6.8-6.8,6.8s-6.8-3-6.8-6.8l0,0H417.6z"/>
<path class="st0" d="M382.8,242.6c0,3.7-3,6.8-6.8,6.8s-6.8-3-6.8-6.8l0,0H382.8z"/>
<path class="st1" d="M380.1,243.2c0,2.2-1.8,4-4,4s-4-1.8-4-4c0-0.2,0-0.4,0-0.6h7.9C380.1,242.8,380.1,243,380.1,243.2z"/>
<path class="st1" d="M415.1,243.2c0,2.2-1.8,4-4,4s-4-1.8-4-4c0-0.2,0-0.4,0-0.6h7.9C415,242.8,415.1,243,415.1,243.2z"/>
<g>
	<g>
		<g>
			<defs>
				<rect id="SVGID_1_" x="402.9" y="228.2" width="21.6" height="7.1"/>
			</defs>
			<clipPath id="SVGID_00000162310405827695967330000002201345236110898364_">
				<use xlink:href="#SVGID_1_"  style="overflow:visible;"/>
			</clipPath>
			<g style="clip-path:url(#SVGID_00000162310405827695967330000002201345236110898364_);">
				<path class="st3" d="M403.9,229.2c9.8,0.2,19.6,5.1,19.6,5.1"/>
			</g>
		</g>
	</g>
</g>
<g>
	<g>
		<g>
			<defs>
				<rect id="SVGID_00000071524674309362927990000013983119320615887256_" x="363.7" y="228.2" width="21.6" height="7.1"/>
			</defs>
			<clipPath id="SVGID_00000033346868527877782500000004180254846074322825_">
				<use xlink:href="#SVGID_00000071524674309362927990000013983119320615887256_"  style="overflow:visible;"/>
			</clipPath>
			<g style="clip-path:url(#SVGID_00000033346868527877782500000004180254846074322825_);">
				<path class="st3" d="M384.3,229.2c-9.8,0.2-19.6,5.1-19.6,5.1"/>
			</g>
		</g>
	</g>
</g>
<g>
	<path class="st5" d="M382.8,281.4c7.3-1.2,15-1.2,22.3,0C397.8,283,390.1,283,382.8,281.4L382.8,281.4z"/>
</g>
<ellipse class="st6" cx="370.8" cy="253" rx="3.9" ry="4.4"/>
<g>
	<path class="st7" d="M387.5,266.9c1.4,2.6,10.4,2,12.9,1.2c0.6-0.2,1.2-0.5,1.5-1.2c0.7,3.3-4.7,4.9-7.2,4.8
		C392.2,271.9,386.8,270.3,387.5,266.9L387.5,266.9z"/>
</g>
</svg>
