<?xml version="1.0" encoding="utf-8"?>
<!-- Generator: Adobe Illustrator 26.0.3, SVG Export Plug-In . SVG Version: 6.00 Build 0)  -->
<svg version="1.1" id="Calque_1" xmlns="http://www.w3.org/2000/svg" xmlns:xlink="http://www.w3.org/1999/xlink" x="0px" y="0px"
	 viewBox="0 0 200 200" style="enable-background:new 0 0 200 200;" xml:space="preserve">
<style type="text/css">
	.st0{fill:#6B3457;}
	.st1{fill:#020202;}
	.st2{fill:#51281D;}
	.st3{fill:#AF7C66;}
</style>
<g>
	<g id="Calque_10">
		<g>
			<path class="st0" d="M83.1,137c10.9,3.6,22.5,3.6,33.2-0.6C107.7,144.6,92.2,144.7,83.1,137L83.1,137z"/>
		</g>
		<path class="st1" d="M141.3,84.6c-0.9,1.5-2.8,1.9-4.3,0.9c-2.7-1.6-10.3-1.8-13.3-0.9c-4,1.3-8.6,3.1-9.8,0.6
			c-0.1-0.4,2.2-4.9,10.1-5.5S137.6,84,141.3,84.6L141.3,84.6z"/>
		<path class="st1" d="M57.6,84.6c0.9,1.5,2.8,1.9,4.3,0.9c2.7-1.6,10.3-1.8,13.3-0.9c4,1.3,8.6,3.1,9.8,0.6
			c0.1-0.4-2.2-4.9-10.1-5.5S61.2,84,57.6,84.6L57.6,84.6z"/>
		<path class="st2" d="M55.5,71.2c0.1,0,0.4-0.1,0.6-0.1c0,0,5.4-6.7,10.7-7.4c12.1-1.5,12.7,2.8,16.8,3.3c1.2,0.1,4-0.7,4.5-1.5
			c0.6-0.7,0.9-3.3,0.1-3.9c-0.3-0.3-11.6-6.3-24.7-2.1c-5.5,1.8-8.8,8.6-8.9,8.6c-0.7,0.4-1.2,1.5-0.7,2.2
			C54.3,70.9,54.9,71.2,55.5,71.2z"/>
		<path class="st2" d="M144.4,71.6c-0.1,0-0.4-0.1-0.6-0.1c0,0-5.1-7-10.3-8c-11.9-2.2-12.8,2.1-17,2.4c-1.2,0-3.9-1-4.5-1.8
			c-0.4-0.7-0.6-3.3,0.1-3.9c0.3-0.1,11.9-5.7,24.7-0.7c5.4,2.1,8.2,9.1,8.5,9.2c0.7,0.4,1,1.5,0.6,2.2
			C145.8,71.4,145.2,71.7,144.4,71.6z"/>
	</g>
	<g>
		<path class="st3" d="M89.3,115.5c2.1,3.9,15.5,3,19.2,1.8c0.9-0.3,1.8-0.7,2.2-1.8c1,4.9-7,7.3-10.7,7.1
			C96.3,123,88.3,120.6,89.3,115.5L89.3,115.5z"/>
	</g>
</g>
</svg>
