<?xml version="1.0" encoding="utf-8"?>
<!-- Generator: Adobe Illustrator 26.0.3, SVG Export Plug-In . SVG Version: 6.00 Build 0)  -->
<svg version="1.1" id="Calque_9" xmlns="http://www.w3.org/2000/svg" xmlns:xlink="http://www.w3.org/1999/xlink" x="0px" y="0px"
	 viewBox="0 0 406 323.3" style="enable-background:new 0 0 406 323.3;" xml:space="preserve">
<style type="text/css">
	.st0{fill:#B85727;}
	.st1{fill:#924125;}
	.st2{fill:#1C1938;}
	.st3{fill:#B22947;}
	.st4{fill:#87213C;}
	.st5{fill:#FF9603;}
	.st6{fill:#D8C5A7;}
	.st7{fill:#FEBC6E;}
	.st8{fill:#FFFFFF;}
	.st9{fill:#35912D;}
	.st10{fill:#E0AA4B;}
	.st11{fill:#7097BA;}
	.st12{fill:#BA3E35;}
</style>
<path class="st0" d="M246.3,43.6c-0.6,0.6-1,0.9-1,0.9L226.9,41l-1.1-5.9l-4.4-23.4l6.2-23.1v-0.2l4,0.2l1.2,36.7V26l0.4,10.5
	C235.7,40,240.5,42.1,246.3,43.6z"/>
<path class="st0" d="M300.2,93.1c-4,12.6-16.2,8.4-25.5,16.3c-10.9,9.3-6.9,27.5-8.4,36.9c-1,6.2-9.9,22.2-13.7,21.3
	c-10.8-2.5-16.9-20.9-26.7-26.2c-5.7-3.1-8.2-6.1-13.7-2.5c-5.5-3.6-8-0.6-13.7,2.5c-9.8,5.4-15.8,23.7-26.7,26.2
	c-3.9,0.9-12.7-15.1-13.7-21.3c-1.5-9.3,2.5-27.5-8.4-36.9c-9.2-7.9-21.4-3.7-25.5-16.3c-7-22,14.5-34.7,24.4-38.5
	c15.2-5.9,36.1-8.9,42.5-18l1.6-47.9l18.3-0.8h2.2l14.3,0.6l4,0.2l0.7,20.2l0.6,16.5v0.7l0.4,10.5c2.5,3.5,7.2,5.6,13,7.1
	c6.5,1.7,14.2,2.8,21.5,4.5c3.1,0.7,6.1,1.6,9,2.7C286.7,54.6,307.2,71.1,300.2,93.1z"/>
<path class="st1" d="M232.9,26c-1.5,3.6-4,6.8-7.1,9.1c-13,9.2-34.6,1.4-34.6,1.4l1.6-47.9h38.8l1.2,36.7L232.9,26z"/>
<path class="st0" d="M262.5,75.1c1.6,21.9,14.8,26.7,21.9,33.8c11.3,11.3,25.7,42.1,34.3,55.5c4.1,6.3,15.8,19.5,25.5,13l0,0
	c12-8.9,6.3-23.2,3-29.7c-6.8-13.1-25.3-39.1-30.1-53.1c-3.6-10.4-5-21.5-19.3-32.4c0,0-13.9-12-25.7-6.2
	C264.5,59.8,261.8,66.1,262.5,75.1L262.5,75.1z"/>
<path class="st0" d="M172.7,80.6c-4.3,21.5-18,24.7-25.9,30.9c-12.6,9.8-29.3,38.2-39.7,50.2c-4.9,5.7-18.5,17-27.1,9.2l0,0
	c-10.6-10.6-3-23.9,1.3-29.8c8.6-12,28.3-34.5,34.9-47.8c4.9-9.9,7.6-20.7,23.1-29.8c0,0,15.3-10.2,26.3-3
	C172.5,65.2,174.4,71.8,172.7,80.6L172.7,80.6z"/>
<g>
	<path class="st2" d="M38.1,13.4c11.3,50.2,18.2,101.5,20.8,153C47.6,116.1,40.6,64.7,38.1,13.4L38.1,13.4z"/>
</g>
<path class="st3" d="M189.5,35.7l50.6,0.4L271,48.5l12.7,4l-9.1,50.2l-7.4,65.3c-0.2,2.5-0.1,4.9,0.4,7.4l31,123.6
	c1.1,9.9-8.5,19.1-17.5,21.2c0,0-49.2,14.6-66.1,15.3c-17.4,0.6-52.5-10.1-52.5-10.1s-0.1,0-0.2,0c-9.8-1.6-27.1-11.3-25.6-22
	l20.9-129.3c0.4-2.6,0.6-5.1,0.4-7.7c-0.8-14.2-3.7-52.3-3.7-55c0-3.3-17-55.5-17-58.7L189.5,35.7z"/>
<path class="st0" d="M347.4,151.9c4.7,7,5.3,16.1,2.3,24l-26.1,68.9c0,0-1.7,6.9-7.9,5.6c-7-1.5-5.5-7.6-5.5-7.6l7.4-78
	c0,0,0.8-4.4,0.9-4.6c2.8-9.6,11-15.3,20.8-12.9C342.4,148,345.3,149.2,347.4,151.9z"/>
<path class="st0" d="M105.9,161.7c3.3-8,0.3-16.2-4.3-23.3L61.7,75c0,0-3.1-6.6-9-4c-6.6,2.9-3.9,8.6-3.9,8.6l23.3,76.2
	c0,0,1.7,4.3,1.8,4.4c4.6,9.1,14.1,13.1,23.3,8.6C100.1,167.5,104.5,164.8,105.9,161.7z"/>
<path class="st3" d="M213.9,91.4l-24.4-55.7c0,0-29.7,8.5-47.5,20.4c6.9,11.1,17.4,53,16.7,52.3c10,47.2,15.2,60.1,15,68.4
	c-0.3,7.5-12.4,11.2-12.4,11.2l110.5,10c0,0-15.7-25.4-11.7-45c3.9-18.4,12.2-47.2,12.2-47.2s5-38,9.9-53.5l-42.1-16.2L213.9,91.4z"
	/>
<g>
	<path class="st4" d="M237.9,37.3c-9.7,21.5-20,44.1-30,65.3c-9.7,21.6-22.2,42.5-27,65.9c-0.7,2.6-1.1,6.2-1.4,8.8
		c-4.6,38.3-9.4,77.5-14.9,115.8c-0.6,4.5-1.8,13.3-2.6,17.8c0.4-4.4,1.1-13.5,1.6-17.9c3.6-38.5,7.9-77.8,12.3-116.2
		c0.3-2.6,0.7-6.4,1.4-9c4.8-23.7,17.6-44.7,28-66.4C215.8,80.4,227.1,58.2,237.9,37.3L237.9,37.3z"/>
</g>
<path class="st0" d="M49.5,81.7c0,0-1.5-4.8-4.8-5.8c-1.6-0.5-6.7-9.9-7.3-14.8c-0.6-5,13.5-14.2,13.5-14.2l-9.4-16.3
	c0,0-0.4-3.1,2.5-4.2c5.4,2.5,13.1,15,15,19.6s2.3,18.4,2.3,22.8s1.4,7.8,1.4,7.8L49.5,81.7z"/>
<path class="st0" d="M309.7,249.9l2.9,8.3c0.1,0.1,0.1,0.4,0.1,0.5l6.2,11.8c1.3,2.4,1.8,2.7,3.4,2.3c0.3-0.1,0.6-0.2,0.8-0.4
	c1-0.7,1.3-2.1,0.8-3.3l-3.7-8.3c0.1-2,2.2-3.4,4-2.5l3.4,1.5c0.5,0.3,0.9,0.7,1.2,1.2l4,8.5c0.8,1.2,0.9,2.8,0.2,4.2l-2.2,6.2
	c-0.4,1-0.2,2.4,0.7,3.1c1.2,0.9,2.9,0.4,3.6-0.9c0,0,3-6.4,4.1-8.7c0.1-0.4,0.4-0.8,0.7-1.2c0.5-0.7,0.7-1.8,0.2-2.7l-4.7-14.2l0,0
	c-0.4-0.9-0.8-1.7-1.4-2.4l-15-20.2l-0.8-0.9c-1.2-1.6-3.9,0.9-5.8,3.2c-1.3,1.6-2.3,3.5-2.6,5.6l-0.7,4
	C308.9,246.4,309.1,248.2,309.7,249.9z"/>
<path class="st5" d="M42.8,10.9c-1.1-1-2.4-1.8-2.9-2.7c-1.3-2,0.6-8.2,0.6-8.2c-2.8,0.9-7.1,6.8-8.1,12.5
	C36.4,10.9,39.6,14.1,42.8,10.9z"/>
<path class="st6" d="M32.4,12.6c-0.2,0.6-0.3,1.3-0.3,1.9c-0.3,6.4,7.4,9.3,8.6,9.1c1.1-0.2,5.1-2.4,4.9-7.2
	c-0.1-2.7-1.5-4.3-2.8-5.5C39.6,14.1,36.4,10.9,32.4,12.6z"/>
<path class="st7" d="M253.9,275.9c-0.5,21.1,16.4,38.3,37.4,38.3c4.2,0,8.1-0.7,11.8-1.9c3.4-1.2,6-4,6.7-7.5
	c2.4-11-2.5-27.4,2.7-29.6c3.8-1.6,7,2.5,10.1,4.7c2.6,1.8,6.1,0,6.1-3.2l0,0c0-20.9-17.3-37.9-38.3-37.4
	C270.6,239.8,254.4,256,253.9,275.9z M317.5,269.9c0-2.3,1.8-4.2,4.2-4.2s4.2,1.8,4.2,4.2c0,2.3-1.8,4.2-4.2,4.2
	C319.3,274,317.5,272.2,317.5,269.9z"/>
<path class="st0" d="M318.3,269.3l2.6,4.9c0.3,0.6,0.5,1.2,0.7,1.8c0.5,1.2,1.8,2,3.2,1.6c0.3-0.1,0.6-0.2,0.8-0.4
	c1-0.7,1.3-2.1,0.8-3.3l-3.2-6.5C321.5,268.2,319.9,268.7,318.3,269.3z"/>
<g>
	<g>
		<path class="st8" d="M305.9,272.8c2.7,0.5,3.3-9.6,0-10.1c-1.4-0.2-3.2-0.9-4.6-0.2c-3.3,1.6-3.1,6.9-2.5,9.8
			c0.6,2.7,1.1,5.5,1.6,8.2c0.2,1.5,1.7,3.5,3.1,1.8c1.6-1.7,1.2-4.9,0.8-7c-0.4-2.2-0.8-4.4-1.2-6.6c-0.1-0.5-0.1-1-0.2-1.5
			c-0.1-0.2-0.1-0.2-0.1-0.3c-0.1,1.7-0.2,3.6-0.2,5.3c0.2-0.1,0.4,0,0.6,0C303.9,272.6,304.9,272.6,305.9,272.8L305.9,272.8z"/>
	</g>
</g>
<g>
	<g>
		<path class="st9" d="M273.6,273.2c-2.5-1.7-3.8,8.1-1.2,9.8c1.7,1.2,3.3,2.3,5,3.5c0.2-3.4,0.4-6.7,0.6-10.1
			c-3.4-0.4-6.9-0.8-10.4-1.2c-3-0.3-2.8,8.9-0.6,10.1c4.8,2.4,9.6,4.8,14.5,7.2c0.2-3.4,0.4-6.7,0.6-10.1c-4,0.1-8,0.2-12,0.2
			c-3.2,0.1-3.1,10.3,0,10.2c4-0.1,8-0.2,12-0.2c3.2-0.1,2.9-8.9,0.6-10.1c-4.8-2.4-9.6-4.8-14.5-7.2c-0.2,3.4-0.4,6.7-0.6,10.1
			c3.4,0.4,6.9,0.8,10.4,1.2c1.7,0.2,2.2-3.3,2.2-4.4c0.2-1.7,0-4.5-1.6-5.6S275.3,274.4,273.6,273.2L273.6,273.2z"/>
	</g>
</g>
<g>
	<g>
		<path class="st10" d="M291.2,252c-0.2-1.2-1.4-3.1-2.7-1.6c-1.2,1.6-1.1,4.2-0.7,6c0.5,2.2,1,4.6,1.5,6.9c0.2,1.2,1.4,3.1,2.7,1.6
			c1.2-1.6,1.1-4.2,0.7-6C292.2,256.7,291.7,254.4,291.2,252L291.2,252z"/>
	</g>
</g>
<g>
	<g>
		<path class="st11" d="M270.5,261.2c0.7-2.2,1-5,0-7.2c-0.7-1.7-2.5-2-3.2,0c-1.6,4.5-1.7,10.8,1.9,14.4c2.6,2.6,6.7,3.2,10.1,4.3
			c3.4,1.1,3.9-9,1.2-9.9c-2-0.7-3.9-1.2-5.8-1.9c-1.2-0.3-2.5-0.7-3.4-1.6c-0.2-0.2-0.4-0.4-0.6-0.7c-0.2-0.2-0.1,0.4,0,0.1
			c0.1-0.5,0.1,0.9,0.1,1.1c-0.1-1.1-0.1,1.2,0,0.2C270.6,262.1,271.3,258.7,270.5,261.2L270.5,261.2z"/>
	</g>
</g>
<g>
	<g>
		<path class="st12" d="M297.3,297.1c1.7,1.2,2.7-2.7,2.8-3.5c0.2-1.9,0.2-5.1-1.6-6.3c-2.5-1.7-6.1-2.8-8.4-0.3
			c-2.7,2.9-3.3,7.6-3.6,11.4c-0.1,1.1,0.3,5.2,2.2,5.1c2,0,2.2-3.7,2.2-5.1c-0.2,2.4-0.1,1,0,0.4c0,0,0.1-1,0-0.3s0.2-0.6,0.2-0.6
			c0.1-0.4,0.4-1.6,1.2-2.1C293.9,295.1,296.1,296.3,297.3,297.1L297.3,297.1z"/>
	</g>
</g>
</svg>
