<?xml version="1.0" encoding="utf-8"?>
<!-- Generator: Adobe Illustrator 26.0.3, SVG Export Plug-In . SVG Version: 6.00 Build 0)  -->
<svg version="1.1" id="Calque_1" xmlns="http://www.w3.org/2000/svg" xmlns:xlink="http://www.w3.org/1999/xlink" x="0px" y="0px"
	 viewBox="0 0 388 323.3" style="enable-background:new 0 0 388 323.3;" xml:space="preserve">
<style type="text/css">
	.st0{fill:#293C51;}
	.st1{fill:#B85727;}
	.st2{fill:#924125;}
	.st3{fill:#ED9170;}
	.st4{fill:#277A9B;}
	.st5{fill:#22677C;}
	.st6{fill:#AFAFAF;}
	.st7{fill:#898989;}
	.st8{fill:#606060;}
</style>
<rect x="158.8" y="75" class="st0" width="60.9" height="22.1"/>
<path class="st1" d="M188.2,179.6c-5.5-3.6-8-0.6-13.7,2.5c-9.8,5.3-15.8,23.7-26.7,26.2c-3.9,0.9-12.7-15.1-13.7-21.3
	c-1.5-9.3,2.5-27.5-8.4-36.9c-9.2-7.9-21.5-3.7-25.5-16.3c-7-22,13.5-38.5,23.4-42.3c15.2-5.9,37.1-5.1,43.5-14.2l0.9-27.7l0.7-20.2
	l18.3-0.8h2.2l18.3,0.8l0.7,20.2l0.9,27.7c6.4,9.1,28.4,8.4,43.5,14.2c10,3.8,30.4,20.4,23.4,42.3c-4,12.6-16.2,8.4-25.5,16.3
	c-10.9,9.3-6.9,27.5-8.4,36.9c-1,6.2-9.9,22.2-13.7,21.3c-10.8-2.5-16.9-20.9-26.7-26.2C196.2,179,193.7,176.1,188.2,179.6"/>
<path class="st2" d="M167.7,77.6c0,0,31.8,11.4,41.2-10.8l-1.3-37.4h-38.8L167.7,77.6z"/>
<path class="st1" d="M144.6,107.8c0.2,19.8-12.5,25.3-19,32.4c-10.2,11.2-20.7,39.5-28.4,52.2c-3.6,6-14.5,18.7-24.5,13.6l0,0
	c-12.5-7.1-5.8-23.3-2.9-29.3c6-12.3,25.5-66,38.8-77.1c0,0,12.9-12,25-8C141.3,94.2,144.5,99.5,144.6,107.8L144.6,107.8z"/>
<path class="st1" d="M68.9,188.9c5.2-10.5,15.6-6.7,24.2-2.1c6.1,3.2,62.7,41,78.3,51.1c8.8,5.7,13.6,8.5,11,14.2
	c-2.3,5.2-12.5,2.4-16.5,1.4c-37.7-9.9-65.7-19.4-88.4-38.9C62.5,201.8,67.2,192.5,68.9,188.9z"/>
<path class="st3" d="M232.2,104.4c-8.4,18,0.9,28.2,3.8,37.4c4.7,14.5,2.5,44.5,4.3,59.3c0.9,7,5.5,23,16.7,22.5l0,0
	c14.4-1.3,14.9-18.8,14.8-25.5c-0.3-13.7,4-70.6-3.4-86.2c0,0-6.7-16.3-19.5-17.6C240.8,93.4,235.6,97,232.2,104.4z"/>
<path class="st1" d="M253.4,223.5c10.6,3.5,15.8-6.2,19.1-15.1c2.3-6.4,18.7-70.4,23.4-87.8c2.6-9.8,4.3-15-1.4-17.1
	c-5.2-1.9-10.7,6.9-13,10.3c-20.9,32.3-35.1,57.8-38.8,86.5C240.3,219.2,249.8,222.3,253.4,223.5z"/>
<path class="st4" d="M144.8,85c7.9,4.2,44.2,41.2,44.2,41.2L232.3,85l18.5,3.6c0,0-1.8,103.7-1.9,113.5s7.3,78.5,7.3,78.5H119.6
	l6.1-130.5L124,90.3L144.8,85z"/>
<rect x="85.4" y="144.6" transform="matrix(0.3986 -0.9171 0.9171 0.3986 -93.8998 184.3717)" class="st0" width="16.5" height="38.3"/>
<path class="st4" d="M135,87.2c-5.6,0.9-11,2.4-16.2,4.6c-4.4,1.9-9.2,4.1-10.2,5.3c-2,2.4-33.9,46.7-32.3,48.6
	c2.7,3.4,6.2,6,10.2,7.8l24.9,10.8c3,1.3,6.5,1.3,9.5,0c1.7-0.7,3.1-1.5,3.3-2.1c0.4-1.3,6.1,17.5,6.1,18.5
	c0,0.9,98.6-3.2,114.3-3.9c1.4-0.1,2.8-0.4,4.1-0.9l0,0c2.5-1.1,4.6-3,5.9-5.4l25-47.3c2-3.9,1.8-8.6-0.7-12.2
	c-4-6-9.8-14.4-10.4-15c-0.5-0.4-3.5-2.1-6.6-3.7c-4.8-2.5-9.8-4.2-15.1-5.3L236,85.1c0,0-15.1-2.2-15.1-2.2s-31.9,30.5-31.9,30.5
	s-30.3-31.9-30.4-30.5c-0.1,1.2-8,2-9.8,2.2c-0.3,0-0.5,0.1-0.7,0.1L135,87.2z"/>
<path class="st0" d="M167.7,120.9c0.6,1.5,21.4-7.6,21.4-7.6L158.8,75c0,0-16.7,10.3-14,10S163.7,111.4,167.7,120.9z"/>
<path class="st0" d="M210.4,120.9c-0.6,1.5-21.4-7.6-21.4-7.6L219.3,75c0,0,16.7,10.3,13.9,10S214.4,111.4,210.4,120.9z"/>
<g id="Calque_10">
	<rect x="119.6" y="280.7" class="st0" width="136.6" height="23.4"/>
</g>
<path class="st0" d="M125.9,238.6l-20.1,120.3c-0.7,9.4,9.8,17.8,19.1,19.5c0,0,50.9,11.7,68.1,11.7c17.9,0,70.4-12.3,70.4-12.3
	c0.1,0,0.2,0,0.2,0c9.9-1.9,20.5-12.8,18.6-22.6L248.4,233"/>
<path class="st0" d="M126.8,84.8l1.8-0.9c2.7-1.3,5.7,0.1,6.6,2.7l16.5,48c0.3,1.1-0.2,2.3-1.3,2.8l-4.5,1.8
	c-1.2,0.4-2.4-0.1-2.9-1.3l-18.6-47.2C123.5,88.6,124.5,85.9,126.8,84.8z"/>
<path class="st0" d="M246.4,85.2l-0.8-0.3c-2.9-1.2-6.3,0.5-7.2,3.7L226,136.7c-0.3,1.4,0.4,2.9,1.8,3.3l3.7,1.2
	c1.4,0.4,3-0.3,3.4-1.8l14.5-47.5C250.3,89,248.9,86.2,246.4,85.2z"/>
<circle class="st0" cx="150.2" cy="143.5" r="3.7"/>
<circle class="st0" cx="228.1" cy="145.7" r="3.7"/>
<path class="st0" d="M143.5,154.4l90.1,1.2c2.5,0,4.7,1.7,5.5,4.1l7.3,24.1c0.1,0.5,0.2,0.9,0.3,1.4l1.8,47.2L126,237.1l-0.3-48.6
	c0-0.8,0.1-1.5,0.4-2.2l11.8-28.4C139,155.7,141.1,154.4,143.5,154.4z"/>
<path class="st0" d="M154.5,157.8l-6.8-0.1c-1.5,0-2.7-1.3-2.6-2.8l0-2.2c0-1.5,1.3-2.7,2.8-2.6l6.7,0.1c1.5,0,2.7,1.3,2.6,2.8
	l0,2.2C157.2,156.7,155.8,157.9,154.5,157.8z"/>
<path class="st0" d="M229.5,161.4l-7.5-0.8c-1.6-0.1-2.9-1.6-2.6-3.3l0.4-3.5c0.1-1.6,1.6-2.9,3.3-2.6l7.5,0.8
	c1.6,0.1,2.9,1.6,2.6,3.3l-0.4,3.5C232.6,160.4,231.1,161.5,229.5,161.4z"/>
<path class="st4" d="M154.3,174.4l-1,22.5l25.1,6.6c6.7,1.7,13.8,2,20.5,0.7l25.1-4.9l0.1-22.8L154.3,174.4z"/>
<path class="st5" d="M154.2,174.2l-1.9,11.2l34.5,5c1.4,0.2,2.9,0.2,4.3,0l33.8-4.8l-0.5-11.7L154.2,174.2z"/>
<path class="st5" d="M247.7,241.3L127.2,246c-1.2,0-2.1-0.8-2.2-2l-0.5-11.7c0-1.2,0.8-2.1,2-2.2l120.3-4.7c1.2,0,2.1,0.8,2.2,2
	l0.5,11.7C249.8,240.3,248.8,241.2,247.7,241.3z"/>
<path class="st5" d="M118.9,238.3c0,0-18.5,58.9-12.9,64.3c5.6,5.4,59.5,9.4,64.1,5.6c4.6-3.8,8-67.9,8-67.9L118.9,238.3z"/>
<path class="st6" d="M145.9,262.2l-3.6,0.6c-1.1,0.1-2.1-0.5-2.3-1.6l-7.9-44.7c-0.1-1.1,0.5-2.1,1.6-2.3l3.6-0.6
	c1.1-0.1,2.1,0.5,2.3,1.6l7.9,44.7C147.7,261,147,262,145.9,262.2z"/>
<path class="st6" d="M150.2,262.5L150.2,262.5c-1.1,0-2-0.8-2.1-1.9l-1.4-35.5c0-1.1,0.8-2,1.9-2.1l0,0c1.1,0,2,0.8,2.1,1.9
	l1.4,35.5C152.2,261.5,151.3,262.4,150.2,262.5z"/>
<path class="st6" d="M155.8,262.1l-1.6-0.3c-1.1-0.3-1.7-1.2-1.6-2.3l4.8-24.4c0.3-1.1,1.2-1.7,2.3-1.6l1.6,0.3
	c1.1,0.3,1.7,1.2,1.6,2.3l-4.8,24.4C157.8,261.6,156.8,262.3,155.8,262.1z"/>
<path class="st4" d="M119.6,242.6c0,0-18.2,57.1-10.1,58.8c8.2,1.8,49.4,8.6,54.7,4.3c5.2-4.3,1.9-60.6,1.9-60.6L119.6,242.6z"/>
<path class="st1" d="M316.3,74.4l-11.1-11.1c-2.6-2.6-6.8-2.7-9.6-0.2l-6.9,6.3c-1.3,1.2-2.1,2.8-2.3,4.5l-0.4,3.5l-2.7-2.4
	c-1.1-0.9-2.7-0.3-2.8,1.1c0,0.4,0,0.6,0.1,0.9l6.9,24.4c0,0-5.7,10.2-5.1,12.2c1.4,4.8,8.8,4.7,13.9,4.9l2.4-3.5l4-7.5
	c0.6-1.3,1.6-2.6,2.9-3.4l5.3-3.3c1.5-1,2.6-2.4,3.1-4.1l4.1-15.5C318.8,78.7,318,76.1,316.3,74.4z"/>
<g>
	<path class="st7" d="M357.1,103.5l-65.2-70.7c-0.1-0.1-0.1-0.2-0.2-0.3c-0.1-2.8-1.2-5.5-3.3-7.7c-0.8-0.9-1.5-1.4-2.5-1.9
		c-0.9-3.1-2.2-6.2-4-9.3c-6.1-10.2-18.1-14.2-21.3-12.2c-3.2,1.8-5.2,14.4,1.1,24.5c2,3.1,4.1,5.8,6.4,7.8c0.1,2.8,1.2,5.5,3.3,7.6
		c0.7,0.6,1.2,1.1,1.8,1.5l38.5,88.8c0.8,2,2.9,2.9,5,2.6l2.6-0.7c2.6-0.8,4-3.5,2.9-6l-36.1-76.4c-1.4-3.1,1.2-6.5,4.5-6l0.9,0.1
		c1,0.2,1.9,0.7,2.6,1.5l56,63.3c1.4,1.6,4.1,1.9,5.8,0.5l0.8-0.6C358.7,108.1,358.9,105.2,357.1,103.5z"/>
	<g>
		<path class="st8" d="M260.7,1.2c2.7,4,5.5,8.7,7.9,12.8c0.9,1.4,1.6,3,2.4,4.4l-0.6-0.4c2.2,0.2,5.3,0.5,7.4,0.7
			c2.4,0.3,5.2,0.5,7.3,1.1c-0.1-0.1-14.9-0.9-14.9-1.1C270.4,18.9,260.4,1.2,260.7,1.2L260.7,1.2z"/>
	</g>
</g>
<path class="st1" d="M291.1,67.5l1.4-1.6c3.3-3.8,9.1-4.3,12.9-1l8.6,7.5c3.8,3.3,4.3,9.1,1,12.9l-1.4,1.6c-3.3,3.8-9.1,4.3-12.9,1
	l-8.6-7.5C288.2,77.1,287.8,71.3,291.1,67.5z"/>
</svg>
