<?xml version="1.0" encoding="utf-8"?>
<!-- Generator: Adobe Illustrator 26.0.3, SVG Export Plug-In . SVG Version: 6.00 Build 0)  -->
<svg version="1.1" id="Calque_1" xmlns="http://www.w3.org/2000/svg" xmlns:xlink="http://www.w3.org/1999/xlink" x="0px" y="0px"
	 viewBox="0 0 788 1005" style="enable-background:new 0 0 788 1005;" xml:space="preserve">
<style type="text/css">
	.st0{fill:#B85727;}
	.st1{fill:#924125;}
	.st2{fill:#ED9170;}
	.st3{fill:#4E6566;}
	.st4{fill:#ED5875;}
	.st5{fill:#7EA885;}
	.st6{fill:none;stroke:#BCBCBC;stroke-width:2;stroke-linecap:round;stroke-miterlimit:10;}
	.st7{fill:#D3BB54;}
	.st8{fill:#BCBCBC;}
	.st9{fill:none;stroke:#BCBCBC;stroke-width:5;stroke-linecap:round;stroke-miterlimit:10;}
	.st10{fill:none;stroke:#D3BB54;stroke-width:6;stroke-linecap:round;stroke-miterlimit:10;}
</style>
<path class="st0" d="M393,419.1c-5.5-3.6-8-0.6-13.7,2.5c-9.8,5.4-15.8,23.7-26.7,26.2c-3.9,0.9-12.7-15.1-13.7-21.3
	c-1.5-9.3,2.5-27.5-8.4-36.9c-9.2-7.9-21.5-3.7-25.5-16.3c-7-22,13.5-38.5,23.4-42.4c15.2-5.9,37.1-5.1,43.5-14.2l0.9-27.7l0.7-20.2
	l18.3-0.8h2.2l18.3,0.8L413,289l0.9,27.7c6.4,9.1,28.4,8.4,43.5,14.2c10,3.9,30.4,20.4,23.4,42.4c-4,12.6-16.2,8.4-25.5,16.3
	c-10.9,9.3-6.9,27.5-8.4,36.9c-1,6.2-9.9,22.2-13.7,21.3c-10.8-2.5-16.9-20.9-26.7-26.2C401,418.5,398.5,415.5,393,419.1"/>
<path class="st1" d="M372.5,317.1c0,0,31.8,11.4,41.2-10.8l-1.3-37.4h-38.8L372.5,317.1z"/>
<path class="st2" d="M354.8,354c-17.5,22.7-64.1,60.9-76.1,71.4c-5.7,4.9-20.6,14.3-28.1,5.4l0,0c-9.1-11.9,0.4-24,5.4-29.3
	c10.2-10.7,32.8-30.3,41.1-42.6c6.2-9.1,10.4-19.4,27-26.3c0,0,16.5-8,26.4,0.6C356.9,338.7,357.8,345.5,354.8,354L354.8,354z"/>
<path class="st0" d="M259.4,426.7c14.9,2.3,17-9.1,18.7-15.1c1.9-6.5,6-72.6,7.5-90.6c0.9-10.1,1.6-15.5-4.4-16.6
	c-5.4-1-9.7,8.5-10.9,12.5c-11.4,37.7-14.4,46.4-22.9,92C244,427.6,255.6,426.1,259.4,426.7z"/>
<path class="st3" d="M436.7,349.7c1.6,19.8,14.8,24.1,21.9,30.5c11.3,10.2,24.3,37.4,33.2,49.3c4.2,5.6,16.2,17.2,25.7,11.2l0,0
	c11.8-8.3,3.6-23.7,0.1-29.5c-7.1-11.7-31.6-63.3-45.8-73.1c0,0-13.9-10.8-25.6-5.6C438.7,335.9,436,341.6,436.7,349.7z"/>
<path class="st0" d="M517.4,417.7c-9.7-5.7-16.7,2.7-21.8,10.8c-3.6,5.7-33.1,65-41.3,80.9c-4.6,9-7.4,13.7-2.3,17
	c4.6,3,13.8-5,16.4-8.2c26.9-33.7,45-48.3,54.6-75.6C529.3,424.7,520.8,419.6,517.4,417.7z"/>
<path class="st4" d="M284.4,337.5c0,0-19.3-4.5-21.3,2.3c-5,13.5-14.1,58.3-19.1,79c-1.3,5.3,0.4,10.9,4.4,14.6
	c5.1,4.8,11.8,10.2,14.8,9c5.2-2.1,58.9-54.9,62.4-52.5s14,58.1,14.3,61.5s2.6,34.1,2.6,34.1h99.7c0,0,0.7-37.4,0.8-40.2
	s15.7-62.4,18.7-58.6s30.8,47.2,30.8,47.2L461,492.8l19.2,14.1l35.2-41.1c4.6-5.4,8-11.6,9.9-18.4l0.3-0.9c2.8-9.6,1.5-20-3.5-28.7
	L484,349.5c-5.2-8.9-14.2-15.4-23.9-19.1l-9.8-3.7l-36.3-10c0,0-13.3,17.4-42.1,0l0,0l-41.2,10.8c-8.8,2.3-16.7,7.3-22.6,14.2
	l-26.3,30.8L284.4,337.5"/>
<path class="st4" d="M334.9,502L334.9,502c0-10,6.9-20.7,6.1-38.4h101.7c-0.2,17.8,7.5,28.5,7.5,38.4l0,0c0,10-5.2,18-11.7,18l0,0
	h-91.9C340.1,520,334.9,511.9,334.9,502z"/>
<path class="st0" d="M402.7,502.5l11.7-5.5c0.1-0.1,0.3-0.1,0.4-0.1l18.8-2c3.6-0.4,7.2,0.9,9.8,3.5l11.3,11.4
	c0.4,0.4,0.9,0.5,1.4,0.3l6.3-2.3c0.7-0.2,1.4,0.1,1.7,0.7c1.1,2.8,3.8,10,2,11.6c-3.5,3.1-7.8,6.9-11,6.8
	c-4.6-0.2-15.3-7.9-17.8-9.8c-0.3-0.3-0.8-0.3-1.2-0.2l-10.2,3.2c-0.1,0-0.2,0.1-0.3,0.2c-1.1,0.7-8.2,5.4-8.7,5.6
	c-3.4,1.4-11.1-4.4-14-6.8c-0.6-0.5-0.7-1.4-0.1-2l9.7-9.5c0.1-0.1,0.2-0.1,0.2-0.2l3.9-2.3c1.2-0.7,0.6-2.7-0.9-2.4l0,0
	c-0.1,0-0.3,0.1-0.4,0.1c-0.6,0.3-2.6,1.3-4.5,2.2c-2.5,1.2-5.4,1.1-7.9-0.1c-0.2-0.1-0.3-0.2-0.5-0.2
	C401.7,504.3,401.7,503,402.7,502.5z"/>
<path class="st0" d="M285,314.2c0.6,0,1.2-0.1,1.8-0.4c2.6-1.6,10.8-6.5,11.7-7.9c1.2-1.8,5.3-10,6.4-11.2c1.1-1.2,9.7-6.5,9-7.3
	c-0.4-0.5-1.7-1.7-2.6-2.7c-0.9-0.9-2.3-1.2-3.5-0.6l-5.1,2.3c-0.4,0.2-0.8,0.5-1.1,0.8l-2.5,3.1c-1.1,1.3-3.3,0.5-3.2-1.3l0.7-10.6
	c0-0.2,0-0.3,0.1-0.5c0.6-2.4-6.1-2.8-6.1-2.8c0-0.1-4.7-0.1-6.3,0c-0.5,0-0.8,0.1-1.2,0.1l-3.7,0.4c-3.2,0.3-6.3,1.6-8.6,3.8
	c-1,1-1.8,2-1.6,3c0.1,0.2,0.1,0.5,0,0.7l-0.8,24.2c0,0.7,0.3,1.4,0.6,2l2.2,3c0.6,0.7,1.4,1.2,2.3,1.2L285,314.2z"/>
<polygon class="st5" points="449.1,421.1 339.8,450.5 327,392.4 458.2,392.2 "/>
<polygon class="st5" points="312.1,399.3 281.9,372 296,355.9 323.9,390.3 "/>
<path class="st6" d="M355.1,320.4c0,0,25.7,122.4,41.4,126.1s36.4-124.2,36.4-124.2"/>
<g>
	<circle class="st7" cx="396.7" cy="455.1" r="8.6"/>
	<path class="st7" d="M391.9,458.3c0,0,5.8,5.1,6.2,8.7c0.1,0.9,0.1,1.5,0,1.9c0,0.3,0.2,0.5,0.5,0.5l6.7,0.1c0.3,0,0.6-0.2,0.6-0.5
		l-0.9-13.1"/>
</g>
<path class="st8" d="M282.6,303.1l2.9,1.8c2.3,1.5,5.3,0.8,6.7-1.5l22.9-36c1.5-2.3,0.8-5.3-1.5-6.7l-2.9-1.8
	c-2.3-1.5-5.3-0.8-6.7,1.5l-22.9,36C279.6,298.7,280.3,301.7,282.6,303.1z"/>
<path class="st9" d="M294.6,252.4l-5,7.7c-2.1,3.3-2.5,7.3-1.1,10.9l4.7,12.2"/>
<circle class="st8" cx="250.8" cy="212.9" r="13"/>
<path class="st5" d="M338.1,248.1l-0.3,2c-1.4,10-7.4,18.8-16.1,23.9l0,0c-1.3,0.8-3,0.7-4.2-0.3c-8-6.5-40-30.2-83.1-29.5
	c-4.6,0,39.2-69,38.4-60.4c19.1,35.9,53.9,55.6,63.3,60.4C337.5,245,338.2,246.6,338.1,248.1z"/>
<line class="st10" x1="215" y1="192.9" x2="232" y2="203"/>
<line class="st10" x1="234.1" y1="163.9" x2="241.8" y2="191.2"/>
<line class="st10" x1="204.7" y1="226.4" x2="227.9" y2="217.8"/>
<path class="st0" d="M293.3,293.4h-15.8c-3.6,0-6.5-2.9-6.5-6.5l0,0c0-6.3,5.2-11.5,11.5-11.5h10.7c3.6,0,6.5,2.9,6.5,6.5v5.1
	C299.8,290.5,296.9,293.4,293.3,293.4z"/>
</svg>
