<?xml version="1.0" encoding="utf-8"?>
<!-- Generator: Adobe Illustrator 26.0.3, SVG Export Plug-In . SVG Version: 6.00 Build 0)  -->
<svg version="1.1" id="Calque_9" xmlns="http://www.w3.org/2000/svg" xmlns:xlink="http://www.w3.org/1999/xlink" x="0px" y="0px"
	 viewBox="0 0 388 323.3" style="enable-background:new 0 0 388 323.3;" xml:space="preserve">
<style type="text/css">
	.st0{fill:#DBDBDB;}
	.st1{fill:#B85727;}
	.st2{fill:#ED9170;}
	.st3{fill:#9CCBF2;}
	.st4{fill:#924125;}
	.st5{fill:#EDEDED;}
	.st6{fill:#587CC6;}
	.st7{fill:#DDDDDD;}
	.st8{fill:none;stroke:#9CCBF2;stroke-width:4.5415;stroke-linecap:round;stroke-miterlimit:10;}
</style>
<rect x="167.2" y="20.8" class="st0" width="58" height="21.7"/>
<path class="st1" d="M154.7,59.9c-4.3,21.5-18,24.7-25.9,30.9c-12.6,9.9-29.3,38.2-39.7,50.2c-4.9,5.7-18.5,17-27.1,9.2l0,0
	c-10.6-10.6-3-23.9,1.3-29.8c8.6-12,28.3-34.5,34.9-47.8c4.9-9.9,7.6-20.7,23.1-29.8c0,0,15.3-10.1,26.3-3
	C154.6,44.5,156.5,51.1,154.7,59.9L154.7,59.9z"/>
<path class="st2" d="M232.2,59.9c4.3,21.5,18,24.7,25.9,30.9c12.6,9.9,29.3,38.2,39.7,50.2c4.9,5.7,18.5,17,27.1,9.2l0,0
	c10.7-10.6,3-23.9-1.3-29.8c-8.6-12-28.3-34.5-34.9-47.8c-4.9-9.9-7.6-20.7-23.1-29.8c0,0-15.3-10.1-26.3-3
	C232.3,44.5,230.4,51.1,232.2,59.9L232.2,59.9z"/>
<path class="st1" d="M307.6,136c3.4-14.7,14.8-12.3,21-11.7c6.8,0.7,69.6,21.6,86.8,26.9c9.7,3,15,4.3,13.7,10.2
	c-1.1,5.4-11.6,6-15.7,5.5c-44.1-5.1-54.6-6.7-93.9-13.1C300.9,150.7,306.7,139.8,307.6,136z"/>
<path class="st3" d="M417.1,151.6c0,0,9-8.4,11.1-9.1s12.5-4.1,14-5s9.4-8.3,10.1-7.2c0.3,0.5,0.7,1.5,1.2,2.5
	c0.9,2,0.6,4.3-0.8,5.9l-1.7,2c-1.3,1.5-2.8,2.8-4.6,3.6l-7,3.2l16.1,3.9l20.9,0.9c1.5,0.1,2.8,1.2,3,2.7l0,0
	c0.3,1.7-0.9,3.4-2.7,3.6c-0.2,0-0.3,0-0.5,0l-22.7,0.2l25.4,6.6c1.9,0.5,3,2.4,2.5,4.3c0,0,0,0,0,0l0,0c-0.5,1.9-2.4,3-4.3,2.5
	c0,0,0,0,0,0l-27.1-7l24.4,11.1c1.7,0.8,2.5,2.8,1.7,4.6c0,0.1-0.1,0.1-0.1,0.2l0,0c-0.8,1.6-2.8,2.3-4.4,1.6l-23.3-9.7l13.2,10
	c1.5,1.1,1.8,3.3,0.6,4.8c-0.1,0.1-0.1,0.2-0.2,0.2l0,0c-1.1,1.1-2.8,1.4-4.2,0.6l-15.8-9.3l-23.5-7.7l-5.1-5.1L417.1,151.6z"/>
<path class="st1" d="M81.2,135.9c-3.4-14.7-14.8-12.3-21-11.7c-6.8,0.7-69.6,21.6-86.8,26.9c-9.7,3-15,4.3-13.7,10.2
	c1.1,5.4,11.6,6,15.6,5.5c44.1-5.1,54.6-6.7,93.9-13.1C87.9,150.6,82.1,139.7,81.2,135.9z"/>
<path class="st3" d="M-29.2,151.6c0,0-9-8.4-11.1-9.1s-12.6-4.1-14-5s-9.4-8.3-10.1-7.2c-0.3,0.5-0.7,1.5-1.2,2.5
	c-0.9,2-0.6,4.3,0.8,5.9l1.7,2c1.3,1.5,2.9,2.7,4.7,3.5l7,3.2l-16.1,3.9l-20.9,0.9c-1.5,0.1-2.8,1.2-3,2.7l0,0
	c-0.3,1.7,0.9,3.4,2.7,3.6c0.2,0,0.3,0,0.5,0l22.7,0.2l-25.4,6.6c-1.9,0.5-3,2.4-2.5,4.3l0,0c0.5,1.9,2.4,3,4.3,2.5l27.1-7
	l-24.4,11.1c-1.8,0.8-2.5,2.9-1.7,4.6c0,0.1,0.1,0.1,0.1,0.2l0,0c0.8,1.6,2.8,2.3,4.4,1.6l23.3-9.7l-13.2,10
	c-1.5,1.1-1.8,3.3-0.6,4.8c0.1,0.1,0.1,0.2,0.2,0.2l0,0c1.1,1.1,2.8,1.4,4.2,0.6l15.8-9.3l23.5-7.7l5.1-5.1L-29.2,151.6z"/>
<path class="st1" d="M195.4,126.4c-5.5-3.6-8-0.6-13.7,2.5c-9.8,5.4-15.8,23.7-26.7,26.2c-3.9,0.9-12.7-15.1-13.7-21.3
	c-1.5-9.3,2.5-27.5-8.4-36.9c-9.2-7.9-21.5-3.7-25.5-16.3c-7-22,13.5-38.5,23.4-42.4c15.2-5.9,37.1-5.1,43.5-14.2l0.9-27.7l0.7-20.2
	l18.3-0.8h2.2l18.3,0.8l0.7,20.2l0.9,27.7c6.4,9.1,28.4,8.4,43.5,14.2c10,3.9,30.4,20.4,23.4,42.4c-4,12.6-16.2,8.4-25.5,16.3
	c-10.9,9.3-6.9,27.5-8.4,36.9c-1,6.2-9.9,22.2-13.7,21.3c-10.8-2.5-16.9-20.9-26.7-26.2C203.4,125.8,200.9,122.9,195.4,126.4"/>
<path class="st4" d="M174.9,24.5c0,0,31.8,11.4,41.2-10.8l-1.3-37.4H176L174.9,24.5z"/>
<path class="st5" d="M318.2,153.6l18.4-52c0.3-1.2-0.1-2.4-1-3.2l-54.5-50.3l0,0c-1.2-1.4-2.7-2.6-4.5-3.4l-41.7-19.6
	c-6.1-2.6-5.9,0.3-8.7,6.1c-0.1,0.3-0.3,0.5-0.5,0.8l-17.3,19.6c-0.2,0.2-0.3,0.4-0.4,0.6c-4.6,8.7-17,8.9-22.1,0.6
	c-0.3-0.4-0.6-0.8-1-1.1l-19.3-13.4c-0.5-0.4-1-0.9-1.2-1.5c-2.4-5.9-0.5-14.4-6.3-11.8l-45.7,20.3c-2.5,1.1-4.4,2.9-5.7,5l-0.1-0.2
	L69,101.8c-1.8,2.5-2.6,5.7-2.2,8.8l5.5,39.1c1.4,10.2,14,14.1,20.9,6.5l20.4-22.3c2-2.2,5.6-0.9,5.8,2.1l1.9,31.6
	c0,1.3-0.2,2.5-0.5,3.7l0.9,13.9c-0.9,3.1-0.6,6.4,0.8,9.3c1,2,1.5,4.2,1.3,6.4c-0.2,3.8-0.6,9.9-0.9,14.3L101.1,321
	c-0.4,5.7,3,11,8.4,12.8c0.1,0.1,0.3,0.1,0.5,0.1l19.6,5.3c25.9,5.6,68.7,5.7,94.7,0.3c16.6-3.4,53.1-7.1,62.6-9.3
	c5.9-1.4,10-6.9,9.7-13L268.7,216c-0.3-6.4-0.9-12.4-3.6-17.3h-0.4l2.5-2.9c3.1-3.6,4-8.5,2.3-12.9c-2-5.3,0.5-12,0.5-14
	c0.1-13.4,0.2-28.6,0.3-40c0-2.6,2.9-4.2,5.1-2.8l36.5,31.6C313.6,158.7,317.6,155.8,318.2,153.6z"/>
<path class="st6" d="M217.9,342.9h-44.3c-6.6,0-12-5.4-12-12V43.7c0-6.6,5.4-12,12-12h44.3c6.6,0,12,5.4,12,12v287.2
	C229.9,337.5,224.5,342.9,217.9,342.9z"/>
<path class="st5" d="M223,22.3l-18.2,90.1c-0.7,3.5-1.1,7-1.1,10.6l-1.1,220.4c0,3,2.8,5.2,5.7,4.6l56.6-15.1l-3.5-295.2L225,21.5
	C224.1,21,223.2,21.4,223,22.3z"/>
<path class="st5" d="M167.8,22.3l18.2,90.1c0.7,3.5,1.1,7,1.1,10.6l1.1,220.4c0,3-2.8,5.2-5.7,4.6l-61.9-14.1l8.9-296.2l36.4-16.2
	C166.7,21,167.7,21.4,167.8,22.3z"/>
<path class="st7" d="M133.1,110.7l0.9,29.1c0.1,1.7,1.4,3.1,3.1,3.3L163,145c0.8,0.1,1.6-0.2,2.3-0.7l3.6-2.8
	c0.9-0.7,1.4-1.7,1.3-2.9l-1.6-30.1c-0.1-1.7-1.5-3.1-3.2-3.2l-29.2-1.3c-2.1-0.1-3.8,1.7-3.5,3.8l0.3,2.5
	C133.1,110.4,133.1,110.5,133.1,110.7z"/>
<g>
	<ellipse transform="matrix(0.9715 -0.237 0.237 0.9715 -24.722 38.0754)" class="st6" cx="146" cy="121.9" rx="2.7" ry="3.8"/>
	<ellipse transform="matrix(0.9059 -0.4234 0.4234 0.9059 -40.498 71.818)" class="st6" cx="141.4" cy="127.1" rx="2.7" ry="3.8"/>
	<ellipse transform="matrix(0.237 -0.9715 0.9715 0.237 -1.5723 241.6676)" class="st6" cx="153.1" cy="121.8" rx="3.8" ry="2.7"/>
	
		<ellipse transform="matrix(0.4234 -0.9059 0.9059 0.4234 -24.2636 216.0919)" class="st6" cx="157.6" cy="127.1" rx="3.8" ry="2.7"/>
	<path class="st6" d="M155.2,132.7c0,0-1.1-0.4-1.5-0.8c-0.2-0.2-0.6-0.9-0.9-1.6c-0.1-0.4-0.3-0.8-0.5-1.1v-0.1l0,0
		c-0.6-1-1.6-1.6-2.5-1.5c-1.2-0.1-2.7,0.8-3.4,2.5v0.1c-0.3,0.5-0.7,1.2-1.1,1.6c-0.6,0.6-1.5,0.9-1.5,0.9l0,0
		c-0.1,0-0.2,0-0.2,0.1c-1.3,0.6-1.7,2.7-0.8,4.6c0.9,1.9,2.7,2.9,4,2.3c0.1-0.1,0.3-0.1,0.4-0.2c0.4-0.2,2-0.8,2.5-0.8
		c0.6,0,2.1,0.9,2.5,1.1c1.3,0.6,3.1-0.4,4-2.3C156.9,135.4,156.6,133.3,155.2,132.7z"/>
</g>
<path class="st8" d="M172.5,25.1l-10.1,9c-2.6,2.6-3.7,6.2-2.9,9.7l10.8,49c0.7,3.3,3.1,6.2,6.4,7.6l17.7,7.9
	c3.5,1.6,7.5,1.4,10.9-0.4l20.4-11.1c3.5-1.9,5.7-5.3,5.8-9.1l1.7-44.9c0.1-3.2-0.3-7.9-2.8-10l-8.8-8"/>
<line class="st8" x1="198.6" y1="109.7" x2="197.5" y2="246.4"/>
<circle class="st3" cx="197.5" cy="251.8" r="7.9"/>
</svg>
