<svg xmlns="http://www.w3.org/2000/svg" xmlns:xlink="http://www.w3.org/1999/xlink" viewBox="0 0 88 110.97"><defs><style>.cls-1,.cls-7{fill:none;}.cls-2{fill:#fff;}.cls-3{fill:#080808;}.cls-4{fill:#844f3d;}.cls-5{fill:#423435;}.cls-6{clip-path:url(#clip-path);}.cls-7{stroke:#9e5b3e;stroke-linecap:round;stroke-miterlimit:10;stroke-width:2px;}.cls-8{clip-path:url(#clip-path-2);}.cls-9{fill:#4da0ff;}</style><clipPath id="clip-path"><rect class="cls-1" x="52.97" y="50.58" width="18.49" height="6.03"/></clipPath><clipPath id="clip-path-2"><rect class="cls-1" x="16.53" y="50.58" width="18.49" height="6.03"/></clipPath></defs><g id="Calque_6" data-name="Calque 6"><path class="cls-2" d="M67.29,43.18a6.75,6.75,0,0,1-13.5,0Z"/><path class="cls-2" d="M32.44,43.18a6.75,6.75,0,0,1-13.5,0Z"/><path class="cls-3" d="M29.77,43.76a4,4,0,0,1-8,0,2.78,2.78,0,0,1,.05-.58h7.9A2.78,2.78,0,0,1,29.77,43.76Z"/><path class="cls-3" d="M64.7,43.76a4,4,0,1,1-8,0,2.78,2.78,0,0,1,0-.58h7.9A2.78,2.78,0,0,1,64.7,43.76Z"/><path class="cls-4" d="M51.66,65.34S47,69,44.23,69c-2.58,0-7-3.59-7-3.59s5.4.73,7.21.72S51.66,65.34,51.66,65.34Z"/><path class="cls-5" d="M62.5,78.4a6.27,6.27,0,0,1-7,2.24c-2.85-.76-2.85-3.15-11.25-3.73a1.52,1.52,0,0,1-.21,0l-.22,0c-8.4.58-8.4,3-11.25,3.73a6.27,6.27,0,0,1-7-2.24c-3.18-5.2,0,0,6.11-3.9,4.14-2.64,10.22-3.77,12.39-2.9h0c2.17-.87,8.25.26,12.39,2.9C62.5,78.4,65.68,73.2,62.5,78.4Z"/><path class="cls-5" d="M55.55,32c-3.5-.42-2.73,5.32-.12,4.89a19.94,19.94,0,0,1,9.89.76c4.27,1.22,7.52,3.52,10,3.27.92-.1,3.4,0,1.6-1.24C71.4,35.91,67.18,33.4,55.55,32Z"/><path class="cls-5" d="M31.57,32c3.5-.42,2.73,5.32.13,4.89a20,20,0,0,0-9.9.76c-4.27,1.22-7.52,3.52-10,3.27-.92-.1-3.4,0-1.6-1.24C15.73,35.91,19.94,33.4,31.57,32Z"/><g id="random" data-name="&lt;Répétition miroir&gt;"><g class="cls-6"><path class="cls-7" d="M54,53.74s4.81,2.15,8.5,1.84a13.14,13.14,0,0,0,8-4"/></g></g><g id="random2" data-name="&lt;Répétition miroir&gt;"><g class="cls-8"><path class="cls-7" d="M34,53.74s-4.81,2.15-8.5,1.84a13.09,13.09,0,0,1-8-4"/></g></g><ellipse class="cls-9" cx="19.39" cy="53.59" rx="3.87" ry="4.38"/></g></svg>