<?xml version="1.0" encoding="utf-8"?>
<!-- Generator: Adobe Illustrator 26.0.1, SVG Export Plug-In . SVG Version: 6.00 Build 0)  -->
<svg version="1.1" id="Calque_1" xmlns="http://www.w3.org/2000/svg" xmlns:xlink="http://www.w3.org/1999/xlink" x="0px" y="0px"
	 viewBox="0 0 788 1005" style="enable-background:new 0 0 788 1005;" xml:space="preserve">
<style type="text/css">
	.st0{fill:#FFFFFF;}
	.st1{fill:#080808;stroke:#000000;stroke-miterlimit:10;}
	.st2{fill:#51362E;}
	.st3{fill:#663A3A;}
	.st4{fill:#141313;}
	.st5{clip-path:url(#SVGID_00000031927424155571411430000010034507569763959703_);}
	.st6{fill:none;stroke:#563E36;stroke-width:2;stroke-linecap:round;stroke-miterlimit:10;}
	.st7{clip-path:url(#SVGID_00000036968791227451822140000006149194166763502267_);}
</style>
<g id="Calque_6">
	<circle class="st0" cx="410.6" cy="186.9" r="6.8"/>
	<circle class="st0" cx="375.8" cy="186.9" r="6.8"/>
	<circle class="st1" cx="380" cy="186.9" r="4"/>
	<circle class="st1" cx="414.9" cy="186.9" r="4"/>
	<path class="st2" d="M401.8,209.1c0,0-4.7,3.7-7.4,3.7s-7-3.6-7-3.6s5.4,0.7,7.2,0.7S401.8,209.1,401.8,209.1z"/>
	<ellipse class="st3" cx="394.6" cy="226.8" rx="2.9" ry="5.7"/>
	<path class="st4" d="M413.1,224.6c-1.6,2.2-4.4,3.1-7,2.2c-2.9-0.8-2.9-6.4-11.2-6.9h-0.2h-0.2c-8.4,0.6-8.4,6.2-11.2,6.9
		c-2.6,0.8-5.4-0.1-7-2.2c-3.2-5.2,0,0,6.1-3.9c4.1-2.6,5.2-6.1,12.4-6.1l0,0c7.2,0.4,8.3,3.5,12.4,6.1
		C413.1,224.6,416.2,219.4,413.1,224.6z"/>
	<path class="st4" d="M405,170c-3,0.8-1.4,5.8,0.7,4.8c2.7-1.2,5.7-1.6,8.6-1.2c3.9,0.3,7.9,3.1,8.6,3.6s2.3,0.2,1.1-1.5
		C420.9,170.7,414.4,167.5,405,170z"/>
	<path class="st4" d="M382.8,170c3,0.8,1.4,5.8-0.7,4.8c-2.7-1.2-5.7-1.6-8.6-1.2c-3.9,0.3-7.9,3.1-8.6,3.6s-2.3,0.2-1.2-1.5
		C366.9,170.7,373.4,167.5,382.8,170z"/>
	<g id="random">
		<g>
			<defs>
				<rect id="SVGID_1_" x="401.8" y="195.5" width="18.5" height="6"/>
			</defs>
			<clipPath id="SVGID_00000115498650157234501880000006898290022724349357_">
				<use xlink:href="#SVGID_1_"  style="overflow:visible;"/>
			</clipPath>
			<g style="clip-path:url(#SVGID_00000115498650157234501880000006898290022724349357_);">
				<path class="st6" d="M402.8,198.6c0,0,4.8,2.1,8.5,1.8c3.1-0.4,5.9-1.8,8-4"/>
			</g>
		</g>
	</g>
	<g id="random2">
		<g>
			<defs>
				<rect id="SVGID_00000048495621036971489560000016608243580332597685_" x="365.3" y="195.5" width="18.5" height="6"/>
			</defs>
			<clipPath id="SVGID_00000140703217341019155070000002301481967554191282_">
				<use xlink:href="#SVGID_00000048495621036971489560000016608243580332597685_"  style="overflow:visible;"/>
			</clipPath>
			<g style="clip-path:url(#SVGID_00000140703217341019155070000002301481967554191282_);">
				<path class="st6" d="M382.8,198.6c0,0-4.8,2.1-8.5,1.8c-3.1-0.4-5.9-1.8-8-4"/>
			</g>
		</g>
	</g>
</g>
</svg>
