<svg xmlns="http://www.w3.org/2000/svg" xmlns:xlink="http://www.w3.org/1999/xlink" viewBox="0 0 788 1005"><defs><style>.cls-1,.cls-4{fill:none;}.cls-2{fill:#fff;}.cls-3{clip-path:url(#clip-path);}.cls-4{stroke:#000;stroke-linecap:round;stroke-miterlimit:10;stroke-width:2px;}.cls-5{clip-path:url(#clip-path-2);}.cls-6{fill:#814e3d;}.cls-7{fill:#522a19;}.cls-8{fill:#bebebe;}</style><clipPath id="clip-path"><rect class="cls-1" x="362.41" y="86.74" width="23.15" height="6.96"/></clipPath><clipPath id="clip-path-2"><rect class="cls-1" x="402.44" y="86.74" width="23.15" height="6.96"/></clipPath></defs><g id="yeux"><circle class="cls-2" cx="375.46" cy="106.32" r="6.75"/><circle class="cls-2" cx="411.69" cy="106.32" r="6.75"/><circle cx="373.25" cy="104.61" r="3.29"/><circle cx="409.59" cy="104.61" r="3.29"/><g class="cls-3"><path class="cls-4" d="M384.56,92.7c-2.88-2.32-8.24-5.86-14.35-4.75-5.33,1-6.8,4.65-6.8,4.65"/></g><g class="cls-5"><path class="cls-4" d="M403.44,92.7c2.89-2.32,8.24-5.86,14.35-4.75,5.33,1,6.8,4.65,6.8,4.65"/></g><path class="cls-6" d="M400.81,126.79s-4.7,3.69-7.43,3.69c-2.58,0-7-3.59-7-3.59s5.4.73,7.21.71S400.81,126.79,400.81,126.79Z"/><path class="cls-7" d="M377.81,141.22c.29-.64,1.42-1.64,3.5-2.55a29.3,29.3,0,0,1,10.56-2.09,22.74,22.74,0,0,1,15.86,6s-4.59,11.75-15.81,10.89C383.78,152.89,377.81,141.22,377.81,141.22Z"/><path class="cls-8" d="M392.27,141.6l-8.25-.37-2.2-.92a28.22,28.22,0,0,1,11.43-2c6.7.35,10.32,2.92,10.32,2.92l-1.71.8Z"/></g></svg>