<svg xmlns="http://www.w3.org/2000/svg" xmlns:xlink="http://www.w3.org/1999/xlink" viewBox="0 0 788 1005"><defs><style>.cls-1,.cls-2,.cls-5,.cls-8{fill:none;}.cls-2{stroke:#000;}.cls-2,.cls-5,.cls-8{stroke-linecap:round;stroke-miterlimit:10;stroke-width:2px;}.cls-3{fill:#fff;}.cls-4{fill:#844f3d;}.cls-5{stroke:#543030;}.cls-6{fill:#423435;}.cls-7{clip-path:url(#clip-path);}.cls-8{stroke:#9e5b3e;}.cls-9{clip-path:url(#clip-path-2);}</style><clipPath id="clip-path"><rect class="cls-1" x="402.69" y="195.54" width="18.49" height="6.03"/></clipPath><clipPath id="clip-path-2"><rect class="cls-1" x="366.24" y="195.54" width="18.49" height="6.03"/></clipPath></defs><g id="Calque_6" data-name="Calque 6"><path class="cls-2" d="M403.57,189.56s2.76-1.31,8.23-1.31a22,22,0,0,1,8.24,1.31"/><circle class="cls-3" cx="375.02" cy="188.56" r="5.94"/><circle cx="375.47" cy="189.02" r="4"/><path class="cls-4" d="M400.22,208.49s-4.69,3.69-7.42,3.69-7-3.6-7-3.6,5.4.73,7.21.72S400.22,208.49,400.22,208.49Z"/><path class="cls-5" d="M384,220.68a24.81,24.81,0,0,0,9.67,1.67,23.51,23.51,0,0,0,9.43-2"/><path class="cls-6" d="M411.51,221.1a6.27,6.27,0,0,1-7,2.24c-2.85-.76-2.57-.81-11-1.39-.07,0,.16,0,.09,0h-.09c-8.4.58-9.11.63-12,1.39a6.27,6.27,0,0,1-7-2.24c-3.18-5.2,0,0,6.11-3.9,4.14-2.64,10.5-1.43,12.67-.56h0c2.17-.87,8-2.08,12.12.56C411.51,221.1,414.69,215.9,411.51,221.1Z"/><path class="cls-6" d="M404.2,175c-3.51-.41-2.74,5.33-.13,4.89a20.1,20.1,0,0,1,9.9.76c4.26,1.22,7.52,3.52,9.95,3.27.92-.1,3.4,0,1.6-1.24C420,178.85,415.82,176.34,404.2,175Z"/><path class="cls-6" d="M382.49,172.62c3,.81,1.43,5.76-.73,4.82a15.46,15.46,0,0,0-8.62-1.23c-3.87.35-7.87,3.07-8.63,3.63s-2.3.22-1.15-1.53C366.62,173.32,373.11,170.09,382.49,172.62Z"/><g id="random" data-name="&lt;Repetition miroir&gt;"><g class="cls-7"><path class="cls-8" d="M403.69,198.7s4.81,2.15,8.5,1.84a13,13,0,0,0,8-4"/></g></g><g id="random2" data-name="&lt;Repetition miroir&gt;"><g class="cls-9"><path class="cls-8" d="M383.74,198.7s-4.81,2.15-8.5,1.84a13.08,13.08,0,0,1-8-4"/></g></g></g></svg>