<?xml version="1.0" encoding="utf-8"?>
<!-- Generator: Adobe Illustrator 26.0.1, SVG Export Plug-In . SVG Version: 6.00 Build 0)  -->
<svg version="1.1" id="Calque_1" xmlns="http://www.w3.org/2000/svg" xmlns:xlink="http://www.w3.org/1999/xlink" x="0px" y="0px"
	 viewBox="0 0 788 1005" style="enable-background:new 0 0 788 1005;" xml:space="preserve">
<style type="text/css">
	.st0{fill:#FFFFFF;}
	.st1{fill:#5B3C34;}
	.st2{fill:#663A3A;}
	.st3{fill:#BFBFBF;}
	.st4{fill:#141313;}
	.st5{clip-path:url(#SVGID_00000134223138816839131660000000389638170593952156_);}
	.st6{fill:none;stroke:#634034;stroke-width:2;stroke-linecap:round;stroke-miterlimit:10;}
	.st7{clip-path:url(#SVGID_00000071535465551192203790000000485491073745936029_);}
</style>
<g id="Calque_6">
	<circle class="st0" cx="375.9" cy="188.2" r="6.8"/>
	<circle class="st0" cx="412.1" cy="188.2" r="6.8"/>
	<circle cx="373.6" cy="186.5" r="3.3"/>
	<circle cx="410" cy="186.5" r="3.3"/>
	<path class="st1" d="M401.2,208.7c0,0-4.7,3.7-7.4,3.7s-7-3.6-7-3.6s5.4,0.7,7.2,0.7S401.2,208.7,401.2,208.7z"/>
	<path class="st2" d="M378.2,221.1c0.3-0.6,1.4-1.6,3.5-2.5c3.4-1.3,6.9-2.1,10.5-2.1c5.9-0.1,11.6,2.1,15.9,6.1
		c0,0-4.6,11.7-15.8,10.9C384.2,232.8,378.2,221.1,378.2,221.1z"/>
	<path class="st3" d="M393.2,221.6l-8.2-0.4l-2.2-0.9c3.6-1.5,7.5-2.1,11.4-2c6.7,0.4,10.3,2.9,10.3,2.9l-1.7,0.8L393.2,221.6z"/>
	<path class="st4" d="M412,220.7c-1.6,2.2-4.4,3.1-7,2.2c-2.9-0.8-2.9-3.1-11.2-3.7h-0.2h-0.2c-8.4,0.6-8.4,3-11.2,3.7
		c-2.6,0.8-5.4-0.1-7-2.2c-3.2-5.2,0,0,6.1-3.9c4.1-2.6,10.2-3.8,12.4-2.9l0,0c2.2-0.9,8.2,0.3,12.4,2.9
		C412,220.7,415.2,215.5,412,220.7z"/>
	<path class="st4" d="M405.1,168.8c-3,0.8-1.4,5.8,0.7,4.8c2.7-1.2,5.7-1.6,8.6-1.2c3.9,0.3,7.9,3.1,8.6,3.6s2.3,0.2,1.2-1.5
		C421,169.5,414.5,166.3,405.1,168.8z"/>
	<path class="st4" d="M382.9,168.8c3,0.8,1.4,5.8-0.7,4.8c-2.7-1.2-5.7-1.6-8.6-1.2c-3.9,0.3-7.9,3.1-8.6,3.6s-2.3,0.2-1.2-1.5
		C367,169.5,373.5,166.3,382.9,168.8z"/>
	<g id="random">
		<g>
			<defs>
				<rect id="SVGID_1_" x="403" y="196" width="18.5" height="6"/>
			</defs>
			<clipPath id="SVGID_00000178896026950356230730000003686381729320962181_">
				<use xlink:href="#SVGID_1_"  style="overflow:visible;"/>
			</clipPath>
			<g style="clip-path:url(#SVGID_00000178896026950356230730000003686381729320962181_);">
				<path class="st6" d="M404,199.1c0,0,4.8,2.1,8.5,1.8c3.1-0.3,5.9-1.8,8-4"/>
			</g>
		</g>
	</g>
	<g id="random2">
		<g>
			<defs>
				<rect id="SVGID_00000036251512518499271640000006071157963565458097_" x="366.5" y="196" width="18.5" height="6"/>
			</defs>
			<clipPath id="SVGID_00000039847616272669172830000000489045964865466552_">
				<use xlink:href="#SVGID_00000036251512518499271640000006071157963565458097_"  style="overflow:visible;"/>
			</clipPath>
			<g style="clip-path:url(#SVGID_00000039847616272669172830000000489045964865466552_);">
				<path class="st6" d="M384,199.1c0,0-4.8,2.1-8.5,1.8c-3.1-0.3-5.9-1.8-8-4"/>
			</g>
		</g>
	</g>
</g>
</svg>
