<?xml version="1.0" encoding="utf-8"?>
<!-- Generator: Adobe Illustrator 26.0.3, SVG Export Plug-In . SVG Version: 6.00 Build 0)  -->
<svg version="1.1" id="Layer_1" xmlns="http://www.w3.org/2000/svg" xmlns:xlink="http://www.w3.org/1999/xlink" x="0px" y="0px"
	 viewBox="0 0 788 371" style="enable-background:new 0 0 788 371;" xml:space="preserve">
<style type="text/css">
	.st0{fill:#C78D71;}
	.st1{fill:#BF7F75;}
	.st2{fill:#D48F72;}
	.st3{fill:#473415;}
	.st4{fill:#7081AF;}
	.st5{fill:#343D4F;}
	.st6{fill:#293040;}
	.st7{fill:#F49595;}
	.st8{fill:#FFFFFF;}
	.st9{fill:#D2DAE4;}
	.st10{fill:none;stroke:#D2DAE4;stroke-width:2;stroke-miterlimit:10;}
	.st11{fill:none;stroke:#EAD3D3;stroke-width:3;stroke-linecap:round;stroke-miterlimit:10;}
	.st12{fill:#EAD3D3;}
</style>
<path class="st0" d="M501.8,97.2v1c0,0.3,0,0.8,0,1.1l0,0c0,0.7,0.1,1.4,0.1,2c1.2,10.2,7.5,19.2,16.7,23.8l43.4,21.5
	c1.1,0.6,2.2,1.1,3.5,1.4c7.2,2.6,36.5,14.5,36,39.6c-0.7,41.2-30.1,31.1-41.5,40.8c-13.6,11.6-7,58.1-16.5,73.1
	c-2.7,4.2-12.2,10.9-16.9,9.8c-13.5-3.1-25.8-33-37.3-40.5c-6.7-4.4-25.3-3.8-32.4,0c-12,6.6-23.9,37.5-37.3,40.5
	c-4.7,1.1-14.4-5.6-16.9-9.8c-9.5-15-4.9-57.1-18.5-68.6c-11.3-9.8-24.7,8.9-25.3-32.2c-0.4-28.5,28.7-50.6,28.7-50.6l37.8-24
	c2.8-1.4,5.4-3.1,7.6-5.2c0.9-0.8,1.7-1.6,2.5-2.5l0.7-0.8v-0.1c4.2-4.9,10.3-9.3,15.6-13.5"/>
<path class="st1" d="M503,106.7c0-0.1,0-0.2,0-0.3c-1-8-2.2-26-2.2-26l-54.7,1.8c0.2,10.3-4.4,24.9-4.4,24.9l0,0
	c-1.3,3.6-3.1,6.9-5.1,10.1l-0.1,0.1c-0.4,0.6-0.9,1-1.2,1.4c-0.6,0.8-1.2,1.4-1.8,2c0,0.1-0.1,0.1-0.1,0.1s8.6,34.1,16,37.7
	c1.6,0.8,4.3-0.4,7.7-2.9c13.8-9.9,38.9-40.2,44.7-47.3C502.5,107.8,503,107.3,503,106.7L503,106.7L503,106.7z"/>
<path class="st2" d="M537.9,184.6c9.3,28.3,38.3,46.8,38.3,46.8s52,42.1,69,56.3c8.1,6.7,24.6,21,41.9,1.4l0,0
	c14.2-16.2,1.1-32.7-6.1-39.9c-14.4-14.6-46.5-41.2-58-58c-8.6-12.4-16.9-35-40.9-44.3c0,0-18.8-9.9-34.9,4.5l-0.7,0.6
	C537.5,160.2,534.1,173,537.9,184.6L537.9,184.6z"/>
<path class="st2" d="M676.9,251.2c-18.7-10.1-36.3,8.2-42.4,15.1c-6.1,6.9-14.6,24-18.8,32.4c-10.9,21.3-26.4,58.7-37.3,79.4
	c-7.2,13.6-11.3,20.6-3.8,27.6c6.7,6.2,17.9-3.9,22.3-8c18.2-16.3,53.9-47.7,70.1-67.8c6.6-8.3,18.5-26.1,22-36.1
	C698.9,265.9,682.4,254,676.9,251.2z"/>
<path class="st2" d="M410.4,176.6c3,29.5-16,58.3-16,58.3s-30.4,59.6-40.3,79.5c-4.6,9.4-13.9,29.2-37.8,18.4l0,0
	c-19.6-9-14.2-29.4-10.8-38.8c7.2-19.2,25.9-56.5,29.5-76.5c2.8-14.8,1.2-38.8,19.4-57.2c0,0,13.2-16.6,33.7-10.1l0.9,0.2
	C400.9,154.1,409.3,164.4,410.4,176.6L410.4,176.6z"/>
<polygon class="st3" points="388.5,402.4 390.1,378.3 556.4,378.3 558.6,399.2 "/>
<path class="st4" d="M328.2,247.5l46.3,25.7c0.7,0.3,1.4,0.1,1.7-0.6l11.4-23.3c1.1-2,4.2-1.2,4,1.1l-2.2,64.3l-2.9,53.2l-3.5,46.1
	c-0.7,6.8,4.5,13,11.3,13.6c0.2,0,0.3,0,0.6,0l38.2,10.7c15.4,5.4,64.7,2.4,80.4-1.2l25.9-5.8l3.7-1.2c9.5,0.4,14.5-11.3,14.9-21
	c0-0.4,0-0.8,0-1.2l-1.1-54.3l-0.3-45.3v-0.2l4.8-77.4c0.1-1.1,1.4-1.7,2.2-1l36.2,31.7c0.8,0.7,1.9,0.6,2.5-0.2l39.4-48.3
	c1.9-2.5,1.9-5.9,0-8.3l-37.5-45.6c-6.6-8.2-15.4-14.5-25.1-18.5L533,122.4l0,0l-20,6.1c-24.1,7.3-49.9,6.6-73.6-1.9l-17.6-6.3l0,0
	l-50.6,23.4c-7.1,3.4-13.5,8.2-18.5,14.1l0,0c-7.8,9.2-13.3,20.2-16,31.9l-15,50.6C321.1,243.1,325.7,246.1,328.2,247.5z"/>
<path class="st2" d="M578.3,402.1c1.7,3.7,2,10-5.2,15.4c0,0-21.4,19.1-30.4,22.4c-3.9,1.5-14.5,4.9-16.8,1.4
	c-6.6-9.9-9-32.1-4.7-45.7c1.2-4,11.1-7.3,15.4-7.6c4.7-0.3,13.5,4.5,18.2,5.3c2.6,0.3,5.2,0.6,7.7,0.6
	C568.9,394.3,575.9,397.1,578.3,402.1z"/>
<polygon class="st2" points="571.1,388.6 564.4,394.2 566.2,407.9 568.9,421.3 575.6,415.7 587.3,409.4 "/>
<path class="st5" d="M568.1,389.8l6.8-7.3c0.3-0.3,0.8-0.3,1.1,0l18.1,20.1c0.3,0.6,0.2,1.1-0.2,1.5l-8.6,7.2
	c-0.3,0.3-0.9,0.2-1.2-0.1l-15.9-19.3C567.5,391.3,567.5,390.4,568.1,389.8z"/>
<path class="st6" d="M576.8,406.9l-7-8.8c-1.5-1.9-1.2-4.8,0.8-6.3l8.8-7c1.9-1.5,4.8-1.2,6.3,0.8l7,8.8c1.5,1.9,1.2,4.8-0.8,6.3
	l-8.8,7C581.2,409.1,578.3,408.9,576.8,406.9z"/>
<path class="st4" d="M596.7,172.9c-5.7-9-13.9-16-23.8-20.4L535.4,123c-14.5-6.2-25.5-5.7-30.2-20.5c0,0-26.9,9.5-27.1,11.2
	l-3.8,10.1l-2.9-10c-1.4-5.6-31.2-9.3-31.2-9.3s-17,15.1-31.1,21.2l-38.6,29.1c-10.3,4.4-18.7,16.7-24.5,26.2"/>
<path class="st2" d="M329.5,336.2c-20.5,6.1-33.9-15.6-38.3-23.5c-4.4-8.1-9.3-26.5-11.7-35.6c-6.2-23.2-13.7-62.9-20.1-85.3
	c-4.2-14.9-6.9-22.6,1.9-27.7c8.1-4.7,16.7,7.5,20.3,12.3c14.3,19.6,43,57.8,54.6,80.8c4.8,9.4,12.7,29.4,14,40
	C354,326.3,335.5,334.5,329.5,336.2z"/>
<path class="st2" d="M274.3,163l-5.9-18.7c0-0.1-0.1-0.3-0.2-0.4l-15.5-23.6c-0.7-0.9-1.8-1-2.6-0.3c-1.3,1.3-3.1,3.4-3.2,4.5
	c-0.7,5.9,3.6,14.4,5.9,19.8c0.3,0.8-0.2,4.3-0.8,4.8c-0.7,0.6-1.7,0.8-2.8,0.5c-1.4-0.3-2.4,1.4-1.5,2.7l8.8,12.1
	c0.3,0.4,0.9,0.7,1.3,0.7l14.8,0.1C273.8,165.2,274.6,164.1,274.3,163z"/>
<ellipse class="st2" cx="262.5" cy="169" rx="13" ry="13"/>
<g>
	<path class="st7" d="M267.2,176.4L237.8,191c-4.3,2.2-9.4,0.5-11.6-3.9l-36.9-74c-2.2-4.3-0.5-9.4,3.9-11.6l29.4-14.6
		c4.3-2.2,9.4-0.5,11.6,3.9l36.8,74C273.2,169,271.5,174.2,267.2,176.4z"/>
	<path class="st8" d="M267.1,169.5l-35,17.4c-1.2,0.6-2.7,0.2-3.4-1.2l-35.5-71.2c-0.6-1.2-0.2-2.7,1.2-3.4l35-17.4
		c1.2-0.6,2.7-0.2,3.4,1.2l35.5,71.2C268.9,167.2,268.5,168.8,267.1,169.5z"/>
	<path class="st8" d="M218.7,94.5l-16.8,8.4c-0.3,0.1-0.8,0-0.9-0.4l-0.1-0.3c-0.1-0.3,0-0.8,0.4-0.9l16.8-8.4
		c0.3-0.1,0.8,0,0.9,0.4l0.1,0.3C219.2,94,219,94.4,218.7,94.5z"/>
	<ellipse class="st9" cx="228" cy="134.6" rx="10.7" ry="10.7"/>
	<path class="st9" d="M262.4,172l-25.3,12.6l-10.3-20.8c-2.9-5.8-0.6-12.7,5.2-15.6l4.6-2.3c5.8-2.9,12.7-0.6,15.6,5.2L262.4,172
		L262.4,172z"/>
	<path class="st10" d="M226.6,115.6c-2.5-0.9-5.1-0.7-7.6,0.6c-2.5,1.2-4.2,3.3-5,5.7"/>
	<path class="st10" d="M227.1,112.2c-3.2-1.2-6.7-1.3-10,0.3s-5.6,4.6-6.2,7.9"/>
	<path class="st10" d="M228.2,108c-4-2-8.9-2.2-13.5,0c-4.4,2.2-7.3,6.2-8.1,10.9"/>
	<path class="st10" d="M225.9,119c-1.7-0.7-3.7-0.7-5.4,0.1c-1.8,1-3,2.5-3.6,4.2"/>
</g>
<path class="st7" d="M181.8,71.5c3.7-7.5,5.3-16,4.4-24.8C183.5,21.6,161,3.2,135.7,5.9S92.2,31.2,94.8,56.3
	c2.7,25.2,25.2,43.5,50.5,40.8c7.6-0.8,14.5-3.5,20.5-7.3l20.2,2.7c0.7,0.2,1.2-0.6,1.1-1.2L181.8,71.5z"/>
<path class="st11" d="M135.7,5.9c-25.2,2.6-43.5,25.2-40.9,50.5c2.7,25.2,25.2,43.5,50.5,40.8c7.6-0.8,14.5-3.5,20.5-7.3l20.2,2.7
	c0.7,0.2,1.2-0.6,1.1-1.2l-5.2-19.7c3.7-7.5,5.3-16,4.4-24.8"/>
<path class="st12" d="M156.1,35.5c-5.1-2.9-11.3-1.4-15,3.1l-1.7,2.1l0,0l-2.5-2c-5-4-12.3-3.3-16.4,1.7l0,0c-4,5-3.3,12.3,1.7,16.4
	l2.5,2l0,0L142.2,73c0.4,0.3,0.9,0.2,1.2-0.1l14.1-17.5l0,0l1.9-2.4C163.9,47.5,162.5,39.1,156.1,35.5z"/>
<path class="st2" d="M217.4,167.2L217.4,167.2c-2.2,1.4-5.2,0.8-6.6-1.5l-0.9-1.3c-1.4-2.2-0.8-5.2,1.5-6.6l0,0
	c2.2-1.4,5.2-0.8,6.6,1.5l0.9,1.3C220.3,162.7,219.7,165.7,217.4,167.2z"/>
<path class="st2" d="M212.1,158.9L212.1,158.9c-2.2,1.4-5.2,0.8-6.6-1.5l-0.9-1.3c-1.4-2.2-0.8-5.2,1.5-6.6l0,0
	c2.2-1.4,5.2-0.8,6.6,1.5l0.9,1.3C215.1,154.5,214.5,157.4,212.1,158.9z"/>
<path class="st2" d="M207.3,149.6L207.3,149.6c-2.2,1.4-5.2,0.8-6.6-1.5l-0.9-1.3c-1.4-2.2-0.8-5.2,1.5-6.6l0,0
	c2.2-1.4,5.2-0.8,6.6,1.5l0.9,1.3C210.3,145.1,209.6,148.1,207.3,149.6z"/>
</svg>
