<?xml version="1.0" encoding="utf-8"?>
<!-- Generator: Adobe Illustrator 26.0.3, SVG Export Plug-In . SVG Version: 6.00 Build 0)  -->
<svg version="1.1" id="Calque_1" xmlns="http://www.w3.org/2000/svg" xmlns:xlink="http://www.w3.org/1999/xlink" x="0px" y="0px"
	 viewBox="0 0 835 371" style="enable-background:new 0 0 835 371;" xml:space="preserve">
<style type="text/css">
	.st0{fill:#D48F72;}
	.st1{fill:#9DCAE0;}
	.st2{fill:#D79072;}
	.st3{fill:#AA975F;}
	.st4{fill:#BF7F75;}
</style>
<g>
	<path class="st0" d="M433.1,304.2c11.8,7.1,24.5,35.4,38.2,38.3c4.8,1.1,14.7-5.4,17.3-9.2c9.8-14.2,5-54.1,18.9-65
		c11.7-9.2,39.8-3.9,40.5-43c0.4-23.7-29.5-35-36.7-37.4c-1.2-0.3-2.3-0.9-3.5-1.3l-44.4-20.4c-10.5-4.8-17.2-14.7-17.3-25.6
		l-0.2-18.3l-29.6,2.1l-29.2-2.1l0.1,16c0.1,12.3-7.3,23.5-19.2,29l-44,20.2c0,0-38.8,11-38.4,38c0.7,38.9,28.7,33.7,40.5,43
		c13.8,11,9.1,50.8,18.9,65c2.7,3.9,12.5,10.3,17.3,9.2c13.7-3,25.8-32,38.2-38.3C407.2,300.5,426.1,299.9,433.1,304.2z"/>
	<polygon class="st0" points="418,116.7 445.4,120.8 446.5,179.7 416.3,212.7 386.5,179.7 387.6,120.8 	"/>
	<path class="st0" d="M483.1,208.6c23.9-17.3,59.1-16.8,59.1-16.8s68-5.9,90.6-8.1c10.6-1.1,32.9-3.7,36.5,20.8l0,0
		c3,20.3-17.6,26.3-27.6,28.3c-20.5,3.9-63,8-82.3,15.1c-14.4,5.3-34.2,18.6-60,13.4c0,0-21.6-2.2-27.2-21.8l-0.2-0.8
		C469,227.6,473.3,215.8,483.1,208.6L483.1,208.6z"/>
	<path class="st0" d="M644.9,229.2c-21.6,2.6-31.8-19.5-35-27.8c-3.2-8.2-5.2-26.2-6.3-35c-2.6-22.6-3.8-60.8-6.8-82.8
		c-1.9-14.5-3.4-22,6.4-25.7c8.8-3.3,15.7,9.5,18.4,14.5c11.4,20.5,34.2,60.3,42.2,83.6c3.3,9.5,8.1,29.4,7.9,39.4
		C671.4,223.5,651.2,228.4,644.9,229.2z"/>
	<path class="st0" d="M492.9,390.3c-1-4.1-6.3-25.7-6.1-34.3c0.1-9.3,4.4-28.2,2-37.3c-10.7-40.3-135.5-40.3-146.2,0
		c-2.4,9.1,1.9,28,2,37.3c0.1,8.7-5.2,30.3-6.1,34.3"/>
	<path class="st0" d="M352.2,214.4c5.8,27.6-10.7,56.4-10.7,56.4s-25.2,58.8-33.3,78.5c-3.8,9.3-11.4,28.7-36.6,20.6l0,0
		c-20.8-6.7-17.3-26.4-14.7-35.7c5.5-18.8,20.8-55.6,22.8-74.7c1.4-14.3-2.4-36.7,14.4-55.6c0,0,11.8-16.9,33.3-12.5l0.9,0.2
		C340.3,194,349.8,202.9,352.2,214.4L352.2,214.4z"/>
	<path class="st0" d="M596.7,59.7l7.1-19.9l17.6-23.9c0,0,4.5,3.9,4.7,5.7c0.7,5.6-3.8,13.5-6.4,18.6c-0.3,0.7,0.1,4.1,0.8,4.6
		c2.5,2,8.2-1.6,8.2-1.6l-13.6,16.7L596.7,59.7z"/>
	<path class="st0" d="M602.9,56.2L618.8,72L658,43.6l27.1-41.9c0,0-6.9-2.2-9.2-1.5c-11.6,3.4-25,24.5-33.9,32.1
		C632.4,40.5,602.9,56.2,602.9,56.2z"/>
	
		<ellipse transform="matrix(2.094197e-02 -0.9998 0.9998 2.094197e-02 533.1452 671.3806)" class="st0" cx="609.4" cy="63.5" rx="12.3" ry="13.3"/>
	<path class="st1" d="M496.2,334.2c-3.3,10.9,3.2,48.5,2.5,64.2c-0.1,4.5,0.5,11.1-7,16.5c-2,1.4-119.9,55.6-157.3,40
		c-10.5-4.4-12.4-34.1-11.1-42.1c4.9-30.2,8.2-131.5,8.2-131.5s5.9-29.7,4.9-48.8c-1-19.1-23.1-41.8-23.1-41.8l41.5-17.2
		c-0.7,4.1,0.1,8.2,2.2,11.8c4.5,8,14.2,12.5,23.9,11.4c11.5-1.3,31.8-3.5,51.2-4.7c7.5-0.4,14.5-3.2,20.3-8
		c5.5-4.5,9.3-10.9,10.7-17.8l35.7,17.1c19.5,16.9,7.1,85.1,5.2,87.1C503.9,270.2,499.9,322.3,496.2,334.2z"/>
	<path class="st0" d="M253.9,364c-9.7-18.1,9.8-34.1,17.1-39.5c7.5-5.4,25.1-12.9,33.8-16.7c22.3-9.5,61-22.9,82.6-32.5
		c14.3-6.4,21.5-10,28.3-2.6c6.1,6.7-4.7,16.8-8.9,20.8c-17.3,16.6-50.8,49.4-72,63.8c-8.7,5.9-27.4,16.6-37.8,19.5
		C268.1,385.3,256.7,369.2,253.9,364z"/>
	<path class="st0" d="M408.5,293.6l18.1-12.5l19-22.9c0,0-5.5-2.7-7.3-2.3c-5.9,1.2-12.6,7.7-17.1,11.4c-0.5,0.5-4.3,1.2-4.9,0.8
		c-2.9-1.5-0.9-7.8-0.9-7.8l-12.8,17.2L408.5,293.6z"/>
	<path class="st0" d="M410.2,287l-21.2-9l16.9-43.4l34.6-37c0,0,4.4,5.5,4.5,7.6c0.1,11.3-17.3,29.7-22.5,39.9
		C417,256.1,410.2,287,410.2,287z"/>
	
		<ellipse transform="matrix(2.809626e-02 -0.9996 0.9996 2.809626e-02 105.9099 676.1691)" class="st2" cx="400.7" cy="283.6" rx="12.3" ry="13.3"/>
	<g>
		<g>
			<g>
				<g>
					<path class="st3" d="M334.5,423.5c0,0,0.3,0.2,0.9,0.5c0.5,0.3,1.3,1,2,1.8c2,0.8,3.4,1.3,4.9,1.1c1.4-0.7,3.6-1.8,4.9-3.9
						c2.2-1.2,4.3-2.4,6.5-3.6c2.4,0,4.1,0,5.6,1c1.4,0.9,2.7,2.3,3.2,2.2c0.1-0.2,0-0.8,0-1.1c-0.2-0.1-0.3,0.1-0.3,0.1
						s0.2-0.2,0.3-0.1s-2.2-2.5-4.2-3.1c-1.9-0.1-4.4-0.2-6.5,1.1c-2.2,1.1-4.6,2.3-6.1,4.6c-2.3,1.4-2.9,1.8-3.5,1.8
						c-0.5,0.1-3.3,0.5-5.3-1.9c-2.2-1.2-1.8-1.1-1.9-1.1c0,0-0.3-0.2-0.3-0.3c-0.1,0-0.1,0.4-0.1,0.5"/>
					<path class="st3" d="M334.5,429.7c0,0,1.5,0.7,3,2.3c2,0.8,3.4,1.3,5,1.1c1.4-0.7,3.6-1.8,4.9-3.9c2.2-1.2,4.3-2.4,6.6-3.6
						c2.4,0,4.2,0,5.6,1c1.4,0.9,2.9,2.3,3.2,2.2c0.1-0.2,0.1-0.8,0-1.1c-0.2-0.1-0.3,0.1-0.3,0.1s0.2-0.2,0.3-0.1s-2.2-2.5-4.3-3.1
						c-1.9-0.1-4.4-0.2-6.6,1.1c-2.2,1.1-4.6,2.3-6.1,4.6c-2.3,1.4-2.9,1.8-3.5,1.8c-0.7,0.1-3.4,0.5-5.3-1.9
						c-2.2-1.2-1.9-1.1-1.9-1.1s-0.3-0.2-0.4-0.3c-0.1,0-0.1,0.4-0.1,0.5"/>
					<path class="st3" d="M334.6,435.5c0,0,0.4,0.2,1,0.5s1.3,1,2.1,1.8c2,0.8,3.5,1.3,5,1.1c1.4-0.7,3.7-1.8,5-3.9
						c2.2-1.2,4.4-2.5,6.6-3.6c2.5,0,4.2,0,5.7,1c1.4,0.9,2.9,2.3,3.2,2.2c0.1-0.2,0.1-0.8,0-1.1c-0.2-0.1-0.3,0.1-0.3,0.1
						s0.2-0.2,0.3-0.1c0.1,0.1-2.3-2.4-4.3-3.1c-2-0.1-4.4-0.2-6.6,1.1c-2.2,1.1-4.7,2.3-6.3,4.6c-2.4,1.4-3,1.8-3.6,1.9
						c-0.7,0.1-3.4,0.5-5.4-1.9c-2.3-1.2-1.9-1.1-2-1.1c0,0-0.3-0.2-0.4-0.3c-0.1,0-0.1,0.4-0.1,0.5"/>
				</g>
				<g>
					<path class="st3" d="M362.1,422.6c0,0,1.5,0.7,3.1,2.1c2,0.7,3.5,1.1,5,0.9c1.3-0.8,3.5-2,4.7-4.3c2.1-1.3,4.1-2.7,6.3-3.9
						c2.4-0.1,4.1-0.2,5.6,0.7c1.4,0.8,3,2.1,3.3,2c0.1-0.3,0-0.8-0.1-1.1c-0.2-0.1-0.3,0.1-0.3,0.1s0.2-0.2,0.3-0.1
						s-2.3-2.3-4.4-2.9c-1.9,0-4.3,0-6.4,1.4c-2.1,1.2-4.4,2.5-5.8,4.9c-2.2,1.5-2.7,2-3.4,2c-0.5,0.1-3.3,0.7-5.4-1.6
						c-2.2-1.1-1.9-1-2-1c0,0-0.3-0.2-0.4-0.3c-0.1,0-0.1,0.4,0,0.5"/>
					<path class="st3" d="M362.5,428.7c0,0,1.5,0.7,3.1,2.1c2,0.7,3.5,1.1,5,0.9c1.3-0.8,3.5-2,4.7-4.3c2.1-1.3,4.2-2.7,6.4-4.1
						c2.4-0.1,4.2-0.2,5.6,0.7c1.4,0.8,3,2.1,3.3,2c0.1-0.3,0-0.8-0.1-1.1c-0.3-0.1-0.3,0.1-0.3,0.1s0.2-0.2,0.3-0.1
						c0.1,0.1-2.4-2.3-4.4-2.9c-1.9,0-4.4,0-6.5,1.4c-2.1,1.2-4.5,2.5-5.9,4.9c-2.3,1.5-2.7,2-3.4,2c-0.5,0.1-3.3,0.7-5.4-1.6
						c-2.3-1.1-1.9-1-2-1c0,0-0.3-0.2-0.4-0.3c-0.1,0-0.1,0.4,0,0.5"/>
					<path class="st3" d="M363,434.5c0,0,1.5,0.7,3.1,2.1c2.1,0.7,3.5,1.1,5.2,0.9c1.4-0.8,3.6-2,4.8-4.3c2.1-1.3,4.3-2.7,6.4-4.1
						c2.5-0.1,4.2-0.2,5.7,0.7c1.5,0.8,3,2.1,3.4,2c0.1-0.3,0-0.8-0.1-1.1c-0.3-0.1-0.3,0.1-0.3,0.1s0.2-0.2,0.3-0.1
						c0.1,0.1-2.4-2.3-4.5-2.9c-2,0-4.5,0-6.6,1.4c-2.1,1.2-4.5,2.6-6,4.9c-2.3,1.5-2.9,2-3.5,2c-0.7,0.1-3.4,0.7-5.5-1.6
						c-2.3-1.1-1.9-1-2-1c0,0-0.3-0.2-0.4-0.3c-0.1,0-0.1,0.4,0,0.5"/>
				</g>
				<g>
					<path class="st3" d="M389.7,420c0,0,1.5,0.5,3.2,2c2,0.5,3.5,0.9,5,0.4c0.7-0.4,1.4-1,2.3-1.8c0.8-0.8,1.5-1.8,2.1-2.9
						c2-1.5,3.8-3,5.8-4.5c2.3-0.3,3.9-0.7,5.5,0.1c1.5,0.7,3.1,1.8,3.4,1.6c0.1-0.3-0.1-0.8-0.2-1.1c-0.3-0.1-0.3,0.2-0.3,0.2
						s0.2-0.3,0.3-0.2c0.1,0.1-2.5-2-4.5-2.4c-1.9,0.1-4.2,0.4-6,2c-2,1.3-4.2,2.9-5.4,5.4c-2.1,1.8-2.6,2.1-3.2,2.2
						s-3.2,0.9-5.4-1.2c-2.3-1-2-0.9-2-0.9s-0.3-0.2-0.4-0.2s0,0.4,0,0.5"/>
					<path class="st3" d="M390.5,426.1c0,0,1.6,0.5,3.2,2c2.1,0.5,3.6,0.9,5.2,0.4c0.7-0.4,1.5-1,2.3-1.8c0.8-0.8,1.6-1.8,2.1-2.9
						c2-1.5,3.9-3,5.9-4.5c2.4-0.4,4.1-0.7,5.7,0.1c1.5,0.7,3.2,1.8,3.5,1.6c0.1-0.3-0.1-0.8-0.2-1.1c-0.3-0.1-0.3,0.2-0.3,0.2
						s0.2-0.3,0.3-0.2s-2.6-2-4.7-2.3c-1.9,0.2-4.3,0.4-6.3,2.1c-2,1.3-4.3,2.9-5.5,5.4c-2.2,1.8-2.6,2.1-3.3,2.2
						c-0.5,0.1-3.3,1-5.5-1.2c-2.3-1-2-0.9-2-0.9s-0.3-0.2-0.4-0.2c-0.1,0,0,0.4,0,0.5"/>
					<path class="st3" d="M391.3,431.8c0,0,1.6,0.5,3.3,2c2.1,0.4,3.6,0.9,5.3,0.4c1.3-0.9,3.5-2.2,4.6-4.6c2.1-1.5,4.1-3.1,6.1-4.6
						c2.5-0.4,4.2-0.7,5.8,0c1.5,0.7,3.3,1.8,3.6,1.5c0.1-0.3-0.1-0.8-0.2-1.1c-0.3-0.1-0.3,0.2-0.3,0.2s0.2-0.3,0.3-0.2
						c0.1,0-2.7-2-4.8-2.3c-2,0.2-4.5,0.4-6.5,2.1c-2.1,1.3-4.4,3-5.6,5.4c-2.2,1.8-2.7,2.1-3.4,2.3c-0.7,0.1-3.4,1-5.6-1.2
						c-2.4-1-2-0.9-2.1-0.9c0,0-0.3-0.2-0.4-0.2c-0.1,0,0,0.4,0,0.5"/>
				</g>
				<g>
					<path class="st3" d="M416.7,415.2c0,0,1.6,0.3,3.3,1.5c1,0.1,2,0.2,2.7,0.3c0.8,0,1.5-0.1,2.3-0.4c1.1-1.1,3-2.6,3.5-5.2
						c1.5-1.8,3.2-3.6,4.7-5.5c2.2-0.8,3.6-1.4,5.4-1c1.5,0.3,3.4,1.1,3.6,0.9c0-0.3-0.2-0.8-0.4-1c-0.3,0-0.2,0.2-0.3,0.2
						c0,0,0.1-0.3,0.2-0.2c0.1,0-2.9-1.4-4.9-1.4c-0.9,0.2-1.9,0.5-2.9,1c-1,0.4-1.9,1.1-2.6,2.1c-0.8,0.9-1.6,1.8-2.4,2.7
						c-0.8,1-1.4,2.2-1.8,3.4c-1.8,2-2.2,2.5-2.7,2.6c-0.2,0.1-1,0.4-2,0.5c-1,0.1-2.2-0.1-3.4-1.1c-2.4-0.7-2-0.5-2-0.7
						c0,0-0.3-0.2-0.4-0.2c-0.1,0,0,0.4,0.1,0.5"/>
					<path class="st3" d="M418.1,421.1c0,0,1.6,0.3,3.4,1.5c1.1,0.1,2,0.2,2.9,0.2c0.9,0,1.6-0.2,2.4-0.5c1.2-1.1,3.2-2.7,3.7-5.3
						c1.6-1.9,3.3-3.6,5-5.6c2.3-0.9,3.8-1.4,5.6-1.1c1.6,0.3,3.4,1.1,3.7,0.9c0-0.3-0.2-0.8-0.4-1c-0.3,0-0.2,0.2-0.3,0.2
						c0,0,0.1-0.3,0.3-0.2c0.1,0-3-1.4-5-1.3c-0.9,0.2-2,0.5-3,1.1c-1,0.5-2,1.2-2.7,2.1c-0.9,0.9-1.8,1.8-2.5,2.7
						c-0.8,1.1-1.4,2.2-1.9,3.5c-1.9,2.1-2.3,2.5-3,2.7c-0.3,0.1-1.1,0.5-2.1,0.7c-1,0.1-2.3-0.1-3.6-1.1c-2.4-0.7-2.1-0.5-2.1-0.5
						s-0.3-0.2-0.4-0.2c-0.1,0,0,0.4,0.1,0.5"/>
					<path class="st3" d="M419.7,426.7c0,0,1.8,0.3,3.5,1.4c1.1,0.1,2.1,0.2,3,0.2c0.9,0,1.8-0.2,2.5-0.5c1.2-1.1,3.3-2.7,3.9-5.4
						c1.8-1.9,3.5-3.7,5.3-5.6c2.4-0.9,3.9-1.5,5.7-1.1c1.6,0.2,3.5,1,3.8,0.8c0-0.3-0.2-0.8-0.4-1c-0.3,0-0.2,0.2-0.3,0.2
						c0,0,0.2-0.3,0.3-0.2c0.1,0-3.1-1.3-5.2-1.3c-1.9,0.5-4.3,1.4-5.9,3.3c-1.8,1.8-3.7,3.7-4.7,6.4c-2,2.1-2.4,2.5-3.1,2.7
						c-0.3,0.1-1.1,0.5-2.2,0.7c-1.1,0.1-2.4-0.1-3.7-1c-2.5-0.7-2.1-0.5-2.2-0.5c0,0-0.3-0.2-0.4-0.2c-0.1,0,0,0.4,0.1,0.5"/>
				</g>
				<g>
					<path class="st3" d="M442,406c0,0,1.6,0,3.6,0.9c2.1-0.1,3.6-0.3,4.9-1.2c0.4-0.7,1.1-1.4,1.5-2.4c0.5-1,0.9-2.1,1-3.4
						c1.3-2.1,2.5-4.1,3.8-6.1c2.1-1.1,3.5-2,5.2-1.9c1.6,0,3.5,0.7,3.7,0.3c0-0.3-0.3-0.7-0.5-1c-0.3,0-0.2,0.3-0.2,0.3
						s0.1-0.3,0.2-0.3s-3.2-1.1-5.2-0.7c-1.6,0.9-3.8,1.8-4.9,3.9c-1.3,2-2.9,4.1-3.1,6.8c-1.3,2.3-1.8,2.9-2.3,3.2
						c-0.4,0.3-2.7,2-5.5,0.5c-2.4-0.2-2.1-0.2-2.1-0.2s-0.3-0.1-0.4-0.1c-0.1,0,0.1,0.4,0.2,0.5"/>
					<path class="st3" d="M444.6,411.5c0,0,1.6,0,3.7,0.8c2.2-0.1,3.7-0.3,5-1.3c0.4-0.7,1.1-1.4,1.6-2.4c0.5-1,1-2.2,1-3.4
						c1.3-2.1,2.6-4.2,4.1-6.3c2.2-1.2,3.6-2,5.4-1.9c1.6,0,3.6,0.5,3.8,0.3c0-0.3-0.3-0.7-0.5-1c-0.3,0-0.2,0.3-0.2,0.3
						s0.1-0.3,0.2-0.3s-3.2-1-5.3-0.5c-1.6,0.9-3.9,1.9-5.2,4.1c-1.3,2-3,4.2-3.3,6.9c-1.4,2.4-1.8,2.9-2.3,3.2s-2.9,2.1-5.6,0.7
						c-2.5-0.1-2.1-0.1-2.2-0.2c0,0-0.4-0.1-0.5-0.1c-0.1,0,0.1,0.4,0.2,0.5"/>
					<path class="st3" d="M447.3,416.6c0,0,1.8,0,3.7,0.8c2.2-0.2,3.8-0.4,5.2-1.3c0.5-0.7,1.2-1.4,1.8-2.4s1-2.2,1.1-3.5l2.1-3.2
						c0.7-1.1,1.4-2.1,2.1-3.2c2.2-1.2,3.7-2.1,5.5-2c1.6,0,3.6,0.5,3.9,0.3c0-0.3-0.3-0.7-0.5-1c-0.3,0-0.2,0.3-0.2,0.3
						s0.1-0.3,0.2-0.3c0.1,0-3.2-1-5.3-0.5c-1.8,0.9-4.1,2-5.3,4.2c-1.4,2.1-3.1,4.3-3.4,7c-1.5,2.4-1.9,3-2.4,3.3s-2.9,2.1-5.8,0.8
						c-2.6-0.1-2.2-0.1-2.2-0.1s-0.4-0.1-0.5-0.1s0.1,0.4,0.2,0.5"/>
				</g>
				<g>
					<path class="st3" d="M465.6,392.4c0,0,0.4-0.1,1.1-0.1s1.5,0.1,2.6,0.3c2.1-0.4,3.5-0.8,4.7-1.9c0.8-1.3,2-3.5,1.8-6
						c1-2.2,2-4.4,3-6.7c1.9-1.4,3.2-2.4,4.8-2.4c1.6-0.2,3.5,0.2,3.7-0.1c-0.1-0.3-0.4-0.7-0.8-0.9c-0.3,0.1-0.1,0.3-0.2,0.3
						c0,0,0-0.3,0.2-0.3c0,0-0.1,0-0.4-0.1c-0.3-0.1-0.8-0.1-1.3-0.2c-1-0.1-2.3-0.1-3.3,0.2c-1.5,1-3.5,2.3-4.4,4.6
						c-1,2.1-2.3,4.5-2.2,7.2c-1,2.5-1.3,3.1-1.8,3.4c-0.2,0.2-0.8,0.8-1.8,1.2c-0.9,0.4-2.2,0.7-3.6,0.1c-2.4,0.2-2.1,0.1-2.1,0.1
						s-0.4,0-0.5,0c-0.1,0,0.1,0.3,0.2,0.4"/>
					<path class="st3" d="M469,397.4c0,0,0.4-0.1,1.1-0.1c0.7,0,1.6,0,2.6,0.3c2.1-0.4,3.6-0.9,4.8-2c0.8-1.3,2-3.6,1.9-6.1
						c1.1-2.3,2.1-4.5,3.2-6.8c2-1.4,3.3-2.4,5-2.6c1.6-0.2,3.6,0,3.8-0.2c-0.1-0.3-0.4-0.7-0.8-0.9c-0.3,0-0.1,0.3-0.2,0.3
						c0,0,0.1-0.3,0.2-0.3s-3.3-0.5-5.3,0.2c-1.5,1.1-3.6,2.4-4.5,4.7c-1.1,2.2-2.4,4.6-2.3,7.3c-1.1,2.5-1.3,3.1-1.9,3.5
						c-0.2,0.2-0.9,0.8-1.8,1.2c-1,0.4-2.2,0.7-3.7,0.2c-2.5,0.2-2.1,0.1-2.2,0.1c0,0-0.4,0-0.5,0c-0.1,0,0.1,0.3,0.2,0.4"/>
					<path class="st3" d="M472.4,402.1c0,0,1.6-0.3,3.8,0.2c2.1-0.5,3.7-0.9,4.9-2c0.8-1.4,2.1-3.6,2-6.3c1.1-2.3,2.2-4.6,3.3-6.9
						c2-1.5,3.4-2.5,5.2-2.7c0.9-0.1,1.8-0.1,2.5-0.1c0.3,0,0.8,0,1-0.1c0.2,0,0.4-0.1,0.4-0.1c0-0.3-0.4-0.7-0.8-0.9
						c-0.3,0-0.1,0.3-0.2,0.3c0,0,0.1-0.3,0.2-0.3c0,0-0.1,0-0.4-0.1c-0.3,0-0.9,0-1.4,0c-1.1,0-2.5,0-3.5,0.4
						c-1.6,1.1-3.7,2.5-4.7,4.8c-1.1,2.2-2.4,4.6-2.5,7.5c-1.1,2.6-1.4,3.2-2,3.6c-0.4,0.4-2.5,2.4-5.6,1.5
						c-2.5,0.2-2.2,0.2-2.2,0.2s-0.4,0-0.5,0c-0.1,0.1,0.1,0.4,0.2,0.4"/>
				</g>
			</g>
		</g>
	</g>
	<path class="st4" d="M445.8,156.9l-0.7-36.1c-0.1-0.3-0.2-0.5-0.4-0.9l-12.4-2c-9.9-1.5-19.9-1.6-29.7-0.2l-15.8,2.3l-0.3,20.3
		c-0.1,9.3-5,18-12.9,23l-5.9,3.7c5.9,3.1,30.7,17,37.8,17C423.4,184.1,439,172.9,445.8,156.9z"/>
</g>
</svg>
