<?xml version="1.0" encoding="utf-8"?>
<!-- Generator: Adobe Illustrator 26.0.2, SVG Export Plug-In . SVG Version: 6.00 Build 0)  -->
<svg version="1.1" id="Layer_1" xmlns="http://www.w3.org/2000/svg" xmlns:xlink="http://www.w3.org/1999/xlink" x="0px" y="0px"
	 viewBox="0 0 788 371" style="enable-background:new 0 0 788 371;" xml:space="preserve">
<style type="text/css">
	.st0{fill:#1A1818;}
	.st1{fill:#473415;}
	.st2{fill:none;stroke:#4F3742;stroke-miterlimit:10;}
	.st3{fill:#6D3B25;}
	.st4{fill:#D48F72;}
	.st5{fill:#BF7F75;}
	.st6{fill:#D3D3D3;}
	.st7{fill:#262521;}
	.st8{fill:#D34B1C;}
</style>
<g id="Calque_1">
	<polygon class="st0" points="307.8,309.2 307.7,309.3 307.7,309.2 	"/>
	<polygon points="307.9,309.2 307.9,309.3 307.8,309.2 	"/>
	<polygon class="st0" points="307.8,309.2 307.7,309.3 307.7,309.2 	"/>
	<polygon points="307.9,309.2 307.9,309.3 307.8,309.2 	"/>
	<polygon class="st0" points="303.1,310.5 303,310.5 303,310.5 	"/>
	<polygon points="303.2,310.5 303.2,310.5 303.1,310.5 	"/>
	<polygon class="st0" points="303.1,310.5 303,310.5 303,310.5 	"/>
	<polygon points="303.2,310.5 303.2,310.5 303.1,310.5 	"/>
	<polygon class="st1" points="389.5,284.4 391,263.5 546,263.5 548,281.6 	"/>
	<polygon class="st2" points="467.4,320.1 462.4,283 477.4,283 476.4,312.9 	"/>
</g>
<g id="Calque_5">
	<path class="st3" d="M454.9,17.6c0.1-3.3,9.8-7.1,18.6-5.9c8.9,1.2,16.4,7.4,15.8,9.1c-0.5,1.2-5.2,0.8-8.8-0.4
		c-5.1-1.7-5.1-4.2-8.4-4.6c-5.7-0.6-7.8,5-12.7,3.6C457.7,19,454.9,19.1,454.9,17.6z"/>
</g>
<path class="st4" d="M532.3,108.8c9.3,28,37.9,46.4,37.9,46.4s51.6,41.7,68.4,55.8c7.9,6.7,24.3,20.8,41.6,1.4l0,0
	c14.2-16.1,1-32.5-6-39.6c-14.3-14.5-46.2-40.9-57.5-57.4c-8.5-12.3-16.8-34.6-40.6-43.9c0,0-18.7-9.7-34.5,4.4l-0.7,0.6
	C531.9,84.6,528.6,97.2,532.3,108.8L532.3,108.8z"/>
<path class="st4" d="M178.8,283.3c-0.4-0.6-0.9-0.9-1.5-1.1c-4-1.5-19.1-7-22-6.9c-3.2,0.2-16.8,3.4-19.2,3.1
	c-2.5-0.3-17.7-5.7-17.9-3.7c-0.1,1.2-0.1,4.8-0.1,7.1c0,1.2,0.8,2.6,1.9,3.1l9.6,4.6c0.4,0.2,0.9,0.3,1.5,0.3l5,0.1
	c3.3,0.1,4.6,4.3,2,6.2l-11.3,8.5c-0.2,0.1-0.3,0.2-0.6,0.3c-2.9,1.5-29,14.7-30.8,15.1c-1,0.2-0.7,3.1,0,5.7c0.6,2,2.7,3.2,4.6,2.4
	l29.9-12.7c0.6-0.2,0.9,0.6,0.6,0.9l-28.6,22.5c-1.5,1.1-1.8,3.3-0.7,4.9l2.1,2.6c1.1,1.5,3.4,1.8,4.9,0.6l29.4-23.5
	c0.4-0.3,0.9,0.2,0.6,0.7l-25.1,28c-1.5,1.7-1,4.4,1,5.4l2.9,1.5c1.4,0.7,2.9,0.4,4.1-0.8l25.2-26.3c0.3-0.3,0.9,0.1,0.7,0.4
	L135,354.1c-1,1.8-0.2,4.2,1.8,4.9c2.5,0.9,5.4,1.7,6.1,0.6c1-2,15.7-22,17.9-24.8c0.2-0.2,0.3-0.4,0.6-0.7l28.1-23.3
	c0.7-0.6,1-1.2,1.1-2.1l1-7c0.1-0.9-0.1-1.9-0.7-2.6L178.8,283.3z"/>
<polygon points="292,355.2 292.1,355.2 292,355.1 "/>
<polygon points="292.1,355.2 292.2,355.2 292.2,355.1 "/>
<polygon points="292,355.2 292.1,355.2 292,355.1 "/>
<polygon points="292.1,355.2 292.2,355.2 292.2,355.1 "/>
<path class="st4" d="M595.7,104.5c-0.7,40.9-27.9,35.3-39.3,45c-13.4,11.4-8.8,53.2-18.3,68c-2.6,4.1-12.1,10.8-16.8,9.7
	c-13.3-3.1-25.5-32.6-37-40.1c-6.7-4.4-25.1-3.8-32.1,0c-11.9,6.6-23.8,37.1-37,40.1c-4.6,1-14.3-5.5-16.8-9.7
	c-9.5-14.9-4.9-56.6-18.3-68c-11.3-9.7-38.5-4.2-39.3-45c-0.4-28.3,37.2-39.6,37.2-39.6l42.8-21.2c2.7-1.4,5.2-3.1,7.5-5.1
	c0.9-0.8,1.7-1.6,2.5-2.5l0.7-0.8v-0.2c4.3-5,6.9-11.1,7.7-17.4c0.2-1.5,0.3-2.9,0.2-4.4v-2.9V5.5h57.3l0.1,5.3v1.6v3.4
	c0,0.3,0,0.8,0,1l0,0c0,0.7,0.1,1.4,0.1,2c1.2,10.2,7.6,19,16.8,23.7l43.1,21.4c1,0.6,2.3,1,3.4,1.4
	C567.2,67.8,596.2,79.6,595.7,104.5z"/>
<path class="st5" d="M498.1,24.1l-1,1.2c-5.4,6.7-30.7,37.2-44.5,47.1c-3.4,2.5-6.1,3.6-7.7,2.8c-7.2-3.5-15.8-37.4-15.8-37.4
	s0.1,0,0.1-0.1c0.7-0.7,1.2-1.2,1.8-2c0.3-0.4,0.8-0.9,1.1-1.4l0.1-0.1c3.5-4.8,5.9-10.3,7-16.2c0-0.2,0.1-0.4,0.1-0.7
	c0.3-1.5,0.6-3.2,0.8-5.1c0.1-0.8,0.1-1.5,0.2-2.4c0.1-1.5,0.2-3.1,0.3-4.8h55.9v0.2v4.5V17l0.1,0.9l0.1,0.8l0.9,4.9L498.1,24.1z"/>
<path class="st4" d="M670.2,174.7c-18.6-10-36.1,8-42,15c-6,6.9-14.5,23.8-18.7,32.1c-10.8,21.2-26.2,58.2-37,78.7
	c-7.1,13.5-11.3,20.4-3.8,27.3c6.7,6.2,17.8-4,22.1-7.9c18-16.2,53.5-47.2,69.5-67.2c6.6-8.2,18.3-25.9,21.8-35.9
	C692.1,189.3,675.6,177.6,670.2,174.7z"/>
<path class="st4" d="M345.2,219.3c-10.3-16-34.4-8.8-43.1-5.9c-8.6,2.9-24.7,12.9-32.6,17.8c-20.1,12.3-80.3,50.9-102.6,57.5
	c-15.5,4.6,7.9,26.6,7.9,26.6s16.5-9.6,27.3-13.4c22.8-8,55.5-12.2,93.5-24.2c10-3.2,29-13,37.1-19.5
	C355.8,240.3,348.2,223.9,345.2,219.3z"/>
<path class="st4" d="M406,100.7c2.9,29.2-15.8,57.9-15.8,57.9s-30.1,59-39.9,78.8c-4.5,9.4-13.8,29-37.5,18.2l0,0
	c-19.5-8.9-14.2-29.1-10.6-38.5c7.1-19,25.6-56,29.2-75.9c2.7-14.7,1.2-38.5,19.2-56.7c0,0,13.1-16.5,33.4-10l0.9,0.2
	C396.5,78.4,404.8,88.6,406,100.7L406,100.7z"/>
<polygon points="297.3,353.3 297.4,353.2 297.3,353.2 "/>
<polygon points="297.4,353.2 297.5,353.3 297.5,353.2 "/>
<polygon points="297.3,353.3 297.4,353.2 297.3,353.2 "/>
<polygon points="297.4,353.2 297.5,353.3 297.5,353.2 "/>
<path d="M292.3,354.7L292.3,354.7L292.3,354.7z"/>
<polygon points="292.4,354.7 292.4,354.7 292.4,354.7 "/>
<path d="M292.3,354.7L292.3,354.7L292.3,354.7z"/>
<polygon points="292.4,354.7 292.4,354.7 292.4,354.7 "/>
<polygon class="st1" points="384.2,324.7 385.8,300.8 550.8,300.8 552.9,321.5 "/>
<path class="st6" d="M324.5,171l46,25.5c0.7,0.3,1.4,0.1,1.7-0.6l11.4-23.1c1-2,4.2-1.2,4.1,1l-2.3,63.7l-2.8,52.8l-3.4,37.2
	c-0.7,6.8,4.4,12.9,11.3,13.5c0.2,0,0.3,0,0.6,0l44.8,15.5c15.2,5.3,31.6,6.2,47.2,2.6l61.8-11.7h-10c9.5,0.4,27.5-6.9,28-16.4
	c0-0.4,1-0.8,1-1.1l-6-53.8l-2.8-20.2c-2.3-16.4-2.9-33.1-1.9-49.6l3.3-51.8c0.1-1,1.4-1.7,2.3-0.9l36,31.5c0.8,0.7,1.9,0.6,2.5-0.2
	l39.1-48c1.9-2.5,1.9-5.9,0-8.2l-37.1-45.2c-6.6-8-15.2-14.4-24.9-18.3l-46.2-18.5l0,0l-19.8,6c-23.9,7.2-49.5,6.6-73-1.9l-17.4-6.2
	l0,0l-50.2,23.3c-7,3.3-13.3,8-18.4,14l0,0c-7.8,9.2-13.2,20-16,31.6l-11.7,50.5C320.6,166.8,322,169.7,324.5,171z"/>
<path class="st4" d="M572.4,324.4c1.7,3.6,2,9.9-5.1,15.2c0,0-21.3,18.9-30.1,22.2c-4,1.5-14.4,4.9-16.7,1.4
	c-6.6-9.7-8.9-31.8-4.6-45.3c1.2-4.1,11-7.2,15.2-7.6c4.6-0.3,13.3,4.4,18,5.2c2.6,0.3,5.1,0.6,7.7,0.6
	C563.1,316.6,570.1,319.5,572.4,324.4z"/>
<polygon class="st4" points="565.3,311 558.6,316.5 560.4,330.1 563.1,343.5 569.8,337.9 581.3,331.7 "/>
<path class="st6" d="M562.3,312.2l6.8-7.2c0.3-0.3,0.8-0.3,1,0l17.9,19.9c0.3,0.6,0.2,1-0.2,1.5l-8.5,7.1c-0.3,0.3-0.9,0.2-1.1-0.1
	l-15.7-19.1C561.8,313.7,561.8,312.8,562.3,312.2z"/>
<path class="st7" d="M570.9,329.2l-6.9-8.7c-1.5-1.9-1.1-4.8,0.8-6.2l8.7-6.9c1.9-1.5,4.8-1.1,6.2,0.8l6.9,8.7
	c1.5,1.9,1.1,4.8-0.8,6.2l-8.7,6.9C575.3,331.4,572.4,331.1,570.9,329.2z"/>
<path class="st6" d="M590.6,97.1c-5.7-8.9-13.8-16-23.7-20.2l-37.1-29.2c-14.4-6.2-25.2-5.7-29.9-20.3c0,0-26.7,9.5-26.9,11.2
	l-3.8,10l-2.8-9.9c-1.4-5.5-30.9-9.3-30.9-9.3s-16.9,15-30.8,21.1l-38.3,28.9c-10.2,4.4-18.6,16.6-24.2,26"/>
<g>
	<path class="st8" d="M432.7,29c0,0-5.8,2.9-8.3,9.5c-0.4,0.4-10.3,3.4-7.1,9.5c3.3,6.3,5,5.5,5,5.5s32.5,0.4,44.1,12.8
		c0.3,0,34.5-11.9,45.6-10.3c0.3,0.1,3.4-6.8,0-8.4s0.9-6.3-1.3-9.9c-2-3.6-3.5-7.5-7.1-5.8c-3.5,1.6-37.4,13.7-37.4,24.1
		C466.7,56,457.3,40.2,432.7,29z"/>
	<path class="st8" d="M458.7,51.2c0,0,10-6.3,16.6,0c1.1,8.8,3.3,14.5,0,15.4s-9.5,4-12.1,2.5C460.8,67.2,449.5,62.7,458.7,51.2z"/>
	<path class="st8" d="M458.4,61.3l-12.9,16.7c-0.4,0.6-0.6,1.1-0.4,1.9l6.6,27.3c0.4,2,3.3,2.4,4,0.4l10-21.7
		c0.1-0.4,0.3-0.9,0.1-1.3l-3.6-22.3C462.1,60.4,459.5,59.7,458.4,61.3z"/>
	<path class="st8" d="M475.2,55.7l21.1,11.5c0.7,0.4,1.3,1.1,1.3,2l2.6,34.6c0.1,2.4-2.6,3.8-4.4,2l-15.9-14.8
		c-0.4-0.3-0.6-0.7-0.7-1.3l-7.7-31.2C471,56.3,473.3,54.5,475.2,55.7z"/>
</g>
<g>
	<g>
		<path class="st8" d="M474.1,52.8c-11.1,5.1-24,10.9-35.2,15.7c-7,2.6-11.8,6.9-11.9,14l0.1,5.1c0.1,6.7,0.1,13.6,0.1,20.3
			c-1,40.8,0.4,81.4,1.4,122c0.6,40.5,1.5,82.1-0.4,122c-3.5-67.8-2.1-135.5-2.4-203.4c-0.4-19.6-1.5-41.4-1.5-60.9v-5.1
			c-0.1-5.5,3.3-10.9,8.5-13.8c2.8-1.6,7.4-2.9,10.3-4.4c5.1-2,15.4-6.1,20.6-8c3.4-1.4,6.9-2.6,10.3-4L474.1,52.8L474.1,52.8z"/>
	</g>
	<ellipse class="st8" cx="442.3" cy="92.4" rx="3.6" ry="3.3"/>
	<ellipse class="st8" cx="443.8" cy="157.5" rx="3.6" ry="3.3"/>
	<ellipse class="st8" cx="444.7" cy="282.9" rx="3.6" ry="3.3"/>
	<ellipse class="st8" cx="444.7" cy="222.6" rx="3.6" ry="3.3"/>
</g>
</svg>
