<?xml version="1.0" encoding="utf-8"?>
<!-- Generator: Adobe Illustrator 26.0.3, SVG Export Plug-In . SVG Version: 6.00 Build 0)  -->
<svg version="1.1" id="Layer_1" xmlns="http://www.w3.org/2000/svg" xmlns:xlink="http://www.w3.org/1999/xlink" x="0px" y="0px"
	 viewBox="0 0 788 1005" style="enable-background:new 0 0 788 1005;" xml:space="preserve">
<style type="text/css">
	.st0{fill:none;stroke:#000000;stroke-width:2;stroke-linecap:round;stroke-miterlimit:10;}
	.st1{fill:#FFFFFF;}
	.st2{fill:none;stroke:#543030;stroke-width:2;stroke-linecap:round;stroke-miterlimit:10;}
	.st3{fill:#AAA3A5;}
	.st4{clip-path:url(#SVGID_00000045596122932112847860000005660665424426710694_);}
	.st5{fill:none;stroke:#7A4949;stroke-width:2;stroke-linecap:round;stroke-miterlimit:10;}
	.st6{clip-path:url(#SVGID_00000147189438173232905840000001772000891604082362_);}
	.st7{fill:#613334;}
	.st8{fill:#542D2F;}
</style>
<g id="Calque_6">
	<path class="st0" d="M403.6,189.6c0,0,2.8-1.3,8.2-1.3c2.8-0.1,5.6,0.4,8.2,1.3"/>
	<circle class="st1" cx="375" cy="188.6" r="5.9"/>
	<circle cx="375.5" cy="189" r="4"/>
	<path class="st2" d="M384,220.7c3.1,1.2,6.4,1.8,9.7,1.7c3.2,0,6.5-0.7,9.4-2"/>
	<path class="st3" d="M411.5,221.1c-1.6,2.2-4.4,3.1-7,2.2c-2.9-0.8-2.6-0.8-11-1.4c-0.1,0,0.2,0,0.1,0h-0.1
		c-8.4,0.6-9.1,0.6-12,1.4c-2.6,0.8-5.4-0.1-7-2.2c-3.2-5.2,0,0,6.1-3.9c4.1-2.6,10.5-1.4,12.7-0.6l0,0c2.2-0.9,8-2.1,12.1,0.6
		C411.5,221.1,414.7,215.9,411.5,221.1z"/>
	<path class="st3" d="M404.2,175c-3.5-0.4-2.7,5.3-0.1,4.9c3.3-0.6,6.7-0.3,9.9,0.8c4.3,1.2,7.5,3.5,10,3.3c0.9-0.1,3.4,0,1.6-1.2
		C420,178.9,415.8,176.3,404.2,175z"/>
	<path class="st3" d="M382.5,172.6c3,0.8,1.4,5.8-0.7,4.8c-2.7-1.2-5.7-1.7-8.6-1.2c-3.9,0.4-7.9,3.1-8.6,3.6s-2.3,0.2-1.1-1.5
		C366.6,173.3,373.1,170.1,382.5,172.6z"/>
	<g id="random">
		<g>
			<defs>
				<rect id="SVGID_1_" x="402.7" y="195.5" width="18.5" height="6"/>
			</defs>
			<clipPath id="SVGID_00000021824606528859951670000017748302946867241114_">
				<use xlink:href="#SVGID_1_"  style="overflow:visible;"/>
			</clipPath>
			<g style="clip-path:url(#SVGID_00000021824606528859951670000017748302946867241114_);">
				<path class="st5" d="M403.7,198.7c0,0,4.8,2.1,8.5,1.8c3.1-0.3,5.9-1.8,8-4"/>
			</g>
		</g>
	</g>
	<g id="random2">
		<g>
			<defs>
				<rect id="SVGID_00000067944930375657594570000009214604727008721577_" x="366.2" y="195.5" width="18.5" height="6"/>
			</defs>
			<clipPath id="SVGID_00000066506007374336246400000015206894501662076299_">
				<use xlink:href="#SVGID_00000067944930375657594570000009214604727008721577_"  style="overflow:visible;"/>
			</clipPath>
			<g style="clip-path:url(#SVGID_00000066506007374336246400000015206894501662076299_);">
				<path class="st5" d="M383.7,198.7c0,0-4.8,2.1-8.5,1.8c-3.1-0.4-5.9-1.8-8-4"/>
			</g>
		</g>
	</g>
</g>
<g>
	<path class="st7" d="M401.5,209.3c2-0.8-0.5-3,1.3-3.9c2.5,4.9,1.5,6.1-4.9,6.1C397.9,208.9,400,209.6,401.5,209.3z"/>
	<path class="st8" d="M401.5,209.3c-1.2,0.8-2.4,1.5-3.6,2.3c-0.4,0.1-0.7,0.1-1.1,0.1c-1.2,0.4-1.5-0.1-1.2-1.2
		C397.4,208.9,399,206.8,401.5,209.3z"/>
	<path class="st7" d="M383.9,209.3c-2-0.8,0.5-3-1.3-3.9c-2.5,4.9-1.5,6.1,4.9,6.1C387.6,208.8,385.4,209.5,383.9,209.3z"/>
	<path class="st8" d="M383.9,209.3c1.2,0.8,2.4,1.5,3.6,2.3c0.4,0.1,0.7,0.1,1.1,0.1c1.2,0.4,1.5-0.1,1.2-1.2
		C388.1,208.9,386.5,206.8,383.9,209.3z"/>
	<path class="st7" d="M388.6,211.7c0.4-0.4,0.8-0.9,1.2-1.2c2,1.1,3.8,1.4,5.8,0c0.4,0.4,0.8,0.8,1.2,1.2
		C394.1,213.4,391.4,213.5,388.6,211.7z"/>
</g>
</svg>
