<?xml version="1.0" encoding="utf-8"?>
<!-- Generator: Adobe Illustrator 26.0.3, SVG Export Plug-In . SVG Version: 6.00 Build 0)  -->
<svg version="1.1" id="Layer_1" xmlns="http://www.w3.org/2000/svg" xmlns:xlink="http://www.w3.org/1999/xlink" x="0px" y="0px"
	 viewBox="0 0 788 1005" style="enable-background:new 0 0 788 1005;" xml:space="preserve">
<style type="text/css">
	.st0{fill:#FFFFFF;}
	.st1{fill:#080808;}
	.st2{fill:#AAA3A5;}
	.st3{clip-path:url(#SVGID_00000145750718605214767120000010091347350693422486_);}
	.st4{fill:none;stroke:#7A4949;stroke-width:2;stroke-linecap:round;stroke-miterlimit:10;}
	.st5{clip-path:url(#SVGID_00000120531336883707684760000007902586140409637803_);}
	.st6{fill:#4DA0FF;}
	.st7{fill:#613334;}
	.st8{fill:#542D2F;}
</style>
<g id="Calque_6">
	<path class="st0" d="M417.3,186.6c0,3.7-3,6.8-6.8,6.8s-6.8-3-6.8-6.8H417.3z"/>
	<path class="st0" d="M382.4,186.6c0,3.7-3,6.8-6.8,6.8s-6.8-3-6.8-6.8H382.4z"/>
	<path class="st1" d="M379.8,187.1c0,2.2-1.8,4-4,4s-4-1.8-4-4c0-0.2,0-0.4,0-0.6h7.9C379.8,186.7,379.8,186.9,379.8,187.1z"/>
	<path class="st1" d="M414.7,187.1c0,2.2-1.8,4-4,4s-4-1.8-4-4c0-0.2,0-0.4,0-0.6h7.9C414.7,186.7,414.7,186.9,414.7,187.1z"/>
	<path class="st2" d="M412.5,221.8c-1.6,2.2-4.4,3.1-7,2.2c-2.9-0.8-2.9-3.1-11.2-3.7H394h-0.2c-8.4,0.6-8.4,3-11.2,3.7
		c-2.6,0.8-5.4-0.1-7-2.2c-3.2-5.2,0,0,6.1-3.9c4.1-2.6,10.2-3.8,12.4-2.9l0,0c2.2-0.9,8.2,0.3,12.4,2.9
		C412.5,221.8,415.7,216.6,412.5,221.8z"/>
	<path class="st2" d="M405.5,175.4c-3.5-0.4-2.7,5.3-0.1,4.9c3.3-0.6,6.7-0.3,9.9,0.8c4.3,1.2,7.5,3.5,10,3.3c0.9-0.1,3.4,0,1.6-1.2
		C421.4,179.3,417.2,176.8,405.5,175.4z"/>
	<path class="st2" d="M381.6,175.4c3.5-0.4,2.7,5.3,0.1,4.9c-3.3-0.6-6.7-0.3-9.9,0.8c-4.3,1.2-7.5,3.5-10,3.3
		c-0.9-0.1-3.4,0-1.6-1.2C365.7,179.3,369.9,176.8,381.6,175.4z"/>
	<g id="random">
		<g>
			<defs>
				<rect id="SVGID_1_" x="403" y="193.9" width="18.5" height="6"/>
			</defs>
			<clipPath id="SVGID_00000038410162731581795330000009377230019209786769_">
				<use xlink:href="#SVGID_1_"  style="overflow:visible;"/>
			</clipPath>
			<g style="clip-path:url(#SVGID_00000038410162731581795330000009377230019209786769_);">
				<path class="st4" d="M404,197.1c0,0,4.8,2.1,8.5,1.8c3.1-0.4,5.9-1.8,8-4"/>
			</g>
		</g>
	</g>
	<g id="random2">
		<g>
			<defs>
				<rect id="SVGID_00000121962180587213227540000015514845685450253495_" x="366.5" y="193.9" width="18.5" height="6"/>
			</defs>
			<clipPath id="SVGID_00000043439716553174502560000017861119268173730948_">
				<use xlink:href="#SVGID_00000121962180587213227540000015514845685450253495_"  style="overflow:visible;"/>
			</clipPath>
			<g style="clip-path:url(#SVGID_00000043439716553174502560000017861119268173730948_);">
				<path class="st4" d="M384,197.1c0,0-4.8,2.1-8.5,1.8c-3.1-0.4-5.9-1.8-8-4"/>
			</g>
		</g>
	</g>
	<path class="st6" d="M369.4,191.5c0,0,3.8,3,3.8,5.4s-1.7,4.4-3.9,4.4s-3.9-2-3.9-4.4S369.4,191.6,369.4,191.5z"/>
</g>
<g>
	<path class="st7" d="M403,208.9c2-0.8-0.5-3,1.3-3.9c2.5,4.9,1.5,6.1-4.9,6.1C399.4,208.5,401.5,209.2,403,208.9z"/>
	<path class="st8" d="M403,208.9c-1.2,0.8-2.4,1.5-3.6,2.3c-0.4,0.1-0.7,0.1-1.1,0.1c-1.2,0.4-1.5-0.1-1.2-1.2
		C398.9,208.5,400.5,206.4,403,208.9z"/>
	<path class="st7" d="M385.4,208.9c-2-0.8,0.5-3-1.3-3.9c-2.5,4.9-1.5,6.1,4.9,6.1C389.1,208.4,386.9,209.1,385.4,208.9z"/>
	<path class="st8" d="M385.4,208.9c1.2,0.8,2.4,1.5,3.6,2.3c0.4,0.1,0.7,0.1,1.1,0.1c1.2,0.4,1.5-0.1,1.2-1.2
		C389.6,208.5,388,206.4,385.4,208.9z"/>
	<path class="st7" d="M390.1,211.3c0.4-0.4,0.8-0.9,1.2-1.2c2,1.1,3.8,1.4,5.8,0c0.4,0.4,0.8,0.8,1.2,1.2
		C395.6,213,392.9,213.1,390.1,211.3z"/>
</g>
</svg>
