<?xml version="1.0" encoding="utf-8"?>
<!-- Generator: Adobe Illustrator 26.0.3, SVG Export Plug-In . SVG Version: 6.00 Build 0)  -->
<svg version="1.1" id="Layer_1" xmlns="http://www.w3.org/2000/svg" xmlns:xlink="http://www.w3.org/1999/xlink" x="0px" y="0px"
	 viewBox="0 0 788 1005" style="enable-background:new 0 0 788 1005;" xml:space="preserve">
<style type="text/css">
	.st0{fill:#FFFFFF;}
	.st1{fill:#080808;stroke:#000000;stroke-miterlimit:10;}
	.st2{fill:none;stroke:#543030;stroke-width:2;stroke-linecap:round;stroke-miterlimit:10;}
	.st3{fill:#AAA3A5;}
	.st4{clip-path:url(#SVGID_00000032636847277669619220000001598882363012181945_);}
	.st5{fill:none;stroke:#7A4949;stroke-width:2;stroke-linecap:round;stroke-miterlimit:10;}
	.st6{clip-path:url(#SVGID_00000108994373194287896010000017663721935376421566_);}
	.st7{fill:#613334;}
	.st8{fill:#542D2F;}
</style>
<circle class="st0" cx="410.6" cy="186.4" r="6.8"/>
<circle class="st0" cx="375.8" cy="186.4" r="6.8"/>
<circle class="st1" cx="375.9" cy="185.5" r="4"/>
<circle class="st1" cx="410.8" cy="185.5" r="4"/>
<path class="st2" d="M382.5,222.3c3.4,0.8,6.9,1.1,10.4,1.1c3.4,0,6.8-0.4,10.1-1.3"/>
<path class="st3" d="M412.4,221.6c-1.6,2.2-4.4,3.1-7,2.2c-2.9-0.8-2.9-3.1-11.2-3.7h-0.2h-0.2c-8.4,0.6-8.4,3-11.2,3.7
	c-2.6,0.8-5.4-0.1-7-2.2c-3.2-5.2,0,0,6.1-3.9c4.1-2.6,10.2-3.8,12.4-2.9l0,0c2.2-0.9,8.2,0.3,12.4,2.9
	C412.4,221.6,415.6,216.4,412.4,221.6z"/>
<path class="st3" d="M404.9,171c-3,0.8-1.4,5.8,0.7,4.8c2.7-1.2,5.7-1.6,8.6-1.2c3.9,0.3,7.9,3.1,8.6,3.6s2.3,0.2,1.2-1.5
	C420.8,171.7,414.3,168.5,404.9,171z"/>
<path class="st3" d="M382.7,171c3,0.8,1.4,5.8-0.7,4.8c-2.7-1.2-5.7-1.6-8.6-1.2c-3.9,0.3-7.9,3.1-8.6,3.6s-2.3,0.2-1.2-1.5
	C366.8,171.7,373.3,168.5,382.7,171z"/>
<g id="random">
	<g>
		<defs>
			<rect id="SVGID_1_" x="402.9" y="194.7" width="18.5" height="6"/>
		</defs>
		<clipPath id="SVGID_00000090267960212740020370000001072470415844960900_">
			<use xlink:href="#SVGID_1_"  style="overflow:visible;"/>
		</clipPath>
		<g style="clip-path:url(#SVGID_00000090267960212740020370000001072470415844960900_);">
			<path class="st5" d="M403.9,197.8c0,0,4.8,2.1,8.5,1.8c3.1-0.4,5.9-1.8,8-4"/>
		</g>
	</g>
</g>
<g id="random2">
	<g>
		<defs>
			<rect id="SVGID_00000024699654481174678370000009042269406764523928_" x="366.4" y="194.7" width="18.5" height="6"/>
		</defs>
		<clipPath id="SVGID_00000178914246823750120660000018277254882815683256_">
			<use xlink:href="#SVGID_00000024699654481174678370000009042269406764523928_"  style="overflow:visible;"/>
		</clipPath>
		<g style="clip-path:url(#SVGID_00000178914246823750120660000018277254882815683256_);">
			<path class="st5" d="M383.9,197.8c0,0-4.8,2.1-8.5,1.8c-3.1-0.3-5.9-1.8-8-4"/>
		</g>
	</g>
</g>
<g>
	<path class="st7" d="M403.1,208.8c2-0.8-0.5-3,1.3-3.9c2.5,4.9,1.5,6.1-4.9,6.1C399.5,208.4,401.6,209.1,403.1,208.8z"/>
	<path class="st8" d="M403.1,208.8c-1.2,0.8-2.4,1.5-3.6,2.3c-0.4,0.1-0.7,0.1-1.1,0.1c-1.2,0.4-1.5-0.1-1.2-1.2
		C399,208.4,400.6,206.3,403.1,208.8z"/>
	<path class="st7" d="M385.5,208.8c-2-0.8,0.5-3-1.3-3.9c-2.5,4.9-1.5,6.1,4.9,6.1C389.2,208.3,387,209,385.5,208.8z"/>
	<path class="st8" d="M385.5,208.8c1.2,0.8,2.4,1.5,3.6,2.3c0.4,0.1,0.7,0.1,1.1,0.1c1.2,0.4,1.5-0.1,1.2-1.2
		C389.7,208.4,388.1,206.3,385.5,208.8z"/>
	<path class="st7" d="M390.2,211.2c0.4-0.4,0.8-0.9,1.2-1.2c2,1.1,3.8,1.4,5.8,0c0.4,0.4,0.8,0.8,1.2,1.2
		C395.7,212.9,393,213,390.2,211.2z"/>
</g>
</svg>
