<?xml version="1.0" encoding="utf-8"?>
<!-- Generator: Adobe Illustrator 26.0.3, SVG Export Plug-In . SVG Version: 6.00 Build 0)  -->
<svg version="1.1" id="Layer_1" xmlns="http://www.w3.org/2000/svg" xmlns:xlink="http://www.w3.org/1999/xlink" x="0px" y="0px"
	 viewBox="0 0 88 111" style="enable-background:new 0 0 88 111;" xml:space="preserve">
<style type="text/css">
	.st0{clip-path:url(#SVGID_00000117639573185508046870000012191224602735382411_);}
	.st1{fill:none;stroke:#000000;stroke-width:2;stroke-linecap:round;stroke-miterlimit:10;}
	.st2{clip-path:url(#SVGID_00000172436886992978761930000008164365429307705275_);}
	.st3{fill:none;stroke:#543030;stroke-width:2;stroke-linecap:round;stroke-miterlimit:10;}
	.st4{fill:#AAA3A5;}
	.st5{fill:#613334;}
	.st6{fill:#542D2F;}
</style>
<g>
	<g id="Calque_6">
		<g>
			<defs>
				<rect id="SVGID_1_" x="53.3" y="41.1" width="18.5" height="6.3"/>
			</defs>
			<clipPath id="SVGID_00000094606767914383325610000003112841843050557887_">
				<use xlink:href="#SVGID_1_"  style="overflow:visible;"/>
			</clipPath>
			<g style="clip-path:url(#SVGID_00000094606767914383325610000003112841843050557887_);">
				<path class="st1" d="M54.3,46.4c1.9-2.7,5-4.3,8.2-4.3c3.3,0.1,6.3,1.7,8.2,4.3"/>
			</g>
		</g>
		<g>
			<defs>
				<rect id="SVGID_00000178176331045369659850000010674478455192141499_" x="15.3" y="41.1" width="18.5" height="6.3"/>
			</defs>
			<clipPath id="SVGID_00000007430037981936515870000005047533673926015133_">
				<use xlink:href="#SVGID_00000178176331045369659850000010674478455192141499_"  style="overflow:visible;"/>
			</clipPath>
			<g style="clip-path:url(#SVGID_00000007430037981936515870000005047533673926015133_);">
				<path class="st1" d="M32.8,46.4c-1.9-2.7-5-4.3-8.2-4.3c-3.3,0.1-6.3,1.7-8.2,4.3"/>
			</g>
		</g>
		<path class="st3" d="M34.2,79.6c2.9,1.8,6.3,2.8,9.7,2.6c3.4,0,6.7-1.1,9.4-3.1"/>
		<path class="st4" d="M25.1,75.7c1.6-2.2,4.4-3.1,7-2.2c2.9,0.8,2.9,3.1,11.2,3.7h0.2h0.2c8.4-0.6,8.4-3,11.2-3.7
			c2.6-0.8,5.4,0.1,7,2.2c3.2,5.2,0,0-6.1,3.9c-4.1,2.6-10.2,3.8-12.4,2.9l0,0c-2.2,0.9-8.2-0.3-12.4-2.9
			C25.1,75.7,21.9,80.9,25.1,75.7z"/>
		<path class="st4" d="M55.1,29c-3,0.8-1.4,5.8,0.7,4.8c2.7-1.2,5.7-1.7,8.6-1.3c3.9,0.4,7.9,3.1,8.6,3.6s2.3,0.2,1.2-1.5
			C71,29.7,64.4,26.5,55.1,29z"/>
		<path class="st4" d="M32.9,29c3,0.8,1.4,5.8-0.7,4.8c-2.7-1.2-5.7-1.6-8.6-1.2c-3.9,0.4-7.9,3.1-8.6,3.6s-2.3,0.2-1.2-1.5
			C17,29.7,23.5,26.5,32.9,29z"/>
	</g>
	<g>
		<path class="st5" d="M52.4,68.4c2-0.8-0.5-3,1.3-3.9c2.5,4.9,1.5,6.1-4.9,6.1C48.8,68,50.9,68.7,52.4,68.4z"/>
		<path class="st6" d="M52.4,68.4c-1.2,0.8-2.4,1.5-3.6,2.3c-0.4,0.1-0.7,0.1-1.1,0.1c-1.2,0.4-1.5-0.1-1.2-1.2
			C48.3,68,49.9,65.9,52.4,68.4z"/>
		<path class="st5" d="M34.8,68.4c-2-0.8,0.5-3-1.3-3.9c-2.5,4.9-1.5,6.1,4.9,6.1C38.5,67.9,36.3,68.6,34.8,68.4z"/>
		<path class="st6" d="M34.8,68.4c1.2,0.8,2.4,1.5,3.6,2.3c0.4,0.1,0.7,0.1,1.1,0.1c1.2,0.4,1.5-0.1,1.2-1.2
			C39,68,37.4,65.9,34.8,68.4z"/>
		<path class="st5" d="M39.5,70.8c0.4-0.4,0.8-0.9,1.2-1.2c2,1.1,3.8,1.4,5.8,0c0.4,0.4,0.8,0.8,1.2,1.2
			C45,72.5,42.3,72.6,39.5,70.8z"/>
	</g>
</g>
</svg>
