<svg id="Calque_9" data-name="Calque 9" xmlns="http://www.w3.org/2000/svg" viewBox="0 0 788 1005"><defs><style>.cls-1{fill:#90573a;}.cls-2{fill:#6f412a;}.cls-3,.cls-5{fill:none;}.cls-3{stroke:#6d3b25;stroke-linecap:round;stroke-miterlimit:10;stroke-width:2px;}.cls-4{fill:#6999aa;}.cls-6{fill:#427887;}</style></defs><path class="cls-1" d="M391.35,416.74c-5.49-3.57-8-.63-13.73,2.52-9.75,5.34-15.84,23.72-26.68,26.21-3.85.89-12.67-15.07-13.7-21.32-1.53-9.32,2.52-27.51-8.4-36.85-9.24-7.91-21.44-3.68-25.45-16.3-7-22,13.45-38.48,23.4-42.34,15.17-5.88,37.13-5.1,43.51-14.23l.95-27.7.69-20.19,18.31-.81h2.19l18.31.81.69,20.19.95,27.7c6.38,9.13,28.34,8.35,43.52,14.23,9.95,3.86,30.39,20.37,23.4,42.34-4,12.62-16.22,8.39-25.46,16.3-10.91,9.34-6.86,27.53-8.4,36.85-1,6.25-9.85,22.21-13.7,21.32-10.84-2.49-16.92-20.87-26.68-26.21-5.74-3.15-8.24-6.09-13.72-2.52"/><path class="cls-2" d="M370.86,314.74s31.77,11.4,41.17-10.8l-1.28-37.4H371.94Z"/><path class="cls-3" d="M378.42,268.3a10.73,10.73,0,0,0,2.51,1.2,33.9,33.9,0,0,0,12.23,1.68,33.07,33.07,0,0,0,11.43-1.9,11.54,11.54,0,0,0,3.31-1.78"/><path class="cls-1" d="M357.38,352.49c-4.3,21.54-18,24.69-25.91,30.89-12.62,9.85-29.26,38.17-39.71,50.2-4.93,5.67-18.47,17-27.07,9.22l-3.84-2.51c-10.65-10.56.89-21.37,5.12-27.29,8.62-12,28.34-34.48,34.89-47.78,4.89-9.91,7.65-20.68,23.11-29.78,0,0,15.3-10.15,26.26-3,7,4.59,8.93,11.18,7.15,20.05Z"/><path class="cls-1" d="M282.54,441.07c9.87-13.63,2.2-17.66-.77-23.21-3.2-6-46.59-56.06-58-69.93-6.47-7.83-9.7-12.17-14.7-8.78-4.55,3.08-.6,12.74.92,16.55,3.34,8.4,44.22,75.79,48,81.74C265.94,449.83,279.59,445.15,282.54,441.07Z"/><path class="cls-1" d="M198.83,316.33c-8.25-2.59-20-7.34-20-7.34s7.75,7.42,9.24,9.36c1.21,1.59,3.12,4.78,3.12,4.78l3.73,7.63c-5.48.85-7.54,2-14.1,2.47-5.05.38-16.44-2.58-21.24-4.68-2.62-1.15-6.88-5.88-9.65-6.29-2-.28-7.12,2.84-7.12,2.84L154,335.35s19.56,9.8,26.31,12.41c7.21,2.8,22.3,6.84,29.83,7,2.43,0,7.21.06,9.94-4.23,2.36-3.69.42-8-1-10.59C216.91,335.85,199.19,316.44,198.83,316.33Z"/><path class="cls-1" d="M433.05,354c4.3,21.54,18,24.69,25.91,30.89,12.62,9.84,29.26,38.17,39.71,50.2,4.93,5.67,18.47,17,27.07,9.21h0c10.65-10.56,3-23.87-1.28-29.79-8.62-12-28.34-34.49-34.89-47.78-4.89-9.91-7.65-20.68-23.11-29.78,0,0-15.3-10.16-26.26-3-7,4.6-8.93,11.19-7.15,20.06Z"/><polyline class="cls-4" points="463.82 572.06 442.07 439.92 458.96 384.91 496.15 372.89 477.07 338.34 390.09 349.95 311.38 334.3 286.17 366.84 327.58 389.22 339.52 451.24 329.46 567.96"/><rect class="cls-5" x="716.51" y="506.89" width="112.53" height="211.16"/><path class="cls-6" d="M327.59,389.22c5.55-1.1,61.58,6.9,65.57,8.23S459,384.91,459,384.91l-6.6,21.5L394,416.76l-61.75-9.08-4.66-18.46"/><path class="cls-1" d="M526.45,434.27c-3.9-14.54-15.19-11.82-21.43-11-6.72.91-68.8,24.07-85.8,29.94-9.6,3.33-14.79,4.84-13.37,10.71,1.31,5.34,11.74,5,15.83,4.92,38.52-.84,67.55-3.41,93.38-16.44C532,443.87,527.45,438,526.45,434.27Z"/><path class="cls-1" d="M379.39,453.45c-7.6,4.14-19.14,9.26-19.14,9.26s5.85,4.62,8.28,4.9c2,.23,10.47-4,10.47-4l15.1,2.61c-3.2,4.54-10.84,6.8-15,11.87-3.23,3.89-13.27,10-18.12,12-2.64,1.09-9,.86-11.23,2.58-1.57,1.21-2.9,7.08-2.9,7.08l15.09-.87s20.64-7.25,27.21-10.29c7-3.25,20.41-11.29,25.75-16.61,1.72-1.71,5.05-5.13,3.87-10.08-1-4.26-5.44-5.83-8.31-6.66"/></svg>