<svg id="Calque_9" data-name="Calque 9" xmlns="http://www.w3.org/2000/svg" xmlns:xlink="http://www.w3.org/1999/xlink" viewBox="0 0 788 1005"><defs><style>.cls-1{fill:none;}.cls-2{clip-path:url(#clip-path);}.cls-3{fill:#90573a;}.cls-4{clip-path:url(#clip-path-2);}.cls-5{fill:#5b0052;}.cls-6{fill:#3e0045;}.cls-7{fill:#6f412a;}</style><clipPath id="clip-path"><rect class="cls-1" x="304.61" y="265.87" width="89.39" height="188.13"/></clipPath><clipPath id="clip-path-2"><polygon class="cls-1" points="394 265.87 394 453.99 484.82 455.89 484.82 267.76 394 265.87"/></clipPath></defs><g class="cls-2"><path class="cls-3" d="M407,423.55c9.32,6.07,19.31,30.22,30.15,32.71,3.85.89,11.58-4.54,13.7-7.88,7.72-12.11,4-46.15,14.9-55.49,9.24-7.91,31.44-3.39,32-36.67.32-20.24-23.29-29.89-29.07-32a24.61,24.61,0,0,1-2.75-1.16s-48.07,9.12-48.85-39.22l-.21-15.66L393.5,270l-18.32.81L374.49,291l-.94,27.7c-6.38,9.13-28.35,9.35-43.52,15.23-9.95,3.86-30.39,19.37-23.4,41.34,4,12.62,16.22,8.39,25.46,16.3,10.91,9.34,6.86,27.53,8.4,36.85,1,6.25,9.85,22.21,13.7,21.32,10.84-2.49,16.92-20.87,26.68-26.21,2.87-1.57,8-2.47,13.18-2.52S404.3,421.76,407,423.55Z"/></g><g class="cls-4"><path class="cls-3" d="M381.55,421.18c-9.32,6.07-19.31,30.23-30.15,32.72-3.85.88-11.57-4.55-13.7-7.88-7.72-12.11-4-46.16-14.9-55.5-9.24-7.9-31.44-3.38-32-36.67-.32-20.24,23.29-29.89,29.07-31.94a26.63,26.63,0,0,0,2.75-1.16s48.07,9.11,48.86-39.23l.2-15.65,23.37,1.79,18.32.8.69,20.19.94,27.7c6.38,9.14,28.35,10.35,43.52,16.23C468.51,336.44,489,351,482,372.93c-4,12.61-16.22,8.39-25.46,16.29-10.91,9.34-6.86,27.53-8.39,36.86-1,6.25-9.86,22.2-13.71,21.31-10.84-2.49-16.92-20.86-26.67-26.21C402,418,387,417.61,381.55,421.18Z"/></g><path class="cls-3" d="M443.32,355.41c1.62,21.9,14.79,26.71,21.92,33.84,11.31,11.32,25.66,42.09,34.28,55.49,4.06,6.32,15.84,19.46,25.47,13h0c12-8.92,6.34-23.2,3-29.67-6.8-13.14-25.27-39.07-30.14-53.08-3.63-10.43-5-21.46-19.27-32.39,0,0-13.94-11.95-25.69-6.2-7.56,3.69-10.24,10-9.56,19Z"/><path class="cls-3" d="M522.51,429.92c13.4,6.88,9.86,18.8,7.72,24.72-2.31,6.38-37.88,61.86-46.89,77.42-5.09,8.79-7.57,13.61-13.06,11.09-5-2.3-4.92-7.19-1.81-16.48,15.81-47.31,15.84-55.48,31.76-88.16C507,424.61,519.09,428.16,522.51,429.92Z"/><rect class="cls-1" x="716.51" y="506.89" width="112.53" height="211.16"/><path class="cls-3" d="M353.45,360.92c-4.31,21.54-18,24.69-25.92,30.89-12.61,9.84-29.26,38.17-39.71,50.2-4.93,5.67-18.46,17-27.07,9.21h0c-10.65-10.56-2.95-23.87,1.29-29.79,8.61-12,28.33-34.49,34.89-47.78,4.88-9.91,7.64-20.68,23.1-29.78,0,0,15.31-10.16,26.26-3,7,4.6,8.93,11.19,7.16,20.06Z"/><path class="cls-3" d="M270.36,449.86c15-1.18,14.4-12.77,14.71-19.06C285.4,424,274,358.75,271.32,341c-1.51-10.05-2-15.44-8.08-15.1-5.49.3-7.6,10.56-7.73,14.66-1.48,44.39-1.48,55-.92,94.81C254.86,454.32,266.52,450.16,270.36,449.86Z"/><path class="cls-3" d="M285.42,314.68a6.93,6.93,0,0,1,3.4-3c2.52-1,6.23-2.35,5.95-1.09-.43,1.9-7.23,19.44-7.23,19.44s-10.71,6.46-15.2,17.09c-1,2.3-15.06.89-15.06.89l-1-7.44-12.46-23.84-1.47-29.44a2.15,2.15,0,0,1,1.84-2.22h0a2.13,2.13,0,0,1,2.4,1.79l4.62,21-3.12-33.13a3,3,0,0,1,2.55-3.1l.25,0a3,3,0,0,1,3.3,2.32l4.38,28-.73-28.46a3,3,0,0,1,2.56-3.16h0a3,3,0,0,1,3.34,2.53l4,29.36,7.55-8.71c2-.27,10.48,4.19,10.48,4.19.48,1,3.82,9.93,3.82,9.93l-3.31-.3a5.36,5.36,0,0,1-4.42-3.18l-.27-.61-2.91-.46-3.68,9.6,2.95,9.12,4.48-1.71Z"/><path class="cls-5" d="M288.67,372.67l34.46,36.78L332.25,396l11.1,104.13h102L456.5,389.22l14.89,26.67L509.84,388l-31.2-50.46-37.92-11.75S406,337.86,394,337.52c-10.74-.29-41-12.78-41-12.78l-36.48,12.54-27.81,35.39"/><path class="cls-3" d="M436.13,540.24s-1.52-3.92-.7-4.61,15.42-7.72,16.23-7.46,15.79.15,16.9,0,11.36,8.33,10.91,9-11.18,23.12-12.81,23.55-7.41,3.91-8.22,3.65S440,551.18,440,551.18l2-8Z"/><rect class="cls-6" x="338.48" y="484.72" width="110.61" height="15.45"/><path class="cls-7" d="M373.51,316.67s31.77,11.4,41.17-10.81l-1.27-37.4H374.59Z"/></svg>