<svg xmlns="http://www.w3.org/2000/svg" viewBox="0 0 788 1005"><defs><style>.cls-1{fill:#90573a;}.cls-2{fill:#6f412a;}.cls-3{fill:#d68f72;}.cls-4{fill:none;}.cls-5{fill:#4e6566;}</style></defs><g id="Calque_9" data-name="Calque 9"><path class="cls-1" d="M393,419.09c-5.48-3.57-8-.62-13.73,2.52-9.75,5.35-15.83,23.72-26.67,26.21-3.85.89-12.68-15.06-13.71-21.31-1.53-9.33,2.52-27.52-8.39-36.86-9.24-7.9-21.45-3.68-25.46-16.29-7-22,13.45-38.49,23.4-42.35,15.17-5.88,37.14-5.09,43.52-14.23l.94-27.7.69-20.19,18.32-.8h2.18l18.32.8.69,20.19.94,27.7c6.38,9.14,28.35,8.35,43.52,14.23,9.95,3.86,30.39,20.37,23.4,42.35-4,12.61-16.22,8.39-25.46,16.29-10.91,9.34-6.86,27.53-8.39,36.86-1,6.25-9.86,22.2-13.71,21.31-10.84-2.49-16.92-20.86-26.67-26.21-5.74-3.14-8.25-6.09-13.73-2.52"/><path class="cls-2" d="M372.51,317.1s31.77,11.39,41.17-10.81l-1.27-37.4H373.59Z"/><path class="cls-3" d="M354.82,354c-17.5,22.72-64.1,60.87-76.1,71.36-5.66,4.94-20.62,14.3-28.08,5.42h0c-9.1-11.92.35-24.05,5.35-29.34,10.18-10.74,32.79-30.28,41.1-42.56,6.19-9.15,10.4-19.44,27-26.34,0,0,16.55-8,26.43.62,6.34,5.51,7.31,12.3,4.34,20.84Z"/><path class="cls-1" d="M259.44,426.72c14.87,2.34,17-9.08,18.73-15.12,1.9-6.52,6-72.65,7.5-90.57.87-10.12,1.6-15.48-4.35-16.56-5.41-1-9.74,8.54-10.93,12.46-11.43,37.66-14.42,46.38-22.91,92C244,427.6,255.63,426.12,259.44,426.72Z"/><rect class="cls-4" x="716.51" y="506.89" width="112.53" height="211.16"/><path class="cls-1" d="M284.57,322.22s11.09-5.36,12.52-7,8.39-10.19,9.76-11.25,11.19-5.75,10.39-6.77c-.32-.41-1.08-1.21-1.88-2a5.59,5.59,0,0,0-5.82-1.39l-2.53.86a13.6,13.6,0,0,0-5,3.06L296.47,303l2.29-16.39,6.81-19.75a3.18,3.18,0,0,0-1.4-3.79h0a3.19,3.19,0,0,0-4.56,1.56l-8.45,21.05,3.15-26a3.53,3.53,0,0,0-3.08-3.92h0a3.53,3.53,0,0,0-3.92,3.08l-3.37,27.83-1.41-26.78a3.49,3.49,0,0,0-3.85-3.29h0a3.49,3.49,0,0,0-3.11,3.54l.5,25.27-4.46-15.92a3.4,3.4,0,0,0-4.53-2.23h0a3.39,3.39,0,0,0-2.09,3.69l2.92,18.1-1.43,24.72,2.88,6.63Z"/><path class="cls-3" d="M436.69,349.73c1.65,19.75,14.8,24.07,21.92,30.49,11.29,10.2,24.34,37.38,33.24,49.3,4.19,5.61,16.22,17.23,25.68,11.22h0c11.83-8.27,3.61-23.7.13-29.46-7.08-11.72-31.61-63.28-45.82-73.12,0,0-13.92-10.77-25.64-5.58-7.53,3.33-10.19,9-9.51,17.15Z"/><path class="cls-1" d="M517.43,417.7c-9.66-5.69-16.72,2.7-21.81,10.75-3.62,5.74-33.09,64.95-41.32,80.94-4.64,9-7.35,13.72-2.26,17,4.63,3,13.8-5,16.36-8.2,26.94-33.71,45-48.33,54.61-75.6C529.35,424.67,520.75,419.65,517.43,417.7Z"/><path class="cls-5" d="M284.42,337.52s-19-4.36-21,2.38S242.06,427,242.06,427s16,17.49,21.18,15.39,58.89-54.9,62.43-52.47,14,58.11,14.29,61.51,2.59,34.11,2.59,34.11h99.69s.67-37.42.84-40.23S458.76,383,461.8,386.79,492.58,434,492.58,434L461,492.79l19.17,14.1,42.13-49.25,7.6-26.26L475,336.14l-24.71-9.41-39.17-10.38s-13.31,17.36-42.08,0h0l-51.77,14.81-35.37,41.37,2.51-35"/></g><g id="Calque_10" data-name="Calque 10"><path class="cls-5" d="M334.85,488.46h0c0-6.46,6.92-13.4,6.06-24.92H442.65c-.22,11.52,7.52,18.46,7.52,24.92h0a11.7,11.7,0,0,1-11.7,11.71H346.56A11.71,11.71,0,0,1,334.85,488.46Z"/><path class="cls-1" d="M400.39,503.59l14.18-6.73,24.69-2.6,15.9,16.13,8.34-3s4.74,10.76,2.45,12.81c-3.5,3.14-7.8,6.91-11.05,6.82-5.24-.15-18.29-10.25-18.29-10.25l-11,3.53s-8.27,5.54-8.75,5.74c-4.21,1.68-15.13-7.74-15.13-7.74l10.86-10.57,10-5.87-7,1.09s-7.63,3.89-8.36,3.85C405.68,506.74,400.39,503.59,400.39,503.59Z"/></g></svg>