<svg id="Calque_9" data-name="Calque 9" xmlns="http://www.w3.org/2000/svg" viewBox="0 0 488 223.85"><defs><style>.cls-1{fill:#90573a;}.cls-2{fill:#6f412a;}.cls-3{fill:none;stroke:#6d3b25;stroke-linecap:round;stroke-miterlimit:10;stroke-width:2px;}.cls-4{fill:#6999aa;}.cls-5{fill:#427887;}</style></defs><path class="cls-1" d="M241.35,152.13c-5.49-3.57-8-.63-13.73,2.52-9.75,5.34-15.84,23.72-26.68,26.21-3.85.88-12.67-15.07-13.7-21.32-1.53-9.32,2.52-27.51-8.4-36.85-9.24-7.91-21.44-3.69-25.45-16.3-7-22,13.45-38.49,23.4-42.34C192,58.17,213.92,59,220.3,49.82l.95-27.7.69-20.19,18.31-.81h2.19l18.31.81.69,20.19.95,27.7c6.38,9.13,28.34,8.35,43.52,14.23,9.95,3.85,30.39,20.37,23.4,42.34-4,12.61-16.22,8.39-25.46,16.3-10.91,9.34-6.86,27.53-8.4,36.85-1,6.25-9.85,22.2-13.7,21.32-10.84-2.49-16.92-20.87-26.68-26.21-5.74-3.15-8.24-6.09-13.72-2.52"/><path class="cls-2" d="M220.86,50.13S252.63,61.53,262,39.32L260.75,1.93H221.94Z"/><path class="cls-3" d="M228.42,3.69a10.73,10.73,0,0,0,2.51,1.2,34.13,34.13,0,0,0,12.23,1.68,33,33,0,0,0,11.43-1.91,11.54,11.54,0,0,0,3.31-1.78"/><path class="cls-1" d="M207.38,87.88c-4.3,21.54-18,24.69-25.91,30.89-12.62,9.84-29.26,38.17-39.71,50.2-4.93,5.67-18.47,17-27.07,9.21l-3.84-2.5c-10.65-10.56.89-21.37,5.12-27.29,8.62-12,28.34-34.48,34.89-47.78,4.89-9.91,7.65-20.68,23.11-29.78,0,0,15.3-10.15,26.26-3,7,4.59,8.93,11.18,7.15,20Z"/><path class="cls-1" d="M132.54,176.46c9.87-13.63,2.2-17.67-.77-23.21-3.2-6-46.59-56.06-58-69.93C67.26,75.49,64,71.14,59,74.54c-4.55,3.08-.6,12.74.92,16.55,3.34,8.4,44.22,75.79,48,81.74C115.94,185.22,129.59,180.54,132.54,176.46Z"/><path class="cls-1" d="M48.83,51.72c-8.25-2.59-19.95-7.34-19.95-7.34s7.75,7.42,9.24,9.36c1.21,1.58,3.12,4.77,3.12,4.77L45,66.14c-5.48.85-7.54,2-14.1,2.47C25.82,69,14.43,66,9.63,63.94,7,62.79,2.75,58.05,0,57.65c-2-.28-7.12,2.84-7.12,2.84L4,70.74s19.56,9.8,26.31,12.41c7.21,2.8,22.3,6.84,29.83,7,2.43,0,7.21.06,9.94-4.23,2.36-3.69.42-8-1-10.59C66.91,71.24,49.19,51.83,48.83,51.72Z"/><path class="cls-1" d="M283.05,89.41c4.3,21.53,18,24.69,25.91,30.89,12.62,9.84,29.26,38.16,39.71,50.2,4.93,5.67,18.47,17,27.07,9.21h0c10.65-10.56,2.95-23.87-1.28-29.79-8.62-12-28.34-34.49-34.89-47.79-4.89-9.9-7.65-20.68-23.11-29.77,0,0-15.3-10.16-26.26-3-7,4.6-8.93,11.19-7.15,20.06Z"/><polyline class="cls-4" points="313.82 307.45 292.07 175.3 308.96 120.3 346.15 108.28 327.07 73.73 240.09 85.34 161.38 69.69 136.17 102.23 177.59 124.61 189.53 186.63 179.46 303.35"/><path class="cls-5" d="M177.59,124.61c5.55-1.1,61.58,6.9,65.57,8.23S309,120.3,309,120.3l-6.6,21.49L244,152.15l-61.75-9.09-4.66-18.45"/><path class="cls-1" d="M376.45,169.66c-3.9-14.54-15.19-11.82-21.43-11-6.72.91-68.8,24.06-85.8,29.94-9.6,3.32-14.79,4.84-13.37,10.71,1.31,5.34,11.74,5,15.83,4.92,38.52-.84,67.55-3.41,93.38-16.45C382,179.26,377.45,173.38,376.45,169.66Z"/><path class="cls-1" d="M229.39,188.84c-7.6,4.14-19.14,9.26-19.14,9.26s5.85,4.62,8.28,4.9c2,.23,10.47-4,10.47-4l15.1,2.61c-3.2,4.53-10.84,6.8-15,11.86-3.23,3.9-13.27,10-18.12,12-2.64,1.08-9,.86-11.23,2.57-1.57,1.22-2.9,7.09-2.9,7.09l15.09-.87s20.64-7.26,27.21-10.3c7-3.24,20.41-11.28,25.75-16.6,1.72-1.71,5.05-5.13,3.87-10.08-1-4.26-5.44-5.83-8.31-6.66"/></svg>