<svg xmlns="http://www.w3.org/2000/svg" viewBox="0 0 788 1005"><defs><style>.cls-1{fill:#90573a;}.cls-2{fill:#6f412a;}.cls-3{fill:#7c8e7b;}.cls-4{fill:#423632;}</style></defs><g id="Calque_9" data-name="Calque 9"><path class="cls-1" d="M394,418.61c-5.48-3.57-8-.62-13.73,2.52-9.75,5.35-15.83,23.72-26.67,26.21-3.85.89-1-16.3-2-22.55-1.54-9.33-9.17-26.28-20.08-35.62-9.24-7.9-14.07-3.57-18.08-16.18-7-22,6.07-38.6,16-42.46,15.17-5.88,37.14-5.09,43.52-14.23l.94-27.7.69-20.19,18.32-.8h2.18l18.32.8.69,20.19.94,27.7c6.38,9.14,36,3.72,48.27,14.4,2.63,2.28,15.78,17.35,43.46,91.08,4.66,12.39-41-40.51-50.27-32.61-10.91,9.34-6.86,27.53-8.39,36.86-1,6.25-9.86,22.2-13.71,21.31-10.84-2.49-16.92-20.86-26.67-26.21C402,418,399.48,415,394,418.61"/><path class="cls-2" d="M370.76,322s36.7,44.44,46.1,22.24l-3.45-75.87H374.59Z"/><path class="cls-3" d="M441.81,496.2c6.52-28,27.43-164.65,19.21-169.47-15.17-8.91-22.6-12.22-38-14.09-11.07-1.34-18.67,28-28.75,28.92-6.31.58-24-29.1-29.61-28a183.59,183.59,0,0,0-41.83,13.19c-3.66,19.24,7.21,144.8,13.83,172.58"/><path class="cls-1" d="M343.3,344.31c8.65,17.83-.45,28.25-3.29,37.41-4.51,14.54-1.86,44.57-3.43,59.36-.74,7-1.14,13.56-12.34,13.22h0c-14.39-1.08-19.22-9-19.17-15.74.11-13.69-.82-73.7,6.37-89.41,0,0,2.2-13.22,14.92-14.74,8.18-1,13.37,2.56,16.94,9.9Z"/><path class="cls-1" d="M319,444.61c-.42-16.54,1.31-15.67,8.59-19.15,10.32-4.94,66.54-1.68,84.25-4.8,10-1.76,15.28-3,16.89,2.86,1.45,5.31-7.53,10.79-11.45,12-38.61,11.86-59.85,18.29-88.77,18.78C325.14,454.36,319.05,448.46,319,444.61Z"/><path class="cls-1" d="M456,421.18a82.36,82.36,0,0,1,13.69-8.59s-4.16-2.68-6.8-2.57c-2.15.08-11.67,4.47-11.67,4.47h0c16.32-23.91,25.17-43.35,26.15-46.21.7-2-1.58-8.12-1.58-8.12s-16.32,22.58-21.3,28.61c-16.94,20.53-25.39,25.08-39.18,30.66-2.43,1-1.15,15,4.11,13.42,1.84-.57,11.94,1.53,14.79,0C445.6,426.84,455.67,421.42,456,421.18Z"/><path class="cls-4" d="M339.92,476.76H444.1a0,0,0,0,1,0,0v23.41a0,0,0,0,1,0,0H339.92a5.07,5.07,0,0,1-5.07-5.07V481.82A5.07,5.07,0,0,1,339.92,476.76Z"/><path class="cls-1" d="M390.71,305l14.34-1,20.41,4.74,21.35,21.87S459,353.2,455.7,354.33c-5,1.75-17.88-11.28-21.43-12.56-5.73-2.07-12.21-10.39-12.21-10.39l-13.46-.65s-9.86,4.63-10.46,4.64c-5.27.08-13.53-10.15-13.53-10.15l14.24-11.42,12.44.42L404,310.3s-7.37,1-8.16.65C394.09,310.28,390.71,305,390.71,305Z"/><path class="cls-1" d="M502.53,431.1c9.25-6.65,4.5-16.84-.77-25-3.75-5.84-45.75-58.68-57-73.2-6.35-8.2-9.52-12.74-14.63-9.34-4.65,3.08,4.28,15.48,6.14,19.24,19.67,39.62,20.11,62.33,41.1,83C491.15,439.32,499.35,433.39,502.53,431.1Z"/><path class="cls-3" d="M340,381.72s-.68-24.48-14.87-51L349.46,322,376.9,371Z"/></g><g id="Calque_10" data-name="Calque 10"><path class="cls-3" d="M332.85,495.1V469.44l115.32-6.36v32a5.07,5.07,0,0,1-5.07,5.07H337.92A5.07,5.07,0,0,1,332.85,495.1Z"/></g></svg>