<svg id="Calque_9" data-name="Calque 9" xmlns="http://www.w3.org/2000/svg" viewBox="0 0 488 223.85"><defs><style>.cls-1{fill:#90573a;}.cls-2{fill:#6f412a;}.cls-3{fill:#72615b;}</style></defs><path class="cls-1" d="M203.38,87.54c-4.3,21.53-18,24.68-25.91,30.88-12.61,9.85-29.26,38.17-39.71,50.2-4.93,5.67-18.47,17-27.07,9.22h0C100,167.28,107.74,154,112,148c8.61-12,28.33-34.48,34.89-47.78,4.88-9.91,7.64-20.68,23.1-29.78,0,0,15.3-10.15,26.26-3,7,4.59,8.93,11.18,7.15,20.06Z"/><path class="cls-1" d="M280.79,87.54c4.3,21.53,18,24.68,25.91,30.88,12.62,9.85,29.26,38.17,39.71,50.2,4.93,5.67,18.47,17,27.07,9.22h0c10.66-10.56,2.95-23.88-1.28-29.8-8.62-12-28.34-34.48-34.89-47.78-4.88-9.91-7.65-20.68-23.11-29.78,0,0-15.3-10.15-26.26-3-7,4.59-8.93,11.18-7.15,20.06Z"/><path class="cls-1" d="M356.21,163.61c3.39-14.67,14.77-12.35,21-11.73,6.75.68,69.61,21.63,86.8,26.91,9.71,3,15,4.3,13.74,10.22-1.11,5.39-11.57,6-15.65,5.48-44.11-5.12-54.62-6.69-93.89-13.14C349.5,178.27,355.34,167.36,356.21,163.61Z"/><path class="cls-1" d="M465.75,179.22s9.05-8.36,11.13-9.08,12.55-4.09,14.05-5,9.44-8.31,10.09-7.19c.27.45.74,1.45,1.21,2.49a5.6,5.6,0,0,1-.84,5.92l-1.73,2.05A13.6,13.6,0,0,1,495,172l-7,3.19,16.1,3.86,20.87.89a3.17,3.17,0,0,1,3,2.69h0a3.18,3.18,0,0,1-3.12,3.67l-22.69.17L527.54,193a3.52,3.52,0,0,1,2.53,4.3h0a3.52,3.52,0,0,1-4.3,2.52l-27.14-7,24.42,11.1a3.49,3.49,0,0,1,1.64,4.79h0a3.49,3.49,0,0,1-4.43,1.61l-23.33-9.71,13.18,10a3.39,3.39,0,0,1,.42,5h0a3.37,3.37,0,0,1-4.19.59l-15.79-9.33L467,199.15l-5.13-5.1Z"/><path class="cls-1" d="M129.82,163.51c-3.39-14.67-14.76-12.34-21-11.72-6.76.68-69.61,21.63-86.81,26.9-9.71,3-15,4.31-13.74,10.23,1.12,5.39,11.58,6,15.65,5.48,44.12-5.12,54.62-6.69,93.9-13.14C136.54,178.18,130.69,167.27,129.82,163.51Z"/><path class="cls-1" d="M19.44,179.22s-9-8.36-11.13-9.08-12.55-4.09-14-5-9.44-8.31-10.1-7.19c-.26.45-.73,1.45-1.2,2.49a5.6,5.6,0,0,0,.83,5.92l1.73,2.05A13.54,13.54,0,0,0-9.78,172l7,3.19L-18.91,179l-20.88.89a3.17,3.17,0,0,0-3,2.69h0a3.18,3.18,0,0,0,3.12,3.67l22.69.17L-42.35,193a3.54,3.54,0,0,0-2.53,4.3h0a3.53,3.53,0,0,0,4.3,2.52l27.14-7-24.41,11.1a3.49,3.49,0,0,0-1.65,4.79h0a3.5,3.5,0,0,0,4.43,1.61l23.34-9.71-13.19,10a3.39,3.39,0,0,0-.42,5h0a3.39,3.39,0,0,0,4.2.59l15.78-9.33,23.52-7.72,5.13-5.1Z"/><path class="cls-1" d="M244,154.05c-5.48-3.57-8-.62-13.73,2.52-9.75,5.34-15.83,23.72-26.67,26.21-3.85.89-12.68-15.06-13.71-21.32-1.53-9.32,2.52-27.51-8.39-36.85-9.24-7.91-21.45-3.68-25.46-16.29-7-22,13.45-38.49,23.4-42.35,15.17-5.88,37.14-5.09,43.52-14.23L223.9,24l.69-20.19L242.91,3h2.18l18.32.81L264.1,24l.94,27.7c6.38,9.14,28.35,8.35,43.52,14.23,9.95,3.86,30.39,20.37,23.4,42.35-4,12.61-16.22,8.38-25.46,16.29-10.91,9.34-6.86,27.53-8.39,36.85-1,6.26-9.86,22.21-13.71,21.32-10.84-2.49-16.92-20.87-26.67-26.21-5.74-3.14-8.25-6.09-13.73-2.52"/><path class="cls-2" d="M223.51,52.06s31.77,11.39,41.17-10.81l-1.27-37.4H224.59Z"/><path class="cls-3" d="M197.13,59.06c1.58,0-12,3.77-12,3.77.33,15.08-3.63,61.78-3.63,61.78s.86,65.07-2,86.51c-1.61,11.92-11.68,46.68-11.68,46.68a24.45,24.45,0,0,0,23.91,29.57l107.85.06a20.92,20.92,0,0,0,20-27s-11.93-36-14.61-48.31c-2.71-12.49.48-83.47.48-83.47l-3.93-66.1-14-3.51C275.72,62.43,250.21,73,247.1,72.91c-3.95-.07-50-13.85-50-13.85"/></svg>