<svg id="Calque_9" data-name="Calque 9" xmlns="http://www.w3.org/2000/svg" xmlns:xlink="http://www.w3.org/1999/xlink" viewBox="0 0 488 223.85"><defs><style>.cls-1,.cls-5{fill:none;}.cls-2{fill:#90573a;}.cls-3{clip-path:url(#clip-path);}.cls-4{fill:#7a754b;}.cls-5{stroke:#6d3b25;stroke-linecap:round;stroke-miterlimit:10;stroke-width:2px;}.cls-6{fill:#bdb15c;}.cls-7{fill:#6f412a;}.cls-8{fill:#aa9d5e;}</style><clipPath id="clip-path"><polygon class="cls-1" points="236.53 -0.67 240.09 189.38 329.48 189.38 325.92 -0.67 236.53 -0.67"/></clipPath></defs><path class="cls-2" d="M44.9,79.06c12.76,5.44,8.25-12.4,9-16.65.55-3.32-9-16.55-9-16.55L33.74,30.39S29.21,27,27.53,26s-13-8.64-13-8.64L7.69,6.49l-4.15,7,3.63,7.56,7.56,8.75L.35,31.18-4.5,40.66l8.72,24L23.48,67.7l9.46-2.76Z"/><g class="cls-3"><path class="cls-4" d="M227.64,156.57c-9.32,6.07-19.31,30.22-30.15,32.72-3.85.88-11.57-4.55-13.7-7.88-7.72-12.12-4-46.16-14.9-55.5-9.24-7.91-31.44-3.38-32-36.67C136.61,69,160.22,59.35,166,57.29a22.87,22.87,0,0,0,2.75-1.16s48.07,9.12,48.86-39.22l.2-15.65L241.18,3l18.32.81L260.19,24l.94,27.7c6.38,9.14,28.35,8.35,43.52,14.23,10,3.86,30.39,20.37,23.4,42.35-4,12.61-16.22,8.38-25.46,16.29-10.91,9.34-6.86,27.53-8.39,36.85-1,6.26-9.86,22.21-13.71,21.32-10.84-2.49-16.92-20.87-26.67-26.21C248.08,153.43,233.12,153,227.64,156.57Z"/></g><path class="cls-5" d="M231.66-2a50.15,50.15,0,0,0,7,1.35c1.65,0,7.05-1.73,7.05-1.73"/><path class="cls-5" d="M228.42,3.69a10.73,10.73,0,0,0,2.51,1.2,34.13,34.13,0,0,0,12.23,1.68,33,33,0,0,0,11.43-1.91,11.54,11.54,0,0,0,3.31-1.78"/><path class="cls-6" d="M199.83,88.2c-4.31,21.53-18,24.68-25.91,30.88-12.62,9.85-29.26,38.17-39.72,50.2-4.92,5.67-18.46,17-27.07,9.22h0c-10.65-10.56-2.95-23.88,1.29-29.79,8.62-12,28.33-34.49,34.89-47.79C148.19,91,151,80.24,166.42,71.14c0,0,15.3-10.15,26.26-3,7,4.59,8.92,11.18,7.15,20.06Z"/><path class="cls-6" d="M218.6,41.11h43l.29,11.14,60.66,18.89,35.19,70.35L365.87,170l-48.26,48.74L303,223.85c-2.28-.1-3.51-18.4-5.29-24.1-.55-1.73,30.33-35,27.3-39.1s-17.35-36.07-17.35-36.07-7.11,33.47-6.49,35.83,6.11,73.73,6.11,73.73L303,245.83s5,20.21,4.66,22.3c-.45,2.51-127.83.32-127.28-2.95,1.87-11,5.53-25.44,5.53-25.44s-6.43-9.93-6.06-11.78c1.62-8.1,8.15-49.89,7.47-56.92s-8.16-49.75-9.73-46.43-54.74,61.23-62.42,64.77S37.59,84,37.43,87.54s2-6.27,2-6.27l-4.93-11.1L54.08,55.7l4.8,7.38c.46.82,11.77,3.75,9.38,2.51C66.6,64.73,121,132,121,132l36.13-59.92s62.48-16,61.16-20.71Z"/><rect class="cls-6" x="216.39" y="33.22" width="47.65" height="9.9" rx="3.23"/><rect class="cls-7" x="219.16" y="-3.28" width="40.61" height="36.5"/><polygon class="cls-8" points="303.74 189.25 303 223.85 317.61 218.72 312.26 181.14 303.74 189.25"/></svg>