<svg id="Calque_9" data-name="Calque 9" xmlns="http://www.w3.org/2000/svg" xmlns:xlink="http://www.w3.org/1999/xlink" viewBox="0 0 488 480.49"><defs><style>.cls-1,.cls-10,.cls-8{fill:none;}.cls-2{clip-path:url(#clip-path);}.cls-3{fill:#87b6c7;}.cls-4{clip-path:url(#clip-path-2);}.cls-5{fill:#d68f72;}.cls-6{fill:#83b5c6;}.cls-7{fill:#6999aa;}.cls-8{stroke:#69a;}.cls-10,.cls-8{stroke-linecap:round;stroke-miterlimit:10;stroke-width:2px;}.cls-9{fill:#69a;}.cls-10{stroke:#6399aa;}</style><clipPath id="clip-path"><polygon class="cls-1" points="248.8 -12.92 231.99 108.52 185.86 108.52 185.86 -12.92 248.8 -12.92"/></clipPath><clipPath id="clip-path-2"><polygon class="cls-1" points="248.8 -12.92 231.99 108.52 276.39 121.05 309.38 4.17 248.8 -12.92"/></clipPath></defs><g id="_Repetition_miroir_" data-name="&lt;Repetition miroir&gt;"><g class="cls-2"><path class="cls-3" d="M277.58-3c11.53,6.66,16.28,11.58,18.27,18.58,1.62,5.66.18,32.37-.49,38.49-1.57,14.37-29.9,39.92-42.27,50.45-12.58,10.71-5.66-3.47-20.8-3.68-17-.24-48.69-45.24-46.3-59.5,1-6.08,8.08-34.41,11.17-39.42C201-4.27,206.88-7.72,219.79-11a72.61,72.61,0,0,1,28.86-.87S264.39-10.61,277.58-3Z"/></g></g><g id="_Repetition_miroir_2" data-name="&lt;Repetition miroir&gt;"><g class="cls-4"><path class="cls-3" d="M218.41-11.19c-12.9,3.28-18.81,6.73-22.63,12.91-3.09,5-9,31.11-10,37.18-2.39,14.27,17.93,46.55,27,60,9.2,13.72,6.39-1.8,21,2.11,16.48,4.4,59.15-30.32,60.72-44.69.67-6.12,1.58-35.31,0-41-2-7-6.74-11.92-18.27-18.58a72.72,72.72,0,0,0-27.55-8.68S233.18-14.93,218.41-11.19Z"/></g></g><path class="cls-3" d="M184.37,263.14c1.21,10.94,8.45,19.21,16.94,19.38h0c8.12.16,15.06-7.14,16.58-17.43,0,0,8.81-73.39,9-99.72,0-6.23-1.58-24.89-1.58-24.89L221.39,97s-2.75-20.48-19.52-23c-19.32-2.9-19.65,10.51-19.65,10.51s-6.18,69-6,90.9C176.46,195.57,184.37,263.14,184.37,263.14Z"/><path class="cls-3" d="M322.24,255c.76,11-4.87,20.41-13.19,22.1h0c-8,1.61-16.1-4.33-19.44-14.18,0,0-21.83-70.61-26.76-96.48-1.16-6.12-2.91-24.77-2.91-24.77L256,98.21s-1-20.64,15.08-26.13c18.48-6.32,21.22,6.81,21.22,6.81s18.46,66.82,22.17,88.36C317.9,187.1,322.24,255,322.24,255Z"/><path class="cls-5" d="M201.25,245.78c-9.22.21-14.6,5.29-16,13.45,0,0-1.46,36.38-1.7,51.71-.38,24.57,2.47,74.71,6.47,98.93.88,5.3,2.76,21.33,2.76,21.33a8.92,8.92,0,0,0,9,8h0a8.92,8.92,0,0,0,8.23-8.66s.8-18.53,1.41-24.68c2.22-22.27,9.49-66.55,10-89,.31-13.48-2.3-54.79-2.3-54.79-1-13.57-10-16.24-17.93-16.37Z"/><path class="cls-5" d="M306.44,238.15c9.12-1.34,15.14,2.86,17.66,10.82,0,0,7.51,34.32,9.9,49.68,3.84,24.61,3.37,122,3.37,122,.07,4.89.24,11.39-4.22,11.92h0c-4.39.52-9.78-1.47-10.71-6.15,0,0-22.24-91-25.91-113.39-2.21-13.5-5.46-55.42-5.46-55.42-.91-13.8,7.6-18,15.37-19.44Z"/><path class="cls-6" d="M199.53,422.79h0a10.91,10.91,0,0,0-9.62,6.64h0c-4,8.94-20.83,20.91-20.83,20.91a11.33,11.33,0,0,0-3.79,10.6h0l41.09-.24,2.31-.74a6.2,6.2,0,0,0,4.1-6.5l-2.36-21.7A11.08,11.08,0,0,0,199.53,422.79Z"/><path class="cls-7" d="M166.47,460.72h0a6.47,6.47,0,0,1,5.13-7.5L196,449.3a6.13,6.13,0,0,1,6.86,4.9l1.41,6.16Z"/><path class="cls-8" d="M190.87,431.38s3.17-2.52,6-2.6a14,14,0,0,1,6.84,2.06"/><path class="cls-8" d="M188,436.27s3.23-2.43,6.07-2.43a14,14,0,0,1,6.79,2.26"/><path class="cls-3" d="M331.57,428.07c4.24-2.13,3.75-6.12,5.38-8.42,1-1.4,5.21-3.06,5.91-1.39,8.1,19.24,42.79,28.39,42.79,28.39,3.78,3.11,4.8,7.64,4.32,12.46h0s-29.75,11-45.67.46c-3.19-2.11-11.33-2.81-11.33-2.81s-14.52.56-13.92-5.37l1.17-26.72C321.11,418.2,324.29,431.71,331.57,428.07Z"/><path class="cls-9" d="M390.32,459c.23-7.83-3.45-12.53-4.61-12.28-1.69.37-4.32,2.31-6,2.77-2.65.75-10.82.34-10.82.34-2.09-.16-3.7,2.6-3.7,6.36l.2,7.49s5,.6,16.63-2.28C384,461,390.32,459,390.32,459Z"/><path class="cls-10" d="M347.72,428.28a17.72,17.72,0,0,1-6,2.19"/><path class="cls-10" d="M351.75,432.37a18.41,18.41,0,0,1-5.9,2.69"/><path class="cls-3" d="M178.46,65.92c-2.9,5.3-16.33,330.17-12.07,330.17s62.22,13.68,60.51,11.12,26.18-260,26.18-260L242.26,27.74s-55.12-.13-53.79,1.4Z"/><path class="cls-3" d="M306.82,63.82c3.25,5.1,38.48,328.32,34.22,328.61s-61.16,17.83-59.63,15.16-38.85-258.07-38.85-258.07L240.6,30s54.81-13,53.59-11.4Z"/></svg>