<svg id="Calque_9" data-name="Calque 9" xmlns="http://www.w3.org/2000/svg" xmlns:xlink="http://www.w3.org/1999/xlink" viewBox="0 0 788 1005"><defs><style>.cls-1,.cls-9{fill:none;}.cls-2{clip-path:url(#clip-path);}.cls-3{fill:#82514e;}.cls-4{clip-path:url(#clip-path-2);}.cls-5{fill:#5e6d70;}.cls-6{fill:#9e6754;}.cls-7{fill:#c67870;}.cls-8{fill:#43516d;}.cls-9{stroke:#43516d;stroke-miterlimit:10;}</style><clipPath id="clip-path"><rect class="cls-1" x="339" y="474.82" width="54.78" height="119.65"/></clipPath><clipPath id="clip-path-2"><rect class="cls-1" x="393.79" y="474.82" width="54.78" height="119.65"/></clipPath></defs><g id="_Repetition_miroir_" data-name="&lt;Repetition miroir&gt;"><g class="cls-2"><path class="cls-3" d="M423.65,479.7c12.34,5,17.72,9.24,20.65,15.89,2.37,5.39,4.61,32,4.79,38.2.41,14.45-24.14,43.64-34.95,55.77-11,12.33-6.08-2.66-21.11-.8-16.92,2.1-54.44-38.13-54-52.59.17-6.15,3.28-35.19,5.65-40.58,2.94-6.65,8.31-10.88,20.65-15.89a72.52,72.52,0,0,1,28.47-4.83S409.54,474,423.65,479.7Z"/></g></g><g id="_Repetition_miroir_2" data-name="&lt;Repetition miroir&gt;"><g class="cls-4"><path class="cls-3" d="M363.92,479.7c-12.33,5-17.71,9.24-20.65,15.89-2.37,5.39-4.61,32-4.78,38.2-.42,14.45,24.14,43.64,34.95,55.77,11,12.33,6.08-2.66,21.1-.8,16.93,2.1,54.44-38.13,54-52.59-.18-6.15-3.29-35.19-5.66-40.58-2.93-6.65-8.31-10.88-20.65-15.89a72.52,72.52,0,0,0-28.47-4.83S378,474,363.92,479.7Z"/></g></g><path class="cls-5" d="M340.37,726.23c1.21,10.93,8.45,19.2,16.94,19.37h0c8.12.16,15.06-7.14,16.58-17.43,0,0,8.81-73.39,9-99.72.05-6.23-1.58-24.89-1.58-24.89l-3.93-43.46s-2.75-20.48-19.52-23c-19.32-2.9-19.65,10.51-19.65,10.51s-6.18,69-6,90.9C332.46,658.65,340.37,726.23,340.37,726.23Z"/><path class="cls-5" d="M472.49,719.21c.46,11-5.43,20.27-13.8,21.73h0c-8,1.39-16-4.77-19-14.71,0,0-19.87-71.19-24.08-97.19-1-6.15-2.22-24.84-2.22-24.84l-2.72-43.55s-.39-20.66,15.8-25.7c18.65-5.81,21,7.4,21,7.4s16.6,67.3,19.71,88.93C470,651.22,472.49,719.21,472.49,719.21Z"/><path class="cls-6" d="M357.25,708.87c-9.22.2-14.6,5.28-16,13.44,0,0-1.46,36.38-1.7,51.71C339.18,798.59,342,848.73,346,873c.88,5.3,2.76,21.33,2.76,21.33a8.91,8.91,0,0,0,9,8h0a8.92,8.92,0,0,0,8.23-8.65s.8-18.54,1.41-24.68c2.22-22.28,9.49-66.56,10-89,.31-13.48-2.3-54.79-2.3-54.79-1-13.57-10-16.24-17.93-16.36Z"/><path class="cls-6" d="M457.17,701.93c9.14-1.09,15.05,3.28,17.34,11.31,0,0,6.56,34.52,8.53,49.93,3.16,24.72,0,122,0,122-.07,4.89-.07,11.39-4.55,11.8h0c-4.4.4-9.73-1.74-10.53-6.45,0,0-19.71-91.56-22.76-114.06-1.84-13.55-3.92-55.55-3.92-55.55-.53-13.82,8.1-17.78,15.91-19Z"/><path class="cls-7" d="M357.53,885.87h0a10.93,10.93,0,0,0-9.62,6.64h0c-4,8.94-20.83,20.92-20.83,20.92A11.3,11.3,0,0,0,323.29,924h0l41.09-.24,2.31-.74a6.2,6.2,0,0,0,4.1-6.5l-2.36-21.7A11.09,11.09,0,0,0,357.53,885.87Z"/><path class="cls-8" d="M324.47,923.8h0a6.47,6.47,0,0,1,5.13-7.5L354,912.38a6.14,6.14,0,0,1,6.86,4.9l1.41,6.16Z"/><path class="cls-9" d="M348.87,894.46s3.17-2.52,6-2.6a14,14,0,0,1,6.84,2.06"/><path class="cls-9" d="M346,899.35s3.23-2.43,6.07-2.42a14,14,0,0,1,6.79,2.25"/><path class="cls-7" d="M477,892.47c4.29-2,3.92-6,5.61-8.27,1-1.36,5.29-2.9,5.94-1.21,7.57,19.45,42,29.56,42,29.56,3.69,3.21,4.58,7.77,4,12.58h0s-30,10.13-45.66-.81c-3.14-2.2-11.25-3.12-11.25-3.12s-14.53.15-13.77-5.76l1.92-26.68C466.84,882.33,469.64,895.91,477,892.47Z"/><path class="cls-8" d="M534.88,925.07c.45-7.82-3.09-12.63-4.27-12.4-1.69.32-4.38,2.18-6.05,2.6-2.68.67-10.83,0-10.83,0-2.09-.22-3.77,2.49-3.88,6.25v7.49s5,.74,16.69-1.82C528.47,926.81,534.88,925.07,534.88,925.07Z"/><path class="cls-9" d="M493.16,893.13a17.81,17.81,0,0,1-6.09,2"/><path class="cls-9" d="M497.07,897.33a18.42,18.42,0,0,1-6,2.53"/><path class="cls-3" d="M371.05,869h0C370.57,864.68,391,594.47,391,594.47h11.57s23.07,137.41,26.35,146,20.18,123.73,20.18,123.73,36.56-1.36,38,2.51,0-106.92,0-106.92l-21.74-139L455,558.45l-9.62-63.78S339.52,482,339.52,492.79,333,534.88,333,534.88l-3.5,119,3.83,220.22L371.05,869"/><rect class="cls-8" x="325.31" y="856.68" width="56.65" height="18.74" transform="translate(-77.99 36.11) rotate(-5.27)"/><rect class="cls-8" x="442" y="847.4" width="52.08" height="21.65" transform="translate(-76.79 46.57) rotate(-5.27)"/></svg>