<svg id="Calque_9" data-name="Calque 9" xmlns="http://www.w3.org/2000/svg" viewBox="0 0 488 480.49"><defs><style>.cls-1{fill:#5e6d70;}.cls-2{fill:#d68f72;}.cls-3{fill:#2d3138;}.cls-4,.cls-5{fill:none;stroke-linecap:round;stroke-miterlimit:10;stroke-width:2px;}.cls-4{stroke:#69a;}.cls-5{stroke:#6399aa;}.cls-6{fill:#77625e;}</style></defs><path class="cls-1" d="M322.49,256.13c.46,11-5.43,20.27-13.8,21.72h0c-8,1.4-16-4.76-19-14.7,0,0-19.87-71.19-24.08-97.19-1-6.15-2.22-24.84-2.22-24.84l-2.72-43.55s-.39-20.66,15.8-25.7c18.65-5.81,21,7.39,21,7.39s16.6,67.31,19.71,88.94C320,188.14,322.49,256.13,322.49,256.13Z"/><path class="cls-2" d="M207.25,245.78c-9.22.21-14.6,5.29-16,13.45,0,0-1.46,36.38-1.7,51.71-.38,24.57,2.47,74.71,6.47,98.93.88,5.3,2.76,21.33,2.76,21.33a8.92,8.92,0,0,0,9,8h0a8.92,8.92,0,0,0,8.23-8.66s.8-18.53,1.41-24.68c2.22-22.27,9.49-66.55,10-89,.31-13.48-2.3-54.79-2.3-54.79-1-13.57-10-16.24-17.93-16.37Z"/><path class="cls-2" d="M318.17,238.85c9.14-1.09,15.05,3.28,17.34,11.31,0,0,6.56,34.52,8.53,49.93,3.16,24.71,0,122,0,122-.07,4.89-.07,11.39-4.55,11.8h0c-4.4.4-9.73-1.74-10.53-6.45,0,0-19.71-91.56-22.76-114.06-1.84-13.55-3.92-55.55-3.92-55.55-.53-13.82,8.1-17.78,15.91-19Z"/><path class="cls-3" d="M207.53,422.79h0a10.91,10.91,0,0,0-9.62,6.64h0c-4,8.94-20.83,20.91-20.83,20.91a11.33,11.33,0,0,0-3.79,10.6h0l41.09-.24,2.31-.74a6.2,6.2,0,0,0,4.1-6.5l-2.36-21.7A11.08,11.08,0,0,0,207.53,422.79Z"/><path class="cls-3" d="M174.47,460.72h0a6.47,6.47,0,0,1,5.13-7.5L204,449.3a6.13,6.13,0,0,1,6.86,4.9l1.41,6.16Z"/><path class="cls-4" d="M198.87,431.38s3.17-2.52,6-2.6a14,14,0,0,1,6.84,2.06"/><path class="cls-4" d="M196,436.27s3.23-2.43,6.07-2.43a14,14,0,0,1,6.79,2.26"/><path class="cls-3" d="M338,429.39c4.29-2,3.92-6,5.61-8.27,1-1.36,5.29-2.9,5.94-1.21,7.57,19.45,42,29.56,42,29.56,3.69,3.21,4.58,7.76,4,12.57h0s-30,10.14-45.66-.8c-3.14-2.2-11.25-3.12-11.25-3.12s-14.53.15-13.77-5.76l1.92-26.68C327.84,419.24,330.64,432.83,338,429.39Z"/><path class="cls-3" d="M395.88,462c.45-7.82-3.09-12.63-4.27-12.41-1.69.32-4.38,2.19-6.05,2.61-2.68.66-10.83,0-10.83,0-2.09-.22-3.77,2.49-3.88,6.25V466s5,.74,16.69-1.82C389.47,463.73,395.88,462,395.88,462Z"/><path class="cls-5" d="M354.16,430.05a17.81,17.81,0,0,1-6.09,2"/><path class="cls-5" d="M358.07,434.25a18.42,18.42,0,0,1-6,2.53"/><path class="cls-6" d="M223.32,16.22s-27.19,4-30,14.73c-1.87,7.26-11.1,388.21-11.1,388.21s20,11.42,40.81,0c12.25-6.73,24.58-215.15,36.76-224.49,10.81-8.28,56.55,222.54,68.82,218.26,33-11.51,31.63-11.73,31.63-11.73C360.27,336.32,309.73,73,310.79,80c-2-12.62-8.07-38.82-15.31-50.12h0c-1.41-5.57-10.9-14.47-17.73-14.65l-54.43,1"/></svg>