<svg id="Calque_9" data-name="Calque 9" xmlns="http://www.w3.org/2000/svg" xmlns:xlink="http://www.w3.org/1999/xlink" viewBox="0 0 488 480.49"><defs><style>.cls-1,.cls-11,.cls-9{fill:none;}.cls-2{clip-path:url(#clip-path);}.cls-3{fill:#72615b;}.cls-4{clip-path:url(#clip-path-2);}.cls-5{fill:#5e6d70;}.cls-6{fill:#d68f72;}.cls-7{fill:#427887;}.cls-8{fill:#6999aa;}.cls-9{stroke:#69a;}.cls-11,.cls-9{stroke-linecap:round;stroke-miterlimit:10;stroke-width:2px;}.cls-10{fill:#69a;}.cls-11{stroke:#6399aa;}</style><clipPath id="clip-path"><rect class="cls-1" x="184.81" y="6.98" width="59.13" height="129.16"/></clipPath><clipPath id="clip-path-2"><rect class="cls-1" x="243.94" y="6.98" width="59.13" height="129.16"/></clipPath></defs><g id="_Répétition_miroir_" data-name="&lt;Répétition miroir&gt;"><g class="cls-2"><path class="cls-3" d="M276.18,12.25c13.31,5.41,19.12,10,22.28,17.16,2.57,5.81,5,34.58,5.17,41.23.45,15.6-26.06,47.11-37.72,60.2C254,144.15,259.34,128,243.13,130c-18.28,2.27-58.77-41.16-58.32-56.77.19-6.64,3.54-38,6.1-43.8,3.17-7.19,9-11.75,22.29-17.16A78.37,78.37,0,0,1,243.93,7S260.94,6.06,276.18,12.25Z"/></g></g><g id="_Répétition_miroir_2" data-name="&lt;Répétition miroir&gt;"><g class="cls-4"><path class="cls-3" d="M211.7,12.25c-13.31,5.41-19.12,10-22.29,17.16-2.56,5.81-5,34.58-5.16,41.23-.45,15.6,26.05,47.11,37.72,60.2,11.87,13.31,6.57-2.87,22.78-.86,18.28,2.27,58.77-41.16,58.32-56.77-.19-6.64-3.54-38-6.11-43.8-3.16-7.19-9-11.75-22.28-17.16A78.37,78.37,0,0,0,244,7S226.94,6.06,211.7,12.25Z"/></g></g><path class="cls-5" d="M190.37,263.14c1.21,10.94,8.45,19.21,16.94,19.38h0c8.12.16,15.06-7.14,16.58-17.43,0,0,8.81-73.39,9-99.72,0-6.23-1.58-24.89-1.58-24.89L227.39,97s-2.75-20.48-19.52-23c-19.32-2.9-19.65,10.51-19.65,10.51s-6.18,69-6,90.9C182.46,195.57,190.37,263.14,190.37,263.14Z"/><path class="cls-5" d="M322.49,256.13c.46,11-5.43,20.27-13.8,21.72h0c-8,1.4-16-4.76-19-14.7,0,0-19.87-71.19-24.08-97.19-1-6.15-2.22-24.84-2.22-24.84l-2.72-43.55s-.39-20.66,15.8-25.7c18.65-5.81,21,7.39,21,7.39s16.6,67.31,19.71,88.94C320,188.14,322.49,256.13,322.49,256.13Z"/><path class="cls-6" d="M207.25,245.78c-9.22.21-14.6,5.29-16,13.45,0,0-1.46,36.38-1.7,51.71-.38,24.57,2.47,74.71,6.47,98.93.88,5.3,2.76,21.33,2.76,21.33a8.92,8.92,0,0,0,9,8h0a8.92,8.92,0,0,0,8.23-8.66s.8-18.53,1.41-24.68c2.22-22.27,9.49-66.55,10-89,.31-13.48-2.3-54.79-2.3-54.79-1-13.57-10-16.24-17.93-16.37Z"/><path class="cls-6" d="M307.17,238.85c9.14-1.09,15.05,3.28,17.34,11.31,0,0,6.56,34.52,8.53,49.93,3.16,24.71,0,122,0,122-.07,4.89-.07,11.39-4.55,11.8h0c-4.4.4-9.73-1.74-10.53-6.45,0,0-19.71-91.56-22.76-114.06-1.84-13.55-3.92-55.55-3.92-55.55-.53-13.82,8.1-17.78,15.91-19Z"/><path class="cls-7" d="M207.53,422.79h0a10.91,10.91,0,0,0-9.62,6.64h0c-4,8.94-20.83,20.91-20.83,20.91a11.33,11.33,0,0,0-3.79,10.6h0l41.09-.24,2.31-.74a6.2,6.2,0,0,0,4.1-6.5l-2.36-21.7A11.08,11.08,0,0,0,207.53,422.79Z"/><path class="cls-8" d="M174.47,460.72h0a6.47,6.47,0,0,1,5.13-7.5L204,449.3a6.13,6.13,0,0,1,6.86,4.9l1.41,6.16Z"/><path class="cls-9" d="M198.87,431.38s3.17-2.52,6-2.6a14,14,0,0,1,6.84,2.06"/><path class="cls-9" d="M196,436.27s3.23-2.43,6.07-2.43a14,14,0,0,1,6.79,2.26"/><path class="cls-7" d="M327,429.39c4.29-2,3.92-6,5.61-8.27,1-1.36,5.29-2.9,5.94-1.21,7.57,19.45,42,29.56,42,29.56,3.69,3.21,4.58,7.76,4,12.57h0s-30,10.14-45.66-.8c-3.14-2.2-11.25-3.12-11.25-3.12s-14.53.15-13.77-5.76l1.92-26.68C316.84,419.24,319.64,432.83,327,429.39Z"/><path class="cls-10" d="M384.88,462c.45-7.82-3.09-12.63-4.27-12.41-1.69.32-4.38,2.19-6.05,2.61-2.68.66-10.83,0-10.83,0-2.09-.22-3.77,2.49-3.88,6.25V466s5,.74,16.69-1.82C378.47,463.73,384.88,462,384.88,462Z"/><path class="cls-11" d="M343.16,430.05a17.81,17.81,0,0,1-6.09,2"/><path class="cls-11" d="M347.07,434.25a18.42,18.42,0,0,1-6,2.53"/><path class="cls-3" d="M187.61,31.79c-4,45.12-20.89,218.7-29.26,304.52-2.34,24.09,11.93,46.18,34.31,55.4.41.17.65.33.69.46.59,1.9,1.24,26.92,2.61,27s23,3.27,21.91,0,4.32-21.51,2.94-25.67c-.17-.52.21-.92,1-1.22,19-7.25,30.39-26.73,29.65-47l-7.9-215.63h0c-.38,1.5,12.6,142.72,17.49,225.39a38.51,38.51,0,0,0,43.53,36c2.47-.34,4.1-.43,4.38-.14.61.63,1.33,3.06,2,5.79a11.43,11.43,0,0,0,11.84,8.77h0a11.42,11.42,0,0,0,10.7-11.3c0-4.23.15-8.31.45-9.2,0-.15.27-.35.64-.6,20.56-14,29.93-39.59,24.82-63.93l-60-286.29A11.43,11.43,0,0,0,288.66,25L199.45,21.4A11.41,11.41,0,0,0,187.61,31.79Z"/></svg>