<?xml version="1.0" encoding="utf-8"?>
<!-- Generator: Adobe Illustrator 26.0.2, SVG Export Plug-In . SVG Version: 6.00 Build 0)  -->
<svg version="1.1" id="Calque_1" xmlns="http://www.w3.org/2000/svg" xmlns:xlink="http://www.w3.org/1999/xlink" x="0px" y="0px"
	 viewBox="0 0 788 1005" style="enable-background:new 0 0 788 1005;" xml:space="preserve">
<style type="text/css">
	.st0{fill:#C78D71;}
	.st1{fill:#814E3D;}
	.st2{fill:#CC5F46;}
	.st3{fill:#1E1E1E;}
</style>
<path class="st0" d="M454.5,101.5c-4.5-3.5-10.7-1.4-14.8,0.8l-0.4-20.6c0-21.5-20.7-39.7-42.2-39.7h-4.5
	c-21.5,0-42.2,18.2-42.2,39.7l-0.4,20.4c-4.1-2.1-10.1-4.1-14.5-0.6c-4.6,3.7,4.5,28.2,12.6,30c3.1,0.7,6.3-1.1,8.2-2.4
	c0.8,6.9,2.4,15.1,4.9,19.2c1.1,1.7,2.5,3.2,4,4.5c6.8,6.3,13.2,11.9,18.6,14c2.2,0.8,6.4,0.9,9.4,1.2h3.3c3-0.3,7.2-0.4,9.4-1.2
	c5.4-2.1,11.8-7.7,18.6-14c1.5-1.3,2.9-2.8,4-4.5c2.5-4.2,4.2-12.5,5-19.4c1.7,1.3,5.2,3.4,8.4,2.6
	C450,129.7,459.1,105.2,454.5,101.5z"/>
<path class="st1" d="M401.2,129.1c0,0-4.7,3.7-7.4,3.7c-2.7,0-7-3.6-7-3.6s5.4,0.7,7.2,0.7C395.8,129.9,401.2,129.1,401.2,129.1z"/>
<path class="st2" d="M352.9,106.5l-2.5-14c-0.2-3.2-0.1-6.7,1.5-9.6l11-21.9l32.9,3.7c0,0,32.8-1.8,33.3-1.5
	c0.4,0.4,5.2,11.4,8.2,18.4c1.6,3.6,2.1,7.7,1.5,11.7l-2.1,11.8v1.1c0,0,9.9-11,5.7-28.2c-1.5-6.4,1.1-23.5-8.1-35.2
	c-8.5-10.6-55.5-13.8-71-4.8c-6.4,3.7,0.1,13.8-10.4,27.7c-6,7.9-7.9,17.2-6.4,26.6C346.9,97.7,349.4,102.5,352.9,106.5L352.9,106.5
	z"/>
<path class="st3" d="M345.7,57.2c0,0,7.4-18.1,9.6-20.8c2.2-2.7,3.6-12.5,7.6-14.3c5.6-2.5,11.6,1.8,16.7,0.1c5-1.6,12.2-2.5,15-2.1
	c2.7,0.5,7.1,2.2,12,1.2c3.1-0.6,9.7,0.5,13.9,1.2c2.7,0.5,5.1,1.8,7,3.7c2.5,2.7,5.9,6.7,6.5,9.9c1.1,5.4,11.6,23,11.6,23
	L345.7,57.2z"/>
<path d="M345.7,83.7c0,0,14.4-10.6,20.7-13.9c6.3-3.3,28.1-4.8,28.1-4.8s24.3,3,28.3,4.8c8.6,4,20.1,12.7,20.1,12.7s1.2,1.7,1.9-1.1
	c0.7-2.8-0.8-2.7-0.1-5.7c0.6-3,2.2-13.4,1.9-17.5s-9.9-10.6-17.3-12s-24.8-4.1-34.8-3.9s-31.2,2.1-35.4,3.9
	c-4.2,1.8-13.7,5.2-14.5,7.7c-0.8,2.5-0.2,8.1,0,10.4c0.2,2.3-1,8.6-1.1,10.4C343.3,78.3,341.9,83.2,345.7,83.7z"/>
<path d="M349.7,135.2L349.7,135.2c-1.2,0-2.2-1-2.2-2.2v-4.1c0-1.2,1-2.2,2.2-2.2l0,0c1.2,0,2.2,1,2.2,2.2v4.1
	C351.9,134.2,350.9,135.2,349.7,135.2z"/>
</svg>
