<?xml version="1.0" encoding="utf-8"?>
<!-- Generator: Adobe Illustrator 26.0.2, SVG Export Plug-In . SVG Version: 6.00 Build 0)  -->
<svg version="1.1" id="Calque_1" xmlns="http://www.w3.org/2000/svg" xmlns:xlink="http://www.w3.org/1999/xlink" x="0px" y="0px"
	 viewBox="0 0 788 1005" style="enable-background:new 0 0 788 1005;" xml:space="preserve">
<style type="text/css">
	.st0{fill:#CC5F46;}
	.st1{fill:#C78D71;}
	.st2{fill:#814E3D;}
	.st3{fill:#7EA885;}
</style>
<g id="cheuveu_00000108998788533734626850000008218117161314605985_">
	<path class="st0" d="M349.7,99.9c0,0,0.1-21.3,1.7-26c2.3-6.4,6.9-17.3,13.3-19.6c6.7-2.5,24,1.8,31.2,1.9
		c6.8,0.1,20.5-5.5,26.9-3.1c4,1.4,9.1,9.4,10.9,13.3c3.3,7,5.9,35.1,5.9,35.1s4.1-26.6,2.3-34.5c-1.5-7-11-22.3-16.8-26.6
		s-20.6-6.4-27.7-7.1c-7.1-0.7-21.9,0.9-28.4,3.8c-6.2,2.8-15.8,13.4-19.2,19.3c-2.1,3.6-4.3,11.9-4.2,16
		C345.8,77.8,349.7,99.9,349.7,99.9z"/>
</g>
<path class="st1" d="M454.5,101.5c-4.5-3.5-10.7-1.4-14.8,0.8l-0.4-20.6c0-21.5-20.7-39.7-42.2-39.7h-4.5
	c-21.5,0-42.2,18.2-42.2,39.7l-0.4,20.4c-4.1-2.1-10.1-4.1-14.5-0.6c-4.6,3.7,4.5,28.2,12.6,30c3.1,0.7,6.3-1.1,8.2-2.4
	c0.8,6.9,2.4,15.1,4.9,19.2c1.1,1.7,2.5,3.2,4,4.5c6.8,6.3,13.2,11.9,18.6,14c2.2,0.8,6.4,0.9,9.4,1.2h3.3c3-0.3,7.2-0.4,9.4-1.2
	c5.4-2.1,11.8-7.7,18.6-14c1.5-1.3,2.9-2.8,4-4.5c2.5-4.2,4.2-12.5,5-19.4c1.7,1.3,5.2,3.4,8.4,2.6
	C450,129.7,459.1,105.2,454.5,101.5z"/>
<g id="cheuveu">
	<path class="st0" d="M350.5,105c0,0,0.6-20.7,2.2-25.2c2.2-6.2,6.7-16.8,12.9-19c6.5-2.4,23.3,1.7,30.3,1.8
		c6.6,0.1,19.9-5.3,26.1-3c3.9,1.4,8.8,9.1,10.6,12.9c3.2,6.8,6.6,36.5,6.6,36.5s3.1-28.2,1.4-35.9c-1.5-6.8-10.7-21.6-16.3-25.8
		s-20-6.2-26.9-6.9s-21.2,0.9-27.6,3.7c-6,2.7-15.3,13-18.6,18.7c-2,3.5-4.2,11.5-4.1,15.5C347.2,83.6,350.5,105,350.5,105z"/>
</g>
<path class="st2" d="M401.2,129c0,0-4.7,3.7-7.4,3.7c-2.7,0-7-3.6-7-3.6s5.4,0.7,7.2,0.7C395.8,129.8,401.2,129,401.2,129z"/>
<path class="st3" d="M357,80l12-4.3c14.9-5.3,31.8-5.5,46.8-0.6l14.8,4.9c2.8,0.9,5.9-0.4,6.7-2.8l1.1-7.3
	c0.9-3.2-7.8-12.7-15.4-17.7c-5.3-3.6-11.5-5.8-18.1-6.5c-6.2-0.7-12.4-0.7-18.6-0.2c-5.9,0.5-11.5,2.3-16.4,5.2
	c-9.5,5.4-22.6,19.5-21.6,22l2,4.8C351.2,79.8,354.3,81,357,80z"/>
<circle class="st3" cx="350.3" cy="126.3" r="2.7"/>
</svg>
