<?xml version="1.0" encoding="utf-8"?>
<!-- Generator: Adobe Illustrator 26.0.2, SVG Export Plug-In . SVG Version: 6.00 Build 0)  -->
<svg version="1.1" id="Calque_1" xmlns="http://www.w3.org/2000/svg" xmlns:xlink="http://www.w3.org/1999/xlink" x="0px" y="0px"
	 viewBox="0 0 200 200" style="enable-background:new 0 0 200 200;" xml:space="preserve">
<style type="text/css">
	.st0{fill:#C78D71;}
	.st1{fill:#814E3D;}
	.st2{fill:#CC5F46;}
	.st3{fill:#8E2210;}
</style>
<g>
	<path class="st0" d="M161,97.6c-4.5-3.5-10.7-1.4-14.8,0.8l-0.4-20.6c0-21.5-20.7-39.7-42.2-39.7h-4.5c-21.5,0-42.2,18.2-42.2,39.7
		l-0.4,20.4c-4.1-2.1-10.1-4.1-14.5-0.6c-4.6,3.7,4.5,28.2,12.6,30c3.1,0.7,6.3-1.1,8.2-2.4c0.8,6.9,2.4,15.1,4.9,19.2
		c1.1,1.7,2.5,3.2,4,4.5c6.8,6.3,13.2,11.9,18.6,14c2.2,0.8,6.4,0.9,9.4,1.2h3.3c3-0.3,7.2-0.4,9.4-1.2c5.4-2.1,11.8-7.7,18.6-14
		c1.5-1.3,2.9-2.8,4-4.5c2.5-4.2,4.2-12.5,5-19.4c1.7,1.3,5.2,3.4,8.4,2.6C156.5,125.8,165.6,101.3,161,97.6z"/>
	<path class="st1" d="M107.7,125.3c0,0-4.7,3.7-7.4,3.7c-2.7,0-7-3.6-7-3.6s5.4,0.7,7.2,0.7C102.3,126.1,107.7,125.3,107.7,125.3z"
		/>
	<g id="Calque_7_00000102517533513937852740000003620408865085819830_">
		<path class="st2" d="M60.1,103.7c0,0-0.6-17.5,0.9-22.9c2.1-7.5,6.6-20.5,12.7-23.2c6.4-2.9,23.1,2.1,29.9,2.2
			c6.5,0.1,19.6-6.4,25.8-3.7c3.8,1.7,8.8,11,10.5,15.6c3.1,8.2,2.2,29.1,2.2,29.1v1.9c1.6-0.6,3-1.3,4.4-2.4
			c2.2-14.8,4.7-48.1-9.9-57.1c-6.3-3.9-24.7-9.6-31.5-10.5C98.3,32,84.3,34,77.3,35.7c-7.2,1.7-9.2,6-15,11
			c-8.5,7.5-8.9,42.8-5.5,52.5L60.1,103.7z"/>
	</g>
	<circle class="st3" cx="55.8" cy="122.2" r="3"/>
</g>
</svg>
