<?xml version="1.0" encoding="utf-8"?>
<!-- Generator: Adobe Illustrator 26.0.2, SVG Export Plug-In . SVG Version: 6.00 Build 0)  -->
<svg version="1.1" id="Calque_1" xmlns="http://www.w3.org/2000/svg" xmlns:xlink="http://www.w3.org/1999/xlink" x="0px" y="0px"
	 viewBox="0 0 200 200" style="enable-background:new 0 0 200 200;" xml:space="preserve">
<style type="text/css">
	.st0{fill:#C78D71;}
	.st1{fill:#814E3D;}
	.st2{fill:#CC5F46;}
	.st3{fill:#1E1E1E;}
</style>
<path class="st0" d="M161.1,97.6c-4.5-3.5-10.7-1.4-14.8,0.8l-0.4-20.6c0-21.5-20.7-39.7-42.2-39.7h-4.5C77.7,38.1,57,56.3,57,77.8
	l-0.4,20.4c-4.1-2.1-10.1-4.1-14.5-0.6c-4.6,3.7,4.5,28.2,12.6,30c3.1,0.7,6.3-1.1,8.2-2.4c0.8,6.9,2.4,15.1,4.9,19.2
	c1.1,1.7,2.5,3.2,4,4.5c6.8,6.3,13.2,11.9,18.6,14c2.2,0.8,6.4,0.9,9.4,1.2h3.3c3-0.3,7.2-0.4,9.4-1.2c5.4-2.1,11.8-7.7,18.6-14
	c1.5-1.3,2.9-2.8,4-4.5c2.5-4.2,4.2-12.5,5-19.4c1.7,1.3,5.2,3.4,8.4,2.6C156.6,125.8,165.7,101.3,161.1,97.6z"/>
<path class="st1" d="M107.8,125.2c0,0-4.7,3.7-7.4,3.7c-2.7,0-7-3.6-7-3.6s5.4,0.7,7.2,0.7C102.4,126,107.8,125.2,107.8,125.2z"/>
<path class="st2" d="M59.5,102.6l-2.5-14c-0.2-3.2-0.1-6.7,1.5-9.6l11-21.9l32.9,3.7c0,0,32.8-1.8,33.3-1.5
	c0.4,0.4,5.2,11.4,8.2,18.4c1.6,3.6,2.1,7.7,1.5,11.7l-2.1,11.8v1.1c0,0,9.9-11,5.7-28.2c-1.5-6.4,1.1-23.5-8.1-35.2
	c-8.5-10.6-55.5-13.8-71-4.8C63.3,38,69.9,48.1,59.3,62c-6,7.9-7.9,17.2-6.4,26.6C53.5,93.8,56,98.6,59.5,102.6L59.5,102.6z"/>
<path class="st3" d="M52.3,53.3c0,0,7.4-18.1,9.6-20.8c2.2-2.7,3.6-12.5,7.6-14.3c5.6-2.5,11.6,1.8,16.7,0.1c5-1.6,12.2-2.5,15-2.1
	c2.7,0.5,7.1,2.2,12,1.2c3.1-0.6,9.7,0.5,13.9,1.2c2.7,0.5,5.1,1.8,7,3.7c2.5,2.7,5.9,6.7,6.5,9.9c1.1,5.4,11.6,23,11.6,23
	L52.3,53.3z"/>
<path d="M52.3,79.8c0,0,14.4-10.6,20.7-13.9c6.3-3.3,28.1-4.8,28.1-4.8s24.3,3,28.3,4.8c8.6,4,20.1,12.7,20.1,12.7s1.2,1.7,1.9-1.1
	s-0.8-2.7-0.1-5.7c0.6-3,2.2-13.4,1.9-17.5c-0.2-4.1-9.9-10.6-17.3-12s-24.8-4.1-34.8-3.9s-31.2,2.1-35.4,3.9S52,47.5,51.1,50
	c-0.8,2.5-0.2,8.1,0,10.4c0.2,2.3-1,8.6-1.1,10.4C49.9,74.4,48.5,79.3,52.3,79.8z"/>
<path d="M56.3,131.3L56.3,131.3c-1.2,0-2.2-1-2.2-2.2V125c0-1.2,1-2.2,2.2-2.2h0c1.2,0,2.2,1,2.2,2.2v4.1
	C58.5,130.3,57.5,131.3,56.3,131.3z"/>
</svg>
