<?xml version="1.0" encoding="utf-8"?>
<!-- Generator: Adobe Illustrator 26.0.2, SVG Export Plug-In . SVG Version: 6.00 Build 0)  -->
<svg version="1.1" id="Calque_1" xmlns="http://www.w3.org/2000/svg" xmlns:xlink="http://www.w3.org/1999/xlink" x="0px" y="0px"
	 viewBox="0 0 200 200" style="enable-background:new 0 0 200 200;" xml:space="preserve">
<style type="text/css">
	.st0{fill:#C78D71;}
	.st1{fill:#814E3D;}
	.st2{fill:#CC5F46;}
</style>
<g>
	<path class="st0" d="M160.9,97.8c-4.5-3.5-10.7-1.4-14.8,0.8L145.7,78c0-21.5-20.7-39.7-42.2-39.7H99c-21.5,0-42.2,18.2-42.2,39.7
		l-0.4,20.4c-4.1-2.1-10.1-4.1-14.5-0.6c-4.6,3.7,4.5,28.2,12.6,30c3.1,0.7,6.3-1.1,8.2-2.4c0.8,6.9,2.4,15.1,4.9,19.2
		c1.1,1.7,2.5,3.2,4,4.5c6.8,6.3,13.2,11.9,18.6,14c2.2,0.8,6.4,0.9,9.4,1.2h3.3c3-0.3,7.2-0.4,9.4-1.2c5.4-2.1,11.8-7.7,18.6-14
		c1.5-1.3,2.9-2.8,4-4.5c2.5-4.2,4.2-12.5,5-19.4c1.7,1.3,5.2,3.4,8.4,2.6C156.4,126,165.5,101.5,160.9,97.8z"/>
	<path class="st1" d="M107.6,125.5c0,0-4.7,3.7-7.4,3.7c-2.7,0-7-3.6-7-3.6s5.4,0.7,7.2,0.7S107.6,125.5,107.6,125.5z"/>
	<path class="st2" d="M56.7,103.5l-6.8-40.4c-0.3-2-0.1-4,0.8-5.8c4.1-8.6,18.8-32.5,53.1-31.7c34,0.8,45.5,21.2,48.6,28.7
		c0.7,1.6,0.9,3.4,0.6,5.2l-7,45l-3.5-35c-0.4-3.9-3.1-7.2-6.8-8.4c-12.1-3.8-40-10.4-67.4-1.9c-3.6,1.1-6.2,4.3-6.7,8.1L56.7,103.5
		z"/>
</g>
</svg>
