<?xml version="1.0" encoding="utf-8"?>
<!-- Generator: Adobe Illustrator 26.0.2, SVG Export Plug-In . SVG Version: 6.00 Build 0)  -->
<svg version="1.1" id="Calque_1" xmlns="http://www.w3.org/2000/svg" xmlns:xlink="http://www.w3.org/1999/xlink" x="0px" y="0px"
	 viewBox="0 0 788 1005" style="enable-background:new 0 0 788 1005;" xml:space="preserve">
<style type="text/css">
	.st0{fill:#C78D71;}
	.st1{fill:#CC5F46;}
	.st2{fill:#C15746;}
	.st3{fill:#814E3D;}
</style>
<path class="st0" d="M454.5,101.5c-4.5-3.5-10.7-1.4-14.8,0.8l-0.4-20.6c0-21.5-20.7-39.7-42.2-39.7h-4.5
	c-21.5,0-42.2,18.2-42.2,39.7l-0.4,20.4c-4.1-2.1-10.1-4.1-14.5-0.6c-4.6,3.7,4.5,28.2,12.6,30c3.1,0.7,6.3-1.1,8.2-2.4
	c0.8,6.9,2.4,15.1,4.9,19.2c1.1,1.7,2.5,3.2,4,4.5c6.8,6.3,13.2,11.9,18.6,14c2.2,0.8,6.4,0.9,9.4,1.2h3.3c3-0.3,7.2-0.4,9.4-1.2
	c5.4-2.1,11.8-7.7,18.6-14c1.5-1.3,2.9-2.8,4-4.5c2.5-4.2,4.2-12.5,5-19.4c1.7,1.3,5.2,3.4,8.4,2.6
	C450,129.7,459.1,105.2,454.5,101.5z"/>
<g id="cheuveu">
	<path class="st1" d="M368.3,59.2c-17.9-2.6-17.2-17.6-8.8-25.9C374,19,406.9,12.8,430,32.1c24.8,20.8,22.2,45.6,14.1,48.9
		c-2.5,1-3.1,22.4-4.5,21.3c-8.9-7-10-26.5-12-33.1c-2.5-8.1-3.8-22.7-38-13.2C387.1,56.7,370.8,59.6,368.3,59.2z"/>
	<path class="st1" d="M348.8,45.3c8.9-4.3,13.3,13,13.6,18.8c0.6,10-9.3,35.2-12.5,38.2s-7.1-3.4-7.2-3.9S328,55.3,348.8,45.3z"/>
	<path class="st2" d="M368.3,59.2c-1.1-0.6-10.5-21.3,17.1-22.3S446.1,52.6,449,66s-9.2,36.7-9.4,36.3s-3.1,2.5-8.9-11.4
		c-3.7-8.9-3.6-23.3-15.9-27.7S375,63.2,368.3,59.2z"/>
</g>
<path class="st3" d="M401.2,129.2c0,0-4.7,3.7-7.4,3.7c-2.7,0-7-3.6-7-3.6s5.4,0.7,7.2,0.7C395.8,130,401.2,129.2,401.2,129.2z"/>
</svg>
