<?xml version="1.0" encoding="utf-8"?>
<!-- Generator: Adobe Illustrator 26.0.2, SVG Export Plug-In . SVG Version: 6.00 Build 0)  -->
<svg version="1.1" id="Calque_1" xmlns="http://www.w3.org/2000/svg" xmlns:xlink="http://www.w3.org/1999/xlink" x="0px" y="0px"
	 viewBox="0 0 788 1005" style="enable-background:new 0 0 788 1005;" xml:space="preserve">
<style type="text/css">
	.st0{fill:none;stroke:#2E858E;stroke-width:3;stroke-miterlimit:10;}
	.st1{fill:#C78D71;}
	.st2{fill:#814E3D;}
	.st3{fill:#CC5F46;}
	.st4{fill:#2E858E;}
</style>
<path class="st0" d="M337.1,97.3c-1.2-3.7-1.8-7.6-1.8-11.6c0-25.9,26.7-47,59.7-47s59.7,21,59.7,47c0,4.2-0.7,8.1-2,12.1"/>
<path class="st1" d="M454.5,101.5c-4.5-3.5-10.7-1.4-14.8,0.8l-0.4-20.6c0-21.5-20.7-39.7-42.2-39.7h-4.5
	c-21.5,0-42.2,18.2-42.2,39.7l-0.4,20.4c-4.1-2.1-10.1-4.1-14.5-0.6c-4.6,3.7,4.5,28.2,12.6,30c3.1,0.7,6.3-1.1,8.2-2.4
	c0.8,6.9,2.4,15.1,4.9,19.2c1.1,1.7,2.5,3.2,4,4.5c6.8,6.3,13.2,11.9,18.6,14c2.2,0.8,6.4,0.9,9.4,1.2h3.3c3-0.3,7.2-0.4,9.4-1.2
	c5.4-2.1,11.8-7.7,18.6-14c1.5-1.3,2.9-2.8,4-4.5c2.5-4.2,4.2-12.5,5-19.4c1.7,1.3,5.2,3.4,8.4,2.6
	C450,129.7,459.1,105.2,454.5,101.5z"/>
<path class="st2" d="M401.2,129c0,0-4.7,3.7-7.4,3.7c-2.7,0-7-3.6-7-3.6s5.4,0.7,7.2,0.7C395.8,129.8,401.2,129,401.2,129z"/>
<path class="st3" d="M353,107.7l-2.5-14c-0.2-3.2-0.1-6.7,1.5-9.6l11-21.9l32.9,3.7c0,0,32.8-1.8,33.3-1.5
	c0.4,0.4,5.2,11.4,8.2,18.4c1.6,3.6,2.1,7.7,1.5,11.7l-0.2,11.6l-0.1,2.1c0,0,7.4-15,6.5-38.8c-0.3-6.4,0.5-13.6-8.7-25.3
	c-8.5-10.6-57.5-13.8-73-4.8c-5.6,3.3-16.9,8.8-18.9,20.7c-0.5,3.1-0.8,7.4-0.8,10.8c-0.2,7.7,1.7,14.7,2.9,22.7
	C347.1,98.9,349.5,103.7,353,107.7L353,107.7z"/>
<g>
	<path class="st4" d="M353.8,135.5l-2,0.5c-2.1,0.5-4.3-1-4.7-3.1l-6.4-31.6c-0.5-2.1,1-4.3,3.1-4.7l2-0.5c2.1-0.5,4.3,1,4.7,3.1
		l6.4,31.6C357.4,132.8,356,135,353.8,135.5z"/>
	<path class="st4" d="M346.7,133.3l-4.2,0.8c-2.1,0.5-4.3-1-4.7-3.1l-5-24.5c-0.5-2.1,1-4.3,3.1-4.7l4.2-0.8L346.7,133.3z"/>
	<path class="st4" d="M334.8,95l2.5-1.4c0.6-0.4,1.3,0,1.4,0.6l1.8,8.7c0.1,0.5-0.2,1-0.6,1.1l0,0c-0.5,0.1-0.8,0-1.1-0.5l-4.3-7.3
		C334.2,96,334.3,95.4,334.8,95z"/>
</g>
<g>
	<path class="st4" d="M436.2,135.5l2,0.5c2.1,0.5,4.3-1,4.7-3.1l6.4-31.6c0.5-2.1-1-4.3-3.1-4.7l-2-0.5c-2.1-0.5-4.3,1-4.7,3.1
		l-6.4,31.6C432.6,132.8,434,135,436.2,135.5z"/>
	<path class="st4" d="M443.3,133.3l4.2,0.8c2.1,0.5,4.3-1,4.7-3.1l5-24.5c0.5-2.1-1-4.3-3.1-4.7l-4.2-0.8L443.3,133.3z"/>
	<path class="st4" d="M455.3,95l-2.5-1.4c-0.6-0.4-1.3,0-1.4,0.6l-1.8,8.7c-0.1,0.5,0.2,1,0.6,1.1l0,0c0.5,0.1,0.8,0,1.1-0.5
		l4.3-7.3C455.9,96,455.8,95.4,455.3,95z"/>
</g>
<path class="st0" d="M350.9,134.8l-17.7,14.1c-3,2.4-2.4,7,1.1,8.6l12.1,5.3"/>
<circle class="st4" cx="350.9" cy="162.7" r="6.9"/>
</svg>
