<svg xmlns="http://www.w3.org/2000/svg" xmlns:xlink="http://www.w3.org/1999/xlink" viewBox="0 0 150 150"><defs><style>.cls-1{fill:none;}.cls-2{clip-path:url(#clip-path);}.cls-3{fill:#b8775c;}.cls-4{clip-path:url(#clip-path-2);}.cls-5{fill:#d48f72;}.cls-6{fill:#b87051;}.cls-7{clip-path:url(#clip-path-3);}.cls-8{fill:#6b3a25;}.cls-9{clip-path:url(#clip-path-4);}.cls-10{fill:#713d25;}</style><clipPath id="clip-path"><polygon class="cls-1" points="110.72 73.93 110.72 73.93 127.71 73.93 127.71 107.83 110.72 107.83 110.72 73.93"/></clipPath><clipPath id="clip-path-2"><polygon class="cls-1" points="39.28 73.93 39.28 73.93 22.29 73.93 22.29 107.83 39.28 107.83 39.28 73.93"/></clipPath><clipPath id="clip-path-3"><polygon class="cls-1" points="112.97 78.99 112.97 78.99 123.18 78.99 123.18 92.42 112.97 92.42 112.97 78.99"/></clipPath><clipPath id="clip-path-4"><polygon class="cls-1" points="35.75 78.99 35.75 78.99 25.55 78.99 25.55 92.42 35.75 92.42 35.75 78.99"/></clipPath></defs><g id="Calque_6" data-name="Calque 6"><g class="cls-2"><path class="cls-3" d="M110.72,106.87l3-28.25s6.56-7.84,12.25-3.25c3.78,3,.87,30.22-3.5,31.5C115,109.05,110.72,106.87,110.72,106.87Z"/></g><g class="cls-4"><path class="cls-3" d="M39.28,106.87l-3-28.25S29.72,70.78,24,75.37c-3.78,3-.87,30.22,3.5,31.5C35,109.05,39.28,106.87,39.28,106.87Z"/></g><path class="cls-5" d="M74.11,147.18c-2.55,0-9.87-1.25-9.87-1.25l-22.63-18.5-5.5-27-1.5-24.2V69.85A38.91,38.91,0,0,1,73.53,30.93H75a38.92,38.92,0,0,1,38.92,38.92v6.34l-1.5,24.2-5.5,27-22.64,18.5A101.62,101.62,0,0,1,74.11,147.18Z"/><path class="cls-6" d="M74.11,147.18c-2.55,0-9.87-1.25-9.87-1.25l-22.63-18.5-5.5-27,4.5,4.8,5.5,13.16L58,110.43l17.35,4.25,19.08-3.75,9.92,6.92,6-14.16,2-3.3-5.5,27-22.64,18.5A101.62,101.62,0,0,1,74.11,147.18Z"/><g class="cls-7"><path class="cls-8" d="M113.23,86.84c0-.24.63-1.58,4.76-5.15a12.3,12.3,0,0,1,4.74-2.7,2.17,2.17,0,0,1,.42,1.82c-.11.82-3.72,2.81-4.84,3.88A47.09,47.09,0,0,0,113,92.42Z"/></g><g class="cls-9"><path class="cls-8" d="M35.5,86.84c0-.24-.63-1.58-4.76-5.15A12.38,12.38,0,0,0,26,79a2.17,2.17,0,0,0-.42,1.82c.11.82,3.71,2.81,4.83,3.88a47.09,47.09,0,0,1,5.34,7.73Z"/></g><path class="cls-10" d="M59.55,46.83S72.63,53.53,100,60.32C113.57,63.68,113.2,82,113.2,82s-.78-1.48,6.14-8.08c4.74-4.53,4.63-36.21-8.93-43.93-9.93-5.65-26.26-7.67-38.65-6.87-14,.91-14.21,7.27-14.21,7.27s-13.2-1.72-17-.3C30.32,33.82,23.71,41.75,24.71,55.12,25.25,62.27,35.12,80,35.12,80s2.21-15,7.81-22.7A26,26,0,0,1,59.55,46.83Z"/></g></svg>