<svg xmlns="http://www.w3.org/2000/svg" xmlns:xlink="http://www.w3.org/1999/xlink" viewBox="0 0 150 150"><defs><style>.cls-1{fill:none;}.cls-2{clip-path:url(#clip-path);}.cls-3{fill:#b8775c;}.cls-4{clip-path:url(#clip-path-2);}.cls-5{fill:#d48f72;}.cls-6{fill:#b87051;}.cls-7{clip-path:url(#clip-path-3);}.cls-8{fill:#6b3a25;}.cls-9{clip-path:url(#clip-path-4);}.cls-10{fill:#6f3c25;}</style><clipPath id="clip-path"><polygon class="cls-1" points="113.58 73.93 113.58 73.93 130.58 73.93 130.58 107.83 113.58 107.83 113.58 73.93"/></clipPath><clipPath id="clip-path-2"><polygon class="cls-1" points="42.15 73.93 42.15 73.93 25.15 73.93 25.15 107.83 42.15 107.83 42.15 73.93"/></clipPath><clipPath id="clip-path-3"><polygon class="cls-1" points="115.83 78.99 115.83 78.99 126.04 78.99 126.04 92.42 115.83 92.42 115.83 78.99"/></clipPath><clipPath id="clip-path-4"><polygon class="cls-1" points="38.62 78.99 38.62 78.99 28.41 78.99 28.41 92.42 38.62 92.42 38.62 78.99"/></clipPath></defs><g id="Calque_5" data-name="Calque 5"><g class="cls-2"><path class="cls-3" d="M113.58,106.87l3-28.25s6.56-7.84,12.25-3.25c3.78,3,.87,30.22-3.5,31.5C117.85,109.05,113.58,106.87,113.58,106.87Z"/></g><g class="cls-4"><path class="cls-3" d="M42.15,106.87l-3-28.25s-6.56-7.84-12.25-3.25c-3.79,3-.87,30.22,3.5,31.5C37.88,109.05,42.15,106.87,42.15,106.87Z"/></g><path class="cls-5" d="M77,147.18c-2.54,0-9.86-1.25-9.86-1.25l-22.64-18.5-5.5-27-1.5-24.2V69.85A38.92,38.92,0,0,1,76.39,30.93h1.43a38.91,38.91,0,0,1,38.92,38.92v6.34l-1.5,24.2-5.5,27-22.63,18.5A101.92,101.92,0,0,1,77,147.18Z"/><path class="cls-6" d="M77,147.18c-2.54,0-9.86-1.25-9.86-1.25l-22.64-18.5-5.5-27,4.5,4.8L49,118.35l11.92-7.92,17.35,4.25,19.08-3.75,9.92,6.92,6-14.16,2-3.3-5.5,27-22.63,18.5A101.92,101.92,0,0,1,77,147.18Z"/><g class="cls-7"><path class="cls-8" d="M116.09,86.84c0-.24.63-1.58,4.76-5.15a12.3,12.3,0,0,1,4.74-2.7,2.17,2.17,0,0,1,.42,1.82c-.11.82-3.71,2.81-4.83,3.88a48,48,0,0,0-5.35,7.73Z"/></g><g class="cls-9"><path class="cls-8" d="M38.36,86.84c0-.24-.63-1.58-4.76-5.15A12.3,12.3,0,0,0,28.86,79a2.17,2.17,0,0,0-.42,1.82c.11.82,3.72,2.81,4.83,3.88a48,48,0,0,1,5.35,7.73Z"/></g></g><g id="Calque_6" data-name="Calque 6"><path class="cls-10" d="M37.9,88.73s.55-20.85,3.64-26.38c2-3.58,11.24-8.46,11.24-8.46s17.66,3.72,23.83,3.94c7.63.28,28.25-4.07,28.25-4.07s5.78,6.82,7.81,10.28c3.37,5.7,3.54,25.21,3.54,25.21s2.32-18.34,1.26-24.37c-.58-3.24-5.17-12.35-5.17-12.35s3.63-8,2.14-10.25c-5.92-9.09-14-7.66-17.46-11.38-1.83-1.95-5.49-8.71-5.49-8.71s-5.66,5.76-8.32,6.7c-6.3,2.22-20.68.59-27.24,2.19-6.17,1.51-16.84,6.47-18.5,14.08a9.31,9.31,0,0,0,2.73,9l-4.91,7.33Z"/></g></svg>