<svg xmlns="http://www.w3.org/2000/svg" xmlns:xlink="http://www.w3.org/1999/xlink" viewBox="0 0 150 150"><defs><style>.cls-1{fill:none;}.cls-2{clip-path:url(#clip-path);}.cls-3{fill:#b8775c;}.cls-4{clip-path:url(#clip-path-2);}.cls-5{fill:#d48f72;}.cls-6{fill:#b87051;}.cls-7{clip-path:url(#clip-path-3);}.cls-8{fill:#6b3a25;}.cls-9{clip-path:url(#clip-path-4);}.cls-10{fill:#713d25;}</style><clipPath id="clip-path"><polygon class="cls-1" points="110.72 73.93 110.72 73.93 127.71 73.93 127.71 107.83 110.72 107.83 110.72 73.93"/></clipPath><clipPath id="clip-path-2"><polygon class="cls-1" points="39.28 73.93 39.28 73.93 22.29 73.93 22.29 107.83 39.28 107.83 39.28 73.93"/></clipPath><clipPath id="clip-path-3"><polygon class="cls-1" points="112.97 78.99 112.97 78.99 123.18 78.99 123.18 92.42 112.97 92.42 112.97 78.99"/></clipPath><clipPath id="clip-path-4"><polygon class="cls-1" points="35.75 78.99 35.75 78.99 25.55 78.99 25.55 92.42 35.75 92.42 35.75 78.99"/></clipPath></defs><g id="Calque_6" data-name="Calque 6"><g class="cls-2"><path class="cls-3" d="M110.72,106.87l3-28.25s6.56-7.84,12.25-3.25c3.78,3,.87,30.22-3.5,31.5C115,109.05,110.72,106.87,110.72,106.87Z"/></g><g class="cls-4"><path class="cls-3" d="M39.28,106.87l-3-28.25S29.72,70.78,24,75.37c-3.78,3-.87,30.22,3.5,31.5C35,109.05,39.28,106.87,39.28,106.87Z"/></g><path class="cls-5" d="M74.11,147.18c-2.55,0-9.87-1.25-9.87-1.25l-22.63-18.5-5.5-27-1.5-24.2V69.85A38.91,38.91,0,0,1,73.53,30.93H75a38.92,38.92,0,0,1,38.92,38.92v6.34l-1.5,24.2-5.5,27-22.64,18.5A101.62,101.62,0,0,1,74.11,147.18Z"/><path class="cls-6" d="M74.11,147.18c-2.55,0-9.87-1.25-9.87-1.25l-22.63-18.5-5.5-27,4.5,4.8,5.5,13.16L58,110.43l17.35,4.25,19.08-3.75,9.92,6.92,6-14.16,2-3.3-5.5,27-22.64,18.5A101.62,101.62,0,0,1,74.11,147.18Z"/><g class="cls-7"><path class="cls-8" d="M113.23,86.84c0-.24.63-1.58,4.76-5.15a12.3,12.3,0,0,1,4.74-2.7,2.17,2.17,0,0,1,.42,1.82c-.11.82-3.72,2.81-4.84,3.88A47.09,47.09,0,0,0,113,92.42Z"/></g><g class="cls-9"><path class="cls-8" d="M35.5,86.84c0-.24-.63-1.58-4.76-5.15A12.38,12.38,0,0,0,26,79a2.17,2.17,0,0,0-.42,1.82c.11.82,3.71,2.81,4.83,3.88a47.09,47.09,0,0,1,5.34,7.73Z"/></g><path class="cls-10" d="M34.94,82.5s-5.49-10.83-6.55-14.66C26.45,60.83,30.22,52,30.22,52s2.2,5.58,4.27,5c-3.8-4.15-.74-16.71-.74-16.71l5.32,6.84s-2.4-9.84-1.84-13.56c.92-6.08,10.68-14.13,10.68-14.13L52,26a16.77,16.77,0,0,1,2.13-8.91c1.73-2.75,9.45-9.33,9.45-9.33l5.65,15.49S74.68,9.42,73.52,4.5c1.58,1.77,13.22,9.15,10.22,18,3.77.68,9.65-9.23,10.51-9.19-2.89,8.88,10.26,12.07,7,20.71,1.57.63,5-4.82,5-4.82s5.4,7.26,3.37,13.45c2.34.17,3.51-7.81,3.51-7.81s4.42,10.22,5,13.32c.63,3.25-.45,11.22-.45,11.22l3.8-4.93s.54,7.87.17,10.68c-1.4,10.57-7.78,15.08-7.78,15.08s-3.23-30.8-12.62-32.74c-5.12-1.06-21.44,2.17-27.38,2.13-8.94-.08-20.94-.79-24-.37C38,50.84,34.94,82.5,34.94,82.5Z"/></g></svg>