<svg xmlns="http://www.w3.org/2000/svg" viewBox="0 0 200 200"><defs><style>.cls-1{fill:#614652;}.cls-2{fill:#d79072;}.cls-3{fill:#87b6c7;}.cls-4{fill:#6c9aab;}.cls-5{fill:#699aab;}.cls-6,.cls-7,.cls-8{fill:none;stroke-miterlimit:10;}.cls-6{stroke:#699aab;}.cls-6,.cls-7{stroke-linecap:round;stroke-width:2px;}.cls-7{stroke:#669aab;}.cls-8{stroke:#4f3742;}</style></defs><g id="Calque_5" data-name="Calque 5"><path class="cls-1" d="M70.51,95.3a9.52,9.52,0,0,0,9,8.68h0a9.53,9.53,0,0,0,9.71-7.22s6.69-31.53,7.43-42.9c.18-2.69-.29-10.78-.29-10.78L95.23,24.24s-1.06-8.9-10.4-10.3c-10.75-1.61-11.26,4.18-11.26,4.18s-5.29,28-5.69,37.46C67.51,64.28,70.51,95.3,70.51,95.3Z"/><path class="cls-2" d="M79.09,89.16c-4.94-.07-7.92,2.38-8.83,6.45,0,0-2.52,19.65-3,27.34-.68,12.31.88,36.07,2.56,48.29.36,2.68,1.06,10.75,1.06,10.75a4.65,4.65,0,0,0,4.69,4.2h0A4.64,4.64,0,0,0,80.19,182s.8-9.28,1.24-12.35c1.63-11.13,6.4-33.21,7.11-44.43.44-6.76-.15-27.52-.15-27.52-.29-6.83-5.06-8.33-9.3-8.54Z"/><path class="cls-3" d="M75.37,179.13h0a5.69,5.69,0,0,0-5,3.26h0c-2.08,4.38-10.85,10.25-10.85,10.25a5.37,5.37,0,0,0-2,5.19h0l21.4-.12,1.2-.36a3,3,0,0,0,2.13-3.19L81,183.53A5.69,5.69,0,0,0,75.37,179.13Z"/><path class="cls-4" d="M58.15,197.72h0A3.2,3.2,0,0,1,60.82,194l12.73-1.92a3.21,3.21,0,0,1,3.58,2.41l.73,3Z"/><path class="cls-1" d="M128.41,95.3a9.53,9.53,0,0,1-9,8.68h0a9.51,9.51,0,0,1-9.7-7.22s-6.7-31.53-7.44-42.9c-.18-2.81,1.46-29.62,1.46-29.62s-1-8,10.39-10.3c10.15-2.08,11.26,4.18,11.26,4.18s5.29,27.66,5.69,37.1C131.4,63.92,128.41,95.3,128.41,95.3Z"/><path class="cls-2" d="M120.21,89.16c4.41-.07,7.08,2.38,7.89,6.45,0,0,5.1,18.94,5.48,26.63.61,12.31-3.64,36.78-5.13,49-.33,2.68-.95,10.75-.95,10.75a4.36,4.36,0,0,1-4.18,4.2h0a4.37,4.37,0,0,1-4.09-4.19s-.71-9.28-1.11-12.35c-1.45-11.13-5.71-33.21-6.35-44.43-.38-6.76.14-27.52.14-27.52.25-6.83,4.52-8.33,8.3-8.54Z"/><path class="cls-2" d="M128.38,177.77c-.43,12.07,14.22,13.62,14.22,13.62,1.57,1.23-23.79,7.76-23.65,6.32,0,0,.51-18.47-.37-23.15C118,171.27,128.63,170.68,128.38,177.77Z"/><path class="cls-3" d="M123.81,184.46c2.26-.77,2.1-2.42,3-3.32.54-.55,2.79-1.13,3.12-.44,3.79,8.05,21.71,12.56,21.71,12.56a4.85,4.85,0,0,1,2,5.19h0s-15.54,3.33-24.06-.47c-1.71-.76-3.19,1.09-3.19,1.09s-8,1.32-7.51-1.09l-.9-15.16C118.57,180.2,119.92,185.79,123.81,184.46Z"/><path class="cls-5" d="M153.8,198.61c.31-3.19-1.51-5.2-2.12-5.12-.89.11-2.31.85-3.19,1a39.13,39.13,0,0,1-5.67-.1c-1.09-.12-2,1-2.08,2.51l-.07,3.07s2.6.36,8.75-.56C150.44,199.25,153.8,198.61,153.8,198.61Z"/><path class="cls-1" d="M75.61,18.08l-7.76,38.6-4.24,128,7.46-.33,12.36.25s4.48-50.44,5.46-62.43c.57-7,.82-21,1.82-27.92,1.45-10.08,9.17-39.7,9.17-39.7l.63-36.76Z"/><polygon class="cls-1" points="97.48 21.66 98.06 55.61 107.85 114.45 112.98 175.14 113.38 186.19 136.73 183.47 136.73 172.21 132.76 109.18 131.03 55.22 99.69 21.82 97.48 21.66"/><path class="cls-6" d="M69.34,185.74a6.77,6.77,0,0,1,3.17-1.19,7.55,7.55,0,0,1,3.53,1.1"/><path class="cls-7" d="M133.67,184.2a11.23,11.23,0,0,1-3.21.76"/><path class="cls-7" d="M135.68,186a11.18,11.18,0,0,1-3.15,1"/><polygon class="cls-8" points="99.62 38.91 97.85 24.71 103.17 24.71 102.82 36.17 99.62 38.91"/><path class="cls-1" d="M113.9,3.47c6,1.86,8.61,3.42,10,5.88,1.15,2,2.68,8.37,3.08,10.61,1.21,6.89,2,22.15,2,22.15-5.35,4.56-48.09,3.3-53.43-1.26s-3-17.82-2.84-23.17c.09-2.28,1.68-6.33,2.83-8.33,1.43-2.46,4-4,10-5.88A45.53,45.53,0,0,1,99.39,1.69,49.07,49.07,0,0,1,113.9,3.47Z"/></g></svg>