<svg xmlns="http://www.w3.org/2000/svg" viewBox="0 0 200 200"><defs><style>.cls-1{fill:#d79072;}.cls-2{fill:#3a4649;}.cls-3{fill:#172f35;}.cls-4{fill:#472e1d;}</style></defs><g id="Calque_5" data-name="Calque 5"><polygon points="43.5 35.26 43.53 35.24 43.5 35.22 43.5 35.26"/><polygon points="43.53 35.24 43.57 35.26 43.57 35.22 43.53 35.24"/><polygon points="43.5 35.26 43.53 35.24 43.5 35.22 43.5 35.26"/><polygon points="43.53 35.24 43.57 35.26 43.57 35.22 43.53 35.24"/><path class="cls-1" d="M81.32,89.16c-4.94-.07-7.93,2.38-8.83,6.45,0,0-2.52,19.65-2.95,27.34-.69,12.31.88,36.07,2.55,48.29.37,2.68,1.06,10.75,1.06,10.75a4.66,4.66,0,0,0,4.69,4.2h0A4.66,4.66,0,0,0,82.42,182s.79-9.28,1.24-12.35c1.63-11.13,6.39-33.21,7.11-44.43.43-6.76-.16-27.52-.16-27.52-.28-6.83-5.06-8.33-9.29-8.54Z"/><path class="cls-2" d="M77.59,179.13h0a5.69,5.69,0,0,0-5,3.26h0c-2.07,4.38-10.85,10.25-10.85,10.25a5.39,5.39,0,0,0-2,5.19h0l21.4-.12,1.2-.36a3,3,0,0,0,2.14-3.19l-1.23-10.63A5.69,5.69,0,0,0,77.59,179.13Z"/><path class="cls-3" d="M60.38,197.72h0A3.2,3.2,0,0,1,63.05,194l12.73-1.92a3.19,3.19,0,0,1,3.57,2.41l.73,3Z"/><path class="cls-1" d="M122.44,89.16c4.41-.07,7.07,2.38,7.88,6.45,0,0,3.22,18.07,4,25.73,1.6,16.33-1.93,38-3.62,49.9-.37,2.67-.94,10.75-.94,10.75a4.36,4.36,0,0,1-4.19,4.2h0a4.37,4.37,0,0,1-4.09-4.19s-.7-9.28-1.11-12.35c-1.45-11.13-5.7-33.21-6.34-44.43-.39-6.76.14-27.52.14-27.52.25-6.83,4.52-8.33,8.3-8.54Z"/><path class="cls-1" d="M130.6,177.77c-.43,12.07,14.22,13.62,14.22,13.62,1.57,1.23-23.79,7.76-23.65,6.32,0,0,.52-18.47-.37-23.15C120.18,171.27,130.85,170.68,130.6,177.77Z"/><path class="cls-2" d="M126.57,184.46c2.27-.77,2.11-2.42,3-3.32.55-.55,2.79-1.13,3.12-.44,3.79,8.05,21.72,12.56,21.72,12.56a4.87,4.87,0,0,1,2,5.19h0S147,203.25,133,199.8c-1.81-.44-3.82-.73-3.82-.73s-9,1.17-8.56-1.24l.15-15C121.33,180.2,122.68,185.79,126.57,184.46Z"/><path class="cls-3" d="M156,198.61c.3-3.19-1.51-5.2-2.13-5.12-.89.11-2.31.85-3.19,1-1.41.24-4.74,1-4.74,1-1.09-.11-2,1-2.08,2.52l-.07,3.07a68.43,68.43,0,0,0,7.26-.89C152.1,200,156,198.61,156,198.61Z"/><path class="cls-4" d="M82.15,19.46l-7.57,6L65.91,189.14l5.16-4.57a6.48,6.48,0,0,1,7.47.08l6,7s7.59-58.22,8.57-70.21c.57-7,1.39-20.65,2.39-27.57,1.45-10.08,6.93-39.66,6.93-39.66L103,17.49Z"/><path class="cls-4" d="M101.4,21.66l.58,34,9.79,58.84,7.3,61.49,1.56,14.78,6.5-5.09c8.76-3.14,9.33.11,12.84,2.18l-.39-8.68-2.9-69.95-6.5-83.75-26.57-3.61Z"/><path class="cls-4" d="M116.42,4.12c6,1.85,8.61,3.41,10,5.88,1.16,2,2.69,8.36,3.08,10.6,1.21,6.89,1.95,22.15,1.95,22.15-5.34,4.56-48.09,3.3-53.43-1.26S74.81,24,75.22,18.32A25,25,0,0,1,78.05,10c1.42-2.47,4-4,10-5.88a45.31,45.31,0,0,1,13.83-1.79A48.85,48.85,0,0,1,116.42,4.12Z"/></g></svg>