<svg xmlns="http://www.w3.org/2000/svg" viewBox="0 0 200 200"><defs><style>.cls-1{fill:#614652;}.cls-2{fill:#d79072;}.cls-3{fill:#87b6c7;}.cls-4{fill:#6c9aab;}.cls-5{fill:#699aab;}.cls-6,.cls-7,.cls-8{fill:none;stroke-miterlimit:10;}.cls-6{stroke:#699aab;}.cls-6,.cls-7{stroke-linecap:round;stroke-width:2px;}.cls-7{stroke:#669aab;}.cls-8{stroke:#4f3742;}</style></defs><g id="Calque_5" data-name="Calque 5"><polygon points="43.04 33.37 43.08 33.35 43.04 33.33 43.04 33.37"/><polygon points="43.08 33.35 43.11 33.37 43.11 33.33 43.08 33.35"/><polygon points="43.04 33.37 43.08 33.35 43.04 33.33 43.04 33.37"/><polygon points="43.08 33.35 43.11 33.37 43.11 33.33 43.08 33.35"/><path class="cls-1" d="M72.62,94.13a9.65,9.65,0,0,0,9.15,8.78h0a9.62,9.62,0,0,0,9.82-7.3s6.77-31.91,7.53-43.42c.17-2.72-.3-10.91-.3-10.91L97.64,22.22s-1.06-9-10.51-10.42C76.24,10.17,75.72,16,75.72,16S70.37,44.38,70,53.93C69.59,62.74,72.62,94.13,72.62,94.13Z"/><path class="cls-2" d="M81.32,87.92c-5-.07-8,2.41-8.94,6.52,0,0-2.55,19.89-3,27.67-.69,12.46.89,36.5,2.59,48.87.37,2.71,1.07,10.87,1.07,10.87a4.71,4.71,0,0,0,4.75,4.25h0a4.71,4.71,0,0,0,4.63-4.24s.8-9.39,1.25-12.5c1.65-11.26,6.47-33.6,7.2-45,.44-6.84-.16-27.84-.16-27.84-.29-6.91-5.12-8.43-9.4-8.64Z"/><path class="cls-3" d="M77.55,179h0a5.8,5.8,0,0,0-5.08,3.3h0c-2.1,4.43-11,10.37-11,10.37a5.44,5.44,0,0,0-2,5.25h0l21.66-.11,1.21-.37a3.07,3.07,0,0,0,2.16-3.23l-1.24-10.76A5.77,5.77,0,0,0,77.55,179Z"/><path class="cls-4" d="M60.12,197.78h0a3.24,3.24,0,0,1,2.71-3.73l12.87-1.94a3.23,3.23,0,0,1,3.62,2.43l.74,3.06Z"/><path class="cls-1" d="M115.53,1.73c6,1.87,8.62,3.46,10,5.95a38.1,38.1,0,0,1,3.08,10.73c.2,5.41-3.64,17.23-8.9,21.78s-31.51,4.61-36.86,0S74.05,21.52,74.25,16.1c.08-2.3,1.68-6.4,2.83-8.42,1.43-2.49,4-4.08,10-5.95A45.15,45.15,0,0,1,101-.08,48.69,48.69,0,0,1,115.53,1.73Z"/><path class="cls-1" d="M131.22,94.13a9.64,9.64,0,0,1-9.14,8.78h0a9.62,9.62,0,0,1-9.82-7.3s-6.78-31.91-7.53-43.42c-.19-2.84,1.48-30,1.48-30s-1-8.06,10.51-10.42C127,9.7,128.12,16,128.12,16a140.86,140.86,0,0,1,5,39.22C133,64.07,131.22,94.13,131.22,94.13Z"/><path class="cls-2" d="M122.93,87.92c4.46-.07,7.16,2.41,8,6.52,0,0,5.16,19.17,5.55,27,.62,12.46-3.68,37.22-5.19,49.59-.33,2.71-1,10.87-1,10.87a4.42,4.42,0,0,1-4.24,4.25h0a4.43,4.43,0,0,1-4.14-4.24s-.71-9.39-1.12-12.5c-1.47-11.26-5.77-33.6-6.42-45-.39-6.84.14-27.84.14-27.84.25-6.91,4.57-8.43,8.4-8.64Z"/><path class="cls-2" d="M131.19,177.59c-.43,12.21,14.4,13.78,14.4,13.78,1.58,1.25-24.08,7.85-23.94,6.4,0,0,.52-18.69-.37-23.43C120.64,171,131.45,170.41,131.19,177.59Z"/><path class="cls-3" d="M126.57,184.36c2.29-.78,2.13-2.45,3-3.37.55-.55,2.83-1.14,3.16-.43,3.84,8.14,22,12.7,22,12.7a4.92,4.92,0,0,1,2,5.26h0S141,201.88,132.39,198c-1.73-.77-3.23,1.1-3.23,1.1s-8.06,1.34-7.6-1.1l-.91-15.34C121.27,180,122.63,185.7,126.57,184.36Z"/><path class="cls-5" d="M156.93,198.68c.3-3.24-1.53-5.27-2.16-5.19-.9.12-2.33.86-3.23,1a38.54,38.54,0,0,1-5.73-.1c-1.1-.11-2,1-2.1,2.55l-.08,3.1s2.63.36,8.86-.57C153.52,199.33,156.93,198.68,156.93,198.68Z"/><path class="cls-1" d="M74.25,16.1,70,53.93,63.26,184.79l10.12-.45,12.52.26s6.95-51.9,7.95-64c.58-7,1.26-19.64,2.27-26.65C97.59,83.72,102.54,53,102.54,53l.64-37.2Z"/><polygon class="cls-1" points="99.92 19.61 100.51 53.96 110.42 113.51 117.67 171.96 119.34 185.72 143.63 182.9 143.63 182.9 138.75 108.95 132.09 38.82 102.16 19.77 99.92 19.61"/><path class="cls-6" d="M71.45,185.65a6.7,6.7,0,0,1,3.2-1.2,7.71,7.71,0,0,1,3.58,1.11"/><path class="cls-7" d="M138.58,185.87a11.28,11.28,0,0,1-3.18,1"/><polygon class="cls-8" points="102.09 37.07 100.3 22.7 105.68 22.7 105.33 34.3 102.09 37.07"/></g></svg>