<?xml version="1.0" encoding="utf-8"?>
<!-- Generator: Adobe Illustrator 26.0.1, SVG Export Plug-In . SVG Version: 6.00 Build 0)  -->
<svg version="1.1" id="Calque_1" xmlns="http://www.w3.org/2000/svg" xmlns:xlink="http://www.w3.org/1999/xlink" x="0px" y="0px"
	 viewBox="0 0 788 1005" style="enable-background:new 0 0 788 1005;" xml:space="preserve">
<style type="text/css">
	.st0{fill:#D68F72;}
	.st1{fill:#83B5C6;}
	.st2{fill:#6999AA;}
	.st3{fill:none;stroke:#6699AA;stroke-width:2;stroke-linecap:round;stroke-miterlimit:10;}
	.st4{fill:#87B6C7;}
	.st5{fill:#6699AA;}
	.st6{fill:none;stroke:#6399AA;stroke-width:2;stroke-linecap:round;stroke-miterlimit:10;}
	.st7{fill:#3FA9F5;}
</style>
<path class="st0" d="M356.2,708.9c-9.2,0.2-14.6,5.3-16,13.4c0,0-1.5,36.4-1.7,51.7c-0.4,24.6,2.5,74.7,6.5,99
	c0.9,5.3,2.8,21.3,2.8,21.3c0.5,4.6,4.4,8.1,9,8l0,0c4.6-0.4,8.1-4.1,8.2-8.7c0,0,0.8-18.5,1.4-24.7c2.2-22.3,9.5-66.6,10-89
	c0.3-13.5-2.3-54.8-2.3-54.8C373.1,711.6,364.1,709,356.2,708.9L356.2,708.9z"/>
<path class="st0" d="M467.2,701.9c9.1-1.1,15,3.3,17.3,11.3c0,0,6.6,34.5,8.5,49.9c3.2,24.7,0,122,0,122c-0.1,4.9-0.1,11.4-4.5,11.8
	l0,0c-4.4,0.4-9.7-1.7-10.5-6.5c0,0-19.7-91.6-22.8-114.1c-1.8-13.5-3.9-55.5-3.9-55.5C450.8,707.1,459.4,703.1,467.2,701.9
	L467.2,701.9z"/>
<path class="st1" d="M356.5,885.9L356.5,885.9c-4.2,0.2-8,2.8-9.6,6.6l0,0c-4,8.9-20.8,20.9-20.8,20.9c-3,2.6-4.5,6.6-3.8,10.6l0,0
	l41.1-0.2l2.3-0.7c2.7-1,4.4-3.6,4.1-6.5l-2.4-21.7C366.4,889.6,361.8,885.9,356.5,885.9z"/>
<path class="st2" d="M323.5,923.8L323.5,923.8c-0.6-3.5,1.7-6.8,5.1-7.5l24.4-3.9c3.2-0.4,6.2,1.7,6.9,4.9l1.4,6.2L323.5,923.8z"/>
<path class="st3" d="M347.9,894.5c0,0,3.2-2.5,6-2.6c2.4,0.1,4.8,0.8,6.8,2.1"/>
<path class="st3" d="M345,899.3c0,0,3.2-2.4,6.1-2.4c2.4,0.1,4.8,0.9,6.8,2.2"/>
<path class="st4" d="M487,892.5c4.3-2,3.9-6,5.6-8.3c1-1.4,5.3-2.9,5.9-1.2c7.6,19.5,42,29.6,42,29.6c3.7,3.2,4.6,7.8,4,12.6l0,0
	c0,0-30,10.1-45.7-0.8c-3.1-2.2-11.2-3.1-11.2-3.1s-14.5,0.2-13.8-5.8l1.9-26.7C476.8,882.3,479.6,895.9,487,892.5z"/>
<path class="st5" d="M544.9,925.1c0.5-7.8-3.1-12.6-4.3-12.4c-1.7,0.3-4.4,2.2-6,2.6c-2.7,0.7-10.8,0-10.8,0
	c-2.1-0.2-3.8,2.5-3.9,6.2v7.5c0,0,5,0.7,16.7-1.8C538.5,926.8,544.9,925.1,544.9,925.1z"/>
<path class="st6" d="M503.2,893.1c-1.9,1-4,1.7-6.1,2"/>
<path class="st6" d="M507.1,897.3c-1.8,1.2-3.9,2-6,2.5"/>
<path class="st7" d="M498.2,781h-173c-14.8,0-26-13.3-23.5-27.8l42.7-250.1c2-11.4,11.9-19.8,23.5-19.8h83.8
	c11.5,0,21.3,8.2,23.4,19.5l46.5,250.1C524.4,767.5,513.1,781,498.2,781z"/>
</svg>
