<?xml version="1.0" encoding="utf-8"?>
<!-- Generator: Adobe Illustrator 26.0.1, SVG Export Plug-In . SVG Version: 6.00 Build 0)  -->
<svg version="1.1" id="Calque_1" xmlns="http://www.w3.org/2000/svg" xmlns:xlink="http://www.w3.org/1999/xlink" x="0px" y="0px"
	 viewBox="0 0 388 514" style="enable-background:new 0 0 388 514;" xml:space="preserve">
<style type="text/css">
	.st0{fill:#D4C06D;}
	.st1{fill:#D68F72;}
	.st2{fill:#83B5C6;}
	.st3{fill:#6999AA;}
	.st4{fill:none;stroke:#6699AA;stroke-width:2;stroke-linecap:round;stroke-miterlimit:10;}
	.st5{fill:#87B6C7;}
	.st6{fill:#6699AA;}
	.st7{fill:none;stroke:#6399AA;stroke-width:2;stroke-linecap:round;stroke-miterlimit:10;}
	.st8{fill:#D1BB62;}
</style>
<g id="Calque_10">
	<path class="st0" d="M150.2,274c1.9,10.8,9.6,18.7,18.1,18.3l0,0c8.1-0.3,14.6-8,15.5-18.4c0,0,4.3-73.8,2.9-100.1
		c-0.3-6.2-3.1-24.8-3.1-24.8l-6.6-43.1c0,0-4-20.3-20.9-21.8c-19.5-1.7-19,11.7-19,11.7s-2,69.3-0.4,91.1
		C138.2,207.1,150.2,274,150.2,274z"/>
	<path class="st0" d="M275.3,270.2c0.3,11-5.7,20.2-14.1,21.5l0,0c-8,1.3-15.9-5-18.8-15c0,0-19-71.4-22.9-97.5
		c-0.9-6.2-1.9-24.9-1.9-24.9l-2.2-43.6c0,0-0.1-20.7,16.1-25.5c18.7-5.6,20.9,7.7,20.9,7.7s15.8,67.5,18.6,89.2
		C273.7,202.2,275.3,270.2,275.3,270.2z"/>
	<path class="st1" d="M166,255.7c-9.2,0.8-14.2,6.2-15.1,14.4c0,0,0.7,36.4,1.4,51.7c1.1,24.5,7,74.4,12.5,98.4
		c1.2,5.2,4,21.1,4,21.1c0.7,4.6,4.9,7.9,9.5,7.5l0,0c4.5-0.6,7.8-4.6,7.7-9.1c0,0-0.3-18.5-0.1-24.7c0.9-22.4,5.4-67,4.6-89.4
		c-0.5-13.5-5.6-54.5-5.6-54.5C183.1,257.5,173.9,255.4,166,255.7L166,255.7z"/>
	<path class="st1" d="M268.1,258.5c8.4,3.9,11.1,10.7,8.8,18.7c0,0-12.5,32.8-19,47C247.7,346.9,193.9,428,193.9,428
		c-2.6,4.1-6,9.6-10.1,7.6l0,0c-4-2-7.4-6.6-5.6-11c0,0,31.3-88.3,40.5-109c5.5-12.5,25.8-49.3,25.8-49.3
		C251.4,254.3,260.9,255.4,268.1,258.5L268.1,258.5z"/>
	<path class="st2" d="M177.1,432.4L177.1,432.4c-4.2,0.4-7.8,3.2-9.2,7.2l0,0c-3.4,9.2-19.5,22.1-19.5,22.1
		c-2.9,2.8-4.1,6.9-3.1,10.8l0,0l41-2.7l2.3-0.9c2.6-1.1,4.2-3.9,3.7-6.7l-3.7-21.5C187.2,435.5,182.4,432,177.1,432.4z"/>
	<path class="st3" d="M146.4,472.2L146.4,472.2c-0.8-3.4,1.2-6.9,4.7-7.8l24.1-5.4c3.2-0.6,6.3,1.3,7.1,4.5l1.8,6.1L146.4,472.2z"/>
	<path class="st4" d="M169,441.5c0,0,3-2.7,5.8-3c2.4-0.1,4.8,0.5,7,1.6"/>
	<path class="st4" d="M166.4,446.5c0,0,3.1-2.6,5.9-2.8c2.4,0,4.8,0.6,6.9,1.8"/>
	<path class="st5" d="M192.4,420c4.7-0.3,5.8-4.2,8.2-5.6c1.4-0.9,6-0.8,6,1c0,20.9,28.3,42.8,28.3,42.8c2.3,4.3,1.4,8.9-0.9,13.2
		l0,0c0,0-31.7-1.5-42.2-17.4c-2.1-3.2-9.3-7-9.3-7s-13.6-5.2-10.7-10.4l11.5-24.1C186.6,406.9,184.2,420.6,192.4,420z"/>
	<path class="st6" d="M234.3,471.5c3.3-7.1,1.7-12.9,0.5-13.1c-1.7-0.3-4.9,0.4-6.6,0.2c-2.7-0.4-10.1-3.9-10.1-3.9
		c-1.9-1-4.4,1-5.9,4.4l-2.8,7c0,0,4.4,2.5,16.2,4.4C227.7,470.8,234.3,471.5,234.3,471.5z"/>
	<path class="st7" d="M207.1,426.6c-2.1,0.3-4.3,0.2-6.4-0.3"/>
	<path class="st7" d="M209.2,431.9c-2.1,0.4-4.3,0.5-6.5,0.2"/>
	<path class="st8" d="M241.9,411.1c-0.7-0.2-46-35.4-46-35.4s30-110.6,34.3-120.1S195.9,141,195.8,141.3s-2.7,112.3-2.7,114.3
		s2.7,120.1,2.7,120.1l-59.6,9.9c0,0-9.2-98.8-6.8-108s3.1-153.6,3.1-153.6l3.7-54.1c0,0,5.7-29.9,8.7-30.9s73-0.4,105.3-0.4
		l7.5,41.8l25.7,184.6L241.9,411.1z"/>
</g>
</svg>
