<?xml version="1.0" encoding="utf-8"?>
<!-- Generator: Adobe Illustrator 26.0.1, SVG Export Plug-In . SVG Version: 6.00 Build 0)  -->
<svg version="1.1" id="Calque_1" xmlns="http://www.w3.org/2000/svg" xmlns:xlink="http://www.w3.org/1999/xlink" x="0px" y="0px"
	 viewBox="0 0 388 514" style="enable-background:new 0 0 388 514;" xml:space="preserve">
<style type="text/css">
	.st0{fill:#D68F72;}
	.st1{fill:#D4C06D;}
	.st2{fill:#83B5C6;}
	.st3{fill:#6999AA;}
	.st4{fill:none;stroke:#6699AA;stroke-width:2;stroke-linecap:round;stroke-miterlimit:10;}
	.st5{fill:#87B6C7;}
	.st6{fill:#6699AA;}
	.st7{fill:none;stroke:#6399AA;stroke-width:2;stroke-linecap:round;stroke-miterlimit:10;}
	.st8{fill:#82CC4E;}
</style>
<g id="Calque_10">
	<path class="st0" d="M267.2,380.7c2.4,1.5,15.6,39.3,18.2,36.7s10.5-1,11.6,0s3.6-10.6,3.6-10.6l-7.5-21l-26.2-8.5"/>
	<path class="st1" d="M155.3,275.6c1.9,10.8,9.7,18.6,18.2,18.2l0,0c8.1-0.4,14.5-8.1,15.4-18.5c0,0,3.9-73.8,2.4-100.1
		c-0.4-6.2-3.2-24.7-3.2-24.7l-6.8-43.1c0,0-4.1-20.3-21-21.7c-19.5-1.6-18.9,11.8-18.9,11.8s-1.6,69.3,0.1,91.1
		C142.9,208.7,155.3,275.6,155.3,275.6z"/>
	<path class="st0" d="M171,257.2c-9.2,0.8-14.2,6.2-15,14.5c0,0,1,36.4,1.8,51.7c1.3,24.5,7.4,74.4,13,98.3
		c1.2,5.2,4.2,21.1,4.2,21.1c0.8,4.6,4.9,7.8,9.5,7.4l0,0c4.5-0.7,7.8-4.6,7.6-9.2c0,0-0.4-18.5-0.2-24.7c0.7-22.4,5-67,4-89.4
		c-0.6-13.5-5.9-54.5-5.9-54.5C188.1,258.8,178.9,256.8,171,257.2L171,257.2z"/>
	<path class="st2" d="M184.3,434.4L184.3,434.4c-4.2,0.2-8,2.7-9.6,6.6l0,0c-4,8.9-20.8,20.9-20.8,20.9c-3.1,2.6-4.5,6.6-3.8,10.6
		l0,0l41.1-0.2l2.3-0.8c2.7-1,4.4-3.6,4.1-6.5l-2.4-21.7C194.2,438.2,189.6,434.4,184.3,434.4z"/>
	<path class="st3" d="M151.3,472.4L151.3,472.4c-0.6-3.5,1.7-6.8,5.1-7.5l24.4-3.9c3.2-0.4,6.2,1.7,6.9,4.9l1.4,6.2L151.3,472.4z"/>
	<path class="st4" d="M175,442.9c0,0,3-2.7,5.8-3c2.4-0.1,4.8,0.5,7,1.6"/>
	<path class="st4" d="M172.4,448c0,0,3.1-2.6,5.9-2.8c2.4,0,4.8,0.6,6.9,1.8"/>
	<path class="st5" d="M295.3,412.8c-4.6,1.2-6.9-2.1-9.6-2.7c-1.7-0.4-5.9,1.2-5.3,2.9c6.8,19.8-23.8,46-23.8,46
		c-0.8,4.8,2.2,4.1,5.8,7.3l0,0c0,0,23.7-7.4,28.7-12.9c2.6-2.8,22.3-18.3,22.3-18.3s10.7-8.3,6.3-12.3l-18.2-20.1
		C296.6,398.5,303.2,410.7,295.3,412.8z"/>
	<path class="st6" d="M259.2,472.4c-5.4-5.7-4.2-12.8-3.2-13.4c1.5-0.9,4.9,1.2,6.5,1.9c5.6,2.2,16.1-3.9,16.1-3.9
		c1,0.9,35.7-20.5,41-34.1l0.5,4.5l-37.9,36.9C264.9,474.4,259.2,472.4,259.2,472.4z"/>
	<path class="st7" d="M293.2,440c-1.9,1-4,1.7-6.1,2"/>
	<path class="st7" d="M297.1,444.2c-1.8,1.2-3.9,2-6,2.5"/>
	<path class="st8" d="M139.5,38.4l-11.1,76.4L149,270.4l17.1,162.3l42-1.7L196,276.7L193,124l3,152.7L264.5,420l37-26.1
		c-4.3-15.2-59.8-136.7-59.8-136.7l21.4-141.9l-17.6-84L139.5,38.4"/>
</g>
</svg>
