<?xml version="1.0" encoding="utf-8"?>
<!-- Generator: Adobe Illustrator 26.0.1, SVG Export Plug-In . SVG Version: 6.00 Build 0)  -->
<svg version="1.1" id="Calque_1" xmlns="http://www.w3.org/2000/svg" xmlns:xlink="http://www.w3.org/1999/xlink" x="0px" y="0px"
	 viewBox="0 0 388 514" style="enable-background:new 0 0 388 514;" xml:space="preserve">
<style type="text/css">
	.st0{fill:#D4C06D;}
	.st1{fill:#D68F72;}
	.st2{fill:#83B5C6;}
	.st3{fill:#6999AA;}
	.st4{fill:none;stroke:#6699AA;stroke-width:2;stroke-linecap:round;stroke-miterlimit:10;}
	.st5{fill:#87B6C7;}
	.st6{fill:#6699AA;}
	.st7{fill:none;stroke:#6399AA;stroke-width:2;stroke-linecap:round;stroke-miterlimit:10;}
	.st8{fill:#3FA9F5;}
</style>
<g id="Calque_10">
	<path class="st0" d="M140.4,273.1c1.2,10.9,8.5,19.2,16.9,19.4l0,0c8.1,0.2,15.1-7.1,16.6-17.4c0,0,8.8-73.4,9-99.7
		c0-6.2-1.6-24.9-1.6-24.9l-3.9-43.4c0,0-2.8-20.5-19.5-23c-19.3-2.9-19.6,10.5-19.6,10.5s-6.2,69-6,90.9
		C132.5,205.5,140.4,273.1,140.4,273.1z"/>
	<path class="st0" d="M272.5,266.1c0.5,11-5.4,20.3-13.8,21.7l0,0c-8,1.4-16-4.8-19-14.7c0,0-19.9-71.2-24.1-97.2
		c-1-6.1-2.2-24.9-2.2-24.9l-2.7-43.5c0,0-0.4-20.7,15.8-25.7c18.6-5.8,21,7.4,21,7.4s16.6,67.3,19.7,88.9
		C270,198.1,272.5,266.1,272.5,266.1z"/>
	<path class="st1" d="M157.2,255.7c-9.2,0.2-14.6,5.3-16,13.4c0,0-1.5,36.4-1.7,51.7c-0.4,24.6,2.5,74.7,6.5,98.9
		c0.9,5.3,2.8,21.3,2.8,21.3c0.5,4.6,4.4,8.1,9,8l0,0c4.6-0.4,8.1-4.1,8.2-8.7c0,0,0.8-18.5,1.4-24.7c2.2-22.3,9.5-66.6,10-89
		c0.3-13.5-2.3-54.8-2.3-54.8C174.1,258.5,165.1,255.8,157.2,255.7L157.2,255.7z"/>
	<path class="st1" d="M268.2,248.8c9.1-1.1,15,3.3,17.3,11.3c0,0,6.6,34.5,8.5,49.9c3.2,24.7,0,122,0,122
		c-0.1,4.9-0.1,11.4-4.5,11.8l0,0c-4.4,0.4-9.7-1.7-10.5-6.5c0,0-19.7-91.6-22.8-114.1c-1.8-13.5-3.9-55.5-3.9-55.5
		C251.8,254,260.4,250,268.2,248.8L268.2,248.8z"/>
	<path class="st2" d="M157.5,432.7L157.5,432.7c-4.2,0.2-8,2.8-9.6,6.6l0,0c-4,8.9-20.8,20.9-20.8,20.9c-3.1,2.6-4.5,6.6-3.8,10.6
		l0,0l41.1-0.2l2.3-0.8c2.7-1,4.4-3.6,4.1-6.5l-2.4-21.7C167.4,436.5,162.8,432.7,157.5,432.7z"/>
	<path class="st3" d="M124.5,470.7L124.5,470.7c-0.6-3.5,1.7-6.8,5.1-7.5l24.4-3.9c3.2-0.4,6.2,1.7,6.9,4.9l1.4,6.2L124.5,470.7z"/>
	<path class="st4" d="M148.9,441.3c0,0,3.2-2.5,6-2.6c2.4,0.1,4.8,0.8,6.8,2.1"/>
	<path class="st4" d="M146,446.2c0,0,3.2-2.4,6.1-2.4c2.4,0.2,4.8,0.9,6.8,2.2"/>
	<path class="st5" d="M288,439.3c4.3-2,3.9-6,5.6-8.3c1-1.4,5.3-2.9,5.9-1.2c7.6,19.5,42,29.6,42,29.6c3.7,3.2,4.6,7.8,4,12.6l0,0
		c0,0-30,10.1-45.7-0.8c-3.1-2.2-11.2-3.1-11.2-3.1s-14.5,0.1-13.8-5.8l1.9-26.7C277.8,429.2,280.6,442.8,288,439.3z"/>
	<path class="st6" d="M345.9,471.9c0.5-7.8-3.1-12.6-4.3-12.4c-1.7,0.3-4.4,2.2-6,2.6c-2.7,0.7-10.8,0-10.8,0
		c-2.1-0.2-3.8,2.5-3.9,6.2v7.5c0,0,5,0.7,16.7-1.8C339.5,473.7,345.9,471.9,345.9,471.9z"/>
	<path class="st7" d="M304.2,440c-1.9,1-4,1.7-6.1,2"/>
	<path class="st7" d="M308.1,444.2c-1.8,1.2-3.9,2-6,2.5"/>
	<path class="st8" d="M151.7,23.8c0,0-5.7-7.1-8.3,15.6c-0.9,7.5-25.4,253.1-25.4,253.1s195.2-1.2,191.8-3.6s-49-200.5-49-200.5
		l-15.4-49l1.9-12.7l-94.1-2.9"/>
</g>
</svg>
