<svg xmlns="http://www.w3.org/2000/svg" xmlns:xlink="http://www.w3.org/1999/xlink" viewBox="0 0 788 513.97"><defs><style>.cls-1,.cls-12,.cls-9{fill:none;}.cls-2{clip-path:url(#clip-path);}.cls-3{fill:#745c62;}.cls-4{clip-path:url(#clip-path-2);}.cls-5{fill:#d4c06d;}.cls-6{fill:#d68f72;}.cls-7{fill:#83b5c6;}.cls-8{fill:#6999aa;}.cls-9{stroke:#69a;}.cls-12,.cls-9{stroke-linecap:round;stroke-miterlimit:10;stroke-width:2px;}.cls-10{fill:#87b6c7;}.cls-11{fill:#69a;}.cls-12{stroke:#6399aa;}.cls-13{fill:#bdccd4;}</style><clipPath id="clip-path"><polygon class="cls-1" points="397.56 28.87 371.69 150.92 330.53 150.92 330.53 28.87 397.56 28.87"/></clipPath><clipPath id="clip-path-2"><polygon class="cls-1" points="397.56 28.87 371.69 150.92 409.31 167.62 458.83 56.06 397.56 28.87"/></clipPath></defs><g id="Calque_10" data-name="Calque 10"><g class="cls-2"><path class="cls-3" d="M425.32,41.91c11,7.46,15.42,12.71,16.91,19.83,1.2,5.76-2.14,32.3-3.24,38.36-2.59,14.23-32.67,37.69-45.75,47.31-13.32,9.79-5.4-3.86-20.48-5.15-17-1.46-45.35-48.6-41.95-62.65,1.45-6,10.51-33.75,13.95-38.53,4.24-5.9,10.38-8.92,23.49-11.27A72.56,72.56,0,0,1,397.1,31S412.71,33.38,425.32,41.91Z"/></g><g class="cls-4"><path class="cls-3" d="M366.89,29.53c-13.11,2.34-19.24,5.36-23.49,11.26-3.44,4.78-11.16,30.39-12.61,36.37-3.4,14.06,14.57,47.71,22.63,61.81,8.2,14.35,6.5-1.34,20.81,3.6,16.13,5.56,61.16-26,63.76-40.25,1.1-6.06,4.08-35.1,2.88-40.87C439.38,54.34,435,49.09,424,41.62A72.69,72.69,0,0,0,397.12,31S381.89,26.84,366.89,29.53Z"/></g><path class="cls-5" d="M331.46,278.91c1.22,10.93,8.45,19.2,16.94,19.37h0c8.12.16,15.06-7.14,16.58-17.43,0,0,8.81-73.38,9-99.71.05-6.23-1.58-24.9-1.58-24.9l-3.93-43.45s-2.75-20.48-19.52-23c-19.32-2.9-19.65,10.5-19.65,10.5s-6.18,69.05-6,90.9C323.55,211.33,331.46,278.91,331.46,278.91Z"/><path class="cls-5" d="M492.1,266.24c2,10.81-2.5,20.83-10.57,23.47h0c-7.72,2.51-16.49-2.45-20.93-11.85,0,0-29.79-67.64-37.66-92.78-1.86-5.94-5.73-24.27-5.73-24.27l-8.89-42.72s-3.33-20.4,12-27.69c17.64-8.4,21.86,4.33,21.86,4.33s26,64.26,32.16,85.23C480,199.29,492.1,266.24,492.1,266.24Z"/><path class="cls-6" d="M348.34,261.55c-9.22.2-14.6,5.29-16,13.44,0,0-1.46,36.39-1.7,51.71-.38,24.58,2.47,74.71,6.48,98.94.87,5.3,2.75,21.33,2.75,21.33a8.92,8.92,0,0,0,9.05,8h0a8.94,8.94,0,0,0,8.22-8.66s.8-18.53,1.41-24.68c2.22-22.28,9.49-66.56,10-89,.31-13.49-2.3-54.79-2.3-54.79-1-13.57-10-16.25-17.93-16.37Z"/><path class="cls-6" d="M474.47,251.31c8.9-2.37,15.37,1.11,18.78,8.73,0,0,11.4,33.24,15.54,48.21,6.64,24,17.34,120.79,17.34,120.79.63,4.86,1.55,11.29-2.83,12.33h0c-4.29,1-9.87-.33-11.34-4.89,0,0-32.53-87.82-38.75-109.66-3.74-13.15-11.78-54.43-11.78-54.43-2.48-13.6,5.49-18.75,13-21.08Z"/><path class="cls-7" d="M348.62,438.56h0A10.91,10.91,0,0,0,339,445.2h0c-4,8.94-20.83,20.91-20.83,20.91a11.31,11.31,0,0,0-3.78,10.6h0l41.08-.24,2.31-.75a6.18,6.18,0,0,0,4.1-6.5l-2.36-21.7A11.07,11.07,0,0,0,348.62,438.56Z"/><path class="cls-8" d="M315.57,476.49h0a6.46,6.46,0,0,1,5.12-7.51l24.44-3.92A6.16,6.16,0,0,1,352,470l1.4,6.16Z"/><path class="cls-9" d="M340,447.15s3.17-2.53,6-2.6a14,14,0,0,1,6.84,2.06"/><path class="cls-9" d="M337.05,452s3.23-2.44,6.07-2.43a14,14,0,0,1,6.79,2.26"/><path class="cls-10" d="M519.07,438.42c4.21-2.2,3.65-6.19,5.23-8.52,1-1.41,5.15-3.15,5.89-1.49,8.45,19.08,43.3,27.61,43.3,27.61,3.83,3,4.92,7.55,4.54,12.38h0s-29.55,11.5-45.66,1.28c-3.23-2-11.37-2.6-11.37-2.6s-14.52.82-14-5.12l.69-26.74C508.44,428.75,511.86,442.19,519.07,438.42Z"/><path class="cls-11" d="M578.37,468.33c.09-7.84-3.67-12.47-4.83-12.2-1.67.4-4.27,2.39-5.93,2.88-2.65.79-10.81.54-10.81.54-2.1-.13-3.66,2.66-3.59,6.42l.33,7.48s5,.51,16.59-2.58C572.05,470.36,578.37,468.33,578.37,468.33Z"/><path class="cls-12" d="M535.23,438.34a17.82,17.82,0,0,1-6,2.3"/><path class="cls-12" d="M539.33,442.35a18.46,18.46,0,0,1-5.85,2.8"/><path class="cls-13" d="M361.44,398.11S373.8,324,373.32,319.65s20.09-188.36,20.09-188.36h0s-6.43,1.14-3.15,9.69,68.57,151.48,68.57,151.48,41.4,112,42.81,115.91,20.63-12.28,20.63-12.28L507,288l-8-32.26L445.37,87.54l-3.13-55.11s-99.69-10.77-99.69,0-10.47,34-13.09,49.08c-6.12,35.3-6.11,109.68-6.11,109.68l5.9,204.52,32.19,2.4"/></g></svg>