<?xml version="1.0" encoding="utf-8"?>
<!-- Generator: Adobe Illustrator 26.0.3, SVG Export Plug-In . SVG Version: 6.00 Build 0)  -->
<svg version="1.1" id="Calque_1" xmlns="http://www.w3.org/2000/svg" xmlns:xlink="http://www.w3.org/1999/xlink" x="0px" y="0px"
	 viewBox="0 0 788 1005" style="enable-background:new 0 0 788 1005;" xml:space="preserve">
<style type="text/css">
	.st0{fill:#3688B2;}
	.st1{fill:#B4BED6;}
	.st2{fill:#8F9EBC;}
	.st3{fill:#131944;}
	.st4{fill:#D79072;}
	.st5{fill:none;stroke:#6999AA;stroke-width:2;stroke-linecap:round;stroke-miterlimit:10;}
	.st6{fill:none;stroke:#6699AA;stroke-width:2;stroke-linecap:round;stroke-miterlimit:10;}
	.st7{fill:#1F2959;}
</style>
<g>
	<path class="st0" d="M317.1,655.7c1.2,10,12,17.8,25.4,18.3l0,0c12.8,0.4,24.3-5.9,27.3-15.2c0,0,18.9-66.5,21-90.5
		c0.5-5.7-0.8-22.8-0.8-22.8l-3.3-39.8c0,0-3-18.8-29.3-21.7c-30.3-3.4-31.7,8.8-31.7,8.8s-14.9,59.1-16,79
		C308.6,590.2,317.1,655.7,317.1,655.7z"/>
	<path class="st0" d="M341.3,632.2c-13.9-0.2-22.3,6.7-24.9,18.2c0,0-7.1,55.4-8.3,77c-1.9,34.7,2.5,101.6,7.2,136
		c1,7.5,3,30.3,3,30.3c0.6,6.8,6.4,12,13.2,11.9l0,0c6.7-0.1,12.2-5.2,12.9-11.8c0,0,2.2-26.1,3.5-34.8c4.6-31.4,18-93.5,20-125.1
		c1.2-19-0.4-77.5-0.4-77.5C366.7,637,353.2,632.8,341.3,632.2L341.3,632.2z"/>
	<path class="st1" d="M330.8,885.6L330.8,885.6c-6.1,0.2-11.5,3.7-14.1,9.2l0,0c-5.8,12.3-30.5,28.9-30.5,28.9
		c-4.4,3.5-6.6,9.1-5.6,14.6l0,0l60.3-0.3l3.4-1c3.9-1.2,6.4-5,6-9l-3.5-30C345,890.6,338.3,885.5,330.8,885.6z"/>
	<path class="st2" d="M282.3,938L282.3,938c-0.8-4.9,2.5-9.5,7.4-10.4h0.1l35.9-5.4c4.6-0.7,9,2.2,10.1,6.8l2.1,8.5L282.3,938z"/>
	<path class="st3" d="M438.8,440.2c16.2,4.7,23.2,8.7,27,15.1c3.1,5.1,6,16.8,6.3,22.6c0.5,13.7-7.8,48.1-21.9,59.6
		c-14.4,11.7-84.8,11.7-99.2,0c-14.2-11.4-30-47.2-29.4-60.9c0.2-5.8,3.8-17.2,12.2-24.2c5.9-4.8,12.4-7.5,28.6-12.2
		c18.5-5.5,37.3-4.5,37.3-4.5S420.3,434.7,438.8,440.2z"/>
	<path class="st3" d="M480.2,673.9c-1.2,12.2-12,21.6-25.4,22.2l0,0c-12.8,0.5-24.3-7.2-27.3-18.4c0,0-18.9-80.7-20.9-109.8
		c-0.5-7.2,4.1-75.8,4.1-75.8s-2.8-20.4,29.3-26.3c28.6-5.4,31.7,10.7,31.7,10.7s14.9,70.8,16,95
		C488.6,593.5,480.2,673.9,480.2,673.9z"/>
	<path class="st0" d="M457.1,632.2c12.4-0.2,19.9,6.7,22.2,18.2c0,0,14.4,53.4,15.5,75c1.7,34.7-10.2,103.6-14.5,138
		c-0.9,7.5-2.7,30.3-2.7,30.3c-0.6,6.8-5.7,11.9-11.8,11.8l0,0c-6-0.1-10.9-5.2-11.5-11.8c0,0-2-26.1-3.1-34.8
		c-4.1-31.4-16.1-93.5-17.9-125.1c-1.1-19,0.4-77.5,0.4-77.5C434.4,637,446.4,632.7,457.1,632.2L457.1,632.2z"/>
	<path class="st4" d="M480.1,881.8c-1.2,34,40.1,38.4,40.1,38.4c4.4,3.5-67,21.8-66.6,17.8c0,0,1.5-52-1-65.2
		C450.7,863.5,480.8,861.8,480.1,881.8z"/>
	<path class="st1" d="M467.2,900.6c6.4-2.2,5.9-6.8,8.5-9.4c1.5-1.5,7.9-3.2,8.8-1.2c10.7,22.7,61.2,35.4,61.2,35.4
		c5.3,3.8,6.6,9.1,5.5,14.6l0,0c0,0-38.8,15.2-62.8,4.5c-4.8-2.2-13.9-2.7-13.9-2.7s-31.6,0.3-30.3-6.5l-2.5-42.7
		C443.3,885.2,456.3,904.4,467.2,900.6z"/>
	<path class="st2" d="M551.7,940.5c0.8-9-4.3-14.7-6-14.4c-2.5,0.3-6.5,2.4-9,2.8c-4,0.7-16-0.3-16-0.3c-3.1-0.3-5.6,2.8-5.9,7.1
		l-0.2,12.5c0,0,9-2.5,24.6-5.4C542.2,942.2,551.7,940.5,551.7,940.5z"/>
	<path class="st3" d="M321.6,476.5l-2.2,18.7c-0.5,8.6-0.9,17.3-1.4,26l-19.9,381.6l21-0.8l34.8,0.6c0,0,12.6-129.1,15.4-159.8
		c1.6-17.8,2.3-53.7,5.1-71.4c4.1-25.8,25.8-101.6,25.8-101.6l1.8-94.1L321.6,476.5z"/>
	<polygon class="st3" points="393.1,485.4 394.7,572.3 422.3,722.8 436.7,878.2 437.8,906.5 492.6,900.7 491.7,867.7 492.4,709.4 
		468.1,483.4 399.3,485.8 	"/>
	<path class="st5" d="M313.8,904.2c0,0,4.7-3.4,8.9-3.3c5.1,0,10,3.1,10,3.1"/>
	<path class="st6" d="M495,899.9c0,0-5.1,2.1-9,2.2"/>
	<path class="st3" d="M404,596.4c6.2,6.5,3.4,340.1-55.4,318.4c-38.1-14.1-53.7,15.4-59.7-20.3s-4.9-284.7,29.2-373.3
		c0,0,166.4-13.1,166.5,25.3s73.6,366.1,32.1,360.4c-62.4-8.6-78.9,24.4-92-3.5S404,596.4,404,596.4z"/>
	<path class="st7" d="M287.1,860.8l97.5,5.5c5.4,0.3,9.6,5,9.3,10.4l-1.8,31.5c-0.3,5.4-5,9.6-10.4,9.3l-97.5-5.5
		c-5.4-0.3-9.6-5-9.3-10.4l1.8-31.5C277,864.7,281.7,860.5,287.1,860.8z"/>
	<path class="st7" d="M424.6,871.7l101.9-16.2c5.4-0.9,10.4,2.8,11.3,8.2l5,31.2c0.9,5.4-2.8,10.4-8.2,11.3l-101.9,16.2
		c-5.4,0.9-10.4-2.8-11.3-8.2l-5-31.2C415.6,877.6,419.2,872.6,424.6,871.7z"/>
</g>
</svg>
