<?xml version="1.0" encoding="utf-8"?>
<!-- Generator: Adobe Illustrator 26.0.3, SVG Export Plug-In . SVG Version: 6.00 Build 0)  -->
<svg version="1.1" id="Calque_1" xmlns="http://www.w3.org/2000/svg" xmlns:xlink="http://www.w3.org/1999/xlink" x="0px" y="0px"
	 viewBox="0 0 788 1005" style="enable-background:new 0 0 788 1005;" xml:space="preserve">
<style type="text/css">
	.st0{fill:none;stroke:#4F3742;stroke-miterlimit:10;}
	.st1{fill:#D48F72;}
	.st2{fill:#95C1BE;}
	.st3{fill:#87AAA7;}
	.st4{fill:#B85727;}
	.st5{fill:none;stroke:#444444;stroke-width:3;stroke-linecap:round;stroke-miterlimit:10;}
	.st6{fill:#444444;}
</style>
<polygon class="st0" points="396.5,507.3 391.5,467.7 406.4,467.7 405.4,499.6 "/>
<path class="st1" d="M339.3,647.2c-13.7-0.2-22.1,6.6-24.6,18c0,0-7.1,54.7-8.2,76.2c-1.9,34.3,2.5,100.5,7.1,134.5c1,7.4,3,30,3,30
	c0.6,6.7,6.3,11.9,13.1,11.8l0,0c6.6-0.1,12.1-5.1,12.7-11.7c0,0,2.1-25.8,3.4-34.4c4.5-31,17.8-92.5,19.8-123.7
	c1.2-18.8-0.4-76.6-0.4-76.6C364.4,651.9,351.1,647.7,339.3,647.2L339.3,647.2z"/>
<path class="st2" d="M328.9,897.7L328.9,897.7c-6,0.2-11.4,3.6-13.9,9.1l0,0c-5.8,12.2-30.1,28.6-30.1,28.6c-4.4,3.4-6.5,9-5.6,14.5
	l0,0l59.6-0.3l3.3-1c3.9-1.2,6.3-4.9,5.9-8.9l-3.4-29.7C343,902.6,336.3,897.5,328.9,897.7z"/>
<path class="st3" d="M281,949.5L281,949.5c-0.8-4.8,2.5-9.4,7.3-10.3h0.1l35.5-5.4c4.5-0.6,8.9,2.1,10,6.7l2,8.4L281,949.5z"/>
<path class="st4" d="M453.8,647.2c12.2-0.2,19.7,6.6,22,18c0,0,14.2,52.8,15.3,74.1c1.7,34.3-10.1,102.4-14.4,136.5
	c-0.9,7.4-2.7,30-2.7,30c-0.6,6.7-5.7,11.8-11.7,11.7l0,0c-5.9-0.1-10.8-5.1-11.4-11.7c0,0-1.9-25.8-3.1-34.4
	c-4.1-31-16-92.5-17.7-123.7c-1.1-18.8,0.4-76.6,0.4-76.6C431.3,651.9,443.2,647.6,453.8,647.2L453.8,647.2z"/>
<path class="st1" d="M476.1,870.6c-1.2,33.6,40,60.9,40,60.9c4.4,3.4-66.2,21.5-65.9,17.6c0,0,1.5-51.4-1-64.5
	C447.5,875.6,476.9,851,476.1,870.6z"/>
<path class="st2" d="M463.8,912.6c6.3-2.1,5.8-6.7,8.4-9.3c1.5-1.5,9.6-10.8,10.6-8.8c10.6,22.4,58.6,42.6,58.6,42.6
	c5.4,3.8,6.5,9,5.5,14.5l0,0c0,0-43.3,9.3-67.1-1.3c-4.7-2.1-10.6-0.9-10.6-0.9s-22.2,3.6-20.9-3.1l-0.9-38.4
	C449.2,900.7,453,916.2,463.8,912.6z"/>
<path class="st3" d="M547.4,952c0.8-8.9-4.3-14.6-5.9-14.2c-2.5,0.3-6.4,2.4-8.9,2.8c-4,0.6-15.9-0.3-15.9-0.3
	c-3.1-0.3-5.6,2.8-5.8,7.1l-0.2,8.5c0,0,7.2,1,24.3-1.6C537.9,953.8,547.4,952,547.4,952z"/>
<path class="st5" d="M312.1,916.1c0,0,4.6-3.3,8.8-3.2c5,0,9.9,3.1,9.9,3.1"/>
<path class="st6" d="M395.2,497.4l-2.7-18.6c-0.5-3,1.9-5.7,4.8-5.7h3.3c2.8,0,5,2.3,4.9,5.1l-0.6,18.6c-0.1,1.5-0.8,2.9-2,3.8l0,0
	C400.1,502.7,395.8,501,395.2,497.4z"/>
<path class="st6" d="M315.4,664.1c0,0.1,0,0.2,0,0.4c1.3,13.2,11.9,23.4,25.1,23.9l0,0c12.6,0.6,23.9-7.7,26.9-19.9
	c0-0.1,0.1-0.3,0.1-0.4c0.9-4.8,19.2-103.8,21.2-128.9c0.5-6.1-0.8-24.4-0.8-24.4l-3-42.6c0-0.2,0-0.4-0.1-0.6
	c-0.5-2.5-4.5-20.1-27.6-23c-28.6-3.6-30,9.5-30,9.5s-14,63.5-15.1,84.9C311.2,562.4,315.2,659.5,315.4,664.1z"/>
<path class="st6" d="M476.6,664.1c0,0.1,0,0.2,0,0.4c-1.3,13.2-11.9,23.4-25.1,23.9l0,0c-12.6,0.6-23.9-7.7-26.9-19.9
	c0-0.1-0.1-0.3-0.1-0.4c-0.9-4.9-19.1-103.8-21.1-128.9c-0.5-6,3.4-61.2,3.8-66.7c0-0.3,0-0.5,0-0.7c-0.2-2.3-0.4-18.1,27.6-23
	c23.3-4.1,24.7,5.7,24.7,8.4c0,0.6,0.1,1,0.2,1.6c2.3,7.6,19.1,63.5,20.1,83.4C480.9,561.5,476.8,659.5,476.6,664.1z"/>
<path class="st6" d="M332.3,439.4c-5.1,7.9-16.7,56.3-17.4,59.4c0,0.1,0,0.2-0.1,0.3c-0.5,2.7-6.7,38.9-6.7,42.7
	c0,4-11.6,171.6-11.7,173.8c-0.1,2,6.2,93.7,6.9,103.6c0,0.6,0,1.1-0.2,1.7l-5.6,18.9c-0.6,2.3,0.4,4.7,2.5,5.8l3.4,1.7
	c1.2,0.6,2,1.7,2.5,2.9l5.3,16.3c0.1,0.2,0.1,0.5,0.2,0.6l2.7,15c0.5,2.6,3,4.4,5.6,4l21.8-3.2c2-0.3,3.7-1.9,4.1-3.9l1.9-9.7
	c0.2-1.1,0.7-2,1.6-2.8l15.4-13.3c1.4-1.2,2-3.2,1.5-5l-3.8-14.2c-0.5-1.8,0.1-3.7,1.4-4.9c3.4-3.2,9.6-9,9-10.7
	c-0.7-2.1-5.2-47.5-5.7-52.3c0-0.3,0-0.6,0-0.8l8.2-114.2c0-0.3,0.1-0.5,0.1-0.7l14.5-64.5c1.2-5.2,8.6-5.1,9.6,0.2l23,120.2
	c0.1,0.3,0.1,0.6,0.1,0.9v53c0,0.5,0.1,0.9,0.2,1.4c1.1,3.6,6.2,20.8,6.7,26.8c0.5,5.8-4.2,28.2-5.6,34.8c-0.3,1.2-0.1,2.4,0.6,3.5
	l5.9,10.1c0.4,0.6,0.6,1.3,0.6,1.9l1.7,16c0.3,2.4,2.3,4.4,4.7,4.5c3.1,0.1,6.7,0.1,6.8-0.2c0.1-0.4,2.3,10.2,3.5,16.5
	c0.6,2.6,3,4.3,5.6,3.9l21.2-3.3c2.2-0.4,3.9-2.1,4.2-4.4l1.8-19.3c0.1-0.9,0.4-1.8,0.9-2.5l7.2-9.7c0.8-1.2,1.2-2.7,0.8-4.1
	l-2.9-12.3c-0.4-1.6,0.1-3.2,1.2-4.5l6.6-7.1c0.8-0.9,1.3-2.1,1.3-3.3V708.2c0-0.1,0-0.2,0-0.3l-12.8-202.7c0-0.6-0.2-1.3-0.5-1.9
	l-23.2-47.9"/>
<path class="st6" d="M459.4,439.6c3,4.5,0.4,14.7,0.6,19.8c0.5,12.2-7.3,42.6-20.7,52.7c-13.6,10.4-74.8,10.6-88.3,0.3
	c-13.4-10.1-21.2-40.6-20.7-52.7c0.2-5.1,3-15.5,5.9-20"/>
<g id="yeux_00000023963404585674431360000002073258227633789859_">
	<path class="st6" d="M327.6,488c-0.3-0.1-0.6-0.2-0.9-0.3c-1.8-0.8-8.3-4-8-4.9c0.3-1,9-46.2,14.7-49.8s114.2-5.4,122.1,0
		c8,5.4,22.4,45.2,26,59.2c3.6,14.1-0.6,25.2-3.2,29.5C476,525.7,336.5,490.3,327.6,488z"/>
</g>
</svg>
