<?xml version="1.0" encoding="utf-8"?>
<!-- Generator: Adobe Illustrator 26.0.3, SVG Export Plug-In . SVG Version: 6.00 Build 0)  -->
<svg version="1.1" id="Layer_1" xmlns="http://www.w3.org/2000/svg" xmlns:xlink="http://www.w3.org/1999/xlink" x="0px" y="0px"
	 viewBox="0 0 788 1005" style="enable-background:new 0 0 788 1005;" xml:space="preserve">
<style type="text/css">
	.st0{fill:#1E1E1E;}
	.st1{fill:#944E31;}
	.st2{fill:#AE9C6C;}
	.st3{fill:#776747;}
	.st4{fill:#232323;}
</style>
<g id="Calque_1_00000067925932904696621430000017367076925061659539_">
	<path class="st0" d="M436.9,446.9c16.9,4.7,24.2,8.8,28.2,15.1c3.2,5.1,6.3,16.8,6.5,22.8c0.6,13.8-2.7,54.1-18.6,67.1
		c52.7-43-151.2-32.3-111.7,0c-16-13-19.3-54.2-18.7-68c0.2-5.8-0.2-7.4,0.3-13.2c1.4-14.4,17.5-19.9,34.4-24.7
		c19.3-5.5,38.9-4.6,38.9-4.6S417.6,441.4,436.9,446.9z"/>
</g>
<path class="st1" d="M336.8,632.9c-13.9-0.2-22.3,6.7-24.9,18.2c0,0-7.1,55.4-8.3,77c-1.9,34.7,2.5,101.6,7.2,136
	c1,7.5,3,30.3,3,30.3c0.7,6.8,6.4,11.9,13.2,11.8l0,0c6.7-0.1,12.2-5.2,12.9-11.8c0,0,2.2-26.1,3.5-34.8c4.6-31.3,18-93.5,20-125.2
	c1.2-19-0.4-77.5-0.4-77.5C362.2,637.7,348.7,633.5,336.8,632.9L336.8,632.9z"/>
<path class="st2" d="M326.3,886.3L326.3,886.3c-6.1,0.1-11.5,3.7-14.1,9.2l0,0c-5.9,12.3-30.6,28.9-30.6,28.9
	c-4.4,3.5-6.6,9.1-5.5,14.6l0,0l60.3-0.3l3.4-1c3.9-1.2,6.4-5,6-9l-3.5-30C340.6,891.3,333.9,886.1,326.3,886.3z"/>
<path class="st3" d="M277.8,938.7L277.8,938.7c-0.8-4.9,2.5-9.5,7.4-10.3h0.1l35.8-5.4c4.6-0.7,9,2.2,10.1,6.8l2.1,8.5L277.8,938.7z
	"/>
<path class="st1" d="M452.6,632.9c12.4-0.2,19.9,6.7,22.2,18.2c0,0,9.1,50.9,11.2,72.5c4.5,46-5.4,107.1-10.2,140.6
	c-1.1,7.5-2.7,30.3-2.7,30.3c-0.6,6.8-5.7,11.9-11.8,11.8l0,0c-6-0.1-10.9-5.2-11.5-11.8c0,0-2-26.1-3.1-34.8
	c-4.1-31.3-16.1-93.5-17.9-125.2c-1.1-19,0.4-77.5,0.4-77.5C429.9,637.7,442,633.5,452.6,632.9L452.6,632.9z"/>
<path class="st1" d="M475.6,882.5c-1.2,34,40.1,38.4,40.1,38.4c4.4,3.5-67,21.8-66.6,17.8c0,0,1.5-52-1-65.2
	C446.3,864.2,476.3,862.5,475.6,882.5z"/>
<path class="st2" d="M464.3,901.3c6.4-2.2,5.9-6.8,8.5-9.4c1.5-1.5,7.9-3.2,8.8-1.2c10.7,22.7,61.2,35.4,61.2,35.4
	c5.3,3.8,6.6,9.1,5.5,14.6l0,0c0,0-26.6,13.5-66,3.8c-5.1-1.3-10.8-2.1-10.8-2.1s-25.4,3.3-24.1-3.5l0.4-42.3
	C449.5,889.3,453.3,905.1,464.3,901.3z"/>
<path class="st3" d="M547.2,941.2c0.8-9-4.3-14.7-6-14.4c-2.5,0.3-6.5,2.4-9,2.8c-4,0.7-13.3,2.8-13.3,2.8c-3.1-0.3-5.6,2.8-5.9,7.1
	l-0.2,8.6c0,0,3.1,0.1,20.5-2.5C536.2,945.1,547.2,941.2,547.2,941.2z"/>
<path class="st0" d="M498,730.2c-1-36.7-26.5-240-26.5-240.1l-0.5-6.6c-0.8-9.8-10.3-17.4-21.6-17.4H347.6
	c-11.1,0-25.5,7.3-26.6,16.8l-1.2,10.8h0.1c0,0-24.3,213.2-23.2,238.3c1.1,25.1,10,168.5,10,168.5l45-1.4c0,0,25.7-157.2,25.7-178.7
	s20.9-163.1,20.9-163.1S421,689.9,420,711.4s18.9,194.2,18.9,194.2l54-4.9C492.9,900.7,499,766.9,498,730.2z"/>
<path class="st0" d="M349.5,909.1l-46.7-4.8c-1.8-0.2-3.1-1.8-2.9-3.6l0.3-3.3c0.2-1.8,1.8-3.1,3.6-2.9l46.7,4.8
	c1.8,0.2,3.1,1.8,2.9,3.6l-0.3,3.3C353,908,351.3,909.3,349.5,909.1z"/>
<path class="st4" d="M352.5,904.4l-50.8-5.2c-1.8-0.2-3.1-1.8-2.9-3.6l0.5-4.7c0.2-1.8,1.8-3.1,3.6-2.9l50.8,5.2
	c1.8,0.2,3.1,1.8,2.9,3.6l-0.5,4.7C355.9,903.3,354.2,904.6,352.5,904.4z"/>
<path class="st0" d="M493.4,904.6l-49.2,10.5c-2.2,0.5-4.4-0.8-4.8-2.8l-0.8-3.7c-0.4-2,1.1-4.1,3.3-4.5l49.2-10.5
	c2.2-0.5,4.4,0.8,4.8,2.8l0.8,3.7C497.1,902.1,495.6,904.1,493.4,904.6z"/>
<path class="st4" d="M494.8,898.5l-53.6,11.4c-2.2,0.5-4.4-0.8-4.8-2.8l-1.1-5.2c-0.4-2,1.1-4.1,3.3-4.5l53.6-11.4
	c2.2-0.5,4.4,0.8,4.8,2.8l1.1,5.2C498.6,896,497.1,898,494.8,898.5z"/>
</svg>
