<?xml version="1.0" encoding="utf-8"?>
<!-- Generator: Adobe Illustrator 26.0.2, SVG Export Plug-In . SVG Version: 6.00 Build 0)  -->
<svg version="1.1" id="Calque_1" xmlns="http://www.w3.org/2000/svg" xmlns:xlink="http://www.w3.org/1999/xlink" x="0px" y="0px"
	 viewBox="0 0 388 507.7" style="enable-background:new 0 0 388 507.7;" xml:space="preserve">
<style type="text/css">
	.st0{fill:#1A1818;}
	.st1{fill:none;}
	.st2{fill:#D48F72;}
	.st3{fill:#CCCCCC;}
	.st4{fill:#6C9AAB;}
	.st5{fill:#87B6C7;}
	.st6{fill:#944E31;}
	.st7{fill:#699AAB;}
	.st8{fill:none;stroke:#699AAB;stroke-width:2;stroke-linecap:round;stroke-miterlimit:10;}
	.st9{fill:none;stroke:#669AAB;stroke-width:2;stroke-linecap:round;stroke-miterlimit:10;}
	.st10{fill:#004259;}
	.st11{fill:#4B8896;}
</style>
<polygon class="st0" points="30.3,71.4 30.2,71.4 30.2,71.4 "/>
<polygon points="30.4,71.4 30.4,71.4 30.3,71.4 "/>
<polygon class="st0" points="30.3,71.4 30.2,71.4 30.2,71.4 "/>
<polygon points="30.4,71.4 30.4,71.4 30.3,71.4 "/>
<polygon points="27.9,93.1 28,93 27.9,93 "/>
<polygon points="28,93 28.1,93.1 28.1,93 "/>
<polygon points="27.9,93.1 28,93 27.9,93 "/>
<polygon points="28,93 28.1,93.1 28.1,93 "/>
<path class="st1" d="M223.1,2.4c14.4,4,20.7,7.3,24.1,12.4c2.8,4.2,5.3,13.9,5.6,18.7c0.5,11.3-5.1,52-18.2,63.6
	c-13.2,11.9-77.9,11.9-91.2,0c-13-11.6-18.7-52.3-18.2-63.6c0.2-4.8,2.8-14.5,5.6-18.7c3.4-5.2,9.7-8.5,24.1-12.4
	c16.4-4.5,33.3-3.8,33.3-3.8S206.7-2.1,223.1,2.4z"/>
<path class="st2" d="M135,218.6c-12.8-0.2-20.5,6.2-22.9,16.7c0,0-6.5,50.9-7.6,70.8c-1.7,31.9,2.3,93.4,6.6,125
	c0.9,6.9,2.8,27.8,2.8,27.8c0.6,6.2,5.9,10.9,12.1,10.8l0,0c6.2-0.1,11.2-4.8,11.9-10.8c0,0,2-24,3.2-32
	c4.2-28.8,16.5-85.9,18.4-115c1.1-17.5-0.5-71.2-0.5-71.2C158.4,223,145.9,219.2,135,218.6z"/>
<path class="st3" d="M125.4,451.6L125.4,451.6c-5.6,0.1-10.6,3.4-13,8.5l0,0c-5.4,11.4-28,26.6-28,26.6c-4,3.2-6.1,8.4-5.1,13.4l0,0
	l55.4-0.3l3.1-0.9c3.6-1.1,5.9-4.6,5.5-8.3l-3.2-27.6C138.5,456.1,132.3,451.3,125.4,451.6z"/>
<path class="st4" d="M80.8,499.6L80.8,499.6c-0.7-4.5,2.3-8.7,6.8-9.5h0.1l32.9-5.1c4.2-0.6,8.3,2,9.3,6.2l1.9,7.8L80.8,499.6z"/>
<path class="st5" d="M219.3,2c13.8,4,19.8,7.3,23,12.4c2.6,4.2,5.1,13.9,5.4,18.7c0.4,11.3-4.9,51.9-17.4,63.5
	c-12.7,11.9-74.5,11.9-87.2,0c-12.4-11.6-17.8-52.2-17.4-63.5c0.2-4.8,2.7-14.5,5.4-18.7c3.3-5.2,9.3-8.5,23-12.4
	c15.7-4.5,31.8-3.8,31.8-3.8S203.6-2.5,219.3,2z"/>
<path class="st5" d="M262.6,234.5c-1.1,12.3-11.1,21.9-23.4,22.4l0,0c-11.8,0.6-22.3-7.3-25.1-18.7c0,0-17.4-81.6-19.2-111
	c-0.5-7.3,3.5-82.5,3.5-82.5S195.9,28,224.5,23c25.5-4.4,20.6,6.7,20.6,6.7s23.3,87.7,24.3,112.2
	C270.5,164.4,262.6,234.5,262.6,234.5z"/>
<path class="st6" d="M241.4,218.6c11.4-0.2,18.3,6.2,20.4,16.7c0,0,13.2,49.1,14.2,68.9c1.6,31.9-9.5,95.2-13.3,126.8
	c-0.8,6.9-2.5,27.8-2.5,27.8c-0.6,6.2-5.2,10.9-10.8,10.8l0,0c-5.5-0.1-10-4.8-10.6-10.8c0,0-1.8-24-2.8-32
	c-3.7-28.8-14.7-85.9-16.4-115c-1-17.5,0.4-71.2,0.4-71.2C220.7,223.1,231.7,219.2,241.4,218.6L241.4,218.6z"/>
<path class="st2" d="M262.6,448c-1.1,31.2,36.8,35.3,36.8,35.3c4,3.2-61.6,20-61.2,16.4c0,0,1.4-47.8-0.9-59.9
	C235.6,431.2,263.2,429.6,262.6,448z"/>
<path class="st3" d="M250.8,465.4c5.9-2,5.4-6.2,7.8-8.6c1.4-1.4,7.3-2.9,8.1-1.1c9.8,20.9,56.2,32.5,56.2,32.5
	c5,3.5,6.1,8.4,5.1,13.4l0,0c0,0-40.2,8.6-62.3-1.2c-4.4-2-8.3,2.8-8.3,2.8s-20.6,3.4-19.5-2.8l-2.3-39.2
	C237.2,454.2,240.7,468.8,250.8,465.4z"/>
<path class="st7" d="M328.4,501.9c0.7-8.3-4-13.5-5.5-13.2c-2.3,0.3-6,2.2-8.3,2.6C311,491.9,300,491,300,491
	c-2.8-0.3-5.1,2.6-5.4,6.5l-0.2,7.9c0,0,6.7,0.9,22.6-1.5C319.7,503.6,328.4,501.9,328.4,501.9z"/>
<path class="st5" d="M124.4,45.5L84.1,397.8c-0.7,6.1,2.8,11.9,8.4,14.2l9.8,4c4.6,1.9,7.8,6.2,8.4,11l1.2,9.9
	c0.2,1.8,1.8,3.2,3.8,3l23.6-2.1c1.6-0.2,2.8-1.4,3.1-2.8l2.1-13.2c0.6-4,2.9-7.4,6.2-9.5l9.1-5.7c3.5-2.2,5.9-5.9,6.3-10
	l31.5-269.3l8-77.7c0.8-8-5.3-15-13.3-15.1l-53.8-1.1C131.2,33.3,125.3,38.5,124.4,45.5z"/>
<path class="st5" d="M195.2,16c-2-0.1-3.8,1.5-3.8,3.6l1.5,94.7l11.8,284.3c0.3,6.8,4,13,9.9,16.5l10.1,5.9
	c3.8,2.2,6.5,5.9,7.4,10.2l2.8,12.5c0.4,1.7,2,2.9,3.8,2.8l20.6-2.1c1.7-0.2,3-1.6,3.1-3.2l1.1-13.3c0.4-4.3,2.8-8.3,6.6-10.5
	l12-7.1c10.6-6.2,16.4-17.9,15.2-30l-32.2-258.2c-0.1-0.6-23.8-10-6.7-9.1l-60.5-95.5C197.2,16.7,196.2,16.1,195.2,16L195.2,16z"/>
<path class="st8" d="M109.8,468.6c0,0,4.3-3.1,8.2-3c4.7,0,9.2,2.8,9.2,2.8"/>
<path class="st9" d="M276.2,464.6c0,0-4.7,1.9-8.3,2"/>
<path class="st9" d="M281.5,469.2c0,0-4.6,2.2-8.2,2.5"/>
<path class="st5" d="M121.4,81.3c0,0-61.2,237.3-55.8,255.1s12.3,30.2,15.4,46.5c3.1,16.3,6.2,25.5,9.3,25.5s53.5-9.3,53.5-9.3
	l13.1-97.7l-6.2-74.4L121.4,81.3z"/>
<path class="st5" d="M245.1,55.1c0,0,75.5,248.1,70.1,265.9s-7.7,5.4-10.8,21.7c-3.1,16.3-6.6,52.3-9.7,52.3c-3.1,0-53-36-53-36
	l-13.1-97.7l6.2-74.4L245.1,55.1z"/>
<path class="st5" d="M165.5,316c0-1,19.7-56.9,22.7-55.8c3.1,1,4.1-2,5.1,0.4c1,2.4,19.3,62.4,19.3,62.4l-11.3-199.6l-20.3-1.4
	L165.5,316z"/>
<g>
	<g>
		<g>
			<g>
				<polygon class="st10" points="260.3,104.8 255.1,108.4 244.8,107.3 234.3,108.3 232.1,105.3 232.4,99.6 239.4,98.3 260.3,100 
									"/>
				<polygon class="st11" points="243.2,96.1 234.8,95.7 238.2,96.9 				"/>
				<polygon class="st11" points="259.3,104.5 254.9,107.1 251.2,105.7 232.2,105.3 232.2,99 246.5,102.5 260.4,100 260.3,105.4 
									"/>
				<polygon class="st11" points="259,97.2 248.9,100.1 244.2,97.9 249.9,98.4 				"/>
				<polygon class="st11" points="246.2,112.5 239.8,110.2 233.5,112.2 240.2,111.6 				"/>
				<polygon class="st11" points="256.8,110.3 253.6,112.6 248.9,109.6 254.2,110.9 				"/>
			</g>
			<g>
				<polygon class="st10" points="232.2,104.7 227,108.3 216.7,107.2 206.1,108.2 204,105.2 204.3,99.5 211.2,98.2 232.2,99.9 				
					"/>
				<polygon class="st11" points="215.1,96 206.7,95.6 210.1,96.8 				"/>
				<polygon class="st11" points="231.2,104.4 226.7,107 223.1,105.6 204.1,105.2 204.1,98.9 218.4,102.4 232.3,99.9 232.2,105.3 
									"/>
				<polygon class="st11" points="230.9,97.1 220.8,100 216.1,97.8 221.8,98.2 				"/>
				<polygon class="st11" points="218.1,112.4 211.6,110.1 205.4,112.1 212,111.5 				"/>
				<polygon class="st11" points="228.7,110.2 225.5,112.5 220.7,109.5 226,110.8 				"/>
			</g>
			<g>
				<polygon class="st10" points="204.1,104.6 198.9,108.2 188.5,107.1 178,108.1 175.9,105.1 176.2,99.4 183.1,98.1 204.1,99.8 
									"/>
				<polygon class="st11" points="187,95.9 178.6,95.5 181.9,96.7 				"/>
				<polygon class="st11" points="203,104.3 198.6,106.9 195,105.5 176,105.1 176,98.8 190.3,102.3 204.2,99.7 204.1,105.2 				"/>
				<polygon class="st11" points="202.8,97 192.6,99.9 188,97.7 193.7,98.1 				"/>
				<polygon class="st11" points="190,112.3 183.5,110 177.3,112 183.9,111.4 				"/>
				<polygon class="st11" points="200.5,110.1 197.4,112.4 192.6,109.4 197.9,110.7 				"/>
			</g>
			<g>
				<polygon class="st10" points="176,104.5 170.8,108.1 160.4,107 149.9,108 147.7,105 148,99.3 155,98 175.9,99.7 				"/>
				<polygon class="st11" points="158.8,95.8 150.4,95.4 153.8,96.6 				"/>
				<polygon class="st11" points="174.9,104.2 170.5,106.8 166.8,105.4 147.8,105 147.9,98.7 162.2,102.2 176,99.6 176,105.1 				
					"/>
				<polygon class="st11" points="174.7,96.9 164.5,99.8 159.9,97.6 165.5,98 				"/>
				<polygon class="st11" points="161.8,112.2 155.4,109.9 149.1,111.9 155.8,111.3 				"/>
				<polygon class="st11" points="172.4,110 169.3,112.3 164.5,109.3 169.8,110.6 				"/>
			</g>
			<g>
				<polygon class="st10" points="147.9,104.3 142.6,108 132.3,106.9 121.8,107.9 119.6,104.9 119.9,99.2 126.9,97.9 147.8,99.6 
									"/>
				<polygon class="st11" points="130.7,95.7 122.3,95.3 125.7,96.5 				"/>
				<polygon class="st11" points="146.8,104.1 142.4,106.7 138.7,105.3 119.7,104.9 119.7,98.6 134,102.1 147.9,99.5 147.8,105 				
					"/>
				<polygon class="st11" points="146.5,96.8 136.4,99.6 131.7,97.5 137.4,97.9 				"/>
				<polygon class="st11" points="133.7,112.1 127.3,109.8 121,111.8 127.7,111.1 				"/>
				<polygon class="st11" points="144.3,109.9 141.1,112.2 136.4,109.2 141.7,110.5 				"/>
			</g>
		</g>
	</g>
</g>
</svg>
