<?xml version="1.0" encoding="utf-8"?>
<!-- Generator: Adobe Illustrator 26.0.3, SVG Export Plug-In . SVG Version: 6.00 Build 0)  -->
<svg version="1.1" id="Calque_1" xmlns="http://www.w3.org/2000/svg" xmlns:xlink="http://www.w3.org/1999/xlink" x="0px" y="0px"
	 viewBox="0 0 388 507.7" style="enable-background:new 0 0 388 507.7;" xml:space="preserve">
<style type="text/css">
	.st0{fill:#3688B2;}
	.st1{fill:#B4BED6;}
	.st2{fill:#8F9EBC;}
	.st3{fill:#131944;}
	.st4{fill:#D79072;}
	.st5{fill:none;stroke:#6999AA;stroke-width:2;stroke-linecap:round;stroke-miterlimit:10;}
	.st6{fill:none;stroke:#6699AA;stroke-width:2;stroke-linecap:round;stroke-miterlimit:10;}
	.st7{fill:#1F2959;}
</style>
<g>
	<path class="st0" d="M105.9,212c1.2,10,12,17.8,25.4,18.3l0,0c12.8,0.4,24.3-5.9,27.3-15.2c0,0,18.9-66.5,21-90.5
		c0.5-5.7-0.8-22.8-0.8-22.8L175.5,62c0,0-3-18.8-29.3-21.7c-30.3-3.4-31.7,8.8-31.7,8.8s-14.9,59.1-16,79
		C97.4,146.5,105.9,212,105.9,212z"/>
	<path class="st0" d="M130.1,188.5c-13.9-0.2-22.3,6.7-24.9,18.2c0,0-7.1,55.4-8.3,77c-1.9,34.7,2.5,101.6,7.2,136
		c1,7.5,3,30.3,3,30.3c0.6,6.8,6.4,12,13.2,11.9l0,0c6.7-0.1,12.2-5.2,12.9-11.8c0,0,2.2-26.1,3.5-34.8c4.6-31.4,18-93.5,20-125.1
		c1.2-19-0.4-77.5-0.4-77.5C155.5,193.3,142,189.1,130.1,188.5L130.1,188.5z"/>
	<path class="st1" d="M119.6,441.9L119.6,441.9c-6.1,0.2-11.5,3.7-14.1,9.2l0,0C99.7,463.4,75,480,75,480c-4.4,3.5-6.6,9.1-5.6,14.6
		l0,0l60.3-0.3l3.4-1c3.9-1.2,6.4-5,6-9l-3.5-30C133.8,446.9,127.1,441.8,119.6,441.9z"/>
	<path class="st2" d="M71.1,494.3L71.1,494.3c-0.8-4.9,2.5-9.5,7.4-10.4h0.1l35.9-5.4c4.6-0.7,9,2.2,10.1,6.8l2.1,8.5L71.1,494.3z"
		/>
	<path class="st3" d="M227.6-3.5c16.2,4.7,23.2,8.7,27,15.1c3.1,5.1,6,16.8,6.3,22.6c0.5,13.7-7.8,48.1-21.9,59.6
		c-14.4,11.7-84.8,11.7-99.2,0c-14.2-11.4-30-47.2-29.4-60.9c0.2-5.8,3.8-17.2,12.2-24.2c5.9-4.8,12.4-7.5,28.6-12.2
		C169.7-8.9,188.5-8,188.5-8S209.1-9,227.6-3.5z"/>
	<path class="st3" d="M269,230.2c-1.2,12.2-12,21.6-25.4,22.2l0,0c-12.8,0.5-24.3-7.2-27.3-18.4c0,0-18.9-80.7-20.9-109.8
		c-0.5-7.2,4.1-75.8,4.1-75.8S196.7,28,228.8,22c28.6-5.4,31.7,10.7,31.7,10.7s14.9,70.8,16,95C277.4,149.8,269,230.2,269,230.2z"/>
	<path class="st0" d="M245.9,188.5c12.4-0.2,19.9,6.7,22.2,18.2c0,0,14.4,53.4,15.5,75c1.7,34.7-10.2,103.6-14.5,138
		c-0.9,7.5-2.7,30.3-2.7,30.3c-0.6,6.8-5.7,11.9-11.8,11.8l0,0c-6-0.1-10.9-5.2-11.5-11.8c0,0-2-26.1-3.1-34.8
		c-4.1-31.4-16.1-93.5-17.9-125.1c-1.1-19,0.4-77.5,0.4-77.5C223.2,193.3,235.2,189,245.9,188.5L245.9,188.5z"/>
	<path class="st4" d="M268.9,438.1c-1.2,34,40.1,38.4,40.1,38.4c4.4,3.5-67,21.8-66.6,17.8c0,0,1.5-52-1-65.2
		C239.5,419.8,269.6,418.1,268.9,438.1z"/>
	<path class="st1" d="M256,456.9c6.4-2.2,5.9-6.8,8.5-9.4c1.5-1.5,7.9-3.2,8.8-1.2c10.7,22.7,61.2,35.4,61.2,35.4
		c5.3,3.8,6.6,9.1,5.5,14.6l0,0c0,0-38.8,15.2-62.8,4.5c-4.8-2.2-13.9-2.7-13.9-2.7s-31.6,0.3-30.3-6.5l-2.5-42.7
		C232.1,441.5,245.1,460.7,256,456.9z"/>
	<path class="st2" d="M340.5,496.8c0.8-9-4.3-14.7-6-14.4c-2.5,0.3-6.5,2.4-9,2.8c-4,0.7-16-0.3-16-0.3c-3.1-0.3-5.6,2.8-5.9,7.1
		l-0.2,12.5c0,0,9-2.5,24.6-5.4C331,498.5,340.5,496.8,340.5,496.8z"/>
	<path class="st3" d="M110.4,32.8l-2.2,18.7c-0.5,8.6-0.9,17.3-1.4,26L86.9,459.1l21-0.8l34.8,0.6c0,0,12.6-129.1,15.4-159.8
		c1.6-17.8,2.3-53.7,5.1-71.4c4.1-25.8,25.8-101.6,25.8-101.6l1.8-94.1L110.4,32.8z"/>
	<polygon class="st3" points="181.9,41.7 183.5,128.6 211.1,279.1 225.5,434.5 226.6,462.8 281.4,456.9 280.5,424 281.2,265.7 
		256.9,39.7 188.1,42.1 	"/>
	<path class="st5" d="M102.6,460.5c0,0,4.7-3.4,8.9-3.3c5.1,0,10,3.1,10,3.1"/>
	<path class="st6" d="M283.8,456.2c0,0-5.1,2.1-9,2.2"/>
	<path class="st3" d="M192.8,152.7c6.2,6.5,3.4,340.1-55.4,318.4c-38.1-14.1-53.7,15.4-59.7-20.3s-4.9-284.7,29.2-373.3
		c0,0,166.4-13.1,166.5,25.3s73.6,366.1,32.1,360.4c-62.4-8.6-78.9,24.4-92-3.5S192.8,152.7,192.8,152.7z"/>
	<path class="st7" d="M75.9,417.1l97.5,5.5c5.4,0.3,9.6,5,9.3,10.4l-1.8,31.5c-0.3,5.4-5,9.6-10.4,9.3L73,468.3
		c-5.4-0.3-9.6-5-9.3-10.4l1.8-31.5C65.8,421,70.5,416.8,75.9,417.1z"/>
	<path class="st7" d="M213.4,428l101.9-16.2c5.4-0.9,10.4,2.8,11.3,8.2l5,31.2c0.9,5.4-2.8,10.4-8.2,11.3l-101.9,16.2
		c-5.4,0.9-10.4-2.8-11.3-8.2l-5-31.2C204.4,433.9,208,428.9,213.4,428z"/>
</g>
</svg>
