<?xml version="1.0" encoding="utf-8"?>
<!-- Generator: Adobe Illustrator 26.0.3, SVG Export Plug-In . SVG Version: 6.00 Build 0)  -->
<svg version="1.1" id="Layer_1" xmlns="http://www.w3.org/2000/svg" xmlns:xlink="http://www.w3.org/1999/xlink" x="0px" y="0px"
	 viewBox="0 0 158 173.1" style="enable-background:new 0 0 158 173.1;" xml:space="preserve">
<style type="text/css">
	.st0{clip-path:url(#SVGID_00000045581623224439235450000015688996200544059835_);}
	.st1{fill:#B56D50;}
	.st2{clip-path:url(#SVGID_00000119815357922542013160000005910555942429759910_);}
	.st3{fill:#EAEFEB;}
	.st4{fill:#9E5E47;}
	.st5{fill:#681C23;}
</style>
<g id="Calque_3">
	<g id="_Repetition_miroir_">
		<g>
			<defs>
				<polygon id="SVGID_1_" points="111,91.8 111,91.8 125.9,91.8 125.9,120.9 111,120.9 				"/>
			</defs>
			<clipPath id="SVGID_00000152958430839639929560000007623728264052971937_">
				<use xlink:href="#SVGID_1_"  style="overflow:visible;"/>
			</clipPath>
			<g style="clip-path:url(#SVGID_00000152958430839639929560000007623728264052971937_);">
				<path class="st1" d="M112.1,97.6c0,0,5-6.1,8-5.8c4.4,0.5,6.4,8.7,5.8,12.4c-0.7,4.6-4.8,14.6-10,16.6c-1,0.4-4.9-0.8-4.9-0.8
					L112.1,97.6z"/>
			</g>
		</g>
	</g>
	<g id="_Repetition_miroir_2">
		<g>
			<defs>
				<polygon id="SVGID_00000013194064089894690200000016739045994831485065_" points="43.5,91.8 43.5,91.8 28.6,91.8 28.6,120.9 
					43.5,120.9 				"/>
			</defs>
			<clipPath id="SVGID_00000122709173436593312590000016553700404196413877_">
				<use xlink:href="#SVGID_00000013194064089894690200000016739045994831485065_"  style="overflow:visible;"/>
			</clipPath>
			<g style="clip-path:url(#SVGID_00000122709173436593312590000016553700404196413877_);">
				<path class="st1" d="M42.5,97.6c0,0-5-6.1-8-5.8c-4.4,0.5-6.4,8.7-5.8,12.4c0.7,4.6,4.8,14.6,10,16.6c1,0.4,4.9-0.8,4.9-0.8
					L42.5,97.6z"/>
			</g>
		</g>
	</g>
	<ellipse class="st3" cx="36.7" cy="121.3" rx="3.9" ry="4.3"/>
	<ellipse class="st3" cx="118.5" cy="122.3" rx="3.9" ry="4.3"/>
	<path class="st4" d="M41.1,102c0,0-4.5-7-6.6-6.7c-1.7,0.3-2.2,6.4-2.2,6.4s0.7-4.3,3.9-1.5c2.3,2,5,9.1,5,9.1L41.1,102z"/>
	<path class="st4" d="M113.5,102.6c0,0,4.5-7,6.6-6.7c1.7,0.3,2.2,6.4,2.2,6.4s-0.7-4.3-3.9-1.5c-2.3,2-5,9.1-5,9.1L113.5,102.6z"/>
	<path class="st1" d="M113.2,74.2c-3.1-25.9-34.3-25.9-34.3-25.9s-31.3-1.2-35,25.8c-2.9,21.3-5,37.1-0.1,48.1
		c4.6,10.4,15.2,30.7,25.1,35.1c3.1,1.2,6.4,1.8,9.7,1.9c3-0.2,6-0.8,8.9-1.9c9.8-4.3,20.5-24.8,24.7-35.1
		C116.7,111.2,114.8,95.6,113.2,74.2z"/>
	<path class="st5" d="M63.5,60.6c13-1.2,35.1,6.4,50,22.5c0,0,2.5-10.4-6.6-13.7c0,0,8.8,7.6,6.8,25.1c0,0,8.9-0.6,8.9-7.8
		s10.7-4.7,10.7-15.2s13.8-7,6.6-16.7s-8.4-10.1-8.9-17.7s-8.9-6.9-16.7-11.1s-1.7-10.9-15-8.7s-13.6,6.4-21.9,3.3s-17-5.8-22.8-1.2
		S40.4,27,34.4,27.2s-9.5,7.4-8.9,13.6s-13.5,6.6-10.1,12.8s11.2,7.6,12.4,9.7s-8.9,2.3-6.6,7S35.8,77,35,80.7
		c-0.9,3.7-9.5,8.2-5.8,11.5s18.2,6.4,11.3,9.3s8.6,0.5,4.3-5.2s-11.5-5.5-6.6-9.4s18.2-7.4,8.6-10.7s1.2-1.6,2.3-9.9
		C49.4,64.1,59.4,61,63.5,60.6z"/>
</g>
</svg>
