<?xml version="1.0" encoding="utf-8"?>
<!-- Generator: Adobe Illustrator 26.0.3, SVG Export Plug-In . SVG Version: 6.00 Build 0)  -->
<svg version="1.1" id="Layer_1" xmlns="http://www.w3.org/2000/svg" xmlns:xlink="http://www.w3.org/1999/xlink" x="0px" y="0px"
	 viewBox="0 0 158 173.1" style="enable-background:new 0 0 158 173.1;" xml:space="preserve">
<style type="text/css">
	.st0{clip-path:url(#SVGID_00000155866759144935717140000006153029832987161006_);}
	.st1{fill:#B56D50;}
	.st2{clip-path:url(#SVGID_00000063594471933638124800000011404639974247086249_);}
	.st3{fill:#9E5E47;}
	.st4{fill:#681C23;}
	.st5{fill:#277A9B;}
	.st6{fill:#22677C;}
</style>
<g id="_Repetition_miroir_">
	<g>
		<defs>
			<polygon id="SVGID_1_" points="113.8,87.5 113.8,87.5 128.7,87.5 128.7,116.6 113.8,116.6 			"/>
		</defs>
		<clipPath id="SVGID_00000097489165448194289720000002872486535128596657_">
			<use xlink:href="#SVGID_1_"  style="overflow:visible;"/>
		</clipPath>
		<g style="clip-path:url(#SVGID_00000097489165448194289720000002872486535128596657_);">
			<path class="st1" d="M114.8,93.3c0,0,5-6.1,8-5.8c4.4,0.5,6.4,8.7,5.8,12.4c-0.7,4.6-4.8,14.6-10,16.6c-1,0.4-4.9-0.8-4.9-0.8
				L114.8,93.3z"/>
		</g>
	</g>
</g>
<g id="_Repetition_miroir_2">
	<g>
		<defs>
			<polygon id="SVGID_00000047027368079750260460000014764230415393334691_" points="46.2,87.5 46.2,87.5 31.3,87.5 31.3,116.6 
				46.2,116.6 			"/>
		</defs>
		<clipPath id="SVGID_00000101066526643804999970000015006737803505995666_">
			<use xlink:href="#SVGID_00000047027368079750260460000014764230415393334691_"  style="overflow:visible;"/>
		</clipPath>
		<g style="clip-path:url(#SVGID_00000101066526643804999970000015006737803505995666_);">
			<path class="st1" d="M45.2,93.3c0,0-5-6.1-8-5.8c-4.4,0.5-6.4,8.7-5.8,12.4c0.7,4.6,4.8,14.6,10,16.6c1,0.4,4.9-0.8,4.9-0.8
				L45.2,93.3z"/>
		</g>
	</g>
</g>
<path class="st3" d="M43.8,97.7c0,0-4.5-7-6.6-6.7c-1.7,0.3-2.2,6.4-2.2,6.4s0.7-4.3,3.9-1.5c2.3,2,5,9.1,5,9.1L43.8,97.7z"/>
<path class="st3" d="M116.2,98.3c0,0,4.5-7,6.6-6.7c1.7,0.3,2.2,6.4,2.2,6.4s-0.7-4.3-3.9-1.5c-2.3,2-5,9.1-5,9.1L116.2,98.3z"/>
<path class="st1" d="M115.9,69.9C112.8,44,81.6,44,81.6,44s-31.3-1.2-35,25.8c-2.9,21.3-5,37.1-0.1,48.1
	c4.6,10.4,15.2,30.7,25.1,35.1c3.1,1.2,6.4,1.8,9.7,1.9c3-0.2,6-0.8,8.9-1.9c9.8-4.3,20.5-24.8,24.7-35.1
	C119.5,106.9,117.5,91.3,115.9,69.9z"/>
<path class="st4" d="M93.1,38.9c-7.6-4.3,8.4-0.4-4.6,1.7s-4.5,6.8-12.7,3.7s-1.9-1.1-7.5,3.6s0,0-5.9,0.2s-0.6-10.3,0-4.1
	s-3.4-2.1,0,4.1s-9.3,1.6-8.2,3.7s-8.7,2.3-6.5,7S40,69.7,39.1,73.4s-9.3,8.2-5.6,11.5s17.8,6.4,11,9.4s8.4,0.5,4.2-5.2
	s-11.3-5.5-6.5-9.4S60,72.3,50.7,69s1.2-1.6,2.2-9.9c0.3-2.3,10.1-5.4,14.1-5.7c12.7-1.2,29.9,1.7,44.5,17.8c0,0,1.5-4-2.1-8.9
	c0,0,9,12.2,7,29.8c0,0,8.3-5.3,8.3-12.5s-7-6-7-16.5s0.6-2.6-6.4-12.3"/>
<path class="st5" d="M40.5,111.9l0.6-0.5c0.6-0.6,1.6-0.5,2.1,0.1l0.5,0.6c0.6,0.6,0.5,1.6-0.1,2.1l-0.6,0.5
	c-0.6,0.6-1.6,0.5-2.1-0.1l-0.5-0.6C39.9,113.5,39.9,112.5,40.5,111.9z"/>
<path class="st5" d="M119.3,111.6l0.6,0.5c0.6,0.5,0.7,1.5,0.2,2.1l-0.5,0.6c-0.5,0.6-1.5,0.7-2.1,0.2l-0.6-0.5
	c-0.6-0.5-0.7-1.5-0.2-2.1l0.5-0.6C117.7,111.2,118.6,111.1,119.3,111.6z"/>
<g>
	<path class="st5" d="M120.5,60.5c-1.1,4-0.6,8.4-2.1,12.6c-0.7,1.7-1.9,2.2-4.1,2.2c-2.6-0.2-5-0.9-7.5-1.6
		c-3.4-0.8-6.9-1.7-10.3-2.7c-9.4-2.8-18.7-2.3-28.3-0.2c-6.5,1.5-12.8,3.3-19.6,4.2c-5.2,0.8-6.1,0.4-7.3-3.6
		c-0.2-0.9-0.4-1.9-0.7-2.9c-0.5-2.9-0.4-6-1.3-8.9l16-2.1c16.6-2.2,33.6-1.9,50.1,0.7L120.5,60.5z"/>
	<path class="st6" d="M120.3,61.6c0.2-0.8,0.4-1.7,0.8-2.5c-0.8-8.8-2.9-16.9-6.4-24.7c-2.2-5.1-6.4-8.3-12.1-10.4
		c-2.7-0.9-5.6-1.6-8.4-2.2c-4.2-0.9-8.9-0.4-12.9-2.2c-0.9-0.5-2.2-0.2-2.8,0.4c-1.2,0.8-2.3,0.8-3.6,0.9C70.3,21,66,21.9,61.8,23
		c-7.4,2.1-13.2,5.6-15.7,12.3c-2.2,5.1-4,10.4-5,15.9c-0.5,3.1-2,6.2-0.9,9.3l14.3-2c17.9-2.5,36.1-2.1,54,0.9L120.3,61.6z"/>
</g>
</svg>
