<?xml version="1.0" encoding="utf-8"?>
<!-- Generator: Adobe Illustrator 26.0.3, SVG Export Plug-In . SVG Version: 6.00 Build 0)  -->
<svg version="1.1" id="Layer_1" xmlns="http://www.w3.org/2000/svg" xmlns:xlink="http://www.w3.org/1999/xlink" x="0px" y="0px"
	 viewBox="0 0 788 1005.1" style="enable-background:new 0 0 788 1005.1;" xml:space="preserve">
<style type="text/css">
	.st0{fill:#681C23;}
	.st1{clip-path:url(#SVGID_00000177442295496373404810000009587396137493721762_);}
	.st2{fill:#B56D50;}
	.st3{clip-path:url(#SVGID_00000106851948589351521440000007223091462920572845_);}
	.st4{fill:#9E5E47;}
</style>
<path class="st0" d="M402.1,65.6c0,0-8.9-12.3-19.2-4.7s-6,17.3-6,17.3s-15.8,0.1-13.5,12.8s13.2,11,16.2,8.6
	c3-2.4,19.9,7.2,27.1,4.7c0,0-8.2,19.6-7.9,23.8c0.3,4.3,6.1,12.3,13.2,10.3c7.1-2.1,10.6-9.1,9.6-13.1c0,0,11.2,2.4,16.3-7.6
	s-2.6-16.5-2.6-16.5s7.1-5.4,4.7-15.3s-12.4-10.6-12.4-10.6s0.5-10.3-10.5-14.1C406.2,57.3,402.1,65.6,402.1,65.6z"/>
<circle class="st0" cx="376.9" cy="121.4" r="45.4"/>
<g id="_Repetition_miroir__00000016048750352602771810000001202184537115071679_">
	<g>
		<defs>
			<polygon id="SVGID_1_" points="408.7,142 408.7,142 423.6,142 423.6,171 408.7,171 			"/>
		</defs>
		<clipPath id="SVGID_00000127733264779804017110000010584829352261008811_">
			<use xlink:href="#SVGID_1_"  style="overflow:visible;"/>
		</clipPath>
		<g style="clip-path:url(#SVGID_00000127733264779804017110000010584829352261008811_);">
			<path class="st2" d="M409.6,147.8c0,0,5-6.1,8-5.8c4.4,0.5,6.4,8.6,5.8,12.3c-0.7,4.6-4.8,14.5-10,16.6c-1,0.4-4.9-0.8-4.9-0.8
				L409.6,147.8z"/>
		</g>
	</g>
</g>
<g id="_Repetition_miroir_2_00000001652388679343479540000003588466084111068335_">
	<g>
		<defs>
			<polygon id="SVGID_00000015331705087168052650000007959832951903698857_" points="341.1,142 341.1,142 326.2,142 326.2,171 
				341.1,171 			"/>
		</defs>
		<clipPath id="SVGID_00000023255915821007057670000001541134200742765445_">
			<use xlink:href="#SVGID_00000015331705087168052650000007959832951903698857_"  style="overflow:visible;"/>
		</clipPath>
		<g style="clip-path:url(#SVGID_00000023255915821007057670000001541134200742765445_);">
			<path class="st2" d="M340.1,147.8c0,0-5-6.1-8-5.8c-4.4,0.5-6.4,8.6-5.8,12.3c0.7,4.6,4.8,14.5,10,16.6c1,0.4,4.9-0.8,4.9-0.8
				L340.1,147.8z"/>
		</g>
	</g>
</g>
<path class="st4" d="M411.1,152.8c0,0,4.5-7,6.6-6.6c1.7,0.3,2.2,6.3,2.2,6.3s-0.7-4.2-3.9-1.5c-2.3,2-5,9.1-5,9.1L411.1,152.8z"/>
<path class="st2" d="M410.8,124.5c-3.1-25.7-32-22.6-32-22.6s-33.7-4.4-37.3,22.6c-2.9,21.2-5,37-0.1,47.9
	c4.6,10.3,15.2,30.6,25.1,35c3.1,1.1,6.4,1.8,9.7,1.9c3-0.2,6-0.8,8.9-1.9c9.8-4.3,20.5-24.7,24.7-35
	C414.4,161.3,412.4,145.8,410.8,124.5z"/>
<path class="st4" d="M338.7,152.2c0,0-4.5-7-6.6-6.6c-1.7,0.3-2.2,6.3-2.2,6.3s0.7-4.2,3.9-1.5c2.3,2,5,9.1,5,9.1L338.7,152.2z"/>
<path class="st0" d="M377.4,105.4c0,0-19,4.6-28.1,16.1s-8,30-11.3,23.9c-6.5-12.1-3.3-30.4-3.3-30.4l9.9-21.9l35-10.3l36.5,18.6
	l3.3,24.7c0,0,2,14.6-5.8,20.5c-5.6-3.9-1.9-17.9-8-25.1C395.9,110.2,377.4,105.4,377.4,105.4z"/>
</svg>
