<?xml version="1.0" encoding="utf-8"?>
<!-- Generator: Adobe Illustrator 26.0.3, SVG Export Plug-In . SVG Version: 6.00 Build 0)  -->
<svg version="1.1" id="Layer_1" xmlns="http://www.w3.org/2000/svg" xmlns:xlink="http://www.w3.org/1999/xlink" x="0px" y="0px"
	 viewBox="0 0 788 1005.1" style="enable-background:new 0 0 788 1005.1;" xml:space="preserve">
<style type="text/css">
	.st0{fill:#353535;}
	.st1{clip-path:url(#SVGID_00000057831381688176339510000005657817700049710247_);}
	.st2{fill:#B56D50;}
	.st3{clip-path:url(#SVGID_00000018227428741685818460000010229936030025971108_);}
	.st4{fill:#9E5E47;}
	.st5{fill:#681C23;}
</style>
<path class="st0" d="M340.1,130.6L320,115.3c-1-0.8-2.4-0.6-3.2,0.3l-2.6,3.2c-0.9,1-0.6,2.7,0.6,3.4l20.7,13l0.3-6.2l-16.1,10.1
	c-1.1,0.8-1.5,2.4-0.5,3.4l2.5,3c0.8,0.9,2.1,1.1,3.1,0.4l17.9-12.5L340.1,130.6z"/>
<g id="_Repetition_miroir_">
	<g>
		<defs>
			<polygon id="SVGID_1_" points="407.6,140.6 407.6,140.6 422.5,140.6 422.5,169.7 407.6,169.7 			"/>
		</defs>
		<clipPath id="SVGID_00000059271604795207508080000003920283535816904371_">
			<use xlink:href="#SVGID_1_"  style="overflow:visible;"/>
		</clipPath>
		<g style="clip-path:url(#SVGID_00000059271604795207508080000003920283535816904371_);">
			<path class="st2" d="M408.6,146.5c0,0,5-6.1,8-5.8c4.4,0.5,6.4,8.7,5.8,12.4c-0.7,4.6-4.8,14.6-10,16.6c-1,0.4-4.9-0.8-4.9-0.8
				L408.6,146.5z"/>
		</g>
	</g>
</g>
<g id="_Repetition_miroir_2">
	<g>
		<defs>
			<polygon id="SVGID_00000111870799041377708720000013470738843169809571_" points="340.1,140.6 340.1,140.6 325.1,140.6 
				325.1,169.7 340.1,169.7 			"/>
		</defs>
		<clipPath id="SVGID_00000084490029162334187590000001282944897148860052_">
			<use xlink:href="#SVGID_00000111870799041377708720000013470738843169809571_"  style="overflow:visible;"/>
		</clipPath>
		<g style="clip-path:url(#SVGID_00000084490029162334187590000001282944897148860052_);">
			<path class="st2" d="M339.1,146.5c0,0-5-6.1-8-5.8c-4.4,0.5-6.4,8.7-5.8,12.4c0.7,4.6,4.8,14.6,10,16.6c1,0.4,4.9-0.8,4.9-0.8
				L339.1,146.5z"/>
		</g>
	</g>
</g>
<path class="st4" d="M337.7,150.9c0,0-4.5-7-6.6-6.7c-1.7,0.3-2.2,6.4-2.2,6.4s0.7-4.3,3.9-1.5c2.3,2,5,9.1,5,9.1L337.7,150.9z"/>
<path class="st4" d="M410,151.5c0,0,4.5-7,6.6-6.7c1.7,0.3,2.2,6.4,2.2,6.4s-0.7-4.3-3.9-1.5c-2.3,2-5,9.1-5,9.1L410,151.5z"/>
<path class="st2" d="M409.8,123c-3.1-25.8-34.3-25.8-34.3-25.8s-31.3-1.2-35,25.8c-2.9,21.3-5,37.1-0.1,48.1
	c4.6,10.4,15.2,30.7,25.1,35.1c3.1,1.2,6.4,1.8,9.7,1.9c3-0.2,6-0.8,8.9-1.9c9.8-4.3,20.5-24.8,24.7-35.1
	C413.3,160,411.4,144.5,409.8,123z"/>
<path class="st5" d="M337.7,145.2c-14.1-17.2-13.9-33.8,0.4-48.9c3.7-3.9,5.6-6.4,3.4-12.5c-3.4-9.2,3.2-15.6,11.1-18.2
	c14.1-4.2,28.9-4.2,43,0c8.8,2.6,15.7,9.7,10.9,20.2c-3.2,6.7,2.1,8,4.8,10.9c13.9,15.8,13.8,33.1-1.1,48.3
	c-4.9-8.7-11-20.5-21.8-20c-5.6,0.3-11.6,0.6-16.7-2.5c-14.1-8.8-19.2-5-27.9,9.2C341.2,135.5,340,139.9,337.7,145.2z"/>
<path class="st0" d="M339.7,134.2l11-4.4c13.7-5.4,29.2-5.7,42.9-0.6l13.6,5c2.6,0.9,5.4,3.4,6.1,0.9l0.7-2.7
	c0.9-3.3-7-17.6-13.8-22.8c-4.8-3.6-10.6-5.8-16.6-6.6c-5.8-0.6-11.5-0.7-17.2-0.2c-5.4,0.5-10.6,2.4-15,5.3
	c-8.5,5.5-19.8,22-18.9,24.6l1,2.7C334.4,137.8,337.2,135.1,339.7,134.2z"/>
</svg>
