<?xml version="1.0" encoding="utf-8"?>
<!-- Generator: Adobe Illustrator 26.0.3, SVG Export Plug-In . SVG Version: 6.00 Build 0)  -->
<svg version="1.1" id="Layer_1" xmlns="http://www.w3.org/2000/svg" xmlns:xlink="http://www.w3.org/1999/xlink" x="0px" y="0px"
	 viewBox="0 0 788 1005.1" style="enable-background:new 0 0 788 1005.1;" xml:space="preserve">
<style type="text/css">
	.st0{clip-path:url(#SVGID_00000148627323439055320260000013208282828233261222_);}
	.st1{fill:#B56D50;}
	.st2{clip-path:url(#SVGID_00000052069671666625471010000006395070532224393148_);}
	.st3{fill:#EAEFEB;}
	.st4{fill:#9E5E47;}
	.st5{fill:#681C23;}
</style>
<g id="Calque_3">
	<g id="_Repetition_miroir_">
		<g>
			<defs>
				<polygon id="SVGID_1_" points="409,141.5 409,141.5 423.9,141.5 423.9,170.6 409,170.6 				"/>
			</defs>
			<clipPath id="SVGID_00000065074282542025317700000013558239498369329568_">
				<use xlink:href="#SVGID_1_"  style="overflow:visible;"/>
			</clipPath>
			<g style="clip-path:url(#SVGID_00000065074282542025317700000013558239498369329568_);">
				<path class="st1" d="M410,147.4c0,0,5-6.1,8-5.8c4.4,0.5,6.4,8.7,5.8,12.4c-0.7,4.6-4.8,14.6-10,16.6c-1,0.4-4.9-0.8-4.9-0.8
					L410,147.4z"/>
			</g>
		</g>
	</g>
	<g id="_Repetition_miroir_2">
		<g>
			<defs>
				<polygon id="SVGID_00000036973328145394572680000016111949019805977790_" points="341.4,141.5 341.4,141.5 326.5,141.5 
					326.5,170.6 341.4,170.6 				"/>
			</defs>
			<clipPath id="SVGID_00000071529061714153097560000015813827457816954766_">
				<use xlink:href="#SVGID_00000036973328145394572680000016111949019805977790_"  style="overflow:visible;"/>
			</clipPath>
			<g style="clip-path:url(#SVGID_00000071529061714153097560000015813827457816954766_);">
				<path class="st1" d="M340.4,147.4c0,0-5-6.1-8-5.8c-4.4,0.5-6.4,8.7-5.8,12.4c0.7,4.6,4.8,14.6,10,16.6c1,0.4,4.9-0.8,4.9-0.8
					L340.4,147.4z"/>
			</g>
		</g>
	</g>
	<ellipse class="st3" cx="334.6" cy="171.1" rx="3.9" ry="4.3"/>
	<ellipse class="st3" cx="416.4" cy="172.1" rx="3.9" ry="4.3"/>
	<path class="st4" d="M339,151.8c0,0-4.5-7-6.6-6.7c-1.7,0.3-2.2,6.4-2.2,6.4s0.7-4.3,3.9-1.5c2.3,2,5,9.1,5,9.1L339,151.8z"/>
	<path class="st4" d="M411.4,152.4c0,0,4.5-7,6.6-6.7c1.7,0.3,2.2,6.4,2.2,6.4s-0.7-4.3-3.9-1.5c-2.3,2-5,9.1-5,9.1L411.4,152.4z"/>
	<path class="st1" d="M411.1,124c-3.1-25.9-34.3-25.9-34.3-25.9s-31.3-1.2-35,25.8c-2.9,21.3-5,37.1-0.1,48.1
		c4.6,10.4,15.2,30.7,25.1,35.1c3.1,1.2,6.4,1.8,9.7,1.9c3-0.2,6-0.8,8.9-1.9c9.8-4.3,20.5-24.8,24.7-35.1
		C414.6,160.9,412.7,145.4,411.1,124z"/>
	<path class="st5" d="M361.4,110.4c13-1.2,35.1,6.4,50,22.5c0,0,2.5-10.4-6.6-13.7c0,0,8.8,7.6,6.8,25.1c0,0,8.9-0.6,8.9-7.8
		s10.7-4.7,10.7-15.2s13.8-7,6.6-16.7s-8.4-10.1-8.9-17.7S420,80,412.2,75.8s-1.7-10.9-15-8.7s-13.6,6.4-21.9,3.3s-17-5.8-22.8-1.2
		s-14.1,7.6-20.2,7.8s-9.5,7.4-8.9,13.6s-13.5,6.6-10.1,12.8s11.2,7.6,12.4,9.7s-8.9,2.3-6.6,7s14.7,6.6,13.8,10.3
		c-0.9,3.7-9.5,8.2-5.8,11.5s18.2,6.4,11.3,9.3s8.6,0.5,4.3-5.2s-11.5-5.5-6.6-9.4s18.2-7.4,8.6-10.7s1.2-1.6,2.3-9.9
		C347.3,113.8,357.3,110.8,361.4,110.4z"/>
</g>
</svg>
