<?xml version="1.0" encoding="utf-8"?>
<!-- Generator: Adobe Illustrator 26.0.3, SVG Export Plug-In . SVG Version: 6.00 Build 0)  -->
<svg version="1.1" id="Layer_1" xmlns="http://www.w3.org/2000/svg" xmlns:xlink="http://www.w3.org/1999/xlink" x="0px" y="0px"
	 viewBox="0 0 788 1005.1" style="enable-background:new 0 0 788 1005.1;" xml:space="preserve">
<style type="text/css">
	.st0{fill:none;stroke:#2E858E;stroke-width:2.4156;stroke-miterlimit:10;}
	.st1{fill:#681C23;}
	.st2{clip-path:url(#SVGID_00000059291998180204083060000009988105007472833461_);}
	.st3{fill:#B56D50;}
	.st4{clip-path:url(#SVGID_00000029736234330291906380000003758403664925732530_);}
	.st5{fill:#B85D40;}
	.st6{fill:#2E858E;}
</style>
<path class="st0" d="M328.6,141.8c-1-3-2.2-6-2.2-9.1c0-20.2,22.1-36.7,49.4-36.7c27.2,0,49.4,16.5,49.4,36.7c0,3.2-0.6,6.4-1.7,9.3
	"/>
<path class="st1" d="M368.5,189.7c0,0,12.5,7.8,19.1-2.7s-0.8-17.8-0.8-17.8s14.2-5.9,7.5-16.5s-15.9-5.1-17.8-1.8
	s-14.9-6.7-20.6-1.9c0,0-5.4-13.1-7.2-16.8c-1.8-3.7-10-8.9-15.6-4.5c-5.7,4.4-6.3,12.1-3.9,15.3c0,0-10.9,1.9-11.9,12.7
	s8.4,13.8,8.4,13.8s-4.4,7.4,1.4,15.4s15.1,5.2,15.1,5.2s3.4,9.5,14.6,8.9C367.9,198.7,368.5,189.7,368.5,189.7z"/>
<path class="st1" d="M382.5,189.7c0,0-12.5,7.8-19.1-2.7s0.8-17.8,0.8-17.8s-14.2-5.9-7.5-16.5s15.9-5.1,17.8-1.8s14.9-6.7,20.6-1.9
	c0,0,5.4-13.1,7.2-16.8c1.8-3.7,10-8.9,15.6-4.5c5.7,4.4,6.3,12.1,3.9,15.3c0,0,10.9,1.9,11.9,12.7s-8.4,13.8-8.4,13.8
	s4.4,7.4-1.4,15.4c-5.7,8-15.1,5.2-15.1,5.2s-3.4,9.5-14.6,8.9C383.1,198.7,382.5,189.7,382.5,189.7z"/>
<g id="_Repetition_miroir_">
	<g>
		<g>
			<g>
				<defs>
					<polygon id="SVGID_1_" points="409,141.7 409,141.7 423.9,141.7 423.9,170.7 409,170.7 					"/>
				</defs>
				<clipPath id="SVGID_00000071545175444972762900000003211527323828264336_">
					<use xlink:href="#SVGID_1_"  style="overflow:visible;"/>
				</clipPath>
				<g style="clip-path:url(#SVGID_00000071545175444972762900000003211527323828264336_);">
					<path class="st3" d="M410,147.6c0,0,5-6.1,8-5.8c4.4,0.5,6.4,8.6,5.8,12.3c-0.7,4.6-4.8,14.5-10,16.6c-1,0.4-4.9-0.8-4.9-0.8
						L410,147.6z"/>
				</g>
			</g>
		</g>
	</g>
</g>
<g id="_Repetition_miroir_2">
	<g>
		<g>
			<g>
				<defs>
					<polygon id="SVGID_00000108988984088349154310000008106662387173005696_" points="341.5,141.7 341.5,141.7 326.6,141.7 
						326.6,170.7 341.5,170.7 					"/>
				</defs>
				<clipPath id="SVGID_00000058584295029537349140000017249897161093511587_">
					<use xlink:href="#SVGID_00000108988984088349154310000008106662387173005696_"  style="overflow:visible;"/>
				</clipPath>
				<g style="clip-path:url(#SVGID_00000058584295029537349140000017249897161093511587_);">
					<path class="st3" d="M340.5,147.6c0,0-5-6.1-8-5.8c-4.4,0.5-6.4,8.6-5.8,12.3c0.7,4.6,4.8,14.5,10,16.6c1,0.4,4.9-0.8,4.9-0.8
						L340.5,147.6z"/>
				</g>
			</g>
		</g>
	</g>
</g>
<path class="st5" d="M411.5,152.6c0,0,4.5-7,6.6-6.6c1.7,0.3,2.2,6.3,2.2,6.3s-0.7-4.2-3.9-1.5c-2.3,2-5,9.1-5,9.1L411.5,152.6z"/>
<path class="st3" d="M412.7,124c-3.1-25.7-33.5-22.4-33.5-22.4s-35.3-3.9-38.9,23.1c-2.9,21.2-3.4,36.5,1.5,47.4
	c4.6,10.3,15.2,30.6,25.1,35c3.1,1.1,6.4,1.8,9.7,1.9c3-0.2,6-0.8,8.9-1.9c9.8-4.3,20.5-24.7,24.7-35
	C414.7,161.1,414.3,145.3,412.7,124z"/>
<path class="st5" d="M339.1,152c0,0-4.5-7-6.6-6.6c-1.7,0.3-2.2,6.3-2.2,6.3s0.7-4.2,3.9-1.5c2.3,2,5,9.1,5,9.1L339.1,152z"/>
<path class="st3" d="M354.6,94.1c-0.4-0.5,18.9-8.1,18.9-8.1l2.3-0.3c0.9-0.1,1.9-0.1,2.9,0.3l0,0c0,0,7.6,2,8.1,3.9
	c0.4,1.9,1.7,12.1,1.7,12.1l-6.6,1.3L376,105c0,0-6.6-3.6-7.9-4.1C366.6,100.2,354.6,94.1,354.6,94.1z"/>
<path class="st1" d="M376.1,104.2c-0.3,0.4-0.5,0.8-0.9,1.2c-7.4,9.2-32,17.3-34.5,27.8c-1.8,7.1-0.4,13.6,0.7,17.3
	c0.2,0.7-0.6,1.1-1.1,0.6c-1.9-2.1-4.3-4.7-4.5-4.7c-0.4-0.1-20.6-41.2,18-57.8c17.3-7.4,22.3-2.6,22.3-2.6c0,0.1,0.1,0.3,0.3,0.5
	C377.3,87.8,381.6,95.3,376.1,104.2z"/>
<path class="st1" d="M415.9,147.3c-0.2,0-1.4,1-2.6,2.1c-0.7,0.6-1.8-0.1-1.5-1c1-3.4,2-9.1,0.5-15.9c-2.4-11-27.8-17.5-33.5-27.2
	c0.3-0.4,0.5-0.8,0.8-1.2c5-8.9,1.2-16.3,0.1-17.9c2.1-1,7.7-2.2,19.4,3.3C434.9,106,416.2,147.1,415.9,147.3z"/>
<g>
	<path class="st6" d="M338.5,174l-1.7,0.2c-1.8,0.2-3.4-1.2-3.5-3l-2.5-26.5c-0.2-1.8,1.2-3.4,3-3.5l1.7-0.2c1.8-0.2,3.4,1.2,3.5,3
		l2.5,26.5C341.7,172.1,340.3,173.7,338.5,174z"/>
	<path class="st6" d="M332.9,171.6l-3.5,0.3c-1.8,0.2-3.4-1.2-3.5-3l-2-20.5c-0.2-1.8,1.2-3.4,3-3.5l3.5-0.3L332.9,171.6z"/>
	<path class="st6" d="M326.4,139.1l2.2-1c0.5-0.2,1.1,0.1,1.1,0.6l0.7,7.3c0,0.4-0.3,0.8-0.6,0.8l0,0c-0.4,0-0.7-0.1-0.8-0.5
		l-2.9-6.3C325.8,139.9,326,139.4,326.4,139.1z"/>
</g>
<g>
	<path class="st6" d="M413.7,174.4l1.7,0.2c1.8,0.2,3.4-1.2,3.5-3l2.5-26.5c0.2-1.8-1.2-3.4-3-3.5l-1.7-0.2c-1.8-0.2-3.4,1.2-3.5,3
		l-2.5,26.5C410.5,172.6,411.9,174.2,413.7,174.4z"/>
	<path class="st6" d="M419.4,172l3.5,0.3c1.8,0.2,3.4-1.2,3.5-3l1.9-20.5c0.2-1.8-1.2-3.4-3-3.5l-3.5-0.3L419.4,172z"/>
	<path class="st6" d="M425.8,139.5l-2.2-0.9c-0.5-0.2-1.1,0.1-1.1,0.6l-0.7,7.3c0,0.4,0.3,0.8,0.6,0.8l0,0c0.4,0,0.7-0.1,0.8-0.5
		l2.9-6.3C426.4,140.3,426.2,139.8,425.8,139.5z"/>
</g>
</svg>
