<?xml version="1.0" encoding="utf-8"?>
<!-- Generator: Adobe Illustrator 26.0.3, SVG Export Plug-In . SVG Version: 6.00 Build 0)  -->
<svg version="1.1" id="Layer_1" xmlns="http://www.w3.org/2000/svg" xmlns:xlink="http://www.w3.org/1999/xlink" x="0px" y="0px"
	 viewBox="0 0 158 173.1" style="enable-background:new 0 0 158 173.1;" xml:space="preserve">
<style type="text/css">
	.st0{fill:none;stroke:#2E858E;stroke-width:2.4156;stroke-miterlimit:10;}
	.st1{fill:#681C23;}
	.st2{clip-path:url(#SVGID_00000013180535205842720920000014290183982828140469_);}
	.st3{fill:#B56D50;}
	.st4{clip-path:url(#SVGID_00000150819359755426178730000009744486977007968185_);}
	.st5{fill:#B85D40;}
	.st6{fill:#2E858E;}
</style>
<path class="st0" d="M33.1,83.7c-1-3-2.2-6-2.2-9.1c0-20.2,22.1-36.7,49.4-36.7c27.2,0,49.4,16.5,49.4,36.7c0,3.2-0.6,6.4-1.7,9.3"
	/>
<path class="st1" d="M72.9,131.6c0,0,12.5,7.8,19.1-2.7s-0.8-17.8-0.8-17.8s14.2-5.9,7.5-16.5S82.9,89.5,81,92.8s-14.9-6.7-20.6-1.9
	c0,0-5.4-13.1-7.2-16.8c-1.8-3.7-10-8.9-15.6-4.5c-5.7,4.4-6.3,12.1-3.9,15.3c0,0-10.9,1.9-11.9,12.7s8.4,13.8,8.4,13.8
	s-4.4,7.4,1.4,15.4s15.1,5.2,15.1,5.2s3.4,9.5,14.6,8.9C72.3,140.6,72.9,131.6,72.9,131.6z"/>
<path class="st1" d="M86.9,131.6c0,0-12.5,7.8-19.1-2.7s0.8-17.8,0.8-17.8s-14.2-5.9-7.5-16.5s15.9-5.1,17.8-1.8s14.9-6.7,20.6-1.9
	c0,0,5.4-13.1,7.2-16.8c1.8-3.7,10-8.9,15.6-4.5c5.7,4.4,6.3,12.1,3.9,15.3c0,0,10.9,1.9,11.9,12.7s-8.4,13.8-8.4,13.8
	s4.4,7.4-1.4,15.4c-5.7,8-15.1,5.2-15.1,5.2s-3.4,9.5-14.6,8.9C87.6,140.6,86.9,131.6,86.9,131.6z"/>
<g id="_Repetition_miroir_">
	<g>
		<g>
			<g>
				<defs>
					<polygon id="SVGID_1_" points="113.4,83.6 113.4,83.6 128.3,83.6 128.3,112.6 113.4,112.6 					"/>
				</defs>
				<clipPath id="SVGID_00000119827676819464091420000003582571442241457048_">
					<use xlink:href="#SVGID_1_"  style="overflow:visible;"/>
				</clipPath>
				<g style="clip-path:url(#SVGID_00000119827676819464091420000003582571442241457048_);">
					<path class="st3" d="M114.4,89.5c0,0,5-6.1,8-5.8c4.4,0.5,6.4,8.6,5.8,12.3c-0.7,4.6-4.8,14.5-10,16.6c-1,0.4-4.9-0.8-4.9-0.8
						L114.4,89.5z"/>
				</g>
			</g>
		</g>
	</g>
</g>
<g id="_Repetition_miroir_2">
	<g>
		<g>
			<g>
				<defs>
					<polygon id="SVGID_00000060002033004227286660000016157551800373217684_" points="45.9,83.6 45.9,83.6 31.1,83.6 31.1,112.6 
						45.9,112.6 					"/>
				</defs>
				<clipPath id="SVGID_00000152266541611082825870000009327206046265394103_">
					<use xlink:href="#SVGID_00000060002033004227286660000016157551800373217684_"  style="overflow:visible;"/>
				</clipPath>
				<g style="clip-path:url(#SVGID_00000152266541611082825870000009327206046265394103_);">
					<path class="st3" d="M44.9,89.5c0,0-5-6.1-8-5.8c-4.4,0.5-6.4,8.6-5.8,12.3c0.7,4.6,4.8,14.5,10,16.6c1,0.4,4.9-0.8,4.9-0.8
						L44.9,89.5z"/>
				</g>
			</g>
		</g>
	</g>
</g>
<path class="st5" d="M115.9,94.5c0,0,4.5-7,6.6-6.6c1.7,0.3,2.2,6.3,2.2,6.3s-0.7-4.2-3.9-1.5c-2.3,2-5,9.1-5,9.1L115.9,94.5z"/>
<path class="st3" d="M117.2,65.9c-3.1-25.7-33.5-22.4-33.5-22.4s-35.3-3.9-38.9,23.1c-2.9,21.2-3.4,36.5,1.5,47.4
	c4.6,10.3,15.2,30.6,25.1,35c3.1,1.1,6.4,1.8,9.7,1.9c3-0.2,6-0.8,8.9-1.9c9.8-4.3,20.5-24.7,24.7-35
	C119.2,103,118.7,87.2,117.2,65.9z"/>
<path class="st5" d="M43.6,93.9c0,0-4.5-7-6.6-6.6c-1.7,0.3-2.2,6.3-2.2,6.3s0.7-4.2,3.9-1.5c2.3,2,5,9.1,5,9.1L43.6,93.9z"/>
<path class="st3" d="M59.1,36c-0.4-0.5,18.9-8.1,18.9-8.1l2.3-0.3c0.9-0.1,1.9-0.1,2.9,0.3l0,0c0,0,7.6,2,8.1,3.9
	c0.4,1.9,1.7,12.1,1.7,12.1l-6.6,1.3l-5.9,1.7c0,0-6.6-3.6-7.9-4.1C71.1,42.1,59.1,36,59.1,36z"/>
<path class="st1" d="M80.6,46.1c-0.3,0.4-0.5,0.8-0.9,1.2c-7.4,9.2-32,17.3-34.5,27.8c-1.8,7.1-0.4,13.6,0.7,17.3
	c0.2,0.7-0.6,1.1-1.1,0.6c-1.9-2.1-4.3-4.7-4.5-4.7c-0.4-0.1-20.6-41.2,18-57.8c17.3-7.4,22.3-2.6,22.3-2.6c0,0.1,0.1,0.3,0.3,0.5
	C81.7,29.7,86.1,37.2,80.6,46.1z"/>
<path class="st1" d="M120.3,89.2c-0.2,0-1.4,1-2.6,2.1c-0.7,0.6-1.8-0.1-1.5-1c1-3.4,2-9.1,0.5-15.9c-2.4-11-27.8-17.5-33.5-27.2
	c0.3-0.4,0.5-0.8,0.8-1.2c5-8.9,1.2-16.3,0.1-17.9c2.1-1,7.7-2.2,19.4,3.3C139.3,47.9,120.7,89,120.3,89.2z"/>
<g>
	<path class="st6" d="M42.9,115.9l-1.7,0.2c-1.8,0.2-3.4-1.2-3.5-3l-2.5-26.5c-0.2-1.8,1.2-3.4,3-3.5l1.7-0.2c1.8-0.2,3.4,1.2,3.5,3
		l2.5,26.5C46.2,114,44.7,115.6,42.9,115.9z"/>
	<path class="st6" d="M37.3,113.5l-3.5,0.3c-1.8,0.2-3.4-1.2-3.5-3l-2-20.5c-0.2-1.8,1.2-3.4,3-3.5l3.5-0.3L37.3,113.5z"/>
	<path class="st6" d="M30.8,81l2.2-1c0.5-0.2,1.1,0.1,1.1,0.6l0.7,7.3c0,0.4-0.3,0.8-0.6,0.8l0,0c-0.4,0-0.7-0.1-0.8-0.5l-2.9-6.3
		C30.2,81.8,30.4,81.3,30.8,81z"/>
</g>
<g>
	<path class="st6" d="M118.2,116.3l1.7,0.2c1.8,0.2,3.4-1.2,3.5-3l2.5-26.5c0.2-1.8-1.2-3.4-3-3.5l-1.7-0.2c-1.8-0.2-3.4,1.2-3.5,3
		l-2.5,26.5C114.9,114.5,116.3,116.1,118.2,116.3z"/>
	<path class="st6" d="M123.8,113.9l3.5,0.3c1.8,0.2,3.4-1.2,3.5-3l1.9-20.5c0.2-1.8-1.2-3.4-3-3.5l-3.5-0.3L123.8,113.9z"/>
	<path class="st6" d="M130.2,81.4l-2.2-0.9c-0.5-0.2-1.1,0.1-1.1,0.6l-0.7,7.3c0,0.4,0.3,0.8,0.6,0.8l0,0c0.4,0,0.7-0.1,0.8-0.5
		l2.9-6.3C130.8,82.2,130.7,81.7,130.2,81.4z"/>
</g>
</svg>
