<?xml version="1.0" encoding="utf-8"?>
<!-- Generator: Adobe Illustrator 26.0.3, SVG Export Plug-In . SVG Version: 6.00 Build 0)  -->
<svg version="1.1" id="Layer_1" xmlns="http://www.w3.org/2000/svg" xmlns:xlink="http://www.w3.org/1999/xlink" x="0px" y="0px"
	 viewBox="0 0 788 1005.1" style="enable-background:new 0 0 788 1005.1;" xml:space="preserve">
<style type="text/css">
	.st0{fill:#681C23;}
	.st1{clip-path:url(#SVGID_00000011737712559610090900000012714745762942687395_);}
	.st2{fill:#B56D50;}
	.st3{clip-path:url(#SVGID_00000090260612511560441350000013116668404581140896_);}
	.st4{fill:#9E5E47;}
</style>
<ellipse class="st0" cx="378.2" cy="139.2" rx="48.2" ry="18.9"/>
<g id="_Repetition_miroir_">
	<g>
		<defs>
			<polygon id="SVGID_1_" points="409,141.7 409,141.7 423.9,141.7 423.9,170.7 409,170.7 			"/>
		</defs>
		<clipPath id="SVGID_00000022529183475636171160000016341365785420073144_">
			<use xlink:href="#SVGID_1_"  style="overflow:visible;"/>
		</clipPath>
		<g style="clip-path:url(#SVGID_00000022529183475636171160000016341365785420073144_);">
			<path class="st2" d="M410,147.6c0,0,5-6.1,8-5.8c4.4,0.5,6.4,8.6,5.8,12.3c-0.7,4.6-4.8,14.5-10,16.6c-1,0.4-4.9-0.8-4.9-0.8
				L410,147.6z"/>
		</g>
	</g>
</g>
<g id="_Repetition_miroir_2">
	<g>
		<defs>
			<polygon id="SVGID_00000102507053291607840760000015536029135608307098_" points="341.5,141.7 341.5,141.7 326.6,141.7 
				326.6,170.7 341.5,170.7 			"/>
		</defs>
		<clipPath id="SVGID_00000032641757299838787300000011395129930198524045_">
			<use xlink:href="#SVGID_00000102507053291607840760000015536029135608307098_"  style="overflow:visible;"/>
		</clipPath>
		<g style="clip-path:url(#SVGID_00000032641757299838787300000011395129930198524045_);">
			<path class="st2" d="M340.5,147.6c0,0-5-6.1-8-5.8c-4.4,0.5-6.4,8.6-5.8,12.3c0.7,4.6,4.8,14.5,10,16.6c1,0.4,4.9-0.8,4.9-0.8
				L340.5,147.6z"/>
		</g>
	</g>
</g>
<path class="st4" d="M411.5,152.6c0,0,4.5-7,6.6-6.6c1.7,0.3,2.2,6.3,2.2,6.3s-0.7-4.2-3.9-1.5c-2.3,2-5,9.1-5,9.1L411.5,152.6z"/>
<path class="st2" d="M411.2,124.2c-3.1-25.7-32-22.6-32-22.6s-33.7-4.4-37.3,22.6c-2.9,21.2-5,37-0.1,47.9
	c4.6,10.3,15.2,30.6,25.1,35c3.1,1.1,6.4,1.8,9.7,1.9c3-0.2,6-0.8,8.9-1.9c9.8-4.3,20.5-24.7,24.7-35
	C414.7,161.1,412.8,145.6,411.2,124.2z"/>
<path class="st4" d="M339.1,152c0,0-4.5-7-6.6-6.6c-1.7,0.3-2.2,6.3-2.2,6.3s0.7-4.2,3.9-1.5c2.3,2,5,9.1,5,9.1L339.1,152z"/>
<path class="st0" d="M337.6,131.8c0,0,1.5,28.2,4.7,39.5c0,0.9,0.2,8.6-12.9,0.9c-13.1-7.8-4.6-15.4-4.6-15.4s-11.5,0.7-13.3-11.1
	c-0.8-6.2,4.2-11.7,4.2-11.7s-6.2-5.2-5.6-14.1c0.7-8.9,10.5-11.8,10.5-11.8s-2.6-11.6,4.2-18c6.8-6.3,13-4.5,13-4.5
	s-0.2-10.9,7.5-13.8c7.7-2.9,13.1,0.5,13.1,0.5s3.3-6.1,10.6-6.2c5,0,7.7,3.5,7.7,3.5s2.2-4.6,9.5-3.5s8.7,6.4,8.7,6.4
	s9-4.7,14.4,0.2c5.4,5,6.3,12.7,6.3,12.7s10.7,0.1,13.4,5.1c2.8,5,3.3,18,3.3,18s10.8,3.2,10.7,12.4c-0.1,9.2-6.1,13.5-6.1,13.5
	s6.2,7.5,3.3,15.1c-2.9,7.7-11.7,7-11.7,7s0.4,9.1-4,14.8c-4.3,5.7-14.8,2.5-14.8,2.5s5.6-18,5.6-41.1c0.1-0.1-1.4,1.4-5.7-0.9
	s-1.9-5.7-3.7-9.9c-1.9-4.3-6.8-13.2-17.6-18.5c0.1,0.1,18.1,13.6,15.1,28.5c-11.4,7.4-44.4,5.9-53.6,0.7c-5.2-4,7.5-28,17.8-29
	c0,0-14,2.6-18.5,14.2c-4.5,11.5-2.2,11.2-5.1,13.7C340.8,133.6,337.6,131.8,337.6,131.8z"/>
</svg>
