<?xml version="1.0" encoding="utf-8"?>
<!-- Generator: Adobe Illustrator 26.0.3, SVG Export Plug-In . SVG Version: 6.00 Build 0)  -->
<svg version="1.1" id="Layer_1" xmlns="http://www.w3.org/2000/svg" xmlns:xlink="http://www.w3.org/1999/xlink" x="0px" y="0px"
	 viewBox="0 0 788 1005.1" style="enable-background:new 0 0 788 1005.1;" xml:space="preserve">
<style type="text/css">
	.st0{fill:#7C181D;}
	.st1{clip-path:url(#SVGID_00000124144950024862953380000003442563144746670726_);}
	.st2{fill:#9E5E47;}
	.st3{clip-path:url(#SVGID_00000111872171110720288930000004562383229449917088_);}
	.st4{fill:#B56D50;}
	.st5{fill:#681C23;}
	.st6{fill:#B22947;}
	.st7{fill:#87213C;}
</style>
<path class="st0" d="M405.7,169.7c0.1-0.7,0.1-1.3,0.2-2c0.2-2.3,0.3-4.6,0.3-7c0-0.4,0-0.9,0-1.3c0-11.2-1.9-22.4-5.8-32.9
	c1.3-3.4,2-7,2-10.6c0-0.3,0-0.6,0-1"/>
<g id="_Repetition_miroir_">
	<g>
		<g>
			<defs>
				<polygon id="SVGID_1_" points="408.5,141.9 408.5,141.9 423.4,141.9 423.4,171 408.5,171 				"/>
			</defs>
			<clipPath id="SVGID_00000052067196121913269030000018364082128128498310_">
				<use xlink:href="#SVGID_1_"  style="overflow:visible;"/>
			</clipPath>
			<g style="clip-path:url(#SVGID_00000052067196121913269030000018364082128128498310_);">
				<path class="st2" d="M409.5,147.8c0,0,5-6.1,8-5.8c4.4,0.5,6.4,8.7,5.8,12.4c-0.7,4.6-4.8,14.6-10,16.6c-1,0.4-4.9-0.8-4.9-0.8
					L409.5,147.8z"/>
			</g>
		</g>
	</g>
</g>
<g id="_Repetition_miroir_2">
	<g>
		<g>
			<defs>
				<polygon id="SVGID_00000034071598613853190240000005913848963969890200_" points="341,141.9 341,141.9 326,141.9 326,171 
					341,171 				"/>
			</defs>
			<clipPath id="SVGID_00000165924697661067043490000005214120240671309954_">
				<use xlink:href="#SVGID_00000034071598613853190240000005913848963969890200_"  style="overflow:visible;"/>
			</clipPath>
			<g style="clip-path:url(#SVGID_00000165924697661067043490000005214120240671309954_);">
				<path class="st2" d="M340,147.8c0,0-5-6.1-8-5.8c-4.4,0.5-6.4,8.7-5.8,12.4c0.7,4.6,4.8,14.6,10,16.6c1,0.4,4.9-0.8,4.9-0.8
					L340,147.8z"/>
			</g>
		</g>
	</g>
</g>
<path class="st4" d="M409.4,124.3c-1.3-17.7-34.6-17.7-34.6-17.7s-31.5,0.1-34.6,17.7c-3.8,21.2-5,37.1-0.1,48.1
	c4.6,10.4,15.2,30.7,25.1,35.1c3.1,1.2,6.4,1.8,9.7,1.9c3-0.2,6-0.8,8.9-1.9c9.8-4.3,20.5-24.8,24.7-35.1
	C412.9,161.3,411,145.8,409.4,124.3z"/>
<path class="st5" d="M336.9,146.5c-10.5-24.5-5.1-44.8,14.4-56.4c13.1-7.9,28.5-7.9,42.3-6.8c18.3,1.5,26.5,16.7,30.7,33.8
	c3.9,15.3,5.2,29.8-8.1,41.8c-5.6,5-11.1,11,0,16.7c-4.6,3.7-8.6,3.3-12-0.3c-3.1-3.2-4.7-7.1-3.4-11.2c5.8-18,16.7-30.1,0.6-40.7
	c-6.5-4.2-20.4-0.9-23.8-7.5c-4.9-9.7-12.6-6.9-19-2.4c-5.6,4-13.4,5.6-16.5,11.7C339.5,130.9,340.1,140,336.9,146.5z"/>
<g>
	<path class="st6" d="M307.7,104.6c1.5-4.6,5-7.7,8.3-10.8c11.7-11.1,24.9-20.3,38.7-28.7c2-1.3,3.2-2.6,2.4-4.8
		c-1.1-2.6,0.3-4.6,2.4-5.8c2.5-1.4,5.1-1.4,6.9,0.9c1.5,2,2.6,1.4,4.3,0.5c10.5-5.6,21.2-10.6,32.8-13.6c6-1.6,12.2-2.1,18.4-1.3
		c3.5,0.4,6.4,2,7.2,6c0.9,7.1-4.3,10.5-8.7,14.2c-12.6,11-27.3,17.8-42.2,24.8c-10.2,4.7-20.4,9.2-31.1,12.9
		c-10.2,3.7-20.5,7.2-31.2,9.2C312.5,108.7,309.3,108.5,307.7,104.6z"/>
	<path class="st7" d="M307.7,104.6c1.6,3.9,4.9,4.1,8.3,3.4c10.6-2,20.9-5.5,31.2-9.2c10.6-3.7,20.9-8.1,31.1-12.9
		c14.7-6.9,29.5-13.9,42-24.7c4.3-3.7,9.5-7.2,8.7-14.2c2.5,5.6,1.3,11.2-0.5,16.5c-2.9,8.7-7.5,16.4-13.1,23.6
		c-1.7,0.7-3.3-0.5-4.9-0.7c-12.8-0.8-24.9,2.6-36.7,6.7c-9.7,3.4-19.2,7.5-29.2,10.4c-4.6,1.3-9.5,1.7-13.8,4.2
		c-5.9,1.1-11.7,2.5-17.8,2.1C308.4,109.7,307.6,108.7,307.7,104.6z"/>
	<path class="st6" d="M330.6,107.8c4.3-2.5,9.2-2.9,13.8-4.2c10-2.9,19.4-6.9,29.2-10.4c11.8-4.1,23.9-7.5,36.7-6.7
		c1.7,0.1,3.2,1.3,4.9,0.7c0.5,2.8,0.9,5.4,1.6,8.3c0.4,1.7-0.3,2.1-1.8,2c-17.2-1.5-33.8,1.8-50.2,5.9
		c-10.6,2.6-21.4,5.4-30.8,11.2c-1.6,0.9-2.1,0.3-2.4-1.2C331.3,111.4,330.9,109.6,330.6,107.8z"/>
</g>
</svg>
