<?xml version="1.0" encoding="utf-8"?>
<!-- Generator: Adobe Illustrator 26.0.3, SVG Export Plug-In . SVG Version: 6.00 Build 0)  -->
<svg version="1.1" id="Layer_1" xmlns="http://www.w3.org/2000/svg" xmlns:xlink="http://www.w3.org/1999/xlink" x="0px" y="0px"
	 viewBox="0 0 788 1005.1" style="enable-background:new 0 0 788 1005.1;" xml:space="preserve">
<style type="text/css">
	.st0{clip-path:url(#SVGID_00000137815816689816827400000014240427391830908071_);}
	.st1{fill:#B56D50;}
	.st2{clip-path:url(#SVGID_00000145777978736492747910000008625404280702940568_);}
	.st3{fill:#E78367;}
	.st4{fill:#C9634B;}
	.st5{fill:#9E5E47;}
	.st6{fill:#681C23;}
</style>
<g id="Calque_3">
	<g id="_Repetition_miroir_">
		<g>
			<g>
				<defs>
					<polygon id="SVGID_1_" points="407.9,141.4 407.9,141.4 422.8,141.4 422.8,170.5 407.9,170.5 					"/>
				</defs>
				<clipPath id="SVGID_00000002345276460427970960000005850590298622718900_">
					<use xlink:href="#SVGID_1_"  style="overflow:visible;"/>
				</clipPath>
				<g style="clip-path:url(#SVGID_00000002345276460427970960000005850590298622718900_);">
					<path class="st1" d="M408.9,147.2c0,0,5-6.1,8-5.8c4.4,0.5,6.4,8.7,5.8,12.3c-0.7,4.6-4.8,14.6-10,16.7c-1,0.4-4.9-0.8-4.9-0.8
						L408.9,147.2z"/>
				</g>
			</g>
		</g>
	</g>
	<g id="_Repetition_miroir_2">
		<g>
			<g>
				<defs>
					<polygon id="SVGID_00000111876744877797612830000011518006874730633867_" points="340.4,141.4 340.4,141.4 325.4,141.4 
						325.4,170.5 340.4,170.5 					"/>
				</defs>
				<clipPath id="SVGID_00000035515812636258056610000001854848358683742094_">
					<use xlink:href="#SVGID_00000111876744877797612830000011518006874730633867_"  style="overflow:visible;"/>
				</clipPath>
				<g style="clip-path:url(#SVGID_00000035515812636258056610000001854848358683742094_);">
					<path class="st3" d="M339.4,147.2c0,0-5-6.1-8-5.8c-4.4,0.5-6.4,8.7-5.8,12.3c0.7,4.6,4.8,14.6,10,16.7c1,0.4,4.9-0.8,4.9-0.8
						L339.4,147.2z"/>
				</g>
			</g>
		</g>
	</g>
	<path class="st4" d="M338,151.6c0,0-4.5-7-6.6-6.7c-1.7,0.3-2.2,6.4-2.2,6.4s0.7-4.3,3.9-1.5c2.3,2,5,9.1,5,9.1L338,151.6z"/>
	<path class="st5" d="M410.3,152.3c0,0,4.5-7,6.6-6.7c1.7,0.3,2.2,6.4,2.2,6.4s-0.7-4.3-3.9-1.5c-2.3,2-5,9.1-5,9.1L410.3,152.3z"/>
	<path class="st1" d="M411,123.8C408,98,376.7,98,376.7,98s-31.3-1.2-35,25.8c-2.9,21.3-5,37.1-0.1,48.1
		c4.6,10.4,15.2,30.7,25.1,35.1c3.1,1.2,6.4,1.8,9.7,1.9c3-0.2,6-0.8,8.8-1.9c9.8-4.3,20.5-24.8,24.7-35.1
		C414.6,160.8,412.7,145.2,411,123.8z"/>
	<path class="st6" d="M356.8,103.1c-0.1-1-6.8,3.5,8.3,6.9c3.2,0.7,40.5-4,44.6,15.2c1.8,8.5,2.4,19,3.9,19.6s19.4-7.7,11.5-29.8
		c-6.7-18.7-19.5-35.3-34.3-44.3c-14.4-8.9-32.9-8.6-47.1,0.7c-16,10.5-8.3,20-8.3,20c-1.8,0.8-26.8,19.1-32.1,36
		c-5.2,16.8,2.9,29.9,11.5,38.4c5.6,5.5,13.3,6.8,21.2,6.7c12.8-0.2-5.7,18.4-1,17.9c9.5-1.2,12.5-7.4,13.2-9s0.9-3.1-0.6-11.4
		c-1.9-10.8-6.6-21.2-6.9-22.7C335.8,122.9,358.2,122,356.8,103.1z"/>
</g>
</svg>
