<?xml version="1.0" encoding="utf-8"?>
<!-- Generator: Adobe Illustrator 26.0.3, SVG Export Plug-In . SVG Version: 6.00 Build 0)  -->
<svg version="1.1" id="Layer_1" xmlns="http://www.w3.org/2000/svg" xmlns:xlink="http://www.w3.org/1999/xlink" x="0px" y="0px"
	 viewBox="0 0 788 1005.1" style="enable-background:new 0 0 788 1005.1;" xml:space="preserve">
<style type="text/css">
	.st0{clip-path:url(#SVGID_00000031188494598856408470000002329357137323278471_);}
	.st1{fill:#B56D50;}
	.st2{clip-path:url(#SVGID_00000168118698536357377160000016733552359104577965_);}
	.st3{fill:#9E5E47;}
	.st4{fill:#681C23;}
	.st5{fill:#277A9B;}
	.st6{fill:#22677C;}
</style>
<g id="_Repetition_miroir_">
	<g>
		<defs>
			<polygon id="SVGID_1_" points="409.1,138.2 409.1,138.2 424.4,138.2 424.4,168.1 409.1,168.1 			"/>
		</defs>
		<clipPath id="SVGID_00000071527680775073805910000010975977110166182298_">
			<use xlink:href="#SVGID_1_"  style="overflow:visible;"/>
		</clipPath>
		<g style="clip-path:url(#SVGID_00000071527680775073805910000010975977110166182298_);">
			<path class="st1" d="M410.1,144.2c0,0,5.1-6.3,8.2-6c4.5,0.5,6.6,8.9,6,12.7c-0.7,4.8-5,15-10.3,17.1c-1,0.4-5-0.8-5-0.8
				L410.1,144.2z"/>
		</g>
	</g>
</g>
<g id="_Repetition_miroir_2">
	<g>
		<defs>
			<polygon id="SVGID_00000098183438222934818930000009808799989512054699_" points="339.6,138.2 339.6,138.2 324.2,138.2 
				324.2,168.1 339.6,168.1 			"/>
		</defs>
		<clipPath id="SVGID_00000107582589369856695120000003990708039467711144_">
			<use xlink:href="#SVGID_00000098183438222934818930000009808799989512054699_"  style="overflow:visible;"/>
		</clipPath>
		<g style="clip-path:url(#SVGID_00000107582589369856695120000003990708039467711144_);">
			<path class="st1" d="M338.6,144.2c0,0-5.1-6.3-8.2-6c-4.5,0.5-6.6,8.9-6,12.7c0.7,4.8,5,15,10.3,17.1c1,0.4,5-0.8,5-0.8
				L338.6,144.2z"/>
		</g>
	</g>
</g>
<path class="st3" d="M337.1,148.7c0,0-4.6-7.2-6.8-6.9c-1.8,0.3-2.3,6.5-2.3,6.5s0.7-4.4,4-1.6c2.3,2.1,5.1,9.4,5.1,9.4L337.1,148.7
	z"/>
<path class="st3" d="M411.6,149.3c0,0,4.6-7.2,6.8-6.9c1.8,0.3,2.3,6.5,2.3,6.5s-0.7-4.4-4-1.6c-2.3,2.1-5.1,9.4-5.1,9.4
	L411.6,149.3z"/>
<path class="st1" d="M411.3,120.1C408.1,93.5,376,93.5,376,93.5s-32.2-1.3-36,26.6c-2.9,21.9-5.2,38.2-0.1,49.5
	c4.8,10.7,15.7,31.6,25.8,36.1c3.2,1.2,6.6,1.8,10,1.9c3.1-0.2,6.2-0.8,9.1-1.9c10.1-4.5,21.1-25.5,25.5-36.1
	C414.9,158.1,413,142.1,411.3,120.1z"/>
<path class="st4" d="M387.8,88.2c-7.8-4.4,8.6-0.4-4.8,1.8s-4.6,7-13,3.8c-8.4-3.2-2-1.1-7.8,3.7c-5.8,4.8,0,0-6.1,0.2
	c-6.1,0.2-0.6-10.6,0-4.2c0.6,6.4-3.5-2.2,0,4.2s-9.6,1.6-8.4,3.8c1.2,2.2-9,2.4-6.7,7.2c2.3,4.8-7.9,11.2-8.8,15s-9.6,8.4-5.8,11.8
	s18.3,6.6,11.3,9.6c-7,3,8.7,0.5,4.3-5.4c-4.3-5.9-11.6-5.6-6.7-9.7c4.9-4,18.3-7.6,8.7-11c-9.6-3.4,1.2-1.6,2.3-10.2
	c0.3-2.3,10.4-5.5,14.5-5.9c13.1-1.2,30.7,1.7,45.8,18.3c0,0,1.5-4.1-2.1-9.2c0,0,9.2,12.6,7.2,30.6c0,0,8.6-5.4,8.6-12.8
	c0-7.4-7.3-6.2-7.3-17s0.6-2.7-6.6-12.7"/>
<path class="st5" d="M333.7,163.4l0.6-0.5c0.6-0.6,1.6-0.5,2.2,0.1l0.5,0.6c0.6,0.6,0.5,1.6-0.1,2.2l-0.6,0.5
	c-0.6,0.6-1.6,0.5-2.2-0.1l-0.5-0.6C333.1,164.9,333.1,163.9,333.7,163.4z"/>
<path class="st5" d="M414.7,163.1l0.6,0.5c0.7,0.6,0.7,1.5,0.2,2.2l-0.5,0.6c-0.6,0.7-1.5,0.7-2.2,0.2l-0.6-0.5
	c-0.7-0.6-0.7-1.5-0.2-2.2l0.5-0.6C413.1,162.6,414.1,162.5,414.7,163.1z"/>
<g>
	<path class="st5" d="M418.3,115.2c-1.2,4.3-0.6,9-2.2,13.6c-0.7,1.9-2.1,2.4-4.4,2.3c-2.8-0.2-5.4-1-8-1.7
		c-3.7-0.9-7.4-1.9-11.1-2.9c-10.2-3-20.2-2.5-30.5-0.3c-7.1,1.6-13.8,3.6-21.1,4.6c-5.6,0.9-6.6,0.4-7.9-3.9
		c-0.3-1-0.4-2.1-0.7-3.1c-0.5-3.1-0.4-6.4-1.4-9.6l17.2-2.2c17.9-2.3,36.3-2.1,54.1,0.8L418.3,115.2z"/>
	<path class="st6" d="M418.2,116.3c0.2-0.9,0.4-1.9,0.9-2.7c-0.9-9.5-3.1-18.2-6.9-26.6c-2.4-5.5-6.9-8.9-13-11.2
		c-2.9-1-6-1.7-9-2.4c-4.6-1-9.6-0.4-13.9-2.4c-1-0.5-2.3-0.2-3,0.4c-1.3,0.9-2.5,0.9-3.9,1c-4.9,0.2-9.6,1.2-14.1,2.3
		c-8,2.2-14.2,6-17,13.3c-2.3,5.5-4.3,11.3-5.4,17.2c-0.5,3.4-2.1,6.7-1,10l15.5-2.1c19.3-2.7,39-2.2,58.2,1L418.2,116.3z"/>
</g>
</svg>
