<?xml version="1.0" encoding="utf-8"?>
<!-- Generator: Adobe Illustrator 26.0.3, SVG Export Plug-In . SVG Version: 6.00 Build 0)  -->
<svg version="1.1" id="Layer_1" xmlns="http://www.w3.org/2000/svg" xmlns:xlink="http://www.w3.org/1999/xlink" x="0px" y="0px"
	 viewBox="0 0 788 1005.1" style="enable-background:new 0 0 788 1005.1;" xml:space="preserve">
<style type="text/css">
	.st0{fill:#681C23;}
	.st1{clip-path:url(#SVGID_00000003074504235883624270000006390315921714120869_);}
	.st2{fill:#B56D50;}
	.st3{fill:#9E5E47;}
	.st4{clip-path:url(#SVGID_00000158715407685494051560000007821693714535190165_);}
</style>
<path class="st0" d="M338.8,146.3c0.3,1.4,10.1,12.9,11.9,23c1.4,7.7,1.3,9.3,0.5,10.6c-0.7,1.4-3.5,7.2-12.4,8.5
	c14.4-34-38.7-29.6-29.6-59"/>
<g id="_Repetition_miroir_">
	<g>
		<defs>
			<polygon id="SVGID_1_" points="408.6,142.3 408.6,142.3 423.5,142.3 423.5,171.4 408.6,171.4 			"/>
		</defs>
		<clipPath id="SVGID_00000005988214067416888720000003680423781339494305_">
			<use xlink:href="#SVGID_1_"  style="overflow:visible;"/>
		</clipPath>
		<g style="clip-path:url(#SVGID_00000005988214067416888720000003680423781339494305_);">
			<path class="st2" d="M409.6,148.2c0,0,5-6.1,8-5.8c4.4,0.5,6.4,8.7,5.8,12.4c-0.7,4.6-4.8,14.6-10,16.6c-1,0.4-4.9-0.8-4.9-0.8
				L409.6,148.2z"/>
		</g>
	</g>
</g>
<path class="st3" d="M411.1,153.2c0,0,4.5-7,6.6-6.7c1.7,0.3,2.2,6.4,2.2,6.4s-0.7-4.3-3.9-1.5c-2.3,2-5,9.1-5,9.1L411.1,153.2z"/>
<path class="st2" d="M410.8,124.8c-3.1-25.8-34.3-25.8-34.3-25.8s-31.3-1.2-35,25.8c-2.9,21.3-5.1,37.1-0.1,48.1
	c4.6,10.4,15.2,30.7,25.1,35.1c3.1,1.2,6.4,1.8,9.7,1.9c3-0.2,6-0.8,8.9-1.8c9.8-4.3,20.5-24.8,24.7-35.1
	C414.3,161.7,412.4,146.2,410.8,124.8z"/>
<path class="st0" d="M309.3,129.5c3.1-10.1,13.7-20.7,21.5-27.2c2.6-2.4,5.6-4.5,8.5-6.5c0,0-7.5-9.6,5.6-19.5
	c0.5-0.4,1.2-0.8,1.9-1.2c8-4.8,17.6-6.8,26.9-5.8c17.7,2,45.9,10.1,49.3,42c0.4,4,1,8,1.7,11.9c2.9,16.7-11.1,23-12.3,22.5
	c-1.4-0.5-2-10.4-3.6-18.4c-3.8-17.9-38.8-13.6-41.8-14.3c-4.1-0.9-6.5-2-7.7-2.9c-0.6,6.2-4.3,10.1-7.9,14.3
	c-4.7,5.6-11.1,9.5-12.5,21.9"/>
<g id="_Repetition_miroir_2">
	<g>
		<defs>
			<polygon id="SVGID_00000111160430130605359810000005959754602862067637_" points="341.1,142.3 341.1,142.3 326.1,142.3 
				326.1,171.4 341.1,171.4 			"/>
		</defs>
		<clipPath id="SVGID_00000101797636337919121100000016454041202090751664_">
			<use xlink:href="#SVGID_00000111160430130605359810000005959754602862067637_"  style="overflow:visible;"/>
		</clipPath>
		<g style="clip-path:url(#SVGID_00000101797636337919121100000016454041202090751664_);">
			<path class="st2" d="M340.1,148.2c0,0-5-6.1-8-5.8c-4.4,0.5-6.4,8.7-5.8,12.4c0.7,4.6,4.8,14.6,10,16.6c1,0.4,4.9-0.8,4.9-0.8
				L340.1,148.2z"/>
		</g>
	</g>
</g>
<path class="st3" d="M338.7,152.6c0,0-4.5-7-6.6-6.7c-1.7,0.3-2.2,6.4-2.2,6.4s0.7-4.3,3.9-1.5c2.3,2,5,9.1,5,9.1L338.7,152.6z"/>
</svg>
