<?xml version="1.0" encoding="utf-8"?>
<!-- Generator: Adobe Illustrator 26.0.3, SVG Export Plug-In . SVG Version: 6.00 Build 0)  -->
<svg version="1.1" id="Layer_1" xmlns="http://www.w3.org/2000/svg" xmlns:xlink="http://www.w3.org/1999/xlink" x="0px" y="0px"
	 viewBox="0 0 788 1005.1" style="enable-background:new 0 0 788 1005.1;" xml:space="preserve">
<style type="text/css">
	.st0{clip-path:url(#SVGID_00000053509731474437446280000013094716088773050497_);}
	.st1{fill:#E78367;}
	.st2{clip-path:url(#SVGID_00000152222647726211689510000011240905260428239509_);}
	.st3{fill:#B56D50;}
	.st4{fill:#B85D40;}
	.st5{fill:#9E5E47;}
	.st6{fill:#681C23;}
</style>
<g id="_Repetition_miroir_">
	<g>
		<g>
			<defs>
				<polygon id="SVGID_1_" points="409,141.7 409,141.7 423.9,141.7 423.9,170.7 409,170.7 				"/>
			</defs>
			<clipPath id="SVGID_00000095324969627337197440000017510326920395039934_">
				<use xlink:href="#SVGID_1_"  style="overflow:visible;"/>
			</clipPath>
			<g style="clip-path:url(#SVGID_00000095324969627337197440000017510326920395039934_);">
				<path class="st1" d="M410,147.6c0,0,5-6.1,8-5.8c4.4,0.5,6.4,8.6,5.8,12.3c-0.7,4.6-4.8,14.5-10,16.6c-1,0.4-4.9-0.8-4.9-0.8
					L410,147.6z"/>
			</g>
		</g>
	</g>
</g>
<g id="_Repetition_miroir_2">
	<g>
		<g>
			<defs>
				<polygon id="SVGID_00000060719097656846113200000018031648464810193324_" points="341.5,141.7 341.5,141.7 326.6,141.7 
					326.6,170.7 341.5,170.7 				"/>
			</defs>
			<use xlink:href="#SVGID_00000060719097656846113200000018031648464810193324_"  style="overflow:visible;fill:#B56D50;"/>
			<clipPath id="SVGID_00000137839852255075351490000012161707295883477383_">
				<use xlink:href="#SVGID_00000060719097656846113200000018031648464810193324_"  style="overflow:visible;"/>
			</clipPath>
			<g style="clip-path:url(#SVGID_00000137839852255075351490000012161707295883477383_);">
				<path class="st3" d="M340.5,147.6c0,0-5-6.1-8-5.8c-4.4,0.5-6.4,8.6-5.8,12.3c0.7,4.6,4.8,14.5,10,16.6c1,0.4,4.9-0.8,4.9-0.8
					L340.5,147.6z"/>
			</g>
		</g>
	</g>
</g>
<path class="st4" d="M411.5,152.6c0,0,4.5-7,6.6-6.6c1.7,0.3,2.2,6.3,2.2,6.3s-0.7-4.2-3.9-1.5c-2.3,2-5,9.1-5,9.1L411.5,152.6z"/>
<path class="st3" d="M417.8,123.1c-4.3-39.2-41.2-34.3-41.2-34.3s-30.4-1.9-34.7,35.4c-2.4,21.3-5,37-0.1,47.9
	c4.6,10.3,15.2,30.6,25.1,35c3.1,1.1,6.4,1.8,9.7,1.9c3-0.2,6-0.8,8.9-1.9c9.8-4.3,20.5-24.7,24.7-35
	C416.5,156.6,419.1,139.8,417.8,123.1z"/>
<path class="st5" d="M339.1,152c0,0-4.5-7-6.6-6.6c-1.7,0.3-2.2,6.3-2.2,6.3s0.7-4.2,3.9-1.5c2.3,2,5,9.1,5,9.1L339.1,152z"/>
<path class="st6" d="M411.5,198.6c0.5,0.5,0,1.3-0.7,1.2c-17-2.9-18.1-6.5-8.7-19.1c6.9-9.3,11.2-19.7,13.8-30.9
	c2.9-12.1-15.3-39.4-27.3-42c-3.6-0.8-4.5,0.9-5.2,3.2c-5.2,19-24.5,2.2-38.4,9.7c-3.7,2-5.2,17.2-0.4,23.6
	c-0.7,5.3-11.9,14-7.6,15.7c7.8,3.2,13.5,7.2,8.3,15.6c-2.1,3.4,1.9,6.3,4.6,9.1c8.9,9.1,4.1,11.1-3.8,14.7
	c-3.3,1.5-10.2,4.1-4.5-5.1c2.8-4.5-2.7-6.5-6.7-6.9c-4.4-0.4-8.9,0.1-13.3-0.3c-10-1-16.6-4.8-11.1-16.2c2.7-5.5,1.4-9.2-3.5-12.5
	c-9.9-6.5-8.5-15.1-2.5-22.9c6.4-8.4,11.1-17.5,15-27.1c10.2-25.4,30-38.5,56.2-38.5c26.2,0.1,45.7,13.7,55.9,39
	c2.7,6.8,5.7,13.8,10,19.7c8.2,11.2,15.4,21.6-0.5,32.2c-3.4,2.2-2.7,5.7-1.1,9.3c5.8,13.4-1.8,16.8-13.2,17c-3,0-6-0.2-8.9,0.1
	C409.7,187.9,404.1,190.1,411.5,198.6z"/>
</svg>
