<svg id="Calque_9" data-name="Calque 9" xmlns="http://www.w3.org/2000/svg" xmlns:xlink="http://www.w3.org/1999/xlink" viewBox="0 0 488 455.71"><defs><style>.cls-1,.cls-12,.cls-9{fill:none;}.cls-2{clip-path:url(#clip-path);}.cls-3{fill:#745c62;}.cls-4{clip-path:url(#clip-path-2);}.cls-5{fill:#5e6d70;}.cls-6{fill:#90573a;}.cls-7{fill:#83b5c6;}.cls-8{fill:#6999aa;}.cls-9{stroke:#69a;}.cls-12,.cls-9{stroke-linecap:round;stroke-miterlimit:10;stroke-width:2px;}.cls-10{fill:#87b6c7;}.cls-11{fill:#69a;}.cls-12{stroke:#6399aa;}</style><clipPath id="clip-path"><polygon class="cls-1" points="244.13 -0.68 227.32 120.76 181.19 120.76 181.19 -0.68 244.13 -0.68"/></clipPath><clipPath id="clip-path-2"><polygon class="cls-1" points="244.13 -0.68 227.32 120.76 271.71 133.29 304.7 16.42 244.13 -0.68"/></clipPath></defs><g class="cls-2"><path class="cls-3" d="M272.91,9.25c11.53,6.66,16.27,11.58,18.27,18.57,1.61,5.67.17,32.37-.5,38.49-1.57,14.38-29.89,39.93-42.26,50.46-12.59,10.71-5.66-3.47-20.8-3.68-17.06-.25-48.7-45.24-46.3-59.51,1-6.07,8.07-34.41,11.16-39.42C196.3,8,202.21,4.52,215.11,1.25A72.78,72.78,0,0,1,244,.37S259.71,1.63,272.91,9.25Z"/></g><g class="cls-4"><path class="cls-3" d="M213.74,1.06C200.83,4.33,194.92,7.78,191.11,14c-3.09,5-9,31.11-10,37.18-2.4,14.26,17.93,46.54,27,60,9.2,13.72,6.39-1.8,21,2.1,16.48,4.4,59.16-30.31,60.73-44.69.67-6.12,1.58-35.3,0-41-2-7-6.74-11.91-18.27-18.57A72.56,72.56,0,0,0,244,.37S228.5-2.69,213.74,1.06Z"/></g><path class="cls-5" d="M184.37,251.16c1.21,10.93,8.45,19.21,16.94,19.37h0c8.12.17,15.06-7.13,16.58-17.42,0,0,8.81-73.39,9-99.72,0-6.23-1.58-24.89-1.58-24.89L221.39,85s-2.75-20.48-19.52-23c-19.32-2.9-19.65,10.51-19.65,10.51s-6.18,69-6,90.9C176.46,183.59,184.37,251.16,184.37,251.16Z"/><path class="cls-5" d="M322.24,243c.76,11-4.87,20.4-13.19,22.09h0c-8,1.62-16.1-4.32-19.44-14.17,0,0-21.83-70.61-26.76-96.48-1.16-6.12-2.91-24.77-2.91-24.77L256,86.23s-1-20.64,15.08-26.13c18.48-6.32,21.22,6.81,21.22,6.81s18.46,66.82,22.17,88.36C317.9,175.12,322.24,243,322.24,243Z"/><path class="cls-6" d="M201.25,233.8c-9.22.2-14.6,5.29-16,13.44,0,0-1.46,36.39-1.7,51.72-.38,24.57,2.47,74.71,6.47,98.93.88,5.3,2.76,21.33,2.76,21.33a8.92,8.92,0,0,0,9,8h0a8.93,8.93,0,0,0,8.23-8.66s.8-18.53,1.41-24.68c2.22-22.27,9.49-66.55,10-89,.31-13.49-2.3-54.79-2.3-54.79-1-13.57-10-16.24-17.93-16.37Z"/><path class="cls-6" d="M306.44,226.17c9.12-1.35,15.14,2.86,17.66,10.82,0,0,7.51,34.32,9.9,49.68,3.84,24.61,3.37,122,3.37,122,.07,4.89.24,11.39-4.22,11.92h0c-4.39.52-9.78-1.47-10.71-6.16,0,0-22.24-91-25.91-113.38-2.21-13.5-5.46-55.42-5.46-55.42-.91-13.8,7.6-18,15.37-19.44Z"/><path class="cls-7" d="M199.53,410.81h0a10.91,10.91,0,0,0-9.62,6.64h0c-4,8.94-20.83,20.91-20.83,20.91a11.31,11.31,0,0,0-3.79,10.6h0l41.09-.24,2.31-.75a6.18,6.18,0,0,0,4.1-6.49l-2.36-21.7A11.07,11.07,0,0,0,199.53,410.81Z"/><path class="cls-8" d="M166.47,448.74h0a6.47,6.47,0,0,1,5.13-7.5L196,437.32a6.13,6.13,0,0,1,6.86,4.9l1.41,6.16Z"/><path class="cls-9" d="M190.87,419.4s3.17-2.52,6-2.6a14,14,0,0,1,6.84,2.06"/><path class="cls-9" d="M188,424.29s3.23-2.43,6.07-2.43a14,14,0,0,1,6.79,2.26"/><path class="cls-10" d="M331.57,416.08c4.24-2.12,3.75-6.11,5.38-8.42,1-1.39,5.21-3.05,5.91-1.38,8.1,19.24,42.79,28.39,42.79,28.39,3.78,3.11,4.8,7.63,4.32,12.46h0s-29.75,11-45.67.46c-3.19-2.11-11.33-2.81-11.33-2.81s-14.52.55-13.92-5.37l1.17-26.72C321.11,406.22,324.29,419.73,331.57,416.08Z"/><path class="cls-11" d="M390.32,447.06c.23-7.83-3.45-12.53-4.61-12.28-1.69.37-4.32,2.31-6,2.77-2.65.74-10.82.34-10.82.34-2.09-.16-3.7,2.6-3.7,6.36l.2,7.49s5,.6,16.63-2.28C384,449,390.32,447.06,390.32,447.06Z"/><path class="cls-12" d="M347.72,416.3a17.72,17.72,0,0,1-6,2.19"/><path class="cls-12" d="M351.75,420.39a18.65,18.65,0,0,1-5.9,2.69"/><path class="cls-10" d="M178.46,53.94c-2.9,5.3-16.33,330.16-12.07,330.16s62.22,13.69,60.51,11.13,26.18-260,26.18-260L244,7.34s-56.86,8.29-55.53,9.82Z"/><path class="cls-10" d="M306.82,51.84c3.25,5.09,38.48,328.32,34.22,328.61s-61.16,17.83-59.63,15.16-38.85-258.07-38.85-258.07l-.05-131s52.9-1.48,51.68.14Z"/><polygon class="cls-10" points="294.19 6.63 188.47 17.16 204.51 -16.02 281.39 -16.02 294.19 6.63"/></svg>