<svg id="Calque_9" data-name="Calque 9" xmlns="http://www.w3.org/2000/svg" xmlns:xlink="http://www.w3.org/1999/xlink" viewBox="0 0 788 1005"><defs><style>.cls-1,.cls-12,.cls-9{fill:none;}.cls-2{clip-path:url(#clip-path);}.cls-3{fill:#745c62;}.cls-4{clip-path:url(#clip-path-2);}.cls-5{fill:#5e6d70;}.cls-6{fill:#90573a;}.cls-7{fill:#83b5c6;}.cls-8{fill:#6999aa;}.cls-9{stroke:#69a;}.cls-12,.cls-9{stroke-linecap:round;stroke-miterlimit:10;stroke-width:2px;}.cls-10{fill:#87b6c7;}.cls-11{fill:#69a;}.cls-12{stroke:#6399aa;}.cls-13{fill:#4e6566;}</style><clipPath id="clip-path"><polygon class="cls-1" points="403.03 474.29 383.64 595.93 338.91 595.93 338.91 474.29 403.03 474.29"/></clipPath><clipPath id="clip-path-2"><polygon class="cls-1" points="403.03 474.29 383.64 595.93 426.15 609.84 463.97 494.23 403.03 474.29"/></clipPath></defs><g class="cls-2"><path class="cls-3" d="M431.55,485.09c11.39,6.89,16,11.91,17.89,18.94,1.49,5.69-.49,32.37-1.29,38.47-1.86,14.34-30.71,39.3-43.29,49.58-12.8,10.45-5.59-3.59-20.72-4.11-17-.59-47.75-46.23-45.07-60.44,1.14-6,8.78-34.24,12-39.18,3.95-6.11,9.92-9.44,22.89-12.45a72.72,72.72,0,0,1,28.88-.29S418.51,477.2,431.55,485.09Z"/></g><g class="cls-4"><path class="cls-3" d="M372.56,475.68c-13,3-18.94,6.34-22.89,12.45-3.19,4.94-9.6,30.91-10.74,37-2.68,14.21,17,46.9,25.74,60.58,8.91,13.91,6.42-1.67,21,2.54,16.39,4.73,59.77-29.09,61.63-43.44.8-6.1,2.3-35.27.81-41-1.85-7-6.5-12.05-17.89-18.94a72.55,72.55,0,0,0-27.36-9.25S387.4,472.24,372.56,475.68Z"/></g><path class="cls-5" d="M350.25,727.19c1.88,10.84,9.6,18.65,18.09,18.3h0c8.11-.33,14.6-8,15.49-18.4,0,0,4.34-73.78,2.94-100.08-.33-6.22-3.09-24.75-3.09-24.75l-6.56-43.13s-4-20.28-20.89-21.78c-19.45-1.72-19,11.68-19,11.68s-2,69.29-.43,91.1C338.25,660.22,350.25,727.19,350.25,727.19Z"/><path class="cls-5" d="M475.3,723.38c.32,11-5.69,20.2-14.08,21.55h0c-8,1.3-15.9-5-18.84-14.94,0,0-19-71.44-22.86-97.48-.91-6.16-1.91-24.87-1.91-24.87l-2.17-43.58s-.14-20.67,16.12-25.5c18.72-5.57,20.92,7.66,20.92,7.66s15.76,67.5,18.6,89.17C473.69,655.37,475.3,723.38,475.3,723.38Z"/><path class="cls-6" d="M366,708.83c-9.18.77-14.24,6.17-15.13,14.39,0,0,.74,36.41,1.44,51.72,1.11,24.55,7,74.42,12.47,98.36,1.2,5.24,4.05,21.12,4.05,21.12a8.9,8.9,0,0,0,9.51,7.48h0a8.92,8.92,0,0,0,7.68-9.14s-.32-18.55-.09-24.72c.87-22.37,5.43-67,4.59-89.41-.51-13.48-5.62-54.55-5.62-54.55-1.85-13.48-11-15.6-18.9-15.25Z"/><path class="cls-6" d="M468.14,711.62c8.36,3.88,11.09,10.71,8.82,18.74,0,0-12.55,32.82-19,47-10.3,22.69-64.11,103.82-64.11,103.82-2.64,4.13-6.05,9.66-10.08,7.65h0c-3.95-2-7.37-6.58-5.57-11,0,0,31.32-88.27,40.55-109,5.55-12.49,25.84-49.33,25.84-49.33,6.81-12,16.23-10.87,23.52-7.82Z"/><path class="cls-7" d="M377.08,885.5h0a10.9,10.9,0,0,0-9.2,7.21h0c-3.44,9.17-19.53,22.14-19.53,22.14a11.34,11.34,0,0,0-3.13,10.81h0l41-2.74,2.26-.88a6.19,6.19,0,0,0,3.69-6.74l-3.67-21.51A11.08,11.08,0,0,0,377.08,885.5Z"/><path class="cls-8" d="M346.39,925.37h0a6.47,6.47,0,0,1,4.66-7.81l24.15-5.39a6.14,6.14,0,0,1,7.15,4.47l1.78,6.07Z"/><path class="cls-9" d="M369,894.6s3-2.71,5.84-3a14,14,0,0,1,7,1.64"/><path class="cls-9" d="M366.35,899.66s3.07-2.63,5.91-2.8a14.08,14.08,0,0,1,6.92,1.84"/><path class="cls-10" d="M392.35,873.19c4.73-.3,5.84-4.17,8.24-5.65,1.44-.9,6-.78,6,1-.05,20.87,28.32,42.84,28.32,42.84,2.26,4.34,1.43,8.9-.89,13.16h0s-31.68-1.52-42.23-17.4c-2.12-3.19-9.33-7-9.33-7s-13.59-5.16-10.73-10.38l11.52-24.15C386.57,860,384.22,873.7,392.35,873.19Z"/><path class="cls-11" d="M434.34,924.64c3.27-7.12,1.73-12.88.55-13.1-1.69-.32-4.87.44-6.59.21-2.73-.35-10.09-3.91-10.09-3.91-1.87-1-4.43.95-5.89,4.41l-2.75,7s4.37,2.5,16.21,4.39C427.74,923.93,434.34,924.64,434.34,924.64Z"/><path class="cls-12" d="M407.14,879.69a17.79,17.79,0,0,1-6.41-.33"/><path class="cls-12" d="M409.25,885a18.5,18.5,0,0,1-6.49.17"/><path class="cls-13" d="M437.31,891.61c-5.56,1.87-64.59-1.83-64.59-1.83s45.9-170.73,50.22-180.2L396.85,594.47c3.88,15.37-2.67,112.34-2.69,114.33s3.68,182.81,3.68,182.81l-63.73,5.24-.54-319.73L337.25,523s5.67-29.89,8.67-30.87,73-.44,105.26-.44l7.48,41.77,25.73,184.58Z"/></svg>