<svg id="Calque_9" data-name="Calque 9" xmlns="http://www.w3.org/2000/svg" xmlns:xlink="http://www.w3.org/1999/xlink" viewBox="0 0 488 455.71"><defs><style>.cls-1,.cls-8{fill:none;}.cls-2{clip-path:url(#clip-path);}.cls-3{fill:#43516d;}.cls-4{clip-path:url(#clip-path-2);}.cls-5{fill:#5e6d70;}.cls-6{fill:#9e6754;}.cls-7{fill:#c67870;}.cls-8{stroke:#43516d;stroke-miterlimit:10;}</style><clipPath id="clip-path"><rect class="cls-1" x="189" y="-0.24" width="54.78" height="119.65"/></clipPath><clipPath id="clip-path-2"><rect class="cls-1" x="243.79" y="-0.24" width="54.78" height="119.65"/></clipPath></defs><g id="random" data-name="&lt;Répétition miroir&gt;"><g class="cls-2"><path class="cls-3" d="M273.65,4.64c12.34,5,17.72,9.23,20.65,15.89,2.37,5.39,4.61,32,4.79,38.19.41,14.46-24.14,43.65-34.95,55.77-11,12.34-6.08-2.65-21.11-.79-16.92,2.1-54.44-38.14-54-52.59.17-6.16,3.28-35.19,5.65-40.58C197.6,13.87,203,9.65,215.31,4.64A72.52,72.52,0,0,1,243.78-.19S259.54-1.1,273.65,4.64Z"/></g></g><g id="random2" data-name="&lt;Répétition miroir&gt;"><g class="cls-4"><path class="cls-3" d="M213.92,4.64c-12.33,5-17.71,9.23-20.65,15.89-2.37,5.39-4.61,32-4.78,38.19-.42,14.46,24.14,43.65,34.95,55.77,11,12.34,6.08-2.65,21.1-.79,16.93,2.1,54.44-38.14,54-52.59-.18-6.16-3.28-35.19-5.66-40.58C290,13.87,284.6,9.65,272.26,4.64A72.52,72.52,0,0,0,243.79-.19S228-1.1,213.92,4.64Z"/></g></g><path class="cls-5" d="M190.37,251.16c1.21,10.93,8.45,19.21,16.94,19.37h0c8.12.17,15.06-7.13,16.58-17.42,0,0,8.81-73.39,9-99.72,0-6.23-1.58-24.89-1.58-24.89L227.39,85s-2.75-20.48-19.52-23c-19.32-2.9-19.65,10.51-19.65,10.51s-6.18,69-6,90.9C182.46,183.59,190.37,251.16,190.37,251.16Z"/><path class="cls-5" d="M322.49,244.15c.46,11-5.43,20.26-13.8,21.72h0c-8,1.4-16-4.76-19-14.7,0,0-19.87-71.19-24.08-97.19-1-6.15-2.22-24.84-2.22-24.84l-2.72-43.55s-.39-20.66,15.8-25.7c18.65-5.81,21,7.39,21,7.39s16.6,67.31,19.71,88.94C320,176.16,322.49,244.15,322.49,244.15Z"/><path class="cls-6" d="M207.25,233.8c-9.22.2-14.6,5.29-16,13.44,0,0-1.46,36.39-1.7,51.72-.38,24.57,2.47,74.71,6.47,98.93.88,5.3,2.76,21.33,2.76,21.33a8.92,8.92,0,0,0,9,8h0a8.93,8.93,0,0,0,8.23-8.66s.8-18.53,1.41-24.68c2.22-22.27,9.49-66.55,10-89,.31-13.49-2.3-54.79-2.3-54.79-1-13.57-10-16.24-17.93-16.37Z"/><path class="cls-6" d="M307.17,226.87c9.14-1.09,15.05,3.28,17.34,11.31,0,0,6.56,34.51,8.53,49.93,3.16,24.71,0,122,0,122-.07,4.89-.07,11.39-4.55,11.8h0c-4.4.4-9.73-1.74-10.53-6.45,0,0-19.71-91.56-22.76-114.07-1.84-13.55-3.92-55.54-3.92-55.54-.53-13.82,8.1-17.78,15.91-19Z"/><path class="cls-7" d="M207.53,410.81h0a10.91,10.91,0,0,0-9.62,6.64h0c-4,8.94-20.83,20.91-20.83,20.91a11.31,11.31,0,0,0-3.79,10.6h0l41.09-.24,2.31-.75a6.18,6.18,0,0,0,4.1-6.49l-2.36-21.7A11.07,11.07,0,0,0,207.53,410.81Z"/><path class="cls-3" d="M174.47,448.74h0a6.47,6.47,0,0,1,5.13-7.5L204,437.32a6.13,6.13,0,0,1,6.86,4.9l1.41,6.16Z"/><path class="cls-8" d="M198.87,419.4s3.17-2.52,6-2.6a14,14,0,0,1,6.84,2.06"/><path class="cls-8" d="M196,424.29s3.23-2.43,6.07-2.43a14,14,0,0,1,6.79,2.26"/><path class="cls-7" d="M327,417.41c4.29-2,3.92-6,5.61-8.27,1-1.36,5.29-2.91,5.94-1.21,7.57,19.45,42,29.55,42,29.55,3.69,3.22,4.58,7.77,4,12.58h0s-30,10.14-45.66-.8c-3.14-2.2-11.25-3.13-11.25-3.13s-14.53.15-13.77-5.75l1.92-26.68C316.84,407.26,319.64,420.85,327,417.41Z"/><path class="cls-3" d="M384.88,450c.45-7.82-3.09-12.63-4.27-12.41-1.69.32-4.38,2.19-6.05,2.61-2.68.66-10.83,0-10.83,0-2.09-.22-3.77,2.49-3.88,6.25V454s5,.73,16.69-1.82C378.47,451.75,384.88,450,384.88,450Z"/><path class="cls-8" d="M343.16,418.07a17.81,17.81,0,0,1-6.09,2"/><path class="cls-8" d="M347.07,422.27a18.42,18.42,0,0,1-6,2.53"/><path class="cls-3" d="M221.05,394h0C220.57,389.61,241,119.41,241,119.41h11.57s23.07,137.41,26.35,146,20.18,123.73,20.18,123.73,36.56-1.36,38,2.51,0-106.93,0-106.93l-21.74-139L305,83.39l-9.62-63.78S189.52,7,189.52,17.72,183,59.82,183,59.82l-3.5,119L183.29,399,221.05,394"/><rect class="cls-3" x="175.31" y="381.62" width="56.65" height="18.74" transform="translate(-35.02 20.34) rotate(-5.27)"/><rect class="cls-3" x="292" y="372.34" width="52.08" height="21.65" transform="translate(-33.82 30.8) rotate(-5.27)"/></svg>