<svg id="Calque_9" data-name="Calque 9" xmlns="http://www.w3.org/2000/svg" xmlns:xlink="http://www.w3.org/1999/xlink" viewBox="0 0 488 455.71"><defs><style>.cls-1,.cls-12,.cls-9{fill:none;}.cls-2{clip-path:url(#clip-path);}.cls-3{fill:#745c62;}.cls-4{clip-path:url(#clip-path-2);}.cls-5{fill:#5e6d70;}.cls-6{fill:#90573a;}.cls-7{fill:#83b5c6;}.cls-8{fill:#6999aa;}.cls-9{stroke:#69a;}.cls-12,.cls-9{stroke-linecap:round;stroke-miterlimit:10;stroke-width:2px;}.cls-10{fill:#87b6c7;}.cls-11{fill:#69a;}.cls-12{stroke:#6399aa;}.cls-13{fill:#4e6566;}</style><clipPath id="clip-path"><polygon class="cls-1" points="253.03 -0.77 233.64 120.87 188.91 120.87 188.91 -0.77 253.03 -0.77"/></clipPath><clipPath id="clip-path-2"><polygon class="cls-1" points="253.03 -0.77 233.64 120.87 276.15 134.78 313.97 19.17 253.03 -0.77"/></clipPath></defs><g class="cls-2"><path class="cls-3" d="M281.55,10c11.39,6.89,16,11.91,17.89,19,1.49,5.69-.49,32.36-1.29,38.47-1.86,14.34-30.71,39.3-43.29,49.57-12.8,10.45-5.59-3.58-20.72-4.1-17-.6-47.75-46.23-45.07-60.44,1.14-6,8.78-34.24,12-39.19C205,7.17,211,3.85,223.93.84A72.72,72.72,0,0,1,252.81.55S268.51,2.14,281.55,10Z"/></g><g class="cls-4"><path class="cls-3" d="M222.56.62c-13,3-18.94,6.33-22.89,12.44-3.19,5-9.6,30.92-10.74,37-2.68,14.21,17,46.9,25.74,60.58,8.91,13.91,6.42-1.67,21,2.53,16.39,4.74,59.77-29.09,61.63-43.43.8-6.1,2.3-35.27.81-41-1.85-7-6.5-12.06-17.89-18.95A72.76,72.76,0,0,0,252.82.55S237.4-2.82,222.56.62Z"/></g><path class="cls-5" d="M200.25,252.13c1.88,10.83,9.6,18.65,18.09,18.3h0c8.11-.33,14.6-8,15.49-18.4,0,0,4.34-73.78,2.94-100.08-.33-6.22-3.09-24.75-3.09-24.75l-6.56-43.14s-4-20.28-20.89-21.77c-19.45-1.72-19,11.68-19,11.68s-2,69.29-.43,91.09C188.25,185.16,200.25,252.13,200.25,252.13Z"/><path class="cls-5" d="M325.3,248.32c.32,11-5.69,20.2-14.08,21.55h0c-8,1.29-15.9-5-18.84-14.94,0,0-19-71.44-22.86-97.48-.91-6.17-1.91-24.87-1.91-24.87L265.44,89s-.14-20.67,16.12-25.5c18.72-5.58,20.92,7.66,20.92,7.66s15.76,67.5,18.6,89.17C323.69,180.3,325.3,248.32,325.3,248.32Z"/><path class="cls-6" d="M216,233.77c-9.18.76-14.24,6.17-15.13,14.39,0,0,.74,36.41,1.44,51.72,1.11,24.55,7,74.42,12.47,98.36,1.2,5.24,4.05,21.12,4.05,21.12a8.91,8.91,0,0,0,9.51,7.48h0a8.93,8.93,0,0,0,7.68-9.14s-.32-18.55-.09-24.72c.87-22.37,5.43-67,4.59-89.41-.51-13.48-5.62-54.55-5.62-54.55-1.85-13.48-11-15.6-18.9-15.25Z"/><path class="cls-6" d="M318.14,236.56c8.36,3.88,11.09,10.7,8.82,18.74,0,0-12.55,32.82-19,47-10.3,22.68-64.11,103.82-64.11,103.82-2.64,4.13-6,9.66-10.08,7.65h0c-4-2-7.37-6.59-5.57-11,0,0,31.32-88.26,40.55-109,5.55-12.5,25.84-49.33,25.84-49.33,6.81-12,16.23-10.87,23.52-7.82Z"/><path class="cls-7" d="M227.08,410.44h0a10.9,10.9,0,0,0-9.2,7.21h0c-3.44,9.16-19.53,22.14-19.53,22.14a11.33,11.33,0,0,0-3.13,10.8h0l41-2.73,2.26-.88a6.19,6.19,0,0,0,3.69-6.74l-3.67-21.52A11.07,11.07,0,0,0,227.08,410.44Z"/><path class="cls-8" d="M196.39,450.3h0a6.47,6.47,0,0,1,4.66-7.8l24.15-5.39a6.14,6.14,0,0,1,7.15,4.47l1.78,6.07Z"/><path class="cls-9" d="M219,419.54s3-2.72,5.84-3a13.92,13.92,0,0,1,7,1.64"/><path class="cls-9" d="M216.35,424.59s3.07-2.62,5.91-2.79a14.08,14.08,0,0,1,6.92,1.84"/><path class="cls-10" d="M242.35,398.13c4.73-.3,5.84-4.17,8.24-5.65,1.44-.9,6-.78,6,1-.05,20.87,28.32,42.84,28.32,42.84,2.26,4.33,1.43,8.9-.89,13.16h0S252.32,448,241.77,432.1c-2.12-3.18-9.33-7-9.33-7s-13.59-5.16-10.73-10.38l11.52-24.15C236.57,385,234.22,398.64,242.35,398.13Z"/><path class="cls-11" d="M284.34,449.58c3.27-7.12,1.73-12.88.55-13.11-1.69-.31-4.87.44-6.59.22-2.73-.36-10.09-3.91-10.09-3.91-1.87-1-4.43,1-5.89,4.41l-2.75,7s4.37,2.5,16.21,4.39C277.74,448.86,284.34,449.58,284.34,449.58Z"/><path class="cls-12" d="M257.14,404.63a18,18,0,0,1-6.41-.33"/><path class="cls-12" d="M259.25,410a18.5,18.5,0,0,1-6.49.17"/><path class="cls-13" d="M287.31,416.54c-5.56,1.88-64.59-1.82-64.59-1.82s45.9-170.73,50.22-180.2L246.85,119.41c3.88,15.37-2.67,112.34-2.69,114.33s3.68,182.8,3.68,182.8l-63.73,5.25-.54-319.73L187.25,48s5.67-29.89,8.67-30.87,73-.44,105.26-.44l7.48,41.77L334.39,243Z"/></svg>