<?xml version="1.0" encoding="utf-8"?>
<!-- Generator: Adobe Illustrator 26.0.3, SVG Export Plug-In . SVG Version: 6.00 Build 0)  -->
<svg version="1.1" id="Layer_1" xmlns="http://www.w3.org/2000/svg" xmlns:xlink="http://www.w3.org/1999/xlink" x="0px" y="0px"
	 viewBox="0 0 588 328.3" style="enable-background:new 0 0 588 328.3;" xml:space="preserve">
<style type="text/css">
	.st0{fill:#E78367;}
	.st1{fill:#B7837E;}
	.st2{fill:#C58C85;}
	.st3{fill:#9F6042;}
	.st4{fill:#B55943;}
	.st5{clip-path:url(#SVGID_00000152245350872363335380000010010667006370099369_);}
	.st6{fill:#3A7B61;}
	.st7{clip-path:url(#SVGID_00000005227507091069016660000009161737628121714830_);}
	.st8{fill:#65C2C4;}
	.st9{fill:#3CA5A5;}
</style>
<g id="Calque_4">
	<path class="st0" d="M449.2,105.4l2.2,18.2l-21.1,75.3h-92.1l-22.5-75.6l2.6-18.7l-17-36.8l37.9-15.2l13.4-5.4
		c7.7-3.1,12.8-10.6,12.8-18.9V15.5h38.4V28c0,8.5,5.3,16.1,13.3,19.1l12.9,4.8l38.5,14.2L449.2,105.4z"/>
	<path class="st1" d="M430,52c-11.1,8.7-34,13.9-49.7,13.9c-11.1,0-29.6-7-41.1-13.3l13.4-5.4c7.7-3.1,12.8-10.6,12.8-18.9V16.8
		l0.3-1.3l0.1-0.4h38v13c0,8.5,5.3,16.1,13.3,19.1L430,52z"/>
</g>
<g id="Calque_3">
	<path class="st2" d="M298.3,184.1L298.3,184.1L298.3,184.1l34.5-89.8l0,0c4.4-11.5-0.9-24.5-12.1-29.6c-10.5-4.7-22.8,0-27.5,10.5
		c-0.2,0.5-0.4,0.9-0.6,1.4c-0.1,0.2-0.1,0.3-0.2,0.5l-24.7,97.6c-2.4,9.8,1.6,18.5,8.9,21C284.8,198.4,293.3,197.8,298.3,184.1z"/>
	<path class="st2" d="M297.5,178.1c0.3-13.3-8.8-22-20.9-22.5c-0.3,0-5.7,0.3-5.7,0.3l-94.6,14.3c0,0-7.6,0-7.6,9.3
		c0,8.3,8.7,8.3,8.7,8.3l88.7,12.2c10.2,1.4,20.6,0.5,27.6-7.7C296.5,188.9,297.4,182.2,297.5,178.1z"/>
	<path class="st3" d="M272.3,207.7v-0.1l-0.7-0.1h-0.2L272.3,207.7z"/>
	<path class="st2" d="M177.2,170.9c0.5,0.4,0.8,1,1.1,1.6c1.2,3.3,4.9,13.9,0.6,14.4l-1.8,0.2l-40,2.6c-0.3,0-0.6,0-0.8,0L94.3,184
		c-3-0.4-4.6-3.8-3-6.4l0.2-0.4c0.6-0.9,1.4-1.6,2.5-1.8l5-1.4c0.5-0.1,0.9-0.2,1.4-0.1l32.1,2.2c0.9,0.1,1.8-0.2,2.5-0.6l5-3.2
		c2.6-1.6,2.6-5.3,0.1-7l-12.1-8.4c-1.8-1.3-2.4-3.7-1.2-5.6l0,0c1.1-1.8,3.4-2.6,5.3-1.7l16.9,7.5c0.2,0.1,0.5,0.2,0.7,0.2
		l16.2,3.9c0.7,0.2,1.4,0.5,1.9,1L177.2,170.9z"/>
	<path class="st2" d="M497.1,185L497.1,185L497.1,185l-12.2-99.1l0,0c-1.6-12.6-12.8-22.5-25-22.1c-12.2,0.4-20.9,11.1-19.3,23.8
		c0,0.2,0,0.4,0.1,0.6l24.7,102c2.6,10.2,10.3,16.5,18,15.4C491.9,204.4,499.3,200,497.1,185z"/>
	<path class="st2" d="M491,179.1c-8.3-9-20.2-8.3-28.9,0.1c-0.2,0.2-3.7,4.3-3.7,4.3L402.3,261c0,0-5.3,5.5,0.7,11.6
		c5.4,5.5,11.3-0.7,11.3-0.7l69-55.7c8-6.4,14.5-14.5,14.1-25C497.3,186.9,493.6,181.9,491,179.1z"/>
	<path class="st3" d="M498,220.7l-0.1-0.1c-0.2,0.1-0.4,0.2-0.6,0.4l-0.1,0.1L498,220.7z"/>
	<path class="st0" d="M449.6,106.2l2.2,17.1l-21.3,70.8h-92.9l-8.6-70.4l-11.4-18.2l-17.2-34.6l51.7-19.4
		c7.8-2.9,12.9-9.9,12.9-17.7v-12h38.8v11.8c0,8,5.4,15.2,13.4,17.9L469,69.3L449.6,106.2z"/>
	<path class="st4" d="M365,22h38.7v9.9l0,0c-8.7,10.3-14.4,14.9-21,14.8c-5,0-12.8-9.1-17.8-12.8l0.1-1.8L365,22z"/>
	<g id="_Repetition_miroir_">
		<g>
			<g>
				<defs>
					<rect id="SVGID_1_" x="298.9" y="20.7" width="85.4" height="270.3"/>
				</defs>
				<clipPath id="SVGID_00000045588718348928825660000009497801042048423587_">
					<use xlink:href="#SVGID_1_"  style="overflow:visible;"/>
				</clipPath>
				<g style="clip-path:url(#SVGID_00000045588718348928825660000009497801042048423587_);">
					<path class="st6" d="M329.9,196.1c0.4-33.8-31-132.2-31-132.2L362,36.2l0.9-15.1l42.2-0.4l10.6,15l53.9,21.2l-33.3,103.4
						l-41.8,130.6h-89C305.6,291,329.6,220.5,329.9,196.1z"/>
				</g>
			</g>
		</g>
	</g>
	<g id="_Repetition_miroir_2">
		<g>
			<g>
				<defs>
					<rect id="SVGID_00000031191169943469659420000015810834515605110914_" x="384.3" y="20.7" width="85.4" height="270.3"/>
				</defs>
				<clipPath id="SVGID_00000057870133806488939880000005253584274633853115_">
					<use xlink:href="#SVGID_00000031191169943469659420000015810834515605110914_"  style="overflow:visible;"/>
				</clipPath>
				<g style="clip-path:url(#SVGID_00000057870133806488939880000005253584274633853115_);">
					<path class="st6" d="M438.7,196.1c-0.4-33.8,31-132.2,31-132.2l-63.1-27.7l-0.9-15.1l-42.2-0.4l-10.6,15L299,56.9l33.3,103.4
						l41.8,130.6h89C463,290.9,439,220.5,438.7,196.1z"/>
				</g>
			</g>
		</g>
	</g>
</g>
<path class="st8" d="M362,36.2l-68.2,29.7l18.3,82.2L298.9,291l43.8,13.5c27.5,8.5,56.9,8.4,84.4-0.2l42.6-13.3l-20.9-135.5
	l26.5-91.6l-68.7-27.7l-0.9-15.1h-42.8L362,36.2z"/>
<path class="st9" d="M304.9,54.6c1.6,3.5,1.3,5.4,5.4,5.7c8.3,0.6,35.7-14.3,31.3-13.4c0,0-0.9-7.6-3.7-6.1
	C335.2,42.3,304.9,54.6,304.9,54.6z"/>
<path class="st9" d="M427.9,40.7c-1.2,3.7-2.7,4.9,0.1,7.9c5.7,6,36,13.5,32.1,11.2c0,0,4.4-6.3,1.4-7S427.9,40.7,427.9,40.7z"/>
</svg>
