<?xml version="1.0" encoding="utf-8"?>
<!-- Generator: Adobe Illustrator 26.0.3, SVG Export Plug-In . SVG Version: 6.00 Build 0)  -->
<svg version="1.1" id="Calque_1" xmlns="http://www.w3.org/2000/svg" xmlns:xlink="http://www.w3.org/1999/xlink" x="0px" y="0px"
	 viewBox="0 0 588 328.3" style="enable-background:new 0 0 588 328.3;" xml:space="preserve">
<style type="text/css">
	.st0{fill:#1C1938;}
	.st1{fill:#375D63;}
	.st2{fill:#B22947;}
	.st3{fill:#C58C85;}
	.st4{fill:#F7A386;}
	.st5{fill:#B7837E;}
	.st6{fill:#87213C;}
	.st7{fill:#FF9603;}
	.st8{fill:#D8C5A7;}
	.st9{fill:#FEBC6E;}
	.st10{fill:#FFFFFF;}
	.st11{fill:#35912D;}
	.st12{fill:#E0AA4B;}
	.st13{fill:#7097BA;}
	.st14{fill:#BA3E35;}
</style>
<g>
	<path class="st0" d="M484,16.7c-2.7,56.1-10.3,112.1-22.7,166.9C464.1,127.4,471.7,71.4,484,16.7L484,16.7z"/>
</g>
<path class="st1" d="M359.1,310.2c-23.3,2.5-44.5,10-69.8,18.3c0,0-11.5,0.5-10.8-0.1l-70.8-16.6l5.9-58.4
	c1.1-10.7,10.1-18.8,20.8-18.8h99.9c11,0,20.1,8.5,20.8,19.4L359.1,310.2z"/>
<path class="st2" d="M369.3,80.9c0,3.6-12.5,58.1-12.5,61.8c0,3.1-3.2,59.3-4.1,75.5c-0.2,2.9,0,5.8,0.5,8.7L389,392
	c1.7,12.1-18,23.2-29.1,25c-0.1,0-0.2,0-0.2,0s-58.9,12.2-78.7,11.5c-19.2-0.8-83.2-17.4-83.2-17.4c-10.2-2.4-21.1-12.8-19.9-24.1
	l34.3-159.6c0.5-2.8,0.6-5.6,0.4-8.4l-6.4-81.3L199.1,90l22.9-4.3l41.7-24.2l5.5,12.2H297l7.1-17.5L369.3,80.9z"/>
<path class="st3" d="M137.3,187.1L137.3,187.1L137.3,187.1l46.9-96.4l0,0c5.9-12.3,21-17.1,33.6-10.9c12.5,6.3,17.9,21.4,12,33.7
	c-0.1,0.1-0.2,0.4-0.3,0.5l-60.8,93.5c-6.3,9.3-16.4,12.2-24,7.4C136.1,209.6,129.9,201.6,137.3,187.1z"/>
<path class="st3" d="M151.1,176.9c13.4-3.3,24.7,4.6,28.5,17.7c0.1,0.3,1.2,6.3,1.2,6.3L191,307.8c0,0,2.1,8.3-7.5,10.4
	c-8.5,1.9-10.8-7.6-10.8-7.6l-35.8-94.3c-4.1-10.9-3.3-23.3,3.2-32.9C142.9,179.6,146.9,177.9,151.1,176.9z"/>
<path class="st4" d="M108.5,195.4l0.1-0.1c0.2,0.2,0.4,0.4,0.6,0.6l0.1,0.1L108.5,195.4z"/>
<path class="st3" d="M426.1,189.9L426.1,189.9L426.1,189.9l-44.6-97.5l0,0c-5.7-12.5-20.6-17.6-33.3-11.7
	c-12.7,5.9-18.4,20.9-12.7,33.4c0.1,0.1,0.2,0.4,0.3,0.6l58.5,94.9c5.9,9.4,16.2,12.5,23.8,8C426.9,212.4,433.1,204.6,426.1,189.9z"
	/>
<path class="st3" d="M406.8,220.4c12.5,6,25.2,0.5,31.4-11.7c0.2-0.2,2.4-5.9,2.4-5.9L472,100.2c0,0,3.7-7.7-5.2-11.7
	c-7.9-3.6-12.1,5.3-12.1,5.3l-53.8,85.3c-6.2,9.8-10.3,20.7-5.8,31.5C396.9,214.8,402.9,218.4,406.8,220.4z"/>
<path class="st4" d="M455.4,184.1L455.4,184.1c-0.3,0.1-0.4,0.3-0.6,0.5l-0.1,0.1L455.4,184.1z"/>
<path class="st3" d="M217.3,57.2l47.9-17.1h39.5l43.2,16.6l-53.6,50.2c-5.5,3.5-15.7,2.6-21.4-0.7L217.3,57.2z"/>
<path class="st5" d="M304.7-7h-39.5v47.4l10.8,6.7c5.9,3.7,13.3,3.6,19.1-0.3l9.7-6.4L304.7-7z"/>
<path class="st2" d="M255.3,42.8l-44.4,16.5c-10.8,4-20,11.3-26.4,20.8c-13,19.4-38.2,69.4-43.4,89.3c-0.3,1.2,34.7,18.8,45.4,25.1
	c3.1,1.8,7,0.4,8.3-3l29.4-80.9c0,0-21.4,44.9-17,65.8c4.6,22.2,7.6,46.7,7.6,46.7l137.1-7.6c0,0,0.3-3.9,0-12.4
	c-0.3-9.4,12.9-37.1-5.6-81c-0.8,0.8,7.3,31.5,7.3,31.5l13.6,33.1c1.2,2.7,4.7,3.4,6.9,1.6l38.9-32.4c1.3-1.1,1.8-2.9,1.1-4.5
	c-4.5-11.3-29.8-74.1-47.4-85.8c-20.2-13.5-54-23.2-54-23.2L285,105.8L255.3,42.8z"/>
<g>
	<path class="st6" d="M254.9,42.4c12.3,23.8,25.1,49,37,72.9c11.8,24.7,26.3,48.5,31.8,75.5c0.8,2.9,1.3,7.2,1.6,10.2
		c5,43.7,9.9,88.4,14,132.2c0.5,5,1.4,15.4,1.8,20.4c-0.8-5.1-2.2-15.1-2.9-20.2c-6.2-43.6-11.7-88.1-16.9-131.7
		c-0.3-3-0.8-7.1-1.6-10c-5.4-26.7-19.7-50.4-30.7-75C277.7,92.4,265.9,66.8,254.9,42.4L254.9,42.4z"/>
</g>
<path class="st3" d="M453.2,96.1c0,0,1.8-4.6,1.8-10.5s0.6-24.5,3.1-30.7s12.9-23.1,20.2-26.4c3.9,1.4,3.4,5.6,3.4,5.6L469,56
	c0,0,19.1,12.4,18.3,19.1c-0.8,6.7-7.7,19.3-9.8,20c-4.6,1.5-6.5,7.9-6.5,7.9L453.2,96.1z"/>
<path class="st3" d="M192.3,310.4l-1-5.5c-0.5-2.8-1.8-5.4-3.6-7.6c-2.6-3.1-6.3-6.6-8-4.4l-1.1,1.3l-20.5,27.6
	c-0.8,1-1.4,2.1-1.9,3.3l0,0l-6.4,19.4c-0.6,1.3-0.4,2.7,0.3,3.7c0.4,0.5,0.7,1.1,0.9,1.6c1.5,3.2,5.6,11.9,5.6,11.9
	c0.9,1.8,3.2,2.5,4.9,1.3c1.3-0.9,1.6-2.8,1-4.2l-3-8.5c-0.9-1.8-0.8-4,0.3-5.7l5.5-11.7c0.4-0.7,1-1.2,1.7-1.6l4.6-2.1
	c2.5-1.2,5.4,0.6,5.5,3.4l-5,11.4c-0.7,1.6-0.3,3.5,1.1,4.5c0.3,0.2,0.7,0.4,1.1,0.5c2.2,0.6,4.3-0.9,4.7-3.1l8.5-16.2
	c0-0.2,0.1-0.5,0.2-0.7l4-11.4C192.5,315.2,192.7,312.8,192.3,310.4z"/>
<path class="st7" d="M490.3,15.8c-1.2-6.3-5.8-12.7-8.9-13.7c0,0,2.1,6.8,0.7,9c-0.6,1-1.9,1.8-3.2,2.9
	C482.4,17.5,486,14,490.3,15.8z"/>
<path class="st8" d="M478.9,14.1c-1.5,1.3-3,3.1-3.1,6c-0.2,5.2,4.1,7.6,5.4,7.8s9.7-3,9.4-9.9c0-0.7-0.1-1.4-0.3-2.1
	C486,14,482.4,17.5,478.9,14.1z"/>
<path class="st9" d="M214.6,303.9c-25.3-0.6-46.1,19.8-46.1,45l0,0c0,3.8,4.3,6,7.4,3.8c3.8-2.7,7.6-7.6,12.2-5.7
	c6.2,2.6,0.3,22.4,3.2,35.6c0.9,4.2,4,7.6,8.1,9c4.5,1.5,9.2,2.3,14.2,2.3c25.2,0,45.6-20.7,45-46.1
	C257.9,323.9,238.4,304.4,214.6,303.9z M177,345.5c-2.8,0-5-2.2-5-5s2.2-5,5-5s5,2.2,5,5S179.8,345.5,177,345.5z"/>
<path class="st3" d="M173,341.5l-4.3,8.9c-0.7,1.6-0.3,3.5,1.1,4.5c0.3,0.2,0.7,0.4,1.1,0.5c1.9,0.5,3.7-0.5,4.4-2.2
	c0.3-0.8,0.6-1.6,1-2.4l3.4-6.8C177.5,343.1,175.4,342.5,173,341.5z"/>
<g>
	<g>
		<path class="st10" d="M196,344c1.1-0.2,2.4-0.2,3.4-0.6c0.2,0,0.5-0.1,0.7,0c-0.1-2.1-0.2-4.3-0.3-6.4c0,0.1,0,0.2-0.1,0.4
			c-0.2,0.6-0.2,1.2-0.3,1.8c-0.5,2.6-1,5.2-1.5,7.9c-0.5,2.5-0.9,6.3,1,8.4c1.7,2,3.4-0.4,3.7-2.2c0.6-3.3,1.2-6.6,1.9-9.9
			c0.7-3.5,1-9.9-3-11.8c-1.7-0.8-3.8,0-5.5,0.3C192,332.5,192.7,344.6,196,344L196,344z"/>
	</g>
</g>
<g>
	<g>
		<path class="st11" d="M234.8,344.5c-2,1.4-4,2.8-6,4.2c-1.9,1.3-2.1,4.7-1.9,6.7c0.1,1.3,0.6,5.6,2.7,5.3c4.2-0.5,8.4-1,12.5-1.5
			c-0.2-4-0.5-8-0.7-12.1c-5.8,2.9-11.6,5.8-17.4,8.7c-2.8,1.4-3.1,12,0.7,12.1c4.8,0.1,9.6,0.2,14.4,0.3c3.7,0.1,3.9-12.2,0-12.3
			c-4.8-0.1-9.6-0.2-14.4-0.3c0.2,4,0.5,8,0.7,12.1c5.8-2.9,11.6-5.8,17.4-8.7c2.7-1.4,2.9-12.5-0.7-12.1c-4.2,0.5-8.4,1-12.5,1.5
			c0.2,4,0.5,8,0.7,12.1c2-1.4,4-2.8,6-4.2C239.4,354.2,237.8,342.5,234.8,344.5L234.8,344.5z"/>
	</g>
</g>
<g>
	<g>
		<path class="st12" d="M213.7,319c-0.6,2.8-1.2,5.6-1.8,8.3c-0.5,2.2-0.7,5.3,0.8,7.2c1.5,1.8,2.9-0.5,3.2-1.9
			c0.6-2.8,1.2-5.6,1.8-8.3c0.5-2.2,0.7-5.3-0.8-7.2C215.4,315.4,214,317.5,213.7,319L213.7,319z"/>
	</g>
</g>
<g>
	<g>
		<path class="st13" d="M238.6,330c-1-3-0.1,1.1-0.4-1.4c0.1,1.1,0.1-1.6,0-0.3c0-0.2,0-1.9,0.1-1.3c0.1,0.4,0.3-0.4,0-0.1
			c-0.2,0.3-0.4,0.5-0.7,0.8c-1.1,1-2.7,1.5-4.1,1.9c-2.3,0.8-4.6,1.5-7,2.3c-3.3,1.1-2.7,13.2,1.4,11.9c4.1-1.3,9.1-2.1,12.2-5.2
			c4.3-4.3,4.2-11.9,2.3-17.3c-0.8-2.4-2.9-2-3.8,0C237.4,324,237.7,327.4,238.6,330L238.6,330z"/>
	</g>
</g>
<g>
	<g>
		<path class="st14" d="M206.3,373.4c1.4-1,4.1-2.5,5.8-1.6c1,0.6,1.4,2,1.5,2.5c0,0,0.3,1.5,0.2,0.7s0,0.4,0,0.4
			c0.1,0.7,0.2,2.4,0-0.5c0.1,1.6,0.3,6.1,2.7,6.1c2.3,0.1,2.8-4.8,2.7-6.1c-0.3-4.6-1-10.2-4.3-13.7c-2.8-3-7.1-1.7-10.1,0.4
			c-2.1,1.5-2.2,5.3-1.9,7.6C203.1,370.1,204.2,374.8,206.3,373.4L206.3,373.4z"/>
	</g>
</g>
</svg>
