<?xml version="1.0" encoding="utf-8"?>
<!-- Generator: Adobe Illustrator 26.0.3, SVG Export Plug-In . SVG Version: 6.00 Build 0)  -->
<svg version="1.1" id="Layer_1" xmlns="http://www.w3.org/2000/svg" xmlns:xlink="http://www.w3.org/1999/xlink" x="0px" y="0px"
	 viewBox="0 0 588 328.3" style="enable-background:new 0 0 588 328.3;" xml:space="preserve">
<style type="text/css">
	.st0{fill:#C58C85;}
	.st1{fill:#B7837E;}
	.st2{fill:#FFFFFF;}
	.st3{fill:#D12E2E;}
	.st4{fill:#F7A386;}
	.st5{fill:none;}
	.st6{fill:#E78367;}
	.st7{fill:#BA3F28;}
	.st8{fill:#7C2C78;}
	.st9{fill:#EFEFEF;}
</style>
<path class="st0" d="M429.9,98.3l2.2,18.2L411,191.8h-92.1l-22.5-75.6l2.6-18.7l-17-36.8l37.9-15.2l13.4-5.4
	c7.7-3.1,12.8-10.6,12.8-18.9V8.4h38.4v12.5c0,8.5,5.3,16.1,13.3,19.1l12.9,4.8L449.2,59L429.9,98.3z"/>
<path class="st1" d="M410.7,44.9c-11.1,8.7-34,13.9-49.7,13.9c-11.1,0-29.6-7-41.1-13.3l13.4-5.4c7.7-3.1,12.8-10.6,12.8-18.9V9.7
	l0.3-1.3l0.1-0.4h38v13c0,8.5,5.3,16.1,13.3,19.1L410.7,44.9z"/>
<polygon class="st2" points="367.6,183.3 337.7,183.3 329.2,127 376.7,127 "/>
<polygon class="st3" points="370.5,167.7 339.1,167.7 331.4,149.6 374.6,149.6 "/>
<path class="st4" d="M310.5,185.2c-4.3-3.9-6.6-17.6-4.3-22.9c1-2.3,8.5-5.3,8.5-5.3l8.2-3.6l0.8-10.2l12.8-6.9l21.4-0.9l2.8,30.2
	l-21.3,15.1l-12.8-1.8l-10.2,5.7C316.4,184.6,312.5,186.9,310.5,185.2z"/>
<polygon points="205.3,313.1 205.4,313 205.3,313 "/>
<polygon points="205.4,313 205.5,313.1 205.5,313 "/>
<polygon points="205.3,313.1 205.4,313 205.3,313 "/>
<polygon points="205.4,313 205.5,313.1 205.5,313 "/>
<path class="st5" d="M401.8,228.3c15.6,5,22.3,9.3,26,16c3,5.4,5.8,17.8,6,24c0.5,14.5-7.5,51-21.1,63.1
	c-13.9,12.4-81.6,12.4-95.5,0c-13.6-12.2-21.6-48.6-21.1-63.1c0.2-6.2,3-18.6,6-24c3.7-6.7,10.5-10.9,26-16
	c17.8-5.8,35.9-4.8,35.9-4.8S384,222.5,401.8,228.3z"/>
<path class="st6" d="M427.1,149.2l-10.1-5.5c0,0-19.7-21.9-20.5-22.7s-15.6-13.2-16.6-14.2s-8.2-10.5-8.2-10.5l-4.6,9.2l7.5,10.9
	l9,8.9l-22.8-4.3c0,0-34.3-10-34.9-8.8s-1.4,7.8-0.3,8.4s33.5,10.9,33.5,10.9s-41-5.6-41.2-3.6c-0.2,2-0.5,9.2,1.2,9.2
	s36.6,3.6,36.6,3.6s-37.2,2.7-36.6,3.9s2.8,8.1,2.8,8.1l36.3-1.3l-25.6,8.4c0,0,4.3,7.2,5.5,7.2s29.4-8.2,29.4-8.2s28.5,3,30,2.2
	c4.2-2.1,13.9,4,13.9,4L427.1,149.2z"/>
<path class="st5" d="M402.8,228.3c15.5,5,22.3,9.3,26,16c3,5.4,5.8,17.8,6,24c0.5,14.5-7.5,51-21.1,63.1
	c-13.9,12.4-81.6,12.4-95.5,0c-13.6-12.2-21.6-48.6-21.1-63.1c0.2-6.2,3-18.6,6-24c3.7-6.7,10.5-10.9,26-16
	c17.8-5.8,35.9-4.8,35.9-4.8S385,222.5,402.8,228.3z"/>
<path class="st1" d="M117.2,76.9l-13.7-10.6l-22.8-9.6c0,0-1.4,4.2-0.8,5.5c2,4,8.7,7.6,12.7,10.1c0.5,0.3,1.7,2.8,1.5,3.3
	c-0.9,2.2-6.5,1.9-6.5,1.9l16.9,6.2L117.2,76.9z"/>
<path class="st1" d="M111.3,76.8L107.1,93L67,88.2L29.5,70c0,0,3.9-4,5.8-4.3c9.7-1.9,28.4,7.3,38,9.3
	C83.7,77,111.3,76.8,111.3,76.8z"/>
<ellipse transform="matrix(0.9995 -3.193378e-02 3.193378e-02 0.9995 -2.6269 3.5554)" class="st1" cx="110" cy="84" rx="10.8" ry="9.5"/>
<path class="st1" d="M267.5,129.6l-46.4,36.6l-3.5,2.4c-6,4.1-14.1,2.9-18.6-2.8l0,0c-4.1-5.1-4.1-12.4,0.1-17.5l3.7-4.5
	c0,0-11.8,5.2-3.4-6.4c10.3-14.2,79.8-93.1,99.9-75.1l0,0c8.4,8.1,12.3,23.2,3.9,31.3L267.5,129.6z"/>
<path class="st1" d="M216.7,168.8L216.7,168.8c4.2-4,5.8-10,4.1-15.5c-0.1-0.6-0.3-1.1-0.5-1.7c-4.8-7.9-18.8-20.4-26.2-25.9
	c-17.2-12.7-73.6-46.3-73.6-46.3l0,0c-4.3-1.8-9.3,0.1-11.4,4.2l-0.5,0.9c-1.9,3.9-0.8,8.5,2.6,11.1c0.6,0.5,1.2,0.9,1.6,1.2
	c7.3,6.1,51.4,49.3,61.1,57.7c5.7,4.9,18.9,12.6,25.9,15.2C203.8,171.5,213,172.3,216.7,168.8z"/>
<path class="st7" d="M305.3,48.3l-23.9,8.9l4.5,58.8l-3.8,69.9c0,0-48.4,331.5-49,346.6c-0.3,7.2,46.8,15,53.9,15.5l64.2,4.1
	l84.3-1.7c9.5,0,62.7-3.4,62.1-12.9c-1.1-16.3-48.3-345.5-48.3-345.5l-10.5-75.9l2.4-27.5l-2.4-35.5l-26.6-9L365,64.9L305.3,48.3z"
	/>
<path class="st0" d="M270.6,71.9l-13.8-10.7L234,51.6c0,0-1.4,4.2-0.8,5.5c2,4,8.7,7.6,12.7,10.1c0.5,0.3,1.7,2.8,1.5,3.3
	c-0.9,2.2-6.6,1.9-6.6,1.9l16.9,6.2L270.6,71.9z"/>
<path class="st0" d="M264.7,71.8L260.5,88l-40.1-4.8L182.9,65c0,0,3.9-4,5.8-4.3c9.6-1.9,28.4,7.3,38,9.2
	C237.1,72,264.7,71.8,264.7,71.8z"/>
<ellipse transform="matrix(0.9995 -3.193378e-02 3.193378e-02 0.9995 -2.386 8.4483)" class="st0" cx="263.3" cy="78.9" rx="10.8" ry="9.5"/>
<path class="st0" d="M420.4,125.4L374,162l-3.5,2.4c-6,4.1-14.1,2.9-18.6-2.8l0,0c-4.1-5.1-4.1-12.4,0.1-17.5l2.6-14.9
	c0,0,18.1-21.9,29-31.1c30.7-25.9,42.3-54.5,68.5-43.2l0,0c15.7,10.2,12.4,30.5-0.9,43.8C443.9,105.9,420.4,125.4,420.4,125.4z"/>
<path class="st0" d="M370,163.8L370,163.8c4.2-4,5.8-10,4.1-15.5c-0.1-0.6-0.3-1.1-0.5-1.7c-4.8-7.9-18.8-20.4-26.2-25.9
	c-17.2-12.7-73.6-46.3-73.6-46.3l0,0c-4.3-1.8-9.3,0.1-11.4,4.2l-0.5,0.9c-1.9,3.9-0.8,8.5,2.6,11.1c0.6,0.5,1.2,0.9,1.6,1.3
	c7.3,6.1,51.4,49.3,61.1,57.7c5.7,4.9,18.9,12.6,25.9,15.2C357.2,166.4,366.4,167.2,370,163.8z"/>
<polygon class="st8" points="491.6,218.4 491.7,218.3 491.6,218.3 "/>
<polygon class="st8" points="491.7,218.3 491.8,218.4 491.8,218.3 "/>
<polygon class="st8" points="491.6,218.4 491.7,218.3 491.6,218.3 "/>
<polygon class="st8" points="491.7,218.3 491.8,218.4 491.8,218.3 "/>
<g>
	<g>
		<ellipse transform="matrix(0.9842 -0.1773 0.1773 0.9842 -0.7575 71.7653)" class="st9" cx="401.2" cy="40.1" rx="5.7" ry="5.4"/>
	</g>
	<g>
		<ellipse transform="matrix(0.17 -0.9854 0.9854 0.17 281.0937 439.1993)" class="st9" cx="401.3" cy="52.7" rx="5.4" ry="5.7"/>
	</g>
	<g>
		<ellipse transform="matrix(0.4967 -0.8679 0.8679 0.4967 143.8174 376.9936)" class="st9" cx="397" cy="64.5" rx="5.4" ry="5.7"/>
	</g>
	<g>
		<ellipse transform="matrix(0.7636 -0.6457 0.6457 0.7636 44.0874 268.7138)" class="st9" cx="389" cy="74.1" rx="5.4" ry="5.7"/>
	</g>
	<g>
		
			<ellipse transform="matrix(0.9384 -0.3455 0.3455 0.9384 -4.5395 135.5923)" class="st9" cx="378.1" cy="80.5" rx="5.4" ry="5.7"/>
	</g>
	<g>
		
			<ellipse transform="matrix(1 -3.749971e-03 3.749971e-03 1 -0.3076 1.3719)" class="st9" cx="365.7" cy="82.7" rx="5.4" ry="5.7"/>
	</g>
	<g>
		<ellipse transform="matrix(0.3385 -0.941 0.941 0.3385 157.9938 385.8391)" class="st9" cx="353.4" cy="80.5" rx="5.7" ry="5.4"/>
	</g>
	<g>
		<ellipse transform="matrix(0.6399 -0.7684 0.7684 0.6399 66.1989 289.906)" class="st9" cx="342.4" cy="74.3" rx="5.7" ry="5.4"/>
	</g>
	<g>
		
			<ellipse transform="matrix(0.8642 -0.5032 0.5032 0.8642 12.8584 177.0421)" class="st9" cx="334.3" cy="64.7" rx="5.7" ry="5.4"/>
	</g>
	<g>
		<ellipse transform="matrix(0.9842 -0.1773 0.1773 0.9842 -4.1728 59.3482)" class="st9" cx="330" cy="53" rx="5.7" ry="5.4"/>
	</g>
	<g>
		<ellipse transform="matrix(0.17 -0.9854 0.9854 0.17 234.1166 358.7157)" class="st9" cx="330" cy="40.4" rx="5.4" ry="5.7"/>
	</g>
</g>
</svg>
