<?xml version="1.0" encoding="utf-8"?>
<!-- Generator: Adobe Illustrator 26.0.3, SVG Export Plug-In . SVG Version: 6.00 Build 0)  -->
<svg version="1.1" id="Calque_1" xmlns="http://www.w3.org/2000/svg" xmlns:xlink="http://www.w3.org/1999/xlink" x="0px" y="0px"
	 viewBox="0 0 788 1005.1" style="enable-background:new 0 0 788 1005.1;" xml:space="preserve">
<style type="text/css">
	.st0{fill:#1C1938;}
	.st1{fill:#375D63;}
	.st2{fill:#B22947;}
	.st3{fill:#C58C85;}
	.st4{fill:#F7A386;}
	.st5{fill:#B7837E;}
	.st6{fill:#87213C;}
	.st7{fill:#FF9603;}
	.st8{fill:#D8C5A7;}
	.st9{fill:#FEBC6E;}
	.st10{fill:#FFFFFF;}
	.st11{fill:#35912D;}
	.st12{fill:#E0AA4B;}
	.st13{fill:#7097BA;}
	.st14{fill:#BA3E35;}
</style>
<polygon points="424.6,660 424.7,660 424.6,659.9 "/>
<polygon points="424.7,660 424.8,660 424.8,659.9 "/>
<polygon points="424.6,660 424.7,660 424.6,659.9 "/>
<polygon points="424.7,660 424.8,660 424.8,659.9 "/>
<g>
	<path class="st0" d="M570.4,198.5c-2.6,54.6-10,109.2-22.1,162.5C551,306.4,558.4,251.9,570.4,198.5L570.4,198.5z"/>
</g>
<path class="st1" d="M448.7,484.4c-22.7,2.4-43.3,9.7-68,17.8c0,0-11.2,0.5-10.5-0.1L301.3,486l5.7-56.9
	c1.1-10.4,9.8-18.3,20.3-18.3h97.3c10.7,0,19.6,8.3,20.3,18.9L448.7,484.4z"/>
<path class="st2" d="M458.7,261.1c0,3.5-12.2,56.6-12.2,60.2c0,3-3.1,57.7-4,73.5c-0.2,2.8,0,5.6,0.5,8.5l34.9,160.8
	c1.7,11.8-17.5,22.6-28.3,24.3c-0.1,0-0.2,0-0.2,0s-57.4,11.9-76.6,11.2c-18.7-0.8-81-16.9-81-16.9c-9.9-2.3-20.5-12.5-19.4-23.5
	l33.4-155.4c0.5-2.7,0.6-5.5,0.4-8.2l-6.2-79.2l-6.9-46.4l22.3-4.2l40.6-23.6l5.4,11.9h27.1l6.9-17L458.7,261.1z"/>
<path class="st3" d="M232.7,364.5L232.7,364.5L232.7,364.5l45.7-93.9l0,0c5.7-12,20.4-16.7,32.7-10.6c12.2,6.1,17.4,20.8,11.7,32.8
	c-0.1,0.1-0.2,0.4-0.3,0.5l-59.2,91c-6.1,9.1-16,11.9-23.4,7.2C231.6,386.4,225.5,378.6,232.7,364.5z"/>
<path class="st3" d="M246.2,354.6c13-3.2,24.1,4.5,27.8,17.2c0.1,0.3,1.2,6.1,1.2,6.1l9.9,104c0,0,2,8.1-7.3,10.1
	c-8.3,1.9-10.5-7.4-10.5-7.4l-34.9-91.8c-4-10.6-3.2-22.7,3.1-32C238.2,357.2,242.1,355.6,246.2,354.6z"/>
<path class="st4" d="M204.7,372.5L204.7,372.5c0.3,0.1,0.5,0.3,0.7,0.5l0.1,0.1L204.7,372.5z"/>
<path class="st3" d="M514,367.3L514,367.3L514,367.3l-43.4-94.9l0,0c-5.6-12.2-20.1-17.1-32.4-11.4s-17.9,20.4-12.4,32.5
	c0.1,0.1,0.2,0.4,0.3,0.6l57,92.4c5.7,9.2,15.8,12.2,23.2,7.8C514.8,389.1,520.8,381.5,514,367.3z"/>
<path class="st3" d="M495.2,396.9c12.2,5.8,24.5,0.5,30.6-11.4c0.2-0.2,2.3-5.7,2.3-5.7l30.6-99.9c0,0,3.6-7.5-5.1-11.4
	c-7.7-3.5-11.8,5.2-11.8,5.2l-52.4,83.1c-6,9.5-10,20.2-5.6,30.7C485.5,391.4,491.4,395,495.2,396.9z"/>
<path class="st4" d="M542.5,361.6L542.5,361.6c-0.3,0.1-0.4,0.3-0.6,0.5l-0.1,0.1L542.5,361.6z"/>
<path class="st3" d="M310.6,238l46.6-16.7h38.5l42.1,16.2l-52.2,48.9c-5.4,3.4-15.3,2.5-20.8-0.7L310.6,238z"/>
<path class="st5" d="M395.8,175.4h-38.5v46.2l10.5,6.5c5.7,3.6,13,3.5,18.6-0.3l9.4-6.2L395.8,175.4z"/>
<path class="st2" d="M347.7,223.9L304.4,240c-10.5,3.9-19.5,11-25.7,20.3c-12.7,18.9-37.2,67.6-42.3,87
	c-0.3,1.2,33.8,18.3,44.2,24.4c3,1.8,6.8,0.4,8.1-2.9l28.6-78.8c0,0-20.8,43.7-16.6,64.1c4.5,21.6,7.4,45.5,7.4,45.5l133.5-7.4
	c0,0,0.3-3.8,0-12.1c-0.3-9.2,12.6-36.1-5.5-78.9c-0.8,0.8,7.1,30.7,7.1,30.7l13.2,32.2c1.2,2.6,4.6,3.3,6.7,1.6l37.9-31.5
	c1.3-1.1,1.8-2.8,1.1-4.4c-4.4-11-29-72.2-46.2-83.5c-19.7-13.1-52.6-22.6-52.6-22.6l-27,61.7L347.7,223.9z"/>
<g>
	<path class="st6" d="M347.3,223.5c12,23.2,24.4,47.7,36,71c11.5,24.1,25.6,47.2,31,73.5c0.8,2.8,1.3,7,1.6,9.9
		c4.9,42.6,9.6,86.1,13.6,128.7c0.5,4.9,1.4,15,1.8,19.9c-0.8-5-2.1-14.7-2.8-19.7c-6-42.5-11.4-85.8-16.5-128.2
		c-0.3-2.9-0.8-6.9-1.6-9.7c-5.3-26-19.2-49.1-29.9-73C369.5,272.3,358,247.3,347.3,223.5L347.3,223.5z"/>
</g>
<path class="st3" d="M540.4,275.8c0,0,1.8-4.5,1.8-10.2c0-5.7,0.6-23.9,3-29.9c2.4-6,12.6-22.5,19.7-25.7c3.8,1.4,3.3,5.5,3.3,5.5
	l-12.4,21.3c0,0,18.6,12.1,17.8,18.6c-0.8,6.5-7.5,18.8-9.5,19.5c-4.5,1.5-6.3,7.7-6.3,7.7L540.4,275.8z"/>
<path class="st3" d="M286.3,484.5l-1-5.4c-0.5-2.7-1.8-5.3-3.5-7.4c-2.5-3-6.1-6.4-7.8-4.3l-1.1,1.3l-20,26.9c-0.8,1-1.4,2-1.9,3.2
	l0,0l-6.2,18.9c-0.6,1.3-0.4,2.6,0.3,3.6c0.4,0.5,0.7,1.1,0.9,1.6c1.5,3.1,5.5,11.6,5.5,11.6c0.9,1.8,3.1,2.4,4.8,1.3
	c1.3-0.9,1.6-2.7,1-4.1l-2.9-8.3c-0.9-1.8-0.8-3.9,0.3-5.6l5.4-11.4c0.4-0.7,1-1.2,1.7-1.6l4.5-2c2.4-1.2,5.3,0.6,5.4,3.3l-4.9,11.1
	c-0.7,1.6-0.3,3.4,1.1,4.4c0.3,0.2,0.7,0.4,1.1,0.5c2.1,0.6,4.2-0.9,4.6-3l8.3-15.8c0-0.2,0.1-0.5,0.2-0.7l3.9-11.1
	C286.5,489.3,286.7,486.8,286.3,484.5z"/>
<path class="st7" d="M576.5,197.6c-1.2-6.1-5.6-12.4-8.7-13.3c0,0,2,6.6,0.7,8.8c-0.6,1-1.9,1.8-3.1,2.8
	C568.8,199.3,572.3,195.9,576.5,197.6z"/>
<path class="st8" d="M565.4,196c-1.5,1.3-2.9,3-3,5.8c-0.2,5.1,4,7.4,5.3,7.6c1.3,0.2,9.4-2.9,9.2-9.6c0-0.7-0.1-1.4-0.3-2
	C572.3,195.9,568.8,199.3,565.4,196z"/>
<path class="st9" d="M308,478.2c-24.6-0.6-44.9,19.3-44.9,43.8l0,0c0,3.7,4.2,5.8,7.2,3.7c3.7-2.6,7.4-7.4,11.9-5.6
	c6,2.5,0.3,21.8,3.1,34.7c0.9,4.1,3.9,7.4,7.9,8.8c4.4,1.5,9,2.2,13.8,2.2c24.5,0,44.4-20.2,43.8-44.9
	C350.2,497.7,331.2,478.7,308,478.2z M271.4,518.8c-2.7,0-4.9-2.1-4.9-4.9c0-2.7,2.1-4.9,4.9-4.9c2.7,0,4.9,2.1,4.9,4.9
	C276.3,516.6,274.1,518.8,271.4,518.8z"/>
<path class="st3" d="M267.5,514.9l-4.2,8.7c-0.7,1.6-0.3,3.4,1.1,4.4c0.3,0.2,0.7,0.4,1.1,0.5c1.9,0.5,3.6-0.5,4.3-2.1
	c0.3-0.8,0.6-1.6,1-2.3l3.3-6.6C271.9,516.4,269.8,515.9,267.5,514.9z"/>
<g>
	<g>
		<path class="st10" d="M289.9,517.3c1.1-0.2,2.3-0.2,3.3-0.6c0.2,0,0.5-0.1,0.7,0c-0.1-2-0.2-4.2-0.3-6.2c0,0.1,0,0.2-0.1,0.4
			c-0.2,0.6-0.2,1.2-0.3,1.8c-0.5,2.5-1,5.1-1.5,7.7c-0.5,2.4-0.9,6.1,1,8.2c1.7,1.9,3.3-0.4,3.6-2.1c0.6-3.2,1.2-6.4,1.9-9.6
			c0.7-3.4,1-9.6-2.9-11.5c-1.7-0.8-3.7,0-5.4,0.3C286,506.1,286.7,517.9,289.9,517.3L289.9,517.3z"/>
	</g>
</g>
<g>
	<g>
		<path class="st11" d="M327.7,517.8c-1.9,1.4-3.9,2.7-5.8,4.1c-1.9,1.3-2,4.6-1.9,6.5c0.1,1.3,0.6,5.5,2.6,5.2
			c4.1-0.5,8.2-1,12.2-1.5c-0.2-3.9-0.5-7.8-0.7-11.8c-5.6,2.8-11.3,5.6-16.9,8.5c-2.7,1.4-3,11.7,0.7,11.8c4.7,0.1,9.3,0.2,14,0.3
			c3.6,0.1,3.8-11.9,0-12c-4.7-0.1-9.3-0.2-14-0.3c0.2,3.9,0.5,7.8,0.7,11.8c5.6-2.8,11.3-5.6,16.9-8.5c2.6-1.4,2.8-12.2-0.7-11.8
			c-4.1,0.5-8.2,1-12.2,1.5c0.2,3.9,0.5,7.8,0.7,11.8c1.9-1.4,3.9-2.7,5.8-4.1C332.2,527.3,330.6,515.8,327.7,517.8L327.7,517.8z"/>
	</g>
</g>
<g>
	<g>
		<path class="st12" d="M307.1,493c-0.6,2.7-1.2,5.5-1.8,8.1c-0.5,2.1-0.7,5.2,0.8,7c1.5,1.8,2.8-0.5,3.1-1.9
			c0.6-2.7,1.2-5.5,1.8-8.1c0.5-2.1,0.7-5.2-0.8-7C308.8,489.4,307.4,491.5,307.1,493L307.1,493z"/>
	</g>
</g>
<g>
	<g>
		<path class="st13" d="M331.4,503.7c-1-2.9-0.1,1.1-0.4-1.4c0.1,1.1,0.1-1.6,0-0.3c0-0.2,0-1.9,0.1-1.3c0.1,0.4,0.3-0.4,0-0.1
			c-0.2,0.3-0.4,0.5-0.7,0.8c-1.1,1-2.6,1.5-4,1.9c-2.2,0.8-4.5,1.5-6.8,2.2c-3.2,1.1-2.6,12.9,1.4,11.6c4-1.3,8.9-2,11.9-5.1
			c4.2-4.2,4.1-11.6,2.2-16.8c-0.8-2.3-2.8-1.9-3.7,0C330.2,497.9,330.5,501.1,331.4,503.7L331.4,503.7z"/>
	</g>
</g>
<g>
	<g>
		<path class="st14" d="M299.9,545.9c1.4-1,4-2.4,5.6-1.6c1,0.6,1.4,1.9,1.5,2.4c0,0,0.3,1.5,0.2,0.7s0,0.4,0,0.4
			c0.1,0.7,0.2,2.3,0-0.5c0.1,1.6,0.3,5.9,2.6,5.9c2.2,0.1,2.7-4.7,2.6-5.9c-0.3-4.5-1-9.9-4.2-13.3c-2.7-2.9-6.9-1.7-9.8,0.4
			c-2,1.5-2.1,5.2-1.9,7.4C296.8,542.7,297.9,547.2,299.9,545.9L299.9,545.9z"/>
	</g>
</g>
</svg>
