<?xml version="1.0" encoding="utf-8"?>
<!-- Generator: Adobe Illustrator 26.0.3, SVG Export Plug-In . SVG Version: 6.00 Build 0)  -->
<svg version="1.1" id="Calque_1" xmlns="http://www.w3.org/2000/svg" xmlns:xlink="http://www.w3.org/1999/xlink" x="0px" y="0px"
	 viewBox="0 0 588 328.3" style="enable-background:new 0 0 588 328.3;" xml:space="preserve">
<style type="text/css">
	.st0{fill:#C9C9C9;}
	.st1{fill:#375D63;}
	.st2{fill:#C58C85;}
	.st3{fill:#D3D3D3;}
	.st4{fill:#B7837E;}
	.st5{fill:#353535;}
	.st6{fill:#B7B7B7;}
</style>
<polygon class="st0" points="326.1,54.3 266.7,54.3 266.8,29.4 326.2,28.3 "/>
<g id="Calque_1_00000180352489093704844010000013830218214247062939_">
	<path class="st1" d="M377.7,319c-23.3,2.5-52.5,10-77.8,18.3c0,0-11.5,0.5-10.8-0.1l-78.8-16.6l13.9-58.4
		c1.1-10.7,10.1-18.8,20.8-18.8h99.9c11,0,20.1,8.5,20.8,19.4L377.7,319z"/>
</g>
<polygon class="st2" points="275.8,1.7 315.3,1.7 315.3,55.3 293.6,96.8 275.8,55.3 "/>
<path class="st3" d="M427,164.5c-0.4-0.9-0.9-1.7-1.2-2.6l-17.1-41.4c-1.7-4.9-4.1-9.6-7.1-14l-10.9-16.1
	c-4.4-6.5-10.8-11.6-18.4-14.7L321.1,55l-26.5,53.6L268.7,54l-53.1,21.5c-7.9,3.2-14.5,8.6-18.9,15.5l-7.2,11.2
	c-5.9,9.2-10.6,18.9-14.2,29l-13.7,34c-4.4,10.4-4.2,19.9,3.7,26.1c8,6.2,19.9,5.2,26.6-2.3c0.1-0.1,0.2-0.2,0.2-0.3l35.2-47.7
	l26.4,30c0.1,7.9-32.7,51.8-33.7,59.6l-22.8,108.6c-1.2,9.4,5.5,18,15.3,20c0,0,62.5,13.7,81,14.4c19.1,0.7,84.4-9.5,84.4-9.5
	c0.1,0,0.2,0,0.2,0c10.7-1.5,18-10.7,16.5-20.7l-26.4-113.9c-1.5-9.4-27.7-39.2-27.6-48.6c0.2-22.1,25.6-39,25.6-39l27.9,47.7
	c7.4,7.4,19.9,8,27.9,1.2C429.8,184.3,431.7,174.4,427,164.5z"/>
<polygon class="st4" points="275.8,1.7 315.3,1.7 315.1,30.7 275.8,35.5 "/>
<path class="st3" d="M265.2,29.4l-8.9,19.8l-44.9,27.9l22.5,84.3c1.4,5.2,3.7,10.1,6.7,14.5l3.5,5l100.8,1.5l5.2-7.5
	c2.8-4.1,5-8.7,6.3-13.5L380,78.9l-47.7-29.7l-4.4-21l-34.1,64.5L265.2,29.4z"/>
<path class="st5" d="M346.7,199.5H242.6c-2.2,0-4.1-1.6-4.1-3.7v-11.2c0-2,1.8-3.7,4.1-3.7h104.1c2.2,0,4.1,1.6,4.1,3.7v11.2
	C350.7,197.8,348.9,199.5,346.7,199.5z"/>
<path class="st5" d="M304.3,200.5h-11.8c-3.8,0-6.9-3.1-6.9-6.9v-8.3c0-3.8,3.1-6.9,6.9-6.9h11.8c3.8,0,6.9,3.1,6.9,6.9v8.3
	C311.3,197.4,308.2,200.5,304.3,200.5z"/>
<path class="st5" d="M294.7,190.2l-29.3,32.5c-1.5,1.6-1.4,4.1,0.2,5.6l5.1,4.9c1.7,1.7,4.5,1.4,6-0.5l25.4-33.9l-10.7-1.3
	l15.3,29.1c1.1,2.1,3.9,2.8,5.9,1.4l5.6-3.9c1.7-1.2,2.2-3.5,1.2-5.3l-18.9-32.6L294.7,190.2z"/>
<g>
	<path class="st6" d="M326.1,28.5c-24.9,51-51.2,101.9-78.5,151.6C272.5,129.1,298.8,78.2,326.1,28.5L326.1,28.5z"/>
</g>
<g>
	<path class="st6" d="M211.6,77.6c7.8,24.6,14.4,48.8,19.5,74C223.4,127.1,216.8,102.9,211.6,77.6L211.6,77.6z"/>
</g>
<g>
	<path class="st6" d="M379.7,79.7c-5.1,24.7-12.5,47.6-20.3,71.6C364.5,126.7,371.9,103.7,379.7,79.7L379.7,79.7z"/>
</g>
<path class="st2" d="M283,153.1l-15.1,0.5l-87.3,6c-1,0.1-2.1,0.3-3,0.6l0,0c-8.2,2.2-13.6,9.8-12.7,17.9c0.8,8,7.5,14.4,15.8,15
	l1.7,0.2c0,0,11.9-1.2,14.6-1.3c2.6-0.1,66.3-15.1,72.8-16.6c0.3-0.1,12.3-3.6,19.7-5.1L283,153.1z"/>
<path class="st2" d="M307.3,152.9l14.9,0.4l87.6,5.4l1.4,0.5c8,2.1,13.4,9.5,12.6,17.5c-0.7,7.9-7.2,14.2-15.5,14.9l-1.7,0.2
	c0,0-11.7-1.1-14.4-1.2c-2.6-0.1-65.5-14.4-71.8-15.8c-0.3-0.1-12.1-3.5-19.5-4.9L307.3,152.9z"/>
<path class="st2" d="M306.1,137.3c4.3-0.8,14.7,7.8,15.3,8.5c2.4,2.4,8.3,8.8,9.7,13c0.3,1-1,16.3-1.9,16.3s-24.1,0.6-25.6,0
	c-5-1.9-7.2-4-7.6-4.4c-4-4-0.1-10.5,0-16.7c0-3.2,1.1-6.4,3.1-8.8C301.7,141.7,302.7,139.1,306.1,137.3z"/>
<path class="st2" d="M298.7,145.3c2,2.5,3.1,5.6,3.1,8.8c0.1,6.2,4,12.7,0,16.7c-0.4,0.4-2.8,2.5-7.6,4.4c-1.5,0.6-24.8,0-25.6,0
	s-2.2-15.3-1.9-16.3c1.4-4.2,7.3-10.6,9.7-13c0.7-0.6,11-9.3,15.3-8.5C295,139.1,296,141.7,298.7,145.3z"/>
</svg>
