<?xml version="1.0" encoding="utf-8"?>
<!-- Generator: Adobe Illustrator 26.0.3, SVG Export Plug-In . SVG Version: 6.00 Build 0)  -->
<svg version="1.1" id="Calque_1" xmlns="http://www.w3.org/2000/svg" xmlns:xlink="http://www.w3.org/1999/xlink" x="0px" y="0px"
	 viewBox="0 0 588 328.3" style="enable-background:new 0 0 588 328.3;" xml:space="preserve">
<style type="text/css">
	.st0{fill:#C58C85;}
	.st1{fill:#9CCBF2;}
	.st2{fill:#B5817D;}
	.st3{fill:#EDEDED;}
	.st4{fill:#587CC6;}
	.st5{fill:#DDDDDD;}
	.st6{fill:none;stroke:#9CCBF2;stroke-width:4.5415;stroke-linecap:round;stroke-miterlimit:10;}
</style>
<g>
	<path class="st0" d="M255.4,84.8l7.9,18.4l135.6,2.4l6.1-16.4c0.5-1.3,2.4-0.7,2.1,0.6l-8.1,30.7l77.6,50.2
		c8.2,6,19.7,4.4,25.9-3.7c5.9-8,4.7-19.2-2.9-25.6L441,91.2l-24.3-25.8c-1.5-1.6-3.3-2.9-5.3-3.8l-14-6.2"/>
	<path class="st0" d="M397.7,54.3l-38.6-17.2c-4.5-2-7.4-6.5-7.4-11.5l0.1-21.7h-40.3l0.5,21.4c0.1,5.1-2.9,9.8-7.6,11.8l-30.6,13.1
		l-2.5,87.6h83.5L397.7,54.3z"/>
	<path class="st0" d="M273.7,51.3l-27.2,11.6c-0.2,0.1-0.3,0.2-0.5,0.4l-21.2,35.3l-43.6,52.7c-6.2,7.5-5.2,18.6,2.3,24.8
		s18.6,5.2,24.9-2.3c0.1-0.1,0.2-0.2,0.2-0.3l54.7-58.2l-9.8-29.9c-0.4-1.2,1.4-1.9,1.9-0.7"/>
	<path class="st0" d="M194.5,176.4c-10.6,3.5-15.8-6.2-19.1-15.1c-2.3-6.4-18.7-70.4-23.4-87.8c-2.6-9.8-4.3-15,1.4-17.1
		c5.1-1.9,12.3,12.2,14.5,15.6c20.9,32.4,26.9,46.7,41.4,77.1C217.4,166.4,198.2,175.2,194.5,176.4z"/>
	<path class="st1" d="M148.4,27.1c-2.8-3-5.4-6.3-7.7-9.7c-1-1.4-3.1-1.1-3.6,0.6c-0.3,1.1-0.6,2.3-0.5,3.3
		c0.3,2.1,5.5,11.2,5.5,11.2l0,0C116.8,18.4,89.5,4.7,86.6,4c-0.9-0.2-2.6,0.2-4.1,0.7c-1.6,0.6-1.9,2.7-0.4,3.6
		c6.9,4.1,22,13.2,26.9,16.6c22,15,34.4,29.6,41.2,42.8c1.2,2.3,15.1-0.2,13-5.3c-0.7-1.8,0.5-12-1.3-14.7
		C154.9,36.9,148.7,27.4,148.4,27.1z"/>
	<polygon class="st2" points="311.5,3.9 351.8,3.9 351.5,24 312.1,26.1 	"/>
	<path class="st3" d="M454,169.1l18.4-52c0.3-1.2-0.1-2.4-1-3.2l-54.5-50.3l0,0c-1.2-1.4-2.7-2.6-4.5-3.4l-41.7-19.6
		c-6.1-2.6-5.9,0.3-8.7,6.1c-0.1,0.3-0.3,0.5-0.5,0.8l-17.3,19.6c-0.2,0.2-0.3,0.4-0.4,0.6c-4.6,8.7-17,8.9-22.1,0.6
		c-0.3-0.4-0.6-0.8-1-1.1l-19.3-13.4c-0.5-0.4-1-0.9-1.2-1.5c-2.4-5.9-0.5-14.4-6.3-11.8l-45.7,20.3c-2.5,1.1-4.4,2.9-5.7,5
		l-0.1-0.2l-37.6,51.7c-1.8,2.5-2.6,5.7-2.2,8.8l5.5,39.1c1.4,10.2,14,14.1,20.9,6.5l20.4-22.3c2-2.2,5.6-0.9,5.8,2.1l1.9,31.6
		c0,1.3-0.2,2.5-0.5,3.7l-4.1,13.9c-0.9,3.1-0.6,6.4,0.8,9.3c1,2,1.5,4.2,1.3,6.4c-0.2,3.8-0.6,9.9-0.9,14.3l-21.8,105.8
		c-0.4,5.7,3,11,8.4,12.8c0.1,0.1,0.3,0.1,0.5,0.1l24.6,5.3c25.9,5.6,68.7,5.7,94.7,0.3c16.6-3.4,58.1-7.1,67.6-9.3
		c5.9-1.4,10-6.9,9.7-13l-27.9-101.2c-0.3-6.4-1.9-12.4-4.6-17.3h0.6l2.5-2.9c3.1-3.6,4-8.5,2.3-12.9c-2-5.3-4.5-12-4.5-14
		c0.1-13.4,0.2-28.6,0.3-40c0-2.6,2.9-4.2,5.1-2.8l36.5,31.6C449.4,174.2,453.4,171.3,454,169.1z"/>
	<path class="st0" d="M501,168.6l-84.3,84.8c-1.4,1.4-3.2,2.5-5.1,2.9c-8.2,1.9-6.2-3.9-5.1-6.2c0.2-0.4,0.4-0.8,0.7-1.2
		c3.8-6,55.8-90.9,57.5-92.8c1.6-1.7,7-8.2,9-10.6c0.5-0.6,1.1-1.2,1.7-1.7l0.4-0.4c6.6-5.6,16.3-5.6,23-0.1l0,0
		c6.7,5.6,8.5,15.2,4.1,22.8l0,0C502.3,166.9,501.7,167.8,501,168.6z"/>
	<path class="st4" d="M353.7,358.4h-44.3c-6.6,0-12-5.4-12-12V59.2c0-6.6,5.4-12,12-12h44.3c6.6,0,12,5.4,12,12v287.2
		C365.7,353,360.3,358.4,353.7,358.4z"/>
	<path class="st3" d="M358.8,37.8l-18.2,90.1c-0.7,3.5-1.1,7-1.1,10.6l-1.1,220.4c0,3,2.8,5.2,5.7,4.6l61.6-15.1l-8.5-295.2
		L360.8,37C359.9,36.5,359,36.9,358.8,37.8z"/>
	<path class="st1" d="M427.6,243.3c0,0,1.7-2.6,2.6-3.4c0.1,0-13.1-7.1-13.1-7.1l-1.5,2.6"/>
	<path class="st3" d="M303.6,37.8l18.2,90.1c0.7,3.5,1.1,7,1.1,10.6l1.1,220.4c0,3-2.8,5.2-5.7,4.6l-61.9-14.1l8.9-296.2L301.7,37
		C302.5,36.5,303.5,36.9,303.6,37.8z"/>
	<path class="st5" d="M268.9,126.2l0.9,29.1c0.1,1.7,1.4,3.1,3.1,3.3l25.9,1.9c0.8,0.1,1.6-0.2,2.3-0.7l3.6-2.8
		c0.9-0.7,1.4-1.7,1.3-2.9l-1.6-30.1c-0.1-1.7-1.5-3.1-3.2-3.2l-29.2-1.3c-2.1-0.1-3.8,1.7-3.5,3.8l0.3,2.5
		C268.9,125.9,268.9,126,268.9,126.2z"/>
	<path class="st1" d="M430,239.8c-0.2-0.2-12.9-3.8-12.9-3.8c-0.1,0-0.3,0-0.4-0.1c-1.4-0.9-10.6-6.1-12.4-6.1h-9
		c-3.4,0-6.5,2.3-8.1,5.9c-0.3,0.7-0.6,1.2-0.8,1.3l-6.9,6.4l-0.2,0.2c-0.6,0.4-0.8,1.3-0.6,2.1c0.2,0.8,0.7,1.6,1.7,2.1
		c0.1,0.1-0.4,1.8,0.9,2.9c0.4,0.3,0.7,0.8,0.8,1.2c0.1,0.8,0.5,2,1.7,2.7c0.5,0.3,0.8,0.9,0.9,1.6c0.2,1.2,0.7,3,2.4,4.1
		c4.2,0.3,8.9-1.2,9.2-1.3c4.3-1.8,3-5.2,5.3-6.8c0.4-0.2,0.9-0.1,1.1,0.3l4.1,7.9c2.2,6.1,10.7-0.8,12.5-4
		C421.3,252.6,430,239.8,430,239.8z"/>
	<g>
		<ellipse transform="matrix(0.9715 -0.237 0.237 0.9715 -24.5469 70.7042)" class="st4" cx="281.8" cy="137.4" rx="2.7" ry="3.8"/>
		
			<ellipse transform="matrix(0.9059 -0.4234 0.4234 0.9059 -34.3279 130.7773)" class="st4" cx="277.2" cy="142.6" rx="2.7" ry="3.8"/>
		<ellipse transform="matrix(0.237 -0.9715 0.9715 0.237 86.8751 385.4579)" class="st4" cx="288.8" cy="137.4" rx="3.8" ry="2.7"/>
		
			<ellipse transform="matrix(0.4234 -0.9059 0.9059 0.4234 39.897 348.0051)" class="st4" cx="293.3" cy="142.7" rx="3.8" ry="2.7"/>
		<path class="st4" d="M291,148.2c0,0-1.1-0.4-1.5-0.8c-0.2-0.2-0.6-0.9-0.9-1.6c-0.1-0.4-0.3-0.8-0.5-1.1v-0.1l0,0
			c-0.6-1-1.6-1.6-2.5-1.5c-1.2-0.1-2.7,0.8-3.4,2.5v0.1c-0.3,0.5-0.7,1.2-1.1,1.6c-0.6,0.6-1.5,0.9-1.5,0.9l0,0
			c-0.1,0-0.2,0-0.2,0.1c-1.3,0.6-1.7,2.7-0.8,4.6c0.9,1.9,2.7,2.9,4,2.3c0.1-0.1,0.3-0.1,0.4-0.2c0.4-0.2,2-0.8,2.5-0.8
			c0.6,0,2.1,0.9,2.5,1.1c1.3,0.6,3.1-0.4,4-2.3C292.7,150.9,292.4,148.8,291,148.2z"/>
	</g>
	<path class="st6" d="M306.9,33.2l-10.1,9c-2.6,2.6-3.7,6.2-2.9,9.7l10.8,49c0.7,3.3,3.1,6.2,6.4,7.6l17.7,7.9
		c3.5,1.6,7.5,1.4,10.9-0.4l20.4-11.1c3.5-1.9,5.7-5.3,5.8-9.1l1.7-44.9c0.1-3.2-0.3-7.9-2.8-10l-8.8-8"/>
	<line class="st6" x1="333" y1="117.8" x2="331.9" y2="254.6"/>
	<circle class="st1" cx="331.8" cy="255.4" r="7.9"/>
</g>
</svg>
