<?xml version="1.0" encoding="utf-8"?>
<!-- Generator: Adobe Illustrator 26.0.3, SVG Export Plug-In . SVG Version: 6.00 Build 0)  -->
<svg version="1.1" id="Calque_1" xmlns="http://www.w3.org/2000/svg" xmlns:xlink="http://www.w3.org/1999/xlink" x="0px" y="0px"
	 viewBox="0 0 788 1005.1" style="enable-background:new 0 0 788 1005.1;" xml:space="preserve">
<style type="text/css">
	.st0{fill:#375D63;}
	.st1{fill:#C58C85;}
	.st2{fill:#277A9B;}
	.st3{fill:#293C51;}
	.st4{fill:#295446;}
	.st5{fill:#22677C;}
	.st6{fill:#AFAFAF;}
	.st7{fill:#B5837F;}
	.st8{fill:#898989;}
	.st9{fill:#606060;}
</style>
<g>
	<g id="Calque_1_00000168116978332828763760000003928657393754945725_">
		<path class="st0" d="M454.4,496.5c-24.7,2.5-47.1,10-74,18.3c0,0-12.2,0.5-11.4-0.1l-75-16.6l6.3-58.4c1.2-10.7,10.7-18.8,22-18.8
			h105.8c11.7,0,21.3,8.5,22,19.4L454.4,496.5z"/>
	</g>
	<rect x="354.9" y="179.2" class="st1" width="41.8" height="47.4"/>
	<path class="st2" d="M438.9,395.7c0-0.1,7-68.9,7.1-80c1-0.3,0.3-0.1,1.2-0.4l59.2,59.6c7.4,7.4,19.8,8,27.9,1.2
		c7.9-6.6,8.8-17.8,2.2-25.6l-51.3-60c-0.1-0.1-0.1-0.2-0.2-0.3l-17.3-25.3c-3.2-4.8-7.9-8.5-13.4-10.7l-52.5-21.3
		c-1.1-0.4-1.7-1.3-1.8-2.4l-1.6-14c-0.2-1.5-1.5-2.6-3.1-2.6l-41.9-0.3c-1.6,0-2.9,1.1-3.1,2.5l-1.9,13.5c-0.1,1-0.9,1.9-1.8,2.3
		l-48.7,19.8c-9.3,3.8-15.9,11.6-17.6,20.9l-7.5,39.6L259,379.3c-2,9.5,4.6,18.8,14.8,20.7c10.2,1.9,20-4.3,22.1-13.9
		c0-0.1,0.1-0.3,0.1-0.4l4.9-17.7c0.1-0.6,8.1-33.2,8.1-32.7c0,0-1,61.2-1,61.3"/>
	<path class="st3" d="M309.8,396.6l-26.4,119.7c-1.2,9.4,9.6,18.2,19.4,20.2c0,0,53.5,13.7,71.8,14.4c19,0.7,75.2-9.5,75.2-9.5
		c0.1,0,0.2,0,0.2,0c10.6-1.5,22.2-12,20.7-22L440,395.7"/>
	<path class="st2" d="M504.4,372.3c4,10.5,14.8,8.3,23.8,5.2c6.4-2.2,66.3-30.2,82.7-37.6c9.3-4.2,14.3-6.1,12.3-11.9
		c-1.8-5.2-17.2-1.8-21.3-1.3c-38.3,4.3-53.2,8.8-85.9,16.9C497.6,348.2,503.1,368.7,504.4,372.3z"/>
	<path class="st1" d="M652,308.5c5.4,0,10.8-0.5,16.1-1.5c0,0-1.7,4.6-3.9,6.2c-1.7,1.2-12,3.6-12,3.6l0,0
		c27.5,9.1,48.8,17.4,51.3,19.2c1.8,1.2,3.6,7.4,3.6,7.4s-19.5-5.5-27.1-7.2c-25.9-6-45.1-5.4-59.4-1.5c-2.6,0.6-10-11.3-4.9-13.2
		c1.8-0.7,8.6-8.5,11.7-8.9C640.4,310.3,651.7,308.5,652,308.5z"/>
	<path class="st2" d="M628.7,316l3.8,13.9c0.6,2.2-0.4,4.4-2.2,5.6l-2.8,1.8c-0.9,0.5-1.6,1.4-2,2.3l0,0c-0.8,1.9-2.7,3.2-4.7,3.1
		l-11.1-0.2c-0.8-0.1-1.6,0.2-2.3,0.5l-75.5,35.8c-0.3,0.1-0.6,0.2-0.9,0.3l-8,2c-9.1,2.3-18.6-2.7-21.7-11.6l0,0
		c-3.3-9.4,1.6-19.8,11.2-23.1c0.4-0.1,0.7-0.2,1.1-0.4l86.1-24.1c0.8-0.2,1.5-0.6,2-1.1c2.9-2.7,11.8-10.9,12.2-10.3
		c0.3,0.5,2.8,1.5,4.3,2c0.8,0.3,1.6,0.3,2.4,0.2l2.5-0.4C625.7,311.9,628.1,313.6,628.7,316z"/>
	<path class="st3" d="M317.2,242.5l1.9-0.8c2.9-1.2,6,0.3,6.9,3l15.5,48.7c0.3,1.1-0.3,2.3-1.5,2.7l-4.9,1.6c-1.3,0.4-2.5-0.2-3-1.4
		l-17.7-48C313.5,246.2,314.7,243.5,317.2,242.5z"/>
	<path class="st3" d="M444.2,247.6l-0.8-0.3c-3.1-1.3-6.7,0.3-7.7,3.4l-15.2,47.7c-0.4,1.4,0.3,2.9,1.8,3.4l3.9,1.3
		c1.5,0.5,3.2-0.2,3.7-1.7l17.3-47C448.1,251.6,446.7,248.7,444.2,247.6z"/>
	<ellipse class="st3" cx="339.6" cy="302.3" rx="3.9" ry="3.7"/>
	<ellipse class="st3" cx="422.1" cy="307.5" rx="3.9" ry="3.7"/>
	<path class="st3" d="M332,312.9l95.6,4.7c2.6,0.1,4.9,1.9,5.6,4.3l6.7,24.5c0.1,0.5,0.2,0.9,0.2,1.4v47.3H310l1.7-48.7
		c0-0.8,0.2-1.5,0.5-2.2l13.7-28C327.2,314.1,329.4,312.8,332,312.9z"/>
	<path class="st4" d="M310,395.2"/>
	<path class="st3" d="M343.5,316.8l-7.2-0.4c-1.6-0.1-2.8-1.4-2.6-2.9l0.1-2.2c0.1-1.5,1.5-2.6,3.1-2.5l7.1,0.4
		c1.6,0.1,2.8,1.4,2.6,2.9l-0.1,2.2C346.4,315.8,344.9,316.9,343.5,316.8z"/>
	<path class="st3" d="M423,323.3l-7.9-1.1c-1.7-0.2-3-1.7-2.6-3.4l0.5-3.5c0.2-1.6,1.8-2.8,3.6-2.5l7.9,1.1c1.7,0.2,3,1.7,2.6,3.4
		l-0.5,3.5C426.2,322.4,424.7,323.5,423,323.3z"/>
	<path class="st2" d="M342.5,333.3l-2,22.5l26.4,7.6c7,2,14.5,2.5,21.7,1.5l26.9-3.9l1.1-22.9L342.5,333.3z"/>
	<path class="st5" d="M342.5,333.1l-2.4,11.1l36.4,6.3c1.5,0.3,3.1,0.3,4.6,0.2l36.1-3.5v-11.7L342.5,333.1z"/>
	<path class="st5" d="M439,404H311c-1.3,0-2.2-0.9-2.2-2.1v-11.7c0-1.2,1-2.1,2.2-2.1h127.9c1.3,0,2.2,0.9,2.2,2.1v11.7
		C441.2,403.1,440.1,404,439,404z"/>
	<path class="st5" d="M302.4,396c0,0-22,58.2-16.3,63.8c5.7,5.6,62.7,11.7,67.7,8.1c5-3.6,11.3-67.7,11.3-67.7L302.4,396z"/>
	<path class="st6" d="M330,420.9l-3.8,0.5c-1.2,0.1-2.2-0.6-2.3-1.7l-6.5-45.1c-0.1-1.1,0.6-2.1,1.8-2.2l3.8-0.5
		c1.2-0.1,2.2,0.6,2.3,1.7l6.5,45.1C332.1,419.8,331.2,420.8,330,420.9z"/>
	<path class="st6" d="M334.6,421.4L334.6,421.4c-1.2,0-2.1-0.9-2.1-2v-35.6c0-1.1,1-2,2.1-2l0,0c1.2,0,2.1,0.9,2.1,2v35.6
		C336.7,420.5,335.8,421.4,334.6,421.4z"/>
	<path class="st6" d="M340.5,421.2l-1.7-0.4c-1.2-0.3-1.8-1.3-1.6-2.4l6.1-24.3c0.3-1.1,1.4-1.7,2.5-1.5l1.7,0.4
		c1.2,0.3,1.8,1.3,1.6,2.4l-6.1,24.3C342.7,420.8,341.6,421.5,340.5,421.2z"/>
	<path class="st2" d="M302.9,400.3c0,0-21.6,56.4-13.1,58.5c8.6,2.1,52,10.5,57.8,6.4c5.7-4.1,4.6-60.6,4.6-60.6L302.9,400.3z"/>
	<polygon class="st7" points="355.2,179.2 396.9,179.2 396.8,205.9 355.2,212.6 	"/>
	<g>
		<path class="st8" d="M378,407.5l-6.5-89.6c0-0.1,0-0.2,0-0.3c1.6-2.1,2.4-4.7,2.2-7.5c-0.1-1-0.3-1.9-0.7-2.8
			c1.3-2.7,2.1-5.8,2.6-9.1c1.5-11-5.2-20.9-8.9-21.3c-3.6-0.5-12.9,7.5-14.4,18.5c-0.4,3.4-0.4,6.6,0.1,9.4
			c-1.6,2.1-2.3,4.7-2.1,7.4c0.1,0.8,0.2,1.5,0.4,2.2l-25.2,87.2c-0.6,1.9,0.4,3.8,2.2,4.8l2.4,1c2.4,1,5.3-0.2,5.9-2.7l19.4-76.7
			c0.7-3.1,4.9-4.1,7.2-1.8l0.6,0.6c0.6,0.7,1.1,1.6,1.1,2.6l4,78.7c0.1,2.1,2,3.8,4.2,3.8h1C376.3,411.8,378.2,409.8,378,407.5z"/>
		<g>
			<path class="st9" d="M366.9,276.8c-0.4,4.5-1.2,9.5-1.9,13.9c-0.2,1.5-0.5,3.1-0.8,4.6l-0.2-0.6c1.6,1.4,3.8,3.4,5.3,4.8
				c1.7,1.6,3.7,3.3,5,5c0-0.1-10.9-9.3-10.8-9.4C363.4,295.3,366.7,276.6,366.9,276.8L366.9,276.8z"/>
		</g>
	</g>
	<g>
		<path class="st2" d="M292.3,397.2l72.4-57l-31.1,2.2c0,0-48.3,15.1-50.4,16.8c-2.1,1.7-11.8,9.2-11.8,9.2l-1.2,1.3
			c-5.8,6.4-6.3,16-1.3,23l0,0c5,7,14.4,9.2,22,5.2L292.3,397.2z"/>
		<path class="st1" d="M369.3,348.6l-1.7-18c-0.4-4.2-4-7.4-8.3-7.2l-10.7,0.5c-2,0.1-3.9,0.9-5.3,2.3l-2.9,2.9l-0.6-4.1
			c-0.3-1.5-2.1-2.2-3.2-1.1c-0.2,0.3-0.4,0.5-0.5,0.8l-5.5,17c-0.3,0.2-0.5,0.3-0.8,0.4l-6,2.6c0,0-7.5,3-8.5,5.2
			c-2.3,5.3,0,19,4.3,22.9c2,1.8,5.8-0.6,5.8-0.6l7.9-4.4c1.5-0.8,3.3-1.1,5-0.9l7,1c2,0.3,4-0.2,5.7-1.4l15-10.6
			C368.3,354.2,369.6,351.4,369.3,348.6z"/>
	</g>
</g>
</svg>
