<?xml version="1.0" encoding="utf-8"?>
<!-- Generator: Adobe Illustrator 26.0.3, SVG Export Plug-In . SVG Version: 6.00 Build 0)  -->
<svg version="1.1" id="Layer_1" xmlns="http://www.w3.org/2000/svg" xmlns:xlink="http://www.w3.org/1999/xlink" x="0px" y="0px"
	 viewBox="0 0 588 328.3" style="enable-background:new 0 0 588 328.3;" xml:space="preserve">
<style type="text/css">
	.st0{fill:#E78367;}
	.st1{fill:#B85D40;}
	.st2{fill:#C58C85;}
	.st3{fill:#BFBFBF;}
	.st4{fill:#C35959;}
	.st5{fill:#B27F7B;}
	.st6{fill:#BAA535;}
	.st7{fill:#E8E0BF;}
	.st8{fill:#2E858E;}
	.st9{fill:none;stroke:#BFBFBF;stroke-width:2;stroke-linecap:round;stroke-miterlimit:10;}
</style>
<g id="Calque_4">
	<path class="st0" d="M378.8,92l2.2,18.2l-21.1,75.3h-92.1l-22.5-75.6l2.6-18.7l-17-36.8l37.9-15.2l13.4-5.4
		c7.7-3.1,12.8-10.6,12.8-18.9V2.1h38.4v12.5c0,8.5,5.3,16.1,13.3,19.1l12.9,4.8l38.5,14.2L378.8,92z"/>
	<path class="st1" d="M359.6,38.6c-11.1,8.7-34,13.9-49.7,13.9c-11.1,0-29.6-7-41.1-13.3l13.4-5.4c7.7-3.1,12.8-10.6,12.8-18.9V3.4
		l0.3-1.3l0.1-0.4h38v13c0,8.5,5.3,16.1,13.3,19.1L359.6,38.6z"/>
</g>
<path class="st2" d="M238.9,127.9l-33.2,48.9l-2.6,3.3c-4.5,5.7-12.6,7-18.6,3l0,0c-5.5-3.6-7.6-10.6-5.2-16.7l2.2-5.4
	c0,0,18.3-39,22.8-52.6c5.5-16.7,16.2-68.3,44.7-54.1l0,0c10.4,5.2,18.7,18.5,13.1,28.6L238.9,127.9z"/>
<path class="st2" d="M190.5,185.3L190.5,185.3c5.8-0.2,11-3.6,13.4-8.9c0.3-0.5,0.5-1,0.7-1.6c1.7-9.1-0.5-27.8-2.4-36.8
	c-4.4-21-24.1-83.6-24.1-83.6l0,0c-2-4.2-7-6.1-11.3-4.4l-1,0.4c-4,1.6-6.3,5.8-5.4,10c0.2,0.8,0.3,1.5,0.4,2
	c1.4,9.4,5.6,71,7.2,83.8c0.9,7.5,5.7,21.9,9.2,28.6C179.2,178.7,185.5,185.5,190.5,185.3z"/>
<path class="st2" d="M176.9,52.3c0.3,0.6,0.5,1.2,0.5,1.9c0.1,3.5,0.2,14.7-3.9,13.9l-1.8-0.4l-38.8-10.1c-0.3-0.1-0.5-0.2-0.8-0.3
	L93.9,38.8c-2.7-1.3-3.2-5-0.9-7l0.3-0.3c0.8-0.7,1.9-1,2.9-1l5.2,0.3c0.5,0,0.9,0.1,1.4,0.3l29.9,12.1c0.8,0.3,1.7,0.4,2.6,0.2
	l5.8-1.4c2.9-0.7,4.2-4.2,2.3-6.6l-8.9-11.7c-1.3-1.7-1.1-4.2,0.5-5.7l0,0c1.6-1.4,4-1.4,5.6,0l13.7,12.4c0.2,0.2,0.4,0.3,0.6,0.5
	l14.3,8.8c0.6,0.4,1.1,0.9,1.5,1.5L176.9,52.3z"/>
<path class="st3" d="M162.7,84.3l25.1-3.1c0.8-0.1,1.6,0.5,1.7,1.3l0.9,7.5c0.1,0.8-0.5,1.6-1.3,1.7L164,94.8
	c-0.8,0.1-1.6-0.5-1.7-1.3l-0.9-7.5C161.3,85.1,161.9,84.4,162.7,84.3z"/>
<path class="st4" d="M379.1,109.2c0,14.3-19.3,41.3-33.6,41.3c-14.3-0.3-25.7-12.1-25.4-26.4c0.3-13.9,11.5-25.1,25.4-25.4
	C359.8,98.8,379.1,95,379.1,109.2z"/>
<circle class="st4" cx="313.9" cy="46.8" r="25.9"/>
<path class="st2" d="M398,53l-17,57.5l-21.1,75.3h-92.1l-22.5-75.6l2.6-18.7l-17-36.8l51.2-20.5c7.7-3.1,12.7-10.6,12.8-18.9V2.5
	h38.5V15c0,8.5,5.3,16.1,13.3,19.1L398,53L398,53z"/>
<path class="st5" d="M295,2.4h38.4V13l0,0c-8.6,11-14.3,15.8-20.9,15.8c-4.9,0-12.7-9.7-17.7-13.6l0.1-1.9L295,2.4z"/>
<path class="st6" d="M313.3,187.8h46.1c0,0,20.9,57.8,21,62.8s-62.3,67.5-61.3,70s-6.4-4.3-6.4-5S313.3,187.8,313.3,187.8z"/>
<path class="st7" d="M280.9,32.4l-36.6,75.7c0,0.1,0,0.2,0,0.3l0.1,0.6c5.2,41.7-1,108.6-13.8,148.6l-7.8,24.4
	c-1.4,4.5-0.5,7.2,5.4,11c89.1,58.3,156.8,63.7,180.5,63.6c5.3,0,9.5-4.3,9.6-9.5c0.3-22.9-3.9-53.8-10.5-73.1l-3.1-9.1
	C390.4,222.6,375.1,155.4,381,111c0.1-0.5,0.2-1,0.3-1.5l0.1-0.3c0-0.1,0.3-0.8,0.3-0.9l-35.9-75.7c-0.1-0.2-0.3-0.3-0.6-0.3
	l-31.7,7.6c-0.1,0-0.2,0-0.2,0l-31.8-7.6C281.3,32.1,281,32.2,280.9,32.4z"/>
<path class="st2" d="M401.1,127.1l38.8,44.5l3,3c5.1,5.1,13.3,5.4,18.8,0.7l0,0c5-4.3,6.3-11.5,3.1-17.2L462,153
	c0,0-22.9-36.5-29-49.4c-7.5-15.9-24.3-65.9-50.9-48.4l0,0c-9.7,6.4-16.4,20.6-9.6,30L401.1,127.1z"/>
<path class="st8" d="M305.8,145.6l52.1,113.8c0.8,1.7,2.8,2.5,4.6,1.7l85.7-38.4c1.6-0.7,2.4-2.5,1.9-4.1l-34.9-117.4
	c-0.6-2-2.7-3-4.6-2.2l-102.9,42C305.8,141.7,305,143.8,305.8,145.6z"/>
<path class="st2" d="M463.2,156.5L463.2,156.5c2.1,5.1,1.6,10.8-1.2,15.5c-0.2,0.5-0.5,0.9-0.8,1.4c-5.8,5.8-19.8,13.2-26.9,16.1
	c-16.5,6.6-68.2,21-68.2,21l0,0c-3.7,0.4-7-2.8-7.4-7.2l-0.1-1c-0.4-4.1,1.7-8.1,5-9.4c0.6-0.2,1.1-0.5,1.5-0.7
	c7.2-3.5,52.3-30.2,61.9-35.1c5.6-2.9,17.7-6,23.7-6.4C454.3,150.3,461.4,152.3,463.2,156.5z"/>
<polygon class="st2" points="360.9,194.3 343.6,186.1 325.3,184.7 328.8,191.4 337.4,193.8 341.5,198.2 330.7,200.3 329.1,192.3 
	324,192.4 316.8,205 324.3,228.4 340.5,231.3 365.4,213.6 372.9,209.9 388.3,203.3 372.1,188.9 365.5,192.8 "/>
<path class="st8" d="M244.3,108.1C244,106.5,222,63.7,222,63.7c-1-2.9,0.5-6,3.4-7.2l54.9-24.3c0.3-0.1,0.6,0,0.7,0.3"/>
<path class="st8" d="M345.5,32.2l58.1,21.7c2.7,1.1,4.7,4.3,3.9,7.2c-4.2,14.3-25.9,44.6-25.9,47.1"/>
<line class="st9" x1="320.1" y1="134" x2="331.5" y2="161.4"/>
</svg>
