<?xml version="1.0" encoding="utf-8"?>
<!-- Generator: Adobe Illustrator 26.0.3, SVG Export Plug-In . SVG Version: 6.00 Build 0)  -->
<svg version="1.1" id="Calque_9" xmlns="http://www.w3.org/2000/svg" xmlns:xlink="http://www.w3.org/1999/xlink" x="0px" y="0px"
	 viewBox="0 0 788 1005" style="enable-background:new 0 0 788 1005;" xml:space="preserve">
<style type="text/css">
	.st0{fill:#3A2001;}
	.st1{fill:#6F412A;}
	.st2{fill:#90573A;}
	.st3{fill:none;}
	.st4{fill:#129B94;}
</style>
<circle class="st0" cx="392" cy="218.8" r="51.5"/>
<path class="st1" d="M426.2,269l8.1-24.5c0,0,7.9-8.1,13.6-2.5c3.8,3.8-5.1,29-10,30C429.7,273.8,426.2,269,426.2,269z"/>
<path class="st1" d="M359.8,269l-8.1-24.5c0,0-7.9-8.1-13.7-2.5c-3.8,3.8,5.1,29,10,30C356.3,273.8,359.8,269,359.8,269z"/>
<path class="st2" d="M394.2,181.2L394.2,181.2c-23.9-0.1-43.2,11.1-43.2,45.5c0,7.9,0.6,15.8,1.8,23.7c1.1,6.9,2.8,13.6,5.1,20.2
	c7.7,21.7,21.1,35.2,36.4,35.2v0.1c15.1,0,28.3-13.1,36.1-34.3c3.2-8.9,5.3-18.1,6.3-27.5c0.6-5.7,1-11.5,1-17.2
	C437.5,192.4,418.1,181.2,394.2,181.2z"/>
<rect x="716.5" y="506.9" class="st3" width="112.5" height="211.2"/>
<path class="st0" d="M350.3,254.1l-6.5-7.7c-0.1-0.1-0.2-0.2-0.2-0.3c-0.9-1.5-7.9-13.1-7.9-24.8c0-16,29-43.5,45.3-46.4
	c4.1-0.7,8.3,0.3,11.7,2.8c0.5,0.4,1.1,0.6,1.7,0.6c3.9-0.1,18.5-0.3,23.4,1.7c25.5,10.6,30.6,28,29.9,39.7
	c-0.7,8.3-2.7,16.5-6,24.2c-0.3,0.7-0.9,1.2-1.6,1.5l-4.7,1.6c-1.7,0.6-3.5-0.7-3.5-2.5l-0.4-14.2c0-0.8-0.4-1.6-1.1-2.1l-11-7.9
	c-0.3-0.2-0.5-0.5-0.7-0.8c-1.3-2.1-6.4-10.5-6.1-10.5c0.2,0,1.1,3.8,1.7,6.7c0.4,1.7-0.9,3.3-2.6,3.3c-3.6,0-9-0.2-10.9-1.4
	c-1.2-0.8-2.7-3.5-3.7-5.7c-0.7-1.6-2.8-2.1-4.1-1c-2.9,2.4-7.5,6-9.5,7.1c-2,1.2-5.5,1.9-8.1,2.4c-1.7,0.3-3.3-1.2-3.1-2.9l0,0
	c0.3-2.7-3.2-4.1-4.8-1.9l-4.2,5.5c-0.1,0.2-0.3,0.3-0.5,0.5l-9.8,7.8c-0.8,0.6-1.1,1.6-1,2.5l3.2,20.2
	C355.5,254.6,352.1,256.2,350.3,254.1z"/>
<path class="st0" d="M325.3,199.6c0,0-8.3,7.7-1.9,14.6c6.5,7,13.3,2.9,13.3,2.9s1.4,11.7,10.6,8.9c9.2-2.8,7-10.8,5-12.8
	c-2-2,8-9.7,5.6-14.8c0,0,10.8-1.3,14-2c3.2-0.6,8.7-5.6,6.5-10.6c-2.1-5.2-7.7-7.1-10.6-6.1c0,0,0.8-8.5-7-11.4
	c-7.9-2.9-12,3.4-12,3.4s-4.6-4.8-11.7-2.1c-7.1,2.7-7,10.1-7,10.1s-7.8,0.6-9.7,9C318.8,197.2,325.3,199.6,325.3,199.6z"/>
<path class="st0" d="M455.5,197.9c0,0,8.3,7.7,1.9,14.6c-6.5,7-13.3,2.9-13.3,2.9s-1.4,11.7-10.6,8.9c-9.2-2.8-7-10.8-5-12.8
	c2-2-8-9.7-5.6-14.8c0,0-10.8-1.3-14-2c-3.2-0.6-8.7-5.6-6.5-10.6c2.1-5.1,7.7-7.1,10.6-6.1c0,0-0.8-8.5,7-11.4
	c7.9-2.9,12,3.4,12,3.4s4.6-4.8,11.7-2.1c7.1,2.7,7,10.1,7,10.1s7.8,0.6,9.7,9C462,195.5,455.5,197.9,455.5,197.9z"/>
<path class="st4" d="M336.3,216.9c0,0,7.2-31,31.5-42c0,0-3.7-2-13.1,6.9c-4.4,4.2-8.8,9.7-12.2,15.1
	C332.8,212.4,336.3,216.9,336.3,216.9z"/>
<path class="st4" d="M440.6,195c-3.4-5.4-7.8-10.9-12.2-15.1c-9.4-9-13.1-6.9-13.1-6.9c24.3,11,31.5,42,31.5,42
	S450.2,210.4,440.6,195z"/>
</svg>
