<?xml version="1.0" encoding="utf-8"?>
<!-- Generator: Adobe Illustrator 26.0.3, SVG Export Plug-In . SVG Version: 6.00 Build 0)  -->
<svg version="1.1" id="Calque_9" xmlns="http://www.w3.org/2000/svg" xmlns:xlink="http://www.w3.org/1999/xlink" x="0px" y="0px"
	 viewBox="0 0 788 1005" style="enable-background:new 0 0 788 1005;" xml:space="preserve">
<style type="text/css">
	.st0{fill:#3A2001;}
	.st1{fill:#90573A;}
	.st2{fill:#6F412A;}
</style>
<path class="st0" d="M343.4,271.1c0,0,1.7,14.2,13.5,12.7c11.9-1.5,12.8-11.5,12.8-11.5s13,7.1,16.9-4.3c3.9-11.5-5.9-15-9.4-14.5
	c-3.6,0.5-13-14.9-20-16.3c0,0,15.6-12.2,17.3-15.9c1.7-3.6,0.7-12.8-6.1-14.5c-6.8-1.5-12.8,2.6-13.9,6.3c0,0-8-7-16.9-1.2
	c-8.7,5.8-5.3,14.7-5.3,14.7s-8.3,1.2-10.8,10.4c-2.5,9.2,5.3,14.5,5.3,14.5s-5.1,8.3,2.1,16.4C336.2,276.1,343.4,271.1,343.4,271.1
	z"/>
<path class="st1" d="M414.4,291.2c-2.8,3-6,5.6-9.5,7.6c-3,1.8-6.5,2.8-10,3c-6.4,0-14.1-4.7-21.3-13.1l0.2-7.4l0.7-20.2l18.3-0.8
	h2.2l13.3,0.6l5.1,0.2L414.4,291.2z"/>
<path class="st1" d="M437.2,210.5c-2.7-16.3-11.1-25.6-22.4-30.1c-0.5-0.2-1.1-0.4-1.7-0.6c-0.6-0.2-1.2-0.4-1.9-0.6h-0.1
	c-5.3-1.5-10.7-2.2-16.2-2.1l0,0l0,0l0,0l0,0c-16.1,0-30.2,5.1-37.6,19.1c-3.6,6.7-5.6,15.4-5.6,26.6c0,4,0.2,7.9,0.6,11.8
	c1.1,11.3,3.9,22.4,8.4,32.8c3.2,7.6,7.5,14.6,12.7,20.9c0.1,0.1,0.2,0.2,0.3,0.4c7.1,8.3,14.9,13.1,21.3,13.1l0,0
	c3.5-0.1,7-1.1,10-2.9c3.5-2.1,6.7-4.6,9.5-7.6c8.5-8.9,16.2-22.8,20.5-40.2c1.9-7.8,3-15.8,3.3-23.9c0.1-1.4,0.1-2.9,0.1-4.3
	C438.2,218.6,437.9,214.5,437.2,210.5z"/>
<path class="st2" d="M359.8,265.3l-8.1-24.5c0,0-7.9-8.1-13.6-2.5c-3.8,3.8,5.1,29,10,30C356.3,270,359.8,265.3,359.8,265.3z"/>
<path class="st2" d="M428.2,265.3l8.1-24.5c0,0,7.9-8.1,13.6-2.5c3.8,3.8-5.1,29-10,30C431.7,270,428.2,265.3,428.2,265.3z"/>
<path class="st1" d="M394.2,178.2L394.2,178.2c-23.9-0.1-43.2,11.1-43.2,45.5c0,7.9,0.6,15.8,1.8,23.7c1.1,6.9,2.8,13.6,5.1,20.2
	c7.7,21.7,21.1,35.2,36.4,35.2v0.1c15.1,0,28.3-13.1,36.1-34.3c3.2-8.9,5.3-18.1,6.3-27.5c0.6-5.7,1-11.5,1-17.2
	C437.5,189.4,418.1,178.2,394.2,178.2z"/>
<path class="st0" d="M424.2,189.3c0,0-1.7,17.7-71.5,30c0.9,0,1.7,32.5,1.7,32.5s-33.6-47,3-77.8c9.4-7.9,19.3-12.2,31.6-12.8
	c2.7-0.1,6-0.2,9.5-0.2c27.8-0.3,48.4,17.3,49.7,45c0.1,1.7,0.1,3.4,0,5.1c-1.4,22.8-10.9,36.8-13.2,41S447,222.6,424.2,189.3z"/>
</svg>
