<?xml version="1.0" encoding="utf-8"?>
<!-- Generator: Adobe Illustrator 26.0.3, SVG Export Plug-In . SVG Version: 6.00 Build 0)  -->
<svg version="1.1" id="Calque_9" xmlns="http://www.w3.org/2000/svg" xmlns:xlink="http://www.w3.org/1999/xlink" x="0px" y="0px"
	 viewBox="0 0 788 1005" style="enable-background:new 0 0 788 1005;" xml:space="preserve">
<style type="text/css">
	.st0{fill:#3A2001;}
	.st1{fill:#6F412A;}
	.st2{fill:#90573A;}
</style>
<path class="st0" d="M331.5,222.3c0,0-3.6,16.9,10.5,19.8c14.1,3.1,19.2-8,19.2-8s12,13.2,21.1,1.7c9.1-11.5-0.8-19.5-5.1-20.3
	s5.5-18.4-2.1-22.8c0,0,8.3-11.6,11.7-15.1c3.4-3.5,5.9-14.5-1.2-18.9c-7.1-4.4-15.7-2-18.3,1.8c0,0-6.5-11.3-18.8-8
	c-12.3,3.2-11.9,14.7-11.9,14.7s-10-1.9-16.4,7.6c-6.5,9.6,0.2,18.7,0.2,18.7s-9.2,7.5-4.1,19.6
	C321.3,225.2,331.5,222.3,331.5,222.3z"/>
<path class="st0" d="M402.9,155.6c0,0-1.5-12.6-12.1-11.3c-10.5,1.3-11.4,10.1-11.4,10.1s-11.5-6.3-15,3.8
	c-3.5,10.2,5.2,13.3,8.4,12.9c3.1-0.5,11.6,13.2,17.8,14.4c0,0-13.9,11-15.3,14.1s-0.6,11.4,5.4,12.9s11.4-2.3,12.3-5.7
	c0,0,7.2,6.3,15,1.1c7.7-5.1,4.7-13.1,4.7-13.1s7.4-1,9.6-9.3c2.1-8.2-4.7-12.9-4.7-12.9s4.5-7.4-1.9-14.6
	C409.2,151.2,402.9,155.6,402.9,155.6z"/>
<path class="st1" d="M427.2,268.5l8.1-24.5c0,0,7.9-8.1,13.6-2.5c3.8,3.8-5.1,29-10,30C430.7,273.3,427.2,268.5,427.2,268.5z"/>
<path class="st1" d="M360.8,268.5l-8.1-24.5c0,0-7.9-8.1-13.6-2.5c-3.8,3.8,5.1,29,10,30C357.3,273.3,360.8,268.5,360.8,268.5z"/>
<path class="st2" d="M394.2,181.2L394.2,181.2c-23.9-0.1-43.2,11.1-43.2,45.5c0,7.9,0.6,15.8,1.8,23.7c1.1,6.9,2.8,13.6,5.1,20.2
	c7.7,21.7,21.1,35.3,36.4,35.3l0,0c15.1,0,28.3-13.1,36.1-34.3c3.2-8.9,5.3-18.1,6.3-27.5c0.6-5.7,1-11.5,1-17.2
	C437.5,192.4,418.1,181.2,394.2,181.2z"/>
<path class="st0" d="M348.1,240l7,9.3c0,0,0.2-25.3,8.4-33.2c8.2-7.9,40.8-8.3,44.2-16.5c3.4-8.1,27,24.4,26.8,47.9
	c0,0.1,6.5-9.4,6.5-9.4l0-0.1c10.5-24.6-3.5-52.7-29.5-59.1l0,0h-32.6l-19.4,12.9l-8.5,11.8L348.1,240z"/>
</svg>
