<?xml version="1.0" encoding="utf-8"?>
<!-- Generator: Adobe Illustrator 26.0.3, SVG Export Plug-In . SVG Version: 6.00 Build 0)  -->
<svg version="1.1" id="Calque_9" xmlns="http://www.w3.org/2000/svg" xmlns:xlink="http://www.w3.org/1999/xlink" x="0px" y="0px"
	 viewBox="0 0 200 200" style="enable-background:new 0 0 200 200;" xml:space="preserve">
<style type="text/css">
	.st0{fill:#3A2001;}
	.st1{fill:#6F412A;}
	.st2{fill:#90573A;}
	.st3{fill:#E5B94C;}
</style>
<g>
	<path class="st0" d="M73.8,31.5c0,0-17.2-1.4-18.3,13s10.5,18,10.5,18s-11.6,13.7,1,21.1c12.6,7.4,19.2-3.3,19.4-7.7
		c0.2-4.3,20.9-11.8,24.2-19.9c0,0,10.8,21.5,14.7,24.4c3.9,2.9,15.1,3.9,18.6-3.7c3.5-7.7,0-15.9-4.1-18c0,0,10.3-7.9,5.6-19.7
		c-4.8-11.8-16.1-9.9-16.1-9.9s0.6-10.1-9.7-15.3s-18.5,2.7-18.5,2.7s-8.6-8.1-20-1.4C69.7,21.8,73.8,31.5,73.8,31.5z"/>
	<circle class="st0" cx="101" cy="108.3" r="50.6"/>
	<path class="st1" d="M146,158.6c-3,0.8-6.2,0.5-9-0.9c3.2-8.9,5.3-18.1,6.3-27.5c2.2-1.9,8.1-6.1,12.7-1.6
		C159.8,132.3,150.9,157.5,146,158.6z"/>
	<path class="st2" d="M100.9,67.4v-0.1c-23.9,0-43.2,11.2-43.2,45.6c0,7.9,0.6,15.8,1.8,23.7c1.1,6.9,2.8,13.6,5.1,20.2
		C72.3,178.5,85.7,192,101,192v0.1c15.1,0,28.3-13.1,36.1-34.3c3.2-8.9,5.3-18.1,6.3-27.5c0.6-5.7,1-11.5,1-17.2
		C144.2,78.6,124.9,67.4,100.9,67.4z"/>
	<path class="st1" d="M64.6,156.7c-1.7,1.3-5,3-10.6,1.8c-4.9-1-13.8-26.3-10-30c5.8-5.7,13.7,2.5,13.7,2.5l1.8,5.5
		C60.6,143.4,62.3,150.2,64.6,156.7z"/>
	<path class="st0" d="M57.7,131c0,0,3.5-21.4,26-40s52,9.9,52,9.9s5.4,45.6,7.7,29.4c2.1-15.1,3.6-27.5,3.6-27.5l-10-26.7l-19-10.9
		l-15.3-4.3l-24.4,6.4l-13.7,9.6L54.2,99.1L57.7,131z"/>
	<path class="st3" d="M75.4,67.3c0,0,30.7-28.5,54.6,1.3c0,0-7.3-4.6-17.2-7.8c-4.7-1.5-10.1-1.5-14.9-0.4
		C84,63.8,75.4,67.3,75.4,67.3z"/>
</g>
</svg>
