<?xml version="1.0" encoding="utf-8"?>
<!-- Generator: Adobe Illustrator 26.0.3, SVG Export Plug-In . SVG Version: 6.00 Build 0)  -->
<svg version="1.1" id="Calque_9" xmlns="http://www.w3.org/2000/svg" xmlns:xlink="http://www.w3.org/1999/xlink" x="0px" y="0px"
	 viewBox="0 0 200 200" style="enable-background:new 0 0 200 200;" xml:space="preserve">
<style type="text/css">
	.st0{fill:#3A2001;}
	.st1{clip-path:url(#SVGID_00000060723065009490273120000015528000916455675789_);}
	.st2{fill:#6F412A;}
	.st3{clip-path:url(#SVGID_00000042008810987206068230000015102153889222463629_);}
	.st4{clip-path:url(#SVGID_00000023999914211545383630000013104216451374735788_);}
	.st5{fill:#6E4031;}
	.st6{clip-path:url(#SVGID_00000049204576437144261160000014813913350849988262_);}
	.st7{clip-path:url(#SVGID_00000077315809247015565040000008983908116172324231_);}
	.st8{fill:#FFFFFF;}
	.st9{fill:#90573A;}
	.st10{fill:#D2A7D8;}
</style>
<path class="st0" d="M52.3,53.6c0,0-29.1-2.4-30.9,22C19.5,100,39,106,39,106s-19.5,23.1,1.8,35.6s32.5-5.5,32.8-12.9
	c0.3-7.3,35.3-19.9,40.8-33.5c0,0,18.2,36.3,24.7,41.1c6.7,4.9,25.5,6.7,31.4-6.3c5.9-13,0-26.8-7-30.3c0,0,17.4-13.3,9.4-33.2
	s-27.2-16.7-27.2-16.7s1-17.1-16.4-25.8c-17.4-8.8-31.3,4.5-31.3,4.5s-14.5-13.6-33.7-2.4C45.3,37.2,52.3,53.6,52.3,53.6z"/>
<g id="random">
	<g>
		<g>
			<g>
				<defs>
					<polygon id="SVGID_1_" points="135.9,117.5 135.9,117.5 161.8,117.5 161.8,153.4 135.9,153.4 					"/>
				</defs>
				<clipPath id="SVGID_00000183946163344967909810000002104810422723970691_">
					<use xlink:href="#SVGID_1_"  style="overflow:visible;"/>
				</clipPath>
				<g style="clip-path:url(#SVGID_00000183946163344967909810000002104810422723970691_);">
					<path class="st2" d="M135.9,149.6l9.2-27.2c0,0,9-9,15.5-2.8c4.3,4.2-5.8,32.2-11.2,33.3C139.9,154.9,135.9,149.6,135.9,149.6z
						"/>
				</g>
			</g>
		</g>
	</g>
</g>
<g id="random2">
	<g>
		<g>
			<g>
				<defs>
					<polygon id="SVGID_00000134244278807453838090000002839168155770243456_" points="67.6,117.5 67.6,117.5 41.9,117.5 
						41.9,153.4 67.6,153.4 					"/>
				</defs>
				<clipPath id="SVGID_00000096759562155703839290000005891026287782544515_">
					<use xlink:href="#SVGID_00000134244278807453838090000002839168155770243456_"  style="overflow:visible;"/>
				</clipPath>
				<g style="clip-path:url(#SVGID_00000096759562155703839290000005891026287782544515_);">
					<path class="st2" d="M67.6,149.6l-9.2-27.2c0,0-9-9-15.5-2.8c-4.3,4.2,5.8,32.2,11.3,33.3C63.7,154.9,67.6,149.6,67.6,149.6z"
						/>
				</g>
			</g>
		</g>
	</g>
</g>
<g id="random3">
	<g>
		<g>
			<g>
				<defs>
					<polygon id="SVGID_00000047750019701184280290000000112614275737829765_" points="140.7,121.4 140.7,121.4 153.4,121.4 
						153.4,136.8 140.7,136.8 					"/>
				</defs>
				<clipPath id="SVGID_00000028302924095466781300000011117082107798506923_">
					<use xlink:href="#SVGID_00000047750019701184280290000000112614275737829765_"  style="overflow:visible;"/>
				</clipPath>
				<g style="clip-path:url(#SVGID_00000028302924095466781300000011117082107798506923_);">
					<path class="st5" d="M141,130.4c0-0.2,0.8-1.8,5.9-5.9c1.7-1.4,3.8-2.6,5.9-3.1c0.4,0.6,0.7,1.3,0.6,2.1c-0.1,1-4.7,3.2-6,4.4
						c-2.1,1.9-6.7,8.7-6.7,8.9L141,130.4z"/>
				</g>
			</g>
		</g>
	</g>
</g>
<g id="random4">
	<g>
		<g>
			<g>
				<defs>
					<polygon id="SVGID_00000141414599378737904820000004273684380022064554_" points="54.8,121.4 54.8,121.4 42.2,121.4 
						42.2,136.8 54.8,136.8 					"/>
				</defs>
				<clipPath id="SVGID_00000168806232359690639940000010677711466981172356_">
					<use xlink:href="#SVGID_00000141414599378737904820000004273684380022064554_"  style="overflow:visible;"/>
				</clipPath>
				<g style="clip-path:url(#SVGID_00000168806232359690639940000010677711466981172356_);">
					<path class="st5" d="M54.5,130.4c0-0.2-0.8-1.8-5.9-5.9c-1.7-1.4-3.8-2.6-5.9-3.1c-0.4,0.6-0.7,1.3-0.6,2.1
						c0.1,1,4.7,3.2,6,4.4c2.1,1.9,6.7,8.7,6.7,8.9L54.5,130.4z"/>
				</g>
			</g>
		</g>
	</g>
</g>
<g>
	<g>
		<g>
			<defs>
				<polygon id="SVGID_00000103946881772760684710000003377195727513297343_" points="80.9,106.9 80.9,106.9 64.2,106.9 64.2,123 
					80.9,123 				"/>
			</defs>
			<clipPath id="SVGID_00000034072252073822985390000010895763796990953630_">
				<use xlink:href="#SVGID_00000103946881772760684710000003377195727513297343_"  style="overflow:visible;"/>
			</clipPath>
			<g style="clip-path:url(#SVGID_00000034072252073822985390000010895763796990953630_);">
				<ellipse class="st8" cx="72.6" cy="114.9" rx="8.3" ry="8.1"/>
			</g>
		</g>
	</g>
</g>
<path class="st9" d="M100.5,46.7L100.5,46.7C74,46.6,52.6,59.1,52.6,97.2c0,8.8,0.7,17.5,2,26.3c1.2,7.7,3.1,15.1,5.7,22.4
	c8.5,24.1,23.4,39,40.4,39v0.1c16.7,0,31.4-14.5,40-38c3.5-9.9,5.9-20.1,7-30.5c0.7-6.3,1.1-12.8,1.1-19.1
	C148.6,59.2,127,46.7,100.5,46.7z"/>
<path class="st0" d="M52.6,121.9l-4.2-2.7c-0.4-0.2-0.7-0.6-1-1c-1.7-2.8-8.3-14.9-8.3-27.2c0-17.7,31.3-48.2,48.8-51.5
	c4.4-0.8,9.1,0.3,12.6,3.1c0.6,0.4,1.1,0.7,1.8,0.7c4.2-0.1,19.9-0.3,25.2,1.9c27.4,11.8,32.9,31.1,32.2,44
	c-0.8,9.3-3,18.6-6.7,27.2c-0.2,0.6-0.7,1-1.1,1.3l-3,1.9c-1.8,1.1-4.2,0-4.4-2.1l-2.2-17.1c-0.1-0.8-0.6-1.4-1.1-2l-12-8.9
	c-0.3-0.2-0.6-0.6-0.8-0.9c-1.3-2.3-6.9-11.6-6.5-11.6c0.2,0,1.1,4.3,1.9,7.5c0.3,1.8-1,3.5-2.9,3.5c-3.9,0-9.6-0.2-11.8-1.6
	c-1.3-0.9-2.9-3.9-4-6.3c-0.8-1.8-3-2.2-4.5-1c-3.2,2.7-8.1,6.7-10.2,7.9c-2.2,1.3-5.8,2.1-8.5,2.6c-1.9,0.3-3.5-1.2-3.3-3.2l0,0
	c0.3-3-3.4-4.4-5.2-2l-4.4,6c-0.1,0.2-0.3,0.3-0.4,0.6l-8.8,7.2c-0.7,0.6-1,1.2-1.1,2l-1.4,19.4C56.9,121.9,54.5,123.2,52.6,121.9z"
	/>
<path class="st10" d="M49.1,92.8c0,0,56.2-69.1,100.8,0c0,0-1.3-23.5-25.6-33.9c-11.4-4.9-24.7-5.1-36.7-1.2
	C53.6,68.9,49.1,92.8,49.1,92.8z"/>
<path class="st10" d="M99.9,56.1c0,0-2.4,9.5,0,10c2.4,0.4,8.3-0.9,7.4-5c-0.9-4.2-1.9-7.9-4.2-7.9C100.8,53.2,99.9,56.1,99.9,56.1z
	"/>
<path class="st10" d="M119.9,68l-15.9-3.4c-0.6-0.1-1.2-0.1-1.8,0l-16,3.1c-2.8,0.6-5.4-1.7-5.3-4.5l0.2-6.2
	c0.1-2.8,2.6-4.8,5.2-4.3l16,2.6c0.6,0.1,1.2,0.1,1.8-0.1l16-3.8c2.9-0.7,5.5,1.6,5.5,4.4l-0.2,8C125.3,66.6,122.6,68.7,119.9,68z"
	/>
</svg>
