<?xml version="1.0" encoding="utf-8"?>
<!-- Generator: Adobe Illustrator 26.0.3, SVG Export Plug-In . SVG Version: 6.00 Build 0)  -->
<svg version="1.1" id="Calque_9" xmlns="http://www.w3.org/2000/svg" xmlns:xlink="http://www.w3.org/1999/xlink" x="0px" y="0px"
	 viewBox="0 0 200 200" style="enable-background:new 0 0 200 200;" xml:space="preserve">
<style type="text/css">
	.st0{fill:#3A2001;}
	.st1{fill:#6F412A;}
	.st2{fill:#90573A;}
</style>
<path class="st0" d="M45,65.5c0,0-24.3,6.6-18.6,27c5.7,20.4,23.4,19.5,23.4,19.5s-9,24.5,11.9,28.4s24.8-14.2,22.8-20.2
	s25.6-10.9,26.2-23.6c0,0,22.7,8.4,29.5,10.3c6.9,2,15.2-2,16.1-14.3c1-12.3-0.4-21.8-7.2-22.6c0,0,10.2-15.9-2.2-29.8
	c-12.4-13.8-27.1-5.6-27.1-5.6s-4.2-14.2-21-16.1s-24,12.9-24,12.9s-15.8-6.8-28.1,8C34.6,54.3,45,65.5,45,65.5z"/>
<path class="st1" d="M151.8,150.5l8.7-26.4c0,0,8.5-8.7,14.6-2.7c4.1,4.1-5.5,31.2-10.8,32.3C155.5,155.6,151.8,150.5,151.8,150.5z"
	/>
<path class="st1" d="M80.3,150.5l-8.7-26.4c0,0-8.5-8.7-14.6-2.7c-4.1,4.1,5.5,31.2,10.8,32.3C76.5,155.6,80.3,150.5,80.3,150.5z"/>
<path class="st2" d="M115.9,55.6c-25.7,0-46.6,12.1-46.6,49.1c0,49.5,29.6,85,46.6,85l0,0c17,0,46.6-35.5,46.6-85
	C162.5,67.6,141.8,55.6,115.9,55.6z"/>
<path class="st2" d="M116.2,55.8L116.2,55.8c-25.7-0.1-46.5,11.9-46.5,49c0,8.5,0.6,17,1.9,25.5c1.2,7.4,3,14.6,5.5,21.7
	c8.3,23.4,22.7,37.9,39.2,37.9v0.1c16.3,0,30.5-14.1,38.9-36.9c3.4-9.6,5.7-19.5,6.8-29.6c0.6-6.1,1.1-12.4,1.1-18.5
	C162.8,67.9,142,55.8,116.2,55.8z"/>
<path class="st0" d="M153.6,71.5c-2.9,3.4-6.6,6.1-10.8,8c-6.2,2.7-16.1,5.9-26.5,5.7c-17.2-0.4-49.4,11.9-44.8,39
	c0.9,4.8,4.1,10.2-9.9,9.4c-18.1-1.2-12.6-33.2-12.6-33.2s6.9,8.7,6.8-5.7c5.4-62.3,79.9-84.7,100-28.6
	C155.9,65.9,158,70.7,153.6,71.5L153.6,71.5z"/>
<path class="st0" d="M156.4,80.4c-0.4-1.1-1.3-3.8-0.8-4.8c2-3.3,4.4-0.1,5.7,2.2c1.4,2.5,2.8,8.1-1.5,7.3
	C158.5,84.9,156.9,81.8,156.4,80.4z"/>
<path class="st0" d="M160.7,97.1c-0.1-1.2-0.2-4.1,0.6-4.8c2.8-2.7,4.2,1.1,4.8,3.6c0.8,2.8,0.5,8.5-3.3,6.7
	C161.4,101.9,160.9,98.5,160.7,97.1z"/>
<path class="st0" d="M160.8,111.4c0.1-1.2,0.8-4,1.8-4.5c3.4-1.9,3.9,2.2,3.9,4.7c0,2.8-1.5,8.4-5,5.6
	C160.4,116.3,160.6,112.8,160.8,111.4z"/>
</svg>
