<?xml version="1.0" encoding="utf-8"?>
<!-- Generator: Adobe Illustrator 26.0.3, SVG Export Plug-In . SVG Version: 6.00 Build 0)  -->
<svg version="1.1" id="Calque_9" xmlns="http://www.w3.org/2000/svg" xmlns:xlink="http://www.w3.org/1999/xlink" x="0px" y="0px"
	 viewBox="0 0 788 1005" style="enable-background:new 0 0 788 1005;" xml:space="preserve">
<style type="text/css">
	.st0{fill:#3A2001;}
	.st1{clip-path:url(#SVGID_00000108295615751681431150000004150827605810389665_);}
	.st2{fill:#955A40;}
	.st3{clip-path:url(#SVGID_00000042726021006423733820000017044572115483840671_);}
	.st4{clip-path:url(#SVGID_00000127740992267167026080000006805862406082047371_);}
	.st5{fill:#6E4031;}
	.st6{clip-path:url(#SVGID_00000134967285177156388550000014583987955123048887_);}
	.st7{fill:#90573A;}
	.st8{fill:#129B94;}
</style>
<path class="st0" d="M438.1,251.7c0,0,27.9,2.3,29.7-21.2s-16.9-29.2-16.9-29.2s18.8-22.2-1.7-34.2c-20.4-12.1-31.3,5.4-31.5,12.4
	c-0.4,7-33.9,19.1-39.3,32.3c0,0-17.5-34.9-23.9-39.6c-6.4-4.7-24.5-6.4-30.2,6c-5.7,12.4,0,25.8,6.8,29.2c0,0-16.8,12.8-9,31.9
	c7.7,19.1,26.1,16.1,26.1,16.1s-1,16.5,15.8,24.9c16.8,8.4,30-4.3,30-4.3s14,13.1,32.4,2.3C444.9,267.5,438.1,251.7,438.1,251.7z"/>
<g>
	<g>
		<g>
			<defs>
				<polygon id="SVGID_1_" points="431.2,250.6 431.2,250.6 442.7,250.6 442.7,264.5 431.2,264.5 				"/>
			</defs>
			<clipPath id="SVGID_00000156570453075549084010000011985499035230015624_">
				<use xlink:href="#SVGID_1_"  style="overflow:visible;"/>
			</clipPath>
			<g style="clip-path:url(#SVGID_00000156570453075549084010000011985499035230015624_);">
				<path class="st2" d="M431.5,258.8c0-0.2,0.7-1.6,5.3-5.3c1.5-1.3,3.4-2.3,5.3-2.8c0.5,0.5,0.6,1.2,0.5,1.9
					c-0.1,0.8-4.2,2.9-5.4,4c-2.3,2.5-4.3,5.1-6,8L431.5,258.8z"/>
			</g>
		</g>
	</g>
</g>
<g>
	<g>
		<g>
			<defs>
				<polygon id="SVGID_00000112626526116636048660000017765127931240600239_" points="353.8,250.6 353.8,250.6 342.4,250.6 
					342.4,264.5 353.8,264.5 				"/>
			</defs>
			<clipPath id="SVGID_00000133530061729341629130000016314783609129511845_">
				<use xlink:href="#SVGID_00000112626526116636048660000017765127931240600239_"  style="overflow:visible;"/>
			</clipPath>
			<g style="clip-path:url(#SVGID_00000133530061729341629130000016314783609129511845_);">
				<path class="st2" d="M353.5,258.8c0-0.2-0.7-1.6-5.3-5.3c-1.5-1.3-3.4-2.3-5.3-2.8c-0.5,0.5-0.6,1.2-0.5,1.9
					c0.1,0.8,4.2,2.9,5.4,4c2.3,2.5,4.3,5.1,6,8L353.5,258.8z"/>
			</g>
		</g>
	</g>
</g>
<g id="random">
	<g>
		<g>
			<g>
				<defs>
					<polygon id="SVGID_00000119831548717123708340000008499174759806925496_" points="423.4,246.3 423.4,246.3 447.8,246.3 
						447.8,280.3 423.4,280.3 					"/>
				</defs>
				<clipPath id="SVGID_00000090987269834242243700000009765145900361306556_">
					<use xlink:href="#SVGID_00000119831548717123708340000008499174759806925496_"  style="overflow:visible;"/>
				</clipPath>
				<g style="clip-path:url(#SVGID_00000090987269834242243700000009765145900361306556_);">
					<path class="st5" d="M423.4,276.7l8.7-25.7c0,0,8.5-8.5,14.7-2.6c4.1,3.9-5.4,30.5-10.7,31.5
						C427.2,281.7,423.4,276.7,423.4,276.7z"/>
				</g>
			</g>
		</g>
	</g>
</g>
<g id="random2">
	<g>
		<g>
			<g>
				<defs>
					<polygon id="SVGID_00000028313552902798179050000000232940862121544848_" points="362.7,246.3 362.7,246.3 338.3,246.3 
						338.3,280.3 362.7,280.3 					"/>
				</defs>
				<clipPath id="SVGID_00000139293712702594328210000008851408805667236484_">
					<use xlink:href="#SVGID_00000028313552902798179050000000232940862121544848_"  style="overflow:visible;"/>
				</clipPath>
				<g style="clip-path:url(#SVGID_00000139293712702594328210000008851408805667236484_);">
					<path class="st5" d="M362.7,276.7L354,251c0,0-8.5-8.5-14.7-2.6c-4.1,3.9,5.4,30.5,10.7,31.5
						C358.9,281.7,362.7,276.7,362.7,276.7z"/>
				</g>
			</g>
		</g>
	</g>
</g>
<path class="st7" d="M394.2,181.2L394.2,181.2c-23.9-0.1-43.2,11.1-43.2,45.5c0,7.9,0.6,15.8,1.8,23.7c1.1,6.9,2.8,13.6,5.1,20.2
	c7.7,21.7,21.1,35.2,36.4,35.2v0.1c15.1,0,28.3-13.1,36.1-34.3c3.2-8.9,5.3-18.1,6.3-27.5c0.6-5.7,1-11.5,1-17.2
	C437.5,192.4,418.1,181.2,394.2,181.2z"/>
<path class="st0" d="M345.3,166.9c0,0-28.5-2.4-30.4,21.6c-1.8,24,17.3,29.9,17.3,29.9s-19.2,22.6,1.8,34.9
	c20.9,12.3,26.2,5.4,16.2-28.7c-2-6.9,60.6-10.5,66.1-23.9c0,0,15.8,33.7,22.4,38.5c6.5,4.8,17,15.5,22.9,2.8
	c5.8-12.7,0-26.4-6.8-29.8c0,0,17.1-13.1,9.3-32.6s-26.8-16.4-26.8-16.4s1-16.8-16.1-25.4c-17.2-8.6-30.7,4.4-30.7,4.4
	s-14.3-13.3-33.1-2.4C338.4,150.7,345.3,166.9,345.3,166.9z"/>
<path class="st8" d="M348.2,198.5c0,0,50.7-62.3,90.9,0c0,0-1.2-21.2-23.1-30.6c-10.3-4.4-22.3-4.6-33.1-1.1
	C352.3,176.9,348.2,198.5,348.2,198.5z"/>
</svg>
