<?xml version="1.0" encoding="utf-8"?>
<!-- Generator: Adobe Illustrator 26.0.3, SVG Export Plug-In . SVG Version: 6.00 Build 0)  -->
<svg version="1.1" id="Calque_9" xmlns="http://www.w3.org/2000/svg" xmlns:xlink="http://www.w3.org/1999/xlink" x="0px" y="0px"
	 viewBox="0 0 788 1005" style="enable-background:new 0 0 788 1005;" xml:space="preserve">
<style type="text/css">
	.st0{fill:none;stroke:#2E858E;stroke-width:3;stroke-miterlimit:10;}
	.st1{fill:#3A2001;}
	.st2{fill:#6F412A;}
	.st3{fill:#90573A;}
	.st4{fill:#2E858E;}
</style>
<path class="st0" d="M340.8,236c-1.1-4.3-1.7-8.6-1.7-13.1c0-29.3,24.7-53.1,55.1-53.1s55.1,23.9,55.1,53.1c0,4.7-0.7,9.3-1.9,13.6"
	/>
<path class="st1" d="M387.5,280.4c0,0,12.9,8.1,19.7-2.8c6.8-10.8-0.9-18.3-0.9-18.3s14.6-6,7.7-17c-6.9-10.9-16.4-5.2-18.3-1.9
	c-2,3.3-15.3-6.9-21.2-2c0,0-5.5-13.5-7.5-17.4c-1.9-3.8-10.3-9.2-16.1-4.6c-5.9,4.6-6.4,12.5-4,15.7c0,0-11.3,2-12.3,13.1
	c-1.1,11.2,8.6,14.3,8.6,14.3s-4.6,7.7,1.4,15.9c6,8.2,15.6,5.4,15.6,5.4s3.5,9.8,15.1,9.2C386.8,289.7,387.5,280.4,387.5,280.4z"/>
<path class="st1" d="M401.9,280.4c0,0-12.9,8.1-19.7-2.8c-6.8-10.8,0.9-18.3,0.9-18.3s-14.6-6-7.7-17c6.9-10.9,16.4-5.2,18.3-1.9
	c2,3.3,15.3-6.9,21.2-2c0,0,5.5-13.5,7.5-17.4c1.9-3.8,10.3-9.2,16.1-4.6c5.9,4.6,6.4,12.5,4,15.7c0,0,11.3,2,12.3,13.1
	c1.1,11.2-8.6,14.3-8.6,14.3s4.6,7.7-1.4,15.9c-6,8.2-15.6,5.4-15.6,5.4s-3.5,9.8-15.1,9.2C402.5,289.7,401.9,280.4,401.9,280.4z"/>
<path class="st2" d="M427.2,267.1l8.1-24.5c0,0,7.9-8.1,13.6-2.5c3.8,3.8-5.1,29-10,30C430.7,271.9,427.2,267.1,427.2,267.1z"/>
<path class="st2" d="M360.8,267.1l-8.1-24.5c0,0-7.9-8.1-13.6-2.5c-3.8,3.8,5.1,29,10,30C357.3,271.9,360.8,267.1,360.8,267.1z"/>
<path class="st3" d="M394.2,179L394.2,179c-23.9-0.1-43.2,11.1-43.2,45.5c0,7.9,0.6,15.8,1.8,23.7c1.1,6.9,2.8,13.6,5.1,20.2
	c7.7,21.7,21.1,35.3,36.4,35.3l0,0c15.1,0,28.3-13.1,36.1-34.3c3.2-8.9,5.3-18.1,6.3-27.5c0.6-5.7,1-11.5,1-17.2
	C437.5,190.2,418.1,179,394.2,179z"/>
<path class="st3" d="M368.9,175.2c-0.4-0.7,21.9-9.9,21.9-9.9l2.6-0.4c1.1-0.2,2.2-0.1,3.3,0.3l0,0c0,0,8.8,2.4,9.3,4.7
	s2,14.8,2,14.8l-7.7,1.6L394,184c0,0-8.1,0-9.7-0.7S368.9,175.2,368.9,175.2z"/>
<path class="st1" d="M393.8,182.6c-0.3,0.5-0.6,1-1,1.5c-8.6,11.2-37,21.1-40,33.8c-3.1,13.2,2.2,29.7,2.2,29.7s-7.4-8.7-7.8-8.8
	s-23.8-50.3,20.8-70.4c20.1-9,25.8-3.2,25.8-3.2c0,0.2,0.1,0.4,0.3,0.6C395.3,167.6,400.2,171.8,393.8,182.6z"/>
<path class="st1" d="M439.9,240.1c-0.4,0.1-6.1,5.4-6.1,5.4s4.8-14.9,2-28.2S403.6,196,397,184.1c0.3-0.5,0.6-1,0.9-1.5
	c5.8-10.8,1.4-15,0.2-17c2.4-1.2,8.9-2.7,22.5,4C461.9,189.8,440.3,239.9,439.9,240.1z"/>
<g>
	<path class="st4" d="M356.3,271.3l-1.9,0.4c-2,0.4-4-0.9-4.3-2.9l-6-29.2c-0.4-2,0.9-4,2.9-4.3l1.9-0.4c2-0.4,4,0.9,4.3,2.9l6,29.2
		C359.6,268.9,358.3,270.9,356.3,271.3z"/>
	<path class="st4" d="M349.7,269.4l-3.9,0.8c-2,0.4-4-0.9-4.3-2.9l-4.6-22.6c-0.4-2,0.9-4,2.9-4.3l3.9-0.8L349.7,269.4z"/>
	<path class="st4" d="M338.6,234l2.3-1.3c0.6-0.3,1.2,0,1.3,0.6l1.7,8.1c0.1,0.4-0.2,0.9-0.6,1l0,0c-0.4,0.1-0.8,0-1-0.4l-4-6.7
		C338.1,234.8,338.2,234.3,338.6,234z"/>
</g>
<g>
	<path class="st4" d="M432.4,271.3l1.9,0.4c2,0.4,4-0.9,4.3-2.9l6-29.2c0.4-2-0.9-4-2.9-4.3l-1.9-0.4c-2-0.4-4,0.9-4.3,2.9l-6,29.2
		C429.1,268.9,430.4,270.9,432.4,271.3z"/>
	<path class="st4" d="M439,269.4l3.9,0.8c2,0.4,4-0.9,4.3-2.9l4.6-22.6c0.4-2-0.9-4-2.9-4.3l-3.9-0.8L439,269.4z"/>
	<path class="st4" d="M450,234l-2.3-1.3c-0.6-0.3-1.2,0-1.3,0.6l-1.7,8.1c-0.1,0.4,0.2,0.9,0.6,1l0,0c0.4,0.1,0.8,0,1-0.4l4-6.7
		C450.6,234.8,450.5,234.3,450,234z"/>
</g>
<path class="st0" d="M353.5,270.7l-16.3,13c-2.8,2.2-2.2,6.5,1,7.9l11.1,4.9"/>
<circle class="st4" cx="353.5" cy="296.5" r="6.4"/>
</svg>
