<?xml version="1.0" encoding="utf-8"?>
<!-- Generator: Adobe Illustrator 26.0.3, SVG Export Plug-In . SVG Version: 6.00 Build 0)  -->
<svg version="1.1" id="Calque_9" xmlns="http://www.w3.org/2000/svg" xmlns:xlink="http://www.w3.org/1999/xlink" x="0px" y="0px"
	 viewBox="0 0 200 200" style="enable-background:new 0 0 200 200;" xml:space="preserve">
<style type="text/css">
	.st0{fill:none;stroke:#2E858E;stroke-width:3;stroke-miterlimit:10;}
	.st1{fill:#3A2001;}
	.st2{fill:#6F412A;}
	.st3{fill:#90573A;}
	.st4{fill:#2E858E;}
</style>
<path class="st0" d="M44.4,104.9c-1.2-4.6-1.8-9.2-1.8-14c0-31.3,26.4-56.8,58.9-56.8s58.9,25.6,58.9,56.8c0,5-0.7,9.9-2,14.5"/>
<path class="st1" d="M94.4,152.3c0,0,13.8,8.6,21-3s-1-19.6-1-19.6s15.6-6.5,8.3-18.1s-17.5-5.6-19.6-2c-2.1,3.6-16.4-7.4-22.7-2.1
	c0,0-5.9-14.4-8-18.6c-2-4.1-11-9.9-17.2-5c-6.3,4.9-6.9,13.3-4.3,16.8c0,0-12,2.1-13.2,14c-1.1,11.9,9.2,15.3,9.2,15.3
	s-4.9,8.2,1.5,17s16.7,5.8,16.7,5.8s3.7,10.5,16.1,9.9C93.6,162.3,94.4,152.3,94.4,152.3z"/>
<path class="st1" d="M109.7,152.3c0,0-13.8,8.6-21-3s1-19.6,1-19.6s-15.6-6.5-8.3-18.1s17.5-5.6,19.6-2c2.1,3.6,16.4-7.4,22.7-2.1
	c0,0,5.9-14.4,8-18.6c2-4.1,11-9.9,17.2-5c6.3,4.9,6.9,13.3,4.3,16.8c0,0,12,2.1,13.2,14c1.1,11.9-9.2,15.3-9.2,15.3s4.9,8.2-1.5,17
	s-16.7,5.8-16.7,5.8s-3.7,10.5-16.1,9.9C110.4,162.3,109.7,152.3,109.7,152.3z"/>
<path class="st2" d="M136.8,138.1l8.7-26.2c0,0,8.4-8.7,14.5-2.7c4.1,4.1-5.5,31-10.7,32.1C140.5,143.3,136.8,138.1,136.8,138.1z"/>
<path class="st2" d="M65.8,138.1L57.1,112c0,0-8.4-8.7-14.5-2.7c-4.1,4.1,5.5,31,10.7,32.1C62.1,143.3,65.8,138.1,65.8,138.1z"/>
<path class="st3" d="M101.5,44L101.5,44C76,43.8,55.3,55.8,55.3,92.6c0,8.4,0.6,16.9,1.9,25.3c1.2,7.4,3,14.5,5.5,21.6
	c8.2,23.2,22.6,37.7,38.9,37.7l0,0c16.1,0,30.3-14,38.6-36.7c3.4-9.5,5.7-19.4,6.7-29.4c0.6-6.1,1.1-12.3,1.1-18.4
	C147.8,55.9,127.1,44,101.5,44z"/>
<path class="st3" d="M74.5,39.9C74,39.1,97.9,29.3,97.9,29.3l2.8-0.4c1.2-0.2,2.4-0.1,3.5,0.3l0,0c0,0,9.4,2.6,9.9,5
	c0.5,2.5,2.1,15.8,2.1,15.8l-8.2,1.7l-6.7-2.5c0,0-8.7,0-10.4-0.7C89.2,47.8,74.5,39.9,74.5,39.9z"/>
<path class="st1" d="M101.1,47.8c-0.3,0.5-0.6,1.1-1.1,1.6c-9.2,12-39.6,22.6-42.8,36.1c-3.3,14.1,2.4,31.8,2.4,31.8
	s-7.9-9.3-8.3-9.4c-0.4-0.1-25.4-53.8,22.2-75.3c21.5-9.6,27.6-3.4,27.6-3.4c0,0.2,0.1,0.4,0.3,0.6
	C102.7,31.8,107.9,36.3,101.1,47.8z"/>
<path class="st1" d="M150.4,109.3c-0.4,0.1-6.5,5.8-6.5,5.8s5.1-15.9,2.1-30.1c-3-14.2-34.4-22.8-41.5-35.5c0.3-0.5,0.6-1.1,1-1.6
	c6.2-11.5,1.5-16,0.2-18.2c2.6-1.3,9.5-2.9,24.1,4.3C173.9,55.5,150.8,109.1,150.4,109.3z"/>
<g>
	<path class="st4" d="M61,142.6l-2,0.4c-2.1,0.4-4.3-1-4.6-3.1L48,108.7c-0.4-2.1,1-4.3,3.1-4.6l2-0.4c2.1-0.4,4.3,1,4.6,3.1
		l6.4,31.2C64.5,140.1,63.1,142.2,61,142.6z"/>
	<path class="st4" d="M53.9,140.6l-4.2,0.9c-2.1,0.4-4.3-1-4.6-3.1l-4.9-24.2c-0.4-2.1,1-4.3,3.1-4.6l4.2-0.9L53.9,140.6z"/>
	<path class="st4" d="M42.1,102.8l2.5-1.4c0.6-0.3,1.3,0,1.4,0.6l1.8,8.7c0.1,0.4-0.2,1-0.6,1.1l0,0c-0.4,0.1-0.9,0-1.1-0.4
		l-4.3-7.2C41.5,103.6,41.6,103.1,42.1,102.8z"/>
</g>
<g>
	<path class="st4" d="M142.4,142.6l2,0.4c2.1,0.4,4.3-1,4.6-3.1l6.4-31.2c0.4-2.1-1-4.3-3.1-4.6l-2-0.4c-2.1-0.4-4.3,1-4.6,3.1
		l-6.4,31.2C138.8,140.1,140.2,142.2,142.4,142.6z"/>
	<path class="st4" d="M149.4,140.6l4.2,0.9c2.1,0.4,4.3-1,4.6-3.1l4.9-24.2c0.4-2.1-1-4.3-3.1-4.6l-4.2-0.9L149.4,140.6z"/>
	<path class="st4" d="M161.2,102.8l-2.5-1.4c-0.6-0.3-1.3,0-1.4,0.6l-1.8,8.7c-0.1,0.4,0.2,1,0.6,1.1l0,0c0.4,0.1,0.9,0,1.1-0.4
		l4.3-7.2C161.8,103.6,161.7,103.1,161.2,102.8z"/>
</g>
<path class="st0" d="M58,142l-17.4,13.9c-3,2.4-2.4,6.9,1.1,8.4l11.9,5.2"/>
<circle class="st4" cx="58" cy="169.6" r="6.8"/>
</svg>
