<?xml version="1.0" encoding="utf-8"?>
<!-- Generator: Adobe Illustrator 26.0.3, SVG Export Plug-In . SVG Version: 6.00 Build 0)  -->
<svg version="1.1" id="Calque_1" xmlns="http://www.w3.org/2000/svg" xmlns:xlink="http://www.w3.org/1999/xlink" x="0px" y="0px"
	 viewBox="0 0 788 1005" style="enable-background:new 0 0 788 1005;" xml:space="preserve">
<style type="text/css">
	.st0{fill:#353535;}
	.st1{fill:#5E5E5E;}
	.st2{clip-path:url(#SVGID_00000161598384439770864840000002709950775133948309_);}
	.st3{fill:#B8775C;}
	.st4{clip-path:url(#SVGID_00000041975153808501746130000008261387263494050478_);}
	.st5{clip-path:url(#SVGID_00000036243906982959477840000011220431731936337560_);}
	.st6{fill:#573623;}
	.st7{clip-path:url(#SVGID_00000006686207634825742340000003142919155080000660_);}
	.st8{clip-path:url(#SVGID_00000116915940130571826540000007024355966737183933_);}
	.st9{fill:#FFFFFF;}
	.st10{clip-path:url(#SVGID_00000101806307197059190690000003818571876743326877_);}
	.st11{clip-path:url(#SVGID_00000074437630211129990360000000423792846147945348_);}
	.st12{fill:#090909;}
	.st13{clip-path:url(#SVGID_00000095323287910174779230000014580069141774424724_);}
	.st14{fill:#D48F72;}
	.st15{fill:#E2AB81;}
</style>
<path class="st0" d="M311.4,277l-45.2-34.4c-2.3-1.8-5.4-1.4-7.2,0.7l-5.9,7.2c-2,2.3-1.4,6.1,1.4,7.7l46.6,29.3l0.7-14l-36.2,23
	c-2.5,1.8-3.4,5.4-1.1,7.7l5.6,6.8c1.8,2,4.7,2.5,7,0.9l40.3-27.9L311.4,277z"/>
<path class="st1" d="M364.9,340.6c0,0,0,3.2,0,2.1v-0.2C364.9,341.9,364.9,341.2,364.9,340.6z"/>
<path class="st1" d="M364.9,340.6c0,0,0,3.2,0,2.1v-0.2C364.9,341.9,364.9,341.2,364.9,340.6z"/>
<path class="st1" d="M364.9,340.6c0,0,0,3.2,0,2.1v-0.2C364.9,341.9,364.9,341.2,364.9,340.6z"/>
<path class="st1" d="M364.9,340.6c0,0,0,3.2,0,2.1v-0.2C364.9,341.9,364.9,341.2,364.9,340.6z"/>
<path class="st1" d="M364.9,340.6c0,0,0,3.2,0,2.1v-0.2C364.9,341.9,364.9,341.2,364.9,340.6z"/>
<g id="random">
	<g>
		<g>
			<g>
				<defs>
					<polygon id="SVGID_1_" points="457.5,305.9 457.5,305.9 494.7,305.9 494.7,370.6 457.5,370.6 					"/>
				</defs>
				<clipPath id="SVGID_00000142159651733443178290000001264236546716647813_">
					<use xlink:href="#SVGID_1_"  style="overflow:visible;"/>
				</clipPath>
				<g style="clip-path:url(#SVGID_00000142159651733443178290000001264236546716647813_);">
					<path class="st3" d="M457.5,366.4l8.1-49c0,0,12.8-17.9,25.7-9c8.6,5.9-0.8,56.6-9.9,60C465.7,374.3,457.5,366.4,457.5,366.4z"
						/>
				</g>
			</g>
		</g>
	</g>
</g>
<g id="random2">
	<g>
		<g>
			<g>
				<defs>
					<polygon id="SVGID_00000139988100995201216550000014688923803767040154_" points="330.5,305.9 330.5,305.9 293.3,305.9 
						293.3,370.6 330.5,370.6 					"/>
				</defs>
				<clipPath id="SVGID_00000065059702084907989790000002563848635381694619_">
					<use xlink:href="#SVGID_00000139988100995201216550000014688923803767040154_"  style="overflow:visible;"/>
				</clipPath>
				<g style="clip-path:url(#SVGID_00000065059702084907989790000002563848635381694619_);">
					<path class="st3" d="M330.5,366.4l-8.1-49c0,0-12.8-17.9-25.7-9c-8.6,5.9,0.8,56.6,9.9,60C322.3,374.3,330.5,366.4,330.5,366.4
						z"/>
				</g>
			</g>
		</g>
	</g>
</g>
<g>
	<g>
		<g>
			<defs>
				<polygon id="SVGID_00000111910951653938025540000006486007325775453610_" points="415.9,279.5 415.9,279.5 460.9,279.5 
					460.9,293.2 415.9,293.2 				"/>
			</defs>
			<clipPath id="SVGID_00000179613613636485969050000015228522092022088064_">
				<use xlink:href="#SVGID_00000111910951653938025540000006486007325775453610_"  style="overflow:visible;"/>
			</clipPath>
			<g style="clip-path:url(#SVGID_00000179613613636485969050000015228522092022088064_);">
				<path class="st6" d="M458.7,293.2c-0.3,0-0.6-0.1-0.8-0.2c-4.5-1.9-9.1-3.4-13.8-4.5c-15.1-3.4-16.1-1-21.3,0
					c-1.5,0.3-5.2-0.6-6-1.5s-1.4-4.1-0.5-4.9c0.4-0.3,7.1-4.9,24.4-1c7.2,1.6,18.6,7.9,18.9,8c1.1,0.5,1.6,1.7,1.1,2.8
					C460.4,292.7,459.6,293.3,458.7,293.2L458.7,293.2z"/>
			</g>
		</g>
	</g>
</g>
<g>
	<g>
		<g>
			<defs>
				<polygon id="SVGID_00000120556389185337088310000012372101475134522288_" points="372.1,279.5 372.1,279.5 327.1,279.5 
					327.1,293.2 372.1,293.2 				"/>
			</defs>
			<clipPath id="SVGID_00000101072992730627362190000010512918102578271399_">
				<use xlink:href="#SVGID_00000120556389185337088310000012372101475134522288_"  style="overflow:visible;"/>
			</clipPath>
			<g style="clip-path:url(#SVGID_00000101072992730627362190000010512918102578271399_);">
				<path class="st6" d="M329.3,293.2c0.3,0,0.6-0.1,0.8-0.2c4.5-1.9,9.1-3.4,13.8-4.5c15.1-3.4,16.1-1,21.3,0
					c1.5,0.3,5.2-0.6,6-1.5s1.4-4.1,0.5-4.9c-0.4-0.3-7.1-4.9-24.4-1c-7.2,1.6-18.6,7.9-18.9,8c-1.1,0.5-1.6,1.7-1.1,2.8
					C327.6,292.7,328.4,293.3,329.3,293.2L329.3,293.2z"/>
			</g>
		</g>
	</g>
</g>
<g>
	<g>
		<g>
			<defs>
				<polygon id="SVGID_00000060751974482490102080000006101026852184467890_" points="425.5,306.6 425.5,306.6 454.5,306.6 
					454.5,334.5 425.5,334.5 				"/>
			</defs>
			<clipPath id="SVGID_00000151513964703740390280000009005949530250499242_">
				<use xlink:href="#SVGID_00000060751974482490102080000006101026852184467890_"  style="overflow:visible;"/>
			</clipPath>
			<g style="clip-path:url(#SVGID_00000151513964703740390280000009005949530250499242_);">
				<ellipse class="st9" cx="440" cy="320.6" rx="14.5" ry="13.9"/>
			</g>
		</g>
	</g>
</g>
<g>
	<g>
		<g>
			<defs>
				<polygon id="SVGID_00000112613120162644848620000008074299602495720099_" points="362.5,306.6 362.5,306.6 333.5,306.6 
					333.5,334.5 362.5,334.5 				"/>
			</defs>
			<clipPath id="SVGID_00000062913346022881795410000000349739300958788501_">
				<use xlink:href="#SVGID_00000112613120162644848620000008074299602495720099_"  style="overflow:visible;"/>
			</clipPath>
			<g style="clip-path:url(#SVGID_00000062913346022881795410000000349739300958788501_);">
				<ellipse class="st9" cx="348" cy="320.6" rx="14.5" ry="13.9"/>
			</g>
		</g>
	</g>
</g>
<g>
	<g>
		<g>
			<defs>
				<polygon id="SVGID_00000105396633583039753230000017396944000749003428_" points="430.2,312.9 430.2,312.9 449.6,312.9 
					449.6,332.3 430.2,332.3 				"/>
			</defs>
			<clipPath id="SVGID_00000110435788713719259260000013306396298590621588_">
				<use xlink:href="#SVGID_00000105396633583039753230000017396944000749003428_"  style="overflow:visible;"/>
			</clipPath>
			<g style="clip-path:url(#SVGID_00000110435788713719259260000013306396298590621588_);">
				<circle class="st12" cx="439.9" cy="322.6" r="9.7"/>
			</g>
		</g>
	</g>
</g>
<g>
	<g>
		<g>
			<defs>
				<polygon id="SVGID_00000095330995349010677070000011049845472953592983_" points="357.8,312.9 357.8,312.9 338.4,312.9 
					338.4,332.3 357.8,332.3 				"/>
			</defs>
			<clipPath id="SVGID_00000109028250197563058420000006107221176308135327_">
				<use xlink:href="#SVGID_00000095330995349010677070000011049845472953592983_"  style="overflow:visible;"/>
			</clipPath>
			<g style="clip-path:url(#SVGID_00000109028250197563058420000006107221176308135327_);">
				<circle class="st12" cx="348.1" cy="322.6" r="9.7"/>
			</g>
		</g>
	</g>
</g>
<path class="st14" d="M469.9,331c2.3-16.1,3.2-54,3.2-54c0-45.5-31.5-74.9-76.5-75.8l0,0h-5.3l0,0c-45,0.9-76.5,30.3-76.5,75.8
	c0,0,0.9,38,3.2,54c1.8,12.9-12.8,35,3.1,57c9.2,12.7,53.8,20.1,70.4,24.3c0.7,0.2,1.4,0.3,2.1,0.3c0.1,0,0.3,0,0.4,0s0.3,0,0.4,0
	c0.7,0,1.4-0.1,2.1-0.3c13.9-3.5,47.5-9.3,63.4-18.5c2.5-0.8,4.7-2.4,6.1-4.7c0.3-0.3,0.6-0.7,0.9-1
	C482.8,366,468.1,343.9,469.9,331z"/>
<path class="st3" d="M381.7,346c-1,0.1-1.4,0.7-0.6,1c3,1.2,8.7,3.4,12.5,3.4c3.6,0,9-2.1,11.8-3.3c0.8-0.3,0.4-1-0.6-1
	c-3.4-0.2-4.8,0.6-11.6,0.6C387.4,346.7,385.1,345.8,381.7,346z"/>
<path class="st15" d="M316.3,319.1l-2.6-2c0,0-17.8-45-18.8-63c-1.6-32,38.5-69.3,79.3-70.8c14.6-0.5,39.7-1.6,58.7,1.3
	c45.4,6.9,58.9,58.3,57.4,75c-1.7,19.1-16,57.5-16,57.5l-2.6,2l-1.5-33.5c-0.1-2.2-0.6-4.4-1.5-6.5l-3.3-7.7
	c-0.2-0.6-0.5-1.1-0.8-1.6c-0.7-1.3-2.2-4.1-3.9-7.2c-3.8-7.1-11.9-10.8-19.7-8.9c-0.9,0.2-1.9,0.5-2.8,0.7
	c-3.7,0.9-7.6,0.6-11.1-0.9c-8.7-3.6-25.3-10.4-29.6-12.4c-1.8-0.8-5.1,0.1-8.4,1.4c-5.6,2.3-12,1.8-17.1-1.5
	c-3.4-2.2-7.3-4.2-10.3-4.2c-1.1,0-1.8,0.6-2.2,1.5c-2.9,6.4-8.7,11-15.7,11.5l-1.6,0.1c-8.2,0.6-15,6.7-16.6,14.7l-0.3,1.3
	c-0.4,2.3-1.3,4.4-2.5,6.4l-4.5,7c-2,3.1-3,6.7-2.9,10.3L316.3,319.1z"/>
<path class="st0" d="M320.2,284l23.9-9.6c29.8-11.7,63.5-12.4,93.3-1.3L467,284c5.7,2,11.7,7.4,13.3,2l1.5-5.9
	c2-7.2-15.2-38.3-30-49.6c-10.4-7.8-23-12.6-36.1-14.3c-12.6-1.3-25-1.5-37.4-0.4c-11.7,1.1-23,5.2-32.6,11.5
	c-18.5,12.2-42.8,48-41.1,53.5l2.2,5.9C308.7,291.8,314.8,286,320.2,284z"/>
</svg>
