<?xml version="1.0" encoding="utf-8"?>
<!-- Generator: Adobe Illustrator 26.0.3, SVG Export Plug-In . SVG Version: 6.00 Build 0)  -->
<svg version="1.1" id="Calque_1" xmlns="http://www.w3.org/2000/svg" xmlns:xlink="http://www.w3.org/1999/xlink" x="0px" y="0px"
	 viewBox="0 0 788 1005" style="enable-background:new 0 0 788 1005;" xml:space="preserve">
<style type="text/css">
	.st0{fill:none;stroke:#2E858E;stroke-width:3;stroke-miterlimit:10;}
	.st1{fill:#5E5E5E;}
	.st2{clip-path:url(#SVGID_00000096757060961477073590000002263490744460049556_);}
	.st3{fill:#B8775C;}
	.st4{clip-path:url(#SVGID_00000063627971183106149380000007253344389635466158_);}
	.st5{clip-path:url(#SVGID_00000060018843030910889160000004711496040076267448_);}
	.st6{fill:#573623;}
	.st7{clip-path:url(#SVGID_00000180337901500265404520000011144620934174693017_);}
	.st8{clip-path:url(#SVGID_00000003800796590273774990000014721721144422394027_);}
	.st9{fill:#FFFFFF;}
	.st10{clip-path:url(#SVGID_00000025404314570551065310000015284953072262603136_);}
	.st11{clip-path:url(#SVGID_00000068645913083276112200000012476010613802436999_);}
	.st12{fill:#090909;}
	.st13{clip-path:url(#SVGID_00000054232143457105240480000006352615212455073680_);}
	.st14{fill:#D48F72;}
	.st15{fill:#E2AB81;}
	.st16{fill:#2E858E;}
</style>
<path class="st0" d="M292.2,296c-2.1-5.7-3.1-11.7-3.1-17.7c0-39.7,46.9-72,104.6-72s104.6,32.2,104.6,72c0,6.4-1.3,12.4-3.6,18.5"
	/>
<path class="st1" d="M364.9,340.6c0,0,0,3.2,0,2.1v-0.2C364.9,341.9,364.9,341.2,364.9,340.6z"/>
<path class="st1" d="M364.9,340.6c0,0,0,3.2,0,2.1v-0.2C364.9,341.9,364.9,341.2,364.9,340.6z"/>
<path class="st1" d="M364.9,340.6c0,0,0,3.2,0,2.1v-0.2C364.9,341.9,364.9,341.2,364.9,340.6z"/>
<path class="st1" d="M364.9,340.6c0,0,0,3.2,0,2.1v-0.2C364.9,341.9,364.9,341.2,364.9,340.6z"/>
<path class="st1" d="M364.9,340.6c0,0,0,3.2,0,2.1v-0.2C364.9,341.9,364.9,341.2,364.9,340.6z"/>
<g id="random">
	<g>
		<g>
			<g>
				<defs>
					<polygon id="SVGID_1_" points="457.5,305.9 457.5,305.9 494.7,305.9 494.7,370.6 457.5,370.6 					"/>
				</defs>
				<clipPath id="SVGID_00000159448151411896263570000004153187610040753586_">
					<use xlink:href="#SVGID_1_"  style="overflow:visible;"/>
				</clipPath>
				<g style="clip-path:url(#SVGID_00000159448151411896263570000004153187610040753586_);">
					<path class="st3" d="M457.5,366.4l8.1-49c0,0,12.8-17.9,25.7-9c8.6,5.9-0.8,56.6-9.9,60C465.7,374.3,457.5,366.4,457.5,366.4z"
						/>
				</g>
			</g>
		</g>
	</g>
</g>
<g id="random2">
	<g>
		<g>
			<g>
				<defs>
					<polygon id="SVGID_00000131348582557734365840000002146068547233958563_" points="330.5,305.9 330.5,305.9 293.3,305.9 
						293.3,370.6 330.5,370.6 					"/>
				</defs>
				<clipPath id="SVGID_00000180347973387202780930000014624959875488769983_">
					<use xlink:href="#SVGID_00000131348582557734365840000002146068547233958563_"  style="overflow:visible;"/>
				</clipPath>
				<g style="clip-path:url(#SVGID_00000180347973387202780930000014624959875488769983_);">
					<path class="st3" d="M330.5,366.4l-8.1-49c0,0-12.8-17.9-25.7-9c-8.6,5.9,0.8,56.6,9.9,60C322.3,374.3,330.5,366.4,330.5,366.4
						z"/>
				</g>
			</g>
		</g>
	</g>
</g>
<g>
	<g>
		<g>
			<defs>
				<polygon id="SVGID_00000067957831858509724950000014170599281795701146_" points="415.9,279.5 415.9,279.5 460.9,279.5 
					460.9,293.2 415.9,293.2 				"/>
			</defs>
			<clipPath id="SVGID_00000042735165078803862290000013713782614639568813_">
				<use xlink:href="#SVGID_00000067957831858509724950000014170599281795701146_"  style="overflow:visible;"/>
			</clipPath>
			<g style="clip-path:url(#SVGID_00000042735165078803862290000013713782614639568813_);">
				<path class="st6" d="M458.7,293.2c-0.3,0-0.6-0.1-0.8-0.2c-4.5-1.9-9.1-3.4-13.8-4.5c-15.1-3.4-16.1-1-21.3,0
					c-1.5,0.3-5.2-0.6-6-1.5s-1.4-4.1-0.5-4.9c0.4-0.3,7.1-4.9,24.4-1c7.2,1.6,18.6,7.9,18.9,8c1.1,0.5,1.6,1.7,1.1,2.8
					C460.4,292.7,459.6,293.3,458.7,293.2L458.7,293.2z"/>
			</g>
		</g>
	</g>
</g>
<g>
	<g>
		<g>
			<defs>
				<polygon id="SVGID_00000137823845178638994000000011563027336943889285_" points="372.1,279.5 372.1,279.5 327.1,279.5 
					327.1,293.2 372.1,293.2 				"/>
			</defs>
			<clipPath id="SVGID_00000168796854799748355780000012956161610043873204_">
				<use xlink:href="#SVGID_00000137823845178638994000000011563027336943889285_"  style="overflow:visible;"/>
			</clipPath>
			<g style="clip-path:url(#SVGID_00000168796854799748355780000012956161610043873204_);">
				<path class="st6" d="M329.3,293.2c0.3,0,0.6-0.1,0.8-0.2c4.5-1.9,9.1-3.4,13.8-4.5c15.1-3.4,16.1-1,21.3,0
					c1.5,0.3,5.2-0.6,6-1.5s1.4-4.1,0.5-4.9c-0.4-0.3-7.1-4.9-24.4-1c-7.2,1.6-18.6,7.9-18.9,8c-1.1,0.5-1.6,1.7-1.1,2.8
					C327.6,292.7,328.4,293.3,329.3,293.2L329.3,293.2z"/>
			</g>
		</g>
	</g>
</g>
<g>
	<g>
		<g>
			<defs>
				<polygon id="SVGID_00000038391429444170683220000007647980774187847858_" points="425.5,306.6 425.5,306.6 454.5,306.6 
					454.5,334.5 425.5,334.5 				"/>
			</defs>
			<clipPath id="SVGID_00000100353173418343914240000000275956525498300592_">
				<use xlink:href="#SVGID_00000038391429444170683220000007647980774187847858_"  style="overflow:visible;"/>
			</clipPath>
			<g style="clip-path:url(#SVGID_00000100353173418343914240000000275956525498300592_);">
				<ellipse class="st9" cx="440" cy="320.6" rx="14.5" ry="13.9"/>
			</g>
		</g>
	</g>
</g>
<g>
	<g>
		<g>
			<defs>
				<polygon id="SVGID_00000163766802380352618240000003010390395998253741_" points="362.5,306.6 362.5,306.6 333.5,306.6 
					333.5,334.5 362.5,334.5 				"/>
			</defs>
			<clipPath id="SVGID_00000007411408949306262590000005322614441952319874_">
				<use xlink:href="#SVGID_00000163766802380352618240000003010390395998253741_"  style="overflow:visible;"/>
			</clipPath>
			<g style="clip-path:url(#SVGID_00000007411408949306262590000005322614441952319874_);">
				<ellipse class="st9" cx="348" cy="320.6" rx="14.5" ry="13.9"/>
			</g>
		</g>
	</g>
</g>
<g>
	<g>
		<g>
			<defs>
				<polygon id="SVGID_00000098186041221841168580000005756151145811455663_" points="430.2,312.9 430.2,312.9 449.6,312.9 
					449.6,332.3 430.2,332.3 				"/>
			</defs>
			<clipPath id="SVGID_00000098217245165173225610000008484727075193687175_">
				<use xlink:href="#SVGID_00000098186041221841168580000005756151145811455663_"  style="overflow:visible;"/>
			</clipPath>
			<g style="clip-path:url(#SVGID_00000098217245165173225610000008484727075193687175_);">
				<circle class="st12" cx="439.9" cy="322.6" r="9.7"/>
			</g>
		</g>
	</g>
</g>
<g>
	<g>
		<g>
			<defs>
				<polygon id="SVGID_00000122720160933883791660000012812438141016340399_" points="357.8,312.9 357.8,312.9 338.4,312.9 
					338.4,332.3 357.8,332.3 				"/>
			</defs>
			<clipPath id="SVGID_00000052084503454937152130000015186734127260848779_">
				<use xlink:href="#SVGID_00000122720160933883791660000012812438141016340399_"  style="overflow:visible;"/>
			</clipPath>
			<g style="clip-path:url(#SVGID_00000052084503454937152130000015186734127260848779_);">
				<circle class="st12" cx="348.1" cy="322.6" r="9.7"/>
			</g>
		</g>
	</g>
</g>
<path class="st14" d="M469.9,331c2.3-16.1,3.2-54,3.2-54c0-45.5-31.5-74.9-76.5-75.8l0,0h-5.3l0,0c-45,0.9-76.5,30.3-76.5,75.8
	c0,0,0.9,38,3.2,54c1.8,12.9-12.8,35,3.1,57c9.2,12.7,53.8,20.1,70.4,24.3c0.7,0.2,1.4,0.3,2.1,0.3c0.1,0,0.3,0,0.4,0s0.3,0,0.4,0
	c0.7,0,1.4-0.1,2.1-0.3c13.9-3.5,47.5-9.3,63.4-18.5c2.5-0.8,4.7-2.4,6.1-4.7c0.3-0.3,0.6-0.7,0.9-1
	C482.8,366,468.1,343.9,469.9,331z"/>
<path class="st3" d="M381.7,346c-1,0.1-1.4,0.7-0.6,1c3,1.2,8.7,3.4,12.5,3.4c3.6,0,9-2.1,11.8-3.3c0.8-0.3,0.4-1-0.6-1
	c-3.4-0.2-4.8,0.6-11.6,0.6C387.4,346.7,385.1,345.8,381.7,346z"/>
<path class="st15" d="M315.9,311.7c-3.7-5.8-23.2-90.6,45.2-111.2s98.1,23.7,98.1,23.7s27,34.5,12.5,86.6c0,0-5.5-17-13.4-39.3
	c-5.5-15.5-4-20.7-3.8-22.6c0.1-1.1-23.6-3.2-42.1-4.7c-14.7-1.2-29.4-1.1-44,0.4c-16.3,1.6-35.5,3.7-34.9,5.1
	C337.2,257.2,315.9,311.7,315.9,311.7z"/>
<g>
	<path class="st16" d="M308.6,374.1l-4.1,0.1c-4.4,0.1-8-3.5-7.8-7.9l-0.1-64c-0.1-4.4,3.5-8,7.9-7.8l4.1-0.1c4.4-0.1,8,3.5,7.8,7.9
		l0.1,64C316.6,370.4,312.9,374,308.6,374.1z"/>
	<path class="st16" d="M295.5,367.2h-8.4c-4.4,0.1-8-3.5-7.8-7.9l-0.2-49.5c-0.1-4.4,3.5-8,7.9-7.8h8.4L295.5,367.2z"/>
	<path class="st16" d="M287.3,288.1l5.4-1.8c1.3-0.5,2.5,0.5,2.5,1.7l0.1,17.6c0,1-0.8,1.8-1.6,1.9l0,0c-1,0-1.6-0.3-1.9-1.3
		l-5.5-15.8C285.8,289.7,286.3,288.6,287.3,288.1z"/>
</g>
<g>
	<path class="st16" d="M479.1,374.2l4.1,0.1c4.4,0,7.9-3.6,7.8-7.9l-0.4-64c0-4.4-3.6-7.9-7.9-7.8l-4.1-0.1c-4.4,0-7.9,3.6-7.8,7.9
		l0.4,64C471.1,370.6,474.7,374.2,479.1,374.2z"/>
	<path class="st16" d="M492.1,367.1l8.4-0.1c4.4,0,7.9-3.6,7.8-7.9l-0.3-49.5c0-4.4-3.6-7.9-7.9-7.8l-8.4,0.1L492.1,367.1z"/>
	<path class="st16" d="M499.6,288l-5.4-1.8c-1.3-0.4-2.5,0.5-2.5,1.7l0.1,17.6c0,1,0.9,1.8,1.6,1.8l0,0c1,0,1.6-0.3,1.9-1.4
		l5.4-15.9C501.1,289.6,500.6,288.5,499.6,288z"/>
</g>
<path class="st0" d="M305.1,362l-35,27.9c-5.9,4.7-4.7,14,2.1,17l23.9,10.4"/>
<circle class="st16" cx="305.1" cy="417.4" r="13.7"/>
</svg>
