<?xml version="1.0" encoding="utf-8"?>
<!-- Generator: Adobe Illustrator 26.0.3, SVG Export Plug-In . SVG Version: 6.00 Build 0)  -->
<svg version="1.1" id="Calque_1" xmlns="http://www.w3.org/2000/svg" xmlns:xlink="http://www.w3.org/1999/xlink" x="0px" y="0px"
	 viewBox="0 0 788 1005" style="enable-background:new 0 0 788 1005;" xml:space="preserve">
<style type="text/css">
	.st0{fill:#E2AB81;}
	.st1{fill:#5E5E5E;}
	.st2{clip-path:url(#SVGID_00000035501845331250842950000008541135338741295499_);}
	.st3{fill:#B8775C;}
	.st4{clip-path:url(#SVGID_00000068679105856737420490000003832936190440891293_);}
	.st5{clip-path:url(#SVGID_00000036944095132915451130000018262397515271820445_);}
	.st6{fill:#573623;}
	.st7{clip-path:url(#SVGID_00000070117625104068573840000012611837897295522989_);}
	.st8{clip-path:url(#SVGID_00000040546672059809440100000011531253020828822169_);}
	.st9{fill:#FFFFFF;}
	.st10{clip-path:url(#SVGID_00000064338787087192056550000014858915406450534575_);}
	.st11{clip-path:url(#SVGID_00000016772140783696118310000015613126590486555821_);}
	.st12{fill:#090909;}
	.st13{clip-path:url(#SVGID_00000122712608408614917390000008139614371895681935_);}
	.st14{fill:#D48F72;}
</style>
<path class="st0" d="M482.6,271c0,49.6-39.9,89.8-89.1,89.8s-89.1-40.1-89.1-89.8s39.9-86,89.1-86S482.6,221.4,482.6,271z"/>
<path class="st1" d="M364.9,340.6c0,0,0,3.2,0,2.1v-0.2C364.9,341.9,364.9,341.2,364.9,340.6z"/>
<path class="st1" d="M364.9,340.6c0,0,0,3.2,0,2.1v-0.2C364.9,341.9,364.9,341.2,364.9,340.6z"/>
<path class="st1" d="M364.9,340.6c0,0,0,3.2,0,2.1v-0.2C364.9,341.9,364.9,341.2,364.9,340.6z"/>
<path class="st1" d="M364.9,340.6c0,0,0,3.2,0,2.1v-0.2C364.9,341.9,364.9,341.2,364.9,340.6z"/>
<path class="st1" d="M364.9,340.6c0,0,0,3.2,0,2.1v-0.2C364.9,341.9,364.9,341.2,364.9,340.6z"/>
<g id="random">
	<g>
		<g>
			<g>
				<g>
					<defs>
						<polygon id="SVGID_1_" points="457.5,305.9 457.5,305.9 494.7,305.9 494.7,370.6 457.5,370.6 						"/>
					</defs>
					<clipPath id="SVGID_00000057118320742185883810000009415998464563115906_">
						<use xlink:href="#SVGID_1_"  style="overflow:visible;"/>
					</clipPath>
					<g style="clip-path:url(#SVGID_00000057118320742185883810000009415998464563115906_);">
						<path class="st3" d="M457.5,366.4l8.1-49c0,0,12.8-17.9,25.7-9c8.6,5.9-0.8,56.6-9.9,60C465.7,374.3,457.5,366.4,457.5,366.4z
							"/>
					</g>
				</g>
			</g>
		</g>
	</g>
</g>
<g id="random2">
	<g>
		<g>
			<g>
				<g>
					<defs>
						<polygon id="SVGID_00000077301277201906351650000001484354928166119088_" points="330.5,305.9 330.5,305.9 293.3,305.9 
							293.3,370.6 330.5,370.6 						"/>
					</defs>
					<clipPath id="SVGID_00000174584330497135522790000014107163997966742407_">
						<use xlink:href="#SVGID_00000077301277201906351650000001484354928166119088_"  style="overflow:visible;"/>
					</clipPath>
					<g style="clip-path:url(#SVGID_00000174584330497135522790000014107163997966742407_);">
						<path class="st3" d="M330.5,366.4l-8.1-49c0,0-12.8-17.9-25.7-9c-8.6,5.9,0.8,56.6,9.9,60
							C322.3,374.3,330.5,366.4,330.5,366.4z"/>
					</g>
				</g>
			</g>
		</g>
	</g>
</g>
<g>
	<g>
		<g>
			<g>
				<defs>
					<polygon id="SVGID_00000085949934186041567670000018071748516748065442_" points="415.9,279.5 415.9,279.5 460.9,279.5 
						460.9,293.2 415.9,293.2 					"/>
				</defs>
				<clipPath id="SVGID_00000115509870231872391770000009148998666448261821_">
					<use xlink:href="#SVGID_00000085949934186041567670000018071748516748065442_"  style="overflow:visible;"/>
				</clipPath>
				<g style="clip-path:url(#SVGID_00000115509870231872391770000009148998666448261821_);">
					<path class="st6" d="M458.7,293.2c-0.3,0-0.6-0.1-0.8-0.2c-4.5-1.9-9.1-3.4-13.8-4.5c-15.1-3.4-16.1-1-21.3,0
						c-1.5,0.3-5.2-0.6-6-1.5s-1.4-4.1-0.5-4.9c0.4-0.3,7.1-4.9,24.4-1c7.2,1.6,18.6,7.9,18.9,8c1.1,0.5,1.6,1.7,1.1,2.8
						C460.4,292.7,459.6,293.3,458.7,293.2L458.7,293.2z"/>
				</g>
			</g>
		</g>
	</g>
</g>
<g>
	<g>
		<g>
			<g>
				<defs>
					<polygon id="SVGID_00000072993419152179633740000014125548171096462486_" points="372.1,279.5 372.1,279.5 327.1,279.5 
						327.1,293.2 372.1,293.2 					"/>
				</defs>
				<clipPath id="SVGID_00000041284559282231988740000012136647108039444868_">
					<use xlink:href="#SVGID_00000072993419152179633740000014125548171096462486_"  style="overflow:visible;"/>
				</clipPath>
				<g style="clip-path:url(#SVGID_00000041284559282231988740000012136647108039444868_);">
					<path class="st6" d="M329.3,293.2c0.3,0,0.6-0.1,0.8-0.2c4.5-1.9,9.1-3.4,13.8-4.5c15.1-3.4,16.1-1,21.3,0
						c1.5,0.3,5.2-0.6,6-1.5s1.4-4.1,0.5-4.9c-0.4-0.3-7.1-4.9-24.4-1c-7.2,1.6-18.6,7.9-18.9,8c-1.1,0.5-1.6,1.7-1.1,2.8
						C327.6,292.7,328.4,293.3,329.3,293.2L329.3,293.2z"/>
				</g>
			</g>
		</g>
	</g>
</g>
<g>
	<g>
		<g>
			<g>
				<defs>
					<polygon id="SVGID_00000000908445897573814630000017624394461415625911_" points="425.5,306.6 425.5,306.6 454.5,306.6 
						454.5,334.5 425.5,334.5 					"/>
				</defs>
				<clipPath id="SVGID_00000043437601311724712310000002476569729700601513_">
					<use xlink:href="#SVGID_00000000908445897573814630000017624394461415625911_"  style="overflow:visible;"/>
				</clipPath>
				<g style="clip-path:url(#SVGID_00000043437601311724712310000002476569729700601513_);">
					<ellipse class="st9" cx="440" cy="320.6" rx="14.5" ry="13.9"/>
				</g>
			</g>
		</g>
	</g>
</g>
<g>
	<g>
		<g>
			<g>
				<defs>
					<polygon id="SVGID_00000176740137673106646070000003228679776495677373_" points="362.5,306.6 362.5,306.6 333.5,306.6 
						333.5,334.5 362.5,334.5 					"/>
				</defs>
				<clipPath id="SVGID_00000000943292535220435830000014013080185503455911_">
					<use xlink:href="#SVGID_00000176740137673106646070000003228679776495677373_"  style="overflow:visible;"/>
				</clipPath>
				<g style="clip-path:url(#SVGID_00000000943292535220435830000014013080185503455911_);">
					<ellipse class="st9" cx="348" cy="320.6" rx="14.5" ry="13.9"/>
				</g>
			</g>
		</g>
	</g>
</g>
<g>
	<g>
		<g>
			<g>
				<defs>
					<polygon id="SVGID_00000144305134595071834660000014652271805739106225_" points="430.2,312.9 430.2,312.9 449.6,312.9 
						449.6,332.3 430.2,332.3 					"/>
				</defs>
				<clipPath id="SVGID_00000103982566814268909070000010211594130852422079_">
					<use xlink:href="#SVGID_00000144305134595071834660000014652271805739106225_"  style="overflow:visible;"/>
				</clipPath>
				<g style="clip-path:url(#SVGID_00000103982566814268909070000010211594130852422079_);">
					<circle class="st12" cx="439.9" cy="322.6" r="9.7"/>
				</g>
			</g>
		</g>
	</g>
</g>
<g>
	<g>
		<g>
			<g>
				<defs>
					<polygon id="SVGID_00000115501120237806838220000002238092247036113822_" points="357.8,312.9 357.8,312.9 338.4,312.9 
						338.4,332.3 357.8,332.3 					"/>
				</defs>
				<clipPath id="SVGID_00000151526496790518913720000006966808513086350512_">
					<use xlink:href="#SVGID_00000115501120237806838220000002238092247036113822_"  style="overflow:visible;"/>
				</clipPath>
				<g style="clip-path:url(#SVGID_00000151526496790518913720000006966808513086350512_);">
					<circle class="st12" cx="348.1" cy="322.6" r="9.7"/>
				</g>
			</g>
		</g>
	</g>
</g>
<path class="st14" d="M469.9,331c2.3-16.1,3.2-54,3.2-54c0-45.5-31.5-74.9-76.5-75.8l0,0h-5.3l0,0c-45,0.9-76.5,30.3-76.5,75.8
	c0,0,0.9,38,3.2,54c1.8,12.9-12.8,35,3.1,57c9.2,12.7,53.8,20.1,70.4,24.3c0.7,0.2,1.4,0.3,2.1,0.3c0.1,0,0.3,0,0.4,0s0.3,0,0.4,0
	c0.7,0,1.4-0.1,2.1-0.3c13.9-3.5,47.5-9.3,63.4-18.5c2.5-0.8,4.7-2.4,6.1-4.7c0.3-0.3,0.6-0.7,0.9-1
	C482.8,366,468.1,343.9,469.9,331z"/>
<path class="st3" d="M381.7,346c-1,0.1-1.4,0.7-0.6,1c3,1.2,8.7,3.4,12.5,3.4c3.6,0,9-2.1,11.8-3.3c0.8-0.3,0.4-1-0.6-1
	c-3.4-0.2-4.8,0.6-11.6,0.6C387.4,346.7,385.1,345.8,381.7,346z"/>
<path class="st0" d="M309.4,290.3l0.1-21.4c0.2-1.1,4.3-12.3,5.1-12.6l9.6-17.8c-27.3-14.5,92-25.8,98.8-12.4l25.6,7.4
	c0.4,0.2,16.2,12,16.6,12.4l7.8,38.5c0.6,1.1,1.7,1.7,2.9,1.3l11.8-3.4c1.9-0.6,2.7-3.4,1.5-5l-1.7-2.3c-0.8-1.1-0.8-2.5-0.2-3.6
	l5.7-10.7c0.4-0.8,1.3-1.5,2.3-1.5l12.6-0.2c2.1,0,3.4-2.9,2.1-4.8l-4.6-7.4c-0.8-1.3-0.6-3.2,0.4-4.2l25.2-23.3
	c1.7-1.5,1.3-4.4-0.6-5.3l-10.5-4.8c-0.6-0.2-1.1-0.6-1.3-1.3l-18.1-33.8c-0.8-1.7-2.9-1.9-4-0.6l-6.9,7.4c-0.8,0.8-2.1,1.1-3.2,0.4
	l-13.5-9.5c-2.1-1.5-4.8,1.1-3.8,3.8l0,0c0.4,1.5,0,3.2-1.3,3.8l-2.5,1.5c-1.1,0.6-2.1,0.4-2.9-0.4L454,172
	c-0.4-0.4-0.8-1.1-0.8-1.9l-3.6-26.9c-0.2-2.1-2.3-3.4-4-2.3L423.9,155c-1.3,0.8-2.7,0.4-3.6-1.1l-9-16.4c-0.8-1.5-2.5-1.9-3.8-0.8
	l-9.5,7.8c-1.3,1.1-2.7,0.6-3.8-0.6l-6.9-10.3c-1.1-1.7-3.2-1.7-4.2,0l-2.9,4.4c-0.4,0.6-1.1,1.1-1.9,1.1l-32.4,3.8
	c-2.1,0.2-3.2,2.9-1.9,4.8l1.5,2.5c0.8,1.5,0.4,3.4-0.8,4.4l-38.3,27.5c-1.3,0.8-2.7,0.4-3.6-0.8l-8.2-12.8c-1.3-1.9-4-1.5-4.6,0.8
	l-4.6,14.1c-0.6,1.7-2.1,2.5-3.6,1.7l-4.4-2.1c-1.9-0.8-3.8,0.6-3.8,2.9l1.3,42.7c0,1.1-0.4,2.3-1.3,2.7l-15.8,10.5
	c-1.7,1.1-1.9,4-0.2,5.3l23.1,16.8c0.8,0.6,1.3,1.7,1.3,2.7l-0.6,12c0,1.5,0.8,2.9,2.1,3.2l16.6,3.6c0.6,0.2,1.3,0.6,1.7,1.3
	l2.9,4.6C306,293.3,308.8,292.7,309.4,290.3z"/>
<path class="st0" d="M315.9,312.8c0,0,16.9-6.1,5.4-43.8c-4.2-13.5,14.3-25.4,29.2-18.8s35.1,9.7,42.9,9.7c7.6,0,43.6-7.9,50.5-11.6
	c6.9-3.7,20.9-5.1,24.7,13c3.8,18.1-4.3,46,3,51.5c0.3,0,4.5-3.7,7.3-4.5c0.1,0.2,30.9-108.7-83.5-108.7s-87.5,108.7-87.1,108.4
	C308.7,307.9,315.2,311,315.9,312.8z"/>
</svg>
