<?xml version="1.0" encoding="utf-8"?>
<!-- Generator: Adobe Illustrator 26.0.3, SVG Export Plug-In . SVG Version: 6.00 Build 0)  -->
<svg version="1.1" id="Calque_1" xmlns="http://www.w3.org/2000/svg" xmlns:xlink="http://www.w3.org/1999/xlink" x="0px" y="0px"
	 viewBox="0 0 201.4 258.2" style="enable-background:new 0 0 201.4 258.2;" xml:space="preserve">
<style type="text/css">
	.st0{fill:#5E5E5E;}
	.st1{clip-path:url(#SVGID_00000008842200498784719280000006557107652046512562_);}
	.st2{fill:#B8775C;}
	.st3{clip-path:url(#SVGID_00000054953731470169759950000005281230861105847436_);}
	.st4{clip-path:url(#SVGID_00000077281851223096587550000008009048542043880108_);}
	.st5{fill:#573623;}
	.st6{clip-path:url(#SVGID_00000020385211849076376770000005300153838017655963_);}
	.st7{clip-path:url(#SVGID_00000175313426570218044750000015617711729674643083_);}
	.st8{fill:#FFFFFF;}
	.st9{clip-path:url(#SVGID_00000030453287132357686170000001452833830816206482_);}
	.st10{clip-path:url(#SVGID_00000183231294411984750570000009125783546950507691_);}
	.st11{fill:#090909;}
	.st12{clip-path:url(#SVGID_00000083065077111903709360000009649832596287168416_);}
	.st13{fill:#D48F72;}
	.st14{fill:#E2AB81;}
	.st15{opacity:0.84;fill:#481F09;}
	.st16{fill:#682E2F;}
	.st17{fill:#8F381F;}
</style>
<path class="st0" d="M71.3,186.1c0,0,0,3.2,0,2.1V188C71.3,187.4,71.3,186.7,71.3,186.1z"/>
<path class="st0" d="M71.3,186.1c0,0,0,3.2,0,2.1V188C71.3,187.4,71.3,186.7,71.3,186.1z"/>
<path class="st0" d="M71.3,186.1c0,0,0,3.2,0,2.1V188C71.3,187.4,71.3,186.7,71.3,186.1z"/>
<path class="st0" d="M71.3,186.1c0,0,0,3.2,0,2.1V188C71.3,187.4,71.3,186.7,71.3,186.1z"/>
<path class="st0" d="M71.3,186.1c0,0,0,3.2,0,2.1V188C71.3,187.4,71.3,186.7,71.3,186.1z"/>
<g id="random">
	<g>
		<g>
			<g>
				<defs>
					<polygon id="SVGID_1_" points="163.9,151.4 163.9,151.4 201.1,151.4 201.1,216.1 163.9,216.1 					"/>
				</defs>
				<clipPath id="SVGID_00000077322037727163688870000011000703073532299926_">
					<use xlink:href="#SVGID_1_"  style="overflow:visible;"/>
				</clipPath>
				<g style="clip-path:url(#SVGID_00000077322037727163688870000011000703073532299926_);">
					<path class="st2" d="M163.9,211.9l8.1-49c0,0,12.8-17.9,25.7-9c8.6,5.9-0.8,56.6-9.9,60C172.1,219.8,163.9,211.9,163.9,211.9z"
						/>
				</g>
			</g>
		</g>
	</g>
</g>
<g id="random2">
	<g>
		<g>
			<g>
				<defs>
					<polygon id="SVGID_00000164494255070361025700000002762305983299031477_" points="36.9,151.4 36.9,151.4 -0.3,151.4 
						-0.3,216.1 36.9,216.1 					"/>
				</defs>
				<clipPath id="SVGID_00000083802143096076523390000007946329006370858430_">
					<use xlink:href="#SVGID_00000164494255070361025700000002762305983299031477_"  style="overflow:visible;"/>
				</clipPath>
				<g style="clip-path:url(#SVGID_00000083802143096076523390000007946329006370858430_);">
					<path class="st2" d="M36.9,211.9l-8.1-49c0,0-12.8-17.9-25.7-9c-8.6,5.9,0.8,56.6,9.9,60C28.7,219.8,36.9,211.9,36.9,211.9z"/>
				</g>
			</g>
		</g>
	</g>
</g>
<g>
	<g>
		<g>
			<defs>
				<polygon id="SVGID_00000027602572329289560460000011147459148942741691_" points="122.3,125 122.3,125 167.3,125 167.3,138.7 
					122.3,138.7 				"/>
			</defs>
			<clipPath id="SVGID_00000025409453929334622870000014848813997909711026_">
				<use xlink:href="#SVGID_00000027602572329289560460000011147459148942741691_"  style="overflow:visible;"/>
			</clipPath>
			<g style="clip-path:url(#SVGID_00000025409453929334622870000014848813997909711026_);">
				<path class="st5" d="M165.1,138.7c-0.3,0-0.6-0.1-0.8-0.2c-4.5-1.9-9.1-3.4-13.8-4.5c-15.1-3.4-16.1-1-21.3,0
					c-1.5,0.3-5.2-0.6-6-1.5s-1.4-4.1-0.5-4.9c0.4-0.3,7.1-4.9,24.4-1c7.2,1.6,18.6,7.9,18.9,8c1.1,0.5,1.6,1.7,1.1,2.8
					C166.8,138.2,166,138.8,165.1,138.7L165.1,138.7z"/>
			</g>
		</g>
	</g>
</g>
<g>
	<g>
		<g>
			<defs>
				<polygon id="SVGID_00000155122200520687395660000008577111278579229327_" points="78.5,125 78.5,125 33.5,125 33.5,138.7 
					78.5,138.7 				"/>
			</defs>
			<clipPath id="SVGID_00000155860321330536847360000017345288764090583427_">
				<use xlink:href="#SVGID_00000155122200520687395660000008577111278579229327_"  style="overflow:visible;"/>
			</clipPath>
			<g style="clip-path:url(#SVGID_00000155860321330536847360000017345288764090583427_);">
				<path class="st5" d="M35.7,138.7c0.3,0,0.6-0.1,0.8-0.2c4.5-1.9,9.1-3.4,13.8-4.5c15.1-3.4,16.1-1,21.3,0c1.5,0.3,5.2-0.6,6-1.5
					s1.4-4.1,0.5-4.9c-0.4-0.3-7.1-4.9-24.4-1c-7.2,1.6-18.6,7.9-18.9,8c-1.1,0.5-1.6,1.7-1.1,2.8C34,138.2,34.8,138.8,35.7,138.7
					L35.7,138.7z"/>
			</g>
		</g>
	</g>
</g>
<g>
	<g>
		<g>
			<defs>
				<polygon id="SVGID_00000162337926999166634040000003795837001957952950_" points="131.9,152.1 131.9,152.1 160.9,152.1 
					160.9,180 131.9,180 				"/>
			</defs>
			<clipPath id="SVGID_00000175315939275054103130000001428597678145940639_">
				<use xlink:href="#SVGID_00000162337926999166634040000003795837001957952950_"  style="overflow:visible;"/>
			</clipPath>
			<g style="clip-path:url(#SVGID_00000175315939275054103130000001428597678145940639_);">
				<ellipse class="st8" cx="146.4" cy="166.1" rx="14.5" ry="13.9"/>
			</g>
		</g>
	</g>
</g>
<g>
	<g>
		<g>
			<defs>
				<polygon id="SVGID_00000127750125800431671950000015888003313411298437_" points="68.9,152.1 68.9,152.1 39.9,152.1 39.9,180 
					68.9,180 				"/>
			</defs>
			<clipPath id="SVGID_00000047023387618293133380000009233110936701156738_">
				<use xlink:href="#SVGID_00000127750125800431671950000015888003313411298437_"  style="overflow:visible;"/>
			</clipPath>
			<g style="clip-path:url(#SVGID_00000047023387618293133380000009233110936701156738_);">
				<ellipse class="st8" cx="54.4" cy="166.1" rx="14.5" ry="13.9"/>
			</g>
		</g>
	</g>
</g>
<g>
	<g>
		<g>
			<defs>
				<polygon id="SVGID_00000098927475848607181560000005744659037680025265_" points="136.6,158.4 136.6,158.4 156,158.4 156,177.8 
					136.6,177.8 				"/>
			</defs>
			<clipPath id="SVGID_00000129915233870118434670000004533652909223038640_">
				<use xlink:href="#SVGID_00000098927475848607181560000005744659037680025265_"  style="overflow:visible;"/>
			</clipPath>
			<g style="clip-path:url(#SVGID_00000129915233870118434670000004533652909223038640_);">
				<circle class="st11" cx="146.3" cy="168.1" r="9.7"/>
			</g>
		</g>
	</g>
</g>
<g>
	<g>
		<g>
			<defs>
				<polygon id="SVGID_00000044865527521582838530000003144072222397973914_" points="64.2,158.4 64.2,158.4 44.8,158.4 44.8,177.8 
					64.2,177.8 				"/>
			</defs>
			<clipPath id="SVGID_00000123410804601454889400000012342396657875826091_">
				<use xlink:href="#SVGID_00000044865527521582838530000003144072222397973914_"  style="overflow:visible;"/>
			</clipPath>
			<g style="clip-path:url(#SVGID_00000123410804601454889400000012342396657875826091_);">
				<circle class="st11" cx="54.5" cy="168.1" r="9.7"/>
			</g>
		</g>
	</g>
</g>
<path class="st13" d="M176.3,176.5c2.3-16.1,3.2-54,3.2-54c0-45.5-31.5-74.9-76.5-75.8l0,0h-5.3l0,0c-45,0.9-76.5,30.3-76.5,75.8
	c0,0,0.9,38,3.2,54c1.8,12.9-12.8,35,3.1,57c9.2,12.7,53.8,20.1,70.4,24.3c0.7,0.2,1.4,0.3,2.1,0.3c0.1,0,0.3,0,0.4,0s0.3,0,0.4,0
	c0.7,0,1.4-0.1,2.1-0.3c13.9-3.5,47.5-9.3,63.4-18.5c2.5-0.8,4.7-2.4,6.1-4.7c0.3-0.3,0.6-0.7,0.9-1
	C189.2,211.5,174.5,189.4,176.3,176.5z"/>
<path class="st2" d="M88.1,191.5c-1,0.1-1.4,0.7-0.6,1c3,1.2,8.7,3.4,12.5,3.4c3.6,0,9-2.1,11.8-3.3c0.8-0.3,0.4-1-0.6-1
	c-3.4-0.2-4.8,0.6-11.6,0.6C93.8,192.2,91.5,191.3,88.1,191.5z"/>
<path class="st14" d="M22.4,157.8c0,0,16.7-6.1,5.4-43.3C23.6,101.1,41.8,89.4,56.6,96s34.7,9.6,42.4,9.6c7.5,0,43.1-7.8,49.9-11.5
	c6.9-3.7,20.7-5.1,24.4,12.9c3.8,17.9-4.3,45.5,3,50.9c0.3,0,4.5-3.7,7.2-4.5c0.1,0.2,30.6-107.5-82.6-107.5S14.4,153.5,14.8,153.2
	C15.2,153,21.7,156,22.4,157.8z"/>
<path class="st15" d="M186.8,100.6c0,0,1.4,13.5,0.5,27.9c-10.7,7.3-41.6-19.6-87.6-19.7c-43.5-0.1-74.6,24-87.8,20.2
	c-0.9-14.7,0-28.4,0-28.4c0-45.5,34.8-74.9,84.5-75.8l0,0h5.9l0,0C152.1,25.8,186.8,55.1,186.8,100.6z"/>
<path class="st16" d="M196.8,81.7c0,45.5-44.1,23.6-98.5,23.6S-0.2,127.2-0.2,81.7s44.1-66,98.5-66S196.8,36.2,196.8,81.7z"/>
<path class="st17" d="M196.8,81.7c0,45.5-44.1,0-98.5,0s-98.5,45.5-98.5,0S43.9-0.1,98.3-0.1S196.8,36.2,196.8,81.7z"/>
</svg>
