<?xml version="1.0" encoding="utf-8"?>
<!-- Generator: Adobe Illustrator 26.0.3, SVG Export Plug-In . SVG Version: 6.00 Build 0)  -->
<svg version="1.1" id="Calque_1" xmlns="http://www.w3.org/2000/svg" xmlns:xlink="http://www.w3.org/1999/xlink" x="0px" y="0px"
	 viewBox="0 0 788 1005" style="enable-background:new 0 0 788 1005;" xml:space="preserve">
<style type="text/css">
	.st0{fill:#5E5E5E;}
	.st1{clip-path:url(#SVGID_00000159442643467303491280000004619716797835362716_);}
	.st2{fill:#B8775C;}
	.st3{clip-path:url(#SVGID_00000031895699975324382650000012958267259700192429_);}
	.st4{clip-path:url(#SVGID_00000065036141701039612500000015088076400348811153_);}
	.st5{fill:#573623;}
	.st6{clip-path:url(#SVGID_00000156585327167683805790000010718862364605402297_);}
	.st7{clip-path:url(#SVGID_00000145036166688481276350000001286611903265405071_);}
	.st8{fill:#FFFFFF;}
	.st9{clip-path:url(#SVGID_00000145047729075408426340000005766289527898707116_);}
	.st10{clip-path:url(#SVGID_00000049184964124850608570000008512760948812915848_);}
	.st11{fill:#090909;}
	.st12{clip-path:url(#SVGID_00000172412914754166063800000013310257327536296606_);}
	.st13{fill:#D48F72;}
</style>
<path class="st0" d="M364.9,340.6c0,0,0,3.2,0,2.1v-0.2C364.9,341.9,364.9,341.2,364.9,340.6z"/>
<path class="st0" d="M364.9,340.6c0,0,0,3.2,0,2.1v-0.2C364.9,341.9,364.9,341.2,364.9,340.6z"/>
<path class="st0" d="M364.9,340.6c0,0,0,3.2,0,2.1v-0.2C364.9,341.9,364.9,341.2,364.9,340.6z"/>
<path class="st0" d="M364.9,340.6c0,0,0,3.2,0,2.1v-0.2C364.9,341.9,364.9,341.2,364.9,340.6z"/>
<path class="st0" d="M364.9,340.6c0,0,0,3.2,0,2.1v-0.2C364.9,341.9,364.9,341.2,364.9,340.6z"/>
<g id="random">
	<g>
		<g>
			<defs>
				<polygon id="SVGID_1_" points="457.5,305.9 457.5,305.9 494.7,305.9 494.7,370.6 457.5,370.6 				"/>
			</defs>
			<clipPath id="SVGID_00000176010004375722397630000005691487961228176548_">
				<use xlink:href="#SVGID_1_"  style="overflow:visible;"/>
			</clipPath>
			<g style="clip-path:url(#SVGID_00000176010004375722397630000005691487961228176548_);">
				<path class="st2" d="M457.5,366.4l8.1-49c0,0,12.8-17.9,25.7-9c8.6,5.9-0.8,56.6-9.9,60C465.7,374.3,457.5,366.4,457.5,366.4z"
					/>
			</g>
		</g>
	</g>
</g>
<g id="random2">
	<g>
		<g>
			<defs>
				<polygon id="SVGID_00000036940801803878457280000011652104228940921217_" points="330.5,305.9 330.5,305.9 293.3,305.9 
					293.3,370.6 330.5,370.6 				"/>
			</defs>
			<clipPath id="SVGID_00000137817011406398102590000007707346156082051212_">
				<use xlink:href="#SVGID_00000036940801803878457280000011652104228940921217_"  style="overflow:visible;"/>
			</clipPath>
			<g style="clip-path:url(#SVGID_00000137817011406398102590000007707346156082051212_);">
				<path class="st2" d="M330.5,366.4l-8.1-49c0,0-12.8-17.9-25.7-9c-8.6,5.9,0.8,56.6,9.9,60C322.3,374.3,330.5,366.4,330.5,366.4z
					"/>
			</g>
		</g>
	</g>
</g>
<g>
	<g>
		<defs>
			<polygon id="SVGID_00000021111620583215427950000004335860255425435810_" points="415.9,279.5 415.9,279.5 460.9,279.5 
				460.9,293.2 415.9,293.2 			"/>
		</defs>
		<clipPath id="SVGID_00000088812457900092652210000011560050816382643129_">
			<use xlink:href="#SVGID_00000021111620583215427950000004335860255425435810_"  style="overflow:visible;"/>
		</clipPath>
		<g style="clip-path:url(#SVGID_00000088812457900092652210000011560050816382643129_);">
			<path class="st5" d="M458.7,293.2c-0.3,0-0.6-0.1-0.8-0.2c-4.5-1.9-9.1-3.4-13.8-4.5c-15.1-3.4-16.1-1-21.3,0
				c-1.5,0.3-5.2-0.6-6-1.5s-1.4-4.1-0.5-4.9c0.4-0.3,7.1-4.9,24.4-1c7.2,1.6,18.6,7.9,18.9,8c1.1,0.5,1.6,1.7,1.1,2.8
				C460.4,292.7,459.6,293.3,458.7,293.2L458.7,293.2z"/>
		</g>
	</g>
</g>
<g>
	<g>
		<defs>
			<polygon id="SVGID_00000062159292809739100040000012729078318307551401_" points="372.1,279.5 372.1,279.5 327.1,279.5 
				327.1,293.2 372.1,293.2 			"/>
		</defs>
		<clipPath id="SVGID_00000024689718779786941830000004482869610019036598_">
			<use xlink:href="#SVGID_00000062159292809739100040000012729078318307551401_"  style="overflow:visible;"/>
		</clipPath>
		<g style="clip-path:url(#SVGID_00000024689718779786941830000004482869610019036598_);">
			<path class="st5" d="M329.3,293.2c0.3,0,0.6-0.1,0.8-0.2c4.5-1.9,9.1-3.4,13.8-4.5c15.1-3.4,16.1-1,21.3,0c1.5,0.3,5.2-0.6,6-1.5
				s1.4-4.1,0.5-4.9c-0.4-0.3-7.1-4.9-24.4-1c-7.2,1.6-18.6,7.9-18.9,8c-1.1,0.5-1.6,1.7-1.1,2.8
				C327.6,292.7,328.4,293.3,329.3,293.2L329.3,293.2z"/>
		</g>
	</g>
</g>
<g>
	<g>
		<defs>
			<polygon id="SVGID_00000071540265055935393350000008928895352740696972_" points="425.5,306.6 425.5,306.6 454.5,306.6 
				454.5,334.5 425.5,334.5 			"/>
		</defs>
		<clipPath id="SVGID_00000105408395069807123450000013924689404021974171_">
			<use xlink:href="#SVGID_00000071540265055935393350000008928895352740696972_"  style="overflow:visible;"/>
		</clipPath>
		<g style="clip-path:url(#SVGID_00000105408395069807123450000013924689404021974171_);">
			<ellipse class="st8" cx="440" cy="320.6" rx="14.5" ry="13.9"/>
		</g>
	</g>
</g>
<g>
	<g>
		<defs>
			<polygon id="SVGID_00000029761450554466258220000018001778588349364665_" points="362.5,306.6 362.5,306.6 333.5,306.6 
				333.5,334.5 362.5,334.5 			"/>
		</defs>
		<clipPath id="SVGID_00000153663871545536959350000007808892841277674665_">
			<use xlink:href="#SVGID_00000029761450554466258220000018001778588349364665_"  style="overflow:visible;"/>
		</clipPath>
		<g style="clip-path:url(#SVGID_00000153663871545536959350000007808892841277674665_);">
			<ellipse class="st8" cx="348" cy="320.6" rx="14.5" ry="13.9"/>
		</g>
	</g>
</g>
<g>
	<g>
		<defs>
			<polygon id="SVGID_00000049919827802264579180000000887329481344215969_" points="430.2,312.9 430.2,312.9 449.6,312.9 
				449.6,332.3 430.2,332.3 			"/>
		</defs>
		<clipPath id="SVGID_00000166665666165092197110000014104625421012083875_">
			<use xlink:href="#SVGID_00000049919827802264579180000000887329481344215969_"  style="overflow:visible;"/>
		</clipPath>
		<g style="clip-path:url(#SVGID_00000166665666165092197110000014104625421012083875_);">
			<circle class="st11" cx="439.9" cy="322.6" r="9.7"/>
		</g>
	</g>
</g>
<g>
	<g>
		<defs>
			<polygon id="SVGID_00000028303005485409750140000001193527375266951552_" points="357.8,312.9 357.8,312.9 338.4,312.9 
				338.4,332.3 357.8,332.3 			"/>
		</defs>
		<clipPath id="SVGID_00000003825798914649981290000013093126834046142886_">
			<use xlink:href="#SVGID_00000028303005485409750140000001193527375266951552_"  style="overflow:visible;"/>
		</clipPath>
		<g style="clip-path:url(#SVGID_00000003825798914649981290000013093126834046142886_);">
			<circle class="st11" cx="348.1" cy="322.6" r="9.7"/>
		</g>
	</g>
</g>
<path class="st13" d="M469.9,331c2.3-16.1,3.2-54,3.2-54c0-45.5-31.5-74.9-76.5-75.8l0,0h-5.3l0,0c-45,0.9-76.5,30.3-76.5,75.8
	c0,0,0.9,38,3.2,54c1.8,12.9-12.8,35,3.1,57c9.2,12.7,53.8,20.1,70.4,24.3c0.7,0.2,1.4,0.3,2.1,0.3c0.1,0,0.3,0,0.4,0s0.3,0,0.4,0
	c0.7,0,1.4-0.1,2.1-0.3c13.9-3.5,47.5-9.3,63.4-18.5c2.5-0.8,4.7-2.4,6.1-4.7c0.3-0.3,0.6-0.7,0.9-1
	C482.8,366,468.1,343.9,469.9,331z"/>
<path class="st2" d="M381.7,346c-1,0.1-1.4,0.7-0.6,1c3,1.2,8.7,3.4,12.5,3.4c3.6,0,9-2.1,11.8-3.3c0.8-0.3,0.4-1-0.6-1
	c-3.4-0.2-4.8,0.6-11.6,0.6C387.4,346.7,385.1,345.8,381.7,346z"/>
</svg>
