<?xml version="1.0" encoding="utf-8"?>
<!-- Generator: Adobe Illustrator 26.0.3, SVG Export Plug-In . SVG Version: 6.00 Build 0)  -->
<svg version="1.1" id="Calque_1" xmlns="http://www.w3.org/2000/svg" xmlns:xlink="http://www.w3.org/1999/xlink" x="0px" y="0px"
	 viewBox="0 0 201.4 241.4" style="enable-background:new 0 0 201.4 241.4;" xml:space="preserve">
<style type="text/css">
	.st0{fill:#E2AB81;}
	.st1{fill:#5E5E5E;}
	.st2{clip-path:url(#SVGID_00000034779560759173124250000017260451726666366116_);}
	.st3{fill:#B8775C;}
	.st4{clip-path:url(#SVGID_00000038412967467247444020000006015174014124637589_);}
	.st5{clip-path:url(#SVGID_00000145743904606510096640000016460029104120464806_);}
	.st6{fill:#573623;}
	.st7{clip-path:url(#SVGID_00000147187823574379768960000016854270937861590164_);}
	.st8{clip-path:url(#SVGID_00000003823989362103938460000002586356609427907970_);}
	.st9{fill:#FFFFFF;}
	.st10{clip-path:url(#SVGID_00000027594887770171706210000016560834282293635466_);}
	.st11{clip-path:url(#SVGID_00000000184161436743626710000002688611966178567585_);}
	.st12{fill:#090909;}
	.st13{clip-path:url(#SVGID_00000168096884056967208030000009244324633126587813_);}
	.st14{fill:#D48F72;}
</style>
<path class="st0" d="M173.3,120c0,40.6-32.7,73.6-73,73.6s-73-32.8-73-73.6s32.7-70.4,73-70.4S173.3,79.4,173.3,120z"/>
<path class="st1" d="M76.9,177c0,0,0,2.6,0,1.7v-0.2C76.9,178.1,76.9,177.5,76.9,177z"/>
<path class="st1" d="M76.9,177c0,0,0,2.6,0,1.7v-0.2C76.9,178.1,76.9,177.5,76.9,177z"/>
<path class="st1" d="M76.9,177c0,0,0,2.6,0,1.7v-0.2C76.9,178.1,76.9,177.5,76.9,177z"/>
<path class="st1" d="M76.9,177c0,0,0,2.6,0,1.7v-0.2C76.9,178.1,76.9,177.5,76.9,177z"/>
<path class="st1" d="M76.9,177c0,0,0,2.6,0,1.7v-0.2C76.9,178.1,76.9,177.5,76.9,177z"/>
<g id="random">
	<g>
		<g>
			<g>
				<g>
					<defs>
						<polygon id="SVGID_1_" points="152.8,148.6 152.8,148.6 183.2,148.6 183.2,201.6 152.8,201.6 						"/>
					</defs>
					<clipPath id="SVGID_00000152226261266535948590000004053533750501728933_">
						<use xlink:href="#SVGID_1_"  style="overflow:visible;"/>
					</clipPath>
					<g style="clip-path:url(#SVGID_00000152226261266535948590000004053533750501728933_);">
						<path class="st3" d="M152.8,198.2l6.6-40.1c0,0,10.5-14.7,21.1-7.4c7,4.8-0.7,46.4-8.1,49.1
							C159.5,204.6,152.8,198.2,152.8,198.2z"/>
					</g>
				</g>
			</g>
		</g>
	</g>
</g>
<g id="random2">
	<g>
		<g>
			<g>
				<g>
					<defs>
						<polygon id="SVGID_00000165207752125652265310000017838640347473765005_" points="48.7,148.6 48.7,148.6 18.3,148.6 
							18.3,201.6 48.7,201.6 						"/>
					</defs>
					<clipPath id="SVGID_00000163792259771102613290000016266110736113190587_">
						<use xlink:href="#SVGID_00000165207752125652265310000017838640347473765005_"  style="overflow:visible;"/>
					</clipPath>
					<g style="clip-path:url(#SVGID_00000163792259771102613290000016266110736113190587_);">
						<path class="st3" d="M48.7,198.2L42.1,158c0,0-10.5-14.7-21.1-7.4c-7,4.8,0.7,46.4,8.1,49.1C42,204.6,48.7,198.2,48.7,198.2z"
							/>
					</g>
				</g>
			</g>
		</g>
	</g>
</g>
<g>
	<g>
		<g>
			<g>
				<defs>
					<polygon id="SVGID_00000137115551071068343060000000166070132544349111_" points="118.7,127 118.7,127 155.5,127 155.5,138.2 
						118.7,138.2 					"/>
				</defs>
				<clipPath id="SVGID_00000118360975884414403450000002413839686387467651_">
					<use xlink:href="#SVGID_00000137115551071068343060000000166070132544349111_"  style="overflow:visible;"/>
				</clipPath>
				<g style="clip-path:url(#SVGID_00000118360975884414403450000002413839686387467651_);">
					<path class="st6" d="M153.7,138.2c-0.2,0-0.5-0.1-0.7-0.2c-3.7-1.6-7.5-2.8-11.3-3.7c-12.4-2.8-13.2-0.8-17.4,0
						c-1.2,0.2-4.3-0.5-4.9-1.2s-1.1-3.4-0.4-4c0.3-0.2,5.8-4,20-0.8c5.9,1.3,15.2,6.5,15.5,6.6c0.9,0.4,1.3,1.4,0.9,2.3
						C155.1,137.8,154.5,138.3,153.7,138.2L153.7,138.2z"/>
				</g>
			</g>
		</g>
	</g>
</g>
<g>
	<g>
		<g>
			<g>
				<defs>
					<polygon id="SVGID_00000115473330790017979720000004283914335985949061_" points="82.8,127 82.8,127 45.9,127 45.9,138.2 
						82.8,138.2 					"/>
				</defs>
				<clipPath id="SVGID_00000059273357834097233510000009444872373320296077_">
					<use xlink:href="#SVGID_00000115473330790017979720000004283914335985949061_"  style="overflow:visible;"/>
				</clipPath>
				<g style="clip-path:url(#SVGID_00000059273357834097233510000009444872373320296077_);">
					<path class="st6" d="M47.7,138.2c0.2,0,0.5-0.1,0.7-0.2c3.7-1.6,7.5-2.8,11.3-3.7c12.4-2.8,13.2-0.8,17.4,0
						c1.2,0.2,4.3-0.5,4.9-1.2c0.7-0.7,1.1-3.4,0.4-4c-0.3-0.2-5.8-4-20-0.8c-5.9,1.3-15.2,6.5-15.5,6.6c-0.9,0.4-1.3,1.4-0.9,2.3
						C46.4,137.8,47,138.3,47.7,138.2L47.7,138.2z"/>
				</g>
			</g>
		</g>
	</g>
</g>
<g>
	<g>
		<g>
			<g>
				<defs>
					<polygon id="SVGID_00000098203039899496323860000011756977885091544983_" points="126.5,149.2 126.5,149.2 150.3,149.2 
						150.3,172 126.5,172 					"/>
				</defs>
				<clipPath id="SVGID_00000135660587881104493910000016068636047070066870_">
					<use xlink:href="#SVGID_00000098203039899496323860000011756977885091544983_"  style="overflow:visible;"/>
				</clipPath>
				<g style="clip-path:url(#SVGID_00000135660587881104493910000016068636047070066870_);">
					<ellipse class="st9" cx="138.4" cy="160.6" rx="11.9" ry="11.4"/>
				</g>
			</g>
		</g>
	</g>
</g>
<g>
	<g>
		<g>
			<g>
				<defs>
					<polygon id="SVGID_00000045579011906751127300000018069501982673050039_" points="74.9,149.2 74.9,149.2 51.2,149.2 51.2,172 
						74.9,172 					"/>
				</defs>
				<clipPath id="SVGID_00000025410254869183664190000008916759396503994509_">
					<use xlink:href="#SVGID_00000045579011906751127300000018069501982673050039_"  style="overflow:visible;"/>
				</clipPath>
				<g style="clip-path:url(#SVGID_00000025410254869183664190000008916759396503994509_);">
					<ellipse class="st9" cx="63.1" cy="160.6" rx="11.9" ry="11.4"/>
				</g>
			</g>
		</g>
	</g>
</g>
<g>
	<g>
		<g>
			<g>
				<defs>
					<polygon id="SVGID_00000036226097954936993910000000784086034720001445_" points="130.4,154.3 130.4,154.3 146.3,154.3 
						146.3,170.2 130.4,170.2 					"/>
				</defs>
				<clipPath id="SVGID_00000121260223227818577150000009194799243063844501_">
					<use xlink:href="#SVGID_00000036226097954936993910000000784086034720001445_"  style="overflow:visible;"/>
				</clipPath>
				<g style="clip-path:url(#SVGID_00000121260223227818577150000009194799243063844501_);">
					<circle class="st12" cx="138.3" cy="162.3" r="7.9"/>
				</g>
			</g>
		</g>
	</g>
</g>
<g>
	<g>
		<g>
			<g>
				<defs>
					<polygon id="SVGID_00000103976697033267552800000018111925843421403789_" points="71.1,154.3 71.1,154.3 55.2,154.3 
						55.2,170.2 71.1,170.2 					"/>
				</defs>
				<clipPath id="SVGID_00000062190496876510226370000017976028628030623116_">
					<use xlink:href="#SVGID_00000103976697033267552800000018111925843421403789_"  style="overflow:visible;"/>
				</clipPath>
				<g style="clip-path:url(#SVGID_00000062190496876510226370000017976028628030623116_);">
					<circle class="st12" cx="63.1" cy="162.3" r="7.9"/>
				</g>
			</g>
		</g>
	</g>
</g>
<path class="st14" d="M162.9,169.2c1.9-13.2,2.6-44.2,2.6-44.2c0-37.3-25.8-61.4-62.7-62.1l0,0h-4.3l0,0
	c-36.9,0.7-62.7,24.8-62.7,62.1c0,0,0.7,31.1,2.6,44.2C40,179.7,28,197.8,41,215.9c7.5,10.4,44.1,16.5,57.7,19.9
	c0.6,0.2,1.1,0.2,1.7,0.2c0.1,0,0.2,0,0.3,0c0.1,0,0.2,0,0.3,0c0.6,0,1.1-0.1,1.7-0.2c11.4-2.9,38.9-7.6,51.9-15.2
	c2-0.7,3.8-2,5-3.8c0.2-0.2,0.5-0.6,0.7-0.8C173.5,197.8,161.4,179.7,162.9,169.2z"/>
<path class="st3" d="M90.7,181.4c-0.8,0.1-1.1,0.6-0.5,0.8c2.5,1,7.1,2.8,10.2,2.8c2.9,0,7.4-1.7,9.7-2.7c0.7-0.2,0.3-0.8-0.5-0.8
	c-2.8-0.2-3.9,0.5-9.5,0.5C95.3,182,93.5,181.3,90.7,181.4z"/>
<path class="st0" d="M31.4,135.8l0.1-17.6c0.2-0.9,3.5-10,4.1-10.3l7.8-14.6c-22.4-11.9,75.4-21.1,81-10.1l21,6.1
	c0.3,0.2,13.3,9.8,13.6,10.2l6.4,31.5c0.5,0.9,1.4,1.4,2.4,1.1l9.7-2.8c1.6-0.5,2.2-2.8,1.2-4.1l-1.4-1.9c-0.7-0.9-0.7-2-0.2-2.9
	l4.7-8.8c0.3-0.7,1.1-1.2,1.9-1.2l10.3-0.2c1.7,0,2.8-2.4,1.7-3.9l-3.8-6.1c-0.7-1.1-0.5-2.6,0.3-3.4L213,77.7
	c1.4-1.2,1.1-3.6-0.5-4.3l-8.6-3.9c-0.5-0.2-0.9-0.5-1.1-1.1L188,40.6c-0.7-1.4-2.4-1.6-3.3-0.5l-5.7,6.1c-0.7,0.7-1.7,0.9-2.6,0.3
	l-11.1-7.8c-1.7-1.2-3.9,0.9-3.1,3.1l0,0c0.3,1.2,0,2.6-1.1,3.1l-2,1.2c-0.9,0.5-1.7,0.3-2.4-0.3l-6.9-7c-0.3-0.3-0.7-0.9-0.7-1.6
	l-2.9-22c-0.2-1.7-1.9-2.8-3.3-1.9L125.2,25c-1.1,0.7-2.2,0.3-2.9-0.9l-7.4-13.4c-0.7-1.2-2-1.6-3.1-0.7l-7.8,6.4
	c-1.1,0.9-2.2,0.5-3.1-0.5l-5.7-8.4c-0.9-1.4-2.6-1.4-3.4,0l-2.4,3.6c-0.3,0.5-0.9,0.9-1.6,0.9l-26.5,3.1c-1.7,0.2-2.6,2.4-1.6,3.9
	l1.2,2c0.7,1.2,0.3,2.8-0.7,3.6L29,47.2c-1.1,0.7-2.2,0.3-2.9-0.7l-6.7-10.5c-1.1-1.6-3.3-1.2-3.8,0.7l-3.8,11.5
	c-0.5,1.4-1.7,2-2.9,1.4l-3.6-1.7c-1.6-0.7-3.1,0.5-3.1,2.4l1.1,35c0,0.9-0.3,1.9-1.1,2.2l-12.9,8.6c-1.4,0.9-1.6,3.3-0.2,4.3
	l18.9,13.8c0.7,0.5,1.1,1.4,1.1,2.2l-0.5,9.8c0,1.2,0.7,2.4,1.7,2.6l13.6,2.9c0.5,0.2,1.1,0.5,1.4,1.1l2.4,3.8
	C28.7,138.3,31,137.8,31.4,135.8z"/>
<path class="st0" d="M36.8,154.3c0,0,13.8-5,4.4-35.8c-3.5-11.1,11.7-20.8,23.9-15.4c12.2,5.4,28.8,8,35.1,8
	c6.2,0,35.7-6.5,41.4-9.5c5.7-3,17.1-4.2,20.2,10.7c3.1,14.8-3.5,37.7,2.5,42.2c0.2,0,3.7-3,6-3.7c0.1,0.2,25.3-89-68.4-89
	s-71.7,89-71.4,88.8C30.8,150.2,36.2,152.8,36.8,154.3z"/>
</svg>
