<?xml version="1.0" encoding="utf-8"?>
<!-- Generator: Adobe Illustrator 26.0.3, SVG Export Plug-In . SVG Version: 6.00 Build 0)  -->
<svg version="1.1" id="Calque_1" xmlns="http://www.w3.org/2000/svg" xmlns:xlink="http://www.w3.org/1999/xlink" x="0px" y="0px"
	 viewBox="0 0 788 1005" style="enable-background:new 0 0 788 1005;" xml:space="preserve">
<style type="text/css">
	.st0{fill:#5285A2;}
	.st1{fill:#5E5E5E;}
	.st2{clip-path:url(#SVGID_00000135665251219105951510000005458412688937558455_);}
	.st3{fill:#B8775C;}
	.st4{clip-path:url(#SVGID_00000158027632176185573690000016664842040240912298_);}
	.st5{clip-path:url(#SVGID_00000100358228707360317770000000333559664996907442_);}
	.st6{fill:#573623;}
	.st7{clip-path:url(#SVGID_00000084490979996533335200000008273599595011693734_);}
	.st8{clip-path:url(#SVGID_00000083789433833331096050000001874115975930765730_);}
	.st9{fill:#FFFFFF;}
	.st10{clip-path:url(#SVGID_00000071545587176126192210000003643492244562341036_);}
	.st11{clip-path:url(#SVGID_00000159465499341000974650000010512461442309136010_);}
	.st12{fill:#090909;}
	.st13{clip-path:url(#SVGID_00000132064530454152293240000008408635007366609810_);}
	.st14{fill:#D48F72;}
	.st15{fill:#E2AB81;}
	.st16{fill:#75A6C6;}
</style>
<path class="st0" d="M292.2,228.4c0,0-9.1-8.2-12.1-13s-4.5-6.4-4.8-11.8c-0.3-5.4,13.9-29.3,34.5-42.1
	c20.6-12.8,43.3-16.3,51.7-15.7c8.4,0.6,10.6,2.6,10.6,2.6s9.3,9.1,13.3,20.8"/>
<path class="st1" d="M364.9,340.6c0,0,0,3.2,0,2.1v-0.2C364.9,341.9,364.9,341.2,364.9,340.6z"/>
<path class="st1" d="M364.9,340.6c0,0,0,3.2,0,2.1v-0.2C364.9,341.9,364.9,341.2,364.9,340.6z"/>
<path class="st1" d="M364.9,340.6c0,0,0,3.2,0,2.1v-0.2C364.9,341.9,364.9,341.2,364.9,340.6z"/>
<path class="st1" d="M364.9,340.6c0,0,0,3.2,0,2.1v-0.2C364.9,341.9,364.9,341.2,364.9,340.6z"/>
<path class="st1" d="M364.9,340.6c0,0,0,3.2,0,2.1v-0.2C364.9,341.9,364.9,341.2,364.9,340.6z"/>
<g id="random">
	<g>
		<g>
			<g>
				<defs>
					<polygon id="SVGID_1_" points="457.5,305.9 457.5,305.9 494.7,305.9 494.7,370.6 457.5,370.6 					"/>
				</defs>
				<clipPath id="SVGID_00000110444192736475293060000004751051999684044716_">
					<use xlink:href="#SVGID_1_"  style="overflow:visible;"/>
				</clipPath>
				<g style="clip-path:url(#SVGID_00000110444192736475293060000004751051999684044716_);">
					<path class="st3" d="M457.5,366.4l8.1-49c0,0,12.8-17.9,25.7-9c8.6,5.9-0.8,56.6-9.9,60C465.7,374.3,457.5,366.4,457.5,366.4z"
						/>
				</g>
			</g>
		</g>
	</g>
</g>
<g id="random2">
	<g>
		<g>
			<g>
				<defs>
					<polygon id="SVGID_00000104681323495649301410000000886158328717230998_" points="330.5,305.9 330.5,305.9 293.3,305.9 
						293.3,370.6 330.5,370.6 					"/>
				</defs>
				<clipPath id="SVGID_00000010280939198796287770000009934372500319712175_">
					<use xlink:href="#SVGID_00000104681323495649301410000000886158328717230998_"  style="overflow:visible;"/>
				</clipPath>
				<g style="clip-path:url(#SVGID_00000010280939198796287770000009934372500319712175_);">
					<path class="st3" d="M330.5,366.4l-8.1-49c0,0-12.8-17.9-25.7-9c-8.6,5.9,0.8,56.6,9.9,60C322.3,374.3,330.5,366.4,330.5,366.4
						z"/>
				</g>
			</g>
		</g>
	</g>
</g>
<g>
	<g>
		<g>
			<defs>
				<polygon id="SVGID_00000000215047549154758230000007883908572036924605_" points="415.9,279.5 415.9,279.5 460.9,279.5 
					460.9,293.2 415.9,293.2 				"/>
			</defs>
			<clipPath id="SVGID_00000174589278701005597110000006889555383204879031_">
				<use xlink:href="#SVGID_00000000215047549154758230000007883908572036924605_"  style="overflow:visible;"/>
			</clipPath>
			<g style="clip-path:url(#SVGID_00000174589278701005597110000006889555383204879031_);">
				<path class="st6" d="M458.7,293.2c-0.3,0-0.6-0.1-0.8-0.2c-4.5-1.9-9.1-3.4-13.8-4.5c-15.1-3.4-16.1-1-21.3,0
					c-1.5,0.3-5.2-0.6-6-1.5s-1.4-4.1-0.5-4.9c0.4-0.3,7.1-4.9,24.4-1c7.2,1.6,18.6,7.9,18.9,8c1.1,0.5,1.6,1.7,1.1,2.8
					C460.4,292.7,459.6,293.3,458.7,293.2L458.7,293.2z"/>
			</g>
		</g>
	</g>
</g>
<g>
	<g>
		<g>
			<defs>
				<polygon id="SVGID_00000183216627838723004260000005152809140972868491_" points="372.1,279.5 372.1,279.5 327.1,279.5 
					327.1,293.2 372.1,293.2 				"/>
			</defs>
			<clipPath id="SVGID_00000165944913356959134930000011224251161708322483_">
				<use xlink:href="#SVGID_00000183216627838723004260000005152809140972868491_"  style="overflow:visible;"/>
			</clipPath>
			<g style="clip-path:url(#SVGID_00000165944913356959134930000011224251161708322483_);">
				<path class="st6" d="M329.3,293.2c0.3,0,0.6-0.1,0.8-0.2c4.5-1.9,9.1-3.4,13.8-4.5c15.1-3.4,16.1-1,21.3,0
					c1.5,0.3,5.2-0.6,6-1.5s1.4-4.1,0.5-4.9c-0.4-0.3-7.1-4.9-24.4-1c-7.2,1.6-18.6,7.9-18.9,8c-1.1,0.5-1.6,1.7-1.1,2.8
					C327.6,292.7,328.4,293.3,329.3,293.2L329.3,293.2z"/>
			</g>
		</g>
	</g>
</g>
<g>
	<g>
		<g>
			<defs>
				<polygon id="SVGID_00000147183165601961469310000007362317335028012951_" points="425.5,306.6 425.5,306.6 454.5,306.6 
					454.5,334.5 425.5,334.5 				"/>
			</defs>
			<clipPath id="SVGID_00000006666703003502630020000013363515799307165095_">
				<use xlink:href="#SVGID_00000147183165601961469310000007362317335028012951_"  style="overflow:visible;"/>
			</clipPath>
			<g style="clip-path:url(#SVGID_00000006666703003502630020000013363515799307165095_);">
				<ellipse class="st9" cx="440" cy="320.6" rx="14.5" ry="13.9"/>
			</g>
		</g>
	</g>
</g>
<g>
	<g>
		<g>
			<defs>
				<polygon id="SVGID_00000039108400807041910820000014011724901043147163_" points="362.5,306.6 362.5,306.6 333.5,306.6 
					333.5,334.5 362.5,334.5 				"/>
			</defs>
			<clipPath id="SVGID_00000068644852385239668990000010100756154316208041_">
				<use xlink:href="#SVGID_00000039108400807041910820000014011724901043147163_"  style="overflow:visible;"/>
			</clipPath>
			<g style="clip-path:url(#SVGID_00000068644852385239668990000010100756154316208041_);">
				<ellipse class="st9" cx="348" cy="320.6" rx="14.5" ry="13.9"/>
			</g>
		</g>
	</g>
</g>
<g>
	<g>
		<g>
			<defs>
				<polygon id="SVGID_00000119817995316516231880000000049038924591966604_" points="430.2,312.9 430.2,312.9 449.6,312.9 
					449.6,332.3 430.2,332.3 				"/>
			</defs>
			<clipPath id="SVGID_00000064345884453654119260000001060233717814489991_">
				<use xlink:href="#SVGID_00000119817995316516231880000000049038924591966604_"  style="overflow:visible;"/>
			</clipPath>
			<g style="clip-path:url(#SVGID_00000064345884453654119260000001060233717814489991_);">
				<circle class="st12" cx="439.9" cy="322.6" r="9.7"/>
			</g>
		</g>
	</g>
</g>
<g>
	<g>
		<g>
			<defs>
				<polygon id="SVGID_00000113344869991435435880000002139751399064407731_" points="357.8,312.9 357.8,312.9 338.4,312.9 
					338.4,332.3 357.8,332.3 				"/>
			</defs>
			<clipPath id="SVGID_00000013166273236809896090000007954068524985670789_">
				<use xlink:href="#SVGID_00000113344869991435435880000002139751399064407731_"  style="overflow:visible;"/>
			</clipPath>
			<g style="clip-path:url(#SVGID_00000013166273236809896090000007954068524985670789_);">
				<circle class="st12" cx="348.1" cy="322.6" r="9.7"/>
			</g>
		</g>
	</g>
</g>
<path class="st14" d="M469.9,331c2.3-16.1,3.2-54,3.2-54c0-45.5-31.5-74.9-76.5-75.8l0,0h-5.3l0,0c-45,0.9-76.5,30.3-76.5,75.8
	c0,0,0.9,38,3.2,54c1.8,12.9-12.8,35,3.1,57c9.2,12.7,53.8,20.1,70.4,24.3c0.7,0.2,1.4,0.3,2.1,0.3c0.1,0,0.3,0,0.4,0s0.3,0,0.4,0
	c0.7,0,1.4-0.1,2.1-0.3c13.9-3.5,47.5-9.3,63.4-18.5c2.5-0.8,4.7-2.4,6.1-4.7c0.3-0.3,0.6-0.7,0.9-1
	C482.8,366,468.1,343.9,469.9,331z"/>
<path class="st3" d="M381.7,346c-1,0.1-1.4,0.7-0.6,1c3,1.2,8.7,3.4,12.5,3.4c3.6,0,9-2.1,11.8-3.3c0.8-0.3,0.4-1-0.6-1
	c-3.4-0.2-4.8,0.6-11.6,0.6C387.4,346.7,385.1,345.8,381.7,346z"/>
<path class="st15" d="M316.2,311.3c0,0,16.8-6.1,5.4-43.6c-4.2-13.5,14.2-25.3,29.1-18.7s35,9.7,42.7,9.7c7.6,0,43.4-7.9,50.3-11.6
	c6.9-3.7,20.8-5.1,24.6,13c3.8,18-4.3,45.8,3,51.3c0.3,0,4.5-3.7,7.3-4.5c0.1,0.2,30.8-108.3-83.2-108.3s-87.2,108.3-86.8,108
	C309,306.4,315.5,309.5,316.2,311.3z"/>
<path class="st16" d="M416.1,200.8c0,0-39.9,1.8-63.8,18.2s-37.3,32.3-46,50.5c0.9,0.9-23.6,3.6-40.3-12.5c0,0-5.1-0.1-6.9,2.8
	c0,0.2,4.8-6.9,4.8-6.9s-11.2,3.7-12-3.3c0,0,9.2,1.2,11.7-0.2c0,0.1-6.2-8.7-6.2-8.7l4.5-3.2l4.6,8.4c0,0,21.8-17.2,23-35
	c0.3-0.1-8.5-7.5-8.5-7.5s7.2-1,9.1,1.9l-5.4-8.1l5.7-2.7l4.6,7.9c0,0-1.6-6.1,2.7-9.6c0.1,0.4,0,7.3,1.6,7.6c0,0.1,16-1,30.6-11.6
	s27-26.3,27-26.3l-7.8-7.4l6.2-5.2l5.3,8.7c0,0-0.1-7.4,3.7-8.7c-0.1,0-0.1,8.3,1,10c-0.1-0.1,11.5,5.1,26.1,4.1s27.8-9,27.8-9v-8.1
	l4.1-0.5l-1.7,11.8l6.9-7.8l1,3l-6.4,7.2C423.1,160.6,426.9,189.9,416.1,200.8z"/>
</svg>
