<?xml version="1.0" encoding="utf-8"?>
<!-- Generator: Adobe Illustrator 26.0.3, SVG Export Plug-In . SVG Version: 6.00 Build 0)  -->
<svg version="1.1" id="Calque_1" xmlns="http://www.w3.org/2000/svg" xmlns:xlink="http://www.w3.org/1999/xlink" x="0px" y="0px"
	 viewBox="0 0 588 350.8" style="enable-background:new 0 0 588 350.8;" xml:space="preserve">
<style type="text/css">
	.st0{fill:#375D63;}
	.st1{fill:#B5817D;}
	.st2{fill:#C58C85;}
	.st3{fill:#F7A386;}
	.st4{fill:#547A87;}
	.st5{fill:#2B2B2B;}
	.st6{fill:none;stroke:#ECF2F2;stroke-width:3;stroke-miterlimit:10;}
	.st7{fill:none;stroke:#ECF2F2;stroke-width:5.4389;stroke-miterlimit:10;}
	.st8{fill:#ECF2F2;}
	.st9{fill:none;stroke:#BCBCBC;stroke-width:5;stroke-linecap:round;stroke-miterlimit:10;}
	.st10{fill:none;stroke:#2B2B2B;stroke-width:2;stroke-miterlimit:10;}
</style>
<path class="st0" d="M380,367.5c-23.3,2.5-44.5,10-69.8,18.3c0,0-11.5,0.5-10.8-0.1l-70.8-16.6l5.9-58.4
	c1.1-10.7,10.1-18.8,20.8-18.8h99.9c11,0,20.1,8.5,20.8,19.4L380,367.5z"/>
<rect x="286.1" y="50.2" class="st1" width="39.5" height="47.4"/>
<path class="st2" d="M475.3,214.6L475.3,214.6L475.3,214.6l-73.2-78.3l0,0c-9.3-10-25.1-10.2-35.3-0.5c-10.2,9.7-10.8,25.7-1.5,35.7
	c0.1,0.2,0.3,0.3,0.4,0.4l85.7,71.4c8.7,7,19.3,6.8,25.1,0C483.1,235.7,486.6,226.2,475.3,214.6z"/>
<path class="st2" d="M400.8,328.5l-13.2-13.7c-0.8-0.8-1.8-1.4-2.9-1.8l-6.3-2c-1-0.3-2,0.4-2.1,1.5l-0.4,6.6
	c-0.1,1.3-0.5,2.6-1.4,3.7c-5,6.5-23,30.3-21.3,29.6l-0.2,1.6c-0.7,5.7,5.7,9.6,10.5,6.4c6.3-4.3,13.4-9.1,17.3-11.7
	C389.9,342.6,400.8,328.5,400.8,328.5z"/>
<path class="st2" d="M472.4,213.5c-11.1-8.3-24.6-5.3-33.1,5.4c-0.2,0.2-3.5,5.4-3.5,5.4l-50.6,94.6c0,0-5.1,6.9,2.9,12.5
	c7.1,5,12.9-2.9,12.9-2.9l69.3-73.3c8-8.5,14.1-18.4,11.8-29.8C480.9,220.8,475.8,216,472.4,213.5z"/>
<path class="st3" d="M482.9,254l-0.1-0.1c-0.2,0.2-0.3,0.4-0.5,0.6c0,0.1-0.1,0.1-0.1,0.1L482.9,254z"/>
<path class="st2" d="M229.1,206.1l-34.5,50.8l-2.7,3.4c-4.6,5.9-13.1,7.3-19.3,3.1l0,0c-5.7-3.8-7.9-11-5.4-17.4l2.3-5.6
	c0,0,19-40.5,23.7-54.6c5.8-17.3,16.8-71,46.5-56.2l0,0c10.8,5.4,19.5,19.2,13.6,29.8L229.1,206.1z"/>
<path class="st2" d="M178.4,265.7L178.4,265.7c6.4-0.2,12.2-4,14.9-9.9c0.3-0.6,0.6-1.1,0.8-1.8c1.9-10.1-0.5-30.9-2.6-40.9
	c-4.9-23.3-26.9-93-26.9-93l0,0c-2.3-4.7-7.7-6.8-12.6-4.9l-1.1,0.4c-4.4,1.8-7,6.5-6,11.2c0.2,0.9,0.3,1.6,0.4,2.2
	c1.5,10.5,6.2,79,8,93.2c1,8.3,6.4,24.4,10.2,31.8C165.8,258.4,172.8,265.9,178.4,265.7z"/>
<path class="st4" d="M384.7,125.1c2.5,1.1,3.9,3.9,3.1,6.5c-3.6,13.2-14.8,49.3-14.8,51.8c0,2.9-0.5,72.2-0.6,78.2
	c0,0.3,0,0.6,0.1,0.8L391.3,390c1.5,10-5.4,19.2-15.4,20.6c-0.1,0-0.2,0-0.2,0s-53.1,10.1-71,9.5c-17.3-0.7-67.8-14.4-67.8-14.4
	c-9.2-2-15.4-10.6-14.3-20l15.4-127.8c0-0.2,0-0.5,0-0.7l-0.7-77.2c0-0.6-0.1-1.1-0.3-1.7l-15.3-46.6c-0.9-2.7,0.4-5.7,3.1-6.8
	l53.5-23.2c1.8-0.8,3-2.4,3.3-4.3l1.4-9.8c0.4-2.7,2.8-4.8,5.5-4.8l34.7,0.3c2.8,0,5.1,2.1,5.4,4.9l1.1,10.2c0.2,2,1.5,3.7,3.3,4.5
	L384.7,125.1z"/>
<path class="st5" d="M367.9,416.3l8-1.8c10.6-2.4,17.5-12.6,15.9-23.3l-12.6-83.7c0,0-11.2-21-19.1-39.6c-6.1-14.4-7.2-59.4-7.4-79
	c-0.1-5.1-4.2-9.3-9.4-9.3H268c-5,0-9.2,4-9.4,9c-0.8,19.8-2.9,65.9-6,75.1c-3.9,11.8-15.9,36.3-19.4,45.8c-2.5,6.9-8.1,52-11,76.9
	c-1.1,9.6,4.5,18.7,13.6,22l0,0C278.2,423.6,324,426.3,367.9,416.3z"/>
<g>
	<path class="st5" d="M280.7,99.3c-6.2,16.7-10,34.2-12.3,51.8c-0.9,7-2,14.1-3.3,21.1c-0.6,3.5-1.2,7-2,10.6c0,0-0.4,0-0.4,0
		c-1.3-14.4,0.5-28.8,4-42.8c2.5-10.5,5.4-20.9,9.3-30.9c1.3-3.3,2.7-6.7,4.3-9.9L280.7,99.3L280.7,99.3z"/>
</g>
<g>
	<path class="st5" d="M330.8,99.7c6.4,12.8,10.5,26.6,13.9,40.5c3.5,13.9,5.4,28.2,4.1,42.6c0,0-0.4,0-0.4,0c-0.9-3.5-1.4-7-2-10.5
		c-1.2-6.8-2.4-14.1-3.3-20.9c-1.3-10.5-3.4-20.9-6.1-31.2c-1.8-6.8-3.9-13.6-6.5-20.2L330.8,99.7L330.8,99.7z"/>
</g>
<g>
	<ellipse transform="matrix(0.9939 -0.1104 0.1104 0.9939 -26.8853 33.9395)" class="st6" cx="293" cy="259.7" rx="6.6" ry="11.1"/>
	<ellipse transform="matrix(0.5527 -0.8333 0.8333 0.5527 -105.81 348.9046)" class="st6" cx="272.1" cy="273" rx="6.6" ry="11.1"/>
	<polyline class="st7" points="294.2,270.3 297.4,289 281.1,278.9 	"/>
	<g>
		<path class="st8" d="M293.2,284.6c11.6,7.1,22.3,22.4,24.8,35.7C306.4,313.2,295.8,297.9,293.2,284.6L293.2,284.6z"/>
	</g>
	<g>
		<path class="st8" d="M294.9,283.4c11.6,7.1,22.3,22.4,24.8,35.7C308.1,312.1,297.5,296.8,294.9,283.4L294.9,283.4z"/>
	</g>
</g>
<path class="st4" d="M346.9,328.6l-17.1,1.3c-15.6,1.2-31.3,1.2-47-0.1l-15.6-1.3c-3.2-0.6-5.6-3.8-5.6-7.6v-28.4
	c0-4.7,3.6-8.3,7.6-7.6c0,0,6.8,0.5,14.5,1.1c14.6,1.1,29.3,1.1,43.9,0.1l17.4-1.3c4-0.7,7.5,2.9,7.5,7.6V321
	C352.5,324.8,350.1,328,346.9,328.6z"/>
<path class="st2" d="M161.6,118.4c0.7-0.4,1.3-0.9,1.7-1.6c1.9-3.4,7.8-14,8-16.2c0.2-2.7-0.5-14.4,0-16.5s6.6-13.3,5.3-13.8
	c-0.8-0.3-2.9-0.8-4.6-1.3c-1.6-0.4-3.3,0.2-4.2,1.6l-4.2,5.8c-0.3,0.5-0.6,1.1-0.7,1.6l-0.8,5c-0.4,2.2-3.3,2.6-4.3,0.6l-5.9-12.2
	c-0.1-0.2-0.2-0.4-0.2-0.6c-0.9-3-8.5,0.8-8.5,0.8c-0.1-0.1-5.2,2.9-7,4c-0.5,0.3-0.9,0.6-1.3,0.9l-3.9,2.8
	c-3.4,2.4-5.9,5.8-7.1,9.7c-0.5,1.8-0.7,3.4,0.1,4.3c0.2,0.2,0.4,0.5,0.5,0.8l14.5,27.3c0.4,0.8,1.2,1.4,1.9,1.8l4.4,1.9
	c1.1,0.4,2.3,0.4,3.3-0.1L161.6,118.4z"/>
<path class="st2" d="M139.6,120c0,0,3.4,3.5,4.4,5.5s2.2,10.1,2.2,10.1l20.4-8.6c0,0-2.5-7.9-2.2-10c0.3-2.1,3-8.3,3-8.3l-10.7-4.9
	L139.6,120z"/>
<path class="st4" d="M142.2,104.5l4,1.4c3.2,1.2,6.7-0.2,8.1-3.1l20-46.1c1.3-2.9-0.2-6.2-3.4-7.4l-4-1.4c-3.2-1.2-6.7,0.2-8.1,3.1
	l-20,46.1C137.4,100.1,139,103.4,142.2,104.5z"/>
<line class="st9" x1="147.9" y1="73.3" x2="144.9" y2="81.4"/>
<line class="st9" x1="153.7" y1="58.9" x2="150.7" y2="67"/>
<ellipse transform="matrix(0.3797 -0.9251 0.9251 0.3797 75.4868 180.219)" class="st4" cx="172.1" cy="33.8" rx="24.7" ry="29.9"/>
<path class="st4" d="M158.6,48.4l-39.1-21.6c-4.7-1.9-6.9-7.3-4.9-12l3.5-8.3c1.9-4.7,7.3-6.9,12-4.9l42.1,13.6L158.6,48.4z"/>
<path class="st4" d="M170.6,52.9l27,6c2.9,1.2,6.8-1.6,8.7-6.3l3.5-8.3c1.9-4.7,1.2-9.4-1.7-10.6l-23.5-13.8L170.6,52.9z"/>
<g>
	<polygon class="st5" points="145.6,104.4 132.3,132.9 141.9,103 145.6,104.4 	"/>
</g>
<path class="st10" d="M139.2,114.4c0,0-13.2,37.4-16.8,49.2c-18,59,12.4,78.8-1.1,115.6c-5.1,14-18.8,33.7-16,49.5
	c2.8,15.7,17.8,30.3,34.6,14.6c34.9-32.4,105.5-3.3,105.5-3.3"/>
<path class="st2" d="M160.7,92.4L138.5,104c-3.9,2-8.7,0.5-10.7-3.4l-4.9-9.4c-2-3.9-0.5-8.7,3.4-10.7L148.5,69
	c3.9-2,8.7-0.5,10.7,3.4l4.9,9.4C166.1,85.6,164.5,90.4,160.7,92.4z"/>
</svg>
