<?xml version="1.0" encoding="utf-8"?>
<!-- Generator: Adobe Illustrator 26.0.3, SVG Export Plug-In . SVG Version: 6.00 Build 0)  -->
<svg version="1.1" id="Calque_1" xmlns="http://www.w3.org/2000/svg" xmlns:xlink="http://www.w3.org/1999/xlink" x="0px" y="0px"
	 viewBox="0 0 788 1005.1" style="enable-background:new 0 0 788 1005.1;" xml:space="preserve">
<style type="text/css">
	.st0{fill:none;stroke:#333333;stroke-miterlimit:10;}
	.st1{fill:#C58C85;}
	.st2{fill:#B7837E;}
	.st3{fill:#95C1BE;}
	.st4{fill:#D31149;}
	.st5{fill:#C60C4B;}
</style>
<path class="st0" d="M597.8,200.1c0,0-1.7,55.7-16.9,74.2c-15.2,18.6-56.5,22.8-70,43c-13.5,20.2,16,79.3,0,101.2
	c-16,21.9-58.2,25.3-81,46"/>
<path class="st0" d="M504.8,505.6c0,0,36.5-42,38-66c1.4-23.9-26.1-55.1-22.2-79.1c3.8-24,65.6-47.4,68.7-74.4
	c3.1-27-25.6-58.1-28.3-88.7"/>
<path class="st1" d="M558.7,340.7l-48.1-59.9c-0.1-0.1-0.2-0.3-0.3-0.4l-13.7-21.5c-3.5-5.4-8.4-9.8-14.2-12.6l-48.5-22.9
	c-1.3-0.6-2.2-1.7-2.6-3l-3.9-50.8h-39.5l-4.5,50c-0.4,1.3-1.3,2.3-2.5,2.9l-48.2,20.9c-7,3-13,8.2-16.9,14.8l-15.1,25.2
	c-0.1,0.2-0.2,0.4-0.4,0.5L257,336.3c-6.2,7.5-5.2,18.6,2.3,24.8c7.5,6.2,18.6,5.2,24.9-2.3c0.1-0.1,0.2-0.2,0.2-0.3l54.7-57.7
	l0.7,77.6c0,0.2,0,0.4,0,0.6l-15.4,127.9c-1.1,9.4,5.1,18,14.3,20c0,0,50.5,13.7,67.8,14.4c17.9,0.7,71-9.5,71-9.5
	c0.1,0,0.2,0,0.2,0c10-1.5,16.8-10.7,15.4-20.7l-18.8-127.7c0-0.2,0-0.5,0-0.7c0-5.1,0.5-64.7,0.6-76.4l55.7,58.9
	c6.9,7.4,18.6,8,26.2,1.2C564,359.6,564.9,348.4,558.7,340.7z"/>
<polygon class="st2" points="387.9,169.5 427.4,169.5 429.9,201.4 384,212.8 "/>
<g>
	<path class="st1" d="M358.4,483.5c2,0.8-22.5-31.2-22.5-31.2l-0.3-6.5c-0.1-2.1-2.2-3.6-4.2-2.9l-4.8,1.5l0,0
		c-6.5-9.3-11.6-19.4-15.2-30.2l-21.1-64.8l-4.3-7.7c-4.6-8.2-14.7-11.6-23.3-7.7c-9.2,4.1-13.2,14.9-9.1,24c0.1,0.3,0.3,0.7,0.5,1
		l54.4,95.3c4.4,7.7,9.9,14.7,16.4,20.7c2,1.8,4,3.5,5.9,4.8c5.7,3.8,18.1,12.2,25.2,17.1c1.7,1.2,4-0.2,3.7-2.3L358.4,483.5z"/>
	<path class="st1" d="M455.6,488.8c-2,0.8,22.5-31.2,22.5-31.2l0.3-6.5c0.1-2.1,2.2-3.6,4.2-2.9l4.8,1.5l0,0
		c6.5-9.3,11.6-19.4,15.2-30.2l21.1-64.8l4.3-7.7c4.6-8.2,14.7-11.6,23.3-7.7c9.2,4.1,13.2,14.9,9.1,24c-0.1,0.3-0.3,0.7-0.5,1
		l-54.4,95.3c-4.4,7.7-9.9,14.7-16.4,20.7c-2,1.8-4,3.5-5.9,4.8c-5.7,3.8-18.1,12.2-25.2,17.1c-1.7,1.2-4-0.2-3.7-2.3L455.6,488.8z"
		/>
</g>
<path class="st3" d="M474.7,371.7c-0.2-3.6-0.3-7.3-0.3-10.9l0.2-20.2c0.2-25.8-3.7-51.8-15.6-75l-23.9-41.8
	c0,0,13.9,24.5,11.7,37.8c-2.2,13.3-76.7,14.4-79,1.2c-2.2-13.3,13.1-40.5,13.1-40.5l-20.6,36.4c-14,24.6-21.2,52.1-21.1,80
	c0,7.6-0.1,15.2-0.4,22.8l0,0c0,0-55.9,218.2-47.5,230.6c8.4,12.4,26.4,12.9,32.1,28.7c5.6,15.7,37.7,12.7,50.6,21.7
	c12.9,9,23.2-4.7,41.2,0.9s32.5,12.8,55,7.7s16.8-28.1,35.7-30.4c18.9-2.2-5.3-7.9,26.2-18.6c31.5-10.7,13.5-27.6,42.7-36
	s6.2-25.3,29.8-30.9C628.2,529.6,493.2,425.6,474.7,371.7z"/>
<path class="st4" d="M656.5,145.8c-26.1,34-95.3,54.4-95.3,54.4s-48-53-54.4-95.3c-6.6-43.6,73.9-78.7,84.9-16.2
	C634,39.8,684.1,109.9,656.5,145.8z"/>
<path class="st5" d="M667.6,181.1c-19.7,25.7-72.2,41.2-72.2,41.2s-36.3-40.1-41.2-72.2c-5-33,55.9-59.6,64.3-12.3
	C650.6,101,688.4,154,667.6,181.1z"/>
</svg>
