<?xml version="1.0" encoding="utf-8"?>
<!-- Generator: Adobe Illustrator 26.0.3, SVG Export Plug-In . SVG Version: 6.00 Build 0)  -->
<svg version="1.1" id="Layer_1" xmlns="http://www.w3.org/2000/svg" xmlns:xlink="http://www.w3.org/1999/xlink" x="0px" y="0px"
	 viewBox="0 0 588 350.8" style="enable-background:new 0 0 588 350.8;" xml:space="preserve">
<style type="text/css">
	.st0{fill:#375D63;}
	.st1{fill:#B7837E;}
	.st2{fill:#822323;}
	.st3{fill:#C58C85;}
	.st4{fill:#E2C7B0;}
</style>
<g id="Calque_1">
	<path class="st0" d="M355.5,306.1c-23.3,2.5-44.5,10-69.8,18.3c0,0-11.5,0.5-10.8-0.1l-70.8-16.6l5.9-58.4
		c1.1-10.7,10.1-18.8,20.8-18.8h99.9c11,0,20.1,8.5,20.8,19.4L355.5,306.1z"/>
</g>
<rect x="261.7" y="-11.1" class="st1" width="39.5" height="47.4"/>
<path class="st2" d="M351.5,61.7c7.6,3.3,11.5,11.7,9.2,19.6c-4.7,16.1-12.2,40.4-12.2,42.5c0,3-0.6,78.6-0.6,78.6l18.8,128
	c1.5,10-5.4,19.2-15.4,20.7c-0.1,0-0.2,0-0.2,0s-53.1,10.1-71,9.5c-17.3-0.7-67.8-14.4-67.8-14.4c-9.2-2-15.4-10.6-14.3-20
	l15.4-128.2l-0.7-78.4l-12.5-38.1c-2.6-8,1.3-16.7,9-20.1l47.3-20.5l2.1-15.1c0.2-1.5,1.5-2.6,3-2.5l39.3,0.4c1.5,0,2.7,1.1,2.9,2.6
	l1.7,15.7L351.5,61.7z"/>
<path class="st3" d="M423,155.9L423,155.9l-82.8-48l0,0c-10.6-6.1-13.9-19.8-7.5-30.6c6.4-10.8,20.2-14.6,30.8-8.4l0.5,0.3
	l79.3,60.2c7.9,6.1,9.8,15.4,5,21.9C443,158.5,435.5,163.4,423,155.9z"/>
<path class="st3" d="M486.3,44.2l9.4-16.4l18.6-18.1c0,0,3,4.2,2.8,5.8c-0.5,5-5.6,11.3-8.6,15.4c-0.4,0.5-0.6,3.6-0.2,4.2
	c1.7,2.2,7-0.1,7-0.1l-14.1,12.4L486.3,44.2z"/>
<path class="st3" d="M489.7,40.9l7.7,17.6l30.3-10.7c6-2.2,11.6-5.5,16.5-9.7l26-22.5c0,0-4.9-3.7-6.8-3.7
	c-10.2-0.1-26.7,14.5-35.9,18.8C517.5,35.2,489.7,40.9,489.7,40.9z"/>
<ellipse transform="matrix(0.6867 -0.7269 0.7269 0.6867 117.5423 373.8119)" class="st3" cx="492.5" cy="50.5" rx="9.2" ry="9.3"/>
<path class="st3" d="M423.3,155.1c-10.5-6.6-12.3-18.8-6.1-29.3c0.1-0.2,3.4-4.6,3.4-4.6l62.7-72.6c0,0,4.1-6.5,11.3-1.6
	c6.5,4.3,1.8,11.6,1.8,11.6l-38.9,81.2c-4.5,9.4-10.8,17.6-21.1,19.4C432.2,159.9,426.7,157.1,423.3,155.1z"/>
<path class="st3" d="M457.2,151.2l-0.1-0.1c0.1-0.2,0.3-0.4,0.4-0.6l0.1-0.1L457.2,151.2z"/>
<path class="st3" d="M157.6,185.6L157.6,185.6L157.6,185.6l28.8-102.2l0,0c3.7-13,17.5-20.4,30.8-16.5s21.2,17.7,17.5,30.8
	c-0.1,0.2-0.1,0.4-0.2,0.6c-0.1,0.3-42.9,101.7-42.9,101.7c-4.4,10.1-13.9,14.7-22.1,11.4C160.3,207.6,152.9,200.9,157.6,185.6z"/>
<path class="st3" d="M289.7,219.6l20.1-4l28.1,2.2c0,0-1.3,5.4-2.7,6.5c-4.5,3.2-16.5,1.1-21.9,1.7c-0.7,0.1-2.4,0.7-2.5,1.4
	c-0.6,2.9,7.4,9.5,7.4,9.5l-20.3-2.7L289.7,219.6z"/>
<path class="st3" d="M294.6,222.9l-6,18.8l36.8,14.8l41.5,0.8c0,0-1.1-5.9-2.4-7.3c-7-6.7-27.8-7.1-36.9-10
	C317.6,236.9,294.6,222.9,294.6,222.9z"/>
<ellipse transform="matrix(0.9967 -8.072671e-02 8.072671e-02 0.9967 -17.683 24.381)" class="st3" cx="292.7" cy="230.9" rx="11.5" ry="11.5"/>
<path class="st3" d="M158.5,185.6c4.3-13,16.8-18.4,29.8-14.6c0.3,0.1,5.9,2.3,5.9,2.3l95.1,47.5c0,0,8.1,2.7,4.9,11.7
	c-2.9,8.1-12,5.1-12,5.1l-97.9-19.5c-11.3-2.2-21.9-6.8-26.6-17.3C155.8,196.5,157.2,189.6,158.5,185.6z"/>
<path class="st3" d="M171.9,220.9v-0.1l0.8,0.3l0.2,0.1L171.9,220.9z"/>
<path class="st4" d="M366.2,68.6l-17.7,69.9l-135.4,21.1l-17-89.8c-0.3-1.5,0.5-2.9,1.9-3.5l58.7-25.4l49.1,1l58.6,23
	C365.8,65.5,366.5,67.1,366.2,68.6z"/>
</svg>
