<?xml version="1.0" encoding="utf-8"?>
<!-- Generator: Adobe Illustrator 26.0.1, SVG Export Plug-In . SVG Version: 6.00 Build 0)  -->
<svg version="1.1" id="Calque_1" xmlns="http://www.w3.org/2000/svg" xmlns:xlink="http://www.w3.org/1999/xlink" x="0px" y="0px"
	 viewBox="0 0 481.9 214.5" style="enable-background:new 0 0 481.9 214.5;" xml:space="preserve">
<style type="text/css">
	.st0{fill:#89777A;}
	.st1{fill:#D68F72;}
	.st2{fill:#AD6542;}
	.st3{fill:#3F718B;}
	.st4{fill:#C1A8AB;}
</style>
<g id="Calque_1_00000157268820068794727510000014195860779251332796_">
	<g id="Calque_12">
		<path class="st0" d="M205.6,43.6c1.4,0,29.5,3.5,29.5,3.5l30.5-1.7l2.5-14.5l-30.2,0.3c0,0-26.3-1.8-29.6-0.9
			S205.6,43.6,205.6,43.6z"/>
		<path class="st1" d="M309.1,84.5c0,0-0.1,3.9-9.3,10c-10.9,7.3-6.9,21.4-8.4,28.7c-1,4.9-9.9,17.3-13.7,16.6
			c-10.8-2-16.9-16.2-26.7-20.4c-5.7-2.4-8.2-4.7-13.7-2c-5.5-2.8-8-0.5-13.7,2c-9.8,4.2-15.8,18.5-26.7,20.4
			c-3.9,0.7-12.7-11.7-13.7-16.6c-1.5-7.3,2.5-21.4-8.4-28.7c-9.2-6.1-11.6-11-11.6-11c-7-17.1-6.1-26.7,3.9-29.7s29.4-7,38.6-10.1
			c4.7-1.6,8.5-3.4,10.6-5.8l1.6-37.3L236.2,0h2.2l14.3,0.5l4,0.1l0.7,15.7l0.6,12.9v0.5l0.4,8.2c0.4,0.5,0.9,0.9,1.5,1.3
			c2.7,2,6.8,3.2,11.6,4.2c6.5,1.3,30.5,8,37.8,9.4c3.1,0.6-2.8-0.9,0,0C319.1,55.6,316.1,67.4,309.1,84.5z"/>
		<path class="st2" d="M259.8,39.1c-5.4,4.2-18.8,11.4-21.3,12.6c-8.2,3.9-28.3-5-32.8-8.1c4.7-1.6,8.5-3.4,10.6-5.8l1.6-37.3h38.8
			l1.2,28.5v0.5l0.4,8.2C258.7,38.2,259.2,38.7,259.8,39.1z"/>
	</g>
</g>
<g id="Calque_9">
	<path class="st1" d="M286.6,67.3c3.2,12.9,10.9,21.9,17.8,25.5c10.9,5.6,29.6,21.9,38.5,28.9c4.2,3.3,18.1,15.1,31.5,3.4l-6.5-18.4
		c-1.9-4.2-7.8-10.5-11.4-14c-7.3-7-14.6-11.4-20.1-19.3c-4.1-5.9-6.2-12.3-19.7-17.4c0,0-13.3-5.7-23.2-1.1
		C287.1,57.9,285.2,61.9,286.6,67.3L286.6,67.3z"/>
	<path class="st1" d="M346.7,112c8.7-11,14.1-5.7,18.3-5.8c4.5-0.1,48.9,12.4,61,15.5c6.8,1.7,10.5,2.4,10.8,8
		c0.3,5.1-6.5,6.3-9.1,6.8c-24.8,4.7-51.7,1.6-70.8-6.8C344.2,124.2,344.3,115,346.7,112z"/>
	<path class="st1" d="M451.6,116.2c5.7,2.8,14.1,5.8,14.1,5.8s-2.8,5.1-4.3,5.7c-1.2,0.5-7.5-2.2-7.5-2.2l-4.6,3.6
		c3,3.7,3.8,5.7,7.5,9.8c2.9,3.1,10.5,7.4,14.1,8.5c1.9,0.6,5.9-0.5,7.7,0.8c1.3,0.9,3.3,6.1,3.3,6.1l-9.8,1.3
		c0,0-14.7-3.8-19.5-5.6c-5.2-2-15.4-7.5-19.9-11.7c-2.7-2.2-4.3-5.3-4.5-8.8c-0.2-4.1,2.3-6.1,4-7.3
		C434.7,120.5,451.3,116.1,451.6,116.2z"/>
	<path class="st1" d="M195.4,67.4c-3.3,12.9-10.9,21.9-17.8,25.5c-10.9,5.6-29.6,21.9-38.5,28.9c-4.2,3.3-18.1,15.1-31.5,3.4
		l6.5-18.4c1.9-4.2,7.8-10.5,11.4-14c7.3-7,14.6-11.4,20.1-19.3c4.1-5.9,6.2-12.3,19.7-17.4c0,0,13.3-5.7,23.2-1.1
		C194.9,58,196.7,62,195.4,67.4z"/>
	<path class="st1" d="M135.2,112.1c-8.7-11-14.1-5.7-18.3-5.8c-4.5-0.1-48.9,12.5-61,15.5c-6.8,1.7-10.5,2.4-10.7,8
		c-0.3,5.1,6.5,6.3,9.1,6.8c24.8,4.7,51.7,1.6,70.8-6.8C137.7,124.3,137.6,115.1,135.2,112.1z"/>
	<path class="st1" d="M30.4,116.3c-5.7,2.7-14.1,5.8-14.1,5.8s2.8,5.1,4.3,5.7c1.2,0.5,7.5-2.2,7.5-2.2l4.6,3.6
		c-3,3.7-3.8,5.7-7.6,9.8c-2.9,3.1-10.5,7.4-14.1,8.5c-1.9,0.6-5.9-0.5-7.7,0.8c-1.2,0.9-3.3,6.1-3.3,6.1l9.8,1.3
		c0,0,14.7-3.8,19.5-5.6c5.1-2,15.4-7.5,19.9-11.7c2.6-2.2,4.3-5.3,4.5-8.8c0.2-4.1-2.3-6.1-4-7.3C47.3,120.6,30.6,116.2,30.4,116.3
		z"/>
	<polygon class="st3" points="149.2,58.3 174.7,174.8 165.1,199.6 173.7,214.5 294.7,214.5 307.9,197 298.9,176.5 324.9,54.1 
		324.9,54.1 272.8,42.6 239.8,69.6 206,42.6 	"/>
	<path class="st0" d="M231,67.9c0.4,0,8.8,5.8,8.8,5.8l9.6-7.2l-3.6-13.1l-5.4,1.1c0,0-6.5-2.2-7.3-1.1S231,67.9,231,67.9z"/>
	<polygon class="st4" points="199.6,48.8 206.8,30.9 237.5,54.5 226.7,77.3 	"/>
	<polygon class="st4" points="275.3,48.8 268.1,30.9 237.5,54.5 248.3,77.3 	"/>
</g>
</svg>
