<?xml version="1.0" encoding="utf-8"?>
<!-- Generator: Adobe Illustrator 26.0.3, SVG Export Plug-In . SVG Version: 6.00 Build 0)  -->
<svg version="1.1" id="Calque_1" xmlns="http://www.w3.org/2000/svg" xmlns:xlink="http://www.w3.org/1999/xlink" x="0px" y="0px"
	 viewBox="0 0 260.9 233.5" style="enable-background:new 0 0 260.9 233.5;" xml:space="preserve">
<style type="text/css">
	.st0{fill:#D68F72;}
	.st1{fill:#E0B9A0;}
	.st2{fill:#434D4E;}
	.st3{fill:#3D5760;}
	.st4{fill:#42626B;}
	.st5{fill:#95C1BE;}
</style>
<g id="Calque_9">
	<path class="st0" d="M54.8,125.4c1.3,5.9,9,10.3,18.1,10.4l0,0c8.7,0.1,16.1-3.8,17.7-9.3c0,0,9.4-39.3,9.6-53.4
		c0-3.3-1.7-13.3-1.7-13.3l-4.2-23.3c0,0-2.9-11-20.8-12.3c-20.6-1.5-21,5.6-21,5.6s-6.6,37-6.4,48.7
		C46.4,89.2,54.8,125.4,54.8,125.4z"/>
	<path class="st0" d="M202,121.1c0.8,5.9-5.2,10.9-14.1,11.8l0,0c-8.5,0.9-17.2-2.3-20.8-7.6c0,0-23.3-37.8-28.6-51.7
		c-1.2-3.3-3.1-13.3-3.1-13.3L131.2,37c0,0-1-11.1,16.1-14c19.7-3.4,22.7,3.7,22.7,3.7s19.7,35.8,23.7,47.3
		C197.4,84.7,202,121.1,202,121.1z"/>
	<path class="st1" d="M72.8,116.1c-9.8,0.1-15.6,2.8-17.1,7.2c0,0-1.6,19.5-1.8,27.7c-0.4,13.2,2.6,40,6.9,53
		c0.9,2.8,2.9,11.4,2.9,11.4c0.7,2.6,4.9,4.4,9.6,4.3l0,0c4.7-0.1,8.5-2.1,8.8-4.6c0,0,0.9-9.9,1.5-13.2
		c2.4-11.9,10.1-35.7,10.7-47.7c0.3-7.2-2.5-29.3-2.5-29.3C90.9,117.6,81.3,116.2,72.8,116.1L72.8,116.1z"/>
	<path class="st1" d="M185.2,112c9.7-0.7,16.2,1.5,18.9,5.8c0,0,8,18.4,10.6,26.6c4.1,13.2,3.6,65.3,3.6,65.3
		c0.1,2.6,0.3,6.1-4.5,6.4l0,0c-4.7,0.3-10.4-0.8-11.4-3.3c0,0-23.8-48.7-27.7-60.7c-2.4-7.2-5.9-29.6-5.9-29.6
		C167.7,115.1,176.8,112.9,185.2,112L185.2,112z"/>
	<path class="st2" d="M85.7,201.9l-25.9-1.1c-4.4,0-11.9,9.7-13.7,11.8l14.6,1.9c-4.3,4.8-22.2,11.2-22.2,11.2
		c-3.2,1.3-4.8,3.5-4,5.7l0,0l43.9-0.1l2.5-0.4c2.8-0.5,4.7-1.9,4.4-3.5l-2.5-11.6C81.4,212.9,87.4,202,85.7,201.9z"/>
	<path class="st3" d="M35.7,231.3L35.7,231.3c-0.6-1.9,1.9-3.7,5.5-4l26.1-2.1c3.4-0.3,6.5,0.9,7.3,2.6l1.5,3.3L35.7,231.3z"/>
	<path class="st2" d="M193.9,200.8c4.4-1.2,26.3-5.3,29.2-3.8c10.3,5.2-2,3.8-2,3.8l3.9,10.3c-0.8-1,1.6,7.9,28.4,9.1
		c4,1.7,6.6,7.4,6,10l0,0c0,0-19.7,4.8-33.9,0.5c-3.4-1-12.1,0-12.1,0s-15.5,0.3-14.9-2.9l1.3-15.8
		C193.4,201.9,191.6,201.4,193.9,200.8z"/>
	<path class="st4" d="M259.8,230.2c0.2-4.2-3.7-6.7-4.9-6.6c-1.8,0.2-1.1,0.8-2.8,1.1c-2.8,0.4-11.5,0.2-11.5,0.2
		c-1.9-0.2-3.7,1.2-3.9,3.1c0,0.1,0,0.2,0,0.3l0.2,4c0,0,1.8,0.7,14.2-0.8C253,231.2,259.8,230.2,259.8,230.2z"/>
	<path class="st5" d="M5.8,158.9L40,174.8c9.1,4.2,19,6.6,29,7l5.3,0.2c7.2,0.3,14.3-0.5,21.2-2.3l3.3-0.9c8.1-2.1,16.8-1,24.1,3.2
		l0,0c5.4,3.1,11.8,3.8,17.7,2l5-1.5c11.7-3.6,24.3-3.4,35.9,0.4l0,0c13,4.3,27.2,2.9,39.2-3.7c0.2-0.1,0.4-0.2,0.7-0.4
		c16.4-9.3,26.7-16.2,32.5-20.3c3.5-2.5,4.6-7.1,2.5-10.8l-77-141.9c-0.2-0.4-0.4-0.8-0.5-1.2l0,0c-1.2-3.4-4.4-5.6-8-5.6L60.2-0.2
		c-3.5,0-6.7,2.3-7.8,5.6L1.5,148.5C0,152.6,1.9,157.1,5.8,158.9z"/>
</g>
</svg>
