<?xml version="1.0" encoding="utf-8"?>
<!-- Generator: Adobe Illustrator 26.0.3, SVG Export Plug-In . SVG Version: 6.00 Build 0)  -->
<svg version="1.1" id="Calque_1" xmlns="http://www.w3.org/2000/svg" xmlns:xlink="http://www.w3.org/1999/xlink" x="0px" y="0px"
	 viewBox="0 0 220.9 292.5" style="enable-background:new 0 0 220.9 292.5;" xml:space="preserve">
<style type="text/css">
	.st0{fill:#5E6D70;}
	.st1{fill:#E0B9A0;}
	.st2{fill:#FFBD75;}
	.st3{fill:#D3A06C;}
	.st4{fill:#C83C55;}
</style>
<path class="st0" d="M149.4,157.3c0.5,7-5.4,13-13.8,13.9l0,0c-8,0.9-16-3.1-19-9.4c0,0-19.9-45.6-24.1-62.3c-1-4-2.2-15.9-2.2-15.9
	l-2.8-27.9c0,0-0.4-13.2,15.8-16.5c18.6-3.7,21,4.7,21,4.7s16.6,43.1,19.7,57C147,113.8,149.4,157.3,149.4,157.3z"/>
<path class="st1" d="M41.6,155.7c-8.8-0.4-14.1,2.5-15.8,7.7c0,0-2.8,23.2-3.6,33c-1.3,15.7-0.5,48,2.4,63.7
	c0.6,3.5,1.8,13.8,1.8,13.8c0.4,3.1,4,5.6,8.3,5.7l0,0c4.2,0.1,7.7-2,8.2-5c0,0,1.5-11.8,2.3-15.7c3-14.1,11.6-42,12.9-56.3
	c0.8-8.6-0.1-35.2-0.1-35.2C57.6,158.5,49.2,156.2,41.6,155.7L41.6,155.7z"/>
<path class="st1" d="M144.4,152.2c9-1.9,9.3,4.4,12.2,9.2c0,0,6.9,13.8,10.1,23.3c5.1,15.3,18.3,80.7,18.3,80.7
	c0.3,3.1,0.9,7.2-3.5,8.1l0,0c-4.3,0.8-9.8,0.1-11-2.8c0,0-27-55.7-31.9-69.6c-2.9-8.4-8.4-34.8-8.4-34.8
	C128.5,157.7,136.7,154,144.4,152.2L144.4,152.2z"/>
<path class="st2" d="M34.5,264.2L34.5,264.2c-4.1,0.1-7.9,1.7-9.6,4.3l0,0c-4,5.7-20.8,13.4-20.8,13.4c-3,1.6-4.5,4.2-3.8,6.8l0,0
	l41.1-0.2l2.3-0.5c2.6-0.5,4.4-2.3,4.1-4.2l-2.4-13.9C44.2,266.5,39.7,264.2,34.5,264.2z"/>
<path class="st3" d="M1.4,288.5L1.4,288.5c-0.6-2.3,1.8-4.5,5.1-4.8l24.4-2.5c3.1-0.3,6.1,1,6.9,3.2l1.4,4L1.4,288.5z"/>
<path class="st2" d="M176.6,268.5c3.7-1.1,3.4-3.3,4.8-4.6c0.9-0.8,4.5-1.6,5.1-0.7c6.5,10.7,31,19.1,31,19.1c3.2,1.8,3.9,4.3,3.4,7
	l0,0c0,0-19.3,5.2-32.7-0.8c-2.7-1.2-9.7-1.7-9.7-1.7s-12.5,0.1-11.8-3.2l0.2-17.1C167.9,263,170.3,270.5,176.6,268.5z"/>
<path class="st4" d="M28.8-0.5C28.8-0.5,34.9-0.5,28.8-0.5c-1.4,0-12.6,12.8-12.8,33.3c-0.5,68.9,5.8,219.1,5.8,219.1
	s5.3,1.9,26-5.4C60,242.2,73.4,120,85.6,114c10.8-5.3,62.9,137.7,75.2,135c21.1-4.7,24-5,23.3-4.6c-0.6,0.3-1.4,0.1-1.7-0.5
	c-0.1-0.2-0.1-0.4-0.2-0.6C181,198.8,135.5,36,136.6,40.5c0,0-6.6-25.7-23.6-40.1l0,0L30-0.5"/>
</svg>
