<?xml version="1.0" encoding="utf-8"?>
<!-- Generator: Adobe Illustrator 26.0.3, SVG Export Plug-In . SVG Version: 6.00 Build 0)  -->
<svg version="1.1" id="Calque_1" xmlns="http://www.w3.org/2000/svg" xmlns:xlink="http://www.w3.org/1999/xlink" x="0px" y="0px"
	 viewBox="0 0 215.5 241" style="enable-background:new 0 0 215.5 241;" xml:space="preserve">
<style type="text/css">
	.st0{fill:#5E6D70;}
	.st1{fill:#E0B9A0;}
	.st2{fill:#9C3A26;}
	.st3{fill:#8E3425;}
	.st4{fill:#EAD3D3;}
	.st5{fill:#D8BFBF;}
</style>
<path class="st0" d="M18.8,130c1.3,5.9,9,10.3,18.1,10.4l0,0c8.7,0.1,16.1-3.8,17.7-9.3c0,0,9.4-39.3,9.6-53.4
	c0-3.3-1.7-13.3-1.7-13.3l-4.2-23.3c0,0-2.9-11-20.9-12.3c-20.6-1.6-21,5.6-21,5.6s-6.6,37-6.4,48.7C10.2,93.8,18.8,130,18.8,130z"
	/>
<path class="st1" d="M36.8,120.7c-9.8,0.1-15.6,2.8-17.1,7.2c0,0-1.6,19.5-1.8,27.7c-0.4,13.2,2.6,40,6.9,53
	c0.9,2.8,2.9,11.4,2.9,11.4c0.7,2.5,4.9,4.4,9.7,4.3l0,0c4.7-0.1,8.5-2.1,8.8-4.6c0,0,0.9-9.9,1.5-13.2
	c2.4-11.9,10.1-35.7,10.7-47.7c0.3-7.2-2.5-29.3-2.5-29.3C54.8,122.2,45.1,120.7,36.8,120.7L36.8,120.7z"/>
<path class="st1" d="M143.5,116.9c9.8-0.6,7.7-4.4,10.2-0.1c0,0,4.1,15.2,6.2,23.5c3.4,13.2,11.2,74.8,11.2,74.8
	c-0.1,2.6-0.1,6.1-4.9,6.3l0,0c-4.7,0.2-10.4-0.9-11.2-3.5c0,0-21-49-24.3-61.1c-2-7.3-4.2-29.8-4.2-29.8
	C125.9,119.7,135,117.6,143.5,116.9L143.5,116.9z"/>
<path class="st2" d="M37,215.5L37,215.5c-4.4,0.1-8.4,1.4-10.3,3.6l0,0c-4.3,4.8-22.2,11.2-22.2,11.2c-3.2,1.3-4.8,3.5-4,5.7l0,0
	l43.9-0.1l2.5-0.4c2.8-0.5,4.7-1.9,4.4-3.5l-2.5-11.6C47.5,217.4,42.5,215.4,37,215.5z"/>
<path class="st3" d="M1.8,235.8L1.8,235.8c-0.6-1.9,1.9-3.7,5.5-4l26.1-2.1c3.4-0.3,6.5,0.9,7.3,2.6l1.5,3.3L1.8,235.8z"/>
<path class="st3" d="M27.8,220.1c2.1-0.8,4.2-1.3,6.4-1.4c2.5,0,4.9,0.4,7.3,1.1"/>
<path class="st3" d="M24.6,222.7c2.1-0.8,4.3-1.2,6.5-1.3c2.5,0,4.9,0.5,7.2,1.2"/>
<path class="st2" d="M163.5,221c3.9-1.1,3.5-3.2,5.1-4.4c0.9-0.7,4.8-1.5,5.4-0.7c6.8,10.4,37.9,15.8,37.9,15.8
	c3.3,1.7,4.1,4.2,3.6,6.7l0,0c0,0-27.1,5.4-41.2-0.4c-2.8-1.2-10.1-1.7-10.1-1.7s-13.1,0.1-12.4-3.1l1.7-14.3
	C154.4,215.5,157,222.8,163.5,221z"/>
<path class="st3" d="M215.8,238.4c0.4-4.2-2.8-6.8-3.8-6.6c-1.5,0.2-4,1.2-5.5,1.4c-3.3,0.2-6.5,0.2-9.8,0c-1.8-0.1-3.4,1.3-3.5,3.2
	c0,0.1,0,0.1,0,0.2v4c0,0,4.5,0.4,15.1-1C210,239.4,215.8,238.4,215.8,238.4z"/>
<path class="st3" d="M177.5,220.9c-2.1,0.6-4.3,0.9-6.5,1.1"/>
<path class="st3" d="M182.9,223.6c-2.1,0.7-4.2,1.1-6.4,1.3"/>
<path class="st4" d="M51.5,203.6L51.5,203.6C51,201.3,74.8,56.8,74.8,56.8h5.9c0,0,31.4,68.5,33,74.1c3,10.7,31,69.2,31,69.2
	s23.9,0.2,25.4,2.3s0.1-14.1,0.1-14.1S158.8,101.4,153,72.9c-2.2-11-11.2-43.2-11.2-43.2L130.9,3c0,0-113-6.8-113-1s1.3-5.8,0,0
	c-3.6,15.5-11,70.3-10.8,86.3c0.5,29.5,14.8,114.8,14.8,114.8L51.5,203.6"/>
<path class="st5" d="M47.8,209.4l-25.1-2c-2.2-0.2-4.1-1.9-4.4-4.1l-0.4-2.4c-0.5-3,2-5.7,5.1-5.5l25.9,1.8c2.8,0.2,4.9,2.8,4.4,5.6
	l-0.4,2.5C52.5,207.8,50.2,209.5,47.8,209.4z"/>
<path class="st5" d="M169.9,205.7l-25,0.4c-2,0-3.9-1.2-4.6-3.2l-1.7-4.6c-1.1-3.1,1.1-6.4,4.5-6.5l26-0.4c2.4,0,4.4,1.7,4.8,4
	l0.7,4.6C175,203,172.9,205.6,169.9,205.7z"/>
</svg>
