<svg xmlns="http://www.w3.org/2000/svg" xmlns:xlink="http://www.w3.org/1999/xlink" viewBox="0 0 788 1005"><defs><style>.cls-1,.cls-6{fill:none;}.cls-2{clip-path:url(#clip-path);}.cls-3{clip-path:url(#clip-path-2);}.cls-4{clip-path:url(#clip-path-3);}.cls-5{clip-path:url(#clip-path-4);}.cls-6{stroke:#000;stroke-linecap:round;stroke-miterlimit:10;stroke-width:2px;}.cls-7{fill:#7e5342;}</style><clipPath id="clip-path"><polygon class="cls-1" points="374.75 109.52 374.75 109.52 383.59 109.52 383.59 118.36 374.75 118.36 374.75 109.52"/></clipPath><clipPath id="clip-path-2"><polygon class="cls-1" points="422.28 109.52 422.28 109.52 413.44 109.52 413.44 118.36 422.28 118.36 422.28 109.52"/></clipPath><clipPath id="clip-path-3"><rect class="cls-1" x="408.23" y="96.63" width="22.15" height="6.68"/></clipPath><clipPath id="clip-path-4"><rect class="cls-1" x="368.94" y="96.63" width="22.15" height="6.68"/></clipPath></defs><g id="Calque_3" data-name="Calque 3"><g class="cls-2"><circle cx="379.17" cy="113.94" r="4.42"/></g><g class="cls-3"><circle cx="417.86" cy="113.94" r="4.42"/></g><path d="M383.55,113.39l-14.73-2.52,8.86-1.58a5.06,5.06,0,0,1,5.87,4.1Z"/><path d="M413.48,113.39l14.73-2.52-8.86-1.58a5.06,5.06,0,0,0-5.87,4.1Z"/><g class="cls-4"><path d="M409.76,101.44a14.3,14.3,0,0,1,19.09,1.4c.67.69,1.73-.37,1.06-1.06a15.83,15.83,0,0,0-21.21-1.4c-.76.59.31,1.65,1.06,1.06Z"/></g><g class="cls-5"><path d="M390.62,100.38a15.83,15.83,0,0,0-21.21,1.4c-.67.69.39,1.75,1.06,1.06a14.3,14.3,0,0,1,19.09-1.4c.75.59,1.82-.47,1.06-1.06Z"/></g><path class="cls-6" d="M383.76,147.85a23.21,23.21,0,0,0,31.15-1"/><path class="cls-7" d="M406.55,135.76s-4.69,3.69-7.42,3.69c-2.58,0-7-3.6-7-3.6s5.4.73,7.21.72S406.55,135.76,406.55,135.76Z"/></g></svg>