<svg xmlns="http://www.w3.org/2000/svg" xmlns:xlink="http://www.w3.org/1999/xlink" viewBox="0 0 100 100"><defs><style>.cls-1,.cls-6{fill:none;}.cls-2{clip-path:url(#clip-path);}.cls-3{clip-path:url(#clip-path-2);}.cls-4{clip-path:url(#clip-path-3);}.cls-5{clip-path:url(#clip-path-4);}.cls-6{stroke:#000;stroke-linecap:round;stroke-miterlimit:10;stroke-width:2px;}.cls-7{fill:#7e5342;}</style><clipPath id="clip-path"><polygon class="cls-1" points="25.15 34.51 25.15 34.51 33.99 34.51 33.99 43.35 25.15 43.35 25.15 34.51"/></clipPath><clipPath id="clip-path-2"><polygon class="cls-1" points="72.68 34.51 72.68 34.51 63.84 34.51 63.84 43.35 72.68 43.35 72.68 34.51"/></clipPath><clipPath id="clip-path-3"><rect class="cls-1" x="58.63" y="21.62" width="22.15" height="6.68"/></clipPath><clipPath id="clip-path-4"><rect class="cls-1" x="19.34" y="21.62" width="22.15" height="6.68"/></clipPath></defs><g id="Calque_3" data-name="Calque 3"><g class="cls-2"><circle cx="29.57" cy="38.93" r="4.42"/></g><g class="cls-3"><circle cx="68.26" cy="38.93" r="4.42"/></g><path d="M34,38.38,19.22,35.86l8.86-1.58A5.07,5.07,0,0,1,34,38.38Z"/><path d="M63.88,38.38l14.73-2.52-8.86-1.58a5.07,5.07,0,0,0-5.87,4.1Z"/><g class="cls-4"><path d="M60.16,26.43a14.32,14.32,0,0,1,19.09,1.4c.67.7,1.73-.36,1.06-1.06a15.85,15.85,0,0,0-21.21-1.4c-.76.6.31,1.65,1.06,1.06Z"/></g><g class="cls-5"><path d="M41,25.37a15.85,15.85,0,0,0-21.21,1.4c-.67.7.39,1.76,1.06,1.06A14.32,14.32,0,0,1,40,26.43c.75.59,1.82-.46,1.06-1.06Z"/></g><path class="cls-6" d="M34.16,72.84a23.2,23.2,0,0,0,31.15-1"/><path class="cls-7" d="M57,60.75s-4.69,3.69-7.42,3.69-7-3.59-7-3.59,5.4.73,7.21.72S57,60.75,57,60.75Z"/></g></svg>