<svg xmlns="http://www.w3.org/2000/svg" xmlns:xlink="http://www.w3.org/1999/xlink" viewBox="0 0 100 100"><defs><style>.cls-1,.cls-7{fill:none;}.cls-2{clip-path:url(#clip-path);}.cls-3{clip-path:url(#clip-path-2);}.cls-4{fill:#fff;}.cls-5{fill:#070808;}.cls-10,.cls-5,.cls-7{stroke:#000;stroke-miterlimit:10;}.cls-6{clip-path:url(#clip-path-3);}.cls-10,.cls-7{stroke-linecap:round;}.cls-7{stroke-width:2px;}.cls-8{clip-path:url(#clip-path-4);}.cls-9{fill:#7e5342;}.cls-10{fill:#090a0a;}</style><clipPath id="clip-path"><polygon class="cls-1" points="26.23 30.55 26.23 30.55 35.07 30.55 35.07 39.39 26.23 39.39 26.23 30.55"/></clipPath><clipPath id="clip-path-2"><polygon class="cls-1" points="73.77 30.55 73.77 30.55 64.93 30.55 64.93 39.39 73.77 39.39 73.77 30.55"/></clipPath><clipPath id="clip-path-3"><rect class="cls-1" x="58.57" y="18.45" width="22.15" height="6.68"/></clipPath><clipPath id="clip-path-4"><rect class="cls-1" x="19.28" y="18.45" width="22.15" height="6.68"/></clipPath></defs><g id="Calque_3" data-name="Calque 3"><g class="cls-2"><circle cx="30.65" cy="34.97" r="4.42"/></g><g class="cls-3"><circle cx="69.35" cy="34.97" r="4.42"/></g><path d="M35,34.64,20.3,32.13l8.86-1.58A5.06,5.06,0,0,1,35,34.64Z"/><path d="M65,34.64,79.7,32.13l-8.86-1.58A5.06,5.06,0,0,0,65,34.64Z"/><circle class="cls-4" cx="66.78" cy="35.36" r="6.75"/><circle class="cls-4" cx="31.92" cy="35.36" r="6.75"/><circle class="cls-5" cx="34" cy="35.5" r="4"/><circle class="cls-5" cx="68.94" cy="35.5" r="4"/><g class="cls-6"><path class="cls-7" d="M59.57,22.73a14.89,14.89,0,0,1,20.15,1.4"/></g><g class="cls-8"><path class="cls-7" d="M40.43,22.73a14.89,14.89,0,0,0-20.15,1.4"/></g><path class="cls-9" d="M57.89,57.58s-4.69,3.69-7.42,3.69c-2.58,0-7-3.59-7-3.59s5.4.73,7.21.72S57.89,57.58,57.89,57.58Z"/><ellipse class="cls-10" cx="50.31" cy="77.05" rx="2.88" ry="4.5"/></g></svg>