<svg xmlns="http://www.w3.org/2000/svg" xmlns:xlink="http://www.w3.org/1999/xlink" viewBox="0 0 788 1005"><defs><style>.cls-1,.cls-4{fill:none;}.cls-2{fill:#fff;}.cls-3{clip-path:url(#clip-path);}.cls-4{stroke:#000;stroke-linecap:round;stroke-miterlimit:10;stroke-width:2px;}.cls-5{clip-path:url(#clip-path-2);}.cls-6{fill:#7e5342;}.cls-7{fill:#231e1e;}.cls-8{fill:#bcbcbc;}</style><clipPath id="clip-path"><rect class="cls-1" x="351.31" y="93.18" width="23.15" height="6.96"/></clipPath><clipPath id="clip-path-2"><rect class="cls-1" x="391.34" y="93.18" width="23.15" height="6.96"/></clipPath></defs><g id="Calque_3" data-name="Calque 3"><path d="M368.14,111.93l-14.73-2.51,8.86-1.58a5.06,5.06,0,0,1,5.87,4.09Z"/><path d="M398.07,111.93l14.73-2.51-8.86-1.58a5.06,5.06,0,0,0-5.87,4.09Z"/><circle class="cls-2" cx="364.36" cy="112.76" r="6.75"/><circle class="cls-2" cx="400.59" cy="112.76" r="6.75"/><circle cx="362.15" cy="111.04" r="3.29"/><circle cx="398.49" cy="111.04" r="3.29"/><g class="cls-3"><path class="cls-4" d="M373.46,99.13c-2.88-2.31-8.24-5.85-14.35-4.74-5.33,1-6.8,4.64-6.8,4.64"/></g><g class="cls-5"><path class="cls-4" d="M392.34,99.13c2.88-2.31,8.24-5.85,14.35-4.74,5.33,1,6.8,4.64,6.8,4.64"/></g><path class="cls-6" d="M389.71,133.22s-4.7,3.69-7.43,3.69c-2.58,0-7-3.59-7-3.59s5.4.73,7.21.72S389.71,133.22,389.71,133.22Z"/><path class="cls-7" d="M366.71,147.65c.29-.63,1.43-1.63,3.5-2.54a29.27,29.27,0,0,1,10.56-2.1,22.73,22.73,0,0,1,15.86,6.06s-4.58,11.74-15.81,10.88C372.68,159.32,366.71,147.65,366.71,147.65Z"/><path class="cls-8" d="M381.17,148l-8.25-.37-2.2-.91a28.13,28.13,0,0,1,11.43-2c6.7.36,10.32,2.92,10.32,2.92l-1.71.8Z"/></g></svg>