<svg xmlns="http://www.w3.org/2000/svg" viewBox="0 0 200 200"><defs><style>.cls-1{fill:#fff;}.cls-2,.cls-4{fill:none;stroke-linecap:round;stroke-miterlimit:10;stroke-width:2px;}.cls-2{stroke:#000;}.cls-3{fill:#844f3d;}.cls-4{stroke:#662c34;}.cls-5{fill:#020202;}</style></defs><g id="Calque_10" data-name="Calque 10"><circle class="cls-1" cx="82.49" cy="116.79" r="5.28"/><circle cx="82.46" cy="116.83" r="4"/><path class="cls-2" d="M91,104.2a14.9,14.9,0,0,0-20.16,1.4"/><path class="cls-3" d="M107.21,136.29S102.52,140,99.79,140s-7-3.6-7-3.6,5.4.73,7.21.72S107.21,136.29,107.21,136.29Z"/><path class="cls-4" d="M86.55,151.14a18.63,18.63,0,0,0,13.61,5.52,19,19,0,0,0,13.29-6.49"/><path class="cls-5" d="M73.35,114.68a2.09,2.09,0,0,0,2.88.64c1.77-1.13,3.8-2.75,5.75-2.1,2.66.89,2.55,2.9,5.85,3.28.31,0-.68-6.21-6.07-6.54s-6,4.39-8.41,4.72Z"/><circle class="cls-1" cx="117.51" cy="116.79" r="5.28"/><circle cx="117.54" cy="116.83" r="4"/><path class="cls-2" d="M109,104.2a14.9,14.9,0,0,1,20.16,1.4"/><path class="cls-5" d="M126.65,114.68a2.09,2.09,0,0,1-2.88.64c-1.77-1.13-3.8-2.75-5.75-2.1-2.66.89-2.55,2.9-5.85,3.28-.31,0,.68-6.21,6.07-6.54s6,4.39,8.41,4.72Z"/><path class="cls-1" d="M100,168h0c-5.83,0-21.54-11-21.54-16.86V140.3c0-5.83,15.71-13.82,21.54-13.82h0c5.83,0,21.54,8,21.54,13.82v10.87C121.54,157,105.83,168,100,168Z"/></g></svg>