<svg xmlns="http://www.w3.org/2000/svg" xmlns:xlink="http://www.w3.org/1999/xlink" viewBox="0 0 200 200"><defs><style>.cls-1,.cls-5{fill:none;}.cls-2{fill:#fff;}.cls-3{fill:#080808;}.cls-3,.cls-5{stroke:#000;stroke-miterlimit:10;}.cls-4{clip-path:url(#clip-path);}.cls-5{stroke-linecap:round;stroke-width:2px;}.cls-6{clip-path:url(#clip-path-2);}.cls-7{fill:#844f3d;}.cls-8{fill:#66183f;}.cls-9{fill:#020202;}</style><clipPath id="clip-path"><rect class="cls-1" x="111.31" y="97.45" width="22.15" height="6.68"/></clipPath><clipPath id="clip-path-2"><rect class="cls-1" x="72.02" y="97.45" width="22.15" height="6.68"/></clipPath></defs><g id="Calque_10" data-name="Calque 10"><circle class="cls-2" cx="119.52" cy="114.36" r="6.75"/><circle class="cls-2" cx="84.67" cy="114.36" r="6.75"/><circle class="cls-3" cx="86.75" cy="114.5" r="4"/><circle class="cls-3" cx="121.69" cy="114.5" r="4"/><g class="cls-4"><path class="cls-5" d="M112.31,101.73a14.9,14.9,0,0,1,20.16,1.4"/></g><g class="cls-6"><path class="cls-5" d="M93.18,101.73A14.9,14.9,0,0,0,73,103.13"/></g><path class="cls-7" d="M110.64,136.59s-4.69,3.68-7.42,3.68-7-3.59-7-3.59,5.4.73,7.22.72S110.64,136.59,110.64,136.59Z"/><ellipse class="cls-8" cx="103.05" cy="156.05" rx="2.88" ry="4.5"/><path class="cls-9" d="M76.77,111.7a2.1,2.1,0,0,0,2.88.65c1.78-1.14,3.81-2.76,5.76-2.1,2.66.88,2.55,2.89,5.85,3.27.31,0-.68-6.2-6.07-6.53s-6,4.39-8.42,4.71Z"/><path class="cls-9" d="M127.31,111.18a2.09,2.09,0,0,1-2.88.65c-1.78-1.14-3.81-2.76-5.76-2.1-2.66.88-2.55,2.9-5.85,3.27-.31,0,.68-6.2,6.07-6.53s6,4.39,8.42,4.71Z"/></g></svg>