<?xml version="1.0" encoding="utf-8"?>
<!-- Generator: Adobe Illustrator 26.0.1, SVG Export Plug-In . SVG Version: 6.00 Build 0)  -->
<svg version="1.1" id="Calque_1" xmlns="http://www.w3.org/2000/svg" xmlns:xlink="http://www.w3.org/1999/xlink" x="0px" y="0px"
	 viewBox="0 0 200 200" style="enable-background:new 0 0 200 200;" xml:space="preserve">
<style type="text/css">
	.st0{fill:#FFFFFF;}
	.st1{fill:none;stroke:#000000;stroke-width:2;stroke-linecap:round;stroke-miterlimit:10;}
	.st2{fill:#844F3D;}
	.st3{fill:none;stroke:#662C34;stroke-width:2;stroke-linecap:round;stroke-miterlimit:10;}
	.st4{fill:#020202;}
</style>
<g id="Calque_10">
	<circle class="st0" cx="81.5" cy="116.8" r="5.3"/>
	<circle cx="81.5" cy="116.8" r="4"/>
	<path class="st1" d="M90,104.2c-6.1-4.9-14.8-4.2-20.2,1.4"/>
	<path class="st2" d="M107.2,136.3c0,0-4.7,3.7-7.4,3.7s-7-3.6-7-3.6s5.4,0.7,7.2,0.7S107.2,136.3,107.2,136.3z"/>
	<path class="st3" d="M86.6,151.1c3.6,3.6,8.5,5.6,13.6,5.5c5.1-0.3,9.9-2.6,13.3-6.5"/>
	<path class="st4" d="M72.3,114.7c0.6,1,1.9,1.3,2.9,0.6c1.8-1.1,3.8-2.8,5.8-2.1c2.7,0.9,2.6,2.9,5.8,3.3c0.3,0-0.7-6.2-6.1-6.5
		S74.8,114.3,72.3,114.7z"/>
	<circle class="st0" cx="118.5" cy="116.8" r="5.3"/>
	<circle cx="118.5" cy="116.8" r="4"/>
	<path class="st1" d="M110,104.2c6.1-4.9,14.8-4.2,20.2,1.4"/>
	<path class="st4" d="M127.7,114.7c-0.6,1-1.9,1.3-2.9,0.6c-1.8-1.1-3.8-2.8-5.8-2.1c-2.7,0.9-2.6,2.9-5.8,3.3
		c-0.3,0,0.7-6.2,6.1-6.5S125.2,114.3,127.7,114.7z"/>
	<path class="st0" d="M100,168L100,168c-5.8,0-21.5-11-21.5-16.9v-10.8c0-5.8,15.7-13.8,21.5-13.8l0,0c5.8,0,21.5,8,21.5,13.8v10.9
		C121.5,157,105.8,168,100,168z"/>
</g>
</svg>
