<?xml version="1.0" encoding="utf-8"?>
<!-- Generator: Adobe Illustrator 26.0.1, SVG Export Plug-In . SVG Version: 6.00 Build 0)  -->
<svg version="1.1" id="Calque_1" xmlns="http://www.w3.org/2000/svg" xmlns:xlink="http://www.w3.org/1999/xlink" x="0px" y="0px"
	 viewBox="0 0 788 1005" style="enable-background:new 0 0 788 1005;" xml:space="preserve">
<style type="text/css">
	.st0{fill:#FFFFFF;}
	.st1{fill:#080808;stroke:#000000;stroke-miterlimit:10;}
	.st2{clip-path:url(#SVGID_00000029019931391771105860000013471590161233029766_);}
	.st3{fill:none;stroke:#000000;stroke-width:2;stroke-linecap:round;stroke-miterlimit:10;}
	.st4{clip-path:url(#SVGID_00000020391223296467339520000017716712692406594987_);}
	.st5{fill:#5E3E35;}
	.st6{fill:#66183F;}
	.st7{fill:#020202;}
</style>
<g id="Calque_10">
	<circle class="st0" cx="415.6" cy="244" r="6.8"/>
	<circle class="st0" cx="376.8" cy="244" r="6.8"/>
	<circle class="st1" cx="378.9" cy="244.1" r="4"/>
	<circle class="st1" cx="417.8" cy="244.1" r="4"/>
	<g>
		<defs>
			<rect id="SVGID_1_" x="407.4" y="227.1" width="22.1" height="6.7"/>
		</defs>
		<clipPath id="SVGID_00000165193877093889161830000012404966807948280493_">
			<use xlink:href="#SVGID_1_"  style="overflow:visible;"/>
		</clipPath>
		<g style="clip-path:url(#SVGID_00000165193877093889161830000012404966807948280493_);">
			<path class="st3" d="M408.4,231.4c6.1-4.9,14.8-4.3,20.2,1.4"/>
		</g>
	</g>
	<g>
		<defs>
			<rect id="SVGID_00000109710866981081848000000003490187007808374423_" x="364.1" y="227.1" width="22.1" height="6.7"/>
		</defs>
		<clipPath id="SVGID_00000135658848022663408100000017809458849784495780_">
			<use xlink:href="#SVGID_00000109710866981081848000000003490187007808374423_"  style="overflow:visible;"/>
		</clipPath>
		<g style="clip-path:url(#SVGID_00000135658848022663408100000017809458849784495780_);">
			<path class="st3" d="M385.3,231.4c-6.1-4.9-14.8-4.3-20.2,1.4"/>
		</g>
	</g>
	<path class="st5" d="M404.8,266.2c0,0-4.7,3.7-7.4,3.7s-7-3.6-7-3.6s5.4,0.7,7.2,0.7S404.8,266.2,404.8,266.2z"/>
	<ellipse class="st6" cx="397.2" cy="285.7" rx="2.9" ry="4.5"/>
	<path class="st7" d="M368.9,241.3c0.6,1,1.9,1.3,2.9,0.6c1.8-1.1,3.8-2.8,5.8-2.1c2.7,0.9,2.5,2.9,5.9,3.3c0.3,0-0.7-6.2-6.1-6.5
		S371.3,241,368.9,241.3z"/>
	<path class="st7" d="M423.4,240.8c-0.6,1-1.9,1.3-2.9,0.6c-1.8-1.1-3.8-2.8-5.8-2.1c-2.6,0.9-2.5,2.9-5.9,3.3
		c-0.3,0,0.7-6.2,6.1-6.5S421,240.5,423.4,240.8z"/>
</g>
</svg>
