<?xml version="1.0" encoding="utf-8"?>
<!-- Generator: Adobe Illustrator 26.0.3, SVG Export Plug-In . SVG Version: 6.00 Build 0)  -->
<svg version="1.1" id="Layer_1" xmlns="http://www.w3.org/2000/svg" xmlns:xlink="http://www.w3.org/1999/xlink" x="0px" y="0px"
	 viewBox="0 0 148 115.3" style="enable-background:new 0 0 148 115.3;" xml:space="preserve">
<style type="text/css">
	.st0{fill:none;stroke:#802D31;stroke-width:2;stroke-linecap:round;stroke-miterlimit:10;}
	.st1{clip-path:url(#SVGID_00000094599086482870473500000008477603073625570187_);}
	.st2{fill:none;stroke:#492018;stroke-width:2;stroke-linecap:round;stroke-miterlimit:10;}
	.st3{clip-path:url(#SVGID_00000053518135224292558030000008054103770221492157_);}
	.st4{fill:none;stroke:#7D4030;stroke-width:2;stroke-linecap:round;stroke-miterlimit:10;}
	.st5{fill:#7D4030;}
	
		.st6{clip-path:url(#SVGID_00000181782619756710962450000010683795405527443878_);fill:none;stroke:#7D4030;stroke-width:2;stroke-linecap:round;stroke-miterlimit:10;}
	
		.st7{clip-path:url(#SVGID_00000183214166948593616390000005926047606088247228_);fill:none;stroke:#7D4030;stroke-width:2;stroke-linecap:round;stroke-miterlimit:10;}
	.st8{fill:#FFE4DE;}
	.st9{fill:#0F0F0F;}
	.st10{fill:#282220;}
</style>
<path class="st0" d="M82.8,84.4l-4.4-1.3c-3.2-0.9-6.7-0.9-9.8,0.2l-4.5,1.5"/>
<g id="_Repetition_miroir_">
	<g>
		<g>
			<g>
				<g>
					<defs>
						<rect id="SVGID_1_" x="88.7" y="30.2" width="16.8" height="12.8"/>
					</defs>
					<clipPath id="SVGID_00000011752558079514105110000002557684600358732207_">
						<use xlink:href="#SVGID_1_"  style="overflow:visible;"/>
					</clipPath>
					<g style="clip-path:url(#SVGID_00000011752558079514105110000002557684600358732207_);">
						<path class="st2" d="M89.7,31.4c0,0,5.4-0.5,10.6,5.3c1.7,2,2.5,3,4.2,5.5"/>
					</g>
				</g>
			</g>
		</g>
	</g>
</g>
<g id="_Repetition_miroir_2">
	<g>
		<g>
			<g>
				<g>
					<defs>
						<rect id="SVGID_00000176721874561992226390000017025198021763343023_" x="42.6" y="30.2" width="16.8" height="12.8"/>
					</defs>
					<clipPath id="SVGID_00000160170975440258464160000000071109378412185006_">
						<use xlink:href="#SVGID_00000176721874561992226390000017025198021763343023_"  style="overflow:visible;"/>
					</clipPath>
					<g style="clip-path:url(#SVGID_00000160170975440258464160000000071109378412185006_);">
						<path class="st2" d="M58.3,31.4c0,0-5.4-0.5-10.6,5.3c-1.5,1.7-2.9,3.6-4.2,5.5"/>
					</g>
				</g>
			</g>
		</g>
	</g>
</g>
<path class="st4" d="M66.3,71.8c0,0,5.7,3.4,7.6,3.3c1.9-0.1,7.1-3.3,7.1-3.3"/>
<g>
	<path class="st5" d="M81.1,70.9c0,0-4.7,3.7-7.4,3.7c-2.6,0-7-3.6-7-3.6s5.4,0.7,7.2,0.7C75.7,71.7,81.1,70.9,81.1,70.9z"/>
</g>
<path class="st4" d="M66.2,72.1c0,0,5.7,3.4,7.6,3.3c1.9-0.1,7.1-3.3,7.1-3.3"/>
<g>
	<g>
		<g>
			<g>
				<defs>
					<rect id="SVGID_00000074432155792791445000000014103152847833511091_" x="80.3" y="70.8" width="9.5" height="6.8"/>
				</defs>
				<clipPath id="SVGID_00000036937852842430793600000004109422083664380578_">
					<use xlink:href="#SVGID_00000074432155792791445000000014103152847833511091_"  style="overflow:visible;"/>
				</clipPath>
				
					<path style="clip-path:url(#SVGID_00000036937852842430793600000004109422083664380578_);fill:none;stroke:#7D4030;stroke-width:2;stroke-linecap:round;stroke-miterlimit:10;" d="
					M81.3,71.8c0,0,5.6,3.7,7.5,4.8"/>
			</g>
		</g>
	</g>
</g>
<g>
	<g>
		<g>
			<g>
				<defs>
					<rect id="SVGID_00000131347512045890704740000001647086495538132111_" x="57.7" y="70.8" width="9.5" height="6.8"/>
				</defs>
				<clipPath id="SVGID_00000155843851597685319640000012322384211908786057_">
					<use xlink:href="#SVGID_00000131347512045890704740000001647086495538132111_"  style="overflow:visible;"/>
				</clipPath>
				
					<path style="clip-path:url(#SVGID_00000155843851597685319640000012322384211908786057_);fill:none;stroke:#7D4030;stroke-width:2;stroke-linecap:round;stroke-miterlimit:10;" d="
					M66.2,71.8c0,0-5.6,3.7-7.5,4.8"/>
			</g>
		</g>
	</g>
</g>
<g>
	<g>
		<path class="st8" d="M83.7,49.5l6.5-4.7l6.4,0.1l4.9,4.1c0,0-4,3.8-9.3,3.9c-1.1-0.1-6.5-1-8.7-1.2c-0.4,0-0.5-0.5-0.4-0.9
			L83.7,49.5z"/>
		<g>
			<path class="st9" d="M83,50.8c2.2-6.5,9.1-9.2,15.4-6.7c1.9,0.8,3.7,2.3,5.8,1.6c0.2,0.1,0.1,0.2,0,0.3c-0.2,0.3-0.6,0.8-0.8,1
				c-3.4,4.2-8.8,7.1-14.2,5.6c-1.9-0.4-3.9-0.6-5.8-0.9c3.9,0.2,7.7,1.7,11.6,0.8c3.3-0.8,6.1-3.1,8.3-5.6c0.2-0.3,0.6-0.7,0.8-1
				l0.1-0.1c0,0,0,0.2,0.1,0.1c-2,0.7-4.1-0.8-5.9-1.6C92.2,41.7,85.4,44.4,83,50.8L83,50.8z"/>
		</g>
		<path class="st10" d="M83,50.8c0,0,3.6-4,8.9-4.7c0,0,4-0.8,8.1,4c0,0,3.8-3.4,4.2-4.3c-2.8,1.4-5.3-3-11.8-2.6
			C89.2,43.4,85.2,44.6,83,50.8z"/>
		<ellipse class="st10" cx="91.6" cy="48.8" rx="3.7" ry="4.1"/>
	</g>
	<g>
		<path class="st8" d="M63.9,49.5l-6.5-4.7L51,44.9L46.2,49c0,0,4,3.8,9.3,3.9c1.1-0.1,6.5-1,8.7-1.2c0.4,0,0.5-0.5,0.4-0.9
			L63.9,49.5z"/>
		<g>
			<path class="st9" d="M64.6,50.8c-2.3-6.4-9.1-9.1-15.3-6.5c-1.8,0.8-3.9,2.4-5.9,1.6c0.1,0,0.1-0.1,0.1-0.1l0.1,0.1
				c0.2,0.3,0.6,0.7,0.8,1c3.3,4.2,8.7,7,14.1,5.6c1.9-0.3,3.9-0.6,5.8-0.8c-3.9,0.3-7.7,1.9-11.6,0.9c-3.4-0.8-6.2-3.1-8.4-5.7
				c-0.2-0.3-0.6-0.7-0.8-1c-0.1-0.1-0.2-0.2,0-0.3c2.1,0.7,4-0.7,5.8-1.6C55.4,41.5,62.3,44.3,64.6,50.8L64.6,50.8z"/>
		</g>
		<path class="st10" d="M64.6,50.8c0,0-3.6-4-8.9-4.7c0,0-4-0.8-8.1,4c0,0-3.3-2.6-4.2-4.3c2.8,1.4,5.3-3,11.8-2.6
			C58.4,43.4,62.4,44.6,64.6,50.8z"/>
		<ellipse class="st10" cx="56" cy="48.8" rx="3.7" ry="4.1"/>
	</g>
</g>
</svg>
