<?xml version="1.0" encoding="utf-8"?>
<!-- Generator: Adobe Illustrator 26.0.3, SVG Export Plug-In . SVG Version: 6.00 Build 0)  -->
<svg version="1.1" id="Layer_1" xmlns="http://www.w3.org/2000/svg" xmlns:xlink="http://www.w3.org/1999/xlink" x="0px" y="0px"
	 viewBox="0 0 148 115.3" style="enable-background:new 0 0 148 115.3;" xml:space="preserve">
<style type="text/css">
	.st0{fill:#FFE4DE;}
	.st1{fill:#0F0F0F;}
	.st2{fill:#282220;}
	.st3{clip-path:url(#SVGID_00000051375970551078441730000000965138109147504809_);}
	.st4{fill:none;stroke:#492018;stroke-width:2;stroke-linecap:round;stroke-miterlimit:10;}
	.st5{clip-path:url(#SVGID_00000128450231508186222940000013016284353780447912_);}
	.st6{fill:#E2E2E2;}
	.st7{fill:#D1D1D1;}
</style>
<g>
	<g>
		<path class="st0" d="M83.9,43.8l6.5-4.7l6.4,0.1l4.9,4.1c0,0-4,3.8-9.3,3.9c-1.1-0.1-6.5-1-8.7-1.2c-0.4,0-0.5-0.5-0.4-0.9
			L83.9,43.8z"/>
		<g>
			<path class="st1" d="M83.2,45.1c2.2-6.5,9.1-9.2,15.4-6.7c1.9,0.8,3.7,2.3,5.8,1.6c0.2,0.1,0.1,0.2,0,0.3c-0.2,0.3-0.6,0.8-0.8,1
				c-3.4,4.2-8.8,7.1-14.2,5.6c-1.9-0.4-3.9-0.6-5.8-0.9c3.9,0.2,7.7,1.7,11.6,0.8c3.3-0.8,6.1-3.1,8.3-5.6c0.2-0.3,0.6-0.7,0.8-1
				l0.1-0.1c0,0,0,0.2,0.1,0.1c-2,0.7-4.1-0.8-5.9-1.6C92.4,36,85.6,38.7,83.2,45.1L83.2,45.1z"/>
		</g>
		<path class="st2" d="M83.2,45.1c0,0,3.6-4,8.9-4.7c0,0,4-0.8,8.1,4c0,0,3.8-3.4,4.2-4.3c-2.8,1.4-5.3-3-11.8-2.6
			C89.4,37.7,85.4,38.9,83.2,45.1z"/>
		<ellipse class="st2" cx="91.8" cy="43.1" rx="3.7" ry="4.1"/>
	</g>
	<g>
		<path class="st0" d="M64.1,43.8l-6.5-4.7l-6.4,0.1l-4.8,4.1c0,0,4,3.8,9.3,3.9c1.1-0.1,6.5-1,8.7-1.2c0.4,0,0.5-0.5,0.4-0.9
			L64.1,43.8z"/>
		<g>
			<path class="st1" d="M64.8,45.1c-2.3-6.4-9.1-9.1-15.3-6.5c-1.8,0.8-3.9,2.4-5.9,1.6c0.1,0,0.1-0.1,0.1-0.1l0.1,0.1
				c0.2,0.3,0.6,0.7,0.8,1c3.3,4.2,8.7,7,14.1,5.6c1.9-0.3,3.9-0.6,5.8-0.8c-3.9,0.3-7.7,1.9-11.6,0.9c-3.4-0.8-6.2-3.1-8.4-5.7
				c-0.2-0.3-0.6-0.7-0.8-1c-0.1-0.1-0.2-0.2,0-0.3c2.1,0.7,4-0.7,5.8-1.6C55.6,35.8,62.5,38.6,64.8,45.1L64.8,45.1z"/>
		</g>
		<path class="st2" d="M64.8,45.1c0,0-3.6-4-8.9-4.7c0,0-4-0.8-8.1,4c0,0-3.3-2.6-4.2-4.3c2.8,1.4,5.3-3,11.8-2.6
			C58.6,37.7,62.6,38.9,64.8,45.1z"/>
		<ellipse class="st2" cx="56.2" cy="43.1" rx="3.7" ry="4.1"/>
	</g>
</g>
<g>
	<g>
		<g>
			<g>
				<g>
					<defs>
						<rect id="SVGID_1_" x="85.1" y="25.5" width="20.1" height="6.4"/>
					</defs>
					<clipPath id="SVGID_00000067199248842742272450000014090940626205889157_">
						<use xlink:href="#SVGID_1_"  style="overflow:visible;"/>
					</clipPath>
					<g style="clip-path:url(#SVGID_00000067199248842742272450000014090940626205889157_);">
						<path class="st4" d="M86.1,27.7c0,0,4.5-2.9,11.9,0c2.1,0.9,4.2,1.9,6.2,3.1"/>
					</g>
				</g>
			</g>
		</g>
	</g>
	<g>
		<g>
			<g>
				<g>
					<defs>
						<rect id="SVGID_00000163069562535275121780000012897534984307213976_" x="42.9" y="25.5" width="20.1" height="6.4"/>
					</defs>
					<clipPath id="SVGID_00000023255141347686898090000013090198939520873659_">
						<use xlink:href="#SVGID_00000163069562535275121780000012897534984307213976_"  style="overflow:visible;"/>
					</clipPath>
					<g style="clip-path:url(#SVGID_00000023255141347686898090000013090198939520873659_);">
						<path class="st4" d="M61.9,27.7c0,0-4.5-2.9-11.9,0c-2.1,0.9-4.2,1.9-6.2,3.1"/>
					</g>
				</g>
			</g>
		</g>
	</g>
</g>
<g>
	<path class="st6" d="M48.5,67.2c5.6-3.3,14.9-8,18.9-9.8c1.3-0.6,2.7-1,4.2-1h6.5c1.5,0,3.2,0.4,4.6,1.2l16.7,9.1
		c3.4,1.9,5.3,5.6,4.9,9.4l-0.9,8.7c-0.2,2.3-1.4,4.6-3.2,6.1l-13.6,11.9c-1.8,1.5-4,2.3-6.3,2.3H67.9c-2.3,0-4.4-0.8-6.2-2.3
		L47.1,90.4c-2.1-1.9-3.3-4.4-3.3-7.2v-7.7C43.9,72,45.6,68.9,48.5,67.2z"/>
	<path class="st7" d="M45.4,82.1c2.3-0.6,17.7,5.6,18.9,6.3c1.3,0.6,17.7-0.1,19.2,0c1.5,0.1,14.6-4.4,17.2-5.4
		c2.6-1-0.6,5.7-0.6,5.7l-15,13.6H63.7L48.6,88.6L45.4,82.1z"/>
</g>
</svg>
