<?xml version="1.0" encoding="utf-8"?>
<!-- Generator: Adobe Illustrator 26.0.3, SVG Export Plug-In . SVG Version: 6.00 Build 0)  -->
<svg version="1.1" id="Calque_1" xmlns="http://www.w3.org/2000/svg" xmlns:xlink="http://www.w3.org/1999/xlink" x="0px" y="0px"
	 viewBox="0 0 788 1005.1" style="enable-background:new 0 0 788 1005.1;" xml:space="preserve">
<style type="text/css">
	.st0{fill:#FFE4DE;}
	.st1{fill:#0F0F0F;}
	.st2{fill:#282220;}
	.st3{fill:#7C3838;}
	.st4{fill:#BCBCBC;}
	.st5{clip-path:url(#SVGID_00000136382063923435311630000004978088826958268087_);}
	.st6{fill:none;stroke:#492018;stroke-width:2;stroke-linecap:round;stroke-miterlimit:10;}
	.st7{clip-path:url(#SVGID_00000050647460562031482890000018379638819345524369_);}
	.st8{fill:none;stroke:#7D4030;stroke-width:2;stroke-linecap:round;stroke-miterlimit:10;}
	.st9{fill:#7D4030;}
	
		.st10{clip-path:url(#SVGID_00000116951985823727762800000006063264558042303133_);fill:none;stroke:#7D4030;stroke-width:2;stroke-linecap:round;stroke-miterlimit:10;}
	
		.st11{clip-path:url(#SVGID_00000118360728792685766920000012535311158019003268_);fill:none;stroke:#7D4030;stroke-width:2;stroke-linecap:round;stroke-miterlimit:10;}
</style>
<g>
	<g>
		<path class="st0" d="M382.8,168l6.5-4.7l6.4,0.1l4.9,4.1c0,0-4,3.8-9.3,3.9c-1.1-0.1-6.5-1-8.7-1.2c-0.4,0-0.5-0.5-0.4-0.9
			L382.8,168z"/>
		<g>
			<path class="st1" d="M382.1,169.3c2.2-6.5,9.1-9.2,15.4-6.7c1.9,0.8,3.7,2.3,5.8,1.6c0.2,0.1,0.1,0.2,0,0.3
				c-0.2,0.3-0.6,0.8-0.8,1c-3.4,4.2-8.8,7.1-14.2,5.6c-1.9-0.4-3.9-0.6-5.8-0.9c3.9,0.2,7.7,1.7,11.6,0.8c3.3-0.8,6.1-3.1,8.3-5.6
				c0.2-0.3,0.6-0.7,0.8-1l0.1-0.1c0,0,0,0.2,0.1,0.1c-2,0.7-4.1-0.8-5.9-1.6C391.2,160.2,384.5,162.9,382.1,169.3L382.1,169.3z"/>
		</g>
		<path class="st2" d="M382.1,169.3c0,0,3.6-4,8.9-4.7c0,0,4-0.8,8.1,4c0,0,3.8-3.4,4.2-4.3c-2.8,1.4-5.3-3-11.8-2.6
			C388.2,161.9,384.2,163.1,382.1,169.3z"/>
		<ellipse class="st2" cx="390.6" cy="167.3" rx="3.7" ry="4.1"/>
	</g>
	<g>
		<path class="st0" d="M363,168l-6.5-4.7l-6.4,0.1l-4.8,4.1c0,0,4,3.8,9.3,3.9c1.1-0.1,6.5-1,8.7-1.2c0.4,0,0.5-0.5,0.4-0.9L363,168
			z"/>
		<g>
			<path class="st1" d="M363.6,169.3c-2.3-6.4-9.1-9.1-15.3-6.5c-1.8,0.8-3.9,2.4-5.9,1.6c0.1,0,0.1-0.1,0.1-0.1l0.1,0.1
				c0.2,0.3,0.6,0.7,0.8,1c3.3,4.2,8.7,7,14.1,5.6c1.9-0.3,3.9-0.6,5.8-0.8c-3.9,0.3-7.7,1.9-11.6,0.9c-3.4-0.8-6.2-3.1-8.4-5.7
				c-0.2-0.3-0.6-0.7-0.8-1c-0.1-0.1-0.2-0.2,0-0.3c2.1,0.7,4-0.7,5.8-1.6C354.5,160,361.4,162.8,363.6,169.3L363.6,169.3z"/>
		</g>
		<path class="st2" d="M363.6,169.3c0,0-3.6-4-8.9-4.7c0,0-4-0.8-8.1,4c0,0-3.3-2.6-4.2-4.3c2.8,1.4,5.3-3,11.8-2.6
			C357.5,161.9,361.5,163.1,363.6,169.3z"/>
		<ellipse class="st2" cx="355.1" cy="167.3" rx="3.7" ry="4.1"/>
	</g>
</g>
<path class="st3" d="M359.9,200.5c0.2-0.6,1.2-1.4,3.1-2.2c3-1.2,6.1-1.8,9.3-1.8c5.2-0.1,10.2,1.8,13.9,5.3c0,0-4,10.3-13.9,9.6
	C365.1,210.8,359.9,200.5,359.9,200.5z"/>
<path class="st4" d="M372.6,200.9l-7.2-0.3l-1.9-0.8c3.2-1.3,6.6-1.8,10.1-1.7c5.9,0.3,9.1,2.6,9.1,2.6l-1.5,0.7L372.6,200.9z"/>
<g>
	<g>
		<g>
			<g>
				<g>
					<defs>
						<rect id="SVGID_1_" x="384" y="141.7" width="20.1" height="6.4"/>
					</defs>
					<clipPath id="SVGID_00000042738985917242251890000015394040559929655186_">
						<use xlink:href="#SVGID_1_"  style="overflow:visible;"/>
					</clipPath>
					<g style="clip-path:url(#SVGID_00000042738985917242251890000015394040559929655186_);">
						<path class="st6" d="M385,143.9c0,0,4.5-2.9,11.9,0c2.1,0.9,4.2,1.9,6.2,3.1"/>
					</g>
				</g>
			</g>
		</g>
	</g>
	<g>
		<g>
			<g>
				<g>
					<defs>
						<rect id="SVGID_00000160895832963334515850000015289968554965266838_" x="341.7" y="141.7" width="20.1" height="6.4"/>
					</defs>
					<clipPath id="SVGID_00000074436501329492082780000014444206680711958934_">
						<use xlink:href="#SVGID_00000160895832963334515850000015289968554965266838_"  style="overflow:visible;"/>
					</clipPath>
					<g style="clip-path:url(#SVGID_00000074436501329492082780000014444206680711958934_);">
						<path class="st6" d="M360.7,143.9c0,0-4.5-2.9-11.9,0c-2.1,0.9-4.2,1.9-6.2,3.1"/>
					</g>
				</g>
			</g>
		</g>
	</g>
</g>
<path class="st8" d="M365.8,190.4c0,0,5.7,3.4,7.6,3.3c1.9-0.1,7.1-3.3,7.1-3.3"/>
<g>
	<path class="st9" d="M380.5,189.5c0,0-4.7,3.7-7.4,3.7c-2.6,0-7-3.6-7-3.6s5.4,0.7,7.2,0.7C375.1,190.3,380.5,189.5,380.5,189.5z"
		/>
</g>
<path class="st8" d="M365.6,190.7c0,0,5.7,3.4,7.6,3.3c1.9-0.1,7.1-3.3,7.1-3.3"/>
<g>
	<g>
		<g>
			<g>
				<defs>
					<rect id="SVGID_00000126325799139806772100000009528655988872159673_" x="379.7" y="189.4" width="9.5" height="6.8"/>
				</defs>
				<clipPath id="SVGID_00000171680028744519781370000001161250069390484371_">
					<use xlink:href="#SVGID_00000126325799139806772100000009528655988872159673_"  style="overflow:visible;"/>
				</clipPath>
				
					<path style="clip-path:url(#SVGID_00000171680028744519781370000001161250069390484371_);fill:none;stroke:#7D4030;stroke-width:2;stroke-linecap:round;stroke-miterlimit:10;" d="
					M380.7,190.4c0,0,5.6,3.7,7.5,4.8"/>
			</g>
		</g>
	</g>
</g>
<g>
	<g>
		<g>
			<g>
				<defs>
					<rect id="SVGID_00000049943709826440586320000006956683198368572062_" x="357.1" y="189.4" width="9.5" height="6.8"/>
				</defs>
				<clipPath id="SVGID_00000162351236254873903600000011021961779729252481_">
					<use xlink:href="#SVGID_00000049943709826440586320000006956683198368572062_"  style="overflow:visible;"/>
				</clipPath>
				
					<path style="clip-path:url(#SVGID_00000162351236254873903600000011021961779729252481_);fill:none;stroke:#7D4030;stroke-width:2;stroke-linecap:round;stroke-miterlimit:10;" d="
					M365.6,190.4c0,0-5.6,3.7-7.5,4.8"/>
			</g>
		</g>
	</g>
</g>
</svg>
