<?xml version="1.0" encoding="utf-8"?>
<!-- Generator: Adobe Illustrator 26.0.3, SVG Export Plug-In . SVG Version: 6.00 Build 0)  -->
<svg version="1.1" id="Calque_1" xmlns="http://www.w3.org/2000/svg" xmlns:xlink="http://www.w3.org/1999/xlink" x="0px" y="0px"
	 viewBox="0 0 788 1005.1" style="enable-background:new 0 0 788 1005.1;" xml:space="preserve">
<style type="text/css">
	.st0{fill:#D9D9D9;stroke:#802D31;stroke-width:2;stroke-linecap:round;stroke-miterlimit:10;}
	.st1{clip-path:url(#SVGID_00000063604917583561898780000010306128820867555458_);}
	.st2{fill:none;stroke:#492018;stroke-width:2;stroke-linecap:round;stroke-miterlimit:10;}
	.st3{clip-path:url(#SVGID_00000134928454314521027900000006359152747945934783_);}
	.st4{fill:none;stroke:#7D4030;stroke-width:2;stroke-linecap:round;stroke-miterlimit:10;}
	.st5{fill:#7D4030;}
	
		.st6{clip-path:url(#SVGID_00000095330794651500377360000016667383212460139137_);fill:none;stroke:#7D4030;stroke-width:2;stroke-linecap:round;stroke-miterlimit:10;}
	
		.st7{clip-path:url(#SVGID_00000059290941926694671870000005455391809454022825_);fill:none;stroke:#7D4030;stroke-width:2;stroke-linecap:round;stroke-miterlimit:10;}
	.st8{fill:#FFE4DE;}
	.st9{fill:#0F0F0F;}
	.st10{fill:#282220;}
</style>
<path class="st0" d="M363.4,203l9.4,0.2c4.3,0.1,9.4-0.2,9.4-0.2"/>
<g>
	<g>
		<g>
			<g>
				<defs>
					<rect id="SVGID_1_" x="384" y="151.6" width="20.1" height="6.4"/>
				</defs>
				<clipPath id="SVGID_00000070832473932142746470000009586965921402847884_">
					<use xlink:href="#SVGID_1_"  style="overflow:visible;"/>
				</clipPath>
				<g style="clip-path:url(#SVGID_00000070832473932142746470000009586965921402847884_);">
					<path class="st2" d="M385,153.9c0,0,4.6-2.9,11.9,0c2.1,0.9,4.2,1.9,6.2,3.1"/>
				</g>
			</g>
		</g>
	</g>
</g>
<g>
	<g>
		<g>
			<g>
				<defs>
					<rect id="SVGID_00000047764865512204706720000011930260935962593682_" x="341.6" y="151.6" width="20.1" height="6.4"/>
				</defs>
				<clipPath id="SVGID_00000148637591311105021390000008832595403398723479_">
					<use xlink:href="#SVGID_00000047764865512204706720000011930260935962593682_"  style="overflow:visible;"/>
				</clipPath>
				<g style="clip-path:url(#SVGID_00000148637591311105021390000008832595403398723479_);">
					<path class="st2" d="M360.7,153.9c0,0-4.5-2.9-11.9,0c-2.1,0.9-4.2,1.9-6.2,3.1"/>
				</g>
			</g>
		</g>
	</g>
</g>
<path class="st4" d="M365.8,190.4c0,0,5.7,3.4,7.6,3.3c1.9-0.1,7.1-3.3,7.1-3.3"/>
<g>
	<path class="st5" d="M380.5,189.5c0,0-4.7,3.7-7.4,3.7c-2.6,0-7-3.6-7-3.6s5.4,0.7,7.2,0.7C375.1,190.3,380.5,189.5,380.5,189.5z"
		/>
</g>
<path class="st4" d="M365.6,190.7c0,0,5.7,3.4,7.6,3.3c1.9-0.1,7.1-3.3,7.1-3.3"/>
<g>
	<g>
		<g>
			<g>
				<defs>
					<rect id="SVGID_00000124163399471020956850000001661215950776183690_" x="379.7" y="189.4" width="9.5" height="6.8"/>
				</defs>
				<clipPath id="SVGID_00000045617721585329867190000004073026855725883057_">
					<use xlink:href="#SVGID_00000124163399471020956850000001661215950776183690_"  style="overflow:visible;"/>
				</clipPath>
				
					<path style="clip-path:url(#SVGID_00000045617721585329867190000004073026855725883057_);fill:none;stroke:#7D4030;stroke-width:2;stroke-linecap:round;stroke-miterlimit:10;" d="
					M380.7,190.4c0,0,5.6,3.7,7.5,4.8"/>
			</g>
		</g>
	</g>
</g>
<g>
	<g>
		<g>
			<g>
				<defs>
					<rect id="SVGID_00000018925459831579669640000012523338195497808293_" x="357.1" y="189.4" width="9.5" height="6.8"/>
				</defs>
				<clipPath id="SVGID_00000160884004153434364170000001030120655969772986_">
					<use xlink:href="#SVGID_00000018925459831579669640000012523338195497808293_"  style="overflow:visible;"/>
				</clipPath>
				
					<path style="clip-path:url(#SVGID_00000160884004153434364170000001030120655969772986_);fill:none;stroke:#7D4030;stroke-width:2;stroke-linecap:round;stroke-miterlimit:10;" d="
					M365.6,190.4c0,0-5.6,3.7-7.5,4.8"/>
			</g>
		</g>
	</g>
</g>
<g>
	<g>
		<path class="st8" d="M382.6,168l6.5-4.7l6.4,0.1l4.9,4.1c0,0-4,3.8-9.3,3.9c-1.1-0.1-6.5-1-8.7-1.2c-0.4,0-0.5-0.5-0.4-0.9
			L382.6,168z"/>
		<g>
			<path class="st9" d="M381.9,169.3c2.2-6.5,9.1-9.2,15.4-6.7c1.9,0.8,3.7,2.3,5.8,1.6c0.2,0.1,0.1,0.2,0,0.3
				c-0.2,0.3-0.6,0.8-0.8,1c-3.4,4.2-8.8,7.1-14.2,5.6c-1.9-0.4-3.9-0.6-5.8-0.9c3.9,0.2,7.7,1.7,11.6,0.8c3.3-0.8,6.1-3.1,8.3-5.6
				c0.2-0.3,0.6-0.7,0.8-1l0.1-0.1c0,0,0,0.2,0.1,0.1c-2,0.7-4.1-0.8-5.9-1.6C391.1,160.2,384.3,162.9,381.9,169.3L381.9,169.3z"/>
		</g>
		<path class="st10" d="M381.9,169.3c0,0,3.6-4,8.9-4.7c0,0,4-0.8,8.1,4c0,0,3.8-3.4,4.2-4.3c-2.8,1.4-5.3-3-11.8-2.6
			C388.1,161.9,384.1,163.1,381.9,169.3z"/>
		<ellipse class="st10" cx="390.5" cy="167.3" rx="3.7" ry="4.1"/>
	</g>
	<g>
		<path class="st8" d="M362.8,168l-6.5-4.7l-6.4,0.1l-4.8,4.1c0,0,4,3.8,9.3,3.9c1.1-0.1,6.5-1,8.7-1.2c0.4,0,0.5-0.5,0.4-0.9
			L362.8,168z"/>
		<g>
			<path class="st9" d="M363.5,169.3c-2.3-6.4-9.1-9.1-15.3-6.5c-1.8,0.8-3.9,2.4-5.9,1.6c0.1,0,0.1-0.1,0.1-0.1l0.1,0.1
				c0.2,0.3,0.6,0.7,0.8,1c3.3,4.2,8.7,7,14.1,5.6c1.9-0.3,3.9-0.6,5.8-0.8c-3.9,0.3-7.7,1.9-11.6,0.9c-3.4-0.8-6.2-3.1-8.4-5.7
				c-0.2-0.3-0.6-0.7-0.8-1c-0.1-0.1-0.2-0.2,0-0.3c2.1,0.7,4-0.7,5.8-1.6C354.3,160,361.2,162.8,363.5,169.3L363.5,169.3z"/>
		</g>
		<path class="st10" d="M363.5,169.3c0,0-3.6-4-8.9-4.7c0,0-4-0.8-8.1,4c0,0-3.3-2.6-4.2-4.3c2.8,1.4,5.3-3,11.8-2.6
			C357.3,161.9,361.3,163.1,363.5,169.3z"/>
		<ellipse class="st10" cx="354.9" cy="167.3" rx="3.7" ry="4.1"/>
	</g>
</g>
</svg>
