<?xml version="1.0" encoding="utf-8"?>
<!-- Generator: Adobe Illustrator 26.0.3, SVG Export Plug-In . SVG Version: 6.00 Build 0)  -->
<svg version="1.1" id="Layer_1" xmlns="http://www.w3.org/2000/svg" xmlns:xlink="http://www.w3.org/1999/xlink" x="0px" y="0px"
	 viewBox="0 0 148 115.3" style="enable-background:new 0 0 148 115.3;" xml:space="preserve">
<style type="text/css">
	.st0{fill:#FFE4DE;}
	.st1{fill:#0F0F0F;}
	.st2{fill:#282220;}
	.st3{fill:#7C3838;}
	.st4{fill:#BCBCBC;}
	.st5{clip-path:url(#SVGID_00000054962285332042759450000014746858455102754232_);}
	.st6{fill:none;stroke:#492018;stroke-width:2;stroke-linecap:round;stroke-miterlimit:10;}
	.st7{clip-path:url(#SVGID_00000018916915234631868100000012891567691127264184_);}
	.st8{fill:none;stroke:#7D4030;stroke-width:2;stroke-linecap:round;stroke-miterlimit:10;}
	.st9{fill:#7D4030;}
	
		.st10{clip-path:url(#SVGID_00000058571757012943314860000008281374381881936005_);fill:none;stroke:#7D4030;stroke-width:2;stroke-linecap:round;stroke-miterlimit:10;}
	
		.st11{clip-path:url(#SVGID_00000106148969869012481850000004789862739308222598_);fill:none;stroke:#7D4030;stroke-width:2;stroke-linecap:round;stroke-miterlimit:10;}
</style>
<g>
	<g>
		<path class="st0" d="M83.9,49.4l6.5-4.7l6.4,0.1l4.9,4.1c0,0-4,3.8-9.3,3.9c-1.1-0.1-6.5-1-8.7-1.2c-0.4,0-0.5-0.5-0.4-0.9
			L83.9,49.4z"/>
		<g>
			<path class="st1" d="M83.2,50.7c2.2-6.5,9.1-9.2,15.4-6.7c1.9,0.8,3.7,2.3,5.8,1.6c0.2,0.1,0.1,0.2,0,0.3c-0.2,0.3-0.6,0.8-0.8,1
				c-3.4,4.2-8.8,7.1-14.2,5.6c-1.9-0.4-3.9-0.6-5.8-0.9c3.9,0.2,7.7,1.7,11.6,0.8c3.3-0.8,6.1-3.1,8.3-5.6c0.2-0.3,0.6-0.7,0.8-1
				l0.1-0.1c0,0,0,0.2,0.1,0.1c-2,0.7-4.1-0.8-5.9-1.6C92.4,41.6,85.6,44.3,83.2,50.7L83.2,50.7z"/>
		</g>
		<path class="st2" d="M83.2,50.7c0,0,3.6-4,8.9-4.7c0,0,4-0.8,8.1,4c0,0,3.8-3.4,4.2-4.3c-2.8,1.4-5.3-3-11.8-2.6
			C89.4,43.3,85.4,44.5,83.2,50.7z"/>
		<ellipse class="st2" cx="91.8" cy="48.7" rx="3.7" ry="4.1"/>
	</g>
	<g>
		<path class="st0" d="M64.1,49.4l-6.5-4.7l-6.4,0.1l-4.8,4.1c0,0,4,3.8,9.3,3.9c1.1-0.1,6.5-1,8.7-1.2c0.4,0,0.5-0.5,0.4-0.9
			L64.1,49.4z"/>
		<g>
			<path class="st1" d="M64.8,50.7c-2.3-6.4-9.1-9.1-15.3-6.5c-1.8,0.8-3.9,2.4-5.9,1.6c0.1,0,0.1-0.1,0.1-0.1l0.1,0.1
				c0.2,0.3,0.6,0.7,0.8,1c3.3,4.2,8.7,7,14.1,5.6c1.9-0.3,3.9-0.6,5.8-0.8c-3.9,0.3-7.7,1.9-11.6,0.9c-3.4-0.8-6.2-3.1-8.4-5.7
				c-0.2-0.3-0.6-0.7-0.8-1c-0.1-0.1-0.2-0.2,0-0.3c2.1,0.7,4-0.7,5.8-1.6C55.6,41.4,62.5,44.2,64.8,50.7L64.8,50.7z"/>
		</g>
		<path class="st2" d="M64.8,50.7c0,0-3.6-4-8.9-4.7c0,0-4-0.8-8.1,4c0,0-3.3-2.6-4.2-4.3c2.8,1.4,5.3-3,11.8-2.6
			C58.6,43.3,62.6,44.5,64.8,50.7z"/>
		<ellipse class="st2" cx="56.2" cy="48.7" rx="3.7" ry="4.1"/>
	</g>
</g>
<path class="st3" d="M61,81.9c0.2-0.6,1.2-1.4,3.1-2.2c3-1.2,6.1-1.8,9.3-1.8c5.2-0.1,10.2,1.8,13.9,5.3c0,0-4,10.3-13.9,9.6
	C66.2,92.2,61,81.9,61,81.9z"/>
<path class="st4" d="M73.8,82.3L66.5,82l-1.9-0.8c3.2-1.3,6.6-1.8,10.1-1.7c5.9,0.3,9.1,2.6,9.1,2.6l-1.5,0.7L73.8,82.3z"/>
<g>
	<g>
		<g>
			<g>
				<g>
					<defs>
						<rect id="SVGID_1_" x="85.1" y="23.1" width="20.1" height="6.4"/>
					</defs>
					<clipPath id="SVGID_00000128451903935677733320000018087316010394117511_">
						<use xlink:href="#SVGID_1_"  style="overflow:visible;"/>
					</clipPath>
					<g style="clip-path:url(#SVGID_00000128451903935677733320000018087316010394117511_);">
						<path class="st6" d="M86.1,25.3c0,0,4.5-2.9,11.9,0c2.1,0.9,4.2,1.9,6.2,3.1"/>
					</g>
				</g>
			</g>
		</g>
	</g>
	<g>
		<g>
			<g>
				<g>
					<defs>
						<rect id="SVGID_00000085248776549723633850000014104093653703728035_" x="42.9" y="23.1" width="20.1" height="6.4"/>
					</defs>
					<clipPath id="SVGID_00000106838718824991035770000000366129229219319957_">
						<use xlink:href="#SVGID_00000085248776549723633850000014104093653703728035_"  style="overflow:visible;"/>
					</clipPath>
					<g style="clip-path:url(#SVGID_00000106838718824991035770000000366129229219319957_);">
						<path class="st6" d="M61.9,25.3c0,0-4.5-2.9-11.9,0c-2.1,0.9-4.2,1.9-6.2,3.1"/>
					</g>
				</g>
			</g>
		</g>
	</g>
</g>
<path class="st8" d="M66.9,71.8c0,0,5.7,3.4,7.6,3.3c1.9-0.1,7.1-3.3,7.1-3.3"/>
<g>
	<path class="st9" d="M81.6,70.9c0,0-4.7,3.7-7.4,3.7c-2.6,0-7-3.6-7-3.6s5.4,0.7,7.2,0.7C76.2,71.8,81.6,70.9,81.6,70.9z"/>
</g>
<path class="st8" d="M66.8,72.1c0,0,5.7,3.4,7.6,3.3c1.9-0.1,7.1-3.3,7.1-3.3"/>
<g>
	<g>
		<g>
			<g>
				<defs>
					<rect id="SVGID_00000072995875956062279940000009450082450741101502_" x="80.9" y="70.8" width="9.5" height="6.8"/>
				</defs>
				<clipPath id="SVGID_00000030474381661746789220000009795442386474579634_">
					<use xlink:href="#SVGID_00000072995875956062279940000009450082450741101502_"  style="overflow:visible;"/>
				</clipPath>
				
					<path style="clip-path:url(#SVGID_00000030474381661746789220000009795442386474579634_);fill:none;stroke:#7D4030;stroke-width:2;stroke-linecap:round;stroke-miterlimit:10;" d="
					M81.9,71.8c0,0,5.6,3.7,7.5,4.8"/>
			</g>
		</g>
	</g>
</g>
<g>
	<g>
		<g>
			<g>
				<defs>
					<rect id="SVGID_00000002376532937245165490000007998686114600202930_" x="58.2" y="70.8" width="9.5" height="6.8"/>
				</defs>
				<clipPath id="SVGID_00000015329693963186430800000015729178841406160794_">
					<use xlink:href="#SVGID_00000002376532937245165490000007998686114600202930_"  style="overflow:visible;"/>
				</clipPath>
				
					<path style="clip-path:url(#SVGID_00000015329693963186430800000015729178841406160794_);fill:none;stroke:#7D4030;stroke-width:2;stroke-linecap:round;stroke-miterlimit:10;" d="
					M66.8,71.8c0,0-5.6,3.7-7.5,4.8"/>
			</g>
		</g>
	</g>
</g>
</svg>
