<?xml version="1.0" encoding="utf-8"?>
<!-- Generator: Adobe Illustrator 26.0.3, SVG Export Plug-In . SVG Version: 6.00 Build 0)  -->
<svg version="1.1" id="Calque_6" xmlns="http://www.w3.org/2000/svg" xmlns:xlink="http://www.w3.org/1999/xlink" x="0px" y="0px"
	 viewBox="0 0 148 115.3" style="enable-background:new 0 0 148 115.3;" xml:space="preserve">
<style type="text/css">
	.st0{fill:none;stroke:#802D31;stroke-width:2;stroke-linecap:round;stroke-miterlimit:10;}
	.st1{clip-path:url(#SVGID_00000105384624941707132010000003958180766783452327_);}
	.st2{fill:none;stroke:#492018;stroke-width:2;stroke-linecap:round;stroke-miterlimit:10;}
	.st3{clip-path:url(#SVGID_00000160882760413135175900000016262617186288108210_);}
	.st4{fill:none;stroke:#7D4030;stroke-width:2;stroke-linecap:round;stroke-miterlimit:10;}
	.st5{fill:#7D4030;}
	
		.st6{clip-path:url(#SVGID_00000052816020714309767530000001560601606564849295_);fill:none;stroke:#7D4030;stroke-width:2;stroke-linecap:round;stroke-miterlimit:10;}
	
		.st7{clip-path:url(#SVGID_00000088813333605482680230000013556424119356882315_);fill:none;stroke:#7D4030;stroke-width:2;stroke-linecap:round;stroke-miterlimit:10;}
</style>
<path class="st0" d="M64.7,81.6c0,0,5.7,4.4,9.4,3.9c2.8-0.4,9.3-4.1,9.3-4.1"/>
<path class="st0" d="M83.3,81.4l-9.3,2.8c-2.9,0.5-6.4-2.1-9.4-3"/>
<g>
	<g>
		<g>
			<g>
				<defs>
					<rect id="SVGID_1_" x="85.2" y="30" width="20.1" height="6.4"/>
				</defs>
				<clipPath id="SVGID_00000016071621470223752770000013245190801176446599_">
					<use xlink:href="#SVGID_1_"  style="overflow:visible;"/>
				</clipPath>
				<g style="clip-path:url(#SVGID_00000016071621470223752770000013245190801176446599_);">
					<path class="st2" d="M86.2,32.3c0,0,4.6-2.9,11.9,0c2.1,0.9,4.2,1.9,6.2,3.1"/>
				</g>
			</g>
		</g>
	</g>
</g>
<g>
	<g>
		<g>
			<g>
				<defs>
					<rect id="SVGID_00000051364785547705083250000000868999950268308913_" x="42.8" y="30" width="20.1" height="6.4"/>
				</defs>
				<clipPath id="SVGID_00000128476663358174911010000005214174053061491344_">
					<use xlink:href="#SVGID_00000051364785547705083250000000868999950268308913_"  style="overflow:visible;"/>
				</clipPath>
				<g style="clip-path:url(#SVGID_00000128476663358174911010000005214174053061491344_);">
					<path class="st2" d="M61.8,32.3c0,0-4.5-2.9-11.9,0c-2.1,0.9-4.2,1.9-6.2,3.1"/>
				</g>
			</g>
		</g>
	</g>
</g>
<path d="M104.3,44.1c-0.7,0.9-1.9,1.1-2.9,0.6c-1.8-1-7-1.1-9-0.5c-2.7,0.8-5.8,1.9-6.7,0.4c-0.1-0.3,1.5-2.9,6.9-3.2
	S101.8,43.9,104.3,44.1L104.3,44.1z"/>
<path d="M44.6,45.2c0.7,0.9,1.9,1.1,2.9,0.6c1.8-1,7-1.1,9-0.5c2.7,0.8,5.8,1.9,6.7,0.3c0.1-0.3-1.5-2.9-6.9-3.2S47.1,45,44.6,45.2z
	"/>
<path class="st4" d="M66.8,68.6c0,0,5.7,3.4,7.6,3.3c1.9-0.1,7.1-3.3,7.1-3.3"/>
<g>
	<path class="st5" d="M81.6,67.7c0,0-4.7,3.7-7.4,3.7c-2.6,0-7-3.6-7-3.6s5.4,0.7,7.2,0.7C76.2,68.5,81.6,67.7,81.6,67.7z"/>
</g>
<path class="st4" d="M66.7,68.9c0,0,5.7,3.4,7.6,3.3c1.9-0.1,7.1-3.3,7.1-3.3"/>
<g>
	<g>
		<g>
			<g>
				<defs>
					<rect id="SVGID_00000029733806843737703030000014254275921875374221_" x="80.8" y="67.6" width="9.5" height="6.8"/>
				</defs>
				<clipPath id="SVGID_00000157275603905025379500000008058715383521581987_">
					<use xlink:href="#SVGID_00000029733806843737703030000014254275921875374221_"  style="overflow:visible;"/>
				</clipPath>
				
					<path style="clip-path:url(#SVGID_00000157275603905025379500000008058715383521581987_);fill:none;stroke:#7D4030;stroke-width:2;stroke-linecap:round;stroke-miterlimit:10;" d="
					M81.8,68.6c0,0,5.6,3.7,7.5,4.8"/>
			</g>
		</g>
	</g>
</g>
<g>
	<g>
		<g>
			<g>
				<defs>
					<rect id="SVGID_00000052079654304771772860000002852584984966869639_" x="58.2" y="67.6" width="9.5" height="6.8"/>
				</defs>
				<clipPath id="SVGID_00000165218639095052805440000018094804867658769280_">
					<use xlink:href="#SVGID_00000052079654304771772860000002852584984966869639_"  style="overflow:visible;"/>
				</clipPath>
				
					<path style="clip-path:url(#SVGID_00000165218639095052805440000018094804867658769280_);fill:none;stroke:#7D4030;stroke-width:2;stroke-linecap:round;stroke-miterlimit:10;" d="
					M66.7,68.6c0,0-5.6,3.7-7.5,4.8"/>
			</g>
		</g>
	</g>
</g>
</svg>
