<?xml version="1.0" encoding="utf-8"?>
<!-- Generator: Adobe Illustrator 26.0.3, SVG Export Plug-In . SVG Version: 6.00 Build 0)  -->
<svg version="1.1" id="Calque_1" xmlns="http://www.w3.org/2000/svg" xmlns:xlink="http://www.w3.org/1999/xlink" x="0px" y="0px"
	 viewBox="0 0 788 1005.1" style="enable-background:new 0 0 788 1005.1;" xml:space="preserve">
<style type="text/css">
	.st0{fill:none;stroke:#802D31;stroke-width:2;stroke-linecap:round;stroke-miterlimit:10;}
	.st1{clip-path:url(#SVGID_00000074421813221905454010000013242601808090984370_);}
	.st2{fill:none;stroke:#492018;stroke-width:2;stroke-linecap:round;stroke-miterlimit:10;}
	.st3{clip-path:url(#SVGID_00000140708798576497898420000009931976831548716176_);}
	.st4{fill:none;stroke:#7D4030;stroke-width:2;stroke-linecap:round;stroke-miterlimit:10;}
	.st5{fill:#7D4030;}
	
		.st6{clip-path:url(#SVGID_00000177444571975073908620000013409723643280267452_);fill:none;stroke:#7D4030;stroke-width:2;stroke-linecap:round;stroke-miterlimit:10;}
	
		.st7{clip-path:url(#SVGID_00000161621185707558320850000006302578310284998555_);fill:none;stroke:#7D4030;stroke-width:2;stroke-linecap:round;stroke-miterlimit:10;}
	.st8{fill:#FFE4DE;}
	.st9{fill:#0F0F0F;}
	.st10{fill:#282220;}
</style>
<path class="st0" d="M382.2,203l-4.4-1.3c-3.2-0.9-6.7-0.9-9.8,0.2l-4.5,1.5"/>
<g id="_Repetition_miroir_">
	<g>
		<g>
			<g>
				<g>
					<defs>
						<rect id="SVGID_1_" x="388.1" y="148.9" width="16.8" height="12.8"/>
					</defs>
					<clipPath id="SVGID_00000010989800553169970670000009461451398916194746_">
						<use xlink:href="#SVGID_1_"  style="overflow:visible;"/>
					</clipPath>
					<g style="clip-path:url(#SVGID_00000010989800553169970670000009461451398916194746_);">
						<path class="st2" d="M389.1,150c0,0,5.4-0.5,10.6,5.3c1.7,2,2.5,3,4.2,5.5"/>
					</g>
				</g>
			</g>
		</g>
	</g>
</g>
<g id="_Repetition_miroir_2">
	<g>
		<g>
			<g>
				<g>
					<defs>
						<rect id="SVGID_00000122701781960189671190000018151703889342484889_" x="342" y="148.9" width="16.8" height="12.8"/>
					</defs>
					<clipPath id="SVGID_00000024688628163264662130000017735153026464600251_">
						<use xlink:href="#SVGID_00000122701781960189671190000018151703889342484889_"  style="overflow:visible;"/>
					</clipPath>
					<g style="clip-path:url(#SVGID_00000024688628163264662130000017735153026464600251_);">
						<path class="st2" d="M357.8,150c0,0-5.4-0.5-10.6,5.3c-1.5,1.7-2.9,3.6-4.2,5.5"/>
					</g>
				</g>
			</g>
		</g>
	</g>
</g>
<path class="st4" d="M365.8,190.4c0,0,5.7,3.4,7.6,3.3c1.9-0.1,7.1-3.3,7.1-3.3"/>
<g>
	<path class="st5" d="M380.5,189.5c0,0-4.7,3.7-7.4,3.7c-2.6,0-7-3.6-7-3.6s5.4,0.7,7.2,0.7C375.1,190.3,380.5,189.5,380.5,189.5z"
		/>
</g>
<path class="st4" d="M365.6,190.7c0,0,5.7,3.4,7.6,3.3c1.9-0.1,7.1-3.3,7.1-3.3"/>
<g>
	<g>
		<g>
			<g>
				<defs>
					<rect id="SVGID_00000113336006465434008970000017839889992046111415_" x="379.7" y="189.4" width="9.5" height="6.8"/>
				</defs>
				<clipPath id="SVGID_00000036941359226688373130000000206636246483812254_">
					<use xlink:href="#SVGID_00000113336006465434008970000017839889992046111415_"  style="overflow:visible;"/>
				</clipPath>
				
					<path style="clip-path:url(#SVGID_00000036941359226688373130000000206636246483812254_);fill:none;stroke:#7D4030;stroke-width:2;stroke-linecap:round;stroke-miterlimit:10;" d="
					M380.7,190.4c0,0,5.6,3.7,7.5,4.8"/>
			</g>
		</g>
	</g>
</g>
<g>
	<g>
		<g>
			<g>
				<defs>
					<rect id="SVGID_00000017516058972334955460000017240212506375223706_" x="357.1" y="189.4" width="9.5" height="6.8"/>
				</defs>
				<clipPath id="SVGID_00000057117312154007557480000006152911925115863205_">
					<use xlink:href="#SVGID_00000017516058972334955460000017240212506375223706_"  style="overflow:visible;"/>
				</clipPath>
				
					<path style="clip-path:url(#SVGID_00000057117312154007557480000006152911925115863205_);fill:none;stroke:#7D4030;stroke-width:2;stroke-linecap:round;stroke-miterlimit:10;" d="
					M365.6,190.4c0,0-5.6,3.7-7.5,4.8"/>
			</g>
		</g>
	</g>
</g>
<g>
	<g>
		<path class="st8" d="M383.1,168.1l6.5-4.7l6.4,0.1l4.9,4.1c0,0-4,3.8-9.3,3.9c-1.1-0.1-6.5-1-8.7-1.2c-0.4,0-0.5-0.5-0.4-0.9
			L383.1,168.1z"/>
		<g>
			<path class="st9" d="M382.5,169.4c2.2-6.5,9.1-9.2,15.4-6.7c1.9,0.8,3.7,2.3,5.8,1.6c0.2,0.1,0.1,0.2,0,0.3
				c-0.2,0.3-0.6,0.8-0.8,1c-3.4,4.2-8.8,7.1-14.2,5.6c-1.9-0.4-3.9-0.6-5.8-0.9c3.9,0.2,7.7,1.7,11.6,0.8c3.3-0.8,6.1-3.1,8.3-5.6
				c0.2-0.3,0.6-0.7,0.8-1l0.1-0.1c0,0,0,0.2,0.1,0.1c-2,0.7-4.1-0.8-5.9-1.6C391.6,160.3,384.9,163,382.5,169.4L382.5,169.4z"/>
		</g>
		<path class="st10" d="M382.5,169.4c0,0,3.6-4,8.9-4.7c0,0,4-0.8,8.1,4c0,0,3.8-3.4,4.2-4.3c-2.8,1.4-5.3-3-11.8-2.6
			C388.6,162,384.6,163.2,382.5,169.4z"/>
		<ellipse class="st10" cx="391" cy="167.4" rx="3.7" ry="4.1"/>
	</g>
	<g>
		<path class="st8" d="M363.4,168.1l-6.5-4.7l-6.4,0.1l-4.8,4.1c0,0,4,3.8,9.3,3.9c1.1-0.1,6.5-1,8.7-1.2c0.4,0,0.5-0.5,0.4-0.9
			L363.4,168.1z"/>
		<g>
			<path class="st9" d="M364,169.4c-2.3-6.4-9.1-9.1-15.3-6.5c-1.8,0.8-3.9,2.4-5.9,1.6c0.1,0,0.1-0.1,0.1-0.1l0.1,0.1
				c0.2,0.3,0.6,0.7,0.8,1c3.3,4.2,8.7,7,14.1,5.6c1.9-0.3,3.9-0.6,5.8-0.8c-3.9,0.3-7.7,1.9-11.6,0.9c-3.4-0.8-6.2-3.1-8.4-5.7
				c-0.2-0.3-0.6-0.7-0.8-1c-0.1-0.1-0.2-0.2,0-0.3c2.1,0.7,4-0.7,5.8-1.6C354.9,160.1,361.8,162.9,364,169.4L364,169.4z"/>
		</g>
		<path class="st10" d="M364,169.4c0,0-3.6-4-8.9-4.7c0,0-4-0.8-8.1,4c0,0-3.3-2.6-4.2-4.3c2.8,1.4,5.3-3,11.8-2.6
			C357.9,162,361.9,163.2,364,169.4z"/>
		<ellipse class="st10" cx="355.5" cy="167.4" rx="3.7" ry="4.1"/>
	</g>
</g>
</svg>
