<?xml version="1.0" encoding="utf-8"?>
<!-- Generator: Adobe Illustrator 26.0.3, SVG Export Plug-In . SVG Version: 6.00 Build 0)  -->
<svg version="1.1" id="Calque_1" xmlns="http://www.w3.org/2000/svg" xmlns:xlink="http://www.w3.org/1999/xlink" x="0px" y="0px"
	 viewBox="0 0 788 1005.1" style="enable-background:new 0 0 788 1005.1;" xml:space="preserve">
<style type="text/css">
	.st0{fill:#FFE4DE;}
	.st1{fill:#0F0F0F;}
	.st2{fill:#282220;}
	.st3{clip-path:url(#SVGID_00000138557780545085598760000008771929561353551242_);}
	.st4{fill:none;stroke:#492018;stroke-width:2;stroke-linecap:round;stroke-miterlimit:10;}
	.st5{clip-path:url(#SVGID_00000032628915688633931470000014752784375588574093_);}
	.st6{fill:#E2E2E2;}
	.st7{fill:#D1D1D1;}
</style>
<g>
	<g>
		<path class="st0" d="M382.5,167.7l6.5-4.7l6.4,0.1l4.9,4.1c0,0-4,3.8-9.3,3.9c-1.1-0.1-6.5-1-8.7-1.2c-0.4,0-0.5-0.5-0.4-0.9
			L382.5,167.7z"/>
		<g>
			<path class="st1" d="M381.9,169c2.2-6.5,9.1-9.2,15.4-6.7c1.9,0.8,3.7,2.3,5.8,1.6c0.2,0.1,0.1,0.2,0,0.3c-0.2,0.3-0.6,0.8-0.8,1
				c-3.4,4.2-8.8,7.1-14.2,5.6c-1.9-0.4-3.9-0.6-5.8-0.9c3.9,0.2,7.7,1.7,11.6,0.8c3.3-0.8,6.1-3.1,8.3-5.6c0.2-0.3,0.6-0.7,0.8-1
				l0.1-0.1c0,0,0,0.2,0.1,0.1c-2,0.7-4.1-0.8-5.9-1.6C391,159.9,384.2,162.6,381.9,169L381.9,169z"/>
		</g>
		<path class="st2" d="M381.9,169c0,0,3.6-4,8.9-4.7c0,0,4-0.8,8.1,4c0,0,3.8-3.4,4.2-4.3c-2.8,1.4-5.3-3-11.8-2.6
			C388,161.6,384,162.8,381.9,169z"/>
		<ellipse class="st2" cx="390.4" cy="167" rx="3.7" ry="4.1"/>
	</g>
	<g>
		<path class="st0" d="M362.8,167.7l-6.5-4.7l-6.4,0.1l-4.8,4.1c0,0,4,3.8,9.3,3.9c1.1-0.1,6.5-1,8.7-1.2c0.4,0,0.5-0.5,0.4-0.9
			L362.8,167.7z"/>
		<g>
			<path class="st1" d="M363.4,169c-2.3-6.4-9.1-9.1-15.3-6.5c-1.8,0.8-3.9,2.4-5.9,1.6c0.1,0,0.1-0.1,0.1-0.1l0.1,0.1
				c0.2,0.3,0.6,0.7,0.8,1c3.3,4.2,8.7,7,14.1,5.6c1.9-0.3,3.9-0.6,5.8-0.8c-3.9,0.3-7.7,1.9-11.6,0.9c-3.4-0.8-6.2-3.1-8.4-5.7
				c-0.2-0.3-0.6-0.7-0.8-1c-0.1-0.1-0.2-0.2,0-0.3c2.1,0.7,4-0.7,5.8-1.6C354.2,159.7,361.1,162.5,363.4,169L363.4,169z"/>
		</g>
		<path class="st2" d="M363.4,169c0,0-3.6-4-8.9-4.7c0,0-4-0.8-8.1,4c0,0-3.3-2.6-4.2-4.3c2.8,1.4,5.3-3,11.8-2.6
			C357.2,161.6,361.2,162.8,363.4,169z"/>
		<ellipse class="st2" cx="354.9" cy="167" rx="3.7" ry="4.1"/>
	</g>
</g>
<g>
	<g>
		<g>
			<g>
				<g>
					<defs>
						<rect id="SVGID_1_" x="383.8" y="149.4" width="20.1" height="6.4"/>
					</defs>
					<clipPath id="SVGID_00000183954666058682175930000000869471699774560950_">
						<use xlink:href="#SVGID_1_"  style="overflow:visible;"/>
					</clipPath>
					<g style="clip-path:url(#SVGID_00000183954666058682175930000000869471699774560950_);">
						<path class="st4" d="M384.8,151.6c0,0,4.5-2.9,11.9,0c2.1,0.9,4.2,1.9,6.2,3.1"/>
					</g>
				</g>
			</g>
		</g>
	</g>
	<g>
		<g>
			<g>
				<g>
					<defs>
						<rect id="SVGID_00000085215778851587679570000014137223321963856567_" x="341.5" y="149.4" width="20.1" height="6.4"/>
					</defs>
					<clipPath id="SVGID_00000098908656408218251390000005106502079940880022_">
						<use xlink:href="#SVGID_00000085215778851587679570000014137223321963856567_"  style="overflow:visible;"/>
					</clipPath>
					<g style="clip-path:url(#SVGID_00000098908656408218251390000005106502079940880022_);">
						<path class="st4" d="M360.5,151.6c0,0-4.5-2.9-11.9,0c-2.1,0.9-4.2,1.9-6.2,3.1"/>
					</g>
				</g>
			</g>
		</g>
	</g>
</g>
<g>
	<path class="st6" d="M347.2,191.1c5.6-3.3,14.9-8,18.9-9.8c1.3-0.6,2.7-1,4.2-1h6.5c1.5,0,3.2,0.4,4.6,1.2l16.7,9.1
		c3.4,1.9,5.3,5.6,4.9,9.4l-0.9,8.7c-0.2,2.3-1.4,4.6-3.2,6.1l-13.6,11.9c-1.8,1.5-4,2.3-6.3,2.3h-12.4c-2.3,0-4.4-0.8-6.2-2.3
		l-14.6-12.5c-2.1-1.9-3.3-4.4-3.3-7.2v-7.7C342.5,195.9,344.3,192.8,347.2,191.1z"/>
	<path class="st7" d="M344,206c2.3-0.6,17.7,5.6,18.9,6.3c1.3,0.6,17.7-0.1,19.2,0c1.5,0.1,14.6-4.4,17.2-5.4c2.6-1-0.6,5.7-0.6,5.7
		l-15,13.6h-21.3l-15.1-13.6L344,206z"/>
</g>
</svg>
