<?xml version="1.0" encoding="utf-8"?>
<!-- Generator: Adobe Illustrator 26.0.3, SVG Export Plug-In . SVG Version: 6.00 Build 0)  -->
<svg version="1.1" id="Calque_6" xmlns="http://www.w3.org/2000/svg" xmlns:xlink="http://www.w3.org/1999/xlink" x="0px" y="0px"
	 viewBox="0 0 788 1005.1" style="enable-background:new 0 0 788 1005.1;" xml:space="preserve">
<style type="text/css">
	.st0{fill:none;stroke:#802D31;stroke-width:2;stroke-linecap:round;stroke-miterlimit:10;}
	.st1{clip-path:url(#SVGID_00000066498786687151184460000001595848949271515314_);}
	.st2{fill:none;stroke:#492018;stroke-width:2;stroke-linecap:round;stroke-miterlimit:10;}
	.st3{clip-path:url(#SVGID_00000182528887109066918670000002761393650491197629_);}
	.st4{fill:none;stroke:#7D4030;stroke-width:2;stroke-linecap:round;stroke-miterlimit:10;}
	.st5{fill:#7D4030;}
	
		.st6{clip-path:url(#SVGID_00000146501192079031220420000010199465664000147598_);fill:none;stroke:#7D4030;stroke-width:2;stroke-linecap:round;stroke-miterlimit:10;}
	
		.st7{clip-path:url(#SVGID_00000034053834157795718640000011519165926511263654_);fill:none;stroke:#7D4030;stroke-width:2;stroke-linecap:round;stroke-miterlimit:10;}
</style>
<path class="st0" d="M363.6,203.4c0,0,5.7,4.4,9.4,3.9c2.8-0.4,9.3-4.1,9.3-4.1"/>
<path class="st0" d="M382.3,203.2L373,206c-2.9,0.5-6.4-2.1-9.4-3"/>
<g>
	<g>
		<g>
			<g>
				<defs>
					<rect id="SVGID_1_" x="384.1" y="151.8" width="20.1" height="6.4"/>
				</defs>
				<clipPath id="SVGID_00000099663166351844408760000017203776789124956806_">
					<use xlink:href="#SVGID_1_"  style="overflow:visible;"/>
				</clipPath>
				<g style="clip-path:url(#SVGID_00000099663166351844408760000017203776789124956806_);">
					<path class="st2" d="M385.1,154.1c0,0,4.6-2.9,11.9,0c2.1,0.9,4.2,1.9,6.2,3.1"/>
				</g>
			</g>
		</g>
	</g>
</g>
<g>
	<g>
		<g>
			<g>
				<defs>
					<rect id="SVGID_00000061443174077278168000000000154924585594168756_" x="341.7" y="151.8" width="20.1" height="6.4"/>
				</defs>
				<clipPath id="SVGID_00000054984851843338606010000004682446390385006229_">
					<use xlink:href="#SVGID_00000061443174077278168000000000154924585594168756_"  style="overflow:visible;"/>
				</clipPath>
				<g style="clip-path:url(#SVGID_00000054984851843338606010000004682446390385006229_);">
					<path class="st2" d="M360.8,154.1c0,0-4.5-2.9-11.9,0c-2.1,0.9-4.2,1.9-6.2,3.1"/>
				</g>
			</g>
		</g>
	</g>
</g>
<path d="M403.3,165.9c-0.7,0.9-1.9,1.1-2.9,0.6c-1.8-1-7-1.1-9-0.5c-2.7,0.8-5.8,1.9-6.7,0.4c-0.1-0.3,1.5-2.9,6.9-3.2
	S400.8,165.7,403.3,165.9L403.3,165.9z"/>
<path d="M343.5,167c0.7,0.9,1.9,1.1,2.9,0.6c1.8-1,7-1.1,9-0.5c2.7,0.8,5.8,1.9,6.7,0.3c0.1-0.3-1.5-2.9-6.9-3.2
	S346,166.8,343.5,167z"/>
<path class="st4" d="M365.8,190.4c0,0,5.7,3.4,7.6,3.3c1.9-0.1,7.1-3.3,7.1-3.3"/>
<g>
	<path class="st5" d="M380.5,189.5c0,0-4.7,3.7-7.4,3.7c-2.6,0-7-3.6-7-3.6s5.4,0.7,7.2,0.7C375.1,190.3,380.5,189.5,380.5,189.5z"
		/>
</g>
<path class="st4" d="M365.6,190.7c0,0,5.7,3.4,7.6,3.3c1.9-0.1,7.1-3.3,7.1-3.3"/>
<g>
	<g>
		<g>
			<g>
				<defs>
					<rect id="SVGID_00000056396043526276958840000013894711269853506185_" x="379.7" y="189.4" width="9.5" height="6.8"/>
				</defs>
				<clipPath id="SVGID_00000096049505821422671820000011220377401097679749_">
					<use xlink:href="#SVGID_00000056396043526276958840000013894711269853506185_"  style="overflow:visible;"/>
				</clipPath>
				
					<path style="clip-path:url(#SVGID_00000096049505821422671820000011220377401097679749_);fill:none;stroke:#7D4030;stroke-width:2;stroke-linecap:round;stroke-miterlimit:10;" d="
					M380.7,190.4c0,0,5.6,3.7,7.5,4.8"/>
			</g>
		</g>
	</g>
</g>
<g>
	<g>
		<g>
			<g>
				<defs>
					<rect id="SVGID_00000152983858262794727360000010324269405940939454_" x="357.1" y="189.4" width="9.5" height="6.8"/>
				</defs>
				<clipPath id="SVGID_00000146493501771571379350000009770338694018022273_">
					<use xlink:href="#SVGID_00000152983858262794727360000010324269405940939454_"  style="overflow:visible;"/>
				</clipPath>
				
					<path style="clip-path:url(#SVGID_00000146493501771571379350000009770338694018022273_);fill:none;stroke:#7D4030;stroke-width:2;stroke-linecap:round;stroke-miterlimit:10;" d="
					M365.6,190.4c0,0-5.6,3.7-7.5,4.8"/>
			</g>
		</g>
	</g>
</g>
</svg>
