<svg id="Calque_1" data-name="Calque 1" xmlns="http://www.w3.org/2000/svg" xmlns:xlink="http://www.w3.org/1999/xlink" viewBox="0 0 788 1005"><defs><style>.cls-1{fill:none;}.cls-2{fill:#e2ab81;}.cls-3{clip-path:url(#clip-path);}.cls-4{fill:#b8775c;}.cls-5{clip-path:url(#clip-path-2);}.cls-6{fill:#d48f72;}</style><clipPath id="clip-path"><polygon class="cls-1" points="429.72 177.02 429.72 177.02 446.06 177.02 446.06 209.96 429.72 209.96 429.72 177.02"/></clipPath><clipPath id="clip-path-2"><polygon class="cls-1" points="358.28 177.02 358.28 177.02 341.94 177.02 341.94 209.96 358.28 209.96 358.28 177.02"/></clipPath></defs><path class="cls-2" d="M446.78,194.48c0,41-22.9,29.83-52.47,29.83s-54.6,11.15-54.6-29.83,0-58.41,54.29-58.55C443,135.8,446.78,153.5,446.78,194.48Z"/><g class="cls-3"><path class="cls-4" d="M429.72,210l3-28.25s6.56-7.84,12.25-3.25c3.78,3-3.13,28.22-7.5,29.5C430,210.14,429.72,210,429.72,210Z"/></g><g class="cls-5"><path class="cls-4" d="M358.28,210l-3-28.25s-6.56-7.84-12.25-3.25c-3.78,3,3.13,28.22,7.5,29.5C358,210.14,358.28,210,358.28,210Z"/></g><path class="cls-6" d="M383.24,254.94l-22.63-24.42-5.5-27-1.5-24.2v-6.34A38.91,38.91,0,0,1,392.53,134H394a38.92,38.92,0,0,1,38.92,38.92v6.34l-1.5,24.2-5.5,27-22.64,24.42Z"/></svg>