<svg id="Calque_1" data-name="Calque 1" xmlns="http://www.w3.org/2000/svg" xmlns:xlink="http://www.w3.org/1999/xlink" viewBox="0 0 188 202.07"><defs><style>.cls-1{fill:none;}.cls-2{clip-path:url(#clip-path);}.cls-3{fill:#b8775c;}.cls-4{clip-path:url(#clip-path-2);}.cls-5{fill:#d48f72;}.cls-6{fill:#e2ab81;}</style><clipPath id="clip-path"><polygon class="cls-1" points="122.2 81.71 122.2 81.71 138.54 81.71 138.54 114.65 122.2 114.65 122.2 81.71"/></clipPath><clipPath id="clip-path-2"><polygon class="cls-1" points="50.76 81.71 50.76 81.71 34.42 81.71 34.42 114.65 50.76 114.65 50.76 81.71"/></clipPath></defs><g class="cls-2"><path class="cls-3" d="M122.2,114.65l3-28.25s6.56-7.84,12.25-3.25c3.78,3-3.13,28.22-7.5,29.5C122.47,114.83,122.2,114.65,122.2,114.65Z"/></g><g class="cls-4"><path class="cls-3" d="M50.76,114.65l-3-28.25s-6.56-7.84-12.25-3.25c-3.78,3,3.13,28.22,7.5,29.5C50.49,114.83,50.76,114.65,50.76,114.65Z"/></g><path class="cls-5" d="M75.72,159.64,53.09,135.21l-5.5-27L46.09,84V77.63A38.92,38.92,0,0,1,85,38.71h1.43a38.93,38.93,0,0,1,38.92,38.92V84l-1.5,24.19-5.5,27L95.72,159.64Z"/><path class="cls-6" d="M46.66,89.56S46.1,77,47.53,73.15c2-5.38,6.1-14.62,11.65-16.57,5.92-2.08,21.12,1.5,27.41,1.6,5.94.09,18-4.58,23.59-2.66,3.55,1.22,8,7.94,9.61,11.23,2.9,5.92,5.24,25.71,5.24,25.71s3.55-18.42,2-25.15c-1.37-5.91-9.68-18.81-14.72-22.41s-18.09-5.41-24.33-6-19.2.79-25,3.26c-5.45,2.34-13.87,11.31-16.85,16.3-1.81,3-3.84,10-3.74,13.52C42.54,76.46,46.66,89.56,46.66,89.56Z"/></svg>