<svg xmlns="http://www.w3.org/2000/svg" xmlns:xlink="http://www.w3.org/1999/xlink" viewBox="0 0 188 202.07"><defs><style>.cls-1{fill:none;}.cls-2{clip-path:url(#clip-path);}.cls-3{fill:#d08d72;}.cls-4{clip-path:url(#clip-path-2);}.cls-5{fill:#d48f72;}.cls-6{fill:#e2ab81;}</style><clipPath id="clip-path"><polygon class="cls-1" points="128.36 77.47 128.36 77.47 144.7 77.47 144.7 110.42 128.36 110.42 128.36 77.47"/></clipPath><clipPath id="clip-path-2"><polygon class="cls-1" points="56.92 77.47 56.92 77.47 40.58 77.47 40.58 110.42 56.92 110.42 56.92 77.47"/></clipPath></defs><g id="Calque_1" data-name="Calque 1"><g id="random" data-name="&lt;Répétition miroir&gt;"><g class="cls-2"><path class="cls-3" d="M128.36,110.41l3-28.25s6.56-7.83,12.25-3.25c3.78,3-3.13,28.23-7.5,29.5C128.63,110.59,128.36,110.41,128.36,110.41Z"/></g></g><g id="random2" data-name="&lt;Répétition miroir&gt;"><g class="cls-4"><path class="cls-3" d="M56.92,110.41l-3-28.25s-6.56-7.83-12.25-3.25c-3.78,3,3.13,28.23,7.5,29.5C56.66,110.59,56.92,110.41,56.92,110.41Z"/></g></g><path class="cls-5" d="M82.89,155.4,60.25,131l-5.5-27-1.5-24.19V73.39A38.92,38.92,0,0,1,92.17,34.47H93.6a38.92,38.92,0,0,1,38.92,38.92v6.35L131,103.93l-5.5,27L102.88,155.4Z"/></g><g id="Calque_6" data-name="Calque 6"><path class="cls-6" d="M54.18,88.19s-5.48-24.8-3.53-32c.83-3.06,5.6-8.86,5.6-8.86s-.59-5.56.09-7C60,32.25,80,25.56,90.1,25.36c22.2-.42,28.47,11.94,39.07,13.47,3.79.54,15.06-2.53,15.06-2.53a23.05,23.05,0,0,1-11.08,13C124,54,102.65,59.25,91.94,59.21c-8.66,0-34.1-5.19-34.1-5.19S56.63,64.87,56.1,68.71C55.48,73.19,54.18,88.19,54.18,88.19Z"/></g></svg>