<svg id="Calque_1" data-name="Calque 1" xmlns="http://www.w3.org/2000/svg" xmlns:xlink="http://www.w3.org/1999/xlink" viewBox="0 0 788 1005"><defs><style>.cls-1{fill:none;}.cls-2{clip-path:url(#clip-path);}.cls-3{fill:#b8775c;}.cls-4{clip-path:url(#clip-path-2);}.cls-5{fill:#d48f72;}.cls-6{fill:#e2ab81;}</style><clipPath id="clip-path"><polygon class="cls-1" points="429.72 177.02 429.72 177.02 446.06 177.02 446.06 209.96 429.72 209.96 429.72 177.02"/></clipPath><clipPath id="clip-path-2"><polygon class="cls-1" points="358.28 177.02 358.28 177.02 341.94 177.02 341.94 209.96 358.28 209.96 358.28 177.02"/></clipPath></defs><g class="cls-2"><path class="cls-3" d="M429.72,210l3-28.25s6.56-7.84,12.25-3.25c3.78,3-3.13,28.22-7.5,29.5C430,210.14,429.72,210,429.72,210Z"/></g><g class="cls-4"><path class="cls-3" d="M358.28,210l-3-28.25s-6.56-7.84-12.25-3.25c-3.78,3,3.13,28.22,7.5,29.5C358,210.14,358.28,210,358.28,210Z"/></g><path class="cls-5" d="M383.24,254.94l-22.63-24.42-5.5-27-1.5-24.2v-6.34A38.91,38.91,0,0,1,392.53,134H394a38.92,38.92,0,0,1,38.92,38.92v6.34l-1.5,24.2-5.5,27-22.64,24.42Z"/><path class="cls-6" d="M354.18,184.87s-.56-12.55.88-16.42c2-5.37,6.09-14.61,11.64-16.56,5.92-2.08,21.12,1.5,27.42,1.6,5.93.08,18-4.58,23.58-2.66,3.55,1.22,8,7.93,9.61,11.23,2.9,5.92,5.24,25.71,5.24,25.71s3.55-18.43,2-25.15c-1.37-5.91-9.68-18.81-14.72-22.41s-18.08-5.41-24.33-6-19.2.79-25,3.26c-5.45,2.33-13.87,11.31-16.85,16.3-1.81,3-3.84,10-3.74,13.52C350.06,171.77,354.18,184.87,354.18,184.87Z"/></svg>