<svg xmlns="http://www.w3.org/2000/svg" xmlns:xlink="http://www.w3.org/1999/xlink" viewBox="0 0 788 1005"><defs><style>.cls-1{fill:none;}.cls-2{clip-path:url(#clip-path);}.cls-3{fill:#a85b3b;}.cls-4{clip-path:url(#clip-path-2);}.cls-5{fill:#b8775c;}.cls-6{fill:#d48f72;}.cls-7{fill:#e2ab81;}</style><clipPath id="clip-path"><polygon class="cls-1" points="429.72 177.02 429.72 177.02 446.06 177.02 446.06 209.96 429.72 209.96 429.72 177.02"/></clipPath><clipPath id="clip-path-2"><polygon class="cls-1" points="358.28 177.02 358.28 177.02 341.94 177.02 341.94 209.96 358.28 209.96 358.28 177.02"/></clipPath></defs><g id="Calque_1" data-name="Calque 1"><g id="random" data-name="&lt;Répétition miroir&gt;"><g class="cls-2"><path class="cls-3" d="M429.72,210l3-28.25s6.56-7.84,12.25-3.25c3.78,3-3.13,28.22-7.5,29.5C430,210.14,429.72,210,429.72,210Z"/></g></g><g id="random2" data-name="&lt;Répétition miroir&gt;"><g class="cls-4"><path class="cls-3" d="M358.28,210l-3-28.25s-6.56-7.84-12.25-3.25c-3.78,3,3.13,28.22,7.5,29.5C358,210.14,358.28,210,358.28,210Z"/></g></g></g><g id="Calque_5" data-name="Calque 5"><g class="cls-2"><path class="cls-5" d="M429.72,210l3-28.25s6.56-7.84,12.25-3.25c3.78,3-3.13,28.22-7.5,29.5C430,210.14,429.72,210,429.72,210Z"/></g><g class="cls-4"><path class="cls-5" d="M358.28,210l-3-28.25s-6.56-7.84-12.25-3.25c-3.78,3,3.13,28.22,7.5,29.5C358,210.14,358.28,210,358.28,210Z"/></g><path class="cls-6" d="M383.24,254.94l-22.63-24.42-5.5-27-1.5-24.2v-6.34A38.91,38.91,0,0,1,392.53,134H394a38.92,38.92,0,0,1,38.92,38.92v6.34l-1.5,24.2-5.5,27-22.64,24.42Z"/></g><g id="Calque_6" data-name="Calque 6"><path class="cls-7" d="M433.1,149.29q-1.08.48-2.37,1c10.52,10.58,5.52,28.44,5.52,28.44l-3.91,10.84s.84-5.33-6.19-20.35c-1.66-3.53,1.87-13-.23-16.62l-.35-.58c-10.47,3.17-25.31,6-33.68,6-7.09,0-25.44-3.05-31.85-4.15-.73,4.2,1.77,11.7.32,14.74-7,14.76-6.19,20-6.19,20l-3.92-10.66s-2.63-9.24-.06-18.28a14.48,14.48,0,0,1,.41-4.34c.83-2.68,5.6-7.75,5.6-7.75s-.59-4.86.09-6.14c3.69-7,23.65-12.85,33.76-13,22.2-.37,28.47,10.44,39.07,11.77,3.79.48,15.06-2.21,15.06-2.21A20.78,20.78,0,0,1,433.1,149.29Z"/></g></svg>