<svg id="Calque_1" data-name="Calque 1" xmlns="http://www.w3.org/2000/svg" xmlns:xlink="http://www.w3.org/1999/xlink" viewBox="0 0 788 1005"><defs><style>.cls-1{fill:none;}.cls-2{clip-path:url(#clip-path);}.cls-3{fill:#b8775c;}.cls-4{clip-path:url(#clip-path-2);}.cls-5{fill:#d48f72;}.cls-6{fill:#6d3b25;}.cls-7{clip-path:url(#clip-path-3);}.cls-8{fill:#a85b3b;}.cls-9{clip-path:url(#clip-path-4);}.cls-10{fill:#46455b;}.cls-11{fill:#343451;}</style><clipPath id="clip-path"><polygon class="cls-1" points="429.72 176.4 429.72 176.4 446.06 176.4 446.06 209.34 429.72 209.34 429.72 176.4"/></clipPath><clipPath id="clip-path-2"><polygon class="cls-1" points="358.28 176.4 358.28 176.4 341.94 176.4 341.94 209.34 358.28 209.34 358.28 176.4"/></clipPath><clipPath id="clip-path-3"><polygon class="cls-1" points="429.72 177.02 429.72 177.02 446.06 177.02 446.06 209.96 429.72 209.96 429.72 177.02"/></clipPath><clipPath id="clip-path-4"><polygon class="cls-1" points="358.28 177.02 358.28 177.02 341.94 177.02 341.94 209.96 358.28 209.96 358.28 177.02"/></clipPath></defs><g class="cls-2"><path class="cls-3" d="M429.72,209.34l3-28.25s6.56-7.83,12.25-3.25c3.78,3-3.13,28.23-7.5,29.5C430,209.52,429.72,209.34,429.72,209.34Z"/></g><g class="cls-4"><path class="cls-3" d="M358.28,209.34l-3-28.25s-6.56-7.83-12.25-3.25c-3.78,3,3.13,28.23,7.5,29.5C358,209.52,358.28,209.34,358.28,209.34Z"/></g><path class="cls-5" d="M383.24,254.33,360.61,229.9l-5.5-27-1.5-24.19v-6.35a38.92,38.92,0,0,1,38.92-38.92H394a38.93,38.93,0,0,1,38.92,38.92v6.35l-1.5,24.19-5.5,27-22.64,24.43Z"/><path class="cls-6" d="M429.63,148.6c12,10.39,6.63,29.47,6.63,29.47l-3.92,10.84s.84-5.33-6.19-20.35c-1.66-3.53,1.87-13-.23-16.62-4.64-7.9-9.35-11.07-9.35-11.07S421.57,141.6,429.63,148.6Z"/><path class="cls-6" d="M356.88,148.26c-12,10.22-6.62,29-6.62,29l3.91,10.66s-.84-5.25,6.19-20c1.66-3.48-1.87-12.83.23-16.36,4.64-7.76,9.35-10.88,9.35-10.88S364.94,141.38,356.88,148.26Z"/><g id="random" data-name="&lt;Repetition miroir&gt;"><g class="cls-7"><path class="cls-8" d="M429.72,210l3-28.25s6.56-7.84,12.25-3.25c3.78,3-3.13,28.22-7.5,29.5C430,210.14,429.72,210,429.72,210Z"/></g></g><g id="random2" data-name="&lt;Repetition miroir&gt;"><g class="cls-9"><path class="cls-8" d="M358.28,210l-3-28.25s-6.56-7.84-12.25-3.25c-3.78,3,3.13,28.22,7.5,29.5C358,210.14,358.28,210,358.28,210Z"/></g></g><path class="cls-10" d="M441.4,163.19,418,159.32a151.9,151.9,0,0,0-49.44,0l-23.43,3.87-1.58-8.1c0-2.59-.79,2.3,0,0,2-5.81-8.67,10.41-14.37,8.1l-8.3-3.37C331.31,140.87,359.51,87.43,422,116c15.09,6.88,19.38,28.14,19.38,34.82Z"/><rect class="cls-11" x="343.51" y="152.85" width="99.46" height="14.65" rx="2.24"/><path class="cls-11" d="M339.22,165.24c0,7.25-5.88,11.22-13.13,11.22s-13.13-4-13.13-11.22a13.13,13.13,0,1,1,26.26,0Z"/></svg>