<svg id="Calque_1" data-name="Calque 1" xmlns="http://www.w3.org/2000/svg" xmlns:xlink="http://www.w3.org/1999/xlink" viewBox="0 0 788 1005"><defs><style>.cls-1{fill:none;}.cls-2{clip-path:url(#clip-path);}.cls-3{fill:#b8775c;}.cls-4{clip-path:url(#clip-path-2);}.cls-5{fill:#d48f72;}</style><clipPath id="clip-path"><polygon class="cls-1" points="429.72 176.4 429.72 176.4 446.06 176.4 446.06 209.34 429.72 209.34 429.72 176.4"/></clipPath><clipPath id="clip-path-2"><polygon class="cls-1" points="358.28 176.4 358.28 176.4 341.94 176.4 341.94 209.34 358.28 209.34 358.28 176.4"/></clipPath></defs><g class="cls-2"><path class="cls-3" d="M429.72,209.34l3-28.25s6.56-7.83,12.25-3.25c3.78,3-3.13,28.23-7.5,29.5C430,209.52,429.72,209.34,429.72,209.34Z"/></g><g class="cls-4"><path class="cls-3" d="M358.28,209.34l-3-28.25s-6.56-7.83-12.25-3.25c-3.78,3,3.13,28.23,7.5,29.5C358,209.52,358.28,209.34,358.28,209.34Z"/></g><path class="cls-5" d="M383.24,254.33,360.61,229.9l-5.5-27-1.5-24.19v-6.35a38.92,38.92,0,0,1,38.92-38.92H394a38.93,38.93,0,0,1,38.92,38.92v6.35l-1.5,24.19-5.5,27-22.64,24.43Z"/></svg>