<svg id="Calque_1" data-name="Calque 1" xmlns="http://www.w3.org/2000/svg" xmlns:xlink="http://www.w3.org/1999/xlink" viewBox="0 0 188 202.07"><defs><style>.cls-1{fill:none;}.cls-2{clip-path:url(#clip-path);}.cls-3{fill:#b8775c;}.cls-4{clip-path:url(#clip-path-2);}.cls-5{fill:#d48f72;}.cls-6{fill:#733119;}.cls-7{fill:#4f2518;}</style><clipPath id="clip-path"><polygon class="cls-1" points="121.61 86.8 121.61 86.8 137.96 86.8 137.96 119.74 121.61 119.74 121.61 86.8"/></clipPath><clipPath id="clip-path-2"><polygon class="cls-1" points="50.18 86.8 50.18 86.8 33.84 86.8 33.84 119.74 50.18 119.74 50.18 86.8"/></clipPath></defs><g class="cls-2"><path class="cls-3" d="M121.61,119.74l3-28.25s6.57-7.83,12.25-3.25c3.79,3.05-3.13,28.22-7.5,29.5C121.88,119.92,121.61,119.74,121.61,119.74Z"/></g><g class="cls-4"><path class="cls-3" d="M50.18,119.74l-3-28.25s-6.56-7.83-12.25-3.25c-3.78,3.05,3.13,28.22,7.5,29.5C49.91,119.92,50.18,119.74,50.18,119.74Z"/></g><path class="cls-5" d="M75.14,164.73,52.5,140.3l-5.5-27L45.5,89.07V82.72A38.93,38.93,0,0,1,84.42,43.8h1.43a38.92,38.92,0,0,1,38.92,38.92v6.35l-1.5,24.19-5.5,27L95.14,164.73Z"/><path class="cls-6" d="M134.41,54.43,90.8,69.36,41,75.31v-8.2c0-5.82,8.43-16.23,14.21-21,11.82-9.73,58.24-12.56,69.6-2.31C131,49.37,134,58.51,134,58.51Z"/><path class="cls-7" d="M40.88,75.31,75.77,62c18-5.78,48.74-9.21,48.74-9.21,5.81-.67,26.66,3,21.33,12.51-2.38,4.22-16.59,10-16.59,10l-20.47-3.16a133.62,133.62,0,0,0-36.23-.62Z"/></svg>