<svg xmlns="http://www.w3.org/2000/svg" xmlns:xlink="http://www.w3.org/1999/xlink" viewBox="0 0 788 1005"><defs><style>.cls-1{fill:none;}.cls-2{clip-path:url(#clip-path);}.cls-3{fill:#d08d72;}.cls-4{clip-path:url(#clip-path-2);}.cls-5{fill:#d48f72;}.cls-6{fill:#e2ab81;}</style><clipPath id="clip-path"><polygon class="cls-1" points="428.72 176.4 428.72 176.4 445.06 176.4 445.06 209.34 428.72 209.34 428.72 176.4"/></clipPath><clipPath id="clip-path-2"><polygon class="cls-1" points="357.28 176.4 357.28 176.4 340.94 176.4 340.94 209.34 357.28 209.34 357.28 176.4"/></clipPath></defs><g id="Calque_1" data-name="Calque 1"><g id="random" data-name="&lt;Repetition miroir&gt;"><g class="cls-2"><path class="cls-3" d="M428.72,209.34l3-28.25s6.56-7.83,12.25-3.25c3.78,3-3.13,28.23-7.5,29.5C429,209.52,428.72,209.34,428.72,209.34Z"/></g></g><g id="random2" data-name="&lt;Repetition miroir&gt;"><g class="cls-4"><path class="cls-3" d="M357.28,209.34l-3-28.25s-6.56-7.83-12.25-3.25c-3.78,3,3.13,28.23,7.5,29.5C357,209.52,357.28,209.34,357.28,209.34Z"/></g></g><path class="cls-5" d="M383.24,254.33,360.61,229.9l-5.5-27-1.5-24.19v-6.35a38.92,38.92,0,0,1,38.92-38.92H394a38.93,38.93,0,0,1,38.92,38.92v6.35l-1.5,24.19-5.5,27-22.64,24.43Z"/></g><g id="Calque_6" data-name="Calque 6"><path class="cls-6" d="M354.54,187.12s-5.48-24.8-3.53-32.05c.83-3.06,5.6-8.86,5.6-8.86s-.6-5.56.08-7c3.7-8,23.66-14.69,33.77-14.89,22.19-.42,28.47,11.94,39.07,13.47,3.78.54,15.06-2.54,15.06-2.54a23.06,23.06,0,0,1-11.08,13c-9.19,4.66-30.51,9.93-41.21,9.89-8.66,0-34.1-5.19-34.1-5.19s-1.21,10.85-1.74,14.69C355.84,172.12,354.54,187.12,354.54,187.12Z"/></g></svg>