<svg xmlns="http://www.w3.org/2000/svg" viewBox="0 0 788 1005"><defs><style>.cls-1{fill:#d48f72;}.cls-2{fill:#bf7764;}.cls-3{fill:none;stroke:#000;stroke-miterlimit:10;stroke-width:3px;}.cls-4{fill:#d79072;}.cls-5{fill:#473415;}.cls-6{fill:#ddd;}.cls-7{fill:#9b1717;}.cls-8{fill:#5b3c25;}.cls-9{fill:#472e1d;}.cls-10{fill:#b81717;}.cls-11{fill:#fff;}.cls-12{fill:#898c68;}</style></defs><g id="Calque_5" data-name="Calque 5"><polygon points="230.22 479.54 230.32 479.5 230.22 479.45 230.22 479.54"/><polygon points="230.32 479.5 230.42 479.54 230.42 479.45 230.32 479.5"/><polygon points="230.22 479.54 230.32 479.5 230.22 479.45 230.22 479.54"/><polygon points="230.32 479.5 230.42 479.54 230.42 479.45 230.32 479.5"/><path class="cls-1" d="M515.81,243.82c-.6,38.39-26.2,33.17-36.86,42.29-12.58,10.77-8.27,50-17.18,64-2.45,3.84-11.36,10.1-15.8,9.08-12.51-2.87-24-30.73-34.77-37.73-6.33-4.12-23.57-3.62-30.19,0-11.25,6.16-22.27,34.86-34.77,37.73-4.44,1-13.35-5.24-15.8-9.08-8.91-14-4.6-53.24-17.19-64-10.65-9.12-36.25-3.9-36.86-42.29-.41-26.59,35-37.34,35-37.34l40.15-19.91a31.54,31.54,0,0,0,17.34-24.79c0-.12,0-.24,0-.36s0-.47.06-.7c0-.07,0-.14,0-.21.06-.81.09-1.62.08-2.44l0-2.27,0-5.08h53.63l0,2.54.09,7.14a28.43,28.43,0,0,0,15.82,25.14l40.53,20.1a27.41,27.41,0,0,0,3.16,1.33C489,209.35,516.18,220.48,515.81,243.82Z"/><polygon class="cls-1" points="424.25 199 396.75 231.5 369.57 199 369.77 187.27 370.4 150.72 423.42 150.72 423.7 167.28 424.25 199"/><path class="cls-2" d="M421.63,150.72l-.21,9.69L408,174.74s-23.54,19.78-31.65,15.86c-2-1-4.28-2.14-6.53-3.33-5.45-2.9-10.66-5.87-10.66-5.87a18.69,18.69,0,0,0,1.81-1.94,38.48,38.48,0,0,0,7.77-16.56,9,9,0,0,0,.18-1.12c0-.12,0-.24,0-.36s0-.46.06-.7c0-.07,0-.14,0-.21.07-1,.08-2.17.08-3.38l0-1.33q0-.93,0-1.89c0-1.09,0-2.16,0-3.19Z"/><path class="cls-3" d="M456.2,236.28c-1.33,27.64,17.73,53.51,17.73,53.51s31.16,53.92,41.26,72c4.77,8.54,14.38,26.52,36,15.24h0c17.85-9.3,11.88-28.08,8.13-36.69-7.63-17.53-26.77-51.42-31.2-69.79-3.3-13.69-3.06-36.07-20.88-52.3,0,0-13.14-14.88-31.88-7.74l-.74.28a28.69,28.69,0,0,0-18.45,25.44Z"/><path class="cls-4" d="M207.5,344.82c-19.56,3.61-29.91-17.66-33.21-25.61s-6.06-25.49-7.44-34.11c-3.53-22.07-7.6-59.45-10.34-81.12-4.49-35.58,7.37-42,11.37-32.81,6.42,14.72,7.88,15.9,10.65,20.68,11.41,19.64,34.19,57.74,42.71,80.21,3.5,9.22,8.85,28.52,9.15,38.38C231.24,338,213.19,343.77,207.5,344.82Z"/><path class="cls-3" d="M333.71,254.55c-11.91,25-40.93,38.77-40.93,38.77s-52.95,32.77-70.43,44c-8.23,5.28-25.22,16.57-38.95-3.61h0c-11.33-16.63,2.81-30.35,10.19-36.17,15-11.83,47.9-32.65,60.5-46.74,9.38-10.49,19.75-30.33,43.13-36.2,0,0,18.61-6.9,31.75,8.25l.52.6a28.69,28.69,0,0,1,4.22,31.14Z"/><polygon class="cls-5" points="316.71 451.3 318.21 428.8 473.21 428.8 475.21 448.3 316.71 451.3"/><path class="cls-4" d="M562.06,344.7c-9-17.73-32.21-13-40.52-10.81s-23.93,10.69-31.61,14.84c-19.66,10.62-51.32,31-70.69,41.12-12.74,6.66-19.64,9.8-17.56,19.08,1.9,8.43,15.84,6.48,21.32,5.78,22.53-2.89,66.64-8,89.65-14.86,9.45-2.83,28-10.32,36-16.08C571.1,367.68,564.69,349.85,562.06,344.7Z"/><path class="cls-1" d="M168.1,166.76l-9.95-18.07-20-20.23s-3.33,4.54-3.2,6.3c.43,5.53,5.87,12.48,9,17,.42.6.62,4,.16,4.55-1.88,2.37-7.7-.27-7.7-.27L151.66,170Z"/><path class="cls-1" d="M161.91,164.37l-11.42,17.92s-31.3-14.08-40.23-21.11c-9.45-7.45-31.73-36.2-31.73-36.2s5.86-3.28,8-3c11,1.41,26.8,19.63,36.1,25.63C132.64,154.08,161.91,164.37,161.91,164.37Z"/><path class="cls-1" d="M155.81,197c.67,6.67,12.48-16,13.56-22.59a12.06,12.06,0,0,0-10-13.87c-6.62-1.06-29.14,11.12-23.21,14.23C150.49,182.29,154.52,184.26,155.81,197Z"/><path class="cls-6" d="M345,191.48c1.34-1.34,17.42-20.33,18.88-20.31.67,0,13.77,31.63,29,32.05,18.46.52,36.1-32.05,36.1-32.05l8.94,14,5,160.52L345,347Z"/><path class="cls-6" d="M160.1,244l-5.58-31s28-19.11,29.5-18.19,8.45,20.93,8.45,20.93Z"/><path class="cls-7" d="M385.53,219.81l18.28-.05s14.22,67.74,13.56,69.8-9.3,53.37-9.17,54.6-12.58,16-12.58,16-12.79-18.47-13.44-20.53-4.67-46.39-5.68-48S385.53,219.81,385.53,219.81Z"/><path class="cls-8" d="M483.19,415.69l17.86,88.05a4.11,4.11,0,0,1-3.58,4.91c-16.62,1.83-58.56,9.15-73.24,4.72-8.54-2.57-15.68-15.72-18.14-29.69-12.09-68.54-8-172.63-4.17-189,5.07-21.6,22.17-89.8,27.12-111.91.58-2.56,1.17-4.93,1.17-4.93L484,202.53l.24.1,25.52,9.87a4,4,0,0,1,2,1.66s11.25,16.63,14.14,22.65c13,27,39.69,113,39.69,113,2.1,7.77-.59,21.69-3.56,23.43l-82.54,20.6a4.13,4.13,0,0,0-2.15,5.11L483,415.14A2.64,2.64,0,0,1,483.19,415.69Z"/><path class="cls-8" d="M362,177.19s29.53,101.36,29.53,116.87-1.59,155.55-5.13,188c-1.1,10.17-5.79,33.08-36.33,31.25-13.54-.81-46.58-7.89-46.58-7.89a12.26,12.26,0,0,1-9.87-14.91l15.81-86.94s5.88-40.4,5.54-54c-.39-15.22-9.28-60.19-9.28-60.19s-98.5,62.42-101.82,61.83c-21.11-3.77-30.27-26.39-30.27-26.39l-27-85.18s42.67-30.15,43.84-31c4-3,30.8,62.84,30.8,62.84l55.15-55.34Z"/><path class="cls-9" d="M360.94,173.44l-9.84,8.7-6.23,92.5L362,283.19V303.8s26,81.88,27.57,79.39,2-75.86,2-75.86V294.06l-15.1-65.49Z"/><path class="cls-10" d="M380.61,210.83c.92-1.76,6.73-13.21,8.88-15.3,1.69-1.64,11.76,0,11.76,0l8.94,14.17s-3.71,9.61-6.57,11c-1.49.7-8.81.41-17.22,0C384.11,220.54,381.43,211.51,380.61,210.83Z"/><path class="cls-9" d="M431.44,174.87l8.06,7.27,6.23,92.5-17.13,8.55V303.8s-26,81.88-27.58,79.39-2-75.86-2-75.86V294.06l15.1-65.49Z"/><path class="cls-11" d="M423.63,162.91l7.81,12-19.17,42.78s-7.76-18-11-22.12C399.81,193.72,423.63,162.91,423.63,162.91Z"/><polygon class="cls-12" points="375.39 307.53 382.88 444.6 487 439.88 498.57 306 375.39 307.53"/><path class="cls-11" d="M368.69,162.91l-7.75,10.53,18,44.21s7.06-18,11.8-22.66C392.43,193.37,368.69,162.91,368.69,162.91Z"/><polygon class="cls-1" points="418.21 390.81 398.65 377.27 376.43 371.83 379.39 380.69 389.57 385.4 393.7 391.74 379.99 392.12 379.67 381.96 373.33 381.06 362 395.07 366.41 425.24 385.76 432.14 419.93 415.46 429.81 412.33 450.17 407.34 433.08 386.39 424.23 389.92 418.21 390.81"/><path class="cls-6" d="M463.93,417l-31.37,2.19s-16.3-28.67-15.23-30,21.64-6,21.64-6Z"/><path class="cls-8" d="M429.3,384.34c2.67,4.21,25.49,56.87,27.35,54.77s98.2-58.42,98.2-58.42l.23-.13A21.11,21.11,0,0,0,565.24,363l.29-12.21s-21.83-19.2-24.13-19.2-39.28,9.66-42.67,9.26S429.3,384.34,429.3,384.34Z"/><circle class="cls-9" cx="159.2" cy="246.15" r="4.68"/><circle class="cls-9" cx="163.88" cy="261.5" r="4.68"/><circle class="cls-9" cx="478.46" cy="412.74" r="4.68"/><circle class="cls-9" cx="463.93" cy="422.1" r="4.68"/></g></svg>