<?xml version="1.0" encoding="utf-8"?>
<!-- Generator: Adobe Illustrator 26.0.2, SVG Export Plug-In . SVG Version: 6.00 Build 0)  -->
<svg version="1.1" id="Layer_1" xmlns="http://www.w3.org/2000/svg" xmlns:xlink="http://www.w3.org/1999/xlink" x="0px" y="0px"
	 viewBox="0 0 788 1005.1" style="enable-background:new 0 0 788 1005.1;" xml:space="preserve">
<style type="text/css">
	.st0{clip-path:url(#SVGID_00000128455323478284306990000002856889610794612394_);}
	.st1{fill:#7F4B37;}
	.st2{clip-path:url(#SVGID_00000134966684380940687320000007085484200418097843_);}
	.st3{fill:none;}
	.st4{fill:#9F6042;}
	.st5{clip-path:url(#SVGID_00000098193254309828312630000015595582367804806842_);}
	.st6{fill:#FFFC01;}
	.st7{clip-path:url(#SVGID_00000150794140152505797060000000156570277438979234_);}
	.st8{fill:#A09D9D;}
</style>
<g id="_Repetition_miroir_">
	<g>
		<g>
			<g>
				<defs>
					<polygon id="SVGID_1_" points="408.6,157.7 408.6,157.7 426.5,157.7 426.5,190.9 408.6,190.9 					"/>
				</defs>
				<clipPath id="SVGID_00000018209005469366553870000015771005635799040431_">
					<use xlink:href="#SVGID_1_"  style="overflow:visible;"/>
				</clipPath>
				<g style="clip-path:url(#SVGID_00000018209005469366553870000015771005635799040431_);">
					<path class="st1" d="M417.3,190.7c4.5-2.1,7-13.2,8.4-18c1-3.6,1.4-12.7-1.7-14.7c-2.7-1.8-12.4,3.8-12.4,3.8l-1,13.2l-2.1,14
						C408.6,189,415.3,191.7,417.3,190.7z"/>
				</g>
			</g>
		</g>
	</g>
</g>
<g id="_Repetition_miroir_2">
	<g>
		<g>
			<g>
				<defs>
					<polygon id="SVGID_00000119796536175079536390000008945414701553485237_" points="338.2,157.7 338.2,157.7 320.3,157.7 
						320.3,190.9 338.2,190.9 					"/>
				</defs>
				<clipPath id="SVGID_00000111172826342780651140000015065083726849480840_">
					<use xlink:href="#SVGID_00000119796536175079536390000008945414701553485237_"  style="overflow:visible;"/>
				</clipPath>
				<g style="clip-path:url(#SVGID_00000111172826342780651140000015065083726849480840_);">
					<path class="st1" d="M329.5,190.7c-4.5-2.1-7-13.2-8.4-18c-1-3.6-1.4-12.7,1.7-14.7c2.7-1.8,12.4,3.8,12.4,3.8l1,13.2l2.1,14
						C338.2,189,331.5,191.7,329.5,190.7z"/>
				</g>
			</g>
		</g>
	</g>
</g>
<rect x="373" y="113.8" class="st3" width="41.7" height="112.3"/>
<path class="st4" d="M413.7,148.9c-1.2-6.9-5.8-19.5-10.8-24.4c-5.8-5.7-17-9.4-26.3-10.4v-0.3c-1.1,0-2.2,0-3.3,0
	c-0.5,0-1.1,0-1.6,0v0.1c-10.6,0.8-22.3,4.7-28.3,10.5c-5,4.9-9.6,17.5-10.8,24.4c-1.8,10.2,3.5,42.1,6.8,51.9
	c7.7,23.2,16.4,18.2,23.1,23.1c2.6,1.9,10.7,1.7,10.7,1.7s8.1,0.1,10.7-1.7c8-5.6,14.8-0.9,23.1-23.1
	C410.5,191,415.5,159.1,413.7,148.9z"/>
<rect x="331.4" y="113.8" class="st3" width="41.7" height="112.3"/>
<g>
	<g>
		<g>
			<defs>
				<polygon id="SVGID_00000135668837065505488590000002022693736377924747_" points="414.3,186 414.3,186 424.8,186 424.8,202.5 
					414.3,202.5 				"/>
			</defs>
			<clipPath id="SVGID_00000039134547307875615590000007038210364790592899_">
				<use xlink:href="#SVGID_00000135668837065505488590000002022693736377924747_"  style="overflow:visible;"/>
			</clipPath>
			<g style="clip-path:url(#SVGID_00000039134547307875615590000007038210364790592899_);">
				<path class="st6" d="M419.5,186L419.5,186c2.9,0,5.2,2.4,5.2,5.2v6c0,2.9-2.4,5.2-5.2,5.2l0,0c-2.9,0-5.2-2.4-5.2-5.2v-6
					C414.3,188.4,416.6,186,419.5,186z"/>
			</g>
		</g>
	</g>
</g>
<g>
	<g>
		<g>
			<defs>
				<polygon id="SVGID_00000177471492323557756960000002316912484906657972_" points="331.7,186 331.7,186 321.2,186 321.2,202.5 
					331.7,202.5 				"/>
			</defs>
			<clipPath id="SVGID_00000096030921063404314970000010566520195097430936_">
				<use xlink:href="#SVGID_00000177471492323557756960000002316912484906657972_"  style="overflow:visible;"/>
			</clipPath>
			<g style="clip-path:url(#SVGID_00000096030921063404314970000010566520195097430936_);">
				<path class="st6" d="M326.5,186L326.5,186c2.9,0,5.2,2.4,5.2,5.2v6c0,2.9-2.4,5.2-5.2,5.2l0,0c-2.9,0-5.2-2.4-5.2-5.2v-6
					C321.2,188.4,323.6,186,326.5,186z"/>
			</g>
		</g>
	</g>
</g>
<path class="st8" d="M332.8,148.4c0,0,0.9,30,4.3,42c0,0.9,0.2,9.1-13.7,0.9c-13.9-8.1-4.9-16.3-4.9-16.3s-12.2,0.7-14.1-11.7
	c-0.8-6.6,4.4-12.4,4.4-12.4s-6.6-5.5-5.9-14.9s11.1-12.5,11.1-12.5s-2.8-12.3,4.4-19c7.2-6.7,13.8-4.8,13.8-4.8s-0.2-11.5,7.9-14.6
	s13.9,0.5,13.9,0.5s3.5-6.5,11.2-6.6c5.3,0,8.1,3.7,8.1,3.7s2.3-4.9,10.1-3.7c7.8,1.2,9.2,6.8,9.2,6.8s9.5-5,15.2,0.2
	s6.7,13.4,6.7,13.4s11.3,0.1,14.2,5.4s3.5,19,3.5,19s11.4,3.4,11.3,13.1c-0.1,9.7-6.5,14.3-6.5,14.3s6.6,7.9,3.5,16
	s-12.4,7.4-12.4,7.4s0.4,9.6-4.2,15.7s-15.7,2.6-15.7,2.6s5.7-17.7,5.7-42.2c0,0-1.3,0.2-5.8-2.3s-2-6-3.9-10.5
	c-2-4.5-7.2-14-18.6-19.6c0.1,0.1,19.1,4.4,16,20.1c-12.1,7.8-47,5.2-56.7-0.3c-5.5-4.2,7.9-18.6,18.8-19.7c0,0-14.8,2.8-19.6,15
	c-4.8,12.2-2.2,11.7-5.4,14.4C335.5,150.4,332.8,148.4,332.8,148.4z"/>
</svg>
