<?xml version="1.0" encoding="utf-8"?>
<!-- Generator: Adobe Illustrator 26.0.2, SVG Export Plug-In . SVG Version: 6.00 Build 0)  -->
<svg version="1.1" id="Layer_1" xmlns="http://www.w3.org/2000/svg" xmlns:xlink="http://www.w3.org/1999/xlink" x="0px" y="0px"
	 viewBox="0 0 788 1005.1" style="enable-background:new 0 0 788 1005.1;" xml:space="preserve">
<style type="text/css">
	.st0{clip-path:url(#SVGID_00000173135112541209822130000018086293424033133247_);}
	.st1{fill:#7F4B37;}
	.st2{clip-path:url(#SVGID_00000137106528503583330940000016922837749891913407_);}
	.st3{fill:none;}
	.st4{fill:#9F6042;}
	.st5{fill:#A09D9D;}
	.st6{fill:#D3D3D3;stroke:#D34B1C;stroke-miterlimit:10;}
	.st7{fill:#D3D3D3;}
	.st8{fill:#D34B1C;}
</style>
<g id="Calque_3">
	<g id="_Repetition_miroir_">
		<g>
			<g>
				<defs>
					<polygon id="SVGID_1_" points="408.6,157.7 408.6,157.7 426.5,157.7 426.5,190.9 408.6,190.9 					"/>
				</defs>
				<clipPath id="SVGID_00000134219941896485105000000009987240410538608516_">
					<use xlink:href="#SVGID_1_"  style="overflow:visible;"/>
				</clipPath>
				<g style="clip-path:url(#SVGID_00000134219941896485105000000009987240410538608516_);">
					<path class="st1" d="M417.3,190.7c4.5-2.1,7-13.2,8.4-18c1-3.6,1.4-12.7-1.7-14.7c-2.7-1.8-12.4,3.8-12.4,3.8l-1,13.2l-2.1,14
						C408.6,189,415.3,191.7,417.3,190.7z"/>
				</g>
			</g>
		</g>
	</g>
	<g id="_Repetition_miroir_2">
		<g>
			<g>
				<defs>
					<polygon id="SVGID_00000022543524956545465650000009220119217976271275_" points="338.2,157.7 338.2,157.7 320.3,157.7 
						320.3,190.9 338.2,190.9 					"/>
				</defs>
				<clipPath id="SVGID_00000023280112726869523350000015509140716958811294_">
					<use xlink:href="#SVGID_00000022543524956545465650000009220119217976271275_"  style="overflow:visible;"/>
				</clipPath>
				<g style="clip-path:url(#SVGID_00000023280112726869523350000015509140716958811294_);">
					<path class="st1" d="M329.5,190.7c-4.5-2.1-7.1-13.2-8.4-18c-1-3.6-1.4-12.7,1.7-14.7c2.7-1.8,12.4,3.8,12.4,3.8l1,13.2l2.1,14
						C338.2,189,331.5,191.7,329.5,190.7z"/>
				</g>
			</g>
		</g>
	</g>
	<rect x="373" y="113.8" class="st3" width="41.7" height="112.3"/>
	<path class="st4" d="M413.7,148.9c-1.2-6.9-5.8-19.5-10.8-24.4c-5.8-5.7-17-9.4-26.3-10.4v-0.3c-1.1,0-2.2,0-3.3,0
		c-0.5,0-1.1,0-1.6,0v0.1c-10.6,0.8-22.3,4.7-28.3,10.5c-5,4.9-9.6,17.5-10.8,24.4c-1.8,10.2,3.5,42.1,6.8,51.9
		c7.7,23.2,16.4,18.2,23.1,23.1c2.6,1.9,10.7,1.7,10.7,1.7s8.1,0.1,10.7-1.7c8-5.6,14.8-0.9,23.1-23.1
		C410.5,191,415.5,159.1,413.7,148.9z"/>
	<rect x="331.4" y="113.8" class="st3" width="41.7" height="112.3"/>
	<path class="st5" d="M332.6,164.1c0,0-8.6-3.1-9.6-7.1s-5.7-19.1-3.9-25.3c7-23.9,14.6-5.7,20.3-10.1l0,0c-6.8-6.1-4-13.5,1.3-20.8
		l0.5-0.2c13.1-5.6,27.7-6.8,41.5-3.5l2,0.5c0,0,22.7,4.9,28.5,9.7c5.3,4.5,12.3,17.7,13.2,24.6c0.6,4.8-1.6,17.1-2.6,22.5
		c-0.3,1.7-1.3,3.2-2.7,4.1l-8,5.5l-3.4-15.7c-0.1-0.3-0.2-0.6-0.3-0.9l-5.1-13.6c-1-2.8-3.9-4.5-6.8-4.2l-23.5,2.7
		c-0.4,0-0.8,0.1-1.3,0l-24.4-2c-3.2-0.3-6.1,1.8-6.9,5l-2.9,12"/>
</g>
<g>
	<path class="st6" d="M403.1,92.2c0,0,28.7-2.2,16.3-35.9c-12.6-33.6-37.3-10-37.3-10s-9.4-12-31.7-6.9
		C328.2,44.4,322,58.7,322,58.7S282.6,46.3,286,91.9s49,11.5,49,11.5"/>
	<path class="st6" d="M314,100.7l5.8,42.1c0,0,50-41,96.9-31.6c-0.5-12.8-14.3-30.9-14.3-30.9S350.6,69.4,314,100.7z"/>
	<g>
		<path class="st7" d="M329.9,85.8c0,0,8.1,13.9,29.2,9.8s24.7-22.1,24.7-22.1"/>
		<path class="st8" d="M329.9,85.8c10.3,13.9,32.9,12.5,44.8,1.7c4.1-3.8,7.3-8.7,8.8-14c-1.6,7.6-6.7,14.5-13.3,18.5
			C357.8,99.3,338.2,99.1,329.9,85.8L329.9,85.8z"/>
	</g>
</g>
</svg>
