<?xml version="1.0" encoding="utf-8"?>
<!-- Generator: Adobe Illustrator 26.0.2, SVG Export Plug-In . SVG Version: 6.00 Build 0)  -->
<svg version="1.1" id="Layer_1" xmlns="http://www.w3.org/2000/svg" xmlns:xlink="http://www.w3.org/1999/xlink" x="0px" y="0px"
	 viewBox="0 0 198 187.6" style="enable-background:new 0 0 198 187.6;" xml:space="preserve">
<style type="text/css">
	.st0{clip-path:url(#SVGID_00000161591899194342295850000016071392309422995875_);}
	.st1{fill:#7F4B37;}
	.st2{clip-path:url(#SVGID_00000121989906349160274130000002071394397381788087_);}
	.st3{fill:none;}
	.st4{fill:#9F6042;}
	.st5{fill:#A09D9D;}
	.st6{fill:#EFDA48;}
</style>
<g>
	<g id="_Repetition_miroir__00000152979499897153270460000002700887036751489420_">
		<g>
			<defs>
				<polygon id="SVGID_1_" points="132.3,90.4 132.3,90.4 150.2,90.4 150.2,123.7 132.3,123.7 				"/>
			</defs>
			<clipPath id="SVGID_00000125579685200986728460000006373686886979603851_">
				<use xlink:href="#SVGID_1_"  style="overflow:visible;"/>
			</clipPath>
			<g style="clip-path:url(#SVGID_00000125579685200986728460000006373686886979603851_);">
				<path class="st1" d="M141,123.5c4.5-2.1,7-13.2,8.4-18c1-3.6,1.4-12.7-1.7-14.7c-2.7-1.8-12.4,3.8-12.4,3.8l-1,13.2l-2.1,14
					C132.3,121.8,139,124.4,141,123.5z"/>
			</g>
		</g>
	</g>
	<g id="_Repetition_miroir_2_00000160168152415096809970000015549691484185863354_">
		<g>
			<defs>
				<polygon id="SVGID_00000052091853605807239660000015649526470737950383_" points="61.9,90.4 61.9,90.4 44,90.4 44,123.7 
					61.9,123.7 				"/>
			</defs>
			<clipPath id="SVGID_00000093177113750637226790000013716366966241484172_">
				<use xlink:href="#SVGID_00000052091853605807239660000015649526470737950383_"  style="overflow:visible;"/>
			</clipPath>
			<g style="clip-path:url(#SVGID_00000093177113750637226790000013716366966241484172_);">
				<path class="st1" d="M53.2,123.5c-4.5-2.1-7-13.2-8.4-18c-1-3.6-1.4-12.7,1.7-14.7c2.7-1.8,12.4,3.8,12.4,3.8l1,13.2l2.1,14
					C61.9,121.8,55.2,124.4,53.2,123.5z"/>
			</g>
		</g>
	</g>
	<rect x="96.7" y="46.6" class="st3" width="41.7" height="112.3"/>
	<path class="st4" d="M137.4,81.6c-1.2-6.9-5.8-19.5-10.8-24.4c-5.8-5.7-17-9.4-26.3-10.4v-0.3c-1.1,0-2.2,0-3.3,0
		c-0.5,0-1.1,0-1.6,0v0.1C84.6,47.4,72.9,51.4,67,57.2c-5,4.9-9.6,17.5-10.8,24.4c-1.8,10.2,3.5,42.1,6.8,51.9
		c7.7,23.2,16.4,18.2,23.1,23.1c2.6,1.9,10.7,1.7,10.7,1.7s8.1,0.1,10.7-1.7c8-5.6,14.8-0.9,23.1-23.1
		C134.2,123.8,139.2,91.8,137.4,81.6z"/>
	<rect x="55.1" y="46.6" class="st3" width="41.7" height="112.3"/>
	<path class="st5" d="M56.1,97.9c-11.4-26.6-5.6-48.6,15.5-61.2c14.2-8.6,31-8.6,46-7.4c19.9,1.6,28.8,18.2,33.4,36.6
		c4.2,16.6,5.7,32.3-8.8,45.4c-6.1,5.5-12,11.9,0,18.2c-5,4-9.3,3.6-13.1-0.3c-3.4-3.5-2.9-7.7-1.5-12.1c6.3-19.5,4.9-22.6-12.6-34
		c-7-4.5-12.9-10.7-16.6-17.9c-5.3-10.5-11.7-7.9-18.6-3c-6.1,4.3-10.9,9.9-14.3,16.5C62.3,84.7,59.5,90.9,56.1,97.9z"/>
	<circle class="st6" cx="55.1" cy="123.7" r="4.8"/>
	<circle class="st6" cx="55.1" cy="132.6" r="3.4"/>
	<circle class="st6" cx="55.1" cy="139.2" r="2.5"/>
</g>
</svg>
