<?xml version="1.0" encoding="utf-8"?>
<!-- Generator: Adobe Illustrator 26.0.2, SVG Export Plug-In . SVG Version: 6.00 Build 0)  -->
<svg version="1.1" id="Layer_1" xmlns="http://www.w3.org/2000/svg" xmlns:xlink="http://www.w3.org/1999/xlink" x="0px" y="0px"
	 viewBox="0 0 198 187.6" style="enable-background:new 0 0 198 187.6;" xml:space="preserve">
<style type="text/css">
	.st0{clip-path:url(#SVGID_00000125571272049626216510000007854571181112519836_);}
	.st1{fill:#7F4B37;}
	.st2{clip-path:url(#SVGID_00000066477977985783454160000011667499197937694360_);}
	.st3{fill:none;}
	.st4{fill:#9F6042;}
	.st5{fill:#A09D9D;}
	.st6{fill:#D3D3D3;stroke:#D34B1C;stroke-miterlimit:10;}
	.st7{fill:#D3D3D3;}
	.st8{fill:#D34B1C;}
</style>
<g id="Calque_3">
	<g id="_Repetition_miroir_">
		<g>
			<g>
				<defs>
					<polygon id="SVGID_1_" points="142.3,119.5 142.3,119.5 160.1,119.5 160.1,152.5 142.3,152.5 					"/>
				</defs>
				<clipPath id="SVGID_00000127744271062927522320000005547388763731404475_">
					<use xlink:href="#SVGID_1_"  style="overflow:visible;"/>
				</clipPath>
				<g style="clip-path:url(#SVGID_00000127744271062927522320000005547388763731404475_);">
					<path class="st1" d="M150.9,152.3c4.5-2.1,7-13.1,8.4-17.9c1-3.6,1.4-12.6-1.7-14.6c-2.7-1.8-12.3,3.8-12.3,3.8l-1,13.1
						l-2.1,13.9C142.3,150.7,148.9,153.3,150.9,152.3z"/>
				</g>
			</g>
		</g>
	</g>
	<g id="_Repetition_miroir_2">
		<g>
			<g>
				<defs>
					<polygon id="SVGID_00000111895040457782346150000010099119047034178213_" points="72.2,119.5 72.2,119.5 54.3,119.5 
						54.3,152.5 72.2,152.5 					"/>
				</defs>
				<clipPath id="SVGID_00000152972336360532225110000010588233067558015672_">
					<use xlink:href="#SVGID_00000111895040457782346150000010099119047034178213_"  style="overflow:visible;"/>
				</clipPath>
				<g style="clip-path:url(#SVGID_00000152972336360532225110000010588233067558015672_);">
					<path class="st1" d="M63.5,152.3c-4.5-2.1-7.1-13.1-8.4-17.9c-1-3.6-1.4-12.6,1.7-14.6c2.7-1.8,12.3,3.8,12.3,3.8l1,13.1
						l2.1,13.9C72.2,150.7,65.5,153.3,63.5,152.3z"/>
				</g>
			</g>
		</g>
	</g>
	<rect x="106.8" y="75.8" class="st3" width="41.5" height="111.8"/>
	<path class="st4" d="M147.3,110.7c-1.2-6.9-5.8-19.4-10.8-24.3c-5.8-5.7-16.9-9.4-26.2-10.4v-0.3c-1.1,0-2.2,0-3.3,0
		c-0.5,0-1.1,0-1.6,0v0.1C95,76.7,83.3,80.5,77.3,86.3c-5,4.9-9.6,17.4-10.8,24.3c-1.8,10.2,3.5,41.9,6.8,51.7
		c7.7,23.1,16.3,18.1,23,23c2.6,1.9,10.7,1.7,10.7,1.7s8.1,0.1,10.7-1.7c8-5.6,14.7-0.9,23-23C144.2,152.6,149.1,120.9,147.3,110.7z
		"/>
	<rect x="65.4" y="75.8" class="st3" width="41.5" height="111.8"/>
	<path class="st5" d="M66.6,125.9c0,0-8.6-3.1-9.6-7.1c-1-4-5.7-19-3.9-25.2c7-23.8,14.5-5.7,20.2-10l0,0
		c-6.8-6.1-3.9-13.5,1.3-20.7l0.5-0.2c13-5.6,27.6-6.8,41.3-3.5l2,0.5c0,0,22.6,4.9,28.4,9.7c5.3,4.5,12.2,17.6,13.1,24.5
		c0.6,4.8-1.6,17-2.6,22.4c-0.3,1.7-1.3,3.2-2.7,4.1l-8,5.5l-3.4-15.6c-0.1-0.3-0.2-0.6-0.3-0.9L138,95.7c-1-2.8-3.9-4.5-6.8-4.2
		l-23.4,2.7c-0.4,0-0.8,0.1-1.3,0l-24.3-2c-3.2-0.3-6.1,1.8-6.9,5l-2.9,12"/>
</g>
<g>
	<path class="st6" d="M136.8,54.2c0,0,28.6-2.2,16.3-35.8c-12.5-33.5-37.1-10-37.1-10s-9.4-11.9-31.6-6.9S56.1,20.9,56.1,20.9
		S16.8,8.6,20.1,54S69,65.4,69,65.4"/>
	<path class="st6" d="M48.1,62.7l5.8,41.9c0,0,49.8-40.8,96.5-31.4c-0.5-12.8-14.3-30.8-14.3-30.8S84.5,31.6,48.1,62.7z"/>
	<g>
		<path class="st7" d="M63.9,47.8c0,0,8.1,13.9,29,9.8s24.6-22.1,24.6-22.1"/>
		<path class="st8" d="M63.9,47.8c10.2,13.9,32.8,12.4,44.6,1.7c4.1-3.7,7.2-8.7,8.8-14C115.7,43.1,110.6,50,104,54
			C91.7,61.3,72.2,61.1,63.9,47.8L63.9,47.8z"/>
	</g>
</g>
</svg>
