<?xml version="1.0" encoding="utf-8"?>
<!-- Generator: Adobe Illustrator 26.0.2, SVG Export Plug-In . SVG Version: 6.00 Build 0)  -->
<svg version="1.1" id="Layer_1" xmlns="http://www.w3.org/2000/svg" xmlns:xlink="http://www.w3.org/1999/xlink" x="0px" y="0px"
	 viewBox="0 0 198 187.6" style="enable-background:new 0 0 198 187.6;" xml:space="preserve">
<style type="text/css">
	.st0{fill:none;}
	.st1{fill:#9F6042;}
	.st2{fill:none;stroke:#424242;stroke-miterlimit:10;}
	.st3{fill:#A09D9D;}
	.st4{clip-path:url(#SVGID_00000118392037610013036970000011594913785436932775_);}
	.st5{fill:#7F4B37;}
	.st6{clip-path:url(#SVGID_00000141423569592232650430000007463709405285952181_);}
	.st7{fill:#EFDA48;}
</style>
<g>
	<g id="Calque_3">
		<rect x="99" y="62" class="st0" width="41.7" height="112.3"/>
		<path class="st1" d="M139.6,97.1c-1.2-6.9-5.8-19.5-10.8-24.4c-5.8-5.7-17-9.4-26.3-10.4V62c-1.1,0-2.2,0-3.3,0
			c-0.5,0-1.1,0-1.6,0v0.1c-10.6,0.8-22.3,4.7-28.3,10.5c-5,4.9-9.6,17.5-10.8,24.4c-1.8,10.2,3.5,42.1,6.8,51.9
			c7.7,23.2,16.4,18.2,23.1,23.1c2.6,1.9,10.7,1.7,10.7,1.7s8.1,0.1,10.7-1.7c8-5.6,14.8-0.9,23.1-23.1
			C136.4,139.2,141.4,107.3,139.6,97.1z"/>
		<rect x="57.3" y="62" class="st0" width="41.7" height="112.3"/>
		<path class="st2" d="M103.6,40.3"/>
		<path class="st2" d="M98.5,80.5"/>
		<path class="st3" d="M59.7,90.6c1.3,19.9-2.1,47.2,10.3,65c3.8,5.5,12.9,4.6,7.2,8.3c-5.9,3.8-11.8,4.7-19-2c-6-5.6-12-8.8-20-9.9
			c-4-0.5-8.3-4.2-8-8.5c0.6-8.4-7.9-16.8-7.1-20c4.1-14.9-17.7-27.2-3-41.9c2.6-2.6-1.1-5-1.9-7.4c-1.3-3.8-2-9.3,0.8-10.4
			c15.7-6,14.3-32.1,36.1-30.5c2.8,0.2,3-3,4.3-4.8c1.8-2.6,3.8-7.1,6-7.2C81,20.2,93.9,10.7,112.5,14c18.7,3.3,27,20.5,44.3,22.1
			c3.7,0.3,6.8,4.1,7.5,7.6c1.6,7.9,5.9,12.8,13.3,15.5c0.8,0.3,1.4,1.2,2,1.9c4.4,5.3,4.9,36.1,0.1,41.5c-2.3,2.6-2,4.3-1.3,7.2
			c4,15.2-12,24.7-11.4,39c-15.8-0.5-24.5,23.3-43,14.3c-6.3-3.1-0.8-0.3,3.6-5.3c10.1-11.5,9.7-36.9,11.3-48.4
			c3.2-15.8-8.7-34.8-24.1-38.8c-3-0.8-4.3,0.3-5.8,2c-2.2,2.4-3.4,6.2-6.5,7.2C75.2,88.9,81.6,98.6,59.7,90.6z"/>
		<g id="_Repetition_miroir_">
			<g>
				<defs>
					<polygon id="SVGID_1_" points="135.5,105.9 135.5,105.9 153.4,105.9 153.4,139.2 135.5,139.2 					"/>
				</defs>
				<clipPath id="SVGID_00000162327144754891658910000004559937539380282754_">
					<use xlink:href="#SVGID_1_"  style="overflow:visible;"/>
				</clipPath>
				<g style="clip-path:url(#SVGID_00000162327144754891658910000004559937539380282754_);">
					<path class="st5" d="M144.2,139c4.5-2.1,7-13.2,8.4-18c1-3.6,1.4-12.7-1.7-14.7c-2.7-1.8-12.4,3.8-12.4,3.8l-1,13.2l-2.1,14
						C135.5,137.2,142.2,139.9,144.2,139z"/>
				</g>
			</g>
		</g>
		<g id="_Repetition_miroir_2">
			<g>
				<defs>
					<polygon id="SVGID_00000162313219692725011960000010366757861400342424_" points="63.8,106.3 63.8,106.3 45.9,105.5 
						44.6,138.8 62.4,139.5 					"/>
				</defs>
				<clipPath id="SVGID_00000023960081093782354160000007606943029990527626_">
					<use xlink:href="#SVGID_00000162313219692725011960000010366757861400342424_"  style="overflow:visible;"/>
				</clipPath>
				<g style="clip-path:url(#SVGID_00000023960081093782354160000007606943029990527626_);">
					<path class="st5" d="M53.7,139c-4.4-2.3-6.5-13.5-7.7-18.3c-0.9-3.6-0.9-12.8,2.3-14.7c2.8-1.7,12.2,4.3,12.2,4.3l0.4,13.3
						l1.6,14C62.5,137.6,55.7,140,53.7,139z"/>
				</g>
			</g>
		</g>
	</g>
	<g>
		<path class="st7" d="M58.8,138.7c3.8,3.8,4.4,10.2,2,15c-2,4.3-7.4,6.1-11.3,2.9c-6.1-5.1-5.5-17.2,1.5-21c1-0.5,2.2-0.6,3.1-0.3
			c-1.9,0.7-2.7,2.3-3.2,3.8c-1.2,4-0.7,9.8,2.3,12.7c1.1,1,2.1,0.1,3-1C58.8,147.5,59.5,143,58.8,138.7L58.8,138.7z"/>
	</g>
	<g>
		<path class="st7" d="M139.8,138.7c-0.7,4.3,0,8.8,2.5,12.3c0.9,1,1.9,2,3,1c3-2.9,3.5-8.7,2.3-12.7c-0.5-1.5-1.3-3.1-3.2-3.8
			c1-0.3,2.1-0.2,3.1,0.3c7,3.8,7.6,15.9,1.5,21c-3.9,3.2-9.2,1.4-11.3-2.9C135.4,148.9,136,142.4,139.8,138.7L139.8,138.7z"/>
	</g>
</g>
</svg>
