<?xml version="1.0" encoding="utf-8"?>
<!-- Generator: Adobe Illustrator 26.0.2, SVG Export Plug-In . SVG Version: 6.00 Build 0)  -->
<svg version="1.1" id="Layer_1" xmlns="http://www.w3.org/2000/svg" xmlns:xlink="http://www.w3.org/1999/xlink" x="0px" y="0px"
	 viewBox="0 0 788 1005.1" style="enable-background:new 0 0 788 1005.1;" xml:space="preserve">
<style type="text/css">
	.st0{clip-path:url(#SVGID_00000076575034677401537620000005344295692713427613_);}
	.st1{fill:#7F4B37;}
	.st2{clip-path:url(#SVGID_00000138571051632378811560000001923853207352795023_);}
	.st3{fill:none;}
	.st4{fill:#9F6042;}
	.st5{fill:#A09D9D;}
	.st6{fill:#BBB3A7;}
	.st7{fill:#C2BAA9;}
	.st8{fill:#ED5875;}
</style>
<g id="_Repetition_miroir_">
	<g>
		<g>
			<defs>
				<polygon id="SVGID_1_" points="408,157.8 408,157.8 425.7,157.8 425.7,190.8 408,190.8 				"/>
			</defs>
			<clipPath id="SVGID_00000163052315325357060170000018282290321966248328_">
				<use xlink:href="#SVGID_1_"  style="overflow:visible;"/>
			</clipPath>
			<g style="clip-path:url(#SVGID_00000163052315325357060170000018282290321966248328_);">
				<path class="st1" d="M416.6,190.6c4.5-2.1,7-13.1,8.3-17.9c1-3.5,1.4-12.6-1.6-14.6c-2.7-1.8-12.3,3.8-12.3,3.8l-0.9,13.1
					l-2.1,13.8C408,188.9,414.6,191.6,416.6,190.6z"/>
			</g>
		</g>
	</g>
</g>
<g id="_Repetition_miroir_2">
	<g>
		<g>
			<defs>
				<polygon id="SVGID_00000008849327625744498880000005062831225281810088_" points="338.1,157.8 338.1,157.8 320.3,157.8 
					320.3,190.8 338.1,190.8 				"/>
			</defs>
			<clipPath id="SVGID_00000124853622447611067810000015050105650622344329_">
				<use xlink:href="#SVGID_00000008849327625744498880000005062831225281810088_"  style="overflow:visible;"/>
			</clipPath>
			<g style="clip-path:url(#SVGID_00000124853622447611067810000015050105650622344329_);">
				<path class="st1" d="M329.4,190.6c-4.5-2.1-7-13.1-8.3-17.9c-1-3.5-1.4-12.6,1.7-14.6c2.7-1.8,12.3,3.8,12.3,3.8l1,13.1
					l2.1,13.9C338.1,188.9,331.4,191.6,329.4,190.6z"/>
			</g>
		</g>
	</g>
</g>
<rect x="373" y="113.8" class="st3" width="41.7" height="112.3"/>
<path class="st4" d="M413.7,148.9c-1.2-6.9-5.8-19.5-10.8-24.4c-5.8-5.7-17-9.4-26.3-10.4v-0.3c-1.1,0-2.2,0-3.3,0
	c-0.5,0-1.1,0-1.6,0v0.1c-10.6,0.8-22.3,4.7-28.3,10.5c-5,4.9-9.6,17.5-10.8,24.4c-1.8,10.2,3.5,42.1,6.8,51.9
	c7.7,23.2,16.4,18.2,23.1,23.1c2.6,1.9,10.7,1.7,10.7,1.7s8.1,0.1,10.7-1.7c8-5.6,14.8-0.9,23.1-23.1
	C410.5,191,415.5,159.1,413.7,148.9z"/>
<rect x="331.4" y="113.8" class="st3" width="41.7" height="112.3"/>
<g>
	<path class="st5" d="M401.7,137.4c-10.1-11-42.1,8.6-59.5-1.5c-2.4-2.8-6,2.1-2.9-3.7c-0.1,8.3-1.8,17.5,0.4,26.7
		c-6.4,17.7-0.5,50.6,6.7,60.6c-4.6-3.6-9.5-4.1-10.8-11.6c-4.2-17.1-6.7-32-17.5-43.6c-5.6-6.1-7.2-13.6-7.1-21.8
		c0.2-30.1,27.4-58.8,57.4-60.5c32.8-1.8,62.8,22.5,66.5,53.8c1.4,12.2-0.2,23.4-9.6,32.4c-9.9,9.5-9.3,24.5-11.2,38.2
		c-1.4,10.3-4.9,16.3-18.1,13.9c10.7-2.2,13.1-9.3,14-18.6c1.8-17.5-3.4-37.1-1.6-54.6c2.5-5.3-2.2-9.9-0.9-15.8
		C404.3,135.7,402.1,132.1,401.7,137.4z"/>
	<path class="st6" d="M400.3,137.8c-1.5-7.7,9.2-9-0.3-17.2c11.1,6.5,11.5,16,8.5,26.5C407,142,407.3,136.9,400.3,137.8z"/>
	<path class="st7" d="M339.7,158.9c-3.3-13.8-6.2-27.6,6.6-38.5c-3.3,6.7-7.2,9.8-1.5,16.9C334.5,140.7,342.8,153.2,339.7,158.9z"/>
</g>
<path class="st8" d="M337.6,145.7l11.6-4.6c14.4-5.7,30.8-6,45.3-0.6l14.3,5.3c2.7,1,5.7,3.6,6.4,1l0.7-2.9
	c0.9-3.4-7.4-18.6-14.6-24c-5.1-3.8-11.1-6.2-17.5-7c-6-0.7-12-0.8-18-0.2c-5.7,0.5-11.1,2.5-15.9,5.6c-9,5.8-20.8,23.2-19.9,25.9
	l1.1,2.9C332,149.5,335,146.7,337.6,145.7z"/>
</svg>
