<?xml version="1.0" encoding="utf-8"?>
<!-- Generator: Adobe Illustrator 26.0.2, SVG Export Plug-In . SVG Version: 6.00 Build 0)  -->
<svg version="1.1" id="Layer_1" xmlns="http://www.w3.org/2000/svg" xmlns:xlink="http://www.w3.org/1999/xlink" x="0px" y="0px"
	 viewBox="0 0 788 1005.1" style="enable-background:new 0 0 788 1005.1;" xml:space="preserve">
<style type="text/css">
	.st0{fill:#A09D9D;}
	.st1{clip-path:url(#SVGID_00000180350466681151871600000000545408048226273215_);}
	.st2{fill:#7F4B37;}
	.st3{clip-path:url(#SVGID_00000162331237098037299260000015714564083721819802_);}
	.st4{fill:none;}
	.st5{fill:#9F6042;}
	.st6{fill:#E2D85A;}
</style>
<path class="st0" d="M418.8,163.5c-12.1,6.5-12.8-24.2-13.8-25.9c-3-1.2-7,1.4-10.2,0.5c-7.4-1.9-28.7,1.2-31.9,3.3
	c-0.8,0.5,13.1,16,12.3,16.6c-7.3,5.6-17.1,29.2-16.7,40.1c0.6,16.7-24-19.4-36.7-39.1c-4.9-7.6-13.1-31.6-10.7-40.3
	c7.7-28,28.3-43.2,59.2-36.1c12.1,2.8,8,5,11.9,3.8c13-4,67.7-2.2,41.1,63.5C420.5,156.9,420.3,160.3,418.8,163.5z"/>
<g id="_Repetition_miroir_">
	<g>
		<defs>
			<polygon id="SVGID_1_" points="408.6,157.7 408.6,157.7 426.5,157.7 426.5,190.9 408.6,190.9 			"/>
		</defs>
		<clipPath id="SVGID_00000088854986891780293000000008436462118811010748_">
			<use xlink:href="#SVGID_1_"  style="overflow:visible;"/>
		</clipPath>
		<g style="clip-path:url(#SVGID_00000088854986891780293000000008436462118811010748_);">
			<path class="st2" d="M417.3,190.7c4.5-2.1,7-13.2,8.4-18c1-3.6,1.4-12.7-1.7-14.7c-2.7-1.8-12.4,3.8-12.4,3.8l-1,13.2l-2.1,14
				C408.6,189,415.3,191.7,417.3,190.7z"/>
		</g>
	</g>
</g>
<g id="_Repetition_miroir_2">
	<g>
		<defs>
			<polygon id="SVGID_00000138536404053028320890000016055995362963975828_" points="338.2,157.7 338.2,157.7 320.3,157.7 
				320.3,190.9 338.2,190.9 			"/>
		</defs>
		<clipPath id="SVGID_00000163768616426404358340000006780548605455252148_">
			<use xlink:href="#SVGID_00000138536404053028320890000016055995362963975828_"  style="overflow:visible;"/>
		</clipPath>
		<g style="clip-path:url(#SVGID_00000163768616426404358340000006780548605455252148_);">
			<path class="st2" d="M329.5,190.7c-4.5-2.1-7-13.2-8.4-18c-1-3.6-1.4-12.7,1.7-14.7c2.7-1.8,12.4,3.8,12.4,3.8l1,13.2l2.1,14
				C338.2,189,331.5,191.7,329.5,190.7z"/>
		</g>
	</g>
</g>
<rect x="373" y="113.8" class="st4" width="41.7" height="112.3"/>
<path class="st5" d="M413.7,148.9c-1.2-6.9-5.8-19.5-10.8-24.4c-5.8-5.7-17-9.4-26.3-10.4v-0.3c-1.1,0-2.2,0-3.3,0
	c-0.5,0-1.1,0-1.6,0v0.1c-10.6,0.8-22.3,4.7-28.3,10.5c-5,4.9-9.6,17.5-10.8,24.4c-1.8,10.2,3.5,42.1,6.8,51.9
	c7.7,23.2,16.4,18.2,23.1,23.1c2.6,1.9,10.7,1.7,10.7,1.7s8.1,0.1,10.7-1.7c8-5.6,14.8-0.9,23.1-23.1
	C410.5,191,415.5,159.1,413.7,148.9z"/>
<rect x="331.4" y="113.8" class="st4" width="41.7" height="112.3"/>
<path class="st0" d="M331.4,158.5c-0.3-4.2,7.7-31.4,11.7-30.5c11.8,2.7,28.9,4.4,30,4.5c1.9,0.1,18.8-0.8,30.6-4.5
	c5.4-1.7,10.3,31.9,10.3,31.9l6.5-2.3l1.7-49.4l-94.3,0.8L331.4,158.5z"/>
<ellipse class="st6" cx="329.6" cy="194.8" rx="1.8" ry="10"/>
<ellipse class="st6" cx="416.5" cy="194.8" rx="1.8" ry="10"/>
</svg>
