<?xml version="1.0" encoding="utf-8"?>
<!-- Generator: Adobe Illustrator 26.0.2, SVG Export Plug-In . SVG Version: 6.00 Build 0)  -->
<svg version="1.1" id="Layer_1" xmlns="http://www.w3.org/2000/svg" xmlns:xlink="http://www.w3.org/1999/xlink" x="0px" y="0px"
	 viewBox="0 0 198 187.6" style="enable-background:new 0 0 198 187.6;" xml:space="preserve">
<style type="text/css">
	.st0{clip-path:url(#SVGID_00000108283657619353749230000005681067110375701641_);}
	.st1{fill:#7F4B37;}
	.st2{clip-path:url(#SVGID_00000047761865941053695470000009974038401418881709_);}
	.st3{fill:none;}
	.st4{fill:#9F6042;}
	.st5{fill:#A09D9D;}
	.st6{fill:#E8D66D;}
</style>
<g>
	<g id="_Repetition_miroir_">
		<g>
			<defs>
				<polygon id="SVGID_1_" points="144.1,95.5 144.1,95.5 161.9,95.5 161.9,128.5 144.1,128.5 				"/>
			</defs>
			<clipPath id="SVGID_00000132077845792892529500000004672804002052219571_">
				<use xlink:href="#SVGID_1_"  style="overflow:visible;"/>
			</clipPath>
			<g style="clip-path:url(#SVGID_00000132077845792892529500000004672804002052219571_);">
				<path class="st1" d="M152.8,128.3c4.5-2.1,7-13.1,8.3-17.9c1-3.5,1.4-12.6-1.6-14.6c-2.7-1.8-12.3,3.8-12.3,3.8l-0.9,13.1
					l-2.1,13.8C144.1,126.6,150.8,129.3,152.8,128.3z"/>
			</g>
		</g>
	</g>
	<g id="_Repetition_miroir_2">
		<g>
			<defs>
				<polygon id="SVGID_00000098188237453090501900000007223532541511958145_" points="74.2,95.5 74.2,95.5 56.5,95.5 56.5,128.5 
					74.2,128.5 				"/>
			</defs>
			<clipPath id="SVGID_00000156545875807879628580000002724536275366373555_">
				<use xlink:href="#SVGID_00000098188237453090501900000007223532541511958145_"  style="overflow:visible;"/>
			</clipPath>
			<g style="clip-path:url(#SVGID_00000156545875807879628580000002724536275366373555_);">
				<path class="st1" d="M65.5,128.3c-4.5-2.1-7-13.1-8.3-17.9c-1-3.5-1.4-12.6,1.7-14.6c2.7-1.8,12.3,3.8,12.3,3.8l1,13.1l2.1,13.9
					C74.2,126.6,67.5,129.3,65.5,128.3z"/>
			</g>
		</g>
	</g>
	<rect x="109.2" y="51.5" class="st3" width="41.7" height="112.3"/>
	<path class="st4" d="M149.8,86.6c-1.2-6.9-5.8-19.5-10.8-24.4c-5.8-5.7-17-9.4-26.3-10.4v-0.3c-1.1,0-2.2,0-3.3,0
		c-0.5,0-1.1,0-1.6,0v0.1c-10.6,0.8-22.3,4.7-28.3,10.5c-5,4.9-9.6,17.5-10.8,24.4c-1.8,10.2,3.5,42.1,6.8,51.9
		c7.7,23.2,16.4,18.2,23.1,23.1c2.6,1.9,10.7,1.7,10.7,1.7s8.1,0.1,10.7-1.7c8-5.6,14.8-0.9,23.1-23.1
		C146.6,128.7,151.6,96.8,149.8,86.6z"/>
	<rect x="67.5" y="51.5" class="st3" width="41.7" height="112.3"/>
	<path class="st5" d="M147.4,105.8c-1.5-0.6-2.1-11.1-3.9-19.6c-4.1-19.2-41.4-14.5-44.6-15.3c-4.4-1-6.9-2.1-8.3-3.1
		c-0.7,6.6-4.6,10.8-8.5,15.3C77,89,72,95.4,74.6,108.3c0.3,1.5,5,11.9,6.9,22.7c1.5,8.3,1.4,9.9,0.6,11.4s-3.7,7.7-13.2,9
		c15.4-36.3-41.3-31.6-31.6-63c3.3-10.8,14.7-22.1,23-29.1c2.8-2.5,5.9-4.8,9-6.9c0,0-8-10.2,5.9-20.8c0.6-0.4,1.3-0.9,2-1.3
		C85.8,25,96,23,106,24.1c20.2,2.2,53.1,12,53,52C166.8,98.1,148.9,106.4,147.4,105.8z"/>
	<path class="st6" d="M153.2,123.5H152c-0.8,0-1.6,0.5-1.9,1.3l-1.2,3.2c-0.2,0.5-0.2,1,0,1.4l1.2,3.2c0.3,0.8,1.1,1.3,1.9,1.3h1.2
		c0.8,0,1.6-0.5,1.9-1.3l1.2-3.2c0.2-0.5,0.2-1,0-1.4l-1.2-3.2C154.8,124.1,154,123.5,153.2,123.5z"/>
</g>
</svg>
