<?xml version="1.0" encoding="utf-8"?>
<!-- Generator: Adobe Illustrator 26.0.2, SVG Export Plug-In . SVG Version: 6.00 Build 0)  -->
<svg version="1.1" id="Calque_1" xmlns="http://www.w3.org/2000/svg" xmlns:xlink="http://www.w3.org/1999/xlink" x="0px" y="0px"
	 viewBox="0 0 788 1005" style="enable-background:new 0 0 788 1005;" xml:space="preserve">
<style type="text/css">
	.st0{fill:#D68F72;}
	.st1{fill:#8E5736;}
	.st2{fill:#7EA885;}
	.st3{fill:#7C8C7E;}
</style>
<path class="st0" d="M330,709.2c1.3,5.8,9,10.3,18.1,10.4l0,0c8.7,0.1,16.1-3.8,17.7-9.3c0,0,9.4-39.3,9.6-53.4
	c0-3.3-1.7-13.3-1.7-13.3l-4.2-23.3c0,0-2.9-11-20.8-12.3c-20.6-1.5-21,5.6-21,5.6s-6.6,37-6.4,48.7C321.6,673,330,709.2,330,709.2z
	"/>
<path class="st0" d="M477.2,704.9c0.8,5.9-5.2,10.9-14.1,11.8l0,0c-8.5,0.9-17.2-2.3-20.8-7.6c0,0-23.3-37.8-28.6-51.7
	c-1.2-3.3-3.1-13.3-3.1-13.3l-4.2-23.3c0,0-1-11.1,16.1-14c19.7-3.4,22.6,3.7,22.6,3.7s19.7,35.8,23.7,47.3
	C472.6,668.5,477.2,704.9,477.2,704.9z"/>
<path class="st1" d="M348,699.9c-9.8,0.1-15.6,2.8-17.1,7.2c0,0-1.6,19.5-1.8,27.7c-0.4,13.2,2.6,40,6.9,53c0.9,2.8,3,11.4,3,11.4
	c0.7,2.5,4.9,4.4,9.6,4.3l0,0c4.7-0.1,8.5-2.1,8.8-4.6c0,0,0.9-9.9,1.5-13.2c2.4-11.9,10.1-35.7,10.7-47.7
	c0.3-7.2-2.5-29.3-2.5-29.3C366.1,701.4,356.5,700,348,699.9L348,699.9z"/>
<path class="st1" d="M460.4,695.8c9.7-0.7,16.2,1.5,18.9,5.8c0,0,8,18.4,10.6,26.6c4.1,13.2,3.6,65.3,3.6,65.3
	c0.1,2.6,0.3,6.1-4.5,6.4l0,0c-4.7,0.3-10.4-0.8-11.4-3.3c0,0-23.8-48.7-27.7-60.7c-2.4-7.2-5.8-29.7-5.8-29.7
	C443,698.9,452.1,696.6,460.4,695.8z"/>
<path class="st2" d="M336,798.7L336,798.7c-4.3,4.8-22.2,11.2-22.2,11.2c-3.2,1.3-4.8,3.5-4,5.7l0,0l43.9-0.1l2.4-0.4
	c2.8-0.5,4.7-1.9,4.4-3.5L358,800c-1.3-2.9-6.2-5.8-11.6-4.8C343.5,795.6,338.2,797.2,336,798.7z"/>
<path class="st3" d="M310.9,815.1L310.9,815.1c-0.6-1.9,1.9-3.7,5.5-4l26.1-1.7c3.4-0.3,6.5,0.5,7.3,2.3l1.5,3.3L310.9,815.1z"/>
<path class="st2" d="M487.2,797.9c4.5-1.1,4-3.3,5.7-4.5c1-0.7,5.6-1.6,6.3-0.7c8.6,10.3,30,18.8,30,18.8c4,1.7,5.1,4.1,4.6,6.7l0,0
	c0,0-16.9,3.5-33.6,1.3c-3.6-0.5-12.1-1.5-12.1-1.5s-15.5,0.3-14.9-2.9l1.7-19C476,792.7,479.4,799.9,487.2,797.9z"/>
<polygon class="st2" points="306.5,738.1 382,739.8 402.2,669.9 428.5,736.8 510.2,727.9 453.7,588.5 451.5,582.2 332.5,583.1 "/>
<path class="st3" d="M314.6,687.2l-8.3,0.2c-2.4,0.1-4.3-2.2-3.8-4.6l5.5-27.5c0.1-0.7,0.5-1.4,1-1.9l6.9-6.9
	c2.6-2.6,6.9-0.5,6.5,3.1l-4.1,34.2C318.1,685.7,316.5,687.1,314.6,687.2z"/>
<path class="st3" d="M492.2,684.7l11.2-4.5c2-0.8,3-3.2,2-5.2l-13.1-27.3c-0.5-1-1.3-1.7-2.4-2l-15.5-4.5c-3.2-0.9-5.9,2.3-4.5,5.3
	l17.4,36.2C488.2,684.6,490.3,685.4,492.2,684.7z"/>
<path class="st3" d="M381.7,742.6l-78.9-1.5c-2.2,0-3.7-2.2-3-4.3l2.7-7.6c0.5-1.4,1.8-2.3,3.3-2.1l76.2,6.2c1.7,0.1,3,1.5,3,3.2v3
	C385,741.2,383.5,742.7,381.7,742.6z"/>
<path class="st3" d="M512.7,731.1l-88.7,6.6c-1.8,0.1-3.3-1.2-3.5-3l-0.6-7.8c-0.2-1.9,1.3-3.5,3.2-3.5l89.4-0.9
	c1.8,0,3.3,1.4,3.3,3.2v2.1C515.7,729.6,514.4,731,512.7,731.1z"/>
</svg>
