<?xml version="1.0" encoding="utf-8"?>
<!-- Generator: Adobe Illustrator 26.0.2, SVG Export Plug-In . SVG Version: 6.00 Build 0)  -->
<svg version="1.1" id="Calque_1" xmlns="http://www.w3.org/2000/svg" xmlns:xlink="http://www.w3.org/1999/xlink" x="0px" y="0px"
	 viewBox="0 0 788 1005" style="enable-background:new 0 0 788 1005;" xml:space="preserve">
<style type="text/css">
	.st0{fill:#D68F72;}
	.st1{fill:#8E5736;}
	.st2{fill:#3D5760;}
	.st3{fill:#42626B;}
	.st4{fill:#DBC5B4;}
	.st5{fill:#F2D5BD;}
</style>
<path class="st0" d="M329.6,708.9c1.3,5.9,9,10.3,18.1,10.4l0,0c8.7,0.1,16.1-3.8,17.7-9.3c0,0,9.4-39.3,9.6-53.4
	c0-3.3-1.7-13.3-1.7-13.3l-4.2-23.3c0,0-2.9-11-20.8-12.3c-20.6-1.5-21,5.6-21,5.6s-6.6,37-6.4,48.7
	C321.2,672.7,329.6,708.9,329.6,708.9z"/>
<path class="st0" d="M476.8,704.6c0.8,5.9-5.2,10.9-14.1,11.8l0,0c-8.5,0.9-17.2-2.3-20.8-7.6c0,0-23.3-37.8-28.6-51.7
	c-1.2-3.3-3.1-13.3-3.1-13.3l-4.2-23.3c0,0-1-11.1,16.1-14c19.7-3.4,22.7,3.7,22.7,3.7s19.7,35.8,23.7,47.3
	C472.2,668.2,476.8,704.6,476.8,704.6z"/>
<path class="st1" d="M347.6,699.6c-9.8,0.1-15.6,2.8-17.1,7.2c0,0-1.6,19.5-1.8,27.7c-0.4,13.2,2.6,40,6.9,53
	c0.9,2.8,2.9,11.4,2.9,11.4c0.7,2.6,4.9,4.4,9.6,4.3l0,0c4.7-0.1,8.5-2.1,8.8-4.6c0,0,0.9-9.9,1.5-13.2
	c2.4-11.9,10.1-35.7,10.7-47.7c0.3-7.2-2.5-29.3-2.5-29.3C365.7,701.1,356.1,699.7,347.6,699.6L347.6,699.6z"/>
<path class="st1" d="M460,695.5c9.7-0.7,16.2,1.5,18.9,5.8c0,0,8,18.4,10.6,26.6c4.1,13.2,3.6,65.3,3.6,65.3
	c0.1,2.6,0.3,6.1-4.5,6.4l0,0c-4.7,0.3-10.4-0.8-11.4-3.3c0,0-23.8-48.7-27.7-60.7c-2.4-7.2-5.9-29.6-5.9-29.6
	C442.5,698.6,451.6,696.4,460,695.5L460,695.5z"/>
<path class="st2" d="M360.5,785.4l-25.9-1.1c-4.4,0-11.9,9.7-13.7,11.8l14.6,1.9c-4.3,4.8-22.2,11.2-22.2,11.2
	c-3.2,1.3-4.8,3.5-4,5.7l0,0l43.9-0.1l2.5-0.4c2.8-0.5,4.7-1.9,4.4-3.5l-2.5-11.6C356.2,796.4,362.2,785.5,360.5,785.4z"/>
<path class="st3" d="M310.5,814.8L310.5,814.8c-0.6-1.9,1.9-3.7,5.5-4l26.1-2.1c3.4-0.3,6.5,0.9,7.3,2.6l1.5,3.3L310.5,814.8z"/>
<path class="st2" d="M468.7,784.3c4.4-1.2,26.3-5.3,29.2-3.8c10.3,5.2-2,3.8-2,3.8l3.9,10.3c-0.8-1,1.6,7.9,28.4,9.1
	c4,1.7,6.6,7.4,6,10l0,0c0,0-19.7,4.8-33.9,0.5c-3.4-1-12.1,0-12.1,0s-15.5,0.3-14.9-2.9l1.3-15.8
	C468.2,785.4,466.4,784.9,468.7,784.3z"/>
<path class="st3" d="M534.6,813.7c0.2-4.2-3.7-6.7-4.9-6.6c-1.8,0.2-1.1,0.8-2.8,1.1c-2.8,0.4-11.5,0.2-11.5,0.2
	c-1.9-0.2-3.7,1.2-3.9,3.1c0,0.1,0,0.2,0,0.3l0.2,4c0,0,1.8,0.7,14.2-0.8C527.8,814.7,534.6,813.7,534.6,813.7z"/>
<polygon class="st4" points="327.9,765.6 365.4,764.7 360.5,782.1 332.6,779.7 "/>
<path class="st4" d="M459.6,762.6l34.3-7.2c1.4-1,0.3,20.7,0.3,20.7L467,780L459.6,762.6z"/>
<path class="st5" d="M298.8,753.8l17.5,8.2c8.1,3.8,16.8,5.9,25.7,6.2l11.2,0.4c4.4,0.2,8.7-0.3,13-1.4l1.3-0.3
	c11.7-3.1,21.2-11.7,25.3-23.1l3.9-10.7c2.2-6.1,10.2-7.5,14.3-2.5l18.8,22.6c5.7,6.8,13.1,11.9,21.5,14.7l11,3.6
	c8.2,2.7,17.2,2.2,25-1.5c2.6-1.2,5.5-2.7,8.8-4.6c5.9-3.4,11.1-6.4,15.5-9.2c13.2-8.1,17.8-25.2,10.4-38.9l-67.9-125.1
	c-0.2-0.4-0.4-0.8-0.5-1.2h0c-1.2-3.4-4.4-5.6-8-5.6l-110.6,0.7c-3.5,0-6.7,2.3-7.8,5.6L283,716
	C277.7,730.8,284.6,747.2,298.8,753.8z"/>
</svg>
