<?xml version="1.0" encoding="utf-8"?>
<!-- Generator: Adobe Illustrator 26.0.2, SVG Export Plug-In . SVG Version: 6.00 Build 0)  -->
<svg version="1.1" id="Calque_1" xmlns="http://www.w3.org/2000/svg" xmlns:xlink="http://www.w3.org/1999/xlink" x="0px" y="0px"
	 viewBox="0 0 200.3 242.1" style="enable-background:new 0 0 200.3 242.1;" xml:space="preserve">
<style type="text/css">
	.st0{fill:#8E5736;}
	.st1{fill:#333333;}
	.st2{fill:#191919;}
	.st3{fill:none;stroke:#1C1C1C;stroke-width:2;stroke-linecap:round;stroke-miterlimit:10;}
	.st4{fill:#DBDBDB;}
</style>
<path class="st0" d="M40.4,122.1c-10.8,0.1-17.1,2.8-18.7,7.2c0,0-1.7,19.5-2,27.7c-0.4,13.2,2.9,40,7.6,53c1,2.8,3.2,11.4,3.2,11.4
	c0.7,2.6,5.3,4.4,10.6,4.3l0,0c5.2-0.1,9.3-2.1,9.6-4.6c0,0,0.9-9.9,1.6-13.2c2.6-11.9,11.1-35.7,11.7-47.7
	c0.4-7.2-2.7-29.3-2.7-29.3C60.2,123.6,49.7,122.2,40.4,122.1L40.4,122.1z"/>
<path class="st0" d="M132.5,111.4c10.3,1.9,17,6,19.6,11.1c0,0,7.4,21,9.6,30.1c3.5,14.6-0.2,67.8-0.2,67.8
	c-0.1,2.7-0.1,6.3-5.2,5.3l0,0c-5-1-11-3.7-11.9-6.5c0,0-22.2-56.4-25.6-69.7c-2-8-4.4-32-4.4-32
	C113.9,109.7,123.7,109.9,132.5,111.4L132.5,111.4z"/>
<path class="st1" d="M40.8,216.9L40.8,216.9c-4.9,0-9.2,1.4-11.3,3.5l0,0c-4.7,4.8-24.4,11.2-24.4,11.2c-3.5,1.3-5.2,3.5-4.4,5.7
	l0,0l48.2-0.1l2.7-0.4c3.1-0.5,5.1-1.9,4.8-3.5l-2.8-11.6C52.2,218.9,46.8,216.9,40.8,216.9z"/>
<path class="st2" d="M2,237.3L2,237.3c-0.7-1.9,2-3.7,6-4l28.7-2.1c3.7-0.3,7.2,0.9,8,2.6l1.6,3.3L2,237.3z"/>
<path class="st3" d="M30.6,221.6c2.3-0.8,4.6-1.3,7-1.4c2.7,0,5.4,0.4,8,1.1"/>
<path class="st3" d="M27.2,224.2c2.3-0.8,4.7-1.2,7.1-1.3c2.7,0,5.4,0.5,8,1.2"/>
<path class="st1" d="M153.7,220.2c3.3-1.1,2.8-3.5,4-4.7c0.7-0.8,4-1.7,4.6-0.7c7,11.3,34.7,17.3,34.7,17.3c2.6,1.4,4.1,4.3,3.8,7.3
	l0,0c0,0-23.2,5.7-36.2-0.7c-2.6-1.3-9-1.9-9-1.9s-11.5,0-11.2-3.4l0.2-15.4C145.2,214.3,148.1,222.1,153.7,220.2z"/>
<path class="st4" d="M93.6,55.2L93.6,55.2c0,0-7.5,0.6-3.7,5.2c2.7,3.2,13.8,30.2,20.2,46.2c3.1,7.6,3.2,29.8,4.3,38
	c3.1,24.1,11.7,61.8,12.9,63.4c0,0,26.4-1.3,38.4-2.8c3.6-0.4,6.2-3.5,6.3-7.1l0.5-67.3l-2.2-17.2l-21.5-87.5
	c-0.9-3.6-2.3-7.1-4.1-10.3l-3.3-5.7c-2.8-4.9-8-8.1-13.6-8.4C101.6,0.4,28.2-3.1,26.5,1.3c-1.3,3.2,1-2.9-2.1,5.2
	c-7.2,18.9-6.9,80.1-6.9,80.1l0.2,126l43.3-1.6L93.6,55.2z"/>
<path class="st2" d="M181.9,242l-6.1-0.5c-0.7-1.9,2.2-5.2,4.7-5.5l11.5-2.2c7.6-1.2,8.3,1.5,8.6,3.5l0.1,2.1l-1.9,0.5
	C193.4,241.5,187.7,242.2,181.9,242z"/>
<path class="st3" d="M160,222c2.6-0.7,5.3-1.1,8-1.1c2.4,0.1,4.7,0.6,7,1.4"/>
<path class="st3" d="M163.3,224.8c2.6-0.7,5.3-1.2,8-1.2c2.4,0.1,4.8,0.5,7.1,1.3"/>
</svg>
