<?xml version="1.0" encoding="utf-8"?>
<!-- Generator: Adobe Illustrator 26.0.2, SVG Export Plug-In . SVG Version: 6.00 Build 0)  -->
<svg version="1.1" id="Calque_1" xmlns="http://www.w3.org/2000/svg" xmlns:xlink="http://www.w3.org/1999/xlink" x="0px" y="0px"
	 viewBox="0 0 218.4 235.4" style="enable-background:new 0 0 218.4 235.4;" xml:space="preserve">
<style type="text/css">
	.st0{fill:#FFFFFF;}
	.st1{fill:#D68F72;}
	.st2{fill:#8E5736;}
	.st3{fill:#2E3532;}
	.st4{fill:#D34B1C;}
	.st5{fill:#D3D3D3;}
	.st6{fill:none;stroke:#D34B1C;stroke-width:2;stroke-linecap:round;stroke-miterlimit:10;}
</style>
<path class="st0" d="M23.3,126.3c1.3,5.9,9,10.3,18.1,10.4l0,0c8.7,0.1,16.1-3.8,17.7-9.3c0,0,9.4-39.3,9.6-53.4
	c0-3.3-1.7-13.3-1.7-13.3l-4.2-23.3c0,0-2.9-11-20.8-12.3c-20.6-1.6-21,5.6-21,5.6s-6.6,37-6.4,48.7
	C14.8,90.1,23.3,126.3,23.3,126.3z"/>
<path class="st1" d="M164.3,122.5c0.5,5.9-5.8,10.8-14.7,11.6l0,0c-8.5,0.8-17-2.5-20.3-7.9c0,0-21.2-38.1-25.7-52.1
	c-1.1-3.3-2.4-13.3-2.4-13.3l-2.9-23.3c0,0-0.4-11.1,16.9-13.8c19.9-3.1,22.5,4,22.5,4s17.7,36,21,47.6
	C161.6,86.1,164.3,122.5,164.3,122.5z"/>
<path class="st2" d="M41.2,117c-9.8,0.1-15.6,2.8-17.1,7.2c0,0-1.6,19.5-1.8,27.7c-0.4,13.2,2.6,40,6.9,53c0.9,2.8,3,11.4,3,11.4
	c0.7,2.6,4.9,4.4,9.6,4.3l0,0c4.7-0.1,8.5-2.1,8.8-4.6c0,0,0.9-9.9,1.5-13.2c2.4-11.9,10.1-35.7,10.7-47.7
	c0.3-7.2-2.5-29.3-2.5-29.3C59.4,118.5,49.8,117,41.2,117L41.2,117z"/>
<path class="st2" d="M147.9,113.3c9.8-0.6,16.1,1.8,18.5,6l0,0c3.4,13.2,9.1,92.1,9.1,92.1c-0.1,2.6-0.1,6.1-4.9,6.3l0,0
	c-4.7,0.2-10.4-0.9-11.2-3.5c0,0-21-49-24.3-61.1c-2-7.3-4.2-29.8-4.2-29.8C130.4,116,139.6,113.9,147.9,113.3L147.9,113.3z"/>
<path class="st3" d="M28.3,41.7c-0.5,1.9-7.9,88.6-10.4,118.4c-0.5,6.5,0.2,13.1,2.2,19.3l10.3,30.8l21,0.3c0,0,8.2-16.6,13.1-28
	c1.9-4.3,2.9-9,3.1-13.8c0.7-24.4,3-103.1,4.5-109.9C74.6,47.8,28.9,39.5,28.3,41.7z"/>
<path class="st3" d="M113.6,50c0,2,13.7,87.9,18.4,117.4c1.1,6.4,3.3,12.7,6.8,18.2l18.3,26.3l18.8-4.4c0,0,4.7-17.4,6.7-29.7
	c0.8-4.6,0.6-9.4-0.3-14.1C177.1,139.9,160.3,63,160.1,56C159.9,44.8,113.7,47.7,113.6,50z"/>
<path class="st4" d="M25.5,0.4l-0.8,0.5c-2.8,2.1-4.8,4.3-5.5,6.8l-20,101.1c-0.5,1.8,2.1,3.5,6.1,3.7c20.6,1.4,53.5,5.4,83.1,5.4
	c29,0,76.3-3.2,93.8-4.5c3.9-0.3,6.4-1.9,5.9-3.6l-39.6-103c-0.4-1.7-1.8-3.3-4-4.7l-1.8-1.2L25.5,0.4z"/>
<path class="st5" d="M41.5,211.8L41.5,211.8c-4.4,0-8.4,1.4-10.3,3.5l0,0c-4.2,4.8-14,14-14,14c-3.2,1.3-2.3,3.8-1.5,6l0,0l33.1-0.1
	l2.5-0.4c2.8-0.5,4.7-1.9,4.4-3.5l-2.5-14.8C52,213.7,47,211.7,41.5,211.8z"/>
<path class="st6" d="M32.4,216.4c2.1-0.8,4.2-1.3,6.4-1.4c2.5,0,4.9,0.4,7.3,1.1"/>
<path class="st6" d="M29.3,219c2.1-0.8,4.3-1.2,6.5-1.3c2.5,0,4.9,0.5,7.2,1.2"/>
<path class="st5" d="M169.8,215.5c4.6-1.1,7-6.5,7.5-5.4c3.3,8,34.6,12.9,34.6,12.9c3.9,1.7,8.5,10,7.9,12.5l0,0c-4.7-0.5-48,0-48,0
	s-15.5,0.1-14.7-3.1l0.7-18.9C158.9,210.1,161.9,217.4,169.8,215.5z"/>
</svg>
