<?xml version="1.0" encoding="utf-8"?>
<!-- Generator: Adobe Illustrator 26.0.2, SVG Export Plug-In . SVG Version: 6.00 Build 0)  -->
<svg version="1.1" id="Calque_1" xmlns="http://www.w3.org/2000/svg" xmlns:xlink="http://www.w3.org/1999/xlink" x="0px" y="0px"
	 viewBox="0 0 788 1005" style="enable-background:new 0 0 788 1005;" xml:space="preserve">
<style type="text/css">
	.st0{fill:#5E6D70;}
	.st1{fill:#8E5736;}
	.st2{fill:#8F381F;}
	.st3{fill:#682E2F;}
	.st4{fill:none;stroke:#682E2F;stroke-width:2;stroke-linecap:round;stroke-miterlimit:10;}
</style>
<path class="st0" d="M327.6,709.4c1.3,5.9,9,10.3,18.1,10.4l0,0c8.7,0.1,16.1-3.8,17.7-9.3c0,0,9.4-39.3,9.6-53.4
	c0-3.3-1.7-13.3-1.7-13.3l-4.2-23.3c0,0-2.9-11-20.8-12.3c-20.6-1.5-21,5.6-21,5.6s-6.6,37-6.4,48.7
	C319.1,673.2,327.6,709.4,327.6,709.4z"/>
<path class="st0" d="M474.8,705c0.8,5.9-5.2,10.9-14.1,11.8l0,0c-8.5,0.9-17.2-2.3-20.8-7.6c0,0-23.3-37.8-28.6-51.7
	c-1.2-3.3-3.1-13.3-3.1-13.3l-4.2-23.3c0,0-1-11.1,16.1-14c19.7-3.4,22.7,3.7,22.7,3.7s19.7,35.8,23.7,47.3
	C470.1,668.7,474.8,705,474.8,705z"/>
<path class="st1" d="M345.6,700.1c-9.8,0.1-15.6,2.8-17.1,7.2c0,0-1.6,19.5-1.8,27.7c-0.4,13.2,2.6,40,6.9,53c0.9,2.8,3,11.4,3,11.4
	c0.7,2.6,4.9,4.4,9.6,4.3l0,0c4.7-0.1,8.5-2.1,8.8-4.6c0,0,0.9-9.9,1.5-13.2c2.4-11.9,10.1-35.7,10.7-47.7
	c0.3-7.2-2.5-29.3-2.5-29.3C363.7,701.6,354,700.2,345.6,700.1L345.6,700.1z"/>
<path class="st1" d="M457.9,696c9.7-0.7,16.2,1.5,18.9,5.8c0,0,8,18.4,10.6,26.6c4.1,13.2,3.6,65.3,3.6,65.3
	c0.1,2.6,0.3,6.1-4.5,6.4l0,0c-4.7,0.3-10.4-0.8-11.4-3.3c0,0-23.8-48.7-27.7-60.7c-2.4-7.2-5.8-29.7-5.8-29.7
	C440.5,699,449.6,696.8,457.9,696z"/>
<path class="st2" d="M343.8,794.9L343.8,794.9c-4.4,0-8.4,1.4-10.3,3.5l0,0c-4.3,4.8-22.2,11.2-22.2,11.2c-3.2,1.3-4.8,3.5-4,5.7
	l0,0l43.9-0.1l2.5-0.4c2.8-0.5,4.7-1.9,4.4-3.5l-2.5-11.6C354.1,796.8,349.3,794.8,343.8,794.9z"/>
<path class="st3" d="M308.5,815.2L308.5,815.2c-0.6-1.9,1.9-3.7,5.5-4l26.1-2.1c3.4-0.3,6.5,0.9,7.3,2.6l1.5,3.3L308.5,815.2z"/>
<path class="st4" d="M334.5,799.5c2.1-0.8,4.2-1.3,6.4-1.4c2.5,0,4.9,0.4,7.3,1.1"/>
<path class="st4" d="M331.4,802.1c2.1-0.8,4.3-1.2,6.5-1.3c2.5,0.1,4.9,0.5,7.2,1.2"/>
<path class="st2" d="M484.8,797.7c4.5-1.1,4-3.3,5.7-4.5c1-0.7,5.6-1.6,6.3-0.7c8.7,10.3,45.7,15.2,45.7,15.2c4,1.7,5.1,4.1,4.6,6.7
	l0,0c0,0-31.8,5.9-48.8,0.2c-3.4-1.1-12.1-1.5-12.1-1.5s-15.5,0.3-14.9-2.9l1.2-14.3C473.6,792.5,477,799.7,484.8,797.7z"/>
<path class="st3" d="M547.5,814.3c0.2-4.2-3.7-6.7-4.9-6.6c-1.8,0.2-4.6,1.2-6.4,1.5c-2.8,0.4-11.5,0.2-11.5,0.2
	c-1.9-0.2-3.7,1.1-4,3.1c0,0.1,0,0.2,0,0.3l0.2,4c0,0,5.3,0.3,17.8-1.2C540.7,815.3,547.5,814.3,547.5,814.3z"/>
<path class="st4" d="M502,797.8c-2.1,0.6-4.3,1-6.5,1.2"/>
<path class="st4" d="M506.3,800c-2,0.7-4.2,1.2-6.3,1.4"/>
<path class="st2" d="M329.1,590.7c-5,9.1-8,19.1-9,29.5c-4,42.9-14.5,159.3-11.4,161.2c11,6.9,57.7,8.5,64.6,6
	c2.1-0.8,28-139.3,28-139.3l-11.6-64c0,0-58.9-0.1-57.4,0.8L329.1,590.7z"/>
<path class="st2" d="M454.4,595.6c2.9,5.1,5.1,10.6,6.6,16.4c9,34.4,41.3,160.1,35.5,166.9c-3,3.5-53.2,12.2-65,8.5
	c-2-0.6-41.5-138.2-41.5-138.2l-10.9-65.1c0,0,67.3-5.9,66-5L454.4,595.6z"/>
</svg>
