<?xml version="1.0" encoding="utf-8"?>
<!-- Generator: Adobe Illustrator 26.0.2, SVG Export Plug-In . SVG Version: 6.00 Build 0)  -->
<svg version="1.1" id="Calque_1" xmlns="http://www.w3.org/2000/svg" xmlns:xlink="http://www.w3.org/1999/xlink" x="0px" y="0px"
	 viewBox="0 0 227.9 241.7" style="enable-background:new 0 0 227.9 241.7;" xml:space="preserve">
<style type="text/css">
	.st0{fill:#D68F72;}
	.st1{fill:#423632;}
	.st2{fill:#8E5736;}
	.st3{fill:#F2D5BD;}
	.st4{fill:#493C2F;}
</style>
<g id="Calque_9">
	<path class="st0" d="M39.1,123.5c-10.3,0.1-16.2,2.8-17.8,7.2c0,0-1.6,19.5-1.9,27.7c-0.4,13.2,2.8,40,7.2,53
		c1,2.8,3.1,11.4,3.1,11.4c0.7,2.5,5.1,4.4,10.1,4.3l0,0c4.9-0.1,8.9-2.1,9.1-4.6c0,0,0.9-9.9,1.6-13.2c2.5-11.9,5.2-39.7,5.8-51.7
		c0.3-7.2,2.8-25.3,2.8-25.3C57.9,125,47.8,123.6,39.1,123.5L39.1,123.5z"/>
	<path class="st0" d="M156.2,119.4c10.1-0.7,5.8-10,8.6-5.7c0,0,19.7,70.9,22.4,79.2l8.2,25.5c0.1,2.6,5,5.6,0,5.9l-9.5-0.7
		c-4.9,0.3-10.9-0.8-11.9-3.3c0,0-21.3-50.6-25.4-62.6c-2.5-7.2-9.5-27.8-9.5-27.8C138.1,122.5,147.5,120.3,156.2,119.4L156.2,119.4
		z"/>
	<path class="st1" d="M37.1,218.4L37.1,218.4c-4.6,0.1-8.7,1.4-10.7,3.6l0,0c-4.4,4.8-9.9,10.6-9.9,10.6c-3.4,1.3-5,3.5-4.2,5.7l0,0
		l32.5,0.5l2.6-0.4c3-0.5,4.9-1.9,4.6-3.5l-2.6-11.6C48,220.3,42.9,218.3,37.1,218.4z"/>
	<path class="st1" d="M184.2,221.2c4.7-1.1,4.2-3.3,6-4.5c1.1-0.8,5.8-1.6,6.6-0.7c9,10.3,26.4,15.6,26.4,15.6
		c4.2,1.7,5.3,4.1,4.8,6.7l0,0c0,0-8.6,6.3-27.9,2.2c-3.9-0.8-12.6-1.5-12.6-1.5s-16.2,0.3-15.5-2.9l-0.5-16.6
		C172.5,215.9,176,223.1,184.2,221.2z"/>
</g>
<g id="Calque_10">
	<path class="st2" d="M39.1,123.5c-10.3,0.1-16.2,2.8-17.8,7.2c0,0-1.6,19.5-1.9,27.7c-0.4,13.2,2.8,40,7.2,53
		c1,2.8,3.1,11.4,3.1,11.4c0.7,2.5,5.1,4.4,10.1,4.3l0,0c4.9-0.1,8.9-2.1,9.1-4.6c0,0,0.9-9.9,1.6-13.2c2.5-11.9,5.2-39.7,5.8-51.7
		c0.3-7.2,2.8-25.3,2.8-25.3C57.9,125,47.8,123.6,39.1,123.5L39.1,123.5z"/>
	<path class="st2" d="M156.2,119.4c10.1-0.7,5.8-10,8.6-5.7c0,0,19.7,70.9,22.4,79.2l8.2,25.5c0.1,2.6,5,5.6,0,5.9l-9.5-0.7
		c-4.9,0.3-10.9-0.8-11.9-3.3c0,0-21.3-50.6-25.4-62.6c-2.5-7.2-9.5-27.8-9.5-27.8C138.1,122.5,147.5,120.3,156.2,119.4L156.2,119.4
		z"/>
	<path class="st3" d="M37.1,218.4L37.1,218.4c-4.6,0.1-8.7,1.4-10.7,3.6l0,0c-4.4,4.8-9.9,10.6-9.9,10.6c-3.4,1.3-5,3.5-4.2,5.7l0,0
		l32.5,0.5l2.6-0.4c3-0.5,4.9-1.9,4.6-3.5l-2.6-11.6C48,220.3,42.9,218.3,37.1,218.4z"/>
	<path class="st3" d="M184.2,221.2c4.7-1.1,4.2-3.3,6-4.5c1.1-0.8,5.8-1.6,6.6-0.7c9,10.3,26.4,15.6,26.4,15.6
		c4.2,1.7,5.3,4.1,4.8,6.7l0,0c0,0-8.6,6.3-27.9,2.2c-3.9-0.8-12.6-1.5-12.6-1.5s-16.2,0.3-15.5-2.9l-0.5-16.6
		C172.5,215.9,176,223.1,184.2,221.2z"/>
	<path class="st4" d="M54.2,209.2c7.8,0.2,14.5-5.8,15.1-13.6C72,159.6,80.2,66.9,80.2,66.9l0,0c0,0,41.6,61.7,45.2,66.3
		c2.6,3.3,7.5,41.2,10,61.6c0.9,7.4,7.2,13,14.6,13h17.3c0.3,0,0.5,0,0.8,0l12.8-0.7c9.7-0.5,16.2-10.1,13.2-19.3l-18.5-57.2
		c-0.1-0.5-0.3-0.9-0.4-1.4l-1.3-6.2l-25-91.8l-3.6-15.3c-1.5-6.3-6.9-10.9-13.3-11.3C103.3,2.5,27.3-2.6,27.3,2.1
		c0,7.8-13.2,49.1-13.7,59.4C12,89.4,3.4,176.4,0.9,201.2c-0.4,3.6,2.4,6.7,6,6.8L54.2,209.2z"/>
</g>
</svg>
