<?xml version="1.0" encoding="utf-8"?>
<!-- Generator: Adobe Illustrator 26.0.1, SVG Export Plug-In . SVG Version: 6.00 Build 0)  -->
<svg version="1.1" id="Calque_9" xmlns="http://www.w3.org/2000/svg" xmlns:xlink="http://www.w3.org/1999/xlink" x="0px" y="0px"
	 viewBox="0 0 788 1005" style="enable-background:new 0 0 788 1005;" xml:space="preserve">
<style type="text/css">
	.st0{fill:#281E1B;}
	.st1{fill:#6F412A;}
	.st2{fill:#8C5C4B;}
	.st3{fill:#90573A;}
</style>
<path class="st0" d="M427.5,267.4c0.7-6.4-9.3-6.3-10,0c-1.4,13.8,1.3,27.6,7.8,39.8c3,5.7,11.6,0.6,8.6-5
	C428.3,291.5,426.1,279.4,427.5,267.4z"/>
<path class="st1" d="M427.2,268.3l8.1-24.5c0,0,7.9-8.1,13.6-2.5c3.8,3.8-5.1,29-10,30C430.7,273.1,427.2,268.3,427.2,268.3z"/>
<path class="st2" d="M360.8,268.3l-8.1-24.5c0,0-7.9-8.1-13.6-2.5c-3.8,3.8,5.1,29,10,30C357.3,273.1,360.8,268.3,360.8,268.3z"/>
<path class="st3" d="M393.9,180.1c-23.9,0-43.3,11.2-43.3,45.6c0,46,27.5,79,43.3,79s43.3-33,43.3-79
	C437.2,191.3,417.9,180.1,393.9,180.1z"/>
<path class="st3" d="M394.2,181.2L394.2,181.2c-23.9-0.1-43.2,11.1-43.2,45.5c0,7.9,0.6,15.8,1.8,23.7c1.1,6.9,2.8,13.6,5.1,20.2
	c7.7,21.7,21.1,35.2,36.4,35.2v0.1c15.1,0,28.3-13.1,36.1-34.3c3.2-8.9,5.3-18.1,6.3-27.5c0.6-5.7,1-11.5,1-17.2
	C437.5,192.4,418.1,181.2,394.2,181.2z"/>
<path class="st0" d="M449.5,316.6c-3.7-16.7-8.5-34.9-7-52.1c0.7-7.8,2.6-15.5,3.1-23.4c0.3-4.7,0.2-9.5-0.2-14.2
	c-0.2-7.1-0.9-14.2-2-21.2c-1.6-10.5-4.6-21-11.9-29c-11.6-12.7-31-12-42.4-0.1c-9.7-6.6-22.5-6.6-32.1,0.1
	c-13,9.3-19.9,26.8-21.3,42.3c-1.9,2.3-3.4,4.9-4.6,7.7c-4.1,9.6-4.2,20.5-0.2,30.1c4.9,11.9,14.6,21.7,22.9,31.4
	c0,15.5-2.8,30.8-5.6,46.1c-1.2,6.3,8.5,9,9.6,2.6c1.2-6.8,2.5-13.5,3.5-20.4c3,1.5,7.5,0.1,7.4-4.2c-0.2-9.3-2.2-18-5-26.5
	c-0.4-10.6-2-21.2-4.6-31.5c-3-12.3-4.5-25-2.5-37.6c7.6-2.4,16.2-2.8,23.5-5.2c6.6-2.2,13.3-6.5,15.8-12.5c0.9-0.4,1.7-1,2.2-1.8
	c7.4-10.1,21.4-5.8,28.2,2.5c6.1,7.5,8.4,17.8,9.1,27.7c0.1,3.3-0.2,6.6-0.7,9.9c-0.2,1.3,0,2.6,0.8,3.7c-0.8,12.3-4.1,24.1-3,36.6
	c1.3,14,4.2,27.9,7.2,41.6C441.3,325.5,450.9,322.9,449.5,316.6z M338,243.4c1.5,5.5,3.2,10.8,5.3,16.1c-1.9-3-3.3-6.3-4.3-9.7
	C338.4,247.7,338.1,245.6,338,243.4z M359.7,206.1c1.3-2.7,3.4-5.1,5.9-6.7c4.7-2.9,10.4-3.6,15.6-1.8c1.5,0.6,3.1,0.3,4.3-0.8
	c0.2,0.1,0.4,0.3,0.6,0.4C382.1,202.2,367.3,204.7,359.7,206.1L359.7,206.1z"/>
<path class="st0" d="M341.9,270.2c-0.7-6.4,9.3-6.3,10,0c1.4,13.8-1.3,27.6-7.8,39.9c-3,5.7-11.6,0.6-8.6-5
	C341.1,294.4,343.3,282.2,341.9,270.2z"/>
</svg>
