<?xml version="1.0" encoding="utf-8"?>
<!-- Generator: Adobe Illustrator 26.0.1, SVG Export Plug-In . SVG Version: 6.00 Build 0)  -->
<svg version="1.1" id="Calque_9" xmlns="http://www.w3.org/2000/svg" xmlns:xlink="http://www.w3.org/1999/xlink" x="0px" y="0px"
	 viewBox="0 0 788 1005" style="enable-background:new 0 0 788 1005;" xml:space="preserve">
<style type="text/css">
	.st0{fill:#6F412A;}
	.st1{fill:#90573A;}
	.st2{fill:#1E1817;}
</style>
<path class="st0" d="M427.2,267.1l8.1-24.5c0,0,7.9-8.1,13.6-2.5c3.8,3.8-5.1,29-10,30C430.7,271.9,427.2,267.1,427.2,267.1z"/>
<path class="st0" d="M360.8,267.1l-8.1-24.5c0,0-7.9-8.1-13.6-2.5c-3.8,3.8,5.1,29,10,30C357.3,271.9,360.8,267.1,360.8,267.1z"/>
<path class="st1" d="M393.9,179c-23.9,0-43.3,11.2-43.3,45.6c0,46,27.5,79,43.3,79s43.3-33,43.3-79C437.2,190.2,417.9,179,393.9,179
	z"/>
<path class="st1" d="M394.2,178.2L394.2,178.2c-23.9-0.1-43.2,11.1-43.2,45.5c0,7.9,0.6,15.8,1.8,23.7c1.1,6.9,2.8,13.6,5.1,20.2
	c7.7,21.7,21.1,35.2,36.4,35.2v0.1c15.1,0,28.3-13.1,36.1-34.3c3.2-8.9,5.3-18.1,6.3-27.5c0.6-5.7,1-11.5,1-17.2
	C437.5,189.4,418.1,178.2,394.2,178.2z"/>
<path class="st1" d="M368.9,175.2c-0.4-0.7,21.9-9.9,21.9-9.9l4.3-0.7l1.6,0.6c0,0,8.8,2.4,9.3,4.7s2,14.8,2,14.8l-7.7,1.6L394,184
	c0,0-8.1,0-9.7-0.7S368.9,175.2,368.9,175.2z"/>
<path class="st2" d="M393.8,182.6c-0.3,0.5-0.6,1-1,1.5c-8.6,11.2-38.2,19.2-41.2,31.9c-3.1,13.2,1.5,26.7,1.5,26.7s-5.6-3.8-6-3.9
	s-23.8-50.3,20.8-70.4c20.1-9,25.8-3.2,25.8-3.2c0,0.2,0.1,0.4,0.3,0.6C395.3,167.6,400.2,171.8,393.8,182.6z"/>
<path class="st2" d="M439.9,240.1c-0.4,0.1-5.5,3.9-5.5,3.9s4.2-13.4,1.4-26.7S403.6,196,397,184.1c0.3-0.5,0.6-1,0.9-1.5
	c5.8-10.8,1.4-15,0.2-17c2.4-1.2,8.9-2.7,22.5,4C461.9,189.8,440.3,239.9,439.9,240.1z"/>
</svg>
