<?xml version="1.0" encoding="utf-8"?>
<!-- Generator: Adobe Illustrator 26.0.1, SVG Export Plug-In . SVG Version: 6.00 Build 0)  -->
<svg version="1.1" id="Calque_9" xmlns="http://www.w3.org/2000/svg" xmlns:xlink="http://www.w3.org/1999/xlink" x="0px" y="0px"
	 viewBox="0 0 788 1005" style="enable-background:new 0 0 788 1005;" xml:space="preserve">
<style type="text/css">
	.st0{fill:#231713;}
	.st1{clip-path:url(#SVGID_00000183971821245705546290000003010910333389186226_);}
	.st2{fill:#6F412A;}
	.st3{clip-path:url(#SVGID_00000128475815351337903770000014135989983252260226_);}
	.st4{clip-path:url(#SVGID_00000161605326296545620520000016030203446965974418_);}
	.st5{fill:#6E4031;}
	.st6{clip-path:url(#SVGID_00000101097055341073033640000018284557749546385544_);}
	.st7{clip-path:url(#SVGID_00000091006896176389681680000013464305946944960388_);}
	.st8{fill:#FFFFFF;}
	.st9{fill:none;}
	.st10{fill:#90573A;}
</style>
<path class="st0" d="M446.6,208.6c3.5,22.2,3.8,44.7,0.7,66.9c-5,37-21.3,49.2-21.3,49.2s-10-5.1-11-8.4c-0.8-2.6-0.2-24.1-0.2-24.1
	l4.5-64.3L446.6,208.6z"/>
<g id="random">
	<g>
		<defs>
			<polygon id="SVGID_1_" points="426.1,245 426.1,245 449.4,245 449.4,277.4 426.1,277.4 			"/>
		</defs>
		<clipPath id="SVGID_00000075883835165684282850000005241398577845398456_">
			<use xlink:href="#SVGID_1_"  style="overflow:visible;"/>
		</clipPath>
		<g style="clip-path:url(#SVGID_00000075883835165684282850000005241398577845398456_);">
			<path class="st2" d="M426.1,273.9l8.3-24.5c0,0,8.1-8.1,14-2.5c3.9,3.8-5.2,29-10.1,30C429.7,278.7,426.1,273.9,426.1,273.9z"/>
		</g>
	</g>
</g>
<g id="random2">
	<g>
		<defs>
			<polygon id="SVGID_00000147181644635839798890000016891177573855364541_" points="364.5,245 364.5,245 341.3,245 341.3,277.4 
				364.5,277.4 			"/>
		</defs>
		<clipPath id="SVGID_00000153693609743942842390000015365014059729769381_">
			<use xlink:href="#SVGID_00000147181644635839798890000016891177573855364541_"  style="overflow:visible;"/>
		</clipPath>
		<g style="clip-path:url(#SVGID_00000153693609743942842390000015365014059729769381_);">
			<path class="st2" d="M364.5,273.9l-8.3-24.5c0,0-8.1-8.1-14-2.5c-3.9,3.8,5.2,29,10.2,30C361,278.7,364.5,273.9,364.5,273.9z"/>
		</g>
	</g>
</g>
<g id="random3">
	<g>
		<defs>
			<polygon id="SVGID_00000124131017513302325330000012572697820607098011_" points="430.4,248.5 430.4,248.5 441.9,248.5 
				441.9,262.4 430.4,262.4 			"/>
		</defs>
		<clipPath id="SVGID_00000178912698651060744490000012014821175792161707_">
			<use xlink:href="#SVGID_00000124131017513302325330000012572697820607098011_"  style="overflow:visible;"/>
		</clipPath>
		<g style="clip-path:url(#SVGID_00000178912698651060744490000012014821175792161707_);">
			<path class="st5" d="M430.7,256.6c0-0.2,0.7-1.6,5.3-5.3c1.5-1.3,3.4-2.3,5.3-2.8c0.4,0.5,0.6,1.2,0.5,1.9
				c-0.1,0.9-4.2,2.9-5.4,4c-1.9,1.7-6,7.8-6,8L430.7,256.6z"/>
		</g>
	</g>
</g>
<g id="random4">
	<g>
		<defs>
			<polygon id="SVGID_00000008119815294147284230000007203064833485773485_" points="353,248.5 353,248.5 341.6,248.5 341.6,262.4 
				353,262.4 			"/>
		</defs>
		<clipPath id="SVGID_00000066483366703074554460000004309401315198254271_">
			<use xlink:href="#SVGID_00000008119815294147284230000007203064833485773485_"  style="overflow:visible;"/>
		</clipPath>
		<g style="clip-path:url(#SVGID_00000066483366703074554460000004309401315198254271_);">
			<path class="st5" d="M352.7,256.6c0-0.2-0.7-1.6-5.3-5.3c-1.5-1.3-3.4-2.3-5.3-2.8c-0.4,0.5-0.6,1.2-0.5,1.9
				c0.1,0.9,4.2,2.9,5.4,4c1.9,1.7,6,7.8,6,8L352.7,256.6z"/>
		</g>
	</g>
</g>
<g>
	<defs>
		<polygon id="SVGID_00000134207331230711370490000006630406474996078722_" points="376.5,235.4 376.5,235.4 361.4,235.4 361.4,250 
			376.5,250 		"/>
	</defs>
	<clipPath id="SVGID_00000013157069687749870820000006298301333109346216_">
		<use xlink:href="#SVGID_00000134207331230711370490000006630406474996078722_"  style="overflow:visible;"/>
	</clipPath>
	<g style="clip-path:url(#SVGID_00000013157069687749870820000006298301333109346216_);">
		<ellipse class="st8" cx="369" cy="242.7" rx="7.5" ry="7.3"/>
	</g>
</g>
<rect x="716.5" y="506.9" class="st9" width="112.5" height="211.2"/>
<path class="st10" d="M394.2,181.2L394.2,181.2c-23.9-0.1-43.2,11.1-43.2,45.5c0,7.9,0.6,15.8,1.8,23.7c1.1,6.9,2.8,13.6,5.1,20.2
	c7.7,21.7,21.1,35.2,36.4,35.2v0.1c15.1,0,28.3-13.1,36.1-34.3c3.2-8.9,5.3-18.1,6.3-27.5c0.6-5.7,1-11.5,1-17.2
	C437.5,192.4,418.1,181.2,394.2,181.2z"/>
<path class="st0" d="M354.7,251.4l-8-5.1c0,0-7.8-12.4-7.8-25c0-16,28.2-43.5,44-46.4c4.3-0.8,8.8,0.5,12.1,3.4
	c0,0,18.1-0.6,23.6,1.7c24.7,10.6,29.7,28,29,39.7c-0.7,8.7-2.8,17.3-6.3,25.3l-6.7-1.1l-2.9-15.1l-12.1-9c0,0-6.5-11-6.2-11
	s2.3,9.9,2.3,9.9s-10.9,0.6-13.8-1.3c-2.1-1.4-5-8.9-5-8.9s-8.9,7.6-11.9,9.4c-3.5,2.1-11.1,2.8-11.1,2.8l1.3-12.8l-9.9,13.3l-9,7.4
	L354.7,251.4z"/>
</svg>
