<?xml version="1.0" encoding="utf-8"?>
<!-- Generator: Adobe Illustrator 26.0.0, SVG Export Plug-In . SVG Version: 6.00 Build 0)  -->
<svg version="1.1" id="Calque_9" xmlns="http://www.w3.org/2000/svg" xmlns:xlink="http://www.w3.org/1999/xlink" x="0px" y="0px"
	 viewBox="0 0 200 200" style="enable-background:new 0 0 200 200;" xml:space="preserve">
<style type="text/css">
	.st0{fill:#281E1B;}
	.st1{fill:#6F412A;}
	.st2{fill:#8C5C4B;}
	.st3{fill:#90573A;}
</style>
<path class="st0" d="M131.5,131.4c0.7-6.4-9.3-6.3-10,0c-1.4,13.8,1.3,27.6,7.8,39.8c3,5.7,11.6,0.6,8.6-5.1
	C132.4,155.5,130.1,143.4,131.5,131.4z"/>
<path class="st1" d="M131.2,132.3l8.1-24.5c0,0,7.9-8.1,13.6-2.5c3.8,3.8-5.1,29-10,30C134.7,137.1,131.2,132.3,131.2,132.3z"/>
<path class="st2" d="M64.8,132.3l-8.1-24.5c0,0-7.9-8.1-13.6-2.5c-3.8,3.8,5.1,29,10,30C61.4,137.1,64.8,132.3,64.8,132.3z"/>
<path class="st3" d="M98,44.2c-23.9,0-43.3,11.2-43.3,45.6c0,46,27.4,79,43.3,79s43.3-33,43.3-79C141.3,55.4,121.9,44.2,98,44.2z"/>
<path class="st0" d="M153.5,180.6c-3.7-16.7-8.5-34.9-7-52.1c0.7-7.8,2.6-15.5,3.1-23.4c0.3-4.7,0.2-9.5-0.2-14.2
	c-0.2-7.1-0.9-14.2-2-21.2c-1.6-10.5-4.6-21-11.9-29c-11.7-12.7-31-12-42.4-0.1c-9.7-6.6-22.5-6.6-32.1,0.1
	c-13,9.3-19.9,26.8-21.3,42.3c-1.9,2.3-3.4,4.9-4.6,7.7c-4.1,9.6-4.2,20.5-0.2,30.1c4.9,11.8,14.7,21.7,22.9,31.4
	c0,15.5-2.8,30.9-5.7,46.1c-1.2,6.3,8.5,9,9.6,2.7c1.2-6.8,2.5-13.6,3.5-20.4c3,1.5,7.5,0.1,7.4-4.2c-0.2-9.3-2.2-18-5-26.5
	c-0.4-10.6-2-21.2-4.6-31.5c-3-12.3-4.5-25-2.5-37.6c7.6-2.4,16.2-2.8,23.5-5.2c6.5-2.2,13.2-6.5,15.7-12.4c0.9-0.4,1.7-1,2.2-1.8
	c7.4-10.1,21.4-5.8,28.2,2.5c6.1,7.5,8.4,17.8,9.1,27.7c0.1,3.3-0.2,6.6-0.7,9.9c-0.2,1.3,0,2.6,0.8,3.7c-0.8,12.3-4.1,24.1-3,36.6
	c1.3,14,4.2,27.9,7.2,41.6C145.3,189.6,154.9,186.9,153.5,180.6z M42,107.4c1.5,5.5,3.2,10.8,5.3,16.1c-1.9-3-3.3-6.3-4.3-9.7
	C42.4,111.7,42.1,109.6,42,107.4z M63.7,70.1c1.3-2.7,3.4-5.1,5.9-6.7c4.7-2.9,10.4-3.6,15.6-1.8c1.5,0.6,3.1,0.3,4.3-0.8
	c0.2,0.1,0.4,0.3,0.7,0.3C86.1,66.2,71.3,68.8,63.7,70.1z"/>
<path class="st0" d="M45.9,134.3c-0.7-6.4,9.3-6.3,10,0c1.4,13.8-1.3,27.6-7.8,39.8c-3,5.7-11.6,0.6-8.6-5
	C45.1,158.4,47.3,146.3,45.9,134.3z"/>
</svg>
