<?xml version="1.0" encoding="utf-8"?>
<!-- Generator: Adobe Illustrator 26.0.1, SVG Export Plug-In . SVG Version: 6.00 Build 0)  -->
<svg version="1.1" id="Calque_9" xmlns="http://www.w3.org/2000/svg" xmlns:xlink="http://www.w3.org/1999/xlink" x="0px" y="0px"
	 viewBox="0 0 788 1005" style="enable-background:new 0 0 788 1005;" xml:space="preserve">
<style type="text/css">
	.st0{fill:#90573A;}
	.st1{fill:#3B2218;}
	.st2{fill:#583134;}
	.st3{fill:none;}
</style>
<path class="st0" d="M393.5,191.8c-1.5-1.6-9.2-21.3-7.5-22.2s19.7,0.2,19.7,0.2s15.5,13.2,16,15.2s2.9,15.3,1.7,15L393.5,191.8z"/>
<path class="st1" d="M442.1,270.6c-4.8,31.6-13.1,48.8-15.4,53.1c-0.4,0.7-0.6,1.1-0.6,1.1l-2.9-0.6l-0.8-0.1
	c-0.1-0.6-0.2-1.3-0.3-2c-2.8-1-5.2-2.8-7-5.1l-0.4-10.5l-0.2-7.3c-2.8,3-6,5.6-9.5,7.6l-2.8-14.8l6.2-23l0.1-0.2l11-40.9l1.3-1
	l8.1-6.2c0.3-0.4,0.7-0.7,1.1-0.9c1.5-1,4.5-2.4,7.4-1.2C442.8,220.6,448,231.6,442.1,270.6z"/>
<path class="st1" d="M424.2,322.9c-0.4,0.5-0.7,0.9-1.1,1.3l-0.6,0.8c-0.1-0.3-0.1-0.6-0.2-0.9c-0.1-0.6-0.2-1.3-0.3-2
	c-2.8-1-5.2-2.8-7-5.1l-0.4-10.5l-0.2-7.3c-2.8,3-6,5.6-9.5,7.6c-3,1.8-6.5,2.8-10,3c-6.4,0-14.1-4.7-21.3-13.1l-0.4,12.1
	c2.1,3.1,4.1,5.9,5.8,8.3c0.9,1.2,1.7,2.3,2.4,3.3c4.2,5.5,7.5,11.6,9.9,18c-11.1-0.4-21.8-5.7-31.1-14.6c-3.3-3.2-6.3-6.8-9-10.6
	c-4.1-5.8-7.6-12.1-10.3-18.7c-1.6-3.7-2.9-7.5-4.1-11.4c-6.8-22.8-5.9-44.7,1.9-60.2l0,0c4.2-8.4,10.4-14.9,18.4-18.8l0,0
	c1.9-0.9,3.9-1.7,5.9-2.3c5-1.5,10.2-2,15.4-1.6c5.7,0.5,11.2,2,16.4,4.4c4,1.9,7.7,4.2,11.1,6.9c5.6,4.4,10.5,9.6,14.6,15.4
	c5.7,8.1,10,17,12.7,26.4c0.6,1.9,1.1,3.7,1.5,5.6c0.6,2.5,1.1,5.1,1.5,7.6C439.8,288.6,435,309.4,424.2,322.9z"/>
<path class="st0" d="M339.6,373.4l0.5,0.1L339.6,373.4L339.6,373.4z"/>
<path class="st0" d="M363.8,390.7c0,0,3.2-14.9-1.2-34.7c-0.3,6.3,0.1,12.6,1.2,18.8c1.2,6.3-8.4,9-9.6,2.6
	c-2.2-11.5-0.9-22.9-1.3-34.5c0-5.8-1.1-11.5-3.2-16.9c3.8-0.7,7.4-1.4,10.7-2.3c5.6-1.5,10.2-3.5,12.6-7l0.1-1.7l0.2-6.4
	c2.1,3.1,4.1,5.9,5.8,8.3c0.9,1.2,1.7,2.3,2.4,3.3c4.2,5.5,7.5,11.6,9.9,18C403.5,373.9,363.8,390.7,363.8,390.7z"/>
<path class="st0" d="M414.4,299.2c-2.8,3-6,5.6-9.5,7.6c-3,1.8-6.5,2.8-10,3c-6.4,0-14.1-4.7-21.3-13.1l0.2-7.4l0.7-20.2l18.3-0.8
	h2.2l13.3,0.6l5.1,0.2L414.4,299.2z"/>
<path class="st2" d="M414.4,299.2c-2.8,3-6,5.6-9.5,7.6c-3,1.8-6.5,2.8-10,3c-6.4,0-14.1-4.7-21.3-13.1l-0.4,12.1
	c2.1,3.1,4.1,5.9,5.8,8.3c-2-0.5-4.1-1.2-6-1.9l-0.5-0.2l0.3-6.8l0.5-11.9l1.2-27.3h38.8L414.4,299.2z"/>
<path class="st1" d="M339.6,373.4l0.5,0.1L339.6,373.4L339.6,373.4z"/>
<path class="st0" d="M348.5,339.3c-2,4-9.4,3.1-9.5-2.4c0-1.8-0.2-3.7-0.4-5.5c1.5,0.4,2.9,1,4.1,1.9
	C345.1,334.8,347.1,336.9,348.5,339.3z"/>
<path class="st0" d="M446.1,332.2l0.3-0.1c1.2-0.5,2.4-0.9,3.7-1.1C449.1,332,447.6,332.5,446.1,332.2z"/>
<path class="st0" d="M449.8,353.4c-1.3,2.1-4.7,3.4-6.8,1.8c-2.5-1.8-4.8-3.9-6.9-6.1c0.1-5.4,1.4-9.8,4.5-13
	c0.2,1.2,0.4,2.4,0.6,3.6c1.9,2.6,4.3,5,6.9,6.9C450.2,348.1,451.3,350.8,449.8,353.4z"/>
<path class="st0" d="M437.2,218.5c-2.7-16.3-11.1-25.6-22.4-30.1c-0.5-0.2-1.1-0.4-1.7-0.6c-0.6-0.2-1.2-0.4-1.9-0.6h-0.1
	c-5.3-1.5-10.7-2.2-16.2-2.1l0,0l0,0l0,0l0,0c-16.1,0-30.2,5.1-37.6,19.1c-3.6,6.7-5.6,15.4-5.6,26.6c0,4,0.2,7.9,0.6,11.8
	c1.1,11.3,3.9,22.4,8.4,32.8c3.2,7.6,7.5,14.6,12.7,20.9c0.1,0.1,0.2,0.2,0.3,0.4c7.1,8.3,14.9,13.1,21.3,13.1l0,0
	c3.5-0.1,7-1.1,10-2.9c3.5-2.1,6.7-4.6,9.5-7.6c8.5-8.9,16.2-22.8,20.5-40.2c1.9-7.8,3-15.8,3.3-23.9c0.1-1.4,0.1-2.9,0.1-4.3
	C438.2,226.6,437.9,222.5,437.2,218.5z"/>
<path class="st0" d="M359.8,273.3l-8.1-24.5c0,0-7.9-8.1-13.6-2.5c-3.8,3.8,5.1,29,10,30C356.3,278,359.8,273.3,359.8,273.3z"/>
<rect x="716.5" y="506.9" class="st3" width="112.5" height="211.2"/>
<path class="st0" d="M428.2,273.3l8.1-24.5c0,0,7.9-8.1,13.6-2.5c3.8,3.8-5.1,29-10,30C431.7,278,428.2,273.3,428.2,273.3z"/>
<path class="st0" d="M394.2,186.2L394.2,186.2c-23.9-0.1-43.2,11.1-43.2,45.5c0,7.9,0.6,15.8,1.8,23.7c1.1,6.9,2.8,13.6,5.1,20.2
	c7.7,21.7,21.1,35.2,36.4,35.2v0.1c15.1,0,28.3-13.1,36.1-34.3c3.2-8.9,5.3-18.1,6.3-27.5c0.6-5.7,1-11.5,1-17.2
	C437.5,197.4,418.1,186.2,394.2,186.2z"/>
<path class="st1" d="M400.4,203.2c-3.8,2.3-8.2,4.4-12.6,4.8c-3.4,0.3-6.7,0.2-10.1-0.2c9-5.9,16.7-4.6,23.1-4.9
	C400.7,203,400.6,203.1,400.4,203.2L400.4,203.2z M390.1,169.3c-18.5-0.3-35.3,8.6-45.1,18.1c-11.5,11.2-23.4,27.7-21.5,44.7
	c0.4,3.1,1.2,6.2,2.5,9.1c-2,4-3.3,8.3-4,12.7c-6.7,12.5-7.4,27.2-2,40.3c3.1,7.4,8.8,12.9,12.7,19.8c2.3,4.1,4,8.5,5,13.1
	c0.1,0.5,0.2,1,0.3,1.5c0.2,1,0.3,1.9,0.5,2.9c0.3,1.8,0.5,3.7,0.5,5.6c0.1,5.5,7.5,6.3,9.5,2.4c0.4-0.7,0.5-1.5,0.5-2.4
	c-0.1-3.5-0.5-7-1.1-10.4c-0.4-2.1-0.9-4.1-1.5-6.1c1.3,1.8,2.4,3.7,3.3,5.8c2.1,5.4,3.2,11.1,3.2,16.9c0.4,11.6-0.9,23,1.3,34.5
	c1.2,6.3,10.9,3.6,9.6-2.6c-1-6.2-1.4-12.5-1.2-18.8c4.4,19.8,1.2,34.7,1.2,34.7s39.7-16.8,27.6-52.2c-2.4-6.5-5.7-12.6-9.9-18
	c-0.8-1-1.6-2.1-2.4-3.3c-1.8-2.4-3.7-5.2-5.8-8.3l-0.4-0.6c-3.8-5.6-7.9-12.1-11.7-18.7c-8.8-15.3-15.7-31.4-12.2-39.5
	c1.1-2.6,2.2-5.1,3.3-7.4c1.1-2.3,2.2-4.5,3.2-6.4c3.4-6.9,7.6-13.3,12.4-19.3c5.1-0.3,10.2,1,15.3,1.2c4,0.2,8-0.3,11.8-1.5
	c1.3-0.4,2.5-0.9,3.7-1.4c2.6-1.1,5.1-2.3,7.5-3.7c1.9-1,3.6-2.4,4.9-4.2C422,189.9,406.6,166,390.1,169.3z"/>
<path class="st1" d="M457.9,239.5c-0.6-6.3-2.6-14.2-6.9-24.9c-13.5-33.6-42.5-47.1-49.6-44.6c-0.7,0.3,11.3,4.3,13.6,18.6
	c0,0,1.1,6.5,1.4,8.2c1.9,10.3,19.8,13.9,21.9,38.4l0,0c1.7,4.1,2.6,8.5,2.6,12.9c0,5.4-1.9,11.8-4.4,18.5
	c-5.4,14.2-14,30-14.7,41.5c-0.3,4.7-0.2,9.4,0.4,14c0.1,0.7,0.2,1.3,0.3,2c0,0.3,0.1,0.6,0.2,0.9c2.3,12.6,8.2,19.7,13.1,23.6
	c0.1,0.2,0.3,0.3,0.4,0.5c2.1,2.3,4.4,4.3,6.9,6.1c2.2,1.6,5.6,0.4,6.8-1.8c1.5-2.5,0.4-5.2-1.8-6.8c-2.6-2-4.9-4.3-6.9-6.9
	c-0.2-1.2-0.4-2.4-0.6-3.6c-0.4-2.3-0.7-4.7-1.1-7c1.8,1.4,3.8,2.5,6,3c0.2,0.1,0.4,0.1,0.6,0.1c1.5,0.3,3-0.2,4-1.2
	c0.6-0.6,1-1.2,1.3-2c0.9-2.5,0.1-5.6-3.2-6.5c-7.8-2.2,2.1-17.8,3.9-21.7c3.5-7.6,7.6-15.1,9.9-23.2
	C465.6,264.5,462.7,251.7,457.9,239.5z M445.9,290.5c-1.9,4-5.1,9.9-7.5,16.1c1.5-26.5,9.6-36.7,15-46.6c0.2,1.3,0.3,2.6,0.3,4
	C453.9,273.5,449.9,282,445.9,290.5L445.9,290.5z"/>
</svg>
