<?xml version="1.0" encoding="utf-8"?>
<!-- Generator: Adobe Illustrator 26.0.0, SVG Export Plug-In . SVG Version: 6.00 Build 0)  -->
<svg version="1.1" id="Calque_9" xmlns="http://www.w3.org/2000/svg" xmlns:xlink="http://www.w3.org/1999/xlink" x="0px" y="0px"
	 viewBox="0 0 788 1005" style="enable-background:new 0 0 788 1005;" xml:space="preserve">
<style type="text/css">
	.st0{fill:#30211B;}
	.st1{fill:#6F412A;}
	.st2{fill:#90573A;}
</style>
<path class="st0" d="M375.1,245c8.8,17.6,17.7,36.6,17.7,36.6s-7.7,5.2-25.4,5.2s-27.4-33.7-29.7-35.2l2-3.8l4.6-23l36.5-48.2
	l10.4-2.9c0,0,13.9,23.2-3,52.8C384.5,233.1,380.1,239.3,375.1,245z"/>
<path class="st1" d="M439.3,272.4c-3,0.8-6.2,0.5-9-0.9c3.2-8.9,5.3-18.1,6.3-27.5c2.2-1.9,8.1-6.1,12.7-1.6
	C453.1,246.2,444.2,271.4,439.3,272.4z"/>
<path class="st2" d="M394.2,181.2L394.2,181.2c-23.9-0.1-43.2,11.1-43.2,45.5c0,7.9,0.6,15.8,1.8,23.7c1.1,6.9,2.8,13.6,5.1,20.2
	c7.7,21.7,21.1,35.2,36.4,35.2v0.1c15.1,0,28.3-13.1,36.1-34.3c3.2-8.9,5.3-18.1,6.3-27.5c0.6-5.7,1-11.5,1-17.2
	C437.5,192.4,418.1,181.2,394.2,181.2z"/>
<path class="st1" d="M357.9,270.6c-1.7,1.3-5,3-10.6,1.8c-4.9-1-13.8-26.3-10-30c5.7-5.6,13.6,2.5,13.6,2.5l1.8,5.5
	C353.8,257.3,355.5,264,357.9,270.6z"/>
<path class="st0" d="M401,181.2c-0.1,1.6,15,3.9-19,22.9c-40.3,22.5-46.1,68.9-20.7,81.2c0,0-58.2-23-25.4-57
	c26.7-27.7,7.4-48.8,48.5-60.3C415.9,159.2,401,181.2,401,181.2z"/>
<path class="st0" d="M419.7,165.9c13.4,1.8,19.8,4.4,25.2,36.4c2.2,13.4,27.5,37.5-9.1,42.5c0,0,3.2-8.3-10.8-38.7
	c-11.2-24.4-28.8,6.5-24.8-24.9C402.3,164.6,413.3,165.1,419.7,165.9z"/>
</svg>
