<svg id="Calque_9" data-name="Calque 9" xmlns="http://www.w3.org/2000/svg" xmlns:xlink="http://www.w3.org/1999/xlink" viewBox="0 0 788 1005"><defs><style>.cls-1,.cls-18{fill:none;}.cls-2{fill:#231713;}.cls-3{clip-path:url(#clip-path);}.cls-4{fill:#6f412a;}.cls-5{clip-path:url(#clip-path-2);}.cls-6{clip-path:url(#clip-path-3);}.cls-7{fill:#6e4031;}.cls-8{clip-path:url(#clip-path-4);}.cls-9{clip-path:url(#clip-path-5);}.cls-10{fill:#6d3b25;}.cls-11{clip-path:url(#clip-path-6);}.cls-12{clip-path:url(#clip-path-7);}.cls-13{fill:#fff;}.cls-14{clip-path:url(#clip-path-8);}.cls-15{clip-path:url(#clip-path-9);}.cls-16{fill:#050505;}.cls-17{clip-path:url(#clip-path-10);}.cls-18{stroke:#6d3b25;stroke-linecap:round;stroke-miterlimit:10;stroke-width:2px;}.cls-19{clip-path:url(#clip-path-11);}.cls-20{fill:#90573a;}.cls-21{clip-path:url(#clip-path-12);}</style><clipPath id="clip-path"><polygon class="cls-1" points="426.14 244.98 426.14 244.98 449.37 244.98 449.37 277.36 426.14 277.36 426.14 244.98"/></clipPath><clipPath id="clip-path-2"><polygon class="cls-1" points="364.55 244.98 364.55 244.98 341.32 244.98 341.32 277.36 364.55 277.36 364.55 244.98"/></clipPath><clipPath id="clip-path-3"><polygon class="cls-1" points="430.44 248.54 430.44 248.54 441.86 248.54 441.86 262.41 430.44 262.41 430.44 248.54"/></clipPath><clipPath id="clip-path-4"><polygon class="cls-1" points="352.99 248.54 352.99 248.54 341.57 248.54 341.57 262.41 352.99 262.41 352.99 248.54"/></clipPath><clipPath id="clip-path-5"><polygon class="cls-1" points="404.3 221.35 404.3 221.35 427.73 221.35 427.73 228.47 404.3 228.47 404.3 221.35"/></clipPath><clipPath id="clip-path-6"><polygon class="cls-1" points="381.54 221.35 381.54 221.35 358.11 221.35 358.11 228.47 381.54 228.47 381.54 221.35"/></clipPath><clipPath id="clip-path-7"><polygon class="cls-1" points="409.33 235.45 409.33 235.45 424.4 235.45 424.4 249.96 409.33 249.96 409.33 235.45"/></clipPath><clipPath id="clip-path-8"><polygon class="cls-1" points="376.51 235.45 376.51 235.45 361.44 235.45 361.44 249.96 376.51 249.96 376.51 235.45"/></clipPath><clipPath id="clip-path-9"><polygon class="cls-1" points="411.76 238.73 411.76 238.73 421.84 238.73 421.84 248.81 411.76 248.81 411.76 238.73"/></clipPath><clipPath id="clip-path-10"><polygon class="cls-1" points="374.08 238.73 374.08 238.73 364 238.73 364 248.81 374.08 248.81 374.08 238.73"/></clipPath><clipPath id="clip-path-11"><rect class="cls-1" x="353.81" y="180.55" width="40.19" height="125.17"/></clipPath><clipPath id="clip-path-12"><rect class="cls-1" x="394" y="180.55" width="40.19" height="125.17"/></clipPath></defs><path class="cls-2" d="M446.62,208.62a229.15,229.15,0,0,1,.74,66.94c-5,37-21.28,49.18-21.28,49.18s-10-5.07-11-8.39c-.78-2.58-.19-24.1-.19-24.1l4.52-64.31Z"/><g id="random" data-name="&lt;Répétition miroir&gt;"><g class="cls-3"><path class="cls-4" d="M426.14,273.92l8.3-24.48s8.07-8.11,14-2.46c3.93,3.76-5.16,29-10.15,30C429.71,278.7,426.14,273.92,426.14,273.92Z"/></g></g><g id="random2" data-name="&lt;Répétition miroir&gt;"><g class="cls-5"><path class="cls-4" d="M364.55,273.92l-8.3-24.48s-8.06-8.11-14-2.46c-3.93,3.76,5.16,29,10.16,30C361,278.7,364.55,273.92,364.55,273.92Z"/></g></g><g id="random3" data-name="&lt;Répétition miroir&gt;"><g class="cls-6"><path class="cls-7" d="M430.72,256.65c0-.25.71-1.63,5.33-5.32a14,14,0,0,1,5.31-2.79,2.13,2.13,0,0,1,.47,1.88c-.13.85-4.16,2.9-5.41,4-1.91,1.68-6,7.78-6,8Z"/></g></g><g id="random4" data-name="&lt;Répétition miroir&gt;"><g class="cls-8"><path class="cls-7" d="M352.71,256.65c0-.25-.71-1.63-5.33-5.32a14.09,14.09,0,0,0-5.31-2.79,2.13,2.13,0,0,0-.47,1.88c.13.85,4.16,2.9,5.41,4,1.9,1.68,6,7.78,6,8Z"/></g></g><g class="cls-9"><path class="cls-10" d="M426.61,228.47a1.15,1.15,0,0,1-.44-.09A47.39,47.39,0,0,0,419,226c-7.86-1.78-8.36-.54-11.09,0a4.93,4.93,0,0,1-3.09-.78c-.4-.47-.75-2.14-.28-2.54.2-.18,3.71-2.57,12.72-.53,3.75.85,9.66,4.08,9.81,4.15a1.12,1.12,0,0,1-.44,2.15Z"/></g><g class="cls-11"><path class="cls-10" d="M359.23,228.47a1.15,1.15,0,0,0,.44-.09,47.39,47.39,0,0,1,7.19-2.35c7.86-1.78,8.36-.54,11.09,0a4.93,4.93,0,0,0,3.09-.78c.4-.47.75-2.14.28-2.54-.2-.18-3.71-2.57-12.72-.53-3.75.85-9.66,4.08-9.81,4.15a1.12,1.12,0,0,0,.44,2.15Z"/></g><g class="cls-12"><ellipse class="cls-13" cx="416.87" cy="242.71" rx="7.53" ry="7.26"/></g><g class="cls-14"><ellipse class="cls-13" cx="368.97" cy="242.71" rx="7.53" ry="7.26"/></g><g class="cls-15"><circle class="cls-16" cx="416.8" cy="243.77" r="5.04"/></g><g class="cls-17"><circle class="cls-16" cx="369.04" cy="243.77" r="5.04"/></g><path class="cls-18" d="M386.66,261.59a50.15,50.15,0,0,0,7,1.35c1.65,0,7.05-1.73,7.05-1.73"/><path class="cls-18" d="M378.42,268.3a10.73,10.73,0,0,0,2.51,1.2,33.9,33.9,0,0,0,12.23,1.68,33.07,33.07,0,0,0,11.43-1.9,11.54,11.54,0,0,0,3.31-1.78"/><g id="random5" data-name="&lt;Répétition miroir&gt;"><g class="cls-19"><path class="cls-20" d="M440.37,220v7.1l-1.68,27.08s-2.16,17.42-6.15,24c-4.23,7-17.08,20-25.34,24.35-4.94,2.63-10.67,4-16.1,2.6-8.64-2.16-22.85-18.64-27.07-25.65-4-6.61-7.59-19-8.54-25.76-1.2-8.36-1.68-33.75-1.68-33.75,0-24.06,16.9-39.47,41-39.47h1.6c12,0,23,3.85,31,10.71A37,37,0,0,1,440.37,220Z"/></g></g><g id="random6" data-name="&lt;Répétition miroir&gt;"><g class="cls-21"><path class="cls-20" d="M347.63,220v7.1l1.68,27.08s2.16,17.42,6.15,24c4.23,7,17.08,20,25.34,24.35,4.94,2.63,10.67,4,16.1,2.6,8.64-2.16,22.85-18.64,27.07-25.65,4-6.61,7.59-19,8.54-25.76,1.2-8.36,1.68-33.75,1.68-33.75,0-24.06-16.9-39.47-41-39.47h-1.6c-12,0-23,3.85-31,10.71A37,37,0,0,0,347.63,220Z"/></g></g><rect class="cls-1" x="716.51" y="506.89" width="112.53" height="211.16"/><path class="cls-2" d="M354.74,251.37l-8-5.15s-7.8-12.38-7.77-25c0-16,28.19-43.51,44-46.45a14.47,14.47,0,0,1,12.09,3.41s18.15-.6,23.6,1.73c24.73,10.57,29.74,28,29,39.7a81,81,0,0,1-6.28,25.31l-6.66-1.11-2.9-15.06-12.14-9s-6.48-11-6.22-11,2.3,9.86,2.3,9.86-10.88.63-13.8-1.29c-2.1-1.38-5-8.88-5-8.88s-8.85,7.64-11.91,9.43c-3.52,2.06-11.15,2.77-11.15,2.77l1.28-12.78-9.91,13.31-9,7.35Z"/></svg>