<?xml version="1.0" encoding="utf-8"?>
<!-- Generator: Adobe Illustrator 26.0.0, SVG Export Plug-In . SVG Version: 6.00 Build 0)  -->
<svg version="1.1" id="Calque_9" xmlns="http://www.w3.org/2000/svg" xmlns:xlink="http://www.w3.org/1999/xlink" x="0px" y="0px"
	 viewBox="0 0 200 200" style="enable-background:new 0 0 200 200;" xml:space="preserve">
<style type="text/css">
	.st0{fill:#30211B;}
	.st1{fill:#6F412A;}
	.st2{fill:#90573A;}
</style>
<path class="st0" d="M79.1,109c8.8,17.7,17.7,36.6,17.7,36.6s-7.7,5.2-25.4,5.2S44,117.2,41.7,115.7l2-3.8l4.6-23l36.5-48.2
	l10.4-2.9c0,0,13.9,23.2-3,52.8C88.6,97.1,84.1,103.3,79.1,109z"/>
<path class="st1" d="M143.3,136.5c-3,0.8-6.2,0.5-9-0.9c3.2-8.9,5.3-18.1,6.3-27.5c2.2-1.9,8.1-6.1,12.7-1.6
	C157.1,110.2,148.2,135.4,143.3,136.5z"/>
<path class="st2" d="M98.2,45.3v-0.1C74.3,45.2,55,56.4,55,90.8c0,7.9,0.6,15.8,1.8,23.7c1.1,6.9,2.8,13.6,5.1,20.2
	c7.7,21.7,21.1,35.2,36.4,35.2v0.1c15.1,0,28.3-13.1,36.1-34.3c3.2-8.9,5.3-18.1,6.3-27.5c0.6-5.7,1-11.5,1-17.2
	C141.5,56.5,122.2,45.3,98.2,45.3z"/>
<path class="st1" d="M61.9,134.6c-1.7,1.3-5,3-10.6,1.8c-4.9-1-13.8-26.3-10-30c5.8-5.7,13.7,2.5,13.7,2.5l1.8,5.5
	C57.9,121.3,59.6,128.1,61.9,134.6z"/>
<path class="st0" d="M105.1,45.3c-0.1,1.6,15,3.9-19,22.9C45.8,90.6,40,137.1,65.3,149.4c0,0-58.2-23-25.4-57
	C66.7,64.7,47.3,43.6,88.4,32C119.9,23.2,105.1,45.3,105.1,45.3z"/>
<path class="st0" d="M123.7,30c13.4,1.8,19.8,4.4,25.2,36.4c2.2,13.4,27.5,37.5-9.1,42.5c0,0,3.2-8.3-10.8-38.7
	c-11.2-24.4-28.8,6.5-24.8-24.9C106.3,28.7,117.3,29.1,123.7,30z"/>
</svg>
