<?xml version="1.0" encoding="utf-8"?>
<!-- Generator: Adobe Illustrator 26.0.0, SVG Export Plug-In . SVG Version: 6.00 Build 0)  -->
<svg version="1.1" id="Calque_9" xmlns="http://www.w3.org/2000/svg" xmlns:xlink="http://www.w3.org/1999/xlink" x="0px" y="0px"
	 viewBox="0 0 200 200" style="enable-background:new 0 0 200 200;" xml:space="preserve">
<style type="text/css">
	.st0{fill:#6F412A;}
	.st1{fill:#90573A;}
	.st2{fill:#3A201D;}
</style>
<path class="st0" d="M130.2,133l8.1-24.5c0,0,7.9-8.1,13.6-2.5c3.8,3.8-5.1,29-10,30C133.7,137.8,130.2,133,130.2,133z"/>
<path class="st0" d="M63.8,133l-8.1-24.5c0,0-7.9-8.1-13.6-2.5c-3.8,3.8,5.1,29,10,30C60.4,137.8,63.8,133,63.8,133z"/>
<path class="st1" d="M97,44.9c-23.9,0-43.3,11.2-43.3,45.6c0,46,27.4,79,43.3,79s43.3-33,43.3-79C140.3,56.1,120.9,44.9,97,44.9z"/>
<circle class="st2" cx="39.8" cy="58.5" r="26.2"/>
<circle class="st2" cx="163.7" cy="58.5" r="26.2"/>
<path class="st2" d="M56.1,115.9l-8.3-5.7c0,0-8-12.4-8-25c0-16,29-43.5,45.3-46.5c4.4-0.8,9,0.5,12.4,3.4c0,0,18.7-0.6,24.3,1.7
	c25.5,10.6,30.6,28,29.8,39.7c-0.7,8.7-2.9,17.3-6.5,25.3l-9.3,3l-0.5-19.2l-12.5-9c0,0-6.7-11-6.4-11s2.4,9.9,2.4,9.9
	s-11.2,0.6-14.2-1.3c-2.2-1.4-5.1-8.9-5.1-8.9s-9.1,7.6-12.2,9.4c-3.6,2.1-11.5,2.8-11.5,2.8l1.3-12.8L66.9,85.2l-11.3,9L56.1,115.9
	z"/>
</svg>
