<?xml version="1.0" encoding="utf-8"?>
<!-- Generator: Adobe Illustrator 26.0.0, SVG Export Plug-In . SVG Version: 6.00 Build 0)  -->
<svg version="1.1" id="Calque_9" xmlns="http://www.w3.org/2000/svg" xmlns:xlink="http://www.w3.org/1999/xlink" x="0px" y="0px"
	 viewBox="0 0 200 200" style="enable-background:new 0 0 200 200;" xml:space="preserve">
<style type="text/css">
	.st0{fill:#90573A;}
	.st1{fill:#3B2218;}
	.st2{fill:#583134;}
</style>
<path class="st0" d="M97.5,55.8C96,54.2,88.3,34.6,90,33.7s19.7,0.2,19.7,0.2s15.5,13.2,16,15.2s2.9,15.3,1.7,15L97.5,55.8z"/>
<path class="st1" d="M146.1,134.6c-4.8,31.6-13.1,48.8-15.4,53.1c-0.4,0.7-0.6,1.1-0.6,1.1l-2.9-0.6l-0.8-0.1
	c-0.1-0.6-0.2-1.3-0.3-2c-2.8-1-5.2-2.8-7-5.1l-0.4-10.5l-0.2-7.3c-2.8,3-6,5.6-9.5,7.6l-2.8-14.8l6.2-23l0.1-0.2l11-40.9l1.3-1
	l8.1-6.2c0.3-0.4,0.7-0.7,1.1-0.9c1.5-1,4.5-2.3,7.4-1.2C146.8,84.7,152,95.7,146.1,134.6z"/>
<path class="st1" d="M128.2,186.9c-0.3,0.4-0.7,0.9-1.1,1.3l-0.7,0.8c-0.1-0.3-0.1-0.6-0.2-0.9c-0.1-0.6-0.2-1.3-0.3-2
	c-2.8-1-5.2-2.8-7-5.1l-0.4-10.5l-0.2-7.3c-2.8,3-6,5.6-9.5,7.6c-3,1.8-6.5,2.9-10,3c-6.4,0-14.1-4.7-21.3-13.1l-0.4,12.1
	c2.1,3.1,4.1,5.9,5.8,8.3c0.9,1.2,1.7,2.3,2.4,3.3c4.2,5.5,7.5,11.5,9.9,18c-11.1-0.4-21.8-5.7-31.1-14.6c-3.3-3.2-6.3-6.8-9-10.6
	c-4.1-5.8-7.6-12.1-10.3-18.7c-1.5-3.7-2.9-7.5-4-11.4c-6.8-22.8-5.9-44.7,1.9-60.2l0,0c4.2-8.3,10.4-14.9,18.4-18.8l0,0
	c1.9-0.9,3.9-1.7,5.9-2.3c5-1.5,10.2-2,15.3-1.6c5.7,0.5,11.2,2,16.4,4.4c4,1.9,7.7,4.2,11.1,6.8c5.6,4.4,10.5,9.6,14.6,15.4
	c5.7,8.1,10,17,12.7,26.4c0.6,1.9,1.1,3.7,1.5,5.6c0.6,2.5,1.1,5.1,1.5,7.6C143.8,152.6,139,173.4,128.2,186.9z"/>
<path class="st0" d="M67.8,254.8c0,0,3.2-14.9-1.2-34.7c-0.3,6.3,0.1,12.6,1.2,18.8c1.2,6.3-8.4,9-9.6,2.6
	c-2.2-11.5-0.9-22.9-1.3-34.5c0-5.8-1.1-11.5-3.2-16.9c3.8-0.7,7.4-1.4,10.7-2.3c5.6-1.5,10.2-3.5,12.6-7l0.1-1.7l0.2-6.4
	c2.1,3.1,4.1,5.9,5.8,8.3c0.9,1.2,1.7,2.3,2.4,3.3c4.2,5.5,7.5,11.5,9.9,18C107.5,238,67.8,254.8,67.8,254.8z"/>
<path class="st0" d="M118.4,163.2c-2.8,3-6,5.6-9.5,7.6c-3,1.8-6.5,2.9-10,3c-6.4,0-14.1-4.7-21.3-13.1l0.2-7.4l0.7-20.2l18.3-0.8
	h2.2l13.3,0.6l5.1,0.2L118.4,163.2z"/>
<path class="st2" d="M118.4,163.2c-2.8,3-6,5.6-9.5,7.6c-3,1.8-6.5,2.9-10,3c-6.4,0-14.1-4.7-21.3-13.1l-0.4,12.1
	c2.1,3.1,4.1,5.9,5.8,8.3c-2-0.5-4-1.2-6-1.9l-0.5-0.2l0.3-6.8l0.5-11.9l1.2-27.3h38.8L118.4,163.2z"/>
<path class="st0" d="M52.5,203.4c-2,4-9.4,3.1-9.5-2.4c0-1.8-0.2-3.7-0.4-5.5c1.5,0.4,2.9,1,4.1,1.9
	C49.1,198.8,51.1,200.9,52.5,203.4z"/>
<path class="st0" d="M150.1,196.2l0.3-0.1c1.2-0.5,2.4-0.9,3.7-1.1C153.1,196,151.6,196.5,150.1,196.2z"/>
<path class="st0" d="M142.2,94.8c0,1.5,0,2.9-0.1,4.3l0,0c-0.3,8.1-1.4,16.1-3.3,23.9c-4.2,17.4-12,31.3-20.5,40.2
	c-2.8,3-6,5.6-9.5,7.6c-3,1.8-6.5,2.9-10,3V49.1c5.5-0.1,10.9,0.6,16.2,2.1l0,0h0.1c0.6,0.2,1.3,0.4,1.9,0.6s1.1,0.4,1.7,0.6l0,0
	c11.4,4.5,19.8,13.8,22.5,30.1C142,86.6,142.3,90.7,142.2,94.8z"/>
<path class="st0" d="M100,49.1v124.6c-6.4,0-14.1-4.7-21.3-13.1c-0.1-0.1-0.2-0.2-0.3-0.4c-5.2-6.3-9.5-13.4-12.7-20.9l0,0
	c-4.5-10.4-7.3-21.5-8.4-32.8c-0.4-3.9-0.6-7.9-0.6-11.8c0-11.2,2-19.9,5.6-26.6l0,0C69.7,54.2,83.8,49.1,100,49.1z"/>
<path class="st0" d="M132.2,137.3l8.1-24.5c0,0,7.9-8.1,13.6-2.5c3.8,3.8-5.1,29-10,30C135.7,142.1,132.2,137.3,132.2,137.3z"/>
<path class="st0" d="M65.8,137.3l-8.1-24.5c0,0-7.9-8.1-13.6-2.5c-3.8,3.8,5.1,29,10,30C62.4,142.1,65.8,137.3,65.8,137.3z"/>
<path class="st1" d="M161.9,103.5c-0.6-6.3-2.6-14.2-6.9-24.9C141.5,45,112.4,31.5,105.3,34c-0.7,0.3,11.3,4.3,13.6,18.5
	c0,0,1.1,6.5,1.4,8.2c1.8,10.3,19.8,13.9,21.9,38.4l0,0c1.7,4.1,2.6,8.4,2.6,12.9c0,5.4-1.9,11.8-4.4,18.6
	c-5.4,14.2-14,30-14.7,41.5c-0.3,4.7-0.2,9.4,0.4,14c0.1,0.7,0.2,1.3,0.3,2c0.1,0.3,0.1,0.6,0.2,0.9c2.3,12.6,8.2,19.7,13.1,23.6
	c0.1,0.2,0.3,0.3,0.4,0.5c2.1,2.3,4.4,4.4,6.9,6.2c2.2,1.6,5.6,0.4,6.8-1.8c1.5-2.6,0.4-5.2-1.8-6.8c-2.6-2-4.9-4.3-6.9-6.9
	c-0.2-1.2-0.4-2.4-0.6-3.6c-0.4-2.3-0.7-4.7-1.1-7c1.8,1.4,3.8,2.5,6,3c0.2,0.1,0.4,0.1,0.6,0.1c1.5,0.3,3-0.2,4-1.2
	c0.6-0.6,1-1.2,1.3-2c0.9-2.5,0.1-5.6-3.2-6.5c-7.8-2.2,2.1-17.8,3.9-21.7c3.6-7.6,7.6-15.1,9.9-23.2
	C169.6,128.5,166.7,115.7,161.9,103.5z M149.9,154.5c-1.9,4-5.1,9.9-7.5,16.1c1.5-26.5,9.6-36.7,15-46.6c0.2,1.3,0.3,2.6,0.3,4
	C158,137.5,153.9,146,149.9,154.5L149.9,154.5z"/>
<path class="st1" d="M37.6,89.2c1.3-8.1,5.7-15.6,10.7-21.9c0.5-0.6,1-1.3,1.5-1.9c-3.1,8.6-5.2,18.7-12.4,29.1
	C37.3,92.7,37.3,90.9,37.6,89.2z M104.4,67.2c-3.8,2.3-8.2,4.4-12.6,4.8c-3.4,0.3-6.7,0.2-10.1-0.2c9-5.9,16.7-4.6,23.1-4.9
	C104.8,67,104.6,67.1,104.4,67.2L104.4,67.2z M94.2,33.3C75.7,33,58.9,41.9,49,51.5C37.5,62.7,25.6,79.2,27.5,96.2
	c0.4,3.1,1.2,6.2,2.6,9.1c-2,4-3.3,8.3-4,12.7c-6.7,12.5-7.4,27.2-2,40.3c3.1,7.4,8.8,12.9,12.7,19.8c0.8,1.4,1.5,2.8,2.1,4.3
	c1.2,2.8,2.2,5.8,2.8,8.8c0.1,0.5,0.2,1,0.3,1.5c0.2,0.9,0.3,1.9,0.5,2.9c0.3,1.8,0.4,3.7,0.5,5.5c0.1,5.5,7.5,6.3,9.5,2.4
	c0.4-0.7,0.5-1.5,0.5-2.4c-0.1-3.5-0.5-7-1.1-10.4c-0.4-2.1-0.9-4.1-1.5-6.1c1.3,1.8,2.4,3.7,3.3,5.8c2.1,5.4,3.2,11.1,3.2,16.9
	c0.4,11.6-0.9,23,1.3,34.5c1.2,6.3,10.9,3.6,9.6-2.6c-1-6.2-1.4-12.5-1.2-18.8c4.4,19.8,1.2,34.7,1.2,34.7s39.7-16.8,27.6-52.2
	c-2.4-6.5-5.7-12.5-9.9-18c-0.8-1-1.6-2.1-2.4-3.3c-1.8-2.4-3.7-5.2-5.8-8.3l-0.4-0.6c-3.8-5.6-7.9-12.1-11.7-18.7
	c-8.8-15.3-15.7-31.4-12.2-39.5c1.1-2.6,2.2-5.1,3.3-7.4c1.1-2.3,2.2-4.5,3.2-6.4c3.4-6.9,7.6-13.3,12.4-19.3
	c5.1-0.3,10.2,1,15.3,1.2c4,0.2,8-0.3,11.8-1.5c1.3-0.4,2.5-0.9,3.7-1.4c2.6-1.1,5.1-2.3,7.5-3.7c1.9-1,3.6-2.4,4.9-4.2
	C126,53.9,110.6,30,94.2,33.3z"/>
</svg>
