<?xml version="1.0" encoding="utf-8"?>
<!-- Generator: Adobe Illustrator 26.0.0, SVG Export Plug-In . SVG Version: 6.00 Build 0)  -->
<svg version="1.1" id="Calque_9" xmlns="http://www.w3.org/2000/svg" xmlns:xlink="http://www.w3.org/1999/xlink" x="0px" y="0px"
	 viewBox="0 0 200 200" style="enable-background:new 0 0 200 200;" xml:space="preserve">
<style type="text/css">
	.st0{fill:#231713;}
	.st1{clip-path:url(#SVGID_00000008850914983204234580000009343679052082557095_);}
	.st2{fill:#6F412A;}
	.st3{clip-path:url(#SVGID_00000150789897761436376610000017028012116597833859_);}
	.st4{clip-path:url(#SVGID_00000054251048899108399630000003038004916397020318_);}
	.st5{fill:#6E4031;}
	.st6{clip-path:url(#SVGID_00000160896383575906750550000014125169880276883090_);}
	.st7{clip-path:url(#SVGID_00000075851180961610686210000011036111298413656979_);}
	.st8{fill:#6D3B25;}
	.st9{clip-path:url(#SVGID_00000045605331475740771700000015056135096450865566_);}
	.st10{clip-path:url(#SVGID_00000149361500279000866650000013428930549534353584_);}
	.st11{fill:#FFFFFF;}
	.st12{clip-path:url(#SVGID_00000036953418194027443260000008060728181202418050_);}
	.st13{clip-path:url(#SVGID_00000032647217215406666490000014057228798950102450_);}
	.st14{fill:#050505;}
	.st15{clip-path:url(#SVGID_00000126306550346054864870000002238659897022117535_);}
	.st16{fill:none;stroke:#6D3B25;stroke-width:2;stroke-linecap:round;stroke-miterlimit:10;}
	.st17{clip-path:url(#SVGID_00000098200834530022374730000017977474616418882973_);}
	.st18{fill:#90573A;}
	.st19{clip-path:url(#SVGID_00000032627147118767493720000004868701472971716230_);}
</style>
<path class="st0" d="M150.6,72.7c3.5,22.2,3.8,44.7,0.7,66.9c-5,37-21.3,49.2-21.3,49.2s-10-5.1-11-8.4c-0.8-2.6-0.2-24.1-0.2-24.1
	l4.5-64.3L150.6,72.7z"/>
<g id="random">
	<g>
		<defs>
			<polygon id="SVGID_1_" points="130.2,109 130.2,109 153.4,109 153.4,141.4 130.2,141.4 			"/>
		</defs>
		<clipPath id="SVGID_00000078764921452408435710000007307553398354610597_">
			<use xlink:href="#SVGID_1_"  style="overflow:visible;"/>
		</clipPath>
		<g style="clip-path:url(#SVGID_00000078764921452408435710000007307553398354610597_);">
			<path class="st2" d="M130.2,138l8.3-24.5c0,0,8.1-8.1,14-2.5c3.9,3.8-5.2,29-10.1,30C133.7,142.7,130.2,138,130.2,138z"/>
		</g>
	</g>
</g>
<g id="random2">
	<g>
		<defs>
			<polygon id="SVGID_00000099625721049093456430000011340404558854502536_" points="68.6,109 68.6,109 45.3,109 45.3,141.4 
				68.6,141.4 			"/>
		</defs>
		<clipPath id="SVGID_00000148656391370988704530000012494037755999031975_">
			<use xlink:href="#SVGID_00000099625721049093456430000011340404558854502536_"  style="overflow:visible;"/>
		</clipPath>
		<g style="clip-path:url(#SVGID_00000148656391370988704530000012494037755999031975_);">
			<path class="st2" d="M68.6,138l-8.3-24.5c0,0-8.1-8.1-14-2.5c-3.9,3.8,5.2,29,10.1,30C65,142.7,68.6,138,68.6,138z"/>
		</g>
	</g>
</g>
<g id="random3">
	<g>
		<defs>
			<polygon id="SVGID_00000019656153472457555750000007189967926272369585_" points="134.4,112.6 134.4,112.6 145.9,112.6 
				145.9,126.4 134.4,126.4 			"/>
		</defs>
		<clipPath id="SVGID_00000063612497345161277130000003833894093071965837_">
			<use xlink:href="#SVGID_00000019656153472457555750000007189967926272369585_"  style="overflow:visible;"/>
		</clipPath>
		<g style="clip-path:url(#SVGID_00000063612497345161277130000003833894093071965837_);">
			<path class="st5" d="M134.7,120.7c0-0.2,0.7-1.6,5.3-5.3c1.5-1.3,3.4-2.3,5.3-2.8c0.5,0.5,0.6,1.2,0.5,1.9
				c-0.1,0.8-4.2,2.9-5.4,4c-1.9,1.7-6,7.8-6,8L134.7,120.7z"/>
		</g>
	</g>
</g>
<g id="random4">
	<g>
		<defs>
			<polygon id="SVGID_00000152955877554976208910000014457911752159915431_" points="57,112.6 57,112.6 45.6,112.6 45.6,126.4 
				57,126.4 			"/>
		</defs>
		<clipPath id="SVGID_00000080191477547821721790000006537647995725375887_">
			<use xlink:href="#SVGID_00000152955877554976208910000014457911752159915431_"  style="overflow:visible;"/>
		</clipPath>
		<g style="clip-path:url(#SVGID_00000080191477547821721790000006537647995725375887_);">
			<path class="st5" d="M56.7,120.7c0-0.2-0.7-1.6-5.3-5.3c-1.6-1.3-3.4-2.2-5.3-2.8c-0.5,0.5-0.6,1.2-0.5,1.9
				c0.1,0.8,4.2,2.9,5.4,4c2.3,2.5,4.3,5.1,6,8L56.7,120.7z"/>
		</g>
	</g>
</g>
<g>
	<defs>
		<polygon id="SVGID_00000026848021571492125410000000734143964104339375_" points="108.3,85.4 108.3,85.4 131.8,85.4 131.8,92.5 
			108.3,92.5 		"/>
	</defs>
	<clipPath id="SVGID_00000117671643830540428860000003128197887849353365_">
		<use xlink:href="#SVGID_00000026848021571492125410000000734143964104339375_"  style="overflow:visible;"/>
	</clipPath>
	<g style="clip-path:url(#SVGID_00000117671643830540428860000003128197887849353365_);">
		<path class="st8" d="M130.6,92.5c-0.2,0-0.3,0-0.4-0.1c-2.3-1-4.7-1.7-7.2-2.4c-7.9-1.8-8.4-0.5-11.1,0c-1.1,0.1-2.2-0.2-3.1-0.8
			c-0.4-0.5-0.8-2.1-0.3-2.5c0.2-0.2,3.7-2.6,12.7-0.5c3.8,0.8,9.7,4.1,9.8,4.2c0.6,0.2,0.8,0.9,0.6,1.5
			C131.5,92.2,131.1,92.5,130.6,92.5z"/>
	</g>
</g>
<g>
	<defs>
		<polygon id="SVGID_00000044176479193706554860000006900583687823963786_" points="85.6,85.4 85.6,85.4 62.1,85.4 62.1,92.5 
			85.6,92.5 		"/>
	</defs>
	<clipPath id="SVGID_00000165927595501589558260000004350433378043983748_">
		<use xlink:href="#SVGID_00000044176479193706554860000006900583687823963786_"  style="overflow:visible;"/>
	</clipPath>
	<g style="clip-path:url(#SVGID_00000165927595501589558260000004350433378043983748_);">
		<path class="st8" d="M63.2,92.5c0.2,0,0.3,0,0.4-0.1c2.3-1,4.7-1.7,7.2-2.3c7.9-1.8,8.4-0.5,11.1,0c1.1,0.1,2.2-0.2,3.1-0.8
			c0.4-0.5,0.8-2.1,0.3-2.5c-0.2-0.2-3.7-2.6-12.7-0.5c-3.8,0.8-9.7,4.1-9.8,4.2c-0.6,0.2-0.8,0.9-0.6,1.5
			C62.4,92.2,62.8,92.5,63.2,92.5L63.2,92.5z"/>
	</g>
</g>
<g>
	<defs>
		<polygon id="SVGID_00000169553263969165363620000008203006533450038451_" points="113.3,99.5 113.3,99.5 128.4,99.5 128.4,114 
			113.3,114 		"/>
	</defs>
	<clipPath id="SVGID_00000173881758958961193160000000178939134411207094_">
		<use xlink:href="#SVGID_00000169553263969165363620000008203006533450038451_"  style="overflow:visible;"/>
	</clipPath>
	<g style="clip-path:url(#SVGID_00000173881758958961193160000000178939134411207094_);">
		<ellipse class="st11" cx="120.9" cy="106.7" rx="7.5" ry="7.3"/>
	</g>
</g>
<g>
	<defs>
		<polygon id="SVGID_00000005261178761329027860000015992815768048739207_" points="80.5,99.5 80.5,99.5 65.5,99.5 65.5,114 
			80.5,114 		"/>
	</defs>
	<clipPath id="SVGID_00000067925996698132448350000006539858083190529714_">
		<use xlink:href="#SVGID_00000005261178761329027860000015992815768048739207_"  style="overflow:visible;"/>
	</clipPath>
	<g style="clip-path:url(#SVGID_00000067925996698132448350000006539858083190529714_);">
		<ellipse class="st11" cx="73" cy="106.7" rx="7.5" ry="7.3"/>
	</g>
</g>
<g>
	<defs>
		<polygon id="SVGID_00000139981686030550867410000008089163335258791843_" points="115.8,102.8 115.8,102.8 125.9,102.8 
			125.9,112.8 115.8,112.8 		"/>
	</defs>
	<clipPath id="SVGID_00000070809339541140359410000003516843513685390270_">
		<use xlink:href="#SVGID_00000139981686030550867410000008089163335258791843_"  style="overflow:visible;"/>
	</clipPath>
	<g style="clip-path:url(#SVGID_00000070809339541140359410000003516843513685390270_);">
		<circle class="st14" cx="120.8" cy="107.8" r="5"/>
	</g>
</g>
<g>
	<defs>
		<polygon id="SVGID_00000138548734083060306960000000621403030073690547_" points="78.1,102.8 78.1,102.8 68,102.8 68,112.8 
			78.1,112.8 		"/>
	</defs>
	<clipPath id="SVGID_00000140002247329457847840000001339060796081418685_">
		<use xlink:href="#SVGID_00000138548734083060306960000000621403030073690547_"  style="overflow:visible;"/>
	</clipPath>
	<g style="clip-path:url(#SVGID_00000140002247329457847840000001339060796081418685_);">
		<circle class="st14" cx="73.1" cy="107.8" r="5"/>
	</g>
</g>
<path class="st16" d="M90.7,125.6c2.3,0.6,4.6,1.1,7,1.3c1.7,0,7-1.7,7-1.7"/>
<path class="st16" d="M82.4,132.3c0.8,0.5,1.6,0.9,2.5,1.2c3.9,1.3,8.1,1.9,12.2,1.7c3.9,0,7.8-0.6,11.4-1.9c1.2-0.4,2.3-1,3.3-1.8"
	/>
<g id="random5">
	<g>
		<defs>
			<rect id="SVGID_00000147901536873907787080000010676713077088089786_" x="57.8" y="44.6" width="40.2" height="125.2"/>
		</defs>
		<clipPath id="SVGID_00000108296161223878585350000015034747797186512807_">
			<use xlink:href="#SVGID_00000147901536873907787080000010676713077088089786_"  style="overflow:visible;"/>
		</clipPath>
		<g style="clip-path:url(#SVGID_00000108296161223878585350000015034747797186512807_);">
			<path class="st18" d="M144.4,84.1v7.1l-1.7,27.1c0,0-2.2,17.4-6.1,24c-4.2,7-17.1,20-25.3,24.4c-4.9,2.6-10.7,4-16.1,2.6
				c-8.6-2.2-22.8-18.6-27.1-25.6c-4-6.6-7.6-19-8.5-25.8c-1.2-8.4-1.7-33.8-1.7-33.8c0-24.1,16.9-39.5,41-39.5h1.6
				c12,0,23,3.8,31,10.7C139.8,62.4,144.6,73,144.4,84.1z"/>
		</g>
	</g>
</g>
<g id="random6">
	<g>
		<defs>
			<rect id="SVGID_00000042734576799137867110000000656456084079691164_" x="97" y="44.6" width="40.2" height="125.2"/>
		</defs>
		<clipPath id="SVGID_00000115506995640672237950000012691466351626270084_">
			<use xlink:href="#SVGID_00000042734576799137867110000000656456084079691164_"  style="overflow:visible;"/>
		</clipPath>
		<g style="clip-path:url(#SVGID_00000115506995640672237950000012691466351626270084_);">
			<path class="st18" d="M50.7,84.1v7.1l1.7,27.1c0,0,2.2,17.4,6.2,24c4.2,7,17.1,20,25.3,24.4c4.9,2.6,10.7,4,16.1,2.6
				c8.6-2.2,22.8-18.6,27.1-25.6c4-6.6,7.6-19,8.5-25.8c1.2-8.4,1.7-33.8,1.7-33.8c0-24.1-16.9-39.5-41-39.5h-1.6
				c-12,0-23,3.8-31,10.7C55.2,62.4,50.5,73,50.7,84.1z"/>
		</g>
	</g>
</g>
<path class="st0" d="M58.8,115.4l-8-5.2c0,0-7.8-12.4-7.8-25c0-16,28.2-43.5,44-46.5c4.3-0.8,8.8,0.5,12.1,3.4
	c0,0,18.2-0.6,23.6,1.7c24.7,10.6,29.7,28,29,39.7c-0.7,8.7-2.8,17.3-6.3,25.3l-6.7-1.1l-2.9-15.1l-12.1-9c0,0-6.5-11-6.2-11
	s2.3,9.9,2.3,9.9s-10.9,0.6-13.8-1.3c-2.1-1.4-5-8.9-5-8.9s-8.8,7.6-11.9,9.4c-3.5,2-11.1,2.7-11.1,2.7l1.3-12.8l-10,13.3l-9,7.3
	L58.8,115.4z"/>
</svg>
