<svg id="Calque_9" data-name="Calque 9" xmlns="http://www.w3.org/2000/svg" xmlns:xlink="http://www.w3.org/1999/xlink" viewBox="0 0 788 1005"><defs><style>.cls-1{fill:none;}.cls-2{fill:#231713;}.cls-3{fill:#434245;}.cls-4{clip-path:url(#clip-path);}.cls-5{fill:#955a40;}.cls-6{clip-path:url(#clip-path-2);}.cls-7{clip-path:url(#clip-path-3);}.cls-8{fill:#6d3b25;}.cls-9{clip-path:url(#clip-path-4);}.cls-10{clip-path:url(#clip-path-5);}.cls-11{fill:#fff;}.cls-12{clip-path:url(#clip-path-6);}.cls-13{clip-path:url(#clip-path-7);}.cls-14{fill:#050505;}.cls-15{clip-path:url(#clip-path-8);}.cls-16{clip-path:url(#clip-path-9);}.cls-17{fill:#b9785c;}.cls-18{clip-path:url(#clip-path-10);}.cls-19{clip-path:url(#clip-path-11);}.cls-20{fill:#90573a;}.cls-21{clip-path:url(#clip-path-12);}</style><clipPath id="clip-path"><polygon class="cls-1" points="431.25 250.65 431.25 250.65 442.67 250.65 442.67 264.52 431.25 264.52 431.25 250.65"/></clipPath><clipPath id="clip-path-2"><polygon class="cls-1" points="353.81 250.65 353.81 250.65 342.38 250.65 342.38 264.52 353.81 264.52 353.81 250.65"/></clipPath><clipPath id="clip-path-3"><polygon class="cls-1" points="402.11 223.46 402.11 223.46 425.54 223.46 425.54 230.58 402.11 230.58 402.11 223.46"/></clipPath><clipPath id="clip-path-4"><polygon class="cls-1" points="379.35 223.46 379.35 223.46 355.92 223.46 355.92 230.58 379.35 230.58 379.35 223.46"/></clipPath><clipPath id="clip-path-5"><polygon class="cls-1" points="407.14 237.56 407.14 237.56 422.21 237.56 422.21 252.07 407.14 252.07 407.14 237.56"/></clipPath><clipPath id="clip-path-6"><polygon class="cls-1" points="374.32 237.56 374.32 237.56 359.25 237.56 359.25 252.07 374.32 252.07 374.32 237.56"/></clipPath><clipPath id="clip-path-7"><polygon class="cls-1" points="409.57 240.84 409.57 240.84 419.65 240.84 419.65 250.92 409.57 250.92 409.57 240.84"/></clipPath><clipPath id="clip-path-8"><polygon class="cls-1" points="371.89 240.84 371.89 240.84 361.81 240.84 361.81 250.92 371.89 250.92 371.89 240.84"/></clipPath><clipPath id="clip-path-9"><polygon class="cls-1" points="423.42 246.26 423.42 246.26 447.84 246.26 447.84 280.29 423.42 280.29 423.42 246.26"/></clipPath><clipPath id="clip-path-10"><polygon class="cls-1" points="362.69 246.26 362.69 246.26 338.27 246.26 338.27 280.29 362.69 280.29 362.69 246.26"/></clipPath><clipPath id="clip-path-11"><rect class="cls-1" x="349.31" y="179.93" width="41.19" height="125.17"/></clipPath><clipPath id="clip-path-12"><rect class="cls-1" x="390.5" y="179.93" width="41.19" height="125.17"/></clipPath></defs><path class="cls-2" d="M386.19,187.2c5.21,1.41,4.88,6.77-.42,8.08-6.71,1.66-15.72,6.32-19.71,19.17-4.28,13.76-1.46,57.94,1.05,71.06,5.08,26.51,7.58,42.34,0,43.56-3.45.56-3.81-34.9-6-45C358.2,271,354.93,244,354,233.21c-1-11.63.24-24.84,3.45-30.67C366.23,186.51,378.36,185.07,386.19,187.2Z"/><path class="cls-3" d="M381.67,204.11c-13.59-10-5.67-32.21,24.82-27.3C418,178.67,431,180,441.31,197.68c10.64,18.18.44,37.8.44,37.8s-15.31-26.86-23-33.47c-8.77-7.52-9.9-1.36-26.35-6.29C377.8,191.35,384.92,206.49,381.67,204.11Z"/><g class="cls-4"><path class="cls-5" d="M431.53,258.76c0-.25.71-1.63,5.33-5.32a14.09,14.09,0,0,1,5.31-2.79,2.14,2.14,0,0,1,.47,1.89c-.13.84-4.16,2.89-5.41,4a49.17,49.17,0,0,0-6,8Z"/></g><g class="cls-6"><path class="cls-5" d="M353.52,258.76c0-.25-.71-1.63-5.33-5.32a14,14,0,0,0-5.31-2.79,2.14,2.14,0,0,0-.47,1.89c.13.84,4.16,2.89,5.41,4a49.17,49.17,0,0,1,6,8Z"/></g><g class="cls-7"><path class="cls-8" d="M424.42,230.58a1.15,1.15,0,0,1-.44-.09,48.69,48.69,0,0,0-7.19-2.35c-7.86-1.78-8.36-.54-11.08,0a5,5,0,0,1-3.1-.79c-.39-.47-.75-2.14-.28-2.54.2-.18,3.71-2.57,12.72-.53,3.75.85,9.66,4.09,9.81,4.15a1.12,1.12,0,0,1,.59,1.47A1.11,1.11,0,0,1,424.42,230.58Z"/></g><g class="cls-9"><path class="cls-8" d="M357,230.58a1.12,1.12,0,0,0,.44-.09,48.69,48.69,0,0,1,7.19-2.35c7.86-1.78,8.37-.54,11.09,0a5,5,0,0,0,3.09-.79c.4-.47.75-2.14.28-2.54-.2-.18-3.71-2.57-12.72-.53-3.75.85-9.66,4.09-9.81,4.15a1.12,1.12,0,0,0,.44,2.15Z"/></g><g class="cls-10"><ellipse class="cls-11" cx="414.68" cy="244.82" rx="7.53" ry="7.26"/></g><g class="cls-12"><ellipse class="cls-11" cx="366.78" cy="244.82" rx="7.53" ry="7.26"/></g><g class="cls-13"><circle class="cls-14" cx="414.61" cy="245.88" r="5.04"/></g><g class="cls-15"><circle class="cls-14" cx="366.85" cy="245.88" r="5.04"/></g><g id="random" data-name="&lt;Repetition miroir&gt;"><g class="cls-16"><path class="cls-17" d="M423.42,276.68,432.14,251s8.48-8.53,14.69-2.58c4.13,3.95-5.42,30.47-10.68,31.53C427.17,281.71,423.42,276.68,423.42,276.68Z"/></g></g><g id="random2" data-name="&lt;Repetition miroir&gt;"><g class="cls-18"><path class="cls-17" d="M362.69,276.68,354,251s-8.47-8.53-14.68-2.58c-4.13,3.95,5.42,30.47,10.67,31.53C358.94,281.71,362.69,276.68,362.69,276.68Z"/></g></g><g id="random3" data-name="&lt;Repetition miroir&gt;"><g class="cls-19"><path class="cls-20" d="M435.87,219.41v7.1l-1.68,27.08S432,271,428,277.62c-4.23,7-17.08,19.95-25.34,24.34-4.94,2.63-10.67,4-16.1,2.61-8.64-2.17-22.85-18.65-27.07-25.65-4-6.61-7.59-19.05-8.54-25.77-1.2-8.36-1.68-33.74-1.68-33.74,0-24.07,16.9-39.48,41-39.48h1.6c12,0,23,3.85,31,10.71A37,37,0,0,1,435.87,219.41Z"/></g></g><g id="random4" data-name="&lt;Repetition miroir&gt;"><g class="cls-21"><path class="cls-20" d="M345.13,219.41v7.1l1.68,27.08S349,271,353,277.62c4.23,7,17.08,19.95,25.34,24.34,4.94,2.63,10.67,4,16.1,2.61,8.64-2.17,22.85-18.65,27.07-25.65,4-6.61,7.59-19.05,8.54-25.77,1.2-8.36,1.68-33.74,1.68-33.74,0-24.07-16.9-39.48-41-39.48h-1.6c-12,0-23,3.85-31,10.71A37,37,0,0,0,345.13,219.41Z"/></g></g><path class="cls-2" d="M383.69,178.46c-12.73,6,10.7,15.8,16.16,16.94,6.92,1.43,20.71,2.84,24.39,17.76,8.63,34.87-12.12,97.58-16.34,112.78-.55,2,8.27,6.54,9.66,3.14,1.27-3.14,3.44-18.51,5.11-24.55,4.51-16.3,19.63-51.77,20.56-64.46,1-13.73,5-31.76,2.07-38.58C436.16,179.93,399.89,170.78,383.69,178.46Z"/><path class="cls-2" d="M394.15,187.08c-4.89,2.69-5.58,8.2,0,8.3,7.06.13,24.63,3.56,31.45,15.87,7.29,13.19,7.25,46.51,3.91,71-3.69,27.06-4,35.07,1.28,49.5,1.22,3.35,7.15,4.75,12.44-49.5,1.39-14.17-10.16-50.92-.81-55.42.87-.42-5.22-26.13-9.7-31.4C420.41,181,401.51,183,394.15,187.08Z"/><path class="cls-2" d="M399.72,193.86c-4.22,3.65.43,7.95,5.91,6.89,6.93-1.35,16.27-6.9,25.51,3.72,9.89,11.37-5.83,22.4,3.28,45.38,15.26,38.45,1.1,80.57,10.7,84.58,11.58,4.85,10.24-41.67-3-89.12-3.83-13.71,1.24-18.81,2.32-30.15,1.92-20.12-6.54-22.42-11.78-26.46C424.48,182.42,406.07,188.37,399.72,193.86Z"/><path class="cls-2" d="M398.9,189.75c3.51,3.25-3.1,8.53-7.72,7.1-5.84-1.81-9.34-1.19-20.76,4.57-27.86,14.06-17.7,80.56-18.13,93.43-.59,17.77,4.19,24.63,1.71,30.83-7,17.57-10.3-4.06-8.59-50.88.47-12.71-1.31-56.19,3.53-65.42,5.25-10,15.81-16.51,21.22-19.77C385,180.66,383.05,175.09,398.9,189.75Z"/><path class="cls-2" d="M397.48,193.76c4.75,2.43,3.21,7.17-2.21,7-16-.6-20.28,4.77-28.26,15.1-20,25.89-2.76,76.45-1.38,89.13,3,27.46,5.69,44.44-3.83,40.3-18.28-7.95,4.37-15.42-12.7-60.07-4.63-12.11.86-43.24,2.23-53.45,1.48-11,2.19-22.17,6.55-26.92C369.85,191.77,390.33,190.11,397.48,193.76Z"/><path class="cls-2" d="M402.84,198.75c-2.28,4.88-6.76-1.59-10.46-3-8.69-3.38-30.09,2-37.67,8.93-15.89,14.57-2.78,52.18-3.84,58.63-1.88,11.35-1.31,21.39-2.66,22.23-.16.09-4.29-32-7.43-57-1.88-14.88,6.1-36.22,18.14-43.68,9.52-5.88,18.27-6.11,26.05-2.74C390.47,184.5,409.86,183.71,402.84,198.75Z"/><path class="cls-2" d="M397,190.43c-12.52-8.65-45-4.2-45,34.66,0,66.81-15.14,84-10.72,88.11,21.45,19.93,4.43-94.78,31.73-112.94,17.37-11.56,29.93-.78,29.93-.78s-2.16-12.29-12-10.49"/></svg>