<?xml version="1.0" encoding="utf-8"?>
<!-- Generator: Adobe Illustrator 26.0.1, SVG Export Plug-In . SVG Version: 6.00 Build 0)  -->
<svg version="1.1" id="Calque_9" xmlns="http://www.w3.org/2000/svg" xmlns:xlink="http://www.w3.org/1999/xlink" x="0px" y="0px"
	 viewBox="0 0 788 1005" style="enable-background:new 0 0 788 1005;" xml:space="preserve">
<style type="text/css">
	.st0{fill:#434245;}
	.st1{clip-path:url(#SVGID_00000044152470224262938580000001050679902045879432_);}
	.st2{fill:#955A40;}
	.st3{clip-path:url(#SVGID_00000041264773521066208190000009100547693714310059_);}
	.st4{clip-path:url(#SVGID_00000065795085717718411360000006616588442830288016_);}
	.st5{fill:#B9785C;}
	.st6{clip-path:url(#SVGID_00000111902311178899578720000016753568486133411480_);}
	.st7{fill:#90573A;}
	.st8{fill:#231713;}
</style>
<path class="st0" d="M381.7,204.1c-13.6-10-5.7-32.2,24.8-27.3c11.5,1.9,24.5,3.2,34.8,20.9c10.6,18.2,0.4,37.8,0.4,37.8
	s-15.3-26.9-23-33.5c-8.8-7.5-9.9-1.4-26.4-6.3C377.8,191.4,384.9,206.5,381.7,204.1z"/>
<g>
	<defs>
		<polygon id="SVGID_1_" points="431.2,250.6 431.2,250.6 442.7,250.6 442.7,264.5 431.2,264.5 		"/>
	</defs>
	<clipPath id="SVGID_00000099643949104605173290000003297212823402700188_">
		<use xlink:href="#SVGID_1_"  style="overflow:visible;"/>
	</clipPath>
	<g style="clip-path:url(#SVGID_00000099643949104605173290000003297212823402700188_);">
		<path class="st2" d="M431.5,258.8c0-0.2,0.7-1.6,5.3-5.3c1.5-1.3,3.4-2.3,5.3-2.8c0.5,0.5,0.6,1.2,0.5,1.9c-0.1,0.8-4.2,2.9-5.4,4
			c-2.3,2.5-4.3,5.1-6,8L431.5,258.8z"/>
	</g>
</g>
<g>
	<defs>
		<polygon id="SVGID_00000013189647792170719830000013558123540742350487_" points="353.8,250.6 353.8,250.6 342.4,250.6 
			342.4,264.5 353.8,264.5 		"/>
	</defs>
	<clipPath id="SVGID_00000028321165606914902950000001250419344196708230_">
		<use xlink:href="#SVGID_00000013189647792170719830000013558123540742350487_"  style="overflow:visible;"/>
	</clipPath>
	<g style="clip-path:url(#SVGID_00000028321165606914902950000001250419344196708230_);">
		<path class="st2" d="M353.5,258.8c0-0.2-0.7-1.6-5.3-5.3c-1.5-1.3-3.4-2.3-5.3-2.8c-0.5,0.5-0.6,1.2-0.5,1.9
			c0.1,0.8,4.2,2.9,5.4,4c2.3,2.5,4.3,5.1,6,8L353.5,258.8z"/>
	</g>
</g>
<g id="random">
	<g>
		<defs>
			<polygon id="SVGID_00000142147715126585135140000004748961075474199204_" points="423.4,246.3 423.4,246.3 447.8,246.3 
				447.8,280.3 423.4,280.3 			"/>
		</defs>
		<clipPath id="SVGID_00000137849212091713127590000014246900625792978565_">
			<use xlink:href="#SVGID_00000142147715126585135140000004748961075474199204_"  style="overflow:visible;"/>
		</clipPath>
		<g style="clip-path:url(#SVGID_00000137849212091713127590000014246900625792978565_);">
			<path class="st5" d="M423.4,276.7l8.7-25.7c0,0,8.5-8.5,14.7-2.6c4.1,3.9-5.4,30.5-10.7,31.5
				C427.2,281.7,423.4,276.7,423.4,276.7z"/>
		</g>
	</g>
</g>
<g id="random2">
	<g>
		<defs>
			<polygon id="SVGID_00000059289346872677807860000015463337709038873011_" points="362.7,246.3 362.7,246.3 338.3,246.3 
				338.3,280.3 362.7,280.3 			"/>
		</defs>
		<clipPath id="SVGID_00000059312059323995961920000006404328147432069820_">
			<use xlink:href="#SVGID_00000059289346872677807860000015463337709038873011_"  style="overflow:visible;"/>
		</clipPath>
		<g style="clip-path:url(#SVGID_00000059312059323995961920000006404328147432069820_);">
			<path class="st5" d="M362.7,276.7L354,251c0,0-8.5-8.5-14.7-2.6c-4.1,3.9,5.4,30.5,10.7,31.5
				C358.9,281.7,362.7,276.7,362.7,276.7z"/>
		</g>
	</g>
</g>
<path class="st7" d="M394.2,181.2L394.2,181.2c-23.9-0.1-43.2,11.1-43.2,45.5c0,7.9,0.6,15.8,1.8,23.7c1.1,6.9,2.8,13.6,5.1,20.2
	c7.7,21.7,21.1,35.2,36.4,35.2v0.1c15.1,0,28.3-13.1,36.1-34.3c3.2-8.9,5.3-18.1,6.3-27.5c0.6-5.7,1-11.5,1-17.2
	C437.5,192.4,418.1,181.2,394.2,181.2z"/>
<path class="st8" d="M386.2,187.2c5.2,1.4,4.9,6.8-0.4,8.1c-6.7,1.7-15.7,6.3-19.7,19.2c-4.3,13.8-1.5,57.9,1,71.1
	c5.1,26.5,7.6,42.3,0,43.6c-3.5,0.6-3.8-34.9-6-45c-2.9-13.1-6.2-40.1-7.1-50.9c-1-11.6,0.2-24.8,3.5-30.7
	C366.2,186.5,378.4,185.1,386.2,187.2z"/>
<path class="st8" d="M383.7,178.5c-12.7,6,10.7,15.8,16.2,16.9c6.9,1.4,20.7,2.8,24.4,17.8c8.6,34.9-12.1,97.6-16.3,112.8
	c-0.5,2,8.3,6.5,9.7,3.1c1.3-3.1,3.4-18.5,5.1-24.5c4.5-16.3,19.6-51.8,20.6-64.5c1-13.7,5-31.8,2.1-38.6
	C436.2,179.9,399.9,170.8,383.7,178.5z"/>
<path class="st8" d="M394.1,187.1c-4.9,2.7-5.6,8.2,0,8.3c7.1,0.1,24.6,3.6,31.5,15.9c7.3,13.2,7.2,46.5,3.9,71
	c-3.7,27.1-4,35.1,1.3,49.5c1.2,3.4,7.1,4.8,12.4-49.5c1.4-14.2-10.2-50.9-0.8-55.4c0.9-0.4-5.2-26.1-9.7-31.4
	C420.4,181,401.5,183,394.1,187.1z"/>
<path class="st8" d="M399.7,193.9c-4.2,3.6,0.4,7.9,5.9,6.9c6.9-1.4,16.3-6.9,25.5,3.7c9.9,11.4-5.8,22.4,3.3,45.4
	c15.3,38.5,1.1,80.6,10.7,84.6c11.6,4.9,10.2-41.7-3-89.1c-3.8-13.7,1.2-18.8,2.3-30.1c1.9-20.1-6.5-22.4-11.8-26.5
	C424.5,182.4,406.1,188.4,399.7,193.9z"/>
<path class="st8" d="M398.9,189.8c3.5,3.2-3.1,8.5-7.7,7.1c-5.8-1.8-9.3-1.2-20.8,4.6c-27.9,14.1-17.7,80.6-18.1,93.4
	c-0.6,17.8,4.2,24.6,1.7,30.8c-7,17.6-10.3-4.1-8.6-50.9c0.5-12.7-1.3-56.2,3.5-65.4c5.2-10,15.8-16.5,21.2-19.8
	C385,180.7,383,175.1,398.9,189.8z"/>
<path class="st8" d="M397.5,193.8c4.8,2.4,3.2,7.2-2.2,7c-16-0.6-20.3,4.8-28.3,15.1c-20,25.9-2.8,76.4-1.4,89.1
	c3,27.5,5.7,44.4-3.8,40.3c-18.3-8,4.4-15.4-12.7-60.1c-4.6-12.1,0.9-43.2,2.2-53.4c1.5-11,2.2-22.2,6.5-26.9
	C369.9,191.8,390.3,190.1,397.5,193.8z"/>
<path class="st8" d="M397,190.4c-12.5-8.6-45-4.2-45,34.7c0,66.8-15.1,84-10.7,88.1c21.5,19.9,4.4-94.8,31.7-112.9
	c17.4-11.6,29.9-0.8,29.9-0.8s-2.2-12.3-12-10.5"/>
<path class="st8" d="M402.8,198.8c-2.3,4.9-6.8-1.6-10.5-3c-8.7-3.4-30.1,2-37.7,8.9c-15.9,14.6-2.8,52.2-3.8,58.6
	c-1.9,11.4-1.3,21.4-2.7,22.2c-0.2,0.1-4.3-32-7.4-57c-1.9-14.9,6.1-36.2,18.1-43.7c9.5-5.9,18.3-6.1,26-2.7
	C390.5,184.5,409.9,183.7,402.8,198.8z"/>
</svg>
