<?xml version="1.0" encoding="utf-8"?>
<!-- Generator: Adobe Illustrator 26.0.0, SVG Export Plug-In . SVG Version: 6.00 Build 0)  -->
<svg version="1.1" id="Calque_9" xmlns="http://www.w3.org/2000/svg" xmlns:xlink="http://www.w3.org/1999/xlink" x="0px" y="0px"
	 viewBox="0 0 200 200" style="enable-background:new 0 0 200 200;" xml:space="preserve">
<style type="text/css">
	.st0{fill:#6F412A;}
	.st1{fill:#90573A;}
	.st2{fill:#2D2020;}
</style>
<path class="st0" d="M131.2,132.9l8.1-24.5c0,0,7.9-8.1,13.6-2.5c3.8,3.8-5.1,29-10,30C134.7,137.7,131.2,132.9,131.2,132.9z"/>
<path class="st0" d="M64.8,132.9l-8.1-24.5c0,0-7.9-8.1-13.6-2.5c-3.8,3.8,5.1,29,10,30C61.4,137.7,64.8,132.9,64.8,132.9z"/>
<path class="st1" d="M98,44.7c-23.9,0-43.3,11.2-43.3,45.6c0,46,27.4,79,43.3,79s43.3-33,43.3-79C141.3,55.9,121.9,44.7,98,44.7z"/>
<path class="st2" d="M56.7,108.4l2.9-22.5L77.5,78l10.1-24.1l26,3.7l12.3-3.7l-6.3,7.4l16.8,16.2l2.9,30.9c0,0,5.3-2.6,6.7-4.5
	s12.6-36.7,12.6-36.7L141.2,48h-6.5l-11.4-21.4l-47-8L23.2,63.5l19.8,42.4l7.2-0.4L56.7,108.4z"/>
<polygon class="st2" points="45.5,44.7 23.2,63.5 21.1,85.9 25.9,85.9 31.3,74.5 36.5,63.5 53.5,53.3 "/>
<polygon class="st2" points="48.1,65.3 33.5,81.9 31.6,95.2 37.1,99.4 37.1,89.5 48.1,79.5 "/>
</svg>
