<svg xmlns="http://www.w3.org/2000/svg" viewBox="0 0 588 387.05"><defs><style>.cls-1{fill:#fa9980;}.cls-2{fill:#aa5b49;}.cls-3{fill:#36344d;}.cls-4{fill:#473415;}.cls-5{fill:#e6ba43;}</style></defs><g id="Calque_7" data-name="Calque 7"><path class="cls-1" d="M18.56,296.1s-18.46-7-21.51-6.8-15.77,3.23-18.15,2.94-16.56-5.31-16.77-3.52-.15,8.73-.15,8.73l11.4,5.59,14.75.27L-30.13,317.1s-27.37,13.84-29.19,14.26,1.07,8.91,1.07,8.91l34.67-14.84L-55.9,350.81l6,7.66,34.31-27-29.6,32.94,8.82,4.38,27.25-28.4-14.59,26s8,4,9.11,2,17-23.59,17-23.59l27.79-22.91,1.41-9.18Z"/><polygon points="125.63 364.44 125.72 364.4 125.63 364.35 125.63 364.44"/><polygon points="125.72 364.4 125.83 364.44 125.83 364.35 125.72 364.4"/><polygon points="125.63 364.44 125.72 364.4 125.63 364.35 125.63 364.44"/><polygon points="125.72 364.4 125.83 364.44 125.83 364.35 125.72 364.4"/><path class="cls-1" d="M411.21,128.72c-.6,38.39-26.2,33.17-36.85,42.29-12.59,10.77-8.27,50-17.19,64-2.45,3.84-11.35,10.1-15.79,9.08-12.52-2.87-24-30.73-34.77-37.73-6.34-4.12-23.58-3.62-30.19,0-11.25,6.16-22.27,34.86-34.77,37.73-4.44,1-13.35-5.24-15.81-9.08-8.9-14-4.59-53.24-17.19-64-10.65-9.12-36.25-3.9-36.85-42.29-.42-26.59,35-37.34,35-37.34l40.16-19.91A31.33,31.33,0,0,0,254,66.65a27.49,27.49,0,0,0,2.29-2.29l.64-.71,0-.06a31.39,31.39,0,0,0,7.22-16.43,30.71,30.71,0,0,0,.25-4.19V40.13l0-4.51h53.63l.06,5,0,1.5,0,3.21c0,.33,0,.67,0,1v0c0,.65.09,1.3.15,2A28.64,28.64,0,0,0,334,70.44l40.52,20.1a28.32,28.32,0,0,0,3.17,1.33C384.36,94.25,411.59,105.38,411.21,128.72Z"/><path class="cls-1" d="M318.86,83.9l-27.5,32.5L276.55,98.71,264.17,83.9l.71-41.56,0-2.21.08-4.51h53v.23l.09,4.66v0l0,1.56.08,4.21v1.31l.12,6.79Z"/><path class="cls-2" d="M319.36,53.15l-1,1.25c-5.15,6.33-28.83,35-41.79,44.31-3.19,2.29-5.73,3.39-7.19,2.69-6.77-3.26-14.85-35.1-14.85-35.1a.19.19,0,0,0,.08-.07,19.51,19.51,0,0,0,1.73-1.87c.33-.38.68-.82,1.06-1.32l.06-.08a39.25,39.25,0,0,0,6.65-15.16c0-.21.1-.42.13-.64.26-1.37.49-3,.66-4.82.08-.71.13-1.45.19-2.21.12-1.42.2-2.94.29-4.51H318v.23l0,4.28,0,6.72.15.76.14.67.94,4.57Z"/><path class="cls-1" d="M353.35,135.44c11.9,25,40.93,38.77,40.93,38.77s53,32.77,70.43,44c8.23,5.28,25.22,16.58,39-3.6h0c11.33-16.64-2.81-30.36-10.19-36.18-15-11.83-47.9-32.64-60.5-46.74-9.38-10.49-19.75-30.33-43.13-36.2,0,0-18.61-6.9-31.75,8.26l-.52.6a28.67,28.67,0,0,0-4.22,31.13Z"/><path class="cls-1" d="M489.65,180.64c-18.55-7.17-32.67,11.81-37.38,19s-10.68,23.93-13.63,32.15c-7.56,21-17.53,57.33-25.2,77.8-5,13.46-8.09,20.41-.34,25.92,7,5,16.12-5.75,19.73-9.92,14.85-17.19,44.3-50.41,56.84-70.9,5.15-8.42,14-26.39,16.11-36C511.72,191.72,495.05,182.72,489.65,180.64Z"/><path class="cls-1" d="M175.66,236.66c-9.71-15-32.39-8.32-40.5-5.45S112,243.35,104.61,247.89C85.67,259.53,29.09,295.77,8.25,302c-14.58,4.35,7.52,25,7.52,25s15.52-9,25.68-12.62c21.37-7.59,52.09-11.54,87.87-22.82,9.4-3,27.21-12.25,34.87-18.27C185.6,256.4,178.48,241,175.66,236.66Z"/><path class="cls-1" d="M232.81,125.22c2.77,27.54-14.9,54.37-14.9,54.37s-28.31,55.47-37.45,74.1c-4.31,8.78-13,27.25-35.19,17.11h0c-18.31-8.36-13.32-27.42-10-36.22,6.7-17.9,24-52.75,27.51-71.33,2.59-13.83,1.17-36.17,18.13-53.31,0,0,12.34-15.55,31.43-9.4l.75.24a28.69,28.69,0,0,1,19.75,24.44Z"/><path class="cls-1" d="M416.27,331.87c2,3.19,3.07,9-3,14.84,0,0-17.64,20.22-25.41,24.34-3.47,1.84-12.78,6.26-15.37,3.3-7.33-8.38-12.07-28.61-9.72-41.73.7-3.93,9.41-8.05,13.33-8.81,4.31-.84,12.95,2.62,17.34,2.78a70.62,70.62,0,0,0,7.18-.4C406.55,325.65,413.5,327.51,416.27,331.87Z"/><polygon class="cls-1" points="406.51 319.44 402.37 326.13 405.74 338.63 409.71 350.7 415.3 344.68 425.45 337.65 406.51 319.44"/><polygon class="cls-3" points="403.8 323.77 413.12 308.02 433.59 329.93 422.35 342.66 403.8 323.77"/><polygon points="130.58 362.62 130.68 362.58 130.58 362.52 130.58 362.62"/><polygon points="130.68 362.58 130.78 362.62 130.78 362.52 130.68 362.58"/><polygon points="130.58 362.62 130.68 362.58 130.58 362.52 130.58 362.62"/><polygon points="130.68 362.58 130.78 362.62 130.78 362.52 130.68 362.58"/><polygon points="125.92 363.99 126.02 363.95 125.92 363.9 125.92 363.99"/><polygon points="126.02 363.95 126.12 363.99 126.12 363.9 126.02 363.95"/><polygon points="125.92 363.99 126.02 363.95 125.92 363.9 125.92 363.99"/><polygon points="126.02 363.95 126.12 363.99 126.12 363.9 126.02 363.95"/><polygon class="cls-4" points="212.41 335.74 213.91 313.24 368.91 313.24 370.91 332.74 212.41 335.74"/><path class="cls-5" d="M152.21,189.2l48.27,26.7,15.36-31.09L213.4,254l-2.68,49.64-3.17,35a11.68,11.68,0,0,0,11.11,12.72l135.22,6.23a16.2,16.2,0,0,0,16.94-16.51l-1-50.59-.32-42.13,4.7-74.89L420.64,191l31.45-49.37L403.45,96.31,347.13,74.37l-51.2,27.43L243.27,72.17,185.12,99.6,167.2,121.54Z"/></g></svg>