<svg id="Calque_1" data-name="Calque 1" xmlns="http://www.w3.org/2000/svg" viewBox="0 0 588 387.05"><defs><style>.cls-1{fill:#fa9980;}.cls-2{fill:#473415;}.cls-3{fill:#b5b900;}</style></defs><path class="cls-1" d="M402.81,122.37c-.6,38.38-13.2,39.17-23.86,48.29-12.58,10.77-8.27,50-17.18,64-2.45,3.84-11.36,10.11-15.8,9.09-12.51-2.87-24-30.73-34.77-37.73-6.33-4.11-23.57-3.63-30.19,0-11.25,6.16-22.27,34.86-34.77,37.73-4.44,1-13.35-5.25-15.8-9.09-8.91-14-4.6-53.23-17.19-64-10.65-9.12-20.25-6.91-20.86-45.29-.41-26.6,19-34.34,19-34.34l40.15-19.91a31.54,31.54,0,0,0,17.54-28.49l-.05-7h53.63l.08,6.08,0,3.25c0,.33,0,.68,0,1v0a28.51,28.51,0,0,0,15.79,24.1l40.53,20.09a25.81,25.81,0,0,0,3.16,1.34C389,93.89,403.18,99,402.81,122.37Z"/><path class="cls-1" d="M353.65,98.23C375.83,81.68,407.93,83,407.93,83s62.12-4.3,82.81-6c9.74-.83,30-2.91,32.78,21.35h0c2.26,20-16.65,25.54-25.89,27.25-18.79,3.47-57.6,6.54-75.31,13.14-13.19,4.91-31.61,17.63-55,11.91,0,0-19.68-2.57-24.24-22.1l-.18-.77a28.68,28.68,0,0,1,10.78-29.52Z"/><path class="cls-1" d="M486.3,121.26c-17.91-8.67-13.67-31.94-11.63-40.3s10.2-24.13,14.19-31.9c10.22-19.88,29.95-51.94,39.67-71.51,6.39-12.87,9.4-19.84,18.71-17.95,8.47,1.73,6.8,15.71,6.21,21.2-2.42,22.59-6.6,66.78-13,89.93-2.64,9.51-9.74,28.23-15.33,36.36C509.46,129.83,491.5,123.78,486.3,121.26Z"/><polygon class="cls-2" points="216.71 335.85 218.21 313.35 373.21 313.35 375.21 332.85 216.71 335.85"/><path class="cls-1" d="M236.88,100.5c-22.19-16.56-54.29-15.22-54.29-15.22s-62.12-4.29-82.8-6c-9.75-.83-30-2.9-32.78,21.36h0c-2.27,20,16.64,25.54,25.88,27.24,18.79,3.47,57.6,6.55,75.31,13.14,13.19,4.91,31.62,17.63,55,11.92,0,0,19.68-2.58,24.24-22.11l.18-.77a28.68,28.68,0,0,0-10.78-29.51Z"/><path class="cls-1" d="M104.22,123.53c17.91-8.67,13.67-31.94,11.63-40.3s-10.2-24.14-14.19-31.9C91.44,31.45,71.72-.62,62-20.19,55.6-33.06,52.59-40,43.28-38.13c-8.47,1.72-6.8,15.7-6.21,21.19,2.42,22.59,6.6,66.79,13,89.94,2.64,9.5,9.75,28.23,15.34,36.35C81.06,132.09,99,126,104.22,123.53Z"/><path class="cls-3" d="M163.76,81.64l28,88.25s12.74,51.32,14.7,69.85c2.19,20.77,6.84,86.56,6.84,86.56l-1.35,27,170.26,4.39s-3.82-65.38-.53-107.54c1.48-19,14.92-75.64,14.92-75.64l29.06-93.28-68.45-2.92-59.12,32.43L238.94,75.64Z"/></svg>