<svg id="Calque_1" data-name="Calque 1" xmlns="http://www.w3.org/2000/svg" viewBox="0 0 588 387.05"><defs><style>.cls-1{fill:#fa9980;}.cls-2{fill:#aa5b49;}.cls-3{fill:#a37636;}.cls-4{fill:#129e8e;}</style></defs><polygon points="127.96 367.46 128.06 367.42 127.96 367.37 127.96 367.46"/><polygon points="128.06 367.42 128.16 367.46 128.16 367.37 128.06 367.42"/><polygon points="127.96 367.46 128.06 367.42 127.96 367.37 127.96 367.46"/><polygon points="128.06 367.42 128.16 367.46 128.16 367.37 128.06 367.42"/><path class="cls-1" d="M413.55,131.74c-.4,25.7-12,31.86-22.84,35.86h0c-5.34,2-10.48,3.42-14,6.43a16.25,16.25,0,0,0-3.47,4.33c-8.34,14.5-5.75,47.18-13.71,59.67-2.45,3.84-11.36,10.11-15.8,9.09-12.51-2.88-24-30.73-34.77-37.73-6.33-4.12-23.57-3.63-30.19,0-11.25,6.16-22.27,34.85-34.77,37.73-4.44,1-13.35-5.25-15.8-9.09-5.93-9.29-6-29.78-9.1-45.63a65.93,65.93,0,0,0-2.16-8.43c-1.42-4.23-3.31-7.7-5.93-9.94-10.65-9.12-36.25-3.91-36.86-42.3-.27-17.5,15-28.13,25.42-33.35a0,0,0,0,1,0,0l.65-.32a67.22,67.22,0,0,1,8.91-3.65L229.5,84.3h0l19.75-9.8a31.57,31.57,0,0,0,17.29-24.3,30.71,30.71,0,0,0,.25-4.19l-.05-7-.06-8.73.78.06.46,0,25.38,2,26.89-2h.07l.07,5.24,0,3.48.08,6.09,0,3.25c0,.33,0,.67,0,1v0c0,.65.09,1.29.16,1.93a29.27,29.27,0,0,0,.93,4.58,28.49,28.49,0,0,0,14.7,17.58l40.53,20.1A29.35,29.35,0,0,0,380,94.9a74.15,74.15,0,0,1,11.86,5.49C401.87,106.12,413.8,116.24,413.55,131.74Z"/><path class="cls-1" d="M321.19,86.92l-9.68,11.44-17.82,21.06-15-18L266.5,86.92v-.48l.71-41.07.11-6.38.15-8.67,0-1.4.46-.07c0,.5,0,1,0,1.51l25.38,2,26.89-2,.15,8.59V39l.11,6.09.07,4.25v0l0,1.26.13,7.5Z"/><path class="cls-2" d="M321.69,56.17s-.34.72-1,2c-4.3,8.13-22.38,38.53-48.7,32.38-1.84-.43-3.71-2-5.48-4.07-5.27-6.21-9.66-17.12-9.66-17.12a18.69,18.69,0,0,0,1.81-1.94,38.43,38.43,0,0,0,7.77-16.55c0-.21.09-.42.13-.64.26-1.37.48-3,.66-4.82s.34-4.09.45-6.38c.14-2.73.22-5.66.27-8.63l25.38,2,26.89-2h.07l.07,5.24V39l.05,10.88.15.76.14.67.93,4.58Z"/><path class="cls-1" d="M354.6,115.43c21.78-17.08,53.9-16.51,53.9-16.51s62-5.79,82.64-8c9.72-1.06,30-3.62,33.28,20.57h0c2.74,19.94-16,25.93-25.22,27.86-18.71,3.92-57.43,7.92-75,14.94-13.07,5.22-31.18,18.38-54.73,13.23,0,0-19.74-2.11-24.76-21.52l-.2-.77a28.66,28.66,0,0,1,10.07-29.76Z"/><path class="cls-1" d="M502.06,135.56c-19.72,2.6-29-19.18-31.86-27.28s-4.74-25.77-5.67-34.45C462.14,51.61,461,14,458.37-7.72,456.64-22,455.32-29.46,464.14-33c8-3.22,14.32,9.38,16.84,14.29,10.39,20.2,31.19,59.43,38.54,82.3,3,9.39,7.37,28.94,7.17,38.8C526.12,130,507.8,134.8,502.06,135.56Z"/><path class="cls-1" d="M235.17,121c5.32,27.16-9.77,55.52-9.77,55.52s-23,57.86-30.38,77.27c-3.47,9.14-10.37,28.33-33.43,20.31h0c-19-6.61-15.83-26-13.37-35.12,5-18.45,19-54.76,20.74-73.58,1.28-14-2.21-36.13,13.07-54.78,0,0,10.84-16.63,30.42-12.29l.77.18A28.68,28.68,0,0,1,235.17,121Z"/><polygon class="cls-3" points="214.44 339.22 215.94 316.72 365.47 308.17 364.49 336.04 214.44 339.22"/><path class="cls-4" d="M199.81,97.59S220,120,220.94,138.75s-4.51,48-4.51,48-2.71,115.81-.91,120.44-5.81,19-2.43,32,70.06,7.68,87.68,2.71,60.47,2.74,69.28-6c12.29-12.22-13.26-83.88-8.12-94.93s11.59-65,11.59-65c1.82-1.9,13.11-69-4.69-85.68l-32.5-16.79h0A30.86,30.86,0,0,1,308.11,98.8c-17.71,1.24-36.27,3.37-46.74,4.66a21.45,21.45,0,0,1-21.75-11.18,18.14,18.14,0,0,1-2-11.62Z"/><path class="cls-1" d="M145.62,268.24c-8.79-17.85,8.87-33.59,15.63-38.92s22.89-12.75,30.81-16.42c20.28-9.38,55.56-22.52,75.27-32,13-6.21,19.62-9.86,25.79-2.63,5.62,6.57-4.3,16.56-8.14,20.53-15.81,16.31-46.3,48.59-65.6,62.88-7.93,5.87-25,16.26-34.46,19.23C158.6,289.24,148.17,273.43,145.62,268.24Z"/><path class="cls-1" d="M286.55,199l16.55-12.33,17.31-22.54s-5-2.68-6.68-2.3c-5.42,1.17-11.56,7.51-15.65,11.25-.54.49-3.85,1.15-4.48.78-2.61-1.54-.79-7.67-.79-7.67l-11.68,17Z"/><path class="cls-1" d="M288.08,192.52l-19.32-8.86,15.42-42.73,31.52-36.38s4.05,5.35,4.07,7.48c.11,11.08-15.78,29.23-20.45,39.27C294.27,162.13,288.08,192.52,288.08,192.52Z"/><ellipse class="cls-1" cx="279.41" cy="189.16" rx="12.1" ry="12.15" transform="translate(-53.57 243.72) rotate(-43.4)"/></svg>