<svg xmlns="http://www.w3.org/2000/svg" viewBox="0 0 588 387.05"><defs><style>.cls-1{fill:#fa9980;}.cls-2{fill:#aa5b49;}.cls-3{fill:none;stroke:#000;stroke-miterlimit:10;stroke-width:3px;}.cls-4{fill:#36344d;}.cls-5{fill:#473415;}.cls-6{fill:#472e1d;}.cls-7{fill:#b6717e;}</style></defs><g id="Calque_7" data-name="Calque 7"><path class="cls-1" d="M107.73,79.22c-.62-2.43-17.46-48.59-17.46-48.59s20.79-9.78,20.18-12.21-5.26-36.16-5.26-36.16L114.3-20l7.1,40.86,4.93-31.62,9.28,3.47-2.48,38.76,7.94,13.51-12.39,29Z"/><polygon points="129.87 358.41 129.97 358.37 129.87 358.32 129.87 358.41"/><polygon points="129.97 358.37 130.07 358.41 130.07 358.32 129.97 358.37"/><polygon points="129.87 358.41 129.97 358.37 129.87 358.32 129.87 358.41"/><polygon points="129.97 358.37 130.07 358.41 130.07 358.32 129.97 358.37"/><path class="cls-1" d="M415.46,122.69c-.6,38.39-26.2,33.17-36.86,42.29-12.58,10.77-8.27,50-17.18,64-2.45,3.84-11.36,10.1-15.8,9.08-12.51-2.87-24-30.73-34.77-37.73-6.33-4.12-23.57-3.62-30.19,0-11.25,6.16-22.27,34.86-34.77,37.73-4.44,1-13.35-5.24-15.8-9.08-8.91-14-4.6-53.24-17.19-64-10.65-9.12-36.25-3.9-36.86-42.29-.41-26.59,35-37.34,35-37.34l40.15-19.91a31.4,31.4,0,0,0,7.1-4.82,29.11,29.11,0,0,0,2.29-2.29l.63-.71.05-.06a31.55,31.55,0,0,0,7.22-16.43,30.71,30.71,0,0,0,.25-4.19l0-2.84,0-4.51H322.3l.06,5,0,1.5,0,3.21c0,.33,0,.67,0,1v0c0,.65.09,1.3.16,2a29.38,29.38,0,0,0,.93,4.57,28.5,28.5,0,0,0,14.7,17.59l40.53,20.1a27.41,27.41,0,0,0,3.16,1.33C388.6,88.22,415.83,99.35,415.46,122.69Z"/><path class="cls-1" d="M323.1,77.87l-27.5,32.5L280.8,92.68,268.41,77.87l.72-41.56,0-2.21.08-4.51h53v.23l.08,4.66v0l0,1.56.07,4.21v0l0,1.28.12,6.79Z"/><path class="cls-2" d="M323.6,47.12l-1,1.25c-5.16,6.33-28.83,35-41.79,44.31-3.2,2.29-5.74,3.39-7.2,2.69-6.76-3.26-14.84-35.1-14.84-35.1l.08-.07a21,21,0,0,0,1.73-1.87q.48-.57,1.05-1.32l.06-.08a39.39,39.39,0,0,0,6.66-15.16c0-.21.09-.42.13-.64.26-1.37.48-3,.66-4.82.07-.71.13-1.45.19-2.21.11-1.42.2-2.94.28-4.51h52.67v.23l0,4.28,0,6.72.15.76.14.67.93,4.57Z"/><path class="cls-3" d="M357.59,129.42c11.91,25,40.93,38.77,40.93,38.77s53,32.76,70.43,44c8.24,5.27,25.22,16.57,39-3.61h0c11.33-16.64-2.81-30.36-10.19-36.17-15-11.84-47.91-32.65-60.5-46.74-9.38-10.5-19.75-30.34-43.13-36.2,0,0-18.61-6.9-31.75,8.25l-.52.6a28.69,28.69,0,0,0-4.23,31.14Z"/><path class="cls-1" d="M493.9,174.61c-18.56-7.17-32.67,11.81-37.39,19s-10.68,23.93-13.63,32.14c-7.55,21-17.53,57.34-25.2,77.8-5,13.46-8.08,20.41-.34,25.92,7.05,5,16.12-5.74,19.73-9.92,14.85-17.19,44.31-50.41,56.84-70.9,5.15-8.41,14-26.39,16.11-36C516,185.69,499.29,176.7,493.9,174.61Z"/><path class="cls-1" d="M117.72,239.37c17.73-2.26,21.52-25.6,22.44-34.15s-.93-26.13-1.82-34.77c-2.29-22.11-10.49-88.79-7.08-110.27,2.39-15-25.76-4-25.76-4s1.41,17.89.26,28.61c-2.4,22.55-12.13,52-17.44,89.09-1.4,9.77-.74,29.83,1.38,39.34C95.63,239.8,112.57,240,117.72,239.37Z"/><path class="cls-3" d="M235,129.7c-8.55,26.33-35.52,43.78-35.52,43.78s-48.23,39.39-64.1,52.77c-7.48,6.31-22.84,19.73-39.09,1.51h0c-13.4-15-1.17-30.47,5.38-37.2C115,176.88,144.91,152,155.56,136.34c7.93-11.64,15.62-32.66,38-41.52,0,0,17.55-9.27,32.56,4l.59.52A28.7,28.7,0,0,1,235,129.7Z"/><path class="cls-1" d="M420.52,325.85c2,3.19,3.06,9-3,14.84,0,0-17.63,20.21-25.4,24.33-3.48,1.85-12.79,6.26-15.38,3.3-7.33-8.38-12.07-28.61-9.72-41.72.7-3.93,9.41-8.06,13.33-8.82,4.31-.84,12.95,2.62,17.34,2.78a67.49,67.49,0,0,0,7.19-.39C410.8,319.62,417.74,321.48,420.52,325.85Z"/><polygon class="cls-1" points="410.75 313.42 406.62 320.11 409.99 332.6 413.95 344.68 419.54 338.66 429.69 331.62 410.75 313.42"/><polygon class="cls-4" points="408.04 317.75 417.37 302 437.83 323.91 426.59 336.64 408.04 317.75"/><polygon points="130.58 362.62 130.68 362.58 130.58 362.52 130.58 362.62"/><polygon points="130.68 362.58 130.78 362.62 130.78 362.52 130.68 362.58"/><polygon points="130.58 362.62 130.68 362.58 130.58 362.52 130.58 362.62"/><polygon points="130.68 362.58 130.78 362.62 130.78 362.52 130.68 362.58"/><polygon class="cls-5" points="217.06 334.37 218.56 311.87 373.56 311.87 375.56 331.37 217.06 334.37"/><circle class="cls-6" cx="364.28" cy="305.18" r="4.68"/><polygon class="cls-7" points="133.21 116.78 93.54 130.6 80.01 220.52 110.48 247.47 216.84 179.39 219.4 249.6 211.72 298.24 212.45 335.39 382.17 332.97 370.81 285.08 363.49 245.95 375.19 168.05 446.64 206.6 421.42 285.59 458.09 302.23 506.42 236.77 520.46 186.23 412.64 87.86 348.13 68.94 296.93 96.37 244.27 66.75 185.12 94.18 164.2 116.12 139.52 147.36 133.21 116.78"/></g></svg>