<?xml version="1.0" encoding="utf-8"?>
<!-- Generator: Adobe Illustrator 26.0.1, SVG Export Plug-In . SVG Version: 6.00 Build 0)  -->
<svg version="1.1" id="Calque_1" xmlns="http://www.w3.org/2000/svg" xmlns:xlink="http://www.w3.org/1999/xlink" x="0px" y="0px"
	 viewBox="0 0 788 1005" style="enable-background:new 0 0 788 1005;" xml:space="preserve">
<style type="text/css">
	.st0{fill:#FA9980;}
	.st1{fill:#A05344;}
	.st2{fill:none;stroke:#000000;stroke-width:3;stroke-miterlimit:10;}
	.st3{fill:#D79072;}
	.st4{fill:#574D3E;}
	.st5{fill:#473415;}
</style>
<polygon points="230.2,479.5 230.3,479.5 230.2,479.5 "/>
<polygon points="230.3,479.5 230.4,479.5 230.4,479.5 "/>
<polygon points="230.2,479.5 230.3,479.5 230.2,479.5 "/>
<polygon points="230.3,479.5 230.4,479.5 230.4,479.5 "/>
<path class="st0" d="M515.8,243.8c-0.6,38.4-26.2,33.2-36.9,42.3c-12.6,10.8-8.3,50-17.2,64c-2.5,3.8-11.4,10.1-15.8,9.1
	c-12.5-2.9-24-30.7-34.8-37.7c-6.3-4.1-23.6-3.6-30.2,0c-11.2,6.2-22.3,34.9-34.8,37.7c-4.4,1-13.4-5.2-15.8-9.1
	c-8.9-14-4.6-53.2-17.2-64c-10.6-9.1-36.2-3.9-36.9-42.3c-0.4-26.6,35-37.3,35-37.3l40.1-19.9c9.5-4.7,16-13.8,17.3-24.3
	c0.2-1.4,0.3-2.8,0.2-4.2l0-7h53.6v-3.5v3.5l0.1,6.1v3.2c0,0.3,0,0.7,0,1l0,0c0,0.6,0.1,1.3,0.2,1.9c0.2,1.5,0.5,3.1,0.9,4.6
	c2.2,7.7,7.6,14,14.7,17.6l40.5,20.1c1,0.5,2.1,1,3.2,1.3C489,209.4,516.2,220.5,515.8,243.8z"/>
<polygon class="st0" points="423.5,199 396,231.5 381.1,213.8 368.8,199 369.5,157.4 369.6,151.1 422.6,151.1 422.7,157.2 
	422.8,161.4 422.8,161.4 422.8,162.7 422.9,169.5 "/>
<path class="st1" d="M424,168.2l-1,1.2c-5.1,6.3-28.8,35.1-41.8,44.3c-3.2,2.3-5.7,3.4-7.2,2.7c-6.8-3.3-14.8-35.1-14.8-35.1
	c0.6-0.6,1.3-1.3,1.8-1.9c3.9-4.8,6.5-10.5,7.8-16.6c0-0.2,0.1-0.4,0.1-0.6c0.3-1.4,0.5-3,0.7-4.8s0.3-4.1,0.5-6.4h52.7l0,10.9
	l0.1,0.8l0.1,0.7l0.9,4.6L424,168.2z"/>
<path class="st2" d="M458,250.6c11.9,25,40.9,38.8,40.9,38.8s53,32.8,70.4,44c8.2,5.3,25.2,16.6,39-3.6l0,0
	c11.3-16.6-2.8-30.4-10.2-36.2c-15-11.8-47.9-32.6-60.5-46.7c-9.4-10.5-19.8-30.3-43.1-36.2c0,0-18.6-6.9-31.8,8.2l-0.5,0.6
	C454.8,228,453.1,240.3,458,250.6z"/>
<path class="st3" d="M594.2,295.7c-18.5-7.2-32.7,11.8-37.4,19s-10.7,23.9-13.6,32.1c-7.5,21-17.5,57.3-25.2,77.8
	c-5,13.5-8.1,20.4-0.3,25.9c7,5,16.1-5.8,19.7-9.9c14.8-17.2,44.3-50.4,56.8-70.9c5.1-8.4,14-26.4,16.1-36
	C616.3,306.8,599.7,297.8,594.2,295.7z"/>
<path class="st3" d="M197.4,299.7c18.6-7.2,32.7,11.8,37.4,19s10.7,23.9,13.6,32.1c7.6,21,17.5,57.3,25.2,77.8
	c5,13.5,8.1,20.4,0.3,25.9c-7,5-16.1-5.8-19.7-9.9c-14.9-17.2-44.3-50.4-56.8-70.9c-5.1-8.4-14-26.4-16.1-36
	C175.3,310.8,192,301.8,197.4,299.7z"/>
<path class="st2" d="M333.7,254.6c-11.9,25-40.9,38.8-40.9,38.8s-52.9,32.8-70.4,44c-8.2,5.3-25.2,16.6-38.9-3.6l0,0
	c-11.3-16.6,2.8-30.4,10.2-36.2c15-11.8,47.9-32.6,60.5-46.7c9.4-10.5,19.8-30.3,43.1-36.2c0,0,18.6-6.9,31.8,8.2l0.5,0.6
	C337,232.1,338.6,244.3,333.7,254.6L333.7,254.6z"/>
<path class="st4" d="M404.5,215.2l28.4-34.7c0,0,53.8,19,70.1,28.7c28.6,17,108.4,90.1,108.4,90.1s4.9,17.7,4.5,23.7
	c-0.8,11.1-10.2,30.6-15.7,41.8c-10.7,21.6-53.6,80.4-53.6,80.4l-8.2,1L514,426l-1.9-8.1l31.5-96.8L485,284.2l-10.3,65l5,67.2
	l-7.7,11.8L318.7,429l-8.3-11.9l0.6-64.8l-8.9-60l-60.7,36l41.8,101L257,456.6c0,0-14.3-9.7-13.7-9.9c4-1.5-61.6-78.9-70.4-110.6
	c-2-7.4,1.1-30.8,1.1-30.8l67.6-59.4l52.3-42.7l63.7-22.6l24.9,34.2c2.6,3.5,6.6,5.6,11,5.7l0,0
	C397.7,220.4,401.8,218.5,404.5,215.2z"/>
<path class="st5" d="M316.9,448.2l1.5-21.8l154.5-1.3l2.1,20.2c0.1,1.4-1,2.7-2.4,2.7l-153.2,2.9
	C317.9,450.8,316.8,449.6,316.9,448.2z"/>
<path class="st0" d="M521.4,448.8c2.5,2.9,4.3,8.5-0.8,15.1c0,0-14.5,22.6-21.6,27.8c-3.2,2.3-11.7,8-14.7,5.5
	c-8.5-7.2-16.1-26.6-15.6-39.9c0.1-4,8.1-9.3,11.9-10.6c4.1-1.5,13.2,0.7,17.6,0.2c2.4-0.3,4.7-0.8,7.1-1.4
	C510.9,444,518,444.9,521.4,448.8z"/>
<polygon class="st1" points="509.9,437.9 506.8,445.1 511.9,457 517.6,468.4 522.2,461.6 531.3,453.2 "/>
<polygon class="st4" points="508.9,438.8 515.6,426 542.3,443.7 526.2,458.3 "/>
<path class="st0" d="M270.3,452.8c-2.5,2.9-4.3,8.5,0.8,15.1c0,0,14.5,22.6,21.6,27.8c3.2,2.3,11.7,8,14.7,5.5
	c8.5-7.2,16.1-26.6,15.6-39.9c-0.1-4-8.1-9.3-11.9-10.6c-4.1-1.5-13.2,0.7-17.5,0.2c-2.4-0.3-4.7-0.8-7.1-1.4
	C280.8,448,273.7,448.9,270.3,452.8z"/>
<polygon class="st1" points="281.8,441.9 284.9,449.1 279.7,461 274.1,472.4 269.4,465.6 260.4,457.2 "/>
<polygon class="st4" points="282.8,442.8 276,430 252.5,450.5 265.5,462.3 "/>
<polygon class="st0" points="422.6,151.1 422.6,150.9 422.6,147.6 422.6,151.1 "/>
</svg>
