<svg id="Calque_1" data-name="Calque 1" xmlns="http://www.w3.org/2000/svg" viewBox="0 0 788 1005"><defs><style>.cls-1{fill:#fa9980;}.cls-2{fill:#a05344;}.cls-3{fill:#a37636;}.cls-4{fill:#129e8e;}</style></defs><polygon points="227.96 482.92 228.06 482.88 227.96 482.82 227.96 482.92"/><polygon points="228.06 482.88 228.16 482.92 228.16 482.82 228.06 482.88"/><polygon points="227.96 482.92 228.06 482.88 227.96 482.82 227.96 482.92"/><polygon points="228.06 482.88 228.16 482.92 228.16 482.82 228.06 482.88"/><path class="cls-1" d="M513.55,247.19c-.4,25.7-12,31.86-22.84,35.86h0c-5.34,2-10.48,3.42-14,6.43a16.25,16.25,0,0,0-3.47,4.33c-8.34,14.5-5.75,47.18-13.71,59.67-2.45,3.84-11.36,10.11-15.8,9.09-12.51-2.88-24-30.73-34.77-37.73-6.33-4.12-23.57-3.63-30.19,0C367.5,331,356.48,359.7,344,362.58c-4.44,1-13.35-5.25-15.8-9.09-5.93-9.29-6-29.78-9.1-45.63a65.93,65.93,0,0,0-2.16-8.43c-1.42-4.23-3.31-7.7-5.93-9.94-10.65-9.12-36.25-3.91-36.86-42.3-.27-17.5,15-28.13,25.42-33.35h0l.65-.32a67.22,67.22,0,0,1,8.91-3.65l20.38-10.11h0l19.75-9.8a31.57,31.57,0,0,0,17.29-24.3,30.71,30.71,0,0,0,.25-4.19l-.05-7-.06-8.73.78.06.46,0,25.38,2,26.89-2.05h.07l.07,5.24,0,3.48.08,6.09,0,3.25c0,.33,0,.67,0,1v0c0,.65.09,1.29.16,1.93a29.27,29.27,0,0,0,.93,4.58,28.49,28.49,0,0,0,14.7,17.58L476.86,209a29.35,29.35,0,0,0,3.16,1.34,74.15,74.15,0,0,1,11.86,5.49C501.87,221.57,513.8,231.69,513.55,247.19Z"/><path class="cls-1" d="M421.19,202.37l-9.68,11.44-17.82,21.06-15-18L366.5,202.37v-.48l.71-41.07.11-6.38.15-8.67,0-1.4.46-.07c0,.5,0,1,0,1.51l25.38,2,26.89-2.05.15,8.59v.12l.11,6.09.07,4.25v0l0,1.26.13,7.5Z"/><path class="cls-2" d="M421.69,171.62s-.34.72-1,2c-4.3,8.13-22.38,38.53-48.7,32.38-1.84-.43-3.71-2-5.48-4.07-5.27-6.21-9.66-17.12-9.66-17.12a18.69,18.69,0,0,0,1.81-1.94,38.43,38.43,0,0,0,7.77-16.55c0-.21.09-.42.13-.64.26-1.37.48-3,.66-4.82s.34-4.09.45-6.38c.14-2.73.22-5.66.27-8.63l25.38,2,26.89-2.05h.07l.07,5.24v3.48l.05,10.88.15.76.14.67.93,4.58Z"/><path class="cls-1" d="M454.6,230.88c21.78-17.08,53.9-16.51,53.9-16.51s62-5.78,82.64-8c9.72-1.06,30-3.63,33.28,20.56h0c2.74,19.94-16,25.94-25.22,27.86-18.71,3.92-57.43,7.92-75,14.94-13.07,5.23-31.18,18.38-54.73,13.23,0,0-19.74-2.1-24.76-21.52l-.2-.76a28.68,28.68,0,0,1,10.07-29.77Z"/><path class="cls-1" d="M602.06,251c-19.72,2.6-29-19.17-31.86-27.28s-4.74-25.77-5.67-34.45c-2.39-22.22-3.53-59.85-6.16-81.54-1.73-14.27-3-21.75,5.77-25.28,8-3.21,14.32,9.38,16.84,14.29,10.39,20.21,31.19,59.43,38.54,82.3,3,9.39,7.37,28.94,7.17,38.8C626.12,245.44,607.8,250.26,602.06,251Z"/><path class="cls-1" d="M335.17,236.43c5.32,27.16-9.77,55.52-9.77,55.52s-23,57.87-30.38,77.27c-3.47,9.15-10.37,28.34-33.43,20.32h0c-19-6.62-15.83-26.06-13.37-35.13,5-18.44,19-54.76,20.74-73.58,1.28-14-2.21-36.13,13.07-54.77,0,0,10.84-16.63,30.42-12.29l.77.17a28.7,28.7,0,0,1,21.95,22.49Z"/><polygon class="cls-3" points="314.44 454.67 315.94 432.17 465.47 423.62 464.49 451.49 314.44 454.67"/><path class="cls-1" d="M558.09,84.21l6.55-19.57,16-23.48s4.09,3.87,4.27,5.63c.57,5.51-3.53,13.33-5.8,18.37-.31.67.1,4,.65,4.51,2.28,2,7.53-1.65,7.53-1.65L574.84,84.41Z"/><path class="cls-1" d="M563.76,80.74,578.2,96.33l35.79-28L638.72,27s-6.35-2.17-8.38-1.53c-10.57,3.36-22.85,24.12-30.92,31.69C590.7,65.37,563.76,80.74,563.76,80.74Z"/><ellipse class="cls-1" cx="569.66" cy="87.93" rx="12.1" ry="12.15" transform="translate(247.38 565.82) rotate(-64.78)"/><path class="cls-4" d="M299.81,213.05S320,235.42,320.94,254.2s-4.51,48.05-4.51,48.05-2.71,115.8-.91,120.43-5.81,19-2.43,32,70.06,7.68,87.68,2.71,60.47,2.74,69.28-6c12.29-12.21-13.26-83.87-8.12-94.93s11.59-65.05,11.59-65.05c1.82-1.89,13.11-69-4.69-85.68l-32.5-16.79h0a30.85,30.85,0,0,1-28.22,25.34c-17.71,1.24-36.27,3.37-46.74,4.66a21.44,21.44,0,0,1-21.75-11.17,18.14,18.14,0,0,1-2-11.62Z"/><path class="cls-1" d="M245.62,383.7c-8.79-17.85,8.87-33.59,15.63-38.93s22.89-12.75,30.81-16.41c20.28-9.39,55.56-22.53,75.27-32,13-6.22,19.62-9.86,25.79-2.64,5.62,6.58-4.3,16.57-8.14,20.53-15.81,16.32-46.3,48.59-65.6,62.89-7.93,5.87-25.05,16.26-34.46,19.22C258.6,404.7,248.17,388.88,245.62,383.7Z"/><path class="cls-1" d="M386.55,314.44l16.55-12.32,17.31-22.54s-5-2.69-6.68-2.31c-5.42,1.18-11.56,7.52-15.65,11.25-.54.5-3.85,1.16-4.48.78-2.61-1.54-.79-7.66-.79-7.66l-11.68,16.95Z"/><path class="cls-1" d="M388.08,308l-19.32-8.86,15.42-42.74L415.7,220s4.05,5.35,4.07,7.48c.11,11.09-15.78,29.23-20.45,39.27C394.27,277.58,388.08,308,388.08,308Z"/><ellipse class="cls-1" cx="379.41" cy="304.61" rx="12.1" ry="12.15" transform="translate(-105.55 344.01) rotate(-43.4)"/></svg>