<svg xmlns="http://www.w3.org/2000/svg" viewBox="0 0 200 200"><defs><style>.cls-1{fill:#d48f72;}.cls-2{fill:#a85d3d;}.cls-3{fill:#d79072;}.cls-4{fill:#66463a;}.cls-5{fill:none;stroke:#ba7158;stroke-miterlimit:10;}</style></defs><g id="Calque_5" data-name="Calque 5"><path class="cls-1" d="M97.39,61.07l0,2.84v1.41c0,.15,0,.3,0,.44v0c0,.28,0,.57.07.85a12.14,12.14,0,0,0,.41,2,12.51,12.51,0,0,0,6.46,7.74s18.74,9.26,19.21,9.42c2.94,1,15.94,6,14.75,16.21-1.51,13-19.8,11.61-24.49,15.62-5.53,4.74,4.64,25,.72,31.13-1.07,1.68-5,4.44-6.94,4-5.51-1.26-10.57-13.51-15.3-16.59-2.78-1.82-10.36-1.6-13.27,0-5,2.71-9.8,15.33-15.29,16.59-2,.45-5.87-2.31-6.95-4-3.92-6.15-2-23.42-7.56-28.15-4.68-4-15.94-1.72-16.21-18.6-.18-11.69,15.39-16.42,15.39-16.42l17.65-8.76a11.39,11.39,0,0,0,4.13-3.12,14.55,14.55,0,0,0,3.48-7.57,14.09,14.09,0,0,0,.11-1.84l0-3.23H97.38"/><polygon class="cls-1" points="97.74 82.3 85.65 96.59 73.69 82.3 73.69 82.08 74.01 64.02 74.06 61.07 97.38 61.07 97.38 61.17 97.42 63.91 97.46 65.76 97.46 65.78 97.47 66.34 97.52 69.64 97.74 82.3"/><path class="cls-2" d="M98,68.78s-.15.31-.44.86c-1.89,3.57-9.84,16.94-21.41,14.23a5,5,0,0,1-2.41-1.79,33.26,33.26,0,0,1-4.25-7.52,7.94,7.94,0,0,0,.79-.85,16.92,16.92,0,0,0,3.42-7.29l.06-.28c.11-.6.21-1.32.29-2.12s.15-1.89.2-2.95H97.38v.1s0,3.44.15,5.46a16.06,16.06,0,0,0,.41,2Z"/><path class="cls-1" d="M104.34,89.35a18.49,18.49,0,0,1,19.27-3.55s21.71-7,41.27-5.5c4.29.32,13-2.51,15.24,8h0c1.81,8.67-6.24,11.87-10.21,13-8.09,2.3-35.94,8.54-43.43,12.16-5.57,2.69-2.12,5.72-12.61,4.18,0,0-8.72-.31-11.53-8.68l-.11-.33a12.62,12.62,0,0,1,3.51-13.36Z"/><path class="cls-3" d="M171.12,100c-8.68,1.15-12.74-8.43-14-12S155,76.62,154.61,72.81C153.56,63,153.06,46.49,151.9,37c-.76-6.28-1.34-9.56,2.54-11.12,3.53-1.41,6.29,4.13,7.4,6.29,4.57,8.88,13.72,26.13,16.95,36.19,1.33,4.13,3.24,12.72,3.15,17.06C181.69,97.51,173.64,99.62,171.12,100Z"/><path class="cls-1" d="M59.91,97.27c2.34,12-4.3,24.42-4.3,24.42s-10.11,25.45-13.35,34c-1.53,4-4.57,12.46-14.71,8.94h0c-8.36-2.91-7-11.46-5.88-15.45,2.2-8.11,8.37-24.08,9.13-32.36.56-6.17-1-15.89,5.74-24.09,0,0,4.77-7.31,13.38-5.4l.34.07a12.61,12.61,0,0,1,9.65,9.89Z"/><path class="cls-1" d="M151.78,26.6l2.88-8.6,7-10.33s1.8,1.7,1.88,2.47c.25,2.43-1.56,5.86-2.56,8.08a3.64,3.64,0,0,0,.29,2c1,.87,3.31-.73,3.31-.73l-5.48,7.21Z"/><path class="cls-1" d="M154.27,25.07l6.35,6.86,15.74-12.31L187.23,1.46s-2.79-1-3.68-.67C178.9,2.26,173.5,11.39,170,14.72,166.12,18.31,154.27,25.07,154.27,25.07Z"/><ellipse class="cls-1" cx="156.86" cy="28.24" rx="5.32" ry="5.35" transform="translate(64.48 158.12) rotate(-64.78)"/><path class="cls-4" d="M44.23,87.23s9,9.6,9.42,17.86-2,21.13-2,21.13,1.14,47.38-.4,53c-.91,3.3-2.55,8.37-1.07,14.07s57,4.36,64.75,2.17S118.7,177,118.7,177s-4.54-21.2-3-26.93c1.35-5.19,7.66-33.85,7.66-33.85.8-.83,3.17-25.7-4.66-33L104.4,76.38h0A13.56,13.56,0,0,1,92,87.52c-7.79.55-15.95,1.48-20.56,2a9.44,9.44,0,0,1-9.56-4.91,16.42,16.42,0,0,1-1.71-5Z"/><path class="cls-3" d="M22,159.28c-3.87-7.84,3.89-14.76,6.85-17.1s10.06-5.6,13.54-7.21c8.91-4.12,24.17-9.2,32.82-13.34,5.7-2.73,8.86-5,11.57-1.84,2.47,2.89-1.88,7.28-3.57,9-6.94,7.17-20.33,21.35-28.8,27.63-3.49,2.57-11,7.13-15.14,8.44C27.7,168.52,23.11,161.56,22,159.28Z"/><path class="cls-3" d="M82.51,129.81l7.27-5.42,7.62-9.91s-2.18-1.18-2.94-1c-2.38.52-5.08,3.31-6.88,5a3.51,3.51,0,0,1-2,.34c-1.14-.67-.34-3.37-.34-3.37l-5.14,7.46Z"/><path class="cls-3" d="M83.18,127l-8.5-3.9,6.78-18.79,13.87-16s1.77,2.35,1.78,3.29c0,4.87-6.93,12.85-9,17.27C85.9,113.6,83.18,127,83.18,127Z"/><ellipse class="cls-3" cx="79.37" cy="125.49" rx="5.32" ry="5.35" transform="translate(-64.52 88.85) rotate(-43.4)"/><path class="cls-5" d="M28.84,142.18c9.25-6.68,23-11.4,23-11.4"/></g></svg>