<?xml version="1.0" encoding="utf-8"?>
<!-- Generator: Adobe Illustrator 26.0.1, SVG Export Plug-In . SVG Version: 6.00 Build 0)  -->
<svg version="1.1" id="Calque_1" xmlns="http://www.w3.org/2000/svg" xmlns:xlink="http://www.w3.org/1999/xlink" x="0px" y="0px"
	 viewBox="0 0 788 1005" style="enable-background:new 0 0 788 1005;" xml:space="preserve">
<style type="text/css">
	.st0{fill:#D68F72;}
	.st1{fill:#83B5C6;}
	.st2{fill:#6999AA;}
	.st3{fill:none;stroke:#6699AA;stroke-width:2;stroke-linecap:round;stroke-miterlimit:10;}
	.st4{fill:#87B6C7;}
	.st5{fill:#9B6C3D;}
</style>
<g id="Calque_9">
	<path class="st0" d="M338.5,779.8c1,2.8,3.3,29.1,3.3,29.1c0.7,2.6,5.3,4.4,10.6,4.3l0,0c5.2-0.1,9.3-2.1,9.6-4.6
		c0,0,0.9-9.9,1.6-13.2c2.6-11.9,11.1-35.7,11.7-47.7c0.4-7.2-2.7-29.3-2.7-29.3c-1.2-7.3-11.8-8.7-21-8.8l0,0
		c-10.8,0.1-17.1,2.8-18.7,7.2"/>
	<path class="st0" d="M425.8,705c-0.6-7.8,9.2-7.6,18-6.2l0,0c10.3,1.9,17,6,19.6,11.1c0,0,7.4,21,9.6,30.1
		c3.5,14.6-0.2,67.8-0.2,67.8c-0.1,2.7-0.1,6.3-5.2,5.3l0,0c-5-1-11-3.7-11.9-6.5"/>
	<path class="st1" d="M352.1,804.3L352.1,804.3c-4.9,0-9.2,1.4-11.3,3.5l0,0c-4.7,4.8-24.4,11.2-24.4,11.2c-3.5,1.3-5.2,3.5-4.4,5.7
		l0,0l48.2-0.1l2.7-0.4c3.1-0.5,5.1-1.9,4.8-3.5l-2.8-11.6C363.5,806.3,358.1,804.3,352.1,804.3z"/>
	<path class="st2" d="M313.3,824.7L313.3,824.7c-0.7-1.9,2-3.7,6-4l28.7-2.1c3.7-0.3,7.2,0.9,8,2.6l1.6,3.3L313.3,824.7z"/>
	<path class="st3" d="M341.9,809c2.3-0.8,4.6-1.3,7-1.4c2.7,0,5.4,0.4,8,1.1"/>
	<path class="st3" d="M338.5,811.6c2.3-0.8,4.7-1.2,7.1-1.3c2.7,0,5.4,0.5,8,1.2"/>
	<path class="st4" d="M465,807.6c3.3-1.1,2.8-3.5,4-4.7c0.7-0.8,4-1.7,4.6-0.7c7,11.3,34.7,17.3,34.7,17.3c2.6,1.4,4.1,4.3,3.8,7.3
		l0,0c0,0-23.2,5.7-36.2-0.7c-2.6-1.3-9-1.9-9-1.9s-11.5,0-11.2-3.4l0.2-15.4C456.5,801.7,459.4,809.5,465,807.6z"/>
	<path class="st5" d="M364.5,797.5c-0.6-2.3,40.1-155.7,40.1-155.7l0,0c0,0-7.5,0.6-3.7,5.2s24.9,58,24.9,58s22.7,87.7,24.3,89.7
		s24.4-2.2,24.4-2.2l9-75l-2.2-17.3l-21.8-93l0,0c1.2-9.3-5.4-17.9-14.7-19.1c-0.5-0.1-1-0.1-1.5-0.1c-33-1.3-104.8-3.1-107.8,5
		c-7.2,18.9-6.9,80.2-6.9,80.2l6.9,122.8L364.5,797.5"/>
</g>
</svg>
