<svg xmlns="http://www.w3.org/2000/svg" viewBox="0 0 788 268.7"><defs><style>.cls-1{fill:#90573a;}.cls-2{fill:#583134;}.cls-3{fill:#d68f72;}.cls-4{fill:#4e6566;}</style></defs><g id="Calque_9" data-name="Calque 9"><path class="cls-1" d="M393,155.85c-5.48-3.58-8-.63-13.73,2.51-9.75,5.35-15.83,23.72-26.67,26.22-3.85.88-12.68-15.07-13.71-21.32-1.53-9.33,2.52-27.52-8.39-36.86-9.24-7.9-21.45-3.68-25.46-16.29-7-22,13.45-38.49,23.4-42.35,15.17-5.88,37.14-5.09,43.52-14.23l.94-27.7.69-20.18,18.32-.81h2.18l18.32.81.69,20.18.94,27.7c6.38,9.14,28.35,8.35,43.52,14.23,9.95,3.86,30.39,20.37,23.4,42.35-4,12.61-16.22,8.39-25.46,16.29-10.91,9.34-6.86,27.53-8.39,36.86-1,6.25-9.86,22.2-13.71,21.32-10.84-2.5-16.92-20.87-26.67-26.22-5.74-3.14-8.25-6.09-13.73-2.51"/><path class="cls-2" d="M372.51,53.85S404.28,65.25,413.68,43L412.41,5.65H373.59Z"/><path class="cls-3" d="M354.82,90.71c-17.5,22.72-64.1,60.86-76.1,71.35-5.66,4.94-20.62,14.3-28.08,5.42h0c-9.1-11.91.35-24,5.35-29.33,10.18-10.75,32.79-30.29,41.1-42.57,6.19-9.14,10.4-19.44,27-26.34,0,0,16.55-8,26.43.62,6.34,5.51,7.31,12.3,4.34,20.85Z"/><path class="cls-1" d="M259.44,163.47c14.87,2.34,17-9.08,18.73-15.12,1.9-6.52,6-72.65,7.5-90.56.87-10.13,1.6-15.49-4.35-16.57-5.41-1-9.74,8.54-10.93,12.46-11.43,37.66-14.42,46.38-22.91,92C244,164.35,255.63,162.87,259.44,163.47Z"/><path class="cls-4" d="M436.69,86.48c1.65,19.75,14.8,24.07,21.92,30.5,11.29,10.19,24.34,37.37,33.24,49.29,4.19,5.62,16.22,17.24,25.68,11.23h0c11.83-8.28,3.61-23.71.13-29.47-7.08-11.72-31.61-63.28-45.82-73.12,0,0-13.92-10.77-25.64-5.58-7.53,3.33-10.19,9-9.51,17.15Z"/><path class="cls-1" d="M517.43,154.45c-9.66-5.69-16.72,2.7-21.81,10.75-3.62,5.74-33.09,65-41.32,80.94-4.64,9-7.35,13.72-2.26,17,4.63,3,13.8-5,16.36-8.2,26.94-33.7,45-48.33,54.61-75.6C529.35,161.42,520.75,156.4,517.43,154.45Z"/><path class="cls-4" d="M284.42,74.28s-19-4.37-21,2.37c-1.58,5.41-14.39,58.23-19.39,78.9a15.13,15.13,0,0,0,4.38,14.63c5.07,4.76,11.8,10.22,14.81,9,5.16-2.1,58.89-54.9,62.43-52.48s14,58.11,14.29,61.52,2.59,34.1,2.59,34.1h99.69s.67-37.41.84-40.23,15.68-62.36,18.72-58.54,30.78,47.2,30.78,47.2L461,229.54l19.17,14.1,42.13-49.25,7.6-26.25L475,72.89,450.3,63.48,414,53.53s-13.31,17.36-42.08,0h0L317.28,67.91l-35.37,41.37,2.51-35"/></g><g id="Calque_10" data-name="Calque 10"><path class="cls-4" d="M334,259.29h0c0-6.47,5.43-71.73,4.57-83.26H440.28c-.22,11.53,9,76.79,9,83.26h0a11.7,11.7,0,0,1-11.7,11.7H345.68A11.7,11.7,0,0,1,334,259.29Z"/><path class="cls-1" d="M400.39,240.35l14.18-6.74,24.69-2.6,15.9,16.14,8.34-3S468.24,254.93,466,257c-3.5,3.14-7.8,6.91-11.05,6.82-5.24-.15-18.29-10.24-18.29-10.24l-11,3.52s-8.27,5.55-8.75,5.74c-4.21,1.69-15.13-7.74-15.13-7.74l10.86-10.57,10-5.87-7,1.09s-7.63,3.89-8.36,3.85C405.68,243.49,400.39,240.35,400.39,240.35Z"/></g></svg>