<svg id="Calque_9" data-name="Calque 9" xmlns="http://www.w3.org/2000/svg" viewBox="0 0 788 268.7"><defs><style>.cls-1{fill:#90573a;}.cls-2{fill:#583134;}.cls-3{fill:#72615b;}</style></defs><path class="cls-1" d="M353.38,88.9c-4.3,21.54-18,24.69-25.91,30.89-12.61,9.84-29.26,38.16-39.71,50.2-4.93,5.67-18.47,17-27.07,9.21h0c-10.65-10.56-2.95-23.87,1.29-29.79,8.61-12,28.33-34.49,34.89-47.79,4.88-9.9,7.64-20.68,23.1-29.77,0,0,15.3-10.16,26.26-3,7,4.6,8.93,11.19,7.15,20.06Z"/><path class="cls-1" d="M430.79,88.9c4.3,21.54,18,24.69,25.91,30.89C469.32,129.63,486,158,496.41,170c4.93,5.67,18.47,17,27.07,9.21h0c10.66-10.56,2.95-23.87-1.28-29.79-8.62-12-28.34-34.49-34.89-47.79-4.88-9.9-7.65-20.68-23.11-29.77,0,0-15.3-10.16-26.26-3-7,4.6-8.93,11.19-7.15,20.06Z"/><path class="cls-1" d="M506.21,165c3.39-14.67,14.77-12.35,21-11.72,6.75.67,69.61,21.62,86.8,26.9,9.71,3,15,4.31,13.74,10.23-1.11,5.38-11.57,6-15.65,5.47-44.11-5.12-54.62-6.69-93.89-13.14C499.5,179.64,505.34,168.72,506.21,165Z"/><path class="cls-1" d="M615.75,180.58s9-8.35,11.13-9.08,12.55-4.08,14-5,9.44-8.32,10.09-7.2c.27.45.74,1.45,1.21,2.49a5.63,5.63,0,0,1-.84,5.93l-1.73,2a13.47,13.47,0,0,1-4.68,3.55l-7,3.2,16.1,3.86,20.87.88a3.18,3.18,0,0,1,3,2.7h0a3.17,3.17,0,0,1-3.12,3.66l-22.69.17,25.36,6.58a3.53,3.53,0,0,1,2.53,4.3h0a3.52,3.52,0,0,1-4.3,2.52l-27.14-7,24.42,11.11a3.47,3.47,0,0,1,1.64,4.78h0a3.48,3.48,0,0,1-4.43,1.61L646.93,202l13.18,10a3.4,3.4,0,0,1,.42,5h0a3.4,3.4,0,0,1-4.19.59l-15.79-9.34L617,200.52l-5.13-5.11Z"/><path class="cls-1" d="M279.82,164.88c-3.39-14.67-14.76-12.35-21-11.72-6.76.67-69.61,21.62-86.81,26.9-9.71,3-15,4.3-13.74,10.22,1.12,5.39,11.58,5.95,15.65,5.48,44.12-5.12,54.62-6.69,93.9-13.14C286.54,179.54,280.69,168.63,279.82,164.88Z"/><path class="cls-1" d="M169.44,180.58s-9-8.35-11.13-9.08-12.55-4.08-14-5-9.44-8.32-10.1-7.2c-.26.45-.73,1.45-1.2,2.49a5.62,5.62,0,0,0,.83,5.93l1.73,2a13.42,13.42,0,0,0,4.69,3.55l7,3.2-16.09,3.86-20.88.88a3.18,3.18,0,0,0-3,2.7h0a3.18,3.18,0,0,0,3.12,3.66l22.69.17-25.36,6.58a3.54,3.54,0,0,0-2.53,4.3h0a3.53,3.53,0,0,0,4.3,2.52l27.14-7-24.41,11.11a3.48,3.48,0,0,0-1.65,4.78h0a3.49,3.49,0,0,0,4.43,1.61L138.27,202l-13.19,10a3.4,3.4,0,0,0-.42,5h0a3.41,3.41,0,0,0,4.2.59l15.78-9.34,23.52-7.71,5.13-5.11Z"/><path class="cls-1" d="M394,155.42c-5.48-3.58-8-.63-13.73,2.51-9.75,5.35-15.83,23.72-26.67,26.22-3.85.88-12.68-15.07-13.71-21.32-1.53-9.33,2.52-27.52-8.39-36.86-9.24-7.9-21.45-3.68-25.46-16.29-7-22,13.45-38.49,23.4-42.34,15.17-5.88,37.14-5.1,43.52-14.24l.94-27.7.69-20.18,18.32-.81h2.18l18.32.81.69,20.18L415,53.1c6.38,9.14,28.35,8.36,43.52,14.24C468.51,71.19,489,87.7,482,109.68c-4,12.61-16.22,8.39-25.46,16.29-10.91,9.34-6.86,27.53-8.39,36.86-1,6.25-9.86,22.2-13.71,21.32-10.84-2.5-16.92-20.87-26.67-26.22-5.74-3.14-8.25-6.09-13.73-2.51"/><path class="cls-2" d="M373.51,53.42s31.77,11.4,41.17-10.81L413.41,5.22H374.59Z"/><path class="cls-2" d="M401,0s-4.69,3.69-7.42,3.69c-2.58,0-7-3.6-7-3.6s5.4.73,7.21.72S401,0,401,0Z"/><path class="cls-3" d="M606,168.26s-3.4,47-4,49.78-93.81-29.4-93.81-29.4L462.56,125.3l7,136.51a20.92,20.92,0,0,1-20,27l-107.84-.06a24.44,24.44,0,0,1-23.91-29.56l4.88-128.72s-37.12,52-41.3,52.62-90.24,29.41-90.24,29.41l-7.05-12.65-2.45-29.92,77.17-16.75s50.53-85,52.51-82.7,34.25-10,34.25-10h1.58s9.47,5.8,19.92,12c7.56,4.47,15.64,9.11,21,11.86L430.16,57.5l21.34,6.44,27.14,6.52,50.23,74Z"/><path class="cls-3" d="M367.05,72.38c-10.45-6.16-19.92-12-19.92-12C350.8,60.42,359.18,66.22,367.05,72.38Z"/></svg>