<?xml version="1.0" encoding="utf-8"?>
<!-- Generator: Adobe Illustrator 26.0.1, SVG Export Plug-In . SVG Version: 6.00 Build 0)  -->
<svg version="1.1" id="Calque_9" xmlns="http://www.w3.org/2000/svg" xmlns:xlink="http://www.w3.org/1999/xlink" x="0px" y="0px"
	 viewBox="0 0 388 268.7" style="enable-background:new 0 0 388 268.7;" xml:space="preserve">
<style type="text/css">
	.st0{fill:#89777A;}
	.st1{fill:#90573A;}
	.st2{fill:#583134;}
	.st3{fill:#8E7052;}
	.st4{fill:#C69C6D;}
	.st5{fill:#F2D5BD;}
</style>
<path class="st0" d="M168.3,60.3l-1.8-19.4h56.9c0,0,4,14.6,3.8,14.3s-28,10.3-28.8,10S170.3,62.6,168.3,60.3z"/>
<path class="st1" d="M155,85.8c-4.3,21.5-18,24.7-25.9,30.9c-12.6,9.8-29.3,38.2-39.7,50.2c-4.9,5.7-18.5,17-27.1,9.2l0,0
	c-10.6-10.6-3-23.9,1.3-29.8c8.6-12,28.3-34.5,34.9-47.8c4.9-9.9,7.6-20.7,23.1-29.8c0,0,15.3-10.2,26.3-3
	C154.8,70.3,156.8,76.9,155,85.8L155,85.8z"/>
<path class="st1" d="M85.2,160.9c-3.9-14.5-15.2-11.8-21.4-11C57.1,150.8-5,174-22,179.8c-9.6,3.3-14.8,4.8-13.4,10.7
	c1.3,5.3,11.7,5,15.8,4.9C19,194.6,48,192.1,73.8,179C90.8,170.5,86.2,164.6,85.2,160.9z"/>
<path class="st1" d="M-61.9,180.1c-7.6,4.1-19.1,9.3-19.1,9.3s5.8,4.6,8.3,4.9c2,0.2,10.5-4,10.5-4l8.1,2.6c-3.2,4.5-3.8,6.8-8,11.9
	c-3.2,3.9-13.3,10-18.1,12c-2.6,1.1-9,0.9-11.2,2.6c-1.6,1.2-2.9,7.1-2.9,7.1l15.1-0.9c0,0,20.6-7.3,27.2-10.3
	c7-3.2,20.4-11.3,25.8-16.6c1.7-1.7,5-5.1,3.9-10.1c-1-4.3-5.4-5.8-8.3-6.7C-35.2,180.6-61.5,179.9-61.9,180.1z"/>
<path class="st1" d="M233,90.8c4.3,21.5,18,24.7,25.9,30.9c12.6,9.8,29.3,38.2,39.7,50.2c4.9,5.7,18.5,17,27.1,9.2l0,0
	c10.7-10.6,3-23.9-1.3-29.8c-8.6-12-28.3-34.5-34.9-47.8c-4.9-9.9-7.6-20.7-23.1-29.8c0,0-15.3-10.2-26.3-3
	C233.2,75.3,231.3,81.9,233,90.8L233,90.8z"/>
<path class="st1" d="M302.8,165.9c3.9-14.5,15.2-11.8,21.4-11c6.7,0.9,68.8,24.1,85.8,29.9c9.6,3.3,14.8,4.8,13.4,10.7
	c-1.3,5.3-11.7,5-15.8,4.9c-38.5-0.8-67.5-3.4-93.4-16.4C297.2,175.5,301.8,169.6,302.8,165.9z"/>
<path class="st1" d="M449.8,185.1c7.6,4.1,19.1,9.3,19.1,9.3s-5.8,4.6-8.3,4.9c-2,0.2-10.5-4-10.5-4l-8.1,2.6
	c3.2,4.5,3.8,6.8,8,11.9c3.2,3.9,13.3,10,18.1,12c2.6,1.1,9,0.9,11.2,2.6c1.6,1.2,2.9,7.1,2.9,7.1l-15.1-0.9c0,0-20.6-7.3-27.2-10.3
	c-7-3.2-20.4-11.3-25.8-16.6c-1.7-1.7-5-5.1-3.9-10.1c1-4.3,5.4-5.8,8.3-6.7C423.2,185.6,449.5,184.9,449.8,185.1z"/>
<path class="st1" d="M194,155.7c-5.5-3.6-8-0.6-13.7,2.5c-9.8,5.3-15.8,23.7-26.7,26.2c-3.9,0.9-12.7-15.1-13.7-21.3
	c-1.5-9.3,2.5-27.5-8.4-36.8c-9.2-7.9-21.5-3.7-25.5-16.3c-7-22,13.5-38.5,23.4-42.3c15.2-5.9,37.1-5.1,43.5-14.2l0.9-27.7l0.7-20.2
	l18.3-0.8h2.2l18.3,0.8l0.7,20.2l0.9,27.7c6.4,9.1,28.4,8.3,43.5,14.2C268.5,71.5,289,88,282,110c-4,12.6-16.2,8.4-25.5,16.3
	c-10.9,9.3-6.9,27.5-8.4,36.8c-1,6.2-9.9,22.2-13.7,21.3c-10.8-2.5-16.9-20.9-26.7-26.2C202,155.1,199.5,152.2,194,155.7"/>
<path class="st2" d="M173.5,53.7c0,0,31.8,11.4,41.2-10.8l-1.3-37.4h-38.8L173.5,53.7z"/>
<path class="st3" d="M108.9,157.6c-1.8-1.8-36.1-37.9-32.6-40.5s38.1-48.7,38.1-48.7l46.4-11.8l28.7,48.1L108.9,157.6z"/>
<path class="st3" d="M159.8,63.7c-0.3-0.4,3.3-4.6,3.4-5S186.5,72,187,72.6s7.1,5.6,7.1,5.6s18.5-12.9,19.1-12.9s10.8,1.6,9.4,2.1
	s-14,209.6-14,209.6s-50.5-3.5-50.7-3.1C142.2,309.5,159.8,63.7,159.8,63.7z"/>
<path class="st3" d="M270,154.2c1.8-1.8,36.1-37.9,32.6-40.5S264.5,65,264.5,65l-46.4-11.8l-28.7,51.5L270,154.2z"/>
<path class="st4" d="M152.2,57.7l36.1,50.9l-11.3,15.1c0,0-2.1,28.8-3,53.7c-0.2,4.8-3.2,73.4-1.6,77.3
	c4.6,11.1,13.9,20.7,13.9,20.7c-1.3,4.3-2.6,7.3-16,20.7c-6.4,6.4-13.5,11.8-22.1,9.3l-30-8.6c4.7-143.8,4.7-143.3,4.7-148.1
	c0-4.4,7.3-85.4,7.3-85.4L152.2,57.7z"/>
<path class="st4" d="M230.6,56.6l-49,69.1c0,0-6.5,124-4.3,131.2c1.6,5.1,22.4,29,34.3,42.4c5,5.7,12.9,7.9,20.2,5.8l32.9-9.5
	c0,0-4.7-143.7-4.7-148.1s-7.3-85.4-7.3-85.4L230.6,56.6z"/>
<rect x="134" y="231.4" class="st3" width="35.7" height="9.8"/>
<rect x="210.6" y="229.5" class="st3" width="41.8" height="11.7"/>
<path class="st0" d="M186.2,77.9c0.3,0,8.1,5.8,8.1,5.8l8.9-7.2l-3.3-13.1l-5,1.1c0,0-6-2.2-6.8-1.1S186.2,77.9,186.2,77.9z"/>
<polygon class="st5" points="159.8,58.8 166.5,40.9 194.9,64.5 184.9,87.3 "/>
<polygon class="st5" points="230.1,58.8 223.4,40.9 194.9,64.5 205,87.3 "/>
<rect x="82" y="106.5" transform="matrix(0.742 -0.6704 0.6704 0.742 -68.7973 96.3088)" class="st3" width="17.5" height="62.1"/>
<rect x="256.1" y="125.4" transform="matrix(0.6704 -0.742 0.742 0.6704 -5.0621 256.9382)" class="st3" width="61.1" height="17.5"/>
<circle class="st3" cx="189.5" cy="140.9" r="3.4"/>
<circle class="st3" cx="188.2" cy="176.5" r="3.4"/>
<circle class="st3" cx="186.9" cy="211" r="3.4"/>
</svg>
