<svg id="Calque_9" data-name="Calque 9" xmlns="http://www.w3.org/2000/svg" viewBox="0 0 788 1005"><defs><style>.cls-1{fill:#9e6754;}.cls-2{fill:#8c5c4b;}.cls-3{fill:#4e6566;}.cls-4{fill:#55427c;}</style></defs><path class="cls-1" d="M394,418.38c-5.48-3.57-8-.63-13.73,2.52-9.75,5.34-15.83,23.72-26.67,26.21-3.85.89-12.68-15.07-13.71-21.32-1.53-9.32,2.52-27.51-8.39-36.85-9.24-7.91-21.45-3.68-25.46-16.3-7-22,13.45-38.48,23.4-42.34,15.17-5.88,37.14-5.1,43.52-14.23l.94-27.7.69-20.19,18.32-.81h2.18l18.32.81.69,20.19.94,27.7c6.38,9.13,28.35,8.35,43.52,14.23,9.95,3.86,30.39,20.37,23.4,42.34-4,12.62-16.22,8.39-25.46,16.3-10.91,9.34-6.86,27.53-8.39,36.85-1,6.25-9.86,22.21-13.71,21.32-10.84-2.49-16.92-20.87-26.67-26.21-5.74-3.15-8.25-6.09-13.73-2.52"/><path class="cls-2" d="M373.51,316.38s31.77,11.4,41.17-10.8l-1.27-37.4H374.59Z"/><path class="cls-1" d="M582.21,374.51c.26-2.54,8.11-17.2,9-19.16s19-12.51,19.73-11.58-1,6.18-1,6.18L604,354.53l18.18-5s23.15-8.72,22.84-7.38a61.77,61.77,0,0,0-.33,6.64l-19.37,9.54L619,374.16s-22.94,10-26.12,9.64c-.94-.12-5.28,1.72-6.67-1.31C585.27,380.56,582.21,374.51,582.21,374.51Z"/><path class="cls-1" d="M342.27,345.1c3.23,19.55-8.45,27-13.78,34.93C320,392.69,314,422.23,308.33,436c-2.69,6.48-11.52,20.69-22.16,17.18-13.49-5.13-9.3-22.11-7.34-28.54,4-13.1,21.89-67.56,34.59-79.29,6.45-6,12.06-17.75,24.69-15.58,8.12,1.39,2.83,7.32,4.16,15.37Z"/><path class="cls-1" d="M433.73,349.14c2.66,19.64,16,23.28,23.45,29.33C469,388.08,483.41,414.55,492.9,426c4.48,5.4,17.09,16.38,26.23,9.9h0c11.39-8.87,2.38-23.86-1.38-29.44-7.67-11.34-38.86-55.39-53.55-64.49,0,0-10.42-16.22-21.86-10.44-7.34,3.72-9.71,9.53-8.61,17.62Z"/><path class="cls-1" d="M505.14,431.59c5.9,9.54,16.06,5.41,24.31.66,5.88-3.38,56.07-43.57,70.8-53.88,8.33-5.82,6.38-7.77,3.4-13-2.72-4.79-18.55,5.16-22.17,7.09C544.6,392.13,536.55,390,511.82,407,496.16,417.73,503.12,428.32,505.14,431.59Z"/><rect class="cls-3" x="335.04" y="478.74" width="115.32" height="23.41"/><path class="cls-4" d="M335,328.48c-.33,5.78,0,64.53,0,64.53v70.07l2.31,27.37H445l5.34-26.91,3.25-79.3V328.66l-36.72-10.83s-19.67,14.89-22,14.89-21.37-16.34-21.37-16.34Z"/><path class="cls-1" d="M276.2,440.92c-2.29-11,7.92-15,17.18-17.21,6.59-1.6,72.12-10.57,89.9-13.24,10.05-1.5,15.35-2.57,16.81,3.29,1.32,5.34-19.3,10.76-23.11,12.28-35.36,14.12-50.17,19.53-79,28.13C279.79,459.6,277,444.69,276.2,440.92Z"/><path class="cls-1" d="M370.42,413.64c4.77-2.51,13.86-12.64,15.1-14.27s16.91-9.72,17.47-8.78.75,4.45.75,4.45l-8.84,7.4L417,398.39s13.95-2.89,18.49-2.22c1.27.18-.86,4.54-.86,4.54l-20.77,8-6.37,13.25a12.33,12.33,0,0,1-10.8,7c-5.16.13-11.34.18-13-.26-.9-.23-7.39-1.55-8.16-4.44C375,422.36,370.42,413.64,370.42,413.64Z"/><path class="cls-4" d="M282,400.71l39.5,8.58L335,393,349.46,324l-39.72,9.76C305.36,342.49,282,400.71,282,400.71Z"/><polygon class="cls-4" points="441 409.29 456.66 394.85 484.21 413.94 507.49 389.64 470.61 333.53 447.29 326.8 433.73 349.14 441 409.29"/><path class="cls-4" d="M335.35,455.77l-13.83,77.67,142.68,3.25s-5-55.3-4.26-73.15-3.28-16.39-3.28-68.69c0-11-22.93,59.45-30.81,64.73S335.35,455.77,335.35,455.77Z"/></svg>