<svg xmlns="http://www.w3.org/2000/svg" viewBox="0 0 689.29 658.13"><defs><style>.cls-1,.cls-35,.cls-42,.cls-5{fill:none;}.cls-1,.cls-33{stroke:#000;stroke-width:3px;}.cls-1,.cls-33,.cls-35,.cls-42{stroke-miterlimit:10;}.cls-2{fill:#d48f72;}.cls-3{fill:#a85d3d;}.cls-33,.cls-4{fill:#d79072;}.cls-6{fill:#46455b;}.cls-7{fill:#aa5b3f;}.cls-8{fill:#6d323a;}.cls-9{fill:#37344d;}.cls-10{fill:#87442d;}.cls-11{fill:#c1272d;}.cls-12{fill:#823f1d;}.cls-13{fill:#ff931e;}.cls-14{fill:#473415;}.cls-15{fill:#ddd;}.cls-16{fill:#9b1717;}.cls-17{fill:#5b3c25;}.cls-18{fill:#472e1d;}.cls-19{fill:#b81717;}.cls-20{fill:#fff;}.cls-21{fill:#898c68;}.cls-22{fill:#dbb642;}.cls-23{fill:#7a919e;}.cls-24{fill:#36344d;}.cls-25{fill:#c6c5ba;}.cls-26{fill:#9599ba;}.cls-27{fill:#adcbde;}.cls-28{fill:#a38a6d;}.cls-29{fill:#4a330f;}.cls-30{fill:#3e322e;}.cls-31{fill:#574640;}.cls-32{fill:#95acba;}.cls-34{fill:#605b5b;}.cls-35{stroke:#839ba5;}.cls-36{fill:#3157a3;}.cls-37{fill:#d1924e;}.cls-38{fill:#db493e;}.cls-39{fill:#efc081;}.cls-40{fill:#85331e;}.cls-41{fill:#35344d;}.cls-42{stroke:#4f3742;}.cls-43{fill:#72271f;}.cls-44{fill:#3f302b;}.cls-45{fill:#d08d72;}.cls-46{fill:#281e1c;}</style></defs><g id="Calque_1" data-name="Calque 1"><path class="cls-1" d="M7180.49,3445.65"/></g><g id="Calque_5" data-name="Calque 5"><path class="cls-2" d="M333.57,253.82c3.33,2.17,6.9,10.81,10.77,11.7,1.38.32,4.14-1.63,4.9-2.82,2.76-4.33,1.43-16.5,5.33-19.84,3.3-2.82,11.24-1.21,11.42-13.11.12-7.23-8.32-10.68-10.39-11.42a9.24,9.24,0,0,1-1-.41l-12.56-6.23a8.84,8.84,0,0,1-4.91-7.79l-.07-5.6-8.35.64-8.26-.64,0,4.87a9.76,9.76,0,0,1-5.44,8.84l-12.44,6.17s-11,3.33-10.85,11.57c.19,11.9,8.12,10.29,11.43,13.11,3.9,3.34,2.56,15.51,5.32,19.84.76,1.19,3.53,3.14,4.9,2.82,3.88-.89,7.29-9.79,10.78-11.7C326.26,252.7,331.61,252.55,333.57,253.82Z"/><polygon class="cls-2" points="329.3 196.64 337.05 197.88 337.36 215.86 328.84 225.94 320.41 215.86 320.72 197.88 329.3 196.64"/><path class="cls-3" d="M337.52,206.33s-13,16.17-15.5,15c-2.09-1-4.6-10.88-4.6-10.88a11,11,0,0,0,3-5.74c.48-2.23.52-7.08.47-10.82h16.22l0,10.53Z"/><path class="cls-1" d="M348.06,231.84c3.69,7.74,12.68,12,12.68,12s16.42,10.15,21.83,13.62c2.56,1.64,7.82,5.14,12.08-1.12h0c3.51-5.15-.87-9.41-3.16-11.21-4.65-3.67-14.85-10.12-18.75-14.49-2.91-3.25-6.12-9.4-13.37-11.22,0,0-5.77-2.13-9.84,2.56l-.16.19a8.88,8.88,0,0,0-1.31,9.65Z"/><path class="cls-4" d="M390.31,245.85c-5.75-2.23-10.13,3.66-11.59,5.89s-3.31,7.42-4.23,10c-2.34,6.52-5.43,17.78-7.81,24.12-1.56,4.17-2.5,6.32-.1,8,2.18,1.56,5-1.78,6.11-3.07,4.61-5.33,13.74-15.63,17.62-22,1.6-2.61,4.34-8.18,5-11.17C397.15,249.28,392,246.49,390.31,245.85Z"/><path class="cls-1" d="M350.47,280.13c-.27-1.25-1.76-7.84-1.74-10.49,0-2.84,1.25-8.59.56-11.36-3-12.27-38.29-12.29-41.33,0-.68,2.77.55,8.52.56,11.36,0,2.65-1.46,9.24-1.74,10.49-3.42,15.6,21.81,22.74,21.81,22.74S353.89,295.73,350.47,280.13Z"/><path class="cls-5" d="M340.73,275.52c5,1.62,7.19,3,8.39,5.14a23,23,0,0,1,1.94,7.71c.17,4.67-2.41,16.41-6.8,20.33s-26.28,4-30.75,0-7-15.66-6.79-20.33a23,23,0,0,1,1.94-7.71c1.19-2.15,3.38-3.52,8.38-5.14A36.6,36.6,0,0,1,328.6,274,39.48,39.48,0,0,1,340.73,275.52Z"/><path class="cls-4" d="M273.1,265.45c6.16-.05,8.07-7.13,8.61-9.74s.36-8.11.27-10.82c-.21-6.92-1.47-18.52-1.59-25.3-.08-4.45,0-6.8-2.85-7.51-2.6-.64-4,3.49-4.56,5.11-2.33,6.64-7,19.57-8.32,26.91-.52,3-1,9.2-.54,12.22C265.47,264.76,271.3,265.46,273.1,265.45Z"/><path class="cls-1" d="M310.06,231.93c-2.65,8.16-11,13.57-11,13.57s-14.95,12.21-19.87,16.35c-2.32,2-7.08,6.12-12.12.47h0c-4.15-4.65-.36-9.44,1.67-11.53,4.13-4.24,13.4-12,16.7-16.81,2.46-3.6,4.85-10.12,11.79-12.87,0,0,5.44-2.87,10.1,1.26l.18.16a8.91,8.91,0,0,1,2.56,9.4Z"/><path class="cls-6" d="M337.11,202.29s.95,6.67,3.6,8.3c2.17,1.33,12.14,6.49,19,8.29,10.82,2.85,21.95,19.77,34.05,27.14,2.26,1.38,2.76,6.41,2.63,8.27-.23,3.45-3.16,9.48-4.88,13-3.32,6.71-15.84,22.9-15.84,22.9l-.78,1.22a2.49,2.49,0,0,1-3.79.48L366.92,288a3.48,3.48,0,0,1-.71-4.16l2.36-4.51,8.23-24.72-21-12.35-3.18,20.61,5.49,36.47L354,305.89l-52.31.12-2.08-4.5L304.22,262l-2.13-17.52S286,257.88,281,262c-2.06,1.67-8,5-10.6,4.5s-5.88-4.5-6.59-6.75c-1.07-3.39-.87-10.73-.22-14.24,1-5.61,5.21-19.93,6.71-25a2.12,2.12,0,0,1,2.41-1.49l8.07,1.46c.68.12,2.37.21,2.37.89l-1.18,16.16s7.71-13.09,11.88-15.42c9.77-5.45,21.93-10.33,23.62-11.68,2.32-1.85,3.08-8.12,3.08-8.12"/><path class="cls-7" d="M368.08,292.72c.63,1,.95,2.81-.93,4.6,0,0-5.46,6.27-7.87,7.55-1.08.57-4,1.94-4.77,1-2.27-2.6-3.74-8.87-3-12.93.22-1.22,2.91-2.5,4.13-2.74s4,.82,5.37.87a21.06,21.06,0,0,0,2.23-.13C365.07,290.8,367.22,291.37,368.08,292.72Z"/><polygon class="cls-8" points="364.54 288.87 363.25 290.95 364.3 294.82 365.53 298.56 367.26 296.7 370.4 294.51 364.54 288.87"/><polygon class="cls-9" points="363.69 290.21 366.58 285.33 372.93 292.12 369.44 296.07 363.69 290.21"/><path class="cls-7" d="M277.49,214.92c-.93-.56-2-2-1.37-4.5,0,0,1.38-8.22,2.66-10.53.58-1,2.19-3.67,3.22-3.26,2.94,1.16,6.92,6,8.2,9.88.39,1.18-1.12,3.64-1.95,4.45s-3.47,1.27-4.55,1.9c-.38.23-1,.71-1.66,1.21C280.7,215.13,278.77,215.68,277.49,214.92Z"/><polygon class="cls-7" points="281.58 216.81 281.63 214.35 279.06 211.47 276.42 208.78 275.92 211.28 274.48 214.75 281.58 216.81"/><polygon class="cls-9" points="281.79 215.66 281.89 220.75 272.33 219.19 274.47 213.74 281.79 215.66"/><path class="cls-10" d="M59.55,409.44l0,3.92a7.86,7.86,0,0,1-4.37,7.1l-10,5s-4.83,1.92-4.73,8.55c.15,9.57,2.54,9,5.2,11.29,3.14,2.69,2.06,12.47,4.28,16,.61.95,2.83,2.52,3.94,2.26,3.12-.72,5.86-7.87,8.67-9.4,1.65-.91,5.94-1,7.52,0,2.68,1.74,5.55,8.68,8.67,9.4,1.1.26,3.33-1.31,3.94-2.26,2.22-3.49,1.14-13.27,4.28-16,2.66-2.27,5.8-2.47,6-12,.09-5.82-3.46-7.1-5.12-7.69a7.83,7.83,0,0,1-.79-.34l-10.1-5A7.07,7.07,0,0,1,73,413.94l-.06-4.5"/><path class="cls-7" d="M80.66,427.22c5.53-4.13,13.53-3.79,13.53-3.79s15.48-1.07,20.64-1.51c2.43-.21,7.49-.72,8.17,5.32h0c.56,5-4.15,6.37-6.45,6.79-4.69.87-14.36,1.63-18.77,3.28-3.29,1.22-7.88,4.39-13.72,3a7.43,7.43,0,0,1-6-5.51l0-.19a7.16,7.16,0,0,1,2.69-7.36Z"/><path class="cls-7" d="M113.72,433c-4.46-2.16-3.4-8-2.89-10s2.54-6,3.53-8c2.55-4.95,7.47-12.94,9.89-17.82,1.59-3.21,2.34-4.95,4.66-4.47,2.12.43,1.7,3.91,1.55,5.28-.6,5.63-1.64,16.65-3.24,22.42a40,40,0,0,1-3.83,9.06C119.5,435.09,115,433.59,113.72,433Z"/><polygon class="cls-11" points="46.53 486.44 46.9 480.84 85.54 480.84 86.03 485.7 46.53 486.44"/><path class="cls-7" d="M51.56,427.78C46,423.66,38,424,38,424s-15.48-1.07-20.63-1.51c-2.43-.2-7.49-.72-8.17,5.33h0c-.57,5,4.14,6.36,6.45,6.79,4.68.86,14.35,1.63,18.77,3.27,3.29,1.23,7.88,4.4,13.72,3a7.44,7.44,0,0,0,6-5.51l0-.19a7.16,7.16,0,0,0-2.68-7.36Z"/><path class="cls-7" d="M18.49,433.52c4.46-2.16,3.41-8,2.9-10a49.43,49.43,0,0,0-3.54-8c-2.54-5-7.46-12.95-9.88-17.83-1.6-3.21-2.35-4.94-4.67-4.47-2.11.43-1.69,3.91-1.55,5.28.61,5.63,1.65,16.65,3.25,22.42A40,40,0,0,0,8.82,430C12.72,435.66,17.2,434.15,18.49,433.52Z"/><path class="cls-7" d="M1.13,396.07a9,9,0,0,1-.78-3.27l-.35-6a2.05,2.05,0,0,1,.5-1.37h0a2.6,2.6,0,0,1,1.91-.84l5.15-.79a1.51,1.51,0,0,1,1.65.91l-.14,1.61s.47,2.21.49,1.54c.1-2.33.47-3.91,2.49-3.68l-.36,3.87a3,3,0,0,1-.46,1.23c-.5.87-.85,2.87-1.36,3.55A28,28,0,0,0,7.11,396c-.28.65.31,1.5.31,1.5h0a2.33,2.33,0,0,1-2.95,1.95l-2.18-.61Z"/><path class="cls-12" d="M9.2,384.7l-.32,3.14-2,3.26-2-.33.32.26a2.5,2.5,0,0,1,.92,2.27L6,394.38l1.22-2.45.64-.46,1.78-3.68-.09-1.66Z"/><path class="cls-7" d="M130.65,396.07a9.21,9.21,0,0,0,.78-3.27l.34-6a2,2,0,0,0-.49-1.37h0a2.62,2.62,0,0,0-1.91-.84l-5.16-.79a1.5,1.5,0,0,0-1.64.91l.13,1.61s-.46,2.21-.49,1.54c-.09-2.33-.46-3.91-2.49-3.68l.37,3.87a3,3,0,0,0,.46,1.23c.49.87.84,2.87,1.35,3.55a28,28,0,0,1,2.76,3.15c.29.65-.3,1.5-.3,1.5h0a2.32,2.32,0,0,0,2.94,1.95l2.19-.61Z"/><path class="cls-12" d="M122.57,384.7l.32,3.14,2,3.26,2-.33-.32.26a2.54,2.54,0,0,0-.92,2.27l.13,1.08-1.21-2.45-.65-.46-1.77-3.68.08-1.66Z"/><path class="cls-13" d="M34.77,421.64l6.74,21.28v0c.13.51,3.19,12.87,3.66,17.39.54,5-1.45,27.61-1.45,27.61,0,.32,44.62,1.78,44.62,1.78a.57.57,0,0,0,.6-.61c-.16-3.09-.82-16.89-.09-26.17.36-4.63,3.58-18.28,3.71-18.84v0l7-22.5a.58.58,0,0,0-.53-.76l-16.14-.69a.67.67,0,0,0-.31.07L68.31,428a.6.6,0,0,1-.58,0l-14.28-8.49a.62.62,0,0,0-.35-.08l-17.82,1.42A.59.59,0,0,0,34.77,421.64Z"/><path class="cls-2" d="M638.45,254.23c3.09,2,6.4,10,10,10.85,1.28.29,3.84-1.51,4.55-2.62,2.56-4,1.32-15.31,4.94-18.4,3.07-2.63,10.43-1.13,10.6-12.17.11-6.71-7.72-9.91-9.64-10.59a7.33,7.33,0,0,1-.91-.39l-11.66-5.78a8.18,8.18,0,0,1-4.55-7.23l-.06-5.19-7.76.6-7.65-.6,0,4.52a9.06,9.06,0,0,1-5,8.2l-11.55,5.73s-10.18,3.09-10.06,10.73c.17,11,7.53,9.54,10.6,12.17,3.62,3.09,2.38,14.38,4.94,18.4.71,1.11,3.27,2.91,4.55,2.62,3.59-.83,6.76-9.08,10-10.85C631.67,253.18,636.63,253,638.45,254.23Z"/><polygon class="cls-8" points="634.72 201.18 641.91 202.33 642.2 219 634.29 228.35 626.47 219 626.76 202.33 634.72 201.18"/><path class="cls-1" d="M651.39,229.72c-.38,7.95,5.09,15.39,5.09,15.39s9,15.51,11.87,20.72c1.37,2.46,4.14,7.63,10.36,4.39h0c5.14-2.68,3.42-8.08,2.34-10.56-2.19-5-7.7-14.78-9-20.07-1-3.93-.88-10.37-6-15,0,0-3.78-4.27-9.17-2.22l-.21.08a8.25,8.25,0,0,0-5.3,7.31Z"/><path class="cls-7" d="M579.87,260.94c-5.63,1-8.61-5.08-9.55-7.37s-1.75-7.33-2.14-9.81c-1-6.34-1.9-17.13-3-23.33-.7-4.07-1.19-6.19,1.29-7.34,2.26-1,4.25,2.48,5,3.86,3.28,5.65,9.83,16.6,12.28,23.06,1,2.66,2.54,8.21,2.63,11C586.69,259,581.5,260.64,579.87,260.94Z"/><path class="cls-1" d="M616.16,235c-3.42,7.19-11.77,11.15-11.77,11.15s-15.23,9.42-20.25,12.64c-2.37,1.52-7.25,4.77-11.21-1h0c-3.25-4.78.81-8.73,2.94-10.4,4.31-3.4,13.77-9.39,17.39-13.44,2.7-3,5.68-8.72,12.41-10.41,0,0,5.35-2,9.13,2.37l.15.17a8.26,8.26,0,0,1,1.21,9Z"/><polygon class="cls-14" points="611.27 291.56 611.7 285.09 656.28 285.09 656.85 290.7 611.27 291.56"/><path class="cls-4" d="M681.83,260.9c-2.6-5.09-9.26-3.74-11.65-3.1s-6.88,3.07-9.09,4.26c-5.66,3.06-14.76,8.92-20.33,11.83-3.66,1.91-5.65,2.82-5,5.48.55,2.43,4.55,1.87,6.13,1.67,6.48-.83,19.16-2.29,25.78-4.28,2.72-.81,8.06-3,10.36-4.62C684.43,267.51,682.59,262.38,681.83,260.9Z"/><path class="cls-7" d="M570.5,213.84,569.33,208l-3.75-7.26s-1.3,1-1.42,1.45c-.35,1.56.54,3.93,1,5.45a2.4,2.4,0,0,1-.35,1.27c-.72.48-2.09-.74-2.09-.74l3,5.12Z"/><path class="cls-7" d="M569.11,212.65l-4.68,3.94-9.22-9.25-5.61-12.66a7,7,0,0,1,2.45-.14c2.9,1.33,5.67,7.69,7.71,10.13C562,207.31,569.11,212.65,569.11,212.65Z"/><ellipse class="cls-7" cx="567.07" cy="214.49" rx="3.5" ry="3.48" transform="translate(-38.62 187.68) rotate(-18.18)"/><path class="cls-15" d="M619.41,216.84c.39-.38,5-5.84,5.43-5.84.19,0,4,9.1,8.35,9.22,5.31.15,10.38-9.22,10.38-9.22l2.57,4,1.45,46.16-28.18.38Z"/><path class="cls-15" d="M566.24,231.94,564.63,223s8-5.5,8.48-5.23,2.44,6,2.44,6Z"/><path class="cls-16" d="M631.06,225h5.26s4.09,19.48,3.9,20.07-2.67,15.34-2.64,15.7-3.61,4.6-3.61,4.6-3.68-5.31-3.87-5.9-1.34-13.34-1.63-13.81S631.06,225,631.06,225Z"/><path class="cls-17" d="M659.15,281.32l5.13,25.32a1.17,1.17,0,0,1-1,1.41c-4.77.53-16.67,4-20.89,2.75-2.46-.74-4.8-7.14-5.22-8.53a2.51,2.51,0,0,1-.18-.59c-.15-4.45-2-48.83-1.18-55.17s6.37-25.82,7.8-32.18c.16-.73.33-1.42.33-1.42L659.37,220l.07,0,7.34,2.84a1.19,1.19,0,0,1,.57.47l4.07,6.52a1,1,0,0,1,.11.23l11.3,32.25a1.17,1.17,0,0,1-.62,1.47L658.07,275a1.17,1.17,0,0,0-.61,1.47l1.65,4.66Z"/><path class="cls-17" d="M624.3,212.73s8.49,29.15,8.49,33.61.09,52.6-2.14,55.25-5.88,7.79-9.78,7.79-13.4-2.27-13.4-2.27a3.53,3.53,0,0,1-2.84-4.29l4.55-25,1.59-15.52L608.1,245s-28.32,18-29.28,17.79c-6.07-1.09-8.7-7.59-8.7-7.59l-7.77-24.5L575,221.77c1.15-.85,8.86,18.07,8.86,18.07l15.86-15.91Z"/><path class="cls-18" d="M624,211.65l-2.83,2.51-1.79,26.6,4.93,2.45v5.93s7.48,23.55,7.93,22.83.56-21.81.56-21.81v-3.82l-4.34-18.83Z"/><path class="cls-19" d="M629.65,222.41a32.37,32.37,0,0,1,2.55-4.4c.49-.48,3.38,0,3.38,0l2.57,4.07s-1.06,2.76-1.88,3.15a23.38,23.38,0,0,1-5,0C630.66,225.2,629.89,222.6,629.65,222.41Z"/><path class="cls-18" d="M644.27,212.06l2.31,2.1,1.8,26.6-4.93,2.45v5.93S636,272.69,635.52,272s-.56-21.81-.56-21.81v-3.82l4.34-18.83Z"/><path class="cls-20" d="M642,208.62l2.25,3.44-5.52,12.31a52.22,52.22,0,0,0-3.17-6.36C635.17,217.48,642,208.62,642,208.62Z"/><polygon class="cls-21" points="628.15 250.22 630.3 289.63 660.24 288.28 663.57 249.77 628.15 250.22"/><path class="cls-20" d="M626.22,208.62l-2.23,3,5.19,12.72s2-5.18,3.39-6.52C633.05,217.38,626.22,208.62,626.22,208.62Z"/><polygon class="cls-7" points="640.94 274.16 635.32 270.27 628.93 268.7 629.78 271.25 632.71 272.61 633.89 274.43 629.95 274.54 629.86 271.62 628.04 271.36 624.78 275.39 626.05 284.06 631.61 286.05 641.44 281.25 644.28 280.35 650.14 278.92 645.22 272.89 642.67 273.91 640.94 274.16"/><path class="cls-15" d="M653.61,281.69l-9,.63s-4.69-8.25-4.38-8.63,6.22-1.72,6.22-1.72Z"/><path class="cls-17" d="M643.65,272.3c.77,1.21,7.33,16.36,7.87,15.75s28.24-16.8,28.24-16.8l.06,0a6.08,6.08,0,0,0,2.92-5l.09-3.51s-6.28-5.52-6.94-5.52-11.3,2.77-12.27,2.66S643.65,272.3,643.65,272.3Z"/><line class="cls-3" x1="641.67" y1="205.85" x2="641.75" y2="205.85"/><path class="cls-2" d="M631.32,272.61"/><circle class="cls-18" cx="565.98" cy="232.56" r="1.35"/><circle class="cls-18" cx="567.32" cy="236.98" r="1.35"/><circle class="cls-18" cx="657.79" cy="280.47" r="1.35"/><circle class="cls-18" cx="653.61" cy="283.16" r="1.35"/><path class="cls-7" d="M180.55,71.35C180.35,83.7,172.12,82,168.69,85c-4.05,3.46-2.66,16.1-5.53,20.59-.79,1.24-3.65,3.25-5.08,2.92-4-.92-7.73-9.88-11.19-12.14-2-1.32-7.58-1.16-9.71,0-3.62,2-7.16,11.22-11.18,12.14-1.43.33-4.3-1.68-5.09-2.92-2.86-4.49-1.48-17.13-5.53-20.59C112,82,103.72,83.7,103.52,71.35c-.13-8.55,11.26-12,11.26-12l12.92-6.4a10.23,10.23,0,0,0,3-2.29,10.11,10.11,0,0,0,2.54-5.58c.06-.43,1.25-.5,1.25-.94l.74-6.1-.06,1.17-1.49-.46,8.17.63,8.65-.66h0l0,1.84.05,3.6v.48a8.09,8.09,0,0,0,.06.85h0A9.51,9.51,0,0,0,151,46.9a9.22,9.22,0,0,0,4.74,5.71l13,6.46a7.6,7.6,0,0,0,1,.43C171.91,60.27,180.67,63.85,180.55,71.35Z"/><polygon class="cls-7" points="150.83 57.98 141.98 68.43 133.24 57.98 133.24 57.82 133.47 44.58 133.56 39.77 133.56 39.75 133.56 39.32 133.71 39.3 142.47 38.03 150.51 39.32 150.52 39.75 150.52 39.75 150.57 42.72 150.61 45.2 150.62 45.67 150.63 46.29 150.67 48.72 150.83 57.98"/><path class="cls-8" d="M150.5,37.39l0,1.32h0V45l0,.23.05.23h0L151,46.9l0,.14s-.11.23-.32.63c-1.38,2.62-7.2,12.4-15.66,10.42a3.65,3.65,0,0,1-1.77-1.32,24.46,24.46,0,0,1-3.1-5.5,5.9,5.9,0,0,0,.58-.62,12.39,12.39,0,0,0,2.49-5.33,1.84,1.84,0,0,0,0-.25c.09-.44.15-1,.21-1.53.14-1.37.06-4.44.09-6.19"/><path class="cls-7" d="M161.58,66.11c7-5.5,17.34-5.32,17.34-5.32s20-1.86,26.59-2.58c3.12-.34,9.63-1.17,10.7,6.62h0c.89,6.41-5.15,8.34-8.11,9-6,1.26-18.48,2.55-24.12,4.8-4.21,1.69-10,5.92-17.61,4.26,0,0-6.35-.68-8-6.92l-.07-.25a9.21,9.21,0,0,1,3.24-9.57Z"/><path class="cls-7" d="M209,72.58c-6.34.84-9.32-6.17-10.25-8.77s-1.52-8.29-1.82-11.09c-.77-7.15-1.14-19.25-2-26.23-.55-4.59-1-7,1.86-8.13,2.58-1,4.61,3,5.42,4.6,3.34,6.5,10,19.11,12.4,26.47,1,3,2.37,9.31,2.3,12.48C216.76,70.79,210.87,72.34,209,72.58Z"/><path class="cls-7" d="M123.16,67.89c1.71,8.74-3.14,17.86-3.14,17.86s-7.41,18.62-9.78,24.86c-1.11,2.94-3.33,9.12-10.75,6.54h0c-6.12-2.13-5.09-8.39-4.3-11.3,1.61-5.94,6.12-17.62,6.67-23.68.41-4.51-.71-11.62,4.21-17.62,0,0,3.48-5.35,9.78-3.95l.25.06a9.23,9.23,0,0,1,7.06,7.23Z"/><path class="cls-7" d="M194.88,18.92l2.1-6.29,5.15-7.56s1.32,1.25,1.38,1.81c.18,1.78-1.14,4.29-1.87,5.91a2.55,2.55,0,0,0,.21,1.45c.73.64,2.42-.53,2.42-.53l-4,5.28Z"/><path class="cls-7" d="M196.7,17.8l4.64,5,11.52-9L220.81.53A7.57,7.57,0,0,0,218.12,0c-3.4,1.08-7.35,7.76-10,10.19C205.37,12.86,196.7,17.8,196.7,17.8Z"/><ellipse class="cls-7" cx="198.6" cy="20.12" rx="3.89" ry="3.91" transform="translate(95.77 191.21) rotate(-64.78)"/><path class="cls-22" d="M111.79,60.37s6.5,7.2,6.79,13.24-1.45,15.46-1.45,15.46-.87,37.25-.29,38.74-1.87,6.12-.78,10.29,23,1.13,28.7-.47,19.49-6.68,20.29-7.15c5.95-3.46-1.22-21.21-1.11-24,.16-3.92,3.73-20.93,3.73-20.93.58-.61,4.22-22.21-1.51-27.56L155.7,52.6h0a9.93,9.93,0,0,1-9.07,8.16c-5.7.4-11.67,1.08-15,1.5a6.91,6.91,0,0,1-7-3.6,5.88,5.88,0,0,1-.65-3.74Z"/><path class="cls-7" d="M94.35,115.27c-2.82-5.75,2.86-10.81,5-12.52s7.36-4.11,9.91-5.29c6.53-3,17.88-7.24,24.22-10.28,4.17-2,6.31-3.17,8.29-.85,1.81,2.12-1.38,5.33-2.62,6.61-5.08,5.25-14.89,15.63-21.1,20.23-2.55,1.88-8.06,5.23-11.09,6.18C98.53,122,95.17,116.94,94.35,115.27Z"/><path class="cls-7" d="M139.69,93,145,89l5.57-7.25s-1.59-.86-2.15-.74c-1.74.38-3.72,2.42-5,3.62a2.6,2.6,0,0,1-1.44.25c-.84-.49-.26-2.47-.26-2.47L138,87.89Z"/><path class="cls-7" d="M140.18,90.91,134,88.06l5-13.75,10.14-11.7a7.71,7.71,0,0,1,1.31,2.4c0,3.57-5.08,9.41-6.58,12.63C142.17,81.13,140.18,90.91,140.18,90.91Z"/><ellipse class="cls-7" cx="137.39" cy="89.83" rx="3.89" ry="3.91" transform="translate(-24.15 118.97) rotate(-43.4)"/><polygon class="cls-23" points="298.55 414.24 298.76 407.01 313.88 406.85 313.8 414.24 298.55 414.24"/><path class="cls-7" d="M245.74,417.24s1.21-4.79,1.06-5.54-1.26-3.82-1.26-4.42.83-4.26.38-4.27-2.17.22-2.17.22l-1.05,3,.36,3.67-4-4.13s-4.23-6.39-4.39-6.83-2.18.52-2.18.52l4.7,8.18L230,400.36l-1.73,1.71,7.7,7.73-9-6.38-.83,2.32,7.85,5.93L227,408.81s-.75,2.09-.23,2.32,6.36,3.54,6.36,3.54l6.5,6.23L242,421Z"/><path class="cls-7" d="M336.5,426.87c-.15,9.6-6.55,8.29-9.21,10.57-3.15,2.7-2.07,12.51-4.3,16-.61,1-2.84,2.52-3.95,2.27-3.13-.72-6-7.69-8.69-9.44-1.59-1-5.9-.9-7.55,0-2.81,1.54-5.57,8.72-8.69,9.44-1.11.25-3.34-1.31-3.95-2.27-2.23-3.5-1.15-13.31-4.3-16-2.66-2.28-9.06-1-9.22-10.57-.1-6.65,8.75-9.33,8.75-9.33l10-5a7.5,7.5,0,0,0,1.77-1.21,6.25,6.25,0,0,0,.58-.57l.15-.18h0a7.94,7.94,0,0,0,1.8-4.11,6.05,6.05,0,0,0,.06-1.05V403.6h13.41V406a2.18,2.18,0,0,0,0,.25h0a3.89,3.89,0,0,0,0,.49,6.23,6.23,0,0,0,.23,1.14,7.12,7.12,0,0,0,3.68,4.4l10.13,5c.25.12.52.23.79.33C329.79,418.25,336.59,421,336.5,426.87Z"/><polygon class="cls-7" points="313.41 415.67 306.54 423.79 302.83 419.37 299.74 415.67 299.92 405.27 299.93 404.72 299.94 403.6 313.2 403.6 313.2 403.65 313.22 404.82 313.22 404.82 313.23 405.21 313.25 406.26 313.25 406.27 313.25 406.59 313.28 408.29 313.41 415.67"/><path class="cls-8" d="M313.53,408l-.25.31c-1.29,1.58-7.21,8.76-10.45,11.08-.8.57-1.43.85-1.8.67-1.69-.81-3.71-8.77-3.71-8.77l0,0a4.69,4.69,0,0,0,.44-.47c.08-.09.16-.2.26-.33v0a9.66,9.66,0,0,0,1.67-3.79l0-.16c.07-.34.12-.75.17-1.2,0-.18,0-.37,0-.56,0-.35.05-.73.07-1.12H313.2v2.8l0,.19,0,.17.23,1.14Z"/><path class="cls-7" d="M321.94,428.3c2.85,6.05,9.63,9.47,9.63,9.47s12.39,8.07,16.48,10.82c1.93,1.3,5.9,4.07,9-.72h0c2.57-4-.76-7.31-2.49-8.73-3.52-2.9-11.22-8-14.19-11.45-2.22-2.56-4.69-7.36-10.13-8.86,0,0-4.34-1.72-7.33,1.87l-.12.14a7,7,0,0,0-.86,7.46Z"/><path class="cls-7" d="M354.22,439.45c-4.64-1.79-6.8,1.95-8,3.75s-3.16,7.07-3.9,9.12c-1.89,5.26-5.25,14.25-7.17,19.37-1.26,3.36-2,5.1-.09,6.48,1.76,1.25,4-1.44,4.94-2.48,3.71-4.3,11.07-12.6,14.21-17.73a40.28,40.28,0,0,0,4-9C359.74,442.22,355.57,440,354.22,439.45Z"/><path class="cls-7" d="M265.09,453.61c3.45-2.85,1.12-8,.17-10a54.9,54.9,0,0,0-5-7.1c-3.45-4.36-14.1-17.35-16.25-22.34-1.51-3.5-6,2.59-6,2.59a50.3,50.3,0,0,1,3.88,6c2.51,5.09,4.39,12.6,8.24,21.15a36.59,36.59,0,0,0,5.55,8.12C260.48,456.91,264.09,454.44,265.09,453.61Z"/><path class="cls-7" d="M291.38,428.62c-2.13,6.59-8.88,10.95-8.88,10.95s-12.05,9.85-16,13.19c-1.87,1.58-5.71,4.93-9.77.38h0c-3.36-3.76-.3-7.62,1.34-9.3,3.34-3.42,10.81-9.65,13.47-13.56,2-2.91,6.48-8.89,12.08-11.11,0,0,1.82-1.58,5.57,1.74l.15.13a7.18,7.18,0,0,1,2.06,7.58Z"/><path class="cls-7" d="M337.11,476.71a2.83,2.83,0,0,1,.09,3.78s-3.19,5.9-4.86,7.34c-.74.64-2.77,2.23-3.56,1.65-2.25-1.64-4.52-6.31-4.67-9.64-.05-1,1.85-2.48,2.76-2.89s3.3-.07,4.38-.27c.39-.08,1.06-.28,1.73-.5C334.4,475.73,336.19,475.8,337.11,476.71Z"/><polygon class="cls-8" points="334.05 474.21 333.41 476.07 334.92 478.94 336.55 481.66 337.58 479.89 339.67 477.61 334.05 474.21"/><polygon class="cls-24" points="333.62 475.42 335.03 471.07 341.23 475.28 339.19 479 333.62 475.42"/><path class="cls-25" d="M333,418.86l4.14,2.12s12.19,11,11.85,11.61-8,13.05-8,13.05-10.88-7.42-11.16-7.7-3.18-7.32-3.37-7.23,3.27-10.16,3.37-10.62,3.16-1.23,3.16-1.23"/><polygon class="cls-26" points="285.85 478.6 285.85 471.21 325.9 472.13 325.68 477.72 285.85 478.6"/><path class="cls-25" d="M285.23,464l-2.73-24.44-1.67-20.63,2.77-1.44,13.48-7,10.7,13.13,9.09-12.29,16.16,7.5-2.61,25.25-3.92,18.27s.82,6.09.14,7.94l-.74,1.8-40,.61-1-1.46C282.9,468,285.22,464.79,285.23,464Z"/><polygon class="cls-27" points="296.27 411.61 298.76 407.01 300.01 412.64 305.68 418.64 301.7 424.74 296.27 411.61"/><polygon class="cls-27" points="317.36 412.07 313.88 406.85 313.54 412.96 308.71 418.45 313.38 424.28 317.36 412.07"/><polygon class="cls-26" points="305.68 418.64 307.72 423.65 304.97 421.38 301.7 424.74 305.68 418.64"/><polygon class="cls-26" points="307.72 423.65 308.71 418.45 313.38 424.28 310.04 421.64 307.72 423.65"/><path class="cls-25" d="M284,440.29c-.44.18-12.44,11.1-12.71,10.93s-7.14-15.87-6.88-15.87,16.38-16.41,16.38-16.41"/><path class="cls-7" d="M149.09,253.9c3.91,2.54,8.1,12.67,12.64,13.72,1.62.37,4.86-1.91,5.75-3.31,3.24-5.08,1.67-19.35,6.25-23.27,3.87-3.31,13.18-1.42,13.4-15.38.13-8.48-9.77-12.53-12.19-13.39a10.74,10.74,0,0,1-1.15-.49l-14.74-7.31a10.36,10.36,0,0,1-5.75-9.14l-.09-6.57-9.8.75-9.68-.75,0,5.72a11.48,11.48,0,0,1-6.38,10.37l-14.6,7.24s-12.87,3.9-12.72,13.57c.22,14,9.53,12.07,13.4,15.38,4.58,3.92,3,18.19,6.25,23.27.89,1.4,4.13,3.68,5.75,3.31,4.55-1.05,8.55-11.48,12.64-13.72C140.52,252.58,146.79,252.4,149.09,253.9Z"/><polygon class="cls-7" points="144.09 186.82 153.18 188.28 153.54 209.37 143.54 221.18 133.66 209.37 134.02 188.28 144.09 186.82"/><path class="cls-8" d="M153.73,198.18l-.37.46c-1.88,2.3-10.48,12.74-15.2,16.11-1.16.83-2.08,1.23-2.61,1-2.46-1.19-5.4-12.76-5.4-12.76a9,9,0,0,0,.66-.71,14.07,14.07,0,0,0,2.82-6,1.89,1.89,0,0,0,.05-.23c.09-.5.17-1.09.24-1.76.15-1.55.23-3.47.26-5.45,0-.19,0-.37,0-.55,0-.48,0-1,0-1.43h19l0,3.85v1.22l0,4,.06.28.05.24.33,1.67Z"/><polygon class="cls-14" points="114.73 301.11 115.28 292.92 171.64 292.92 172.36 300.01 114.73 301.11"/><path class="cls-1" d="M168,224.88c-2.35,9.79,2.71,20.32,2.71,20.32s7.49,21.36,9.88,28.52c1.12,3.38,3.34,10.45,11.84,7.89h0c7-2.12,6.14-9.23,5.39-12.57-1.55-6.77-6.09-20.18-6.44-27-.25-5.11,1.35-13.09-3.92-20.09,0,0-3.69-6.21-10.87-4.93l-.28.06a10.39,10.39,0,0,0-8.31,7.84Z"/><path class="cls-28" d="M157.27,206.74s19.58,6.91,25.5,10.43c10.42,6.18-6.53,27.27-6.53,27.27l-3.73,23.63,1.81,24.44-2.8,4.28-55.72.29-3-4.32L113,269.2s-1.92-18.44-5.78-22.91c-8.66-10-.45-31.35-.45-31.35l23.17-8.24s6.14,14.3,14.51,13.52C153.8,219.35,157.27,206.74,157.27,206.74Z"/><polygon class="cls-29" points="114.7 300.82 115.24 292.64 171.6 292.64 172.33 299.73 114.7 300.82"/><path class="cls-7" d="M159.79,308.44l14.46-6.36,8.28,8.46-.94,3.81-4.36,4.37s-8.25-7-8.25-7.64-6.31,1.56-6.31,1.56Z"/><path class="cls-7" d="M128,305.89l-14.1-6-8.64,8.1.93,3.82,4.36,4.36s8.26-7,8.26-7.63,6.31,1.56,6.31,1.56Z"/><polygon class="cls-30" points="188.51 219.74 196.16 240.08 199.3 279.7 182.76 311.06 171.93 300.51 182.19 273.43 180.2 244.93 188.51 219.74"/><polygon class="cls-31" points="156.25 202.03 159.25 245.78 159.25 307.21 180.63 299.94 183.9 244.64 188.44 219.45 156.25 202.03"/><polygon class="cls-30" points="169.96 212.29 166.3 219.85 161.81 219.17 157.92 225.83 156.28 202.2 163.75 209.53 169.96 212.29"/><polygon class="cls-30" points="98.68 219.74 92.12 238.26 88.98 277.88 105.52 309.24 116.35 298.69 106.09 271.61 108.08 243.11 98.68 219.74"/><polygon class="cls-31" points="132.03 200.21 129.03 243.97 129.03 305.39 107.66 298.12 104.38 242.82 98.39 219.45 132.03 200.21"/><path class="cls-30" d="M132,200.08s-.6,7,.55,8.92c2,3.26,9,4.66,9,4.66l-2,7-4.7-1.42L130,228l.12-8.11a11.9,11.9,0,0,1-4.49-11C125.88,206.29,132,200.08,132,200.08Z"/></g><g id="Calque_7" data-name="Calque 7"><polygon class="cls-8" points="605.75 21.34 588.82 21.34 588.82 20.91 588.97 20.89 597.71 19.63 605.75 20.91 605.75 21.34"/><polygon class="cls-23" points="587.24 37.88 587.52 28.6 606.94 28.4 606.83 37.88 587.24 37.88"/><path class="cls-2" d="M635.74,53.94c-.12,7.5-3.21,9.82-6.39,11.14-2,.85-4.11,1.29-5.45,2.44-4,3.46-2.66,16.07-5.52,20.56-.79,1.23-3.65,3.25-5.08,2.92-4-.92-7.72-9.87-11.17-12.12-2-1.32-7.57-1.16-9.69,0-3.62,2-7.16,11.2-11.17,12.12-1.43.33-4.29-1.69-5.08-2.92-2.77-4.34-1.56-16.29-5.15-20.2a3.15,3.15,0,0,0-.37-.36c-3.42-2.93-11.65-1.25-11.84-13.58-.07-4.41,2.93-7.47,5.85-9.39a23.32,23.32,0,0,1,5.39-2.61L583,35.55a10.73,10.73,0,0,0,1.42-.86,10.38,10.38,0,0,0,1.33-1.14c.1-.1.2-.21.29-.32l0,0a10.27,10.27,0,0,0,1.4-2,10.1,10.1,0,0,0,.67-1.59c.1-.33.19-.66.26-1a6.6,6.6,0,0,0,.15-.87h0a9.55,9.55,0,0,0,.08-1.32l0-5.05.26,0H589l8.16.63,8.63-.66h0l0,1.84v.12l0,3.48v.47c0,.29,0,.57.06.85h0v0l0,.28a8.62,8.62,0,0,0,.25,1.12h0c0,.1.06.21.1.31a8.4,8.4,0,0,0,.61,1.45,9.21,9.21,0,0,0,3.37,3.56c.21.13.43.25.65.36l.38.19L624,41.67a7.6,7.6,0,0,0,1,.43,23,23,0,0,1,6.39,3.53C633.73,47.54,635.79,50.27,635.74,53.94Z"/><polygon class="cls-7" points="606.07 39.54 601.56 44.87 598.19 48.85 597.23 49.98 594.41 46.6 592.48 44.3 588.5 39.54 588.53 37.88 588.55 37.02 588.66 30.52 588.69 28.59 588.73 26.16 588.82 21.36 588.82 21.34 588.82 20.91 588.97 20.89 597.71 19.63 605.75 20.91 605.75 21.34 605.75 21.34 605.8 24.3 605.84 26.78 605.85 27.25 605.86 27.87 605.87 28.41 605.9 30.06 605.91 30.7 605.91 30.71 606.04 37.88 606.07 39.54"/><path class="cls-8" d="M606.23,29.66l-.33.4c-.92,1.14-3.71,4.53-6.72,7.82-1.27,1.39-2.58,2.76-3.8,3.93-.59.56-1.15,1.08-1.68,1.53s-.84.69-1.22,1c-1,.73-1.85,1.09-2.31.86-2.17-1-4.77-11.27-4.77-11.27a4,4,0,0,0,.33-.33l.28-.33,0,0A11.63,11.63,0,0,0,587.45,31a12.81,12.81,0,0,0,.6-1.47h0c.1-.28.19-.59.27-.9s.11-.42.16-.65c0-.07,0-.14,0-.22h0a13.91,13.91,0,0,0,.21-1.55c.14-1.36.21-3.05.23-4.79v0c0-.15,0-.3,0-.45l8.74-1.27,8,1.29v.43h0v3l0,3.34,0,.23,0,.23h0v0l.06.28.23,1.12h0Z"/><path class="cls-32" d="M617.15,56.1c3.82,8,13.14,12.45,13.14,12.45s17,10.52,22.63,14.12c2.64,1.7,8.1,5.32,12.51-1.16h0c3.64-5.34-.9-9.75-3.27-11.62-4.82-3.8-15.39-10.48-19.44-15-3-3.37-7.48-11-15-12.83,0,0-4.84-1-9.06,3.85l-.17.2a9.2,9.2,0,0,0-1.35,10Z"/><path class="cls-33" d="M574.71,47.57c5.7,6.81,5.86,17.13,5.86,17.13s2.49,19.85,3.43,26.45c.44,3.11,1.47,9.58-6.26,10.9h0c-6.37,1.08-8.49-4.88-9.2-7.81-1.45-6-3.14-18.36-5.58-23.92-1.81-4.14-6.22-9.82-4.81-17.43,0,0,.47-6.36,6.65-8.18l.25-.07a9.23,9.23,0,0,1,9.66,2.93Z"/><polygon class="cls-26" points="572.88 120.58 573.36 111.79 623.15 111.79 622.15 119.45 572.88 120.58"/><path class="cls-32" d="M570.56,107.47,571.08,65,566.87,42l18.49-8.85L599.11,50l11.67-15.79,20.77,9.63L628.2,76.27l-8.55,23.15,2.63,3.47a7.43,7.43,0,0,1,1.05,7l-.87,2.35-50.15.8-1.16-2.68A7.25,7.25,0,0,1,570.56,107.47Z"/><path class="cls-26" d="M617.19,87l.38,3.27-2.75,1.84.36,1c-8.56,4.21-29.86,14.54-30.06,14.61-.51.19-3.47,1.54-5.16,1.54-2.83,0-9.44-3.91-9.44-3.91s-.69-4.48.06-4.3S610.1,86.33,611,86.55,617.19,87,617.19,87Z"/><rect class="cls-34" x="614.92" y="50.64" width="72.43" height="50.22" rx="10.58" transform="translate(-4.39 76.68) rotate(-6.72)"/><path class="cls-7" d="M685.23,91.64h.85a2.15,2.15,0,0,1,2.15,2.15v5a2.15,2.15,0,0,1-2.15,2.15H686a2.15,2.15,0,0,1-2.15-2.15V93a1.37,1.37,0,0,1,1.37-1.37Z" transform="translate(24.05 300.49) rotate(-25.13)"/><path class="cls-8" d="M665.26,99.33l13-2.14-.67,6.73a1.18,1.18,0,0,1-1.46,1l-3.07-.76a13.35,13.35,0,0,1-5.48-2.85Z"/><path class="cls-7" d="M675.28,91.93h2.91a5.67,5.67,0,0,1,5.67,5.67v1.17a5.36,5.36,0,0,1-5.36,5.36h-2.44a3.41,3.41,0,0,1-3.41-3.41V94.56a2.62,2.62,0,0,1,2.62-2.62Z" transform="translate(22.58 297.35) rotate(-25.13)"/><path class="cls-7" d="M615.18,79.3l4.18,6.45L623,85l7.76-1.2A5.33,5.33,0,0,0,635,80.31l2.16-6.18,9.57-1.41A2.8,2.8,0,0,0,649.1,70v-.39l-11.21.81.6-1.59-5.69.1h-3.34a10,10,0,0,0-5.15,1.47l-3,1.84a25.19,25.19,0,0,0-2.07,2.7l-1.74,2.4"/><path class="cls-7" d="M569.86,95.5c-1.23-6.27,5.56-9.68,8.1-10.77s8.16-2,10.92-2.52C596,81,608,79.86,614.9,78.58c4.54-.85,6.91-1.42,8.22,1.33,1.19,2.51-1.33,4.4-2.85,5.31-6.27,3.74-19.81,11.59-27,14.41-2.95,1.16-9.13,3-12.29,3.09C572.13,103.1,570.22,97.32,569.86,95.5Z"/><path class="cls-32" d="M572.88,38.94S559,44.31,556.55,47.59s-1,16.09-1,16.09,5.34,30.94,12.15,38.15c1.6,1.69,7.2,3.26,10.07,4a4.92,4.92,0,0,0,3.27-.32l32.39-15-2.72-13.15-29.27,3.91L575.66,59"/><polygon class="cls-27" points="584.31 34.5 587.52 28.6 596.4 43.54 591.29 51.38 584.31 34.5"/><polygon class="cls-27" points="611.41 35.1 606.94 28.4 600.3 43.3 606.3 50.79 611.41 35.1"/><polygon class="cls-26" points="596.4 43.54 599.03 49.98 595.49 47.06 591.29 51.38 596.4 43.54"/><polygon class="cls-26" points="599.03 49.98 600.3 43.3 606.3 50.79 602.01 47.4 599.03 49.98"/><path class="cls-35" d="M575.6,59.21c.43,0,5.85,22.49,5.85,22.49l29.27-3.82,2.72,12.84"/><path class="cls-7" d="M341.79,93.56s-4.69-1.78-5.46-1.72-4,.82-4.61.74-4.21-1.34-4.26-.89,0,2.22,0,2.22l2.9,1.42,3.74.06-4.63,3.5s-6.95,3.52-7.42,3.62.28,2.27.28,2.27l8.8-3.77-8.21,6.44,1.53,2,8.71-6.84-7.51,8.36,2.24,1.11,6.92-7.21-3.71,6.6s2,1,2.31.51,4.32-6,4.32-6l7.06-5.82.36-2.33Z"/><path class="cls-7" d="M437.31,51.91c-.15,9.74-6.65,8.42-9.36,10.73-3.19,2.74-2.1,12.71-4.36,16.26-.62,1-2.89,2.56-4,2.3-3.18-.73-6.1-7.8-8.83-9.58-1.61-1-6-.92-7.67,0-2.85,1.57-5.65,8.85-8.82,9.58-1.13.26-3.39-1.33-4-2.3-2.26-3.55-1.16-13.52-4.36-16.26-2.71-2.31-9.2-1-9.36-10.73-.1-6.75,8.88-9.48,8.88-9.48l10.2-5.06a8,8,0,0,0,1.8-1.22,7.93,7.93,0,0,0,.58-.58l.16-.18,0,0a23.82,23.82,0,0,1,3.67-3.17c.36-.27-1.21-1.18-1.21-1.54l.26-1.06-.43-1.77,13.21.44V31h0c0,.16,0,.33,0,.49a7.3,7.3,0,0,0,4,5.63L428,42.21a7.27,7.27,0,0,0,.81.34C430.49,43.16,437.4,46,437.31,51.91Z"/><polygon class="cls-7" points="413.86 40.53 406.88 48.78 403.12 44.29 399.97 40.53 400.16 29.98 400.16 29.41 400.18 28.27 413.65 28.27 413.65 28.33 413.67 29.51 413.67 29.52 413.68 29.91 413.69 30.98 413.69 30.99 413.7 31.31 413.73 33.04 413.86 40.53"/><path class="cls-8" d="M414,32.72l-.26.32c-1.31,1.6-7.32,8.89-10.61,11.25-.81.58-1.46.86-1.83.68-1.72-.83-3.77-8.91-3.77-8.91l0,0a4.69,4.69,0,0,0,.44-.47l.27-.34,0,0A13.51,13.51,0,0,0,400,31.36a34.47,34.47,0,0,0,.15-4.06,1.29,1.29,0,0,0,0-.25,1.36,1.36,0,0,1,1.37-1.37h10.68A1.38,1.38,0,0,1,413.55,27l.05,1.28h0l0,1.14v1.71l0,.19,0,.17.24,1.16Z"/><path class="cls-7" d="M422.62,54.58c3,6.34,10.39,9.84,10.39,9.84s13.44,8.32,17.88,11.17c2.09,1.34-.22,4,3.27-1.13h0c2.88-4.22,3.33-8.13,1.45-9.61-3.81-3-9.58-7.65-12.78-11.23-2.38-2.67-5-7.7-10.95-9.19a7.59,7.59,0,0,0-8.06,2.09l-.13.15a7.28,7.28,0,0,0-1.07,7.91Z"/><path class="cls-7" d="M452.56,63.16c-4.9-1.22-7.86,4-8.82,6s-1.94,6.37-2.43,8.53c-1.24,5.54-2.61,15-3.9,20.4-.85,3.54-1.39,5.39.73,6.54,1.93,1,3.88-2,4.66-3.12,3.2-4.8,9.58-14.1,12.09-19.65a40.63,40.63,0,0,0,2.93-9.58C458.47,65.26,454,63.52,452.56,63.16Z"/><path class="cls-7" d="M377.52,79.31c-2.3-3.87-7.14-2.5-8.86-1.9a39.38,39.38,0,0,0-6.41,3.76c-4,2.65-15.76,10.93-20.21,12.2-3.11.89,2,6.32,2,6.32a36,36,0,0,1,5.41-2.8c4.54-1.61,11.16-2.19,18.78-4.53a26.57,26.57,0,0,0,7.33-4.09C379.94,84.36,378.19,80.43,377.52,79.31Z"/><path class="cls-7" d="M392,51c.71,7-3.78,13.81-3.78,13.81S381,78.91,378.72,83.64c-1.09,2.23-3.29,6.92-8.93,4.34h0c-4.65-2.12-3.39-7-2.55-9.19,1.7-4.55,6.11-13.4,7-18.11.66-3.52.3-9.19,4.61-13.54a7.58,7.58,0,0,1,8-2.39l.19.07a7.27,7.27,0,0,1,5,6.2Z"/><path class="cls-7" d="M438.59,103.49c.52.81.78,2.29-.76,3.77,0,0-4.47,5.13-6.45,6.18-.88.46-3.24,1.58-3.9.83-1.86-2.12-3.07-7.26-2.47-10.59.18-1,2.39-2.05,3.39-2.24s3.28.67,4.4.71c.4,0,1.1,0,1.82-.1C436.13,101.91,437.89,102.38,438.59,103.49Z"/><polygon class="cls-8" points="436.12 100.33 435.06 102.03 435.92 105.2 436.93 108.27 438.35 106.74 440.92 104.95 436.12 100.33"/><polygon class="cls-24" points="435.43 101.43 437.79 97.43 442.99 103 440.13 106.23 435.43 101.43"/><polygon class="cls-36" points="386.32 104.47 386.7 98.76 426.57 98.76 426.61 108.27 386.32 104.47"/><polygon class="cls-36" points="371.64 67.54 383.89 74.32 387.79 66.43 388.44 84.26 386.49 96.61 386.68 98.93 426.98 100.6 429.09 94.09 429.09 83.89 428 63.55 439.75 69.22 447.27 57.72 435.43 43.96 421.13 38.39 408.13 45.35 394.76 37.83 379.99 44.8 375.44 50.37 371.64 67.54"/><path class="cls-7" d="M507.19,384.37c.56,1.8.9,3.34,2.75,4.2l10.48,8c.26.12,1.76,3.87,2,4,1.71.57,7.27-3.57,7.17,2-.15,9.18-6.67,7.94-9.39,10.12-3.21,2.57-2.11,12-4.38,15.31-.63.92-2.9,2.41-4,2.17-3.19-.69-6.13-7.35-8.86-9-1.62-1-6-.86-7.7,0-2.87,1.48-5.68,8.34-8.86,9-1.13.24-3.41-1.25-4-2.17-2.27-3.34-1.17-12.74-4.38-15.31-2.72-2.18-9.24-.94-9.4-10.12-.1-6.36,11.41-5.13,11.41-5.13l7.75-8.56a8.43,8.43,0,0,0,1.81-1.15c.2-.18.4-.36.58-.55l.16-.17v0a7.22,7.22,0,0,0,1.84-3.92,6.77,6.77,0,0,0,.07-1v-1.75"/><polyline class="cls-7" points="509.54 381.85 511.84 390.89 500.02 397.38 496.25 393.63 493.09 390.49 493.27 381.67 493.28 381.2 493.3 380.25"/><path class="cls-7" d="M531.2,442.28c.68.57,1.27,1.73.08,3.21,0,0-3.24,5-4.95,6.23-.76.54-2.82,1.89-3.63,1.4-2.3-1.39-4.61-5.36-4.76-8.18-.05-.85,1.88-2.11,2.81-2.45s3.37-.06,4.47-.23c.4-.07,1.08-.23,1.77-.42C528.43,441.45,530.26,441.51,531.2,442.28Z"/><polygon class="cls-8" points="528.07 440.17 527.42 441.75 528.96 444.17 530.62 446.49 531.67 444.98 533.8 443.05 528.07 440.17"/><polygon class="cls-24" points="527.64 441.19 529.07 437.5 535.39 441.07 533.31 444.23 527.64 441.19"/><polygon class="cls-26" points="478.93 443.89 478.93 437.62 519.76 438.39 519.54 443.14 478.93 443.89"/><path class="cls-7" d="M434.63,406.86c-.18-.72-5.23-14.55-5.23-14.55s6.23-2.93,6.05-3.66-1.58-10.82-1.58-10.82l2.73-.69,2.13,12.23,1.47-9.47,2.78,1-.74,11.61,2.38,4.05-3.71,8.68Z"/><path class="cls-7" d="M445.72,437c-.81-7.82-3.71-31.4-2.5-39,.84-5.32-9.11-1.43-9.11-1.43a72.62,72.62,0,0,1,.09,10.12c-.85,8-4.29,18.37-6.17,31.5"/><polygon class="cls-14" points="473.11 483.21 473.62 475.67 525.57 475.67 526.24 482.2 473.11 483.21"/><line class="cls-3" x1="509.54" y1="383.32" x2="509.63" y2="383.32"/><path class="cls-2" d="M496.47,461.12"/><circle class="cls-18" cx="522.45" cy="473.42" r="1.57"/><polyline class="cls-37" points="541.72 466.56 539.61 461.99 535.94 447.36 536.48 438.23 533.8 409.81 517.16 393.95 499.73 416.01 482.35 393.21 462.53 402.4 455.52 409.76 447.24 420.23 445.13 409.98 431.83 414.61 426.33 443.89 437.51 453.78 473.16 430.96 474.02 454.5 471.44 470.8 471.69 483.25 528.57 482.44 527.23 466.88 525.47 455.57 526.23 427.16"/><path class="cls-38" d="M512.76,393.8s18,7.09,23.5,10.69c9.6,6.34-6,27.95-6,27.95l-3.44,24.23,1.67,25.05-2.58,4.38-51.37.3L471.74,482l.2-24.14s5.11-19.6,1.55-24.19c-8-10.29-7.29-31.43-7.29-31.43l21.36-8.45s5.66,14.66,13.37,13.86C509.55,406.72,512.76,393.8,512.76,393.8Z"/><polygon class="cls-37" points="469 487.01 469.15 475.75 484.93 475.75 485.24 490.92 469 487.01"/><path class="cls-7" d="M515.07,486.93l13.33-5.87,7.63,7.8-.86,3.52-4,4s-7.61-6.46-7.61-7-5.81,1.43-5.81,1.43Z"/><polygon class="cls-37" points="541.55 405.77 548.6 424.53 551.49 461.05 536.25 489.95 526.27 480.23 535.72 455.27 533.88 428.99 541.55 405.77"/><polygon class="cls-39" points="511.81 389.45 514.57 429.78 504.77 483.88 529.68 478.08 536.03 459.75 537.3 428.73 541.48 405.51 511.81 389.45"/><polygon class="cls-37" points="524.45 398.91 521.07 405.88 516.94 405.25 513.35 411.39 511.84 389.61 518.73 396.36 524.45 398.91"/><polygon class="cls-39" points="489.67 386.83 486.73 427.27 486.73 483.88 467.02 477.19 464 426.22 460.94 402.41 489.67 386.83"/><path class="cls-37" d="M489.67,386.83s-.75,7.29.32,9.05c1.81,3,8.29,4.29,8.29,4.29l-1.87,6.47-4.34-1.31-4.47,8.09.11-7.48a11,11,0,0,1-4.14-10.13C483.82,393.38,489.67,386.83,489.67,386.83Z"/><polygon class="cls-37" points="512.43 487.62 507.78 482.58 527.51 478.56 528.89 482.34 512.43 487.62"/><path class="cls-40" d="M93.51,584c0-5.39,7.16-2.7,16-2.7s15.93-2.69,15.93,2.7-8.13,10.72-16.93,10.72S93.51,589.35,93.51,584Z"/><path class="cls-41" d="M109.87,667.58"/><path class="cls-7" d="M50.32,634.49A31.91,31.91,0,0,0,45.67,633c-.65.05-3.41.7-3.92.64s-3.58-1.15-3.63-.76,0,1.88,0,1.88L40.56,636l3.18.06-3.94,3s-5.92,3-6.31,3.09.23,1.92.23,1.92l7.49-3.21-7,5.49,1.3,1.66L43,642.15l-6.4,7.12,1.9,1,5.89-6.14-3.15,5.62s1.72.86,2,.43,3.68-5.1,3.68-5.1l6-4.95.3-2Z"/><path class="cls-7" d="M135.21,598.31c-.13,8.3-5.66,7.17-8,9.14-2.72,2.33-1.78,10.82-3.71,13.84-.53.83-2.46,2.18-3.42,2-2.7-.62-5.19-6.64-7.51-8.16-1.37-.89-5.1-.78-6.53,0-2.43,1.34-4.81,7.54-7.52,8.16-1,.22-2.88-1.13-3.41-2-1.93-3-1-11.51-3.72-13.84-2.3-2-7.84-.84-8-9.14-.09-5.75,7.57-8.08,7.57-8.08l8.68-4.3a6.77,6.77,0,0,0,1.53-1,5.9,5.9,0,0,0,.5-.5l.13-.15h0a7,7,0,0,0,1.62-4.46v-1.59h11.59v2.31h0c0,.15,0,.29,0,.43a6.55,6.55,0,0,0,.2,1,6.14,6.14,0,0,0,3.18,3.81l8.76,4.34a5.79,5.79,0,0,0,.68.29C129.41,590.85,135.29,593.26,135.21,598.31Z"/><polygon class="cls-7" points="115.25 588.62 109.3 595.64 106.1 591.82 103.42 588.62 103.58 579.63 103.58 579.15 103.6 578.18 115.06 578.18 115.06 578.23 115.08 579.24 115.08 579.24 115.09 579.58 115.1 580.49 115.1 580.5 115.11 580.77 115.13 582.24 115.25 588.62"/><path class="cls-8" d="M115.35,582l-.22.27c-1.11,1.37-6.23,7.57-9,9.58-.69.49-1.24.73-1.56.58-1.46-.7-3.2-7.59-3.2-7.59h0a4.81,4.81,0,0,0,.38-.41l.22-.28,0,0a8.6,8.6,0,0,0,1.44-3.28s0-.09,0-.14a10.32,10.32,0,0,0,.15-1c0-.15,0-.31,0-.48s0-.63.06-1h11.39v2.43l0,.16,0,.15.2,1Z"/><path class="cls-1" d="M124.39,633.44a50.91,50.91,0,0,1-1.22-7.31c0-2,.87-6,.39-7.93-2.11-8.56-26.7-8.57-28.82,0-.48,1.94.38,5.94.39,7.93a51.06,51.06,0,0,1-1.21,7.31c-2.39,10.88,15.2,15.86,15.2,15.86S126.77,644.32,124.39,633.44Z"/><path class="cls-7" d="M84.29,621.64c-2.1-3.24-7-1.8-8.76-1.18a48,48,0,0,0-6.6,3.61c-4.1,2.52-16.33,10.35-20.83,11.7-3.16.94,1.62,5.39,1.62,5.39a44.61,44.61,0,0,1,5.55-2.72c4.62-1.64,11.26-2.5,19-4.94a31.71,31.71,0,0,0,7.54-4C86.44,625.91,84.9,622.59,84.29,621.64Z"/><path class="cls-7" d="M168.93,634.49a31.91,31.91,0,0,1,4.65-1.47c.66.05,3.41.7,3.92.64s3.58-1.15,3.63-.76,0,1.88,0,1.88L178.7,636l-3.19.06,3.94,3s5.92,3,6.32,3.09-.23,1.92-.23,1.92l-7.5-3.21,7,5.49-1.3,1.66-7.42-5.83,6.4,7.12-1.91,1-5.89-6.14,3.15,5.62s-1.72.86-2,.43-3.67-5.1-3.67-5.1l-6-4.95-.31-2Z"/><path class="cls-7" d="M135,621.64c2.1-3.24,7-1.8,8.75-1.18a48.13,48.13,0,0,1,6.61,3.61c4.09,2.52,16.32,10.35,20.83,11.7,3.15.94-1.63,5.39-1.63,5.39a43.85,43.85,0,0,0-5.55-2.72c-4.62-1.64-11.26-2.5-19-4.94a31.33,31.33,0,0,1-7.54-4C132.82,625.91,134.36,622.59,135,621.64Z"/><polygon class="cls-14" points="91.97 643.35 92.29 638.49 125.8 638.49 126.24 642.7 91.97 643.35"/><polyline class="cls-42" points="107.72 643.03 110.97 643.03 110.75 650.01"/><polygon class="cls-40" points="60.7 627.96 62.52 640.29 73.47 636.22 85.62 629.4 89.03 621.5 90.13 630.45 89.35 637.79 91.29 649.76 127.15 649.76 129.52 638.94 129.52 629.88 128.88 621.77 135.38 632.03 137.5 633.11 156.66 640.81 161.93 630.33 146.58 620.92 135.21 593.83 121.93 586.91 110.58 592.2 99.2 585.79 83.95 592.45 81.89 596.25 74.17 619.44 60.7 627.96"/><path class="cls-43" d="M94.61,588.35s9.81,9.13,14.54,10.14c0,0-5.69,3.34-10,1.09S90.84,589.43,91,589.35,94.61,588.35,94.61,588.35Z"/><path class="cls-40" d="M62.74,627.4c-.22,0-7.39,4.35-7.39,4.35s.87,7.08,1.08,7.13a54.93,54.93,0,0,0,7-1.34C63.75,637.25,62.74,627.4,62.74,627.4Z"/><path class="cls-40" d="M159.74,630c.22,0,6.35,2.75,6.36,3.11s-2.52,6.16-2.52,6.16L153.23,637Z"/><rect class="cls-43" x="90.43" y="642.36" width="38.39" height="9.39"/><path class="cls-44" d="M356.38,578.87c0-6.06,8.05-3,17.95-3s17.92-3,17.92,3-9.14,12.06-19.05,12.06S356.38,584.94,356.38,578.87Z"/><path class="cls-7" d="M306.14,589.35,302.43,586l-6.18-3.09a4.34,4.34,0,0,0-.24,1.7c.53,1.24,2.33,2.41,3.41,3.21a2,2,0,0,1,.39,1c-.25.69-1.79.54-1.79.54l4.59,2Z"/><path class="cls-7" d="M304.52,589.29l-1.22,5-10.91-1.7-10.15-5.84s1.09-1.21,1.6-1.31c2.64-.54,7.71,2.41,10.32,3.06C297,589.22,304.52,589.29,304.52,589.29Z"/><ellipse class="cls-45" cx="304.12" cy="591.51" rx="2.96" ry="2.94" transform="matrix(0.58, -0.81, 0.81, 0.58, -353.86, 494.39)"/><path class="cls-7" d="M403.08,595.38c-.14,9.34-6.37,8.07-9,10.29-3.06,2.61-2,12.16-4.18,15.56-.59.93-2.76,2.46-3.84,2.21-3-.7-5.84-7.47-8.45-9.18-1.54-1-5.74-.88-7.35,0-2.73,1.5-5.41,8.48-8.45,9.18-1.08.25-3.25-1.28-3.84-2.21-2.17-3.4-1.12-13-4.18-15.56-2.59-2.22-8.82-.95-9-10.29-.1-6.46,8.51-9.08,8.51-9.08l9.77-4.84a7.57,7.57,0,0,0,1.72-1.17,7.4,7.4,0,0,0,.56-.56l.15-.17v0a7.62,7.62,0,0,0,1.76-4,8.72,8.72,0,0,0,.06-1v-1.79h13v2.36a1.93,1.93,0,0,0,0,.24h0a3.73,3.73,0,0,0,0,.47,6.81,6.81,0,0,0,.22,1.11,6.92,6.92,0,0,0,3.58,4.28l9.85,4.89a7.35,7.35,0,0,0,.77.32C396.55,587,403.17,589.71,403.08,595.38Z"/><polygon class="cls-7" points="380.48 584.48 373.79 592.39 370.19 588.08 367.18 584.48 367.35 574.38 367.36 573.84 367.38 572.74 380.27 572.74 380.27 572.8 380.29 573.93 380.29 573.94 380.3 574.32 380.32 575.34 380.32 575.35 380.32 575.66 380.35 577.31 380.48 584.48"/><path class="cls-8" d="M380.6,577l-.25.3c-1.25,1.54-7,8.52-10.16,10.77-.78.56-1.4.83-1.75.66-1.65-.79-3.61-8.54-3.61-8.54h0a5,5,0,0,0,.42-.46c.08-.09.16-.2.25-.32l0,0a9.5,9.5,0,0,0,1.62-3.69l0-.15c.06-.33.12-.73.16-1.17,0-.18,0-.36,0-.54,0-.35.05-.72.07-1.1h12.8v2.73l0,.19,0,.16.22,1.11Z"/><path class="cls-1" d="M390.76,634.9a56.51,56.51,0,0,1-1.37-8.23c0-2.23,1-6.73.44-8.91-2.38-9.63-30-9.64-32.42,0-.54,2.18.42,6.68.44,8.91a56.51,56.51,0,0,1-1.37,8.23c-2.68,12.24,17.11,17.84,17.11,17.84S393.44,647.14,390.76,634.9Z"/><path class="cls-7" d="M334.12,620.84c2.67-3.43-.69-8.1-2-9.73a52.89,52.89,0,0,0-6.29-5.67c-4.19-3.42-16.59-11.8-19.69-16.09-2.17-3-5.59,2-5.59,2a50.12,50.12,0,0,1,5,4.88c3.46,4.3,6.83,11,12.3,18.33a36.08,36.08,0,0,0,7,6.54C330.39,624.71,333.35,621.84,334.12,620.84Z"/><path class="cls-7" d="M359.05,597.09c-2.08,6.4-8.64,10.64-8.64,10.64s-11.72,9.58-15.58,12.84c-1.82,1.53-5.56,4.79-9.51.36h0c-3.26-3.65-.28-7.41,1.31-9,3.24-3.33,10.51-9.39,13.1-13.19,1.93-2.83,3.8-7.94,9.25-10.1a7.27,7.27,0,0,1,7.92,1l.14.12a7,7,0,0,1,2,7.38Z"/><path class="cls-7" d="M389,594.67c-.3,6.72,4.35,13,4.35,13s7.62,13.09,10.09,17.49c1.16,2.07,3.52,6.44,8.77,3.68h0c4.34-2.28,2.87-6.84,1.95-8.93-1.87-4.26-6.55-12.49-7.64-16.95-.81-3.32-.77-8.77-5.12-12.7a7.26,7.26,0,0,0-7.76-1.86l-.18.07a7,7,0,0,0-4.46,6.2Z"/><path class="cls-1" d="M390.89,634.74a56.51,56.51,0,0,1-1.37-8.23c0-2.23,1-6.73.44-8.91-2.37-9.62-30-9.64-32.42,0-.54,2.18.43,6.68.44,8.91a56.51,56.51,0,0,1-1.37,8.23c-2.68,12.24,17.11,17.84,17.11,17.84S393.57,647,390.89,634.74Z"/><polygon class="cls-14" points="354.65 645.68 355.01 640.2 392.7 640.2 393.19 644.95 354.65 645.68"/><polygon class="cls-42" points="373.58 655.05 372.37 645.32 376.01 645.32 375.77 653.17 373.58 655.05"/><path class="cls-44" d="M350.69,585.11c-.62,1.18,2.33,20.28,2.33,20.28l-4,42.13,3.77,4,0,6.58h41.37l-.16-5.61,2.56-5.52-3.86-39.6,3.62-22-12.17-4.18-7.57,9.17-6.55-.53-5.33-9.56Z"/><path class="cls-7" d="M413.89,625.57c.68-4.19-3.95-7.38-5.67-8.45a50.22,50.22,0,0,0-7.38-3.1c-4.77-1.71-12.87-4-17.52-5.73-3.06-1.14-4.67-1.83-5.48-.09-.74,1.59,1.93,3.64,3,4.46,4.29,3.36,12.6,10,17.48,12.87a41.34,41.34,0,0,0,8.31,3.66C412.55,630.54,413.7,626.78,413.89,625.57Z"/><path class="cls-7" d="M387.63,610.33,385.07,609s-5-5.52-5.18-5.73-3.95-3.34-4.2-3.6-2.08-2.65-2.08-2.65l-1.16,2.33,1.9,2.77,2.26,2.25-5.75-1.08s-8.68-2.52-8.82-2.23-.36,2-.07,2.11,8.46,2.74,8.46,2.74S360.08,604.44,360,605s-.14,2.33.3,2.33,9.25.92,9.25.92-9.39.68-9.24,1,.71,2.05.71,2.05l9.19-.33L363.75,613s1.09,1.82,1.38,1.82,7.43-2.06,7.43-2.06,7.21.74,7.57.56c1.07-.54,3.5,1,3.5,1Z"/><path class="cls-46" d="M357.62,583.81s11,10.27,16.35,11.41c0,0-6.39,3.75-11.25,1.22s-9.34-11.41-9.13-11.5S357.62,583.81,357.62,583.81Z"/><rect class="cls-46" x="352.82" y="651.55" width="41.35" height="6.58"/></g></svg>