<svg xmlns="http://www.w3.org/2000/svg" viewBox="0 0 788 268.7"><defs><style>.cls-1{fill:#7b8254;}.cls-2{fill:#9e6754;}.cls-3{fill:#8c5c4b;}.cls-4{fill:#9baa5e;}</style></defs><g id="Calque_9" data-name="Calque 9"><rect class="cls-1" x="364.61" y="48.37" width="60.86" height="22.09"/><path class="cls-2" d="M394,153c-5.48-3.57-8-.62-13.73,2.52-9.75,5.34-15.83,23.72-26.67,26.21-3.85.89-12.68-15.07-13.71-21.32-1.53-9.32,2.52-27.51-8.39-36.85-9.24-7.91-21.45-3.68-25.46-16.3-7-22,13.45-38.48,23.4-42.34C344.61,59,366.58,59.82,373,50.69L373.9,23l.69-20.19L392.91,2h2.18l18.32.81L414.1,23l.94,27.7c6.38,9.13,28.35,8.35,43.52,14.23,9.95,3.86,30.39,20.37,23.4,42.34-4,12.62-16.22,8.39-25.46,16.3-10.91,9.34-6.86,27.53-8.39,36.85-1,6.25-9.86,22.21-13.71,21.32-10.84-2.49-16.92-20.87-26.67-26.21-5.74-3.14-8.25-6.09-13.73-2.52"/><path class="cls-3" d="M373.51,51s31.77,11.4,41.17-10.8L413.41,2.8H374.59Z"/><path class="cls-2" d="M350.41,81.15c.21,19.81-12.47,25.35-19,32.41-10.29,11.22-20.73,39.5-28.47,52.2-3.64,6-14.53,18.68-24.52,13.59h0c-12.55-7.13-5.81-23.27-2.89-29.33,5.95-12.33,25.54-66,38.76-77.1,0,0,12.85-12,25-8,7.81,2.62,11,8,11.08,16.19Z"/><path class="cls-2" d="M274.72,162.3c5.16-10.45,15.63-6.66,24.24-2.11,6.13,3.25,62.74,41,78.25,51.11,8.76,5.68,13.56,8.47,11,14.21-2.34,5.22-12.52,2.43-16.52,1.38C334,217,306,207.53,283.27,188,268.34,175.15,273,165.89,274.72,162.3Z"/><path class="cls-2" d="M438,77.73c-8.39,18,.86,28.24,3.84,37.35,4.73,14.47,2.54,44.53,4.32,59.3.85,7,5.51,23,16.7,22.51h0c14.38-1.29,14.92-18.77,14.77-25.5-.31-13.69,4.05-70.62-3.38-86.22,0,0-6.72-16.27-19.47-17.6-8.19-.85-13.33,2.76-16.78,10.16Z"/><path class="cls-2" d="M459.25,196.9c10.64,3.53,15.78-6.15,19.06-15.09,2.34-6.38,18.73-70.45,23.41-87.81,2.64-9.81,4.31-15-1.35-17.08-5.16-1.92-10.74,6.9-13,10.34-20.93,32.34-35.11,57.8-38.83,86.49C446.13,192.59,455.6,195.69,459.25,196.9Z"/><path class="cls-2" d="M505.41,47.57a81.8,81.8,0,0,0,9.77-12.87s2.3,4.38,2,7c-.28,2.14-5.49,11.23-5.49,11.23h0C536.91,38.8,557.06,31.72,560,31c2.09-.51,8,2.3,8,2.3S544,47.54,537.55,52C515.6,67,510.32,75,503.53,88.26c-1.19,2.33-15.07-.19-13-5.29.73-1.78-.46-12,1.29-14.73C498.85,57.42,505.14,47.87,505.41,47.57Z"/><path class="cls-4" d="M350.66,58.38c7.88,4.25,44.22,41.25,44.22,41.25l43.26-41.25L456.6,62s-1.76,103.72-1.9,113.51S462,254.05,462,254.05H325.41l6.09-130.49L329.33,61.7Z"/><rect class="cls-1" x="277.92" y="131.26" width="38.32" height="16.51" transform="translate(80.22 -106.84) rotate(23.49)"/><path class="cls-4" d="M329.33,61.7s-16.58,6.41-18.56,8.76-36.33,42.32-35.67,44,7.69,9.88,7.69,9.88l35.15,15.27s7.94-2.69,8.31-4,6.12,17.51,6.15,18.5,116.43-4,116.43-4l5.87-2.45L485,90.35s-13.39-19.94-14.38-20.88-14-7.45-14-7.45l-18.46-3.64-15.08-2.19s-28.18,30.52-28.18,30.52-33.95-31.9-34.08-30.52-10.14,2.19-10.14,2.19Z"/><path class="cls-1" d="M373.51,94.28c.64,1.53,21.37-7.57,21.37-7.57L364.61,48.37s-16.68,10.28-13.95,10S369.54,84.7,373.51,94.28Z"/><path class="cls-1" d="M416.25,94.28c-.64,1.53-21.37-7.57-21.37-7.57l30.27-38.34s16.68,10.28,13.94,10S420.22,84.7,416.25,94.28Z"/></g><g id="Calque_10" data-name="Calque 10"><rect class="cls-1" x="325.41" y="254.05" width="136.62" height="23.41"/></g></svg>