<?xml version="1.0" encoding="utf-8"?>
<!-- Generator: Adobe Illustrator 26.0.1, SVG Export Plug-In . SVG Version: 6.00 Build 0)  -->
<svg version="1.1" id="Calque_9" xmlns="http://www.w3.org/2000/svg" xmlns:xlink="http://www.w3.org/1999/xlink" x="0px" y="0px"
	 viewBox="0 0 388 268.7" style="enable-background:new 0 0 388 268.7;" xml:space="preserve">
<style type="text/css">
	.st0{fill:#401D26;}
	.st1{fill:#90573A;}
	.st2{fill:#583134;}
	.st3{fill:#427887;}
</style>
<path class="st0" d="M248.5,65.1c-5,4.4-11,7.7-17.4,9.7c-21.3,6.3-42.8-3.3-59.1-23.2l0.9-25.7l0.7-20.2l18.3-0.8h2.2l18.3,0.8
	l0.7,20.2l1,27.7C219.2,61,234.8,61.8,248.5,65.1z"/>
<path class="st1" d="M281,110.1c-4,12.6-29.6-8.5-38.9-0.6c-10.9,9.3,6.6,44.4,5,53.7c-1,6.2-9.9,22.2-13.7,21.3
	c-10.8-2.5-16.9-20.9-26.7-26.2c-5.7-3.1-8.2-6.1-13.7-2.5c-5.5-3.6-8-0.6-13.7,2.5c-9.8,5.4-15.8,23.7-26.7,26.2
	c-3.9,0.9-12.7-15.1-13.7-21.3c-1.5-9.3,2.5-27.5-8.4-36.9c-9.2-7.9-21.4-3.7-25.5-16.3c-7-22,13.5-38.5,23.4-42.3
	c15.2-5.9,37.1-5.1,43.5-14.2l0.1-2l0.9-25.7l0.7-20.2l18.3-0.8h2.2l18.3,0.8l0.7,20.2l1,27.7c5.2,7.4,20.7,8.3,34.5,11.5
	c3.1,0.7,6.1,1.6,9,2.7C267.5,71.6,288,88.1,281,110.1z"/>
<path class="st2" d="M172,53.5c0,0,32.3,11.7,41.7-10.5l-1.3-37.3h-38.8L172,53.5z"/>
<path class="st1" d="M157.4,89.2c-4.3,21.5-18,24.7-25.9,30.9c-12.6,9.8-29.3,38.2-39.7,50.2c-4.9,5.7-18.5,17-27.1,9.2l-3.8-2.6
	c-10.6-10.6,0.9-21.4,5.1-27.3c8.6-12,28.3-34.5,34.9-47.8c4.9-9.9,7.6-20.7,23.1-29.8c0,0,15.3-10.2,26.3-3
	C157.2,73.7,159.2,80.3,157.4,89.2L157.4,89.2z"/>
<path class="st1" d="M82.5,177.8c9.9-13.6,2.2-17.7-0.8-23.2c-3.2-6-46.6-56.1-58-69.9c-6.5-7.8-9.7-12.2-14.7-8.8
	C4.5,79,8.5,88.6,10,92.4c3.3,8.4,44.2,75.8,48,81.7C65.9,186.6,79.6,181.9,82.5,177.8z"/>
<path class="st1" d="M-1.2,53.1c-8.2-2.6-20-7.3-20-7.3s7.8,7.4,9.2,9.4c1.2,1.6,3.1,4.8,3.1,4.8l3.8,7.6c-5.5,0.8-7.5,2-14.1,2.5
	c-5.1,0.4-16.4-2.6-21.2-4.7c-2.7-1.1-6.9-5.9-9.7-6.3c-2-0.3-7.1,2.8-7.1,2.8L-46,72.1c0,0,19.6,9.8,26.3,12.4
	c7.2,2.8,22.3,6.8,29.8,7c2.4,0,7.2,0.1,9.9-4.2c2.4-3.7,0.4-8-1-10.6C16.9,72.6-0.8,53.2-1.2,53.1z"/>
<path class="st1" d="M233,90.8c4.3,21.5,18,24.7,25.9,30.9c12.6,9.8,29.3,38.2,39.7,50.2c4.9,5.7,18.5,17,27.1,9.2l0,0
	c10.7-10.6,3-23.9-1.3-29.8c-8.6-12-28.3-34.5-34.9-47.8c-4.9-9.9-7.6-20.7-23.1-29.8c0,0-15.3-10.2-26.3-3
	C233.2,75.3,231.3,81.9,233,90.8L233,90.8z"/>
<path class="st1" d="M326.5,171c-3.9-14.5-15.2-11.8-21.4-11c-6.7,0.9-68.8,24.1-85.8,29.9c-9.6,3.3-14.8,4.8-13.4,10.7
	c1.3,5.4,11.7,5,15.8,4.9c38.5-0.8,67.6-3.4,93.4-16.4C332,180.6,327.5,174.7,326.5,171z"/>
<path class="st1" d="M179.4,190.2c-7.6,4.1-19.1,9.3-19.1,9.3s5.9,4.6,8.3,4.9c2,0.2,10.5-4,10.5-4l15.1,2.6
	c-3.2,4.5-10.8,6.8-15,11.9c-3.2,3.9-13.3,10-18.1,12c-2.6,1.1-9,0.9-11.2,2.6c-1.6,1.2-2.9,7.1-2.9,7.1l15.1-0.9
	c0,0,20.6-7.2,27.2-10.3c7-3.2,20.4-11.3,25.8-16.6c1.7-1.7,5-5.1,3.9-10.1c-1-4.3-5.4-5.8-8.3-6.6C206,190.8,179.7,190,179.4,190.2
	z"/>
<path class="st3" d="M172.8,282.1c-1.6,0-38.8,9.9-40.5,0s3.3-149.4-1.8-155.7c0,0-18.4,16.3-18,15.6s-20.7-25.8-20.7-25.8
	s13.4-37.6,28.6-46.8s42.6-10.1,42.6-10.1s34.4,20,57.8-0.8c0,0,28.6,2.9,45.8,11.9s22.9,27.5,22.9,27.5s4,12.4,4,12.4
	s-26.5,24.6-26.8,22.6s-16.4-9.4-16.4-9.5s4.6,80.5,3.6,97.4s5.8,43.8-5.5,49.4S186,281.8,172.8,282.1z"/>
</svg>
