<svg id="Calque_9" data-name="Calque 9" xmlns="http://www.w3.org/2000/svg" viewBox="0 0 788 268.7"><defs><style>.cls-1{fill:#90573a;}.cls-2{fill:#6f412a;}.cls-3{fill:#dbd1c1;}.cls-4{fill:#87b6c7;}.cls-5{fill:#6999aa;}</style></defs><path class="cls-1" d="M391.07,153.81c-5.22-3.47-7.61-.61-13.07,2.45-9.29,5.18-15.08,23-25.4,25.43-3.66.86-12.06-14.62-13-20.69-1.46-9,2.39-26.69-8-35.76-8.79-7.67-20.41-3.57-24.23-15.81-6.66-21.32,12.8-37.34,22.28-41.08C344.05,62.64,365,63.4,371,54.54l.91-26.88.65-19.59L390,7.29h2.08l17.43.78.66,19.59.9,26.88c6.07,8.86,27,8.1,41.43,13.81,9.47,3.74,28.94,19.76,22.28,41.08-3.82,12.24-15.44,8.14-24.24,15.81-10.39,9.07-6.53,26.72-8,35.76-1,6.07-9.38,21.55-13.05,20.69-10.32-2.42-16.11-20.25-25.39-25.43-5.47-3.06-7.85-5.92-13.07-2.45"/><path class="cls-2" d="M371.56,54.84s30.25,11.06,39.2-10.48L409.54,8.07h-37Z"/><path class="cls-3" d="M436.76,240.13c6.52-28,24.84-166.79,15.77-169.69-3.15-1-29,11.28-61.93,12.28-36.28,1.1-79.81-8.46-82.72,4.94-4.15,19.14,33.77,124.7,40.4,152.47,6.93,29.09,53.64,7.28,53.64,7.28S430,269.38,436.76,240.13Z"/><path class="cls-3" d="M344.13,78.13c8.38,18-.87,28.24-3.85,37.35C335.55,130,337.75,160,336,174.78c-.84,6.95-5.5,23-16.7,22.51h0c-14.37-1.29-14.91-18.77-14.76-25.5.3-13.69-4.05-70.61,3.38-86.22,0,0,6.72-16.27,19.46-17.6,8.19-.85,13.33,2.76,16.79,10.16Z"/><path class="cls-1" d="M322.89,197.3c-10.65,3.53-15.79-6.15-19.07-15.09-2.33-6.37-18.72-70.45-23.4-87.81-2.64-9.81-4.31-15,1.35-17.08,5.15-1.92,10.74,6.9,13,10.34,20.93,32.34,35.11,57.81,38.83,86.49C336,193,326.54,196.09,322.89,197.3Z"/><path class="cls-1" d="M276.73,48A82.3,82.3,0,0,1,267,35.1s-2.29,4.38-1.95,7c.28,2.13,5.49,11.22,5.49,11.22h0c-25.27-14.13-45.42-21.21-48.36-21.94-2.08-.51-7.94,2.31-7.94,2.31s23.94,14.24,30.39,18.67c22,15,27.24,23.05,34,36.29,1.2,2.33,15.08-.19,13-5.29-.72-1.78.47-12-1.29-14.73C283.29,57.82,277,48.27,276.73,48Z"/><path class="cls-3" d="M438,77.73c-8.39,18,.86,28.24,3.84,37.35,4.73,14.47,2.54,44.53,4.32,59.3.85,7,5.51,23,16.7,22.51h0c14.38-1.29,14.92-18.77,14.77-25.5-.31-13.69,4.05-70.62-3.38-86.22,0,0-6.72-16.27-19.47-17.6-8.19-.85-13.33,2.76-16.78,10.16Z"/><path class="cls-1" d="M459.25,196.9c10.64,3.53,15.78-6.15,19.06-15.09,2.34-6.38,18.73-70.45,23.41-87.81,2.64-9.81,4.31-15-1.35-17.08-5.16-1.92-10.74,6.9-13,10.34-20.93,32.34-35.11,57.8-38.83,86.49C446.13,192.59,455.6,195.69,459.25,196.9Z"/><path class="cls-1" d="M505.41,47.57a81.8,81.8,0,0,0,9.77-12.87s2.3,4.38,2,7c-.28,2.14-5.49,11.23-5.49,11.23h0C536.91,38.8,557.06,31.72,560,31c2.09-.51,8,2.3,8,2.3S544,47.54,537.55,52C515.6,67,510.32,75,503.53,88.26c-1.19,2.33-15.07-.19-13-5.29.73-1.78-.46-12,1.29-14.73C498.85,57.42,505.14,47.87,505.41,47.57Z"/><polyline class="cls-4" points="338.11 61.5 351.58 125.15 338.31 211.84 328.46 254.68 328.46 276.15 457.92 271.63 457.92 254.04 447.59 218.44 428.91 122.32 439.15 61.49 426.45 57.68 415.58 122.32 365.6 122.32 352.51 57.55"/><polygon class="cls-5" points="447.34 270.2 337.14 265.77 354.51 195.8 431.39 195.8 447.34 270.2"/></svg>