<?xml version="1.0" encoding="utf-8"?>
<!-- Generator: Adobe Illustrator 26.0.1, SVG Export Plug-In . SVG Version: 6.00 Build 0)  -->
<svg version="1.1" id="Calque_1" xmlns="http://www.w3.org/2000/svg" xmlns:xlink="http://www.w3.org/1999/xlink" x="0px" y="0px"
	 viewBox="0 0 388 268.7" style="enable-background:new 0 0 388 268.7;" xml:space="preserve">
<style type="text/css">
	.st0{fill:#7B8254;}
	.st1{fill:#9E6754;}
	.st2{fill:#8C5C4B;}
	.st3{fill:#9BAA5E;}
</style>
<g id="Calque_9">
	<rect x="164.6" y="48.4" class="st0" width="60.9" height="22.1"/>
	<path class="st1" d="M194,153c-5.5-3.6-8-0.6-13.7,2.5c-9.8,5.3-15.8,23.7-26.7,26.2c-3.9,0.9-12.7-15.1-13.7-21.3
		c-1.5-9.3,2.5-27.5-8.4-36.8c-9.2-7.9-21.5-3.7-25.5-16.3c-7-22,13.5-38.5,23.4-42.3c15.2-5.9,37.1-5.1,43.6-14.2l0.9-27.7
		l0.7-20.2L192.9,2h2.2l18.3,0.8l0.7,20.2l0.9,27.7c6.4,9.1,28.4,8.4,43.5,14.2c10,3.9,30.4,20.4,23.4,42.3
		c-4,12.6-16.2,8.4-25.5,16.3c-10.9,9.3-6.9,27.5-8.4,36.9c-1,6.2-9.9,22.2-13.7,21.3c-10.8-2.5-16.9-20.9-26.7-26.2
		C202,152.4,199.5,149.4,194,153"/>
	<path class="st2" d="M173.5,51c0,0,31.8,11.4,41.2-10.8l-1.3-37.4h-38.8L173.5,51z"/>
	<path class="st1" d="M150.4,81.2c0.2,19.8-12.5,25.3-19,32.4c-10.3,11.2-20.7,39.5-28.5,52.2c-3.6,6-14.5,18.7-24.5,13.6l0,0
		c-12.5-7.1-5.8-23.3-2.9-29.3c6-12.3,25.5-66,38.8-77.1c0,0,12.9-12,25-8C147.1,67.5,150.3,72.9,150.4,81.2L150.4,81.2z"/>
	<path class="st1" d="M74.7,162.3c5.2-10.4,15.6-6.7,24.2-2.1c6.1,3.2,62.7,41,78.2,51.1c8.8,5.7,13.6,8.5,11,14.2
		c-2.3,5.2-12.5,2.4-16.5,1.4C134,217,106,207.5,83.3,188C68.3,175.1,73,165.9,74.7,162.3z"/>
	<path class="st1" d="M238,77.7c-8.4,18,0.9,28.2,3.8,37.3c4.7,14.5,2.5,44.5,4.3,59.3c0.9,7,5.5,23,16.7,22.5l0,0
		c14.4-1.3,14.9-18.8,14.8-25.5c-0.3-13.7,4-70.6-3.4-86.2c0,0-6.7-16.3-19.5-17.6C246.6,66.7,241.5,70.3,238,77.7z"/>
	<path class="st1" d="M259.2,196.9c10.6,3.5,15.8-6.1,19.1-15.1c2.3-6.4,18.7-70.4,23.4-87.8c2.6-9.8,4.3-15-1.4-17.1
		c-5.2-1.9-10.7,6.9-13,10.3c-20.9,32.3-35.1,57.8-38.8,86.5C246.1,192.6,255.6,195.7,259.2,196.9z"/>
	<path class="st1" d="M305.4,47.6c3.7-4,6.9-8.3,9.8-12.9c0,0,2.3,4.4,2,7c-0.3,2.1-5.5,11.2-5.5,11.2l0,0
		C336.9,38.8,357.1,31.7,360,31c2.1-0.5,8,2.3,8,2.3S344,47.5,337.5,52c-22,15-27.2,23-34,36.3c-1.2,2.3-15.1-0.2-13-5.3
		c0.7-1.8-0.5-12,1.3-14.7C298.9,57.4,305.1,47.9,305.4,47.6z"/>
	<path class="st3" d="M150.7,58.4c7.9,4.2,44.2,41.3,44.2,41.3l43.3-41.2l18.5,3.6c0,0-1.8,103.7-1.9,113.5s7.3,78.5,7.3,78.5H125.4
		l6.1-130.5l-2.2-61.9L150.7,58.4z"/>
	
		<rect x="88.8" y="120.4" transform="matrix(0.3986 -0.9171 0.9171 0.3986 -69.5836 172.9399)" class="st0" width="16.5" height="38.3"/>
	<path class="st3" d="M129.3,61.7c0,0-16.6,6.4-18.6,8.8s-36.3,42.3-35.7,44s7.7,9.9,7.7,9.9l35.1,15.3c0,0,7.9-2.7,8.3-4
		s6.1,17.5,6.1,18.5s116.4-4,116.4-4l5.9-2.4L285,90.3c0,0-13.4-19.9-14.4-20.9s-14-7.5-14-7.5l-18.5-3.6l-15.1-2.2l-28.2,30.5
		c0,0-34-31.9-34.1-30.5s-10.1,2.2-10.1,2.2L129.3,61.7z"/>
	<path class="st0" d="M173.5,94.3c0.6,1.5,21.4-7.6,21.4-7.6l-30.3-38.3c0,0-16.7,10.3-14,10S169.5,84.7,173.5,94.3z"/>
	<path class="st0" d="M216.2,94.3c-0.6,1.5-21.4-7.6-21.4-7.6l30.3-38.3c0,0,16.7,10.3,13.9,10S220.2,84.7,216.2,94.3z"/>
</g>
<g id="Calque_10">
	<rect x="125.4" y="254.1" class="st0" width="136.6" height="23.4"/>
</g>
</svg>
