<?xml version="1.0" encoding="utf-8"?>
<!-- Generator: Adobe Illustrator 26.0.3, SVG Export Plug-In . SVG Version: 6.00 Build 0)  -->
<svg version="1.1" id="Layer_1" xmlns="http://www.w3.org/2000/svg" xmlns:xlink="http://www.w3.org/1999/xlink" x="0px" y="0px"
	 viewBox="0 0 288 561.6" style="enable-background:new 0 0 288 561.6;" xml:space="preserve">
<style type="text/css">
	.st0{fill:#161615;}
	.st1{fill:#E0B9A0;}
	.st2{fill:#5A5A5A;}
</style>
<g id="Calque_1_00000175317168265348846140000015645351625176529540_">
	<path class="st0" d="M155.9,84.1c-23.3,2.5-46.2,14.7-71.5,23c0,0-11.5,0.5-10.8-0.1L4.8,61.5L8.7,32c1.1-10.7,10.1-18.8,20.8-18.8
		h99.9c11,0,20.1,8.5,20.8,19.4L155.9,84.1z"/>
</g>
<polygon class="st1" points="62.7,515.6 43.3,513.9 35.8,454.1 60.2,446.2 "/>
<path class="st2" d="M49.2,498.1l-6.3-1.8c-1,0.4-2.5,5.6-2.8,6.8l-9.6,27.4c-1.1,3.2-0.4,6.7,1.9,9.2c4.7,5.3,13.2,13.4,19.6,12.8
	c1.7-0.2,22.2-6.8,22.9-15.6l0,0c0-0.7-4.6-14.5-4.6-14.5c-0.2-0.2-3-15-8.3-27.9l-3.6-2.8c-0.6-0.5-1.9,5.7-2.7,5.7l-5.8,0.4
	C49.7,497.9,49.4,498,49.2,498.1z"/>
<path class="st0" d="M4.1,95.2c0.2,2.6,13.7,168.5,13.2,171.2c-0.3,1.5-1.3,21.3-2.1,39.2c-0.9,18.9,0.3,37.9,3.5,56.6l18.7,108.7
	l23.4-4.5c0,0,5.8-121.7,5.6-123.7s-2.9-46.8-3.8-48.7s13.5-190.1,13.5-190.1l-5.5-71.5l-41.2,2.9c-13.6,1-24.3,13.2-24.6,28.3
	L4.1,95.2z"/>
<path class="st1" d="M61.7,486.8c0.5,7.1,9.4,34.2-7.5,38.2c-6.9,1.7-14.9-2.3-16-9.3c-1.2-7.3,3-17.2,5-26.1
	C44.6,482.6,61.1,479.7,61.7,486.8z"/>
<polygon class="st1" points="184.4,515 208.2,510.3 201.3,449 176.5,452.1 "/>
<path class="st2" d="M202.5,513.3l3.2-6.6l42.4,26.8c0,0,19.5,11.3,16.6,19.8c-1.2,3.4-23.4,6.3-30.8,5.4
	c-13.1-1.6-18.8-16-42.4-19.2c-4.1-0.6-10-7.3-9.5-13.4l1.1-17l7.1,1.2L202.5,513.3z"/>
<path class="st0" d="M153.9,71.9c1.8,8.1,3.2,16.3,4.2,24.5c4.8,39.1,19.2,157.4,20.1,159.6c0.6,1.4,5.7,21.5,10.2,39.2
	c4.5,18,7.5,36.4,8.8,54.9l8.5,122l-27.8,3.5c0,0-32.1-132.2-32.4-134.2s-6.6-46.9-6.1-48.9S87.9,107.2,87.9,107.2l-8.5-67.9
	l41.2-5.5c13.6-1.8,26.5,8,29.8,22.8L153.9,71.9z"/>
<path class="st1" d="M204,495l-21,14c8.3,3.9,32.5,31.8,54.3,28.6c16-2.3,1.2-10.7,0.8-10.4S216.4,515,211,508.8
	C208.4,505.9,204,495,204,495z"/>
<circle class="st0" cx="51.2" cy="527.9" r="8.7"/>
<circle class="st0" cx="243.6" cy="532.9" r="8.1"/>
</svg>
