<?xml version="1.0" encoding="utf-8"?>
<!-- Generator: Adobe Illustrator 26.0.3, SVG Export Plug-In . SVG Version: 6.00 Build 0)  -->
<svg version="1.1" id="Calque_1" xmlns="http://www.w3.org/2000/svg" xmlns:xlink="http://www.w3.org/1999/xlink" x="0px" y="0px"
	 viewBox="0 0 288 561.6" style="enable-background:new 0 0 288 561.6;" xml:space="preserve">
<style type="text/css">
	.st0{fill:#BC3737;}
	.st1{fill:#E0B9A0;}
	.st2{fill:#EAD3D3;}
</style>
<path class="st0" d="M219.8,96.6c-23.3,2.5-44.5,10-69.8,18.3c0,0-11.5,0.5-10.8-0.1L68.4,98.2l5.9-58.4C75.4,29.1,84.4,21,95.1,21
	H195c11,0,20.1,8.5,20.8,19.4L219.8,96.6z"/>
<rect x="72.2" y="460.8" class="st1" width="22.1" height="63.4"/>
<path class="st2" d="M82.9,507.2l-8.6,2c-1.3,0.3-2.3,1.2-2.7,2.5l-6.1,18.1c-0.1,0.4-0.2,0.8-0.2,1.2v5c0,0.7-0.2,1.3-0.5,1.9
	l-6.1,10.5c-0.9,1.6-0.5,3.7,1,4.9c1.5,1.1,3.3,2.2,4.5,1.8c2-0.7,35.1-1.5,46.4-1.7c2.1,0,3.7-1.7,3.7-3.8l0,0c0-0.7-0.2-1.4-0.6-2
	l-7.9-12.8c-0.2-0.3-0.3-0.5-0.4-0.8l-6.5-20.5c-0.2-0.7-0.6-1.3-1.2-1.8l-4.5-3.7c-0.7-0.6-1.5-0.9-2.4-0.9h-7
	C83.4,507.1,83.2,507.1,82.9,507.2z"/>
<rect x="193.7" y="464.3" class="st1" width="22.1" height="63.4"/>
<path class="st2" d="M204.7,510.5l9,2.1c1.3,0.3,2.3,1.2,2.7,2.5l6.1,18.1c0.1,0.4,0.2,0.8,0.2,1.2v4.9c0,0.7,0.2,1.3,0.5,1.9
	l6.1,10.5c1,1.6,0.6,3.8-1,4.9c-1.5,1.1-3.3,2.2-4.5,1.8c-1.9-0.7-35.1-1.5-46.4-1.7c-2.1,0-3.7-1.7-3.7-3.8l0,0
	c0-0.7,0.2-1.4,0.6-2l7.9-12.9c0.2-0.3,0.3-0.5,0.4-0.8l6.5-20.5c0.2-0.7,0.6-1.3,1.2-1.8l4.5-3.7c0.7-0.6,1.5-0.9,2.4-0.9h7.3v0.2
	H204.7z"/>
<path class="st0" d="M68.2,100.6c0,2.6,0.7,169.1,0,171.7s-8.6,64.7-8.6,67.4s12.9,138,12.9,138l23.7-2.6c0,0,15.1-120.9,15.1-122.9
	s0.7-46.9,0-48.9s28-188.5,28-188.5V43.1L98,42.8c-13.7-0.1-25.2,11.3-26.7,26.3L68.2,100.6z"/>
<path class="st0" d="M219.8,96.6c0,2.7-0.7,170.6,0,173.3s8.6,65.3,8.6,68s-12.9,139.3-12.9,139.3l-23.7-2.7c0,0-15.1-122-15.1-124
	s-0.7-47.3,0-49.3s-28-190.2-28-190.2V42.6l41.6-0.3c13.7-0.1,25.3,11.3,26.8,26.3L219.8,96.6z"/>
</svg>
