<?xml version="1.0" encoding="utf-8"?>
<!-- Generator: Adobe Illustrator 26.0.3, SVG Export Plug-In . SVG Version: 6.00 Build 0)  -->
<svg version="1.1" id="Calque_1" xmlns="http://www.w3.org/2000/svg" xmlns:xlink="http://www.w3.org/1999/xlink" x="0px" y="0px"
	 viewBox="0 0 788 1005" style="enable-background:new 0 0 788 1005;" xml:space="preserve">
<style type="text/css">
	.st0{fill:#353535;}
	.st1{fill:#E0B9A0;}
	.st2{fill:#CCAA97;}
	.st3{fill:#423522;}
</style>
<path class="st0" d="M358.4,98.8L335,81c-1.2-0.9-2.8-0.7-3.7,0.4l-3,3.7c-1,1.2-0.7,3.1,0.7,4l24.1,15.1l0.3-7.2l-18.7,11.8
	c-1.3,0.9-1.7,2.8-0.6,4l2.9,3.5c0.9,1.1,2.5,1.3,3.6,0.5l20.8-14.5L358.4,98.8z"/>
<path class="st1" d="M359.6,121.3l-2.4-1.6c-1.6-1-3.7-0.9-5.1,0.3l-0.6,0.5c-1,0.9-1.6,2.2-1.5,3.5l0.8,10.9c0.1,0.7,0.3,1.4,0.7,2
	c1.4,2.2,4.9,7.6,5.4,8.3c0.1,0.2,0.3,0.3,0.6,0.5c2.4,1.2,5.3-0.3,5.9-2.9l2.2-9.2c0.2-1,0.1-2-0.4-2.9l-4.1-7.9
	C360.7,122.3,360.2,121.7,359.6,121.3z"/>
<path class="st1" d="M430,121.3l3-1.7c1.7-1,3.9-0.6,5.2,0.8l0.1,0.2c0.8,0.9,1.2,2,1.1,3.1l-0.8,11.2c-0.1,0.7-0.3,1.4-0.7,2
	c-1.4,2.2-4.9,7.6-5.4,8.3c-0.1,0.2-0.3,0.3-0.6,0.5c-2.4,1.2-5.3-0.3-5.9-2.9l-2.2-9.2c-0.2-1-0.1-2,0.4-2.9l4-7.7
	C428.7,122.3,429.3,121.7,430,121.3z"/>
<path class="st1" d="M432.1,100.1c-1.4-6.8-5-12.9-10.4-17.2l-4.2-3.5c-4.8-3.9-10.8-6.3-17-6.7l-5.6-0.3h-0.1l-5.6,0.3
	c-6.2,0.4-12.2,2.7-17,6.7l-4.3,3.5c-5.3,4.4-9,10.4-10.4,17.2c-0.5,2.5-0.9,4.5-0.9,4.6c0,0.5,2.7,14.8,2.7,14.8v8l0.2,1.1
	l3.7,25.3c0.4,2.7,1.6,5.2,3.4,7.3c0,0,12.2,11.4,16.5,14.9c1.6,1.3,10.6,2.8,11.6,3l0,0h0.1l0.9-0.2l0.6-0.1
	c2.9-0.5,8.8-1.7,10.1-2.8c4.4-3.4,16.5-14.9,16.5-14.9c1.8-2,3-4.6,3.4-7.3l3.7-25.5l0.1-0.9v-8c0,0,2.7-14.3,2.7-14.8
	C433,104.5,432.6,102.5,432.1,100.1z"/>
<path class="st2" d="M428.3,140.3l1.9-13.2c0,0,4.7-4.7,5.1-4.8s0.6,2,0.6,2l-1.1,9.4l-2.7,4.7L428.3,140.3z"/>
<path class="st2" d="M361.4,141.3l-1.9-13.2c0,0-4.7-4.7-5.1-4.8s-0.6,2-0.6,2l1.1,9.4l2.7,4.7L361.4,141.3z"/>
<circle class="st1" cx="420.4" cy="89.8" r="14.1"/>
<path class="st3" d="M368,60.6c-0.2,0.2-0.5,0.3-0.8,0.3c-2.1-0.2-10.2,0-13.5,11.5c-3.8,13-2.9,28.4-2.9,28.8l0,0
	c0.1,0.4,4.6,13,8.3,20.5c0.2,0.5,0.9,0.2,0.8-0.3c-0.7-4.2-1.7-12.1-0.4-14.6c1.8-3.3,3.4-3.4,3.9-6.3c0.5-2.8-1.4-7.2,1.3-11
	c2.7-3.8,7.5-7.4,10.9-7.4s12.9,9.3,26.3,9.7c35,2.5,35.7-22.1,32.6-21.9c-4.6,0.3-25.8-16.7-44.1-16.2
	C374.6,54.4,369.2,59.3,368,60.6z"/>
<path class="st3" d="M426.5,88.3c1.3-1,4.8-3.6,7-5.9c0.8-0.8,2-0.3,2.1,0.9c0.5,6.8-1.3,22.4-5.6,37.4c-0.1,0.5-0.9,0.3-0.8-0.2
	c0.8-5.2,1.6-12.3-0.2-15.5c-2.8-5-3-3.3-3.1-15.6C426,89,426.2,88.6,426.5,88.3z"/>
<path class="st0" d="M357.2,103l11.6-5.1c14.4-6.3,30.8-6.6,45.3-0.7l14.3,5.8c2.7,1.1,5.7,4,6.4,1.1l0.7-3.2
	c0.9-3.8-7.4-20.5-14.6-26.5c-5.1-4.2-11.2-6.8-17.5-7.7c-6.2-0.7-12.1-0.8-18.1-0.2c-5.7,0.6-11.2,2.8-15.9,6.2
	c-9,6.4-20.9,25.6-19.9,28.6l1.1,3.2C351.6,107.2,354.5,104.1,357.2,103z"/>
</svg>
