<?xml version="1.0" encoding="utf-8"?>
<!-- Generator: Adobe Illustrator 26.0.3, SVG Export Plug-In . SVG Version: 6.00 Build 0)  -->
<svg version="1.1" id="Layer_1" xmlns="http://www.w3.org/2000/svg" xmlns:xlink="http://www.w3.org/1999/xlink" x="0px" y="0px"
	 viewBox="0 0 188 167.8" style="enable-background:new 0 0 188 167.8;" xml:space="preserve">
<style type="text/css">
	.st0{fill:#E0B9A0;}
	.st1{fill:#CCAA97;}
	.st2{fill:#423522;}
</style>
<path class="st0" d="M61.9,97.5l-2.5-1.6c-1.6-1-3.8-0.9-5.2,0.3l-0.6,0.5c-1,0.9-1.6,2.3-1.5,3.6l0.8,11.2c0.1,0.7,0.3,1.4,0.7,2.1
	c1.4,2.3,5,7.8,5.6,8.5c0.1,0.2,0.3,0.3,0.6,0.5c2.5,1.2,5.4-0.3,6.1-3l2.3-9.5c0.2-1,0.1-2.1-0.4-3L63.5,99
	C63.1,98.5,62.5,97.9,61.9,97.5z"/>
<path class="st0" d="M134.3,97.5l3.1-1.7c1.7-1,4-0.6,5.3,0.8l0.1,0.2c0.8,0.9,1.2,2.1,1.1,3.2l-0.8,11.5c-0.1,0.7-0.3,1.4-0.7,2.1
	c-1.4,2.3-5,7.8-5.6,8.5c-0.1,0.2-0.3,0.3-0.6,0.5c-2.5,1.2-5.4-0.3-6.1-3l-2.3-9.5c-0.2-1-0.1-2.1,0.4-3l4.1-7.9
	C133,98.5,133.6,97.9,134.3,97.5z"/>
<path class="st0" d="M136.5,75.7c-1.4-7-5.1-13.3-10.7-17.7l-4.3-3.6c-4.9-4-11.1-6.5-17.5-6.9l-5.8-0.3h-0.1l-5.8,0.3
	c-6.4,0.4-12.5,2.8-17.5,6.9L70.5,58c-5.4,4.5-9.3,10.7-10.7,17.7c-0.5,2.6-0.9,4.6-0.9,4.7c0,0.5,2.8,15.2,2.8,15.2v8.2l0.2,1.1
	l3.8,26c0.4,2.8,1.6,5.3,3.5,7.5c0,0,12.5,11.7,17,15.3c1.6,1.3,10.9,2.9,11.9,3.1l0,0h0.1l0.9-0.2l0.6-0.1c3-0.5,9-1.7,10.4-2.9
	c4.5-3.5,17-15.3,17-15.3c1.9-2.1,3.1-4.7,3.5-7.5l3.8-26.2l0.1-0.9v-8.2c0,0,2.8-14.7,2.8-15.2C137.4,80.2,137,78.2,136.5,75.7z"/>
<path class="st1" d="M132.6,117l2-13.6c0,0,4.8-4.8,5.2-4.9c0.4-0.1,0.6,2.1,0.6,2.1l-1.1,9.7l-2.8,4.8L132.6,117z"/>
<path class="st1" d="M63.8,118.1l-2-13.6c0,0-4.8-4.8-5.2-4.9s-0.6,2.1-0.6,2.1l1.1,9.7l2.8,4.8L63.8,118.1z"/>
<circle class="st2" cx="134.8" cy="119.5" r="1.9"/>
<polygon class="st0" points="61.5,51.4 58,62.9 75,72.8 119.5,71.4 135.5,66.7 134.9,60.8 130.8,53.4 "/>
<path class="st2" d="M111.4,24.5c-1.9,7.7,3.8,8.6,9,10.6c3.2,1.2,6.3,3.3,8.6,5.8c8.7,8.9,6.7,17.5-6.6,25.9
	c0.9-2.5,1.5-4.3,2.9-7.9C105.8,75,87.2,72.2,67.6,59.1c1.4,3.1,2.4,5.1,3.4,7.5c-10.4-3.5-13.6-10.3-9.4-19.4
	c3.8-8.4,11.2-12.1,19.6-14.4C83.7,32.1,109.8,26.6,111.4,24.5z"/>
<path class="st2" d="M133.8,99.8c-1.4-10.4-3.5-20.8-4.1-31.2c-0.2-3.6,3.2-7.3,5.4-12C140.6,69.6,139.9,83.2,133.8,99.8z"/>
<path class="st2" d="M57.4,59.2c5.9,4.2,7.8,8.9,6,16.1c-2,7.5-0.7,15.4-2,25.2C56.9,85.7,52.6,72.8,57.4,59.2z"/>
<path class="st2" d="M61.4,99.3l4.7,33.2c0,0,0.8,4.3,3.3,6.8c2.6,2.5,15.2,14.8,17,15.7c1.7,0.8,9.5,3.2,12,3.2
	c2.6,0,10.7-2.1,11.9-3.2c1.2-1,17-15.7,17-15.7s2.9-3.3,3.5-7.7c0.6-4.4,3.9-28.3,3.9-28.3v-6.2l-2.8,13.1
	c-0.1,0.3-0.2,0.6-0.4,0.9l-12.9,21.7c-0.4,0.6-0.6,1.3-0.8,2.1l-1.3,7.6c-0.1,0.7-0.5,1.4-1.1,1.9l-7.4,6c-0.4,0.3-1,0.6-1.5,0.6
	l-2.1,0.2c-1.2,0.1-2.5-0.5-3.1-1.6l-1.9-3.7c-0.2-0.5-0.7-0.8-1.3-0.9h-0.2c-0.6-0.1-1.2,0.2-1.5,0.8l-1.5,3.4
	c-0.7,1.6-2.8,2.4-4.3,1.3l-6.2-3.7c-0.8-0.5-1.4-1.4-1.5-2.5l-0.5-6.8c-0.1-1-0.4-2.1-1-3.1l-14.8-22c-0.1-0.2-0.2-0.4-0.3-0.6
	L61.4,99.3z"/>
</svg>
