<?xml version="1.0" encoding="utf-8"?>
<!-- Generator: Adobe Illustrator 26.0.3, SVG Export Plug-In . SVG Version: 6.00 Build 0)  -->
<svg version="1.1" id="Layer_1" xmlns="http://www.w3.org/2000/svg" xmlns:xlink="http://www.w3.org/1999/xlink" x="0px" y="0px"
	 viewBox="0 0 188 167.8" style="enable-background:new 0 0 188 167.8;" xml:space="preserve">
<style type="text/css">
	.st0{fill:#E0B9A0;}
	.st1{fill:#CCAA97;}
</style>
<path class="st0" d="M134.9,70.3c-1.5-7.5-5.6-19.9-11.4-24.6l-4.7-4c-5.3-4.3-11.9-6.9-18.7-7.4L93.9,34h-0.1l-6.2,0.3
	c-6.8,0.4-13.4,3-18.7,7.4l-4.6,3.8c-5.9,4.8-9.9,17.3-11.3,24.7c-0.5,2.8-1,5-1,5.1c0.2,5.5,1.2,11,3,16.3v8.8l0.2,1.2l4.1,27.8
	c0.4,3,1.8,5.7,3.7,8c0,0,13.4,12.5,18.2,16.4c1.8,1.4,11.7,3.1,12.8,3.3l0,0H94l0,0l1-0.2l0.7-0.1c3.2-0.6,9.7-1.9,11.1-3.1
	c4.8-3.7,18.2-16.4,18.2-16.4c2-2.2,3.3-5.1,3.7-8l4.1-28.1l0.1-1v-8.8c0,0,3-15.7,3-16.3C135.9,75.1,135.5,72.9,134.9,70.3z"/>
<path class="st0" d="M55.4,93.6l-2.6-1.8c-1.8-1.1-4.1-1-5.6,0.3l-0.7,0.5c-1.1,1-1.8,2.4-1.7,3.8l0.9,12c0.1,0.8,0.3,1.5,0.8,2.2
	c1.5,2.4,5.4,8.4,5.9,9.1c0.1,0.2,0.3,0.3,0.7,0.6c2.6,1.3,5.8-0.3,6.5-3.2l2.4-10.1c0.2-1.1,0.1-2.2-0.4-3.2l-4.5-8.7
	C56.6,94.7,56.1,94.1,55.4,93.6z"/>
<path class="st0" d="M132.9,93.6l3.3-1.9c1.9-1.1,4.3-0.7,5.7,0.9l0.1,0.2c0.9,1,1.3,2.2,1.2,3.4l-0.9,12.3
	c-0.1,0.8-0.3,1.5-0.8,2.2c-1.5,2.4-5.4,8.4-5.9,9.1c-0.1,0.2-0.3,0.3-0.7,0.6c-2.6,1.3-5.8-0.3-6.5-3.2l-2.4-10.1
	c-0.2-1.1-0.1-2.2,0.4-3.2l4.4-8.5C131.4,94.7,132.1,94.1,132.9,93.6z"/>
<path class="st0" d="M135.2,70.3c-1.5-7.5-5.5-14.2-11.4-18.9l-4.6-3.8c-5.3-4.3-11.9-6.9-18.7-7.4l-6.2-0.3h-0.1L88,40.2
	c-6.8,0.4-13.4,3-18.7,7.4l-4.7,3.8c-5.8,4.8-9.9,11.4-11.4,18.9c-0.5,2.8-1,5-1,5.1c0,0.5,3,16.3,3,16.3v8.8l0.2,1.2l4.1,27.8
	c0.4,3,1.8,5.7,3.7,8c0,0,13.4,12.5,18.1,16.4c1.8,1.4,11.7,3.1,12.8,3.3l0,0h0.1l1-0.2l0.7-0.1c3.2-0.6,9.7-1.9,11.1-3.1
	c4.8-3.7,18.2-16.4,18.2-16.4c2-2.2,3.3-5.1,3.7-8l4.1-28.1l0.1-1v-8.8c0,0,3-15.7,3-16.3C136.2,75.1,135.7,72.9,135.2,70.3z"/>
<path class="st1" d="M131,114.5l2.1-14.5c0,0,5.2-5.2,5.6-5.3c0.4-0.1,0.7,2.2,0.7,2.2l-1.2,10.3l-3,5.2L131,114.5z"/>
<path class="st1" d="M57.4,115.6l-2.1-14.5c0,0-5.2-5.2-5.6-5.3C49.3,95.7,49,98,49,98l1.2,10.3l3,5.2L57.4,115.6z"/>
</svg>
