<?xml version="1.0" encoding="utf-8"?>
<!-- Generator: Adobe Illustrator 26.0.3, SVG Export Plug-In . SVG Version: 6.00 Build 0)  -->
<svg version="1.1" id="Calque_1" xmlns="http://www.w3.org/2000/svg" xmlns:xlink="http://www.w3.org/1999/xlink" x="0px" y="0px"
	 viewBox="0 0 788 1005" style="enable-background:new 0 0 788 1005;" xml:space="preserve">
<style type="text/css">
	.st0{fill:none;stroke:#2E858E;stroke-width:3;stroke-miterlimit:10;}
	.st1{fill:#E0B9A0;}
	.st2{fill:#CCAA97;}
	.st3{fill:#423522;}
	.st4{fill:#2E858E;}
</style>
<path class="st0" d="M345.7,115.5c-1-3.1-1.5-6.4-1.5-9.7c0-21.7,22.4-39.4,50-39.4s50,17.6,50,39.4c0,3.5-0.6,6.8-1.7,10.1"/>
<g>
	<circle class="st1" cx="421.3" cy="87.5" r="14.4"/>
	<path class="st1" d="M359.1,120l-2.5-1.6c-1.6-1-3.8-0.9-5.2,0.3l-0.6,0.5c-1,0.9-1.6,2.2-1.5,3.6l0.8,11.1c0.1,0.7,0.3,1.4,0.7,2
		c1.4,2.2,5,7.8,5.5,8.5c0.1,0.2,0.3,0.3,0.6,0.5c2.5,1.2,5.4-0.3,6-3l2.2-9.4c0.2-1,0.1-2-0.4-3l-4.2-8.1
		C360.2,121.1,359.7,120.4,359.1,120z"/>
	<path class="st1" d="M431,120l3.1-1.7c1.7-1,4-0.6,5.3,0.8l0.1,0.2c0.8,0.9,1.2,2,1.1,3.2l-0.8,11.4c-0.1,0.7-0.3,1.4-0.7,2
		c-1.4,2.2-5,7.8-5.5,8.5c-0.1,0.2-0.3,0.3-0.6,0.5c-2.5,1.2-5.4-0.3-6-3l-2.2-9.4c-0.2-1-0.1-2,0.4-3l4.1-7.9
		C429.7,121.1,430.3,120.4,431,120z"/>
	<path class="st1" d="M433.1,98.4c-1.4-6.9-5.1-13.2-10.6-17.6l-4.3-3.6c-4.9-4-11-6.4-17.4-6.8l-5.7-0.3H395l-5.7,0.3
		c-6.3,0.4-12.5,2.8-17.4,6.8l-4.4,3.6c-5.4,4.5-9.2,10.6-10.6,17.6c-0.5,2.6-0.9,4.6-0.9,4.7c0,0.5,2.8,15.1,2.8,15.1v8.2l0.2,1.1
		l3.8,25.9c0.4,2.8,1.6,5.3,3.5,7.5c0,0,12.5,11.6,16.9,15.2c1.6,1.3,10.8,2.9,11.9,3.1l0,0h0.1l0.9-0.2l0.6-0.1
		c3-0.5,9-1.7,10.3-2.9c4.5-3.5,16.9-15.2,16.9-15.2c1.8-2,3.1-4.7,3.5-7.5l3.8-26.1l0.1-0.9v-8.2c0,0,2.8-14.6,2.8-15.1
		C434.1,102.9,433.7,100.8,433.1,98.4z"/>
	<path class="st2" d="M429.3,139.4l1.9-13.5c0,0,4.8-4.8,5.2-4.9c0.4-0.1,0.6,2,0.6,2l-1.1,9.6l-2.8,4.8L429.3,139.4z"/>
	<path class="st2" d="M360.9,140.5L359,127c0,0-4.8-4.8-5.2-4.9c-0.4-0.1-0.6,2-0.6,2l1.1,9.6l2.8,4.8L360.9,140.5z"/>
	<path class="st3" d="M367.6,60.9c-0.2,0.2-0.5,0.3-0.8,0.3c-2.1-0.2-10.4,0-13.8,11.8c-3.9,13.3-3,29-3,29.4l0,0
		c0.1,0.4,4.7,13.3,8.5,20.9c0.2,0.5,0.9,0.2,0.8-0.3c-0.7-4.3-1.7-12.4-0.4-14.9c1.8-3.4,3.5-3.5,4-6.4c0.5-2.9-1.4-7.4,1.3-11.2
		c2.8-3.9,7.7-7.6,11.1-7.6c3.5,0,13.2,9.5,26.9,9.9c13.7,0.4,35.2-11.8,35.2-19.8c0-5-1.3-8.3-2.4-10c-0.4-0.7-1.4-0.6-1.7,0.1
		c-0.9,2-3,5.3-6.1,5.5c-4.7,0.3-18-15.2-36.7-14.7C374.5,54.4,369,59.4,367.6,60.9z"/>
	<path class="st3" d="M426.8,87c1.3-1,4.9-3.7,7.2-6c0.8-0.8,2-0.3,2.1,0.9c0.5,6.9-0.7,22.8-5.1,38.2c-0.1,0.5-0.9,0.4-0.8-0.1
		c0.8-5.3,1-12.6-0.8-15.9c-2.9-5.1-3.1-3.4-3.2-15.9C426.2,87.7,426.4,87.2,426.8,87z"/>
</g>
<g>
	<path class="st4" d="M359.7,147.5l-1.7,0.4c-1.8,0.4-3.6-0.8-3.9-2.6l-5.4-26.5c-0.4-1.8,0.8-3.6,2.6-3.9l1.7-0.4
		c1.8-0.4,3.6,0.8,3.9,2.6l5.4,26.5C362.7,145.3,361.5,147.1,359.7,147.5z"/>
	<path class="st4" d="M353.7,145.7l-3.5,0.7c-1.8,0.4-3.6-0.8-3.9-2.6l-4.2-20.5c-0.4-1.8,0.8-3.6,2.6-3.9l3.5-0.7L353.7,145.7z"/>
	<path class="st4" d="M343.7,113.6l2.1-1.2c0.5-0.3,1.1,0,1.2,0.5l1.5,7.3c0.1,0.4-0.2,0.8-0.5,0.9l0,0c-0.4,0.1-0.7,0-0.9-0.4
		l-3.6-6.1C343.2,114.4,343.3,113.9,343.7,113.6z"/>
</g>
<g>
	<path class="st4" d="M428.7,147.5l1.7,0.4c1.8,0.4,3.6-0.8,3.9-2.6l5.4-26.5c0.4-1.8-0.8-3.6-2.6-3.9l-1.7-0.4
		c-1.8-0.4-3.6,0.8-3.9,2.6l-5.4,26.5C425.7,145.3,426.9,147.1,428.7,147.5z"/>
	<path class="st4" d="M434.7,145.7l3.5,0.7c1.8,0.4,3.6-0.8,3.9-2.6l4.2-20.5c0.4-1.8-0.8-3.6-2.6-3.9l-3.5-0.7L434.7,145.7z"/>
	<path class="st4" d="M444.7,113.6l-2.1-1.2c-0.5-0.3-1.1,0-1.2,0.5l-1.5,7.3c-0.1,0.4,0.2,0.8,0.5,0.9l0,0c0.4,0.1,0.7,0,0.9-0.4
		l3.6-6.1C445.2,114.4,445.1,113.9,444.7,113.6z"/>
</g>
<path class="st0" d="M357.2,146.9l-14.8,11.8c-2.5,2-2,5.9,0.9,7.2l10.1,4.4"/>
<circle class="st4" cx="357.2" cy="170.3" r="5.8"/>
</svg>
