<?xml version="1.0" encoding="utf-8"?>
<!-- Generator: Adobe Illustrator 26.0.3, SVG Export Plug-In . SVG Version: 6.00 Build 0)  -->
<svg version="1.1" id="Layer_1" xmlns="http://www.w3.org/2000/svg" xmlns:xlink="http://www.w3.org/1999/xlink" x="0px" y="0px"
	 viewBox="0 0 188 167.8" style="enable-background:new 0 0 188 167.8;" xml:space="preserve">
<style type="text/css">
	.st0{fill:#E0B9A0;}
	.st1{fill:#CCAA97;}
	.st2{fill:#493A27;}
	.st3{fill:#423522;}
</style>
<path class="st0" d="M63.1,101.8l-2.4-1.6c-1.6-1-3.7-0.9-5.1,0.3L55,101c-1,0.9-1.6,2.2-1.5,3.5l0.8,10.9c0.1,0.7,0.3,1.4,0.7,2
	c1.4,2.2,4.9,7.6,5.4,8.3c0.1,0.2,0.3,0.3,0.6,0.5c2.4,1.2,5.3-0.3,5.9-2.9l2.2-9.2c0.2-1,0.1-2-0.4-2.9l-4.1-7.9
	C64.2,102.8,63.7,102.2,63.1,101.8z"/>
<path class="st0" d="M133.5,101.8l3-1.7c1.7-1,3.9-0.6,5.2,0.8l0.1,0.2c0.8,0.9,1.2,2,1.1,3.1l-0.8,11.2c-0.1,0.7-0.3,1.4-0.7,2
	c-1.4,2.2-4.9,7.6-5.4,8.3c-0.1,0.2-0.3,0.3-0.6,0.5c-2.4,1.2-5.3-0.3-5.9-2.9l-2.2-9.2c-0.2-1-0.1-2,0.4-2.9l4-7.7
	C132.2,102.8,132.8,102.2,133.5,101.8z"/>
<path class="st0" d="M135.6,80.6c-1.4-6.8-5-12.9-10.4-17.2l-4.2-3.5c-4.8-3.9-10.8-6.3-17-6.7l-5.6-0.3h-0.1l-5.6,0.3
	c-6.2,0.4-12.2,2.7-17,6.7l-4.3,3.5c-5.3,4.4-9,10.4-10.4,17.2c-0.5,2.5-0.9,4.5-0.9,4.6c0,0.5,2.7,14.8,2.7,14.8v8l0.2,1.1
	l3.7,25.3c0.4,2.7,1.6,5.2,3.4,7.3c0,0,12.2,11.4,16.5,14.9c1.6,1.3,10.6,2.8,11.6,3l0,0h0.1l0.9-0.2l0.6-0.1
	c2.9-0.5,8.8-1.7,10.1-2.8c4.4-3.4,16.5-14.9,16.5-14.9c1.8-2,3-4.6,3.4-7.3l3.7-25.5l0.1-0.9v-8c0,0,2.7-14.3,2.7-14.8
	C136.5,85,136.1,83,135.6,80.6z"/>
<path class="st1" d="M131.8,120.8l1.9-13.2c0,0,4.7-4.7,5.1-4.8s0.6,2,0.6,2l-1.1,9.4l-2.7,4.7L131.8,120.8z"/>
<path class="st1" d="M64.9,121.8L63,108.6c0,0-4.7-4.7-5.1-4.8s-0.6,2-0.6,2l1.1,9.4l2.7,4.7L64.9,121.8z"/>
<path class="st0" d="M123.9,53.6L123.9,53.6c0.3,0.2,0.6,0.4,0.8,0.6l8.8,8.4c0.7,0.6,1.1,1.5,1.3,2.4l1.8,11.4
	c0.3,1.9-0.8,3.8-2.6,4.6l-1.1,0.4c-2.1,0.9-4.5-0.1-5.4-2.1l-9.6-20.2C116.2,55.3,120.3,51.5,123.9,53.6z"/>
<g>
	<path class="st2" d="M51.5,78.4c0,0-0.9,6.2-6.2,7.4c-0.1-0.1,16.2-0.9,22.9-5.5c8.6-5.9,8-13.1,12-18.2c4.1-5.3,12.7-6.9,15.3-2.5
		c2.5,4.4,6.3,7.1,6.3,8.5c0.1,0,3.2-2.7,4.8-6.7s4.1-11.2,4.1-11.2L96.3,44l-16.1,3.2l-14.4,10l-12.7,15L51.5,78.4z"/>
	<path class="st3" d="M62.8,94.8c-0.6-8.8,3.4-10.4,8-14.8c0.9,1.6,0.5,2.2,0.2,3.1c3.2-1,6.4-2.4,8-5c3-4.9,5.2-10.4,7.6-15.7
		c3.4-7.6,6.3,4.5,12.8,6.4c0.8-5.3,2.6-9.5,1.7-13.1c-0.9-3.5-4.4-6.4-6.7-9.4c10.9,3,13.3,8.2,10.7,22.4
		c3.4-4.2,6.8-8.4,10.4-12.7c-0.2,2.8-0.4,5.5-0.6,8.5c20.7-7.3,12.9-21.2,1.5-29.6c-4.4-3.2-9.7-5.3-14.6-7.8H89.6
		c2.4,1,4.8,2,7.3,3c-30.8-3.5-50.4,17.8-46.9,52c7.2,0.5,11.4-3.3,14.8-9.3c3.7-6.6,7.8-13,12.6-18.7c2.1-2.4,6.6-2.8,10-4.1l0.8,2
		c-9.5,2.1-13,9.8-16.5,17.3c-4.5,10-11.5,15.8-22.9,15.5c-0.7,0-1.3,0.4-3.7,1.1c13.2,3.7,14.6,12.2,19.9,19.6
		C63.8,100.6,62.8,94.8,62.8,94.8z"/>
	<path class="st3" d="M132.7,104.3c8.2-16.7,9-39.4,0.2-47.7c-0.8-0.8-3.6-1.2-4.1-0.1c-1.2,2.7-0.9,2.8-0.6,5.2
		c1.5,9.8,3.7,20.3,6,30.7C134.3,92.6,132.4,102,132.7,104.3z"/>
</g>
</svg>
