<?xml version="1.0" encoding="utf-8"?>
<!-- Generator: Adobe Illustrator 26.0.3, SVG Export Plug-In . SVG Version: 6.00 Build 0)  -->
<svg version="1.1" id="Calque_1" xmlns="http://www.w3.org/2000/svg" xmlns:xlink="http://www.w3.org/1999/xlink" x="0px" y="0px"
	 viewBox="0 0 788 1005" style="enable-background:new 0 0 788 1005;" xml:space="preserve">
<style type="text/css">
	.st0{fill:#E0B9A0;}
	.st1{fill:#CCAA97;}
	.st2{fill:#423522;}
	.st3{fill:#F78491;}
	.st4{fill:#CC3E63;}
</style>
<path class="st0" d="M359.6,121.3l-2.4-1.6c-1.6-1-3.7-0.9-5.1,0.3l-0.6,0.5c-1,0.9-1.6,2.2-1.5,3.5l0.8,10.9c0.1,0.7,0.3,1.4,0.7,2
	c1.4,2.2,4.9,7.6,5.4,8.3c0.1,0.2,0.3,0.3,0.6,0.5c2.4,1.2,5.3-0.3,5.9-2.9l2.2-9.2c0.2-1,0.1-2-0.4-2.9l-4.1-7.9
	C360.7,122.3,360.2,121.7,359.6,121.3z"/>
<path class="st0" d="M430,121.3l3-1.7c1.7-1,3.9-0.6,5.2,0.8l0.1,0.2c0.8,0.9,1.2,2,1.1,3.1l-0.8,11.2c-0.1,0.7-0.3,1.4-0.7,2
	c-1.4,2.2-4.9,7.6-5.4,8.3c-0.1,0.2-0.3,0.3-0.6,0.5c-2.4,1.2-5.3-0.3-5.9-2.9l-2.2-9.2c-0.2-1-0.1-2,0.4-2.9l4-7.7
	C428.7,122.3,429.3,121.7,430,121.3z"/>
<path class="st0" d="M432.1,100.1c-1.4-6.8-5-12.9-10.4-17.2l-4.2-3.5c-4.8-3.9-10.8-6.3-17-6.7l-5.6-0.3h-0.1l-5.6,0.3
	c-6.2,0.4-12.2,2.7-17,6.7l-4.3,3.5c-5.3,4.4-9,10.4-10.4,17.2c-0.5,2.5-0.9,4.5-0.9,4.6c0,0.5,2.7,14.8,2.7,14.8v8l0.2,1.1
	l3.7,25.3c0.4,2.7,1.6,5.2,3.4,7.3c0,0,12.2,11.4,16.5,14.9c1.6,1.3,10.6,2.8,11.6,3l0,0h0.1l0.9-0.2l0.6-0.1
	c2.9-0.5,8.8-1.7,10.1-2.8c4.4-3.4,16.5-14.9,16.5-14.9c1.8-2,3-4.6,3.4-7.3l3.7-25.5l0.1-0.9v-8c0,0,2.7-14.3,2.7-14.8
	C433,104.5,432.6,102.5,432.1,100.1z"/>
<path class="st1" d="M428.3,140.3l1.9-13.2c0,0,4.7-4.7,5.1-4.8s0.6,2,0.6,2l-1.1,9.4l-2.7,4.7L428.3,140.3z"/>
<path class="st1" d="M361.4,141.3l-1.9-13.2c0,0-4.7-4.7-5.1-4.8s-0.6,2-0.6,2l1.1,9.4l2.7,4.7L361.4,141.3z"/>
<path class="st0" d="M360.2,95.2c1.2,2.7,4.6,3.5,6.9,1.7c4.6-3.8,13-8.8,25-9.1c14.1-0.4,24.1,3.5,29.8,7.6
	c2.4,1.8,5.9,0.7,6.9-2.1l2.1-5.8c0.4-1,0.4-2.1,0-3.1l-1.6-4.1c-0.6-1.6-2-2.7-3.7-2.9l-33-3.6c-0.4,0-0.8,0-1.2,0l-29.7,5.1
	c-1.4,0.2-2.7,1.2-3.3,2.5l-1.3,2.8c-0.6,1.2-0.6,2.6,0,3.8L360.2,95.2z"/>
<path class="st2" d="M403.8,56.2c1.5-2.1,2.9-4.1,4.4-6.2c-1.8,7.5,3.7,8.4,8.8,10.3c3.1,1.2,6.1,3.2,8.4,5.6
	c8.5,8.7,6.5,17-6.4,25.2c0.9-2.4,1.5-4.2,2.8-7.7c-19,15.7-37.1,13-56.2,0.3c1.4,3,2.3,5,3.3,7.3c-10.1-3.4-13.2-10-9.1-18.9
	c3.7-8.2,10.9-11.8,19.1-14c2.6-0.7,5.2-1.1,7.8-1.7c-6.6-10.6-6.9-17.4-1.1-22.8c4.6-4.3,12.8-5,17.7-1.4c6.2,4.5,6,9.9-0.7,22.8
	C402.9,55.5,403.4,55.8,403.8,56.2z"/>
<path class="st2" d="M430,123.2c-1.4-10.1-3.4-20.2-4-30.3c-0.2-3.5,3.1-7.1,5.3-11.7C436.6,93.9,435.9,107.2,430,123.2z"/>
<path class="st2" d="M355.7,83.8c5.7,4.1,7.6,8.7,5.8,15.7c-1.9,7.3-0.7,15-1.9,24.5C355.1,109.5,351.1,97,355.7,83.8z"/>
<path class="st3" d="M403,56.6h-17.4c-0.7,0-1.3-0.6-1.3-1.3l0,0c0-0.7,0.6-1.3,1.3-1.3H403c0.7,0,1.3,0.6,1.3,1.3l0,0
	C404.2,56,403.7,56.6,403,56.6z"/>
<path class="st4" d="M402.9,54.4h-17.4c-0.7,0-1.3-0.6-1.3-1.3l0,0c0-0.7,0.6-1.3,1.3-1.3h17.4c0.7,0,1.3,0.6,1.3,1.3l0,0
	C404.2,53.8,403.6,54.4,402.9,54.4z"/>
</svg>
