<?xml version="1.0" encoding="utf-8"?>
<!-- Generator: Adobe Illustrator 26.0.3, SVG Export Plug-In . SVG Version: 6.00 Build 0)  -->
<svg version="1.1" id="Calque_1" xmlns="http://www.w3.org/2000/svg" xmlns:xlink="http://www.w3.org/1999/xlink" x="0px" y="0px"
	 viewBox="0 0 788 1005" style="enable-background:new 0 0 788 1005;" xml:space="preserve">
<style type="text/css">
	.st0{fill:#E0B9A0;}
	.st1{fill:#CCAA97;}
	.st2{fill:#CA9072;}
	.st3{fill:#423522;}
	.st4{fill:#277A9B;}
	.st5{fill:#22677C;}
</style>
<path class="st0" d="M359.6,121.3l-2.4-1.6c-1.6-1-3.7-0.9-5.1,0.3l-0.6,0.5c-1,0.9-1.6,2.2-1.5,3.5l0.8,10.9c0.1,0.7,0.3,1.4,0.7,2
	c1.4,2.2,4.9,7.6,5.4,8.3c0.1,0.2,0.3,0.3,0.6,0.5c2.4,1.2,5.3-0.3,5.9-2.9l2.2-9.2c0.2-1,0.1-2-0.4-2.9l-4.1-7.9
	C360.7,122.3,360.2,121.7,359.6,121.3z"/>
<path class="st0" d="M430,121.3l3-1.7c1.7-1,3.9-0.6,5.2,0.8l0.1,0.2c0.8,0.9,1.2,2,1.1,3.1l-0.8,11.2c-0.1,0.7-0.3,1.4-0.7,2
	c-1.4,2.2-4.9,7.6-5.4,8.3c-0.1,0.2-0.3,0.3-0.6,0.5c-2.4,1.2-5.3-0.3-5.9-2.9l-2.2-9.2c-0.2-1-0.1-2,0.4-2.9l4-7.7
	C428.7,122.3,429.3,121.7,430,121.3z"/>
<path class="st0" d="M432.1,100.1c-1.4-6.8-5-12.9-10.4-17.2l-4.2-3.5c-4.8-3.9-10.8-6.3-17-6.7l-5.6-0.3h-0.1l-5.6,0.3
	c-6.2,0.4-12.2,2.7-17,6.7l-4.3,3.5c-5.3,4.4-9,10.4-10.4,17.2c-0.5,2.5-0.9,4.5-0.9,4.6c0,0.5,2.7,14.8,2.7,14.8v8l0.2,1.1
	l3.7,25.3c0.4,2.7,1.6,5.2,3.4,7.3c0,0,12.2,11.4,16.5,14.9c1.6,1.3,10.6,2.8,11.6,3l0,0h0.1l0.9-0.2l0.6-0.1
	c2.9-0.5,8.8-1.7,10.1-2.8c4.4-3.4,16.5-14.9,16.5-14.9c1.8-2,3-4.6,3.4-7.3l3.7-25.5l0.1-0.9v-8c0,0,2.7-14.3,2.7-14.8
	C433,104.5,432.6,102.5,432.1,100.1z"/>
<path class="st1" d="M428.3,140.3l1.9-13.2c0,0,4.7-4.7,5.1-4.8s0.6,2,0.6,2l-1.1,9.4l-2.7,4.7L428.3,140.3z"/>
<path class="st1" d="M361.4,141.3l-1.9-13.2c0,0-4.7-4.7-5.1-4.8s-0.6,2-0.6,2l1.1,9.4l2.7,4.7L361.4,141.3z"/>
<path class="st2" d="M371.3,63.1l-1.2,0.2c-1.7,0.3-3.4,0.9-4.9,1.7l-0.9,0.5c-1.6,0.9-2.4,2.7-2,4.4l2.7,12.8
	c0.7,3.1,4.4,4.3,6.7,2.1l7.6-7c1.4-1.3,1.7-3.4,0.7-5l-4.6-7.7C374.6,63.6,373,62.8,371.3,63.1z"/>
<path class="st3" d="M425.9,91.3c1.3-1,4.9-3.7,7.2-6c0.8-0.8,2-0.3,2.1,0.9c0.5,6.9-0.7,22.8-5.1,38.2c-0.1,0.5-0.9,0.4-0.8-0.1
	c0.8-5.3,1-12.6-0.8-15.9c-2.9-5.1-3.1-3.4-3.2-15.9C425.3,92.1,425.5,91.5,425.9,91.3z"/>
<path class="st3" d="M363.8,93.5c-0.1,12.6-0.3,10.8-3.2,15.9c-1.8,3.3-1.7,10.5-0.8,15.9c0.1,0.5-0.7,0.7-0.8,0.1
	c-4.4-15.3-5.6-31.2-5.1-38.2c0.1-1.2,1.3-1.7,2.1-0.9c2.2,2.4,5.8,5,7.2,6C363.6,92.6,363.8,93.1,363.8,93.5z"/>
<g>
	<path class="st4" d="M434.6,86.7c-1.1,4-0.6,8.4-2,12.6c-0.7,1.7-1.9,2.2-4.1,2.1c-2.5-0.2-5-1-7.4-1.6c-3.4-0.9-6.9-1.7-10.3-2.7
		c-9.5-2.8-18.7-2.3-28.3-0.3c-6.5,1.5-12.9,3.3-19.5,4.3c-5.2,0.9-6.1,0.4-7.3-3.7c-0.3-1-0.4-1.9-0.7-2.9c-0.5-2.9-0.4-6-1.4-8.9
		l16-2c16.6-2.1,33.7-1.9,50.2,0.8L434.6,86.7z"/>
	<path class="st5" d="M434.4,87.9c0.2-0.9,0.4-1.7,0.9-2.4c-0.9-8.8-2.9-16.9-6.4-24.8c-2.2-5.1-6.4-8.3-12.1-10.4
		c-2.7-1-5.6-1.6-8.4-2.2c-4.3-1-8.9-0.4-13-2.2c-1-0.5-2.1-0.2-2.8,0.4c-1.2,0.9-2.3,0.9-3.7,1c-4.5,0.2-8.9,1.1-13.2,2.1
		c-7.4,2-13.3,5.6-15.8,12.4c-2,5.2-3.8,10.4-4.8,16c-0.5,3.1-2,6.2-1,9.3l14.3-2.1c18-2.4,36.2-2,54.1,1L434.4,87.9z"/>
</g>
</svg>
