<?xml version="1.0" encoding="utf-8"?>
<!-- Generator: Adobe Illustrator 26.0.3, SVG Export Plug-In . SVG Version: 6.00 Build 0)  -->
<svg version="1.1" id="Layer_1" xmlns="http://www.w3.org/2000/svg" xmlns:xlink="http://www.w3.org/1999/xlink" x="0px" y="0px"
	 viewBox="0 0 188 167.8" style="enable-background:new 0 0 188 167.8;" xml:space="preserve">
<style type="text/css">
	.st0{fill:#E0B9A0;}
	.st1{fill:#CCAA97;}
	.st2{fill:#CA9072;}
	.st3{fill:#423522;}
	.st4{fill:#277A9B;}
	.st5{fill:#22677C;}
</style>
<path class="st0" d="M61.9,95.7l-2.5-1.7c-1.7-1-3.8-0.9-5.3,0.3l-0.6,0.5c-1,0.9-1.7,2.3-1.6,3.6l0.8,11.3c0.1,0.7,0.3,1.5,0.7,2.1
	c1.5,2.3,5.1,7.9,5.6,8.6c0.1,0.2,0.3,0.3,0.6,0.5c2.5,1.2,5.5-0.3,6.1-3l2.3-9.6c0.2-1,0.1-2.1-0.4-3l-4.3-8.2
	C63.1,96.8,62.6,96.1,61.9,95.7z"/>
<path class="st0" d="M135,95.7l3.1-1.8c1.8-1,4-0.6,5.4,0.8l0.1,0.2c0.8,0.9,1.2,2.1,1.1,3.2l-0.8,11.6c-0.1,0.7-0.3,1.5-0.7,2.1
	c-1.5,2.3-5.1,7.9-5.6,8.6c-0.1,0.2-0.3,0.3-0.6,0.5c-2.5,1.2-5.5-0.3-6.1-3l-2.3-9.6c-0.2-1-0.1-2.1,0.4-3l4.2-8
	C133.7,96.8,134.3,96.1,135,95.7z"/>
<path class="st0" d="M137.2,73.7c-1.5-7.1-5.2-13.4-10.8-17.9l-4.4-3.6c-5-4-11.2-6.5-17.6-7L98.6,45h-0.1l-5.8,0.3
	c-6.4,0.4-12.7,2.8-17.6,7l-4.5,3.6c-5.5,4.6-9.3,10.8-10.8,17.9c-0.5,2.6-0.9,4.7-0.9,4.8c0,0.5,2.8,15.4,2.8,15.4v8.3l0.2,1.1
	l3.8,26.3c0.4,2.8,1.7,5.4,3.5,7.6c0,0,12.7,11.8,17.1,15.5c1.7,1.3,11,2.9,12,3.1l0,0h0.1l0.9-0.2l0.6-0.1c3-0.5,9.1-1.8,10.5-2.9
	c4.6-3.5,17.1-15.5,17.1-15.5c1.9-2.1,3.1-4.8,3.5-7.6L135,103l0.1-0.9v-8.3c0,0,2.8-14.8,2.8-15.4
	C138.1,78.3,137.7,76.2,137.2,73.7z"/>
<path class="st1" d="M133.3,115.4l2-13.7c0,0,4.9-4.9,5.3-5c0.4-0.1,0.6,2.1,0.6,2.1l-1.1,9.8l-2.8,4.9L133.3,115.4z"/>
<path class="st1" d="M63.8,116.5l-2-13.7c0,0-4.9-4.9-5.3-5c-0.4-0.1-0.6,2.1-0.6,2.1l1.1,9.8l2.8,4.9L63.8,116.5z"/>
<path class="st2" d="M74.1,35.3l-1.2,0.2c-1.8,0.3-3.5,0.9-5.1,1.8l-0.9,0.5c-1.7,0.9-2.5,2.8-2.1,4.6l2.8,13.3
	c0.7,3.2,4.6,4.5,7,2.2l7.9-7.3c1.5-1.3,1.8-3.5,0.7-5.2l-4.8-8C77.5,35.8,75.9,35,74.1,35.3z"/>
<path class="st3" d="M130.8,64.6c1.4-1.1,5.1-3.8,7.4-6.3c0.8-0.8,2.1-0.3,2.2,1c0.5,7.2-0.7,23.7-5.3,39.6
	c-0.1,0.5-0.9,0.4-0.8-0.2c0.8-5.5,1-13.1-0.9-16.5c-3-5.3-3.2-3.5-3.3-16.6C130.1,65.4,130.3,64.8,130.8,64.6z"/>
<path class="st3" d="M66.3,66.8c-0.1,13-0.3,11.2-3.3,16.6c-1.9,3.4-1.7,10.9-0.9,16.5c0.1,0.5-0.7,0.7-0.8,0.2
	c-4.6-15.9-5.8-32.4-5.3-39.6c0.1-1.3,1.4-1.8,2.2-1c2.3,2.4,6,5.2,7.4,6.3C66.1,65.9,66.3,66.4,66.3,66.8z"/>
<g>
	<path class="st4" d="M139.8,61.9c-1.1,4.1-0.6,8.7-2.1,13.1c-0.7,1.8-2,2.3-4.2,2.2c-2.6-0.2-5.2-1-7.7-1.7
		c-3.5-0.9-7.1-1.8-10.6-2.8c-9.8-2.9-19.4-2.4-29.3-0.3c-6.7,1.6-13.4,3.4-20.3,4.4c-5.4,0.9-6.3,0.4-7.5-3.8c-0.3-1-0.4-2-0.7-3
		c-0.5-3-0.4-6.2-1.4-9.2l16.6-2.1c17.3-2.2,35-2,52.1,0.8L139.8,61.9z"/>
	<path class="st5" d="M139.6,63.1c0.2-0.9,0.4-1.8,0.9-2.5c-0.9-9.1-3-17.6-6.6-25.7c-2.3-5.3-6.6-8.6-12.6-10.7
		c-2.8-1-5.8-1.7-8.7-2.3c-4.4-1-9.2-0.4-13.5-2.3c-1-0.5-2.2-0.2-2.9,0.4c-1.2,0.9-2.4,0.9-3.8,1c-4.7,0.2-9.2,1.1-13.7,2.2
		C71.1,25.2,65,28.9,62.4,36c-2.1,5.4-3.9,10.8-5,16.6c-0.5,3.2-2.1,6.4-1,9.6L71.2,60c18.7-2.5,37.6-2.1,56.1,1L139.6,63.1z"/>
</g>
</svg>
