<?xml version="1.0" encoding="utf-8"?>
<!-- Generator: Adobe Illustrator 26.0.3, SVG Export Plug-In . SVG Version: 6.00 Build 0)  -->
<svg version="1.1" id="Calque_1" xmlns="http://www.w3.org/2000/svg" xmlns:xlink="http://www.w3.org/1999/xlink" x="0px" y="0px"
	 viewBox="0 0 788 1005" style="enable-background:new 0 0 788 1005;" xml:space="preserve">
<style type="text/css">
	.st0{fill:#E0B9A0;}
	.st1{fill:#CCAA97;}
	.st2{fill:#423522;}
</style>
<polygon class="st0" points="369.6,124.5 358,124.5 354,113.2 356.8,91.9 363.7,72.3 396.4,74 423.9,73.5 433.1,91.9 "/>
<path class="st0" d="M359.8,121.2l-2.4-1.6c-1.6-1-3.7-0.9-5.1,0.3l-0.6,0.5c-1,0.9-1.6,2.2-1.5,3.5l0.8,10.9c0.1,0.7,0.3,1.4,0.7,2
	c1.4,2.2,4.9,7.6,5.4,8.3c0.1,0.2,0.3,0.3,0.6,0.5c2.4,1.2,5.3-0.3,5.9-2.9l2.2-9.2c0.2-1,0.1-2-0.4-2.9l-4.1-7.9
	C360.9,122.2,360.4,121.6,359.8,121.2z"/>
<path class="st0" d="M430.2,121.2l3-1.7c1.7-1,3.9-0.6,5.2,0.8l0.1,0.2c0.8,0.9,1.2,2,1.1,3.1l-0.8,11.2c-0.1,0.7-0.3,1.4-0.7,2
	c-1.4,2.2-4.9,7.6-5.4,8.3c-0.1,0.2-0.3,0.3-0.6,0.5c-2.4,1.2-5.3-0.3-5.9-2.9l-2.2-9.2c-0.2-1-0.1-2,0.4-2.9l4-7.7
	C428.9,122.2,429.5,121.6,430.2,121.2z"/>
<path class="st0" d="M432.3,100c-1.4-6.8-5-12.9-10.4-17.2l-4.2-3.5c-4.8-3.9-10.8-6.3-17-6.7l-5.6-0.3H395l-5.6,0.3
	c-6.2,0.4-12.2,2.7-17,6.7l-4.3,3.5c-5.3,4.4-9,10.4-10.4,17.2c-0.5,2.5-0.9,4.5-0.9,4.6c0,0.5,2.7,14.8,2.7,14.8v8l0.2,1.1
	l3.7,25.3c0.4,2.7,1.6,5.2,3.4,7.3c0,0,12.2,11.4,16.5,14.9c1.6,1.3,10.6,2.8,11.6,3l0,0h0.1l0.9-0.2l0.6-0.1
	c2.9-0.5,8.8-1.7,10.1-2.8c4.4-3.4,16.5-14.9,16.5-14.9c1.8-2,3-4.6,3.4-7.3l3.7-25.5l0.1-0.9v-8c0,0,2.7-14.3,2.7-14.8
	C433.2,104.4,432.8,102.4,432.3,100z"/>
<path class="st1" d="M428.5,140.2l1.9-13.2c0,0,4.7-4.7,5.1-4.8s0.6,2,0.6,2l-1.1,9.4l-2.7,4.7L428.5,140.2z"/>
<path class="st1" d="M361.6,141.2l-1.9-13.2c0,0-4.7-4.7-5.1-4.8s-0.6,2-0.6,2l1.1,9.4l2.7,4.7L361.6,141.2z"/>
<g id="Calque_7">
	<path class="st2" d="M357.6,121.6c0,0-0.5-15.6,0.9-20.4c1.9-6.7,5.9-18.1,11.3-20.5c5.7-2.6,20.5,1.9,26.6,2
		c5.8,0.1,17.4-5.7,22.9-3.3c3.4,1.5,7.8,9.8,9.3,13.9c2.8,7.3,1.6,25.9,1.6,25.9l-0.1,2c1.4-0.5,3.1-1.4,4.3-2.3
		c2-13.2,4.2-42.8-8.8-50.8c-5.6-3.5-22-8.6-28-9.3s-18.5,1-24.7,2.5c-6.4,1.5-8.2,5.2-13.3,9.8c-7.6,6.7-7.9,38.1-4.9,46.7
		L357.6,121.6z"/>
</g>
<circle class="st2" cx="430.7" cy="142.6" r="1.8"/>
</svg>
