<svg id="Calque_1" data-name="Calque 1" xmlns="http://www.w3.org/2000/svg" viewBox="0 0 130.33 155.39"><defs><style>.cls-1{fill:#3d332f;}.cls-2{fill:#f7a386;}.cls-3{fill:#bc6860;}.cls-4{fill:#a16559;}</style></defs><g id="Calque_3" data-name="Calque 3"><path class="cls-1" d="M90.88,148l2.2-6.2,3.6-27.9,28,1.9,32.4-.7,6.1,17.7-1.5,16.2s19.9-37.2,21.5-40.3,32.2-55.1-5.9-62.5C130,37.1,70.38,66.9,66.38,86.4S89.78,146.4,90.88,148Z" transform="translate(-65.98 -44.51)"/><path class="cls-2" d="M93.08,141.8l-8.4-2.4-2.3,2.4,1,14.1s5.4,8.3,6,9.2,5.5,1.8,5.5,1.8l3.5-14.9Z" transform="translate(-65.98 -44.51)"/><path class="cls-2" d="M161.48,141.8l8.4-2.4,2.3,2.4-1,14.1s-5.4,8.3-6,9.2-5.5,1.8-5.5,1.8l-3.5-14.9Z" transform="translate(-65.98 -44.51)"/><path class="cls-2" d="M165.68,125.5c0,.5-2.7,14.8-2.7,14.8v8l-.1.9-3.7,25.5a13.22,13.22,0,0,1-3.5,7.2s-12.2,11.4-16.5,14.9c-1.3,1-7.3,2.2-10.1,2.8l-.6.1-.9.2h-.1c-1-.2-10-1.7-11.6-3-4.4-3.4-16.5-14.9-16.5-14.9a14.11,14.11,0,0,1-3.4-7.3l-3.7-25.3-.2-1.1v-8s-2.7-14.3-2.7-14.8c0-.2.4-2.2.9-4.6a29.74,29.74,0,0,1,10.4-17.2l4.2-3.5a29.42,29.42,0,0,1,17-6.6l5.6-.4h.1l5.6.4a30.12,30.12,0,0,1,17,6.6l4.3,3.5a30.06,30.06,0,0,1,10.4,17.2C165.28,123.3,165.68,125.3,165.68,125.5Z" transform="translate(-65.98 -44.51)"/><path class="cls-3" d="M127.18,162s-5.4-2.2-5.6-2.4-1,1.2-1,1.2l-3.9,1.3.5,3.1,3.2,1.2,4.2-1.2,2.73,1.2Z" transform="translate(-65.98 -44.51)"/><path class="cls-1" d="M123.38,164.1l-2.2-2.1-3,1s.4,1.5.8,1.6l2.6.9Z" transform="translate(-65.98 -44.51)"/><path class="cls-3" d="M127.18,162.05s5.4-2.2,5.6-2.4,1,1.2,1,1.2l3.9,1.2-.5,3.1-3.2,1.2-4.2-1.2-2.6,1.14Z" transform="translate(-65.98 -44.51)"/><path class="cls-1" d="M130.68,164.1l2.2-2.1,3,1s-.4,1.5-.8,1.6l-2.6.9Z" transform="translate(-65.98 -44.51)"/><path class="cls-4" d="M161,161.4l1.9-13.2s4.7-4.7,5.1-4.8.6,2.1.6,2.1l-1.1,9.4-2.7,4.7Z" transform="translate(-65.98 -44.51)"/><path class="cls-4" d="M94.08,162.4l-1.9-13.2s-4.7-4.7-5.1-4.8-.6,2.1-.6,2.1l1.1,9.4,2.7,4.7Z" transform="translate(-65.98 -44.51)"/><path class="cls-1" d="M67.88,94.1c.9-1.2,12.1,16.3,13.8,16.1,18.1-1.7,11.4-48.6,42.6-31.3a18.78,18.78,0,0,0,12.8.9C155.78,75,161,98.7,161,98.7s3.2-18.6,3-19.9-29.1-20.8-31.5-21.7-22.4,0-23.6,0-28.7,14.9-30,15.5S67.88,94.1,67.88,94.1Z" transform="translate(-65.98 -44.51)"/><path class="cls-1" d="M126.68,106.8l28.6-5.6-36.4-21.8-39.1,25.1,29.9,3A57.13,57.13,0,0,0,126.68,106.8Z" transform="translate(-65.98 -44.51)"/></g></svg>