<?xml version="1.0" encoding="utf-8"?>
<!-- Generator: Adobe Illustrator 26.0.2, SVG Export Plug-In . SVG Version: 6.00 Build 0)  -->
<svg version="1.1" id="Calque_1" xmlns="http://www.w3.org/2000/svg" xmlns:xlink="http://www.w3.org/1999/xlink" x="0px" y="0px"
	 viewBox="0 0 288 561.6" style="enable-background:new 0 0 288 561.6;" xml:space="preserve">
<style type="text/css">
	.st0{fill:#E09380;}
	.st1{fill:#F7A386;}
	.st2{fill:#CECECE;}
</style>
<g>
	<path class="st0" d="M192.7,278.9c0.1,1.1-0.1,12.6-0.4,25.9c-0.7,27.7-4.4,55.2-11.2,82l-23.9,94.6l-23.6-6.1
		c0,0,3-121.8,3.3-123.7s6.4-46.5,7.4-48.3s0.1-190.6,0.1-190.6l11-63.7l41.8,5.8c13.9,1.9,23.9,14.9,23.1,30
		C220.4,84.7,192.4,276.2,192.7,278.9z"/>
	<path class="st1" d="M69.9,112.7c0.5,2.6,24.3,164.1,24.1,166.8c-0.1,1.6,0.9,24.6,1.8,43.4c0.7,16.2,3.4,32.3,7.8,47.9l31.3,110.6
		l24.3-6.5c0,0-5.6-121.7-5.9-123.7s-7.5-46.4-8.6-48.2s3-190.3,3-190.3s8.2-33.6,8.3-37.3c0.1-14.9,1.8-47,1.8-47L94,23.7
		c-14.4,2.2-27.3,42.4-26.2,57.5L69.9,112.7z"/>
	<g id="Calque_1_00000071519901466194454640000002149211624443550375_">
		<path d="M220.2,79.1c-23.3,2.5-46.4,27.8-71.7,36.1c0,0-11.5,0.5-10.8-0.1c-23.6-5.5-46-36.4-69.6-41.9c0,0,2.5-12.7,4.3-20.7
			c2.4-10.5,11.3-28.8,22-28.8l99.1,4.8c11,0,20.1,8.5,20.8,19.4L220.2,79.1z"/>
	</g>
	<polygon class="st1" points="144.1,509.8 148.1,523.9 160.1,464.8 135.7,455.2 	"/>
	<polygon class="st1" points="165.8,523.7 145.1,523.7 131.5,464.8 156.6,454.8 	"/>
	<path d="M148.8,507.3l-0.9-0.2c-3.3-0.6-6.5,1.6-7.1,5c-0.1,0.3-0.1,0.6-0.1,0.9c0,0.2-0.1,0.5-0.1,0.7l-7.9,29.4
		c-0.6,2.2,0.1,4.6,1.8,6.1c5,4.6,16,13.6,23.4,12.3c1.8-0.3,22.8-9,22.8-17.6l0,0c-0.1-0.7-6.2-14-6.2-14
		c-0.2-0.2-4.3-13.5-10.6-25.5c-0.5-1-1.3-1.8-2.3-2.4l-2.6-1.5c-0.7-0.4-1.5,5.8-2.3,5.9l-6.1,1c-0.1,0-0.1,0-0.2,0
		C149.8,507.4,149.3,507.4,148.8,507.3z"/>
	<path class="st1" d="M162,495.1c1.3,7,13.2,33.2-4.3,38.7c-7.2,2.3-16-1-17.9-7.8c-2-7.1,1.5-17.4,2.8-26.5
		C143.6,492.4,160.7,488,162,495.1z"/>
	<path class="st2" d="M156.8,534.5c0-2.4,0.8-4.5,2.1-6.3c-0.8-0.3-1.6-0.4-2.4-0.4c-4.3,0-7.8,3.5-7.8,7.8c0,4.3,3.5,7.8,7.8,7.8
		c1.4,0,2.7-0.4,3.9-1C158.1,540.4,156.8,537.6,156.8,534.5z"/>
</g>
</svg>
