<?xml version="1.0" encoding="utf-8"?>
<!-- Generator: Adobe Illustrator 26.0.2, SVG Export Plug-In . SVG Version: 6.00 Build 0)  -->
<svg version="1.1" id="Calque_1" xmlns="http://www.w3.org/2000/svg" xmlns:xlink="http://www.w3.org/1999/xlink" x="0px" y="0px"
	 viewBox="0 0 288 561.6" style="enable-background:new 0 0 288 561.6;" xml:space="preserve">
<style type="text/css">
	.st0{fill:#F7A386;}
	.st1{fill:#47B2C4;}
	.st2{fill:#ED5875;}
	.st3{fill:none;stroke:#ED5875;stroke-width:3;stroke-linecap:round;stroke-miterlimit:10;}
</style>
<g>
	<rect x="72.3" y="469.1" class="st0" width="22.1" height="63.4"/>
	<path class="st1" d="M83,515.5l-8.6,2.1c-1.3,0.3-2.3,1.2-2.7,2.5l-6.1,18.1c-0.1,0.4-0.2,0.8-0.2,1.2v5c0,0.7-0.2,1.3-0.5,1.9
		l-6.1,10.5c-1,1.7-0.6,3.8,1,4.9c1.5,1.1,3.3,2.2,4.5,1.8c1.9-0.7,35-1.5,46.3-1.7c2.1,0,3.7-1.7,3.7-3.8l0,0c0-0.7-0.2-1.4-0.6-2
		l-7.9-12.8c-0.2-0.3-0.3-0.6-0.4-0.9l-6.5-20.5c-0.2-0.7-0.6-1.3-1.2-1.8l-4.5-3.7c-0.7-0.6-1.6-0.9-2.5-0.9h-6.9
		C83.6,515.3,83.3,515.4,83,515.5z"/>
	<rect x="193.8" y="472.6" class="st0" width="22.1" height="63.4"/>
	<path class="st1" d="M205.3,518.9l8.6,2c1.3,0.3,2.3,1.3,2.7,2.5l6.1,18.1c0.1,0.4,0.2,0.8,0.2,1.2v5c0,0.7,0.2,1.3,0.5,1.9
		l6.1,10.5c1,1.7,0.6,3.8-1,4.9c-1.5,1.1-3.3,2.2-4.5,1.8c-1.9-0.7-35.1-1.5-46.4-1.7c-2.1,0-3.7-1.7-3.7-3.8l0,0
		c0-0.7,0.2-1.4,0.6-2l7.9-12.8c0.2-0.3,0.3-0.6,0.4-0.9l6.5-20.5c0.2-0.7,0.6-1.3,1.2-1.8l4.5-3.7c0.7-0.6,1.6-0.9,2.4-0.9l6.9,0
		C204.7,518.8,205,518.8,205.3,518.9z"/>
	<path class="st0" d="M68.3,108.8c0,2.6,0.7,169.1,0,171.7c-0.4,1.5-3.1,23.1-5.4,41.5c-2.1,17.1-2.4,34.4-0.8,51.6L72.6,486
		l21.8,12.8c0,0,16.9-136.3,16.9-138.3s0.7-46.9,0-48.9s28-188.5,28-188.5V51.3L98.1,51c-13.7-0.1-25.2,11.3-26.7,26.3L68.3,108.8z"
		/>
	<path class="st0" d="M219.9,104.9c0,2.7-0.7,170.6,0,173.3c0.4,1.4,2.9,21.1,5.1,38.9c2.4,19.2,2.7,38.7,0.9,58l-10.2,110.4
		l-21.9,18.8c0,0-16.9-143.5-16.9-145.5s-0.7-47.3,0-49.3s-28-190.2-28-190.2V50.9l41.6-0.3c13.7-0.1,25.3,11.3,26.8,26.3
		L219.9,104.9z"/>
	<path class="st2" d="M219.9,104.9c-23.3,2.5-44.5,10-69.8,18.3c0,0-11.6,0.5-10.8-0.1l-70.8-16.6l5.9-58.4
		c1.1-10.7,10.1-18.8,20.8-18.8h99.9c11,0,20.1,8.5,20.8,19.4L219.9,104.9z"/>
	<path class="st2" d="M68.5,106.5V231c0,0,49.3,5.9,53.8,3.6c4.5-2.2,20.4-96.1,20.4-96.1v-15.2c0,0,19.5,110.6,23.6,112.3
		c4.1,1.7,53.2-6.1,53.2-6.1l0.3-124.7l-42-28.6h-70.9L68.5,106.5z"/>
	<line class="st3" x1="76.8" y1="544.2" x2="95.6" y2="541.9"/>
	<line class="st3" x1="77.6" y1="538.2" x2="93.4" y2="536.3"/>
	<line class="st3" x1="78.6" y1="531.4" x2="90.8" y2="530"/>
	<line class="st3" x1="211.4" y1="546.5" x2="192.6" y2="544.3"/>
	<line class="st3" x1="210.6" y1="540.5" x2="194.8" y2="538.6"/>
	<line class="st3" x1="209.5" y1="533.8" x2="197.4" y2="532.3"/>
</g>
</svg>
