<?xml version="1.0" encoding="utf-8"?>
<!-- Generator: Adobe Illustrator 26.0.2, SVG Export Plug-In . SVG Version: 6.00 Build 0)  -->
<svg version="1.1" id="Calque_1" xmlns="http://www.w3.org/2000/svg" xmlns:xlink="http://www.w3.org/1999/xlink" x="0px" y="0px"
	 viewBox="0 0 288 561.6" style="enable-background:new 0 0 288 561.6;" xml:space="preserve">
<style type="text/css">
	.st0{fill:#F7A386;}
	.st1{fill:#D39844;}
	.st2{fill:#E5E0CF;}
</style>
<g>
	<rect x="69.4" y="462.8" class="st0" width="22.1" height="63.4"/>
	<path class="st1" d="M80.1,509.2l-8.6,2c-1.3,0.3-2.3,1.2-2.7,2.5l-6.1,18.1c-0.1,0.4-0.2,0.8-0.2,1.2v5c0,0.7-0.2,1.3-0.5,1.9
		l-6.1,10.5c-1,1.7-0.6,3.8,1,4.9c1.5,1.1,3.3,2.2,4.5,1.8c1.9-0.7,35-1.4,46.3-1.7c2.1,0,3.7-1.7,3.7-3.8l0,0c0-0.7-0.2-1.4-0.6-2
		l-7.9-12.8c-0.2-0.3-0.3-0.6-0.4-0.9L96,515.5c-0.2-0.7-0.6-1.3-1.2-1.8l-4.5-3.7c-0.7-0.6-1.6-0.9-2.4-0.9H81
		C80.7,509.1,80.4,509.1,80.1,509.2z"/>
	<rect x="190.9" y="466.3" class="st0" width="22.1" height="63.4"/>
	<path class="st1" d="M202.4,512.6l8.6,2c1.3,0.3,2.3,1.2,2.7,2.5l6.1,18.1c0.1,0.4,0.2,0.8,0.2,1.2v4.9c0,0.7,0.2,1.3,0.5,1.9
		l6.1,10.5c1,1.7,0.6,3.8-1,4.9c-1.5,1.1-3.3,2.2-4.5,1.8c-1.9-0.7-35.1-1.4-46.3-1.7c-2.1,0-3.7-1.7-3.7-3.8v0c0-0.7,0.2-1.4,0.6-2
		l7.9-12.8c0.2-0.3,0.3-0.6,0.4-0.9l6.5-20.5c0.2-0.7,0.6-1.3,1.2-1.8l4.5-3.7c0.7-0.6,1.5-0.9,2.4-0.9h6.9
		C201.8,512.5,202.1,512.6,202.4,512.6z"/>
	<path class="st0" d="M65.4,102.5c0,2.6,0.7,169.1,0,171.7s-8.6,64.7-8.6,67.4s12.9,138,12.9,138l21.9,29.4
		c0,0,16.9-152.9,16.9-154.9s0.7-46.9,0-48.9s28-188.5,28-188.5V45l-41.3-0.2C81.5,44.7,70,56.1,68.5,71.1L65.4,102.5z"/>
	<path class="st0" d="M217,98.6c0,2.7-0.7,170.6,0,173.3s8.6,65.3,8.6,68s-12.9,139.3-12.9,139.3l-21.9,29.9
		c0,0-16.9-154.6-16.9-156.6s-0.7-47.3,0-49.3S146,113,146,113V44.6l41.6-0.3c13.7-0.1,25.3,11.3,26.8,26.3L217,98.6z"/>
	<path class="st2" d="M217,98.6c-23.3,2.5-44.5,10-69.8,18.3c0,0-11.5,0.5-10.8-0.1l-70.8-16.6l5.9-58.4C72.7,31.1,81.6,23,92.3,23
		h99.9c11,0,20.1,8.5,20.8,19.4L217,98.6z"/>
	<path class="st2" d="M73.2,35.7c0,0-24.1,156.2-24.1,185.7S21.8,440.2,15.1,482.4S5.4,532,4.6,544.7c-0.8,12.7,60.2-4.4,75.9-3.6
		s40.2,8.4,51.2,11.4c11,3-1.6-84.6-2.5-96.4c-0.8-11.8,3.6-239.3,7.3-252.8c3.7-13.5,0.2-38,4.9-39.7c4.7-1.7,14,238.2,12.3,261.8
		c-1.7,23.6-26.9,122.7-11.1,123.5s34.1-18,48.3-14.7c14.2,3.4,76.4,15.4,74.7,5.2c-1.7-10.1-15-244.5-12.7-252.1
		c2.2-7.6-25.5-141.8-35.8-188.9s-15.1-63-15.1-63H73.2z"/>
</g>
</svg>
