<?xml version="1.0" encoding="utf-8"?>
<!-- Generator: Adobe Illustrator 26.0.1, SVG Export Plug-In . SVG Version: 6.00 Build 0)  -->
<svg version="1.1" id="Calque_1" xmlns="http://www.w3.org/2000/svg" xmlns:xlink="http://www.w3.org/1999/xlink" x="0px" y="0px"
	 viewBox="0 0 217.2 296.6" style="enable-background:new 0 0 217.2 296.6;" xml:space="preserve">
<style type="text/css">
	.st0{clip-path:url(#SVGID_00000065065158596207318830000007673916353555297186_);}
	.st1{fill:#7F4A2F;}
	.st2{clip-path:url(#SVGID_00000123402541437528849320000009075445052782485906_);}
	.st3{fill:#C98841;}
	.st4{fill:#8E5736;}
	.st5{fill:#28221E;}
	.st6{fill:#603813;}
</style>
<g id="_Répétition_miroir_">
	<g>
		<g>
			<defs>
				<polygon id="SVGID_1_" points="179.2,107.4 179.2,107.4 216.5,107.4 216.5,161.9 179.2,161.9 				"/>
			</defs>
			<clipPath id="SVGID_00000134932314068245459030000003977325520827725212_">
				<use xlink:href="#SVGID_1_"  style="overflow:visible;"/>
			</clipPath>
			<g style="clip-path:url(#SVGID_00000134932314068245459030000003977325520827725212_);">
				<path class="st1" d="M179.2,157.3l7.2-40c0,0,14.2-16.4,26.5-6.8c8.2,6.4,1.3,47.3-8.2,50C188.6,165,179.2,157.3,179.2,157.3z"
					/>
			</g>
		</g>
	</g>
</g>
<g id="_Répétition_miroir_2">
	<g>
		<g>
			<defs>
				<polygon id="SVGID_00000116947520526242403560000013835145863445652352_" points="47,107.4 47,107.4 9.7,107.4 9.7,161.9 
					47,161.9 				"/>
			</defs>
			<clipPath id="SVGID_00000124126562742206528630000006510938602425474987_">
				<use xlink:href="#SVGID_00000116947520526242403560000013835145863445652352_"  style="overflow:visible;"/>
			</clipPath>
			<g style="clip-path:url(#SVGID_00000124126562742206528630000006510938602425474987_);">
				<path class="st1" d="M47,157.3l-7.2-40c0,0-14.2-16.4-26.5-6.8c-8.2,6.4-1.3,47.3,8.2,50C37.7,165,47,157.3,47,157.3z"/>
			</g>
		</g>
	</g>
</g>
<path class="st3" d="M23.9,100c0-50.6,39.8-91.7,88.9-91.7s88.9,41,88.9,91.7s-73,88.3-88.9,91.7C130.6,185.5,23.9,150.6,23.9,100z"
	/>
<path class="st4" d="M117.4,12.9h-3c-44.5,0-75.8,28.5-75.8,73.1c0,0,0.9,36.6,3.1,52c1.8,12.4,4.3,26.4,19.6,47.6
	c8.9,12.3,36.5,24.2,52.4,25.8l0,0c15.9-1.6,46.3-14,55.2-26.3c15.3-21.2,17.8-35.2,19.6-47.6c2.2-15.5,3.1-52,3.1-52
	c0-44.6-31.3-73.1-75.8-73.1h-3"/>
<path class="st1" d="M112.4,33.1L112.4,33.1L34.3,85.9c0,0-14.8-65.3,77.8-76.7c0,0,71.4-1.9,83.7,67.6c2.7,15.6,0.7,31.6-5.9,46
	c0,0-4.6-31-52.5-71.4"/>
<path class="st5" d="M117.4,3.4c-3.6,7.5,11.8,30.9,15.9,36.4c4.2,5.6,53.6,38.3,53.6,67.3c0,22.6-31.8,57.3-33.6,79.7
	c-4.2,51.2,38.4,59.6,38.4,59.6s-9.4-36.5-9.4-49.7c0-84.6,60.4-62.4,22.5-133.9C181,18.1,123-8.2,117.4,3.4z"/>
<path class="st5" d="M62.3,296.6c0,0,12.7-52.5-31.6-100.4C7.3,170.9-15.1,120.6,13.5,88.6c21-23.4,17.9-46.1,33-61.2
	c46.2-46,75.9-23.8,85-6.7c5.2,9.7,7.2,12.2,1.8,19c-18,22.6-45.6-26.7-90.1,66.1c-9.4,19.5,28.6,77.4,45.1,97.4
	C140.4,266.7,62.3,296.6,62.3,296.6z"/>
<path class="st5" d="M133.3,39.8c0,0,0.8,2.4-21.9,2.4c-20.3,0-75.6,8.3-69.2,76.1c0,0,12.1-70.2,75.8-69.7
	C118,48.5,137.5,46.4,133.3,39.8z"/>
<path class="st6" d="M102.7,156.4c-1,0.1-1.4,0.7-0.6,1c3,1.2,8.6,3.3,12.3,3.3c3.5,0,8.9-2.1,11.7-3.3c0.8-0.3,0.4-0.9-0.6-1
	c-3.3-0.2-4.7,0.6-11.4,0.6C108.3,157.1,106,156.2,102.7,156.4z"/>
</svg>
