<?xml version="1.0" encoding="utf-8"?>
<!-- Generator: Adobe Illustrator 26.0.1, SVG Export Plug-In . SVG Version: 6.00 Build 0)  -->
<svg version="1.1" id="Calque_1" xmlns="http://www.w3.org/2000/svg" xmlns:xlink="http://www.w3.org/1999/xlink" x="0px" y="0px"
	 viewBox="0 0 788 1005" style="enable-background:new 0 0 788 1005;" xml:space="preserve">
<style type="text/css">
	.st0{clip-path:url(#SVGID_00000173143371457311418530000012628823568080241595_);}
	.st1{fill:#7F4A2F;}
	.st2{clip-path:url(#SVGID_00000003082006254192848680000009217537932769402775_);}
	.st3{fill:#28221E;}
	.st4{fill:#8E5736;}
	.st5{fill:#603813;}
</style>
<g id="_Répétition_miroir_">
	<g>
		<defs>
			<polygon id="SVGID_1_" points="458.3,308.8 458.3,308.8 495.6,308.8 495.6,363.3 458.3,363.3 			"/>
		</defs>
		<clipPath id="SVGID_00000038370768088327392350000003395278701672529287_">
			<use xlink:href="#SVGID_1_"  style="overflow:visible;"/>
		</clipPath>
		<g style="clip-path:url(#SVGID_00000038370768088327392350000003395278701672529287_);">
			<path class="st1" d="M458.3,358.7l7.2-40c0,0,14.2-16.4,26.5-6.8c8.2,6.4,1.3,47.3-8.2,50C467.7,366.4,458.3,358.7,458.3,358.7z"
				/>
		</g>
	</g>
</g>
<g id="_Répétition_miroir_2">
	<g>
		<defs>
			<polygon id="SVGID_00000166646904076474987970000003003227227573467303_" points="326.1,308.8 326.1,308.8 288.8,308.8 
				288.8,363.3 326.1,363.3 			"/>
		</defs>
		<clipPath id="SVGID_00000138533828962220196610000011765658474699662254_">
			<use xlink:href="#SVGID_00000166646904076474987970000003003227227573467303_"  style="overflow:visible;"/>
		</clipPath>
		<g style="clip-path:url(#SVGID_00000138533828962220196610000011765658474699662254_);">
			<path class="st1" d="M326.1,358.7l-7.2-40c0,0-14.2-16.4-26.5-6.8c-8.2,6.4-1.3,47.3,8.2,50C316.8,366.4,326.1,358.7,326.1,358.7
				z"/>
		</g>
	</g>
</g>
<path class="st3" d="M303,301.4c0-50.6,39.8-91.7,88.9-91.7s88.9,41.1,88.9,91.7s-73,88.3-88.9,91.7C409.7,386.9,303,352,303,301.4z
	"/>
<path class="st4" d="M396.5,214.3h-3c-44.5,0-75.8,28.5-75.8,73.1c0,0,0.9,36.6,3.1,52c1.8,12.4,4.3,26.4,19.6,47.6
	c8.9,12.3,36.5,24.2,52.4,25.8l0,0c15.9-1.6,46.3-14,55.2-26.3c15.4-21.2,17.9-35.2,19.6-47.6c2.2-15.5,3.1-52,3.1-52
	c0-44.5-31.3-73.1-75.8-73.1h-3"/>
<path class="st1" d="M391.5,240.7L391.5,240.7l-73,50.5c0,0-13.8-62.5,72.7-73.4c0,0,66.7-1.8,78.3,64.6c4.3,24.9-3.8,5.5-3.8,5.5
	s-66-24-74.7-47.6"/>
<path class="st3" d="M391.5,234.5L391.5,234.5l-78.1,52.8c0,0-14.8-65.3,77.8-76.7c0,0,71.4-1.9,83.7,67.6c4.6,26-4.1,5.8-4.1,5.8
	s-70.6-25-79.9-49.7"/>
<path class="st5" d="M380.8,359.3c-1,0.1-1.4,0.7-0.6,1c3,1.2,8.6,3.3,12.3,3.3c3.5,0,8.9-2.1,11.7-3.3c0.8-0.3,0.4-0.9-0.6-1
	c-3.3-0.2-4.7,0.6-11.4,0.6C386.4,360,384.1,359.1,380.8,359.3z"/>
</svg>
