<?xml version="1.0" encoding="utf-8"?>
<!-- Generator: Adobe Illustrator 26.0.1, SVG Export Plug-In . SVG Version: 6.00 Build 0)  -->
<svg version="1.1" id="Calque_1" xmlns="http://www.w3.org/2000/svg" xmlns:xlink="http://www.w3.org/1999/xlink" x="0px" y="0px"
	 viewBox="0 0 206.9 214.3" style="enable-background:new 0 0 206.9 214.3;" xml:space="preserve">
<style type="text/css">
	.st0{clip-path:url(#SVGID_00000176763589266994163340000016650021986667308735_);}
	.st1{fill:#7F4A2F;}
	.st2{clip-path:url(#SVGID_00000058572847528472030550000006545637637622464699_);}
	.st3{fill:#8E5736;}
	.st4{fill:#28221E;}
	.st5{fill:#603813;}
</style>
<g id="random">
	<g>
		<g>
			<defs>
				<polygon id="SVGID_1_" points="169.5,110.4 169.5,110.4 206.8,110.4 206.8,164.9 169.5,164.9 				"/>
			</defs>
			<clipPath id="SVGID_00000042718296899588572850000000965597685726942346_">
				<use xlink:href="#SVGID_1_"  style="overflow:visible;"/>
			</clipPath>
			<g style="clip-path:url(#SVGID_00000042718296899588572850000000965597685726942346_);">
				<path class="st1" d="M169.5,160.3l7.2-40c0,0,14.2-16.5,26.5-6.8c8.2,6.4,1.3,47.3-8.2,50C178.9,168,169.5,160.3,169.5,160.3z"
					/>
			</g>
		</g>
	</g>
</g>
<g id="random2">
	<g>
		<g>
			<defs>
				<polygon id="SVGID_00000111888173625278054070000008275103834056033166_" points="37.3,110.4 37.3,110.4 0,110.4 0,164.9 
					37.3,164.9 				"/>
			</defs>
			<clipPath id="SVGID_00000173853185897000192980000011360814452433224595_">
				<use xlink:href="#SVGID_00000111888173625278054070000008275103834056033166_"  style="overflow:visible;"/>
			</clipPath>
			<g style="clip-path:url(#SVGID_00000173853185897000192980000011360814452433224595_);">
				<path class="st1" d="M37.3,160.3l-7.2-40c0,0-14.2-16.5-26.5-6.8c-8.2,6.4-1.3,47.3,8.2,50C28,168,37.3,160.3,37.3,160.3z"/>
			</g>
		</g>
	</g>
</g>
<path class="st3" d="M107.7,15.8h-3c-44.5,0-75.8,28.5-75.8,73.1c0,0,0.9,36.6,3.1,52c1.8,12.4,4.3,26.4,19.6,47.6
	c8.9,12.3,36.5,24.2,52.4,25.8l0,0c15.9-1.6,46.3-14,55.2-26.3c15.3-21.2,17.8-35.2,19.6-47.6c2.2-15.5,3.1-52,3.1-52
	c0-44.6-31.3-73.1-75.8-73.1h-3"/>
<path class="st1" d="M102.7,41.2L102.7,41.2L24.6,94c0,0-14.8-65.4,77.8-76.7c0,0,71.4-1.9,83.7,67.6c4.6,26-4.1,5.8-4.1,5.8
	s-70.6-25-79.9-49.7"/>
<path class="st1" d="M62.9,17.4C62.3,16.4,100.1,3,100.1,3l7.3-1l2.7,0.9c0,0,15,3.4,15.8,6.9s3.4,21.6,3.4,21.6l-13.1,2.3
	l-10.6-3.3c0,0-13.7,0-16.4-1S62.9,17.4,62.9,17.4z"/>
<path class="st4" d="M105.2,28.2c-0.5,0.7-1.1,1.5-1.7,2.1C88.9,46.6,38.6,58.2,33.6,76.6c-5.2,19.2,2.6,38.8,2.6,38.8
	s-9.5-5.5-10.2-5.7S-14.4,36.6,61.4,7.3c34.1-13.1,43.8-4.6,43.8-4.6c0.1,0.3,0.2,0.6,0.4,0.8C107.8,6.3,116,12.5,105.2,28.2z"/>
<path class="st4" d="M181.8,111.7c-0.6,0.2-9.4,5.7-9.4,5.7s7.2-19.5,2.4-38.8s-54.7-30.9-65.9-48.3c0.6-0.7,1.1-1.4,1.6-2.1
	c9.9-15.7,2.3-21.9,0.4-24.7c4.1-1.8,15.1-3.9,38.3,5.8C219,38.6,182.4,111.5,181.8,111.7z"/>
<path class="st5" d="M92,158.8c-1,0.1-1.4,0.7-0.6,1c3,1.2,8.6,3.3,12.3,3.3c3.5,0,8.9-2.1,11.7-3.3c0.8-0.3,0.4-0.9-0.6-1
	c-3.3-0.2-4.7,0.6-11.4,0.6C97.6,159.5,95.3,158.6,92,158.8z"/>
</svg>
