<?xml version="1.0" encoding="utf-8"?>
<!-- Generator: Adobe Illustrator 26.0.1, SVG Export Plug-In . SVG Version: 6.00 Build 0)  -->
<svg version="1.1" id="Calque_1" xmlns="http://www.w3.org/2000/svg" xmlns:xlink="http://www.w3.org/1999/xlink" x="0px" y="0px"
	 viewBox="0 0 788 1005" style="enable-background:new 0 0 788 1005;" xml:space="preserve">
<style type="text/css">
	.st0{clip-path:url(#SVGID_00000057144087072596144270000003055561271974064801_);}
	.st1{fill:#7F4A2F;}
	.st2{clip-path:url(#SVGID_00000114761963663535824360000017134617786087119270_);}
	.st3{fill:#28221E;}
	.st4{fill:#8E5736;}
	.st5{fill:#603813;}
</style>
<g id="Calque_13">
	<g id="randomname">
		<g>
			<g>
				<defs>
					<polygon id="SVGID_1_" points="458.3,308.8 458.3,308.8 495.6,308.8 495.6,363.3 458.3,363.3 					"/>
				</defs>
				<clipPath id="SVGID_00000112617012522880513410000013287544405942431678_">
					<use xlink:href="#SVGID_1_"  style="overflow:visible;"/>
				</clipPath>
				<g style="clip-path:url(#SVGID_00000112617012522880513410000013287544405942431678_);">
					<path class="st1" d="M458.3,358.7l7.2-40c0,0,14.2-16.4,26.5-6.8c8.2,6.4,1.3,47.3-8.2,50C467.7,366.4,458.3,358.7,458.3,358.7
						z"/>
				</g>
			</g>
		</g>
	</g>
	<g id="randomname2">
		<g>
			<g>
				<defs>
					<polygon id="SVGID_00000172439265977752556440000007086302090458585264_" points="326.1,308.8 326.1,308.8 288.8,308.8 
						288.8,363.3 326.1,363.3 					"/>
				</defs>
				<clipPath id="SVGID_00000050652728567322981220000001170820333614898067_">
					<use xlink:href="#SVGID_00000172439265977752556440000007086302090458585264_"  style="overflow:visible;"/>
				</clipPath>
				<g style="clip-path:url(#SVGID_00000050652728567322981220000001170820333614898067_);">
					<path class="st1" d="M326.1,358.7l-7.2-40c0,0-14.2-16.4-26.5-6.8c-8.2,6.4-1.3,47.3,8.2,50
						C316.8,366.4,326.1,358.7,326.1,358.7z"/>
				</g>
			</g>
		</g>
	</g>
	<path class="st3" d="M303,301.4c0-50.6,39.8-91.7,88.9-91.7s88.9,41.1,88.9,91.7s-73,88.3-88.9,91.7C409.7,386.9,303,352,303,301.4
		z"/>
	<path class="st4" d="M396.5,214.3h-3c-44.5,0-75.8,28.5-75.8,73.1c0,0,0.9,36.6,3.1,52c1.8,12.4,4.3,26.4,19.6,47.6
		c8.9,12.3,36.5,24.2,52.4,25.8l0,0c15.9-1.6,46.3-14,55.2-26.3c15.4-21.2,17.9-35.2,19.6-47.6c2.2-15.5,3.1-52,3.1-52
		c0-44.5-31.3-73.1-75.8-73.1h-3"/>
	<g>
		<g>
			<defs>
				<polygon id="SVGID_00000064335931393504669890000009158681453410582934_" points="413.3,293 413.3,293 456.6,293 456.6,306.2 
					413.3,306.2 				"/>
			</defs>
			<clipPath id="SVGID_00000060010919944831719990000000620308370032465794_">
				<use xlink:href="#SVGID_00000064335931393504669890000009158681453410582934_"  style="overflow:visible;"/>
			</clipPath>
		</g>
	</g>
	<g>
		<g>
			<defs>
				<polygon id="SVGID_00000092429844618030825290000008685061350398090917_" points="371.1,293 371.1,293 327.8,293 327.8,306.2 
					371.1,306.2 				"/>
			</defs>
			<clipPath id="SVGID_00000012461854709966647800000008868293922006411395_">
				<use xlink:href="#SVGID_00000092429844618030825290000008685061350398090917_"  style="overflow:visible;"/>
			</clipPath>
		</g>
	</g>
	<g>
		<g>
			<defs>
				<rect id="SVGID_00000116234396733174961150000009241869022052282754_" x="412" y="293" width="40.1" height="9.2"/>
			</defs>
			<clipPath id="SVGID_00000181789939026484943010000015886075305083354549_">
				<use xlink:href="#SVGID_00000116234396733174961150000009241869022052282754_"  style="overflow:visible;"/>
			</clipPath>
		</g>
	</g>
	<g>
		<g>
			<defs>
				<rect id="SVGID_00000181052211735683210180000005307373934249134513_" x="332.3" y="293" width="40.1" height="9.2"/>
			</defs>
			<clipPath id="SVGID_00000091010829014181740700000008497803430787643017_">
				<use xlink:href="#SVGID_00000181052211735683210180000005307373934249134513_"  style="overflow:visible;"/>
			</clipPath>
		</g>
	</g>
	<g>
		<g>
			<defs>
				<polygon id="SVGID_00000083772064801330490550000012897752917236936852_" points="415.8,318 415.8,318 443.7,318 443.7,344.8 
					415.8,344.8 				"/>
			</defs>
			<clipPath id="SVGID_00000080199619836072702120000006034070834433993886_">
				<use xlink:href="#SVGID_00000083772064801330490550000012897752917236936852_"  style="overflow:visible;"/>
			</clipPath>
		</g>
	</g>
	<g>
		<g>
			<defs>
				<polygon id="SVGID_00000135655461003866784080000005106215643115230636_" points="368.6,318 368.6,318 340.7,318 340.7,344.8 
					368.6,344.8 				"/>
			</defs>
			<clipPath id="SVGID_00000056391318895530056020000013019978861737938569_">
				<use xlink:href="#SVGID_00000135655461003866784080000005106215643115230636_"  style="overflow:visible;"/>
			</clipPath>
		</g>
	</g>
	<g>
		<g>
			<defs>
				<polygon id="SVGID_00000080191903665489559710000016591656643479750024_" points="420.3,324 420.3,324 438.9,324 438.9,342.7 
					420.3,342.7 				"/>
			</defs>
			<clipPath id="SVGID_00000183951965110022854610000007279977176644802483_">
				<use xlink:href="#SVGID_00000080191903665489559710000016591656643479750024_"  style="overflow:visible;"/>
			</clipPath>
		</g>
	</g>
	<path class="st3" d="M391.5,234.5L391.5,234.5l-78.1,52.8c0,0-14.8-65.3,77.8-76.7c0,0,71.4-1.9,83.7,67.6c4.6,26-4.1,5.8-4.1,5.8
		s-70.6-25-79.9-49.7"/>
	<circle class="st3" cx="310.4" cy="226.7" r="46.7"/>
	
		<ellipse transform="matrix(0.1891 -0.982 0.982 0.1891 171.841 646.8922)" class="st3" cx="477.6" cy="219.4" rx="46.7" ry="46.7"/>
	<path class="st5" d="M380.8,359.3c-1,0.1-1.4,0.7-0.6,1c3,1.2,8.6,3.3,12.3,3.3c3.5,0,8.9-2.1,11.7-3.3c0.8-0.3,0.4-0.9-0.6-1
		c-3.3-0.2-4.7,0.6-11.4,0.6C386.4,360,384.1,359.1,380.8,359.3z"/>
</g>
</svg>
