<?xml version="1.0" encoding="utf-8"?>
<!-- Generator: Adobe Illustrator 26.0.1, SVG Export Plug-In . SVG Version: 6.00 Build 0)  -->
<svg version="1.1" id="Calque_1" xmlns="http://www.w3.org/2000/svg" xmlns:xlink="http://www.w3.org/1999/xlink" x="0px" y="0px"
	 viewBox="0 0 788 1005" style="enable-background:new 0 0 788 1005;" xml:space="preserve">
<style type="text/css">
	.st0{fill:#28221E;}
	.st1{clip-path:url(#SVGID_00000145032696962819250660000006641913180195434175_);}
	.st2{fill:#7F4A2F;}
	.st3{clip-path:url(#SVGID_00000003073855134432549590000002970821103597257861_);}
	.st4{fill:#8E5736;}
	.st5{fill:#603813;}
</style>
<path class="st0" d="M313.3,275c1.4,3.2-19.5,46.8-24.4,64.6c-8.2,30.3,23.5,57.3,35.9,66.5c2.8,2.1,6.5,2.9,9.9,2
	c22.6-5.4,34.8-6.5,34.8-6.5l2-52.4c0,0-33.4-56.3-32.8-59.6S313.3,275,313.3,275z"/>
<path class="st0" d="M449.7,331.2c0,0,10.1,7,14.8,2.1c5.6-5.8,1.5-36.3,5.2-29.5c6.7,12,20.5,35.6,26.2,42.2
	c12.7,14.6-14.6,57.3-31.1,57.7c-20.8,0.4-44.6,3-48.4-6c-3-7.2,14.1-31,14.1-31L449.7,331.2z"/>
<g id="random">
	<g>
		<defs>
			<polygon id="SVGID_1_" points="458.3,308.8 458.3,308.8 495.6,308.8 495.6,363.3 458.3,363.3 			"/>
		</defs>
		<clipPath id="SVGID_00000174594065375755639770000005867682335171302334_">
			<use xlink:href="#SVGID_1_"  style="overflow:visible;"/>
		</clipPath>
		<g style="clip-path:url(#SVGID_00000174594065375755639770000005867682335171302334_);">
			<path class="st2" d="M458.3,358.7l7.2-40c0,0,14.2-16.4,26.5-6.8c8.2,6.4,1.3,47.3-8.2,50C467.7,366.4,458.3,358.7,458.3,358.7z"
				/>
		</g>
	</g>
</g>
<g id="random2">
	<g>
		<defs>
			<polygon id="SVGID_00000024690254649850946260000016439631954086866055_" points="326.1,308.8 326.1,308.8 288.8,308.8 
				288.8,363.3 326.1,363.3 			"/>
		</defs>
		<clipPath id="SVGID_00000147914957073024082340000010302059562726488733_">
			<use xlink:href="#SVGID_00000024690254649850946260000016439631954086866055_"  style="overflow:visible;"/>
		</clipPath>
		<g style="clip-path:url(#SVGID_00000147914957073024082340000010302059562726488733_);">
			<path class="st2" d="M326.1,358.7l-7.2-40c0,0-14.2-16.4-26.5-6.8c-8.2,6.4-1.3,47.3,8.2,50C316.8,366.4,326.1,358.7,326.1,358.7
				z"/>
		</g>
	</g>
</g>
<path class="st4" d="M396.5,214.3h-3c-44.5,0-75.8,28.5-75.8,73.1c0,0,0.9,36.6,3.1,52c1.8,12.4,4.3,26.4,19.6,47.6
	c8.9,12.3,36.5,24.2,52.4,25.8l0,0c15.9-1.6,46.3-14,55.2-26.3c15.4-21.2,17.9-35.2,19.6-47.6c2.2-15.5,3.1-52,3.1-52
	c0-44.5-31.3-73.1-75.8-73.1h-3"/>
<path class="st0" d="M300.6,308.8c7.3-10.4,20.4,4.5,20.4,4.5s-8.5-51.1,73.4-63.5c47.7-7.2,31.1-46.7,19.1-48s-33.8,1.9-43.3,3.5
	c-6.6,1.1-26.6,3.4-40,14c-10.6,8.4-22.1,17.5-33.5,42c-6.2,13.5-5.8,29,1.2,42.1L300.6,308.8z"/>
<path class="st0" d="M528,359.3c-32.1-13.3-55.2-143.6-72.4-147.9c-24.8-6.2-32.9,6.6-32.9,6.6l-9,18.6c0,0,46.3,6.6,46.3,35.8
	S487.7,382,528,359.3"/>
<path class="st5" d="M380.8,359.3c-1,0.1-1.4,0.7-0.6,1c3,1.2,8.6,3.3,12.3,3.3c3.5,0,8.9-2.1,11.7-3.3c0.8-0.3,0.4-0.9-0.6-1
	c-3.3-0.2-4.7,0.6-11.4,0.6C386.4,360,384.1,359.1,380.8,359.3z"/>
</svg>
