<?xml version="1.0" encoding="utf-8"?>
<!-- Generator: Adobe Illustrator 26.0.0, SVG Export Plug-In . SVG Version: 6.00 Build 0)  -->
<svg version="1.1" id="Calque_9" xmlns="http://www.w3.org/2000/svg" xmlns:xlink="http://www.w3.org/1999/xlink" x="0px" y="0px"
	 viewBox="0 0 200 200" style="enable-background:new 0 0 200 200;" xml:space="preserve">
<style type="text/css">
	.st0{fill:#6F412A;}
	.st1{fill:#90573A;}
	.st2{fill:#1E1817;}
</style>
<path class="st0" d="M131.2,131.1l8.1-24.5c0,0,7.9-8.1,13.6-2.5c3.8,3.8-5.1,29-10,30C134.7,135.9,131.2,131.1,131.2,131.1z"/>
<path class="st0" d="M64.8,131.1l-8.1-24.5c0,0-7.9-8.1-13.6-2.5c-3.8,3.8,5.1,29,10,30C61.4,135.9,64.8,131.1,64.8,131.1z"/>
<g>
	<path class="st1" d="M98,43v124.6c15.8,0,43.3-33,43.3-79C141.3,54.2,121.9,43,98,43z"/>
	<path class="st1" d="M54.7,88.6c0,46,27.5,79,43.3,79L98,43C74.1,43,54.7,54.2,54.7,88.6z"/>
</g>
<path class="st1" d="M72.9,39.2c-0.3-0.7,21.9-9.9,21.9-9.9l4.3-0.7l1.6,0.6c0,0,8.8,2.4,9.3,4.7s2,14.8,2,14.8l-7.7,1.6l-6.2-2.3
	c0,0-8.1,0-9.7-0.7S72.9,39.2,72.9,39.2z"/>
<path class="st2" d="M97.8,46.7c-0.3,0.5-0.6,1-1,1.5C88.2,59.3,58.6,67.3,55.7,80c-3.1,13.2,1.5,26.7,1.5,26.7s-5.6-3.8-6-3.9
	S27.4,52.4,72.1,32.3c20.1-9,25.8-3.2,25.8-3.2c0,0.2,0.1,0.4,0.3,0.6C99.3,31.6,104.2,35.8,97.8,46.7z"/>
<path class="st2" d="M143.9,104.1c-0.4,0.1-5.5,3.9-5.5,3.9s4.2-13.4,1.4-26.7S107.6,60.1,101,48.1c0.3-0.5,0.6-1,0.9-1.5
	c5.8-10.8,1.4-15,0.2-17c2.4-1.2,8.9-2.7,22.5,4C165.9,53.8,144.3,104,143.9,104.1z"/>
</svg>
