<?xml version="1.0" encoding="utf-8"?>
<!-- Generator: Adobe Illustrator 26.0.0, SVG Export Plug-In . SVG Version: 6.00 Build 0)  -->
<svg version="1.1" id="Calque_9" xmlns="http://www.w3.org/2000/svg" xmlns:xlink="http://www.w3.org/1999/xlink" x="0px" y="0px"
	 viewBox="0 0 200 200" style="enable-background:new 0 0 200 200;" xml:space="preserve">
<style type="text/css">
	.st0{fill:#3A201D;}
	.st1{clip-path:url(#SVGID_00000177447255881286066080000013716245898355310015_);}
	.st2{fill:#6F412A;}
	.st3{clip-path:url(#SVGID_00000159466424551705753480000008642337695192602807_);}
	.st4{clip-path:url(#SVGID_00000060709900810233104890000006177982639721934469_);}
	.st5{fill:#6D3B25;}
	.st6{clip-path:url(#SVGID_00000132799225957486897220000003546768736702376841_);}
	.st7{clip-path:url(#SVGID_00000085232444256864138100000017424807253796400549_);}
	.st8{fill:#FFFFFF;}
	.st9{clip-path:url(#SVGID_00000009581515521998332670000008959852375476088230_);}
	.st10{clip-path:url(#SVGID_00000014624764806295170760000005023416497643311548_);}
	.st11{fill:#050505;}
	.st12{clip-path:url(#SVGID_00000031904679079108957990000010491830466229501825_);}
	.st13{fill:none;stroke:#6D3B25;stroke-width:2;stroke-linecap:round;stroke-miterlimit:10;}
	.st14{clip-path:url(#SVGID_00000107572234393709603390000006180507060728050097_);}
	.st15{fill:#90573A;}
	.st16{clip-path:url(#SVGID_00000131352644254123532500000000121043379621097605_);}
</style>
<path class="st0" d="M154.2,190.9c-14.5-4-32.2-4.3-37.8-12.4l-1-27.7l-0.7-20.2l-18.3-0.8h-2.1L76,130.6l-0.7,20.2l-0.9,25.9
	c-8.5-10.9-15.4-24.6-20.1-40.2c-13.8-46.1-1.9-88.9,31.4-98.9s71,16.8,84.7,62.9C181.2,136.6,173.9,172.3,154.2,190.9z"/>
<g id="_Répétition_miroir_">
	<g>
		<defs>
			<polygon id="SVGID_1_" points="126.2,109 126.2,109 149.4,109 149.4,141.4 126.2,141.4 			"/>
		</defs>
		<clipPath id="SVGID_00000088837459136050484220000000497615830595536540_">
			<use xlink:href="#SVGID_1_"  style="overflow:visible;"/>
		</clipPath>
		<g style="clip-path:url(#SVGID_00000088837459136050484220000000497615830595536540_);">
			<path class="st2" d="M126.2,138l8.3-24.5c0,0,8.1-8.1,14-2.5c3.9,3.8-5.2,29-10.1,30C129.7,142.7,126.2,138,126.2,138z"/>
		</g>
	</g>
</g>
<g id="_Répétition_miroir_2">
	<g>
		<defs>
			<polygon id="SVGID_00000182523427944710255010000013595024614499739023_" points="64.6,109 64.6,109 41.3,109 41.3,141.4 
				64.6,141.4 			"/>
		</defs>
		<clipPath id="SVGID_00000029044424621262832710000000369365063481442454_">
			<use xlink:href="#SVGID_00000182523427944710255010000013595024614499739023_"  style="overflow:visible;"/>
		</clipPath>
		<g style="clip-path:url(#SVGID_00000029044424621262832710000000369365063481442454_);">
			<path class="st2" d="M64.6,138l-8.3-24.5c0,0-8.1-8.1-14-2.5c-3.9,3.8,5.2,29,10.1,30C61,142.7,64.6,138,64.6,138z"/>
		</g>
	</g>
</g>
<g>
	<defs>
		<polygon id="SVGID_00000036956074885466826830000000034504573210600857_" points="108.3,85.4 108.3,85.4 131.8,85.4 131.8,92.5 
			108.3,92.5 		"/>
	</defs>
	<clipPath id="SVGID_00000065757946449339693170000012716999454843845790_">
		<use xlink:href="#SVGID_00000036956074885466826830000000034504573210600857_"  style="overflow:visible;"/>
	</clipPath>
	<g style="clip-path:url(#SVGID_00000065757946449339693170000012716999454843845790_);">
		<path class="st5" d="M130.6,92.5c-0.2,0-0.3,0-0.4-0.1c-2.3-1-4.7-1.7-7.2-2.4c-7.9-1.8-8.4-0.5-11.1,0c-1.1,0.1-2.2-0.2-3.1-0.8
			c-0.4-0.5-0.8-2.1-0.3-2.5c0.2-0.2,3.7-2.6,12.7-0.5c3.8,0.8,9.7,4.1,9.8,4.2c0.6,0.2,0.8,0.9,0.6,1.5
			C131.5,92.2,131.1,92.5,130.6,92.5z"/>
	</g>
</g>
<g>
	<defs>
		<polygon id="SVGID_00000181077532971257732430000007121109441179117476_" points="85.6,85.4 85.6,85.4 62.1,85.4 62.1,92.5 
			85.6,92.5 		"/>
	</defs>
	<clipPath id="SVGID_00000138533734974452310140000017999035850291213479_">
		<use xlink:href="#SVGID_00000181077532971257732430000007121109441179117476_"  style="overflow:visible;"/>
	</clipPath>
	<g style="clip-path:url(#SVGID_00000138533734974452310140000017999035850291213479_);">
		<path class="st5" d="M63.2,92.5c0.2,0,0.3,0,0.4-0.1c2.3-1,4.7-1.7,7.2-2.3c7.9-1.8,8.4-0.5,11.1,0c1.1,0.1,2.2-0.2,3.1-0.8
			c0.4-0.5,0.8-2.1,0.3-2.5c-0.2-0.2-3.7-2.6-12.7-0.5c-3.8,0.8-9.7,4.1-9.8,4.2c-0.6,0.2-0.8,0.9-0.6,1.5
			C62.4,92.2,62.8,92.5,63.2,92.5L63.2,92.5z"/>
	</g>
</g>
<g>
	<defs>
		<polygon id="SVGID_00000136403655331528855460000013108596035025749892_" points="113.3,99.5 113.3,99.5 128.4,99.5 128.4,114 
			113.3,114 		"/>
	</defs>
	<clipPath id="SVGID_00000136383724249115362280000015485218667840006319_">
		<use xlink:href="#SVGID_00000136403655331528855460000013108596035025749892_"  style="overflow:visible;"/>
	</clipPath>
	<g style="clip-path:url(#SVGID_00000136383724249115362280000015485218667840006319_);">
		<ellipse class="st8" cx="120.9" cy="106.7" rx="7.5" ry="7.3"/>
	</g>
</g>
<g>
	<defs>
		<polygon id="SVGID_00000105408025665673522060000006510257924249221561_" points="80.5,99.5 80.5,99.5 65.5,99.5 65.5,114 
			80.5,114 		"/>
	</defs>
	<clipPath id="SVGID_00000123403631395004640960000015717510285344530582_">
		<use xlink:href="#SVGID_00000105408025665673522060000006510257924249221561_"  style="overflow:visible;"/>
	</clipPath>
	<g style="clip-path:url(#SVGID_00000123403631395004640960000015717510285344530582_);">
		<ellipse class="st8" cx="73" cy="106.7" rx="7.5" ry="7.3"/>
	</g>
</g>
<g>
	<defs>
		<polygon id="SVGID_00000101072579489252670220000015229960907267177646_" points="115.8,102.8 115.8,102.8 125.9,102.8 
			125.9,112.8 115.8,112.8 		"/>
	</defs>
	<clipPath id="SVGID_00000088112268176450939930000001626680894646496434_">
		<use xlink:href="#SVGID_00000101072579489252670220000015229960907267177646_"  style="overflow:visible;"/>
	</clipPath>
	<g style="clip-path:url(#SVGID_00000088112268176450939930000001626680894646496434_);">
		<circle class="st11" cx="120.8" cy="107.8" r="5"/>
	</g>
</g>
<g>
	<defs>
		<polygon id="SVGID_00000111877717002628352030000017880864716108119484_" points="78.1,102.8 78.1,102.8 68,102.8 68,112.8 
			78.1,112.8 		"/>
	</defs>
	<clipPath id="SVGID_00000178183947718998418550000003888559656436839098_">
		<use xlink:href="#SVGID_00000111877717002628352030000017880864716108119484_"  style="overflow:visible;"/>
	</clipPath>
	<g style="clip-path:url(#SVGID_00000178183947718998418550000003888559656436839098_);">
		<circle class="st11" cx="73.1" cy="107.8" r="5"/>
	</g>
</g>
<path class="st13" d="M90.7,125.6c2.3,0.6,4.6,1.1,7,1.3c1.7,0,7-1.7,7-1.7"/>
<path class="st13" d="M82.4,132.3c0.8,0.5,1.6,0.9,2.5,1.2c3.9,1.3,8.1,1.9,12.2,1.7c3.9,0,7.8-0.6,11.4-1.9c1.2-0.4,2.3-1,3.3-1.8"
	/>
<g id="_Répétition_miroir_3">
	<g>
		<defs>
			<rect id="SVGID_00000140724833072780674650000010638386071154420388_" x="55.7" y="44.6" width="41.2" height="125.2"/>
		</defs>
		<clipPath id="SVGID_00000142881340719296424860000008493465820799050882_">
			<use xlink:href="#SVGID_00000140724833072780674650000010638386071154420388_"  style="overflow:visible;"/>
		</clipPath>
		<g style="clip-path:url(#SVGID_00000142881340719296424860000008493465820799050882_);">
			<path class="st15" d="M93,169.2c-8.6-2.2-22.8-18.6-27.1-25.6c-4-6.6-7.6-19-8.5-25.8c-1.2-8.4-1.7-33.8-1.7-33.8
				c0-24.1,16.9-39.5,41-39.5h1.6c24.1,0,44,15.4,44,39.5v7.1l-1.7,27.1c0,0-2.2,17.4-6.2,24c-4.2,7-17.1,20-25.3,24.4
				C104.2,169.2,98.5,170.6,93,169.2z"/>
		</g>
	</g>
</g>
<g id="_Répétition_miroir_4">
	<g>
		<defs>
			<rect id="SVGID_00000129909443022683428890000014547238808966100159_" x="95.9" y="44.6" width="41.2" height="125.2"/>
		</defs>
		<clipPath id="SVGID_00000174589505311065603920000002252617777427024298_">
			<use xlink:href="#SVGID_00000129909443022683428890000014547238808966100159_"  style="overflow:visible;"/>
		</clipPath>
		<g style="clip-path:url(#SVGID_00000174589505311065603920000002252617777427024298_);">
			<path class="st15" d="M99.8,169.2c8.6-2.2,22.8-18.6,27.1-25.6c4-6.6,7.6-19,8.5-25.8c1.2-8.4,1.7-33.8,1.7-33.8
				c0-24.1-16.9-39.5-41-39.5h-1.6c-24.1,0-44,15.4-44,39.5v7.1l1.7,27.1c0,0,2.2,17.4,6.2,24c4.2,7,17.1,20,25.3,24.4
				C88.7,169.2,94.4,170.6,99.8,169.2z"/>
		</g>
	</g>
</g>
<path class="st0" d="M56.1,115.9l-8.3-5.7c0,0-8-12.4-8-25c0-16,29-43.5,45.3-46.5c4.4-0.8,9,0.5,12.4,3.4c0,0,18.7-0.6,24.3,1.7
	c25.5,10.6,30.6,28,29.8,39.7c-0.7,8.7-2.9,17.3-6.5,25.3l-9.3,3l-0.5-19.2l-12.5-9c0,0-6.7-11-6.4-11s2.4,9.9,2.4,9.9
	s-11.2,0.6-14.2-1.3c-2.2-1.4-5.1-8.9-5.1-8.9s-9.1,7.6-12.2,9.4c-3.6,2.1-11.5,2.8-11.5,2.8l1.3-12.8L66.9,85.2l-11.3,9L56.1,115.9
	z"/>
</svg>
