<?xml version="1.0" encoding="utf-8"?>
<!-- Generator: Adobe Illustrator 26.0.0, SVG Export Plug-In . SVG Version: 6.00 Build 0)  -->
<svg version="1.1" id="Calque_9" xmlns="http://www.w3.org/2000/svg" xmlns:xlink="http://www.w3.org/1999/xlink" x="0px" y="0px"
	 viewBox="0 0 200 200" style="enable-background:new 0 0 200 200;" xml:space="preserve">
<style type="text/css">
	.st0{fill:#6F412A;}
	.st1{fill:#8C5C4B;}
	.st2{fill:#90573A;}
	.st3{fill:#281E1B;}
</style>
<path class="st0" d="M131.2,130.2l8.1-24.5c0,0,7.9-8.1,13.6-2.5c3.8,3.8-5.1,29-10,30C134.7,135,131.2,130.2,131.2,130.2z"/>
<path class="st1" d="M64.8,130.2l-8.1-24.5c0,0-7.9-8.1-13.6-2.5c-3.8,3.8,5.1,29,10,30C61.4,135,64.8,130.2,64.8,130.2z"/>
<path class="st2" d="M98,42c-23.9,0-43.3,11.2-43.3,45.7c0,46,27.4,79,43.3,79v0c15.8,0,43.3-33,43.3-79C141.3,53.2,121.9,42,98,42z
	"/>
<path class="st3" d="M127.7,53.6c0,0-13.5,7.5-29.5,7.1s-47.7,8.5-41.4,45s-4.3,47.2-17.3,45.7s-15.7-11.1-15.7-11.1
	s14.2-12.1,18.5-62.1c5-57.9,74.2-78.8,92.9-26.6c0,0,2,4.3-2.1,5.2L127.7,53.6z"/>
<path class="st3" d="M135.6,65.2c-0.4-1-1.2-3.5-0.7-4.5c1.9-3.2,4.1-0.1,5.3,2c1.3,2.3,2.7,7.5-1.4,6.8
	C137.5,69.2,136.1,66.4,135.6,65.2z"/>
<path class="st3" d="M139.5,80.6c-0.1-1.1-0.2-3.8,0.6-4.5c2.6-2.5,3.9,1,4.5,3.3c0.6,2.6,0.5,7.9-3.1,6.2
	C140.3,85.1,139.7,82,139.5,80.6z"/>
<path class="st3" d="M139.6,94c0.1-1.1,0.7-3.7,1.7-4.2c3.2-1.8,3.6,2,3.6,4.3c0,2.6-1.4,7.8-4.6,5.2
	C139.2,98.4,139.4,95.3,139.6,94z"/>
</svg>
