<?xml version="1.0" encoding="utf-8"?>
<!-- Generator: Adobe Illustrator 26.0.0, SVG Export Plug-In . SVG Version: 6.00 Build 0)  -->
<svg version="1.1" id="Calque_9" xmlns="http://www.w3.org/2000/svg" xmlns:xlink="http://www.w3.org/1999/xlink" x="0px" y="0px"
	 viewBox="0 0 200 200" style="enable-background:new 0 0 200 200;" xml:space="preserve">
<style type="text/css">
	.st0{fill:#231713;}
	.st1{fill:#434245;}
	.st2{clip-path:url(#SVGID_00000156572742973432105650000013676437422068755075_);}
	.st3{fill:#955A40;}
	.st4{clip-path:url(#SVGID_00000060724849345302628870000015602158450778935183_);}
	.st5{clip-path:url(#SVGID_00000036224848895506521540000000838879805428750269_);}
	.st6{fill:#6D3B25;}
	.st7{clip-path:url(#SVGID_00000126308557650499450010000011597247840505852587_);}
	.st8{clip-path:url(#SVGID_00000044863724928335444650000017280529318306792859_);}
	.st9{fill:#FFFFFF;}
	.st10{clip-path:url(#SVGID_00000073721242056281468860000003648450550732635779_);}
	.st11{clip-path:url(#SVGID_00000082328965750207660450000015735016735158792598_);}
	.st12{fill:#050505;}
	.st13{clip-path:url(#SVGID_00000098912895232568295030000000767537496505887418_);}
	.st14{clip-path:url(#SVGID_00000083090286398015120550000017452961580816818050_);}
	.st15{fill:#B9785C;}
	.st16{clip-path:url(#SVGID_00000183931296690998811550000007934608815647756179_);}
	.st17{clip-path:url(#SVGID_00000007417275703828061840000005279024160157110656_);}
	.st18{fill:#90573A;}
	.st19{clip-path:url(#SVGID_00000151501182613824147830000010456557987485141434_);}
</style>
<path class="st0" d="M90.2,51.2c5.2,1.4,4.9,6.8-0.4,8.1c-6.7,1.7-15.7,6.3-19.7,19.2c-4.3,13.8-1.4,58,1.1,71.1
	c5.1,26.5,7.6,42.3,0,43.6c-3.4,0.6-3.8-34.9-6-45C62.2,135,59,108,58,97.2c-1-11.6,0.2-24.8,3.4-30.7
	C70.2,50.5,82.4,49.1,90.2,51.2z"/>
<path class="st1" d="M85.7,68.1c-13.6-10-5.7-32.2,24.8-27.3c11.6,1.9,24.5,3.2,34.8,20.9c10.6,18.2,0.4,37.8,0.4,37.8
	s-15.3-26.9-23-33.5c-8.8-7.5-9.9-1.4-26.3-6.3C81.8,55.4,88.9,70.5,85.7,68.1z"/>
<g>
	<defs>
		<polygon id="SVGID_1_" points="135.3,114.7 135.3,114.7 146.7,114.7 146.7,128.6 135.3,128.6 		"/>
	</defs>
	<clipPath id="SVGID_00000165205295149922396540000002485980625799109015_">
		<use xlink:href="#SVGID_1_"  style="overflow:visible;"/>
	</clipPath>
	<g style="clip-path:url(#SVGID_00000165205295149922396540000002485980625799109015_);">
		<path class="st3" d="M135.6,122.8c0-0.2,0.7-1.6,5.3-5.3c1.5-1.3,3.4-2.3,5.3-2.8c0.5,0.5,0.6,1.2,0.5,1.9c-0.1,0.8-4.2,2.9-5.4,4
			c-1.9,1.7-6,7.8-6,8L135.6,122.8z"/>
	</g>
</g>
<g>
	<defs>
		<polygon id="SVGID_00000150798355945869441670000004171590155726638015_" points="57.8,114.7 57.8,114.7 46.4,114.7 46.4,128.6 
			57.8,128.6 		"/>
	</defs>
	<clipPath id="SVGID_00000141453120991220746360000006054151997514984367_">
		<use xlink:href="#SVGID_00000150798355945869441670000004171590155726638015_"  style="overflow:visible;"/>
	</clipPath>
	<g style="clip-path:url(#SVGID_00000141453120991220746360000006054151997514984367_);">
		<path class="st3" d="M57.5,122.8c0-0.2-0.7-1.6-5.3-5.3c-1.5-1.3-3.4-2.3-5.3-2.8c-0.5,0.5-0.6,1.2-0.5,1.9c0.1,0.8,4.2,2.9,5.4,4
			c2.3,2.5,4.3,5.1,6,8L57.5,122.8z"/>
	</g>
</g>
<g>
	<defs>
		<polygon id="SVGID_00000067946550643014329750000003487126157549681844_" points="106.1,87.5 106.1,87.5 129.6,87.5 129.6,94.6 
			106.1,94.6 		"/>
	</defs>
	<clipPath id="SVGID_00000003091588654191484200000001621108419544244126_">
		<use xlink:href="#SVGID_00000067946550643014329750000003487126157549681844_"  style="overflow:visible;"/>
	</clipPath>
	<g style="clip-path:url(#SVGID_00000003091588654191484200000001621108419544244126_);">
		<path class="st6" d="M128.4,94.6c-0.2,0-0.3,0-0.4-0.1c-2.3-1-4.7-1.7-7.2-2.3c-7.9-1.8-8.4-0.5-11.1,0c-1.1,0.1-2.2-0.2-3.1-0.8
			c-0.4-0.5-0.8-2.1-0.3-2.5c0.2-0.2,3.7-2.6,12.7-0.5c3.8,0.8,9.7,4.1,9.8,4.2c0.6,0.2,0.8,0.9,0.6,1.5
			C129.3,94.3,128.9,94.6,128.4,94.6z"/>
	</g>
</g>
<g>
	<defs>
		<polygon id="SVGID_00000002385210760928177130000013539013681845419433_" points="83.4,87.5 83.4,87.5 59.9,87.5 59.9,94.6 
			83.4,94.6 		"/>
	</defs>
	<clipPath id="SVGID_00000175306056122095675410000017441774967276978615_">
		<use xlink:href="#SVGID_00000002385210760928177130000013539013681845419433_"  style="overflow:visible;"/>
	</clipPath>
	<g style="clip-path:url(#SVGID_00000175306056122095675410000017441774967276978615_);">
		<path class="st6" d="M61.1,94.6c0.2,0,0.3,0,0.4-0.1c2.3-1,4.7-1.7,7.2-2.3c7.9-1.8,8.4-0.5,11.1,0c1.1,0.1,2.2-0.2,3.1-0.8
			c0.4-0.5,0.8-2.1,0.3-2.5c-0.2-0.2-3.7-2.6-12.7-0.5c-3.8,0.8-9.7,4.1-9.8,4.2c-0.6,0.2-0.9,0.9-0.6,1.5c0,0,0,0,0,0
			C60.2,94.4,60.6,94.6,61.1,94.6z"/>
	</g>
</g>
<g>
	<defs>
		<polygon id="SVGID_00000050634133771883847930000017584974706928088464_" points="111.2,101.6 111.2,101.6 126.2,101.6 
			126.2,116.1 111.2,116.1 		"/>
	</defs>
	<clipPath id="SVGID_00000024719733044260323290000000888085455053910664_">
		<use xlink:href="#SVGID_00000050634133771883847930000017584974706928088464_"  style="overflow:visible;"/>
	</clipPath>
	<g style="clip-path:url(#SVGID_00000024719733044260323290000000888085455053910664_);">
		<ellipse class="st9" cx="118.7" cy="108.8" rx="7.5" ry="7.3"/>
	</g>
</g>
<g>
	<defs>
		<polygon id="SVGID_00000031924898220062144740000012650528210375211659_" points="78.3,101.6 78.3,101.6 63.3,101.6 63.3,116.1 
			78.3,116.1 		"/>
	</defs>
	<clipPath id="SVGID_00000125582353539939058510000001314758709346320805_">
		<use xlink:href="#SVGID_00000031924898220062144740000012650528210375211659_"  style="overflow:visible;"/>
	</clipPath>
	<g style="clip-path:url(#SVGID_00000125582353539939058510000001314758709346320805_);">
		<ellipse class="st9" cx="70.8" cy="108.8" rx="7.5" ry="7.3"/>
	</g>
</g>
<g>
	<defs>
		<polygon id="SVGID_00000055672248342023848580000016171184797501289149_" points="113.6,104.9 113.6,104.9 123.7,104.9 
			123.7,114.9 113.6,114.9 		"/>
	</defs>
	<clipPath id="SVGID_00000174580123143569549530000018278410087001301653_">
		<use xlink:href="#SVGID_00000055672248342023848580000016171184797501289149_"  style="overflow:visible;"/>
	</clipPath>
	<g style="clip-path:url(#SVGID_00000174580123143569549530000018278410087001301653_);">
		<circle class="st12" cx="118.6" cy="109.9" r="5"/>
	</g>
</g>
<g>
	<defs>
		<polygon id="SVGID_00000173875660216093703420000018046872445477284791_" points="75.9,104.9 75.9,104.9 65.8,104.9 65.8,114.9 
			75.9,114.9 		"/>
	</defs>
	<clipPath id="SVGID_00000152258943294565237270000011745055343058716544_">
		<use xlink:href="#SVGID_00000173875660216093703420000018046872445477284791_"  style="overflow:visible;"/>
	</clipPath>
	<g style="clip-path:url(#SVGID_00000152258943294565237270000011745055343058716544_);">
		<circle class="st12" cx="70.9" cy="109.9" r="5"/>
	</g>
</g>
<g id="_Répétition_miroir_">
	<g>
		<defs>
			<polygon id="SVGID_00000049943686700247676610000017963146537209028762_" points="127.4,110.3 127.4,110.3 151.9,110.3 
				151.9,144.3 127.4,144.3 			"/>
		</defs>
		<clipPath id="SVGID_00000036961098722736793740000010620515695008909700_">
			<use xlink:href="#SVGID_00000049943686700247676610000017963146537209028762_"  style="overflow:visible;"/>
		</clipPath>
		<g style="clip-path:url(#SVGID_00000036961098722736793740000010620515695008909700_);">
			<path class="st15" d="M127.4,140.7l8.7-25.7c0,0,8.5-8.5,14.7-2.6c4.1,3.9-5.4,30.5-10.7,31.5
				C131.2,145.7,127.4,140.7,127.4,140.7z"/>
		</g>
	</g>
</g>
<g id="_Répétition_miroir_2">
	<g>
		<defs>
			<polygon id="SVGID_00000113324838352213776640000007466120779040138429_" points="66.7,110.3 66.7,110.3 42.3,110.3 42.3,144.3 
				66.7,144.3 			"/>
		</defs>
		<clipPath id="SVGID_00000060032333478418921390000012615547904025119160_">
			<use xlink:href="#SVGID_00000113324838352213776640000007466120779040138429_"  style="overflow:visible;"/>
		</clipPath>
		<g style="clip-path:url(#SVGID_00000060032333478418921390000012615547904025119160_);">
			<path class="st15" d="M66.7,140.7L58,115c0,0-8.5-8.5-14.7-2.6c-4.1,3.9,5.4,30.5,10.7,31.5C63,145.7,66.7,140.7,66.7,140.7z"/>
		</g>
	</g>
</g>
<g id="_Répétition_miroir_3">
	<g>
		<defs>
			<rect id="SVGID_00000080203982072691413720000017095073221577906600_" x="54.3" y="44" width="41.2" height="125.2"/>
		</defs>
		<clipPath id="SVGID_00000150075894775556977730000015634209426244153273_">
			<use xlink:href="#SVGID_00000080203982072691413720000017095073221577906600_"  style="overflow:visible;"/>
		</clipPath>
		<g style="clip-path:url(#SVGID_00000150075894775556977730000015634209426244153273_);">
			<path class="st18" d="M140.9,83.4v7.1l-1.7,27.1c0,0-2.2,17.4-6.1,24c-4.2,7-17.1,19.9-25.3,24.3c-4.9,2.6-10.7,4-16.1,2.6
				C83,166.4,68.8,150,64.6,143c-4-6.6-7.6-19-8.5-25.8c-1.2-8.4-1.7-33.7-1.7-33.7c0-24.1,16.9-39.5,41-39.5h1.6
				c12,0,23,3.8,31,10.7C136.3,61.9,141.1,72.4,140.9,83.4z"/>
		</g>
	</g>
</g>
<g id="_Répétition_miroir_4">
	<g>
		<defs>
			<rect id="SVGID_00000028299823521757119660000000669932962782251166_" x="94.5" y="44" width="41.2" height="125.2"/>
		</defs>
		<clipPath id="SVGID_00000077312625506923732990000008051433464880968586_">
			<use xlink:href="#SVGID_00000028299823521757119660000000669932962782251166_"  style="overflow:visible;"/>
		</clipPath>
		<g style="clip-path:url(#SVGID_00000077312625506923732990000008051433464880968586_);">
			<path class="st18" d="M49.2,83.4v7.1l1.7,27.1c0,0,2.2,17.4,6.2,24c4.2,7,17.1,19.9,25.3,24.3c4.9,2.6,10.7,4,16.1,2.6
				c8.6-2.2,22.8-18.6,27.1-25.6c4-6.6,7.6-19,8.5-25.8c1.2-8.4,1.7-33.7,1.7-33.7c0-24.1-16.9-39.5-41-39.5h-1.6
				c-12,0-23,3.8-31,10.7C53.7,61.8,49,72.4,49.2,83.4z"/>
		</g>
	</g>
</g>
<path class="st0" d="M87.7,42.5c-12.7,6,10.7,15.8,16.2,16.9c6.9,1.4,20.7,2.8,24.4,17.8c8.6,34.9-12.1,97.6-16.3,112.8
	c-0.6,2,8.3,6.5,9.7,3.1c1.3-3.1,3.4-18.5,5.1-24.6c4.5-16.3,19.6-51.8,20.6-64.4c1-13.7,4.9-31.8,2.1-38.6
	C140.2,44,103.9,34.8,87.7,42.5z"/>
<path class="st0" d="M98.2,51.1c-4.9,2.7-5.6,8.2,0,8.3c7.1,0.1,24.6,3.6,31.4,15.9c7.3,13.2,7.2,46.5,3.9,71
	c-3.7,27.1-4,35.1,1.3,49.5c1.2,3.4,7.1,4.8,12.4-49.5c1.4-14.2-10.2-50.9-0.8-55.4c0.9-0.4-5.2-26.1-9.7-31.4
	C124.4,45,105.5,47.1,98.2,51.1z"/>
<path class="st0" d="M103.7,57.9c-4.2,3.7,0.4,8,5.9,6.9c6.9-1.3,16.3-6.9,25.5,3.7c9.9,11.4-5.8,22.4,3.3,45.4
	c15.3,38.4,1.1,80.6,10.7,84.6c11.6,4.8,10.2-41.7-3-89.1c-3.8-13.7,1.2-18.8,2.3-30.2c1.9-20.1-6.5-22.4-11.8-26.5
	C128.5,46.5,110.1,52.4,103.7,57.9z"/>
<path class="st0" d="M102.9,53.8c3.5,3.2-3.1,8.5-7.7,7.1c-5.8-1.8-9.3-1.2-20.8,4.6C46.6,79.5,56.7,146,56.3,158.9
	c-0.6,17.8,4.2,24.6,1.7,30.8c-7,17.6-10.3-4.1-8.6-50.9c0.5-12.7-1.3-56.2,3.5-65.4c5.2-10,15.8-16.5,21.2-19.8
	C89,44.7,87.1,39.1,102.9,53.8z"/>
<path class="st0" d="M101.5,57.8c4.8,2.4,3.2,7.2-2.2,7C83.3,64.2,79,69.6,71,79.9c-20,25.9-2.8,76.5-1.4,89.1
	c3,27.5,5.7,44.4-3.8,40.3c-18.3-7.9,4.4-15.4-12.7-60.1c-4.6-12.2,0.9-43.3,2.2-53.5c1.5-11,2.2-22.2,6.6-26.9
	C73.9,55.8,94.3,54.1,101.5,57.8z"/>
<path class="st0" d="M106.9,62.8c-2.3,4.9-6.8-1.6-10.5-3c-8.7-3.4-30.1,2-37.7,8.9c-15.9,14.6-2.7,52.2-3.8,58.6
	c-1.9,11.4-1.3,21.4-2.7,22.2c-0.2,0.1-4.3-32-7.4-57c-1.9-14.8,6.1-36.2,18.1-43.6c9.5-5.9,18.3-6.1,26.1-2.8
	C94.5,48.5,113.9,47.7,106.9,62.8z"/>
<path class="st0" d="M101,54.5c-12.5-8.6-45-4.2-45,34.7c0,66.8-15.1,84-10.7,88.1C66.8,197.2,49.7,82.4,77,64.3
	c17.4-11.6,30-0.8,30-0.8S104.8,51.2,95,53"/>
</svg>
