<?xml version="1.0" encoding="utf-8"?>
<!-- Generator: Adobe Illustrator 26.0.0, SVG Export Plug-In . SVG Version: 6.00 Build 0)  -->
<svg version="1.1" id="Calque_9" xmlns="http://www.w3.org/2000/svg" xmlns:xlink="http://www.w3.org/1999/xlink" x="0px" y="0px"
	 viewBox="0 0 788 1005" style="enable-background:new 0 0 788 1005;" xml:space="preserve">
<style type="text/css">
	.st0{fill:#281E1B;}
	.st1{fill:#6F412A;}
	.st2{fill:#90573A;}
</style>
<ellipse class="st0" cx="394.1" cy="222.2" rx="50" ry="48"/>
<path class="st1" d="M427.2,268.5l8.1-24.5c0,0,7.9-8.1,13.6-2.5c3.8,3.8-5.1,29-10,30C430.7,273.3,427.2,268.5,427.2,268.5z"/>
<path class="st1" d="M360.8,268.5l-8.1-24.5c0,0-7.9-8.1-13.6-2.5c-3.8,3.8,5.1,29,10,30C357.3,273.3,360.8,268.5,360.8,268.5z"/>
<path class="st2" d="M393.9,180.4c-23.9,0-43.3,11.2-43.3,45.6c0,46,27.5,79,43.3,79c15.8,0,43.3-33,43.3-79
	C437.2,191.6,417.9,180.4,393.9,180.4z"/>
<path class="st0" d="M443.6,193.8c-0.8-2.6-3.6-4.1-6.3-3.3c-0.1,0-0.3,0.1-0.4,0.2c0.5-2.6,0-5.3-1.3-7.6c-0.5-0.8-1.3-1.5-2.2-1.9
	c-0.4-2.5-2.5-4.3-5-4.4c-1.1,0-2.3,0.4-3.1,1.2c-0.8-2.4-2.1-4.6-4-6.3c-4.6-4.4-11.7,2.6-7.1,7.1c1.9,1.8,2.7,5.1,0.9,7.3
	s-2.1,5,0,7.1c1.6,1.6,4.9,2.1,6.7,0.4c0.4,0.4,0.8,0.8,1.2,1.1c0.6,0.3,1.2,0.5,1.8,0.6c-0.1,0.2-0.2,0.4-0.3,0.6
	c-3.2,5.6,5.5,10.7,8.6,5.1c0.4-0.7,0.7-1.4,1.1-2.1c0,2.2-0.9,4.3-2.6,5.7c-4.9,4.2,2.2,11.3,7.1,7.1
	C443.7,207,445.6,200.1,443.6,193.8z"/>
<path class="st0" d="M447.3,217.5c0.9-1.5,1.6-3,2-4.7c1.7-6.2-7.9-8.9-9.6-2.7c-1,3.7-4.2,6.2-7,8.6c-2,1.8-1.8,5.3,0,7.1
	c1.3,1.3,3.1,1.7,4.8,1.2c-1.1,2.1-2.3,4.1-3.8,5.9c-1.6,2.1-0.3,5.6,1.8,6.8c2.6,1.5,5.2,0.4,6.8-1.8c3.4-4.5,5.9-9.6,7.3-15
	C450.3,220.8,449.3,218.5,447.3,217.5z"/>
<path class="st0" d="M413.9,168.3c-1.6-2.2-4.3-3.3-6.8-1.8c-1.3,0.9-2.2,2.2-2.5,3.8c-1-1.2-2.1-2.2-3.3-3.1
	c-1.8-1.4-4.5-0.7-6.1,0.8c-0.7-2.4-3.8-3.8-6.1-3.1c-1.3,0.3-2.4,1.3-3,2.5c-1.5-0.2-2.9,0.4-3.9,1.5c-0.6,0.7-1.2,1.5-1.7,2.3
	c-0.9-0.9-2.1-1.4-3.4-1.4c-0.3,0-0.7,0-1,0.1c-1.2-1-2.8-1.3-4.2-0.8c-2.5,1-4.4,3.2-5,5.9c-1.9-0.9-4.1-0.5-5.5,1
	c-0.3,0.3-0.6,0.6-0.8,1c-0.9,0.2-1.8,0.6-2.5,1.2c-2.6,2.3-4.3,5.3-5,8.6c-0.4-0.3-0.9-0.5-1.4-0.6c-2.7-0.7-5.4,0.9-6.1,3.5
	c-0.4,1.1-0.5,2.3-0.3,3.4c-1.5,1.2-2.2,3.2-1.7,5c0.4,1.7,1.2,3.3,2.1,4.8c-3.6-1.9-9.1,2.4-6.7,7.1c1.1,2.1,2.3,4,3.7,5.9
	c-2.2-0.4-4.4,0.5-5.5,2.4c-0.9,1.5-0.9,3.4,0,4.9c-2.4,1.6-3.6,5-1,7.7l1,1c-0.7,0.1-1.3,0.3-1.9,0.7c-2.2,1.4-3.3,4.5-1.8,6.9
	c1.3,2.1,3.6,3.4,6.1,3.4c2.1,0,3-0.4,4.7,0.1c1.5,0.4,3.1,0.1,4.3-0.8c2,1.3,4.5,1,6.2-0.6c1.8-1.8,2.1-5.4,0-7.1
	c-1-0.8-2-1.7-3-2.6c0.8,0,1.5-0.1,2.3-0.2c2.6-0.5,4.2-3.7,3.5-6.2c-0.3-1.2-1.1-2.2-2.1-2.8c0.1-0.1,0.2-0.2,0.4-0.3
	c1.8-1.8,2.1-5.3,0-7.1c-1.1-0.9-2.1-1.9-3-2.9c0.8,0.7,1.8,1.3,2.8,1.8c2.5,1.1,5.4,0.7,6.8-1.8c1.3-2.1,0.7-5.7-1.8-6.8
	c-0.8-0.4-1.5-0.9-2.1-1.5c0.3-0.1,0.6-0.2,1-0.3c4.3,1.4,9-4.4,5.1-8.3c-0.5-0.5-0.9-1.1-1.2-1.7c1.6,1.5,4,1.8,5.9,0.7
	c0.9-0.5,1.6-1.3,2-2.3c2.5,2.1,5.7,0.7,7.1-1.6c1.2,0.3,2.5,0.1,3.6-0.5c0.6-0.4,1.1-0.8,1.5-1.4c0.5,0.5,1.1,0.9,1.8,1.3
	c3.8,2.3,7.4-1.1,7.4-4.5c1.6,0.8,3.5,0.5,4.9-0.6c-0.1,2.5,0.9,4.8,3.5,5.5c2.4,0.6,5.8-0.8,6.1-3.5c0-0.2,0-0.4,0.1-0.5
	c1.8,4.2,9.5,3.5,9.6-2.1C416.9,178.9,417,172.4,413.9,168.3z"/>
</svg>
