<?xml version="1.0" encoding="utf-8"?>
<!-- Generator: Adobe Illustrator 26.0.1, SVG Export Plug-In . SVG Version: 6.00 Build 0)  -->
<svg version="1.1" id="Calque_1" xmlns="http://www.w3.org/2000/svg" xmlns:xlink="http://www.w3.org/1999/xlink" x="0px" y="0px"
	 viewBox="0 0 234.1 247.9" style="enable-background:new 0 0 234.1 247.9;" xml:space="preserve">
<style type="text/css">
	.st0{clip-path:url(#SVGID_00000178909336601310145200000018060903511054421120_);}
	.st1{fill:#B9785C;}
	.st2{clip-path:url(#SVGID_00000173873787914198431370000018352805313126446527_);}
	.st3{fill:#593723;}
	.st4{fill:#D68F72;}
	.st5{fill:#99533D;}
</style>
<g id="Calque_13">
	<g id="random">
		<g>
			<g>
				<defs>
					<polygon id="SVGID_1_" points="169.5,143.9 169.5,143.9 206.8,143.9 206.8,198.4 169.5,198.4 					"/>
				</defs>
				<clipPath id="SVGID_00000017475844700377954090000012982235129608568494_">
					<use xlink:href="#SVGID_1_"  style="overflow:visible;"/>
				</clipPath>
				<g style="clip-path:url(#SVGID_00000017475844700377954090000012982235129608568494_);">
					<path class="st1" d="M169.5,193.8l7.2-40c0,0,14.2-16.4,26.5-6.8c8.2,6.4,1.3,47.3-8.2,50C178.9,201.5,169.5,193.8,169.5,193.8
						z"/>
				</g>
			</g>
		</g>
	</g>
	<g id="random2">
		<g>
			<g>
				<defs>
					<polygon id="SVGID_00000169521881272876594520000000594394876892798641_" points="37.3,143.9 37.3,143.9 0,143.9 0,198.4 
						37.3,198.4 					"/>
				</defs>
				<clipPath id="SVGID_00000014628383287696972100000004354298619513654195_">
					<use xlink:href="#SVGID_00000169521881272876594520000000594394876892798641_"  style="overflow:visible;"/>
				</clipPath>
				<g style="clip-path:url(#SVGID_00000014628383287696972100000004354298619513654195_);">
					<path class="st1" d="M37.3,193.8l-7.2-40c0,0-14.2-16.4-26.5-6.8c-8.2,6.4-1.3,47.3,8.2,50C28,201.5,37.3,193.8,37.3,193.8z"/>
				</g>
			</g>
		</g>
	</g>
	<path class="st3" d="M8.8,105.8c-0.2-50.6,45.2-61,94.2-61s88.9,41.1,88.9,91.7s-88.2,16.3-104,19.6C80,166.3,9.1,177.8,8.8,105.8z
		"/>
	<path class="st4" d="M107.7,49.4h-3c-44.5,0-75.8,28.5-75.8,73.1c0,0,0.9,36.6,3.1,52c1.8,12.4,4.3,26.4,19.6,47.6
		c8.9,12.3,36.5,24.2,52.4,25.8l0,0c15.9-1.6,46.3-14,55.2-26.3c15.4-21.2,17.9-35.2,19.6-47.6c2.2-15.5,3.1-52,3.1-52
		c0-44.5-31.3-73.1-75.8-73.1h-3"/>
	<path class="st1" d="M105.6,92c-19.1,20.4-32.4,21.4-41.8,9.2l-39.1,21.2c0,0-14.8-65.3,77.8-76.7c0,0,71.4-1.9,83.7,67.6
		c4.6,26-36-4.8-36-4.8S114.8,116.7,105.6,92"/>
	<path class="st3" d="M39,57.8c0-25.8,105.8-108.3,178.2-13c49.3,65-25.2,1.3-25.2,27.1s22.6,29.3-3.2,29.3S39,83.5,39,57.8z"/>
	<path class="st5" d="M92,194.4c-1,0.1-1.4,0.7-0.6,1c3,1.2,8.6,3.3,12.3,3.3c3.5,0,8.9-2.1,11.7-3.3c0.8-0.3,0.4-0.9-0.6-1
		c-3.3-0.2-4.7,0.6-11.4,0.6C97.6,195.1,95.3,194.2,92,194.4z"/>
	<path class="st3" d="M28.9,152.6l-5.1-3.3c0,0-15-21.5-14.9-43.5C9,78,63,30.3,93.4,25.2c8.2-1.4,16.6,0.8,23.2,5.9
		c0,0,34.9-1,45.3,3c47.5,18.3,57.1,48.6,55.7,68.9c-1.6,23.2-29.4,49.2-29.4,49.2l0,0l-1-33.4l-23.3-15.6c0,0-12.4-19.1-11.9-19.1
		s4.4,17.1,4.4,17.1s-20.9,1.1-26.5-2.2c-4-2.4-9.6-15.4-9.6-15.4s-17,13.2-22.9,16.3c-6.8,3.6-21.4,4.8-21.4,4.8l2.5-22.2l-19,23.1
		l-21.1,15.6L28.9,152.6z"/>
</g>
</svg>
