<?xml version="1.0" encoding="utf-8"?>
<!-- Generator: Adobe Illustrator 26.0.1, SVG Export Plug-In . SVG Version: 6.00 Build 0)  -->
<svg version="1.1" id="Calque_1" xmlns="http://www.w3.org/2000/svg" xmlns:xlink="http://www.w3.org/1999/xlink" x="0px" y="0px"
	 viewBox="0 0 248.5 211.3" style="enable-background:new 0 0 248.5 211.3;" xml:space="preserve">
<style type="text/css">
	.st0{fill:#593723;}
	.st1{clip-path:url(#SVGID_00000042723044708592868230000007558960942456710834_);}
	.st2{fill:#B9785C;}
	.st3{clip-path:url(#SVGID_00000058567646079872354610000010624785272155822997_);}
	.st4{fill:#D68F72;}
	.st5{fill:#99533D;}
</style>
<g id="Calque_13">
	<path class="st0" d="M31.1,73.5c1.4,3.2-19.5,46.8-24.4,64.6c-8.2,30.3,23.5,57.3,35.9,66.5c2.8,2.1,6.5,2.9,9.9,2
		c22.6-5.4,34.8-6.5,34.8-6.5l2-52.4c0,0-33.4-56.3-32.8-59.6S31.1,73.5,31.1,73.5z"/>
	<path class="st0" d="M167.5,129.7c0,0,10.1,7,14.8,2.1c5.6-5.8,1.5-36.3,5.2-29.5c6.7,12,20.5,35.6,26.2,42.2
		c12.7,14.6-14.6,57.3-31.1,57.7c-20.8,0.4-44.6,3-48.4-6c-3-7.2,14.1-31,14.1-31L167.5,129.7z"/>
	<g id="_Répétition_miroir_">
		<g>
			<g>
				<defs>
					<polygon id="SVGID_1_" points="176.1,107.3 176.1,107.3 213.4,107.3 213.4,161.8 176.1,161.8 					"/>
				</defs>
				<clipPath id="SVGID_00000052106127271247580020000014787879461484870063_">
					<use xlink:href="#SVGID_1_"  style="overflow:visible;"/>
				</clipPath>
				<g style="clip-path:url(#SVGID_00000052106127271247580020000014787879461484870063_);">
					<path class="st2" d="M176.1,157.2l7.2-40c0,0,14.2-16.4,26.5-6.8c8.2,6.4,1.3,47.3-8.2,50C185.5,164.9,176.1,157.2,176.1,157.2
						z"/>
				</g>
			</g>
		</g>
	</g>
	<g id="_Répétition_miroir_2">
		<g>
			<g>
				<defs>
					<polygon id="SVGID_00000067219014492404512230000000233620074488848550_" points="43.9,107.3 43.9,107.3 6.6,107.3 6.6,161.8 
						43.9,161.8 					"/>
				</defs>
				<clipPath id="SVGID_00000045618465275208339710000002175954199998555271_">
					<use xlink:href="#SVGID_00000067219014492404512230000000233620074488848550_"  style="overflow:visible;"/>
				</clipPath>
				<g style="clip-path:url(#SVGID_00000045618465275208339710000002175954199998555271_);">
					<path class="st2" d="M43.9,157.2l-7.2-40c0,0-14.2-16.4-26.5-6.8c-8.2,6.4-1.3,47.3,8.2,50C34.6,164.9,43.9,157.2,43.9,157.2z"
						/>
				</g>
			</g>
		</g>
	</g>
	<path class="st4" d="M114.3,12.8h-3c-44.5,0-75.8,28.5-75.8,73.1c0,0,0.9,36.6,3.1,52c1.8,12.4,4.3,26.4,19.6,47.6
		c8.9,12.3,36.5,24.2,52.4,25.8l0,0c15.9-1.6,46.3-14,55.2-26.3c15.4-21.2,17.9-35.2,19.6-47.6c2.2-15.5,3.1-52,3.1-52
		c0-44.5-31.3-73.1-75.8-73.1h-3"/>
	<path class="st5" d="M98.6,157.8c-1,0.1-1.4,0.7-0.6,1c3,1.2,8.6,3.3,12.3,3.3c3.5,0,8.9-2.1,11.7-3.3c0.8-0.3,0.4-0.9-0.6-1
		c-3.3-0.2-4.7,0.6-11.4,0.6C104.2,158.5,101.9,157.6,98.6,157.8z"/>
	<path class="st0" d="M9.2,111.8c8-10.9,26.3,0,26.3,0s-13.1-48.6,77-61.5c52.5-7.6,34.2-48.6,21.1-50S96.4,2.3,85.9,4
		c-7.2,1.1-29.3,3.6-44.1,14.6c-11.7,8.7-24.4,18.2-37,43.8C-2,76.3-1.5,92.8,6.1,106.3L9.2,111.8z"/>
	<path class="st0" d="M248.5,164.4c-35.3-13.8-60.8-149.6-79.8-154.1c-27.3-6.4-36.2,6.9-36.2,6.9l-9.9,19.3c0,0,51,6.9,51,37.2
		S204.1,188,248.5,164.4"/>
</g>
</svg>
