<?xml version="1.0" encoding="utf-8"?>
<!-- Generator: Adobe Illustrator 26.0.1, SVG Export Plug-In . SVG Version: 6.00 Build 0)  -->
<svg version="1.1" id="Calque_1" xmlns="http://www.w3.org/2000/svg" xmlns:xlink="http://www.w3.org/1999/xlink" x="0px" y="0px"
	 viewBox="0 0 788 1005" style="enable-background:new 0 0 788 1005;" xml:space="preserve">
<style type="text/css">
	.st0{clip-path:url(#SVGID_00000051363553601851366390000007310409668195425713_);}
	.st1{fill:#B9785C;}
	.st2{clip-path:url(#SVGID_00000162318400873465953420000009651792065796714906_);}
	.st3{fill:#C98841;}
	.st4{fill:#D68F72;}
	.st5{clip-path:url(#SVGID_00000089572754010722769870000010028666000087743366_);}
	.st6{fill:#573623;}
	.st7{clip-path:url(#SVGID_00000057133830167891156700000004013518110444492689_);}
	.st8{clip-path:url(#SVGID_00000141443569686782929700000004196903724831543710_);}
	.st9{clip-path:url(#SVGID_00000066503232381195819540000013746489944238643375_);}
	.st10{clip-path:url(#SVGID_00000150104305871804817130000003980409616421751484_);}
	.st11{fill:#FFFFFF;}
	.st12{clip-path:url(#SVGID_00000070802222028625135490000016089163774625804938_);}
	.st13{clip-path:url(#SVGID_00000156556251798319394430000000081961569318409876_);}
	.st14{fill:#090909;}
	.st15{clip-path:url(#SVGID_00000173145157518856563950000002205150038850082735_);}
	.st16{fill:#9D5E70;}
	.st17{fill:#99533D;}
	.st18{fill:#593723;}
</style>
<g id="Calque_13">
	<g id="random">
		<g>
			<defs>
				<polygon id="SVGID_1_" points="458.3,308.8 458.3,308.8 495.6,308.8 495.6,363.3 458.3,363.3 				"/>
			</defs>
			<clipPath id="SVGID_00000183249919637707115630000016585647376981953695_">
				<use xlink:href="#SVGID_1_"  style="overflow:visible;"/>
			</clipPath>
			<g style="clip-path:url(#SVGID_00000183249919637707115630000016585647376981953695_);">
				<path class="st1" d="M458.3,358.7l7.2-40c0,0,14.2-16.4,26.5-6.8c8.2,6.4,1.3,47.3-8.2,50C467.7,366.4,458.3,358.7,458.3,358.7z
					"/>
			</g>
		</g>
	</g>
	<g id="random2">
		<g>
			<defs>
				<polygon id="SVGID_00000031906010907623991030000011187218029407710642_" points="326.1,308.8 326.1,308.8 288.8,308.8 
					288.8,363.3 326.1,363.3 				"/>
			</defs>
			<clipPath id="SVGID_00000023253466528773942360000008893240401411670915_">
				<use xlink:href="#SVGID_00000031906010907623991030000011187218029407710642_"  style="overflow:visible;"/>
			</clipPath>
			<g style="clip-path:url(#SVGID_00000023253466528773942360000008893240401411670915_);">
				<path class="st1" d="M326.1,358.7l-7.2-40c0,0-14.2-16.4-26.5-6.8c-8.2,6.4-1.3,47.3,8.2,50
					C316.8,366.4,326.1,358.7,326.1,358.7z"/>
			</g>
		</g>
	</g>
	<path class="st3" d="M303,301.4c0-50.6,39.8-91.7,88.9-91.7s88.9,41.1,88.9,91.7s-73,88.3-88.9,91.7C409.7,386.9,303,352,303,301.4
		z"/>
	<path class="st4" d="M396.5,214.3h-3c-44.5,0-75.8,28.5-75.8,73.1c0,0,0.9,36.6,3.1,52c1.8,12.4,4.3,26.4,19.6,47.6
		c8.9,12.3,36.5,24.2,52.4,25.8l0,0c15.9-1.6,46.3-14,55.2-26.3c15.4-21.2,17.9-35.2,19.6-47.6c2.2-15.5,3.1-52,3.1-52
		c0-44.5-31.3-73.1-75.8-73.1h-3"/>
	<g>
		<defs>
			<polygon id="SVGID_00000183219025707949831520000010717364247106490797_" points="413.3,293 413.3,293 456.6,293 456.6,306.2 
				413.3,306.2 			"/>
		</defs>
		<clipPath id="SVGID_00000126322352421765990810000001596506117665490581_">
			<use xlink:href="#SVGID_00000183219025707949831520000010717364247106490797_"  style="overflow:visible;"/>
		</clipPath>
		<g style="clip-path:url(#SVGID_00000126322352421765990810000001596506117665490581_);">
			<path class="st6" d="M454.6,306.2c-0.3,0-0.6-0.1-0.8-0.2c-4.3-1.8-8.8-3.2-13.3-4.3c-14.6-3.3-15.5-1-20.5,0
				c-1.5,0.3-5-0.6-5.7-1.4s-1.4-4-0.5-4.7c0.4-0.3,6.9-4.8,23.5-1c6.9,1.6,17.9,7.6,18.2,7.7c1.1,0.4,1.6,1.6,1.2,2.7
				C456.3,305.7,455.5,306.3,454.6,306.2L454.6,306.2z"/>
		</g>
	</g>
	<g>
		<defs>
			<polygon id="SVGID_00000002375820022686774210000018105193663520600723_" points="371.1,293 371.1,293 327.8,293 327.8,306.2 
				371.1,306.2 			"/>
		</defs>
		<clipPath id="SVGID_00000128475440779615087020000008110084770596203193_">
			<use xlink:href="#SVGID_00000002375820022686774210000018105193663520600723_"  style="overflow:visible;"/>
		</clipPath>
		<g style="clip-path:url(#SVGID_00000128475440779615087020000008110084770596203193_);">
			<path class="st6" d="M329.8,306.2c0.3,0,0.6-0.1,0.8-0.2c4.3-1.8,8.8-3.2,13.4-4.3c14.6-3.3,15.5-1,20.5,0c1.5,0.3,5-0.6,5.7-1.4
				s1.4-4,0.5-4.7c-0.4-0.3-6.9-4.8-23.5-1c-6.9,1.6-17.9,7.6-18.2,7.7c-1.1,0.4-1.6,1.6-1.2,2.7C328.2,305.7,329,306.3,329.8,306.2
				L329.8,306.2z"/>
		</g>
	</g>
	<g>
		<defs>
			<rect id="SVGID_00000040562089127982480010000016030046287449471405_" x="412" y="293" width="40.1" height="9.2"/>
		</defs>
		<clipPath id="SVGID_00000041265364941487591170000012840404703174010268_">
			<use xlink:href="#SVGID_00000040562089127982480010000016030046287449471405_"  style="overflow:visible;"/>
		</clipPath>
		<g style="clip-path:url(#SVGID_00000041265364941487591170000012840404703174010268_);">
			<path class="st6" d="M418.1,301.3c-1.4,0.3-5.2-0.6-5.9-1.5s0.6-3.6,1.5-4.3c0.4-0.3,6.9-4.8,23.5-1c8,1.8,15.6,5.7,14.8,7.6
				C451.7,302.9,438.5,297.3,418.1,301.3z"/>
		</g>
	</g>
	<g>
		<defs>
			<rect id="SVGID_00000168105278771539420130000008383647432012020102_" x="332.3" y="293" width="40.1" height="9.2"/>
		</defs>
		<clipPath id="SVGID_00000168103748111534259810000005347950202500232866_">
			<use xlink:href="#SVGID_00000168105278771539420130000008383647432012020102_"  style="overflow:visible;"/>
		</clipPath>
		<g style="clip-path:url(#SVGID_00000168103748111534259810000005347950202500232866_);">
			<path class="st6" d="M366.3,301.3c1.5,0.3,5.2-0.6,5.9-1.5s-0.6-3.6-1.5-4.3c-0.4-0.3-6.9-4.8-23.5-1c-8,1.8-15.6,5.7-14.8,7.6
				C332.7,302.9,345.9,297.3,366.3,301.3z"/>
		</g>
	</g>
	<g>
		<defs>
			<polygon id="SVGID_00000173120708919718463910000010102095894255592604_" points="415.8,318 415.8,318 443.7,318 443.7,344.8 
				415.8,344.8 			"/>
		</defs>
		<clipPath id="SVGID_00000042736441140676752020000009761891594220125115_">
			<use xlink:href="#SVGID_00000173120708919718463910000010102095894255592604_"  style="overflow:visible;"/>
		</clipPath>
		<g style="clip-path:url(#SVGID_00000042736441140676752020000009761891594220125115_);">
			<ellipse class="st11" cx="429.7" cy="331.4" rx="14" ry="13.4"/>
		</g>
	</g>
	<g>
		<defs>
			<polygon id="SVGID_00000075158075460999117770000001695550149640209583_" points="368.6,318 368.6,318 340.7,318 340.7,344.8 
				368.6,344.8 			"/>
		</defs>
		<clipPath id="SVGID_00000176752918567380910840000017962672408748281481_">
			<use xlink:href="#SVGID_00000075158075460999117770000001695550149640209583_"  style="overflow:visible;"/>
		</clipPath>
		<g style="clip-path:url(#SVGID_00000176752918567380910840000017962672408748281481_);">
			<ellipse class="st11" cx="354.7" cy="331.4" rx="14" ry="13.4"/>
		</g>
	</g>
	<g>
		<defs>
			<polygon id="SVGID_00000080207916760647003680000000146087491418319273_" points="420.3,324 420.3,324 438.9,324 438.9,342.7 
				420.3,342.7 			"/>
		</defs>
		<clipPath id="SVGID_00000017505101945150782110000011120326874653296565_">
			<use xlink:href="#SVGID_00000080207916760647003680000000146087491418319273_"  style="overflow:visible;"/>
		</clipPath>
		<g style="clip-path:url(#SVGID_00000017505101945150782110000011120326874653296565_);">
			<circle class="st14" cx="429.6" cy="333.4" r="9.3"/>
		</g>
	</g>
	<g>
		<defs>
			<polygon id="SVGID_00000170975311643942821770000010663199629337234565_" points="364.1,324 364.1,324 345.5,324 345.5,342.7 
				364.1,342.7 			"/>
		</defs>
		<clipPath id="SVGID_00000107569986860912987400000015200830348856564875_">
			<use xlink:href="#SVGID_00000170975311643942821770000010663199629337234565_"  style="overflow:visible;"/>
		</clipPath>
		<g style="clip-path:url(#SVGID_00000107569986860912987400000015200830348856564875_);">
			<circle class="st14" cx="354.8" cy="333.4" r="9.3"/>
		</g>
	</g>
	<path class="st16" d="M380.4,380.8c0-1.7,1.3-3.8,11.8-3.8s13,1.8,13,3.4s-2.9,6.6-13.4,6.6S380.4,382.4,380.4,380.8z"/>
	<path class="st1" d="M391.5,234.5L391.5,234.5l-78.1,52.8c0,0-14.8-65.3,77.8-76.7c0,0,71.4-1.9,83.7,67.6
		c2.7,15.6,0.7,31.6-5.9,45.9c0,0-4.6-31-52.5-71.4"/>
	<path class="st17" d="M380.8,359.3c-1,0.1-1.4,0.7-0.6,1c3,1.2,8.6,3.3,12.3,3.3c3.5,0,8.9-2.1,11.7-3.3c0.8-0.3,0.4-0.9-0.6-1
		c-3.3-0.2-4.7,0.6-11.4,0.6C386.4,360,384.1,359.1,380.8,359.3z"/>
	<path class="st18" d="M395.5,206.3c-3.6,7.5,11.8,30.9,15.9,36.4c4.2,5.6,53.6,38.3,53.6,67.3c0,22.6-31.8,57.3-33.6,79.7
		c-4.2,51.2,38.4,59.6,38.4,59.6s-9.4-36.5-9.4-49.7c0-84.6,60.4-62.4,22.5-133.9C476.8,254.4,417.1,161.3,395.5,206.3z"/>
	<path class="st18" d="M340.4,499.5c0,0,12.7-52.5-31.6-100.4c-23.4-25.3-45.8-75.6-17.2-107.6c21-23.4,21.1-52,36.3-67.1
		c46.2-46,72.7-17.9,81.8-0.8c5.2,9.7,7.2,12.2,1.8,19c-18,22.6-45.6-26.7-90.1,66.1c-9.4,19.5,28.6,77.4,45.1,97.4
		C418.5,469.6,340.4,499.5,340.4,499.5z"/>
	<path class="st1" d="M411.4,242.7c0,0,0.8,2.4-21.9,2.4c-20.3,0-75.6,8.3-69.2,76.1c0,0,12.1-70.2,75.8-69.7
		C396.1,251.4,415.6,249.3,411.4,242.7z"/>
</g>
</svg>
