<?xml version="1.0" encoding="utf-8"?>
<!-- Generator: Adobe Illustrator 26.0.1, SVG Export Plug-In . SVG Version: 6.00 Build 0)  -->
<svg version="1.1" id="Calque_1" xmlns="http://www.w3.org/2000/svg" xmlns:xlink="http://www.w3.org/1999/xlink" x="0px" y="0px"
	 viewBox="0 0 788 1005" style="enable-background:new 0 0 788 1005;" xml:space="preserve">
<style type="text/css">
	.st0{clip-path:url(#SVGID_00000175285097364804780260000015729589320795659424_);}
	.st1{fill:#B9785C;}
	.st2{clip-path:url(#SVGID_00000049921532565935217070000004995577788099798192_);}
	.st3{fill:#593723;}
	.st4{fill:#D68F72;}
	.st5{clip-path:url(#SVGID_00000015319728388854411260000001214404677700546740_);}
	.st6{fill:#573623;}
	.st7{clip-path:url(#SVGID_00000050648180364310595150000003510909383089856646_);}
	.st8{clip-path:url(#SVGID_00000146471642074453877260000010991454648832573081_);}
	.st9{clip-path:url(#SVGID_00000000927157321070939700000004245221392446649523_);}
	.st10{clip-path:url(#SVGID_00000093150841369298274490000017532328522431277241_);}
	.st11{fill:#FFFFFF;}
	.st12{clip-path:url(#SVGID_00000047052320314898624330000001986635622211295905_);}
	.st13{clip-path:url(#SVGID_00000182505453849421905590000000725357024158640308_);}
	.st14{fill:#090909;}
	.st15{clip-path:url(#SVGID_00000009583777305711129090000007016760236697441696_);}
	.st16{fill:#9D5E70;}
	.st17{fill:#99533D;}
</style>
<g id="Calque_13">
	<g id="random">
		<g>
			<defs>
				<polygon id="SVGID_1_" points="458.3,308.8 458.3,308.8 495.6,308.8 495.6,363.3 458.3,363.3 				"/>
			</defs>
			<clipPath id="SVGID_00000060014512947676399330000000851207287978076547_">
				<use xlink:href="#SVGID_1_"  style="overflow:visible;"/>
			</clipPath>
			<g style="clip-path:url(#SVGID_00000060014512947676399330000000851207287978076547_);">
				<path class="st1" d="M458.3,358.7l7.2-40c0,0,14.2-16.4,26.5-6.8c8.2,6.4,1.3,47.3-8.2,50C467.7,366.4,458.3,358.7,458.3,358.7z
					"/>
			</g>
		</g>
	</g>
	<g id="random2">
		<g>
			<defs>
				<polygon id="SVGID_00000055693694364356575410000002536136954140109956_" points="326.1,308.8 326.1,308.8 288.8,308.8 
					288.8,363.3 326.1,363.3 				"/>
			</defs>
			<clipPath id="SVGID_00000116943738837954492100000014428865318769741207_">
				<use xlink:href="#SVGID_00000055693694364356575410000002536136954140109956_"  style="overflow:visible;"/>
			</clipPath>
			<g style="clip-path:url(#SVGID_00000116943738837954492100000014428865318769741207_);">
				<path class="st1" d="M326.1,358.7l-7.2-40c0,0-14.2-16.4-26.5-6.8c-8.2,6.4-1.3,47.3,8.2,50
					C316.8,366.4,326.1,358.7,326.1,358.7z"/>
			</g>
		</g>
	</g>
	<path class="st3" d="M303,301.4c0-50.6,39.8-91.7,88.9-91.7s88.9,41.1,88.9,91.7s-73,88.3-88.9,91.7C409.7,386.9,303,352,303,301.4
		z"/>
	<path class="st4" d="M396.5,214.3h-3c-44.5,0-75.8,28.5-75.8,73.1c0,0,0.9,36.6,3.1,52c1.8,12.4,4.3,26.4,19.6,47.6
		c8.9,12.3,36.5,24.2,52.4,25.8l0,0c15.9-1.6,46.3-14,55.2-26.3c15.4-21.2,17.9-35.2,19.6-47.6c2.2-15.5,3.1-52,3.1-52
		c0-44.5-31.3-73.1-75.8-73.1h-3"/>
	<g>
		<defs>
			<polygon id="SVGID_00000160877262539784107800000004573162735717035186_" points="413.3,293 413.3,293 456.6,293 456.6,306.2 
				413.3,306.2 			"/>
		</defs>
		<clipPath id="SVGID_00000168112447402151701550000015527160966365867917_">
			<use xlink:href="#SVGID_00000160877262539784107800000004573162735717035186_"  style="overflow:visible;"/>
		</clipPath>
		<g style="clip-path:url(#SVGID_00000168112447402151701550000015527160966365867917_);">
			<path class="st6" d="M454.6,306.2c-0.3,0-0.6-0.1-0.8-0.2c-4.3-1.8-8.8-3.2-13.3-4.3c-14.6-3.3-15.5-1-20.5,0
				c-1.5,0.3-5-0.6-5.7-1.4s-1.4-4-0.5-4.7c0.4-0.3,6.9-4.8,23.5-1c6.9,1.6,17.9,7.6,18.2,7.7c1.1,0.4,1.6,1.6,1.2,2.7
				C456.3,305.7,455.5,306.3,454.6,306.2L454.6,306.2z"/>
		</g>
	</g>
	<g>
		<defs>
			<polygon id="SVGID_00000160884520418690116610000009933982739054250896_" points="371.1,293 371.1,293 327.8,293 327.8,306.2 
				371.1,306.2 			"/>
		</defs>
		<clipPath id="SVGID_00000090986823653048278440000001059551300458041259_">
			<use xlink:href="#SVGID_00000160884520418690116610000009933982739054250896_"  style="overflow:visible;"/>
		</clipPath>
		<g style="clip-path:url(#SVGID_00000090986823653048278440000001059551300458041259_);">
			<path class="st6" d="M329.8,306.2c0.3,0,0.6-0.1,0.8-0.2c4.3-1.8,8.8-3.2,13.4-4.3c14.6-3.3,15.5-1,20.5,0c1.5,0.3,5-0.6,5.7-1.4
				s1.4-4,0.5-4.7c-0.4-0.3-6.9-4.8-23.5-1c-6.9,1.6-17.9,7.6-18.2,7.7c-1.1,0.4-1.6,1.6-1.2,2.7C328.2,305.7,329,306.3,329.8,306.2
				L329.8,306.2z"/>
		</g>
	</g>
	<g>
		<defs>
			<rect id="SVGID_00000074438994659915339090000006413203795494692994_" x="412" y="293" width="40.1" height="9.2"/>
		</defs>
		<clipPath id="SVGID_00000044865980327460982220000004122475371977131164_">
			<use xlink:href="#SVGID_00000074438994659915339090000006413203795494692994_"  style="overflow:visible;"/>
		</clipPath>
		<g style="clip-path:url(#SVGID_00000044865980327460982220000004122475371977131164_);">
			<path class="st6" d="M418.1,301.3c-1.4,0.3-5.2-0.6-5.9-1.5s0.6-3.6,1.5-4.3c0.4-0.3,6.9-4.8,23.5-1c8,1.8,15.6,5.7,14.8,7.6
				C451.7,302.9,438.5,297.3,418.1,301.3z"/>
		</g>
	</g>
	<g>
		<defs>
			<rect id="SVGID_00000043423580711537529220000011435944130273107851_" x="332.3" y="293" width="40.1" height="9.2"/>
		</defs>
		<clipPath id="SVGID_00000096739534177270306790000017168094719585116342_">
			<use xlink:href="#SVGID_00000043423580711537529220000011435944130273107851_"  style="overflow:visible;"/>
		</clipPath>
		<g style="clip-path:url(#SVGID_00000096739534177270306790000017168094719585116342_);">
			<path class="st6" d="M366.3,301.3c1.5,0.3,5.2-0.6,5.9-1.5s-0.6-3.6-1.5-4.3c-0.4-0.3-6.9-4.8-23.5-1c-8,1.8-15.6,5.7-14.8,7.6
				C332.7,302.9,345.9,297.3,366.3,301.3z"/>
		</g>
	</g>
	<g>
		<defs>
			<polygon id="SVGID_00000068642770994899392050000006782116811954629792_" points="415.8,318 415.8,318 443.7,318 443.7,344.8 
				415.8,344.8 			"/>
		</defs>
		<clipPath id="SVGID_00000091008941418114362840000017908647699340013483_">
			<use xlink:href="#SVGID_00000068642770994899392050000006782116811954629792_"  style="overflow:visible;"/>
		</clipPath>
		<g style="clip-path:url(#SVGID_00000091008941418114362840000017908647699340013483_);">
			<ellipse class="st11" cx="429.7" cy="331.4" rx="14" ry="13.4"/>
		</g>
	</g>
	<g>
		<defs>
			<polygon id="SVGID_00000183214480488521493930000005627780621834693279_" points="368.6,318 368.6,318 340.7,318 340.7,344.8 
				368.6,344.8 			"/>
		</defs>
		<clipPath id="SVGID_00000011739131992402096950000004831085209332042153_">
			<use xlink:href="#SVGID_00000183214480488521493930000005627780621834693279_"  style="overflow:visible;"/>
		</clipPath>
		<g style="clip-path:url(#SVGID_00000011739131992402096950000004831085209332042153_);">
			<ellipse class="st11" cx="354.7" cy="331.4" rx="14" ry="13.4"/>
		</g>
	</g>
	<g>
		<defs>
			<polygon id="SVGID_00000008142936346299901460000005165330801386963122_" points="420.3,324 420.3,324 438.9,324 438.9,342.7 
				420.3,342.7 			"/>
		</defs>
		<clipPath id="SVGID_00000036951396854461004020000013712864205744907959_">
			<use xlink:href="#SVGID_00000008142936346299901460000005165330801386963122_"  style="overflow:visible;"/>
		</clipPath>
		<g style="clip-path:url(#SVGID_00000036951396854461004020000013712864205744907959_);">
			<circle class="st14" cx="429.6" cy="333.4" r="9.3"/>
		</g>
	</g>
	<g>
		<defs>
			<polygon id="SVGID_00000005250648092360129820000003362175382192518528_" points="364.1,324 364.1,324 345.5,324 345.5,342.7 
				364.1,342.7 			"/>
		</defs>
		<clipPath id="SVGID_00000054974473349891521070000000172937297325448859_">
			<use xlink:href="#SVGID_00000005250648092360129820000003362175382192518528_"  style="overflow:visible;"/>
		</clipPath>
		<g style="clip-path:url(#SVGID_00000054974473349891521070000000172937297325448859_);">
			<circle class="st14" cx="354.8" cy="333.4" r="9.3"/>
		</g>
	</g>
	<path class="st16" d="M380.4,380.8c0-1.7,1.3-3.8,11.8-3.8s13,1.8,13,3.4s-2.9,6.6-13.4,6.6S380.4,382.4,380.4,380.8z"/>
	<path class="st1" d="M391.5,234.5L391.5,234.5l-78.1,52.8c0,0-14.8-65.3,77.8-76.7c0,0,71.4-1.9,83.7,67.6c4.6,26-7,29.2-7,29.2
		s-51.4-34-94.6-56.4"/>
	<path class="st17" d="M380.8,359.3c-1,0.1-1.4,0.7-0.6,1c3,1.2,8.6,3.3,12.3,3.3c3.5,0,8.9-2.1,11.7-3.3c0.8-0.3,0.4-0.9-0.6-1
		c-3.3-0.2-4.7,0.6-11.4,0.6C386.4,360,384.1,359.1,380.8,359.3z"/>
	<path class="st3" d="M516.2,318c-6.6-24.4-30.8-30.8-42.4-67.5c-0.8-9.3-3-19.3-4.5-28.4c-3.6-21.7-54.5-29.1-54.5-29.1
		s-73.1-13.2-70.3,14.4c0,0.5,0.1,0.9,0.2,1.4c-9.6-6.1-9-8.5-15.2-1.2c-9.8,11.4-32.2,63.5-36.4,91.1c-1.2,8,26,37.5,26,37.5
		c-0.3-70.2,45.7-79.2,40.5-107c11.5,10.5,28.2,21.8,44.9,31.7l0,0c9.9,5.9,19.8,11.3,28.6,15.9c25.6,14.8,44.3,43,48.9,50.3
		c7.2,11.6-1.7,64-1.7,64S523.4,344.4,516.2,318z"/>
</g>
</svg>
