<?xml version="1.0" encoding="utf-8"?>
<!-- Generator: Adobe Illustrator 26.0.1, SVG Export Plug-In . SVG Version: 6.00 Build 0)  -->
<svg version="1.1" id="Calque_1" xmlns="http://www.w3.org/2000/svg" xmlns:xlink="http://www.w3.org/1999/xlink" x="0px" y="0px"
	 viewBox="0 0 788 1005" style="enable-background:new 0 0 788 1005;" xml:space="preserve">
<style type="text/css">
	.st0{clip-path:url(#SVGID_00000088128576440835599650000012582991936477282483_);}
	.st1{fill:#B9785C;}
	.st2{clip-path:url(#SVGID_00000127019322112520770850000006776877207779788933_);}
	.st3{fill:#593723;}
	.st4{fill:#D68F72;}
	.st5{clip-path:url(#SVGID_00000052810682430017364330000009064979324908267661_);}
	.st6{fill:#573623;}
	.st7{clip-path:url(#SVGID_00000155116537594577539070000002846234460380416163_);}
	.st8{clip-path:url(#SVGID_00000163062998821328603570000015519834257445868734_);}
	.st9{clip-path:url(#SVGID_00000068672214708006751970000002241106993193367967_);}
	.st10{clip-path:url(#SVGID_00000090289847655608161610000016532078353714591648_);}
	.st11{fill:#FFFFFF;}
	.st12{clip-path:url(#SVGID_00000075133921955993569310000006754219456837206457_);}
	.st13{clip-path:url(#SVGID_00000134250075780139861880000013584570927151077778_);}
	.st14{fill:#090909;}
	.st15{clip-path:url(#SVGID_00000164498900432652402190000012636799748754081188_);}
	.st16{fill:#9D5E70;}
	.st17{fill:#99533D;}
</style>
<g id="Calque_13">
	<g id="random">
		<g>
			<defs>
				<polygon id="SVGID_1_" points="458.3,308.8 458.3,308.8 495.6,308.8 495.6,363.3 458.3,363.3 				"/>
			</defs>
			<clipPath id="SVGID_00000078757727938425199570000016623442528462817672_">
				<use xlink:href="#SVGID_1_"  style="overflow:visible;"/>
			</clipPath>
			<g style="clip-path:url(#SVGID_00000078757727938425199570000016623442528462817672_);">
				<path class="st1" d="M458.3,358.7l7.2-40c0,0,14.2-16.4,26.5-6.8c8.2,6.4,1.3,47.3-8.2,50C467.7,366.4,458.3,358.7,458.3,358.7z
					"/>
			</g>
		</g>
	</g>
	<g id="random2">
		<g>
			<defs>
				<polygon id="SVGID_00000143580320161755863150000005341517260133479342_" points="326.1,308.8 326.1,308.8 288.8,308.8 
					288.8,363.3 326.1,363.3 				"/>
			</defs>
			<clipPath id="SVGID_00000040542555497562478620000016755259217578257291_">
				<use xlink:href="#SVGID_00000143580320161755863150000005341517260133479342_"  style="overflow:visible;"/>
			</clipPath>
			<g style="clip-path:url(#SVGID_00000040542555497562478620000016755259217578257291_);">
				<path class="st1" d="M326.1,358.7l-7.2-40c0,0-14.2-16.4-26.5-6.8c-8.2,6.4-1.3,47.3,8.2,50
					C316.8,366.4,326.1,358.7,326.1,358.7z"/>
			</g>
		</g>
	</g>
	<path class="st3" d="M297.6,270.7c-0.2-50.6,45.2-61,94.2-61s88.9,41.1,88.9,91.7s-88.2,16.3-104,19.6
		C368.8,331.2,297.9,342.7,297.6,270.7z"/>
	<path class="st4" d="M396.5,214.3h-3c-44.5,0-75.8,28.5-75.8,73.1c0,0,0.9,36.6,3.1,52c1.8,12.4,4.3,26.4,19.6,47.6
		c8.9,12.3,36.5,24.2,52.4,25.8l0,0c15.9-1.6,46.3-14,55.2-26.3c15.4-21.2,17.9-35.2,19.6-47.6c2.2-15.5,3.1-52,3.1-52
		c0-44.5-31.3-73.1-75.8-73.1h-3"/>
	<g>
		<defs>
			<polygon id="SVGID_00000021810715490137675880000013946839995302144137_" points="413.3,293 413.3,293 456.6,293 456.6,306.2 
				413.3,306.2 			"/>
		</defs>
		<clipPath id="SVGID_00000110446496439784702870000009388866872547427467_">
			<use xlink:href="#SVGID_00000021810715490137675880000013946839995302144137_"  style="overflow:visible;"/>
		</clipPath>
		<g style="clip-path:url(#SVGID_00000110446496439784702870000009388866872547427467_);">
			<path class="st6" d="M454.6,306.2c-0.3,0-0.6-0.1-0.8-0.2c-4.3-1.8-8.8-3.2-13.3-4.3c-14.6-3.3-15.5-1-20.5,0
				c-1.5,0.3-5-0.6-5.7-1.4s-1.4-4-0.5-4.7c0.4-0.3,6.9-4.8,23.5-1c6.9,1.6,17.9,7.6,18.2,7.7c1.1,0.4,1.6,1.6,1.2,2.7
				C456.3,305.7,455.5,306.3,454.6,306.2L454.6,306.2z"/>
		</g>
	</g>
	<g>
		<defs>
			<polygon id="SVGID_00000070828276683159718270000017554055805137350018_" points="371.1,293 371.1,293 327.8,293 327.8,306.2 
				371.1,306.2 			"/>
		</defs>
		<clipPath id="SVGID_00000178913698575433129440000018312828399167848633_">
			<use xlink:href="#SVGID_00000070828276683159718270000017554055805137350018_"  style="overflow:visible;"/>
		</clipPath>
		<g style="clip-path:url(#SVGID_00000178913698575433129440000018312828399167848633_);">
			<path class="st6" d="M329.8,306.2c0.3,0,0.6-0.1,0.8-0.2c4.3-1.8,8.8-3.2,13.4-4.3c14.6-3.3,15.5-1,20.5,0c1.5,0.3,5-0.6,5.7-1.4
				s1.4-4,0.5-4.7c-0.4-0.3-6.9-4.8-23.5-1c-6.9,1.6-17.9,7.6-18.2,7.7c-1.1,0.4-1.6,1.6-1.2,2.7C328.2,305.7,329,306.3,329.8,306.2
				L329.8,306.2z"/>
		</g>
	</g>
	<g>
		<defs>
			<rect id="SVGID_00000128487333002541076620000017026232770534398353_" x="412" y="293" width="40.1" height="9.2"/>
		</defs>
		<clipPath id="SVGID_00000139985385254374883290000012974460068854088080_">
			<use xlink:href="#SVGID_00000128487333002541076620000017026232770534398353_"  style="overflow:visible;"/>
		</clipPath>
		<g style="clip-path:url(#SVGID_00000139985385254374883290000012974460068854088080_);">
			<path class="st6" d="M418.1,301.3c-1.4,0.3-5.2-0.6-5.9-1.5s0.6-3.6,1.5-4.3c0.4-0.3,6.9-4.8,23.5-1c8,1.8,15.6,5.7,14.8,7.6
				C451.7,302.9,438.5,297.3,418.1,301.3z"/>
		</g>
	</g>
	<g>
		<defs>
			<rect id="SVGID_00000104680766468708028960000004878043466815072652_" x="332.3" y="293" width="40.1" height="9.2"/>
		</defs>
		<clipPath id="SVGID_00000144306901867554845010000006075187010397355941_">
			<use xlink:href="#SVGID_00000104680766468708028960000004878043466815072652_"  style="overflow:visible;"/>
		</clipPath>
		<g style="clip-path:url(#SVGID_00000144306901867554845010000006075187010397355941_);">
			<path class="st6" d="M366.3,301.3c1.5,0.3,5.2-0.6,5.9-1.5s-0.6-3.6-1.5-4.3c-0.4-0.3-6.9-4.8-23.5-1c-8,1.8-15.6,5.7-14.8,7.6
				C332.7,302.9,345.9,297.3,366.3,301.3z"/>
		</g>
	</g>
	<g>
		<defs>
			<polygon id="SVGID_00000121998455252784445470000006539469704121331355_" points="415.8,318 415.8,318 443.7,318 443.7,344.8 
				415.8,344.8 			"/>
		</defs>
		<clipPath id="SVGID_00000000182864309506115580000008349880419378404793_">
			<use xlink:href="#SVGID_00000121998455252784445470000006539469704121331355_"  style="overflow:visible;"/>
		</clipPath>
		<g style="clip-path:url(#SVGID_00000000182864309506115580000008349880419378404793_);">
			<ellipse class="st11" cx="429.7" cy="331.4" rx="14" ry="13.4"/>
		</g>
	</g>
	<g>
		<defs>
			<polygon id="SVGID_00000008846815520714000770000000006948635427813298_" points="368.6,318 368.6,318 340.7,318 340.7,344.8 
				368.6,344.8 			"/>
		</defs>
		<clipPath id="SVGID_00000056402773201508762740000014814971196328274083_">
			<use xlink:href="#SVGID_00000008846815520714000770000000006948635427813298_"  style="overflow:visible;"/>
		</clipPath>
		<g style="clip-path:url(#SVGID_00000056402773201508762740000014814971196328274083_);">
			<ellipse class="st11" cx="354.7" cy="331.4" rx="14" ry="13.4"/>
		</g>
	</g>
	<g>
		<defs>
			<polygon id="SVGID_00000152242974896139600470000013563730922518390463_" points="420.3,324 420.3,324 438.9,324 438.9,342.7 
				420.3,342.7 			"/>
		</defs>
		<clipPath id="SVGID_00000171708590993052966190000014792265490742550671_">
			<use xlink:href="#SVGID_00000152242974896139600470000013563730922518390463_"  style="overflow:visible;"/>
		</clipPath>
		<g style="clip-path:url(#SVGID_00000171708590993052966190000014792265490742550671_);">
			<circle class="st14" cx="429.6" cy="333.4" r="9.3"/>
		</g>
	</g>
	<g>
		<defs>
			<polygon id="SVGID_00000088853110217961548000000003868149696776236456_" points="364.1,324 364.1,324 345.5,324 345.5,342.7 
				364.1,342.7 			"/>
		</defs>
		<clipPath id="SVGID_00000019671019977588225790000008150109254886375309_">
			<use xlink:href="#SVGID_00000088853110217961548000000003868149696776236456_"  style="overflow:visible;"/>
		</clipPath>
		<g style="clip-path:url(#SVGID_00000019671019977588225790000008150109254886375309_);">
			<circle class="st14" cx="354.8" cy="333.4" r="9.3"/>
		</g>
	</g>
	<path class="st16" d="M380.4,380.8c0-1.7,1.3-3.8,11.8-3.8s13,1.8,13,3.4s-2.9,6.6-13.4,6.6S380.4,382.4,380.4,380.8z"/>
	<path class="st1" d="M394.4,256.9c-19.1,20.4-32.4,21.4-41.8,9.2l-39.1,21.2c0,0-14.8-65.3,77.8-76.7c0,0,71.4-1.9,83.7,67.6
		c4.6,26-36-4.8-36-4.8S403.6,281.6,394.4,256.9"/>
	<path class="st3" d="M327.8,222.7c0-25.8,105.8-108.3,178.2-13c49.3,65-25.2,1.3-25.2,27.1s22.6,29.3-3.2,29.3
		S327.8,248.4,327.8,222.7z"/>
	<path class="st17" d="M380.8,359.3c-1,0.1-1.4,0.7-0.6,1c3,1.2,8.6,3.3,12.3,3.3c3.5,0,8.9-2.1,11.7-3.3c0.8-0.3,0.4-0.9-0.6-1
		c-3.3-0.2-4.7,0.6-11.4,0.6C386.4,360,384.1,359.1,380.8,359.3z"/>
	<path class="st3" d="M317.7,317.5l-5.1-3.3c0,0-15-21.5-14.9-43.5c0.1-27.8,54.1-75.5,84.5-80.6c8.2-1.4,16.6,0.8,23.2,5.9
		c0,0,34.9-1,45.3,3c47.5,18.3,57.1,48.6,55.7,68.9c-1.6,23.2-29.4,49.2-29.4,49.2l0,0l-1-33.4l-23.3-15.6c0,0-12.4-19.1-11.9-19.1
		s4.4,17.1,4.4,17.1s-20.9,1.1-26.5-2.2c-4-2.4-9.6-15.4-9.6-15.4s-17,13.2-22.9,16.3c-6.8,3.6-21.4,4.8-21.4,4.8l2.5-22.2l-19,23.1
		l-21.1,15.6L317.7,317.5z"/>
</g>
</svg>
