<?xml version="1.0" encoding="utf-8"?>
<!-- Generator: Adobe Illustrator 26.0.1, SVG Export Plug-In . SVG Version: 6.00 Build 0)  -->
<svg version="1.1" id="Calque_1" xmlns="http://www.w3.org/2000/svg" xmlns:xlink="http://www.w3.org/1999/xlink" x="0px" y="0px"
	 viewBox="0 0 228.3 223" style="enable-background:new 0 0 228.3 223;" xml:space="preserve">
<style type="text/css">
	.st0{clip-path:url(#SVGID_00000008148501337835391640000006991722058928973750_);}
	.st1{fill:#B9785C;}
	.st2{clip-path:url(#SVGID_00000158026110807751023310000015501559424307265160_);}
	.st3{fill:#593723;}
	.st4{fill:#D68F72;}
	.st5{fill:#99533D;}
</style>
<g id="Calque_13">
	<g id="_Répétition_miroir_">
		<g>
			<g>
				<defs>
					<polygon id="SVGID_1_" points="169.5,119 169.5,119 206.8,119 206.8,173.5 169.5,173.5 					"/>
				</defs>
				<clipPath id="SVGID_00000090994955414744335300000009757433215445535924_">
					<use xlink:href="#SVGID_1_"  style="overflow:visible;"/>
				</clipPath>
				<g style="clip-path:url(#SVGID_00000090994955414744335300000009757433215445535924_);">
					<path class="st1" d="M169.5,168.9l7.2-40c0,0,14.2-16.4,26.5-6.8c8.2,6.4,1.3,47.3-8.2,50C178.9,176.6,169.5,168.9,169.5,168.9
						z"/>
				</g>
			</g>
		</g>
	</g>
	<g id="_Répétition_miroir_2">
		<g>
			<g>
				<defs>
					<polygon id="SVGID_00000111885992953546902940000010272792967503529886_" points="37.3,119 37.3,119 0,119 0,173.5 37.3,173.5 
											"/>
				</defs>
				<clipPath id="SVGID_00000113318208745315462440000001282419122462650757_">
					<use xlink:href="#SVGID_00000111885992953546902940000010272792967503529886_"  style="overflow:visible;"/>
				</clipPath>
				<g style="clip-path:url(#SVGID_00000113318208745315462440000001282419122462650757_);">
					<path class="st1" d="M37.3,168.9l-7.2-40c0,0-14.2-16.4-26.5-6.8c-8.2,6.4-1.3,47.3,8.2,50C28,176.6,37.3,168.9,37.3,168.9z"/>
				</g>
			</g>
		</g>
	</g>
	<path class="st3" d="M14.2,111.6c0-50.6,39.8-91.7,88.9-91.7S192,61,192,111.6s-73,88.3-88.9,91.7
		C120.9,197.1,14.2,162.2,14.2,111.6z"/>
	<path class="st4" d="M107.7,24.5h-3c-44.5,0-75.8,28.5-75.8,73.1c0,0,0.9,36.6,3.1,52c1.8,12.4,4.3,26.4,19.6,47.6
		c8.9,12.3,36.5,24.2,52.4,25.8l0,0c15.9-1.6,46.3-14,55.2-26.3c15.4-21.2,17.9-35.2,19.6-47.6c2.2-15.5,3.1-52,3.1-52
		c0-44.5-31.3-73.1-75.8-73.1h-3"/>
	<path class="st1" d="M102.7,44.7L102.7,44.7L24.6,97.5c0,0-14.8-65.3,77.8-76.7c0,0,71.4-1.9,83.7,67.6c4.6,26-7,29.2-7,29.2
		s-51.4-34-94.6-56.4"/>
	<path class="st5" d="M92,169.5c-1,0.1-1.4,0.7-0.6,1c3,1.2,8.6,3.3,12.3,3.3c3.5,0,8.9-2.1,11.7-3.3c0.8-0.3,0.4-0.9-0.6-1
		c-3.3-0.2-4.7,0.6-11.4,0.6C97.6,170.2,95.3,169.3,92,169.5z"/>
	<path class="st3" d="M227.4,128.2c-6.6-24.4-30.8-30.8-42.4-67.5c-0.8-9.3-3-19.3-4.5-28.4C176.9,10.6,126,3.2,126,3.2
		S52.9-10,55.7,17.6c0,0.5,0.1,0.9,0.2,1.4c-9.6-6.1-9-8.5-15.2-1.2C30.9,29.2,8.5,81.3,4.3,108.9c-1.2,8,26,37.5,26,37.5
		C30,76.2,76,67.2,70.8,39.4C82.3,49.9,99,61.2,115.7,71.1l0,0c9.9,5.9,19.8,11.3,28.6,15.9c25.6,14.8,44.3,43,48.9,50.3
		c7.2,11.6-1.7,64-1.7,64S234.6,154.6,227.4,128.2z"/>
</g>
</svg>
