<?xml version="1.0" encoding="utf-8"?>
<!-- Generator: Adobe Illustrator 26.0.1, SVG Export Plug-In . SVG Version: 6.00 Build 0)  -->
<svg version="1.1" id="Calque_1" xmlns="http://www.w3.org/2000/svg" xmlns:xlink="http://www.w3.org/1999/xlink" x="0px" y="0px"
	 viewBox="0 0 788 1005" style="enable-background:new 0 0 788 1005;" xml:space="preserve">
<style type="text/css">
	.st0{clip-path:url(#SVGID_00000054981954298031000830000012080761926421916601_);}
	.st1{fill:#B9785C;}
	.st2{clip-path:url(#SVGID_00000121989462831735777690000010399280249823500217_);}
	.st3{fill:#593723;}
	.st4{fill:#D68F72;}
	.st5{fill:#99533D;}
</style>
<g id="Calque_13">
	<g id="_Répétition_miroir_">
		<g>
			<g>
				<defs>
					<polygon id="SVGID_1_" points="458.3,308.8 458.3,308.8 495.6,308.8 495.6,363.3 458.3,363.3 					"/>
				</defs>
				<clipPath id="SVGID_00000147198818351740668410000017540280610507707827_">
					<use xlink:href="#SVGID_1_"  style="overflow:visible;"/>
				</clipPath>
				<g style="clip-path:url(#SVGID_00000147198818351740668410000017540280610507707827_);">
					<path class="st1" d="M458.3,358.7l7.2-40c0,0,14.2-16.4,26.5-6.8c8.2,6.4,1.3,47.3-8.2,50C467.7,366.4,458.3,358.7,458.3,358.7
						z"/>
				</g>
			</g>
		</g>
	</g>
	<g id="_Répétition_miroir_2">
		<g>
			<g>
				<defs>
					<polygon id="SVGID_00000028315380734133247510000001560095691368662716_" points="326.1,308.8 326.1,308.8 288.8,308.8 
						288.8,363.3 326.1,363.3 					"/>
				</defs>
				<clipPath id="SVGID_00000077300219979754650790000016665995369307655849_">
					<use xlink:href="#SVGID_00000028315380734133247510000001560095691368662716_"  style="overflow:visible;"/>
				</clipPath>
				<g style="clip-path:url(#SVGID_00000077300219979754650790000016665995369307655849_);">
					<path class="st1" d="M326.1,358.7l-7.2-40c0,0-14.2-16.4-26.5-6.8c-8.2,6.4-1.3,47.3,8.2,50
						C316.8,366.4,326.1,358.7,326.1,358.7z"/>
				</g>
			</g>
		</g>
	</g>
	<path class="st3" d="M303,301.4c0-50.6,39.8-91.7,88.9-91.7s88.9,41.1,88.9,91.7s-73,88.3-88.9,91.7C409.7,386.9,303,352,303,301.4
		z"/>
	<path class="st4" d="M396.5,214.3h-3c-44.5,0-75.8,28.5-75.8,73.1c0,0,0.9,36.6,3.1,52c1.8,12.4,4.3,26.4,19.6,47.6
		c8.9,12.3,36.5,24.2,52.4,25.8l0,0c15.9-1.6,46.3-14,55.2-26.3c15.4-21.2,17.9-35.2,19.6-47.6c2.2-15.5,3.1-52,3.1-52
		c0-44.5-31.3-73.1-75.8-73.1h-3"/>
	<g>
		<g>
			<defs>
				<polygon id="SVGID_00000156549439287625322960000013586006605821180041_" points="413.3,293 413.3,293 456.6,293 456.6,306.2 
					413.3,306.2 				"/>
			</defs>
			<clipPath id="SVGID_00000067915328729263237830000017072208315986114439_">
				<use xlink:href="#SVGID_00000156549439287625322960000013586006605821180041_"  style="overflow:visible;"/>
			</clipPath>
		</g>
	</g>
	<g>
		<g>
			<defs>
				<polygon id="SVGID_00000112624938806154449570000007995495270806871204_" points="371.1,293 371.1,293 327.8,293 327.8,306.2 
					371.1,306.2 				"/>
			</defs>
			<clipPath id="SVGID_00000065784306431674559590000009914565755675210657_">
				<use xlink:href="#SVGID_00000112624938806154449570000007995495270806871204_"  style="overflow:visible;"/>
			</clipPath>
		</g>
	</g>
	<g>
		<g>
			<defs>
				<polygon id="SVGID_00000046314718456565088800000007657534445610441393_" points="415.8,318 415.8,318 443.7,318 443.7,344.8 
					415.8,344.8 				"/>
			</defs>
			<clipPath id="SVGID_00000013873624590017813560000004583932952974946460_">
				<use xlink:href="#SVGID_00000046314718456565088800000007657534445610441393_"  style="overflow:visible;"/>
			</clipPath>
		</g>
	</g>
	<g>
		<g>
			<defs>
				<polygon id="SVGID_00000048460732465255522870000003914634747402322818_" points="368.6,318 368.6,318 340.7,318 340.7,344.8 
					368.6,344.8 				"/>
			</defs>
			<clipPath id="SVGID_00000032640249664353116410000006217556058464034224_">
				<use xlink:href="#SVGID_00000048460732465255522870000003914634747402322818_"  style="overflow:visible;"/>
			</clipPath>
		</g>
	</g>
	<g>
		<g>
			<defs>
				<polygon id="SVGID_00000025427034487711101490000008520734420197004708_" points="364.1,324 364.1,324 345.5,324 345.5,342.7 
					364.1,342.7 				"/>
			</defs>
			<clipPath id="SVGID_00000039115044831864409360000014570621801752160682_">
				<use xlink:href="#SVGID_00000025427034487711101490000008520734420197004708_"  style="overflow:visible;"/>
			</clipPath>
		</g>
	</g>
	<path class="st1" d="M391.5,240.7L391.5,240.7l-73,50.5c0,0-13.8-62.5,72.7-73.4c0,0,66.7-1.8,78.3,64.6c4.3,24.9-3.8,5.5-3.8,5.5
		s-66-24-74.7-47.6"/>
	<path class="st3" d="M390.9,233.6L390.9,233.6l-80.8,64c0.9,4,0-78,70.3-87.2c0,0,81.6-2.6,93.9,66.8c4.6,26-3.6,9.7-3.6,9.7
		s-71.1-28.9-80.4-53.6"/>
	<path class="st5" d="M380.8,359.3c-1,0.1-1.4,0.7-0.6,1c3,1.2,8.6,3.3,12.3,3.3c3.5,0,8.9-2.1,11.7-3.3c0.8-0.3,0.4-0.9-0.6-1
		c-3.3-0.2-4.7,0.6-11.4,0.6C386.4,360,384.1,359.1,380.8,359.3z"/>
</g>
</svg>
