<?xml version="1.0" encoding="utf-8"?>
<!-- Generator: Adobe Illustrator 26.0.1, SVG Export Plug-In . SVG Version: 6.00 Build 0)  -->
<svg version="1.1" id="Calque_1" xmlns="http://www.w3.org/2000/svg" xmlns:xlink="http://www.w3.org/1999/xlink" x="0px" y="0px"
	 viewBox="0 0 788 1005" style="enable-background:new 0 0 788 1005;" xml:space="preserve">
<style type="text/css">
	.st0{clip-path:url(#SVGID_00000161623272021650207760000001519166206244928689_);}
	.st1{fill:#B9785C;}
	.st2{clip-path:url(#SVGID_00000108269709209670640760000002137908009602419591_);}
	.st3{fill:#593723;}
	.st4{fill:#D68F72;}
	.st5{clip-path:url(#SVGID_00000134946236452164845920000010248686088546491827_);}
	.st6{fill:#573623;}
	.st7{clip-path:url(#SVGID_00000021830625543541935470000016391735619558129282_);}
	.st8{clip-path:url(#SVGID_00000106134518938645181900000018008022397320962437_);}
	.st9{clip-path:url(#SVGID_00000069400126022628886650000000683701568039201933_);}
	.st10{clip-path:url(#SVGID_00000090990662648059266150000004433523149787607469_);}
	.st11{fill:#FFFFFF;}
	.st12{clip-path:url(#SVGID_00000078022930884014666050000008495110300363783355_);}
	.st13{clip-path:url(#SVGID_00000004545466187270909750000015585995015561121161_);}
	.st14{fill:#090909;}
	.st15{clip-path:url(#SVGID_00000151532559144571041470000007142053982892598461_);}
	.st16{fill:#9D5E70;}
	.st17{fill:#99533D;}
</style>
<g id="Calque_13">
	<g id="_Répétition_miroir_">
		<g>
			<defs>
				<polygon id="SVGID_1_" points="458.3,308.8 458.3,308.8 495.6,308.8 495.6,363.3 458.3,363.3 				"/>
			</defs>
			<clipPath id="SVGID_00000155130077563063486090000011643022139266017967_">
				<use xlink:href="#SVGID_1_"  style="overflow:visible;"/>
			</clipPath>
			<g style="clip-path:url(#SVGID_00000155130077563063486090000011643022139266017967_);">
				<path class="st1" d="M458.3,358.7l7.2-40c0,0,14.2-16.4,26.5-6.8c8.2,6.4,1.3,47.3-8.2,50C467.7,366.4,458.3,358.7,458.3,358.7z
					"/>
			</g>
		</g>
	</g>
	<g id="_Répétition_miroir_2">
		<g>
			<defs>
				<polygon id="SVGID_00000074414978593200270020000007785378961488742577_" points="326.1,308.8 326.1,308.8 288.8,308.8 
					288.8,363.3 326.1,363.3 				"/>
			</defs>
			<clipPath id="SVGID_00000007387132142335534800000010442164330583329409_">
				<use xlink:href="#SVGID_00000074414978593200270020000007785378961488742577_"  style="overflow:visible;"/>
			</clipPath>
			<g style="clip-path:url(#SVGID_00000007387132142335534800000010442164330583329409_);">
				<path class="st1" d="M326.1,358.7l-7.2-40c0,0-14.2-16.4-26.5-6.8c-8.2,6.4-1.3,47.3,8.2,50
					C316.8,366.4,326.1,358.7,326.1,358.7z"/>
			</g>
		</g>
	</g>
	<path class="st3" d="M303,301.4c0-50.6,39.8-91.7,88.9-91.7s88.9,41.1,88.9,91.7s-73,88.3-88.9,91.7C409.7,386.9,303,352,303,301.4
		z"/>
	<path class="st4" d="M396.5,214.3h-3c-44.5,0-75.8,28.5-75.8,73.1c0,0,0.9,36.6,3.1,52c1.8,12.4,4.3,26.4,19.6,47.6
		c8.9,12.3,36.5,24.2,52.4,25.8l0,0c15.9-1.6,46.3-14,55.2-26.3c15.4-21.2,17.9-35.2,19.6-47.6c2.2-15.5,3.1-52,3.1-52
		c0-44.5-31.3-73.1-75.8-73.1h-3"/>
	<g>
		<defs>
			<polygon id="SVGID_00000111184926799620954240000013213650719625234090_" points="413.3,293 413.3,293 456.6,293 456.6,306.2 
				413.3,306.2 			"/>
		</defs>
		<clipPath id="SVGID_00000060026897462399190410000009238068283571426964_">
			<use xlink:href="#SVGID_00000111184926799620954240000013213650719625234090_"  style="overflow:visible;"/>
		</clipPath>
		<g style="clip-path:url(#SVGID_00000060026897462399190410000009238068283571426964_);">
			<path class="st6" d="M454.6,306.2c-0.3,0-0.6-0.1-0.8-0.2c-4.3-1.8-8.8-3.2-13.3-4.3c-14.6-3.3-15.5-1-20.5,0
				c-1.5,0.3-5-0.6-5.7-1.4s-1.4-4-0.5-4.7c0.4-0.3,6.9-4.8,23.5-1c6.9,1.6,17.9,7.6,18.2,7.7c1.1,0.4,1.6,1.6,1.2,2.7
				C456.3,305.7,455.5,306.3,454.6,306.2L454.6,306.2z"/>
		</g>
	</g>
	<g>
		<defs>
			<polygon id="SVGID_00000142881587034564993180000009873088530057636531_" points="371.1,293 371.1,293 327.8,293 327.8,306.2 
				371.1,306.2 			"/>
		</defs>
		<clipPath id="SVGID_00000054961233928875934500000008647986349396369063_">
			<use xlink:href="#SVGID_00000142881587034564993180000009873088530057636531_"  style="overflow:visible;"/>
		</clipPath>
		<g style="clip-path:url(#SVGID_00000054961233928875934500000008647986349396369063_);">
			<path class="st6" d="M329.8,306.2c0.3,0,0.6-0.1,0.8-0.2c4.3-1.8,8.8-3.2,13.4-4.3c14.6-3.3,15.5-1,20.5,0c1.5,0.3,5-0.6,5.7-1.4
				s1.4-4,0.5-4.7c-0.4-0.3-6.9-4.8-23.5-1c-6.9,1.6-17.9,7.6-18.2,7.7c-1.1,0.4-1.6,1.6-1.2,2.7C328.2,305.7,329,306.3,329.8,306.2
				L329.8,306.2z"/>
		</g>
	</g>
	<g>
		<defs>
			<rect id="SVGID_00000114770033849890513610000015594079748707331987_" x="412" y="293" width="40.1" height="9.2"/>
		</defs>
		<clipPath id="SVGID_00000060014369231508973500000004792890049373740969_">
			<use xlink:href="#SVGID_00000114770033849890513610000015594079748707331987_"  style="overflow:visible;"/>
		</clipPath>
		<g style="clip-path:url(#SVGID_00000060014369231508973500000004792890049373740969_);">
			<path class="st6" d="M418.1,301.3c-1.4,0.3-5.2-0.6-5.9-1.5s0.6-3.6,1.5-4.3c0.4-0.3,6.9-4.8,23.5-1c8,1.8,15.6,5.7,14.8,7.6
				C451.7,302.9,438.5,297.3,418.1,301.3z"/>
		</g>
	</g>
	<g>
		<defs>
			<rect id="SVGID_00000041294042355090055250000005766597679782122624_" x="332.3" y="293" width="40.1" height="9.2"/>
		</defs>
		<clipPath id="SVGID_00000164505514015869224120000013787080692916614570_">
			<use xlink:href="#SVGID_00000041294042355090055250000005766597679782122624_"  style="overflow:visible;"/>
		</clipPath>
		<g style="clip-path:url(#SVGID_00000164505514015869224120000013787080692916614570_);">
			<path class="st6" d="M366.3,301.3c1.5,0.3,5.2-0.6,5.9-1.5s-0.6-3.6-1.5-4.3c-0.4-0.3-6.9-4.8-23.5-1c-8,1.8-15.6,5.7-14.8,7.6
				C332.7,302.9,345.9,297.3,366.3,301.3z"/>
		</g>
	</g>
	<g>
		<defs>
			<polygon id="SVGID_00000055674139067281468300000003093948114056167609_" points="415.8,318 415.8,318 443.7,318 443.7,344.8 
				415.8,344.8 			"/>
		</defs>
		<clipPath id="SVGID_00000174577317125599725400000011527684218481878970_">
			<use xlink:href="#SVGID_00000055674139067281468300000003093948114056167609_"  style="overflow:visible;"/>
		</clipPath>
		<g style="clip-path:url(#SVGID_00000174577317125599725400000011527684218481878970_);">
			<ellipse class="st11" cx="429.7" cy="331.4" rx="14" ry="13.4"/>
		</g>
	</g>
	<g>
		<defs>
			<polygon id="SVGID_00000053503313651307119560000014575118191117420967_" points="368.6,318 368.6,318 340.7,318 340.7,344.8 
				368.6,344.8 			"/>
		</defs>
		<clipPath id="SVGID_00000151513814263609116280000007419808605529724848_">
			<use xlink:href="#SVGID_00000053503313651307119560000014575118191117420967_"  style="overflow:visible;"/>
		</clipPath>
		<g style="clip-path:url(#SVGID_00000151513814263609116280000007419808605529724848_);">
			<ellipse class="st11" cx="354.7" cy="331.4" rx="14" ry="13.4"/>
		</g>
	</g>
	<g>
		<defs>
			<polygon id="SVGID_00000181774338326285021960000004243683441751264400_" points="420.3,324 420.3,324 438.9,324 438.9,342.7 
				420.3,342.7 			"/>
		</defs>
		<clipPath id="SVGID_00000063596440864337173350000009233031716770012074_">
			<use xlink:href="#SVGID_00000181774338326285021960000004243683441751264400_"  style="overflow:visible;"/>
		</clipPath>
		<g style="clip-path:url(#SVGID_00000063596440864337173350000009233031716770012074_);">
			<circle class="st14" cx="429.6" cy="333.4" r="9.3"/>
		</g>
	</g>
	<g>
		<defs>
			<polygon id="SVGID_00000148639521812918713280000015535416446658035857_" points="364.1,324 364.1,324 345.5,324 345.5,342.7 
				364.1,342.7 			"/>
		</defs>
		<clipPath id="SVGID_00000157279997999706173620000006890438780862985662_">
			<use xlink:href="#SVGID_00000148639521812918713280000015535416446658035857_"  style="overflow:visible;"/>
		</clipPath>
		<g style="clip-path:url(#SVGID_00000157279997999706173620000006890438780862985662_);">
			<circle class="st14" cx="354.8" cy="333.4" r="9.3"/>
		</g>
	</g>
	<path class="st16" d="M380.4,380.8c0-1.7,1.3-3.8,11.8-3.8s13,1.8,13,3.4s-2.9,6.6-13.4,6.6S380.4,382.4,380.4,380.8z"/>
	<path class="st3" d="M390.7,234.8L390.7,234.8l-78.1,52.8c0,0-14.8-65.4,77.8-76.7c0,0,71.4-1.9,83.7,67.6c4.6,26-4.1,5.8-4.1,5.8
		s-70.6-25-79.9-49.7"/>
	<circle class="st3" cx="391.9" cy="181.9" r="46.7"/>
	<path class="st17" d="M380.8,359.3c-1,0.1-1.4,0.7-0.6,1c3,1.2,8.6,3.3,12.3,3.3c3.5,0,8.9-2.1,11.7-3.3c0.8-0.3,0.4-0.9-0.6-1
		c-3.3-0.2-4.7,0.6-11.4,0.6C386.4,360,384.1,359.1,380.8,359.3z"/>
</g>
</svg>
