<?xml version="1.0" encoding="utf-8"?>
<!-- Generator: Adobe Illustrator 26.0.1, SVG Export Plug-In . SVG Version: 6.00 Build 0)  -->
<svg version="1.1" id="Calque_1" xmlns="http://www.w3.org/2000/svg" xmlns:xlink="http://www.w3.org/1999/xlink" x="0px" y="0px"
	 viewBox="0 0 206.9 212.4" style="enable-background:new 0 0 206.9 212.4;" xml:space="preserve">
<style type="text/css">
	.st0{clip-path:url(#SVGID_00000134955634473063892040000013311807011260038537_);}
	.st1{fill:#B9785C;}
	.st2{clip-path:url(#SVGID_00000129883968272676404390000012225649533429500337_);}
	.st3{fill:#D68F72;}
	.st4{fill:#99533D;}
	.st5{fill:#593723;}
</style>
<g id="Calque_13">
	<g id="_Répétition_miroir_">
		<g>
			<g>
				<defs>
					<polygon id="SVGID_1_" points="169.5,108.5 169.5,108.5 206.8,108.5 206.8,163 169.5,163 					"/>
				</defs>
				<clipPath id="SVGID_00000140733210877090537460000008097574000357642116_">
					<use xlink:href="#SVGID_1_"  style="overflow:visible;"/>
				</clipPath>
				<g style="clip-path:url(#SVGID_00000140733210877090537460000008097574000357642116_);">
					<path class="st1" d="M169.5,158.4l7.2-40c0,0,14.2-16.5,26.5-6.8c8.2,6.4,1.3,47.3-8.2,50C178.9,166.1,169.5,158.4,169.5,158.4
						z"/>
				</g>
			</g>
		</g>
	</g>
	<g id="_Répétition_miroir_2">
		<g>
			<g>
				<defs>
					<polygon id="SVGID_00000034770726553978451260000013604040502936993463_" points="37.3,108.5 37.3,108.5 0,108.5 0,163 
						37.3,163 					"/>
				</defs>
				<clipPath id="SVGID_00000173880263128787229430000013160905988847880326_">
					<use xlink:href="#SVGID_00000034770726553978451260000013604040502936993463_"  style="overflow:visible;"/>
				</clipPath>
				<g style="clip-path:url(#SVGID_00000173880263128787229430000013160905988847880326_);">
					<path class="st1" d="M37.3,158.4l-7.2-40c0,0-14.2-16.5-26.5-6.8c-8.2,6.4-1.3,47.3,8.2,50C28,166.1,37.3,158.4,37.3,158.4z"/>
				</g>
			</g>
		</g>
	</g>
	<path class="st3" d="M107.7,13.9h-3c-44.5,0-75.8,28.5-75.8,73.1c0,0,0.9,36.6,3.1,52c1.8,12.4,4.3,26.4,19.6,47.6
		c8.9,12.3,36.5,24.2,52.4,25.8l0,0c15.9-1.6,46.3-14,55.2-26.3c15.3-21.2,17.8-35.2,19.6-47.6c2.2-15.5,3.1-52,3.1-52
		c0-44.6-31.3-73.1-75.8-73.1h-3"/>
	<path class="st1" d="M102.7,39.3L102.7,39.3l-71.1,48c-2.3,1.6-5.5,1-7-1.3c-0.6-0.8-0.9-1.8-0.9-2.8c-0.3-18.2,7.2-59,78.3-67.8
		c0.2,0,0.4,0,0.6-0.1c5.3,0,71.6,0.9,83.4,67.6c3.7,20.9-1.2,12-3.2,7.6c-0.6-1.2-1.6-2.1-2.8-2.5c-11.5-4.3-69.6-26.8-77.9-49"/>
	<path class="st4" d="M92,159c-1,0.1-1.4,0.7-0.6,1c3,1.2,8.6,3.3,12.3,3.3c3.5,0,8.9-2.1,11.7-3.3c0.8-0.3,0.4-0.9-0.6-1
		c-3.3-0.2-4.7,0.6-11.4,0.6C97.6,159.6,95.3,158.8,92,159z"/>
	<path class="st3" d="M57.8,17.5c-0.6-1,39.6-14.4,39.6-14.4l7.8-1L108,3c0,0,15.9,3.4,16.8,6.9s3.6,21.6,3.6,21.6l-13.9,2.3
		l-11.2-3.3c0,0-14.6,0-17.5-1S57.8,17.5,57.8,17.5z"/>
	<path class="st5" d="M102.9,28.3c-0.6,0.8-1.2,1.5-1.8,2.1c-15.6,16.3-59.6,27.5-65,45.9c-5.5,19.2-5.9,44.2-5.9,44.2
		s-12.1-11.4-11.6-10.8C-5.6,80.9-9,31,56.2,7.3c36.2-13.1,46.6-4.6,46.6-4.6c0.1,0.3,0.3,0.6,0.5,0.8
		C105.6,6.4,114.4,12.6,102.9,28.3z"/>
	<path class="st5" d="M184.4,111.8c-0.7,0.2-3.9,7.5-3.9,7.5s1.6-21.3-3.5-40.5s-58.2-30.9-70.1-48.3c0.6-0.7,1.2-1.4,1.7-2.1
		c10.5-15.7,2.5-21.9,0.4-24.7c4.4-1.8,29.5-3.9,54.2,5.8C237.5,38.7,185.1,111.6,184.4,111.8z"/>
</g>
</svg>
