<?xml version="1.0" encoding="utf-8"?>
<!-- Generator: Adobe Illustrator 26.0.1, SVG Export Plug-In . SVG Version: 6.00 Build 0)  -->
<svg version="1.1" id="Calque_1" xmlns="http://www.w3.org/2000/svg" xmlns:xlink="http://www.w3.org/1999/xlink" x="0px" y="0px"
	 viewBox="0 0 788 1005" style="enable-background:new 0 0 788 1005;" xml:space="preserve">
<style type="text/css">
	.st0{clip-path:url(#SVGID_00000169544963900613398390000007438208877991830974_);}
	.st1{fill:#B9785C;}
	.st2{clip-path:url(#SVGID_00000014633665315054969560000003469723543852574851_);}
	.st3{fill:#D68F72;}
	.st4{fill:#99533D;}
	.st5{fill:#593723;}
</style>
<g id="Calque_13">
	<g id="random">
		<g>
			<g>
				<defs>
					<polygon id="SVGID_1_" points="458.3,310.9 458.3,310.9 495.6,310.9 495.6,365.4 458.3,365.4 					"/>
				</defs>
				<clipPath id="SVGID_00000075147696426514878590000004836973953611083703_">
					<use xlink:href="#SVGID_1_"  style="overflow:visible;"/>
				</clipPath>
				<g style="clip-path:url(#SVGID_00000075147696426514878590000004836973953611083703_);">
					<path class="st1" d="M458.3,360.8l7.2-40c0,0,14.2-16.5,26.5-6.8c8.2,6.4,1.3,47.3-8.2,50C467.7,368.5,458.3,360.8,458.3,360.8
						z"/>
				</g>
			</g>
		</g>
	</g>
	<g id="random2">
		<g>
			<g>
				<defs>
					<polygon id="SVGID_00000088115721076310745960000000012930705572532909_" points="326.1,310.9 326.1,310.9 288.8,310.9 
						288.8,365.4 326.1,365.4 					"/>
				</defs>
				<clipPath id="SVGID_00000093142278512493449600000001599231909820699318_">
					<use xlink:href="#SVGID_00000088115721076310745960000000012930705572532909_"  style="overflow:visible;"/>
				</clipPath>
				<g style="clip-path:url(#SVGID_00000093142278512493449600000001599231909820699318_);">
					<path class="st1" d="M326.1,360.8l-7.2-40c0,0-14.2-16.5-26.5-6.8c-8.2,6.4-1.3,47.3,8.2,50
						C316.8,368.5,326.1,360.8,326.1,360.8z"/>
				</g>
			</g>
		</g>
	</g>
	<path class="st3" d="M396.5,216.3h-3c-44.5,0-75.8,28.5-75.8,73.1c0,0,0.9,36.6,3.1,52c1.8,12.4,4.3,26.4,19.6,47.6
		c8.9,12.3,36.5,24.2,52.4,25.8l0,0c15.9-1.6,46.3-14,55.2-26.3c15.3-21.2,17.8-35.2,19.6-47.6c2.2-15.5,3.1-52,3.1-52
		c0-44.6-31.3-73.1-75.8-73.1h-3"/>
	<g>
		<g>
			<defs>
				<polygon id="SVGID_00000023244487175735494580000009641085525638179511_" points="413.3,295.1 413.3,295.1 456.6,295.1 
					456.6,308.3 413.3,308.3 				"/>
			</defs>
			<clipPath id="SVGID_00000119819925398793455720000006146179608208294815_">
				<use xlink:href="#SVGID_00000023244487175735494580000009641085525638179511_"  style="overflow:visible;"/>
			</clipPath>
		</g>
	</g>
	<g>
		<g>
			<defs>
				<polygon id="SVGID_00000036245281068511340840000010103238080889845913_" points="371.1,295.1 371.1,295.1 327.8,295.1 
					327.8,308.3 371.1,308.3 				"/>
			</defs>
			<clipPath id="SVGID_00000075874411679839855910000008346835178782101686_">
				<use xlink:href="#SVGID_00000036245281068511340840000010103238080889845913_"  style="overflow:visible;"/>
			</clipPath>
		</g>
	</g>
	<g>
		<g>
			<defs>
				<rect id="SVGID_00000085941226126423978280000003113802183390700462_" x="332.3" y="295.1" width="40.1" height="9.2"/>
			</defs>
			<clipPath id="SVGID_00000038384887776172438450000005607159835157966468_">
				<use xlink:href="#SVGID_00000085941226126423978280000003113802183390700462_"  style="overflow:visible;"/>
			</clipPath>
		</g>
	</g>
	<g>
		<g>
			<defs>
				<polygon id="SVGID_00000080167950287363440840000007491428256907277201_" points="415.8,320 415.8,320 443.7,320 443.7,346.9 
					415.8,346.9 				"/>
			</defs>
			<clipPath id="SVGID_00000010304203592369086210000003074236094906788232_">
				<use xlink:href="#SVGID_00000080167950287363440840000007491428256907277201_"  style="overflow:visible;"/>
			</clipPath>
		</g>
	</g>
	<g>
		<g>
			<defs>
				<polygon id="SVGID_00000101064684781249483970000006448463146912064171_" points="368.6,320 368.6,320 340.7,320 340.7,346.9 
					368.6,346.9 				"/>
			</defs>
			<clipPath id="SVGID_00000111887089565865750260000017423930473868320914_">
				<use xlink:href="#SVGID_00000101064684781249483970000006448463146912064171_"  style="overflow:visible;"/>
			</clipPath>
		</g>
	</g>
	<path class="st1" d="M391.5,241.7L391.5,241.7l-71.1,48c-2.3,1.6-5.5,1-7-1.3c-0.6-0.8-0.9-1.8-0.9-2.8c-0.3-18.2,7.2-59,78.3-67.8
		c0.2,0,0.4,0,0.6-0.1c5.3,0,71.6,0.9,83.4,67.6c3.7,20.9-1.2,12-3.2,7.6c-0.6-1.2-1.6-2.1-2.8-2.5c-11.5-4.3-69.6-26.8-77.9-49"/>
	<path class="st4" d="M380.8,361.4c-1,0.1-1.4,0.7-0.6,1c3,1.2,8.6,3.3,12.3,3.3c3.5,0,8.9-2.1,11.7-3.3c0.8-0.3,0.4-0.9-0.6-1
		c-3.3-0.2-4.7,0.6-11.4,0.6C386.4,362,384.1,361.2,380.8,361.4z"/>
	<path class="st3" d="M346.6,219.9c-0.6-1,39.6-14.4,39.6-14.4l7.8-1l2.8,0.9c0,0,15.9,3.4,16.8,6.9s3.6,21.6,3.6,21.6l-13.9,2.3
		l-11.2-3.3c0,0-14.6,0-17.5-1S346.6,219.9,346.6,219.9z"/>
	<path class="st5" d="M391.7,230.7c-0.6,0.8-1.2,1.5-1.8,2.1c-15.6,16.3-59.6,27.5-65,45.9c-5.5,19.2-5.9,44.2-5.9,44.2
		s-12.1-11.4-11.6-10.8c-24.2-28.8-27.6-78.7,37.6-102.4c36.2-13.1,46.6-4.6,46.6-4.6c0.1,0.3,0.3,0.6,0.5,0.8
		C394.4,208.8,403.2,215,391.7,230.7z"/>
	<path class="st5" d="M473.2,314.2c-0.7,0.2-3.9,7.5-3.9,7.5s1.6-21.3-3.5-40.5s-58.2-30.9-70.1-48.3c0.6-0.7,1.2-1.4,1.7-2.1
		c10.5-15.7,2.5-21.9,0.4-24.7c4.4-1.8,29.5-3.9,54.2,5.8C526.3,241.1,473.9,314,473.2,314.2z"/>
</g>
</svg>
