<?xml version="1.0" encoding="utf-8"?>
<!-- Generator: Adobe Illustrator 26.0.1, SVG Export Plug-In . SVG Version: 6.00 Build 0)  -->
<svg version="1.1" id="Calque_1" xmlns="http://www.w3.org/2000/svg" xmlns:xlink="http://www.w3.org/1999/xlink" x="0px" y="0px"
	 viewBox="0 0 788 1005" style="enable-background:new 0 0 788 1005;" xml:space="preserve">
<style type="text/css">
	.st0{clip-path:url(#SVGID_00000137103412998447590230000003019333050806016689_);}
	.st1{fill:#B9785C;}
	.st2{clip-path:url(#SVGID_00000132779304680148902690000001633699385602717369_);}
	.st3{fill:#C98841;}
	.st4{fill:#D68F72;}
	.st5{fill:#99533D;}
	.st6{fill:#593723;}
</style>
<g id="Calque_13">
	<g id="_Répétition_miroir_">
		<g>
			<g>
				<defs>
					<polygon id="SVGID_1_" points="458.3,308.8 458.3,308.8 495.6,308.8 495.6,363.3 458.3,363.3 					"/>
				</defs>
				<clipPath id="SVGID_00000140729510199071508940000003574145737346496134_">
					<use xlink:href="#SVGID_1_"  style="overflow:visible;"/>
				</clipPath>
				<g style="clip-path:url(#SVGID_00000140729510199071508940000003574145737346496134_);">
					<path class="st1" d="M458.3,358.7l7.2-40c0,0,14.2-16.4,26.5-6.8c8.2,6.4,1.3,47.3-8.2,50C467.7,366.4,458.3,358.7,458.3,358.7
						z"/>
				</g>
			</g>
		</g>
	</g>
	<g id="_Répétition_miroir_2">
		<g>
			<g>
				<defs>
					<polygon id="SVGID_00000078006879035188865090000007294587857653875351_" points="326.1,308.8 326.1,308.8 288.8,308.8 
						288.8,363.3 326.1,363.3 					"/>
				</defs>
				<clipPath id="SVGID_00000157987755115352526500000001251753214292970653_">
					<use xlink:href="#SVGID_00000078006879035188865090000007294587857653875351_"  style="overflow:visible;"/>
				</clipPath>
				<g style="clip-path:url(#SVGID_00000157987755115352526500000001251753214292970653_);">
					<path class="st1" d="M326.1,358.7l-7.2-40c0,0-14.2-16.4-26.5-6.8c-8.2,6.4-1.3,47.3,8.2,50
						C316.8,366.4,326.1,358.7,326.1,358.7z"/>
				</g>
			</g>
		</g>
	</g>
	<path class="st3" d="M303,301.4c0-50.6,39.8-91.7,88.9-91.7s88.9,41.1,88.9,91.7s-73,88.3-88.9,91.7C409.7,386.9,303,352,303,301.4
		z"/>
	<path class="st4" d="M396.5,214.3h-3c-44.5,0-75.8,28.5-75.8,73.1c0,0,0.9,36.6,3.1,52c1.8,12.4,4.3,26.4,19.6,47.6
		c8.9,12.3,36.5,24.2,52.4,25.8l0,0c15.9-1.6,46.3-14,55.2-26.3c15.4-21.2,17.9-35.2,19.6-47.6c2.2-15.5,3.1-52,3.1-52
		c0-44.5-31.3-73.1-75.8-73.1h-3"/>
	<path class="st5" d="M380.8,359.3c-1,0.1-1.4,0.7-0.6,1c3,1.2,8.6,3.3,12.3,3.3c3.5,0,8.9-2.1,11.7-3.3c0.8-0.3,0.4-0.9-0.6-1
		c-3.3-0.2-4.7,0.6-11.4,0.6C386.4,360,384.1,359.1,380.8,359.3z"/>
	<path class="st6" d="M325.5,280.5c7.7-10.9,36.1-20,45.3-31.8s9.1-15.2,9.1-15.2c4.6,12.9,96.8,8,90.2,52.7c0,0-18.5,75.6-1,91
		c10.5,9.2,23.8,15.7,30.3,11.9s-3-57.7,7.8-85.5c11.2-28.8-17-55.8-28.8-67.5s-52.5-48.2-73.5-45.8s-42,8.2-39.4,22.3
		c0,0-27.6-11.8-39.4,10.6s-60.4,129.3-60.4,129.3l0,0c0,0-0.4,13.1,24.9,14.2c11.7,0.6,22.2-7.1,25-18.4
		C326.9,303.5,320.9,286.9,325.5,280.5z"/>
</g>
</svg>
