<?xml version="1.0" encoding="utf-8"?>
<!-- Generator: Adobe Illustrator 26.0.3, SVG Export Plug-In . SVG Version: 6.00 Build 0)  -->
<svg version="1.1" id="Calque_9" xmlns="http://www.w3.org/2000/svg" xmlns:xlink="http://www.w3.org/1999/xlink" x="0px" y="0px"
	 viewBox="0 0 788 1005" style="enable-background:new 0 0 788 1005;" xml:space="preserve">
<style type="text/css">
	.st0{fill:#CCAA97;}
	.st1{fill:#E0B9A0;}
	.st2{fill:#423522;}
	.st3{fill:#277A9B;}
	.st4{fill:#22677C;}
</style>
<path class="st0" d="M426.8,269l6.8-22.8c0,0,9.2-9.9,14.9-4.2c3.8,3.8-5.1,29-10,30C430.2,273.8,426.8,269,426.8,269z"/>
<path class="st0" d="M361.4,269l-8.2-24.5c0,0-7.9-8.1-13.6-2.5c-3.8,3.8,5.1,29,10,30C357.9,273.8,361.4,269,361.4,269z"/>
<path class="st1" d="M393,180.9c-23.9,0-43.3,11.2-43.3,45.6c0,46,27.5,79,43.3,79s43.3-33.1,43.3-79C436.4,192,417,180.9,393,180.9
	z"/>
<g id="Calque_7_00000102517533513937852740000003620408865085819830_">
	<path class="st2" d="M351.6,250c0,0-0.6-17.6,0.9-23c2.1-7.5,6.6-20.5,12.7-23.2c6.4-2.9,23.1,2.1,29.9,2.3
		c6.5,0.1,19.6-6.4,25.8-3.7c3.8,1.7,8.8,11,10.5,15.6c3.2,8.2,2.3,29.2,2.3,29.2v1.9c1.6-0.6,3-1.4,4.4-2.4
		c2.3-14.9,4.7-48.2-9.9-57.2c-6.3-3.9-24.8-9.6-31.5-10.5c-6.8-0.9-20.8,1.1-27.8,2.8c-7.2,1.7-9.2,6-15,11
		c-8.6,7.5-8.9,42.9-5.5,52.6L351.6,250z"/>
</g>
<path class="st3" d="M439.7,207.4c-1.2,4.6-0.7,9.8-2.4,14.6c-0.8,2-2.2,2.7-4.8,2.6c-2.9-0.2-5.8-1.1-8.6-1.9c-4-1-8-2-12-3.1
	c-10.9-3.3-21.8-2.8-32.8-0.3c-7.6,1.7-14.9,3.8-22.7,4.9c-6,1-7.1,0.5-8.5-4.3c-0.3-1.1-0.5-2.2-0.8-3.4c-0.6-3.4-0.5-6.9-1.5-10.4
	l18.7-2.5c19.3-2.6,39.1-2.2,58.2,0.9L439.7,207.4z"/>
<path class="st4" d="M439.5,208.7c0.2-1,0.5-2,1-2.9c-1-10.2-3.4-19.7-7.4-28.7c-2.7-5.9-7.4-9.7-14.1-12.1
	c-3.1-1.1-6.5-1.9-9.8-2.7c-4.9-1.1-10.4-0.5-15-2.7c-1.1-0.6-2.6-0.2-3.3,0.5c-1.3,1-2.8,1-4.3,1.1c-5.2,0.4-10.4,1.4-15.2,2.7
	c-8.6,2.4-15.4,6.5-18.3,14.3c-2.3,6-4.4,12.2-5.6,18.5c-0.6,3.6-2.3,7.2-1.1,10.7l16.5-2.1c20.8-2.9,42-2.4,62.7,1.1L439.5,208.7z"
	/>
</svg>
