<?xml version="1.0" encoding="utf-8"?>
<!-- Generator: Adobe Illustrator 26.0.3, SVG Export Plug-In . SVG Version: 6.00 Build 0)  -->
<svg version="1.1" id="Calque_9" xmlns="http://www.w3.org/2000/svg" xmlns:xlink="http://www.w3.org/1999/xlink" x="0px" y="0px"
	 viewBox="0 0 788 1005" style="enable-background:new 0 0 788 1005;" xml:space="preserve">
<style type="text/css">
	.st0{fill:#CCAA97;}
	.st1{fill:#E0B9A0;}
	.st2{fill:#423522;}
</style>
<path class="st0" d="M427.1,268.8l6.8-22.8c0,0,9.2-9.9,14.9-4.2c3.8,3.8-5.1,29-10,30C430.5,273.6,427.1,268.8,427.1,268.8z"/>
<path class="st0" d="M361.7,268.8l-8.2-24.5c0,0-7.9-8.1-13.6-2.5c-3.8,3.8,5.1,29,10,30C358.2,273.6,361.7,268.8,361.7,268.8z"/>
<path class="st1" d="M393.4,180.7c-23.9,0-43.3,11.2-43.3,45.6c0,46,27.5,79,43.3,79s43.3-33.1,43.3-79
	C436.7,191.8,417.4,180.7,393.4,180.7z"/>
<path class="st2" d="M351.9,249.9l-6-38.3c-0.7-4.1,0.1-8.4,2.3-12c5.6-9.6,19.6-26.6,47.6-25.9c26.9,0.7,38.6,14.4,43.4,22.8
	c2,3.5,2.7,7.6,2,11.5l-6.1,39.1l-3.2-31.5c-0.4-4.4-3.5-8.1-7.7-9.3c-11.6-3.5-35.8-8.8-60.1-1.9c-4.3,1.2-7.4,4.8-7.9,9.3
	L351.9,249.9z"/>
</svg>
