<?xml version="1.0" encoding="utf-8"?>
<!-- Generator: Adobe Illustrator 26.0.3, SVG Export Plug-In . SVG Version: 6.00 Build 0)  -->
<svg version="1.1" id="Layer_1" xmlns="http://www.w3.org/2000/svg" xmlns:xlink="http://www.w3.org/1999/xlink" x="0px" y="0px"
	 viewBox="0 0 188 259" style="enable-background:new 0 0 188 259;" xml:space="preserve">
<style type="text/css">
	.st0{fill:#772A1F;}
	.st1{fill:#CCAA97;}
	.st2{fill:#E0B9A0;}
	.st3{fill:#423522;}
	.st4{fill:#893024;}
	.st5{fill:#913323;}
</style>
<polygon class="st0" points="41,112.1 50.4,115.1 135.5,113.2 145.3,110.6 102.2,89.2 54.6,91.1 "/>
<path class="st1" d="M126.8,163.3l6.8-22.8c0,0,9.2-9.9,14.9-4.2c3.8,3.8-5.1,29-10,30C130.2,168.1,126.8,163.3,126.8,163.3z"/>
<path class="st1" d="M61.4,163.3l-8.2-24.5c0,0-7.9-8.1-13.6-2.5c-3.8,3.8,5.1,29,10,30C57.9,168.1,61.4,163.3,61.4,163.3z"/>
<path class="st2" d="M93.1,75.2c-23.9,0-43.3,11.2-43.3,45.6c0,46,27.5,79,43.3,79s43.3-33.1,43.3-79
	C136.4,86.3,117.1,75.2,93.1,75.2z"/>
<path class="st3" d="M51.6,144.4l-6.9-43.8c0,0,11.8-33.3,50.7-32.3c38.9,0.9,46.2,29.3,46.2,29.3l-6.9,44.2l-3.9-38.4
	c0,0-38.5-15.9-74.2-1.9L51.6,144.4z"/>
<path class="st4" d="M48.8,89.2c0,0,9.1-21.7,12.9-24.4c4-2.7,31.2-6.1,31.2-6.1s26.9,3.4,29,4.6c2.1,1.2,17,26.7,17,26.7l-46.2-4.5
	L48.8,89.2z"/>
<path class="st5" d="M41.3,112.3c0,0,22-11,51.9-11.2c29.8-0.2,50.7,9.8,50.7,9.8s2.1,0.3,2.1-1.1c0-1.1-5.3-15.3-7.7-21.5
	c-0.7-1.9-2-3.3-3.6-4c-5.8-2.2-21.3-7.4-41.5-7.6c-20.6-0.2-35.5,4.4-40.6,6.3c-1.3,0.4-2.4,1.5-3,3
	C46.4,92.9,37.9,112.9,41.3,112.3z"/>
</svg>
