<?xml version="1.0" encoding="utf-8"?>
<!-- Generator: Adobe Illustrator 26.0.3, SVG Export Plug-In . SVG Version: 6.00 Build 0)  -->
<svg version="1.1" id="Layer_1" xmlns="http://www.w3.org/2000/svg" xmlns:xlink="http://www.w3.org/1999/xlink" x="0px" y="0px"
	 viewBox="0 0 188 259" style="enable-background:new 0 0 188 259;" xml:space="preserve">
<style type="text/css">
	.st0{fill:#CCAA97;}
	.st1{fill:#E0B9A0;}
	.st2{fill:#423522;}
	.st3{fill:#F78491;}
	.st4{fill:#CC3E63;}
</style>
<path class="st0" d="M126.8,176.6l6.8-22.8c0,0,9.2-9.9,14.9-4.2c3.8,3.8-5.1,29-10,30C130.2,181.4,126.8,176.6,126.8,176.6z"/>
<path class="st0" d="M61.4,176.6l-8.2-24.5c0,0-7.9-8.1-13.6-2.5c-3.8,3.8,5.1,29,10,30C57.9,181.4,61.4,176.6,61.4,176.6z"/>
<path class="st1" d="M93.1,88.5c-23.9,0-43.3,11.2-43.3,45.6c0,46,27.5,79,43.3,79s43.3-33.1,43.3-79
	C136.4,99.6,117.1,88.5,93.1,88.5z"/>
<path class="st2" d="M103.9,78c1.8-2.5,3.4-4.8,5.2-7.3c-2.1,8.8,4.3,9.9,10.3,12.1c3.6,1.4,7.2,3.8,9.9,6.6
	c10,10.2,7.6,20-7.5,29.6c1.1-2.8,1.8-4.9,3.3-9.1c-22.3,18.5-43.6,15.3-66.1,0.4c1.6,3.5,2.7,5.9,3.9,8.6
	c-11.9-4-15.5-11.8-10.7-22.2c4.3-9.6,12.8-13.9,22.5-16.5c3.1-0.8,6.1-1.3,9.2-2c-7.8-12.5-8.1-20.5-1.3-26.8
	c5.4-5.1,15-5.9,20.8-1.6c7.3,5.3,7.1,11.6-0.8,26.8C102.9,77.2,103.4,77.6,103.9,78z"/>
<path class="st2" d="M134.7,156.8c-1.6-11.9-4-24.8-4.7-36.7c-0.2-4.1,1.8-10.3,5.2-17C141.4,118.2,141.6,138,134.7,156.8z"/>
<path class="st2" d="M50.1,105c6.7,4.8,6.2,15.9,4.1,24.1c-2.2,8.6-0.8,17.6-2.2,28.8C46.7,140.7,44.7,120.4,50.1,105z"/>
<path class="st3" d="M102.9,78.5H82.4c-0.8,0-1.5-0.7-1.5-1.5l0,0c0-0.8,0.7-1.5,1.5-1.5h20.5c0.8,0,1.5,0.7,1.5,1.5l0,0
	C104.4,77.8,103.8,78.5,102.9,78.5z"/>
<path class="st4" d="M102.9,75.9H82.4c-0.8,0-1.5-0.7-1.5-1.5l0,0c0-0.8,0.7-1.5,1.5-1.5h20.5c0.8,0,1.5,0.7,1.5,1.5l0,0
	C104.4,75.2,103.7,75.9,102.9,75.9z"/>
</svg>
