<?xml version="1.0" encoding="utf-8"?>
<!-- Generator: Adobe Illustrator 26.0.3, SVG Export Plug-In . SVG Version: 6.00 Build 0)  -->
<svg version="1.1" id="Layer_1" xmlns="http://www.w3.org/2000/svg" xmlns:xlink="http://www.w3.org/1999/xlink" x="0px" y="0px"
	 viewBox="0 0 788 1005" style="enable-background:new 0 0 788 1005;" xml:space="preserve">
<style type="text/css">
	.st0{fill:#CCAA97;}
	.st1{fill:#E0B9A0;}
	.st2{fill:#423522;}
	.st3{fill:#89371A;}
	.st4{fill:#993816;}
</style>
<path class="st0" d="M427.6,268.5l6.8-22.8c0,0,9.2-9.9,14.9-4.2c3.8,3.8-5.1,29-10,30C431,273.3,427.6,268.5,427.6,268.5z"/>
<path class="st0" d="M362.2,268.5L354,244c0,0-7.9-8.1-13.6-2.5c-3.8,3.8,5.1,29,10,30C358.7,273.3,362.2,268.5,362.2,268.5z"/>
<path class="st1" d="M393.9,180.4c-23.9,0-43.3,11.2-43.3,45.6c0,46,27.5,79,43.3,79s43.3-33.1,43.3-79
	C437.2,191.5,417.9,180.4,393.9,180.4z"/>
<path class="st2" d="M398.4,202.9c0,0,21-0.5,23,1.3c1.6,1.4,2.6,9.1,2.9,11.5c0,0.5,0.2,0.8,0.6,1.1l8.3,7.4c0.3,0.2,0.5,0.7,0.6,1
	l0.8,19.1c0.2,1.3-0.3,2.9,0.6,2.1c1-0.7,3.1-1.6,2.9-1.3c4.4-48.5-6.9-58.3-10.2-59.7c-0.5-0.2-0.8-0.6-0.9-1
	c-0.7-2.3-3.2-9-9.8-12.9c-0.6-0.3-0.9-1.1-0.7-2c1.3-4.8,7.8-20.9,6.8-24.8c-0.7-3.1-6.4,5.2-8.3,10.3c-0.2,0.8-1.4-0.7-1.5-1.5
	c-3.9-14.4,14.1-15.8,16.4-19.2c0.9-1.3-20.3-1-22.3,8.6c-0.2,0.8-1.3,0.8-1.4-0.1c-0.2-2.9-0.6-5.9-1.4-7c-1.3-1.8-3.7,4-4.8,7
	c-0.2,0.6-1,0.6-1.3,0c-0.9-2.2-2.6-5.7-4.2-5.4c-1.4,0.2-0.1,9.5,1.1,16.4c0.1,0.8-0.9,1.3-1.3,0.5c-1.5-3-3.4-5.9-5.5-5.3
	c-4,1,5.5,15.7,6.8,17.6c0.1,0.1,0.1,0.2,0.2,0.3l0.5,1.3c0.3,1.1-0.5,2.4-1.5,2.3l-2.8-0.2c-0.3,0-0.6-0.1-0.8-0.3
	c-2.5-2.1-17.3-14-20.4-14.5c-2.9-0.5-1.7,7.4,7.5,13.8c1.3,0.9,0.8,3.1-0.8,3.2l0,0c-0.2,0-0.5-0.1-0.7-0.2
	c-2.4-1.4-16.5-9.2-22.3-4.8c-1,0.8-0.8,2.6,0.5,3c0.7,0.2,1.4,0.5,2.2,0.7c1.5,0.5,1.5,2.9,0,3.3c-3.4,0.9-7.1,2.6-8.6,6
	c-3,6.8,16-3.9,18-3.3c1.7,0.5-2.4,4.5-4.1,6c-0.3,0.3-0.9,0.5-1.4,0.3c-4.1-1.3-23.9-7.4-25.4-2.3c-1,3.4,6,5.7,11.8,7
	c1.5,0.3,1.7,2.8,0.1,3.3c-6.7,2.5-15.8,7.5-17,16.1c-0.2,1.6,1.5,2.5,2.5,1.4c2.3-2.3,6.1-5.9,10.7-8.2c1.5-0.7,2.9,1,2,2.5
	c-4.4,6.9-11.1,20.1-4.9,28.7c2.5,2.8,6.1-12.3,8.2-22.1c0.3-1.7-1.6-2.9-2.6-1.5c-2.8,3.7-6.7,7.8-11.1,9.1c-1.1,0.3-1.5,2-0.7,2.9
	c2.5,2.6,10.5,3.3,17.6-14.8c0,0-5.9,15.3-5.2,19.8c0.6,3.9,4.2,16.3,4.8,19.3c0.1,0.5,0.2,0.3,0.5,0.6l1.5,1.6l1.6-24.1
	c0-0.5,0.2-0.8,0.6-1l4.4-3.9c0.3-0.3,0.6-0.9,0.6-1.4c-0.1-2.2,0-7.7,2.6-9.3C366.8,204.9,398.4,202.9,398.4,202.9z"/>
<path class="st3" d="M416.2,169h-19.5c-0.3,0-0.7-0.3-0.7-0.7v-0.2c0-0.3,0.3-0.7,0.7-0.7h19.6c0.3,0,0.7,0.3,0.7,0.7v0.2
	C417,168.7,416.7,169,416.2,169z"/>
<path class="st4" d="M416.2,171.2h-19.5c-0.3,0-0.7-0.3-0.7-0.7v-0.8c0-0.3,0.3-0.7,0.7-0.7h19.6c0.3,0,0.7,0.3,0.7,0.7v0.8
	C417,170.9,416.7,171.2,416.2,171.2z"/>
</svg>
