<?xml version="1.0" encoding="utf-8"?>
<!-- Generator: Adobe Illustrator 26.0.3, SVG Export Plug-In . SVG Version: 6.00 Build 0)  -->
<svg version="1.1" id="Calque_9" xmlns="http://www.w3.org/2000/svg" xmlns:xlink="http://www.w3.org/1999/xlink" x="0px" y="0px"
	 viewBox="0 0 188 259" style="enable-background:new 0 0 188 259;" xml:space="preserve">
<style type="text/css">
	.st0{fill:#CCAA97;}
	.st1{fill:#E0B9A0;}
	.st2{fill:#423522;}
	.st3{fill:#B22947;}
	.st4{fill:#87213C;}
</style>
<path class="st0" d="M134.6,181.4l6.8-22.8c0,0,9.2-9.9,14.9-4.2c3.8,3.8-5.1,29-10,30C138,186.2,134.6,181.4,134.6,181.4z"/>
<path class="st0" d="M69.2,181.4L61,156.9c0,0-7.9-8.1-13.6-2.5c-3.8,3.8,5.1,29,10,30C65.7,186.2,69.2,181.4,69.2,181.4z"/>
<path class="st1" d="M100.9,93.3c-23.9,0-43.3,11.2-43.3,45.6c0,46,27.5,79,43.3,79s43.3-33.1,43.3-79
	C144.2,104.4,124.9,93.3,100.9,93.3z"/>
<path class="st2" d="M59.8,156.6l-1.2-7.7c-0.6-3.2-1.4-12.6,0.1-15.4l6.8-13.4c2.4-4.8,7.6-7.6,12.9-7l22.2,2.6
	c0.7,0.1,1.4,0.1,2.2,0.1c3.5-0.2,15-0.8,23-1.2c5.1-0.2,9.7,2.7,11.8,7.3c1.5,3.4,3.3,7.4,4.6,10.5c1.5,3.5,2,7.6,1.4,11.5
	l-1.8,10.5c-0.1,0.7-0.2,1.5-0.2,2.2l0,0c0,0,9.7-10.8,5.6-27.6c-1.4-6.3,1.1-23-7.9-34.4C131,84.2,85,81.1,69.8,89.9
	c-6.1,3.6-11.2,10.6-14.3,25.2c-0.2,0.8-0.4,1.6-0.7,2.3c-4.5,11.4-2.9,16.7-1.5,25.7C54,147.9,56.4,152.7,59.8,156.6L59.8,156.6z"
	/>
<path class="st3" d="M28.1,108.2c1.5-4.8,5.3-8.1,8.8-11.3c12.3-11.7,26.2-21.4,40.7-30.2c2.1-1.3,3.4-2.7,2.5-5
	c-1.1-2.8,0.2-4.8,2.5-6c2.6-1.4,5.4-1.4,7.3,1c1.5,2,2.8,1.4,4.5,0.5c11-5.9,22.4-11.1,34.4-14.4c6.4-1.6,12.8-2.2,19.3-1.3
	c3.7,0.4,6.7,2.1,7.6,6.4c1,7.5-4.5,11-9.1,14.9c-13.2,11.3-28.6,18.6-44.3,26c-10.5,4.8-21.4,9.6-32.6,13.5
	c-10.7,3.8-21.6,7.6-32.8,9.6C33.2,112.5,29.7,112.4,28.1,108.2z"/>
<path class="st4" d="M28.1,108.2c1.6,4.2,5.2,4.3,8.8,3.6c11.2-2.1,22-5.8,32.8-9.6c11.2-3.9,22-8.6,32.7-13.6
	c15.5-7.3,31.1-14.6,44.3-26c4.5-3.9,10-7.7,9.1-14.9c2.6,5.9,1.3,11.8-0.5,17.4c-3.1,9.1-7.9,17.3-13.8,24.8
	c-1.8,0.7-3.5-0.5-5.2-0.7c-13.5-0.8-26.2,2.7-38.6,7.1c-10.2,3.6-20.2,7.9-30.8,10.9c-4.8,1.3-10,1.8-14.5,4.4
	c-6.1,1.1-12.4,2.6-18.8,2.2C28.8,113.7,28,112.5,28.1,108.2z"/>
<path class="st3" d="M52.2,111.6c4.5-2.6,9.6-3.1,14.5-4.4c10.4-3.1,20.4-7.3,30.8-10.9c12.5-4.3,25.1-7.9,38.6-7.1
	c1.8,0.1,3.4,1.3,5.2,0.7c0.5,3,1,5.7,1.6,8.7c0.4,1.8-0.2,2.2-1.9,2c-18.1-1.5-35.6,1.9-52.9,6.1c-11.2,2.7-22.5,5.7-32.5,11.8
	c-1.6,1-2.2,0.2-2.5-1.2C52.8,115.5,52.5,113.6,52.2,111.6z"/>
</svg>
