<svg xmlns="http://www.w3.org/2000/svg" viewBox="0 0 200 200"><defs><style>.cls-1{fill:#d48f72;}.cls-2{fill:#a85d3d;}.cls-3{fill:none;stroke:#000;stroke-miterlimit:10;stroke-width:3px;}.cls-4{fill:#d79072;}.cls-5{fill:#574d3e;}.cls-6{fill:#473415;}.cls-7{fill:#c77a58;}</style></defs><g id="Calque_5" data-name="Calque 5"><polygon points="26.6 169.55 26.65 169.53 26.6 169.51 26.6 169.55"/><polygon points="26.65 169.53 26.69 169.55 26.69 169.51 26.65 169.53"/><polygon points="26.6 169.55 26.65 169.53 26.6 169.51 26.6 169.55"/><polygon points="26.65 169.53 26.69 169.55 26.69 169.51 26.65 169.53"/><path class="cls-1" d="M154.7,63.83c-.27,17.22-11.76,14.87-16.54,19-5.64,4.83-3.71,22.45-7.7,28.71-1.1,1.73-5.1,4.53-7.09,4.08-5.61-1.29-10.78-13.79-15.59-16.93-2.84-1.84-10.58-1.62-13.55,0-5,2.77-10,15.64-15.59,16.93-2,.45-6-2.35-7.09-4.08-4-6.26-2.06-23.88-7.71-28.71-4.77-4.09-16.26-1.74-16.53-19C47.13,51.9,63,47.08,63,47.08l18-8.93A13.88,13.88,0,0,0,85.22,35a14.17,14.17,0,0,0,3.55-7.72,14.45,14.45,0,0,0,.11-1.87l0-3.3h24l0,2.9v1.44c0,.15,0,.3,0,.45h0c0,.29,0,.59.07.88a13.08,13.08,0,0,0,.42,2.05,12.81,12.81,0,0,0,6.59,7.89l18.18,9a11.85,11.85,0,0,0,1.42.6C142.65,48.37,154.86,53.36,154.7,63.83Z"/><polygon class="cls-1" points="113.27 43.72 100.94 58.3 94.3 50.37 88.74 43.72 89.06 25.08 89.11 22.07 112.9 22.07 112.9 22.17 112.95 24.97 112.98 26.86 112.98 26.87 112.99 27.45 113.04 30.49 113.27 43.72"/><path class="cls-2" d="M113.49,29.93l-.45.56c-2.31,2.84-12.93,15.72-18.74,19.88-1.44,1-2.58,1.52-3.23,1.2-3-1.46-6.66-15.74-6.66-15.74a8.33,8.33,0,0,0,.81-.87,17.16,17.16,0,0,0,3.49-7.43l.06-.29c.11-.61.21-1.34.29-2.16s.16-1.93.21-3H112.9v.1l0,4.94.07.34.06.3.42,2.05Z"/><path class="cls-3" d="M128.74,66.84c5.34,11.21,18.36,17.39,18.36,17.39s23.75,14.7,31.59,19.72c3.69,2.37,11.31,7.43,17.47-1.62h0c5.08-7.46-1.26-13.61-4.57-16.22-6.73-5.31-21.49-14.65-27.13-21-4.21-4.7-8.86-13.6-19.35-16.23,0,0-8.35-3.1-14.24,3.7l-.23.27a12.84,12.84,0,0,0-1.9,14Z"/><path class="cls-4" d="M189.88,87.11c-8.32-3.21-14.66,5.3-16.77,8.53s-4.79,10.73-6.12,14.42c-3.38,9.43-7.86,25.71-11.3,34.89-2.26,6-3.62,9.16-.15,11.63,3.16,2.25,7.23-2.58,8.85-4.45,6.66-7.71,19.87-22.61,25.49-31.8,2.31-3.78,6.28-11.84,7.23-16.16C199.78,92.08,192.3,88.05,189.88,87.11Z"/><path class="cls-4" d="M11.88,88.91c8.32-3.22,14.65,5.29,16.77,8.52s4.79,10.74,6.11,14.42c3.39,9.43,7.87,25.72,11.31,34.9,2.26,6,3.62,9.15.15,11.62-3.16,2.25-7.23-2.57-8.85-4.45-6.66-7.71-19.87-22.61-25.49-31.8C9.57,118.35,5.6,110.28,4.65,106,2,93.88,9.46,89.84,11.88,88.91Z"/><path class="cls-3" d="M73,68.64C67.68,79.85,54.66,86,54.66,86s-23.75,14.69-31.59,19.71c-3.69,2.37-11.31,7.44-17.47-1.61h0C.52,96.66,6.86,90.51,10.17,87.9c6.73-5.31,21.49-14.64,27.13-21,4.21-4.71,8.86-13.61,19.35-16.24,0,0,8.35-3.09,14.24,3.7l.23.27a12.88,12.88,0,0,1,1.9,14Z"/><path class="cls-5" d="M104.8,50.92l12.72-15.55S141.66,43.9,149,48.24c12.84,7.62,48.6,40.4,48.6,40.4s2.19,7.91,2,10.6c-.33,5-4.57,13.73-7,18.76-4.81,9.71-24.05,36.06-24.05,36.06l-3.68.46L154,145.45l-.86-3.66,14.14-43.4L140.91,81.87,136.31,111l2.24,30.14-2.91,5.54H66.12l-3.49-5.23.27-29.06-4-26.92L31.69,101.64l16.94,46.21c-.3.46-10.41,11.79-10.41,11.79s-4.34-3.61-5.71-4.93C21.93,144.51,4.87,119.34,1,105.12c-.92-3.34.49-13.81.49-13.81L31.75,64.65,55.22,45.49,83.8,35.32,95,50.65a6.22,6.22,0,0,0,5,2.56h0A6.19,6.19,0,0,0,104.8,50.92Z"/><polygon class="cls-6" points="65.39 156.88 66.06 146.79 135.59 146.79 136.48 155.54 65.39 156.88"/><path class="cls-4" d="M157.19,155.77c1.1,1.28,1.94,3.81-.37,6.78,0,0-6.52,10.11-9.7,12.44-1.42,1-5.27,3.61-6.61,2.46-3.8-3.24-7.21-11.91-7-17.88.06-1.79,3.65-4.19,5.35-4.78s5.91.32,7.87.11a31.5,31.5,0,0,0,3.17-.64C152.47,153.63,155.67,154,157.19,155.77Z"/><polygon class="cls-7" points="152.05 150.88 150.64 154.12 152.95 159.45 155.49 164.55 157.58 161.51 161.63 157.73 152.05 150.88"/><polygon class="cls-5" points="151.6 151.27 154.6 145.54 165.18 154.73 159.34 160.01 151.6 151.27"/><path class="cls-4" d="M44.57,157.56c-1.11,1.28-1.94,3.81.37,6.78,0,0,6.52,10.12,9.7,12.45,1.42,1,5.27,3.6,6.61,2.46,3.8-3.25,7.21-11.92,7-17.89-.06-1.79-3.66-4.18-5.35-4.78-1.85-.65-5.91.33-7.87.11a28.9,28.9,0,0,1-3.17-.64C49.29,155.43,46.09,155.8,44.57,157.56Z"/><polygon class="cls-7" points="49.71 152.68 51.12 155.91 48.81 161.24 46.27 166.34 44.18 163.31 40.13 159.53 49.71 152.68"/><polygon class="cls-5" points="50.16 153.07 47.16 147.33 36.58 156.53 42.42 161.8 50.16 153.07"/></g></svg>