<?xml version="1.0" encoding="utf-8"?>
<!-- Generator: Adobe Illustrator 26.0.1, SVG Export Plug-In . SVG Version: 6.00 Build 0)  -->
<svg version="1.1" id="Calque_1" xmlns="http://www.w3.org/2000/svg" xmlns:xlink="http://www.w3.org/1999/xlink" x="0px" y="0px"
	 viewBox="0 0 788 1005" style="enable-background:new 0 0 788 1005;" xml:space="preserve">
<style type="text/css">
	.st0{fill:#FFFFFF;}
	.st1{fill:#4C2014;}
	.st2{fill:#51281D;}
	.st3{fill:#502F21;}
</style>
<circle class="st0" cx="375.6" cy="242.6" r="6.8"/>
<circle class="st0" cx="411.8" cy="242.6" r="6.8"/>
<circle cx="373.4" cy="240.9" r="3.3"/>
<circle cx="409.7" cy="240.9" r="3.3"/>
<path class="st1" d="M377.9,277.5c0.3-0.6,1.4-1.6,3.5-2.5c3.4-1.3,6.9-2.1,10.6-2.1c5.9-0.1,11.6,2.1,15.9,6.1
	c0,0-4.6,11.7-15.8,10.9C383.9,289.2,377.9,277.5,377.9,277.5z"/>
<path class="st0" d="M392.4,277.9l-8.2-0.4l-2.2-0.9c3.6-1.5,7.5-2.1,11.4-2c6.7,0.4,10.3,2.9,10.3,2.9l-1.7,0.8L392.4,277.9z"/>
<path class="st2" d="M362.8,230.4c0.1,0,0.3,0,0.4,0c0,0,4.4-3.8,8-3.6c8.2,0.5,8,3.4,10.7,4.2c0.8,0.2,2.7-0.1,3.2-0.5
	c0.4-0.4,1-2.1,0.5-2.5c-0.2-0.2-6.9-5.5-16.1-4.4c-3.8,0.5-6.8,4.6-7,4.7c-0.6,0.2-0.9,0.8-0.7,1.4
	C362,230.1,362.4,230.4,362.8,230.4z"/>
<path class="st2" d="M425.1,229.7c-0.1,0-0.3,0-0.4,0c0,0-4.4-3.8-8-3.6c-8.2,0.5-8,3.4-10.7,4.2c-0.8,0.2-2.7-0.1-3.2-0.5
	c-0.4-0.4-1-2.1-0.5-2.5c0.2-0.2,6.9-5.5,16.1-4.4c3.8,0.5,6.8,4.6,7,4.7c0.6,0.2,0.9,0.8,0.7,1.4
	C425.9,229.4,425.5,229.7,425.1,229.7z"/>
<path class="st3" d="M401.2,260.6c0,0-4.7,3.7-7.4,3.7c-2.6,0-7-3.6-7-3.6s5.4,0.7,7.2,0.7S401.2,260.6,401.2,260.6z"/>
</svg>
