<?xml version="1.0" encoding="utf-8"?>
<!-- Generator: Adobe Illustrator 25.4.1, SVG Export Plug-In . SVG Version: 6.00 Build 0)  -->
<svg version="1.1" id="Calque_1" xmlns="http://www.w3.org/2000/svg" xmlns:xlink="http://www.w3.org/1999/xlink" x="0px" y="0px"
	 viewBox="0 0 200 200" style="enable-background:new 0 0 200 200;" xml:space="preserve">
<style type="text/css">
	.st0{fill:#FFFFFF;}
	.st1{fill:#080808;stroke:#000000;stroke-miterlimit:10;}
	.st2{clip-path:url(#SVGID_00000121980864428873068380000001255344077345810818_);}
	.st3{fill:none;stroke:#000000;stroke-width:2;stroke-linecap:round;stroke-miterlimit:10;}
	.st4{clip-path:url(#SVGID_00000039826179796465363530000001194872624485087414_);}
	.st5{fill:#844F3D;}
	.st6{fill:#66183F;}
</style>
<g id="Calque_10">
	<circle class="st0" cx="119.5" cy="114.4" r="6.8"/>
	<circle class="st0" cx="84.7" cy="114.4" r="6.8"/>
	<circle class="st1" cx="86.8" cy="114.5" r="4"/>
	<circle class="st1" cx="121.7" cy="114.5" r="4"/>
	<g>
		<defs>
			<rect id="SVGID_1_" x="111.3" y="97.4" width="22.1" height="6.7"/>
		</defs>
		<clipPath id="SVGID_00000076597111679689386390000014496629176823439013_">
			<use xlink:href="#SVGID_1_"  style="overflow:visible;"/>
		</clipPath>
		<g style="clip-path:url(#SVGID_00000076597111679689386390000014496629176823439013_);">
			<path class="st3" d="M112.3,101.7c6.1-4.9,14.8-4.2,20.2,1.4"/>
		</g>
	</g>
	<g>
		<defs>
			<rect id="SVGID_00000121242150215081007170000013897129661423374213_" x="72" y="97.4" width="22.2" height="6.7"/>
		</defs>
		<clipPath id="SVGID_00000043423703890655246710000010722336567019014044_">
			<use xlink:href="#SVGID_00000121242150215081007170000013897129661423374213_"  style="overflow:visible;"/>
		</clipPath>
		<g style="clip-path:url(#SVGID_00000043423703890655246710000010722336567019014044_);">
			<path class="st3" d="M93.2,101.7c-6.1-4.9-14.8-4.3-20.2,1.4"/>
		</g>
	</g>
	<path class="st5" d="M110.6,136.6c0,0-4.7,3.7-7.4,3.7s-7-3.6-7-3.6s5.4,0.7,7.2,0.7S110.6,136.6,110.6,136.6z"/>
	<ellipse class="st6" cx="103.1" cy="156.1" rx="2.9" ry="4.5"/>
</g>
</svg>
