<svg xmlns="http://www.w3.org/2000/svg" xmlns:xlink="http://www.w3.org/1999/xlink" viewBox="0 0 200 200"><defs><style>.cls-1,.cls-3,.cls-6{fill:none;}.cls-2{clip-path:url(#clip-path);}.cls-3{stroke:#000;}.cls-3,.cls-6{stroke-linecap:round;stroke-miterlimit:10;stroke-width:2px;}.cls-4{clip-path:url(#clip-path-2);}.cls-5{fill:#844f3d;}.cls-6{stroke:#6b3457;}.cls-7{fill:#020202;}</style><clipPath id="clip-path"><rect class="cls-1" x="69.44" y="96.67" width="22.15" height="6.06"/></clipPath><clipPath id="clip-path-2"><rect class="cls-1" x="108.41" y="96.67" width="22.15" height="6.06"/></clipPath></defs><g id="Calque_10" data-name="Calque 10"><g class="cls-2"><path class="cls-3" d="M90.59,98.58s-6.36-1.88-12.1-.25a38.4,38.4,0,0,0-8,3.4"/></g><g class="cls-4"><path class="cls-3" d="M109.41,98.58s6.36-1.88,12.1-.25a38.4,38.4,0,0,1,8,3.4"/></g><path class="cls-5" d="M106.84,135.42s-4.7,3.69-7.43,3.69c-2.58,0-7-3.6-7-3.6s5.4.73,7.21.72S106.84,135.42,106.84,135.42Z"/><path class="cls-6" d="M86.17,147.27a18.63,18.63,0,0,0,13.62,5.52,18.94,18.94,0,0,0,13.29-6.49"/><path class="cls-7" d="M127.65,113.13a2.09,2.09,0,0,1-2.88.65c-1.77-1.14-6.93-1.21-8.88-.56-2.66.88-5.77,2.15-6.62.4-.14-.28,1.45-3.33,6.84-3.66s9.11,2.85,11.54,3.17Z"/><path class="cls-7" d="M71.45,113.13a2.1,2.1,0,0,0,2.89.65c1.77-1.14,6.93-1.21,8.88-.56,2.66.88,5.77,2.15,6.62.4.14-.28-1.45-3.33-6.84-3.66s-9.11,2.85-11.55,3.17Z"/></g></svg>