<?xml version="1.0" encoding="utf-8"?>
<!-- Generator: Adobe Illustrator 25.4.1, SVG Export Plug-In . SVG Version: 6.00 Build 0)  -->
<svg version="1.1" id="Calque_1" xmlns="http://www.w3.org/2000/svg" xmlns:xlink="http://www.w3.org/1999/xlink" x="0px" y="0px"
	 viewBox="0 0 200 200" style="enable-background:new 0 0 200 200;" xml:space="preserve">
<style type="text/css">
	.st0{fill:#FFFFFF;}
	.st1{fill:none;stroke:#000000;stroke-width:2;stroke-linecap:round;stroke-miterlimit:10;}
	.st2{fill:#844F3D;}
	.st3{fill:none;stroke:#662C34;stroke-width:2;stroke-linecap:round;stroke-miterlimit:10;}
	.st4{fill:#020202;}
</style>
<g id="Calque_10">
	<circle class="st0" cx="81.6" cy="116.4" r="5.3"/>
	<circle cx="81.6" cy="116.4" r="4"/>
	<path class="st1" d="M109.2,104.3c0,0,5.7,0.7,10.3,1.6c3.6,0.7,7.2,1.9,10.6,3.4"/>
	<path class="st1" d="M90.1,103.8c-6.1-4.9-14.8-4.3-20.2,1.4"/>
	<path class="st2" d="M106.3,135.9c0,0-4.7,3.7-7.4,3.7c-2.6,0-7-3.6-7-3.6s5.4,0.7,7.2,0.7S106.3,135.9,106.3,135.9z"/>
	<path class="st3" d="M85.6,150.7c3.6,3.6,8.5,5.6,13.6,5.5c5.1-0.3,9.9-2.6,13.3-6.5"/>
	<path class="st4" d="M125.7,116.8c-0.6,1-1.9,1.3-2.9,0.6c-1.8-1.1-6.9-1.2-8.9-0.6c-2.7,0.9-5.8,2.2-6.6,0.4
		c-0.1-0.3,1.4-3.3,6.8-3.7S123.3,116.5,125.7,116.8z"/>
</g>
</svg>
