<?xml version="1.0" encoding="utf-8"?>
<!-- Generator: Adobe Illustrator 26.0.1, SVG Export Plug-In . SVG Version: 6.00 Build 0)  -->
<svg version="1.1" id="Calque_1" xmlns="http://www.w3.org/2000/svg" xmlns:xlink="http://www.w3.org/1999/xlink" x="0px" y="0px"
	 viewBox="0 0 788 1005" style="enable-background:new 0 0 788 1005;" xml:space="preserve">
<style type="text/css">
	.st0{fill:#FFFFFF;}
	.st1{fill:none;stroke:#662C34;stroke-width:2;stroke-linecap:round;stroke-miterlimit:10;}
	.st2{clip-path:url(#SVGID_00000048503666765125685040000001022276511643643521_);fill:#51281D;}
	.st3{clip-path:url(#SVGID_00000043440694715360660500000015359502423455169946_);fill:#51281D;}
	.st4{fill:none;stroke:#602F22;stroke-width:2;stroke-linecap:round;stroke-miterlimit:10;}
</style>
<g>
	<circle class="st0" cx="372.3" cy="241.4" r="6.1"/>
	<circle cx="372.3" cy="241.4" r="4.1"/>
</g>
<path class="st1" d="M380.1,274.6c3.6,2,8.5,3.2,13.6,3.1c5.1-0.2,9.8-1.4,13.3-3.6"/>
<g>
	<g>
		<g>
			<g>
				<g>
					<defs>
						<polygon id="SVGID_1_" points="404.5,221.3 404.5,221.3 427.9,221.3 427.9,228.4 404.5,228.4 						"/>
					</defs>
					<clipPath id="SVGID_00000124163280464913407230000009228674231252181687_">
						<use xlink:href="#SVGID_1_"  style="overflow:visible;"/>
					</clipPath>
					<path style="clip-path:url(#SVGID_00000124163280464913407230000009228674231252181687_);fill:#51281D;" d="M426.8,228.4
						c-0.1,0-0.3,0-0.4-0.1c0,0-3.6-1.5-7.2-2.3c-7.9-1.8-8.4-0.5-11.1,0c-0.8,0.2-2.7-0.3-3.1-0.8s-0.8-2.1-0.3-2.5
						c0.2-0.2,3.7-2.6,12.7-0.5c3.7,0.9,9.7,4.1,9.8,4.2c0.6,0.2,0.8,0.9,0.6,1.5C427.6,228.2,427.2,228.4,426.8,228.4z"/>
				</g>
			</g>
		</g>
	</g>
	<g>
		<g>
			<g>
				<g>
					<defs>
						<polygon id="SVGID_00000119092297976972263850000012356889646493225896_" points="381.7,221.3 381.7,221.3 358.3,221.3 
							358.3,228.4 381.7,228.4 						"/>
					</defs>
					<clipPath id="SVGID_00000166659624488524524430000013238692425933730206_">
						<use xlink:href="#SVGID_00000119092297976972263850000012356889646493225896_"  style="overflow:visible;"/>
					</clipPath>
					<path style="clip-path:url(#SVGID_00000166659624488524524430000013238692425933730206_);fill:#51281D;" d="M359.4,228.4
						c0.1,0,0.3,0,0.4-0.1c0,0,3.6-1.5,7.2-2.3c7.9-1.8,8.4-0.5,11.1,0c0.8,0.2,2.7-0.3,3.1-0.8s0.8-2.1,0.3-2.5
						c-0.2-0.2-3.7-2.6-12.7-0.5c-3.7,0.9-9.7,4.1-9.8,4.2c-0.6,0.2-0.8,0.9-0.6,1.5C358.6,228.2,359,228.4,359.4,228.4z"/>
				</g>
			</g>
		</g>
	</g>
</g>
<path class="st4" d="M386.5,262.2c0,0,5.4,2.9,7,2.9c1.7,0,7-3.5,7-3.5"/>
<g>
	<circle class="st0" cx="413.1" cy="241.4" r="6.1"/>
	<circle cx="413.1" cy="241.4" r="4.1"/>
</g>
</svg>
