<svg xmlns="http://www.w3.org/2000/svg" viewBox="0 0 127.23 140.2"><defs><style>.cls-1{fill:#aa5b3f;}.cls-2{fill:#6d323a;}.cls-3{fill:#dbb642;}</style></defs><g id="Calque_5" data-name="Calque 5"><path class="cls-1" d="M87,71.35C86.77,83.7,78.54,82,75.11,85c-4,3.46-2.66,16.1-5.53,20.59-.79,1.24-3.65,3.25-5.08,2.92-4-.92-7.73-9.88-11.19-12.14-2-1.32-7.58-1.16-9.71,0-3.62,2-7.16,11.22-11.18,12.14-1.43.33-4.3-1.68-5.09-2.92C24.47,101.06,25.85,88.42,21.8,85,18.37,82,10.14,83.7,10,71.35c-.14-8.55,11.25-12,11.25-12l12.92-6.4a10.23,10.23,0,0,0,3-2.29,10.11,10.11,0,0,0,2.54-5.58c.06-.43,1.25-.5,1.25-.94l.74-6.1-.06,1.17-1.49-.46,8.17.63,8.65-.66h0l0,1.84.05,3.6v.48c0,.28,0,.57.06.85h0a9.51,9.51,0,0,0,.28,1.41,9.22,9.22,0,0,0,4.74,5.71l13,6.46a7.6,7.6,0,0,0,1,.43C78.33,60.27,87.09,63.85,87,71.35Z"/><polygon class="cls-1" points="57.25 57.98 48.41 68.43 39.66 57.98 39.66 57.82 39.89 44.58 39.98 39.77 39.98 39.75 39.98 39.32 40.13 39.3 48.89 38.03 56.93 39.32 56.94 39.75 56.94 39.75 56.99 42.72 57.03 45.2 57.04 45.67 57.05 46.29 57.09 48.72 57.25 57.98"/><path class="cls-2" d="M56.92,37.39l0,1.32h0V45l0,.23.05.23h0l.28,1.41,0,.14s-.11.23-.32.63c-1.38,2.62-7.2,12.4-15.66,10.42a3.7,3.7,0,0,1-1.77-1.32,24.46,24.46,0,0,1-3.1-5.5,5.9,5.9,0,0,0,.58-.62,12.49,12.49,0,0,0,2.5-5.33c0-.08,0-.16,0-.25.09-.44.15-1,.21-1.53.14-1.37.06-4.44.09-6.19"/><path class="cls-1" d="M68,66.11c7-5.5,17.34-5.32,17.34-5.32s20-1.86,26.59-2.58c3.13-.34,9.63-1.17,10.7,6.62h0c.89,6.41-5.15,8.34-8.11,9-6,1.26-18.47,2.55-24.12,4.8-4.2,1.69-10,5.92-17.61,4.26,0,0-6.35-.68-8-6.92l-.07-.25A9.21,9.21,0,0,1,68,66.11Z"/><path class="cls-1" d="M115.44,72.58c-6.34.84-9.32-6.17-10.25-8.77s-1.52-8.29-1.82-11.09c-.77-7.15-1.14-19.25-2-26.23-.56-4.59-1-7,1.85-8.13,2.58-1,4.61,3,5.42,4.6,3.34,6.5,10,19.11,12.4,26.47,1,3,2.37,9.31,2.3,12.48C123.18,70.79,117.29,72.34,115.44,72.58Z"/><path class="cls-1" d="M29.58,67.89c1.71,8.74-3.14,17.86-3.14,17.86s-7.4,18.62-9.77,24.86c-1.12,2.94-3.34,9.12-10.76,6.54h0c-6.12-2.13-5.09-8.39-4.3-11.3,1.61-5.94,6.12-17.62,6.67-23.68.41-4.51-.71-11.62,4.21-17.62,0,0,3.48-5.35,9.78-3.95l.25.06a9.23,9.23,0,0,1,7.06,7.23Z"/><path class="cls-1" d="M101.3,18.92l2.1-6.29,5.15-7.56s1.32,1.25,1.38,1.81c.18,1.78-1.14,4.29-1.87,5.91a2.55,2.55,0,0,0,.21,1.45c.73.64,2.42-.53,2.42-.53l-4,5.28Z"/><path class="cls-1" d="M103.12,17.8l4.65,5,11.51-9,8-13.29A7.57,7.57,0,0,0,124.54,0c-3.4,1.08-7.35,7.76-10,10.19C111.79,12.86,103.12,17.8,103.12,17.8Z"/><ellipse class="cls-1" cx="105.02" cy="20.12" rx="3.89" ry="3.91" transform="translate(42.07 106.55) rotate(-64.78)"/><path class="cls-3" d="M18.21,60.37s6.5,7.2,6.79,13.24-1.45,15.46-1.45,15.46-.87,37.25-.29,38.74-1.87,6.12-.78,10.29,23,1.13,28.7-.47,19.49-6.68,20.29-7.15c6-3.46-1.22-21.21-1.11-24,.16-3.92,3.73-20.93,3.73-20.93C74.67,85,78.31,63.36,72.58,58L62.12,52.6h0a9.93,9.93,0,0,1-9.07,8.16c-5.7.4-11.67,1.08-15,1.5a6.91,6.91,0,0,1-7-3.6,5.88,5.88,0,0,1-.65-3.74Z"/><path class="cls-1" d="M.77,115.27c-2.82-5.75,2.86-10.81,5-12.52s7.36-4.11,9.91-5.29c6.53-3,17.88-7.24,24.22-10.28,4.17-2,6.31-3.17,8.29-.85,1.81,2.12-1.38,5.33-2.61,6.61-5.09,5.25-14.9,15.63-21.11,20.23-2.55,1.88-8.06,5.23-11.08,6.18C5,122,1.59,116.94.77,115.27Z"/><path class="cls-1" d="M46.11,93l5.32-4L57,81.77s-1.59-.86-2.15-.74c-1.74.38-3.71,2.42-5,3.62a2.59,2.59,0,0,1-1.44.25c-.84-.49-.26-2.47-.26-2.47l-3.75,5.46Z"/><path class="cls-1" d="M46.6,90.91l-6.21-2.85,5-13.75,10.14-11.7A7.71,7.71,0,0,1,56.8,65c0,3.57-5.08,9.41-6.58,12.63C48.6,81.13,46.6,90.91,46.6,90.91Z"/><ellipse class="cls-1" cx="43.81" cy="89.83" rx="3.89" ry="3.91" transform="translate(-49.74 54.67) rotate(-43.4)"/></g></svg>