<svg xmlns="http://www.w3.org/2000/svg" viewBox="0 0 132.5 90.78"><defs><style>.cls-1{fill:#7a919e;}.cls-2{fill:#aa5b3f;}.cls-3{fill:#6d323a;}.cls-4{fill:#36344d;}.cls-5{fill:#c6c5ba;}.cls-6{fill:#9599ba;}.cls-7{fill:#adcbde;}</style></defs><g id="Calque_5" data-name="Calque 5"><polygon class="cls-1" points="72.47 15.42 72.69 8.19 87.81 8.03 87.72 15.42 72.47 15.42"/><path class="cls-2" d="M19.67,18.42s1.21-4.79,1.06-5.54-1.27-3.82-1.26-4.42.83-4.26.38-4.27-2.17.22-2.17.22l-1.06,3L17,11.08,13,7S8.79.56,8.64.12,6.46.64,6.46.64l4.69,8.18L3.91,1.53,2.18,3.25,9.87,11,.83,4.6,0,6.92l7.85,5.93L1,10S.21,12.08.74,12.31s6.35,3.53,6.35,3.53l6.5,6.24,2.32.08Z"/><path class="cls-2" d="M110.43,28.05c-.15,9.6-6.55,8.29-9.22,10.57-3.14,2.7-2.07,12.51-4.29,16-.62,1-2.84,2.52-4,2.27-3.13-.72-6-7.69-8.7-9.44-1.58-1-5.89-.9-7.54,0C73.91,49,71.16,56.18,68,56.9c-1.11.25-3.34-1.31-4-2.27-2.23-3.5-1.15-13.31-4.3-16-2.66-2.28-9.06-1-9.21-10.57-.1-6.65,8.75-9.33,8.75-9.33l10-5a8,8,0,0,0,1.77-1.21A7.66,7.66,0,0,0,71.7,12l.16-.18h0a7.87,7.87,0,0,0,1.81-4.11,9.24,9.24,0,0,0,.06-1V4.77H87.14V7.44h0c0,.16,0,.33,0,.49a7.21,7.21,0,0,0,.24,1.14,7.1,7.1,0,0,0,3.67,4.4l10.13,5c.26.12.52.23.79.33C103.71,19.43,110.52,22.22,110.43,28.05Z"/><polygon class="cls-2" points="87.34 16.84 80.46 24.97 76.76 20.55 73.66 16.84 73.84 6.46 73.85 5.9 73.87 4.78 87.13 4.78 87.13 4.83 87.15 6 87.15 6 87.16 6.39 87.17 7.45 87.17 7.45 87.18 7.77 87.21 9.47 87.34 16.84"/><path class="cls-3" d="M87.46,9.16l-.25.31C85.92,11.05,80,18.23,76.76,20.55c-.8.57-1.43.85-1.8.67-1.69-.81-3.71-8.78-3.71-8.78h0A5.16,5.16,0,0,0,71.7,12l.27-.33v0a10,10,0,0,0,1.67-3.79l0-.16c.06-.34.12-.75.16-1.21,0-.17,0-.36,0-.55,0-.35,0-.73.07-1.13H87.13V7.58l0,.19,0,.17.24,1.14Z"/><path class="cls-2" d="M95.86,29.48c2.86,6.05,9.63,9.47,9.63,9.47S117.88,47,122,49.77c1.92,1.3,5.9,4.07,9-.72h0c2.56-4-.76-7.31-2.5-8.73-3.52-2.9-11.22-8-14.19-11.45-2.21-2.56-4.69-7.36-10.13-8.86,0,0-4.33-1.72-7.32,1.87l-.12.14a7,7,0,0,0-.87,7.46Z"/><path class="cls-2" d="M128.15,40.63c-4.64-1.79-6.81,1.95-8,3.75s-3.16,7.07-3.89,9.12c-1.89,5.26-5.26,14.25-7.18,19.37-1.26,3.36-2,5.1-.08,6.48,1.76,1.25,4-1.44,4.93-2.48,3.71-4.3,11.08-12.6,14.21-17.73a39.86,39.86,0,0,0,4-9C133.67,43.4,129.5,41.15,128.15,40.63Z"/><path class="cls-2" d="M39,54.79c3.44-2.85,1.12-8,.17-10a54,54,0,0,0-5-7.1C30.71,33.37,20.06,20.38,17.9,15.39c-1.5-3.5-6,2.59-6,2.59a51.23,51.23,0,0,1,3.89,6c2.51,5.09,4.39,12.6,8.23,21.15a37,37,0,0,0,5.56,8.12C34.41,58.09,38,55.62,39,54.79Z"/><path class="cls-2" d="M65.31,29.8c-2.14,6.59-8.88,11-8.88,11s-12.06,9.85-16,13.19c-1.87,1.58-5.71,4.93-9.77.38h0C27.28,50.56,30.34,46.7,32,45c3.33-3.42,10.81-9.66,13.47-13.56,2-2.91,6.48-8.89,12.08-11.11,0,0,1.82-1.59,5.57,1.74l.15.13a7.18,7.18,0,0,1,2.06,7.58Z"/><path class="cls-2" d="M111,77.89c.67.66,1.24,2,.08,3.78,0,0-3.18,5.9-4.85,7.34-.74.64-2.77,2.23-3.57,1.65C100.45,89,98.18,84.35,98,81c0-1,1.85-2.48,2.77-2.89s3.3-.07,4.38-.27c.39-.08,1-.28,1.73-.5C108.32,76.9,110.12,77,111,77.89Z"/><polygon class="cls-3" points="107.97 75.39 107.33 77.25 108.84 80.11 110.47 82.84 111.51 81.06 113.59 78.79 107.97 75.39"/><polygon class="cls-4" points="107.55 76.6 108.95 72.25 115.15 76.46 113.11 80.18 107.55 76.6"/><path class="cls-5" d="M107,20l4.14,2.13s12.19,11,11.84,11.61-8,13-8,13-10.88-7.42-11.16-7.7-3.17-7.32-3.37-7.23,3.28-10.16,3.37-10.62S107,20,107,20"/><polygon class="cls-6" points="59.77 79.78 59.77 72.39 99.83 73.3 99.61 78.9 59.77 79.78"/><path class="cls-5" d="M59.15,65.19,56.43,40.75,54.76,20.12l2.77-1.44L71,11.7l10.7,13.13,9.08-12.29L107,20l-2.61,25.26-3.93,18.27s.82,6.09.14,7.94l-.73,1.8-40.06.61-1-1.46C56.83,69.16,59.14,66,59.15,65.19Z"/><polygon class="cls-7" points="70.19 12.79 72.69 8.19 73.93 13.82 79.61 19.82 75.62 25.92 70.19 12.79"/><polygon class="cls-7" points="91.29 13.25 87.81 8.03 87.46 14.14 82.64 19.63 87.31 25.46 91.29 13.25"/><polygon class="cls-6" points="79.61 19.82 81.65 24.83 78.89 22.56 75.62 25.92 79.61 19.82"/><polygon class="cls-6" points="81.65 24.83 82.64 19.63 87.31 25.46 83.96 22.82 81.65 24.83"/><path class="cls-5" d="M58,41.47c-.44.18-12.44,11.1-12.7,10.93s-7.15-15.87-6.88-15.87S54.76,20.12,54.76,20.12"/></g></svg>