<svg xmlns="http://www.w3.org/2000/svg" viewBox="0 0 788 1005"><defs><style>.cls-1{fill:#3688b2;}.cls-2{fill:#86b5c6;}.cls-3{fill:#6c99aa;}.cls-4{fill:#d79072;}.cls-5{fill:#87b6c7;}.cls-6{fill:#6999aa;}.cls-7,.cls-8{fill:none;stroke-linecap:round;stroke-miterlimit:10;stroke-width:2px;}.cls-7{stroke:#6999aa;}.cls-8{stroke:#69a;}</style></defs><g id="Calque_7" data-name="Calque 7"><path class="cls-1" d="M312.56,648.68A26.84,26.84,0,0,0,338,673.12h0a26.84,26.84,0,0,0,27.34-20.34S384.2,564,386.29,531.94c.5-7.58-.82-30.36-.82-30.36l-3.28-53.07s-3-25.06-29.27-29c-30.3-4.53-31.73,11.77-31.73,11.77s-14.9,78.9-16,105.5C304.13,561.3,312.56,648.68,312.56,648.68Z"/><path class="cls-1" d="M336.75,631.38c-13.92-.19-22.33,6.71-24.87,18.16,0,0-7.11,55.37-8.31,77-1.93,34.69,2.48,101.61,7.19,136,1,7.53,3,30.27,3,30.27A13.11,13.11,0,0,0,327,904.68h0a13.11,13.11,0,0,0,12.9-11.81s2.23-26.14,3.5-34.79c4.58-31.35,18-93.52,20-125.14,1.22-19-.44-77.52-.44-77.52-.8-19.21-14.26-23.46-26.18-24Z"/><path class="cls-2" d="M326.26,884.8h0A16.06,16.06,0,0,0,312.14,894h0c-5.84,12.34-30.55,28.87-30.55,28.87A15.14,15.14,0,0,0,276,937.47h0l60.27-.33,3.39-1a8.54,8.54,0,0,0,6-9l-3.46-30A16,16,0,0,0,326.26,884.8Z"/><path class="cls-3" d="M277.77,937.17h0a9,9,0,0,1,7.52-10.37l35.85-5.41a9,9,0,0,1,10.07,6.77l2.06,8.51Z"/><path class="cls-1" d="M434.32,391.48c16.16,5.22,23.2,9.63,27,16.56,3.11,5.62,6,18.49,6.27,24.9.55,15.07-7.77,52.94-21.92,65.58-14.41,12.86-84.8,12.86-99.2,0-14.16-12.64-30-52-29.43-67,.23-6.41,3.77-18.92,12.24-26.63,5.86-5.34,12.42-8.16,28.57-13.38,18.49-6,37.3-5,37.3-5S415.83,385.5,434.32,391.48Z"/><path class="cls-1" d="M475.65,648.68a26.83,26.83,0,0,1-25.44,24.44h0a26.83,26.83,0,0,1-27.34-20.34S404,564,401.92,531.94c-.52-7.91,4.1-83.43,4.1-83.43s-2.83-22.42,29.27-29C463.9,413.66,467,431.28,467,431.28s14.9,77.9,16,104.5C484.09,560.3,475.65,648.68,475.65,648.68Z"/><path class="cls-1" d="M452.56,631.38c12.44-.19,19.94,6.71,22.22,18.16,0,0,14.38,53.37,15.45,75,1.72,34.69-10.25,103.61-14.46,138-.92,7.53-2.66,30.27-2.66,30.27-.6,6.77-5.72,11.91-11.8,11.83h0c-6-.08-10.92-5.16-11.51-11.81,0,0-2-26.14-3.12-34.79-4.1-31.35-16.08-93.52-17.88-125.14-1.09-19,.39-77.52.39-77.52.71-19.21,12.73-23.46,23.37-24Z"/><path class="cls-4" d="M475.57,881c-1.21,34,40.06,38.37,40.06,38.37,4.42,3.47-67,21.84-66.62,17.8,0,0,1.45-52-1-65.21C446.21,862.65,476.28,861,475.57,881Z"/><path class="cls-5" d="M462.7,899.81c6.38-2.17,5.93-6.81,8.47-9.36,1.54-1.54,7.87-3.19,8.79-1.22,10.69,22.66,61.17,35.37,61.17,35.37,5.35,3.82,6.56,9.1,5.54,14.63h0s-38.84,15.16-62.83,4.46C479,941.54,469.91,941,469.91,941s-31.58.3-30.32-6.49l-2.53-42.7C438.78,884.37,451.75,903.55,462.7,899.81Z"/><path class="cls-6" d="M547.19,939.67c.85-9-4.26-14.65-6-14.43-2.5.32-6.51,2.38-9,2.82-4,.68-16-.29-16-.29-3.07-.32-5.61,2.76-5.85,7.09l-.21,12.46s9-2.51,24.64-5.41C537.69,941.38,547.19,939.67,547.19,939.67Z"/><path class="cls-1" d="M317.08,431.49l-2.16,20.61q-.69,14.28-1.36,28.57l-19.89,420,21-.92,34.82.7s12.6-142.09,15.37-175.86c1.61-19.64,2.3-59.14,5.11-78.64,4.1-28.4,25.84-111.81,25.84-111.81l1.77-103.56Z"/><polygon class="cls-1" points="388.55 441.25 390.18 536.87 417.75 702.62 432.2 873.55 433.31 904.67 488.1 898.31 487.19 862 487.92 687.76 463.63 439.11 394.76 441.7 388.55 441.25"/><path class="cls-7" d="M309.29,903.41s4.74-3.36,8.91-3.35c5.1,0,10,3.11,10,3.11"/><path class="cls-8" d="M490.47,899.07s-5.1,2.07-9,2.15"/><path class="cls-1" d="M399.49,563.4c6.22,7.19,3.36,374.31-55.4,350.37-38.14-15.55-53.7,16.93-59.73-22.31s-4.93-313.31,29.2-410.79c0,0,166.36-14.38,166.48,27.77S553.68,911.32,512.16,905c-62.36-9.47-78.85,26.92-92-3.9S399.49,563.4,399.49,563.4Z"/><rect class="cls-1" x="271.24" y="862.7" width="117.3" height="51.27"/><rect class="cls-1" x="413.65" y="862.45" width="122.86" height="51.27" transform="translate(-133.8 85.8) rotate(-9.05)"/></g></svg>