<svg xmlns="http://www.w3.org/2000/svg" viewBox="0 0 788 1005"><defs><style>.cls-1,.cls-8,.cls-9{fill:none;}.cls-2{fill:#6c6b6a;}.cls-3{fill:#d79072;}.cls-4{fill:#86b5c6;}.cls-5{fill:#6c99aa;}.cls-6{fill:#87b6c7;}.cls-7{fill:#6999aa;}.cls-8{stroke:#6999aa;}.cls-8,.cls-9{stroke-linecap:round;stroke-miterlimit:10;stroke-width:2px;}.cls-9{stroke:#69a;}.cls-10{fill:#9498b9;}</style></defs><g id="Calque_1" data-name="Calque 1"><polygon points="231.06 480.1 231.16 480.06 231.06 480 231.06 480.1"/><polygon points="231.16 480.06 231.26 480.1 231.26 480 231.16 480.06"/><polygon points="231.06 480.1 231.16 480.06 231.06 480 231.06 480.1"/><polygon points="231.16 480.06 231.26 480.1 231.26 480 231.16 480.06"/><path class="cls-1" d="M435.16,392c16.15,5.22,23.2,9.63,27,16.56,3.11,5.62,6,18.49,6.27,24.9.55,15.07-7.77,52.95-21.93,65.58-14.4,12.86-84.79,12.86-99.19,0-14.16-12.63-22.48-50.51-21.93-65.58.23-6.41,3.16-19.28,6.27-24.9,3.84-6.93,10.89-11.34,27-16.56,18.49-6,37.3-5,37.3-5S416.67,386.05,435.16,392Z"/></g><g id="Calque_5" data-name="Calque 5"><polygon points="230.22 479.54 230.32 479.5 230.22 479.45 230.22 479.54"/><polygon points="230.32 479.5 230.42 479.54 230.42 479.45 230.32 479.5"/><polygon points="230.22 479.54 230.32 479.5 230.22 479.45 230.22 479.54"/><polygon points="230.32 479.5 230.42 479.54 230.42 479.45 230.32 479.5"/><path class="cls-2" d="M296.42,879.59c1.18,13.36,30.75,4.56,44.15,5.21L338,673.12c12.8.62-12.94,177.44-9.85,165C385,560.21,384.34,561.74,386.29,531.94c.5-7.58-.82-30.36-.82-30.36l-3.28-53.07s-3-25.06-29.27-29c-30.3-4.53-31.73,11.77-31.73,11.77s-14.9,78.9-16,105.5C304.12,561.3,296.42,879.59,296.42,879.59Z"/><path class="cls-3" d="M336.75,631.38c-13.92-.19-22.33,6.71-24.87,18.16,0,0-7.11,55.37-8.31,77-1.93,34.69,2.48,101.61,7.19,136,1,7.53,3,30.27,3,30.27A13.11,13.11,0,0,0,327,904.68h0a13.11,13.11,0,0,0,12.9-11.81s2.23-26.14,3.5-34.79c4.58-31.35,18-93.52,20-125.14,1.22-19-.44-77.52-.44-77.52-.8-19.21-14.26-23.46-26.18-24Z"/><path class="cls-4" d="M326.26,884.8h0A16.06,16.06,0,0,0,312.14,894h0c-5.84,12.34-30.55,28.87-30.55,28.87A15.14,15.14,0,0,0,276,937.47h0l60.27-.33,3.39-1a8.54,8.54,0,0,0,6-9l-3.46-30A16,16,0,0,0,326.26,884.8Z"/><path class="cls-5" d="M277.77,937.17h0a9,9,0,0,1,7.52-10.37l35.85-5.41a9,9,0,0,1,10.07,6.77l2.06,8.51Z"/><path class="cls-2" d="M434.32,391.48c16.16,5.22,23.2,9.63,27,16.56,3.11,5.62,10.24,43.06,10.47,49.47.54,15.07-12,28.37-26.12,41-14.41,12.86-84.8,12.86-99.2,0-14.16-12.64-25.86-52.18-25.32-67.24.23-6.42,6.55-17.62,9.66-23.24,3.84-6.93,10.89-11.34,27-16.56,18.49-6,37.3-5,37.3-5S415.83,385.5,434.32,391.48Z"/><path class="cls-2" d="M475.65,648.68a26.83,26.83,0,0,1-25.44,24.44h0a26.83,26.83,0,0,1-27.34-20.34S404,564,401.92,531.94c-.52-7.91,4.1-83.43,4.1-83.43s-2.83-22.42,29.27-29C463.9,413.66,467,431.28,467,431.28s14.9,77.9,16,104.5C484.09,560.3,475.65,648.68,475.65,648.68Z"/><path class="cls-3" d="M452.56,631.38c12.44-.19,19.94,6.71,22.22,18.16,0,0,14.38,53.37,15.45,75,1.72,34.69-10.25,103.61-14.46,138-.92,7.53-2.66,30.27-2.66,30.27-.6,6.77-5.72,11.91-11.8,11.83h0c-6-.08-10.92-5.16-11.52-11.81,0,0-2-26.14-3.11-34.79-4.1-31.35-16.08-93.52-17.88-125.14-1.09-19,.39-77.52.39-77.52.71-19.21,12.73-23.46,23.37-24Z"/><path class="cls-3" d="M475.57,881c-1.21,34,40.05,38.37,40.05,38.37,4.43,3.47-73.07,17.82-72.68,13.78,0,0,7.52-48,5-61.19C446.21,862.65,476.28,861,475.57,881Z"/><path class="cls-6" d="M462.7,899.81c6.38-2.17,5.93-6.81,8.47-9.36,1.54-1.54,7.87-3.19,8.79-1.22,10.69,22.66,61.16,35.37,61.16,35.37,5.36,3.82,6.56,9.1,5.55,14.63h0s-43.77,9.37-67.77-1.33c-4.81-2.15-15.06-1-15.06-1s-22.42,3.73-21.15-3.06l3.53-38.69C448,887.8,451.75,903.55,462.7,899.81Z"/><path class="cls-7" d="M547.19,939.67c.85-9-4.26-14.65-6-14.43-2.5.32-6.51,2.38-9,2.82-4,.68-16-.29-16-.29-3.07-.32-5.61,2.76-5.86,7.09l-.2,8.64s7.32,1,24.64-1.59C537.71,941.48,547.19,939.67,547.19,939.67Z"/><path class="cls-2" d="M326.93,431.16l-5.76,16.67-28,452.65,21-.92,34.83.71s12.6-142.1,15.37-175.87c1.61-19.63,8.89-61.64,11.7-81.14C380.14,614.87,395.3,534,395.3,534l1.77-103.55Z"/><polygon class="cls-2" points="388.54 441.25 390.18 536.87 417.75 702.62 432.2 873.55 433.31 904.67 499.11 897.03 499.11 865.3 487.92 687.76 481.45 518.64 412.7 441.25 388.54 441.25"/><path class="cls-8" d="M309.29,903.41s4.74-3.36,8.91-3.35c5.1,0,10,3.11,10,3.11"/><path class="cls-9" d="M490.47,899.07s-5.1,2.07-9,2.15"/><polygon class="cls-10" points="347.94 905.4 285.86 901.22 290.64 889.89 288.12 872.8 354.22 869.79 357.99 879.34 347.94 905.4"/><polygon class="cls-10" points="502.76 901.79 432.39 906.82 426.1 888.38 424.09 869.84 505.02 869.84 506.28 888.33 502.76 901.79"/><path class="cls-6" d="M506.28,911.43,446,905.85S462.5,881,471.8,881h6.09c7,0,7.37,2.64,16.93,18.1C497,902.65,506.28,911.43,506.28,911.43Z"/></g></svg>