<svg xmlns="http://www.w3.org/2000/svg" viewBox="0 0 788 659.68"><defs><style>.cls-1,.cls-2,.cls-9{fill:none;}.cls-1{stroke:#4f3742;}.cls-1,.cls-9{stroke-miterlimit:10;}.cls-3{fill:#614652;}.cls-4{fill:#f6af97;}.cls-5{fill:#86b5c6;}.cls-6{fill:#6c99aa;}.cls-7{fill:#87b6c7;}.cls-8{fill:#6999aa;}.cls-9{stroke:#6999aa;stroke-linecap:round;stroke-width:2px;}.cls-10{fill:#506d69;}</style></defs><g id="Calque_5" data-name="Calque 5"><polygon class="cls-1" points="394.57 144.53 389.57 104.53 404.57 104.53 403.57 136.81 394.57 144.53"/><polygon points="230.22 134.22 230.32 134.18 230.22 134.13 230.22 134.22"/><polygon points="230.32 134.18 230.42 134.22 230.42 134.13 230.32 134.18"/><polygon points="230.22 134.22 230.32 134.18 230.22 134.13 230.22 134.22"/><polygon points="230.32 134.18 230.42 134.22 230.42 134.13 230.32 134.18"/><path class="cls-2" d="M324.79,61c-11,50.33,70.35,73.38,70.35,73.38s81.64-23,70.6-73.38"/><path class="cls-3" d="M312.56,303.36A26.84,26.84,0,0,0,338,327.8h0a26.84,26.84,0,0,0,27.34-20.34s18.85-88.82,20.94-120.84c.5-7.58-.82-30.36-.82-30.36l-3.28-53.07s-3-25.06-29.27-29C322.62,69.66,321.19,86,321.19,86s-14.9,78.9-16,105.5C304.12,216,312.56,303.36,312.56,303.36Z"/><path class="cls-4" d="M336.75,286.06c-13.92-.19-22.33,6.71-24.87,18.16,0,0-7.11,55.36-8.31,77-1.93,34.69,2.48,101.61,7.19,136,1,7.54,3,30.28,3,30.28A13.1,13.1,0,0,0,327,559.35h0a13.1,13.1,0,0,0,12.9-11.8s2.23-26.14,3.5-34.79c4.58-31.35,18-93.52,20-125.14,1.22-19-.44-77.52-.44-77.52-.8-19.22-14.26-23.46-26.18-24Z"/><path class="cls-5" d="M326.26,539.48h0a16,16,0,0,0-14.12,9.17h0c-5.84,12.34-30.55,28.87-30.55,28.87A15.12,15.12,0,0,0,276,592.14h0l60.27-.32,3.39-1a8.55,8.55,0,0,0,6-9l-3.46-29.95A16,16,0,0,0,326.26,539.48Z"/><path class="cls-6" d="M277.77,591.84h0a9,9,0,0,1,7.52-10.36l35.85-5.41a9,9,0,0,1,10.07,6.77l2.06,8.5Z"/><path class="cls-3" d="M475.65,303.36a26.83,26.83,0,0,1-25.44,24.44h0a26.83,26.83,0,0,1-27.34-20.34S404,218.64,401.92,186.62c-.52-7.91,4.1-83.43,4.1-83.43s-2.83-22.42,29.27-29C463.9,68.33,467,86,467,86s14.9,77.9,16,104.5C484.09,215,475.65,303.36,475.65,303.36Z"/><path class="cls-4" d="M452.56,286.06c12.44-.19,19.94,6.71,22.22,18.16,0,0,14.38,53.36,15.45,75,1.72,34.69-10.25,103.61-14.46,138-.92,7.54-2.66,30.28-2.66,30.28-.6,6.77-5.72,11.9-11.8,11.82h0c-6-.07-10.92-5.16-11.52-11.8,0,0-2-26.14-3.11-34.79-4.1-31.35-16.08-93.52-17.88-125.14-1.09-19,.39-77.52.39-77.52.71-19.22,12.73-23.46,23.37-24Z"/><path class="cls-4" d="M475.21,512.1c-1.21,34,40.41,61.63,40.41,61.63,4.43,3.47-67,21.84-66.61,17.8,0,0,1.45-52-1-65.21C446.21,517,475.92,492.13,475.21,512.1Z"/><path class="cls-7" d="M462.7,554.49c6.38-2.18,5.93-6.81,8.47-9.36,1.54-1.54,9.76-10.89,10.69-8.92,10.68,22.66,59.26,43.07,59.26,43.07,5.36,3.82,6.56,9.1,5.55,14.62h0s-43.77,9.37-67.77-1.33c-4.81-2.14-10.66-.9-10.66-.9s-22.42,3.73-21.15-3l-.87-38.75C448,542.48,451.75,558.23,462.7,554.49Z"/><path class="cls-8" d="M547.19,594.35c.85-9-4.26-14.65-6-14.43-2.5.31-6.51,2.38-9,2.81-4,.69-16-.28-16-.28-3.07-.32-5.61,2.76-5.86,7.09l-.2,8.63s7.32,1,24.64-1.58C537.71,596.16,547.19,594.35,547.19,594.35Z"/><path class="cls-9" d="M309.29,558.09s4.74-3.36,8.91-3.35c5.1,0,10,3.11,10,3.11"/><path class="cls-10" d="M326.58,62.46c-5.56,10.08-18.58,74-18.58,74s-7.09,48.29-7.09,53.21-7.4,163.25-7.47,165.51,7,105.65,7,105.65l-7,24,9,4.52,6.1,18.78,3.59,20.36,30.27-4.45L345.28,509l19.19-16.62L359,472.06S371,461.5,370.27,459.24s-5.8-53.28-5.8-53.28l8.33-116.24,20-88.91,27.77,145.55v54.83s6.41,21,7,27.77-6,37.07-6,37.07l7.51,12.82,2.16,21.58s11,.48,11.21,0,4.48,21.39,4.48,21.39l29.93-4.68,2.32-24.78,9.62-12.76-4.1-17.27,9.84-10.63v-104l-3.1-204.18-25-60.62"/><path class="cls-10" d="M461.36,62.72c3.11,5.62,6,18.48,6.27,24.9.55,15.06-7.77,52.94-21.92,65.58-14.41,12.85-84.8,12.85-99.2,0-14.16-12.64-22.47-50.52-21.93-65.58.23-6.42,3.16-19.28,6.27-24.9"/></g><g id="yeux"><path class="cls-10" d="M321.16,122.77s-9.17-5.1-8.9-6.36,9.58-57.4,15.52-62,121-6.63,129.47,0,29.31,56.44,33.15,74S489.62,159.74,487,165,321.16,122.77,321.16,122.77Z"/></g></svg>