<svg xmlns="http://www.w3.org/2000/svg" viewBox="0 0 788 679.58"><defs><style>.cls-1,.cls-8,.cls-9{fill:none;}.cls-2{fill:#6c6b6a;}.cls-3{fill:#d79072;}.cls-4{fill:#86b5c6;}.cls-5{fill:#6c99aa;}.cls-6{fill:#87b6c7;}.cls-7{fill:#6999aa;}.cls-8{stroke:#6999aa;}.cls-8,.cls-9{stroke-linecap:round;stroke-miterlimit:10;stroke-width:2px;}.cls-9{stroke:#69a;}.cls-10{fill:#9498b9;}</style></defs><g id="Calque_1" data-name="Calque 1"><polygon points="231.06 151.44 231.16 151.4 231.06 151.35 231.06 151.44"/><polygon points="231.16 151.4 231.26 151.44 231.26 151.35 231.16 151.4"/><polygon points="231.06 151.44 231.16 151.4 231.06 151.35 231.06 151.44"/><polygon points="231.16 151.4 231.26 151.44 231.26 151.35 231.16 151.4"/><path class="cls-1" d="M435.16,63.38c16.15,5.22,23.2,9.63,27,16.56,3.11,5.62,6,18.48,6.27,24.9.55,15.07-7.77,52.94-21.93,65.58-14.4,12.86-84.79,12.86-99.19,0-14.16-12.64-22.48-50.51-21.93-65.58.23-6.42,3.16-19.28,6.27-24.9,3.84-6.93,10.89-11.34,27-16.56,18.49-6,37.3-5,37.3-5S416.67,57.4,435.16,63.38Z"/></g><g id="Calque_5" data-name="Calque 5"><polygon points="230.22 150.89 230.32 150.85 230.22 150.8 230.22 150.89"/><polygon points="230.32 150.85 230.42 150.89 230.42 150.8 230.32 150.85"/><polygon points="230.22 150.89 230.32 150.85 230.22 150.8 230.22 150.89"/><polygon points="230.32 150.85 230.42 150.89 230.42 150.8 230.32 150.85"/><path class="cls-2" d="M296.42,550.94c1.18,13.36,30.75,4.56,44.15,5.21L338,344.47c12.8.62-12.94,177.44-9.85,165C385,231.56,384.34,233.09,386.29,203.29c.5-7.58-.82-30.37-.82-30.37l-3.28-53.06s-3-25.06-29.27-29c-30.3-4.53-31.73,11.76-31.73,11.76s-14.9,78.91-16,105.51C304.12,232.64,296.42,550.94,296.42,550.94Z"/><path class="cls-3" d="M336.75,302.72c-13.92-.19-22.33,6.72-24.87,18.17,0,0-7.11,55.36-8.31,77-1.93,34.69,2.48,101.61,7.19,136,1,7.54,3,30.27,3,30.27A13.1,13.1,0,0,0,327,576h0a13.1,13.1,0,0,0,12.9-11.8s2.23-26.14,3.5-34.79c4.58-31.35,18-93.53,20-125.15,1.22-19-.44-77.51-.44-77.51-.8-19.22-14.26-23.46-26.18-24Z"/><path class="cls-4" d="M326.26,556.15h0a16,16,0,0,0-14.12,9.17h0c-5.84,12.34-30.55,28.87-30.55,28.87A15.12,15.12,0,0,0,276,608.81h0l60.27-.33,3.39-1a8.53,8.53,0,0,0,6-9l-3.46-30A16,16,0,0,0,326.26,556.15Z"/><path class="cls-5" d="M277.77,608.51h0a9,9,0,0,1,7.52-10.36l35.85-5.41a9,9,0,0,1,10.07,6.77l2.06,8.5Z"/><path class="cls-2" d="M434.32,62.83c16.16,5.22,23.2,9.62,27,16.56,3.11,5.61,10.24,43.05,10.47,49.47.54,15.06-12,28.37-26.12,41-14.41,12.85-84.8,12.85-99.2,0-14.16-12.64-25.86-52.18-25.32-67.25.23-6.41,6.55-17.62,9.66-23.23,3.84-6.94,10.89-11.34,27-16.56,18.49-6,37.3-5,37.3-5S415.83,56.85,434.32,62.83Z"/><path class="cls-2" d="M475.65,320a26.83,26.83,0,0,1-25.44,24.44h0a26.83,26.83,0,0,1-27.34-20.34S404,235.31,401.92,203.29c-.52-7.91,4.1-83.43,4.1-83.43s-2.83-22.42,29.27-29C463.9,85,467,102.62,467,102.62s14.9,77.91,16,104.51C484.09,231.64,475.65,320,475.65,320Z"/><path class="cls-3" d="M452.56,302.72c12.44-.19,19.94,6.72,22.22,18.17,0,0,14.38,53.36,15.45,75,1.72,34.69-10.25,103.61-14.46,138-.92,7.54-2.66,30.27-2.66,30.27-.6,6.78-5.72,11.91-11.8,11.83h0c-6-.07-10.92-5.16-11.52-11.8,0,0-2-26.14-3.11-34.79-4.1-31.35-16.08-93.53-17.88-125.15-1.09-19,.39-77.51.39-77.51.71-19.22,12.73-23.46,23.37-24Z"/><path class="cls-3" d="M475.57,552.32c-1.21,34,40.05,38.37,40.05,38.37,4.43,3.46-73.07,17.81-72.68,13.77,0,0,7.52-48,5-61.18C446.21,534,476.28,532.34,475.57,552.32Z"/><path class="cls-6" d="M462.7,571.16c6.38-2.18,5.93-6.81,8.47-9.36,1.54-1.54,7.87-3.19,8.79-1.22C490.65,583.24,541.12,596,541.12,596c5.36,3.82,6.56,9.09,5.55,14.62h0s-43.77,9.37-67.77-1.33c-4.81-2.14-15.06-1-15.06-1s-22.42,3.73-21.15-3.06l3.53-38.68C448,559.15,451.75,574.9,462.7,571.16Z"/><path class="cls-7" d="M547.19,611c.85-9-4.26-14.66-6-14.44-2.5.32-6.51,2.39-9,2.82-4,.69-16-.28-16-.28-3.07-.32-5.61,2.76-5.86,7.09l-.2,8.63s7.32,1,24.64-1.58C537.71,612.83,547.19,611,547.19,611Z"/><path class="cls-2" d="M326.93,102.51l-5.76,16.67-28,452.65,21-.92,34.83.71s12.6-142.1,15.37-175.87c1.61-19.63,8.89-61.64,11.7-81.14,4.09-28.4,19.25-109.31,19.25-109.31l1.77-103.56Z"/><polygon class="cls-2" points="388.54 112.6 390.18 208.22 417.75 373.96 432.2 544.9 433.31 576.01 499.11 568.38 499.11 536.65 487.92 359.1 481.45 189.99 412.7 112.6 388.54 112.6"/><path class="cls-8" d="M309.29,574.76s4.74-3.36,8.91-3.35c5.1,0,10,3.11,10,3.11"/><path class="cls-9" d="M490.47,570.42s-5.1,2.07-9,2.15"/><polygon class="cls-10" points="347.94 576.75 285.86 572.57 290.64 561.24 288.12 544.15 354.22 541.14 357.99 550.69 347.94 576.75"/><polygon class="cls-10" points="502.76 573.14 432.39 578.16 426.1 559.73 424.09 541.19 505.02 541.19 506.28 559.68 502.76 573.14"/><path class="cls-6" d="M506.28,582.78,446,577.2s16.54-24.88,25.84-24.88h6.09c7,0,7.37,2.64,16.93,18.1C497,574,506.28,582.78,506.28,582.78Z"/></g></svg>