<?xml version="1.0" encoding="utf-8"?>
<!-- Generator: Adobe Illustrator 26.0.3, SVG Export Plug-In . SVG Version: 6.00 Build 0)  -->
<svg version="1.1" id="Calque_9" xmlns="http://www.w3.org/2000/svg" xmlns:xlink="http://www.w3.org/1999/xlink" x="0px" y="0px"
	 viewBox="0 0 567 323.3" style="enable-background:new 0 0 567 323.3;" xml:space="preserve">
<style type="text/css">
	.st0{fill:#89777A;}
	.st1{fill:#E0B9A0;}
	.st2{fill:#CCAA97;}
	.st3{fill:#F49595;}
	.st4{fill:#46495B;}
	.st5{fill:#353844;}
	.st6{fill:#BF7979;}
	.st7{fill:#FFFFFF;}
	.st8{fill:#D2DAE4;}
	.st9{fill:none;stroke:#D2DAE4;stroke-width:2;stroke-miterlimit:10;}
	.st10{fill:none;stroke:#EAD3D3;stroke-width:3;stroke-linecap:round;stroke-miterlimit:10;}
	.st11{fill:#EAD3D3;}
</style>
<path class="st0" d="M246.5,137.4l-1.8-16.5h56.9c0,0,4,11.6,3.8,11.4s-28,10.3-28.8,10S248.5,139.7,246.5,137.4z"/>
<path class="st1" d="M233.2,162.8c-4.3,21.5-18,24.7-25.9,30.9c-12.6,9.8-29.3,38.2-39.7,50.2c-4.9,5.7-18.5,17-27.1,9.2l0,0
	c-10.6-10.6-3-23.9,1.3-29.8c8.6-12,28.3-34.5,34.9-47.8c4.9-9.9,7.6-20.7,23.1-29.8c0,0,15.3-10.2,26.3-3
	C233,147.4,235,153.9,233.2,162.8L233.2,162.8z"/>
<path class="st1" d="M150.5,252.6c13.9-5.6,9.9-16.5,8.3-22.6c-1.7-6.5-32.3-65.3-40.2-81.5c-4.4-9.1-6.6-14.1-12.3-12
	c-5.1,1.9-3.5,12.2-2.9,16.3c5.5,38.1,11.6,66.7,27.8,90.7C141.7,259.3,146.9,254,150.5,252.6z"/>
<path class="st1" d="M311.2,167.8c4.3,21.5,18,24.7,25.9,30.9c12.6,9.8,29.3,38.2,39.7,50.2c4.9,5.7,18.5,17,27.1,9.2l0,0
	c10.7-10.6,3-23.9-1.3-29.8c-8.6-12-28.3-34.5-34.9-47.8c-4.9-9.9-7.6-20.7-23.1-29.8c0,0-15.3-10.2-26.3-3
	C311.4,152.4,309.5,158.9,311.2,167.8L311.2,167.8z"/>
<path class="st1" d="M381,244.2c3.7-13.8,14.4-11.2,20.3-10.4c6.4,0.9,65.4,22.9,81.5,28.4c9.1,3.1,14.1,4.6,12.7,10.2
	c-1.2,5-11.1,4.7-15,4.7c-36.6-0.8-64.1-3.2-88.7-15.7C375.7,253.3,380,247.8,381,244.2z"/>
<path class="st1" d="M516.2,265c4.4,2.3,10.2,5.1,13.6,6.6c1.1,0.5,1.3,2.1,0.3,2.8c-1.6,1.1-3.6,2.3-4.7,2.4
	c-1.4,0.2-6.5-2.3-8.2-3.1c-0.3-0.2-0.8-0.3-1.2-0.1l-4.1,1.3c-1,0.3-1.4,1.5-0.8,2.4c1.8,2.8,2.6,4.7,5.5,8.2
	c2.7,3.3,11.1,8.4,15.2,10.1c2.2,0.9,7.5,0.8,9.4,2.2c0.8,0.6,1.4,2.3,1.8,3.7c0.3,1.1-0.5,2.2-1.6,2.1l-10.2-0.6
	c-0.2,0-0.3,0-0.4-0.1c-2-0.7-17.4-6.2-22.6-8.5c-5.9-2.7-17.1-9.5-21.6-13.9c-1.4-1.4-4.2-4.3-3.3-8.5c0.8-3.6,4.5-4.9,7-5.6
	C493.9,265.5,515.9,264.8,516.2,265z"/>
<path class="st1" d="M272.2,232.8c-5.5-3.6-8-0.6-13.7,2.5c-9.8,5.3-15.8,23.7-26.7,26.2c-3.9,0.9-12.7-15.1-13.7-21.3
	c-1.5-9.3,2.5-27.5-8.4-36.9c-9.2-7.9-21.5-3.7-25.5-16.3c-7-22,13.5-38.5,23.4-42.3c15.2-5.9,37.1-5.1,43.5-14.2l0.9-27.7l0.7-20.2
	l18.3-0.8h2.2l18.3,0.8l0.7,20.2l0.9,27.7c6.4,9.1,28.4,8.4,43.5,14.2c10,3.9,30.4,20.4,23.4,42.3c-4,12.6-16.2,8.4-25.5,16.3
	c-10.9,9.3-6.9,27.5-8.4,36.9c-1,6.2-9.9,22.2-13.7,21.3c-10.8-2.5-16.9-20.9-26.7-26.2C280.2,232.2,277.7,229.2,272.2,232.8"/>
<path class="st2" d="M251.7,130.8c0,0,31.8,11.4,41.2-10.8l-1.3-37.4h-38.8L251.7,130.8z"/>
<path class="st3" d="M187.1,234.6c-1.8-1.8-36.1-37.9-32.6-40.5c2.4-1.8,19-23.5,29.5-37.3c5.6-7.4,13.6-12.7,22.6-14.9l32.4-8.2
	l28.7,48.1L187.1,234.6z"/>
<path class="st3" d="M238,140.7c-0.3-0.4,3.3-4.6,3.4-5s23.3,13.3,23.8,13.9s7.1,5.6,7.1,5.6s18.5-12.9,19.1-12.9s10.8,1.6,9.4,2.1
	s-14,209.6-14,209.6s-50.5-3.5-50.7-3.1C220.4,386.5,238,140.7,238,140.7z"/>
<path class="st3" d="M348.2,231.2c1.8-1.8,36.1-37.9,32.6-40.5c-2.4-1.8-19-23.5-29.5-37.3c-5.6-7.4-13.6-12.7-22.6-14.9l-32.4-8.2
	l-28.6,51.5L348.2,231.2z"/>
<path class="st4" d="M230.4,134.7l36.1,50.9l-11.3,15.1c0,0-2.1,28.8-3,53.7c-0.2,4.8-3.2,73.4-1.6,77.3
	c4.6,11.1,13.9,20.7,13.9,20.7c-1.3,4.3-2.6,7.3-16,20.7c-6.4,6.3-13.5,11.8-22.1,9.3l-30.2-8.6c4.7-143.8,4.7-143.3,4.7-148.1
	c0-4.4,7.3-85.4,7.3-85.4L230.4,134.7z"/>
<path class="st4" d="M308.8,133.7l-49,69.1c0,0-6.5,124-4.3,131.2c1.6,5.1,22.4,29,34.3,42.4c5,5.7,12.9,7.9,20.2,5.8l32.9-9.4
	c0,0-4.7-143.7-4.7-148.1s-7.3-85.4-7.3-85.4L308.8,133.7z"/>
<path class="st5" d="M217.1,308.5h25.8c2.7,0,4.9,2.2,4.9,4.9l0,0c0,2.7-2.2,4.9-4.9,4.9h-25.8c-2.7,0-4.9-2.2-4.9-4.9l0,0
	C212.2,310.7,214.4,308.5,217.1,308.5z"/>
<path class="st5" d="M293.8,306.6h32c2.7,0,4.9,2.2,4.9,4.9v1.9c0,2.7-2.2,4.9-4.9,4.9h-32c-2.7,0-4.9-2.2-4.9-4.9v-1.9
	C288.8,308.8,291,306.6,293.8,306.6z"/>
<path class="st0" d="M264.4,154.9c0.2,0,3.8,2.6,6.2,4.3c1.2,0.9,2.8,0.8,3.9-0.1l7-5.6l-3.3-13.1l-5,1.1c0,0-6-2.2-6.8-1.1
	S264.4,154.9,264.4,154.9z"/>
<path class="st6" d="M238.7,134.1l4.5-12c0.8-2,3.3-2.7,5-1.3l23.2,19.2c1.1,0.9,1.4,2.4,0.9,3.7l-7.1,16.1
	c-0.9,2.1-3.7,2.5-5.3,0.8l-20.6-23.4C238.5,136.4,238.3,135.1,238.7,134.1z"/>
<path class="st6" d="M307.6,134.1l-4.5-12c-0.8-2-3.3-2.7-5-1.3L274.9,140c-1.1,0.9-1.4,2.4-0.9,3.7l7.2,16.1
	c0.9,2.1,3.7,2.5,5.3,0.8l20.6-23.4C307.8,136.4,308,135.1,307.6,134.1z"/>
<path class="st3" d="M147.3,192.2l1.6-1.4c3.1-2.8,8-2.6,10.8,0.5l31.4,34.7c2.8,3.1,2.6,8-0.5,10.8l-1.6,1.4
	c-3.1,2.8-8,2.6-10.8-0.5L146.8,203C143.9,199.9,144.2,195.1,147.3,192.2z"/>
<path class="st3" d="M345.2,234.6l-1.6-1.4c-3.1-2.8-3.4-7.7-0.5-10.8l30.7-34c2.8-3.1,7.7-3.4,10.8-0.5l1.6,1.4
	c3.1,2.8,3.4,7.7,0.5,10.8l-30.7,34C353.2,237.2,348.4,237.5,345.2,234.6z"/>
<circle class="st6" cx="267.7" cy="218" r="3.4"/>
<circle class="st5" cx="266.4" cy="253.6" r="3.4"/>
<circle class="st5" cx="265.1" cy="288.1" r="3.4"/>
<path class="st1" d="M113,141.1c1.9-0.2,3.5-1.3,4.1-3.1c1.8-4.6,4-13.1,4.8-14.6c0.8-1.4,5.8-12.5,8.3-18.1
	c0.6-1.4-0.6-2.9-2.1-2.5c-0.3,0.1-0.6,0.1-0.9,0.2c-1.2,0.3-2.2,1-2.9,2l-3.8,5.8c-1.3,1.9-4.1,1.4-4.7-0.7L111,93.6
	c0,0-7.2-28.3-8-27.4c-0.8,0.7-1.6,1.3-2.4,2c-1.4,1.1-2.1,2.9-1.8,4.7l3.9,20.6c0.2,1.2,0,2.4-0.7,3.5l-10.6,16.7
	c-0.8,1.2-0.9,2.7-0.6,4c1.5,4.6,5,15.3,6.4,17.4c0.6,0.8,4,7.2,7,6.8C105.5,141.7,110.1,141.3,113,141.1z"/>
<g>
	<path class="st3" d="M118,132.8H93.9c-3.5,0-6.4-2.8-6.4-6.4V65.7c0-3.5,2.8-6.4,6.4-6.4H118c3.5,0,6.4,2.8,6.4,6.4v60.7
		C124.3,129.9,121.5,132.8,118,132.8z"/>
	<path class="st7" d="M120.3,128.2H91.6c-0.9,0-1.8-0.8-1.8-1.8V68c0-0.9,0.8-1.8,1.8-1.8h28.7c0.9,0,1.8,0.8,1.8,1.8v58.4
		C122.1,127.4,121.3,128.2,120.3,128.2z"/>
	<path class="st7" d="M112.9,63.2H99.1c-0.2,0-0.5-0.2-0.5-0.5v-0.2c0-0.2,0.2-0.5,0.5-0.5h13.8c0.2,0,0.5,0.2,0.5,0.5v0.2
		C113.3,63.1,113.1,63.2,112.9,63.2z"/>
	<circle class="st8" cx="105.9" cy="92.5" r="7.8"/>
	<path class="st8" d="M116.3,128.3H95.5v-17c0-4.7,3.8-8.5,8.5-8.5h3.8c4.7,0,8.5,3.8,8.5,8.5L116.3,128.3L116.3,128.3z"/>
	<path class="st9" d="M111.1,79.6c-1.3-1.3-3.1-2.1-5.2-2.1c-2,0-3.9,0.8-5.2,2.1"/>
	<path class="st9" d="M112.6,77.5c-1.7-1.9-4-3.1-6.7-3.1s-5.1,1.2-6.7,3.1"/>
	<path class="st9" d="M114.7,75.1c-2-2.7-5.2-4.4-8.8-4.4c-3.6,0-6.8,1.7-8.8,4.5"/>
	<path class="st9" d="M109.6,81.6c-0.9-1-2.2-1.7-3.6-1.7c-1.5,0-2.8,0.6-3.7,1.7"/>
</g>
<path class="st3" d="M71.8,56.4c3.2-5.2,5.1-11.3,5.1-17.8C76.9,20.1,61.8,5,43.2,5S9.5,20.1,9.5,38.7s15,33.7,33.7,33.7
	c5.6,0,10.9-1.4,15.5-3.8l14.5,3.5c0.5,0.2,0.9-0.3,0.9-0.8L71.8,56.4z"/>
<path class="st10" d="M43.2,5"/>
<path class="st10" d="M43.2,5C24.6,5,9.5,20,9.5,38.7c0,18.6,15,33.7,33.7,33.7c5.6,0,10.9-1.4,15.5-3.8l14.5,3.5
	c0.5,0.2,0.9-0.3,0.9-0.8l-2.3-14.8c3.2-5.2,5.1-11.3,5.1-17.8"/>
<path class="st11" d="M55.8,28.2c-3.5-2.5-8.2-1.9-11.2,1.1l-1.4,1.4l0,0l-1.7-1.7c-3.3-3.3-8.7-3.3-12.1,0l0,0
	c-3.3,3.3-3.3,8.7,0,12.1l1.7,1.7l0,0l11.6,11.6c0.2,0.2,0.6,0.2,0.9,0l11.6-11.6l0,0l1.6-1.6C60.6,37.6,60.2,31.3,55.8,28.2z"/>
</svg>
