<?xml version="1.0" encoding="utf-8"?>
<!-- Generator: Adobe Illustrator 26.0.3, SVG Export Plug-In . SVG Version: 6.00 Build 0)  -->
<svg version="1.1" id="Calque_9" xmlns="http://www.w3.org/2000/svg" xmlns:xlink="http://www.w3.org/1999/xlink" x="0px" y="0px"
	 viewBox="0 0 788 1005" style="enable-background:new 0 0 788 1005;" xml:space="preserve">
<style type="text/css">
	.st0{fill:#74A1AF;}
	.st1{fill:#E0B9A0;}
	.st2{fill:#ED9170;}
	.st3{fill:#CCAA97;}
	.st4{fill:#C3DFED;}
	.st5{fill:#91B7C6;}
</style>
<polygon class="st0" points="365.3,314.1 422.7,313.7 423.9,334.7 365.9,334.7 "/>
<path class="st1" d="M353.4,352.1c-4.3,21.5-18,24.7-25.9,30.9c-12.6,9.9-29.3,38.2-39.7,50.2c-4.9,5.7-18.5,17-27.1,9.2l0,0
	c-10.6-10.6-3-23.9,1.3-29.8c8.6-12,28.3-34.5,34.9-47.8c4.9-9.9,7.6-20.7,23.1-29.8c0,0,15.3-10.1,26.3-3
	C353.2,336.7,355.2,343.3,353.4,352.1L353.4,352.1z"/>
<path class="st2" d="M430.8,352.1c4.3,21.5,18,24.7,25.9,30.9c12.6,9.9,29.3,38.2,39.7,50.2c4.9,5.7,18.5,17,27.1,9.2l0,0
	c10.7-10.6,3-23.9-1.3-29.8c-8.6-12-28.3-34.5-34.9-47.8c-4.9-9.9-7.6-20.7-23.1-29.8c0,0-15.3-10.1-26.3-3
	C430.9,336.7,429,343.3,430.8,352.1L430.8,352.1z"/>
<path class="st1" d="M506.2,428.2c3.4-14.7,14.8-12.4,21-11.7c6.8,0.7,69.6,21.6,86.8,26.9c9.7,3,15,4.3,13.7,10.2
	c-1.1,5.4-11.6,6-15.7,5.5c-44.1-5.1-54.6-6.7-93.9-13.1C499.5,442.9,505.3,432,506.2,428.2z"/>
<path class="st1" d="M279.8,428.1c-3.4-14.7-14.8-12.4-21-11.7c-6.8,0.7-69.6,21.6-86.8,26.9c-9.7,3-15,4.3-13.7,10.2
	c1.1,5.4,11.6,6,15.6,5.5c44.1-5.1,54.6-6.7,93.9-13.1C286.5,442.8,280.7,431.9,279.8,428.1z"/>
<path class="st1" d="M394,418.7c-5.5-3.6-8-0.6-13.7,2.5c-9.8,5.4-15.8,23.7-26.7,26.2c-3.9,0.9-12.7-15.1-13.7-21.3
	c-1.5-9.3,2.5-27.5-8.4-36.9c-9.2-7.9-21.5-3.7-25.5-16.3c-7-22,13.5-38.5,23.4-42.4c15.2-5.9,37.1-5.1,43.5-14.2l0.9-27.7l0.7-20.2
	l18.3-0.8h2.2l18.3,0.8l0.7,20.2l0.9,27.7c6.4,9.1,28.4,8.4,43.5,14.2c10,3.9,30.4,20.4,23.4,42.4c-4,12.6-16.2,8.4-25.5,16.3
	c-10.9,9.3-6.9,27.5-8.4,36.9c-1,6.2-9.9,22.2-13.7,21.3c-10.8-2.5-16.9-20.9-26.7-26.2C402,418,399.5,415.1,394,418.7"/>
<path class="st3" d="M373.5,316.7c0,0,31.8,11.4,41.2-10.8l-1.3-37.4h-38.8L373.5,316.7z"/>
<path class="st4" d="M516.8,445.8l18.4-52c0.3-1.2-0.1-2.4-1-3.2l-54.5-50.3l0,0c-1.2-1.4-2.7-2.6-4.5-3.4l-41.7-19.6
	c-6.1-2.6-5.9,0.3-8.7,6.1c-0.1,0.3-0.3,0.5-0.5,0.8L407,343.8c-0.2,0.2-0.3,0.4-0.4,0.6c-4.6,8.7-17,8.9-22.1,0.6
	c-0.3-0.4-0.6-0.8-1-1.1l-19.3-13.4c-0.5-0.4-1-0.9-1.2-1.5c-2.4-5.9-0.5-14.4-6.3-11.8L311,337.5c-2.5,1.1-4.4,2.9-5.7,5l-0.1-0.2
	L267.6,394c-1.8,2.5-2.6,5.7-2.2,8.8l5.5,39.1c1.4,10.2,14,14.1,20.9,6.5l20.4-22.3c2-2.2,5.6-0.9,5.8,2.1l1.9,31.6
	c0,1.3-0.2,2.5-0.5,3.7l0.9,13.9c-0.9,3.1-0.6,6.4,0.8,9.3c1,2,1.5,4.2,1.3,6.4c-0.2,3.8-0.6,9.9-0.9,14.3l-21.8,105.8
	c-0.4,5.7,3,11,8.4,12.8c0.1,0.1,0.3,0.1,0.5,0.1l19.6,5.3c25.9,5.6,68.7,5.7,94.7,0.3c16.6-3.4,53.1-7.1,62.6-9.3
	c5.9-1.4,10-6.9,9.7-13l-27.9-101.2c-0.3-6.4-0.9-12.4-3.6-17.3h-0.4l2.5-2.9c3.1-3.6,4-8.5,2.3-12.9c-2-5.3,0.5-12,0.5-14
	c0.1-13.4,0.2-28.6,0.3-40c0-2.6,2.9-4.2,5.1-2.8l36.5,31.6C512.2,450.9,516.2,448,516.8,445.8z"/>
<path class="st5" d="M416.5,635.1h-44.3c-6.6,0-12-5.4-12-12V335.9c0-6.6,5.4-12,12-12h44.3c6.6,0,12,5.4,12,12v287.2
	C428.5,629.7,423.1,635.1,416.5,635.1z"/>
<path class="st4" d="M421.6,314.5l-18.2,90.1c-0.7,3.5-1.1,7-1.1,10.6l-1.1,220.4c0,3,2.8,5.2,5.7,4.6l56.6-15.1L460,329.9
	l-36.4-16.2C422.7,313.2,421.8,313.6,421.6,314.5z"/>
<path class="st4" d="M366.4,314.5l18.2,90.1c0.7,3.5,1.1,7,1.1,10.6l1.1,220.4c0,3-2.8,5.2-5.7,4.6l-61.9-14.1l8.9-296.2l36.4-16.2
	C365.3,313.2,366.3,313.6,366.4,314.5z"/>
<path class="st1" d="M160.5,440.5l-9.7-1.9c-0.2,0-0.4-0.1-0.6-0.2l-14.9-0.7c-1.8-0.6-3.7,0.2-4.1,2c-0.1,0.3-0.2,0.7-0.1,1
	c0.2,1.4,1.3,2.5,2.7,2.6l10.1,1.2c1.9,1.2,2,4,0.1,5.3l-3.3,2.4c-0.6,0.3-1.2,0.6-1.8,0.6c0,0-5,0.6-7.4-3.9l0.6-4.1
	c0.8-1.7,0.2-3.7-1.4-4.7c-0.6-0.4-1.3-0.6-1.8-0.4c-1.5,0.7-5.3,8.4-4.4,9.7c0,0,1.2,2.4,2.8,4.8c0.2,0.3,0.6,0.8,0.7,1.3
	c0.4,0.9,1.4,4,2.5,4.1l9.9,2.8l0,0c1,0.2,2.1,0.2,3.1,0l28-3l1.4-0.2c2.2-0.3,1.4-4.4,0.2-7.5c-0.8-2.2-2.1-4.1-3.8-5.7l-3.4-2.9
	C164.4,441.8,162.5,440.9,160.5,440.5z"/>
<path class="st1" d="M140.3,462.6l-26.1,4.1c-1.8,0.3-3.4-1-3.7-2.7l0,0c-0.3-1.8,1-3.4,2.7-3.7l26.1-4.1c1.8-0.3,3.4,1,3.7,2.7l0,0
	C143.3,460.7,142.1,462.4,140.3,462.6z"/>
<path class="st1" d="M142.6,460.1l-26.1,4.1c-1.8,0.3-3.4-1-3.7-2.7l0,0c-0.3-1.8,1-3.4,2.7-3.7l26.1-4.1c1.8-0.3,3.4,1,3.7,2.7l0,0
	C145.6,458.2,144.4,459.8,142.6,460.1z"/>
<path class="st1" d="M127.6,459.9l-7.4,1.2c-1.8,0.3-3.4-1-3.7-2.7l0,0c-0.3-1.8,1-3.4,2.7-3.7l7.4-1.2c1.8-0.3,3.4,1,3.7,2.7l0,0
	C130.6,457.9,129.3,459.6,127.6,459.9z"/>
<path class="st1" d="M615.9,443l-3.4,2.9c-1.8,1.5-3,3.5-3.8,5.7c-1.1,3.1-2.1,7.2,0.2,7.5l1.4,0.2l28,3c1,0.2,2.1,0.1,3.1,0l0,0
	l9.9-2.8c1.2-0.1,2.1-3.2,2.5-4.1c0.2-0.5,0.5-1,0.7-1.3c1.6-2.4,2.8-4.8,2.8-4.8c0.9-1.4-2.9-9-4.4-9.7c-0.5-0.2-1.1,0-1.8,0.4
	c-1.6,1-2.2,3-1.4,4.7l0.6,4.1c-2.4,4.5-7.4,3.9-7.4,3.9c-0.6,0-1.3-0.2-1.8-0.6l-3.3-2.4c-1.9-1.3-1.8-4.1,0.1-5.3l10.1-1.2
	c1.4-0.2,2.6-1.3,2.7-2.6c0-0.3,0-0.6-0.1-1c-0.5-1.8-2.4-2.6-4.1-2l-14.9,0.7c-0.2,0.1-0.4,0.2-0.6,0.2l-9.7,1.9
	C619.2,440.8,617.4,441.7,615.9,443z"/>
<path class="st1" d="M641.7,462.3l26.1,4.1c1.8,0.3,3.4-1,3.7-2.7l0,0c0.3-1.8-1-3.4-2.7-3.7l-26.1-4.1c-1.8-0.3-3.4,1-3.7,2.7l0,0
	C638.6,460.4,639.9,462.1,641.7,462.3z"/>
<path class="st1" d="M639.4,459.8l26.1,4.1c1.8,0.3,3.4-1,3.7-2.7l0,0c0.3-1.8-1-3.4-2.7-3.7l-26.1-4.1c-1.8-0.3-3.4,1-3.7,2.7l0,0
	C636.4,457.9,637.6,459.5,639.4,459.8z"/>
<path class="st1" d="M653.9,459.5l7.9,1.3c1.8,0.3,3.4-1,3.7-2.7l0,0c0.3-1.8-1-3.4-2.7-3.7l-7.9-1.3c-1.8-0.3-3.4,1-3.7,2.7l0,0
	C650.9,457.5,652.2,459.2,653.9,459.5z"/>
</svg>
