<?xml version="1.0" encoding="utf-8"?>
<!-- Generator: Adobe Illustrator 26.0.3, SVG Export Plug-In . SVG Version: 6.00 Build 0)  -->
<svg version="1.1" id="Calque_9" xmlns="http://www.w3.org/2000/svg" xmlns:xlink="http://www.w3.org/1999/xlink" x="0px" y="0px"
	 viewBox="0 0 466 323.3" style="enable-background:new 0 0 466 323.3;" xml:space="preserve">
<style type="text/css">
	.st0{fill:#E0B9A0;}
	.st1{fill:#CCAA97;}
	.st2{fill:#5A5A5A;}
	.st3{fill:#161615;}
	.st4{fill:#2B2B29;}
	.st5{fill:#4C443F;}
	.st6{fill:#3D3D3D;}
</style>
<path class="st0" d="M236.1,174.9c-5.8-3.9-8.5-0.7-14.7,2.7c-10.4,5.8-16.9,25.6-28.3,28.3c-4.1,1-13.5-16.3-14.6-23.1
	c-1.7-10.1,2.7-29.8-9-40c-9.9-8.6-22.7-4-27-17.7c-7.5-23.7,14.3-41.6,24.8-45.9c16.1-6.4,39.5-5.5,46.2-15.4l1-30l0.7-21.8
	l19.4-0.9h2.4l19.4,0.9l0.8,21.8l1,30c6.8,10,30.1,9.1,46.2,15.4c10.6,4.3,32.2,22.1,24.8,45.9c-4.3,13.7-17.2,9.1-27,17.7
	c-11.6,10.2-7.3,29.8-9,40c-1.1,6.8-10.5,24-14.6,23.1c-11.5-2.7-18-22.5-28.3-28.3C244.6,174.3,241.9,171,236.1,174.9"/>
<path class="st1" d="M214.3,64.5c0,0,33.7,12.4,43.8-11.8l-1.3-40.5h-41.3L214.3,64.5z"/>
<path class="st2" d="M287.1,271.2c7.3-31.2,27.6-186.1,17.7-189.4c-3.5-1.1-32.3,12.6-69.1,13.8c-40.5,1.2-89.1-9.5-92.3,5.5
	c-4.6,21.3,37.7,139.1,45.1,170.3"/>
<path class="st2" d="M183.6,90.4c9.4,20-1,31.5-4.4,41.8c-5.3,16.2-2.8,49.7-4.8,66.2c-0.9,7.8-6.2,25.6-18.7,25.1l0,0
	c-16.1-1.5-16.7-20.9-16.6-28.4c0.3-15.3-4.5-78.8,3.8-96.2c0,0,7.5-18.2,21.7-19.6C174.1,78.1,179.8,82.1,183.6,90.4L183.6,90.4z"
	/>
<path class="st0" d="M166.6,220.4c-9.4,8.3-18.9,0.7-26.2-7.2c-5.2-5.6-50.1-64-62.6-79.7c-7-8.9-11-13.5-6.1-18.1
	c4.4-4.2,14.1,2.4,17.9,4.9c35.6,24,61.4,43.8,77.8,71.6C178.3,210.3,169.8,217.5,166.6,220.4z"/>
<path class="st2" d="M288.4,90c-9.4,20,1,31.5,4.3,41.8c5.3,16.2,2.8,49.7,4.8,66.2c1,7.8,6.2,25.6,18.7,25.1l0,0
	c16.1-1.5,16.7-20.9,16.6-28.4c-0.3-15.3,4.5-78.8-3.8-96.2c0,0-7.5-18.2-21.7-19.6C298,77.7,292.3,81.7,288.4,90z"/>
<path class="st0" d="M312.1,222.8c11.9,3.9,17.7-6.9,21.3-16.9c2.6-7.2,20.8-78.6,26.1-97.9c2.9-11,4.8-16.8-1.6-19
	c-5.8-2.1-12,7.7-14.6,11.5C320,136.7,304.1,165,300,197C297.4,218.1,308,221.5,312.1,222.8z"/>
<path class="st0" d="M361.1,63.3c2.2-2.4,4.3-4.8,6.2-7.5c1.5-2.2,5-1.1,5,1.5c0,0.2,0,0.4,0,0.5c-0.3,2-5.2,10.6-5.2,10.6l0,0
	c23.8-13.5,43-20,45.8-20.8c0.4-0.1,1-0.1,1.6,0.1c2.5,0.5,3,3.8,0.9,5.1c-7,4.2-19.5,11.7-23.7,14.7
	c-20.8,14.2-25.7,21.8-32.2,34.4c-1.1,2.2-14.3-0.2-12.3-5c0.7-1.7-0.5-11.4,1.2-14C354.9,72.7,360.8,63.6,361.1,63.3z"/>
<path class="st3" d="M178.3,78.7l13.3,62.9c0.2,0.9,0.2,1.8,0.1,2.7l-14.6,95.1c0,0.2-0.1,0.3-0.1,0.6l-10.7,46.7
	c-0.1,0.6-0.2,1.1-0.2,1.7V304c0,4.1,3.4,7.4,7.5,7.3l130.1-4.6c3.9-0.1,6.9-3.4,6.9-7.3v-11.5c0-0.7-0.1-1.3-0.3-2l-11.1-38.4
	c-0.1-0.2-0.1-0.4-0.1-0.7l-20.6-105.7c-0.2-0.9-0.2-1.8,0-2.6l10.1-60.1c0.6-3.7-1.6-7.2-5.1-8.3l0,0c-4.3-1.2-8.6,1.5-9.4,5.8
	l-9.7,57.8c-0.6,3.6-3.7,6.2-7.3,6.2h-43.5c-3.5,0-6.5-2.5-7.2-5.9l-11.9-58.7c-0.9-4.1-5-6.8-9.2-5.6l-1.6,0.4
	C179.8,71.1,177.5,74.9,178.3,78.7z"/>
<path class="st4" d="M288.4,293.9l-104,3.5c-4.4,0.1-7.6-3.9-6.6-8.1l14.3-57.9c1.7-6.9,7.9-11.9,15.2-11.9h61
	c7.4,0,13.8,5.1,15.3,12.3l11.5,53.4C296.1,289.7,292.8,293.7,288.4,293.9z"/>
<path class="st5" d="M326.2,200c0.7-1.2,1.4-2.3,2-3.5c0.5-0.9,0.4-1.9-0.3-2.8c-0.6-0.9-1.3-1-2.1-0.4c-1.2,0.9-2.4,1.7-3.5,2.6
	c-1,0.7-2.2,1.3-3.5,1.4c-3.5,0.3-6.2-2.7-5.8-6.4c0.2-2.4,1.8-4.3,4.4-4.9c1.4-0.4,2.7-0.5,4.1-0.8c0.8-0.2,1.5-0.5,2.2-0.9
	c0.6-0.3,1-1,0.7-1.7c-0.3-0.7-1-0.8-1.6-0.7c-1,0.3-2,0.7-3,1.2c-1.2,0.5-2.3,1.2-3.5,1.8c-2.7,1.1-6-0.4-6.9-3.1
	c-0.7-2.1,0.5-4.7,2.7-5.6c1.7-0.7,3.4-0.9,5.2-0.4c0.7,0.2,1.4,0.7,2,1.2c0.5,0.3,0.6,0.9-0.1,1.2c-0.7,0.4-1.5,0.9-2.3,1
	c-0.5,0.1-1.2-0.2-1.6-0.5c-0.8-0.5-1.6-1.2-2.6-0.5c-0.9,0.5-1.6,1.2-1.6,2.4c0.1,1.2,0.7,2.2,1.7,2.6c0.4,0.2,1,0.1,1.4-0.1
	c2-1,4-2.1,6-3.1c0.6-0.3,1.2-0.7,1.8-0.9c2.2-0.8,4.7,0.6,5.5,2.9c0.7,2.2-0.5,4.6-2.9,5.1c-0.7,0.2-1.5,0.1-2.3,0
	c-2-0.2-4,0.1-5.8,1.2c-1,0.8-1.6,1.8-1.8,3.1c-0.3,2.6,2.9,4.4,4.9,3.1c1.2-0.8,2.4-1.9,3.6-2.7c0.8-0.6,1.6-1.2,2.6-1.4
	c2.2-0.7,4,0.7,3.9,3C329.8,196.3,328.3,198.4,326.2,200z M316.3,178.3c0.1-0.1,0.1-0.1,0.1-0.2c-0.2-0.1-0.5-0.3-0.7-0.5
	c-0.1,0.1-0.1,0.1-0.1,0.3C315.9,178,316.1,178.1,316.3,178.3z"/>
<g>
	<path class="st0" d="M79.9,115.3c0.4-0.5,0.7-1,0.8-1.6c0.5-2.9,1.9-12,1.5-13.6c-0.6-2-4.1-10.1-4.3-11.8
		c-0.2-1.6,1.2-11.2,0.2-11.2c-0.6,0-2.3,0.2-3.7,0.3c-1.3,0.1-2.3,1-2.6,2.3l-1.5,5.3c-0.1,0.4-0.1,0.9-0.1,1.4l0.7,3.8
		c0.3,1.7-1.7,2.7-2.9,1.6l-1.3-2.3c-0.1-0.1-5.1-3.1-5.2-3.3c-2.3-1.3-5.8,2.8-5.8,2.8c-0.1,0-3,3.4-3.9,4.7
		c-0.3,0.4-0.5,0.7-0.7,1l-2,3c-1.8,2.6-2.7,5.7-2.5,8.7c0.1,1.4,0.4,2.6,1.2,3c0.2,0.1,0.4,0.2,0.6,0.4l16.1,13.6
		c0.5,0.4,1.2,0.6,1.8,0.8l3.6,0.2c0.9,0,1.8-0.3,2.3-0.9L79.9,115.3z"/>
	<path class="st2" d="M70.6,83.5c-1.7-0.6-3.4-1.1-5.2-1.7c-0.1,0.3-0.4,0.9-0.7,1.4c-0.9-0.4-1.7-0.8-2.6-1.2
		c0.2-0.6,0.5-1.4,0.7-2.2c-1.1-0.7-3-0.8-2.3-2.7c0.7-1.9,2.2-0.6,3.5-0.4c0.3-0.8,0.7-1.6,1-2.5c0.8,0.4,1.6,0.8,2.6,1.3
		c-0.1,0.5-0.3,1.1-0.5,2.1c1.5,0.5,3.1,1.6,4.6,1.5c1.3-0.1,2.3-0.2,3.4,0.3c0.1,0,0.1,0,0.2,0.1c0.3,0.6-1.2,2,0.9,1.9
		c0.2-0.6,0.4-1.2,0.6-1.9c-1.9-1.8-2-2.3-1-4.9c1.3-3.3,2.6-6.6,3.9-10c0.9-2.2,1.6-2.6,4-2.5c0.2-0.6,0.5-1.3,0.9-2.4
		c-1.6-0.5-3.1-0.9-4.5-1.4c-1.2-0.4-2.7-0.7-2.1-2.4c0.6-1.7,2-0.7,3.1-0.3c0.3,0.1,0.5,0.2,0.8,0.3c0.8,0.2,1.3,0,1.6-1
		c0.9-4.1,3.7-5.3,7.3-3.3c0.4,0.2,1.1,0.2,1.5,0.1c0.7-0.2,1.3-0.5,2-0.8c0.4,0.9,0.8,1.7,1.2,2.6c-0.5,0.3-1,0.6-1.6,0.8
		c-0.8,0.3-1.3,0.8-1.6,1.8c-0.3,1.1-1,2.1-1.5,3c3.4,1.3,7.1,2.8,10.8,4.3c0.7-1.9,2.1-1.2,3.6-0.6c1.3,0.5,1.9,1.3,1.3,2.8
		c0.4,0.2,0.8,0.5,1.3,0.8c-0.6,1.1-0.4,2.7-2.3,2.8c-0.3,0-0.7,0.8-0.9,1.3c-2.3,5.8-4.6,11.5-6.8,17.4c-0.2,0.7,0.2,1.5,0.1,2.3
		c0,1-0.3,1.9-0.4,2.9c-8-3.1-15.8-6.3-23.6-9.3c-0.2,0.3-0.4,0.4-0.6,0.7c0.2,0.4,0.3,1,0.7,1.2c2.3,1.3,2.7,2.3,1.8,4.8
		c-2.1,5.4-4.2,10.7-6.2,16.1c-1,2.4-2.3,3.1-4.7,2.1c-1.4-0.5-2.7-1-4-1.6c-2.4-1-3.1-2.3-2.2-4.7c2-5.4,4.2-10.8,6.3-16.2
		c0.9-2.2,2.1-2.8,4.5-2.1c0.3,0.1,0.6,0.2,0.9,0.2C70.5,83.8,70.5,83.6,70.6,83.5z M86.3,63.3c1.9,1.5,2.2,2.4,1.4,4.5
		c-1.3,3.3-2.6,6.5-3.8,9.8c-0.7,2-1.7,3.5-4,3c-0.4,0.8-0.8,1.3-1.1,1.8c2.6,1,5,1.9,7.2,2.8c0.3-0.6,0.7-1.2,1-1.8
		c-1.9-1.4-2.2-2.3-1.4-4.3c1.4-3.5,2.7-6.9,4.1-10.4c0.9-2.3,1.6-2.8,4-2.6c0.2-0.6,0.5-1.2,0.7-1.6c-2.5-0.9-4.9-1.9-7.1-2.8
		C87,62.2,86.7,62.8,86.3,63.3z M97.5,65.4c-0.4,0.7-0.8,1.3-1.1,1.8c1.9,1.5,2.2,2.3,1.4,4.4c-1.3,3.3-2.6,6.5-3.8,9.8
		c-0.7,2-1.7,3.6-4.2,3c-0.3,0.8-0.5,1.4-0.6,1.8c1.5,0.6,2.7,1.1,4,1.6c2.7-7,5.4-14,8.1-21C100.1,66.4,98.8,65.9,97.5,65.4z
		 M88.7,57.4c0.3-1.2,0.8-2,0.6-2.5c-0.2-0.5-1.4-1-1.8-0.8c-0.5,0.2-0.9,1.3-0.8,1.8C86.8,56.3,87.7,56.6,88.7,57.4z"/>
	<path class="st2" d="M58.6,117.2c1.1-2.9,2.3-5.9,3.3-8.7c1.2,0.5,2.4,1,3.6,1.4c-1.1,2.8-2.3,5.8-3.5,8.8
		C61.1,118.1,59.9,117.6,58.6,117.2z"/>
	<path class="st6" d="M56.4,127.1c0.7-2.6,1.4-5.2,2.1-8c0.9,0.3,1.4,0.5,2.5,0.8c-1.3,2.6-2.6,5-3.8,7.5
		C56.8,127.3,56.6,127.2,56.4,127.1z"/>
	<path class="st0" d="M69.5,97.1l-7.5,10.3c-2.1,2.8-6.1,3.5-8.9,1.4l0,0c-2.8-2.1-3.5-6.1-1.4-8.9L61.6,86l6.9,4.4
		C70.6,91.9,71.1,95,69.5,97.1z"/>
</g>
<path class="st5" d="M336.5,139.2c1.4,2-0.3,3.5-0.9,5.2c-0.2,1.1-0.8,2-1.3,3.1c-0.5,0.8-0.1,1.5,0.6,1.8c0.1,0.1,0.4,0.1,0.5,0.2
	c0.3,0.5,0.7,0.9,0.9,1.5c0.1,0.1-0.6,0.7-0.6,0.7c-0.5-0.2-0.8-0.8-1.5-1.4c-0.8,0-1.2,0.5-1,1.6c0,0.5,0.1,1.1-0.1,1.5
	c-1.7,3.5-3.6,6.8-6.4,9.6c-0.4,0.4-0.8,0.6-1.4,1c-0.1-1.3-0.4-2.1-0.2-3.2c0.6-3.2,1.5-6.4,2.3-9.8c0.1-0.4,0.6-1,1.1-1.3
	c0.9-0.7,0.9-1.2,0.4-1.9c-0.9-0.1-1.5-0.1-2,0c0,0-0.3-0.8-0.2-0.9c0.5-0.3,0.9-0.4,1.4-0.7c0,0,0.1,0.1,0.3,0
	c-0.4,0.2-0.6,0.4-1,0.6c0.8,0.2,1.5,0.3,2.4,0.4c-0.4-0.4-0.8-0.8-1.4-1c2.1,0.4,2,0.3,2.8-1.7c0.3-0.9,0.8-2,1.3-2.9
	c0.3,0.3,0.6,0.5,0.8,1c0.4-0.7,0.5-1.1,0.8-1.5c-0.1-0.1-0.1-0.1-0.3-0.3c-0.5,0.3-1,0.6-1.5,0.9c0.4-0.7,0.6-1.5,1.1-2.3
	c0.3,0.3,0.6,0.5,0.7,0.9c0.1-0.1,0.2-0.5,0.4-0.7c-0.4-0.1-0.8-0.2-1.2-0.1c0.4-0.7,0.7-1.4,0.8-2c0.1-1.2,1.3-1.4,2-2
	c0.1-0.1,0.9,0.3,1.2,0.6c0.4,0.4,0.6,1,0.9,1.5C337.8,138.3,338.3,140.3,336.5,139.2c0.1-0.4,0.2-1.1,0.2-1.1
	c-0.5-0.2-1.1-0.2-1.5-0.3c-0.1,0.1-0.1,0.4-0.2,0.5C335.6,138.6,336.1,138.8,336.5,139.2z M330.6,151.7c0.5-0.3,0.8-0.3,1.4-0.5
	c-0.4,1.6-1.8,2.6-1.2,4.4c-1.8,0.9-3.5,3.4-4.3,6.7c2-1.4,3.1-3.5,4.5-5.3c1.3-2.1,1.8-4.2,1.6-6.6c-0.4,0.2-0.9,0.2-1.3,0.3
	c-0.3-0.5-0.6-0.8-0.7-1.2c-3.8,3.1-4.4,7.4-4.3,12c0.9-2.4,3.1-4.5,1.7-7.2c1.7-0.8,1.4-2.7,2.6-4
	C330.3,150.9,330.4,151.3,330.6,151.7z M332,148.2c0.9-0.4,1.8-0.6,1.5-1.7c-0.2-0.4-1-0.6-1.3-0.5
	C331.1,146.4,331.8,147.2,332,148.2z M335.6,141.9c-0.1-0.1-0.3,0-0.4-0.1c-0.1,0.4-0.2,1.1-0.3,1.7
	C336.3,143,335.8,142.3,335.6,141.9z M335.9,150.7c0.1-0.1,0.3-0.3,0.4-0.4c-0.7-0.4-1.2-0.9-1.9-1.2l-0.1,0.1
	C334.7,149.9,335.4,150.2,335.9,150.7z M336.4,140.1c-0.3,0.3-0.6,0.4-0.6,0.7c-0.1,0.1,0.2,0.4,0.3,0.5c0.1-0.1,0.7-0.2,0.6-0.4
	C336.9,140.7,336.6,140.5,336.4,140.1z M333.6,143.6c-0.1-0.1-0.2-0.4-0.3-0.5c-0.4,0.2-0.6,0.4-1.2,0.7c0.1,0.1,0.3,0.3,0.2,0.4
	C332.8,144.1,333.2,144,333.6,143.6z M334.6,143.8c-0.1,0.1-0.3,0-0.4,0.2c0.2,0.4,0.2,0.9,0.3,1.3c0.1-0.1,0.3,0,0.4-0.2
	C334.8,144.7,334.8,144.2,334.6,143.8z"/>
<g>
	<path class="st5" d="M164.4,215.6c-0.5,0-0.9-0.4-0.9-0.9c0.1-4.9,0.1-9.8,0.2-14.7c0.4,0,0.8,0,1.1,0c0.2,5,1.4,9.9,0.6,14.9
		C165.3,215.3,164.9,215.6,164.4,215.6C164.4,215.6,164.4,215.6,164.4,215.6z"/>
	<path class="st5" d="M153.3,209.4c2.8,2.2,5.7,4.3,8.7,6.6c0.4,0.3,0.5,0.9,0.1,1.3c0,0,0,0,0,0c-0.3,0.4-0.9,0.4-1.3,0.1
		c-2.8-2.3-5.6-4.7-8.3-7C152.7,210,153,209.8,153.3,209.4z"/>
	<path class="st5" d="M171.6,208.4c-0.9,2.2-1.8,4.4-2.6,6.6c-0.4-0.2-0.9-0.3-1.3-0.5c0.9-2.2,1.8-4.4,2.6-6.7
		C170.8,208.1,171.2,208.3,171.6,208.4z"/>
	<path class="st5" d="M162.1,220.5c-1.5,0.9-3,1.8-4.6,2.7c-0.2-0.3-0.4-0.7-0.6-1c1.5-0.9,3-1.8,4.6-2.7
		C161.7,219.8,161.9,220.1,162.1,220.5z"/>
</g>
<g>
	<path class="st5" d="M345.5,122.6c-0.3,0.5-0.1,1,0,1.5c0.1,0.3,0.2,0.8,0.1,1.1c-0.2,0.7-0.7,1.4,0,2.1c-0.8-0.2-1-0.5-0.9-1.3
		c0.1-0.7,0.1-1.3-0.3-1.9c-0.2-0.3-0.5-0.7-0.7-1.1c-0.7,1.4-1.4,2.7-2.1,4c-0.1-0.1-0.2-0.1-0.3-0.1c0.4-1.5,0.7-2.9,1.1-4.4
		c-0.5,0.1-0.9,0.3-1.4,0.3c-0.6,0.1-1,0.5-1.4,1.1c-0.5,0.6-0.8,0.7-1.6,0.4c1.1-0.2,1.1-1,1.4-1.7c0.1-0.3,0.5-0.5,0.8-0.7
		c0.3-0.2,0.7-0.6,1-0.8c-0.1-0.1-0.1-0.1-0.1-0.2c-1.5,0.5-3.1,1-4.6,1.5c-0.1-0.1-0.1-0.2-0.2-0.3c1.4-0.8,2.8-1.7,4.2-2.5
		c-0.4-0.4-0.8-0.2-1.3-0.1c-0.6,0.2-1.2,0.3-1.7-0.1c-0.6-0.4-1.1-0.2-1.7,0c0.1-0.7,0.5-0.9,1.3-0.8c0.5,0,1-0.1,1.6-0.2
		c0.2-0.1,0.4-0.3,0.6-0.4c0.3-0.2,0.5-0.3,0.8-0.5c-1.4-0.7-2.7-1.4-4-2.1c0.1-0.1,0.1-0.2,0.1-0.3c1.5,0.4,2.9,0.7,4.4,1.1
		c-0.3-1.1-0.4-2.2-1.5-2.8c-0.6-0.3-0.7-0.7-0.3-1.4c0.3,0.9,0.9,1.1,1.6,1.3c0.3,0.1,0.6,0.5,0.9,0.8c0.3,0.4,0.5,0.8,1,0.9
		c-0.5-1.6-1-3.1-1.5-4.8c0.1-0.1,0.2-0.1,0.3-0.2c0.8,1.4,1.7,2.8,2.5,4.2c0.3-0.4,0.2-0.8,0.1-1.3c-0.3-0.7-0.1-1.2,0.1-1.7
		c0.2-0.5,0.2-1,0.2-1.5c0.4,0.1,0.6,0.4,0.6,1.2c0,0.6,0.1,1.2,0.2,1.8c0.2,0.4,0.5,0.8,0.8,1.3c0.7-1.4,1.4-2.7,2.1-4
		c0.1,0.1,0.2,0.1,0.3,0.1c-0.4,1.5-0.7,2.9-1.1,4.4c0.5-0.1,0.8-0.2,1.3-0.3c0.7-0.2,1.1-0.6,1.4-1.1c0.5-0.6,0.8-0.7,1.4-0.6
		c-0.3,0.3-0.7,0.5-0.9,0.8c-0.2,0.4-0.2,0.8-0.4,1.1c-0.1,0.3-0.5,0.5-0.7,0.7c-0.4,0.3-0.9,0.4-0.9,1c1.6-0.5,3.1-1,4.7-1.4
		c0.1,0.1,0.1,0.2,0.2,0.3c-1.4,0.8-2.8,1.7-4.2,2.5c0.4,0.3,0.6,0.4,1.1,0.1c0.7-0.3,1.2-0.2,1.9,0.1c0.5,0.2,1,0.2,1.5,0.2
		c0,0.3-0.1,0.4-0.5,0.6c-0.3,0-0.6,0.1-0.9,0c-0.7-0.1-1.4,0.1-1.9,0.5c-0.3,0.2-0.6,0.4-0.9,0.5c1.4,0.7,2.7,1.4,4.1,2.1
		c-0.1,0.1-0.1,0.2-0.1,0.2c-1.5-0.4-2.9-0.7-4.4-1.1c0.1,0.5,0.1,1,0.4,1.4c0.2,0.5,0.7,0.9,1,1.2c0.6,0.5,0.8,0.9,0.5,1.5
		c-0.2-0.3-0.5-0.7-0.8-0.9c-0.3-0.3-0.8-0.2-1.1-0.4c-0.3-0.1-0.5-0.5-0.7-0.7c-0.3-0.4-0.4-0.9-1.1-1c0.5,1.6,1,3.1,1.5,4.8
		c-0.1,0.1-0.2,0.1-0.3,0.2C347.2,125.4,346.3,124,345.5,122.6z M341.7,118c-0.8,0-1,0.2-0.9,0.9c0.2,1.7,1.5,3,3.1,3.2
		c2,0.2,3.2-0.8,3.9-2.3c0.7-1.7,0-3.7-1.5-4.5c-1.6-1-3.7-0.6-4.7,0.9c-0.4,0.4-0.7,0.9-0.7,1.6C341.2,118,341.4,118,341.7,118z
		 M349.5,113.6c-0.6,1.2-2.1,0.9-3,1.7c0.4,0.3,0.7,0.7,0.9,0.9c0.5-0.4,0.8-0.7,1.3-1C349.4,114.8,349.5,114.2,349.5,113.6z
		 M340.5,117.9c-1.2,0.3-2,1.6-3.3,1.1c0.7,0.5,1.4,0.8,2.2,0.3c0.3-0.2,0.8-0.1,1.1-0.1C340.5,118.8,340.5,118.4,340.5,117.9z
		 M344.1,111.4c-0.5,0.5-0.6,1-0.4,1.8c0.2,0.4,0.2,1,0.2,1.5c0.3,0.1,0.8,0,1.3,0C345,113.5,343.6,112.8,344.1,111.4z M341.4,121.1
		c-0.4,0.3-0.8,0.7-1.1,1c-0.7,0.3-0.9,0.8-0.9,1.6c0.6-1.3,2.1-0.9,3-1.7C342,121.7,341.7,121.4,341.4,121.1z M347,121.6
		c0.3,0.3,0.7,0.5,0.8,0.9c0.3,0.8,1,1.1,1.9,1.2c-0.9-0.6-1.2-1.2-1.4-2.2c0-0.3-0.2-0.6-0.5-0.9C347.5,121,347.2,121.4,347,121.6z
		 M339.2,113.4c0.9,0.5,1.2,1.2,1.4,2.1c0.1,0.3,0.3,0.7,0.5,0.9c0.4-0.4,0.7-0.7,0.9-1c-0.3-0.3-0.6-0.5-0.8-0.9
		C340.8,113.9,340.2,113.5,339.2,113.4z M344.9,125.7c0.4-0.6,0.6-1,0.4-1.8c-0.2-0.4-0.2-1-0.2-1.5c-0.3-0.1-0.8,0-1.3,0
		C343.9,123.7,345.2,124.5,344.9,125.7z M348.4,118c0,0.4,0,0.8,0,1.3c1.1-0.2,1.9-1.6,3.3-1.1c-0.9-0.4-1.1-0.8-2.2-0.3
		C349.3,118.1,348.8,118,348.4,118z M337.4,121.6c0.1,0.1,0.1,0.1,0.1,0.2c1.2-0.4,2.3-0.8,3.5-1.2c-0.1-0.1,0-0.1-0.1-0.2
		c-0.4,0.2-0.7,0.2-1.2,0.4c0,0-0.1-0.1,0-0.1c0.3-0.2,0.7-0.4,1.1-0.6c-0.1-0.1-0.1-0.1-0.1-0.2C339.5,120.4,338.5,121,337.4,121.6
		z M346.6,123.2L346.6,123.2c-0.3-0.3-0.5-0.6-0.7-1c-0.1,0.1-0.1,0.1-0.3,0.2c0.6,1.1,1.2,2.2,1.8,3.2c0.1-0.1,0.1-0.1,0.2-0.1
		c-0.4-1.2-0.8-2.3-1.2-3.5c-0.1,0.1-0.1,0-0.2,0.1C346.4,122.5,346.5,122.9,346.6,123.2z M342.9,122.2c-0.1-0.1-0.1,0-0.2-0.1
		c-0.3,1.2-0.7,2.4-1,3.6c0.1,0.1,0.1,0.1,0.2,0.1c0.6-1.1,1.1-2.2,1.7-3.3c-0.1-0.1-0.1-0.1-0.2-0.1c-0.3,0.4-0.5,1-0.8,1.4l0,0
		C342.6,123.3,342.7,122.7,342.9,122.2z M345.5,114.7c0.1,0.1,0.1,0.1,0.2,0.1c0.2-0.6,0.5-1,0.7-1.6l0,0c-0.1,0.6-0.3,1.1-0.4,1.6
		c0.1,0.1,0.1,0,0.2,0.1c0.3-1.2,0.7-2.4,1-3.6c-0.1-0.1-0.1-0.1-0.2-0.1C346.6,112.6,346,113.6,345.5,114.7z M342.3,113.8
		L342.3,113.8c0.3,0.3,0.5,0.7,0.7,1c0.1-0.1,0.1-0.1,0.2-0.1c-0.6-1.1-1.1-2.1-1.8-3.2c-0.1,0.1-0.1,0.1-0.2,0.1
		c0.4,1.2,0.8,2.3,1.2,3.5c0.1-0.1,0.1,0,0.2-0.1C342.6,114.6,342.5,114.2,342.3,113.8z M348.1,117.2c0.1,0.1,0.1,0.1,0.1,0.2
		c1.1-0.6,2.2-1.2,3.2-1.8c-0.1-0.1-0.1-0.1-0.1-0.2c-1.2,0.4-2.3,0.8-3.5,1.2c0.1,0.1,0,0.1,0.1,0.2c0.4-0.2,0.7-0.2,1.2-0.4
		l0.1,0.1C348.8,116.7,348.5,116.9,348.1,117.2z M337.4,115.7c-0.1,0.1,0,0.1-0.1,0.2c1.1,0.6,2.1,1,3.2,1.6
		c0.1-0.1,0.1-0.1,0.1-0.2c-0.4-0.3-0.8-0.4-1.3-0.6l0.1-0.1c0.4,0.1,0.9,0.3,1.3,0.4c0.1-0.1,0-0.1,0.1-0.2
		C339.7,116.4,338.6,116.1,337.4,115.7z M348.4,119.7c-0.1,0.1-0.1,0.1-0.1,0.2c0.4,0.3,0.9,0.4,1.3,0.6l-0.1,0.1
		c-0.4-0.1-1-0.2-1.4-0.3c-0.1,0.1,0,0.1-0.1,0.2c1.1,0.4,2.3,0.6,3.4,1c0.1-0.1,0.1-0.1,0.1-0.2
		C350.5,120.7,349.4,120.2,348.4,119.7z"/>
	<path class="st5" d="M345.6,118.8c-0.1-0.1-0.2-0.3-0.2-0.4c0.3-0.2,0.3-0.2,0.6,0.1c0.2,0.3,0.5,0.6,1,0.2
		c0.1-0.1,0.2,0.1,0.3,0.1l0.1,0.2c-0.1,0.1-0.3,0.2-0.3,0.2C346.5,119.1,346.1,119,345.6,118.8z"/>
	<path class="st5" d="M344,117.6c-0.5,0.4-0.5,0.4-1,0.1c-0.1-0.1-0.5-0.2-0.6-0.3c-0.1-0.1-0.2-0.2-0.2-0.3l0.1-0.1
		c0.1,0.1,0.1,0.2,0.2,0.2c0.2,0.2,0.4,0.3,0.7,0.4C343.5,117.6,343.7,117.6,344,117.6z"/>
	<path class="st5" d="M343.9,116c0.1-0.1,0.2-0.2,0.3-0.3c0,0.1,0,0.3,0.1,0.3c0.2-0.1,0.4-0.2,0.5-0.2c0,0.1,0,0.3,0,0.4
		C344.5,116.2,344.2,116.1,343.9,116z"/>
	<path class="st5" d="M344.3,117.6c-0.2-0.3-0.4-0.6-0.5-0.9c0.1-0.1,0.1-0.1,0.2-0.1c0.2,0.3,0.2,0.6,0.5,0.9
		C344.4,117.5,344.4,117.5,344.3,117.6z"/>
	<path class="st5" d="M341.6,118.6c-0.3,0-0.4,0-0.7,0c0.1-0.1,0.2-0.2,0.4-0.3C341.4,118.4,341.5,118.5,341.6,118.6z"/>
	<path class="st5" d="M345.4,117.8c0.3-0.2,0.5-0.2,0.8-0.3c0.1,0.1,0,0.1,0.1,0.2c-0.3,0.2-0.5,0.2-0.8,0.3
		C345.4,117.8,345.4,117.8,345.4,117.8z"/>
	<path class="st5" d="M343,120.2c0.5,0.2,0.9,0.3,1.3,0.6C343.8,120.6,343.5,120.4,343,120.2z"/>
	<path class="st5" d="M346.7,117.1c-0.2-0.1-0.4-0.2-0.5-0.2l0,0c0.1,0,0.3-0.2,0.4-0.2C346.6,116.8,346.6,116.9,346.7,117.1z"/>
	<path class="st5" d="M345.9,116.8c0-0.1,0.1-0.3,0.1-0.4c0.1,0.1,0.1,0.1,0.2,0.1c0,0.1-0.1,0.3-0.1,0.4
		C345.9,116.8,345.9,116.8,345.9,116.8z"/>
	<path class="st5" d="M343.9,119.5c-0.1-0.1-0.2-0.2-0.3-0.3l0.1-0.1c0.1,0.1,0.2,0.1,0.4,0.2C344,119.4,343.9,119.5,343.9,119.5z"
		/>
	<path class="st5" d="M344.7,119.7c-0.1,0-0.3,0-0.4,0l0-0.1C344.4,119.5,344.6,119.5,344.7,119.7
		C344.6,119.6,344.7,119.7,344.7,119.7z"/>
</g>
</svg>
