<?xml version="1.0" encoding="utf-8"?>
<!-- Generator: Adobe Illustrator 26.0.3, SVG Export Plug-In . SVG Version: 6.00 Build 0)  -->
<svg version="1.1" id="Calque_9" xmlns="http://www.w3.org/2000/svg" xmlns:xlink="http://www.w3.org/1999/xlink" x="0px" y="0px"
	 viewBox="0 0 388 323.3" style="enable-background:new 0 0 388 323.3;" xml:space="preserve">
<style type="text/css">
	.st0{fill:#CEB7A5;}
	.st1{fill:#401D26;}
	.st2{fill:#E0B9A0;}
	.st3{fill:#CCAA97;}
	.st4{fill:#ED9170;}
	.st5{fill:#D3D3D3;}
	.st6{fill:#95C1BE;}
	.st7{fill:#87AAA7;}
	.st8{fill:#89777A;}
	.st9{fill:#E8E8E8;}
	.st10{fill:#607F7B;}
	.st11{fill:#888215;}
	.st12{fill:#9E9520;}
</style>
<rect x="198.1" y="48.1" class="st0" width="61.1" height="17.6"/>
<path class="st1" d="M290.3,72.9c-5.4,4.8-12,8.4-18.9,10.6c-23.2,7-46.6-3.7-64.4-25.3l1-28l0.8-22l19.9-0.9h2.4l19.9,0.9l0.8,22
	l1.1,30.2C258.3,68.4,275.3,69.4,290.3,72.9z"/>
<path class="st2" d="M325.6,122c-4.4,13.7-32.2-9.3-42.4-0.7c-11.9,10.1,7.2,48.3,5.4,58.5c-1.1,6.8-10.8,24.2-14.9,23.2
	c-11.8-2.7-18.4-22.8-29.1-28.5c-6.2-3.4-8.9-6.6-14.9-2.7c-6-3.9-8.7-0.7-14.9,2.7c-10.7,5.9-17.2,25.8-29.1,28.5
	c-4.2,1-13.8-16.4-14.9-23.2c-1.6-10.1,2.7-29.9-9.1-40.2c-10-8.6-23.3-4-27.8-17.7c-7.6-24,14.7-41.9,25.5-46.1
	c16.6-6.4,40.4-5.6,47.4-15.5l0.1-2.2l1-28l0.8-22l19.9-0.9h2.4l19.9,0.9l0.8,22l1.1,30.2c5.7,8.1,22.5,9,37.6,12.5
	c3.4,0.8,6.6,1.7,9.8,2.9C310.9,80.1,333.3,98,325.6,122z"/>
<path class="st3" d="M207,60.4c0,0,35.2,12.7,45.4-11.4l-1.4-40.7h-42.4L207,60.4z"/>
<path class="st2" d="M191.1,99.2c-4.7,23.4-19.6,26.9-28.2,33.6c-13.7,10.8-31.9,41.6-43.2,54.7c-5.3,6.2-20.1,18.5-29.5,10
	l-4.1-2.7c-11.5-11.5,1-23.3,5.6-29.7c9.4-13.1,30.8-37.6,38-52c5.3-10.8,8.3-22.5,25.2-32.4c0,0,16.7-11,28.6-3.3
	C190.8,82.4,193,89.6,191.1,99.2L191.1,99.2z"/>
<path class="st2" d="M109.5,195.7c10.8-14.8,2.4-19.3-0.9-25.3c-3.5-6.5-50.7-61.1-63.2-76.1c-7.1-8.5-10.6-13.3-16-9.6
	c-5,3.4-0.7,13.8,1,18c3.6,9.1,48.1,82.5,52.3,89C91.4,205.2,106.3,200.1,109.5,195.7z"/>
<path class="st2" d="M273.4,100.9c4.7,23.4,19.6,26.9,28.2,33.6c13.7,10.7,31.9,41.6,43.2,54.7c5.3,6.2,20.1,18.5,29.5,10l0,0
	c11.7-11.5,3.3-26-1.4-32.4c-9.4-13.1-30.8-37.6-38-52c-5.3-10.8-8.3-22.5-25.2-32.4c0,0-16.7-11.1-28.6-3.3
	C273.6,84.1,271.5,91.2,273.4,100.9L273.4,100.9z"/>
<path class="st2" d="M375.2,188.3c-4.2-15.8-16.6-12.8-23.3-12c-7.3,1-74.9,26.2-93.4,32.6c-10.5,3.6-16.1,5.2-14.6,11.7
	c1.4,5.8,12.7,5.4,17.2,5.3c41.9-0.9,73.6-3.7,101.7-17.9C381.2,198.8,376.3,192.3,375.2,188.3z"/>
<path class="st4" d="M215,209.2c-8.3,4.5-20.8,10.1-20.8,10.1s6.4,5,9,5.3c2.2,0.2,11.4-4.4,11.4-4.4l16.4,2.8
	c-3.5,4.9-11.8,7.4-16.3,13c-3.5,4.2-14.5,10.9-19.7,13.1c-2.8,1.2-9.8,1-12.2,2.8c-1.7,1.3-3.2,7.7-3.2,7.7l16.4-1
	c0,0,22.4-7.8,29.6-11.2c7.6-3.5,22.2-12.3,28.1-18.1c1.9-1.9,5.4-5.6,4.2-11c-1.1-4.7-5.9-6.3-9-7.3C244,209.8,215.3,209,215,209.2
	z"/>
<path class="st5" d="M145,164.4c-3.7,2.3-13.2-0.4-16.2-3.5c-10.8-10.7-22.8-24.3-19.7-26.2c3.4-2.3,14.7-47.9,29.2-57.6
	c1.3-1.6,3-2.7,5.1-3.2l41.7-9.7c3.8-0.9,7.8,0.8,9.9,4l23,35.8c2.8,4.4,1.4,10.2-2.9,13.1L145,164.4z"/>
<path class="st5" d="M190.3,69.8c-0.3-0.4,3.6-4.7,3.8-5.1c0.2-0.4,25.7,13.6,26.4,14.3c0.7,0.7,7.8,5.8,7.8,5.8
	s20.5-13.2,21.1-13.2c0.7,0,11.9,1.6,10.3,2.2c-1.5,0.5-15.5,214.8-15.5,214.8s-55.7-3.7-56-3.2C170.8,321.7,190.3,69.8,190.3,69.8z
	"/>
<path class="st5" d="M305.8,159.1c3.6,2.1,8.2,1.4,11.2-1.4c10.7-10.6,34.1-34.4,30.9-36.6c-3.4-2.3-27.5-33.5-35.5-43.2
	c-1.3-1.6-7.7-6.9-9.8-7.4l-41.5-9.8c-3.9-0.9-7.9,0.9-10.1,4.4l-23.4,38.7c-2.6,4.5-1.1,10.2,3.4,12.8L305.8,159.1z"/>
<path class="st6" d="M266.7,64.8l-51.5,67.5c-0.5,0.8-0.9,1.5-0.9,2.5c-0.8,13.6-7,126.1-4.6,133.1c1.7,5.2,24.7,29.7,37.9,43.4
	c5.9,5.9,14.3,8.2,22,6.1c0.1,0,0.2-0.1,0.4-0.1l37.1-13.1c1.9-0.7,3-2.5,2.9-4.4c-1.4-21.6-9.3-139.9-9.3-144.1
	c0-4-6.2-69.1-7.7-84.4c-0.2-2-1.5-3.5-3.4-3.9l-18.6-4.2C269.6,62.9,267.8,63.5,266.7,64.8z"/>
<path class="st7" d="M251.4,239.8h36c2.7,0,5,2.3,5,5v2c0,2.7-2.3,5-5,5h-36c-2.7,0-5-2.3-5-5v-2
	C246.4,242.1,248.7,239.8,251.4,239.8z"/>
<path class="st8" d="M219.4,84.3c0.4,0,9,6,9,6l9.8-7.4l-3.7-13.4l-5.6,1.1c0,0-6.6-2.3-7.5-1.1C220.7,70.6,219.4,84.3,219.4,84.3z"
	/>
<path class="st9" d="M190.8,63.2l5.3-13.5c0.7-1.6,2.7-2.2,4-1.1l27,20.8c1,0.8,1.3,2.1,0.8,3.3l-8.5,18c-0.8,1.6-3,2.1-4.4,0.7
	L191.3,66C190.7,65.3,190.5,64.2,190.8,63.2z"/>
<path class="st9" d="M267.3,63.2l-5.6-13.5c-0.7-1.6-2.7-2.2-4-1.1l-27,20.7c-1,0.8-1.3,2.1-0.8,3.3l8.5,18c0.8,1.6,3,2.1,4.4,0.7
	l24.1-25.3C267.4,65.3,267.6,64.2,267.3,63.2z"/>
<ellipse class="st10" cx="223.1" cy="149" rx="3.7" ry="3.5"/>
<ellipse class="st7" cx="221.7" cy="185.5" rx="3.7" ry="3.5"/>
<ellipse class="st7" cx="220.2" cy="220.9" rx="3.7" ry="3.5"/>
<path class="st2" d="M42.9,88.8c-1.1-3.2-1.7-6.6-1.6-10.1l0.4-10.9c0-0.2,0-0.4-0.1-0.6l-7.7-15.5c-0.4-0.9-1.7-1-2.3-0.2
	c-0.8,0.9-1.4,2-1.5,2.6c-0.9,3.8,2.6,9.9,3.6,13.5c0.2,0.4-1.2,2.1-1.7,2.4c-1.1,0.7-4.6,0.1-6.8-0.5c-1.4-0.3-2.7-1.2-3.5-2.5
	c-0.9-1.4-2.1-3.4-2.8-4.3c-0.2-0.4-0.3-0.9-0.1-1.3L27,50.1c0.6-1.3,0.6-2.7,0.4-3.6c-0.2-1.1-0.9-1.9-1.9-2.1
	c-1-0.2-2-0.3-2.3,0.2L10.3,61.9c-0.7,1.3-1.1,4.4-0.8,5.8l1.1,5c0.4,1.6,1,3,2.1,4.3L27.5,96l0,0.1l0.1,0l0.6,0.8l0,0
	c0.2-0.5,0.7-0.9,1.2-0.9l13.9-1.3c0.9-0.1,1.4-0.9,1.2-1.8L42.9,88.8z"/>
<g id="GcAfxX_00000158726393485427391440000013673085389559127732_">
	<g>
		<path class="st11" d="M25.7,29.9c0.4,0.4,0.8,1,1.3,1.4c0.2,0.1,0.3,0.2,0.7,0.5c-0.3-0.6-0.4-0.7-0.5-0.9c-0.5-1.2-1-2.3-1.6-3.3
			c0.1,0,0.2,0,0.3-0.1c0.6,1,1.2,2,1.9,3.1c0.2,0.7,0.4,1.6,0.7,2.4c0.3,1,0.6,1.8,0.9,2.7c0.2,0.4,0.2,0.7,0.3,1.2
			c0.1,0.5,0.3,1,0.5,1.7c0.1-1.2,0.1-2.2,0.3-3.2c0.1,0.2,0.3,0.3,0.7,0.9c1.3-4.1,2.4-7.8,3.5-11.4c0.3-0.3,0.7-0.7,1.2-1.3
			c0.1,1.3,0.2,2.2,0.2,3.1c-0.1,0.2-0.1,0.3-0.1,0.4c0,0.1,0.1,0.1,0,0.1c-0.5,1.2-1.1,2.3-1.7,3.5c0,0.1,0.2,0.1,0.2,0.1
			c-0.4,0.8-0.8,1.7-1.3,2.9c-0.1,0.6-0.1,1.7-0.3,2.8c-0.8,1.1-1.7,2.2-2.1,3c0,3.8,0.1,7.2,0.1,10.6c-0.1,0,0.1,0.1,0.2,0.1
			c0,0,0.1,0,0.1-0.1c2.5-3.3,5-6.6,7.4-9.9c0.2-0.1,0.5-0.3,1.1-0.6c-0.4,1.5-0.7,2.4-1,3.4c-0.3,0.1-0.8,0.2-1.2,0.3
			c-0.1,0.5-0.1,0.9-0.1,0.8c-1.6,2.2-3.9,3.6-4.3,6.2c-5.4,3.5-3.5,11.8-10.3,15.3c3.9-5.1,6.2-9.8,7-15.4
			c-0.4-0.3-0.8-0.6-1.3-0.9c-0.2-0.1-0.3-0.2-0.4-0.3l0-0.1c-2.7-4.2-5.8-7.9-9.5-11.3c-0.1-0.5-0.2-1.1-0.4-2
			c1,0.4,1.7,0.9,2.4,1.2c0.1,0.1,0.2,0.1,0.2,0.2c0.1,0.1,0.2,0.1,0.4,0.2c2.6,3.2,5.1,6.5,7.7,9.7c0.3,0.8,0.6,1.6,1.3,3.3
			c-0.2-3.2-0.2-5.3-0.3-7.5c-0.1-1.1-0.2-2.1-0.3-3.3l0-0.1c0.1-0.1,0.1-0.1,0-0.2c-0.3-1.1-0.6-2.2-0.9-3.2
			c-0.4-1.3-0.9-2.6-1.3-3.8c-0.9-0.1-1.7-0.3-2.4-0.5c-0.2,0-0.3-0.1-0.4-0.1l-0.1,0c-2.9-3.1-7-4-10.8-5.7
			c-0.2-0.3-0.4-0.5-0.9-1.2c1.7,0.2,3.1,0.3,4.4,0.5C19.5,27.9,22.6,29,25.7,29.9z"/>
		<path class="st12" d="M30.2,26.5c1.4-0.6,1.8,0.8,2.3,1.6c0.9-1.1,1.7-2.1,2.4-3.2c-1.1,3.6-2.2,7.2-3.5,11.4
			c-0.5-0.5-0.6-0.8-0.7-0.9c0.1-0.7,0.1-1.5,0.2-2.4c-0.7,0-1.6,0-2.3,0c-0.2-0.7-0.4-1.6-0.7-2.4C28,28.9,28.6,27.2,30.2,26.5z"/>
		<path class="st11" d="M25.1,26.5c-0.1-0.1-0.2-0.3-0.3-0.5c-0.1,0.2-0.2,0.2-0.3,0.3c-0.2-0.9-0.4-1.7-0.6-2.5
			c0.1,0.2,0.3,0.5,0.4,0.7c0.1,0.1,0.2,0.1,0.3,0.2c0.1,0.1,0.1,0.2-1-1.3c1.3,1.3,1.2,1.3,1.2,1.2c0,0,0-0.1-0.1-0.1
			c-0.2-0.6-0.3-1.2-0.5-1.8c-0.2-3.7-0.4-7.5-0.5-11.2c0.2-0.5,0.3-1.1,0.6-1.8c3.4,5.2,3.1,10.4,1.4,15.7
			C25.4,25.8,25.3,26.3,25.1,26.5z"/>
		<path class="st12" d="M28.3,44.7c0,0.1,0.1,0.4,0.2,0.7c0.1,0.2,0.1,0.3,0.2,0.5c0.2,0.4,0.3,0.8,0.5,1.2
			c-2.6-3.2-5.1-6.5-7.7-9.7c0.9,0.6,1.9,1.2,2.9,1.8c0.8-1.5,1.9-1.1,3.1-0.7c0.8,0.4,1.7,0.7,2.5,1.1c0.1,1.1,0.2,2.1,0.3,3.3
			C29.7,43.4,29.1,43.9,28.3,44.7z"/>
		<path class="st12" d="M23.7,28c0.6,0.6,1.4,1.3,2,1.9c-3.2-0.9-6.2-2.1-8.4-4.6c0.5,0.1,1.1,0.1,1.6,0.2c-1.2-4.8,1.9-2.9,3.9-2.6
			c0.1-0.1,0.2,0,0.3-0.1c0.2,0.4,0.5,0.9,0.7,1.2c0.2,0.9,0.4,1.7,0.6,2.5C24.2,27,24,27.5,23.7,28z"/>
		<path class="st11" d="M21.7,20.7c0.3,0.2,0.4,0.5,0.7,0.8c-0.1,0.1-0.1,0.2-0.2,0.3c-0.6-0.1-1.4-0.2-2.1-0.4
			c-0.1,0-0.3-0.1-0.4-0.1c-0.6-0.1-1.3-0.3-1.9-0.5c-2.3-2.9-5.6-4.1-9-5.5c-0.2-0.4-0.6-0.8-1.1-1.5c1.2,0.1,2,0.2,3,0.4
			c2.6,2,5.2,3.6,8.4,4.2c0.5,0.4,1.1,0.8,1.5,1.2C21.1,20.1,21.5,20.4,21.7,20.7z"/>
		<path class="st12" d="M19.1,37.6c3.7,3.3,6.8,7,9.5,11.3C24.2,46.1,20.4,42.9,19.1,37.6z"/>
		<path class="st11" d="M7.8,6.7L7.8,6.7C7.7,6.6,7.6,6.4,7.5,6.3C7.4,5.9,7.2,5.6,7,4.9c0.5,0.2,0.8,0.3,1.2,0.4
			c2.9,2.7,5.9,5.4,8.8,8.1c0.5,0.9,0.9,1.8,1.6,3.2c-1-0.7-1.6-0.9-2.1-1.2C14,12.1,11.2,9,7.8,6.7z"/>
		<path class="st12" d="M14,25.9c3.6,1.9,7.8,2.7,10.8,5.7C20.5,31,16.7,29.5,14,25.9z"/>
		<path class="st12" d="M7.7,6.7c3.5,2.3,6.2,5.4,8.8,8.7C12.7,13.4,9.3,11,7.7,6.7z"/>
		<path class="st12" d="M39,40c-2.5,3.3-5,6.6-7.4,9.9C32.8,45.7,34.8,42,39,40z"/>
		<path class="st12" d="M9,15.4c3.2,1.3,6.7,2.5,9,5.5C14.3,20.1,11.2,18.4,9,15.4z"/>
		<path class="st12" d="M17.1,13.5c-2.9-2.7-5.9-5.4-8.8-8.1C12.4,6.7,15.1,9.6,17.1,13.5z"/>
		<path class="st12" d="M23.5,11.6c0.2,3.7,0.4,7.5,0.5,11.2C22.8,19.1,22.1,15.4,23.5,11.6z"/>
		<path class="st12" d="M33.5,50.1c0.4-2.7,2.5-4.1,4.3-6.2c-0.1,0.1,0.1-0.3,0.1-0.8c0.3-0.1,0.8-0.2,1.2-0.3
			C38.2,45.9,36.2,48.3,33.5,50.1z"/>
		<path class="st12" d="M33.2,36.5c0.1-1.1,0.2-2,0.3-2.8c0.6-1.2,0.9-2,1.3-2.9c0-0.1-0.2-0.1-0.2-0.1c0.5-1.2,1.1-2.3,1.7-3.5
			C36.5,30.7,35.3,33.6,33.2,36.5z"/>
		<path class="st12" d="M19.2,18.5c-3.2-0.7-5.8-2.3-8.4-4.2C14.1,14.7,16.8,16.2,19.2,18.5z"/>
		<path class="st12" d="M19.9,18.5c0.1,0,0.2-0.1,0.2-0.1c0.5,0.8,1.1,1.6,1.6,2.4c-0.4-0.4-0.8-0.8-1.2-1.1
			C20.4,19.3,20.1,18.9,19.9,18.5z"/>
		<path class="st12" d="M26.1,27.6c-0.1,0-0.2,0-0.3,0.1c-0.2-0.4-0.5-0.9-0.7-1.2c0.1-0.3,0.2-0.7,0.4-1.1
			C25.7,26.2,26,26.9,26.1,27.6z"/>
		<path class="st12" d="M29.2,36.1c0.3,1.1,0.6,2.2,0.9,3.2C29.7,38.2,29.4,37.2,29.2,36.1z"/>
		<path class="st11" d="M22.2,21.8c0.1-0.1,0.1-0.2,0.2-0.3c0.2,0.4,0.5,0.8,0.8,1.3c-0.1,0.1-0.2,0-0.3,0.1
			C22.6,22.6,22.4,22.2,22.2,21.8z"/>
		<path class="st12" d="M19.8,18C19.1,17.4,18.9,17.3,19.8,18C19.1,17.1,19.2,17.3,19.8,18z"/>
		<path class="st12" d="M24.8,31.6c0.2,0,0.3,0.1,0.4,0.1C25.1,31.8,25,31.8,24.8,31.6z"/>
		<path class="st12" d="M7.5,6.3c0.1,0.2,0.2,0.3,0.3,0.5C7.7,6.6,7.6,6.4,7.5,6.3z"/>
		<path class="st12" d="M28.6,49c0.2,0.1,0.3,0.2,0.4,0.3C28.9,49.2,28.7,49,28.6,49z"/>
		<path class="st12" d="M36.4,27.1c0.1-0.2,0.1-0.3,0.1-0.4C36.4,26.9,36.5,27,36.4,27.1z"/>
		<path class="st12" d="M21.2,37c-0.1-0.1-0.2-0.1-0.2-0.2C21.1,36.9,21.2,37,21.2,37z"/>
		<path class="st12" d="M24.6,24.7c0,0.1,0,0.1,0.1,0.1L24.6,25c-0.1-0.1-0.2-0.1-0.3-0.2C24.5,24.7,24.5,24.6,24.6,24.7z"/>
		<path class="st12" d="M19.8,21.3c0.1,0,0.3,0.1,0.4,0.1C20,21.4,19.9,21.3,19.8,21.3z"/>
		<path class="st12" d="M18.5,16.5c0.1,0.1,0.1,0.2,0.1,0.2l-0.1,0C18.5,16.7,18.6,16.6,18.5,16.5L18.5,16.5z"/>
		<path class="st12" d="M29.6,35.9c0.2,0.4,0.2,0.7,0.3,1.2C29.9,36.7,29.8,36.2,29.6,35.9z"/>
		<path class="st12" d="M27.8,32c-0.5-0.3-0.7-0.5-0.7-0.5c0.1-0.1,0.2-0.2,0.3-0.3C27.5,31.3,27.6,31.4,27.8,32z"/>
		<path class="st12" d="M24.7,24.9c0,0.1,0.2,0.1-1.2-1.2C24.7,25.1,24.7,25,24.7,24.9C24.6,24.9,24.7,24.7,24.7,24.9z"/>
		<path class="st11" d="M28.6,45.4c0.1,0.2,0.1,0.3,0.2,0.5C28.7,45.7,28.7,45.6,28.6,45.4z"/>
	</g>
</g>
<path class="st9" d="M152.7,172L152.7,172c-2.9,3.5-7.9,4.2-11.5,1.6l-35.5-25.4c-4.1-2.9-4.9-8.7-1.6-12.5l0,0
	c2.8-3.5,7.8-4.1,11.5-1.5l35.6,25.3C155.2,162.4,156,168.2,152.7,172z"/>
<path class="st9" d="M306.3,172.9L306.3,172.9c4.1,3.4,10.5,3,14.3-0.7l36.4-35.5c4.2-4.1,3.9-10.8-0.7-14.5l0,0
	c-4.1-3.4-10.5-3-14.4,0.7l-36.4,35.5C301.4,162.4,301.7,169.2,306.3,172.9z"/>
<path class="st6" d="M183.5,65.9l36,47.1c1.2,1.6,1.2,3.9-0.1,5.4l-9.5,11.7c-0.5,0.8-0.9,1.5-0.9,2.5c-0.5,6.1-2.4,31.4-3.3,53.7
	c-0.2,4.9-3.6,75.2-1.7,79.3c3.8,8.3,10.1,15.8,13.4,19.3c1.2,1.3,1.5,3.3,0.8,4.9c-1.6,3.4-5.1,7.6-16.7,18.3
	c-7,6.4-14.9,12.1-24.4,9.6l-29.7-7.9c-2-0.5-3.4-2.4-3.3-4.4c5.1-143.8,5.1-143.4,5-148.4c0-4,6.2-69.1,7.7-84.4
	c0.2-1.9,1.5-3.5,3.4-3.9l18.8-4.4C180.7,63.9,182.5,64.6,183.5,65.9z"/>
<path class="st7" d="M166.8,241.8h29.3c2.7,0,5,2.3,5,5l0,0c0,2.7-2.3,5-5,5h-29.3c-2.7,0-5-2.3-5-5l0,0
	C161.8,244.1,164.1,241.8,166.8,241.8z"/>
</svg>
