<?xml version="1.0" encoding="utf-8"?>
<!-- Generator: Adobe Illustrator 26.0.3, SVG Export Plug-In . SVG Version: 6.00 Build 0)  -->
<svg version="1.1" id="Calque_9" xmlns="http://www.w3.org/2000/svg" xmlns:xlink="http://www.w3.org/1999/xlink" x="0px" y="0px"
	 viewBox="0 0 448 323.3" style="enable-background:new 0 0 448 323.3;" xml:space="preserve">
<style type="text/css">
	.st0{fill:#46656D;}
	.st1{fill:#E0B9A0;}
	.st2{fill:#CCAA97;}
	.st3{fill:#547A87;}
	.st4{fill:#648F9B;}
	.st5{fill:#2B2B2B;}
	.st6{fill:none;stroke:#ECF2F2;stroke-width:3;stroke-miterlimit:10.0003;}
	.st7{fill:none;stroke:#ECF2F2;stroke-width:2.9998;stroke-miterlimit:9.9997;}
	.st8{fill:none;stroke:#ECF2F2;stroke-width:5.4389;stroke-miterlimit:10;}
	.st9{fill:#ECF2F2;}
	.st10{fill:none;stroke:#BCBCBC;stroke-width:5;stroke-linecap:round;stroke-miterlimit:10;}
	.st11{fill:none;stroke:#2B2B2B;stroke-width:2;stroke-miterlimit:10;}
</style>
<polygon class="st0" points="279.2,134.9 223.4,134.9 223.4,106.4 280.3,106.4 "/>
<path class="st1" d="M250.9,221.5c-5.5-3.6-8-0.6-13.7,2.5c-9.8,5.4-15.8,23.7-26.7,26.2c-3.9,0.9-12.7-15.1-13.7-21.3
	c-1.5-9.3,2.5-27.5-8.4-36.9c-9.2-7.9-21.5-3.7-25.5-16.3c-7-22,13.5-38.5,23.4-42.4c15.2-5.9,37.1-5.1,43.5-14.2l0.9-27.7l0.7-20.2
	l18.3-0.8h2.2l18.3,0.8l0.7,20.2l0.9,27.7c6.4,9.1,28.4,8.4,43.5,14.2c10,3.8,30.4,20.4,23.4,42.4c-4,12.6-16.2,8.4-25.5,16.3
	c-10.9,9.3-6.9,27.5-8.4,36.9c-1,6.2-9.9,22.2-13.7,21.3c-10.8-2.5-16.9-20.9-26.7-26.2C258.9,220.9,256.4,218,250.9,221.5"/>
<path class="st2" d="M230.1,117.3c0,0,31.9,15.4,41.3-6.8l-0.5-39.1h-40.8V117.3z"/>
<path class="st1" d="M206.7,155.7c-4.3,21.5-18,24.7-25.9,30.9c-12.6,9.9-29.3,38.2-39.7,50.2c-4.9,5.7-18.5,17-27.1,9.2l0,0
	c-10.6-10.6-2.9-23.9,1.3-29.8c8.6-12,28.3-34.5,34.9-47.8c4.9-9.9,7.6-20.7,23.1-29.8c0,0,15.3-10.1,26.3-3
	C206.6,140.2,208.5,146.8,206.7,155.7z"/>
<path class="st1" d="M293,153c0.7,22,13.6,27.3,20.5,34.7c10.8,11.8,22.6,42.5,30.9,56.1c3.9,6.4,15.4,19.8,25.2,13.5l0,0
	c12.2-8.6,6.8-23.1,3.6-29.6c-6.5-13.3-22.3-38.7-26.5-52.9c-3.2-10.6-4.1-21.7-17.9-33.2c0,0-13.4-12.5-25.4-7.3
	C295.6,137.7,292.7,143.9,293,153L293,153z"/>
<path class="st3" d="M323.8,135.8l-42-12.4c-0.2-0.1-0.4,0-0.6,0.1l-29.6,25.2c-0.2,0.2-0.6,0.2-0.8,0L217,124.4
	c-0.2-0.1-0.4-0.2-0.6-0.1l-43.3,12.1c-3.3,0.9-5.2,4.4-4.3,7.7l21.2,74.4c1.8,6.5,2.5,13.2,2,19.9l-2.9,39.4c0,0.1,0,0.2,0.1,0.3
	l5.1,12h0.1l-1.9,16.3v0.1l0,0c0,3.9,3.2,7.1,7.1,7.1h101c0.5,0,1.1-0.1,1.6-0.2c3.3-0.9,5.3-4.3,4.4-7.7l-4.2-15.5h-0.1l6.5-11.6
	c0.1-0.1,0.1-0.3,0.1-0.5l-3.2-16c-2.6-13-2.2-26.5,1.1-39.4l9.1-35.4l0,0l13.3-41.2C330.6,141.8,328.2,137.1,323.8,135.8z"/>
<path class="st0" d="M243.1,143.4c0.3,0,8.1,5.8,8.1,5.8l8.9-7.2l-3.3-13.1l-5,1.1c0,0-6-2.2-6.8-1.1S243.1,143.4,243.1,143.4z"/>
<polygon class="st4" points="216.7,124.3 223.4,106.4 251.8,130 241.8,152.8 "/>
<polygon class="st4" points="287,124.3 280.3,106.4 251.8,130 261.9,152.8 "/>
<path class="st1" d="M368.4,230.9c13.4,6.9,9.9,18.8,7.7,24.7c-2.3,6.4-37.9,61.9-46.9,77.4c-5.1,8.8-7.6,13.6-13.1,11.1
	c-5-2.3-4.9-7.2-1.8-16.5c15.8-47.3,15.8-55.5,31.8-88.2C352.9,225.6,365,229.2,368.4,230.9z"/>
<path class="st1" d="M123.9,244.8c15.5-1.2,14.9-13.2,15.2-19.7c0.3-7-11.5-74.3-14.1-92.7c-1.5-10.3-2.1-15.9-8.4-15.6
	c-5.7,0.3-7.8,10.9-7.9,15.2c-1.5,45.8-1.5,56.8-0.9,97.8C107.9,249.3,119.8,245.1,123.9,244.8z"/>
<path class="st1" d="M282,341.2c0,0-1.5-3.9-0.7-4.6s15.4-7.7,16.2-7.5s15.8,0.2,16.9,0s11.4,8.3,10.9,9s-11.2,23.1-12.8,23.5
	c-1.6,0.4-7.4,3.9-8.2,3.7c-0.8-0.2-18.4-13.1-18.4-13.1l2-8L282,341.2z"/>
<path class="st5" d="M310.5,386.8c0,0,16-4.6,14.4-15.3l-11.5-87.7c0,0-4.3-17-12.2-35.6c-6.1-14.4-7.2-59.4-7.4-79
	c-0.1-5.1-4.2-9.3-9.4-9.3h-75.3c-5,0-9.2,4-9.4,9c-0.8,19.8-0.9,65.9-4,75.1c-3.9,11.8-8.5,35.7-11.4,45.8c-2.5,6.9-8.1,52-11,76.9
	c-1.1,9.6,4.5,18.7,13.6,22l0,0C229.3,403.9,266.6,396.8,310.5,386.8z"/>
<g>
	<path class="st5" d="M216.4,124.4c-3.9,8.6-5.6,17-5.9,25.1c-0.1,3.2-0.4,6.6-0.9,9.9c-0.2,1.6-0.4,3.3-0.7,5l-0.4,0.1
		c-2.6-6-2.5-12.6-0.7-19.5c1.2-5.1,2.8-10.2,5.3-15.4c0.8-1.7,1.8-3.5,2.9-5.2H216.4L216.4,124.4z"/>
</g>
<g>
	<path class="st5" d="M287.7,125.1c3,7.7,3.9,14.7,4,21.4c0.3,6.7-0.9,12.9-5,17.5l-0.4-0.2c-0.1-1.7,0.2-3.2,0.4-4.8
		c0.3-3.1,0.7-6.3,1.3-9.2c1-4.4,1.2-9.2,0.9-14.3c-0.2-3.3-0.7-6.8-1.6-10.5L287.7,125.1L287.7,125.1z"/>
</g>
<g>
	
		<ellipse transform="matrix(0.9939 -0.1104 0.1104 0.9939 -25.079 27.3186)" class="st6" cx="234.2" cy="240.1" rx="6.6" ry="11.1"/>
	
		<ellipse transform="matrix(0.5527 -0.8334 0.8334 0.5527 -115.8618 291.041)" class="st7" cx="213.2" cy="253.5" rx="6.6" ry="11.1"/>
	<polyline class="st8" points="235.3,250.6 238.5,269.3 222.2,259.2 	"/>
	<g>
		<path class="st9" d="M234.3,264.9c11.6,7.1,22.3,22.4,24.8,35.7C247.5,293.5,236.9,278.2,234.3,264.9L234.3,264.9z"/>
	</g>
	<g>
		<path class="st9" d="M236,263.7c11.6,7.1,22.3,22.4,24.8,35.7C249.2,292.4,238.6,277.1,236,263.7L236,263.7z"/>
	</g>
</g>
<path class="st3" d="M288,308.9l-17.1,1.3c-15.6,1.2-31.3,1.2-47-0.1l-15.6-1.3c-3.2-0.6-5.6-3.8-5.6-7.6v-28.4
	c0-4.7,3.6-8.3,7.6-7.6c0,0,6.8,0.5,14.5,1.1c14.6,1.1,29.3,1.1,43.9,0.1l17.4-1.3c4-0.7,7.5,2.9,7.5,7.6v28.6
	C293.6,305.1,291.2,308.3,288,308.9z"/>
<path class="st1" d="M120,118.2c0.5-0.3,0.9-0.7,1.2-1.2c1.4-2.6,5.9-10.5,6-12.2c0.1-2.1-0.4-10.8,0-12.4c0.4-1.5,5-10,4-10.3
	c-0.6-0.2-2.2-0.6-3.4-0.9c-1.2-0.3-2.5,0.1-3.2,1.2l-3.2,4.3c-0.2,0.4-0.4,0.8-0.5,1.2l-0.6,3.7c-0.3,1.7-2.5,2-3.2,0.4l-4.4-9.2
	c-0.1-0.1-0.1-0.3-0.1-0.4c-0.7-2.3-6.4,0.6-6.4,0.6c-0.1-0.1-3.9,2.2-5.3,3c-0.4,0.2-0.7,0.4-0.9,0.7l-2.9,2.1
	c-2.6,1.8-4.4,4.3-5.4,7.3c-0.4,1.3-0.5,2.6,0.1,3.2c0.1,0.1,0.3,0.4,0.4,0.6l10.8,20.5c0.3,0.6,0.9,1,1.4,1.3l3.3,1.4
	c0.8,0.3,1.8,0.3,2.5-0.1L120,118.2z"/>
<path class="st1" d="M103.5,119.3c0,0,2.6,2.6,3.3,4.1s1.7,7.5,1.7,7.5l15.3-6.5c0,0-1.9-5.9-1.7-7.5c0.2-1.7,2.3-6.2,2.3-6.2
	l-8-3.7L103.5,119.3z"/>
<path class="st3" d="M105,108.9l4.1,1.4c3.3,1.2,6.9-0.2,8.4-3.2l20.6-47.6c1.3-3-0.2-6.4-3.5-7.6l-4.1-1.4
	c-3.3-1.2-6.9,0.2-8.4,3.2l-20.6,47.6C100,104.3,101.7,107.7,105,108.9z"/>
<line class="st10" x1="110.9" y1="76.7" x2="107.8" y2="85"/>
<line class="st10" x1="116.8" y1="61.8" x2="113.7" y2="70.2"/>
<ellipse transform="matrix(0.3797 -0.9251 0.9251 0.3797 50.9525 148.0412)" class="st3" cx="135.9" cy="36" rx="25.5" ry="30.9"/>
<path class="st3" d="M121.9,51L81.6,28.7c-4.8-2-7.1-7.5-5.1-12.4l3.6-8.6c2-4.8,7.5-7.1,12.4-5.1l43.4,14L121.9,51z"/>
<path class="st3" d="M134.3,55.6l27.9,6.2c3,1.2,7-1.7,9-6.5l3.6-8.6c2-4.8,1.2-9.7-1.8-10.9l-24.2-14.2L134.3,55.6z"/>
<g>
	<polygon class="st5" points="108.5,108.8 94.8,138.2 104.7,107.3 	"/>
</g>
<path class="st11" d="M101.9,119.1c0,0-13.6,38.6-17.3,50.8c-18.6,60.9,12.8,81.3-1.1,119.3C78.2,303.6,64.1,324,67,340.3
	c2.9,16.2,18.4,31.3,35.7,15.1c36-33.4,108.9-3.4,108.9-3.4"/>
<path class="st1" d="M119.4,98.7l-16.7,8.7c-2.9,1.5-6.5,0.4-8-2.6l-3.7-7c-1.5-2.9-0.4-6.5,2.6-8l16.7-8.7c2.9-1.5,6.5-0.4,8,2.6
	l3.7,7C123.4,93.5,122.2,97.1,119.4,98.7z"/>
</svg>
