<?xml version="1.0" encoding="utf-8"?>
<!-- Generator: Adobe Illustrator 26.0.3, SVG Export Plug-In . SVG Version: 6.00 Build 0)  -->
<svg version="1.1" id="Calque_9" xmlns="http://www.w3.org/2000/svg" xmlns:xlink="http://www.w3.org/1999/xlink" x="0px" y="0px"
	 viewBox="0 0 572 323.3" style="enable-background:new 0 0 572 323.3;" xml:space="preserve">
<style type="text/css">
	.st0{fill:#74A1AF;}
	.st1{fill:#E0B9A0;}
	.st2{fill:#ED9170;}
	.st3{fill:#CCAA97;}
	.st4{fill:#C3DFED;}
	.st5{fill:#91B7C6;}
</style>
<polygon class="st0" points="260.3,21.1 317.7,20.8 318.9,41.8 260.9,41.8 "/>
<path class="st1" d="M248.4,59.2c-4.3,21.5-18,24.7-25.9,30.9c-12.6,9.9-29.3,38.2-39.7,50.2c-4.9,5.7-18.5,17-27.1,9.2l0,0
	c-10.6-10.6-3-23.9,1.3-29.8c8.6-12,28.3-34.5,34.9-47.8c4.9-9.9,7.6-20.7,23.1-29.8c0,0,15.3-10.1,26.3-3
	C248.2,43.8,250.2,50.4,248.4,59.2L248.4,59.2z"/>
<path class="st2" d="M325.8,59.2c4.3,21.5,18,24.7,25.9,30.9c12.6,9.9,29.3,38.2,39.7,50.2c4.9,5.7,18.5,17,27.1,9.2l0,0
	c10.7-10.6,3-23.9-1.3-29.8c-8.6-12-28.3-34.5-34.9-47.8c-4.9-9.9-7.6-20.7-23.1-29.8c0,0-15.3-10.1-26.3-3
	C325.9,43.8,324,50.4,325.8,59.2L325.8,59.2z"/>
<path class="st1" d="M401.2,135.3c3.4-14.7,14.8-12.4,21-11.7c6.8,0.7,69.6,21.6,86.8,26.9c9.7,3,15,4.3,13.7,10.2
	c-1.1,5.4-11.6,6-15.7,5.5c-44.1-5.1-54.6-6.7-93.9-13.1C394.5,150,400.3,139.1,401.2,135.3z"/>
<path class="st1" d="M174.8,135.2c-3.4-14.7-14.8-12.4-21-11.7c-6.8,0.7-69.6,21.6-86.8,26.9c-9.7,3-15,4.3-13.7,10.2
	c1.1,5.4,11.6,6,15.6,5.5c44.1-5.1,54.6-6.7,93.9-13.1C181.5,149.9,175.7,139,174.8,135.2z"/>
<path class="st1" d="M289,125.8c-5.5-3.6-8-0.6-13.7,2.5c-9.8,5.4-15.8,23.7-26.7,26.2c-3.9,0.9-12.7-15.1-13.7-21.3
	c-1.5-9.3,2.5-27.5-8.4-36.9C217.3,88.4,205,92.6,201,80c-7-22,13.5-38.5,23.4-42.4c15.2-5.9,37.1-5.1,43.5-14.2l0.9-27.7l0.7-20.2
	l18.3-0.8h2.2l18.3,0.8L309-4.3l0.9,27.7c6.4,9.1,28.4,8.4,43.5,14.2c10,3.9,30.4,20.4,23.4,42.4c-4,12.6-16.2,8.4-25.5,16.3
	c-10.9,9.3-6.9,27.5-8.4,36.9c-1,6.2-9.9,22.2-13.7,21.3c-10.8-2.5-16.9-20.9-26.7-26.2C297,125.1,294.5,122.2,289,125.8"/>
<path class="st3" d="M268.5,23.8c0,0,31.8,11.4,41.2-10.8l-1.3-37.4h-38.8L268.5,23.8z"/>
<path class="st4" d="M411.8,152.9l18.4-52c0.3-1.2-0.1-2.4-1-3.2l-54.5-50.3l0,0c-1.2-1.4-2.7-2.6-4.5-3.4l-41.7-19.6
	c-6.1-2.6-5.9,0.3-8.7,6.1c-0.1,0.3-0.3,0.5-0.5,0.8L302,50.9c-0.2,0.2-0.3,0.4-0.4,0.6c-4.6,8.7-17,8.9-22.1,0.6
	c-0.3-0.4-0.6-0.8-1-1.1l-19.3-13.4c-0.5-0.4-1-0.9-1.2-1.5c-2.4-5.9-0.5-14.4-6.3-11.8L206,44.6c-2.5,1.1-4.4,2.9-5.7,5l-0.1-0.2
	l-37.6,51.7c-1.8,2.5-2.6,5.7-2.2,8.8l5.5,39.1c1.4,10.2,14,14.1,20.9,6.5l20.4-22.3c2-2.2,5.6-0.9,5.8,2.1l1.9,31.6
	c0,1.3-0.2,2.5-0.5,3.7l0.9,13.9c-0.9,3.1-0.6,6.4,0.8,9.3c1,2,1.5,4.2,1.3,6.4c-0.2,3.8-0.6,9.9-0.9,14.3l-21.8,105.8
	c-0.4,5.7,3,11,8.4,12.8c0.1,0.1,0.3,0.1,0.5,0.1l19.6,5.3c25.9,5.6,68.7,5.7,94.7,0.3c16.6-3.4,53.1-7.1,62.6-9.3
	c5.9-1.4,10-6.9,9.7-13l-27.9-101.2c-0.3-6.4-0.9-12.4-3.6-17.3h-0.4l2.5-2.9c3.1-3.6,4-8.5,2.3-12.9c-2-5.3,0.5-12,0.5-14
	c0.1-13.4,0.2-28.6,0.3-40c0-2.6,2.9-4.2,5.1-2.8l36.5,31.6C407.2,158,411.2,155.1,411.8,152.9z"/>
<path class="st5" d="M311.5,342.2h-44.3c-6.6,0-12-5.4-12-12V43c0-6.6,5.4-12,12-12h44.3c6.6,0,12,5.4,12,12v287.2
	C323.5,336.8,318.1,342.2,311.5,342.2z"/>
<path class="st4" d="M316.6,21.6l-18.2,90.1c-0.7,3.5-1.1,7-1.1,10.6l-1.1,220.4c0,3,2.8,5.2,5.7,4.6l56.6-15.1L355,37l-36.4-16.2
	C317.7,20.3,316.8,20.7,316.6,21.6z"/>
<path class="st4" d="M261.4,21.6l18.2,90.1c0.7,3.5,1.1,7,1.1,10.6l1.1,220.4c0,3-2.8,5.2-5.7,4.6l-61.9-14.1L223.1,37l36.4-16.2
	C260.3,20.3,261.3,20.7,261.4,21.6z"/>
<path class="st1" d="M55.5,147.6l-9.7-1.9c-0.2,0-0.4-0.1-0.6-0.2l-14.9-0.7c-1.8-0.6-3.7,0.2-4.1,2c-0.1,0.3-0.2,0.7-0.1,1
	c0.2,1.4,1.3,2.5,2.7,2.6l10.1,1.2c1.9,1.2,2,4,0.1,5.3l-3.3,2.4c-0.6,0.3-1.2,0.6-1.8,0.6c0,0-5,0.6-7.4-3.9l0.6-4.1
	c0.8-1.7,0.2-3.7-1.4-4.7c-0.6-0.4-1.3-0.6-1.8-0.4c-1.5,0.7-5.3,8.4-4.4,9.7c0,0,1.2,2.4,2.8,4.8c0.2,0.3,0.6,0.8,0.7,1.3
	c0.4,0.9,1.4,4,2.5,4.1l9.9,2.8l0,0c1,0.2,2.1,0.2,3.1,0l28-3l1.4-0.2c2.2-0.3,1.4-4.4,0.2-7.5c-0.8-2.2-2.1-4.1-3.8-5.7l-3.4-2.9
	C59.4,148.8,57.5,148,55.5,147.6z"/>
<path class="st1" d="M35.3,169.7l-26.1,4.1c-1.8,0.3-3.4-1-3.7-2.7l0,0c-0.3-1.8,1-3.4,2.7-3.7l26.1-4.1c1.8-0.3,3.4,1,3.7,2.7l0,0
	C38.3,167.8,37.1,169.5,35.3,169.7z"/>
<path class="st1" d="M37.6,167.2l-26.1,4.1c-1.8,0.3-3.4-1-3.7-2.7l0,0c-0.3-1.8,1-3.4,2.7-3.7l26.1-4.1c1.8-0.3,3.4,1,3.7,2.7l0,0
	C40.6,165.2,39.4,166.9,37.6,167.2z"/>
<path class="st1" d="M22.6,167l-7.4,1.2c-1.8,0.3-3.4-1-3.7-2.7l0,0c-0.3-1.8,1-3.4,2.7-3.7l7.4-1.2c1.8-0.3,3.4,1,3.7,2.7l0,0
	C25.6,165,24.3,166.7,22.6,167z"/>
<path class="st1" d="M510.9,150l-3.4,2.9c-1.8,1.5-3,3.5-3.8,5.7c-1.1,3.1-2.1,7.2,0.2,7.5l1.4,0.2l28,3c1,0.2,2.1,0.1,3.1,0l0,0
	l9.9-2.8c1.2-0.1,2.1-3.2,2.5-4.1c0.2-0.5,0.5-1,0.7-1.3c1.6-2.4,2.8-4.8,2.8-4.8c0.9-1.4-2.9-9-4.4-9.7c-0.5-0.2-1.1,0-1.8,0.4
	c-1.6,1-2.2,3-1.4,4.7l0.6,4.1c-2.4,4.5-7.4,3.9-7.4,3.9c-0.6,0-1.3-0.2-1.8-0.6l-3.3-2.4c-1.9-1.3-1.8-4.1,0.1-5.3l10.1-1.2
	c1.4-0.2,2.6-1.3,2.7-2.6c0-0.3,0-0.6-0.1-1c-0.5-1.8-2.4-2.6-4.1-2l-14.9,0.7c-0.2,0.1-0.4,0.2-0.6,0.2l-9.7,1.9
	C514.2,147.9,512.4,148.8,510.9,150z"/>
<path class="st1" d="M536.7,169.4l26.1,4.1c1.8,0.3,3.4-1,3.7-2.7l0,0c0.3-1.8-1-3.4-2.7-3.7l-26.1-4.1c-1.8-0.3-3.4,1-3.7,2.7l0,0
	C533.7,167.5,534.9,169.2,536.7,169.4z"/>
<path class="st1" d="M534.5,166.9l26.1,4.1c1.8,0.3,3.4-1,3.7-2.7l0,0c0.3-1.8-1-3.4-2.7-3.7l-26.1-4.1c-1.8-0.3-3.4,1-3.7,2.7l0,0
	C531.4,164.9,532.6,166.6,534.5,166.9z"/>
<path class="st1" d="M548.9,166.6l7.9,1.3c1.8,0.3,3.4-1,3.7-2.7l0,0c0.3-1.8-1-3.4-2.7-3.7l-7.9-1.3c-1.8-0.3-3.4,1-3.7,2.7l0,0
	C545.9,164.6,547.2,166.3,548.9,166.6z"/>
</svg>
