<?xml version="1.0" encoding="utf-8"?>
<!-- Generator: Adobe Illustrator 26.0.3, SVG Export Plug-In . SVG Version: 6.00 Build 0)  -->
<svg version="1.1" id="Calque_9" xmlns="http://www.w3.org/2000/svg" xmlns:xlink="http://www.w3.org/1999/xlink" x="0px" y="0px"
	 viewBox="0 0 788 1005" style="enable-background:new 0 0 788 1005;" xml:space="preserve">
<style type="text/css">
	.st0{fill:#B85727;}
	.st1{fill:#E0B9A0;}
	.st2{fill:#CCAA97;}
	.st3{fill:#B22947;}
	.st4{fill:#87213C;}
	.st5{fill:#FFFFFF;}
	.st6{fill:#C58C85;}
	.st7{fill:#211843;}
	.st8{fill:#221944;}
</style>
<path class="st0" d="M427.1,323.9c-0.6,0.6-1,0.9-1,0.9l-18.4-3.5l-1.1-5.9l-4.4-23.4l6.2-23.1v-0.2l4,0.2l1.2,36.7v0.7l0.4,10.5
	C416.5,320.3,421.3,322.4,427.1,323.9z"/>
<path class="st1" d="M481,373.4c-4,12.6-16.2,8.4-25.5,16.3c-10.9,9.3-6.9,27.5-8.4,36.9c-1,6.2-9.9,22.2-13.7,21.3
	c-10.8-2.5-16.9-20.9-26.7-26.2c-5.7-3.1-8.2-6.1-13.7-2.5c-5.5-3.6-8-0.6-13.7,2.5c-9.8,5.4-15.8,23.7-26.7,26.2
	c-3.9,0.9-12.7-15.1-13.7-21.3c-1.5-9.3,2.5-27.5-8.4-36.9c-9.2-7.9-21.4-3.7-25.5-16.3c-7-22,14.5-34.7,24.4-38.5
	c15.2-5.9,36.1-8.9,42.5-18l1.6-47.9l18.3-0.8h2.2l14.3,0.6l4,0.2l0.7,20.2l0.6,16.5v0.7l0.4,10.5c2.5,3.5,7.2,5.6,13,7.1
	c6.5,1.7,14.2,2.8,21.5,4.5c3.1,0.7,6.1,1.6,9,2.7C467.5,334.9,488,351.4,481,373.4z"/>
<path class="st2" d="M413.7,306.3c-1.5,3.6-4,6.8-7.1,9.1c-13,9.2-34.6,1.4-34.6,1.4l1.6-47.9h38.8l1.2,36.7L413.7,306.3z"/>
<path class="st1" d="M443.3,355.4c1.6,21.9,14.8,26.7,21.9,33.8c11.3,11.3,25.7,42.1,34.3,55.5c4.1,6.3,15.8,19.5,25.5,13l0,0
	c12-8.9,6.3-23.2,3-29.7c-6.8-13.1-25.3-39.1-30.1-53.1c-3.6-10.4-5-21.5-19.3-32.4c0,0-13.9-12-25.7-6.2
	C445.3,340.1,442.6,346.4,443.3,355.4L443.3,355.4z"/>
<path class="st1" d="M353.5,360.9c-4.3,21.5-18,24.7-25.9,30.9c-12.6,9.8-29.3,38.2-39.7,50.2c-4.9,5.7-18.5,17-27.1,9.2l0,0
	c-10.6-10.6-3-23.9,1.3-29.8c8.6-12,28.3-34.5,34.9-47.8c4.9-9.9,7.6-20.7,23.1-29.8c0,0,15.3-10.2,26.3-3
	C353.3,345.5,355.2,352.1,353.5,360.9L353.5,360.9z"/>
<path class="st3" d="M370.3,315.9l50.6,0.4l30.8,12.4l12.7,4l-9.1,50.2l-7.4,65.3c-0.2,2.5-0.1,4.9,0.4,7.4l31,123.6
	c1.1,9.9-8.5,19.1-17.5,21.2c0,0-49.2,14.6-66.1,15.3c-17.4,0.6-52.5-10.1-52.5-10.1s-0.1,0-0.2,0c-9.8-1.6-27.1-11.3-25.6-22
	l20.9-129.3c0.4-2.6,0.6-5.1,0.4-7.7c-0.8-14.2-3.7-52.3-3.7-55c0-3.3-17-55.5-17-58.7L370.3,315.9z"/>
<path class="st3" d="M394.7,371.6l-24.4-55.7c0,0-29.7,8.5-47.5,20.4c6.9,11.1,17.4,53,16.7,52.3c10,47.2,15.2,60.1,15,68.4
	c-0.3,7.5-12.4,11.2-12.4,11.2l110.5,10c0,0-15.7-25.4-11.7-45c3.9-18.4,12.2-47.2,12.2-47.2s5-38,9.9-53.5l-42.1-16.2L394.7,371.6z
	"/>
<g>
	<path class="st4" d="M418.6,317.5c-9.7,21.5-20,44.1-30,65.3c-9.7,21.6-22.2,42.5-27,65.9c-0.7,2.6-1.1,6.2-1.4,8.8
		c-4.6,38.3-9.4,77.5-14.9,115.8c-0.6,4.5-1.8,13.3-2.6,17.8c0.4-4.4,1.1-13.5,1.6-17.9c3.6-38.5,7.9-77.8,12.3-116.2
		c0.3-2.6,0.7-6.4,1.4-9c4.8-23.7,17.6-44.7,28-66.4C396.5,360.6,407.8,338.4,418.6,317.5L418.6,317.5z"/>
</g>
<g>
	<g>
		<path class="st5" d="M486.6,553.1c2.7,0.5,3.3-9.6,0-10.1c-1.4-0.2-3.2-0.9-4.6-0.2c-3.3,1.6-3.1,6.9-2.5,9.8
			c0.6,2.7,1.1,5.5,1.6,8.2c0.2,1.5,1.7,3.5,3.1,1.8c1.6-1.7,1.2-4.9,0.8-7c-0.4-2.2-0.8-4.4-1.2-6.6c-0.1-0.5-0.1-1-0.2-1.5
			c-0.1-0.2-0.1-0.2-0.1-0.3c-0.1,1.7-0.2,3.6-0.2,5.3c0.2-0.1,0.4,0,0.6,0C484.6,552.9,485.6,552.9,486.6,553.1L486.6,553.1z"/>
	</g>
</g>
<path class="st1" d="M214.1,363.2l-11.4-10c0,0,4.3,1.9,5.7,0.1c0.3-0.5,0.2-3-0.2-3.4c-2.4-3.3-6.6-8.4-7-12.5
	c-0.2-1.3,2.3-4.7,2.3-4.7l15.1,14.7l7.6,13.3L214.1,363.2z"/>
<path class="st1" d="M198.6,340.8c-6-5.3-14.9-19.3-22.7-22.2c-1.5-0.5-6.1,0.4-6.1,0.4l14.3,21.7c2.7,4.1,6.1,7.7,10.1,10.9
	l21.1,18.8l9.6-11.7C224.9,358.7,205,346.6,198.6,340.8z"/>
<ellipse transform="matrix(0.7269 -0.6867 0.6867 0.7269 -190.773 251.8364)" class="st1" cx="221.3" cy="365.8" rx="7.5" ry="7.5"/>
<path class="st1" d="M266.6,453.8c-8.3-1.5-13.5-8.1-17.1-15.7L218,372.2c0,0-3.8-5.9,1.5-9.4c5.8-4,9.2,1.3,9.2,1.3l50.8,58.8
	c0,0,2.7,3.6,2.8,3.7c5,8.5,3.6,18.4-4.9,23.7C274.5,452.1,270,454.3,266.6,453.8z"/>
<path class="st6" d="M-444.9,411.8l0.1,0.1c0.1,0.2,0.3,0.4,0.4,0.6l-0.1,0.1L-444.9,411.8z"/>
<path class="st7" d="M220.9,364.5c0.6-0.8,0.5-2.2-0.2-2.9l-78.4-85.5l75.8,89.1c0.7,0.8,1.8,0.8,2.3-0.1L220.9,364.5z"/>
<path class="st1" d="M202.5,363.4l-11.2-12.3c-1.9-2.1-1.8-5.4,0.3-7.4l3.2-2.9c2.1-1.9,5.4-1.8,7.4,0.3l11.1,12.2
	c1.9,2.1,1.8,5.4-0.3,7.4l5.8,9.6C216.7,372.3,204.3,365.5,202.5,363.4z"/>
<path class="st8" d="M420.7,513.2V400.6c0-3,2.1-5.8,5.1-6.5l58-15.1c4.3-1.1,8.5,2.1,8.5,6.5v112.6c0,3-2.1,5.8-5.1,6.5l-58,15.1
	C425,520.9,420.7,517.7,420.7,513.2z"/>
<g id="I971h2_00000067219755369311645200000005868042954794575240_">
	<g>
		<path class="st4" d="M462.3,496.5c-2.7-1.9-3.6-5.2-2-8.5c1.3-2.7,4.2-4,7.4-3.1c3,0.8,4.8,2.7,5.4,5.7c0.7,3.8-0.4,7.2-3.6,9.6
			c-4.3,3.3-11.2,3.4-15.7,0.2c-2.4-1.6-4.2-3.9-4.1-6.8c0.1-3.9,0.3-7.9,1.4-11.5c1.2-4.2,0.6-7-3-9.8c-5.8-4.4-7-10-4.8-16.7
			c2.2-6.5,6.8-10.1,13.9-10.7c0.6,0,1.4-0.2,1.7-0.6c2.4-3.1,2.4-8.7-0.3-11.8c-5.8-7-8.2-15.2-9.1-23.9c-0.4-4-0.2-7.9,2.2-11.3
			c3.5-5.1,9.1-5.2,12.7-0.3c1,1.4,1.9,3.2,2.4,4.9c2.1,6.9,2,14,0.2,21c-0.8,3.1,0,5.1,1.9,7.3c3.5,3.8,7.1,7.6,9.9,11.9
			c5.2,7.9,5.3,16.3,0.8,24.4c-4.7,8.5-12.3,11.8-21.7,11.6c-1.2-0.1-2.3-0.3-2.8,1.3c-1.9,5.2-2.4,10.6,0,15.8
			c1.8,4.1,5.3,5.2,9.8,3.1C463.6,497.4,462.9,497,462.3,496.5z M456.1,473c5.5,1.5,10.2,0.6,14.4-2.8c4.5-3.7,6.4-8.6,5.2-14.3
			c-0.7-3-2.1-6.1-3.9-8.8c-2-3-4.7-5.8-7.4-9c-0.8,2.7-1.4,4.9-2,7c6.8,5.5,9.1,12.3,6.6,18.9c-1.5,3.9-4.7,6.1-9.2,5.8
			c1-1.1,1.6-2.1,2.5-2.9c4.9-4.3,4.3-9.1-1.9-12.4C458.9,460.8,457.6,466.9,456.1,473z M460.7,403.8c-0.5-1.3-2.5-2.9-3.3-2.6
			c-1.4,0.4-2.5,2-3.3,3.5c-0.4,0.9-0.3,2.5,0,3.6c1.2,5.8,4.2,10.7,9,15.3C464,416.3,463.6,409.9,460.7,403.8z M456.6,454
			c-3.4-0.3-5.8,1.4-7.1,5c-1.8,4.9-0.5,10.1,3.5,12.9C454.2,465.7,455.4,459.8,456.6,454z"/>
	</g>
</g>
<g id="I971h2_00000031198194278168428470000017436679332327562150_">
	<g>
		<path class="st8" d="M187.3,378.4c-1.1-0.3-1.7-1.3-1.6-2.5c0.1-1.1,0.9-1.8,2-1.9c1.1-0.1,1.9,0.3,2.4,1.2
			c0.6,1.1,0.6,2.3-0.1,3.5c-1.1,1.5-3.3,2.3-5.1,1.9c-1-0.2-1.8-0.7-2.1-1.7c-0.4-1.3-0.7-2.6-0.8-3.9c-0.1-1.5-0.6-2.3-2.1-2.8
			c-2.3-0.7-3.4-2.4-3.5-4.9c-0.1-2.4,1.1-4.1,3.2-5.1c0.2-0.1,0.4-0.2,0.5-0.4c0.4-1.3-0.2-3.1-1.5-3.8c-2.7-1.5-4.5-3.9-5.8-6.6
			c-0.6-1.2-0.9-2.5-0.6-3.9c0.5-2,2.3-2.8,4.1-1.5c0.6,0.3,1,0.8,1.4,1.3c1.5,2,2.3,4.4,2.5,6.8c0.1,1.1,0.6,1.6,1.5,2.1
			c1.5,0.9,3.2,1.7,4.5,2.8c2.6,2,3.6,4.7,3.1,7.9c-0.6,3.2-2.7,5.3-5.8,6.2c-0.3,0.1-0.7,0.2-0.7,0.7c-0.1,1.9,0.4,3.6,1.8,5.1
			c1.1,1.1,2.3,1.1,3.6-0.1C187.9,378.6,187.7,378.6,187.3,378.4z M182.7,371.7c1.9-0.2,3.3-1.1,4.3-2.6c1-1.7,1.1-3.5,0-5.2
			c-0.6-1-1.4-1.8-2.3-2.4c-1.1-0.8-2.2-1.4-3.5-2.1c0.1,1,0.1,1.8,0.2,2.5c2.8,1.1,4.4,2.9,4.3,5.3c-0.1,1.5-0.9,2.6-2.3,3
			c0.2-0.5,0.3-0.9,0.5-1.2c1.1-1.9,0.4-3.5-2-3.8C182.1,367.4,182.5,369.5,182.7,371.7z M176.2,348.6c-0.3-0.3-1.1-0.6-1.4-0.5
			c-0.4,0.3-0.6,1-0.6,1.5c-0.1,0.4,0.2,0.9,0.4,1.2c1,1.8,2.6,3,4.6,4C178.7,352.4,177.9,350.4,176.2,348.6z M180.6,365.4
			c-1.1,0.3-1.7,1.1-1.7,2.4c0,1.8,1,3.3,2.6,3.7C181.2,369.5,180.9,367.5,180.6,365.4z"/>
	</g>
</g>
<path class="st8" d="M127.7,308.2c0.9-0.6,1.8-0.6,2.4-0.1c0.4,0.3,0.6,0.7,0.5,1.2c-0.1,0.4-0.4,0.7-0.8,0.9
	c-1.1,0.4-2.2-0.2-2.5-1.4c-0.2-1.1-0.5-2.3-0.7-3.4c-0.1-0.4-0.2-0.6-0.6-0.7c-0.8-0.2-1.5-0.5-2.3-0.7c-0.3-0.1-0.7-0.2-1.1-0.3
	c0.1,1.1,0.2,2,0.3,3.1c0.8-0.6,1.5-0.6,2.3-0.2c0.5,0.2,0.7,0.6,0.6,1.2c-0.1,0.5-0.4,0.8-0.8,1c-1.1,0.5-2.3-0.2-2.5-1.2
	c-0.2-0.6-0.2-1.2-0.4-1.9c-0.4-1.5-0.7-3.2-1.1-4.8c2,0.2,4.1,0.5,6.2,0.7C127.2,303.9,127.4,306,127.7,308.2z M123.1,303.4
	c1,0.2,2,0.5,3,0.7c0.1-0.6-0.1-0.8-0.6-1c-1.1-0.2-2.1-0.5-3.2-0.8C122.2,303.2,122.2,303.2,123.1,303.4z"/>
<path class="st8" d="M142.4,331.7c0.2-0.2,0.2-0.6,0.2-0.9c-0.3-1.1-0.1-2,0.6-2.8c0.6-0.7,1.5-1.3,2.3-2c0.6-0.6,1.2-1.1,1.5-1.8
	c0.4-1,0.9-1.3,1.9-1c0.2,0.1,0.4,0.1,0.6,0.1c0.6,0,0.9,0.2,0.7,0.9c-0.2,0.6-0.2,1.1-0.4,1.7c-0.9,3.3-1.7,6.6-2.6,10.1
	c1.7-0.6,3.1-0.2,4.1,1c0.7,0.7,1,1.7,0.6,2.8c-0.4,1-1.2,1.3-2.2,1.4c-2.1,0.1-3.9-1.9-3.6-4.1c0.3-2.4,0.6-4.9,1-7.5
	c-1.8,1.2-4.3,1.5-4.1,4.5C142.2,333.3,142.4,332.5,142.4,331.7z M143.2,330.8c1.4-1.5,3.3-2,4-4.2
	C145.4,327.8,143.3,328.1,143.2,330.8z"/>
<path class="st8" d="M125.2,278.1c0.6-0.5,1.3-0.5,1.9-0.1c0.3,0.2,0.6,0.6,0.5,1c-0.1,0.4-0.3,0.6-0.7,0.8c-1,0.3-1.9-0.3-2.1-1.3
	c-0.2-1-0.4-1.9-0.6-2.8c-0.2-1-0.4-1.9-0.6-3c0.4-0.1,0.7-0.2,1.1-0.2C124.9,274.4,125.1,276.1,125.2,278.1z"/>
<g>
	<path class="st1" d="M531.8,448.4c-3.9,7.5-11.6,12.4-19.9,13.5l-73,10.2c0,0-6.9,1.8-8.7-4.2c-2-6.9,4-8.5,4-8.5l72-31
		c0,0,4.2-1.4,4.5-1.4c9.8-2.2,18.7,2.3,21.3,12.1C532.8,442.1,533.2,445.3,531.8,448.4z"/>
	<path class="st1" d="M427.8,462.4l-5.9,6.5c0,0.1-0.3,0.3-0.4,0.3l-7.4,11.1c-1.5,2.3-1.5,2.9-0.4,4.1c0.2,0.2,0.5,0.4,0.7,0.5
		c1.1,0.5,2.5,0.1,3.3-0.9l5.5-7.2c1.8-0.9,4,0.3,4.1,2.3l0.3,3.7c0,0.6-0.2,1.1-0.5,1.6l-5.5,7.6c-0.7,1.3-2,2.1-3.6,2.2l-6.5,1
		c-1.1,0.1-2.2,1-2.4,2.1c-0.2,1.5,1,2.7,2.5,2.7c0,0,7.1-0.4,9.6-0.6c0.4-0.1,0.9,0,1.4,0c0.9,0.1,1.9-0.3,2.5-1.1l10.2-10.9l0,0
		c0.6-0.8,1.1-1.5,1.4-2.4l10.5-22.9l0.4-1.1c0.8-1.8-2.7-3-5.6-3.6c-2-0.4-4.2-0.3-6.2,0.4l-3.8,1.3C430.4,460,429,461,427.8,462.4
		z"/>
</g>
</svg>
