<?xml version="1.0" encoding="utf-8"?>
<!-- Generator: Adobe Illustrator 26.0.3, SVG Export Plug-In . SVG Version: 6.00 Build 0)  -->
<svg version="1.1" id="Calque_9" xmlns="http://www.w3.org/2000/svg" xmlns:xlink="http://www.w3.org/1999/xlink" x="0px" y="0px"
	 viewBox="0 0 788 1005" style="enable-background:new 0 0 788 1005;" xml:space="preserve">
<style type="text/css">
	.st0{fill:#CEB7A5;}
	.st1{fill:#401D26;}
	.st2{fill:#E0B9A0;}
	.st3{fill:#CCAA97;}
	.st4{fill:#ED9170;}
	.st5{fill:#D3D3D3;}
	.st6{fill:#95C1BE;}
	.st7{fill:#87AAA7;}
	.st8{fill:#89777A;}
	.st9{fill:#E8E8E8;}
	.st10{fill:#607F7B;}
	.st11{fill:#888215;}
	.st12{fill:#9E9520;}
</style>
<rect x="363.9" y="305.5" class="st0" width="56.1" height="16.2"/>
<path class="st1" d="M448.5,328.3c-5,4.4-11,7.7-17.4,9.7c-21.3,6.4-42.8-3.4-59.1-23.2l0.9-25.7l0.7-20.2l18.3-0.8h2.2l18.3,0.8
	l0.7,20.2l1,27.7C419.2,324.2,434.8,325.1,448.5,328.3z"/>
<path class="st2" d="M481,373.4c-4,12.6-29.6-8.5-38.9-0.6c-10.9,9.3,6.6,44.4,5,53.7c-1,6.2-9.9,22.2-13.7,21.3
	c-10.8-2.5-16.9-20.9-26.7-26.2c-5.7-3.1-8.2-6.1-13.7-2.5c-5.5-3.6-8-0.6-13.7,2.5c-9.8,5.4-15.8,23.7-26.7,26.2
	c-3.9,0.9-12.7-15.1-13.7-21.3c-1.5-9.3,2.5-27.5-8.4-36.9c-9.2-7.9-21.4-3.7-25.5-16.3c-7-22,13.5-38.5,23.4-42.3
	c15.2-5.9,37.1-5.1,43.5-14.2l0.1-2l0.9-25.7l0.7-20.2l18.3-0.8h2.2l18.3,0.8l0.7,20.2l1,27.7c5.2,7.4,20.7,8.3,34.5,11.5
	c3.1,0.7,6.1,1.6,9,2.7C467.5,334.9,488,351.4,481,373.4z"/>
<path class="st3" d="M372,316.8c0,0,32.3,11.7,41.7-10.5l-1.3-37.4h-38.9L372,316.8z"/>
<path class="st2" d="M357.4,352.5c-4.3,21.5-18,24.7-25.9,30.9c-12.6,9.9-29.3,38.2-39.7,50.2c-4.9,5.7-18.5,17-27.1,9.2l-3.8-2.5
	c-10.6-10.6,0.9-21.4,5.1-27.3c8.6-12,28.3-34.5,34.9-47.8c4.9-9.9,7.6-20.7,23.1-29.8c0,0,15.3-10.1,26.3-3
	C357.2,337,359.2,343.6,357.4,352.5L357.4,352.5z"/>
<path class="st2" d="M282.5,441.1c9.9-13.6,2.2-17.7-0.8-23.2c-3.2-6-46.6-56.1-58-69.9c-6.5-7.8-9.7-12.2-14.7-8.8
	c-4.6,3.1-0.6,12.7,0.9,16.5c3.3,8.4,44.2,75.8,48,81.7C265.9,449.8,279.6,445.1,282.5,441.1z"/>
<path class="st2" d="M433,354c4.3,21.5,18,24.7,25.9,30.9c12.6,9.8,29.3,38.2,39.7,50.2c4.9,5.7,18.5,17,27.1,9.2l0,0
	c10.7-10.6,3-23.9-1.3-29.8c-8.6-12-28.3-34.5-34.9-47.8c-4.9-9.9-7.6-20.7-23.1-29.8c0,0-15.3-10.2-26.3-3
	C433.2,338.6,431.3,345.1,433,354L433,354z"/>
<path class="st2" d="M526.5,434.3c-3.9-14.5-15.2-11.8-21.4-11c-6.7,0.9-68.8,24.1-85.8,29.9c-9.6,3.3-14.8,4.8-13.4,10.7
	c1.3,5.3,11.7,5,15.8,4.9c38.5-0.8,67.6-3.4,93.4-16.4C532,443.9,527.5,438,526.5,434.3z"/>
<path class="st4" d="M379.4,453.5c-7.6,4.1-19.1,9.3-19.1,9.3s5.9,4.6,8.3,4.9c2,0.2,10.5-4,10.5-4l15.1,2.6
	c-3.2,4.5-10.8,6.8-15,11.9c-3.2,3.9-13.3,10-18.1,12c-2.6,1.1-9,0.9-11.2,2.6c-1.6,1.2-2.9,7.1-2.9,7.1l15.1-0.9
	c0,0,20.6-7.2,27.2-10.3c7-3.2,20.4-11.3,25.8-16.6c1.7-1.7,5-5.1,3.9-10.1c-1-4.3-5.4-5.8-8.3-6.7C406,454,379.7,453.3,379.4,453.5
	z"/>
<path class="st5" d="M315.1,412.3c-3.4,2.1-12.1-0.4-14.9-3.2c-9.9-9.8-20.9-22.3-18.1-24.1c3.1-2.1,13.5-44,26.8-52.9
	c1.2-1.5,2.8-2.5,4.7-2.9l38.3-8.9c3.5-0.8,7.2,0.7,9.1,3.7l21.1,32.9c2.6,4,1.3,9.4-2.7,12L315.1,412.3z"/>
<path class="st5" d="M356.7,325.5c-0.3-0.4,3.3-4.3,3.5-4.7c0.2-0.4,23.6,12.5,24.2,13.1s7.2,5.3,7.2,5.3s18.8-12.1,19.4-12.1
	s10.9,1.5,9.5,2s-14.2,197.3-14.2,197.3s-51.2-3.4-51.4-2.9C338.8,556.8,356.7,325.5,356.7,325.5z"/>
<path class="st5" d="M462.8,407.5c3.3,1.9,7.5,1.3,10.3-1.3c9.8-9.7,31.3-31.6,28.4-33.6c-3.1-2.1-25.3-30.8-32.6-39.7
	c-1.2-1.5-7.1-6.3-9-6.8l-38.1-9c-3.6-0.8-7.3,0.8-9.3,4L391,356.6c-2.4,4.1-1,9.4,3.1,11.8L462.8,407.5z"/>
<path class="st6" d="M426.9,320.9l-47.3,62c-0.5,0.7-0.8,1.4-0.8,2.3c-0.7,12.5-6.4,115.8-4.2,122.2c1.6,4.8,22.7,27.3,34.8,39.9
	c5.4,5.4,13.1,7.5,20.2,5.6c0.1,0,0.2-0.1,0.4-0.1l34.1-12c1.7-0.6,2.8-2.3,2.7-4c-1.3-19.8-8.5-128.5-8.5-132.3
	c0-3.7-5.7-63.5-7.1-77.5c-0.2-1.8-1.4-3.2-3.1-3.6l-17.1-3.9C429.5,319.1,427.9,319.7,426.9,320.9z"/>
<path class="st7" d="M412.8,481.6h33.1c2.5,0,4.6,2.1,4.6,4.6v1.8c0,2.5-2.1,4.6-4.6,4.6h-33.1c-2.5,0-4.6-2.1-4.6-4.6v-1.8
	C408.2,483.7,410.3,481.6,412.8,481.6z"/>
<path class="st8" d="M383.4,338.8c0.4,0,8.3,5.5,8.3,5.5l9-6.8l-3.4-12.3l-5.1,1c0,0-6.1-2.1-6.9-1
	C384.6,326.2,383.4,338.8,383.4,338.8z"/>
<path class="st9" d="M357.2,319.4l4.9-12.4c0.6-1.5,2.5-2,3.7-1l24.8,19.1c0.9,0.7,1.2,1.9,0.7,3l-7.8,16.5c-0.7,1.5-2.8,1.9-4,0.6
	L357.6,322C357.1,321.3,356.9,320.3,357.2,319.4z"/>
<path class="st9" d="M427.4,319.4l-5.1-12.4c-0.6-1.5-2.5-2-3.7-1l-24.8,19c-0.9,0.7-1.2,1.9-0.7,3l7.8,16.5c0.7,1.5,2.8,1.9,4,0.6
	l22.1-23.2C427.5,321.3,427.7,320.3,427.4,319.4z"/>
<ellipse class="st10" cx="386.8" cy="398.2" rx="3.4" ry="3.2"/>
<ellipse class="st7" cx="385.5" cy="431.7" rx="3.4" ry="3.2"/>
<ellipse class="st7" cx="384.2" cy="464.2" rx="3.4" ry="3.2"/>
<path class="st2" d="M221.4,342.9c-1-3-1.6-6.1-1.5-9.2l0.3-10c0-0.2,0-0.4-0.1-0.5l-7-14.2c-0.4-0.9-1.6-1-2.1-0.2
	c-0.7,0.8-1.3,1.9-1.4,2.4c-0.9,3.5,2.3,9,3.3,12.4c0.2,0.4-1.1,2-1.5,2.2c-1,0.7-4.2,0.1-6.3-0.4c-1.3-0.3-2.5-1.1-3.2-2.3
	c-0.8-1.3-2-3.1-2.5-4c-0.2-0.3-0.2-0.8-0.1-1.2l7.6-10.4c0.6-1.2,0.5-2.4,0.4-3.3c-0.2-1-0.8-1.7-1.8-1.9c-0.9-0.2-1.8-0.3-2.1,0.2
	l-11.9,15.8c-0.7,1.2-1,4-0.7,5.3l1,4.6c0.3,1.4,0.9,2.8,1.9,3.9l13.6,17.5l0,0.1l0.1,0l0.5,0.8l0,0c0.1-0.5,0.6-0.8,1.1-0.9
	l12.8-1.2c0.9-0.1,1.3-0.9,1.1-1.7L221.4,342.9z"/>
<g id="GcAfxX_00000158726393485427391440000013673085389559127732_">
	<g>
		<path class="st11" d="M205.5,288.9c0.4,0.4,0.8,0.9,1.2,1.3c0.1,0.1,0.3,0.2,0.7,0.5c-0.2-0.5-0.3-0.6-0.4-0.8
			c-0.5-1.1-0.9-2.1-1.5-3.1c0.1,0,0.2,0,0.3-0.1c0.5,1,1.1,1.8,1.7,2.8c0.2,0.6,0.4,1.5,0.6,2.2c0.3,0.9,0.6,1.7,0.8,2.5
			c0.1,0.3,0.2,0.6,0.3,1.1c0.1,0.4,0.3,0.9,0.5,1.5c0.1-1.1,0.1-2,0.3-2.9c0.1,0.2,0.2,0.3,0.7,0.8c1.2-3.7,2.2-7.2,3.2-10.5
			c0.3-0.3,0.7-0.7,1.1-1.2c0.1,1.2,0.1,2,0.2,2.9c-0.1,0.1-0.1,0.3-0.1,0.3c0,0.1,0.1,0.1,0,0.1c-0.4,1.1-1,2.1-1.6,3.2
			c0,0.1,0.1,0.1,0.1,0.1c-0.3,0.7-0.7,1.5-1.2,2.7c-0.1,0.6-0.1,1.5-0.3,2.5c-0.8,1.1-1.6,2-2,2.7c0,3.5,0.1,6.7,0.1,9.7
			c-0.1,0,0.1,0.1,0.1,0.1c0,0,0.1,0,0.1-0.1c2.3-3,4.6-6.1,6.8-9.1c0.2-0.1,0.4-0.3,1-0.5c-0.3,1.3-0.6,2.2-0.9,3.2
			c-0.3,0.1-0.8,0.2-1.1,0.2c-0.1,0.5-0.1,0.8-0.1,0.7c-1.5,2-3.5,3.3-3.9,5.7c-5,3.2-3.2,10.9-9.4,14c3.6-4.6,5.7-9,6.5-14.1
			c-0.4-0.3-0.7-0.5-1.2-0.9c-0.1-0.1-0.3-0.2-0.4-0.3l0-0.1c-2.4-3.9-5.4-7.3-8.7-10.3c-0.1-0.5-0.2-1-0.4-1.8
			c0.9,0.4,1.6,0.8,2.2,1.1c0.1,0,0.1,0.1,0.2,0.1s0.2,0.1,0.4,0.2c2.4,2.9,4.7,6,7,8.9c0.3,0.8,0.6,1.4,1.2,3.1
			c-0.2-2.9-0.2-4.9-0.3-6.9c-0.1-1-0.2-2-0.3-3l0-0.1c0-0.1,0-0.1,0-0.2c-0.3-1-0.5-2-0.8-3c-0.4-1.2-0.9-2.4-1.2-3.5
			c-0.8-0.1-1.6-0.3-2.2-0.4c-0.2,0-0.3-0.1-0.4-0.1l-0.1,0c-2.6-2.8-6.4-3.7-9.9-5.3c-0.2-0.3-0.4-0.5-0.8-1.1
			c1.5,0.2,2.8,0.3,4,0.5C199.9,287,202.7,288,205.5,288.9z"/>
		<path class="st12" d="M209.6,285.7c1.3-0.5,1.7,0.7,2.1,1.5c0.8-1,1.5-1.9,2.2-2.9c-1,3.3-2,6.6-3.2,10.5
			c-0.4-0.5-0.5-0.7-0.7-0.8c0.1-0.7,0.1-1.4,0.2-2.2c-0.7,0-1.4,0-2.1,0c-0.2-0.6-0.4-1.5-0.6-2.2
			C207.7,287.9,208.2,286.4,209.6,285.7z"/>
		<path class="st11" d="M205,285.7c-0.1-0.1-0.2-0.3-0.3-0.4c-0.1,0.1-0.1,0.2-0.2,0.3c-0.2-0.8-0.4-1.6-0.5-2.3
			c0.1,0.2,0.3,0.4,0.4,0.6c0.1,0.1,0.1,0.1,0.2,0.2c0.1,0.1,0.1,0.2-1-1.2c1.2,1.2,1.1,1.2,1.1,1.1c0,0,0-0.1-0.1-0.1
			c-0.2-0.5-0.3-1.1-0.5-1.7c-0.2-3.4-0.4-6.9-0.5-10.3c0.1-0.5,0.3-1,0.6-1.6c3.1,4.8,2.8,9.6,1.3,14.4
			C205.2,285.1,205.1,285.5,205,285.7z"/>
		<path class="st12" d="M207.9,302.4c0,0.1,0.1,0.4,0.2,0.6c0.1,0.2,0.1,0.3,0.2,0.5c0.1,0.3,0.3,0.8,0.4,1.1c-2.4-2.9-4.7-6-7-8.9
			c0.8,0.5,1.7,1.1,2.6,1.7c0.7-1.4,1.7-1,2.9-0.6c0.8,0.3,1.6,0.6,2.3,1c0.1,1,0.2,2,0.3,3C209.2,301.2,208.6,301.7,207.9,302.4z"
			/>
		<path class="st12" d="M203.7,287.1c0.6,0.5,1.3,1.2,1.8,1.7c-2.9-0.9-5.7-1.9-7.7-4.3c0.5,0.1,1,0.1,1.5,0.2
			c-1.1-4.4,1.7-2.7,3.6-2.4c0.1-0.1,0.2,0,0.3-0.1c0.1,0.3,0.4,0.8,0.6,1.1c0.2,0.8,0.4,1.6,0.5,2.3
			C204.2,286.1,203.9,286.6,203.7,287.1z"/>
		<path class="st11" d="M201.9,280.4c0.2,0.2,0.4,0.5,0.6,0.7c-0.1,0.1-0.1,0.1-0.2,0.2c-0.6-0.1-1.3-0.2-1.9-0.4
			c-0.1,0-0.3-0.1-0.3-0.1c-0.5-0.1-1.2-0.2-1.7-0.4c-2.1-2.7-5.2-3.7-8.2-5c-0.2-0.4-0.5-0.8-1-1.4c1.1,0.1,1.9,0.2,2.7,0.3
			c2.4,1.8,4.8,3.3,7.7,3.9c0.5,0.3,1,0.7,1.4,1.1C201.3,279.8,201.6,280.1,201.9,280.4z"/>
		<path class="st12" d="M199.5,295.9c3.4,3,6.2,6.5,8.7,10.3C204.2,303.7,200.7,300.8,199.5,295.9z"/>
		<path class="st11" d="M189.1,267.5L189.1,267.5c-0.1-0.2-0.2-0.3-0.3-0.4c-0.1-0.4-0.2-0.6-0.4-1.2c0.5,0.1,0.8,0.3,1.1,0.3
			c2.6,2.5,5.5,4.9,8.1,7.4c0.4,0.8,0.8,1.6,1.5,2.9c-1-0.6-1.4-0.8-2-1.1C194.8,272.5,192.3,269.7,189.1,267.5z"/>
		<path class="st12" d="M194.8,285.1c3.3,1.7,7.2,2.5,9.9,5.3C200.7,289.8,197.2,288.4,194.8,285.1z"/>
		<path class="st12" d="M189,267.5c3.2,2.1,5.7,5,8,8C193.6,273.7,190.4,271.5,189,267.5z"/>
		<path class="st12" d="M217.8,298.1c-2.3,3-4.6,6.1-6.8,9.1C212,303.3,213.9,299.9,217.8,298.1z"/>
		<path class="st12" d="M190.2,275.5c3,1.2,6.1,2.3,8.2,5C195,279.8,192.2,278.3,190.2,275.5z"/>
		<path class="st12" d="M197.6,273.7c-2.6-2.5-5.5-4.9-8.1-7.4C193.3,267.5,195.8,270.2,197.6,273.7z"/>
		<path class="st12" d="M203.6,272c0.2,3.4,0.4,6.9,0.5,10.3C202.8,278.9,202.3,275.5,203.6,272z"/>
		<path class="st12" d="M212.7,307.4c0.3-2.5,2.3-3.7,3.9-5.7c0,0.1,0.1-0.3,0.1-0.7c0.3-0.1,0.8-0.2,1.1-0.2
			C217,303.5,215.1,305.7,212.7,307.4z"/>
		<path class="st12" d="M212.5,294.9c0.1-1,0.2-1.9,0.3-2.5c0.6-1.1,0.8-1.8,1.2-2.7c0-0.1-0.1-0.1-0.1-0.1c0.4-1.1,1-2.1,1.6-3.2
			C215.4,289.5,214.3,292.2,212.5,294.9z"/>
		<path class="st12" d="M199.6,278.3c-2.9-0.7-5.3-2.1-7.7-3.9C194.9,274.8,197.3,276.3,199.6,278.3z"/>
		<path class="st12" d="M200.2,278.3c0.1,0,0.2-0.1,0.2-0.1c0.5,0.8,1,1.5,1.5,2.2c-0.4-0.4-0.7-0.7-1.1-1
			C200.7,279.1,200.4,278.7,200.2,278.3z"/>
		<path class="st12" d="M205.9,286.7c-0.1,0-0.2,0-0.3,0.1c-0.2-0.3-0.4-0.8-0.6-1.1c0.1-0.3,0.2-0.7,0.3-1
			C205.6,285.4,205.8,286.1,205.9,286.7z"/>
		<path class="st12" d="M208.7,294.5c0.3,1,0.5,2,0.8,3C209.2,296.5,209,295.5,208.7,294.5z"/>
		<path class="st11" d="M202.3,281.4c0.1-0.1,0.1-0.1,0.2-0.2c0.2,0.4,0.5,0.8,0.7,1.2c-0.1,0.1-0.2,0-0.3,0.1
			C202.7,282.1,202.5,281.7,202.3,281.4z"/>
		<path class="st12" d="M200.1,277.9C199.4,277.3,199.3,277.3,200.1,277.9C199.5,277.1,199.6,277.3,200.1,277.9z"/>
		<path class="st12" d="M204.7,290.4c0.2,0,0.3,0.1,0.4,0.1C205,290.5,204.9,290.6,204.7,290.4z"/>
		<path class="st12" d="M188.8,267.1c0.1,0.2,0.2,0.3,0.3,0.4C189,267.4,188.9,267.3,188.8,267.1z"/>
		<path class="st12" d="M208.2,306.3c0.1,0.1,0.3,0.2,0.4,0.3C208.5,306.5,208.3,306.4,208.2,306.3z"/>
		<path class="st12" d="M215.3,286.3c0.1-0.1,0.1-0.3,0.1-0.3C215.4,286.1,215.4,286.1,215.3,286.3z"/>
		<path class="st12" d="M201.4,295.4c-0.1,0-0.1-0.1-0.2-0.1C201.3,295.3,201.4,295.4,201.4,295.4z"/>
		<path class="st12" d="M204.5,284c0,0.1,0,0.1,0.1,0.1l-0.1,0.1c-0.1-0.1-0.1-0.1-0.2-0.2C204.4,284,204.5,284,204.5,284z"/>
		<path class="st12" d="M200.1,280.9c0.1,0,0.3,0.1,0.3,0.1C200.3,281,200.2,280.9,200.1,280.9z"/>
		<path class="st12" d="M198.9,276.5c0.1,0.1,0.1,0.2,0.1,0.2l-0.1,0C198.9,276.7,199,276.6,198.9,276.5L198.9,276.5z"/>
		<path class="st12" d="M209.1,294.3c0.1,0.3,0.2,0.6,0.3,1.1C209.4,295,209.3,294.6,209.1,294.3z"/>
		<path class="st12" d="M207.5,290.7c-0.4-0.3-0.6-0.4-0.7-0.5c0.1-0.1,0.2-0.2,0.3-0.2C207.2,290.1,207.3,290.2,207.5,290.7z"/>
		<path class="st12" d="M204.6,284.2c0,0.1,0.1,0.1-1.1-1.1C204.6,284.4,204.6,284.3,204.6,284.2
			C204.5,284.2,204.6,284.1,204.6,284.2z"/>
		<path class="st11" d="M208.2,303.1c0.1,0.2,0.1,0.3,0.2,0.5C208.3,303.3,208.3,303.2,208.2,303.1z"/>
	</g>
</g>
<path class="st9" d="M322.2,419.3L322.2,419.3c-2.7,3.2-7.3,3.9-10.6,1.5L279,397.5c-3.8-2.7-4.5-8-1.5-11.5l0,0
	c2.6-3.2,7.2-3.8,10.6-1.4l32.7,23.2C324.5,410.5,325.2,415.8,322.2,419.3z"/>
<path class="st9" d="M463.2,420.1L463.2,420.1c3.8,3.1,9.6,2.8,13.1-0.6l33.4-32.6c3.9-3.8,3.6-9.9-0.6-13.3l0,0
	c-3.8-3.1-9.6-2.8-13.2,0.6l-33.4,32.6C458.7,410.5,459,416.7,463.2,420.1z"/>
<path class="st6" d="M350.5,321.9l33.1,43.3c1.1,1.5,1.1,3.6-0.1,5l-8.7,10.7c-0.5,0.7-0.8,1.4-0.8,2.3c-0.5,5.6-2.2,28.8-3,49.3
	c-0.2,4.5-3.3,69.1-1.6,72.8c3.5,7.6,9.3,14.5,12.3,17.7c1.1,1.2,1.4,3,0.7,4.5c-1.5,3.1-4.7,7-15.3,16.8
	c-6.4,5.9-13.7,11.1-22.4,8.8l-27.3-7.3c-1.8-0.5-3.1-2.2-3-4c4.7-132.1,4.7-131.7,4.6-136.3c0-3.7,5.7-63.5,7.1-77.5
	c0.2-1.7,1.4-3.2,3.1-3.6l17.3-4C347.9,320,349.5,320.7,350.5,321.9z"/>
<path class="st7" d="M335.1,483.4H362c2.5,0,4.6,2.1,4.6,4.6l0,0c0,2.5-2.1,4.6-4.6,4.6h-26.9c-2.5,0-4.6-2.1-4.6-4.6l0,0
	C330.5,485.5,332.6,483.4,335.1,483.4z"/>
</svg>
