<?xml version="1.0" encoding="utf-8"?>
<!-- Generator: Adobe Illustrator 26.0.3, SVG Export Plug-In . SVG Version: 6.00 Build 0)  -->
<svg version="1.1" id="Calque_1" xmlns="http://www.w3.org/2000/svg" xmlns:xlink="http://www.w3.org/1999/xlink" x="0px" y="0px"
	 viewBox="0 0 413 323.3" style="enable-background:new 0 0 413 323.3;" xml:space="preserve">
<style type="text/css">
	.st0{fill:#E0B9A0;}
	.st1{fill:none;stroke:#383434;stroke-width:5;stroke-linecap:round;stroke-miterlimit:10;}
	.st2{fill:#383434;}
	.st3{fill:#CCAA97;}
	.st4{fill:#ED9170;}
	.st5{fill:#4E6566;}
	.st6{fill:#ED5875;}
	.st7{fill:#7EA885;}
</style>
<path class="st0" d="M36.6,114.8c0.7-0.3,1.3-0.5,1.8-1.1c2.2-2.7,9.2-10.8,9.8-12.7c0.6-2.3,2.1-12.6,2.9-14.4
	c0.8-1.8,8.1-10.4,7-11.1c-0.6-0.4-2.4-1.2-3.8-1.9c-1.3-0.6-2.9-0.4-3.9,0.6l-4.7,4.3c-0.4,0.4-0.7,0.9-0.9,1.2l-1.6,4.2
	c-0.7,1.9-3.4,1.7-3.8-0.3l0.2-3.1c-0.1-0.2-3.2-6.3-3.2-6.4c-1.4-2.7-7.5-0.8-7.5-0.8c-0.1-0.1-5,1.6-6.8,2.2
	c-0.4,0.2-0.9,0.4-1.3,0.5l-3.9,1.8c-3.4,1.5-6.1,4-7.9,7.2c-0.7,1.5-1.2,2.8-0.7,3.7c0.2,0.2,0.3,0.5,0.3,0.8l7.8,23.6
	c0.2,0.8,0.8,1.4,1.3,1.9l3.5,2.4c0.9,0.5,1.9,0.7,2.9,0.5L36.6,114.8z"/>
<g>
	<line class="st1" x1="23.1" y1="89" x2="382.5" y2="89"/>
	<path class="st2" d="M380.4,122.4l11.7-5.4c1.9-0.9,3.1-2.9,2.9-5c-0.7-7.2-2.3-23-4.5-24.3c-2-1.2-8.3-0.9-11.5-0.8
		c-1.3,0.1-0.8,1.9-0.8,1.9s7.2-1,6.6,1.6l-9.8,26.8C373.7,120.7,377.2,123.9,380.4,122.4z"/>
</g>
<path class="st0" d="M35.8,91l-12,5c-3.7,1.5-8.1-0.3-9.7-4.1l0,0c-1.5-3.7,0.3-8.1,4.1-9.7l12-5c3.7-1.5,8.1,0.3,9.7,4.1l0,0
	C41.4,85.2,39.5,89.5,35.8,91z"/>
<path class="st0" d="M246.1,199.1c-6.1-4-8.8-0.7-15.1,2.8c-10.8,6-17.4,26.1-29.4,28.9c-4.3,1-14-16.6-15.1-23.5
	c-1.7-10.3,2.8-30.3-9.3-40.7c-10.1-8.7-23.7-4.1-28.1-18c-7.7-24.3,14.9-42.4,25.8-46.7c16.8-6.5,40.9-5.6,48-15.7l1-30.5l0.8-22.3
	l20.2-0.9h2.4l20.2,0.9l0.8,22.3l1,30.5c7.1,10,31.3,9.3,48,15.7c11,4.3,33.5,22.5,25.8,46.7c-4.4,13.9-17.9,9.3-28.1,18
	c-12,10.3-7.6,30.3-9.3,40.7c-1.1,6.8-10.9,24.5-15.1,23.5c-11.9-2.8-18.6-23-29.4-28.9C254.9,198.5,252.2,195.2,246.1,199.1"/>
<path class="st3" d="M223.5,86.7c0,0,35.1,12.6,45.4-11.9l-1.4-41.2h-42.8L223.5,86.7z"/>
<path class="st4" d="M204,127.4c-19.3,25-70.7,67.1-83.9,78.7c-6.3,5.4-22.7,15.8-31,6l0,0c-10-13.1,0.4-26.5,6-32.3
	c11.2-11.8,36.2-33.4,45.3-47c6.8-10,11.5-21.4,29.8-29c0,0,18.2-8.8,29.1,0.7C206.3,110.5,207.3,118,204,127.4L204,127.4z"/>
<path class="st0" d="M114.7,212.7c12.3-11.2,3.9-20.9-0.1-26.5c-4.3-6.1-58.3-55.3-72.7-69c-8.1-7.7-12.2-12.1-17.3-7.7
	c-4.6,4,0.6,14.2,3.2,18c24.5,35.8,29.9,44.4,63.3,83.2C104.8,226.6,111.5,215.6,114.7,212.7z"/>
<path class="st5" d="M294.3,122.6c1.8,21.8,16.3,26.6,24.1,33.6c12.5,11.2,26.8,41.2,36.6,54.4c4.6,6.2,17.9,19,28.3,12.3l0,0
	c13-9.2,4-26.1,0.1-32.5c-7.8-12.9-34.8-69.8-50.5-80.6c0,0-15.3-11.9-28.2-6.2C296.5,107.4,293.5,113.7,294.3,122.6z"/>
<path class="st0" d="M383.7,197.5c-10.2-6.1-17.5,2.9-22.8,11.5c-3.8,6.1-34.7,69.2-43.3,86.1c-4.8,9.6-7.8,14.6-2.4,18.1
	c4.8,3.2,14.5-5.3,17.2-8.7c28.2-35.9,47.1-51.4,57.2-80.5C396.2,205,387.3,199.5,383.7,197.5z"/>
<path class="st6" d="M101.9,169.5c0,0-59.8-64.1-62-56.6c0,0-15.9,9.4-17.1,13.6c-1.4,5.8,59.5,84.3,63.9,88.4
	c5.6,5.3,13,11.2,16.3,9.9c5.7-2.3,64.9-60.5,68.8-57.9c3.9,2.6,15.4,64.1,15.8,67.8c0.3,3.7,2.9,37.6,2.9,37.6h109.9
	c0,0,0.8-41.2,0.9-44.3c0.1-3.1,17.3-68.8,20.6-64.6c3.3,4.2,34,52,34,52l-34.7,64.9l21.2,15.5l38.8-45.3c5.1-6,8.8-12.8,10.9-20.3
	l0.3-1c3.1-10.6,1.7-22.1-3.9-31.6l-42-75.3c-5.7-9.8-15.7-17-26.4-21.1l-10.8-4.1l-40-11c0,0-14.7,19.2-46.4,0l0,0l-45.4,11.9
	c-9.7,2.5-18.4,8-24.9,15.7L101.9,169.5z"/>
<path class="st6" d="M182.1,290.5L182.1,290.5c0-11,7.6-22.8,6.7-42.3h112.1c-0.2,19.6,8.3,31.4,8.3,42.3l0,0
	c0,11-5.7,19.8-12.9,19.8l0,0H195C187.8,310.4,182.1,301.5,182.1,290.5z"/>
<path class="st0" d="M267.7,292.5l10.9-5.1c0.1-0.1,0.3-0.1,0.4-0.1l17.5-1.9c3.4-0.4,6.7,0.8,9.1,3.3l10.5,10.6
	c0.4,0.4,0.8,0.5,1.3,0.3l5.9-2.1c0.7-0.2,1.3,0.1,1.6,0.7c1,2.6,3.5,9.3,1.9,10.8c-3.3,2.9-7.3,6.4-10.3,6.3
	c-4.3-0.2-14.3-7.4-16.6-9.1c-0.3-0.3-0.7-0.3-1.1-0.2l-9.5,3c-0.1,0-0.2,0.1-0.3,0.2c-1,0.7-7.7,5-8.1,5.2
	c-3.2,1.3-10.4-4.1-13.1-6.3c-0.6-0.5-0.7-1.3-0.1-1.9l9.1-8.9c0.1-0.1,0.2-0.1,0.2-0.2l3.6-2.1c1.1-0.7,0.6-2.5-0.8-2.2l0,0
	c-0.1,0-0.3,0.1-0.4,0.1c-0.6,0.3-2.4,1.2-4.2,2.1c-2.3,1.1-5,1-7.4-0.1c-0.2-0.1-0.3-0.2-0.5-0.2
	C266.7,294.2,266.7,293,267.7,292.5z"/>
<polygon class="st7" points="308,201.3 187.5,233.8 173.4,169.7 318,169.5 "/>
<polygon class="st7" points="156.9,177.3 122.4,147 138.8,128.9 169.9,167.4 "/>
</svg>
