<?xml version="1.0" encoding="utf-8"?>
<!-- Generator: Adobe Illustrator 26.0.1, SVG Export Plug-In . SVG Version: 6.00 Build 0)  -->
<svg version="1.1" id="Calque_1" xmlns="http://www.w3.org/2000/svg" xmlns:xlink="http://www.w3.org/1999/xlink" x="0px" y="0px"
	 viewBox="0 0 788 1005" style="enable-background:new 0 0 788 1005;" xml:space="preserve">
<style type="text/css">
	.st0{fill:#8E5249;}
	.st1{fill:#83B5C6;}
</style>
<g id="Calque_9">
	<path class="st0" d="M466.1,816.2c-5.3,1-51.2-1.7-51.2-1.7s-9-118.5-8.4-113.4l-6-57.8c0,0-4,61.6-4,60.6s2.7,108.8,2.7,108.8
		l-60.4,2.8l1.7-235h3.8c2,0.5,4.1,0.6,6.2,0.3c2.8-0.5,69.2-0.2,99.8-0.2l4.5-0.1l10,125.2L466.1,816.2z"/>
	<path class="st1" d="M379.4,823.2h-28.7l0-5c0-5.9,6.4-10.7,14.4-10.7l0,0c7.9,0,14.3,4.7,14.4,10.6L379.4,823.2z"/>
	<path class="st1" d="M454.5,823.2h-28.7v-5c-0.1-5.9,6.4-10.7,14.4-10.7l0,0c7.9,0,14.3,4.7,14.4,10.6L454.5,823.2z"/>
</g>
</svg>
