<?xml version="1.0" encoding="utf-8"?>
<!-- Generator: Adobe Illustrator 26.0.1, SVG Export Plug-In . SVG Version: 6.00 Build 0)  -->
<svg version="1.1" id="Calque_1" xmlns="http://www.w3.org/2000/svg" xmlns:xlink="http://www.w3.org/1999/xlink" x="0px" y="0px"
	 viewBox="0 0 235.6 238" style="enable-background:new 0 0 235.6 238;" xml:space="preserve">
<style type="text/css">
	.st0{fill:#D68F72;}
	.st1{fill:#8E5736;}
	.st2{fill:#BD958C;}
	.st3{fill:#AC7C73;}
	.st4{fill:#BE978F;}
	.st5{fill:#83443B;}
	.st6{fill:#6665C5;}
</style>
<g id="Calque_9">
	<path class="st0" d="M31.7,127c1.3,5.8,9,10.3,18.1,10.4l0,0c8.7,0.1,16.1-3.8,17.7-9.3c0,0,9.4-39.3,9.6-53.4
		c0-3.3-1.7-13.3-1.7-13.3l-4.2-23.3c0,0-2.9-11-20.8-12.3c-20.6-1.5-21,5.6-21,5.6s-6.6,37-6.4,48.7C23.3,90.8,31.7,127,31.7,127z"
		/>
	<path class="st0" d="M178.9,122.7c0.8,5.9-5.2,10.9-14.1,11.8l0,0c-8.5,0.9-17.2-2.3-20.8-7.6c0,0-23.3-37.8-28.6-51.7
		c-1.2-3.3-3.1-13.3-3.1-13.3l-4.2-23.3c0,0-1-11.1,16.1-14c19.7-3.4,22.6,3.7,22.6,3.7s19.7,35.8,23.7,47.3
		C174.3,86.3,178.9,122.7,178.9,122.7z"/>
	<path class="st1" d="M49.7,117.7c-9.8,0.1-15.6,2.8-17.1,7.2c0,0-1.6,19.5-1.8,27.7c-0.4,13.2,2.6,40,6.9,53c0.9,2.8,3,11.4,3,11.4
		c0.7,2.5,4.9,4.4,9.6,4.3l0,0c4.7-0.1,8.5-2.1,8.8-4.6c0,0,0.9-9.9,1.5-13.2c2.4-11.9,10.1-35.7,10.7-47.7
		c0.3-7.2-2.5-29.3-2.5-29.3C67.8,119.2,58.2,117.8,49.7,117.7L49.7,117.7z"/>
	<path class="st1" d="M162.1,113.6c9.7-0.7,16.2,1.5,18.9,5.8c0,0,8,18.4,10.6,26.6c4.1,13.2,3.6,65.3,3.6,65.3
		c0.1,2.6,0.3,6.1-4.5,6.4l0,0c-4.7,0.3-10.4-0.8-11.4-3.3c0,0-23.8-48.7-27.7-60.7c-2.4-7.2-5.8-29.7-5.8-29.7
		C144.7,116.7,153.8,114.4,162.1,113.6z"/>
	<path class="st2" d="M37.7,216.5L37.7,216.5c-4.3,4.8-22.2,11.2-22.2,11.2c-3.2,1.3-4.8,3.5-4,5.7l0,0l43.9-0.1l2.4-0.4
		c2.8-0.5,4.7-1.9,4.4-3.5l-2.5-11.6c-1.3-2.9-6.2-5.8-11.6-4.8C45.2,213.4,39.9,215,37.7,216.5z"/>
	<path class="st3" d="M12.6,232.9L12.6,232.9c-0.6-1.9,1.9-3.7,5.5-4l26.1-1.7c3.4-0.3,6.5,0.5,7.3,2.3l1.5,3.3L12.6,232.9z"/>
	<path class="st4" d="M188.9,215.7c4.5-1.1,4-3.3,5.7-4.5c1-0.7,5.6-1.6,6.3-0.7c8.6,10.3,30,18.8,30,18.8c4,1.7,5.1,4.1,4.6,6.7
		l0,0c0,0-16.9,3.5-33.6,1.3c-3.6-0.5-12.1-1.5-12.1-1.5s-15.5,0.3-14.9-2.9l1.7-19C177.7,210.5,181.1,217.7,188.9,215.7z"/>
	<polygon class="st5" points="8.2,155.9 83.7,157.6 103.9,87.7 130.2,154.6 211.9,145.7 155.4,6.3 153.2,0 34.2,0.9 	"/>
	<polygon class="st5" points="19.6,104.9 3.2,105.3 9.9,72 25.4,56.4 	"/>
	<polygon class="st5" points="190.6,103.8 208.9,96.5 193.3,64 168,56.7 	"/>
	<polygon class="st6" points="86.7,160.5 0,158.8 5,144.6 86.7,151.2 	"/>
	<polygon class="st6" points="217.4,148.7 122.5,155.8 121.3,141.3 217.4,140.3 	"/>
</g>
</svg>
