<?xml version="1.0" encoding="utf-8"?>
<!-- Generator: Adobe Illustrator 26.0.3, SVG Export Plug-In . SVG Version: 6.00 Build 0)  -->
<svg version="1.1" id="Calque_1" xmlns="http://www.w3.org/2000/svg" xmlns:xlink="http://www.w3.org/1999/xlink" x="0px" y="0px"
	 viewBox="0 0 788 1005.1" style="enable-background:new 0 0 788 1005.1;" xml:space="preserve">
<style type="text/css">
	.st0{fill:#375D63;}
	.st1{fill:#E0B9A0;}
	.st2{fill:#CCAA97;}
	.st3{fill:#BC3737;}
	.st4{fill:#EAD3D3;}
	.st5{fill:#F49595;}
	.st6{fill:#FFFFFF;}
	.st7{fill:#D2DAE4;}
	.st8{fill:none;stroke:#D2DAE4;stroke-width:2;stroke-miterlimit:10;}
	.st9{fill:none;stroke:#EAD3D3;stroke-width:3;stroke-linecap:round;stroke-miterlimit:10;}
</style>
<path class="st0" d="M481.8,486.8c-23.3,2.5-44.5,10-69.8,18.3c0,0-11.5,0.5-10.8-0.1l-70.8-16.6l5.9-58.4
	c1.1-10.7,10.1-18.8,20.8-18.8H457c11,0,20.1,8.5,20.8,19.4L481.8,486.8z"/>
<path class="st1" d="M280.8,233.1c2.4-0.2,4.4-1.7,5.2-3.9c2.3-5.9,5.1-16.7,6.1-18.5c1.3-2.3,13.6-26.7,12.3-26.9
	c-0.8-0.1-3.6,0.5-5.6,1c-1.5,0.4-2.8,1.3-3.7,2.6l-4.8,7.4c-1.6,2.4-5.2,1.8-6-0.9l-6-21.2c0,0-9.1-36-10.2-34.8
	c-1,0.9-2,1.7-3.1,2.6c-1.8,1.4-2.7,3.7-2.3,6l4.9,26.2c0.3,1.5,0,3.1-0.9,4.4l-13.5,21.2c-1,1.5-1.2,3.4-0.7,5.1
	c1.9,5.9,6.3,19.5,8.1,22.1c0.7,1,5.1,9.1,8.9,8.6C271.2,233.8,277.1,233.3,280.8,233.1z"/>
<rect x="386.4" y="169.5" class="st2" width="39.5" height="47.4"/>
<path class="st3" d="M259.2,360.9L259.2,360.9c7.5,6.2,18.6,5.2,24.9-2.3c0.1-0.1,0.2-0.2,0.2-0.3l54.7-58.2l-17.1-52.3l-21.4,35.6
	L256.9,336C250.7,343.6,251.7,354.7,259.2,360.9z"/>
<path class="st3" d="M490.7,247.9l20.8,32.7l48.2,60.1c6.2,7.7,5.3,18.9-2.1,25.6l0,0c-7.6,6.8-19.2,6.3-26.2-1.1l-56.7-60.8
	L490.7,247.9z"/>
<path class="st3" d="M251.8,346.9l12.2-91.3c0.1-0.6,0-1.1-0.3-1.6l-3.9-6.6c-0.4-0.7-0.5-1.5-0.2-2.2l3.1-8.2
	c0.3-0.7,0.9-1.3,1.6-1.5l20.9-6.5c1.5-0.5,3,0.5,3.2,2l1.1,7.1c0.1,0.7,0.6,1.4,1.2,1.8l0,0c1.1,0.6,1.5,2,1.1,3.1l-5.6,14
	c-0.1,0.3-0.2,0.7-0.2,1.1c0.3,6.8,3.4,74.6,3,77.3c-0.4,2.6-1.3,13.1-1.5,14.9c0,0.2,0,0.3-0.1,0.5l-0.4,1.5
	c-2.3,8.4-10.3,13.9-18.9,13.1l0,0c-8.7-0.8-15.6-7.8-16.3-16.5l-0.1-1.2C251.8,347.3,251.8,347.1,251.8,346.9z"/>
<path class="st4" d="M490.7,247.9c0,3-15.9,53.5-15.9,56.5s-0.6,78.6-0.6,78.6L493,511c1.5,10-5.4,19.2-15.4,20.7
	c-0.1,0-0.2,0-0.2,0s-53.1,10.1-71,9.5c-17.3-0.7-67.8-14.4-67.8-14.4c-9.2-2-15.4-10.6-14.3-20l15.4-128.2l-0.7-78.4l-17.1-52.3
	l61-26.4l2.5-17.7l44.5,0.4l2,18.3L490.7,247.9z"/>
<path class="st1" d="M478.8,465.1c5.7-3.7,15-5.7,16-6.3s16.4,5.6,16.2,6.4s-5.7,25.1-7.1,26.1s-5.7,6.6-6.6,6.6
	c-0.7,0-13.7-3.7-19.3-5.3c-1.7-0.5-3.1-1.5-4.1-2.9l-4.5-6.3c-2.1-2.9-1.8-6.9,0.6-9.5C473.6,470,478.3,465.4,478.8,465.1z"/>
<path class="st3" d="M506.2,466.2l-12.7-6.9c-2-1.1-3-3.3-2.5-5.5l0.7-3.2c0.2-1,0.1-2.1-0.3-3l0,0c-0.8-1.9-0.4-4.1,1-5.5l7.9-7.9
	c0.6-0.6,1-1.2,1.2-2l25.9-79.4c0.1-0.3,0.2-0.6,0.4-0.9l4.1-7.3c4.6-8.2,14.7-11.6,23.3-7.7l0,0c9.2,4.1,13.2,14.9,9.1,24
	c-0.1,0.3-0.3,0.7-0.5,1L521.9,441c-0.4,0.7-0.6,1.5-0.6,2.3c0,3.9-0.2,16.1-0.9,15.9c-0.6-0.1-3,1.1-4.4,1.9
	c-0.7,0.4-1.3,0.9-1.7,1.6l-1.4,2C511.3,466.7,508.5,467.4,506.2,466.2z"/>
<g id="J0zEi2_00000043430484336753644840000018425594198940508301_">
	
		<image style="overflow:visible;" width="564" height="564" id="J0zEi2" xlink:href="EDEE8CCD80C021FE.jpg"  transform="matrix(1 0 0 1 -913.997 -300.6491)">
	</image>
</g>
<g>
	<path class="st5" d="M287.1,222.5h-30.6c-4.5,0-8.1-3.6-8.1-8.1v-77.1c0-4.5,3.6-8.1,8.1-8.1h30.6c4.5,0,8.1,3.6,8.1,8.1v77.1
		C295.2,218.9,291.6,222.5,287.1,222.5z"/>
	<path class="st6" d="M290,216.7h-36.4c-1.2,0-2.3-1-2.3-2.3v-74.2c0-1.2,1-2.3,2.3-2.3H290c1.2,0,2.3,1,2.3,2.3v74.2
		C292.3,215.7,291.3,216.7,290,216.7z"/>
	<path class="st6" d="M280.6,134.2h-17.5c-0.3,0-0.6-0.3-0.6-0.6v-0.3c0-0.3,0.3-0.6,0.6-0.6h17.5c0.3,0,0.6,0.3,0.6,0.6v0.3
		C281.2,133.9,280.9,134.2,280.6,134.2z"/>
	<circle class="st7" cx="271.8" cy="171.3" r="9.9"/>
	<path class="st7" d="M285,216.9h-26.4v-21.6c0-6,4.8-10.8,10.8-10.8h4.8c6,0,10.8,4.8,10.8,10.8V216.9z"/>
	<path class="st8" d="M278.4,155c-1.7-1.7-4-2.7-6.6-2.7c-2.6,0-4.9,1-6.6,2.7"/>
	<path class="st8" d="M280.3,152.4c-2.1-2.4-5.1-3.9-8.5-3.9c-3.4,0-6.5,1.5-8.5,4"/>
	<path class="st8" d="M283,149.3c-2.5-3.4-6.6-5.6-11.2-5.6c-4.6,0-8.7,2.2-11.2,5.7"/>
	<path class="st8" d="M276.5,157.5c-1.1-1.3-2.8-2.1-4.6-2.1c-1.9,0-3.5,0.8-4.7,2.1"/>
</g>
<path class="st5" d="M228.4,125.6c4.1-6.6,6.5-14.3,6.5-22.6c0-23.6-19.1-42.8-42.8-42.8s-42.8,19.1-42.8,42.8
	c0,23.6,19.1,42.8,42.8,42.8c7.1,0,13.8-1.8,19.7-4.8l18.4,4.5c0.6,0.2,1.2-0.4,1.1-1L228.4,125.6z"/>
<path class="st9" d="M192.1,60.2"/>
<path class="st9" d="M192.1,60.2c-23.6,0-42.8,19.1-42.8,42.8c0,23.6,19.1,42.8,42.8,42.8c7.1,0,13.8-1.8,19.7-4.8l18.4,4.5
	c0.6,0.2,1.2-0.4,1.1-1l-2.9-18.8c4.1-6.6,6.5-14.3,6.5-22.6"/>
<path class="st4" d="M208.1,89.6c-4.4-3.2-10.4-2.4-14.2,1.4l-1.8,1.8c0,0,0,0,0,0l-2.1-2.1c-4.2-4.2-11.1-4.2-15.4,0l0,0
	c-4.2,4.2-4.2,11.1,0,15.4l2.1,2.1l0,0l14.8,14.8c0.3,0.3,0.8,0.3,1.1,0l14.8-14.8l0,0l2-2C214.2,101.5,213.7,93.7,208.1,89.6z"/>
</svg>
