<?xml version="1.0" encoding="utf-8"?>
<!-- Generator: Adobe Illustrator 26.0.3, SVG Export Plug-In . SVG Version: 6.00 Build 0)  -->
<svg version="1.1" id="Layer_1" xmlns="http://www.w3.org/2000/svg" xmlns:xlink="http://www.w3.org/1999/xlink" x="0px" y="0px"
	 viewBox="0 0 788 1005.1" style="enable-background:new 0 0 788 1005.1;" xml:space="preserve">
<style type="text/css">
	.st0{fill:#E0B9A0;}
	.st1{fill:#4C443F;}
	.st2{fill:#375D63;}
	.st3{fill:#161615;}
	.st4{fill:#5A5A5A;}
	.st5{fill:#C58C85;}
	.st6{fill:#CCAA97;}
	.st7{fill:#3D3D3D;}
	.st8{fill:none;stroke:#9B9B9B;stroke-miterlimit:10;}
</style>
<path class="st0" d="M502,256.7c4.6,8.5,5.5,38.4,5.5,38.4l19.3,74.6c2.5,9.6-3,19.4-12.4,22.5l0,0c-9.7,3.1-20.1-2.1-23.4-11.8
	l-27.4-88.5l27.1-45C490.7,246.9,500.2,253.4,502,256.7z"/>
<path class="st1" d="M501.9,346.2c1-1.8,2.2-3.5,3.1-5.4c0.7-1.4,0.6-2.9-0.4-4.3c-0.9-1.3-2-1.5-3.2-0.6c-1.8,1.3-3.6,2.6-5.4,3.9
	c-1.6,1.1-3.4,2-5.4,2.2c-5.4,0.4-9.4-4.1-8.9-9.8c0.3-3.6,2.8-6.5,6.7-7.5c2.1-0.6,4.2-0.7,6.3-1.2c1.2-0.3,2.3-0.7,3.4-1.3
	c0.9-0.5,1.6-1.5,1.1-2.6c-0.4-1-1.6-1.2-2.5-1c-1.6,0.5-3.1,1.1-4.6,1.8c-1.8,0.8-3.5,1.9-5.3,2.7c-4.1,1.7-9.1-0.6-10.5-4.7
	c-1.1-3.2,0.7-7.2,4.1-8.6c2.6-1.1,5.2-1.3,7.9-0.6c1.1,0.3,2.2,1.1,3.1,1.8c0.7,0.5,0.9,1.3-0.1,1.8c-1.1,0.6-2.3,1.3-3.5,1.5
	c-0.8,0.2-1.8-0.3-2.5-0.7c-1.2-0.7-2.4-1.8-3.9-0.8c-1.4,0.8-2.5,1.9-2.4,3.7c0.1,1.8,1,3.3,2.6,4c0.6,0.3,1.5,0.2,2.2-0.1
	c3.1-1.5,6.1-3.2,9.1-4.8c0.9-0.5,1.9-1,2.8-1.4c3.4-1.2,7.2,0.9,8.4,4.5c1.1,3.4-0.8,7-4.4,7.8c-1.1,0.3-2.3,0.1-3.5,0
	c-3.1-0.3-6.1,0.1-8.8,1.9c-1.6,1.2-2.5,2.7-2.7,4.7c-0.4,4,4.5,6.7,7.5,4.8c1.9-1.2,3.6-2.9,5.5-4.2c1.2-0.9,2.5-1.8,3.9-2.2
	c3.3-1,6.1,1.1,6,4.6C507.4,340.5,505.1,343.7,501.9,346.2z M486.9,313c0.1-0.1,0.1-0.2,0.2-0.3c-0.3-0.2-0.7-0.5-1-0.7
	c-0.1,0.1-0.2,0.2-0.2,0.4C486.2,312.5,486.5,312.7,486.9,313z"/>
<g id="Calque_1">
	<path class="st2" d="M481.8,486.8c-23.3,2.5-44.5,10-69.8,18.3c0,0-11.5,0.5-10.8-0.1l-70.8-16.6l5.9-58.4
		c1.1-10.7,10.1-18.8,20.8-18.8H457c11,0,20.1,8.5,20.8,19.4L481.8,486.8z"/>
</g>
<polygon class="st0" points="269.7,242.1 264.4,223.4 244.9,220.4 252.1,256 "/>
<polygon class="st0" points="427.4,169.5 387.9,169.5 387.9,218.9 401.4,267.9 417,267.9 427.4,218.9 "/>
<path class="st0" d="M259.2,360.9L259.2,360.9c7.5,6.2,18.6,5.2,24.9-2.3c0.1-0.1,0.2-0.2,0.2-0.3l54.7-58.2l-17.1-52.3l-21.4,35.6
	L256.9,336C250.7,343.6,251.7,354.7,259.2,360.9z"/>
<path class="st0" d="M252.6,349.8l-3.9-111l-1.5-14.3l17.2-1.2c2.5-0.5,23.9,105.6,23.1,108.6c-0.8,2.7,1,15.1,1,15.1l-0.2,1.8
	c-0.9,8.7-7.9,15.4-16.5,16l0,0c-8.7,0.6-16.7-5.1-18.8-13.6L252.6,349.8z"/>
<path class="st3" d="M474.8,304.4c0,2.7-0.5,63.2-0.6,76.2c0,1.6,0.1,3.2,0.3,4.8L493,511c1.5,10-5.4,19.2-15.4,20.7
	c-0.1,0-0.2,0-0.2,0s-53.1,10.1-71,9.5c-17.3-0.7-67.8-14.4-67.8-14.4c-9.2-2-15.4-10.6-14.3-20l15.2-126.2c0.2-1.3,0.2-2.7,0.2-4
	l-0.6-71.5c0-1.6-0.2-3.2-0.4-4.8"/>
<path class="st3" d="M473,247.9l2.5,42.7l-0.7,14.6l-52.5,11.7l-83.5-15.3l-0.5-7.6l18.7-52.6l31.1-23.9c0,0,34.2-0.8,38.8-0.8
	c0.3,0,0.6,0.1,0.9,0.3L473,247.9z"/>
<path class="st4" d="M338.6,300.2c-0.3-1.6-0.6-3.2-1.2-4.7L322,248.6c-1-2.9,0.5-6,3.4-7.2l61.9-24.3c0.3-0.1,0.6,0,0.7,0.3"/>
<path class="st5" d="M-191.2,137.1c-2.3,0.7-4.5-0.9-4.6-3.3c-0.3-11.8-9.3-28.2-12-34.9c-1.6-4.1-0.4-8.8,3.1-11.6
	c5-4,11.3-9.3,11-10.8c-0.5-2-3.1-24.7-4-33.1c-0.2-1.8,1-3.4,2.7-3.8l2.4-0.5c2-0.5,4,0.9,4.3,2.9l5.2,35.1c0.1,0.4,0.6,0.4,0.7,0
	l4.5-25.1c0.4-2.2,2.7-3.5,4.8-2.6l2.7,1.1c1.4,0.6,2.3,2,2.2,3.6l-3.1,35c-0.1,0.7,0.1,1.4,0.4,2l6.2,11.2c0.5,1,0.6,2.2,0.1,3.2
	l-11.7,25.6c-0.4,0.9-1.2,1.6-2.1,1.9L-191.2,137.1z"/>
<path class="st4" d="M484.8,321.7l-69.1,17.9c-2.3,0.6-3.9,2.7-3.8,5.1l3.7,96.7c0.1,3.4,3.4,5.7,6.6,4.7l59.5-18.8
	c2-0.6,3.4-2.4,3.5-4.5l5.9-95.8C491.3,323.5,488.1,320.9,484.8,321.7z"/>
<path class="st0" d="M410.2,421.4l-3.7-19.2c-0.4-1.9,3.4-4.8,5-5.7l3.6-2.1c0.8-0.5,1.4-1.1,1.8-2l0.3-0.7c0.7-1.6,2.4-2.6,4.1-2.5
	l11.8,4.6c0.7,0,9.6-0.4,10.2-0.7l58.9-29.2l9.5-4.2c0.3-0.1,0.5-0.2,0.8-0.3c3.6-0.8,3.1,0,1.6,1.9c-3,3.7,1.3,8.8,5.4,6.5l0.7-0.4
	c2.2-1.2,5-0.3,6,2c5.3,12.6-3,26.6-12.2,28.9l-72.3,16.5c-0.4,0.1-0.8,0.2-1.2,0.4l-10.8,6c-0.4,0.2-0.7,0.3-1.1,0.4l-6.2,1.4
	c-0.1,0-0.3,0.1-0.4,0.1l-6.1,1.5C413.8,425,410.7,423.6,410.2,421.4z"/>
<path class="st4" d="M428,217.1l60.5,24.6c2.7,1.1,4.2,4.1,3.4,7c-4.2,14.3-17.1,53.2-17.1,55.7"/>
<polygon class="st6" points="387.8,169.5 427.3,169.5 427.4,202.1 387.9,212.8 "/>
<path class="st0" d="M263.8,225.4c0.7-0.4,1.3-0.9,1.8-1.5c2-3.3,8.3-13.7,8.6-15.9c0.3-2.7,0-14.4,0.6-16.5
	c0.6-2.1,7.1-13.1,5.8-13.6c-0.8-0.3-2.9-0.9-4.6-1.5c-1.6-0.5-3.3,0.1-4.3,1.5l-4.4,5.7c-0.3,0.5-0.6,1.1-0.8,1.6l-1,5
	c-0.5,2.2-3.4,2.5-4.3,0.5l-0.4-3.5c-0.1-0.2-4.7-6.4-4.7-6.6c-2.1-2.7-8.5,0.5-8.5,0.5c-0.1-0.1-5.3,2.7-7.1,3.8
	c-0.5,0.3-0.9,0.6-1.3,0.9l-4,2.7c-3.5,2.3-6.1,5.6-7.4,9.4c-0.6,1.8-0.8,3.4,0,4.3c0.2,0.2,0.4,0.5,0.5,0.8l13.1,24.8
	c0.4,0.8,1.2,1.4,1.8,1.9l4.3,2.1c1.1,0.4,2.3,0.5,3.3,0L263.8,225.4z"/>
<path class="st4" d="M268.2,182c-1.8-1.6-3.6-3.1-5.5-4.7c-0.3,0.3-0.9,0.9-1.5,1.4c-0.9-1-1.7-1.9-2.6-2.8c0.5-0.6,1.3-1.4,2-2.3
	c-1-1.4-3.3-2.5-1.5-4.4c1.8-1.9,3,0.4,4.5,1.3c0.8-0.8,1.6-1.6,2.5-2.5c0.8,0.9,1.6,1.8,2.5,2.8c-0.4,0.5-0.9,1.2-1.7,2.3
	c1.6,1.4,3,3.5,4.9,4.1c1.6,0.5,2.9,0.9,4,2.1c0.1,0.1,0.1,0.1,0.2,0.2c0.1,0.9-2.4,1.8,0.1,2.8c0.5-0.6,1.1-1.3,1.7-2
	c-1.4-3.1-1.3-3.8,1.2-6.5c3.2-3.4,6.5-6.8,9.7-10.2c2.2-2.3,3.2-2.4,6.1-1c0.6-0.6,1.2-1.3,2.3-2.5c-1.7-1.4-3.3-2.6-4.8-3.9
	c-1.2-1.1-3-2.2-1.3-4c1.6-1.7,2.8,0.1,3.9,1.1c0.3,0.2,0.5,0.5,0.8,0.8c0.9,0.7,1.6,0.7,2.4-0.4c3.1-4.5,7.2-4.6,10.5-0.4
	c0.4,0.5,1.2,0.8,1.8,0.9c0.9,0.1,1.8,0,2.8,0c0,1.3,0.1,2.5,0.1,3.8c-0.8,0.1-1.5,0.2-2.3,0.2c-1.2,0-2,0.3-2.8,1.4
	c-0.9,1.2-2.3,2-3.3,2.9c3.5,3.3,7.3,6.9,11.1,10.6c1.8-2,3.2-0.4,4.7,1c1.3,1.2,1.7,2.5,0.2,4c0.4,0.5,0.8,1,1.2,1.6
	c-1.3,1.1-1.9,3.1-4.2,2.3c-0.4-0.1-1.3,0.6-1.8,1.1c-5.7,5.9-11.3,11.8-16.9,17.8c-0.6,0.7-0.5,2-1,2.9c-0.5,1.2-1.3,2.2-1.9,3.3
	c-8.2-7.8-16.1-15.5-24.1-23.1c-0.4,0.2-0.7,0.3-1.1,0.5c0.1,0.6-0.1,1.4,0.2,1.8c2.1,2.7,2.1,4.2-0.2,6.7
	c-5.2,5.5-10.4,11-15.6,16.5c-2.4,2.5-4.3,2.6-6.8,0.2c-1.4-1.3-2.8-2.6-4.1-3.9c-2.5-2.4-2.6-4.4-0.3-6.8
	c5.2-5.6,10.5-11.1,15.8-16.6c2.2-2.3,4-2.4,6.5-0.4c0.3,0.3,0.7,0.5,1,0.7C268,182.2,268.1,182.1,268.2,182z M297.5,165.2
	c1.6,2.8,1.5,4-0.6,6.2c-3.2,3.4-6.4,6.6-9.5,10.1c-1.9,2.1-3.8,3.4-6.4,1.6c-0.9,0.7-1.6,1.2-2.2,1.7c2.7,2.5,5.1,4.8,7.4,7
	c0.7-0.5,1.4-1.1,2.1-1.7c-1.6-2.7-1.5-3.9,0.4-5.9c3.4-3.6,6.8-7.1,10.2-10.7c2.3-2.4,3.3-2.6,6.2-1.2c0.6-0.6,1.2-1.2,1.6-1.6
	c-2.6-2.4-5-4.8-7.3-7C298.8,164.1,298.1,164.7,297.5,165.2z M310.1,173.3c-0.8,0.7-1.6,1.2-2.2,1.7c1.6,2.8,1.5,3.9-0.5,6
	c-3.2,3.4-6.4,6.6-9.5,10.1c-1.9,2.1-3.9,3.6-6.7,1.6c-0.7,0.8-1.3,1.5-1.7,1.9c1.5,1.4,2.8,2.7,4.1,3.9
	c6.8-7.2,13.6-14.4,20.4-21.6C312.7,175.8,311.3,174.5,310.1,173.3z M303.3,159.1c1-1.3,2-2.1,2-2.8c0-0.7-1.2-1.9-1.8-1.9
	c-0.7,0-1.8,1.1-1.9,1.8C301.5,156.9,302.4,157.7,303.3,159.1z"/>
<path class="st4" d="M234.8,216.5c2.8-3,5.7-6.1,8.4-9c1.2,1.2,2.5,2.4,3.7,3.5c-2.7,2.9-5.7,5.9-8.6,9
	C237.2,218.9,236,217.7,234.8,216.5z"/>
<path class="st7" d="M227.1,227.6c2.1-2.8,4.3-5.7,6.5-8.7c0.9,0.8,1.5,1.3,2.6,2.2c-2.9,2.5-5.6,4.8-8.4,7.2
	C227.6,228,227.4,227.8,227.1,227.6z"/>
<path class="st0" d="M260.1,198l-14.2,8.8c-3.9,2.4-9.1,1.2-11.5-2.7v0c-2.4-3.9-1.2-9.1,2.7-11.5l18.9-12.1l6.2,8.8
	C264,192.2,263.1,196.2,260.1,198z"/>
<path class="st8" d="M418.6,338.9c0-1.9,1.5-3.4,3.4-3.4s3.4,1.5,3.4,3.4s-1.5,3.4-3.4,3.4"/>
<path class="st8" d="M440,333.4c0-1.9,1.5-3.4,3.4-3.4s3.4,1.5,3.4,3.4s-1.5,3.4-3.4,3.4"/>
<path class="st8" d="M429.3,335.9c0-1.9,1.5-3.4,3.4-3.4c1.9,0,3.4,1.5,3.4,3.4c0,1.9-1.5,3.4-3.4,3.4"/>
<path class="st8" d="M451.9,330.4c0-1.9,1.5-3.4,3.4-3.4c1.9,0,3.4,1.5,3.4,3.4s-1.5,3.4-3.4,3.4"/>
<path class="st8" d="M473.3,324.9c0-1.9,1.5-3.4,3.4-3.4s3.4,1.5,3.4,3.4s-1.5,3.4-3.4,3.4"/>
<path class="st8" d="M462.6,327.5c0-1.9,1.5-3.4,3.4-3.4s3.4,1.5,3.4,3.4s-1.5,3.4-3.4,3.4"/>
<path class="st1" d="M454.1,401.7c-0.3,1.3-1.5,1.1-2.4,1.5c-0.5,0.3-1.1,0.4-1.7,0.6c-0.5,0.1-0.6,0.5-0.5,0.9
	c0,0.1,0.1,0.2,0.1,0.3c-0.1,0.3-0.1,0.6-0.3,0.9c0,0.1-0.5,0-0.5,0c-0.1-0.3,0-0.6,0-1.1c-0.3-0.3-0.6-0.3-1,0.2
	c-0.2,0.2-0.4,0.4-0.6,0.5c-2,0.6-4,1-6.1,0.9c-0.3,0-0.5-0.1-0.9-0.2c0.5-0.5,0.7-0.9,1.2-1.2c1.5-0.9,3.1-1.7,4.7-2.6
	c0.2-0.1,0.6-0.1,0.9,0c0.6,0.1,0.8-0.1,0.9-0.5c-0.3-0.4-0.5-0.6-0.7-0.8c0,0,0.2-0.4,0.3-0.4c0.3,0.1,0.5,0.2,0.8,0.3
	c0,0,0,0.1,0.1,0.1c-0.2-0.1-0.4-0.1-0.6-0.2c0.2,0.4,0.4,0.7,0.7,1.1c0-0.3,0-0.6-0.1-0.9c0.6,1,0.6,0.9,1.7,0.5
	c0.5-0.2,1.1-0.4,1.6-0.5c0,0.2,0,0.4-0.1,0.7c0.4-0.1,0.6-0.2,0.9-0.2c0-0.1,0-0.1,0-0.2c-0.3-0.1-0.6-0.2-0.9-0.3
	c0.4-0.1,0.8-0.3,1.3-0.4c0,0.2,0,0.4-0.1,0.6c0.1,0,0.3-0.1,0.4-0.1c-0.1-0.2-0.2-0.4-0.4-0.5c0.4-0.1,0.8-0.2,1.1-0.4
	c0.5-0.4,1,0,1.5,0.1c0.1,0,0.2,0.5,0.2,0.7c0,0.3-0.2,0.6-0.3,0.9c-0.4-0.1-1,0.8-1.2-0.3c0.2-0.1,0.5-0.3,0.5-0.3
	c-0.1-0.3-0.3-0.5-0.4-0.7c-0.1,0-0.2,0.1-0.3,0.1C454,401.1,454,401.4,454.1,401.7z M447,403.7c0.3,0.1,0.4,0.2,0.7,0.4
	c-0.8,0.4-1.7,0.2-2.2,1.1c-1-0.4-2.6-0.2-4.2,0.7c1.3,0.3,2.5,0,3.7-0.1c1.3-0.2,2.3-0.8,3.2-1.7c-0.2-0.1-0.4-0.3-0.6-0.4
	c0.1-0.3,0.1-0.5,0.2-0.7c-2.6-0.4-4.5,0.9-6.3,2.6c1.3-0.5,2.9-0.4,3.5-1.9c0.9,0.4,1.6-0.4,2.5-0.4
	C447.2,403.4,447.1,403.6,447,403.7z M448.9,403.1c0.5,0.2,0.9,0.5,1.2,0c0.1-0.2-0.1-0.6-0.3-0.7
	C449.2,402.1,449.1,402.7,448.9,403.1z M452.7,402.2c0-0.1-0.1-0.1-0.1-0.2c-0.2,0.1-0.5,0.3-0.8,0.5
	C452.5,403,452.5,402.5,452.7,402.2z M449.2,405.6c0.1,0,0.2,0,0.3,0c-0.1-0.4-0.1-0.8-0.2-1.2c0,0-0.1,0-0.1,0
	C449.2,404.8,449.2,405.2,449.2,405.6z M453.7,402c-0.2,0-0.4-0.1-0.5,0c-0.1,0-0.1,0.2-0.1,0.3c0.1,0,0.3,0.2,0.4,0.1
	C453.5,402.3,453.6,402.2,453.7,402z M451.2,402.1c0-0.1,0.1-0.2,0.1-0.3c-0.2-0.1-0.4-0.1-0.7-0.2c0,0.1,0,0.2-0.1,0.2
	C450.8,402,451,402.1,451.2,402.1z M451.6,402.6c-0.1,0-0.1-0.1-0.2-0.1c-0.1,0.2-0.3,0.4-0.4,0.6c0.1,0,0.1,0.1,0.2,0.1
	C451.3,403,451.4,402.8,451.6,402.6z"/>
<g>
	<path class="st1" d="M521.9,385.7c-1.9-4.3-3.8-8.5-5.7-12.8c0.3-0.1,0.6-0.3,0.9-0.4c2.1,4.2,5.1,7.9,6.2,12.5
		C522.8,385.3,522.4,385.5,521.9,385.7z"/>
	<path class="st1" d="M511.2,384.5c3.4,0.8,6.8,1.5,10.3,2.3c-0.1,0.5-0.3,1-0.4,1.6c-3.4-0.9-6.8-1.9-10.1-2.8
		C511.1,385.2,511.2,384.8,511.2,384.5z"/>
	<path class="st1" d="M525.8,376.9c0.1,2.1,0.2,4.2,0.3,6.3c-0.4,0-0.8,0.1-1.2,0.1c-0.1-2.1-0.2-4.2-0.4-6.4
		C525,376.9,525.4,376.9,525.8,376.9z"/>
	<path class="st1" d="M522.6,390.2c-0.9,1.3-1.8,2.6-2.7,3.9c-0.3-0.2-0.6-0.4-0.9-0.6c0.9-1.3,1.8-2.6,2.7-3.9
		C522,389.8,522.3,390,522.6,390.2z"/>
</g>
<g>
	<path class="st1" d="M468.2,399.6c-0.6,0.1-0.8,0.6-1.1,1c-0.2,0.3-0.5,0.7-0.8,0.8c-0.7,0.3-1.5,0.4-1.6,1.4
		c-0.4-0.7-0.3-1.1,0.4-1.6c0.6-0.4,1-0.8,1.2-1.5c0.1-0.4,0.2-0.8,0.3-1.3c-1.5,0.4-3,0.8-4.5,1.1c0-0.1-0.1-0.2-0.1-0.3
		c1.4-0.7,2.7-1.4,4.1-2.2c-0.4-0.3-0.8-0.5-1.2-0.8c-0.5-0.4-1.1-0.4-1.8-0.3c-0.9,0.1-1.1-0.1-1.4-0.9c0.9,0.7,1.5,0.2,2.3-0.1
		c0.3-0.1,0.7,0,1.1,0.1c0.4,0.1,0.9,0.1,1.3,0.2c0-0.1,0-0.2,0.1-0.2c-1.4-0.8-2.9-1.7-4.3-2.5c0-0.1,0.1-0.2,0.1-0.3
		c1.6,0.5,3.2,1,4.8,1.5c0-0.6-0.4-0.8-0.8-1c-0.6-0.3-1-0.7-1.1-1.3c-0.1-0.7-0.6-1-1.2-1.3c0.6-0.4,1-0.2,1.5,0.4
		c0.3,0.4,0.7,0.7,1.2,1.1c0.2,0.1,0.5,0.1,0.7,0.2c0.3,0.1,0.6,0.2,0.9,0.3c-0.4-1.5-0.8-3-1.1-4.5c0.1,0,0.2-0.1,0.3-0.1
		c0.7,1.4,1.4,2.7,2.2,4.1c0.6-1,1.4-1.8,1.1-3.1c-0.2-0.7,0.1-1,0.9-1.2c-0.5,0.8-0.2,1.4,0.1,2.1c0.1,0.3,0,0.8,0,1.2
		c-0.1,0.5-0.3,0.9,0,1.4c0.9-1.5,1.7-2.9,2.6-4.4c0.1,0,0.2,0.1,0.3,0.1c-0.5,1.6-1,3.2-1.5,4.8c0.5,0,0.8-0.4,1-0.8
		c0.3-0.7,0.8-0.9,1.4-1.1c0.5-0.2,0.9-0.6,1.3-0.9c0.2,0.4,0.1,0.7-0.5,1.3c-0.4,0.4-0.9,0.9-1.2,1.4c-0.2,0.4-0.3,0.9-0.4,1.5
		c1.5-0.4,3-0.8,4.5-1.1c0,0.1,0.1,0.2,0.1,0.3c-1.4,0.7-2.7,1.4-4.1,2.2c0.4,0.3,0.7,0.5,1.1,0.8c0.6,0.4,1.2,0.4,1.8,0.3
		c0.8-0.1,1.1,0.1,1.4,0.7c-0.4,0-0.8-0.2-1.2-0.1c-0.4,0.1-0.7,0.4-1.1,0.4c-0.3,0.1-0.7,0-1-0.1c-0.5-0.1-0.9-0.4-1.4,0
		c1.5,0.9,2.9,1.7,4.3,2.6c0,0.1-0.1,0.2-0.1,0.3c-1.6-0.5-3.2-1-4.8-1.5c0,0.5,0.1,0.7,0.7,0.9c0.7,0.3,1,0.8,1.2,1.5
		c0.2,0.5,0.6,0.9,0.9,1.3c-0.2,0.2-0.4,0.2-0.8,0c-0.2-0.2-0.5-0.4-0.6-0.7c-0.4-0.6-1-1-1.7-1.1c-0.3-0.1-0.7-0.2-1-0.3
		c0.4,1.5,0.8,3,1.2,4.5c-0.1,0-0.2,0.1-0.2,0.1c-0.7-1.4-1.4-2.7-2.2-4.1c-0.3,0.4-0.7,0.8-0.8,1.3c-0.2,0.5-0.2,1.1-0.2,1.6
		c0,0.8-0.1,1.2-0.8,1.4c0.1-0.4,0.2-0.8,0.1-1.2c0-0.4-0.4-0.7-0.4-1.1c-0.1-0.3,0-0.7,0.1-1c0.1-0.5,0.4-0.9,0-1.5
		c-0.9,1.5-1.7,2.9-2.6,4.4c-0.1,0-0.2-0.1-0.3-0.1C467.1,402.8,467.6,401.2,468.2,399.6z M469,393.6c-0.6-0.6-0.8-0.6-1.3,0
		c-1.2,1.3-1.3,3.2-0.3,4.6c1.2,1.7,2.8,1.9,4.4,1.4c1.8-0.6,2.8-2.5,2.4-4.2c-0.4-1.9-2.1-3.2-3.9-3c-0.6,0-1.2,0.1-1.7,0.6
		C468.7,393.2,468.9,393.4,469,393.6z M477.8,396.5c-1.3,0.4-2.1-1-3.3-1.1c0,0.5,0,1,0,1.3c0.6,0.1,1.1,0.1,1.6,0.3
		C476.8,397.2,477.3,396.9,477.8,396.5z M468.4,392.6c-1-0.7-2.6-0.4-3.1-1.8c0.1,0.9,0.4,1.6,1.3,1.9c0.3,0.1,0.6,0.5,0.8,0.8
		C467.7,393.2,468,392.9,468.4,392.6z M475.7,390.9c-0.7,0-1.2,0.2-1.6,0.9c-0.2,0.4-0.6,0.8-1,1.2c0.2,0.3,0.5,0.6,0.9,1
		C474.8,393,474.4,391.5,475.7,390.9z M466.5,395.5c-0.5-0.1-1.1-0.1-1.5-0.2c-0.7-0.3-1.2-0.1-1.8,0.4c1.4-0.4,2.1,1,3.3,1.1
		C466.5,396.3,466.5,395.8,466.5,395.5z M469.9,400.1c0,0.4,0.1,0.9-0.1,1.2c-0.4,0.8-0.2,1.5,0.4,2.3c-0.2-1.1,0.1-1.8,0.7-2.6
		c0.2-0.2,0.3-0.6,0.4-1C470.7,400.1,470.3,400.1,469.9,400.1z M470.8,388.5c0.2,1-0.1,1.8-0.7,2.5c-0.2,0.3-0.3,0.7-0.4,1
		c0.6,0,1,0,1.4,0c0-0.4-0.1-0.8,0.1-1.2C471.6,390.1,471.4,389.3,470.8,388.5z M465.3,401.2c0.7-0.1,1.2-0.2,1.6-0.9
		c0.2-0.4,0.6-0.8,1-1.2c-0.2-0.3-0.6-0.6-0.9-1C466.3,399.1,466.6,400.6,465.3,401.2z M473.6,398.7c-0.3,0.3-0.6,0.6-1,0.9
		c0.9,0.7,2.5,0.4,3.1,1.8c-0.3-1-0.1-1.4-1.3-1.9C474.1,399.3,473.9,399,473.6,398.7z M463.4,392.8c0,0.1,0,0.1-0.1,0.2
		c1.1,0.6,2.2,1.2,3.3,1.8c0-0.1,0.1-0.1,0.1-0.2c-0.4-0.2-0.7-0.4-1.1-0.6c0,0,0-0.1,0.1-0.1c0.4,0.1,0.8,0.3,1.2,0.4
		c0-0.1,0-0.1,0.1-0.2C465.8,393.6,464.6,393.2,463.4,392.8z M468.4,400.9c0,0-0.1,0-0.1,0c0.1-0.4,0.2-0.8,0.4-1.2
		c-0.1,0-0.2,0-0.3-0.1c-0.4,1.2-0.8,2.4-1.2,3.6c0.1,0,0.1,0,0.2,0.1c0.6-1.1,1.2-2.2,1.8-3.3c-0.1,0-0.1-0.1-0.2-0.1
		C468.9,400.2,468.6,400.6,468.4,400.9z M466.6,397.3c0-0.1-0.1-0.1-0.1-0.2c-1.1,0.6-2.3,1.1-3.4,1.7c0,0.1,0,0.1,0.1,0.2
		c1.2-0.3,2.4-0.7,3.7-1c0-0.1,0-0.2-0.1-0.2c-0.5,0.1-1.1,0.3-1.6,0.4c0,0,0,0,0,0C465.6,397.8,466.1,397.6,466.6,397.3z
		 M474.2,394.2c0,0.1,0,0.2,0.1,0.2c0.6-0.2,1.1-0.3,1.7-0.5c0,0,0,0,0,0c-0.5,0.3-1,0.5-1.5,0.8c0,0.1,0.1,0.1,0.1,0.2
		c1.1-0.6,2.3-1.1,3.4-1.7c0-0.1,0-0.1-0.1-0.2C476.6,393.5,475.4,393.9,474.2,394.2z M472.7,391.2c0,0,0.1,0,0.1,0
		c-0.1,0.4-0.3,0.8-0.4,1.2c0.1,0,0.1,0,0.2,0.1c0.4-1.2,0.8-2.3,1.2-3.5c-0.1,0-0.1,0-0.2-0.1c-0.6,1.1-1.2,2.2-1.8,3.3
		c0.1,0,0.1,0.1,0.2,0.1C472.2,392,472.4,391.6,472.7,391.2z M474.1,397.9c0,0.1,0,0.2-0.1,0.2c1.2,0.4,2.4,0.8,3.6,1.2
		c0-0.1,0-0.1,0.1-0.2c-1.1-0.6-2.2-1.2-3.3-1.8c0,0.1-0.1,0.1-0.1,0.2c0.4,0.2,0.7,0.4,1.1,0.6c0,0,0,0.1,0,0.1
		C474.9,398.1,474.5,398,474.1,397.9z M467.8,388.8c-0.1,0-0.1,0.1-0.2,0.1c0.3,1.2,0.7,2.3,1,3.5c0.1,0,0.1,0,0.2-0.1
		c-0.1-0.5-0.2-0.9-0.4-1.4c0,0,0.1,0,0.1,0c0.2,0.4,0.4,0.9,0.6,1.3c0.1,0,0.1-0.1,0.2-0.1C468.9,391,468.4,389.9,467.8,388.8z
		 M472.4,399.7c-0.1,0-0.1,0-0.2,0.1c0.1,0.5,0.3,0.9,0.4,1.4c0,0-0.1,0-0.1,0c-0.2-0.4-0.5-0.9-0.7-1.3c-0.1,0-0.1,0.1-0.2,0.1
		c0.5,1.1,1.1,2.2,1.6,3.3c0.1,0,0.1,0,0.2-0.1C473,402.1,472.7,400.9,472.4,399.7z"/>
	<path class="st1" d="M471.1,397.1c0-0.1,0.1-0.3,0.2-0.4c0.3,0.1,0.4,0.1,0.3,0.5c-0.1,0.3-0.1,0.8,0.5,0.9c0.1,0,0.1,0.2,0.2,0.3
		c0,0-0.1,0.2-0.1,0.2c-0.1,0-0.3-0.1-0.3-0.1C471.6,397.9,471.4,397.6,471.1,397.1z"/>
	<path class="st1" d="M471,395.1c-0.7-0.1-0.7-0.1-0.7-0.7c0-0.2-0.2-0.5-0.2-0.7c0-0.1,0-0.3,0.1-0.4c0,0,0.2,0,0.2,0
		c0,0.1-0.1,0.2,0,0.3c0,0.3,0.1,0.5,0.2,0.8C470.6,394.7,470.7,394.8,471,395.1z"/>
	<path class="st1" d="M472.1,393.9c0.2,0,0.3,0,0.4,0c-0.1,0.1-0.2,0.2-0.2,0.3c0.2,0.1,0.4,0.2,0.5,0.3c-0.1,0.1-0.2,0.2-0.3,0.3
		C472.3,394.5,472.2,394.2,472.1,393.9z"/>
	<path class="st1" d="M471.2,395.2c0.1-0.3,0.2-0.7,0.3-1c0.1,0,0.1,0,0.2,0.1c-0.1,0.3-0.3,0.6-0.4,1
		C471.3,395.3,471.2,395.3,471.2,395.2z"/>
	<path class="st1" d="M468.5,393.9c-0.2-0.2-0.3-0.3-0.5-0.5c0.2,0,0.3,0,0.5,0.1C468.6,393.6,468.5,393.8,468.5,393.9z"/>
	<path class="st1" d="M471.8,396.2c0.3,0.1,0.5,0.3,0.8,0.4c0,0.1-0.1,0.1-0.1,0.2c-0.3-0.1-0.5-0.3-0.8-0.4
		C471.7,396.2,471.7,396.2,471.8,396.2z"/>
	<path class="st1" d="M468.2,396.1c0.2,0.5,0.4,0.9,0.5,1.4C468.6,397,468.4,396.5,468.2,396.1z"/>
	<path class="st1" d="M473.2,396.8c-0.1-0.2-0.1-0.4-0.2-0.5c0,0,0,0,0,0c0.1,0.1,0.3,0.1,0.4,0.2
		C473.4,396.5,473.3,396.6,473.2,396.8z"/>
	<path class="st1" d="M472.8,395.9c0.1-0.1,0.3-0.1,0.4-0.2c0,0.1,0,0.1,0.1,0.2c-0.1,0.1-0.3,0.1-0.4,0.2
		C472.9,396,472.9,395.9,472.8,395.9z"/>
	<path class="st1" d="M469.4,396.3c0-0.1,0-0.3,0-0.4c0,0,0.1,0,0.1,0c0,0.1,0.1,0.2,0.1,0.4C469.6,396.3,469.5,396.3,469.4,396.3z"
		/>
	<path class="st1" d="M469.9,397c-0.1-0.1-0.2-0.2-0.3-0.3c0,0,0.1-0.1,0.1-0.1C469.8,396.6,469.8,396.8,469.9,397
		C469.9,396.9,469.9,396.9,469.9,397z"/>
</g>
<g>
	<path class="st1" d="M501.4,269.6c0-0.2,0-0.3-0.1-0.5c-0.6,0.4-0.6,1-0.5,1.5c0,2.3,0.7,4.4,1.4,6.6c0.5,1.6,1,3.2,1.4,4.8
		c0.3,1.1,0.1,1.5-0.6,2c0.1,0.6,0.4,1.1,0.4,1.7c0,0.4-0.1,0.9-0.4,1c-0.2,0.2-0.7,0-1-0.1c-0.3-0.1-0.5-0.4-0.7-0.6
		c-0.5-0.6-1.1-1-1.9-1.2c-0.4-0.1-0.9-0.6-1.1-1.1c-0.5-0.9-1.3-1.2-2.1-1.6c-0.9-0.3-1.8-0.7-2.4-1.3c-1.9-1.6-2.2-4-0.9-6.3
		c1.5-2.8,3.9-4.7,6.6-6.2c0.5-0.3,1.1-0.5,1.7-0.8c0.1-0.1,0.2-0.3,0.4-0.4c0.1-0.1,0.2-0.2,0.3-0.3c-0.1,0.2-0.2,0.4-0.3,0.6
		c0,0.1,0.2,0.2,0.2,0.2c0,0,0,0,0,0c0,0.6,0,1.2,0.1,1.8l0,0C501.6,269.5,501.5,269.5,501.4,269.6z M501.8,279.8
		c0.5-0.1,1-0.2,0.8-0.9c-0.7-2.5-1.5-5-2.2-7.6c0.1,0.1,0.1,0.2,0,0.3c-0.2,2.2-0.1,4.4,0.5,6.6
		C501.1,278.8,501.2,279.5,501.8,279.8c-0.1,0-0.2,0-0.4,0c0.2,0.6,0.4,1.2,0.6,1.8c0.1,0.2,0.5,0.5,0.6,0.5
		c0.2-0.2,0.6-0.5,0.6-0.7c0-0.5-0.2-1-0.2-1.2C502.4,279.9,502.1,279.9,501.8,279.8z M494.3,276.9c1.1-0.7,1.3-1.7,1.6-2.7
		c0.4-1.3,1-2.5,1.7-3.6c0.6-0.9,1.5-1.5,2.5-1.9c-0.1,0.2-0.2,0.3-0.4,0.4c-2.3,1.4-3.2,3.6-3.8,6.1c-0.2,1.1,0,2,0.6,2.9
		c0.3-0.5,0.6-0.9,0.8-1.2c0.4,1.1,0.8,2.1,1.2,3.2c0.1,0,0.2,0,0.3-0.1c0-0.8,0.1-1.7,0.1-2.5c0-1.7-0.1-3.4,0.5-5
		c0.4-1,0.6-2,1-3.1c-1.9,2-3,4.2-2.9,6.9c-0.6-3.4,1.3-5.8,3.5-8c-0.5,0-0.9-0.1-1.2,0.1c-2.4,1.3-4.5,3-6.2,5.3
		c-0.1,0.1-0.2,0.3-0.1,0.4C493.7,275.1,494,276,494.3,276.9z M499.2,279.4c-0.1,0.6-0.1,1.1-0.2,1.9c-0.6-1.3-1.2-2.4-1.7-3.6
		c-0.5,0.7-0.5,1-0.3,1.7c0.1,0.3,0.2,0.7,0.2,1c0,1.3,1,2,1.8,2.7c0.5,0.4,1.2,0.5,1.9,0.8C501,282.2,499.9,280.9,499.2,279.4z
		 M499.9,272.5c-0.7,2-0.9,4.6-0.5,6.4c0.1,0.6,0.2,1.6,1,1.4c0.8-0.2,0.4-1.1,0.3-1.7c-0.2-1.1-0.5-2.2-0.7-3.3
		C500,274.5,500,273.6,499.9,272.5z M494.6,279.7c0.4-2-1.3-3.4-1.3-5.2C491.6,276.8,492.2,278.7,494.6,279.7z M501.3,280.2
		c-0.4,0.2-0.7,0.4-1,0.6c0,0,0.1,0.1,0.1,0.2c0.4,1,1,2,0.8,3.2c-0.1,0.5,0.4,0.8,1,0.8c0.6,0,0.6-0.4,0.4-0.8
		C502.1,282.9,501.7,281.5,501.3,280.2z M496.8,280.7c0.2-1-0.3-2.7-1.3-4.3c-0.5,0.5-0.9,0.9-0.6,1.7c0.2,0.5,0.2,1.2,0.3,1.8
		C495.5,280.1,496.1,280.4,496.8,280.7z"/>
	<path class="st1" d="M505.5,276.8c-0.2,0.6-0.3,1.2-0.5,1.7c-0.2,0.6-0.7,0.7-1.1,0.2c-0.4-0.5-0.6-1-1-1.5
		c0.3,0.1,0.5,0.2,0.8,0.3c0-0.1,0.1-0.2,0.1-0.2c-0.3-0.2-0.7-0.3-1.2-0.5c0.1,0.2,0.2,0.3,0.2,0.4c-0.3-0.5-0.6-1.1-0.8-1.7
		c-0.2-1-0.4-1.9-0.5-2.9c-0.1-0.5-0.1-1-0.1-1.5c0.1,0,0.2,0,0.3,0c1.2,1.1,2.4,0.9,3.3-0.4c0.1,0,0.2-0.1,0.3-0.1
		c0.1,0.9,0.2,1.9,0.3,2.8c0.1,0.9,0.1,1.9,0.1,2.8C505.8,276.3,505.7,276.6,505.5,276.8c0-0.1,0.1-0.3,0.2-0.6
		c-0.4,0.4-0.7,0.6-1,0.9c0.1,0.1,0.1,0.1,0.2,0.2C505.1,277.2,505.3,277,505.5,276.8z M504.7,272.4c-0.1,0-0.1-0.1-0.2-0.1
		c-0.2,0.3-0.3,0.5-0.5,0.8c0.1,0,0.1,0.1,0.2,0.1C504.4,272.9,504.6,272.6,504.7,272.4z M502.8,272.5c-0.1,0-0.1,0.1-0.2,0.1
		c0.2,0.2,0.4,0.4,0.6,0.6c0.1-0.1,0.1-0.1,0.2-0.2C503.2,272.9,503,272.7,502.8,272.5z"/>
	<path class="st1" d="M505.1,270.6c-0.9,1.4-2.1,1.5-3.3,0.4c0-0.5-0.1-1.1-0.1-1.6c0,0,0,0,0,0c0.1-0.6,0.5-1.2-0.1-1.8
		c0,0,0,0,0,0c0.2-0.2,0.4-0.5,0.6-0.7c0.1-0.2,0.1-0.4,0.2-0.7c-0.4,0.3-0.6,0.5-0.8,0.6c-0.1,0.1-0.2,0.2-0.3,0.3
		c-0.1-1,0-1.8,0.9-2.4c0.5-0.4,1.6-0.1,2,0.6c0.2,0.4,0.3,0.9,0.4,1.3c-0.1,0-0.2-0.1-0.4-0.1c-0.3-0.1-0.6-0.2-0.9-0.3
		c-0.1,0.1-0.2,0.3-0.3,0.4c0.5,0.2,1,0.5,1.4,0.7c0,0,0,0,0,0c-0.5,0.7,0.1,1.2,0.4,1.8c0,0,0,0,0,0
		C504.9,269.6,505,270.1,505.1,270.6z M503.3,270.4c0.9-1.3,0.9-2.5,0-3.3c-0.1-0.1-0.6-0.1-0.6,0c-0.2,0.4-0.5,1-0.4,1.4
		C502.4,269.1,502.9,269.7,503.3,270.4z M502.4,270.9c0-0.1,0.1-0.1,0.1-0.2c-0.2-0.1-0.3-0.2-0.5-0.3c0,0.1-0.1,0.1-0.1,0.2
		C502.1,270.7,502.3,270.8,502.4,270.9z"/>
	<path class="st1" d="M501,264.3c-0.3-0.1-0.7-0.2-1-0.3c0-0.1,0-0.1,0-0.2c0.3,0.1,0.7,0.2,1,0.3C501,264.2,501,264.3,501,264.3z"
		/>
	<path class="st1" d="M503.1,267.3c0,0.3,0.1,0.5,0.1,0.8c0,0-0.2,0-0.2,0c-0.1-0.2-0.1-0.5-0.2-0.7
		C502.9,267.3,503,267.3,503.1,267.3z"/>
	<path class="st1" d="M503.3,268.9c0,0.3,0.1,0.5,0.1,0.8c-0.1,0-0.1,0-0.2,0c-0.1-0.2-0.2-0.5-0.2-0.7
		C503.1,269,503.2,268.9,503.3,268.9z"/>
</g>
</svg>
