<?xml version="1.0" encoding="utf-8"?>
<!-- Generator: Adobe Illustrator 26.0.3, SVG Export Plug-In . SVG Version: 6.00 Build 0)  -->
<svg version="1.1" id="Calque_1" xmlns="http://www.w3.org/2000/svg" xmlns:xlink="http://www.w3.org/1999/xlink" x="0px" y="0px"
	 viewBox="0 0 642.2 350.8" style="enable-background:new 0 0 642.2 350.8;" xml:space="preserve">
<style type="text/css">
	.st0{fill:#375D63;}
	.st1{fill:#C3DFED;}
	.st2{fill:#E0B9A0;}
	.st3{fill:#F7A386;}
	.st4{fill:#CCAA97;}
	.st5{fill:#91B7C6;}
</style>
<path class="st0" d="M399.2,320.6c-23.3,2.5-44.5,10-69.8,18.3c0,0-11.5,0.5-10.8-0.1l-70.8-16.6l5.9-58.4
	c1.1-10.7,10.1-18.8,20.8-18.8h99.9c11,0,20.1,8.5,20.8,19.4L399.2,320.6z"/>
<path class="st1" d="M409.4,91.4c0,3.6-12.5,58.1-12.5,61.8c0,3.1-3.2,59.3-4.1,75.5c-0.2,2.9,0,5.8,0.5,8.7l35.8,165.1
	c1.7,12.1-18,23.2-29.1,25c-0.1,0-0.2,0-0.2,0s-58.9,12.2-78.7,11.5c-19.2-0.8-83.2-17.4-83.2-17.4c-10.2-2.4-21.1-12.8-19.9-24.1
	l34.3-159.6c0.5-2.8,0.6-5.6,0.4-8.4l-6.4-81.3l-7.1-47.7l22.9-4.3l41.7-24.2l5.5,12.2h27.8l7.1-17.5L409.4,91.4z"/>
<path class="st2" d="M177.4,197.5L177.4,197.5L177.4,197.5l46.9-96.4l0,0c5.9-12.3,21-17.1,33.6-10.9c12.5,6.3,17.9,21.4,12,33.7
	c-0.1,0.1-0.2,0.4-0.3,0.5l-60.8,93.5c-6.3,9.3-16.4,12.2-24,7.4C176.1,220,170,211.9,177.4,197.5z"/>
<path class="st2" d="M207,219.7c-4.7,10.6-14.7,17.9-26.2,20.2l-98.9,19.8c0,0-9.3,3.1-12.2-5.1c-3.3-9.2,4.8-11.9,4.8-11.9l96-48
	c0,0,5.7-2.3,6-2.3c13.1-3.8,25.8,1.6,30.1,14.7C208.1,211.1,208.8,215.4,207,219.7z"/>
<path class="st3" d="M148.6,205.8l0.1-0.1c0.2,0.2,0.4,0.4,0.6,0.6l0.1,0.1L148.6,205.8z"/>
<path class="st2" d="M466.2,200.2L466.2,200.2L466.2,200.2l-44.6-97.4l0,0c-5.7-12.5-20.6-17.6-33.3-11.7
	c-12.7,5.9-18.4,20.9-12.7,33.4c0.1,0.1,0.2,0.4,0.3,0.6l58.5,94.9c5.9,9.4,16.2,12.5,23.8,8C466.9,222.8,473.2,214.9,466.2,200.2z"
	/>
<path class="st3" d="M495.5,194.6L495.5,194.6c-0.3,0.1-0.4,0.3-0.6,0.5l-0.1,0.1L495.5,194.6z"/>
<path class="st2" d="M257.4,67.5l47.9-17.1h39.5L388,67l-53.6,50.3c-5.5,3.5-15.7,2.6-21.4-0.8L257.4,67.5z"/>
<path class="st4" d="M344.8,3.4h-39.5v47.4l10.8,6.7c5.9,3.7,13.3,3.6,19.1-0.3l9.7-6.4L344.8,3.4z"/>
<path class="st1" d="M295.4,53.1L251,69.6c-10.8,4-20,11.3-26.4,20.8c-13,19.4-38.2,69.4-43.4,89.3c-0.3,1.2,34.7,18.8,45.4,25.1
	c3.1,1.8,7,0.4,8.3-3l29.4-80.9c0,0-21.4,44.9-17,65.8c4.6,22.2,7.6,46.7,7.6,46.7l137.1-7.6c0,0,0.3-3.9,0-12.4
	c-0.3-9.4,12.9-37.1-5.6-81c-0.8,0.8,7.3,31.5,7.3,31.5l13.6,33.1c1.2,2.7,4.7,3.4,6.9,1.6l38.9-32.4c1.3-1.1,1.8-2.9,1.1-4.5
	c-4.5-11.3-29.8-74.1-47.4-85.8c-20.2-13.5-54-23.2-54-23.2l-27.7,63.4L295.4,53.1z"/>
<g>
	<path class="st5" d="M295,52.8c12.3,23.8,25.1,49,37,72.9c11.8,24.7,26.3,48.5,31.8,75.5c0.8,2.9,1.3,7.2,1.6,10.2
		c5,43.7,9.9,88.4,14,132.2c0.5,5,1.4,15.4,1.8,20.4c-0.8-5.1-2.2-15.1-2.9-20.2c-6.2-43.6-11.7-88.1-16.9-131.7
		c-0.3-3-0.8-7.1-1.6-10c-5.4-26.7-19.7-50.4-30.7-75C317.8,102.9,306,77.2,295,52.8L295,52.8z"/>
</g>
<path class="st2" d="M430.7,200.4c4.3-13.1,17-18.5,30.1-14.7c0.3,0.1,6,2.3,6,2.3l96,48c0,0,8.1,2.6,4.8,11.9
	c-2.9,8.2-12.2,5.1-12.2,5.1l-98.9-19.8c-11.4-2.3-21.5-9.6-26.2-20.2C428.5,208.7,429.2,204.4,430.7,200.4z"/>
<path class="st2" d="M67.6,235.7l-12.2-2.4c-0.2,0-0.5-0.1-0.7-0.2L36,232.2c-2.2-0.8-4.6,0.3-5.2,2.5c-0.1,0.4-0.2,0.9-0.1,1.2
	c0.2,1.8,1.6,3.1,3.4,3.3l12.7,1.5c2.4,1.5,2.5,5,0.1,6.6l-4.2,3c-0.7,0.4-1.5,0.7-2.3,0.7c0,0-6.3,0.7-9.3-4.9l0.8-5.1
	c1-2.1,0.3-4.7-1.7-5.9c-0.8-0.5-1.6-0.8-2.2-0.5c-1.9,0.9-6.6,10.5-5.5,12.2c0,0,1.5,3,3.5,6c0.3,0.4,0.7,1,0.9,1.6
	c0.5,1.1,1.7,5,3.1,5.2l12.4,3.5l0,0c1.3,0.2,2.6,0.2,3.9,0l35.1-3.8l1.7-0.3c2.8-0.4,1.7-5.5,0.3-9.4c-1-2.7-2.6-5.2-4.8-7.1
	l-4.3-3.7C72.4,237.3,70.1,236.2,67.6,235.7z"/>
<path class="st2" d="M42.2,263.5l-32.8,5.2c-2.2,0.4-4.3-1.2-4.7-3.4l0,0c-0.4-2.2,1.2-4.3,3.4-4.7l32.8-5.2
	c2.2-0.4,4.3,1.2,4.7,3.4l0,0C46,261.1,44.5,263.2,42.2,263.5z"/>
<path class="st2" d="M45.1,260.3l-32.8,5.2c-2.2,0.4-4.3-1.2-4.7-3.4h0c-0.4-2.2,1.2-4.3,3.4-4.7l32.8-5.2c2.2-0.4,4.3,1.2,4.7,3.4
	l0,0C48.8,257.9,47.3,260,45.1,260.3z"/>
<path class="st2" d="M26.2,260.1l-9.3,1.5c-2.2,0.4-4.3-1.2-4.7-3.4h0c-0.4-2.2,1.2-4.3,3.4-4.7l9.3-1.5c2.2-0.4,4.3,1.2,4.7,3.4h0
	C30,257.6,28.4,259.7,26.2,260.1z"/>
<path class="st2" d="M566.5,233l-4.3,3.7c-2.2,1.9-3.8,4.4-4.8,7.1c-1.4,3.9-2.6,9,0.3,9.4l1.7,0.3l35.1,3.8c1.3,0.2,2.6,0.1,3.9,0
	l0,0l12.4-3.5c1.5-0.1,2.6-4,3.1-5.2c0.2-0.6,0.6-1.2,0.9-1.6c2-3,3.5-6,3.5-6c1.1-1.7-3.6-11.3-5.5-12.2c-0.6-0.3-1.4,0-2.2,0.5
	c-2,1.2-2.7,3.8-1.7,5.9l0.8,5.1c-3,5.6-9.3,4.9-9.3,4.9c-0.8,0-1.6-0.3-2.3-0.7l-4.2-3c-2.4-1.6-2.3-5.1,0.1-6.6l12.7-1.5
	c1.8-0.2,3.3-1.6,3.4-3.3c0-0.4,0-0.8-0.1-1.2c-0.6-2.3-3-3.3-5.2-2.5l-18.7,0.9c-0.2,0.1-0.5,0.2-0.7,0.2l-12.2,2.4
	C570.7,230.3,568.4,231.4,566.5,233z"/>
<path class="st2" d="M598.9,257.3l32.8,5.2c2.2,0.4,4.3-1.2,4.7-3.4l0,0c0.4-2.2-1.2-4.3-3.4-4.7l-32.8-5.2
	c-2.2-0.4-4.3,1.2-4.7,3.4v0C595.1,254.9,596.7,257,598.9,257.3z"/>
<path class="st2" d="M596.1,254.2l32.8,5.2c2.2,0.4,4.3-1.2,4.7-3.4v0c0.4-2.2-1.2-4.3-3.4-4.7l-32.8-5.2c-2.2-0.4-4.3,1.2-4.7,3.4
	v0C592.3,251.7,593.8,253.8,596.1,254.2z"/>
<path class="st2" d="M614.3,253.8l9.9,1.6c2.2,0.4,4.3-1.2,4.7-3.4l0,0c0.4-2.2-1.2-4.3-3.4-4.7l-9.9-1.6c-2.2-0.4-4.3,1.2-4.7,3.4
	l0,0C610.5,251.3,612.1,253.4,614.3,253.8z"/>
</svg>
