<?xml version="1.0" encoding="utf-8"?>
<!-- Generator: Adobe Illustrator 26.0.3, SVG Export Plug-In . SVG Version: 6.00 Build 0)  -->
<svg version="1.1" id="Layer_1" xmlns="http://www.w3.org/2000/svg" xmlns:xlink="http://www.w3.org/1999/xlink" x="0px" y="0px"
	 viewBox="0 0 588 350.8" style="enable-background:new 0 0 588 350.8;" xml:space="preserve">
<style type="text/css">
	.st0{fill:#E0B9A0;}
	.st1{fill:none;stroke:#383434;stroke-width:5;stroke-linecap:round;stroke-miterlimit:10;}
	.st2{fill:#383434;}
	.st3{fill:#47B2C4;}
	.st4{fill:#ED5875;}
	.st5{fill:#CCAA97;}
</style>
<path class="st0" d="M80.8,83.8c0.8-0.3,1.5-0.6,2-1.2c2.5-3,10.4-12.2,11.1-14.3c0.7-2.6,2.4-14.2,3.3-16.2
	c0.9-2,9.1-11.7,7.9-12.5c-0.7-0.5-2.7-1.4-4.3-2.2c-1.5-0.7-3.3-0.5-4.4,0.7L91.1,43c-0.4,0.4-0.8,1-1,1.4l-1.8,4.7
	c-0.8,2.1-3.8,1.9-4.3-0.3l0.2-3.5c-0.1-0.2-3.6-7.1-3.6-7.2c-1.6-3-8.5-0.9-8.5-0.9c-0.1-0.1-5.7,1.8-7.7,2.5
	c-0.5,0.2-1,0.4-1.5,0.6l-4.4,2c-3.8,1.7-6.9,4.5-8.9,8.1c-0.8,1.7-1.4,3.2-0.8,4.2c0.2,0.2,0.3,0.6,0.3,0.9l8.8,26.6
	c0.2,0.9,0.9,1.6,1.5,2.1l3.9,2.7c1,0.6,2.2,0.8,3.3,0.6L80.8,83.8z"/>
<g>
	<line class="st1" x1="66.3" y1="55.4" x2="494.4" y2="55.4"/>
	<path class="st2" d="M492,95.2l13.9-6.4c2.3-1.1,3.7-3.5,3.5-6c-0.8-8.6-2.7-27.4-5.4-28.9c-2.4-1.4-9.9-1.1-13.7-0.9
		c-1.5,0.1-0.9,2.3-0.9,2.3s8.6-1.2,7.9,1.9l-11.7,31.9C484,93.2,488.1,97,492,95.2z"/>
</g>
<rect x="268.1" y="1.7" class="st0" width="39.5" height="47.4"/>
<path class="st3" d="M455.1,157.9l-58.6-50.1l-19.2-20.4c-4.2-4.5-9.4-8.1-15-10.6l-43.5-19.2c-4.1-1.8-6.9-5.6-7.4-10.1l-0.5-4.9
	c-0.4-3.5-3.4-6.2-6.9-6.2l-32.8-0.3c-4.2,0-7.3,3.6-6.9,7.8c0.5,5.5-2.6,10.5-7.4,12.6l-40.7,17.6c-8.8,3.8-16.2,10.2-21.1,18.4
	l-14.2,23.2l-43.6,52.7c-6.2,7.5-5.2,18.6,2.3,24.8c7.5,6.2,18.6,5.2,24.9-2.3c0.1-0.1,0.2-0.2,0.2-0.3l54.6-58.1
	c0.1,0.6,0.1,1.2,0.1,1.8l0.6,67c0.1,6.3-0.4,12.7-1.3,18.9l-10.5,71.4c-1.1,8.8-3.4,35.4,4.4,37.8c0.4,0.2,8.3,4.2,25.5,13
	c21.5,11,73.4,13.4,95.7,4.3c17.2-7,27.6-9.9,31.3-12.4c8.9-0.5-8.8-72.1-9.9-79.6c-0.1-0.6-0.1-1.2-0.1-1.9V137.5l76.9,49.7
	c8.2,6,19.7,4.4,25.9-3.8C463.8,175.5,462.6,164.3,455.1,157.9z"/>
<path class="st0" d="M384.2,259.6c-0.2-0.2-13.7-3.4-13.7-3.4c-0.1,0-0.3,0-0.4-0.1c-1.5-0.8-11.3-5.5-13.2-5.5h-9.6
	c-3.6,0-6.9,2.1-8.6,5.3c-0.3,0.6-0.6,1.1-0.8,1.2l-7.3,5.8l-0.2,0.2c-0.6,0.4-0.8,1.2-0.6,1.9c0.2,0.7,0.7,1.4,1.8,1.9
	c0.1,0.1-0.4,1.6,1,2.6c0.4,0.3,0.7,0.7,0.8,1.1c0.1,0.7,0.5,1.8,1.8,2.4c0.5,0.3,0.9,0.8,1,1.4c0.2,1.1,0.7,2.7,2.6,3.7
	c4.5,0.3,9.5-1.1,9.8-1.2c4.6-1.6,3.2-4.7,5.6-6.1c0.4-0.2,1-0.1,1.2,0.3l1,4.5c2.3,5.5,20.2-2,20.1-4.9
	C376.1,266.6,384.2,259.6,384.2,259.6z"/>
<path class="st0" d="M458,185.3l-84.3,84.8c-1.4,1.4-3.2,2.5-5.1,2.9c-8.2,1.9-6.2-3.9-5.1-6.2c0.2-0.4,0.4-0.8,0.7-1.2
	c3.8-6,55.8-90.9,57.5-92.8c1.6-1.7,7-8.2,9-10.6c0.5-0.6,1.1-1.2,1.7-1.7l0.4-0.4c6.6-5.6,16.3-5.6,23-0.1l0,0
	c6.7,5.6,8.5,15.2,4.1,22.8l0,0C459.3,183.6,458.7,184.4,458,185.3z"/>
<polygon class="st0" points="91.7,92.5 78.2,78.3 59.6,84.4 86.3,115.6 "/>
<path class="st0" d="M136.5,190.6L72.5,99C72.1,98.5,79,79.4,79,79.4c0.1,0.3,75.9,75.3,77.5,77.6c1.4,2.2,8,10.6,8.9,12
	c0.2,0.2,0.2,0.3,0.2,0.4l0.7,1.4c3.9,7.7,1.7,17.2-5.1,22.4l0,0c-6.9,5.3-16.8,4.7-23.2-1.2l-1-0.9
	C136.8,190.9,136.7,190.8,136.5,190.6z"/>
<path class="st3" d="M452.6,155.8c0,0,10,8.6,7.2,10.6s-40,8.5-41.7,11.9s0,0,0,0l2-25.1L452.6,155.8z"/>
<polygon class="st4" points="355.2,183.1 219.9,207.2 219.6,153.2 355.2,153.2 "/>
<polygon class="st4" points="203.3,149.3 168,131.6 182.1,113.9 212.6,139.6 "/>
<polygon class="st5" points="268.1,1.7 307.6,1.7 307.6,31.5 268.2,34.7 "/>
<path class="st0" d="M86.4,78.3c0,0-4.4,4.2,1.5,10c5.9,5.8-5.7,8.1-5.7,8.1L73.5,81L86.4,78.3z"/>
<path class="st0" d="M79.9,56.9l-13.6,5.6c-4.2,1.7-9.1-0.3-10.9-4.6l0,0c-1.7-4.2,0.3-9.1,4.6-10.9l13.6-5.6
	c4.2-1.7,9.1,0.3,10.9,4.6l0,0C86.2,50.3,84.1,55.2,79.9,56.9z"/>
</svg>
