<?xml version="1.0" encoding="utf-8"?>
<!-- Generator: Adobe Illustrator 26.0.3, SVG Export Plug-In . SVG Version: 6.00 Build 0)  -->
<svg version="1.1" id="Calque_1" xmlns="http://www.w3.org/2000/svg" xmlns:xlink="http://www.w3.org/1999/xlink" x="0px" y="0px"
	 viewBox="0 0 200 200" style="enable-background:new 0 0 200 200;" xml:space="preserve">
<style type="text/css">
	.st0{fill:#FFFFFF;}
	.st1{fill:#080808;}
	.st2{clip-path:url(#SVGID_00000149358653127936987890000016557925020665777536_);}
	.st3{fill:none;stroke:#000000;stroke-width:2;stroke-linecap:round;stroke-miterlimit:10;}
	.st4{clip-path:url(#SVGID_00000160892537124580729500000014402134379529948310_);}
	.st5{fill:#5B2945;}
	.st6{fill:#4DA0FF;}
	.st7{fill:#6A2C18;}
</style>
<path class="st0" d="M123.5,87.7c0,3.7-3,6.8-6.8,6.8s-6.8-3-6.8-6.8l0,0H123.5z"/>
<path class="st0" d="M88.7,87.7c0,3.7-3,6.8-6.8,6.8s-6.8-3-6.8-6.8l0,0H88.7z"/>
<path class="st1" d="M86,88.3c0,2.2-1.8,4-4,4s-4-1.8-4-4c0-0.2,0-0.4,0-0.6h7.9C86,87.9,86,88.1,86,88.3z"/>
<path class="st1" d="M121,88.3c0,2.2-1.8,4-4,4s-4-1.8-4-4c0-0.2,0-0.4,0-0.6h7.9C120.9,87.9,121,88.1,121,88.3z"/>
<g>
	<g>
		<defs>
			<rect id="SVGID_1_" x="108.8" y="73.3" width="21.6" height="7.1"/>
		</defs>
		<clipPath id="SVGID_00000003794409567297556860000002095445712201132686_">
			<use xlink:href="#SVGID_1_"  style="overflow:visible;"/>
		</clipPath>
		<g style="clip-path:url(#SVGID_00000003794409567297556860000002095445712201132686_);">
			<path class="st3" d="M109.8,74.3c9.8,0.2,19.6,5.1,19.6,5.1"/>
		</g>
	</g>
</g>
<g>
	<g>
		<defs>
			<rect id="SVGID_00000000189353875351534970000007193019675369064371_" x="69.6" y="73.3" width="21.6" height="7.1"/>
		</defs>
		<clipPath id="SVGID_00000101082170567574907890000014700717898257856653_">
			<use xlink:href="#SVGID_00000000189353875351534970000007193019675369064371_"  style="overflow:visible;"/>
		</clipPath>
		<g style="clip-path:url(#SVGID_00000101082170567574907890000014700717898257856653_);">
			<path class="st3" d="M90.2,74.3c-9.8,0.2-19.6,5.1-19.6,5.1"/>
		</g>
	</g>
</g>
<g>
	<path class="st5" d="M88.7,126.5c7.3-1.2,15-1.2,22.3,0C103.7,128.1,96,128.1,88.7,126.5L88.7,126.5z"/>
</g>
<path class="st6" d="M76.7,92.4c0,0,3.9,3.2,3.9,5.7s-1.7,4.4-3.9,4.4s-3.9-2-3.9-4.4S76.7,92.4,76.7,92.4z"/>
<g>
	<path class="st7" d="M109.4,113.2c2-0.8-0.5-3,1.3-3.9c2.5,4.9,1.5,6.1-4.9,6.1C105.8,112.8,107.9,113.5,109.4,113.2z"/>
	<path class="st7" d="M109.4,113.2c-1.2,0.8-2.4,1.5-3.6,2.3c-0.4,0.1-0.7,0.1-1.1,0.1c-1.2,0.4-1.5-0.1-1.2-1.2
		C105.3,112.8,106.9,110.7,109.4,113.2z"/>
	<path class="st7" d="M91.8,113.1c-2-0.8,0.5-3-1.3-3.9c-2.5,4.9-1.5,6.1,4.9,6.1C95.5,112.7,93.3,113.4,91.8,113.1z"/>
	<path class="st7" d="M91.8,113.1c1.2,0.8,2.4,1.5,3.6,2.3c0.4,0.1,0.7,0.1,1.1,0.1c1.2,0.4,1.5-0.1,1.2-1.2
		C96,112.8,94.4,110.7,91.8,113.1z"/>
	<path class="st7" d="M96.5,115.6c0.4-0.4,0.8-0.9,1.2-1.2c2,1.1,3.8,1.4,5.8,0c0.4,0.4,0.8,0.8,1.2,1.2
		C102,117.3,99.3,117.4,96.5,115.6z"/>
</g>
</svg>
