<?xml version="1.0" encoding="utf-8"?>
<!-- Generator: Adobe Illustrator 26.0.3, SVG Export Plug-In . SVG Version: 6.00 Build 0)  -->
<svg version="1.1" id="Calque_1" xmlns="http://www.w3.org/2000/svg" xmlns:xlink="http://www.w3.org/1999/xlink" x="0px" y="0px"
	 viewBox="0 0 788 1005" style="enable-background:new 0 0 788 1005;" xml:space="preserve">
<style type="text/css">
	.st0{fill:#FFFFFF;}
	.st1{fill:#080808;}
	.st2{clip-path:url(#SVGID_00000159429118832077155900000008189087961326128784_);}
	.st3{fill:none;stroke:#000000;stroke-width:2;stroke-linecap:round;stroke-miterlimit:10;}
	.st4{clip-path:url(#SVGID_00000080195369308493379370000014137999515193371799_);}
	.st5{fill:#5B2945;}
	.st6{fill:#4DA0FF;}
	.st7{fill:#6A2C18;}
</style>
<path class="st0" d="M417.6,242.6c0,3.7-3,6.8-6.8,6.8s-6.8-3-6.8-6.8l0,0H417.6z"/>
<path class="st0" d="M382.8,242.6c0,3.7-3,6.8-6.8,6.8s-6.8-3-6.8-6.8l0,0H382.8z"/>
<path class="st1" d="M380.1,243.2c0,2.2-1.8,4-4,4s-4-1.8-4-4c0-0.2,0-0.4,0-0.6h7.9C380.1,242.8,380.1,243,380.1,243.2z"/>
<path class="st1" d="M415.1,243.2c0,2.2-1.8,4-4,4s-4-1.8-4-4c0-0.2,0-0.4,0-0.6h7.9C415,242.8,415.1,243,415.1,243.2z"/>
<g>
	<g>
		<defs>
			<rect id="SVGID_1_" x="402.9" y="228.2" width="21.6" height="7.1"/>
		</defs>
		<clipPath id="SVGID_00000044155365456282904370000009993564361547852200_">
			<use xlink:href="#SVGID_1_"  style="overflow:visible;"/>
		</clipPath>
		<g style="clip-path:url(#SVGID_00000044155365456282904370000009993564361547852200_);">
			<path class="st3" d="M403.9,229.2c9.8,0.2,19.6,5.1,19.6,5.1"/>
		</g>
	</g>
</g>
<g>
	<g>
		<defs>
			<rect id="SVGID_00000140697294933158971620000000218341820126993288_" x="363.7" y="228.2" width="21.6" height="7.1"/>
		</defs>
		<clipPath id="SVGID_00000047046664139312548530000005897781733439918758_">
			<use xlink:href="#SVGID_00000140697294933158971620000000218341820126993288_"  style="overflow:visible;"/>
		</clipPath>
		<g style="clip-path:url(#SVGID_00000047046664139312548530000005897781733439918758_);">
			<path class="st3" d="M384.3,229.2c-9.8,0.2-19.6,5.1-19.6,5.1"/>
		</g>
	</g>
</g>
<g>
	<path class="st5" d="M382.8,281.4c7.3-1.2,15-1.2,22.3,0C397.8,283,390.1,283,382.8,281.4L382.8,281.4z"/>
</g>
<ellipse class="st6" cx="370.8" cy="253" rx="3.9" ry="4.4"/>
<g>
	<path class="st7" d="M403.5,268.1c2-0.8-0.5-3,1.3-3.9c2.5,4.9,1.5,6.1-4.9,6.1C399.9,267.7,402,268.4,403.5,268.1z"/>
	<path class="st7" d="M403.5,268.1c-1.2,0.8-2.4,1.5-3.6,2.3c-0.4,0.1-0.7,0.1-1.1,0.1c-1.2,0.4-1.5-0.1-1.2-1.2
		C399.4,267.7,401,265.6,403.5,268.1z"/>
	<path class="st7" d="M385.9,268c-2-0.8,0.5-3-1.3-3.9c-2.5,4.9-1.5,6.1,4.9,6.1C389.6,267.6,387.4,268.3,385.9,268z"/>
	<path class="st7" d="M385.9,268c1.2,0.8,2.4,1.5,3.6,2.3c0.4,0.1,0.7,0.1,1.1,0.1c1.2,0.4,1.5-0.1,1.2-1.2
		C390.1,267.7,388.5,265.6,385.9,268z"/>
	<path class="st7" d="M390.6,270.5c0.4-0.4,0.8-0.9,1.2-1.2c2,1.1,3.8,1.4,5.8,0c0.4,0.4,0.8,0.8,1.2,1.2
		C396.1,272.2,393.4,272.3,390.6,270.5z"/>
</g>
</svg>
