<?xml version="1.0" encoding="utf-8"?>
<!-- Generator: Adobe Illustrator 26.0.3, SVG Export Plug-In . SVG Version: 6.00 Build 0)  -->
<svg version="1.1" id="Calque_1" xmlns="http://www.w3.org/2000/svg" xmlns:xlink="http://www.w3.org/1999/xlink" x="0px" y="0px"
	 viewBox="0 0 200 200" style="enable-background:new 0 0 200 200;" xml:space="preserve">
<style type="text/css">
	.st0{fill:#FFFFFF;}
	.st1{fill:#662C34;}
	.st2{clip-path:url(#SVGID_00000049919538669569267410000009003113523319244186_);fill:#51281D;}
	.st3{clip-path:url(#SVGID_00000083787532543050514010000006221501695563576244_);fill:#51281D;}
	.st4{fill:#6A2C18;}
</style>
<g>
	<circle class="st0" cx="78.4" cy="91.2" r="6.1"/>
	<circle cx="78.4" cy="91.2" r="4.1"/>
</g>
<g>
	<path class="st1" d="M86.2,124.4c8.7,3,18.3,2.8,26.9-0.5C105.9,129.9,93.7,130.1,86.2,124.4L86.2,124.4z"/>
</g>
<g>
	<g>
		<g>
			<g>
				<g>
					<g>
						<defs>
							<polygon id="SVGID_1_" points="110.6,71.1 110.6,71.1 134,71.1 134,78.2 110.6,78.2 							"/>
						</defs>
						<clipPath id="SVGID_00000160187118886824764470000004920707636657019067_">
							<use xlink:href="#SVGID_1_"  style="overflow:visible;"/>
						</clipPath>
						<path style="clip-path:url(#SVGID_00000160187118886824764470000004920707636657019067_);fill:#51281D;" d="M132.9,78.2
							c-0.1,0-0.3,0-0.4-0.1c0,0-3.6-1.5-7.2-2.3c-7.9-1.8-8.4-0.5-11.1,0c-0.8,0.2-2.7-0.3-3.1-0.8s-0.8-2.1-0.3-2.5
							c0.2-0.2,3.7-2.6,12.7-0.5c3.7,0.9,9.7,4.1,9.8,4.2c0.6,0.2,0.8,0.9,0.6,1.5C133.7,78,133.3,78.2,132.9,78.2z"/>
					</g>
				</g>
			</g>
		</g>
	</g>
	<g>
		<g>
			<g>
				<g>
					<g>
						<defs>
							<polygon id="SVGID_00000139977493774091115400000012264278852719853718_" points="87.8,71.1 87.8,71.1 64.4,71.1 64.4,78.2 
								87.8,78.2 							"/>
						</defs>
						<clipPath id="SVGID_00000157297021150220749450000013709872292871166344_">
							<use xlink:href="#SVGID_00000139977493774091115400000012264278852719853718_"  style="overflow:visible;"/>
						</clipPath>
						<path style="clip-path:url(#SVGID_00000157297021150220749450000013709872292871166344_);fill:#51281D;" d="M65.5,78.2
							c0.1,0,0.3,0,0.4-0.1c0,0,3.6-1.5,7.2-2.3c7.9-1.8,8.4-0.5,11.1,0c0.8,0.2,2.7-0.3,3.1-0.8s0.8-2.1,0.3-2.5
							c-0.2-0.2-3.7-2.6-12.7-0.5c-3.7,0.9-9.7,4.1-9.8,4.2c-0.6,0.2-0.8,0.9-0.6,1.5C64.7,78,65.1,78.2,65.5,78.2z"/>
					</g>
				</g>
			</g>
		</g>
	</g>
</g>
<g>
	<circle class="st0" cx="119.2" cy="91.2" r="6.1"/>
	<circle cx="119.2" cy="91.2" r="4.1"/>
</g>
<g>
	<path class="st4" d="M108.4,112.5c2-0.8-0.5-3,1.3-3.9c2.5,4.9,1.5,6.1-4.9,6.1C104.8,112.1,106.9,112.8,108.4,112.5z"/>
	<path class="st4" d="M108.4,112.5c-1.2,0.8-2.4,1.5-3.6,2.3c-0.4,0.1-0.7,0.1-1.1,0.1c-1.2,0.4-1.5-0.1-1.2-1.2
		C104.3,112.1,105.9,110,108.4,112.5z"/>
	<path class="st4" d="M90.8,112.4c-2-0.8,0.5-3-1.3-3.9c-2.5,4.9-1.5,6.1,4.9,6.1C94.5,112,92.3,112.7,90.8,112.4z"/>
	<path class="st4" d="M90.8,112.4c1.2,0.8,2.4,1.5,3.6,2.3c0.4,0.1,0.7,0.1,1.1,0.1c1.2,0.4,1.5-0.1,1.2-1.2
		C95,112.1,93.4,110,90.8,112.4z"/>
	<path class="st4" d="M95.5,114.9c0.4-0.4,0.8-0.9,1.2-1.2c2,1.1,3.8,1.4,5.8,0c0.4,0.4,0.8,0.8,1.2,1.2
		C101,116.6,98.3,116.7,95.5,114.9z"/>
</g>
</svg>
