<?xml version="1.0" encoding="utf-8"?>
<!-- Generator: Adobe Illustrator 26.0.3, SVG Export Plug-In . SVG Version: 6.00 Build 0)  -->
<svg version="1.1" id="Calque_1" xmlns="http://www.w3.org/2000/svg" xmlns:xlink="http://www.w3.org/1999/xlink" x="0px" y="0px"
	 viewBox="0 0 200 200" style="enable-background:new 0 0 200 200;" xml:space="preserve">
<style type="text/css">
	.st0{fill:#FFFFFF;}
	.st1{fill:#4C2014;}
	.st2{fill:#51281D;}
	.st3{fill:#6A2C18;}
</style>
<circle class="st0" cx="81.7" cy="86.4" r="6.8"/>
<circle class="st0" cx="117.8" cy="86.4" r="6.8"/>
<circle cx="79.4" cy="84.6" r="3.3"/>
<circle cx="115.8" cy="84.6" r="3.3"/>
<path class="st1" d="M83.9,121.2c0.3-0.6,1.4-1.6,3.5-2.5c3.4-1.3,6.9-2.1,10.6-2.1c5.9-0.1,11.6,2.1,15.9,6.1
	c0,0-4.6,11.7-15.8,10.9C89.9,133,83.9,121.2,83.9,121.2z"/>
<path class="st0" d="M98.4,121.6l-8.2-0.4l-2.2-0.9c3.6-1.5,7.5-2.1,11.4-2c6.7,0.4,10.3,2.9,10.3,2.9L108,122L98.4,121.6z"/>
<path class="st2" d="M68.8,74.1c0.1,0,0.3,0,0.4,0c0,0,4.4-3.8,8-3.6c8.2,0.5,8,3.4,10.7,4.2c0.8,0.2,2.7-0.1,3.2-0.5
	c0.4-0.4,1-2.1,0.5-2.5c-0.2-0.2-6.9-5.5-16.1-4.4c-3.8,0.5-6.8,4.6-7,4.7c-0.6,0.2-0.9,0.8-0.7,1.4C68.1,73.9,68.4,74.1,68.8,74.1z
	"/>
<path class="st2" d="M131.2,73.4c-0.1,0-0.3,0-0.4,0c0,0-4.4-3.8-8-3.6c-8.2,0.5-8,3.4-10.7,4.2c-0.8,0.2-2.7-0.1-3.2-0.5
	c-0.4-0.4-1-2.1-0.5-2.5c0.2-0.2,6.9-5.5,16.1-4.4c3.8,0.5,6.8,4.6,7,4.7c0.6,0.2,0.9,0.8,0.7,1.4C131.9,73.1,131.6,73.4,131.2,73.4
	z"/>
<g>
	<path class="st3" d="M109.1,107.3c2-0.8-0.5-3,1.3-3.9c2.5,4.9,1.5,6.1-4.9,6.1C105.5,106.9,107.6,107.6,109.1,107.3z"/>
	<path class="st3" d="M109.1,107.3c-1.2,0.8-2.4,1.5-3.6,2.3c-0.4,0.1-0.7,0.1-1.1,0.1c-1.2,0.4-1.5-0.1-1.2-1.2
		C105,106.9,106.6,104.8,109.1,107.3z"/>
	<path class="st3" d="M91.5,107.2c-2-0.8,0.5-3-1.3-3.9c-2.5,4.9-1.5,6.1,4.9,6.1C95.2,106.8,93,107.5,91.5,107.2z"/>
	<path class="st3" d="M91.5,107.2c1.2,0.8,2.4,1.5,3.6,2.3c0.4,0.1,0.7,0.1,1.1,0.1c1.2,0.4,1.5-0.1,1.2-1.2
		C95.7,106.9,94.1,104.8,91.5,107.2z"/>
	<path class="st3" d="M96.2,109.7c0.4-0.4,0.8-0.9,1.2-1.2c2,1.1,3.8,1.4,5.8,0c0.4,0.4,0.8,0.8,1.2,1.2
		C101.7,111.4,99,111.5,96.2,109.7z"/>
</g>
</svg>
