<?xml version="1.0" encoding="utf-8"?>
<!-- Generator: Adobe Illustrator 26.0.3, SVG Export Plug-In . SVG Version: 6.00 Build 0)  -->
<svg version="1.1" id="Calque_1" xmlns="http://www.w3.org/2000/svg" xmlns:xlink="http://www.w3.org/1999/xlink" x="0px" y="0px"
	 viewBox="0 0 788 1005" style="enable-background:new 0 0 788 1005;" xml:space="preserve">
<style type="text/css">
	.st0{fill:#020202;}
	.st1{fill:#51281D;}
	.st2{fill:#FFFFFF;}
	.st3{fill:#662C34;}
	.st4{fill:#6A2C18;}
</style>
<path class="st0" d="M420.9,243.8c0,0-0.6-0.1-2.9-0.7c-4.4-1.1-6.9-1.2-8.9-0.6c-2.7,0.9-5.8,2.1-6.6,0.4c-0.1-0.3,1.5-3.3,6.8-3.7
	c5-0.4,7.9,1.6,11,3c0.4,0.2,0.6,0.5,0.6,1V243.8z"/>
<path class="st1" d="M424.9,237.6c-0.1,0-0.3-0.1-0.4-0.1c0,0-3.4-2-6.8-3.2c-7.6-2.7-8.2-1.6-11-1.4c-0.8,0.1-2.6-0.6-3-1.2
	c-0.3-0.5-0.5-2.2,0-2.6c0.2-0.1,4-2.1,12.7,1c3.6,1.3,9.1,5.2,9.2,5.3c0.5,0.3,0.7,1,0.4,1.5C425.8,237.4,425.4,237.6,424.9,237.6z
	"/>
<path class="st1" d="M363.1,229.5c0.1,0,0.3,0,0.4,0c0,0,3.8-1.2,7.4-1.6c8-1,8.4,0.3,11,1.1c0.8,0.2,2.7-0.1,3.2-0.5
	c0.4-0.4,1-2.1,0.5-2.5c-0.2-0.2-3.4-2.9-12.6-1.8c-3.8,0.5-10,3.1-10.2,3.2c-0.6,0.2-0.9,0.8-0.7,1.4
	C362.3,229.1,362.7,229.4,363.1,229.5z"/>
<g>
	<circle class="st2" cx="373.2" cy="240.7" r="6.1"/>
	<circle cx="373.2" cy="240.7" r="4.1"/>
</g>
<g>
	<path class="st3" d="M381,273.9c8.7,3,18.3,2.8,26.9-0.5C400.6,279.4,388.4,279.6,381,273.9L381,273.9z"/>
</g>
<g>
	<path class="st4" d="M403.2,261.9c2-0.8-0.5-3,1.3-3.9c2.5,4.9,1.5,6.1-4.9,6.1C399.6,261.5,401.7,262.2,403.2,261.9z"/>
	<path class="st4" d="M403.2,261.9c-1.2,0.8-2.4,1.5-3.6,2.3c-0.4,0.1-0.7,0.1-1.1,0.1c-1.2,0.4-1.5-0.1-1.2-1.2
		C399.1,261.5,400.7,259.4,403.2,261.9z"/>
	<path class="st4" d="M385.6,261.8c-2-0.8,0.5-3-1.3-3.9c-2.5,4.9-1.5,6.1,4.9,6.1C389.3,261.4,387.1,262.1,385.6,261.8z"/>
	<path class="st4" d="M385.6,261.8c1.2,0.8,2.4,1.5,3.6,2.3c0.4,0.1,0.7,0.1,1.1,0.1c1.2,0.4,1.5-0.1,1.2-1.2
		C389.8,261.5,388.2,259.4,385.6,261.8z"/>
	<path class="st4" d="M390.3,264.3c0.4-0.4,0.8-0.9,1.2-1.2c2,1.1,3.8,1.4,5.8,0c0.4,0.4,0.8,0.8,1.2,1.2
		C395.8,266,393.1,266.1,390.3,264.3z"/>
</g>
</svg>
