<?xml version="1.0" encoding="utf-8"?>
<!-- Generator: Adobe Illustrator 26.0.3, SVG Export Plug-In . SVG Version: 6.00 Build 0)  -->
<svg version="1.1" id="Calque_1" xmlns="http://www.w3.org/2000/svg" xmlns:xlink="http://www.w3.org/1999/xlink" x="0px" y="0px"
	 viewBox="0 0 200 200" style="enable-background:new 0 0 200 200;" xml:space="preserve">
<style type="text/css">
	.st0{fill:#6B3457;}
	.st1{fill:#020202;}
	.st2{fill:#51281D;}
	.st3{fill:#6A2C18;}
</style>
<g id="Calque_10_00000075157077899177164650000000657746754378219427_">
	<g>
		<path class="st0" d="M88.2,125.7c7.3,2.4,15.1,2.4,22.3-0.4C104.7,130.9,94.3,130.9,88.2,125.7L88.2,125.7z"/>
	</g>
	<path class="st1" d="M127.3,90.5c-0.6,1-1.9,1.3-2.9,0.6c-1.8-1.1-6.9-1.2-8.9-0.6c-2.7,0.9-5.8,2.1-6.6,0.4
		c-0.1-0.3,1.5-3.3,6.8-3.7S124.8,90.1,127.3,90.5L127.3,90.5z"/>
	<path class="st1" d="M71.1,90.5c0.6,1,1.9,1.3,2.9,0.6c1.8-1.1,6.9-1.2,8.9-0.6c2.7,0.9,5.8,2.1,6.6,0.4c0.1-0.3-1.5-3.3-6.8-3.7
		S73.5,90.1,71.1,90.5L71.1,90.5z"/>
	<path class="st2" d="M69.7,81.5c0.1,0,0.3-0.1,0.4-0.1c0,0,3.6-4.5,7.2-5c8.1-1,8.5,1.9,11.3,2.2c0.8,0.1,2.7-0.5,3-1
		c0.4-0.5,0.6-2.2,0.1-2.6c-0.2-0.2-7.8-4.2-16.6-1.4c-3.7,1.2-5.9,5.8-6,5.8c-0.5,0.3-0.8,1-0.5,1.5C68.9,81.3,69.3,81.5,69.7,81.5
		z"/>
	<path class="st2" d="M129.4,81.8c-0.1,0-0.3-0.1-0.4-0.1c0,0-3.4-4.7-6.9-5.4c-8-1.5-8.6,1.4-11.4,1.6c-0.8,0-2.6-0.7-3-1.2
		c-0.3-0.5-0.4-2.2,0.1-2.6c0.2-0.1,8-3.8,16.6-0.5c3.6,1.4,5.5,6.1,5.7,6.2c0.5,0.3,0.7,1,0.4,1.5
		C130.3,81.7,129.9,81.9,129.4,81.8z"/>
</g>
<g>
	<path class="st3" d="M108.4,112.6c2-0.8-0.5-3,1.3-3.9c2.5,4.9,1.5,6.1-4.9,6.1C104.8,112.2,106.9,112.9,108.4,112.6z"/>
	<path class="st3" d="M108.4,112.6c-1.2,0.8-2.4,1.5-3.6,2.3c-0.4,0.1-0.7,0.1-1.1,0.1c-1.2,0.4-1.5-0.1-1.2-1.2
		C104.3,112.2,105.9,110.1,108.4,112.6z"/>
	<path class="st3" d="M90.8,112.5c-2-0.8,0.5-3-1.3-3.9c-2.5,4.9-1.5,6.1,4.9,6.1C94.5,112.1,92.3,112.8,90.8,112.5z"/>
	<path class="st3" d="M90.8,112.5c1.2,0.8,2.4,1.5,3.6,2.3c0.4,0.1,0.7,0.1,1.1,0.1c1.2,0.4,1.5-0.1,1.2-1.2
		C95,112.2,93.4,110.1,90.8,112.5z"/>
	<path class="st3" d="M95.5,115c0.4-0.4,0.8-0.9,1.2-1.2c2,1.1,3.8,1.4,5.8,0c0.4,0.4,0.8,0.8,1.2,1.2
		C101,116.7,98.3,116.8,95.5,115z"/>
</g>
</svg>
