<?xml version="1.0" encoding="utf-8"?>
<!-- Generator: Adobe Illustrator 26.0.3, SVG Export Plug-In . SVG Version: 6.00 Build 0)  -->
<svg version="1.1" id="Calque_1" xmlns="http://www.w3.org/2000/svg" xmlns:xlink="http://www.w3.org/1999/xlink" x="0px" y="0px"
	 viewBox="0 0 788 1005" style="enable-background:new 0 0 788 1005;" xml:space="preserve">
<style type="text/css">
	.st0{fill:#FFFFFF;}
	.st1{fill:#080808;stroke:#000000;stroke-miterlimit:10;}
	.st2{fill:#66183F;}
	.st3{fill:#51281D;}
	.st4{fill:#6A2C18;}
</style>
<circle class="st0" cx="411.9" cy="244" r="6.8"/>
<circle class="st0" cx="377.1" cy="244" r="6.8"/>
<circle class="st1" cx="379.2" cy="244.1" r="4"/>
<circle class="st1" cx="414.1" cy="244.1" r="4"/>
<ellipse class="st2" cx="395" cy="282.7" rx="2.9" ry="4.5"/>
<path class="st3" d="M364.1,233.4c0.1,0,0.3,0,0.4,0c0,0,4.4-3.8,8-3.6c8.2,0.5,8,3.4,10.7,4.2c0.8,0.2,2.7-0.1,3.2-0.5
	c0.4-0.4,1-2.1,0.5-2.5c-0.2-0.2-6.9-5.5-16.1-4.4c-3.8,0.5-6.8,4.6-7,4.7c-0.6,0.2-0.9,0.8-0.7,1.4
	C363.3,233.1,363.7,233.4,364.1,233.4z"/>
<path class="st3" d="M426.4,232.7c-0.1,0-0.3,0-0.4,0c0,0-4.4-3.8-8-3.6c-8.2,0.5-8,3.4-10.7,4.2c-0.8,0.2-2.7-0.1-3.2-0.5
	c-0.4-0.4-1-2.1-0.5-2.5c0.2-0.2,6.9-5.5,16.1-4.4c3.8,0.5,6.8,4.6,7,4.7c0.6,0.2,0.9,0.8,0.7,1.4
	C427.2,232.4,426.8,232.7,426.4,232.7z"/>
<g>
	<path class="st4" d="M404.1,265.7c2-0.8-0.5-3,1.3-3.9c2.5,4.9,1.5,6.1-4.9,6.1C400.5,265.3,402.6,266,404.1,265.7z"/>
	<path class="st4" d="M404.1,265.7c-1.2,0.8-2.4,1.5-3.6,2.3c-0.4,0.1-0.7,0.1-1.1,0.1c-1.2,0.4-1.5-0.1-1.2-1.2
		C400,265.3,401.6,263.2,404.1,265.7z"/>
	<path class="st4" d="M386.5,265.6c-2-0.8,0.5-3-1.3-3.9c-2.5,4.9-1.5,6.1,4.9,6.1C390.2,265.2,388,265.9,386.5,265.6z"/>
	<path class="st4" d="M386.5,265.6c1.2,0.8,2.4,1.5,3.6,2.3c0.4,0.1,0.7,0.1,1.1,0.1c1.2,0.4,1.5-0.1,1.2-1.2
		C390.7,265.3,389.1,263.2,386.5,265.6z"/>
	<path class="st4" d="M391.2,268.1c0.4-0.4,0.8-0.9,1.2-1.2c2,1.1,3.8,1.4,5.8,0c0.4,0.4,0.8,0.8,1.2,1.2
		C396.7,269.8,394,269.9,391.2,268.1z"/>
</g>
</svg>
