<?xml version="1.0" encoding="utf-8"?>
<!-- Generator: Adobe Illustrator 26.0.3, SVG Export Plug-In . SVG Version: 6.00 Build 0)  -->
<svg version="1.1" id="Calque_1" xmlns="http://www.w3.org/2000/svg" xmlns:xlink="http://www.w3.org/1999/xlink" x="0px" y="0px"
	 viewBox="0 0 200 200" style="enable-background:new 0 0 200 200;" xml:space="preserve">
<style type="text/css">
	.st0{fill:#FFFFFF;}
	.st1{fill:#662C34;}
	.st2{clip-path:url(#SVGID_00000012469573662226364970000009729937520452206242_);fill:#51281D;}
	.st3{clip-path:url(#SVGID_00000092437952623654376490000006163635193982396560_);fill:#51281D;}
	.st4{fill:#6A2C18;}
	.st5{fill:#EFEFEF;}
</style>
<g>
	<circle class="st0" cx="79.2" cy="82.8" r="6.1"/>
	<circle cx="79.2" cy="82.8" r="4.1"/>
</g>
<g>
	<path class="st1" d="M87,116c8.7,3,18.3,2.8,26.9-0.5C106.7,121.5,94.5,121.7,87,116L87,116z"/>
</g>
<g>
	<g>
		<g>
			<g>
				<g>
					<g>
						<g>
							<defs>
								<polygon id="SVGID_1_" points="111.4,62.7 111.4,62.7 134.8,62.7 134.8,69.8 111.4,69.8 								"/>
							</defs>
							<clipPath id="SVGID_00000051366325772000111370000000078636715236370594_">
								<use xlink:href="#SVGID_1_"  style="overflow:visible;"/>
							</clipPath>
							<path style="clip-path:url(#SVGID_00000051366325772000111370000000078636715236370594_);fill:#51281D;" d="M133.7,69.8
								c-0.1,0-0.3,0-0.4-0.1c0,0-3.6-1.5-7.2-2.3c-7.9-1.8-8.4-0.5-11.1,0c-0.8,0.2-2.7-0.3-3.1-0.8s-0.8-2.1-0.3-2.5
								c0.2-0.2,3.7-2.6,12.7-0.5c3.7,0.9,9.7,4.1,9.8,4.2c0.6,0.2,0.8,0.9,0.6,1.5C134.5,69.6,134.1,69.8,133.7,69.8z"/>
						</g>
					</g>
				</g>
			</g>
		</g>
	</g>
	<g>
		<g>
			<g>
				<g>
					<g>
						<g>
							<defs>
								<polygon id="SVGID_00000173877647624552717200000013163548563732552626_" points="88.6,62.7 88.6,62.7 65.2,62.7 65.2,69.8 
									88.6,69.8 								"/>
							</defs>
							<clipPath id="SVGID_00000074408098679021604120000001646237285676641957_">
								<use xlink:href="#SVGID_00000173877647624552717200000013163548563732552626_"  style="overflow:visible;"/>
							</clipPath>
							<path style="clip-path:url(#SVGID_00000074408098679021604120000001646237285676641957_);fill:#51281D;" d="M66.3,69.8
								c0.1,0,0.3,0,0.4-0.1c0,0,3.6-1.5,7.2-2.3c7.9-1.8,8.4-0.5,11.1,0c0.8,0.2,2.7-0.3,3.1-0.8s0.8-2.1,0.3-2.5
								c-0.2-0.2-3.7-2.6-12.7-0.5c-3.7,0.9-9.7,4.1-9.8,4.2c-0.6,0.2-0.8,0.9-0.6,1.5C65.5,69.6,65.9,69.8,66.3,69.8z"/>
						</g>
					</g>
				</g>
			</g>
		</g>
	</g>
</g>
<g>
	<circle class="st0" cx="120" cy="82.8" r="6.1"/>
	<circle cx="120" cy="82.8" r="4.1"/>
</g>
<g>
	<path class="st4" d="M109.2,104c2-0.8-0.5-3,1.3-3.9c2.5,4.9,1.5,6.1-4.9,6.1C105.6,103.6,107.7,104.3,109.2,104z"/>
	<path class="st4" d="M109.2,104c-1.2,0.8-2.4,1.5-3.6,2.3c-0.4,0.1-0.7,0.1-1.1,0.1c-1.2,0.4-1.5-0.1-1.2-1.2
		C105.1,103.6,106.7,101.5,109.2,104z"/>
	<path class="st4" d="M91.6,103.9c-2-0.8,0.5-3-1.3-3.9c-2.5,4.9-1.5,6.1,4.9,6.1C95.3,103.5,93.1,104.2,91.6,103.9z"/>
	<path class="st4" d="M91.6,103.9c1.2,0.8,2.4,1.5,3.6,2.3c0.4,0.1,0.7,0.1,1.1,0.1c1.2,0.4,1.5-0.1,1.2-1.2
		C95.8,103.6,94.2,101.5,91.6,103.9z"/>
	<path class="st4" d="M96.3,106.4c0.4-0.4,0.8-0.9,1.2-1.2c2,1.1,3.8,1.4,5.8,0c0.4,0.4,0.8,0.8,1.2,1.2
		C101.8,108.1,99.1,108.2,96.3,106.4z"/>
</g>
<path class="st5" d="M100.9,138.5L100.9,138.5c-6.3,0-23.5-12-23.5-18.5v-11.8c0-6.3,17.2-15.1,23.5-15.1l0,0
	c6.3,0,23.5,8.7,23.5,15.1v11.9C124.4,126.5,107.2,138.5,100.9,138.5z"/>
</svg>
