<?xml version="1.0" encoding="utf-8"?>
<!-- Generator: Adobe Illustrator 26.0.3, SVG Export Plug-In . SVG Version: 6.00 Build 0)  -->
<svg version="1.1" id="Calque_1" xmlns="http://www.w3.org/2000/svg" xmlns:xlink="http://www.w3.org/1999/xlink" x="0px" y="0px"
	 viewBox="0 0 200 200" style="enable-background:new 0 0 200 200;" xml:space="preserve">
<style type="text/css">
	.st0{fill:#FFFFFF;}
	.st1{fill:#080808;stroke:#000000;stroke-miterlimit:10;}
	.st2{fill:#66183F;}
	.st3{fill:#51281D;}
	.st4{fill:#6A2C18;}
</style>
<circle class="st0" cx="117.3" cy="88.1" r="6.8"/>
<circle class="st0" cx="82.6" cy="88.1" r="6.8"/>
<circle class="st1" cx="84.7" cy="88.2" r="4"/>
<circle class="st1" cx="119.6" cy="88.2" r="4"/>
<ellipse class="st2" cx="100.4" cy="126.8" rx="2.9" ry="4.5"/>
<path class="st3" d="M69.6,77.5c0.1,0,0.3,0,0.4,0c0,0,4.4-3.8,8-3.6c8.2,0.5,8,3.4,10.7,4.2c0.8,0.2,2.7-0.1,3.2-0.5
	c0.4-0.4,1-2.1,0.5-2.5c-0.2-0.2-6.9-5.5-16.1-4.4c-3.8,0.5-6.8,4.6-7,4.7c-0.6,0.2-0.9,0.8-0.7,1.4C68.7,77.2,69.2,77.5,69.6,77.5z
	"/>
<path class="st3" d="M131.8,76.8c-0.1,0-0.3,0-0.4,0c0,0-4.4-3.8-8-3.6c-8.2,0.5-8,3.4-10.7,4.2c-0.8,0.2-2.7-0.1-3.2-0.5
	c-0.4-0.4-1-2.1-0.5-2.5c0.2-0.2,6.9-5.5,16.1-4.4c3.8,0.5,6.8,4.6,7,4.7c0.6,0.2,0.9,0.8,0.7,1.4C132.7,76.5,132.2,76.8,131.8,76.8
	z"/>
<g>
	<path class="st4" d="M109.6,109.8c2-0.8-0.5-3,1.3-3.9c2.5,4.9,1.5,6.1-4.9,6.1C106,109.4,108.1,110.1,109.6,109.8z"/>
	<path class="st4" d="M109.6,109.8c-1.2,0.8-2.4,1.5-3.6,2.3c-0.4,0.1-0.7,0.1-1.1,0.1c-1.2,0.4-1.5-0.1-1.2-1.2
		C105.5,109.4,107.1,107.3,109.6,109.8z"/>
	<path class="st4" d="M92,109.7c-2-0.8,0.5-3-1.3-3.9c-2.5,4.9-1.5,6.1,4.9,6.1C95.7,109.3,93.5,110,92,109.7z"/>
	<path class="st4" d="M92,109.7c1.2,0.8,2.4,1.5,3.6,2.3c0.4,0.1,0.7,0.1,1.1,0.1c1.2,0.4,1.5-0.1,1.2-1.2
		C96.2,109.4,94.6,107.3,92,109.7z"/>
	<path class="st4" d="M96.7,112.2c0.4-0.4,0.8-0.9,1.2-1.2c2,1.1,3.8,1.4,5.8,0c0.4,0.4,0.8,0.8,1.2,1.2
		C102.2,113.9,99.5,114,96.7,112.2z"/>
</g>
</svg>
