<?xml version="1.0" encoding="utf-8"?>
<!-- Generator: Adobe Illustrator 26.0.3, SVG Export Plug-In . SVG Version: 6.00 Build 0)  -->
<svg version="1.1" id="Calque_1" xmlns="http://www.w3.org/2000/svg" xmlns:xlink="http://www.w3.org/1999/xlink" x="0px" y="0px"
	 viewBox="0 0 788 1005" style="enable-background:new 0 0 788 1005;" xml:space="preserve">
<style type="text/css">
	.st0{fill:#FFFFFF;}
	.st1{fill:#662C34;}
	.st2{clip-path:url(#SVGID_00000060734453406067806590000015926548577430291098_);fill:#51281D;}
	.st3{clip-path:url(#SVGID_00000043458505733267053210000011018599911107768485_);fill:#51281D;}
	.st4{fill:#6A2C18;}
</style>
<g>
	<circle class="st0" cx="372.3" cy="241.4" r="6.1"/>
	<circle cx="372.3" cy="241.4" r="4.1"/>
</g>
<g>
	<path class="st1" d="M380.1,274.6c8.7,3,18.3,2.8,26.9-0.5C399.8,280.1,387.6,280.3,380.1,274.6L380.1,274.6z"/>
</g>
<g>
	<g>
		<g>
			<g>
				<g>
					<g>
						<defs>
							<polygon id="SVGID_1_" points="404.5,221.3 404.5,221.3 427.9,221.3 427.9,228.4 404.5,228.4 							"/>
						</defs>
						<clipPath id="SVGID_00000107574262284818448480000007666190580860278939_">
							<use xlink:href="#SVGID_1_"  style="overflow:visible;"/>
						</clipPath>
						<path style="clip-path:url(#SVGID_00000107574262284818448480000007666190580860278939_);fill:#51281D;" d="M426.8,228.4
							c-0.1,0-0.3,0-0.4-0.1c0,0-3.6-1.5-7.2-2.3c-7.9-1.8-8.4-0.5-11.1,0c-0.8,0.2-2.7-0.3-3.1-0.8s-0.8-2.1-0.3-2.5
							c0.2-0.2,3.7-2.6,12.7-0.5c3.7,0.9,9.7,4.1,9.8,4.2c0.6,0.2,0.8,0.9,0.6,1.5C427.6,228.2,427.2,228.4,426.8,228.4z"/>
					</g>
				</g>
			</g>
		</g>
	</g>
	<g>
		<g>
			<g>
				<g>
					<g>
						<defs>
							<polygon id="SVGID_00000016043452550920885290000016908824694662410653_" points="381.7,221.3 381.7,221.3 358.3,221.3 
								358.3,228.4 381.7,228.4 							"/>
						</defs>
						<clipPath id="SVGID_00000083810162043322106710000005221562897896076698_">
							<use xlink:href="#SVGID_00000016043452550920885290000016908824694662410653_"  style="overflow:visible;"/>
						</clipPath>
						<path style="clip-path:url(#SVGID_00000083810162043322106710000005221562897896076698_);fill:#51281D;" d="M359.4,228.4
							c0.1,0,0.3,0,0.4-0.1c0,0,3.6-1.5,7.2-2.3c7.9-1.8,8.4-0.5,11.1,0c0.8,0.2,2.7-0.3,3.1-0.8s0.8-2.1,0.3-2.5
							c-0.2-0.2-3.7-2.6-12.7-0.5c-3.7,0.9-9.7,4.1-9.8,4.2c-0.6,0.2-0.8,0.9-0.6,1.5C358.6,228.2,359,228.4,359.4,228.4z"/>
					</g>
				</g>
			</g>
		</g>
	</g>
</g>
<g>
	<circle class="st0" cx="413.1" cy="241.4" r="6.1"/>
	<circle cx="413.1" cy="241.4" r="4.1"/>
</g>
<g>
	<path class="st4" d="M402.3,262.6c2-0.8-0.5-3,1.3-3.9c2.5,4.9,1.5,6.1-4.9,6.1C398.7,262.2,400.8,262.9,402.3,262.6z"/>
	<path class="st4" d="M402.3,262.6c-1.2,0.8-2.4,1.5-3.6,2.3c-0.4,0.1-0.7,0.1-1.1,0.1c-1.2,0.4-1.5-0.1-1.2-1.2
		C398.2,262.2,399.8,260.1,402.3,262.6z"/>
	<path class="st4" d="M384.7,262.5c-2-0.8,0.5-3-1.3-3.9c-2.5,4.9-1.5,6.1,4.9,6.1C388.4,262.1,386.2,262.8,384.7,262.5z"/>
	<path class="st4" d="M384.7,262.5c1.2,0.8,2.4,1.5,3.6,2.3c0.4,0.1,0.7,0.1,1.1,0.1c1.2,0.4,1.5-0.1,1.2-1.2
		C388.9,262.2,387.3,260.1,384.7,262.5z"/>
	<path class="st4" d="M389.4,265c0.4-0.4,0.8-0.9,1.2-1.2c2,1.1,3.8,1.4,5.8,0c0.4,0.4,0.8,0.8,1.2,1.2
		C394.9,266.7,392.2,266.8,389.4,265z"/>
</g>
</svg>
