<?xml version="1.0" encoding="utf-8"?>
<!-- Generator: Adobe Illustrator 26.0.3, SVG Export Plug-In . SVG Version: 6.00 Build 0)  -->
<svg version="1.1" id="Calque_1" xmlns="http://www.w3.org/2000/svg" xmlns:xlink="http://www.w3.org/1999/xlink" x="0px" y="0px"
	 viewBox="0 0 200 200" style="enable-background:new 0 0 200 200;" xml:space="preserve">
<style type="text/css">
	.st0{fill:#020202;}
	.st1{fill:#51281D;}
	.st2{fill:#FFFFFF;}
	.st3{fill:#662C34;}
	.st4{fill:#6A2C18;}
</style>
<path class="st0" d="M125.9,94.3c0,0-0.6-0.1-2.9-0.7c-4.4-1.1-6.9-1.2-8.9-0.6c-2.7,0.9-5.8,2.1-6.6,0.4c-0.1-0.3,1.5-3.3,6.8-3.7
	c5-0.4,7.9,1.6,11,3c0.4,0.2,0.6,0.5,0.6,1V94.3z"/>
<path class="st1" d="M129.9,88.1c-0.1,0-0.3-0.1-0.4-0.1c0,0-3.4-2-6.8-3.2c-7.6-2.7-8.2-1.6-11-1.4c-0.8,0.1-2.6-0.6-3-1.2
	c-0.3-0.5-0.5-2.2,0-2.6c0.2-0.1,4-2.1,12.7,1c3.6,1.3,9.1,5.2,9.2,5.3c0.5,0.3,0.7,1,0.4,1.5C130.8,87.9,130.4,88.1,129.9,88.1z"/>
<path class="st1" d="M68.1,80c0.1,0,0.3,0,0.4,0c0,0,3.8-1.2,7.4-1.6c8-1,8.4,0.3,11,1.1c0.8,0.2,2.7-0.1,3.2-0.5
	c0.4-0.4,1-2.1,0.5-2.5c-0.2-0.2-3.4-2.9-12.6-1.8c-3.8,0.5-10,3.1-10.2,3.2c-0.6,0.2-0.9,0.8-0.7,1.4C67.3,79.6,67.7,79.9,68.1,80z
	"/>
<g>
	<circle class="st2" cx="78.1" cy="91.2" r="6.1"/>
	<circle cx="78.1" cy="91.2" r="4.1"/>
</g>
<g>
	<path class="st3" d="M85.9,124.4c8.7,3,18.3,2.8,26.9-0.5C105.6,129.9,93.4,130.1,85.9,124.4L85.9,124.4z"/>
</g>
<g>
	<path class="st4" d="M108.1,112.4c2-0.8-0.5-3,1.3-3.9c2.5,4.9,1.5,6.1-4.9,6.1C104.5,112,106.6,112.7,108.1,112.4z"/>
	<path class="st4" d="M108.1,112.4c-1.2,0.8-2.4,1.5-3.6,2.3c-0.4,0.1-0.7,0.1-1.1,0.1c-1.2,0.4-1.5-0.1-1.2-1.2
		C104,112,105.6,109.9,108.1,112.4z"/>
	<path class="st4" d="M90.5,112.3c-2-0.8,0.5-3-1.3-3.9c-2.5,4.9-1.5,6.1,4.9,6.1C94.2,111.9,92,112.6,90.5,112.3z"/>
	<path class="st4" d="M90.5,112.3c1.2,0.8,2.4,1.5,3.6,2.3c0.4,0.1,0.7,0.1,1.1,0.1c1.2,0.4,1.5-0.1,1.2-1.2
		C94.7,112,93.1,109.9,90.5,112.3z"/>
	<path class="st4" d="M95.2,114.8c0.4-0.4,0.8-0.9,1.2-1.2c2,1.1,3.8,1.4,5.8,0c0.4,0.4,0.8,0.8,1.2,1.2
		C100.7,116.5,98,116.6,95.2,114.8z"/>
</g>
</svg>
