<?xml version="1.0" encoding="utf-8"?>
<!-- Generator: Adobe Illustrator 26.0.3, SVG Export Plug-In . SVG Version: 6.00 Build 0)  -->
<svg version="1.1" id="Calque_1" xmlns="http://www.w3.org/2000/svg" xmlns:xlink="http://www.w3.org/1999/xlink" x="0px" y="0px"
	 viewBox="0 0 788 1005" style="enable-background:new 0 0 788 1005;" xml:space="preserve">
<style type="text/css">
	.st0{fill:#E0B9A0;}
	.st1{fill:#CCAA97;}
	.st2{fill:#95C1BE;}
	.st3{fill:#888215;}
	.st4{fill:#9E9520;}
</style>
<g id="Calque_1_00000092416591651727795750000013287074332493574055_">
	<g id="Calque_12">
		<path class="st0" d="M465.8,459.5c0,0-0.1,3.9-9.3,10c-10.9,7.3-6.9,21.4-8.4,28.7c-1,4.9-9.9,17.3-13.7,16.6
			c-10.8-2-16.9-16.2-26.7-20.4c-5.7-2.4-8.2-4.7-13.7-2c-5.5-2.8-8-0.5-13.7,2c-9.8,4.2-15.8,18.5-26.7,20.4
			c-3.9,0.7-12.7-11.7-13.7-16.6c-1.5-7.3,2.5-21.4-8.4-28.7c-9.2-6.1-11.6-11-11.6-11c-7-17.1-6.1-26.7,3.9-29.7s29.4-7,38.6-10.1
			c4.7-1.6,8.5-3.4,10.6-5.8l1.6-37.3l18.3-0.6h2.2l14.3,0.5l4,0.1l0.7,15.7l0.6,12.9v0.5l0.4,8.2c0.4,0.5,0.9,0.9,1.5,1.3
			c2.7,2,6.8,3.2,11.6,4.2c6.5,1.3,23.9,5.8,31.2,7.2C462.5,426.2,472.8,442.4,465.8,459.5z"/>
		<path class="st1" d="M416.5,414.1c-5.4,4.2-18.8,11.4-21.3,12.6c-8.2,3.9-28.3-5-32.8-8.1c4.7-1.6,8.5-3.4,10.6-5.8l1.6-37.3h38.8
			l1.2,28.5v0.5l0.4,8.2C415.4,413.2,415.9,413.7,416.5,414.1z"/>
	</g>
</g>
<path class="st0" d="M355.9,441.2c0.2,19.8-13.4,25.3-20.4,32.4c-11.1,11.2-22.3,39.5-30.7,52.2c-3.9,6-15.6,18.7-26.4,13.6l0,0
	c-13.5-7.1-6.3-23.3-3.1-29.3c6.4-12.3,27.5-65.9,41.7-77.1c0,0,13.8-12,26.9-8C352.3,427.6,355.8,433,355.9,441.2L355.9,441.2z"/>
<path class="st0" d="M444.9,428.4c-5.5,11.8-1,35,2.1,41.6c5,10.6,10.4,18.5,12.9,28.9c1.2,4.9,6.2,16.6,15.3,17.2l0,0
	c11.6,0.3,16.3-14.3,15.7-19.1c-0.8-5.8-8.3-34.5-13.3-53.3c-3-11.2-13.1-19.1-24.6-18.8c-4.1,0.1-7.3,0.8-8.1,2.6L444.9,428.4z"/>
<path class="st0" d="M479.4,520c11.2,2.7,16.6-4.7,20-11.4c2.5-4.8,19.7-53.3,24.6-66.5c2.8-7.4,4.5-11.3-1.4-12.9
	c-5.4-1.5-11.3,5.2-13.6,7.8c-22,24.5-36.9,43.8-40.8,65.5C465.6,516.7,475.5,519.1,479.4,520z"/>
<path class="st0" d="M527.8,407c2.7-2,5.2-4.2,7.5-6.6c1.7-1.8,4.9-0.6,4.9,1.8c0,0.1,0,0.3,0,0.4c-0.3,1.6-5.8,8.5-5.8,8.5l0,0
	c26.5-10.7,47.7-16.1,50.8-16.6c0,0,0,0,0.1,0c2.9-0.4,4,3.7,1.3,4.8c-8,3.4-20.5,8.9-25,11.1c-23,11.4-28.6,17.5-35.7,27.5
	c-1.2,1.8-15.8-0.1-13.7-4c0.8-1.4-0.5-9.1,1.4-11.1C521,414.4,527.5,407.2,527.8,407z"/>
<path class="st2" d="M335.4,426.2c0,16.2-3.4,57.2-3.6,59.8c0,0.1,0,0.2,0,0.2c0,3.1,0.8,65.5-2,86.4c-1.6,11.5-18.2,44.7-18.4,46.6
	c0,0.1,0,0.1,0,0.2c-2.7,13.2,5.7,26.1,18.8,28.9c1.7,0.4,3.4,0.5,5.1,0.5h122c11.6,0,20.9-9.4,20.9-20.9c0-2-0.3-4-0.9-6
	c0-0.1-0.1-0.2-0.1-0.3c-0.4-2.5-19.5-36.3-22.1-48.2c-2.6-12.2,0.3-79.9,0.5-83.4c0-0.1,0-0.2,0-0.3l-3.8-64
	c-0.1-1.1-0.9-2.1-2-2.4l-11.4-2.9c-0.5-0.1-0.9-0.1-1.4,0c-5.1,1.5-12.9,4.2-20.2,6.7c-12.8,4.5-26.7,5-39.9,1.4l-28.9-8
	c-0.5-0.1-1-0.1-1.5,0l-9.4,3C336,424.1,335.4,425.1,335.4,426.2z"/>
<g id="GcAfxX_00000158726393485427391440000013673085389559127732_">
	<g>
		<path class="st3" d="M372.1,571.4c0.4,0.7,0.6,1.5,1,2.2c0.1,0.2,0.3,0.4,0.7,1c-0.1-0.8-0.1-1-0.2-1.2c-0.2-1.6-0.3-3.1-0.4-4.7
			c0.1,0,0.3,0,0.5,0c0.3,1.5,0.6,3,0.8,4.5c0,1-0.2,2.1-0.2,3.1c-0.1,1.2-0.1,2.5-0.1,3.7c0,0.5,0,1-0.1,1.6
			c-0.1,0.6-0.1,1.2-0.1,2.2c0.7-1.4,1.2-2.5,1.7-3.7c0.1,0.3,0.2,0.5,0.6,1.3c3.3-4.3,6.1-8.2,9.1-12.1c0.6-0.2,1.2-0.5,2-1
			c-0.5,1.6-0.8,2.7-1.1,3.8c-0.2,0.1-0.2,0.3-0.3,0.4c0,0.1,0,0.2,0,0.2c-1.1,1.2-2.3,2.3-3.5,3.4c0,0.1,0.1,0.2,0.1,0.2
			c-0.8,0.8-1.6,1.6-2.8,2.8c-0.4,0.7-0.9,1.9-1.6,3.1c-1.5,1-3,2-3.8,2.5c-1.7,4.7-3,8.6-4.5,12.7c-0.1,0,0,0.2,0.1,0.2
			c0,0,0.1,0,0.2,0c4.5-2.8,8.8-5.8,13.3-8.6c0.3-0.1,0.7-0.2,1.6-0.3c-1.1,1.5-1.9,2.6-2.7,3.7c-0.5-0.1-1-0.1-1.5-0.2
			c-0.3,0.6-0.5,1-0.5,0.9c-2.9,1.9-6.2,2.6-7.8,5.6c-8,1.8-9.2,12.6-18.9,13.8c6.8-4.3,11.7-9,15-15.2c-0.4-0.5-0.7-1.1-1.1-1.7
			c-0.1-0.2-0.3-0.4-0.4-0.5l0-0.1c-1.3-6.2-3.5-12-6.4-17.6c0.1-0.7,0.2-1.4,0.3-2.5c1,1,1.6,1.8,2.3,2.6c0.1,0.1,0.1,0.2,0.3,0.3
			c0.1,0.1,0.2,0.2,0.4,0.4c1.7,5,3.3,10,5,15c0.1,1.1,0,2.2,0.1,4.6c1.2-3.9,2.1-6.5,2.9-9.1c0.3-1.4,0.7-2.7,1.1-4.1l0-0.1
			c0.1-0.1,0.1-0.1,0.1-0.2c0.1-1.4,0.3-2.9,0.4-4.3c0.1-1.7,0-3.5,0-5.1c-1-0.6-1.9-1.1-2.7-1.7c-0.2-0.1-0.3-0.2-0.5-0.3l-0.1,0
			c-2.1-5-6.6-7.9-10.3-11.6c-0.1-0.4-0.3-0.8-0.6-1.8c2,1,3.5,1.8,5,2.5C365.7,566.3,368.9,569,372.1,571.4z"/>
		<path class="st4" d="M379.1,569.2c1.9-0.2,1.8,1.7,2,2.9c1.5-0.9,2.9-1.8,4.3-2.6c-2.9,3.9-5.8,7.7-9.1,12.1
			c-0.4-0.8-0.4-1.1-0.6-1.3c0.4-0.8,0.9-1.8,1.4-2.8c-1-0.3-1.9-0.7-2.8-1c0-1,0.2-2.1,0.2-3.1
			C375.4,571.2,376.8,569.4,379.1,569.2z"/>
		<path class="st3" d="M373,567c0-0.2-0.1-0.4-0.2-0.7c-0.2,0.1-0.3,0.3-0.5,0.3c0.1-1.1,0.3-2.2,0.4-3.3c0.1,0.3,0.2,0.7,0.2,1
			c0,0.2,0.1,0.2,0.2,0.4c0,0.2,0.1,0.3-0.7-1.9c0.9,2.2,0.8,2.1,0.8,1.9c0,0,0-0.1,0-0.2c0-0.8,0.1-1.6,0.1-2.4
			c1.4-4.5,2.8-9.1,4.3-13.6c0.4-0.6,0.8-1.1,1.5-1.9c1.7,7.6-0.8,13.8-5.2,19.3C373.6,566.4,373.3,566.8,373,567z"/>
		<path class="st4" d="M368.8,590.1c0,0.1-0.1,0.6,0,1c0.1,0.3,0,0.5,0.1,0.7c0,0.5,0.1,1.1,0.1,1.6c-1.7-5-3.3-10-5-15
			c0.9,1.1,1.7,2.3,2.6,3.4c1.5-1.4,2.8-0.5,4,0.5c0.9,0.8,1.7,1.6,2.6,2.4c-0.3,1.4-0.7,2.7-1.1,4.1
			C371,589.2,370.1,589.6,368.8,590.1z"/>
		<path class="st4" d="M370.6,568.3c0.5,1,1,2.1,1.6,3.2c-3.3-2.5-6.4-5.2-7.9-9.2c0.6,0.3,1.2,0.6,1.9,0.9c0.7-6.3,3.5-2.6,5.8-1.4
			c0.2,0,0.3,0,0.5,0c0,0.5,0.2,1.1,0.3,1.7c-0.1,1.1-0.3,2.2-0.4,3.3C371.7,567.2,371.2,567.7,370.6,568.3z"/>
		<path class="st3" d="M371.5,558.7c0.2,0.4,0.3,0.8,0.5,1.3c-0.2,0-0.2,0.1-0.4,0.2c-0.7-0.5-1.6-0.9-2.3-1.4
			c-0.2,0-0.3-0.2-0.4-0.3c-0.7-0.5-1.4-0.9-2-1.4c-1.5-4.5-5-7.3-8.3-10.4c-0.1-0.6-0.4-1.2-0.7-2.2c1.3,0.7,2.4,1.2,3.4,1.7
			c2.2,3.4,4.6,6.6,8.2,8.7c0.4,0.7,0.9,1.4,1.3,2.1C370.9,557.6,371.2,558.1,371.5,558.7z"/>
		<path class="st4" d="M360.9,577.7c3,5.5,5.1,11.4,6.4,17.6C363.3,590.1,360.2,584.5,360.9,577.7z"/>
		<path class="st3" d="M360.9,535.9L360.9,535.9c-0.1-0.3-0.1-0.4-0.2-0.7c0.1-0.6,0-1,0-1.8c0.6,0.4,0.9,0.7,1.2,1
			c2.3,4.5,4.7,9,7,13.5c0.2,1.3,0.3,2.6,0.5,4.5c-0.9-1.2-1.5-1.8-2-2.4C366,545,364,540.2,360.9,535.9z"/>
		<path class="st4" d="M360,561.4c3.6,3.7,8.1,6.6,10.3,11.6C365.5,570.4,361.6,566.9,360,561.4z"/>
		<path class="st4" d="M360.8,535.8c3.2,4.3,5.1,9.2,6.6,14.3C363.8,546.1,360.8,541.6,360.8,535.8z"/>
		<path class="st4" d="M383.7,589.1c-4.5,2.8-8.8,5.8-13.3,8.6C373.8,593.3,377.8,589.8,383.7,589.1z"/>
		<path class="st4" d="M358.5,546.7c3.3,3,6.8,5.9,8.3,10.4C362.9,554.6,359.8,551.4,358.5,546.7z"/>
		<path class="st4" d="M369.1,548c-2.3-4.5-4.7-9-7-13.5C366.4,537.9,368.4,542.6,369.1,548z"/>
		<path class="st4" d="M377.6,548.6c-1.4,4.5-2.8,9.1-4.3,13.6C373.3,557.2,374.2,552.5,377.6,548.6z"/>
		<path class="st4" d="M372.7,598.9c1.6-3,4.8-3.7,7.8-5.6c-0.1,0.1,0.2-0.3,0.5-0.9c0.5,0.1,1,0.1,1.5,0.2
			C380.1,595.9,376.7,597.8,372.7,598.9z"/>
		<path class="st4" d="M378.3,582.4c0.6-1.2,1.2-2.4,1.6-3.1c1.2-1.2,2-2,2.8-2.8c0-0.1-0.1-0.2-0.1-0.2c1.1-1.2,2.3-2.3,3.5-3.4
			C384.7,577,382,579.9,378.3,582.4z"/>
		<path class="st4" d="M369.3,554.9c-3.5-2.2-6-5.3-8.2-8.7C364.9,548.1,367.5,551.1,369.3,554.9z"/>
		<path class="st4" d="M370.3,555.2c0.1,0,0.3-0.1,0.3-0.1c0.3,1.2,0.6,2.4,0.9,3.6c-0.3-0.7-0.6-1.2-1-1.8
			C370.5,556.4,370.3,555.8,370.3,555.2z"/>
		<path class="st4" d="M373.7,568.8c-0.1,0-0.3,0-0.5,0c-0.1-0.5-0.2-1.1-0.3-1.7c0.3-0.3,0.6-0.8,0.9-1.1
			C373.8,566.9,373.7,567.9,373.7,568.8z"/>
		<path class="st4" d="M373.6,580.2c-0.1,1.4-0.3,2.9-0.4,4.3C373.4,583.1,373.5,581.6,373.6,580.2z"/>
		<path class="st3" d="M371.5,560.2c0.2,0,0.2-0.1,0.4-0.2c0.1,0.6,0.3,1.2,0.4,1.8c-0.2,0-0.3,0-0.5,0
			C371.8,561.3,371.6,560.7,371.5,560.2z"/>
		<path class="st4" d="M370.3,554.6C369.7,553.5,369.6,553.3,370.3,554.6C369.8,553.2,369.9,553.4,370.3,554.6z"/>
		<path class="st4" d="M370.4,573.1c0.2,0.1,0.3,0.2,0.5,0.3C370.7,573.3,370.5,573.3,370.4,573.1z"/>
		<path class="st4" d="M360.7,535.2c0.1,0.3,0.1,0.4,0.2,0.7C360.8,535.6,360.8,535.5,360.7,535.2z"/>
		<path class="st4" d="M367.3,595.3c0.1,0.2,0.3,0.4,0.4,0.5C367.6,595.7,367.5,595.5,367.3,595.3z"/>
		<path class="st4" d="M386.1,572.7c0.2-0.1,0.2-0.3,0.3-0.4C386.4,572.5,386.3,572.6,386.1,572.7z"/>
		<path class="st4" d="M363.7,578c-0.1-0.1-0.1-0.2-0.3-0.3C363.6,577.8,363.7,577.9,363.7,578z"/>
		<path class="st4" d="M373.2,564.6c0,0.1,0,0.1,0,0.2l-0.2,0.1c0-0.2-0.1-0.2-0.2-0.4C373,564.6,373.1,564.6,373.2,564.6z"/>
		<path class="st4" d="M368.8,558.5c0.2,0,0.3,0.2,0.4,0.3C369.1,558.7,369,558.6,368.8,558.5z"/>
		<path class="st4" d="M369.4,552.3c0,0.2,0.1,0.3,0.1,0.3l-0.1,0C369.4,552.4,369.5,552.3,369.4,552.3L369.4,552.3z"/>
		<path class="st4" d="M374.3,580.1c0,0.5,0,1-0.1,1.6C374.2,581.2,374.3,580.7,374.3,580.1z"/>
		<path class="st4" d="M373.9,574.8c-0.4-0.6-0.6-0.9-0.7-1c0.2,0,0.3-0.2,0.5-0.2C373.7,573.8,373.8,574,373.9,574.8z"/>
		<path class="st4" d="M373.1,564.9c0,0.1,0.1,0.2-0.8-1.9C373.1,565.2,373.1,565.1,373.1,564.9
			C373.1,564.9,373.2,564.8,373.1,564.9z"/>
		<path class="st3" d="M368.8,591.1c0.1,0.3,0,0.5,0.1,0.7C368.9,591.5,368.9,591.3,368.8,591.1z"/>
	</g>
</g>
<path class="st0" d="M378.2,608.6c-0.5,5.3-2,12.8-5.9,15.3c-2.1,0.8-9.3,2.4-11.4,1.2c-6.8-3.9-15.1-11-20.4-16.8l-66-71.8
	c-0.2-0.2-0.5-0.5-0.6-0.8c-5.4-7.1-4-17.2,3.1-22.6c6.7-5.1,16.1-4.1,21.7,2.1l5.3,5.8l31.1,52c5.3,8.6,11.7,16.4,19.2,23.2l0,0
	l12.9-2.5c1.7-0.4,3,0.1,3.7,1.2c0.6,0.8,0.4,1.9-0.5,2.4l-6.5,3.9c0,0,4.8,0.5,8.8,0.8C376,602.2,378.5,605.2,378.2,608.6z"/>
</svg>
