<?xml version="1.0" encoding="utf-8"?>
<!-- Generator: Adobe Illustrator 26.0.3, SVG Export Plug-In . SVG Version: 6.00 Build 0)  -->
<svg version="1.1" id="Calque_1" xmlns="http://www.w3.org/2000/svg" xmlns:xlink="http://www.w3.org/1999/xlink" x="0px" y="0px"
	 viewBox="0 0 481.9 210.5" style="enable-background:new 0 0 481.9 210.5;" xml:space="preserve">
<style type="text/css">
	.st0{fill:#E0B9A0;}
	.st1{fill:#CCAA97;}
	.st2{fill:#9CCBF2;}
	.st3{fill:#587CC6;}
	.st4{fill:#4D6FAA;}
	.st5{fill:#DCE8EF;}
</style>
<path class="st0" d="M309,80.3c0,0-4.1,5-13.4,11.1c-10.9,7.3-2.8,20.3-4.3,27.6c-1,4.9-9.9,17.3-13.7,16.6
	c-10.8-2-16.9-16.2-26.7-20.4c-5.7-2.4-8.2-4.7-13.7-2c-5.5-2.8-8-0.5-13.7,2c-9.8,4.2-15.8,18.5-26.7,20.4
	c-3.9,0.7-12.7-11.7-13.7-16.6c-1.5-7.3,2.5-21.4-8.4-28.7c-9.2-6.1-11.6-11-11.6-11c-7-17.1,1-27.3,10.9-30.3s22.4-6.5,31.6-9.6
	c4.7-1.6,8.5-3.4,10.6-5.8l1.6-37.3l18.3-0.6h2.2l14.3,0.5l4,0.1l0.7,15.7l0.6,12.9v0.5l0.4,8.2c0.4,0.5,0.9,0.9,1.5,1.3
	c2.7,2,6.8,3.2,11.6,4.2c6.5,1.3,15.9,6.5,23.1,7.8c3.1,0.6-2.8-0.9,0,0C304.3,49.9,316,63.2,309,80.3z"/>
<path class="st1" d="M259.7,34.9c-5.4,4.2-18.8,11.4-21.3,12.6c-8.2,3.9-28.3-5-32.8-8.1c4.7-1.6,8.5-3.4,10.6-5.8l1.6-37.3h38.8
	l1.2,28.5v0.5l0.4,8.2C258.6,34.1,259.1,34.6,259.7,34.9z"/>
<path class="st0" d="M286.5,63.1c3.2,12.9,10.9,21.9,17.8,25.5c10.9,5.6,29.6,21.9,38.5,28.9c4.2,3.3,18.1,15.1,31.5,3.4v-8.7
	c-1.9-4.2-2.9-6.2-6.5-9.7c-7.3-7-26.1-25.4-31.5-33.3c-4.1-5.9-6.2-12.3-19.7-17.4c-25-10.7-27.5,0.9-23.2-1.1
	C287,53.7,285.1,57.7,286.5,63.1L286.5,63.1z"/>
<path class="st0" d="M346.6,107.8c8.7-11,14.1-5.7,18.3-5.8c4.5-0.1,48.9,12.4,61,15.5c6.8,1.7,10.5,2.4,10.8,8
	c0.3,5.1-6.5,6.3-9.1,6.8c-24.8,4.7-51.7,1.6-70.8-6.8C344.1,120.1,344.2,110.8,346.6,107.8z"/>
<path class="st2" d="M452.6,112.6c2.8,1.3,6.2,2.7,8.7,3.7c2.3,0.9,3.1,3.8,1.6,5.8c-0.6,0.8-1.2,1.4-1.6,1.6
	c-0.8,0.3-3.6-0.7-5.6-1.4c-1.2-0.5-2.6-0.3-3.6,0.5l0,0c-1.6,1.2-1.9,3.5-0.7,5.1c1.5,2.2,2.7,4,5.3,6.9c2.9,3.1,10.5,7.4,14.1,8.5
	c1.9,0.6,5.9-0.5,7.7,0.8c0.3,0.2,0.6,0.6,0.9,1.1c1.5,2.3,0,5.3-2.7,5.7l-4,0.5c-0.5,0.1-1,0-1.4-0.1c-3-0.8-14.6-3.9-18.8-5.4
	c-5.2-2-15.4-7.5-19.9-11.7c-2.7-2.2-4.3-5.3-4.5-8.8c-0.2-4.1,2.3-6.1,4-7.3c2.1-1.4,14-4.7,18-5.7
	C451,112.1,451.8,112.2,452.6,112.6z"/>
<path class="st0" d="M195.3,63.2c-3.3,12.9-10.9,21.9-17.8,25.5c-10.9,5.6-29.6,21.9-38.5,28.9c-4.2,3.3-18.1,15.1-31.5,3.4
	l-2.1-8.8c1.9-4.2,4.2-2.8,7.8-6.3c7.3-7,26.9-28.7,32.4-36.5c4.1-5.9,6.2-12.3,19.7-17.4c0,0,13.3-5.7,23.2-1.1
	C194.8,53.8,196.6,57.8,195.3,63.2L195.3,63.2z"/>
<path class="st0" d="M135.1,107.9c-8.7-11-14.1-5.7-18.3-5.8c-4.5-0.1-48.9,12.5-61,15.5c-6.8,1.7-10.5,2.4-10.7,8
	c-0.3,5.1,6.5,6.3,9.1,6.8c24.8,4.7,51.7,1.6,70.8-6.8C137.6,120.1,137.5,110.9,135.1,107.9z"/>
<path class="st2" d="M30.3,112.1c-3.1,1.5-6.9,3-9.8,4.2c-2.3,0.9-3.1,3.8-1.6,5.8c0.6,0.8,1.2,1.4,1.7,1.6c0.8,0.3,3.6-0.7,5.6-1.4
	c1.2-0.5,2.6-0.3,3.6,0.5l0,0c1.6,1.2,1.9,3.5,0.7,5.1c-1.5,2.2-2.7,4-5.4,6.9c-2.9,3.1-10.5,7.4-14.1,8.5c-1.9,0.6-5.9-0.5-7.7,0.8
	c-0.3,0.2-0.6,0.6-0.9,1.1c-1.4,2.3,0,5.3,2.7,5.7l4,0.5c0.5,0.1,1,0,1.4-0.1c3-0.8,14.6-3.9,18.8-5.4c5.1-2,15.4-7.5,19.9-11.7
	c2.6-2.2,4.3-5.3,4.5-8.8c0.2-4.1-2.3-6.1-4-7.3C47.2,116.4,30.5,112.1,30.3,112.1z"/>
<g>
	<path class="st3" d="M294.9,129.9h0.5l2-1.7c2.5-2.1,3.2-5.1,1.8-7.7c-1.6-3.2-3.7-7.2-3.7-8.3c0.2-14.5,0.3-4.8,0.3-6
		c0-1.8,12.8-59.8,14.3-64.6c0.1-0.3-0.2-0.6-0.6-0.8l-43.4-8.6c-5-1.6-11,0-13.4,3.5l-7.9,11.4c-3.8,5.5-14.6,5.6-18.5,0.2
		l-9.1-12.5c-2.5-3.5-8.3-5-13.3-3.5l-46.1,9.5c0,0,0,0,0,0.1l14.9,61.3c0.3,0.7,0.5,1.5,0.5,2.3l0.4,6.7c0,0.8-0.2,1.5-0.4,2.3
		l-3.4,8.3c-0.8,1.8-0.5,3.9,0.7,5.5l0,0c0.9,1.2,1.2,2.5,1.1,3.9c-0.2,2.3-0.5,5.9-0.8,8.5l-7.7,60.2c-0.3,3.5,2.5,6.6,7.1,7.7
		l23.3,3.2c21.2,3.3,43.3,3.4,64.5,0.2c13.6-2,42.6-4.2,50.3-5.5c4.9-0.8,1.4-15.4,1.2-19.1l-10.9-46.1
		C298.3,136.4,297,132.8,294.9,129.9z"/>
	<polygon class="st4" points="303.3,156.9 305.9,196.3 269.5,202.6 261.7,197.8 259.8,155.1 303.6,148.9 	"/>
	<ellipse class="st2" cx="187.4" cy="127.9" rx="5.5" ry="5.5"/>
	<circle class="st5" cx="187.5" cy="127.9" r="4.5"/>
	<g>
		<path class="st5" d="M187.6,127.9c0.3,6.5,0.7,13.1,0.8,19.6c0.3,4.9,0.5,9.8-0.4,14.6c-0.3,1.6-0.6,3.2-1.1,4.9h-0.3
			c-1.6-6.5-1.5-13.1-0.8-19.6c0.4-6.5,0.9-13,1.6-19.5C187.3,127.9,187.6,127.9,187.6,127.9L187.6,127.9z"/>
	</g>
	<g>
		<path class="st5" d="M202.2,122.3c0.3,6.5,0.7,13.1,0.8,19.6c0.3,4.9,0.5,9.8-0.4,14.6c-0.3,1.6-0.6,3.2-1.1,4.9h-0.3
			c-1.6-6.5-1.5-13.1-0.8-19.6c0.4-6.5,0.9-13,1.6-19.5C201.8,122.3,202.2,122.3,202.2,122.3L202.2,122.3z"/>
	</g>
	<polygon class="st4" points="168.1,157.1 165.5,196.4 201.8,202.6 209.7,197.8 211.6,155.3 167.9,148.9 	"/>
	<g>
		<path class="st5" d="M201.8,126.7c-0.1-2.5-0.3-5.8-0.3-7.9c-0.9-4.3,2-6.9,6.2-5.6c1.8,0.5,2.3,1.9,1.6,3.7
			c-0.3,0.6-0.4,1.1-0.6,1.6h-0.2c-0.4-1,0.2-2.5-0.3-3.3c-0.3-0.5-1.6-0.6-2.5-0.6c-2.5-0.3-3.3,1.8-3.1,4
			c-0.2,2.6-0.4,5.3-0.6,8.1C202,126.7,201.8,126.7,201.8,126.7L201.8,126.7z"/>
	</g>
</g>
</svg>
