<?xml version="1.0" encoding="utf-8"?>
<!-- Generator: Adobe Illustrator 26.0.3, SVG Export Plug-In . SVG Version: 6.00 Build 0)  -->
<svg version="1.1" id="Calque_1" xmlns="http://www.w3.org/2000/svg" xmlns:xlink="http://www.w3.org/1999/xlink" x="0px" y="0px"
	 viewBox="0 0 788 1005" style="enable-background:new 0 0 788 1005;" xml:space="preserve">
<style type="text/css">
	.st0{fill:#C9C9C9;}
	.st1{fill:#375D63;}
	.st2{fill:#E0B9A0;}
	.st3{fill:#D3D3D3;}
	.st4{fill:#CCAA97;}
	.st5{fill:#353535;}
	.st6{fill:#B7B7B7;}
</style>
<polygon class="st0" points="424.5,425 365.7,425 364,400.2 426.5,398.9 "/>
<g id="Calque_1_00000180352489093704844010000013830218214247062939_">
	<path class="st1" d="M475.9,656c-23.1,2.4-52.1,9.9-77.2,18.1c0,0-11.4,0.5-10.8-0.1l-78.2-16.5l13.8-26.2
		c1.1-10.6,10-18.6,20.7-18.6h99.2c10.9,0,19.9,8.5,20.7,19.3L475.9,656z"/>
</g>
<polygon class="st2" points="374.6,372.8 413.9,372.8 413.9,426 392.3,467.1 374.6,426 "/>
<path class="st3" d="M524.7,534.4c-0.4-0.9-0.9-1.7-1.2-2.6l-16.9-41.2c-1.7-4.9-4.1-9.5-7-13.9l-10.8-16
	c-4.4-6.5-10.8-11.5-18.3-14.6l-50.8-20.6l-26.3,53.2l-25.6-54.1L315,446c-7.8,3.2-14.4,8.5-18.8,15.4l-7.2,11.1
	c-5.9,9.1-10.5,18.8-14.1,28.8l-13.6,33.8c-4.4,10.3-4.2,19.8,3.7,25.9c8,6.2,19.8,5.2,26.4-2.3c0.1-0.1,0.2-0.2,0.2-0.3l34.9-47.3
	l6.4,29.8c0.1,5-3.5,24.9-6.4,40.4c-2.4,13.1-5.7,25.8-10.2,38.3l-19.8,56.4c-1.2,9.3,5.5,17.9,15.2,19.9c0,0,62,13.6,80.5,14.3
	c18.9,0.7,83.8-9.5,83.8-9.5c0.1,0,0.2,0,0.2,0c10.6-1.5,17.9-10.6,16.4-20.6l-22.2-61.7c-3.9-10.9-7.3-21.9-10.2-33.1
	c-3.2-12.4-7.5-28.3-7.4-34.7c2.7-20.4,10.3-41.5,10.3-41.5l28.9,50.2c7.3,7.3,19.8,8,27.7,1.2C527.5,554,529.5,544.2,524.7,534.4z"
	/>
<path class="st4" d="M374.6,372.8h39.2l-0.2,28.8c0,0-22.8,24.3-38.9,13.2C374.9,414.7,374.6,372.8,374.6,372.8z"/>
<path class="st3" d="M364.1,400.2l-8.8,19.6l-44.6,27.8l22.4,83.7c1.4,5.2,3.7,10,6.7,14.4l3.4,4.9l100.1,1.5l5.2-7.5
	c2.8-4.1,4.9-8.6,6.2-13.4l23.4-81.9l-47.3-29.5l-4.4-20.9l-33.8,64L364.1,400.2z"/>
<path class="st5" d="M453.5,569.1H333.3c-2.5,0-4.7-1.6-4.7-3.7v-11.1c0-2,2.1-3.7,4.7-3.7h120.1c2.5,0,4.7,1.6,4.7,3.7v11.1
	C458.1,567.5,456,569.1,453.5,569.1z"/>
<path class="st5" d="M402.9,570.1h-11.7c-3.8,0-6.9-3.1-6.9-6.9V555c0-3.8,3.1-6.9,6.9-6.9h11.7c3.8,0,6.9,3.1,6.9,6.9v8.2
	C409.8,567,406.8,570.1,402.9,570.1z"/>
<path class="st5" d="M393.5,559.9l-29.1,32.3c-1.5,1.6-1.4,4.1,0.2,5.6l5.1,4.9c1.7,1.7,4.4,1.4,6-0.5l25.2-33.6l-10.6-1.3
	l15.2,28.9c1.1,2.1,3.9,2.8,5.9,1.4l5.6-3.9c1.7-1.2,2.2-3.4,1.2-5.2l-18.9-32.5L393.5,559.9z"/>
<g>
	<path class="st6" d="M426.5,398.9c-24.7,50.6-52.8,101.6-79.9,151c24.7-50.6,52.6-101.5,79.7-150.9L426.5,398.9z"/>
</g>
<g>
	<path class="st6" d="M310.9,448.1c7.7,24.5,13.3,50.4,18.4,75.4C321.6,499.2,316,473.2,310.9,448.1L310.9,448.1z"/>
</g>
<g>
	<path class="st6" d="M477.9,450.2c-5.1,24.5-11.8,49.8-19.5,73.6C463.4,499.4,470,474,477.9,450.2L477.9,450.2z"/>
</g>
<path class="st2" d="M381.8,523.1l-15,0.5l-86.7,6c-1,0.1-2.1,0.3-3,0.6l0,0c-8.2,2.2-13.5,9.8-12.6,17.8c0.8,8,7.5,14.3,15.7,14.9
	l1.7,0.2c0,0,11.8-1.2,14.5-1.3c2.6-0.1,65.8-15,72.3-16.5c0.3-0.1,12.2-3.6,19.6-5.1L381.8,523.1z"/>
<path class="st2" d="M405.9,522.9l14.8,0.4l87,5.4l1.4,0.5c8,2.1,13.3,9.5,12.5,17.4c-0.7,7.8-7.2,14.1-15.4,14.8l-1.7,0.2
	c0,0-11.6-1.1-14.3-1.2c-2.6-0.1-65-14.3-71.3-15.7c-0.3-0.1-12-3.4-19.4-4.9L405.9,522.9z"/>
<path class="st2" d="M404.7,507.4c4.3-0.8,14.6,7.7,15.2,8.5c2.4,2.4,8.2,8.7,9.6,12.9c0.3,1-1,16.2-1.9,16.2s-24,0.6-25.4,0
	c-4.9-1.9-7.2-3.9-7.5-4.4c-3.9-3.9-0.1-10.4,0-16.6c0-3.2,1.1-6.4,3.1-8.7C400.5,511.7,401.5,509.2,404.7,507.4z"/>
<path class="st2" d="M397.4,515.3c2,2.5,3.1,5.6,3.1,8.7c0.1,6.2,3.9,12.6,0,16.6c-0.4,0.4-2.8,2.5-7.5,4.4c-1.5,0.6-24.6,0-25.4,0
	s-2.2-15.2-1.9-16.2c1.4-4.2,7.2-10.5,9.6-12.9c0.7-0.6,10.9-9.3,15.2-8.5C393.7,509.2,394.7,511.7,397.4,515.3z"/>
</svg>
