<?xml version="1.0" encoding="utf-8"?>
<!-- Generator: Adobe Illustrator 26.0.3, SVG Export Plug-In . SVG Version: 6.00 Build 0)  -->
<svg version="1.1" id="Calque_1" xmlns="http://www.w3.org/2000/svg" xmlns:xlink="http://www.w3.org/1999/xlink" x="0px" y="0px"
	 viewBox="0 0 788 1005" style="enable-background:new 0 0 788 1005;" xml:space="preserve">
<style type="text/css">
	.st0{fill:#CCAA97;}
	.st1{fill:#D3D3D3;}
	.st2{fill:#E0B9A0;}
	.st3{fill:#D68F72;}
	.st4{fill:#D34B1C;}
</style>
<g id="Calque_1_00000169533837987157082180000002261082969909457810_">
	<g id="Calque_12">
		<path class="st0" d="M465.8,459.5c0,0-0.1,3.9-9.3,10c-10.9,7.3-6.9,21.4-8.4,28.7c-1,4.9-9.9,17.3-13.7,16.6
			c-10.8-2-16.9-16.2-26.7-20.4c-5.7-2.4-8.2-4.7-13.7-2c-5.5-2.8-8-0.5-13.7,2c-9.8,4.2-15.8,18.5-26.7,20.4
			c-3.9,0.7-12.7-11.7-13.7-16.6c-1.5-7.3,2.5-21.4-8.4-28.7c-9.2-6.1-11.6-11-11.6-11c-7-17.1-6.1-26.7,3.9-29.7s29.4-7,38.6-10.1
			c4.7-1.6,8.5-3.4,10.6-5.8l1.6-37.3l18.3-0.6h2.2l14.3,0.5l4,0.1l0.7,15.7l0.6,12.9v0.5l0.4,8.2c0.4,0.5,0.9,0.9,1.5,1.3
			c2.7,2,6.8,3.2,11.6,4.2c6.5,1.3,30.5,8,37.8,9.4c3.1,0.6-2.8-0.9,0,0C475.8,430.6,472.8,442.4,465.8,459.5z"/>
		<path class="st0" d="M416.5,414.1c-5.4,4.2-18.8,11.4-21.3,12.6c-8.2,3.9-28.3-5-32.8-8.1c4.7-1.6,8.5-3.4,10.6-5.8l1.6-37.3h38.8
			l1.2,28.5v0.5l0.4,8.2C415.4,413.2,415.9,413.7,416.5,414.1z"/>
	</g>
</g>
<path class="st1" d="M445.2,413.1l-27.1-9.8l-2-18.3l-12.2-0.1c-4,0-7.5,2.7-8.5,6.6l-1.5,12.4l-1.5-12.4c-1-4-4.6-6.8-8.7-6.8
	l-12-0.1l-2.5,17.7L324.7,421l66.8,39.5L445.2,413.1z"/>
<path class="st2" d="M562.2,475.6c0.3-2.5,8.7-17.2,9.7-19.2s18.4-11.2,19.2-10.2s-1.1,6.2-1.1,6.2l-4.3,3.2l19.6-5l8.4-2.2
	c0.7-0.2,1.5,0.2,1.7,1c0,0.1,0.1,0.3,0,0.4l-0.1,1.5c-0.1,1.9-1.3,3.6-3.2,4.3l-15.6,5.8l-1.6,14.9c0,0-17.9,9-21.3,8.5
	c-1-0.1-5.7,1.7-7.2-1.3C565.5,481.7,562.2,475.6,562.2,475.6z"/>
<path class="st2" d="M347.3,447.6c2.6,15.8-32.2,64.2-38.6,75.6c-3,5.4-12.7,17.4-23.6,15c-13.8-3.6-8.7-17.7-6.5-23
	c4.6-10.9,26.5-67.3,40.1-77.4c6.9-5.1,12-3.8,24.9-2.5C351.9,436.1,346.2,441.1,347.3,447.6L347.3,447.6z"/>
<path class="st2" d="M429,439.4c2.9,19.6,17.2,23.3,25.3,29.3c12.7,9.6,28.2,36.1,38.5,47.5c4.8,5.4,18.4,16.4,28.2,9.9l0,0
	c12.3-8.9,2.6-23.9-1.5-29.4c-8.2-11.3-41.8-55.4-57.7-64.5c0,0-10.1-0.8-22.4,4.9C431.5,440.9,427.8,431.3,429,439.4L429,439.4z"/>
<path class="st2" d="M505.7,522.3c6.3,9.5,17.3,5.4,26.2,0.7c6.3-3.4,26.7-29.1,42.6-39.4c9-5.8,9.5-8.6,6.2-13.9
	c-2.9-4.8-14,2-17.9,4c-39.7,19.7-49.9,24.1-49.9,24.1C496,508.5,503.5,519.1,505.7,522.3z"/>
<path class="st1" d="M309.8,427.9c-0.4,5.8,18.7,59.9,18.7,59.9l-1.8,82l1.7,24.9h127.5l2.5-25.2l4.9-83.2l11.1-58l-55.6-18.8
	c0,0-23.5,18-26,18s-25.5-18-25.5-18L309.8,427.9z"/>
<path class="st2" d="M277.6,521.3c2.5-11,14.1-9.9,24.1-7.6c7.1,1.6,40.5,15.6,58.9,21.4c10.4,3.3,16,4.8,14.9,10.8
	c-1,5.4-50.8,3-82.5-2.6C273.1,539.8,276.8,525,277.6,521.3z"/>
<path class="st3" d="M352,507.8c4.2-2.2,12.1-11.1,13.2-12.6s14.9-8.5,15.4-7.6s0.7,4,0.7,4l-7.8,6.5l19.5-3.3
	c0,0,12.4-2.4,16.4-1.7c1.1,0.2-0.7,4.1-0.7,4.1l-18.4,6.8l-5.5,11.8c-1.7,3.7-5.4,6.1-9.5,6.1c-4.6,0-10.1,0-11.6-0.4
	c-0.8-0.2-6.6-1.5-7.3-4.1C356.1,515.7,352,507.8,352,507.8z"/>
<path class="st1" d="M455.3,591.1c3.8-16.3,8.2-69.4,9.6-111.7c1-30.4,13.2-51.5,9.7-53.6c-15.2-8.9-35.3-15.9-50.7-17.8
	c-11.1-1.3-18.7,28-28.8,28.9c-6.3,0.6-24-29.1-29.6-28c-14.4,2.7-42.3,11.4-55.6,17.5c-1.2,6.4,12.1,20.1,12.3,42.2
	c0.3,44,3.2,104.4,7.6,123"/>
<g id="Calque_10">
	<path class="st1" d="M326.9,591.6v-25.7l132.2-6.4v32c0,2.8-2.6,5.1-5.8,5.1l0,0H332.8C329.6,596.7,326.9,594.4,326.9,591.6z"/>
</g>
<g>
	<path class="st4" d="M401.6,405.6c-10.4,5.3-22.6,11.3-33.1,16.3c-6.6,2.6-11.1,7.2-11.2,14.6l0.1,5.3c0.1,7,0.1,14.1,0.1,21.1
		c-1,42.2,0.4,84.4,1.3,126.5c-0.6,8.7-2.4-14-2.6-84.3c-0.4-20.3-1.4-43-1.4-63.2v-5.3c-0.1-5.7,3.1-11.3,8-14.3
		c2.7-1.6,6.9-3.1,9.7-4.5c4.8-2.1,14.5-6.3,19.4-8.4c3.2-1.4,6.5-2.8,9.7-4.1C401.5,405.4,401.6,405.6,401.6,405.6L401.6,405.6z"/>
</g>
<circle class="st4" cx="370.3" cy="449.2" r="3.4"/>
<circle class="st4" cx="371.7" cy="516.8" r="3.4"/>
<circle class="st4" cx="372.5" cy="584.1" r="3.4"/>
<path class="st4" d="M369.8,389.4c0,0-3.9,2-5.6,6.5c-0.3,0.3-7,2.3-4.8,6.5s3.4,3.7,3.4,3.7s22,0.3,29.9,8.7c0.2,0,23.3-8.1,30.9-7
	c0.2,0.1,2.3-4.6,0-5.7s0.6-4.2-0.9-6.7c-1.4-2.5-2.4-5.1-4.8-3.9c-2.4,1.1-25.3,9.3-25.3,16.3C392.8,407.8,386.5,397,369.8,389.4z"
	/>
<path class="st4" d="M387.4,404.4c0,0,6.7-4.2,11.2,0c0.8,5.9,2.2,9.8,0,10.4s-6.5,2.8-8.2,1.7C388.9,415.4,381.3,412.2,387.4,404.4
	z"/>
<path class="st4" d="M387.2,411.2l-8.8,11.3c-0.3,0.4-0.4,0.8-0.3,1.3l4.5,18.5c0.3,1.4,2.2,1.6,2.8,0.3l6.8-14.7
	c0.1-0.3,0.2-0.6,0.1-0.9l-2.4-15.1C389.7,410.6,388,410.2,387.2,411.2z"/>
<path class="st4" d="M398.6,407.5l14.3,7.8c0.5,0.3,0.9,0.8,0.9,1.4l1.8,23.4c0.1,1.6-1.8,2.6-3,1.4l-10.8-10.1
	c-0.3-0.2-0.4-0.5-0.5-0.9l-5.2-21.2C395.7,408,397.3,406.7,398.6,407.5z"/>
</svg>
