<?xml version="1.0" encoding="utf-8"?>
<!-- Generator: Adobe Illustrator 26.0.3, SVG Export Plug-In . SVG Version: 6.00 Build 0)  -->
<svg version="1.1" id="Calque_1" xmlns="http://www.w3.org/2000/svg" xmlns:xlink="http://www.w3.org/1999/xlink" x="0px" y="0px"
	 viewBox="0 0 381.1 238.8" style="enable-background:new 0 0 381.1 238.8;" xml:space="preserve">
<style type="text/css">
	.st0{fill:#E0B9A0;}
	.st1{fill:none;stroke:#383434;stroke-width:5;stroke-linecap:round;stroke-miterlimit:10;}
	.st2{fill:#383434;}
	.st3{fill:#CCAA97;}
	.st4{fill:#DBD1C1;}
	.st5{fill:#ED5875;}
</style>
<path class="st0" d="M41.5,80.5c0.6-0.2-4-1.7-3.8-2.3c0.9-2.2,7.4-8.2,7.9-9.9c0.6-2,1.9-11.2,2.6-12.7c0.7-1.6,7.2-9.2,6.2-9.8
	c-0.6-0.4-2.1-1.1-3.4-1.7c-1.2-0.6-2.6-0.4-3.5,0.6l-4.2,3.9c-0.3,0.3-0.6,0.8-0.8,1.1l-1.4,3.7c-0.6,1.7-3,1.5-3.4-0.2l0.2-2.8
	c-0.1-0.2-2.8-5.6-2.8-5.7c-1.3-2.4-6.7-0.7-6.7-0.7c-0.1-0.1-4.5,1.4-6.1,2c-0.4,0.2-0.8,0.3-1.2,0.5l-3.5,1.6
	c-3,1.3-5.4,3.5-7,6.4c-0.6,1.3-1.1,2.5-0.6,3.3c0.2,0.2,0.2,0.5,0.2,0.7l6.9,20.9c0.2,0.7,0.7,1.3,1.2,1.7l3.1,2.1
	c0.8,0.5,5.9,5.2,6.8,5L41.5,80.5z"/>
<g>
	<line class="st1" x1="23.9" y1="58.2" x2="360.3" y2="58.2"/>
	<path class="st2" d="M358.5,89.5l10.9-5c1.8-0.9,2.9-2.8,2.8-4.7c-0.6-6.8-2.1-21.5-4.2-22.7c-1.9-1.1-7.8-0.9-10.8-0.7
		c-1.2,0.1-0.7,1.8-0.7,1.8s6.8-0.9,6.2,1.5l-9.2,25.1C352.2,87.9,355.4,90.9,358.5,89.5z"/>
</g>
<path class="st0" d="M34.6,59.4l-10.7,4.4c-3.3,1.3-7.2-0.2-8.6-3.6l0,0C14,56.9,15.6,53,19,51.6l10.7-4.4c3.3-1.3,7.2,0.2,8.6,3.6
	l0,0C39.6,54.2,37.9,58,34.6,59.4z"/>
<path class="st0" d="M236.2,93.1c0,0-0.1,3.9-9.3,10c-10.9,7.3-6.9,21.4-8.4,28.7c-1,4.9-9.9,17.3-13.7,16.6
	c-10.8-2-16.9-16.2-26.7-20.4c-5.7-2.4-8.2-4.7-13.7-2c-5.5-2.8-8-0.5-13.7,2c-9.8,4.2-15.8,18.5-26.7,20.4
	c-3.9,0.7-12.7-11.7-13.7-16.6c-1.5-7.3,2.5-21.4-8.4-28.7c-9.2-6.1-11.6-11-11.6-11c-7-17.1-6.1-26.7,3.9-29.7s29.4-7,38.6-10.1
	c4.7-1.6,8.5-3.4,10.6-5.8L145,9.2l18.3-0.6h2.2l14.3,0.5l4,0.1l0.7,15.7l0.6,12.9v0.5l0.4,8.2c0.4,0.5,0.9,0.9,1.5,1.3
	c2.7,2,6.8,3.2,11.6,4.2c6.5,1.3,30.5,8,37.8,9.4c3.1,0.6-2.8-0.9,0,0C246.2,64.2,243.2,76,236.2,93.1z"/>
<path class="st3" d="M186.9,47.7c-5.4,4.2-18.8,11.4-21.3,12.6c-8.2,3.9-28.3-5-32.8-8.1c4.7-1.6,8.5-3.4,10.6-5.8L145,9.1h38.8
	l1.2,28.5v0.5l0.4,8.2C185.8,46.8,186.3,47.3,186.9,47.7z"/>
<path class="st4" d="M115,67.3c9,13.5-0.9,21.2-4.1,28c-5.1,10.9-2.7,33.4-4.6,44.5c-0.9,5.2-5.9,17.3-18,16.9l0,0
	c-15.5-1-16.1-14.1-15.9-19.1c0.3-10.3-4.4-53,3.6-64.7c0,0,7.2-12.2,21-13.2C105.9,59.1,111.4,61.8,115,67.3L115,67.3z"/>
<path class="st0" d="M96.3,151.3c-10.2,6-17.6,0.6-22.9-4.9c-3.8-3.9-34.9-44.7-43.5-55.7c-4.9-6.2-7.7-9.4-2.3-12.7
	c4.8-3.1,12.6,1.6,15.7,3.3c28.6,16.6,48.9,30.5,59.1,49.8C108.8,144,99.7,149.3,96.3,151.3z"/>
<path class="st4" d="M216.2,67c-9,13.5,0.9,21.2,4.1,28c5.1,10.9,2.7,33.4,4.6,44.5c0.9,5.2,5.9,17.3,18,16.9l0,0
	c15.5-1,16.1-14.1,15.9-19.1c-0.3-10.3,4.4-53-3.6-64.7c0,0-7.2-12.2-21-13.2C225.4,58.7,219.9,61.5,216.2,67L216.2,67z"/>
<path class="st0" d="M239,147.6c11.5,2.7,17-4.6,20.5-11.4c2.5-4.8,20.2-53,25.2-66c2.8-7.4,4.6-11.2-1.5-12.8
	c-5.5-1.5-11.6,5.2-14,7.8c-22.5,24.3-37.8,43.5-41.8,65C224.9,144.3,235.1,146.7,239,147.6z"/>
<path class="st0" d="M288.7,35.3c2.9-2.2,5.7-4.6,8.2-7.2c1.3-1.3,3.6-0.8,4.2,0.9c0.2,0.7,0.3,1.3,0.2,1.9
	c-0.3,1.6-5.9,8.4-5.9,8.4l0,0c27.2-10.6,48.9-16,52.1-16.5c0,0,0,0,0.1,0c2.8-0.4,3.9,3.6,1.3,4.8c-8.2,3.5-20.9,8.9-25.4,11
	c-23.7,11.3-29.3,17.3-36.6,27.3c-1.3,1.8-16.2-0.1-14-4c0.8-1.3-0.5-9,1.4-11.1C281.7,42.7,288.4,35.5,288.7,35.3z"/>
<path class="st4" d="M221.9,173c9.9-43.4,13.9-110.9,5.9-113.3c-3.4-1-27.2,14-62.7,15C126,75.8,101.3,51,98.2,64.4
	c-3.1,13.2,2.3,60.4,8.3,97.5l-11.8,56.8c-0.4,2.1-0.1,4.2,0.9,6.1l0,0c1.6,2.9,4.6,4.6,7.8,4.6h118.7c4.1,0,7.6-2.8,8.6-6.7
	l1.2-4.8c0.4-1.4,0.4-2.9,0-4.4L221.9,173z"/>
<polygon class="st5" points="223.9,159.6 103.9,175.8 107.1,162.1 103.2,126 228.6,125.2 "/>
</svg>
