<?xml version="1.0" encoding="utf-8"?>
<!-- Generator: Adobe Illustrator 26.0.3, SVG Export Plug-In . SVG Version: 6.00 Build 0)  -->
<svg version="1.1" id="Calque_1" xmlns="http://www.w3.org/2000/svg" xmlns:xlink="http://www.w3.org/1999/xlink" x="0px" y="0px"
	 viewBox="0 0 788 1005" style="enable-background:new 0 0 788 1005;" xml:space="preserve">
<style type="text/css">
	.st0{fill:#E0B9A0;}
	.st1{fill:none;stroke:#383434;stroke-width:5;stroke-linecap:round;stroke-miterlimit:10;}
	.st2{fill:#383434;}
	.st3{fill:#CCAA97;}
	.st4{fill:#DBD1C1;}
	.st5{fill:#ED5875;}
</style>
<path class="st0" d="M271.1,446.9c0.6-0.2-4-1.7-3.8-2.3c0.9-2.2,7.4-8.2,7.9-9.9c0.6-2,1.9-11.2,2.6-12.7c0.7-1.6,7.2-9.2,6.2-9.8
	c-0.6-0.4-2.1-1.1-3.4-1.7c-1.2-0.6-2.6-0.4-3.5,0.6l-4.2,3.9c-0.3,0.3-0.6,0.8-0.8,1.1l-1.4,3.7c-0.6,1.7-3,1.5-3.4-0.2l0.2-2.8
	c-0.1-0.2-2.8-5.6-2.8-5.7c-1.3-2.4-6.7-0.7-6.7-0.7c-0.1-0.1-4.5,1.4-6.1,2c-0.4,0.2-0.8,0.3-1.2,0.5l-3.5,1.6
	c-3,1.3-5.4,3.5-7,6.4c-0.6,1.3-1.1,2.5-0.6,3.3c0.2,0.2,0.2,0.5,0.2,0.7l6.9,20.9c0.2,0.7,0.7,1.3,1.2,1.7l3.1,2.1
	c0.8,0.5,5.9,5.2,6.8,5L271.1,446.9z"/>
<g>
	<line class="st1" x1="253.6" y1="424.6" x2="590" y2="424.6"/>
	<path class="st2" d="M588.1,455.9l10.9-5c1.8-0.9,2.9-2.8,2.8-4.7c-0.6-6.8-2.1-21.5-4.2-22.7c-1.9-1.1-7.8-0.9-10.8-0.7
		c-1.2,0.1-0.7,1.8-0.7,1.8s6.8-0.9,6.2,1.5l-9.2,25.1C581.8,454.3,585,457.3,588.1,455.9z"/>
</g>
<path class="st0" d="M264.3,425.8l-10.7,4.4c-3.3,1.3-7.2-0.2-8.6-3.6l0,0c-1.3-3.3,0.2-7.2,3.6-8.6l10.7-4.4
	c3.3-1.3,7.2,0.2,8.6,3.6l0,0C269.2,420.6,267.6,424.4,264.3,425.8z"/>
<path class="st0" d="M465.8,459.5c0,0-0.1,3.9-9.3,10c-10.9,7.3-6.9,21.4-8.4,28.7c-1,4.9-9.9,17.3-13.7,16.6
	c-10.8-2-16.9-16.2-26.7-20.4c-5.7-2.4-8.2-4.7-13.7-2c-5.5-2.8-8-0.5-13.7,2c-9.8,4.2-15.8,18.5-26.7,20.4
	c-3.9,0.7-12.7-11.7-13.7-16.6c-1.5-7.3,2.5-21.4-8.4-28.7c-9.2-6.1-11.6-11-11.6-11c-7-17.1-6.1-26.7,3.9-29.7s29.4-7,38.6-10.1
	c4.7-1.6,8.5-3.4,10.6-5.8l1.6-37.3l18.3-0.6h2.2l14.3,0.5l4,0.1l0.7,15.7l0.6,12.9v0.5l0.4,8.2c0.4,0.5,0.9,0.9,1.5,1.3
	c2.7,2,6.8,3.2,11.6,4.2c6.5,1.3,30.5,8,37.8,9.4c3.1,0.6-2.8-0.9,0,0C475.8,430.6,472.8,442.4,465.8,459.5z"/>
<path class="st3" d="M416.5,414.1c-5.4,4.2-18.8,11.4-21.3,12.6c-8.2,3.9-28.3-5-32.8-8.1c4.7-1.6,8.5-3.4,10.6-5.8l1.6-37.3h38.8
	l1.2,28.5v0.5l0.4,8.2C415.4,413.2,415.9,413.7,416.5,414.1z"/>
<path class="st4" d="M344.6,433.7c9,13.5-0.9,21.2-4.1,28c-5.1,10.9-2.7,33.4-4.6,44.5c-0.9,5.2-5.9,17.3-18,16.9l0,0
	c-15.5-1-16.1-14.1-15.9-19.1c0.3-10.3-4.4-53,3.6-64.7c0,0,7.2-12.2,21-13.2C335.5,425.5,341,428.2,344.6,433.7L344.6,433.7z"/>
<path class="st0" d="M325.9,517.7c-10.2,6-17.6,0.6-22.9-4.9c-3.8-3.9-34.9-44.7-43.5-55.7c-4.9-6.2-7.7-9.4-2.3-12.7
	c4.8-3.1,12.6,1.6,15.7,3.3c28.6,16.6,48.9,30.5,59.1,49.8C338.4,510.4,329.3,515.7,325.9,517.7z"/>
<path class="st4" d="M445.8,433.4c-9,13.5,0.9,21.2,4.1,28c5.1,10.9,2.7,33.4,4.6,44.5c0.9,5.2,5.9,17.3,18,16.9l0,0
	c15.5-1,16.1-14.1,15.9-19.1c-0.3-10.3,4.4-53-3.6-64.7c0,0-7.2-12.2-21-13.2C455,425.1,449.5,427.9,445.8,433.4L445.8,433.4z"/>
<path class="st0" d="M468.6,514c11.5,2.7,17-4.6,20.5-11.4c2.5-4.8,20.2-53,25.2-66c2.8-7.4,4.6-11.2-1.5-12.8
	c-5.5-1.5-11.6,5.2-14,7.8c-22.5,24.3-37.8,43.5-41.8,65C454.5,510.7,464.7,513.1,468.6,514z"/>
<path class="st0" d="M518.3,401.7c2.9-2.2,5.7-4.6,8.2-7.2c1.3-1.3,3.6-0.8,4.2,0.9c0.2,0.7,0.3,1.3,0.2,1.9
	c-0.3,1.6-5.9,8.4-5.9,8.4l0,0c27.2-10.6,48.9-16,52.1-16.5c0,0,0,0,0.1,0c2.8-0.4,3.9,3.6,1.3,4.8c-8.2,3.5-20.9,8.9-25.4,11
	c-23.7,11.3-29.3,17.3-36.6,27.3c-1.3,1.8-16.2-0.1-14-4c0.8-1.3-0.5-9,1.4-11.1C511.3,409.1,518,401.9,518.3,401.7z"/>
<path class="st4" d="M451.5,539.4c9.9-43.4,13.9-110.9,5.9-113.3c-3.4-1-27.2,14-62.7,15c-39.1,1.1-63.8-23.7-66.9-10.3
	c-3.1,13.2,2.3,60.4,8.3,97.5l-11.8,56.8c-0.4,2.1-0.1,4.2,0.9,6.1l0,0c1.6,2.9,4.6,4.6,7.8,4.6h118.7c4.1,0,7.6-2.8,8.6-6.7
	l1.2-4.8c0.4-1.4,0.4-2.9,0-4.4L451.5,539.4z"/>
<polygon class="st5" points="453.5,526 333.5,542.2 336.7,528.5 332.8,492.4 458.2,491.6 "/>
</svg>
