<?xml version="1.0" encoding="utf-8"?>
<!-- Generator: Adobe Illustrator 26.0.3, SVG Export Plug-In . SVG Version: 6.00 Build 0)  -->
<svg version="1.1" id="Calque_1" xmlns="http://www.w3.org/2000/svg" xmlns:xlink="http://www.w3.org/1999/xlink" x="0px" y="0px"
	 viewBox="0 0 788 1005" style="enable-background:new 0 0 788 1005;" xml:space="preserve">
<style type="text/css">
	.st0{fill:#E0B9A0;}
	.st1{fill:#CCAA97;}
	.st2{fill:#C3DFED;}
	.st3{fill:#91B7C6;}
</style>
<g id="Calque_1_00000156560146857180055860000005908162381418793391_">
	<g id="Calque_12">
		<path class="st0" d="M443.7,452.2c0,0,7.2,4.8-2,10.9c-10.9,7.3,6.3,27.8,4.8,35c-1,4.9-8.2,17.3-12,16.6
			c-10.8-2-16.9-16.2-26.7-20.4c-5.7-2.4-8.2-4.7-13.7-2c-5.5-2.8-8-0.5-13.7,2c-9.8,4.2-15.8,18.5-26.7,20.4
			c-3.9,0.7-12.7-11.7-13.7-16.6c-1.5-7.3,16.5-20.6,5.6-27.9c-9.2-6.1,8.6-11.8,8.6-11.8c-7-17.1-23.3-29.2-13.4-32.2
			s12.4-4.6,21.6-7.7c4.7-1.6,8.5-3.4,10.6-5.8l1.6-37.3l18.3-0.6h2.2l14.3,0.5l4,0.1l0.7,15.7l0.6,12.9v0.5l0.4,8.2
			c0.4,0.5,0.9,0.9,1.5,1.3c2.7,2,6.8,3.2,11.6,4.2c6.5,1.3,23.4,14.2,30.7,15.5c3.1,0.6-17.9,7.2-15.1,8.1
			C453.6,444.9,450.6,435.1,443.7,452.2z"/>
		<path class="st1" d="M416.5,414.1c-5.4,4.2-18.8,11.4-21.3,12.6c-8.2,3.9-28.3-5-32.8-8.1c4.7-1.6,8.5-3.4,10.6-5.8l1.6-37.3h38.8
			l1.2,28.5v0.5l0.4,8.2C415.4,413.2,415.9,413.7,416.5,414.1z"/>
	</g>
</g>
<path class="st0" d="M361.2,440.4c-3.8,15.9-15.8,18.2-22.8,22.8c-11.1,7.2-25.8,28.1-35,37c-4.3,4.2-16.3,12.5-23.8,6.8l0,0
	c-9.4-7.8-2.6-17.6,1.1-22c7.6-8.9,24.9-25.4,30.7-35.2c4.3-7.3,6.7-15.2,20.4-21.9c0,0,13.5-7.5,23.1-2.2
	C361.1,429.1,362.8,433.9,361.2,440.4L361.2,440.4z"/>
<path class="st0" d="M429.4,440.4c3.8,15.9,15.8,18.2,22.8,22.8c11.1,7.2,25.8,28.1,35,37c4.3,4.2,16.3,12.5,23.8,6.8l0,0
	c9.4-7.8,2.6-17.6-1.1-22c-7.6-8.9-25-25.4-30.7-35.2c-4.3-7.3-6.7-15.2-20.4-21.9c0,0-13.5-7.5-23.1-2.2
	C429.5,429.1,427.8,433.9,429.4,440.4L429.4,440.4z"/>
<path class="st0" d="M495.8,496.5c3-10.8,13-9.1,18.5-8.6c5.9,0.5,61.3,15.9,76.4,19.8c8.5,2.2,13.2,3.2,12.1,7.5
	c-1,4-10.2,4.4-13.8,4c-38.8-3.8-48.1-4.9-82.7-9.7C489.9,507.3,495,499.2,495.8,496.5z"/>
<path class="st0" d="M296.5,496.4c-3-10.8-13.1-9.6-18.5-8.6c-82.8,14.1-96,33.2-74.8,31.4c8.8-0.7-14.9-8.4-13.8-4
	c1,4,10.2,4.4,13.8,4c38.9-3.8,48.1-4.9,82.7-9.7C302.4,507.2,297.2,499.2,296.5,496.4z"/>
<path class="st2" d="M338.3,421.1l12.2-4.3c2.6-0.9,3.8-1.3,6.3-0.1c3.3,1.7,7.8,14.6,13.2,17.2c4.1,4,7.9,9,12.1,11
	c2.9,1.3,42.3-30.1,42.3-30.1c2.2-1.2,4.8-1.5,7.2-0.9l17.3,4.4c5,1.3,8.3,6.2,7.5,11.3l-9.2,62.4c-0.2,1.2-0.1,2.5,0.1,3.7l15,67.2
	c0.1,0.3,0.2,0.7,0.3,1c4.8,14.3-138.1,13.8-134-1.9c0.1-0.3,0.2-0.7,0.2-1.1l9.7-65.9c0.1-0.9,0.1-1.8,0-2.6l-6.9-61
	C331.1,427.1,333.9,422.7,338.3,421.1z"/>
<path class="st2" d="M447.2,502.5c-0.2,2,3.1,5.4,3.5,7.4l29.1,114.4c1.4,8.4-14.6,16.1-23.6,17.3c-0.1,0-0.2,0-0.2,0
	s-47.8,8.5-63.9,8c-15.6-0.6-67.6-12.1-67.6-12.1c-8.3-1.7-17.1-8.9-16.2-16.7l27.9-110.6c0.4-1.9,8.3-5.1,8.1-7
	C344.2,503.2,447.9,491.3,447.2,502.5z"/>
<g>
	<path class="st3" d="M356.8,416.7c1.1,0.9,35.4,33.2,44.2,50.8c8.7,18.2,19.4,35.8,23.5,55.7c0.6,2.1,1,5.3,1.2,7.5
		c3.7,32.2,7.3,65.2,10.3,97.5c0.4,3.7,1,11.4,1.3,15.1c-0.6-3.8-1.6-11.1-2.1-14.9c-4.6-32.2-8.6-65-12.5-97.2
		c-0.2-2.2-0.6-5.2-1.2-7.4c-4-19.7-14.5-37.2-22.6-55.3c-8.3-17.9-33.6-34.6-42.1-50.2V416.7z"/>
</g>
<path class="st0" d="M204.1,499.9l-9.2-1.8c-0.2,0-0.4-0.1-0.5-0.2l-14-0.7c-1.7-0.6-3.5,0.2-3.9,1.9c-0.1,0.3-0.2,0.7-0.1,0.9
	c0.2,1.4,1.2,2.3,2.6,2.5l9.5,1.1c1.8,1.1,1.9,3.8,0.1,5l-3.2,2.3c-0.5,0.3-1.1,0.5-1.7,0.5c0,0-4.7,0.5-7-3.7l0.6-3.8
	c0.8-1.6,0.2-3.5-1.3-4.4c-0.6-0.4-1.2-0.6-1.7-0.4c-1.4,0.7-5,7.9-4.1,9.2c0,0,1.1,2.3,2.6,4.5c0.2,0.3,0.5,0.8,0.7,1.2
	c0.4,0.8,1.3,3.8,2.3,3.9l9.3,2.6l0,0c1,0.2,2,0.2,2.9,0l26.3-2.9l1.3-0.2c2.1-0.3,1.3-4.1,0.2-7.1c-0.8-2-2-3.9-3.6-5.3l-3.2-2.8
	C207.7,501.1,206,500.3,204.1,499.9z"/>
<path class="st0" d="M185,520.8l-24.6,3.9c-1.7,0.3-3.2-0.9-3.5-2.6l0,0c-0.3-1.7,0.9-3.2,2.6-3.5l24.6-3.9c1.7-0.3,3.2,0.9,3.5,2.6
	l0,0C187.9,519,186.8,520.6,185,520.8z"/>
<path class="st0" d="M187.2,518.4l-24.6,3.9c-1.7,0.3-3.2-0.9-3.5-2.6l0,0c-0.3-1.7,0.9-3.2,2.6-3.5l24.6-3.9
	c1.7-0.3,3.2,0.9,3.5,2.6l0,0C190,516.6,188.9,518.2,187.2,518.4z"/>
<path class="st0" d="M173,518.2l-7,1.1c-1.7,0.3-3.2-0.9-3.5-2.6l0,0c-0.3-1.7,0.9-3.2,2.6-3.5l7-1.1c1.7-0.3,3.2,0.9,3.5,2.6l0,0
	C175.9,516.4,174.7,517.9,173,518.2z"/>
<path class="st0" d="M578.6,501.9l-3.2,2.8c-1.7,1.4-2.9,3.3-3.6,5.3c-1.1,2.9-2,6.8,0.2,7.1l1.3,0.2l26.3,2.9c1,0.2,2,0.1,2.9,0
	l0,0l9.3-2.6c1.1-0.1,2-3,2.3-3.9c0.2-0.5,0.5-0.9,0.7-1.2c1.5-2.3,2.6-4.5,2.6-4.5c0.8-1.3-2.7-8.5-4.1-9.2c-0.5-0.2-1.1,0-1.7,0.4
	c-1.5,0.9-2,2.9-1.3,4.4l0.6,3.8c-2.3,4.2-7,3.7-7,3.7c-0.6,0-1.2-0.2-1.7-0.5l-3.2-2.3c-1.8-1.2-1.7-3.8,0.1-5l9.5-1.1
	c1.4-0.2,2.5-1.2,2.6-2.5c0-0.3,0-0.6-0.1-0.9c-0.5-1.7-2.3-2.5-3.9-1.9l-14,0.7c-0.2,0.1-0.4,0.2-0.5,0.2l-9.2,1.8
	C581.8,499.9,580.1,500.7,578.6,501.9z"/>
<path class="st0" d="M603,520.1l24.6,3.9c1.7,0.3,3.2-0.9,3.5-2.6l0,0c0.3-1.7-0.9-3.2-2.6-3.5l-24.6-3.9c-1.7-0.3-3.2,0.9-3.5,2.6
	l0,0C600.1,518.3,601.3,519.9,603,520.1z"/>
<path class="st0" d="M600.9,515.8l24.6,3.9c1.7,0.3,3.2-0.9,3.5-2.6l0,0c0.3-1.7-0.9-3.2-2.6-3.5l-24.6-3.9
	c-1.7-0.3-3.2,0.9-3.5,2.6l0,0C598,513.9,599.1,515.5,600.9,515.8z"/>
<path class="st0" d="M614.5,515.5l7.4,1.2c1.7,0.3,3.2-0.9,3.5-2.6l0,0c0.3-1.7-0.9-3.2-2.6-3.5l-7.4-1.2c-1.7-0.3-3.2,0.9-3.5,2.6
	l0,0C611.7,513.6,612.9,515.2,614.5,515.5z"/>
</svg>
