<?xml version="1.0" encoding="utf-8"?>
<!-- Generator: Adobe Illustrator 26.0.3, SVG Export Plug-In . SVG Version: 6.00 Build 0)  -->
<svg version="1.1" id="Calque_1" xmlns="http://www.w3.org/2000/svg" xmlns:xlink="http://www.w3.org/1999/xlink" x="0px" y="0px"
	 viewBox="0 0 397.9 234.1" style="enable-background:new 0 0 397.9 234.1;" xml:space="preserve">
<style type="text/css">
	.st0{fill:#E0B9A0;}
	.st1{fill:#CCAA97;}
	.st2{fill:#D68F72;}
	.st3{fill:#FFE2F8;}
	.st4{fill:#FF92CD;}
	.st5{fill:#211843;}
	.st6{fill:#221944;}
</style>
<g id="Calque_1_00000037665461968309345410000012861229951520619442_">
	<g id="Calque_12">
		<path class="st0" d="M333.7,109.8c0,0-0.1,3.9-9.3,10c-10.9,7.3-6.9,21.4-8.4,28.7c-1,4.9-9.9,17.3-13.7,16.6
			c-10.8-2-16.9-16.2-26.7-20.4c-5.7-2.4-8.2-4.7-13.7-2c-5.5-2.8-8-0.5-13.7,2c-9.8,4.2-15.8,18.5-26.7,20.4
			c-3.9,0.7-12.7-11.7-13.7-16.6c-1.5-7.3,2.5-21.4-8.4-28.7c-9.2-6.1-11.6-11-11.6-11c8.7-13.6,12.3-28.4,22.3-31.4
			s11-5.4,20.2-8.5c4.7-1.6,8.5-3.4,10.6-5.8l1.6-37.3l18.3-0.6h2.2l14.3,0.5l4,0.1l0.7,15.7l0.6,12.9v0.5l0.4,8.2
			c0.4,0.5,0.9,0.9,1.5,1.3c2.7,2,6.8,3.2,11.6,4.2c6.5,1.3,20.9,6.2,28.2,7.5c3.1,0.6,9.9,16.8,12.7,17.6
			C346.8,96.8,340.7,92.7,333.7,109.8z"/>
		<path class="st1" d="M284.4,64.4c-5.4,4.2-18.8,11.4-21.3,12.6c-8.2,3.9-28.3-5-32.8-8.1c4.7-1.6,8.5-3.4,10.6-5.8l1.6-37.3h38.8
			l1.2,28.5v0.5l0.4,8.2C283.3,63.5,283.8,64,284.4,64.4z"/>
	</g>
</g>
<path class="st0" d="M231.1,87.8c-4.6,21.5-19.4,24.7-27.9,30.9c-13.6,9.8-26.2,29.2-37.4,41.2c-5.3,5.7-11.7,6.6-17.8,2.5l-4.1-2.5
	c-11.5-10.5,1-21.4,5.5-27.3c9.3-12,27.3-32.8,34.3-46.1c5.3-9.9,41.3-18.1,35.3-6.8c0,0,3.2,3.1,15,10.2
	C241.6,94.6,233,78.9,231.1,87.8L231.1,87.8z"/>
<path class="st0" d="M159.3,164.2c9.5-5.7,6.4-15.2,4.4-18.5c-2.1-3.6-42.1-40.9-49.5-49.2c-4.2-4.7-6.1,0.6-9.4,2.6
	c-3,1.9-0.4,7.6,0.6,9.9c2.2,5,31,49.8,33.5,53.4C144,169.8,156.6,165.8,159.3,164.2z"/>
<path class="st0" d="M299.8,93.9c4,17.7,17.3,20.1,25,25.2c12.2,8,28.1,31.1,38.2,41c4.8,4.6,17.8,13.8,26.3,7.3l0,0
	c10.5-8.8,3.1-19.7-1-24.5c-8.3-9.8-30-33.3-36.3-44.1c-4.7-8.1-4.5-11.8-19.5-19.2c0,0-14.8-8.2-25.6-2.2
	C300,81.2,298.1,86.6,299.8,93.9L299.8,93.9z"/>
<path class="st2" d="M240.5,173.9c-8.2,4.1-20.6,9.2-20.6,9.2s6.3,4.6,8.9,4.9c2.1,0.2,11.3-4,11.3-4l16.3,2.6
	c-3.4,4.5-11.7,6.8-16.2,11.8c-3.5,3.9-20.8-3.7-26.9-0.6c-3.4,1.7-11.3,1.4-14.1,4c-2,1.8-3.6,10.9-3.6,10.9l18.9-1.4
	c0,0,25.9-11.2,34.1-15.8c8.9-4.9,24.4,2.1,30.1-3.2c1.9-1.7,5.4-5.1,4.2-10.1c-1.1-4.2-5.9-5.8-9-6.7
	C269.2,174.5,240.9,173.7,240.5,173.9z"/>
<path class="st3" d="M160,81.5c6.5,12.6,26.8,43,35.9,56.5c3,4.4,4.8,9.4,5.4,14.7l-6.4,47.5l-7.2,50.8h153.4l-8.6-45.9l-6.4-54.2
	c0.4-5.1,1.9-10,4.6-14.4l31.9-53c1.6-2.6,0.2-6-2.7-6.8L327.8,68c-0.9-0.3-1.9-0.2-2.8,0.1l-41.6,15.8c-11.6,4.4-24.5,4.3-36-0.3
	c-16.3-6.5-38.2-15.6-43.9-18c-0.9-0.4-1.9-0.5-2.9-0.2L163,75C160.1,75.7,158.6,78.9,160,81.5z"/>
<path class="st4" d="M189.9,249.1h149c1.2,0,2.2,1,2.2,2.2v14.9c0,3.5-3.7,6.3-8.4,6.3H196c-4.7,0-8.4-2.8-8.4-6.3v-14.9
	C187.7,250.1,188.7,249.1,189.9,249.1z"/>
<path class="st0" d="M102,99.7L89.6,88.8c0,0,4.6,2,6.1,0.1c0.4-0.5,0.2-3.2-0.2-3.7c-2.6-3.6-7.1-9.1-7.5-13.5
	c-0.2-1.4,2.5-5.1,2.5-5.1l16.3,15.9l8.2,14.4L102,99.7z"/>
<path class="st0" d="M85.2,75.5c-6.5-5.8-16.1-20.9-24.6-24c-1.6-0.5-6.6,0.4-6.6,0.4l15.4,23.5c2.9,4.4,6.6,8.3,11,11.8l22.8,20.4
	l10.4-12.6C113.7,94.9,92.2,81.8,85.2,75.5z"/>
<ellipse transform="matrix(0.7269 -0.6867 0.6867 0.7269 -40.4351 103.3778)" class="st0" cx="109.8" cy="102.5" rx="8.2" ry="8.1"/>
<path class="st0" d="M271.9,185.2l-14.8,2c0,0,5.8-4.8,5.4-6.9c-0.1-0.5-1.3-0.9-1.8-1c-3.9-0.4-12.7,1.1-15.9-1.2
	c-1-0.8-2-4.7-2-4.7l20.4-1.6l14.6,2.9L271.9,185.2z"/>
<path class="st0" d="M250.3,189.4c-6.6,2.1-21.7,2.4-26.8,7.3c-0.5,0.6-1,2.2-1.3,3.5c-0.2,0.9,0.5,1.8,1.4,1.8l22.7-0.4
	c3.7-0.1,7.4-0.8,10.8-2.2l21.6-8.7l-4.4-13.7C274.3,176.9,257.5,187.2,250.3,189.4z"/>
<ellipse class="st0" cx="275.8" cy="182.7" rx="8.4" ry="8.4"/>
<path class="st5" d="M109.3,101.1c0.6-0.9,0.5-2.4-0.3-3.2L24.2,5.4l82.1,96.4c0.8,0.9,1.9,0.9,2.5-0.1L109.3,101.1z"/>
<path class="st0" d="M89.4,100L77.3,86.6c-2.1-2.3-1.9-5.9,0.4-8l3.5-3.2c2.3-2.1,5.9-1.9,8,0.4l12,13.2c2.1,2.3,1.9,5.9-0.4,8
	l6.2,10.4C104.8,109.6,91.5,102.2,89.4,100z"/>
<path class="st6" d="M281,226.7V113c0-3.1,2.1-5.8,5.1-6.6l58.6-15.2c4.4-1.1,8.5,2.1,8.5,6.6v113.8c0,3.1-2.1,5.8-5.1,6.6
	l-58.6,15.2C285.3,234.5,281,231.2,281,226.7z"/>
<g id="I971h2_00000067219755369311645200000005868042954794575240_">
	<g>
		<path class="st3" d="M322.9,209.8c-2.7-1.9-3.6-5.3-2.1-8.5c1.3-2.7,4.3-4,7.4-3.2c3,0.9,4.9,2.7,5.5,5.7c0.7,3.8-0.4,7.3-3.7,9.7
			c-4.4,3.3-11.4,3.4-15.9,0.2c-2.4-1.6-4.3-3.9-4.2-6.8c0.1-3.9,0.3-7.9,1.5-11.6c1.2-4.3,0.6-7.1-3.1-9.9
			c-5.8-4.4-7.1-10.1-4.9-16.9c2.2-6.6,6.9-10.3,14-10.9c0.6,0,1.4-0.2,1.7-0.6c2.4-3.2,2.4-8.8-0.3-12c-5.8-7.1-8.3-15.4-9.2-24.2
			c-0.4-4-0.2-7.9,2.2-11.5c3.5-5.1,9.2-5.3,12.8-0.3c1,1.5,1.9,3.2,2.4,5c2.1,7,2.1,14.2,0.2,21.2c-0.9,3.2,0,5.1,2,7.4
			c3.5,3.8,7.2,7.7,10,12.1c5.2,7.9,5.4,16.5,0.8,24.7c-4.7,8.5-12.5,12-22,11.7c-1.2-0.1-2.3-0.3-2.8,1.3c-2,5.3-2.4,10.7,0,16
			c1.8,4.1,5.4,5.3,9.9,3.2C324.3,210.7,323.6,210.3,322.9,209.8z M316.7,186.1c5.6,1.5,10.3,0.6,14.5-2.8c4.5-3.8,6.5-8.7,5.2-14.4
			c-0.7-3.1-2.1-6.2-3.9-8.9c-2.1-3.1-4.8-5.8-7.5-9.1c-0.8,2.7-1.5,5-2.1,7.1c6.8,5.6,9.2,12.5,6.7,19.1c-1.5,3.9-4.8,6.2-9.3,5.9
			c1-1.1,1.6-2.1,2.5-2.9c5-4.4,4.4-9.2-2-12.6C319.5,173.7,318.2,179.9,316.7,186.1z M321.3,116.1c-0.5-1.3-2.6-2.9-3.3-2.6
			c-1.4,0.4-2.6,2.1-3.3,3.5c-0.4,0.9-0.3,2.5,0,3.7c1.2,5.9,4.3,10.8,9.1,15.5C324.7,128.8,324.3,122.3,321.3,116.1z M317.2,166.9
			c-3.4-0.3-5.9,1.5-7.2,5c-1.8,5-0.5,10.2,3.5,13C314.8,178.7,316,172.8,317.2,166.9z"/>
	</g>
</g>
<g id="I971h2_00000031198194278168428470000017436679332327562150_">
	<g>
		<path class="st6" d="M73,116.2c-1.1-0.4-1.8-1.4-1.8-2.7c0.1-1.1,1-1.9,2.2-2c1.1-0.1,2.1,0.4,2.6,1.3c0.7,1.2,0.7,2.5-0.1,3.8
			c-1.1,1.7-3.6,2.5-5.5,2c-1.1-0.3-1.9-0.8-2.3-1.8c-0.4-1.4-0.8-2.8-0.9-4.2c-0.1-1.7-0.6-2.5-2.3-3.1c-2.5-0.8-3.7-2.6-3.8-5.3
			s1.1-4.5,3.5-5.5c0.2-0.1,0.4-0.3,0.5-0.4c0.4-1.4-0.3-3.3-1.6-4.1c-2.9-1.7-4.8-4.2-6.2-7.2c-0.6-1.3-1-2.7-0.6-4.2
			c0.5-2.2,2.5-3,4.4-1.7c0.6,0.4,1.1,0.9,1.5,1.4c1.7,2.2,2.5,4.7,2.7,7.4c0.1,1.1,0.6,1.8,1.6,2.3c1.7,1,3.4,1.8,4.9,3
			c2.8,2.2,3.9,5.1,3.3,8.5c-0.6,3.5-2.9,5.7-6.2,6.8c-0.4,0.1-0.8,0.2-0.8,0.8c-0.1,2.1,0.4,3.9,1.9,5.5c1.1,1.2,2.5,1.2,3.9-0.1
			C73.6,116.5,73.4,116.4,73,116.2z M68,108.9c2.1-0.2,3.6-1.1,4.6-2.8c1.1-1.8,1.1-3.8,0-5.6c-0.6-1.1-1.5-1.9-2.5-2.6
			c-1.1-0.9-2.4-1.5-3.8-2.3c0.1,1.1,0.1,1.9,0.2,2.7c3.1,1.1,4.7,3.2,4.6,5.8c-0.1,1.6-1,2.8-2.5,3.2c0.3-0.5,0.4-1,0.5-1.3
			c1.2-2.1,0.4-3.8-2.2-4.1C67.4,104.3,67.8,106.5,68,108.9z M61,83.9c-0.4-0.4-1.2-0.7-1.5-0.5c-0.4,0.4-0.6,1.1-0.7,1.7
			c-0.1,0.4,0.2,1,0.4,1.3c1.1,1.9,2.8,3.2,5,4.3C63.7,88,62.8,85.8,61,83.9z M65.7,102.2c-1.2,0.4-1.8,1.2-1.8,2.6
			c0,1.9,1.1,3.6,2.8,4C66.4,106.5,66.1,104.3,65.7,102.2z"/>
	</g>
</g>
<path class="st6" d="M8.5,40.2c1-0.7,1.9-0.7,2.6-0.1c0.4,0.4,0.6,0.8,0.5,1.3c-0.1,0.4-0.4,0.8-0.9,1c-1.2,0.4-2.4-0.3-2.7-1.5
	c-0.3-1.2-0.5-2.5-0.8-3.7c-0.1-0.4-0.3-0.7-0.7-0.8c-0.9-0.3-1.7-0.5-2.5-0.8c-0.4-0.1-0.8-0.2-1.2-0.4c0.1,1.1,0.3,2.2,0.4,3.3
	C4,38,4.8,37.9,5.6,38.5c0.5,0.3,0.8,0.7,0.7,1.3c-0.1,0.5-0.4,0.9-0.9,1.1c-1.1,0.5-2.5-0.2-2.7-1.3c-0.2-0.7-0.3-1.3-0.4-2
	c-0.4-1.7-0.8-3.4-1.2-5.2c2.2,0.3,4.4,0.5,6.7,0.8C7.9,35.5,8.1,37.8,8.5,40.2z M3.5,34.9c1.1,0.3,2.2,0.5,3.2,0.8
	c0.1-0.7-0.1-0.9-0.6-1.1c-1.1-0.3-2.3-0.5-3.5-0.9C2.5,34.8,2.5,34.8,3.5,34.9z"/>
<path class="st6" d="M24.4,65.6c0.2-0.3,0.3-0.7,0.2-1c-0.4-1.1-0.1-2.2,0.6-3c0.7-0.8,1.7-1.4,2.5-2.2c0.6-0.6,1.3-1.2,1.6-1.9
	c0.4-1.1,1-1.4,2-1.1c0.2,0.1,0.4,0.1,0.6,0.1c0.7,0,1,0.3,0.8,1c-0.2,0.6-0.3,1.2-0.4,1.8c-1,3.6-1.8,7.2-2.8,11
	c1.8-0.7,3.3-0.3,4.5,1.1c0.8,0.8,1.1,1.8,0.6,3c-0.4,1.1-1.3,1.4-2.4,1.5c-2.3,0.1-4.2-2.1-3.9-4.4c0.4-2.6,0.7-5.3,1.1-8.1
	c-1.9,1.3-4.6,1.7-4.5,4.8C24.2,67.3,24.3,66.4,24.4,65.6z M25.2,64.7c1.5-1.6,3.6-2.2,4.3-4.6C27.7,61.4,25.3,61.7,25.2,64.7z"/>
<path class="st6" d="M5.7,7.6c0.7-0.5,1.4-0.5,2.1-0.1c0.4,0.3,0.6,0.6,0.5,1.1C8.3,9,8,9.2,7.6,9.4C6.5,9.8,5.5,9.1,5.3,8
	C5,7,4.9,6,4.7,4.9C4.5,3.9,4.2,2.8,4.1,1.7c0.4-0.1,0.8-0.2,1.2-0.3C5.5,3.5,5.6,5.5,5.7,7.6z"/>
<path class="st0" d="M394.6,155.1c-4.2-14.5-12-12.2-18.7-11.4c-7.2,0.9-74.1,24.1-92.4,29.9c-10.3,3.3-15.9,4.8-14.4,10.7
	c1.4,5.3,12.6,5,17,4.9c41.5-0.8,72.2-4.7,100.6-16.4C394.6,169.6,395.6,158.8,394.6,155.1z"/>
</svg>
