<?xml version="1.0" encoding="utf-8"?>
<!-- Generator: Adobe Illustrator 26.0.3, SVG Export Plug-In . SVG Version: 6.00 Build 0)  -->
<svg version="1.1" id="Calque_1" xmlns="http://www.w3.org/2000/svg" xmlns:xlink="http://www.w3.org/1999/xlink" x="0px" y="0px"
	 viewBox="0 0 331 227.8" style="enable-background:new 0 0 331 227.8;" xml:space="preserve">
<style type="text/css">
	.st0{fill:#E0B9A0;}
	.st1{fill:#CCAA97;}
	.st2{fill:#95C1BE;}
	.st3{fill:#888215;}
	.st4{fill:#9E9520;}
</style>
<g id="Calque_1_00000092416591651727795750000013287074332493574055_">
	<g id="Calque_12">
		<path class="st0" d="M202,85.6c0,0-0.1,3.9-9.3,10c-10.9,7.3-6.9,21.4-8.4,28.7c-1,4.9-9.9,17.3-13.7,16.6
			c-10.8-2-16.9-16.2-26.7-20.4c-5.7-2.4-8.2-4.7-13.7-2c-5.5-2.8-8-0.5-13.7,2c-9.8,4.2-15.8,18.5-26.7,20.4
			c-3.9,0.7-12.7-11.7-13.7-16.6c-1.5-7.3,2.5-21.4-8.4-28.7c-9.2-6.1-11.6-11-11.6-11c-7-17.1-6.1-26.7,3.9-29.7s29.4-7,38.6-10.1
			c4.7-1.6,8.5-3.4,10.6-5.8l1.6-37.3l18.3-0.6h2.2l14.3,0.5l4,0.1l0.7,15.7l0.6,12.9v0.5l0.4,8.2c0.4,0.5,0.9,0.9,1.5,1.3
			c2.7,2,6.8,3.2,11.6,4.2c6.5,1.3,23.9,5.8,31.2,7.2C198.6,52.3,209,68.5,202,85.6z"/>
		<path class="st1" d="M152.7,40.2c-5.4,4.2-18.8,11.4-21.3,12.6c-8.2,3.9-28.3-5-32.8-8.1c4.7-1.6,8.5-3.4,10.6-5.8l1.6-37.3h38.8
			l1.2,28.5v0.5l0.4,8.2C151.6,39.3,152.1,39.8,152.7,40.2z"/>
	</g>
</g>
<path class="st0" d="M92.1,67.3c0.2,19.8-13.4,25.3-20.4,32.4c-11.1,11.2-22.3,39.5-30.7,52.2c-3.9,6-15.6,18.7-26.4,13.6l0,0
	c-13.5-7.1-6.3-23.3-3.1-29.3c6.4-12.3,27.5-65.9,41.7-77.1c0,0,13.8-12,26.9-8C88.5,53.7,92,59.1,92.1,67.3L92.1,67.3z"/>
<path class="st0" d="M181.1,54.5c-5.5,11.8-1,35,2.1,41.6c5,10.6,10.4,18.5,12.9,28.9c1.2,4.9,6.2,16.6,15.3,17.2l0,0
	c11.6,0.3,16.3-14.3,15.7-19.1c-0.8-5.8-8.3-34.5-13.3-53.3c-3-11.2-13.1-19.1-24.6-18.8c-4.1,0.1-7.3,0.8-8.1,2.6L181.1,54.5z"/>
<path class="st0" d="M215.6,146.1c11.2,2.7,16.6-4.7,20-11.4c2.5-4.8,19.7-53.3,24.6-66.5c2.8-7.4,4.5-11.3-1.4-12.9
	c-5.4-1.5-11.3,5.2-13.6,7.8c-22,24.5-36.9,43.8-40.8,65.5C201.8,142.8,211.7,145.2,215.6,146.1z"/>
<path class="st0" d="M264,33.1c2.7-2,5.2-4.2,7.5-6.6c1.7-1.8,4.9-0.6,4.9,1.8c0,0.1,0,0.3,0,0.4c-0.3,1.6-5.8,8.5-5.8,8.5l0,0
	c26.5-10.7,47.7-16.1,50.8-16.6c0,0,0,0,0.1,0c2.9-0.4,4,3.7,1.3,4.8c-8,3.4-20.5,8.9-25,11.1c-23,11.4-28.6,17.5-35.7,27.5
	c-1.2,1.8-15.8-0.1-13.7-4c0.8-1.4-0.5-9.1,1.4-11.1C257.2,40.5,263.7,33.3,264,33.1z"/>
<path class="st2" d="M71.6,52.3c0,16.2-3.4,57.2-3.6,59.8c0,0.1,0,0.2,0,0.2c0,3.1,0.8,65.5-2,86.4c-1.6,11.5-18.2,44.7-18.4,46.6
	c0,0.1,0,0.1,0,0.2c-2.7,13.2,5.7,26.1,18.8,28.9c1.7,0.4,3.4,0.5,5.1,0.5h122c11.6,0,20.9-9.4,20.9-20.9c0-2-0.3-4-0.9-6
	c0-0.1-0.1-0.2-0.1-0.3c-0.4-2.5-19.5-36.3-22.1-48.2c-2.6-12.2,0.3-79.9,0.5-83.4c0-0.1,0-0.2,0-0.3l-3.8-64
	c-0.1-1.1-0.9-2.1-2-2.4l-11.4-2.9c-0.5-0.1-0.9-0.1-1.4,0c-5.1,1.5-12.9,4.2-20.2,6.7c-12.8,4.5-26.7,5-39.9,1.4l-28.9-8
	c-0.5-0.1-1-0.1-1.5,0l-9.4,3C72.2,50.2,71.6,51.2,71.6,52.3z"/>
<g id="GcAfxX_00000158726393485427391440000013673085389559127732_">
	<g>
		<path class="st3" d="M108.3,197.5c0.4,0.7,0.6,1.5,1,2.2c0.1,0.2,0.3,0.4,0.7,1c-0.1-0.8-0.1-1-0.2-1.2c-0.2-1.6-0.3-3.1-0.4-4.7
			c0.1,0,0.3,0,0.5,0c0.3,1.5,0.6,3,0.8,4.5c0,1-0.2,2.1-0.2,3.1c-0.1,1.2-0.1,2.5-0.1,3.7c0,0.5,0,1-0.1,1.6s-0.1,1.2-0.1,2.2
			c0.7-1.4,1.2-2.5,1.7-3.7c0.1,0.3,0.2,0.5,0.6,1.3c3.3-4.3,6.1-8.2,9.1-12.1c0.6-0.2,1.2-0.5,2-1c-0.5,1.6-0.8,2.7-1.1,3.8
			c-0.2,0.1-0.2,0.3-0.3,0.4c0,0.1,0,0.2,0,0.2c-1.1,1.2-2.3,2.3-3.5,3.4c0,0.1,0.1,0.2,0.1,0.2c-0.8,0.8-1.6,1.6-2.8,2.8
			c-0.4,0.7-0.9,1.9-1.6,3.1c-1.5,1-3,2-3.8,2.5c-1.7,4.7-3,8.6-4.5,12.7c-0.1,0,0,0.2,0.1,0.2c0,0,0.1,0,0.2,0
			c4.5-2.8,8.8-5.8,13.3-8.6c0.3-0.1,0.7-0.2,1.6-0.3c-1.1,1.5-1.9,2.6-2.7,3.7c-0.5-0.1-1-0.1-1.5-0.2c-0.3,0.6-0.5,1-0.5,0.9
			c-2.9,1.9-6.2,2.6-7.8,5.6c-8,1.8-9.2,12.6-18.9,13.8c6.8-4.3,11.7-9,15-15.2c-0.4-0.5-0.7-1.1-1.1-1.7c-0.1-0.2-0.3-0.4-0.4-0.5
			l0-0.1c-1.3-6.2-3.5-12-6.4-17.6c0.1-0.7,0.2-1.4,0.3-2.5c1,1,1.6,1.8,2.3,2.6c0.1,0.1,0.1,0.2,0.3,0.3c0.1,0.1,0.2,0.2,0.4,0.4
			c1.7,5,3.3,10,5,15c0.1,1.1,0,2.2,0.1,4.6c1.2-3.9,2.1-6.5,2.9-9.1c0.3-1.4,0.7-2.7,1.1-4.1l0-0.1c0.1-0.1,0.1-0.1,0.1-0.2
			c0.1-1.4,0.3-2.9,0.4-4.3c0.1-1.7,0-3.5,0-5.1c-1-0.6-1.9-1.1-2.7-1.7c-0.2-0.1-0.3-0.2-0.5-0.3l-0.1,0c-2.1-5-6.6-7.9-10.3-11.6
			c-0.1-0.4-0.3-0.8-0.6-1.8c2,1,3.5,1.8,5,2.5C101.9,192.4,105.1,195.1,108.3,197.5z"/>
		<path class="st4" d="M115.2,195.3c1.9-0.2,1.8,1.7,2,2.9c1.5-0.9,2.9-1.8,4.3-2.6c-2.9,3.9-5.8,7.7-9.1,12.1
			c-0.4-0.8-0.4-1.1-0.6-1.3c0.4-0.8,0.9-1.8,1.4-2.8c-1-0.3-1.9-0.7-2.8-1c0-1,0.2-2.1,0.2-3.1C111.6,197.3,113,195.5,115.2,195.3z
			"/>
		<path class="st3" d="M109.2,193.1c0-0.2-0.1-0.4-0.2-0.7c-0.2,0.1-0.3,0.3-0.5,0.3c0.1-1.1,0.3-2.2,0.4-3.3c0.1,0.3,0.2,0.7,0.2,1
			c0,0.2,0.1,0.2,0.2,0.4c0,0.2,0.1,0.3-0.7-1.9c0.9,2.2,0.8,2.1,0.8,1.9c0,0,0-0.1,0-0.2c0-0.8,0.1-1.6,0.1-2.4
			c1.4-4.5,2.8-9.1,4.3-13.6c0.4-0.6,0.8-1.1,1.5-1.9c1.7,7.6-0.8,13.8-5.2,19.3C109.8,192.4,109.5,192.9,109.2,193.1z"/>
		<path class="st4" d="M105,216.2c0,0.1-0.1,0.6,0,1c0.1,0.3,0,0.5,0.1,0.7c0,0.5,0.1,1.1,0.1,1.6c-1.7-5-3.3-10-5-15
			c0.9,1.1,1.7,2.3,2.6,3.4c1.5-1.4,2.8-0.5,4,0.5c0.9,0.8,1.7,1.6,2.6,2.4c-0.3,1.4-0.7,2.7-1.1,4.1
			C107.2,215.3,106.3,215.7,105,216.2z"/>
		<path class="st4" d="M106.8,194.4c0.5,1,1,2.1,1.6,3.2c-3.3-2.5-6.4-5.2-7.9-9.2c0.6,0.3,1.2,0.6,1.9,0.9c0.7-6.3,3.5-2.6,5.8-1.4
			c0.2,0,0.3,0,0.5,0c0,0.5,0.2,1.1,0.3,1.7c-0.1,1.1-0.3,2.2-0.4,3.3C107.9,193.3,107.3,193.8,106.8,194.4z"/>
		<path class="st3" d="M107.6,184.8c0.2,0.4,0.3,0.8,0.5,1.3c-0.2,0-0.2,0.1-0.4,0.2c-0.7-0.5-1.6-0.9-2.3-1.4
			c-0.2,0-0.3-0.2-0.4-0.3c-0.7-0.5-1.4-0.9-2-1.4c-1.5-4.5-5-7.3-8.3-10.4c-0.1-0.6-0.4-1.2-0.7-2.2c1.3,0.7,2.4,1.2,3.4,1.7
			c2.2,3.4,4.6,6.6,8.2,8.7c0.4,0.7,0.9,1.4,1.3,2.1C107.1,183.7,107.4,184.2,107.6,184.8z"/>
		<path class="st4" d="M97.1,203.8c3,5.5,5.1,11.4,6.4,17.6C99.5,216.2,96.4,210.6,97.1,203.8z"/>
		<path class="st3" d="M97,162L97,162c-0.1-0.3-0.1-0.4-0.2-0.7c0.1-0.6,0-1,0-1.8c0.6,0.4,0.9,0.7,1.2,1c2.3,4.5,4.7,9,7,13.5
			c0.2,1.3,0.3,2.6,0.5,4.5c-0.9-1.2-1.5-1.8-2-2.4C102.1,171.1,100.2,166.3,97,162z"/>
		<path class="st4" d="M96.1,187.5c3.6,3.7,8.1,6.6,10.3,11.6C101.6,196.5,97.8,193,96.1,187.5z"/>
		<path class="st4" d="M97,161.9c3.2,4.3,5.1,9.2,6.6,14.3C100,172.1,97,167.7,97,161.9z"/>
		<path class="st4" d="M119.9,215.2c-4.5,2.8-8.8,5.8-13.3,8.6C110,219.4,114,215.9,119.9,215.2z"/>
		<path class="st4" d="M94.7,172.8c3.3,3,6.8,5.9,8.3,10.4C99,180.7,96,177.4,94.7,172.8z"/>
		<path class="st4" d="M105.3,174c-2.3-4.5-4.7-9-7-13.5C102.6,164,104.6,168.6,105.3,174z"/>
		<path class="st4" d="M113.8,174.6c-1.4,4.5-2.8,9.1-4.3,13.6C109.5,183.3,110.4,178.6,113.8,174.6z"/>
		<path class="st4" d="M108.9,225c1.6-3,4.8-3.7,7.8-5.6c-0.1,0.1,0.2-0.3,0.5-0.9c0.5,0.1,1,0.1,1.5,0.2
			C116.2,222,112.8,223.9,108.9,225z"/>
		<path class="st4" d="M114.5,208.5c0.6-1.2,1.2-2.4,1.6-3.1c1.2-1.2,2-2,2.8-2.8c0-0.1-0.1-0.2-0.1-0.2c1.1-1.2,2.3-2.3,3.5-3.4
			C120.8,203,118.1,206,114.5,208.5z"/>
		<path class="st4" d="M105.5,181c-3.5-2.2-6-5.3-8.2-8.7C101.1,174.2,103.7,177.2,105.5,181z"/>
		<path class="st4" d="M106.5,181.3c0.1,0,0.3-0.1,0.3-0.1c0.3,1.2,0.6,2.4,0.9,3.6c-0.3-0.7-0.6-1.2-1-1.8
			C106.7,182.5,106.5,181.9,106.5,181.3z"/>
		<path class="st4" d="M109.9,194.9c-0.1,0-0.3,0-0.5,0c-0.1-0.5-0.2-1.1-0.3-1.7c0.3-0.3,0.6-0.8,0.9-1.1
			C110,193,109.9,194,109.9,194.9z"/>
		<path class="st4" d="M109.8,206.3c-0.1,1.4-0.3,2.9-0.4,4.3C109.6,209.2,109.7,207.7,109.8,206.3z"/>
		<path class="st3" d="M107.7,186.3c0.2,0,0.2-0.1,0.4-0.2c0.1,0.6,0.3,1.2,0.4,1.8c-0.2,0-0.3,0-0.5,0
			C108,187.4,107.8,186.8,107.7,186.3z"/>
		<path class="st4" d="M106.4,180.7C105.9,179.6,105.8,179.4,106.4,180.7C106,179.3,106.1,179.5,106.4,180.7z"/>
		<path class="st4" d="M106.6,199.2c0.2,0.1,0.3,0.2,0.5,0.3C106.9,199.4,106.7,199.3,106.6,199.2z"/>
		<path class="st4" d="M96.9,161.3c0.1,0.3,0.1,0.4,0.2,0.7C97,161.7,96.9,161.5,96.9,161.3z"/>
		<path class="st4" d="M103.5,221.4c0.1,0.2,0.3,0.4,0.4,0.5C103.8,221.8,103.6,221.6,103.5,221.4z"/>
		<path class="st4" d="M122.3,198.8c0.2-0.1,0.2-0.3,0.3-0.4C122.5,198.5,122.5,198.7,122.3,198.8z"/>
		<path class="st4" d="M99.9,204.1c-0.1-0.1-0.1-0.2-0.3-0.3C99.8,203.8,99.9,204,99.9,204.1z"/>
		<path class="st4" d="M109.4,190.7c0,0.1,0,0.1,0,0.2l-0.2,0.1c0-0.2-0.1-0.2-0.2-0.4C109.2,190.7,109.2,190.6,109.4,190.7z"/>
		<path class="st4" d="M105,184.6c0.2,0,0.3,0.2,0.4,0.3C105.3,184.8,105.1,184.7,105,184.6z"/>
		<path class="st4" d="M105.6,178.3c0,0.2,0.1,0.3,0.1,0.3l-0.1,0C105.6,178.5,105.6,178.4,105.6,178.3L105.6,178.3z"/>
		<path class="st4" d="M110.4,206.2c0,0.5,0,1-0.1,1.6C110.4,207.3,110.5,206.8,110.4,206.2z"/>
		<path class="st4" d="M110,200.9c-0.4-0.6-0.6-0.9-0.7-1c0.2,0,0.3-0.2,0.5-0.2C109.9,199.9,109.9,200.1,110,200.9z"/>
		<path class="st4" d="M109.3,191c0,0.1,0.1,0.2-0.8-1.9C109.3,191.3,109.3,191.2,109.3,191C109.2,191,109.4,190.9,109.3,191z"/>
		<path class="st3" d="M105,217.1c0.1,0.3,0,0.5,0.1,0.7C105.1,217.6,105.1,217.4,105,217.1z"/>
	</g>
</g>
<path class="st0" d="M114.3,234.7c-0.5,5.3-2,12.8-5.9,15.3c-2.1,0.8-9.3,2.4-11.4,1.2c-6.8-3.9-15.1-11-20.4-16.8l-66-71.8
	c-0.2-0.2-0.5-0.5-0.6-0.8c-5.4-7.1-4-17.2,3.1-22.6c6.7-5.1,16.1-4.1,21.7,2.1l5.3,5.8l31.1,52c5.3,8.6,11.7,16.4,19.2,23.2l0,0
	l12.9-2.5c1.7-0.4,3,0.1,3.7,1.2c0.6,0.8,0.4,1.9-0.5,2.4l-6.5,3.9c0,0,4.8,0.5,8.8,0.8C112.2,228.3,114.6,231.3,114.3,234.7z"/>
</svg>
