<?xml version="1.0" encoding="utf-8"?>
<!-- Generator: Adobe Illustrator 26.0.3, SVG Export Plug-In . SVG Version: 6.00 Build 0)  -->
<svg version="1.1" id="Calque_1" xmlns="http://www.w3.org/2000/svg" xmlns:xlink="http://www.w3.org/1999/xlink" x="0px" y="0px"
	 viewBox="0 0 506.7 392.3" style="enable-background:new 0 0 506.7 392.3;" xml:space="preserve">
<style type="text/css">
	.st0{fill:#E0B9A0;}
	.st1{fill:#CCAA97;}
	.st2{fill:#C3DFED;}
	.st3{fill:#91B7C6;}
</style>
<g id="Calque_1_00000156560146857180055860000005908162381418793391_">
	<g id="Calque_12">
		<path class="st0" d="M305.7,132.1c0,0,7.6,5.1-2.1,11.6c-11.6,7.7,6.7,29.5,5.1,37.1c-1.1,5.2-8.7,18.4-12.7,17.6
			c-11.5-2.1-17.9-17.2-28.3-21.6c-6-2.5-8.7-5-14.5-2.1c-5.8-3-8.5-0.5-14.5,2.1c-10.4,4.5-16.8,19.6-28.3,21.6
			c-4.1,0.7-13.5-12.4-14.5-17.6c-1.6-7.7,17.5-21.9,5.9-29.6c-9.8-6.5,9.1-12.5,9.1-12.5c-7.4-18.1-24.7-31-14.2-34.2
			c10.5-3.2,13.2-4.9,22.9-8.2c5-1.7,9-3.6,11.2-6.2l1.7-39.6l19.4-0.6h2.3l15.2,0.5l4.2,0.1l0.7,16.7L275,81v0.5l0.4,8.7
			c0.4,0.5,1,1,1.6,1.4c2.9,2.1,7.2,3.4,12.3,4.5c6.9,1.4,24.8,15.1,32.6,16.4c3.3,0.6-19,7.6-16,8.6
			C316.2,124.4,313,114,305.7,132.1z"/>
		<path class="st1" d="M276.9,91.7c-5.7,4.5-19.9,12.1-22.6,13.4c-8.7,4.1-30-5.3-34.8-8.6c5-1.7,9-3.6,11.2-6.2l1.7-39.6h41.2
			l1.3,30.2v0.5l0.4,8.7C275.7,90.7,276.2,91.3,276.9,91.7z"/>
	</g>
</g>
<path class="st0" d="M218.2,119.6c-4,16.9-16.8,19.3-24.2,24.2c-11.8,7.6-27.4,29.8-37.1,39.3c-4.6,4.5-17.3,13.3-25.2,7.2l0,0
	c-10-8.3-2.8-18.7,1.2-23.3c8.1-9.4,26.4-26.9,32.6-37.3c4.6-7.7,7.1-16.1,21.6-23.2c0,0,14.3-8,24.5-2.3
	C218.1,107.6,219.9,112.7,218.2,119.6L218.2,119.6z"/>
<path class="st0" d="M290.6,119.6c4,16.9,16.8,19.3,24.2,24.2c11.8,7.6,27.4,29.8,37.1,39.3c4.6,4.5,17.3,13.3,25.2,7.2l0,0
	c10-8.3,2.8-18.7-1.2-23.3c-8.1-9.4-26.5-26.9-32.6-37.3c-4.6-7.7-7.1-16.1-21.6-23.2c0,0-14.3-8-24.5-2.3
	C290.7,107.6,288.9,112.7,290.6,119.6L290.6,119.6z"/>
<path class="st0" d="M361,179.1c3.2-11.5,13.8-9.7,19.6-9.1c6.3,0.5,65,16.9,81,21c9,2.3,14,3.4,12.8,8c-1.1,4.2-10.8,4.7-14.6,4.2
	c-41.2-4-51-5.2-87.7-10.3C354.7,190.6,360.1,182,361,179.1z"/>
<path class="st0" d="M149.6,179c-3.2-11.5-13.9-10.2-19.6-9.1c-87.8,15-101.8,35.2-79.4,33.3c9.3-0.7-15.8-8.9-14.6-4.2
	c1.1,4.2,10.8,4.7,14.6,4.2c41.3-4,51-5.2,87.7-10.3C155.8,190.5,150.3,182,149.6,179z"/>
<path class="st2" d="M193.9,99.1l12.9-4.6c2.8-1,4-1.4,6.7-0.2c3.5,1.8,8.3,15.5,14,18.3c4.3,4.2,8.4,9.6,12.8,11.7
	c3.1,1.4,44.9-31.9,44.9-31.9c2.3-1.3,5.1-1.6,7.6-1l18.4,4.7c5.3,1.4,8.8,6.6,8,12l-9.8,66.2c-0.2,1.3-0.1,2.7,0.1,3.9l15.9,71.3
	c0.1,0.3,0.2,0.7,0.3,1.1c5.1,15.2-146.5,14.6-142.2-2c0.1-0.3,0.2-0.7,0.2-1.2l10.3-69.9c0.1-1,0.1-1.9,0-2.8l-7.3-64.7
	C186.3,105.5,189.2,100.8,193.9,99.1z"/>
<path class="st2" d="M309.4,185.5c-0.2,2.1,3.2,5.7,3.7,7.8l30.8,121.4c1.5,8.9-15.5,17.1-25.1,18.4c-0.1,0-0.2,0-0.2,0
	s-50.7,9-67.8,8.5c-16.5-0.6-71.7-12.8-71.7-12.8c-8.8-1.8-18.2-9.4-17.1-17.7l29.5-117.3c0.4-2.1,8.8-5.4,8.6-7.4
	C200.2,186.3,310.2,173.6,309.4,185.5z"/>
<g>
	<path class="st3" d="M213.5,94.4c1.1,0.9,37.6,35.2,46.9,53.9c9.2,19.3,20.6,38,24.9,59.1c0.6,2.3,1,5.6,1.3,8
		c3.9,34.2,7.7,69.2,11,103.5c0.4,3.9,1.1,12.1,1.4,16c-0.6-4-1.7-11.8-2.3-15.8c-4.9-34.1-9.2-69-13.2-103.1
		c-0.2-2.3-0.6-5.6-1.3-7.8c-4.2-20.9-15.4-39.4-24-58.7c-8.8-18.9-35.6-36.8-44.6-53.3V94.4z"/>
</g>
<path class="st0" d="M51.6,182.7l-9.7-1.9c-0.2,0-0.4-0.1-0.6-0.2l-14.9-0.7c-1.8-0.6-3.7,0.2-4.1,2c-0.1,0.3-0.2,0.7-0.1,1
	c0.2,1.4,1.3,2.5,2.7,2.6l10.1,1.2c1.9,1.2,2,4,0.1,5.3l-3.3,2.4c-0.6,0.3-1.2,0.6-1.8,0.6c0,0-5,0.6-7.4-3.9l0.6-4.1
	c0.8-1.7,0.2-3.7-1.4-4.7c-0.6-0.4-1.3-0.6-1.8-0.4c-1.5,0.7-5.3,8.4-4.4,9.7c0,0,1.2,2.4,2.8,4.8c0.2,0.3,0.6,0.8,0.7,1.3
	c0.4,0.9,1.4,4,2.5,4.1l9.9,2.8l0,0c1,0.2,2.1,0.2,3.1,0l28-3l1.4-0.2c2.2-0.3,1.4-4.4,0.2-7.5c-0.8-2.2-2.1-4.1-3.8-5.7l-3.4-2.9
	C55.4,184,53.6,183.1,51.6,182.7z"/>
<path class="st0" d="M31.3,204.9L5.2,209c-1.8,0.3-3.4-1-3.7-2.7l0,0c-0.3-1.8,1-3.4,2.7-3.7l26.1-4.1c1.8-0.3,3.4,1,3.7,2.7l0,0
	C34.4,203,33.2,204.6,31.3,204.9z"/>
<path class="st0" d="M33.6,202.3l-26.1,4.1c-1.8,0.3-3.4-1-3.7-2.7l0,0c-0.3-1.8,1-3.4,2.7-3.7l26.1-4.1c1.8-0.3,3.4,1,3.7,2.7l0,0
	C36.6,200.4,35.4,202.1,33.6,202.3z"/>
<path class="st0" d="M18.6,202.2l-7.4,1.2c-1.8,0.3-3.4-1-3.7-2.7l0,0c-0.3-1.8,1-3.4,2.7-3.7l7.4-1.2c1.8-0.3,3.4,1,3.7,2.7l0,0
	C21.6,200.2,20.3,201.8,18.6,202.2z"/>
<path class="st0" d="M448.9,184.8l-3.4,2.9c-1.8,1.5-3,3.5-3.8,5.7c-1.1,3.1-2.1,7.2,0.2,7.5l1.4,0.2l28,3c1,0.2,2.1,0.1,3.1,0l0,0
	l9.9-2.8c1.2-0.1,2.1-3.2,2.5-4.1c0.2-0.5,0.5-1,0.7-1.3c1.6-2.4,2.8-4.8,2.8-4.8c0.9-1.4-2.9-9-4.4-9.7c-0.5-0.2-1.1,0-1.8,0.4
	c-1.6,1-2.2,3-1.4,4.7l0.6,4.1c-2.4,4.5-7.4,3.9-7.4,3.9c-0.6,0-1.3-0.2-1.8-0.6l-3.3-2.4c-1.9-1.3-1.8-4.1,0.1-5.3l10.1-1.2
	c1.4-0.2,2.6-1.3,2.7-2.6c0-0.3,0-0.6-0.1-1c-0.5-1.8-2.4-2.6-4.1-2l-14.9,0.7c-0.2,0.1-0.4,0.2-0.6,0.2l-9.7,1.9
	C452.2,182.7,450.4,183.5,448.9,184.8z"/>
<path class="st0" d="M474.7,204.2l26.1,4.1c1.8,0.3,3.4-1,3.7-2.7l0,0c0.3-1.8-1-3.4-2.7-3.7l-26.1-4.1c-1.8-0.3-3.4,1-3.7,2.7l0,0
	C471.6,202.3,472.9,203.9,474.7,204.2z"/>
<path class="st0" d="M472.4,199.6l26.1,4.1c1.8,0.3,3.4-1,3.7-2.7l0,0c0.3-1.8-1-3.4-2.7-3.7l-26.1-4.1c-1.8-0.3-3.4,1-3.7,2.7l0,0
	C469.4,197.6,470.6,199.3,472.4,199.6z"/>
<path class="st0" d="M486.9,199.3l7.9,1.3c1.8,0.3,3.4-1,3.7-2.7l0,0c0.3-1.8-1-3.4-2.7-3.7l-7.9-1.3c-1.8-0.3-3.4,1-3.7,2.7l0,0
	C483.9,197.3,485.2,198.9,486.9,199.3z"/>
</svg>
