<?xml version="1.0" encoding="utf-8"?>
<!-- Generator: Adobe Illustrator 26.0.3, SVG Export Plug-In . SVG Version: 6.00 Build 0)  -->
<svg version="1.1" id="Calque_1" xmlns="http://www.w3.org/2000/svg" xmlns:xlink="http://www.w3.org/1999/xlink" x="0px" y="0px"
	 viewBox="0 0 339.8 219.7" style="enable-background:new 0 0 339.8 219.7;" xml:space="preserve">
<style type="text/css">
	.st0{fill:#CCAA97;}
	.st1{fill:#D3D3D3;}
	.st2{fill:#E0B9A0;}
	.st3{fill:#D68F72;}
	.st4{fill:#D34B1C;}
</style>
<g id="Calque_1_00000169533837987157082180000002261082969909457810_">
	<g id="Calque_12">
		<path class="st0" d="M192.4,82.9c0,0-0.1,3.9-9.3,10c-10.9,7.3-6.9,21.4-8.4,28.7c-1,4.9-9.9,17.3-13.7,16.6
			c-10.8-2-16.9-16.2-26.7-20.4c-5.7-2.4-8.2-4.7-13.7-2c-5.5-2.8-8-0.5-13.7,2c-9.8,4.2-15.8,18.5-26.7,20.4
			c-3.9,0.7-12.7-11.7-13.7-16.6c-1.5-7.3,2.5-21.4-8.4-28.7c-9.2-6.1-11.6-11-11.6-11c-7-17.1-6.1-26.7,3.9-29.7s29.4-7,38.6-10.1
			c4.7-1.6,8.5-3.4,10.6-5.8L101.2-1l18.3-0.6h2.2L136-1.1l4,0.1l0.7,15.7l0.6,12.9v0.5l0.4,8.2c0.4,0.5,0.9,0.9,1.5,1.3
			c2.7,2,6.8,3.2,11.6,4.2c6.5,1.3,30.5,8,37.8,9.4c3.1,0.6-2.8-0.9,0,0C202.4,54.1,199.4,65.8,192.4,82.9z"/>
		<path class="st0" d="M143.1,37.6c-5.4,4.2-18.8,11.4-21.3,12.6c-8.2,3.9-28.3-5-32.8-8.1c4.7-1.6,8.5-3.4,10.6-5.8L101.2-1H140
			l1.2,28.5V28l0.4,8.2C142,36.7,142.5,37.2,143.1,37.6z"/>
	</g>
</g>
<path class="st1" d="M171.8,36.6l-27.1-9.8l-2-18.3l-12.2-0.1c-4,0-7.5,2.7-8.5,6.6l-1.5,12.4L119,15c-1-4-4.6-6.8-8.7-6.8l-12-0.1
	l-2.5,17.7L51.3,44.4l66.8,39.5L171.8,36.6z"/>
<path class="st2" d="M288.8,99.1c0.3-2.5,8.7-17.2,9.7-19.2s18.4-11.2,19.2-10.2s-1.1,6.2-1.1,6.2l-4.3,3.2l19.6-5l8.4-2.2
	c0.7-0.2,1.5,0.2,1.7,1c0,0.1,0.1,0.3,0,0.4l-0.1,1.5c-0.1,1.9-1.3,3.6-3.2,4.3l-15.6,5.8l-1.6,14.9c0,0-17.9,9-21.3,8.5
	c-1-0.1-5.7,1.7-7.2-1.3C292.1,105.2,288.8,99.1,288.8,99.1z"/>
<path class="st2" d="M73.9,71.1c2.6,15.8-32.2,64.2-38.6,75.6c-3,5.4-12.7,17.4-23.6,15c-13.8-3.6-8.7-17.7-6.5-23
	c4.6-10.9,26.5-67.3,40.1-77.4c6.9-5.1,12-3.8,24.9-2.5C78.5,59.6,72.8,64.6,73.9,71.1L73.9,71.1z"/>
<path class="st2" d="M155.6,62.8c2.9,19.6,17.2,23.3,25.3,29.3c12.7,9.6,28.2,36.1,38.5,47.5c4.8,5.4,18.4,16.4,28.2,9.9l0,0
	c12.3-8.9,2.6-23.9-1.5-29.4c-8.2-11.3-41.8-55.4-57.7-64.5c0,0-10.1-0.8-22.4,4.9C158.1,64.3,154.4,54.7,155.6,62.8L155.6,62.8z"/>
<path class="st2" d="M232.3,145.7c6.3,9.5,17.3,5.4,26.2,0.7c6.3-3.4,26.7-29.1,42.6-39.4c9-5.8,9.5-8.6,6.2-13.9
	c-2.9-4.8-14,2-17.9,4c-39.7,19.7-49.9,24.1-49.9,24.1C222.6,131.9,230.1,142.5,232.3,145.7z"/>
<path class="st1" d="M36.4,51.3c-0.4,5.8,18.7,59.9,18.7,59.9l-1.8,82l1.7,24.9h127.5l2.5-25.2l4.9-83.2l11.1-58l-55.6-18.8
	c0,0-23.5,18-26,18s-25.5-18-25.5-18L36.4,51.3z"/>
<path class="st2" d="M4.2,144.7c2.5-11,14.1-9.9,24.1-7.6c7.1,1.6,40.5,15.6,58.9,21.4c10.4,3.3,16,4.8,14.9,10.8
	c-1,5.4-50.8,3-82.5-2.6C-0.3,163.2,3.4,148.4,4.2,144.7z"/>
<path class="st3" d="M78.6,131.2c4.2-2.2,12.1-11.1,13.2-12.6s14.9-8.5,15.4-7.6s0.7,4,0.7,4l-7.8,6.5l19.5-3.3
	c0,0,12.4-2.4,16.4-1.7c1.1,0.2-0.7,4.1-0.7,4.1l-18.4,6.8l-5.5,11.8c-1.7,3.7-5.4,6.1-9.5,6.1c-4.6,0-10.1,0-11.6-0.4
	c-0.8-0.2-6.6-1.5-7.3-4.1C82.7,139.2,78.6,131.2,78.6,131.2z"/>
<path class="st1" d="M181.9,214.5c3.8-16.3,8.2-69.4,9.6-111.7c1-30.4,13.2-51.5,9.7-53.6c-15.2-8.9-35.3-15.9-50.7-17.8
	c-11.1-1.3-18.7,28-28.8,28.9c-6.3,0.6-24-29.1-29.6-28C77.7,35,49.8,43.7,36.5,49.8C35.3,56.2,48.6,69.9,48.8,92
	c0.3,44,3.2,104.4,7.6,123"/>
<g id="Calque_10">
	<path class="st1" d="M53.5,215v-25.7l132.2-6.4v32c0,2.8-2.6,5.1-5.8,5.1l0,0H59.4C56.2,220.2,53.5,217.9,53.5,215z"/>
</g>
<g>
	<path class="st4" d="M128.2,29.1c-10.4,5.3-22.6,11.3-33.1,16.3c-6.6,2.6-11.1,7.2-11.2,14.6l0.1,5.3c0.1,7,0.1,14.1,0.1,21.1
		c-1,42.2,0.4,84.4,1.3,126.5c-0.6,8.7-2.4-14-2.6-84.3c-0.4-20.3-1.4-43-1.4-63.2v-5.3c-0.1-5.7,3.1-11.3,8-14.3
		c2.7-1.6,6.9-3.1,9.7-4.5c4.8-2.1,14.5-6.3,19.4-8.4c3.2-1.4,6.5-2.8,9.7-4.1C128.1,28.8,128.2,29.1,128.2,29.1L128.2,29.1z"/>
</g>
<circle class="st4" cx="96.9" cy="72.7" r="3.4"/>
<circle class="st4" cx="98.3" cy="140.2" r="3.4"/>
<circle class="st4" cx="99.1" cy="207.5" r="3.4"/>
<path class="st4" d="M96.4,12.8c0,0-3.9,2-5.6,6.5c-0.3,0.3-7,2.3-4.8,6.5s3.4,3.7,3.4,3.7s22,0.3,29.9,8.7c0.2,0,23.3-8.1,30.9-7
	c0.2,0.1,2.3-4.6,0-5.7s0.6-4.2-0.9-6.7c-1.4-2.5-2.4-5.1-4.8-3.9c-2.4,1.1-25.3,9.3-25.3,16.3C119.4,31.2,113.1,20.4,96.4,12.8z"/>
<path class="st4" d="M114,27.8c0,0,6.7-4.2,11.2,0c0.8,5.9,2.2,9.8,0,10.4s-6.5,2.8-8.2,1.7C115.5,38.8,107.9,35.7,114,27.8z"/>
<path class="st4" d="M113.8,34.7L105,45.9c-0.3,0.4-0.4,0.8-0.3,1.3l4.5,18.5c0.3,1.4,2.2,1.6,2.8,0.3l6.8-14.7
	c0.1-0.3,0.2-0.6,0.1-0.9l-2.4-15.1C116.3,34.1,114.6,33.7,113.8,34.7z"/>
<path class="st4" d="M125.2,30.9l14.3,7.8c0.5,0.3,0.9,0.8,0.9,1.4l1.8,23.4c0.1,1.6-1.8,2.6-3,1.4l-10.8-10.1
	c-0.3-0.2-0.4-0.5-0.5-0.9l-5.2-21.2C122.3,31.4,123.9,30.2,125.2,30.9z"/>
</svg>
