<?xml version="1.0" encoding="utf-8"?>
<!-- Generator: Adobe Illustrator 26.0.3, SVG Export Plug-In . SVG Version: 6.00 Build 0)  -->
<svg version="1.1" id="Calque_1" xmlns="http://www.w3.org/2000/svg" xmlns:xlink="http://www.w3.org/1999/xlink" x="0px" y="0px"
	 viewBox="0 0 788 1005" style="enable-background:new 0 0 788 1005;" xml:space="preserve">
<style type="text/css">
	.st0{fill:#E0B9A0;}
	.st1{fill:#4C443F;}
	.st2{fill:#CCAA97;}
	.st3{fill:#3A3A3A;}
	.st4{fill:#161615;}
	.st5{fill:#5A5A5A;}
	.st6{fill:#3D3D3D;}
	.st7{fill:none;stroke:#9B9B9B;stroke-miterlimit:10;}
</style>
<path class="st0" d="M468.3,427.9c7.8,5.7,21.5,32.3,21.5,32.3l49.5,59c6.4,7.6,5.6,18.8-1.5,25.6l0,0c-7.4,7-19,6.8-26.2-0.6
	l-62.8-68.1l5.1-52.3C453.8,424,465.2,425.7,468.3,427.9z"/>
<path class="st1" d="M506.8,508.7c0.1-2.1,0.5-4.1,0.5-6.2c0-1.6-0.7-2.9-2.2-3.7c-1.4-0.8-2.5-0.5-3.1,0.8
	c-1.1,1.9-2.1,3.9-3.2,5.8c-1,1.7-2.2,3.3-3.9,4.3c-4.7,2.7-10.2,0.3-12.3-5c-1.3-3.4-0.3-7.1,2.8-9.7c1.6-1.4,3.5-2.4,5.2-3.8
	c1-0.8,1.8-1.6,2.5-2.6c0.6-0.8,0.8-2-0.1-2.8c-0.8-0.7-2-0.4-2.7,0.2c-1.2,1.1-2.3,2.3-3.4,3.6c-1.3,1.5-2.3,3.2-3.6,4.7
	c-3,3.3-8.5,3.4-11.5,0.3c-2.4-2.4-2.5-6.8,0-9.5c1.9-2.1,4.1-3.4,6.9-3.9c1.1-0.2,2.5,0,3.6,0.3c0.8,0.1,1.4,0.8,0.7,1.7
	c-0.7,1-1.5,2.2-2.5,2.9c-0.6,0.5-1.8,0.5-2.6,0.4c-1.4-0.1-2.9-0.6-3.9,1c-0.9,1.3-1.4,2.8-0.6,4.4c0.9,1.6,2.3,2.5,4.1,2.5
	c0.7,0,1.4-0.5,1.9-1c2.2-2.7,4.1-5.5,6.1-8.3c0.6-0.8,1.3-1.7,1.9-2.5c2.6-2.5,6.9-2.3,9.5,0.4c2.5,2.6,2.3,6.7-0.6,8.9
	c-0.9,0.7-2,1.1-3.2,1.5c-2.9,1.1-5.5,2.7-7.1,5.5c-0.9,1.8-1.1,3.5-0.4,5.4c1.4,3.8,6.9,4.1,8.8,1.1c1.2-1.9,2-4.2,3.2-6.2
	c0.7-1.3,1.5-2.7,2.6-3.7c2.5-2.3,6-1.6,7.4,1.6C509.3,501.3,508.6,505.1,506.8,508.7z M478.9,485.3c0-0.1,0-0.2,0.1-0.4
	c-0.4-0.1-0.8-0.1-1.2-0.2c0,0.1-0.1,0.3,0,0.4C478.1,485.2,478.5,485.2,478.9,485.3z"/>
<g>
	<path class="st1" d="M477.1,444c0-0.2-0.1-0.3-0.2-0.5c-0.5,0.5-0.4,1.1-0.2,1.6c0.5,2.3,1.6,4.2,2.7,6.2c0.8,1.5,1.6,2.9,2.4,4.4
		c0.5,1,0.4,1.4-0.2,2.1c0.2,0.6,0.6,1,0.7,1.6c0.1,0.4,0.1,0.9-0.2,1.1c-0.2,0.2-0.7,0.1-1,0.1c-0.3,0-0.6-0.3-0.8-0.4
		c-0.6-0.5-1.3-0.8-2.1-0.8c-0.4,0-1-0.4-1.3-0.8c-0.7-0.8-1.5-0.9-2.4-1.1c-0.9-0.1-1.9-0.3-2.6-0.8c-2.2-1.2-3-3.5-2.2-6
		c0.9-3,2.8-5.4,5.2-7.4c0.4-0.4,1-0.7,1.5-1.1c0.1-0.1,0.1-0.3,0.3-0.5c0.1-0.1,0.2-0.2,0.2-0.4c-0.1,0.2-0.1,0.4-0.2,0.6
		c0,0.1,0.2,0.2,0.2,0.2l0,0c0.1,0.6,0.2,1.2,0.5,1.7l0,0C477.2,443.9,477.2,443.9,477.1,444z M479.6,453.9c0.5-0.2,0.9-0.4,0.6-1
		c-1.2-2.3-2.5-4.6-3.7-7c0.1,0.1,0.1,0.2,0.1,0.3c0.3,2.2,0.8,4.3,1.9,6.4C478.6,453.2,478.9,453.8,479.6,453.9
		c-0.1,0-0.2,0-0.4,0.1c0.3,0.5,0.6,1.1,1,1.6c0.1,0.2,0.6,0.4,0.7,0.4c0.2-0.2,0.5-0.6,0.4-0.8c-0.1-0.5-0.4-0.9-0.4-1.1
		C480.2,454,479.9,454,479.6,453.9z M471.6,452.8c0.9-0.9,0.9-1.9,1-3c0.1-1.4,0.5-2.7,0.9-3.9c0.4-1,1.2-1.8,2.1-2.4
		c-0.1,0.2-0.1,0.3-0.3,0.5c-2,1.8-2.4,4.2-2.5,6.8c0,1.1,0.4,2,1.2,2.7c0.2-0.6,0.4-1,0.5-1.3c0.6,1,1.2,1.9,1.8,2.9
		c0.1,0,0.2,0,0.3-0.2c-0.2-0.8-0.3-1.7-0.4-2.5c-0.4-1.7-0.8-3.3-0.5-5c0.2-1.1,0.2-2.1,0.3-3.2c-1.4,2.3-2.1,4.7-1.4,7.4
		c-1.3-3.2,0.1-5.9,1.8-8.6c-0.5,0.1-0.9,0.1-1.2,0.3c-2.1,1.8-3.8,3.9-5,6.5c-0.1,0.1-0.1,0.3,0,0.4
		C470.7,451,471.2,451.9,471.6,452.8z M476.9,454.1c0,0.6,0.1,1.1,0.2,1.9c-0.9-1.1-1.7-2.1-2.4-3.2c-0.3,0.8-0.3,1.1,0.1,1.7
		c0.2,0.3,0.3,0.6,0.4,0.9c0.3,1.3,1.4,1.7,2.3,2.3c0.6,0.3,1.3,0.2,2,0.4C479.3,456.4,477.9,455.4,476.9,454.1z M476.2,447.2
		c-0.3,2.1,0.1,4.7,0.8,6.4c0.2,0.6,0.5,1.5,1.3,1.2c0.7-0.4,0.2-1.2-0.1-1.7c-0.4-1-0.9-2-1.4-3.1
		C476.7,449.1,476.5,448.2,476.2,447.2z M472.4,455.3c0-2-2-3.1-2.3-4.8C469,453.1,470,454.8,472.4,455.3z M479.1,454.4
		c-0.3,0.3-0.6,0.5-0.9,0.8c0,0,0.1,0.1,0.1,0.2c0.6,0.9,1.4,1.7,1.4,3c0,0.5,0.6,0.7,1.1,0.6s0.5-0.5,0.2-0.9
		C480.5,456.9,479.8,455.6,479.1,454.4z M474.8,455.9c0-1-0.9-2.6-2.2-3.9c-0.4,0.6-0.7,1.1-0.2,1.8c0.3,0.4,0.4,1.1,0.7,1.7
		C473.5,455.5,474.2,455.7,474.8,455.9z"/>
	<path class="st1" d="M482.6,450.2c-0.1,0.6,0,1.2-0.1,1.8c-0.1,0.6-0.5,0.8-1,0.4c-0.5-0.4-0.8-0.9-1.3-1.3c0.3,0,0.5,0.1,0.8,0.1
		c0-0.1,0.1-0.2,0.1-0.2c-0.3-0.1-0.7-0.1-1.3-0.2c0.1,0.2,0.3,0.3,0.3,0.3c-0.4-0.4-0.8-1-1.1-1.5c-0.4-0.9-0.8-1.8-1.1-2.7
		c-0.2-0.5-0.3-1-0.4-1.4c0.1,0,0.2,0,0.3-0.1c1.4,0.8,2.5,0.4,3.1-1.1c0.1,0,0.2-0.1,0.3-0.2c0.3,0.9,0.6,1.8,0.9,2.7
		c0.3,0.9,0.5,1.8,0.7,2.7C482.8,449.7,482.7,450,482.6,450.2c0-0.1,0-0.3,0.1-0.6c-0.3,0.5-0.6,0.7-0.8,1.1
		c0.1,0.1,0.1,0.1,0.2,0.2C482.3,450.7,482.5,450.5,482.6,450.2z M480.9,446.1c-0.1,0-0.1-0.1-0.2-0.1c-0.1,0.3-0.2,0.6-0.3,0.9
		c0.1,0,0.1,0.1,0.2,0.1C480.7,446.6,480.8,446.3,480.9,446.1z M479,446.6c-0.1,0-0.1,0.1-0.2,0.1c0.2,0.2,0.5,0.3,0.7,0.5
		c0.1-0.1,0.1-0.1,0.2-0.2C479.5,446.9,479.2,446.7,479,446.6z"/>
	<path class="st1" d="M480.9,444.2c-0.6,1.6-1.7,1.9-3.1,1.1c-0.1-0.5-0.3-1.1-0.4-1.5l0,0c0-0.6,0.2-1.3-0.5-1.7l0,0
		c0.2-0.2,0.3-0.6,0.4-0.8c0.1-0.2,0-0.4,0.1-0.7c-0.3,0.4-0.5,0.6-0.7,0.8c-0.1,0.1-0.2,0.2-0.2,0.4c-0.3-1-0.4-1.8,0.4-2.5
		c0.4-0.5,1.5-0.4,2.1,0.2c0.3,0.3,0.5,0.8,0.7,1.2c-0.1,0-0.2-0.1-0.4,0c-0.3,0-0.6-0.1-0.9-0.1c-0.1,0.1-0.1,0.3-0.2,0.5
		c0.5,0.1,1.1,0.3,1.5,0.4l0,0c-0.3,0.8,0.3,1.2,0.8,1.7l0,0C480.5,443.3,480.7,443.8,480.9,444.2z M479,444.4
		c0.6-1.5,0.4-2.6-0.7-3.2c-0.1-0.1-0.6,0-0.6,0.1c-0.1,0.4-0.3,1.1-0.1,1.5C478,443.3,478.5,443.8,479,444.4z M478.4,445.2
		c0-0.1,0.1-0.1,0.1-0.2c-0.2-0.1-0.3-0.1-0.6-0.2c0,0.1-0.1,0.1-0.1,0.2C477.9,445.1,478.2,445.1,478.4,445.2z"/>
	<path class="st1" d="M475.6,439c-0.3,0-0.7-0.1-1-0.1c0-0.1,0-0.1,0-0.2c0.3,0,0.7,0.1,1,0.1C475.6,438.9,475.6,438.9,475.6,439z"
		/>
	<path class="st1" d="M478.3,441.4c0.1,0.3,0.2,0.5,0.3,0.8l-0.2,0c-0.1-0.2-0.2-0.5-0.3-0.6C478.1,441.5,478.2,441.4,478.3,441.4z"
		/>
	<path class="st1" d="M478.7,443c0.1,0.3,0.2,0.5,0.3,0.8c-0.1,0-0.1,0-0.2,0c-0.1-0.2-0.3-0.4-0.3-0.6
		C478.5,443.1,478.6,443.1,478.7,443z"/>
</g>
<path class="st0" d="M465.8,459.5c0,0-0.1,3.9-9.3,10c-10.9,7.3-6.9,21.4-8.4,28.7c-1,4.9-9.9,17.3-13.7,16.6
	c-10.8-2-16.9-16.2-26.7-20.4c-5.7-2.4-8.2-4.7-13.7-2c-5.5-2.8-8-0.5-13.7,2c-9.8,4.2-15.8,18.5-26.7,20.4
	c-3.9,0.7-12.7-11.7-13.7-16.6c-1.5-7.3,2.5-21.4-8.4-28.7c-9.2-6.1-11.6-11-11.6-11c-7-17.1-6.1-26.7,3.9-29.7s29.4-7,38.6-10.1
	c4.7-1.6,8.5-3.4,10.6-5.8l1.6-37.3l18.3-0.6h2.2l14.3,0.5l4,0.1l0.7,15.7l0.6,12.9v0.5l0.4,8.2c0.4,0.5,0.9,0.9,1.5,1.3
	c2.7,2,6.8,3.2,11.6,4.2c6.5,1.3,30.5,8,37.8,9.4c3.1,0.6-2.8-0.9,0,0C475.8,430.6,472.8,442.4,465.8,459.5z"/>
<path class="st2" d="M416.5,414.1c-5.4,4.2-18.8,11.4-21.3,12.6c-8.2,3.9-28.3-5-32.8-8.1c4.7-1.6,8.5-3.4,10.6-5.8l1.6-37.3h38.8
	l1.2,28.5v0.5l0.4,8.2C415.4,413.2,415.9,413.7,416.5,414.1z"/>
<path class="st0" d="M344.6,448.5c-3.9,18.3-16.5,20.9-23.8,26.2c-11.6,8.3-35.4,42.4-45,52.6c-5.4,2.5-11.8,1.6-16.4-2.2l0,0
	c-9.8-9-2.7-20.2,1.2-25.3c7.9-10.2,26-29.2,32-40.5c4.5-8.4,7-17.5,21.2-25.2c0,0,14.1-8.6,24.1-2.5
	C344.5,435.4,346.2,441,344.6,448.5L344.6,448.5z"/>
<path class="st0" d="M275.9,524.3c11.6-9.8,4-19.8,0.5-25.6c-3.8-6.2-30-32.2-42.9-46.5c-7.3-8.1-10.9-12.5-15.7-8.7
	c-4.3,3.5,0.6,13.6,2.5,17.6c17.9,37.4,22.6,44.8,34,59.5C266.8,536.4,273,526.8,275.9,524.3z"/>
<path class="st3" d="M308.8,514.5c-3.6,2.2-8.1,1.6-11.1-1.3c-10.5-10.4-33-33.5-30-35.5c3.3-2.2,31.4-36.8,39.2-46.3
	c1.3-1.6,3-2.7,5-3.1l40.7-9.5c3.7-0.9,7.6,0.7,9.7,3.9l22.4,34.9c2.8,4.3,1.4,10-2.9,12.7L308.8,514.5z"/>
<path class="st3" d="M357.7,424.3c-0.3-0.4-3.8-5.3-3.6-5.7s67.4-3.1,68-3.1s4.8,12,3.3,12.5s-15.1,209.5-15.1,209.5
	s-54.4-3.6-54.6-3.1C338.7,670,357.7,424.3,357.7,424.3z"/>
<path class="st3" d="M470.5,511.4c3.5,2,8,1.4,10.9-1.4c10.4-10.3,33.2-33.6,30.2-35.7c-3.3-2.2-31.4-36.8-39.2-46.3
	c-1.3-1.6-3-2.6-5-3.1l-40.5-9.6c-3.8-0.9-7.8,0.8-9.9,4.2l-22.7,37.9c-2.6,4.4-1.1,10,3.3,12.5L470.5,511.4z"/>
<path class="st4" d="M351.2,420.5l35.1,46c1.2,1.6,1.2,3.8-0.1,5.3l-9.2,11.4c-0.5,0.7-0.9,1.5-0.9,2.4c-0.5,5.9-2.3,30.6-3.2,52.3
	c-0.2,4.8-3.5,73.4-1.7,77.3c3.7,8.1,9.9,15.4,13.1,18.8c1.2,1.3,1.5,3.2,0.7,4.8c-1.6,3.3-5,7.4-16.2,17.8
	c-6.8,6.3-14.5,11.8-23.8,9.3l-29-7.7c-1.9-0.5-3.3-2.3-3.2-4.3c5-140.3,5-139.8,4.9-144.7c0-3.9,6.1-67.4,7.5-82.3
	c0.2-1.8,1.5-3.4,3.3-3.8l18.4-4.2C348.4,418.5,350.2,419.2,351.2,420.5z"/>
<path class="st4" d="M432.3,419.5l-50.2,65.8c-0.5,0.7-0.8,1.5-0.9,2.4c-0.7,13.3-6.8,123-4.5,129.8c1.7,5.1,24.1,29,37,42.4
	c5.7,5.7,13.9,8,21.5,5.9c0.1,0,0.2-0.1,0.4-0.1l36.2-12.7c1.8-0.6,3-2.4,2.9-4.3c-1.4-21-9-136.5-9-140.5c0-3.9-6.1-67.4-7.5-82.3
	c-0.2-1.9-1.5-3.4-3.3-3.8l-18.2-4.1C435.1,417.5,433.3,418.2,432.3,419.5z"/>
<ellipse class="st5" cx="389.7" cy="501.5" rx="3.6" ry="3.4"/>
<ellipse class="st3" cx="388.3" cy="537.1" rx="3.6" ry="3.4"/>
<ellipse class="st3" cx="386.9" cy="571.6" rx="3.6" ry="3.4"/>
<path class="st0" d="M229.5,450.5c0.5-0.3,1-0.7,1.4-1.1c1.5-2.5,6.3-10.3,6.5-12c0.2-2,0-10.9,0.5-12.4c0.5-1.6,5.4-9.9,4.4-10.3
	c-0.6-0.2-2.2-0.7-3.5-1.1c-1.2-0.4-2.5,0.1-3.2,1.1l-3.3,4.3c-0.2,0.4-0.5,0.8-0.6,1.2l-0.8,3.8c-0.4,1.7-2.6,1.9-3.2,0.4l-0.3-2.6
	c-0.1-0.2-3.5-4.8-3.5-5c-1.6-2-6.4,0.4-6.4,0.4c-0.1-0.1-4,2-5.4,2.9c-0.4,0.2-0.7,0.5-1,0.7l-3,2c-2.6,1.7-4.6,4.2-5.6,7.1
	c-0.5,1.4-0.6,2.6,0,3.2c0.2,0.2,0.3,0.4,0.4,0.6l9.7,18.6c0.3,0.6,0.9,1.1,1.4,1.4l3.2,1.6c0.8,0.3,1.7,0.4,2.5,0L229.5,450.5z"/>
<path class="st5" d="M232.8,417.8c-1.4-1.2-2.7-2.3-4.1-3.5c-0.2,0.2-0.7,0.7-1.1,1.1c-0.7-0.8-1.3-1.4-2-2.1c0.4-0.5,1-1.1,1.5-1.7
	c-0.8-1.1-2.5-1.9-1.1-3.3c1.4-1.4,2.3,0.3,3.4,1c0.6-0.6,1.2-1.2,1.9-1.9c0.6,0.7,1.2,1.4,1.9,2.1c-0.3,0.4-0.7,0.9-1.3,1.7
	c1.2,1.1,2.3,2.6,3.7,3.1c1.2,0.4,2.2,0.7,3,1.6c0.1,0.1,0.1,0.1,0.2,0.2c0.1,0.7-1.8,1.4,0.1,2.1c0.4-0.5,0.8-1,1.3-1.5
	c-1.1-2.3-1-2.9,0.9-4.9c2.4-2.6,4.9-5.1,7.3-7.7c1.7-1.7,2.4-1.8,4.6-0.8c0.5-0.5,0.9-1,1.7-1.9c-1.3-1.1-2.5-2-3.6-2.9
	c-0.9-0.8-2.3-1.7-1-3c1.2-1.3,2.1,0.1,2.9,0.8c0.2,0.2,0.4,0.4,0.6,0.6c0.7,0.5,1.2,0.5,1.8-0.3c2.3-3.4,5.4-3.5,7.9-0.3
	c0.3,0.4,0.9,0.6,1.4,0.7c0.7,0.1,1.4,0,2.1,0c0,1,0.1,1.9,0.1,2.9c-0.6,0.1-1.1,0.2-1.7,0.2c-0.9,0-1.5,0.2-2.1,1.1
	c-0.7,0.9-1.7,1.5-2.5,2.2c2.6,2.5,5.5,5.2,8.4,8c1.4-1.5,2.4-0.3,3.5,0.8c1,0.9,1.3,1.9,0.2,3c0.3,0.4,0.6,0.8,0.9,1.2
	c-1,0.8-1.4,2.3-3.2,1.7c-0.3-0.1-1,0.5-1.4,0.8c-4.3,4.4-8.5,8.9-12.7,13.4c-0.5,0.5-0.4,1.5-0.8,2.2c-0.4,0.9-1,1.7-1.4,2.5
	c-6.2-5.9-12.1-11.7-18.2-17.4c-0.3,0.2-0.5,0.2-0.8,0.4c0.1,0.5-0.1,1.1,0.2,1.4c1.6,2,1.6,3.2-0.2,5.1c-3.9,4.1-7.8,8.3-11.8,12.4
	c-1.8,1.9-3.2,2-5.1,0.2c-1.1-1-2.1-2-3.1-2.9c-1.9-1.8-2-3.3-0.2-5.1c3.9-4.2,7.9-8.4,11.9-12.5c1.7-1.7,3-1.8,4.9-0.3
	c0.2,0.2,0.5,0.4,0.8,0.5C232.6,418,232.7,417.8,232.8,417.8z M254.9,405.1c1.2,2.1,1.1,3-0.5,4.7c-2.4,2.6-4.8,5-7.2,7.6
	c-1.4,1.6-2.9,2.6-4.8,1.2c-0.7,0.5-1.2,0.9-1.7,1.3c2,1.9,3.8,3.6,5.6,5.3c0.5-0.4,1.1-0.8,1.6-1.3c-1.2-2-1.1-2.9,0.3-4.4
	c2.6-2.7,5.1-5.4,7.7-8.1c1.7-1.8,2.5-2,4.7-0.9c0.5-0.5,0.9-0.9,1.2-1.2c-2-1.8-3.8-3.6-5.5-5.3C256,404.3,255.4,404.7,254.9,405.1
	z M264.4,411.2c-0.6,0.5-1.2,0.9-1.7,1.3c1.2,2.1,1.1,2.9-0.4,4.5c-2.4,2.6-4.8,5-7.2,7.6c-1.4,1.6-2.9,2.7-5.1,1.2
	c-0.5,0.6-1,1.1-1.3,1.4c1.1,1.1,2.1,2,3.1,2.9c5.1-5.4,10.3-10.9,15.4-16.3C266.4,413.1,265.4,412.1,264.4,411.2z M259.3,400.5
	c0.8-1,1.5-1.6,1.5-2.1s-0.9-1.4-1.4-1.4c-0.5,0-1.4,0.8-1.4,1.4C257.9,398.8,258.7,399.4,259.3,400.5z"/>
<path class="st5" d="M206.9,446.4c2.8-3,5.7-6.1,8.4-9c1.2,1.2,2.5,2.4,3.7,3.5c-2.7,2.9-5.7,5.9-8.6,9
	C209.4,448.8,208.2,447.6,206.9,446.4z"/>
<path class="st6" d="M199.3,457.5c2.1-2.8,4.3-5.7,6.5-8.7c0.9,0.8,1.5,1.3,2.6,2.2c-2.9,2.5-5.6,4.8-8.4,7.2
	C199.7,457.9,199.5,457.7,199.3,457.5z"/>
<path class="st0" d="M226.8,429.8l-10.7,6.6c-2.9,1.8-6.9,0.9-8.7-2l0,0c-1.8-2.9-0.9-6.9,2-8.7l14.3-9.1l4.7,6.6
	C229.7,425.5,229,428.5,226.8,429.8z"/>
<g>
	<path class="st5" d="M494.7,474.9l-69.1,17.9c-2.3,0.6-3.9,2.7-3.8,5.1l3.7,96.7c0.1,3.4,3.4,5.7,6.6,4.7l59.5-18.8
		c2-0.6,3.4-2.4,3.5-4.5l5.9-95.8C501.2,476.7,498,474.1,494.7,474.9z"/>
	<g>
		<path class="st7" d="M428.6,492.1c0-1.9,1.5-3.4,3.4-3.4s3.4,1.5,3.4,3.4s-1.5,3.4-3.4,3.4"/>
		<path class="st7" d="M450,486.6c0-1.9,1.5-3.4,3.4-3.4s3.4,1.5,3.4,3.4s-1.5,3.4-3.4,3.4"/>
		<path class="st7" d="M439.3,489.1c0-1.9,1.5-3.4,3.4-3.4s3.4,1.5,3.4,3.4s-1.5,3.4-3.4,3.4"/>
		<path class="st7" d="M461.8,483.7c0-1.9,1.5-3.4,3.4-3.4s3.4,1.5,3.4,3.4s-1.5,3.4-3.4,3.4"/>
		<path class="st7" d="M483.2,478.1c0-1.9,1.5-3.4,3.4-3.4s3.4,1.5,3.4,3.4s-1.5,3.4-3.4,3.4"/>
		<path class="st7" d="M472.5,480.7c0-1.9,1.5-3.4,3.4-3.4s3.4,1.5,3.4,3.4s-1.5,3.4-3.4,3.4"/>
	</g>
</g>
<path class="st0" d="M425.5,576.8l-3.7-19.2c-0.4-1.9,3.4-4.8,5-5.7l3.6-2.1c0.8-0.5,1.4-1.1,1.8-2l0.3-0.7c0.7-1.6,2.4-2.6,4.1-2.5
	l11.8,4.6c0.7,0,9.6-0.4,10.2-0.7l58.9-29.2l9.5-4.2c0.3-0.1,0.5-0.2,0.8-0.3c3.6-0.8,3.1,0,1.6,1.9c-3,3.7,1.3,8.8,5.4,6.5l0.7-0.4
	c2.2-1.2,5-0.3,6,2c5.3,12.6-3,26.6-12.2,28.9L457,570.2c-0.4,0.1-0.8,0.2-1.2,0.4l-10.8,6c-0.4,0.2-0.7,0.3-1.1,0.4l-6.2,1.4
	c-0.1,0-0.3,0.1-0.4,0.1l-6.1,1.5C429.1,580.4,426,579,425.5,576.8z"/>
<path class="st1" d="M470.7,555.7c-0.3,1.3-1.5,1.1-2.4,1.5c-0.5,0.3-1.1,0.4-1.7,0.6c-0.5,0.1-0.6,0.5-0.5,0.9
	c0,0.1,0.1,0.2,0.1,0.3c-0.1,0.3-0.1,0.6-0.3,0.9c0,0.1-0.5,0-0.5,0c-0.1-0.3,0-0.6,0-1.1c-0.3-0.3-0.6-0.3-1,0.2
	c-0.2,0.2-0.4,0.4-0.6,0.5c-2,0.6-4,1-6.1,0.9c-0.3,0-0.5-0.1-0.9-0.2c0.5-0.5,0.7-0.9,1.2-1.2c1.5-0.9,3.1-1.7,4.7-2.6
	c0.2-0.1,0.6-0.1,0.9,0c0.6,0.1,0.8-0.1,0.9-0.5c-0.3-0.4-0.5-0.6-0.7-0.8c0,0,0.2-0.4,0.3-0.4c0.3,0.1,0.5,0.2,0.8,0.3
	c0,0,0,0.1,0.1,0.1c-0.2-0.1-0.4-0.1-0.6-0.2c0.2,0.4,0.4,0.7,0.7,1.1c0-0.3,0-0.6-0.1-0.9c0.6,1,0.6,0.9,1.7,0.5
	c0.5-0.2,1.1-0.4,1.6-0.5c0,0.2,0,0.4-0.1,0.7c0.4-0.1,0.6-0.2,0.9-0.2c0-0.1,0-0.1,0-0.2c-0.3-0.1-0.6-0.2-0.9-0.3
	c0.4-0.1,0.8-0.3,1.3-0.4c0,0.2,0,0.4-0.1,0.6c0.1,0,0.3-0.1,0.4-0.1c-0.1-0.2-0.2-0.4-0.4-0.5c0.4-0.1,0.8-0.2,1.1-0.4
	c0.5-0.4,1,0,1.5,0.1c0.1,0,0.2,0.5,0.2,0.7c0,0.3-0.2,0.6-0.3,0.9C471.5,555.9,470.9,556.8,470.7,555.7c0.2-0.1,0.5-0.3,0.5-0.3
	c-0.1-0.3-0.3-0.5-0.4-0.7c-0.1,0-0.2,0.1-0.3,0.1C470.6,555.1,470.7,555.4,470.7,555.7z M463.6,557.8c0.3,0.1,0.4,0.2,0.7,0.4
	c-0.8,0.4-1.7,0.2-2.2,1.1c-1-0.4-2.6-0.2-4.2,0.7c1.3,0.3,2.5,0,3.7-0.1c1.3-0.2,2.3-0.8,3.2-1.7c-0.2-0.1-0.4-0.3-0.6-0.4
	c0.1-0.3,0.1-0.5,0.2-0.7c-2.6-0.4-4.5,0.9-6.3,2.6c1.3-0.5,2.9-0.4,3.5-1.9c0.9,0.4,1.6-0.4,2.5-0.4
	C463.8,557.4,463.7,557.6,463.6,557.8z M465.5,557.1c0.5,0.2,0.9,0.5,1.2,0c0.1-0.2-0.1-0.6-0.3-0.7
	C465.9,556.1,465.8,556.7,465.5,557.1z M469.3,556.3c0-0.1-0.1-0.1-0.1-0.2c-0.2,0.1-0.5,0.3-0.8,0.5
	C469.1,557,469.2,556.5,469.3,556.3z M465.9,559.6c0.1,0,0.2,0,0.3,0c-0.1-0.4-0.1-0.8-0.2-1.2h-0.1
	C465.8,558.8,465.9,559.2,465.9,559.6z M470.3,556c-0.2,0-0.4-0.1-0.5,0c-0.1,0-0.1,0.2-0.1,0.3c0.1,0,0.3,0.2,0.4,0.1
	C470.2,556.4,470.2,556.2,470.3,556z M467.9,556.1c0-0.1,0.1-0.2,0.1-0.3c-0.2-0.1-0.4-0.1-0.7-0.2c0,0.1,0,0.2-0.1,0.2
	C467.4,556,467.6,556.1,467.9,556.1z M468.2,556.6c-0.1,0-0.1-0.1-0.2-0.1c-0.1,0.2-0.3,0.4-0.4,0.6c0.1,0,0.1,0.1,0.2,0.1
	C467.9,557,468.1,556.8,468.2,556.6z"/>
<g>
	<path class="st1" d="M535.2,542.2c-1.9-4.3-3.8-8.5-5.7-12.8c0.3-0.1,0.6-0.3,0.9-0.4c2.1,4.2,5.1,7.9,6.2,12.5
		C536.2,541.7,535.7,541.9,535.2,542.2z"/>
	<path class="st1" d="M524.6,540.9c3.4,0.8,6.8,1.5,10.3,2.3c-0.1,0.5-0.3,1-0.4,1.6c-3.4-0.9-6.8-1.9-10.1-2.8
		C524.4,541.6,524.5,541.3,524.6,540.9z"/>
	<path class="st1" d="M539.1,533.3c0.1,2.1,0.2,4.2,0.3,6.3c-0.4,0-0.8,0.1-1.2,0.1c-0.1-2.1-0.2-4.2-0.4-6.4
		C538.3,533.3,538.7,533.3,539.1,533.3z"/>
	<path class="st1" d="M535.9,546.6c-0.9,1.3-1.8,2.6-2.7,3.9c-0.3-0.2-0.6-0.4-0.9-0.6c0.9-1.3,1.8-2.6,2.7-3.9
		C535.3,546.2,535.6,546.4,535.9,546.6z"/>
</g>
<g>
	<path class="st1" d="M483.5,555c-0.6,0.1-0.8,0.6-1.1,1c-0.2,0.3-0.5,0.7-0.8,0.8c-0.7,0.3-1.5,0.4-1.6,1.4
		c-0.4-0.7-0.3-1.1,0.4-1.6c0.6-0.4,1-0.8,1.2-1.5c0.1-0.4,0.2-0.8,0.3-1.3c-1.5,0.4-3,0.8-4.5,1.1c0-0.1-0.1-0.2-0.1-0.3
		c1.4-0.7,2.7-1.4,4.1-2.2c-0.4-0.3-0.8-0.5-1.2-0.8c-0.5-0.4-1.1-0.4-1.8-0.3c-0.8,0.1-1.1-0.1-1.4-0.9c0.9,0.7,1.5,0.2,2.3-0.1
		c0.3-0.1,0.7,0,1.1,0.1c0.4,0.1,0.9,0.1,1.3,0.2c0-0.1,0-0.2,0.1-0.2c-1.4-0.8-2.9-1.7-4.3-2.5c0-0.1,0.1-0.2,0.1-0.3
		c1.6,0.5,3.2,1,4.8,1.5c0-0.6-0.4-0.8-0.8-1c-0.6-0.3-1-0.7-1.1-1.3c-0.1-0.7-0.6-1-1.2-1.3c0.6-0.4,1-0.2,1.5,0.4
		c0.3,0.4,0.7,0.7,1.2,1.1c0.2,0.1,0.5,0.1,0.7,0.2c0.3,0.1,0.6,0.2,0.9,0.3c-0.4-1.5-0.8-3-1.1-4.5c0.1,0,0.2-0.1,0.3-0.1
		c0.7,1.4,1.4,2.7,2.2,4.1c0.6-1,1.4-1.8,1.1-3.1c-0.2-0.7,0.1-1,0.9-1.2c-0.5,0.8-0.2,1.4,0.1,2.1c0.1,0.3,0,0.8,0,1.2
		c-0.1,0.5-0.3,0.9,0,1.4c0.9-1.5,1.7-2.9,2.6-4.4c0.1,0,0.2,0.1,0.3,0.1c-0.5,1.6-1,3.2-1.5,4.8c0.5,0,0.8-0.4,1-0.8
		c0.3-0.7,0.8-0.9,1.4-1.1c0.5-0.2,0.9-0.6,1.3-0.9c0.2,0.4,0.1,0.7-0.5,1.3c-0.4,0.4-0.9,0.9-1.2,1.4c-0.2,0.4-0.3,0.9-0.4,1.5
		c1.5-0.4,3-0.8,4.5-1.1c0,0.1,0.1,0.2,0.1,0.3c-1.4,0.7-2.7,1.4-4.1,2.2c0.4,0.3,0.7,0.5,1.1,0.8c0.6,0.4,1.2,0.4,1.8,0.3
		c0.8-0.1,1.1,0.1,1.4,0.7c-0.4,0-0.8-0.2-1.2-0.1c-0.4,0.1-0.7,0.4-1.1,0.4c-0.3,0.1-0.7,0-1-0.1c-0.5-0.1-0.9-0.4-1.4,0
		c1.5,0.9,2.9,1.7,4.3,2.6c0,0.1-0.1,0.2-0.1,0.3c-1.6-0.5-3.2-1-4.8-1.5c0,0.5,0.1,0.7,0.7,0.9c0.7,0.3,1,0.8,1.2,1.5
		c0.2,0.5,0.6,0.9,0.9,1.3c-0.2,0.2-0.4,0.2-0.8,0c-0.2-0.2-0.5-0.4-0.6-0.7c-0.4-0.6-1-1-1.7-1.1c-0.3-0.1-0.7-0.2-1-0.3
		c0.4,1.5,0.8,3,1.2,4.5c-0.1,0-0.2,0.1-0.2,0.1c-0.7-1.4-1.4-2.7-2.2-4.1c-0.3,0.4-0.7,0.8-0.8,1.3c-0.2,0.5-0.2,1.1-0.2,1.6
		c0,0.8-0.1,1.2-0.8,1.4c0.1-0.4,0.2-0.8,0.1-1.2c0-0.4-0.4-0.7-0.4-1.1c-0.1-0.3,0-0.7,0.1-1c0.1-0.5,0.4-0.9,0-1.5
		c-0.9,1.5-1.7,2.9-2.6,4.4c-0.1,0-0.2-0.1-0.3-0.1C482.5,558.2,483,556.6,483.5,555z M484.4,549c-0.6-0.6-0.8-0.6-1.3,0
		c-1.2,1.3-1.3,3.2-0.3,4.6c1.2,1.7,2.8,1.9,4.4,1.4c1.8-0.6,2.8-2.5,2.4-4.2c-0.4-1.9-2.1-3.2-3.9-3c-0.6,0-1.2,0.1-1.7,0.6
		C484.1,548.6,484.2,548.8,484.4,549z M493.1,551.9c-1.3,0.4-2.1-1-3.3-1.1c0,0.5,0,1,0,1.3c0.6,0.1,1.1,0.1,1.6,0.3
		C492.1,552.6,492.6,552.3,493.1,551.9z M483.7,548c-1-0.7-2.6-0.4-3.1-1.8c0.1,0.9,0.4,1.6,1.3,1.9c0.3,0.1,0.6,0.5,0.8,0.8
		C483,548.6,483.3,548.4,483.7,548z M491,546.3c-0.7,0-1.2,0.2-1.6,0.9c-0.2,0.4-0.6,0.8-1,1.2c0.2,0.3,0.5,0.6,0.9,1
		C490.1,548.4,489.7,546.9,491,546.3z M481.8,550.9c-0.5-0.1-1.1-0.1-1.5-0.2c-0.7-0.3-1.2-0.1-1.8,0.4c1.4-0.4,2.1,1,3.3,1.1
		C481.8,551.7,481.8,551.3,481.8,550.9z M485.3,555.5c0,0.4,0.1,0.9-0.1,1.2c-0.4,0.8-0.2,1.5,0.4,2.3c-0.2-1.1,0.1-1.8,0.7-2.6
		c0.2-0.2,0.3-0.6,0.4-1C486.1,555.5,485.6,555.5,485.3,555.5z M486.2,543.9c0.2,1-0.1,1.8-0.7,2.5c-0.2,0.3-0.3,0.7-0.4,1
		c0.6,0,1,0,1.4,0c0-0.4-0.1-0.8,0.1-1.2C486.9,545.5,486.8,544.8,486.2,543.9z M480.7,556.7c0.7-0.1,1.2-0.2,1.6-0.9
		c0.2-0.4,0.6-0.8,1-1.2c-0.2-0.3-0.6-0.6-0.9-1C481.6,554.6,481.9,556.1,480.7,556.7z M489,554.1c-0.3,0.3-0.6,0.6-1,0.9
		c0.9,0.7,2.5,0.4,3.1,1.8c-0.3-1-0.1-1.4-1.3-1.9C489.5,554.8,489.3,554.4,489,554.1z M478.7,548.2c0,0.1,0,0.1-0.1,0.2
		c1.1,0.6,2.2,1.2,3.3,1.8c0-0.1,0.1-0.1,0.1-0.2c-0.4-0.2-0.7-0.4-1.1-0.6c0,0,0-0.1,0.1-0.1c0.4,0.1,0.8,0.3,1.2,0.4
		c0-0.1,0-0.1,0.1-0.2C481.1,549,479.9,548.6,478.7,548.2z M483.8,556.3h-0.1c0.1-0.4,0.2-0.8,0.4-1.2c-0.1,0-0.2,0-0.3-0.1
		c-0.4,1.2-0.8,2.4-1.2,3.6c0.1,0,0.1,0,0.2,0.1c0.6-1.1,1.2-2.2,1.8-3.3c-0.1,0-0.1-0.1-0.2-0.1C484.2,555.6,484,556,483.8,556.3z
		 M482,552.8c0-0.1-0.1-0.1-0.1-0.2c-1.1,0.6-2.3,1.1-3.4,1.7c0,0.1,0,0.1,0.1,0.2c1.2-0.3,2.4-0.7,3.7-1c0-0.1,0-0.2-0.1-0.2
		c-0.5,0.1-1.1,0.3-1.6,0.4l0,0C481,553.3,481.5,553,482,552.8z M489.5,549.6c0,0.1,0,0.2,0.1,0.2c0.6-0.2,1.1-0.3,1.7-0.5l0,0
		c-0.5,0.3-1,0.5-1.5,0.8c0,0.1,0.1,0.1,0.1,0.2c1.1-0.6,2.3-1.1,3.4-1.7c0-0.1,0-0.1-0.1-0.2C491.9,549,490.7,549.3,489.5,549.6z
		 M488,546.6h0.1c-0.1,0.4-0.3,0.8-0.4,1.2c0.1,0,0.1,0,0.2,0.1c0.4-1.2,0.8-2.3,1.2-3.5c-0.1,0-0.1,0-0.2-0.1
		c-0.6,1.1-1.2,2.2-1.8,3.3c0.1,0,0.1,0.1,0.2,0.1C487.6,547.4,487.8,547,488,546.6z M489.4,553.3c0,0.1,0,0.2-0.1,0.2
		c1.2,0.4,2.4,0.8,3.6,1.2c0-0.1,0-0.1,0.1-0.2c-1.1-0.6-2.2-1.2-3.3-1.8c0,0.1-0.1,0.1-0.1,0.2c0.4,0.2,0.7,0.4,1.1,0.6v0.1
		C490.3,553.5,489.9,553.4,489.4,553.3z M483.2,544.2c-0.1,0-0.1,0.1-0.2,0.1c0.3,1.2,0.7,2.3,1,3.5c0.1,0,0.1,0,0.2-0.1
		c-0.1-0.5-0.2-0.9-0.4-1.4h0.1c0.2,0.4,0.4,0.9,0.6,1.3c0.1,0,0.1-0.1,0.2-0.1C484.3,546.4,483.7,545.3,483.2,544.2z M487.7,555.2
		c-0.1,0-0.1,0-0.2,0.1c0.1,0.5,0.3,0.9,0.4,1.4h-0.1c-0.2-0.4-0.5-0.9-0.7-1.3c-0.1,0-0.1,0.1-0.2,0.1c0.5,1.1,1.1,2.2,1.6,3.3
		c0.1,0,0.1,0,0.2-0.1C488.4,557.5,488,556.3,487.7,555.2z"/>
	<path class="st1" d="M486.4,552.5c0-0.1,0.1-0.3,0.2-0.4c0.3,0.1,0.4,0.1,0.3,0.5c-0.1,0.3-0.1,0.8,0.5,0.9c0.1,0,0.1,0.2,0.2,0.3
		l-0.1,0.2c-0.1,0-0.3-0.1-0.3-0.1C486.9,553.4,486.7,553,486.4,552.5z"/>
	<path class="st1" d="M486.3,550.5c-0.7-0.1-0.7-0.1-0.7-0.7c0-0.2-0.2-0.5-0.2-0.7c0-0.1,0-0.3,0.1-0.4h0.2c0,0.1-0.1,0.2,0,0.3
		c0,0.3,0.1,0.5,0.2,0.8C485.9,550.1,486.1,550.2,486.3,550.5z"/>
	<path class="st1" d="M487.4,549.3c0.2,0,0.3,0,0.4,0c-0.1,0.1-0.2,0.2-0.2,0.3c0.2,0.1,0.4,0.2,0.5,0.3c-0.1,0.1-0.2,0.2-0.3,0.3
		C487.7,549.9,487.6,549.6,487.4,549.3z"/>
	<path class="st1" d="M486.5,550.7c0.1-0.3,0.2-0.7,0.3-1c0.1,0,0.1,0,0.2,0.1c-0.1,0.3-0.3,0.6-0.4,1
		C486.6,550.7,486.6,550.7,486.5,550.7z"/>
	<path class="st1" d="M483.9,549.3c-0.2-0.2-0.3-0.3-0.5-0.5c0.2,0,0.3,0,0.5,0.1C483.9,549,483.9,549.2,483.9,549.3z"/>
	<path class="st1" d="M487.1,551.6c0.3,0.1,0.5,0.3,0.8,0.4c0,0.1-0.1,0.1-0.1,0.2c-0.3-0.1-0.5-0.3-0.8-0.4
		C487.1,551.7,487.1,551.6,487.1,551.6z"/>
	<path class="st1" d="M483.6,551.5c0.2,0.5,0.4,0.9,0.5,1.4C483.9,552.4,483.8,552,483.6,551.5z"/>
	<path class="st1" d="M488.5,552.2c-0.1-0.2-0.1-0.4-0.2-0.5l0,0c0.1,0.1,0.3,0.1,0.4,0.2C488.7,551.9,488.6,552,488.5,552.2z"/>
	<path class="st1" d="M488.2,551.3c0.1-0.1,0.3-0.1,0.4-0.2c0,0.1,0,0.1,0.1,0.2c-0.1,0.1-0.3,0.1-0.4,0.2
		C488.2,551.4,488.2,551.3,488.2,551.3z"/>
	<path class="st1" d="M484.8,551.7c0-0.1,0-0.3,0-0.4h0.1c0,0.1,0.1,0.2,0.1,0.4C484.9,551.7,484.8,551.7,484.8,551.7z"/>
	<path class="st1" d="M485.2,552.4c-0.1-0.1-0.2-0.2-0.3-0.3l0.1-0.1C485.1,552.1,485.2,552.2,485.2,552.4
		C485.2,552.3,485.2,552.4,485.2,552.4z"/>
</g>
</svg>
