<?xml version="1.0" encoding="utf-8"?>
<!-- Generator: Adobe Illustrator 26.0.3, SVG Export Plug-In . SVG Version: 6.00 Build 0)  -->
<svg version="1.1" id="Calque_1" xmlns="http://www.w3.org/2000/svg" xmlns:xlink="http://www.w3.org/1999/xlink" x="0px" y="0px"
	 viewBox="0 0 788 1005" style="enable-background:new 0 0 788 1005;" xml:space="preserve">
<style type="text/css">
	.st0{fill:#E0B9A0;}
	.st1{fill:#CCAA97;}
	.st2{fill:#9CCBF2;}
	.st3{fill:#587CC6;}
	.st4{fill:#4D6FAA;}
	.st5{fill:#DCE8EF;}
</style>
<path class="st0" d="M465.8,459.5c0,0-4.1,5-13.4,11.1c-10.9,7.3-2.8,20.3-4.3,27.6c-1,4.9-9.9,17.3-13.7,16.6
	c-10.8-2-16.9-16.2-26.7-20.4c-5.7-2.4-8.2-4.7-13.7-2c-5.5-2.8-8-0.5-13.7,2c-9.8,4.2-15.8,18.5-26.7,20.4
	c-3.9,0.7-12.7-11.7-13.7-16.6c-1.5-7.3,2.5-21.4-8.4-28.7c-9.2-6.1-11.6-11-11.6-11c-7-17.1,1-27.3,10.9-30.3s22.4-6.5,31.6-9.6
	c4.7-1.6,8.5-3.4,10.6-5.8l1.6-37.3l18.3-0.6h2.2l14.3,0.5l4,0.1l0.7,15.7l0.6,12.9v0.5l0.4,8.2c0.4,0.5,0.9,0.9,1.5,1.3
	c2.7,2,6.8,3.2,11.6,4.2c6.5,1.3,15.9,6.5,23.1,7.8c3.1,0.6-2.8-0.9,0,0C461.1,429.1,472.8,442.4,465.8,459.5z"/>
<path class="st1" d="M416.5,414.1c-5.4,4.2-18.8,11.4-21.3,12.6c-8.2,3.9-28.3-5-32.8-8.1c4.7-1.6,8.5-3.4,10.6-5.8l1.6-37.3h38.8
	l1.2,28.5v0.5l0.4,8.2C415.4,413.2,415.9,413.7,416.5,414.1z"/>
<path class="st0" d="M443.3,442.3c3.2,12.9,10.9,21.9,17.8,25.5c10.9,5.6,29.6,21.9,38.5,28.9c4.2,3.3,18.1,15.1,31.5,3.4v-8.7
	c-1.9-4.2-2.9-6.2-6.5-9.7c-7.3-7-26.1-25.4-31.5-33.3c-4.1-5.9-6.2-12.3-19.7-17.4c-25-10.7-27.5,0.9-23.2-1.1
	C443.8,432.9,441.9,436.9,443.3,442.3L443.3,442.3z"/>
<path class="st0" d="M503.4,487c8.7-11,14.1-5.7,18.3-5.8c4.5-0.1,48.9,12.4,61,15.5c6.8,1.7,10.5,2.4,10.8,8
	c0.3,5.1-6.5,6.3-9.1,6.8c-24.8,4.7-51.7,1.6-70.8-6.8C500.9,499.2,501,490,503.4,487z"/>
<path class="st2" d="M609.4,491.7c2.8,1.3,6.2,2.7,8.7,3.7c2.3,0.9,3.1,3.8,1.6,5.8c-0.6,0.8-1.2,1.4-1.6,1.6
	c-0.8,0.3-3.6-0.7-5.6-1.4c-1.2-0.5-2.6-0.3-3.6,0.5l0,0c-1.6,1.2-1.9,3.5-0.7,5.1c1.5,2.2,2.7,4,5.3,6.9c2.9,3.1,10.5,7.4,14.1,8.5
	c1.9,0.6,5.9-0.5,7.7,0.8c0.3,0.2,0.6,0.6,0.9,1.1c1.5,2.3,0,5.3-2.7,5.7l-4,0.5c-0.5,0.1-1,0-1.4-0.1c-3-0.8-14.6-3.9-18.8-5.4
	c-5.2-2-15.4-7.5-19.9-11.7c-2.7-2.2-4.3-5.3-4.5-8.8c-0.2-4.1,2.3-6.1,4-7.3c2.1-1.4,14-4.7,18-5.7
	C607.8,491.3,608.6,491.4,609.4,491.7z"/>
<path class="st0" d="M352.1,442.4c-3.3,12.9-10.9,21.9-17.8,25.5c-10.9,5.6-29.6,21.9-38.5,28.9c-4.2,3.3-18.1,15.1-31.5,3.4
	l-2.1-8.8c1.9-4.2,4.2-2.8,7.8-6.3c7.3-7,26.9-28.7,32.4-36.5c4.1-5.9,6.2-12.3,19.7-17.4c0,0,13.3-5.7,23.2-1.1
	C351.6,433,353.4,437,352.1,442.4L352.1,442.4z"/>
<path class="st0" d="M291.9,487.1c-8.7-11-14.1-5.7-18.3-5.8c-4.5-0.1-48.9,12.5-61,15.5c-6.8,1.7-10.5,2.4-10.7,8
	c-0.3,5.1,6.5,6.3,9.1,6.8c24.8,4.7,51.7,1.6,70.8-6.8C294.4,499.3,294.3,490.1,291.9,487.1z"/>
<path class="st2" d="M187.1,491.3c-3.1,1.5-6.9,3-9.8,4.2c-2.3,0.9-3.1,3.8-1.6,5.8c0.6,0.8,1.2,1.4,1.7,1.6
	c0.8,0.3,3.6-0.7,5.6-1.4c1.2-0.5,2.6-0.3,3.6,0.5l0,0c1.6,1.2,1.9,3.5,0.7,5.1c-1.5,2.2-2.7,4-5.4,6.9c-2.9,3.1-10.5,7.4-14.1,8.5
	c-1.9,0.6-5.9-0.5-7.7,0.8c-0.3,0.2-0.6,0.6-0.9,1.1c-1.4,2.3,0,5.3,2.7,5.7l4,0.5c0.5,0.1,1,0,1.4-0.1c3-0.8,14.6-3.9,18.8-5.4
	c5.1-2,15.4-7.5,19.9-11.7c2.6-2.2,4.3-5.3,4.5-8.8c0.2-4.1-2.3-6.1-4-7.3C204,495.6,187.3,491.2,187.1,491.3z"/>
<g>
	<path class="st3" d="M451.7,509.1h0.5l2-1.7c2.5-2.1,3.2-5.1,1.8-7.7c-1.6-3.2-3.7-7.2-3.7-8.3c0.2-14.5,0.3-4.8,0.3-6
		c0-1.8,12.8-59.8,14.3-64.6c0.1-0.3-0.2-0.6-0.6-0.8l-43.4-8.6c-5-1.6-11,0-13.4,3.5l-7.9,11.4c-3.8,5.5-14.6,5.6-18.5,0.2L374,414
		c-2.5-3.5-8.3-5-13.3-3.5l-46.1,9.5c0,0,0,0,0,0.1l14.9,61.3c0.3,0.7,0.5,1.5,0.5,2.3l0.4,6.7c0,0.8-0.2,1.5-0.4,2.3l-3.4,8.3
		c-0.8,1.8-0.5,3.9,0.7,5.5l0,0c0.9,1.2,1.2,2.5,1.1,3.9c-0.2,2.3-0.5,5.9-0.8,8.5l-7.7,60.2c-0.3,3.5,2.5,6.6,7.1,7.7l23.3,3.2
		c21.2,3.3,43.3,3.4,64.5,0.2c13.6-2,42.6-4.2,50.3-5.5c4.9-0.8,1.4-15.4,1.2-19.1l-10.9-46.1C455.1,515.6,453.8,512,451.7,509.1z"
		/>
	<polygon class="st4" points="460.1,536.1 462.7,575.5 426.3,581.8 418.5,577 416.6,534.3 460.4,528.1 	"/>
	<ellipse class="st2" cx="344.2" cy="507.1" rx="5.5" ry="5.5"/>
	<circle class="st5" cx="344.3" cy="507.1" r="4.5"/>
	<g>
		<path class="st5" d="M344.4,507.1c0.3,6.5,0.7,13.1,0.8,19.6c0.3,4.9,0.5,9.8-0.4,14.6c-0.3,1.6-0.6,3.2-1.1,4.9h-0.3
			c-1.6-6.5-1.5-13.1-0.8-19.6c0.4-6.5,0.9-13,1.6-19.5C344.1,507.1,344.4,507.1,344.4,507.1L344.4,507.1z"/>
	</g>
	<g>
		<path class="st5" d="M359,501.5c0.3,6.5,0.7,13.1,0.8,19.6c0.3,4.9,0.5,9.8-0.4,14.6c-0.3,1.6-0.6,3.2-1.1,4.9H358
			c-1.6-6.5-1.5-13.1-0.8-19.6c0.4-6.5,0.9-13,1.6-19.5C358.6,501.5,359,501.5,359,501.5L359,501.5z"/>
	</g>
	<polygon class="st4" points="324.9,536.2 322.3,575.6 358.6,581.8 366.5,576.9 368.4,534.4 324.7,528.1 	"/>
	<g>
		<path class="st5" d="M358.6,505.9c-0.1-2.5-0.3-5.8-0.3-7.9c-0.9-4.3,2-6.9,6.2-5.6c1.8,0.5,2.3,1.9,1.6,3.7
			c-0.3,0.6-0.4,1.1-0.6,1.6h-0.2c-0.4-1,0.2-2.5-0.3-3.3c-0.3-0.5-1.6-0.6-2.5-0.6c-2.5-0.3-3.3,1.8-3.1,4
			c-0.2,2.6-0.4,5.3-0.6,8.1C358.8,505.9,358.6,505.9,358.6,505.9L358.6,505.9z"/>
	</g>
</g>
</svg>
