<svg xmlns="http://www.w3.org/2000/svg" xmlns:xlink="http://www.w3.org/1999/xlink" viewBox="0 0 788 1005"><defs><style>.cls-1{fill:none;}.cls-2{clip-path:url(#clip-path);}.cls-3{fill:#b8775c;}.cls-4{clip-path:url(#clip-path-2);}.cls-5{fill:#d48f72;}.cls-6{fill:#b87051;}.cls-7{clip-path:url(#clip-path-3);}.cls-8{fill:#6b3a25;}.cls-9{clip-path:url(#clip-path-4);}.cls-10{fill:#713d25;}</style><clipPath id="clip-path"><polygon class="cls-1" points="432.58 97.17 432.58 97.17 449.58 97.17 449.58 131.08 432.58 131.08 432.58 97.17"/></clipPath><clipPath id="clip-path-2"><polygon class="cls-1" points="361.15 97.17 361.15 97.17 344.15 97.17 344.15 131.08 361.15 131.08 361.15 97.17"/></clipPath><clipPath id="clip-path-3"><polygon class="cls-1" points="434.83 102.23 434.83 102.23 445.04 102.23 445.04 115.67 434.83 115.67 434.83 102.23"/></clipPath><clipPath id="clip-path-4"><polygon class="cls-1" points="357.62 102.23 357.62 102.23 347.41 102.23 347.41 115.67 357.62 115.67 357.62 102.23"/></clipPath></defs><g id="Calque_5" data-name="Calque 5"><g class="cls-2"><path class="cls-3" d="M432.58,130.11l3-28.25s6.56-7.83,12.25-3.25c3.78,3,.87,30.22-3.5,31.5C436.85,132.29,432.58,130.11,432.58,130.11Z"/></g><g class="cls-4"><path class="cls-3" d="M361.15,130.11l-3-28.25S351.58,94,345.9,98.61c-3.79,3-.87,30.22,3.5,31.5C356.88,132.29,361.15,130.11,361.15,130.11Z"/></g><path class="cls-5" d="M396,170.42c-2.54,0-9.86-1.25-9.86-1.25l-22.64-18.5-5.5-27-1.5-24.19V93.09a38.93,38.93,0,0,1,38.92-38.92h1.43a38.92,38.92,0,0,1,38.92,38.92v6.35l-1.5,24.19-5.5,27-22.63,18.5A101.92,101.92,0,0,1,396,170.42Z"/><path class="cls-6" d="M396,170.42c-2.54,0-9.86-1.25-9.86-1.25l-22.64-18.5-5.5-27,4.5,4.81,5.5,13.15,11.92-7.92,17.35,4.26,19.08-3.76,9.92,6.92,6-14.15,2-3.31-5.5,27-22.63,18.5A101.92,101.92,0,0,1,396,170.42Z"/><g class="cls-7"><path class="cls-8" d="M435.09,110.08c0-.24.63-1.57,4.76-5.14a12.26,12.26,0,0,1,4.74-2.71,2.18,2.18,0,0,1,.42,1.83c-.11.82-3.71,2.8-4.83,3.87a48.38,48.38,0,0,0-5.35,7.74Z"/></g><g class="cls-9"><path class="cls-8" d="M357.36,110.08c0-.24-.63-1.57-4.76-5.14a12.26,12.26,0,0,0-4.74-2.71,2.18,2.18,0,0,0-.42,1.83c.11.82,3.72,2.8,4.84,3.87a48.84,48.84,0,0,1,5.34,7.74Z"/></g></g><g id="Calque_6" data-name="Calque 6"><path class="cls-10" d="M375.62,66.05s-.94,8.77-3.94,13C367.17,85.5,361.4,87.55,359,91c-2.12,3-2.54,13.83-2.54,13.83s-5.3-8.89-5.48-12.12c-.14-2.33,2.95-9,2.95-9l-5.63,3.09s-.67-7.62.16-10.07c.75-2.21,5.19-7.2,5.19-7.2l-4.29.18s4.93-9.1,12.31-11C364.16,58,372,59.76,372,59.76s1.84-10.41,23.92-11.24c26-1,41.64,12.84,41.64,12.84L432,63.3a14,14,0,0,1,9.39,7.79c1.62,3.69,3.64,14.67,3.64,14.67l-4.73-2.33a27.21,27.21,0,0,1-.48,16.67c-.68,1.89-4.87,9.52-4.87,9.52s0-11.1-4.36-19.67a35.31,35.31,0,0,0-7.16-9.16l-1,5.08s-8.93-12-24.86-12C391.63,73.82,375.62,66.05,375.62,66.05Z"/></g></svg>