<?xml version="1.0" encoding="utf-8"?>
<!-- Generator: Adobe Illustrator 26.0.0, SVG Export Plug-In . SVG Version: 6.00 Build 0)  -->
<svg version="1.1" id="Calque_1" xmlns="http://www.w3.org/2000/svg" xmlns:xlink="http://www.w3.org/1999/xlink" x="0px" y="0px"
	 viewBox="0 0 200 200" style="enable-background:new 0 0 200 200;" xml:space="preserve">
<style type="text/css">
	.st0{fill:#2F1E17;}
	.st1{fill:#3F281F;}
	.st2{fill:#B9785C;}
	.st3{fill:#D68F72;}
</style>
<g id="Calque_9">
	<path class="st0" d="M119.8,180.9c0,0,44.4-26.3,41.9-38.6S150,49.8,142.5,50.9s-26.6,94.6-23.3,112.4L119.8,180.9z"/>
	<path class="st1" d="M77.9,184.1c0,0-22.8,2.3-29.7-5.1s-14-81,2.5-118.1C65,28.6,73.5,145.4,78.4,163.1L77.9,184.1z"/>
</g>
<g id="Calque_10">
	<path class="st2" d="M133.7,139.7l6.6-24.8c0,0,7.9-8.1,13.6-2.5c3.8,3.8-5.1,29-10,30C135.7,144.2,133.7,139.7,133.7,139.7z"/>
	<path class="st2" d="M65.8,139.4l-8.1-24.5c0,0-7.9-8.1-13.6-2.5c-3.8,3.8,5.1,29,10,30C62.3,144.2,65.8,139.4,65.8,139.4z"/>
	<path class="st3" d="M142.2,96.8c0,46-27.4,79-43.3,79c-15.8,0-43.3-33-43.3-79c0-34.4,19.4-45.6,43.3-45.6
		C122.8,51.2,142.2,62.4,142.2,96.8z"/>
	<path class="st1" d="M42.8,94.9c-0.7,4.1,12.9,18,12.9,18c-0.2-38.7,34.8-39.7,25.4-57.1c-3.8-7-18.3-13.3-24.1-7.5
		S45.3,80.7,42.8,94.9z"/>
	<path class="st1" d="M145,90.6c-7.5-0.8-69.9-28.3-71.6-42.4s41.9-7.4,41.9-7.4s30.3,3.8,32.4,14.9c1.2,6.1,3,12.9,2.9,18.8
		C150.5,80.3,148.5,86,145,90.6z"/>
	<path class="st1" d="M109.2,75.6c2,0.7,51.2,24.1,55.4,30.1s-1,32.7-1,32.7s17.2-24.5,12.9-38s-22-11-27.7-35.4
		C147.2,58,109.2,75.6,109.2,75.6z"/>
</g>
</svg>
