<?xml version="1.0" encoding="utf-8"?>
<!-- Generator: Adobe Illustrator 26.0.0, SVG Export Plug-In . SVG Version: 6.00 Build 0)  -->
<svg version="1.1" id="Calque_1" xmlns="http://www.w3.org/2000/svg" xmlns:xlink="http://www.w3.org/1999/xlink" x="0px" y="0px"
	 viewBox="0 0 200 200" style="enable-background:new 0 0 200 200;" xml:space="preserve">
<style type="text/css">
	.st0{fill:#D68F72;}
	.st1{fill:#B9785C;}
	.st2{clip-path:url(#SVGID_00000105427643582447960390000013369581208933882496_);}
	.st3{fill:#955A40;}
	.st4{clip-path:url(#SVGID_00000122707839752690968020000001352583831706489525_);}
	.st5{fill:#543529;}
</style>
<g id="Calque_10">
	<path class="st0" d="M96.6,52.3c23.9,0,43.3,11.2,43.3,45.6c0,46-27.4,79-43.3,79V52.3z"/>
	<path class="st1" d="M131.4,140.8L138,116c0,0,7.9-8.1,13.6-2.5c3.8,3.8-5.1,29-10,30C133.3,145.2,131.4,140.8,131.4,140.8z"/>
	<path class="st1" d="M63.4,140.5L55.3,116c0,0-7.9-8.1-13.6-2.5c-3.8,3.8,5.1,29,10,30C60,145.2,63.4,140.5,63.4,140.5z"/>
	<path class="st0" d="M96.6,52.3c-23.9,0-43.3,11.2-43.3,45.6c0,46,27.4,79,43.3,79V52.3z"/>
	<g>
		<defs>
			<polygon id="SVGID_1_" points="137.2,121 137.2,121 148.7,121 148.7,134.9 137.2,134.9 			"/>
		</defs>
		<clipPath id="SVGID_00000108287046719983555800000014852540434697484440_">
			<use xlink:href="#SVGID_1_"  style="overflow:visible;"/>
		</clipPath>
		<g style="clip-path:url(#SVGID_00000108287046719983555800000014852540434697484440_);">
			<path class="st3" d="M137.5,129.1c0-0.2,0.7-1.6,5.3-5.3c1.5-1.3,3.4-2.3,5.3-2.8c0.4,0.5,0.6,1.2,0.5,1.9
				c-0.1,0.8-4.2,2.9-5.4,4c-1.9,1.7-6,7.8-6,8L137.5,129.1z"/>
		</g>
	</g>
	<g>
		<defs>
			<polygon id="SVGID_00000152259228386765567630000017534472259026475700_" points="59.8,121 59.8,121 48.4,121 48.4,134.9 
				59.8,134.9 			"/>
		</defs>
		<clipPath id="SVGID_00000182494934016942891790000002910795388528538043_">
			<use xlink:href="#SVGID_00000152259228386765567630000017534472259026475700_"  style="overflow:visible;"/>
		</clipPath>
		<g style="clip-path:url(#SVGID_00000182494934016942891790000002910795388528538043_);">
			<path class="st3" d="M59.5,129.1c0-0.2-0.7-1.6-5.3-5.3c-1.5-1.3-3.4-2.3-5.3-2.8c-0.4,0.5-0.6,1.2-0.5,1.9
				c0.1,0.8,4.2,2.9,5.4,4c1.9,1.7,6,7.8,6,8L59.5,129.1z"/>
		</g>
	</g>
	<path class="st5" d="M55.3,116c0,0-41.5-53.6,27.7-70.8c0,0-37.8-33.9,12.7-33.9c51.6,0,15.6,32.4,12.9,33c0,0,66.5,27.5,29.4,71.6
		c0,0-1.4-40.3-8.8-43.5c-0.4,3.3-0.6,6.7-0.6,10c-10.7,2.2-21.6,3.2-32.5,3C84.1,85.3,72,84.1,60.1,82v-9.7
		C50.8,78.9,55.3,116,55.3,116z"/>
</g>
</svg>
