<?xml version="1.0" encoding="utf-8"?>
<!-- Generator: Adobe Illustrator 26.0.0, SVG Export Plug-In . SVG Version: 6.00 Build 0)  -->
<svg version="1.1" id="Calque_1" xmlns="http://www.w3.org/2000/svg" xmlns:xlink="http://www.w3.org/1999/xlink" x="0px" y="0px"
	 viewBox="0 0 200 200" style="enable-background:new 0 0 200 200;" xml:space="preserve">
<style type="text/css">
	.st0{fill:#B9785C;}
	.st1{fill:#D68F72;}
	.st2{fill:#3F281F;}
</style>
<g id="Calque_10">
	<path class="st0" d="M133.2,139.3l8.1-24.5c0,0,7.9-8.1,13.6-2.5c3.8,3.8-5.1,29-10,30C136.7,144,133.2,139.3,133.2,139.3z"/>
	<path class="st0" d="M66.8,139.3l-8.1-24.5c0,0-7.9-8.1-13.6-2.5c-3.8,3.8,5.1,29,10,30C63.3,144,66.8,139.3,66.8,139.3z"/>
	<path class="st1" d="M143.2,96.7c0,46-27.4,79-43.3,79c-15.8,0-43.3-33-43.3-79c0-34.4,19.3-45.6,43.3-45.6
		C123.8,51.1,143.2,62.3,143.2,96.7z"/>
	<path class="st2" d="M58.7,114.8l2.9-22.5l17.9-7.9l10.1-24.1l26,3.7l12.3-3.7l-6.3,7.4l16.8,16.3l2.9,30.9c0,0,5.4-2.6,6.7-4.5
		s12.6-36.7,12.6-36.7l-17.4-19.2h-6.5L125.3,33l-47-8L25.2,69.9L45,112.3l7.2-0.4L58.7,114.8z"/>
	<polygon class="st2" points="47.4,51.1 25.2,69.9 23.1,92.3 27.8,92.3 33.3,80.8 38.5,69.9 55.5,59.7 	"/>
	<polygon class="st2" points="50.1,71.7 35.5,88.3 33.6,101.6 39.1,105.7 39.1,95.8 50.1,85.8 	"/>
</g>
</svg>
