<?xml version="1.0" encoding="utf-8"?>
<!-- Generator: Adobe Illustrator 26.0.0, SVG Export Plug-In . SVG Version: 6.00 Build 0)  -->
<svg version="1.1" id="Calque_1" xmlns="http://www.w3.org/2000/svg" xmlns:xlink="http://www.w3.org/1999/xlink" x="0px" y="0px"
	 viewBox="0 0 200 200" style="enable-background:new 0 0 200 200;" xml:space="preserve">
<style type="text/css">
	.st0{fill:#3F281F;}
	.st1{fill:#B9785C;}
	.st2{fill:#D68F72;}
</style>
<g id="Calque_10">
	<path class="st0" d="M40.9,100.7c1,2.2-13.2,31.7-16.5,43.7c-6.9,25.3,27.9,50.7,27.9,50.7c17.6-4.4,26.6-8.6,26.6-8.6l1.3-35.5
		c0,0-22.6-38.1-22.2-40.4S40.9,100.7,40.9,100.7z"/>
	<path class="st1" d="M133.2,138.7l8.1-24.5c0,0,7.9-8.1,13.6-2.5c3.8,3.8-5.1,29-10,30C136.7,143.5,133.2,138.7,133.2,138.7z"/>
	<path class="st1" d="M66.8,138.7l-8.1-24.5c0,0-7.9-8.1-13.7-2.5c-3.8,3.8,5.1,29,10,30C63.3,143.5,66.8,138.7,66.8,138.7z"/>
	<path class="st2" d="M143.2,96.1c0,46-27.4,79-43.3,79c-15.8,0-43.3-33-43.3-79c0-34.4,19.4-45.6,43.3-45.6
		C123.8,50.5,143.2,61.7,143.2,96.1z"/>
	<path class="st0" d="M45,111.7c4.1-6.6,13.6,2.5,13.6,2.5S54,82.1,99.6,74.3c26.6-4.6,17.3-29.3,10.6-30.2s-18.8,1.2-24.1,2.2
		c-3.7,0.7-14.8,2.2-22.3,8.8s-14.9,19.8-22.9,46.5"/>
	<path class="st0" d="M164.5,148.7c-19.9-30.2-21.2-95.9-30.8-98.6c-13.8-3.9-18.3,4.2-18.3,4.2l-5,11.6c0,0,25.8,4.2,25.8,22.5
		s15,46.6,5,55.8"/>
	<path class="st0" d="M134.5,139.5c0,0,5.6,4,8.7,0.7c3.8-4,1-24.5,3.5-20c4.5,8.1,13.8,24.1,17.7,28.6c8.6,9.9-10.7,49.1-21.3,45.5
		s-19.6-1.7-22.2-7.8c-2-4.9-0.8-23.8-0.8-23.8s5-5.7,7.7-10.8C129.6,148.7,134.5,139.5,134.5,139.5z"/>
</g>
</svg>
