<?xml version="1.0" encoding="utf-8"?>
<!-- Generator: Adobe Illustrator 26.0.0, SVG Export Plug-In . SVG Version: 6.00 Build 0)  -->
<svg version="1.1" id="Calque_1" xmlns="http://www.w3.org/2000/svg" xmlns:xlink="http://www.w3.org/1999/xlink" x="0px" y="0px"
	 viewBox="0 0 788 1005" style="enable-background:new 0 0 788 1005;" xml:space="preserve">
<style type="text/css">
	.st0{fill:#2F1E17;}
	.st1{fill:#D68F72;}
	.st2{fill:#B9785C;}
	.st3{fill:#3F281F;}
</style>
<g id="Calque_10">
	<path class="st0" d="M375.1,245c8.8,17.6,17.7,36.6,17.7,36.6s-7.7,5.2-25.4,5.2s-27.4-33.7-29.7-35.2l2-3.8l4.6-23l36.5-48.2
		l10.4-2.9c0,0,13.9,23.2-3,52.8C384.5,233.1,380.1,239.3,375.1,245z"/>
	<path class="st1" d="M392.9,180.9c23.9,0,43.3,11.2,43.3,45.6c0,46-27.4,79-43.3,79"/>
	<path class="st2" d="M427.7,269.3l6.6-24.8c0,0,7.9-8.1,13.6-2.5c3.8,3.8-5.1,29-10,30C429.7,273.8,427.7,269.3,427.7,269.3z"/>
	<path class="st2" d="M359.8,269l-8.1-24.5c0,0-7.9-8.1-13.7-2.5c-3.8,3.8,5.1,29,10,30C356.3,273.8,359.8,269,359.8,269z"/>
	<path class="st1" d="M392.9,180.9c-23.9,0-43.3,11.2-43.3,45.6c0,46,27.5,79,43.3,79"/>
	<path class="st3" d="M401,181.2c-0.1,1.6,15,3.9-19,22.9c-40.3,22.5-46.1,68.9-20.7,81.2c0,0-58.2-23-25.4-57
		c26.7-27.7,9.3-43.3,48.5-60.3C414.6,154.9,401,181.2,401,181.2z"/>
	<path class="st3" d="M419.7,165.9c8.2,2.3,22.4,10.4,25.2,36.4c1.5,13.5,24.6,42.6-12,47.6c0,0,6-13.4-8-43.8
		c-11.2-24.4-28.8,6.5-24.8-24.9C402.3,164.6,413.5,164.2,419.7,165.9z"/>
</g>
</svg>
