<svg xmlns="http://www.w3.org/2000/svg" viewBox="0 0 788 1005"><defs><style>.cls-1{fill:#d68f72;}.cls-2{fill:#b9785c;}.cls-3{fill:#e1b386;}.cls-4{fill:#b89471;}</style></defs><g id="Calque_10" data-name="Calque 10"><path class="cls-1" d="M392.94,180.85c23.91,0,43.28,11.19,43.28,45.61,0,46-27.44,79-43.28,79"/><path class="cls-2" d="M427.73,269.3l6.61-24.79s7.88-8.13,13.62-2.49c3.82,3.75-5.09,29-10,30C429.66,273.78,427.73,269.3,427.73,269.3Z"/><path class="cls-2" d="M359.8,269l-8.14-24.5S343.78,236.38,338,242c-3.82,3.75,5.09,29,10,30C356.34,273.78,359.8,269,359.8,269Z"/><path class="cls-1" d="M392.94,180.85c-23.9,0-43.28,11.19-43.28,45.61,0,46,27.45,79,43.28,79"/><path class="cls-1" d="M368.87,175.22c-.35-.71,21.9-9.9,21.9-9.9l4.31-.72,1.57.59s8.82,2.35,9.32,4.72,2,14.83,2,14.83l-7.71,1.58L394,184.06s-8.08,0-9.68-.69S368.87,175.22,368.87,175.22Z"/><path class="cls-3" d="M393.83,182.64a13.63,13.63,0,0,1-1,1.47c-8.63,11.21-38.23,19.17-41.17,31.85-3.07,13.22,1.55,26.66,1.55,26.66s-5.59-3.79-6-3.92S323.39,188.4,368,168.28c20.06-9,25.79-3.2,25.79-3.2a1.64,1.64,0,0,0,.26.57C395.31,167.59,400.16,171.82,393.83,182.64Z"/><path class="cls-4" d="M438.91,240.08c-.38.14-5.52,3.93-5.52,3.93s4.24-13.45,1.42-26.67S402.59,196.06,396,184.11a14.34,14.34,0,0,0,.92-1.47c5.83-10.82,1.36-15,.24-17,2.43-1.22,8.88-2.68,22.55,4C460.86,189.79,439.29,239.94,438.91,240.08Z"/></g></svg>