<?xml version="1.0" encoding="utf-8"?>
<!-- Generator: Adobe Illustrator 26.0.0, SVG Export Plug-In . SVG Version: 6.00 Build 0)  -->
<svg version="1.1" id="Calque_1" xmlns="http://www.w3.org/2000/svg" xmlns:xlink="http://www.w3.org/1999/xlink" x="0px" y="0px"
	 viewBox="0 0 200 200" style="enable-background:new 0 0 200 200;" xml:space="preserve">
<style type="text/css">
	.st0{fill:#3F281F;}
	.st1{fill:#B9785C;}
	.st2{fill:#D68F72;}
	.st3{clip-path:url(#SVGID_00000106147095843294757780000016059128240453097908_);}
	.st4{fill:#6E4031;}
	.st5{clip-path:url(#SVGID_00000038377355344766321060000003781077515872899972_);}
	.st6{fill:#543529;}
</style>
<g id="Calque_10">
	<path class="st0" d="M136.2,54.7c0,0,30.6,21.2,26.2,65.5c-3.7,37.1-42.4,67-42.4,67l-2.9-21.5l15-26.2l2.2-66.9L136.2,54.7z"/>
	<path class="st1" d="M133.7,139.7l6.6-24.8c0,0,7.9-8.1,13.6-2.5c3.8,3.8-5.1,29-10,30C135.7,144.2,133.7,139.7,133.7,139.7z"/>
	<path class="st1" d="M65.8,139.4l-8.1-24.5c0,0-7.9-8.1-13.6-2.5c-3.8,3.8,5.1,29,10,30C62.3,144.2,65.8,139.4,65.8,139.4z"/>
	<path class="st2" d="M142.2,96.8c0,46-27.4,79-43.3,79c-15.8,0-43.3-33-43.3-79c0-34.4,19.4-45.6,43.3-45.6
		C122.8,51.2,142.2,62.4,142.2,96.8z"/>
	<g>
		<defs>
			<polygon id="SVGID_1_" points="136.4,118.9 136.4,118.9 147.9,118.9 147.9,132.8 136.4,132.8 			"/>
		</defs>
		<clipPath id="SVGID_00000044179378241227285330000011251722299924539554_">
			<use xlink:href="#SVGID_1_"  style="overflow:visible;"/>
		</clipPath>
		<g style="clip-path:url(#SVGID_00000044179378241227285330000011251722299924539554_);">
			<path class="st4" d="M136.7,127c0-0.2,0.7-1.6,5.3-5.3c1.5-1.3,3.4-2.3,5.3-2.8c0.4,0.5,0.6,1.2,0.5,1.9c-0.1,0.8-4.2,2.9-5.4,4
				c-1.9,1.7-6,7.8-6,8L136.7,127z"/>
		</g>
	</g>
	<g>
		<defs>
			<polygon id="SVGID_00000097462956972863574760000018249198780957641876_" points="59,118.9 59,118.9 47.6,118.9 47.6,132.8 
				59,132.8 			"/>
		</defs>
		<clipPath id="SVGID_00000129902003676232181060000011505031324590224037_">
			<use xlink:href="#SVGID_00000097462956972863574760000018249198780957641876_"  style="overflow:visible;"/>
		</clipPath>
		<g style="clip-path:url(#SVGID_00000129902003676232181060000011505031324590224037_);">
			<path class="st4" d="M58.7,127c0-0.2-0.7-1.6-5.3-5.3c-1.5-1.3-3.4-2.3-5.3-2.8c-0.4,0.5-0.6,1.2-0.5,1.9c0.1,0.8,4.2,2.9,5.4,4
				c1.9,1.7,6,7.8,6,8L58.7,127z"/>
		</g>
	</g>
	<path class="st6" d="M57,114.4l-6.8-3.9c0,0-7-12.1-6.9-24c0-15.1,28.2-41.1,44-43.8c4.3-0.7,8.7,0.4,12.1,3.2
		c0,0,18.2-0.6,23.6,1.6c24.8,10,29.8,26.4,29,37.4c-0.9,12.6-2.8,25.4-2.8,25.4l-8.9,4.5l-4.1-21.2L124,85.2c0,0-6.5-10.4-6.2-10.4
		s2.3,9.3,2.3,9.3s-10.9,0.6-13.8-1.2c-2.1-1.3-5-8.4-5-8.4s-8.8,7.2-11.9,8.9c-3.5,2-11.1,2.6-11.1,2.6l1.3-12.1l-9.9,12.6l-11,8.5
		L57,114.4z"/>
	<path class="st6" d="M99.4,45.9c0,0,15.8-7.4,24.9-1.6s31.2,19.8,37.6,46.4c4.4,18.4,3,34.2-4.5,48.6c0,0-17.4-0.8-17.1-24.4
		c0.4-31.5-22.5-40.1-22.5-40.1L99.4,45.9z"/>
	<path class="st6" d="M128.1,180.1c-0.8,0.6,28.3-32.8,25-54.3s2.3-23.7,2.9-23.2s7.2,20.5,7.2,20.8S156,158,128.1,180.1z"/>
</g>
</svg>
