<?xml version="1.0" encoding="utf-8"?>
<!-- Generator: Adobe Illustrator 26.0.0, SVG Export Plug-In . SVG Version: 6.00 Build 0)  -->
<svg version="1.1" id="Calque_1" xmlns="http://www.w3.org/2000/svg" xmlns:xlink="http://www.w3.org/1999/xlink" x="0px" y="0px"
	 viewBox="0 0 200 200" style="enable-background:new 0 0 200 200;" xml:space="preserve">
<style type="text/css">
	.st0{fill:#3F281F;}
	.st1{fill:#B9785C;}
	.st2{fill:#D68F72;}
	.st3{fill:#543529;}
</style>
<g id="Calque_10">
	<path class="st0" d="M81.1,115.4C89.9,133,98.8,152,98.8,152s-7.7,5.2-25.4,5.2S46,123.6,43.7,122l2-3.8l4.6-23L86.8,47l10.4-2.9
		c0,0,13.9,23.2-3,52.7C90.6,103.5,86.1,109.7,81.1,115.4z"/>
	<path class="st1" d="M133.7,139.7l6.6-24.8c0,0,7.9-8.1,13.6-2.5c3.8,3.8-5.1,29-10,30C135.7,144.2,133.7,139.7,133.7,139.7z"/>
	<path class="st1" d="M65.8,139.4l-8.1-24.5c0,0-7.9-8.1-13.6-2.5c-3.8,3.8,5.1,29,10,30C62.3,144.2,65.8,139.4,65.8,139.4z"/>
	<path class="st2" d="M142.2,96.8c0,46-27.4,79-43.3,79c-15.8,0-43.3-33-43.3-79c0-34.4,19.4-45.6,43.3-45.6
		C122.8,51.2,142.2,62.4,142.2,96.8z"/>
	<path class="st3" d="M107,51.6c-0.1,1.6,15,3.9-19,22.9C47.8,97,51.6,135.9,68.3,156.3c0,0-59.2-23.6-26.3-57.6
		c26.7-27.7,7.3-49,48.5-60.3C122.1,29.7,107,51.6,107,51.6z"/>
	<path class="st3" d="M125.7,36.3c8.2,2.3,22.4,10.4,25.2,36.4c1.4,13.5,24.6,42.6-12,47.6c0,0,6.1-13.4-8-43.8
		c-11.2-24.4-28.8,6.4-24.8-24.9C108.3,35,119.5,34.6,125.7,36.3z"/>
</g>
</svg>
