<?xml version="1.0" encoding="utf-8"?>
<!-- Generator: Adobe Illustrator 26.0.1, SVG Export Plug-In . SVG Version: 6.00 Build 0)  -->
<svg version="1.1" id="Calque_1" xmlns="http://www.w3.org/2000/svg" xmlns:xlink="http://www.w3.org/1999/xlink" x="0px" y="0px"
	 viewBox="0 0 788 1005.1" style="enable-background:new 0 0 788 1005.1;" xml:space="preserve">
<style type="text/css">
	.st0{clip-path:url(#SVGID_00000061430377979014548050000006613952569287660202_);}
	.st1{fill:#FFFFFF;}
	.st2{clip-path:url(#SVGID_00000183929248106505436780000010067576577370779792_);}
	.st3{clip-path:url(#SVGID_00000058586652547289256690000004169592983521723066_);}
	.st4{fill:#090909;}
	.st5{clip-path:url(#SVGID_00000053511470486419292730000015414559142579245235_);}
	.st6{fill:#936170;}
	.st7{fill:#B85D40;}
	.st8{fill:#D8D5D4;}
	.st9{fill:none;stroke:#141414;stroke-width:2;stroke-miterlimit:10;}
	.st10{clip-path:url(#SVGID_00000019652777259503781910000014395180739612892308_);}
	.st11{fill:#1E1E1E;}
	.st12{clip-path:url(#SVGID_00000107560650030176344590000011134704887670343591_);}
</style>
<g id="Calque_3">
	<path d="M387.7,132.8c-0.9,0.1-1.9-0.2-2.7-0.7c-0.3-0.4,0.3-1.6,0.7-2c0.2-0.1,3.2-2.2,10.7-0.4c3.6,0.8,7.1,2.6,6.8,3.5
		C403,133.5,397,130.9,387.7,132.8z"/>
	<path d="M364,132.8c0.9,0.1,1.9-0.2,2.7-0.7c0.3-0.4-0.3-1.6-0.7-2c-0.2-0.1-3.2-2.2-10.7-0.4c-3.6,0.8-7.1,2.6-6.8,3.5
		C348.7,133.5,354.7,130.9,364,132.8z"/>
	<g>
		<defs>
			<polygon id="SVGID_1_" points="386.6,140.4 386.6,140.4 399.4,140.4 399.4,152.6 386.6,152.6 			"/>
		</defs>
		<clipPath id="SVGID_00000124143856786258901280000004692519335690584971_">
			<use xlink:href="#SVGID_1_"  style="overflow:visible;"/>
		</clipPath>
		<g style="clip-path:url(#SVGID_00000124143856786258901280000004692519335690584971_);">
			<ellipse class="st1" cx="393" cy="146.5" rx="6.4" ry="6.1"/>
		</g>
	</g>
	<g>
		<defs>
			<polygon id="SVGID_00000117639082018858056420000001647464440974048140_" points="365.1,140.4 365.1,140.4 352.3,140.4 
				352.3,152.6 365.1,152.6 			"/>
		</defs>
		<clipPath id="SVGID_00000115493970422670544990000012642550144608194969_">
			<use xlink:href="#SVGID_00000117639082018858056420000001647464440974048140_"  style="overflow:visible;"/>
		</clipPath>
		<g style="clip-path:url(#SVGID_00000115493970422670544990000012642550144608194969_);">
			<ellipse class="st1" cx="358.7" cy="146.5" rx="6.4" ry="6.1"/>
		</g>
	</g>
	<g>
		<defs>
			<polygon id="SVGID_00000088853512018265676060000010921829524963914685_" points="388.7,143.1 388.7,143.1 397.2,143.1 
				397.2,151.7 388.7,151.7 			"/>
		</defs>
		<clipPath id="SVGID_00000167375567783620214190000011456430906399558794_">
			<use xlink:href="#SVGID_00000088853512018265676060000010921829524963914685_"  style="overflow:visible;"/>
		</clipPath>
		<g style="clip-path:url(#SVGID_00000167375567783620214190000011456430906399558794_);">
			<circle class="st4" cx="392.9" cy="147.4" r="4.2"/>
		</g>
	</g>
	<g>
		<defs>
			<polygon id="SVGID_00000060030773617746200300000013224475582798706608_" points="363,143.1 363,143.1 354.5,143.1 354.5,151.7 
				363,151.7 			"/>
		</defs>
		<clipPath id="SVGID_00000137812315643604574820000005789421866083718042_">
			<use xlink:href="#SVGID_00000060030773617746200300000013224475582798706608_"  style="overflow:visible;"/>
		</clipPath>
		<g style="clip-path:url(#SVGID_00000137812315643604574820000005789421866083718042_);">
			<circle class="st4" cx="358.8" cy="147.4" r="4.2"/>
		</g>
	</g>
	<path class="st6" d="M370.2,184.9c0-0.8,0.6-1.7,5.4-1.7s5.9,0.8,5.9,1.6s-1.3,3-6.1,3S370.2,185.6,370.2,184.9z"/>
	<path class="st7" d="M383.1,167.8c0,0-4.7,3.7-7.4,3.7c-2.6,0-7-3.6-7-3.6s5.4,0.7,7.2,0.7S383.1,167.8,383.1,167.8z"/>
	<path class="st8" d="M345.6,185.5c0.6-2.5,8.7-20.8,8.9-22s21.9-6.7,21.9-6.7l20.7,7.2c0,0,4.9,22.6,4.9,23.8s-17,21.6-19,21.6
		s-20.1-1.2-20.1-1.2L345.6,185.5z"/>
</g>
<g>
	<ellipse class="st9" cx="395.7" cy="165.7" rx="19.6" ry="19.9"/>
	<ellipse class="st9" cx="350.1" cy="165.7" rx="19.6" ry="19.9"/>
	<g>
		<g>
			<defs>
				<rect id="SVGID_00000020400714749180445970000009386606774023912601_" x="414.6" y="158.6" width="6" height="10.3"/>
			</defs>
			<use xlink:href="#SVGID_00000020400714749180445970000009386606774023912601_"  style="overflow:visible;fill:#1E1E1E;"/>
			<clipPath id="SVGID_00000044151684786347167150000007191801722959532681_">
				<use xlink:href="#SVGID_00000020400714749180445970000009386606774023912601_"  style="overflow:visible;"/>
			</clipPath>
			<g style="clip-path:url(#SVGID_00000044151684786347167150000007191801722959532681_);">
				<rect x="415.7" y="159.7" class="st11" width="3.7" height="8"/>
			</g>
		</g>
	</g>
	<g>
		<g>
			<defs>
				<rect id="SVGID_00000074426180981966567590000000770063532551978169_" x="324.7" y="158.1" width="6" height="10.3"/>
			</defs>
			<use xlink:href="#SVGID_00000074426180981966567590000000770063532551978169_"  style="overflow:visible;fill:#1E1E1E;"/>
			<clipPath id="SVGID_00000178926599346533738250000012116292721380995753_">
				<use xlink:href="#SVGID_00000074426180981966567590000000770063532551978169_"  style="overflow:visible;"/>
			</clipPath>
			<g style="clip-path:url(#SVGID_00000178926599346533738250000012116292721380995753_);">
				<rect x="325.8" y="159.2" class="st11" width="3.7" height="8"/>
			</g>
		</g>
	</g>
	<path class="st9" d="M369.7,166.9c0,0-0.2-3.6,3.1-3.6c3,0,3.3,3.4,3.3,3.4"/>
</g>
</svg>
