<svg id="Calque_3" data-name="Calque 3" xmlns="http://www.w3.org/2000/svg" xmlns:xlink="http://www.w3.org/1999/xlink" viewBox="0 0 788 1005.1"><defs><style>.cls-1,.cls-10,.cls-19{fill:none;}.cls-2,.cls-3,.cls-4{fill:#645d5d;}.cls-3{clip-path:url(#clip-path);}.cls-4{clip-path:url(#clip-path-2);}.cls-5{fill:#754334;}.cls-6{fill:#bcbcbc;}.cls-7{clip-path:url(#clip-path-3);}.cls-8{clip-path:url(#clip-path-4);}.cls-9{clip-path:url(#clip-path-5);}.cls-10{stroke:#cdcdcd;}.cls-10,.cls-19{stroke-linecap:round;stroke-miterlimit:10;stroke-width:2px;}.cls-11{clip-path:url(#clip-path-6);}.cls-12{clip-path:url(#clip-path-7);}.cls-13{fill:#fff;}.cls-14{clip-path:url(#clip-path-8);}.cls-15{clip-path:url(#clip-path-9);}.cls-16{fill:#050505;}.cls-17{clip-path:url(#clip-path-10);}.cls-18{clip-path:url(#clip-path-11);}.cls-19{stroke:#754334;}.cls-20{clip-path:url(#clip-path-12);}</style><clipPath id="clip-path"><rect class="cls-2" x="414.6" y="158.6" width="5.9" height="10.32"/></clipPath><clipPath id="clip-path-2"><rect class="cls-2" x="324.7" y="158.6" width="5.9" height="10.32"/></clipPath><clipPath id="clip-path-3"><path class="cls-3" d="M421.1,169.4h-7V158.1h7Zm-6-1h5v-9.3h-5Z"/></clipPath><clipPath id="clip-path-4"><path class="cls-4" d="M331.2,169.4h-7V158.1h7Zm-6-1h5v-9.3h-5Z"/></clipPath><clipPath id="clip-path-5"><rect class="cls-1" x="384" y="137.7" width="20.1" height="6.37"/></clipPath><clipPath id="clip-path-6"><rect class="cls-1" x="341.7" y="137.7" width="20.1" height="6.37"/></clipPath><clipPath id="clip-path-7"><polygon class="cls-1" points="383.1 159.8 383.1 159.8 396.6 159.8 396.6 172.7 383.1 172.7 383.1 159.8"/></clipPath><clipPath id="clip-path-8"><polygon class="cls-1" points="361.8 159.8 361.8 159.8 348.3 159.8 348.3 172.7 361.8 172.7 361.8 159.8"/></clipPath><clipPath id="clip-path-9"><polygon class="cls-1" points="386.1 161.7 386.1 161.7 395.1 161.7 395.1 170.7 386.1 170.7 386.1 161.7"/></clipPath><clipPath id="clip-path-10"><polygon class="cls-1" points="359.7 161.7 359.7 161.7 350.7 161.7 350.7 170.7 359.7 170.7 359.7 161.7"/></clipPath><clipPath id="clip-path-11"><rect class="cls-1" x="379.7" y="189.4" width="9.5" height="6.82"/></clipPath><clipPath id="clip-path-12"><rect class="cls-1" x="357.1" y="189.4" width="9.5" height="6.82"/></clipPath></defs><circle cx="355.9" cy="168.4" r="2.9"/><circle cx="387.8" cy="168.4" r="2.9"/><path class="cls-5" d="M359.9,200.5c.2-.5,1.2-1.4,3.1-2.2a26.1,26.1,0,0,1,9.2-1.9,20.2,20.2,0,0,1,14,5.4s-4.1,10.3-13.9,9.5C365.1,210.8,359.9,200.5,359.9,200.5Z"/><path class="cls-6" d="M372.6,200.9l-7.3-.4-1.9-.8a25,25,0,0,1,10-1.7c5.9.3,9.1,2.5,9.1,2.5l-1.5.7Z"/><path class="cls-2" d="M395.7,186.6a20.9,20.9,0,1,1,20.7-20.9A20.8,20.8,0,0,1,395.7,186.6Zm0-39.8a18.9,18.9,0,1,0,18.7,18.9A18.8,18.8,0,0,0,395.7,146.8Z"/><path class="cls-2" d="M350.1,186.6a20.9,20.9,0,1,1,20.6-20.9A20.8,20.8,0,0,1,350.1,186.6Zm0-39.8a18.9,18.9,0,1,0,18.6,18.9A18.8,18.8,0,0,0,350.1,146.8Z"/><rect class="cls-2" x="414.6" y="158.6" width="5.9" height="10.32"/><path class="cls-2" d="M421.1,169.4h-7V158.1h7Zm-6-1h5v-9.3h-5Z"/><g class="cls-7"><rect class="cls-2" x="415.7" y="159.7" width="3.7" height="8.03"/><path class="cls-2" d="M420.4,168.8h-5.7V158.7h5.7Zm-3.7-2h1.7v-6.1h-1.7Z"/></g><rect class="cls-2" x="324.7" y="158.6" width="5.9" height="10.32"/><path class="cls-2" d="M331.2,169.4h-7V158.1h7Zm-6-1h5v-9.3h-5Z"/><g class="cls-8"><rect class="cls-2" x="325.8" y="159.7" width="3.7" height="8.03"/><path class="cls-2" d="M330.5,168.8h-5.7V158.7h5.7Zm-3.7-2h1.7v-6.1h-1.7Z"/></g><path class="cls-2" d="M368.7,167a5.2,5.2,0,0,1,1.1-3.5,3.8,3.8,0,0,1,3-1.2c3.1,0,4.2,2.8,4.3,4.3l-2,.2c0-.3-.3-2.5-2.3-2.5a2.1,2.1,0,0,0-1.5.5,2.5,2.5,0,0,0-.6,2Z"/><path class="cls-5" d="M373.3,194.7c-2.1,0-7.1-2.9-8-3.5a1,1,0,0,1-.4-1.4,1.1,1.1,0,0,1,1.4-.3c2.2,1.3,5.8,3.2,7,3.2h0c1.2-.1,4.5-1.9,6.6-3.2a1,1,0,0,1,1.3.3,1,1,0,0,1-.3,1.4c-.9.6-5.4,3.4-7.5,3.5Z"/><g class="cls-9"><path class="cls-10" d="M385,139.9s4.6-2.8,11.9,0a38.8,38.8,0,0,1,6.2,3.1"/></g><g class="cls-11"><path class="cls-10" d="M360.7,139.9s-4.5-2.8-11.8,0a38.8,38.8,0,0,0-6.2,3.1"/></g><g id="_Répétition_miroir_5" data-name="&lt;Répétition miroir&gt;"><g class="cls-12"><ellipse class="cls-13" cx="389.8" cy="166.2" rx="6.7" ry="6.5"/></g></g><g id="_Répétition_miroir_6" data-name="&lt;Répétition miroir&gt;"><g class="cls-14"><ellipse class="cls-13" cx="355.1" cy="166.2" rx="6.7" ry="6.5"/></g></g><g class="cls-15"><circle class="cls-16" cx="390.6" cy="166.2" r="4.5"/></g><g class="cls-17"><circle class="cls-16" cx="355.2" cy="166.2" r="4.5"/></g><path class="cls-5" d="M380.5,189.5s-4.7,3.7-7.4,3.7-7-3.6-7-3.6,5.4.8,7.2.8S380.5,189.5,380.5,189.5Z"/><path class="cls-5" d="M373.1,195c-2.1,0-7.1-2.9-8-3.5a1,1,0,0,1-.4-1.4,1.1,1.1,0,0,1,1.4-.3c2.2,1.3,5.8,3.2,7,3.2h0c1.2-.1,4.5-1.9,6.6-3.2a1,1,0,0,1,1.3.3,1,1,0,0,1-.3,1.4c-.9.6-5.4,3.4-7.5,3.5Z"/><g id="_Répétition_miroir_7" data-name="&lt;Répétition miroir&gt;"><g class="cls-18"><path class="cls-19" d="M380.7,190.4l7.6,4.8"/></g></g><g id="_Répétition_miroir_8" data-name="&lt;Répétition miroir&gt;"><g class="cls-20"><path class="cls-19" d="M365.6,190.4l-7.5,4.8"/></g></g></svg>