<?xml version="1.0" encoding="utf-8"?>
<!-- Generator: Adobe Illustrator 26.0.1, SVG Export Plug-In . SVG Version: 6.00 Build 0)  -->
<svg version="1.1" id="Calque_1" xmlns="http://www.w3.org/2000/svg" xmlns:xlink="http://www.w3.org/1999/xlink" x="0px" y="0px"
	 viewBox="0 0 788 1005.1" style="enable-background:new 0 0 788 1005.1;" xml:space="preserve">
<style type="text/css">
	.st0{fill:#4CA7F7;}
	.st1{fill:none;stroke:#802D31;stroke-width:2;stroke-linecap:round;stroke-miterlimit:10;}
	.st2{clip-path:url(#SVGID_00000128457190560074218530000017564110133502705038_);}
	.st3{fill:none;stroke:#D3D3D3;stroke-width:2;stroke-linecap:round;stroke-miterlimit:10;}
	.st4{clip-path:url(#SVGID_00000098187214415143474540000001105739939626336177_);}
	.st5{clip-path:url(#SVGID_00000031178113348472945680000013257946882843613625_);}
	.st6{fill:#FFFFFF;}
	.st7{clip-path:url(#SVGID_00000001625302370337220050000013101503695259975356_);}
	.st8{clip-path:url(#SVGID_00000012463883146011486570000013254202079227877518_);}
	.st9{fill:#050505;}
	.st10{clip-path:url(#SVGID_00000049917966544303853290000011708027991227318439_);}
	.st11{fill:none;stroke:#7D4030;stroke-width:2;stroke-linecap:round;stroke-miterlimit:10;}
	.st12{fill:#7D4030;}
	
		.st13{clip-path:url(#SVGID_00000112611351032050927670000000285574070159793063_);fill:none;stroke:#7D4030;stroke-width:2;stroke-linecap:round;stroke-miterlimit:10;}
	
		.st14{clip-path:url(#SVGID_00000171721059147938401960000008148575046199396509_);fill:none;stroke:#7D4030;stroke-width:2;stroke-linecap:round;stroke-miterlimit:10;}
	.st15{fill:none;stroke:#141414;stroke-width:2;stroke-miterlimit:10;}
	.st16{clip-path:url(#SVGID_00000057851977376855641390000005834875227457034151_);}
	.st17{fill:#1E1E1E;}
	.st18{clip-path:url(#SVGID_00000162336272685741369010000016932972014996916393_);}
</style>
<g id="Calque_3">
	<ellipse class="st0" cx="344.6" cy="190.4" rx="4.2" ry="4.8"/>
	<path class="st1" d="M382.2,203l-4.4-1.3c-3.2-0.9-6.7-0.9-9.8,0.2l-4.5,1.5"/>
	<g id="_Repetition_miroir_">
		<g>
			<g>
				<defs>
					<rect id="SVGID_1_" x="386.1" y="149.9" width="16.8" height="12.8"/>
				</defs>
				<clipPath id="SVGID_00000057115164886973800720000017124517404960542354_">
					<use xlink:href="#SVGID_1_"  style="overflow:visible;"/>
				</clipPath>
				<g style="clip-path:url(#SVGID_00000057115164886973800720000017124517404960542354_);">
					<path class="st3" d="M387.1,151c0,0,5.4-0.5,10.6,5.3c1.5,1.7,2.9,3.6,4.2,5.5"/>
				</g>
			</g>
		</g>
	</g>
	<g id="_Repetition_miroir_2">
		<g>
			<g>
				<defs>
					<rect id="SVGID_00000178893063850494446430000008806619880928914358_" x="343" y="149.9" width="16.8" height="12.8"/>
				</defs>
				<clipPath id="SVGID_00000181808275452433495020000018096836210159912103_">
					<use xlink:href="#SVGID_00000178893063850494446430000008806619880928914358_"  style="overflow:visible;"/>
				</clipPath>
				<g style="clip-path:url(#SVGID_00000181808275452433495020000018096836210159912103_);">
					<path class="st3" d="M358.8,151c0,0-5.4-0.5-10.6,5.3c-1.5,1.7-2.9,3.6-4.2,5.5"/>
				</g>
			</g>
		</g>
	</g>
	<g>
		<g>
			<defs>
				<polygon id="SVGID_00000013168885789940144200000018006109305009039797_" points="382.1,159.8 382.1,159.8 395.6,159.8 
					395.6,172.7 382.1,172.7 				"/>
			</defs>
			<clipPath id="SVGID_00000047050293378037551870000012634455504604642710_">
				<use xlink:href="#SVGID_00000013168885789940144200000018006109305009039797_"  style="overflow:visible;"/>
			</clipPath>
			<g style="clip-path:url(#SVGID_00000047050293378037551870000012634455504604642710_);">
				<ellipse class="st6" cx="388.9" cy="166.2" rx="6.7" ry="6.5"/>
			</g>
		</g>
	</g>
	<g>
		<g>
			<defs>
				<polygon id="SVGID_00000021098407017319476370000008069342595689326729_" points="360.8,159.8 360.8,159.8 347.3,159.8 
					347.3,172.7 360.8,172.7 				"/>
			</defs>
			<clipPath id="SVGID_00000045581668157413225690000016348161655444501683_">
				<use xlink:href="#SVGID_00000021098407017319476370000008069342595689326729_"  style="overflow:visible;"/>
			</clipPath>
			<g style="clip-path:url(#SVGID_00000045581668157413225690000016348161655444501683_);">
				<ellipse class="st6" cx="354.1" cy="166.2" rx="6.7" ry="6.5"/>
			</g>
		</g>
	</g>
	<g>
		<g>
			<defs>
				<polygon id="SVGID_00000036947726842461796620000007905765464435619970_" points="384.6,161.7 384.6,161.7 393.6,161.7 
					393.6,170.7 384.6,170.7 				"/>
			</defs>
			<clipPath id="SVGID_00000105419887245666605490000017573533330957974189_">
				<use xlink:href="#SVGID_00000036947726842461796620000007905765464435619970_"  style="overflow:visible;"/>
			</clipPath>
			<g style="clip-path:url(#SVGID_00000105419887245666605490000017573533330957974189_);">
				<circle class="st9" cx="389.1" cy="166.2" r="4.5"/>
			</g>
		</g>
	</g>
	<g>
		<g>
			<defs>
				<polygon id="SVGID_00000119805941289359430700000008904697639343773830_" points="358.3,161.7 358.3,161.7 349.3,161.7 
					349.3,170.7 358.3,170.7 				"/>
			</defs>
			<clipPath id="SVGID_00000014601788717564340550000008226370850226527142_">
				<use xlink:href="#SVGID_00000119805941289359430700000008904697639343773830_"  style="overflow:visible;"/>
			</clipPath>
			<g style="clip-path:url(#SVGID_00000014601788717564340550000008226370850226527142_);">
				<circle class="st9" cx="353.8" cy="166.2" r="4.5"/>
			</g>
		</g>
	</g>
</g>
<path class="st11" d="M365.8,190.4c0,0,5.7,3.4,7.6,3.3c1.9-0.1,7.1-3.3,7.1-3.3"/>
<g>
	<path class="st12" d="M380.5,189.5c0,0-4.7,3.7-7.4,3.7c-2.6,0-7-3.6-7-3.6s5.4,0.7,7.2,0.7C375.1,190.3,380.5,189.5,380.5,189.5z"
		/>
</g>
<path class="st11" d="M365.6,190.7c0,0,5.7,3.4,7.6,3.3c1.9-0.1,7.1-3.3,7.1-3.3"/>
<g>
	<g>
		<defs>
			<rect id="SVGID_00000085216857089200479570000004884821629344746138_" x="379.7" y="189.4" width="9.5" height="6.8"/>
		</defs>
		<clipPath id="SVGID_00000169520729375521509950000007127961216397727146_">
			<use xlink:href="#SVGID_00000085216857089200479570000004884821629344746138_"  style="overflow:visible;"/>
		</clipPath>
		
			<path style="clip-path:url(#SVGID_00000169520729375521509950000007127961216397727146_);fill:none;stroke:#7D4030;stroke-width:2;stroke-linecap:round;stroke-miterlimit:10;" d="
			M380.7,190.4c0,0,5.6,3.7,7.5,4.8"/>
	</g>
</g>
<g>
	<g>
		<defs>
			<rect id="SVGID_00000178920628520926055290000000926253306917233588_" x="357.1" y="189.4" width="9.5" height="6.8"/>
		</defs>
		<clipPath id="SVGID_00000052082871015271052150000014482789367608285850_">
			<use xlink:href="#SVGID_00000178920628520926055290000000926253306917233588_"  style="overflow:visible;"/>
		</clipPath>
		
			<path style="clip-path:url(#SVGID_00000052082871015271052150000014482789367608285850_);fill:none;stroke:#7D4030;stroke-width:2;stroke-linecap:round;stroke-miterlimit:10;" d="
			M365.6,190.4c0,0-5.6,3.7-7.5,4.8"/>
	</g>
</g>
<g>
	<ellipse class="st15" cx="396.4" cy="172.7" rx="19.6" ry="19.9"/>
	<ellipse class="st15" cx="350.8" cy="172.7" rx="19.6" ry="19.9"/>
	<g>
		<g>
			<defs>
				<rect id="SVGID_00000010281596486847626540000004282561076350732972_" x="415.2" y="165.6" width="6" height="10.3"/>
			</defs>
			<use xlink:href="#SVGID_00000010281596486847626540000004282561076350732972_"  style="overflow:visible;fill:#1E1E1E;"/>
			<clipPath id="SVGID_00000160191732709443293390000017663399021696775083_">
				<use xlink:href="#SVGID_00000010281596486847626540000004282561076350732972_"  style="overflow:visible;"/>
			</clipPath>
			<g style="clip-path:url(#SVGID_00000160191732709443293390000017663399021696775083_);">
				<rect x="416.4" y="166.7" class="st17" width="3.7" height="8"/>
			</g>
		</g>
	</g>
	<g>
		<g>
			<defs>
				<rect id="SVGID_00000103947147364800036200000000772708865513815946_" x="325.4" y="165.1" width="6" height="10.3"/>
			</defs>
			<use xlink:href="#SVGID_00000103947147364800036200000000772708865513815946_"  style="overflow:visible;fill:#1E1E1E;"/>
			<clipPath id="SVGID_00000145737378801826086450000008366375696677468060_">
				<use xlink:href="#SVGID_00000103947147364800036200000000772708865513815946_"  style="overflow:visible;"/>
			</clipPath>
			<g style="clip-path:url(#SVGID_00000145737378801826086450000008366375696677468060_);">
				<rect x="326.4" y="166.2" class="st17" width="3.7" height="8"/>
			</g>
		</g>
	</g>
	<path class="st15" d="M370.4,173.9c0,0-0.2-3.6,3.1-3.6c3,0,3.3,3.4,3.3,3.4"/>
</g>
</svg>
