<?xml version="1.0" encoding="utf-8"?>
<!-- Generator: Adobe Illustrator 26.0.1, SVG Export Plug-In . SVG Version: 6.00 Build 0)  -->
<svg version="1.1" id="Calque_1" xmlns="http://www.w3.org/2000/svg" xmlns:xlink="http://www.w3.org/1999/xlink" x="0px" y="0px"
	 viewBox="0 0 788 1005.1" style="enable-background:new 0 0 788 1005.1;" xml:space="preserve">
<style type="text/css">
	.st0{fill:#D9D9D9;stroke:#802D31;stroke-width:2;stroke-linecap:round;stroke-miterlimit:10;}
	.st1{clip-path:url(#SVGID_00000144301913040641616410000015077554985905267117_);}
	.st2{fill:none;stroke:#5B5B5B;stroke-width:2;stroke-linecap:round;stroke-miterlimit:10;}
	.st3{clip-path:url(#SVGID_00000083775360105884039840000000458352632848839078_);}
	.st4{clip-path:url(#SVGID_00000164483804115947095400000002794740467092766395_);}
	.st5{fill:#FFFFFF;}
	.st6{clip-path:url(#SVGID_00000091709863218285144860000003179849915155787199_);}
	.st7{clip-path:url(#SVGID_00000003789625051449927700000006411678334788499861_);}
	.st8{fill:#050505;}
	.st9{clip-path:url(#SVGID_00000029034659278426917300000000119656705863177865_);}
	.st10{fill:none;stroke:#7D4030;stroke-width:2;stroke-linecap:round;stroke-miterlimit:10;}
	.st11{fill:#7D4030;}
	
		.st12{clip-path:url(#SVGID_00000182506721122311893990000003769734169272093624_);fill:none;stroke:#7D4030;stroke-width:2;stroke-linecap:round;stroke-miterlimit:10;}
	
		.st13{clip-path:url(#SVGID_00000005980213660251612740000010623497864991987113_);fill:none;stroke:#7D4030;stroke-width:2;stroke-linecap:round;stroke-miterlimit:10;}
	.st14{fill:none;stroke:#141414;stroke-width:2;stroke-miterlimit:10;}
	.st15{clip-path:url(#SVGID_00000087390989650681768190000000853456543932919959_);}
	.st16{fill:#1E1E1E;}
	.st17{clip-path:url(#SVGID_00000018228149452510593760000000399458310698987678_);}
</style>
<path class="st0" d="M363.4,203l9.4,0.2c4.3,0.1,9.4-0.2,9.4-0.2"/>
<g>
	<g>
		<defs>
			<rect id="SVGID_1_" x="384" y="151.6" width="20.1" height="6.4"/>
		</defs>
		<clipPath id="SVGID_00000075132110821525849230000016624462721972175291_">
			<use xlink:href="#SVGID_1_"  style="overflow:visible;"/>
		</clipPath>
		<g style="clip-path:url(#SVGID_00000075132110821525849230000016624462721972175291_);">
			<path class="st2" d="M385,153.9c0,0,4.6-2.9,11.9,0c2.1,0.9,4.2,1.9,6.2,3.1"/>
		</g>
	</g>
</g>
<g>
	<g>
		<defs>
			<rect id="SVGID_00000048474877367982226020000009098353489460278952_" x="341.6" y="151.6" width="20.1" height="6.4"/>
		</defs>
		<clipPath id="SVGID_00000129196538412867336300000010216617414702910337_">
			<use xlink:href="#SVGID_00000048474877367982226020000009098353489460278952_"  style="overflow:visible;"/>
		</clipPath>
		<g style="clip-path:url(#SVGID_00000129196538412867336300000010216617414702910337_);">
			<path class="st2" d="M360.7,153.9c0,0-4.5-2.9-11.9,0c-2.1,0.9-4.2,1.9-6.2,3.1"/>
		</g>
	</g>
</g>
<g>
	<g>
		<defs>
			<polygon id="SVGID_00000150068107637655681360000014296236300394029973_" points="382,159.6 382,159.6 395.5,159.6 395.5,172.6 
				382,172.6 			"/>
		</defs>
		<clipPath id="SVGID_00000000914701975104569840000007016656993022459834_">
			<use xlink:href="#SVGID_00000150068107637655681360000014296236300394029973_"  style="overflow:visible;"/>
		</clipPath>
		<g style="clip-path:url(#SVGID_00000000914701975104569840000007016656993022459834_);">
			<ellipse class="st5" cx="388.7" cy="166.1" rx="6.7" ry="6.5"/>
		</g>
	</g>
</g>
<g>
	<g>
		<defs>
			<polygon id="SVGID_00000183210912769061367270000011269083520002993281_" points="360.7,159.6 360.7,159.6 347.2,159.6 
				347.2,172.6 360.7,172.6 			"/>
		</defs>
		<clipPath id="SVGID_00000139270466630501936420000017138633550129487782_">
			<use xlink:href="#SVGID_00000183210912769061367270000011269083520002993281_"  style="overflow:visible;"/>
		</clipPath>
		<g style="clip-path:url(#SVGID_00000139270466630501936420000017138633550129487782_);">
			<ellipse class="st5" cx="353.9" cy="166.1" rx="6.7" ry="6.5"/>
		</g>
	</g>
</g>
<g id="_Repetition_miroir_">
	<g>
		<g>
			<defs>
				<polygon id="SVGID_00000172428357703272420130000000953137957734970242_" points="384.5,161.6 384.5,161.6 393.5,161.6 
					393.5,170.6 384.5,170.6 				"/>
			</defs>
			<clipPath id="SVGID_00000176745415369623841730000002271596005538492844_">
				<use xlink:href="#SVGID_00000172428357703272420130000000953137957734970242_"  style="overflow:visible;"/>
			</clipPath>
			<g style="clip-path:url(#SVGID_00000176745415369623841730000002271596005538492844_);">
				<circle class="st8" cx="389" cy="166.1" r="4.5"/>
			</g>
		</g>
	</g>
</g>
<g id="_Repetition_miroir_2">
	<g>
		<g>
			<defs>
				<polygon id="SVGID_00000038411822401419769110000013804264750927670417_" points="358.1,161.6 358.1,161.6 349.1,161.6 
					349.1,170.6 358.1,170.6 				"/>
			</defs>
			<clipPath id="SVGID_00000062152892684201206180000008552945272522357646_">
				<use xlink:href="#SVGID_00000038411822401419769110000013804264750927670417_"  style="overflow:visible;"/>
			</clipPath>
			<g style="clip-path:url(#SVGID_00000062152892684201206180000008552945272522357646_);">
				<circle class="st8" cx="353.6" cy="166.1" r="4.5"/>
			</g>
		</g>
	</g>
</g>
<path class="st10" d="M365.8,190.4c0,0,5.7,3.4,7.6,3.3c1.9-0.1,7.1-3.3,7.1-3.3"/>
<g>
	<path class="st11" d="M380.5,189.5c0,0-4.7,3.7-7.4,3.7c-2.6,0-7-3.6-7-3.6s5.4,0.7,7.2,0.7C375.1,190.3,380.5,189.5,380.5,189.5z"
		/>
</g>
<path class="st10" d="M365.6,190.7c0,0,5.7,3.4,7.6,3.3c1.9-0.1,7.1-3.3,7.1-3.3"/>
<g>
	<g>
		<defs>
			<rect id="SVGID_00000018945302713449411870000000115352474184514975_" x="379.7" y="189.4" width="9.5" height="6.8"/>
		</defs>
		<clipPath id="SVGID_00000038395494635558663840000009669854359287120529_">
			<use xlink:href="#SVGID_00000018945302713449411870000000115352474184514975_"  style="overflow:visible;"/>
		</clipPath>
		
			<path style="clip-path:url(#SVGID_00000038395494635558663840000009669854359287120529_);fill:none;stroke:#7D4030;stroke-width:2;stroke-linecap:round;stroke-miterlimit:10;" d="
			M380.7,190.4c0,0,5.6,3.7,7.5,4.8"/>
	</g>
</g>
<g>
	<g>
		<defs>
			<rect id="SVGID_00000111180942961983309210000004749219438419978635_" x="357.1" y="189.4" width="9.5" height="6.8"/>
		</defs>
		<clipPath id="SVGID_00000174560090887328919710000003969948539414045367_">
			<use xlink:href="#SVGID_00000111180942961983309210000004749219438419978635_"  style="overflow:visible;"/>
		</clipPath>
		
			<path style="clip-path:url(#SVGID_00000174560090887328919710000003969948539414045367_);fill:none;stroke:#7D4030;stroke-width:2;stroke-linecap:round;stroke-miterlimit:10;" d="
			M365.6,190.4c0,0-5.6,3.7-7.5,4.8"/>
	</g>
</g>
<g>
	<ellipse class="st14" cx="395.8" cy="167.9" rx="19.6" ry="19.9"/>
	<ellipse class="st14" cx="350.2" cy="167.9" rx="19.6" ry="19.9"/>
	<g>
		<g>
			<defs>
				<rect id="SVGID_00000107571794358035430300000005141433993260448920_" x="414.8" y="160.8" width="6" height="10.3"/>
			</defs>
			<use xlink:href="#SVGID_00000107571794358035430300000005141433993260448920_"  style="overflow:visible;fill:#1E1E1E;"/>
			<clipPath id="SVGID_00000180343234807578028020000001511119445457246343_">
				<use xlink:href="#SVGID_00000107571794358035430300000005141433993260448920_"  style="overflow:visible;"/>
			</clipPath>
			<g style="clip-path:url(#SVGID_00000180343234807578028020000001511119445457246343_);">
				<rect x="415.8" y="161.9" class="st16" width="3.7" height="8"/>
			</g>
		</g>
	</g>
	<g>
		<g>
			<defs>
				<rect id="SVGID_00000108991061255955877440000012819556100256811942_" x="324.8" y="160.3" width="6" height="10.3"/>
			</defs>
			<use xlink:href="#SVGID_00000108991061255955877440000012819556100256811942_"  style="overflow:visible;fill:#1E1E1E;"/>
			<clipPath id="SVGID_00000081639921818875247420000007388652649741914047_">
				<use xlink:href="#SVGID_00000108991061255955877440000012819556100256811942_"  style="overflow:visible;"/>
			</clipPath>
			<g style="clip-path:url(#SVGID_00000081639921818875247420000007388652649741914047_);">
				<rect x="325.9" y="161.4" class="st16" width="3.7" height="8"/>
			</g>
		</g>
	</g>
	<path class="st14" d="M369.8,169.1c0,0-0.2-3.6,3.1-3.6c3,0,3.3,3.4,3.3,3.4"/>
</g>
</svg>
