<?xml version="1.0" encoding="utf-8"?>
<!-- Generator: Adobe Illustrator 26.0.1, SVG Export Plug-In . SVG Version: 6.00 Build 0)  -->
<svg version="1.1" id="Calque_1" xmlns="http://www.w3.org/2000/svg" xmlns:xlink="http://www.w3.org/1999/xlink" x="0px" y="0px"
	 viewBox="0 0 788 1005.1" style="enable-background:new 0 0 788 1005.1;" xml:space="preserve">
<style type="text/css">
	.st0{fill:#7C3838;}
	.st1{fill:#BCBCBC;}
	.st2{fill:none;stroke:#141414;stroke-width:2;stroke-miterlimit:10;}
	.st3{clip-path:url(#SVGID_00000047039909614500589300000016592639489731511456_);}
	.st4{fill:#1E1E1E;}
	.st5{clip-path:url(#SVGID_00000008862884814566949950000006166791779413022609_);}
	.st6{clip-path:url(#SVGID_00000095314433062268694530000012283046803037310089_);}
	.st7{fill:none;stroke:#F4F4F4;stroke-width:2;stroke-linecap:round;stroke-miterlimit:10;}
	.st8{clip-path:url(#SVGID_00000023267575957241932890000007106059287867623340_);}
	.st9{clip-path:url(#SVGID_00000095298176085074272790000011071294755710056586_);}
	.st10{fill:#FFFFFF;}
	.st11{clip-path:url(#SVGID_00000175298272502177540510000017470516034554340526_);}
	.st12{clip-path:url(#SVGID_00000064312865994697774740000013798988106336492430_);}
	.st13{fill:#050505;}
	.st14{clip-path:url(#SVGID_00000070097553064942511850000005478713365523425167_);}
	.st15{fill:none;stroke:#7D4030;stroke-width:2;stroke-linecap:round;stroke-miterlimit:10;}
	.st16{fill:#7D4030;}
	
		.st17{clip-path:url(#SVGID_00000178926312347139977210000013113218123644130696_);fill:none;stroke:#7D4030;stroke-width:2;stroke-linecap:round;stroke-miterlimit:10;}
	
		.st18{clip-path:url(#SVGID_00000115494713005892472020000000343607121260886681_);fill:none;stroke:#7D4030;stroke-width:2;stroke-linecap:round;stroke-miterlimit:10;}
</style>
<g id="Calque_3">
	<circle cx="355.9" cy="168.4" r="2.9"/>
	<circle cx="387.8" cy="168.4" r="2.9"/>
	<path class="st0" d="M359.9,200.5c0.2-0.6,1.2-1.4,3.1-2.2c3-1.2,6.1-1.8,9.3-1.8c5.2-0.1,10.2,1.8,13.9,5.3c0,0-4,10.3-13.9,9.6
		C365.1,210.8,359.9,200.5,359.9,200.5z"/>
	<path class="st1" d="M372.6,200.9l-7.2-0.3l-1.9-0.8c3.2-1.3,6.6-1.8,10.1-1.7c5.9,0.3,9.1,2.6,9.1,2.6l-1.5,0.7L372.6,200.9z"/>
	<g>
		<ellipse class="st2" cx="395.7" cy="169.7" rx="19.6" ry="19.9"/>
		<ellipse class="st2" cx="350.1" cy="169.7" rx="19.6" ry="19.9"/>
		<g>
			<g>
				<defs>
					<rect id="SVGID_1_" x="414.6" y="162.6" width="6" height="10.3"/>
				</defs>
				<use xlink:href="#SVGID_1_"  style="overflow:visible;fill:#1E1E1E;"/>
				<clipPath id="SVGID_00000085215775815637456940000015480130660348295845_">
					<use xlink:href="#SVGID_1_"  style="overflow:visible;"/>
				</clipPath>
				<g style="clip-path:url(#SVGID_00000085215775815637456940000015480130660348295845_);">
					<rect x="415.7" y="163.7" class="st4" width="3.7" height="8"/>
				</g>
			</g>
		</g>
		<g>
			<g>
				<defs>
					<rect id="SVGID_00000112620404170232478280000008860905966809554843_" x="324.7" y="162.1" width="6" height="10.3"/>
				</defs>
				<use xlink:href="#SVGID_00000112620404170232478280000008860905966809554843_"  style="overflow:visible;fill:#1E1E1E;"/>
				<clipPath id="SVGID_00000009551288667843062230000009257411890157994633_">
					<use xlink:href="#SVGID_00000112620404170232478280000008860905966809554843_"  style="overflow:visible;"/>
				</clipPath>
				<g style="clip-path:url(#SVGID_00000009551288667843062230000009257411890157994633_);">
					<rect x="325.8" y="163.2" class="st4" width="3.7" height="8"/>
				</g>
			</g>
		</g>
		<path class="st2" d="M369.7,170.9c0,0-0.2-3.6,3.1-3.6c3,0,3.3,3.4,3.3,3.4"/>
	</g>
	<g>
		<g>
			<defs>
				<rect id="SVGID_00000151505556922670214940000002643463136493504158_" x="384" y="139.7" width="20.1" height="6.4"/>
			</defs>
			<clipPath id="SVGID_00000152230968715177340280000015289896126210949019_">
				<use xlink:href="#SVGID_00000151505556922670214940000002643463136493504158_"  style="overflow:visible;"/>
			</clipPath>
			<g style="clip-path:url(#SVGID_00000152230968715177340280000015289896126210949019_);">
				<path class="st7" d="M385,141.9c0,0,4.5-2.9,11.9,0c2.1,0.9,4.2,1.9,6.2,3.1"/>
			</g>
		</g>
	</g>
	<g>
		<g>
			<defs>
				<rect id="SVGID_00000002376232613143805690000017174376993160279486_" x="341.7" y="139.7" width="20.1" height="6.4"/>
			</defs>
			<clipPath id="SVGID_00000178899320116627592720000003526657932040216716_">
				<use xlink:href="#SVGID_00000002376232613143805690000017174376993160279486_"  style="overflow:visible;"/>
			</clipPath>
			<g style="clip-path:url(#SVGID_00000178899320116627592720000003526657932040216716_);">
				<path class="st7" d="M360.7,141.9c0,0-4.5-2.9-11.9,0c-2.1,0.9-4.2,1.9-6.2,3.1"/>
			</g>
		</g>
	</g>
	<g id="_Repetition_miroir_">
		<g>
			<g>
				<defs>
					<polygon id="SVGID_00000166639546195436956360000008027723586388850567_" points="383.1,159.8 383.1,159.8 396.6,159.8 
						396.6,172.7 383.1,172.7 					"/>
				</defs>
				<clipPath id="SVGID_00000064312256582745075450000009529640706936111015_">
					<use xlink:href="#SVGID_00000166639546195436956360000008027723586388850567_"  style="overflow:visible;"/>
				</clipPath>
				<g style="clip-path:url(#SVGID_00000064312256582745075450000009529640706936111015_);">
					<ellipse class="st10" cx="389.9" cy="166.2" rx="6.7" ry="6.5"/>
				</g>
			</g>
		</g>
	</g>
	<g id="_Repetition_miroir_2">
		<g>
			<g>
				<defs>
					<polygon id="SVGID_00000168815792489190091490000007710368455877010313_" points="361.8,159.8 361.8,159.8 348.3,159.8 
						348.3,172.7 361.8,172.7 					"/>
				</defs>
				<clipPath id="SVGID_00000038372355114925981570000012034737983610695296_">
					<use xlink:href="#SVGID_00000168815792489190091490000007710368455877010313_"  style="overflow:visible;"/>
				</clipPath>
				<g style="clip-path:url(#SVGID_00000038372355114925981570000012034737983610695296_);">
					<ellipse class="st10" cx="355.1" cy="166.2" rx="6.7" ry="6.5"/>
				</g>
			</g>
		</g>
	</g>
	<g>
		<g>
			<defs>
				<polygon id="SVGID_00000018922498665068985400000016433538610704944541_" points="386.1,161.7 386.1,161.7 395.1,161.7 
					395.1,170.7 386.1,170.7 				"/>
			</defs>
			<clipPath id="SVGID_00000183963338916444501380000017129022202745262468_">
				<use xlink:href="#SVGID_00000018922498665068985400000016433538610704944541_"  style="overflow:visible;"/>
			</clipPath>
			<g style="clip-path:url(#SVGID_00000183963338916444501380000017129022202745262468_);">
				<circle class="st13" cx="390.6" cy="166.2" r="4.5"/>
			</g>
		</g>
	</g>
	<g>
		<g>
			<defs>
				<polygon id="SVGID_00000109002192661885637050000013132617716275277697_" points="359.7,161.7 359.7,161.7 350.7,161.7 
					350.7,170.7 359.7,170.7 				"/>
			</defs>
			<clipPath id="SVGID_00000009548656127653861980000017380554790701567108_">
				<use xlink:href="#SVGID_00000109002192661885637050000013132617716275277697_"  style="overflow:visible;"/>
			</clipPath>
			<g style="clip-path:url(#SVGID_00000009548656127653861980000017380554790701567108_);">
				<circle class="st13" cx="355.2" cy="166.2" r="4.5"/>
			</g>
		</g>
	</g>
	<path class="st15" d="M365.8,190.4c0,0,5.7,3.4,7.6,3.3c1.9-0.1,7.1-3.3,7.1-3.3"/>
	<g>
		<path class="st16" d="M380.5,189.5c0,0-4.7,3.7-7.4,3.7c-2.6,0-7-3.6-7-3.6s5.4,0.7,7.2,0.7C375.1,190.3,380.5,189.5,380.5,189.5z
			"/>
	</g>
	<path class="st15" d="M365.6,190.7c0,0,5.7,3.4,7.6,3.3c1.9-0.1,7.1-3.3,7.1-3.3"/>
	<g>
		<g>
			<defs>
				<rect id="SVGID_00000003085425890554353080000018058089066793222069_" x="379.7" y="189.4" width="9.5" height="6.8"/>
			</defs>
			<clipPath id="SVGID_00000127005599818941712060000001953091859110534580_">
				<use xlink:href="#SVGID_00000003085425890554353080000018058089066793222069_"  style="overflow:visible;"/>
			</clipPath>
			
				<path style="clip-path:url(#SVGID_00000127005599818941712060000001953091859110534580_);fill:none;stroke:#7D4030;stroke-width:2;stroke-linecap:round;stroke-miterlimit:10;" d="
				M380.7,190.4c0,0,5.6,3.7,7.5,4.8"/>
		</g>
	</g>
	<g>
		<g>
			<defs>
				<rect id="SVGID_00000099631018552230183090000004269186972862373049_" x="357.1" y="189.4" width="9.5" height="6.8"/>
			</defs>
			<clipPath id="SVGID_00000065059036317957126920000001833138593502241724_">
				<use xlink:href="#SVGID_00000099631018552230183090000004269186972862373049_"  style="overflow:visible;"/>
			</clipPath>
			
				<path style="clip-path:url(#SVGID_00000065059036317957126920000001833138593502241724_);fill:none;stroke:#7D4030;stroke-width:2;stroke-linecap:round;stroke-miterlimit:10;" d="
				M365.6,190.4c0,0-5.6,3.7-7.5,4.8"/>
		</g>
	</g>
</g>
</svg>
