<svg id="Calque_3" data-name="Calque 3" xmlns="http://www.w3.org/2000/svg" xmlns:xlink="http://www.w3.org/1999/xlink" viewBox="0 0 788 1005.1"><defs><style>.cls-1,.cls-11,.cls-14{fill:none;}.cls-2,.cls-3,.cls-4{fill:#645d5d;}.cls-3{clip-path:url(#clip-path);}.cls-4{clip-path:url(#clip-path-2);}.cls-5{clip-path:url(#clip-path-3);}.cls-6{clip-path:url(#clip-path-4);}.cls-7{fill:#d9d9d9;}.cls-8{fill:#802d31;}.cls-9{fill:#754334;}.cls-10{clip-path:url(#clip-path-5);}.cls-11{stroke:#ad7469;}.cls-11,.cls-14{stroke-linecap:round;stroke-miterlimit:10;stroke-width:2px;}.cls-12{clip-path:url(#clip-path-6);}.cls-13{clip-path:url(#clip-path-7);}.cls-14{stroke:#cdcdcd;}.cls-15{clip-path:url(#clip-path-8);}.cls-16{clip-path:url(#clip-path-9);}.cls-17{fill:#fff;}.cls-18{clip-path:url(#clip-path-10);}.cls-19{clip-path:url(#clip-path-11);}.cls-20{fill:#050505;}.cls-21{clip-path:url(#clip-path-12);}</style><clipPath id="clip-path"><rect class="cls-2" x="414.5" y="158.4" width="5.9" height="10.32"/></clipPath><clipPath id="clip-path-2"><rect class="cls-2" x="324.6" y="158.4" width="5.9" height="10.32"/></clipPath><clipPath id="clip-path-3"><path class="cls-3" d="M420.9,169.2H414V157.9h6.9Zm-5.9-1h4.9v-9.3H415Z"/></clipPath><clipPath id="clip-path-4"><path class="cls-4" d="M331,169.2h-6.9V157.9H331Zm-5.9-1H330v-9.3h-4.9Z"/></clipPath><clipPath id="clip-path-5"><rect class="cls-1" x="381.4" y="188.1" width="7.8" height="7.93"/></clipPath><clipPath id="clip-path-6"><rect class="cls-1" x="357" y="188.1" width="7.8" height="7.93"/></clipPath><clipPath id="clip-path-7"><rect class="cls-1" x="384" y="151.7" width="20.1" height="6.37"/></clipPath><clipPath id="clip-path-8"><rect class="cls-1" x="341.6" y="151.7" width="20.1" height="6.37"/></clipPath><clipPath id="clip-path-9"><polygon class="cls-1" points="382 159.6 382 159.6 395.5 159.6 395.5 172.6 382 172.6 382 159.6"/></clipPath><clipPath id="clip-path-10"><polygon class="cls-1" points="360.7 159.6 360.7 159.6 347.2 159.6 347.2 172.6 360.7 172.6 360.7 159.6"/></clipPath><clipPath id="clip-path-11"><polygon class="cls-1" points="384.5 161.6 384.5 161.6 393.5 161.6 393.5 170.6 384.5 170.6 384.5 161.6"/></clipPath><clipPath id="clip-path-12"><polygon class="cls-1" points="358.1 161.6 358.1 161.6 349.1 161.6 349.1 170.6 358.1 170.6 358.1 161.6"/></clipPath></defs><path class="cls-2" d="M395.6,186.4a20.9,20.9,0,1,1,20.6-20.9A20.8,20.8,0,0,1,395.6,186.4Zm0-39.7a18.9,18.9,0,1,0,18.6,18.8A18.8,18.8,0,0,0,395.6,146.7Z"/><path class="cls-2" d="M350,186.4a20.9,20.9,0,1,1,20.6-20.9A20.8,20.8,0,0,1,350,186.4Zm0-39.7a18.9,18.9,0,1,0,18.6,18.8A18.8,18.8,0,0,0,350,146.7Z"/><rect class="cls-2" x="414.5" y="158.4" width="5.9" height="10.32"/><path class="cls-2" d="M420.9,169.2H414V157.9h6.9Zm-5.9-1h4.9v-9.3H415Z"/><g class="cls-5"><rect class="cls-2" x="415.6" y="159.6" width="3.7" height="8.03"/><path class="cls-2" d="M420.3,168.6h-5.7v-10h5.7Zm-3.7-2h1.7v-6h-1.7Z"/></g><rect class="cls-2" x="324.6" y="158.4" width="5.9" height="10.32"/><path class="cls-2" d="M331,169.2h-6.9V157.9H331Zm-5.9-1H330v-9.3h-4.9Z"/><g class="cls-6"><rect class="cls-2" x="325.7" y="159.6" width="3.7" height="8.03"/><path class="cls-2" d="M330.4,168.6h-5.7v-10h5.7Zm-3.7-2h1.7v-6h-1.7Z"/></g><path class="cls-2" d="M368.5,166.8a5.1,5.1,0,0,1,1.2-3.5,4,4,0,0,1,3-1.1c3.1,0,4.1,2.8,4.3,4.3h-2c0-.2-.3-2.4-2.3-2.4a1.7,1.7,0,0,0-1.5.5,3.2,3.2,0,0,0-.7,2Z"/><path class="cls-7" d="M363.4,203l9.4.2c4.3.1,9.3-.2,9.3-.2Z"/><path class="cls-8" d="M374.2,204.2h-1.5l-9.3-.2v-2l9.4.2c4.2.1,9.2-.2,9.3-.2a1,1,0,0,1,1,.9,1,1,0,0,1-.9,1.1Z"/><path class="cls-9" d="M373.2,194.5c-2.2,0-7.1-2.9-8.1-3.4a1.1,1.1,0,0,1-.3-1.4,1.1,1.1,0,0,1,1.4-.4c2.2,1.4,5.8,3.2,6.9,3.2h.1c1.1,0,4.5-1.8,6.5-3.1a1,1,0,1,1,1.1,1.7c-.9.5-5.5,3.4-7.6,3.4Z"/><g class="cls-10"><path class="cls-11" d="M382.4,189.1s4.2,4.5,5.7,5.9"/></g><g class="cls-12"><path class="cls-11" d="M363.7,189.1s-4.2,4.5-5.7,5.9"/></g><g class="cls-13"><path class="cls-14" d="M385,153.9s4.5-2.8,11.8,0a42.5,42.5,0,0,1,6.3,3.1"/></g><g class="cls-15"><path class="cls-14" d="M360.7,153.9s-4.6-2.8-11.9,0a44.7,44.7,0,0,0-6.2,3.1"/></g><g class="cls-16"><ellipse class="cls-17" cx="388.7" cy="166.1" rx="6.7" ry="6.5"/></g><g class="cls-18"><ellipse class="cls-17" cx="353.9" cy="166.1" rx="6.7" ry="6.5"/></g><g id="_Répétition_miroir_3" data-name="&lt;Répétition miroir&gt;"><g class="cls-19"><circle class="cls-20" cx="389" cy="166.1" r="4.5"/></g></g><g id="_Répétition_miroir_4" data-name="&lt;Répétition miroir&gt;"><g class="cls-21"><circle class="cls-20" cx="353.6" cy="166.1" r="4.5"/></g></g><path class="cls-9" d="M380.5,189.5s-4.7,3.7-7.4,3.7-7-3.6-7-3.6,5.4.8,7.2.8S380.5,189.5,380.5,189.5Z"/></svg>