<svg xmlns="http://www.w3.org/2000/svg" xmlns:xlink="http://www.w3.org/1999/xlink" viewBox="0 0 788 1005.07"><defs><style>.cls-1,.cls-6,.cls-8{fill:#645d5d;}.cls-1,.cls-5,.cls-8,.cls-9{stroke:#645d5d;}.cls-1,.cls-11,.cls-15,.cls-5,.cls-8,.cls-9{stroke-miterlimit:10;}.cls-11,.cls-15,.cls-2,.cls-5,.cls-9{fill:none;}.cls-3{fill:#7c3838;}.cls-4{fill:#bcbcbc;}.cls-11,.cls-15,.cls-5,.cls-8{stroke-width:2px;}.cls-7{clip-path:url(#clip-path);}.cls-10{clip-path:url(#clip-path-2);}.cls-11{stroke:#ad7469;}.cls-11,.cls-15{stroke-linecap:round;}.cls-12{clip-path:url(#clip-path-3);}.cls-13{clip-path:url(#clip-path-4);}.cls-14{clip-path:url(#clip-path-5);}.cls-15{stroke:#cdcdcd;}.cls-16{clip-path:url(#clip-path-6);}.cls-17{clip-path:url(#clip-path-7);}.cls-18{fill:#fff;}.cls-19{clip-path:url(#clip-path-8);}.cls-20{clip-path:url(#clip-path-9);}.cls-21{fill:#050505;}.cls-22{clip-path:url(#clip-path-10);}.cls-23{fill:#b85d40;}</style><clipPath id="clip-path"><rect class="cls-1" x="414.6" y="158.58" width="5.95" height="10.32"/></clipPath><clipPath id="clip-path-2"><rect class="cls-1" x="324.71" y="158.58" width="5.95" height="10.32"/></clipPath><clipPath id="clip-path-3"><rect class="cls-2" x="381.51" y="188.25" width="7.75" height="7.93"/></clipPath><clipPath id="clip-path-4"><rect class="cls-2" x="357.12" y="188.25" width="7.75" height="7.93"/></clipPath><clipPath id="clip-path-5"><rect class="cls-2" x="384.03" y="137.66" width="20.08" height="6.37"/></clipPath><clipPath id="clip-path-6"><rect class="cls-2" x="341.66" y="137.66" width="20.08" height="6.37"/></clipPath><clipPath id="clip-path-7"><polygon class="cls-2" points="383.12 159.76 383.12 159.76 396.58 159.76 396.58 172.72 383.12 172.72 383.12 159.76"/></clipPath><clipPath id="clip-path-8"><polygon class="cls-2" points="361.79 159.76 361.79 159.76 348.33 159.76 348.33 172.72 361.79 172.72 361.79 159.76"/></clipPath><clipPath id="clip-path-9"><polygon class="cls-2" points="386.07 161.74 386.07 161.74 395.07 161.74 395.07 170.74 386.07 170.74 386.07 161.74"/></clipPath><clipPath id="clip-path-10"><polygon class="cls-2" points="359.69 161.74 359.69 161.74 350.69 161.74 350.69 170.74 359.69 170.74 359.69 161.74"/></clipPath></defs><g id="Calque_3" data-name="Calque 3"><circle cx="355.88" cy="168.36" r="2.89"/><circle cx="387.8" cy="168.36" r="2.89"/><path class="cls-3" d="M359.89,200.52c.25-.56,1.25-1.44,3.07-2.24a25.87,25.87,0,0,1,9.27-1.84,20,20,0,0,1,13.94,5.32s-4,10.32-13.89,9.56C365.13,210.77,359.89,200.52,359.89,200.52Z"/><path class="cls-4" d="M372.59,200.85l-7.25-.33-1.94-.8A24.83,24.83,0,0,1,373.45,198c5.88.31,9.06,2.56,9.06,2.56l-1.5.71Z"/><ellipse class="cls-5" cx="395.72" cy="165.7" rx="19.64" ry="19.88"/><ellipse class="cls-5" cx="350.1" cy="165.7" rx="19.64" ry="19.88"/><rect class="cls-6" x="414.6" y="158.58" width="5.95" height="10.32"/><g class="cls-7"><rect class="cls-8" x="415.74" y="159.72" width="3.68" height="8.03"/></g><rect class="cls-9" x="414.6" y="158.58" width="5.95" height="10.32"/><rect class="cls-6" x="324.71" y="158.58" width="5.95" height="10.32"/><g class="cls-10"><rect class="cls-8" x="325.84" y="159.72" width="3.68" height="8.03"/></g><rect class="cls-9" x="324.71" y="158.58" width="5.95" height="10.32"/><path class="cls-5" d="M369.66,166.91s-.23-3.62,3.13-3.59c3,0,3.31,3.38,3.31,3.38"/><path class="cls-11" d="M365.77,190.36s5.66,3.37,7.56,3.32,7.06-3.3,7.06-3.3"/><g class="cls-12"><path class="cls-11" d="M382.51,189.25s4.22,4.54,5.75,5.93"/></g><g class="cls-13"><path class="cls-11" d="M363.87,189.25s-4.22,4.54-5.75,5.93"/></g><g class="cls-14"><path class="cls-15" d="M385,139.93s4.55-2.86,11.87,0a44.3,44.3,0,0,1,6.21,3.11"/></g><g class="cls-16"><path class="cls-15" d="M360.73,139.93s-4.55-2.86-11.87,0a44.53,44.53,0,0,0-6.2,3.11"/></g><g id="_Repetition_miroir_" data-name="&lt;Repetition miroir&gt;"><g class="cls-17"><ellipse class="cls-18" cx="389.85" cy="166.24" rx="6.73" ry="6.48"/></g></g><g id="_Repetition_miroir_2" data-name="&lt;Repetition miroir&gt;"><g class="cls-19"><ellipse class="cls-18" cx="355.06" cy="166.24" rx="6.73" ry="6.48"/></g></g><g class="cls-20"><circle class="cls-21" cx="390.58" cy="166.24" r="4.5"/></g><g class="cls-22"><circle class="cls-21" cx="355.19" cy="166.24" r="4.5"/></g><path class="cls-23" d="M380.48,189.54s-4.69,3.69-7.42,3.69c-2.58,0-7-3.6-7-3.6s5.4.73,7.21.72S380.48,189.54,380.48,189.54Z"/></g></svg>