<svg id="Calque_3" data-name="Calque 3" xmlns="http://www.w3.org/2000/svg" xmlns:xlink="http://www.w3.org/1999/xlink" viewBox="0 0 788 1005.1"><defs><style>.cls-1,.cls-11,.cls-14{fill:none;}.cls-2,.cls-3,.cls-4{fill:#645d5d;}.cls-3{clip-path:url(#clip-path);}.cls-4{clip-path:url(#clip-path-2);}.cls-5{fill:#754334;}.cls-6{clip-path:url(#clip-path-3);}.cls-7{clip-path:url(#clip-path-4);}.cls-8{fill:#802d31;}.cls-9{clip-path:url(#clip-path-5);}.cls-10{fill:#ad7469;}.cls-11{stroke:#754334;}.cls-11,.cls-14{stroke-linecap:round;stroke-miterlimit:10;stroke-width:2px;}.cls-12{clip-path:url(#clip-path-6);}.cls-13{clip-path:url(#clip-path-7);}.cls-14{stroke:#cdcdcd;}.cls-15{clip-path:url(#clip-path-8);}</style><clipPath id="clip-path"><rect class="cls-2" x="324.7" y="158.6" width="5.9" height="10.32"/></clipPath><clipPath id="clip-path-2"><rect class="cls-2" x="414.6" y="158.6" width="5.9" height="10.32"/></clipPath><clipPath id="clip-path-3"><path class="cls-4" d="M421.1,169.4h-7V158.1h7Zm-6-1h5v-9.3h-5Z"/></clipPath><clipPath id="clip-path-4"><path class="cls-3" d="M331.2,169.4h-7V158.1h7Zm-6-1h5v-9.3h-5Z"/></clipPath><clipPath id="clip-path-5"><rect class="cls-1" x="380.9" y="189.7" width="8.3" height="6.51"/></clipPath><clipPath id="clip-path-6"><rect class="cls-1" x="357.1" y="189.7" width="8.3" height="6.51"/></clipPath><clipPath id="clip-path-7"><rect class="cls-1" x="384.1" y="151.8" width="20.1" height="6.37"/></clipPath><clipPath id="clip-path-8"><rect class="cls-1" x="341.7" y="151.8" width="20.1" height="6.37"/></clipPath></defs><path class="cls-5" d="M380.5,189.5s-4.7,3.7-7.4,3.7-7-3.6-7-3.6,5.4.8,7.2.8S380.5,189.5,380.5,189.5Z"/><path class="cls-2" d="M395.7,186.6a20.9,20.9,0,1,1,20.7-20.9A20.8,20.8,0,0,1,395.7,186.6Zm0-39.8a18.9,18.9,0,1,0,18.7,18.9A18.8,18.8,0,0,0,395.7,146.8Z"/><path class="cls-2" d="M350.1,186.6a20.9,20.9,0,1,1,20.6-20.9A20.8,20.8,0,0,1,350.1,186.6Zm0-39.8a18.9,18.9,0,1,0,18.6,18.9A18.8,18.8,0,0,0,350.1,146.8Z"/><rect class="cls-2" x="414.6" y="158.6" width="5.9" height="10.32"/><path class="cls-2" d="M421.1,169.4h-7V158.1h7Zm-6-1h5v-9.3h-5Z"/><g class="cls-6"><rect class="cls-2" x="415.7" y="159.7" width="3.7" height="8.03"/><path class="cls-2" d="M420.4,168.8h-5.7V158.7h5.7Zm-3.7-2h1.7v-6.1h-1.7Z"/></g><rect class="cls-2" x="324.7" y="158.6" width="5.9" height="10.32"/><path class="cls-2" d="M331.2,169.4h-7V158.1h7Zm-6-1h5v-9.3h-5Z"/><g class="cls-7"><rect class="cls-2" x="325.8" y="159.7" width="3.7" height="8.03"/><path class="cls-2" d="M330.5,168.8h-5.7V158.7h5.7Zm-3.7-2h1.7v-6.1h-1.7Z"/></g><path class="cls-2" d="M368.7,167a5.2,5.2,0,0,1,1.1-3.5,3.8,3.8,0,0,1,3-1.2c3.1,0,4.2,2.8,4.3,4.3l-2,.2c0-.3-.3-2.5-2.3-2.5a2.6,2.6,0,0,0-1.5.5,2.5,2.5,0,0,0-.6,2Z"/><path class="cls-8" d="M372.4,208.3c-4,0-9.2-4-9.5-4.1a1,1,0,0,1-.1-1.4.9.9,0,0,1,1.4-.2c1.5,1.1,6,4,8.6,3.7s7.2-3,9-4a.9.9,0,0,1,1.3.4,1,1,0,0,1-.3,1.3c-.3.2-6.7,3.9-9.7,4.3Z"/><path class="cls-8" d="M372.2,207.1c-1.9,0-4-1-6-1.9a19.4,19.4,0,0,0-3-1.3.9.9,0,0,1-.6-1.2,1,1,0,0,1,1.3-.7,28.4,28.4,0,0,1,3.2,1.4c2,.9,4,1.9,5.6,1.6l9.3-2.8a.9.9,0,0,1,1.2.7.9.9,0,0,1-.7,1.2l-9.4,2.9Z"/><path class="cls-5" d="M373.3,194.7c-2.1,0-7.1-2.9-8-3.5a1,1,0,0,1-.4-1.4,1.1,1.1,0,0,1,1.4-.3c2.2,1.3,5.8,3.2,7,3.2h0c1.2-.1,4.5-1.9,6.6-3.2a1,1,0,0,1,1.3.3,1,1,0,0,1-.3,1.4c-.9.6-5.4,3.4-7.5,3.5Z"/><g id="_Répétition_miroir_3" data-name="&lt;Répétition miroir&gt;"><g class="cls-9"><path class="cls-10" d="M381.9,190.7l6.4,4.5"/><path class="cls-11" d="M381.9,190.7l6.4,4.5"/></g></g><g id="_Répétition_miroir_4" data-name="&lt;Répétition miroir&gt;"><g class="cls-12"><path class="cls-10" d="M364.5,190.7l-6.4,4.5"/><path class="cls-11" d="M364.5,190.7l-6.4,4.5"/></g></g><g class="cls-13"><path class="cls-14" d="M385.1,154.1s4.6-2.9,11.9,0a44.7,44.7,0,0,1,6.2,3.1"/></g><g class="cls-15"><path class="cls-14" d="M360.8,154.1s-4.5-2.9-11.9,0a44.7,44.7,0,0,0-6.2,3.1"/></g><path d="M403.3,165.9a2.3,2.3,0,0,1-2.9.6c-1.8-1-7-1.1-9-.5s-5.9,1.9-6.7.3,1.5-2.9,6.9-3.2,9.2,2.6,11.7,2.8Z"/><path d="M343.5,167a2.2,2.2,0,0,0,2.9.6c1.8-1,7.1-1.1,9-.5s5.9,1.9,6.7.4-1.5-3-6.9-3.3-9.2,2.6-11.7,2.8Z"/></svg>