<?xml version="1.0" encoding="utf-8"?>
<!-- Generator: Adobe Illustrator 26.0.1, SVG Export Plug-In . SVG Version: 6.00 Build 0)  -->
<svg version="1.1" id="Calque_1" xmlns="http://www.w3.org/2000/svg" xmlns:xlink="http://www.w3.org/1999/xlink" x="0px" y="0px"
	 viewBox="0 0 788 1005.1" style="enable-background:new 0 0 788 1005.1;" xml:space="preserve">
<style type="text/css">
	.st0{fill:#FFFFFF;}
	.st1{fill:none;stroke:#802D31;stroke-width:2;stroke-linecap:round;stroke-miterlimit:10;}
	.st2{clip-path:url(#SVGID_00000160155539360439065550000015600979008738122136_);}
	.st3{fill:none;stroke:#D3D3D3;stroke-width:2;stroke-linecap:round;stroke-miterlimit:10;}
	.st4{clip-path:url(#SVGID_00000126292572034157981620000015771414177276347789_);}
	.st5{fill:#050505;}
	.st6{fill:none;stroke:#7D4030;stroke-width:2;stroke-linecap:round;stroke-miterlimit:10;}
	.st7{fill:#7D4030;}
	
		.st8{clip-path:url(#SVGID_00000183935364758970294910000000486516828889742259_);fill:none;stroke:#7D4030;stroke-width:2;stroke-linecap:round;stroke-miterlimit:10;}
	
		.st9{clip-path:url(#SVGID_00000026855728391007192030000007384953773854044829_);fill:none;stroke:#7D4030;stroke-width:2;stroke-linecap:round;stroke-miterlimit:10;}
	.st10{fill:none;stroke:#141414;stroke-width:2;stroke-miterlimit:10;}
	.st11{clip-path:url(#SVGID_00000095305850497193783290000014857639253435407516_);}
	.st12{fill:#1E1E1E;}
	.st13{clip-path:url(#SVGID_00000124843718727062131990000009062747977141784196_);}
</style>
<g>
	<ellipse class="st0" cx="354.1" cy="166.2" rx="6.7" ry="6.5"/>
	<path class="st1" d="M363.6,203.4c0,0,5.7,4.4,9.4,3.9c2.8-0.4,9.3-4.1,9.3-4.1"/>
	<path class="st1" d="M382.3,203.2L373,206c-2.9,0.5-6.4-2.1-9.4-3"/>
	<g>
		<g>
			<defs>
				<rect id="SVGID_1_" x="384.1" y="151.8" width="20.1" height="6.4"/>
			</defs>
			<clipPath id="SVGID_00000132074544150518541290000009802870977870464134_">
				<use xlink:href="#SVGID_1_"  style="overflow:visible;"/>
			</clipPath>
			<g style="clip-path:url(#SVGID_00000132074544150518541290000009802870977870464134_);">
				<path class="st3" d="M385.1,154.1c0,0,4.6-2.9,11.9,0c2.1,0.9,4.2,1.9,6.2,3.1"/>
			</g>
		</g>
	</g>
	<g>
		<g>
			<defs>
				<rect id="SVGID_00000068667749510116854950000010146400894362639511_" x="341.7" y="151.8" width="20.1" height="6.4"/>
			</defs>
			<clipPath id="SVGID_00000003070259777453350600000008305138801973490073_">
				<use xlink:href="#SVGID_00000068667749510116854950000010146400894362639511_"  style="overflow:visible;"/>
			</clipPath>
			<g style="clip-path:url(#SVGID_00000003070259777453350600000008305138801973490073_);">
				<path class="st3" d="M360.8,154.1c0.1,0-3.9-3-11.9,0c-2.1,0.9-4.2,1.9-6.2,3.1"/>
			</g>
		</g>
	</g>
	<circle class="st5" cx="354.1" cy="166.2" r="4.5"/>
	<path class="st6" d="M365.8,190.4c0,0,5.7,3.4,7.6,3.3c1.9-0.1,7.1-3.3,7.1-3.3"/>
	<g>
		<path class="st7" d="M380.5,189.5c0,0-4.7,3.7-7.4,3.7c-2.6,0-7-3.6-7-3.6s5.4,0.7,7.2,0.7C375.1,190.3,380.5,189.5,380.5,189.5z"
			/>
	</g>
	<path class="st6" d="M365.6,190.7c0,0,5.7,3.4,7.6,3.3c1.9-0.1,7.1-3.3,7.1-3.3"/>
	<g>
		<g>
			<defs>
				<rect id="SVGID_00000085224206944530338070000011468575797193194655_" x="379.7" y="189.4" width="9.5" height="6.8"/>
			</defs>
			<clipPath id="SVGID_00000058551565197910095830000014645100202213729686_">
				<use xlink:href="#SVGID_00000085224206944530338070000011468575797193194655_"  style="overflow:visible;"/>
			</clipPath>
			
				<path style="clip-path:url(#SVGID_00000058551565197910095830000014645100202213729686_);fill:none;stroke:#7D4030;stroke-width:2;stroke-linecap:round;stroke-miterlimit:10;" d="
				M380.7,190.4c0,0,5.6,3.7,7.5,4.8"/>
		</g>
	</g>
	<g>
		<g>
			<defs>
				<rect id="SVGID_00000136385186772678017530000013572764053250707596_" x="357.1" y="189.4" width="9.5" height="6.8"/>
			</defs>
			<clipPath id="SVGID_00000139978782642059260770000016409178571514533778_">
				<use xlink:href="#SVGID_00000136385186772678017530000013572764053250707596_"  style="overflow:visible;"/>
			</clipPath>
			
				<path style="clip-path:url(#SVGID_00000139978782642059260770000016409178571514533778_);fill:none;stroke:#7D4030;stroke-width:2;stroke-linecap:round;stroke-miterlimit:10;" d="
				M365.6,190.4c0,0-5.6,3.7-7.5,4.8"/>
		</g>
	</g>
</g>
<g id="Calque_3">
	<path d="M403.3,165.9c-0.7,0.9-1.9,1.1-2.9,0.6c-1.8-1-7-1.1-9-0.5c-2.7,0.8-5.8,1.9-6.7,0.4c-0.1-0.3,1.5-2.9,6.9-3.2
		S400.8,165.7,403.3,165.9L403.3,165.9z"/>
</g>
<g>
	<ellipse class="st10" cx="395.7" cy="167.7" rx="19.6" ry="19.9"/>
	<ellipse class="st10" cx="350.1" cy="167.7" rx="19.6" ry="19.9"/>
	<g>
		<g>
			<defs>
				<rect id="SVGID_00000031898642166430193750000013875337942340550830_" x="414.6" y="160.6" width="6" height="10.3"/>
			</defs>
			<use xlink:href="#SVGID_00000031898642166430193750000013875337942340550830_"  style="overflow:visible;fill:#1E1E1E;"/>
			<clipPath id="SVGID_00000023263064255345583890000001434310866493728679_">
				<use xlink:href="#SVGID_00000031898642166430193750000013875337942340550830_"  style="overflow:visible;"/>
			</clipPath>
			<g style="clip-path:url(#SVGID_00000023263064255345583890000001434310866493728679_);">
				<rect x="415.7" y="161.7" class="st12" width="3.7" height="8"/>
			</g>
		</g>
	</g>
	<g>
		<g>
			<defs>
				<rect id="SVGID_00000183221086579686465200000013739694673297737104_" x="324.7" y="160.1" width="6" height="10.3"/>
			</defs>
			<use xlink:href="#SVGID_00000183221086579686465200000013739694673297737104_"  style="overflow:visible;fill:#1E1E1E;"/>
			<clipPath id="SVGID_00000095304204574664799130000015374588972206958769_">
				<use xlink:href="#SVGID_00000183221086579686465200000013739694673297737104_"  style="overflow:visible;"/>
			</clipPath>
			<g style="clip-path:url(#SVGID_00000095304204574664799130000015374588972206958769_);">
				<rect x="325.8" y="161.2" class="st12" width="3.7" height="8"/>
			</g>
		</g>
	</g>
	<path class="st10" d="M369.7,168.9c0,0-0.2-3.6,3.1-3.6c3,0,3.3,3.4,3.3,3.4"/>
</g>
</svg>
