<?xml version="1.0" encoding="utf-8"?>
<!-- Generator: Adobe Illustrator 26.0.1, SVG Export Plug-In . SVG Version: 6.00 Build 0)  -->
<svg version="1.1" id="Calque_1" xmlns="http://www.w3.org/2000/svg" xmlns:xlink="http://www.w3.org/1999/xlink" x="0px" y="0px"
	 viewBox="0 0 788 1005.1" style="enable-background:new 0 0 788 1005.1;" xml:space="preserve">
<style type="text/css">
	.st0{fill:#7C3838;}
	.st1{fill:#BCBCBC;}
	.st2{fill:none;stroke:#141414;stroke-width:2;stroke-miterlimit:10;}
	.st3{clip-path:url(#SVGID_00000108272402104410569900000015777052577401776541_);}
	.st4{fill:#1E1E1E;}
	.st5{clip-path:url(#SVGID_00000169559942724766292080000013528312032955540905_);}
	.st6{clip-path:url(#SVGID_00000111153516432082356440000016390032988952798109_);}
	.st7{fill:none;stroke:#F4F4F4;stroke-width:2;stroke-linecap:round;stroke-miterlimit:10;}
	.st8{clip-path:url(#SVGID_00000055702244208409420320000008904052091922028928_);}
	.st9{clip-path:url(#SVGID_00000155868707505529878780000015419913568132438440_);}
	.st10{fill:#FFFFFF;}
	.st11{clip-path:url(#SVGID_00000090295374086093680190000018013999613937329082_);}
	.st12{clip-path:url(#SVGID_00000042724373806178886300000017160022437500613041_);}
	.st13{fill:#050505;}
	.st14{clip-path:url(#SVGID_00000076600777432021685600000004855370819928494745_);}
	.st15{fill:none;stroke:#7D4030;stroke-width:2;stroke-linecap:round;stroke-miterlimit:10;}
	.st16{fill:#7D4030;}
	
		.st17{clip-path:url(#SVGID_00000163751112591819262240000014806025536733143709_);fill:none;stroke:#7D4030;stroke-width:2;stroke-linecap:round;stroke-miterlimit:10;}
	
		.st18{clip-path:url(#SVGID_00000076570247310085932150000015133730001977552575_);fill:none;stroke:#7D4030;stroke-width:2;stroke-linecap:round;stroke-miterlimit:10;}
</style>
<g id="Calque_3">
	<circle cx="355.9" cy="168.4" r="2.9"/>
	<circle cx="387.8" cy="168.4" r="2.9"/>
	<path class="st0" d="M359.9,200.5c0.2-0.6,1.2-1.4,3.1-2.2c3-1.2,6.1-1.8,9.3-1.8c5.2-0.1,10.2,1.8,13.9,5.3c0,0-4,10.3-13.9,9.6
		C365.1,210.8,359.9,200.5,359.9,200.5z"/>
	<path class="st1" d="M372.6,200.9l-7.2-0.3l-1.9-0.8c3.2-1.3,6.6-1.8,10.1-1.7c5.9,0.3,9.1,2.6,9.1,2.6l-1.5,0.7L372.6,200.9z"/>
	<g>
		<ellipse class="st2" cx="395.7" cy="169.7" rx="19.6" ry="19.9"/>
		<ellipse class="st2" cx="350.1" cy="169.7" rx="19.6" ry="19.9"/>
		<g>
			<g>
				<defs>
					<rect id="SVGID_1_" x="414.6" y="162.6" width="6" height="10.3"/>
				</defs>
				<use xlink:href="#SVGID_1_"  style="overflow:visible;fill:#1E1E1E;"/>
				<clipPath id="SVGID_00000041990607173506547620000008205261896007968190_">
					<use xlink:href="#SVGID_1_"  style="overflow:visible;"/>
				</clipPath>
				<g style="clip-path:url(#SVGID_00000041990607173506547620000008205261896007968190_);">
					<rect x="415.7" y="163.7" class="st4" width="3.7" height="8"/>
				</g>
			</g>
		</g>
		<g>
			<g>
				<defs>
					<rect id="SVGID_00000050623503820322033420000006415903259973329817_" x="324.7" y="162.1" width="6" height="10.3"/>
				</defs>
				<use xlink:href="#SVGID_00000050623503820322033420000006415903259973329817_"  style="overflow:visible;fill:#1E1E1E;"/>
				<clipPath id="SVGID_00000108308544600150663520000011561277439471197073_">
					<use xlink:href="#SVGID_00000050623503820322033420000006415903259973329817_"  style="overflow:visible;"/>
				</clipPath>
				<g style="clip-path:url(#SVGID_00000108308544600150663520000011561277439471197073_);">
					<rect x="325.8" y="163.2" class="st4" width="3.7" height="8"/>
				</g>
			</g>
		</g>
		<path class="st2" d="M369.7,170.9c0,0-0.2-3.6,3.1-3.6c3,0,3.3,3.4,3.3,3.4"/>
	</g>
	<g>
		<g>
			<defs>
				<rect id="SVGID_00000159436971999240096100000006662469766445579424_" x="384" y="137.7" width="20.1" height="6.4"/>
			</defs>
			<clipPath id="SVGID_00000102515312512627231000000011403086578853314978_">
				<use xlink:href="#SVGID_00000159436971999240096100000006662469766445579424_"  style="overflow:visible;"/>
			</clipPath>
			<g style="clip-path:url(#SVGID_00000102515312512627231000000011403086578853314978_);">
				<path class="st7" d="M385,139.9c0,0,4.5-2.9,11.9,0c2.1,0.9,4.2,1.9,6.2,3.1"/>
			</g>
			
				<use xlink:href="#SVGID_00000159436971999240096100000006662469766445579424_"  style="overflow:visible;fill:none;stroke:#F4F4F4;stroke-miterlimit:10;"/>
		</g>
	</g>
	<g>
		<g>
			<defs>
				<rect id="SVGID_00000159432500285123472850000006567963310896198018_" x="341.7" y="137.7" width="20.1" height="6.4"/>
			</defs>
			<clipPath id="SVGID_00000047039843648270455140000000397281768888040376_">
				<use xlink:href="#SVGID_00000159432500285123472850000006567963310896198018_"  style="overflow:visible;"/>
			</clipPath>
			<g style="clip-path:url(#SVGID_00000047039843648270455140000000397281768888040376_);">
				<path class="st7" d="M360.7,139.9c0,0-4.5-2.9-11.9,0c-2.1,0.9-4.2,1.9-6.2,3.1"/>
			</g>
			
				<use xlink:href="#SVGID_00000159432500285123472850000006567963310896198018_"  style="overflow:visible;fill:none;stroke:#F4F4F4;stroke-miterlimit:10;"/>
		</g>
	</g>
	<g id="_Repetition_miroir_">
		<g>
			<g>
				<defs>
					<polygon id="SVGID_00000130644347642538769260000000741155313401421995_" points="383.1,159.8 383.1,159.8 396.6,159.8 
						396.6,172.7 383.1,172.7 					"/>
				</defs>
				<clipPath id="SVGID_00000084496923579782146000000016272873864334801549_">
					<use xlink:href="#SVGID_00000130644347642538769260000000741155313401421995_"  style="overflow:visible;"/>
				</clipPath>
				<g style="clip-path:url(#SVGID_00000084496923579782146000000016272873864334801549_);">
					<ellipse class="st10" cx="389.9" cy="166.2" rx="6.7" ry="6.5"/>
				</g>
			</g>
		</g>
	</g>
	<g id="_Repetition_miroir_2">
		<g>
			<g>
				<defs>
					<polygon id="SVGID_00000061444807493378022280000000583812367453226149_" points="361.8,159.8 361.8,159.8 348.3,159.8 
						348.3,172.7 361.8,172.7 					"/>
				</defs>
				<clipPath id="SVGID_00000096750800554332317940000013108583248788946578_">
					<use xlink:href="#SVGID_00000061444807493378022280000000583812367453226149_"  style="overflow:visible;"/>
				</clipPath>
				<g style="clip-path:url(#SVGID_00000096750800554332317940000013108583248788946578_);">
					<ellipse class="st10" cx="355.1" cy="166.2" rx="6.7" ry="6.5"/>
				</g>
			</g>
		</g>
	</g>
	<g>
		<g>
			<defs>
				<polygon id="SVGID_00000109021934456908894690000013983836872591702165_" points="386.1,161.7 386.1,161.7 395.1,161.7 
					395.1,170.7 386.1,170.7 				"/>
			</defs>
			<clipPath id="SVGID_00000065773386910153130940000005722051356380671873_">
				<use xlink:href="#SVGID_00000109021934456908894690000013983836872591702165_"  style="overflow:visible;"/>
			</clipPath>
			<g style="clip-path:url(#SVGID_00000065773386910153130940000005722051356380671873_);">
				<circle class="st13" cx="390.6" cy="166.2" r="4.5"/>
			</g>
		</g>
	</g>
	<g>
		<g>
			<defs>
				<polygon id="SVGID_00000178899648994392849670000015607687755256944782_" points="359.7,161.7 359.7,161.7 350.7,161.7 
					350.7,170.7 359.7,170.7 				"/>
			</defs>
			<clipPath id="SVGID_00000002352017672364702160000011876367759360393391_">
				<use xlink:href="#SVGID_00000178899648994392849670000015607687755256944782_"  style="overflow:visible;"/>
			</clipPath>
			<g style="clip-path:url(#SVGID_00000002352017672364702160000011876367759360393391_);">
				<circle class="st13" cx="355.2" cy="166.2" r="4.5"/>
			</g>
		</g>
	</g>
	<path class="st15" d="M365.8,190.4c0,0,5.7,3.4,7.6,3.3c1.9-0.1,7.1-3.3,7.1-3.3"/>
	<g>
		<path class="st16" d="M380.5,189.5c0,0-4.7,3.7-7.4,3.7c-2.6,0-7-3.6-7-3.6s5.4,0.7,7.2,0.7C375.1,190.3,380.5,189.5,380.5,189.5z
			"/>
	</g>
	<path class="st15" d="M365.6,190.7c0,0,5.7,3.4,7.6,3.3c1.9-0.1,7.1-3.3,7.1-3.3"/>
	<g>
		<g>
			<defs>
				<rect id="SVGID_00000182489823994932058130000011950363150388852399_" x="379.7" y="189.4" width="9.5" height="6.8"/>
			</defs>
			<clipPath id="SVGID_00000089542063779894030540000017722795057290291386_">
				<use xlink:href="#SVGID_00000182489823994932058130000011950363150388852399_"  style="overflow:visible;"/>
			</clipPath>
			
				<path style="clip-path:url(#SVGID_00000089542063779894030540000017722795057290291386_);fill:none;stroke:#7D4030;stroke-width:2;stroke-linecap:round;stroke-miterlimit:10;" d="
				M380.7,190.4c0,0,5.6,3.7,7.5,4.8"/>
		</g>
	</g>
	<g>
		<g>
			<defs>
				<rect id="SVGID_00000155834261804610565320000004573476267694280321_" x="357.1" y="189.4" width="9.5" height="6.8"/>
			</defs>
			<clipPath id="SVGID_00000118370723581447529760000007392317295362959254_">
				<use xlink:href="#SVGID_00000155834261804610565320000004573476267694280321_"  style="overflow:visible;"/>
			</clipPath>
			
				<path style="clip-path:url(#SVGID_00000118370723581447529760000007392317295362959254_);fill:none;stroke:#7D4030;stroke-width:2;stroke-linecap:round;stroke-miterlimit:10;" d="
				M365.6,190.4c0,0-5.6,3.7-7.5,4.8"/>
		</g>
	</g>
</g>
</svg>
