<?xml version="1.0" encoding="utf-8"?>
<!-- Generator: Adobe Illustrator 26.0.1, SVG Export Plug-In . SVG Version: 6.00 Build 0)  -->
<svg version="1.1" id="Calque_1" xmlns="http://www.w3.org/2000/svg" xmlns:xlink="http://www.w3.org/1999/xlink" x="0px" y="0px"
	 viewBox="0 0 788 1005.1" style="enable-background:new 0 0 788 1005.1;" xml:space="preserve">
<style type="text/css">
	.st0{fill:#4CA7F7;}
	.st1{fill:none;stroke:#802D31;stroke-width:2;stroke-linecap:round;stroke-miterlimit:10;}
	.st2{clip-path:url(#SVGID_00000016774565018683407640000006859800866425674140_);}
	.st3{fill:none;stroke:#333333;stroke-width:2;stroke-linecap:round;stroke-miterlimit:10;}
	.st4{clip-path:url(#SVGID_00000066489057610070058770000002298588102205674424_);}
	.st5{clip-path:url(#SVGID_00000065786099474538035140000009548701370417505942_);}
	.st6{fill:#FFFFFF;}
	.st7{clip-path:url(#SVGID_00000121985994162295942670000005456561463265424032_);}
	.st8{clip-path:url(#SVGID_00000117634766102424417470000003925462999605369272_);}
	.st9{fill:#050505;}
	.st10{clip-path:url(#SVGID_00000083800433551212314640000004486546441485163180_);}
	.st11{fill:none;stroke:#7D4030;stroke-width:2;stroke-linecap:round;stroke-miterlimit:10;}
	.st12{fill:#7D4030;}
	
		.st13{clip-path:url(#SVGID_00000116223818571857441880000010601036740308807858_);fill:none;stroke:#7D4030;stroke-width:2;stroke-linecap:round;stroke-miterlimit:10;}
	
		.st14{clip-path:url(#SVGID_00000039113657595474090060000009524271497737792661_);fill:none;stroke:#7D4030;stroke-width:2;stroke-linecap:round;stroke-miterlimit:10;}
	.st15{fill:none;stroke:#141414;stroke-width:2;stroke-miterlimit:10;}
	.st16{clip-path:url(#SVGID_00000010299535728788095820000016150855247514804919_);}
	.st17{fill:#1E1E1E;}
	.st18{clip-path:url(#SVGID_00000142869296441386554240000009446894965323772858_);}
</style>
<g id="Calque_3">
	<ellipse class="st0" cx="344.6" cy="190.4" rx="4.2" ry="4.8"/>
	<path class="st1" d="M382.2,203l-4.4-1.3c-3.2-0.9-6.7-0.9-9.8,0.2l-4.5,1.5"/>
	<g id="_Repetition_miroir_">
		<g>
			<g>
				<defs>
					<rect id="SVGID_1_" x="386.1" y="149.9" width="16.8" height="12.8"/>
				</defs>
				<clipPath id="SVGID_00000126320286013046949240000013746477632611149479_">
					<use xlink:href="#SVGID_1_"  style="overflow:visible;"/>
				</clipPath>
				<g style="clip-path:url(#SVGID_00000126320286013046949240000013746477632611149479_);">
					<path class="st3" d="M387.1,151c0,0,5.4-0.5,10.6,5.3c1.5,1.7,2.9,3.6,4.2,5.5"/>
				</g>
			</g>
		</g>
	</g>
	<g id="_Repetition_miroir_2">
		<g>
			<g>
				<defs>
					<rect id="SVGID_00000137842059467790104020000008388482486675859389_" x="343" y="149.9" width="16.8" height="12.8"/>
				</defs>
				<clipPath id="SVGID_00000030482360182084581410000000645347167703487145_">
					<use xlink:href="#SVGID_00000137842059467790104020000008388482486675859389_"  style="overflow:visible;"/>
				</clipPath>
				<g style="clip-path:url(#SVGID_00000030482360182084581410000000645347167703487145_);">
					<path class="st3" d="M358.8,151c0,0-5.4-0.5-10.6,5.3c-1.5,1.7-2.9,3.6-4.2,5.5"/>
				</g>
			</g>
		</g>
	</g>
	<g>
		<g>
			<defs>
				<polygon id="SVGID_00000173856049547219779680000012934854029939888795_" points="382.1,159.8 382.1,159.8 395.6,159.8 
					395.6,172.7 382.1,172.7 				"/>
			</defs>
			<clipPath id="SVGID_00000041987978329408061380000014823656257708139428_">
				<use xlink:href="#SVGID_00000173856049547219779680000012934854029939888795_"  style="overflow:visible;"/>
			</clipPath>
			<g style="clip-path:url(#SVGID_00000041987978329408061380000014823656257708139428_);">
				<ellipse class="st6" cx="388.9" cy="166.2" rx="6.7" ry="6.5"/>
			</g>
		</g>
	</g>
	<g>
		<g>
			<defs>
				<polygon id="SVGID_00000088109067075182525040000017815145421061055655_" points="360.8,159.8 360.8,159.8 347.3,159.8 
					347.3,172.7 360.8,172.7 				"/>
			</defs>
			<clipPath id="SVGID_00000018208496254935388870000016840953916121631914_">
				<use xlink:href="#SVGID_00000088109067075182525040000017815145421061055655_"  style="overflow:visible;"/>
			</clipPath>
			<g style="clip-path:url(#SVGID_00000018208496254935388870000016840953916121631914_);">
				<ellipse class="st6" cx="354.1" cy="166.2" rx="6.7" ry="6.5"/>
			</g>
		</g>
	</g>
	<g>
		<g>
			<defs>
				<polygon id="SVGID_00000013183808567654605830000003583794973571373224_" points="384.6,161.7 384.6,161.7 393.6,161.7 
					393.6,170.7 384.6,170.7 				"/>
			</defs>
			<clipPath id="SVGID_00000070120330643075347110000012294814747741193398_">
				<use xlink:href="#SVGID_00000013183808567654605830000003583794973571373224_"  style="overflow:visible;"/>
			</clipPath>
			<g style="clip-path:url(#SVGID_00000070120330643075347110000012294814747741193398_);">
				<circle class="st9" cx="389.1" cy="166.2" r="4.5"/>
			</g>
		</g>
	</g>
	<g>
		<g>
			<defs>
				<polygon id="SVGID_00000144303643879447413440000014977994953048383111_" points="358.3,161.7 358.3,161.7 349.3,161.7 
					349.3,170.7 358.3,170.7 				"/>
			</defs>
			<clipPath id="SVGID_00000007392217308973738450000013038805192189582250_">
				<use xlink:href="#SVGID_00000144303643879447413440000014977994953048383111_"  style="overflow:visible;"/>
			</clipPath>
			<g style="clip-path:url(#SVGID_00000007392217308973738450000013038805192189582250_);">
				<circle class="st9" cx="353.8" cy="166.2" r="4.5"/>
			</g>
		</g>
	</g>
</g>
<path class="st11" d="M365.8,190.4c0,0,5.7,3.4,7.6,3.3c1.9-0.1,7.1-3.3,7.1-3.3"/>
<g>
	<path class="st12" d="M380.5,189.5c0,0-4.7,3.7-7.4,3.7c-2.6,0-7-3.6-7-3.6s5.4,0.7,7.2,0.7C375.1,190.3,380.5,189.5,380.5,189.5z"
		/>
</g>
<path class="st11" d="M365.6,190.7c0,0,5.7,3.4,7.6,3.3c1.9-0.1,7.1-3.3,7.1-3.3"/>
<g>
	<g>
		<defs>
			<rect id="SVGID_00000117649135704587477560000014370919675212859833_" x="379.7" y="189.4" width="9.5" height="6.8"/>
		</defs>
		<clipPath id="SVGID_00000147906425109722869830000012054036706111379647_">
			<use xlink:href="#SVGID_00000117649135704587477560000014370919675212859833_"  style="overflow:visible;"/>
		</clipPath>
		
			<path style="clip-path:url(#SVGID_00000147906425109722869830000012054036706111379647_);fill:none;stroke:#7D4030;stroke-width:2;stroke-linecap:round;stroke-miterlimit:10;" d="
			M380.7,190.4c0,0,5.6,3.7,7.5,4.8"/>
	</g>
</g>
<g>
	<g>
		<defs>
			<rect id="SVGID_00000127765212038828931010000003184238252703899286_" x="357.1" y="189.4" width="9.5" height="6.8"/>
		</defs>
		<clipPath id="SVGID_00000100374989594224396900000005881017702789417138_">
			<use xlink:href="#SVGID_00000127765212038828931010000003184238252703899286_"  style="overflow:visible;"/>
		</clipPath>
		
			<path style="clip-path:url(#SVGID_00000100374989594224396900000005881017702789417138_);fill:none;stroke:#7D4030;stroke-width:2;stroke-linecap:round;stroke-miterlimit:10;" d="
			M365.6,190.4c0,0-5.6,3.7-7.5,4.8"/>
	</g>
</g>
<g>
	<ellipse class="st15" cx="396.4" cy="172.7" rx="19.6" ry="19.9"/>
	<ellipse class="st15" cx="350.8" cy="172.7" rx="19.6" ry="19.9"/>
	<g>
		<g>
			<defs>
				<rect id="SVGID_00000082341932383821409990000000708517835756721582_" x="415.2" y="165.6" width="6" height="10.3"/>
			</defs>
			<use xlink:href="#SVGID_00000082341932383821409990000000708517835756721582_"  style="overflow:visible;fill:#1E1E1E;"/>
			<clipPath id="SVGID_00000085935983688606748040000005264562359762464391_">
				<use xlink:href="#SVGID_00000082341932383821409990000000708517835756721582_"  style="overflow:visible;"/>
			</clipPath>
			<g style="clip-path:url(#SVGID_00000085935983688606748040000005264562359762464391_);">
				<rect x="416.4" y="166.7" class="st17" width="3.7" height="8"/>
			</g>
		</g>
	</g>
	<g>
		<g>
			<defs>
				<rect id="SVGID_00000094583765050526397750000013158899125961421996_" x="325.4" y="165.1" width="6" height="10.3"/>
			</defs>
			<use xlink:href="#SVGID_00000094583765050526397750000013158899125961421996_"  style="overflow:visible;fill:#1E1E1E;"/>
			<clipPath id="SVGID_00000059286213894879390540000004062930743673509042_">
				<use xlink:href="#SVGID_00000094583765050526397750000013158899125961421996_"  style="overflow:visible;"/>
			</clipPath>
			<g style="clip-path:url(#SVGID_00000059286213894879390540000004062930743673509042_);">
				<rect x="326.4" y="166.2" class="st17" width="3.7" height="8"/>
			</g>
		</g>
	</g>
	<path class="st15" d="M370.4,173.9c0,0-0.2-3.6,3.1-3.6c3,0,3.3,3.4,3.3,3.4"/>
</g>
</svg>
