<svg xmlns="http://www.w3.org/2000/svg" xmlns:xlink="http://www.w3.org/1999/xlink" viewBox="0 0 148 115.26"><defs><style>.cls-1,.cls-4,.cls-6{fill:#645d5d;}.cls-1,.cls-3,.cls-6,.cls-7{stroke:#645d5d;}.cls-1,.cls-10,.cls-14,.cls-3,.cls-6,.cls-7,.cls-9{stroke-miterlimit:10;}.cls-10,.cls-14,.cls-2,.cls-3,.cls-7,.cls-9{fill:none;}.cls-10,.cls-14,.cls-3,.cls-6,.cls-9{stroke-width:2px;}.cls-5{clip-path:url(#clip-path);}.cls-8{clip-path:url(#clip-path-2);}.cls-9{stroke:#802d31;}.cls-10,.cls-14,.cls-9{stroke-linecap:round;}.cls-10{stroke:#ad7469;}.cls-11{clip-path:url(#clip-path-3);}.cls-12{clip-path:url(#clip-path-4);}.cls-13{clip-path:url(#clip-path-5);}.cls-14{stroke:#cdcdcd;}.cls-15{clip-path:url(#clip-path-6);}.cls-16{clip-path:url(#clip-path-7);}.cls-17{fill:#fff;}.cls-18{clip-path:url(#clip-path-8);}.cls-19{clip-path:url(#clip-path-9);}.cls-20{fill:#050505;}.cls-21{clip-path:url(#clip-path-10);}.cls-22{fill:#b85d40;}.cls-23{fill:#d8d5d4;}</style><clipPath id="clip-path"><rect class="cls-1" x="114.5" y="40.24" width="5.95" height="10.32"/></clipPath><clipPath id="clip-path-2"><rect class="cls-1" x="24.61" y="40.24" width="5.95" height="10.32"/></clipPath><clipPath id="clip-path-3"><rect class="cls-2" x="81.41" y="69.91" width="7.75" height="7.93"/></clipPath><clipPath id="clip-path-4"><rect class="cls-2" x="57.02" y="69.91" width="7.75" height="7.93"/></clipPath><clipPath id="clip-path-5"><rect class="cls-2" x="85.98" y="31.6" width="16.82" height="12.82"/></clipPath><clipPath id="clip-path-6"><rect class="cls-2" x="42.91" y="31.6" width="16.82" height="12.82"/></clipPath><clipPath id="clip-path-7"><polygon class="cls-2" points="82.01 41.41 82.01 41.41 95.47 41.41 95.47 54.38 82.01 54.38 82.01 41.41"/></clipPath><clipPath id="clip-path-8"><polygon class="cls-2" points="60.69 41.41 60.69 41.41 47.23 41.41 47.23 54.38 60.69 54.38 60.69 41.41"/></clipPath><clipPath id="clip-path-9"><polygon class="cls-2" points="84.54 43.4 84.54 43.4 93.54 43.4 93.54 52.4 84.54 52.4 84.54 43.4"/></clipPath><clipPath id="clip-path-10"><polygon class="cls-2" points="58.16 43.4 58.16 43.4 49.16 43.4 49.16 52.4 58.16 52.4 58.16 43.4"/></clipPath></defs><g id="Calque_3" data-name="Calque 3"><ellipse class="cls-3" cx="95.62" cy="47.36" rx="19.64" ry="19.88"/><ellipse class="cls-3" cx="50" cy="47.36" rx="19.64" ry="19.88"/><rect class="cls-4" x="114.5" y="40.24" width="5.95" height="10.32"/><g class="cls-5"><rect class="cls-6" x="115.63" y="41.38" width="3.68" height="8.03"/></g><rect class="cls-7" x="114.5" y="40.24" width="5.95" height="10.32"/><rect class="cls-4" x="24.61" y="40.24" width="5.95" height="10.32"/><g class="cls-8"><rect class="cls-6" x="25.74" y="41.38" width="3.68" height="8.03"/></g><rect class="cls-7" x="24.61" y="40.24" width="5.95" height="10.32"/><path class="cls-3" d="M69.56,48.57S69.32,45,72.69,45c3,0,3.31,3.38,3.31,3.38"/><path class="cls-9" d="M82.14,84.62l-4.42-1.31a16.33,16.33,0,0,0-9.83.19L63.41,85"/><path class="cls-10" d="M65.66,72s5.66,3.38,7.56,3.33S80.28,72,80.28,72"/><g class="cls-11"><path class="cls-10" d="M82.41,70.91s4.22,4.54,5.75,5.92"/></g><g class="cls-12"><path class="cls-10" d="M63.77,70.91S59.55,75.45,58,76.83"/></g><g id="_Répétition_miroir_" data-name="&lt;Répétition miroir&gt;"><g class="cls-13"><path class="cls-14" d="M87,32.61s5.34-.53,10.64,5.28a44,44,0,0,1,4.17,5.53"/></g></g><g id="_Répétition_miroir_2" data-name="&lt;Répétition miroir&gt;"><g class="cls-15"><path class="cls-14" d="M58.72,32.61s-5.34-.53-10.64,5.28a45.21,45.21,0,0,0-4.17,5.53"/></g></g><g class="cls-16"><ellipse class="cls-17" cx="88.74" cy="47.9" rx="6.73" ry="6.48"/></g><g class="cls-18"><ellipse class="cls-17" cx="53.96" cy="47.9" rx="6.73" ry="6.48"/></g><g class="cls-19"><circle class="cls-20" cx="89.04" cy="47.9" r="4.5"/></g><g class="cls-21"><circle class="cls-20" cx="53.66" cy="47.9" r="4.5"/></g><path class="cls-22" d="M80.38,71.2S75.69,74.89,73,74.88s-7-3.59-7-3.59,5.4.73,7.21.72S80.38,71.2,80.38,71.2Z"/><path class="cls-23" d="M39.8,91c.49-2.32,11.13-20.2,11.3-21.33s21.55-7.2,21.55-7.2l21.07,5.33s11.78,19,11.84,20.11-8.7,19.35-23.71,21.5c-2,.29-15.17,1-20.08,0C51.66,107.25,39.8,91,39.8,91Z"/></g></svg>