<svg xmlns="http://www.w3.org/2000/svg" xmlns:xlink="http://www.w3.org/1999/xlink" viewBox="0 0 788 1005.07"><defs><style>.cls-1,.cls-6,.cls-8{fill:#645d5d;}.cls-1,.cls-5,.cls-8,.cls-9{stroke:#645d5d;}.cls-1,.cls-11,.cls-12,.cls-14,.cls-18,.cls-5,.cls-8,.cls-9{stroke-miterlimit:10;}.cls-11,.cls-14,.cls-2,.cls-5,.cls-9{fill:none;}.cls-12,.cls-3{fill:#754334;}.cls-4{fill:#fff;}.cls-11,.cls-12,.cls-14,.cls-18,.cls-5,.cls-8{stroke-width:2px;}.cls-7{clip-path:url(#clip-path);}.cls-10{clip-path:url(#clip-path-2);}.cls-11{stroke:#802d31;}.cls-11,.cls-12,.cls-14,.cls-18{stroke-linecap:round;}.cls-12,.cls-18{stroke:#754334;}.cls-13{clip-path:url(#clip-path-3);}.cls-14{stroke:#cdcdcd;}.cls-15{clip-path:url(#clip-path-4);}.cls-16{fill:#050505;}.cls-17{clip-path:url(#clip-path-5);}.cls-18{fill:#ad7469;}.cls-19{clip-path:url(#clip-path-6);}</style><clipPath id="clip-path"><rect class="cls-1" x="414.6" y="158.58" width="5.95" height="10.32"/></clipPath><clipPath id="clip-path-2"><rect class="cls-1" x="324.71" y="158.58" width="5.95" height="10.32"/></clipPath><clipPath id="clip-path-3"><rect class="cls-2" x="384.1" y="151.81" width="20.08" height="6.37"/></clipPath><clipPath id="clip-path-4"><rect class="cls-2" x="341.73" y="151.81" width="20.08" height="6.37"/></clipPath><clipPath id="clip-path-5"><rect class="cls-2" x="380.94" y="189.67" width="8.33" height="6.51"/></clipPath><clipPath id="clip-path-6"><rect class="cls-2" x="357.12" y="189.67" width="8.33" height="6.51"/></clipPath></defs><g id="Calque_5" data-name="Calque 5"><path class="cls-3" d="M380.48,189.54s-4.69,3.69-7.42,3.69c-2.58,0-7-3.6-7-3.6s5.4.73,7.21.72S380.48,189.54,380.48,189.54Z"/><ellipse class="cls-4" cx="354.12" cy="166.24" rx="6.73" ry="6.48"/><ellipse class="cls-5" cx="395.72" cy="165.7" rx="19.64" ry="19.88"/><ellipse class="cls-5" cx="350.1" cy="165.7" rx="19.64" ry="19.88"/><rect class="cls-6" x="414.6" y="158.58" width="5.95" height="10.32"/><g class="cls-7"><rect class="cls-8" x="415.74" y="159.72" width="3.68" height="8.03"/></g><rect class="cls-9" x="414.6" y="158.58" width="5.95" height="10.32"/><rect class="cls-6" x="324.71" y="158.58" width="5.95" height="10.32"/><g class="cls-10"><rect class="cls-8" x="325.84" y="159.72" width="3.68" height="8.03"/></g><rect class="cls-9" x="324.71" y="158.58" width="5.95" height="10.32"/><path class="cls-5" d="M369.66,166.91s-.23-3.62,3.13-3.59c3,0,3.31,3.38,3.31,3.38"/><path class="cls-11" d="M363.56,203.36s5.71,4.39,9.4,3.91c2.83-.36,9.3-4.1,9.3-4.1"/><path class="cls-11" d="M382.26,203.17,373,206c-2.87.48-6.43-2.08-9.4-3"/><path class="cls-12" d="M365.77,190.36s5.66,3.37,7.56,3.32,7.06-3.3,7.06-3.3"/><g class="cls-13"><path class="cls-14" d="M385.1,154.08s4.56-2.86,11.88,0a44.53,44.53,0,0,1,6.2,3.11"/></g><g class="cls-15"><path class="cls-14" d="M360.81,154.08s-4.55-2.86-11.88,0a44.53,44.53,0,0,0-6.2,3.11"/></g><circle class="cls-16" cx="354.12" cy="166.24" r="4.5"/><g id="_Répétition_miroir_" data-name="&lt;Répétition miroir&gt;"><g class="cls-17"><path class="cls-18" d="M381.94,190.67s4.67,3.42,6.32,4.51"/></g></g><g id="_Répétition_miroir_2" data-name="&lt;Répétition miroir&gt;"><g class="cls-19"><path class="cls-18" d="M364.45,190.67s-4.68,3.42-6.33,4.51"/></g></g></g><g id="Calque_3" data-name="Calque 3"><path d="M403.31,165.92a2.3,2.3,0,0,1-2.92.56c-1.78-1-7-1.08-9-.48-2.67.78-5.84,1.9-6.69.35-.14-.26,1.49-2.93,6.94-3.23s9.21,2.54,11.68,2.8Z"/></g></svg>