<svg id="Calque_3" data-name="Calque 3" xmlns="http://www.w3.org/2000/svg" xmlns:xlink="http://www.w3.org/1999/xlink" viewBox="0 0 788 1005.1"><defs><style>.cls-1,.cls-10,.cls-13{fill:none;}.cls-2,.cls-3,.cls-4{fill:#645d5d;}.cls-3{clip-path:url(#clip-path);}.cls-4{clip-path:url(#clip-path-2);}.cls-5{clip-path:url(#clip-path-3);}.cls-6{clip-path:url(#clip-path-4);}.cls-7{fill:#802d31;}.cls-8{fill:#ad7469;}.cls-9{clip-path:url(#clip-path-5);}.cls-10{stroke:#ad7469;}.cls-10,.cls-13{stroke-linecap:round;stroke-miterlimit:10;stroke-width:2px;}.cls-11{clip-path:url(#clip-path-6);}.cls-12{clip-path:url(#clip-path-7);}.cls-13{stroke:#cdcdcd;}.cls-14{clip-path:url(#clip-path-8);}.cls-15{clip-path:url(#clip-path-9);}.cls-16{fill:#fff;}.cls-17{clip-path:url(#clip-path-10);}.cls-18{clip-path:url(#clip-path-11);}.cls-19{fill:#050505;}.cls-20{clip-path:url(#clip-path-12);}.cls-21{fill:#b85d40;}.cls-22{fill:#d8d5d4;}</style><clipPath id="clip-path"><rect class="cls-2" x="414.6" y="158.6" width="5.9" height="10.32"/></clipPath><clipPath id="clip-path-2"><rect class="cls-2" x="324.7" y="158.6" width="5.9" height="10.32"/></clipPath><clipPath id="clip-path-3"><path class="cls-3" d="M421.1,169.4h-7V158.1h7Zm-6-1h5v-9.3h-5Z"/></clipPath><clipPath id="clip-path-4"><path class="cls-4" d="M331.2,169.4h-7V158.1h7Zm-6-1h5v-9.3h-5Z"/></clipPath><clipPath id="clip-path-5"><rect class="cls-1" x="381.5" y="188.3" width="7.8" height="7.93"/></clipPath><clipPath id="clip-path-6"><rect class="cls-1" x="357.1" y="188.3" width="7.8" height="7.93"/></clipPath><clipPath id="clip-path-7"><rect class="cls-1" x="386.1" y="149.9" width="16.8" height="12.82"/></clipPath><clipPath id="clip-path-8"><rect class="cls-1" x="343" y="149.9" width="16.8" height="12.82"/></clipPath><clipPath id="clip-path-9"><polygon class="cls-1" points="382.1 159.8 382.1 159.8 395.6 159.8 395.6 172.7 382.1 172.7 382.1 159.8"/></clipPath><clipPath id="clip-path-10"><polygon class="cls-1" points="360.8 159.8 360.8 159.8 347.3 159.8 347.3 172.7 360.8 172.7 360.8 159.8"/></clipPath><clipPath id="clip-path-11"><polygon class="cls-1" points="384.6 161.7 384.6 161.7 393.6 161.7 393.6 170.7 384.6 170.7 384.6 161.7"/></clipPath><clipPath id="clip-path-12"><polygon class="cls-1" points="358.3 161.7 358.3 161.7 349.3 161.7 349.3 170.7 358.3 170.7 358.3 161.7"/></clipPath></defs><path class="cls-2" d="M395.7,186.6a20.9,20.9,0,1,1,20.7-20.9A20.8,20.8,0,0,1,395.7,186.6Zm0-39.8a18.9,18.9,0,1,0,18.7,18.9A18.8,18.8,0,0,0,395.7,146.8Z"/><path class="cls-2" d="M350.1,186.6a20.9,20.9,0,1,1,20.6-20.9A20.8,20.8,0,0,1,350.1,186.6Zm0-39.8a18.9,18.9,0,1,0,18.6,18.9A18.8,18.8,0,0,0,350.1,146.8Z"/><rect class="cls-2" x="414.6" y="158.6" width="5.9" height="10.32"/><path class="cls-2" d="M421.1,169.4h-7V158.1h7Zm-6-1h5v-9.3h-5Z"/><g class="cls-5"><rect class="cls-2" x="415.7" y="159.7" width="3.7" height="8.03"/><path class="cls-2" d="M420.4,168.8h-5.7V158.7h5.7Zm-3.7-2h1.7v-6.1h-1.7Z"/></g><rect class="cls-2" x="324.7" y="158.6" width="5.9" height="10.32"/><path class="cls-2" d="M331.2,169.4h-7V158.1h7Zm-6-1h5v-9.3h-5Z"/><g class="cls-6"><rect class="cls-2" x="325.8" y="159.7" width="3.7" height="8.03"/><path class="cls-2" d="M330.5,168.8h-5.7V158.7h5.7Zm-3.7-2h1.7v-6.1h-1.7Z"/></g><path class="cls-2" d="M368.7,167a5.2,5.2,0,0,1,1.1-3.5,3.8,3.8,0,0,1,3-1.2c3.1,0,4.2,2.8,4.3,4.3l-2,.2c0-.3-.3-2.5-2.3-2.5a1.8,1.8,0,0,0-1.5.6,2.7,2.7,0,0,0-.6,1.9Z"/><path class="cls-7" d="M363.5,204.4a1,1,0,0,1-.9-.7,1,1,0,0,1,.6-1.3l4.5-1.5a16.8,16.8,0,0,1,10.4-.2l4.4,1.3a1,1,0,1,1-.5,1.9l-4.5-1.3a15.2,15.2,0,0,0-9.2.2l-4.5,1.5Z"/><path class="cls-8" d="M373.3,194.7c-2.1,0-7.1-2.9-8-3.5a1,1,0,0,1-.4-1.4,1.1,1.1,0,0,1,1.4-.3c2.2,1.3,5.8,3.2,7,3.2h0c1.2-.1,4.5-1.9,6.6-3.2a1,1,0,0,1,1.3.3,1,1,0,0,1-.3,1.4c-.9.6-5.4,3.4-7.5,3.5Z"/><g class="cls-9"><path class="cls-10" d="M382.5,189.3s4.2,4.5,5.8,5.9"/></g><g class="cls-11"><path class="cls-10" d="M363.9,189.3s-4.2,4.5-5.8,5.9"/></g><g id="_Répétition_miroir_3" data-name="&lt;Répétition miroir&gt;"><g class="cls-12"><path class="cls-13" d="M387.1,151s5.3-.6,10.6,5.2a41.8,41.8,0,0,1,4.2,5.6"/></g></g><g id="_Répétition_miroir_4" data-name="&lt;Répétition miroir&gt;"><g class="cls-14"><path class="cls-13" d="M358.8,151s-5.3-.6-10.6,5.2a41.8,41.8,0,0,0-4.2,5.6"/></g></g><g class="cls-15"><ellipse class="cls-16" cx="388.8" cy="166.2" rx="6.7" ry="6.5"/></g><g class="cls-17"><ellipse class="cls-16" cx="354.1" cy="166.2" rx="6.7" ry="6.5"/></g><g class="cls-18"><circle class="cls-19" cx="389.1" cy="166.2" r="4.5"/></g><g class="cls-20"><circle class="cls-19" cx="353.8" cy="166.2" r="4.5"/></g><path class="cls-21" d="M380.5,189.5s-4.7,3.7-7.4,3.7-7-3.6-7-3.6,5.4.8,7.2.8S380.5,189.5,380.5,189.5Z"/><path class="cls-22" d="M339.9,209.3c.5-2.3,11.1-20.2,11.3-21.3s21.6-7.2,21.6-7.2l21,5.3s11.8,19.1,11.9,20.1S397,225.6,382,227.7c-2.1.3-15.2,1.1-20.1,0C351.8,225.6,339.9,209.3,339.9,209.3Z"/></svg>