<?xml version="1.0" encoding="utf-8"?>
<!-- Generator: Adobe Illustrator 26.0.1, SVG Export Plug-In . SVG Version: 6.00 Build 0)  -->
<svg version="1.1" id="Calque_6" xmlns="http://www.w3.org/2000/svg" xmlns:xlink="http://www.w3.org/1999/xlink" x="0px" y="0px"
	 viewBox="0 0 788 1005.1" style="enable-background:new 0 0 788 1005.1;" xml:space="preserve">
<style type="text/css">
	.st0{fill:none;stroke:#802D31;stroke-width:2;stroke-linecap:round;stroke-miterlimit:10;}
	.st1{clip-path:url(#SVGID_00000119103956842857864150000001631499133340022711_);}
	.st2{fill:none;stroke:#FFFFFF;stroke-width:2;stroke-linecap:round;stroke-miterlimit:10;}
	.st3{clip-path:url(#SVGID_00000047771163318019138230000007157687773935789696_);}
	.st4{fill:none;stroke:#7D4030;stroke-width:2;stroke-linecap:round;stroke-miterlimit:10;}
	.st5{fill:#7D4030;}
	
		.st6{clip-path:url(#SVGID_00000141449087577718002290000011563085170388074393_);fill:none;stroke:#7D4030;stroke-width:2;stroke-linecap:round;stroke-miterlimit:10;}
	
		.st7{clip-path:url(#SVGID_00000131340256983751548480000003889105500795877268_);fill:none;stroke:#7D4030;stroke-width:2;stroke-linecap:round;stroke-miterlimit:10;}
	.st8{fill:none;stroke:#141414;stroke-width:2;stroke-miterlimit:10;}
	.st9{clip-path:url(#SVGID_00000071548461068191789160000003092924768933934244_);}
	.st10{fill:#1E1E1E;}
	.st11{clip-path:url(#SVGID_00000047044273415502215210000000627309097430903989_);}
</style>
<path class="st0" d="M363.6,203.4c0,0,5.7,4.4,9.4,3.9c2.8-0.4,9.3-4.1,9.3-4.1"/>
<path class="st0" d="M382.3,203.2L373,206c-2.9,0.5-6.4-2.1-9.4-3"/>
<g>
	<g>
		<defs>
			<rect id="SVGID_1_" x="384.1" y="151.8" width="20.1" height="6.4"/>
		</defs>
		<clipPath id="SVGID_00000035493245212228619110000000508620326773603215_">
			<use xlink:href="#SVGID_1_"  style="overflow:visible;"/>
		</clipPath>
		<g style="clip-path:url(#SVGID_00000035493245212228619110000000508620326773603215_);">
			<path class="st2" d="M385.1,154.1c0,0,4.6-2.9,11.9,0c2.1,0.9,4.2,1.9,6.2,3.1"/>
		</g>
	</g>
</g>
<g>
	<g>
		<defs>
			<rect id="SVGID_00000082344263922498062660000004423217897159851665_" x="341.7" y="151.8" width="20.1" height="6.4"/>
		</defs>
		<clipPath id="SVGID_00000032633581725903707440000015726123985193288105_">
			<use xlink:href="#SVGID_00000082344263922498062660000004423217897159851665_"  style="overflow:visible;"/>
		</clipPath>
		<g style="clip-path:url(#SVGID_00000032633581725903707440000015726123985193288105_);">
			<path class="st2" d="M360.8,154.1c0,0-4.5-2.9-11.9,0c-2.1,0.9-4.2,1.9-6.2,3.1"/>
		</g>
	</g>
</g>
<path d="M403.3,165.9c-0.7,0.9-1.9,1.1-2.9,0.6c-1.8-1-7-1.1-9-0.5c-2.7,0.8-5.8,1.9-6.7,0.4c-0.1-0.3,1.5-2.9,6.9-3.2
	S400.8,165.7,403.3,165.9L403.3,165.9z"/>
<path d="M343.5,167c0.7,0.9,1.9,1.1,2.9,0.6c1.8-1,7-1.1,9-0.5c2.7,0.8,5.8,1.9,6.7,0.3c0.1-0.3-1.5-2.9-6.9-3.2
	S346,166.8,343.5,167z"/>
<path class="st4" d="M365.8,190.4c0,0,5.7,3.4,7.6,3.3c1.9-0.1,7.1-3.3,7.1-3.3"/>
<g>
	<path class="st5" d="M380.5,189.5c0,0-4.7,3.7-7.4,3.7c-2.6,0-7-3.6-7-3.6s5.4,0.7,7.2,0.7C375.1,190.3,380.5,189.5,380.5,189.5z"
		/>
</g>
<path class="st4" d="M365.6,190.7c0,0,5.7,3.4,7.6,3.3c1.9-0.1,7.1-3.3,7.1-3.3"/>
<g>
	<g>
		<defs>
			<rect id="SVGID_00000108283221235053897860000013721056445575344274_" x="379.7" y="189.4" width="9.5" height="6.8"/>
		</defs>
		<clipPath id="SVGID_00000169548978179204147330000009162142741132224147_">
			<use xlink:href="#SVGID_00000108283221235053897860000013721056445575344274_"  style="overflow:visible;"/>
		</clipPath>
		
			<path style="clip-path:url(#SVGID_00000169548978179204147330000009162142741132224147_);fill:none;stroke:#7D4030;stroke-width:2;stroke-linecap:round;stroke-miterlimit:10;" d="
			M380.7,190.4c0,0,5.6,3.7,7.5,4.8"/>
	</g>
</g>
<g>
	<g>
		<defs>
			<rect id="SVGID_00000170977432338562287860000009357262145773248936_" x="357.1" y="189.4" width="9.5" height="6.8"/>
		</defs>
		<clipPath id="SVGID_00000031200861311782649350000011959725164613490360_">
			<use xlink:href="#SVGID_00000170977432338562287860000009357262145773248936_"  style="overflow:visible;"/>
		</clipPath>
		
			<path style="clip-path:url(#SVGID_00000031200861311782649350000011959725164613490360_);fill:none;stroke:#7D4030;stroke-width:2;stroke-linecap:round;stroke-miterlimit:10;" d="
			M365.6,190.4c0,0-5.6,3.7-7.5,4.8"/>
	</g>
</g>
<g>
	<ellipse class="st8" cx="395.7" cy="168.7" rx="19.6" ry="19.9"/>
	<ellipse class="st8" cx="350.1" cy="168.7" rx="19.6" ry="19.9"/>
	<g>
		<g>
			<defs>
				<rect id="SVGID_00000078755432247706157770000007947759982470049681_" x="414.6" y="161.6" width="6" height="10.3"/>
			</defs>
			<use xlink:href="#SVGID_00000078755432247706157770000007947759982470049681_"  style="overflow:visible;fill:#1E1E1E;"/>
			<clipPath id="SVGID_00000161594727084775238740000005624891461818691224_">
				<use xlink:href="#SVGID_00000078755432247706157770000007947759982470049681_"  style="overflow:visible;"/>
			</clipPath>
			<g style="clip-path:url(#SVGID_00000161594727084775238740000005624891461818691224_);">
				<rect x="415.7" y="162.7" class="st10" width="3.7" height="8"/>
			</g>
		</g>
	</g>
	<g>
		<g>
			<defs>
				<rect id="SVGID_00000000904632512016368530000011085075905779533730_" x="324.7" y="161.1" width="6" height="10.3"/>
			</defs>
			<use xlink:href="#SVGID_00000000904632512016368530000011085075905779533730_"  style="overflow:visible;fill:#1E1E1E;"/>
			<clipPath id="SVGID_00000151546033104355921200000008813027923238373249_">
				<use xlink:href="#SVGID_00000000904632512016368530000011085075905779533730_"  style="overflow:visible;"/>
			</clipPath>
			<g style="clip-path:url(#SVGID_00000151546033104355921200000008813027923238373249_);">
				<rect x="325.8" y="162.2" class="st10" width="3.7" height="8"/>
			</g>
		</g>
	</g>
	<path class="st8" d="M369.7,169.9c0,0-0.2-3.6,3.1-3.6c3,0,3.3,3.4,3.3,3.4"/>
</g>
</svg>
