<?xml version="1.0" encoding="utf-8"?>
<!-- Generator: Adobe Illustrator 26.0.1, SVG Export Plug-In . SVG Version: 6.00 Build 0)  -->
<svg version="1.1" id="Calque_1" xmlns="http://www.w3.org/2000/svg" xmlns:xlink="http://www.w3.org/1999/xlink" x="0px" y="0px"
	 viewBox="0 0 788 1005.1" style="enable-background:new 0 0 788 1005.1;" xml:space="preserve">
<style type="text/css">
	.st0{fill:none;stroke:#802D31;stroke-width:2;stroke-linecap:round;stroke-miterlimit:10;}
	.st1{fill:none;stroke:#AD7469;stroke-width:2;stroke-linecap:round;stroke-miterlimit:10;}
	.st2{clip-path:url(#SVGID_00000122687520343000574150000001426512269673285023_);}
	.st3{clip-path:url(#SVGID_00000103258301555764991070000011521799374484603307_);}
	.st4{clip-path:url(#SVGID_00000085954139718663825980000005385563290465034159_);}
	.st5{fill:none;stroke:#7C7C7C;stroke-width:2;stroke-linecap:round;stroke-miterlimit:10;}
	.st6{clip-path:url(#SVGID_00000155125498313817039070000005111408070297243545_);}
	.st7{clip-path:url(#SVGID_00000073700713628422754360000007926546283353038214_);}
	.st8{fill:#FFFFFF;}
	.st9{clip-path:url(#SVGID_00000116228256913327265840000010516976551730549431_);}
	.st10{clip-path:url(#SVGID_00000062165094679531461800000000253344539708103589_);}
	.st11{fill:#050505;}
	.st12{clip-path:url(#SVGID_00000080173391373284496840000009195581770103648673_);}
	.st13{fill:#B85D40;}
	.st14{fill:#D8D5D4;}
	.st15{fill:none;stroke:#141414;stroke-width:2;stroke-miterlimit:10;}
	.st16{clip-path:url(#SVGID_00000036968891745569478810000011700826417302273198_);}
	.st17{fill:#1E1E1E;}
	.st18{clip-path:url(#SVGID_00000142143370687337316910000009996337688157525950_);}
</style>
<g id="Calque_3">
	<path class="st0" d="M382.2,203l-4.4-1.3c-3.2-0.9-6.7-0.9-9.8,0.2l-4.5,1.5"/>
	<path class="st1" d="M365.8,190.4c0,0,5.7,3.4,7.6,3.3s7.1-3.3,7.1-3.3"/>
	<g>
		<defs>
			<rect id="SVGID_1_" x="381.5" y="188.2" width="7.8" height="7.9"/>
		</defs>
		<clipPath id="SVGID_00000029024973821693029540000006679510016109465249_">
			<use xlink:href="#SVGID_1_"  style="overflow:visible;"/>
		</clipPath>
		<g style="clip-path:url(#SVGID_00000029024973821693029540000006679510016109465249_);">
			<path class="st1" d="M382.5,189.2c0,0,4.2,4.5,5.8,5.9"/>
		</g>
	</g>
	<g>
		<defs>
			<rect id="SVGID_00000122690294061771936470000017109387334866895772_" x="357.1" y="188.2" width="7.8" height="7.9"/>
		</defs>
		<clipPath id="SVGID_00000181783193724302389880000014831728304373159043_">
			<use xlink:href="#SVGID_00000122690294061771936470000017109387334866895772_"  style="overflow:visible;"/>
		</clipPath>
		<g style="clip-path:url(#SVGID_00000181783193724302389880000014831728304373159043_);">
			<path class="st1" d="M363.9,189.2c0,0-4.2,4.5-5.8,5.9"/>
		</g>
	</g>
	<g id="_Repetition_miroir_">
		<g>
			<defs>
				<rect id="SVGID_00000005957111918718928340000012328437012054528897_" x="386.1" y="149.9" width="16.8" height="12.8"/>
			</defs>
			<clipPath id="SVGID_00000108271300677929027000000013555054060297617064_">
				<use xlink:href="#SVGID_00000005957111918718928340000012328437012054528897_"  style="overflow:visible;"/>
			</clipPath>
			<g style="clip-path:url(#SVGID_00000108271300677929027000000013555054060297617064_);">
				<path class="st5" d="M387.1,151c0,0,5.4-0.5,10.6,5.3c1.5,1.7,2.9,3.6,4.2,5.5"/>
			</g>
		</g>
	</g>
	<g id="_Repetition_miroir_2">
		<g>
			<defs>
				<rect id="SVGID_00000095325677704324696740000001740532871981907113_" x="343" y="149.9" width="16.8" height="12.8"/>
			</defs>
			<clipPath id="SVGID_00000005948410067223871550000014137597219388096694_">
				<use xlink:href="#SVGID_00000095325677704324696740000001740532871981907113_"  style="overflow:visible;"/>
			</clipPath>
			<g style="clip-path:url(#SVGID_00000005948410067223871550000014137597219388096694_);">
				<path class="st5" d="M358.8,151c0,0-5.4-0.5-10.6,5.3c-1.5,1.7-2.9,3.6-4.2,5.5"/>
			</g>
		</g>
	</g>
	<g>
		<defs>
			<polygon id="SVGID_00000088843006510751327240000012100279638943332492_" points="382.1,159.8 382.1,159.8 395.6,159.8 
				395.6,172.7 382.1,172.7 			"/>
		</defs>
		<clipPath id="SVGID_00000101098498907674527310000008782370819051265690_">
			<use xlink:href="#SVGID_00000088843006510751327240000012100279638943332492_"  style="overflow:visible;"/>
		</clipPath>
		<g style="clip-path:url(#SVGID_00000101098498907674527310000008782370819051265690_);">
			<ellipse class="st8" cx="388.9" cy="166.2" rx="6.7" ry="6.5"/>
		</g>
	</g>
	<g>
		<defs>
			<polygon id="SVGID_00000067919213799887977620000004451994814762942900_" points="360.8,159.8 360.8,159.8 347.3,159.8 
				347.3,172.7 360.8,172.7 			"/>
		</defs>
		<clipPath id="SVGID_00000011749711504319326030000013109762975000705163_">
			<use xlink:href="#SVGID_00000067919213799887977620000004451994814762942900_"  style="overflow:visible;"/>
		</clipPath>
		<g style="clip-path:url(#SVGID_00000011749711504319326030000013109762975000705163_);">
			<ellipse class="st8" cx="354.1" cy="166.2" rx="6.7" ry="6.5"/>
		</g>
	</g>
	<g>
		<defs>
			<polygon id="SVGID_00000031917716184488386340000001915015912820388025_" points="384.6,161.7 384.6,161.7 393.6,161.7 
				393.6,170.7 384.6,170.7 			"/>
		</defs>
		<clipPath id="SVGID_00000001658511729769049430000011718971814729528476_">
			<use xlink:href="#SVGID_00000031917716184488386340000001915015912820388025_"  style="overflow:visible;"/>
		</clipPath>
		<g style="clip-path:url(#SVGID_00000001658511729769049430000011718971814729528476_);">
			<circle class="st11" cx="389.1" cy="166.2" r="4.5"/>
		</g>
	</g>
	<g>
		<defs>
			<polygon id="SVGID_00000036220616822902450100000003477870573281775767_" points="358.3,161.7 358.3,161.7 349.3,161.7 
				349.3,170.7 358.3,170.7 			"/>
		</defs>
		<clipPath id="SVGID_00000106119398423397865260000011294597787008693414_">
			<use xlink:href="#SVGID_00000036220616822902450100000003477870573281775767_"  style="overflow:visible;"/>
		</clipPath>
		<g style="clip-path:url(#SVGID_00000106119398423397865260000011294597787008693414_);">
			<circle class="st11" cx="353.8" cy="166.2" r="4.5"/>
		</g>
	</g>
	<path class="st13" d="M380.5,189.5c0,0-4.7,3.7-7.4,3.7c-2.6,0-7-3.6-7-3.6s5.4,0.7,7.2,0.7S380.5,189.5,380.5,189.5z"/>
	<path class="st14" d="M339.9,209.3c0.5-2.3,11.1-20.2,11.3-21.3s21.5-7.2,21.5-7.2l21.1,5.3c0,0,11.8,19,11.9,20.1
		s-8.7,19.4-23.7,21.5c-2,0.3-15.2,1-20.1,0C351.8,225.6,339.9,209.3,339.9,209.3z"/>
</g>
<g>
	<ellipse class="st15" cx="395.7" cy="165.7" rx="19.6" ry="19.9"/>
	<ellipse class="st15" cx="350.1" cy="165.7" rx="19.6" ry="19.9"/>
	<g>
		<g>
			<defs>
				<rect id="SVGID_00000051373443742626014950000016270023924074834056_" x="414.6" y="158.6" width="6" height="10.3"/>
			</defs>
			<use xlink:href="#SVGID_00000051373443742626014950000016270023924074834056_"  style="overflow:visible;fill:#1E1E1E;"/>
			<clipPath id="SVGID_00000091706534470058983030000011643696831706361507_">
				<use xlink:href="#SVGID_00000051373443742626014950000016270023924074834056_"  style="overflow:visible;"/>
			</clipPath>
			<g style="clip-path:url(#SVGID_00000091706534470058983030000011643696831706361507_);">
				<rect x="415.7" y="159.7" class="st17" width="3.7" height="8"/>
			</g>
		</g>
	</g>
	<g>
		<g>
			<defs>
				<rect id="SVGID_00000085209462006522226310000016480053102352429471_" x="324.7" y="158.1" width="6" height="10.3"/>
			</defs>
			<use xlink:href="#SVGID_00000085209462006522226310000016480053102352429471_"  style="overflow:visible;fill:#1E1E1E;"/>
			<clipPath id="SVGID_00000170267644126070884050000003870168233923547294_">
				<use xlink:href="#SVGID_00000085209462006522226310000016480053102352429471_"  style="overflow:visible;"/>
			</clipPath>
			<g style="clip-path:url(#SVGID_00000170267644126070884050000003870168233923547294_);">
				<rect x="325.8" y="159.2" class="st17" width="3.7" height="8"/>
			</g>
		</g>
	</g>
	<path class="st15" d="M369.7,166.9c0,0-0.2-3.6,3.1-3.6c3,0,3.3,3.4,3.3,3.4"/>
</g>
</svg>
