<?xml version="1.0" encoding="utf-8"?>
<!-- Generator: Adobe Illustrator 26.0.1, SVG Export Plug-In . SVG Version: 6.00 Build 0)  -->
<svg version="1.1" id="Calque_1" xmlns="http://www.w3.org/2000/svg" xmlns:xlink="http://www.w3.org/1999/xlink" x="0px" y="0px"
	 viewBox="0 0 788 1005.1" style="enable-background:new 0 0 788 1005.1;" xml:space="preserve">
<style type="text/css">
	.st0{fill:none;stroke:#802D31;stroke-width:2;stroke-linecap:round;stroke-miterlimit:10;}
	.st1{fill:none;stroke:#AD7469;stroke-width:2;stroke-linecap:round;stroke-miterlimit:10;}
	.st2{clip-path:url(#SVGID_00000137816783908961003380000002921925286981902996_);}
	.st3{clip-path:url(#SVGID_00000080922783328680022240000011039139967682326662_);}
	.st4{clip-path:url(#SVGID_00000045600262856698222450000008369348038988929706_);}
	.st5{fill:none;stroke:#D3D3D3;stroke-width:2;stroke-linecap:round;stroke-miterlimit:10;}
	.st6{clip-path:url(#SVGID_00000105408816327461946850000007563149430594990488_);}
	.st7{clip-path:url(#SVGID_00000066509027077393309650000001285078067533924237_);}
	.st8{fill:#FFFFFF;}
	.st9{clip-path:url(#SVGID_00000037682347239676848110000000114001972607529891_);}
	.st10{clip-path:url(#SVGID_00000174580923142814358540000002575259999243395467_);}
	.st11{fill:#050505;}
	.st12{clip-path:url(#SVGID_00000103963950202926658150000011678312115595671466_);}
	.st13{fill:#B85D40;}
	.st14{fill:#D8D5D4;}
	.st15{fill:none;stroke:#141414;stroke-width:2;stroke-miterlimit:10;}
	.st16{clip-path:url(#SVGID_00000038372969870919395680000015877805320947752873_);}
	.st17{fill:#1E1E1E;}
	.st18{clip-path:url(#SVGID_00000011021127896659749940000007232912230845490560_);}
</style>
<g id="Calque_3">
	<path class="st0" d="M382.2,203l-4.4-1.3c-3.2-0.9-6.7-0.9-9.8,0.2l-4.5,1.5"/>
	<path class="st1" d="M365.8,190.4c0,0,5.7,3.4,7.6,3.3s7.1-3.3,7.1-3.3"/>
	<g>
		<defs>
			<rect id="SVGID_1_" x="381.5" y="188.2" width="7.8" height="7.9"/>
		</defs>
		<clipPath id="SVGID_00000092452002115701949090000016844588254254914984_">
			<use xlink:href="#SVGID_1_"  style="overflow:visible;"/>
		</clipPath>
		<g style="clip-path:url(#SVGID_00000092452002115701949090000016844588254254914984_);">
			<path class="st1" d="M382.5,189.2c0,0,4.2,4.5,5.8,5.9"/>
		</g>
	</g>
	<g>
		<defs>
			<rect id="SVGID_00000062186564288565567390000011962196226173517698_" x="357.1" y="188.2" width="7.8" height="7.9"/>
		</defs>
		<clipPath id="SVGID_00000032648570185635603740000003424501333720965309_">
			<use xlink:href="#SVGID_00000062186564288565567390000011962196226173517698_"  style="overflow:visible;"/>
		</clipPath>
		<g style="clip-path:url(#SVGID_00000032648570185635603740000003424501333720965309_);">
			<path class="st1" d="M363.9,189.2c0,0-4.2,4.5-5.8,5.9"/>
		</g>
	</g>
	<g id="_Repetition_miroir_">
		<g>
			<defs>
				<rect id="SVGID_00000150787283587755392200000013557211400486497437_" x="386.1" y="149.9" width="16.8" height="12.8"/>
			</defs>
			<clipPath id="SVGID_00000034792466968585841900000007017066989410740633_">
				<use xlink:href="#SVGID_00000150787283587755392200000013557211400486497437_"  style="overflow:visible;"/>
			</clipPath>
			<g style="clip-path:url(#SVGID_00000034792466968585841900000007017066989410740633_);">
				<path class="st5" d="M387.1,151c0,0,5.4-0.5,10.6,5.3c1.5,1.7,2.9,3.6,4.2,5.5"/>
			</g>
		</g>
	</g>
	<g id="_Repetition_miroir_2">
		<g>
			<defs>
				<rect id="SVGID_00000023246660017163267390000016829046149250859966_" x="343" y="149.9" width="16.8" height="12.8"/>
			</defs>
			<clipPath id="SVGID_00000153679984207091924900000005051879216233398975_">
				<use xlink:href="#SVGID_00000023246660017163267390000016829046149250859966_"  style="overflow:visible;"/>
			</clipPath>
			<g style="clip-path:url(#SVGID_00000153679984207091924900000005051879216233398975_);">
				<path class="st5" d="M358.8,151c0,0-5.4-0.5-10.6,5.3c-1.5,1.7-2.9,3.6-4.2,5.5"/>
			</g>
		</g>
	</g>
	<g>
		<defs>
			<polygon id="SVGID_00000108287281249734167650000003996722276366027962_" points="382.1,159.8 382.1,159.8 395.6,159.8 
				395.6,172.7 382.1,172.7 			"/>
		</defs>
		<clipPath id="SVGID_00000000945715219081959370000018237920068187772320_">
			<use xlink:href="#SVGID_00000108287281249734167650000003996722276366027962_"  style="overflow:visible;"/>
		</clipPath>
		<g style="clip-path:url(#SVGID_00000000945715219081959370000018237920068187772320_);">
			<ellipse class="st8" cx="388.9" cy="166.2" rx="6.7" ry="6.5"/>
		</g>
	</g>
	<g>
		<defs>
			<polygon id="SVGID_00000056409717625319908810000014757848664705696900_" points="360.8,159.8 360.8,159.8 347.3,159.8 
				347.3,172.7 360.8,172.7 			"/>
		</defs>
		<clipPath id="SVGID_00000116220314765851175790000002328231427465165732_">
			<use xlink:href="#SVGID_00000056409717625319908810000014757848664705696900_"  style="overflow:visible;"/>
		</clipPath>
		<g style="clip-path:url(#SVGID_00000116220314765851175790000002328231427465165732_);">
			<ellipse class="st8" cx="354.1" cy="166.2" rx="6.7" ry="6.5"/>
		</g>
	</g>
	<g>
		<defs>
			<polygon id="SVGID_00000103981284577927403880000011480529191402784438_" points="384.6,161.7 384.6,161.7 393.6,161.7 
				393.6,170.7 384.6,170.7 			"/>
		</defs>
		<clipPath id="SVGID_00000109025993826559366000000006314188696957463228_">
			<use xlink:href="#SVGID_00000103981284577927403880000011480529191402784438_"  style="overflow:visible;"/>
		</clipPath>
		<g style="clip-path:url(#SVGID_00000109025993826559366000000006314188696957463228_);">
			<circle class="st11" cx="389.1" cy="166.2" r="4.5"/>
		</g>
	</g>
	<g>
		<defs>
			<polygon id="SVGID_00000109752315779280384960000018277073544943797159_" points="358.3,161.7 358.3,161.7 349.3,161.7 
				349.3,170.7 358.3,170.7 			"/>
		</defs>
		<clipPath id="SVGID_00000031204431196453954720000011070709566042928779_">
			<use xlink:href="#SVGID_00000109752315779280384960000018277073544943797159_"  style="overflow:visible;"/>
		</clipPath>
		<g style="clip-path:url(#SVGID_00000031204431196453954720000011070709566042928779_);">
			<circle class="st11" cx="353.8" cy="166.2" r="4.5"/>
		</g>
	</g>
	<path class="st13" d="M380.5,189.5c0,0-4.7,3.7-7.4,3.7c-2.6,0-7-3.6-7-3.6s5.4,0.7,7.2,0.7S380.5,189.5,380.5,189.5z"/>
	<path class="st14" d="M339.9,209.3c0.5-2.3,11.1-20.2,11.3-21.3s21.5-7.2,21.5-7.2l21.1,5.3c0,0,11.8,19,11.9,20.1
		s-8.7,19.4-23.7,21.5c-2,0.3-15.2,1-20.1,0C351.8,225.6,339.9,209.3,339.9,209.3z"/>
</g>
<g>
	<ellipse class="st15" cx="395.7" cy="165.7" rx="19.6" ry="19.9"/>
	<ellipse class="st15" cx="350.1" cy="165.7" rx="19.6" ry="19.9"/>
	<g>
		<g>
			<defs>
				<rect id="SVGID_00000095309342420694003090000018434999272748100755_" x="414.6" y="158.6" width="6" height="10.3"/>
			</defs>
			<use xlink:href="#SVGID_00000095309342420694003090000018434999272748100755_"  style="overflow:visible;fill:#1E1E1E;"/>
			<clipPath id="SVGID_00000027586569075449410900000003107099752566355384_">
				<use xlink:href="#SVGID_00000095309342420694003090000018434999272748100755_"  style="overflow:visible;"/>
			</clipPath>
			<g style="clip-path:url(#SVGID_00000027586569075449410900000003107099752566355384_);">
				<rect x="415.7" y="159.7" class="st17" width="3.7" height="8"/>
			</g>
		</g>
	</g>
	<g>
		<g>
			<defs>
				<rect id="SVGID_00000078010039570902061960000014923927220874467999_" x="324.7" y="158.1" width="6" height="10.3"/>
			</defs>
			<use xlink:href="#SVGID_00000078010039570902061960000014923927220874467999_"  style="overflow:visible;fill:#1E1E1E;"/>
			<clipPath id="SVGID_00000158717636291178698540000005844475103241567874_">
				<use xlink:href="#SVGID_00000078010039570902061960000014923927220874467999_"  style="overflow:visible;"/>
			</clipPath>
			<g style="clip-path:url(#SVGID_00000158717636291178698540000005844475103241567874_);">
				<rect x="325.8" y="159.2" class="st17" width="3.7" height="8"/>
			</g>
		</g>
	</g>
	<path class="st15" d="M369.7,166.9c0,0-0.2-3.6,3.1-3.6c3,0,3.3,3.4,3.3,3.4"/>
</g>
</svg>
