<?xml version="1.0" encoding="utf-8"?>
<!-- Generator: Adobe Illustrator 26.0.1, SVG Export Plug-In . SVG Version: 6.00 Build 0)  -->
<svg version="1.1" id="Calque_1" xmlns="http://www.w3.org/2000/svg" xmlns:xlink="http://www.w3.org/1999/xlink" x="0px" y="0px"
	 viewBox="0 0 788 1005.1" style="enable-background:new 0 0 788 1005.1;" xml:space="preserve">
<style type="text/css">
	.st0{fill:none;stroke:#802D31;stroke-width:2;stroke-linecap:round;stroke-miterlimit:10;}
	.st1{fill:none;stroke:#AD7469;stroke-width:2;stroke-linecap:round;stroke-miterlimit:10;}
	.st2{clip-path:url(#SVGID_00000039824100848092819990000002044956963255690661_);}
	.st3{clip-path:url(#SVGID_00000052807080003106892150000000245970324800791424_);}
	.st4{clip-path:url(#SVGID_00000002376229476087931240000012805964528018450821_);}
	.st5{fill:none;stroke:#3D3D3D;stroke-width:2;stroke-linecap:round;stroke-miterlimit:10;}
	.st6{clip-path:url(#SVGID_00000081634555531886342010000002840437657613171350_);}
	.st7{clip-path:url(#SVGID_00000111871424828711839940000001893144914872788885_);}
	.st8{fill:#FFFFFF;}
	.st9{clip-path:url(#SVGID_00000022525779345122441020000006152453710806076077_);}
	.st10{clip-path:url(#SVGID_00000171708799851062349800000015519942943216596864_);}
	.st11{fill:#050505;}
	.st12{clip-path:url(#SVGID_00000030475676385909046150000012659916027610554268_);}
	.st13{fill:#B85D40;}
	.st14{fill:#D8D5D4;}
	.st15{fill:none;stroke:#141414;stroke-width:2;stroke-miterlimit:10;}
	.st16{clip-path:url(#SVGID_00000018232086691386890710000014796918007579396523_);}
	.st17{fill:#1E1E1E;}
	.st18{clip-path:url(#SVGID_00000116952286709845882600000002012580960185105814_);}
</style>
<g id="Calque_3">
	<path class="st0" d="M382.2,203l-4.4-1.3c-3.2-0.9-6.7-0.9-9.8,0.2l-4.5,1.5"/>
	<path class="st1" d="M365.8,190.4c0,0,5.7,3.4,7.6,3.3s7.1-3.3,7.1-3.3"/>
	<g>
		<defs>
			<rect id="SVGID_1_" x="381.5" y="188.2" width="7.8" height="7.9"/>
		</defs>
		<clipPath id="SVGID_00000075878270219066696210000015717604859474747271_">
			<use xlink:href="#SVGID_1_"  style="overflow:visible;"/>
		</clipPath>
		<g style="clip-path:url(#SVGID_00000075878270219066696210000015717604859474747271_);">
			<path class="st1" d="M382.5,189.2c0,0,4.2,4.5,5.8,5.9"/>
		</g>
	</g>
	<g>
		<defs>
			<rect id="SVGID_00000103987021714217598470000002431414466009984169_" x="357.1" y="188.2" width="7.8" height="7.9"/>
		</defs>
		<clipPath id="SVGID_00000161626742280605613700000016560894480877803148_">
			<use xlink:href="#SVGID_00000103987021714217598470000002431414466009984169_"  style="overflow:visible;"/>
		</clipPath>
		<g style="clip-path:url(#SVGID_00000161626742280605613700000016560894480877803148_);">
			<path class="st1" d="M363.9,189.2c0,0-4.2,4.5-5.8,5.9"/>
		</g>
	</g>
	<g id="_Repetition_miroir_">
		<g>
			<defs>
				<rect id="SVGID_00000093881767632472565440000012662075205979881110_" x="386.1" y="149.9" width="16.8" height="12.8"/>
			</defs>
			<clipPath id="SVGID_00000127736888490923317000000010810581149186210484_">
				<use xlink:href="#SVGID_00000093881767632472565440000012662075205979881110_"  style="overflow:visible;"/>
			</clipPath>
			<g style="clip-path:url(#SVGID_00000127736888490923317000000010810581149186210484_);">
				<path class="st5" d="M387.1,151c0,0,5.4-0.5,10.6,5.3c1.5,1.7,2.9,3.6,4.2,5.5"/>
			</g>
		</g>
	</g>
	<g id="_Repetition_miroir_2">
		<g>
			<defs>
				<rect id="SVGID_00000037650493154098082660000004562755226032467640_" x="343" y="149.9" width="16.8" height="12.8"/>
			</defs>
			<clipPath id="SVGID_00000020373584535594749620000000242679523388109484_">
				<use xlink:href="#SVGID_00000037650493154098082660000004562755226032467640_"  style="overflow:visible;"/>
			</clipPath>
			<g style="clip-path:url(#SVGID_00000020373584535594749620000000242679523388109484_);">
				<path class="st5" d="M358.8,151c0,0-5.4-0.5-10.6,5.3c-1.5,1.7-2.9,3.6-4.2,5.5"/>
			</g>
		</g>
	</g>
	<g>
		<defs>
			<polygon id="SVGID_00000060014504565170661340000004918058401734852772_" points="382.1,159.8 382.1,159.8 395.6,159.8 
				395.6,172.7 382.1,172.7 			"/>
		</defs>
		<clipPath id="SVGID_00000105393196674419711280000013996901681795997314_">
			<use xlink:href="#SVGID_00000060014504565170661340000004918058401734852772_"  style="overflow:visible;"/>
		</clipPath>
		<g style="clip-path:url(#SVGID_00000105393196674419711280000013996901681795997314_);">
			<ellipse class="st8" cx="388.9" cy="166.2" rx="6.7" ry="6.5"/>
		</g>
	</g>
	<g>
		<defs>
			<polygon id="SVGID_00000152233315857405976140000003784637960893087107_" points="360.8,159.8 360.8,159.8 347.3,159.8 
				347.3,172.7 360.8,172.7 			"/>
		</defs>
		<clipPath id="SVGID_00000174588864554769308110000000108084745125040544_">
			<use xlink:href="#SVGID_00000152233315857405976140000003784637960893087107_"  style="overflow:visible;"/>
		</clipPath>
		<g style="clip-path:url(#SVGID_00000174588864554769308110000000108084745125040544_);">
			<ellipse class="st8" cx="354.1" cy="166.2" rx="6.7" ry="6.5"/>
		</g>
	</g>
	<g>
		<defs>
			<polygon id="SVGID_00000141426578826516158330000016459583286390183571_" points="384.6,161.7 384.6,161.7 393.6,161.7 
				393.6,170.7 384.6,170.7 			"/>
		</defs>
		<clipPath id="SVGID_00000080907770358901319830000015221448156560024766_">
			<use xlink:href="#SVGID_00000141426578826516158330000016459583286390183571_"  style="overflow:visible;"/>
		</clipPath>
		<g style="clip-path:url(#SVGID_00000080907770358901319830000015221448156560024766_);">
			<circle class="st11" cx="389.1" cy="166.2" r="4.5"/>
		</g>
	</g>
	<g>
		<defs>
			<polygon id="SVGID_00000062908867525620139480000000899753138750986942_" points="358.3,161.7 358.3,161.7 349.3,161.7 
				349.3,170.7 358.3,170.7 			"/>
		</defs>
		<clipPath id="SVGID_00000082352639813102702270000000922861525152899763_">
			<use xlink:href="#SVGID_00000062908867525620139480000000899753138750986942_"  style="overflow:visible;"/>
		</clipPath>
		<g style="clip-path:url(#SVGID_00000082352639813102702270000000922861525152899763_);">
			<circle class="st11" cx="353.8" cy="166.2" r="4.5"/>
		</g>
	</g>
	<path class="st13" d="M380.5,189.5c0,0-4.7,3.7-7.4,3.7c-2.6,0-7-3.6-7-3.6s5.4,0.7,7.2,0.7S380.5,189.5,380.5,189.5z"/>
	<path class="st14" d="M339.9,209.3c0.5-2.3,11.1-20.2,11.3-21.3s21.5-7.2,21.5-7.2l21.1,5.3c0,0,11.8,19,11.9,20.1
		s-8.7,19.4-23.7,21.5c-2,0.3-15.2,1-20.1,0C351.8,225.6,339.9,209.3,339.9,209.3z"/>
</g>
<g>
	<ellipse class="st15" cx="395.7" cy="165.7" rx="19.6" ry="19.9"/>
	<ellipse class="st15" cx="350.1" cy="165.7" rx="19.6" ry="19.9"/>
	<g>
		<g>
			<defs>
				<rect id="SVGID_00000178186266884357368500000003102332912609818783_" x="414.6" y="158.6" width="6" height="10.3"/>
			</defs>
			<use xlink:href="#SVGID_00000178186266884357368500000003102332912609818783_"  style="overflow:visible;fill:#1E1E1E;"/>
			<clipPath id="SVGID_00000112595070910596664630000002142586630865693317_">
				<use xlink:href="#SVGID_00000178186266884357368500000003102332912609818783_"  style="overflow:visible;"/>
			</clipPath>
			<g style="clip-path:url(#SVGID_00000112595070910596664630000002142586630865693317_);">
				<rect x="415.7" y="159.7" class="st17" width="3.7" height="8"/>
			</g>
		</g>
	</g>
	<g>
		<g>
			<defs>
				<rect id="SVGID_00000104677272583916481190000002115097035190426815_" x="324.7" y="158.1" width="6" height="10.3"/>
			</defs>
			<use xlink:href="#SVGID_00000104677272583916481190000002115097035190426815_"  style="overflow:visible;fill:#1E1E1E;"/>
			<clipPath id="SVGID_00000123418524200212334130000010643962386101518241_">
				<use xlink:href="#SVGID_00000104677272583916481190000002115097035190426815_"  style="overflow:visible;"/>
			</clipPath>
			<g style="clip-path:url(#SVGID_00000123418524200212334130000010643962386101518241_);">
				<rect x="325.8" y="159.2" class="st17" width="3.7" height="8"/>
			</g>
		</g>
	</g>
	<path class="st15" d="M369.7,166.9c0,0-0.2-3.6,3.1-3.6c3,0,3.3,3.4,3.3,3.4"/>
</g>
</svg>
