<svg id="Calque_6" data-name="Calque 6" xmlns="http://www.w3.org/2000/svg" xmlns:xlink="http://www.w3.org/1999/xlink" viewBox="0 0 788 1005.07"><defs><style>.cls-1,.cls-5,.cls-7{fill:#645d5d;}.cls-1,.cls-4,.cls-7,.cls-8{stroke:#645d5d;}.cls-1,.cls-10,.cls-11,.cls-15,.cls-4,.cls-7,.cls-8{stroke-miterlimit:10;}.cls-10,.cls-11,.cls-15,.cls-2,.cls-4,.cls-8{fill:none;}.cls-3{fill:#b85d40;}.cls-10,.cls-11,.cls-15,.cls-4,.cls-7{stroke-width:2px;}.cls-6{clip-path:url(#clip-path);}.cls-9{clip-path:url(#clip-path-2);}.cls-10{stroke:#802d31;}.cls-10,.cls-11,.cls-15{stroke-linecap:round;}.cls-11{stroke:#ad7469;}.cls-12{clip-path:url(#clip-path-3);}.cls-13{clip-path:url(#clip-path-4);}.cls-14{clip-path:url(#clip-path-5);}.cls-15{stroke:#cdcdcd;}.cls-16{clip-path:url(#clip-path-6);}</style><clipPath id="clip-path"><rect class="cls-1" x="414.6" y="158.58" width="5.95" height="10.32"/></clipPath><clipPath id="clip-path-2"><rect class="cls-1" x="324.71" y="158.58" width="5.95" height="10.32"/></clipPath><clipPath id="clip-path-3"><rect class="cls-2" x="381.51" y="188.25" width="7.75" height="7.93"/></clipPath><clipPath id="clip-path-4"><rect class="cls-2" x="357.12" y="188.25" width="7.75" height="7.93"/></clipPath><clipPath id="clip-path-5"><rect class="cls-2" x="384.1" y="151.81" width="20.08" height="6.37"/></clipPath><clipPath id="clip-path-6"><rect class="cls-2" x="341.73" y="151.81" width="20.08" height="6.37"/></clipPath></defs><path class="cls-3" d="M380.48,189.54s-4.69,3.69-7.42,3.69c-2.58,0-7-3.6-7-3.6s5.4.73,7.21.72S380.48,189.54,380.48,189.54Z"/><ellipse class="cls-4" cx="395.72" cy="165.7" rx="19.64" ry="19.88"/><ellipse class="cls-4" cx="350.1" cy="165.7" rx="19.64" ry="19.88"/><rect class="cls-5" x="414.6" y="158.58" width="5.95" height="10.32"/><g class="cls-6"><rect class="cls-7" x="415.74" y="159.72" width="3.68" height="8.03"/></g><rect class="cls-8" x="414.6" y="158.58" width="5.95" height="10.32"/><rect class="cls-5" x="324.71" y="158.58" width="5.95" height="10.32"/><g class="cls-9"><rect class="cls-7" x="325.84" y="159.72" width="3.68" height="8.03"/></g><rect class="cls-8" x="324.71" y="158.58" width="5.95" height="10.32"/><path class="cls-4" d="M369.66,166.91s-.23-3.62,3.13-3.59c3,0,3.31,3.38,3.31,3.38"/><path class="cls-10" d="M363.56,203.36s5.71,4.39,9.4,3.91c2.83-.36,9.3-4.1,9.3-4.1"/><path class="cls-10" d="M382.26,203.17,373,206c-2.87.48-6.43-2.08-9.4-3"/><path class="cls-11" d="M365.77,190.36s5.66,3.37,7.56,3.32,7.06-3.3,7.06-3.3"/><g class="cls-12"><path class="cls-11" d="M382.51,189.25s4.22,4.54,5.75,5.93"/></g><g class="cls-13"><path class="cls-11" d="M363.87,189.25s-4.22,4.54-5.75,5.93"/></g><g class="cls-14"><path class="cls-15" d="M385.1,154.08s4.56-2.86,11.88,0a44.53,44.53,0,0,1,6.2,3.11"/></g><g class="cls-16"><path class="cls-15" d="M360.81,154.08s-4.55-2.86-11.88,0a44.53,44.53,0,0,0-6.2,3.11"/></g><path d="M403.31,165.92a2.3,2.3,0,0,1-2.92.56c-1.78-1-7-1.08-9-.48-2.67.78-5.84,1.9-6.69.35-.14-.26,1.49-2.93,6.94-3.23s9.21,2.54,11.68,2.8Z"/><path d="M343.5,167a2.3,2.3,0,0,0,2.92.56c1.79-1,7-1.07,9-.47,2.67.77,5.84,1.89,6.68.34.15-.26-1.48-2.92-6.93-3.22S346,166.78,343.5,167Z"/></svg>