<?xml version="1.0" encoding="utf-8"?>
<!-- Generator: Adobe Illustrator 26.0.1, SVG Export Plug-In . SVG Version: 6.00 Build 0)  -->
<svg version="1.1" id="Calque_1" xmlns="http://www.w3.org/2000/svg" xmlns:xlink="http://www.w3.org/1999/xlink" x="0px" y="0px"
	 viewBox="0 0 788 1005.1" style="enable-background:new 0 0 788 1005.1;" xml:space="preserve">
<style type="text/css">
	.st0{fill:#7C3838;}
	.st1{fill:#BCBCBC;}
	.st2{fill:none;stroke:#645D5D;stroke-width:2;stroke-miterlimit:10;}
	.st3{fill:#645D5D;}
	.st4{clip-path:url(#SVGID_00000183228779004473273380000012840245787502537617_);}
	.st5{fill:#645D5D;stroke:#645D5D;stroke-width:2;stroke-miterlimit:10;}
	.st6{fill:none;stroke:#645D5D;stroke-miterlimit:10;}
	.st7{clip-path:url(#SVGID_00000047029967285070825150000013611567245991102614_);}
	.st8{clip-path:url(#SVGID_00000049212309513417798310000010662233419728399005_);}
	.st9{fill:none;stroke:#CDCDCD;stroke-width:2;stroke-linecap:round;stroke-miterlimit:10;}
	.st10{clip-path:url(#SVGID_00000052821527005878082840000007090883695409934720_);}
	.st11{clip-path:url(#SVGID_00000009553788343308765120000000120271304631241100_);}
	.st12{fill:#FFFFFF;}
	.st13{clip-path:url(#SVGID_00000168117138382173319090000007666840156285003665_);}
	.st14{clip-path:url(#SVGID_00000090290624600404619020000011513963968443673238_);}
	.st15{fill:#050505;}
	.st16{clip-path:url(#SVGID_00000108275054758261542550000004721840666019302534_);}
	.st17{fill:none;stroke:#7D4030;stroke-width:2;stroke-linecap:round;stroke-miterlimit:10;}
	.st18{fill:#7D4030;}
	
		.st19{clip-path:url(#SVGID_00000093875803711207329910000010104464191144624558_);fill:none;stroke:#7D4030;stroke-width:2;stroke-linecap:round;stroke-miterlimit:10;}
	
		.st20{clip-path:url(#SVGID_00000181805234915725891070000012343792108937533321_);fill:none;stroke:#7D4030;stroke-width:2;stroke-linecap:round;stroke-miterlimit:10;}
</style>
<g id="Calque_3">
	<circle cx="355.9" cy="168.4" r="2.9"/>
	<circle cx="387.8" cy="168.4" r="2.9"/>
	<path class="st0" d="M359.9,200.5c0.2-0.6,1.2-1.4,3.1-2.2c3-1.2,6.1-1.8,9.3-1.8c5.2-0.1,10.2,1.8,13.9,5.3c0,0-4,10.3-13.9,9.6
		C365.1,210.8,359.9,200.5,359.9,200.5z"/>
	<path class="st1" d="M372.6,200.9l-7.2-0.3l-1.9-0.8c3.2-1.3,6.6-1.8,10.1-1.7c5.9,0.3,9.1,2.6,9.1,2.6l-1.5,0.7L372.6,200.9z"/>
	<ellipse class="st2" cx="395.7" cy="165.7" rx="19.6" ry="19.9"/>
	<ellipse class="st2" cx="350.1" cy="165.7" rx="19.6" ry="19.9"/>
	<rect x="414.6" y="158.6" class="st3" width="6" height="10.3"/>
	<g>
		<defs>
			<rect id="SVGID_1_" x="414.6" y="158.6" width="6" height="10.3"/>
		</defs>
		<clipPath id="SVGID_00000062166984811479734100000013251980447484615555_">
			<use xlink:href="#SVGID_1_"  style="overflow:visible;"/>
		</clipPath>
		<g style="clip-path:url(#SVGID_00000062166984811479734100000013251980447484615555_);">
			<rect x="415.7" y="159.7" class="st5" width="3.7" height="8"/>
		</g>
	</g>
	<rect x="414.6" y="158.6" class="st6" width="6" height="10.3"/>
	<rect x="324.7" y="158.6" class="st3" width="6" height="10.3"/>
	<g>
		<defs>
			<rect id="SVGID_00000057149512337909465020000012091198478941004990_" x="324.7" y="158.6" width="6" height="10.3"/>
		</defs>
		<clipPath id="SVGID_00000180350474528304752630000000647761133072192911_">
			<use xlink:href="#SVGID_00000057149512337909465020000012091198478941004990_"  style="overflow:visible;"/>
		</clipPath>
		<g style="clip-path:url(#SVGID_00000180350474528304752630000000647761133072192911_);">
			<rect x="325.8" y="159.7" class="st5" width="3.7" height="8"/>
		</g>
	</g>
	<rect x="324.7" y="158.6" class="st6" width="6" height="10.3"/>
	<path class="st2" d="M369.7,166.9c0,0-0.2-3.6,3.1-3.6c3,0,3.3,3.4,3.3,3.4"/>
	<g>
		<defs>
			<rect id="SVGID_00000100367248765892039800000000830157857815246740_" x="384" y="137.7" width="20.1" height="6.4"/>
		</defs>
		<clipPath id="SVGID_00000020383698857515164410000001331701874509158797_">
			<use xlink:href="#SVGID_00000100367248765892039800000000830157857815246740_"  style="overflow:visible;"/>
		</clipPath>
		<g style="clip-path:url(#SVGID_00000020383698857515164410000001331701874509158797_);">
			<path class="st9" d="M385,139.9c0,0,4.5-2.9,11.9,0c2.1,0.9,4.2,1.9,6.2,3.1"/>
		</g>
	</g>
	<g>
		<defs>
			<rect id="SVGID_00000170961954113869958810000005094609848693252287_" x="341.7" y="137.7" width="20.1" height="6.4"/>
		</defs>
		<clipPath id="SVGID_00000002374788350680393440000010165002335421139606_">
			<use xlink:href="#SVGID_00000170961954113869958810000005094609848693252287_"  style="overflow:visible;"/>
		</clipPath>
		<g style="clip-path:url(#SVGID_00000002374788350680393440000010165002335421139606_);">
			<path class="st9" d="M360.7,139.9c0,0-4.5-2.9-11.9,0c-2.1,0.9-4.2,1.9-6.2,3.1"/>
		</g>
	</g>
	<g id="_Repetition_miroir_">
		<g>
			<defs>
				<polygon id="SVGID_00000082327951600409510890000004595288076825983109_" points="383.1,159.8 383.1,159.8 396.6,159.8 
					396.6,172.7 383.1,172.7 				"/>
			</defs>
			<clipPath id="SVGID_00000090975339931175625510000000816160577416894870_">
				<use xlink:href="#SVGID_00000082327951600409510890000004595288076825983109_"  style="overflow:visible;"/>
			</clipPath>
			<g style="clip-path:url(#SVGID_00000090975339931175625510000000816160577416894870_);">
				<ellipse class="st12" cx="389.9" cy="166.2" rx="6.7" ry="6.5"/>
			</g>
		</g>
	</g>
	<g id="_Repetition_miroir_2">
		<g>
			<defs>
				<polygon id="SVGID_00000066497693442875419640000004526478832522681019_" points="361.8,159.8 361.8,159.8 348.3,159.8 
					348.3,172.7 361.8,172.7 				"/>
			</defs>
			<clipPath id="SVGID_00000011742711739817432260000001912457484553862316_">
				<use xlink:href="#SVGID_00000066497693442875419640000004526478832522681019_"  style="overflow:visible;"/>
			</clipPath>
			<g style="clip-path:url(#SVGID_00000011742711739817432260000001912457484553862316_);">
				<ellipse class="st12" cx="355.1" cy="166.2" rx="6.7" ry="6.5"/>
			</g>
		</g>
	</g>
	<g>
		<defs>
			<polygon id="SVGID_00000148624037671143585630000004793346325560416946_" points="386.1,161.7 386.1,161.7 395.1,161.7 
				395.1,170.7 386.1,170.7 			"/>
		</defs>
		<clipPath id="SVGID_00000087385555334693622310000007213783360073334179_">
			<use xlink:href="#SVGID_00000148624037671143585630000004793346325560416946_"  style="overflow:visible;"/>
		</clipPath>
		<g style="clip-path:url(#SVGID_00000087385555334693622310000007213783360073334179_);">
			<circle class="st15" cx="390.6" cy="166.2" r="4.5"/>
		</g>
	</g>
	<g>
		<defs>
			<polygon id="SVGID_00000078007941365572433970000012599150082893043893_" points="359.7,161.7 359.7,161.7 350.7,161.7 
				350.7,170.7 359.7,170.7 			"/>
		</defs>
		<clipPath id="SVGID_00000023246111071082533100000015629976889323548317_">
			<use xlink:href="#SVGID_00000078007941365572433970000012599150082893043893_"  style="overflow:visible;"/>
		</clipPath>
		<g style="clip-path:url(#SVGID_00000023246111071082533100000015629976889323548317_);">
			<circle class="st15" cx="355.2" cy="166.2" r="4.5"/>
		</g>
	</g>
	<path class="st17" d="M365.8,190.4c0,0,5.7,3.4,7.6,3.3c1.9-0.1,7.1-3.3,7.1-3.3"/>
	<g>
		<path class="st18" d="M380.5,189.5c0,0-4.7,3.7-7.4,3.7c-2.6,0-7-3.6-7-3.6s5.4,0.7,7.2,0.7C375.1,190.3,380.5,189.5,380.5,189.5z
			"/>
	</g>
	<path class="st17" d="M365.6,190.7c0,0,5.7,3.4,7.6,3.3c1.9-0.1,7.1-3.3,7.1-3.3"/>
	<g>
		<defs>
			<rect id="SVGID_00000063601402178616536950000003456535470215827340_" x="379.7" y="189.4" width="9.5" height="6.8"/>
		</defs>
		<clipPath id="SVGID_00000003086537448757310030000007151795511442217352_">
			<use xlink:href="#SVGID_00000063601402178616536950000003456535470215827340_"  style="overflow:visible;"/>
		</clipPath>
		
			<path style="clip-path:url(#SVGID_00000003086537448757310030000007151795511442217352_);fill:none;stroke:#7D4030;stroke-width:2;stroke-linecap:round;stroke-miterlimit:10;" d="
			M380.7,190.4c0,0,5.6,3.7,7.5,4.8"/>
	</g>
	<g>
		<defs>
			<rect id="SVGID_00000051381349945617426870000008773592634590204850_" x="357.1" y="189.4" width="9.5" height="6.8"/>
		</defs>
		<clipPath id="SVGID_00000182523174480541058810000006283896750254802589_">
			<use xlink:href="#SVGID_00000051381349945617426870000008773592634590204850_"  style="overflow:visible;"/>
		</clipPath>
		
			<path style="clip-path:url(#SVGID_00000182523174480541058810000006283896750254802589_);fill:none;stroke:#7D4030;stroke-width:2;stroke-linecap:round;stroke-miterlimit:10;" d="
			M365.6,190.4c0,0-5.6,3.7-7.5,4.8"/>
	</g>
</g>
</svg>
