<svg xmlns="http://www.w3.org/2000/svg" xmlns:xlink="http://www.w3.org/1999/xlink" viewBox="0 0 788 1005.07"><defs><style>.cls-1,.cls-5,.cls-7{fill:#645d5d;}.cls-1,.cls-4,.cls-7,.cls-8{stroke:#645d5d;}.cls-1,.cls-10,.cls-11,.cls-15,.cls-4,.cls-7,.cls-8{stroke-miterlimit:10;}.cls-10,.cls-11,.cls-15,.cls-2,.cls-4,.cls-8{fill:none;}.cls-3{fill:#4ca7f7;}.cls-10,.cls-11,.cls-15,.cls-4,.cls-7{stroke-width:2px;}.cls-6{clip-path:url(#clip-path);}.cls-9{clip-path:url(#clip-path-2);}.cls-10{stroke:#802d31;}.cls-10,.cls-11,.cls-15{stroke-linecap:round;}.cls-11{stroke:#ad7469;}.cls-12{clip-path:url(#clip-path-3);}.cls-13{clip-path:url(#clip-path-4);}.cls-14{clip-path:url(#clip-path-5);}.cls-15{stroke:#cdcdcd;}.cls-16{clip-path:url(#clip-path-6);}.cls-17{clip-path:url(#clip-path-7);}.cls-18{fill:#fff;}.cls-19{clip-path:url(#clip-path-8);}.cls-20{clip-path:url(#clip-path-9);}.cls-21{fill:#050505;}.cls-22{clip-path:url(#clip-path-10);}.cls-23{fill:#b85d40;}</style><clipPath id="clip-path"><rect class="cls-1" x="414.6" y="158.58" width="5.95" height="10.32"/></clipPath><clipPath id="clip-path-2"><rect class="cls-1" x="324.71" y="158.58" width="5.95" height="10.32"/></clipPath><clipPath id="clip-path-3"><rect class="cls-2" x="381.51" y="188.25" width="7.75" height="7.93"/></clipPath><clipPath id="clip-path-4"><rect class="cls-2" x="357.12" y="188.25" width="7.75" height="7.93"/></clipPath><clipPath id="clip-path-5"><rect class="cls-2" x="386.08" y="149.94" width="16.82" height="12.82"/></clipPath><clipPath id="clip-path-6"><rect class="cls-2" x="343.01" y="149.94" width="16.82" height="12.82"/></clipPath><clipPath id="clip-path-7"><polygon class="cls-2" points="382.12 159.76 382.12 159.76 395.58 159.76 395.58 172.72 382.12 172.72 382.12 159.76"/></clipPath><clipPath id="clip-path-8"><polygon class="cls-2" points="360.79 159.76 360.79 159.76 347.33 159.76 347.33 172.72 360.79 172.72 360.79 159.76"/></clipPath><clipPath id="clip-path-9"><polygon class="cls-2" points="384.65 161.74 384.65 161.74 393.65 161.74 393.65 170.74 384.65 170.74 384.65 161.74"/></clipPath><clipPath id="clip-path-10"><polygon class="cls-2" points="358.26 161.74 358.26 161.74 349.26 161.74 349.26 170.74 358.26 170.74 358.26 161.74"/></clipPath></defs><g id="Calque_3" data-name="Calque 3"><ellipse class="cls-3" cx="344.62" cy="190.36" rx="4.21" ry="4.78"/><ellipse class="cls-4" cx="395.72" cy="165.7" rx="19.64" ry="19.88"/><ellipse class="cls-4" cx="350.1" cy="165.7" rx="19.64" ry="19.88"/><rect class="cls-5" x="414.6" y="158.58" width="5.95" height="10.32"/><g class="cls-6"><rect class="cls-7" x="415.74" y="159.72" width="3.68" height="8.03"/></g><rect class="cls-8" x="414.6" y="158.58" width="5.95" height="10.32"/><rect class="cls-5" x="324.71" y="158.58" width="5.95" height="10.32"/><g class="cls-9"><rect class="cls-7" x="325.84" y="159.72" width="3.68" height="8.03"/></g><rect class="cls-8" x="324.71" y="158.58" width="5.95" height="10.32"/><path class="cls-4" d="M369.66,166.91s-.23-3.62,3.13-3.59c3,0,3.31,3.38,3.31,3.38"/><path class="cls-10" d="M382.25,203l-4.42-1.31a16.33,16.33,0,0,0-9.83.19l-4.48,1.52"/><path class="cls-11" d="M365.77,190.36s5.66,3.37,7.56,3.32,7.06-3.3,7.06-3.3"/><g class="cls-12"><path class="cls-11" d="M382.51,189.25s4.22,4.54,5.75,5.93"/></g><g class="cls-13"><path class="cls-11" d="M363.87,189.25s-4.22,4.54-5.75,5.93"/></g><g id="_Répétition_miroir_" data-name="&lt;Répétition miroir&gt;"><g class="cls-14"><path class="cls-15" d="M387.08,151s5.35-.54,10.64,5.27a44.68,44.68,0,0,1,4.18,5.53"/></g></g><g id="_Répétition_miroir_2" data-name="&lt;Répétition miroir&gt;"><g class="cls-16"><path class="cls-15" d="M358.83,151s-5.35-.54-10.64,5.27a44.68,44.68,0,0,0-4.18,5.53"/></g></g><g class="cls-17"><ellipse class="cls-18" cx="388.85" cy="166.24" rx="6.73" ry="6.48"/></g><g class="cls-19"><ellipse class="cls-18" cx="354.06" cy="166.24" rx="6.73" ry="6.48"/></g><g class="cls-20"><circle class="cls-21" cx="389.15" cy="166.24" r="4.5"/></g><g class="cls-22"><circle class="cls-21" cx="353.76" cy="166.24" r="4.5"/></g><path class="cls-23" d="M380.48,189.54s-4.69,3.69-7.42,3.69c-2.58,0-7-3.6-7-3.6s5.4.73,7.21.72S380.48,189.54,380.48,189.54Z"/></g></svg>