<svg id="Calque_6" data-name="Calque 6" xmlns="http://www.w3.org/2000/svg" xmlns:xlink="http://www.w3.org/1999/xlink" viewBox="0 0 148 115.26"><defs><style>.cls-1,.cls-5,.cls-7{fill:#645d5d;}.cls-1,.cls-4,.cls-7,.cls-8{stroke:#645d5d;}.cls-1,.cls-10,.cls-11,.cls-15,.cls-4,.cls-7,.cls-8{stroke-miterlimit:10;}.cls-10,.cls-11,.cls-15,.cls-2,.cls-4,.cls-8{fill:none;}.cls-3{fill:#b85d40;}.cls-10,.cls-11,.cls-15,.cls-4,.cls-7{stroke-width:2px;}.cls-6{clip-path:url(#clip-path);}.cls-9{clip-path:url(#clip-path-2);}.cls-10{stroke:#802d31;}.cls-10,.cls-11,.cls-15{stroke-linecap:round;}.cls-11{stroke:#ad7469;}.cls-12{clip-path:url(#clip-path-3);}.cls-13{clip-path:url(#clip-path-4);}.cls-14{clip-path:url(#clip-path-5);}.cls-15{stroke:#cdcdcd;}.cls-16{clip-path:url(#clip-path-6);}</style><clipPath id="clip-path"><rect class="cls-1" x="114.5" y="40.24" width="5.95" height="10.32"/></clipPath><clipPath id="clip-path-2"><rect class="cls-1" x="24.61" y="40.24" width="5.95" height="10.32"/></clipPath><clipPath id="clip-path-3"><rect class="cls-2" x="81.41" y="69.91" width="7.75" height="7.93"/></clipPath><clipPath id="clip-path-4"><rect class="cls-2" x="57.02" y="69.91" width="7.75" height="7.93"/></clipPath><clipPath id="clip-path-5"><rect class="cls-2" x="84" y="33.47" width="20.08" height="6.37"/></clipPath><clipPath id="clip-path-6"><rect class="cls-2" x="41.63" y="33.47" width="20.08" height="6.37"/></clipPath></defs><path class="cls-3" d="M80.38,71.2S75.69,74.89,73,74.88s-7-3.59-7-3.59,5.4.73,7.21.72S80.38,71.2,80.38,71.2Z"/><ellipse class="cls-4" cx="95.62" cy="47.36" rx="19.64" ry="19.88"/><ellipse class="cls-4" cx="50" cy="47.36" rx="19.64" ry="19.88"/><rect class="cls-5" x="114.5" y="40.24" width="5.95" height="10.32"/><g class="cls-6"><rect class="cls-7" x="115.63" y="41.38" width="3.68" height="8.03"/></g><rect class="cls-8" x="114.5" y="40.24" width="5.95" height="10.32"/><rect class="cls-5" x="24.61" y="40.24" width="5.95" height="10.32"/><g class="cls-9"><rect class="cls-7" x="25.74" y="41.38" width="3.68" height="8.03"/></g><rect class="cls-8" x="24.61" y="40.24" width="5.95" height="10.32"/><path class="cls-4" d="M69.56,48.57S69.32,45,72.69,45c3,0,3.31,3.38,3.31,3.38"/><path class="cls-10" d="M63.45,85s5.72,4.39,9.4,3.91c2.83-.36,9.3-4.1,9.3-4.1"/><path class="cls-10" d="M82.15,84.83l-9.3,2.83c-2.86.48-6.43-2.08-9.4-3"/><path class="cls-11" d="M65.66,72s5.66,3.38,7.56,3.33S80.28,72,80.28,72"/><g class="cls-12"><path class="cls-11" d="M82.41,70.91s4.22,4.54,5.75,5.92"/></g><g class="cls-13"><path class="cls-11" d="M63.77,70.91S59.55,75.45,58,76.83"/></g><g class="cls-14"><path class="cls-15" d="M85,35.74s4.55-2.86,11.87,0a45.09,45.09,0,0,1,6.2,3.1"/></g><g class="cls-16"><path class="cls-15" d="M60.7,35.74s-4.55-2.86-11.87,0a45.09,45.09,0,0,0-6.2,3.1"/></g><path d="M103.21,47.58a2.3,2.3,0,0,1-2.92.56c-1.79-1-7-1.08-9-.48-2.67.78-5.84,1.9-6.68.35-.15-.26,1.48-2.93,6.93-3.23s9.21,2.54,11.69,2.8Z"/><path d="M43.4,48.7a2.3,2.3,0,0,0,2.92.56c1.78-1,7-1.08,9-.47,2.68.77,5.84,1.89,6.69.34.15-.26-1.49-2.93-6.94-3.23s-9.21,2.54-11.68,2.8Z"/></svg>