<?xml version="1.0" encoding="utf-8"?>
<!-- Generator: Adobe Illustrator 26.0.1, SVG Export Plug-In . SVG Version: 6.00 Build 0)  -->
<svg version="1.1" id="Calque_1" xmlns="http://www.w3.org/2000/svg" xmlns:xlink="http://www.w3.org/1999/xlink" x="0px" y="0px"
	 viewBox="0 0 788 1005.1" style="enable-background:new 0 0 788 1005.1;" xml:space="preserve">
<style type="text/css">
	.st0{fill:none;stroke:#645D5D;stroke-width:2;stroke-miterlimit:10;}
	.st1{fill:#645D5D;}
	.st2{clip-path:url(#SVGID_00000108301516308205026140000016681500202365554569_);}
	.st3{fill:#645D5D;stroke:#645D5D;stroke-width:2;stroke-miterlimit:10;}
	.st4{fill:none;stroke:#645D5D;stroke-miterlimit:10;}
	.st5{clip-path:url(#SVGID_00000115487908269614230670000009525298034743614133_);}
	.st6{fill:#D9D9D9;stroke:#802D31;stroke-width:2;stroke-linecap:round;stroke-miterlimit:10;}
	.st7{stroke:#802D31;stroke-width:2;stroke-linecap:round;stroke-miterlimit:10;}
	.st8{clip-path:url(#SVGID_00000171698793541219206510000016391937888972979074_);}
	.st9{fill:none;stroke:#CDCDCD;stroke-width:2;stroke-linecap:round;stroke-miterlimit:10;}
	.st10{clip-path:url(#SVGID_00000114039684362150220920000009069215186210542500_);}
	.st11{clip-path:url(#SVGID_00000181064843085569438600000018248904305939704984_);}
	.st12{fill:#FFFFFF;}
	.st13{clip-path:url(#SVGID_00000072244039781529441410000011510565246030570134_);}
	.st14{clip-path:url(#SVGID_00000120525568395482628550000001705485696553424269_);}
	.st15{fill:#050505;}
	.st16{clip-path:url(#SVGID_00000083799324425697424610000009836663452923830453_);}
	.st17{fill:none;stroke:#7D4030;stroke-width:2;stroke-linecap:round;stroke-miterlimit:10;}
	.st18{fill:#7D4030;}
	
		.st19{clip-path:url(#SVGID_00000145743981533000793740000006583290902792876477_);fill:none;stroke:#7D4030;stroke-width:2;stroke-linecap:round;stroke-miterlimit:10;}
	
		.st20{clip-path:url(#SVGID_00000095318221944095367220000015733233236578335650_);fill:none;stroke:#7D4030;stroke-width:2;stroke-linecap:round;stroke-miterlimit:10;}
</style>
<g id="Calque_5">
	<ellipse class="st0" cx="395.7" cy="165.7" rx="19.6" ry="19.9"/>
	<ellipse class="st0" cx="350.1" cy="165.7" rx="19.6" ry="19.9"/>
	<rect x="414.6" y="158.6" class="st1" width="6" height="10.3"/>
	<g>
		<defs>
			<rect id="SVGID_1_" x="414.6" y="158.6" width="6" height="10.3"/>
		</defs>
		<clipPath id="SVGID_00000092417479130091249080000014219733852673113768_">
			<use xlink:href="#SVGID_1_"  style="overflow:visible;"/>
		</clipPath>
		<g style="clip-path:url(#SVGID_00000092417479130091249080000014219733852673113768_);">
			<rect x="415.7" y="159.7" class="st3" width="3.7" height="8"/>
		</g>
	</g>
	<rect x="414.6" y="158.6" class="st4" width="6" height="10.3"/>
	<rect x="324.7" y="158.6" class="st1" width="6" height="10.3"/>
	<g>
		<defs>
			<rect id="SVGID_00000122679493539338645900000017301851701757215140_" x="324.7" y="158.6" width="6" height="10.3"/>
		</defs>
		<clipPath id="SVGID_00000099658305513147748600000013912008646827616148_">
			<use xlink:href="#SVGID_00000122679493539338645900000017301851701757215140_"  style="overflow:visible;"/>
		</clipPath>
		<g style="clip-path:url(#SVGID_00000099658305513147748600000013912008646827616148_);">
			<rect x="325.8" y="159.7" class="st3" width="3.7" height="8"/>
		</g>
	</g>
	<rect x="324.7" y="158.6" class="st4" width="6" height="10.3"/>
	<path class="st0" d="M369.7,166.9c0,0-0.2-3.6,3.1-3.6c3,0,3.3,3.4,3.3,3.4"/>
	<path class="st6" d="M363.5,203.2c0,0,9.9,6.9,13.5,6.1c2-0.4,5.2-6.2,5.2-6.2"/>
	<polyline class="st7" points="382.2,203 372.7,201.5 363.5,203.4 	"/>
	<g>
		<defs>
			<rect id="SVGID_00000008124137440010615370000004087731230503633831_" x="381.5" y="188.2" width="7.8" height="7.9"/>
		</defs>
		<clipPath id="SVGID_00000108271334785563929070000007957434622166499509_">
			<use xlink:href="#SVGID_00000008124137440010615370000004087731230503633831_"  style="overflow:visible;"/>
		</clipPath>
	</g>
	<g>
		<defs>
			<rect id="SVGID_00000107559872415117776050000005701655313217618560_" x="384.1" y="151.8" width="20.1" height="6.4"/>
		</defs>
		<clipPath id="SVGID_00000047776931981376956730000000165886576647324305_">
			<use xlink:href="#SVGID_00000107559872415117776050000005701655313217618560_"  style="overflow:visible;"/>
		</clipPath>
		<g style="clip-path:url(#SVGID_00000047776931981376956730000000165886576647324305_);">
			<path class="st9" d="M385.1,154.1c0,0,4.6-2.9,11.9,0c2.1,0.9,4.2,1.9,6.2,3.1"/>
		</g>
	</g>
	<g>
		<defs>
			<rect id="SVGID_00000183238687287187671760000006724236302636912778_" x="341.7" y="151.8" width="20.1" height="6.4"/>
		</defs>
		<clipPath id="SVGID_00000139984114716079977650000009026881608161697695_">
			<use xlink:href="#SVGID_00000183238687287187671760000006724236302636912778_"  style="overflow:visible;"/>
		</clipPath>
		<g style="clip-path:url(#SVGID_00000139984114716079977650000009026881608161697695_);">
			<path class="st9" d="M360.8,154.1c0,0-4.5-2.9-11.9,0c-2.1,0.9-4.2,1.9-6.2,3.1"/>
		</g>
	</g>
	<g>
		<defs>
			<polygon id="SVGID_00000100377103779290978500000001915139723112475548_" points="382.1,159.8 382.1,159.8 395.6,159.8 
				395.6,172.7 382.1,172.7 			"/>
		</defs>
		<clipPath id="SVGID_00000060016215362827966940000017199584657566729600_">
			<use xlink:href="#SVGID_00000100377103779290978500000001915139723112475548_"  style="overflow:visible;"/>
		</clipPath>
		<g style="clip-path:url(#SVGID_00000060016215362827966940000017199584657566729600_);">
			<ellipse class="st12" cx="388.9" cy="166.2" rx="6.7" ry="6.5"/>
		</g>
	</g>
	<g>
		<defs>
			<polygon id="SVGID_00000144313531777089840450000001139457577530963857_" points="360.8,159.8 360.8,159.8 347.3,159.8 
				347.3,172.7 360.8,172.7 			"/>
		</defs>
		<clipPath id="SVGID_00000111912256991467198340000003023180726618237855_">
			<use xlink:href="#SVGID_00000144313531777089840450000001139457577530963857_"  style="overflow:visible;"/>
		</clipPath>
		<g style="clip-path:url(#SVGID_00000111912256991467198340000003023180726618237855_);">
			<ellipse class="st12" cx="354.1" cy="166.2" rx="6.7" ry="6.5"/>
		</g>
	</g>
	<g>
		<defs>
			<polygon id="SVGID_00000132789661793278697600000001236212337557304251_" points="387.1,160.5 387.1,160.5 396.1,160.5 
				396.1,169.5 387.1,169.5 			"/>
		</defs>
		<clipPath id="SVGID_00000071542835263284509790000010638763977915495297_">
			<use xlink:href="#SVGID_00000132789661793278697600000001236212337557304251_"  style="overflow:visible;"/>
		</clipPath>
		<g style="clip-path:url(#SVGID_00000071542835263284509790000010638763977915495297_);">
			<circle class="st15" cx="391.6" cy="165" r="4.5"/>
		</g>
	</g>
	<g>
		<defs>
			<polygon id="SVGID_00000131336251793288524490000016292799538715480729_" points="360.8,160.5 360.8,160.5 351.8,160.5 
				351.8,169.5 360.8,169.5 			"/>
		</defs>
		<clipPath id="SVGID_00000130612700636450312480000002783877606192941734_">
			<use xlink:href="#SVGID_00000131336251793288524490000016292799538715480729_"  style="overflow:visible;"/>
		</clipPath>
		<g style="clip-path:url(#SVGID_00000130612700636450312480000002783877606192941734_);">
			<circle class="st15" cx="356.3" cy="165" r="4.5"/>
		</g>
	</g>
</g>
<path class="st17" d="M365.8,190.4c0,0,5.7,3.4,7.6,3.3c1.9-0.1,7.1-3.3,7.1-3.3"/>
<g>
	<path class="st18" d="M380.5,189.5c0,0-4.7,3.7-7.4,3.7c-2.6,0-7-3.6-7-3.6s5.4,0.7,7.2,0.7C375.1,190.3,380.5,189.5,380.5,189.5z"
		/>
</g>
<path class="st17" d="M365.6,190.7c0,0,5.7,3.4,7.6,3.3c1.9-0.1,7.1-3.3,7.1-3.3"/>
<g>
	<defs>
		<rect id="SVGID_00000056403469649088651270000005601495193264035745_" x="379.7" y="189.4" width="9.5" height="6.8"/>
	</defs>
	<clipPath id="SVGID_00000173141391442385736950000013822661977439734667_">
		<use xlink:href="#SVGID_00000056403469649088651270000005601495193264035745_"  style="overflow:visible;"/>
	</clipPath>
	
		<path style="clip-path:url(#SVGID_00000173141391442385736950000013822661977439734667_);fill:none;stroke:#7D4030;stroke-width:2;stroke-linecap:round;stroke-miterlimit:10;" d="
		M380.7,190.4c0,0,5.6,3.7,7.5,4.8"/>
</g>
<g>
	<defs>
		<rect id="SVGID_00000067204993773901609070000004263868580642893959_" x="357.1" y="189.4" width="9.5" height="6.8"/>
	</defs>
	<clipPath id="SVGID_00000154399396558383895650000006781570773657589419_">
		<use xlink:href="#SVGID_00000067204993773901609070000004263868580642893959_"  style="overflow:visible;"/>
	</clipPath>
	
		<path style="clip-path:url(#SVGID_00000154399396558383895650000006781570773657589419_);fill:none;stroke:#7D4030;stroke-width:2;stroke-linecap:round;stroke-miterlimit:10;" d="
		M365.6,190.4c0,0-5.6,3.7-7.5,4.8"/>
</g>
</svg>
