<?xml version="1.0" encoding="utf-8"?>
<!-- Generator: Adobe Illustrator 26.0.1, SVG Export Plug-In . SVG Version: 6.00 Build 0)  -->
<svg version="1.1" id="Calque_6" xmlns="http://www.w3.org/2000/svg" xmlns:xlink="http://www.w3.org/1999/xlink" x="0px" y="0px"
	 viewBox="0 0 788 1005.1" style="enable-background:new 0 0 788 1005.1;" xml:space="preserve">
<style type="text/css">
	.st0{fill:none;stroke:#802D31;stroke-width:2;stroke-linecap:round;stroke-miterlimit:10;}
	.st1{clip-path:url(#SVGID_00000161623184497350040790000016382759954442459025_);}
	.st2{fill:none;stroke:#333333;stroke-width:2;stroke-linecap:round;stroke-miterlimit:10;}
	.st3{clip-path:url(#SVGID_00000064318715383388254020000015052541381931962507_);}
	.st4{fill:none;stroke:#7D4030;stroke-width:2;stroke-linecap:round;stroke-miterlimit:10;}
	.st5{fill:#7D4030;}
	
		.st6{clip-path:url(#SVGID_00000158745659920615565270000006737227557782270850_);fill:none;stroke:#7D4030;stroke-width:2;stroke-linecap:round;stroke-miterlimit:10;}
	
		.st7{clip-path:url(#SVGID_00000168100440825483071680000011787837394273299633_);fill:none;stroke:#7D4030;stroke-width:2;stroke-linecap:round;stroke-miterlimit:10;}
	.st8{fill:none;stroke:#141414;stroke-width:2;stroke-miterlimit:10;}
	.st9{clip-path:url(#SVGID_00000106833232001572335800000009253015996327252408_);}
	.st10{fill:#1E1E1E;}
	.st11{clip-path:url(#SVGID_00000016047688427370293260000014512604577048961208_);}
</style>
<path class="st0" d="M363.6,203.4c0,0,5.7,4.4,9.4,3.9c2.8-0.4,9.3-4.1,9.3-4.1"/>
<path class="st0" d="M382.3,203.2L373,206c-2.9,0.5-6.4-2.1-9.4-3"/>
<g>
	<g>
		<defs>
			<rect id="SVGID_1_" x="384.1" y="151.8" width="20.1" height="6.4"/>
		</defs>
		<clipPath id="SVGID_00000088839947082532290650000009878147904099714459_">
			<use xlink:href="#SVGID_1_"  style="overflow:visible;"/>
		</clipPath>
		<g style="clip-path:url(#SVGID_00000088839947082532290650000009878147904099714459_);">
			<path class="st2" d="M385.1,154.1c0,0,4.6-2.9,11.9,0c2.1,0.9,4.2,1.9,6.2,3.1"/>
		</g>
	</g>
</g>
<g>
	<g>
		<defs>
			<rect id="SVGID_00000162319819184619229270000013395588007644363951_" x="341.7" y="151.8" width="20.1" height="6.4"/>
		</defs>
		<clipPath id="SVGID_00000011740468501484427840000015922914769991975055_">
			<use xlink:href="#SVGID_00000162319819184619229270000013395588007644363951_"  style="overflow:visible;"/>
		</clipPath>
		<g style="clip-path:url(#SVGID_00000011740468501484427840000015922914769991975055_);">
			<path class="st2" d="M360.8,154.1c0,0-4.5-2.9-11.9,0c-2.1,0.9-4.2,1.9-6.2,3.1"/>
		</g>
	</g>
</g>
<path d="M403.3,165.9c-0.7,0.9-1.9,1.1-2.9,0.6c-1.8-1-7-1.1-9-0.5c-2.7,0.8-5.8,1.9-6.7,0.4c-0.1-0.3,1.5-2.9,6.9-3.2
	S400.8,165.7,403.3,165.9L403.3,165.9z"/>
<path d="M343.5,167c0.7,0.9,1.9,1.1,2.9,0.6c1.8-1,7-1.1,9-0.5c2.7,0.8,5.8,1.9,6.7,0.3c0.1-0.3-1.5-2.9-6.9-3.2
	S346,166.8,343.5,167z"/>
<path class="st4" d="M365.8,190.4c0,0,5.7,3.4,7.6,3.3c1.9-0.1,7.1-3.3,7.1-3.3"/>
<g>
	<path class="st5" d="M380.5,189.5c0,0-4.7,3.7-7.4,3.7c-2.6,0-7-3.6-7-3.6s5.4,0.7,7.2,0.7C375.1,190.3,380.5,189.5,380.5,189.5z"
		/>
</g>
<path class="st4" d="M365.6,190.7c0,0,5.7,3.4,7.6,3.3c1.9-0.1,7.1-3.3,7.1-3.3"/>
<g>
	<g>
		<defs>
			<rect id="SVGID_00000074416274158970586800000008873596800717128345_" x="379.7" y="189.4" width="9.5" height="6.8"/>
		</defs>
		<clipPath id="SVGID_00000176023928368328379960000001278852603190301582_">
			<use xlink:href="#SVGID_00000074416274158970586800000008873596800717128345_"  style="overflow:visible;"/>
		</clipPath>
		
			<path style="clip-path:url(#SVGID_00000176023928368328379960000001278852603190301582_);fill:none;stroke:#7D4030;stroke-width:2;stroke-linecap:round;stroke-miterlimit:10;" d="
			M380.7,190.4c0,0,5.6,3.7,7.5,4.8"/>
	</g>
</g>
<g>
	<g>
		<defs>
			<rect id="SVGID_00000070810445683698264800000015694873240833914534_" x="357.1" y="189.4" width="9.5" height="6.8"/>
		</defs>
		<clipPath id="SVGID_00000097458303356259648230000009029186603741921968_">
			<use xlink:href="#SVGID_00000070810445683698264800000015694873240833914534_"  style="overflow:visible;"/>
		</clipPath>
		
			<path style="clip-path:url(#SVGID_00000097458303356259648230000009029186603741921968_);fill:none;stroke:#7D4030;stroke-width:2;stroke-linecap:round;stroke-miterlimit:10;" d="
			M365.6,190.4c0,0-5.6,3.7-7.5,4.8"/>
	</g>
</g>
<g>
	<ellipse class="st8" cx="395.7" cy="168.7" rx="19.6" ry="19.9"/>
	<ellipse class="st8" cx="350.1" cy="168.7" rx="19.6" ry="19.9"/>
	<g>
		<g>
			<defs>
				<rect id="SVGID_00000052105449588565105820000007790449505787435395_" x="414.6" y="161.6" width="6" height="10.3"/>
			</defs>
			<use xlink:href="#SVGID_00000052105449588565105820000007790449505787435395_"  style="overflow:visible;fill:#1E1E1E;"/>
			<clipPath id="SVGID_00000113338079261791577290000017182422083406818201_">
				<use xlink:href="#SVGID_00000052105449588565105820000007790449505787435395_"  style="overflow:visible;"/>
			</clipPath>
			<g style="clip-path:url(#SVGID_00000113338079261791577290000017182422083406818201_);">
				<rect x="415.7" y="162.7" class="st10" width="3.7" height="8"/>
			</g>
		</g>
	</g>
	<g>
		<g>
			<defs>
				<rect id="SVGID_00000005965735580498419620000014247432027759199378_" x="324.7" y="161.1" width="6" height="10.3"/>
			</defs>
			<use xlink:href="#SVGID_00000005965735580498419620000014247432027759199378_"  style="overflow:visible;fill:#1E1E1E;"/>
			<clipPath id="SVGID_00000130645161915502263320000016263239732768914323_">
				<use xlink:href="#SVGID_00000005965735580498419620000014247432027759199378_"  style="overflow:visible;"/>
			</clipPath>
			<g style="clip-path:url(#SVGID_00000130645161915502263320000016263239732768914323_);">
				<rect x="325.8" y="162.2" class="st10" width="3.7" height="8"/>
			</g>
		</g>
	</g>
	<path class="st8" d="M369.7,169.9c0,0-0.2-3.6,3.1-3.6c3,0,3.3,3.4,3.3,3.4"/>
</g>
</svg>
