<?xml version="1.0" encoding="utf-8"?>
<!-- Generator: Adobe Illustrator 26.0.1, SVG Export Plug-In . SVG Version: 6.00 Build 0)  -->
<svg version="1.1" id="Calque_1" xmlns="http://www.w3.org/2000/svg" xmlns:xlink="http://www.w3.org/1999/xlink" x="0px" y="0px"
	 viewBox="0 0 201.4 235.6" style="enable-background:new 0 0 201.4 235.6;" xml:space="preserve">
<style type="text/css">
	.st0{fill:#5E5E5E;}
	.st1{clip-path:url(#SVGID_00000153682036395579105320000009370050017847432354_);}
	.st2{fill:#B9785C;}
	.st3{clip-path:url(#SVGID_00000095312088117087914740000007601253907046393745_);}
	.st4{clip-path:url(#SVGID_00000036934583672244635840000001463332749766156690_);}
	.st5{fill:#99533D;}
	.st6{clip-path:url(#SVGID_00000034802521523864830940000008019780350341504396_);}
	.st7{clip-path:url(#SVGID_00000122716525915958727780000010222444196171787442_);fill:#573623;}
	.st8{clip-path:url(#SVGID_00000129908138387495786930000014761577950345736578_);fill:#573623;}
	.st9{clip-path:url(#SVGID_00000088118762029648716830000014512635105039355813_);fill:#FFFFFF;}
	.st10{clip-path:url(#SVGID_00000041974675031438223100000005784305665191241404_);fill:#FFFFFF;}
	.st11{clip-path:url(#SVGID_00000080928518780009591830000002499854946161321404_);fill:#090909;}
	.st12{clip-path:url(#SVGID_00000073715525045399479140000016597534142411660681_);fill:#090909;}
	.st13{fill:none;stroke:#573623;stroke-width:2;stroke-linecap:round;stroke-miterlimit:10;}
	.st14{fill:#B06F54;}
	.st15{fill:#593723;}
</style>
<path class="st0" d="M71.6,163.6c0,0,0,3.2,0,2.1v-0.2C71.6,164.9,71.6,164.2,71.6,163.6z"/>
<path class="st0" d="M71.6,163.6c0,0,0,3.2,0,2.1v-0.2C71.6,164.9,71.6,164.2,71.6,163.6z"/>
<path class="st0" d="M71.6,163.6c0,0,0,3.2,0,2.1v-0.2C71.6,164.9,71.6,164.2,71.6,163.6z"/>
<path class="st0" d="M71.6,163.6c0,0,0,3.2,0,2.1v-0.2C71.6,164.9,71.6,164.2,71.6,163.6z"/>
<path class="st0" d="M71.6,163.6c0,0,0,3.2,0,2.1v-0.2C71.6,164.9,71.6,164.2,71.6,163.6z"/>
<path class="st0" d="M71.6,163.6c0,0,0,3.2,0,2.1v-0.2C71.6,164.9,71.6,164.2,71.6,163.6z"/>
<g>
	<g>
		<defs>
			<polygon id="SVGID_1_" points="164.2,128.9 164.2,128.9 201.4,128.9 201.4,193.6 164.2,193.6 			"/>
		</defs>
		<clipPath id="SVGID_00000164507419765528434320000006301828460020623291_">
			<use xlink:href="#SVGID_1_"  style="overflow:visible;"/>
		</clipPath>
		<g style="clip-path:url(#SVGID_00000164507419765528434320000006301828460020623291_);">
			<path class="st2" d="M164.2,189.4l8.1-49c0,0,12.8-17.9,25.7-9c8.6,5.9-0.8,56.6-9.9,60C172.4,197.3,164.2,189.4,164.2,189.4z"/>
		</g>
	</g>
</g>
<g>
	<g>
		<defs>
			<polygon id="SVGID_00000101787734898428996310000015550788353289070512_" points="37.2,128.9 37.2,128.9 0,128.9 0,193.6 
				37.2,193.6 			"/>
		</defs>
		<clipPath id="SVGID_00000085973424886738945760000012327964966229920191_">
			<use xlink:href="#SVGID_00000101787734898428996310000015550788353289070512_"  style="overflow:visible;"/>
		</clipPath>
		<g style="clip-path:url(#SVGID_00000085973424886738945760000012327964966229920191_);">
			<path class="st2" d="M37.2,189.4l-8.1-49c0,0-12.8-17.9-25.7-9c-8.6,5.9,0.8,56.6,9.9,60C29,197.3,37.2,189.4,37.2,189.4z"/>
		</g>
	</g>
</g>
<g>
	<g>
		<defs>
			<polygon id="SVGID_00000169515637398105505700000003184850042273835418_" points="175.1,137.3 175.1,137.3 197.1,137.3 
				197.1,164 175.1,164 			"/>
		</defs>
		<clipPath id="SVGID_00000067227792265134893270000005254088568017083020_">
			<use xlink:href="#SVGID_00000169515637398105505700000003184850042273835418_"  style="overflow:visible;"/>
		</clipPath>
		<g style="clip-path:url(#SVGID_00000067227792265134893270000005254088568017083020_);">
			<path class="st5" d="M175.7,152.9c0-0.5,1.4-3.1,10.2-10.2c3-2.5,6.5-4.3,10.2-5.4c0.9,1,1.2,2.3,0.9,3.6
				c-0.2,1.6-8,5.6-10.4,7.7c-3.6,3.2-11.5,15-11.5,15.4L175.7,152.9z"/>
		</g>
	</g>
</g>
<g>
	<g>
		<defs>
			<polygon id="SVGID_00000095329514996925915050000000884966133155276720_" points="26.3,137.3 26.3,137.3 4.3,137.3 4.3,164 
				26.3,164 			"/>
		</defs>
		<clipPath id="SVGID_00000097469422591928576880000000214106240050280086_">
			<use xlink:href="#SVGID_00000095329514996925915050000000884966133155276720_"  style="overflow:visible;"/>
		</clipPath>
		<g style="clip-path:url(#SVGID_00000097469422591928576880000000214106240050280086_);">
			<path class="st5" d="M25.7,152.9c0-0.5-1.4-3.1-10.2-10.2c-3-2.5-6.5-4.3-10.2-5.4c-0.9,1-1.2,2.3-0.9,3.6
				c0.2,1.6,8,5.6,10.4,7.7c3.6,3.2,11.5,15,11.5,15.4L25.7,152.9z"/>
		</g>
	</g>
</g>
<g>
	<g>
		<defs>
			<polygon id="SVGID_00000072271075322504227990000003214605283231397049_" points="122.6,102.5 122.6,102.5 167.6,102.5 
				167.6,116.2 122.6,116.2 			"/>
		</defs>
		<clipPath id="SVGID_00000052790593495520265510000002251734814461948302_">
			<use xlink:href="#SVGID_00000072271075322504227990000003214605283231397049_"  style="overflow:visible;"/>
		</clipPath>
		<path style="clip-path:url(#SVGID_00000052790593495520265510000002251734814461948302_);fill:#573623;" d="M165.4,116.2
			c-0.3,0-0.6-0.1-0.8-0.2c-4.5-1.9-9.1-3.4-13.8-4.5c-15.1-3.4-16.1-1-21.3,0c-1.5,0.3-5.2-0.6-6-1.5s-1.4-4.1-0.5-4.9
			c0.4-0.3,7.1-4.9,24.4-1c7.2,1.6,18.6,7.9,18.9,8c1.1,0.5,1.6,1.7,1.1,2.8C167.1,115.7,166.3,116.3,165.4,116.2L165.4,116.2z"/>
	</g>
</g>
<g>
	<g>
		<defs>
			<polygon id="SVGID_00000047035039200973689440000007071150669338052248_" points="78.8,102.5 78.8,102.5 33.8,102.5 33.8,116.2 
				78.8,116.2 			"/>
		</defs>
		<clipPath id="SVGID_00000021839025078516545910000017362765620804210603_">
			<use xlink:href="#SVGID_00000047035039200973689440000007071150669338052248_"  style="overflow:visible;"/>
		</clipPath>
		<path style="clip-path:url(#SVGID_00000021839025078516545910000017362765620804210603_);fill:#573623;" d="M36,116.2
			c0.3,0,0.6-0.1,0.8-0.2c4.5-1.9,9.1-3.4,13.8-4.5c15.1-3.4,16.1-1,21.3,0c1.5,0.3,5.2-0.6,6-1.5s1.4-4.1,0.5-4.9
			c-0.4-0.3-7.1-4.9-24.4-1c-7.2,1.6-18.6,7.9-18.9,8c-1.1,0.5-1.6,1.7-1.1,2.8C34.3,115.7,35.1,116.3,36,116.2L36,116.2z"/>
	</g>
</g>
<g>
	<g>
		<defs>
			<polygon id="SVGID_00000142166802386269076770000012496362226343671425_" points="132.2,129.6 132.2,129.6 161.2,129.6 
				161.2,157.5 132.2,157.5 			"/>
		</defs>
		<clipPath id="SVGID_00000182509043746271979590000016604691023941645981_">
			<use xlink:href="#SVGID_00000142166802386269076770000012496362226343671425_"  style="overflow:visible;"/>
		</clipPath>
		
			<ellipse style="clip-path:url(#SVGID_00000182509043746271979590000016604691023941645981_);fill:#FFFFFF;" cx="146.7" cy="143.6" rx="14.5" ry="13.9"/>
	</g>
</g>
<g>
	<g>
		<defs>
			<polygon id="SVGID_00000097468077233447497840000009235206170359305141_" points="69.2,129.6 69.2,129.6 40.2,129.6 40.2,157.5 
				69.2,157.5 			"/>
		</defs>
		<clipPath id="SVGID_00000133502670243868884570000005935472915190444959_">
			<use xlink:href="#SVGID_00000097468077233447497840000009235206170359305141_"  style="overflow:visible;"/>
		</clipPath>
		
			<ellipse style="clip-path:url(#SVGID_00000133502670243868884570000005935472915190444959_);fill:#FFFFFF;" cx="54.7" cy="143.6" rx="14.5" ry="13.9"/>
	</g>
</g>
<g>
	<g>
		<defs>
			<polygon id="SVGID_00000141420676170368634010000014631621404108616348_" points="136.9,135.9 136.9,135.9 156.3,135.9 
				156.3,155.3 136.9,155.3 			"/>
		</defs>
		<clipPath id="SVGID_00000057845059179378853950000010208974096753264005_">
			<use xlink:href="#SVGID_00000141420676170368634010000014631621404108616348_"  style="overflow:visible;"/>
		</clipPath>
		
			<circle style="clip-path:url(#SVGID_00000057845059179378853950000010208974096753264005_);fill:#090909;" cx="146.6" cy="145.6" r="9.7"/>
	</g>
</g>
<g>
	<g>
		<defs>
			<polygon id="SVGID_00000024721664916981738180000009929617238089320071_" points="64.5,135.9 64.5,135.9 45.1,135.9 45.1,155.3 
				64.5,155.3 			"/>
		</defs>
		<clipPath id="SVGID_00000000220885192980825260000017878650279586447529_">
			<use xlink:href="#SVGID_00000024721664916981738180000009929617238089320071_"  style="overflow:visible;"/>
		</clipPath>
		
			<circle style="clip-path:url(#SVGID_00000000220885192980825260000017878650279586447529_);fill:#090909;" cx="54.8" cy="145.6" r="9.7"/>
	</g>
</g>
<path class="st13" d="M87.2,179.9c0,0,10.4,2.6,13.5,2.6s13.5-3.3,13.5-3.3"/>
<path class="st13" d="M72.4,192.8c1.5,1,3.1,1.7,4.8,2.3c4.4,1.6,12,3.4,23.5,3.2c10.4-0.2,17.5-1.9,22-3.7c2.3-0.8,4.4-1.9,6.4-3.4
	"/>
<path class="st14" d="M176.6,154c2.3-16.1,3.2-54,3.2-54c0-45.5-31.5-74.9-76.5-75.8l0,0H98l0,0C53,25.1,21.5,54.5,21.5,100
	c0,0,0.9,38,3.2,54c1.8,12.9-12.8,35,3.1,57c9.2,12.7,53.8,20.1,70.4,24.3c0.7,0.2,1.4,0.3,2.1,0.3c0.1,0,0.3,0,0.4,0s0.3,0,0.4,0
	c0.7,0,1.4-0.1,2.1-0.3c13.9-3.5,47.5-9.3,63.4-18.5c2.5-0.8,4.7-2.4,6.1-4.7c0.3-0.3,0.6-0.7,0.9-1
	C189.5,189,174.8,166.9,176.6,154z"/>
<path class="st15" d="M92.2,48.6C64.8,37,53-2.1,82.6,0.1c7.9,0.6-24,14,43.4,25.9c24,4.3,29.7,16.5,29.7,16.5S107.5,55.1,92.2,48.6
	z"/>
<path class="st5" d="M88.4,164.6c-0.6,0.1-1.1,0.7-1,1.3c0,0.3,0.2,0.6,0.4,0.8c3,2.5,8.7,6.7,12.5,6.7c3.6,0,9-4.2,11.8-6.6
	c0.5-0.4,0.5-1.2,0.1-1.6c-0.2-0.2-0.4-0.3-0.7-0.4c-3.4-0.5-4.8,1.1-11.6,1.1C94.1,166,91.8,164.2,88.4,164.6z"/>
</svg>
