<?xml version="1.0" encoding="utf-8"?>
<!-- Generator: Adobe Illustrator 26.0.1, SVG Export Plug-In . SVG Version: 6.00 Build 0)  -->
<svg version="1.1" id="Calque_1" xmlns="http://www.w3.org/2000/svg" xmlns:xlink="http://www.w3.org/1999/xlink" x="0px" y="0px"
	 viewBox="0 0 226.8 247.1" style="enable-background:new 0 0 226.8 247.1;" xml:space="preserve">
<style type="text/css">
	.st0{fill:#5E5E5E;}
	.st1{clip-path:url(#SVGID_00000178927187541467957590000010670503356674958226_);}
	.st2{fill:#B9785C;}
	.st3{clip-path:url(#SVGID_00000135693299658096316430000012810775947599306114_);}
	.st4{clip-path:url(#SVGID_00000027567007424443888340000016576784952382923940_);}
	.st5{fill:#99533D;}
	.st6{clip-path:url(#SVGID_00000110455183960491860930000017619504271479895688_);}
	.st7{clip-path:url(#SVGID_00000148624882293456249420000001665237947936294308_);}
	.st8{fill:#573623;}
	.st9{clip-path:url(#SVGID_00000081635068787663329290000007903062756949552522_);}
	.st10{clip-path:url(#SVGID_00000163043905529911794940000006883564512921114549_);}
	.st11{fill:#FFFFFF;}
	.st12{clip-path:url(#SVGID_00000119102238132243946530000009879009097254740408_);}
	.st13{clip-path:url(#SVGID_00000079444408208142630290000005243561356094413441_);}
	.st14{fill:#090909;}
	.st15{clip-path:url(#SVGID_00000095316350357598865610000015999565466859982249_);}
	.st16{fill:none;stroke:#573623;stroke-width:2;stroke-linecap:round;stroke-miterlimit:10;}
	.st17{fill:#B06F54;}
	.st18{fill:#593723;}
</style>
<path class="st0" d="M83.9,175.1c0,0,0,3.2,0,2.1V177C83.9,176.4,83.9,175.7,83.9,175.1z"/>
<path class="st0" d="M83.9,175.1c0,0,0,3.2,0,2.1V177C83.9,176.4,83.9,175.7,83.9,175.1z"/>
<path class="st0" d="M83.9,175.1c0,0,0,3.2,0,2.1V177C83.9,176.4,83.9,175.7,83.9,175.1z"/>
<path class="st0" d="M83.9,175.1c0,0,0,3.2,0,2.1V177C83.9,176.4,83.9,175.7,83.9,175.1z"/>
<path class="st0" d="M83.9,175.1c0,0,0,3.2,0,2.1V177C83.9,176.4,83.9,175.7,83.9,175.1z"/>
<path class="st0" d="M83.9,175.1c0,0,0,3.2,0,2.1V177C83.9,176.4,83.9,175.7,83.9,175.1z"/>
<g id="_Répétition_miroir_">
	<g>
		<g>
			<defs>
				<polygon id="SVGID_1_" points="176.5,140.4 176.5,140.4 213.7,140.4 213.7,205.1 176.5,205.1 				"/>
			</defs>
			<clipPath id="SVGID_00000049917819070553319740000015893965418847175596_">
				<use xlink:href="#SVGID_1_"  style="overflow:visible;"/>
			</clipPath>
			<g style="clip-path:url(#SVGID_00000049917819070553319740000015893965418847175596_);">
				<path class="st2" d="M176.5,200.9l8.1-49c0,0,12.8-17.9,25.7-9c8.6,5.9-0.8,56.6-9.9,60C184.7,208.8,176.5,200.9,176.5,200.9z"
					/>
			</g>
		</g>
	</g>
</g>
<g id="_Répétition_miroir_2">
	<g>
		<g>
			<defs>
				<polygon id="SVGID_00000036226968490893065350000012423944870461217178_" points="49.5,140.4 49.5,140.4 12.3,140.4 12.3,205.1 
					49.5,205.1 				"/>
			</defs>
			<clipPath id="SVGID_00000021835710341894646770000006242255903045914240_">
				<use xlink:href="#SVGID_00000036226968490893065350000012423944870461217178_"  style="overflow:visible;"/>
			</clipPath>
			<g style="clip-path:url(#SVGID_00000021835710341894646770000006242255903045914240_);">
				<path class="st2" d="M49.5,200.9l-8.1-49c0,0-12.8-17.9-25.7-9c-8.6,5.9,0.8,56.6,9.9,60C41.3,208.8,49.5,200.9,49.5,200.9z"/>
			</g>
		</g>
	</g>
</g>
<g id="_Répétition_miroir_3">
	<g>
		<g>
			<defs>
				<polygon id="SVGID_00000041993529455721800460000012683395365979275658_" points="187.4,148.8 187.4,148.8 209.4,148.8 
					209.4,175.5 187.4,175.5 				"/>
			</defs>
			<clipPath id="SVGID_00000038400802609224017430000001240398058199603087_">
				<use xlink:href="#SVGID_00000041993529455721800460000012683395365979275658_"  style="overflow:visible;"/>
			</clipPath>
			<g style="clip-path:url(#SVGID_00000038400802609224017430000001240398058199603087_);">
				<path class="st5" d="M188,164.4c0-0.5,1.4-3.1,10.2-10.2c3-2.5,6.5-4.3,10.2-5.4c0.9,1,1.2,2.3,0.9,3.6c-0.2,1.6-8,5.6-10.4,7.7
					c-3.6,3.2-11.5,15-11.5,15.4L188,164.4z"/>
			</g>
		</g>
	</g>
</g>
<g id="_Répétition_miroir_4">
	<g>
		<g>
			<defs>
				<polygon id="SVGID_00000104706457115591593620000002644513387742772393_" points="38.6,148.8 38.6,148.8 16.6,148.8 16.6,175.5 
					38.6,175.5 				"/>
			</defs>
			<clipPath id="SVGID_00000089571816825123684780000003265483241496848306_">
				<use xlink:href="#SVGID_00000104706457115591593620000002644513387742772393_"  style="overflow:visible;"/>
			</clipPath>
			<g style="clip-path:url(#SVGID_00000089571816825123684780000003265483241496848306_);">
				<path class="st5" d="M38,164.4c0-0.5-1.4-3.1-10.2-10.2c-3-2.5-6.5-4.3-10.2-5.4c-0.9,1-1.2,2.3-0.9,3.6c0.2,1.6,8,5.6,10.4,7.7
					c3.6,3.2,11.5,15,11.5,15.4L38,164.4z"/>
			</g>
		</g>
	</g>
</g>
<g>
	<g>
		<defs>
			<polygon id="SVGID_00000035516428811392399850000015376621694985520297_" points="134.9,114 134.9,114 179.9,114 179.9,127.7 
				134.9,127.7 			"/>
		</defs>
		<clipPath id="SVGID_00000006699363420340347250000008413285122308157071_">
			<use xlink:href="#SVGID_00000035516428811392399850000015376621694985520297_"  style="overflow:visible;"/>
		</clipPath>
		<g style="clip-path:url(#SVGID_00000006699363420340347250000008413285122308157071_);">
			<path class="st8" d="M177.7,127.7c-0.3,0-0.6-0.1-0.8-0.2c-4.5-1.9-9.1-3.4-13.8-4.5c-15.1-3.4-16.1-1-21.3,0
				c-1.5,0.3-5.2-0.6-6-1.5s-1.4-4.1-0.5-4.9c0.4-0.3,7.1-4.9,24.4-1c7.2,1.6,18.6,7.9,18.9,8c1.1,0.5,1.6,1.7,1.1,2.8
				C179.4,127.2,178.6,127.8,177.7,127.7L177.7,127.7z"/>
		</g>
	</g>
</g>
<g>
	<g>
		<defs>
			<polygon id="SVGID_00000050637395849820797590000017869983133947725243_" points="91.1,114 91.1,114 46.1,114 46.1,127.7 
				91.1,127.7 			"/>
		</defs>
		<clipPath id="SVGID_00000176006148897048150400000006424878391357208487_">
			<use xlink:href="#SVGID_00000050637395849820797590000017869983133947725243_"  style="overflow:visible;"/>
		</clipPath>
		<g style="clip-path:url(#SVGID_00000176006148897048150400000006424878391357208487_);">
			<path class="st8" d="M48.3,127.7c0.3,0,0.6-0.1,0.8-0.2c4.5-1.9,9.1-3.4,13.8-4.5c15.1-3.4,16.1-1,21.3,0c1.5,0.3,5.2-0.6,6-1.5
				s1.4-4.1,0.5-4.9c-0.4-0.3-7.1-4.9-24.4-1c-7.2,1.6-18.6,7.9-18.9,8c-1.1,0.5-1.6,1.7-1.1,2.8C46.6,127.2,47.4,127.8,48.3,127.7
				L48.3,127.7z"/>
		</g>
	</g>
</g>
<g>
	<g>
		<defs>
			<polygon id="SVGID_00000042708803214090164120000013977453751456214700_" points="144.5,141.1 144.5,141.1 173.5,141.1 
				173.5,169 144.5,169 			"/>
		</defs>
		<clipPath id="SVGID_00000138536620713079422710000005605356249315191712_">
			<use xlink:href="#SVGID_00000042708803214090164120000013977453751456214700_"  style="overflow:visible;"/>
		</clipPath>
		<g style="clip-path:url(#SVGID_00000138536620713079422710000005605356249315191712_);">
			<ellipse class="st11" cx="159" cy="155.1" rx="14.5" ry="13.9"/>
		</g>
	</g>
</g>
<g>
	<g>
		<defs>
			<polygon id="SVGID_00000036228195889703184160000015278453994601012399_" points="81.5,141.1 81.5,141.1 52.5,141.1 52.5,169 
				81.5,169 			"/>
		</defs>
		<clipPath id="SVGID_00000154418038735137394880000005600240898030579368_">
			<use xlink:href="#SVGID_00000036228195889703184160000015278453994601012399_"  style="overflow:visible;"/>
		</clipPath>
		<g style="clip-path:url(#SVGID_00000154418038735137394880000005600240898030579368_);">
			<ellipse class="st11" cx="67" cy="155.1" rx="14.5" ry="13.9"/>
		</g>
	</g>
</g>
<g>
	<g>
		<defs>
			<polygon id="SVGID_00000132050530107195475770000009840591976992269228_" points="149.2,147.4 149.2,147.4 168.6,147.4 
				168.6,166.8 149.2,166.8 			"/>
		</defs>
		<clipPath id="SVGID_00000172425911405164141670000009379039117853277837_">
			<use xlink:href="#SVGID_00000132050530107195475770000009840591976992269228_"  style="overflow:visible;"/>
		</clipPath>
		<g style="clip-path:url(#SVGID_00000172425911405164141670000009379039117853277837_);">
			<circle class="st14" cx="158.9" cy="157.1" r="9.7"/>
		</g>
	</g>
</g>
<g>
	<g>
		<defs>
			<polygon id="SVGID_00000120528773902577775770000003392162922066781854_" points="76.8,147.4 76.8,147.4 57.4,147.4 57.4,166.8 
				76.8,166.8 			"/>
		</defs>
		<clipPath id="SVGID_00000052078569701453476970000002498400943606593162_">
			<use xlink:href="#SVGID_00000120528773902577775770000003392162922066781854_"  style="overflow:visible;"/>
		</clipPath>
		<g style="clip-path:url(#SVGID_00000052078569701453476970000002498400943606593162_);">
			<circle class="st14" cx="67.1" cy="157.1" r="9.7"/>
		</g>
	</g>
</g>
<path class="st16" d="M99.5,191.4c0,0,10.4,2.6,13.5,2.6s13.5-3.3,13.5-3.3"/>
<path class="st16" d="M84.7,204.3c1.5,1,3.1,1.7,4.8,2.3c4.4,1.6,12,3.4,23.5,3.2c10.4-0.2,17.5-1.9,22-3.7c2.3-0.8,4.4-1.9,6.4-3.4
	"/>
<path class="st17" d="M188.9,165.5c2.3-16.1,3.2-54,3.2-54c0-45.5-31.5-74.9-76.5-75.8l0,0h-5.3l0,0c-45,0.9-76.5,30.3-76.5,75.8
	c0,0,0.9,38,3.2,54c1.8,12.9-12.8,35,3.1,57c9.2,12.7,53.8,20.1,70.4,24.3c0.7,0.2,1.4,0.3,2.1,0.3c0.1,0,0.3,0,0.4,0s0.3,0,0.4,0
	c0.7,0,1.4-0.1,2.1-0.3c13.9-3.5,47.5-9.3,63.4-18.5c2.5-0.8,4.7-2.4,6.1-4.7c0.3-0.3,0.6-0.7,0.9-1
	C201.8,200.5,187.1,178.4,188.9,165.5z"/>
<path class="st18" d="M33.9,111.5l10.6-23.3L65.8,92l39.1-35l42.3,5.9l20-5.9L157,68.9l27.4,26.4l6.5,47.1c0,0,10.5-9,12.8-12.1
	s23.1-57.2,23.1-57.2l-34.6-25.6h-10.6L163,12.9L86.4,0L0,72.7l19.7,61.4l15.3,7.3L33.9,111.5z"/>
<path class="st5" d="M100.7,176.1c-0.6,0.1-1.1,0.7-1,1.3c0,0.3,0.2,0.6,0.4,0.8c3,2.5,8.7,6.7,12.5,6.7c3.6,0,9-4.2,11.8-6.6
	c0.5-0.4,0.5-1.2,0.1-1.6c-0.2-0.2-0.4-0.3-0.7-0.4c-3.4-0.5-4.8,1.1-11.6,1.1C106.4,177.5,104.1,175.7,100.7,176.1z"/>
</svg>
