<?xml version="1.0" encoding="utf-8"?>
<!-- Generator: Adobe Illustrator 26.0.1, SVG Export Plug-In . SVG Version: 6.00 Build 0)  -->
<svg version="1.1" id="Calque_1" xmlns="http://www.w3.org/2000/svg" xmlns:xlink="http://www.w3.org/1999/xlink" x="0px" y="0px"
	 viewBox="0 0 788 1005" style="enable-background:new 0 0 788 1005;" xml:space="preserve">
<style type="text/css">
	.st0{fill:#5E5E5E;}
	.st1{clip-path:url(#SVGID_00000108996637003509032430000000563531056599166108_);}
	.st2{fill:#B9785C;}
	.st3{clip-path:url(#SVGID_00000008857033027024116600000005901053705381859998_);}
	.st4{clip-path:url(#SVGID_00000138574021534549271170000013834384100016823467_);}
	.st5{fill:#99533D;}
	.st6{clip-path:url(#SVGID_00000146497013375312769660000001963193307075593877_);}
	.st7{clip-path:url(#SVGID_00000071524341158789510580000012313404765933694653_);}
	.st8{fill:#573623;}
	.st9{clip-path:url(#SVGID_00000039103152629487710250000004224733339683435429_);}
	.st10{clip-path:url(#SVGID_00000093890099250406602620000001402028845561545100_);}
	.st11{fill:#FFFFFF;}
	.st12{clip-path:url(#SVGID_00000046308102693234083120000015787210673710781848_);}
	.st13{clip-path:url(#SVGID_00000031924428863606298090000015673291283887357337_);}
	.st14{fill:#090909;}
	.st15{clip-path:url(#SVGID_00000029032983629539379450000003780193592204839064_);}
	.st16{fill:none;stroke:#573623;stroke-width:2;stroke-linecap:round;stroke-miterlimit:10;}
	.st17{fill:#B06F54;}
	.st18{fill:#593723;}
</style>
<path class="st0" d="M364.9,340.6c0,0,0,3.2,0,2.1v-0.2C364.9,341.9,364.9,341.2,364.9,340.6z"/>
<path class="st0" d="M364.9,340.6c0,0,0,3.2,0,2.1v-0.2C364.9,341.9,364.9,341.2,364.9,340.6z"/>
<path class="st0" d="M364.9,340.6c0,0,0,3.2,0,2.1v-0.2C364.9,341.9,364.9,341.2,364.9,340.6z"/>
<path class="st0" d="M364.9,340.6c0,0,0,3.2,0,2.1v-0.2C364.9,341.9,364.9,341.2,364.9,340.6z"/>
<path class="st0" d="M364.9,340.6c0,0,0,3.2,0,2.1v-0.2C364.9,341.9,364.9,341.2,364.9,340.6z"/>
<path class="st0" d="M364.9,340.6c0,0,0,3.2,0,2.1v-0.2C364.9,341.9,364.9,341.2,364.9,340.6z"/>
<g id="_Répétition_miroir_">
	<g>
		<defs>
			<polygon id="SVGID_1_" points="457.5,305.9 457.5,305.9 494.7,305.9 494.7,370.6 457.5,370.6 			"/>
		</defs>
		<clipPath id="SVGID_00000141455129583532259270000009666119897012952246_">
			<use xlink:href="#SVGID_1_"  style="overflow:visible;"/>
		</clipPath>
		<g style="clip-path:url(#SVGID_00000141455129583532259270000009666119897012952246_);">
			<path class="st2" d="M457.5,366.4l8.1-49c0,0,12.8-17.9,25.7-9c8.6,5.9-0.8,56.6-9.9,60C465.7,374.3,457.5,366.4,457.5,366.4z"/>
		</g>
	</g>
</g>
<g id="_Répétition_miroir_2">
	<g>
		<defs>
			<polygon id="SVGID_00000001626367071417435810000008441479218855647130_" points="330.5,305.9 330.5,305.9 293.3,305.9 
				293.3,370.6 330.5,370.6 			"/>
		</defs>
		<clipPath id="SVGID_00000163041754415682551580000000470080617120539272_">
			<use xlink:href="#SVGID_00000001626367071417435810000008441479218855647130_"  style="overflow:visible;"/>
		</clipPath>
		<g style="clip-path:url(#SVGID_00000163041754415682551580000000470080617120539272_);">
			<path class="st2" d="M330.5,366.4l-8.1-49c0,0-12.8-17.9-25.7-9c-8.6,5.9,0.8,56.6,9.9,60C322.3,374.3,330.5,366.4,330.5,366.4z"
				/>
		</g>
	</g>
</g>
<g id="_Répétition_miroir_3">
	<g>
		<defs>
			<polygon id="SVGID_00000118370389162553083360000015737283794882910344_" points="468.4,314.3 468.4,314.3 490.4,314.3 
				490.4,341 468.4,341 			"/>
		</defs>
		<clipPath id="SVGID_00000018235916127146580260000011121564504898941107_">
			<use xlink:href="#SVGID_00000118370389162553083360000015737283794882910344_"  style="overflow:visible;"/>
		</clipPath>
		<g style="clip-path:url(#SVGID_00000018235916127146580260000011121564504898941107_);">
			<path class="st5" d="M469,329.9c0-0.5,1.4-3.1,10.2-10.2c3-2.5,6.5-4.3,10.2-5.4c0.9,1,1.2,2.3,0.9,3.6c-0.2,1.6-8,5.6-10.4,7.7
				c-3.6,3.2-11.5,15-11.5,15.4L469,329.9z"/>
		</g>
	</g>
</g>
<g id="_Répétition_miroir_4">
	<g>
		<defs>
			<polygon id="SVGID_00000028313433476405962360000000618210251391028144_" points="319.6,314.3 319.6,314.3 297.6,314.3 
				297.6,341 319.6,341 			"/>
		</defs>
		<clipPath id="SVGID_00000003095895046965311940000003060483826087979150_">
			<use xlink:href="#SVGID_00000028313433476405962360000000618210251391028144_"  style="overflow:visible;"/>
		</clipPath>
		<g style="clip-path:url(#SVGID_00000003095895046965311940000003060483826087979150_);">
			<path class="st5" d="M319,329.9c0-0.5-1.4-3.1-10.2-10.2c-3-2.5-6.5-4.3-10.2-5.4c-0.9,1-1.2,2.3-0.9,3.6c0.2,1.6,8,5.6,10.4,7.7
				c3.6,3.2,11.5,15,11.5,15.4L319,329.9z"/>
		</g>
	</g>
</g>
<g>
	<defs>
		<polygon id="SVGID_00000015339434734969155260000018335135973853226168_" points="415.9,279.5 415.9,279.5 460.9,279.5 
			460.9,293.2 415.9,293.2 		"/>
	</defs>
	<clipPath id="SVGID_00000041278687483951700210000007896141515081704094_">
		<use xlink:href="#SVGID_00000015339434734969155260000018335135973853226168_"  style="overflow:visible;"/>
	</clipPath>
	<g style="clip-path:url(#SVGID_00000041278687483951700210000007896141515081704094_);">
		<path class="st8" d="M458.7,293.2c-0.3,0-0.6-0.1-0.8-0.2c-4.5-1.9-9.1-3.4-13.8-4.5c-15.1-3.4-16.1-1-21.3,0
			c-1.5,0.3-5.2-0.6-6-1.5s-1.4-4.1-0.5-4.9c0.4-0.3,7.1-4.9,24.4-1c7.2,1.6,18.6,7.9,18.9,8c1.1,0.5,1.6,1.7,1.1,2.8
			C460.4,292.7,459.6,293.3,458.7,293.2L458.7,293.2z"/>
	</g>
</g>
<g>
	<defs>
		<polygon id="SVGID_00000087382013223803597830000013670054914966629257_" points="372.1,279.5 372.1,279.5 327.1,279.5 
			327.1,293.2 372.1,293.2 		"/>
	</defs>
	<clipPath id="SVGID_00000179622798197105642130000008810831396925768597_">
		<use xlink:href="#SVGID_00000087382013223803597830000013670054914966629257_"  style="overflow:visible;"/>
	</clipPath>
	<g style="clip-path:url(#SVGID_00000179622798197105642130000008810831396925768597_);">
		<path class="st8" d="M329.3,293.2c0.3,0,0.6-0.1,0.8-0.2c4.5-1.9,9.1-3.4,13.8-4.5c15.1-3.4,16.1-1,21.3,0c1.5,0.3,5.2-0.6,6-1.5
			s1.4-4.1,0.5-4.9c-0.4-0.3-7.1-4.9-24.4-1c-7.2,1.6-18.6,7.9-18.9,8c-1.1,0.5-1.6,1.7-1.1,2.8
			C327.6,292.7,328.4,293.3,329.3,293.2L329.3,293.2z"/>
	</g>
</g>
<g>
	<defs>
		<polygon id="SVGID_00000047043575038378254290000000870769616286463137_" points="425.5,306.6 425.5,306.6 454.5,306.6 
			454.5,334.5 425.5,334.5 		"/>
	</defs>
	<clipPath id="SVGID_00000114050065570016576690000009698504556070699916_">
		<use xlink:href="#SVGID_00000047043575038378254290000000870769616286463137_"  style="overflow:visible;"/>
	</clipPath>
	<g style="clip-path:url(#SVGID_00000114050065570016576690000009698504556070699916_);">
		<ellipse class="st11" cx="440" cy="320.6" rx="14.5" ry="13.9"/>
	</g>
</g>
<g>
	<defs>
		<polygon id="SVGID_00000011011458335428646210000018052758207789877128_" points="362.5,306.6 362.5,306.6 333.5,306.6 
			333.5,334.5 362.5,334.5 		"/>
	</defs>
	<clipPath id="SVGID_00000073683639475464550370000003525256306538641598_">
		<use xlink:href="#SVGID_00000011011458335428646210000018052758207789877128_"  style="overflow:visible;"/>
	</clipPath>
	<g style="clip-path:url(#SVGID_00000073683639475464550370000003525256306538641598_);">
		<ellipse class="st11" cx="348" cy="320.6" rx="14.5" ry="13.9"/>
	</g>
</g>
<g>
	<defs>
		<polygon id="SVGID_00000115478089709507085440000011454168584050718653_" points="430.2,312.9 430.2,312.9 449.6,312.9 
			449.6,332.3 430.2,332.3 		"/>
	</defs>
	<clipPath id="SVGID_00000072967414484444149720000007977912003306464431_">
		<use xlink:href="#SVGID_00000115478089709507085440000011454168584050718653_"  style="overflow:visible;"/>
	</clipPath>
	<g style="clip-path:url(#SVGID_00000072967414484444149720000007977912003306464431_);">
		<circle class="st14" cx="439.9" cy="322.6" r="9.7"/>
	</g>
</g>
<g>
	<defs>
		<polygon id="SVGID_00000128456892538118798840000009929315546918910109_" points="357.8,312.9 357.8,312.9 338.4,312.9 
			338.4,332.3 357.8,332.3 		"/>
	</defs>
	<clipPath id="SVGID_00000090990079299496476050000006385735851868152206_">
		<use xlink:href="#SVGID_00000128456892538118798840000009929315546918910109_"  style="overflow:visible;"/>
	</clipPath>
	<g style="clip-path:url(#SVGID_00000090990079299496476050000006385735851868152206_);">
		<circle class="st14" cx="348.1" cy="322.6" r="9.7"/>
	</g>
</g>
<path class="st16" d="M380.5,356.9c0,0,10.4,2.6,13.5,2.6s13.5-3.3,13.5-3.3"/>
<path class="st16" d="M365.7,369.8c1.5,1,3.1,1.7,4.8,2.3c4.4,1.6,12,3.4,23.5,3.2c10.4-0.2,17.5-1.9,22-3.7
	c2.3-0.8,4.4-1.9,6.4-3.4"/>
<path class="st17" d="M469.9,331c2.3-16.1,3.2-54,3.2-54c0-45.5-31.5-74.9-76.5-75.8l0,0h-5.3l0,0c-45,0.9-76.5,30.3-76.5,75.8
	c0,0,0.9,38,3.2,54c1.8,12.9-12.8,35,3.1,57c9.2,12.7,53.8,20.1,70.4,24.3c0.7,0.2,1.4,0.3,2.1,0.3c0.1,0,0.3,0,0.4,0s0.3,0,0.4,0
	c0.7,0,1.4-0.1,2.1-0.3c13.9-3.5,47.5-9.3,63.4-18.5c2.5-0.8,4.7-2.4,6.1-4.7c0.3-0.3,0.6-0.7,0.9-1
	C482.8,366,468.1,343.9,469.9,331z"/>
<path class="st18" d="M385.5,225.6c-27.4-11.6-39.2-50.7-9.6-48.5c7.9,0.6-24,14,43.4,25.9c24,4.3,29.7,16.5,29.7,16.5
	S400.8,232.1,385.5,225.6z"/>
<path class="st5" d="M381.7,341.6c-0.6,0.1-1.1,0.7-1,1.3c0,0.3,0.2,0.6,0.4,0.8c3,2.5,8.7,6.7,12.5,6.7c3.6,0,9-4.2,11.8-6.6
	c0.5-0.4,0.5-1.2,0.1-1.6c-0.2-0.2-0.4-0.3-0.7-0.4c-3.4-0.5-4.8,1.1-11.6,1.1C387.4,343,385.1,341.2,381.7,341.6z"/>
</svg>
