<?xml version="1.0" encoding="utf-8"?>
<!-- Generator: Adobe Illustrator 26.0.1, SVG Export Plug-In . SVG Version: 6.00 Build 0)  -->
<svg version="1.1" id="Calque_1" xmlns="http://www.w3.org/2000/svg" xmlns:xlink="http://www.w3.org/1999/xlink" x="0px" y="0px"
	 viewBox="0 0 788 1005" style="enable-background:new 0 0 788 1005;" xml:space="preserve">
<style type="text/css">
	.st0{fill:#5E5E5E;}
	.st1{clip-path:url(#SVGID_00000085959520157512436980000014768579343705077411_);}
	.st2{fill:#B9785C;}
	.st3{clip-path:url(#SVGID_00000099621200409104942220000014520753029711163807_);}
	.st4{clip-path:url(#SVGID_00000013193289890421391400000012925178777379858825_);}
	.st5{fill:#99533D;}
	.st6{clip-path:url(#SVGID_00000039817073529744047720000008083672060087141014_);}
	.st7{clip-path:url(#SVGID_00000129175077901856497630000006483433187591617448_);}
	.st8{fill:#573623;}
	.st9{clip-path:url(#SVGID_00000029037125034564840670000012153280554742961079_);}
	.st10{clip-path:url(#SVGID_00000041290499769235918620000017407965189123923341_);}
	.st11{fill:#FFFFFF;}
	.st12{clip-path:url(#SVGID_00000013896379863363562750000000216992752835000722_);}
	.st13{clip-path:url(#SVGID_00000104687644523118929210000009733257945370341027_);}
	.st14{fill:#090909;}
	.st15{clip-path:url(#SVGID_00000139977001167679977930000015317678805811270797_);}
	.st16{fill:none;stroke:#573623;stroke-width:2;stroke-linecap:round;stroke-miterlimit:10;}
	.st17{fill:#B06F54;}
	.st18{fill:#8A5035;}
	.st19{fill:#474360;}
</style>
<path class="st0" d="M364.9,340.6c0,0,0,3.2,0,2.1v-0.2C364.9,341.9,364.9,341.2,364.9,340.6z"/>
<path class="st0" d="M364.9,340.6c0,0,0,3.2,0,2.1v-0.2C364.9,341.9,364.9,341.2,364.9,340.6z"/>
<path class="st0" d="M364.9,340.6c0,0,0,3.2,0,2.1v-0.2C364.9,341.9,364.9,341.2,364.9,340.6z"/>
<path class="st0" d="M364.9,340.6c0,0,0,3.2,0,2.1v-0.2C364.9,341.9,364.9,341.2,364.9,340.6z"/>
<path class="st0" d="M364.9,340.6c0,0,0,3.2,0,2.1v-0.2C364.9,341.9,364.9,341.2,364.9,340.6z"/>
<path class="st0" d="M364.9,340.6c0,0,0,3.2,0,2.1v-0.2C364.9,341.9,364.9,341.2,364.9,340.6z"/>
<g id="random">
	<g>
		<defs>
			<polygon id="SVGID_1_" points="457.5,305.9 457.5,305.9 494.7,305.9 494.7,370.6 457.5,370.6 			"/>
		</defs>
		<clipPath id="SVGID_00000150074579993595966180000005475972305506995343_">
			<use xlink:href="#SVGID_1_"  style="overflow:visible;"/>
		</clipPath>
		<g style="clip-path:url(#SVGID_00000150074579993595966180000005475972305506995343_);">
			<path class="st2" d="M457.5,366.4l8.1-49c0,0,12.8-17.9,25.7-9c8.6,5.9-0.8,56.6-9.9,60C465.7,374.3,457.5,366.4,457.5,366.4z"/>
		</g>
	</g>
</g>
<g id="random2">
	<g>
		<defs>
			<polygon id="SVGID_00000015336100446094843400000013693914855916868263_" points="330.5,305.9 330.5,305.9 293.3,305.9 
				293.3,370.6 330.5,370.6 			"/>
		</defs>
		<clipPath id="SVGID_00000011014835091120692510000007285406164806811278_">
			<use xlink:href="#SVGID_00000015336100446094843400000013693914855916868263_"  style="overflow:visible;"/>
		</clipPath>
		<g style="clip-path:url(#SVGID_00000011014835091120692510000007285406164806811278_);">
			<path class="st2" d="M330.5,366.4l-8.1-49c0,0-12.8-17.9-25.7-9c-8.6,5.9,0.8,56.6,9.9,60C322.3,374.3,330.5,366.4,330.5,366.4z"
				/>
		</g>
	</g>
</g>
<g id="random3">
	<g>
		<defs>
			<polygon id="SVGID_00000082328962624791373650000004475759222334086022_" points="468.4,314.3 468.4,314.3 490.4,314.3 
				490.4,341 468.4,341 			"/>
		</defs>
		<clipPath id="SVGID_00000088113084586939351300000012750617906126219675_">
			<use xlink:href="#SVGID_00000082328962624791373650000004475759222334086022_"  style="overflow:visible;"/>
		</clipPath>
		<g style="clip-path:url(#SVGID_00000088113084586939351300000012750617906126219675_);">
			<path class="st5" d="M469,329.9c0-0.5,1.4-3.1,10.2-10.2c3-2.5,6.5-4.3,10.2-5.4c0.9,1,1.2,2.3,0.9,3.6c-0.2,1.6-8,5.6-10.4,7.7
				c-3.6,3.2-11.5,15-11.5,15.4L469,329.9z"/>
		</g>
	</g>
</g>
<g id="random4">
	<g>
		<defs>
			<polygon id="SVGID_00000036950416099814809960000000730230376000013736_" points="319.6,314.3 319.6,314.3 297.6,314.3 
				297.6,341 319.6,341 			"/>
		</defs>
		<clipPath id="SVGID_00000042007611911958976460000001502238499251044497_">
			<use xlink:href="#SVGID_00000036950416099814809960000000730230376000013736_"  style="overflow:visible;"/>
		</clipPath>
		<g style="clip-path:url(#SVGID_00000042007611911958976460000001502238499251044497_);">
			<path class="st5" d="M319,329.9c0-0.5-1.4-3.1-10.2-10.2c-3-2.5-6.5-4.3-10.2-5.4c-0.9,1-1.2,2.3-0.9,3.6c0.2,1.6,8,5.6,10.4,7.7
				c3.6,3.2,11.5,15,11.5,15.4L319,329.9z"/>
		</g>
	</g>
</g>
<g>
	<defs>
		<polygon id="SVGID_00000154423516682881180940000017008668387927800764_" points="415.9,279.5 415.9,279.5 460.9,279.5 
			460.9,293.2 415.9,293.2 		"/>
	</defs>
	<clipPath id="SVGID_00000006681330907532077480000011145024485679102607_">
		<use xlink:href="#SVGID_00000154423516682881180940000017008668387927800764_"  style="overflow:visible;"/>
	</clipPath>
	<g style="clip-path:url(#SVGID_00000006681330907532077480000011145024485679102607_);">
		<path class="st8" d="M458.7,293.2c-0.3,0-0.6-0.1-0.8-0.2c-4.5-1.9-9.1-3.4-13.8-4.5c-15.1-3.4-16.1-1-21.3,0
			c-1.5,0.3-5.2-0.6-6-1.5s-1.4-4.1-0.5-4.9c0.4-0.3,7.1-4.9,24.4-1c7.2,1.6,18.6,7.9,18.9,8c1.1,0.5,1.6,1.7,1.1,2.8
			C460.4,292.7,459.6,293.3,458.7,293.2L458.7,293.2z"/>
	</g>
</g>
<g>
	<defs>
		<polygon id="SVGID_00000078017358500570802720000003648490831840047277_" points="372.1,279.5 372.1,279.5 327.1,279.5 
			327.1,293.2 372.1,293.2 		"/>
	</defs>
	<clipPath id="SVGID_00000181790168374310838040000001099989520758623121_">
		<use xlink:href="#SVGID_00000078017358500570802720000003648490831840047277_"  style="overflow:visible;"/>
	</clipPath>
	<g style="clip-path:url(#SVGID_00000181790168374310838040000001099989520758623121_);">
		<path class="st8" d="M329.3,293.2c0.3,0,0.6-0.1,0.8-0.2c4.5-1.9,9.1-3.4,13.8-4.5c15.1-3.4,16.1-1,21.3,0c1.5,0.3,5.2-0.6,6-1.5
			s1.4-4.1,0.5-4.9c-0.4-0.3-7.1-4.9-24.4-1c-7.2,1.6-18.6,7.9-18.9,8c-1.1,0.5-1.6,1.7-1.1,2.8
			C327.6,292.7,328.4,293.3,329.3,293.2L329.3,293.2z"/>
	</g>
</g>
<g>
	<defs>
		<polygon id="SVGID_00000018939080806278904900000001910537071476752258_" points="425.5,306.6 425.5,306.6 454.5,306.6 
			454.5,334.5 425.5,334.5 		"/>
	</defs>
	<clipPath id="SVGID_00000181789629597466933990000009598343675768013731_">
		<use xlink:href="#SVGID_00000018939080806278904900000001910537071476752258_"  style="overflow:visible;"/>
	</clipPath>
	<g style="clip-path:url(#SVGID_00000181789629597466933990000009598343675768013731_);">
		<ellipse class="st11" cx="440" cy="320.6" rx="14.5" ry="13.9"/>
	</g>
</g>
<g>
	<defs>
		<polygon id="SVGID_00000072993603148119978160000004327375930636314795_" points="362.5,306.6 362.5,306.6 333.5,306.6 
			333.5,334.5 362.5,334.5 		"/>
	</defs>
	<clipPath id="SVGID_00000098218665105743073880000016971596207783363469_">
		<use xlink:href="#SVGID_00000072993603148119978160000004327375930636314795_"  style="overflow:visible;"/>
	</clipPath>
	<g style="clip-path:url(#SVGID_00000098218665105743073880000016971596207783363469_);">
		<ellipse class="st11" cx="348" cy="320.6" rx="14.5" ry="13.9"/>
	</g>
</g>
<g>
	<defs>
		<polygon id="SVGID_00000007420189495978497200000010821322743077533347_" points="430.2,312.9 430.2,312.9 449.6,312.9 
			449.6,332.3 430.2,332.3 		"/>
	</defs>
	<clipPath id="SVGID_00000082357235480042294610000005126651234752743348_">
		<use xlink:href="#SVGID_00000007420189495978497200000010821322743077533347_"  style="overflow:visible;"/>
	</clipPath>
	<g style="clip-path:url(#SVGID_00000082357235480042294610000005126651234752743348_);">
		<circle class="st14" cx="439.9" cy="322.6" r="9.7"/>
	</g>
</g>
<g>
	<defs>
		<polygon id="SVGID_00000006702608791248322080000017682016462349149607_" points="357.8,312.9 357.8,312.9 338.4,312.9 
			338.4,332.3 357.8,332.3 		"/>
	</defs>
	<clipPath id="SVGID_00000096053184740123881690000015542784229571085700_">
		<use xlink:href="#SVGID_00000006702608791248322080000017682016462349149607_"  style="overflow:visible;"/>
	</clipPath>
	<g style="clip-path:url(#SVGID_00000096053184740123881690000015542784229571085700_);">
		<circle class="st14" cx="348.1" cy="322.6" r="9.7"/>
	</g>
</g>
<path class="st16" d="M380.5,356.9c0,0,10.4,2.6,13.5,2.6s13.5-3.3,13.5-3.3"/>
<path class="st16" d="M365.7,369.8c1.5,1,3.1,1.7,4.8,2.3c4.4,1.6,12,3.4,23.5,3.2c10.4-0.2,17.5-1.9,22-3.7
	c2.3-0.8,4.4-1.9,6.4-3.4"/>
<path class="st17" d="M469.9,331c2.3-16.1,3.2-54,3.2-54c0-45.5-31.5-74.9-76.5-75.8l0,0h-5.3l0,0c-45,0.9-76.5,30.3-76.5,75.8
	c0,0,0.9,38,3.2,54c1.8,12.9-12.8,35,3.1,57c9.2,12.7,53.8,20.1,70.4,24.3c0.7,0.2,1.4,0.3,2.1,0.3c0.1,0,0.3,0,0.4,0s0.3,0,0.4,0
	c0.7,0,1.4-0.1,2.1-0.3c13.9-3.5,47.5-9.3,63.4-18.5c2.5-0.8,4.7-2.4,6.1-4.7c0.3-0.3,0.6-0.7,0.9-1
	C482.8,366,468.1,343.9,469.9,331z"/>
<path class="st18" d="M473.8,254.1c0,0,0,5.8-0.8,18.1c-5.3,4.8-69.4-3.9-111.4-1.9c-8.6,0.4-34.9,16-46.3,20.3
	c-0.8-12.6-1.5-36.5-1.5-36.5c0-39.1,31.8-64.3,77.3-65.1l0,0h5.3l0,0C442,189.9,473.8,215.1,473.8,254.1z"/>
<path class="st19" d="M371.6,177.8l36.8-0.8c35.2-0.8,64.4,27.1,65.2,62.2l0,0l0.5,21.8l0,0l-164.2,3.8l0,0l-0.5-21.8
	C308.5,207.8,336.4,178.6,371.6,177.8z"/>
<path class="st19" d="M354.9,263.7c-2.7-1.2-49.5,23.8-76.6,31.6c-10.2,3-28.9-5.9-37.1-12.8c-1.6-1.3-2.6-2.4-2.5-3
	c0.4-2.1,71-24.4,71-24.4L354.9,263.7z"/>
<path class="st5" d="M381.7,341.6c-0.6,0.1-1.1,0.7-1,1.3c0,0.3,0.2,0.6,0.4,0.8c3,2.5,8.7,6.7,12.5,6.7c3.6,0,9-4.2,11.8-6.6
	c0.5-0.4,0.5-1.2,0.1-1.6c-0.2-0.2-0.4-0.3-0.7-0.4c-3.4-0.5-4.8,1.1-11.6,1.1C387.4,343,385.1,341.2,381.7,341.6z"/>
</svg>
