<?xml version="1.0" encoding="utf-8"?>
<!-- Generator: Adobe Illustrator 26.0.1, SVG Export Plug-In . SVG Version: 6.00 Build 0)  -->
<svg version="1.1" id="Calque_1" xmlns="http://www.w3.org/2000/svg" xmlns:xlink="http://www.w3.org/1999/xlink" x="0px" y="0px"
	 viewBox="0 0 201.4 235.6" style="enable-background:new 0 0 201.4 235.6;" xml:space="preserve">
<style type="text/css">
	.st0{fill:#5E5E5E;}
	.st1{clip-path:url(#SVGID_00000052065617718951415820000007752517028356497044_);}
	.st2{fill:#B9785C;}
	.st3{clip-path:url(#SVGID_00000141452223468493090030000013834153532417900983_);}
	.st4{clip-path:url(#SVGID_00000040549802439844002630000014369232864756570799_);}
	.st5{fill:#99533D;}
	.st6{clip-path:url(#SVGID_00000094590136852963598590000015336994780669022085_);}
	.st7{clip-path:url(#SVGID_00000061440905821149941140000016846961175990014371_);}
	.st8{fill:#573623;}
	.st9{clip-path:url(#SVGID_00000083080483921725207440000017323337243172102588_);}
	.st10{clip-path:url(#SVGID_00000072975727762179555390000007502501433156642715_);}
	.st11{fill:#FFFFFF;}
	.st12{clip-path:url(#SVGID_00000131364504214495384680000008225741586923274636_);}
	.st13{clip-path:url(#SVGID_00000084509023708284700570000009450459051126402738_);}
	.st14{fill:#090909;}
	.st15{clip-path:url(#SVGID_00000005956474156698636370000014510322521922492807_);}
	.st16{fill:none;stroke:#573623;stroke-width:2;stroke-linecap:round;stroke-miterlimit:10;}
	.st17{fill:#B06F54;}
	.st18{fill:#593723;}
</style>
<path class="st0" d="M71.6,163.6c0,0,0,3.2,0,2.1v-0.2C71.6,164.9,71.6,164.2,71.6,163.6z"/>
<path class="st0" d="M71.6,163.6c0,0,0,3.2,0,2.1v-0.2C71.6,164.9,71.6,164.2,71.6,163.6z"/>
<path class="st0" d="M71.6,163.6c0,0,0,3.2,0,2.1v-0.2C71.6,164.9,71.6,164.2,71.6,163.6z"/>
<path class="st0" d="M71.6,163.6c0,0,0,3.2,0,2.1v-0.2C71.6,164.9,71.6,164.2,71.6,163.6z"/>
<path class="st0" d="M71.6,163.6c0,0,0,3.2,0,2.1v-0.2C71.6,164.9,71.6,164.2,71.6,163.6z"/>
<path class="st0" d="M71.6,163.6c0,0,0,3.2,0,2.1v-0.2C71.6,164.9,71.6,164.2,71.6,163.6z"/>
<g id="_Répétition_miroir_">
	<g>
		<g>
			<defs>
				<polygon id="SVGID_1_" points="164.2,128.9 164.2,128.9 201.4,128.9 201.4,193.6 164.2,193.6 				"/>
			</defs>
			<clipPath id="SVGID_00000169551032331186447480000016246561343517418382_">
				<use xlink:href="#SVGID_1_"  style="overflow:visible;"/>
			</clipPath>
			<g style="clip-path:url(#SVGID_00000169551032331186447480000016246561343517418382_);">
				<path class="st2" d="M164.2,189.4l8.1-49c0,0,12.8-17.9,25.7-9c8.6,5.9-0.8,56.6-9.9,60C172.4,197.3,164.2,189.4,164.2,189.4z"
					/>
			</g>
		</g>
	</g>
</g>
<g id="_Répétition_miroir_2">
	<g>
		<g>
			<defs>
				<polygon id="SVGID_00000056423448006426475180000012020535410102005417_" points="37.2,128.9 37.2,128.9 0,128.9 0,193.6 
					37.2,193.6 				"/>
			</defs>
			<clipPath id="SVGID_00000054227911937675915540000011643842968267274659_">
				<use xlink:href="#SVGID_00000056423448006426475180000012020535410102005417_"  style="overflow:visible;"/>
			</clipPath>
			<g style="clip-path:url(#SVGID_00000054227911937675915540000011643842968267274659_);">
				<path class="st2" d="M37.2,189.4l-8.1-49c0,0-12.8-17.9-25.7-9c-8.6,5.9,0.8,56.6,9.9,60C29,197.3,37.2,189.4,37.2,189.4z"/>
			</g>
		</g>
	</g>
</g>
<g id="_Répétition_miroir_3">
	<g>
		<g>
			<defs>
				<polygon id="SVGID_00000064316434676274527780000002458976792927057322_" points="175.1,137.3 175.1,137.3 197.1,137.3 
					197.1,164 175.1,164 				"/>
			</defs>
			<clipPath id="SVGID_00000158008857088478382040000014556013973999755959_">
				<use xlink:href="#SVGID_00000064316434676274527780000002458976792927057322_"  style="overflow:visible;"/>
			</clipPath>
			<g style="clip-path:url(#SVGID_00000158008857088478382040000014556013973999755959_);">
				<path class="st5" d="M175.7,152.9c0-0.5,1.4-3.1,10.2-10.2c3-2.5,6.5-4.3,10.2-5.4c0.9,1,1.2,2.3,0.9,3.6
					c-0.2,1.6-8,5.6-10.4,7.7c-3.6,3.2-11.5,15-11.5,15.4L175.7,152.9z"/>
			</g>
		</g>
	</g>
</g>
<g id="_Répétition_miroir_4">
	<g>
		<g>
			<defs>
				<polygon id="SVGID_00000033326669471888312870000016927326129391851144_" points="26.3,137.3 26.3,137.3 4.3,137.3 4.3,164 
					26.3,164 				"/>
			</defs>
			<clipPath id="SVGID_00000026124759882407390590000007818988264681978551_">
				<use xlink:href="#SVGID_00000033326669471888312870000016927326129391851144_"  style="overflow:visible;"/>
			</clipPath>
			<g style="clip-path:url(#SVGID_00000026124759882407390590000007818988264681978551_);">
				<path class="st5" d="M25.7,152.9c0-0.5-1.4-3.1-10.2-10.2c-3-2.5-6.5-4.3-10.2-5.4c-0.9,1-1.2,2.3-0.9,3.6
					c0.2,1.6,8,5.6,10.4,7.7c3.6,3.2,11.5,15,11.5,15.4L25.7,152.9z"/>
			</g>
		</g>
	</g>
</g>
<g>
	<g>
		<defs>
			<polygon id="SVGID_00000016790324797845904960000002634822029411082396_" points="122.6,102.5 122.6,102.5 167.6,102.5 
				167.6,116.2 122.6,116.2 			"/>
		</defs>
		<clipPath id="SVGID_00000141435276310709499810000014061556283192064680_">
			<use xlink:href="#SVGID_00000016790324797845904960000002634822029411082396_"  style="overflow:visible;"/>
		</clipPath>
		<g style="clip-path:url(#SVGID_00000141435276310709499810000014061556283192064680_);">
			<path class="st8" d="M165.4,116.2c-0.3,0-0.6-0.1-0.8-0.2c-4.5-1.9-9.1-3.4-13.8-4.5c-15.1-3.4-16.1-1-21.3,0
				c-1.5,0.3-5.2-0.6-6-1.5s-1.4-4.1-0.5-4.9c0.4-0.3,7.1-4.9,24.4-1c7.2,1.6,18.6,7.9,18.9,8c1.1,0.5,1.6,1.7,1.1,2.8
				C167.1,115.7,166.3,116.3,165.4,116.2L165.4,116.2z"/>
		</g>
	</g>
</g>
<g>
	<g>
		<defs>
			<polygon id="SVGID_00000114794115447910418530000017602491307391256254_" points="78.8,102.5 78.8,102.5 33.8,102.5 33.8,116.2 
				78.8,116.2 			"/>
		</defs>
		<clipPath id="SVGID_00000152241972212664580230000005294115901066486972_">
			<use xlink:href="#SVGID_00000114794115447910418530000017602491307391256254_"  style="overflow:visible;"/>
		</clipPath>
		<g style="clip-path:url(#SVGID_00000152241972212664580230000005294115901066486972_);">
			<path class="st8" d="M36,116.2c0.3,0,0.6-0.1,0.8-0.2c4.5-1.9,9.1-3.4,13.8-4.5c15.1-3.4,16.1-1,21.3,0c1.5,0.3,5.2-0.6,6-1.5
				s1.4-4.1,0.5-4.9c-0.4-0.3-7.1-4.9-24.4-1c-7.2,1.6-18.6,7.9-18.9,8c-1.1,0.5-1.6,1.7-1.1,2.8C34.3,115.7,35.1,116.3,36,116.2
				L36,116.2z"/>
		</g>
	</g>
</g>
<g>
	<g>
		<defs>
			<polygon id="SVGID_00000172399041163803012210000004338885568550152631_" points="132.2,129.6 132.2,129.6 161.2,129.6 
				161.2,157.5 132.2,157.5 			"/>
		</defs>
		<clipPath id="SVGID_00000075870377191072483030000012555597278642528137_">
			<use xlink:href="#SVGID_00000172399041163803012210000004338885568550152631_"  style="overflow:visible;"/>
		</clipPath>
		<g style="clip-path:url(#SVGID_00000075870377191072483030000012555597278642528137_);">
			<ellipse class="st11" cx="146.7" cy="143.6" rx="14.5" ry="13.9"/>
		</g>
	</g>
</g>
<g>
	<g>
		<defs>
			<polygon id="SVGID_00000093888396201682390160000006259698888469234618_" points="69.2,129.6 69.2,129.6 40.2,129.6 40.2,157.5 
				69.2,157.5 			"/>
		</defs>
		<clipPath id="SVGID_00000136394878570057074900000015281717329261031828_">
			<use xlink:href="#SVGID_00000093888396201682390160000006259698888469234618_"  style="overflow:visible;"/>
		</clipPath>
		<g style="clip-path:url(#SVGID_00000136394878570057074900000015281717329261031828_);">
			<ellipse class="st11" cx="54.7" cy="143.6" rx="14.5" ry="13.9"/>
		</g>
	</g>
</g>
<g>
	<g>
		<defs>
			<polygon id="SVGID_00000070098797453086061580000008904684766647472005_" points="136.9,135.9 136.9,135.9 156.3,135.9 
				156.3,155.3 136.9,155.3 			"/>
		</defs>
		<clipPath id="SVGID_00000082366945085319123810000006415519448117101721_">
			<use xlink:href="#SVGID_00000070098797453086061580000008904684766647472005_"  style="overflow:visible;"/>
		</clipPath>
		<g style="clip-path:url(#SVGID_00000082366945085319123810000006415519448117101721_);">
			<circle class="st14" cx="146.6" cy="145.6" r="9.7"/>
		</g>
	</g>
</g>
<g>
	<g>
		<defs>
			<polygon id="SVGID_00000031189592130099900550000013156135654572584589_" points="64.5,135.9 64.5,135.9 45.1,135.9 45.1,155.3 
				64.5,155.3 			"/>
		</defs>
		<clipPath id="SVGID_00000003809743604594248760000017458885123990463138_">
			<use xlink:href="#SVGID_00000031189592130099900550000013156135654572584589_"  style="overflow:visible;"/>
		</clipPath>
		<g style="clip-path:url(#SVGID_00000003809743604594248760000017458885123990463138_);">
			<circle class="st14" cx="54.8" cy="145.6" r="9.7"/>
		</g>
	</g>
</g>
<path class="st16" d="M87.2,179.9c0,0,10.4,2.6,13.5,2.6s13.5-3.3,13.5-3.3"/>
<path class="st16" d="M72.4,192.8c1.5,1,3.1,1.7,4.8,2.3c4.4,1.6,12,3.4,23.5,3.2c10.4-0.2,17.5-1.9,22-3.7c2.3-0.8,4.4-1.9,6.4-3.4
	"/>
<path class="st17" d="M176.6,154c2.3-16.1,3.2-54,3.2-54c0-45.5-31.5-74.9-76.5-75.8l0,0H98l0,0C53,25.1,21.5,54.5,21.5,100
	c0,0,0.9,38,3.2,54c1.8,12.9-12.8,35,3.1,57c9.2,12.7,53.8,20.1,70.4,24.3c0.7,0.2,1.4,0.3,2.1,0.3c0.1,0,0.3,0,0.4,0s0.3,0,0.4,0
	c0.7,0,1.4-0.1,2.1-0.3c13.9-3.5,47.5-9.3,63.4-18.5c2.5-0.8,4.7-2.4,6.1-4.7c0.3-0.3,0.6-0.7,0.9-1
	C189.5,189,174.8,166.9,176.6,154z"/>
<path class="st18" d="M92.2,48.6C64.8,37,53-2.1,82.6,0.1c7.9,0.6-24,14,43.4,25.9c24,4.3,29.7,16.5,29.7,16.5S107.5,55.1,92.2,48.6
	z"/>
<path class="st5" d="M88.4,164.6c-0.6,0.1-1.1,0.7-1,1.3c0,0.3,0.2,0.6,0.4,0.8c3,2.5,8.7,6.7,12.5,6.7c3.6,0,9-4.2,11.8-6.6
	c0.5-0.4,0.5-1.2,0.1-1.6c-0.2-0.2-0.4-0.3-0.7-0.4c-3.4-0.5-4.8,1.1-11.6,1.1C94.1,166,91.8,164.2,88.4,164.6z"/>
</svg>
