<?xml version="1.0" encoding="utf-8"?>
<!-- Generator: Adobe Illustrator 26.0.1, SVG Export Plug-In . SVG Version: 6.00 Build 0)  -->
<svg version="1.1" id="Calque_1" xmlns="http://www.w3.org/2000/svg" xmlns:xlink="http://www.w3.org/1999/xlink" x="0px" y="0px"
	 viewBox="0 0 248.3 217.5" style="enable-background:new 0 0 248.3 217.5;" xml:space="preserve">
<style type="text/css">
	.st0{fill:#5E5E5E;}
	.st1{clip-path:url(#SVGID_00000118372475337043791250000014365050776310923671_);}
	.st2{fill:#B9785C;}
	.st3{clip-path:url(#SVGID_00000150063471015123951450000002104192206269558201_);}
	.st4{clip-path:url(#SVGID_00000135675321254064110100000000337960404104503452_);}
	.st5{fill:#99533D;}
	.st6{clip-path:url(#SVGID_00000111159581962485496900000013171534739936698280_);}
	.st7{clip-path:url(#SVGID_00000065788739794017344170000009200266238246832265_);}
	.st8{fill:#573623;}
	.st9{clip-path:url(#SVGID_00000109018086559954618960000001727977501270388632_);}
	.st10{clip-path:url(#SVGID_00000006699633796043611950000015899487347275589008_);}
	.st11{fill:#FFFFFF;}
	.st12{clip-path:url(#SVGID_00000016076273131571540090000017824365346643003804_);}
	.st13{clip-path:url(#SVGID_00000052068047713273823570000014340903061776612536_);}
	.st14{fill:#090909;}
	.st15{clip-path:url(#SVGID_00000024693901537062418880000009596071987745835193_);}
	.st16{fill:none;stroke:#573623;stroke-width:2;stroke-linecap:round;stroke-miterlimit:10;}
	.st17{fill:#B06F54;}
	.st18{fill:#593723;}
</style>
<path class="st0" d="M97.5,145.5c0,0,0,3.2,0,2.1v-0.2C97.5,146.8,97.5,146.1,97.5,145.5z"/>
<path class="st0" d="M97.5,145.5c0,0,0,3.2,0,2.1v-0.2C97.5,146.8,97.5,146.1,97.5,145.5z"/>
<path class="st0" d="M97.5,145.5c0,0,0,3.2,0,2.1v-0.2C97.5,146.8,97.5,146.1,97.5,145.5z"/>
<path class="st0" d="M97.5,145.5c0,0,0,3.2,0,2.1v-0.2C97.5,146.8,97.5,146.1,97.5,145.5z"/>
<path class="st0" d="M97.5,145.5c0,0,0,3.2,0,2.1v-0.2C97.5,146.8,97.5,146.1,97.5,145.5z"/>
<path class="st0" d="M97.5,145.5c0,0,0,3.2,0,2.1v-0.2C97.5,146.8,97.5,146.1,97.5,145.5z"/>
<g id="_Répétition_miroir_">
	<g>
		<g>
			<defs>
				<polygon id="SVGID_1_" points="190.1,110.8 190.1,110.8 227.3,110.8 227.3,175.5 190.1,175.5 				"/>
			</defs>
			<clipPath id="SVGID_00000060016222924203371070000013603156723984330901_">
				<use xlink:href="#SVGID_1_"  style="overflow:visible;"/>
			</clipPath>
			<g style="clip-path:url(#SVGID_00000060016222924203371070000013603156723984330901_);">
				<path class="st2" d="M190.1,171.3l8.1-49c0,0,12.8-17.9,25.7-9c8.6,5.9-0.8,56.6-9.9,60C198.3,179.2,190.1,171.3,190.1,171.3z"
					/>
			</g>
		</g>
	</g>
</g>
<g id="_Répétition_miroir_2">
	<g>
		<g>
			<defs>
				<polygon id="SVGID_00000135669508094351271200000007973338898056062628_" points="63.1,110.8 63.1,110.8 25.9,110.8 25.9,175.5 
					63.1,175.5 				"/>
			</defs>
			<clipPath id="SVGID_00000060015979437154637140000002377339725575333550_">
				<use xlink:href="#SVGID_00000135669508094351271200000007973338898056062628_"  style="overflow:visible;"/>
			</clipPath>
			<g style="clip-path:url(#SVGID_00000060015979437154637140000002377339725575333550_);">
				<path class="st2" d="M63.1,171.3l-8.1-49c0,0-12.8-17.9-25.7-9c-8.6,5.9,0.8,56.6,9.9,60C54.9,179.2,63.1,171.3,63.1,171.3z"/>
			</g>
		</g>
	</g>
</g>
<g id="_Répétition_miroir_3">
	<g>
		<g>
			<defs>
				<polygon id="SVGID_00000005970496652078275140000016695796167307766206_" points="201,119.2 201,119.2 223,119.2 223,145.9 
					201,145.9 				"/>
			</defs>
			<clipPath id="SVGID_00000100340591662345294990000011085382846691478443_">
				<use xlink:href="#SVGID_00000005970496652078275140000016695796167307766206_"  style="overflow:visible;"/>
			</clipPath>
			<g style="clip-path:url(#SVGID_00000100340591662345294990000011085382846691478443_);">
				<path class="st5" d="M201.6,134.8c0-0.5,1.4-3.1,10.2-10.2c3-2.5,6.5-4.3,10.2-5.4c0.9,1,1.2,2.3,0.9,3.6
					c-0.2,1.6-8,5.6-10.4,7.7c-3.6,3.2-11.5,15-11.5,15.4L201.6,134.8z"/>
			</g>
		</g>
	</g>
</g>
<g id="_Répétition_miroir_4">
	<g>
		<g>
			<defs>
				<polygon id="SVGID_00000160893635028542047230000011109698591138123697_" points="52.2,119.2 52.2,119.2 30.2,119.2 30.2,145.9 
					52.2,145.9 				"/>
			</defs>
			<clipPath id="SVGID_00000059297328402170217330000011756830883800432030_">
				<use xlink:href="#SVGID_00000160893635028542047230000011109698591138123697_"  style="overflow:visible;"/>
			</clipPath>
			<g style="clip-path:url(#SVGID_00000059297328402170217330000011756830883800432030_);">
				<path class="st5" d="M51.6,134.8c0-0.5-1.4-3.1-10.2-10.2c-3-2.5-6.5-4.3-10.2-5.4c-0.9,1-1.2,2.3-0.9,3.6
					c0.2,1.6,8,5.6,10.4,7.7c3.6,3.2,11.5,15,11.5,15.4L51.6,134.8z"/>
			</g>
		</g>
	</g>
</g>
<g>
	<g>
		<defs>
			<polygon id="SVGID_00000054967168665909479560000002776354995802062517_" points="148.5,84.4 148.5,84.4 193.5,84.4 193.5,98.1 
				148.5,98.1 			"/>
		</defs>
		<clipPath id="SVGID_00000026154481168620821000000003880132694220715146_">
			<use xlink:href="#SVGID_00000054967168665909479560000002776354995802062517_"  style="overflow:visible;"/>
		</clipPath>
		<g style="clip-path:url(#SVGID_00000026154481168620821000000003880132694220715146_);">
			<path class="st8" d="M191.3,98.1c-0.3,0-0.6-0.1-0.8-0.2c-4.5-1.9-9.1-3.4-13.8-4.5c-15.1-3.4-16.1-1-21.3,0
				c-1.5,0.3-5.2-0.6-6-1.5s-1.4-4.1-0.5-4.9c0.4-0.3,7.1-4.9,24.4-1c7.2,1.6,18.6,7.9,18.9,8c1.1,0.5,1.6,1.7,1.1,2.8
				C193,97.6,192.2,98.2,191.3,98.1L191.3,98.1z"/>
		</g>
	</g>
</g>
<g>
	<g>
		<defs>
			<polygon id="SVGID_00000076562416600493587460000008195215501846185864_" points="104.7,84.4 104.7,84.4 59.7,84.4 59.7,98.1 
				104.7,98.1 			"/>
		</defs>
		<clipPath id="SVGID_00000183943994524315603710000015038697579633649835_">
			<use xlink:href="#SVGID_00000076562416600493587460000008195215501846185864_"  style="overflow:visible;"/>
		</clipPath>
		<g style="clip-path:url(#SVGID_00000183943994524315603710000015038697579633649835_);">
			<path class="st8" d="M61.9,98.1c0.3,0,0.6-0.1,0.8-0.2c4.5-1.9,9.1-3.4,13.8-4.5c15.1-3.4,16.1-1,21.3,0c1.5,0.3,5.2-0.6,6-1.5
				s1.4-4.1,0.5-4.9c-0.4-0.3-7.1-4.9-24.4-1c-7.2,1.6-18.6,7.9-18.9,8c-1.1,0.5-1.6,1.7-1.1,2.8C60.2,97.6,61,98.2,61.9,98.1
				L61.9,98.1z"/>
		</g>
	</g>
</g>
<g>
	<g>
		<defs>
			<polygon id="SVGID_00000009572735757435384020000005264340848819559808_" points="158.1,111.5 158.1,111.5 187.1,111.5 
				187.1,139.4 158.1,139.4 			"/>
		</defs>
		<clipPath id="SVGID_00000120541344266571351400000004176391424654444729_">
			<use xlink:href="#SVGID_00000009572735757435384020000005264340848819559808_"  style="overflow:visible;"/>
		</clipPath>
		<g style="clip-path:url(#SVGID_00000120541344266571351400000004176391424654444729_);">
			<ellipse class="st11" cx="172.6" cy="125.5" rx="14.5" ry="13.9"/>
		</g>
	</g>
</g>
<g>
	<g>
		<defs>
			<polygon id="SVGID_00000039844296788487635700000003806146897938953402_" points="95.1,111.5 95.1,111.5 66.1,111.5 66.1,139.4 
				95.1,139.4 			"/>
		</defs>
		<clipPath id="SVGID_00000150782038720507927450000014199806499453770677_">
			<use xlink:href="#SVGID_00000039844296788487635700000003806146897938953402_"  style="overflow:visible;"/>
		</clipPath>
		<g style="clip-path:url(#SVGID_00000150782038720507927450000014199806499453770677_);">
			<ellipse class="st11" cx="80.6" cy="125.5" rx="14.5" ry="13.9"/>
		</g>
	</g>
</g>
<g>
	<g>
		<defs>
			<polygon id="SVGID_00000105408094778789715700000017185991966339166084_" points="162.8,117.8 162.8,117.8 182.2,117.8 
				182.2,137.2 162.8,137.2 			"/>
		</defs>
		<clipPath id="SVGID_00000036952445679792363290000011204623170997957053_">
			<use xlink:href="#SVGID_00000105408094778789715700000017185991966339166084_"  style="overflow:visible;"/>
		</clipPath>
		<g style="clip-path:url(#SVGID_00000036952445679792363290000011204623170997957053_);">
			<circle class="st14" cx="172.5" cy="127.5" r="9.7"/>
		</g>
	</g>
</g>
<g>
	<g>
		<defs>
			<polygon id="SVGID_00000031912499817798379810000009411554012614355361_" points="90.4,117.8 90.4,117.8 71,117.8 71,137.2 
				90.4,137.2 			"/>
		</defs>
		<clipPath id="SVGID_00000072980355451827493910000008514188222026940817_">
			<use xlink:href="#SVGID_00000031912499817798379810000009411554012614355361_"  style="overflow:visible;"/>
		</clipPath>
		<g style="clip-path:url(#SVGID_00000072980355451827493910000008514188222026940817_);">
			<circle class="st14" cx="80.7" cy="127.5" r="9.7"/>
		</g>
	</g>
</g>
<path class="st16" d="M113.1,161.8c0,0,10.4,2.6,13.5,2.6c3.1,0,13.5-3.3,13.5-3.3"/>
<path class="st16" d="M98.3,174.7c1.5,1,3.1,1.7,4.8,2.3c4.4,1.6,12,3.4,23.5,3.2c10.4-0.2,17.5-1.9,22-3.7c2.3-0.8,4.4-1.9,6.4-3.4
	"/>
<path class="st17" d="M202.5,135.9c2.3-16.1,3.2-54,3.2-54c0-45.5-31.5-74.9-76.5-75.8l0,0h-5.3l0,0C78.9,7,47.4,36.4,47.4,81.9
	c0,0,0.9,38,3.2,54c1.8,12.9-12.8,35,3.1,57c9.2,12.7,53.8,20.1,70.4,24.3c0.7,0.2,1.4,0.3,2.1,0.3c0.1,0,0.3,0,0.4,0s0.3,0,0.4,0
	c0.7,0,1.4-0.1,2.1-0.3c13.9-3.5,47.5-9.3,63.4-18.5c2.5-0.8,4.7-2.4,6.1-4.7c0.3-0.3,0.6-0.7,0.9-1
	C215.4,170.9,200.7,148.8,202.5,135.9z"/>
<path class="st18" d="M247.8,145.6c-1.1-6.5-7.6,15.9-20.3-15.8C227.5,110.5,221,0,221,0L33.4,3.3l-9,122.2
	c-15,37.9-22.6,13.3-23.9,20.1c-5.5,29.1,34.7,21.8,49.3-4.1c8.1-14.4,1-63.8,1-63.8l-0.2,0.1l1.7-26.1c0,0,66.2,1,76.7,2.3
	c8.2,1,61.8-1.2,66.2-0.4c2.1,0.4,4.4,12.9,6,25.1c-0.9,7-5.8,49.6,1.1,62.8C215.9,167.4,252.9,174.7,247.8,145.6z"/>
<path class="st5" d="M114.3,146.5c-0.6,0.1-1.1,0.7-1,1.3c0,0.3,0.2,0.6,0.4,0.8c3,2.5,8.7,6.7,12.5,6.7c3.6,0,9-4.2,11.8-6.6
	c0.5-0.4,0.5-1.2,0.1-1.6c-0.2-0.2-0.4-0.3-0.7-0.4c-3.4-0.5-4.8,1.1-11.6,1.1C120,147.9,117.7,146.1,114.3,146.5z"/>
</svg>
