<?xml version="1.0" encoding="utf-8"?>
<!-- Generator: Adobe Illustrator 26.0.1, SVG Export Plug-In . SVG Version: 6.00 Build 0)  -->
<svg version="1.1" id="Calque_1" xmlns="http://www.w3.org/2000/svg" xmlns:xlink="http://www.w3.org/1999/xlink" x="0px" y="0px"
	 viewBox="0 0 201.4 258.6" style="enable-background:new 0 0 201.4 258.6;" xml:space="preserve">
<style type="text/css">
	.st0{fill:#5E5E5E;}
	.st1{clip-path:url(#SVGID_00000018923241184663758830000012220927508033698963_);}
	.st2{fill:#B9785C;}
	.st3{clip-path:url(#SVGID_00000145033110790025260900000014349507722748654775_);}
	.st4{clip-path:url(#SVGID_00000044876688161518313050000002550199693534689189_);}
	.st5{fill:#99533D;}
	.st6{clip-path:url(#SVGID_00000074431814436541631670000011859880297369418907_);}
	.st7{clip-path:url(#SVGID_00000151503635530155993430000006317971968215226302_);}
	.st8{fill:#573623;}
	.st9{clip-path:url(#SVGID_00000044877016234421115250000006339096682216889237_);}
	.st10{clip-path:url(#SVGID_00000172414788500795836700000007117995482348578228_);}
	.st11{fill:#FFFFFF;}
	.st12{clip-path:url(#SVGID_00000132052200168086385580000005715247665073285513_);}
	.st13{clip-path:url(#SVGID_00000160189017391236254230000011885971582616192951_);}
	.st14{fill:#090909;}
	.st15{clip-path:url(#SVGID_00000155133746064128466680000009674818017145202609_);}
	.st16{fill:none;stroke:#573623;stroke-width:2;stroke-linecap:round;stroke-miterlimit:10;}
	.st17{fill:#B06F54;}
	.st18{fill:#8A5035;}
	.st19{fill:#28211A;}
	.st20{fill:#493C2F;}
</style>
<path class="st0" d="M71.6,186.6c0,0,0,3.2,0,2.1v-0.2C71.6,187.9,71.6,187.2,71.6,186.6z"/>
<path class="st0" d="M71.6,186.6c0,0,0,3.2,0,2.1v-0.2C71.6,187.9,71.6,187.2,71.6,186.6z"/>
<path class="st0" d="M71.6,186.6c0,0,0,3.2,0,2.1v-0.2C71.6,187.9,71.6,187.2,71.6,186.6z"/>
<path class="st0" d="M71.6,186.6c0,0,0,3.2,0,2.1v-0.2C71.6,187.9,71.6,187.2,71.6,186.6z"/>
<path class="st0" d="M71.6,186.6c0,0,0,3.2,0,2.1v-0.2C71.6,187.9,71.6,187.2,71.6,186.6z"/>
<path class="st0" d="M71.6,186.6c0,0,0,3.2,0,2.1v-0.2C71.6,187.9,71.6,187.2,71.6,186.6z"/>
<g id="_Répétition_miroir_">
	<g>
		<g>
			<defs>
				<polygon id="SVGID_1_" points="164.2,151.9 164.2,151.9 201.4,151.9 201.4,216.6 164.2,216.6 				"/>
			</defs>
			<clipPath id="SVGID_00000058567395702234753870000017642906324789275828_">
				<use xlink:href="#SVGID_1_"  style="overflow:visible;"/>
			</clipPath>
			<g style="clip-path:url(#SVGID_00000058567395702234753870000017642906324789275828_);">
				<path class="st2" d="M164.2,212.4l8.1-49c0,0,12.8-17.9,25.7-9c8.6,5.9-0.8,56.6-9.9,60C172.4,220.3,164.2,212.4,164.2,212.4z"
					/>
			</g>
		</g>
	</g>
</g>
<g id="_Répétition_miroir_2">
	<g>
		<g>
			<defs>
				<polygon id="SVGID_00000117647407019686947940000001013969878396917399_" points="37.2,151.9 37.2,151.9 0,151.9 0,216.6 
					37.2,216.6 				"/>
			</defs>
			<clipPath id="SVGID_00000028321232208672258490000006026064001007499932_">
				<use xlink:href="#SVGID_00000117647407019686947940000001013969878396917399_"  style="overflow:visible;"/>
			</clipPath>
			<g style="clip-path:url(#SVGID_00000028321232208672258490000006026064001007499932_);">
				<path class="st2" d="M37.2,212.4l-8.1-49c0,0-12.8-17.9-25.7-9c-8.6,5.9,0.8,56.6,9.9,60C29,220.3,37.2,212.4,37.2,212.4z"/>
			</g>
		</g>
	</g>
</g>
<g id="_Répétition_miroir_3">
	<g>
		<g>
			<defs>
				<polygon id="SVGID_00000163779052946394027640000012699825471648740536_" points="175.1,160.3 175.1,160.3 197.1,160.3 
					197.1,187 175.1,187 				"/>
			</defs>
			<clipPath id="SVGID_00000132770542350238143640000016197029443965100989_">
				<use xlink:href="#SVGID_00000163779052946394027640000012699825471648740536_"  style="overflow:visible;"/>
			</clipPath>
			<g style="clip-path:url(#SVGID_00000132770542350238143640000016197029443965100989_);">
				<path class="st5" d="M175.7,175.9c0-0.5,1.4-3.1,10.2-10.2c3-2.5,6.5-4.3,10.2-5.4c0.9,1,1.2,2.3,0.9,3.6
					c-0.2,1.6-8,5.6-10.4,7.7c-3.6,3.2-11.5,15-11.5,15.4L175.7,175.9z"/>
			</g>
		</g>
	</g>
</g>
<g id="_Répétition_miroir_4">
	<g>
		<g>
			<defs>
				<polygon id="SVGID_00000137121252764795036000000003121623145415224995_" points="26.3,160.3 26.3,160.3 4.3,160.3 4.3,187 
					26.3,187 				"/>
			</defs>
			<clipPath id="SVGID_00000127748288196652951260000012193720382015241902_">
				<use xlink:href="#SVGID_00000137121252764795036000000003121623145415224995_"  style="overflow:visible;"/>
			</clipPath>
			<g style="clip-path:url(#SVGID_00000127748288196652951260000012193720382015241902_);">
				<path class="st5" d="M25.7,175.9c0-0.5-1.4-3.1-10.2-10.2c-3-2.5-6.5-4.3-10.2-5.4c-0.9,1-1.2,2.3-0.9,3.6
					c0.2,1.6,8,5.6,10.4,7.7c3.6,3.2,11.5,15,11.5,15.4L25.7,175.9z"/>
			</g>
		</g>
	</g>
</g>
<g>
	<g>
		<defs>
			<polygon id="SVGID_00000155824837131187842580000008784883697852769704_" points="122.6,125.5 122.6,125.5 167.6,125.5 
				167.6,139.2 122.6,139.2 			"/>
		</defs>
		<clipPath id="SVGID_00000074414169145571683270000007075205399723040699_">
			<use xlink:href="#SVGID_00000155824837131187842580000008784883697852769704_"  style="overflow:visible;"/>
		</clipPath>
		<g style="clip-path:url(#SVGID_00000074414169145571683270000007075205399723040699_);">
			<path class="st8" d="M165.4,139.2c-0.3,0-0.6-0.1-0.8-0.2c-4.5-1.9-9.1-3.4-13.8-4.5c-15.1-3.4-16.1-1-21.3,0
				c-1.5,0.3-5.2-0.6-6-1.5s-1.4-4.1-0.5-4.9c0.4-0.3,7.1-4.9,24.4-1c7.2,1.6,18.6,7.9,18.9,8c1.1,0.5,1.6,1.7,1.1,2.8
				C167.1,138.7,166.3,139.3,165.4,139.2L165.4,139.2z"/>
		</g>
	</g>
</g>
<g>
	<g>
		<defs>
			<polygon id="SVGID_00000176024224875682748140000017536491710945417356_" points="78.8,125.5 78.8,125.5 33.8,125.5 33.8,139.2 
				78.8,139.2 			"/>
		</defs>
		<clipPath id="SVGID_00000109027135769144435920000011255723297494675851_">
			<use xlink:href="#SVGID_00000176024224875682748140000017536491710945417356_"  style="overflow:visible;"/>
		</clipPath>
		<g style="clip-path:url(#SVGID_00000109027135769144435920000011255723297494675851_);">
			<path class="st8" d="M36,139.2c0.3,0,0.6-0.1,0.8-0.2c4.5-1.9,9.1-3.4,13.8-4.5c15.1-3.4,16.1-1,21.3,0c1.5,0.3,5.2-0.6,6-1.5
				s1.4-4.1,0.5-4.9c-0.4-0.3-7.1-4.9-24.4-1c-7.2,1.6-18.6,7.9-18.9,8c-1.1,0.5-1.6,1.7-1.1,2.8C34.3,138.7,35.1,139.3,36,139.2
				L36,139.2z"/>
		</g>
	</g>
</g>
<g>
	<g>
		<defs>
			<polygon id="SVGID_00000023962252508890054590000005199480956611533486_" points="132.2,152.6 132.2,152.6 161.2,152.6 
				161.2,180.5 132.2,180.5 			"/>
		</defs>
		<clipPath id="SVGID_00000047036464069867712360000009337251351525764781_">
			<use xlink:href="#SVGID_00000023962252508890054590000005199480956611533486_"  style="overflow:visible;"/>
		</clipPath>
		<g style="clip-path:url(#SVGID_00000047036464069867712360000009337251351525764781_);">
			<ellipse class="st11" cx="146.7" cy="166.6" rx="14.5" ry="13.9"/>
		</g>
	</g>
</g>
<g>
	<g>
		<defs>
			<polygon id="SVGID_00000002383216496086880540000017804047300516035753_" points="69.2,152.6 69.2,152.6 40.2,152.6 40.2,180.5 
				69.2,180.5 			"/>
		</defs>
		<clipPath id="SVGID_00000130630557878436734880000010091999998391747992_">
			<use xlink:href="#SVGID_00000002383216496086880540000017804047300516035753_"  style="overflow:visible;"/>
		</clipPath>
		<g style="clip-path:url(#SVGID_00000130630557878436734880000010091999998391747992_);">
			<ellipse class="st11" cx="54.7" cy="166.6" rx="14.5" ry="13.9"/>
		</g>
	</g>
</g>
<g>
	<g>
		<defs>
			<polygon id="SVGID_00000070822539632880319200000002231296853078967683_" points="136.9,158.9 136.9,158.9 156.3,158.9 
				156.3,178.3 136.9,178.3 			"/>
		</defs>
		<clipPath id="SVGID_00000063628730139497514870000009096493773053819300_">
			<use xlink:href="#SVGID_00000070822539632880319200000002231296853078967683_"  style="overflow:visible;"/>
		</clipPath>
		<g style="clip-path:url(#SVGID_00000063628730139497514870000009096493773053819300_);">
			<circle class="st14" cx="146.6" cy="168.6" r="9.7"/>
		</g>
	</g>
</g>
<g>
	<g>
		<defs>
			<polygon id="SVGID_00000150800610397321117020000015172721522564912524_" points="64.5,158.9 64.5,158.9 45.1,158.9 45.1,178.3 
				64.5,178.3 			"/>
		</defs>
		<clipPath id="SVGID_00000067204276944568179580000010176695493937543858_">
			<use xlink:href="#SVGID_00000150800610397321117020000015172721522564912524_"  style="overflow:visible;"/>
		</clipPath>
		<g style="clip-path:url(#SVGID_00000067204276944568179580000010176695493937543858_);">
			<circle class="st14" cx="54.8" cy="168.6" r="9.7"/>
		</g>
	</g>
</g>
<path class="st16" d="M87.2,202.9c0,0,10.4,2.6,13.5,2.6s13.5-3.3,13.5-3.3"/>
<path class="st16" d="M72.4,215.8c1.5,1,3.1,1.7,4.8,2.3c4.4,1.6,12,3.4,23.5,3.2c10.4-0.2,17.5-1.9,22-3.7c2.3-0.8,4.4-1.9,6.4-3.4
	"/>
<path class="st17" d="M176.6,177c2.3-16.1,3.2-54,3.2-54c0-45.5-31.5-74.9-76.5-75.8l0,0H98l0,0C53,48.1,21.5,77.5,21.5,123
	c0,0,0.9,38,3.2,54c1.8,12.9-12.8,35,3.1,57c9.2,12.7,53.8,20.1,70.4,24.3c0.7,0.2,1.4,0.3,2.1,0.3c0.1,0,0.3,0,0.4,0s0.3,0,0.4,0
	c0.7,0,1.4-0.1,2.1-0.3c13.9-3.5,47.5-9.3,63.4-18.5c2.4-0.8,6.7-5.4,7-5.8C189.5,212,174.8,189.9,176.6,177z"/>
<path class="st18" d="M178.8,101.1c0,0-0.3,13.6-1.1,28c-10.1,7.1-36.3-19.8-77.7-19.8c-39.4,0-66.4,24.4-78.4,20.6
	c-0.8-14.7-1.1-28.8-1.1-28.8C20.5,55.6,52,26.2,97,25.3l0,0h5.3l0,0C147.4,26.3,178.8,55.6,178.8,101.1z"/>
<path class="st19" d="M197.1,81.8c0,45.5-44.1,23.6-98.5,23.6S0.1,127.3,0.1,81.8s44.1-66,98.5-66S197.1,36.3,197.1,81.8z"/>
<path class="st20" d="M197.1,81.8c0,45.5-44.1,0-98.5,0s-98.5,45.5-98.5,0S44.2,0,98.6,0S197.1,36.3,197.1,81.8z"/>
<path class="st5" d="M88.4,187.6c-0.6,0.1-1.1,0.7-1,1.3c0,0.3,0.2,0.6,0.4,0.8c3,2.5,8.7,6.7,12.5,6.7c3.6,0,9-4.2,11.8-6.6
	c0.5-0.4,0.5-1.2,0.1-1.6c-0.2-0.2-0.4-0.3-0.7-0.4c-3.4-0.5-4.8,1.1-11.6,1.1C94.1,189,91.8,187.2,88.4,187.6z"/>
</svg>
