<?xml version="1.0" encoding="utf-8"?>
<!-- Generator: Adobe Illustrator 26.0.1, SVG Export Plug-In . SVG Version: 6.00 Build 0)  -->
<svg version="1.1" id="Calque_1" xmlns="http://www.w3.org/2000/svg" xmlns:xlink="http://www.w3.org/1999/xlink" x="0px" y="0px"
	 viewBox="0 0 788 1005" style="enable-background:new 0 0 788 1005;" xml:space="preserve">
<style type="text/css">
	.st0{fill:#5E5E5E;}
	.st1{clip-path:url(#SVGID_00000153689977281847389360000011269746241441272748_);}
	.st2{fill:#B9785C;}
	.st3{clip-path:url(#SVGID_00000114050415301557765580000016172266807143881857_);}
	.st4{clip-path:url(#SVGID_00000162348634953860655050000017637051471843673221_);}
	.st5{fill:#99533D;}
	.st6{clip-path:url(#SVGID_00000130606580783152398920000009762409558163802504_);}
	.st7{clip-path:url(#SVGID_00000045619174875795709090000007174590766734662582_);}
	.st8{fill:#573623;}
	.st9{clip-path:url(#SVGID_00000116219577688236716540000004494221600597485240_);}
	.st10{clip-path:url(#SVGID_00000095297806333331289240000013943525109181552050_);}
	.st11{fill:#FFFFFF;}
	.st12{clip-path:url(#SVGID_00000031166213155934372650000006439411964493265854_);}
	.st13{clip-path:url(#SVGID_00000013877796115955326700000000517486775373772947_);}
	.st14{fill:#090909;}
	.st15{clip-path:url(#SVGID_00000084522157636814339100000002713659231967787955_);}
	.st16{fill:none;stroke:#573623;stroke-width:2;stroke-linecap:round;stroke-miterlimit:10;}
	.st17{fill:#B06F54;}
	.st18{fill:#593723;}
</style>
<path class="st0" d="M364.9,340.6c0,0,0,3.2,0,2.1v-0.2C364.9,341.9,364.9,341.2,364.9,340.6z"/>
<path class="st0" d="M364.9,340.6c0,0,0,3.2,0,2.1v-0.2C364.9,341.9,364.9,341.2,364.9,340.6z"/>
<path class="st0" d="M364.9,340.6c0,0,0,3.2,0,2.1v-0.2C364.9,341.9,364.9,341.2,364.9,340.6z"/>
<path class="st0" d="M364.9,340.6c0,0,0,3.2,0,2.1v-0.2C364.9,341.9,364.9,341.2,364.9,340.6z"/>
<path class="st0" d="M364.9,340.6c0,0,0,3.2,0,2.1v-0.2C364.9,341.9,364.9,341.2,364.9,340.6z"/>
<path class="st0" d="M364.9,340.6c0,0,0,3.2,0,2.1v-0.2C364.9,341.9,364.9,341.2,364.9,340.6z"/>
<g id="_Répétition_miroir_">
	<g>
		<defs>
			<polygon id="SVGID_1_" points="457.5,305.9 457.5,305.9 494.7,305.9 494.7,370.6 457.5,370.6 			"/>
		</defs>
		<clipPath id="SVGID_00000060723045063544374640000009544384390599248269_">
			<use xlink:href="#SVGID_1_"  style="overflow:visible;"/>
		</clipPath>
		<g style="clip-path:url(#SVGID_00000060723045063544374640000009544384390599248269_);">
			<path class="st2" d="M457.5,366.4l8.1-49c0,0,12.8-17.9,25.7-9c8.6,5.9-0.8,56.6-9.9,60C465.7,374.3,457.5,366.4,457.5,366.4z"/>
		</g>
	</g>
</g>
<g id="_Répétition_miroir_2">
	<g>
		<defs>
			<polygon id="SVGID_00000101076817252279011840000013122606561867795380_" points="330.5,305.9 330.5,305.9 293.3,305.9 
				293.3,370.6 330.5,370.6 			"/>
		</defs>
		<clipPath id="SVGID_00000105406203953947858790000005432684314536751787_">
			<use xlink:href="#SVGID_00000101076817252279011840000013122606561867795380_"  style="overflow:visible;"/>
		</clipPath>
		<g style="clip-path:url(#SVGID_00000105406203953947858790000005432684314536751787_);">
			<path class="st2" d="M330.5,366.4l-8.1-49c0,0-12.8-17.9-25.7-9c-8.6,5.9,0.8,56.6,9.9,60C322.3,374.3,330.5,366.4,330.5,366.4z"
				/>
		</g>
	</g>
</g>
<g id="_Répétition_miroir_3">
	<g>
		<defs>
			<polygon id="SVGID_00000135679753765987296150000001552542064606924454_" points="468.4,314.3 468.4,314.3 490.4,314.3 
				490.4,341 468.4,341 			"/>
		</defs>
		<clipPath id="SVGID_00000101092522447202116720000007240377701678792118_">
			<use xlink:href="#SVGID_00000135679753765987296150000001552542064606924454_"  style="overflow:visible;"/>
		</clipPath>
		<g style="clip-path:url(#SVGID_00000101092522447202116720000007240377701678792118_);">
			<path class="st5" d="M469,329.9c0-0.5,1.4-3.1,10.2-10.2c3-2.5,6.5-4.3,10.2-5.4c0.9,1,1.2,2.3,0.9,3.6c-0.2,1.6-8,5.6-10.4,7.7
				c-3.6,3.2-11.5,15-11.5,15.4L469,329.9z"/>
		</g>
	</g>
</g>
<g id="_Répétition_miroir_4">
	<g>
		<defs>
			<polygon id="SVGID_00000146466765885505903960000013563426359171697029_" points="319.6,314.3 319.6,314.3 297.6,314.3 
				297.6,341 319.6,341 			"/>
		</defs>
		<clipPath id="SVGID_00000101816892968403680820000016760880696851788681_">
			<use xlink:href="#SVGID_00000146466765885505903960000013563426359171697029_"  style="overflow:visible;"/>
		</clipPath>
		<g style="clip-path:url(#SVGID_00000101816892968403680820000016760880696851788681_);">
			<path class="st5" d="M319,329.9c0-0.5-1.4-3.1-10.2-10.2c-3-2.5-6.5-4.3-10.2-5.4c-0.9,1-1.2,2.3-0.9,3.6c0.2,1.6,8,5.6,10.4,7.7
				c3.6,3.2,11.5,15,11.5,15.4L319,329.9z"/>
		</g>
	</g>
</g>
<g>
	<defs>
		<polygon id="SVGID_00000179635303963670238830000014353152727809983154_" points="415.9,279.5 415.9,279.5 460.9,279.5 
			460.9,293.2 415.9,293.2 		"/>
	</defs>
	<clipPath id="SVGID_00000105391297391510824390000016254886963245975181_">
		<use xlink:href="#SVGID_00000179635303963670238830000014353152727809983154_"  style="overflow:visible;"/>
	</clipPath>
	<g style="clip-path:url(#SVGID_00000105391297391510824390000016254886963245975181_);">
		<path class="st8" d="M458.7,293.2c-0.3,0-0.6-0.1-0.8-0.2c-4.5-1.9-9.1-3.4-13.8-4.5c-15.1-3.4-16.1-1-21.3,0
			c-1.5,0.3-5.2-0.6-6-1.5s-1.4-4.1-0.5-4.9c0.4-0.3,7.1-4.9,24.4-1c7.2,1.6,18.6,7.9,18.9,8c1.1,0.5,1.6,1.7,1.1,2.8
			C460.4,292.7,459.6,293.3,458.7,293.2L458.7,293.2z"/>
	</g>
</g>
<g>
	<defs>
		<polygon id="SVGID_00000117677880645404872020000009684476129452263349_" points="372.1,279.5 372.1,279.5 327.1,279.5 
			327.1,293.2 372.1,293.2 		"/>
	</defs>
	<clipPath id="SVGID_00000101066461607997628170000000371478225239428001_">
		<use xlink:href="#SVGID_00000117677880645404872020000009684476129452263349_"  style="overflow:visible;"/>
	</clipPath>
	<g style="clip-path:url(#SVGID_00000101066461607997628170000000371478225239428001_);">
		<path class="st8" d="M329.3,293.2c0.3,0,0.6-0.1,0.8-0.2c4.5-1.9,9.1-3.4,13.8-4.5c15.1-3.4,16.1-1,21.3,0c1.5,0.3,5.2-0.6,6-1.5
			s1.4-4.1,0.5-4.9c-0.4-0.3-7.1-4.9-24.4-1c-7.2,1.6-18.6,7.9-18.9,8c-1.1,0.5-1.6,1.7-1.1,2.8
			C327.6,292.7,328.4,293.3,329.3,293.2L329.3,293.2z"/>
	</g>
</g>
<g>
	<defs>
		<polygon id="SVGID_00000106130635264685793680000012481818255181765001_" points="425.5,306.6 425.5,306.6 454.5,306.6 
			454.5,334.5 425.5,334.5 		"/>
	</defs>
	<clipPath id="SVGID_00000142158226678020928740000004936638489176282812_">
		<use xlink:href="#SVGID_00000106130635264685793680000012481818255181765001_"  style="overflow:visible;"/>
	</clipPath>
	<g style="clip-path:url(#SVGID_00000142158226678020928740000004936638489176282812_);">
		<ellipse class="st11" cx="440" cy="320.6" rx="14.5" ry="13.9"/>
	</g>
</g>
<g>
	<defs>
		<polygon id="SVGID_00000108295714316024356640000015583432966353544576_" points="362.5,306.6 362.5,306.6 333.5,306.6 
			333.5,334.5 362.5,334.5 		"/>
	</defs>
	<clipPath id="SVGID_00000060735614652037744190000014683165879553038753_">
		<use xlink:href="#SVGID_00000108295714316024356640000015583432966353544576_"  style="overflow:visible;"/>
	</clipPath>
	<g style="clip-path:url(#SVGID_00000060735614652037744190000014683165879553038753_);">
		<ellipse class="st11" cx="348" cy="320.6" rx="14.5" ry="13.9"/>
	</g>
</g>
<g>
	<defs>
		<polygon id="SVGID_00000074443458946777275030000018173205796241797264_" points="430.2,312.9 430.2,312.9 449.6,312.9 
			449.6,332.3 430.2,332.3 		"/>
	</defs>
	<clipPath id="SVGID_00000150792459843829424510000005052089351285131443_">
		<use xlink:href="#SVGID_00000074443458946777275030000018173205796241797264_"  style="overflow:visible;"/>
	</clipPath>
	<g style="clip-path:url(#SVGID_00000150792459843829424510000005052089351285131443_);">
		<circle class="st14" cx="439.9" cy="322.6" r="9.7"/>
	</g>
</g>
<g>
	<defs>
		<polygon id="SVGID_00000038386289212850389920000012485945297694511236_" points="357.8,312.9 357.8,312.9 338.4,312.9 
			338.4,332.3 357.8,332.3 		"/>
	</defs>
	<clipPath id="SVGID_00000122718162493976680130000015458987119716663997_">
		<use xlink:href="#SVGID_00000038386289212850389920000012485945297694511236_"  style="overflow:visible;"/>
	</clipPath>
	<g style="clip-path:url(#SVGID_00000122718162493976680130000015458987119716663997_);">
		<circle class="st14" cx="348.1" cy="322.6" r="9.7"/>
	</g>
</g>
<path class="st16" d="M380.5,356.9c0,0,10.4,2.6,13.5,2.6s13.5-3.3,13.5-3.3"/>
<path class="st16" d="M365.7,369.8c1.5,1,3.1,1.7,4.8,2.3c4.4,1.6,12,3.4,23.5,3.2c10.4-0.2,17.5-1.9,22-3.7
	c2.3-0.8,4.4-1.9,6.4-3.4"/>
<path class="st17" d="M469.9,331c2.3-16.1,3.2-54,3.2-54c0-45.5-31.5-74.9-76.5-75.8l0,0h-5.3l0,0c-45,0.9-76.5,30.3-76.5,75.8
	c0,0,0.9,38,3.2,54c1.8,12.9-12.8,35,3.1,57c9.2,12.7,53.8,20.1,70.4,24.3c0.7,0.2,1.4,0.3,2.1,0.3c0.1,0,0.3,0,0.4,0s0.3,0,0.4,0
	c0.7,0,1.4-0.1,2.1-0.3c13.9-3.5,47.5-9.3,63.4-18.5c2.5-0.8,4.7-2.4,6.1-4.7c0.3-0.3,0.6-0.7,0.9-1
	C482.8,366,468.1,343.9,469.9,331z"/>
<path class="st18" d="M315.9,311.7c-3.7-5.4-23.2-83.8,45.2-102.9s98.1,21.9,98.1,21.9s27,31.9,12.5,80.1c0,0-3.5-25.7-13.4-45.6
	s-3.7-23.7-3.5-25.4s-63.9-5.5-63.9-5.5s-57-1.1-55.9,1.1C338.7,242.4,315.9,311.7,315.9,311.7z"/>
<path class="st18" d="M458.6,236.4c-8.7,2.5,7.4,8.8,4.1-0.8s6.2-42.6-11.2-46.6s-88.3,13-105.5,25.6s0.2,11.8,1.9,12.5
	S458.6,236.4,458.6,236.4z"/>
<path class="st5" d="M381.7,341.6c-0.6,0.1-1.1,0.7-1,1.3c0,0.3,0.2,0.6,0.4,0.8c3,2.5,8.7,6.7,12.5,6.7c3.6,0,9-4.2,11.8-6.6
	c0.5-0.4,0.5-1.2,0.1-1.6c-0.2-0.2-0.4-0.3-0.7-0.4c-3.4-0.5-4.8,1.1-11.6,1.1C387.4,343,385.1,341.2,381.7,341.6z"/>
</svg>
