<svg xmlns="http://www.w3.org/2000/svg" viewBox="0 0 488 223.85"><defs><style>.cls-1{fill:#90573a;}.cls-2{fill:#6f412a;}.cls-3{fill:#9e5452;}.cls-4{fill:#7c4343;}</style></defs><g id="Calque_9" data-name="Calque 9"><path class="cls-1" d="M241.07,152.45c-5.22-3.47-7.61-.61-13.07,2.44-9.29,5.19-15.08,23-25.4,25.44-3.66.85-12.06-14.62-13-20.69-1.46-9,2.39-26.7-8-35.76-8.79-7.67-20.41-3.57-24.23-15.81-6.66-21.32,12.8-37.35,22.28-41.09C194.05,61.28,215,62,221,53.17l.91-26.88.65-19.58L240,5.92h2.08l17.43.79.66,19.58.9,26.88c6.07,8.87,27,8.11,41.43,13.81,9.47,3.74,28.94,19.77,22.28,41.09-3.82,12.24-15.44,8.14-24.24,15.81-10.39,9.06-6.53,26.71-8,35.76-1,6.07-9.38,21.54-13.05,20.69-10.32-2.42-16.11-20.25-25.39-25.44-5.47-3-7.85-5.91-13.07-2.44"/><path class="cls-2" d="M221.56,53.48S251.81,64.54,260.76,43L259.54,6.71h-37Z"/><path class="cls-1" d="M194.13,76.76c8.38,17.95-.87,28.24-3.85,37.36-4.73,14.46-2.53,44.53-4.32,59.29-.84,7-5.5,23-16.7,22.52h0c-14.37-1.3-14.91-18.78-14.76-25.5.3-13.69-4.05-70.62,3.38-86.23,0,0,6.72-16.26,19.46-17.59,8.19-.85,13.33,2.76,16.79,10.15Z"/><path class="cls-1" d="M172.89,195.94c-10.65,3.53-15.79-6.16-19.07-15.1-2.33-6.37-18.72-70.44-23.4-87.8-2.64-9.81-4.31-15,1.35-17.08,5.15-1.92,10.74,6.89,13,10.33,20.93,32.35,35.11,57.81,38.83,86.5C186,191.62,176.54,194.73,172.89,195.94Z"/><path class="cls-1" d="M126.73,46.61A82.85,82.85,0,0,1,117,33.74s-2.29,4.38-2,7c.28,2.14,5.49,11.23,5.49,11.23h0C95.22,37.84,75.07,30.75,72.13,30c-2.08-.52-7.94,2.3-7.94,2.3S88.13,46.58,94.58,51c22,15,27.24,23.06,34,36.3,1.2,2.33,15.08-.2,13-5.29-.72-1.79.47-12-1.29-14.73C133.29,56.46,127,46.91,126.73,46.61Z"/><path class="cls-1" d="M288,76.36c-8.39,18,.86,28.24,3.84,37.35,4.73,14.47,2.54,44.54,4.32,59.3.85,7,5.51,23,16.7,22.52h0c14.38-1.3,14.92-18.78,14.77-25.51-.31-13.68,4.05-70.61-3.38-86.22,0,0-6.72-16.27-19.47-17.59C296.6,65.36,291.46,69,288,76.36Z"/><path class="cls-1" d="M309.25,195.54c10.64,3.53,15.78-6.16,19.06-15.1,2.34-6.37,18.73-70.44,23.41-87.81,2.64-9.81,4.31-15-1.35-17.07-5.16-1.93-10.74,6.89-13,10.33-20.93,32.35-35.11,57.81-38.83,86.5C296.13,191.22,305.6,194.33,309.25,195.54Z"/><path class="cls-1" d="M355.41,46.21a82.33,82.33,0,0,0,9.77-12.87s2.3,4.38,2,7c-.28,2.14-5.49,11.22-5.49,11.22h0C386.91,37.43,407.06,30.35,410,29.63c2.09-.52,7.95,2.3,7.95,2.3S394,46.18,387.55,50.6c-21.95,15-27.23,23.05-34,36.3-1.19,2.33-15.07-.2-13-5.29.73-1.79-.46-12,1.29-14.73C348.85,56.05,355.14,46.5,355.41,46.21Z"/><path class="cls-3" d="M159.05,68.1c.06,0,23.48,28.66,26.91,105.31.77,17.13-2.47,68.54-2.47,68.54l119.73,4.13s-8.48-57.21-7.36-76.35C300.17,96,315.12,67.92,315.12,67.92L261.21,51.74l-9.29,27.09-17-.34L221.1,51.09l-62,17h0"/></g><g id="Calque_10" data-name="Calque 10"><rect class="cls-4" x="184.85" y="222.14" width="115.32" height="13.41"/></g></svg>