<svg id="Calque_9" data-name="Calque 9" xmlns="http://www.w3.org/2000/svg" viewBox="0 0 488 223.85"><defs><style>.cls-1{fill:#90573a;}.cls-2{fill:#6f412a;}.cls-3{fill:#92a331;}.cls-4{fill:#abc638;}</style></defs><path class="cls-1" d="M205,84.41c-4.3,21.53-18,24.69-25.91,30.89-12.62,9.84-29.26,38.16-39.71,50.2-4.93,5.67-18.47,17-27.07,9.21h0c-10.65-10.56-3-23.87,1.28-29.79,8.62-12,28.34-34.49,34.89-47.79,4.89-9.9,7.65-20.68,23.11-29.77,0,0,15.3-10.16,26.26-3,7,4.6,8.93,11.19,7.15,20.06Z"/><path class="cls-1" d="M135.21,159.53c-3.9-14.54-15.19-11.82-21.43-11-6.72.92-68.8,24.07-85.79,29.95-9.6,3.32-14.8,4.83-13.37,10.71,1.3,5.34,11.73,5,15.83,4.92,38.51-.85,67.55-3.41,93.37-16.45C140.77,169.13,136.21,163.25,135.21,159.53Z"/><path class="cls-1" d="M-11.85,178.71C-19.45,182.85-31,188-31,188s5.85,4.63,8.28,4.91c2,.23,10.47-4,10.47-4l8.08,2.61c-3.19,4.53-3.82,6.79-8,11.86-3.22,3.9-13.27,10-18.12,12-2.64,1.08-9,.86-11.22,2.57-1.58,1.22-2.91,7.09-2.91,7.09l15.09-.87s20.64-7.26,27.21-10.3c7-3.24,20.41-11.28,25.75-16.6,1.72-1.71,5.05-5.14,3.87-10.08-1-4.26-5.44-5.83-8.3-6.66C14.75,179.27-11.52,178.53-11.85,178.71Z"/><path class="cls-1" d="M283.05,89.41c4.3,21.53,18,24.69,25.91,30.89,12.62,9.84,29.26,38.16,39.71,50.2,4.93,5.67,18.47,17,27.07,9.21h0c10.65-10.56,2.95-23.87-1.28-29.79-8.62-12-28.34-34.49-34.89-47.79-4.89-9.9-7.65-20.68-23.11-29.77,0,0-15.3-10.16-26.26-3-7,4.6-8.93,11.19-7.15,20.06Z"/><path class="cls-1" d="M352.79,164.53c3.9-14.54,15.19-11.82,21.43-11,6.72.92,68.8,24.07,85.79,29.95,9.6,3.32,14.8,4.83,13.37,10.71-1.3,5.34-11.73,5-15.83,4.92-38.51-.85-67.55-3.41-93.37-16.45C347.23,174.13,351.79,168.25,352.79,164.53Z"/><path class="cls-1" d="M499.85,183.71C507.44,187.85,519,193,519,193s-5.85,4.63-8.28,4.91c-2,.23-10.47-4-10.47-4l-8.08,2.61c3.19,4.53,3.82,6.79,8,11.86,3.22,3.9,13.27,10,18.12,12,2.64,1.08,9,.86,11.22,2.57,1.58,1.22,2.91,7.09,2.91,7.09l-15.09-.87s-20.64-7.26-27.21-10.3c-7-3.24-20.41-11.28-25.75-16.6-1.72-1.71-5.05-5.14-3.87-10.08,1-4.26,5.44-5.83,8.3-6.66C473.25,184.27,499.52,183.53,499.85,183.71Z"/><path class="cls-1" d="M244,154.35c-5.48-3.58-8-.63-13.73,2.52-9.75,5.34-15.83,23.72-26.67,26.21-3.85.88-12.68-15.07-13.71-21.32-1.53-9.32,2.52-27.51-8.39-36.85-9.24-7.91-21.45-3.69-25.46-16.3-7-22,13.45-38.49,23.4-42.34C194.61,60.39,216.58,61.17,223,52l.94-27.71.69-20.18,18.32-.81h2.18l18.32.81.69,20.18L265,52c6.38,9.13,28.35,8.35,43.52,14.23,9.95,3.85,30.39,20.37,23.4,42.34-4,12.61-16.22,8.39-25.46,16.3-10.91,9.34-6.86,27.53-8.39,36.85-1,6.25-9.86,22.2-13.71,21.32-10.84-2.49-16.92-20.87-26.67-26.21-5.74-3.15-8.25-6.1-13.73-2.52"/><path class="cls-2" d="M223.51,52.35s31.77,11.4,41.17-10.81L263.41,4.15H224.59Z"/><path class="cls-3" d="M174.39,272.08s10.65-53.36,10.46-59.94c-.14-5-7.26-87.53-7.26-87.53S315.32,116,309,120.3s-9.07,73.17-9.07,73.17L307.66,270l-62.73,17.4"/><path class="cls-4" d="M107.8,108.78C117.27,102.61,176.46,61,176.46,61l138.29.84,67.31,46.9s-66.91,34-106.73,39.08-66-1.06-77.43-1.57S107.8,108.78,107.8,108.78Z"/></svg>