<?xml version="1.0" encoding="utf-8"?>
<!-- Generator: Adobe Illustrator 26.0.1, SVG Export Plug-In . SVG Version: 6.00 Build 0)  -->
<svg version="1.1" id="Calque_9" xmlns="http://www.w3.org/2000/svg" xmlns:xlink="http://www.w3.org/1999/xlink" x="0px" y="0px"
	 viewBox="0 0 388 323.9" style="enable-background:new 0 0 388 323.9;" xml:space="preserve">
<style type="text/css">
	.st0{clip-path:url(#SVGID_00000088829048609469189890000003421585725780284058_);}
	.st1{fill:#90573A;}
	.st2{clip-path:url(#SVGID_00000176011324186287181650000013415535300663458739_);}
	.st3{fill:#5B0052;}
	.st4{fill:#3E0045;}
	.st5{fill:#6F412A;}
</style>
<g>
	<defs>
		<rect id="SVGID_1_" x="104.6" y="51.3" width="89.4" height="188.1"/>
	</defs>
	<clipPath id="SVGID_00000093144479678826719470000011820031917916334002_">
		<use xlink:href="#SVGID_1_"  style="overflow:visible;"/>
	</clipPath>
	<g style="clip-path:url(#SVGID_00000093144479678826719470000011820031917916334002_);">
		<path class="st1" d="M207,208.9c9.3,6.1,19.3,30.2,30.1,32.7c3.9,0.9,11.6-4.6,13.7-7.9c7.7-12.1,4-46.1,14.9-55.5
			c9.2-7.9,31.4-3.4,32-36.7c0.3-20.2-23.3-29.9-29.1-32c-0.9-0.3-1.9-0.7-2.8-1.2c0,0-48.1,9.1-48.9-39.2l-0.2-15.7l-23.4,1.8
			l-18.3,0.8l-0.7,20.2l-0.9,27.7c-6.4,9.1-28.4,9.3-43.5,15.2c-9.9,3.8-30.4,19.4-23.4,41.3c4,12.6,16.2,8.4,25.5,16.3
			c10.9,9.3,6.9,27.5,8.4,36.8c1,6.2,9.9,22.2,13.7,21.3c10.8-2.5,16.9-20.9,26.7-26.2c2.9-1.6,8-2.5,13.2-2.5
			S204.3,207.1,207,208.9z"/>
	</g>
</g>
<g>
	<defs>
		<polygon id="SVGID_00000015345651938176952440000004352264021817687718_" points="194,51.3 194,239.4 284.8,241.3 284.8,53.1 		
			"/>
	</defs>
	<clipPath id="SVGID_00000101791281708620109260000016326740006970791052_">
		<use xlink:href="#SVGID_00000015345651938176952440000004352264021817687718_"  style="overflow:visible;"/>
	</clipPath>
	<g style="clip-path:url(#SVGID_00000101791281708620109260000016326740006970791052_);">
		<path class="st1" d="M181.6,206.6c-9.3,6.1-19.3,30.2-30.1,32.7c-3.9,0.9-11.6-4.6-13.7-7.9c-7.7-12.1-4-46.2-14.9-55.5
			c-9.2-7.9-31.4-3.4-32-36.7c-0.3-20.2,23.3-29.9,29.1-32c0.9-0.3,1.9-0.7,2.8-1.2c0,0,48.1,9.1,48.9-39.2l0.2-15.7l23.4,1.7
			l18.3,0.8l0.7,20.2l0.9,27.7c6.4,9.1,28.4,10.4,43.5,16.2c10,3.9,30.4,18.4,23.4,40.3c-4,12.6-16.2,8.4-25.5,16.3
			c-10.9,9.3-6.9,27.5-8.4,36.9c-1,6.3-9.9,22.2-13.7,21.3c-10.8-2.5-16.9-20.9-26.7-26.2C202,203.4,187,203,181.6,206.6z"/>
	</g>
</g>
<path class="st1" d="M243.3,140.8c1.6,21.9,14.8,26.7,21.9,33.8c11.3,11.3,25.7,42.1,34.3,55.5c4.1,6.3,15.8,19.5,25.5,13l0,0
	c12-8.9,6.3-23.2,3-29.7c-6.8-13.1-25.3-39.1-30.1-53.1c-3.6-10.4-5-21.5-19.3-32.4c0,0-13.9-12-25.7-6.2
	C245.3,125.5,242.7,131.8,243.3,140.8L243.3,140.8z"/>
<path class="st1" d="M322.5,215.3c13.4,6.9,9.9,18.8,7.7,24.7c-2.3,6.4-37.9,61.9-46.9,77.4c-5.1,8.8-7.6,13.6-13.1,11.1
	c-5-2.3-4.9-7.2-1.8-16.5c15.8-47.3,15.8-55.5,31.8-88.2C307,210,319.1,213.6,322.5,215.3z"/>
<path class="st1" d="M153.4,146.3c-4.3,21.5-18,24.7-25.9,30.9c-12.6,9.8-29.3,38.2-39.7,50.2c-4.9,5.7-18.5,17-27.1,9.2l0,0
	c-10.7-10.6-3-23.9,1.3-29.8c8.6-12,28.3-34.5,34.9-47.8c4.9-9.9,7.6-20.7,23.1-29.8c0,0,15.3-10.2,26.3-3
	C153.3,130.9,155.2,137.5,153.4,146.3L153.4,146.3z"/>
<path class="st1" d="M70.4,235.2c15-1.2,14.4-12.8,14.7-19.1c0.3-6.8-11.1-72-13.8-89.8c-1.5-10-2-15.4-8.1-15.1
	c-5.5,0.3-7.6,10.6-7.7,14.7c-1.5,44.4-1.5,55-0.9,94.8C54.9,239.7,66.5,235.6,70.4,235.2z"/>
<path class="st1" d="M85.4,100.1c0.8-1.4,2-2.4,3.4-3c2.5-1,6.2-2.3,6-1.1c-0.4,1.9-7.2,19.4-7.2,19.4s-10.7,6.5-15.2,17.1
	c-1,2.3-15.1,0.9-15.1,0.9l-1-7.4l-12.5-23.8l-1.5-29.4c-0.1-1.1,0.7-2.1,1.8-2.2l0,0c1.2-0.2,2.2,0.6,2.4,1.8l4.6,21l-3.1-33.2
	c-0.1-1.5,1-2.9,2.5-3.1h0.2c1.5-0.2,3,0.8,3.3,2.3l4.4,28l-0.7-28.5c-0.1-1.6,1-2.9,2.6-3.2l0,0c1.6-0.2,3.1,0.9,3.3,2.5l4,29.4
	l7.6-8.7c2-0.3,10.5,4.2,10.5,4.2c0.5,1,3.8,9.9,3.8,9.9l-3.3-0.3c-1.9-0.2-3.6-1.4-4.4-3.2l-0.3-0.6l-2.9-0.5L75,98l3,9.1l4.5-1.7
	L85.4,100.1z"/>
<path class="st3" d="M88.7,158.1l34.5,36.8l9.1-13.4l11.1,104.1h102l11.1-110.9l14.9,26.7l38.5-27.9l-31.2-50.4l-37.9-11.8
	c0,0-34.7,12.1-46.7,11.8c-10.7-0.3-41-12.8-41-12.8l-36.5,12.5L88.7,158.1"/>
<rect x="138.5" y="270.1" class="st4" width="110.6" height="15.4"/>
<path class="st5" d="M173.5,102.1c0,0,31.8,11.4,41.2-10.8l-1.3-37.4h-38.8L173.5,102.1z"/>
</svg>
