<?xml version="1.0" encoding="utf-8"?>
<!-- Generator: Adobe Illustrator 26.0.1, SVG Export Plug-In . SVG Version: 6.00 Build 0)  -->
<svg version="1.1" id="Calque_1" xmlns="http://www.w3.org/2000/svg" xmlns:xlink="http://www.w3.org/1999/xlink" x="0px" y="0px"
	 viewBox="0 0 388 323.9" style="enable-background:new 0 0 388 323.9;" xml:space="preserve">
<style type="text/css">
	.st0{fill:#90573A;}
	.st1{fill:#6F412A;}
	.st2{fill:#4E6566;}
	.st3{fill:#55427C;}
</style>
<g id="Calque_9">
	<path class="st0" d="M141,202.8c-5.5-3.6-8-0.6-13.7,2.5c-9.8,5.3-15.8,23.7-26.7,26.2c-3.9,0.9-12.7-15.1-13.7-21.3
		c-1.5-9.3,2.5-27.5-8.4-36.8c-9.2-7.9-21.4-3.7-25.5-16.3c-7-22,13.4-38.5,23.4-42.3c15.2-5.9,37.1-5.1,43.5-14.2l0.9-27.7
		l0.7-20.2l18.3-0.8h2.2l18.3,0.8l0.7,20.2l0.9,27.7c6.4,9.1,28.4,8.4,43.5,14.2c10,3.8,30.4,20.4,23.4,42.3
		c-4,12.6-16.2,8.4-25.5,16.3c-10.9,9.3-6.9,27.5-8.4,36.8c-1,6.2-9.9,22.2-13.7,21.3c-10.8-2.5-16.9-20.9-26.7-26.2
		C149,202.1,146.5,199.2,141,202.8"/>
	<path class="st1" d="M120.5,100.8c0,0,31.8,11.4,41.2-10.8l-1.3-37.4h-38.8L120.5,100.8z"/>
	<path class="st0" d="M329.2,158.9c0.3-2.5,8.1-17.2,9-19.2c0.9-2,19-12.5,19.7-11.6c0.7,0.9-1,6.2-1,6.2L351,139l18.2-5
		c0,0,23.1-8.7,22.8-7.4c-0.2,2.2-0.3,4.4-0.3,6.6l-19.4,9.5l-6.3,15.8c0,0-22.9,10-26.1,9.6c-0.9-0.1-5.3,1.7-6.7-1.3
		C332.3,165,329.2,158.9,329.2,158.9z"/>
	<path class="st0" d="M89.3,129.5c3.2,19.5-8.4,27-13.8,34.9C67,177.1,61,206.7,55.3,220.4c-2.7,6.5-11.5,20.7-22.2,17.2l0,0
		c-13.5-5.1-9.3-22.1-7.3-28.5c4-13.1,13.8-70.4,26.5-82.1c6.5-6,20.1-14.9,32.8-12.8C93.2,115.5,87.9,121.5,89.3,129.5z"/>
	<path class="st0" d="M180.7,133.6c2.7,19.6,16,23.3,23.5,29.3c11.8,9.6,26.2,36.1,35.7,47.5c4.5,5.4,17.1,16.4,26.2,9.9l0,0
		c11.4-8.9,2.4-23.9-1.4-29.4c-7.7-11.3-34.8-61.6-49.5-70.7c0,0-14.5-10.1-25.9-4.3C182,119.7,179.6,125.5,180.7,133.6L180.7,133.6
		z"/>
	<path class="st0" d="M252.1,216c5.9,9.5,16.1,5.4,24.3,0.7c5.9-3.4,56.1-43.6,70.8-53.9c8.3-5.8,6.4-7.8,3.4-13
		c-2.7-4.8-18.5,5.2-22.2,7.1c-36.9,19.7-44.9,17.6-69.7,34.5C243.2,202.2,250.1,212.7,252.1,216z"/>
	<rect x="82" y="263.2" class="st2" width="115.3" height="23.4"/>
	<path class="st3" d="M82,112.9c-0.3,5.8,0,64.5,0,64.5v70.1l-0.2,37.1h115.4l0.2-36.6l3.2-79.3v-55.6l-31.7-9.4
		c0,0-24.7,13.4-27,13.4s-21.4-16.3-21.4-16.3L82,112.9z"/>
	<path class="st0" d="M23.2,225.3c-2.3-11,7.9-15,17.2-17.2c6.6-1.6,72.1-10.6,89.9-13.2c10.1-1.5,15.4-2.6,16.8,3.3
		c1.3,5.3-19.3,10.8-23.1,12.3c-35.4,14.1-50.2,19.5-79,28.1C26.8,244,24,229.1,23.2,225.3z"/>
	<path class="st0" d="M117.4,198c4.8-2.5,13.9-12.6,15.1-14.3s16.9-9.7,17.5-8.7s0.8,4.4,0.8,4.4l-8.8,7.4l22-4c0,0,14-2.9,18.5-2.2
		c1.3,0.2-0.9,4.6-0.9,4.6l-20.8,8l-6.4,13.2c-2,4.2-6.2,6.9-10.8,7c-5.2,0.1-11.3,0.2-13-0.3c-0.9-0.2-7.4-1.6-8.2-4.4
		C122,206.8,117.4,198,117.4,198z"/>
</g>
<g id="Calque_10">
	<rect x="81.9" y="261.2" class="st2" width="115.3" height="23.4"/>
</g>
</svg>
