<?xml version="1.0" encoding="utf-8"?>
<!-- Generator: Adobe Illustrator 26.0.1, SVG Export Plug-In . SVG Version: 6.00 Build 0)  -->
<svg version="1.1" id="Calque_9" xmlns="http://www.w3.org/2000/svg" xmlns:xlink="http://www.w3.org/1999/xlink" x="0px" y="0px"
	 viewBox="0 0 388 323.9" style="enable-background:new 0 0 388 323.9;" xml:space="preserve">
<style type="text/css">
	.st0{fill:#90573A;}
	.st1{clip-path:url(#SVGID_00000126314359835946709550000017033097371398543277_);}
	.st2{fill:#7A754B;}
	.st3{fill:none;stroke:#6D3B25;stroke-width:2;stroke-linecap:round;stroke-miterlimit:10;}
	.st4{fill:#BDB15C;}
	.st5{fill:#6F412A;}
	.st6{fill:#AA9D5E;}
</style>
<path class="st0" d="M-5.1,129.1c12.8,5.4,8.2-12.4,9-16.7c0.5-3.3-9-16.6-9-16.6l-11.2-15.5c0,0-4.5-3.4-6.2-4.4s-13-8.6-13-8.6
	l-6.8-10.9l-4.1,7l3.6,7.6l7.6,8.8l-14.4,1.4l-4.8,9.5l8.7,24l19.3,3l9.5-2.8L-5.1,129.1z"/>
<g>
	<defs>
		<polygon id="SVGID_1_" points="186.5,49.3 190.1,239.4 279.5,239.4 275.9,49.3 		"/>
	</defs>
	<clipPath id="SVGID_00000150071066626227072050000002729153604610057917_">
		<use xlink:href="#SVGID_1_"  style="overflow:visible;"/>
	</clipPath>
	<g style="clip-path:url(#SVGID_00000150071066626227072050000002729153604610057917_);">
		<path class="st2" d="M177.6,206.6c-9.3,6.1-19.3,30.2-30.1,32.7c-3.9,0.9-11.6-4.6-13.7-7.9c-7.7-12.1-4-46.2-14.9-55.5
			c-9.2-7.9-31.4-3.4-32-36.7c-0.3-20.2,23.3-29.9,29.1-32c0.9-0.3,1.9-0.7,2.8-1.2c0,0,48.1,9.1,48.9-39.2l0.2-15.6l23.4,1.7
			l18.3,0.8l0.7,20.2l0.9,27.7c6.4,9.1,28.4,8.4,43.5,14.2c10,3.9,30.4,20.4,23.4,42.3c-4,12.6-16.2,8.4-25.5,16.3
			c-10.9,9.3-6.9,27.5-8.4,36.9c-1,6.3-9.9,22.2-13.7,21.3c-10.8-2.5-16.9-20.9-26.7-26.2C198.1,203.4,183.1,203,177.6,206.6z"/>
	</g>
</g>
<path class="st3" d="M181.7,48c2.3,0.6,4.6,1.1,7,1.4c1.6,0,7.1-1.7,7.1-1.7"/>
<path class="st3" d="M178.4,53.7c0.8,0.5,1.6,0.9,2.5,1.2c3.9,1.3,8.1,1.9,12.2,1.7c3.9,0,7.8-0.6,11.4-1.9c1.2-0.4,2.3-1,3.3-1.8"
	/>
<path class="st4" d="M149.8,138.2c-4.3,21.5-18,24.7-25.9,30.9c-12.6,9.9-29.3,38.2-39.7,50.2c-4.9,5.7-18.5,17-27.1,9.2l0,0
	c-10.7-10.6-2.9-23.9,1.3-29.8c8.6-12,28.3-34.5,34.9-47.8c4.9-9.9,7.7-20.7,23.1-29.8c0,0,15.3-10.2,26.3-3
	C149.7,122.7,151.6,129.3,149.8,138.2L149.8,138.2z"/>
<path class="st4" d="M168.6,91.1h43l0.3,11.1l60.7,18.9l35.2,70.3l8.1,28.5l-48.3,48.7l-14.6,5.1c-2.3-0.1-3.5-18.4-5.3-24.1
	c-0.5-1.7,30.3-35,27.3-39.1s-17.4-36.1-17.4-36.1s-7.1,33.5-6.5,35.8s6.1,73.7,6.1,73.7l-4.3,11.7c0,0,5,20.2,4.7,22.3
	c-0.5,2.5-127.8,0.3-127.3-3c1.9-11,5.5-25.4,5.5-25.4s-6.4-9.9-6.1-11.8c1.6-8.1,8.1-49.9,7.5-56.9s-8.2-49.8-9.7-46.4
	c-1.6,3.3-54.7,61.2-62.4,64.8S-12.4,134-12.6,137.5c-0.2,3.5,2-6.3,2-6.3l-4.9-11.1l19.6-14.5l4.8,7.4c0.5,0.8,11.8,3.8,9.4,2.5
	C16.6,114.7,71,182,71,182l36.1-59.9c0,0,62.5-16,61.2-20.7L168.6,91.1z"/>
<path class="st4" d="M169.6,83.2h41.2c1.8,0,3.2,1.4,3.2,3.2v3.4c0,1.8-1.4,3.2-3.2,3.2h-41.2c-1.8,0-3.2-1.4-3.2-3.2v-3.4
	C166.4,84.7,167.8,83.2,169.6,83.2z"/>
<rect x="169.2" y="46.7" class="st5" width="40.6" height="36.5"/>
<polygon class="st6" points="253.7,239.2 253,273.9 267.6,268.7 262.3,231.1 "/>
</svg>
