<?xml version="1.0" encoding="utf-8"?>
<!-- Generator: Adobe Illustrator 26.0.1, SVG Export Plug-In . SVG Version: 6.00 Build 0)  -->
<svg version="1.1" id="Calque_9" xmlns="http://www.w3.org/2000/svg" xmlns:xlink="http://www.w3.org/1999/xlink" x="0px" y="0px"
	 viewBox="0 0 788 1005" style="enable-background:new 0 0 788 1005;" xml:space="preserve">
<style type="text/css">
	.st0{fill:#90573A;}
	.st1{fill:#6F412A;}
	.st2{fill:#FFFFFF;}
	.st3{fill:#72615B;}
</style>
<path class="st0" d="M353.4,352.1c-4.3,21.5-18,24.7-25.9,30.9c-12.6,9.9-29.3,38.2-39.7,50.2c-4.9,5.7-18.5,17-27.1,9.2l0,0
	c-10.6-10.6-3-23.9,1.3-29.8c8.6-12,28.3-34.5,34.9-47.8c4.9-9.9,7.6-20.7,23.1-29.8c0,0,15.3-10.1,26.3-3
	C353.2,336.7,355.2,343.3,353.4,352.1L353.4,352.1z"/>
<path class="st0" d="M430.8,352.1c4.3,21.5,18,24.7,25.9,30.9c12.6,9.9,29.3,38.2,39.7,50.2c4.9,5.7,18.5,17,27.1,9.2l0,0
	c10.7-10.6,3-23.9-1.3-29.8c-8.6-12-28.3-34.5-34.9-47.8c-4.9-9.9-7.6-20.7-23.1-29.8c0,0-15.3-10.1-26.3-3
	C430.9,336.7,429,343.3,430.8,352.1L430.8,352.1z"/>
<path class="st0" d="M506.2,428.2c3.4-14.7,14.8-12.4,21-11.7c6.8,0.7,69.6,21.6,86.8,26.9c9.7,3,15,4.3,13.7,10.2
	c-1.1,5.4-11.6,6-15.7,5.5c-44.1-5.1-54.6-6.7-93.9-13.1C499.5,442.9,505.3,432,506.2,428.2z"/>
<path class="st0" d="M615.8,443.8c0,0,9-8.4,11.1-9.1s12.5-4.1,14-5s9.4-8.3,10.1-7.2c0.3,0.5,0.7,1.5,1.2,2.5
	c0.9,2,0.6,4.3-0.8,5.9l-1.7,2c-1.3,1.5-2.8,2.8-4.6,3.6l-7,3.2l16.1,3.9l20.9,0.9c1.5,0.1,2.8,1.2,3,2.7l0,0
	c0.3,1.7-0.9,3.4-2.7,3.6c-0.2,0-0.3,0-0.5,0l-22.7,0.2l25.4,6.6c1.9,0.5,3,2.4,2.5,4.3c0,0,0,0,0,0l0,0c-0.5,1.9-2.4,3-4.3,2.5
	c0,0,0,0,0,0l-27.1-7l24.4,11.1c1.7,0.8,2.5,2.8,1.7,4.6c0,0.1-0.1,0.1-0.1,0.2l0,0c-0.8,1.6-2.8,2.3-4.4,1.6l-23.3-9.7l13.2,10
	c1.5,1.1,1.8,3.3,0.6,4.8c-0.1,0.1-0.1,0.2-0.2,0.2l0,0c-1.1,1.1-2.8,1.4-4.2,0.6l-15.8-9.3l-23.5-7.7l-5.1-5.1L615.8,443.8z"/>
<path class="st0" d="M279.8,428.1c-3.4-14.7-14.8-12.4-21-11.7c-6.8,0.7-69.6,21.6-86.8,26.9c-9.7,3-15,4.3-13.7,10.2
	c1.1,5.4,11.6,6,15.6,5.5c44.1-5.1,54.6-6.7,93.9-13.1C286.5,442.8,280.7,431.9,279.8,428.1z"/>
<path class="st0" d="M169.4,443.8c0,0-9-8.4-11.1-9.1s-12.6-4.1-14-5s-9.4-8.3-10.1-7.2c-0.3,0.5-0.7,1.5-1.2,2.5
	c-0.9,2-0.6,4.3,0.8,5.9l1.7,2c1.3,1.5,2.9,2.7,4.7,3.5l7,3.2l-16.1,3.9l-20.9,0.9c-1.5,0.1-2.8,1.2-3,2.7l0,0
	c-0.3,1.7,0.9,3.4,2.7,3.6c0.2,0,0.3,0,0.5,0l22.7,0.2l-25.4,6.6c-1.9,0.5-3,2.4-2.5,4.3l0,0c0.5,1.9,2.4,3,4.3,2.5l27.1-7
	l-24.4,11.1c-1.8,0.8-2.5,2.9-1.7,4.6c0,0.1,0.1,0.1,0.1,0.2l0,0c0.8,1.6,2.8,2.3,4.4,1.6l23.3-9.7l-13.2,10
	c-1.5,1.1-1.8,3.3-0.6,4.8c0.1,0.1,0.1,0.2,0.2,0.2l0,0c1.1,1.1,2.8,1.4,4.2,0.6l15.8-9.3l23.5-7.7l5.1-5.1L169.4,443.8z"/>
<path class="st0" d="M394,418.7c-5.5-3.6-8-0.6-13.7,2.5c-9.8,5.4-15.8,23.7-26.7,26.2c-3.9,0.9-12.7-15.1-13.7-21.3
	c-1.5-9.3,2.5-27.5-8.4-36.9c-9.2-7.9-21.5-3.7-25.5-16.3c-7-22,13.5-38.5,23.4-42.4c15.2-5.9,37.1-5.1,43.5-14.2l0.9-27.7l0.7-20.2
	l18.3-0.8h2.2l18.3,0.8l0.7,20.2l0.9,27.7c6.4,9.1,28.4,8.4,43.5,14.2c10,3.9,30.4,20.4,23.4,42.4c-4,12.6-16.2,8.4-25.5,16.3
	c-10.9,9.3-6.9,27.5-8.4,36.9c-1,6.2-9.9,22.2-13.7,21.3c-10.8-2.5-16.9-20.9-26.7-26.2C402,418,399.5,415.1,394,418.7"/>
<path class="st1" d="M373.5,316.7c0,0,31.8,11.4,41.2-10.8l-1.3-37.4h-38.8L373.5,316.7z"/>
<circle class="st2" cx="375.7" cy="242.8" r="6.8"/>
<circle class="st2" cx="411.9" cy="242.8" r="6.8"/>
<path class="st3" d="M347.1,323.7c1.6,0-12,3.8-12,3.8c0.3,15.1-3.6,61.8-3.6,61.8s0.9,65.1-2,86.5c-1.6,11.9-5.4,46.7-5.4,46.7
	c-2.8,13.2,5.6,26.2,18.8,29c1.7,0.4,3.4,0.5,5.1,0.5h95c11.6,0,20.9-9.4,20.9-20.9c0-2.1-0.3-4.1-0.9-6.1c0,0-5.4-36-8.1-48.3
	c-2.7-12.5,0.5-83.5,0.5-83.5l-3.9-66.1l-14-3.5c-11.8,3.4-37.3,13.9-40.4,13.9C393.1,337.5,347.1,323.7,347.1,323.7"/>
</svg>
