<?xml version="1.0" encoding="utf-8"?>
<!-- Generator: Adobe Illustrator 26.0.1, SVG Export Plug-In . SVG Version: 6.00 Build 0)  -->
<svg version="1.1" id="Calque_9" xmlns="http://www.w3.org/2000/svg" xmlns:xlink="http://www.w3.org/1999/xlink" x="0px" y="0px"
	 viewBox="0 0 388 323.9" style="enable-background:new 0 0 388 323.9;" xml:space="preserve">
<style type="text/css">
	.st0{fill:#90573A;}
	.st1{fill:#6F412A;}
	.st2{fill:#534741;}
</style>
<path class="st0" d="M282,158.9c-4,12.6-16.2,8.4-25.5,16.3c-10.9,9.3-6.9,27.5-8.4,36.9c-1,6.2-9.9,22.2-13.7,21.3
	c-10.8-2.5-16.9-20.9-26.7-26.2c-5.7-3.1-8.2-6.1-13.7-2.5c-5.5-3.6-8-0.6-13.7,2.5c-9.8,5.4-15.8,23.7-26.7,26.2
	c-3.9,0.9-12.7-15.1-13.7-21.3c-1.5-9.3,2.5-27.5-8.4-36.9c-9.2-7.9-21.4-3.7-25.4-16.3c-7-22,13.4-38.5,23.4-42.3
	c15.2-5.9,37.1-5.1,43.5-14.2v-0.1l0.9-27.6l0.7-20.2l11.3-0.4l7-0.3h2.2l18.3,0.8l0.7,20.2l0.6,16.5V92l0.3,10.4
	c6.4,9.1,28.4,8.4,43.5,14.2C268.5,120.4,289,136.9,282,158.9z"/>
<path class="st1" d="M214.7,91.8c-6.8,16-29.5,13.2-41.7,10.4l0.9-27.6l0.7-20.2l11.3-0.5l27.5,0.5l1.2,36.7L214.7,91.8z"/>
<path class="st0" d="M149.8,138.8c-4.3,21.5-18,24.7-25.9,30.9c-12.6,9.9-29.3,38.2-39.7,50.2c-4.9,5.7-18.5,17-27.1,9.2l0,0
	c-10.7-10.6-2.9-23.9,1.3-29.8c8.6-12,28.3-34.5,34.9-47.8c4.9-9.9,7.6-20.7,23.1-29.8c0,0,15.3-10.2,26.3-3
	C149.7,123.3,151.6,129.9,149.8,138.8L149.8,138.8z"/>
<path class="st0" d="M80.1,213.9c-3.9-14.5-15.2-11.8-21.4-11c-6.7,0.9-68.8,24.1-85.8,30c-9.6,3.3-14.8,4.8-13.4,10.7
	c1.3,5.4,11.7,5,15.8,4.9c38.5-0.8,67.6-3.4,93.4-16.4C85.6,223.5,81.1,217.6,80.1,213.9z"/>
<path class="st0" d="M-67,233.1c-7.6,4.1-19.1,9.3-19.1,9.3s5.8,4.6,8.3,4.9c2,0.2,10.5-4,10.5-4l8.1,2.6c-3.2,4.5-3.8,6.8-8,11.9
	c-3.2,3.9-13.3,10-18.1,12c-2.7,1.1-9,0.9-11.2,2.6c-1.6,1.2-2.9,7.1-2.9,7.1l15.1-0.9c0,0,20.6-7.2,27.2-10.3
	c7-3.2,20.4-11.2,25.8-16.6c1.7-1.7,5-5.1,3.9-10.1c-1-4.3-5.4-5.8-8.3-6.6C-40.4,233.6-66.7,232.9-67,233.1z"/>
<path class="st0" d="M236.1,136.1c0.7,22,13.6,27.3,20.5,34.7c10.8,11.8,22.6,42.5,30.9,56.1c3.9,6.4,15.4,19.8,25.2,13.5l0,0
	c12.2-8.7,6.8-23.1,3.6-29.6c-6.5-13.3-22.3-38.7-26.5-52.9c-3.2-10.6-4.1-21.7-17.9-33.2c0,0-13.4-12.5-25.4-7.3
	C238.7,120.8,235.8,127,236.1,136.1L236.1,136.1z"/>
<path class="st0" d="M292.5,221.6c6.2-13.7,16.9-9.2,22.9-7.3c6.5,2,63.9,35.1,79.7,43.7c8.9,4.9,13.8,7.2,11.4,12.8
	c-2.2,5-12.4,3-16.4,2.2c-37.9-7.2-66.1-14.5-89.4-31.6C285.4,230.2,290.9,225.1,292.5,221.6z"/>
<path class="st0" d="M434.4,264.8c6.8,5.3,17.4,12.3,17.4,12.3s-6.5,3.6-9,3.5c-2-0.1-9.7-5.6-9.7-5.6l-8.4,1.2c2.4,5,2.6,7.3,6,13
	c2.5,4.4,11.4,12.1,15.9,14.9c2.4,1.5,8.7,2.3,10.6,4.4c1.4,1.5,1.7,7.5,1.7,7.5l-14.7-3.4c0,0-19.1-10.5-25.1-14.6
	c-6.4-4.4-18.3-14.5-22.7-20.6c-1.4-2-4.1-5.9-2.2-10.6c1.7-4,6.3-4.9,9.3-5.2C408,261,434.1,264.5,434.4,264.8z"/>
<path class="st2" d="M244.7,225.3l14.2-55l17-44.3l-21.6-12.1l-63,9.7l-55.8-10.7l-25.3,8.4l25.7,90.2l-9.4,50.2l5.2,12l0.1,0
	l-1.9,16.3c0,0.3,0,0.5,0,0.7c0,3.6,2.9,6.4,6.4,6.4l114.4,2.4c0.5,0,1.1-0.1,1.6-0.2c3.3-0.9,5.3-4.4,4.4-7.7l-4.2-15.5l0,0
	l12.2-16.9L244.7,225.3z"/>
</svg>
