<svg id="Calque_9" data-name="Calque 9" xmlns="http://www.w3.org/2000/svg" xmlns:xlink="http://www.w3.org/1999/xlink" viewBox="0 0 788 1005"><defs><style>.cls-1,.cls-5{fill:none;}.cls-2{fill:#90573a;}.cls-3{clip-path:url(#clip-path);}.cls-4{fill:#7a754b;}.cls-5{stroke:#6d3b25;stroke-linecap:round;stroke-miterlimit:10;stroke-width:2px;}.cls-6{fill:#bdb15c;}.cls-7{fill:#6f412a;}.cls-8{fill:#aa9d5e;}</style><clipPath id="clip-path"><polygon class="cls-1" points="386.53 263.94 390.09 453.99 479.48 453.99 475.92 263.94 386.53 263.94"/></clipPath></defs><path class="cls-2" d="M194.9,343.67c12.76,5.44,8.25-12.39,8.95-16.65.55-3.32-8.95-16.54-8.95-16.54L183.74,295s-4.53-3.39-6.21-4.37-13-8.64-13-8.64l-6.83-10.89-4.15,7,3.63,7.57,7.56,8.74-14.38,1.37-4.85,9.49,8.72,24,19.26,3.06,9.46-2.76Z"/><g class="cls-3"><path class="cls-4" d="M377.64,421.18c-9.32,6.07-19.31,30.23-30.15,32.72-3.85.88-11.57-4.55-13.7-7.88-7.72-12.11-4-46.16-14.9-55.5-9.24-7.9-31.44-3.38-32-36.67-.32-20.24,23.29-29.89,29.07-31.94a26.63,26.63,0,0,0,2.75-1.16s48.07,9.11,48.86-39.23l.2-15.65,23.37,1.79,18.32.8.69,20.19.94,27.7c6.38,9.14,28.35,8.35,43.52,14.23,10,3.86,30.39,20.37,23.4,42.35-4,12.61-16.22,8.39-25.46,16.29-10.91,9.34-6.86,27.53-8.39,36.86-1,6.25-9.86,22.2-13.71,21.31-10.84-2.49-16.92-20.86-26.67-26.21C398.08,418,383.12,417.61,377.64,421.18Z"/></g><path class="cls-5" d="M381.66,262.59a50.15,50.15,0,0,0,7,1.35c1.65,0,7.05-1.73,7.05-1.73"/><path class="cls-5" d="M378.42,268.3a10.73,10.73,0,0,0,2.51,1.2,33.9,33.9,0,0,0,12.23,1.68,33.07,33.07,0,0,0,11.43-1.9,11.54,11.54,0,0,0,3.31-1.78"/><path class="cls-6" d="M349.83,352.81c-4.31,21.53-18,24.68-25.91,30.88-12.62,9.85-29.26,38.17-39.72,50.21-4.92,5.67-18.46,17-27.07,9.21h0c-10.65-10.56-2.95-23.87,1.29-29.79,8.62-12,28.33-34.49,34.89-47.79,4.88-9.9,7.64-20.68,23.11-29.77,0,0,15.3-10.16,26.26-3,7,4.6,8.92,11.19,7.15,20.06Z"/><path class="cls-6" d="M368.6,305.72h43l.29,11.14,60.66,18.89,35.19,70.36,8.17,28.48-48.26,48.75L453,488.46c-2.28-.09-3.51-18.39-5.29-24.1-.55-1.73,30.33-35,27.3-39.1s-17.35-36.07-17.35-36.07-7.11,33.47-6.49,35.83,6.11,73.73,6.11,73.73L453,510.44s5,20.21,4.66,22.31c-.45,2.5-127.83.31-127.28-3,1.87-11,5.53-25.43,5.53-25.43s-6.43-9.94-6.06-11.79c1.62-8.09,8.15-49.89,7.47-56.92s-8.16-49.75-9.73-46.43S272.85,450.45,265.17,454s-77.58-105.4-77.74-101.84,2-6.27,2-6.27l-4.93-11.1,19.57-14.46,4.8,7.37c.46.82,11.77,3.76,9.38,2.51-1.66-.86,52.75,66.4,52.75,66.4l36.13-59.91s62.48-16,61.16-20.72Z"/><rect class="cls-6" x="366.39" y="297.84" width="47.65" height="9.9" rx="3.23"/><rect class="cls-7" x="369.16" y="261.34" width="40.61" height="36.5"/><polygon class="cls-8" points="453.74 453.86 453 488.46 467.61 483.34 462.26 445.75 453.74 453.86"/></svg>