<?xml version="1.0" encoding="utf-8"?>
<!-- Generator: Adobe Illustrator 26.0.1, SVG Export Plug-In . SVG Version: 6.00 Build 0)  -->
<svg version="1.1" id="Calque_1" xmlns="http://www.w3.org/2000/svg" xmlns:xlink="http://www.w3.org/1999/xlink" x="0px" y="0px"
	 viewBox="0 0 388 323.9" style="enable-background:new 0 0 388 323.9;" xml:space="preserve">
<style type="text/css">
	.st0{fill:#90573A;}
	.st1{fill:#6F412A;}
	.st2{fill:#9BAA5E;}
	.st3{fill:#3A1D20;}
	.st4{fill:#4E6566;}
</style>
<g id="Calque_9">
	<path class="st0" d="M194,201.6c-5.5-3.6-8-0.6-13.7,2.5c-9.8,5.3-15.8,23.7-26.7,26.2c-3.9,0.9-12.7-15.1-13.7-21.3
		c-1.5-9.3,2.5-27.5-8.4-36.9c-9.2-7.9-21.4-3.7-25.5-16.3c-7-22,13.4-38.5,23.4-42.3c15.2-5.9,37.1-5.1,43.5-14.2l0.9-27.7
		l0.7-20.2l18.3-0.8h2.2l18.3,0.8l0.7,20.2l0.9,27.7c6.4,9.1,28.4,8.3,43.5,14.2c10,3.9,30.5,20.4,23.5,42.3
		c-4,12.6-16.2,8.4-25.5,16.3c-10.9,9.3-6.9,27.5-8.4,36.8c-1,6.2-9.9,22.2-13.7,21.3c-10.8-2.5-16.9-20.9-26.7-26.2
		C202,201,199.5,198.1,194,201.6"/>
	<path class="st1" d="M173.5,99.6c0,0,31.8,11.4,41.2-10.8l-1.3-37.4h-38.8L173.5,99.6z"/>
	<path class="st0" d="M150.4,129.8c0.2,19.8-12.5,25.4-19,32.4c-10.3,11.2-20.7,39.5-28.5,52.2c-3.6,6-14.5,18.7-24.5,13.6l0,0
		c-12.6-7.1-5.8-23.3-2.9-29.3c6-12.3,25.5-66,38.8-77.1c0,0,12.9-12,25-8C147.1,116.2,150.3,121.6,150.4,129.8L150.4,129.8z"/>
	<path class="st0" d="M74.7,210.9c5.2-10.4,15.6-6.7,24.2-2.1c6.1,3.2,62.7,41,78.2,51.1c8.8,5.7,13.6,8.5,11,14.2
		c-2.3,5.2-12.5,2.4-16.5,1.4c-37.7-9.9-65.6-19.4-88.4-38.9C68.3,223.8,73,214.5,74.7,210.9z"/>
	<path class="st0" d="M238,126.4c-8.4,18,0.9,28.2,3.8,37.3c4.7,14.5,2.5,44.5,4.3,59.3c0.9,7,5.5,23,16.7,22.5l0,0
		c14.4-1.3,14.9-18.8,14.8-25.5c-0.3-13.7,4-70.6-3.4-86.2c0,0-6.7-16.3-19.5-17.6C246.6,115.4,241.5,119,238,126.4z"/>
	<path class="st0" d="M259.2,245.5c10.6,3.5,15.8-6.2,19.1-15.1c2.3-6.4,18.7-70.4,23.4-87.8c2.6-9.8,4.3-15-1.4-17.1
		c-5.2-1.9-10.7,6.9-13,10.3c-20.9,32.4-35.1,57.8-38.8,86.5C246.1,241.2,255.6,244.3,259.2,245.5z"/>
	<path class="st0" d="M305.4,96.2c3.7-4,6.9-8.3,9.8-12.9c0,0,2.3,4.4,2,7c-0.3,2.1-5.5,11.2-5.5,11.2l0,0
		c25.2-14.1,45.4-21.2,48.3-21.9c2.1-0.5,8,2.3,8,2.3s-24,14.3-30.4,18.7c-22,15-27.2,23-34,36.3c-1.2,2.3-15.1-0.2-13-5.3
		c0.7-1.8-0.5-12,1.3-14.7C298.9,106,305.1,96.5,305.4,96.2z"/>
	<path class="st2" d="M150.7,107c7.9,4.3,44.2,41.2,44.2,41.2l43.3-41.2l18.5,3.7c0,0-7.9,101.9-8,111.7s1.6,63.2,1.6,63.2H134.9
		l-3.4-113.3l-2.2-61.9L150.7,107z"/>
	<rect x="134.9" y="262.1" class="st3" width="115.3" height="23.4"/>
</g>
<g id="Calque_10">
	<rect x="134.9" y="262.1" class="st4" width="115.3" height="23.4"/>
</g>
</svg>
