<svg id="Calque_9" data-name="Calque 9" xmlns="http://www.w3.org/2000/svg" viewBox="0 0 788 1005"><defs><style>.cls-1{fill:#90573a;}.cls-2{fill:#6f412a;}.cls-3{fill:none;}.cls-4{fill:#534741;}</style></defs><path class="cls-1" d="M482,373.52c-4,12.61-16.22,8.39-25.46,16.29-10.91,9.34-6.86,27.53-8.4,36.86-1,6.25-9.85,22.2-13.7,21.32-10.84-2.5-16.92-20.87-26.68-26.22-5.74-3.14-8.24-6.09-13.72-2.51-5.48-3.58-8-.63-13.73,2.51-9.75,5.35-15.84,23.72-26.68,26.22-3.85.88-12.67-15.07-13.7-21.32-1.53-9.33,2.52-27.52-8.4-36.86-9.24-7.9-21.44-3.68-25.45-16.29-7-22,13.45-38.49,23.4-42.34,15.17-5.88,37.14-5.1,43.52-14.24v-.11l.94-27.59.69-20.18,11.32-.5,7-.31h2.18l18.32.81.68,20.18.57,16.5,0,.71.36,10.49c6.38,9.14,28.35,8.36,43.52,14.24C468.51,335,489,351.54,482,373.52Z"/><path class="cls-2" d="M414.68,306.45c-6.77,16-29.52,13.19-41.72,10.38l.94-27.59.69-20.18,11.32-.5,27.5.5,1.25,36.68Z"/><path class="cls-1" d="M349.83,353.38c-4.31,21.53-18,24.68-25.91,30.88-12.62,9.85-29.26,38.17-39.72,50.2-4.92,5.67-18.46,17-27.07,9.22h0c-10.65-10.56-2.95-23.88,1.29-29.79,8.62-12,28.33-34.49,34.89-47.79,4.88-9.91,7.64-20.68,23.11-29.78,0,0,15.3-10.15,26.26-3,7,4.59,8.92,11.18,7.15,20.06Z"/><path class="cls-1" d="M280.09,428.5c-3.91-14.55-15.19-11.82-21.43-11-6.73.91-68.8,24.07-85.8,30-9.6,3.32-14.8,4.83-13.37,10.7,1.3,5.35,11.73,5,15.83,4.93,38.52-.85,67.55-3.41,93.38-16.45C285.65,438.09,281.09,432.21,280.09,428.5Z"/><path class="cls-1" d="M133,447.68c-7.6,4.13-19.14,9.25-19.14,9.25s5.85,4.62,8.28,4.9c2,.23,10.47-4,10.47-4l8.08,2.62c-3.2,4.53-3.83,6.79-8,11.86-3.23,3.9-13.27,10-18.12,12-2.65,1.09-9,.86-11.23,2.58-1.57,1.22-2.9,7.09-2.9,7.09l15.09-.87s20.63-7.26,27.21-10.3c7-3.25,20.41-11.29,25.75-16.6,1.71-1.71,5.05-5.14,3.86-10.09-1-4.25-5.43-5.83-8.3-6.65C159.62,448.24,133.35,447.5,133,447.68Z"/><path class="cls-1" d="M436.06,350.66c.7,21.95,13.65,27.31,20.47,34.73,10.82,11.79,22.57,42.47,30.9,56.06,3.92,6.4,15.41,19.8,25.18,13.54h0c12.25-8.65,6.84-23.06,3.64-29.59-6.51-13.29-22.27-38.68-26.54-52.88-3.18-10.58-4.13-21.66-17.89-33.18,0,0-13.42-12.53-25.4-7.29-7.71,3.38-10.65,9.56-10.36,18.61Z"/><path class="cls-1" d="M492.47,436.24c6.25-13.7,16.93-9.16,22.94-7.29,6.49,2,63.9,35.07,79.7,43.67,8.92,4.85,13.8,7.2,11.42,12.76-2.16,5.06-12.4,3-16.42,2.25C552.25,480.45,524,473.14,500.72,456,485.41,444.79,490.87,439.74,492.47,436.24Z"/><path class="cls-1" d="M634.36,479.38c6.81,5.34,17.36,12.29,17.36,12.29s-6.53,3.59-9,3.47c-2-.1-9.67-5.64-9.67-5.64l-8.4,1.25c2.4,5,2.65,7.33,6,13,2.54,4.37,11.43,12.07,15.89,14.84,2.42,1.51,8.74,2.33,10.65,4.39,1.35,1.46,1.69,7.47,1.69,7.47l-14.74-3.34S625,516.57,619,512.49c-6.39-4.36-18.28-14.5-22.66-20.62-1.41-2-4.14-5.9-2.16-10.58,1.71-4,6.33-4.86,9.29-5.2C608,475.56,634.07,479.15,634.36,479.38Z"/><rect class="cls-3" x="716.51" y="506.89" width="112.53" height="211.16"/><path class="cls-4" d="M329.93,504.64l1.89-16.28,120.66,2.44,4.19,15.53a6.25,6.25,0,0,1-6,7.88l-114.36-2.44A6.39,6.39,0,0,1,329.93,504.64Z"/><polygon class="cls-4" points="310.19 335.91 335.89 426.08 326.54 476.29 331.73 488.36 452.39 490.8 464.68 473.84 444.68 439.95 458.87 384.91 475.86 340.63 454.31 328.47 391.29 338.22 335.51 327.56 310.19 335.91"/></svg>