<svg id="Calque_9" data-name="Calque 9" xmlns="http://www.w3.org/2000/svg" viewBox="0 0 488 223.85"><defs><style>.cls-1{fill:#90573a;}.cls-2{fill:#6f412a;}.cls-3{fill:#534741;}</style></defs><path class="cls-1" d="M332,108.91c-4,12.61-16.22,8.39-25.46,16.29-10.91,9.34-6.86,27.53-8.4,36.86-1,6.25-9.85,22.2-13.7,21.32-10.84-2.5-16.92-20.87-26.68-26.22-5.74-3.14-8.24-6.09-13.72-2.51-5.48-3.58-8-.63-13.73,2.51-9.75,5.35-15.84,23.72-26.68,26.22-3.85.88-12.67-15.07-13.7-21.32-1.53-9.33,2.52-27.52-8.4-36.86-9.24-7.9-21.44-3.68-25.45-16.29-7-22,13.45-38.49,23.4-42.34,15.17-5.88,37.14-5.1,43.52-14.24v-.11l.94-27.59.69-20.18L235.91,4l7-.31h2.18l18.32.81.68,20.18.57,16.5,0,.71L265,52.33c6.38,9.14,28.35,8.36,43.52,14.24C318.51,70.42,339,86.93,332,108.91Z"/><path class="cls-2" d="M264.68,41.84C257.91,57.83,235.16,55,223,52.22l.94-27.59.69-20.18L235.91,4l27.5.5,1.25,36.68Z"/><path class="cls-1" d="M199.83,88.76c-4.31,21.54-18,24.69-25.91,30.89-12.62,9.85-29.26,38.17-39.72,50.2-4.92,5.67-18.46,17-27.07,9.21h0c-10.65-10.55-2.95-23.87,1.29-29.79,8.62-12,28.33-34.48,34.89-47.78,4.88-9.91,7.64-20.68,23.11-29.78,0,0,15.3-10.15,26.26-3,7,4.59,8.92,11.18,7.15,20.05Z"/><path class="cls-1" d="M130.09,163.88c-3.91-14.54-15.19-11.82-21.43-11-6.73.91-68.8,24.07-85.8,30-9.6,3.32-14.8,4.83-13.37,10.7,1.3,5.35,11.73,5,15.83,4.92,38.52-.84,67.55-3.41,93.38-16.44C135.65,173.48,131.09,167.6,130.09,163.88Z"/><path class="cls-1" d="M-17,183.06c-7.6,4.14-19.14,9.26-19.14,9.26s5.85,4.62,8.28,4.9c2,.23,10.47-4,10.47-4l8.08,2.62c-3.2,4.53-3.83,6.79-8,11.86-3.23,3.89-13.27,10-18.12,12-2.65,1.09-9,.86-11.23,2.58-1.57,1.21-2.9,7.08-2.9,7.08l15.09-.87s20.63-7.25,27.21-10.29C-.23,215,13.16,207,18.5,201.64c1.71-1.7,5.05-5.13,3.86-10.08-1-4.26-5.43-5.83-8.3-6.65C9.62,183.63-16.65,182.89-17,183.06Z"/><path class="cls-1" d="M286.06,86.05c.7,22,13.65,27.3,20.47,34.73,10.82,11.79,22.57,42.47,30.9,56.06,3.92,6.4,15.41,19.8,25.18,13.54h0c12.25-8.66,6.84-23.06,3.64-29.59-6.51-13.3-22.27-38.69-26.54-52.88-3.18-10.58-4.13-21.66-17.89-33.18,0,0-13.42-12.54-25.4-7.29-7.71,3.37-10.65,9.56-10.36,18.61Z"/><path class="cls-1" d="M342.47,171.63c6.25-13.7,16.93-9.16,22.94-7.3,6.49,2,63.9,35.08,79.7,43.68,8.92,4.85,13.8,7.2,11.42,12.76-2.16,5-12.4,3-16.42,2.24-37.86-7.17-66.07-14.49-89.39-31.6C335.41,180.18,340.87,175.13,342.47,171.63Z"/><path class="cls-1" d="M484.36,214.77c6.81,5.34,17.36,12.29,17.36,12.29s-6.53,3.59-9,3.47c-2-.1-9.67-5.65-9.67-5.65l-8.4,1.25c2.4,5,2.65,7.33,6,13,2.54,4.38,11.43,12.08,15.89,14.85,2.42,1.51,8.74,2.33,10.65,4.39,1.35,1.46,1.69,7.47,1.69,7.47l-14.74-3.35S475,252,469,247.87c-6.39-4.35-18.28-14.49-22.66-20.61-1.41-2-4.14-5.9-2.16-10.59,1.71-4,6.33-4.85,9.29-5.19C458,211,484.07,214.54,484.36,214.77Z"/><path class="cls-3" d="M179.93,240l1.89-16.29,120.66,2.45,4.19,15.53a6.25,6.25,0,0,1-6,7.88l-114.36-2.45A6.39,6.39,0,0,1,179.93,240Z"/><polygon class="cls-3" points="160.19 71.3 185.89 161.46 176.54 211.68 181.73 223.74 302.39 226.19 314.68 209.23 294.68 175.33 308.87 120.3 325.86 76.02 304.31 63.86 241.29 73.61 185.51 62.94 160.19 71.3"/></svg>