<svg xmlns="http://www.w3.org/2000/svg" xmlns:xlink="http://www.w3.org/1999/xlink" viewBox="0 0 9381.58 3314.67"><defs><style>.cls-1,.cls-6,.cls-9{fill:none;}.cls-2{fill:#3c3136;}.cls-3,.cls-8{fill:#fff;}.cls-12,.cls-4{fill:#080808;}.cls-5{clip-path:url(#clip-path);}.cls-12,.cls-6,.cls-8{stroke:#000;}.cls-15,.cls-6,.cls-9{stroke-linecap:round;}.cls-12,.cls-15,.cls-6,.cls-8,.cls-9{stroke-miterlimit:10;}.cls-6,.cls-9{stroke-width:2px;}.cls-7{clip-path:url(#clip-path-2);}.cls-15,.cls-9{stroke:#532b19;}.cls-10{fill:#844f3d;}.cls-11{fill:#4da0ff;}.cls-13{clip-path:url(#clip-path-3);}.cls-14{clip-path:url(#clip-path-4);}.cls-15,.cls-40{fill:#532b19;}.cls-16{clip-path:url(#clip-path-5);}.cls-17{clip-path:url(#clip-path-6);}.cls-18{fill:#66183f;}.cls-19{fill:#bfbfbf;}.cls-20{fill:#241e1e;}.cls-21{fill:#020202;}.cls-22{clip-path:url(#clip-path-7);}.cls-23{clip-path:url(#clip-path-8);}.cls-24{fill:#8c5c4b;}.cls-25{fill:#d68f72;}.cls-26{fill:#bf673c;}.cls-27{fill:#77c2f8;}.cls-28{fill:#f79700;}.cls-29{fill:#745c62;}.cls-30{clip-path:url(#clip-path-9);}.cls-31{fill:#bb795c;}.cls-32{clip-path:url(#clip-path-10);}.cls-33{fill:#534741;}.cls-34{fill:#78d79b;}.cls-35{fill:#6d3b25;}.cls-36{fill:#bdb15c;}.cls-37{clip-path:url(#clip-path-11);}.cls-38{clip-path:url(#clip-path-12);}.cls-39{fill:#72615b;}.cls-41{clip-path:url(#clip-path-13);}.cls-42{clip-path:url(#clip-path-14);}.cls-43{fill:#3fa9f5;}.cls-44{clip-path:url(#clip-path-15);}.cls-45{clip-path:url(#clip-path-16);}.cls-46{fill:#aa9d5e;}.cls-47{fill:#9e6754;}.cls-48{clip-path:url(#clip-path-17);}.cls-49{clip-path:url(#clip-path-18);}.cls-50{fill:#decf90;}.cls-51{fill:#b5aa79;}.cls-52{clip-path:url(#clip-path-19);}.cls-53{clip-path:url(#clip-path-20);}.cls-54{fill:#4e6566;}.cls-55{clip-path:url(#clip-path-21);}.cls-56{clip-path:url(#clip-path-22);}.cls-57{fill:#92a331;}.cls-58{fill:#abc638;}.cls-59{fill:#6999aa;}.cls-60{clip-path:url(#clip-path-23);}.cls-61{clip-path:url(#clip-path-24);}.cls-62{fill:#4694b5;}.cls-63{clip-path:url(#clip-path-25);}.cls-64{clip-path:url(#clip-path-26);}.cls-65{fill:#9baa5e;}.cls-66{fill:#3a1d20;}.cls-67{clip-path:url(#clip-path-27);}.cls-68{clip-path:url(#clip-path-28);}.cls-69{fill:#55427c;}.cls-70{fill:#bc7a68;}.cls-71{fill:#bdb186;}.cls-72{fill:#7c8e7b;}.cls-73{clip-path:url(#clip-path-29);}.cls-74{clip-path:url(#clip-path-30);}.cls-75{fill:#423632;}</style><clipPath id="clip-path" transform="translate(310.33 2747.45)"><rect class="cls-1" x="6015.04" y="-2641.93" width="21.58" height="7.06"/></clipPath><clipPath id="clip-path-2" transform="translate(310.33 2747.45)"><rect class="cls-1" x="5975.82" y="-2641.93" width="21.58" height="7.06"/></clipPath><clipPath id="clip-path-3" transform="translate(310.33 2747.45)"><rect class="cls-1" x="6138.41" y="-2644.29" width="22.15" height="6.68"/></clipPath><clipPath id="clip-path-4" transform="translate(310.33 2747.45)"><rect class="cls-1" x="6099.12" y="-2644.29" width="22.15" height="6.68"/></clipPath><clipPath id="clip-path-5" transform="translate(310.33 2747.45)"><rect class="cls-1" x="6101.44" y="-2465.62" width="23.15" height="6.96"/></clipPath><clipPath id="clip-path-6" transform="translate(310.33 2747.45)"><rect class="cls-1" x="6141.47" y="-2465.62" width="23.15" height="6.96"/></clipPath><clipPath id="clip-path-7" transform="translate(310.33 2747.45)"><rect class="cls-1" x="6112.03" y="-2551.48" width="22.15" height="6.06"/></clipPath><clipPath id="clip-path-8" transform="translate(310.33 2747.45)"><rect class="cls-1" x="6151" y="-2551.48" width="22.15" height="6.06"/></clipPath><clipPath id="clip-path-9" transform="translate(310.33 2747.45)"><path class="cls-1" d="M3124.81,309.74Z"/></clipPath><clipPath id="clip-path-10" transform="translate(310.33 2747.45)"><path class="cls-1" d="M2996.61,309.74Z"/></clipPath><clipPath id="clip-path-11" transform="translate(310.33 2747.45)"><path class="cls-1" d="M2236.81,309.74Z"/></clipPath><clipPath id="clip-path-12" transform="translate(310.33 2747.45)"><path class="cls-1" d="M2108.61,309.74Z"/></clipPath><clipPath id="clip-path-13" transform="translate(310.33 2747.45)"><path class="cls-1" d="M1348.81,309.74Z"/></clipPath><clipPath id="clip-path-14" transform="translate(310.33 2747.45)"><path class="cls-1" d="M1220.61,309.74Z"/></clipPath><clipPath id="clip-path-15" transform="translate(310.33 2747.45)"><path class="cls-1" d="M457.66,309.74Z"/></clipPath><clipPath id="clip-path-16" transform="translate(310.33 2747.45)"><path class="cls-1" d="M329.46,309.74Z"/></clipPath><clipPath id="clip-path-17" transform="translate(310.33 2747.45)"><path class="cls-1" d="M4012.81,309.74Z"/></clipPath><clipPath id="clip-path-18" transform="translate(310.33 2747.45)"><path class="cls-1" d="M3884.61,309.74Z"/></clipPath><clipPath id="clip-path-19" transform="translate(310.33 2747.45)"><path class="cls-1" d="M4900.81,309.74Z"/></clipPath><clipPath id="clip-path-20" transform="translate(310.33 2747.45)"><path class="cls-1" d="M4772.61,309.74Z"/></clipPath><clipPath id="clip-path-21" transform="translate(310.33 2747.45)"><path class="cls-1" d="M5788.81,309.74Z"/></clipPath><clipPath id="clip-path-22" transform="translate(310.33 2747.45)"><path class="cls-1" d="M5660.61,309.74Z"/></clipPath><clipPath id="clip-path-23" transform="translate(310.33 2747.45)"><path class="cls-1" d="M6596.81,309.74Z"/></clipPath><clipPath id="clip-path-24" transform="translate(310.33 2747.45)"><path class="cls-1" d="M6468.61,309.74Z"/></clipPath><clipPath id="clip-path-25" transform="translate(310.33 2747.45)"><path class="cls-1" d="M7404.81,309.74Z"/></clipPath><clipPath id="clip-path-26" transform="translate(310.33 2747.45)"><path class="cls-1" d="M7276.61,309.74Z"/></clipPath><clipPath id="clip-path-27" transform="translate(310.33 2747.45)"><path class="cls-1" d="M8212.81,309.74Z"/></clipPath><clipPath id="clip-path-28" transform="translate(310.33 2747.45)"><path class="cls-1" d="M8084.61,309.74Z"/></clipPath><clipPath id="clip-path-29" transform="translate(310.33 2747.45)"><path class="cls-1" d="M9020.81,309.74Z"/></clipPath><clipPath id="clip-path-30" transform="translate(310.33 2747.45)"><path class="cls-1" d="M8892.61,309.74Z"/></clipPath></defs><g id="Calque_9" data-name="Calque 9"><path class="cls-2" d="M-198.72-2727.12c-11.21-.11-32.2-19.33-32.2-19.33s-43.42,9.37-48.24,15.37c-1.54,1.92-31.17,52.33-31.17,52.33l33.19,18.24,12.23-12.6,12.32,80.51,2.2,51.21,54.2.44" transform="translate(310.33 2747.45)"/><path class="cls-2" d="M-108.44-2732.08c1.54,1.92,31.17,52.33,31.17,52.33l-33.19,18.24-12.23-12.6L-135-2593.6l-2.2,51.21-109.52,1.44s13.22-186.74,57.85-187.17c11.21-.11,32.2-19.33,32.2-19.33S-113.26-2738.08-108.44-2732.08Z" transform="translate(310.33 2747.45)"/><polygon class="cls-2" points="45.01 480.92 63.22 221.67 171.6 221.67 218.43 480.92 45.01 480.92"/><path class="cls-3" d="M6029.74-2627.54a6.75,6.75,0,0,1-6.75,6.69,6.75,6.75,0,0,1-6.75-6.69Z" transform="translate(310.33 2747.45)"/><path class="cls-3" d="M5994.89-2627.54a6.75,6.75,0,0,1-6.75,6.69,6.75,6.75,0,0,1-6.75-6.69Z" transform="translate(310.33 2747.45)"/><path class="cls-4" d="M5992.22-2627a4,4,0,0,1-4,4,4,4,0,0,1-4-4,2.78,2.78,0,0,1,.05-.58h7.9A2.78,2.78,0,0,1,5992.22-2627Z" transform="translate(310.33 2747.45)"/><path class="cls-4" d="M6027.16-2627a4,4,0,0,1-4,4,4,4,0,0,1-4-4,2.78,2.78,0,0,1,.05-.58h7.9A2.78,2.78,0,0,1,6027.16-2627Z" transform="translate(310.33 2747.45)"/><g class="cls-5"><path class="cls-6" d="M6016-2640.93c9.84.18,19.58,5.06,19.58,5.06" transform="translate(310.33 2747.45)"/></g><g class="cls-7"><path class="cls-6" d="M5996.39-2640.93c-9.83.18-19.57,5.06-19.57,5.06" transform="translate(310.33 2747.45)"/></g><path class="cls-8" d="M5999.2-2604.76" transform="translate(310.33 2747.45)"/><path class="cls-9" d="M5994.93-2588.78c3.09.14,7.19.22,11.25.21s8.07-.09,11-.24" transform="translate(310.33 2747.45)"/><path class="cls-10" d="M6014.11-2605.37s-4.69,3.69-7.42,3.69-7-3.6-7-3.6,5.4.73,7.21.72S6014.11-2605.37,6014.11-2605.37Z" transform="translate(310.33 2747.45)"/><ellipse class="cls-11" cx="6293.18" cy="130.33" rx="3.87" ry="4.38"/><circle class="cls-3" cx="6456.95" cy="120.06" r="6.75"/><circle class="cls-3" cx="6422.1" cy="120.06" r="6.75"/><circle class="cls-12" cx="6424.18" cy="120.2" r="4"/><circle class="cls-12" cx="6459.12" cy="120.2" r="4"/><g class="cls-13"><path class="cls-6" d="M6139.41-2640a15.08,15.08,0,0,1,10.35-3.25,15,15,0,0,1,9.81,4.65" transform="translate(310.33 2747.45)"/></g><g class="cls-14"><path class="cls-6" d="M6120.28-2640a15.08,15.08,0,0,0-10.35-3.25,15,15,0,0,0-9.81,4.65" transform="translate(310.33 2747.45)"/></g><path class="cls-8" d="M6122.83-2604.55" transform="translate(310.33 2747.45)"/><path class="cls-10" d="M6137.74-2605.16s-4.69,3.69-7.42,3.69-7-3.6-7-3.6,5.4.73,7.21.72S6137.74-2605.16,6137.74-2605.16Z" transform="translate(310.33 2747.45)"/><ellipse class="cls-15" cx="6440.49" cy="161.75" rx="2.88" ry="4.5"/><circle class="cls-3" cx="6424.82" cy="301.4" r="6.75"/><circle class="cls-3" cx="6461.06" cy="301.4" r="6.75"/><circle cx="6422.61" cy="299.69" r="3.29"/><circle cx="6458.95" cy="299.69" r="3.29"/><g class="cls-16"><path class="cls-6" d="M6123.59-2459.67c-2.88-2.32-8.24-5.85-14.35-4.74-5.33,1-6.8,4.64-6.8,4.64" transform="translate(310.33 2747.45)"/></g><g class="cls-17"><path class="cls-6" d="M6142.47-2459.67c2.89-2.32,8.24-5.85,14.35-4.74,5.33,1,6.8,4.64,6.8,4.64" transform="translate(310.33 2747.45)"/></g><path class="cls-10" d="M6139.84-2425.58s-4.7,3.69-7.43,3.69c-2.58,0-7-3.59-7-3.59s5.4.73,7.21.71S6139.84-2425.58,6139.84-2425.58Z" transform="translate(310.33 2747.45)"/><path class="cls-18" d="M6116.84-2411.15c.29-.64,1.43-1.63,3.5-2.55a29.52,29.52,0,0,1,10.56-2.09,22.74,22.74,0,0,1,15.86,6.05s-4.58,11.75-15.81,10.89C6122.81-2399.48,6116.84-2411.15,6116.84-2411.15Z" transform="translate(310.33 2747.45)"/><path class="cls-19" d="M6131.3-2410.77l-8.25-.37-2.2-.92a28.22,28.22,0,0,1,11.43-2c6.7.35,10.32,2.92,10.32,2.92l-1.71.8Z" transform="translate(310.33 2747.45)"/><path class="cls-20" d="M6114.17-2435" transform="translate(310.33 2747.45)"/><circle class="cls-3" cx="6324.1" cy="342.36" r="5.28"/><circle cx="6324.07" cy="342.39" r="4"/><path class="cls-6" d="M6041.38-2417.17s5.74.68,10.35,1.56a47.49,47.49,0,0,1,10.55,3.39" transform="translate(310.33 2747.45)"/><path class="cls-6" d="M6022.24-2417.67a15,15,0,0,0-10.35-3.25,15.08,15.08,0,0,0-9.8,4.64" transform="translate(310.33 2747.45)"/><path class="cls-10" d="M6038.49-2385.59s-4.7,3.69-7.42,3.69-7-3.6-7-3.6,5.4.73,7.22.72S6038.49-2385.59,6038.49-2385.59Z" transform="translate(310.33 2747.45)"/><path class="cls-9" d="M6017.82-2370.74a18.67,18.67,0,0,0,13.62,5.52,19,19,0,0,0,13.29-6.49" transform="translate(310.33 2747.45)"/><path class="cls-21" d="M6004.62-2407.2a2.09,2.09,0,0,0,2.88.64c1.77-1.13,3.81-2.75,5.76-2.1,2.65.89,2.54,2.9,5.85,3.28.31,0-.69-6.21-6.07-6.54s-6,4.39-8.42,4.72Z" transform="translate(310.33 2747.45)"/><path class="cls-21" d="M6057.93-2404.6a2.09,2.09,0,0,1-2.88.64c-1.77-1.13-6.94-1.21-8.89-.56-2.65.89-5.76,2.15-6.62.4-.13-.28,1.46-3.33,6.84-3.66s9.11,2.85,11.55,3.18Z" transform="translate(310.33 2747.45)"/><g class="cls-22"><path class="cls-6" d="M6133.19-2549.57s-6.36-1.87-12.1-.24a38.31,38.31,0,0,0-8.06,3.39" transform="translate(310.33 2747.45)"/></g><g class="cls-23"><path class="cls-6" d="M6152-2549.57s6.36-1.87,12.1-.24a38.31,38.31,0,0,1,8.06,3.39" transform="translate(310.33 2747.45)"/></g><path class="cls-10" d="M6149.43-2512.73s-4.69,3.69-7.42,3.69-7-3.59-7-3.59,5.4.73,7.21.72S6149.43-2512.73,6149.43-2512.73Z" transform="translate(310.33 2747.45)"/><path class="cls-9" d="M6128.77-2500.88a18.61,18.61,0,0,0,13.61,5.52,19,19,0,0,0,13.29-6.48" transform="translate(310.33 2747.45)"/><path class="cls-21" d="M6170.25-2535a2.09,2.09,0,0,1-2.88.64c-1.77-1.13-6.94-1.21-8.89-.56-2.65.89-5.76,2.15-6.62.4-.13-.28,1.46-3.33,6.84-3.66s9.11,2.85,11.55,3.18Z" transform="translate(310.33 2747.45)"/><path class="cls-21" d="M6114.05-2535a2.09,2.09,0,0,0,2.88.64c1.77-1.13,6.93-1.21,8.89-.56,2.65.89,5.76,2.15,6.62.4.13-.28-1.46-3.33-6.84-3.66s-9.11,2.85-11.55,3.18Z" transform="translate(310.33 2747.45)"/><path class="cls-21" d="M6106.54-2449.07a2.09,2.09,0,0,0,2.88.64c1.77-1.13,3.8-2.75,5.75-2.1,2.66.89,2.55,2.9,5.85,3.28.31,0-.68-6.21-6.07-6.54s-6,4.39-8.41,4.72Z" transform="translate(310.33 2747.45)"/><path class="cls-21" d="M6158.51-2449.07a2.09,2.09,0,0,1-2.88.64c-1.77-1.13-3.8-2.75-5.75-2.1-2.66.89-2.55,2.9-5.85,3.28-.32,0,.68-6.21,6.07-6.54s6,4.39,8.41,4.72Z" transform="translate(310.33 2747.45)"/><path class="cls-21" d="M6103.87-2630a2.09,2.09,0,0,0,2.88.64c1.78-1.13,3.81-2.75,5.76-2.1,2.66.89,2.55,2.9,5.85,3.28.31,0-.68-6.21-6.07-6.54s-6,4.39-8.42,4.72Z" transform="translate(310.33 2747.45)"/><path class="cls-21" d="M6154.41-2630.56a2.09,2.09,0,0,1-2.88.64c-1.77-1.13-3.81-2.75-5.76-2.1-2.65.89-2.54,2.9-5.85,3.28-.31,0,.69-6.21,6.07-6.54s6,4.39,8.42,4.72Z" transform="translate(310.33 2747.45)"/><path class="cls-24" d="M118,1516.57" transform="translate(310.33 2747.45)"/><path class="cls-24" d="M118,1516.57" transform="translate(310.33 2747.45)"/><path class="cls-24" d="M118,1516.57" transform="translate(310.33 2747.45)"/><path class="cls-24" d="M118,1516.57" transform="translate(310.33 2747.45)"/><path class="cls-24" d="M118,1516.57" transform="translate(310.33 2747.45)"/><path class="cls-24" d="M118,1516.57" transform="translate(310.33 2747.45)"/><path class="cls-24" d="M153.25,1498.85" transform="translate(310.33 2747.45)"/><path class="cls-24" d="M118,2541.57" transform="translate(310.33 2747.45)"/><path class="cls-24" d="M118,2541.57" transform="translate(310.33 2747.45)"/><path class="cls-24" d="M118,2541.57" transform="translate(310.33 2747.45)"/><path class="cls-24" d="M118,2541.57" transform="translate(310.33 2747.45)"/><path class="cls-24" d="M118,2541.57" transform="translate(310.33 2747.45)"/><path class="cls-24" d="M118,2541.57" transform="translate(310.33 2747.45)"/><path class="cls-24" d="M153.25,2523.85" transform="translate(310.33 2747.45)"/><path class="cls-24" d="M118,3566.57" transform="translate(310.33 2747.45)"/><path class="cls-24" d="M118,3566.57" transform="translate(310.33 2747.45)"/><path class="cls-24" d="M118,3566.57" transform="translate(310.33 2747.45)"/><path class="cls-24" d="M118,3566.57" transform="translate(310.33 2747.45)"/><path class="cls-24" d="M118,3566.57" transform="translate(310.33 2747.45)"/><path class="cls-24" d="M118,3566.57" transform="translate(310.33 2747.45)"/><path class="cls-24" d="M153.25,3548.85" transform="translate(310.33 2747.45)"/><path class="cls-24" d="M118,4591.57" transform="translate(310.33 2747.45)"/><path class="cls-24" d="M118,4591.57" transform="translate(310.33 2747.45)"/><path class="cls-24" d="M118,4591.57" transform="translate(310.33 2747.45)"/><path class="cls-24" d="M118,4591.57" transform="translate(310.33 2747.45)"/><path class="cls-24" d="M118,4591.57" transform="translate(310.33 2747.45)"/><path class="cls-24" d="M118,4591.57" transform="translate(310.33 2747.45)"/><path class="cls-24" d="M153.25,4573.85" transform="translate(310.33 2747.45)"/></g><g id="Calque_10" data-name="Calque 10"><path class="cls-25" d="M390.64,420.16c-5.48-3.58-8-.63-13.73,2.51-9.75,5.35-15.83,23.72-26.67,26.22-3.85.88-12.68-15.07-13.71-21.32-1.53-9.33,2.52-27.52-8.39-36.86-9.24-7.9-21.45-3.68-25.46-16.29-7-22,17.26-35.79,27.21-39.65,15.17-5.88,33.33-7.79,39.71-16.93l.94-27.7.69-20.18,18.32-.81h2.18l18.32.81.69,20.18.94,27.7c6.38,9.14,28.35,8.35,43.52,14.24,9.95,3.85,30.39,20.36,23.4,42.34-4,12.61-16.22,8.39-25.46,16.29-10.91,9.34-6.86,27.53-8.39,36.86-1,6.25-9.86,22.2-13.71,21.32-10.84-2.5-16.92-20.87-26.67-26.22-5.74-3.14-8.25-6.09-13.73-2.51" transform="translate(310.33 2747.45)"/><path class="cls-26" d="M370.15,318.16s31.77,11.4,41.17-10.81L410.05,270H371.23Z" transform="translate(310.33 2747.45)"/><path class="cls-25" d="M6533.15,419.09c-5.48-3.57-8-.62-13.73,2.52-9.75,5.35-15.84,23.72-26.68,26.21-3.85.89-12.67-15.06-13.7-21.31-1.53-9.33,2.52-27.52-8.4-36.86-9.24-7.9-21.44-3.68-25.45-16.29-7-22,17.26-35.79,27.21-39.65,15.17-5.88,33.33-7.79,39.71-16.93l.94-27.7.69-20.19,18.32-.8h2.18l18.32.8.68,20.19.95,27.7c6.38,9.14,28.35,8.35,43.52,14.23,9.95,3.86,30.39,20.37,23.4,42.35-4,12.61-16.22,8.39-25.46,16.29-10.91,9.34-6.86,27.53-8.4,36.86-1,6.25-9.85,22.2-13.7,21.31-10.84-2.49-16.92-20.86-26.68-26.21-5.74-3.14-8.24-6.09-13.72-2.52" transform="translate(310.33 2747.45)"/><path class="cls-26" d="M6512.66,317.1s31.77,11.39,41.17-10.81l-1.27-37.4h-38.82Z" transform="translate(310.33 2747.45)"/><path class="cls-25" d="M3948.15,419.09c-5.48-3.57-8-.62-13.73,2.52-9.75,5.35-15.84,23.72-26.68,26.21-3.85.89-12.67-15.06-13.7-21.31-1.53-9.33,2.52-27.52-8.4-36.86-9.24-7.9-21.44-3.68-25.45-16.29-7-22,17.26-35.79,27.21-39.65,15.17-5.88,33.33-7.79,39.71-16.93l.94-27.7.69-20.19,18.32-.8h2.18l18.32.8.68,20.19,1,27.7c6.38,9.14,28.35,8.35,43.52,14.23,9.95,3.86,30.39,20.37,23.4,42.35-4,12.61-16.22,8.39-25.46,16.29-10.91,9.34-19.25,27.09-20.79,36.42-1,6.25-13.32,15.25-17.17,14.37-10.84-2.5-1.06-13.48-10.82-18.83-5.74-3.14-8.24-6.09-13.72-2.52" transform="translate(310.33 2747.45)"/><path class="cls-26" d="M3927,317.1s32.37,10.58,41.77-11.62l-1.15-37.39-39.54.8Z" transform="translate(310.33 2747.45)"/><path class="cls-25" d="M2172.15,419.09c-5.48-3.57-8-.62-13.73,2.52-9.75,5.35-15.84,23.72-26.68,26.21-3.85.89-12.67-15.06-13.7-21.31-1.53-9.33,2.52-27.52-8.4-36.86-9.24-7.9-21.44-3.68-25.45-16.29-7-22,17.26-35.79,27.21-39.65,15.17-5.88,33.33-7.79,39.71-16.93l.94-27.7.69-20.19,18.32-.8h2.18l18.32.8.68,20.19,1,27.7c6.38,9.14,28.35,8.35,43.52,14.23,9.95,3.86,30.39,20.37,23.4,42.35-4,12.61-16.22,8.39-25.46,16.29-10.91,9.34-6.86,27.53-8.4,36.86-1,6.25-9.85,22.2-13.7,21.31-10.84-2.49-16.92-20.86-26.68-26.21-5.74-3.14-8.24-6.09-13.72-2.52" transform="translate(310.33 2747.45)"/><path class="cls-26" d="M2151.66,317.1s31.77,11.39,41.17-10.81l-1.27-37.4h-38.82Z" transform="translate(310.33 2747.45)"/><path class="cls-25" d="M1284.15,419.09c-5.48-3.57-8-.62-13.73,2.52-9.75,5.35-15.84,23.72-26.68,26.21-3.85.89-12.67-15.06-13.7-21.31-1.53-9.33,2.52-27.52-8.4-36.86-9.24-7.9-21.44-3.68-25.45-16.29-7-22,17.26-35.79,27.21-39.65,15.17-5.88,33.33-7.79,39.71-16.93l.94-27.7.69-20.19,18.32-.8h2.18l18.32.8.68,20.19,1,27.7c6.38,9.14,28.35,8.35,43.52,14.23,10,3.86,30.39,20.37,23.4,42.35-4,12.61-16.22,8.39-25.46,16.29-10.91,9.34-6.86,27.53-8.4,36.86-1,6.25-9.85,22.2-13.7,21.31-10.84-2.49-16.92-20.86-26.68-26.21-5.74-3.14-8.24-6.09-13.72-2.52" transform="translate(310.33 2747.45)"/><path class="cls-26" d="M1263.66,317.1s31.77,11.39,41.17-10.81l-1.27-37.4h-38.82Z" transform="translate(310.33 2747.45)"/><path class="cls-25" d="M3149.11,373.52c-4,12.61-16.22,8.39-25.46,16.29-10.91,9.34-6.86,27.53-8.4,36.86-1,6.25-9.85,22.2-13.7,21.32-10.84-2.5-16.92-20.87-26.68-26.22-5.74-3.14-8.24-6.09-13.72-2.51-5.48-3.58-8-.63-13.73,2.51-9.75,5.35-15.84,23.72-26.68,26.22-3.85.88-12.67-15.07-13.7-21.32-1.53-9.33,2.52-27.52-8.4-36.86-9.24-7.9-21.44-3.68-25.45-16.29-7-22,13.45-38.49,23.4-42.34,9.47-3.67,21.58-4.75,30.91-7.26,5.61-1.51,10.21-3.54,12.61-7l.94-27.7.69-20.18,18.32-.81h2.18l18.32.81.68,20.18.34,9.94.61,17.76c1.89,2.7,5.14,4.54,9.18,5.93,9.61,3.33,23.66,4.17,34.34,8.31C3135.66,335,3156.1,351.54,3149.11,373.52Z" transform="translate(310.33 2747.45)"/><path class="cls-26" d="M3039.66,315s32.77,13.64,42.17-8.56l-1.27-37.4h-38.82Z" transform="translate(310.33 2747.45)"/><path class="cls-25" d="M3017,353.38c-4.31,21.53-18,24.68-25.92,30.88-12.61,9.85-29.26,38.17-39.71,50.2-4.93,5.67-18.46,17-27.07,9.22h0c-10.65-10.56-3-23.88,1.29-29.79,8.61-12,28.33-34.49,34.89-47.79,4.88-9.91,7.64-20.68,23.1-29.78,0,0,15.31-10.15,26.26-3,7,4.59,8.93,11.18,7.16,20.06Z" transform="translate(310.33 2747.45)"/><path class="cls-25" d="M2947.24,428.5c-3.91-14.55-15.19-11.82-21.43-11-6.73.91-68.81,24.07-85.8,30-9.6,3.32-14.8,4.83-13.37,10.7,1.3,5.35,11.73,5,15.83,4.93,38.52-.85,67.55-3.41,93.37-16.45C2952.8,438.09,2948.24,432.21,2947.24,428.5Z" transform="translate(310.33 2747.45)"/><path class="cls-25" d="M2800.17,447.68c-7.59,4.13-19.14,9.25-19.14,9.25s5.85,4.62,8.29,4.9c2,.23,10.47-4,10.47-4l8.08,2.62c-3.2,4.53-3.83,6.79-8,11.86-3.23,3.9-13.27,10-18.13,12-2.64,1.09-9,.86-11.22,2.58-1.57,1.22-2.9,7.09-2.9,7.09l15.09-.87s20.63-7.26,27.2-10.3c7-3.25,20.42-11.29,25.76-16.6,1.71-1.71,5-5.14,3.86-10.09-1-4.25-5.43-5.83-8.3-6.65C2826.77,448.24,2800.5,447.5,2800.17,447.68Z" transform="translate(310.33 2747.45)"/><path class="cls-25" d="M3103.21,350.66c.7,21.95,13.65,27.31,20.47,34.73,10.82,11.79,22.57,42.47,30.9,56.06,3.92,6.4,15.41,19.8,25.18,13.54h0c12.24-8.65,6.84-23.06,3.64-29.59-6.52-13.29-22.27-38.68-26.54-52.88-3.19-10.58-4.13-21.66-17.89-33.18,0,0-13.42-12.53-25.4-7.29-7.71,3.38-10.65,9.56-10.36,18.61Z" transform="translate(310.33 2747.45)"/><path class="cls-25" d="M3159.62,436.24c6.25-13.7,16.93-9.16,22.94-7.29,6.49,2,63.9,35.07,79.7,43.67,8.92,4.85,13.8,7.2,11.42,12.76-2.16,5.06-12.4,3-16.43,2.25-37.85-7.18-66.06-14.49-89.39-31.61C3152.55,444.79,3158,439.74,3159.62,436.24Z" transform="translate(310.33 2747.45)"/><path class="cls-25" d="M3301.51,479.38c6.81,5.34,17.36,12.29,17.36,12.29s-6.54,3.59-9,3.47c-2-.1-9.67-5.64-9.67-5.64l-8.41,1.25c2.41,5,2.66,7.33,6,13,2.54,4.37,11.44,12.07,15.89,14.84,2.43,1.51,8.75,2.33,10.65,4.39,1.35,1.46,1.7,7.47,1.7,7.47l-14.74-3.34s-19.16-10.56-25.14-14.64c-6.39-4.36-18.28-14.5-22.67-20.62-1.41-2-4.13-5.9-2.15-10.58,1.71-4,6.32-4.86,9.29-5.2C3275.18,475.56,3301.22,479.15,3301.51,479.38Z" transform="translate(310.33 2747.45)"/><path class="cls-2" d="M3374,252.07" transform="translate(310.33 2747.45)"/><path class="cls-27" d="M2981.57,606.53" transform="translate(310.33 2747.45)"/><path class="cls-25" d="M2858.27,463.08" transform="translate(310.33 2747.45)"/><path class="cls-25" d="M2858.27,463.08" transform="translate(310.33 2747.45)"/><path class="cls-25" d="M2858.27,463.08" transform="translate(310.33 2747.45)"/><path class="cls-25" d="M2858.27,463.08" transform="translate(310.33 2747.45)"/><path class="cls-25" d="M2858.27,463.08" transform="translate(310.33 2747.45)"/><path class="cls-25" d="M2858.27,463.08" transform="translate(310.33 2747.45)"/><path class="cls-25" d="M2785.15,492.14" transform="translate(310.33 2747.45)"/><path class="cls-25" d="M2785.15,492.14" transform="translate(310.33 2747.45)"/><path class="cls-25" d="M2785.15,492.14" transform="translate(310.33 2747.45)"/><path class="cls-25" d="M2785.15,492.14" transform="translate(310.33 2747.45)"/><path class="cls-25" d="M2785.15,492.14" transform="translate(310.33 2747.45)"/><path class="cls-25" d="M2785.15,492.14" transform="translate(310.33 2747.45)"/><path class="cls-25" d="M2825.52,475.06" transform="translate(310.33 2747.45)"/><path class="cls-25" d="M3243.57,485" transform="translate(310.33 2747.45)"/><path class="cls-25" d="M3243.57,485" transform="translate(310.33 2747.45)"/><path class="cls-25" d="M3243.57,485" transform="translate(310.33 2747.45)"/><path class="cls-25" d="M3243.57,485" transform="translate(310.33 2747.45)"/><path class="cls-25" d="M3243.57,485" transform="translate(310.33 2747.45)"/><path class="cls-25" d="M3243.57,485" transform="translate(310.33 2747.45)"/><path class="cls-25" d="M3305.74,525.5" transform="translate(310.33 2747.45)"/><path class="cls-25" d="M3305.74,525.5" transform="translate(310.33 2747.45)"/><path class="cls-25" d="M3305.74,525.5" transform="translate(310.33 2747.45)"/><path class="cls-25" d="M3305.74,525.5" transform="translate(310.33 2747.45)"/><path class="cls-25" d="M3305.74,525.5" transform="translate(310.33 2747.45)"/><path class="cls-25" d="M3305.74,525.5" transform="translate(310.33 2747.45)"/><path class="cls-25" d="M3273.9,502.21" transform="translate(310.33 2747.45)"/><path class="cls-28" d="M3109.22,270.58" transform="translate(310.33 2747.45)"/><path class="cls-29" d="M3145.79,333.71" transform="translate(310.33 2747.45)"/><path class="cls-27" d="M2981.57,606.53" transform="translate(310.33 2747.45)"/><g class="cls-30"><path class="cls-31" d="M3124.81,309.74" transform="translate(310.33 2747.45)"/></g><g class="cls-32"><path class="cls-31" d="M2996.61,309.74" transform="translate(310.33 2747.45)"/></g><path class="cls-28" d="M3109.22,270.58" transform="translate(310.33 2747.45)"/><path class="cls-29" d="M3145.79,333.71" transform="translate(310.33 2747.45)"/><path class="cls-8" d="M3052.05,265.36" transform="translate(310.33 2747.45)"/><path class="cls-33" d="M3002.7,504.08l1.89-16.28h107.93l4.19,15.53a6.25,6.25,0,0,1-6,7.88H3009A6.39,6.39,0,0,1,3002.7,504.08Z" transform="translate(310.33 2747.45)"/><polygon class="cls-33" points="3287.67 3083.36 3313.37 3173.52 3309.64 3223.18 3314.83 3235.24 3422.76 3235.24 3435.05 3218.29 3422.16 3187.39 3436.35 3132.36 3453.34 3088.08 3431.79 3075.92 3368.77 3085.67 3312.99 3075 3287.67 3083.36"/><path class="cls-8" d="M3054.13,266.89" transform="translate(310.33 2747.45)"/><path class="cls-20" d="M2486,252.07" transform="translate(310.33 2747.45)"/><path class="cls-27" d="M2093.57,606.53" transform="translate(310.33 2747.45)"/><path class="cls-27" d="M2254.15,612.6" transform="translate(310.33 2747.45)"/><path class="cls-34" d="M1970.27,463.08" transform="translate(310.33 2747.45)"/><path class="cls-34" d="M1970.27,463.08" transform="translate(310.33 2747.45)"/><path class="cls-34" d="M1970.27,463.08" transform="translate(310.33 2747.45)"/><path class="cls-34" d="M1970.27,463.08" transform="translate(310.33 2747.45)"/><path class="cls-34" d="M1970.27,463.08" transform="translate(310.33 2747.45)"/><path class="cls-34" d="M1970.27,463.08" transform="translate(310.33 2747.45)"/><path class="cls-34" d="M2390.36,439.68" transform="translate(310.33 2747.45)"/><path class="cls-34" d="M2390.36,439.68" transform="translate(310.33 2747.45)"/><path class="cls-34" d="M2390.36,439.68" transform="translate(310.33 2747.45)"/><path class="cls-34" d="M2390.36,439.68" transform="translate(310.33 2747.45)"/><path class="cls-34" d="M2390.36,439.68" transform="translate(310.33 2747.45)"/><path class="cls-34" d="M2390.36,439.68" transform="translate(310.33 2747.45)"/><path class="cls-35" d="M2425.19,441.72" transform="translate(310.33 2747.45)"/><path class="cls-36" d="M2221.22,270.58" transform="translate(310.33 2747.45)"/><path class="cls-29" d="M2257.79,333.71" transform="translate(310.33 2747.45)"/><path class="cls-29" d="M2152.47,552" transform="translate(310.33 2747.45)"/><path class="cls-27" d="M2093.57,606.53" transform="translate(310.33 2747.45)"/><path class="cls-27" d="M2254.15,612.6" transform="translate(310.33 2747.45)"/><g class="cls-37"><path class="cls-31" d="M2236.81,309.74" transform="translate(310.33 2747.45)"/></g><g class="cls-38"><path class="cls-31" d="M2108.61,309.74" transform="translate(310.33 2747.45)"/></g><path class="cls-36" d="M2221.22,270.58" transform="translate(310.33 2747.45)"/><path class="cls-29" d="M2257.79,333.71" transform="translate(310.33 2747.45)"/><path class="cls-29" d="M2152.47,552" transform="translate(310.33 2747.45)"/><path class="cls-34" d="M1977.76,475.73" transform="translate(310.33 2747.45)"/><path class="cls-34" d="M1977.76,475.73" transform="translate(310.33 2747.45)"/><path class="cls-34" d="M1977.76,475.73" transform="translate(310.33 2747.45)"/><path class="cls-34" d="M1977.76,475.73" transform="translate(310.33 2747.45)"/><path class="cls-34" d="M1977.76,475.73" transform="translate(310.33 2747.45)"/><path class="cls-34" d="M1977.76,475.73" transform="translate(310.33 2747.45)"/><path class="cls-25" d="M2132.53,352.15c-4.3,21.53-18,24.68-25.91,30.88-12.62,9.85-29.26,38.17-39.71,50.21-4.93,5.67-18.47,17-27.07,9.21h0c-10.65-10.56-2.95-23.88,1.28-29.79,8.62-12,28.34-34.49,34.89-47.79,4.89-9.9,7.65-20.68,23.11-29.78,0,0,15.3-10.15,26.26-3,7,4.6,8.93,11.18,7.15,20.06Z" transform="translate(310.33 2747.45)"/><path class="cls-34" d="M2381.11,442.55" transform="translate(310.33 2747.45)"/><path class="cls-34" d="M2381.11,442.55" transform="translate(310.33 2747.45)"/><path class="cls-34" d="M2381.11,442.55" transform="translate(310.33 2747.45)"/><path class="cls-34" d="M2381.11,442.55" transform="translate(310.33 2747.45)"/><path class="cls-34" d="M2381.11,442.55" transform="translate(310.33 2747.45)"/><path class="cls-34" d="M2381.11,442.55" transform="translate(310.33 2747.45)"/><path class="cls-35" d="M2415.94,444.3" transform="translate(310.33 2747.45)"/><path class="cls-34" d="M2377.7,456.85" transform="translate(310.33 2747.45)"/><path class="cls-34" d="M2377.7,456.85" transform="translate(310.33 2747.45)"/><path class="cls-34" d="M2377.7,456.85" transform="translate(310.33 2747.45)"/><path class="cls-34" d="M2377.7,456.85" transform="translate(310.33 2747.45)"/><path class="cls-34" d="M2377.7,456.85" transform="translate(310.33 2747.45)"/><path class="cls-34" d="M2377.7,456.85" transform="translate(310.33 2747.45)"/><path class="cls-25" d="M2209.94,352.15c4.3,21.53,18,24.68,25.91,30.88,12.62,9.85,29.26,38.17,39.71,50.21,4.93,5.67,18.47,17,27.07,9.21h0c10.65-10.56,2.95-23.88-1.28-29.79-8.62-12-28.34-34.49-34.89-47.79-4.89-9.9-7.65-20.68-23.11-29.78,0,0-15.3-10.15-26.26-3-7,4.6-8.93,11.18-7.15,20.06Z" transform="translate(310.33 2747.45)"/><path class="cls-25" d="M2285.36,428.22c3.39-14.67,14.76-12.35,21-11.72,6.75.67,69.61,21.62,86.8,26.9,9.71,3,15,4.3,13.74,10.22-1.11,5.39-11.58,5.95-15.65,5.48-44.12-5.12-54.62-6.69-93.89-13.14C2278.65,442.88,2284.49,432,2285.36,428.22Z" transform="translate(310.33 2747.45)"/><path class="cls-35" d="M2410.86,467.67" transform="translate(310.33 2747.45)"/><path class="cls-25" d="M2394.9,443.83s9-8.36,11.13-9.08,12.55-4.08,14-5,9.44-8.32,10.1-7.2c.27.45.73,1.45,1.2,2.49a5.62,5.62,0,0,1-.83,5.93l-1.73,2a13.47,13.47,0,0,1-4.68,3.55l-7,3.19,16.1,3.86,20.87.89a3.17,3.17,0,0,1,3,2.7h0a3.18,3.18,0,0,1-3.12,3.66l-22.69.17,25.36,6.58a3.52,3.52,0,0,1,2.53,4.3h0a3.53,3.53,0,0,1-4.3,2.52l-27.14-7,24.41,11.11a3.48,3.48,0,0,1,1.65,4.78h0a3.48,3.48,0,0,1-4.43,1.61l-23.33-9.71,13.18,10a3.4,3.4,0,0,1,.42,5h0a3.41,3.41,0,0,1-4.2.59l-15.78-9.34-23.52-7.71-5.13-5.11Z" transform="translate(310.33 2747.45)"/><path class="cls-35" d="M1954,439.59" transform="translate(310.33 2747.45)"/><path class="cls-35" d="M1954,439.59" transform="translate(310.33 2747.45)"/><path class="cls-35" d="M1954,439.59" transform="translate(310.33 2747.45)"/><path class="cls-35" d="M1954,439.59" transform="translate(310.33 2747.45)"/><path class="cls-35" d="M1954,439.59" transform="translate(310.33 2747.45)"/><path class="cls-35" d="M1954,439.59" transform="translate(310.33 2747.45)"/><path class="cls-34" d="M1963.22,442.46" transform="translate(310.33 2747.45)"/><path class="cls-34" d="M1963.22,442.46" transform="translate(310.33 2747.45)"/><path class="cls-34" d="M1963.22,442.46" transform="translate(310.33 2747.45)"/><path class="cls-34" d="M1963.22,442.46" transform="translate(310.33 2747.45)"/><path class="cls-34" d="M1963.22,442.46" transform="translate(310.33 2747.45)"/><path class="cls-34" d="M1963.22,442.46" transform="translate(310.33 2747.45)"/><path class="cls-34" d="M1960.77,457" transform="translate(310.33 2747.45)"/><path class="cls-34" d="M1960.77,457" transform="translate(310.33 2747.45)"/><path class="cls-34" d="M1960.77,457" transform="translate(310.33 2747.45)"/><path class="cls-34" d="M1960.77,457" transform="translate(310.33 2747.45)"/><path class="cls-34" d="M1960.77,457" transform="translate(310.33 2747.45)"/><path class="cls-34" d="M1960.77,457" transform="translate(310.33 2747.45)"/><path class="cls-25" d="M2059,428.13c-3.39-14.67-14.76-12.35-21-11.73-6.75.68-69.61,21.63-86.8,26.91-9.71,3-15,4.3-13.74,10.22,1.11,5.39,11.58,6,15.65,5.48,44.12-5.12,54.62-6.69,93.9-13.14C2065.69,442.79,2059.84,431.88,2059,428.13Z" transform="translate(310.33 2747.45)"/><path class="cls-25" d="M1948.59,443.83s-9-8.36-11.13-9.08-12.55-4.08-14-5-9.43-8.32-10.09-7.2c-.27.45-.73,1.45-1.2,2.49A5.6,5.6,0,0,0,1913,431l1.73,2a13.47,13.47,0,0,0,4.68,3.55l7,3.19-16.1,3.86-20.87.89a3.17,3.17,0,0,0-3,2.7h0a3.18,3.18,0,0,0,3.12,3.66l22.69.17-25.36,6.58a3.52,3.52,0,0,0-2.53,4.3h0a3.52,3.52,0,0,0,4.3,2.52l27.14-7-24.42,11.11a3.48,3.48,0,0,0-1.64,4.78h0a3.48,3.48,0,0,0,4.43,1.61l23.33-9.71-13.18,10a3.4,3.4,0,0,0-.42,5h0a3.41,3.41,0,0,0,4.2.59l15.78-9.34,23.52-7.71,5.13-5.11Z" transform="translate(310.33 2747.45)"/><path class="cls-35" d="M2101.81,320.75" transform="translate(310.33 2747.45)"/><path class="cls-39" d="M2126.28,323.67c1.57,0-12,3.77-12,3.77.33,15.08-3.64,61.78-3.64,61.78s.86,65.07-2,86.51c-1.61,11.92-11.68,46.68-11.68,46.68A24.45,24.45,0,0,0,2120.84,552l107.84.06a20.92,20.92,0,0,0,20-27s-11.93-36-14.61-48.3c-2.72-12.5.47-83.47.47-83.47l-3.92-66.1-14-3.52c-11.79,3.37-37.3,13.91-40.42,13.85-3.94-.07-50-13.85-50-13.85" transform="translate(310.33 2747.45)"/><path class="cls-27" d="M1205.57,606.53" transform="translate(310.33 2747.45)"/><path class="cls-27" d="M1366.15,612.6" transform="translate(310.33 2747.45)"/><path class="cls-35" d="M1146.87,347.29" transform="translate(310.33 2747.45)"/><path class="cls-35" d="M1146.87,347.29" transform="translate(310.33 2747.45)"/><path class="cls-35" d="M1146.87,347.29" transform="translate(310.33 2747.45)"/><path class="cls-35" d="M1146.87,347.29" transform="translate(310.33 2747.45)"/><path class="cls-35" d="M1146.87,347.29" transform="translate(310.33 2747.45)"/><path class="cls-35" d="M1146.87,347.29" transform="translate(310.33 2747.45)"/><path class="cls-34" d="M1138.08,312.9" transform="translate(310.33 2747.45)"/><path class="cls-34" d="M1349.12,509.63" transform="translate(310.33 2747.45)"/><path class="cls-34" d="M1349.12,509.63" transform="translate(310.33 2747.45)"/><path class="cls-34" d="M1349.12,509.63" transform="translate(310.33 2747.45)"/><path class="cls-34" d="M1349.12,509.63" transform="translate(310.33 2747.45)"/><path class="cls-34" d="M1349.12,509.63" transform="translate(310.33 2747.45)"/><path class="cls-34" d="M1349.12,509.63" transform="translate(310.33 2747.45)"/><path class="cls-25" d="M1334.46,355.41c1.63,21.9,14.8,26.71,21.93,33.84,11.31,11.32,25.65,42.09,34.28,55.49,4.06,6.32,15.84,19.46,25.47,13h0c12-8.92,6.34-23.2,3-29.67-6.8-13.14-25.27-39.07-30.14-53.08-3.63-10.43-5-21.46-19.27-32.39,0,0-13.94-11.95-25.7-6.2-7.55,3.69-10.23,10-9.56,19Z" transform="translate(310.33 2747.45)"/><path class="cls-25" d="M1413.66,429.92c13.39,6.88,9.85,18.8,7.71,24.72-2.3,6.38-37.88,61.86-46.89,77.42-5.08,8.79-7.56,13.61-13,11.09-5-2.3-4.92-7.19-1.82-16.48,15.82-47.31,15.85-55.48,31.77-88.16C1398.15,424.61,1410.24,428.16,1413.66,429.92Z" transform="translate(310.33 2747.45)"/><path class="cls-34" d="M1301,550.18" transform="translate(310.33 2747.45)"/><path class="cls-34" d="M1301,550.18" transform="translate(310.33 2747.45)"/><path class="cls-34" d="M1301,550.18" transform="translate(310.33 2747.45)"/><path class="cls-34" d="M1301,550.18" transform="translate(310.33 2747.45)"/><path class="cls-34" d="M1301,550.18" transform="translate(310.33 2747.45)"/><path class="cls-34" d="M1301,550.18" transform="translate(310.33 2747.45)"/><path class="cls-34" d="M1326.76,536.4" transform="translate(310.33 2747.45)"/><path class="cls-40" d="M1333.22,270.58" transform="translate(310.33 2747.45)"/><path class="cls-29" d="M1369.79,333.71" transform="translate(310.33 2747.45)"/><path class="cls-29" d="M1264.47,552" transform="translate(310.33 2747.45)"/><path class="cls-27" d="M1205.57,606.53" transform="translate(310.33 2747.45)"/><path class="cls-27" d="M1366.15,612.6" transform="translate(310.33 2747.45)"/><g class="cls-41"><path class="cls-31" d="M1348.81,309.74" transform="translate(310.33 2747.45)"/></g><g class="cls-42"><path class="cls-31" d="M1220.61,309.74" transform="translate(310.33 2747.45)"/></g><path class="cls-40" d="M1333.22,270.58" transform="translate(310.33 2747.45)"/><path class="cls-29" d="M1369.79,333.71" transform="translate(310.33 2747.45)"/><path class="cls-29" d="M1264.47,552" transform="translate(310.33 2747.45)"/><path class="cls-25" d="M1244.59,360.92c-4.3,21.54-18,24.69-25.91,30.89-12.61,9.84-29.26,38.17-39.71,50.2-4.93,5.67-18.47,17-27.07,9.21h0c-10.65-10.56-3-23.87,1.28-29.79,8.62-12,28.34-34.49,34.89-47.78,4.89-9.91,7.65-20.68,23.11-29.78,0,0,15.3-10.16,26.26-3,7,4.6,8.93,11.19,7.15,20.06Z" transform="translate(310.33 2747.45)"/><path class="cls-25" d="M1161.51,449.86c15-1.18,14.39-12.77,14.7-19.06.34-6.78-11.07-72.05-13.74-89.83-1.51-10.05-2-15.44-8.08-15.1-5.49.3-7.6,10.56-7.74,14.66-1.47,44.39-1.47,55-.91,94.81C1146,454.32,1157.67,450.16,1161.51,449.86Z" transform="translate(310.33 2747.45)"/><path class="cls-25" d="M1176.57,314.68a6.93,6.93,0,0,1,3.4-3c2.52-1,6.22-2.35,5.94-1.09-.42,1.9-7.22,19.44-7.22,19.44s-10.71,6.46-15.2,17.09c-1,2.3-15.06.89-15.06.89l-1-7.44L1135,316.72l-1.47-29.44a2.13,2.13,0,0,1,1.84-2.22h0a2.14,2.14,0,0,1,2.4,1.79l4.62,21-3.13-33.13a3,3,0,0,1,2.56-3.1l.25,0a3,3,0,0,1,3.3,2.32l4.38,28-.73-28.46a3,3,0,0,1,2.56-3.16h0a3,3,0,0,1,3.33,2.53l4,29.36,7.54-8.71c2-.27,10.48,4.19,10.48,4.19.49,1,3.83,9.93,3.83,9.93l-3.31-.3a5.36,5.36,0,0,1-4.42-3.18l-.27-.61-2.91-.46-3.68,9.6,2.95,9.12,4.48-1.71Z" transform="translate(310.33 2747.45)"/><path class="cls-43" d="M1179.82,372.67l34.45,36.78L1223.4,396l8.28,117.51h102l14-124.33,14.88,26.67L1401,388l-31.2-50.46-37.92-11.75s-34.68,12.09-46.72,11.75c-10.74-.29-41-12.78-41-12.78l-36.48,12.54-27.81,35.39" transform="translate(310.33 2747.45)"/><path class="cls-25" d="M1327.28,540.24s-1.52-3.92-.7-4.61,15.42-7.72,16.23-7.46,15.79.15,16.9,0,11.36,8.33,10.91,9-11.18,23.12-12.81,23.55-7.41,3.91-8.22,3.65-18.49-13.14-18.49-13.14l2-8Z" transform="translate(310.33 2747.45)"/><path class="cls-25" d="M194.9,343.67c12.76,5.44,8.25-12.39,8.95-16.65.55-3.32-8.95-16.54-8.95-16.54L183.74,295s-4.53-3.39-6.21-4.37-13-8.64-13-8.64l-6.83-10.89-4.15,7,3.63,7.57,7.56,8.74-14.38,1.37-4.85,9.49,8.72,24,19.26,3.06,9.46-2.76Z" transform="translate(310.33 2747.45)"/><path class="cls-27" d="M314.42,606.53" transform="translate(310.33 2747.45)"/><path class="cls-27" d="M475,612.6" transform="translate(310.33 2747.45)"/><path class="cls-27" d="M314.42,606.53" transform="translate(310.33 2747.45)"/><path class="cls-27" d="M475,612.6" transform="translate(310.33 2747.45)"/><path class="cls-36" d="M184.51,338.5" transform="translate(310.33 2747.45)"/><path class="cls-36" d="M184.51,338.5" transform="translate(310.33 2747.45)"/><path class="cls-36" d="M184.51,338.5" transform="translate(310.33 2747.45)"/><path class="cls-36" d="M184.51,338.5" transform="translate(310.33 2747.45)"/><path class="cls-36" d="M184.51,338.5" transform="translate(310.33 2747.45)"/><path class="cls-36" d="M184.51,338.5" transform="translate(310.33 2747.45)"/><path class="cls-36" d="M349.83,352.81c-4.31,21.53-18,24.68-25.91,30.88-12.62,9.85-29.26,38.17-39.72,50.21-4.92,5.67-18.46,17-27.07,9.21h0c-10.65-10.56-2.95-23.87,1.29-29.79,8.62-12,28.33-34.49,34.89-47.79,4.88-9.9,7.64-20.68,23.11-29.77,0,0,15.3-10.16,26.26-3,7,4.6,8.92,11.19,7.15,20.06Z" transform="translate(310.33 2747.45)"/><path class="cls-24" d="M118,491.57" transform="translate(310.33 2747.45)"/><path class="cls-24" d="M118,491.57" transform="translate(310.33 2747.45)"/><path class="cls-24" d="M118,491.57" transform="translate(310.33 2747.45)"/><path class="cls-24" d="M118,491.57" transform="translate(310.33 2747.45)"/><path class="cls-24" d="M118,491.57" transform="translate(310.33 2747.45)"/><path class="cls-24" d="M118,491.57" transform="translate(310.33 2747.45)"/><path class="cls-25" d="M158.44,315.34" transform="translate(310.33 2747.45)"/><path class="cls-25" d="M629.63,475.06" transform="translate(310.33 2747.45)"/><path class="cls-29" d="M478.64,333.71" transform="translate(310.33 2747.45)"/><path class="cls-29" d="M373.32,552" transform="translate(310.33 2747.45)"/><g class="cls-44"><path class="cls-31" d="M457.66,309.74" transform="translate(310.33 2747.45)"/></g><g class="cls-45"><path class="cls-31" d="M329.46,309.74" transform="translate(310.33 2747.45)"/></g><path class="cls-29" d="M478.64,333.71" transform="translate(310.33 2747.45)"/><path class="cls-29" d="M373.32,552" transform="translate(310.33 2747.45)"/><path class="cls-36" d="M368.6,305.72h43l.29,11.14,60.66,18.89,35.19,70.36,8.17,28.48-48.26,48.75L453,488.46c-2.28-.09-3.51-18.39-5.29-24.1-.55-1.73,30.33-35,27.3-39.1s-17.35-36.07-17.35-36.07-7.11,33.47-6.49,35.83,6.11,73.73,6.11,73.73L453,510.44s5,20.21,4.66,22.31c-.45,2.5-127.83.31-127.28-3,1.87-11,5.53-25.43,5.53-25.43s-6.43-9.94-6.06-11.79c1.62-8.09,8.15-49.89,7.47-56.92s-8.16-49.75-9.73-46.43S272.85,450.45,265.17,454s-77.58-105.4-77.74-101.84,2-6.27,2-6.27l-4.93-11.1,19.57-14.46,4.8,7.37c.46.82,11.77,3.76,9.38,2.51-1.66-.86,52.75,66.4,52.75,66.4l36.13-59.91s62.48-16,61.16-20.72Z" transform="translate(310.33 2747.45)"/><rect class="cls-36" x="676.72" y="3045.28" width="47.65" height="9.9" rx="3.23"/><polygon class="cls-46" points="764.08 3201.31 763.33 3235.91 777.94 3230.78 772.59 3193.2 764.08 3201.31"/><path class="cls-27" d="M3869.57,606.53" transform="translate(310.33 2747.45)"/><path class="cls-27" d="M4030.15,612.6" transform="translate(310.33 2747.45)"/><path class="cls-36" d="M3751.77,386.68" transform="translate(310.33 2747.45)"/><path class="cls-36" d="M3751.77,386.68" transform="translate(310.33 2747.45)"/><path class="cls-36" d="M3751.77,386.68" transform="translate(310.33 2747.45)"/><path class="cls-36" d="M3751.77,386.68" transform="translate(310.33 2747.45)"/><path class="cls-36" d="M3751.77,386.68" transform="translate(310.33 2747.45)"/><path class="cls-36" d="M3751.77,386.68" transform="translate(310.33 2747.45)"/><path class="cls-25" d="M3912.53,352.49c-4.3,21.54-18,24.69-25.91,30.89-12.62,9.85-29.26,38.17-39.72,50.2-4.92,5.67-18.46,17-27.06,9.22l-3.84-2.51c-10.65-10.56.89-21.37,5.12-27.29,8.62-12,28.34-34.48,34.89-47.78,4.88-9.91,9.84-18.14,25.31-27.24,0,0,16.9-9.5,27.86-2.35,7,4.6,5.12,8,3.35,16.86Z" transform="translate(310.33 2747.45)"/><path class="cls-25" d="M3837.69,441.07c9.87-13.63,1-17.16-.77-23.21-5.28-18.5-46.59-56.06-58-69.93-6.47-7.83-9.7-12.17-14.7-8.78-4.56,3.08-.6,12.74.92,16.55,3.34,8.4,44.22,75.79,48,81.74C3821.08,449.83,3834.74,445.15,3837.69,441.07Z" transform="translate(310.33 2747.45)"/><path class="cls-47" d="M3711.56,336.42" transform="translate(310.33 2747.45)"/><path class="cls-47" d="M3711.56,336.42" transform="translate(310.33 2747.45)"/><path class="cls-47" d="M3711.56,336.42" transform="translate(310.33 2747.45)"/><path class="cls-47" d="M3711.56,336.42" transform="translate(310.33 2747.45)"/><path class="cls-47" d="M3711.56,336.42" transform="translate(310.33 2747.45)"/><path class="cls-47" d="M3711.56,336.42" transform="translate(310.33 2747.45)"/><path class="cls-25" d="M3742.69,307.78l-1.09,2.66a6.82,6.82,0,0,0,.42,6,16.56,16.56,0,0,0,1.25,1.91c1.21,1.59,3.11,4.78,3.11,4.78l3.74,7.63c-5.48.85-7.55,2-14.11,2.47-5,.38-16.43-2.58-21.23-4.68-2.62-1.15-6.88-5.88-9.66-6.29-2-.28-7.11,2.84-7.11,2.84l11.11,10.25s19.56,9.8,26.31,12.41c7.21,2.8,22.3,6.84,29.83,7,2.42,0,7.2.06,9.94-4.23,2.36-3.69.42-8-1-10.59C3772.05,335.85,3743.05,307.89,3742.69,307.78Z" transform="translate(310.33 2747.45)"/><path class="cls-36" d="M3727.87,369" transform="translate(310.33 2747.45)"/><path class="cls-36" d="M4152,463.08" transform="translate(310.33 2747.45)"/><path class="cls-36" d="M4152,463.08" transform="translate(310.33 2747.45)"/><path class="cls-36" d="M4152,463.08" transform="translate(310.33 2747.45)"/><path class="cls-36" d="M4152,463.08" transform="translate(310.33 2747.45)"/><path class="cls-36" d="M4152,463.08" transform="translate(310.33 2747.45)"/><path class="cls-36" d="M4152,463.08" transform="translate(310.33 2747.45)"/><path class="cls-25" d="M3988.19,354c4.31,21.54,18,24.69,25.92,30.89,12.61,9.84,29.26,38.17,39.71,50.2,4.93,5.67,18.47,17,27.07,9.21h0c10.65-10.56,3-23.87-1.29-29.79-8.61-12-28.33-34.49-34.89-47.78-4.88-9.91-7.64-20.68-23.1-29.78,0,0-15.31-10.16-26.26-3-7,4.6-8.93,11.19-7.16,20.06Z" transform="translate(310.33 2747.45)"/><path class="cls-36" d="M4184.78,475.06" transform="translate(310.33 2747.45)"/><path class="cls-28" d="M3997.22,270.58" transform="translate(310.33 2747.45)"/><path class="cls-29" d="M4033.79,333.71" transform="translate(310.33 2747.45)"/><path class="cls-29" d="M3928.47,552" transform="translate(310.33 2747.45)"/><path class="cls-27" d="M3869.57,606.53" transform="translate(310.33 2747.45)"/><path class="cls-27" d="M4030.15,612.6" transform="translate(310.33 2747.45)"/><g class="cls-48"><path class="cls-31" d="M4012.81,309.74" transform="translate(310.33 2747.45)"/></g><g class="cls-49"><path class="cls-31" d="M3884.61,309.74" transform="translate(310.33 2747.45)"/></g><path class="cls-28" d="M3997.22,270.58" transform="translate(310.33 2747.45)"/><polyline class="cls-50" points="4324.44 3314.67 4307.55 3187.36 4324.44 3132.36 4361.63 3120.34 4342.55 3085.79 4255.57 3097.4 4176.86 3081.74 4151.65 3114.29 4193.06 3136.67 4205.01 3198.69 4201.83 3299.49"/><path class="cls-29" d="M4033.79,333.71" transform="translate(310.33 2747.45)"/><path class="cls-29" d="M3928.47,552" transform="translate(310.33 2747.45)"/><path class="cls-36" d="M3919.52,492.79" transform="translate(310.33 2747.45)"/><path class="cls-36" d="M3919.52,492.79" transform="translate(310.33 2747.45)"/><path class="cls-36" d="M3919.52,492.79" transform="translate(310.33 2747.45)"/><path class="cls-36" d="M3919.52,492.79" transform="translate(310.33 2747.45)"/><path class="cls-36" d="M3919.52,492.79" transform="translate(310.33 2747.45)"/><path class="cls-36" d="M3919.52,492.79" transform="translate(310.33 2747.45)"/><path class="cls-51" d="M3882.73,389.22c5.56-1.1,61.59,6.9,65.58,8.23s65.8-12.54,65.8-12.54l-6.6,21.5-58.36,10.35-61.75-9.08-4.67-18.46" transform="translate(310.33 2747.45)"/><path class="cls-25" d="M4836.15,419.09c-5.48-3.57-8-.62-13.73,2.52-9.75,5.35-15.84,23.72-26.68,26.21-3.85.89-12.67-15.06-13.7-21.31-1.53-9.33,2.52-27.52-8.4-36.86-9.24-7.9-21.44-3.68-25.45-16.29-7-22,13.45-38.49,23.4-42.35,15.17-5.88,37.14-5.09,43.52-14.23l.94-27.7.69-20.19,18.32-.8h2.18l18.32.8.68,20.19.95,27.7c6.38,9.14,28.35,8.35,43.52,14.23,9.95,3.86,30.39,20.37,23.4,42.35-4,12.61-16.22,8.39-25.46,16.29-10.91,9.34-6.86,27.53-8.4,36.86-1,6.25-9.85,22.2-13.7,21.31-10.84-2.49-16.92-20.86-26.68-26.21-5.74-3.14-8.24-6.09-13.72-2.52" transform="translate(310.33 2747.45)"/><path class="cls-26" d="M4815.66,317.1s31.77,11.39,41.17-10.81l-1.27-37.4h-38.82Z" transform="translate(310.33 2747.45)"/><path class="cls-36" d="M4710.26,324.53" transform="translate(310.33 2747.45)"/><path class="cls-36" d="M4710.26,324.53" transform="translate(310.33 2747.45)"/><path class="cls-36" d="M4710.26,324.53" transform="translate(310.33 2747.45)"/><path class="cls-36" d="M4710.26,324.53" transform="translate(310.33 2747.45)"/><path class="cls-36" d="M4710.26,324.53" transform="translate(310.33 2747.45)"/><path class="cls-36" d="M4710.26,324.53" transform="translate(310.33 2747.45)"/><path class="cls-25" d="M4798,354c-17.5,22.72-64.1,60.87-76.1,71.36-5.66,4.94-20.62,14.3-28.08,5.42h0c-9.11-11.92.34-24.05,5.35-29.34,10.18-10.74,32.79-30.28,41.1-42.56,6.19-9.15,10.4-19.44,27-26.34,0,0,16.55-8,26.42.62,6.35,5.51,7.32,12.3,4.35,20.84Z" transform="translate(310.33 2747.45)"/><path class="cls-25" d="M4702.58,426.72c14.88,2.34,17-9.08,18.74-15.12,1.9-6.52,6-72.65,7.5-90.57.86-10.12,1.6-15.48-4.35-16.56-5.41-1-9.74,8.54-10.93,12.46-11.44,37.66-14.43,46.38-22.92,92C4687.15,427.6,4698.78,426.12,4702.58,426.72Z" transform="translate(310.33 2747.45)"/><path class="cls-36" d="M4714.65,293.59" transform="translate(310.33 2747.45)"/><path class="cls-36" d="M4958.28,518" transform="translate(310.33 2747.45)"/><path class="cls-36" d="M4958.28,518" transform="translate(310.33 2747.45)"/><path class="cls-36" d="M4958.28,518" transform="translate(310.33 2747.45)"/><path class="cls-36" d="M4958.28,518" transform="translate(310.33 2747.45)"/><path class="cls-36" d="M4958.28,518" transform="translate(310.33 2747.45)"/><path class="cls-36" d="M4958.28,518" transform="translate(310.33 2747.45)"/><path class="cls-36" d="M4997.42,475.06" transform="translate(310.33 2747.45)"/><path class="cls-29" d="M4921.79,333.71" transform="translate(310.33 2747.45)"/><path class="cls-29" d="M4816.47,552" transform="translate(310.33 2747.45)"/><g class="cls-52"><path class="cls-31" d="M4900.81,309.74" transform="translate(310.33 2747.45)"/></g><g class="cls-53"><path class="cls-31" d="M4772.61,309.74" transform="translate(310.33 2747.45)"/></g><path class="cls-29" d="M4921.79,333.71" transform="translate(310.33 2747.45)"/><path class="cls-29" d="M4816.47,552" transform="translate(310.33 2747.45)"/><path class="cls-25" d="M4727.72,322.22s11.08-5.36,12.52-7,8.39-10.19,9.76-11.25,11.19-5.75,10.39-6.77c-.32-.41-1.08-1.21-1.88-2a5.6,5.6,0,0,0-5.82-1.39l-2.53.86a13.52,13.52,0,0,0-5,3.06l-5.52,5.32,2.29-16.39,6.81-19.75a3.17,3.17,0,0,0-1.41-3.79h0a3.18,3.18,0,0,0-4.55,1.56l-8.45,21.05,3.15-26a3.53,3.53,0,0,0-3.08-3.92h0a3.52,3.52,0,0,0-3.92,3.08l-3.37,27.83-1.41-26.78a3.49,3.49,0,0,0-3.85-3.29h0a3.5,3.5,0,0,0-3.12,3.54l.5,25.27-4.45-15.92a3.4,3.4,0,0,0-4.54-2.23h0a3.39,3.39,0,0,0-2.08,3.69l2.92,18.1-1.43,24.72,2.88,6.63Z" transform="translate(310.33 2747.45)"/><path class="cls-25" d="M4879.84,349.73c1.65,19.75,14.8,24.07,21.91,30.49,11.3,10.2,24.35,37.38,33.24,49.3,4.2,5.61,16.23,17.23,25.69,11.22h0c11.83-8.27,3.6-23.7.13-29.46-7.08-11.72-31.61-63.28-45.82-73.12,0,0-13.93-10.77-25.64-5.58-7.53,3.33-10.19,9-9.51,17.15Z" transform="translate(310.33 2747.45)"/><path class="cls-25" d="M4960.58,417.7c-9.67-5.69-16.72,2.7-21.81,10.75-3.62,5.74-33.1,64.95-41.32,80.94-4.64,9-7.35,13.72-2.26,17,4.63,3,13.8-5,16.36-8.2,26.94-33.71,44.95-48.33,54.61-75.6C4972.5,424.67,4963.9,419.65,4960.58,417.7Z" transform="translate(310.33 2747.45)"/><path class="cls-54" d="M4727.57,337.52s-19-4.36-21,2.38S4685.2,427,4685.2,427s16,17.49,21.19,15.39,58.89-54.9,62.43-52.47,14,58.11,14.29,61.51,2.58,34.11,2.58,34.11h99.69s.68-37.42.85-40.23S4901.91,383,4905,386.79,4935.73,434,4935.73,434l-31.62,58.79,19.18,14.1,42.12-49.25,7.61-26.26-54.87-95.24-24.7-9.41-39.17-10.38s-13.31,17.36-42.09,0h0l-51.76,14.81-35.37,41.37,2.51-35" transform="translate(310.33 2747.45)"/><path class="cls-54" d="M4778,488.46h0c0-6.46,6.92-13.4,6.06-24.92H4885.8c-.22,11.52,7.52,18.46,7.52,24.92h0a11.71,11.71,0,0,1-11.71,11.71h-91.9A11.71,11.71,0,0,1,4778,488.46Z" transform="translate(310.33 2747.45)"/><path class="cls-25" d="M5522.27,458.08" transform="translate(310.33 2747.45)"/><path class="cls-25" d="M5522.27,458.08" transform="translate(310.33 2747.45)"/><path class="cls-25" d="M5522.27,458.08" transform="translate(310.33 2747.45)"/><path class="cls-25" d="M5522.27,458.08" transform="translate(310.33 2747.45)"/><path class="cls-25" d="M5522.27,458.08" transform="translate(310.33 2747.45)"/><path class="cls-25" d="M5522.27,458.08" transform="translate(310.33 2747.45)"/><path class="cls-25" d="M5686.1,349c-4.3,21.54-18,24.69-25.91,30.89-12.62,9.84-29.26,38.17-39.71,50.2-4.93,5.67-18.47,17-27.07,9.21h0c-10.66-10.56-2.95-23.87,1.28-29.79,8.62-12,28.34-34.49,34.89-47.78,4.88-9.91,7.65-20.68,23.11-29.78,0,0,15.3-10.16,26.26-3,7,4.6,8.93,11.19,7.15,20.06Z" transform="translate(310.33 2747.45)"/><path class="cls-25" d="M5616.36,424.14c-3.9-14.54-15.19-11.82-21.43-11-6.72.91-68.8,24.06-85.8,29.94-9.6,3.32-14.79,4.84-13.37,10.71,1.31,5.34,11.74,5,15.83,4.92,38.52-.84,67.55-3.41,93.38-16.45C5621.92,433.74,5617.36,427.86,5616.36,424.14Z" transform="translate(310.33 2747.45)"/><path class="cls-25" d="M5454.28,487.79" transform="translate(310.33 2747.45)"/><path class="cls-25" d="M5454.28,487.79" transform="translate(310.33 2747.45)"/><path class="cls-25" d="M5454.28,487.79" transform="translate(310.33 2747.45)"/><path class="cls-25" d="M5454.28,487.79" transform="translate(310.33 2747.45)"/><path class="cls-25" d="M5454.28,487.79" transform="translate(310.33 2747.45)"/><path class="cls-25" d="M5454.28,487.79" transform="translate(310.33 2747.45)"/><path class="cls-25" d="M5469.3,443.32c-7.6,4.14-19.14,9.26-19.14,9.26s5.85,4.62,8.28,4.9c2,.23,10.47-4,10.47-4l8.08,2.61c-3.19,4.53-3.82,6.8-8,11.86-3.23,3.9-13.27,10-18.12,12-2.64,1.08-9,.86-11.23,2.57-1.57,1.22-2.9,7.09-2.9,7.09l15.09-.87s20.64-7.26,27.21-10.3c7-3.24,20.41-11.28,25.75-16.6,1.72-1.71,5-5.13,3.87-10.08-1-4.26-5.44-5.83-8.31-6.66C5495.9,443.89,5469.63,443.14,5469.3,443.32Z" transform="translate(310.33 2747.45)"/><path class="cls-25" d="M5489.52,470.06" transform="translate(310.33 2747.45)"/><path class="cls-25" d="M5928,463.08" transform="translate(310.33 2747.45)"/><path class="cls-25" d="M5928,463.08" transform="translate(310.33 2747.45)"/><path class="cls-25" d="M5928,463.08" transform="translate(310.33 2747.45)"/><path class="cls-25" d="M5928,463.08" transform="translate(310.33 2747.45)"/><path class="cls-25" d="M5928,463.08" transform="translate(310.33 2747.45)"/><path class="cls-25" d="M5928,463.08" transform="translate(310.33 2747.45)"/><path class="cls-25" d="M5764.19,354c4.31,21.54,18,24.69,25.92,30.89,12.61,9.84,29.26,38.17,39.71,50.2,4.93,5.67,18.47,17,27.07,9.21h0c10.65-10.56,2.95-23.87-1.29-29.79-8.61-12-28.33-34.49-34.89-47.78-4.88-9.91-7.64-20.68-23.1-29.78,0,0-15.31-10.16-26.26-3-7.05,4.6-8.93,11.19-7.16,20.06Z" transform="translate(310.33 2747.45)"/><path class="cls-25" d="M5833.93,429.14c3.91-14.54,15.19-11.82,21.43-11,6.73.91,68.81,24.06,85.8,29.94,9.6,3.32,14.8,4.84,13.37,10.71-1.3,5.34-11.73,5-15.83,4.92-38.52-.84-67.55-3.41-93.37-16.45C5828.37,438.74,5832.94,432.86,5833.93,429.14Z" transform="translate(310.33 2747.45)"/><path class="cls-25" d="M5996,492.79" transform="translate(310.33 2747.45)"/><path class="cls-25" d="M5996,492.79" transform="translate(310.33 2747.45)"/><path class="cls-25" d="M5996,492.79" transform="translate(310.33 2747.45)"/><path class="cls-25" d="M5996,492.79" transform="translate(310.33 2747.45)"/><path class="cls-25" d="M5996,492.79" transform="translate(310.33 2747.45)"/><path class="cls-25" d="M5996,492.79" transform="translate(310.33 2747.45)"/><path class="cls-25" d="M5981,448.32c7.59,4.14,19.14,9.26,19.14,9.26s-5.85,4.62-8.28,4.9c-2,.23-10.47-4-10.47-4l-8.09,2.61c3.2,4.53,3.83,6.8,8,11.86,3.22,3.9,13.26,10,18.12,12,2.64,1.08,9,.86,11.22,2.57,1.57,1.22,2.9,7.09,2.9,7.09l-15.09-.87s-20.63-7.26-27.2-10.3c-7-3.24-20.42-11.28-25.75-16.6-1.72-1.71-5.05-5.13-3.87-10.08,1-4.26,5.43-5.83,8.3-6.66C5954.4,448.89,5980.67,448.14,5981,448.32Z" transform="translate(310.33 2747.45)"/><path class="cls-25" d="M5960.78,475.06" transform="translate(310.33 2747.45)"/><path class="cls-28" d="M5773.22,270.58" transform="translate(310.33 2747.45)"/><path class="cls-29" d="M5809.79,333.71" transform="translate(310.33 2747.45)"/><path class="cls-29" d="M5704.47,552" transform="translate(310.33 2747.45)"/><g class="cls-55"><path class="cls-31" d="M5788.81,309.74" transform="translate(310.33 2747.45)"/></g><g class="cls-56"><path class="cls-31" d="M5660.61,309.74" transform="translate(310.33 2747.45)"/></g><path class="cls-28" d="M5773.22,270.58" transform="translate(310.33 2747.45)"/><path class="cls-29" d="M5809.79,333.71" transform="translate(310.33 2747.45)"/><path class="cls-29" d="M5704.47,552" transform="translate(310.33 2747.45)"/><path class="cls-25" d="M5725.15,419c-5.48-3.57-8-.63-13.73,2.52-9.75,5.34-15.84,23.72-26.68,26.21-3.85.89-12.67-15.07-13.7-21.32-1.53-9.32,2.52-27.51-8.4-36.85-9.24-7.91-21.44-3.68-25.45-16.3-7-22,13.45-38.48,23.4-42.34,15.17-5.88,37.14-5.1,43.52-14.23l.94-27.7.69-20.19,18.32-.81h2.18l18.32.81.68,20.19.95,27.7c6.38,9.13,28.35,8.35,43.52,14.23,9.95,3.86,30.39,20.37,23.4,42.34-4,12.62-16.22,8.39-25.46,16.3-10.91,9.34-6.86,27.53-8.4,36.85-1,6.25-9.85,22.21-13.7,21.32-10.84-2.49-16.92-20.87-26.68-26.21-5.74-3.15-8.24-6.09-13.72-2.52" transform="translate(310.33 2747.45)"/><path class="cls-26" d="M5704.66,317s31.77,11.4,41.17-10.81l-1.27-37.39h-38.82Z" transform="translate(310.33 2747.45)"/><path class="cls-57" d="M5655.54,536.69s10.65-53.36,10.46-59.93c-.15-5.06-7.27-87.54-7.27-87.54s137.74-8.63,131.38-4.31-9.07,73.17-9.07,73.17l7.77,76.57L5726.08,552" transform="translate(310.33 2747.45)"/><path class="cls-58" d="M5588.94,373.39c9.48-6.17,68.67-47.73,68.67-47.73l138.29.83,67.31,46.9s-66.91,34-106.73,39.09-66-1.07-77.43-1.58S5588.94,373.39,5588.94,373.39Z" transform="translate(310.33 2747.45)"/><path class="cls-50" d="M6453.57,606.53" transform="translate(310.33 2747.45)"/><path class="cls-50" d="M6625.15,612.6" transform="translate(310.33 2747.45)"/><path class="cls-28" d="M6330.27,463.08" transform="translate(310.33 2747.45)"/><path class="cls-28" d="M6330.27,463.08" transform="translate(310.33 2747.45)"/><path class="cls-28" d="M6330.27,463.08" transform="translate(310.33 2747.45)"/><path class="cls-28" d="M6330.27,463.08" transform="translate(310.33 2747.45)"/><path class="cls-28" d="M6330.27,463.08" transform="translate(310.33 2747.45)"/><path class="cls-28" d="M6330.27,463.08" transform="translate(310.33 2747.45)"/><path class="cls-28" d="M6297.52,475.06" transform="translate(310.33 2747.45)"/><path class="cls-25" d="M6639.7,355.8" transform="translate(310.33 2747.45)"/><path class="cls-25" d="M6639.7,355.8" transform="translate(310.33 2747.45)"/><path class="cls-25" d="M6639.7,355.8" transform="translate(310.33 2747.45)"/><path class="cls-25" d="M6639.7,355.8" transform="translate(310.33 2747.45)"/><path class="cls-25" d="M6639.7,355.8" transform="translate(310.33 2747.45)"/><path class="cls-25" d="M6639.7,355.8" transform="translate(310.33 2747.45)"/><path class="cls-25" d="M6484.28,341.38c8.38,17.95-.87,28.24-3.85,37.35-4.73,14.47-2.53,44.53-4.32,59.3-.84,7-5.5,23-16.7,22.51h0c-14.37-1.29-14.92-18.77-14.77-25.5.31-13.69-4-70.62,3.39-86.22,0,0,6.72-16.27,19.46-17.6,8.19-.85,13.33,2.76,16.79,10.16Z" transform="translate(310.33 2747.45)"/><path class="cls-25" d="M6463,460.55c-10.64,3.53-15.78-6.15-19.06-15.09-2.34-6.38-18.72-70.45-23.4-87.81-2.65-9.81-4.31-15,1.35-17.08,5.15-1.92,10.73,6.9,13,10.34,20.93,32.34,35.11,57.8,38.83,86.49C6476.15,456.24,6466.69,459.34,6463,460.55Z" transform="translate(310.33 2747.45)"/><path class="cls-25" d="M6369.78,302.33" transform="translate(310.33 2747.45)"/><path class="cls-25" d="M6369.78,302.33" transform="translate(310.33 2747.45)"/><path class="cls-25" d="M6369.78,302.33" transform="translate(310.33 2747.45)"/><path class="cls-25" d="M6369.78,302.33" transform="translate(310.33 2747.45)"/><path class="cls-25" d="M6369.78,302.33" transform="translate(310.33 2747.45)"/><path class="cls-25" d="M6369.78,302.33" transform="translate(310.33 2747.45)"/><path class="cls-25" d="M6416.88,311.22a82.3,82.3,0,0,1-9.78-12.87s-2.29,4.38-2,7c.27,2.14,5.49,11.23,5.49,11.23h0c-25.27-14.13-45.42-21.21-48.36-21.94-2.08-.51-7.94,2.3-7.94,2.3s23.94,14.25,30.39,18.67c22,15.05,27.24,23.06,34,36.3,1.19,2.33,15.07-.19,13-5.29-.72-1.78.47-12-1.29-14.73C6423.44,321.07,6417.15,311.52,6416.88,311.22Z" transform="translate(310.33 2747.45)"/><path class="cls-25" d="M6578.15,341c-8.38,17.95.87,28.24,3.85,37.36,4.73,14.46,2.53,44.53,4.32,59.29.84,7,5.5,23,16.7,22.52h0c14.38-1.3,14.92-18.78,14.77-25.5-.31-13.69,4.05-70.62-3.39-86.23,0,0-6.71-16.26-19.46-17.59-8.19-.85-13.33,2.76-16.79,10.15Z" transform="translate(310.33 2747.45)"/><path class="cls-25" d="M6599.4,460.15c10.64,3.53,15.78-6.16,19.06-15.1,2.34-6.37,18.72-70.44,23.4-87.8,2.65-9.81,4.32-15-1.35-17.08-5.15-1.92-10.73,6.89-13,10.33-20.93,32.35-35.11,57.81-38.83,86.5C6586.28,455.83,6595.74,458.94,6599.4,460.15Z" transform="translate(310.33 2747.45)"/><path class="cls-25" d="M6692.65,301.93" transform="translate(310.33 2747.45)"/><path class="cls-25" d="M6692.65,301.93" transform="translate(310.33 2747.45)"/><path class="cls-25" d="M6692.65,301.93" transform="translate(310.33 2747.45)"/><path class="cls-25" d="M6692.65,301.93" transform="translate(310.33 2747.45)"/><path class="cls-25" d="M6692.65,301.93" transform="translate(310.33 2747.45)"/><path class="cls-25" d="M6692.65,301.93" transform="translate(310.33 2747.45)"/><path class="cls-25" d="M6645.56,310.82a82.33,82.33,0,0,0,9.77-12.87s2.29,4.38,2,7c-.28,2.14-5.49,11.23-5.49,11.23h0c25.26-14.13,45.41-21.22,48.35-21.94,2.08-.52,7.94,2.3,7.94,2.3s-23.93,14.25-30.39,18.67c-21.95,15-27.24,23.06-34,36.3-1.19,2.33-15.07-.2-13-5.29.73-1.79-.46-12,1.29-14.73C6639,320.67,6645.28,311.12,6645.56,310.82Z" transform="translate(310.33 2747.45)"/><path class="cls-28" d="M6646.67,321.63" transform="translate(310.33 2747.45)"/><path class="cls-25" d="M6617.79,333.71" transform="translate(310.33 2747.45)"/><path class="cls-59" d="M6512.47,552" transform="translate(310.33 2747.45)"/><path class="cls-50" d="M6453.57,606.53" transform="translate(310.33 2747.45)"/><path class="cls-50" d="M6625.15,612.6" transform="translate(310.33 2747.45)"/><g class="cls-60"><path class="cls-31" d="M6596.81,309.74" transform="translate(310.33 2747.45)"/></g><g class="cls-61"><path class="cls-31" d="M6468.61,309.74" transform="translate(310.33 2747.45)"/></g><path class="cls-25" d="M6617.79,333.71" transform="translate(310.33 2747.45)"/><path class="cls-59" d="M6512.47,552" transform="translate(310.33 2747.45)"/><path class="cls-62" d="M6455.3,333.71c.06,0,17.38,27.66,20.81,104.32.77,17.12-4.45,87-4.45,87L6594,519.26s-9.15-65.77-8-84.92c4.31-73.75,19.26-101.8,19.26-101.8l-52.51-18.15-9.29,27.09-18.4,1.62-13.82-27.4-55.95,18h0" transform="translate(310.33 2747.45)"/><path class="cls-25" d="M7342.15,416.25c-5.48-3.57-8-.63-13.73,2.52-9.75,5.34-15.84,23.72-26.68,26.21-3.85.89-12.67-15.07-13.7-21.32-1.53-9.32,2.52-27.51-8.4-36.85-9.24-7.91-21.44-3.68-25.45-16.3-7-22,13.45-38.48,23.4-42.34,15.17-5.88,37.14-5.1,43.52-14.23l.94-27.7.69-20.19,18.32-.81h2.18l18.32.81.68,20.19.95,27.7c6.38,9.13,28.35,8.35,43.52,14.23,9.95,3.86,30.39,20.37,23.4,42.34-4,12.62-16.22,8.39-25.46,16.3-10.91,9.34-6.86,27.53-8.4,36.85-1,6.25-9.85,22.21-13.7,21.32-10.84-2.49-16.92-20.87-26.68-26.21-5.74-3.15-8.24-6.09-13.72-2.52" transform="translate(310.33 2747.45)"/><path class="cls-26" d="M7321.66,314.25s31.77,11.4,41.17-10.81l-1.27-37.39h-38.82Z" transform="translate(310.33 2747.45)"/><path class="cls-27" d="M7261.57,606.53" transform="translate(310.33 2747.45)"/><path class="cls-36" d="M7138.27,463.08" transform="translate(310.33 2747.45)"/><path class="cls-36" d="M7138.27,463.08" transform="translate(310.33 2747.45)"/><path class="cls-36" d="M7138.27,463.08" transform="translate(310.33 2747.45)"/><path class="cls-36" d="M7138.27,463.08" transform="translate(310.33 2747.45)"/><path class="cls-36" d="M7138.27,463.08" transform="translate(310.33 2747.45)"/><path class="cls-36" d="M7138.27,463.08" transform="translate(310.33 2747.45)"/><path class="cls-36" d="M7447.7,355.8" transform="translate(310.33 2747.45)"/><path class="cls-36" d="M7447.7,355.8" transform="translate(310.33 2747.45)"/><path class="cls-36" d="M7447.7,355.8" transform="translate(310.33 2747.45)"/><path class="cls-36" d="M7447.7,355.8" transform="translate(310.33 2747.45)"/><path class="cls-36" d="M7447.7,355.8" transform="translate(310.33 2747.45)"/><path class="cls-36" d="M7447.7,355.8" transform="translate(310.33 2747.45)"/><path class="cls-25" d="M7173.79,301.93" transform="translate(310.33 2747.45)"/><path class="cls-25" d="M7173.79,301.93" transform="translate(310.33 2747.45)"/><path class="cls-25" d="M7173.79,301.93" transform="translate(310.33 2747.45)"/><path class="cls-25" d="M7173.79,301.93" transform="translate(310.33 2747.45)"/><path class="cls-25" d="M7173.79,301.93" transform="translate(310.33 2747.45)"/><path class="cls-25" d="M7173.79,301.93" transform="translate(310.33 2747.45)"/><path class="cls-25" d="M7298.56,344.4c.21,19.81-12.48,25.35-19,32.41-10.29,11.22-20.73,39.5-28.47,52.2-3.64,6-14.53,18.68-24.52,13.58h0c-12.55-7.12-5.81-23.26-2.89-29.32,5.95-12.33,25.54-66,38.76-77.1,0,0,12.85-12,25-8,7.81,2.61,11,8,11.08,16.19Z" transform="translate(310.33 2747.45)"/><path class="cls-25" d="M7222.87,425.55c5.16-10.45,15.62-6.66,24.23-2.11,6.14,3.24,62.75,41,78.26,51.1,8.76,5.69,13.56,8.47,11,14.22-2.34,5.22-12.52,2.43-16.53,1.38-37.65-9.91-65.64-19.37-88.39-38.91C7216.48,438.4,7221.09,429.14,7222.87,425.55Z" transform="translate(310.33 2747.45)"/><path class="cls-25" d="M7386.15,341c-8.38,17.95.87,28.24,3.85,37.36,4.73,14.46,2.53,44.53,4.32,59.29.84,7,5.5,23,16.7,22.52h0c14.38-1.3,14.92-18.78,14.77-25.5-.31-13.69,4.05-70.62-3.39-86.23,0,0-6.71-16.26-19.46-17.59-8.19-.85-13.33,2.76-16.79,10.15Z" transform="translate(310.33 2747.45)"/><path class="cls-25" d="M7407.4,460.15c10.64,3.53,15.78-6.16,19.06-15.1,2.34-6.37,18.72-70.44,23.4-87.8,2.65-9.81,4.32-15-1.35-17.08-5.15-1.92-10.73,6.89-13,10.33-20.93,32.35-35.11,57.81-38.83,86.5C7394.28,455.83,7403.74,458.94,7407.4,460.15Z" transform="translate(310.33 2747.45)"/><path class="cls-25" d="M7500.65,301.93" transform="translate(310.33 2747.45)"/><path class="cls-25" d="M7500.65,301.93" transform="translate(310.33 2747.45)"/><path class="cls-25" d="M7500.65,301.93" transform="translate(310.33 2747.45)"/><path class="cls-25" d="M7500.65,301.93" transform="translate(310.33 2747.45)"/><path class="cls-25" d="M7500.65,301.93" transform="translate(310.33 2747.45)"/><path class="cls-25" d="M7500.65,301.93" transform="translate(310.33 2747.45)"/><path class="cls-25" d="M7453.56,310.82a82.33,82.33,0,0,0,9.77-12.87s2.29,4.38,2,7c-.28,2.14-5.49,11.23-5.49,11.23h0c25.26-14.13,45.41-21.22,48.35-21.94,2.08-.52,7.94,2.3,7.94,2.3s-23.93,14.25-30.39,18.67c-21.95,15-27.24,23.06-34,36.3-1.19,2.33-15.07-.2-13-5.29.73-1.79-.46-12,1.29-14.73C7447,320.67,7453.28,311.12,7453.56,310.82Z" transform="translate(310.33 2747.45)"/><path class="cls-25" d="M7454.67,321.63" transform="translate(310.33 2747.45)"/><path class="cls-25" d="M7389.22,270.58" transform="translate(310.33 2747.45)"/><path class="cls-25" d="M7425.79,333.71" transform="translate(310.33 2747.45)"/><path class="cls-27" d="M7261.57,606.53" transform="translate(310.33 2747.45)"/><g class="cls-63"><path class="cls-31" d="M7404.81,309.74" transform="translate(310.33 2747.45)"/></g><g class="cls-64"><path class="cls-31" d="M7276.61,309.74" transform="translate(310.33 2747.45)"/></g><path class="cls-25" d="M7389.22,270.58" transform="translate(310.33 2747.45)"/><path class="cls-25" d="M7425.79,333.71" transform="translate(310.33 2747.45)"/><path class="cls-65" d="M7298.81,321.63c7.88,4.25,44.22,41.24,44.22,41.24l43.26-41.24,18.46,3.64s-7.89,101.94-8,111.73,1.6,63.17,1.6,63.17H7283l-3.36-113.36L7277.48,325Z" transform="translate(310.33 2747.45)"/><rect class="cls-66" x="7593.33" y="3224.2" width="115.32" height="23.41"/><rect class="cls-54" x="7593.33" y="3224.2" width="115.32" height="23.41"/><path class="cls-25" d="M8150.15,418.38c-5.48-3.57-8-.63-13.73,2.52-9.75,5.34-15.84,23.72-26.68,26.21-3.85.89-12.67-15.07-13.7-21.32-1.53-9.32,2.52-27.51-8.4-36.85-9.24-7.91-21.44-3.68-25.45-16.3-7-22,13.45-38.48,23.4-42.34,15.17-5.88,37.14-5.1,43.52-14.23l.94-27.7.69-20.19,18.32-.81h2.18l18.32.81.68,20.19.95,27.7c6.38,9.13,28.35,8.35,43.52,14.23,10,3.86,30.39,20.37,23.4,42.34-4,12.62-16.22,8.39-25.46,16.3-10.91,9.34-6.86,27.53-8.4,36.85-1,6.25-9.85,22.21-13.7,21.32-10.84-2.49-16.92-20.87-26.68-26.21-5.74-3.15-8.24-6.09-13.72-2.52" transform="translate(310.33 2747.45)"/><path class="cls-26" d="M8129.11,316.07s32.32,11.71,41.72-10.49l-1.27-37.4h-38.82Z" transform="translate(310.33 2747.45)"/><path class="cls-25" d="M8338.36,374.51c.26-2.54,8.11-17.2,9-19.16s19-12.51,19.73-11.58-1,6.18-1,6.18l-5.91,4.58,18.18-5s23.15-8.72,22.84-7.38a59.24,59.24,0,0,0-.33,6.64l-19.37,9.54-6.39,15.88s-23,10-26.12,9.64c-.95-.12-5.29,1.72-6.68-1.31C8341.42,380.56,8338.36,374.51,8338.36,374.51Z" transform="translate(310.33 2747.45)"/><path class="cls-25" d="M8192.91,501.29c6.52-28,3.46-111.18,1.68-120.54-7.88-41.37-84.82-40.92-92.71.52-3.66,19.25-4.08,92.24,2.55,120" transform="translate(310.33 2747.45)"/><path class="cls-25" d="M8255.7,355.8" transform="translate(310.33 2747.45)"/><path class="cls-25" d="M8255.7,355.8" transform="translate(310.33 2747.45)"/><path class="cls-25" d="M8255.7,355.8" transform="translate(310.33 2747.45)"/><path class="cls-25" d="M8255.7,355.8" transform="translate(310.33 2747.45)"/><path class="cls-25" d="M8255.7,355.8" transform="translate(310.33 2747.45)"/><path class="cls-25" d="M8255.7,355.8" transform="translate(310.33 2747.45)"/><path class="cls-25" d="M8098.42,345.1c3.23,19.55-8.46,27-13.78,34.93-8.46,12.66-14.46,42.2-20.17,55.93-2.68,6.48-11.51,20.69-22.15,17.18h0C8028.83,448,8033,431,8035,424.6c4-13.1,13.83-70.39,26.53-82.11,6.45-6,20.12-14.93,32.75-12.76,8.12,1.39,2.83,7.32,4.16,15.37Z" transform="translate(310.33 2747.45)"/><path class="cls-25" d="M7981.79,301.93" transform="translate(310.33 2747.45)"/><path class="cls-25" d="M7981.79,301.93" transform="translate(310.33 2747.45)"/><path class="cls-25" d="M7981.79,301.93" transform="translate(310.33 2747.45)"/><path class="cls-25" d="M7981.79,301.93" transform="translate(310.33 2747.45)"/><path class="cls-25" d="M7981.79,301.93" transform="translate(310.33 2747.45)"/><path class="cls-25" d="M7981.79,301.93" transform="translate(310.33 2747.45)"/><path class="cls-25" d="M8189.87,349.14c2.67,19.64,16,23.28,23.46,29.33,11.8,9.61,26.23,36.08,35.72,47.52,4.48,5.4,17.09,16.38,26.23,9.9h0c11.39-8.87,2.38-23.86-1.39-29.44-7.66-11.34-34.81-61.57-49.51-70.67,0,0-14.45-10-25.89-4.26-7.35,3.72-9.71,9.53-8.62,17.62Z" transform="translate(310.33 2747.45)"/><path class="cls-25" d="M8261.29,431.59c5.9,9.54,16,5.41,24.31.66,5.88-3.38,56.07-43.57,70.8-53.88,8.33-5.82,6.38-7.77,3.4-13-2.72-4.79-18.55,5.16-22.17,7.09C8300.74,392.13,8292.7,390,8268,407,8252.31,417.73,8259.26,428.32,8261.29,431.59Z" transform="translate(310.33 2747.45)"/><path class="cls-25" d="M8308.65,301.93" transform="translate(310.33 2747.45)"/><path class="cls-25" d="M8308.65,301.93" transform="translate(310.33 2747.45)"/><path class="cls-25" d="M8308.65,301.93" transform="translate(310.33 2747.45)"/><path class="cls-25" d="M8308.65,301.93" transform="translate(310.33 2747.45)"/><path class="cls-25" d="M8308.65,301.93" transform="translate(310.33 2747.45)"/><path class="cls-25" d="M8308.65,301.93" transform="translate(310.33 2747.45)"/><path class="cls-25" d="M8262.67,321.63" transform="translate(310.33 2747.45)"/><path class="cls-25" d="M8233.79,333.71" transform="translate(310.33 2747.45)"/><g class="cls-67"><path class="cls-31" d="M8212.81,309.74" transform="translate(310.33 2747.45)"/></g><g class="cls-68"><path class="cls-31" d="M8084.61,309.74" transform="translate(310.33 2747.45)"/></g><path class="cls-25" d="M8233.79,333.71" transform="translate(310.33 2747.45)"/><rect class="cls-54" x="8401.52" y="3226.19" width="115.32" height="23.41"/><path class="cls-69" d="M8091.19,328.48c-.33,5.78,0,64.53,0,64.53v70.07l2.31,27.37h107.67l5.34-26.91,3.25-79.3V328.66L8178,319.31s-24.67,13.41-27,13.41-21.92-16.65-21.92-16.65Z" transform="translate(310.33 2747.45)"/><path class="cls-70" d="M8032.35,440.92c-2.29-11,7.92-15,17.17-17.21,6.6-1.6,72.13-10.57,89.91-13.24,10-1.5,15.35-2.57,16.81,3.29,1.32,5.34-19.3,10.76-23.11,12.28-35.36,14.12-50.18,19.53-79,28.13C8035.94,459.6,8033.14,444.69,8032.35,440.92Z" transform="translate(310.33 2747.45)"/><path class="cls-70" d="M8126.57,413.64c4.77-2.51,13.85-12.64,15.09-14.27s16.91-9.72,17.48-8.78.75,4.45.75,4.45l-8.85,7.4,22.06-4.05s13.95-2.89,18.49-2.22c1.26.18-.87,4.54-.87,4.54l-20.76,8-6.37,13.25a12.33,12.33,0,0,1-10.8,7c-5.16.13-11.34.18-13-.26-.9-.23-7.39-1.55-8.17-4.44C8131.1,422.36,8126.57,413.64,8126.57,413.64Z" transform="translate(310.33 2747.45)"/><rect class="cls-54" x="8401.33" y="3224.2" width="115.32" height="23.41"/><path class="cls-25" d="M8985.12,339.25c0,19.81,12.9,25.22,19.53,32.21,10.53,11.1,21.42,39.27,29.38,51.89,3.76,5.94,14.9,18.53,24.92,13.32h0c12.57-7.26,5.57-23.33,2.55-29.36-6.15-12.27-26.59-65.68-40.08-76.68,0,0-13.11-11.89-25.33-7.69-7.84,2.7-11,8.15-11,16.31Z" transform="translate(310.33 2747.45)"/><path class="cls-25" d="M8958.15,418.61c-5.48-3.57-8-.62-13.73,2.52-9.75,5.35-15.84,23.72-26.68,26.21-3.85.89-1-16.3-2-22.55-1.54-9.33-9.17-26.28-20.09-35.62-9.24-7.9-14.06-3.57-18.07-16.18-7-22,6.07-38.6,16-42.46,15.17-5.88,37.14-5.09,43.52-14.23l.94-27.7.69-20.19,18.32-.8h2.18l18.32.8.68,20.19,1,27.7c6.38,9.14,36,3.72,48.27,14.4,2.63,2.28,15.78,17.35,43.46,91.08,4.65,12.39-41-40.51-50.27-32.61-10.91,9.34-6.86,27.53-8.4,36.86-1,6.25-9.85,22.2-13.7,21.31-10.84-2.49-16.92-20.86-26.68-26.21-5.74-3.14-8.24-6.09-13.72-2.52" transform="translate(310.33 2747.45)"/><path class="cls-26" d="M8934.9,322s36.71,44.44,46.11,22.24l-3.45-75.87h-38.82Z" transform="translate(310.33 2747.45)"/><path class="cls-71" d="M9103.89,503.28" transform="translate(310.33 2747.45)"/><path class="cls-71" d="M9103.89,503.28" transform="translate(310.33 2747.45)"/><path class="cls-72" d="M9008.24,500.17c6.52-28,27.43-164.65,19.22-169.47-15.17-8.92-22.6-12.22-38-14.09-11.06-1.35-18.67,28-28.74,28.92-6.31.58-24-29.11-29.61-28a183.59,183.59,0,0,0-41.83,13.19c-3.66,19.24,7.2,144.8,13.83,172.58" transform="translate(310.33 2747.45)"/><path class="cls-36" d="M8754.27,463.08" transform="translate(310.33 2747.45)"/><path class="cls-36" d="M8754.27,463.08" transform="translate(310.33 2747.45)"/><path class="cls-36" d="M8754.27,463.08" transform="translate(310.33 2747.45)"/><path class="cls-36" d="M8754.27,463.08" transform="translate(310.33 2747.45)"/><path class="cls-36" d="M8754.27,463.08" transform="translate(310.33 2747.45)"/><path class="cls-36" d="M8754.27,463.08" transform="translate(310.33 2747.45)"/><path class="cls-36" d="M8721.52,475.06" transform="translate(310.33 2747.45)"/><path class="cls-36" d="M9080.59,352.11" transform="translate(310.33 2747.45)"/><path class="cls-36" d="M9080.59,352.11" transform="translate(310.33 2747.45)"/><path class="cls-36" d="M9080.59,352.11" transform="translate(310.33 2747.45)"/><path class="cls-36" d="M9080.59,352.11" transform="translate(310.33 2747.45)"/><path class="cls-36" d="M9080.59,352.11" transform="translate(310.33 2747.45)"/><path class="cls-36" d="M9080.59,352.11" transform="translate(310.33 2747.45)"/><path class="cls-25" d="M9033.18,375.06" transform="translate(310.33 2747.45)"/><path class="cls-25" d="M9033.18,375.06" transform="translate(310.33 2747.45)"/><path class="cls-25" d="M9033.18,375.06" transform="translate(310.33 2747.45)"/><path class="cls-25" d="M9033.18,375.06" transform="translate(310.33 2747.45)"/><path class="cls-25" d="M9033.18,375.06" transform="translate(310.33 2747.45)"/><path class="cls-25" d="M9033.18,375.06" transform="translate(310.33 2747.45)"/><path class="cls-25" d="M8907.44,344.31c8.66,17.83-.44,28.25-3.28,37.41-4.51,14.54-1.87,44.57-3.43,59.36-.74,7-5.16,23.1-16.36,22.76h0c-14.39-1.08-15.2-18.55-15.15-25.28.1-13.69-.82-73.7,6.37-89.41,0,0,2.2-13.22,14.92-14.74,8.18-1,13.37,2.56,16.93,9.9Z" transform="translate(310.33 2747.45)"/><path class="cls-25" d="M8869.66,453.81c-.42-16.55,5.16-25.95,12.44-29.43,10.32-4.93,76.13-.6,93.84-3.72,10-1.76,15.28-3,16.88,2.86,1.46,5.31-7.82,10.08-11.44,12-34.08,18-60.7,29.83-89.61,31C8872.8,467.25,8869.76,457.65,8869.66,453.81Z" transform="translate(310.33 2747.45)"/><path class="cls-25" d="M9020.14,421.18a82.36,82.36,0,0,1,13.69-8.59s-4.16-2.68-6.8-2.57c-2.15.08-11.67,4.47-11.67,4.47h0c16.32-23.91,25.17-43.35,26.15-46.21.7-2-1.59-8.12-1.59-8.12s-16.32,22.58-21.3,28.61c-16.93,20.53-25.38,25.08-39.17,30.66-2.43,1-1.15,15,4.11,13.42,1.84-.57,11.93,1.53,14.79,0C9009.75,426.84,9019.82,421.42,9020.14,421.18Z" transform="translate(310.33 2747.45)"/><path class="cls-36" d="M9070.67,321.63" transform="translate(310.33 2747.45)"/><path class="cls-29" d="M9041.79,333.71" transform="translate(310.33 2747.45)"/><g class="cls-73"><path class="cls-31" d="M9020.81,309.74" transform="translate(310.33 2747.45)"/></g><g class="cls-74"><path class="cls-31" d="M8892.61,309.74" transform="translate(310.33 2747.45)"/></g><path class="cls-29" d="M9041.79,333.71" transform="translate(310.33 2747.45)"/><rect class="cls-75" x="9209.33" y="3224.2" width="109.24" height="23.41"/><path class="cls-25" d="M8953.86,306l14.34-1,20.41,4.74L9010,331.61s12.17,22.59,8.9,23.72c-5,1.75-17.88-11.28-21.43-12.56-5.73-2.07-12.21-10.39-12.21-10.39l-13.46-.65s-9.86,4.63-10.46,4.64c-5.27.08-13.53-10.15-13.53-10.15L8962,314.8l12.44.42-7.33-3.92s-7.37,1-8.16.65C8957.24,311.28,8953.86,306,8953.86,306Z" transform="translate(310.33 2747.45)"/><path class="cls-25" d="M9065.67,432.1c9.25-6.65,4.51-16.84-.76-25-3.75-5.84-45.76-58.68-57-73.2-6.35-8.2-9.52-12.74-14.63-9.34-4.66,3.08,4.27,15.48,6.14,19.24,19.67,39.62,20.11,62.33,41.09,83C9054.3,440.32,9062.5,434.39,9065.67,432.1Z" transform="translate(310.33 2747.45)"/><path class="cls-72" d="M8904.16,381.72s-.68-24.48-14.87-51l24.32-8.66L8941.05,371Z" transform="translate(310.33 2747.45)"/><polygon class="cls-72" points="9209.33 3247.61 9209.33 3216.89 9324.65 3210.53 9324.65 3247.61 9209.33 3247.61"/><path class="cls-25" d="M4081.6,434.27c-3.9-14.54-15.19-11.82-21.43-11-6.72.91-68.8,24.07-85.8,29.94-9.6,3.33-14.8,4.84-13.37,10.71,1.3,5.34,11.74,5,15.83,4.92,38.52-.84,67.55-3.41,93.38-16.44C4087.16,443.87,4082.6,438,4081.6,434.27Z" transform="translate(310.33 2747.45)"/><path class="cls-25" d="M3934.54,453.45c-7.6,4.14-19.14,9.26-19.14,9.26s5.85,4.62,8.28,4.9c2,.23,10.47-4,10.47-4l15.1,2.61c-3.2,4.54-10.84,6.8-15,11.87-3.23,3.89-13.27,10-18.12,12-2.64,1.09-9,.86-11.23,2.58-1.57,1.21-2.9,7.08-2.9,7.08l15.09-.87s20.63-7.25,27.21-10.29c7-3.25,20.41-11.29,25.75-16.61,1.71-1.71,5-5.13,3.87-10.08-1-4.26-5.44-5.83-8.31-6.66C3961.13,454,3934.87,453.27,3934.54,453.45Z" transform="translate(310.33 2747.45)"/><path class="cls-25" d="M4843.54,503.59l14.17-6.73,24.7-2.6,15.9,16.13,8.34-3s4.74,10.76,2.45,12.81c-3.5,3.14-7.81,6.91-11.05,6.82-5.24-.15-18.3-10.25-18.3-10.25l-11,3.53s-8.26,5.54-8.74,5.74c-4.21,1.68-15.13-7.74-15.13-7.74l10.86-10.57,10-5.87-7,1.09s-7.62,3.89-8.35,3.85C4848.83,506.74,4843.54,503.59,4843.54,503.59Z" transform="translate(310.33 2747.45)"/></g></svg>