<?xml version="1.0" encoding="utf-8"?>
<!-- Generator: Adobe Illustrator 26.0.1, SVG Export Plug-In . SVG Version: 6.00 Build 0)  -->
<svg version="1.1" id="Calque_9" xmlns="http://www.w3.org/2000/svg" xmlns:xlink="http://www.w3.org/1999/xlink" x="0px" y="0px"
	 viewBox="0 0 388 323.9" style="enable-background:new 0 0 388 323.9;" xml:space="preserve">
<style type="text/css">
	.st0{fill:#90573A;}
	.st1{fill:#6F412A;}
	.st2{fill:#92A331;}
	.st3{fill:#ABC638;}
</style>
<path class="st0" d="M155,134.4c-4.3,21.5-18,24.7-25.9,30.9c-12.6,9.8-29.3,38.2-39.7,50.2c-4.9,5.7-18.5,17-27.1,9.2l0,0
	c-10.7-10.6-3-23.9,1.3-29.8c8.6-12,28.3-34.5,34.9-47.8c4.9-9.9,7.6-20.7,23.1-29.8c0,0,15.3-10.2,26.3-3
	C154.9,119,156.8,125.6,155,134.4L155,134.4z"/>
<path class="st0" d="M85.2,209.5c-3.9-14.5-15.2-11.8-21.4-11C57.1,199.4-5,222.6-22,228.5c-9.6,3.3-14.8,4.8-13.4,10.7
	c1.3,5.3,11.7,5,15.8,4.9c38.5-0.9,67.6-3.4,93.4-16.4C90.8,219.1,86.2,213.2,85.2,209.5z"/>
<path class="st0" d="M-61.8,228.7C-69.4,232.9-81,238-81,238s5.8,4.6,8.3,4.9c2,0.2,10.5-4,10.5-4l8.1,2.6c-3.2,4.5-3.8,6.8-8,11.9
	c-3.2,3.9-13.3,10-18.1,12c-2.6,1.1-9,0.9-11.2,2.6c-1.6,1.2-2.9,7.1-2.9,7.1l15.1-0.9c0,0,20.6-7.3,27.2-10.3
	c7-3.2,20.4-11.3,25.8-16.6c1.7-1.7,5-5.1,3.9-10.1c-1-4.3-5.4-5.8-8.3-6.7C-35.2,229.3-61.5,228.5-61.8,228.7z"/>
<path class="st0" d="M233,139.4c4.3,21.5,18,24.7,25.9,30.9c12.6,9.8,29.3,38.2,39.7,50.2c4.9,5.7,18.5,17,27.1,9.2l0,0
	c10.6-10.6,3-23.9-1.3-29.8c-8.6-12-28.3-34.5-34.9-47.8c-4.9-9.9-7.6-20.7-23.1-29.8c0,0-15.3-10.2-26.3-3
	C233.2,124,231.3,130.6,233,139.4L233,139.4z"/>
<path class="st0" d="M302.8,214.5c3.9-14.5,15.2-11.8,21.4-11c6.7,0.9,68.8,24.1,85.8,29.9c9.6,3.3,14.8,4.8,13.4,10.7
	c-1.3,5.3-11.7,5-15.8,4.9c-38.5-0.9-67.6-3.4-93.4-16.4C297.2,224.1,301.8,218.2,302.8,214.5z"/>
<path class="st0" d="M449.9,233.7c7.6,4.1,19.1,9.3,19.1,9.3s-5.8,4.6-8.3,4.9c-2,0.2-10.5-4-10.5-4l-8.1,2.6
	c3.2,4.5,3.8,6.8,8,11.9c3.2,3.9,13.3,10,18.1,12c2.6,1.1,9,0.9,11.2,2.6c1.6,1.2,2.9,7.1,2.9,7.1l-15.1-0.9c0,0-20.6-7.3-27.2-10.3
	c-7-3.2-20.4-11.3-25.8-16.6c-1.7-1.7-5-5.1-3.9-10.1c1-4.3,5.4-5.8,8.3-6.7C423.2,234.3,449.5,233.5,449.9,233.7z"/>
<path class="st0" d="M194,204.4c-5.5-3.6-8-0.6-13.7,2.5c-9.8,5.3-15.8,23.7-26.7,26.2c-3.9,0.9-12.7-15.1-13.7-21.3
	c-1.5-9.3,2.5-27.5-8.4-36.9c-9.2-7.9-21.4-3.7-25.5-16.3c-7-22,13.4-38.5,23.4-42.3c15.2-5.9,37.1-5.1,43.6-14.3l0.9-27.7l0.7-20.2
	l18.3-0.8h2.2l18.3,0.8l0.7,20.2L215,102c6.4,9.1,28.4,8.3,43.5,14.2c10,3.8,30.4,20.4,23.4,42.3c-4,12.6-16.2,8.4-25.5,16.3
	c-10.9,9.3-6.9,27.5-8.4,36.9c-1,6.2-9.9,22.2-13.7,21.3c-10.8-2.5-16.9-20.9-26.7-26.2C201.9,203.7,199.4,200.7,194,204.4"/>
<path class="st1" d="M173.5,102.3c0,0,31.8,11.4,41.2-10.8l-1.3-37.4h-38.8L173.5,102.3z"/>
<path class="st2" d="M124.4,322.1c0,0,10.6-53.4,10.5-59.9c-0.1-5-7.3-87.5-7.3-87.5s137.7-8.6,131.4-4.3s-9.1,73.2-9.1,73.2
	l7.7,76.5l-62.7,17.4"/>
<path class="st3" d="M57.8,158.8c9.5-6.2,68.7-47.8,68.7-47.8l138.3,0.8l67.3,46.9c0,0-66.9,34-106.7,39.1s-66-1.1-77.4-1.6
	S57.8,158.8,57.8,158.8z"/>
</svg>
