<svg xmlns="http://www.w3.org/2000/svg" viewBox="0 0 488 223.85"><defs><style>.cls-1{fill:#90573a;}.cls-2{fill:#6f412a;}.cls-3{fill:#7c8e7b;}.cls-4{fill:#423632;}</style></defs><g id="Calque_9" data-name="Calque 9"><path class="cls-1" d="M244,154c-5.48-3.57-8-.62-13.73,2.52-9.75,5.34-15.83,23.72-26.67,26.21-3.85.89-1-16.3-2-22.56-1.54-9.32-9.17-26.27-20.08-35.61-9.24-7.91-14.07-3.57-18.08-16.18-7-22,6.07-38.6,16-42.46C194.61,60,216.58,60.83,223,51.69L223.9,24l.69-20.19L242.91,3h2.18l18.32.81L264.1,24l.94,27.7c6.38,9.14,36,3.72,48.27,14.4,2.63,2.28,15.78,17.35,43.46,91.07,4.66,12.39-41-40.51-50.27-32.6-10.91,9.34-6.86,27.53-8.39,36.85-1,6.26-9.86,22.21-13.71,21.32-10.84-2.49-16.92-20.87-26.67-26.21-5.74-3.14-8.25-6.09-13.73-2.52"/><path class="cls-2" d="M220.76,57.43s36.7,44.44,46.1,22.23L263.41,3.8H224.59Z"/><path class="cls-3" d="M291.81,231.59c6.52-28,27.43-164.65,19.21-169.47C295.85,53.2,288.42,49.9,273,48,262,46.68,254.37,76,244.29,77c-6.31.58-24-29.11-29.61-28a183.59,183.59,0,0,0-41.83,13.19c-3.66,19.24,7.21,144.8,13.83,172.58"/><path class="cls-1" d="M193.3,79.7C202,97.52,192.85,108,190,117.11c-4.51,14.54-1.86,44.57-3.43,59.35-.74,7-1.14,13.57-12.34,13.23h0c-14.39-1.08-19.22-9-19.17-15.74.11-13.69-.82-73.7,6.37-89.42,0,0,2.2-13.21,14.92-14.73,8.18-1,13.37,2.56,16.94,9.9Z"/><path class="cls-1" d="M169,180c-.42-16.54,1.31-15.68,8.59-19.16,10.32-4.93,66.54-1.67,84.25-4.79,10-1.76,15.28-3,16.89,2.86,1.45,5.3-7.53,10.79-11.45,12-38.61,11.87-59.85,18.29-88.77,18.79C175.14,189.74,169.05,183.85,169,180Z"/><path class="cls-1" d="M306,156.57A82.36,82.36,0,0,1,319.68,148s-4.16-2.68-6.8-2.57c-2.15.08-11.67,4.47-11.67,4.47h0c16.32-23.91,25.17-43.35,26.15-46.22.7-2-1.58-8.11-1.58-8.11s-16.32,22.57-21.3,28.61c-16.94,20.53-25.39,25.08-39.18,30.66-2.43,1-1.15,15,4.11,13.42,1.84-.57,11.94,1.53,14.79,0C295.6,162.23,305.67,156.81,306,156.57Z"/><path class="cls-4" d="M189.92,212.14H294.1a0,0,0,0,1,0,0v23.41a0,0,0,0,1,0,0H189.92a5.07,5.07,0,0,1-5.07-5.07V217.21A5.07,5.07,0,0,1,189.92,212.14Z"/><path class="cls-1" d="M240.71,40.41l14.34-1,20.41,4.75L296.81,66S309,88.58,305.7,89.72c-5,1.75-17.88-11.28-21.43-12.56-5.73-2.07-12.21-10.4-12.21-10.4l-13.46-.64s-9.86,4.63-10.46,4.64c-5.27.08-13.53-10.16-13.53-10.16l14.24-11.41,12.44.42L254,45.69s-7.37,1-8.16.65C244.09,45.67,240.71,40.41,240.71,40.41Z"/><path class="cls-1" d="M352.53,166.49c9.25-6.65,4.5-16.84-.77-25-3.75-5.84-45.75-58.67-57-73.19-6.35-8.2-9.52-12.74-14.63-9.35-4.65,3.09,4.28,15.49,6.14,19.25,19.67,39.61,20.11,62.32,41.1,83C341.15,174.71,349.35,168.78,352.53,166.49Z"/><path class="cls-3" d="M190,117.11s-.68-24.48-14.87-51l24.32-8.66,27.44,48.91Z"/></g><g id="Calque_10" data-name="Calque 10"><path class="cls-3" d="M182.85,230.49V204.83l115.32-6.36v32a5.07,5.07,0,0,1-5.07,5.06H187.92A5.07,5.07,0,0,1,182.85,230.49Z"/></g></svg>