<svg xmlns="http://www.w3.org/2000/svg" viewBox="0 0 788 1005"><defs><style>.cls-1{fill:#90573a;}.cls-2{fill:#6f412a;}.cls-3{fill:#9e5452;}.cls-4{fill:#7c4343;}</style></defs><g id="Calque_9" data-name="Calque 9"><path class="cls-1" d="M391.07,417.06c-5.22-3.47-7.61-.61-13.07,2.44-9.29,5.19-15.08,23-25.4,25.44-3.66.86-12.06-14.62-13-20.69-1.46-9.05,2.39-26.69-8-35.76-8.79-7.67-20.41-3.57-24.23-15.81-6.66-21.32,12.8-37.34,22.28-41.09,14.44-5.7,35.35-4.94,41.42-13.8l.91-26.88.65-19.59,17.44-.79h2.08l17.43.79.66,19.59.9,26.88c6.07,8.86,27,8.1,41.43,13.8,9.47,3.75,28.94,19.77,22.28,41.09-3.82,12.24-15.44,8.14-24.24,15.81-10.39,9.07-6.53,26.71-8,35.76-1,6.07-9.38,21.55-13.05,20.69-10.32-2.42-16.11-20.25-25.39-25.44-5.47-3.05-7.85-5.91-13.07-2.44"/><path class="cls-2" d="M371.56,318.09s30.25,11.06,39.2-10.49l-1.22-36.28h-37Z"/><path class="cls-1" d="M344.13,341.38c8.38,17.95-.87,28.24-3.85,37.35-4.73,14.47-2.53,44.53-4.32,59.3-.84,7-5.5,23-16.7,22.51h0c-14.37-1.29-14.91-18.77-14.76-25.5.3-13.69-4.05-70.62,3.38-86.22,0,0,6.72-16.27,19.46-17.6,8.19-.85,13.33,2.76,16.79,10.16Z"/><path class="cls-1" d="M322.89,460.55c-10.65,3.53-15.79-6.15-19.07-15.09-2.33-6.38-18.72-70.45-23.4-87.81-2.64-9.81-4.31-15,1.35-17.08,5.15-1.92,10.74,6.9,13,10.34,20.93,32.34,35.11,57.8,38.83,86.49C336,456.24,326.54,459.34,322.89,460.55Z"/><path class="cls-1" d="M276.73,311.22A82.3,82.3,0,0,1,267,298.35s-2.29,4.38-1.95,7c.28,2.14,5.49,11.23,5.49,11.23h0c-25.27-14.13-45.42-21.21-48.36-21.94-2.08-.51-7.94,2.3-7.94,2.3s23.94,14.25,30.39,18.67c22,15.05,27.24,23.06,34,36.3,1.2,2.33,15.08-.19,13-5.29-.72-1.78.47-12-1.29-14.73C283.29,321.07,277,311.52,276.73,311.22Z"/><path class="cls-1" d="M438,341c-8.39,17.95.86,28.24,3.84,37.36,4.73,14.46,2.54,44.53,4.32,59.29.85,7,5.51,23,16.7,22.52h0c14.38-1.3,14.92-18.78,14.77-25.5-.31-13.69,4.05-70.62-3.38-86.23,0,0-6.72-16.26-19.47-17.59C446.6,330,441.46,333.58,438,341Z"/><path class="cls-1" d="M459.25,460.15c10.64,3.53,15.78-6.16,19.06-15.1,2.34-6.37,18.73-70.44,23.41-87.8,2.64-9.81,4.31-15-1.35-17.08-5.16-1.92-10.74,6.89-13,10.33-20.93,32.35-35.11,57.81-38.83,86.5C446.13,455.83,455.6,458.94,459.25,460.15Z"/><path class="cls-1" d="M505.41,310.82A82.33,82.33,0,0,0,515.18,298s2.3,4.38,2,7c-.28,2.14-5.49,11.23-5.49,11.23h0C536.91,302.05,557.06,295,560,294.24c2.09-.52,8,2.3,8,2.3s-23.94,14.25-30.4,18.67c-21.95,15-27.23,23.06-34,36.3-1.19,2.33-15.07-.2-13-5.29.73-1.79-.46-12,1.29-14.73C498.85,320.67,505.14,311.12,505.41,310.82Z"/><path class="cls-3" d="M309.05,332.72c.06,0,23.48,28.65,26.91,105.31.77,17.12-2.47,68.53-2.47,68.53l119.73,4.13s-8.48-57.2-7.36-76.35c4.31-73.75,19.26-101.8,19.26-101.8l-53.91-16.19-9.29,27.09-17-.34L371.1,315.7l-62.05,17h0"/></g><g id="Calque_10" data-name="Calque 10"><rect class="cls-4" x="334.85" y="486.76" width="115.32" height="13.41"/></g></svg>