<svg xmlns="http://www.w3.org/2000/svg" viewBox="0 0 488 223.85"><defs><style>.cls-1{fill:#90573a;}.cls-2{fill:#6f412a;}.cls-3{fill:#9baa5e;}.cls-4{fill:#3a1d20;}.cls-5{fill:#4e6566;}</style></defs><g id="Calque_9" data-name="Calque 9"><path class="cls-1" d="M244,151.64c-5.48-3.58-8-.63-13.73,2.52-9.75,5.34-15.83,23.72-26.67,26.21-3.85.88-12.68-15.07-13.71-21.32-1.53-9.33,2.52-27.51-8.39-36.85-9.24-7.91-21.45-3.69-25.46-16.3-7-22,13.45-38.49,23.4-42.34,15.17-5.88,37.14-5.1,43.52-14.23l.94-27.71.69-20.18L242.91.63h2.18l18.32.81.69,20.18L265,49.33c6.38,9.13,28.35,8.35,43.52,14.23C318.51,67.41,339,83.93,332,105.9c-4,12.61-16.22,8.39-25.46,16.3-10.91,9.34-6.86,27.52-8.39,36.85-1,6.25-9.86,22.2-13.71,21.32-10.84-2.49-16.92-20.87-26.67-26.21-5.74-3.15-8.25-6.1-13.73-2.52"/><path class="cls-2" d="M223.51,49.64S255.28,61,264.68,38.83L263.41,1.44H224.59Z"/><path class="cls-1" d="M200.41,79.79c.21,19.81-12.47,25.35-19,32.41-10.29,11.21-20.73,39.5-28.47,52.2-3.64,6-14.53,18.68-24.52,13.58h0c-12.55-7.12-5.81-23.26-2.89-29.32,6-12.34,25.54-66,38.76-77.1,0,0,12.85-12,25-8,7.81,2.61,11,8,11.08,16.19Z"/><path class="cls-1" d="M124.72,160.94c5.16-10.45,15.63-6.67,24.24-2.11,6.13,3.24,62.74,41,78.25,51.1,8.76,5.69,13.56,8.47,11,14.21-2.34,5.23-12.52,2.44-16.52,1.39-37.66-9.91-65.65-19.37-88.4-38.91C118.34,173.79,123,164.52,124.72,160.94Z"/><path class="cls-1" d="M288,76.36c-8.39,18,.86,28.24,3.84,37.35,4.73,14.47,2.54,44.54,4.32,59.3.85,7,5.51,23,16.7,22.52h0c14.38-1.3,14.92-18.78,14.77-25.51-.31-13.68,4.05-70.61-3.38-86.22,0,0-6.72-16.27-19.47-17.59C296.6,65.36,291.46,69,288,76.36Z"/><path class="cls-1" d="M309.25,195.54c10.64,3.53,15.78-6.16,19.06-15.1,2.34-6.37,18.73-70.44,23.41-87.81,2.64-9.81,4.31-15-1.35-17.07-5.16-1.93-10.74,6.89-13,10.33-20.93,32.35-35.11,57.81-38.83,86.5C296.13,191.22,305.6,194.33,309.25,195.54Z"/><path class="cls-1" d="M355.41,46.21a82.33,82.33,0,0,0,9.77-12.87s2.3,4.38,2,7c-.28,2.14-5.49,11.22-5.49,11.22h0C386.91,37.43,407.06,30.35,410,29.63c2.09-.52,7.95,2.3,7.95,2.3S394,46.18,387.55,50.6c-21.95,15-27.23,23.05-34,36.3-1.19,2.33-15.07-.2-13-5.29.73-1.79-.46-12,1.29-14.73C348.85,56.05,355.14,46.5,355.41,46.21Z"/><path class="cls-3" d="M200.66,57c7.88,4.26,44.22,41.25,44.22,41.25L288.14,57l18.46,3.65s-7.89,101.94-8,111.73,1.6,63.16,1.6,63.16H184.85L181.5,122.2l-2.17-61.87Z"/><rect class="cls-4" x="184.85" y="212.14" width="115.32" height="23.41"/></g><g id="Calque_10" data-name="Calque 10"><rect class="cls-5" x="184.85" y="212.14" width="115.32" height="23.41"/></g></svg>