<svg xmlns="http://www.w3.org/2000/svg" viewBox="0 0 488 223.85"><defs><style>.cls-1{fill:#90573a;}.cls-2{fill:#6f412a;}.cls-3{fill:#d68f72;}.cls-4{fill:#4e6566;}</style></defs><g id="Calque_9" data-name="Calque 9"><path class="cls-1" d="M243,154.48c-5.48-3.57-8-.62-13.73,2.52-9.75,5.34-15.83,23.72-26.67,26.21-3.85.89-12.68-15.07-13.71-21.32-1.53-9.32,2.52-27.51-8.39-36.85-9.24-7.91-21.45-3.68-25.46-16.29-7-22,13.45-38.49,23.4-42.35,15.17-5.88,37.14-5.09,43.52-14.23l.94-27.7.69-20.19,18.32-.81h2.18l18.32.81.69,20.19.94,27.7c6.38,9.14,28.35,8.35,43.52,14.23,9.95,3.86,30.39,20.37,23.4,42.35-4,12.61-16.22,8.38-25.46,16.29-10.91,9.34-6.86,27.53-8.39,36.85-1,6.25-9.86,22.21-13.71,21.32-10.84-2.49-16.92-20.87-26.67-26.21-5.74-3.14-8.25-6.09-13.73-2.52"/><path class="cls-2" d="M222.51,52.49s31.77,11.39,41.17-10.81l-1.27-37.4H223.59Z"/><path class="cls-3" d="M204.82,89.34c-17.5,22.72-64.1,60.86-76.1,71.35-5.66,4.95-20.62,14.31-28.08,5.43h0c-9.1-11.92.35-24.06,5.35-29.34,10.18-10.74,32.79-30.29,41.1-42.56,6.19-9.15,10.4-19.44,27-26.34,0,0,16.55-8,26.43.62,6.34,5.51,7.31,12.29,4.34,20.84Z"/><path class="cls-1" d="M109.44,162.11c14.87,2.34,17-9.08,18.73-15.12,1.9-6.52,6-72.65,7.5-90.57.87-10.12,1.6-15.48-4.35-16.56-5.41-1-9.74,8.54-10.93,12.46C109,90,106,98.7,97.48,144.32,94,163,105.63,161.51,109.44,162.11Z"/><path class="cls-1" d="M134.57,57.6s11.09-5.35,12.52-7,8.39-10.19,9.76-11.26,11.19-5.74,10.39-6.76c-.32-.41-1.08-1.21-1.88-2a5.59,5.59,0,0,0-5.82-1.39L157,30a13.47,13.47,0,0,0-5,3.06l-5.52,5.31L148.76,22l6.81-19.75a3.17,3.17,0,0,0-1.4-3.78h0A3.19,3.19,0,0,0,149.61,0l-8.45,21.05,3.15-26a3.52,3.52,0,0,0-3.08-3.92h0a3.53,3.53,0,0,0-3.92,3.07L133.94,22,132.53-4.75A3.49,3.49,0,0,0,128.68-8h0a3.48,3.48,0,0,0-3.11,3.54l.5,25.27L121.61,4.85a3.4,3.4,0,0,0-4.53-2.23h0A3.39,3.39,0,0,0,115,6.31l2.92,18.1-1.43,24.72,2.88,6.63Z"/><path class="cls-3" d="M286.69,85.12c1.65,19.74,14.8,24.07,21.92,30.49,11.29,10.2,24.34,37.38,33.24,49.3,4.19,5.61,16.22,17.23,25.68,11.22h0c11.83-8.27,3.61-23.71.13-29.47-7.08-11.72-31.61-63.27-45.82-73.11,0,0-13.92-10.78-25.64-5.59-7.53,3.34-10.19,9-9.51,17.16Z"/><path class="cls-1" d="M367.43,153.08c-9.66-5.68-16.72,2.71-21.81,10.76-3.62,5.74-33.09,64.94-41.32,80.94-4.64,9-7.35,13.72-2.26,17,4.63,3,13.8-5,16.36-8.2,26.94-33.7,45-48.32,54.61-75.59C379.35,160.06,370.75,155,367.43,153.08Z"/><path class="cls-4" d="M134.42,72.91s-19-4.36-21,2.38-21.38,87.13-21.38,87.13,16,17.49,21.18,15.39,58.89-54.9,62.43-52.47,14,58.11,14.29,61.51S192.55,221,192.55,221h99.69s.67-37.42.84-40.23,15.68-62.36,18.72-58.55,30.78,47.2,30.78,47.2L311,228.17l19.17,14.11L372.27,193l7.6-26.26L325,71.52l-24.71-9.4L261.13,51.74s-13.31,17.36-42.08,0h0L167.28,66.55l-35.37,41.37,2.51-35"/></g><g id="Calque_10" data-name="Calque 10"><path class="cls-4" d="M184.85,223.85h0c0-6.47,6.92-13.4,6.06-24.92H292.65c-.22,11.52,7.52,18.45,7.52,24.92h0a11.7,11.7,0,0,1-11.7,11.7H196.56A11.7,11.7,0,0,1,184.85,223.85Z"/></g></svg>