<?xml version="1.0" encoding="utf-8"?>
<!-- Generator: Adobe Illustrator 26.0.1, SVG Export Plug-In . SVG Version: 6.00 Build 0)  -->
<svg version="1.1" id="Calque_9" xmlns="http://www.w3.org/2000/svg" xmlns:xlink="http://www.w3.org/1999/xlink" x="0px" y="0px"
	 viewBox="0 0 388 323.9" style="enable-background:new 0 0 388 323.9;" xml:space="preserve">
<style type="text/css">
	.st0{fill:#90573A;}
	.st1{fill:#6F412A;}
	.st2{fill:none;stroke:#6D3B25;stroke-width:2;stroke-linecap:round;stroke-miterlimit:10;}
	.st3{fill:#6999AA;}
	.st4{fill:#427887;}
</style>
<path class="st0" d="M245.5,200c-5.5-3.6-8-0.6-13.7,2.5c-9.8,5.3-15.8,23.7-26.7,26.2c-3.9,0.9-12.7-15.1-13.7-21.3
	c-1.5-9.3,2.5-27.5-8.4-36.9c-9.2-7.9-21.4-3.7-25.4-16.3c-7-22,13.4-38.5,23.4-42.3c15.2-5.9,37.1-5.1,43.5-14.2l0.9-27.7l0.7-20.2
	l18.3-0.8h2.2l18.3,0.8l0.7,20.2l1,27.7c6.4,9.1,28.3,8.3,43.5,14.2c10,3.8,30.4,20.4,23.4,42.3c-4,12.6-16.2,8.4-25.5,16.3
	c-10.9,9.3-6.9,27.5-8.4,36.9c-1,6.2-9.9,22.2-13.7,21.3c-10.8-2.5-16.9-20.9-26.7-26.2C253.5,199.4,251,196.4,245.5,200"/>
<path class="st1" d="M225,98c0,0,31.8,11.4,41.1-10.8l-1.2-37.4h-38.8L225,98z"/>
<path class="st2" d="M232.6,51.6c0.8,0.5,1.6,0.9,2.5,1.2c3.9,1.3,8.1,1.9,12.2,1.7c3.9,0,7.8-0.6,11.4-1.9c1.2-0.4,2.3-1,3.3-1.8"
	/>
<path class="st0" d="M211.5,135.7c-4.3,21.5-18,24.7-25.9,30.9c-12.6,9.8-29.3,38.2-39.7,50.2c-4.9,5.7-18.5,17-27.1,9.2l-3.8-2.5
	c-10.7-10.6,0.9-21.4,5.1-27.3c8.6-12,28.3-34.5,34.9-47.8c4.9-9.9,7.6-20.7,23.1-29.8c0,0,15.3-10.2,26.3-3
	C211.4,120.3,213.3,126.9,211.5,135.7L211.5,135.7z"/>
<path class="st0" d="M136.7,224.3c9.9-13.6,2.2-17.7-0.8-23.2c-3.2-6-46.6-56.1-58-69.9c-6.5-7.8-9.8-12.2-14.8-8.8
	c-4.5,3.1-0.6,12.7,0.9,16.6c3.3,8.4,44.2,75.8,48,81.7C120.1,233.1,133.7,228.4,136.7,224.3z"/>
<path class="st0" d="M53,99.6c-8.2-2.6-20-7.3-20-7.3s7.8,7.4,9.2,9.4c1.2,1.6,3.1,4.8,3.1,4.8l3.8,7.6c-5.5,0.8-7.5,2-14.1,2.5
	c-5.1,0.4-16.5-2.6-21.3-4.7c-2.6-1.2-6.9-5.9-9.6-6.3c-2-0.3-7.1,2.8-7.1,2.8l11.1,10.2c0,0,19.6,9.8,26.3,12.4
	c7.2,2.8,22.3,6.8,29.8,7c2.4,0,7.2,0.1,9.9-4.2c2.4-3.7,0.4-8-1-10.6C71.1,119.1,53.3,99.7,53,99.6z"/>
<path class="st0" d="M287.2,137.3c4.3,21.5,18,24.7,25.9,30.9c12.6,9.8,29.3,38.2,39.7,50.2c4.9,5.7,18.5,17,27.1,9.2l0,0
	c10.6-10.6,3-23.9-1.3-29.8c-8.6-12-28.3-34.5-34.9-47.8c-4.9-9.9-7.6-20.7-23.1-29.8c0,0-15.3-10.2-26.3-3
	C287.4,121.8,285.4,128.4,287.2,137.3L287.2,137.3z"/>
<polyline class="st3" points="318,355.3 296.2,223.2 313.1,168.2 350.3,156.1 331.2,121.6 244.2,133.2 165.5,117.6 140.3,150.1 
	181.7,172.5 193.7,234.5 183.6,351.2 "/>
<path class="st4" d="M181.7,172.5c5.6-1.1,61.6,6.9,65.6,8.2s65.8-12.5,65.8-12.5l-6.6,21.5L248.2,200l-61.8-9.1L181.7,172.5"/>
<path class="st0" d="M380.6,217.5c-3.9-14.5-15.2-11.8-21.4-11c-6.7,0.9-68.8,24.1-85.8,29.9c-9.6,3.3-14.8,4.8-13.4,10.7
	c1.3,5.3,11.7,5,15.8,4.9c38.5-0.8,67.6-3.4,93.4-16.4C386.2,227.1,381.6,221.2,380.6,217.5z"/>
<path class="st0" d="M233.5,236.7c-7.6,4.1-19.1,9.3-19.1,9.3s5.9,4.6,8.3,4.9c2,0.2,10.5-4,10.5-4l15.1,2.6
	c-3.2,4.5-10.8,6.8-15,11.9c-3.2,3.9-13.3,10-18.1,12c-2.6,1.1-9,0.9-11.2,2.6c-1.6,1.2-2.9,7.1-2.9,7.1l15.1-0.9
	c0,0,20.6-7.3,27.2-10.3c7-3.2,20.4-11.3,25.7-16.6c1.7-1.7,5-5.1,3.9-10.1c-1-4.3-5.4-5.8-8.3-6.7"/>
</svg>
