<?xml version="1.0" encoding="utf-8"?>
<!-- Generator: Adobe Illustrator 26.0.0, SVG Export Plug-In . SVG Version: 6.00 Build 0)  -->
<svg version="1.1" id="Calque_1" xmlns="http://www.w3.org/2000/svg" xmlns:xlink="http://www.w3.org/1999/xlink" x="0px" y="0px"
	 viewBox="0 0 200 200" style="enable-background:new 0 0 200 200;" xml:space="preserve">
<style type="text/css">
	.st0{fill:#B9785C;}
	.st1{fill:#8C5C4B;}
	.st2{fill:#D68F72;}
	.st3{fill:#3F281F;}
</style>
<g id="Calque_10">
	<path class="st0" d="M133.2,136.6l8.1-24.5c0,0,7.9-8.1,13.6-2.5c3.8,3.8-5.1,29-10,30C136.7,141.3,133.2,136.6,133.2,136.6z"/>
	<path class="st1" d="M66.8,136.6l-8.1-24.5c0,0-7.9-8.1-13.6-2.5c-3.8,3.8,5.1,29,10,30C63.3,141.3,66.8,136.6,66.8,136.6z"/>
	<path class="st2" d="M143.2,94c0,46-27.4,79-43.3,79c-15.8,0-43.3-33-43.3-79c0-34.4,19.4-45.6,43.3-45.6
		C123.8,48.4,143.2,59.6,143.2,94z"/>
	<path class="st3" d="M129.6,59.9c0,0-13.5,7.5-29.5,7.1s-47.7,8.5-41.4,45s-4.3,47.2-17.3,45.7s-15.7-11.2-15.7-11.2
		s14.2-12.1,18.4-62.1c5-57.9,74.2-78.7,92.9-26.6c0,0,2,4.4-2.1,5.2L129.6,59.9z"/>
	<path class="st3" d="M137.5,71.5c-0.4-1-1.2-3.5-0.7-4.5c1.9-3.1,4.1-0.1,5.3,2c1.3,2.3,2.6,7.5-1.4,6.8
		C139.4,75.6,138.1,72.8,137.5,71.5z"/>
	<path class="st3" d="M141.5,87c-0.1-1.1-0.2-3.8,0.6-4.5c2.6-2.5,3.9,1,4.5,3.3c0.7,2.6,0.6,7.9-3.1,6.2
		C142.2,91.4,141.7,88.3,141.5,87z"/>
	<path class="st3" d="M141.6,100.3c0.1-1.1,0.7-3.7,1.7-4.2c3.2-1.8,3.6,2,3.6,4.3c0,2.6-1.4,7.8-4.6,5.2
		C141.2,104.8,141.4,101.6,141.6,100.3z"/>
</g>
</svg>
