<?xml version="1.0" encoding="utf-8"?>
<!-- Generator: Adobe Illustrator 26.0.0, SVG Export Plug-In . SVG Version: 6.00 Build 0)  -->
<svg version="1.1" id="Calque_1" xmlns="http://www.w3.org/2000/svg" xmlns:xlink="http://www.w3.org/1999/xlink" x="0px" y="0px"
	 viewBox="0 0 788 1005" style="enable-background:new 0 0 788 1005;" xml:space="preserve">
<style type="text/css">
	.st0{fill:#D68F72;}
	.st1{fill:#B9785C;}
	.st2{fill:#543529;}
</style>
<g id="Calque_10">
	<path class="st0" d="M392.9,180.9c23.9,0,43.3,11.2,43.3,45.6c0,46-27.4,79-43.3,79"/>
	<path class="st1" d="M426.2,269l8.1-24.5c0,0,7.9-8.1,13.6-2.5c3.8,3.8-5.1,29-10,30C429.7,273.8,426.2,269,426.2,269z"/>
	<path class="st1" d="M359.8,269l-8.1-24.5c0,0-7.9-8.1-13.7-2.5c-3.8,3.8,5.1,29,10,30C356.3,273.8,359.8,269,359.8,269z"/>
	<path class="st0" d="M392.9,180.9c-23.9,0-43.3,11.2-43.3,45.6c0,46,27.5,79,43.3,79"/>
	<circle class="st2" cx="335.8" cy="194.5" r="26.2"/>
	<circle class="st2" cx="459.7" cy="194.5" r="26.2"/>
	<path class="st2" d="M352,251.9l-8.3-5.7c0,0-8-12.4-8-25c0-16,29-43.5,45.3-46.4c4.4-0.8,9,0.5,12.4,3.4c0,0,18.7-0.6,24.3,1.7
		c25.5,10.6,30.6,28,29.9,39.7c-0.7,8.7-2.9,17.3-6.5,25.3l-9.3,3.1l-0.5-19.2l-12.5-9c0,0-6.7-11-6.4-11s2.4,9.9,2.4,9.9
		s-11.2,0.6-14.2-1.3c-2.2-1.4-5.1-8.9-5.1-8.9s-9.1,7.6-12.2,9.4c-3.6,2.1-11.5,2.8-11.5,2.8l1.3-12.8l-10.2,13.3l-11.3,9
		L352,251.9z"/>
</g>
</svg>
