<?xml version="1.0" encoding="utf-8"?>
<!-- Generator: Adobe Illustrator 26.0.0, SVG Export Plug-In . SVG Version: 6.00 Build 0)  -->
<svg version="1.1" id="Calque_1" xmlns="http://www.w3.org/2000/svg" xmlns:xlink="http://www.w3.org/1999/xlink" x="0px" y="0px"
	 viewBox="0 0 788 1005" style="enable-background:new 0 0 788 1005;" xml:space="preserve">
<style type="text/css">
	.st0{fill:#543529;}
	.st1{fill:#D68F72;}
	.st2{fill:#B9785C;}
</style>
<g id="Calque_10">
	<path class="st0" d="M334.9,230.3c1,2.2-13.2,31.7-16.5,43.7c-6.9,25.3,27.9,50.7,27.9,50.7c17.6-4.4,26.6-8.6,26.6-8.6l1.3-35.5
		c0,0-22.6-38.1-22.2-40.4S334.9,230.3,334.9,230.3z"/>
	<path class="st1" d="M393.9,180.1c23.9,0,43.3,11.2,43.3,45.6c0,46-27.4,79-43.3,79"/>
	<path class="st2" d="M427.2,268.3l8.1-24.5c0,0,7.9-8.1,13.6-2.5c3.8,3.8-5.1,29-10,30C430.7,273.1,427.2,268.3,427.2,268.3z"/>
	<path class="st2" d="M360.8,268.3l-8.1-24.5c0,0-7.9-8.1-13.6-2.5c-3.8,3.8,5.1,29,10,30C357.3,273.1,360.8,268.3,360.8,268.3z"/>
	<path class="st1" d="M393.9,180.1c-23.9,0-43.3,11.2-43.3,45.6c0,46,27.5,79,43.3,79"/>
	<path class="st0" d="M339,241.3c4.1-6.6,13.6,2.5,13.6,2.5s-4.7-32.1,40.9-39.9c26.6-4.6,17.3-29.3,10.6-30.2s-18.8,1.3-24.1,2.3
		c-3.7,0.7-14.8,2.2-22.3,8.8s-14.9,19.8-22.9,46.5"/>
	<path class="st0" d="M458.5,278.3c-19.9-30.2-21.2-95.9-30.8-98.6c-13.8-3.9-18.3,4.2-18.3,4.2l-5,11.6c0,0,25.8,4.2,25.8,22.5
		s15,46.6,5,55.8"/>
	<path class="st0" d="M427.2,268.3c0,0,6.9,4.8,10,1.5c3.8-4,1-24.5,3.5-20c4.5,8.1,13.8,24.1,17.7,28.6
		c8.6,9.9-10.7,49.1-21.3,45.5s-19.6-1.7-22.2-7.8c-2-4.9-0.8-23.8-0.8-23.8L427.2,268.3z"/>
</g>
</svg>
