<?xml version="1.0" encoding="utf-8"?>
<!-- Generator: Adobe Illustrator 26.0.0, SVG Export Plug-In . SVG Version: 6.00 Build 0)  -->
<svg version="1.1" id="Calque_1" xmlns="http://www.w3.org/2000/svg" xmlns:xlink="http://www.w3.org/1999/xlink" x="0px" y="0px"
	 viewBox="0 0 788 1005" style="enable-background:new 0 0 788 1005;" xml:space="preserve">
<style type="text/css">
	.st0{fill:#2F1E17;}
	.st1{fill:#D68F72;}
	.st2{fill:#B9785C;}
	.st3{clip-path:url(#SVGID_00000182507038707355217590000006965060063999759248_);}
	.st4{fill:#6E4031;}
	.st5{clip-path:url(#SVGID_00000081647523999182847970000002766850763597463424_);}
	.st6{fill:#3F281F;}
</style>
<g id="Calque_10">
	<path class="st0" d="M430.2,184.3c0,0,30.6,21.2,26.2,65.5c-3.7,37.1-42.4,67-42.4,67l-2.9-21.5l15-26.2l2.2-66.9L430.2,184.3z"/>
	<path class="st1" d="M392.9,180.9c23.9,0,43.3,11.2,43.3,45.6c0,46-27.4,79-43.3,79"/>
	<path class="st2" d="M427.7,269.3l6.6-24.8c0,0,7.9-8.1,13.6-2.5c3.8,3.8-5.1,29-10,30C429.7,273.8,427.7,269.3,427.7,269.3z"/>
	<path class="st2" d="M359.8,269l-8.1-24.5c0,0-7.9-8.1-13.7-2.5c-3.8,3.8,5.1,29,10,30C356.3,273.8,359.8,269,359.8,269z"/>
	<path class="st1" d="M392.9,180.9c-23.9,0-43.3,11.2-43.3,45.6c0,46,27.5,79,43.3,79"/>
	<g>
		<defs>
			<polygon id="SVGID_1_" points="430.4,248.5 430.4,248.5 441.9,248.5 441.9,262.4 430.4,262.4 			"/>
		</defs>
		<clipPath id="SVGID_00000041274561539394646490000017509217182292638092_">
			<use xlink:href="#SVGID_1_"  style="overflow:visible;"/>
		</clipPath>
		<g style="clip-path:url(#SVGID_00000041274561539394646490000017509217182292638092_);">
			<path class="st4" d="M430.7,256.6c0-0.2,0.7-1.6,5.3-5.3c1.5-1.3,3.4-2.3,5.3-2.8c0.4,0.5,0.6,1.2,0.5,1.9
				c-0.1,0.9-4.2,2.9-5.4,4c-1.9,1.7-6,7.8-6,8L430.7,256.6z"/>
		</g>
	</g>
	<g>
		<defs>
			<polygon id="SVGID_00000026862777851421200030000005572458056856271258_" points="353,248.5 353,248.5 341.6,248.5 341.6,262.4 
				353,262.4 			"/>
		</defs>
		<clipPath id="SVGID_00000101101432865111566550000011208592738475708073_">
			<use xlink:href="#SVGID_00000026862777851421200030000005572458056856271258_"  style="overflow:visible;"/>
		</clipPath>
		<g style="clip-path:url(#SVGID_00000101101432865111566550000011208592738475708073_);">
			<path class="st4" d="M352.7,256.6c0-0.2-0.7-1.6-5.3-5.3c-1.5-1.3-3.4-2.3-5.3-2.8c-0.4,0.5-0.6,1.2-0.5,1.9
				c0.1,0.9,4.2,2.9,5.4,4c1.9,1.7,6,7.8,6,8L352.7,256.6z"/>
		</g>
	</g>
	<path class="st6" d="M351,244.1l-6.8-3.9c0,0-7-12.1-6.9-24c0-15.1,28.2-41.1,44-43.8c4.3-0.7,8.7,0.4,12.1,3.2
		c0,0,18.2-0.6,23.6,1.6c24.7,10,29.8,26.4,29,37.5c-0.9,12.6-2.8,25.4-2.8,25.4l-8.9,4.5l-4.1-21.2l-12.1-8.5
		c0,0-6.5-10.4-6.2-10.4s2.3,9.3,2.3,9.3s-10.9,0.6-13.8-1.2c-2.1-1.3-5-8.4-5-8.4s-8.8,7.2-11.9,8.9c-3.5,1.9-11.1,2.6-11.1,2.6
		l1.3-12.1l-9.9,12.6l-11,8.5L351,244.1z"/>
	<path class="st6" d="M393.4,175.5c0,0,15.8-7.4,24.9-1.6s31.2,19.8,37.6,46.4c4.4,18.4,3,34.2-4.5,48.6c0,0-17.4-0.8-17.1-24.4
		c0.4-31.5-22.5-40.1-22.5-40.1L393.4,175.5z"/>
	<path class="st6" d="M422.1,309.7c-0.8,0.6,28.3-32.8,25-54.3s2.3-23.7,2.9-23.2s7.2,20.5,7.2,20.9S450,287.6,422.1,309.7z"/>
</g>
</svg>
