<?xml version="1.0" encoding="utf-8"?>
<!-- Generator: Adobe Illustrator 26.0.1, SVG Export Plug-In . SVG Version: 6.00 Build 0)  -->
<svg version="1.1" id="Calque_1" xmlns="http://www.w3.org/2000/svg" xmlns:xlink="http://www.w3.org/1999/xlink" x="0px" y="0px"
	 viewBox="0 0 788 1005" style="enable-background:new 0 0 788 1005;" xml:space="preserve">
<style type="text/css">
	.st0{fill:#B9785C;}
	.st1{fill:#D68F72;}
	.st2{clip-path:url(#SVGID_00000145019601317571635190000011738000361788715690_);}
	.st3{fill:#955A40;}
	.st4{clip-path:url(#SVGID_00000018215554669541527380000011254115287154783129_);}
	.st5{fill:#3F281F;}
</style>
<path class="st0" d="M425.4,270.4l6.6-24.8c0,0,7.9-8.1,13.6-2.5c3.8,3.8-5.1,29-10,30C427.3,274.8,425.4,270.4,425.4,270.4z"/>
<path class="st0" d="M357.4,270.1l-8.1-24.5c0,0-7.9-8.1-13.6-2.5c-3.8,3.8,5.1,29,10,30C354,274.8,357.4,270.1,357.4,270.1z"/>
<path class="st1" d="M390.6,181.9c-23.9,0-43.3,11.2-43.3,45.6c0,46,27.5,79,43.3,79c15.9,0,43.3-33,43.3-79
	C433.9,193.1,414.5,181.9,390.6,181.9z"/>
<g>
	<g>
		<defs>
			<polygon id="SVGID_1_" points="431.2,250.6 431.2,250.6 442.7,250.6 442.7,264.5 431.2,264.5 			"/>
		</defs>
		<clipPath id="SVGID_00000102532270673758050560000007670049405595824001_">
			<use xlink:href="#SVGID_1_"  style="overflow:visible;"/>
		</clipPath>
		<g style="clip-path:url(#SVGID_00000102532270673758050560000007670049405595824001_);">
			<path class="st3" d="M431.5,258.8c0-0.2,0.7-1.6,5.3-5.3c1.5-1.3,3.4-2.3,5.3-2.8c0.5,0.5,0.6,1.2,0.5,1.9
				c-0.1,0.8-4.2,2.9-5.4,4c-2.3,2.5-4.3,5.1-6,8L431.5,258.8z"/>
		</g>
	</g>
</g>
<g>
	<g>
		<defs>
			<polygon id="SVGID_00000102514929096025401850000016348189905252303520_" points="353.8,250.6 353.8,250.6 342.4,250.6 
				342.4,264.5 353.8,264.5 			"/>
		</defs>
		<clipPath id="SVGID_00000027586492733327304390000014226840307383311745_">
			<use xlink:href="#SVGID_00000102514929096025401850000016348189905252303520_"  style="overflow:visible;"/>
		</clipPath>
		<g style="clip-path:url(#SVGID_00000027586492733327304390000014226840307383311745_);">
			<path class="st3" d="M353.5,258.8c0-0.2-0.7-1.6-5.3-5.3c-1.5-1.3-3.4-2.3-5.3-2.8c-0.5,0.5-0.6,1.2-0.5,1.9
				c0.1,0.8,4.2,2.9,5.4,4c2.3,2.5,4.3,5.1,6,8L353.5,258.8z"/>
		</g>
	</g>
</g>
<path class="st5" d="M349.3,245.6c0,0-41.5-53.6,27.7-70.8c0,0-37.8-32.1,12.7-33.9c53-1.8,21,34,12.9,33c0,0,68.4,13.1,29.4,71.6
	c0,0-1.4-40.4-8.8-43.5c-0.4,3.3-0.6,6.7-0.6,10c-10.7,2.2-21.6,3.2-32.5,3c-12.1-0.2-24.2-1.4-36.1-3.5v-9.6
	C344.8,208.5,349.3,245.6,349.3,245.6z"/>
</svg>
