<?xml version="1.0" encoding="utf-8"?>
<!-- Generator: Adobe Illustrator 26.0.1, SVG Export Plug-In . SVG Version: 6.00 Build 0)  -->
<svg version="1.1" id="Calque_1" xmlns="http://www.w3.org/2000/svg" xmlns:xlink="http://www.w3.org/1999/xlink" x="0px" y="0px"
	 viewBox="0 0 788 1005" style="enable-background:new 0 0 788 1005;" xml:space="preserve">
<style type="text/css">
	.st0{fill:#B9785C;}
	.st1{fill:#D68F72;}
	.st2{fill:#543529;}
</style>
<path class="st0" d="M427.7,269.3l6.6-24.8c0,0,7.9-8.1,13.6-2.5c3.8,3.8-5.1,29-10,30C429.7,273.8,427.7,269.3,427.7,269.3z"/>
<path class="st0" d="M359.8,269l-8.1-24.5c0,0-7.9-8.1-13.7-2.5c-3.8,3.8,5.1,29,10,30C356.3,273.8,359.8,269,359.8,269z"/>
<path class="st1" d="M392.9,180.8c-23.9,0-43.3,11.2-43.3,45.6c0,46,27.5,79,43.3,79c15.8,0,43.3-33,43.3-79
	C436.2,192,416.9,180.8,392.9,180.8z"/>
<path class="st1" d="M368.9,175.2c-0.4-0.7,21.9-9.9,21.9-9.9l4.3-0.7l1.6,0.6c0,0,8.8,2.4,9.3,4.7s2,14.8,2,14.8l-7.7,1.6l-6.3-2.3
	c0,0-8.1,0-9.7-0.7S368.9,175.2,368.9,175.2z"/>
<path class="st2" d="M393.8,182.6c-0.3,0.5-0.6,1-1,1.5c-8.6,11.2-38.2,19.2-41.2,31.9c-3.1,13.2,1.5,26.7,1.5,26.7s-5.6-3.8-6-3.9
	s-23.8-50.3,20.8-70.4c20.1-9,25.8-3.2,25.8-3.2c0,0.2,0.1,0.4,0.3,0.6C395.3,167.6,400.2,171.8,393.8,182.6z"/>
<path class="st2" d="M438.9,240.1c-0.4,0.1-5.5,3.9-5.5,3.9s4.2-13.4,1.4-26.7s-32.2-21.3-38.8-33.2c0.3-0.5,0.6-1,0.9-1.5
	c5.8-10.8,1.4-15,0.2-17c2.4-1.2,8.9-2.7,22.5,4C460.9,189.8,439.3,239.9,438.9,240.1z"/>
</svg>
