<?xml version="1.0" encoding="utf-8"?>
<!-- Generator: Adobe Illustrator 26.0.0, SVG Export Plug-In . SVG Version: 6.00 Build 0)  -->
<svg version="1.1" id="Calque_1" xmlns="http://www.w3.org/2000/svg" xmlns:xlink="http://www.w3.org/1999/xlink" x="0px" y="0px"
	 viewBox="0 0 200 200" style="enable-background:new 0 0 200 200;" xml:space="preserve">
<style type="text/css">
	.st0{fill:#B9785C;}
	.st1{fill:#D68F72;}
	.st2{fill:#3F281F;}
</style>
<g id="Calque_10">
	<path class="st0" d="M133.7,139.7l6.6-24.8c0,0,7.9-8.1,13.6-2.5c3.8,3.8-5.1,29-10,30C135.7,144.2,133.7,139.7,133.7,139.7z"/>
	<path class="st0" d="M65.8,139.4l-8.1-24.5c0,0-7.9-8.1-13.6-2.5c-3.8,3.8,5.1,29,10,30C62.3,144.2,65.8,139.4,65.8,139.4z"/>
	<path class="st1" d="M142.2,96.8c0,46-27.4,79-43.3,79c-15.8,0-43.3-33-43.3-79c0-34.4,19.4-45.6,43.3-45.6
		C122.8,51.2,142.2,62.4,142.2,96.8z"/>
	<path class="st1" d="M74.9,45.6c-0.3-0.7,21.9-9.9,21.9-9.9l4.3-0.7l1.6,0.6c0,0,8.8,2.3,9.3,4.7s2,14.8,2,14.8l-7.7,1.6l-6.3-2.3
		c0,0-8.1,0-9.7-0.7S74.9,45.6,74.9,45.6z"/>
	<path class="st2" d="M99.8,53c-0.3,0.5-0.6,1-1,1.5c-8.6,11.2-38.2,19.2-41.2,31.9c-3.1,13.2,1.5,26.7,1.5,26.7s-5.6-3.8-6-3.9
		S29.4,58.8,74,38.7c20.1-9,25.8-3.2,25.8-3.2c0,0.2,0.1,0.4,0.3,0.6C101.3,38,106.2,42.2,99.8,53z"/>
	<path class="st2" d="M144.9,110.5c-0.4,0.1-5.5,3.9-5.5,3.9s4.2-13.4,1.4-26.7S108.6,66.4,102,54.5c0.3-0.5,0.6-1,0.9-1.5
		c5.8-10.8,1.4-15,0.2-17c2.4-1.2,8.9-2.7,22.5,4C166.9,60.2,145.3,110.3,144.9,110.5z"/>
</g>
</svg>
