<?xml version="1.0" encoding="utf-8"?>
<!-- Generator: Adobe Illustrator 26.0.1, SVG Export Plug-In . SVG Version: 6.00 Build 0)  -->
<svg version="1.1" id="Calque_1" xmlns="http://www.w3.org/2000/svg" xmlns:xlink="http://www.w3.org/1999/xlink" x="0px" y="0px"
	 viewBox="0 0 788 1005" style="enable-background:new 0 0 788 1005;" xml:space="preserve">
<style type="text/css">
	.st0{fill:#B9785C;}
	.st1{fill:#D68F72;}
	.st2{fill:#543529;}
</style>
<path class="st0" d="M427.2,268.9l8.1-24.5c0,0,7.9-8.1,13.6-2.5c3.8,3.8-5.1,29-10,30C430.7,273.6,427.2,268.9,427.2,268.9z"/>
<path class="st0" d="M360.8,268.9l-8.1-24.5c0,0-7.9-8.1-13.6-2.5c-3.8,3.8,5.1,29,10,30C357.3,273.6,360.8,268.9,360.8,268.9z"/>
<path class="st1" d="M393.9,180.7c-23.9,0-43.3,11.2-43.3,45.6c0,46,27.5,79,43.3,79c15.9,0,43.3-33,43.3-79
	C437.2,191.9,417.8,180.7,393.9,180.7z"/>
<path class="st2" d="M352.7,244.4l2.9-22.5l17.9-7.9l10.1-24.1l26,3.7l12.3-3.7l-6.3,7.4l16.8,16.3l2.9,30.9c0,0,5.4-2.6,6.7-4.5
	s12.6-36.7,12.6-36.7l-17.4-19.2h-6.5l-11.4-21.4l-47-8l-53.1,44.9L339,242l7.2-0.4L352.7,244.4z"/>
<polygon class="st2" points="341.4,180.7 319.2,199.5 317.1,221.9 321.8,221.9 327.3,210.4 332.5,199.5 349.5,189.3 "/>
<polygon class="st2" points="344.1,201.3 329.5,217.9 327.6,231.2 333.1,235.3 333.1,225.4 344.1,215.5 "/>
</svg>
