<?xml version="1.0" encoding="utf-8"?>
<!-- Generator: Adobe Illustrator 26.0.1, SVG Export Plug-In . SVG Version: 6.00 Build 0)  -->
<svg version="1.1" id="Calque_1" xmlns="http://www.w3.org/2000/svg" xmlns:xlink="http://www.w3.org/1999/xlink" x="0px" y="0px"
	 viewBox="0 0 788 1005" style="enable-background:new 0 0 788 1005;" xml:space="preserve">
<style type="text/css">
	.st0{fill:#3F281F;}
	.st1{fill:#D68F72;}
	.st2{fill:#B9785C;}
	.st3{fill:#543529;}
</style>
<path class="st0" d="M424.2,322.9c-4-1.4-7.3-3.2-9.2-5.9l-0.6-17.8c8.5-8.9,16.2-22.8,20.5-40.2c1,4.3,2.1-40.5,2.6-36.4
	c0.4,3.8,8.8,11.1,8.7,14.7C445.8,253.1,432.3,312.7,424.2,322.9z"/>
<path class="st0" d="M394.9,204.7v63.6h-2l-18.3,0.8l-0.7,20.2L373,317c-2.4,3.4-7,5.5-12.6,7c-10.1-9.8-18.4-23.8-23.4-40.6
	c-11.3-37.9-1.3-73.2,26.3-81.4C373.7,198.7,384.7,199.9,394.9,204.7z"/>
<path class="st0" d="M397.2,191.9c-1.2-0.7-9.1-21.9-8.3-22.3s10.3-1,15.2,0s16,15.1,15.7,19.1s-3.4,5.9-9,5.6
	C406.2,193.9,401.6,193.1,397.2,191.9z"/>
<path class="st1" d="M394.9,185.1c-23.9,0-43.3,11.2-43.3,45.6c0,46,26.3,79,43.3,79c6.1,0,13.1-3.7,19.5-10.5
	c8.5-8.9,16.3-22.8,20.5-40.2c2.2-9.3,3.3-18.8,3.3-28.3C438.2,196.3,418.8,185.1,394.9,185.1z"/>
<path class="st2" d="M430.4,273.3l6.6-25.1c0,0,9.4-7.6,15.2-1.9c3.8,3.8-5.1,29-10,30C433.9,278,430.4,273.3,430.4,273.3z"/>
<path class="st2" d="M359.8,273.3l-7.7-27.4c0,0-8.3-5.2-14,0.4c-3.8,3.8,5.1,29,10,30C356.3,278,359.8,273.3,359.8,273.3z"/>
<path class="st3" d="M401.3,169.9c-0.7,0.2,6.2,4.3,8.5,8.4s5.2,7.2,5.6,13.7c0.8,15.4,25.4,34.2,25.4,56c0,17-18.1,43.1-19.1,60
	c-2.4,38.6,21.9,44.9,21.9,44.9s-5.3-27.5-5.3-37.4c0-63.7,34.3-47,12.8-100.9C437.5,181,408.4,167.4,401.3,169.9z"/>
<path class="st3" d="M363.8,390.7c0,0,8.7-39.5-21.5-75.6c-15.9-19-31.1-57-11.7-81c14.3-17.6,12.2-34.7,22.5-46.1
	c31.4-34.7,51.6-17.9,57.8-5.1c3.5,7.3,4.9,9.2,1.2,14.3c-12.3,17-32.9-17.3-63.2,52.6c-6.4,14.7,21.4,55.4,32.6,70.5
	C417,368.2,363.8,390.7,363.8,390.7z"/>
<path class="st0" d="M414.2,191.2c-3.6-5.8,0.8,4.7-27.5,1.7c-13.7-1.4-42.5,14.6-38.2,65.7c0,0,11-58.7,56.4-55.7
	C404.8,202.9,418.3,197.7,414.2,191.2z"/>
</svg>
