<svg id="Calque_9" data-name="Calque 9" xmlns="http://www.w3.org/2000/svg" viewBox="0 0 588 323.34"><defs><style>.cls-1{fill:#d68f72;}.cls-2{fill:#b9785c;}.cls-3{fill:#dbd1c1;}.cls-4{fill:#87b6c7;}.cls-5{fill:#6999aa;}</style></defs><path class="cls-1" d="M291.07,163.23c-5.22-3.46-7.61-.6-13.07,2.45-9.29,5.18-15.08,23-25.4,25.43-3.66.86-12.06-14.62-13-20.68-1.46-9.05,2.39-26.7-8-35.76-8.79-7.67-20.41-3.58-24.23-15.81-6.66-21.33,12.8-37.35,22.28-41.09C244.05,72.06,265,72.82,271,64l.91-26.88.65-19.59L290,16.71h2.08l17.43.78.66,19.59L311.1,64c6.07,8.86,27,8.1,41.43,13.81,9.47,3.74,28.94,19.76,22.28,41.09-3.82,12.23-15.44,8.14-24.24,15.81-10.39,9.06-6.53,26.71-8,35.76-1,6.06-9.38,21.54-13.05,20.68-10.32-2.42-16.11-20.25-25.39-25.43-5.47-3.05-7.85-5.91-13.07-2.45"/><path class="cls-2" d="M271.56,64.27s30.25,11.06,39.2-10.49l-1.22-36.29h-37Z"/><path class="cls-3" d="M336.76,249.56c6.52-28,24.84-166.8,15.77-169.7-3.15-1-29,11.29-61.93,12.29-36.28,1.1-79.81-8.46-82.72,4.93-4.15,19.15,33.77,124.7,40.4,152.48"/><path class="cls-3" d="M244.13,87.55c8.38,18-.87,28.24-3.85,37.35-4.73,14.47-2.53,44.54-4.32,59.3-.84,7-5.5,23-16.7,22.52h0c-14.37-1.3-14.91-18.78-14.76-25.51.3-13.68-4.05-70.61,3.38-86.22,0,0,6.72-16.27,19.46-17.59,8.19-.85,13.33,2.76,16.79,10.15Z"/><path class="cls-1" d="M222.89,206.73c-10.65,3.53-15.79-6.16-19.07-15.1-2.33-6.37-18.72-70.45-23.4-87.81-2.64-9.81-4.31-15,1.35-17.07,5.15-1.93,10.74,6.89,13,10.33,20.93,32.35,35.11,57.81,38.83,86.5C236,202.41,226.54,205.52,222.89,206.73Z"/><path class="cls-1" d="M176.73,57.39A82.53,82.53,0,0,1,167,44.53s-2.29,4.38-1.95,7c.28,2.13,5.49,11.22,5.49,11.22h0c-25.27-14.13-45.42-21.21-48.36-21.93-2.08-.52-7.94,2.3-7.94,2.3s23.94,14.25,30.39,18.67c22,15,27.24,23.05,34,36.29,1.2,2.33,15.08-.19,13-5.29-.72-1.78.47-12-1.29-14.72C183.29,67.24,177,57.69,176.73,57.39Z"/><path class="cls-3" d="M338,87.15c-8.39,17.95.86,28.24,3.84,37.35,4.73,14.47,2.54,44.54,4.32,59.3.85,7,5.51,23,16.7,22.51h0c14.38-1.29,14.92-18.77,14.77-25.5-.31-13.68,4.05-70.61-3.38-86.22,0,0-6.72-16.27-19.47-17.59-8.19-.86-13.33,2.75-16.78,10.15Z"/><path class="cls-1" d="M359.25,206.33c10.64,3.52,15.78-6.16,19.06-15.1,2.34-6.37,18.73-70.45,23.41-87.81,2.64-9.81,4.31-15-1.35-17.07-5.16-1.93-10.74,6.89-13,10.33-20.93,32.34-35.11,57.81-38.83,86.5C346.13,202,355.6,205.12,359.25,206.33Z"/><path class="cls-1" d="M405.41,57a81.8,81.8,0,0,0,9.77-12.87s2.3,4.38,2,7c-.28,2.13-5.49,11.22-5.49,11.22h0C436.91,48.22,457.06,41.14,460,40.41c2.09-.51,7.95,2.31,7.95,2.31S444,57,437.55,61.39c-21.95,15-27.23,23-34,36.29-1.19,2.33-15.07-.19-13-5.29.73-1.78-.46-12,1.29-14.73C398.85,66.84,405.14,57.29,405.41,57Z"/><polyline class="cls-4" points="238.11 70.92 251.58 134.57 238.31 221.27 228.46 264.1 228.46 285.57 357.92 281.06 357.92 263.47 347.59 227.87 328.91 131.75 339.15 70.92 326.45 67.1 315.58 131.75 265.6 131.75 252.51 66.97"/><polygon class="cls-5" points="347.34 279.62 237.14 275.19 254.51 205.22 331.39 205.22 347.34 279.62"/></svg>