<?xml version="1.0" encoding="utf-8"?>
<!-- Generator: Adobe Illustrator 26.0.1, SVG Export Plug-In . SVG Version: 6.00 Build 0)  -->
<svg version="1.1" id="Calque_9" xmlns="http://www.w3.org/2000/svg" xmlns:xlink="http://www.w3.org/1999/xlink" x="0px" y="0px"
	 viewBox="0 0 788 268.7" style="enable-background:new 0 0 788 268.7;" xml:space="preserve">
<style type="text/css">
	.st0{fill:#89777A;}
	.st1{fill:#90573A;}
	.st2{fill:#583134;}
	.st3{fill:#534741;}
	.st4{fill:#C1A8AB;}
</style>
<polygon class="st0" points="422.3,69.3 366.5,69.3 366.5,40.9 423.4,40.9 "/>
<path class="st1" d="M394,156c-5.5-3.6-8-0.6-13.7,2.5c-9.8,5.4-15.8,23.7-26.7,26.2c-3.9,0.9-12.7-15.1-13.7-21.3
	c-1.5-9.3,2.5-27.5-8.4-36.9c-9.2-7.9-21.5-3.7-25.5-16.3c-7-22,13.5-38.5,23.4-42.3c15.2-5.9,37.1-5.1,43.6-14.2l0.9-27.7l0.7-20.2
	L392.9,5h2.2l18.3,0.8l0.7,20.2l0.9,27.7c6.4,9.1,28.4,8.4,43.5,14.2c10,3.9,30.4,20.4,23.4,42.3c-4,12.6-16.2,8.4-25.5,16.3
	c-10.9,9.3-6.9,27.5-8.4,36.9c-1,6.2-9.9,22.2-13.7,21.3c-10.8-2.5-16.9-20.9-26.7-26.2C402,155.4,399.5,152.4,394,156"/>
<path class="st2" d="M373.2,51.8c0,0,31.9,15.4,41.3-6.8l-0.5-39.1h-40.8L373.2,51.8z"/>
<path class="st1" d="M349.8,90.1c-4.3,21.5-18,24.7-25.9,30.9c-12.6,9.9-29.3,38.2-39.7,50.2c-4.9,5.7-18.5,17-27.1,9.2l0,0
	c-10.6-10.6-2.9-23.9,1.3-29.8c8.6-12,28.3-34.5,34.9-47.8c4.9-9.9,7.6-20.7,23.1-29.8c0,0,15.3-10.2,26.3-3
	C349.7,74.7,351.6,81.3,349.8,90.1L349.8,90.1z"/>
<path class="st1" d="M280.1,165.2c-3.9-14.5-15.2-11.8-21.4-11c-6.7,0.9-68.8,24.1-85.8,29.9c-9.6,3.3-14.8,4.8-13.4,10.7
	c1.3,5.3,11.7,5,15.8,4.9c38.5-0.9,67.6-3.4,93.4-16.4C285.6,174.8,281.1,169,280.1,165.2z"/>
<path class="st1" d="M133,184.4c-7.6,4.1-19.1,9.2-19.1,9.2s5.8,4.6,8.3,4.9c2,0.2,10.5-4,10.5-4l8.1,2.6c-3.2,4.5-3.8,6.8-8,11.9
	c-3.2,3.9-13.3,10-18.1,12c-2.7,1.1-9,0.9-11.2,2.6c-1.6,1.2-2.9,7.1-2.9,7.1l15.1-0.9c0,0,20.6-7.3,27.2-10.3
	c7-3.2,20.4-11.3,25.8-16.6c1.7-1.7,5.1-5.1,3.9-10.1c-1-4.3-5.4-5.8-8.3-6.7C159.6,185,133.4,184.2,133,184.4z"/>
<path class="st1" d="M436.1,87.4c0.7,22,13.6,27.3,20.5,34.7c10.8,11.8,22.6,42.5,30.9,56.1c3.9,6.4,15.4,19.8,25.2,13.6l0,0
	c12.2-8.7,6.8-23.1,3.6-29.6c-6.5-13.3-22.3-38.7-26.5-52.9c-3.2-10.6-4.1-21.7-17.9-33.2c0,0-13.4-12.5-25.4-7.3
	C438.7,72.2,435.8,78.4,436.1,87.4L436.1,87.4z"/>
<path class="st1" d="M492.5,173c6.2-13.7,16.9-9.1,22.9-7.3c6.5,2,63.9,35.1,79.7,43.7c8.9,4.9,13.8,7.2,11.4,12.8
	c-2.2,5.1-12.4,3-16.4,2.2c-37.9-7.2-66.1-14.5-89.4-31.6C485.4,181.5,490.9,176.5,492.5,173z"/>
<path class="st1" d="M634.4,216.1c6.8,5.3,17.4,12.3,17.4,12.3s-6.5,3.6-9,3.5c-2-0.1-9.7-5.6-9.7-5.6l-8.4,1.2c2.4,5,2.7,7.3,6,13
	c2.5,4.4,11.4,12.1,15.9,14.8c2.4,1.5,8.7,2.3,10.7,4.4c1.3,1.5,1.7,7.5,1.7,7.5l-14.7-3.3c0,0-19.1-10.5-25.1-14.6
	c-6.4-4.4-18.3-14.5-22.7-20.6c-1.4-2-4.1-5.9-2.2-10.6c1.7-4,6.3-4.9,9.3-5.2C608,212.3,634.1,215.9,634.4,216.1z"/>
<path class="st3" d="M335.6,274l1.9-16.3h107.9l4.2,15.5c0.9,3.3-1.1,6.8-4.4,7.7c-0.5,0.1-1.1,0.2-1.6,0.2H342
	c-3.5,0-6.4-2.8-6.4-6.4C335.6,274.5,335.6,274.3,335.6,274z"/>
<polygon class="st3" points="310.2,72.7 335.9,162.8 332.2,245.7 337.4,257.7 445.4,257.7 457.6,240.8 444.7,176.7 458.9,121.7 
	474.9,72.7 424.6,57.8 394.3,83.6 359.8,58.8 "/>
<path class="st0" d="M386.2,77.9c0.3,0,8.1,5.8,8.1,5.8l8.9-7.2l-3.3-13.1l-5,1.1c0,0-6-2.2-6.8-1.1S386.2,77.9,386.2,77.9z"/>
<polygon class="st4" points="359.8,58.8 366.5,40.9 394.9,64.5 384.9,87.3 "/>
<polygon class="st4" points="430.1,58.8 423.4,40.9 394.9,64.5 405,87.3 "/>
</svg>
