<svg xmlns="http://www.w3.org/2000/svg" viewBox="0 0 588 323.34"><defs><style>.cls-1{fill:#d68f72;}.cls-2{fill:#6f412a;}.cls-3{fill:#4c2a33;}.cls-4{fill:#7c8e7b;}.cls-5{fill:#423632;}.cls-6{fill:#4e6566;}.cls-7{fill:#b9785c;}</style></defs><g id="Calque_9" data-name="Calque 9"><path class="cls-1" d="M321,85.42c0,19.82,12.9,25.22,19.53,32.21,10.53,11.11,21.42,39.28,29.38,51.89,3.76,5.95,14.91,18.53,24.92,13.33h0c12.57-7.26,5.57-23.33,2.55-29.36-6.15-12.27-26.59-65.69-40.07-76.68,0,0-13.12-11.89-25.33-7.69-7.85,2.69-11,8.14-11,16.3Z"/><path class="cls-1" d="M294,164.79c-5.48-3.57-8-.63-13.73,2.52-9.75,5.34-15.83,23.72-26.67,26.21-3.85.88-1-16.31-2-22.56-1.54-9.32-9.17-26.27-20.08-35.61-9.24-7.91-14.07-3.57-18.08-16.18-7-22,6.07-38.61,16-42.46,15.17-5.88,37.14-5.1,43.52-14.23l.94-27.7.69-20.19,18.32-.81h2.18l18.32.81.69,20.19.94,27.7c6.38,9.13,36,3.72,48.27,14.39,2.63,2.29,15.78,17.36,43.46,91.08,4.66,12.39-41-40.51-50.27-32.6-10.91,9.34-6.86,27.53-8.39,36.85-1,6.25-9.86,22.2-13.71,21.32-10.84-2.49-16.92-20.87-26.67-26.21-5.74-3.15-8.25-6.09-13.73-2.52"/><path class="cls-2" d="M270.76,68.22s36.7,44.44,46.1,22.23l-3.45-75.86H274.59Z"/><ellipse class="cls-3" cx="293.91" cy="26.37" rx="10.3" ry="1.63"/><path class="cls-4" d="M343.2,246.88c6.52-28,22.17-170,13.46-173.82-18.12-8-16.84-7.87-32.23-9.74-11.06-1.34-18.67,28-28.75,28.92-6.3.58-24-29.11-29.6-28a183.59,183.59,0,0,0-41.83,13.19c-3.66,19.24,7.2,144.8,13.83,172.58"/><path class="cls-1" d="M243.3,90.49c8.65,17.82-.45,28.25-3.29,37.41-4.51,14.53-1.86,44.56-3.43,59.35-.74,7-5.16,23.1-16.36,22.76h0c-14.39-1.08-15.2-18.55-15.15-25.28.11-13.68-.82-73.69,6.37-89.41,0,0,2.2-13.22,14.92-14.73,8.18-1,13.37,2.56,16.94,9.9Z"/><path class="cls-1" d="M205.51,200c-.42-16.54,5.16-25.94,12.44-29.42,10.32-4.94,76.13-.61,93.84-3.72,10-1.76,15.28-3,16.89,2.86,1.45,5.3-7.82,10.08-11.45,12-34.08,18-59.86,20.72-88.77,21.87C209.48,204.31,205.61,203.83,205.51,200Z"/><path class="cls-1" d="M356,167.35a82.36,82.36,0,0,1,13.69-8.59s-4.16-2.67-6.8-2.57c-2.15.09-11.67,4.47-11.67,4.47h0c16.32-23.91,25.17-43.34,26.15-46.21.7-2-1.58-8.12-1.58-8.12s-16.32,22.58-21.3,28.62C337.54,155.48,329.09,160,315.3,165.6c-2.43,1-1.15,15,4.11,13.42,1.84-.56,11.94,1.54,14.79,0C345.6,173,355.67,167.6,356,167.35Z"/><rect class="cls-5" x="234.85" y="222.93" width="109.24" height="23.41"/><path class="cls-1" d="M401.53,178.28c9.25-6.65,4.5-16.84-.77-25-3.75-5.84-45.75-58.68-57-73.19-6.35-8.2-9.52-12.74-14.63-9.35-4.65,3.09,4.28,15.49,6.14,19.25,19.67,39.61,20.11,62.32,41.1,83C390.15,186.49,398.35,180.56,401.53,178.28Z"/><path class="cls-4" d="M231.5,135.35s-3-23.39-6.36-58.48l24.32-8.65,27.44,48.9Z"/><path class="cls-6" d="M360.73,101.67,344.1,119l1.71,16.34H356.5c-2.57,5.24,12.61,43.64,15.81,44.25s22.57,8.1,22.57,8.1,11.89-11.38,15.41-15c1-1,.2-14.53.2-14.53-3.72-5.36-10-12.56-11.62-16C386.61,115.25,369,80.43,369,80.43s-13-11.12-12.37-7.37-1.93,21-1.4,21.66Z"/></g><g id="Calque_10" data-name="Calque 10"><polygon class="cls-4" points="234.85 273.14 234.85 220.21 350.17 193.56 350.17 273.14 234.85 273.14"/><path class="cls-6" d="M265.39,65.08l6.51-12.84s25,31.42,25,31.7-1,14.06-1,14.06Z"/><path class="cls-6" d="M304.14,92.82s-5.82-9.16-5.45-9.71,16.13-27.19,16.13-27.19,7,9.16,7.36,10-16.65,29.68-16.65,29.68Z"/><path class="cls-6" d="M225.14,76.87l14.87,51-1.9,40.3,51.36-.66,4.53-2.75,13.73,2.52-3.53,31L289.47,210s-1.56-8.9-1.6-11.31-61.31,18.06-63.46,17.62-24.17-13.71-24.17-13.71,4.44-98.64,4.83-102.55S225.14,76.87,225.14,76.87Z"/><path class="cls-4" d="M238.78,243c-3.22,3.77,14.63-15.1,13.28-15.35S240,214,235.56,222.5s-16.91,34.79,0,39.2,107.62,2.2,112.9-2.65,10.57-11.89,4.85-24.22-3.81-27-8.51-31.85S238.78,243,238.78,243Z"/><path class="cls-1" d="M289.71,52.2l14.34-1,20.41,4.75,21.35,21.86s12.17,22.59,8.89,23.73c-5,1.75-17.88-11.28-21.43-12.57-5.73-2.07-12.21-10.39-12.21-10.39l-13.46-.64s-9.86,4.63-10.46,4.64c-5.27.08-13.53-10.16-13.53-10.16L297.85,61l12.44.43L303,57.48s-7.37,1-8.16.65C293.09,57.46,289.71,52.2,289.71,52.2Z"/><path class="cls-1" d="M321,85.42c0,19.82,12.9,25.22,19.53,32.21,10.53,11.11,21.42,39.28,29.38,51.89,3.76,5.95,14.91,18.53,24.92,13.33h0c12.57-7.26,5.57-23.33,2.55-29.36-6.15-12.27-26.59-65.69-40.07-76.68,0,0-13.12-11.89-25.33-7.69-7.85,2.69-11,8.14-11,16.3Z"/><path class="cls-1" d="M294,164.79c-5.48-3.57-8-.63-13.73,2.52-9.75,5.34-15.83,23.72-26.67,26.21-3.85.88-1-16.31-2-22.56-1.54-9.32-9.17-26.27-20.08-35.61-9.24-7.91-14.07-3.57-18.08-16.18-7-22,6.07-38.61,16-42.46,15.17-5.88,37.14-5.1,43.52-14.23l.94-27.7.69-20.19,18.32-.81h2.18l18.32.81.69,20.19.94,27.7c6.38,9.13,36,3.72,48.27,14.39,2.63,2.29,15.78,17.36,43.46,91.08,4.66,12.39-41-40.51-50.27-32.6-10.91,9.34-6.86,27.53-8.39,36.85-1,6.25-9.86,22.2-13.71,21.32-10.84-2.49-16.92-20.87-26.67-26.21-5.74-3.15-8.25-6.09-13.73-2.52"/><path class="cls-7" d="M270.76,68.22s36.7,44.44,46.1,22.23l-3.45-75.86H274.59Z"/><path class="cls-4" d="M343.2,246.88c6.52-28,22.17-170,13.46-173.82-18.12-8-16.84-7.87-32.23-9.74-11.06-1.34-18.67,28-28.75,28.92-6.3.58-24-29.11-29.6-28a183.59,183.59,0,0,0-41.83,13.19c-3.66,19.24,7.2,144.8,13.83,172.58"/><path class="cls-1" d="M243.3,90.49c8.65,17.82-.45,28.25-3.29,37.41-4.51,14.53-1.86,44.56-3.43,59.35-.74,7-5.16,23.1-16.36,22.76h0c-14.39-1.08-15.2-18.55-15.15-25.28.11-13.68-.82-73.69,6.37-89.41,0,0,2.2-13.22,14.92-14.73,8.18-1,13.37,2.56,16.94,9.9Z"/><path class="cls-1" d="M205.51,200c-.42-16.54,5.16-25.94,12.44-29.42,10.32-4.94,76.13-.61,93.84-3.72,10-1.76,15.28-3,16.89,2.86,1.45,5.3-7.82,10.08-11.45,12-34.08,18-59.86,20.72-88.77,21.87C209.48,204.31,205.61,203.83,205.51,200Z"/><path class="cls-1" d="M356,167.35a82.36,82.36,0,0,1,13.69-8.59s-4.16-2.67-6.8-2.57c-2.15.09-11.67,4.47-11.67,4.47h0c16.32-23.91,25.17-43.34,26.15-46.21.7-2-1.58-8.12-1.58-8.12s-16.32,22.58-21.3,28.62C337.54,155.48,329.09,160,315.3,165.6c-2.43,1-1.15,15,4.11,13.42,1.84-.56,11.94,1.54,14.79,0C345.6,173,355.67,167.6,356,167.35Z"/><rect class="cls-5" x="234.85" y="222.93" width="109.24" height="23.41"/><path class="cls-1" d="M401.53,178.28c9.25-6.65,4.5-16.84-.77-25-3.75-5.84-45.75-58.68-57-73.19-6.35-8.2-9.52-12.74-14.63-9.35-4.65,3.09,4.28,15.49,6.14,19.25,19.67,39.61,20.11,62.32,41.1,83C390.15,186.49,398.35,180.56,401.53,178.28Z"/><path class="cls-4" d="M231.5,135.35s-3-23.39-6.36-58.48l24.32-8.65,27.44,48.9Z"/><path class="cls-6" d="M360.73,101.67,344.1,119l1.71,16.34H356.5c-2.57,5.24,12.61,43.64,15.81,44.25s22.57,8.1,22.57,8.1,11.89-11.38,15.41-15c1-1,.2-14.53.2-14.53-3.72-5.36-10-12.56-11.62-16C386.61,115.25,369,80.43,369,80.43s-13-11.12-12.37-7.37-1.93,21-1.4,21.66Z"/><polygon class="cls-4" points="234.85 273.14 234.85 220.21 350.17 193.56 350.17 273.14 234.85 273.14"/><path class="cls-6" d="M265.39,65.08l6.51-12.84s25,31.42,25,31.7-1,14.06-1,14.06Z"/><path class="cls-6" d="M304.14,92.82s-5.82-9.16-5.45-9.71,16.13-27.19,16.13-27.19,7,9.16,7.36,10-16.65,29.68-16.65,29.68Z"/><path class="cls-6" d="M225.14,76.87l14.87,51-1.9,40.3,51.36-.66,4.53-2.75,13.73,2.52-3.53,31L289.47,210s-1.56-8.9-1.6-11.31-61.31,18.06-63.46,17.62-24.17-13.71-24.17-13.71,4.44-98.64,4.83-102.55S225.14,76.87,225.14,76.87Z"/><path class="cls-4" d="M238.78,243c-3.22,3.77,14.63-15.1,13.28-15.35S240,214,235.56,222.5s-16.91,34.79,0,39.2,107.62,2.2,112.9-2.65,10.57-11.89,4.85-24.22-3.81-27-8.51-31.85S238.78,243,238.78,243Z"/><path class="cls-1" d="M289.71,52.2l14.34-1,20.41,4.75,21.35,21.86s12.17,22.59,8.89,23.73c-5,1.75-17.88-11.28-21.43-12.57-5.73-2.07-12.21-10.39-12.21-10.39l-13.46-.64s-9.86,4.63-10.46,4.64c-5.27.08-13.53-10.16-13.53-10.16L297.85,61l12.44.43L303,57.48s-7.37,1-8.16.65C293.09,57.46,289.71,52.2,289.71,52.2Z"/></g></svg>