<?xml version="1.0" encoding="utf-8"?>
<!-- Generator: Adobe Illustrator 26.0.1, SVG Export Plug-In . SVG Version: 6.00 Build 0)  -->
<svg version="1.1" id="Calque_1" xmlns="http://www.w3.org/2000/svg" xmlns:xlink="http://www.w3.org/1999/xlink" x="0px" y="0px"
	 viewBox="0 0 788 1005" style="enable-background:new 0 0 788 1005;" xml:space="preserve">
<style type="text/css">
	.st0{fill:#6D2914;}
	.st1{fill:#D68F72;}
	.st2{fill:#B9785C;}
	.st3{fill:#B9461D;}
</style>
<g id="Calque_9">
	<rect x="364.6" y="311.6" class="st0" width="60.9" height="22.1"/>
	<path class="st1" d="M394,416.2c-5.5-3.6-8-0.6-13.7,2.5c-9.8,5.3-15.8,23.7-26.7,26.2c-3.9,0.9-12.7-15.1-13.7-21.3
		c-1.5-9.3,2.5-27.5-8.4-36.9c-9.2-7.9-21.5-3.7-25.5-16.3c-7-22,13.5-38.5,23.4-42.3c15.2-5.9,37.1-5.1,43.5-14.2l0.9-27.7
		l0.7-20.2l18.3-0.8h2.2l18.3,0.8l0.7,20.2l0.9,27.7c6.4,9.1,28.4,8.4,43.5,14.2c10,3.8,30.4,20.4,23.4,42.3
		c-4,12.6-16.2,8.4-25.5,16.3c-10.9,9.3-6.9,27.5-8.4,36.9c-1,6.2-9.9,22.2-13.7,21.3c-10.8-2.5-16.9-20.9-26.7-26.2
		C402,415.6,399.5,412.7,394,416.2"/>
	<path class="st2" d="M373.5,314.2c0,0,31.8,11.4,41.2-10.8l-1.3-37.4h-38.8L373.5,314.2z"/>
	<path class="st1" d="M350.4,344.4c0.2,19.8-12.5,25.4-19,32.4C321.2,388,310.7,416.3,303,429c-3.6,6-14.5,18.7-24.5,13.6l0,0
		c-12.5-7.1-5.8-23.3-2.9-29.3c6-12.3,25.5-66,38.8-77.1c0,0,12.9-12,25-8C347.2,330.8,350.4,336.2,350.4,344.4L350.4,344.4z"/>
	<path class="st1" d="M274.7,425.5c5.2-10.5,15.6-6.7,24.2-2.1c6.1,3.2,62.7,41,78.2,51.1c8.8,5.7,13.6,8.5,11,14.2
		c-2.3,5.2-12.5,2.4-16.5,1.4c-37.7-9.9-65.6-19.4-88.4-38.9C268.3,438.4,273,429.1,274.7,425.5z"/>
	<path class="st1" d="M438,341c-8.4,18,0.9,28.2,3.8,37.4c4.7,14.5,2.5,44.5,4.3,59.3c0.9,7,5.5,23,16.7,22.5l0,0
		c14.4-1.3,14.9-18.8,14.8-25.5c-0.3-13.7,4-70.6-3.4-86.2c0,0-6.7-16.3-19.5-17.6C446.6,330,441.5,333.6,438,341z"/>
	<path class="st1" d="M459.2,460.1c10.6,3.5,15.8-6.2,19.1-15.1c2.3-6.4,18.7-70.4,23.4-87.8c2.6-9.8,4.3-15-1.4-17.1
		c-5.2-1.9-10.7,6.9-13,10.3c-20.9,32.4-35.1,57.8-38.8,86.5C446.1,455.8,455.6,458.9,459.2,460.1z"/>
	<path class="st1" d="M505.4,310.8c3.7-3.9,6.9-8.2,9.8-12.8c0,0,2.3,4.4,2,7c-0.3,2.1-5.5,11.2-5.5,11.2l0,0
		c25.2-14.2,45.4-21.2,48.3-22c2.1-0.5,8,2.3,8,2.3s-23.9,14.2-30.4,18.7c-22,15-27.2,23.1-34,36.3c-1.2,2.3-15.1-0.2-13-5.3
		c0.7-1.8-0.5-12,1.3-14.7C498.9,320.7,505.1,311.1,505.4,310.8z"/>
	<path class="st3" d="M350.7,321.6c7.9,4.2,44.2,41.2,44.2,41.2l43.3-41.2l18.5,3.6c0,0-1.8,103.7-1.9,113.5s7.3,78.5,7.3,78.5
		H325.4l6.1-130.5l-2.2-61.8L350.7,321.6z"/>
	
		<rect x="291.2" y="381.2" transform="matrix(0.3986 -0.9171 0.9171 0.3986 -187.1328 515.4326)" class="st0" width="16.5" height="38.3"/>
	<path class="st3" d="M329.3,325c0,0-12.9,6.4-14.9,8.8s-36.3,42.3-35.7,44s7.7,9.9,7.7,9.9l35.1,15.3c0,0,7.9-2.7,8.3-4
		s6.1,17.5,6.1,18.5s116.4-4,116.4-4l5.9-2.5l30.3-57.3c0,0-13.4-19.9-14.4-20.9s-14-7.5-14-7.5l-18.5-3.6c0,0-15.1-2.2-15.1-2.2
		S394.9,350,394.9,350s-30.3-31.9-30.4-30.5s-10.1,2.2-10.1,2.2L329.3,325z"/>
	<path class="st0" d="M373.5,357.5c0.6,1.5,21.4-7.6,21.4-7.6l-30.3-38.3c0,0-16.7,10.3-14,10S369.5,348,373.5,357.5z"/>
	<path class="st0" d="M416.2,357.5c-0.6,1.5-21.4-7.6-21.4-7.6l30.3-38.3c0,0,16.7,10.3,13.9,10S420.2,348,416.2,357.5z"/>
</g>
<g id="Calque_10">
	<rect x="325.4" y="517.3" class="st0" width="136.6" height="23.4"/>
</g>
</svg>
