<svg id="Calque_9" data-name="Calque 9" xmlns="http://www.w3.org/2000/svg" viewBox="0 0 588 323.34"><defs><style>.cls-1{fill:#89777a;}.cls-2{fill:#d68f72;}.cls-3{fill:#ad6542;}.cls-4{fill:#493c2f;}.cls-5{fill:#5e4f48;}.cls-6{fill:#f2d5bd;}.cls-7{fill:#8e7052;}</style></defs><path class="cls-1" d="M268.3,69.77l-1.8-19.44h56.89s4,14.58,3.8,14.35-28,10.31-28.79,9.95S270.32,72,268.3,69.77Z"/><path class="cls-2" d="M255,95.2c-4.3,21.53-18,24.68-25.91,30.88-12.62,9.85-29.26,38.17-39.71,50.2-4.93,5.67-18.47,17-27.07,9.22h0c-10.65-10.56-2.95-23.88,1.28-29.79,8.62-12,28.34-34.49,34.89-47.79,4.89-9.91,7.65-20.68,23.11-29.78,0,0,15.3-10.15,26.26-3,7,4.59,8.93,11.18,7.15,20.06Z"/><path class="cls-2" d="M185.21,170.31c-3.9-14.54-15.19-11.81-21.43-11-6.72.91-68.8,24.07-85.79,29.95-9.6,3.32-14.8,4.83-13.37,10.7,1.3,5.35,11.73,5,15.83,4.93,38.51-.85,67.55-3.41,93.37-16.45C190.77,179.91,186.21,174,185.21,170.31Z"/><path class="cls-2" d="M38.15,189.5c-7.6,4.13-19.14,9.25-19.14,9.25s5.85,4.62,8.28,4.9c2,.23,10.47-4,10.47-4l8.08,2.62c-3.19,4.53-3.82,6.79-8,11.86-3.22,3.9-13.27,10-18.12,12-2.64,1.09-9,.86-11.22,2.58-1.58,1.22-2.91,7.09-2.91,7.09L20.66,235s20.64-7.26,27.21-10.3c7-3.25,20.41-11.29,25.75-16.6,1.72-1.71,5-5.14,3.87-10.09-1-4.25-5.44-5.83-8.3-6.65C64.75,190.06,38.48,189.32,38.15,189.5Z"/><path class="cls-2" d="M333.05,100.2c4.3,21.53,18,24.68,25.91,30.88,12.62,9.85,29.26,38.17,39.71,50.2,4.93,5.67,18.47,17,27.07,9.22h0c10.65-10.56,2.95-23.88-1.28-29.79-8.62-12-28.34-34.49-34.89-47.79-4.89-9.91-7.65-20.68-23.11-29.78,0,0-15.3-10.15-26.26-3-7,4.59-8.93,11.18-7.15,20.06Z"/><path class="cls-2" d="M402.79,175.31c3.9-14.54,15.19-11.81,21.43-11,6.72.91,68.8,24.07,85.79,29.95,9.6,3.32,14.8,4.83,13.37,10.7-1.3,5.35-11.73,5-15.83,4.93-38.51-.85-67.55-3.41-93.37-16.45C397.23,184.91,401.79,179,402.79,175.31Z"/><path class="cls-2" d="M549.85,194.5c7.59,4.13,19.14,9.25,19.14,9.25s-5.85,4.62-8.28,4.9c-2,.23-10.47-4-10.47-4l-8.08,2.62c3.19,4.53,3.82,6.79,8,11.86,3.22,3.9,13.27,10,18.12,12,2.64,1.09,9,.86,11.22,2.58,1.58,1.22,2.91,7.09,2.91,7.09L567.34,240s-20.64-7.26-27.21-10.3c-7-3.25-20.41-11.29-25.75-16.6-1.72-1.71-5.05-5.14-3.87-10.09,1-4.25,5.44-5.83,8.3-6.65C523.25,195.06,549.52,194.32,549.85,194.5Z"/><path class="cls-2" d="M294,165.13c-5.48-3.57-8-.62-13.73,2.52-9.75,5.35-15.83,23.72-26.67,26.21-3.85.89-12.68-15.06-13.71-21.31-1.53-9.33,2.52-27.52-8.39-36.86-9.24-7.9-21.45-3.68-25.46-16.29-7-22,13.45-38.49,23.4-42.35C244.61,71.17,266.58,72,273,62.82l.94-27.7.69-20.19,18.32-.8h2.18l18.32.8.69,20.19.94,27.7c6.38,9.14,28.35,8.35,43.52,14.23C368.51,80.91,389,97.42,382,119.4c-4,12.61-16.22,8.39-25.46,16.29-10.91,9.34-6.86,27.53-8.39,36.86-1,6.25-9.86,22.2-13.71,21.31-10.84-2.49-16.92-20.86-26.67-26.21-5.74-3.14-8.25-6.09-13.73-2.52"/><path class="cls-3" d="M273.51,63.14s31.77,11.4,41.17-10.81l-1.27-37.4H274.59Z"/><path class="cls-4" d="M208.88,167c-1.76-1.76-36.11-37.87-32.59-40.52s38.13-48.68,38.13-48.68L260.8,66.06l28.66,48.1Z"/><path class="cls-4" d="M259.8,73.09c-.27-.35,3.29-4.62,3.41-5S286.55,81.39,287,82s7.08,5.57,7.08,5.57,18.52-12.9,19.11-12.91,10.79,1.59,9.36,2.09-14,209.62-14,209.62-50.5-3.56-50.71-3.07C242.23,318.89,259.8,73.09,259.8,73.09Z"/><path class="cls-4" d="M370.05,163.58c1.76-1.76,36.11-37.87,32.59-40.51s-38.13-48.69-38.13-48.69L318.12,62.63l-28.66,51.53Z"/><path class="cls-5" d="M252.17,67.1,288.23,118l-11.3,15.09s-2.09,28.76-3,53.67c-.18,4.79-3.24,73.39-1.6,77.33,4.63,11.07,13.87,20.72,13.87,20.72-1.33,4.31-2.56,7.25-16,20.72-6.36,6.34-13.47,11.75-22.09,9.27l-30-8.65c4.71-143.79,4.71-143.29,4.67-148.15,0-4.43,7.27-85.4,7.27-85.4Z"/><path class="cls-5" d="M330.64,66.06l-49,69.12s-6.49,124-4.27,131.19c1.57,5.11,22.38,29,34.34,42.38a19.7,19.7,0,0,0,20.18,5.83l32.85-9.46s-4.7-143.71-4.66-148.15-7.28-85.4-7.28-85.4Z"/><rect class="cls-4" x="233.98" y="240.85" width="35.67" height="9.83"/><rect class="cls-4" x="310.64" y="238.96" width="41.8" height="11.72"/><path class="cls-1" d="M286.17,87.3c.33,0,8.14,5.76,8.14,5.76l8.92-7.19-3.3-13.1-5,1.11s-6-2.21-6.79-1.11S286.17,87.3,286.17,87.3Z"/><polygon class="cls-6" points="259.8 68.2 266.5 50.33 294.94 73.88 284.9 96.7 259.8 68.2"/><polygon class="cls-6" points="330.08 68.2 323.39 50.33 294.94 73.88 304.99 96.7 330.08 68.2"/><rect class="cls-4" x="181.99" y="115.91" width="17.47" height="62.13" transform="translate(-49.33 165.77) rotate(-42.1)"/><rect class="cls-4" x="377.93" y="113.07" width="17.47" height="61.09" transform="translate(577.3 509.39) rotate(-137.9)"/><circle class="cls-7" cx="289.54" cy="150.36" r="3.38"/><circle class="cls-4" cx="288.23" cy="185.94" r="3.38"/><circle class="cls-4" cx="286.92" cy="220.44" r="3.38"/></svg>