<svg id="Calque_9" data-name="Calque 9" xmlns="http://www.w3.org/2000/svg" viewBox="0 0 588 323.34"><defs><style>.cls-1{fill:#89777a;}.cls-2{fill:#d68f72;}.cls-3{fill:#ad6542;}.cls-4{fill:#534741;}.cls-5{fill:#c1a8ab;}</style></defs><polygon class="cls-1" points="322.27 78.77 266.5 78.77 266.5 50.33 323.39 50.33 322.27 78.77"/><path class="cls-2" d="M294,165.43c-5.48-3.57-8-.63-13.73,2.52-9.75,5.34-15.83,23.72-26.67,26.21-3.85.88-12.68-15.07-13.71-21.32-1.53-9.32,2.52-27.51-8.39-36.85-9.24-7.91-21.45-3.69-25.46-16.3-7-22,13.45-38.49,23.4-42.34,15.17-5.88,37.14-5.1,43.52-14.23l.94-27.7.69-20.19,18.32-.81h2.18l18.32.81.69,20.19.94,27.7c6.38,9.13,28.35,8.35,43.52,14.23C368.51,81.2,389,97.72,382,119.69c-4,12.61-16.22,8.39-25.46,16.3-10.91,9.34-6.86,27.53-8.39,36.85-1,6.25-9.86,22.2-13.71,21.32-10.84-2.49-16.92-20.87-26.67-26.21-5.74-3.15-8.25-6.09-13.73-2.52"/><path class="cls-3" d="M273.23,61.18s31.94,15.4,41.34-6.8l-.45-39.15H273.3Z"/><path class="cls-2" d="M249.83,99.55c-4.31,21.54-18,24.69-25.91,30.89-12.62,9.84-29.26,38.17-39.72,50.2-4.92,5.67-18.46,17-27.07,9.21h0c-10.65-10.56-2.95-23.87,1.29-29.79,8.62-12,28.33-34.49,34.89-47.78,4.88-9.91,7.64-20.68,23.11-29.78,0,0,15.3-10.15,26.26-3,7,4.59,8.92,11.18,7.15,20Z"/><path class="cls-2" d="M180.09,174.67c-3.91-14.54-15.19-11.82-21.43-11-6.73.91-68.8,24.07-85.8,29.94-9.6,3.32-14.8,4.84-13.37,10.71,1.3,5.34,11.73,5,15.83,4.92,38.52-.84,67.55-3.41,93.38-16.44C185.65,184.27,181.09,178.39,180.09,174.67Z"/><path class="cls-2" d="M33,193.85c-7.6,4.14-19.14,9.26-19.14,9.26s5.85,4.62,8.28,4.9c2,.23,10.47-4,10.47-4l8.08,2.61c-3.2,4.54-3.83,6.8-8,11.86-3.23,3.9-13.27,10-18.12,12-2.65,1.09-9,.86-11.23,2.57-1.57,1.22-2.9,7.09-2.9,7.09l15.09-.87s20.63-7.26,27.21-10.3c7-3.24,20.41-11.28,25.75-16.6,1.71-1.71,5-5.13,3.86-10.08-1-4.26-5.43-5.83-8.3-6.66C59.62,194.42,33.35,193.67,33,193.85Z"/><path class="cls-2" d="M336.06,96.83c.7,22,13.65,27.31,20.47,34.74,10.82,11.78,22.57,42.46,30.9,56.05,3.92,6.41,15.41,19.8,25.18,13.55h0c12.25-8.66,6.84-23.06,3.64-29.6-6.51-13.29-22.27-38.68-26.54-52.88-3.18-10.57-4.13-21.65-17.89-33.17,0,0-13.42-12.54-25.4-7.29-7.71,3.37-10.65,9.56-10.36,18.6Z"/><path class="cls-2" d="M392.47,182.41c6.25-13.7,16.93-9.15,22.94-7.29,6.49,2,63.9,35.08,79.7,43.67,8.92,4.86,13.8,7.21,11.42,12.77-2.16,5.05-12.4,3-16.42,2.24-37.86-7.18-66.07-14.49-89.39-31.6C385.41,191,390.87,185.92,392.47,182.41Z"/><path class="cls-2" d="M534.36,225.56c6.81,5.33,17.36,12.28,17.36,12.28s-6.53,3.6-9,3.47c-2-.1-9.67-5.64-9.67-5.64l-8.4,1.25c2.4,5,2.65,7.33,6,13,2.54,4.38,11.43,12.08,15.89,14.85,2.42,1.5,8.74,2.33,10.65,4.39,1.35,1.46,1.69,7.46,1.69,7.46l-14.74-3.34S525,262.74,519,258.66c-6.39-4.36-18.28-14.49-22.66-20.62-1.41-2-4.14-5.89-2.16-10.58,1.71-4,6.33-4.85,9.29-5.2C508,221.74,534.07,225.33,534.36,225.56Z"/><path class="cls-4" d="M235.55,250.26,237.44,234H345.37l4.19,15.53a6.25,6.25,0,0,1-6,7.88H241.9A6.39,6.39,0,0,1,235.55,250.26Z"/><polygon class="cls-4" points="210.19 82.09 235.89 172.25 232.16 221.9 237.35 233.97 345.28 233.97 357.57 217.01 344.68 186.12 358.87 131.08 374.92 82.1 324.62 67.23 294.31 93.06 259.8 68.2 210.19 82.09"/><path class="cls-1" d="M286.17,87.3c.33,0,8.14,5.76,8.14,5.76l8.92-7.19-3.3-13.1-5,1.11s-6-2.21-6.79-1.11S286.17,87.3,286.17,87.3Z"/><polygon class="cls-5" points="259.8 68.2 266.5 50.33 294.94 73.88 284.9 96.7 259.8 68.2"/><polygon class="cls-5" points="330.08 68.2 323.39 50.33 294.94 73.88 304.99 96.7 330.08 68.2"/></svg>