<svg id="Calque_9" data-name="Calque 9" xmlns="http://www.w3.org/2000/svg" viewBox="0 0 588 323.34"><defs><style>.cls-1{fill:#4b4e62;}.cls-2{fill:#2d3138;}.cls-3{fill:#9f7038;}.cls-4{fill:#d68f72;}.cls-5{fill:#ad6542;}.cls-6{fill:#593500;}</style></defs><path class="cls-1" d="M265.3,103c-2.25.39-37.92-21.23-43.2-36.94s.26-28.14,22-32,58.31-8,76.78-11.89S356.59,30,366.3,42.9s9.88,36.53-1.77,38.1-23.44,13.83-43.64,15.13S265.3,103,265.3,103Z"/><path class="cls-2" d="M253,70.91c-8.85,0-25.73-21.1-13.44-28s45-16.33,43.09-16-62.38,1.63-68.19,21c-5.66,18.88,1.92,34.51,15,33.11S253,70.91,253,70.91Z"/><path class="cls-2" d="M327.08,21.39c-11.49-.81,24.14,17.87,14.45,37.69s2.2,30,23,21.92C387.76,72,394,26.12,327.08,21.39Z"/><path class="cls-3" d="M327.08,70c-.64.59-1,.87-1,.87l-18.43-3.52-1.11-5.85-4.42-23.35,6.23-23.12.05-.18,4,.18,1.25,36.68,0,.71L314,63C316.49,66.47,321.26,68.52,327.08,70Z"/><path class="cls-4" d="M381,119.53c-4,12.61-16.22,8.39-25.46,16.29-10.91,9.34-6.86,27.53-8.4,36.86-1,6.25-9.85,22.2-13.7,21.32-10.84-2.5-16.92-20.87-26.68-26.22-5.74-3.14-8.24-6.09-13.72-2.51-5.48-3.58-8-.63-13.73,2.51-9.75,5.35-15.84,23.72-26.68,26.22-3.85.88-12.67-15.07-13.7-21.32-1.53-9.33,2.52-27.52-8.4-36.86-9.24-7.9-21.44-3.68-25.45-16.29-7-22,14.47-34.68,24.42-38.53,15.17-5.88,36.12-8.91,42.5-18l1.63-47.88,18.32-.81h2.18l14.3.63,4,.18.68,20.18.57,16.5,0,.71L314,63c2.45,3.52,7.22,5.57,13,7.09,6.46,1.7,14.2,2.75,21.46,4.45a69.26,69.26,0,0,1,9,2.7C367.51,81,388,97.55,381,119.53Z"/><path class="cls-5" d="M313.68,52.46a20.65,20.65,0,0,1-7.15,9.08C293.51,70.76,272,63,272,63l1.63-47.88h38.82l1.25,36.68Z"/><path class="cls-4" d="M343.32,101.59c1.62,21.9,14.79,26.7,21.92,33.83,11.31,11.32,25.66,42.09,34.28,55.5,4.06,6.31,15.84,19.45,25.47,13h0c12.05-8.93,6.34-23.21,3-29.67-6.8-13.15-25.27-39.08-30.14-53.08-3.63-10.43-5-21.46-19.27-32.39,0,0-13.94-12-25.69-6.21-7.56,3.7-10.24,10-9.56,19Z"/><path class="cls-4" d="M422.51,176.09c13.4,6.88,9.86,18.8,7.72,24.72-2.31,6.38-37.88,61.87-46.89,77.43-5.09,8.79-7.57,13.6-13.06,11.08-5-2.29-4.92-7.18-1.81-16.48,15.81-47.3,15.84-55.48,31.76-88.15C407,170.78,419.09,174.33,422.51,176.09Z"/><path class="cls-4" d="M253.45,107.1c-4.31,21.53-18,24.68-25.92,30.88-12.61,9.85-29.26,38.17-39.71,50.2-4.93,5.67-18.46,17-27.07,9.22h0c-10.65-10.56-2.95-23.88,1.29-29.79,8.61-12,28.33-34.49,34.89-47.79,4.88-9.91,7.64-20.68,23.1-29.78,0,0,15.31-10.15,26.26-3,7.05,4.59,8.93,11.18,7.16,20.06Z"/><path class="cls-4" d="M170.36,196c15-1.18,14.4-12.77,14.71-19.06.33-6.78-11.08-72-13.75-89.83-1.51-10-2-15.43-8.08-15.1-5.49.3-7.6,10.57-7.73,14.66-1.48,44.39-1.48,55-.92,94.81C154.86,200.5,166.52,196.33,170.36,196Z"/><path class="cls-4" d="M185.42,60.85a7,7,0,0,1,3.4-3c2.52-1,6.23-2.35,6-1.08-.43,1.9-7.23,19.43-7.23,19.43s-10.71,6.47-15.2,17.09c-1,2.3-15.06.89-15.06.89l-1-7.43L143.81,62.89l-1.47-29.43a2.14,2.14,0,0,1,1.84-2.22h0a2.13,2.13,0,0,1,2.4,1.78l4.62,21-3.12-33.13a3,3,0,0,1,2.55-3.11l.25,0a3,3,0,0,1,3.3,2.32l4.38,28-.73-28.46a3,3,0,0,1,2.56-3.16h0A3,3,0,0,1,163.73,19l4,29.35,7.55-8.7c2-.28,10.48,4.18,10.48,4.18.48,1,3.82,9.94,3.82,9.94l-3.31-.3a5.35,5.35,0,0,1-4.42-3.19l-.27-.6-2.91-.47L175,58.78l2.95,9.12,4.48-1.71Z"/><path class="cls-6" d="M188.67,121.09l34.46,36.77,9.12-13.41-3.19,159.63,129.88-.8L356.5,137.63l14.89,26.67,38.45-27.91-31.2-50.45L340.72,74.18S306,86.27,294,85.94c-10.74-.3-41-12.79-41-12.79L216.48,85.69l-27.81,35.4"/><path class="cls-4" d="M336.13,286.42s-1.52-3.93-.7-4.61,15.42-7.72,16.23-7.46,15.79.14,16.9,0,11.36,8.33,10.91,9-11.18,23.12-12.81,23.55-7.41,3.91-8.22,3.65S340,297.36,340,297.36l2-8Z"/><path class="cls-2" d="M258.51,59.08c.58,2,20.89,39.9,19,45.07s-11.27,183.77-12.2,188.27-2,32.16-4.13,30.88-33.6-9.17-31.71-9.17.09-20.93,0-21.71-12-21.23-12-23.23,4.7-119.44,5.66-113.56-47.27,47-49.91,47.59-14.16,10-19,0-7.31-83.33-7.31-83.33l7.78-7.93,1.66-11.55s16-7.13,16.84-.34,1.32,6,1.32,7.93,6.6,2.64,6.6,4.62c0,.85,6.15,1.9,7.53,6.23h0l4.3-5.48,23.51-29.92,27.63-12.54Z"/><path class="cls-2" d="M341.53,59.08c-.58,2-20.89,39.9-19,45.07s11.27,183.77,12.2,188.27,2,32.16,4.13,30.88,27-7.15,25.09-7.15,6.53-22.95,6.62-23.73,12-21.23,12-23.23-4.7-119.44-5.65-113.56,13,32.44,15.6,33-24.82,58.84-20,48.84-5.85,69.37-5.85,69.37l24.54-14.42s52.41-79.62,50.9-109.85c-1.43-28.74-58.54-99.12-58.54-99.12L355.94,70.91Z"/></svg>