<?xml version="1.0" encoding="utf-8"?>
<!-- Generator: Adobe Illustrator 26.0.1, SVG Export Plug-In . SVG Version: 6.00 Build 0)  -->
<svg version="1.1" id="Calque_9" xmlns="http://www.w3.org/2000/svg" xmlns:xlink="http://www.w3.org/1999/xlink" x="0px" y="0px"
	 viewBox="0 0 788 1005" style="enable-background:new 0 0 788 1005;" xml:space="preserve">
<style type="text/css">
	.st0{fill:#D68F72;}
	.st1{fill:#B9785C;}
	.st2{fill:#4E6566;}
	.st3{fill:#55427C;}
</style>
<path class="st0" d="M394,418.4c-5.5-3.6-8-0.6-13.7,2.5c-9.8,5.3-15.8,23.7-26.7,26.2c-3.9,0.9-12.7-15.1-13.7-21.3
	c-1.5-9.3,2.5-27.5-8.4-36.9c-9.2-7.9-21.5-3.7-25.5-16.3c-7-22,13.5-38.5,23.4-42.3c15.2-5.9,37.1-5.1,43.5-14.2l0.9-27.7l0.7-20.2
	l18.3-0.8h2.2l18.3,0.8l0.7,20.2l0.9,27.7c6.4,9.1,28.4,8.4,43.5,14.2c10,3.9,30.4,20.4,23.4,42.3c-4,12.6-16.2,8.4-25.5,16.3
	c-10.9,9.3-6.9,27.5-8.4,36.9c-1,6.2-9.9,22.2-13.7,21.3c-10.8-2.5-16.9-20.9-26.7-26.2C402,417.8,399.5,414.8,394,418.4"/>
<path class="st1" d="M373.5,316.4c0,0,31.8,11.4,41.2-10.8l-1.3-37.4h-38.8L373.5,316.4z"/>
<path class="st0" d="M582.2,374.5c0.3-2.5,8.1-17.2,9-19.2s19-12.5,19.7-11.6s-1,6.2-1,6.2l-5.9,4.6l18.2-5c0,0,23.2-8.7,22.8-7.4
	c-0.2,2.2-0.3,4.4-0.3,6.6l-19.4,9.5l-6.3,15.8c0,0-22.9,10-26.1,9.6c-0.9-0.1-5.3,1.7-6.7-1.3C585.3,380.6,582.2,374.5,582.2,374.5
	z"/>
<path class="st0" d="M342.3,345.1c3.2,19.5-8.5,27-13.8,34.9c-8.5,12.7-14.5,42.2-20.2,56c-2.7,6.5-11.5,20.7-22.2,17.2
	c-13.5-5.1-9.3-22.1-7.3-28.5c4-13.1,21.9-67.6,34.6-79.3c6.5-6,12.1-17.8,24.7-15.6C346.2,331.2,340.9,337.1,342.3,345.1
	L342.3,345.1z"/>
<path class="st0" d="M433.7,349.1c2.7,19.6,16,23.3,23.5,29.3c11.8,9.6,26.2,36.1,35.7,47.5c4.5,5.4,17.1,16.4,26.2,9.9l0,0
	c11.4-8.9,2.4-23.9-1.4-29.4c-7.7-11.3-38.9-55.4-53.5-64.5c0,0-10.4-16.2-21.9-10.4C435,335.2,432.6,341.1,433.7,349.1L433.7,349.1
	z"/>
<path class="st0" d="M505.1,431.6c5.9,9.5,16.1,5.4,24.3,0.7c5.9-3.4,56.1-43.6,70.8-53.9c8.3-5.8,6.4-7.8,3.4-13
	c-2.7-4.8-18.5,5.2-22.2,7.1c-36.9,19.7-44.9,17.5-69.7,34.5C496.2,417.7,503.1,428.3,505.1,431.6z"/>
<rect x="335" y="478.7" class="st2" width="115.3" height="23.4"/>
<path class="st3" d="M335,328.5c-0.3,5.8,0,64.5,0,64.5v70.1l2.3,27.4H445l5.3-26.9l3.2-79.3v-55.6l-36.7-10.8
	c0,0-19.7,14.9-22,14.9s-21.4-16.3-21.4-16.3L335,328.5z"/>
<path class="st0" d="M276.2,440.9c-2.3-11,7.9-15,17.2-17.2c6.6-1.6,72.1-10.6,89.9-13.2c10-1.5,15.4-2.6,16.8,3.3
	c1.3,5.3-19.3,10.8-23.1,12.3c-35.4,14.1-50.2,19.5-79,28.1C279.8,459.6,277,444.7,276.2,440.9z"/>
<path class="st0" d="M370.4,413.6c4.8-2.5,13.9-12.6,15.1-14.3s16.9-9.7,17.5-8.8s0.8,4.5,0.8,4.5l-8.8,7.4l22.1-4.1
	c0,0,14-2.9,18.5-2.2c1.3,0.2-0.9,4.5-0.9,4.5l-20.8,8l-6.4,13.2c-2,4.2-6.2,6.9-10.8,7c-5.2,0.1-11.3,0.2-13-0.3
	c-0.9-0.2-7.4-1.5-8.2-4.4C375,422.4,370.4,413.6,370.4,413.6z"/>
<path class="st3" d="M282,400.7l39.5,8.6L335,393l14.5-69l-39.7,9.8C305.4,342.5,282,400.7,282,400.7z"/>
<polygon class="st3" points="441,409.3 456.7,394.9 484.2,413.9 507.5,389.6 470.6,333.5 447.3,326.8 433.7,349.1 "/>
<path class="st3" d="M335.4,455.8l-12.1,68c-0.9,5.1,2.9,9.8,8.1,9.9l129,2.9c5.3,0.1,9.4-4.6,8.6-9.8c-2.8-16.6-8-49.3-9-63.2
	c-1.3-17.8-3.3-16.4-3.3-68.7c0-11-22.9,59.5-30.8,64.7S335.4,455.8,335.4,455.8z"/>
</svg>
