<?xml version="1.0" encoding="utf-8"?>
<!-- Generator: Adobe Illustrator 26.0.1, SVG Export Plug-In . SVG Version: 6.00 Build 0)  -->
<svg version="1.1" id="Calque_9" xmlns="http://www.w3.org/2000/svg" xmlns:xlink="http://www.w3.org/1999/xlink" x="0px" y="0px"
	 viewBox="0 0 788 268.7" style="enable-background:new 0 0 788 268.7;" xml:space="preserve">
<style type="text/css">
	.st0{fill:#4B6253;}
	.st1{fill:#5A8067;}
	.st2{fill:#231713;}
	.st3{fill:#90573A;}
	.st4{fill:#583134;}
	.st5{fill:#FFD241;}
</style>
<g>
	<path class="st0" d="M366,88.6c-2.2,0.4-37.9-21.2-43.2-36.9s0.3-28.1,22-32s58.3-8,76.8-11.9s35.7,7.9,45.4,20.8
		s9.9,36.5-1.8,38.1s-23.4,13.8-43.6,15.2S366,88.6,366,88.6z"/>
	<path class="st1" d="M353.7,56.5c-8.9,0-25.7-21.1-13.4-28s45-16.3,43.1-16s-62.4,1.6-68.2,21c-5.7,18.9,1.9,34.5,15,33.1
		S353.7,56.5,353.7,56.5z"/>
	<path class="st1" d="M427.8,7c-11.5-0.8,24.1,17.9,14.5,37.7s2.2,30,23,21.9C488.5,57.7,494.7,11.7,427.8,7z"/>
	<path class="st2" d="M427.8,55.7c-0.6,0.6-1,0.9-1,0.9l-18.4-3.5l-1.1-5.9l-4.4-23.4l6.2-23.1V0.5l4,0.2l1.2,36.7v0.7l0.4,10.5
		C417.2,52.1,422,54.2,427.8,55.7z"/>
	<path class="st3" d="M481.7,105.2c-4,12.6-16.2,8.4-25.5,16.3c-10.9,9.3-6.9,27.5-8.4,36.9c-1,6.2-9.9,22.2-13.7,21.3
		c-10.8-2.5-16.9-20.9-26.7-26.2c-5.7-3.1-8.2-6.1-13.7-2.5c-5.5-3.6-8-0.6-13.7,2.5c-9.8,5.4-15.8,23.7-26.7,26.2
		c-3.9,0.9-12.7-15.1-13.7-21.3c-1.5-9.3,2.5-27.5-8.4-36.9c-9.2-7.9-21.4-3.7-25.5-16.3c-7-22,14.5-34.7,24.4-38.5
		c15.2-5.9,36.1-8.9,42.5-18l1.6-47.9L392.5,0h2.2L409,0.6l4,0.2l0.7,20.2l0.6,16.5v0.7l0.4,10.5c2.5,3.5,7.2,5.6,13,7.1
		c6.5,1.7,14.2,2.8,21.5,4.5c3.1,0.7,6.1,1.6,9,2.7C468.2,66.7,488.7,83.2,481.7,105.2z"/>
	<path class="st4" d="M414.4,38.1c-1.5,3.6-4,6.8-7.1,9.1c-13,9.2-34.6,1.4-34.6,1.4l1.6-47.9h38.8l1.2,36.7L414.4,38.1z"/>
	<path class="st3" d="M444,87.2c1.6,21.9,14.8,26.7,21.9,33.8c11.3,11.3,25.7,42.1,34.3,55.5c4.1,6.3,15.8,19.5,25.5,13l0,0
		c12-8.9,6.3-23.2,3-29.7c-6.8-13.1-25.3-39.1-30.1-53.1c-3.6-10.4-5-21.5-19.3-32.4c0,0-13.9-12-25.7-6.2
		C446,71.9,443.3,78.2,444,87.2L444,87.2z"/>
	<path class="st3" d="M523.2,161.7c13.4,6.9,9.9,18.8,7.7,24.7c-2.3,6.4-37.9,61.9-46.9,77.4c-5.1,8.8-7.6,13.6-13.1,11.1
		c-5-2.3-4.9-7.2-1.8-16.5c15.8-47.3,15.8-55.5,31.8-88.2C507.7,156.4,519.8,160,523.2,161.7z"/>
	<path class="st3" d="M354.2,92.7c-4.3,21.5-18,24.7-25.9,30.9c-12.6,9.8-29.3,38.2-39.7,50.2c-4.9,5.7-18.5,17-27.1,9.2l0,0
		c-10.6-10.6-3-23.9,1.3-29.8c8.6-12,28.3-34.5,34.9-47.8c4.9-9.9,7.6-20.7,23.1-29.8c0,0,15.3-10.2,26.3-3
		C354,77.3,355.9,83.9,354.2,92.7L354.2,92.7z"/>
	<path class="st3" d="M271.1,181.7c15-1.2,14.4-12.8,14.7-19.1c0.3-6.8-11.1-72-13.7-89.8c-1.5-10-2-15.4-8.1-15.1
		c-5.5,0.3-7.6,10.6-7.7,14.7c-1.5,44.4-1.5,55-0.9,94.8C255.6,186.1,267.2,182,271.1,181.7z"/>
	<path class="st3" d="M286.1,46.5c0.8-1.4,2-2.4,3.4-3c2.5-1,6.2-2.4,6-1.1c-0.4,1.9-7.2,19.4-7.2,19.4s-10.7,6.5-15.2,17.1
		c-1,2.3-15.1,0.9-15.1,0.9l-1-7.4l-12.5-23.8L243,19.2c0-1.1,0.7-2.1,1.8-2.2l0,0c1.2-0.2,2.2,0.6,2.4,1.8l4.6,21l-3.1-33.1
		c-0.1-1.5,1-2.9,2.6-3.1h0.2c1.5-0.2,3,0.8,3.3,2.3l4.4,28l-0.7-28.5c-0.1-1.6,1-2.9,2.6-3.2l0,0c1.6-0.2,3.1,0.9,3.3,2.5l4,29.4
		l7.5-8.7c2-0.3,10.5,4.2,10.5,4.2c0.5,1,3.8,9.9,3.8,9.9l-3.3-0.3c-1.9-0.2-3.6-1.4-4.4-3.2l-0.3-0.6l-2.9-0.5l-3.7,9.6l3,9.1
		l4.5-1.7L286.1,46.5z"/>
	<path class="st5" d="M289.4,106.7l34.5,36.8l9.1-13.4v133l129.9-0.8l-5.6-139l14.9,26.7l38.5-27.9l-31.2-50.5l-38.1-11.8
		c0,0-34.7,12.1-46.7,11.8c-10.7-0.3-41-12.8-41-12.8l-36.5,12.5L289.4,106.7"/>
	<path class="st3" d="M436.8,272c0,0-1.5-3.9-0.7-4.6s15.4-7.7,16.2-7.5s15.8,0.2,16.9,0s11.4,8.3,10.9,9s-11.2,23.1-12.8,23.5
		s-7.4,3.9-8.2,3.7S440.7,283,440.7,283l2-8L436.8,272z"/>
	<path class="st1" d="M359.2,44.7c0.6,2,20.9,39.9,19,45.1S366.9,273.6,366,278.1s-2,32.2-4.1,30.9s-33.6-9.1-31.7-9.1
		s0.1-20.9,0-21.7s-12-21.2-12-23.2s4.7-119.4,5.7-113.6s-47.3,47-49.9,47.6s-14.2,10-19,0s-7.3-83.3-7.3-83.3l7.8-7.9l1.7-11.6
		c0,0,16-7.1,16.8-0.3s1.3,5.9,1.3,7.9s6.6,2.6,6.6,4.6c0,0.9,6.1,1.9,7.5,6.2l0,0l4.3-5.5l23.5-29.9l27.6-12.5L359.2,44.7z"/>
	<path class="st1" d="M442.2,44.7c-0.6,2-20.9,39.9-19,45.1s11.3,183.8,12.2,188.3s2,32.2,4.1,30.9s27-7.1,25.1-7.1
		s6.5-22.9,6.6-23.7s12-21.2,12-23.2s-4.7-119.4-5.6-113.6s13,32.5,15.6,33s-24.8,58.8-20,48.8s-5.9,69.4-5.9,69.4l24.5-14.4
		c0,0,52.4-79.6,50.9-109.9c-1.4-28.7-58.5-99.1-58.5-99.1l-27.5-12.6L442.2,44.7z"/>
</g>
</svg>
