<?xml version="1.0" encoding="utf-8"?>
<!-- Generator: Adobe Illustrator 26.0.3, SVG Export Plug-In . SVG Version: 6.00 Build 0)  -->
<svg version="1.1" id="Calque_1" xmlns="http://www.w3.org/2000/svg" xmlns:xlink="http://www.w3.org/1999/xlink" x="0px" y="0px"
	 viewBox="0 0 788 1005" style="enable-background:new 0 0 788 1005;" xml:space="preserve">
<style type="text/css">
	.st0{fill:#7C8E7B;}
	.st1{fill:#D4C06D;}
	.st2{fill:#BDCCD4;}
	.st3{fill:#FD8C75;}
	.st4{fill:#E3AB58;}
	.st5{fill:#BC8B4B;}
	.st6{fill:none;stroke:#3F507E;stroke-width:2;stroke-linecap:round;stroke-miterlimit:10;}
	.st7{fill:#3F507E;}
</style>
<path class="st0" d="M339,503.3c6.9,29.1,53,73.8,53,73.8s45.3-47.7,52.1-77"/>
<path class="st1" d="M334.4,726.2c1.2,10.9,8.5,19.2,16.9,19.4l0,0c8.1,0.2,15.1-7.1,16.6-17.4c0,0,8.8-73.4,9-99.7
	c0-6.2-1.6-24.9-1.6-24.9l-3.9-43.5c0,0-2.8-20.5-19.5-23c-19.3-2.9-19.6,10.5-19.6,10.5s-6.2,69-6,90.9
	C326.5,658.7,334.4,726.2,334.4,726.2z"/>
<path class="st2" d="M472.2,718.1c0.8,11-4.9,20.4-13.2,22.1l0,0c-8,1.6-16.1-4.3-19.4-14.2c0,0-21.8-70.6-26.8-96.5
	c-1.2-6.1-2.9-24.8-2.9-24.8l-3.9-43.5c0,0-1-20.7,15.1-26.1c18.5-6.3,28.8,1.5,28.8,1.5s10.9,72.1,14.6,93.6
	C467.9,650.2,472.2,718.1,472.2,718.1z"/>
<path class="st3" d="M351.2,708.9c-9.2,0.2-14.6,5.3-16,13.4c0,0-1.5,36.4-1.7,51.7c-0.4,24.6,2.5,74.7,6.5,99
	c0.9,5.3,2.8,21.3,2.8,21.3c0.5,4.6,4.4,8.1,9,8l0,0c4.6-0.4,8.1-4.1,8.2-8.7c0,0,0.8-18.5,1.4-24.7c2.2-22.3,4.7-74,5.2-96.5
	c0.3-13.5,2.5-47.3,2.5-47.3C368.1,711.7,359.1,709,351.2,708.9L351.2,708.9z"/>
<path class="st3" d="M456.4,701.2c9.1-1.3,5.2-18.6,7.8-10.6c0,0,17.7,132.4,20.1,147.8c3.8,24.6,7.4,47.5,7.4,47.5
	c0.1,4.9,4.5,10.5,0,11.1l-8.5-1.3c-4.4,0.5-9.8-1.5-10.7-6.2c0,0-19.2-94.5-22.8-116.9c-2.2-13.5-8.5-51.9-8.5-51.9
	C440.2,706.9,448.7,702.7,456.4,701.2z"/>
<path class="st4" d="M349.5,885.9L349.5,885.9c-4.2,0.2-8,2.8-9.6,6.6l0,0c-4,8.9-20.8,20.9-20.8,20.9c-3,2.6-4.5,6.6-3.8,10.6l0,0
	l41.1-0.2l2.3-0.7c2.7-1,4.4-3.6,4.1-6.5l-2.4-21.7C359.4,889.6,354.8,885.9,349.5,885.9z"/>
<path class="st5" d="M316.5,923.8L316.5,923.8c-0.6-3.5,1.7-6.8,5.1-7.5l24.4-3.9c3.2-0.4,6.2,1.7,6.9,4.9l1.4,6.2L316.5,923.8z"/>
<path class="st6" d="M340.9,894.5c0,0,3.2-2.5,6-2.6c2.4,0.1,4.8,0.8,6.8,2.1"/>
<path class="st6" d="M338,899.3c0,0,3.2-2.4,6.1-2.4c2.4,0.1,4.8,0.9,6.8,2.2"/>
<path class="st4" d="M481.6,891.2c4.2-2.1,3.8-6.1,5.4-8.4c1-1.4,5.2-3.1,5.9-1.4c8.1,19.2,42.8,28.4,42.8,28.4
	c3.8,3.1,4.8,7.6,4.3,12.5l0,0c0,0-29.8,11-45.7,0.5c-3.2-2.1-11.3-2.8-11.3-2.8s-14.5,0.6-13.9-5.4l1.2-26.7
	C471.1,881.3,474.3,894.8,481.6,891.2z"/>
<path class="st5" d="M540.3,922.1c0.2-7.8-3.5-12.5-4.6-12.3c-1.7,0.4-4.3,2.3-6,2.8c-2.7,0.7-10.8,0.3-10.8,0.3
	c-2.1-0.2-3.7,2.6-3.7,6.3l0.2,7.5c0,0,5,0.6,16.6-2.3C534,924,540.3,922.1,540.3,922.1z"/>
<path class="st6" d="M497.7,891.4c-1.9,1.1-3.9,1.8-6,2.2"/>
<path class="st6" d="M501.8,895.5c-1.8,1.2-3.8,2.1-5.9,2.7"/>
<path class="st7" d="M338.7,863.7l23.3,0.6c-0.5-4.3,26.2-261.1,26.2-261.1l0,0c0,0,37.3,115.2,40.6,123.7s38,139.3,38,139.3l0,0
	l20.6-4.7l-10-139.6l-1.9-16.1l-25.6-169l-5.5-48.2c0,0-103.8-17-103.8-6.2s-24.9,89.5-25.4,109.6
	C313.6,652.8,338.7,863.7,338.7,863.7"/>
</svg>
