<?xml version="1.0" encoding="utf-8"?>
<!-- Generator: Adobe Illustrator 26.0.3, SVG Export Plug-In . SVG Version: 6.00 Build 0)  -->
<svg version="1.1" id="Calque_1" xmlns="http://www.w3.org/2000/svg" xmlns:xlink="http://www.w3.org/1999/xlink" x="0px" y="0px"
	 viewBox="0 0 388 514" style="enable-background:new 0 0 388 514;" xml:space="preserve">
<style type="text/css">
	.st0{fill:#FF931E;}
	.st1{fill:#FD8C75;}
	.st2{fill:#22677C;}
	.st3{fill:#4E6566;}
	.st4{fill:none;stroke:#4E6566;stroke-width:2;stroke-linecap:round;stroke-miterlimit:10;}
	.st5{fill:#293C51;}
	.st6{fill:#314A60;}
</style>
<path class="st0" d="M124.4,273.3c1.2,10.9,8.5,19.2,16.9,19.4l0,0c8.1,0.2,15.1-7.1,16.6-17.4c0,0,8.8-73.4,9-99.7
	c0-6.2-1.6-24.9-1.6-24.9l-3.9-43.5c0,0-2.8-20.5-19.5-23c-19.3-2.9-19.6,10.5-19.6,10.5s-6.2,69-6,90.9
	C116.5,205.8,124.4,273.3,124.4,273.3z"/>
<path class="st0" d="M262.2,265.2c0.8,11-4.9,20.4-13.2,22.1l0,0c-8,1.6-16.1-4.3-19.4-14.2c0,0-21.8-70.6-26.8-96.5
	c-1.2-6.1-2.9-24.8-2.9-24.8l-3.9-43.5c0,0-1-20.7,15.1-26.1c18.5-6.3,21.2,6.8,21.2,6.8s18.5,66.8,22.2,88.3
	C257.9,197.3,262.2,265.2,262.2,265.2z"/>
<path class="st1" d="M141.2,256c-9.2,0.2-14.6,5.3-16,13.4c0,0-1.5,36.4-1.7,51.7c-0.4,24.6,2.5,74.7,6.5,99
	c0.9,5.3,2.8,21.3,2.8,21.3c0.5,4.6,4.4,8.1,9,8l0,0c4.6-0.4,8.1-4.1,8.2-8.7c0,0,0.8-18.5,1.4-24.7c2.2-22.3,9.5-66.6,10-89
	c0.3-13.5-2.3-54.8-2.3-54.8C158.1,258.7,149.1,256.1,141.2,256L141.2,256z"/>
<path class="st1" d="M246.4,248.3c9.1-1.3,15.1,2.9,17.7,10.8c0,0,7.5,34.3,9.9,49.7c3.8,24.6,3.4,122,3.4,122
	c0.1,4.9,0.2,11.4-4.2,11.9l0,0c-4.4,0.5-9.8-1.5-10.7-6.2c0,0-22.2-91-25.9-113.4c-2.2-13.5-5.5-55.4-5.5-55.4
	C230.2,254,238.7,249.8,246.4,248.3L246.4,248.3z"/>
<path class="st2" d="M139.5,433L139.5,433c-4.2,0.2-8,2.8-9.6,6.6l0,0c-4,8.9-20.8,20.9-20.8,20.9c-3,2.6-4.5,6.6-3.8,10.6l0,0
	l41.1-0.2l2.3-0.7c2.7-1,4.4-3.6,4.1-6.5l-2.4-21.7C149.4,436.7,144.8,433,139.5,433z"/>
<path class="st3" d="M106.5,470.9L106.5,470.9c-0.6-3.5,1.7-6.8,5.1-7.5l24.4-3.9c3.2-0.4,6.2,1.7,6.9,4.9l1.4,6.2L106.5,470.9z"/>
<path class="st4" d="M130.9,441.6c0,0,3.2-2.5,6-2.6c2.4,0.1,4.8,0.8,6.8,2.1"/>
<path class="st4" d="M128,446.4c0,0,3.2-2.4,6.1-2.4c2.4,0.1,4.8,0.9,6.8,2.2"/>
<path class="st2" d="M271.6,438.3c4.2-2.1,3.8-6.1,5.4-8.4c1-1.4,5.2-3.1,5.9-1.4c8.1,19.2,42.8,28.4,42.8,28.4
	c3.8,3.1,4.8,7.6,4.3,12.5l0,0c0,0-29.8,11-45.7,0.5c-3.2-2.1-11.3-2.8-11.3-2.8s-14.5,0.6-13.9-5.4l1.2-26.7
	C261.1,428.4,264.3,441.9,271.6,438.3z"/>
<path class="st3" d="M330.3,469.2c0.2-7.8-3.5-12.5-4.6-12.3c-1.7,0.4-4.3,2.3-6,2.8c-2.7,0.7-10.8,0.3-10.8,0.3
	c-2.1-0.2-3.7,2.6-3.7,6.3l0.2,7.5c0,0,5,0.6,16.6-2.3C324,471.1,330.3,469.2,330.3,469.2z"/>
<path class="st5" d="M282.9,280.4c-0.8-33.5-39-222.8-39-222.9l-0.4-6c-0.7-8.9-8.1-15.8-17-15.8h-81.6c-8.7,0-16.1,6.6-17,15.3
	l-1,9.8h-0.7c0,0-22.2,194.3-21.4,217.2c0.8,22.9,11.1,160.8,11.1,160.8h38.7c0,0,13.9-151.9,13.9-171.5
	c0-19.6,16.4-148.6,16.4-148.6s34.3,147.6,36.7,167.1C224,306,253,434.7,253,434.7l37.2-6.7C290.1,428.1,283.7,313.9,282.9,280.4z"
	/>
<path class="st5" d="M154.8,443.3h-38.3c-1.5,0-2.7-1.2-2.7-2.7v-2.7c0-1.5,1.2-2.7,2.7-2.7h38.3c1.5,0,2.7,1.2,2.7,2.7v2.7
	C157.6,442.2,156.4,443.3,154.8,443.3z"/>
<path class="st6" d="M156.9,439.3h-41.7c-1.5,0-2.7-1.2-2.7-2.7v-3.8c0-1.5,1.2-2.7,2.7-2.7h41.7c1.5,0,2.7,1.2,2.7,2.7v3.8
	C159.6,438.1,158.3,439.3,156.9,439.3z"/>
<path class="st5" d="M289,436.1l-32.4,5.5c-1.4,0.2-2.9-0.8-3.1-2.2l-0.4-2.7c-0.2-1.4,0.8-2.9,2.2-3.1l32.4-5.5
	c1.4-0.2,2.9,0.8,3.1,2.2l0.4,2.7C291.4,434.4,290.4,435.8,289,436.1z"/>
<path class="st6" d="M290,431.8l-35.3,6c-1.4,0.2-2.9-0.8-3.1-2.2l-0.6-3.8c-0.2-1.4,0.8-2.9,2.2-3.1l35.3-6
	c1.4-0.2,2.9,0.8,3.1,2.2l0.6,3.8C292.5,430.2,291.5,431.6,290,431.8z"/>
</svg>
