<?xml version="1.0" encoding="utf-8"?>
<!-- Generator: Adobe Illustrator 26.0.3, SVG Export Plug-In . SVG Version: 6.00 Build 0)  -->
<svg version="1.1" id="Calque_1" xmlns="http://www.w3.org/2000/svg" xmlns:xlink="http://www.w3.org/1999/xlink" x="0px" y="0px"
	 viewBox="0 0 788 1005" style="enable-background:new 0 0 788 1005;" xml:space="preserve">
<style type="text/css">
	.st0{fill:#D4C06D;}
	.st1{fill:#FD8C75;}
	.st2{fill:#2B2B2B;}
	.st3{fill:#515151;}
	.st4{fill:none;stroke:#547A87;stroke-width:2;stroke-linecap:round;stroke-miterlimit:10;}
	.st5{fill:#547A87;}
</style>
<path class="st0" d="M350.2,727.2c1.9,10.8,9.6,18.7,18.1,18.3l0,0c8.1-0.3,14.6-8,15.5-18.4c0,0,4.3-73.8,2.9-100.1
	c-0.3-6.2-3.1-24.8-3.1-24.8l-6.6-43.1c0,0-4-20.3-20.9-21.8c-19.5-1.7-19,11.7-19,11.7s-2,69.3-0.4,91.1
	C338.2,660.2,350.2,727.2,350.2,727.2z"/>
<path class="st0" d="M475.3,723.4c0.3,11-5.7,20.2-14.1,21.5l0,0c-8,1.3-15.9-5-18.8-14.9c0,0-19-71.4-22.9-97.5
	c-0.9-6.2-1.9-24.9-1.9-24.9l-2.2-43.6c0,0-0.1-20.7,16.1-25.5c18.7-5.6,20.9,7.7,20.9,7.7s15.8,67.5,18.6,89.2
	C473.7,655.4,475.3,723.4,475.3,723.4z"/>
<path class="st1" d="M366,708.8c-9.2,0.8-14.2,6.2-15.1,14.4c0,0,0.7,36.4,1.4,51.7c1.1,24.5,7,74.4,12.5,98.4
	c1.2,5.2,4,21.1,4,21.1c0.7,4.6,4.9,7.9,9.5,7.5l0,0c4.5-0.6,7.8-4.6,7.7-9.1c0,0-0.3-18.5-0.1-24.7c0.9-22.4,5.4-67,4.6-89.4
	c-0.5-13.5-5.6-54.5-5.6-54.5C383,710.6,373.9,708.5,366,708.8z"/>
<path class="st1" d="M468.1,711.6c8.4,3.9,11.1,10.7,8.8,18.7c0,0-12.5,32.8-19,47c-10.3,22.7-64.1,103.8-64.1,103.8
	c-2.6,4.1-6,9.7-10.1,7.7l0,0c-4-2-7.4-6.6-5.6-11c0,0,31.3-88.3,40.5-109c5.5-12.5,25.8-49.3,25.8-49.3
	C451.4,707.5,460.8,708.6,468.1,711.6L468.1,711.6z"/>
<path class="st2" d="M377.1,885.5L377.1,885.5c-4.2,0.4-7.8,3.2-9.2,7.2l0,0c-3.4,9.2-19.5,22.1-19.5,22.1
	c-2.9,2.8-4.1,6.9-3.1,10.8l0,0l41-2.7l2.3-0.9c2.6-1.1,4.2-3.9,3.7-6.7l-3.7-21.5C387.2,888.6,382.4,885.2,377.1,885.5z"/>
<path class="st3" d="M346.4,925.4L346.4,925.4c-0.8-3.4,1.2-6.9,4.7-7.8l24.1-5.4c3.2-0.6,6.3,1.3,7.1,4.5l1.8,6.1L346.4,925.4z"/>
<path class="st4" d="M369,894.6c0,0,3-2.7,5.8-3c2.4-0.1,4.8,0.5,7,1.6"/>
<path class="st4" d="M366.4,899.7c0,0,3.1-2.6,5.9-2.8c2.4,0,4.8,0.6,6.9,1.8"/>
<path class="st2" d="M392.4,873.2c4.7-0.3,5.8-4.2,8.2-5.7c1.4-0.9,6-0.8,6,1c0,20.9,28.3,42.8,28.3,42.8c2.3,4.3,1.4,8.9-0.9,13.2
	l0,0c0,0-31.7-1.5-42.2-17.4c-2.1-3.2-9.3-7-9.3-7s-13.6-5.2-10.7-10.4l11.5-24.2C386.6,860,384.2,873.7,392.4,873.2z"/>
<path class="st3" d="M434.3,924.6c3.3-7.1,1.7-12.9,0.5-13.1c-1.7-0.3-4.9,0.4-6.6,0.2c-2.7-0.3-10.1-3.9-10.1-3.9
	c-1.9-1-4.4,1-5.9,4.4l-2.8,7c0,0,4.4,2.5,16.2,4.4C427.7,923.9,434.3,924.6,434.3,924.6z"/>
<path class="st4" d="M407.1,879.7c-2.1,0.3-4.3,0.2-6.4-0.3"/>
<path class="st4" d="M409.2,885c-2.1,0.4-4.3,0.5-6.5,0.2"/>
<path class="st5" d="M436.4,860.2c-12.2-9.3-40.5-31.3-40.5-31.3s30-110.6,34.3-120.1s-34.3-114.6-34.3-114.3s-2.7,112.3-2.7,114.3
	s2.7,120.1,2.7,120.1l-56.7,9.4c-1.6,0.3-3-0.9-3.2-2.4c-1.5-16.4-7.2-96.6-6.5-105.1c1-12.7,3.1-153.7,3.1-153.7l3.7-54.1
	c0,0,5.7-29.9,8.7-30.9s73-0.4,105.3-0.4l7.5,41.8L482,707.6c1,6.9,0.5,13.9-1.4,20.5l-36.8,129.7C442.8,861,439,862.2,436.4,860.2z
	"/>
</svg>
