<svg xmlns="http://www.w3.org/2000/svg" viewBox="0 0 134.46 117.84"><defs><style>.cls-1{fill:#d48f72;}.cls-2{fill:#a85d3d;}.cls-3,.cls-5{fill:none;}.cls-3{stroke:#000;stroke-miterlimit:10;stroke-width:3px;}.cls-4{fill:#d79072;}.cls-6{fill:#46455b;}.cls-7{fill:#aa5b3f;}.cls-8{fill:#6d323a;}.cls-9{fill:#37344d;}</style></defs><g id="Calque_5" data-name="Calque 5"><path class="cls-1" d="M70.56,60c3.33,2.17,6.9,10.8,10.78,11.69,1.37.32,4.13-1.62,4.89-2.82C89,64.52,87.66,52.35,91.56,49c3.3-2.83,11.24-1.21,11.43-13.11.11-7.24-8.33-10.69-10.4-11.42a9.32,9.32,0,0,1-1-.42L79.05,17.84a8.81,8.81,0,0,1-4.9-7.79l-.08-5.6-8.35.64-8.25-.64,0,4.88a9.76,9.76,0,0,1-5.44,8.83L39.62,24.33s-11,3.33-10.85,11.58C29,47.81,36.9,46.19,40.2,49c3.9,3.33,2.56,15.5,5.33,19.83.75,1.2,3.52,3.14,4.89,2.82C54.3,70.78,57.71,61.89,61.2,60,63.25,58.85,68.6,58.7,70.56,60Z"/><polygon class="cls-1" points="66.3 2.8 74.05 4.04 74.36 22.01 65.83 32.09 57.4 22.01 57.71 4.04 66.3 2.8"/><path class="cls-2" d="M74.51,12.48s-13,16.17-15.5,15c-2.09-1-4.6-10.88-4.6-10.88a11,11,0,0,0,3-5.74c.48-2.23.52-7.08.47-10.82H74.07l0,10.53Z"/><path class="cls-3" d="M85.05,38c3.69,7.75,12.68,12,12.68,12s16.42,10.15,21.84,13.63c2.55,1.63,7.81,5.13,12.07-1.12h0c3.51-5.16-.87-9.41-3.16-11.22-4.65-3.66-14.85-10.11-18.75-14.48-2.91-3.26-6.12-9.41-13.37-11.22,0,0-5.77-2.14-9.84,2.55l-.16.19A8.88,8.88,0,0,0,85.05,38Z"/><path class="cls-4" d="M127.3,52c-5.75-2.22-10.13,3.66-11.59,5.89s-3.31,7.42-4.23,10c-2.34,6.52-5.43,17.78-7.81,24.12-1.56,4.17-2.5,6.33-.1,8,2.18,1.55,5-1.79,6.11-3.08,4.61-5.33,13.74-15.62,17.62-22,1.6-2.61,4.34-8.18,5-11.16C134.14,55.43,129,52.65,127.3,52Z"/><path class="cls-3" d="M87.46,86.28c-.27-1.25-1.75-7.84-1.74-10.49,0-2.84,1.25-8.59.56-11.36-3-12.27-38.29-12.29-41.32,0-.69,2.77.54,8.52.56,11.36,0,2.65-1.47,9.24-1.74,10.49C40.35,101.88,65.58,109,65.58,109S90.88,101.88,87.46,86.28Z"/><path class="cls-5" d="M77.72,81.67c5,1.62,7.2,3,8.39,5.14a23,23,0,0,1,1.94,7.72c.17,4.67-2.41,16.41-6.8,20.32s-26.28,4-30.74,0-7-15.65-6.8-20.32a23,23,0,0,1,1.94-7.72C46.84,84.66,49,83.29,54,81.67a36.55,36.55,0,0,1,11.55-1.56A39.48,39.48,0,0,1,77.72,81.67Z"/><path class="cls-4" d="M10.09,71.6c6.16,0,8.07-7.12,8.61-9.74S19.06,53.75,19,51c-.21-6.92-1.47-18.52-1.59-25.29-.08-4.46,0-6.81-2.85-7.52-2.6-.64-4,3.49-4.56,5.11C7.65,30,2.94,42.92,1.65,50.25c-.52,3-1,9.2-.54,12.22C2.46,70.92,8.3,71.61,10.09,71.6Z"/><path class="cls-3" d="M47.05,38.08C44.4,46.24,36,51.65,36,51.65S21.09,63.86,16.17,68c-2.32,1.95-7.08,6.11-12.12.46h0C-.1,63.82,3.69,59,5.72,56.94c4.14-4.24,13.4-12,16.7-16.8,2.46-3.61,4.85-10.13,11.8-12.87,0,0,5.44-2.88,10.09,1.25l.18.16a8.89,8.89,0,0,1,2.56,9.4Z"/><path class="cls-6" d="M74.11,8.45s1,6.66,3.59,8.29c2.17,1.33,12.15,6.49,19,8.29,10.82,2.86,22,19.77,34.05,27.15,2.26,1.37,2.76,6.4,2.63,8.26-.23,3.45-3.16,9.48-4.88,13-3.32,6.71-15.84,22.91-15.84,22.91l-.78,1.22a2.5,2.5,0,0,1-3.79.48l-4.13-3.84A3.46,3.46,0,0,1,103.2,90l2.37-4.52,8.22-24.72-21-12.35L89.62,69.05l5.49,36.46L91,112l-52.31.13-2.07-4.51,4.61-39.51L39.08,50.63S23,64,17.94,68.14c-2.06,1.67-8,5-10.6,4.5S1.46,68.14.76,65.9C-.31,62.5-.12,55.16.53,51.66c1-5.62,5.21-19.94,6.71-25a2.12,2.12,0,0,1,2.41-1.48l8.08,1.45c.67.12,2.36.21,2.36.89L18.91,43.66s7.71-13.09,11.88-15.41c9.77-5.46,21.93-10.34,23.62-11.69,2.32-1.85,3.08-8.11,3.08-8.11"/><path class="cls-7" d="M105.07,98.88c.63,1,1,2.8-.93,4.6,0,0-5.46,6.26-7.87,7.54-1.08.57-4,1.94-4.77,1-2.27-2.59-3.74-8.86-3-12.93.22-1.22,2.92-2.5,4.13-2.73s4,.81,5.38.86a20.55,20.55,0,0,0,2.22-.12C102.06,97,104.21,97.53,105.07,98.88Z"/><polygon class="cls-8" points="101.53 95.02 100.24 97.1 101.29 100.97 102.52 104.71 104.25 102.85 107.4 100.67 101.53 95.02"/><polygon class="cls-9" points="100.69 96.37 103.58 91.49 109.92 98.28 106.44 102.22 100.69 96.37"/><path class="cls-7" d="M14.48,21.07c-.93-.55-2-2-1.37-4.5,0,0,1.38-8.21,2.67-10.53C16.35,5,18,2.38,19,2.79c2.93,1.16,6.91,5.94,8.2,9.88.38,1.18-1.13,3.64-2,4.44S21.77,18.39,20.7,19A19.38,19.38,0,0,0,19,20.22C17.69,21.28,15.76,21.84,14.48,21.07Z"/><polygon class="cls-7" points="18.57 22.96 18.62 20.51 16.06 17.62 13.41 14.94 12.91 17.43 11.47 20.91 18.57 22.96"/><polygon class="cls-9" points="18.78 21.81 18.89 26.91 9.32 25.35 11.46 19.9 18.78 21.81"/></g></svg>