<?xml version="1.0" encoding="utf-8"?>
<!-- Generator: Adobe Illustrator 26.0.1, SVG Export Plug-In . SVG Version: 6.00 Build 0)  -->
<svg version="1.1" id="Calque_1" xmlns="http://www.w3.org/2000/svg" xmlns:xlink="http://www.w3.org/1999/xlink" x="0px" y="0px"
	 viewBox="0 0 288 561.6" style="enable-background:new 0 0 288 561.6;" xml:space="preserve">
<style type="text/css">
	.st0{fill:#FF6D45;}
	.st1{fill:#F7A386;}
	.st2{fill:#FCC200;}
	.st3{fill:#C90080;}
	.st4{fill:none;stroke:#C90080;stroke-width:2;stroke-linecap:round;stroke-miterlimit:10;}
</style>
<g>
	<path class="st0" d="M219.8,106c-23.3,2.5-44.5,10-69.8,18.3c0,0-11.5,0.5-10.8-0.1l-70.8-16.6l5.9-58.4
		c1.1-10.7,10.1-18.8,20.8-18.8H195c11,0,20.1,8.5,20.8,19.4L219.8,106z"/>
	<rect x="72.2" y="470.2" class="st1" width="22.1" height="63.4"/>
	<path class="st2" d="M83.3,516.5l-11.1,2.6l-7,20.7v6.6l-8.1,14.1c0,0,4.6,4.8,7,4c2.4-0.8,50.1-1.8,50.1-1.8v-4.8l-8.7-14.1l-7-22
		l-6.4-5.3H83.3z"/>
	<rect x="193.7" y="473.7" class="st1" width="22.1" height="63.4"/>
	<path class="st2" d="M204.7,519.9l11.1,2.6l7,20.7v6.6L231,564c0,0-4.7,4.8-7,4s-50.1-1.8-50.1-1.8v-4.8l8.7-14.2l7-22l6.4-5.3
		H204.7z"/>
	<path class="st0" d="M68.2,110c0,2.6,0.7,169.1,0,171.7s-8.6,64.7-8.6,67.4s12.9,138,12.9,138l23.7-2.6c0,0,15.1-120.9,15.1-122.9
		s0.7-46.9,0-48.9s28-188.5,28-188.5V52.5L98,52.2c-13.7-0.1-25.2,11.3-26.7,26.3L68.2,110z"/>
	<path class="st0" d="M219.8,106c0,2.7-0.7,170.6,0,173.3s8.6,65.3,8.6,68s-12.9,139.3-12.9,139.3l-23.7-2.7c0,0-15.1-122-15.1-124
		s-0.7-47.3,0-49.3s-28-190.2-28-190.2V52l41.6-0.3c13.7-0.1,25.3,11.3,26.8,26.3L219.8,106z"/>
	<path class="st3" d="M85.8,29.8l119.9-0.5c4,0,7.4,2.8,8.2,6.7c5.3,25.8,22.7,126.1,23.4,141.2l25,367.9c0.1,0.9-0.7,1.7-1.6,1.7
		h-93.8c-0.9,0-1.6-0.7-1.6-1.6l-17-398.4l-2.3,0l-2.7,398.1c0,0.9-0.7,1.6-1.6,1.6L46.4,550c-0.9,0-1.7-0.7-1.7-1.7l11-373.6
		C56,159.4,69.3,70.6,73.9,40.1C74.8,34.2,79.8,29.8,85.8,29.8z"/>
	<line class="st4" x1="67.6" y1="557" x2="106.9" y2="555.3"/>
	<line class="st4" x1="222.1" y1="559.5" x2="182.7" y2="557.8"/>
</g>
</svg>
