<?xml version="1.0" encoding="utf-8"?>
<!-- Generator: Adobe Illustrator 26.0.2, SVG Export Plug-In . SVG Version: 6.00 Build 0)  -->
<svg version="1.1" id="Layer_1" xmlns="http://www.w3.org/2000/svg" xmlns:xlink="http://www.w3.org/1999/xlink" x="0px" y="0px"
	 viewBox="0 0 288 561.6" style="enable-background:new 0 0 288 561.6;" xml:space="preserve">
<style type="text/css">
	.st0{fill:#374942;}
	.st1{fill:#D34B1C;}
	.st2{fill:#D3D3D3;}
	.st3{fill:#2E3532;}
</style>
<g id="Calque_1">
	<path class="st0" d="M224.5,99.2c-23.3,2.5-44.5,10-69.8,18.3c0,0-11.5,0.5-10.8-0.1l-70.8-16.6L79,42.4
		c1.1-10.7,10.1-18.8,20.8-18.8h99.9c11,0,20.1,8.5,20.8,19.4L224.5,99.2z"/>
</g>
<rect x="76.9" y="463.4" class="st1" width="22.1" height="63.4"/>
<path class="st2" d="M87.9,509.7l-11.1,2.6l-7,20.7v6.6l-8.1,14.1c0,0,5.5,4.1,7.9,3.3s49.2-1,49.2-1v-4.8l-8.7-14.1l-7-22l-6.4-5.3
	H87.9z"/>
<rect x="198.3" y="466.9" class="st1" width="22.1" height="63.4"/>
<path class="st2" d="M209.4,513.1l11.1,2.6l7,20.7v6.6l8.2,14.1c0,0-5,3.4-7.4,2.5s-49.7-0.3-49.7-0.3v-4.8l8.7-14.2l7-22l6.4-5.3
	H209.4z"/>
<path class="st3" d="M73.4,102.4c0,2.6,0.7,169.1,0,171.7c-0.6,2.2-9.3,104.4-12.3,139.5c-0.6,7.7,0.2,15.4,2.6,22.7l14,43.2H99
	c0,0,11.2-26.1,17-39.6c2.2-5.1,3.4-10.6,3.6-16.2c0.8-28.7,3.5-121.4,5.3-129.5c2.9-13,19.5-177.7,19.5-177.7V44.9l-41.2-0.3
	C89.6,44.5,78,55.8,76.5,70.9L73.4,102.4z"/>
<path class="st3" d="M224.5,99.2c0,2.7-0.7,170.6,0,173.3c0.6,2.2,15.2,96.7,20.5,131.1c1.2,8.1,0.2,16.4-2.9,24l-21.8,52.2
	l-21.9-2.5l-17.5-50.7c-2.3-6.6-3.3-13.6-3.1-20.6c0.8-27.7,3.1-100.5,3.7-102.2c0.7-2-28-190.2-28-190.2V45.2l41.6-0.3
	c13.7-0.1,25.3,11.3,26.8,26.3L224.5,99.2z"/>
<path class="st1" d="M81.3,26.5v8.7c0,1.6,1.2,2.9,2.7,2.9h131c1.5,0,2.7-1.3,2.7-2.9v-8.7c0-1.6-1.2-2.9-2.7-2.9H84
	C82.5,23.6,81.3,24.9,81.3,26.5z"/>
<path class="st1" d="M84.3,29.7l-0.7,1c-2.6,4.1-4.4,8.6-5.1,13.4L47.3,244.2c-0.5,3.6,1.9,6.9,5.5,7.4
	c18.8,2.8,73.6,10.7,100.6,10.7c26.5,0,69.8-6.4,85.8-9c3.5-0.6,5.9-3.8,5.4-7.2L221.4,42.4c-0.4-3.3-1.6-6.5-3.6-9.3l-1.7-2.3
	L84.3,29.7z"/>
<path class="st1" d="M68.2,550.2l-3-2.5l-3.5,6.1l3.5,2.6c1.2,0.9,2.8,1.4,4.3,1.4l49.3-1.8v-4.8l-45.4,1
	C71.5,552.1,69.6,551.4,68.2,550.2z"/>
<path class="st1" d="M178.5,554.5v4.8l48.5,2.2c1.5,0.1,3-0.4,4.3-1.3l4.3-3.1l-2.3-4l-3.4,2.9c-1,0.9-2.3,1.3-3.6,1.2L178.5,554.5z
	"/>
</svg>
