<svg xmlns="http://www.w3.org/2000/svg" viewBox="0 0 788 702.8"><defs><style>.cls-1{fill:#3c3d4e;}.cls-2{fill:#d18d7e;}.cls-3{fill:#3d3d3d;}</style></defs><g id="Calque_3" data-name="Calque 3"><path class="cls-1" d="M401.63,190.93V147.07s-39-50.8-40-50.8S338,118.18,338,118.18l-3,19-6.5,74.07S340.38,369.38,340.37,371c0,.56.36,4.78.83,10a24.13,24.13,0,0,0,24,21.95h0c11.78,0,17.84-4.5,19.8-16.11l2.63-15.61s9.92-86.71,8.6-88.82c-.88-1.41,7.46-51.65,5.37-53.75S401.63,190.93,401.63,190.93Z"/><path class="cls-2" d="M384.3,400.43c-.23-.93-7.53-41.16-19.22-41.16h0A22.07,22.07,0,0,0,343.2,378.5l-1,7.5s-5.12,69.15-4.08,70.73,20.48,120.82,20.49,123.71a12.77,12.77,0,0,0,12.06,12.67h0c7.88.44,9-4.31,8.14-12.16L392.08,449.3Z"/><path class="cls-2" d="M370,567.55c-5-.12-12.41,1.3-11.75,16.11.23,5.22-1.84,28.11-6.16,33.78-1.19,1.56-2,5.95-5.6,8.67a3.68,3.68,0,0,0-1.47,3.47l-1,5.6,35.2,1,10.38-7-7.29-28.37-2.49-18.47L379,578C377.68,567.68,377.35,567.71,370,567.55Z"/><path class="cls-1" d="M408.59,43.4l-33.86,0c-9.89,0-19,16-21.77,25.45L336.75,123.2s-19.79,51-21.37,64.21c-6.19,51.44,18.93,250.31,20.26,269.59,1.68,24.38,17.35,96.18,17.35,96.18l29.08.05s11.05-76.07,11.51-101.64c.31-16.92,8-180.71,12-218.48,1.11-10.46,4.3-45.2,4.3-45.2Z"/><polygon class="cls-3" points="357.46 593.99 381.05 592.8 390.37 633 383.89 637.69 339.95 637.64 342.21 625.09 349.32 610.03 357.46 593.99"/><path class="cls-2" d="M434.69,400.43c.23-.93,7.53-41.16,19.22-41.16h0a22.07,22.07,0,0,1,21.88,19.23l1,7.5s5.12,69.15,4.08,70.73-20.48,120.82-20.49,123.71a12.77,12.77,0,0,1-12.06,12.67h0c-7.88.44-9-4.31-8.14-12.16L426.91,449.3Z"/><path class="cls-2" d="M449,567.55c5-.12,12.41,1.3,11.75,16.11-.23,5.22,1.84,28.11,6.16,33.78,1.19,1.56,2,5.95,5.6,8.67a3.68,3.68,0,0,1,1.47,3.47l1,5.6-35.2,1-10.38-7,7.29-28.37,2.49-18.47L440,578C441.31,567.68,441.64,567.71,449,567.55Z"/><path class="cls-1" d="M392.42,43.37h52.52c9.89,0,18.27,16,21.09,25.45l16.21,54.38s19.79,51,21.37,64.21c6.19,51.44-18.93,250.31-20.26,269.59C481.67,481.38,466,553.18,466,553.18l-29.08.05s-11.05-76.07-11.51-101.64c-.31-16.92-8-180.71-12-218.48-1.11-10.46-4.3-45.2-4.3-45.2Z"/><polygon class="cls-3" points="461.53 593.99 437.94 592.8 428.62 633 435.1 637.69 479.04 637.64 476.78 625.09 469.67 610.03 461.53 593.99"/></g></svg>