<?xml version="1.0" encoding="utf-8"?>
<!-- Generator: Adobe Illustrator 26.0.1, SVG Export Plug-In . SVG Version: 6.00 Build 0)  -->
<svg version="1.1" id="Calque_1" xmlns="http://www.w3.org/2000/svg" xmlns:xlink="http://www.w3.org/1999/xlink" x="0px" y="0px"
	 viewBox="0 0 788 1005.1" style="enable-background:new 0 0 788 1005.1;" xml:space="preserve">
<style type="text/css">
	.st0{fill:none;}
	.st1{fill:none;stroke:#000000;stroke-width:3;stroke-miterlimit:10;}
	.st2{fill:#BF6454;}
	.st3{fill:#FFA608;}
	.st4{fill:#154054;}
</style>
<g>
	<g>
		<g>
			<g>
				<polygon points="249.5,520.2 249.6,520.2 249.5,520.1 				"/>
				<polygon points="249.6,520.2 249.7,520.2 249.7,520.1 				"/>
			</g>
		</g>
	</g>
	<g>
		<g>
			<g>
				<polygon points="249.5,520.2 249.6,520.2 249.5,520.1 				"/>
				<polygon points="249.6,520.2 249.7,520.2 249.7,520.1 				"/>
			</g>
		</g>
	</g>
	<path class="st0" d="M445.2,435.7c15.5,5,22.2,9.2,25.9,15.9c3,5.4,5.8,17.7,6,23.9c0.5,14.4-7.5,50.8-21,62.9
		c-13.8,12.3-81.3,12.3-95.1,0c-13.6-12.1-21.5-48.4-21-62.9c0.2-6.2,3-18.5,6-23.9c3.7-6.7,10.4-10.9,25.9-15.9
		c17.7-5.7,35.8-4.8,35.8-4.8S427.5,430,445.2,435.7z"/>
	<g>
		<g>
			<g>
				<polygon points="249.1,520.5 249.2,520.5 249.1,520.4 				"/>
				<polygon points="249.2,520.5 249.3,520.5 249.3,520.4 				"/>
			</g>
		</g>
	</g>
	<g>
		<g>
			<g>
				<polygon points="249.1,520.5 249.2,520.5 249.1,520.4 				"/>
				<polygon points="249.2,520.5 249.3,520.5 249.3,520.4 				"/>
			</g>
		</g>
	</g>
	<path class="st1" d="M474.9,882.2"/>
	<path class="st2" d="M382.2,727.5c-0.2-0.9-7.2-39.5-18.4-39.5h0c-10.6,0-19.6,7.9-21,18.4l-0.9,7.2c0,0-4.9,66.3-3.9,67.8
		c1,1.5,19.6,115.9,19.7,118.6c0,6.5,5.1,11.8,11.6,12.2h0c7.6,0.4,8.6-4.1,7.8-11.7l12.7-126.2L382.2,727.5z"/>
	<path class="st2" d="M368.5,887.7c-4.8-0.1-11.9,1.2-11.3,15.5c0.2,5-1.8,27-5.9,32.4c-1.1,1.5-1.9,5.7-5.4,8.3
		c-1.2,0.9-1.4,1.8-1.4,3.3l-1,5.4l33.8,1l9.9-6.7l-7-27.2l-2.4-17.7l-0.8-4.2C375.9,887.9,375.6,887.9,368.5,887.7z"/>
	<path class="st2" d="M405.4,411.8h-35.2c-6.8,0-12.9,4-15.7,10.1l-3.7,7.7c0,0-24.3,87.1-25.8,99.8
		c-5.9,49.3,13.5,178.3,13.5,178.3s-0.9,55.9,0.4,74.4c1.6,23.4,22,138.5,22,138.5l11.3,5.4c0,0,18.3-124.9,18.8-149.4
		c0.3-16.2-5-48.5-4.9-64.8c0.1-36.4,12.6-108.5,16.4-144.7c1.1-10,4.1-43.3,4.1-43.3L405.4,411.8z"/>
	<path class="st2" d="M449.3,757.9c-5.1-22.2-11.6-64.4-2.5-67.6l0,0c10-3.5,23.3,9,28.1,18.5l3.3,6.5c0,0,26.6,60.9,26.1,62.7
		c-0.4,1.8,19.8,115.8,20.7,118.4c2.1,6.1-0.9,12.8-6.9,15.3h0c-7,2.9-9.5-1-11.2-8.4l-43.4-109.1L449.3,757.9z"/>
	<path class="st2" d="M382.1,411.8h51.4c9.9,0,19.5,0.6,22.9,9.5l4,9.6c0,0,18.4,89.7,21,102.2c8.1,51,18.4,175.2,18.4,175.2
		s6.6,7.9,2,58.9c-2.1,23.3,17.2,148.3,17.2,148.3l-11.1,0.2c0,0-38.9-74.7-54.3-140.2c-2.3-9.9-11.4-35.5-12.7-51.7
		c-2.9-36.3-18.6-105.3-25.2-141.2c-1.8-9.9-7.4-42.9-7.4-42.9L382.1,411.8z"/>
	<path class="st3" d="M342,853.9c0,0-21.3-302.9-18.4-322.8c4.9-33.2,27.3-101.5,27.3-101.5l109.5,1.3c0,0,32.7,116.1,32.7,152
		c0,15.3,8.6,64.7,12.5,131.9c4.5,78.3,11.6,139.2,11.6,139.2H381.7L361,538.4l7.9,315.5H342z"/>
	<g>
		<g>
			<path class="st2" d="M528.5,910.4l-3.6-14.1l-20.4,12.5l4.3,8.9l-2.2,11.9l41.6,10.8l37.8-8.3l-0.9-4c0,0-24-1-24.8-1.6
				S528.5,910.4,528.5,910.4z"/>
			<path class="st4" d="M511.6,952.3c-0.6-0.9-4.9-22.6-4.9-22.6l0.7-3.7l41.1,10.4l37.7-4.1l0.8,3.6l-37.7,8.2l-22.3-4.6l4,8.6
				L511.6,952.3z"/>
		</g>
		<polygon class="st4" points="548.4,936.3 571.8,927.4 585.2,928.2 586.5,934.1 		"/>
	</g>
	<polygon class="st4" points="342,952.5 347.3,938.7 385.6,939.2 388.8,954.1 	"/>
</g>
</svg>
