<svg xmlns="http://www.w3.org/2000/svg" viewBox="0 0 788 702.75"><defs><style>.cls-1{fill:#5d4751;}.cls-2{fill:#b26959;}.cls-3{fill:#90b4c4;}.cls-4{fill:#f5d749;}.cls-5{fill:#91b5c5;}.cls-6{fill:#44351a;}.cls-11,.cls-7,.cls-8,.cls-9{fill:none;}.cls-7,.cls-8{stroke:#f5d749;}.cls-7,.cls-8,.cls-9{stroke-miterlimit:10;}.cls-8{stroke-linecap:round;stroke-width:2px;}.cls-9{stroke:#4b3842;}.cls-10{fill:#3b7084;}</style></defs><g id="Calque_3" data-name="Calque 3"><polygon points="230.22 177.31 230.32 177.27 230.22 177.22 230.22 177.31"/><polygon points="230.32 177.27 230.42 177.31 230.42 177.22 230.32 177.27"/><polygon points="230.22 177.31 230.32 177.27 230.22 177.22 230.22 177.31"/><polygon points="230.32 177.27 230.42 177.31 230.42 177.22 230.32 177.27"/><path class="cls-1" d="M347.17,362.05a26.84,26.84,0,0,0,28.95,20.16h0A26.84,26.84,0,0,0,400,357.85s4.74-90.67,1.8-122.63c-.69-7.56-5.55-29.86-5.55-29.86l-11.54-51.9s-6.84-24.3-33.44-24.07c-30.63.26-29.5,16.58-29.5,16.58s-2.38,80.26.66,106.71C325.18,277.05,347.17,362.05,347.17,362.05Z"/><path class="cls-2" d="M368.36,341.18c-13.78,2-21,10.12-21.73,21.82,0,0,1.63,55.8,3.82,77.36,3.52,34.57,18.33,100,28.37,133.24,2.19,7.28,7.67,29.43,7.67,29.43a13.13,13.13,0,0,0,14.9,9.62h0A13.12,13.12,0,0,0,412.28,599s-1.88-26.16-2-34.9c-.38-31.69,3.17-95.19.22-126.74-1.77-19-12.55-76.49-12.55-76.49-3.79-18.86-17.74-20.95-29.61-19.66Z"/><path class="cls-3" d="M398.29,594.82h0a16,16,0,0,0-14.16,9.09h0c-5.91,12.32-30.69,28.73-30.69,28.73a15.1,15.1,0,0,0-5.62,14.6h0l60.27,0,3.39-1a8.54,8.54,0,0,0,6-9l-3.31-30A16,16,0,0,0,398.29,594.82Z"/><path class="cls-4" d="M349.55,647h0a9,9,0,0,1,7.57-10.33L393,631.38a9,9,0,0,1,10,6.82l2,8.51Z"/><path class="cls-1" d="M646.43,168.39a26.84,26.84,0,0,1,17.23,30.79h0a26.84,26.84,0,0,1-26.58,21.33s-90.7-4.17-122.21-10.22c-7.79-1.5-79.7-25-79.7-25s-22.41-2.92-20.68-35.64c1.55-29.16,19.39-27.74,19.39-27.74s79.15,5.24,105.17,10.86C563,137.93,646.43,168.39,646.43,168.39Z"/><path class="cls-2" d="M662.23,190.08c6.12,10.83,3.65,20.72-5.31,28.2,0,0-46.93,18.89-65.42,30.2-29.63,18.12-88.9,59.89-121.14,72.68-7.05,2.8-27.85,12.15-27.85,12.15-6.23,2.72-13.19.68-16-4.69h0c-2.79-5.27-.7-12.06,4.85-15.77,0,0,22-14.26,29.05-19.39,25.56-18.6,74.41-58.89,101.31-75.62,16.19-10.06,68.24-36.76,68.24-36.76,17.21-8.58,26.69-.06,32.3,9Z"/><path class="cls-2" d="M452.85,324.66c-33.88,3.17-34.13,53.2-34.13,53.2-2.87,4.83-30.27-63.64-26.21-63.78,0,0,51.77-5.24,64.53-9.41C466,301.73,472.75,322.8,452.85,324.66Z"/><path class="cls-5" d="M439.92,320.85c3,6,7.52,5,10.37,7.19,1.73,1.33,4.18,7.39,2.34,8.57-21.09,13.5-27.21,65.2-27.21,65.2-3.1,5.8-8.18,7.67-13.79,7.38h0s-14.92-42.21-7.39-67.38c1.51-5-4.19-8.52-4.19-8.52s-6.58-21.76.31-21.38l42-8C449.94,304.67,434.8,310.47,439.92,320.85Z"/><path class="cls-4" d="M402.62,411.78c9-.32,14-6.11,13.54-7.8-.64-2.44-3.2-6.15-4-8.55-1.19-3.84-1.77-15.86-1.77-15.86-.08-3.09-3.46-5.22-7.78-4.9l-8.59.91s-.06,7.39,4.74,24.23C399.6,402.6,402.62,411.78,402.62,411.78Z"/><polygon class="cls-6" points="319.93 161.38 321.43 138.88 476.43 138.88 478.43 158.38 319.93 161.38"/><path class="cls-7" d="M381.23,613.34S386,610,390.15,610c5.11,0,10,3.16,10,3.16"/><path class="cls-8" d="M435.59,350.31s-2.71-4.79-3.3-8.67"/><path class="cls-8" d="M431.39,356.56s-3-4.6-3.84-8.44"/><polygon class="cls-9" points="397.79 199.93 392.79 159.93 407.79 159.93 406.79 192.21 397.79 199.93"/><path class="cls-10" d="M321.43,138.88s58-10.83,148.54-14.24c69.66-2.62,179.65,34.64,188.85,46.56s15.13,38.06,6.78,44.24c-41.86,31-176.88,94.34-187.17,102.58-6.76,5.41-12.63,5-12.63,5l-16.71-21.87S465.9,291,465.8,289.46c-.07-.95,26.08-17.45,42.48-41,9.66-13.87,43.28-30.64,53.41-30.64,0,0-66.18,13.23-164.47-7.69C352.63,200.66,321.43,138.88,321.43,138.88Z"/><path class="cls-10" d="M324.65,129.39c-1.26,2.28-2.46-4.37-19.66,60.23-12.78,48,73.54,384,73.54,384l4.21,19.68c8.62-3.7,29.73-6.38,29.73-6.38l-1.81-15.58c4.65-7.82,10.37-85.9,5.53-118.08s-8.4-140.84-8.4-140.84c19.38-82.88,18.81-106,27.38-127.14s-1.65-58.82-9.76-58.23S331.52,117.05,324.65,129.39Z"/><path class="cls-10" d="M324.49,177.53c-1.34-2.3-4.56-16.15-4.56-16.15s2.47-52.36,7.78-66.15,23.84-50.76,68.38-47.9,55.77,38.27,63.3,47.9,10.54,44.32,8.53,45.32-140.6,50.86-143.43,39.38"/><path class="cls-11" d="M435.49,118.79c16.15,5.22,23.2,9.63,27,16.56,3.11,5.62,6,18.48,6.27,24.9.54,15.07-7.77,52.94-21.93,65.58-14.4,12.86-84.79,12.86-99.19,0-14.16-12.64-22.48-50.51-21.93-65.58.23-6.42,3.16-19.28,6.27-24.9,3.84-6.93,10.88-11.34,27-16.56,18.49-6,37.3-5,37.3-5S417,112.81,435.49,118.79Z"/><path class="cls-11" d="M472.15,79.2c16.16,5.22,27.41,20.54,31.25,27.48,3.11,5.61,6,18.48,6.28,24.89.54,15.07-7.77,53-21.93,65.59-14.4,12.85-84.8,12.85-99.2,0-14.16-12.64-22.47-50.52-21.93-65.59.23-6.41,3.16-19.28,6.27-24.89,3.84-6.94,6.68-22.26,22.84-27.48,18.49-6,37.29-5,37.29-5S453.66,73.22,472.15,79.2Z"/></g></svg>