<?xml version="1.0" encoding="utf-8"?>
<!-- Generator: Adobe Illustrator 26.0.1, SVG Export Plug-In . SVG Version: 6.00 Build 0)  -->
<svg version="1.1" id="Calque_1" xmlns="http://www.w3.org/2000/svg" xmlns:xlink="http://www.w3.org/1999/xlink" x="0px" y="0px"
	 viewBox="0 0 288 561.6" style="enable-background:new 0 0 288 561.6;" xml:space="preserve">
<style type="text/css">
	.st0{fill:#547AB2;}
	.st1{fill:#B26959;}
	.st2{fill:#D39844;}
</style>
<g>
	<path class="st0" d="M219.8,104.9c-23.3,2.5-44.5,10-69.8,18.3c0,0-11.5,0.5-10.8-0.1l-70.8-16.6l5.9-58.4
		c1.1-10.7,10.1-18.8,20.8-18.8H195c11,0,20.1,8.5,20.8,19.4L219.8,104.9z"/>
	<rect x="72.2" y="469.1" class="st1" width="22.1" height="63.4"/>
	<path class="st2" d="M83.3,515.4L72.2,518l-7,20.7v6.6l-8.1,14.1c0,0,4.6,4.8,7,4s50.1-1.8,50.1-1.8v-4.8l-8.7-14.1l-7-22l-6.4-5.3
		H83.3z"/>
	<rect x="193.6" y="472.6" class="st1" width="22.1" height="63.4"/>
	<path class="st2" d="M204.7,518.8l11.1,2.6l7,20.7v6.6l8.2,14.1c0,0-4.7,4.8-7,4s-50.1-1.8-50.1-1.8v-4.8l8.7-14.2l7-22l6.4-5.3
		H204.7z"/>
	<path class="st0" d="M68.2,108.8c0,2.6,0.7,169.1,0,171.7s-8.6,64.7-8.6,67.4s12.9,138,12.9,138l23.7-2.6
		c0,0,15.1-120.9,15.1-122.9s0.7-46.9,0-48.9s28-188.5,28-188.5V51.3L98,51.1C84.3,51,72.7,62.3,71.3,77.4L68.2,108.8z"/>
	<path class="st0" d="M219.8,104.9c0,2.7-0.7,170.6,0,173.3s8.6,65.3,8.6,68s-12.9,139.3-12.9,139.3l-23.7-2.7
		c0,0-15.1-122-15.1-124s-0.7-47.3,0-49.3s-28-190.2-28-190.2V50.9l41.6-0.3c13.7-0.1,25.3,11.3,26.8,26.3L219.8,104.9z"/>
</g>
</svg>
