<?xml version="1.0" encoding="utf-8"?>
<!-- Generator: Adobe Illustrator 26.0.1, SVG Export Plug-In . SVG Version: 6.00 Build 0)  -->
<svg version="1.1" id="Layer_1" xmlns="http://www.w3.org/2000/svg" xmlns:xlink="http://www.w3.org/1999/xlink" x="0px" y="0px"
	 viewBox="0 0 788 1005.1" style="enable-background:new 0 0 788 1005.1;" xml:space="preserve">
<style type="text/css">
	.st0{fill:#227287;}
	.st1{fill:#B26959;}
	.st2{fill:#87B6C7;}
	.st3{fill:#FCD700;}
	.st4{fill:none;stroke:#FCD700;stroke-width:2;stroke-linecap:round;stroke-miterlimit:10;}
</style>
<g>
	<g id="Calque_1">
		<path class="st0" d="M481.8,486.8c-23.3,2.5-44.5,10-69.8,18.3c0,0-11.5,0.5-10.8-0.1l-70.8-16.6l5.9-58.4
			c1.1-10.7,10.1-18.8,20.8-18.8H457c11,0,20.1,8.5,20.8,19.4L481.8,486.8z"/>
	</g>
	<g id="Calque_3">
		<rect x="334.2" y="851" class="st1" width="22.1" height="63.4"/>
		<path class="st2" d="M345.3,897.3l-11.1,2.6l-7,20.7v6.6l-8.1,14.1c0,0,4.6,4.8,7,4s50.1-1.8,50.1-1.8v-4.8l-8.7-14.1l-7-22
			l-6.4-5.3H345.3z"/>
		<rect x="455.7" y="854.5" class="st1" width="22.1" height="63.4"/>
		<path class="st2" d="M466.7,900.7l11.1,2.6l7,20.7v6.6l8.2,14.1c0,0-4.7,4.8-7,4s-50.1-1.8-50.1-1.8v-4.8l8.7-14.2l7-22l6.4-5.3
			h8.7V900.7z"/>
		<path class="st0" d="M330.2,490.8c0,2.6,0.7,169.1,0,171.7s-8.6,64.7-8.6,67.4s12.9,138,12.9,138l23.7-2.6
			c0,0,15.1-120.9,15.1-122.9s0.7-46.9,0-48.9s28-188.5,28-188.5v-71.7L360,433c-13.7-0.1-25.2,11.3-26.7,26.3L330.2,490.8z"/>
		<path class="st0" d="M481.8,486.8c0,2.7-0.7,170.6,0,173.3s8.6,65.3,8.6,68s-12.9,139.3-12.9,139.3l-23.7-2.7
			c0,0-15.1-122-15.1-124s-0.7-47.3,0-49.3s-28-190.2-28-190.2v-68.4l41.6-0.3c13.7-0.1,25.3,11.3,26.8,26.3L481.8,486.8z"/>
		<polygon class="st3" points="380.2,644 330.4,651.6 330.4,627.6 383.9,616.2 		"/>
	</g>
	<line class="st4" x1="327.3" y1="938.7" x2="369.3" y2="936.7"/>
	<line class="st4" x1="485.4" y1="942.7" x2="443.4" y2="940.7"/>
</g>
</svg>
