<svg xmlns="http://www.w3.org/2000/svg" viewBox="0 0 788 702.75"><defs><style>.cls-1{fill:#baa535;}.cls-2{fill:#b26959;}.cls-3{fill:#3d3d3d;}.cls-4{fill:#992314;}</style></defs><g id="Calque_3" data-name="Calque 3"><polygon points="238.15 204.31 238.25 204.27 238.15 204.22 238.15 204.31"/><polygon points="238.25 204.27 238.35 204.31 238.35 204.22 238.25 204.27"/><polygon points="238.15 204.31 238.25 204.27 238.15 204.22 238.15 204.31"/><polygon points="238.25 204.27 238.35 204.31 238.35 204.22 238.25 204.27"/><path class="cls-1" d="M412.77,221.15l-3.22-43.74s35.2-53.53,36.15-53.6S465,146,465,146l5.45,17.55L487.2,236s-.25,158.61-.13,160.17c.05.56,0,4.8-.1,10a24.13,24.13,0,0,1-22.36,23.65h0c-11.74.87-18.11-3.18-20.92-14.62l-3.77-15.37s-16.25-85.75-15.09-87.95c.77-1.47-11.23-51-9.3-53.21S412.77,221.15,412.77,221.15Z"/><path class="cls-2" d="M442.57,441.28c.38-.86,14.46-38.43,26-36.38h0a21.92,21.92,0,0,1,18.25,22.39l-.32,7.42s-14.82,63.7-16.1,65-32.86,117-33.37,119.81a12.62,12.62,0,0,1-14,10.13h0c-7.84-1-8.14-5.74-5.93-13.16l9.51-129.43Z"/><path class="cls-2" d="M434.38,553.27c4.95.54,12.13,2.91,9.54,17.51-.92,5.14-1.86,20.11,1.68,26.29,1,1.71,45.26,33.46,48.46,36.63a5,5,0,0,1,1.43,4.2l-.63,4.8-35.32-.19L410.3,626.72l7.51-42.06,4.89-18,1.38-4.24C426.72,552.39,427.05,552.47,434.38,553.27Z"/><path class="cls-2" d="M402.83,47,427,42.62a22.34,22.34,0,0,1,21.36,15.71S483,182.41,489.81,236.25c5.71,45,2.58,181.33,2.58,181.33L447,583.67l-27.73-2.33s-4.38-76.38,1.36-100.91c3.27-14,23.15-52.52,23.15-52.52L409.65,258l-10.43-43Z"/><path class="cls-1" d="M394.27,216.66V172.8s-39-50.8-40-50.8-23.68,21.91-23.68,21.91l-3,19L321.13,237S333,395.11,333,396.68c0,.56.36,4.78.84,10a24.13,24.13,0,0,0,24,21.94h0c11.78,0,17.83-4.5,19.79-16.11l2.64-15.61s9.91-86.71,8.59-88.82c-.87-1.41,7.47-51.65,5.38-53.75S394.27,216.66,394.27,216.66Z"/><path class="cls-2" d="M376.93,426.16c-.22-.93-7.52-41.16-19.21-41.16h0a22.08,22.08,0,0,0-21.89,19.23l-1,7.51s-5.12,69.14-4.09,70.72,20.48,120.82,20.5,123.71a12.75,12.75,0,0,0,12.05,12.67h0c7.88.44,9-4.31,8.14-12.16L384.71,475Z"/><path class="cls-2" d="M362.61,573.28c-5-.12-12.41,1.3-11.75,16.11.23,5.22-1.84,28.11-6.16,33.78-1.19,1.56-2,6-5.59,8.67a3.67,3.67,0,0,0-1.48,3.47l-1,5.6,35.21,1,10.37-7-7.28-28.36-2.49-18.48-.82-4.38C370.32,573.41,370,573.44,362.61,573.28Z"/><path class="cls-2" d="M402.83,47l-33.86,0a22.36,22.36,0,0,0-21.44,16l-18.14,86S309.6,200,308,213.14c-6.19,51.44,23.42,192.34,23.42,192.34s-4.48,58-3.15,77.25c1.68,24.38,18.83,96.18,18.83,96.18l27.14.05s11.5-76.07,12-101.63c.31-16.93-5.2-50.6-5.15-67.53.1-38,13.11-113.19,17.11-151,1.11-10.46,4.29-45.2,4.29-45.2Z"/><polygon class="cls-3" points="350.1 599.72 373.69 598.53 383 638.73 376.52 643.42 332.58 643.38 334.85 630.82 341.95 615.76 350.1 599.72"/><polygon class="cls-3" points="417.37 588.15 444.77 591.73 496.07 635.05 496.69 643.32 459.06 643.42 408.92 627.91 417.37 588.15"/><path class="cls-4" d="M337.36,114.76l-25.1,76.15a134,134,0,0,0-6.63,40.17L301,633.86l93.33-4,7.61-406.48L425.65,409.5a41,41,0,0,1,.13,9.26l-5.17,52.53L408.18,621.91l92.68,12,13.23-208a127.09,127.09,0,0,0-.58-22.66L494.2,235.72a113.82,113.82,0,0,0-3.08-16.27L463.36,114.76Z"/></g></svg>