<svg xmlns="http://www.w3.org/2000/svg" viewBox="0 0 788 1005"><defs><style>.cls-1{fill:none;}.cls-2{fill:#d18d7e;}.cls-3{fill:#b26959;}.cls-4{fill:#f1a93d;}.cls-5{fill:#213f52;}</style></defs><g id="Calque_3" data-name="Calque 3"><path class="cls-1" d="M434.32,406.48c16.16,5.22,23.2,9.63,27,16.56,3.11,5.62,6,18.49,6.27,24.9.55,15.07-7.77,52.94-21.92,65.58-14.41,12.86-84.8,12.86-99.2,0C332.35,500.88,324,463,324.58,447.94c.23-6.41,3.16-19.28,6.27-24.9,3.84-6.93,10.89-11.34,27-16.56,18.49-6,37.3-5,37.3-5S415.83,400.5,434.32,406.48Z"/><path class="cls-2" d="M386,501.23V457.37s-39-50.8-40-50.8c-.49,0-6.71,5.77-12.65,11.39A44.33,44.33,0,0,0,320,443.33l-.65,4.12-6.5,74.07s11.89,158.16,11.87,159.73c0,.56.37,4.78.84,10a24.13,24.13,0,0,0,24,21.95h0a20.19,20.19,0,0,0,19.92-16.83L372,681.46s9.91-86.71,8.6-88.83c-.88-1.4,7.46-51.64,5.37-53.74S386,501.23,386,501.23Z"/><path class="cls-3" d="M368.63,710.73c-.23-.93-7.53-41.16-19.22-41.16h0a22.06,22.06,0,0,0-21.88,19.23l-1,7.5s-5.12,69.15-4.09,70.73,20.48,120.81,20.5,123.7A12.76,12.76,0,0,0,355,903.41h0c7.88.44,9-4.31,8.14-12.16L376.4,759.59Z"/><path class="cls-3" d="M354.3,877.84c-5-.11-12.4,1.3-11.74,16.12.23,5.21-1.85,28.11-6.16,33.78-1.19,1.56-2,5.94-5.6,8.66a3.71,3.71,0,0,0-1.48,3.48l-1,5.6,35.21,1,10.37-7-7.28-28.37-2.49-18.47-.81-4.38C362,878,361.68,878,354.3,877.84Z"/><path class="cls-3" d="M394.83,352l-36.93,0L321.08,433.5s-19.79,51-21.38,64.21C293.52,549.15,323.12,690,323.12,690s-4.48,58-3.15,77.26c1.68,24.38,26.54,144.86,26.54,144.86l11.8,5.59s19.13-130.29,19.6-155.86c.31-16.93-5.2-50.59-5.15-67.53.1-38,13.11-113.18,17.11-151,1.11-10.46,4.29-45.2,4.29-45.2Z"/><path class="cls-3" d="M438.56,742.41c-5.27-23.19-12.1-67.18-2.62-70.5h0c10.46-3.68,24.3,9.35,29.29,19.25l3.41,6.76s27.71,63.56,27.26,65.39,20.67,120.78,21.6,123.52a12.76,12.76,0,0,1-7.17,15.95h0c-7.3,3-9.94-1.09-11.71-8.78L453.37,780.19Z"/><path class="cls-3" d="M376.4,352.7h42.24c9.86-.76,21.32,21.94,24.86,31.18l20.28,53s12,47.61,14.7,60.61c8.42,53.22,12.74,185.23,12.74,185.23s6.84,8.26,2.12,61.38c-2.16,24.34,17.89,154.69,17.89,154.69l-14,3.37S459,821.15,443,752.81c-2.42-10.31-11.89-37-13.22-53.91-3-37.86-19.39-109.85-26.25-147.21-1.89-10.35-7.71-44.74-7.71-44.74Z"/><path class="cls-4" d="M326.73,842.58S295.81,523.11,298.85,502.3C303.92,467.73,336,400.08,336,400.08l114.24,1.31s37.39,84.33,37.39,121.77c0,15.93,5.62,104.21,9.66,174.25,4.7,81.64,12.09,145.17,12.09,145.17H368.05L346.51,513.52l8.29,329.06Z"/><path class="cls-3" d="M521.21,901.52l-3.71-14.69-21.26,13.08,4.43,9.29-2.27,12.38,43.4,11.29,39.43-8.61-.92-4.22s-25-1-25.89-1.61S521.21,901.52,521.21,901.52Z"/><path class="cls-5" d="M503.54,945.13c-.57-.92-5.14-23.55-5.14-23.55l.71-3.88L542,928.5l39.26-4.24.82,3.72-39.34,8.59-23.3-4.78,4.2,9Z"/><polygon class="cls-5" points="541.97 928.5 566.36 919.17 580.31 920.04 581.67 926.24 541.97 928.5"/><polygon class="cls-5" points="326.73 945.35 332.21 931.03 372.19 931.5 375.46 947.09 326.73 945.35"/></g></svg>