<?xml version="1.0" encoding="utf-8"?>
<!-- Generator: Adobe Illustrator 26.0.3, SVG Export Plug-In . SVG Version: 6.00 Build 0)  -->
<svg version="1.1" id="Calque_1" xmlns="http://www.w3.org/2000/svg" xmlns:xlink="http://www.w3.org/1999/xlink" x="0px" y="0px"
	 viewBox="0 0 788 1005.1" style="enable-background:new 0 0 788 1005.1;" xml:space="preserve">
<style type="text/css">
	.st0{fill:#211616;}
	.st1{fill:#F7E4EC;}
	.st2{fill:#51412B;}
	.st3{fill:#B53535;}
	.st4{fill:#993131;}
	.st5{fill:#FFFFFF;}
	.st6{fill:#423522;}
</style>
<polygon class="st0" points="395.8,177.8 392.3,174.2 398.6,174.4 406.8,176 414.3,174.5 421.4,174.1 414.3,180.4 406.8,182.9 
	399.1,180.6 "/>
<path class="st1" d="M395.8,175.5l0.4,0.9c0.3,0.6,0.8,2.4,1.5,2.6l7.2,2.9c1.1,0.5,2.3,0.5,3.5,0.2l7.2-2.8
	c0.9-0.3,1.2-2.5,1.4-3.4v-0.1l-10.2,0.2L395.8,175.5z"/>
<g>
	<path class="st2" d="M398.1,130.4c0.4-0.4,1.9-0.8,0.6-2.6c-1.2-1.4-2.8-2.5-4.6-2.9c-2.7-0.8-8.9-0.8-11.6,0
		c-3.1,0.8-7.7,5.2-7.7,5.2s6.1-2.3,8.4-2.5c2.8-0.1,5.5,0.2,8.2,0.8C393,128.7,398.1,130.4,398.1,130.4z"/>
	<path class="st2" d="M415.6,130.3c-0.4-0.4-1.9-0.8-0.6-2.6c1.2-1.4,2.8-2.4,4.6-2.9c2.7-0.8,8.9-0.8,11.6,0
		c3.1,0.8,7.7,5.1,7.7,5.1s-6.1-2.2-8.4-2.5c-2.7-0.1-5.5,0.2-8.2,0.8C420.7,128.7,415.6,130.3,415.6,130.3z"/>
</g>
<path class="st3" d="M422.5,173.6c0,0-12.5,5.4-15.8,5.4s-15.6-5.2-15.6-5.2c3.9,0.6,10.2-1.2,12.3-0.5c1.1,0.2,2.2,0.7,3.2,1.3
	c1.2-0.5,2.5-1,3.8-1.3C413,172.5,419.2,174.2,422.5,173.6z"/>
<path class="st4" d="M421.4,174.1c0,0-6.6,7.6-9.9,8.3c-3.1,0.8-6.4,0.8-9.5,0c-3.3-0.7-9.7-8.1-9.7-8.1s11.2,4.5,14.5,4.5
	S421.4,174.1,421.4,174.1z"/>
<g>
	<g>
		<path class="st5" d="M396.5,144.1c0,0-6.3,2.2-12.5,0.8c-6.2-1.4-6.4-2.4-6.4-2.4l5-3.6l3.4-0.8l6,0.5l1.5,1.1l2,2.1L396.5,144.1z
			"/>
		<path class="st6" d="M392.5,139.2c2.1,1.2,3.2,3.1,4.1,5c0.1-0.1,0.2-0.1,0.2-0.2c0-0.3,0-0.6-0.1-0.8c-1.3-2.3-2.8-4.6-5.6-5.3
			c-3.8-0.9-7.5-0.5-10.8,1.9c-1.1,0.8-2.1,1.6-3.2,2.5c1.6,1.5,7,3.2,7.6,2.4c-0.4-0.1-0.7-0.1-1-0.2c-0.8-0.3-1.7-0.6-2.5-1
			c-0.4-0.2-0.2-0.5,0.2-0.5c0.1,0,0.2,0,0.5,0c-1-0.9-1-1.1,0-2.1c0.7-0.7,1.4-1.3,2.1-1.8c0.3-0.2,0.7-0.2,1.1-0.3
			c0,0.4,0.1,0.8,0.1,1.1c-0.2,1.6,0.1,3.1,1.2,4.3c0.5,0.6,1.9,0.9,2.9,0.8c1-0.1,1.7-0.4,2.4-1.3c0.7-1,1-2,0.9-3.1
			C392.5,140.2,392.5,139.8,392.5,139.2z"/>
	</g>
	<g>
		<path class="st5" d="M417.1,144.3c0,0,6.3,2.2,12.5,0.8c6.2-1.4,6.4-2.4,6.4-2.4l-5-3.6l-3.4-0.8l-6,0.5l-1.5,1.1l-2,2.1
			L417.1,144.3z"/>
		<path class="st6" d="M421.2,139.4c-2.1,1.2-3.2,3.1-4.1,5c-0.1-0.1-0.2-0.1-0.2-0.2c0-0.3,0-0.6,0.1-0.8c1.3-2.3,2.8-4.6,5.6-5.3
			c3.8-0.9,7.5-0.5,10.8,1.9c1.1,0.8,2.1,1.6,3.2,2.5c-1.6,1.5-7,3.2-7.6,2.4c0.4-0.1,0.7-0.1,1-0.2c0.8-0.3,1.7-0.6,2.5-1
			c0.4-0.2,0.2-0.5-0.2-0.5c-0.1,0-0.2,0-0.5,0c1-0.9,1-1.1,0-2.1c-0.7-0.7-1.4-1.3-2.1-1.8c-0.3-0.2-0.7-0.2-1.1-0.3
			c0,0.4-0.1,0.8-0.1,1.1c0.2,1.6-0.1,3.1-1.2,4.3c-0.5,0.6-1.9,0.9-2.9,0.8c-1-0.1-1.7-0.4-2.4-1.3c-0.7-1-1-2-0.9-3.1
			C421.1,140.4,421.1,140,421.2,139.4z"/>
	</g>
</g>
</svg>
