<?xml version="1.0" encoding="utf-8"?>
<!-- Generator: Adobe Illustrator 26.0.3, SVG Export Plug-In . SVG Version: 6.00 Build 0)  -->
<svg version="1.1" id="Calque_1" xmlns="http://www.w3.org/2000/svg" xmlns:xlink="http://www.w3.org/1999/xlink" x="0px" y="0px"
	 viewBox="0 0 788 1005.1" style="enable-background:new 0 0 788 1005.1;" xml:space="preserve">
<style type="text/css">
	.st0{fill:#310800;}
	.st1{fill:#51412B;}
	.st2{fill:#993131;}
	.st3{fill:#EBB4C9;}
	.st4{fill:#B53535;}
	.st5{fill:#FFFFFF;}
	.st6{fill:#423522;}
</style>
<path class="st0" d="M394.3,172.8c0,0,10.7-2.1,10.8-2.2s3.9,0,3.9,0l10.3,2.3l-9.7,10.4h-5L394.3,172.8z"/>
<g>
	<path class="st1" d="M398,133.5c0.4-0.3,1.9-0.7,0.6-2.4c-1.2-1.3-2.8-2.3-4.6-2.7c-3.8-0.7-7.8-0.7-11.6,0
		c-3.1,0.8-7.7,4.9-7.7,4.9s6.1-2.1,8.4-2.3c2.7-0.1,5.5,0.2,8.2,0.7C393,131.9,398,133.5,398,133.5z"/>
	<path class="st1" d="M415.6,133.4c-0.4-0.3-1.9-0.7-0.6-2.4c1.2-1.3,2.8-2.3,4.6-2.7c3.9-0.7,7.8-0.7,11.6,0
		c3.1,0.8,7.7,4.8,7.7,4.8s-6.1-2.1-8.4-2.3c-2.7-0.1-5.5,0.2-8.2,0.7C420.6,131.8,415.6,133.4,415.6,133.4z"/>
</g>
<path class="st2" d="M417.8,173.4l3.4-1c0,0-6.8,11.9-9.9,12.8c-2.9,1-6,1-8.9,0c-3.1-0.9-9.4-12.8-9.4-12.8l2.9,1c0,0,7.3,8,10.9,8
	S417.8,173.4,417.8,173.4z"/>
<path class="st3" d="M397.1,172.4l0.7,1.4c0.4,0.8,1.1,1.3,2,1.4c0,0,5.4,0.4,7.1,0.4s6.9-0.4,6.9-0.4c0.9-0.1,1.6-0.6,2-1.4
	l0.4-0.9L397.1,172.4z"/>
<path class="st4" d="M421.2,172.4l-3.4,1c0,0-8.2-0.8-11-0.8s-10.9,0.8-10.9,0.8l-2.9-1c0.4-0.6,8.2-5,10.5-4.3
	c1.1,0.3,2.1,0.7,3.2,1.1c0,0,1-0.4,3.4-1.1S420.7,171.8,421.2,172.4z"/>
<g>
	<g>
		<path class="st5" d="M396.4,143.9c0,0-6.3,2.2-12.5,0.8c-6.2-1.4-6.4-2.4-6.4-2.4l5-3.6l3.4-0.8l6,0.5l1.5,1.1l2,2.1L396.4,143.9z
			"/>
		<path class="st6" d="M392.4,139c2.1,1.2,3.2,3.1,4.1,5c0.1-0.1,0.2-0.1,0.2-0.2c0-0.3,0-0.6-0.1-0.8c-1.3-2.3-2.8-4.6-5.6-5.3
			c-3.8-0.9-7.5-0.5-10.8,1.9c-1.1,0.8-2.1,1.6-3.2,2.5c1.6,1.5,7,3.2,7.6,2.4c-0.4-0.1-0.7-0.1-1-0.2c-0.8-0.3-1.7-0.6-2.5-1
			c-0.4-0.2-0.2-0.5,0.2-0.5c0.1,0,0.2,0,0.5,0c-1-0.9-1-1.1,0-2.1c0.7-0.7,1.4-1.3,2.1-1.8c0.3-0.2,0.7-0.2,1.1-0.3
			c0,0.4,0.1,0.8,0.1,1.1c-0.2,1.6,0.1,3.1,1.2,4.3c0.5,0.6,1.9,0.9,2.9,0.8s1.7-0.4,2.4-1.3c0.7-1,1-2,0.9-3.1
			C392.4,140,392.4,139.6,392.4,139z"/>
	</g>
	<g>
		<path class="st5" d="M417.1,144.1c0,0,6.3,2.2,12.5,0.8c6.2-1.4,6.4-2.4,6.4-2.4l-5-3.6l-3.4-0.8l-6,0.5l-1.5,1.1l-2,2.1
			L417.1,144.1z"/>
		<path class="st6" d="M421.2,139.2c-2.1,1.2-3.2,3.1-4.1,5c-0.1-0.1-0.2-0.1-0.2-0.2c0-0.3,0-0.6,0.1-0.8c1.3-2.3,2.8-4.6,5.6-5.3
			c3.8-0.9,7.5-0.5,10.8,1.9c1.1,0.8,2.1,1.6,3.2,2.5c-1.6,1.5-7,3.2-7.6,2.4c0.4-0.1,0.7-0.1,1-0.2c0.8-0.3,1.7-0.6,2.5-1
			c0.4-0.2,0.2-0.5-0.2-0.5c-0.1,0-0.2,0-0.5,0c1-0.9,1-1.1,0-2.1c-0.7-0.7-1.4-1.3-2.1-1.8c-0.3-0.2-0.7-0.2-1.1-0.3
			c0,0.4-0.1,0.8-0.1,1.1c0.2,1.6-0.1,3.1-1.2,4.3c-0.5,0.6-1.9,0.9-2.9,0.8c-1-0.1-1.7-0.4-2.4-1.3c-0.7-1-1-2-0.9-3.1
			C421.1,140.2,421.1,139.8,421.2,139.2z"/>
	</g>
</g>
</svg>
