<?xml version="1.0" encoding="utf-8"?>
<!-- Generator: Adobe Illustrator 26.0.3, SVG Export Plug-In . SVG Version: 6.00 Build 0)  -->
<svg version="1.1" id="Calque_1" xmlns="http://www.w3.org/2000/svg" xmlns:xlink="http://www.w3.org/1999/xlink" x="0px" y="0px"
	 viewBox="0 0 150 122.7" style="enable-background:new 0 0 150 122.7;" xml:space="preserve">
<style type="text/css">
	.st0{fill:#310800;}
	.st1{fill:#993131;}
	.st2{fill:#EBB4C9;}
	.st3{fill:#B53535;}
	.st4{fill:#51412B;}
	.st5{fill:#FFFFFF;}
	.st6{fill:#423522;}
</style>
<g>
	<path class="st0" d="M62.8,80.9c0,0,10.7-2.1,10.8-2.2s3.9,0,3.9,0L87.8,81l-7.7,10.7l-9.5,0.2L62.8,80.9z"/>
	<path class="st1" d="M86.3,81.5l3.4-1c0,0-6.8,11.9-9.9,12.8c-2.9,1-6,1-8.9,0c-3.1-0.9-9.4-12.8-9.4-12.8l2.9,1
		c0,0,4.4,9,10.8,9.4C81.4,91.3,86.3,81.5,86.3,81.5z"/>
	<path class="st2" d="M65.3,79.4l1,1.5c0.6,0.4,1.3,0.6,2,0.6c0,0,5.4,0.2,7.1,0.2s6.9-0.2,6.9-0.2c0.7,0,1.4-0.2,2-0.6l0.4-1.2
		L65.3,79.4z"/>
	<path class="st3" d="M89.7,80.5l-3.4,1c0,0-8.2-1.8-11-1.8s-10.8,1.8-10.8,1.8l-2.9-1c0.4-0.6,8.2-5,10.5-4.3
		c1.1,0.3,2.1,0.7,3.2,1.1c0,0,1-0.4,3.4-1.1S89.2,79.9,89.7,80.5z"/>
	<g>
		<path class="st4" d="M66.2,36.5c0.4-0.3,1.9-0.7,0.6-2.4c-1-1.4-2.8-3.7-5.6-4.6c-3.4-1.2-7.1-1.1-10.4,0.3c-2.9,1.3-8,6.4-8,6.4
			s6-3.4,8.2-3.9c3-0.8,6.2-0.8,9.3,0.1C62.8,33.2,66.2,36.5,66.2,36.5z"/>
		<path class="st4" d="M83.8,36.5c-0.4-0.3-1.9-0.7-0.6-2.4c1-1.4,2.8-3.7,5.6-4.6c3.4-1.2,7.1-1.1,10.4,0.3c2.9,1.3,8,6.4,8,6.4
			s-6-3.4-8.2-3.9c-3-0.8-6.2-0.8-9.3,0.1C87.1,33.2,83.8,36.5,83.8,36.5z"/>
	</g>
	<g>
		<g>
			<path class="st5" d="M85.4,51.3c0,0,6.3,2.2,12.5,0.8s6.4-2.4,6.4-2.4l-5-3.6l-3.4-0.8l-6,0.5l-1.5,1.1l-2,2.1L85.4,51.3z"/>
			<path class="st6" d="M89.4,46.4c-2.1,1.2-3.2,3.1-4.1,5c-0.1-0.1-0.2-0.1-0.2-0.2c0-0.3,0-0.6,0.1-0.8c1.3-2.3,2.8-4.6,5.6-5.3
				c3.8-0.9,7.5-0.5,10.8,1.9c1.1,0.8,2.1,1.6,3.2,2.5c-1.6,1.5-7,3.2-7.6,2.4c0.4-0.1,0.7-0.1,1-0.2c0.8-0.3,1.7-0.6,2.5-1
				c0.4-0.2,0.2-0.5-0.2-0.5c-0.1,0-0.2,0-0.5,0c1-0.9,1-1.1,0-2.1c-0.7-0.7-1.4-1.3-2.1-1.8C97.6,46.1,94.8,45.3,89.4,46.4z"/>
		</g>
		<g>
			<path class="st5" d="M64.6,51.5c0,0-6.3,2.2-12.5,0.8s-6.4-2.4-6.4-2.4l5-3.6l3.4-0.8l6,0.5l1.5,1.1l2,2.1L64.6,51.5z"/>
			<path class="st6" d="M60.6,46.6c2.1,1.2,3.2,3.1,4.1,5c0.1-0.1,0.2-0.1,0.2-0.2c0-0.3,0-0.6-0.1-0.8c-1.3-2.3-2.8-4.6-5.6-5.3
				c-3.8-0.9-7.5-0.5-10.8,1.9c-1.1,0.8-2.1,1.6-3.2,2.5c1.6,1.5,7,3.2,7.6,2.4c-0.4-0.1-0.7-0.1-1-0.2c-0.8-0.3-1.7-0.6-2.5-1
				c-0.4-0.2-0.2-0.5,0.2-0.5c0.1,0,0.2,0,0.5,0c-1-0.9-1-1.1,0-2.1c0.7-0.7,1.4-1.3,2.1-1.8c0.3-0.2,0.7-0.2,1.1-0.3
				C55.7,45.7,58.4,45.7,60.6,46.6z"/>
		</g>
		<path class="st6" d="M94.1,47L94,46.8c-0.2-0.3-0.4-0.7-0.8-1c-1.3,0-2.5,0.3-3.8,0.3c-0.3,0.2-0.9,0.7-1.1,0.8
			c-0.2,0.3-0.8,0.4-0.8,0.8c-0.1,0.3-0.4,0.6-0.4,0.8l0,0c-0.3,2.1,0.8,3.5,2.9,3.8c0.2,0,0.3,0,0.5,0h0.2c2.1-0.1,3.7-1.8,3.7-3.9
			C94.4,48,94.3,47.5,94.1,47z"/>
		<path class="st6" d="M56.4,47l-0.1-0.2c-0.2-0.3-0.4-0.7-0.8-1c-1.3,0-2.5,0.3-3.8,0.3c-0.3,0.2-0.9,0.7-1.1,0.8
			c-0.2,0.3-0.8,0.4-0.8,0.8c-0.1,0.3-0.4,0.6-0.4,0.8l0,0c-0.3,2.1,0.8,3.5,2.9,3.8c0.2,0,0.3,0,0.5,0H53c2.1-0.1,3.7-1.8,3.7-3.9
			C56.6,48,56.5,47.5,56.4,47z"/>
	</g>
</g>
</svg>
