<?xml version="1.0" encoding="utf-8"?>
<!-- Generator: Adobe Illustrator 26.0.3, SVG Export Plug-In . SVG Version: 6.00 Build 0)  -->
<svg version="1.1" id="Layer_1" xmlns="http://www.w3.org/2000/svg" xmlns:xlink="http://www.w3.org/1999/xlink" x="0px" y="0px"
	 viewBox="0 0 150 122.7" style="enable-background:new 0 0 150 122.7;" xml:space="preserve">
<style type="text/css">
	.st0{fill:#51412B;}
	.st1{fill:#B53535;}
	.st2{fill:#993131;}
	.st3{fill:#3D332F;}
	.st4{fill:#FFFFFF;}
	.st5{fill:#423522;}
</style>
<g>
	<g>
		<path class="st0" d="M66.2,38.7c0.4-0.4,1.9-0.7,0.6-2.5c-1.2-1.4-2.8-2.4-4.6-2.8c-3.8-0.8-7.8-0.8-11.6,0c-3.1,0.8-7.7,5-7.7,5
			s6.1-2.2,8.4-2.4c2.7-0.1,5.5,0.2,8.2,0.7C61.2,37.1,66.2,38.7,66.2,38.7z"/>
		<path class="st0" d="M83.8,38.6c-0.4-0.4-1.9-0.7-0.6-2.5c1.2-1.4,2.8-2.3,4.6-2.8c3.8-0.7,7.8-0.7,11.6,0c3.1,0.8,7.7,5,7.7,5
			s-6.1-2.2-8.4-2.4c-2.7-0.1-5.5,0.2-8.2,0.7C88.8,37,83.8,38.6,83.8,38.6z"/>
	</g>
	<path class="st1" d="M81.8,82.5c-0.2-0.7-1.9-6.5-4.2-7.2c-0.9-0.4-1.9-0.2-2.6,0.6l0.4,7.4L81.8,82.5z"/>
	<path class="st2" d="M75.2,89.6l-0.5-6.2l7.1-0.9c0,0,0,5.9-3.1,6.8S75.2,89.6,75.2,89.6z"/>
	<path class="st1" d="M68.3,82.6c0.2-0.7,1.9-6.6,4.2-7.3c0.9-0.4,1.9-0.2,2.6,0.6l-0.4,7.4L68.3,82.6z"/>
	<path class="st2" d="M75.9,89.5l-0.5-6.2l-7.1-0.6c0,0,0,5.9,3.1,6.8S75.9,89.5,75.9,89.5z"/>
	<path class="st3" d="M79.5,82.8c0,3.1-2.6,5.4-4.5,5.4s-4.4-2.2-4.4-5.3S73.1,77,75,77S79.5,79.7,79.5,82.8z"/>
	<g>
		<g>
			<path class="st4" d="M64.7,48.6c0,0-6.3,2.2-12.5,0.8S45.8,47,45.8,47l5-3.6l3.4-0.8l6,0.5l1.5,1.1l2,2.1L64.7,48.6z"/>
			<path class="st5" d="M60.6,43.7c2.1,1.2,3.2,3.1,4.1,5c0.1-0.1,0.2-0.1,0.2-0.2c0-0.3,0-0.6-0.1-0.8c-1.3-2.3-2.8-4.6-5.6-5.3
				c-3.8-0.9-7.5-0.5-10.8,1.9c-1.1,0.8-2.1,1.6-3.2,2.5c1.6,1.5,7,3.2,7.6,2.4c-0.4-0.1-0.7-0.1-1-0.2c-0.8-0.3-1.7-0.6-2.5-1
				c-0.4-0.2-0.2-0.5,0.2-0.5c0.1,0,0.2,0,0.5,0c-1-0.9-1-1.1,0-2.1c0.7-0.7,1.4-1.3,2.1-1.8C52.4,43.4,55.2,42.6,60.6,43.7z"/>
		</g>
		<g>
			<path class="st4" d="M85.4,48.8c0,0,6.3,2.2,12.5,0.8s6.4-2.4,6.4-2.4l-5-3.6l-3.4-0.8l-6,0.5l-1.5,1.1l-2,2.1L85.4,48.8z"/>
			<path class="st5" d="M89.4,43.9c-2.1,1.2-3.2,3.1-4.1,5c-0.1-0.1-0.2-0.1-0.2-0.2c0-0.3,0-0.6,0.1-0.8c1.3-2.3,2.8-4.6,5.6-5.3
				c3.8-0.9,7.5-0.5,10.8,1.9c1.1,0.8,2.1,1.6,3.2,2.5c-1.6,1.5-7,3.2-7.6,2.4c0.4-0.1,0.7-0.1,1-0.2c0.8-0.3,1.7-0.6,2.5-1
				c0.4-0.2,0.2-0.5-0.2-0.5c-0.1,0-0.2,0-0.5,0c1-0.9,1-1.1,0-2.1c-0.7-0.7-1.4-1.3-2.1-1.8c-0.3-0.2-0.7-0.2-1.1-0.3
				C94.4,42.9,91.7,42.9,89.4,43.9z"/>
		</g>
		<path class="st5" d="M55.6,45.8c0,2.1,1.6,3.8,3.7,3.9h0.2c0.2,0,0.3,0,0.5,0c2.1-0.3,3.2-1.7,2.9-3.8l0,0c0-0.3-0.3-0.6-0.4-0.8
			c-0.1-0.3-0.7-0.4-0.8-0.8c-0.2-0.2-0.8-0.7-1.1-0.8c-1.3,0-2.4-0.3-3.8-0.3c-0.3,0.3-0.6,0.7-0.8,1l-0.1,0.2
			C55.8,44.8,55.7,45.3,55.6,45.8z"/>
		<path class="st5" d="M93.4,45.8c0,2.1,1.6,3.8,3.7,3.9h0.2c0.2,0,0.3,0,0.5,0c2.1-0.3,3.2-1.7,2.9-3.8l0,0c0-0.3-0.3-0.6-0.4-0.8
			c-0.1-0.3-0.7-0.4-0.8-0.8c-0.2-0.2-0.8-0.7-1.1-0.8c-1.3,0-2.4-0.3-3.8-0.3c-0.3,0.3-0.6,0.7-0.8,1l-0.1,0.2
			C93.5,44.8,93.4,45.3,93.4,45.8z"/>
	</g>
</g>
</svg>
