<?xml version="1.0" encoding="utf-8"?>
<!-- Generator: Adobe Illustrator 26.0.3, SVG Export Plug-In . SVG Version: 6.00 Build 0)  -->
<svg version="1.1" id="Calque_1" xmlns="http://www.w3.org/2000/svg" xmlns:xlink="http://www.w3.org/1999/xlink" x="0px" y="0px"
	 viewBox="0 0 788 1005.1" style="enable-background:new 0 0 788 1005.1;" xml:space="preserve">
<style type="text/css">
	.st0{fill:#51412B;}
	.st1{fill:#B53535;}
	.st2{fill:#993131;}
	.st3{fill:#FFFFFF;}
	.st4{fill:#423522;}
</style>
<path class="st0" d="M398,133.5c0.4-0.5,1.9-1,0.6-3.4c-1.1-1.8-2.7-3.1-4.6-3.9c-2.7-1.1-8.9-1-11.6-0.1c-3.1,1.1-7.7,6.9-7.7,6.9
	s6.1-3,8.4-3.3c2.8-0.1,5.5,0.2,8.2,1C393,131.2,398,133.5,398,133.5z"/>
<path class="st0" d="M415.6,133.4c-0.4-0.5-1.9-1-0.6-3.5c1.1-1.8,2.7-3.1,4.6-3.9c2.7-1.1,8.9-1,11.6-0.1c3.1,1.1,7.7,6.9,7.7,6.9
	s-6.1-3-8.4-3.3c-2.8-0.1-5.5,0.2-8.2,1C420.6,131.2,415.6,133.4,415.6,133.4z"/>
<path class="st1" d="M395.2,177.1c0.4-0.6,6-7.8,8.4-7c1.3,0.4,2.5,1.2,3.3,2.4l1.9,4.7L395.2,177.1z"/>
<path class="st2" d="M406.8,183l1.9-5.9h-13.5c0,0,4.1,4.2,7.2,5.1C403.8,182.8,405.3,183,406.8,183z"/>
<path class="st1" d="M418.5,177.1c-0.4-0.6-6-7.8-8.4-7c-1.3,0.4-2.5,1.2-3.3,2.4l0.3,4.7L418.5,177.1z"/>
<path class="st2" d="M406.8,183l0.3-5.9h11.3c0,0-4.1,4.2-7.2,5.1C409.8,182.8,408.3,183,406.8,183z"/>
<g>
	<g>
		<path class="st3" d="M396.8,143.2c0,0-6.3,2.2-12.5,0.8s-6.4-2.4-6.4-2.4l5-3.6l3.4-0.8l6,0.5l1.5,1.1l2,2.1L396.8,143.2z"/>
		<path class="st4" d="M392.8,138.3c2.1,1.2,3.2,3.1,4.1,5c0.1-0.1,0.2-0.1,0.2-0.2c0-0.3,0-0.6-0.1-0.8c-1.3-2.3-2.8-4.6-5.6-5.3
			c-3.8-0.9-7.5-0.5-10.8,1.9c-1.1,0.8-2.1,1.6-3.2,2.5c1.6,1.5,7,3.2,7.6,2.4c-0.4-0.1-0.7-0.1-1-0.2c-0.8-0.3-1.7-0.6-2.5-1
			c-0.4-0.2-0.2-0.5,0.2-0.5c0.1,0,0.2,0,0.5,0c-1-0.9-1-1.1,0-2.1c0.7-0.7,1.4-1.3,2.1-1.8c0.3-0.2,0.7-0.2,1.1-0.3
			c0,0.4,0.1,0.8,0.1,1.1c-0.2,1.6,0.1,3.1,1.2,4.3c0.5,0.6,1.9,0.9,2.9,0.8c1-0.1,1.7-0.4,2.4-1.3c0.7-1,1-2,0.9-3.1
			C392.9,139.3,392.8,138.9,392.8,138.3z"/>
	</g>
	<g>
		<path class="st3" d="M417.6,143.3c0,0,6.3,2.2,12.5,0.8s6.4-2.4,6.4-2.4l-5-3.6l-3.4-0.8l-6,0.5l-1.5,1.1l-2,2.1L417.6,143.3z"/>
		<path class="st4" d="M421.6,138.4c-2.1,1.2-3.2,3.1-4.1,5c-0.1-0.1-0.2-0.1-0.2-0.2c0-0.3,0-0.6,0.1-0.8c1.3-2.3,2.8-4.6,5.6-5.3
			c3.8-0.9,7.5-0.5,10.8,1.9c1.1,0.8,2.1,1.6,3.2,2.5c-1.6,1.5-7,3.2-7.6,2.4c0.4-0.1,0.7-0.1,1-0.2c0.8-0.3,1.7-0.6,2.5-1
			c0.4-0.2,0.2-0.5-0.2-0.5c-0.1,0-0.2,0-0.5,0c1-0.9,1-1.1,0-2.1c-0.7-0.7-1.4-1.3-2.1-1.8c-0.3-0.2-0.7-0.2-1.1-0.3
			c0,0.4-0.1,0.8-0.1,1.1c0.2,1.6-0.1,3.1-1.2,4.3c-0.5,0.6-1.9,0.9-2.9,0.8c-1-0.1-1.7-0.4-2.4-1.3c-0.7-1-1-2-0.9-3.1
			C421.5,139.4,421.5,139.1,421.6,138.4z"/>
	</g>
</g>
</svg>
