<?xml version="1.0" encoding="utf-8"?>
<!-- Generator: Adobe Illustrator 26.0.3, SVG Export Plug-In . SVG Version: 6.00 Build 0)  -->
<svg version="1.1" id="Layer_1" xmlns="http://www.w3.org/2000/svg" xmlns:xlink="http://www.w3.org/1999/xlink" x="0px" y="0px"
	 viewBox="0 0 150 122.7" style="enable-background:new 0 0 150 122.7;" xml:space="preserve">
<style type="text/css">
	.st0{fill:#3D332F;}
	.st1{fill:#51412B;}
	.st2{fill:#B53535;}
	.st3{fill:#993131;}
	.st4{fill:#FFFFFF;}
	.st5{fill:#423522;}
</style>
<g>
	<path class="st0" d="M84.4,53.3c0,0,7-3.3,9.6-3.5c2.6-0.2,6.6,1.4,9.6-3.3c0,0-7.9,0.9-10.6,1.5C90.5,48.5,86.6,49.7,84.4,53.3z"
		/>
	<path class="st1" d="M66.2,38.5c0.4-0.4,1.9-0.8,0.6-2.6c-1.2-1.4-2.8-2.5-4.6-2.9c-2.7-0.8-8.9-0.8-11.6,0
		c-3.1,0.8-7.7,5.2-7.7,5.2s6.1-2.3,8.4-2.5c2.8-0.1,5.5,0.2,8.2,0.8C61.1,36.8,66.2,38.5,66.2,38.5z"/>
	<path class="st1" d="M83.8,38.4c-0.4-0.4-1.9-0.8-0.6-2.6c1.2-1.4,2.8-2.4,4.6-2.9c2.7-0.8,8.9-0.8,11.6,0c3.1,0.8,7.7,5.1,7.7,5.1
		s-6.1-2.2-8.4-2.5c-2.7-0.1-5.5,0.2-8.2,0.8C88.9,36.8,83.8,38.4,83.8,38.4z"/>
	<path class="st2" d="M93.8,78.8c0,0-15.6,6.5-18.9,6.5s-18.6-6.5-18.6-6.5c4.9,1.5,13-0.9,15.2-0.2c1.4,0.3,2.6,1.1,3.4,2.3
		c0.9-1.1,2.2-1.9,3.6-2.3C81,77.9,88.8,80.4,93.8,78.8z"/>
	<path class="st3" d="M89.5,80.4c0,0-6.6,8.6-9.9,9.3c-3.1,0.8-6.4,0.8-9.5,0c-3.3-0.7-9.7-9.2-9.7-9.2s11.2,4.5,14.5,4.5
		S89.5,80.4,89.5,80.4z"/>
	<g>
		<path class="st4" d="M65.5,52.5c0,0-6.3,2.2-12.5,0.8s-6.4-2.4-6.4-2.4l5-3.6l3.4-0.8l6,0.5l1.5,1.1l2,2.1L65.5,52.5z"/>
		<path class="st5" d="M61.5,47.6c2.1,1.2,3.2,3.1,4.1,5c0.1-0.1,0.2-0.1,0.2-0.2c0-0.3,0-0.6-0.1-0.8c-1.3-2.3-2.8-4.6-5.6-5.3
			c-3.9-0.9-7.6-0.5-10.9,1.9c-1.1,0.8-2.1,1.6-3.2,2.5c1.6,1.5,7,3.2,7.6,2.4c-0.4-0.1-0.7-0.1-1-0.2c-0.8-0.3-1.7-0.6-2.5-1
			c-0.4-0.2-0.2-0.5,0.2-0.5c0.1,0,0.2,0,0.5,0c-1-0.9-1-1.1,0-2.1c0.7-0.7,1.4-1.3,2.1-1.8c0.3-0.2,0.7-0.2,1.1-0.3
			c0,0.4,0.1,0.8,0.1,1.1c-0.2,1.6,0.1,3.1,1.2,4.3c0.5,0.6,1.9,0.9,2.9,0.8c1-0.1,1.7-0.4,2.4-1.3c0.7-1,1-2,0.9-3.1
			C61.6,48.6,61.5,48.2,61.5,47.6z"/>
	</g>
</g>
</svg>
