<?xml version="1.0" encoding="utf-8"?>
<!-- Generator: Adobe Illustrator 26.0.3, SVG Export Plug-In . SVG Version: 6.00 Build 0)  -->
<svg version="1.1" id="Layer_1" xmlns="http://www.w3.org/2000/svg" xmlns:xlink="http://www.w3.org/1999/xlink" x="0px" y="0px"
	 viewBox="0 0 788 1005" style="enable-background:new 0 0 788 1005;" xml:space="preserve">
<style type="text/css">
	.st0{fill:#A85B3B;}
	.st1{fill:#854532;}
	.st2{fill:#60131D;}
	.st3{fill:#FFFFFF;}
	.st4{fill:#D3D3D3;stroke:#D34B1C;stroke-miterlimit:10;}
	.st5{fill:#D3D3D3;}
	.st6{fill:#D34B1C;}
	.st7{fill:#70392C;}
	.st8{fill:#3E322E;}
</style>
<g>
	<g id="Calque_9_00000139262956761817392580000002661492864632695699_">
		<path class="st0" d="M360.3,121.6l-4.4-2.9c-0.7-0.5-1.7-0.4-2.3,0.1l-2.8,2.4c-0.5,0.4-0.7,1-0.7,1.6l0.9,12.6
			c0,0.3,0.1,0.6,0.3,0.9c1.1,1.7,5.2,8,5.7,8.8c0.4,0.6,2.2,1.1,3.6,1.4c1,0.2,2.1-0.4,2.3-1.4l2.9-12.4c0.1-0.5,0-0.9-0.2-1.3
			l-4.8-9.1C360.8,122.1,360.6,121.8,360.3,121.6z"/>
		<path class="st0" d="M429.6,121.6l5.2-3c0.8-0.4,1.8-0.3,2.4,0.4l2,2.2c0.4,0.4,0.5,0.9,0.5,1.4l-0.9,12.8c0,0.3-0.1,0.6-0.3,0.9
			c-1.1,1.7-5.2,8-5.7,8.8c-0.4,0.6-2.2,1.1-3.6,1.4c-1,0.2-2.1-0.4-2.3-1.4l-2.9-12.4c-0.1-0.5,0-0.9,0.2-1.3l4.7-9.1
			C429,122.1,429.3,121.8,429.6,121.6z"/>
		<path class="st0" d="M432.3,100c-1.4-6.8-3.2-21.1-8.5-25.4l-12.2-2.3c-4.8-3.9-4.7,0.8-10.9,0.4l-5.6-0.4H395l-5.6,0.4
			c-6.2,0.4-11.1-3.3-15.9,0.7l-7.3,1.8c-5.4,4.4-7,18.1-8.4,24.8c-0.5,2.5-0.9,4.4-0.9,4.6c0,0.5-2.9,5.1-2.9,5.1l5.7,17.7l0.2,1.1
			l3.7,25.4c0.4,2.7,1.6,5.2,3.4,7.3c0,0,12.2,11.4,16.5,14.9c1.7,1.3,10.6,2.8,11.6,3l0,0h0.1l0,0l0.9-0.1l0.6-0.1
			c2.9-0.5,8.8-1.7,10.1-2.7c4.4-3.4,16.6-14.8,16.6-14.8c1.8-2,3-4.6,3.4-7.3l3.7-25.5l0.1-0.9v-8c0,0,2.8-14.3,2.8-14.8
			C433.2,104.5,432.7,102.5,432.3,100z"/>
		<path class="st1" d="M428.5,140.3l1.9-13.2c0,0,4.7-4.7,5.1-4.8c0.4-0.1,0.6,2,0.6,2l-1.1,9.4l-2.7,4.7L428.5,140.3z"/>
		<path class="st1" d="M361.5,141.3l-1.9-13.2c0,0-4.7-4.7-5.1-4.8s-0.6,2-0.6,2l1.1,9.4l2.7,4.7L361.5,141.3z"/>
	</g>
	<g id="Calque_7_00000102517533513937852740000003620408865085819830_">
		<path class="st2" d="M357.5,121.8c0,0-0.5-15.6,0.8-20.4c1.9-6.7,5.9-18.2,11.3-20.6c5.7-2.6,20.5,1.9,26.6,2
			c5.8,0.1,17.4-5.7,22.9-3.3c3.4,1.5,7.8,9.8,9.3,13.9c2.8,7.3,2,25.9,2,25.9v1.7c1.4-0.5,2.7-1.2,3.9-2.1
			c2-13.2,4.2-42.8-8.8-50.8c-5.6-3.5-22-8.5-28-9.3s-18.5,1-24.7,2.5c-6.4,1.5-8.2,5.3-13.3,9.8c-7.6,6.7-7.9,38.1-4.9,46.7
			L357.5,121.8z"/>
	</g>
	<path class="st3" d="M359.5,141.7c-1.1,0-2,0.9-2,2s0.9,2,2,2s2-0.9,2-2S360.6,141.7,359.5,141.7z M359.5,145
		c-0.7,0-1.2-0.5-1.2-1.2s0.5-1.2,1.2-1.2s1.2,0.5,1.2,1.2S360.2,145,359.5,145z"/>
	<path class="st3" d="M430.5,141.1c-1.1,0-2,0.9-2,2s0.9,2,2,2s2-0.9,2-2S431.6,141.1,430.5,141.1z M430.5,144.4
		c-0.7,0-1.2-0.5-1.2-1.2s0.5-1.2,1.2-1.2s1.2,0.5,1.2,1.2C431.7,143.8,431.2,144.4,430.5,144.4z"/>
</g>
<g>
	<path class="st4" d="M420,56.8c0,0,23.5-0.9,14.3-29S404,18.5,404,18.5s-7.5-10.2-25.9-6.6S354.2,27,354.2,27s-32-11.2-30.5,26.4
		s39.9,10.7,39.9,10.7"/>
	<path class="st4" d="M346.6,62l6.4,33c0,0,35.8-35.3,74.1-26.2c0-10.5-7.7-21-7.7-21S377.5,37.6,346.6,62z"/>
	<g>
		<path class="st5" d="M360.7,49.5c0,0,6.2,11.6,23.6,8.8c17.4-2.7,20.9-17.5,20.9-17.5"/>
		<path class="st6" d="M360.7,49.5c8.1,11.7,26.5,11,36.8,2.6c3.5-2.9,6.2-6.9,7.7-11.2c-1.4,5.6-5.2,10.6-10,13.9
			C384.7,61.5,367.6,61.2,360.7,49.5L360.7,49.5z"/>
	</g>
</g>
<path class="st7" d="M399.6,144.1c2,0.9,4.3,0.4,5.4-0.9c1-1.2,0.9-3.5,1.1-4.9c0.6,0.9,0.9,3.5,0.3,4.6c-0.9,1.4-4.1,2.7-5.7,2.2
	c-0.4-0.1-0.8-0.6-1.2-0.9L399.6,144.1z"/>
<path class="st7" d="M390.3,144.5c-0.5,0.2-0.9,0.7-1.4,0.7c-0.9,0-1.8-0.2-2.6-0.5c-2.9-1.1-3.5-2.8-2.1-6.8c0,0.9,0,1.3,0,1.7
	c0,3.6,0.8,4.5,4.5,4.9C389.2,144.5,389.8,144.5,390.3,144.5C390.3,144.5,390.3,144.5,390.3,144.5z"/>
<path class="st8" d="M390.3,144.5c-0.4-0.4-0.8-0.8-1.3-1c-0.6-0.2-1.2-0.2-2-0.3c1.7-1.4,3.7-0.8,6.6,1.8
	C392.5,144.8,391.4,144.7,390.3,144.5C390.3,144.5,390.3,144.5,390.3,144.5z"/>
<path class="st8" d="M399.5,144.2c-1,0.3-2.1,0.6-3.1,0.9c2-1.4,3.7-3.5,6.5-2.2c-1.1,0.4-2.2,0.8-3.3,1.1L399.5,144.2z"/>
</svg>
