<?xml version="1.0" encoding="utf-8"?>
<!-- Generator: Adobe Illustrator 26.0.3, SVG Export Plug-In . SVG Version: 6.00 Build 0)  -->
<svg version="1.1" id="Layer_1" xmlns="http://www.w3.org/2000/svg" xmlns:xlink="http://www.w3.org/1999/xlink" x="0px" y="0px"
	 viewBox="0 0 188 167.8" style="enable-background:new 0 0 188 167.8;" xml:space="preserve">
<style type="text/css">
	.st0{fill:none;stroke:#2E858E;stroke-width:3;stroke-miterlimit:10;}
	.st1{fill:#A85B3B;}
	.st2{fill:#854532;}
	.st3{fill:#60131D;}
	.st4{fill:#2E858E;}
	.st5{fill:#70392C;}
	.st6{fill:#3E322E;}
</style>
<path class="st0" d="M47.2,84.4c-1-3.1-1.5-6.4-1.5-9.7c0-21.7,22.4-39.4,50-39.4s50,17.6,50,39.4c0,3.5-0.6,6.8-1.7,10.1"/>
<circle class="st1" cx="118.3" cy="46.7" r="6.1"/>
<path class="st1" d="M61.1,89.4l-4-2.7c-0.9-0.6-2.1-0.5-2.9,0.2L51.8,89c-0.6,0.5-0.9,1.2-0.8,2l0.9,12.3c0,0.4,0.2,0.8,0.4,1.1
	c1.2,1.8,5.1,7.9,5.7,8.7c0.3,0.5,1.8,1,3.2,1.3c1.3,0.3,2.6-0.5,2.9-1.8l2.8-11.8c0.1-0.6,0.1-1.1-0.2-1.6l-4.6-8.9
	C61.7,89.9,61.5,89.6,61.1,89.4z"/>
<path class="st1" d="M130.8,89.3l4.3-2.4c1.2-0.7,2.7-0.4,3.6,0.6l1.2,1.4c0.5,0.6,0.8,1.4,0.7,2.2l-0.9,12.1c0,0.5-0.2,1-0.5,1.4
	c-1.3,1.9-5.1,7.8-5.6,8.6c-0.3,0.4-1.4,0.8-2.6,1.2c-1.6,0.4-3.2-0.6-3.6-2.1l-2.6-11.1c-0.2-0.7-0.1-1.4,0.3-2l4.4-8.5
	C129.9,90,130.3,89.6,130.8,89.3z"/>
<path class="st1" d="M133.2,67.9c-1.4-6.8-5-12.9-10.4-17.2l-4.2-3.5c-4.8-3.9-10.8-6.3-17-6.7L96,40.2h-0.1l-5.6,0.3
	c-6.2,0.4-12.2,2.7-17,6.7L69,50.7c-5.3,4.4-9,10.4-10.4,17.2c-0.5,2.5-0.9,4.5-0.9,4.6c0,0.5,2.7,14.8,2.7,14.8v8l0.2,1.1l3.7,25.3
	c0.4,2.7,1.6,5.2,3.4,7.3c0,0,12.2,11.4,16.5,14.9c1.6,1.3,10.6,2.8,11.6,3l0,0h0.1l0.9-0.2l0.6-0.1c2.9-0.5,8.8-1.7,10.1-2.8
	c4.4-3.4,16.5-14.9,16.5-14.9c1.8-2,3-4.6,3.4-7.3l3.7-25.5l0.1-0.9v-8c0,0,2.7-14.3,2.7-14.8C134.1,72.3,133.7,70.3,133.2,67.9z"/>
<path class="st2" d="M129.4,108.1l1.9-13.2c0,0,4.7-4.7,5.1-4.8s0.6,2,0.6,2l-1.1,9.4l-2.7,4.7L129.4,108.1z"/>
<path class="st2" d="M62.5,109.1l-1.9-13.2c0,0-4.7-4.7-5.1-4.8s-0.6,2-0.6,2l1.1,9.4l2.7,4.7L62.5,109.1z"/>
<path class="st3" d="M60.4,88.9c0,0-8.5-18.9-4.6-34.7c0,0-5.9,1-5.2-0.4c0.8-1.4-2.9-6.7-2.4-8s4.5-3.2,5.6-3.4s-1.2-5.7-0.2-6.1
	s4.8-3.6,6.3-3.6s3.1-4.3,4.6-4.6c1.5-0.3,5.8-3.1,7.2-2.4c1.4,0.7,4.5-1.7,6.1-2s3.6,1,4.5,1s3.4-3.1,5-3.3s5.6,2.9,7.2,2.7
	s2.7-1.7,4.6-1.8s8.7,4.5,11.1,4.1s5.6-3,8.8-0.8c3.5,3.3,3.6,15.1,4.3,17.7c-0.6,1.6-6.3,8.2-9.8,11.8c-3.6,2.1-48.3-2.1-50,3.9
	c-1.8,6-0.2,20.4-0.2,20.4S60.2,80.2,60.4,88.9z"/>
<path class="st3" d="M131.3,89.5c0,0,8.6-18.3,4.7-34c0,0,1-1,0.2-2.4s2.6-2.3,2.1-3.7c-2.9-0.7-3.1-4.8-4.1-5
	c-3.4,1.1-4.9-2.4-5.9-2.8c-1-0.4-3.1,2.2-4.6,2.2l-9,11.2c3.6,2.1,13.1-1.8,14.9,4.2s-1.2,21.3-1.2,21.3S131.4,80.9,131.3,89.5z"/>
<g>
	<path class="st4" d="M61.2,116.4l-1.7,0.4c-1.8,0.4-3.6-0.8-3.9-2.6l-5.4-26.5c-0.4-1.8,0.8-3.6,2.6-3.9l1.7-0.4
		c1.8-0.4,3.6,0.8,3.9,2.6l5.4,26.5C64.2,114.2,63,116,61.2,116.4z"/>
	<path class="st4" d="M55.2,114.6l-3.5,0.7c-1.8,0.4-3.6-0.8-3.9-2.6l-4.2-20.5c-0.4-1.8,0.8-3.6,2.6-3.9l3.5-0.7L55.2,114.6z"/>
	<path class="st4" d="M45.2,82.5l2.1-1.2c0.5-0.3,1.1,0,1.2,0.5l1.5,7.3c0.1,0.4-0.2,0.8-0.5,0.9l0,0c-0.4,0.1-0.7,0-0.9-0.4
		L45,83.5C44.7,83.3,44.8,82.8,45.2,82.5z"/>
</g>
<g>
	<path class="st4" d="M130.2,116.4l1.7,0.4c1.8,0.4,3.6-0.8,3.9-2.6l5.4-26.5c0.4-1.8-0.8-3.6-2.6-3.9l-1.7-0.4
		c-1.8-0.4-3.6,0.8-3.9,2.6l-5.4,26.5C127.2,114.2,128.4,116,130.2,116.4z"/>
	<path class="st4" d="M136.2,114.6l3.5,0.7c1.8,0.4,3.6-0.8,3.9-2.6l4.2-20.5c0.4-1.8-0.8-3.6-2.6-3.9l-3.5-0.7L136.2,114.6z"/>
	<path class="st4" d="M146.2,82.5l-2.1-1.2c-0.5-0.3-1.1,0-1.2,0.5l-1.5,7.3c-0.1,0.4,0.2,0.8,0.5,0.9l0,0c0.4,0.1,0.7,0,0.9-0.4
		l3.6-6.1C146.7,83.3,146.6,82.8,146.2,82.5z"/>
</g>
<path class="st0" d="M58.7,115.8l-14.8,11.8c-2.5,2-2,5.9,0.9,7.2l10.1,4.4"/>
<circle class="st4" cx="58.7" cy="139.2" r="5.8"/>
<path class="st5" d="M100.5,111.6c2,0.9,4.3,0.4,5.4-0.9c1-1.2,0.9-3.5,1.1-4.9c0.6,0.9,0.9,3.5,0.3,4.6c-0.9,1.4-4.1,2.7-5.7,2.2
	c-0.4-0.1-0.8-0.6-1.2-0.9L100.5,111.6z"/>
<path class="st5" d="M91.2,111.9c-0.5,0.2-0.9,0.7-1.4,0.7c-0.9,0-1.8-0.2-2.6-0.5c-2.9-1.1-3.5-2.8-2.1-6.8c0,0.9,0,1.3,0,1.7
	c0,3.6,0.8,4.5,4.5,4.9C90.1,112,90.7,112,91.2,111.9C91.2,112,91.2,111.9,91.2,111.9z"/>
<path class="st6" d="M91.2,112c-0.4-0.4-0.8-0.8-1.3-1c-0.6-0.2-1.2-0.2-2-0.3c1.7-1.4,3.7-0.8,6.6,1.8
	C93.4,112.3,92.3,112.1,91.2,112C91.2,111.9,91.2,112,91.2,112z"/>
<path class="st6" d="M100.4,111.7c-1,0.3-2.1,0.6-3.1,0.9c2-1.4,3.7-3.5,6.5-2.2c-1.1,0.4-2.2,0.8-3.3,1.1L100.4,111.7z"/>
</svg>
