<?xml version="1.0" encoding="utf-8"?>
<!-- Generator: Adobe Illustrator 26.0.3, SVG Export Plug-In . SVG Version: 6.00 Build 0)  -->
<svg version="1.1" id="Layer_1" xmlns="http://www.w3.org/2000/svg" xmlns:xlink="http://www.w3.org/1999/xlink" x="0px" y="0px"
	 viewBox="0 0 788 1005" style="enable-background:new 0 0 788 1005;" xml:space="preserve">
<style type="text/css">
	.st0{fill:#A85B3B;}
	.st1{fill:#854532;}
	.st2{fill:#60131D;}
	.st3{fill:#70392C;}
	.st4{fill:#3E322E;}
</style>
<g>
	<g id="Calque_9">
		<path class="st0" d="M360.2,121.7l-4.6-3.1c-0.6-0.4-1.4-0.4-2,0.1l-3.1,2.6c-0.4,0.3-0.6,0.9-0.6,1.4l0.9,12.9
			c0,0.3,0.1,0.5,0.3,0.8c1,1.6,5.2,8,5.8,8.9c0.4,0.6,2.4,1.1,3.9,1.5c0.9,0.2,1.8-0.4,2-1.2l3-12.8c0.1-0.4,0-0.8-0.1-1.1
			l-4.9-9.3C360.6,122.1,360.4,121.9,360.2,121.7z"/>
		<path class="st0" d="M429.3,121.7l5.5-3.1c0.7-0.4,1.5-0.2,2,0.3l2.3,2.5c0.3,0.3,0.5,0.8,0.4,1.2l-0.9,13c0,0.3-0.1,0.5-0.3,0.8
			c-1,1.6-5.2,8-5.8,8.9c-0.4,0.6-2.4,1.1-3.9,1.5c-0.9,0.2-1.8-0.4-2-1.2l-3-12.8c-0.1-0.4,0-0.8,0.1-1.1l4.8-9.2
			C428.8,122.1,429.1,121.9,429.3,121.7z"/>
		<path class="st0" d="M432.1,100.1c-1.4-6.8-5-12.9-10.4-17.2l6.6-13c-4.8-3.9-21.6,3.2-27.8,2.8l-5.6-0.3h-0.1l-5.6,0.3
			c-6.2,0.4-12.2,2.7-17,6.7l-4.3,3.5c-5.3,4.4-9,10.4-10.4,17.2c-0.5,2.5-0.9,4.5-0.9,4.6c0,0.5,2.7,14.8,2.7,14.8v8l0.2,1.1
			l3.7,25.3c0.4,2.7,1.6,5.2,3.4,7.3c0,0,12.2,11.4,16.5,14.9c1.6,1.3,10.6,2.8,11.6,3l0,0h0.1l0.9-0.2l0.6-0.1
			c2.9-0.5,8.8-1.7,10.1-2.8c4.4-3.4,16.5-14.9,16.5-14.9c1.8-2,3-4.6,3.4-7.3l3.7-25.5l0.1-0.9v-8c0,0,2.7-14.3,2.7-14.8
			C433,104.5,432.6,102.5,432.1,100.1z"/>
		<path class="st1" d="M428.3,140.3l1.9-13.2c0,0,4.7-4.7,5.1-4.8s0.6,2,0.6,2l-1.1,9.4l-2.7,4.7L428.3,140.3z"/>
		<path class="st1" d="M361.4,141.3l-1.9-13.2c0,0-4.7-4.7-5.1-4.8s-0.6,2-0.6,2l1.1,9.4l2.7,4.7L361.4,141.3z"/>
	</g>
	<path class="st2" d="M437.5,87.4c0.5-2.8,1.3-10.7-3.7-17.3c-2.2-2.9-4.5-4.7-6.8-5.9c1.2,0,2.3,0,3.3,0.2c1.8,0.2,2.3-2.5,0.5-2.8
		c-0.5-0.1-1-0.1-1.5-0.1c-1.4,0-2-1.8-0.8-2.6c2.9-1.9,5.9-4,7.4-5c0.6-0.4,0.8-1.2,0.5-1.8c-3.9-8.1-11.2-2.4-15.5,2
		c-0.9,1-2.6,0.2-2.4-1.2c0.3-1.7,0.6-3.4,0.7-4.6c0.1-0.8-0.4-1.5-1.2-1.6c-5.8-0.6-7.4,5.5-7.4,12.1c-1.9-1.2-4.4-2.5-7.6-3.4
		l-1.3-1.3c-0.1-0.1-0.1-0.1-0.2-0.2c-1.8-1-23.9-12.9-34.4-3.7c-0.6,0.5-0.3,1.4,0.4,1.6c2.4,0.6,7.1,1.4,10.9,2.1
		c1,0.2,1,1.6,0.1,1.8c-8,1.8-22.6,6.6-28,19.4c-0.3,0.7,0.2,1.4,1,1.3c1.7-0.2,4.2-0.3,4.2-0.3s-13.8,5.3-12.5,9.4
		c0.2,0.5,0.8,0.8,1.3,0.5c0,0,0,0,0.1,0c0.9-0.4,1.8,0.6,1.1,1.4c-2.7,3.3-5.4,7.9-2.7,10.7c0.3,0.3,0.9,0.4,1.3,0.1
		c0.8-0.7,2.4-2,3.9-3.3c0.8-0.7,1.9,0.2,1.4,1.1c-3.5,6.3-8.1,16.8-1.7,19.4c0.5,0.2,1,0,1.2-0.5c0.4-1,1.2-3,2-5
		c0.4-1,1.9-0.6,1.8,0.4c-0.5,6.1,0.2,13.6,6.5,12.5c0.5-0.1,0.8-0.5,0.8-0.9c0-2-0.2-7.3-0.3-8.3c0-0.1,0-0.2,0-0.3
		c0.5-1.4,4.5-13.1,14.3-24.1c2.1-1.2,3.7-2.1,3.7-2.1s13.5,1.7,18.4-0.8c5.7-2.9,17.6-9.3,17.6-9.3c6.9,8.3,12,26.7,9.3,31
		c-1,1.5,1.2,3.1,2.3,1.6c0.2-0.4,0.5-0.8,0.7-1.3c0.6-1.3,2.5-1,2.7,0.4c0.6,3.4,1.1,7,1.4,8.8c0.1,0.7,0.7,1.2,1.4,1.2
		c9,0,7-9.2,4.8-14.9c-0.5-1.3,0.9-2.5,2.1-1.7c1.4,1,2.9,2,3.9,2.6c0.7,0.5,2,0.4,2-0.4C444.1,96.8,441.3,91.3,437.5,87.4z"/>
</g>
<path class="st3" d="M399.4,143.8c2,0.9,4.3,0.4,5.4-0.9c1-1.2,0.9-3.5,1.1-4.9c0.6,0.9,0.9,3.5,0.3,4.6c-0.9,1.4-4.1,2.7-5.7,2.2
	c-0.4-0.1-0.8-0.6-1.2-0.9L399.4,143.8z"/>
<path class="st3" d="M390.1,144.1c-0.5,0.2-0.9,0.7-1.4,0.7c-0.9,0-1.8-0.2-2.6-0.5c-2.9-1.1-3.5-2.8-2.1-6.8c0,0.9,0,1.3,0,1.7
	c0,3.6,0.8,4.5,4.5,4.9C389,144.2,389.6,144.2,390.1,144.1C390.1,144.2,390.1,144.1,390.1,144.1z"/>
<path class="st4" d="M390.1,144.2c-0.4-0.4-0.8-0.8-1.3-1c-0.6-0.2-1.2-0.2-2-0.3c1.7-1.4,3.7-0.8,6.6,1.8
	C392.3,144.5,391.2,144.3,390.1,144.2C390.1,144.1,390.1,144.2,390.1,144.2z"/>
<path class="st4" d="M399.3,143.9c-1,0.3-2.1,0.6-3.1,0.9c2-1.4,3.7-3.5,6.5-2.2c-1.1,0.4-2.2,0.8-3.3,1.1L399.3,143.9z"/>
</svg>
