<?xml version="1.0" encoding="utf-8"?>
<!-- Generator: Adobe Illustrator 26.0.3, SVG Export Plug-In . SVG Version: 6.00 Build 0)  -->
<svg version="1.1" id="Layer_1" xmlns="http://www.w3.org/2000/svg" xmlns:xlink="http://www.w3.org/1999/xlink" x="0px" y="0px"
	 viewBox="0 0 788 1005" style="enable-background:new 0 0 788 1005;" xml:space="preserve">
<style type="text/css">
	.st0{fill:#60131D;}
	.st1{fill:#A85B3B;}
	.st2{fill:#854532;}
	.st3{fill:#70392C;}
	.st4{fill:#3E322E;}
</style>
<g>
	<path class="st0" d="M437.4,98.6c0,23.6-19,42.7-42.4,42.7s-42.4-19.1-42.4-42.7s19-40.9,42.4-40.9S437.4,75,437.4,98.6z"/>
	<g id="Calque_9">
		<path class="st1" d="M360,121.6l-4-2.6c-0.9-0.6-2.1-0.5-2.9,0.2l-2.4,2c-0.6,0.5-0.9,1.3-0.8,2l0.9,12.3c0,0.4,0.2,0.8,0.4,1.1
			c1.2,1.8,5.1,7.9,5.7,8.7c0.3,0.5,1.8,1,3.1,1.3c1.3,0.3,2.6-0.5,2.9-1.8l2.8-11.7c0.1-0.6,0.1-1.2-0.2-1.7l-4.6-8.9
			C360.6,122.1,360.4,121.8,360,121.6z"/>
		<path class="st1" d="M429.5,121.6l4.7-2.7c1-0.6,2.2-0.4,3,0.5l1.6,1.8c0.4,0.5,0.7,1.1,0.6,1.8l-0.9,12.4c0,0.4-0.2,0.8-0.4,1.1
			c-1.2,1.8-5.1,7.9-5.7,8.7c-0.3,0.5-1.8,1-3.1,1.3c-1.3,0.3-2.6-0.5-2.9-1.8l-2.8-11.7c-0.1-0.6-0.1-1.2,0.2-1.7l4.6-8.8
			C428.8,122.2,429.1,121.8,429.5,121.6z"/>
		<path class="st1" d="M432.1,100.1c-1.4-6.8-5-12.9-10.4-17.2l-4.2-3.5c-4.8-3.9-10.8-6.3-17-6.7l-5.6-0.3h-0.1l-5.6,0.3
			c-6.2,0.4-12.2,2.7-17,6.7l-4.3,3.5c-5.3,4.4-9,10.4-10.4,17.2c-0.5,2.5-0.9,4.5-0.9,4.6c0,0.5,2.7,14.8,2.7,14.8v8l0.2,1.1
			l3.7,25.3c0.4,2.7,1.6,5.2,3.4,7.3c0,0,12.2,11.4,16.5,14.9c1.6,1.3,10.6,2.8,11.6,3l0,0h0.1l0.9-0.2l0.6-0.1
			c2.9-0.5,8.8-1.7,10.1-2.8c4.4-3.4,16.5-14.9,16.5-14.9c1.8-2,3-4.6,3.4-7.3l3.7-25.5l0.1-0.9v-8c0,0,2.7-14.3,2.7-14.8
			C433,104.5,432.6,102.5,432.1,100.1z"/>
		<path class="st2" d="M428.3,140.3l1.9-13.2c0,0,4.7-4.7,5.1-4.8s0.6,2,0.6,2l-1.1,9.4l-2.7,4.7L428.3,140.3z"/>
		<path class="st2" d="M361.4,141.3l-1.9-13.2c0,0-4.7-4.7-5.1-4.8s-0.6,2-0.6,2l1.1,9.4l2.7,4.7L361.4,141.3z"/>
	</g>
	<path class="st0" d="M359.3,119.5c0,0-2.8-26.3,3.7-23.5c0-0.1-0.5-8-0.5-8s22.4,3.2,32.5,3c0.1-0.3,0-22.1,0-22.1l-30.1,7.5
		l-7.3,17.8l-2.5,15.4L359.3,119.5z"/>
	<path class="st0" d="M430.4,119.5c0,0,2.7-26.6-3.7-23.8c0-0.1,0.5-6.5,0.5-6.5s-11.2,0.1-22.3,1.1c-0.2,0,4.9-12.1,4.6-12
		c-0.3,0-6.4,12.2-6.7,12.2c-0.4,0-4.7,0.5-5.1,0.5c-0.2,0,9.7-16.5,9.4-16.5c-0.2,0-11.3,16.6-11.5,16.6c-0.3,0-2.1,0-2.3,0
		c-0.1-0.3,1.3-22.1,1.3-22.1l30.1,7.5l7.3,17.8l2.5,15.4L430.4,119.5z"/>
</g>
<ellipse cx="430" cy="145.9" rx="0.7" ry="3"/>
<path class="st3" d="M399.5,143.9c2,0.9,4.3,0.4,5.4-0.9c1-1.2,0.9-3.5,1.1-4.9c0.6,0.9,0.9,3.5,0.3,4.6c-0.9,1.4-4.1,2.7-5.7,2.2
	c-0.4-0.1-0.8-0.6-1.2-0.9L399.5,143.9z"/>
<path class="st3" d="M390.2,144.3c-0.5,0.2-0.9,0.7-1.4,0.7c-0.9,0-1.8-0.2-2.6-0.5c-2.9-1.1-3.5-2.8-2.1-6.8c0,0.9,0,1.3,0,1.7
	c0,3.6,0.8,4.5,4.5,4.9C389.1,144.3,389.7,144.3,390.2,144.3L390.2,144.3z"/>
<path class="st4" d="M390.2,144.3c-0.4-0.4-0.8-0.8-1.3-1c-0.6-0.2-1.2-0.2-2-0.3c1.7-1.4,3.7-0.8,6.6,1.8
	C392.4,144.6,391.3,144.4,390.2,144.3L390.2,144.3z"/>
<path class="st4" d="M399.4,144c-1,0.3-2.1,0.6-3.1,0.9c2-1.4,3.7-3.5,6.5-2.2c-1.1,0.4-2.2,0.8-3.3,1.1L399.4,144z"/>
</svg>
