<?xml version="1.0" encoding="utf-8"?>
<!-- Generator: Adobe Illustrator 26.0.3, SVG Export Plug-In . SVG Version: 6.00 Build 0)  -->
<svg version="1.1" id="Layer_1" xmlns="http://www.w3.org/2000/svg" xmlns:xlink="http://www.w3.org/1999/xlink" x="0px" y="0px"
	 viewBox="0 0 788 1005" style="enable-background:new 0 0 788 1005;" xml:space="preserve">
<style type="text/css">
	.st0{fill:none;stroke:#2E858E;stroke-width:3;stroke-miterlimit:10;}
	.st1{fill:#A85B3B;}
	.st2{fill:#854532;}
	.st3{fill:#60131D;}
	.st4{fill:#2E858E;}
	.st5{fill:#70392C;}
	.st6{fill:#3E322E;}
</style>
<path class="st0" d="M346.1,116.7c-1-3.1-1.5-6.4-1.5-9.7c0-21.7,22.4-39.4,50-39.4s50,17.6,50,39.4c0,3.5-0.6,6.8-1.7,10.1"/>
<circle class="st1" cx="417.2" cy="78.9" r="6.1"/>
<path class="st1" d="M360,121.6l-4-2.7c-0.9-0.6-2.1-0.5-2.9,0.2l-2.4,2.1c-0.6,0.5-0.9,1.2-0.8,2l0.9,12.3c0,0.4,0.2,0.8,0.4,1.1
	c1.2,1.8,5.1,7.9,5.7,8.7c0.3,0.5,1.8,1,3.2,1.3c1.3,0.3,2.6-0.5,2.9-1.8l2.8-11.8c0.1-0.6,0.1-1.1-0.2-1.6l-4.6-8.9
	C360.6,122.1,360.4,121.8,360,121.6z"/>
<path class="st1" d="M429.7,121.5l4.3-2.4c1.2-0.7,2.7-0.4,3.6,0.6l1.2,1.4c0.5,0.6,0.8,1.4,0.7,2.2l-0.9,12.1c0,0.5-0.2,1-0.5,1.4
	c-1.3,1.9-5.1,7.8-5.6,8.6c-0.3,0.4-1.4,0.8-2.6,1.2c-1.6,0.4-3.2-0.6-3.6-2.1l-2.6-11.1c-0.2-0.7-0.1-1.4,0.3-2l4.4-8.5
	C428.8,122.2,429.2,121.8,429.7,121.5z"/>
<path class="st1" d="M432.1,100.1c-1.4-6.8-5-12.9-10.4-17.2l-4.2-3.5c-4.8-3.9-10.8-6.3-17-6.7l-5.6-0.3h-0.1l-5.6,0.3
	c-6.2,0.4-12.2,2.7-17,6.7l-4.3,3.5c-5.3,4.4-9,10.4-10.4,17.2c-0.5,2.5-0.9,4.5-0.9,4.6c0,0.5,2.7,14.8,2.7,14.8v8l0.2,1.1
	l3.7,25.3c0.4,2.7,1.6,5.2,3.4,7.3c0,0,12.2,11.4,16.5,14.9c1.6,1.3,10.6,2.8,11.6,3l0,0h0.1l0.9-0.2l0.6-0.1
	c2.9-0.5,8.8-1.7,10.1-2.8c4.4-3.4,16.5-14.9,16.5-14.9c1.8-2,3-4.6,3.4-7.3l3.7-25.5l0.1-0.9v-8c0,0,2.7-14.3,2.7-14.8
	C433,104.5,432.6,102.5,432.1,100.1z"/>
<path class="st2" d="M428.3,140.3l1.9-13.2c0,0,4.7-4.7,5.1-4.8s0.6,2,0.6,2l-1.1,9.4l-2.7,4.7L428.3,140.3z"/>
<path class="st2" d="M361.4,141.3l-1.9-13.2c0,0-4.7-4.7-5.1-4.8s-0.6,2-0.6,2l1.1,9.4l2.7,4.7L361.4,141.3z"/>
<path class="st3" d="M359.3,121.1c0,0-7.4-16.4-5.2-31.5c0.2-1.6-1.1-2.9-2.6-2.9c-1.2,0-2.2-0.1-1.9-0.7c0.8-1.4-2.9-6.7-2.4-8
	s4.5-3.2,5.6-3.4s-1.2-5.7-0.2-6.1s4.8-3.6,6.3-3.6s3.1-4.3,4.6-4.6s5.8-3.1,7.2-2.4c1.4,0.7,4.5-1.7,6.1-2s3.6,1,4.5,1
	s3.4-3.1,5-3.3s5.6,2.9,7.2,2.7s2.7-1.7,4.6-1.8s8.7,4.5,11.1,4.1c0.2,0,0.3-0.1,0.5-0.1c5.1-1.4,10.3,1.6,11.2,6.8
	c0.8,4.2,1,8.7,1.4,10.2c-0.6,1.6-6.3,8.2-9.8,11.8c-3.6,2.1-48.3-2.1-50,3.9c-1.8,6-0.2,20.4-0.2,20.4S359.1,112.4,359.3,121.1z"/>
<path class="st3" d="M430.2,121.7c0,0,8.6-18.3,4.7-34c0,0,1-1,0.2-2.4s2.6-2.3,2.1-3.7c-2.9-0.7-3.1-4.8-4.1-5
	c-3.4,1.1-4.9-2.4-5.9-2.8s-3.1,2.2-4.6,2.2l-9,11.2c3.6,2.1,13.1-1.8,14.9,4.2s-1.2,21.3-1.2,21.3S430.3,113.1,430.2,121.7z"/>
<g>
	<path class="st4" d="M360.1,148.7l-1.7,0.4c-1.8,0.4-3.6-0.8-3.9-2.6l-5.4-26.5c-0.4-1.8,0.8-3.6,2.6-3.9l1.7-0.4
		c1.8-0.4,3.6,0.8,3.9,2.6l5.4,26.5C363.1,146.5,361.9,148.3,360.1,148.7z"/>
	<path class="st4" d="M354.1,146.9l-3.5,0.7c-1.8,0.4-3.6-0.8-3.9-2.6l-4.2-20.5c-0.4-1.8,0.8-3.6,2.6-3.9l3.5-0.7L354.1,146.9z"/>
	<path class="st4" d="M344.1,114.8l2.1-1.2c0.5-0.3,1.1,0,1.2,0.5l1.5,7.3c0.1,0.4-0.2,0.8-0.5,0.9l0,0c-0.4,0.1-0.7,0-0.9-0.4
		l-3.6-6.1C343.6,115.6,343.7,115.1,344.1,114.8z"/>
</g>
<g>
	<path class="st4" d="M429.1,148.7l1.7,0.4c1.8,0.4,3.6-0.8,3.9-2.6l5.4-26.5c0.4-1.8-0.8-3.6-2.6-3.9l-1.7-0.4
		c-1.8-0.4-3.6,0.8-3.9,2.6l-5.4,26.5C426.1,146.5,427.3,148.3,429.1,148.7z"/>
	<path class="st4" d="M435.1,146.9l3.5,0.7c1.8,0.4,3.6-0.8,3.9-2.6l4.2-20.5c0.4-1.8-0.8-3.6-2.6-3.9l-3.5-0.7L435.1,146.9z"/>
	<path class="st4" d="M445.1,114.8l-2.1-1.2c-0.5-0.3-1.1,0-1.2,0.5l-1.5,7.3c-0.1,0.4,0.2,0.8,0.5,0.9l0,0c0.4,0.1,0.7,0,0.9-0.4
		l3.6-6.1C445.6,115.6,445.5,115.1,445.1,114.8z"/>
</g>
<path class="st0" d="M357.6,148.1l-14.8,11.8c-2.5,2-2,5.9,0.9,7.2l10.1,4.4"/>
<circle class="st4" cx="357.6" cy="171.5" r="5.8"/>
<path class="st5" d="M399.4,143.9c2,0.9,4.3,0.4,5.4-0.9c1-1.2,0.9-3.5,1.1-4.9c0.6,0.9,0.9,3.5,0.3,4.6c-0.9,1.4-4.1,2.7-5.7,2.2
	c-0.4-0.1-0.8-0.6-1.2-0.9L399.4,143.9z"/>
<path class="st5" d="M390.1,144.2c-0.5,0.2-0.9,0.7-1.4,0.7c-0.9,0-1.8-0.2-2.6-0.5c-2.9-1.1-3.5-2.8-2.1-6.8c0,0.9,0,1.3,0,1.7
	c0,3.6,0.8,4.5,4.5,4.9C389,144.3,389.6,144.2,390.1,144.2C390.1,144.2,390.1,144.2,390.1,144.2z"/>
<path class="st6" d="M390.1,144.2c-0.4-0.4-0.8-0.8-1.3-1c-0.6-0.2-1.2-0.2-2-0.3c1.7-1.4,3.7-0.8,6.6,1.8
	C392.3,144.5,391.2,144.4,390.1,144.2C390.1,144.2,390.1,144.2,390.1,144.2z"/>
<path class="st6" d="M399.3,144c-1,0.3-2.1,0.6-3.1,0.9c2-1.4,3.7-3.5,6.5-2.2c-1.1,0.4-2.2,0.8-3.3,1.1L399.3,144z"/>
</svg>
