<?xml version="1.0" encoding="utf-8"?>
<!-- Generator: Adobe Illustrator 26.0.3, SVG Export Plug-In . SVG Version: 6.00 Build 0)  -->
<svg version="1.1" id="Layer_1" xmlns="http://www.w3.org/2000/svg" xmlns:xlink="http://www.w3.org/1999/xlink" x="0px" y="0px"
	 viewBox="0 0 188 167.8" style="enable-background:new 0 0 188 167.8;" xml:space="preserve">
<style type="text/css">
	.st0{fill:#A85B3B;}
	.st1{fill:#854532;}
	.st2{fill:#60131D;}
	.st3{fill:#FFFFFF;}
	.st4{fill:#D3D3D3;stroke:#D34B1C;stroke-miterlimit:10;}
	.st5{fill:#D3D3D3;}
	.st6{fill:#D34B1C;}
	.st7{fill:#70392C;}
	.st8{fill:#3E322E;}
</style>
<g>
	<g>
		<g id="Calque_9_00000139262956761817392580000002661492864632695699_">
			<path class="st0" d="M72.6,110.4l-4.4-2.9c-0.7-0.5-1.7-0.4-2.3,0.1l-2.8,2.4c-0.5,0.4-0.7,1-0.7,1.6l0.9,12.6
				c0,0.3,0.1,0.6,0.3,0.9c1.1,1.7,5.2,8,5.7,8.8c0.4,0.6,2.2,1.1,3.6,1.4c1,0.2,2.1-0.4,2.3-1.4l2.9-12.4c0.1-0.5,0-0.9-0.2-1.3
				l-4.8-9.1C73.1,110.9,72.9,110.6,72.6,110.4z"/>
			<path class="st0" d="M141.9,110.4l5.2-3c0.8-0.4,1.8-0.3,2.4,0.4l2,2.2c0.4,0.4,0.5,0.9,0.5,1.4l-0.9,12.8c0,0.3-0.1,0.6-0.3,0.9
				c-1.1,1.7-5.2,8-5.7,8.8c-0.4,0.6-2.2,1.1-3.6,1.4c-1,0.2-2.1-0.4-2.3-1.4l-2.9-12.4c-0.1-0.5,0-0.9,0.2-1.3l4.7-9.1
				C141.3,110.9,141.6,110.6,141.9,110.4z"/>
			<path class="st0" d="M144.6,88.8c-1.4-6.8-3.2-21.1-8.5-25.4l-12.2-2.3c-4.8-3.9-4.7,0.8-10.9,0.4l-5.6-0.4h-0.1l-5.6,0.4
				c-6.2,0.4-11.1-3.3-15.9,0.7L78.5,64c-5.4,4.4-7,18.1-8.4,24.8c-0.5,2.5-0.9,4.4-0.9,4.6c0,0.5-2.9,5.1-2.9,5.1l5.7,17.7l0.2,1.1
				l3.7,25.4c0.4,2.7,1.6,5.2,3.4,7.3c0,0,12.2,11.4,16.5,14.9c1.7,1.3,10.6,2.8,11.6,3l0,0h0.1l0,0l0.9-0.1l0.6-0.1
				c2.9-0.5,8.8-1.7,10.1-2.7c4.4-3.4,16.6-14.8,16.6-14.8c1.8-2,3-4.6,3.4-7.3l3.7-25.5l0.1-0.9v-8c0,0,2.8-14.3,2.8-14.8
				C145.5,93.3,145,91.3,144.6,88.8z"/>
			<path class="st1" d="M140.8,129.1l1.9-13.2c0,0,4.7-4.7,5.1-4.8c0.4-0.1,0.6,2,0.6,2l-1.1,9.4l-2.7,4.7L140.8,129.1z"/>
			<path class="st1" d="M73.8,130.1l-1.9-13.2c0,0-4.7-4.7-5.1-4.8s-0.6,2-0.6,2l1.1,9.4l2.7,4.7L73.8,130.1z"/>
		</g>
		<g id="Calque_7_00000102517533513937852740000003620408865085819830_">
			<path class="st2" d="M69.8,110.6c0,0-0.5-15.6,0.8-20.4c1.9-6.7,5.9-18.2,11.3-20.6c5.7-2.6,20.5,1.9,26.6,2
				c5.8,0.1,17.4-5.7,22.9-3.3c3.4,1.5,7.8,9.8,9.3,13.9c2.8,7.3,2,25.9,2,25.9v1.7c1.4-0.5,2.7-1.2,3.9-2.1
				c2-13.2,4.2-42.8-8.8-50.8c-5.6-3.5-22-8.5-28-9.3s-18.5,1-24.7,2.5c-6.4,1.5-8.2,5.3-13.3,9.8c-7.6,6.7-7.9,38.1-4.9,46.7
				L69.8,110.6z"/>
		</g>
		<path class="st3" d="M71.8,130.5c-1.1,0-2,0.9-2,2s0.9,2,2,2s2-0.9,2-2S72.9,130.5,71.8,130.5z M71.8,133.8
			c-0.7,0-1.2-0.5-1.2-1.2s0.5-1.2,1.2-1.2s1.2,0.5,1.2,1.2S72.5,133.8,71.8,133.8z"/>
		<path class="st3" d="M142.8,129.9c-1.1,0-2,0.9-2,2s0.9,2,2,2s2-0.9,2-2S143.9,129.9,142.8,129.9z M142.8,133.2
			c-0.7,0-1.2-0.5-1.2-1.2s0.5-1.2,1.2-1.2s1.2,0.5,1.2,1.2C144,132.6,143.5,133.2,142.8,133.2z"/>
	</g>
	<g>
		<path class="st4" d="M132.3,45.6c0,0,23.5-0.9,14.3-29c-9.2-28-30.3-9.3-30.3-9.3s-7.5-10.2-25.9-6.6s-23.9,15-23.9,15
			S34.5,4.5,36,42.1s39.9,10.7,39.9,10.7"/>
		<path class="st4" d="M59,50.8l6.4,33c0,0,35.8-35.3,74.1-26.2c0-10.5-7.7-21-7.7-21S89.8,26.4,59,50.8z"/>
		<g>
			<path class="st5" d="M73.1,38.3c0,0,6.2,11.6,23.6,8.8s20.9-17.5,20.9-17.5"/>
			<path class="st6" d="M73.1,38.3c8.1,11.7,26.5,11,36.8,2.6c3.5-2.9,6.2-6.9,7.7-11.2c-1.4,5.6-5.2,10.6-10,13.9
				C97.1,50.3,80,50,73.1,38.3L73.1,38.3z"/>
		</g>
	</g>
</g>
<path class="st7" d="M111.9,132.6c2,0.9,4.3,0.4,5.4-0.9c1-1.2,0.9-3.5,1.1-4.9c0.6,0.9,0.9,3.5,0.3,4.6c-0.9,1.4-4.1,2.7-5.7,2.2
	c-0.4-0.1-0.8-0.6-1.2-0.9L111.9,132.6z"/>
<path class="st7" d="M102.6,132.9c-0.5,0.2-0.9,0.7-1.4,0.7c-0.9,0-1.8-0.2-2.6-0.5c-2.9-1.1-3.5-2.8-2.1-6.8c0,0.9,0,1.3,0,1.7
	c0,3.6,0.8,4.5,4.5,4.9C101.5,133,102.1,133,102.6,132.9C102.6,133,102.6,132.9,102.6,132.9z"/>
<path class="st8" d="M102.6,133c-0.4-0.4-0.8-0.8-1.3-1c-0.6-0.2-1.2-0.2-2-0.3c1.7-1.4,3.7-0.8,6.6,1.8
	C104.8,133.3,103.7,133.1,102.6,133C102.6,132.9,102.6,133,102.6,133z"/>
<path class="st8" d="M111.8,132.7c-1,0.3-2.1,0.6-3.1,0.9c2-1.4,3.7-3.5,6.5-2.2c-1.1,0.4-2.2,0.8-3.3,1.1L111.8,132.7z"/>
</svg>
