<?xml version="1.0" encoding="utf-8"?>
<!-- Generator: Adobe Illustrator 26.0.3, SVG Export Plug-In . SVG Version: 6.00 Build 0)  -->
<svg version="1.1" id="Layer_1" xmlns="http://www.w3.org/2000/svg" xmlns:xlink="http://www.w3.org/1999/xlink" x="0px" y="0px"
	 viewBox="0 0 788 1005" style="enable-background:new 0 0 788 1005;" xml:space="preserve">
<style type="text/css">
	.st0{fill:#772A1F;}
	.st1{fill:#A85B3B;}
	.st2{fill:#854532;}
	.st3{fill:#60131D;}
	.st4{fill:#893024;}
	.st5{fill:#913323;}
	.st6{fill:none;stroke:#26130D;stroke-miterlimit:10;}
	.st7{fill:#70392C;}
	.st8{fill:#3E322E;}
</style>
<g>
	<polygon class="st0" points="346.4,106.4 355.1,109.2 434.7,107.4 443.9,105 403.7,84.9 359.1,86.7 	"/>
	<g id="Calque_9">
		<path class="st1" d="M360.3,121.8l-4.9-3.3c-0.5-0.3-1.1-0.3-1.5,0.1l-3.5,3c-0.3,0.3-0.5,0.7-0.4,1.1l0.9,13.1
			c0,0.2,0.1,0.4,0.2,0.6c0.9,1.4,5.2,8.1,5.8,9c0.4,0.7,2.8,1.2,4.3,1.6c0.7,0.1,1.3-0.3,1.5-1l3.1-13.3c0.1-0.3,0-0.6-0.1-0.9
			l-5-9.5C360.6,122,360.4,121.9,360.3,121.8z"/>
		<path class="st1" d="M429.2,121.8l5.8-3.3c0.5-0.3,1.2-0.2,1.6,0.3l2.6,2.8c0.2,0.3,0.4,0.6,0.3,0.9l-0.9,13.2
			c0,0.2-0.1,0.4-0.2,0.6c-0.9,1.4-5.2,8.1-5.8,9c-0.4,0.7-2.8,1.2-4.3,1.6c-0.7,0.1-1.3-0.3-1.5-1l-3.1-13.3
			c-0.1-0.3,0-0.6,0.1-0.9l4.9-9.5C428.8,122.1,429,121.9,429.2,121.8z"/>
		<path class="st1" d="M432.1,100.1c-1.4-6.8-5-12.9-10.4-17.2l-4.2-3.5c-4.8-3.9-10.8-6.3-17-6.7l-5.6-0.3h-0.1l-5.6,0.3
			c-6.2,0.4-12.2,2.7-17,6.7l-4.3,3.5c-5.3,4.4-9,10.4-10.4,17.2c-0.5,2.5-0.9,4.5-0.9,4.6c0,0.5,2.7,14.8,2.7,14.8v8l0.2,1.1
			l3.7,25.3c0.4,2.7,1.6,5.2,3.4,7.3c0,0,12.2,11.4,16.5,14.9c1.6,1.3,10.6,2.8,11.6,3l0,0h0.1l0.9-0.2l0.6-0.1
			c2.9-0.5,8.8-1.7,10.1-2.8c4.4-3.4,16.5-14.9,16.5-14.9c1.8-2,3-4.6,3.4-7.3l3.7-25.5l0.1-0.9v-8c0,0,2.7-14.3,2.7-14.8
			C433,104.5,432.6,102.5,432.1,100.1z"/>
		<path class="st2" d="M428.3,140.3l1.9-13.2c0,0,4.7-4.7,5.1-4.8s0.6,2,0.6,2l-1.1,9.4l-2.7,4.7L428.3,140.3z"/>
		<path class="st2" d="M361.4,141.3l-1.9-13.2c0,0-4.7-4.7-5.1-4.8s-0.6,2-0.6,2l1.1,9.4l2.7,4.7L361.4,141.3z"/>
	</g>
	<g id="Calque_1">
		<path class="st3" d="M359.6,121.3l-1.6-8.9c-0.8-4.4-0.1-9,1.9-13l8.1-15.7l27.8,3.1c0,0,27.8-1.6,28.2-1.2
			c0.2,0.2,3.7,8.1,6.1,13.7c1.6,3.6,2,7.7,1.4,11.6l-1.5,8.6l0.1,1.7c0,0,6.4-2.8,6-3.4c-0.2-0.3,0.7-6.9,1.4-11.8
			c0.5-3.4,0.6-6.8,0.4-10.3l-12.5-27.4h-60.2L352.8,95c-0.6,4.9-0.5,9.9,0.3,14.8l1.4,8.2L359.6,121.3z"/>
	</g>
	<path class="st4" d="M353.7,84.9c0,0,8.5-20.3,12.1-22.8s29.2-5.7,29.2-5.7s25.2,3.2,27.1,4.3c2,1.1,15.9,25,15.9,25l-43.2-4.2
		L353.7,84.9z"/>
	<path class="st5" d="M346.7,106.5c0,0,20.6-10.3,48.5-10.5s47.4,9.2,47.4,9.2s2,0.3,2-1c0-1-5-14.3-7.2-20.1
		c-0.7-1.8-1.9-3.1-3.4-3.7c-5.4-2.1-19.9-6.9-38.8-7.1c-19.3-0.2-33.2,4.1-38,5.9c-1.2,0.4-2.2,1.4-2.8,2.8
		C351.5,88.4,343.5,107.1,346.7,106.5z"/>
	<path class="st6" d="M430.3,143.7c0.4-0.2,0.8-0.4,1.3-0.3c1.2,0.1,2,1.3,1.9,2.7s-1.2,2.4-2.4,2.3c-0.9-0.1-1.6-0.8-1.8-1.7"/>
	<path class="st6" d="M358.9,143.6c-0.4-0.2-0.8-0.4-1.3-0.3c-1.2,0.1-2,1.3-1.9,2.7s1.2,2.4,2.4,2.3c0.9-0.1,1.6-0.8,1.8-1.7"/>
</g>
<path class="st7" d="M399.5,144.2c2,0.9,4.3,0.4,5.4-0.9c1-1.2,0.9-3.5,1.1-4.9c0.6,0.9,0.9,3.5,0.3,4.6c-0.9,1.4-4.1,2.7-5.7,2.2
	c-0.4-0.1-0.8-0.6-1.2-0.9L399.5,144.2z"/>
<path class="st7" d="M390.2,144.5c-0.5,0.2-0.9,0.7-1.4,0.7c-0.9,0-1.8-0.2-2.6-0.5c-2.9-1.1-3.5-2.8-2.1-6.8c0,0.9,0,1.3,0,1.7
	c0,3.6,0.8,4.5,4.5,4.9C389.1,144.6,389.7,144.6,390.2,144.5C390.2,144.6,390.2,144.5,390.2,144.5z"/>
<path class="st8" d="M390.2,144.6c-0.4-0.4-0.8-0.8-1.3-1c-0.6-0.2-1.2-0.2-2-0.3c1.7-1.4,3.7-0.8,6.6,1.8
	C392.4,144.9,391.3,144.7,390.2,144.6C390.2,144.5,390.2,144.6,390.2,144.6z"/>
<path class="st8" d="M399.4,144.3c-1,0.3-2.1,0.6-3.1,0.9c2-1.4,3.7-3.5,6.5-2.2c-1.1,0.4-2.2,0.8-3.3,1.1L399.4,144.3z"/>
</svg>
