<?xml version="1.0" encoding="utf-8"?>
<!-- Generator: Adobe Illustrator 26.0.3, SVG Export Plug-In . SVG Version: 6.00 Build 0)  -->
<svg version="1.1" id="Layer_1" xmlns="http://www.w3.org/2000/svg" xmlns:xlink="http://www.w3.org/1999/xlink" x="0px" y="0px"
	 viewBox="0 0 788 1005" style="enable-background:new 0 0 788 1005;" xml:space="preserve">
<style type="text/css">
	.st0{fill:#A85B3B;}
	.st1{fill:#854532;}
	.st2{fill:#60131D;}
	.st3{fill:#89371A;}
	.st4{fill:#993816;}
	.st5{fill:#70392C;}
	.st6{fill:#3E322E;}
</style>
<g>
	<g id="Calque_9">
		<path class="st0" d="M360.1,121.7l-4.3-2.9c-0.7-0.5-1.7-0.4-2.4,0.1l-2.8,2.4c-0.5,0.4-0.7,1-0.7,1.7l0.9,12.6
			c0,0.3,0.1,0.7,0.3,0.9c1.1,1.7,5.2,8,5.7,8.8c0.4,0.6,2.1,1.1,3.6,1.4c1.1,0.2,2.1-0.4,2.4-1.5l2.9-12.3c0.1-0.5,0-1-0.2-1.4
			l-4.8-9.1C360.6,122.1,360.4,121.8,360.1,121.7z"/>
		<path class="st0" d="M429.4,121.7l5.2-2.9c0.8-0.5,1.8-0.3,2.5,0.4l2,2.2c0.4,0.4,0.6,0.9,0.5,1.5l-0.9,12.7
			c0,0.3-0.1,0.7-0.3,0.9c-1.1,1.7-5.2,8-5.7,8.8c-0.4,0.6-2.1,1.1-3.6,1.4c-1.1,0.2-2.1-0.4-2.4-1.5l-2.9-12.3
			c-0.1-0.5,0-1,0.2-1.4l4.7-9C428.8,122.1,429.1,121.8,429.4,121.7z"/>
		<path class="st0" d="M432.1,100.1c-1.4-6.8-5-12.9-10.4-17.2l-4.2-3.5c-4.8-3.9-10.8-6.3-17-6.7l-5.6-0.3h-0.1l-5.6,0.3
			c-6.2,0.4-8.6-1.8-13.4,2.2l-9.8,6.2c-5.3,4.4-7,12.2-8.4,19c-0.5,2.5-0.9,4.5-0.9,4.6c0,0.5,2.7,14.8,2.7,14.8v8l0.2,1.1
			l3.7,25.3c0.4,2.7,1.6,5.2,3.4,7.3c0,0,12.2,11.4,16.5,14.9c1.6,1.3,10.6,2.8,11.6,3l0,0h0.1l0.9-0.2l0.6-0.1
			c2.9-0.5,8.8-1.7,10.1-2.8c4.4-3.4,16.5-14.9,16.5-14.9c1.8-2,3-4.6,3.4-7.3l3.7-25.5l0.1-0.9v-8c0,0,2.7-14.3,2.7-14.8
			C433,104.5,432.6,102.5,432.1,100.1z"/>
		<path class="st1" d="M428.3,140.3l1.9-13.2c0,0,4.7-4.7,5.1-4.8s0.6,2,0.6,2l-1.1,9.4l-2.7,4.7L428.3,140.3z"/>
		<path class="st1" d="M361.4,141.3l-1.9-13.2c0,0-4.7-4.7-5.1-4.8s-0.6,2-0.6,2l1.1,9.4l2.7,4.7L361.4,141.3z"/>
	</g>
	<g>
		<path class="st2" d="M398.3,83.5c0,0,18.3-0.4,20,1.1c1.4,1.2,2.3,7.9,2.5,10c0,0.4,0.2,0.7,0.5,1l7.2,6.4
			c0.3,0.2,0.4,0.6,0.5,0.9l0.7,16.6c0.2,1.1-0.3,2.5,0.5,1.8c0.9-0.6,2.7-1.4,2.5-1.1c3.8-42.2-6-50.8-8.9-52
			c-0.4-0.2-0.7-0.5-0.8-0.9c-0.6-2-2.8-7.8-8.5-11.2c-0.5-0.3-0.8-1-0.6-1.7c1.1-4.2,6.8-18.2,5.9-21.6c-0.6-2.7-5.6,4.5-7.2,9
			c-0.2,0.7-1.2-0.6-1.3-1.3c-3.4-12.5,12.3-13.8,14.3-16.7c0.8-1.1-17.7-0.9-19.4,7.5c-0.2,0.7-1.1,0.7-1.2-0.1
			c-0.2-2.5-0.5-5.1-1.2-6.1c-1.1-1.6-3.2,3.5-4.2,6.1c-0.2,0.5-0.9,0.5-1.1,0c-0.8-1.9-2.3-5-3.7-4.7c-1.2,0.2-0.1,8.3,1,14.3
			c0.1,0.7-0.8,1.1-1.1,0.4c-1.3-2.6-3-5.1-4.8-4.6c-3.5,0.9,4.8,13.7,5.9,15.3c0.1,0.1,0.1,0.2,0.2,0.3l0.4,1.1
			c0.3,1-0.4,2.1-1.3,2l-2.4-0.2c-0.3,0-0.5-0.1-0.7-0.3c-2.2-1.8-15.1-12.2-17.8-12.6c-2.5-0.4-1.5,6.4,6.5,12
			c1.1,0.8,0.7,2.7-0.7,2.8l0,0c-0.2,0-0.4-0.1-0.6-0.2c-2.1-1.2-14.4-8-19.4-4.2c-0.9,0.7-0.7,2.3,0.4,2.6c0.6,0.2,1.2,0.4,1.9,0.6
			c1.3,0.4,1.3,2.5,0,2.9c-3,0.8-6.2,2.3-7.5,5.2c-2.6,5.9,13.9-3.4,15.7-2.9c1.5,0.4-2.1,3.9-3.6,5.2c-0.3,0.3-0.8,0.4-1.2,0.3
			c-3.6-1.1-20.8-6.4-22.1-2c-0.9,3,5.2,5,10.3,6.1c1.3,0.3,1.5,2.4,0.1,2.9c-5.8,2.2-13.8,6.5-14.8,14c-0.2,1.4,1.3,2.2,2.2,1.2
			c2-2,5.3-5.1,9.3-7.1c1.3-0.6,2.5,0.9,1.7,2.2c-3.8,6-9.7,17.5-4.3,25c2.2,2.4,5.3-10.7,7.1-19.2c0.3-1.5-1.4-2.5-2.3-1.3
			c-2.4,3.2-5.8,6.8-9.7,7.9c-1,0.3-1.3,1.7-0.6,2.5c2.2,2.3,9.1,2.9,15.3-12.9c0,0-5.1,13.3-4.5,17.2c0.5,3.4,3.7,14.2,4.2,16.8
			c0.1,0.4,0.2,0.3,0.4,0.5l1.3,1.4l1.4-21.1c0-0.4,0.2-0.7,0.5-0.9l3.8-3.4c0.3-0.3,0.5-0.8,0.5-1.2c-0.1-1.9,0-6.7,2.3-8.1
			C370.8,85.2,398.3,83.5,398.3,83.5z"/>
		<path class="st3" d="M413.8,53.9h-17.1c-0.3,0-0.6-0.3-0.6-0.6v-0.2c0-0.3,0.3-0.6,0.6-0.6h17.1c0.3,0,0.6,0.3,0.6,0.6v0.2
			C414.4,53.6,414.2,53.9,413.8,53.9z"/>
		<path class="st4" d="M413.8,55.8h-17.1c-0.3,0-0.6-0.3-0.6-0.6v-0.7c0-0.3,0.3-0.6,0.6-0.6h17.1c0.3,0,0.6,0.3,0.6,0.6v0.7
			C414.4,55.5,414.2,55.8,413.8,55.8z"/>
	</g>
</g>
<path class="st5" d="M399.5,143.8c2,0.9,4.3,0.4,5.4-0.9c1-1.2,0.9-3.5,1.1-4.9c0.6,0.9,0.9,3.5,0.3,4.6c-0.9,1.4-4.1,2.7-5.7,2.2
	c-0.4-0.1-0.8-0.6-1.2-0.9L399.5,143.8z"/>
<path class="st5" d="M390.2,144.1c-0.5,0.2-0.9,0.7-1.4,0.7c-0.9,0-1.8-0.2-2.6-0.5c-2.9-1.1-3.5-2.8-2.1-6.8c0,0.9,0,1.3,0,1.7
	c0,3.6,0.8,4.5,4.5,4.9C389.1,144.2,389.7,144.2,390.2,144.1C390.2,144.2,390.2,144.1,390.2,144.1z"/>
<path class="st6" d="M390.2,144.2c-0.4-0.4-0.8-0.8-1.3-1c-0.6-0.2-1.2-0.2-2-0.3c1.7-1.4,3.7-0.8,6.6,1.8
	C392.4,144.5,391.3,144.3,390.2,144.2C390.2,144.1,390.2,144.2,390.2,144.2z"/>
<path class="st6" d="M399.4,143.9c-1,0.3-2.1,0.6-3.1,0.9c2-1.4,3.7-3.5,6.5-2.2c-1.1,0.4-2.2,0.8-3.3,1.1L399.4,143.9z"/>
</svg>
