<?xml version="1.0" encoding="utf-8"?>
<!-- Generator: Adobe Illustrator 26.0.3, SVG Export Plug-In . SVG Version: 6.00 Build 0)  -->
<svg version="1.1" id="Calque_1" xmlns="http://www.w3.org/2000/svg" xmlns:xlink="http://www.w3.org/1999/xlink" x="0px" y="0px"
	 viewBox="0 0 788 1005" style="enable-background:new 0 0 788 1005;" xml:space="preserve">
<style type="text/css">
	.st0{fill:#A85B3B;}
	.st1{fill:#3E322E;}
	.st2{fill:#854532;}
	.st3{fill:#A85D3D;}
	.st4{fill:#70392C;}
</style>
<g>
	<g id="Calque_9">
		<path class="st0" d="M360,121.6l-4.1-2.8c-0.8-0.5-1.9-0.5-2.7,0.2l-2.6,2.2c-0.5,0.5-0.8,1.1-0.8,1.8l0.9,12.4
			c0,0.4,0.1,0.7,0.4,1c1.2,1.8,5.2,8,5.7,8.7c0.3,0.5,1.9,1,3.3,1.3c1.2,0.3,2.4-0.4,2.7-1.6l2.8-12c0.1-0.5,0.1-1.1-0.2-1.5
			l-4.7-9C360.6,122.1,360.3,121.8,360,121.6z"/>
		<path class="st0" d="M429.5,121.6l5-2.8c0.9-0.5,2-0.3,2.7,0.4l1.8,2c0.4,0.4,0.6,1,0.6,1.6l-0.9,12.6c0,0.4-0.1,0.7-0.4,1
			c-1.2,1.8-5.2,8-5.7,8.7c-0.3,0.5-1.9,1-3.3,1.3c-1.2,0.3-2.4-0.4-2.7-1.6l-2.8-12c-0.1-0.5-0.1-1.1,0.2-1.5l4.6-8.9
			C428.8,122.1,429.1,121.8,429.5,121.6z"/>
		<path class="st0" d="M432.1,100.1c-1.4-6.8-5-12.9-10.4-17.2l-4.2-3.5c-4.8-3.9-10.8-6.3-17-6.7l-5.6-0.3h-0.1l-5.6,0.3
			c-6.2,0.4-12.2,2.7-17,6.7l-4.3,3.5c-5.3,4.4-9,10.4-10.4,17.2c-0.5,2.5-0.9,4.5-0.9,4.6c0,0.5,2.7,14.8,2.7,14.8v8l0.2,1.1
			l3.7,25.3c0.4,2.7,1.6,5.2,3.4,7.3c0,0,12.2,11.4,16.5,14.9c1.6,1.3,10.6,2.8,11.6,3l0,0h0.1l0.9-0.2l0.6-0.1
			c2.9-0.5,8.8-1.7,10.1-2.8c4.4-3.4,16.5-14.9,16.5-14.9c1.8-2,3-4.6,3.4-7.3l3.7-25.5l0.1-0.9v-8c0,0,2.7-14.3,2.7-14.8
			C433,104.5,432.6,102.5,432.1,100.1z"/>
		<path class="st1" d="M390.7,143.4l-4.9-2.1l-0.9,0.9c0,0,3.1,1.8,3.5,1.9s3.8,0,3.8,0L390.7,143.4z"/>
		<path class="st1" d="M398.3,143.4l4.9-2.1l1.6,0.9c-0.6,0.6-1.3,1.2-2.1,1.7c-0.5,0.1-1,0.1-1.5,0.1L398.3,143.4z"/>
		<path class="st2" d="M394.9,145.9l4.2-1.6c0,0,0.7-0.4,1.5-0.9c1.3-0.7,2.9-1.6,2.9-1.7c0.3,0.1,0.6,0.3,0.9,0.4L403,143l-1.6,0.8
			h2l2.6-2.1v-1.4h-2.2l-7.1,2.5h-1.8V145.9z"/>
		<path class="st2" d="M394.9,145.9l-4.2-1.6l-1.5-0.9c-1.3-0.7-2.9-1.6-2.9-1.7c-0.3,0.1-0.6,0.3-0.9,0.4l1.5,0.8l1.6,0.8h-2
			l-2.6-2.1v-1.4h2.2l7.1,2.5h1.8L394.9,145.9z"/>
		<path class="st2" d="M428.3,140.3l1.9-13.2c0,0,4.7-4.7,5.1-4.8s0.6,2,0.6,2l-1.1,9.4l-2.7,4.7L428.3,140.3z"/>
		<path class="st2" d="M361.4,141.3l-1.9-13.2c0,0-4.7-4.7-5.1-4.8s-0.6,2-0.6,2l1.1,9.4l2.7,4.7L361.4,141.3z"/>
	</g>
	<g id="Calque_1_00000111882753220745847360000002199911928711394452_">
		<polygon class="st3" points="426.4,151.1 369.6,151.1 369.6,142.3 371.2,142.5 397.4,144.4 424.7,142.4 424.7,140.8 426.2,141 		
			"/>
		<path class="st0" d="M433.5,101c-1.5-6.8-5.3-18.1-10.9-22.4l-4.5-3.6c-5-3.9-11.3-6.3-17.7-6.7l-5.8-0.3h-0.1l-5.8,0.3
			C382.2,68.7,376,71,371,75l-4.4,3.5c-5.6,4.4-9.4,15.7-10.8,22.5c-0.5,2.5-0.9,4.5-0.9,4.6c0,0.5,2.8,14.8,2.8,14.8v8l0.2,1.1
			l3.9,25.3c0.4,2.7,1.7,5.2,3.5,7.3c0,0,12.7,11.4,17.2,14.9c1.7,1.3,11.1,2.8,12.1,3l0,0h0.1l0,0l0.9-0.2l0.6-0.1
			c3-0.5,9.2-1.7,10.5-2.8c4.6-3.4,17.2-14.9,17.2-14.9c1.9-2,3.1-4.6,3.5-7.3l3.9-25.5l0.1-0.9v-8c0,0,2.8-14.3,2.8-14.8
			C434.4,105.4,434,103.4,433.5,101z"/>
	</g>
	<g>
		<path d="M435.4,123.1c0.5,3.4,5.4-1.2,3.5-2.7c-0.3-0.2-0.7-0.2-1.1-0.2c0.8-0.6,2.2-0.3,2.4,0.8c0.3,2-1.3,3.9-3.2,4.1
			C435.8,125.1,435,124.1,435.4,123.1L435.4,123.1z"/>
	</g>
	<g>
		<path d="M435.7,125.8c-1.6,3.2,5.4,2,4.5-0.4c-0.2-0.3-0.5-0.6-0.9-0.7c1,0,1.9,0.9,1.4,1.9c-0.8,1.7-3.1,2.4-4.8,1.6
			C435,127.7,434.9,126.4,435.7,125.8L435.7,125.8z"/>
	</g>
</g>
<path class="st4" d="M399.5,143.8c2,0.9,4.3,0.4,5.4-0.9c1-1.2,0.9-3.5,1.1-4.9c0.6,0.9,0.9,3.5,0.3,4.6c-0.9,1.4-4.1,2.7-5.7,2.2
	c-0.4-0.1-0.8-0.6-1.2-0.9L399.5,143.8z"/>
<path class="st4" d="M390.2,144.2c-0.5,0.2-0.9,0.7-1.4,0.7c-0.9,0-1.8-0.2-2.6-0.5c-2.9-1.1-3.5-2.8-2.1-6.8c0,0.9,0,1.3,0,1.7
	c0,3.6,0.8,4.5,4.5,4.9C389.1,144.2,389.7,144.2,390.2,144.2C390.2,144.2,390.2,144.2,390.2,144.2z"/>
<path class="st1" d="M390.2,144.2c-0.4-0.4-0.8-0.8-1.3-1c-0.6-0.2-1.2-0.2-2-0.3c1.7-1.4,3.7-0.8,6.6,1.8
	C392.4,144.5,391.3,144.3,390.2,144.2C390.2,144.2,390.2,144.2,390.2,144.2z"/>
<path class="st1" d="M399.4,143.9c-1,0.3-2.1,0.6-3.1,0.9c2-1.4,3.7-3.5,6.5-2.2c-1.1,0.4-2.2,0.8-3.3,1.1L399.4,143.9z"/>
</svg>
