<?xml version="1.0" encoding="utf-8"?>
<!-- Generator: Adobe Illustrator 26.0.3, SVG Export Plug-In . SVG Version: 6.00 Build 0)  -->
<svg version="1.1" id="Calque_1" xmlns="http://www.w3.org/2000/svg" xmlns:xlink="http://www.w3.org/1999/xlink" x="0px" y="0px"
	 viewBox="0 0 788 1005" style="enable-background:new 0 0 788 1005;" xml:space="preserve">
<style type="text/css">
	.st0{fill:none;stroke:#2E858E;stroke-width:3.8231;stroke-miterlimit:10;}
	.st1{fill:#3D0811;}
	.st2{clip-path:url(#SVGID_00000043434276372513382890000017784934603362953381_);}
	.st3{fill:#7F4C36;}
	.st4{clip-path:url(#SVGID_00000000191370306494019050000016701298773173514637_);}
	.st5{fill:#90573A;}
	.st6{fill:#704232;}
	.st7{fill:#2E858E;}
	.st8{fill:none;stroke:#2E858E;stroke-width:4.6273;stroke-miterlimit:10;}
</style>
<g id="Calque_13">
	<path class="st0" d="M293.8,304.8c-2-5.5-3.1-11-3.1-16.7c0-37.4,46.1-67.8,103-67.8s103,30.4,103,67.8c0,6-1.2,11.8-3.5,17.3"/>
	<path class="st1" d="M292.3,399.3c0,0,6,21.7,24.3,16.7c18.3-5.1,17.4-21,17.4-21s22.1,8,25.5-10.8s-12.7-22.2-18.2-20.4
		s-9.9-23-21.3-23.4c0,0,7.5-20.3,9.2-26.5c1.8-6.1-2-20.4-13-21.2c-11-0.9-19.6,7.2-20.2,13.3c0,0-14.3-9.1-26.7,2
		c-12.4,11.2-4.9,24.3-4.9,24.3s-12.7,3.8-14.4,18.8s11.6,21.5,11.6,21.5s-6,14.2,7.3,25.2C282.3,408.8,292.3,399.3,292.3,399.3z"/>
	<g id="random">
		<g>
			<g>
				<g>
					<g>
						<defs>
							<polygon id="SVGID_1_" points="458.3,308.8 458.3,308.8 495.6,308.8 495.6,363.3 458.3,363.3 							"/>
						</defs>
						<clipPath id="SVGID_00000044166206228571346040000003705336821497580969_">
							<use xlink:href="#SVGID_1_"  style="overflow:visible;"/>
						</clipPath>
						<g style="clip-path:url(#SVGID_00000044166206228571346040000003705336821497580969_);">
							<path class="st3" d="M458.3,358.7l7.2-40c0,0,14.2-16.4,26.5-6.8c8.2,6.4,1.3,47.3-8.2,50
								C467.7,366.4,458.3,358.7,458.3,358.7z"/>
						</g>
					</g>
				</g>
			</g>
		</g>
	</g>
	<g id="random2">
		<g>
			<g>
				<g>
					<g>
						<defs>
							<polygon id="SVGID_00000041982533902066626870000005265431363103227311_" points="326.1,308.8 326.1,308.8 288.8,308.8 
								288.8,363.3 326.1,363.3 							"/>
						</defs>
						<clipPath id="SVGID_00000100364430943853752540000017636300157566034329_">
							<use xlink:href="#SVGID_00000041982533902066626870000005265431363103227311_"  style="overflow:visible;"/>
						</clipPath>
						<g style="clip-path:url(#SVGID_00000100364430943853752540000017636300157566034329_);">
							<path class="st3" d="M326.1,358.7l-7.2-40c0,0-14.2-16.4-26.5-6.8c-8.2,6.4-1.3,47.3,8.2,50
								C316.8,366.4,326.1,358.7,326.1,358.7z"/>
						</g>
					</g>
				</g>
			</g>
		</g>
	</g>
	<path class="st1" d="M303,301.4c0-50.6,39.8-91.7,88.9-91.7s88.9,41.1,88.9,91.7s-73,88.3-88.9,91.7C409.7,386.9,303,352,303,301.4
		z"/>
	<path class="st5" d="M396.5,214.3h-3c-44.5,0-75.8,28.5-75.8,73.1c0,0,0.9,36.6,3.1,52c1.8,12.4,4.3,26.4,19.6,47.6
		c8.9,12.3,36.5,24.2,52.4,25.8l0,0c15.9-1.6,46.3-14,55.2-26.3c15.4-21.2,17.9-35.2,19.6-47.6c2.2-15.5,3.1-52,3.1-52
		c0-44.5-31.3-73.1-75.8-73.1h-3"/>
	<path class="st3" d="M391.5,240.7L391.5,240.7l-73,50.5c0,0-13.8-62.5,72.7-73.4c0,0,66.7-1.8,78.3,64.6c4.3,24.9-3.8,5.5-3.8,5.5
		s-66-24-74.7-47.6"/>
	<path class="st1" d="M390.9,233.6L390.9,233.6l-80.8,64c0.9,4,0-78,70.3-87.2c0,0,81.6-2.6,93.9,66.8c4.6,26-3.6,9.7-3.6,9.7
		s-71.1-28.9-80.4-53.6"/>
	<path class="st6" d="M380.8,359.3c-1,0.1-1.4,0.7-0.6,1c3,1.2,8.6,3.3,12.3,3.3c3.5,0,8.9-2.1,11.7-3.3c0.8-0.3,0.4-0.9-0.6-1
		c-3.3-0.2-4.7,0.6-11.4,0.6C386.4,360,384.1,359.1,380.8,359.3z"/>
	<g>
		<path class="st7" d="M322.7,370.8l-3.5,0.8c-3.7,0.8-7.4-1.7-8-5.4L300,311.5c-0.8-3.7,1.7-7.4,5.4-8l3.5-0.8
			c3.7-0.8,7.4,1.7,8,5.4l11.1,54.6C328.8,366.1,326.4,369.8,322.7,370.8z"/>
		<path class="st7" d="M310.3,367.1l-7.2,1.4c-3.7,0.8-7.4-1.7-8-5.4l-8.6-42.3c-0.8-3.7,1.7-7.4,5.4-8l7.2-1.4L310.3,367.1z"/>
		<path class="st7" d="M289.7,300.9l4.3-2.5c1.1-0.6,2.3,0,2.5,1.1l3.1,15.1c0.2,0.8-0.5,1.7-1.1,1.9l0,0c-0.8,0.2-1.4,0-1.9-0.8
			l-7.4-12.5C288.6,302.6,288.9,301.5,289.7,300.9z"/>
	</g>
	<g>
		<path class="st7" d="M464.7,370.8l3.5,0.8c3.7,0.8,7.4-1.7,8-5.4l11.1-54.6c0.8-3.7-1.7-7.4-5.4-8l-3.5-0.8
			c-3.7-0.8-7.4,1.7-8,5.4l-11.1,54.6C458.6,366.1,461,369.8,464.7,370.8z"/>
		<path class="st7" d="M477.2,367.1l7.2,1.4c3.7,0.8,7.4-1.7,8-5.4l8.6-42.3c0.8-3.7-1.7-7.4-5.4-8l-7.2-1.4L477.2,367.1z"/>
		<path class="st7" d="M497.7,300.9l-4.3-2.5c-1.1-0.6-2.3,0-2.5,1.1l-3.1,15.1c-0.2,0.8,0.5,1.7,1.1,1.9l0,0c0.8,0.2,1.4,0,1.9-0.8
			l7.4-12.5C498.8,302.6,498.5,301.5,497.7,300.9z"/>
	</g>
	<path class="st8" d="M317.4,369.5l-30.5,24.4c-5.1,4.2-4.2,12.2,1.9,14.8l20.8,9.1"/>
	<circle class="st7" cx="317.4" cy="417.7" r="11.9"/>
</g>
</svg>
