<?xml version="1.0" encoding="utf-8"?>
<!-- Generator: Adobe Illustrator 26.0.3, SVG Export Plug-In . SVG Version: 6.00 Build 0)  -->
<svg version="1.1" id="Calque_1" xmlns="http://www.w3.org/2000/svg" xmlns:xlink="http://www.w3.org/1999/xlink" x="0px" y="0px"
	 viewBox="0 0 260.5 240.1" style="enable-background:new 0 0 260.5 240.1;" xml:space="preserve">
<style type="text/css">
	.st0{clip-path:url(#SVGID_00000067234891466293033170000010779500377270750614_);}
	.st1{fill:#7F4C36;}
	.st2{clip-path:url(#SVGID_00000160177715664277918640000014612938454024962210_);}
	.st3{fill:#3D0811;}
	.st4{fill:#90573A;}
	.st5{fill:#704232;}
	.st6{fill:#C83C55;}
	.st7{fill:#FFBD75;}
</style>
<g>
	<g id="random">
		<g>
			<g>
				<g>
					<g>
						<defs>
							<polygon id="SVGID_1_" points="188.4,128.3 188.4,128.3 222.3,128.3 222.3,177.9 188.4,177.9 							"/>
						</defs>
						<clipPath id="SVGID_00000096758205460164577170000013710705294112188569_">
							<use xlink:href="#SVGID_1_"  style="overflow:visible;"/>
						</clipPath>
						<g style="clip-path:url(#SVGID_00000096758205460164577170000013710705294112188569_);">
							<path class="st1" d="M188.4,173.7l6.5-36.4c0,0,12.9-14.9,24.1-6.2c7.5,5.8,1.2,43-7.5,45.5
								C197,180.7,188.4,173.7,188.4,173.7z"/>
						</g>
					</g>
				</g>
			</g>
		</g>
	</g>
	<g id="random2">
		<g>
			<g>
				<g>
					<g>
						<defs>
							<polygon id="SVGID_00000005228024784641624380000004297199503986513551_" points="68.3,128.3 68.3,128.3 34.4,128.3 
								34.4,177.9 68.3,177.9 							"/>
						</defs>
						<clipPath id="SVGID_00000071555744163828703070000010248537283120407455_">
							<use xlink:href="#SVGID_00000005228024784641624380000004297199503986513551_"  style="overflow:visible;"/>
						</clipPath>
						<g style="clip-path:url(#SVGID_00000071555744163828703070000010248537283120407455_);">
							<path class="st1" d="M68.3,173.7l-6.5-36.4c0,0-12.9-14.9-24.1-6.2c-7.5,5.8-1.2,43,7.5,45.5
								C59.8,180.7,68.3,173.7,68.3,173.7z"/>
						</g>
					</g>
				</g>
			</g>
		</g>
	</g>
	<path class="st3" d="M47.3,121.6c0-46,36.2-83.4,80.8-83.4s80.8,37.4,80.8,83.4s-66.4,80.3-80.8,83.4
		C144.3,199.3,47.3,167.6,47.3,121.6z"/>
	<path class="st4" d="M132.3,42.4h-2.7c-40.5,0-68.9,25.9-68.9,66.5c0,0,0.8,33.3,2.8,47.3c1.6,11.3,3.9,24,17.8,43.3
		c8.1,11.2,33.2,22,47.6,23.5l0,0c14.5-1.5,42.1-12.7,50.2-23.9c14-19.3,16.3-32,17.8-43.3c2-14.1,2.8-47.3,2.8-47.3
		c0-40.5-28.5-66.5-68.9-66.5h-2.7"/>
	<path class="st5" d="M118,174.2c-0.9,0.1-1.3,0.6-0.5,0.9c2.7,1.1,7.8,3,11.2,3c3.2,0,8.1-1.9,10.6-3c0.7-0.3,0.4-0.8-0.5-0.9"/>
	<path class="st1" d="M56.1,106.3c0,0,0.6-65.5,70.8-65.5s73.1,68.3,73.1,68.3s-17.3,16.5-48.8-18.8c0.4,0.4-9.5,22.9-21.2,23.3
		c-11.6,0.4-22.4-25.8-22.4-25.8S83.2,113.9,56.1,106.3z"/>
	<path class="st3" d="M55,106.7c0,0,2.1-66.8,72.3-66.8s76.4,69.2,76.4,69.2s-20.2,9.3-51.7-26c0.4,0.4-10.3,30.2-21.9,30.5
		c-11.6,0.3-21.5-31.8-21.5-31.8S82.1,114.2,55,106.7z"/>
	<path class="st3" d="M4.3,79.6c0,0,18.2-44.9,66.5-18.2c0.4,0,6.5-8.5,6.5-8.5S71.4,18,36.5,17.6C1.5,17.2-6,63.9,4.3,79.6z"/>
	<path class="st3" d="M256.2,79.2c0,0-18.2-44.9-66.5-18.2c-0.4,0-6.5-8.5-6.5-8.5s5.8-34.9,40.7-35.3
		C258.9,16.9,266.5,63.5,256.2,79.2z"/>
	<circle class="st6" cx="67.5" cy="60.7" r="7.8"/>
	<circle class="st7" cx="78.4" cy="50.6" r="7.8"/>
	<circle class="st6" cx="188.8" cy="62.7" r="7.8"/>
	<circle class="st7" cx="178.1" cy="52.6" r="7.8"/>
</g>
</svg>
