<?xml version="1.0" encoding="utf-8"?>
<!-- Generator: Adobe Illustrator 26.0.3, SVG Export Plug-In . SVG Version: 6.00 Build 0)  -->
<svg version="1.1" id="Calque_1" xmlns="http://www.w3.org/2000/svg" xmlns:xlink="http://www.w3.org/1999/xlink" x="0px" y="0px"
	 viewBox="0 0 788 1005" style="enable-background:new 0 0 788 1005;" xml:space="preserve">
<style type="text/css">
	.st0{fill:#3D0811;}
	.st1{clip-path:url(#SVGID_00000000938267657400299170000000364726357116272005_);}
	.st2{fill:#7F4C36;}
	.st3{clip-path:url(#SVGID_00000126294855554006049040000008614873812587584185_);}
	.st4{fill:#90573A;}
	.st5{fill:#704232;}
	.st6{fill:#B22947;}
	.st7{fill:#87213C;}
</style>
<path class="st0" d="M475.2,343c0,0-10.4,34.6-3.5,40.6s25.3,20.7,25.3,32.2s-16.4,30.5-43.5,27.9c-0.9-0.3,16.4-7.8,13.2-17.3
	c-3.2-9.5-24.8-9.5-26.2-28.2s-3.7-38-3.7-38L475.2,343z"/>
<g id="random">
	<g>
		<g>
			<g>
				<g>
					<defs>
						<polygon id="SVGID_1_" points="458.3,308.8 458.3,308.8 495.6,308.8 495.6,363.3 458.3,363.3 						"/>
					</defs>
					<clipPath id="SVGID_00000176742381333228399100000017534826979191471249_">
						<use xlink:href="#SVGID_1_"  style="overflow:visible;"/>
					</clipPath>
					<g style="clip-path:url(#SVGID_00000176742381333228399100000017534826979191471249_);">
						<path class="st2" d="M458.3,358.7l7.2-40c0,0,14.2-16.4,26.5-6.8c8.2,6.4,1.3,47.3-8.2,50
							C467.7,366.4,458.3,358.7,458.3,358.7z"/>
					</g>
				</g>
			</g>
		</g>
	</g>
</g>
<g id="random2">
	<g>
		<g>
			<g>
				<g>
					<defs>
						<polygon id="SVGID_00000010294419371405906160000017017240790473906354_" points="326.1,308.8 326.1,308.8 288.8,308.8 
							288.8,363.3 326.1,363.3 						"/>
					</defs>
					<clipPath id="SVGID_00000143576462656127528930000008929370859285343414_">
						<use xlink:href="#SVGID_00000010294419371405906160000017017240790473906354_"  style="overflow:visible;"/>
					</clipPath>
					<g style="clip-path:url(#SVGID_00000143576462656127528930000008929370859285343414_);">
						<path class="st2" d="M326.1,358.7l-7.2-40c0,0-14.2-16.4-26.5-6.8c-8.2,6.4-1.3,47.3,8.2,50
							C316.8,366.4,326.1,358.7,326.1,358.7z"/>
					</g>
				</g>
			</g>
		</g>
	</g>
</g>
<path class="st0" d="M303,301.4c0-50.6,39.8-91.7,88.9-91.7s88.9,41.1,88.9,91.7s-73,88.3-88.9,91.7C409.7,386.9,303,352,303,301.4z
	"/>
<path class="st4" d="M396.5,214.3h-3c-44.5,0-75.8,28.5-75.8,73.1c0,0,0.9,36.6,3.1,52c1.8,12.4,4.3,26.4,19.6,47.6
	c8.9,12.3,36.5,24.2,52.4,25.8l0,0c15.9-1.6,46.3-14,55.2-26.3c15.4-21.2,17.9-35.2,19.6-47.6c2.2-15.5,3.1-52,3.1-52
	c0-44.5-31.3-73.1-75.8-73.1h-3"/>
<path class="st5" d="M380.8,359.3c-1,0.1-1.4,0.7-0.6,1c3,1.2,8.6,3.3,12.3,3.3c3.5,0,8.9-2.1,11.7-3.3c0.8-0.3,0.4-0.9-0.6-1
	c-3.3-0.2-4.7,0.6-11.4,0.6C386.4,360,384.1,359.1,380.8,359.3z"/>
<path class="st2" d="M424.3,212.4c0,0-106.6,91.3-105.6,91.3c11.7-0.5,57.3,1.7,96.5-52.4c0.9-1.3,3-0.7,3.1,0.8
	c0.3,3,0.5,7.1,0.7,10.1c0.1,1.5,1.9,2.2,2.9,1.2l8.6-8.3c1-1,2.7-0.4,2.9,1c1.1,7.5,3.6,25.8,2.3,36.6c-0.2,1.7,1.9,2.7,3,1.4
	c4.1-4.8,9.9-14.6,11.2-32.4c0.1-1.7,2.3-2.2,3.2-0.8c5.7,9.5,12.5,23.9,15.4,52.3c0.2,1.9,17.4-56.8-23.7-87.7
	C444.2,224.8,429.9,212.4,424.3,212.4z"/>
<path class="st0" d="M426,204.6c0,0-114.7-32.6-122.6,98.9c-0.1,1-0.3,2.5,0.7,2.4c11.7-0.5,73.6-8.4,112.8-62.5
	c0.9-1.3,3-0.7,3.1,0.8c0.3,3,0.5,7.1,0.7,10.1c0.1,1.5,1.9,2.2,2.9,1.2l8.6-8.3c1-1,2.7-0.4,2.9,1c1.1,7.5,3.6,25.8,2.3,36.6
	c-0.2,1.7,1.9,2.7,3,1.4c4.1-4.8,9.9-14.6,11.2-32.4c0.1-1.7,2.3-2.2,3.2-0.8c5.7,9.5,11.3,34.6,14.2,63c0.2,1.9,9.4,0.3,9.8-1.7
	c4.5-19.3,8.9-65.9-32.2-96.8c-0.8-0.6-0.9-1.7-0.3-2.5c2.7-3.2,8.7-11.4,14.3-14c0.3,0.1-9.5-2.6-17.4,3.3c-1,0.8-2.5,0.2-2.7-1.1
	c-0.6-3.4-2.3-8.9-7-12.9c-1.2-1-3,0-2.8,1.6C431.4,196.8,431.6,204.6,426,204.6z"/>
<g>
	<path class="st6" d="M258,250c2.9-8.8,9.6-14.7,15.9-20.7c22.4-21.2,47.6-38.8,74-54.9c3.8-2.5,6.1-5,4.6-9.2
		c-2.1-5,0.6-8.8,4.6-11.1c4.8-2.7,9.8-2.7,13.2,1.7c2.9,3.8,5,2.7,8.2,1c19.9-10.5,40.6-19.9,62.6-25.8c11.5-3.1,23.3-4,35.2-2.5
		c6.7,0.8,12.2,3.8,13.8,11.5c1.7,13.6-8.2,20.1-16.6,27.2c-23.9,20.9-52,34.1-80.5,47.4c-19.5,9-39,17.6-59.5,24.7
		c-19.5,7.1-39.2,13.8-59.7,17.6C267.2,257.9,261.1,257.7,258,250z"/>
	<path class="st7" d="M258,250c3.1,7.5,9.4,7.8,15.9,6.5c20.3-3.8,40-10.5,59.7-17.6c20.3-7.1,40-15.5,59.5-24.7
		c28.1-13.2,56.4-26.6,80.5-47.3c8.2-7.1,18.2-13.8,16.6-27.2c4.8,10.7,2.5,21.4-1,31.6c-5.5,16.6-15,31.9-25.7,45.7
		c-3.3,1.3-5.7-1-8.8-1.4c-24.5-1.5-47.6,4.5-70.2,12.4c-18.9,6.5-37,14.8-56.1,20.3c-8.8,2.5-18.5,3.4-26.7,8.2
		c-11.3,2.1-22.2,4.2-33.9,3.5C259.4,259.8,257.8,257.9,258,250z"/>
	<path class="st6" d="M301.8,256.3c8.2-4.8,17.6-5.5,26.4-8c19.1-5.5,37.1-13.2,55.9-19.9c22.6-7.8,45.7-14.3,70.2-12.8
		c3.3,0.2,6.1,2.5,9.4,1.3c1,5.4,1.7,10.3,3.1,15.9c0.8,3.3-0.6,4-3.4,3.8c-32.9-2.9-64.7,3.4-96,11.3c-20.3,5-40.9,10.3-58.9,21.4
		c-3.1,1.7-4,0.6-4.6-2.3C303.2,263,302.4,259.8,301.8,256.3z"/>
</g>
</svg>
