<?xml version="1.0" encoding="utf-8"?>
<!-- Generator: Adobe Illustrator 26.0.3, SVG Export Plug-In . SVG Version: 6.00 Build 0)  -->
<svg version="1.1" id="Calque_1" xmlns="http://www.w3.org/2000/svg" xmlns:xlink="http://www.w3.org/1999/xlink" x="0px" y="0px"
	 viewBox="0 0 206.9 203.1" style="enable-background:new 0 0 206.9 203.1;" xml:space="preserve">
<style type="text/css">
	.st0{fill:none;stroke:#2E858E;stroke-width:3.1659;stroke-miterlimit:10;}
	.st1{fill:#3D0811;}
	.st2{clip-path:url(#SVGID_00000026141835522331659140000010210528354469038725_);}
	.st3{fill:#7F4C36;}
	.st4{clip-path:url(#SVGID_00000165218120269596361510000017087366053370887564_);}
	.st5{fill:#90573A;}
	.st6{fill:#704232;}
	.st7{fill:#2E858E;}
	.st8{fill:none;stroke:#2E858E;stroke-width:3.8319;stroke-miterlimit:10;}
</style>
<g id="Calque_13">
	<path class="st0" d="M36.3,90.7c-1.7-4.6-2.6-9.1-2.6-13.8c0-31,38.2-56.1,85.3-56.1s85.3,25.2,85.3,56.1c0,5-1,9.8-2.9,14.3"/>
	<path class="st1" d="M35.1,168.9c0,0,5,18,20.1,13.8c15.2-4.2,14.4-17.4,14.4-17.4s18.3,6.6,21.1-8.9S80.2,138,75.6,139.5
		c-4.6,1.5-8.2-19-17.6-19.4c0,0,6.2-16.8,7.6-21.9c1.5-5.1-1.7-16.9-10.8-17.6c-9.1-0.7-16.2,6-16.7,11c0,0-11.8-7.5-22.1,1.7
		c-10.3,9.3-4.1,20.1-4.1,20.1S1.4,116.6,0,129c-1.4,12.4,9.6,17.8,9.6,17.8s-5,11.8,6,20.9C26.8,176.8,35.1,168.9,35.1,168.9z"/>
	<g id="random">
		<g>
			<g>
				<g>
					<g>
						<defs>
							<polygon id="SVGID_1_" points="172.5,94 172.5,94 203.4,94 203.4,139.1 172.5,139.1 							"/>
						</defs>
						<clipPath id="SVGID_00000106845450649256339670000006981843085667982235_">
							<use xlink:href="#SVGID_1_"  style="overflow:visible;"/>
						</clipPath>
						<g style="clip-path:url(#SVGID_00000106845450649256339670000006981843085667982235_);">
							<path class="st3" d="M172.5,135.3l6-33.1c0,0,11.8-13.6,21.9-5.6c6.8,5.3,1.1,39.2-6.8,41.4
								C180.3,141.7,172.5,135.3,172.5,135.3z"/>
						</g>
					</g>
				</g>
			</g>
		</g>
	</g>
	<g id="random2">
		<g>
			<g>
				<g>
					<g>
						<defs>
							<polygon id="SVGID_00000039125493803786624330000007902957111672994466_" points="63,94 63,94 32.2,94 32.2,139.1 63,139.1 
															"/>
						</defs>
						<clipPath id="SVGID_00000070815653709677023440000013364228141842838183_">
							<use xlink:href="#SVGID_00000039125493803786624330000007902957111672994466_"  style="overflow:visible;"/>
						</clipPath>
						<g style="clip-path:url(#SVGID_00000070815653709677023440000013364228141842838183_);">
							<path class="st3" d="M63,135.3l-6-33.1c0,0-11.8-13.6-21.9-5.6c-6.8,5.3-1.1,39.2,6.8,41.4C55.3,141.7,63,135.3,63,135.3z"/>
						</g>
					</g>
				</g>
			</g>
		</g>
	</g>
	<path class="st1" d="M43.9,87.8c0-41.9,33-75.9,73.6-75.9s73.6,34,73.6,75.9s-60.5,73.1-73.6,75.9
		C132.3,158.6,43.9,129.7,43.9,87.8z"/>
	<path class="st5" d="M121.3,15.7h-2.5c-36.9,0-62.8,23.6-62.8,60.5c0,0,0.7,30.3,2.6,43.1c1.5,10.3,3.6,21.9,16.2,39.4
		c7.4,10.2,30.2,20,43.4,21.4l0,0c13.2-1.3,38.3-11.6,45.7-21.8c12.8-17.6,14.8-29.1,16.2-39.4c1.8-12.8,2.6-43.1,2.6-43.1
		c0-36.9-25.9-60.5-62.8-60.5h-2.5"/>
	<path class="st3" d="M117.2,37.6L117.2,37.6L56.7,79.4c0,0-11.4-51.8,60.2-60.8c0,0,55.2-1.5,64.8,53.5c3.6,20.6-3.1,4.6-3.1,4.6
		S124,56.8,116.8,37.2"/>
	<path class="st1" d="M116.7,31.7L116.7,31.7l-66.9,53c0.7,3.3,0-64.6,58.2-72.2c0,0,67.6-2.2,77.8,55.3c3.8,21.5-3,8-3,8
		s-58.9-23.9-66.6-44.4"/>
	<path class="st6" d="M108.3,135.8c-0.8,0.1-1.2,0.6-0.5,0.8c2.5,1,7.1,2.7,10.2,2.7c2.9,0,7.4-1.7,9.7-2.7c0.7-0.2,0.3-0.7-0.5-0.8
		c-2.7-0.2-3.9,0.5-9.4,0.5C113,136.4,111.1,135.6,108.3,135.8z"/>
	<g>
		<path class="st7" d="M60.2,145.3l-2.9,0.7c-3.1,0.7-6.1-1.4-6.6-4.5l-9.3-45.3c-0.7-3.1,1.4-6.1,4.5-6.6l2.9-0.7
			c3.1-0.7,6.1,1.4,6.6,4.5l9.2,45.2C65.3,141.4,63.3,144.5,60.2,145.3z"/>
		<path class="st7" d="M50,142.2l-6,1.2c-3.1,0.7-6.1-1.4-6.6-4.5l-7.1-35c-0.7-3.1,1.4-6.1,4.5-6.6l6-1.2L50,142.2z"/>
		<path class="st7" d="M32.9,87.4l3.6-2.1c0.9-0.5,1.9,0,2.1,0.9l2.6,12.5c0.2,0.7-0.4,1.4-0.9,1.6l0,0c-0.7,0.2-1.2,0-1.6-0.7
			l-6.1-10.4C32,88.8,32.2,87.9,32.9,87.4z"/>
	</g>
	<g>
		<path class="st7" d="M177.8,145.3l2.9,0.7c3.1,0.7,6.1-1.4,6.6-4.5l9.2-45.2c0.7-3.1-1.4-6.1-4.5-6.6l-2.9-0.7
			c-3.1-0.7-6.1,1.4-6.6,4.5l-9.2,45.2C172.8,141.4,174.8,144.5,177.8,145.3z"/>
		<path class="st7" d="M188.2,142.2l6,1.2c3.1,0.7,6.1-1.4,6.6-4.5l7.1-35c0.7-3.1-1.4-6.1-4.5-6.6l-6-1.2L188.2,142.2z"/>
		<path class="st7" d="M205.1,87.4l-3.6-2.1c-0.9-0.5-1.9,0-2.1,0.9l-2.6,12.5c-0.2,0.7,0.4,1.4,0.9,1.6l0,0c0.7,0.2,1.2,0,1.6-0.7
			l6.1-10.4C206.1,88.8,205.8,87.9,205.1,87.4z"/>
	</g>
	<path class="st8" d="M55.8,144.2l-25.3,20.2c-4.2,3.5-3.5,10.1,1.6,12.3l17.2,7.5"/>
	<circle class="st7" cx="55.8" cy="184.1" r="9.9"/>
</g>
</svg>
