<?xml version="1.0" encoding="utf-8"?>
<!-- Generator: Adobe Illustrator 26.0.3, SVG Export Plug-In . SVG Version: 6.00 Build 0)  -->
<svg version="1.1" id="Calque_1" xmlns="http://www.w3.org/2000/svg" xmlns:xlink="http://www.w3.org/1999/xlink" x="0px" y="0px"
	 viewBox="0 0 232.9 270.6" style="enable-background:new 0 0 232.9 270.6;" xml:space="preserve">
<style type="text/css">
	.st0{clip-path:url(#SVGID_00000066482623183420126400000016337724919586167225_);}
	.st1{fill:#B9785C;}
	.st2{clip-path:url(#SVGID_00000111153993946954859730000015924759165124308399_);}
	.st3{fill:#60131D;}
	.st4{fill:#90573A;}
	.st5{fill:#704232;}
	.st6{fill:#7F4C36;}
	.st7{fill:#3D0811;}
	.st8{fill:#ED5875;}
</style>
<g>
	<g id="random">
		<g>
			<g>
				<g>
					<g>
						<g>
							<defs>
								<polygon id="SVGID_1_" points="182,146.3 182,146.3 219.3,146.3 219.3,200.8 182,200.8 								"/>
							</defs>
							<clipPath id="SVGID_00000070808653400765156970000000117005804037782145_">
								<use xlink:href="#SVGID_1_"  style="overflow:visible;"/>
							</clipPath>
							<g style="clip-path:url(#SVGID_00000070808653400765156970000000117005804037782145_);">
								<path class="st1" d="M182,196.2l7.2-40c0,0,14.2-16.4,26.5-6.8c8.2,6.4,1.3,47.3-8.2,50C191.4,203.9,182,196.2,182,196.2z"
									/>
							</g>
						</g>
					</g>
				</g>
			</g>
		</g>
	</g>
	<g id="random2">
		<g>
			<g>
				<g>
					<g>
						<g>
							<defs>
								<polygon id="SVGID_00000158002288202932156220000013112877823547051407_" points="49.8,146.3 49.8,146.3 12.5,146.3 
									12.5,200.8 49.8,200.8 								"/>
							</defs>
							<clipPath id="SVGID_00000133499003166543751640000007469023532030805686_">
								<use xlink:href="#SVGID_00000158002288202932156220000013112877823547051407_"  style="overflow:visible;"/>
							</clipPath>
							<g style="clip-path:url(#SVGID_00000133499003166543751640000007469023532030805686_);">
								<path class="st1" d="M49.8,196.2l-7.2-40c0,0-14.2-16.4-26.5-6.8c-8.2,6.4-1.3,47.3,8.2,50
									C40.5,203.9,49.8,196.2,49.8,196.2z"/>
							</g>
						</g>
					</g>
				</g>
			</g>
		</g>
	</g>
	<path class="st3" d="M26.7,138.9c0-50.6,39.8-91.7,88.9-91.7s88.9,41.1,88.9,91.7s-73,88.3-88.9,91.7
		C133.4,224.4,26.7,189.5,26.7,138.9z"/>
	<path class="st4" d="M120.2,51.8h-3c-44.5,0-75.8,28.5-75.8,73.1c0,0,0.9,36.6,3.1,52c1.8,12.4,4.3,26.4,19.6,47.6
		c8.9,12.3,36.5,24.2,52.4,25.8l0,0c15.9-1.6,46.3-14,55.2-26.3c15.4-21.2,17.9-35.2,19.6-47.6c2.2-15.5,3.1-52,3.1-52
		c0-44.5-31.3-73.1-75.8-73.1h-3"/>
	<path class="st5" d="M104.5,196.8c-1,0.1-1.4,0.7-0.6,1c3,1.2,8.6,3.3,12.3,3.3c3.5,0,8.9-2.1,11.7-3.3c0.8-0.3,0.4-0.9-0.6-1
		c-3.3-0.2-4.7,0.6-11.4,0.6C110.1,197.5,107.8,196.6,104.5,196.8z"/>
	<path class="st6" d="M117.8,92.4l4.4,32.1c0.2,1.4,1.4,2.4,2.8,2.3l29.6-2.5c1-0.1,1.9-0.8,2.3-1.8l5.6-16.2
		c0.9-2.6,4.6-2.3,5.1,0.4l3.1,18.2c0.1,0.8,0.6,1.5,1.4,1.9l23.8,12.6c2,1.1,4.4-0.8,3.8-3L175,49.8c-0.3-1.2-1.4-2-2.6-1.9
		l-72.5,2.9c-1.4,0.1-2.5,1.2-2.5,2.6l-1.6,60.9c-0.1,2.8,3.7,3.8,5,1.3l12.3-23.8C114.1,89.3,117.5,89.9,117.8,92.4z"/>
	<path class="st7" d="M119.3,20.4C-10.4,18.6-0.1,193.4,0.8,193.8c16.7,7.4,32.7,7,41.1,6c3.4-0.4,5.9-3.5,5.7-6.9l-5-59.8
		c-0.3-3.8,2.7-7.1,6.6-7l42.1,1c2.7,0.1,5.2-1.6,6.2-4.1l18.8-48.4c0.8-2,3.6-1.6,3.9,0.5l4.9,48.2c0.3,3.3,3,5.7,6.3,5.8l18.6,0.3
		c3.1,0,5.9-2.2,6.4-5.3l7.3-39c0.4-2.1,3.3-2.2,3.9-0.2l13.3,46.6c0.7,2.3,2.6,4.1,4.9,4.6l0,0c3.2,0.6,5.4,3.5,5.2,6.8
		c-1.4,20-2.8,41.3-3.4,51.5c-0.2,3.6,2.6,6.7,6.2,6.8c10.8,0.4,25.3-1.1,32.9-2.1c3.1-0.4,5.5-2.9,5.6-6
		C233.8,163.6,235.5,22.1,119.3,20.4z"/>
	<path class="st8" d="M38.9,99l25.3-9.9c31.4-12.3,67-13.2,98.6-1.2L194,99.4c5.9,2.2,12.3,7.9,14,2.2l1.6-6.3
		c2-7.5-16.2-40.5-31.8-52.2c-11.1-8.3-24.1-13.6-38.1-15.2c-13.2-1.6-26.1-1.8-39.3-0.4c-12.3,1-24.1,5.5-34.6,12.1
		C46,51.7,20.3,89.6,22.3,95.5l2.4,6.3C26.5,107.1,33.2,101.1,38.9,99z"/>
</g>
</svg>
