<svg xmlns="http://www.w3.org/2000/svg" viewBox="0 0 788 1005.07"><defs><style>.cls-1{fill:#e78367;}.cls-2{fill:#824e3a;}.cls-3{fill:none;}.cls-4{fill:#44351a;}.cls-5{fill:#9f6042;}.cls-6{fill:#b85d40;}.cls-7{fill:#e2dcdc;}.cls-8{fill:#555453;}.cls-9{fill:#959b72;}</style></defs><g id="Calque_4" data-name="Calque 4"><path class="cls-1" d="M440.43,283.89l2.16,18.25-21.08,75.33h-92.1L306.89,301.9l2.64-18.73-17-36.83,37.86-15.2,13.39-5.38a20.33,20.33,0,0,0,12.75-18.87V194.11H395v12.53a20.35,20.35,0,0,0,13.31,19.09l12.92,4.76,38.45,14.17Z"/><path class="cls-2" d="M421.19,230.49c-11.08,8.74-34,13.94-49.71,13.94-11.14,0-29.65-7-41.14-13.29l13.39-5.38a20.33,20.33,0,0,0,12.75-18.87V195.38l.28-1.27.1-.43H395v13a20.35,20.35,0,0,0,13.31,19.09Z"/></g><g id="Calque_3" data-name="Calque 3"><polygon points="203.96 514.64 204.05 514.6 203.96 514.55 203.96 514.64"/><polygon points="204.05 514.6 204.15 514.64 204.15 514.55 204.05 514.6"/><polygon points="203.96 514.64 204.05 514.6 203.96 514.55 203.96 514.64"/><polygon points="204.05 514.6 204.15 514.64 204.15 514.55 204.05 514.6"/><path class="cls-3" d="M400.43,429.86c15.56,5,22.34,9.27,26,15.95,3,5.4,5.81,17.79,6,24,.52,14.5-7.49,51-21.11,63.13-13.87,12.38-81.64,12.38-95.5,0-13.63-12.16-21.63-48.63-21.11-63.13.22-6.18,3-18.57,6-24,3.7-6.68,10.48-10.92,26-15.95,17.8-5.75,35.9-4.84,35.9-4.84S382.64,424.11,400.43,429.86Z"/><polygon points="203.59 514.96 203.69 514.92 203.59 514.88 203.59 514.96"/><polygon points="203.69 514.92 203.78 514.96 203.78 514.88 203.69 514.92"/><polygon points="203.59 514.96 203.69 514.92 203.59 514.88 203.59 514.96"/><polygon points="203.69 514.92 203.78 514.96 203.78 514.88 203.69 514.92"/><polygon points="193.31 513.93 193.4 513.89 193.31 513.84 193.31 513.93"/><polygon points="193.4 513.89 193.5 513.93 193.5 513.84 193.4 513.89"/><polygon points="193.31 513.93 193.4 513.89 193.31 513.84 193.31 513.93"/><polygon points="193.4 513.89 193.5 513.93 193.5 513.84 193.4 513.89"/><polygon class="cls-4" points="307.3 476.57 308.74 454.91 457.96 454.91 459.88 473.68 307.3 476.57"/><path class="cls-5" d="M618.87,120.27a28.34,28.34,0,0,0,2.44-10.21l1.08-18.79A6.3,6.3,0,0,0,620.83,87h0a8.08,8.08,0,0,0-6-2.62l-16.14-2.47c-2.68-.07-4,.61-5.14,2.82l.43,5.05s-1.46,6.91-1.54,4.84c-.3-7.29-1.45-12.24-7.79-11.53l1.14,12.1c-.09,1,.94,3,1.43,3.87,1.56,2.7,2.65,9,4.25,11.08,0,0,7.82,8,8.64,9.87.89,2.05-1,4.71-1,4.71h0a7.31,7.31,0,0,0,9.22,6.1l6.84-1.91Z"/><path class="cls-6" d="M593.59,84.71l1,9.83,6.15,10.2,6.24-1-1,.81a7.93,7.93,0,0,0-2.88,7.1l.41,3.38-3.79-7.67-2-1.44-5.56-11.53.27-5.17Z"/><path class="cls-5" d="M116.51,384.7s-13.8-5.27-16.08-5.1-11.8,2.42-13.58,2.21-12.38-4-12.54-2.64-.11,6.53-.11,6.53l8.52,4.18,11,.2L80.11,400.4s-20.47,10.35-21.84,10.66.8,6.66.8,6.66L85,406.63l-24.17,19,4.5,5.73L91,411.18,68.85,435.82l6.6,3.28,20.38-21.24L84.92,437.3s6,3,6.81,1.5,12.73-17.65,12.73-17.65L125.25,404l1-6.87Z"/><path class="cls-3" d="M415.52,411.26c15.55,5,22.33,9.27,26,15.94,3,5.41,5.82,17.8,6,24,.52,14.51-7.48,51-21.11,63.14-13.86,12.37-81.63,12.37-95.49,0-13.63-12.17-21.64-48.63-21.11-63.14.22-6.17,3-18.56,6-24,3.7-6.67,10.48-10.91,26-15.94,17.8-5.76,35.9-4.85,35.9-4.85S397.72,405.5,415.52,411.26Z"/><path class="cls-1" d="M233.45,339.86c-7.08-10.75-4.89-16.71-10.94-14.57s-36.39,19.94-41.92,23.29c-14.17,8.56-56.5,35.2-72,39.87-10.87,3.27,5.37,18,5.37,18s11.6-6.64,19.18-9.33c15.93-5.66,20.44-9.75,47.1-18.2,7-2.22,49.43-20.8,55.17-25.22C251.43,341.32,235.51,343,233.45,339.86Z"/><path class="cls-5" d="M545.75,252.16c-11-7.63-5.78-17.74-3.43-23.73s10-23.67,13.63-29.09c9.17-13.86,40.27-55.2,44.19-79.35,1.83-11.23,18.73.28,18.73.28s-8.7,26-11.66,33.55c-6.21,15.78-6.84,28.49-16.18,55-2.45,6.95-17.48,28-22.18,33.56C555.71,257.91,548.94,254.38,545.75,252.16Z"/><path class="cls-1" d="M542.67,255.91l3.75-1.5a12.72,12.72,0,0,0,7.44-16.14h0a14,14,0,0,0-14.56-9l-5.68.57s-124.29,4.12-117.91,33.73h0c2.33,10.8,12.84,21.81,23.88,19.35Z"/><path class="cls-1" d="M281.74,317l-46.36,36.63L231.92,356a13.88,13.88,0,0,1-18.63-2.77h0a13.88,13.88,0,0,1,.08-17.5l3.71-4.52s29.17-31.66,37.57-43.27c10.29-14.22,36-60.3,58.93-38.17h0c8.36,8.07,12.31,23.24,3.9,31.26Z"/><path class="cls-7" d="M384,483.84H341.07c-12,0-41.2.71-38.27-11l23.33-135.34L290.05,236.36l62.81-18.9,15.42,24.37a7,7,0,0,0,13-.08l15.13-24.55,63,18.17L432.53,336.9l30.2,131.5C466.11,480.23,396.3,483.86,384,483.84Z"/><polygon class="cls-8" points="458.79 230.2 456.09 316.55 508.13 452.14 487.53 487.79 411.25 360.22 398.88 216.98 458.79 230.2"/><polygon class="cls-8" points="353.96 214.3 360.19 360.65 287.97 487.79 266.19 436.91 296.4 312.64 286.69 232.91 353.96 214.3"/><polygon class="cls-8" points="447.77 227.77 533.63 229.8 577.54 160.93 615.18 206.77 596.65 237.99 554.6 277.64 517.08 287.75 456.09 292.97 447.77 227.77"/><polyline class="cls-8" points="314.49 284.49 286.69 232.91 214.27 315.66 119.95 373.08 139.66 445.73 168.56 426.49 211.29 389.93 249.95 361.65"/><polygon class="cls-9" points="355.4 212.22 346.76 215.72 330.43 244.43 337.02 252.62 321.95 263.77 360.19 363.27 355.4 212.22"/><polygon class="cls-9" points="404.7 218.26 424.96 245.6 416.79 252.29 430.65 264.85 410.65 360.86 396.94 214.63 404.7 218.26"/><polygon points="407.73 656.03 407.82 655.99 407.73 655.94 407.73 656.03"/><polygon points="407.82 655.99 407.92 656.03 407.92 655.94 407.82 655.99"/><polygon points="407.73 656.03 407.82 655.99 407.73 655.94 407.73 656.03"/><polygon points="407.82 655.99 407.92 656.03 407.92 655.94 407.82 655.99"/><path class="cls-3" d="M604.2,571.25c15.56,5,22.34,9.27,26,16,3,5.4,5.81,17.79,6,24,.53,14.51-7.48,51-21.11,63.14-13.86,12.37-81.63,12.37-95.49,0C506,662.13,498,625.67,498.56,611.16c.22-6.17,3-18.56,6-24,3.69-6.68,10.48-10.92,26-16,17.8-5.75,35.9-4.84,35.9-4.84S586.4,565.5,604.2,571.25Z"/><polygon points="407.36 656.35 407.45 656.31 407.36 656.26 407.36 656.35"/><polygon points="407.45 656.31 407.55 656.35 407.55 656.26 407.45 656.31"/><polygon points="407.36 656.35 407.45 656.31 407.36 656.26 407.36 656.35"/><polygon points="407.45 656.31 407.55 656.35 407.55 656.26 407.45 656.31"/></g></svg>