<svg xmlns="http://www.w3.org/2000/svg" viewBox="0 0 788 1005.07"><defs><style>.cls-1{fill:#9f6042;}.cls-2{fill:#824e3a;}.cls-3{fill:none;}.cls-4{fill:#2d2a29;}</style></defs><g id="Calque_4" data-name="Calque 4"><path class="cls-1" d="M440.43,283.89l2.16,18.25-21.08,75.33h-92.1L306.89,301.9l2.64-18.73-17-36.83,37.86-15.2,13.39-5.38a20.33,20.33,0,0,0,12.75-18.87V194.11H395v12.53a20.35,20.35,0,0,0,13.31,19.09l12.92,4.76,38.45,14.17Z"/><path class="cls-2" d="M421.19,230.49c-11.08,8.74-34,13.94-49.71,13.94-11.14,0-29.65-7-41.14-13.29l13.39-5.38a20.33,20.33,0,0,0,12.75-18.87V195.38l.28-1.27.1-.43H395v13a20.35,20.35,0,0,0,13.31,19.09Z"/></g><g id="Calque_3" data-name="Calque 3"><polygon points="230.88 515.04 230.98 515 230.88 514.96 230.88 515.04"/><polygon points="230.98 515 231.07 515.04 231.07 514.96 230.98 515"/><polygon points="230.88 515.04 230.98 515 230.88 514.96 230.88 515.04"/><polygon points="230.98 515 231.07 515.04 231.07 514.96 230.98 515"/><path class="cls-3" d="M424.51,431.1c15.55,5,22.34,9.27,26,15.95,3,5.4,5.82,17.79,6,24,.52,14.5-7.48,51-21.11,63.13-13.86,12.37-81.63,12.37-95.49,0C326.35,522,318.34,485.52,318.87,471c.22-6.18,3-18.57,6-24,3.7-6.68,10.48-10.92,26-15.95,17.8-5.75,35.9-4.84,35.9-4.84S406.71,425.35,424.51,431.1Z"/><path class="cls-1" d="M235.84,258.86c-.59-2.34-15.16-37-15.16-37s17.16-20.44,17.06-20.66c-1-2.21-7.63-34.05-7.63-34.05l6-1.88,11.3,38.58,6.63-34.4,5.48,3.18-2.87,37.44,7.47,17.37-10.42,29.39Z"/><path class="cls-3" d="M415.67,414.34c15.55,5,22.33,9.27,26,15.94,3,5.41,5.82,17.8,6,24,.52,14.51-7.48,51-21.11,63.14-13.87,12.37-81.63,12.37-95.5,0-13.62-12.17-21.63-48.63-21.11-63.14.23-6.17,3.05-18.56,6-24,3.7-6.67,10.48-10.91,26-15.94,17.79-5.75,35.9-4.84,35.9-4.84S397.87,408.59,415.67,414.34Z"/><path class="cls-1" d="M503.65,358.18l2.85,2.87a12.71,12.71,0,0,0,17.76.53h0a14,14,0,0,0,2.63-16.93l-2.74-5S471.76,226.86,447,244.31h0c-9,6.36-15.05,20.34-8.47,29.54Z"/><path class="cls-1" d="M303.56,320.33l-28.4,51.82-2.26,3.52a13.88,13.88,0,0,1-18.23,4.72h0a13.89,13.89,0,0,1-6.76-16.15l1.65-5.6s14.51-40.54,17.71-54.51c3.93-17.1,9.63-69.57,39.37-58.13h0c10.85,4.17,20.4,16.6,15.78,27.26Z"/><path class="cls-1" d="M522.93,341.38h0a17.26,17.26,0,0,1,5.55,14.47,9.38,9.38,0,0,1-.17,1.61c-2.7,7.74-12.21,20.42-17.39,26-12,13.05-52.62,48.17-52.62,48.17h0c-3.21,1.95-7.47.49-9.75-3.33l-.51-.86c-2.11-3.53-1.89-8,.52-10.66.44-.48.83-.93,1.12-1.29,5-6.25,34.31-49.7,40.89-58.26,3.85-5,13.39-13,18.66-16C512.18,339.64,519.49,338.33,522.93,341.38Z"/><path class="cls-1" d="M259.8,382.5h0a15.21,15.21,0,0,0,13.75-8.32,8.86,8.86,0,0,0,.79-1.55c2-9,.64-27.75-.89-36.83-1.07-6.34-3.38-16.51-6.08-27.62-6.29-25.84-14.72-56.82-14.72-56.82h0a8.9,8.9,0,0,0-11.11-4.85l-1,.35a8.88,8.88,0,0,0-5.81,9.82c.13.77.23,1.48.29,2,1,9.5.31,60.08,3.85,84,1.1,7.43,4.84,22.16,8,29C248.71,375.46,254.78,382.44,259.8,382.5Z"/><path class="cls-1" d="M277.45,345.37c-1-10.12-4.93-29.45-10.77-39.21l.84-2.63L296.4,334s-22.17,41.57-24.73,43.11C271.67,377.13,279,361.25,277.45,345.37Z"/><path class="cls-4" d="M267,303.52s7.22-44.8,18.59-55.16,167-9.14,167-9.14,18.65,8.56,28,22.86a262.44,262.44,0,0,1,15.54,27.12L467.24,313,445.5,285.33l.45,18.34-16.79,77.55,16.14,64s-11.31,15.6-9.76,14.32-115.32-2.67-115.32-2.67L304.49,446l12.92-63.53-7.52-72.87-13.31,25Z"/><path class="cls-1" d="M463.23,414.54c1.66,1.88,2.94,5.6-.44,10,0,0-9.47,13.61-14.13,17.11-2.09,1.56-20.32,11.44-20.32,11.44s-15.65-6.54-17.43-10.23c-1-2.14,25.69-18.49,26.75-20.42.41-.76-8.6-6.94-8.6-6.94l-.18-6s16,4.24,18.86,3.89a44.16,44.16,0,0,0,4.66-1C456.22,411.46,461,412,463.23,414.54Z"/><polyline class="cls-1" points="455.56 407.4 453.54 412.21 457.03 420.04 460.87 427.54 463.91 423.03 469.83 417.38"/><polygon points="434.65 656.43 434.75 656.39 434.65 656.34 434.65 656.43"/><polygon points="434.75 656.39 434.84 656.43 434.84 656.34 434.75 656.39"/><polygon points="434.65 656.43 434.75 656.39 434.65 656.34 434.65 656.43"/><polygon points="434.75 656.39 434.84 656.43 434.84 656.34 434.75 656.39"/><path class="cls-3" d="M628.28,572.49c15.55,5,22.33,9.27,26,15.94,3,5.41,5.82,17.8,6,24,.52,14.51-7.48,51-21.11,63.14-13.86,12.37-81.63,12.37-95.5,0-13.62-12.17-21.63-48.63-21.11-63.14.23-6.17,3-18.56,6-24,3.7-6.67,10.48-10.91,26-15.94,17.79-5.76,35.9-4.85,35.9-4.85S610.48,566.73,628.28,572.49Z"/></g></svg>