<svg xmlns="http://www.w3.org/2000/svg" xmlns:xlink="http://www.w3.org/1999/xlink" viewBox="0 0 588 328.33"><defs><style>.cls-1{fill:none;}.cls-2{fill:#e78367;}.cls-3{fill:#b85d40;}.cls-4{fill:#824e3a;}.cls-5{fill:#b55943;}.cls-6{clip-path:url(#clip-path);}.cls-7{fill:#625177;}.cls-8{clip-path:url(#clip-path-2);}.cls-9{fill:#9f6042;}</style><clipPath id="clip-path"><rect class="cls-1" x="189.78" y="33.89" width="86.42" height="270.28"/></clipPath><clipPath id="clip-path-2"><rect class="cls-1" x="276.2" y="33.89" width="86.42" height="270.28"/></clipPath></defs><g id="Calque_4" data-name="Calque 4"><path class="cls-2" d="M340.43,118.58l2.16,18.25-21.08,75.33h-92.1l-22.52-75.57,2.64-18.73L192.48,81l37.86-15.2,13.39-5.38a20.33,20.33,0,0,0,12.75-18.87V28.8H295V41.33a20.35,20.35,0,0,0,13.31,19.09l12.92,4.76,38.45,14.17Z"/><path class="cls-3" d="M321.19,65.18c-11.08,8.74-34,13.94-49.71,13.94-11.14,0-29.65-7-41.14-13.29l13.39-5.38a20.33,20.33,0,0,0,12.75-18.87V30.07l.28-1.27.1-.43H295v13a20.35,20.35,0,0,0,13.31,19.09Z"/></g><g id="Calque_3" data-name="Calque 3"><path class="cls-2" d="M340.43,118.58l2.16,18.25-21.08,75.33h-92.1l-22.52-75.57,2.64-18.73L192.48,81l51.25-20.58a20.35,20.35,0,0,0,12.75-18.88V28.8H295V41.34a20.33,20.33,0,0,0,13.31,19.08l51.37,18.93Z"/><path class="cls-3" d="M256.86,28.37h38.48V39h0c-8.64,11-14.34,15.82-20.89,15.77-4.94,0-12.67-9.73-17.67-13.57l.08-1.94Z"/><path class="cls-4" d="M388.34,198.22v0h0L376.11,99.1h0c-1.56-12.65-12.75-22.52-25-22s-20.9,11.12-19.33,23.78a5.39,5.39,0,0,0,.08.56s24.66,102,24.67,102c2.6,10.2,10.31,16.53,18,15.44C383.13,217.59,390.48,213.15,388.34,198.22Z"/><path class="cls-4" d="M382.24,192.26c-8.32-9-20.16-8.3-28.87.12-.19.17-3.71,4.3-3.71,4.3l-56.15,77.5s-5.29,5.47.69,11.61c5.37,5.52,11.32-.71,11.32-.71l69-55.68c8-6.42,14.52-14.47,14.12-25C388.48,200.12,384.84,195.07,382.24,192.26Z"/><path class="cls-4" d="M389.25,233.94l-.07-.12c-.19.12-.38.25-.58.36l-.14.08Z"/><path class="cls-5" d="M257,35.22h38.42v10h0C286.82,55.47,281.13,60,274.6,60,269.66,60,262,50.85,257,47.23l.07-1.81Z"/><g id="_Repetition_miroir_" data-name="&lt;Repetition miroir&gt;"><g class="cls-6"><path class="cls-7" d="M220.82,209.33c.36-33.83-31-132.22-31-132.22L253,49.38l.9-15.13,42.33-.36,10.59,15,54.05,21.19-33.36,103.4L285.64,304.16H196.42S220.56,233.71,220.82,209.33Z"/></g></g><g id="_Repetition_miroir_2" data-name="&lt;Repetition miroir&gt;"><g class="cls-8"><path class="cls-7" d="M331.59,209.33c-.37-33.83,31-132.22,31-132.22l-63.2-27.73-.89-15.13-42.34-.36-10.59,15-54,21.19,33.36,103.4,41.84,130.64H356S331.85,233.71,331.59,209.33Z"/></g></g><path class="cls-9" d="M209.16,196.83s0,0,0,0h0L174.68,107h0a23.47,23.47,0,0,1,12.13-29.64,20.83,20.83,0,0,1,28.07,11.89,5.17,5.17,0,0,1,.18.51l24.74,97.64c2.35,9.82-1.61,18.55-8.92,21C222.67,211.08,214.1,210.47,209.16,196.83Z"/><path class="cls-9" d="M210,190.75c-.26-13.26,8.76-22,20.93-22.51.26,0,5.68.34,5.68.34l94.59,14.3s7.64,0,7.6,9.27c0,8.34-8.66,8.32-8.66,8.32l-88.67,12.16c-10.23,1.4-20.57.49-27.64-7.74C210.92,201.55,210,194.9,210,190.75Z"/><path class="cls-2" d="M235.19,220.42l0-.13.66-.15.16,0Z"/><path class="cls-9" d="M329.52,184.34s-6,14.81-1,15.31l1.83.18,40.41,2.57,48.92-6.47-4.46-7.31-7.34-2-34.22,2.31-11.57-7.28,20.56-14.22-3.86-6.63L358.11,170l-17.74,4.23Z"/></g></svg>