<?xml version="1.0" encoding="utf-8"?>
<!-- Generator: Adobe Illustrator 26.0.1, SVG Export Plug-In . SVG Version: 6.00 Build 0)  -->
<svg version="1.1" id="Calque_1" xmlns="http://www.w3.org/2000/svg" xmlns:xlink="http://www.w3.org/1999/xlink" x="0px" y="0px"
	 viewBox="0 0 588 328.3" style="enable-background:new 0 0 588 328.3;" xml:space="preserve">
<style type="text/css">
	.st0{fill:#E78367;}
	.st1{fill:#824E3A;}
	.st2{fill:none;}
	.st3{fill:#44351A;}
	.st4{fill:#9F6042;}
	.st5{fill:#E2DCDC;}
	.st6{fill:#555453;}
	.st7{fill:#959B72;}
</style>
<g id="Calque_4">
	<path class="st0" d="M340.4,118.6l2.2,18.2l-21.1,75.3h-92.1l-22.5-75.6l2.6-18.7L192.5,81l37.9-15.2l13.4-5.4
		c7.7-3.1,12.8-10.6,12.7-18.9V28.8H295v12.5c0,8.5,5.3,16.1,13.3,19.1l12.9,4.8l38.5,14.2L340.4,118.6z"/>
	<path class="st1" d="M321.2,65.2c-11.1,8.7-34,13.9-49.7,13.9c-11.1,0-29.6-7-41.1-13.3l13.4-5.4c7.7-3.1,12.8-10.6,12.8-18.9V30.1
		l0.3-1.3l0.1-0.4H295v13c0,8.5,5.3,16.1,13.3,19.1L321.2,65.2z"/>
</g>
<g id="Calque_3">
	<path class="st2" d="M300.4,264.5c15.6,5,22.3,9.3,26,16c3,5.4,5.8,17.8,6,24c0.5,14.5-7.5,51-21.1,63.1
		c-13.9,12.4-81.6,12.4-95.5,0c-13.6-12.2-21.6-48.6-21.1-63.1c0.2-6.2,3-18.6,6-24c3.7-6.7,10.5-10.9,26-16
		c17.8-5.8,35.9-4.8,35.9-4.8S282.6,258.8,300.4,264.5z"/>
	<polygon class="st3" points="207.3,311.3 208.7,289.6 358,289.6 359.9,308.4 	"/>
	<path class="st4" d="M16.5,219.4c0,0-13.8-5.3-16.1-5.1s-11.8,2.4-13.6,2.2s-12.4-4-12.5-2.6s-0.1,6.5-0.1,6.5l8.5,4.2l11,0.2
		l-13.6,10.3c0,0-20.5,10.4-21.8,10.7s0.8,6.7,0.8,6.7l26-11.1l-24.2,19l4.5,5.7L-9,245.9l-22.1,24.6l6.6,3.3l20.4-21.2L-15.1,272
		c0,0,6,3,6.8,1.5s12.7-17.7,12.7-17.7l20.8-17.1l1-6.9L16.5,219.4z"/>
	<path class="st2" d="M315.5,246c15.5,5,22.3,9.3,26,15.9c3,5.4,5.8,17.8,6,24c0.5,14.5-7.5,51-21.1,63.1
		c-13.9,12.4-81.6,12.4-95.5,0c-13.6-12.2-21.6-48.6-21.1-63.1c0.2-6.2,3-18.6,6-24c3.7-6.7,10.5-10.9,26-15.9
		c17.8-5.8,35.9-4.8,35.9-4.8S297.7,240.2,315.5,246z"/>
	<path class="st4" d="M133.4,174.6c-7.1-10.8-4.9-16.7-10.9-14.6s-36.4,19.9-41.9,23.3c-14.2,8.6-56.5,35.2-72,39.9
		c-10.9,3.3,5.4,18,5.4,18s11.6-6.6,19.2-9.3c15.9-5.7,20.4-9.8,47.1-18.2c7-2.2,49.4-20.8,55.2-25.2
		C151.4,176,135.5,177.7,133.4,174.6z"/>
	<path class="st4" d="M445.8,86.8c-11-7.6-5.8-17.7-3.4-23.7s10-23.7,13.7-29.1c9.2-13.9,40.3-55.2,44.2-79.3
		c1.8-11.2,18.7,0.3,18.7,0.3s-8.7,26-11.7,33.5C501,4.3,500.4,17,491,43.5c-2.5,7-17.5,28-22.2,33.6
		C455.7,92.6,448.9,89.1,445.8,86.8z"/>
	<path class="st0" d="M442.7,90.6l3.8-1.5c6.4-2.5,9.7-9.6,7.4-16.1l0,0c-2.2-6-8.2-9.7-14.6-9l-5.7,0.6c0,0-124.3,4-117.9,33.7l0,0
		c2.3,10.8,12.8,21.8,23.9,19.3L442.7,90.6z"/>
	<path class="st0" d="M181.7,151.7l-46.4,36.6l-3.5,2.4c-6,4.1-14.1,2.9-18.6-2.8l0,0c-4.1-5.1-4.1-12.4,0.1-17.5l3.7-4.5
		c0,0,29.2-31.7,37.6-43.3c10.3-14.2,36-60.3,58.9-38.2l0,0c8.4,8.1,12.3,23.2,3.9,31.3L181.7,151.7z"/>
	<path class="st5" d="M284,318.5h-42.9c-12,0-41.2,0.7-38.3-11l23.3-135.3L190.1,71.1l62.8-18.9l15.4,24.4c1.4,2.3,3.8,3.9,6.5,4.4
		c2.7-0.5,5-2.1,6.4-4.5l15.1-24.5l63,18.2l-26.9,101.5l30.2,131.5C366.1,314.9,296.3,318.5,284,318.5z"/>
	<polygon class="st6" points="358.8,64.9 356.1,151.2 408.1,286.8 387.5,322.5 311.2,194.9 298.9,51.7 	"/>
	<polygon class="st6" points="254,49 260.2,195.3 188,322.5 166.2,271.6 196.4,147.3 186.7,67.6 	"/>
	<polygon class="st6" points="347.8,62.5 433.6,64.5 477.5,-4.4 515.2,41.5 496.6,72.7 454.6,112.3 417.1,122.4 356.1,127.7 	"/>
	<polyline class="st6" points="214.5,119.2 186.7,67.6 114.3,150.4 20,207.8 39.7,280.4 68.6,261.2 111.3,224.6 149.9,196.3 	"/>
	<polygon class="st7" points="255.4,46.9 246.8,50.4 230.4,79.1 237,87.3 221.9,98.5 260.2,198 	"/>
	<polygon class="st7" points="304.7,53 325,80.3 316.8,87 330.6,99.5 310.6,195.6 296.9,49.3 	"/>
</g>
</svg>
