<svg xmlns="http://www.w3.org/2000/svg" viewBox="0 0 588 328.33"><defs><style>.cls-1{fill:#9f6042;}.cls-2{fill:#824e3a;}.cls-3{fill:none;}.cls-4{fill:#2d2a29;}</style></defs><g id="Calque_4" data-name="Calque 4"><path class="cls-1" d="M340.43,118.58l2.16,18.25-21.08,75.33h-92.1l-22.52-75.57,2.64-18.73L192.48,81l37.86-15.2,13.39-5.38a20.33,20.33,0,0,0,12.75-18.87V28.8H295V41.33a20.35,20.35,0,0,0,13.31,19.09l12.92,4.76,38.45,14.17Z"/><path class="cls-2" d="M321.19,65.18c-11.08,8.74-34,13.94-49.71,13.94-11.14,0-29.65-7-41.14-13.29l13.39-5.38a20.33,20.33,0,0,0,12.75-18.87V30.07l.28-1.27.1-.43H295v13a20.35,20.35,0,0,0,13.31,19.09Z"/></g><g id="Calque_3" data-name="Calque 3"><path class="cls-3" d="M324.51,265.79c15.55,5,22.34,9.27,26,15.95,3,5.4,5.82,17.79,6,24,.52,14.5-7.48,51-21.11,63.13-13.86,12.37-81.63,12.37-95.49,0-13.63-12.17-21.64-48.63-21.11-63.13.22-6.18,3-18.57,6-24,3.7-6.68,10.48-10.92,26-15.95,17.8-5.75,35.9-4.84,35.9-4.84S306.71,260,324.51,265.79Z"/><path class="cls-1" d="M135.84,93.55c-.59-2.34-15.16-37-15.16-37s17.16-20.43,17.06-20.66c-1-2.21-7.63-34-7.63-34l6-1.88,11.3,38.58L154,4.18l5.48,3.18L156.63,44.8l7.47,17.37L153.68,91.56Z"/><path class="cls-3" d="M315.67,249c15.55,5,22.33,9.27,26,16,3,5.4,5.82,17.79,6,24,.52,14.51-7.48,51-21.11,63.14-13.87,12.37-81.63,12.37-95.5,0-13.62-12.17-21.63-48.63-21.11-63.14.23-6.17,3-18.56,6-24,3.7-6.68,10.48-10.92,26-16,17.79-5.75,35.9-4.84,35.9-4.84S297.87,243.28,315.67,249Z"/><path class="cls-1" d="M403.65,192.87l2.85,2.87a12.71,12.71,0,0,0,17.76.53h0a14,14,0,0,0,2.63-16.93l-2.74-5S371.76,61.55,347,79h0c-9,6.36-15.05,20.34-8.47,29.54Z"/><path class="cls-1" d="M203.56,155l-28.4,51.82-2.26,3.52a13.88,13.88,0,0,1-18.23,4.72h0a13.89,13.89,0,0,1-6.76-16.15l1.65-5.6s14.51-40.54,17.71-54.51c3.93-17.1,9.63-69.57,39.37-58.13h0c10.85,4.17,20.4,16.6,15.78,27.26Z"/><path class="cls-1" d="M422.93,176.07h0a17.26,17.26,0,0,1,5.55,14.47,9.38,9.38,0,0,1-.17,1.61c-2.7,7.74-12.21,20.42-17.39,26-12,13-52.62,48.17-52.62,48.17h0c-3.21,1.95-7.47.49-9.75-3.33l-.51-.86c-2.11-3.53-1.89-8,.52-10.66.44-.48.83-.93,1.12-1.28,5-6.26,34.31-49.71,40.89-58.27,3.85-5,13.39-13,18.66-16C412.18,174.33,419.49,173,422.93,176.07Z"/><path class="cls-1" d="M159.8,217.19h0a15.21,15.21,0,0,0,13.75-8.32,8.86,8.86,0,0,0,.79-1.55c2-9,.64-27.75-.89-36.83-1.07-6.34-3.38-16.51-6.08-27.62-6.29-25.84-14.72-56.82-14.72-56.82h0a8.9,8.9,0,0,0-11.11-4.85l-1,.35a8.88,8.88,0,0,0-5.81,9.82c.13.77.23,1.48.29,2,1,9.5.31,60.08,3.85,84,1.1,7.43,4.84,22.16,8,29C148.71,210.15,154.78,217.13,159.8,217.19Z"/><path class="cls-1" d="M177.45,180.06c-1-10.12-4.93-29.45-10.77-39.21l.84-2.63,28.88,30.49s-22.17,41.57-24.73,43.11C171.67,211.82,179,195.94,177.45,180.06Z"/><path class="cls-4" d="M167,138.21s7.22-44.79,18.59-55.16,167-9.14,167-9.14,18.65,8.56,28,22.86a262.44,262.44,0,0,1,15.54,27.12l-28.95,23.77L345.5,120l.45,18.34-16.79,77.55,16.14,64s-11.31,15.6-9.76,14.32-115.32-2.67-115.32-2.67l-15.73-10.85,12.92-63.53-7.52-72.87-13.31,25Z"/><path class="cls-1" d="M363.23,249.23c1.66,1.88,2.94,5.6-.44,10,0,0-9.47,13.61-14.13,17.11-2.09,1.56-20.32,11.44-20.32,11.44s-15.65-6.54-17.43-10.23c-1-2.14,25.69-18.49,26.75-20.42.41-.76-8.6-6.94-8.6-6.94l-.18-6s16,4.23,18.86,3.88a44.16,44.16,0,0,0,4.66-1C356.22,246.15,361,246.66,363.23,249.23Z"/><polyline class="cls-1" points="355.56 242.09 353.54 246.9 357.03 254.74 360.87 262.23 363.91 257.72 369.83 252.07"/></g></svg>