<svg xmlns="http://www.w3.org/2000/svg" xmlns:xlink="http://www.w3.org/1999/xlink" viewBox="0 0 788 1005.07"><defs><style>.cls-1{fill:none;}.cls-2{fill:#e78367;}.cls-3{fill:#b85d40;}.cls-4{fill:#824e3a;}.cls-5{fill:#b55943;}.cls-6{clip-path:url(#clip-path);}.cls-7{fill:#625177;}.cls-8{clip-path:url(#clip-path-2);}.cls-9{fill:#9f6042;}</style><clipPath id="clip-path"><rect class="cls-1" x="289.78" y="199.2" width="86.42" height="270.28"/></clipPath><clipPath id="clip-path-2"><rect class="cls-1" x="376.2" y="199.2" width="86.42" height="270.28"/></clipPath></defs><g id="Calque_4" data-name="Calque 4"><path class="cls-2" d="M440.43,283.89l2.16,18.25-21.08,75.33h-92.1L306.89,301.9l2.64-18.73-17-36.83,37.86-15.2,13.39-5.38a20.33,20.33,0,0,0,12.75-18.87V194.11H395v12.53a20.35,20.35,0,0,0,13.31,19.09l12.92,4.76,38.45,14.17Z"/><path class="cls-3" d="M421.19,230.49c-11.08,8.74-34,13.94-49.71,13.94-11.14,0-29.65-7-41.14-13.29l13.39-5.38a20.33,20.33,0,0,0,12.75-18.87V195.38l.28-1.27.1-.43H395v13a20.35,20.35,0,0,0,13.31,19.09Z"/></g><g id="Calque_3" data-name="Calque 3"><path class="cls-2" d="M440.43,283.89l2.16,18.25-21.08,75.33h-92.1L306.89,301.9l2.64-18.73-17-36.82,51.25-20.58a20.35,20.35,0,0,0,12.75-18.88V194.11H395v12.53a20.35,20.35,0,0,0,13.31,19.09l51.37,18.93Z"/><path class="cls-3" d="M356.86,193.68h38.48v10.59h0c-8.64,11-14.34,15.82-20.89,15.77-4.94,0-12.67-9.73-17.67-13.57l.08-1.94Z"/><path class="cls-4" d="M488.34,363.53v0h0l-12.24-99.09h0c-1.56-12.65-12.75-22.52-25-22.05s-20.9,11.12-19.33,23.78a5.39,5.39,0,0,0,.08.56s24.66,102,24.67,102c2.6,10.2,10.31,16.52,18,15.44C483.13,382.9,490.48,378.46,488.34,363.53Z"/><path class="cls-4" d="M482.24,357.57c-8.32-9-20.16-8.3-28.87.12-.19.17-3.71,4.3-3.71,4.3l-56.15,77.5s-5.29,5.47.69,11.61c5.37,5.52,11.32-.71,11.32-.71l69-55.68c8-6.42,14.52-14.47,14.12-25C488.48,365.43,484.84,360.37,482.24,357.57Z"/><path class="cls-4" d="M489.25,399.25l-.07-.12c-.19.12-.38.25-.58.36l-.14.08Z"/><path class="cls-5" d="M357,200.53h38.42v9.95h0c-8.63,10.3-14.32,14.87-20.85,14.82-4.94,0-12.65-9.14-17.64-12.76l.07-1.81Z"/><g id="_Répétition_miroir_" data-name="&lt;Répétition miroir&gt;"><g class="cls-6"><path class="cls-7" d="M320.82,374.64c.36-33.83-31-132.22-31-132.22L353,214.69l.9-15.13,42.33-.36,10.59,15,54.05,21.19L427.49,338.82,385.64,469.47H296.42S320.56,399,320.82,374.64Z"/></g></g><g id="_Répétition_miroir_2" data-name="&lt;Répétition miroir&gt;"><g class="cls-8"><path class="cls-7" d="M431.59,374.64c-.37-33.83,31-132.22,31-132.22l-63.2-27.73-.89-15.13-42.34-.36-10.59,15-54,21.19,33.36,103.39,41.84,130.65H456S431.85,399,431.59,374.64Z"/></g></g><path class="cls-9" d="M309.16,362.14v0h0l-34.46-89.77h0a23.47,23.47,0,0,1,12.13-29.64,20.83,20.83,0,0,1,28.07,11.89,5.17,5.17,0,0,1,.18.51s24.74,97.63,24.74,97.64c2.35,9.82-1.61,18.55-8.92,21C322.67,376.38,314.1,375.78,309.16,362.14Z"/><path class="cls-9" d="M310,356.06c-.26-13.26,8.76-22,20.93-22.51.26,0,5.68.34,5.68.34l94.59,14.3s7.64,0,7.6,9.27c0,8.34-8.66,8.32-8.66,8.32l-88.67,12.16c-10.23,1.4-20.57.49-27.64-7.74C310.92,366.86,310,360.21,310,356.06Z"/><path class="cls-2" d="M335.19,385.73l0-.13.66-.15.16,0Z"/><path class="cls-9" d="M429.52,349.65s-6,14.81-1,15.31l1.83.18,40.41,2.57,48.92-6.47-4.46-7.31-7.34-2-34.22,2.31L462.1,347l20.56-14.23-3.86-6.62-20.69,9.17-17.74,4.23Z"/></g></svg>