<?xml version="1.0" encoding="utf-8"?>
<!-- Generator: Adobe Illustrator 26.0.1, SVG Export Plug-In . SVG Version: 6.00 Build 0)  -->
<svg version="1.1" id="Calque_1" xmlns="http://www.w3.org/2000/svg" xmlns:xlink="http://www.w3.org/1999/xlink" x="0px" y="0px"
	 viewBox="0 0 788 1005.1" style="enable-background:new 0 0 788 1005.1;" xml:space="preserve">
<style type="text/css">
	.st0{fill:#9F6042;}
	.st1{fill:#824E3A;}
	.st2{fill:#E5E5E5;stroke:#7FADD5;stroke-width:0.25;stroke-miterlimit:10;}
	.st3{fill:#FFCF2E;stroke:#FFCB45;stroke-width:0.25;stroke-miterlimit:10;}
	.st4{fill:#F4CF31;}
</style>
<g id="Calque_4">
	<path class="st0" d="M440.4,283.9l2.2,18.2l-21.1,75.3h-92.1l-22.5-75.6l2.6-18.7l-17-36.8l37.9-15.2l13.4-5.4
		c7.7-3.1,12.8-10.6,12.8-18.9v-12.8H395v12.5c0,8.5,5.3,16.1,13.3,19.1l12.9,4.8l38.5,14.2L440.4,283.9z"/>
	<path class="st1" d="M421.2,230.5c-11.1,8.7-34,13.9-49.7,13.9c-11.1,0-29.6-7-41.1-13.3l13.4-5.4c7.7-3.1,12.8-10.6,12.8-18.9
		v-11.5l0.3-1.3l0.1-0.4H395v13c0,8.5,5.3,16.1,13.3,19.1L421.2,230.5z"/>
</g>
<g id="Calque_3">
	<path class="st0" d="M115.2,390.5c0,0-13.8-5.3-16.1-5.1s-11.8,2.4-13.6,2.2s-12.4-4-12.5-2.6s-0.1,6.5-0.1,6.5l8.5,4.2l11,0.2
		l-13.7,10.3c0,0-20.5,10.4-21.8,10.7s0.8,6.7,0.8,6.7l25.9-11.1l-24.2,19l4.5,5.7L89.6,417l-22.1,24.6l6.6,3.3l20.4-21.2
		l-10.9,19.5c0,0,6,3,6.8,1.5s12.7-17.6,12.7-17.6l20.8-17.1l1.1-6.9L115.2,390.5z"/>
	<path class="st0" d="M231.6,344c-7.3-11.2-24.2-6.2-30.3-4.1s-17.4,9.1-22.8,12.5c-14.2,8.7-56.5,35.8-72.1,40.5
		c-10.9,3.2,5.6,18.7,5.6,18.7s11.6-6.7,19.2-9.4c16-5.7,39-8.6,65.7-17.1c7-2.2,20.4-9.1,26.1-13.7
		C239.1,358.8,233.8,347.3,231.6,344z"/>
	<path class="st0" d="M617.4,393.5c0,0,13.8-5.3,16.1-5.1s11.8,2.4,13.6,2.2s12.4-4,12.5-2.6s0.1,6.5,0.1,6.5l-8.5,4.2l-11,0.2
		l13.7,10.3c0,0,20.5,10.4,21.8,10.7s-0.8,6.7-0.8,6.7l-25.9-11.1l24.2,19l-4.5,5.7L642.9,420l22.1,24.7l-6.6,3.3L638,426.7l11,19.5
		c0,0-6,3-6.8,1.5S629.4,430,629.4,430l-20.8-17.1l-1-6.9L617.4,393.5z"/>
	<path class="st0" d="M499.9,349.1c7.3-11.2,24.2-6.2,30.3-4.1s17.3,9.1,22.8,12.5c14.2,8.7,56.5,35.8,72.1,40.5
		c10.9,3.3-5.6,18.7-5.6,18.7s-11.6-6.7-19.2-9.4c-16-5.7-39-8.6-65.7-17.1c-7-2.2-20.3-9.1-26.1-13.7
		C492.4,363.8,497.8,352.3,499.9,349.1z"/>
	<path class="st0" d="M518.5,343.3l1.6,3.8c2.7,6.5-0.1,14-6.4,17.2l0,0c-5.8,2.8-12.7,1.3-16.8-3.7l-3.6-4.5
		c0,0-87.9-89.5-58.7-108.9l0,0c9.4-6.3,24.8-6.9,30.8,2.8L518.5,343.3z"/>
	<path class="st0" d="M281.4,320.8L235,357.5l-3.4,2.4c-6,4.1-14.1,2.9-18.6-2.8l0,0c-4.1-5.1-4.1-12.4,0.1-17.5l3.7-4.5
		c0,0,29.2-31.7,37.6-43.3c10.3-14.2,36.7-66.2,60.9-40.1c0,0,10.4,25.2,2,33.2L281.4,320.8z"/>
	<path class="st2" d="M445.2,445.5c-5.5-25.2-6.1-61.4-6-66.2c0.5-20,7.2-56.5,8.7-76.4c1-13.9-1-50.1-1.7-61.2
		c-0.1-2-1.4-3.7-3.3-4.3l0,0c-1.7-0.6-3.5-0.1-4.8,1.1c-6,5.7-23.7,22-32.1,25.1c-18.1,6.5-72,3.3-84.6,2.4
		c-1.7-0.1-3.3,0.7-4.3,2.1c-4.2,6.1-15.2,23.5-13,35.2c3.7,19.4,10.5,58.3,10.2,78c-0.1,5.6-6.4,45.2-13.1,70.2"/>
</g>
<ellipse class="st3" cx="442.6" cy="238.4" rx="9" ry="6.1"/>
<rect x="591.9" y="380.7" transform="matrix(0.9179 0.3969 -0.3969 0.9179 206.1207 -204.4406)" class="st3" width="10.2" height="30"/>
<g>
	<g>
		
			<ellipse transform="matrix(0.9319 -0.3626 0.3626 0.9319 -52.8105 161.4559)" class="st4" cx="403.7" cy="221.4" rx="4.8" ry="4.5"/>
	</g>
	<g>
		
			<ellipse transform="matrix(0.9998 -2.198268e-02 2.198268e-02 0.9998 -4.9939 8.9756)" class="st4" cx="405.8" cy="231.6" rx="4.8" ry="4.5"/>
	</g>
	<g>
		<ellipse transform="matrix(0.3213 -0.947 0.947 0.3213 45.2132 546.9525)" class="st4" cx="404.2" cy="241.9" rx="4.5" ry="4.8"/>
	</g>
	<g>
		<ellipse transform="matrix(0.6258 -0.78 0.78 0.6258 -46.4608 405.296)" class="st4" cx="399.2" cy="251.1" rx="4.5" ry="4.8"/>
	</g>
	<g>
		
			<ellipse transform="matrix(0.8548 -0.5189 0.5189 0.8548 -77.0377 240.5154)" class="st4" cx="391.3" cy="257.9" rx="4.5" ry="4.8"/>
	</g>
	<g>
		
			<ellipse transform="matrix(0.9808 -0.1953 0.1953 0.9808 -43.7565 79.5511)" class="st4" cx="381.6" cy="261.7" rx="4.5" ry="4.8"/>
	</g>
	<g>
		<ellipse transform="matrix(0.152 -0.9884 0.9884 0.152 55.8942 589.0375)" class="st4" cx="371.2" cy="261.9" rx="4.8" ry="4.5"/>
	</g>
	<g>
		
			<ellipse transform="matrix(0.4808 -0.8768 0.8768 0.4808 -39.1494 451.0796)" class="st4" cx="361.3" cy="258.6" rx="4.8" ry="4.5"/>
	</g>
	<g>
		
			<ellipse transform="matrix(0.7517 -0.6595 0.6595 0.7517 -78.5468 295.5182)" class="st4" cx="353.2" cy="252.1" rx="4.8" ry="4.5"/>
	</g>
	<g>
		
			<ellipse transform="matrix(0.9319 -0.3626 0.3626 0.9319 -64.504 142.6614)" class="st4" cx="347.8" cy="243.2" rx="4.8" ry="4.5"/>
	</g>
	<g>
		
			<ellipse transform="matrix(0.9998 -2.198268e-02 2.198268e-02 0.9998 -5.0374 7.6573)" class="st4" cx="345.8" cy="233" rx="4.8" ry="4.5"/>
	</g>
	<g>
		<ellipse transform="matrix(0.3213 -0.947 0.947 0.3213 24.9048 480.0618)" class="st4" cx="347.4" cy="222.7" rx="4.5" ry="4.8"/>
	</g>
</g>
</svg>
