<svg xmlns="http://www.w3.org/2000/svg" viewBox="0 0 588 328.33"><defs><style>.cls-1{fill:#e78367;}.cls-2{fill:#b85d40;}.cls-3{fill:#9f6042;}.cls-4{fill:#ffc145;}.cls-5{fill:#c35959;}.cls-6{fill:#824e3a;}.cls-7{fill:#baa535;}.cls-8{fill:#4f626c;}.cls-9{fill:#3c3d4e;}</style></defs><g id="Calque_4" data-name="Calque 4"><path class="cls-1" d="M340.43,118.58l2.16,18.25-21.08,75.33h-92.1l-22.52-75.57,2.64-18.73L192.48,81l37.86-15.2,13.39-5.38a20.33,20.33,0,0,0,12.75-18.87V28.8H295V41.33a20.35,20.35,0,0,0,13.31,19.09l12.92,4.76,38.45,14.17Z"/><path class="cls-2" d="M321.19,65.18c-11.08,8.74-34,13.94-49.71,13.94-11.14,0-29.65-7-41.14-13.29l13.39-5.38a20.33,20.33,0,0,0,12.75-18.87V30.07l.28-1.27.1-.43H295v13a20.35,20.35,0,0,0,13.31,19.09Z"/></g><g id="Calque_3" data-name="Calque 3"><path class="cls-3" d="M200.47,154.53l-33.2,48.89-2.59,3.28a13.88,13.88,0,0,1-18.6,3h0A13.89,13.89,0,0,1,140.89,193l2.18-5.42s18.29-39,22.81-52.57c5.54-16.65,16.2-68.34,44.72-54.13h0C221,86,229.33,99.29,223.72,109.47Z"/><path class="cls-3" d="M152.14,211.93h0a15.23,15.23,0,0,0,13.41-8.86,9.27,9.27,0,0,0,.73-1.59c1.68-9-.48-27.75-2.37-36.76-4.39-20.95-24.13-83.55-24.13-83.55h0a8.9,8.9,0,0,0-11.3-4.4l-1,.39a8.88,8.88,0,0,0-5.42,10c.16.77.29,1.47.37,2,1.36,9.45,5.58,71,7.19,83.77.94,7.45,5.72,21.94,9.17,28.61C140.77,205.33,147.12,212.07,152.14,211.93Z"/><path class="cls-3" d="M139,79.78s1,15.93-3.85,14.85l-1.8-.4L94.18,84,49.75,62.53,56.28,57l7.6.4L95.65,70.3,108.91,67l-15.06-20L99.59,42l16.77,15.19,15.53,9.58Z"/><rect class="cls-4" x="123.26" y="109.24" width="28.4" height="10.59" transform="translate(-12.82 17.43) rotate(-6.93)"/><path class="cls-5" d="M340.67,135.83c0,14.3-19.29,41.29-33.59,41.29a25.89,25.89,0,0,1,0-51.77C321.38,125.35,340.67,121.54,340.67,135.83Z"/><circle class="cls-5" cx="275.49" cy="73.39" r="25.89"/><path class="cls-3" d="M359.64,79.54,342.59,137l-21.08,75.33h-92.1l-22.52-75.57,2.64-18.73L192.48,81.23l51.25-20.58a20.35,20.35,0,0,0,12.75-18.87V29H295V41.53a20.33,20.33,0,0,0,13.31,19.08l51.37,18.93Z"/><path class="cls-6" d="M256.56,29H295V39.58h0c-8.64,11-14.34,15.82-20.89,15.77-4.94,0-12.67-9.73-17.67-13.57l.08-1.94Z"/><path class="cls-7" d="M274.89,214.42H321s20.93,57.8,21,62.84-62.31,67.52-61.29,70-6.41-4.3-6.41-5S274.89,214.42,274.89,214.42Z"/><path class="cls-7" d="M273.93,214.42H227.85s-20.92,57.8-21,62.84,62.31,67.52,61.28,70,6.41-4.3,6.41-5S273.93,214.42,273.93,214.42Z"/><path class="cls-8" d="M242.51,59l-36.59,75.62a.48.48,0,0,0,0,.29l.06.56c5.16,41.71-1,108.6-13.76,148.65l-7.75,24.4a8.82,8.82,0,0,0,5.36,10.95l178.82,66.05a.52.52,0,0,0,.7-.44h0c1.93-23.19-2.59-60.2-10.06-82.23l-3.07-9.09c-14.39-42.48-21-113.58-14.73-158l.09-.62a.48.48,0,0,0,0-.29L307.41,59a.51.51,0,0,0-.59-.29L275.15,66.3a.49.49,0,0,1-.24,0L243.1,58.74A.53.53,0,0,0,242.51,59Z"/><path class="cls-3" d="M362.72,153.74l38.84,44.53,3,2.95a13.89,13.89,0,0,0,18.83.71h0a13.87,13.87,0,0,0,3.13-17.22l-2.81-5.12s-22.85-36.49-29-49.44c-7.5-15.87-24.3-65.9-50.91-48.35h0c-9.7,6.39-16.36,20.58-9.57,30Z"/><polygon class="cls-9" points="265.88 168.91 320.92 289.04 412.53 248.1 375.67 124.09 265.88 168.91"/><path class="cls-3" d="M424.82,183.12h0a17.28,17.28,0,0,1-1.18,15.46,9.93,9.93,0,0,1-.84,1.38C417,205.79,403,213.16,395.92,216,379.45,222.64,327.73,237,327.73,237h0c-3.74.38-7-2.76-7.39-7.2l-.09-1c-.39-4.09,1.74-8.06,5.05-9.41.6-.24,1.14-.48,1.55-.68,7.2-3.5,52.32-30.19,61.94-35.1,5.62-2.87,17.67-6,23.69-6.42C415.86,176.94,423,178.9,424.82,183.12Z"/><polygon class="cls-3" points="322.45 220.91 305.18 212.73 286.85 211.31 290.35 217.95 299.04 220.36 303.13 224.84 292.31 226.93 290.74 218.92 285.6 219.03 278.44 231.62 285.87 254.96 302.11 257.91 327.02 240.23 334.45 236.47 349.94 229.86 333.66 215.47 327.1 219.42 322.45 220.91"/></g></svg>