<svg xmlns="http://www.w3.org/2000/svg" xmlns:xlink="http://www.w3.org/1999/xlink" viewBox="0 0 588 328.33"><defs><style>.cls-1{fill:none;}.cls-2{fill:#e78367;}.cls-3{fill:#b85d40;}.cls-4{fill:#9f6042;}.cls-5{fill:#824e3a;}.cls-6{clip-path:url(#clip-path);}.cls-7{fill:#af6d98;}.cls-8{clip-path:url(#clip-path-2);}</style><clipPath id="clip-path"><rect class="cls-1" x="187.1" y="61.5" width="86.8" height="261.22"/></clipPath><clipPath id="clip-path-2"><rect class="cls-1" x="273.91" y="61.5" width="86.8" height="261.22"/></clipPath></defs><g id="Calque_4" data-name="Calque 4"><path class="cls-2" d="M340.43,118.58l2.16,18.25-21.08,75.33h-92.1l-22.52-75.57,2.64-18.73L192.48,81l37.86-15.2,13.39-5.38a20.33,20.33,0,0,0,12.75-18.87V28.8H295V41.33a20.35,20.35,0,0,0,13.31,19.09l12.92,4.76,38.45,14.17Z"/><path class="cls-3" d="M321.19,65.18c-11.08,8.74-34,13.94-49.71,13.94-11.14,0-29.65-7-41.14-13.29l13.39-5.38a20.33,20.33,0,0,0,12.75-18.87V30.07l.28-1.27.1-.43H295v13a20.35,20.35,0,0,0,13.31,19.09Z"/></g><g id="Calque_3" data-name="Calque 3"><path class="cls-4" d="M472.68,36l10.87-11.64,19-11.74s1.81,3.77,1.41,5c-1.29,3.93-6.72,8.17-10,11-.43.38-1.16,2.78-.9,3.27,1.05,2,6.05.92,6.05.92L485,40.72Z"/><path class="cls-4" d="M477.92,35.18l5.82,14.63,35-9.45,31-21.59s-4-3.22-5.69-3.33c-8.82-.58-24.27,10.31-32.55,13.3C502.51,32,477.92,35.18,477.92,35.18Z"/><ellipse class="cls-4" cx="480.05" cy="41.72" rx="9.69" ry="8.95" transform="translate(-1.79 45.84) rotate(-5.46)"/><path class="cls-4" d="M340.65,117.13l2.17,18.25-21.08,75.33h-92.1l-22.53-75.57,2.65-18.73-17-36.82L244,59a20.34,20.34,0,0,0,12.76-18.87V27.35h38.48V39.89A20.34,20.34,0,0,0,308.49,59L359.87,77.9Z"/><path class="cls-4" d="M453.63,118.69l3.5,2a12.73,12.73,0,0,1,5,17.05h0a14,14,0,0,1-15.72,6.83l-5.54-1.39S318.51,121.05,329.13,92.69h0C333,82.34,345,73,355.57,77Z"/><path class="cls-4" d="M200,154.41l-33.2,48.88-2.58,3.29a13.89,13.89,0,0,1-18.61,3h0a13.88,13.88,0,0,1-5.18-16.72l2.17-5.42s18.3-39,22.82-52.57c5.54-16.65,16.2-68.34,44.72-54.13h0c10.4,5.18,18.72,18.47,13.11,28.64Z"/><path class="cls-5" d="M256.77,27.54h38.42V38.13h0c-8.63,11-14.32,15.82-20.85,15.77-4.94,0-12.65-9.73-17.64-13.58l.07-1.93Z"/><path class="cls-4" d="M446,144.07h0a17.29,17.29,0,0,0,15.22-2.93,9.43,9.43,0,0,0,1.27-1c5.14-6.39,10.89-21.16,12.92-28.53,4.72-17.1,13.1-70.12,13.1-70.12h0c0-3.75-3.53-6.6-8-6.52l-1,0c-4.12.08-7.82,2.64-8.78,6.08-.18.63-.35,1.19-.5,1.62-2.67,7.55-24.08,55.4-27.87,65.51-2.22,5.91-4,18.24-3.71,24.27C438.88,135.86,441.63,142.75,446,144.07Z"/><g id="_Repetition_miroir_" data-name="&lt;Repetition miroir&gt;"><g class="cls-6"><path class="cls-7" d="M221.13,210.71c.5-34.72-34-134.65-34-134.65l19.11-8.59,13.18-6,56.9,40.12L289.66,81l47.63,21.07L325.53,184.7l-50.92,138-57.61-30a23.11,23.11,0,0,1-11.82-25.77S220.92,225.32,221.13,210.71Z"/></g></g><g id="_Repetition_miroir_2" data-name="&lt;Repetition miroir&gt;"><g class="cls-8"><path class="cls-7" d="M326.69,210.71c-.51-34.72,34-134.65,34-134.65L341.6,67.47l-13.18-6-56.89,40.12L258.16,81l-47.64,21.07,11.76,82.59,50.92,138,57.61-30a23.11,23.11,0,0,0,11.83-25.77S326.9,225.32,326.69,210.71Z"/></g></g><path class="cls-4" d="M259.23,162s-15.09-5.21-12.2-9.3l1.06-1.5L272.68,119l37-32.67,2.59,8.16-3.31,6.86-24.19,24.3-2.11,13.5L306.87,133l2.46,7.27-20.49,9.59L274,160.42Z"/><path class="cls-4" d="M141,200.62h0A15.23,15.23,0,0,0,152.36,212a9.14,9.14,0,0,0,1.69.39c9.21-.16,27.1-6,35.55-9.65,19.65-8.49,77-40.34,77-40.34h0a8.89,8.89,0,0,0,2.06-11.94l-.57-.87a8.9,8.9,0,0,0-10.93-3.3c-.72.31-1.38.58-1.89.76-9,3.22-68.49,19.65-80.65,23.77-7.11,2.41-20.36,10-26.21,14.71C145.19,188.17,139.86,195.73,141,200.62Z"/></g></svg>