<svg xmlns="http://www.w3.org/2000/svg" xmlns:xlink="http://www.w3.org/1999/xlink" viewBox="0 0 588 328.33"><defs><style>.cls-1{fill:none;}.cls-2{fill:#e78367;}.cls-3{fill:#824e3a;}.cls-4{fill:#9f6042;}.cls-5{fill:#b55943;}.cls-6{clip-path:url(#clip-path);}.cls-7{fill:#3a7b61;}.cls-8{clip-path:url(#clip-path-2);}</style><clipPath id="clip-path"><rect class="cls-1" x="190.12" y="33.89" width="85.38" height="270.28"/></clipPath><clipPath id="clip-path-2"><rect class="cls-1" x="275.5" y="33.89" width="85.38" height="270.28"/></clipPath></defs><g id="Calque_4" data-name="Calque 4"><path class="cls-2" d="M340.43,118.58l2.16,18.25-21.08,75.33h-92.1l-22.52-75.57,2.64-18.73L192.48,81l37.86-15.2,13.39-5.38a20.33,20.33,0,0,0,12.75-18.87V28.8H295V41.33a20.35,20.35,0,0,0,13.31,19.09l12.92,4.76,38.45,14.17Z"/><path class="cls-3" d="M321.19,65.18c-11.08,8.74-34,13.94-49.71,13.94-11.14,0-29.65-7-41.14-13.29l13.39-5.38a20.33,20.33,0,0,0,12.75-18.87V30.07l.28-1.27.1-.43H295v13a20.35,20.35,0,0,0,13.31,19.09Z"/></g><g id="Calque_3" data-name="Calque 3"><path class="cls-4" d="M189.48,197.32s0,0,0,0h0L224,107.52h0a23.48,23.48,0,0,0-12.13-29.64,20.82,20.82,0,0,0-28.07,11.89c-.07.17-.13.34-.19.51l-24.73,97.64c-2.35,9.82,1.61,18.55,8.92,21C176,211.57,184.55,211,189.48,197.32Z"/><path class="cls-4" d="M188.7,191.25c.26-13.26-8.76-22-20.93-22.51-.26,0-5.68.34-5.68.34L67.5,183.38s-7.64,0-7.61,9.27c0,8.34,8.67,8.32,8.67,8.32l88.66,12.16c10.23,1.4,20.58.49,27.64-7.74C187.73,202.05,188.62,195.4,188.7,191.25Z"/><path class="cls-4" d="M163.46,220.91l0-.12-.66-.15-.16,0Z"/><path class="cls-4" d="M69.13,184.84s6,14.81,1,15.31l-1.83.18-40.41,2.56L-21,196.43l4.47-7.31,7.34-2L25,189.43l11.57-7.28L16,167.92l3.87-6.62,20.68,9.17,17.75,4.23Z"/><path class="cls-4" d="M388.34,198.22v0h0L376.11,99.1h0c-1.56-12.65-12.75-22.52-25-22s-20.9,11.12-19.33,23.78a5.39,5.39,0,0,0,.08.56s24.66,102,24.67,102c2.6,10.2,10.31,16.53,18,15.44C383.13,217.59,390.48,213.15,388.34,198.22Z"/><path class="cls-4" d="M382.24,192.26c-8.32-9-20.16-8.3-28.87.12-.19.17-3.71,4.3-3.71,4.3l-56.15,77.5s-5.29,5.47.69,11.61c5.37,5.52,11.32-.71,11.32-.71l69-55.68c8-6.42,14.52-14.47,14.12-25C388.48,200.12,384.84,195.07,382.24,192.26Z"/><path class="cls-4" d="M389.25,233.94l-.07-.12c-.19.12-.38.25-.58.36l-.14.08Z"/><path class="cls-2" d="M340.75,119.43l2.18,17.15-21.26,70.81H228.81L220.21,137l-11.44-18.22L191.58,84.14,243.24,64.8c7.77-2.91,12.87-9.94,12.87-17.74V35H294.9V46.82c0,8,5.36,15.17,13.42,17.94l51.8,17.8Z"/><path class="cls-5" d="M256.17,35.22H294.9v10h0c-8.7,10.3-14.44,14.87-21,14.82-5,0-12.76-9.14-17.78-12.76l.07-1.81Z"/><g id="_Répétition_miroir_" data-name="&lt;Répétition miroir&gt;"><g class="cls-6"><path class="cls-7" d="M221.1,209.33c.36-33.83-31-132.22-31-132.22L253.2,49.38l.89-15.13,42.25-.36,10.57,15,53.93,21.19-33.29,103.4L285.79,304.16h-89S220.84,233.71,221.1,209.33Z"/></g></g><g id="_Répétition_miroir_2" data-name="&lt;Répétition miroir&gt;"><g class="cls-8"><path class="cls-7" d="M329.9,209.33c-.36-33.83,31-132.22,31-132.22L297.8,49.38l-.89-15.13-42.25-.36-10.57,15L190.15,70.12l33.3,103.4,41.76,130.64h89S330.16,233.71,329.9,209.33Z"/></g></g></g></svg>