<?xml version="1.0" encoding="utf-8"?>
<!-- Generator: Adobe Illustrator 26.0.1, SVG Export Plug-In . SVG Version: 6.00 Build 0)  -->
<svg version="1.1" id="Calque_1" xmlns="http://www.w3.org/2000/svg" xmlns:xlink="http://www.w3.org/1999/xlink" x="0px" y="0px"
	 viewBox="0 0 588 328.3" style="enable-background:new 0 0 588 328.3;" xml:space="preserve">
<style type="text/css">
	.st0{fill:#9F6042;}
	.st1{fill:#824E3A;}
	.st2{fill:#2D2A29;}
	.st3{fill:#424251;}
	.st4{fill:#9A9AA8;}
</style>
<g id="Calque_4_00000042734095689685983860000002022814065050594970_">
	<path class="st0" d="M359.6,126.1l2.2,18.2l-21.1,75.3h-92.1L226.1,144l2.6-18.7l-17-36.8l37.9-15.2l13.4-5.4
		c7.7-3.1,12.8-10.6,12.8-18.9V36.2h38.4v12.5c0,8.5,5.3,16.1,13.3,19.1l12.9,4.8l38.5,14.2L359.6,126.1z"/>
	<path class="st1" d="M340.4,72.7c-11.1,8.7-34,13.9-49.7,13.9c-11.1,0-29.6-7-41.1-13.3l13.4-5.4c7.7-3.1,12.8-10.6,12.8-18.9V37.5
		l0.3-1.3l0.1-0.4h38v13c0,8.5,5.3,16.1,13.3,19.1L340.4,72.7z"/>
</g>
<g id="Calque_3_00000091011483660447152390000015977067573392890776_">
	<path class="st0" d="M155,101.1c-0.6-2.3-15.2-37-15.2-37s17.2-20.4,17.1-20.7c-1-2.2-7.6-34.1-7.6-34.1l6-1.9L166.6,46l6.6-34.4
		l5.5,3.2l-2.9,37.4l7.5,17.4L172.9,99L155,101.1z"/>
	<path class="st0" d="M422.8,200.4l2.9,2.9c4.8,5,12.7,5.2,17.8,0.5l0,0c4.6-4.4,5.7-11.3,2.6-16.9l-2.7-5c0,0-52.4-112.8-77.2-95.3
		l0,0c-9,6.4-15,20.3-8.5,29.5L422.8,200.4z"/>
	<path class="st0" d="M222.8,162.5l-28.4,51.8l-2.3,3.5c-3.9,6.1-11.9,8.1-18.2,4.7l0,0c-5.8-3.1-8.6-9.8-6.8-16.1l1.6-5.6
		c0,0,14.5-40.5,17.7-54.5c3.9-17.1,9.6-69.6,39.4-58.1l0,0c10.9,4.2,20.4,16.6,15.8,27.3L222.8,162.5z"/>
	<path class="st0" d="M441.6,183.7L441.6,183.7c4.4,3.8,6.6,9.5,6,15.1c0,0.6-0.1,1.1-0.2,1.7c-2.9,8.1-13.3,21.4-18.9,27.2
		c-13.1,13.6-57.2,50.4-57.2,50.4l0,0c-3.5,2-8.1,0.5-10.6-3.5l-0.6-0.9c-2.3-3.7-2.1-8.4,0.6-11.1c0.5-0.5,0.9-1,1.2-1.3
		c5.4-6.5,37.3-52,44.5-60.9c4.2-5.2,14.6-13.6,20.3-16.7C429.9,181.8,437.9,180.5,441.6,183.7z"/>
	<path class="st0" d="M179,224.7L179,224.7c5.8,0.1,11.1-3.2,13.8-8.3c0.3-0.5,0.6-1,0.8-1.5c2-9,0.6-27.8-0.9-36.8
		c-1.1-6.3-3.4-16.5-6.1-27.6c-6.3-25.8-14.7-56.8-14.7-56.8l0,0c-1.9-4.3-6.7-6.4-11.1-4.9l-1,0.4c-4.1,1.4-6.5,5.6-5.8,9.8
		c0.1,0.8,0.2,1.5,0.3,2c1,9.5,0.3,60.1,3.9,84c1.1,7.4,4.8,22.2,8,29C167.9,217.7,174,224.6,179,224.7z"/>
	<path class="st0" d="M196.7,187.6c-1-10.1-4.9-29.5-10.8-39.2l0.8-2.6l28.9,30.5c0,0-22.2,41.6-24.7,43.1
		C190.9,219.3,198.2,203.4,196.7,187.6z"/>
	<path class="st2" d="M186.2,145.7c0,0,7.2-44.8,18.6-55.2s167-9.1,167-9.1s18.6,8.6,28,22.9c5.7,8.7,10.9,17.8,15.5,27.1
		l-28.9,23.8l-21.7-27.7l0.5,18.3l-16.8,77.5l30.5,65.8c0,0-14.6,19.3-13.1,18s-134.5,0-134.5,0l-15.7-10.9l11.6-71.7l1.9-72.9
		l-13.3,25L186.2,145.7z"/>
	<polyline class="st0" points="374.8,249.6 372.7,254.4 376.2,262.2 380.1,269.7 383.1,265.2 389,259.6 	"/>
</g>
<g>
	<path class="st3" d="M346.2,222c0,0-89.8,57.4-120,54.5c-30.3-2.8-10,10.6-10,10.6l8.9,12.7c0,0,128.8-36,129.8-56.3
		S346.2,222,346.2,222z"/>
	<g>
		<path class="st4" d="M234,314.2L234,314.2c-3.4-1.4-7.3-0.9-10.4,1.2h0c-7.7,5.3-18-0.7-17.5-10v0c0.2-3.7-1.4-7.3-4.3-9.6l0,0
			c-7.3-5.8-4.9-17.5,4-19.9h0c3.6-0.9,6.4-3.6,7.7-7.1l0,0c3.2-8.8,15-10.2,20-2.3h0c2,3.1,5.4,5.1,9.1,5.2l0,0
			c9.3,0.3,14.2,11.3,8.3,18.5l0,0c-2.3,2.9-3.1,6.8-2.1,10.3v0C251.4,309.5,242.6,317.6,234,314.2z"/>
		<path class="st3" d="M223,305.3L223,305.3c-1.5-1.7-3.8-2.6-6.1-2.3h0c-5.8,0.7-9.8-5.5-6.9-10.6v0c1.2-2,1.3-4.5,0.3-6.6l0,0
			c-2.5-5.3,7.8-9.9,7.8-9.9c2.2,0.5,4.6-0.2,6.3-1.7l0,0c4.2-4,11.2-1.4,11.7,4.5h0c0.2,2.3,1.6,4.4,3.6,5.5l0,0
			c5.1,2.8,4.7,10.3-0.6,12.7h0c-2.1,0.9-3.6,2.9-4.1,5.1l0,0C234,307.7,226.8,309.7,223,305.3z"/>
	</g>
</g>
</svg>
