<svg xmlns="http://www.w3.org/2000/svg" xmlns:xlink="http://www.w3.org/1999/xlink" viewBox="0 0 788 1005.07"><defs><style>.cls-1{fill:none;}.cls-2{fill:#e78367;}.cls-3{fill:#824e3a;}.cls-4{fill:#9f6042;}.cls-5{fill:#b55943;}.cls-6{clip-path:url(#clip-path);}.cls-7{fill:#3a7b61;}.cls-8{clip-path:url(#clip-path-2);}</style><clipPath id="clip-path"><rect class="cls-1" x="290.12" y="199.2" width="85.38" height="270.28"/></clipPath><clipPath id="clip-path-2"><rect class="cls-1" x="375.5" y="199.2" width="85.38" height="270.28"/></clipPath></defs><g id="Calque_4" data-name="Calque 4"><path class="cls-2" d="M440.43,283.89l2.16,18.25-21.08,75.33h-92.1L306.89,301.9l2.64-18.73-17-36.83,37.86-15.2,13.39-5.38a20.33,20.33,0,0,0,12.75-18.87V194.11H395v12.53a20.35,20.35,0,0,0,13.31,19.09l12.92,4.76,38.45,14.17Z"/><path class="cls-3" d="M421.19,230.49c-11.08,8.74-34,13.94-49.71,13.94-11.14,0-29.65-7-41.14-13.29l13.39-5.38a20.33,20.33,0,0,0,12.75-18.87V195.38l.28-1.27.1-.43H395v13a20.35,20.35,0,0,0,13.31,19.09Z"/></g><g id="Calque_3" data-name="Calque 3"><path class="cls-4" d="M289.48,362.63s0,0,0,0h0L324,272.83h0a23.48,23.48,0,0,0-12.13-29.64,20.82,20.82,0,0,0-28.07,11.89c-.07.17-.13.34-.19.51,0,0-24.73,97.63-24.73,97.64-2.35,9.82,1.61,18.55,8.92,20.95C276,376.88,284.55,376.28,289.48,362.63Z"/><path class="cls-4" d="M288.7,356.56c.26-13.26-8.76-22-20.93-22.51-.26,0-5.68.34-5.68.34l-94.59,14.3s-7.64,0-7.61,9.27c0,8.34,8.67,8.32,8.67,8.32l88.66,12.16c10.23,1.4,20.58.49,27.64-7.74C287.73,367.36,288.62,360.7,288.7,356.56Z"/><path class="cls-4" d="M263.46,386.22l0-.13-.66-.14-.16,0Z"/><path class="cls-4" d="M169.13,350.15s6,14.81,1,15.31l-1.83.18-40.41,2.56L79,361.74l4.47-7.31,7.34-2L125,354.74l11.57-7.28L116,333.23l3.87-6.62,20.68,9.17L158.28,340Z"/><path class="cls-4" d="M488.34,363.53v0h0l-12.24-99.09h0c-1.56-12.65-12.75-22.52-25-22.05s-20.9,11.12-19.33,23.78a5.39,5.39,0,0,0,.08.56s24.66,102,24.67,102c2.6,10.2,10.31,16.52,18,15.44C483.13,382.9,490.48,378.46,488.34,363.53Z"/><path class="cls-4" d="M482.24,357.57c-8.32-9-20.16-8.3-28.87.12-.19.17-3.71,4.3-3.71,4.3l-56.15,77.5s-5.29,5.47.69,11.61c5.37,5.52,11.32-.71,11.32-.71l69-55.68c8-6.42,14.52-14.47,14.12-25C488.48,365.43,484.84,360.37,482.24,357.57Z"/><path class="cls-4" d="M489.25,399.25l-.07-.12c-.19.12-.38.25-.58.36l-.14.08Z"/><path class="cls-2" d="M440.75,284.74l2.18,17.15L421.67,372.7H328.81l-8.6-70.42-11.44-18.22-17.19-34.61,51.66-19.35c7.77-2.9,12.87-9.93,12.87-17.73v-12H394.9v11.78c0,8,5.36,15.17,13.42,17.94l51.8,17.79Z"/><path class="cls-5" d="M356.17,200.53H394.9v9.95h0c-8.7,10.3-14.44,14.87-21,14.82-5,0-12.76-9.14-17.78-12.76l.07-1.81Z"/><g id="_Répétition_miroir_" data-name="&lt;Répétition miroir&gt;"><g class="cls-6"><path class="cls-7" d="M321.1,374.64c.36-33.83-31-132.22-31-132.22l63.08-27.73.89-15.13,42.25-.36,10.57,15,53.93,21.19L427.55,338.82,385.79,469.47h-89S320.84,399,321.1,374.64Z"/></g></g><g id="_Répétition_miroir_2" data-name="&lt;Répétition miroir&gt;"><g class="cls-8"><path class="cls-7" d="M429.9,374.64c-.36-33.83,31-132.22,31-132.22L397.8,214.69l-.89-15.13-42.25-.36-10.57,15-53.94,21.19,33.3,103.39,41.76,130.65h89S430.16,399,429.9,374.64Z"/></g></g></g></svg>