<?xml version="1.0" encoding="utf-8"?>
<!-- Generator: Adobe Illustrator 26.0.1, SVG Export Plug-In . SVG Version: 6.00 Build 0)  -->
<svg version="1.1" id="Calque_1" xmlns="http://www.w3.org/2000/svg" xmlns:xlink="http://www.w3.org/1999/xlink" x="0px" y="0px"
	 viewBox="0 0 588 328.3" style="enable-background:new 0 0 588 328.3;" xml:space="preserve">
<style type="text/css">
	.st0{fill:#824E3A;}
	.st1{fill:#9F6042;}
	.st2{fill:#E78367;}
	.st3{fill:#D5C65A;}
</style>
<g>
	<g id="Calque_4_00000058590565443458407100000010594671678393530544_">
		<path class="st0" d="M397.4,115.1l2.2,18.2l-21.1,75.3h-92.1L263.9,133l2.6-18.7l-17-36.8l37.9-15.2l13.4-5.4
			c7.7-3.1,12.8-10.6,12.8-18.9V25.2H352v12.5c0,8.5,5.3,16.1,13.3,19.1l12.9,4.8l38.5,14.2L397.4,115.1z"/>
		<path class="st0" d="M378.2,61.7c-11.1,8.7-34,13.9-49.7,13.9c-11.1,0-29.6-7-41.1-13.3l13.4-5.4c7.7-3.1,12.8-10.6,12.8-18.9
			V26.5l0.3-1.3l0.1-0.4h38v13c0,8.5,5.3,16.1,13.3,19.1L378.2,61.7z"/>
	</g>
	<g id="Calque_3_00000163048349828299944380000012595988231382170803_">
		<path class="st1" d="M92,118.3l-12.9-11.7l-22-11.2c0,0-1.7,4.1-1.2,5.4c1.7,4.1,8.1,8.2,11.9,11.1c0.5,0.4,1.5,2.9,1.3,3.4
			c-1,2.2-6.7,1.4-6.7,1.4l16.4,7.4L92,118.3z"/>
		<path class="st1" d="M86.1,117.7l-5.4,15.9l-39.6-7.8l-36-20.9c0,0,4.2-3.7,6.1-3.9c9.8-1.2,27.8,9.4,37.2,12
			C58.5,115.9,86.1,117.7,86.1,117.7z"/>
		<path class="st2" d="M394.9,167.3l-10.1-5.5c0,0-19.7-21.9-20.5-22.7s-15.6-13.2-16.6-14.2s-8.2-10.5-8.2-10.5l-4.6,9.2l7.5,10.9
			l9,8.9l-22.8-4.3c0,0-34.3-10-34.9-8.8s-1.4,7.8-0.3,8.4s33.5,10.9,33.5,10.9s-41-5.6-41.2-3.6s-0.6,9.2,1.1,9.2
			s36.6,3.6,36.6,3.6s-37.2,2.7-36.6,3.9s2.9,8.1,2.9,8.1l36.3-1.2l-25.6,8.4c0,0,4.4,7.2,5.5,7.2s29.4-8.2,29.4-8.2s28.5,3,30,2.2
			c4.2-2.1,13.9,4,13.9,4L394.9,167.3z"/>
		<path class="st1" d="M458.6,190.3l2.9,2.9c4.8,5,12.7,5.2,17.8,0.5l0,0c4.6-4.4,5.7-11.3,2.6-16.9l-2.7-5
			c0,0-50.8-116.1-77.1-95.3l0,0c-9,6.4-13.6,38.6-7.1,47.8L458.6,190.3z"/>
		<path class="st1" d="M242.1,162.1l-50.8,41.2l-3.8,2.6c-6.6,4.6-15.4,3.2-20.4-3.1l0,0c-4.5-5.8-4.5-14,0.1-19.7l4.1-5.1
			c0,0,31.9-35.6,41.1-48.7c11.3-16,41.7-76.2,64.5-43l0,0c9.2,9.1,13.5,26.2,4.3,35.2L242.1,162.1z"/>
		<path class="st1" d="M189,205.1L189,205.1c4.4-4,6.1-10,4.3-15.6c-0.1-0.6-0.3-1.1-0.5-1.7c-5-7.9-19.6-20.4-27.3-25.9
			c-17.9-12.7-76.7-46.3-76.7-46.3l0,0c-4.5-1.8-9.7,0.1-11.8,4.2l-0.5,0.9c-2,3.9-0.9,8.5,2.8,11.1c0.7,0.5,1.2,0.9,1.7,1.2
			c7.6,6.1,53.6,49.3,63.7,57.7c5.9,4.9,19.7,12.6,27,15.2C175.6,207.8,185.2,208.6,189,205.1z"/>
		<path class="st3" d="M404,370.2H268c-18,0-42.5,1.4-36.8-18.2c9.2-31.9,24.9-75.6,28.4-101c3.5-25.3-6.6-48-10-73.3l6.5-29.9
			l-6.8-72.6l23.9-8.9l16.2,10.4c23.3,14.9,53.4,13.7,75.4-3.1L380,62.2l26.6,9l-2.5,76.7l8,29.9c-1,25.5-7.4,43-1.5,67.8
			c7.7,32.7,26,93.7,26.7,103.6C448,375.2,423.8,370.2,404,370.2z"/>
		<path class="st1" d="M483.4,186.8L483.4,186.8c-1,5.4-4.5,10-9.4,12.4c-0.5,0.3-0.9,0.5-1.5,0.7c-8,1.8-23.8,0.4-31.3-1
			c-17.4-3.3-68.7-19.2-68.7-19.2l-7.8-1.9c-3.4-1.7,3.4-4.2,5.5-8.2l0.5-0.9c1.9-3.6,1.1-8.9,4.2-7.1c2,1.3,4.4,2.1,6.8,2.1
			c8,0.9,60.3,2.8,71.1,3.9c6.3,0.6,18.1,4.5,23.4,7.4C479.2,176.7,484.1,182.2,483.4,186.8z"/>
		<path class="st1" d="M374.9,161.7L361.1,151l-22.8-9.6c0,0-1.4,4.2-0.8,5.5c2,4,8.7,7.6,12.7,10.1c0.5,0.3,1.7,2.8,1.5,3.3
			c-0.9,2.2-6.5,1.9-6.5,1.9l16.9,6.2L374.9,161.7z"/>
		<path class="st1" d="M369,161.6l-4.2,16.2l-40.1-4.8l-37.5-18.2c0,0,3.9-4,5.8-4.3c9.7-1.9,28.4,7.3,38,9.3
			C341.3,161.8,369,161.6,369,161.6z"/>
		
			<ellipse transform="matrix(0.9995 -3.193378e-02 3.193378e-02 0.9995 -5.1998 11.8283)" class="st1" cx="367.7" cy="168.7" rx="10.8" ry="9.5"/>
		<polygon class="st1" points="456.1,213.4 456.2,213.3 456.1,213.3 		"/>
		<polygon class="st1" points="456.2,213.3 456.3,213.4 456.3,213.3 		"/>
		<polygon class="st1" points="456.1,213.4 456.2,213.3 456.1,213.3 		"/>
		<polygon class="st1" points="456.2,213.3 456.3,213.4 456.3,213.3 		"/>
		<polygon class="st1" points="455.7,213.7 455.8,213.7 455.7,213.6 		"/>
		<polygon class="st1" points="455.8,213.7 455.9,213.7 455.9,213.6 		"/>
		<polygon class="st1" points="455.7,213.7 455.8,213.7 455.7,213.6 		"/>
		<polygon class="st1" points="455.8,213.7 455.9,213.7 455.9,213.6 		"/>
		<polygon class="st1" points="448,213.7 448.1,213.7 448,213.6 		"/>
		<polygon class="st1" points="448.1,213.7 448.1,213.7 448.1,213.6 		"/>
		<polygon class="st1" points="448,213.7 448.1,213.7 448,213.6 		"/>
		<polygon class="st1" points="448.1,213.7 448.1,213.7 448.1,213.6 		"/>
	</g>
</g>
</svg>
