<svg xmlns="http://www.w3.org/2000/svg" viewBox="0 0 588 328.33"><defs><style>.cls-1{fill:#9f6042;}.cls-2{fill:#824e3a;}.cls-3{fill:#ffc145;}.cls-4{fill:#c35959;}.cls-5{fill:#a6b42c;}.cls-6{fill:#3c3d4e;}.cls-7{fill:#1a1818;}</style></defs><g id="Calque_4" data-name="Calque 4"><path class="cls-1" d="M340.43,118.58l2.16,18.25-21.08,75.33h-92.1l-22.52-75.57,2.64-18.73L192.48,81l37.86-15.2,13.39-5.38a20.33,20.33,0,0,0,12.75-18.87V28.8H295V41.33a20.35,20.35,0,0,0,13.31,19.09l12.92,4.76,38.45,14.17Z"/><path class="cls-2" d="M321.19,65.18c-11.08,8.74-34,13.94-49.71,13.94-11.14,0-29.65-7-41.14-13.29l13.39-5.38a20.33,20.33,0,0,0,12.75-18.87V30.07l.28-1.27.1-.43H295v13a20.35,20.35,0,0,0,13.31,19.09Z"/></g><g id="Calque_3" data-name="Calque 3"><path class="cls-1" d="M208.54,124.89,165.3,205.32h0c-4.48,5.69-17,5.57-23,1.56h0a13.87,13.87,0,0,1-5.18-16.72l2.17-5.42s14.4-28.51,18.93-42.1c5.54-16.66,11.35-50.47,34.24-61.41l18.32-.4c10.4,5.18,18.73,18.46,13.12,28.64Z"/><path class="cls-1" d="M148.18,209.13h0a15.22,15.22,0,0,0,13.41-8.86,9.08,9.08,0,0,0,.73-1.58c1.68-9.06,3.48-25,1.59-34-4.39-20.95-24.13-83.55-24.13-83.55h0a8.9,8.9,0,0,0-11.3-4.4l-1,.39a8.88,8.88,0,0,0-5.42,10c.16.77.29,1.47.37,2,1.36,9.45,5.58,71,7.19,83.77.94,7.45,1.76,19.15,5.22,25.82C136.81,202.54,143.16,209.27,148.18,209.13Z"/><rect class="cls-3" x="123.26" y="109.24" width="28.4" height="10.59" transform="translate(-12.82 17.43) rotate(-6.93)"/><path class="cls-4" d="M340.67,135.83c0,14.3-19.29,41.29-33.59,41.29a25.89,25.89,0,0,1,0-51.77C321.38,125.35,340.67,121.54,340.67,135.83Z"/><path class="cls-5" d="M234.54,128.58l-24,55.35h0q1.6,13.77,2.19,27.58c1.75,41.39,0,38.88-11.89,78.5H347.63c-13.67-42.6-13.74-33.85-11.13-78.57q.79-13.65,2.62-27.27h0l-23.33-58L274.7,172Z"/><path class="cls-1" d="M386.91,206.65h0c4.48,5.69,17.55,7.24,23.58,3.22h0a13.86,13.86,0,0,0,5.18-16.71l-2.17-5.42s-18.29-39-22.82-52.57C385.14,118.51,374.49,66.83,346,81h0c-10.4,5.18-6.39,37.5-.78,47.68Z"/><path class="cls-1" d="M404.43,212.13h0A15.22,15.22,0,0,1,391,203.27a9.46,9.46,0,0,1-.73-1.58c-1.68-9.06.47-27.75,2.36-36.77,4.4-20.94,24.14-83.54,24.14-83.54h0A8.88,8.88,0,0,1,428.08,77l1,.38a8.88,8.88,0,0,1,5.42,10c-.16.77-.29,1.47-.37,2-1.36,9.46-5.58,71-7.19,83.77-.94,7.46-5.72,21.95-9.18,28.62C415.8,205.54,409.45,212.27,404.43,212.13Z"/><path class="cls-1" d="M417.55,80s-1,15.94,3.86,14.85l1.79-.4L462.38,84.2l44.44-21.46-2.45-2.08A13.44,13.44,0,0,0,495,57.47h0a13.35,13.35,0,0,0-4.36,1L467.18,68a20.85,20.85,0,0,1-12.82.92l-6.71-1.66,11.32-15a6.73,6.73,0,0,0-.92-9.1l-1.08-1L440.2,57.37l-8.33,5.15a31.86,31.86,0,0,0-11.24,11.84Z"/><path class="cls-1" d="M139.22,80s1,15.94-3.86,14.85l-1.79-.4L94.39,84.2,50,62.74l2.46-2.08a13.4,13.4,0,0,1,9.41-3.19h0a13.35,13.35,0,0,1,4.36,1L89.6,68a20.82,20.82,0,0,0,12.81.92l6.71-1.66-11.32-15a6.73,6.73,0,0,1,.92-9.1l1.08-1,16.77,15.18,8.33,5.15a31.78,31.78,0,0,1,11.24,11.84Z"/><path class="cls-5" d="M320.79,213.39H227.1c-15,0-27.11-46.57-27.11-61.54l13.82-82.09L256.72,111l17.86,18.3L295,107.67l39.63-39.8L351.61,151C351.61,166,335.77,213.39,320.79,213.39Z"/><path class="cls-3" d="M223.52,65.86c.52,3.19,41.38,52.85,51.45,51s51-52.22,51-52.22l8.69,3.2s-43.43,63.26-60.33,63.26c-17.47,0-60.53-61.37-60.53-61.37Z"/><polygon class="cls-6" points="401.89 250.31 401.98 250.27 401.89 250.22 401.89 250.31"/><polygon class="cls-6" points="401.98 250.27 402.08 250.31 402.08 250.22 401.98 250.27"/><polygon class="cls-6" points="401.89 250.31 401.98 250.27 401.89 250.22 401.89 250.31"/><polygon class="cls-6" points="401.98 250.27 402.08 250.31 402.08 250.22 401.98 250.27"/><polygon class="cls-6" points="401.52 250.63 401.62 250.59 401.52 250.54 401.52 250.63"/><polygon class="cls-6" points="401.62 250.59 401.71 250.63 401.71 250.54 401.62 250.59"/><polygon class="cls-6" points="401.52 250.63 401.62 250.59 401.52 250.54 401.52 250.63"/><polygon class="cls-6" points="401.62 250.59 401.71 250.63 401.71 250.54 401.62 250.59"/><polygon points="403.28 250.63 403.38 250.59 403.28 250.54 403.28 250.63"/><polygon points="403.38 250.59 403.47 250.63 403.47 250.54 403.38 250.59"/><polygon points="403.28 250.63 403.38 250.59 403.28 250.54 403.28 250.63"/><polygon class="cls-7" points="402.94 241.04 402.84 241.08 402.84 240.99 402.94 241.04"/><polygon points="403.03 240.99 403.03 241.08 402.94 241.04 403.03 240.99"/><polygon class="cls-7" points="402.94 241.04 402.84 241.08 402.84 240.99 402.94 241.04"/><polygon points="403.03 240.99 403.03 241.08 402.94 241.04 403.03 240.99"/></g></svg>