<svg xmlns="http://www.w3.org/2000/svg" viewBox="0 0 788 1005.07"><defs><style>.cls-1{fill:#e78367;}.cls-2{fill:#b85d40;}.cls-3{fill:#5e4876;}.cls-4{fill:none;}.cls-5{fill:#824e3a;}.cls-6{fill:#9f6042;}.cls-7{fill:#8243c1;}.cls-8{fill:#295394;}</style></defs><g id="Calque_4" data-name="Calque 4"><path class="cls-1" d="M440.43,283.89l2.16,18.25-21.08,75.33h-92.1L306.89,301.9l2.64-18.73-17-36.83,37.86-15.2,13.39-5.38a20.33,20.33,0,0,0,12.75-18.87V194.11H395v12.53a20.35,20.35,0,0,0,13.31,19.09l12.92,4.76,38.45,14.17Z"/><path class="cls-2" d="M421.19,230.49c-11.08,8.74-34,13.94-49.71,13.94-11.14,0-29.65-7-41.14-13.29l13.39-5.38a20.33,20.33,0,0,0,12.75-18.87V195.38l.28-1.27.1-.43H395v13a20.35,20.35,0,0,0,13.31,19.09Z"/></g><g id="Calque_3" data-name="Calque 3"><path class="cls-3" d="M332.93,181l82.37-16.5-8.45,73.16s-49.4,10.22-52.35,3.8S332.93,181,332.93,181Z"/><path class="cls-4" d="M410.92,411.5c15.66,4.66,22.54,8.74,26.4,15.33,3.12,5.33,6.23,17.65,6.59,23.82.87,14.49-6.28,51.13-19.62,63.61-13.57,12.7-81.32,14.28-95.47,2.23-13.91-11.84-22.77-48.11-22.58-62.62.07-6.18,2.61-18.63,5.47-24.1,3.54-6.76,10.22-11.16,25.66-16.55,17.65-6.17,35.77-5.68,35.77-5.68S393,406.16,410.92,411.5Z"/><path class="cls-4" d="M414.5,413.9c15.56,5,22.34,9.27,26,16,3,5.4,5.81,17.79,6,24,.53,14.5-7.48,51-21.11,63.13-13.86,12.38-81.63,12.38-95.49,0-13.63-12.16-21.63-48.63-21.11-63.13.22-6.18,3-18.57,6-24,3.7-6.68,10.48-10.92,26-16,17.8-5.75,35.9-4.84,35.9-4.84S396.7,408.15,414.5,413.9Z"/><path class="cls-5" d="M440.33,282.43l2.16,18.25L421.41,376h-92.1l-22.52-75.57,2.64-18.74-17-36.82,51.24-20.58a20.33,20.33,0,0,0,12.75-18.87V192.65h38.48v12.53a20.35,20.35,0,0,0,13.31,19.09l51.37,18.93Z"/><path class="cls-1" d="M502.48,357.74l2.85,2.88a12.72,12.72,0,0,0,17.76.53h0a14,14,0,0,0,2.64-16.94l-2.75-5s-52.39-112.79-77.15-95.34h0c-9,6.36-15.05,20.35-8.46,29.55Z"/><path class="cls-1" d="M302.4,319.9,274,371.71l-2.26,3.52c-3.92,6.09-10.76,3.62-17.14.2h0c-5.79-3.11-9.71-5.32-7.85-11.63l1.65-5.6s14.5-40.54,17.71-54.5c3.93-17.11,9.63-69.57,39.37-58.14h0c10.85,4.17,20.4,16.6,15.78,27.26Z"/><path class="cls-5" d="M356.45,192.83h38.41v10.59h0c-8.63,11-14.32,15.83-20.85,15.77-4.93,0-12.65-9.72-17.64-13.57l.08-1.93Z"/><path class="cls-1" d="M525.12,344h0a17.31,17.31,0,0,1,1,15.47,9.56,9.56,0,0,1-.64,1.48c-4.88,6.59-17.72,15.88-24.33,19.71-15.36,8.9-64.53,30.42-64.53,30.42h0c-3.64.91-7.28-1.75-8.33-6.08l-.23-1c-1-4,.57-8.23,3.66-10,.56-.32,1.07-.63,1.44-.89,6.63-4.49,47.51-37.31,56.33-43.53,5.16-3.64,16.64-8.47,22.55-9.72C515.37,339.13,522.73,340.05,525.12,344Z"/><path class="cls-6" d="M263.21,379.53h0A15.22,15.22,0,0,0,275,368.62a9.19,9.19,0,0,0,.46-1.68c.2-9.21-4.94-27.31-8.26-35.9-7.71-20-37.3-78.56-37.3-78.56h0A8.88,8.88,0,0,0,218.07,250l-.89.53a8.89,8.89,0,0,0-3.73,10.79c.28.73.52,1.4.69,1.92,2.87,9.11,17,69.2,20.61,81.52,2.13,7.2,9.18,20.73,13.67,26.76C250.93,374.85,258.28,380.48,263.21,379.53Z"/><path class="cls-6" d="M431.62,394.12c2-1.48,5.84-2.4,9.94,1.36,0,0,9.48,7.7,9.48,13.53,0,20.63,30.8,26.7,29.68,29.06-3.3,7-11-1.21-38.66-6.9-2.6-.54-9-9.23-9.71-11.79-.74-2.82-3.2-7-3.28-9.93a42.87,42.87,0,0,0-.56-4.74C427.9,400.81,428.85,396.14,431.62,394.12Z"/><path class="cls-6" d="M230.84,258.4s9.86-12.71,10.41-15.2,1.3-13.44,2.09-15.25,8.07-11.68,6.75-12.35-6.7-2.56-6.7-2.56l-7,7.49-3.75,11.66-6.24-18.37s-4.09-25.63-4-27.2-7.12-1.64-7.12-1.64l3.1,31.71L206.58,183.9l-7.35,2.64,12.52,34.82-18.27-32.75L188,194.4,203.33,224,186.8,205.14s-5,5.22-3.73,6.68S197.16,232,197.16,232l11,28.51,6.74,3.68Z"/><path class="cls-7" d="M281.34,244.88l27.5,60.84L271.7,378.46a16.76,16.76,0,0,1-26.79,4.21L218.82,356.5l-35.95-4.42,38.39-50.21,23.1-32.58h.48l15.38,34.41Z"/><polygon class="cls-7" points="434.9 287.44 480.59 339.91 433.19 393.09 452.72 433.71 489.42 474.24 510.52 402.87 533.84 351.2 469.6 245.41 454.3 237.65 434.9 287.44"/><polyline class="cls-8" points="281.34 244.88 335.73 220.64 269.79 224.02 332.93 180.99 349.34 220.39 372.82 251.46 400.79 220.04 415.3 164.49 448.97 219.97 414.95 218.32 462.25 241.45 442.5 300.68 434.9 378.95 446.71 456.32 291.62 477.77 318.18 347.77 308.84 305.72"/><path class="cls-4" d="M614.68,552.88c15.67,4.67,22.55,8.75,26.4,15.34,3.12,5.33,6.23,17.65,6.6,23.82.86,14.48-6.29,51.12-19.63,63.61-13.57,12.69-81.31,14.28-95.46,2.23C518.68,646,509.82,609.77,510,595.26c.08-6.18,2.61-18.63,5.48-24.1C519,564.39,525.7,560,541.13,554.6c17.66-6.16,35.78-5.68,35.78-5.68S596.76,547.55,614.68,552.88Z"/></g></svg>