<svg id="Calque_9" data-name="Calque 9" xmlns="http://www.w3.org/2000/svg" viewBox="0 0 188 259.02"><defs><style>.cls-1{fill:#d68f72;}.cls-2{fill:#b9785c;}.cls-3{fill:#9f7038;}</style></defs><path class="cls-1" d="M92.94,84.07c23.91,0,43.28,11.2,43.28,45.61,0,46-27.44,79-43.28,79"/><path class="cls-2" d="M127.57,172.23l6.82-22.77s9.2-9.85,14.94-4.21c3.82,3.75-5.09,29-10,30C131,177,127.57,172.23,127.57,172.23Z"/><path class="cls-2" d="M61.17,172.23,53,147.74s-7.88-8.13-13.62-2.49c-3.82,3.75,5.09,29,10,30C57.71,177,61.17,172.23,61.17,172.23Z"/><path class="cls-1" d="M92.94,84.07c-23.9,0-43.28,11.2-43.28,45.61,0,46,27.45,79,43.28,79"/><path class="cls-3" d="M54.83,158.71l-8.1-9.26s-7.8-12.38-7.77-25c0-16,28.19-43.51,44-46.45a14.47,14.47,0,0,1,12.09,3.41s18.15-.6,23.6,1.73c24.73,10.57,29.74,28,29,39.7a81,81,0,0,1-6.28,25.31l-9,3-.51-19.22-12.14-9s-6.48-11-6.22-11,2.3,9.86,2.3,9.86-10.88.63-13.8-1.29c-2.1-1.38-5-8.88-5-8.88s-8.85,7.64-11.91,9.43c-3.52,2.06-11.15,2.77-11.15,2.77L75.21,111,65.3,124.35l-11,9Z"/></svg>