<svg id="Calque_9" data-name="Calque 9" xmlns="http://www.w3.org/2000/svg" viewBox="0 0 788 1005"><defs><style>.cls-1{fill:#d47e64;}.cls-2{fill:#ed9170;}</style></defs><path class="cls-1" d="M427.2,266.16l8.14-24.49s7.88-8.13,13.62-2.49c3.82,3.75-5.09,29-10,30C430.66,270.94,427.2,266.16,427.2,266.16Z"/><path class="cls-1" d="M360.8,266.16l-8.14-24.49s-7.88-8.13-13.62-2.49c-3.82,3.75,5.09,29,10,30C357.34,270.94,360.8,266.16,360.8,266.16Z"/><path class="cls-2" d="M393.94,178c-23.9,0-43.28,11.2-43.28,45.61,0,46,27.45,79,43.28,79s43.28-33.05,43.28-79C437.22,189.2,417.85,178,393.94,178Z"/></svg>