<svg id="Calque_9" data-name="Calque 9" xmlns="http://www.w3.org/2000/svg" viewBox="0 0 188 259.02"><defs><style>.cls-1{fill:#d47e64;}.cls-2{fill:#ed9170;}</style></defs><path class="cls-1" d="M127.2,169.39l8.14-24.5s7.88-8.12,13.62-2.48c3.82,3.75-5.09,29-10,30C130.66,174.16,127.2,169.39,127.2,169.39Z"/><path class="cls-1" d="M60.8,169.39l-8.14-24.5s-7.88-8.12-13.62-2.48c-3.82,3.75,5.09,29,10,30C57.34,174.16,60.8,169.39,60.8,169.39Z"/><path class="cls-2" d="M93.94,81.23c-23.9,0-43.28,11.19-43.28,45.61,0,46,27.45,79,43.28,79s43.28-33.06,43.28-79C137.22,92.42,117.85,81.23,93.94,81.23Z"/></svg>