<svg id="Calque_9" data-name="Calque 9" xmlns="http://www.w3.org/2000/svg" viewBox="0 0 188 259.02"><defs><style>.cls-1{fill:#d68f72;}.cls-2{fill:#b9785c;}.cls-3{fill:#a2753f;}.cls-4{fill:#b9461d;}.cls-5{fill:#dbd1c1;}</style></defs><path class="cls-1" d="M93.94,82.19c23.91,0,43.28,11.19,43.28,45.61,0,46-27.44,79-43.28,79"/><path class="cls-2" d="M127.2,170.35l8.14-24.5s7.88-8.13,13.62-2.49c3.82,3.75-5.09,29-10,30C130.66,175.12,127.2,170.35,127.2,170.35Z"/><path class="cls-2" d="M60.8,170.35l-8.14-24.5s-7.88-8.13-13.62-2.49c-3.82,3.75,5.09,29,10,30C57.34,175.12,60.8,170.35,60.8,170.35Z"/><path class="cls-1" d="M93.94,82.19c-23.9,0-43.28,11.19-43.28,45.61,0,46,27.45,79,43.28,79"/><path class="cls-1" d="M68.87,78.45c-.35-.71,21.9-9.91,21.9-9.91l4.31-.71,1.57.59s8.82,2.35,9.32,4.72S108,88,108,88l-7.71,1.58L94,87.29s-8.08,0-9.68-.69S68.87,78.45,68.87,78.45Z"/><path class="cls-3" d="M93.83,85.87a13.63,13.63,0,0,1-1,1.47C84.2,98.55,54.6,106.51,51.66,119.19c-3.07,13.22,1.55,26.66,1.55,26.66s-5.59-3.79-6-3.92S23.39,91.63,68,71.51c20.06-9,25.79-3.2,25.79-3.2a1.64,1.64,0,0,0,.26.57C95.31,70.82,100.16,75.05,93.83,85.87Z"/><path class="cls-3" d="M139.91,143.31c-.38.14-5.52,3.93-5.52,3.93s4.24-13.45,1.42-26.67S103.59,99.29,97,87.34a14.34,14.34,0,0,0,.92-1.47c5.83-10.82,1.36-15.05.24-17,2.43-1.22,8.88-2.68,22.55,4C161.86,93,140.29,143.17,139.91,143.31Z"/><path class="cls-4" d="M43.1,130.48c1.72-.34,51.78-55.23,102.8-16.47,6,4.54,4-38.31-34.19-61.21-14-8.41-60.13-34.35-92.31-14.1C6.7,46.7.9,90.73,11,103.88S20,71.5,29.41,82.19,35.12,132.05,43.1,130.48Z"/><rect class="cls-5" x="3.5" y="106.15" width="20.77" height="20.77" rx="10.39"/></svg>