<svg id="Calque_9" data-name="Calque 9" xmlns="http://www.w3.org/2000/svg" viewBox="0 0 788 1005"><defs><style>.cls-1{fill:#d68f72;}.cls-2{fill:#b9785c;}.cls-3{fill:#a2753f;}</style></defs><path class="cls-1" d="M392.94,180.85c23.91,0,43.28,11.19,43.28,45.61,0,46-27.44,79-43.28,79"/><path class="cls-2" d="M426.2,269l8.14-24.5s7.88-8.13,13.62-2.49c3.82,3.75-5.09,29-10,30C429.66,273.78,426.2,269,426.2,269Z"/><path class="cls-2" d="M359.8,269l-8.14-24.5S343.78,236.38,338,242c-3.82,3.75,5.09,29,10,30C356.34,273.78,359.8,269,359.8,269Z"/><path class="cls-1" d="M392.94,180.85c-23.9,0-43.28,11.19-43.28,45.61,0,46,27.45,79,43.28,79"/><path class="cls-3" d="M352.05,251.9l-8.26-5.4s-1.57-47.56-1.54-59.59c.05-15.22,22.55-5.51,38.85-8.31,7.44-1.27,11.41-.52,11.41-.52s16.05,2.31,22.07,1.65c23.91-2.64,27.91-2.16,27.15,9-.87,12.72-.52,56.56-.52,56.56l-9.32,2.89-.52-18.26-2.6-7.68s-5.77-13.32-5.51-13.32S412,212.32,412,212.32s-15-7.9-18-9.73c-2.16-1.31-9.05,4.08-9.05,4.08s-5.82-6.93-9.45-6.93c-2.63,0-.79,7.87-.79,7.87l-16.42,1.57-1.86,12.24-4.86,9.79Z"/></svg>