<svg id="Calque_9" data-name="Calque 9" xmlns="http://www.w3.org/2000/svg" viewBox="0 0 788 1005"><defs><style>.cls-1{fill:#b9785c;}.cls-2{fill:#d68f72;}.cls-3{fill:#a2753f;}</style></defs><path class="cls-1" d="M427.2,268.87l8.14-24.49s7.88-8.13,13.62-2.49c3.82,3.75-5.09,29-10,30C430.66,273.65,427.2,268.87,427.2,268.87Z"/><path class="cls-1" d="M360.8,268.87l-8.14-24.49s-7.88-8.13-13.62-2.49c-3.82,3.75,5.09,29,10,30C357.34,273.65,360.8,268.87,360.8,268.87Z"/><path class="cls-2" d="M393.94,180.71c-23.9,0-43.28,11.2-43.28,45.61,0,46,27.45,79,43.28,79s43.28-33,43.28-79C437.22,191.91,417.85,180.71,393.94,180.71Z"/><path class="cls-3" d="M352.66,244.38l2.92-22.49,17.93-7.95,10.1-24.1,26,3.66,12.29-3.66-6.31,7.36,16.84,16.27,2.92,30.91s5.35-2.59,6.73-4.48,12.57-36.72,12.57-36.72l-17.42-19.24H430.7l-11.37-21.36-47-8L319.19,199.5,339,241.89l7.16-.45Z"/></svg>