<svg id="Calque_9" data-name="Calque 9" xmlns="http://www.w3.org/2000/svg" viewBox="0 0 788 1005"><defs><style>.cls-1{fill:#d68f72;}.cls-2{fill:#b9785c;}.cls-3{fill:#a2753f;}</style></defs><path class="cls-1" d="M394.94,177.89c23.91,0,43.28,11.19,43.28,45.61,0,46-25.28,79-43.28,79"/><path class="cls-1" d="M394.94,177.89c-23.9,0-43.28,11.19-43.28,45.61,0,46,26.34,79,43.28,79"/><path class="cls-2" d="M428.2,266.05l8.14-24.5s7.88-8.13,13.62-2.49c3.82,3.75-5.09,29-10,30C431.66,270.82,428.2,266.05,428.2,266.05Z"/><path class="cls-2" d="M359.8,266.05l-5.12-22.47s-10.9-10.16-16.64-4.52c-3.82,3.75,5.09,29,10,30C356.34,270.82,359.8,266.05,359.8,266.05Z"/><path class="cls-3" d="M353,242.59c-2-3.35-12.6-51.72,24.49-63.48s53.16,13.49,53.16,13.49,14.66,19.67,6.8,49.45c0,0-1.87-15.89-7.25-28.12s-2-14.62-1.89-15.64-34.64-3.4-34.64-3.4-30.91-.69-30.28.68C365.38,199.82,353,242.59,353,242.59Z"/></svg>