<svg id="Calque_9" data-name="Calque 9" xmlns="http://www.w3.org/2000/svg" viewBox="0 0 788 1005"><defs><style>.cls-1{fill:#d47e64;}.cls-2{fill:#ed9170;}.cls-3{fill:#a2753f;}</style></defs><path class="cls-1" d="M439.29,272.43a13.35,13.35,0,0,1-9-.85,119.54,119.54,0,0,0,6.27-27.53c2.25-1.93,8.14-6.11,12.69-1.64C453.07,246.16,444.16,271.41,439.29,272.43Z"/><path class="cls-2" d="M394.23,181.23v-.1c-23.9,0-43.28,11.2-43.28,45.61a149,149,0,0,0,1.83,23.67,115.32,115.32,0,0,0,5.07,20.18c7.71,21.7,21.12,35.17,36.38,35.17v.1c15,0,28.31-13.1,36.06-34.28a119.54,119.54,0,0,0,6.27-27.53,153.47,153.47,0,0,0,.95-17.21C437.51,192.43,418.14,181.23,394.23,181.23Z"/><path class="cls-1" d="M357.85,269.3c-1.66,1.29-5,3-10.56,1.84-4.87-1-13.78-26.27-10-30,5.74-5.64,13.62,2.49,13.62,2.49l1.83,5.51A115.32,115.32,0,0,0,357.85,269.3Z"/><path class="cls-3" d="M352.78,250.41l-10.1-10,1.91-75.11,101.14-2.64s-1.57,77.51-2.31,77.75-6.86,3.63-6.86,3.63-2.42-38.17-4.7-38.78-31.26,1.14-35.67.33c-5.67-1-41.32-1.82-41.32-1.82Z"/></svg>