<svg xmlns="http://www.w3.org/2000/svg" xmlns:xlink="http://www.w3.org/1999/xlink" viewBox="0 0 188 259.02"><defs><style>.cls-1,.cls-14{fill:none;}.cls-2{fill:#a2753f;}.cls-3{fill:#d68f72;}.cls-4{fill:#b9785c;}.cls-5{clip-path:url(#clip-path);}.cls-6{fill:#6d3b25;}.cls-7{clip-path:url(#clip-path-2);}.cls-8{clip-path:url(#clip-path-3);}.cls-9{fill:#fff;}.cls-10{clip-path:url(#clip-path-4);}.cls-11{clip-path:url(#clip-path-5);}.cls-12{fill:#050505;}.cls-13{clip-path:url(#clip-path-6);}.cls-14{stroke:#6d3b25;stroke-linecap:round;stroke-miterlimit:10;stroke-width:2px;}.cls-15{fill:#4c2a33;}.cls-16{fill:#261e1a;}.cls-17{fill:#281e1b;}</style><clipPath id="clip-path"><polygon class="cls-1" points="105.47 124.77 105.47 124.77 128.91 124.77 128.91 131.89 105.47 131.89 105.47 124.77"/></clipPath><clipPath id="clip-path-2"><polygon class="cls-1" points="82.72 124.77 82.72 124.77 59.29 124.77 59.29 131.89 82.72 131.89 82.72 124.77"/></clipPath><clipPath id="clip-path-3"><polygon class="cls-1" points="106.83 138.22 106.83 138.22 121.89 138.22 121.89 152.73 106.83 152.73 106.83 138.22"/></clipPath><clipPath id="clip-path-4"><polygon class="cls-1" points="81.37 138.22 81.37 138.22 66.3 138.22 66.3 152.73 81.37 152.73 81.37 138.22"/></clipPath><clipPath id="clip-path-5"><polygon class="cls-1" points="109.26 141.5 109.26 141.5 119.33 141.5 119.33 151.58 109.26 151.58 109.26 141.5"/></clipPath><clipPath id="clip-path-6"><polygon class="cls-1" points="78.94 141.5 78.94 141.5 68.86 141.5 68.86 151.58 78.94 151.58 78.94 141.5"/></clipPath></defs><g id="Calque_9" data-name="Calque 9"><ellipse class="cls-2" cx="94.1" cy="125.45" rx="50" ry="48"/><path class="cls-3" d="M93.94,83.59c23.91,0,43.28,11.2,43.28,45.61,0,46-27.44,79-43.28,79"/><path class="cls-4" d="M127.2,171.76l8.14-24.5s7.88-8.13,13.62-2.49c3.82,3.75-5.09,29-10,30C130.66,176.53,127.2,171.76,127.2,171.76Z"/><path class="cls-4" d="M60.8,171.76l-8.14-24.5s-7.88-8.13-13.62-2.49c-3.82,3.75,5.09,29,10,30C57.34,176.53,60.8,171.76,60.8,171.76Z"/><path class="cls-3" d="M93.94,83.59c-23.9,0-43.28,11.2-43.28,45.61,0,46,27.45,79,43.28,79"/><g class="cls-5"><path class="cls-6" d="M127.79,131.89a1.12,1.12,0,0,1-.44-.09,47.85,47.85,0,0,0-7.19-2.35c-7.86-1.78-8.37-.54-11.09,0a4.93,4.93,0,0,1-3.09-.78c-.4-.47-.75-2.14-.28-2.54.2-.18,3.71-2.57,12.72-.53,3.75.85,9.66,4.08,9.81,4.15a1.12,1.12,0,0,1-.44,2.15Z"/></g><g class="cls-7"><path class="cls-6" d="M60.41,131.89a1.19,1.19,0,0,0,.44-.09A47.51,47.51,0,0,1,68,129.45c7.87-1.78,8.37-.54,11.09,0a4.94,4.94,0,0,0,3.1-.78c.39-.47.75-2.14.28-2.54-.21-.18-3.71-2.57-12.72-.53-3.75.85-9.66,4.08-9.81,4.15a1.12,1.12,0,0,0,.44,2.15Z"/></g><g class="cls-8"><ellipse class="cls-9" cx="114.36" cy="145.48" rx="7.53" ry="7.26"/></g><g class="cls-10"><ellipse class="cls-9" cx="73.84" cy="145.48" rx="7.53" ry="7.26"/></g><g class="cls-11"><circle class="cls-12" cx="114.29" cy="146.54" r="5.04"/></g><g class="cls-13"><circle class="cls-12" cx="73.9" cy="146.54" r="5.04"/></g><path class="cls-14" d="M87.83,165a50.36,50.36,0,0,0,7,1.35c1.65,0,7-1.73,7-1.73"/><ellipse class="cls-15" cx="93.91" cy="183.43" rx="10.3" ry="1.63"/><path class="cls-16" d="M53,145.82c-2-3.35-12.6-51.72,24.49-63.48s53.16,13.49,53.16,13.49,14.66,19.67,6.8,49.44c0,0-1.87-15.88-7.25-28.12s-2-14.61-1.89-15.63-34.64-3.4-34.64-3.4-30.91-.69-30.28.68C65.38,103.05,53,145.82,53,145.82Z"/><path class="cls-17" d="M37.17,124.41l.08.36A6,6,0,0,0,41.44,129l.36.08a4.52,4.52,0,0,0,2.39.11,4.58,4.58,0,0,0,2.23-.71,4.67,4.67,0,0,0,1.69-1.55,4.56,4.56,0,0,0,1.07-2l.21-1.6a5.83,5.83,0,0,0-.82-3L47.64,119A6,6,0,0,0,45,117.47l-.36-.08,4.19,4.19-.08-.36a4.48,4.48,0,0,0-1.08-2A4.56,4.56,0,0,0,46,117.63a4.48,4.48,0,0,0-2.23-.71,4.52,4.52,0,0,0-2.39.11l-1.44.6a6.09,6.09,0,0,0-2.15,2.16l-.6,1.43a6,6,0,0,0,0,3.19Z"/><path class="cls-17" d="M41.13,108l-.11.29,8.82-3.59,0,0,1.21.94a1.85,1.85,0,0,1-.14-.14l.94,1.21a.86.86,0,0,1-.1-.16l.61,1.43a.59.59,0,0,1,0-.19l.21,1.6a.81.81,0,0,1,0-.22,6.7,6.7,0,0,0-1.76-4.24,4.52,4.52,0,0,0-1.93-1.24,4.51,4.51,0,0,0-2.31-.52l-1.6.22a6,6,0,0,0-2.65,1.54l-.93,1.21a5.89,5.89,0,0,0-.82,3,.62.62,0,0,0,0,.13s0,.06,0,.09l.21,1.59a6.2,6.2,0,0,0,.67,1.64,6.79,6.79,0,0,0,2.42,2.46,5.84,5.84,0,0,0,3,.82,4.6,4.6,0,0,0,2.31-.51,4.62,4.62,0,0,0,1.93-1.24,6,6,0,0,0,1.54-2.65l.11-.29a5.77,5.77,0,0,0-2.15-6.31,4.47,4.47,0,0,0-2-1.07l-1.59-.22a6,6,0,0,0-3,.82l-1.22.94A6.07,6.07,0,0,0,41.13,108Z"/><path class="cls-17" d="M50.44,102.39c7.72,0,7.73-12,0-12s-7.73,12,0,12Z"/><path class="cls-17" d="M77,74.81V77a6.23,6.23,0,0,0,1.75,4.24A6.14,6.14,0,0,0,83,83a6.05,6.05,0,0,0,4.24-1.76A6.24,6.24,0,0,0,89,77V74.81a6.2,6.2,0,0,0-1.76-4.24,6,6,0,0,0-8.49,0A6.28,6.28,0,0,0,77,74.81Z"/><path class="cls-17" d="M116.77,78.34l0-.29-11.19,3c.07.14.14.27.22.4l.13.18c.35.45.69.93,1.07,1.36a4.38,4.38,0,0,0,1.93,1.24,5.39,5.39,0,0,0,4.62,0A4.38,4.38,0,0,0,115.45,83l.94-1.21a6,6,0,0,0,.82-3l-.21-1.6a6,6,0,0,0-1.55-2.65l-.12-.14.93,1.21a3,3,0,0,1-.34-.58L115,73.8a4.68,4.68,0,0,0-1.93-1.24,3.12,3.12,0,0,0-1.52-.41,4.63,4.63,0,0,0-2.39.11l-1.43.61-1.22.93a4.56,4.56,0,0,0-1.24,1.94,4.46,4.46,0,0,0-.51,2.31l0,.29a4.51,4.51,0,0,0,.52,2.31,6.18,6.18,0,0,0,5.48,3.69l1.59-.22A6,6,0,0,0,115,82.58l.94-1.21a6,6,0,0,0,.82-3Z"/><path class="cls-17" d="M127.45,78l-.38-.29a5.93,5.93,0,0,0-3-.82,6.7,6.7,0,0,0-4.25,1.76,6.07,6.07,0,0,0-1.54,2.65c0,.06,0,.12-.05.18L118,83.07v.09c0,.06,0,.11,0,.17l.22,1.6a.5.5,0,0,0,0,.12,20.15,20.15,0,0,0,.87,2l-.61-1.44a2.35,2.35,0,0,1,.14.45,5.8,5.8,0,0,0,5,4.3,4.66,4.66,0,0,0,2.4-.11,6,6,0,0,0,3.58-2.76l.61-1.43a6.16,6.16,0,0,0,0-3.19,5.05,5.05,0,0,0-.44-1.16c-.16-.38-.32-.75-.49-1.13l.61,1.44a1.31,1.31,0,0,1-.1-.32l.21,1.59a1.13,1.13,0,0,1,0-.26l-.22,1.6a1.21,1.21,0,0,1,.05-.18L121,88.07l.37.29a4.38,4.38,0,0,0,2.23.71,6.15,6.15,0,0,0,6-2.86,6,6,0,0,0,.61-4.62l-.61-1.44A6,6,0,0,0,127.45,78Z"/><path class="cls-17" d="M127.88,92.26c.37,1,.63,1.87,1.1,2.82a7,7,0,0,0,4.41,3.57,6,6,0,0,0,7.39-4.19,6.06,6.06,0,0,0-.61-4.62,6.21,6.21,0,0,0-3.59-2.76l-.16,0,1.43.61-.15-.09,1.21.94a1.6,1.6,0,0,1-.26-.26l.94,1.22a2.73,2.73,0,0,1-.29-.53l.6,1.44c-.17-.42-.28-.86-.45-1.29a6.66,6.66,0,0,0-2.75-3.58,4.53,4.53,0,0,0-2.23-.72,4.66,4.66,0,0,0-2.4.11,6,6,0,0,0-3.58,2.76,5.86,5.86,0,0,0-.61,4.62Z"/><path class="cls-17" d="M147.82,103.16l-.11-.3a6,6,0,0,0-1.54-2.64A4.43,4.43,0,0,0,144.24,99a4.51,4.51,0,0,0-2.31-.52,5.94,5.94,0,0,0-3,.82,6.81,6.81,0,0,0-2.29,2.27l-.15.25a7.67,7.67,0,0,0-.92,3.57c0,.53.05,1.06.06,1.59a6.19,6.19,0,0,0,1.75,4.24,6,6,0,0,0,8.49,0A6.22,6.22,0,0,0,147.6,107a16.09,16.09,0,0,1,0-1.7l-.22,1.59a2,2,0,0,1,.1-.42l-.6,1.43a1.23,1.23,0,0,1,.14-.25l-.94,1.21.07-.06-1.22.94.08-.06-8.82-3.59.11.3a6.4,6.4,0,0,0,2.76,3.59,6.11,6.11,0,0,0,4.62.6,6,6,0,0,0,3.59-2.75,6,6,0,0,0,.6-4.63Z"/><path class="cls-17" d="M135,105c7.72,0,7.73-12,0-12s-7.73,12,0,12Z"/></g><g id="Calque_10" data-name="Calque 10"><path class="cls-2" d="M49.37,138.2a12,12,0,0,1-2.07-.13,7.91,7.91,0,0,1-2-.72,12.51,12.51,0,0,1-2.19-1,11.17,11.17,0,0,1-2.4-2.09,26.4,26.4,0,0,1-2-2.46,7.67,7.67,0,0,1-.68-1.52c-.17-.49-.44-.87-.64-1.33s-.25-.89-.49-1.32-.52-.87-.76-1.32a10,10,0,0,1-.8-2.28,10.57,10.57,0,0,1-.53-2.06c-.09-1.12,0-2.29,0-3.41a12.77,12.77,0,0,1,.61-3.78c.24-.8.5-1.6.79-2.4s.64-1.37.94-2.06a4.28,4.28,0,0,1,1.15-1.7,3.14,3.14,0,0,1,3-.66,9.52,9.52,0,0,1,1.41.41,3.5,3.5,0,0,1,1.42,1.48,13.93,13.93,0,0,1,2.37,7.1c0,.6,0,1.59-.49,2s-1.44-.3-1.79-.79c-.54-.78-.95-1.68-1.42-2.5a9.94,9.94,0,0,1-.8-2.82,6.57,6.57,0,0,1-.24-1.25c0-.37,0-.75,0-1.12a5.88,5.88,0,0,0-.18-.81c-.07-.36,0-.68-.1-1-.29-1-2,3.49-2.3,2.5-.6-1.94.68-9.31.44-11.31a21.47,21.47,0,0,1,2.55-13.31c.53-.9,1.05-1.83,1.63-2.7a15.19,15.19,0,0,1,3.23-2.91,8,8,0,0,1,5.78-1.47A9.89,9.89,0,0,1,57.11,81,9.35,9.35,0,0,1,60,84.57a12,12,0,0,1,.76,5,8.5,8.5,0,0,1-1.65,5.25c-.62.76-1.4,1.4-2,2.15s-1.47,1.75-2.18,2.65c-.57.74-1,1.57-1.63,2.28-.47.55-1.31,1.49-2.14,1.48a3.55,3.55,0,0,1-2.34-1.71,13.43,13.43,0,0,1-1.67-5.93c-.29-2.4-.65-4.78.05-7.14a3.28,3.28,0,0,1,1.8-2.38,4.87,4.87,0,0,1,3.1-.29,6.06,6.06,0,0,1,2.83,1.49,6.55,6.55,0,0,0,1.27,1.15,6.37,6.37,0,0,1,1.7-1.61c.81-.68,1.68-1.22,2.52-1.85,1.22-.91,3-1.71,3.74-3.11a2.8,2.8,0,0,0,.23-1.46c-.07-.92-.3-1.89-.44-2.81a11.07,11.07,0,0,1-.12-2.93,15.08,15.08,0,0,1,2.38-5.22,6.22,6.22,0,0,1,2.44-2l2.92-1.24c1.48-.56,3-1.09,4.48-1.58a13.93,13.93,0,0,1,5.39-.72,8.09,8.09,0,0,1,3.74,2.08A19.13,19.13,0,0,1,88.05,69,7.46,7.46,0,0,1,90,74.38a11.06,11.06,0,0,1-1.12,3.37,13.93,13.93,0,0,1-2.55,3.71,8.94,8.94,0,0,1-3.77,1.91A7.47,7.47,0,0,1,78,83.32a10.78,10.78,0,0,1-3.09-2,6.52,6.52,0,0,1-2.59-3.81,5.39,5.39,0,0,1,.61-3.07,8.62,8.62,0,0,1,3.85-3.91,3.54,3.54,0,0,1,4,0,4.91,4.91,0,0,1,2.45,3.39,2.39,2.39,0,0,1-.76,2.29,19.5,19.5,0,0,1-4.83,2.63c-1.75.75-3.63,1.13-5.44,1.7A33.48,33.48,0,0,1,67.9,81.7c-1.87.33-3.18-.92-4.13-2.46a6.73,6.73,0,0,1-.56-2.9,10.48,10.48,0,0,1,1-4.31,10.93,10.93,0,0,1,1.94-3.46,12.11,12.11,0,0,1,1.48-1.29,17.5,17.5,0,0,1,3.74-2.54,18.05,18.05,0,0,1,6-1.16c1.91-.12,3.78.76,5.47,1.56A10.72,10.72,0,0,1,87.32,69a20,20,0,0,1,1.19,2.18c.46.95,1,1.84,1.5,2.77a10.29,10.29,0,0,0,1.93,2.74,5.26,5.26,0,0,1,.58.45c.23.28.2.7.54.91.45-.24.55-1,.67-1.49.21-.82.45-1.63.65-2.46a33,33,0,0,1,1.17-3.86,9.76,9.76,0,0,1,1.57-3,8.47,8.47,0,0,1,5.79-2.63,35.76,35.76,0,0,1,11.81.44,7.35,7.35,0,0,1,5.23,5.2,12.11,12.11,0,0,1,.55,3.48c0,1.41.2,2.8.19,4.21,0,1.94,0,3.88,0,5.82,0,2.23-1.93,3.9-3.86,4.69a11.24,11.24,0,0,1-5.87.42,13.33,13.33,0,0,1-5.41-2.5,8.62,8.62,0,0,1-3.08-3.21,9.71,9.71,0,0,1-1-4.1,8.94,8.94,0,0,1,1.54-4.16,5.48,5.48,0,0,1,3.35-2.42c3.6-1.07,6.86,1.91,9.06,4.41a8.61,8.61,0,0,1,2,4c.18.85.36,1.77-.34,2.42-.92.86-2.67,1-3.85,1a12.48,12.48,0,0,1-5.67-1.58,19.41,19.41,0,0,1-3.55-2.43,3,3,0,0,1-1.17-2c-.35-1.91.28-3.93.73-5.79.23-1,.49-1.91.77-2.85a6.82,6.82,0,0,1,.44-1.68c.9-1.49,4-1.65,5.55-1.48,3.8.41,6,3.58,7.33,6.86a17.74,17.74,0,0,1,1,3.51,7,7,0,0,0,.39,1.63c.38,0,.68-.53.92-.77a6.27,6.27,0,0,1,1.16-.89,11.69,11.69,0,0,1,4.38-1.73,16.29,16.29,0,0,1,5.61.34,12,12,0,0,1,6,4.09,18.61,18.61,0,0,1,1.89,2.36,12,12,0,0,1,1.33,3.42,20.91,20.91,0,0,1,.62,5.79,9.15,9.15,0,0,1-.83,3.1A6.28,6.28,0,0,1,139,96.62,5.75,5.75,0,0,1,134,98,13.5,13.5,0,0,1,128,94a16.07,16.07,0,0,1-4-6.5,2.48,2.48,0,0,1,1.29-3.22,9.08,9.08,0,0,1,2.91-.72,4.73,4.73,0,0,1,3.36.91,8.53,8.53,0,0,1,3.84,4.9,29.46,29.46,0,0,1,.93,6.49c0,1.12-.22,2.06-1.51,2.26a2.66,2.66,0,0,1-2.09-1c-.37-.38-1.31-1.37-1.18-2s1-.86,1.53-.79c1.61.2,2.51,2.08,2.87,3.44.14.53.57,1.5.33,2.06-.54,1.29-1.56-.91-1.68-1.31-.32-1-.74-2.47,0-3.42A4.35,4.35,0,0,1,139,93.59a8.73,8.73,0,0,1,5,2.08,19.59,19.59,0,0,1,4.89,5.61c.91,1.8.87,3.59,1,5.53.12,1.72.14,3.42.14,5.14a24.11,24.11,0,0,1-.36,5.23c-.52,2.37-1,4.79-2.9,6.5a5.79,5.79,0,0,1-4.32,1.65c-2-.2-3.3-2-4.26-3.56a18.74,18.74,0,0,1-2.86-9.46c-.05-2.56,1.06-5.71,3.38-7.08a2.38,2.38,0,0,1,2.68-.06,10.41,10.41,0,0,1,2.38,2c1.79,2.09,2.4,5.14,2.49,7.78,0,.94.21,1.88.16,2.82a13.86,13.86,0,0,1-3.35,7.78,3.75,3.75,0,0,1-1.94,1.33c-.63.06-.9-.57-1.17-1a7.85,7.85,0,0,1-1.11-4c0-1.7.14-4.28,2.09-5s3.15,1.75,3.59,3.22c.22.75.09,1.45.25,2.18a3.52,3.52,0,0,1,.15.86,2.44,2.44,0,0,1,.17-2,1.53,1.53,0,0,1,2.27-.21,4.65,4.65,0,0,1,1.63,2.25,11.83,11.83,0,0,1,.85,3.67c0,.81.05,1.67,0,2.48a20.25,20.25,0,0,1-.57,2.85,3.82,3.82,0,0,1-1.23,2.15,22.54,22.54,0,0,1-2,1.68c-1.08.72-2.94,1.29-3.43-.36a7.43,7.43,0,0,1-.17-2.16,13.52,13.52,0,0,1,0-1.8c0-.23.14-.44.18-.67a4.08,4.08,0,0,1,.12-.93,7.32,7.32,0,0,0,.65-1.93c.11-1,.49-2.46.1-3.46a11.38,11.38,0,0,1-.67-4.27c0-.59,0-1.2,0-1.8a5.6,5.6,0,0,0-.21-.83c-.07-.42.12-.74-.17-1.14"/><path class="cls-3" d="M93.94,83.59c23.91,0,43.28,11.2,43.28,45.61,0,46-27.44,79-43.28,79"/><path class="cls-4" d="M127.2,171.76l8.14-24.5s7.88-8.13,13.62-2.49c3.82,3.75-5.09,29-10,30C130.66,176.53,127.2,171.76,127.2,171.76Z"/><path class="cls-4" d="M60.8,171.76l-8.14-24.5s-7.88-8.13-13.62-2.49c-3.82,3.75,5.09,29,10,30C57.34,176.53,60.8,171.76,60.8,171.76Z"/><path class="cls-3" d="M93.94,83.59c-23.9,0-43.28,11.2-43.28,45.61,0,46,27.45,79,43.28,79"/><path class="cls-2" d="M53,145.82c-2-3.35-12.6-51.72,24.49-63.48s53.16,13.49,53.16,13.49,14.66,19.67,6.8,49.44c0,0-1.87-15.88-7.25-28.12s-2-14.61-1.89-15.63-34.64-3.4-34.64-3.4-30.91-.69-30.28.68C65.38,103.05,53,145.82,53,145.82Z"/><path class="cls-2" d="M59.39,88.46a9.26,9.26,0,0,1,2.69-6.76l.61-.4c.92-.49.76-.53-.47-.12l.81,0A2.48,2.48,0,0,1,61,80c.54.55,0,2.16.2-.71,0,.69-3.23.53.61.18l3,.82L64.39,80l2.15,2.16c.69,1.45-.42-1.13-.06-.91,1.08.68-3.39,2-1.13,2.28,3.22.43,6-3.06,6-6,0-3.59-2.77-5.57-6-6a9.72,9.72,0,0,0-9.56,4.58c-1.72,3-1.58,6.94-.45,10.18,3.55,10.11,16.34,3.14,17.56-4.72A10.59,10.59,0,0,0,57.52,70.42a20.2,20.2,0,0,0-10.13,18,6.12,6.12,0,0,0,6,6c3.11,0,6.17-2.75,6-6Z"/><path class="cls-2" d="M49.67,101.92c-3-3.93-7.48-4.64-11.35-1.29s-5.26,9-5.48,13.89c-.41,9.09,4.51,21.37,14,23.94,7.46,2,10.65-9.55,3.19-11.57-3.92-1.06-8-15.09-3.34-17.36l-4.62.6.5.17L39,107.54l.32.44c4.6,6.08,15,.11,10.37-6.06Z"/><path class="cls-2" d="M51,104.55c-1.42-2.7-.45-8.66.59-11.41a6.45,6.45,0,0,1,3.14-3.71c2.27-1.47,3.29-1,5.57.71,6.12,4.7,12.11-5.72,6.06-10.36-7.78-6-18.45-3.09-23.94,4.63-4.65,6.55-5.47,19.2-1.78,26.19s14,.78,10.36-6Z"/><path class="cls-2" d="M59.39,88.75c.09-2.88.79-9.33,4.43-9.93,2.5-.42,7.16,4.15,7.86,6.42,2.26,7.36,13.85,4.22,11.57-3.19C80.77,74,70.91,65.51,62.09,66.82c-10.43,1.54-14.4,12.74-14.7,21.93-.26,7.72,11.74,7.72,12,0Z"/><path class="cls-2" d="M72.16,78.23c1.16-5.5,7.6-2.81,10.85-1.17,4.19,2.12,7.4,5,6.47,10.24-1.34,7.55,10.22,10.79,11.57,3.19C103.16,78.61,97,69.87,86.26,65.4c-5.12-2.14-11.19-4-16.5-1.39-4.13,2-8.22,6.52-9.17,11-1.6,7.54,10,10.76,11.57,3.19Z"/><path class="cls-2" d="M88.06,80.72c1.12-4.1,9.62-9.1,13.45-7,4.67,2.5,1.79,10.12.37,13.62-2.9,7.16,8.71,10.27,11.57,3.19,4.14-10.19,3.49-23.95-8.45-28.4-10.35-3.86-25.65,5-28.51,15.43-2,7.47,9.54,10.65,11.57,3.2Z"/><path class="cls-2" d="M115.48,78.94c-.65.44-.62.51.08.23a4.31,4.31,0,0,1,1.72.45A3.57,3.57,0,0,1,120,82.14c.84,2.47,1,7.28-1.06,9.08-5.83,5.08,2.69,13.54,8.49,8.49,6.69-5.83,6.91-20.43,1-26.94-5.43-5.92-19.06-8.78-23.22.11-3.25,7,7.09,13.06,10.37,6.06Z"/><path class="cls-2" d="M137,85v-.13l-6,6,.57,0-4.24-1.75c2.22,2.27,4.6,8.73,2.19,11.43-5.14,5.74,3.32,14.26,8.48,8.48,4.44-5,5.45-11.14,3.57-17.52C140,86.21,137.18,79.37,131,78.83c-3.48-.3-5.67,3-6,6V85c-.36,3.22,3,6,6,6,3.53,0,5.64-2.77,6-6Z"/><path class="cls-2" d="M139.19,105.11C137.42,103.05,137,103,138,105l.44,1.46a14,14,0,0,1,.57,5.5c-.2,1.71-1.5,6.94-3,8.06-6.18,4.5-.2,14.92,6.06,10.36,6.08-4.42,9.46-13.64,9-21-.43-7.56-3.25-16.05-11.91-16.29-7.73-.22-7.72,11.78,0,12Z"/><path class="cls-2" d="M139.24,115.15c1,4.63-.2,11.12-3.86,14.45-5.72,5.2,2.78,13.67,8.49,8.48,6.86-6.23,8.76-17.42,6.94-26.12-1.58-7.55-13.15-4.36-11.57,3.19Z"/><path class="cls-2" d="M41.26,128.15a38.85,38.85,0,0,0,1.09,7.14,13.91,13.91,0,0,0,.44,1.43c-.07-.2.84,2.09.52,1.26.24.63.45,1.26.72,1.88.62,1.4.4,1.73.15-.62.34,3.22,2.5,6,6,6,3,0,6.35-2.76,6-6a11.58,11.58,0,0,0-1.11-4.08c-.39-.78.33.88-.08-.08a23.6,23.6,0,0,1-.94-2.29c-.13-.43-.31-1.51-.42-2.16a18.05,18.05,0,0,0-.24-1.81c0-.15-.2-1.49-.13-.67-.27-3.23-2.57-6-6-6-3,0-6.27,2.75-6,6Z"/></g></svg>