<svg id="Calque_9" data-name="Calque 9" xmlns="http://www.w3.org/2000/svg" viewBox="0 0 188 259.02"><defs><style>.cls-1{fill:#d68f72;}.cls-2{fill:#b9785c;}</style></defs><path class="cls-1" d="M93.94,81.23c23.91,0,43.28,11.19,43.28,45.61,0,46-27.44,79-43.28,79"/><path class="cls-2" d="M127.2,169.39l8.14-24.5s7.88-8.12,13.62-2.48c3.82,3.75-5.09,29-10,30C130.66,174.16,127.2,169.39,127.2,169.39Z"/><path class="cls-2" d="M60.8,169.39l-8.14-24.5s-7.88-8.12-13.62-2.48c-3.82,3.75,5.09,29,10,30C57.34,174.16,60.8,169.39,60.8,169.39Z"/><path class="cls-1" d="M93.94,205.86c-15.83,0-43.28-33.06-43.28-79,0-34.42,19.38-45.61,43.28-45.61"/></svg>