<svg id="Calque_9" data-name="Calque 9" xmlns="http://www.w3.org/2000/svg" viewBox="0 0 788 1005"><defs><style>.cls-1{fill:#d68f72;}.cls-2{fill:#b9785c;}.cls-3{fill:#a2753f;}</style></defs><path class="cls-1" d="M392.94,180.85c23.91,0,43.28,11.19,43.28,45.61,0,46-27.44,79-43.28,79"/><path class="cls-2" d="M427.57,269l6.82-22.78s9.2-9.85,14.94-4.21c3.82,3.75-5.09,29-10,30C431,273.78,427.57,269,427.57,269Z"/><path class="cls-2" d="M361.17,269,353,244.51s-7.88-8.13-13.62-2.49c-3.82,3.75,5.09,29,10,30C357.71,273.78,361.17,269,361.17,269Z"/><path class="cls-1" d="M392.94,180.85c-23.9,0-46.83,11.37-43.28,45.61,4.58,44,30,77.93,43.28,79"/><path class="cls-3" d="M353,244.51c-2-3.26-15-52,22-63.46s53.17,13.11,53.17,13.11,14.65,19.11,6.8,48c0,0-1.87-15.43-7.25-27.32s-2-14.2-1.89-15.19-34.64-3.3-34.64-3.3-30.92-.67-30.28.66C363,201.17,353,244.51,353,244.51Z"/><path class="cls-3" d="M427.91,197.57c-4.72,1.5,4,5.27,2.22-.46s3.37-25.52-6.09-28-47.85,7.84-57.18,15.39.1,7.07,1,7.51S427.91,197.57,427.91,197.57Z"/></svg>