<svg id="Calque_9" data-name="Calque 9" xmlns="http://www.w3.org/2000/svg" viewBox="0 0 188 259.02"><defs><style>.cls-1{fill:#d47e64;}.cls-2{fill:#ed9170;}.cls-3{fill:#a2753f;}</style></defs><path class="cls-1" d="M126.2,172.23l8.14-24.49s7.88-8.13,13.62-2.49c3.82,3.75-5.09,29-10,30C129.66,177,126.2,172.23,126.2,172.23Z"/><path class="cls-1" d="M59.8,172.23l-8.14-24.49s-7.88-8.13-13.62-2.49c-3.82,3.75,5.09,29,10,30C56.34,177,59.8,172.23,59.8,172.23Z"/><path class="cls-2" d="M92.94,84.07c-23.9,0-43.28,11.2-43.28,45.61,0,46,27.45,79,43.28,79s43.28-33,43.28-79C136.22,95.27,116.85,84.07,92.94,84.07Z"/><path class="cls-3" d="M52.05,155.13l-8.26-5.4s-1.57-47.56-1.54-59.59c0-15.22,22.55-5.51,38.85-8.31,7.44-1.27,11.41-.52,11.41-.52s16,2.31,22.07,1.65c23.91-2.65,27.91-2.16,27.15,9-.87,12.72-.52,56.56-.52,56.56l-9.32,2.89-.52-18.26-2.6-7.68S123,112.1,123.26,112.1,112,115.55,112,115.55s-15-7.9-18-9.73c-2.16-1.31-9,4.08-9,4.08S79.13,103,75.5,103c-2.63,0-.79,7.87-.79,7.87l-16.42,1.57-1.86,12.24-4.86,9.79Z"/></svg>