<?xml version="1.0" encoding="utf-8"?>
<!-- Generator: Adobe Illustrator 26.0.3, SVG Export Plug-In . SVG Version: 6.00 Build 0)  -->
<svg version="1.1" id="Calque_1" xmlns="http://www.w3.org/2000/svg" xmlns:xlink="http://www.w3.org/1999/xlink" x="0px" y="0px"
	 viewBox="0 0 788 1005.1" style="enable-background:new 0 0 788 1005.1;" xml:space="preserve">
<style type="text/css">
	.st0{fill:#3C3D4E;}
	.st1{fill:#C58C85;}
	.st2{fill:#2E858E;}
	.st3{fill:#1A1818;}
	.st4{fill:#E8E0BF;}
</style>
<polygon class="st0" points="215.6,510.3 215.7,510.3 215.6,510.2 "/>
<polygon class="st0" points="215.7,510.3 215.8,510.3 215.8,510.2 "/>
<polygon class="st0" points="215.6,510.3 215.7,510.3 215.6,510.2 "/>
<polygon class="st0" points="215.7,510.3 215.8,510.3 215.8,510.2 "/>
<polygon class="st0" points="215.2,510.7 215.3,510.6 215.2,510.6 "/>
<polygon class="st0" points="215.3,510.6 215.4,510.7 215.4,510.6 "/>
<polygon class="st0" points="215.2,510.7 215.3,510.6 215.2,510.6 "/>
<polygon class="st0" points="215.3,510.6 215.4,510.7 215.4,510.6 "/>
<path class="st0" d="M301.3,465.1l-6.3,71.3c0,0,11.4,152.2,11.4,153.8c0,0.5,0.4,4.6,0.8,9.6c1.1,12,11.1,21.1,23.1,21.1l0,0
	c11.3,0,17.2-4.3,19-15.5l2.5-15c0,0,9.5-83.5,8.3-85.5c-0.8-1.3,7.2-49.7,5.2-51.7s0.2-36.4,0.2-36.4v-42.2
	c0,0-37.6-48.9-38.5-48.9"/>
<path class="st1" d="M348.8,718.5c-0.2-0.9-7.2-39.6-18.5-39.6l0,0c-10.7,0-19.7,7.9-21.1,18.5l-0.9,7.2c0,0-4.9,66.6-3.9,68.1
	s19.7,116.3,19.7,119.1c0,6.5,5.1,11.8,11.6,12.2l0,0c7.6,0.4,8.7-4.2,7.8-11.7l12.8-126.7L348.8,718.5z"/>
<path class="st1" d="M335,879.3c-4.8-0.1-11.9,1.2-11.3,15.5c0.2,5-1.8,27.1-5.9,32.5c-1.1,1.5-1.9,5.7-5.4,8.3
	c-1.1,0.8-1.6,2.1-1.4,3.3l-1,5.4l33.9,1l10-6.7l-7-27.3l-2.4-17.8l-0.8-4.2C342.4,879.5,342.1,879.5,335,879.3z"/>
<path class="st2" d="M371.9,384.5h-32.6c-9.5,0-17.9,6.2-20.6,15.4L303,452.2c0,0-19,49.1-20.5,61.8c-6,49.6,18.2,241,19.5,259.6
	c1.5,21.4,14.1,80.7,16.4,91.1c0.2,0.9,1,1.5,1.9,1.5H345c1,0,1.8-0.7,1.9-1.7c1.6-11.1,10.4-73.7,10.9-96.1
	c0.3-16.3,7.7-174,11.5-210.3c1.1-10.1,4.1-43.5,4.1-43.5L371.9,384.5z"/>
<path class="st1" d="M397.3,718.5c0.2-0.9,7.2-39.6,18.5-39.6l0,0c10.7,0,19.7,7.9,21.1,18.5l0.9,7.2c0,0,4.9,66.6,3.9,68.1
	S422,889,422,891.7c0,6.5-5.1,11.8-11.6,12.2l0,0c-7.6,0.4-8.7-4.2-7.8-11.7l-12.7-126.7L397.3,718.5z"/>
<path class="st1" d="M411.1,879.3c4.8-0.1,11.9,1.2,11.3,15.5c-0.2,5,1.8,27.1,5.9,32.5c1.1,1.5,1.9,5.7,5.4,8.3
	c0.9,0.7,1.5,1.8,1.4,2.9c0,0.3,0,0.5,0,0.8l0.3,1.7c0.3,1.8-1,3.4-2.8,3.4l-29.6,0.9c-0.6,0-1.2-0.2-1.7-0.5l-7.5-5
	c-1-0.7-1.5-1.9-1.2-3.1l6.4-25.1c0-0.1,0-0.2,0.1-0.3l2.4-17.6c0-0.1,0-0.1,0-0.2l0.4-2.2c0.2-1.2,0.4-2.4,0.6-3.6
	C403.8,879.5,404.5,879.5,411.1,879.3z"/>
<path class="st2" d="M356.3,384.5h50.6c9.5,0,17.9,6.2,20.6,15.4l15.6,52.4c0,0,19,49.1,20.6,61.8c6,49.5-18.2,241-19.5,259.5
	c-1.5,21.5-14.3,81.4-16.4,91.2c-0.2,0.8-0.9,1.4-1.7,1.4H401c-0.9,0-1.6-0.6-1.7-1.5c-1.5-10.5-10.4-73.8-10.9-96.3
	c-0.3-16.3-7.7-174-11.5-210.3c-1.1-10.1-4.1-43.5-4.1-43.5L356.3,384.5z"/>
<path d="M217,510.6h0.1H217z"/>
<path d="M217.1,510.6L217.1,510.6L217.1,510.6z"/>
<path d="M217,510.6h0.1H217z"/>
<polygon class="st3" points="216.6,501.1 216.5,501.1 216.5,501 "/>
<polygon points="216.7,501 216.7,501.1 216.6,501.1 "/>
<polygon class="st3" points="216.6,501.1 216.5,501.1 216.5,501 "/>
<polygon points="216.7,501 216.7,501.1 216.6,501.1 "/>
<path class="st4" d="M331.2,904.8l-6.3-1.8c-1,0.4-2.5,5.6-2.8,6.8l-13,23.7c-1.1,3.2-2.4,9.3-0.1,11.8c4.7,5.3,10.1,9,16.5,8.4
	c1.7-0.2,29.5-5.5,30.2-14.3l0,0c0-0.7-3.3-10.2-3.3-10.2c-0.2-0.2-3-15-8.3-27.9l-3.6-2.8c-0.6-0.5-1.9,5.7-2.7,5.7l-5.8,0.4
	C331.7,904.6,331.4,904.7,331.2,904.8z"/>
<path class="st1" d="M344.6,895.7c0.5,7.1,8.5,32-8.4,36c-6.9,1.7-14.9-2.3-16-9.3c-1.2-7.3,3-17.2,5-26.1
	C326.6,889.3,344,888.6,344.6,895.7z"/>
<circle class="st2" cx="327.5" cy="930.1" r="8.7"/>
<path class="st4" d="M413.9,908.4l-5.8-0.4c-0.8,0-2.1-6.2-2.7-5.7l-3.6,2.8c-5.3,12.9-8.1,27.7-8.3,27.9c0,0-3.3,9.5-3.3,10.2l0,0
	c0.7,8.8,28.5,14.1,30.2,14.3c6.4,0.6,11.8-3.1,16.5-8.4c2.3-2.5,1-8.6-0.1-11.8l-13-23.7c-0.3-1.2-1.8-6.4-2.8-6.8l-6.3,1.8
	C414.4,908.6,414.1,908.5,413.9,908.4z"/>
<path class="st1" d="M420.6,900.2c2,8.9,6.2,18.8,5,26.1c-1.1,7-9.1,11-16,9.3c-16.9-4-8.9-28.9-8.4-36
	C401.8,892.5,419.2,893.2,420.6,900.2z"/>
<circle class="st2" cx="418.3" cy="934" r="8.7"/>
<path class="st4" d="M459.7,622.9l-78.9-10l-1.2-17.3c0,0,82.9-20.4,83.5-19.3S459.7,622.9,459.7,622.9z"/>
</svg>
