<?xml version="1.0" encoding="utf-8"?>
<!-- Generator: Adobe Illustrator 26.0.3, SVG Export Plug-In . SVG Version: 6.00 Build 0)  -->
<svg version="1.1" id="Layer_1" xmlns="http://www.w3.org/2000/svg" xmlns:xlink="http://www.w3.org/1999/xlink" x="0px" y="0px"
	 viewBox="0 0 588 605.7" style="enable-background:new 0 0 588 605.7;" xml:space="preserve">
<style type="text/css">
	.st0{fill:#BAA535;}
	.st1{fill:#9F6042;}
	.st2{fill:#C58C85;}
	.st3{fill:#B5B5B5;stroke:#7FADD5;stroke-width:0.25;stroke-miterlimit:10;}
	.st4{fill:#9C9C9C;}
	.st5{fill:none;}
	.st6{fill:#E5E5E5;stroke:#7FADD5;stroke-width:0.25;stroke-miterlimit:10;}
</style>
<path class="st0" d="M280.4,143.8v-43c0,0-32.8-49.8-33.6-49.8s-19.9,21.5-19.9,21.5l-2.5,18.6l-5.5,72.7c0,0,10,155.2,10,156.7
	c0,0.5,0.3,4.7,0.7,9.8c1,12.2,9.7,21.5,20.2,21.5l0,0c9.9,0,15-4.4,16.6-15.8l2.2-15.4c0,0,8.3-85.1,7.2-87.1
	c-0.7-1.4,6.3-50.7,4.5-52.7S280.4,143.8,280.4,143.8z"/>
<path class="st1" d="M265,357.3c-0.2-0.9-6.7-38.9-17.1-38.9l0,0c-9.9,0-18.2,7.8-19.5,18.2l-0.9,7.1c0,0-4.6,65.4-3.6,66.9
	s18.2,114.3,18.2,117c0,6.4,4.7,11.6,10.7,12l0,0c7,0.4,8-4.1,7.2-11.5l11.9-124.5L265,357.3z"/>
<path class="st2" d="M252.2,515.5c-4.4-0.1-11,1.2-10.5,15.2c0.2,4.9-1.6,26.6-5.5,32c-1.1,1.5-1.8,5.6-5,8.2c-1,0.8-1.5,2-1.3,3.3
	l-0.9,5.3l31.3,1l9.2-6.6l-6.5-26.8l-2.2-17.5l-0.7-4.1C259.1,515.6,258.8,515.6,252.2,515.5z"/>
<path class="st1" d="M286,38.6h-30.1c-8.8,0-15.1,0.9-21.4,12.4c0,0-9.7,15.6-11.9,21.4c-5.9,15.8-11.2,53.2-12.6,66.4
	c-5.5,51.3,14.4,189.8,14.4,189.8s-4,57.9-2.8,77.2c1.5,24.3,15.4,96.1,15.4,96.1h25.9c0,0,9.8-76,10.2-101.5
	c0.3-16.9-4.6-50.5-4.6-67.5c0.1-37.9,11.7-113.1,15.2-150.8c1-10.5,25.6-52.4,25.6-52.4L286,38.6z"/>
<path class="st3" d="M241.1,540.5l21-1.1c0,0,10,28.4,8.3,38c-0.7,3.8-5.2,10.8-8.3,13c-3.7,2.5-16.8,5.6-16.8,5.6
	s-17.2-9.2-19.8-14.2c-1.4-2.7,2-11.9,2-11.9l6.3-14.2L241.1,540.5z"/>
<path class="st4" d="M404.7,587.6c0,0,9.8,5,13.3,5.9c7.2,2,29.7,3.8,29.7,3.8v-9.7l-21.5-10.4L404.7,587.6"/>
<path class="st2" d="M352.2,357.2c0-0.9-0.8-39.6,9.4-41.8l0,0c9.7-2.1,19.3,3.8,22.5,13.7l2.2,6.8c0,0,16.8,63.1,16.1,64.7
	s3.7,115.9,4.1,118.6c1.2,6.3-2.4,12.4-8.2,14l0,0c-6.8,1.9-8.6-2.3-9.3-9.7l-35-119.6L352.2,357.2z"/>
<path class="st2" d="M394.4,509.4c4.3-1,11-1.1,13.1,12.7c0.7,4.9,6.6,25.7,11.4,30.2c1.3,1.2,2.8,5.1,6.4,7
	c1.1,0.6,1.8,1.7,1.9,2.9l1.9,5l-30.5,1.9l-10-9.5l1-17l-1.1-17.6l-0.1-4.2C387.7,511,388,511,394.4,509.4z"/>
<path class="st2" d="M236.6,42.4l22-3.5c8.6-2,55-4.4,59.1,4.4c0,0,4.3-11.6,44.9,78.1c20.9,46.1,25.6,198.3,25.6,198.3
	s14.2,55.8,16.5,75c2.9,24.2,0.1,115.4,0.1,115.4l-6.4,23.3c0,0-40.2-107.5-45.1-132.4c-3.3-16.5-4.5-50.6-7.5-67.1
	c-6.9-37.2-31.6-108.2-41.8-144.3c-2.8-10-25-52.4-25-52.4L236.6,42.4z"/>
<polygon class="st3" points="410,531.6 389.3,534.9 388.6,559.6 398.6,569.1 404.8,587.6 447.8,587.6 428.9,557.5 420,544.9 "/>
<polygon class="st2" points="389.3,534.9 413,571.6 435.4,574.8 424.8,551.8 410,531.6 "/>
<polygon class="st2" points="241.1,540.5 237.8,568.3 262.1,568.3 262.1,539.4 249.9,532.6 "/>
<path d="M132.1,140.4h0.1H132.1z"/>
<polygon points="132.2,140.4 132.3,140.4 132.3,140.4 "/>
<path d="M132.1,140.4h0.1H132.1z"/>
<polygon points="132.2,140.4 132.3,140.4 132.3,140.4 "/>
<path class="st5" d="M328.5,55.7c15.6,5,22.3,9.3,26,15.9c3,5.4,5.8,17.8,6,24c0.5,14.5-7.5,51-21.1,63.1
	c-13.9,12.4-81.6,12.4-95.5,0c-13.5-12.2-21.5-48.7-21-63.1c0.2-6.2,3-18.6,6-24c3.7-6.7,10.5-10.9,26-15.9
	c17.8-5.8,35.9-4.9,35.9-4.9S310.8,49.9,328.5,55.7z"/>
<path class="st6" d="M364,69.3c12,55,29.6,137.1,29.2,141.9c-8.7,97.8-117.5,314.7-117.5,314.7c-22.7,9.7-135.4,45.7-85.2-324.6
	c3.9-28.8,20-86.6,31.5-129.2c0,0,9.8-27.8,21.2-39s96.1-11.8,106.4-1.7S364,69.3,364,69.3z"/>
</svg>
