<?xml version="1.0" encoding="utf-8"?>
<!-- Generator: Adobe Illustrator 26.0.3, SVG Export Plug-In . SVG Version: 6.00 Build 0)  -->
<svg version="1.1" id="Calque_1" xmlns="http://www.w3.org/2000/svg" xmlns:xlink="http://www.w3.org/1999/xlink" x="0px" y="0px"
	 viewBox="0 0 788 1005.1" style="enable-background:new 0 0 788 1005.1;" xml:space="preserve">
<style type="text/css">
	.st0{fill:none;}
	.st1{fill:#BAA535;}
	.st2{fill:#C58C85;}
	.st3{fill:#3D3D3D;}
	.st4{fill:#21212D;}
	.st5{fill:#C60C4B;}
</style>
<g id="Calque_3">
	<path d="M228.3,509.3L228.3,509.3L228.3,509.3z"/>
	<polygon points="228.4,509.3 228.5,509.3 228.5,509.3 	"/>
	<path d="M228.3,509.3L228.3,509.3L228.3,509.3z"/>
	<polygon points="228.4,509.3 228.5,509.3 228.5,509.3 	"/>
	<path class="st0" d="M421.9,425.4c15.5,5,22.3,9.3,26,16c3,5.4,5.8,17.8,6,24c0.5,14.5-7.5,51-21.1,63.1
		c-13.9,12.4-81.6,12.4-95.5,0c-13.6-12.2-21.6-48.7-21-63.2c0.2-6.2,3-18.6,6-24c3.7-6.7,10.5-10.9,26-16
		c17.8-5.8,35.9-4.8,35.9-4.8S404.1,419.6,421.9,425.4z"/>
	<path class="st1" d="M375.4,516.6v-42.2c0,0-37.6-48.9-38.5-48.9s-22.8,21.1-22.8,21.1l-2.9,18.3l-6.2,71.3
		c0,0,11.4,152.2,11.4,153.8c0,0.5,0.4,4.6,0.8,9.6c1.1,12,11.1,21.1,23.1,21.1l0,0c11.3,0,17.2-4.3,19-15.5l2.5-15
		c0,0,9.5-83.5,8.3-85.5c-0.8-1.3,7.2-49.7,5.2-51.7S375.4,516.6,375.4,516.6z"/>
	<path class="st2" d="M358.7,718.3c-0.2-0.9-7.2-39.6-18.5-39.6l0,0c-10.7,0-19.7,7.9-21.1,18.5l-0.9,7.2c0,0-4.9,66.6-3.9,68.1
		S334,888.8,334,891.6c0,6.5,5.1,11.8,11.6,12.2l0,0c7.6,0.4,8.7-4.2,7.8-11.7l12.8-126.8L358.7,718.3z"/>
	<path class="st2" d="M344.9,879.2c-4.8-0.1-11.9,1.2-11.3,15.5c0.2,5-1.8,27.1-5.9,32.5c-1.1,1.5-1.9,5.7-5.4,8.3
		c-1,0.8-0.2,2.5,0,3.7l-0.1,4.3l31.6,1.8l4.3-7.4l-1.4-26.6l-2.4-17.8l-0.8-4.2C352.3,879.3,352,879.3,344.9,879.2z"/>
	<path class="st3" d="M334,909.9c1.7-3.3,4.9-5.4,8.6-5.6l3-0.2l3.8-0.2l0,0c5.5-0.3,10.3,3.9,10.7,9.5l1.8,24.4l0.1,3.7
		c0.1,2.9-2.2,5.2-5.1,5.2H326c-3.2,0-5.6-2.9-5-6l1-5.4c0.1-0.4,0.2-0.9,0.4-1.3l6.5-13.9L334,909.9z"/>
	<path class="st2" d="M407.2,718.3c0.2-0.9,7.2-39.6,18.5-39.6l0,0c10.7,0,19.7,7.9,21.1,18.5l0.9,7.2c0,0,4.9,66.6,3.9,68.1
		s-19.7,116.3-19.7,119.1c0,6.5-5.1,11.8-11.6,12.2l0,0c-7.6,0.4-8.7-4.2-7.8-11.7l-12.8-126.8L407.2,718.3z"/>
	<path class="st2" d="M421,879.2c4.8-0.1,11.9,1.2,11.3,15.5c-0.2,5,1.8,27.1,5.9,32.5c1.1,1.5-2.8,6.1,0.7,8.7
		c1.1,0.8,0.9,1.9,0.7,3.2v3.3l-27.5,2.8l-5.4-6.7l2.4-27.3l2.4-17.8l0.8-4.2C413.6,879.3,413.9,879.3,421,879.2z"/>
	<path class="st3" d="M419.8,902.9L419.8,902.9c-7.9-0.4-14.7,5.5-15.5,13.3l-2.1,20.3c0,0.4,0,0.9,0,1.3l0.2,2
		c0.3,3.1,2.9,5.4,6.1,5.4H438c5.9,0,10.4-5.3,9.3-11.1l0-0.2c-0.1-0.4-0.2-0.7-0.3-1.1c-0.1-0.3-0.3-0.5-0.4-0.7l-10.2-13.4
		l-3.9-7.8C429.9,906.2,425.1,903.2,419.8,902.9z"/>
	<path class="st4" d="M331.9,377.6c-9.2,4.9-15.7,13.7-17.8,23.9c-4.2,20.4-14.4,51.5-16.7,80c-10.7,136.4,17.2,424.1,33.3,402.7
		c62.2-82.6,109.9-73.8,181.4-143.5c42.6-41.5-10.7-167.5-29.6-214.8c-11.6-29-36.8-76.2-48.1-118.4c-4.5-16.8-10.3-31.4-27.7-31.4
		h-71.9L331.9,377.6z"/>
</g>
<path class="st2" d="M347.6,931.5L347.6,931.5c-4.5-3.8-10.6-5-16.2-3.1l-0.1,0c-0.9,0.3-1.9-0.5-1.8-1.5l4.4-35.4l22,14.2
	L347.6,931.5z"/>
<path class="st2" d="M418.1,931.5L418.1,931.5c4.5-3.8,10.7-5,16.3-3.1h0c1,0.3,1.9-0.5,1.8-1.5l-4.5-35.3l-22,14.2L418.1,931.5z"/>
<path class="st5" d="M435.7,925.4c-0.9,4.3-6.5,9.3-6.5,9.3s-6.8-2.8-9.3-6.5c-2.6-3.8,3.4-10.6,7.2-5.3
	C428.9,916.5,436.7,920.8,435.7,925.4z"/>
<path class="st5" d="M346.3,928.5c-2.4,3.7-9.4,6.4-9.4,6.4s-5.4-5.1-6.4-9.4c-1-4.5,7-8.7,8.6-2.3
	C343.1,917.7,348.8,924.6,346.3,928.5z"/>
</svg>
