<?xml version="1.0" encoding="utf-8"?>
<!-- Generator: Adobe Illustrator 26.0.3, SVG Export Plug-In . SVG Version: 6.00 Build 0)  -->
<svg version="1.1" id="Layer_1" xmlns="http://www.w3.org/2000/svg" xmlns:xlink="http://www.w3.org/1999/xlink" x="0px" y="0px"
	 viewBox="0 0 588 605.7" style="enable-background:new 0 0 588 605.7;" xml:space="preserve">
<style type="text/css">
	.st0{fill:#547A87;}
	.st1{fill:#2B2B2B;}
	.st2{fill:#111111;}
</style>
<rect x="210.5" y="481.5" class="st0" width="23.9" height="68.7"/>
<path class="st1" d="M222.5,531.8l-12,2.8l-7.6,22.4v7.2l-8.8,15.3c0,0,6,4.4,8.6,3.6c2.6-0.9,53.3-1.1,53.3-1.1v-5.2l-9.4-15.3
	l-7.6-23.8l-6.9-5.7h-9.5v-0.2H222.5z"/>
<rect x="342.1" y="485.3" class="st0" width="23.9" height="68.7"/>
<path class="st1" d="M354.1,535.3l12,2.8l7.6,22.4v7.2l8.9,15.3c0,0-5.4,3.7-8,2.7s-53.9-0.3-53.9-0.3v-5.2l9.4-15.4l7.6-23.8
	l6.9-5.7h9.4l0,0H354.1z"/>
<path class="st0" d="M206.8,111.5c0,2.7,0.7,171,0,173.7c-0.7,2.3-10.1,108.6-13.3,145.2c-0.7,8,0.2,16,2.8,23.6l15.2,45h23.1
	c0,0,12.1-27.2,18.4-41.2c2.4-5.3,3.7-11,3.9-16.9c0.9-29.9,3.8-126.4,5.7-134.8c3.1-13.5,21.1-185,21.1-185V46.5l-44.6-0.3
	c-14.7-0.1-10.5,12.6-12.1,28.3L206.8,111.5z"/>
<path class="st0" d="M369.1,170.8c0,2.8,0.6,109.9,1.4,112.8c0.7,2.3,16.5,100.7,22.2,136.5c1.3,8.5,0.2,17.1-3.1,25l-23.7,54.3
	l-23.7-2.6l-19-52.7c-2.5-6.9-3.6-14.1-3.4-21.4c0.9-28.8,3.4-104.6,4-106.3c0.8-2.1-30.3-198-30.3-198V46.9l45.1-0.3
	c14.8-0.1-8,15.1-6.4,30.7L369.1,170.8z"/>
<path class="st2" d="M201.1,575.6l-3.3-2.7l-3.8,6.6l3.8,2.8c1.3,1,3,1.5,4.7,1.5l53.4-2v-5.2l-49.2,1.1
	C204.7,577.6,202.6,576.9,201.1,575.6z"/>
<path class="st2" d="M320.6,580.2v5.2l52.6,2.4c1.6,0.1,3.3-0.4,4.7-1.4l4.7-3.4l-2.5-4.3l-3.7,3.1c-1.1,1-2.5,1.4-3.9,1.3
	L320.6,580.2z"/>
<path class="st1" d="M227.5,46c-7,0-13.1,4.9-14.4,11.8l-27.7,149.6c-1.5,9,5.4,17.2,14.5,17.2h175.5c9.1,0,16-8.2,14.5-17.2
	L357.1,57.2c-1.7-6.4-7.5-10.9-14.2-10.9L227.5,46z"/>
</svg>
