<?xml version="1.0" encoding="utf-8"?>
<!-- Generator: Adobe Illustrator 26.0.3, SVG Export Plug-In . SVG Version: 6.00 Build 0)  -->
<svg version="1.1" id="Calque_1" xmlns="http://www.w3.org/2000/svg" xmlns:xlink="http://www.w3.org/1999/xlink" x="0px" y="0px"
	 viewBox="0 0 788 1005.1" style="enable-background:new 0 0 788 1005.1;" xml:space="preserve">
<style type="text/css">
	.st0{fill:#547A87;}
	.st1{fill:#2B2B2B;}
	.st2{fill:#111111;}
</style>
<rect x="300.7" y="845.2" class="st0" width="23.9" height="68.7"/>
<path class="st1" d="M312.7,895.4l-12,2.8l-7.6,22.4v7.2l-8.8,15.3c0,0,6,4.4,8.6,3.6c2.6-0.9,53.3-1.1,53.3-1.1v-5.2l-9.4-15.3
	l-7.6-23.8l-6.9-5.7h-9.5v-0.2H312.7z"/>
<rect x="432.3" y="849" class="st0" width="23.9" height="68.7"/>
<path class="st1" d="M444.3,899l12,2.8l7.6,22.4v7.2l8.9,15.3c0,0-5.4,3.7-8,2.7s-53.9-0.3-53.9-0.3v-5.2l9.4-15.4l7.6-23.8l6.9-5.7
	h9.4l0,0H444.3z"/>
<path class="st0" d="M297,475.1c0,2.7,0.7,171,0,173.7c-0.7,2.3-10.1,108.6-13.3,145.2c-0.7,8,0.2,16,2.8,23.6l15.2,45h23.1
	c0,0,12.1-27.2,18.4-41.2c2.4-5.3,3.7-11,3.9-16.9c0.9-29.9,3.8-126.4,5.7-134.8c3.1-13.5,21.1-185,21.1-185v-74.5l-44.6-0.3
	c-14.7-0.1-10.5,12.6-12.1,28.3L297,475.1z"/>
<path class="st0" d="M459.3,534.5c0,2.8,0.6,109.9,1.4,112.8c0.7,2.3,16.5,100.7,22.2,136.5c1.3,8.5,0.2,17.1-3.1,25L456.1,863
	l-23.7-2.6l-19-52.7c-2.5-6.9-3.6-14.1-3.4-21.4c0.9-28.8,3.4-104.6,4-106.3c0.8-2.1-30.3-198-30.3-198v-71.4l45.1-0.3
	c14.8-0.1-8,15.1-6.4,30.7L459.3,534.5z"/>
<path class="st2" d="M291.3,939.3l-3.3-2.7l-3.8,6.6l3.8,2.8c1.3,1,3,1.5,4.7,1.5l53.4-2v-5.2l-49.2,1.1
	C294.9,941.3,292.8,940.6,291.3,939.3z"/>
<path class="st2" d="M410.8,943.9v5.2l52.6,2.4c1.6,0.1,3.3-0.4,4.7-1.4l4.7-3.4l-2.5-4.3l-3.7,3.1c-1.1,1-2.5,1.4-3.9,1.3
	L410.8,943.9z"/>
<path class="st1" d="M317.8,409.7c-7,0-13.1,4.9-14.4,11.8l-27.7,149.6c-1.5,9,5.4,17.2,14.5,17.2h175.5c9.1,0,16-8.2,14.5-17.2
	l-32.8-150.2c-1.7-6.4-7.5-10.9-14.2-10.9L317.8,409.7z"/>
</svg>
