<svg xmlns="http://www.w3.org/2000/svg" viewBox="0 0 788 1005"><defs><style>.cls-1{fill:#423632;}.cls-2{fill:#9e6754;}</style></defs><g id="Calque_9" data-name="Calque 9"><path class="cls-1" d="M472.24,718.08c.76,11-4.87,20.41-13.19,22.1h0c-8,1.61-16.1-4.32-19.44-14.17,0,0-21.83-70.62-26.76-96.49-1.16-6.12-2.91-24.77-2.91-24.77L406,561.3s-1-20.65,15.08-26.14c18.48-6.32,28.8,1.53,28.8,1.53s10.88,72.1,14.59,93.64C467.9,650.18,472.24,718.08,472.24,718.08Z"/><path class="cls-2" d="M351.25,708.87c-9.22.2-14.6,5.28-16,13.44,0,0-1.46,36.38-1.7,51.71C333.18,798.59,336,848.73,340,873c.88,5.3,2.76,21.33,2.76,21.33a8.91,8.91,0,0,0,9,8h0a8.92,8.92,0,0,0,8.23-8.65s.8-18.54,1.41-24.68c2.22-22.28,4.68-74,5.2-96.45.31-13.49,2.51-47.31,2.51-47.31-1-13.57-10-16.24-17.93-16.36Z"/><path class="cls-2" d="M456.44,701.23c9.12-1.34,5.24-18.58,7.76-10.62,0,0,17.7,132.42,20.09,147.78,3.84,24.62,7.4,47.48,7.4,47.48.07,4.9,4.47,10.52,0,11.06l-8.54-1.3c-4.39.52-9.78-1.46-10.71-6.15,0,0-19.16-94.52-22.83-116.94-2.21-13.49-8.54-51.87-8.54-51.87-.91-13.8,7.6-18,15.37-19.44Z"/><path class="cls-1" d="M349.53,885.87h0a10.93,10.93,0,0,0-9.62,6.64h0c-4,8.94-20.83,20.92-20.83,20.92A11.3,11.3,0,0,0,315.29,924h0l41.09-.24,2.31-.74a6.2,6.2,0,0,0,4.1-6.5l-2.36-21.7A11.09,11.09,0,0,0,349.53,885.87Z"/><path class="cls-1" d="M481.57,891.15c4.24-2.12,3.75-6.12,5.38-8.42,1-1.4,5.21-3.06,5.91-1.38,8.1,19.23,42.79,28.38,42.79,28.38,3.78,3.11,4.8,7.64,4.32,12.46h0s-28.36,8.15-45.67.46c-3.5-1.55-11.33-2.81-11.33-2.81s-14.52.56-13.92-5.37l1.17-26.72C471.11,881.29,474.29,894.79,481.57,891.15Z"/><rect class="cls-1" x="336.85" y="476.76" width="109.24" height="23.41"/><path class="cls-1" d="M316.39,866.11,362,864.23c-.48-4.35,26.24-261.13,26.24-261.13h0s37.33,115.17,40.61,123.73,10.32,139.28,10.32,139.28h27.64l29.06-3.33-22.15-142L472.31,708,449.89,536.69l-5.52-48.23s-103.82-17-103.82-6.2c0,14.65-11.81,91.7-12.31,111-1.59,60.9-11.85,272.89-11.85,272.89"/></g><g id="Calque_10" data-name="Calque 10"><path class="cls-1" d="M472.24,718.08c.76,11-4.87,20.41-13.19,22.1h0c-8,1.61-16.1-4.32-19.44-14.17,0,0-21.83-70.62-26.76-96.49-1.16-6.12-2.91-24.77-2.91-24.77L406,561.3s-1-20.65,15.08-26.14c18.48-6.32,28.8,1.53,28.8,1.53s10.88,72.1,14.59,93.64C467.9,650.18,472.24,718.08,472.24,718.08Z"/><path class="cls-2" d="M351.25,708.87c-9.22.2-14.6,5.28-16,13.44,0,0-1.46,36.38-1.7,51.71C333.18,798.59,336,848.73,340,873c.88,5.3,2.76,21.33,2.76,21.33a8.91,8.91,0,0,0,9,8h0a8.92,8.92,0,0,0,8.23-8.65s.8-18.54,1.41-24.68c2.22-22.28,4.68-74,5.2-96.45.31-13.49,2.51-47.31,2.51-47.31-1-13.57-10-16.24-17.93-16.36Z"/><path class="cls-2" d="M456.44,701.23c9.12-1.34,5.24-18.58,7.76-10.62,0,0,17.7,132.42,20.09,147.78,3.84,24.62,7.4,47.48,7.4,47.48.07,4.9,4.47,10.52,0,11.06l-8.54-1.3c-4.39.52-9.78-1.46-10.71-6.15,0,0-19.16-94.52-22.83-116.94-2.21-13.49-8.54-51.87-8.54-51.87-.91-13.8,7.6-18,15.37-19.44Z"/><path class="cls-1" d="M349.53,885.87h0a10.93,10.93,0,0,0-9.62,6.64h0c-4,8.94-20.83,20.92-20.83,20.92A11.3,11.3,0,0,0,315.29,924h0l41.09-.24,2.31-.74a6.2,6.2,0,0,0,4.1-6.5l-2.36-21.7A11.09,11.09,0,0,0,349.53,885.87Z"/><path class="cls-1" d="M481.57,891.15c4.24-2.12,3.75-6.12,5.38-8.42,1-1.4,5.21-3.06,5.91-1.38,8.1,19.23,42.79,28.38,42.79,28.38,3.78,3.11,4.8,7.64,4.32,12.46h0s-28.36,8.15-45.67.46c-3.5-1.55-11.33-2.81-11.33-2.81s-14.52.56-13.92-5.37l1.17-26.72C471.11,881.29,474.29,894.79,481.57,891.15Z"/><rect class="cls-1" x="337.85" y="476.76" width="109.24" height="23.41"/><path class="cls-1" d="M316.39,866.11,362,864.23c-.48-4.35,26.24-261.13,26.24-261.13h0s37.33,115.17,40.61,123.73,10.32,139.28,10.32,139.28h27.64l29.06-3.33-22.15-142L472.31,708,449.89,536.69l-5.52-48.23s-103.82-17-103.82-6.2c0,14.65-11.81,91.7-12.31,111-1.59,60.9-11.85,272.89-11.85,272.89"/></g></svg>