<svg id="Calque_9" data-name="Calque 9" xmlns="http://www.w3.org/2000/svg" viewBox="0 0 488 455.71"><defs><style>.cls-1{fill:#9e6754;}.cls-2{fill:#434d4e;}.cls-3{fill:#3d5760;}.cls-4{fill:#42626b;}.cls-5{fill:#4e6566;}.cls-6{fill:#66725b;}</style></defs><path class="cls-1" d="M184.37,251.16c1.21,10.93,8.45,19.21,16.94,19.37h0c8.12.17,15.06-7.13,16.58-17.42,0,0,8.81-73.39,9-99.72,0-6.23-1.58-24.89-1.58-24.89L221.39,85s-2.75-20.48-19.52-23c-19.32-2.9-19.65,10.51-19.65,10.51s-6.18,69-6,90.9C176.46,183.59,184.37,251.16,184.37,251.16Z"/><path class="cls-1" d="M322.24,243c.76,11-4.87,20.4-13.19,22.09h0c-8,1.62-16.1-4.32-19.44-14.17,0,0-21.83-70.61-26.76-96.48-1.16-6.12-2.91-24.77-2.91-24.77L256,86.23s-1-20.64,15.08-26.13c18.48-6.32,21.22,6.81,21.22,6.81s18.46,66.82,22.17,88.36C317.9,175.12,322.24,243,322.24,243Z"/><path class="cls-1" d="M201.25,233.8c-9.22.2-14.6,5.29-16,13.44,0,0-1.46,36.39-1.7,51.72-.38,24.57,2.47,74.71,6.47,98.93.88,5.3,2.76,21.33,2.76,21.33a8.92,8.92,0,0,0,9,8h0a8.93,8.93,0,0,0,8.23-8.66s.8-18.53,1.41-24.68c2.22-22.27,9.49-66.55,10-89,.31-13.49-2.3-54.79-2.3-54.79-1-13.57-10-16.24-17.93-16.37Z"/><path class="cls-1" d="M306.44,226.17c9.12-1.35,15.14,2.86,17.66,10.82,0,0,7.51,34.32,9.9,49.68,3.84,24.61,3.37,122,3.37,122,.07,4.89.24,11.39-4.22,11.92h0c-4.39.52-9.78-1.47-10.71-6.16,0,0-22.24-91-25.91-113.38-2.21-13.5-5.46-55.42-5.46-55.42-.91-13.8,7.6-18,15.37-19.44Z"/><path class="cls-2" d="M213.33,393.82l-24.21-2.05c-4.13.1-11.1,18.14-12.87,22.11l13.66,3.57c-4,8.94-20.83,20.91-20.83,20.91a11.31,11.31,0,0,0-3.79,10.6h0l41.09-.24,2.31-.75a6.18,6.18,0,0,0,4.1-6.49l-2.36-21.7C209.25,414.42,214.91,394.16,213.33,393.82Z"/><path class="cls-3" d="M166.47,448.74h0a6.47,6.47,0,0,1,5.13-7.5L196,437.32a6.13,6.13,0,0,1,6.86,4.9l1.41,6.16Z"/><path class="cls-2" d="M314.61,391.77c4.14-2.31,24.6-9.82,27.39-7,9.64,9.77,11.57,18.25,11.57,18.25l-10.71,3.26c8.1,19.24,42.79,28.39,42.79,28.39,3.78,3.11,4.8,7.63,4.32,12.46h0s-29.75,11-45.67.46c-3.19-2.11-11.33-2.81-11.33-2.81s-14.52.55-13.92-5.37l1.17-26.72C314.2,393.82,312.52,392.94,314.61,391.77Z"/><path class="cls-4" d="M390.32,447.06c.23-7.83-3.45-12.53-4.61-12.28-1.69.37-4.32,2.31-6,2.77-2.65.74-10.82.34-10.82.34-2.09-.16-3.7,2.6-3.7,6.36l.2,7.49s5,.6,16.63-2.28C384,449,390.32,447.06,390.32,447.06Z"/><rect class="cls-5" x="185.04" y="3.68" width="115.32" height="23.41"/><path class="cls-6" d="M132,313.14l51.45,47.77,29.28,2.27,24.71-12.9,14.39-79.74,34.42,82.73,31.22,20.51s5,3,22.82-17.23c26.34-29.79,36.08-46.21,36.08-46.21L300.76,32.4l-2.05-11.7L184,22.28Z"/><polygon class="cls-6" points="182.72 356.96 217.91 355.28 213.33 387.79 187.16 383.24 182.72 356.96"/><path class="cls-6" d="M306.09,351.38l32.13-13.46c1.26-1.86.31,38.7.31,38.7L315,383.24Z"/></svg>