<svg id="Calque_9" data-name="Calque 9" xmlns="http://www.w3.org/2000/svg" viewBox="0 0 488 480.49"><defs><style>.cls-1{fill:#d68f72;}.cls-2{fill:#5b5655;}.cls-3,.cls-4{fill:none;stroke-linecap:round;stroke-miterlimit:10;stroke-width:2px;}.cls-3{stroke:#69a;}.cls-4{stroke:#6399aa;}.cls-5{fill:#8e858b;}</style></defs><path class="cls-1" d="M184.37,263.14c1.21,10.94,8.45,19.21,16.94,19.38h0c8.12.16,15.06-7.14,16.58-17.43,0,0,8.81-73.39,9-99.72,0-6.23-1.58-24.89-1.58-24.89L221.39,97s-2.75-20.48-19.52-23c-19.32-2.9-19.65,10.51-19.65,10.51s-6.18,69-6,90.9C176.46,195.57,184.37,263.14,184.37,263.14Z"/><path class="cls-1" d="M322.24,255c.76,11-4.87,20.41-13.19,22.1h0c-8,1.61-16.1-4.33-19.44-14.18,0,0-21.83-70.61-26.76-96.48-1.16-6.12-2.91-24.77-2.91-24.77L256,98.21s-1-20.64,15.08-26.13c18.48-6.32,21.22,6.81,21.22,6.81s18.46,66.82,22.17,88.36C317.9,187.1,322.24,255,322.24,255Z"/><path class="cls-1" d="M201.25,245.78c-9.22.21-14.6,5.29-16,13.45,0,0-1.46,36.38-1.7,51.71-.38,24.57,2.47,74.71,6.47,98.93.88,5.3,2.76,21.33,2.76,21.33a8.92,8.92,0,0,0,9,8h0a8.92,8.92,0,0,0,8.23-8.66s.8-18.53,1.41-24.68c2.22-22.27,9.49-66.55,10-89,.31-13.48-2.3-54.79-2.3-54.79-1-13.57-10-16.24-17.93-16.37Z"/><path class="cls-1" d="M306.44,238.15c9.12-1.34,15.14,2.86,17.66,10.82,0,0,7.51,34.32,9.9,49.68,3.84,24.61,3.37,122,3.37,122,.07,4.89.24,11.39-4.22,11.92h0c-4.39.52-9.78-1.47-10.71-6.15,0,0-22.24-91-25.91-113.39-2.21-13.5-5.46-55.42-5.46-55.42-.91-13.8,7.6-18,15.37-19.44Z"/><path class="cls-2" d="M199.53,422.79h0a10.91,10.91,0,0,0-9.62,6.64h0c-4,8.94-20.83,20.91-20.83,20.91a11.33,11.33,0,0,0-3.79,10.6h0l41.09-.24,2.31-.74a6.2,6.2,0,0,0,4.1-6.5l-2.36-21.7A11.08,11.08,0,0,0,199.53,422.79Z"/><path class="cls-2" d="M166.47,460.72h0a6.47,6.47,0,0,1,5.13-7.5L196,449.3a6.13,6.13,0,0,1,6.86,4.9l1.41,6.16Z"/><path class="cls-3" d="M190.87,431.38s3.17-2.52,6-2.6a14,14,0,0,1,6.84,2.06"/><path class="cls-3" d="M188,436.27s3.23-2.43,6.07-2.43a14,14,0,0,1,6.79,2.26"/><path class="cls-2" d="M331.57,428.07c4.24-2.13,3.75-6.12,5.38-8.42,1-1.4,5.21-3.06,5.91-1.39,8.1,19.24,42.79,28.39,42.79,28.39,3.78,3.11,4.8,7.64,4.32,12.46h0s-29.75,11-45.67.46c-3.19-2.11-11.33-2.81-11.33-2.81s-14.52.56-13.92-5.37l1.17-26.72C321.11,418.2,324.29,431.71,331.57,428.07Z"/><path class="cls-2" d="M390.32,459c.23-7.83-3.45-12.53-4.61-12.28-1.69.37-4.32,2.31-6,2.77-2.65.75-10.82.34-10.82.34-2.09-.16-3.7,2.6-3.7,6.36l.2,7.49s5,.6,16.63-2.28C384,461,390.32,459,390.32,459Z"/><path class="cls-4" d="M347.72,428.28a17.72,17.72,0,0,1-6,2.19"/><path class="cls-4" d="M351.75,432.37a18.41,18.41,0,0,1-5.9,2.69"/><polygon class="cls-5" points="152.54 316.33 242.56 316.33 251.92 189.05 269.33 315.88 365.2 312.52 300.17 37.09 298.18 25.38 186.72 26.97 152.54 316.33"/><polygon class="cls-5" points="173.03 221.8 149.44 219.4 155.77 157.3 178.46 131.23 173.03 221.8"/><polygon class="cls-5" points="333.19 219.08 356.23 213.53 341.6 152.84 312.01 131.23 333.19 219.08"/><polygon class="cls-2" points="245.4 321.84 144.81 321.84 149.48 295.33 245.4 304.49 245.4 321.84"/><polygon class="cls-2" points="370.37 318.72 262.17 318.72 261 291.04 370.37 302.35 370.37 318.72"/></svg>