<svg xmlns="http://www.w3.org/2000/svg" xmlns:xlink="http://www.w3.org/1999/xlink" viewBox="0 0 788 1005"><defs><style>.cls-1,.cls-12,.cls-9{fill:none;}.cls-2{fill:#d68f72;}.cls-3{clip-path:url(#clip-path);}.cls-4{fill:#745c62;}.cls-5{clip-path:url(#clip-path-2);}.cls-6{fill:#acdafb;}.cls-7{fill:#83b5c6;}.cls-8{fill:#6999aa;}.cls-9{stroke:#69a;}.cls-12,.cls-9{stroke-linecap:round;stroke-miterlimit:10;stroke-width:2px;}.cls-10{fill:#87b6c7;}.cls-11{fill:#69a;}.cls-12{stroke:#6399aa;}.cls-13{fill:#ff9e35;}</style><clipPath id="clip-path"><polygon class="cls-1" points="394.13 474.39 377.32 595.83 331.19 595.83 331.19 474.39 394.13 474.39"/></clipPath><clipPath id="clip-path-2"><polygon class="cls-1" points="394.13 474.38 377.32 595.83 421.71 608.36 454.7 491.48 394.13 474.38"/></clipPath></defs><g id="Calque_10" data-name="Calque 10"><path class="cls-2" d="M348.28,501.29c6.93,29.08,43.71,75.83,43.71,75.83s38-46.58,44.77-75.83"/><g class="cls-3"><path class="cls-4" d="M422.91,484.31c11.53,6.66,16.27,11.58,18.27,18.58,1.61,5.66.17,32.37-.5,38.49-1.57,14.37-29.89,39.92-42.26,50.45-12.59,10.71-5.66-3.47-20.8-3.68-17.06-.24-48.7-45.24-46.3-59.51,1-6.07,8.07-34.4,11.16-39.42,3.82-6.18,9.73-9.63,22.63-12.91a72.78,72.78,0,0,1,28.87-.88S409.71,476.7,422.91,484.31Z"/></g><g class="cls-5"><path class="cls-4" d="M363.74,476.12c-12.91,3.28-18.82,6.72-22.63,12.91-3.09,5-9,31.11-10,37.18-2.4,14.26,17.93,46.54,27,60,9.2,13.72,6.39-1.8,21,2.1,16.48,4.41,59.16-30.31,60.73-44.68.67-6.12,1.57-35.31,0-41-2-7-6.74-11.92-18.27-18.58A72.69,72.69,0,0,0,394,475.44S378.5,472.38,363.74,476.12Z"/></g><path class="cls-6" d="M334.37,726.23c1.21,10.93,8.45,19.2,16.94,19.37h0c8.12.16,15.06-7.14,16.58-17.43,0,0,8.81-73.39,9-99.72.05-6.23-1.58-24.89-1.58-24.89l-3.93-43.46s-2.75-20.48-19.52-23c-19.32-2.9-19.65,10.51-19.65,10.51s-6.18,69-6,90.9C326.46,658.65,334.37,726.23,334.37,726.23Z"/><path class="cls-6" d="M472.24,718.08c.76,11-4.87,20.41-13.19,22.1h0c-8,1.61-16.1-4.32-19.44-14.17,0,0-21.83-70.62-26.76-96.49-1.16-6.12-2.91-24.77-2.91-24.77L406,561.3s-1-20.65,15.08-26.14c18.48-6.32,21.22,6.82,21.22,6.82s18.46,66.81,22.17,88.35C467.9,650.18,472.24,718.08,472.24,718.08Z"/><path class="cls-2" d="M351.25,708.87c-9.22.2-14.6,5.28-16,13.44,0,0-1.46,36.38-1.7,51.71C333.18,798.59,336,848.73,340,873c.88,5.3,2.76,21.33,2.76,21.33a8.91,8.91,0,0,0,9,8h0a8.92,8.92,0,0,0,8.23-8.65s.8-18.54,1.41-24.68c2.22-22.28,9.49-66.56,10-89,.31-13.48-2.3-54.79-2.3-54.79-1-13.57-10-16.24-17.93-16.36Z"/><path class="cls-2" d="M456.44,701.23c9.12-1.34,15.14,2.86,17.66,10.82,0,0,7.51,34.32,9.9,49.68,3.84,24.62,3.37,122,3.37,122,.07,4.89.24,11.39-4.22,11.92h0c-4.39.52-9.78-1.46-10.71-6.15,0,0-22.24-91-25.91-113.39-2.21-13.5-5.46-55.42-5.46-55.42-.91-13.8,7.6-18,15.37-19.44Z"/><path class="cls-2" d="M462.87,460.14h0"/><path class="cls-7" d="M349.53,885.87h0a10.93,10.93,0,0,0-9.62,6.64h0c-4,8.94-20.83,20.92-20.83,20.92A11.3,11.3,0,0,0,315.29,924h0l41.09-.24,2.31-.74a6.2,6.2,0,0,0,4.1-6.5l-2.36-21.7A11.09,11.09,0,0,0,349.53,885.87Z"/><path class="cls-8" d="M316.47,923.8h0a6.47,6.47,0,0,1,5.13-7.5L346,912.38a6.14,6.14,0,0,1,6.86,4.9l1.41,6.16Z"/><path class="cls-9" d="M340.87,894.46s3.17-2.52,6-2.6a14,14,0,0,1,6.84,2.06"/><path class="cls-9" d="M338,899.35s3.23-2.43,6.07-2.42a14,14,0,0,1,6.79,2.25"/><path class="cls-10" d="M481.57,891.15c4.24-2.12,3.75-6.12,5.38-8.42,1-1.4,5.21-3.06,5.91-1.38,8.1,19.23,42.79,28.38,42.79,28.38,3.78,3.11,4.8,7.64,4.32,12.46h0s-29.75,11-45.67.46c-3.19-2.11-11.33-2.81-11.33-2.81s-14.52.56-13.92-5.37l1.17-26.72C471.11,881.29,474.29,894.79,481.57,891.15Z"/><path class="cls-11" d="M540.32,922.13c.23-7.84-3.45-12.54-4.61-12.28-1.69.36-4.32,2.3-6,2.77-2.65.74-10.82.34-10.82.34-2.09-.17-3.7,2.59-3.7,6.35l.2,7.49s5,.6,16.63-2.28C534,924,540.32,922.13,540.32,922.13Z"/><path class="cls-12" d="M497.72,891.36a17.72,17.72,0,0,1-6,2.19"/><path class="cls-12" d="M501.75,895.45a18.41,18.41,0,0,1-5.9,2.69"/><path class="cls-13" d="M293.24,740.44,333.56,774l68.36-28.42L484,761.73s37-19.85,31.2-29.9-65-231.66-65-231.66l-2-11.71-111.46,1.59Z"/><rect class="cls-13" x="334.85" y="476.76" width="115.32" height="23.41"/></g></svg>