<svg xmlns="http://www.w3.org/2000/svg" viewBox="0 0 488 455.71"><defs><style>.cls-1{fill:#423632;}.cls-2{fill:#9e6754;}</style></defs><g id="Calque_9" data-name="Calque 9"><path class="cls-1" d="M322.24,243c.76,11-4.87,20.4-13.19,22.09h0c-8,1.62-16.1-4.32-19.44-14.17,0,0-21.83-70.61-26.76-96.48-1.16-6.12-2.91-24.77-2.91-24.77L256,86.23s-1-20.64,15.08-26.13c18.48-6.32,28.8,1.53,28.8,1.53s10.88,72.1,14.59,93.64C317.9,175.12,322.24,243,322.24,243Z"/><path class="cls-2" d="M201.25,233.8c-9.22.2-14.6,5.29-16,13.44,0,0-1.46,36.39-1.7,51.72-.38,24.57,2.47,74.71,6.47,98.93.88,5.3,2.76,21.33,2.76,21.33a8.92,8.92,0,0,0,9,8h0a8.93,8.93,0,0,0,8.23-8.66s.8-18.53,1.41-24.68c2.22-22.27,4.68-74,5.2-96.44.31-13.49,2.51-47.31,2.51-47.31-1-13.57-10-16.24-17.93-16.37Z"/><path class="cls-2" d="M306.44,226.17c9.12-1.35,5.24-18.58,7.76-10.63,0,0,17.7,132.43,20.09,147.79,3.84,24.61,7.4,47.48,7.4,47.48.07,4.89,4.47,10.52,0,11.05l-8.54-1.29c-4.39.52-9.78-1.47-10.71-6.16,0,0-19.16-94.52-22.83-116.93-2.21-13.5-8.54-51.87-8.54-51.87-.91-13.8,7.6-18,15.37-19.44Z"/><path class="cls-1" d="M199.53,410.81h0a10.91,10.91,0,0,0-9.62,6.64h0c-4,8.94-20.83,20.91-20.83,20.91a11.31,11.31,0,0,0-3.79,10.6h0l41.09-.24,2.31-.75a6.18,6.18,0,0,0,4.1-6.49l-2.36-21.7A11.07,11.07,0,0,0,199.53,410.81Z"/><path class="cls-1" d="M331.57,416.08c4.24-2.12,3.75-6.11,5.38-8.42,1-1.39,5.21-3.05,5.91-1.38,8.1,19.24,42.79,28.39,42.79,28.39,3.78,3.11,4.8,7.63,4.32,12.46h0s-28.36,8.14-45.67.46C340.8,446,333,444.78,333,444.78s-14.52.55-13.92-5.37l1.17-26.72C321.11,406.22,324.29,419.73,331.57,416.08Z"/><rect class="cls-1" x="186.85" y="1.69" width="109.24" height="23.41"/><path class="cls-1" d="M166.39,391.05,212,389.17C211.5,384.82,238.22,128,238.22,128h0s37.33,115.17,40.61,123.72,10.32,139.29,10.32,139.29h27.64l29.06-3.33-22.15-142-1.39-12.8L299.89,61.63,294.37,13.4s-103.82-17-103.82-6.2c0,14.65-11.81,91.69-12.31,111-1.59,60.9-11.85,272.89-11.85,272.89"/></g><g id="Calque_10" data-name="Calque 10"><path class="cls-1" d="M322.24,243c.76,11-4.87,20.4-13.19,22.09h0c-8,1.62-16.1-4.32-19.44-14.17,0,0-21.83-70.61-26.76-96.48-1.16-6.12-2.91-24.77-2.91-24.77L256,86.23s-1-20.64,15.08-26.13c18.48-6.32,28.8,1.53,28.8,1.53s10.88,72.1,14.59,93.64C317.9,175.12,322.24,243,322.24,243Z"/><path class="cls-2" d="M201.25,233.8c-9.22.2-14.6,5.29-16,13.44,0,0-1.46,36.39-1.7,51.72-.38,24.57,2.47,74.71,6.47,98.93.88,5.3,2.76,21.33,2.76,21.33a8.92,8.92,0,0,0,9,8h0a8.93,8.93,0,0,0,8.23-8.66s.8-18.53,1.41-24.68c2.22-22.27,4.68-74,5.2-96.44.31-13.49,2.51-47.31,2.51-47.31-1-13.57-10-16.24-17.93-16.37Z"/><path class="cls-2" d="M306.44,226.17c9.12-1.35,5.24-18.58,7.76-10.63,0,0,17.7,132.43,20.09,147.79,3.84,24.61,7.4,47.48,7.4,47.48.07,4.89,4.47,10.52,0,11.05l-8.54-1.29c-4.39.52-9.78-1.47-10.71-6.16,0,0-19.16-94.52-22.83-116.93-2.21-13.5-8.54-51.87-8.54-51.87-.91-13.8,7.6-18,15.37-19.44Z"/><path class="cls-1" d="M199.53,410.81h0a10.91,10.91,0,0,0-9.62,6.64h0c-4,8.94-20.83,20.91-20.83,20.91a11.31,11.31,0,0,0-3.79,10.6h0l41.09-.24,2.31-.75a6.18,6.18,0,0,0,4.1-6.49l-2.36-21.7A11.07,11.07,0,0,0,199.53,410.81Z"/><path class="cls-1" d="M331.57,416.08c4.24-2.12,3.75-6.11,5.38-8.42,1-1.39,5.21-3.05,5.91-1.38,8.1,19.24,42.79,28.39,42.79,28.39,3.78,3.11,4.8,7.63,4.32,12.46h0s-28.36,8.14-45.67.46C340.8,446,333,444.78,333,444.78s-14.52.55-13.92-5.37l1.17-26.72C321.11,406.22,324.29,419.73,331.57,416.08Z"/><rect class="cls-1" x="187.85" y="1.69" width="109.24" height="23.41"/><path class="cls-1" d="M166.39,391.05,212,389.17C211.5,384.82,238.22,128,238.22,128h0s37.33,115.17,40.61,123.72,10.32,139.29,10.32,139.29h27.64l29.06-3.33-22.15-142-1.39-12.8L299.89,61.63,294.37,13.4s-103.82-17-103.82-6.2c0,14.65-11.81,91.69-12.31,111-1.59,60.9-11.85,272.89-11.85,272.89"/></g></svg>