<svg xmlns="http://www.w3.org/2000/svg" viewBox="0 0 488 480.49"><defs><style>.cls-1{fill:#423632;}.cls-2{fill:#d68f72;}.cls-3{fill:#475741;}</style></defs><g id="Calque_9" data-name="Calque 9"><path class="cls-1" d="M322.24,255c.76,11-4.87,20.41-13.19,22.1h0c-8,1.61-16.1-4.33-19.44-14.18,0,0-21.83-70.61-26.76-96.48-1.16-6.12-2.91-24.77-2.91-24.77L256,98.21s-1-20.64,15.08-26.13c18.48-6.32,28.8,1.53,28.8,1.53s10.88,72.1,14.59,93.64C317.9,187.1,322.24,255,322.24,255Z"/><path class="cls-2" d="M201.25,245.78c-9.22.21-14.6,5.29-16,13.45,0,0-1.46,36.38-1.7,51.71-.38,24.57,2.47,74.71,6.47,98.93.88,5.3,2.76,21.33,2.76,21.33a8.92,8.92,0,0,0,9,8h0a8.92,8.92,0,0,0,8.23-8.66s.8-18.53,1.41-24.68c2.22-22.27,4.68-74,5.2-96.44.31-13.49,2.51-47.31,2.51-47.31-1-13.57-10-16.24-17.93-16.37Z"/><path class="cls-2" d="M306.44,238.15c9.12-1.34,5.24-18.58,7.76-10.62,0,0,17.7,132.42,20.09,147.78,3.84,24.61,7.4,47.48,7.4,47.48.07,4.9,4.47,10.52,0,11l-8.54-1.29c-4.39.52-9.78-1.47-10.71-6.15,0,0-19.16-94.53-22.83-116.94-2.21-13.49-8.54-51.87-8.54-51.87-.91-13.8,7.6-18,15.37-19.44Z"/><path class="cls-1" d="M199.53,422.79h0a10.91,10.91,0,0,0-9.62,6.64h0c-4,8.94-20.83,20.91-20.83,20.91a11.33,11.33,0,0,0-3.79,10.6h0l41.09-.24,2.31-.74a6.2,6.2,0,0,0,4.1-6.5l-2.36-21.7A11.08,11.08,0,0,0,199.53,422.79Z"/><path class="cls-1" d="M331.57,428.07c4.24-2.13,3.75-6.12,5.38-8.42,1-1.4,5.21-3.06,5.91-1.39,8.1,19.24,42.79,28.39,42.79,28.39,3.78,3.11,4.8,7.64,4.32,12.46h0s-28.36,8.14-45.67.46C340.8,458,333,456.76,333,456.76s-14.52.56-13.92-5.37l1.17-26.72C321.11,418.2,324.29,431.71,331.57,428.07Z"/><path class="cls-1" d="M166.39,403,212,401.15C211.5,396.8,238.22,140,238.22,140h0s37.33,115.17,40.61,123.73S289.15,403,289.15,403h27.64l29.06-3.33-22.15-142-1.39-12.8L299.89,73.61l-5.52-48.23s-103.82-17-103.82-6.2c0,14.65-11.81,91.7-12.31,111C176.65,191,166.39,403,166.39,403"/></g><g id="Calque_10" data-name="Calque 10"><path class="cls-1" d="M322.24,255c.76,11-4.87,20.41-13.19,22.1h0c-8,1.61-16.1-4.33-19.44-14.18,0,0-21.83-70.61-26.76-96.48-1.16-6.12-2.91-24.77-2.91-24.77L256,98.21s-1-20.64,15.08-26.13c18.48-6.32,28.8,1.53,28.8,1.53s10.88,72.1,14.59,93.64C317.9,187.1,322.24,255,322.24,255Z"/><path class="cls-2" d="M201.25,245.78c-9.22.21-14.6,5.29-16,13.45,0,0-1.46,36.38-1.7,51.71-.38,24.57,2.47,74.71,6.47,98.93.88,5.3,2.76,21.33,2.76,21.33a8.92,8.92,0,0,0,9,8h0a8.92,8.92,0,0,0,8.23-8.66s.8-18.53,1.41-24.68c2.22-22.27,4.68-74,5.2-96.44.31-13.49,2.51-47.31,2.51-47.31-1-13.57-10-16.24-17.93-16.37Z"/><path class="cls-2" d="M306.44,238.15c9.12-1.34,5.24-18.58,7.76-10.62,0,0,17.7,132.42,20.09,147.78,3.84,24.61,7.4,47.48,7.4,47.48.07,4.9,4.47,10.52,0,11l-8.54-1.29c-4.39.52-9.78-1.47-10.71-6.15,0,0-19.16-94.53-22.83-116.94-2.21-13.49-8.54-51.87-8.54-51.87-.91-13.8,7.6-18,15.37-19.44Z"/><path class="cls-1" d="M199.53,422.79h0a10.91,10.91,0,0,0-9.62,6.64h0c-4,8.94-20.83,20.91-20.83,20.91a11.33,11.33,0,0,0-3.79,10.6h0l41.09-.24,2.31-.74a6.2,6.2,0,0,0,4.1-6.5l-2.36-21.7A11.08,11.08,0,0,0,199.53,422.79Z"/><path class="cls-1" d="M331.57,428.07c4.24-2.13,3.75-6.12,5.38-8.42,1-1.4,5.21-3.06,5.91-1.39,8.1,19.24,42.79,28.39,42.79,28.39,3.78,3.11,4.8,7.64,4.32,12.46h0s-28.36,8.14-45.67.46C340.8,458,333,456.76,333,456.76s-14.52.56-13.92-5.37l1.17-26.72C321.11,418.2,324.29,431.71,331.57,428.07Z"/><path class="cls-3" d="M166.39,403,212,401.15C211.5,396.8,238.22,140,238.22,140h0s37.33,115.17,40.61,123.73S289.15,403,289.15,403h27.64l29.06-3.33-22.15-142-1.39-12.8L299.89,73.61l-5.52-48.23s-103.82-17-103.82-6.2c0,14.65-11.81,91.7-12.31,111C176.65,191,166.39,403,166.39,403"/></g></svg>