<svg xmlns="http://www.w3.org/2000/svg" viewBox="0 0 788 371.04"><defs><style>.cls-1{fill:#d79072;}.cls-2{fill:#d08d72;}.cls-3{fill:#a45c3d;}.cls-4{fill:#c37958;}.cls-5{fill:#36344d;}.cls-6{fill:#6d393d;}</style></defs><g id="Calque_1" data-name="Calque 1"><path class="cls-1" d="M282,106.77S299,96.6,300.65,94.06s7.2-14.4,8.89-16.1,14.4-9.74,13.13-11-6.77-5.51-6.77-5.51L304.46,67l-9.32,11.44.42-22.88s6-30.07,6.83-31.77-7.67-4.66-7.67-4.66L285,55.51V14.42h-9.74V58.05l-7.62-43.63-8.9,4.24,5.51,39L252.78,30.1s-8.05,3.81-7.2,5.93,8,27.95,8,27.95l.85,36,6.35,6.78Z"/><path class="cls-2" d="M537.67,153.69c-.6,38.39-26.2,33.17-36.86,42.29-12.58,10.77-8.27,50-17.18,64-2.45,3.84-11.36,10.1-15.8,9.08-12.51-2.87-24-30.73-34.77-37.73-6.33-4.12-23.57-3.62-30.19,0-11.25,6.16-22.27,34.86-34.77,37.73-4.44,1-13.35-5.24-15.8-9.08-8.91-14-4.6-53.24-17.19-64-10.65-9.12-36.25-3.9-36.86-42.29-.41-26.59,35-37.34,35-37.34l40.15-19.91a31.4,31.4,0,0,0,7.1-4.82,29.11,29.11,0,0,0,2.29-2.29l.63-.71,0-.06a31.55,31.55,0,0,0,7.22-16.43,30.71,30.71,0,0,0,.25-4.19l0-2.84,0-4.51h53.63l.06,5,0,1.5,0,3.21c0,.33,0,.67,0,1v0c0,.65.09,1.3.16,2a29.38,29.38,0,0,0,.93,4.57,28.5,28.5,0,0,0,14.7,17.59L501,115.51a27.41,27.41,0,0,0,3.16,1.33C510.81,119.22,538,130.35,537.67,153.69Z"/><path class="cls-2" d="M445.31,108.87l-27.5,32.5L403,123.68l-12.39-14.81.72-41.56,0-2.21.08-4.51h53v.23l.08,4.66v0l0,1.56.07,4.21v0l0,1.28.12,6.79Z"/><path class="cls-3" d="M445.81,78.12l-1,1.25c-5.16,6.33-28.83,35-41.79,44.31-3.2,2.29-5.74,3.39-7.2,2.69-6.76-3.26-14.84-35.1-14.84-35.1l.08-.07a21,21,0,0,0,1.73-1.87q.48-.57,1.05-1.32l.06-.08a39.39,39.39,0,0,0,6.66-15.16c0-.21.09-.42.13-.64.26-1.37.48-3,.66-4.82.07-.71.13-1.45.19-2.21.11-1.42.2-2.94.28-4.51h52.67v.23l0,4.28,0,6.72.15.76.14.67.93,4.57Z"/><path class="cls-2" d="M479.81,160.42c11.9,25,40.93,38.77,40.93,38.77s53,32.77,70.43,44c8.23,5.28,25.21,16.58,39-3.61h0c11.33-16.63-2.81-30.35-10.19-36.17-15-11.83-47.9-32.65-60.5-46.74-9.38-10.49-19.75-30.33-43.13-36.2,0,0-18.61-6.9-31.75,8.26l-.52.59a28.69,28.69,0,0,0-4.22,31.14Z"/><path class="cls-1" d="M616.11,205.61c-18.55-7.17-32.67,11.81-37.39,19S568,248.55,565.09,256.76c-7.55,21-17.53,57.34-25.19,77.81-5,13.46-8.09,20.41-.35,25.92,7.05,5,16.13-5.75,19.74-9.92,14.85-17.19,44.3-50.41,56.84-70.91,5.14-8.41,14-26.38,16.1-36C638.18,216.7,621.51,207.7,616.11,205.61Z"/><path class="cls-1" d="M231.73,267c17.79,1.63,26.54-20.34,29.3-28.49s4.75-25.7,5.74-34.33c2.56-22.08,9-89,17-109.19,5.58-14.16-24.28-9.52-24.28-9.52s-2.51,17.78-5.94,28c-7.23,21.49-23.1,48.09-36.32,83.2-3.48,9.23-7.18,29-7.17,38.71C210.06,262.67,226.56,266.56,231.73,267Z"/><path class="cls-2" d="M357.21,160.71c-8.54,26.33-35.52,43.78-35.52,43.78s-48.23,39.39-64.1,52.77c-7.47,6.3-22.83,19.72-39.09,1.5h0c-13.4-15-1.17-30.46,5.39-37.19,13.33-13.69,43.23-38.62,53.88-54.23,7.93-11.63,15.63-32.65,38-41.52,0,0,17.55-9.27,32.56,4l.59.53a28.7,28.7,0,0,1,8.25,30.32Z"/><path class="cls-1" d="M542.73,356.85c2,3.19,3.07,9-3,14.84,0,0-17.64,20.22-25.41,24.34-3.47,1.84-12.79,6.25-15.37,3.3-7.33-8.38-12.07-28.61-9.73-41.73.71-3.93,9.41-8.05,13.34-8.82,4.31-.84,12.95,2.63,17.33,2.78a67.49,67.49,0,0,0,7.19-.39C533,350.62,540,352.49,542.73,356.85Z"/><polygon class="cls-4" points="532.97 344.42 528.83 351.11 532.2 363.61 536.17 375.68 541.76 369.66 551.91 362.62 532.97 344.42"/><polygon class="cls-5" points="530.26 348.75 539.58 333 560.05 354.91 548.8 367.64 530.26 348.75"/><path class="cls-6" d="M315.42,122.68,333.62,268s-10.52,50.67-8.9,55.09,15.46,9,15.46,9,151.2.79,157.54-2.61S506,307.54,506,307.54s-7.14-31.56-7.93-40.42S516.3,120.43,516.3,120.43l-32-13.22s-25.3,31.23-28.52,34.16-87.14,4.57-87.14,4.57l-26-34.19Z"/></g><g id="Calque_7" data-name="Calque 7"><polygon class="cls-5" points="528.93 347.88 538.25 332.13 558.72 354.04 547.48 366.77 528.93 347.88"/></g></svg>