<svg id="Calque_1" data-name="Calque 1" xmlns="http://www.w3.org/2000/svg" viewBox="0 0 788 364.74"><defs><style>.cls-1{fill:#7a919e;}.cls-2{fill:#1a1818;}.cls-3{fill:#d48f72;}.cls-4{fill:#95acba;}.cls-5,.cls-9{fill:#d79072;}.cls-5{stroke:#000;stroke-width:3px;}.cls-11,.cls-5{stroke-miterlimit:10;}.cls-6{fill:#9599ba;}.cls-7{fill:#605b5b;}.cls-8{fill:#bb653c;}.cls-10{fill:#adcbde;}.cls-11{fill:none;stroke:#839ba5;}</style></defs><polygon class="cls-1" points="338.54 79.94 339.39 53.18 399.87 52.59 399.54 79.94 338.54 79.94"/><polygon class="cls-2" points="204.02 344.49 203.92 344.53 203.92 344.45 204.02 344.49"/><polygon points="204.12 344.45 204.12 344.53 204.02 344.49 204.12 344.45"/><polygon class="cls-2" points="204.02 344.49 203.92 344.53 203.92 344.45 204.02 344.49"/><polygon points="204.12 344.45 204.12 344.53 204.02 344.49 204.12 344.45"/><path class="cls-3" d="M384.9,198.14c10.74,6.49,22.26,32.28,34.76,35,4.45.94,13.36-4.86,15.81-8.42,8.9-12.94,4.6-49.3,17.18-59.28,10.66-8.44,36.26-3.61,36.86-39.16.37-21.62-26.86-31.93-33.53-34.13a26.9,26.9,0,0,1-3.16-1.24L412.28,72.25c-9.57-4.4-15.67-13.39-15.81-23.28l-.23-16.72-27,1.91-26.62-1.92.11,14.57c.09,11.18-6.72,21.43-17.54,26.4L285.08,91.65s-35.41,9.95-35,34.58c.6,35.55,26.2,30.72,36.86,39.16,12.59,10,8.28,46.34,17.19,59.28,2.45,3.56,11.36,9.36,15.8,8.42,12.5-2.67,23.52-29.24,34.77-35C361.33,194.78,378.57,194.33,384.9,198.14Z"/><polygon class="cls-3" points="371.14 27.3 396.14 31 397.14 84.72 369.64 114.82 342.46 84.72 343.46 31 371.14 27.3"/><path class="cls-4" d="M431.64,132.46c11.91,23.14,40.93,35.9,40.93,35.9s53,30.35,70.43,40.71c8.24,4.89,25.22,15.35,39-3.34h0c11.33-15.41-2.81-28.11-10.19-33.5-15-11-47.91-30.23-60.5-43.28-9.38-9.72-23.29-31.57-46.68-37,0,0-15.06-2.91-28.2,11.13l-.52.55a25,25,0,0,0-4.23,28.84Z"/><path class="cls-5" d="M299.51,107.86c17.77,19.65,18.24,49.41,18.24,49.41s7.78,57.21,10.7,76.25c1.37,9,4.59,27.62-19.48,31.42h0c-19.84,3.13-26.44-14.06-28.66-22.52-4.52-17.19-9.77-52.92-17.35-68.95-5.65-11.94-19.38-28.32-15-50.27,0,0,1.46-18.33,20.71-23.56l.76-.21a30.14,30.14,0,0,1,30.07,8.43Z"/><polygon class="cls-6" points="293.83 318.37 295.33 293.03 450.33 293.03 447.2 315.1 293.83 318.37"/><path class="cls-4" d="M286.6,280.58l1.62-122.4L267.68,97.36l65-31.19,42.8,48.65,36.34-45.53,64.66,27.76L466,190.61l-26.61,66.75,8.19,10a20.13,20.13,0,0,1,3.27,20.33l-2.7,6.78-156.14,2.3L288.43,289A19.29,19.29,0,0,1,286.6,280.58Z"/><path class="cls-6" d="M431.76,221.69l1.2,9.4-8.56,5.32,1.13,2.85c-26.65,12.12-93,41.92-93.59,42.13-1.59.54-10.81,4.42-16.09,4.42-8.79,0-29.36-11.26-29.36-11.26s-2.14-12.9.17-12.39,123-42.54,125.81-41.89S431.76,221.69,431.76,221.69Z"/><path class="cls-7" d="M433.39,263.5,417.58,139.17c-.68-5.37,3.47-10.24,9.27-10.87l202.92-22.14c5.8-.63,11.06,3.21,11.74,8.59l15.81,124.33c.69,5.37-3.46,10.24-9.26,10.87L445.13,272.09C439.33,272.72,434.07,268.88,433.39,263.5Z"/><path class="cls-3" d="M644.31,259.59l-7.6-15a6.1,6.1,0,0,1,3.26-8.37h0a7,7,0,0,1,9,3l6.56,13a6.11,6.11,0,0,1-3.27,8.37l-2.23,1A4.49,4.49,0,0,1,644.31,259.59Z"/><path class="cls-8" d="M581.43,257.1l40.46-6.17-2.09,19.4a3.63,3.63,0,0,1-4.53,2.95l-9.55-2.2a42.57,42.57,0,0,1-17.08-8.2Z"/><path class="cls-3" d="M610.85,269.63l-5.68-11.21c-3.95-7.79-.33-17.07,8.09-20.73l2-.85c7.95-3.46,17.42-.29,21.15,7.08l5.08,10c2.38,4.69.2,10.26-4.86,12.46L621.2,273.1A8.06,8.06,0,0,1,610.85,269.63Z"/><path class="cls-3" d="M425.53,199.36l13,18.6L450,215.88l24.17-3.47a16.36,16.36,0,0,0,13.16-10.14L494,184.45l29.79-4.07a8.27,8.27,0,0,0,7.29-7.84v-1.13l-34.91,2.35,1.88-4.6-17.73.28L470,169.5a32.77,32.77,0,0,0-16,4.23L444.5,179c-2,2-2.65,2.94-6.43,7.78l-5.42,6.93"/><path class="cls-9" d="M284.42,246.05c-3.84-18.07,17.3-27.9,25.21-31s25.42-5.9,34-7.27c22-3.5,59.51-6.76,81-10.47,14.13-2.43,21.5-4.09,25.58,3.86,3.72,7.23-4.13,12.68-8.88,15.3-19.5,10.79-61.65,33.4-84,41.54-9.18,3.34-28.41,8.51-38.27,8.9C291.5,268,285.54,251.31,284.42,246.05Z"/><path class="cls-4" d="M293.81,87.1S250.62,102.22,243,111.47c-7.31,8.88-3.09,45.32-3.09,45.32s16.62,87.12,37.82,107.42c5,4.78,22.44,9.2,31.36,11.21a16.78,16.78,0,0,0,10.17-.88L420.1,232.28l-8.45-37-91.14,11-18-62.59"/><polygon class="cls-10" points="329.41 70.19 339.39 53.18 367.07 96.24 351.14 118.85 329.41 70.19"/><polygon class="cls-10" points="413.79 71.91 399.87 52.59 379.19 95.55 397.88 117.14 413.79 71.91"/><polygon class="cls-6" points="367.07 96.24 375.24 114.82 364.22 106.4 351.14 118.85 367.07 96.24"/><polygon class="cls-6" points="375.24 114.82 379.19 95.55 397.88 117.14 384.5 107.38 375.24 114.82"/><path class="cls-11" d="M302.28,141.42c1.34,0,18.23,64.85,18.23,64.85l91.14-11,8.45,37"/></svg>