<svg xmlns="http://www.w3.org/2000/svg" viewBox="0 0 788 1005"><defs><style>.cls-1{fill:#1a1818;}.cls-2{fill:#473415;}.cls-3{fill:none;stroke:#4f3742;stroke-miterlimit:10;}.cls-4{fill:#6d3b25;}.cls-5{fill:#d48f72;}.cls-6{fill:#472e1d;}.cls-7{fill:#524428;}.cls-8{fill:#36344d;}</style></defs><g id="Calque_1" data-name="Calque 1"><polygon class="cls-1" points="230.32 514.01 230.22 514.05 230.22 513.97 230.32 514.01"/><polygon points="230.42 513.97 230.42 514.05 230.32 514.01 230.42 513.97"/><polygon class="cls-1" points="230.32 514.01 230.22 514.05 230.22 513.97 230.32 514.01"/><polygon points="230.42 513.97 230.42 514.05 230.32 514.01 230.42 513.97"/><polygon class="cls-1" points="225.67 515.28 225.57 515.32 225.57 515.24 225.67 515.28"/><polygon points="225.77 515.24 225.77 515.32 225.67 515.28 225.77 515.24"/><polygon class="cls-1" points="225.67 515.28 225.57 515.32 225.57 515.24 225.67 515.28"/><polygon points="225.77 515.24 225.77 515.32 225.67 515.28 225.77 515.24"/><polygon class="cls-2" points="312.05 489.16 313.55 468.32 468.55 468.32 470.55 486.38 312.05 489.16"/><polygon class="cls-3" points="389.92 524.86 384.92 487.82 399.92 487.82 398.92 517.71 389.92 524.86"/></g><g id="Calque_5" data-name="Calque 5"><path class="cls-4" d="M377.5,222.41c.12-3.33,9.84-7.1,18.56-5.95,8.9,1.17,16.41,7.4,15.76,9.11-.45,1.19-5.2.82-8.75-.35-5.15-1.7-5.14-4.19-8.41-4.56-5.71-.64-7.76,5-12.66,3.65C380.24,223.82,377.46,223.87,377.5,222.41Z"/></g><g id="Calque_7" data-name="Calque 7"><path class="cls-5" d="M118.2,470.45s-18.46-7.05-21.5-6.81-15.78,3.23-18.16,2.95S62,461.28,61.77,463.06s-.14,8.73-.14,8.73L73,477.38l14.75.27L69.52,491.44s-27.37,13.85-29.2,14.26,1.08,8.91,1.08,8.91l34.66-14.84L43.75,525.15l6,7.66,34.31-26.95L54.47,538.81l8.83,4.38,27.25-28.4L76,540.79s8,4,9.11,2,17-23.6,17-23.6l27.8-22.9,1.4-9.18Z"/><polygon class="cls-5" points="225.27 538.78 225.37 538.74 225.27 538.69 225.27 538.78"/><polygon class="cls-5" points="225.37 538.74 225.47 538.78 225.47 538.69 225.37 538.74"/><polygon class="cls-5" points="225.27 538.78 225.37 538.74 225.27 538.69 225.27 538.78"/><polygon class="cls-5" points="225.37 538.74 225.47 538.78 225.47 538.69 225.37 538.74"/><path class="cls-5" d="M510.86,303.06c-.6,38.39-26.2,33.17-36.86,42.29-12.58,10.77-8.27,50-17.18,64-2.45,3.84-11.36,10.1-15.8,9.08-12.51-2.87-24-30.73-34.77-37.73-6.33-4.12-23.57-3.62-30.19,0-11.25,6.16-22.27,34.86-34.77,37.73-4.44,1-13.35-5.24-15.8-9.08-8.91-14-4.6-53.24-17.19-64-10.65-9.12-36.25-3.9-36.86-42.29-.41-26.59,35-37.34,35-37.34l40.15-19.91a31.4,31.4,0,0,0,7.1-4.82A29.11,29.11,0,0,0,356,238.7l.63-.71,0-.06a31.55,31.55,0,0,0,7.22-16.43,30.71,30.71,0,0,0,.25-4.19l0-2.84,0-4.51H417.7l.06,5,0,1.5,0,3.21c0,.33,0,.67,0,1v0c0,.65.09,1.3.16,2a29.38,29.38,0,0,0,.93,4.57,28.5,28.5,0,0,0,14.7,17.59l40.53,20.1a27.41,27.41,0,0,0,3.16,1.33C484,268.59,511.23,279.72,510.86,303.06Z"/><path class="cls-5" d="M418.5,258.24,391,290.74l-14.8-17.69-12.39-14.81.72-41.56,0-2.21.08-4.51h53v.23l.08,4.66v0l0,1.56.07,4.21v0l0,1.28.12,6.79Z"/><path class="cls-5" d="M419,227.49l-1,1.25c-5.16,6.33-28.83,35-41.79,44.31-3.2,2.29-5.74,3.39-7.2,2.69-6.76-3.26-14.84-35.1-14.84-35.1l.08-.07A21,21,0,0,0,356,238.7q.48-.57,1-1.32l.06-.08a39.39,39.39,0,0,0,6.66-15.16c0-.21.09-.42.13-.64.26-1.37.48-3,.66-4.82.07-.71.13-1.45.19-2.21.11-1.42.2-2.94.28-4.51h52.67v.23l0,4.28,0,6.72.15.76.14.67.93,4.57Z"/><path class="cls-5" d="M453,309.79c11.91,25,40.93,38.77,40.93,38.77s53,32.76,70.44,44c8.23,5.27,25.21,16.57,38.95-3.61h0c11.33-16.64-2.81-30.36-10.19-36.17-15-11.84-47.91-32.65-60.5-46.74-9.38-10.5-19.75-30.34-43.13-36.2,0,0-18.61-6.9-31.75,8.25l-.52.6A28.71,28.71,0,0,0,453,309.79Z"/><path class="cls-5" d="M589.3,355c-18.55-7.17-32.67,11.81-37.39,19s-10.68,23.93-13.63,32.14c-7.55,21-17.53,57.34-25.19,77.8-5.05,13.46-8.09,20.41-.35,25.92,7,5,16.12-5.74,19.73-9.92,14.86-17.19,44.31-50.41,56.84-70.9,5.15-8.42,14-26.39,16.11-36C611.37,366.06,594.69,357.06,589.3,355Z"/><path class="cls-5" d="M275.3,411c-9.7-15-32.38-8.32-40.5-5.45s-23.14,12.15-30.54,16.69c-18.95,11.63-75.52,47.87-96.36,54.09-14.59,4.35,7.51,25,7.51,25s15.52-9,25.69-12.62c21.37-7.58,52.09-11.54,87.86-22.82,9.41-3,27.22-12.24,34.87-18.27C285.25,430.74,278.13,415.36,275.3,411Z"/><path class="cls-5" d="M332.46,299.57c2.77,27.54-14.91,54.37-14.91,54.37s-28.3,55.46-37.44,74.1c-4.31,8.78-13,27.24-35.19,17.1h0c-18.31-8.36-13.33-27.42-10-36.22,6.7-17.89,24.05-52.74,27.51-71.32,2.58-13.84,1.17-36.18,18.12-53.32,0,0,12.34-15.54,31.44-9.39l.75.24a28.67,28.67,0,0,1,19.75,24.44Z"/><path class="cls-5" d="M515.92,506.22c2,3.19,3.07,9-3,14.84,0,0-17.63,20.21-25.4,24.33-3.47,1.85-12.79,6.26-15.38,3.3-7.33-8.38-12.06-28.61-9.72-41.72.71-3.94,9.41-8.06,13.33-8.82,4.31-.84,13,2.62,17.34,2.78a67.49,67.49,0,0,0,7.19-.39C506.2,500,513.14,501.85,515.92,506.22Z"/><polygon class="cls-5" points="506.16 493.78 502.02 500.48 505.39 512.97 509.36 525.05 514.95 519.03 525.1 511.99 506.16 493.78"/><polygon class="cls-6" points="503.44 498.12 512.77 482.37 533.24 504.28 521.99 517.01 503.44 498.12"/><polygon class="cls-7" points="251.95 363.57 300.23 390.27 315.59 359.19 313.15 428.4 310.47 478.04 306.2 525.18 470.92 532.77 469.55 464.88 469.24 422.75 473.94 347.85 520.38 365.4 551.84 316.03 503.2 270.68 446.88 248.74 395.68 276.17 343.01 246.55 284.87 273.97 266.95 295.92 251.95 363.57"/><polygon class="cls-8" points="506.08 495 515.41 479.25 535.88 501.16 524.63 513.88 506.08 495"/></g></svg>