<svg xmlns="http://www.w3.org/2000/svg" viewBox="0 0 788 1005"><defs><style>.cls-1{fill:#1a1818;}.cls-2,.cls-4,.cls-8{fill:none;}.cls-2{stroke:#000;stroke-width:3px;}.cls-2,.cls-4{stroke-miterlimit:10;}.cls-3{fill:#473415;}.cls-4{stroke:#4f3742;}.cls-5{fill:#d79072;}.cls-6{fill:#d08d72;}.cls-7{fill:#a45c3d;}.cls-9{fill:#6a4100;}</style></defs><g id="Calque_1" data-name="Calque 1"><polygon class="cls-1" points="230.32 514.01 230.22 514.05 230.22 513.97 230.32 514.01"/><polygon points="230.42 513.97 230.42 514.05 230.32 514.01 230.42 513.97"/><polygon class="cls-1" points="230.32 514.01 230.22 514.05 230.22 513.97 230.32 514.01"/><polygon points="230.42 513.97 230.42 514.05 230.32 514.01 230.42 513.97"/><path class="cls-2" d="M434.32,432.49c16.16,4.84,23.2,8.92,27,15.34,3.11,5.2,6,17.12,6.27,23.06.55,13.95-7.77,49-21.92,60.73-14.41,11.91-84.8,11.91-99.2,0-14.16-11.7-22.47-46.78-21.93-60.73.23-5.94,3.16-17.86,6.27-23.06,3.84-6.42,10.89-10.5,27-15.34,18.49-5.53,37.3-4.66,37.3-4.66S415.83,427,434.32,432.49Z"/><polygon class="cls-3" points="316.71 487.89 318.21 467.05 473.21 467.05 475.21 485.11 316.71 487.89"/><polygon class="cls-4" points="394.57 523.59 389.57 486.55 404.57 486.55 403.57 516.44 394.57 523.59"/><path class="cls-5" d="M120.84,467.91s-18.46-7-21.51-6.81-15.77,3.23-18.15,2.95-16.56-5.31-16.77-3.53-.15,8.74-.15,8.74l11.4,5.59,14.75.26-18.25,13.8S44.79,502.75,43,503.16,44,512.07,44,512.07L78.7,497.24,46.39,522.61l6,7.67,34.32-26.95L57.11,536.27l8.83,4.38,27.24-28.4-14.59,26s8,4,9.12,2,17-23.59,17-23.59l27.79-22.91,1.41-9.18Z"/><polygon points="227.91 536.24 228.01 536.2 227.91 536.15 227.91 536.24"/><polygon points="228.01 536.2 228.11 536.24 228.11 536.15 228.01 536.2"/><polygon points="227.91 536.24 228.01 536.2 227.91 536.15 227.91 536.24"/><polygon points="228.01 536.2 228.11 536.24 228.11 536.15 228.01 536.2"/><path class="cls-6" d="M513.5,300.52c-.6,38.39-26.2,33.17-36.86,42.29-12.58,10.77-8.27,50-17.18,64-2.45,3.84-11.36,10.1-15.8,9.08-12.51-2.87-24-30.73-34.77-37.73-6.33-4.12-23.57-3.62-30.19,0-11.25,6.16-22.27,34.86-34.77,37.73-4.44,1-13.35-5.24-15.8-9.08-8.91-14-4.6-53.24-17.19-64-10.65-9.12-36.25-3.9-36.86-42.29-.41-26.59,35-37.34,35-37.34l40.15-19.91a31.4,31.4,0,0,0,7.1-4.82,29.11,29.11,0,0,0,2.29-2.29l.63-.71.05-.06A31.55,31.55,0,0,0,366.51,219a30.71,30.71,0,0,0,.25-4.19l0-2.84,0-4.51h53.63l.06,5,0,1.5,0,3.21c0,.33,0,.67,0,1v0c0,.65.09,1.3.16,2a29.38,29.38,0,0,0,.93,4.57,28.5,28.5,0,0,0,14.7,17.59l40.53,20.1a27.41,27.41,0,0,0,3.16,1.33C486.64,266.05,513.87,277.18,513.5,300.52Z"/><path class="cls-6" d="M421.14,255.7l-27.5,32.5-14.8-17.69L366.45,255.7l.72-41.56,0-2.21.08-4.51h53v.23l.08,4.66v0l0,1.56.07,4.21v0l0,1.28.12,6.79Z"/><path class="cls-7" d="M421.64,225l-1,1.25c-5.16,6.33-28.83,35-41.79,44.31-3.2,2.29-5.74,3.39-7.2,2.69-6.76-3.26-14.84-35.1-14.84-35.1l.08-.07a21,21,0,0,0,1.73-1.87q.48-.57,1.05-1.32l.06-.08a39.39,39.39,0,0,0,6.66-15.16c0-.21.09-.42.13-.64.26-1.37.48-3,.66-4.82.07-.71.13-1.45.19-2.21.11-1.42.2-2.94.28-4.51h52.67v.23l0,4.28,0,6.72.15.76.14.67.93,4.57Z"/><path class="cls-2" d="M463.42,463c-.88-4-5.67-25.27-5.61-33.83.06-9.17,4-27.71,1.8-36.65-9.77-39.58-123.53-39.66-133.32,0-2.21,8.94,1.75,27.48,1.81,36.65,0,8.56-4.74,29.82-5.62,33.83-11,50.33,70.35,73.38,70.35,73.38S474.46,513.36,463.42,463Z"/><path class="cls-8" d="M432,448.18c16.16,5.22,23.21,9.63,27.05,16.56,3.11,5.62,6,18.48,6.27,24.9.54,15.07-7.77,52.94-21.93,65.58-14.4,12.86-84.8,12.86-99.2,0-14.15-12.64-22.47-50.51-21.93-65.58.24-6.42,3.17-19.28,6.28-24.9,3.84-6.93,10.88-11.34,27-16.56,18.49-6,37.29-5,37.29-5S413.52,442.2,432,448.18Z"/><path class="cls-5" d="M277.94,408.47c-9.7-15-32.38-8.32-40.5-5.46s-23.15,12.15-30.55,16.69c-18.94,11.64-75.51,47.88-96.36,54.1-14.58,4.35,7.52,25,7.52,25s15.52-9,25.69-12.62c21.36-7.59,52.08-11.55,87.86-22.83,9.41-3,27.21-12.24,34.87-18.26C287.89,428.2,280.76,412.83,277.94,408.47Z"/><path class="cls-2" d="M335.1,297c2.77,27.54-14.91,54.37-14.91,54.37s-28.3,55.47-37.45,74.1c-4.31,8.78-13,27.24-35.18,17.11h0c-18.31-8.36-13.33-27.42-10-36.22,6.71-17.9,24-52.75,27.52-71.33,2.58-13.84,1.17-36.18,18.12-53.31,0,0,12.34-15.55,31.43-9.4l.76.24A28.7,28.7,0,0,1,335.1,297Z"/><path class="cls-5" d="M669.47,467.91s18.46-7,21.5-6.81,15.78,3.23,18.16,2.95,16.55-5.31,16.77-3.53.14,8.74.14,8.74l-11.39,5.59-14.75.26,18.25,13.8s27.37,13.84,29.2,14.25-1.08,8.91-1.08,8.91l-34.66-14.83,32.31,25.37-6,7.67-34.31-26.95,29.61,32.94-8.83,4.38-27.25-28.4,14.59,26s-8,4-9.11,2-17-23.59-17-23.59l-27.8-22.91-1.4-9.18Z"/><path class="cls-5" d="M512.37,408.47c9.7-15,32.38-8.32,40.5-5.46S576,415.16,583.41,419.7c19,11.64,75.52,47.88,96.36,54.1,14.59,4.35-7.51,25-7.51,25s-15.52-9-25.69-12.62c-21.37-7.59-52.09-11.55-87.86-22.83-9.41-3-27.22-12.24-34.87-18.26C502.42,428.2,509.54,412.83,512.37,408.47Z"/><path class="cls-2" d="M455.21,297c-2.77,27.54,14.91,54.37,14.91,54.37s28.3,55.47,37.44,74.1c4.31,8.78,13,27.24,35.19,17.11h0c18.31-8.36,13.33-27.42,10-36.22-6.7-17.9-24-52.75-27.51-71.33-2.58-13.84-1.17-36.18-18.12-53.31,0,0-12.34-15.55-31.44-9.4l-.75.24A28.69,28.69,0,0,0,455.21,297Z"/></g><g id="Calque_7" data-name="Calque 7"><path class="cls-9" d="M330.34,248.88l65.62,22,61.14-23.68,55.28,27.35,28.55,81.21,14,50,87.76,42.51-26.14,35.26L505.45,441.67l-30.24-45,2.93,46.25,4.91,123.23s-194.62-16.79-189.38-19.41,11.22-120,11.79-122.59-2.36-34.35-2.36-34.35-18.88,55.7-23.27,59.26-106.18,34.54-106.18,34.54l-22-35.26,82.67-58.54c1.35-16.48,38.62-112,41.94-113.3S330.34,248.88,330.34,248.88Z"/></g></svg>