<svg id="Calque_1" data-name="Calque 1" xmlns="http://www.w3.org/2000/svg" viewBox="0 0 788 371.04"><defs><style>.cls-1{fill:#d48f72;}.cls-2{fill:#bf7764;}.cls-3{fill:none;stroke:#000;stroke-miterlimit:10;stroke-width:3px;}.cls-4{fill:#ddd;}.cls-5{fill:#d79072;}.cls-6{fill:#473415;}.cls-7{fill:#9b1717;}.cls-8{fill:#5b3c25;}.cls-9{fill:#472e1d;}.cls-10{fill:#b81717;}.cls-11{fill:#fff;}.cls-12{fill:#898c68;}</style></defs><path class="cls-1" d="M411.2,227.12C422,233.6,433.47,259.4,446,262.06c4.44.94,13.35-4.86,15.8-8.42,8.91-12.93,4.6-49.3,17.19-59.27,10.65-8.45,36.25-3.62,36.86-39.17.36-21.62-26.87-31.92-33.53-34.12a31.09,31.09,0,0,1-3.17-1.24l-40.53-18.62c-9.57-4.39-15.68-13.38-15.82-23.28l-.23-16.72-27,1.91L369,61.22l.11,14.57c.09,11.18-6.72,21.42-17.53,26.39l-40.15,18.44s-35.41,9.95-35,34.58c.6,35.55,26.2,30.72,36.85,39.17,12.59,10,8.28,46.34,17.19,59.27,2.45,3.56,11.36,9.36,15.8,8.42,12.51-2.66,23.52-29.24,34.77-34.94C387.63,223.76,404.88,223.3,411.2,227.12Z"/><polygon class="cls-1" points="398.26 56.27 423.26 59.98 424.26 113.69 396.76 143.79 369.57 113.69 370.57 59.98 398.26 56.27"/><path class="cls-2" d="M398.51,29.42l25.94,3.7L423.38,78l-14,13.26S385,109.55,376.57,105.91c-7-3-17.83-8.52-17.83-8.52s7.16-5.58,9.94-17.13c.49-2,.4-5.06.34-8.33-.62-36,.78-38.9.77-38.81Z"/><path class="cls-3" d="M456.2,148.21c-1.33,25.61,17.73,49.57,17.73,49.57s31.16,49.92,41.26,66.71c4.77,7.92,14.38,24.57,36,14.12h0c17.85-8.61,11.88-26,8.13-34C551.72,228.4,532.58,197,528.15,180c-3.3-12.68-3.06-33.41-20.88-48.44,0,0-13.14-13.78-31.88-7.17l-.74.26c-10.66,3.76-17.9,13-18.45,23.56Z"/><path class="cls-3" d="M465.74,305.7c-.88-3.72-5.67-23.41-5.62-31.33.06-8.49,4-25.66,1.81-34-9.77-36.65-123.54-36.72-133.32,0-2.21,8.29,1.74,25.46,1.8,34,.06,7.92-4.73,27.61-5.62,31.33-11,46.61,70.35,68,70.35,68S476.78,352.31,465.74,305.7Z"/><path class="cls-4" d="M434.32,292c16.16,4.83,23.2,8.91,27,15.34,3.11,5.2,6,17.11,6.27,23,.55,14-7.77,49-21.92,60.74-14.41,11.91-84.8,11.91-99.2,0-14.16-11.7-22.47-46.78-21.93-60.74.23-5.94,3.16-17.85,6.27-23,3.84-6.43,10.89-10.51,27-15.34,18.49-5.54,37.3-4.66,37.3-4.66S415.83,286.41,434.32,292Z"/><path class="cls-5" d="M207.5,248.73c-19.56,3.34-29.91-16.35-33.21-23.71s-6.06-23.61-7.44-31.59c-3.53-20.44-6.6-55.19-10.34-75.13-2.46-13.12-4.16-20,4.47-23.65,7.85-3.36,14.78,8,17.55,12.41,11.41,18.2,34.19,53.48,42.71,74.29,3.5,8.54,8.85,26.41,9.15,35.54C231.24,242.44,213.19,247.76,207.5,248.73Z"/><path class="cls-3" d="M333.71,165.13C321.8,188.28,292.78,201,292.78,201s-52.95,30.34-70.43,40.71c-8.23,4.89-25.22,15.35-38.95-3.34h0c-11.33-15.41,2.81-28.11,10.19-33.5,15-11,47.9-30.23,60.5-43.28,9.38-9.72,19.75-28.1,43.13-33.53,0,0,18.61-6.39,31.75,7.64l.52.56a25,25,0,0,1,4.22,28.83Z"/><polygon class="cls-6" points="316.71 347.35 318.21 326.51 473.21 326.51 475.21 344.57 316.71 347.35"/><path class="cls-5" d="M562.06,248.62c-9-16.42-32.21-12.05-40.52-10s-23.93,9.9-31.61,13.74c-19.66,9.83-51.32,28.71-70.69,38.08-12.74,6.17-19.64,9.08-17.56,17.66,1.9,7.82,15.84,6,21.32,5.36,22.53-2.68,66.64-7.38,89.65-13.76,9.45-2.63,28-9.56,36-14.89C571.1,269.9,564.69,253.39,562.06,248.62Z"/><path class="cls-1" d="M173.6,97.06l-4.09-18.73-13-23.4S152,58,151.56,59.62c-1.24,5,1.88,12.65,3.51,17.55.22.65-.59,3.68-1.2,4.06-2.5,1.58-7.27-2.36-7.27-2.36L157,95.34Z"/><path class="cls-1" d="M168.41,93.22l-16.25,12.69L120.07,76.13,100.59,35.37s6.57-1.28,8.5-.46c10.08,4.28,19.72,24.75,26.81,32.63C143.55,76,168.41,93.22,168.41,93.22Z"/><ellipse class="cls-1" cx="161.67" cy="99.16" rx="12.15" ry="11.21" transform="translate(-1.56 2.59) rotate(-0.91)"/><path class="cls-4" d="M345,106.73c1.34-1.25,17.42-18.83,18.88-18.81.67,0,13.77,29.29,29,29.68,18.46.48,36.1-29.68,36.1-29.68l8.94,13,5,148.66-98,1.24Z"/><path class="cls-4" d="M160.1,155.35l-5.58-28.7s28-17.7,29.5-16.85,8.45,19.39,8.45,19.39Z"/><path class="cls-7" d="M385.53,133l18.28,0s14.22,62.73,13.56,64.64-9.3,49.42-9.17,50.56S395.62,263,395.62,263s-12.79-17.11-13.44-19-4.67-43-5.68-44.48S385.53,133,385.53,133Z"/><path class="cls-8" d="M483.19,314.37l17.86,81.54a3.86,3.86,0,0,1-3.58,4.55c-16.62,1.69-58,13-72.66,8.87-8.54-2.39-16.69-23-18.14-27.5a6.92,6.92,0,0,1-.62-1.88c-.54-14.36-6.79-157.27-4.13-177.67S424.09,119.11,429,98.64c.58-2.37,1.17-4.57,1.17-4.57L484,117l.24.1,25.52,9.13a4,4,0,0,1,2,1.54l14.14,21a4,4,0,0,1,.4.76l39.29,103.87a3.71,3.71,0,0,1-2.15,4.72l-83.95,36.06a3.72,3.72,0,0,0-2.15,4.73l5.74,15A2.29,2.29,0,0,1,483.19,314.37Z"/><path class="cls-8" d="M362,93.49s29.53,93.87,29.53,108.24.32,169.37-7.46,177.91-20.43,25.1-34,25.1-46.58-7.31-46.58-7.31c-7-1.1-11.5-7.43-9.87-13.8l15.81-80.52,5.54-50-9.28-55.74s-98.5,57.81-101.82,57.26c-21.11-3.49-30.27-24.44-30.27-24.44l-27-78.88s42.67-27.93,43.84-28.73c4-2.74,30.8,58.2,30.8,58.2l55.15-51.25Z"/><path class="cls-9" d="M360.94,90l-9.84,8.06-6.23,85.66L362,191.66v19.08s26,75.84,27.57,73.53,2-70.25,2-70.25V201.73l-15.1-60.65Z"/><path class="cls-10" d="M380.61,124.65c.92-1.63,6.73-12.24,8.88-14.17,1.69-1.52,11.76,0,11.76,0l8.94,13.12s-3.71,8.9-6.57,10.14c-1.49.64-8.81.38-17.22,0C384.11,133.63,381.43,125.28,380.61,124.65Z"/><path class="cls-9" d="M431.44,91.34l8.06,6.74,6.23,85.66-17.13,7.92v19.08s-26,75.84-27.58,73.53-2-70.25-2-70.25V201.73l15.1-60.65Z"/><path class="cls-11" d="M423.63,80.26l7.81,11.08L412.27,131s-7.76-16.68-11-20.49C399.81,108.8,423.63,80.26,423.63,80.26Z"/><polygon class="cls-12" points="375.39 214.2 382.88 341.14 487 336.77 498.57 212.78 375.39 214.2"/><path class="cls-11" d="M368.69,80.26,360.94,90l18,41s7.06-16.67,11.8-21C392.43,108.47,368.69,80.26,368.69,80.26Z"/><polygon class="cls-1" points="418.21 291.32 398.65 278.79 376.43 273.75 379.39 281.96 389.57 286.32 393.7 292.19 379.99 292.54 379.67 283.13 373.33 282.3 362 295.28 366.41 323.21 385.76 329.61 419.93 314.16 429.81 311.26 450.17 306.64 433.08 287.24 424.23 290.5 418.21 291.32"/><path class="cls-4" d="M463.93,315.56l-31.37,2s-16.3-26.55-15.23-27.8S439,284.27,439,284.27Z"/><path class="cls-8" d="M429.3,285.33c2.67,3.91,25.49,52.67,27.35,50.72S554.85,282,554.85,282l.23-.13a19.32,19.32,0,0,0,10.16-16.22l.29-11.31s-21.83-17.78-24.13-17.78-39.28,8.95-42.67,8.58S429.3,285.33,429.3,285.33Z"/><ellipse class="cls-9" cx="159.2" cy="157.35" rx="4.68" ry="4.34"/><ellipse class="cls-9" cx="163.88" cy="171.57" rx="4.68" ry="4.34"/><ellipse class="cls-9" cx="478.46" cy="311.64" rx="4.68" ry="4.34"/><ellipse class="cls-9" cx="463.93" cy="320.31" rx="4.68" ry="4.34"/></svg>