<svg id="Calque_1" data-name="Calque 1" xmlns="http://www.w3.org/2000/svg" viewBox="0 0 788 371.04"><defs><style>.cls-1{fill:#d48f72;}.cls-2{fill:#a85d3d;}.cls-3{fill:#d79072;}.cls-4{fill:#da9172;}.cls-5{fill:#823f1d;}.cls-6{fill:#00b9a7;}</style></defs><path class="cls-1" d="M423,283.06c10.75,6.48,22.27,32.28,34.77,34.94,4.44.95,13.35-4.86,15.8-8.42,8.91-12.93,4.6-49.29,17.19-59.27,10.66-8.45,23.26-9.17,23.86-44.73C515,184,500.79,179.22,494.13,177a32,32,0,0,1-3.17-1.24l-40.53-18.62c-9.57-4.39-15.68-13.38-15.82-23.27l-.23-16.73-27,1.91-26.62-1.91.11,14.57c.09,11.18-6.72,21.42-17.53,26.39l-40.15,18.44s-19.41,7.17-19,31.8c.6,35.56,10.2,33.5,20.86,41.95,12.58,10,8.28,46.34,17.18,59.27,2.45,3.56,11.36,9.37,15.81,8.42,12.5-2.66,23.51-29.24,34.76-34.94C399.47,279.7,416.72,279.24,423,283.06Z"/><polygon class="cls-1" points="409.29 112.21 434.29 115.92 435.29 169.63 407.79 199.73 380.61 169.63 381.61 115.92 409.29 112.21"/><path class="cls-2" d="M409.29,85.36l25,3.7.23,46.26,1.27,5.84s-41.88,48.31-50,44.68c-6.75-3-14.84-32.51-14.84-32.51s6.9-5.58,9.58-17.13,1.07-47.14,1.07-47.14Z"/><path class="cls-3" d="M465.49,183.23c22.18-15.33,54.28-14.09,54.28-14.09s62.13-4,82.81-5.6c9.74-.77,30-2.69,32.78,19.77h0c2.26,18.53-16.65,23.66-25.88,25.24-18.8,3.21-57.61,6.06-75.32,12.17-13.19,4.55-31.61,16.32-55,11,0,0-19.68-2.38-24.24-20.47l-.18-.72c-2.6-10.28,1.64-21,10.78-27.33Z"/><path class="cls-3" d="M598.14,204.56c-17.91-8-13.67-29.58-11.63-37.32s10.2-22.36,14.19-29.55c10.22-18.41,29.95-48.1,39.67-66.23,6.4-11.92,9.4-18.37,18.71-16.61,8.47,1.59,6.81,14.54,6.22,19.62-2.43,20.92-6.61,61.85-13,83.29-2.64,8.81-9.74,26.15-15.33,33.67C621.3,212.49,603.34,206.89,598.14,204.56Z"/><path class="cls-4" d="M348.72,185.33c-22.19-15.33-54.29-14.1-54.29-14.1s-62.12-4-82.8-5.6c-9.75-.76-30-2.69-32.78,19.78h0c-2.27,18.52,16.64,23.66,25.88,25.24,18.79,3.21,57.6,6.06,75.31,12.16,13.19,4.55,31.62,16.33,55,11,0,0,19.68-2.39,24.24-20.48l.18-.71c2.59-10.29-1.64-21-10.78-27.33Z"/><path class="cls-3" d="M216.06,206.66c17.91-8,13.67-29.58,11.63-37.33S217.49,147,213.5,139.79c-10.22-18.41-29.94-48.11-39.67-66.23-6.39-11.92-9.39-18.38-18.71-16.62-8.47,1.6-6.8,14.54-6.21,19.63,2.43,20.92,6.6,61.85,13,83.29,2.64,8.8,9.75,26.14,15.34,33.67C192.9,214.59,210.86,209,216.06,206.66Z"/><path class="cls-4" d="M146.4,67.48a31.77,31.77,0,0,1-3.14-12.12l-1.39-22.31a7.2,7.2,0,0,1,2-5.09h0a10.78,10.78,0,0,1,7.65-3.12l20.69-2.92c3.44-.09,5.12.71,6.59,3.35l-.54,6s1.86,8.2,2,5.74c.38-8.66,1.86-14.53,10-13.69l-1.45,14.37c.11,1.18-1.21,3.57-1.85,4.59-2,3.21-3.39,10.64-5.44,13.16,0,0-10,9.46-11.08,11.72-1.14,2.43,1.23,5.6,1.23,5.6h0c-.73,5.24-6.32,8.66-11.81,7.24l-8.77-2.28Z"/><path class="cls-5" d="M178.8,25.26l-1.29,11.67L169.62,49l-8-1.23,1.3,1a9.07,9.07,0,0,1,3.68,8.43l-.52,4L171,52.1l2.58-1.7,7.13-13.69-.34-6.14Z"/><path class="cls-3" d="M666,67.48a31.77,31.77,0,0,0,3.14-12.12l1.38-22.31a7.15,7.15,0,0,0-2-5.09h0a10.82,10.82,0,0,0-7.65-3.12l-20.7-2.92c-3.43-.09-5.11.71-6.58,3.35l.54,6s-1.87,8.2-2,5.74c-.39-8.66-1.86-14.53-10-13.69l1.46,14.37c-.11,1.18,1.21,3.57,1.84,4.59,2,3.21,3.4,10.64,5.45,13.16,0,0,10,9.46,11.07,11.72,1.14,2.43-1.23,5.6-1.23,5.6h0c.74,5.24,6.32,8.66,11.82,7.24l8.77-2.28Z"/><path class="cls-5" d="M633.63,25.26l1.29,11.67L642.82,49l8-1.23-1.29,1a9.06,9.06,0,0,0-3.69,8.43l.52,4-4.86-9.11-2.58-1.7-7.13-13.69.34-6.14Z"/><path class="cls-6" d="M275.6,167.86l28,81.73s12.74,47.53,14.7,64.69c2.19,19.24,6.84,80.17,6.84,80.17l-1.35,25L494,423.54S490.21,363,493.49,324c1.48-17.56,14.92-70.06,14.92-70.06l29.07-86.39L469,164.81l-59.12,30-59.12-32.53Z"/></svg>