<svg xmlns="http://www.w3.org/2000/svg" xmlns:xlink="http://www.w3.org/1999/xlink" viewBox="0 0 788 1005"><defs><style>.cls-1,.cls-15,.cls-6{fill:none;}.cls-2{clip-path:url(#clip-path);}.cls-3{fill:#a85b3b;}.cls-4{clip-path:url(#clip-path-2);}.cls-5{clip-path:url(#clip-path-3);}.cls-17,.cls-20,.cls-6{stroke:#000;}.cls-15,.cls-20,.cls-6{stroke-linecap:round;}.cls-15,.cls-17,.cls-20,.cls-6{stroke-miterlimit:10;}.cls-15,.cls-6{stroke-width:2px;}.cls-7{clip-path:url(#clip-path-4);}.cls-8{fill:#1a1818;}.cls-9{fill:#473415;}.cls-10{fill:#fff;}.cls-11{fill:#472e1d;}.cls-12{fill:#5c1b00;}.cls-13{fill:#26130c;}.cls-14{clip-path:url(#clip-path-5);}.cls-15{stroke:#9e5b3e;}.cls-16{clip-path:url(#clip-path-6);}.cls-17{fill:#080808;}.cls-18{clip-path:url(#clip-path-7);}.cls-19{clip-path:url(#clip-path-8);}.cls-20{fill:#0a0a0a;}.cls-21{fill:#4a5c70;}.cls-22{fill:#36344d;}</style><clipPath id="clip-path"><polygon class="cls-1" points="429.72 177.02 429.72 177.02 446.06 177.02 446.06 209.96 429.72 209.96 429.72 177.02"/></clipPath><clipPath id="clip-path-2"><polygon class="cls-1" points="358.28 177.02 358.28 177.02 341.94 177.02 341.94 209.96 358.28 209.96 358.28 177.02"/></clipPath><clipPath id="clip-path-3"><rect class="cls-1" x="415.34" y="170.22" width="22.15" height="6.68"/></clipPath><clipPath id="clip-path-4"><rect class="cls-1" x="376.05" y="170.22" width="22.15" height="6.68"/></clipPath><clipPath id="clip-path-5"><rect class="cls-1" x="407.44" y="195.15" width="18.62" height="5.29"/></clipPath><clipPath id="clip-path-6"><rect class="cls-1" x="362.93" y="195.15" width="18.62" height="5.29"/></clipPath><clipPath id="clip-path-7"><rect class="cls-1" x="402.57" y="170.22" width="22.15" height="6.68"/></clipPath><clipPath id="clip-path-8"><rect class="cls-1" x="363.28" y="170.22" width="22.15" height="6.68"/></clipPath></defs><g id="Calque_1" data-name="Calque 1"><g id="random" data-name="&lt;Repetition miroir&gt;"><g class="cls-2"><path class="cls-3" d="M429.72,210l3-28.25s6.56-7.84,12.25-3.25c3.78,3-3.13,28.22-7.5,29.5C430,210.14,429.72,210,429.72,210Z"/></g></g><g id="random2" data-name="&lt;Repetition miroir&gt;"><g class="cls-4"><path class="cls-3" d="M358.28,210l-3-28.25s-6.56-7.84-12.25-3.25c-3.78,3,3.13,28.22,7.5,29.5C358,210.14,358.28,210,358.28,210Z"/></g></g></g><g id="Calque_5" data-name="Calque 5"><g class="cls-5"><path class="cls-6" d="M416.34,174.5a14.89,14.89,0,0,1,20.16,1.39"/></g><g class="cls-7"><path class="cls-6" d="M397.21,174.5a14.89,14.89,0,0,0-20.16,1.39"/></g><polygon class="cls-8" points="230.32 514.01 230.22 514.05 230.22 513.97 230.32 514.01"/><polygon points="230.42 513.97 230.42 514.05 230.32 514.01 230.42 513.97"/><polygon class="cls-8" points="230.32 514.01 230.22 514.05 230.22 513.97 230.32 514.01"/><polygon points="230.42 513.97 230.42 514.05 230.32 514.01 230.42 513.97"/><polygon class="cls-9" points="316.71 487.89 318.21 467.05 473.21 467.05 475.21 485.11 316.71 487.89"/><path class="cls-10" d="M423.63,220.81l7.81,11.07-19.17,39.63s-7.76-16.68-11-20.49C399.81,249.34,423.63,220.81,423.63,220.81Z"/><path class="cls-10" d="M368.69,220.81l-7.75,9.75,18,40.95s7.06-16.67,11.8-21C392.43,249,368.69,220.81,368.69,220.81Z"/><ellipse class="cls-11" cx="463.93" cy="460.85" rx="4.68" ry="4.34"/><path class="cls-3" d="M205.77,256.47c-.62-2.43-17.46-48.59-17.46-48.59s20.79-9.78,20.18-12.21-5.26-36.16-5.26-36.16l9.11-2.3,7.1,40.86,4.93-31.62,9.28,3.47-2.48,38.76,7.94,13.5-12.39,29Z"/><polygon class="cls-12" points="227.91 535.66 228.01 535.62 227.91 535.57 227.91 535.66"/><polygon class="cls-12" points="228.01 535.62 228.11 535.66 228.11 535.57 228.01 535.62"/><polygon class="cls-12" points="227.91 535.66 228.01 535.62 227.91 535.57 227.91 535.66"/><polygon class="cls-12" points="228.01 535.62 228.11 535.66 228.11 535.57 228.01 535.62"/><path class="cls-3" d="M513.5,299.94c-.6,38.39-26.2,33.17-36.86,42.29-12.58,10.77-8.27,50-17.18,64-2.45,3.84-11.36,10.1-15.8,9.08-12.51-2.87-24-30.73-34.77-37.73-6.33-4.12-23.57-3.62-30.19,0-11.25,6.16-22.27,34.86-34.77,37.73-4.44,1-13.35-5.24-15.8-9.08-8.91-14-4.6-53.24-17.19-64-10.65-9.12-36.25-3.9-36.86-42.29-.41-26.59,35-37.34,35-37.34l40.15-19.91a31.4,31.4,0,0,0,7.1-4.82,29.11,29.11,0,0,0,2.29-2.29l.63-.71.05-.06a31.55,31.55,0,0,0,7.22-16.43,30.71,30.71,0,0,0,.25-4.19l0-2.84,0-4.51h53.63l.06,5,0,1.5,0,3.21c0,.33,0,.67,0,1v0c0,.65.09,1.3.16,1.95a29.38,29.38,0,0,0,.93,4.57,28.5,28.5,0,0,0,14.7,17.59l40.53,20.1a27.41,27.41,0,0,0,3.16,1.33C486.64,265.47,513.87,276.6,513.5,299.94Z"/><path class="cls-12" d="M421.14,255.12l-27.5,32.5-14.8-17.69-12.39-14.81.72-41.56,0-2.21.08-4.51h53v.23l.08,4.66v0l0,1.56.07,4.21v0l0,1.28.12,6.79Z"/><path class="cls-12" d="M421.64,224.37s5.07,9.62,4.42,10.43c-5.16,6.33,6.82,30.31-17.12,40.25-3.63,1.51-35.84-1.73-37.3-2.43-6.76-3.26-35.21-23.07-35.21-23.07s20.42-12.07,20.45-12.1a21,21,0,0,0,1.73-1.87q.48-.57,1.05-1.32l.06-.08A39.39,39.39,0,0,0,366.38,219c0-.21.09-.42.13-.64.26-1.37.48-3,.66-4.82.07-.71.13-1.45.19-2.21.11-1.42.2-2.94.28-4.51h52.67v.23l0,4.28,0,6.72.15.76.14.67.93,4.57Z"/><path class="cls-12" d="M455.63,306.66c11.91,25,40.93,38.78,40.93,38.78s53,32.76,70.43,44c8.24,5.27,25.22,16.57,39-3.61h0c11.33-16.64-2.81-30.36-10.19-36.18-15-11.83-47.91-32.64-60.5-46.73-9.38-10.5-19.75-30.34-43.13-36.2,0,0-18.61-6.9-31.75,8.25l-.52.6a28.68,28.68,0,0,0-4.23,31.13Z"/><path class="cls-3" d="M591.94,351.86c-18.56-7.17-32.67,11.81-37.39,19S543.87,394.79,540.92,403c-7.55,21-17.53,57.34-25.2,77.8-5,13.46-8.08,20.41-.34,25.92,7,5,16.12-5.74,19.73-9.92C550,479.62,579.42,446.4,592,425.91c5.15-8.42,14-26.39,16.11-36C614,362.94,597.33,353.94,591.94,351.86Z"/><path class="cls-3" d="M215.76,416.61c17.73-2.25,21.52-25.59,22.44-34.15s-.93-26.12-1.82-34.76c-2.29-22.11-10.49-88.8-7.08-110.28,2.39-15-25.76-4-25.76-4s1.41,17.9.26,28.62c-2.4,22.55-12.13,51.95-17.44,89.09-1.4,9.76-.74,29.83,1.38,39.34C193.67,417,210.61,417.27,215.76,416.61Z"/><path class="cls-12" d="M333,307c-8.55,26.33-35.52,43.78-35.52,43.78s-48.23,39.39-64.1,52.77c-7.48,6.31-22.84,19.72-39.09,1.51h0c-13.4-15-1.17-30.47,5.38-37.2,13.34-13.69,43.24-38.61,53.89-54.23,7.93-11.63,15.62-32.65,38-41.52,0,0,17.55-9.26,32.56,4.05l.59.52A28.7,28.7,0,0,1,333,307Z"/><polygon class="cls-3" points="508.8 490.66 504.66 497.35 508.02 509.85 512 521.92 517.58 515.9 527.73 508.87 508.8 490.66"/><polygon class="cls-11" points="506.08 495 515.41 479.25 535.88 501.16 524.63 513.88 506.08 495"/><path class="cls-3" d="M383.24,254.94l-22.63-24.42-5.5-27-1.5-24.2v-6.34A38.91,38.91,0,0,1,392.53,134H394a38.92,38.92,0,0,1,38.92,38.92v6.34l-1.5,24.2-5.5,27-22.64,24.42Z"/><path class="cls-13" d="M429.63,149.22c12,10.39,6.63,29.47,6.63,29.47l-3.92,10.83s.84-5.33-6.19-20.34c-1.66-3.54,1.87-13-.23-16.62-4.64-7.9-9.35-11.07-9.35-11.07S421.57,142.22,429.63,149.22Z"/><path class="cls-13" d="M356.88,148.88c-12,10.22-6.62,29-6.62,29l3.91,10.66s-.84-5.24,6.19-20c1.66-3.48-1.87-12.82.23-16.35,4.64-7.77,9.35-10.89,9.35-10.89S364.94,142,356.88,148.88Z"/><g class="cls-14"><path class="cls-15" d="M408.44,196.87s4.6,2.56,8.31,2.57a13,13,0,0,0,8.31-3.29"/></g><g class="cls-16"><path class="cls-15" d="M380.55,196.87s-4.6,2.56-8.31,2.57a13.07,13.07,0,0,1-8.31-3.29"/></g><circle class="cls-10" cx="410.78" cy="187.12" r="6.75"/><circle class="cls-10" cx="375.92" cy="187.12" r="6.75"/><circle class="cls-17" cx="378" cy="187.26" r="4"/><circle class="cls-17" cx="412.94" cy="187.26" r="4"/><g class="cls-18"><path class="cls-6" d="M403.57,174.5a14.87,14.87,0,0,1,20.15,1.39"/></g><g class="cls-19"><path class="cls-6" d="M384.43,174.5a14.87,14.87,0,0,0-20.15,1.39"/></g><path class="cls-12" d="M401.89,209.35S397.2,213,394.47,213s-7-3.6-7-3.6,8.49-2.6,7.21.72C394,211.85,401.89,209.35,401.89,209.35Z"/><ellipse class="cls-20" cx="394.31" cy="228.81" rx="2.88" ry="4.5"/><path class="cls-13" d="M377.5,222.41c.12-3.33,9.84-7.1,18.56-5.95,8.9,1.17,16.41,7.4,15.76,9.11-.45,1.19-5.2.82-8.75-.35-5.15-1.7-5.14-4.19-8.41-4.56-5.71-.64-7.76,5-12.66,3.65C380.24,223.82,377.46,223.87,377.5,222.41Z"/><polygon class="cls-21" points="230.88 295.44 191.21 309.26 177.68 399.18 208.15 426.13 314.51 358.05 317.07 428.27 309.39 476.91 310.12 514.05 483.14 514.05 480.85 467.05 475.21 431.14 472.87 346.71 544.31 385.27 519.09 464.25 555.76 480.9 604.09 415.43 618.13 364.89 512.12 269.55 445.8 247.6 394.6 275.03 341.94 245.41 282.79 272.84 261.87 294.78 237.19 326.02 230.88 295.44"/><path class="cls-3" d="M518.56,503.09c2,3.2,3.06,9-3,14.84,0,0-17.63,20.22-25.4,24.34-3.48,1.84-12.79,6.26-15.38,3.3-7.33-8.38-12.07-28.61-9.72-41.72.7-3.94,9.41-8.06,13.33-8.82,4.31-.84,12.95,2.62,17.34,2.78a68,68,0,0,0,7.19-.4C508.84,496.87,515.78,498.73,518.56,503.09Z"/></g><g id="Calque_6" data-name="Calque 6"><path class="cls-13" d="M433.1,149.29q-1.08.48-2.37,1c10.52,10.58,5.52,28.44,5.52,28.44l-3.91,10.84s.84-5.33-6.19-20.35c-1.66-3.53,1.87-13-.23-16.62l-.35-.58c-10.47,3.17-25.31,6-33.68,6-7.09,0-25.44-3.05-31.85-4.15-.73,4.2,1.77,11.7.32,14.74-7,14.76-6.19,20-6.19,20l-3.92-10.66s-2.63-9.24-.06-18.28a14.48,14.48,0,0,1,.41-4.34c.83-2.68,5.6-7.75,5.6-7.75s-.59-4.86.09-6.14c3.69-7,23.65-12.85,33.76-13,22.2-.37,28.47,10.44,39.07,11.77,3.79.48,15.06-2.21,15.06-2.21A20.78,20.78,0,0,1,433.1,149.29Z"/><g class="cls-14"><path class="cls-15" d="M408.44,196.87s4.6,2.56,8.31,2.57a13,13,0,0,0,8.31-3.29"/></g><g class="cls-16"><path class="cls-15" d="M380.55,196.87s-4.6,2.56-8.31,2.57a13.07,13.07,0,0,1-8.31-3.29"/></g></g><g id="Calque_7" data-name="Calque 7"><polygon class="cls-22" points="506.08 495 515.41 479.25 535.88 501.16 524.63 513.88 506.08 495"/></g></svg>