<svg xmlns="http://www.w3.org/2000/svg" viewBox="0 0 788 371.04"><defs><style>.cls-1{fill:#1a1818;}.cls-2,.cls-4,.cls-8{fill:none;}.cls-2{stroke:#000;stroke-width:3px;}.cls-2,.cls-4{stroke-miterlimit:10;}.cls-3{fill:#473415;}.cls-4{stroke:#4f3742;}.cls-5{fill:#d79072;}.cls-6{fill:#d08d72;}.cls-7{fill:#a45c3d;}.cls-9{fill:#64b4b5;}</style></defs><g id="Calque_1" data-name="Calque 1"><polygon class="cls-1" points="251.46 317.33 251.36 317.37 251.36 317.28 251.46 317.33"/><polygon points="251.56 317.28 251.56 317.37 251.46 317.33 251.56 317.28"/><polygon class="cls-1" points="251.46 317.33 251.36 317.37 251.36 317.28 251.46 317.33"/><polygon points="251.56 317.28 251.56 317.37 251.46 317.33 251.56 317.28"/><path class="cls-2" d="M455.45,235.81c16.16,4.84,23.2,8.92,27.05,15.34,3.11,5.2,6,17.12,6.27,23.06.54,14-7.77,49-21.93,60.73-14.4,11.91-84.8,11.91-99.2,0-14.16-11.7-22.47-46.78-21.93-60.73.23-5.94,3.16-17.86,6.27-23.06,3.85-6.42,10.89-10.5,27-15.34,18.49-5.54,37.29-4.66,37.29-4.66S437,230.27,455.45,235.81Z"/><polygon class="cls-3" points="337.84 291.21 339.34 270.37 494.34 270.37 496.34 288.43 337.84 291.21"/><polygon class="cls-4" points="415.71 326.91 410.71 289.87 425.71 289.87 424.71 319.76 415.71 326.91"/><path class="cls-5" d="M142,271.23s-18.46-7-21.5-6.81-15.78,3.23-18.16,2.95-16.55-5.31-16.77-3.53-.14,8.73-.14,8.73l11.39,5.6,14.75.26-18.25,13.8s-27.37,13.84-29.2,14.25,1.08,8.91,1.08,8.91l34.66-14.83L67.52,325.93l6,7.67,34.31-27-29.6,32.94L87.07,344l27.25-28.4-14.59,26s8,4,9.11,2,17-23.59,17-23.59l27.79-22.91,1.4-9.18Z"/><polygon points="249.04 339.56 249.14 339.52 249.04 339.47 249.04 339.56"/><polygon points="249.14 339.52 249.24 339.56 249.24 339.47 249.14 339.52"/><polygon points="249.04 339.56 249.14 339.52 249.04 339.47 249.04 339.56"/><polygon points="249.14 339.52 249.24 339.56 249.24 339.47 249.14 339.52"/><path class="cls-6" d="M534.63,103.84c-.6,38.39-26.2,33.17-36.86,42.29-12.58,10.77-8.27,50-17.18,64-2.45,3.84-11.36,10.1-15.8,9.08-12.51-2.87-24-30.73-34.77-37.73-6.33-4.12-23.57-3.62-30.19,0-11.25,6.16-22.27,34.86-34.77,37.73-4.44,1-13.35-5.24-15.8-9.08-8.91-14-4.6-53.24-17.19-64-10.65-9.12-36.25-3.9-36.86-42.29-.41-26.59,35-37.34,35-37.34l40.15-19.91a31.4,31.4,0,0,0,7.1-4.82,29.11,29.11,0,0,0,2.29-2.29l.63-.71.05-.06a31.55,31.55,0,0,0,7.22-16.43,30.71,30.71,0,0,0,.25-4.19l0-2.84,0-4.51h53.63l.06,5,0,1.5,0,3.21c0,.33,0,.67,0,1v0c0,.65.09,1.3.16,1.95a29.38,29.38,0,0,0,.93,4.57,28.5,28.5,0,0,0,14.7,17.59l40.53,20.1A27.41,27.41,0,0,0,501.1,67C507.77,69.37,535,80.5,534.63,103.84Z"/><path class="cls-6" d="M442.27,59l-27.5,32.5L400,73.83,387.58,59l.72-41.56,0-2.21.08-4.51h53V11l.08,4.66v0l0,1.56.07,4.21v0l0,1.28.12,6.79Z"/><path class="cls-7" d="M442.77,28.27l-1,1.25c-5.16,6.33-28.83,35-41.79,44.31-3.2,2.29-5.74,3.39-7.2,2.69-6.76-3.26-14.84-35.1-14.84-35.1l.08-.07a21,21,0,0,0,1.73-1.87q.48-.57,1.05-1.32l.06-.08a39.39,39.39,0,0,0,6.66-15.16c0-.21.09-.42.13-.64.26-1.37.48-3,.66-4.82.07-.71.13-1.45.19-2.21.11-1.42.2-2.94.28-4.51h52.67V11l0,4.28,0,6.72.15.76.14.67.93,4.57Z"/><path class="cls-2" d="M484.56,266.35c-.88-4-5.67-25.27-5.62-33.83.06-9.17,4-27.71,1.81-36.65-9.77-39.58-123.54-39.66-133.33,0-2.21,8.94,1.75,27.48,1.81,36.65,0,8.56-4.74,29.82-5.62,33.83-11,50.33,70.35,73.38,70.35,73.38S495.59,316.68,484.56,266.35Z"/><path class="cls-8" d="M453.14,251.5c16.15,5.22,23.2,9.63,27,16.56,3.11,5.62,6,18.48,6.27,24.9.55,15.07-7.77,52.94-21.93,65.58-14.4,12.86-84.79,12.86-99.19,0C351.17,345.9,342.85,308,343.4,293c.23-6.42,3.16-19.28,6.27-24.9,3.84-6.93,10.89-11.34,27-16.56,18.49-6,37.3-5,37.3-5S434.65,245.52,453.14,251.5Z"/><path class="cls-5" d="M299.08,211.79c-9.71-15-32.39-8.32-40.5-5.46S235.43,218.48,228,223c-18.95,11.64-75.52,47.88-96.36,54.1-14.58,4.35,7.51,25,7.51,25s15.52-9,25.69-12.62c21.37-7.59,52.09-11.55,87.86-22.83,9.41-3,27.22-12.24,34.87-18.26C309,231.52,301.9,216.15,299.08,211.79Z"/><path class="cls-2" d="M356.23,100.35c2.77,27.54-14.91,54.37-14.91,54.37s-28.3,55.47-37.44,74.1c-4.31,8.78-13,27.24-35.19,17.11h0c-18.31-8.36-13.33-27.42-10-36.22,6.7-17.9,24-52.75,27.51-71.33,2.58-13.84,1.17-36.18,18.13-53.31,0,0,12.34-15.55,31.43-9.4l.75.24a28.69,28.69,0,0,1,19.75,24.44Z"/><path class="cls-5" d="M690.6,271.23s18.46-7,21.51-6.81,15.77,3.23,18.15,2.95,16.56-5.31,16.77-3.53.15,8.73.15,8.73l-11.4,5.6-14.75.26,18.25,13.8s27.37,13.84,29.2,14.25-1.07,8.91-1.07,8.91l-34.67-14.83,32.32,25.37-6,7.67-34.31-27,29.6,32.94L745.5,344l-27.24-28.4,14.59,26s-8,4-9.11,2-17-23.59-17-23.59l-27.79-22.91-1.41-9.18Z"/><path class="cls-5" d="M533.5,211.79c9.71-15,32.38-8.32,40.5-5.46s23.15,12.15,30.55,16.69c18.94,11.64,75.51,47.88,96.36,54.1,14.58,4.35-7.52,25-7.52,25s-15.52-9-25.69-12.62c-21.36-7.59-52.08-11.55-87.86-22.83-9.41-3-27.21-12.24-34.87-18.26C523.55,231.52,530.68,216.15,533.5,211.79Z"/><path class="cls-2" d="M476.34,100.35c-2.77,27.54,14.91,54.37,14.91,54.37s28.3,55.47,37.45,74.1c4.31,8.78,13,27.24,35.18,17.11h0c18.31-8.36,13.33-27.42,10-36.22-6.71-17.9-24-52.75-27.52-71.33-2.58-13.84-1.17-36.18-18.12-53.31,0,0-12.34-15.55-31.43-9.4l-.76.24a28.7,28.7,0,0,0-19.75,24.44Z"/></g><g id="Calque_7" data-name="Calque 7"><path class="cls-9" d="M351.47,52.2l65.62,22,61.14-23.68L533.51,77.9l28.56,81.21,14,50,87.76,42.51L637.72,286.9,526.58,245l-30.24-45,2.93,46.25,4.91,123.23S309.56,352.65,314.8,350,326,230,326.59,227.45s-2.35-34.35-2.35-34.35S305.35,248.8,301,252.36,194.79,286.9,194.79,286.9l-22-35.26,82.68-58.54c1.35-16.48,38.62-112,41.93-113.3S351.47,52.2,351.47,52.2Z"/></g></svg>