<svg xmlns="http://www.w3.org/2000/svg" viewBox="0 0 788 1005"><defs><style>.cls-1{fill:#696e91;}.cls-2{fill:#d79072;}.cls-3{fill:#d08d72;}.cls-4{fill:#a45c3d;}.cls-5{fill:none;stroke:#000;stroke-miterlimit:10;stroke-width:3px;}.cls-6{fill:#c37958;}.cls-7{fill:#36344d;}.cls-8{fill:#473415;}.cls-9{fill:#472e1d;}.cls-10{fill:#cc9629;}.cls-11{fill:#9599ba;}</style></defs><g id="Calque_1" data-name="Calque 1"><path class="cls-1" d="M459.24,183.21c0,35.12-31.59,67.6-66.71,67.6s-62-45.27-62-80.39,25.22-13,60.34-13S459.24,148.08,459.24,183.21Z"/><path class="cls-2" d="M207.37,196.15c-.61-2.43-17.45-48.59-17.45-48.59s20.79-9.78,20.18-12.21-5.27-36.16-5.27-36.16l9.11-2.3,7.11,40.86L226,106.13l9.28,3.47-2.48,38.76,7.94,13.51-12.39,29Z"/><polygon points="229.52 475.34 229.62 475.3 229.52 475.25 229.52 475.34"/><polygon points="229.62 475.3 229.72 475.34 229.72 475.25 229.62 475.3"/><polygon points="229.52 475.34 229.62 475.3 229.52 475.25 229.52 475.34"/><polygon points="229.62 475.3 229.72 475.34 229.72 475.25 229.62 475.3"/><path class="cls-3" d="M515.11,239.62c-.6,38.39-26.2,33.17-36.86,42.29-12.58,10.77-8.27,50-17.18,64-2.45,3.84-11.36,10.1-15.8,9.08-12.51-2.87-24-30.73-34.77-37.73-6.33-4.12-23.57-3.62-30.19,0C369.06,323.43,358,352.13,345.54,355c-4.44,1-13.35-5.24-15.8-9.08-8.91-14-4.6-53.24-17.19-64-10.65-9.12-36.25-3.9-36.86-42.29-.41-26.59,35-37.34,35-37.34l40.15-19.91a31.4,31.4,0,0,0,7.1-4.82,29.11,29.11,0,0,0,2.29-2.29l.63-.71,0-.06a31.55,31.55,0,0,0,7.22-16.43,30.71,30.71,0,0,0,.25-4.19l0-2.84,0-4.51H422l.06,5,0,1.5,0,3.21c0,.33,0,.67,0,1v0c0,.65.09,1.3.16,2a29.38,29.38,0,0,0,.93,4.57,28.5,28.5,0,0,0,14.7,17.59l40.53,20.1a27.41,27.41,0,0,0,3.16,1.33C488.25,205.15,515.48,216.28,515.11,239.62Z"/><path class="cls-3" d="M422.75,194.8l-27.5,32.5-14.8-17.69L368.06,194.8l.72-41.56,0-2.21.08-4.51h53v.23l.08,4.66v0l0,1.56.07,4.21v0l0,1.28.12,6.79Z"/><path class="cls-4" d="M423.25,164.05l-1,1.25c-5.16,6.33-28.83,35-41.79,44.31-3.2,2.29-5.74,3.39-7.2,2.69-6.76-3.26-14.84-35.1-14.84-35.1l.08-.07a21,21,0,0,0,1.73-1.87q.48-.57,1-1.32l.06-.08A39.39,39.39,0,0,0,368,158.7c0-.21.09-.42.13-.64.26-1.37.48-3,.66-4.82.07-.71.13-1.45.19-2.21.11-1.42.2-2.94.28-4.51h52.67v.23l0,4.28,0,6.72.15.76.14.67.93,4.57Z"/><path class="cls-5" d="M457.24,246.35c11.91,25,40.93,38.77,40.93,38.77s52.95,32.76,70.43,44c8.24,5.27,25.22,16.57,39-3.61h0c11.32-16.64-2.82-30.36-10.2-36.17-15-11.84-47.9-32.65-60.49-46.74-9.38-10.5-19.75-30.34-43.14-36.2,0,0-18.61-6.9-31.75,8.25l-.52.6a28.69,28.69,0,0,0-4.22,31.14Z"/><path class="cls-2" d="M593.55,291.54c-18.56-7.17-32.67,11.81-37.39,19s-10.68,23.92-13.63,32.14c-7.56,21-17.53,57.34-25.2,77.8-5,13.46-8.09,20.41-.34,25.92,7,5,16.12-5.74,19.73-9.92,14.85-17.19,44.31-50.41,56.84-70.9,5.15-8.42,14-26.39,16.11-36C615.62,302.62,598.94,293.62,593.55,291.54Z"/><path class="cls-2" d="M217.37,356.3c17.73-2.26,21.51-25.6,22.44-34.16S238.88,296,238,287.38c-2.29-22.11-10.48-88.8-7.07-110.28,2.39-15-25.76-4-25.76-4s1.4,17.9.26,28.62c-2.41,22.55-12.13,52-17.44,89.09-1.4,9.77-.74,29.83,1.38,39.34C195.27,356.72,212.22,357,217.37,356.3Z"/><path class="cls-5" d="M334.65,246.63c-8.55,26.33-35.53,43.78-35.53,43.78S250.89,329.8,235,343.18c-7.48,6.31-22.84,19.72-39.1,1.51h0c-13.4-15-1.17-30.47,5.39-37.2,13.34-13.69,43.24-38.61,53.88-54.23,7.94-11.63,15.63-32.65,38.05-41.52,0,0,17.55-9.26,32.55,4l.6.52a28.7,28.7,0,0,1,8.25,30.32Z"/><path class="cls-2" d="M520.17,442.77c2,3.2,3.06,9-3,14.85,0,0-17.64,20.21-25.41,24.33-3.47,1.84-12.78,6.26-15.37,3.3-7.33-8.38-12.07-28.61-9.72-41.72.7-3.94,9.41-8.06,13.33-8.82,4.31-.84,12.95,2.62,17.34,2.78a65.48,65.48,0,0,0,7.19-.4C510.45,436.55,517.39,438.41,520.17,442.77Z"/><polygon class="cls-6" points="510.4 430.34 506.27 437.04 509.63 449.53 513.6 461.61 519.19 455.59 529.34 448.55 510.4 430.34"/><polygon class="cls-7" points="507.69 434.68 517.01 418.93 537.48 440.84 526.24 453.57 507.69 434.68"/></g><g id="Calque_7" data-name="Calque 7"><polygon points="230.22 479.54 230.32 479.5 230.22 479.45 230.22 479.54"/><polygon points="230.32 479.5 230.42 479.54 230.42 479.45 230.32 479.5"/><polygon points="230.22 479.54 230.32 479.5 230.22 479.45 230.22 479.54"/><polygon points="230.32 479.5 230.42 479.54 230.42 479.45 230.32 479.5"/><polygon class="cls-8" points="316.71 451.3 318.21 428.8 473.21 428.8 475.21 448.3 316.71 451.3"/><circle class="cls-9" cx="463.93" cy="422.1" r="4.68"/><polygon class="cls-10" points="233.21 232.81 193.54 246.63 180.01 336.55 210.48 363.5 316.84 295.42 319.4 365.63 311.72 414.27 312.45 451.42 482.17 449 470.81 401.11 463.49 361.98 475.19 284.08 546.64 322.63 521.42 401.62 558.09 418.26 606.42 352.79 620.46 302.26 504.45 206.91 448.13 184.97 396.93 212.4 344.27 182.78 285.12 210.21 264.2 232.15 239.52 263.39 233.21 232.81"/><path class="cls-11" d="M480.59,192.94S480.31,297,484,299s13.66,80.7,7.29,106.67c-1.61,6.58-10.29,18.19-10.71,24.92-.58,9.14,1.25,20.46,0,23-2.18,4.34-173.76,4.26-174.35,2.49s3.55-14.83,0-16-14.67-19.55-12.89-26.66,12.11-106.67,11.61-112-7.32-102.52-7.32-102.52,56.28-36,56.28-29.68,30.94,10.32,30.94,10.32l3.42,83.31s2.49,0,1.06-3.5c-1.79-4.38,1.08-78.62,2.67-79.81s39.68-9.09,39.68-9.09L484,190"/></g></svg>