<?xml version="1.0" encoding="utf-8"?>
<!-- Generator: Adobe Illustrator 26.0.1, SVG Export Plug-In . SVG Version: 6.00 Build 0)  -->
<svg version="1.1" id="Calque_1" xmlns="http://www.w3.org/2000/svg" xmlns:xlink="http://www.w3.org/1999/xlink" x="0px" y="0px"
	 viewBox="0 0 788 1005" style="enable-background:new 0 0 788 1005;" xml:space="preserve">
<style type="text/css">
	.st0{fill:#D48F72;}
	.st1{fill:#A85D3D;}
	.st2{fill:#D79072;}
	.st3{fill:#66463A;}
</style>
<g id="Calque_5">
	<polygon points="220.3,479.5 220.4,479.5 220.3,479.5 	"/>
	<polygon points="220.4,479.5 220.5,479.5 220.5,479.5 	"/>
	<polygon points="220.3,479.5 220.4,479.5 220.3,479.5 	"/>
	<polygon points="220.4,479.5 220.5,479.5 220.5,479.5 	"/>
	<path class="st0" d="M401.3,321.5c10.8,7,22.3,34.9,34.8,37.7c4.4,1,13.4-5.2,15.8-9.1c8.9-14,4.6-53.2,17.2-64
		c10.6-9.1,36.2-3.9,36.9-42.3c0.4-23.3-26.9-34.5-33.5-36.8c-1.1-0.4-2.1-0.8-3.2-1.3l-40.5-20.1c-9.6-4.7-15.7-14.5-15.8-25.1
		l-0.2-18.1l-27,2.1l-26.6-2.1l0.1,15.7c0.1,12.1-6.7,23.1-17.5,28.5l-40.2,19.9c0,0-35.4,10.7-35,37.3
		c0.6,38.4,26.2,33.2,36.9,42.3c12.6,10.8,8.3,50,17.2,64c2.5,3.8,11.4,10.1,15.8,9.1c12.5-2.9,23.5-31.6,34.8-37.7
		C377.7,317.9,395,317.4,401.3,321.5z"/>
	<polygon class="st0" points="387.6,137 412.6,141 413.6,199 386.1,231.5 358.9,199 359.9,141 	"/>
	<path class="st1" d="M387.6,108l25,4l0.2,49.9l1.3,6.3c0,0-19.4,41.4-49.7,34.3c-7.3-1.7-15.1-21.2-15.1-21.2s6.9-6,9.6-18.5
		s1.1-50.9,1.1-50.9L387.6,108z"/>
	<path class="st0" d="M447,227.5c21.8-17.1,53.9-16.5,53.9-16.5s62-5.8,82.6-8c9.7-1.1,30-3.6,33.3,20.6l0,0
		c2.7,19.9-16,25.9-25.2,27.9c-18.7,3.9-57.4,7.9-75,14.9c-13.1,5.2-31.2,18.4-54.7,13.2c0,0-19.7-2.1-24.8-21.5l-0.2-0.8
		C434,246.2,438,234.5,447,227.5z"/>
	<path class="st2" d="M594.4,247.6c-19.7,2.6-29-19.2-31.9-27.3s-4.8-25.8-5.7-34.4c-2.4-22.2-3.5-59.8-6.2-81.6
		c-1.7-14.3-3-21.7,5.8-25.3c8-3.2,14.3,9.4,16.8,14.3c10.4,20.2,31.2,59.4,38.5,82.3c3,9.4,7.4,28.9,7.2,38.8
		C618.5,242.1,600.2,246.9,594.4,247.6z"/>
	<path class="st0" d="M327.5,233.1c5.3,27.2-9.8,55.5-9.8,55.5s-23,57.9-30.4,77.3c-3.5,9.2-10.4,28.3-33.4,20.3l0,0
		c-19-6.6-15.8-26-13.4-35.1c5-18.5,19-54.8,20.7-73.6c1.3-14-2.2-36.1,13.1-54.8c0,0,10.8-16.6,30.4-12.3l0.8,0.2
		C316.8,213,325.4,221.9,327.5,233.1L327.5,233.1z"/>
	<path class="st0" d="M550.5,80.8l6.5-19.6l16-23.5c0,0,4.1,3.9,4.3,5.6c0.6,5.5-3.5,13.3-5.8,18.4c-0.3,0.7,0.1,4,0.7,4.5
		c2.3,2,7.5-1.7,7.5-1.7L567.2,81L550.5,80.8z"/>
	<path class="st0" d="M556.1,77.4L570.6,93l35.8-28l24.7-41.3c0,0-6.3-2.2-8.4-1.5c-10.6,3.4-22.8,24.1-30.9,31.7
		C583.1,62,556.1,77.4,556.1,77.4z"/>
	
		<ellipse transform="matrix(0.4261 -0.9047 0.9047 0.4261 246.0541 556.9821)" class="st0" cx="562" cy="84.6" rx="12.1" ry="12.2"/>
	<path class="st3" d="M311.4,467.4c-1.3-2.3-4.6-16.1-4.6-16.1s-0.8-25.7,4.6-39.5s38.8-28.3,83.3-25.4s54.1,12.8,61.6,22.4
		s0.5,20.7-1.5,21.7s-140.6,50.9-143.4,39.4"/>
	<path class="st3" d="M292.2,209.7c0,0,20.2,22.3,21.1,41.2s-4.5,48-4.5,48s-2.7,115.8-0.9,120.4s-5.8,19-2.4,32
		s70.2-24.4,87.9-29.4s70.8-7.8,67.9-7.6s-12-50.2-6.9-61.2s11.6-65,11.6-65c1.8-1.9,13.1-69-4.7-85.7l-32.5-16.8l0,0
		c-2.5,13.9-14.1,24.4-28.2,25.3c-17.7,1.2-36.3,3.4-46.7,4.7c-8.9,1.2-17.5-3.3-21.7-11.2c-1.9-3.5-2.6-7.6-2-11.6L292.2,209.7z"/>
	<path class="st2" d="M238,380.3c-8.8-17.9,8.9-33.6,15.6-38.9s22.9-12.8,30.8-16.4c20.3-9.4,55.6-22.5,75.3-32
		c13-6.2,19.6-9.9,25.8-2.6c5.6,6.6-4.3,16.6-8.1,20.5c-15.8,16.3-46.3,48.6-65.6,62.9c-7.9,5.9-25,16.3-34.5,19.2
		C251,401.3,240.5,385.5,238,380.3z"/>
	<path class="st2" d="M378.9,311.1l16.5-12.3l17.3-22.5c0,0-5-2.7-6.7-2.3c-5.4,1.2-11.6,7.5-15.6,11.2c-0.5,0.5-3.9,1.2-4.5,0.8
		c-2.6-1.5-0.8-7.7-0.8-7.7l-11.7,17L378.9,311.1z"/>
	<path class="st2" d="M380.5,304.6l-19.3-8.9l15.4-42.7l31.5-36.4c0,0,4,5.4,4.1,7.5c0.1,11.1-15.8,29.2-20.5,39.3
		C386.6,274.2,380.5,304.6,380.5,304.6z"/>
	
		<ellipse transform="matrix(0.7266 -0.6871 0.6871 0.7266 -105.3467 337.8253)" class="st2" cx="371.8" cy="301.3" rx="12.1" ry="12.1"/>
</g>
</svg>
