<?xml version="1.0" encoding="utf-8"?>
<!-- Generator: Adobe Illustrator 26.0.1, SVG Export Plug-In . SVG Version: 6.00 Build 0)  -->
<svg version="1.1" id="Calque_1" xmlns="http://www.w3.org/2000/svg" xmlns:xlink="http://www.w3.org/1999/xlink" x="0px" y="0px"
	 viewBox="0 0 788 1005" style="enable-background:new 0 0 788 1005;" xml:space="preserve">
<style type="text/css">
	.st0{fill:#D48F72;}
	.st1{fill:#A85D3D;}
	.st2{fill:#D79072;}
	.st3{fill:#66463A;}
</style>
<g id="Calque_5">
	<polygon points="229.3,479.5 229.4,479.5 229.3,479.5 	"/>
	<polygon points="229.4,479.5 229.5,479.5 229.5,479.5 	"/>
	<polygon points="229.3,479.5 229.4,479.5 229.3,479.5 	"/>
	<polygon points="229.4,479.5 229.5,479.5 229.5,479.5 	"/>
	<path class="st0" d="M371,158.3c0.1,12.1-9.6,23-20.4,28.3l-40.2,19.9c0,0-35.4,10.7-35,37.3c0.6,38.4,26.2,33.2,36.9,42.3
		c12.6,10.8,8.3,50,17.2,64c2.5,3.8,11.4,10.1,15.8,9.1c12.5-2.9,23.5-31.6,34.8-37.7c6.7-3.6,23.9-4.1,30.3,0
		c10.8,7,22.3,34.9,34.8,37.7c4.4,1,13.4-5.2,15.8-9.1c8.9-14,4.6-53.2,17.2-64c10.6-9.1,36.2-3.9,36.9-42.3
		c0.4-23.3-26.9-34.5-33.5-36.8c-1.1-0.4-2.1-0.8-3.2-1.3l-40.5-20.1c-9.6-4.7-15.7-14.5-15.8-25.1l-0.2-18.1l-27,2.1"/>
	<polyline class="st0" points="396.6,137 421.6,141 422.6,199 395.1,231.5 367.9,199 	"/>
	<path class="st1" d="M396.6,108l25,4l0.2,49.9l1.3,6.3c0,0-19.4,41.4-49.7,34.3c-7.3-1.7-15.1-21.2-15.1-21.2s6.9-6,9.6-18.5
		s1.1-50.9,1.1-50.9L396.6,108z"/>
	<path class="st0" d="M456,227.5c21.8-17.1,53.9-16.5,53.9-16.5s62-5.8,82.6-8c9.7-1.1,30-3.6,33.3,20.6l0,0
		c2.7,19.9-16,25.9-25.2,27.9c-18.7,3.9-57.4,7.9-75,14.9c-13.1,5.2-31.2,18.4-54.7,13.2c0,0-19.7-2.1-24.8-21.5l-0.2-0.8
		C443,246.2,447,234.5,456,227.5z"/>
	<path class="st2" d="M603.4,247.6c-19.7,2.6-29-19.2-31.9-27.3s-4.8-25.8-5.7-34.4c-2.4-22.2-3.5-59.8-6.2-81.6
		c-1.7-14.3-3-21.7,5.8-25.3c8-3.2,14.3,9.4,16.8,14.3c10.4,20.2,31.2,59.4,38.5,82.3c3,9.4,7.4,28.9,7.2,38.8
		C627.5,242.1,609.2,246.9,603.4,247.6z"/>
	<path class="st0" d="M336.5,233.1c5.3,27.2-9.8,55.5-9.8,55.5s-23,57.9-30.4,77.3c-3.5,9.2-10.4,28.3-33.4,20.3l0,0
		c-19-6.6-15.8-26-13.4-35.1c5-18.5,19-54.8,20.7-73.6c1.3-14-2.2-36.1,13.1-54.8c0,0,10.8-16.6,30.4-12.3l0.8,0.2
		C325.8,213,334.4,221.9,336.5,233.1L336.5,233.1z"/>
	<path class="st0" d="M559.5,80.8l6.5-19.6l16-23.5c0,0,4.1,3.9,4.3,5.6c0.6,5.5-3.5,13.3-5.8,18.4c-0.3,0.7,0.1,4,0.7,4.5
		c2.3,2,7.5-1.7,7.5-1.7L576.2,81L559.5,80.8z"/>
	<path class="st0" d="M565.1,77.4L579.6,93l35.8-28l24.7-41.3c0,0-6.3-2.2-8.4-1.5c-10.6,3.4-22.8,24.1-30.9,31.7
		C592.1,62,565.1,77.4,565.1,77.4z"/>
	
		<ellipse transform="matrix(0.4261 -0.9047 0.9047 0.4261 251.2193 565.1241)" class="st0" cx="571" cy="84.6" rx="12.1" ry="12.2"/>
	<path class="st3" d="M472.9,427.1c1.9,8.4-2.5,16-4.2,16.9c-2,1-132.6,27.5-142.1,21.5l-4.8-3.3c-1-1.7,1,4,0,0
		c-1-0.4-7.2-10-7.4-11c-3.4-13,4.2-27.4,2.4-32l0.9-120.4c0,0,5.4-29.2,4.5-48c-0.9-18.8-21.1-41.2-21.1-41.2l37.8-16.9
		c-0.6,4,0.1,8.1,2,11.6c4.2,7.9,12.9,12.3,21.7,11.2c10.5-1.3,29-3.4,46.7-4.7c7.1-0.5,13.5-3.3,18.5-7.8c5-4.5,8.5-10.6,9.8-17.5
		l32.5,16.8c17.8,16.7,6.5,83.8,4.7,85.7c0,0-9.7,53-11.6,65C460.5,371.5,468.7,408.9,472.9,427.1z"/>
	<path class="st2" d="M247,380.3c-8.8-17.9,8.9-33.6,15.6-38.9s22.9-12.8,30.8-16.4c20.3-9.4,55.6-22.5,75.3-32
		c13-6.2,19.6-9.9,25.8-2.6c5.6,6.6-4.3,16.6-8.1,20.5c-15.8,16.3-46.3,48.6-65.6,62.9c-7.9,5.9-25,16.3-34.5,19.2
		C260,401.3,249.5,385.5,247,380.3z"/>
	<path class="st2" d="M387.9,311.1l16.5-12.3l17.3-22.5c0,0-5-2.7-6.7-2.3c-5.4,1.2-11.6,7.5-15.6,11.2c-0.5,0.5-3.9,1.2-4.5,0.8
		c-2.6-1.5-0.8-7.7-0.8-7.7l-11.7,17L387.9,311.1z"/>
	<path class="st2" d="M389.5,304.6l-19.3-8.9l15.4-42.7l31.5-36.4c0,0,4,5.4,4.1,7.5c0.1,11.1-15.8,29.2-20.5,39.3
		C395.6,274.2,389.5,304.6,389.5,304.6z"/>
	
		<ellipse transform="matrix(0.7266 -0.6871 0.6871 0.7266 -102.8859 344.0091)" class="st2" cx="380.8" cy="301.3" rx="12.1" ry="12.1"/>
</g>
</svg>
