<svg xmlns="http://www.w3.org/2000/svg" viewBox="0 0 788 1005"><defs><style>.cls-1{fill:#d48f72;}.cls-2{fill:#a85d3d;}.cls-3{fill:#d79072;}.cls-4{fill:#66463a;}</style></defs><g id="Calque_5" data-name="Calque 5"><polygon points="243.33 479.54 243.43 479.5 243.33 479.45 243.33 479.54"/><polygon points="243.43 479.5 243.53 479.54 243.53 479.45 243.43 479.5"/><polygon points="243.33 479.54 243.43 479.5 243.33 479.45 243.33 479.54"/><polygon points="243.43 479.5 243.53 479.54 243.53 479.45 243.43 479.5"/><path class="cls-1" d="M424.31,321.48c10.75,7,22.27,34.85,34.77,37.73,4.44,1,13.35-5.25,15.8-9.09,8.91-14,4.6-53.23,17.19-64,10.65-9.12,36.25-3.91,36.86-42.3.36-23.34-26.87-34.47-33.53-36.84a29.51,29.51,0,0,1-3.17-1.34l-40.53-20.1a28.48,28.48,0,0,1-15.82-25.14l-.23-18.05-27,2.06-26.62-2.07.11,15.73a31.54,31.54,0,0,1-17.53,28.5l-40.16,19.92s-35.4,10.74-35,37.33c.6,38.39,26.2,33.18,36.85,42.3,12.59,10.77,8.28,50,17.19,64,2.45,3.84,11.36,10.11,15.8,9.09,12.5-2.88,23.52-31.57,34.77-37.73C400.74,317.85,418,317.36,424.31,321.48Z"/><polygon class="cls-1" points="410.56 137 435.56 141 436.56 199 409.06 231.5 381.87 199 382.87 141 410.56 137"/><path class="cls-2" d="M410.56,108l25,4,.23,49.95,1.27,6.3s-19.38,41.42-49.69,34.34c-7.31-1.71-15.15-21.19-15.15-21.19s6.9-6,9.58-18.49S382.87,112,382.87,112Z"/><path class="cls-1" d="M470,227.51C491.75,210.43,523.88,211,523.88,211s62-5.78,82.63-8c9.72-1.06,30-3.63,33.28,20.56h0c2.74,19.94-16,25.93-25.22,27.86-18.71,3.92-57.43,7.92-75,14.94-13.08,5.23-31.19,18.38-54.74,13.23,0,0-19.74-2.1-24.76-21.52l-.2-.77A28.67,28.67,0,0,1,470,227.51Z"/><path class="cls-3" d="M617.44,247.64c-19.73,2.6-29-19.17-31.86-27.28s-4.75-25.77-5.68-34.45c-2.39-22.22-3.53-59.85-6.16-81.55-1.73-14.26-3-21.74,5.77-25.27,8-3.21,14.32,9.38,16.84,14.29,10.39,20.21,31.19,59.43,38.54,82.3,3,9.39,7.38,28.94,7.17,38.8C641.49,242.07,623.17,246.89,617.44,247.64Z"/><path class="cls-1" d="M350.54,233.06c5.33,27.16-9.77,55.52-9.77,55.52s-23,57.87-30.38,77.27C306.92,375,300,394.19,277,386.16h0c-19-6.61-15.83-26.05-13.37-35.12,5-18.45,19-54.76,20.74-73.58,1.28-14-2.21-36.13,13.08-54.77,0,0,10.83-16.63,30.41-12.29l.78.17a28.69,28.69,0,0,1,21.94,22.49Z"/><path class="cls-1" d="M573.46,80.84,580,61.27l16-23.48s4.09,3.87,4.28,5.63c.57,5.51-3.54,13.32-5.81,18.37-.3.67.1,4,.66,4.51,2.27,2,7.52-1.65,7.52-1.65L590.21,81Z"/><path class="cls-1" d="M579.13,77.37,593.57,93l35.79-28,24.73-41.3s-6.35-2.17-8.38-1.53c-10.57,3.36-22.85,24.11-30.92,31.68C606.07,62,579.13,77.37,579.13,77.37Z"/><ellipse class="cls-1" cx="585.03" cy="84.56" rx="12.1" ry="12.15" transform="translate(259.25 577.79) rotate(-64.78)"/><path class="cls-4" d="M334.38,467.44c-1.34-2.29-4.56-16.14-4.56-16.14s-.75-25.7,4.56-39.5,38.76-28.26,83.3-25.41,54.1,12.76,61.64,22.39.5,20.68-1.52,21.69-140.59,50.86-143.42,39.38"/><path class="cls-4" d="M315.19,209.67S335.4,232,336.31,250.83s-4.51,48-4.51,48-2.71,115.8-.91,120.43-5.81,19-2.43,32,70.25-24.41,87.87-29.38,70.75-7.76,67.89-7.62-12.05-50.18-6.92-61.24S488.89,288,488.89,288c1.82-1.89,13.12-69-4.69-85.68l-32.5-16.79h0a30.84,30.84,0,0,1-28.22,25.34c-17.71,1.24-36.27,3.37-46.74,4.66A21.47,21.47,0,0,1,355,204.37a18.25,18.25,0,0,1-2-11.63Z"/><path class="cls-3" d="M261,380.32c-8.78-17.85,8.88-33.58,15.63-38.92s22.89-12.75,30.81-16.42c20.29-9.38,55.57-22.52,75.27-32,13-6.21,19.62-9.85,25.79-2.63,5.62,6.58-4.3,16.57-8.14,20.53-15.81,16.32-46.3,48.59-65.6,62.88-7.93,5.88-25.05,16.26-34.46,19.23C274,401.33,263.54,385.51,261,380.32Z"/><path class="cls-3" d="M401.92,311.07l16.55-12.33,17.31-22.53s-5-2.69-6.68-2.31c-5.42,1.18-11.56,7.52-15.65,11.25-.54.5-3.85,1.16-4.48.78-2.61-1.54-.79-7.67-.79-7.67l-11.68,17Z"/><path class="cls-3" d="M403.45,304.6l-19.32-8.86L399.55,253l31.52-36.38s4.05,5.35,4.07,7.48c.11,11.09-15.78,29.23-20.45,39.27C409.65,274.21,403.45,304.6,403.45,304.6Z"/><ellipse class="cls-3" cx="394.78" cy="301.24" rx="12.1" ry="12.15" transform="translate(-99.03 353.65) rotate(-43.4)"/></g></svg>