<svg xmlns="http://www.w3.org/2000/svg" viewBox="0 0 588 429.28"><defs><style>.cls-1{fill:#d48f72;}.cls-2{fill:#d79072;}.cls-3{fill:#473415;}.cls-4{fill:#da9172;}.cls-5{fill:#823f1d;}.cls-6{fill:#00b9a7;}</style></defs><g id="Calque_5" data-name="Calque 5"><path class="cls-1" d="M311.2,299.45c10.75,7,22.27,34.86,34.77,37.74,4.44,1,13.35-5.25,15.8-9.09,8.91-14,4.6-53.23,17.19-64,10.65-9.11,23.25-9.9,23.86-48.29.36-23.34-13.87-28.47-20.53-30.84a29.51,29.51,0,0,1-3.17-1.34l-40.53-20.1a28.49,28.49,0,0,1-15.82-25.14l-.23-18-27,2.06L269,120.32l.11,15.73a31.56,31.56,0,0,1-17.53,28.5l-40.15,19.92s-19.41,7.74-19,34.33c.6,38.39,10.2,36.18,20.85,45.29,12.59,10.78,8.28,50,17.19,64,2.45,3.84,11.36,10.11,15.8,9.09,12.51-2.88,23.52-31.57,34.77-37.74C287.63,295.83,304.88,295.33,311.2,299.45Z"/><polygon class="cls-1" points="297.45 114.98 322.45 118.98 323.45 176.98 295.95 209.48 268.76 176.98 269.76 118.98 297.45 114.98"/><path class="cls-2" d="M353.65,191.66c22.18-16.55,54.28-15.21,54.28-15.21s62.12-4.3,82.81-6c9.74-.83,30-2.91,32.78,21.35h0c2.26,20-16.65,25.55-25.89,27.25-18.79,3.47-57.6,6.55-75.31,13.14-13.19,4.91-31.61,17.63-55,11.91,0,0-19.68-2.57-24.24-22.1l-.18-.77a28.68,28.68,0,0,1,10.78-29.52Z"/><path class="cls-2" d="M486.3,214.69c-17.91-8.66-13.67-31.94-11.63-40.3s10.2-24.13,14.19-31.9c10.22-19.87,29.95-51.94,39.67-71.51,6.39-12.87,9.4-19.84,18.71-17.94,8.47,1.72,6.8,15.7,6.21,21.19-2.42,22.59-6.6,66.79-13,89.93-2.64,9.51-9.74,28.23-15.33,36.36C509.46,223.26,491.5,217.21,486.3,214.69Z"/><polygon class="cls-3" points="216.71 429.28 218.21 406.78 373.21 406.78 375.21 426.28 216.71 429.28"/><path class="cls-4" d="M236.88,193.93c-22.19-16.56-54.29-15.22-54.29-15.22s-62.12-4.29-82.8-6.05c-9.75-.82-30-2.9-32.78,21.36h0c-2.27,20,16.64,25.54,25.88,27.25,18.79,3.47,57.6,6.54,75.31,13.13,13.19,4.92,31.62,17.63,55,11.92,0,0,19.68-2.58,24.24-22.11l.18-.77a28.69,28.69,0,0,0-10.78-29.51Z"/><path class="cls-2" d="M104.22,217c17.91-8.67,13.67-31.94,11.63-40.3s-10.2-24.14-14.19-31.9C91.44,124.88,71.72,92.81,62,73.24,55.6,60.37,52.59,53.4,43.28,55.3,34.81,57,36.48,71,37.07,76.49c2.42,22.59,6.6,66.79,13,89.94,2.64,9.5,9.75,28.23,15.34,36.36C81.06,225.52,99,219.48,104.22,217Z"/><path class="cls-4" d="M34.56,66.68a36.35,36.35,0,0,1-3.14-13.09L30,29.5A8.1,8.1,0,0,1,32,24h0a10.34,10.34,0,0,1,7.65-3.37l20.69-3.16c3.43-.09,5.11.77,6.59,3.62l-.55,6.47s1.87,8.85,2,6.2c.38-9.35,1.86-15.7,10-14.79L76.92,34.5c.12,1.27-1.2,3.86-1.84,5-2,3.46-3.39,11.49-5.44,14.21,0,0-10,10.21-11.08,12.65-1.14,2.62,1.23,6,1.23,6h0A9.37,9.37,0,0,1,48,80.18l-8.76-2.45Z"/><path class="cls-5" d="M67,21.09l-1.29,12.6L57.78,46.77l-8-1.33,1.29,1a10.11,10.11,0,0,1,3.69,9.1l-.52,4.33,4.86-9.83,2.59-1.85,7.12-14.78-.33-6.62Z"/><path class="cls-2" d="M554.2,66.68a36.55,36.55,0,0,0,3.13-13.09l1.39-24.09a8,8,0,0,0-2-5.49h0a10.38,10.38,0,0,0-7.65-3.37l-20.7-3.16c-3.43-.09-5.11.77-6.58,3.62l.54,6.47s-1.87,8.85-2,6.2c-.38-9.35-1.85-15.7-10-14.79l1.46,15.52c-.11,1.27,1.21,3.86,1.84,5,2,3.46,3.4,11.49,5.45,14.21,0,0,10,10.21,11.07,12.65,1.14,2.62-1.23,6-1.23,6h0a9.37,9.37,0,0,0,11.82,7.82l8.77-2.45Z"/><path class="cls-5" d="M521.79,21.09l1.29,12.6L531,46.77l8-1.33-1.29,1a10.11,10.11,0,0,0-3.69,9.1l.52,4.33-4.86-9.83-2.59-1.85-7.12-14.78.34-6.62Z"/><path class="cls-6" d="M163.76,175.07l28,88.25s12.74,51.32,14.7,69.85c2.19,20.78,6.84,86.56,6.84,86.56l-1.35,27,170.26,4.39s-3.82-65.37-.53-107.53c1.48-19,14.92-75.65,14.92-75.65l29.06-93.28-68.45-2.92L298.06,204.2l-59.12-35.13Z"/></g></svg>