<svg xmlns="http://www.w3.org/2000/svg" viewBox="0 0 788 1005"><defs><style>.cls-1{fill:#d48f72;}.cls-2{fill:none;stroke:#000;stroke-miterlimit:10;stroke-width:3px;}.cls-3{fill:#d79072;}.cls-4{fill:#473415;}.cls-5{fill:#ddd;}.cls-6{fill:#9b1717;}.cls-7{fill:#a27f65;}.cls-8{fill:#c49371;}.cls-9{fill:#b81717;}.cls-10{fill:#fff;}.cls-11{fill:#898c68;}.cls-12{fill:#472e1d;}</style></defs><g id="Calque_5" data-name="Calque 5"><polygon points="230.22 479.54 230.32 479.5 230.22 479.45 230.22 479.54"/><polygon points="230.32 479.5 230.42 479.54 230.42 479.45 230.32 479.5"/><polygon points="230.22 479.54 230.32 479.5 230.22 479.45 230.22 479.54"/><polygon points="230.32 479.5 230.42 479.54 230.42 479.45 230.32 479.5"/><path class="cls-1" d="M411.2,321.48c10.75,7,22.27,34.85,34.77,37.73,4.44,1,13.35-5.25,15.8-9.09,8.91-14,4.6-53.23,17.19-64,10.65-9.12,36.25-3.91,36.86-42.3.36-23.34-26.87-34.47-33.53-36.84a29.51,29.51,0,0,1-3.17-1.34l-40.53-20.1a28.48,28.48,0,0,1-15.82-25.14l-.23-18.05-27,2.06L369,142.34l.11,15.73a31.54,31.54,0,0,1-17.53,28.5l-40.15,19.92s-35.41,10.74-35,37.33c.6,38.39,26.2,33.18,36.85,42.3,12.59,10.77,8.28,50,17.19,64,2.45,3.84,11.36,10.11,15.8,9.09,12.51-2.88,23.52-31.57,34.77-37.73C387.63,317.85,404.88,317.36,411.2,321.48Z"/><polygon class="cls-1" points="398.26 137 423.26 141 424.26 199 396.76 231.5 369.57 199 370.57 141 398.26 137"/><path class="cls-2" d="M456.2,236.28c-1.33,27.64,17.73,53.51,17.73,53.51s31.16,53.92,41.26,72c4.77,8.54,14.38,26.52,36,15.24h0c17.85-9.3,11.88-28.08,8.13-36.69-7.63-17.53-26.77-51.42-31.2-69.79-3.3-13.69-3.06-36.07-20.88-52.3,0,0-13.14-14.88-31.88-7.74l-.74.28a28.69,28.69,0,0,0-18.45,25.44Z"/><path class="cls-3" d="M207.5,344.82c-19.56,3.61-29.91-17.66-33.21-25.61s-6.06-25.49-7.44-34.11c-3.53-22.07-6.6-59.6-10.34-81.12-2.46-14.17-4.16-21.56,4.47-25.54,7.85-3.62,14.78,8.63,17.55,13.41,11.41,19.64,34.19,57.74,42.71,80.21,3.5,9.22,8.85,28.52,9.15,38.38C231.24,338,213.19,343.77,207.5,344.82Z"/><path class="cls-2" d="M333.71,254.55c-11.91,25-40.93,38.77-40.93,38.77s-52.95,32.77-70.43,44c-8.23,5.28-25.22,16.57-38.95-3.61h0c-11.33-16.63,2.81-30.35,10.19-36.17,15-11.83,47.9-32.65,60.5-46.74,9.38-10.49,19.75-30.33,43.13-36.2,0,0,18.61-6.9,31.75,8.25l.52.6a28.69,28.69,0,0,1,4.22,31.14Z"/><polygon class="cls-4" points="316.71 451.3 318.21 428.8 473.21 428.8 475.21 448.3 316.71 451.3"/><path class="cls-3" d="M562.06,344.7c-9-17.73-32.21-13-40.52-10.81s-23.93,10.69-31.61,14.84c-19.66,10.62-51.32,31-70.69,41.12-12.74,6.66-19.64,9.8-17.56,19.08,1.9,8.43,15.84,6.48,21.32,5.78,22.53-2.89,66.64-8,89.65-14.86,9.45-2.83,28-10.32,36-16.08C571.1,367.68,564.69,349.85,562.06,344.7Z"/><path class="cls-1" d="M173.6,181l-4.09-20.22-13-25.27s-4.54,3.35-4.93,5.06c-1.24,5.41,1.88,13.66,3.51,18.95.22.71-.59,4-1.2,4.39-2.5,1.7-7.27-2.55-7.27-2.55L157,179.19Z"/><path class="cls-1" d="M168.41,176.9l-16.25,13.7-32.09-32.15-19.48-44s6.57-1.38,8.5-.5c10.08,4.63,19.72,26.74,26.81,35.24C143.55,158.35,168.41,176.9,168.41,176.9Z"/><ellipse class="cls-1" cx="161.67" cy="183.31" rx="12.15" ry="12.1" transform="translate(-49.13 59.61) rotate(-18.18)"/><path class="cls-5" d="M345,191.48c1.34-1.34,17.42-20.33,18.88-20.31.67,0,13.77,31.63,29,32.05,18.46.52,36.1-32.05,36.1-32.05l8.94,14,5,160.52L345,347Z"/><path class="cls-5" d="M160.1,244l-5.58-31s28-19.11,29.5-18.19,8.45,20.93,8.45,20.93Z"/><path class="cls-6" d="M385.53,219.81l18.28-.05s14.22,67.74,13.56,69.8-9.3,53.37-9.17,54.6-12.58,16-12.58,16-12.79-18.47-13.44-20.53-4.67-46.39-5.68-48S385.53,219.81,385.53,219.81Z"/><path class="cls-7" d="M483.19,415.69l17.86,88.05a4.11,4.11,0,0,1-3.58,4.91c-16.62,1.83-58,14-72.66,9.57-8.54-2.57-16.69-24.82-18.14-29.69a7.85,7.85,0,0,1-.62-2c-.54-15.51-6.79-169.83-4.13-191.85s22.17-89.8,27.12-111.91c.58-2.56,1.17-4.93,1.17-4.93L484,202.53l.24.1,25.52,9.87a4,4,0,0,1,2,1.66l14.14,22.65a3.9,3.9,0,0,1,.4.82l39.29,112.15a4.11,4.11,0,0,1-2.15,5.1l-83.95,38.93a4.13,4.13,0,0,0-2.15,5.11L483,415.14A2.64,2.64,0,0,1,483.19,415.69Z"/><path class="cls-7" d="M362,177.19s29.53,101.36,29.53,116.87.32,182.89-7.46,192.11-20.43,27.1-34,27.1-46.58-7.89-46.58-7.89a12.26,12.26,0,0,1-9.87-14.91l15.81-86.94,5.54-54-9.28-60.19s-98.5,62.42-101.82,61.83c-21.11-3.77-30.27-26.39-30.27-26.39l-27-85.18s42.67-30.15,43.84-31c4-3,30.8,62.84,30.8,62.84l55.15-55.34Z"/><path class="cls-8" d="M360.94,173.44l-9.84,8.7-6.23,92.5L362,283.19V303.8s26,81.88,27.57,79.39,2-75.86,2-75.86V294.06l-15.1-65.49Z"/><path class="cls-9" d="M380.61,210.83c.92-1.76,6.73-13.21,8.88-15.3,1.69-1.64,11.76,0,11.76,0l8.94,14.17s-3.71,9.61-6.57,11c-1.49.7-8.81.41-17.22,0C384.11,220.54,381.43,211.51,380.61,210.83Z"/><path class="cls-8" d="M431.44,174.87l8.06,7.27,6.23,92.5-17.13,8.55V303.8s-26,81.88-27.58,79.39-2-75.86-2-75.86V294.06l15.1-65.49Z"/><path class="cls-10" d="M423.63,162.91l7.81,12-19.17,42.78s-7.76-18-11-22.12C399.81,193.72,423.63,162.91,423.63,162.91Z"/><polygon class="cls-11" points="375.39 307.53 382.88 444.6 487 439.88 498.57 306 375.39 307.53"/><path class="cls-10" d="M368.69,162.91l-7.75,10.53,18,44.21s7.06-18,11.8-22.66C392.43,193.37,368.69,162.91,368.69,162.91Z"/><polygon class="cls-1" points="418.21 390.81 398.65 377.27 376.43 371.83 379.39 380.69 389.57 385.4 393.7 391.74 379.99 392.12 379.67 381.96 373.33 381.06 362 395.07 366.41 425.24 385.76 432.14 419.93 415.46 429.81 412.33 450.17 407.34 433.08 386.39 424.23 389.92 418.21 390.81"/><path class="cls-5" d="M463.93,417l-31.37,2.19s-16.3-28.67-15.23-30,21.64-6,21.64-6Z"/><path class="cls-7" d="M429.3,384.34c2.67,4.21,25.49,56.87,27.35,54.77s98.2-58.42,98.2-58.42l.23-.13A21.11,21.11,0,0,0,565.24,363l.29-12.21s-21.83-19.2-24.13-19.2-39.28,9.66-42.67,9.26S429.3,384.34,429.3,384.34Z"/><circle class="cls-12" cx="159.2" cy="246.15" r="4.68"/><circle class="cls-12" cx="163.88" cy="261.5" r="4.68"/><circle class="cls-12" cx="478.46" cy="412.74" r="4.68"/><circle class="cls-12" cx="463.93" cy="422.1" r="4.68"/></g></svg>