<svg xmlns="http://www.w3.org/2000/svg" viewBox="0 0 788 1005"><defs><style>.cls-1{fill:#7a919e;}.cls-2{fill:#d79072;}.cls-3{fill:#d08d72;}.cls-4{fill:#a45c3d;}.cls-5{fill:#c37958;}.cls-6{fill:#36344d;}.cls-7{fill:#a29c65;}.cls-8{fill:#afa74f;}.cls-9{fill:#c9c349;}.cls-10{fill:#8b8b52;}</style></defs><g id="Calque_1" data-name="Calque 1"><polygon class="cls-1" points="364.84 193.85 365.7 164.95 426.18 164.31 425.84 193.85 364.84 193.85"/><path class="cls-2" d="M153.62,205.86s4.84-19.16,4.25-22.15-5.06-15.29-5.05-17.69S156.16,149,154.36,149s-8.69.88-8.69.88l-4.22,12,1.46,14.68L127.08,160s-17-25.56-17.58-27.33-8.72,2.11-8.72,2.11l18.79,32.69-29-29.12-6.91,6.87,30.78,30.92L78.28,150.57,75,159.84l31.39,23.74L78.82,172.13s-3,8.38-.92,9.29,25.43,14.14,25.43,14.14l26,24.92,9.28.32Z"/><polygon points="231.06 480.1 231.16 480.06 231.06 480 231.06 480.1"/><polygon points="231.16 480.06 231.26 480.1 231.26 480 231.16 480.06"/><polygon points="231.06 480.1 231.16 480.06 231.06 480 231.06 480.1"/><polygon points="231.16 480.06 231.26 480.1 231.26 480 231.16 480.06"/><path class="cls-3" d="M516.65,244.38c-.6,38.39-26.2,33.17-36.86,42.29-12.58,10.77-8.27,50-17.18,64-2.45,3.84-11.36,10.1-15.8,9.08C434.3,356.89,422.78,329,412,322c-6.33-4.12-23.57-3.62-30.19,0-11.25,6.16-22.27,34.86-34.77,37.73-4.44,1-13.35-5.24-15.8-9.08-8.91-14-4.6-53.24-17.19-64-10.65-9.12-36.25-3.9-36.86-42.29-.41-26.59,35-37.34,35-37.34l40.15-19.91a31.4,31.4,0,0,0,7.1-4.82,29.11,29.11,0,0,0,2.29-2.29l.63-.71.05-.06a31.55,31.55,0,0,0,7.22-16.43,30.71,30.71,0,0,0,.25-4.19l0-2.84,0-4.51h53.63l.06,5,0,1.5,0,3.21c0,.33,0,.67,0,1v0c0,.65.09,1.3.16,1.95a29.38,29.38,0,0,0,.93,4.57,28.5,28.5,0,0,0,14.7,17.59L480,206.2a27.41,27.41,0,0,0,3.16,1.33C489.79,209.91,517,221,516.65,244.38Z"/><path class="cls-3" d="M424.29,199.56l-27.5,32.5L382,214.37,369.6,199.56l.72-41.56,0-2.21.08-4.51h53v.23l.08,4.66v0l0,1.56.07,4.21v0l0,1.28.12,6.79Z"/><path class="cls-4" d="M424.79,168.81l-1,1.25c-5.16,6.33-28.83,35-41.79,44.31-3.2,2.29-5.74,3.39-7.2,2.69C368,213.8,360,182,360,182l.08-.07a21,21,0,0,0,1.73-1.87q.48-.57,1.05-1.32l.06-.08a39.39,39.39,0,0,0,6.66-15.16c0-.21.09-.42.13-.64.26-1.37.48-3,.66-4.82.07-.71.13-1.45.19-2.21.11-1.42.2-2.94.28-4.51h52.67v.23l0,4.28,0,6.72.15.76.14.67.93,4.57Z"/><path class="cls-2" d="M458.78,251.1c11.91,25,40.93,38.77,40.93,38.77s53,32.77,70.44,44c8.23,5.28,25.21,16.58,39-3.61h0c11.33-16.63-2.81-30.35-10.19-36.17-15-11.83-47.91-32.64-60.5-46.74-9.38-10.49-19.75-30.33-43.13-36.2,0,0-18.61-6.9-31.75,8.26l-.52.6a28.69,28.69,0,0,0-4.23,31.13Z"/><path class="cls-2" d="M595.09,296.3c-18.55-7.17-32.67,11.81-37.39,19S547,339.23,544.07,347.45c-7.55,21-17.53,57.33-25.19,77.8-5,13.46-8.09,20.41-.35,25.92,7.05,5,16.12-5.75,19.73-9.92,14.86-17.19,44.31-50.41,56.85-70.9,5.14-8.42,14-26.39,16.1-36C617.16,307.38,600.48,298.38,595.09,296.3Z"/><path class="cls-2" d="M231,351.34c13.76-11.4,4.47-32.14.67-39.86S217,289.91,211.57,283.09c-13.77-17.45-56.38-69.4-65-89.37-6-14-23.92,10.39-23.92,10.39s10.77,14.36,15.54,24c10,20.33,17.56,50.38,32.95,84.59,4,9,15.34,25.6,22.22,32.5C212.6,364.53,227,354.65,231,351.34Z"/><path class="cls-2" d="M336.19,251.39c-8.55,26.33-35.52,43.78-35.52,43.78s-48.23,39.39-64.1,52.77c-7.47,6.3-22.84,19.72-39.09,1.5h0c-13.4-15-1.17-30.46,5.39-37.19,13.33-13.69,43.23-38.62,53.88-54.23,7.93-11.63,25.91-35.58,48.33-44.44,0,0,7.26-6.35,22.27,7l.59.53a28.7,28.7,0,0,1,8.25,30.32Z"/><path class="cls-2" d="M521.71,447.53c2,3.19,3.07,9-3,14.84,0,0-17.63,20.22-25.4,24.34-3.47,1.84-12.79,6.26-15.37,3.3-7.34-8.38-12.07-28.61-9.73-41.73.71-3.93,9.41-8,13.33-8.82,4.31-.83,13,2.63,17.34,2.79a70.79,70.79,0,0,0,7.19-.4C512,441.31,518.93,443.17,521.71,447.53Z"/><polygon class="cls-5" points="511.95 435.1 507.81 441.79 511.18 454.29 515.15 466.36 520.74 460.34 530.88 453.31 511.95 435.1"/><polygon class="cls-6" points="509.24 439.44 518.56 423.68 539.03 445.59 527.78 458.32 509.24 439.44"/><path class="cls-7" d="M502.78,212.31l16.57,8.49s48.75,43.94,47.36,46.45-32,52.19-32,52.19-43.51-29.66-44.64-30.79-12.71-29.28-13.49-28.91,13.11-40.65,13.49-42.48,12.66-4.95,12.66-4.95"/></g><g id="Calque_5" data-name="Calque 5"><polygon points="230.22 479.54 230.32 479.5 230.22 479.45 230.22 479.54"/><polygon points="230.32 479.5 230.42 479.54 230.42 479.45 230.32 479.5"/><polygon points="230.22 479.54 230.32 479.5 230.22 479.45 230.22 479.54"/><polygon points="230.32 479.5 230.42 479.54 230.42 479.45 230.32 479.5"/><polygon class="cls-8" points="314.05 451.3 315.61 423.93 476.63 423.93 473.38 447.77 314.05 451.3"/><path class="cls-9" d="M312.9,410.49,300.67,295.17,294,212.65l11.1-5.75L359,179l42.81,52.53,36.33-49.16,64.66,30-10.44,101-15.71,73-2.71,9.82a23.1,23.1,0,0,1,3.27,22l-2.7,7.33L318.36,428l-3.62-8.34A22.27,22.27,0,0,1,312.9,410.49Z"/><polygon class="cls-7" points="355.72 183.32 365.7 164.95 393.37 211.45 377.44 235.85 355.72 183.32"/><polygon class="cls-7" points="440.1 185.17 426.18 164.31 405.49 210.69 424.19 234.01 440.1 185.17"/><polygon class="cls-10" points="393.37 211.45 401.54 231.5 390.52 222.41 377.44 235.85 393.37 211.45"/><polygon class="cls-10" points="401.54 231.5 405.49 210.69 424.19 234.01 410.81 223.47 401.54 231.5"/><path class="cls-7" d="M306.87,298.05c-1.76.71-49.76,44.4-50.82,43.73s-28.59-63.49-27.53-63.49,65.53-65.64,65.53-65.64"/></g></svg>