<svg id="Calque_1" data-name="Calque 1" xmlns="http://www.w3.org/2000/svg" viewBox="0 0 728 400.56"><defs><style>.cls-1{fill:#7a919e;}.cls-2{fill:#a85b3b;}.cls-3{fill:#6d323a;}.cls-4{fill:none;}.cls-5{fill:#36344d;}.cls-6{fill:#95acba;}.cls-7{fill:#5f8a85;}.cls-8{fill:#adcbde;}.cls-9{fill:#9599ba;}</style></defs><polygon class="cls-1" points="384.69 91.62 385.55 62.73 446.03 62.09 445.69 91.62 384.69 91.62"/><path class="cls-2" d="M173.47,103.64s4.84-19.16,4.25-22.16-5.06-15.29-5.05-17.68,3.34-17.07,1.54-17.07-8.69.88-8.69.88l-4.22,12,1.46,14.68L146.93,57.75s-17-25.57-17.58-27.33-8.72,2.1-8.72,2.1l18.79,32.7-29-29.13L103.53,43l30.78,30.93L98.13,48.34l-3.32,9.28L126.2,81.36,98.67,69.91s-3,8.38-.92,9.28,25.43,14.14,25.43,14.14l26,24.92,9.28.33Z"/><polygon points="250.91 377.87 251.01 377.83 250.91 377.78 250.91 377.87"/><polygon points="251.01 377.83 251.11 377.87 251.11 377.78 251.01 377.83"/><polygon points="250.91 377.87 251.01 377.83 250.91 377.78 250.91 377.87"/><polygon points="251.01 377.83 251.11 377.87 251.11 377.78 251.01 377.83"/><path class="cls-2" d="M536.5,142.15c-.6,38.39-26.2,33.17-36.86,42.29-12.58,10.77-8.27,50-17.18,64-2.45,3.84-11.36,10.1-15.8,9.08-12.51-2.87-24-30.73-34.77-37.73-6.33-4.12-23.57-3.62-30.19,0-11.25,6.16-22.27,34.86-34.77,37.73-4.44,1-13.35-5.24-15.8-9.08-8.91-14-4.6-53.24-17.19-64-10.65-9.12-36.25-3.9-36.86-42.29-.41-26.59,35-37.34,35-37.34L372.22,84.9a31.4,31.4,0,0,0,7.1-4.82,29.11,29.11,0,0,0,2.29-2.29l.63-.71.05-.06a31.55,31.55,0,0,0,7.22-16.43,30.71,30.71,0,0,0,.25-4.19l0-2.84,0-4.51h53.63l.06,5,0,1.5,0,3.21c0,.33,0,.67,0,1v0c0,.65.09,1.3.16,2a29.38,29.38,0,0,0,.93,4.57,28.5,28.5,0,0,0,14.7,17.59L499.81,104A27.41,27.41,0,0,0,503,105.3C509.64,107.68,536.87,118.81,536.5,142.15Z"/><path class="cls-2" d="M444.14,97.33l-27.5,32.5-14.8-17.69L389.45,97.33l.72-41.56,0-2.21.08-4.51h53v.23l.08,4.66v0l0,1.56.07,4.21v0l0,1.28.12,6.79Z"/><path class="cls-3" d="M444.64,66.58l-1,1.25c-5.16,6.33-28.83,35-41.79,44.31-3.2,2.29-5.74,3.39-7.2,2.69-6.76-3.26-14.84-35.1-14.84-35.1l.08-.07a21,21,0,0,0,1.73-1.87q.48-.57,1.05-1.32l.06-.08a39.39,39.39,0,0,0,6.66-15.16c0-.21.09-.42.13-.64.26-1.37.48-3,.66-4.82.07-.71.13-1.45.19-2.21.11-1.42.2-2.94.28-4.51h52.67v.23l0,4.28,0,6.72.15.76.14.67.93,4.57Z"/><path class="cls-2" d="M478.63,148.88c11.91,25,40.93,38.77,40.93,38.77s53,32.76,70.44,44c8.23,5.27,25.21,16.57,39-3.61h0c11.33-16.64-2.81-30.36-10.19-36.17-15-11.84-47.91-32.65-60.5-46.74-9.38-10.5-19.75-30.33-43.13-36.2,0,0-18.61-6.9-31.75,8.25l-.52.6a28.71,28.71,0,0,0-4.23,31.14Z"/><path class="cls-2" d="M614.94,194.07c-18.55-7.17-32.67,11.81-37.39,19S566.87,237,563.92,245.22c-7.55,21-17.53,57.34-25.19,77.8-5.05,13.46-8.09,20.41-.35,25.93,7,5,16.12-5.75,19.73-9.93,14.86-17.19,44.31-50.41,56.84-70.9,5.15-8.41,14-26.39,16.11-36C637,205.15,620.33,196.16,614.94,194.07Z"/><path class="cls-4" d="M455,289.81c16.15,5.22,23.2,9.63,27,16.56,3.11,5.62,6,18.48,6.27,24.9.55,15.06-7.77,52.94-21.93,65.58-14.4,12.85-84.79,12.85-99.19,0-14.16-12.64-22.48-50.52-21.93-65.58.23-6.42,3.16-19.28,6.27-24.9,3.84-6.93,10.88-11.34,27-16.56,18.49-6,37.3-5,37.3-5S436.52,283.83,455,289.81Z"/><path class="cls-2" d="M250.89,249.12c13.76-11.4,4.47-32.14.67-39.86s-14.77-21.57-20.14-28.39c-13.77-17.45-56.38-69.4-65-89.37-6-14-23.92,10.38-23.92,10.38s10.77,14.37,15.54,24c10,20.33,17.56,50.38,32.94,84.59,4.05,9,15.35,25.59,22.22,32.49C232.45,262.3,246.88,252.43,250.89,249.12Z"/><path class="cls-2" d="M356,149.16c-8.55,26.33-35.52,43.78-35.52,43.78s-48.23,39.39-64.1,52.77c-7.48,6.31-22.84,19.73-39.09,1.51h0c-13.4-15-1.17-30.46,5.38-37.19,13.34-13.69,43.24-38.62,53.89-54.23,7.93-11.64,25.91-35.58,48.33-44.45,0,0,7.26-6.34,22.27,7l.59.52A28.7,28.7,0,0,1,356,149.16Z"/><path class="cls-2" d="M541.56,345.31c2,3.19,3.07,9-3,14.84,0,0-17.63,20.21-25.4,24.34-3.47,1.84-12.79,6.25-15.38,3.29-7.33-8.38-12.06-28.61-9.72-41.72.71-3.93,9.41-8.06,13.33-8.82,4.31-.84,13,2.62,17.34,2.78a67.49,67.49,0,0,0,7.19-.39C531.84,339.08,538.78,340.94,541.56,345.31Z"/><polygon class="cls-2" points="531.8 332.88 527.66 339.57 531.03 352.06 535 364.14 540.59 358.12 550.74 351.08 531.8 332.88"/><polygon class="cls-5" points="529.08 337.21 538.41 321.46 558.88 343.37 547.63 356.1 529.08 337.21"/><path class="cls-6" d="M522.63,110.09l16.57,8.49S588,162.51,586.56,165s-31.95,52.19-31.95,52.19S511.1,187.56,510,186.43s-12.71-29.29-13.49-28.91S509.59,116.87,510,115s12.66-5,12.66-5"/><polygon points="250.07 377.32 250.17 377.28 250.07 377.23 250.07 377.32"/><polygon points="250.17 377.28 250.27 377.32 250.27 377.23 250.17 377.28"/><polygon points="250.07 377.32 250.17 377.28 250.07 377.23 250.07 377.32"/><polygon points="250.17 377.28 250.27 377.32 250.27 377.23 250.17 377.28"/><path class="cls-7" d="M334.42,344.67l1-23h161l-2.34,21.6a9.64,9.64,0,0,1-9.31,8.59l-139.49,3.88A10.63,10.63,0,0,1,334.42,344.67Z"/><path class="cls-7" d="M332.75,308.27,320.52,192.94l-6.69-82.51,11.1-5.75,53.9-27.93,42.81,52.53L458,80.12l64.66,30-10.44,101-15.71,73.05L493.77,294A23.1,23.1,0,0,1,497,315.94l-2.7,7.33L338.2,325.75l-3.61-8.35A22.22,22.22,0,0,1,332.75,308.27Z"/><polygon class="cls-8" points="375.57 81.1 385.55 62.73 413.22 109.22 397.29 133.63 375.57 81.1"/><polygon class="cls-8" points="459.95 82.95 446.03 62.09 425.34 108.47 444.04 131.79 459.95 82.95"/><polygon class="cls-9" points="413.22 109.22 421.39 129.28 410.37 120.19 397.29 133.63 413.22 109.22"/><polygon class="cls-9" points="421.39 129.28 425.34 108.47 444.04 131.79 430.66 121.25 421.39 129.28"/><path class="cls-6" d="M320.52,192.94c-1.77.71-43.63,47.28-44.69,46.62s-28.58-63.49-27.52-63.49,65.52-65.64,65.52-65.64"/></svg>