<svg id="Calque_1" data-name="Calque 1" xmlns="http://www.w3.org/2000/svg" viewBox="0 0 588 350.84"><defs><style>.cls-1{fill:#375d63;}.cls-2{fill:#d18774;}.cls-3{fill:#f7a386;}.cls-4{fill:#3f372e;}</style></defs><path class="cls-1" d="M381.83,317.32c-23.32,2.49-44.51,10-69.8,18.32,0,0-11.55.45-10.77-.15l-70.83-16.58,5.92-58.41a20.89,20.89,0,0,1,20.78-18.78H357a20.88,20.88,0,0,1,20.83,19.41Z"/><rect class="cls-2" x="287.89" width="39.52" height="47.38"/><path class="cls-3" d="M481.12,165.41s0,0,0,0h0l-73.19-78.3,0,0c-9.34-10-25.15-10.22-35.29-.51s-10.81,25.7-1.45,35.7a5.7,5.7,0,0,0,.42.43l85.65,71.43c8.68,7,19.26,6.78,25.12,0C488.93,186.5,492.39,177,481.12,165.41Z"/><path class="cls-3" d="M406.64,279.35l-14.39-15-10-3.08L381.72,272s-24.55,32-22.51,31.18l-1.9,16.2c4.58-3.1,22.32-15.14,29.55-20C395.67,293.42,406.64,279.35,406.64,279.35Z"/><path class="cls-3" d="M478.15,164.25c-11.14-8.26-24.59-5.34-33.1,5.42-.18.23-3.48,5.37-3.48,5.37l-50.64,94.64s-5.1,6.92,2.85,12.51c7.14,5,12.86-2.84,12.86-2.84l69.26-73.27c8-8.45,14.08-18.41,11.75-29.8C486.71,171.65,481.63,166.82,478.15,164.25Z"/><path class="cls-3" d="M484.65,203.79l-.1-.1q-.26.28-.54.57a.57.57,0,0,1-.14.13Z"/><path class="cls-3" d="M230.85,155.85l-34.48,50.78-2.69,3.42a14.41,14.41,0,0,1-19.32,3.08h0A14.42,14.42,0,0,1,169,195.76l2.26-5.63s19-40.49,23.7-54.61c5.75-17.3,16.83-71,46.45-56.23h0C252.19,84.68,260.84,98.47,255,109Z"/><path class="cls-3" d="M180.23,215.55h0a16.94,16.94,0,0,0,14.92-9.86,10.58,10.58,0,0,0,.81-1.76c1.87-10.08-.52-30.88-2.63-40.91-4.88-23.31-26.86-93-26.86-93h0a9.89,9.89,0,0,0-12.56-4.89l-1.08.43a9.88,9.88,0,0,0-6,11.17c.18.86.32,1.64.41,2.24,1.52,10.52,6.21,79,8,93.22,1,8.29,6.37,24.42,10.21,31.84C167.58,208.21,174.64,215.71,180.23,215.55Z"/><path class="cls-3" d="M167,70.2s1.07,16.55-4,15.42l-1.86-.41-40.7-10.63L74.29,52.29l6.78-5.76,7.9.41,33,13.41,13.78-3.41L120.1,36.21l6-5.27,17.42,15.77,16.12,9.95Z"/><path class="cls-4" d="M390.83,76.69c0,3-15.85,53.51-15.85,56.48s-.63,78.6-.63,78.6l18.76,128a18.21,18.21,0,0,1-15.62,20.7s-53.09,10.14-71,9.46c-17.32-.67-67.82-14.38-67.82-14.38a18.23,18.23,0,0,1-14.31-20L239.8,207.39,239.14,129,222,76.69l61-26.38,2.5-17.68L330,33l2,18.31Z"/><polygon class="cls-4" points="221.84 78.38 239.13 148.75 374.72 148.75 390.67 78.38 355.67 63.27 254.04 64.45 221.84 78.38"/></svg>