<svg xmlns="http://www.w3.org/2000/svg" viewBox="0 0 588 387.05"><defs><style>.cls-1{fill:#a85b3b;}.cls-2{fill:#6d323a;}.cls-3{fill:#944e31;}.cls-4{fill:none;}.cls-5{fill:#473415;}.cls-6{fill:#3f302b;}</style></defs><g id="Calque_7" data-name="Calque 7"><path class="cls-1" d="M17.57,102.76,2.32,88.86-23.11,76.17s-1.69,5.37-1,7c2.19,5.1,9.59,9.92,14,13.22.59.44,1.87,3.56,1.62,4.25-1,2.85-7.38,2.23-7.38,2.23L3.05,111.1Z"/><path class="cls-1" d="M10.93,102.49l-5,20.65-44.89-7-41.72-24s4.48-5,6.56-5.42c10.87-2.23,31.71,9.91,42.45,12.59C-20.08,102.2,10.93,102.49,10.93,102.49Z"/><ellipse class="cls-1" cx="9.28" cy="111.64" rx="12.15" ry="12.1" transform="translate(-86.89 54.19) rotate(-54.39)"/><path class="cls-1" d="M415.63,127.55c-.6,38.39-26.2,33.17-36.86,42.29-12.58,10.77-8.27,50-17.18,64-2.45,3.84-11.36,10.1-15.8,9.08-12.51-2.87-24-30.73-34.77-37.73-6.33-4.12-23.57-3.62-30.19,0-11.25,6.16-22.27,34.86-34.77,37.73-4.44,1-13.35-5.24-15.8-9.08-8.91-14-4.6-53.24-17.19-64-10.65-9.12-36.25-3.9-36.86-42.29-.41-26.59,35-37.34,35-37.34L251.35,70.3a31.4,31.4,0,0,0,7.1-4.82,29.11,29.11,0,0,0,2.29-2.29l.63-.71.05-.06A31.55,31.55,0,0,0,268.64,46a30.71,30.71,0,0,0,.25-4.19l0-2.84,0-4.51h53.63l.06,5,0,1.5,0,3.21c0,.33,0,.67,0,1v0c0,.65.09,1.3.16,2a29.38,29.38,0,0,0,.93,4.57,28.5,28.5,0,0,0,14.7,17.59l40.53,20.1a27.41,27.41,0,0,0,3.16,1.33C388.77,93.08,416,104.21,415.63,127.55Z"/><path class="cls-1" d="M323.27,82.73l-27.5,32.5L281,97.54,268.58,82.73l.72-41.56,0-2.21.08-4.51h53v.23l.08,4.66v0l0,1.56.07,4.21v0l0,1.28.12,6.79Z"/><path class="cls-2" d="M323.77,52l-1,1.25c-5.16,6.33-28.83,35-41.79,44.31-3.2,2.29-5.74,3.39-7.2,2.69C267,97,258.93,65.13,258.93,65.13l.08-.07a21,21,0,0,0,1.73-1.87q.48-.57,1.05-1.32l.06-.08a39.39,39.39,0,0,0,6.66-15.16c0-.21.09-.42.13-.64.26-1.37.48-3,.66-4.82.07-.71.13-1.45.19-2.21.11-1.42.2-2.94.28-4.51h52.67v.23l0,4.28,0,6.72.15.76.14.67.93,4.57Z"/><path class="cls-3" d="M354.18,121.38c-1.24,27.65,17.9,53.46,17.9,53.46s31.33,53.82,41.49,71.91c4.79,8.53,14.47,26.49,36.08,15.13h0c17.82-9.35,11.79-28.11,8-36.71-7.68-17.5-26.93-51.34-31.42-69.7-3.34-13.67-3.17-36-21.05-52.23,0,0-13.18-14.83-31.9-7.64l-.74.29a28.68,28.68,0,0,0-18.37,25.49Z"/><path class="cls-4" d="M334.13,275.2c16.16,5.23,23.2,9.63,27.05,16.57,3.11,5.61,6,18.48,6.27,24.89.54,15.07-7.77,52.95-21.93,65.59-14.4,12.85-84.8,12.85-99.2,0-14.16-12.64-22.47-50.52-21.93-65.59.23-6.41,3.16-19.28,6.27-24.89,3.85-6.94,10.89-11.34,27-16.57,18.49-6,37.29-5,37.29-5S315.64,269.23,334.13,275.2Z"/><path class="cls-1" d="M132.65,232.24c11-14.12-2.85-33.31-8.24-40S105.3,174.38,98.57,168.9c-17.24-14-68.24-48.53-81-66.14-8.93-12.33-23,8.42-23,8.42S8.22,122.85,15,131.25c14.23,17.66,28.11,45.35,50.58,75.39,5.91,7.89,20.55,21.63,28.77,26.87C117.31,248.15,129.47,236.35,132.65,232.24Z"/><path class="cls-1" d="M232,137.71c-8.55,26.33-35.53,43.78-35.53,43.78s-48.22,39.39-64.09,52.77c-7.48,6.3-22.84,19.72-39.1,1.5h0c-13.4-15-1.17-30.46,5.39-37.19C112,184.88,141.93,160,152.58,144.34c7.93-11.63,15.62-32.65,38-41.52,0,0,17.55-9.26,32.55,4l.6.53A28.7,28.7,0,0,1,232,137.71Z"/><polygon points="130.58 362.62 130.68 362.58 130.58 362.52 130.58 362.62"/><polygon points="130.68 362.58 130.78 362.62 130.78 362.52 130.68 362.58"/><polygon points="130.58 362.62 130.68 362.58 130.58 362.52 130.58 362.62"/><polygon points="130.68 362.58 130.78 362.62 130.78 362.52 130.68 362.58"/><polygon class="cls-5" points="217.06 334.37 218.56 311.87 373.56 311.87 375.56 331.37 217.06 334.37"/><path class="cls-6" d="M205.13,89.77c-2.54,4.84,9.2,79.83,9.2,79.83s3.43,173,4,164.54,160.5,16.5,158.5-3,.73-153.29.73-153.29l5.81-87.39L353.58,75.93s-14.31,34.21-14.31,34.21l-91.91,1.27-17.59-30Z"/><path class="cls-1" d="M462.14,251.68c2.8-17.21-16.24-30.35-23.35-34.75s-22.69-10-30.35-12.73c-19.62-7.06-52.9-16.4-72-23.56-12.59-4.71-19.17-7.55-22.53-.38-3,6.53,7.95,15,12.23,18.34,17.63,13.82,51.82,41.24,71.88,52.92,8.24,4.8,25.44,13,34.18,15C456.6,272.14,461.33,256.68,462.14,251.68Z"/><path class="cls-1" d="M354.12,189l-10.5-5.66s-20.43-22.7-21.33-23.6S306.08,146,305,145s-8.57-10.91-8.57-10.91l-4.76,9.6L299.52,155l9.31,9.26-23.68-4.43s-35.67-10.38-36.27-9.18-1.47,8.09-.27,8.69,34.78,11.28,34.78,11.28-42.55-5.87-42.85-3.77-.57,9.59,1.23,9.58,38,3.79,38,3.79-38.61,2.81-38,4,2.95,8.4,2.95,8.4l37.79-1.34-26.64,8.76s4.52,7.48,5.71,7.47,30.53-8.47,30.53-8.47,29.64,3.07,31.16,2.31c4.39-2.2,14.39,4.15,14.39,4.15Z"/></g></svg>