<svg id="Calque_1" data-name="Calque 1" xmlns="http://www.w3.org/2000/svg" viewBox="0 0 588 350.84"><defs><style>.cls-1{fill:#375d63;}.cls-2{fill:#547ab2;}.cls-3{fill:#f7a386;}.cls-4{fill:#d39844;}.cls-5{fill:#e59690;}</style></defs><path class="cls-1" d="M381.83,317.32c-23.32,2.49-44.51,10-69.8,18.32,0,0-11.55.45-10.77-.15l-70.83-16.58,5.92-58.41a20.89,20.89,0,0,1,20.78-18.78H357a20.88,20.88,0,0,1,20.83,19.41Z"/><path class="cls-2" d="M386.11,83.7c0,3-11.29,48.18-11.29,51.15s-.63,78.61-.63,78.61l18.76,128a18.22,18.22,0,0,1-15.62,20.7s-53.09,10.13-71,9.45c-17.32-.66-67.82-14.38-67.82-14.38a18.23,18.23,0,0,1-14.31-20l15.43-128.21L239,130.65l-6.35-39.54,20.74-3.61L291,67.35l5,10.06h25.09l6.38-14.5Z"/><path class="cls-3" d="M134.7,164s0,0,0,0h0l73.19-78.3,0,0c9.34-10,25.14-10.22,35.29-.52s10.8,25.71,1.45,35.71c-.14.15-.28.29-.43.43l-85.64,71.43c-8.68,7-19.26,6.77-25.12,0C126.88,185.1,123.43,175.59,134.7,164Z"/><path class="cls-3" d="M209.18,278l14.39-15,10-3.08.57,10.72s24.55,32,22.5,31.18L258.51,318c-4.58-3.11-22.32-15.15-29.56-20C220.15,292,209.18,278,209.18,278Z"/><path class="cls-3" d="M137.67,162.85c11.14-8.25,24.59-5.34,33.1,5.43.18.22,3.48,5.36,3.48,5.36l50.64,94.65s5.1,6.92-2.85,12.51c-7.14,5-12.86-2.85-12.86-2.85l-69.26-73.26c-8-8.45-14.09-18.41-11.76-29.81C129.11,170.26,134.19,165.43,137.67,162.85Z"/><path class="cls-3" d="M131.17,202.39l.09-.1c.18.2.36.39.55.58l.14.13Z"/><path class="cls-3" d="M471.3,153.3l0,0h0l-79.6-71.77,0,0c-10.16-9.16-25.93-8.05-35.21,2.49s-8.57,26.53,1.6,35.7a5.58,5.58,0,0,0,.46.39L449.92,184c9.25,6.28,19.77,5.11,25-2.14C480.89,173.64,483.52,163.87,471.3,153.3Z"/><path class="cls-3" d="M406.8,273.17l-15.62-13.72L381,257.23l.36,10.74s-21.75,33.93-19.77,33l-.52,16.31c4.3-3.48,20.95-17,27.74-22.47C397.07,288.12,406.8,273.17,406.8,273.17Z"/><path class="cls-3" d="M468.24,152.39c-11.8-7.27-24.95-3.22-32.51,8.23-.16.24-3,5.64-3,5.64l-42.38,98.61s-4.5,7.34,3.9,12.23c7.54,4.39,12.57-3.93,12.57-3.93l62.77-78.9c7.24-9.1,12.46-19.54,9.17-30.7C477.4,159,471.93,154.66,468.24,152.39Z"/><path class="cls-3" d="M478.09,191.23l-.1-.09-.5.63-.12.14Z"/><polygon class="cls-4" points="239.99 69.86 210.11 80.09 239.01 134.68 374.82 134.85 390.67 78.38 370.63 69.34 327.41 47.38 287.89 47.38 239.99 69.86"/><polygon class="cls-3" points="239.99 69.86 287.89 47.38 327.41 47.38 370.63 69.34 306.26 83.7 239.99 69.86"/><polygon class="cls-5" points="327.41 0 287.89 0 287.94 47.38 308.31 60.07 327.46 47.38 327.41 0"/></svg>