<svg id="Calque_1" data-name="Calque 1" xmlns="http://www.w3.org/2000/svg" viewBox="0 0 728 400.56"><defs><style>.cls-1{fill:#7a919e;}.cls-2{fill:#9d9b88;}.cls-3{fill:#6d323a;}.cls-4{fill:#a3973b;}.cls-5{fill:#9f9d8a;stroke:#000;stroke-width:3px;}.cls-11,.cls-5{stroke-miterlimit:10;}.cls-6{fill:#7d4b23;}.cls-7{fill:#927c54;}.cls-8{fill:#a85b3b;}.cls-9{fill:#757257;}.cls-10{fill:#c2ba7d;}.cls-11{fill:none;stroke:#918215;}</style></defs><polygon class="cls-1" points="271.88 91.29 272.74 62.39 333.22 61.76 332.88 91.29 271.88 91.29"/><polygon points="137.26 376.99 137.36 376.95 137.26 376.9 137.26 376.99"/><polygon points="137.36 376.95 137.46 376.99 137.46 376.9 137.36 376.95"/><polygon points="137.26 376.99 137.36 376.95 137.26 376.9 137.26 376.99"/><polygon points="137.36 376.95 137.46 376.99 137.46 376.9 137.36 376.95"/><path class="cls-2" d="M318.24,218.92c10.74,7,22.26,34.86,34.77,37.73,4.44,1,13.35-5.24,15.8-9.08,8.91-14,4.6-53.24,17.18-64,10.66-9.12,36.26-3.9,36.86-42.29.37-23.34-26.86-34.47-33.53-36.85a28.17,28.17,0,0,1-3.16-1.33L345.63,83a28.46,28.46,0,0,1-15.82-25.13l-.23-18.06-27,2.07L276,39.79l.11,15.73A31.55,31.55,0,0,1,258.57,84l-40.15,19.91s-35.4,10.74-35,37.34c.61,38.39,26.21,33.17,36.86,42.29,12.59,10.77,8.28,50,17.19,64,2.45,3.84,11.36,10.1,15.8,9.08,12.5-2.87,23.52-31.57,34.77-37.73C294.67,215.3,311.91,214.8,318.24,218.92Z"/><polygon class="cls-3" points="304.49 34.45 329.49 38.45 330.49 96.45 302.99 128.95 275.8 96.45 276.8 38.45 304.49 34.45"/><path class="cls-4" d="M365,148c11.91,25,40.93,38.78,40.93,38.78s53,32.76,70.43,44c8.24,5.27,25.22,16.57,39-3.61h0c11.33-16.64-2.81-30.36-10.19-36.17-15-11.84-47.91-32.65-60.5-46.74-9.38-10.5-23.29-34.09-46.67-40,0,0-15.07-3.14-28.21,12l-.52.6A28.7,28.7,0,0,0,365,148Z"/><path class="cls-5" d="M232.85,121.44c17.78,21.22,18.24,53.34,18.24,53.34s7.78,61.79,10.7,82.34c1.37,9.68,4.59,29.82-19.48,33.92h0c-19.84,3.39-26.44-15.18-28.66-24.3-4.52-18.57-9.77-57.15-17.35-74.46-5.65-12.89-19.38-30.57-15-54.28,0,0,1.46-19.79,20.71-25.44l.76-.23a28.7,28.7,0,0,1,30.07,9.11Z"/><polygon class="cls-6" points="227.17 348.75 225.39 325.42 383.67 321.38 380.54 345.21 227.17 348.75"/><path class="cls-4" d="M219.94,307.94l1.62-132.17L201,110.1l65-33.68L308.82,129l36.34-49.16,64.66,30-10.44,101-26.61,72.07,8.19,10.8a23.12,23.12,0,0,1,3.27,21.95l-.56,5.77-158.28,4-3.62-8.35A22.37,22.37,0,0,1,219.94,307.94Z"/><path class="cls-6" d="M365.11,244.34l1.19,10.16-8.55,5.74,1.12,3.08c-26.65,13.09-93,45.26-93.59,45.49-1.59.59-10.81,4.78-16.08,4.78-8.8,0-29.37-12.16-29.37-12.16s-2.14-13.94.17-13.38,123-45.93,125.81-45.24S365.11,244.34,365.11,244.34Z"/><rect class="cls-7" x="358.05" y="131.02" width="225.48" height="156.33" rx="10.58" transform="translate(-21.23 56.5) rotate(-6.72)"/><path class="cls-8" d="M577,258.65h2.47a6.79,6.79,0,0,1,6.79,6.79v15.44a6.79,6.79,0,0,1-6.79,6.79h0a6.79,6.79,0,0,1-6.79-6.79V263a4.33,4.33,0,0,1,4.33-4.33Z" transform="translate(-61.16 271.98) rotate(-25.13)"/><path class="cls-9" d="M514.77,282.58l40.46-6.66-2.09,20.95a3.66,3.66,0,0,1-4.53,3.19l-9.55-2.38A41.44,41.44,0,0,1,522,288.82Z"/><path class="cls-8" d="M545.56,259.56h10.29a16.82,16.82,0,0,1,16.82,16.82v5.26a15.9,15.9,0,0,1-15.9,15.9h-8.88a10.11,10.11,0,0,1-10.11-10.11V267.35a7.78,7.78,0,0,1,7.78-7.78Z" transform="translate(-65.74 262.19) rotate(-25.13)"/><path class="cls-8" d="M358.87,220.24l13,20.08,11.44-2.25,24.17-3.74a16.63,16.63,0,0,0,13.16-11l6.74-19.24,29.78-4.4a8.68,8.68,0,0,0,7.29-8.47v-1.21l-34.91,2.53,1.88-5-17.73.3-10.39.06a31,31,0,0,0-16,4.57l-9.44,5.72c-2,2.17-2.65,3.18-6.43,8.41L366,214.17"/><path class="cls-8" d="M217.76,270.65c-3.84-19.51,17.3-30.12,25.21-33.52s25.42-6.36,34-7.84C299,225.5,336.5,222,358,218c14.13-2.62,21.5-4.42,25.59,4.17,3.71,7.8-4.14,13.69-8.88,16.52-19.51,11.65-61.66,36.07-84,44.85-9.18,3.61-28.41,9.19-38.27,9.61C224.84,294.31,218.88,276.33,217.76,270.65Z"/><path class="cls-4" d="M227.15,99S184,115.35,176.33,125.34c-7.31,9.58-3.09,48.93-3.09,48.93s16.62,94.07,37.82,116c5,5.15,22.44,9.92,31.36,12.1a15.68,15.68,0,0,0,10.17-.95l100.85-45.64-8.45-40L253.85,227.7l-18-67.58"/><polygon class="cls-10" points="262.76 80.77 272.74 62.39 300.41 108.89 284.48 133.3 262.76 80.77"/><polygon class="cls-10" points="347.13 82.61 333.22 61.76 312.53 108.14 331.23 131.46 347.13 82.61"/><polygon class="cls-6" points="300.41 108.89 308.58 128.95 297.56 119.86 284.48 133.3 300.41 108.89"/><polygon class="cls-6" points="308.58 128.95 312.53 108.14 331.23 131.46 317.84 120.92 308.58 128.95"/><path class="cls-11" d="M235.62,157.68c1.34,0,18.23,70,18.23,70L345,215.81l8.45,40"/></svg>