<svg id="Calque_1" data-name="Calque 1" xmlns="http://www.w3.org/2000/svg" viewBox="0 0 728 400.56"><defs><style>.cls-1{fill:#a85b3b;}.cls-2{fill:#a85d3d;}.cls-3,.cls-4{fill:none;}.cls-3{stroke:#000;stroke-miterlimit:10;stroke-width:3px;}.cls-5{fill:#46455b;}.cls-6{fill:#37344d;}</style></defs><polygon points="200.22 376.99 200.32 376.95 200.22 376.9 200.22 376.99"/><polygon points="200.32 376.95 200.42 376.99 200.42 376.9 200.32 376.95"/><polygon points="200.22 376.99 200.32 376.95 200.22 376.9 200.22 376.99"/><polygon points="200.32 376.95 200.42 376.99 200.42 376.9 200.32 376.95"/><path class="cls-1" d="M485.81,141.26c-.6,38.39-26.2,33.18-36.86,42.3-12.58,10.77-8.27,50-17.18,64-2.45,3.84-11.36,10.11-15.8,9.09-12.51-2.88-24-30.73-34.77-37.73-6.33-4.12-23.57-3.63-30.19,0-11.25,6.16-22.27,34.85-34.77,37.73-4.44,1-13.35-5.25-15.8-9.09-8.91-14-4.6-53.23-17.19-64-10.65-9.12-36.25-3.91-36.86-42.3-.41-26.59,35-37.33,35-37.33L321.53,84a31.4,31.4,0,0,0,7.1-4.82,29.11,29.11,0,0,0,2.29-2.29c.23-.24.44-.49.65-.74a31.43,31.43,0,0,0,7.25-16.45,30.71,30.71,0,0,0,.25-4.19l.39-2.84.41-3,.16-1.15h52.62l.06,4.63,0,1.46,0,3.25c0,.33,0,.67,0,1v0c0,.65.09,1.29.16,1.93a29.27,29.27,0,0,0,.93,4.58A28.49,28.49,0,0,0,408.59,83l40.53,20.1a29.35,29.35,0,0,0,3.16,1.34C459,106.79,486.18,117.92,485.81,141.26Z"/><path class="cls-1" d="M393.45,96.44,366,128.94l-14.8-17.69L338.76,96.44l2.92-43.76.28-4.17h50.66l.08,4.55v0l0,1.52.07,4.25v0l0,1.26.12,6.79Z"/><path class="cls-2" d="M394,65.69l-1,1.25c-5.15,6.33-28.83,35.05-41.79,44.31-3.2,2.29-5.74,3.4-7.2,2.69-6.76-3.26-14.84-35.1-14.84-35.1l.08-.07a21,21,0,0,0,1.73-1.87q.48-.57,1.05-1.32l0-.07a39.45,39.45,0,0,0,6.67-15.16c0-.21.09-.42.13-.64a67.14,67.14,0,0,0,.85-7c.08-1,.14-2,.2-3l.06-1.15h52.69l0,4.17,0,6.71.15.76.14.67.93,4.58Z"/><path class="cls-3" d="M428,148c11.9,25,40.93,38.78,40.93,38.78s53,32.76,70.43,44c8.23,5.27,25.21,16.57,39-3.61h0c11.33-16.64-2.81-30.36-10.19-36.17-15-11.84-47.9-32.65-60.5-46.74-9.38-10.5-19.75-30.34-43.13-36.2,0,0-18.61-6.9-31.75,8.25l-.52.6A28.68,28.68,0,0,0,428,148Z"/><path class="cls-1" d="M564.25,193.19c-18.55-7.17-32.67,11.81-37.39,19s-10.68,23.92-13.63,32.14c-7.55,21-17.52,57.34-25.19,77.8-5,13.46-8.09,20.41-.35,25.92,7.05,5,16.13-5.74,19.74-9.92,14.85-17.19,44.3-50.41,56.84-70.9,5.14-8.42,14-26.39,16.11-36C586.32,204.27,569.65,195.27,564.25,193.19Z"/><path class="cls-3" d="M435.74,303.78c-.88-4-5.67-25.28-5.62-33.83.06-9.18,4-27.71,1.81-36.66-9.77-39.58-123.54-39.65-133.32,0-2.21,9,1.74,27.48,1.8,36.66.06,8.55-4.73,29.81-5.62,33.83-11,50.32,70.35,73.37,70.35,73.37S446.78,354.1,435.74,303.78Z"/><path class="cls-4" d="M404.32,288.92c16.16,5.23,23.2,9.63,27,16.57,3.11,5.61,6,18.48,6.27,24.89.55,15.07-7.77,52.95-21.92,65.59-14.41,12.85-84.8,12.85-99.2,0-14.16-12.64-22.47-50.52-21.93-65.59.23-6.41,3.16-19.28,6.27-24.89,3.84-6.94,10.89-11.34,27-16.57,18.49-6,37.3-5,37.3-5S385.83,283,404.32,288.92Z"/><path class="cls-1" d="M186.11,256.42c19.9-.15,26.06-23,27.8-31.41s1.15-26.18.87-34.9c-.7-22.34-4.75-59.77-5.14-81.62-.25-14.37,0-22-9.2-24.24-8.39-2.07-12.88,11.27-14.71,16.48-7.5,21.44-22.69,63.16-26.82,86.82-1.7,9.72-3.32,29.68-1.76,39.42C161.52,254.22,180.33,256.46,186.11,256.42Z"/><path class="cls-3" d="M305.35,148.28c-8.54,26.33-35.52,43.78-35.52,43.78s-48.23,39.39-64.1,52.77c-7.47,6.31-22.83,19.72-39.09,1.51h0c-13.4-15-1.17-30.47,5.39-37.2,13.33-13.69,43.23-38.61,53.88-54.23,7.93-11.63,15.63-32.65,38-41.52,0,0,17.56-9.26,32.56,4l.59.52a28.7,28.7,0,0,1,8.25,30.32Z"/><path class="cls-5" d="M392.65,52.68s3.06,21.51,11.59,26.75c7,4.31,39.18,20.95,61.18,26.76,34.89,9.21,70.82,63.78,109.85,87.57,7.29,4.44,8.89,20.65,8.48,26.66C583,231.56,573.56,251,568,262.22c-10.71,21.66-51.1,73.91-51.1,73.91l-2.53,3.93a8,8,0,0,1-12.24,1.55l-13.32-12.37a11.19,11.19,0,0,1-2.31-13.4l7.63-14.57,26.53-79.75L453,181.68l-10.27,66.5,17.7,117.65L447.1,386.9l-168.78.39-6.69-14.53,14.9-127.47-6.88-56.51S227.73,232,211.44,245.26c-6.63,5.39-25.81,16.19-34.19,14.51-8-1.6-19-14.5-21.24-21.75-3.45-11-2.81-34.64-.72-45.94,3.34-18.11,16.8-64.31,21.63-80.7a6.83,6.83,0,0,1,7.77-4.79l26.06,4.68a4.62,4.62,0,0,1,3.76,4.52l.06,50.5s24.89-42.22,38.33-49.73C284.42,99,323.64,83.2,329.11,78.85c7.48-5.95,9.94-26.17,9.94-26.17Z"/><path class="cls-1" d="M490.87,344.42c2,3.2,3.07,9-3,14.84,0,0-17.64,20.22-25.41,24.34-3.47,1.84-12.79,6.26-15.37,3.3-7.33-8.38-12.07-28.61-9.73-41.72.71-3.94,9.41-8.06,13.34-8.82,4.31-.84,13,2.62,17.34,2.78a65.2,65.2,0,0,0,7.18-.4C481.15,338.2,488.1,340.06,490.87,344.42Z"/><polygon class="cls-1" points="481.11 331.99 476.97 338.69 480.34 351.18 484.31 363.25 489.9 357.24 500.05 350.2 481.11 331.99"/><polygon class="cls-6" points="478.4 336.33 487.72 320.58 508.19 342.49 496.94 355.22 478.4 336.33"/><path class="cls-1" d="M198.62,93.42c-3-1.81-6.47-6.43-4.42-14.53,0,0,4.45-26.5,8.59-34,1.85-3.34,7-11.82,10.38-10.5,9.48,3.74,22.32,19.18,26.46,31.88,1.24,3.8-3.62,11.73-6.3,14.34-3,2.87-11.2,4.1-14.67,6.13a59,59,0,0,0-5.37,3.91C209,94.08,202.75,95.88,198.62,93.42Z"/><polygon class="cls-1" points="211.81 99.52 211.97 91.59 203.69 82.27 195.14 73.61 193.56 81.67 188.91 92.88 211.81 99.52"/><polygon class="cls-6" points="212.15 95.81 212.5 112.24 181.65 107.2 188.55 89.62 212.15 95.81"/></svg>