<svg id="Calque_1" data-name="Calque 1" xmlns="http://www.w3.org/2000/svg" viewBox="0 0 728 400.56"><defs><style>.cls-1{fill:#82382e;}.cls-2{fill:#a85b3b;}.cls-3{fill:#473415;}.cls-4{fill:#823f1d;}.cls-5{fill:#b5b900;}</style></defs><path class="cls-1" d="M475.67,201.65c-.6,38.39-13.21,39.18-23.86,48.3-12.58,10.77-8.27,50-17.18,64-2.46,3.84-11.36,10.11-15.8,9.09-12.51-2.88-24-30.73-34.77-37.73-6.33-4.12-23.58-3.63-30.19,0-11.25,6.16-22.27,34.85-34.77,37.73-4.44,1-13.35-5.25-15.8-9.09-8.91-14-4.6-53.23-17.19-64-10.65-9.12-20.25-6.91-20.86-45.3-.41-26.59,19-34.33,19-34.33l40.16-19.92a31.51,31.51,0,0,0,17.53-28.49l0-7H395.5l.09,6.09,0,3.25c0,.33,0,.67,0,1v0a28.48,28.48,0,0,0,15.79,24.09L452,169.47a29.35,29.35,0,0,0,3.16,1.34C461.81,173.18,476,178.31,475.67,201.65Z"/><path class="cls-2" d="M426.5,177.51c22.18-16.55,54.28-15.21,54.28-15.21s62.13-4.3,82.81-6.05c9.74-.83,30-2.91,32.78,21.35h0c2.26,20-16.65,25.55-25.88,27.25-18.8,3.47-57.61,6.54-75.32,13.14-13.19,4.91-31.61,17.63-55,11.91,0,0-19.68-2.57-24.24-22.1l-.18-.77a28.68,28.68,0,0,1,10.78-29.52Z"/><path class="cls-2" d="M559.15,200.54c-17.9-8.67-13.67-31.94-11.63-40.3s10.2-24.13,14.19-31.9c10.22-19.87,29.95-51.94,39.67-71.51,6.4-12.87,9.4-19.84,18.71-17.95,8.47,1.73,6.81,15.71,6.22,21.2-2.43,22.59-6.61,66.78-13,89.93-2.64,9.51-9.74,28.23-15.33,36.36C582.31,209.11,564.35,203.06,559.15,200.54Z"/><polygon class="cls-3" points="289.56 415.13 291.06 392.63 446.06 392.63 448.06 412.13 289.56 415.13"/><path class="cls-2" d="M309.73,179.78c-22.19-16.56-54.29-15.22-54.29-15.22s-62.12-4.29-82.8-6.05c-9.75-.83-30-2.9-32.78,21.36h0c-2.26,20,16.64,25.54,25.88,27.24,18.79,3.48,57.6,6.55,75.31,13.14,13.19,4.92,31.62,17.63,55,11.92,0,0,19.68-2.58,24.24-22.11l.18-.77a28.68,28.68,0,0,0-10.78-29.51Z"/><path class="cls-2" d="M177.07,202.81c17.91-8.67,13.67-31.94,11.63-40.3s-10.2-24.14-14.19-31.9c-10.22-19.88-29.94-52-39.67-71.52-6.39-12.87-9.39-19.84-18.71-17.94-8.47,1.73-6.8,15.7-6.21,21.19,2.43,22.59,6.6,66.79,13,89.94,2.64,9.5,9.75,28.23,15.34,36.36C153.91,211.37,171.87,205.33,177.07,202.81Z"/><path class="cls-2" d="M107.41,52.53a36.56,36.56,0,0,1-3.14-13.09l-1.38-24.09a8.09,8.09,0,0,1,2-5.5h0a10.37,10.37,0,0,1,7.65-3.36l20.69-3.16c3.44-.09,5.12.77,6.59,3.61l-.54,6.48s1.86,8.85,2,6.2c.38-9.35,1.86-15.7,10-14.79l-1.45,15.52c.11,1.27-1.21,3.86-1.85,5-2,3.46-3.39,11.49-5.44,14.21,0,0-10,10.21-11.08,12.65-1.14,2.62,1.23,6,1.23,6h0A9.36,9.36,0,0,1,120.83,66l-8.77-2.46Z"/><path class="cls-4" d="M139.81,6.94l-1.29,12.6-7.89,13.08-8-1.33,1.3,1a10.13,10.13,0,0,1,3.68,9.1l-.52,4.33L132,35.92l2.58-1.84,7.13-14.78-.34-6.62Z"/><path class="cls-2" d="M627.05,52.53a36.56,36.56,0,0,0,3.14-13.09l1.38-24.09a8.09,8.09,0,0,0-2-5.5h0a10.41,10.41,0,0,0-7.65-3.36l-20.7-3.16c-3.43-.09-5.11.77-6.58,3.61l.54,6.48s-1.87,8.85-2,6.2c-.39-9.35-1.86-15.7-10-14.79l1.45,15.52c-.11,1.27,1.21,3.86,1.84,5,2,3.46,3.4,11.49,5.45,14.21,0,0,10,10.21,11.07,12.65,1.14,2.62-1.23,6-1.23,6h0A9.37,9.37,0,0,0,613.63,66l8.77-2.46Z"/><path class="cls-4" d="M594.64,6.94l1.3,12.6,7.89,13.08,8-1.33-1.29,1a10.11,10.11,0,0,0-3.69,9.1l.52,4.33-4.86-9.84-2.58-1.84L592.79,19.3l.34-6.62Z"/><path class="cls-5" d="M236.61,160.92l28,88.25s12.74,51.32,14.7,69.85c2.19,20.77,6.84,86.56,6.84,86.56l-.7,14.05a12.67,12.67,0,0,0,12.34,13.31l143.61,3.71a12.69,12.69,0,0,0,13-13.22c-.93-21.4-2.23-63.68.13-94,1.48-18.95,14.92-75.64,14.92-75.64l29.07-93.28L430,157.62l-59.12,32.43-59.12-35.13Z"/></svg>