<svg xmlns="http://www.w3.org/2000/svg" viewBox="0 0 728 400.56"><defs><style>.cls-1{fill:#944e31;}.cls-2{fill:#a85b3b;}.cls-3{fill:#6d323a;}.cls-4{fill:#36344d;}.cls-5{fill:#473415;}.cls-6{fill:#e6ba43;}</style></defs><g id="Calque_7" data-name="Calque 7"><path class="cls-1" d="M158.57,309s-18.46-7-21.51-6.81-15.77,3.24-18.15,2.95-16.56-5.31-16.77-3.52-.15,8.73-.15,8.73l11.4,5.59,14.75.27L109.89,330s-27.37,13.84-29.2,14.26,1.07,8.91,1.07,8.91l34.67-14.84L84.11,363.7l6,7.67,34.31-26.95-29.6,32.94,8.83,4.38,27.24-28.4-14.59,26s8,4,9.11,2,17-23.59,17-23.59l27.79-22.91,1.41-9.18Z"/><polygon points="265.64 377.33 265.74 377.3 265.64 377.25 265.64 377.33"/><polygon points="265.74 377.3 265.84 377.33 265.84 377.25 265.74 377.3"/><polygon points="265.64 377.33 265.74 377.3 265.64 377.25 265.64 377.33"/><polygon points="265.74 377.3 265.84 377.33 265.84 377.25 265.74 377.3"/><path class="cls-2" d="M551.23,141.62c-.6,38.39-26.2,33.16-36.86,42.29-12.58,10.77-8.27,50-17.18,64-2.45,3.84-11.36,10.1-15.8,9.08-12.51-2.87-24-30.73-34.77-37.73-6.33-4.12-23.57-3.62-30.19,0-11.25,6.16-22.27,34.86-34.77,37.73-4.44,1-13.35-5.24-15.8-9.08-8.91-14-4.6-53.24-17.19-64-10.65-9.13-36.25-3.9-36.86-42.29-.41-26.6,35-37.35,35-37.35L387,84.37a31.43,31.43,0,0,0,7.1-4.83,30.8,30.8,0,0,0,2.29-2.28l.63-.72,0-.05a31.55,31.55,0,0,0,7.22-16.44,30.57,30.57,0,0,0,.25-4.18l0-2.85,0-4.5h53.63l.06,5,0,1.5,0,3.21c0,.32,0,.67,0,1v0c0,.65.09,1.29.16,2a29.38,29.38,0,0,0,.93,4.57A28.53,28.53,0,0,0,474,83.34l40.53,20.1a27.41,27.41,0,0,0,3.16,1.33C524.37,107.15,551.6,118.27,551.23,141.62Z"/><path class="cls-2" d="M458.87,96.79l-27.5,32.5-14.8-17.68L404.18,96.79l.72-41.55,0-2.22.08-4.5h53v.23l.08,4.66v0l0,1.56.07,4.21v0l0,1.28.12,6.78Z"/><path class="cls-3" d="M459.37,66l-1,1.25c-5.16,6.34-28.83,35.05-41.79,44.32-3.2,2.29-5.74,3.39-7.2,2.68C402.61,111,394.53,79.2,394.53,79.2l.08-.07a22.71,22.71,0,0,0,1.73-1.87q.48-.57,1.05-1.32l.06-.08a39.39,39.39,0,0,0,6.66-15.16c0-.21.09-.43.13-.65.26-1.36.48-3,.66-4.81.07-.72.13-1.46.19-2.22.11-1.41.2-2.93.28-4.5H458v.23l0,4.27,0,6.73.15.76.14.67.93,4.57Z"/><path class="cls-1" d="M493.36,148.34c11.91,25,40.93,38.77,40.93,38.77s53,32.77,70.43,44c8.24,5.28,25.22,16.58,39-3.61h0c11.32-16.63-2.82-30.35-10.19-36.17-15-11.83-47.91-32.64-60.5-46.74-9.38-10.49-19.75-30.33-43.14-36.2,0,0-18.61-6.9-31.75,8.26l-.52.59a28.69,28.69,0,0,0-4.22,31.14Z"/><path class="cls-1" d="M629.67,193.54c-18.56-7.18-32.67,11.81-37.39,19s-10.68,23.93-13.63,32.15c-7.56,21-17.53,57.33-25.2,77.8-5,13.46-8.09,20.41-.34,25.92,7,5,16.12-5.75,19.73-9.92,14.85-17.19,44.31-50.41,56.84-70.91,5.15-8.41,14-26.38,16.11-36C651.74,204.62,635.06,195.62,629.67,193.54Z"/><path class="cls-1" d="M315.67,249.56c-9.71-15-32.39-8.32-40.5-5.45S252,256.25,244.62,260.79c-18.94,11.64-75.52,47.88-96.36,54.1-14.58,4.35,7.52,25,7.52,25s15.52-9,25.68-12.62c21.37-7.59,52.09-11.54,87.87-22.82,9.41-3,27.21-12.25,34.87-18.27C325.62,269.3,318.49,253.92,315.67,249.56Z"/><path class="cls-1" d="M372.83,138.12c2.77,27.54-14.91,54.37-14.91,54.37s-28.31,55.47-37.45,74.1c-4.31,8.78-13,27.25-35.18,17.11h0c-18.31-8.36-13.33-27.42-10-36.22,6.7-17.9,24.05-52.75,27.52-71.33,2.58-13.84,1.16-36.18,18.12-53.31,0,0,12.34-15.55,31.43-9.4l.76.24a28.7,28.7,0,0,1,19.75,24.44Z"/><polygon class="cls-1" points="546.52 332.34 542.39 339.03 545.75 351.53 549.72 363.6 555.31 357.58 565.46 350.55 546.52 332.34"/><path class="cls-1" d="M556.29,344.77c2,3.19,3.06,9-3,14.84,0,0-17.64,20.22-25.41,24.34-3.47,1.84-12.78,6.25-15.37,3.3-7.33-8.38-12.07-28.61-9.72-41.73.7-3.93,9.41-8,13.33-8.82,4.31-.83,13,2.63,17.34,2.79a70.94,70.94,0,0,0,7.19-.4C546.57,338.55,553.51,340.41,556.29,344.77Z"/><polygon class="cls-4" points="543.81 336.67 553.13 320.92 573.6 342.83 562.36 355.56 543.81 336.67"/><polygon points="270.59 375.51 270.69 375.48 270.59 375.42 270.59 375.51"/><polygon points="270.69 375.48 270.79 375.51 270.79 375.42 270.69 375.48"/><polygon points="270.59 375.51 270.69 375.48 270.59 375.42 270.59 375.51"/><polygon points="270.69 375.48 270.79 375.51 270.79 375.42 270.69 375.48"/><polygon points="265.94 376.89 266.04 376.85 265.94 376.8 265.94 376.89"/><polygon points="266.04 376.85 266.14 376.89 266.14 376.8 266.04 376.85"/><polygon class="cls-5" points="352.42 348.64 353.92 326.14 508.92 326.14 510.92 345.64 352.42 348.64"/><path class="cls-6" d="M292.22,204.64l48.27,27.27,15.36-31.76-2.44,70.72-2.68,50.72-3.39,38.3a14.53,14.53,0,0,0,14.3,15.81l149.54,1.8-1.36-69.36-.32-43.05,4.71-76.52,46.44,17.94,31.45-50.45-48.64-46.33L487.14,87.31l-51.2,28L383.28,85.07l-58.15,28-17.92,22.41Z"/><polygon class="cls-1" points="546.52 332.34 542.39 339.03 545.75 351.53 549.72 363.6 555.31 357.58 565.46 350.55 546.52 332.34"/><path class="cls-1" d="M556.29,344.77c2,3.19,3.06,9-3,14.84,0,0-17.64,20.22-25.41,24.34-3.47,1.84-12.78,6.25-15.37,3.3-7.33-8.38-12.07-28.61-9.72-41.73.7-3.93,9.41-8,13.33-8.82,4.31-.83,13,2.63,17.34,2.79a70.94,70.94,0,0,0,7.19-.4C546.57,338.55,553.51,340.41,556.29,344.77Z"/></g></svg>