<svg id="Calque_1" data-name="Calque 1" xmlns="http://www.w3.org/2000/svg" viewBox="0 0 588 350.84"><defs><style>.cls-1{fill:#375d63;}.cls-2{fill:#f7a386;}.cls-3{fill:#d79072;}.cls-4{fill:#d39844;}</style></defs><path class="cls-1" d="M381.83,317.32c-23.32,2.49-44.51,10-69.8,18.32,0,0-11.55.45-10.77-.15l-70.83-16.58,5.92-58.41a20.89,20.89,0,0,1,20.78-18.78H357a20.88,20.88,0,0,1,20.83,19.41Z"/><path class="cls-2" d="M184.18,63.26c2.25-1.94,6.72-19.82,8-22.08s13.64-26.67,12.28-26.9-8,1.58-8,1.58L186.32,31.35l-8-28.16s-9.14-36-10.22-34.79a64.5,64.5,0,0,1-6.1,4.7l6,32.37L151.75,31.09s6.64,21.52,9,24.76c.7,1,5.1,9.06,8.85,8.61C172,64.18,184.18,63.26,184.18,63.26Z"/><rect class="cls-3" x="286.37" width="39.52" height="47.38"/><path class="cls-4" d="M159.19,191.44h0a17.66,17.66,0,0,0,25.11-2.59L239,130.65,221.84,78.38,200.44,114l-43.56,52.65A17.66,17.66,0,0,0,159.19,191.44Z"/><path class="cls-4" d="M390.67,78.38l20.81,32.69,48.23,60.12a18.67,18.67,0,0,1-2.07,25.57h0a18.68,18.68,0,0,1-26.15-1.15l-56.67-60.76Z"/><path class="cls-4" d="M410.16,298.84l-20.05-10.76,1.75-8.54-2.05-4.63,11.06-11.24,26.39-81.06,4.3-7.68a18.17,18.17,0,0,1,23.28-7.71h0a18.17,18.17,0,0,1,8.65,25.05l-42.26,80.19s-.07,17.28-.92,17.14-5.52,2.44-5.52,2.44Z"/><path class="cls-4" d="M151.75,177.7l12.43-92.45-5-8.41,4-10.47L188,58.65l1.84,11.14,2.86,1.74L186.08,88s3.41,75,3,77.81-1.51,15.07-1.51,15.07l-.47,1.71a18,18,0,0,1-18.93,13.14h0a18,18,0,0,1-16.31-16.48Z"/><path class="cls-4" d="M390.67,78.38c0,3-15.85,53.5-15.85,56.47s-.63,78.61-.63,78.61l18.76,128a18.22,18.22,0,0,1-15.62,20.7s-53.09,10.13-71,9.45c-17.32-.66-67.82-14.38-67.82-14.38a18.23,18.23,0,0,1-14.31-20l15.43-128.21L239,130.65,221.84,78.38l61-26.38,2.51-17.68,44.49.36,2,18.31Z"/><path class="cls-2" d="M368.11,313.07s-2.76-3.27-2.22-4.25,12-13.28,12.87-13.33,15-5.74,16-6.31,16.43,5.58,16.22,6.37-5.69,25.09-7.09,26.11-5.71,6.58-6.56,6.63-21.94-6-21.94-6l-9.51-13.52Z"/></svg>