<svg id="Calque_1" data-name="Calque 1" xmlns="http://www.w3.org/2000/svg" viewBox="0 0 728 400.56"><defs><style>.cls-1{fill:#563935;}.cls-2{fill:#7b432b;}.cls-3{fill:none;stroke:#000;stroke-miterlimit:10;stroke-width:3px;}.cls-4{fill:#372f42;}.cls-5{fill:#a85b3b;}.cls-6{fill:#4e2e27;}.cls-7{fill:#634b47;}.cls-8{fill:#7081af;}.cls-9{fill:#5a3c36;}.cls-10{fill:#4b2b25;}.cls-11{fill:#7787b3;}.cls-12{fill:#fff;}.cls-13{fill:#39728a;}</style></defs><polygon points="211.07 363.42 211.17 363.38 211.07 363.32 211.07 363.42"/><polygon points="211.17 363.38 211.27 363.42 211.27 363.32 211.17 363.38"/><polygon points="211.07 363.42 211.17 363.38 211.07 363.32 211.07 363.42"/><polygon points="211.17 363.38 211.27 363.42 211.27 363.32 211.17 363.38"/><path class="cls-1" d="M403.5,34.94l0,2.19.09,7.15a28.41,28.41,0,0,0,15.82,25.13L460,89.51a29.35,29.35,0,0,0,3.16,1.34c6.67,2.37,33.9,13.5,33.53,36.84-.6,38.39-26.2,33.18-36.86,42.3-12.58,10.77-8.27,50-17.18,64-2.45,3.84-11.36,10.11-15.8,9.09-12.51-2.88-24-30.73-34.77-37.73-6.33-4.12-23.57-3.63-30.19,0-11.25,6.16-22.27,34.85-34.77,37.73-4.44,1-13.35-5.25-15.8-9.09-8.91-14-4.6-53.23-17.19-64-10.65-9.12-36.25-3.91-36.86-42.3-.41-26.59,35-37.33,35-37.33l40.15-19.92a31.57,31.57,0,0,0,17.39-25.19c0-.28.05-.57.07-.87s0-.52.05-.8,0-.31,0-.47c0-.39,0-.77,0-1.16V39.67l0-4.73"/><polyline class="cls-1" points="404.27 34.94 404.55 51.16 405.1 82.87 377.6 115.37 350.42 82.87 350.62 71.14 351.25 34.94"/><path class="cls-2" d="M402.47,34.94l-.2,9.35L388.8,58.61S365.26,78.4,357.15,74.47c-2-1-4.28-2.14-6.53-3.33-5.45-2.9-10.66-5.87-10.66-5.87a18.69,18.69,0,0,0,1.81-1.94,38.43,38.43,0,0,0,7.77-16.55c0-.15.06-.31.08-.46a.5.5,0,0,1,0-.12c0-.32.1-.63.13-1s.05-.57.07-.87,0-.52.05-.8,0-.31,0-.47c0-.67,0-1.38,0-2.11V39.67l0-1.89c0-1,0-1.92,0-2.84h0"/><path class="cls-3" d="M437,120.15c-1.32,27.65,17.73,53.52,17.73,53.52s31.16,53.91,41.27,72c4.76,8.54,14.38,26.53,36,15.24h0c17.85-9.3,11.87-28.08,8.12-36.69-7.62-17.52-26.77-51.42-31.2-69.79-3.3-13.69-3.05-36.07-20.88-52.3,0,0-13.14-14.88-31.88-7.74l-.74.28A28.69,28.69,0,0,0,437,120.15Z"/><path class="cls-4" d="M446.58,290.2c-.88-4-5.67-25.27-5.61-33.83.06-9.17,4-27.7,1.8-36.65-9.77-39.58-123.53-39.65-133.32,0-2.21,8.95,1.74,27.48,1.8,36.65.06,8.56-4.73,29.82-5.61,33.83-11,50.33,70.35,73.38,70.35,73.38S457.62,340.53,446.58,290.2Z"/><path class="cls-5" d="M188.35,228.69c-19.57,3.61-29.92-17.66-33.22-25.61s-6.06-25.49-7.44-34.11c-3.52-22.07-6.59-59.59-10.33-81.12-2.47-14.16-4.17-21.56,4.46-25.54,7.85-3.62,14.78,8.63,17.55,13.41,11.41,19.64,34.2,57.75,42.72,80.21,3.49,9.22,8.84,28.52,9.15,38.38C212.09,221.89,194,227.64,188.35,228.69Z"/><path class="cls-3" d="M314.56,138.42c-11.91,25-40.94,38.77-40.94,38.77s-53,32.77-70.43,44c-8.23,5.28-25.21,16.58-38.95-3.61h0c-11.33-16.63,2.81-30.35,10.19-36.17,15-11.83,47.91-32.64,60.5-46.74,9.38-10.49,19.75-30.33,43.13-36.2,0,0,18.61-6.9,31.75,8.26l.52.59a28.71,28.71,0,0,1,4.23,31.14Z"/><polygon class="cls-6" points="297.55 335.17 299.05 312.67 454.05 312.67 456.05 332.17 297.55 335.17"/><path class="cls-7" d="M542.91,228.57c-9-17.73-32.22-13-40.53-10.8s-23.93,10.69-31.61,14.83c-19.66,10.63-51.32,31-70.69,41.12-12.73,6.66-19.64,9.8-17.55,19.08,1.9,8.43,15.84,6.48,21.31,5.78,22.54-2.89,66.64-8,89.65-14.86,9.45-2.83,28-10.32,36-16.08C551.94,251.55,545.53,233.72,542.91,228.57Z"/><path class="cls-5" d="M154.45,64.91l-4.1-20.22-13-25.27s-4.55,3.35-4.94,5.07c-1.24,5.4,1.88,13.66,3.51,18.94.22.71-.59,4-1.2,4.4-2.5,1.69-7.27-2.56-7.27-2.56L137.8,63.06Z"/><path class="cls-5" d="M149.25,60.77,133,74.47,100.91,42.32,81.43-1.7s6.57-1.38,8.5-.49C100,2.43,109.65,24.54,116.74,33,124.39,42.22,149.25,60.77,149.25,60.77Z"/><ellipse class="cls-5" cx="142.51" cy="67.18" rx="12.15" ry="12.1" transform="translate(-13.85 47.83) rotate(-18.18)"/><path class="cls-4" d="M325.86,75.35C327.2,74,343.28,55,344.75,55c.66,0,13.76,31.63,29,32.06C392.23,87.61,409.87,55,409.87,55l8.95,14,5,160.52-98,1.34Z"/><path class="cls-4" d="M140.94,127.85l-5.58-31s28-19.12,29.5-18.2,8.45,20.93,8.45,20.93Z"/><path class="cls-8" d="M366.37,103.68l18.28-.05s14.22,67.75,13.56,69.8-9.29,53.37-9.16,54.6-12.59,16-12.59,16S363.68,225.57,363,223.52s-4.67-46.4-5.68-48S366.37,103.68,366.37,103.68Z"/><path class="cls-9" d="M464,299.56l17.85,88.05a4.11,4.11,0,0,1-3.58,4.91c-16.61,1.83-58,14-72.66,9.57-8.54-2.57-16.69-24.82-18.14-29.69a8.26,8.26,0,0,1-.62-2c-.54-15.51-6.79-169.83-4.13-191.85s22.17-89.8,27.13-111.91c.57-2.56,1.16-4.93,1.16-4.93l53.74,24.72.24.1,25.53,9.86a4.14,4.14,0,0,1,2,1.66l14.14,22.65a4.11,4.11,0,0,1,.39.82l39.3,112.15a4.12,4.12,0,0,1-2.16,5.1L460.3,277.68a4.12,4.12,0,0,0-2.15,5.11L463.88,299A3.8,3.8,0,0,1,464,299.56Z"/><path class="cls-9" d="M342.84,61.06s29.53,101.36,29.53,116.87.32,182.89-7.45,192.11-20.44,27.1-34,27.1-46.58-7.89-46.58-7.89a12.25,12.25,0,0,1-9.87-14.9l15.81-87,5.54-54-9.28-60.19S188,235.67,184.71,235.08c-21.11-3.77-30.26-26.39-30.26-26.39l-27-85.18s42.67-30.15,43.85-31c4-3,30.8,62.84,30.8,62.84L257.24,100Z"/><path class="cls-10" d="M341.78,57.31,331.94,66l-6.23,92.5,17.13,8.55v20.61s26,81.88,27.58,79.39,2-75.86,2-75.86V177.93l-15.1-65.49Z"/><path class="cls-11" d="M361.45,94.7c.92-1.76,6.73-13.21,8.88-15.3,1.69-1.64,11.76,0,11.76,0L391,93.58s-3.71,9.6-6.57,10.94c-1.48.7-8.8.41-17.22,0C365,104.41,362.28,95.38,361.45,94.7Z"/><path class="cls-10" d="M412.28,58.74,420.34,66l6.23,92.5-17.13,8.55v20.61s-26,81.88-27.57,79.39-2-75.86-2-75.86V177.93L395,112.44Z"/><path class="cls-12" d="M404.48,46.78l7.8,12-19.17,42.79s-7.76-18-11-22.13C380.65,77.59,404.48,46.78,404.48,46.78Z"/><polygon class="cls-13" points="356.24 191.41 363.72 328.47 467.85 323.75 479.41 189.87 356.24 191.41"/><path class="cls-12" d="M349.53,46.78l-7.75,10.53,18.05,44.22s7.05-18,11.79-22.67C373.28,77.24,349.53,46.78,349.53,46.78Z"/><polygon class="cls-5" points="399.06 274.68 379.49 261.14 357.27 255.7 360.23 264.56 370.42 269.27 374.54 275.61 360.83 275.99 360.51 265.83 354.17 264.93 342.84 278.95 347.25 309.11 366.6 316.01 400.77 299.33 410.65 296.21 431.02 291.21 413.93 270.26 405.07 273.79 399.06 274.68"/><path class="cls-4" d="M444.77,300.85,413.4,303s-16.3-28.67-15.23-30,21.65-6,21.65-6Z"/><path class="cls-9" d="M410.14,268.21c2.67,4.21,25.49,56.87,27.36,54.77s98.19-58.42,98.19-58.42l.23-.13a21,21,0,0,0,10.16-17.52l.29-12.21s-21.82-19.2-24.13-19.2-39.28,9.66-42.66,9.26S410.14,268.21,410.14,268.21Z"/><circle class="cls-10" cx="140.04" cy="130.02" r="4.68"/><circle class="cls-10" cx="144.73" cy="145.37" r="4.68"/><circle class="cls-10" cx="459.3" cy="296.61" r="4.68"/><circle class="cls-10" cx="444.77" cy="305.98" r="4.68"/></svg>