<svg xmlns="http://www.w3.org/2000/svg" viewBox="0 0 588 350.84"><defs><style>.cls-1{fill:#f7a386;}.cls-2{fill:#d79072;}.cls-3{fill:#736528;}.cls-4{fill:#ff6d45;}</style></defs><g id="Calque_3" data-name="Calque 3"><polygon class="cls-1" points="186.42 74.34 184.21 54.99 165.59 51.62 166.72 87.96 186.42 74.34"/><rect class="cls-2" x="287.89" width="39.52" height="47.38"/><path class="cls-3" d="M159.19,191.44h0a17.66,17.66,0,0,0,25.11-2.59L239,130.65,221.84,78.38,200.44,114l-43.56,52.65A17.66,17.66,0,0,0,159.19,191.44Z"/><path class="cls-3" d="M151.75,177.7l12.43-92.45-5-8.41,4-10.47L188,58.65l1.84,11.14,2.86,1.74L186.08,88s3.41,75,3,77.81-1.51,15.07-1.51,15.07l-.47,1.71a18,18,0,0,1-18.93,13.14h0a18,18,0,0,1-16.31-16.48Z"/><path class="cls-4" d="M390.67,78.38c0,3-15.85,53.5-15.85,56.47V252s18.37,40.52,18.13,89.5c-.05,10.15-5.55,19.36-15.62,20.7,0,0-42.55-53.52-60.36-51.75-39.17,3.89-80.69-1.62-80.69-1.62a18.24,18.24,0,0,1-14.31-20l17.68-79.77L239,130.65,221.84,78.38l61-26.38,2.51-17.68,44.49.36,2,18.31Z"/><path class="cls-3" d="M390.49,77.45,417,105.7l58.59,50.08a18.66,18.66,0,0,1,2.73,25.5h0a18.67,18.67,0,0,1-25.9,3.75l-77.63-50.18Z"/><path class="cls-1" d="M414.13,259.32c-3.77,3.15-21.8,13.59-23.91,14.81a.86.86,0,0,1-.44.12h-7.72a.91.91,0,0,1-.78-.46l-5.66-10.07a.89.89,0,0,0-1.21-.35c-3.42,1.87-17.07,9.2-18.3,7.34s-6.85-9-8.64-11.31a.88.88,0,0,1,.15-1.25l10.71-8.45c.66-.52,3.17-6.54,3.17-6.54h15.8c1.95,0,11.71,4.8,13.22,5.55a.82.82,0,0,0,.43.09l14.86-.67a.88.88,0,0,1,.74.33l7.7,9.62A.89.89,0,0,1,414.13,259.32Z"/><path class="cls-3" d="M414.05,264.21l-17.07-15,3.65-7.92-.95-5L413,227.85l38.56-63.67,5.6-9.25c6.34-7-1.44,6.39,6.05,12.09l7-14.05c15.41,5.68,17.61,24.76,10.74,32.68l-50.17,55.4s-4,16.81-4.81,16.47-5.92,1.12-5.92,1.12Z"/><path class="cls-1" d="M183,57.06s14-9.26,15.43-11.57,6-13.11,7.36-14.66,11.91-8.87,10.86-10-5.61-5-5.61-5l-9.46,5-7.71,10.41.35-20.82s5-27.39,5.64-28.93-6.34-4.24-6.34-4.24L185.45,10.4V-27h-8.07V12.71L171.07-27l-7.36,3.85,4.56,35.48-9.46-25.06s-6.66,3.47-6,5.4,6.66,25.45,6.66,25.45l.7,32.78,5.26,6.17Z"/></g></svg>