<svg id="Calque_1" data-name="Calque 1" xmlns="http://www.w3.org/2000/svg" viewBox="0 0 588 387.05"><defs><style>.cls-1{fill:#563935;}.cls-2{fill:#a85b3b;}.cls-3{fill:#6d323a;}.cls-4{fill:none;stroke:#000;stroke-miterlimit:10;stroke-width:3px;}.cls-5{fill:#4e2e27;}.cls-6{fill:#547687;}.cls-7{fill:#634b47;}.cls-8{fill:#372f42;}.cls-9{fill:#7081af;}.cls-10{fill:#5a3c36;}.cls-11{fill:#4b2b25;}.cls-12{fill:#7787b3;}.cls-13{fill:#fff;}.cls-14{fill:#95acba;}</style></defs><polygon points="130.22 364.09 130.32 364.05 130.22 364 130.22 364.09"/><polygon points="130.32 364.05 130.42 364.09 130.42 364 130.32 364.05"/><polygon points="130.22 364.09 130.32 364.05 130.22 364 130.22 364.09"/><polygon points="130.32 364.05 130.42 364.09 130.42 364 130.32 364.05"/><path class="cls-1" d="M415.81,128.37c-.6,38.38-26.2,33.17-36.86,42.29-12.58,10.77-8.27,50-17.18,64-2.45,3.84-11.36,10.11-15.8,9.09-12.51-2.87-24-30.73-34.77-37.73-6.33-4.11-23.57-3.63-30.19,0-11.25,6.16-22.27,34.86-34.77,37.73-4.44,1-13.35-5.25-15.8-9.09-8.91-14-4.6-53.23-17.19-64-10.65-9.12-36.25-3.91-36.86-42.29-.41-26.6,35-37.34,35-37.34l40.15-19.91a31.62,31.62,0,0,0,17.39-25.19c0-.29.05-.57.07-.88s0-.52.05-.8,0-.3,0-.47c0-.39,0-.77,0-1.15V40.35l0-4.73L269,26.89l1.58.11,25,1.95,26.22-2,.74-.06.11,8.73,0,2.18.09,7.15a28.41,28.41,0,0,0,15.82,25.14l40.53,20.09a25.81,25.81,0,0,0,3.16,1.34C389,93.89,416.18,105,415.81,128.37Z"/><polygon class="cls-2" points="324.25 83.55 296.75 116.05 269.57 83.55 269.77 71.81 270.4 35.62 270.54 27 295.58 28.95 321.8 26.95 321.84 25.32 323.25 25.55 323.42 35.62 323.7 51.84 324.25 83.55"/><path class="cls-3" d="M321.8,27l-.18,8.67-.2,9.34L308,59.28s-23.54,19.8-31.65,15.86c-2-1-4.28-2.14-6.53-3.32C264.32,68.91,259.11,66,259.11,66a19.69,19.69,0,0,0,1.81-2,38.3,38.3,0,0,0,7.77-16.55c0-.15.06-.31.08-.46a.5.5,0,0,0,0-.12c0-.31.1-.63.13-.94s.05-.57.07-.88,0-.52.05-.8,0-.3,0-.47c0-.66,0-1.37,0-2.1V40.35c0-.63,0-1.25,0-1.9,0-1,0-1.92,0-2.83h0L269,26.89l1.58.11,25,1.95Z"/><path class="cls-4" d="M356.2,120.82c-1.33,27.65,17.73,53.52,17.73,53.52s31.16,53.91,41.26,72c4.77,8.55,14.38,26.53,36,15.25h0c17.85-9.31,11.88-28.08,8.13-36.7-7.63-17.52-26.77-51.42-31.2-69.79-3.3-13.68-3.06-36.07-20.88-52.29,0,0-13.14-14.88-31.88-7.75l-.74.29a28.68,28.68,0,0,0-18.45,25.43Z"/><path class="cls-2" d="M107.5,229.37C87.94,233,77.59,211.7,74.29,203.76s-6.06-25.5-7.44-34.12c-3.53-22.07-6.6-59.59-10.34-81.12C54.05,74.36,52.35,67,61,63c7.85-3.62,14.78,8.64,17.55,13.41C89.94,96,112.72,134.14,121.24,156.6c3.5,9.23,8.85,28.52,9.15,38.39C131.24,222.57,113.19,228.32,107.5,229.37Z"/><path class="cls-4" d="M233.71,139.1c-11.91,25-40.93,38.77-40.93,38.77s-52.95,32.76-70.43,44c-8.23,5.27-25.22,16.57-38.95-3.61h0c-11.33-16.64,2.81-30.36,10.19-36.17,15-11.84,47.9-32.65,60.5-46.74,9.38-10.5,19.75-30.34,43.13-36.2,0,0,18.61-6.9,31.75,8.25l.52.6a28.69,28.69,0,0,1,4.22,31.14Z"/><polygon class="cls-5" points="216.71 335.85 218.21 313.35 373.21 313.35 375.21 332.85 216.71 335.85"/><polygon class="cls-6" points="294.57 374.39 289.57 334.39 304.57 334.39 303.57 366.68 294.57 374.39"/><path class="cls-7" d="M462.06,229.24c-9-17.72-32.21-13-40.52-10.8s-23.93,10.69-31.61,14.84c-19.66,10.62-51.32,31-70.69,41.12-12.74,6.66-19.64,9.8-17.56,19.07,1.9,8.44,15.84,6.48,21.32,5.78,22.53-2.88,66.64-8,89.65-14.86,9.45-2.83,28-10.32,36-16.07C471.1,252.22,464.69,234.39,462.06,229.24Z"/><path class="cls-2" d="M73.6,65.59,69.51,45.37l-13-25.27S52,23.44,51.56,25.16c-1.24,5.4,1.88,13.66,3.51,19,.22.7-.59,4-1.2,4.39-2.5,1.7-7.27-2.56-7.27-2.56L57,63.74Z"/><path class="cls-2" d="M68.41,61.45,52.16,75.15,20.07,43,.59-1s6.57-1.38,8.5-.49C19.17,3.11,28.81,25.21,35.9,33.71,43.55,42.89,68.41,61.45,68.41,61.45Z"/><ellipse class="cls-2" cx="61.67" cy="67.86" rx="12.15" ry="12.1" transform="translate(-18.1 22.63) rotate(-18.18)"/><path class="cls-8" d="M245,76c1.34-1.34,17.42-20.33,18.88-20.31.67,0,13.77,31.63,29,32.05,18.46.51,36.1-32,36.1-32l8.94,14,5,160.51-98,1.34Z"/><path class="cls-8" d="M60.1,128.53l-5.58-31s28-19.12,29.5-18.19,8.45,20.93,8.45,20.93Z"/><path class="cls-9" d="M285.53,104.35l18.28,0S318,172.05,317.37,174.1s-9.3,53.38-9.17,54.61-12.58,16-12.58,16-12.79-18.48-13.44-20.53-4.67-46.39-5.68-48S285.53,104.35,285.53,104.35Z"/><path class="cls-10" d="M383.19,300.24l17.86,88a4.12,4.12,0,0,1-3.58,4.92c-16.62,1.82-58,14-72.66,9.57-8.54-2.58-16.69-24.83-18.14-29.69a7.8,7.8,0,0,1-.62-2c-.54-15.5-6.79-169.82-4.13-191.85S324.09,89.4,329,67.3c.58-2.56,1.17-4.94,1.17-4.94L384,87.08l.24.1,25.52,9.87a4,4,0,0,1,2,1.66l14.14,22.64a4.44,4.44,0,0,1,.4.82l39.29,112.16a4.11,4.11,0,0,1-2.15,5.1l-83.95,38.93a4.12,4.12,0,0,0-2.15,5.11L383,299.68A2.91,2.91,0,0,1,383.19,300.24Z"/><path class="cls-10" d="M262,61.73s29.53,101.37,29.53,116.88.32,182.89-7.46,192.11-20.43,27.1-34,27.1-46.58-7.9-46.58-7.9a12.24,12.24,0,0,1-9.87-14.9l15.81-86.94,5.54-54-9.28-60.2s-98.5,62.43-101.82,61.83C82.76,232,73.6,209.36,73.6,209.36l-27-85.17S89.27,94,90.44,93.17c4-3,30.8,62.84,30.8,62.84l55.15-55.34Z"/><path class="cls-11" d="M260.94,58l-9.84,8.71-6.23,92.5L262,167.73v20.61s26,81.89,27.57,79.4,2-75.86,2-75.86V178.61l-15.1-65.49Z"/><path class="cls-12" d="M280.61,95.38c.92-1.76,6.73-13.22,8.88-15.3,1.69-1.65,11.76,0,11.76,0l8.94,14.17s-3.71,9.6-6.57,10.94c-1.49.7-8.81.41-17.22,0C284.11,105.08,281.43,96.06,280.61,95.38Z"/><path class="cls-11" d="M331.44,59.41l8.06,7.28,6.23,92.5-17.13,8.54v20.61s-26,81.89-27.58,79.4-2-75.86-2-75.86V178.61l15.1-65.49Z"/><path class="cls-13" d="M323.63,47.45l7.81,12L312.27,102.2s-7.76-18-11-22.12C299.81,78.26,323.63,47.45,323.63,47.45Z"/><polygon class="cls-14" points="275.39 192.08 282.88 329.14 387 324.43 398.57 190.54 275.39 192.08"/><path class="cls-13" d="M268.69,47.45,260.94,58l18,44.22s7.06-18,11.8-22.66C292.43,77.91,268.69,47.45,268.69,47.45Z"/><polygon class="cls-2" points="318.21 275.35 298.65 261.82 276.43 256.38 279.39 265.24 289.57 269.95 293.7 276.28 279.99 276.67 279.67 266.5 273.33 265.61 262 279.62 266.41 309.78 285.76 316.69 319.93 300.01 329.81 296.88 350.17 291.89 333.08 270.94 324.23 274.46 318.21 275.35"/><path class="cls-8" d="M363.93,301.53l-31.37,2.19s-16.3-28.68-15.23-30S339,267.74,339,267.74Z"/><path class="cls-10" d="M329.3,268.88c2.67,4.22,25.49,56.88,27.35,54.77s98.2-58.41,98.2-58.41l.23-.14a21.1,21.1,0,0,0,10.16-17.52l.29-12.21s-21.83-19.19-24.13-19.19-39.28,9.66-42.67,9.26S329.3,268.88,329.3,268.88Z"/><circle class="cls-11" cx="59.2" cy="130.7" r="4.68"/><circle class="cls-11" cx="63.88" cy="146.05" r="4.68"/><circle class="cls-11" cx="378.46" cy="297.29" r="4.68"/><circle class="cls-11" cx="363.93" cy="306.65" r="4.68"/></svg>