<svg xmlns="http://www.w3.org/2000/svg" viewBox="0 0 788 1005.07"><defs><style>.cls-1{fill:#375d63;}.cls-2{fill:#f7a386;}.cls-3{fill:#d79072;}.cls-4{fill:#d39844;}.cls-5{fill:#789e2b;}</style></defs><g id="Calque_1" data-name="Calque 1"><path class="cls-1" d="M481.83,486.82c-23.32,2.48-44.51,10-69.8,18.32,0,0-11.55.45-10.77-.15l-70.83-16.58L336.35,430a20.89,20.89,0,0,1,20.78-18.78H457a20.88,20.88,0,0,1,20.83,19.41Z"/></g><g id="Calque_3" data-name="Calque 3"><path class="cls-2" d="M302.56,182.92s12.91-3.57,12.3-1.36-9.95,22.56-9.95,22.56-18.34,18.39-20.7,20.37-18.25,0-18.25,0l-1-8.71-14.69-28.08L249.69,151l5.08-.56,3.7,28.09-1.05-43,7.21-.79,6.71,34.87-1.62-35.43,7.22-.8,4.59,41.54,6.54-10.59c2.54-.28,18.08.58,18.08.58.57,1.22,2.3,13,2.3,13l-8.13-.82L298.53,173l-6.88,1.42-3.13,5.72,3.6,14.46,6.76-2.26Z"/><polygon class="cls-2" points="284.74 247.88 286.06 216.88 265.59 221.12 261.65 260.96 284.74 247.88"/><rect class="cls-3" x="387.89" y="169.5" width="39.52" height="47.38"/><path class="cls-4" d="M259.19,360.94h0a17.66,17.66,0,0,0,25.11-2.59L339,300.15l-17.14-52.27-21.4,35.59-43.56,52.65A17.66,17.66,0,0,0,259.19,360.94Z"/><path class="cls-4" d="M490.67,247.88l20.81,32.69,48.23,60.12a18.68,18.68,0,0,1-2.07,25.57h0a18.68,18.68,0,0,1-26.15-1.15l-56.67-60.76Z"/><path class="cls-4" d="M510.16,468.34l-20.05-10.76,1.75-8.54-2.05-4.63,11.06-11.25,26.39-81.05,4.3-7.68a18.17,18.17,0,0,1,23.28-7.71h0a18.17,18.17,0,0,1,8.65,25L521.23,442s-.07,17.28-.92,17.13-5.52,2.45-5.52,2.45Z"/><path class="cls-4" d="M251.75,347.2l9.54-93-2.09-7.83,4-10.47L288,228.15l1.84,11.14,2.86,1.74-6.61,16.51s3.41,75,3,77.81-1.51,15.07-1.51,15.07l-.47,1.71a18,18,0,0,1-18.93,13.14h0a18,18,0,0,1-16.31-16.48Z"/><path class="cls-5" d="M490.67,247.88c0,3-15.85,53.5-15.85,56.47s-.63,78.61-.63,78.61L493,511a18.22,18.22,0,0,1-15.62,20.71s-53.09,10.13-71,9.45c-17.32-.66-67.82-14.38-67.82-14.38a18.23,18.23,0,0,1-14.31-20l15.43-128.21L339,300.15l-17.14-52.27,61-26.38,2.51-17.68,44.49.36,2,18.31Z"/><path class="cls-2" d="M468.11,482.57s-2.76-3.28-2.22-4.25,12-13.28,12.87-13.33,15-5.74,16-6.31,16.43,5.58,16.22,6.37-5.69,25.09-7.09,26.11-5.71,6.58-6.56,6.63-21.94-6-21.94-6l-9.51-13.52Z"/></g></svg>