<svg xmlns="http://www.w3.org/2000/svg" viewBox="0 0 788 1005.07"><defs><style>.cls-1{fill:#f7a386;}.cls-2{fill:#d79072;}.cls-3{fill:#736528;}.cls-4{fill:#ff6d45;}</style></defs><g id="Calque_3" data-name="Calque 3"><polygon class="cls-1" points="286.42 243.84 284.21 224.49 265.59 221.12 266.71 257.46 286.42 243.84"/><rect class="cls-2" x="387.89" y="169.5" width="39.52" height="47.38"/><path class="cls-3" d="M259.19,360.94h0a17.66,17.66,0,0,0,25.11-2.59L339,300.15l-17.14-52.27-21.4,35.59-43.56,52.65A17.66,17.66,0,0,0,259.19,360.94Z"/><path class="cls-3" d="M251.75,347.2l12.43-92.45-5-8.41,4-10.47L288,228.15l1.84,11.14,2.86,1.74-6.61,16.51s3.41,75,3,77.81-1.51,15.07-1.51,15.07l-.47,1.71a18,18,0,0,1-18.93,13.14h0a18,18,0,0,1-16.31-16.48Z"/><path class="cls-4" d="M490.67,247.88c0,3-15.85,53.5-15.85,56.47V421.51S493.19,462,493,511c-.05,10.16-5.55,19.37-15.62,20.71,0,0-42.55-53.52-60.36-51.75-39.17,3.89-80.69-1.62-80.69-1.62a18.24,18.24,0,0,1-14.31-20l17.68-79.77L339,300.15l-17.14-52.27,61-26.38,2.51-17.68,44.49.36,2,18.31Z"/><path class="cls-3" d="M490.49,247,517,275.2l58.59,50.08a18.66,18.66,0,0,1,2.73,25.5h0a18.67,18.67,0,0,1-25.9,3.75l-77.63-50.18Z"/><path class="cls-1" d="M514.13,428.82c-3.77,3.15-21.8,13.59-23.91,14.81a.86.86,0,0,1-.44.12h-7.72a.91.91,0,0,1-.78-.46l-5.66-10.08a.9.9,0,0,0-1.21-.34c-3.42,1.87-17.07,9.2-18.3,7.34s-6.85-9-8.64-11.31a.88.88,0,0,1,.15-1.25l10.71-8.45c.66-.53,3.17-6.54,3.17-6.54h15.8c1.95,0,11.71,4.8,13.22,5.55a.82.82,0,0,0,.43.09l14.86-.67a.88.88,0,0,1,.74.33l7.7,9.62A.89.89,0,0,1,514.13,428.82Z"/><path class="cls-3" d="M514.05,433.71l-17.07-15,3.65-7.92-.95-5L513,397.34l38.56-63.66,5.6-9.25c6.34-6.95-1.44,6.39,6.05,12.09l7-14c15.41,5.68,17.61,24.76,10.74,32.68l-50.17,55.4s-4,16.81-4.81,16.47-5.92,1.12-5.92,1.12Z"/><path class="cls-1" d="M283,226.56s14-9.26,15.43-11.57,5.95-13.11,7.36-14.66,11.91-8.87,10.86-10-5.61-5-5.61-5l-9.46,5-7.71,10.41.35-20.83s5-27.38,5.64-28.92-6.34-4.24-6.34-4.24l-8.06,33.16v-37.4h-8.07v39.72l-6.31-39.72-7.36,3.85,4.56,35.48-9.46-25.06s-6.66,3.47-6,5.39,6.66,25.46,6.66,25.46l.7,32.78,5.26,6.17Z"/></g></svg>