<svg id="Calque_1" data-name="Calque 1" xmlns="http://www.w3.org/2000/svg" viewBox="0 0 588 387.05"><defs><style>.cls-1{fill:#7a919e;}.cls-2{fill:#a85b3b;}.cls-3{fill:#6d323a;}.cls-4{fill:#36344d;}.cls-5{fill:#95acba;}.cls-6{fill:#adcbde;}.cls-7{fill:#9599ba;}</style></defs><polygon class="cls-1" points="262.36 78.72 263.22 49.83 323.7 49.19 323.36 78.72 262.36 78.72"/><path class="cls-2" d="M51.14,90.74S56,71.58,55.39,68.58s-5-15.28-5-17.68,3.34-17.07,1.54-17.07-8.69.88-8.69.88L39,46.68l1.46,14.68L24.6,44.85S7.65,19.28,7,17.52s-8.72,2.1-8.72,2.1l18.79,32.7-29-29.13-6.91,6.88L12,61-24.2,35.44l-3.32,9.28L3.87,68.46-23.65,57s-3,8.38-.92,9.28S.85,80.43.85,80.43l26,24.93,9.28.32Z"/><polygon points="128.59 364.97 128.68 364.93 128.59 364.88 128.59 364.97"/><polygon points="128.68 364.93 128.78 364.97 128.78 364.88 128.68 364.93"/><polygon points="128.59 364.97 128.68 364.93 128.59 364.88 128.59 364.97"/><polygon points="128.68 364.93 128.78 364.97 128.78 364.88 128.68 364.93"/><path class="cls-2" d="M414.17,129.25c-.6,38.39-26.2,33.17-36.86,42.29-12.58,10.77-8.27,50-17.18,64-2.45,3.84-11.36,10.1-15.8,9.08-12.51-2.87-24-30.73-34.77-37.73-6.33-4.12-23.57-3.62-30.19,0-11.25,6.16-22.27,34.86-34.77,37.73-4.44,1-13.35-5.24-15.8-9.08-8.91-14-4.6-53.24-17.19-64-10.65-9.12-36.25-3.9-36.86-42.29-.41-26.59,35-37.34,35-37.34L249.89,72a31.4,31.4,0,0,0,7.1-4.82,29.11,29.11,0,0,0,2.29-2.29l.63-.71,0-.06a31.55,31.55,0,0,0,7.22-16.43,30.71,30.71,0,0,0,.25-4.19l0-2.84,0-4.51H321l.06,5,0,1.5,0,3.21c0,.33,0,.67,0,1v0c0,.65.09,1.3.16,2a29.38,29.38,0,0,0,.93,4.57A28.5,28.5,0,0,0,337,71l40.53,20.1a27.41,27.41,0,0,0,3.16,1.33C387.31,94.78,414.54,105.91,414.17,129.25Z"/><path class="cls-2" d="M321.81,84.43l-27.5,32.5-14.8-17.69L267.12,84.43l.72-41.56,0-2.21.08-4.51h53v.23l.08,4.66v0l0,1.56.07,4.21v0l0,1.28.12,6.79Z"/><path class="cls-3" d="M322.31,53.68l-1,1.25c-5.16,6.33-28.83,35-41.79,44.31-3.2,2.29-5.74,3.39-7.2,2.69-6.76-3.26-14.84-35.1-14.84-35.1l.08-.07a21,21,0,0,0,1.73-1.87q.48-.57,1.05-1.32l.06-.08a39.39,39.39,0,0,0,6.66-15.16c0-.21.09-.42.13-.64.26-1.37.48-3,.66-4.82.07-.71.13-1.45.19-2.21.11-1.42.2-2.94.28-4.51H321v.23l0,4.28,0,6.72.15.76.14.67.93,4.57Z"/><path class="cls-2" d="M356.31,136c11.9,25,40.93,38.77,40.93,38.77s52.95,32.76,70.43,44c8.23,5.28,25.21,16.57,38.95-3.61h0c11.33-16.64-2.81-30.35-10.19-36.17-15-11.83-47.9-32.65-60.5-46.74-9.38-10.5-19.75-30.33-43.13-36.2,0,0-18.61-6.9-31.75,8.25l-.52.6A28.69,28.69,0,0,0,356.31,136Z"/><path class="cls-2" d="M492.61,181.17c-18.55-7.17-32.67,11.81-37.39,19s-10.68,23.93-13.63,32.14c-7.55,21-17.52,57.34-25.19,77.8-5,13.46-8.09,20.41-.35,25.93,7.05,5,16.13-5.75,19.74-9.93,14.85-17.19,44.3-50.4,56.84-70.9,5.14-8.41,14-26.39,16.11-36C514.68,192.25,498,183.26,492.61,181.17Z"/><path class="cls-2" d="M128.56,236.22c13.76-11.4,4.47-32.14.68-39.86S114.47,174.79,109.09,168c-13.77-17.45-56.38-69.4-65-89.37C38.07,64.63,20.18,89,20.18,89s10.76,14.37,15.53,24c10,20.33,17.56,50.38,32.95,84.59,4,9,15.34,25.6,22.22,32.49C110.12,249.4,124.56,239.53,128.56,236.22Z"/><path class="cls-2" d="M233.71,136.26C225.17,162.59,198.19,180,198.19,180s-48.23,39.4-64.1,52.78c-7.47,6.3-22.83,19.72-39.09,1.5h0c-13.4-15-1.17-30.46,5.39-37.19,13.33-13.69,43.24-38.62,53.88-54.23,7.93-11.63,25.91-35.58,48.33-44.45,0,0,7.27-6.34,22.27,7l.59.53a28.66,28.66,0,0,1,8.25,30.31Z"/><path class="cls-2" d="M419.23,332.41c2,3.19,3.07,9-3,14.84,0,0-17.64,20.22-25.41,24.34-3.47,1.84-12.78,6.25-15.37,3.29-7.33-8.38-12.07-28.61-9.73-41.72.71-3.93,9.41-8.05,13.34-8.82,4.31-.84,12.95,2.62,17.34,2.78a67.32,67.32,0,0,0,7.18-.39C409.51,326.18,416.46,328,419.23,332.41Z"/><polygon class="cls-2" points="409.47 319.98 405.33 326.67 408.7 339.16 412.67 351.24 418.26 345.22 428.41 338.18 409.47 319.98"/><polygon class="cls-4" points="406.76 324.31 416.08 308.56 436.55 330.47 425.3 343.2 406.76 324.31"/><path class="cls-5" d="M400.3,97.19l16.57,8.49s48.76,43.94,47.37,46.45-32,52.19-32,52.19-43.51-29.66-44.64-30.79-12.7-29.29-13.48-28.91,13.11-40.65,13.48-42.48,12.66-5,12.66-5"/><polygon points="127.75 364.42 127.85 364.38 127.75 364.33 127.75 364.42"/><polygon points="127.85 364.38 127.95 364.42 127.95 364.33 127.85 364.38"/><polygon points="127.75 364.42 127.85 364.38 127.75 364.33 127.75 364.42"/><polygon points="127.85 364.38 127.95 364.42 127.95 364.33 127.85 364.38"/><path class="cls-5" d="M211.75,340.69,216.16,298l158-4.21-1.9,23a19.22,19.22,0,0,1-17.08,17.52L220.13,349A7.6,7.6,0,0,1,211.75,340.69Z"/><path class="cls-5" d="M210.42,295.37,198.19,180l-6.68-82.51,11.09-5.75,53.9-27.93,42.81,52.53,36.33-49.16,64.66,30-10.44,101-15.7,73-2.71,9.82a23.09,23.09,0,0,1,3.26,22L372,310.37l-156.14,2.48-3.62-8.35A22.38,22.38,0,0,1,210.42,295.37Z"/><polygon class="cls-6" points="253.24 68.2 263.22 49.83 290.89 96.32 274.97 120.73 253.24 68.2"/><polygon class="cls-6" points="337.62 70.05 323.7 49.19 303.02 95.57 321.71 118.89 337.62 70.05"/><polygon class="cls-7" points="290.89 96.32 299.06 116.38 288.04 107.29 274.97 120.73 290.89 96.32"/><polygon class="cls-7" points="299.06 116.38 303.02 95.57 321.71 118.89 308.33 108.35 299.06 116.38"/><path class="cls-5" d="M204.33,182.93c-1.77.71-49.76,44.39-50.82,43.73S124.92,163.17,126,163.17s65.53-65.64,65.53-65.64"/></svg>