<svg xmlns="http://www.w3.org/2000/svg" viewBox="0 0 788 1005"><defs><style>.cls-1{fill:#944e31;}.cls-2{fill:#a85b3b;}.cls-3{fill:#6d323a;}.cls-4{fill:#36344d;}.cls-5{fill:#473415;}.cls-6{fill:#e6ba43;}</style></defs><g id="Calque_7" data-name="Calque 7"><path class="cls-1" d="M118.56,411.56s-18.46-7.05-21.51-6.81S81.28,408,78.9,407.69s-16.56-5.3-16.77-3.52S62,412.9,62,412.9l11.4,5.59,14.75.27L69.87,432.55S42.5,446.4,40.68,446.81s1.07,8.91,1.07,8.91l34.67-14.84L44.1,466.26l6,7.66L84.43,447l-29.6,32.95,8.82,4.38L90.9,455.9l-14.59,26s8,4,9.11,2,17-23.6,17-23.6l27.79-22.9,1.41-9.18Z"/><polygon points="225.63 479.89 225.72 479.85 225.63 479.8 225.63 479.89"/><polygon points="225.72 479.85 225.82 479.89 225.82 479.8 225.72 479.85"/><polygon points="225.63 479.89 225.72 479.85 225.63 479.8 225.63 479.89"/><polygon points="225.72 479.85 225.82 479.89 225.82 479.8 225.72 479.85"/><path class="cls-2" d="M511.21,244.17c-.6,38.39-26.2,33.17-36.85,42.29-12.59,10.77-8.27,50-17.19,64-2.45,3.84-11.35,10.1-15.79,9.08-12.52-2.87-24-30.73-34.77-37.73-6.34-4.12-23.58-3.62-30.19,0-11.25,6.16-22.27,34.86-34.77,37.73-4.44,1-13.35-5.24-15.81-9.08-8.9-14-4.59-53.24-17.19-64-10.65-9.12-36.25-3.9-36.85-42.29-.42-26.59,35-37.34,35-37.34l40.16-19.91A31.33,31.33,0,0,0,354,182.1a27.49,27.49,0,0,0,2.29-2.29l.64-.71,0-.06a31.39,31.39,0,0,0,7.22-16.43,30.71,30.71,0,0,0,.25-4.19v-2.84l0-4.51h53.63l.06,5,0,1.5,0,3.21c0,.33,0,.67,0,1v0c0,.65.09,1.3.15,1.95A28.64,28.64,0,0,0,434,185.89L474.52,206a28.32,28.32,0,0,0,3.17,1.33C484.36,209.7,511.59,220.83,511.21,244.17Z"/><path class="cls-2" d="M418.86,199.35l-27.5,32.5-14.81-17.69-12.38-14.81.71-41.56,0-2.21.08-4.51h53v.23l.09,4.66v0l0,1.56.08,4.21v1.31l.12,6.79Z"/><path class="cls-3" d="M419.36,168.6l-1,1.25c-5.15,6.33-28.83,35-41.79,44.31-3.19,2.29-5.73,3.39-7.19,2.69-6.77-3.26-14.85-35.1-14.85-35.1a.19.19,0,0,0,.08-.07,19.51,19.51,0,0,0,1.73-1.87c.33-.38.68-.82,1.06-1.32l.06-.08a39.25,39.25,0,0,0,6.65-15.16c0-.21.1-.42.13-.64.26-1.37.49-3,.66-4.82.08-.71.13-1.45.19-2.21.12-1.42.2-2.94.29-4.51H418v.23l0,4.28,0,6.72.15.76.14.67.94,4.57Z"/><path class="cls-1" d="M453.35,250.9c11.9,25,40.93,38.77,40.93,38.77s53,32.76,70.43,44c8.23,5.27,25.22,16.57,38.95-3.61h0c11.33-16.64-2.81-30.36-10.19-36.17-15-11.84-47.9-32.65-60.5-46.74-9.38-10.5-19.75-30.34-43.13-36.2,0,0-18.61-6.9-31.75,8.25l-.52.6a28.69,28.69,0,0,0-4.22,31.14Z"/><path class="cls-1" d="M589.65,296.09c-18.55-7.17-32.67,11.81-37.38,19S541.59,339,538.64,347.24c-7.56,21-17.53,57.34-25.2,77.8-5,13.46-8.09,20.41-.34,25.92,7,5,16.12-5.74,19.73-9.92,14.85-17.19,44.3-50.41,56.84-70.9,5.15-8.42,14-26.39,16.11-36C611.72,307.17,595.05,298.17,589.65,296.09Z"/><path class="cls-1" d="M275.66,352.11c-9.71-15-32.39-8.32-40.5-5.45S212,358.8,204.61,363.35c-18.94,11.63-75.52,47.87-96.36,54.09-14.58,4.35,7.52,25,7.52,25s15.52-9,25.68-12.62c21.37-7.58,52.09-11.54,87.87-22.82,9.4-3,27.21-12.24,34.87-18.27C285.6,371.85,278.48,356.47,275.66,352.11Z"/><path class="cls-1" d="M332.81,240.68c2.77,27.54-14.9,54.37-14.9,54.37s-28.31,55.46-37.45,74.1c-4.31,8.78-13,27.24-35.19,17.1h0C227,377.89,232,358.83,235.24,350c6.7-17.89,24.05-52.74,27.51-71.32,2.59-13.84,1.17-36.18,18.13-53.32,0,0,12.34-15.54,31.43-9.4l.75.25a28.67,28.67,0,0,1,19.75,24.44Z"/><path class="cls-1" d="M516.27,447.33c2,3.19,3.07,9-3,14.84,0,0-17.64,20.21-25.41,24.33-3.47,1.85-12.78,6.26-15.37,3.3-7.33-8.38-12.07-28.61-9.72-41.72.7-3.94,9.41-8.06,13.33-8.82,4.31-.84,12.95,2.62,17.34,2.78a67.32,67.32,0,0,0,7.18-.39C506.55,441.1,513.5,443,516.27,447.33Z"/><polygon class="cls-1" points="506.51 434.89 502.37 441.58 505.74 454.08 509.71 466.15 515.3 460.14 525.45 453.1 506.51 434.89"/><polygon class="cls-4" points="503.8 439.23 513.12 423.48 533.59 445.39 522.35 458.12 503.8 439.23"/><polygon points="230.58 478.07 230.68 478.03 230.58 477.98 230.58 478.07"/><polygon points="230.68 478.03 230.78 478.07 230.78 477.98 230.68 478.03"/><polygon points="230.58 478.07 230.68 478.03 230.58 477.98 230.58 478.07"/><polygon points="230.68 478.03 230.78 478.07 230.78 477.98 230.68 478.03"/><polygon points="225.92 479.44 226.02 479.4 225.92 479.35 225.92 479.44"/><polygon points="226.02 479.4 226.12 479.44 226.12 479.35 226.02 479.4"/><polygon points="225.92 479.44 226.02 479.4 225.92 479.35 225.92 479.44"/><polygon points="226.02 479.4 226.12 479.44 226.12 479.35 226.02 479.4"/><polygon class="cls-5" points="312.41 451.2 313.91 428.7 468.91 428.7 470.91 448.2 312.41 451.2"/><path class="cls-6" d="M252.21,304.65l48.27,26.7,15.36-31.08-2.44,69.21-2.68,49.64-3.17,35a11.7,11.7,0,0,0,11.11,12.73l135.22,6.22a16.2,16.2,0,0,0,16.94-16.51l-1-50.58-.32-42.13,4.7-74.9,46.45,17.55,31.45-49.37-48.64-45.35-56.32-21.94-51.2,27.43-52.66-29.62-58.15,27.43L267.2,237Z"/></g></svg>