<svg id="Calque_1" data-name="Calque 1" xmlns="http://www.w3.org/2000/svg" viewBox="0 0 588 387.05"><defs><style>.cls-1{fill:#a85b3b;}.cls-2{fill:#6d323a;}.cls-3{fill:none;stroke:#000;stroke-miterlimit:10;stroke-width:3px;}.cls-4{fill:#d79072;}.cls-5{fill:#574d3e;}.cls-6{fill:#473415;}.cls-7{fill:#a85d3d;}</style></defs><polygon points="130.22 364.09 130.32 364.05 130.22 364 130.22 364.09"/><polygon points="130.32 364.05 130.42 364.09 130.42 364 130.32 364.05"/><polygon points="130.22 364.09 130.32 364.05 130.22 364 130.22 364.09"/><polygon points="130.32 364.05 130.42 364.09 130.42 364 130.32 364.05"/><path class="cls-1" d="M415.81,128.37c-.6,38.38-26.2,33.17-36.86,42.29-12.58,10.77-8.27,50-17.18,64-2.45,3.84-11.36,10.11-15.8,9.09-12.51-2.87-24-30.73-34.77-37.73-6.33-4.11-23.57-3.63-30.19,0-11.25,6.16-22.27,34.86-34.77,37.73-4.44,1-13.35-5.25-15.8-9.09-8.91-14-4.6-53.23-17.19-64-10.65-9.12-36.25-3.91-36.86-42.29-.41-26.6,35-37.34,35-37.34l40.15-19.91a31.62,31.62,0,0,0,17.29-24.3,30.9,30.9,0,0,0,.25-4.19l-.05-7h53.6V32.14l0,3.48.08,6.08,0,3.25c0,.33,0,.68,0,1v0c0,.65.09,1.29.16,1.94a29.38,29.38,0,0,0,.93,4.57,28.53,28.53,0,0,0,14.7,17.59l40.53,20.09a25.81,25.81,0,0,0,3.16,1.34C389,93.89,416.18,105,415.81,128.37Z"/><polygon class="cls-1" points="323.45 83.55 295.95 116.05 281.15 98.36 268.76 83.55 269.48 41.99 269.59 35.62 322.62 35.62 322.73 41.7 322.8 45.95 322.8 45.99 322.82 47.26 322.94 54.05 323.45 83.55"/><path class="cls-2" d="M324,52.79l-1,1.25c-5.15,6.34-28.83,35.06-41.79,44.32-3.2,2.28-5.74,3.39-7.2,2.68C267.19,97.78,259.11,66,259.11,66a19.69,19.69,0,0,0,1.81-2,38.3,38.3,0,0,0,7.77-16.55c0-.21.09-.42.13-.63.26-1.37.48-3,.66-4.83s.34-4.08.45-6.37h52.69l.05,10.87.15.76.14.68.93,4.57Z"/><path class="cls-3" d="M358,135.1c11.9,25,40.93,38.77,40.93,38.77s52.95,32.76,70.43,44c8.23,5.27,25.21,16.57,38.95-3.61h0c11.33-16.64-2.81-30.36-10.19-36.17-15-11.84-47.9-32.65-60.5-46.74-9.38-10.5-19.75-30.34-43.13-36.2,0,0-18.61-6.9-31.75,8.25l-.52.6A28.69,28.69,0,0,0,358,135.1Z"/><path class="cls-4" d="M494.25,180.29c-18.55-7.17-32.67,11.81-37.39,19s-10.68,23.93-13.63,32.14c-7.55,21-17.52,57.34-25.19,77.8-5,13.46-8.09,20.41-.35,25.92,7.05,5,16.13-5.74,19.74-9.92,14.85-17.19,44.3-50.41,56.84-70.9,5.14-8.42,14-26.39,16.11-36C516.32,191.37,499.65,182.37,494.25,180.29Z"/><path class="cls-4" d="M97.41,184.29c18.55-7.17,32.67,11.81,37.38,19s10.68,23.93,13.63,32.14c7.56,21,17.53,57.34,25.2,77.8,5,13.46,8.09,20.41.34,25.92-7,5-16.12-5.74-19.73-9.92-14.85-17.19-44.3-50.41-56.84-70.9-5.15-8.42-14-26.39-16.11-36C75.34,195.37,92,186.37,97.41,184.29Z"/><path class="cls-3" d="M233.71,139.1c-11.91,25-40.93,38.77-40.93,38.77s-52.95,32.76-70.43,44c-8.23,5.27-25.22,16.57-38.95-3.61h0c-11.33-16.64,2.81-30.36,10.19-36.17,15-11.84,47.9-32.65,60.5-46.74,9.38-10.5,19.75-30.34,43.13-36.2,0,0,18.61-6.9,31.75,8.25l.52.6a28.69,28.69,0,0,1,4.22,31.14Z"/><path class="cls-5" d="M304.45,99.79,332.8,65.1s53.83,19,70.12,28.69c28.64,17,108.35,90.07,108.35,90.07s4.89,17.65,4.48,23.66c-.75,11.14-10.19,30.6-15.74,41.8-10.71,21.66-53.6,80.41-53.6,80.41l-8.22,1L414,310.52l-1.9-8.15,31.53-96.75L385,168.78l-10.27,65,5,67.19L372,312.76l-153.26.79-8.3-11.88.6-64.78-8.88-60-60.71,36,41.81,101L157,341.12s-14.3-9.72-13.72-9.94c4-1.5-61.64-78.85-70.37-110.57-2-7.44,1.08-30.78,1.08-30.78l67.57-59.44L193.9,87.66,257.62,65l24.91,34.18a13.84,13.84,0,0,0,11,5.69h0A13.84,13.84,0,0,0,304.45,99.79Z"/><polygon class="cls-6" points="216.71 335.85 218.21 313.35 373.21 313.35 375.21 332.85 216.71 335.85"/><path class="cls-1" d="M421.36,333.35c2.48,2.87,4.34,8.5-.82,15.12,0,0-14.52,22.55-21.62,27.75-3.17,2.33-11.74,8-14.73,5.49-8.47-7.23-16.08-26.57-15.65-39.88.12-4,8.14-9.33,11.91-10.66,4.15-1.45,13.2.73,17.56.25a67,67,0,0,0,7.06-1.43C410.85,328.6,418,329.43,421.36,333.35Z"/><polygon class="cls-2" points="409.91 322.46 406.78 329.68 411.92 341.56 417.59 352.93 422.25 346.17 431.28 337.74 409.91 322.46"/><polygon class="cls-5" points="408.91 323.34 415.61 310.54 439.19 331.05 426.17 342.81 408.91 323.34"/><path class="cls-1" d="M170.29,337.35c-2.47,2.87-4.33,8.5.82,15.12,0,0,14.53,22.55,21.63,27.75,3.17,2.33,11.74,8,14.73,5.49,8.47-7.23,16.08-26.57,15.65-39.88-.12-4-8.14-9.33-11.92-10.66-4.14-1.45-13.19.73-17.55.25a67,67,0,0,1-7.06-1.43C180.81,332.6,173.67,333.43,170.29,337.35Z"/><polygon class="cls-2" points="181.75 326.46 184.88 333.68 179.74 345.56 174.07 356.93 169.41 350.17 160.38 341.74 181.75 326.46"/><polygon class="cls-5" points="182.75 327.34 176.05 314.54 152.47 335.05 165.49 346.81 182.75 327.34"/><polygon class="cls-7" points="322.62 35.62 322.62 35.49 322.61 32.13 322.65 35.62 322.62 35.62"/></svg>