<svg id="Calque_1" data-name="Calque 1" xmlns="http://www.w3.org/2000/svg" viewBox="0 0 788 1005.07"><defs><style>.cls-1{fill:#375d63;}.cls-2{fill:#f7a386;}.cls-3{fill:#d79072;}.cls-4{fill:#d39844;}</style></defs><path class="cls-1" d="M481.83,486.82c-23.32,2.48-44.51,10-69.8,18.32,0,0-11.55.45-10.77-.15l-70.83-16.58L336.35,430a20.89,20.89,0,0,1,20.78-18.78H457a20.88,20.88,0,0,1,20.83,19.41Z"/><path class="cls-2" d="M284.18,232.76c2.25-1.95,6.72-19.82,8-22.08s13.64-26.67,12.28-26.9-8,1.58-8,1.58l-10.13,15.49-8-28.16s-9.14-36-10.22-34.79a64.5,64.5,0,0,1-6.1,4.7L268,175l-16.29,25.62s6.64,21.52,9,24.76c.7,1,5.1,9.06,8.85,8.61C272,233.68,284.18,232.76,284.18,232.76Z"/><rect class="cls-3" x="386.37" y="169.5" width="39.52" height="47.38"/><path class="cls-4" d="M259.19,360.94h0a17.66,17.66,0,0,0,25.11-2.59L339,300.15l-17.14-52.27-21.4,35.59-43.56,52.65A17.66,17.66,0,0,0,259.19,360.94Z"/><path class="cls-4" d="M490.67,247.88l20.81,32.69,48.23,60.12a18.68,18.68,0,0,1-2.07,25.57h0a18.68,18.68,0,0,1-26.15-1.15l-56.67-60.76Z"/><path class="cls-4" d="M510.16,468.34l-20.05-10.76,1.75-8.54-2.05-4.63,11.06-11.25,26.39-81.05,4.3-7.68a18.17,18.17,0,0,1,23.28-7.71h0a18.17,18.17,0,0,1,8.65,25L521.23,442s-.07,17.28-.92,17.13-5.52,2.45-5.52,2.45Z"/><path class="cls-4" d="M251.75,347.2l12.43-92.45-5-8.41,4-10.47L288,228.15l1.84,11.14,2.86,1.74-6.61,16.51s3.41,75,3,77.81-1.51,15.07-1.51,15.07l-.47,1.71a18,18,0,0,1-18.93,13.14h0a18,18,0,0,1-16.31-16.48Z"/><path class="cls-4" d="M490.67,247.88c0,3-15.85,53.5-15.85,56.47s-.63,78.61-.63,78.61L493,511a18.22,18.22,0,0,1-15.62,20.71s-53.09,10.13-71,9.45c-17.32-.66-67.82-14.38-67.82-14.38a18.23,18.23,0,0,1-14.31-20l15.43-128.21L339,300.15l-17.14-52.27,61-26.38,2.51-17.68,44.49.36,2,18.31Z"/><path class="cls-2" d="M468.11,482.57s-2.76-3.28-2.22-4.25,12-13.28,12.87-13.33,15-5.74,16-6.31,16.43,5.58,16.22,6.37-5.69,25.09-7.09,26.11-5.71,6.58-6.56,6.63-21.94-6-21.94-6l-9.51-13.52Z"/></svg>