<?xml version="1.0" encoding="utf-8"?>
<!-- Generator: Adobe Illustrator 26.0.3, SVG Export Plug-In . SVG Version: 6.00 Build 0)  -->
<svg version="1.1" id="Layer_1" xmlns="http://www.w3.org/2000/svg" xmlns:xlink="http://www.w3.org/1999/xlink" x="0px" y="0px"
	 viewBox="0 0 188 202.1" style="enable-background:new 0 0 188 202.1;" xml:space="preserve">
<style type="text/css">
	.st0{fill:none;stroke:#2E858E;stroke-width:3;stroke-miterlimit:10;}
	.st1{fill:#D48F72;}
	.st2{fill:#2E858E;}
	.st3{fill:#C18544;}
</style>
<path class="st0" d="M41.9,85.9c-1.1-2.6-1.6-5.3-1.6-8.1c0-18.1,24.4-32.9,54.4-32.9s54.4,14.7,54.4,32.9c0,2.9-0.7,5.7-1.9,8.4"/>
<g id="Calque_1">
	<g>
		<g>
			<defs>
				<polygon id="SVGID_1_" points="131,82.9 131,82.9 147.4,82.9 147.4,115.9 131,115.9 				"/>
			</defs>
			<clipPath id="SVGID_00000005963519042954538630000012504760714114753680_">
				<use xlink:href="#SVGID_1_"  style="overflow:visible;"/>
			</clipPath>
		</g>
	</g>
	<g>
		<g>
			<defs>
				<polygon id="SVGID_00000052824716777338647810000009170108822010030485_" points="59.6,82.9 59.6,82.9 43.2,82.9 43.2,115.9 
					59.6,115.9 				"/>
			</defs>
			<clipPath id="SVGID_00000023254871392908606770000000398833438756998067_">
				<use xlink:href="#SVGID_00000052824716777338647810000009170108822010030485_"  style="overflow:visible;"/>
			</clipPath>
		</g>
	</g>
	<path class="st1" d="M78.7,154.5l-13-14.1c-2.4-2.6-4.1-5.9-4.8-9.4l-4.1-20.3c-0.2-0.9-0.3-1.8-0.4-2.7L55,85.2v-0.1v-6.2
		c0-21.5,17.4-38.9,38.8-39h0.1l0,0c22.3,0,40.4,18.1,40.4,40.4v4.8v0.1l-1.4,22.8c-0.1,0.9-0.2,1.8-0.4,2.7l-4.1,20.3
		c-0.7,3.5-2.4,6.8-4.8,9.4l-13.1,14.1c-3.7,4-8.9,6.3-14.3,6.3h-2.9C87.7,160.8,82.4,158.6,78.7,154.5z"/>
</g>
<path class="st0" d="M54.5,120l-16.2,12.8c-2.7,2.2-2.2,6.4,1,7.8l11,4.8"/>
<circle class="st2" cx="54.5" cy="145.5" r="6.3"/>
<path class="st3" d="M55.1,108.3l-6.6-41.7c0,0,11.3-31.7,48.3-30.8c37,0.9,43.9,27.8,43.9,27.8l-6.6,42.1l-3.7-36.6
	c0,0-36.7-15.2-70.6-1.7L55.1,108.3z"/>
<g>
	<path class="st2" d="M57.2,120.7l-1.9,0.4c-2,0.4-3.9-0.9-4.2-2.8l-5.9-28.9c-0.4-2,0.9-3.9,2.8-4.2l1.9-0.4c2-0.4,3.9,0.9,4.2,2.8
		l5.9,28.9C60.4,118.3,59.1,120.2,57.2,120.7z"/>
	<path class="st2" d="M50.6,118.7l-3.8,0.8c-2,0.4-3.9-0.9-4.2-2.8L38,94.4c-0.4-2,0.9-3.9,2.8-4.2l3.8-0.8L50.6,118.7z"/>
	<path class="st2" d="M39.8,83.7l2.3-1.3c0.5-0.3,1.2,0,1.3,0.5l1.6,7.9c0.1,0.4-0.2,0.9-0.5,1l0,0c-0.4,0.1-0.8,0-1-0.4l-3.9-6.6
		C39.2,84.6,39.3,84.1,39.8,83.7z"/>
</g>
<g>
	<path class="st2" d="M132.3,120.7l1.9,0.4c2,0.4,3.9-0.9,4.2-2.8l5.9-28.9c0.4-2-0.9-3.9-2.8-4.2l-1.9-0.4c-2-0.4-3.9,0.9-4.2,2.8
		l-5.9,28.9C129,118.3,130.3,120.2,132.3,120.7z"/>
	<path class="st2" d="M138.8,118.7l3.8,0.8c2,0.4,3.9-0.9,4.2-2.8l4.6-22.3c0.4-2-0.9-3.9-2.8-4.2l-3.8-0.8L138.8,118.7z"/>
	<path class="st2" d="M149.7,83.7l-2.3-1.3c-0.5-0.3-1.2,0-1.3,0.5l-1.6,7.9c-0.1,0.4,0.2,0.9,0.5,1l0,0c0.4,0.1,0.8,0,1-0.4
		l3.9-6.6C150.3,84.6,150.2,84.1,149.7,83.7z"/>
</g>
</svg>
