<?xml version="1.0" encoding="utf-8"?>
<!-- Generator: Adobe Illustrator 26.0.3, SVG Export Plug-In . SVG Version: 6.00 Build 0)  -->
<svg version="1.1" id="Layer_1" xmlns="http://www.w3.org/2000/svg" xmlns:xlink="http://www.w3.org/1999/xlink" x="0px" y="0px"
	 viewBox="0 0 188 202.1" style="enable-background:new 0 0 188 202.1;" xml:space="preserve">
<style type="text/css">
	.st0{clip-path:url(#SVGID_00000155860790018399620010000003454253824832985530_);}
	.st1{fill:#B8775C;}
	.st2{clip-path:url(#SVGID_00000029766469461458697640000015373516311562666137_);}
	.st3{fill:#D48F72;}
	.st4{fill:#C18544;}
</style>
<g>
	<g>
		<defs>
			<polygon id="SVGID_1_" points="129.7,80.9 129.7,80.9 146.1,80.9 146.1,113.9 129.7,113.9 			"/>
		</defs>
		<clipPath id="SVGID_00000031903172084109085900000002196840905564927382_">
			<use xlink:href="#SVGID_1_"  style="overflow:visible;"/>
		</clipPath>
		<g style="clip-path:url(#SVGID_00000031903172084109085900000002196840905564927382_);">
			<path class="st1" d="M129.7,113.9l3-28.2c0,0,6.6-7.8,12.2-3.2c3.8,3-3.1,28.2-7.5,29.5C130,114,129.7,113.9,129.7,113.9z"/>
		</g>
	</g>
</g>
<g>
	<g>
		<defs>
			<polygon id="SVGID_00000060736857353176640900000003836824631298098608_" points="58.3,80.9 58.3,80.9 41.9,80.9 41.9,113.9 
				58.3,113.9 			"/>
		</defs>
		<clipPath id="SVGID_00000156552890235529322650000002781277001992542131_">
			<use xlink:href="#SVGID_00000060736857353176640900000003836824631298098608_"  style="overflow:visible;"/>
		</clipPath>
		<g style="clip-path:url(#SVGID_00000156552890235529322650000002781277001992542131_);">
			<path class="st1" d="M58.3,113.9l-3-28.2c0,0-6.6-7.8-12.2-3.2c-3.8,3,3.1,28.2,7.5,29.5C58,114,58.3,113.9,58.3,113.9z"/>
		</g>
	</g>
</g>
<path class="st3" d="M77.2,152.3l-12.8-13.8c-2.5-2.7-4.2-6.1-5-9.7l-4.1-20.1c-0.2-0.9-0.3-1.8-0.4-2.8l-1.4-22.8V83v-6.1
	c0-21.5,17.4-38.9,38.8-39h0.1l0,0c22.3,0,40.4,18.1,40.4,40.4v4.8v0.1l-1.4,22.8c-0.1,0.9-0.2,1.9-0.4,2.8l-4.1,20.1
	c-0.7,3.6-2.5,7-5,9.7l-12.8,13.8c-3.8,4.1-9.2,6.5-14.8,6.5h-2.4C86.5,158.8,81.1,156.5,77.2,152.3z"/>
<path class="st4" d="M129.6,53.1c12,10.4,6.6,29.5,6.6,29.5l-3.9,10.8c0,0,0.8-5.3-6.2-20.3c-1.7-3.5,1.9-13-0.2-16.6
	c-4.6-7.9-9.4-11.1-9.4-11.1S121.6,46.1,129.6,53.1z"/>
<path class="st4" d="M56.9,52.8c-12,10.2-6.6,29-6.6,29l3.9,10.7c0,0-0.8-5.2,6.2-20c1.7-3.5-1.9-12.8,0.2-16.4
	c4.6-7.8,9.4-10.9,9.4-10.9S64.9,45.9,56.9,52.8z"/>
<path class="st4" d="M107.2,22.6c-1.8,7.5,3.7,8.4,8.8,10.3c3.1,1.2,6.1,3.2,8.4,5.6c8.5,8.7,6.5,17-6.4,25.2
	c0.9-2.4,1.5-4.2,2.8-7.7c-19,15.7-37.1,13-56.2,0.3c1.4,3,2.3,5,3.3,7.3c-10.1-3.4-13.2-10-9.1-19c3.7-8.2,10.9-11.8,19.1-14
	C80.4,30,105.8,24.7,107.2,22.6z"/>
</svg>
