<?xml version="1.0" encoding="utf-8"?>
<!-- Generator: Adobe Illustrator 26.0.2, SVG Export Plug-In . SVG Version: 6.00 Build 0)  -->
<svg version="1.1" id="Calque_1" xmlns="http://www.w3.org/2000/svg" xmlns:xlink="http://www.w3.org/1999/xlink" x="0px" y="0px"
	 viewBox="0 0 788 1005" style="enable-background:new 0 0 788 1005;" xml:space="preserve">
<style type="text/css">
	.st0{clip-path:url(#SVGID_00000000931415632374420390000017013516713701532288_);}
	.st1{fill:#B8775C;}
	.st2{clip-path:url(#SVGID_00000025410164895605989990000010033627977678139523_);}
	.st3{fill:#D48F72;}
</style>
<g>
	<defs>
		<polygon id="SVGID_1_" points="429.7,176.4 429.7,176.4 446.1,176.4 446.1,209.3 429.7,209.3 		"/>
	</defs>
	<clipPath id="SVGID_00000021095892971930522310000009470875195617299645_">
		<use xlink:href="#SVGID_1_"  style="overflow:visible;"/>
	</clipPath>
	<g style="clip-path:url(#SVGID_00000021095892971930522310000009470875195617299645_);">
		<path class="st1" d="M429.7,209.3l3-28.2c0,0,6.6-7.8,12.2-3.2c3.8,3-3.1,28.2-7.5,29.5C430,209.5,429.7,209.3,429.7,209.3z"/>
	</g>
</g>
<g>
	<defs>
		<polygon id="SVGID_00000052063641176939866790000012591487697801622943_" points="358.3,176.4 358.3,176.4 341.9,176.4 
			341.9,209.3 358.3,209.3 		"/>
	</defs>
	<clipPath id="SVGID_00000057109632969679595330000011791530402856413111_">
		<use xlink:href="#SVGID_00000052063641176939866790000012591487697801622943_"  style="overflow:visible;"/>
	</clipPath>
	<g style="clip-path:url(#SVGID_00000057109632969679595330000011791530402856413111_);">
		<path class="st1" d="M358.3,209.3l-3-28.2c0,0-6.6-7.8-12.2-3.2c-3.8,3,3.1,28.2,7.5,29.5C358,209.5,358.3,209.3,358.3,209.3z"/>
	</g>
</g>
<path class="st3" d="M377.3,247.9L364.4,234c-2.5-2.7-4.2-6-4.9-9.6l-4.1-20.1c-0.2-0.9-0.3-1.8-0.4-2.8l-1.4-22.8v-6.4
	c0-21.5,17.4-38.9,38.9-38.9h1.5c21.5,0,38.9,17.4,38.9,38.9v6.4l-1.4,22.8c-0.1,0.9-0.2,1.9-0.4,2.8l-4.1,20.1
	c-0.7,3.6-2.4,6.9-4.9,9.6l-12.9,13.9c-3.8,4.1-9.1,6.4-14.7,6.4l-2.5,0C386.4,254.3,381.1,252,377.3,247.9z"/>
</svg>
