<?xml version="1.0" encoding="utf-8"?>
<!-- Generator: Adobe Illustrator 26.0.3, SVG Export Plug-In . SVG Version: 6.00 Build 0)  -->
<svg version="1.1" id="Calque_1" xmlns="http://www.w3.org/2000/svg" xmlns:xlink="http://www.w3.org/1999/xlink" x="0px" y="0px"
	 viewBox="0 0 188 202.1" style="enable-background:new 0 0 188 202.1;" xml:space="preserve">
<style type="text/css">
	.st0{clip-path:url(#SVGID_00000031893991844717827210000016419717511895846329_);}
	.st1{fill:#B8775C;}
	.st2{clip-path:url(#SVGID_00000058576205586452096260000017328369507992348343_);}
	.st3{fill:#D48F72;}
	.st4{fill:#C18544;}
	.st5{fill:#0D314F;}
	.st6{fill:#CC3E78;}
</style>
<g>
	<g>
		<defs>
			<polygon id="SVGID_1_" points="129.7,89.2 129.7,89.2 146.1,89.2 146.1,122.1 129.7,122.1 			"/>
		</defs>
		<clipPath id="SVGID_00000128450904990271215800000010054823921130363546_">
			<use xlink:href="#SVGID_1_"  style="overflow:visible;"/>
		</clipPath>
		<g style="clip-path:url(#SVGID_00000128450904990271215800000010054823921130363546_);">
			<path class="st1" d="M129.7,122.1l3-28.2c0,0,6.6-7.8,12.2-3.2c3.8,3-3.1,28.2-7.5,29.5C130,122.3,129.7,122.1,129.7,122.1z"/>
		</g>
	</g>
</g>
<g>
	<g>
		<defs>
			<polygon id="SVGID_00000052815884354262427050000006969893627750447281_" points="58.3,89.2 58.3,89.2 41.9,89.2 41.9,122.1 
				58.3,122.1 			"/>
		</defs>
		<clipPath id="SVGID_00000023278093815218001410000007912602678166527387_">
			<use xlink:href="#SVGID_00000052815884354262427050000006969893627750447281_"  style="overflow:visible;"/>
		</clipPath>
		<g style="clip-path:url(#SVGID_00000023278093815218001410000007912602678166527387_);">
			<path class="st1" d="M58.3,122.1l-3-28.2c0,0-6.6-7.8-12.2-3.2c-3.8,3,3.1,28.2,7.5,29.5C58,122.3,58.3,122.1,58.3,122.1z"/>
		</g>
	</g>
</g>
<path class="st3" d="M77.3,160.7l-12.9-13.9c-2.5-2.7-4.2-6-4.9-9.6l-4.1-20.1c-0.2-0.9-0.3-1.8-0.4-2.8l-1.4-22.8v-6.4
	c0-21.5,17.4-38.9,38.9-38.9H94c21.5,0,38.9,17.4,38.9,38.9v6.4l-1.4,22.8c-0.1,0.9-0.2,1.8-0.4,2.8l-4.1,20.1
	c-0.7,3.6-2.4,6.9-4.9,9.6l-12.9,13.9c-3.8,4.1-9.1,6.4-14.7,6.4h-2.6C86.4,167.1,81.1,164.8,77.3,160.7z"/>
<path class="st4" d="M129.6,61.4c12,10.4,6.6,29.5,6.6,29.5l-3.9,10.8c0,0,0.8-5.3-6.2-20.4c-1.7-3.5,1.9-13-0.2-16.6
	c-4.6-7.9-9.4-11.1-9.4-11.1S121.6,54.4,129.6,61.4z"/>
<path class="st4" d="M56.9,61.1c-12,10.2-6.6,29-6.6,29l3.9,10.7c0,0-0.8-5.2,6.2-20c1.7-3.5-1.9-12.8,0.2-16.4
	c4.6-7.8,9.4-10.9,9.4-10.9S64.9,54.2,56.9,61.1z"/>
<path class="st4" d="M102.8,36.4c1.5-2.1,2.9-4.1,4.4-6.2c-1.8,7.5,3.7,8.4,8.8,10.3c3.1,1.2,6.1,3.2,8.4,5.6
	c8.5,8.7,6.5,17-6.4,25.2c0.9-2.4,1.5-4.2,2.8-7.7c-19,15.7-37.1,13-56.2,0.3c1.4,3,2.3,5,3.3,7.3c-10.2-3.4-13.2-10-9.2-18.9
	c3.7-8.2,10.9-11.8,19.1-14c2.6-0.7,5.2-1.1,7.8-1.7C79,26,78.7,19.2,84.5,13.8c4.6-4.3,12.8-5,17.7-1.4c6.2,4.5,6,9.9-0.7,22.8
	C101.9,35.6,102.3,36,102.8,36.4z"/>
<path class="st5" d="M102,36.8H84.5c-0.7,0-1.3-0.6-1.3-1.3l0,0c0-0.7,0.6-1.3,1.3-1.3h17.4c0.7,0,1.3,0.6,1.3,1.3l0,0
	C103.2,36.2,102.7,36.8,102,36.8z"/>
<path class="st6" d="M101.9,34.6H84.5c-0.7,0-1.3-0.6-1.3-1.3l0,0c0-0.7,0.6-1.3,1.3-1.3h17.4c0.7,0,1.3,0.6,1.3,1.3l0,0
	C103.2,34,102.6,34.6,101.9,34.6z"/>
</svg>
