<?xml version="1.0" encoding="utf-8"?>
<!-- Generator: Adobe Illustrator 26.0.3, SVG Export Plug-In . SVG Version: 6.00 Build 0)  -->
<svg version="1.1" id="Layer_1" xmlns="http://www.w3.org/2000/svg" xmlns:xlink="http://www.w3.org/1999/xlink" x="0px" y="0px"
	 viewBox="0 0 188 202.1" style="enable-background:new 0 0 188 202.1;" xml:space="preserve">
<style type="text/css">
	.st0{clip-path:url(#SVGID_00000060030204948592695410000007667513294252587695_);}
	.st1{fill:#B8775C;}
	.st2{clip-path:url(#SVGID_00000149340339101875050200000014224169221415411893_);}
	.st3{fill:#D48F72;}
	.st4{fill:#C18544;}
</style>
<g>
	<g>
		<g>
			<defs>
				<polygon id="SVGID_1_" points="57.4,81.4 57.4,81.4 41.1,81.4 41.1,114.3 57.4,114.3 				"/>
			</defs>
			<clipPath id="SVGID_00000142151564865473748910000004265961345770985111_">
				<use xlink:href="#SVGID_1_"  style="overflow:visible;"/>
			</clipPath>
			<g style="clip-path:url(#SVGID_00000142151564865473748910000004265961345770985111_);">
				<path class="st1" d="M57.4,114.3l-3-28.2c0,0-6.6-7.8-12.2-3.2c-3.8,3,3.1,28.2,7.5,29.5C57.1,114.6,57.4,114.3,57.4,114.3z"/>
			</g>
		</g>
	</g>
	<g>
		<g>
			<defs>
				<polygon id="SVGID_00000067212620061494169680000001393039991625016742_" points="130.6,81.4 130.6,81.4 146.9,81.4 
					146.9,114.3 130.6,114.3 				"/>
			</defs>
			<clipPath id="SVGID_00000073000487768188943770000016350401902084208035_">
				<use xlink:href="#SVGID_00000067212620061494169680000001393039991625016742_"  style="overflow:visible;"/>
			</clipPath>
			<g style="clip-path:url(#SVGID_00000073000487768188943770000016350401902084208035_);">
				<path class="st1" d="M130.6,114.3l3-28.2c0,0,6.6-7.8,12.2-3.2c3.8,3-3.1,28.2-7.5,29.5C130.8,114.6,130.6,114.3,130.6,114.3z"
					/>
			</g>
		</g>
	</g>
	<path class="st3" d="M84.1,159.3l-22.6-24.4l-5.5-27l-1.5-24.2v-6.4c0-21.5,17.4-38.9,38.9-38.9h1.4c21.5,0,38.9,17.4,38.9,38.9
		v6.4l-1.5,24.2l-5.5,27L104,159.3L84.1,159.3L84.1,159.3z"/>
	<path class="st4" d="M130.4,53.6c12,10.4,6.6,29.5,6.6,29.5l-3.9,10.8c0,0,0.8-5.3-6.2-20.4c-1.7-3.5,1.9-13-0.2-16.6
		c-4.6-7.9-9.4-11.1-9.4-11.1S122.4,46.6,130.4,53.6z"/>
	<path class="st4" d="M57.7,53.3c-12,10.2-6.6,29-6.6,29L55,93c0,0-0.8-5.2,6.2-20c1.7-3.5-1.9-12.8,0.2-16.3
		c4.6-7.8,9.3-10.9,9.3-10.9S65.7,46.4,57.7,53.3z"/>
	<path class="st4" d="M77.1,122.1l-20.5-11.7c0.3,1.1,2.1,20.3,3.2,31.8c0.5,5.3,3.6,10.1,8.4,12.6l18.5,10.1
		c4.8,2.6,10.5,2.6,15.3,0.1c5.5-2.9,12.8-6.8,18.3-9.7c4.8-2.5,8-7.3,8.5-12.7c1.2-12.2,3.3-33,3.1-32.2
		c-0.2,1.1-20.1,11.5-20.1,11.5s-13.5-2.5-16.8-2.7C91.7,119.1,77.1,122.1,77.1,122.1 M111.2,130.8l-0.6,3.6c-0.5,3.3-3,5.9-6.2,6.7
		l-9.6,2.3c-1.7,0.4-3.4,0.3-5-0.4l-7.4-2.9c-2.5-1-4.4-3.2-5-5.9l-0.8-3.5 M76.6,130.8l17.7-3.2l17,3.2"/>
	<polygon class="st3" points="111.2,130.8 76.6,130.8 75.7,116.1 112.2,116.1 	"/>
</g>
</svg>
