<?xml version="1.0" encoding="utf-8"?>
<!-- Generator: Adobe Illustrator 26.0.3, SVG Export Plug-In . SVG Version: 6.00 Build 0)  -->
<svg version="1.1" id="Layer_1" xmlns="http://www.w3.org/2000/svg" xmlns:xlink="http://www.w3.org/1999/xlink" x="0px" y="0px"
	 viewBox="0 0 788 1005" style="enable-background:new 0 0 788 1005;" xml:space="preserve">
<style type="text/css">
	.st0{fill:#D48F72;}
	.st1{clip-path:url(#SVGID_00000027586634928275980040000002064038678232119471_);}
	.st2{fill:#A85B3B;}
	.st3{clip-path:url(#SVGID_00000150066414227884990380000014864875046783253139_);}
	.st4{clip-path:url(#SVGID_00000122713079621063961040000014805569694054574265_);}
	.st5{fill:#B8775C;}
	.st6{clip-path:url(#SVGID_00000073698758482748296360000010077674791867388032_);}
	.st7{fill:#C18544;}
</style>
<polygon class="st0" points="417.2,135.4 429.7,147.4 427.3,158.2 417.2,156 "/>
<g id="Calque_1">
	<g id="random">
		<g>
			<g>
				<defs>
					<polygon id="SVGID_1_" points="429.7,177 429.7,177 446.1,177 446.1,210 429.7,210 					"/>
				</defs>
				<clipPath id="SVGID_00000085941828429725303680000001389316010478351286_">
					<use xlink:href="#SVGID_1_"  style="overflow:visible;"/>
				</clipPath>
				<g style="clip-path:url(#SVGID_00000085941828429725303680000001389316010478351286_);">
					<path class="st2" d="M429.7,210l3-28.2c0,0,6.6-7.8,12.2-3.2c3.8,3-3.1,28.2-7.5,29.5C430,210.1,429.7,210,429.7,210z"/>
				</g>
			</g>
		</g>
	</g>
	<g id="random2">
		<g>
			<g>
				<defs>
					<polygon id="SVGID_00000134950250211851796560000016641153806630744219_" points="358.3,177 358.3,177 341.9,177 341.9,210 
						358.3,210 					"/>
				</defs>
				<clipPath id="SVGID_00000176023792602554359770000012076576930415630780_">
					<use xlink:href="#SVGID_00000134950250211851796560000016641153806630744219_"  style="overflow:visible;"/>
				</clipPath>
				<g style="clip-path:url(#SVGID_00000176023792602554359770000012076576930415630780_);">
					<path class="st2" d="M358.3,210l-3-28.2c0,0-6.6-7.8-12.2-3.2c-3.8,3,3.1,28.2,7.5,29.5C358,210.1,358.3,210,358.3,210z"/>
				</g>
			</g>
		</g>
	</g>
</g>
<g id="Calque_5">
	<g>
		<g>
			<defs>
				<polygon id="SVGID_00000030483367393372994080000009576225486849409707_" points="429.7,177 429.7,177 446.1,177 446.1,210 
					429.7,210 				"/>
			</defs>
			<clipPath id="SVGID_00000121239414932052956630000002015261386943112579_">
				<use xlink:href="#SVGID_00000030483367393372994080000009576225486849409707_"  style="overflow:visible;"/>
			</clipPath>
			<g style="clip-path:url(#SVGID_00000121239414932052956630000002015261386943112579_);">
				<path class="st5" d="M429.7,210l3-28.2c0,0,6.6-7.8,12.2-3.2c3.8,3-3.1,28.2-7.5,29.5C430,210.1,429.7,210,429.7,210z"/>
			</g>
		</g>
	</g>
	<g>
		<g>
			<defs>
				<polygon id="SVGID_00000011020761055647338370000003092371821786678443_" points="358.3,177 358.3,177 341.9,177 341.9,210 
					358.3,210 				"/>
			</defs>
			<clipPath id="SVGID_00000102537494723715698250000008617192488949461653_">
				<use xlink:href="#SVGID_00000011020761055647338370000003092371821786678443_"  style="overflow:visible;"/>
			</clipPath>
			<g style="clip-path:url(#SVGID_00000102537494723715698250000008617192488949461653_);">
				<path class="st5" d="M358.3,210l-3-28.2c0,0-6.6-7.8-12.2-3.2c-3.8,3,3.1,28.2,7.5,29.5C358,210.1,358.3,210,358.3,210z"/>
			</g>
		</g>
	</g>
	<path class="st0" d="M377.2,248.5l-12.8-13.8c-2.5-2.7-4.2-6.1-5-9.7l-4.1-20.1c-0.2-0.9-0.3-1.8-0.4-2.8l-1.4-22.8V173
		c0-21.5,17.4-38.9,38.8-39h0.1h1.5c21.5,0,38.9,17.4,38.9,38.9v6.3l-1.4,22.8c-0.1,0.9-0.2,1.9-0.4,2.8l-4.1,20.1
		c-0.7,3.6-2.5,7-5,9.7l-12.8,13.9c-3.8,4.1-9.1,6.4-14.7,6.4h-2.5C386.4,254.9,381.1,252.6,377.2,248.5z"/>
</g>
<g id="Calque_1_00000133508527750184312950000001338693480840790948_">
	<path class="st7" d="M410.2,152.4c0,0-0.1,0-0.1,0.1c-5.1,1.5-10.1,3.6-14.8,6.2c-4.3,2.5-16.5,6.8-21.2,8.3
		c-0.8,0.2-1.4-0.4-1.2-1.2l1.3-3.4c0.3-0.9-0.7-1.6-1.4-1.1c-3.6,2.4-10.2,6.9-12.5,9.2c-3.8,4.1-5.3,10-5.7,14.1
		c-0.1,1-1.5,1.1-1.9,0.2c-2.2-6.9-5.7-19.9-4.1-28.6c0.1-0.8-0.7-1.3-1.3-1c-0.9,0.4-1.9,0.8-2.7,1.1c-0.8,0.2-1.4-0.4-1.2-1.2
		c1.5-4.6,6.1-17.4,11.4-22.7c6.2-6.1,12.7-7.9,16.5-8.3c0.9-0.1,1.1-1.3,0.3-1.8l-1.3-0.7c-0.8-0.4-0.7-1.5,0.2-1.8
		c5-1.2,17.1-3.8,25.6-2.4c12.4,1.9,18,8.8,19.5,10.8c0.2,0.3,0.7,0.4,1,0.3c2.5-0.8,6.7-3.7,14.3,8.1c6.7,10.2,7,24,6.9,24.6
		l-4.1,22c-0.3,1.1-1.9,0.9-1.9-0.2c-0.1-6.1-0.2-14.6-0.5-16.4c-0.2-1.1-0.3-3.5-0.5-5.8c-0.1-1-1.5-1.2-1.9-0.2l0,0
		c-0.2,0.7-1,0.9-1.4,0.4c-1.8-1.4-5.5-4.8-8.2-11.4C418.5,147.8,410.9,151.9,410.2,152.4z"/>
</g>
</svg>
