<svg xmlns="http://www.w3.org/2000/svg" viewBox="0 0 388 618.27"><defs><style>.cls-1{fill:none;}.cls-2{fill:#baa535;}.cls-3{fill:#6b91b1;}.cls-4{fill:#e78367;}.cls-5{fill:#7fadd5;}.cls-6{fill:#3d3d3d;}.cls-7{fill:#5d5e6d;}</style></defs><g id="Calque_3" data-name="Calque 3"><path class="cls-1" d="M210.92,48c15.66,4.66,22.54,8.74,26.4,15.33,3.12,5.33,6.23,17.65,6.59,23.82.87,14.49-6.28,51.13-19.62,63.61C210.72,163.45,143,165,128.82,153c-13.91-11.84-22.77-48.1-22.58-62.62.07-6.18,2.61-18.63,5.47-24.1,3.54-6.76,10.22-11.16,25.66-16.55C155,43.54,173.14,44,173.14,44S193,42.65,210.92,48Z"/><path class="cls-2" d="M166.51,140.26l-1-42.2s-38.7-48-39.62-48-22.29,21.63-22.29,21.63L101.16,90l-4.58,71.43s15,152,15,153.46c0,.54.46,4.59,1,9.59a23.24,23.24,0,0,0,23.62,20.58h0c11.34-.27,17.07-4.73,18.69-16L157.12,314s7.59-83.67,6.28-85.67c-.88-1.34,6-49.88,4-51.85S166.51,140.26,166.51,140.26Z"/><path class="cls-3" d="M169.77,7.27,137.18,8a21.51,21.51,0,0,0-20.27,15.84l-14.36,52.7s-17.9,49.55-19.13,62.28c-4.8,49.64,23.86,240.47,25.57,259,2.17,23.42,18.86,92.17,18.86,92.17l27.22-6.2s9.69-67.86,9.57-92.48c-.09-16.3,3.59-174.1,6.58-210.54.83-10.09,3.12-43.59,3.12-43.59Z"/><path class="cls-4" d="M149.66,349.77c.37-.85,14.17-37.71,25.24-35.71h0A21.23,21.23,0,0,1,192.35,336l-.36,7.28s-7,66.39-8.22,67.7-40.05,111-40.56,113.7a12.31,12.31,0,0,1-13.59,9.95h0c-7.54-.94-7.8-5.63-5.63-12.91l10-127Z"/><path class="cls-5" d="M170,4.4l49.75,9a21.49,21.49,0,0,1,17.58,18.79l6.06,54.28s10,51.72,9.27,64.48c-2.93,49.8-60.72,233.91-65.28,252-5.76,22.8-32.87,88.15-32.87,88.15L127,486.11s2.55-74,6.47-98.26c2.6-16.09,23.35-172.56,26-209,.74-10.1,3.66-43.55,3.66-43.55L101.16,90l13.53-64.09a26.81,26.81,0,0,1,26-21.28Z"/><path class="cls-6" d="M136,520.38h0c5.83.13,11.11,4.13,13.64,10.34h0c5.69,14,29.57,32.64,29.57,32.64,4.28,3.91,6.36,10.3,5.42,16.58h0l-58-.1-3.27-1.15c-3.74-1.32-6.18-5.57-5.83-10.16l3.17-34C122.3,526.11,128.69,520.21,136,520.38Z"/><path class="cls-7" d="M183,579.6h0c.77-5.62-20.59-10.62-25.37-11.45h0c-3-.53-22.28,1.29-30.44,4.07a4.14,4.14,0,0,0-.54,7.62h0Z"/></g></svg>