<svg xmlns="http://www.w3.org/2000/svg" viewBox="0 0 788 1005.07"><defs><style>.cls-1{fill:none;}.cls-2{fill:#e78367;}.cls-3{fill:#3d3d3d;}.cls-4{fill:#555453;}.cls-5{fill:#5d5e6d;}</style></defs><g id="Calque_3" data-name="Calque 3"><polygon points="203.96 514.64 204.05 514.6 203.96 514.55 203.96 514.64"/><polygon points="204.05 514.6 204.15 514.64 204.15 514.55 204.05 514.6"/><polygon points="203.96 514.64 204.05 514.6 203.96 514.55 203.96 514.64"/><polygon points="204.05 514.6 204.15 514.64 204.15 514.55 204.05 514.6"/><path class="cls-1" d="M400.43,429.86c15.56,5,22.34,9.27,26,15.95,3,5.4,5.81,17.79,6,24,.52,14.5-7.49,51-21.11,63.13-13.87,12.38-81.64,12.38-95.5,0-13.63-12.16-21.63-48.63-21.11-63.13.22-6.18,3-18.57,6-24,3.7-6.68,10.48-10.92,26-15.95,17.8-5.75,35.9-4.84,35.9-4.84S382.64,424.11,400.43,429.86Z"/><polygon points="203.59 514.96 203.69 514.92 203.59 514.88 203.59 514.96"/><polygon points="203.69 514.92 203.78 514.96 203.78 514.88 203.69 514.92"/><polygon points="203.59 514.96 203.69 514.92 203.59 514.88 203.59 514.96"/><polygon points="203.69 514.92 203.78 514.96 203.78 514.88 203.69 514.92"/><path class="cls-2" d="M376.1,521.1V478.88S338.53,430,337.61,430s-22.79,21.09-22.79,21.09l-2.88,18.27-6.25,71.3s11.44,152.24,11.43,153.75c0,.54.35,4.61.8,9.61a23.23,23.23,0,0,0,23.14,21.13h0c11.34,0,17.17-4.33,19.05-15.51l2.54-15s9.54-83.46,8.27-85.5c-.84-1.35,7.19-49.71,5.18-51.73S376.1,521.1,376.1,521.1Z"/><path class="cls-2" d="M359.41,722.77c-.22-.9-7.24-39.62-18.5-39.62h0a21.25,21.25,0,0,0-21.07,18.51l-.93,7.22S314,775.44,315,777s19.72,116.3,19.73,119.09a12.29,12.29,0,0,0,11.6,12.2h0c7.59.42,8.68-4.15,7.84-11.71L366.9,769.81Z"/><path class="cls-2" d="M345.62,883.64c-4.8-.11-11.94,1.25-11.31,15.51.23,5-1.77,27.06-5.93,32.51-1.14,1.51-1.93,5.73-5.38,8.35a3.54,3.54,0,0,0-1.42,3.34l-1,5.39,33.89,1,10-6.71-7-27.31-2.4-17.78-.78-4.22C353,883.77,352.72,883.8,345.62,883.64Z"/><path class="cls-2" d="M382.47,388.23l-32.6,0a21.5,21.5,0,0,0-20.63,15.37l-15.6,52.35s-19.05,49.11-20.58,61.8c-6,49.52,22.55,185.15,22.55,185.15s-4.32,55.8-3,74.37c1.62,23.46,25.55,139.44,25.55,139.44l11.36,5.38s18.42-125.42,18.87-150c.3-16.29-5-48.7-5-65,.09-36.56,12.62-109,16.47-145.31,1.07-10.07,4.13-43.51,4.13-43.51Z"/><polygon class="cls-3" points="333.58 909.1 356.29 907.95 365.25 946.64 359.01 951.16 316.71 951.12 318.89 939.03 325.73 924.53 333.58 909.1"/><path class="cls-2" d="M407.92,722.77c.22-.9,7.25-39.62,18.5-39.62h0a21.25,21.25,0,0,1,21.07,18.51l.94,7.22s4.93,66.56,3.93,68.08-19.71,116.3-19.73,119.09a12.29,12.29,0,0,1-11.6,12.2h0c-7.59.42-8.68-4.15-7.84-11.71L400.43,769.81Z"/><path class="cls-2" d="M421.71,883.64c4.8-.11,11.94,1.25,11.31,15.51-.22,5,1.77,27.06,5.93,32.51,1.14,1.51,1.93,5.73,5.39,8.35a3.55,3.55,0,0,1,1.41,3.34l1,5.39-33.89,1-10-6.71,7-27.31,2.4-17.78.78-4.22C414.29,883.77,414.61,883.8,421.71,883.64Z"/><path class="cls-2" d="M366.9,388.19h50.56a21.5,21.5,0,0,1,20.63,15.37l15.6,52.35s19.05,49.11,20.58,61.8c6,49.52-22.55,185.15-22.55,185.15s4.32,55.8,3,74.37c-1.62,23.46-25.67,136.68-25.67,136.68L421,908.25S399.43,796.63,399,772c-.3-16.29,5-48.7,5-65-.09-36.56-12.62-109-16.47-145.31-1.07-10.07-4.13-43.51-4.13-43.51Z"/><polygon class="cls-3" points="433.75 909.1 411.05 907.95 402.08 946.64 408.32 951.16 450.62 951.12 448.44 939.03 441.6 924.53 433.75 909.1"/><path class="cls-4" d="M292.24,650.4s-3.76-99.83.82-132.69c4.64-33.28,36-129.52,36-129.52H442.25s28,96.41,32,129.52c4,32.93,0,132.69,0,132.69Z"/><path class="cls-3" d="M345.22,904.32h0a15.44,15.44,0,0,0-13.63,8.76h0C325.9,924.93,302,940.73,302,940.73a14.57,14.57,0,0,0-5.41,14.06h0l58,0,3.27-1a8.19,8.19,0,0,0,5.82-8.61l-3.19-28.85A15.44,15.44,0,0,0,345.22,904.32Z"/><path class="cls-5" d="M298.3,954.51h0a8.64,8.64,0,0,1,7.29-9.94l34.53-5.05a8.65,8.65,0,0,1,9.66,6.56l2,8.2Z"/><path class="cls-3" d="M421.4,904.32h0A15.44,15.44,0,0,1,435,913.08h0c5.69,11.85,29.55,27.65,29.55,27.65A14.57,14.57,0,0,1,470,954.79h0l-58,0-3.27-1a8.21,8.21,0,0,1-5.83-8.61l3.2-28.85A15.44,15.44,0,0,1,421.4,904.32Z"/><path class="cls-5" d="M468.32,954.51h0a8.64,8.64,0,0,0-7.29-9.94l-34.53-5.05a8.65,8.65,0,0,0-9.66,6.56l-1.95,8.2Z"/></g></svg>