<?xml version="1.0" encoding="utf-8"?>
<!-- Generator: Adobe Illustrator 26.0.1, SVG Export Plug-In . SVG Version: 6.00 Build 0)  -->
<svg version="1.1" id="Calque_1" xmlns="http://www.w3.org/2000/svg" xmlns:xlink="http://www.w3.org/1999/xlink" x="0px" y="0px"
	 viewBox="0 0 788 1005.1" style="enable-background:new 0 0 788 1005.1;" xml:space="preserve">
<style type="text/css">
	.st0{fill:none;}
	.st1{fill:#BAA535;}
	.st2{fill:#E78367;}
	.st3{fill:#3D3D3D;}
	.st4{fill:#2D2A29;}
</style>
<g id="Calque_3">
	<polygon points="230.9,515 231,515 230.9,515 	"/>
	<polygon points="231,515 231.1,515 231.1,515 	"/>
	<polygon points="230.9,515 231,515 230.9,515 	"/>
	<polygon points="231,515 231.1,515 231.1,515 	"/>
	<path class="st0" d="M420.5,431.1c15.5,5,10.3,9.3,14,16c3,5.4,5.8,17.8,6,24c0.5,14.5,1.5,51-12.1,63.1
		c-13.9,12.4-74.6,12.4-88.5,0c-13.6-12.2-21.6-48.7-21-63.2c0.2-6.2,3-18.6,6-24c3.7-6.7,10.5-10.9,26-16
		c17.8-5.8,35.9-4.8,35.9-4.8S402.7,425.4,420.5,431.1z"/>
	<path class="st1" d="M378,522.3v-42.2c0,0-37.6-48.9-38.5-48.9s-22.8,21.1-22.8,21.1l-2.9,18.3l-6.2,71.3
		c0,0,11.4,152.2,11.4,153.8c0,0.5,0.4,4.6,0.8,9.6c1.1,12,11.1,21.1,23.1,21.1l0,0c11.3,0,17.2-4.3,19-15.5l2.5-15
		c0,0,9.5-83.5,8.3-85.5c-0.8-1.3,7.2-49.7,5.2-51.7S378,522.3,378,522.3z"/>
	<path class="st2" d="M361.3,724c-0.2-0.9-7.2-39.6-18.5-39.6l0,0c-10.7,0-19.7,7.9-21.1,18.5l-0.9,7.2c0,0-4.9,66.6-3.9,68.1
		s19.7,116.3,19.7,119.1c0,6.5,5.1,11.8,11.6,12.2l0,0c7.6,0.4,8.7-4.2,7.8-11.7L368.8,771L361.3,724z"/>
	<path class="st2" d="M347.5,884.9c-4.8-0.1-11.9,1.2-11.3,15.5c0.2,5-1.8,27.1-5.9,32.5c-1.1,1.5-1.9,5.7-5.4,8.3
		c-1,0.8-1.6,2.1-1.4,3.3l-1,5.4l33.9,1l4.3-7.4l-1.4-26.6l-2.4-17.8l-0.8-4.2C354.9,885,354.6,885,347.5,884.9z"/>
	<path class="st3" d="M332.8,915.6c1.7-3.3,4.9-5.4,8.6-5.6l3-0.2l3.8-0.2l0,0c5.5-0.3,10.3,3.9,10.7,9.5l1.8,24.4l0.2,8.9h-42.3
		l2.2-12.1l6.8-14.5L332.8,915.6z"/>
	<path class="st2" d="M409.8,724c0.2-0.9,7.2-39.6,18.5-39.6l0,0c10.7,0,19.7,7.9,21.1,18.5l0.9,7.2c0,0,4.9,66.6,3.9,68.1
		s-19.7,116.3-19.7,119.1c0,6.5-5.1,11.8-11.6,12.2l0,0c-7.6,0.4-8.7-4.2-7.8-11.7L402.3,771L409.8,724z"/>
	<path class="st2" d="M423.6,884.9c4.8-0.1,11.9,1.2,11.3,15.5c-0.2,5,1.8,27.1,5.9,32.5c1.1,1.5,1.9,5.7,5.4,8.3
		c1.1,0.8,1.6,2,1.4,3.3l1,5.4l-33.9,1l-5.4-6.7l2.4-27.3l2.4-17.8l0.8-4.2C416.1,885,416.5,885,423.6,884.9z"/>
	<path class="st3" d="M427,909.9L427,909.9c-7.9-0.4-14.7,5.5-15.5,13.3l-2.2,21l0.9,8.1h42.3l-2.2-12.1l-6.8-14.5l-3.9-7.8
		C437.1,913.2,432.3,910.2,427,909.9z"/>
	<path class="st4" d="M315.6,413.4c-3.7,16.3-13.3,44.8-15.5,73.2c-10.7,136.4,17.2,424,33.3,402.7
		c62.2-82.6,109.9-73.8,181.4-143.5c42.6-41.5-17.7-167.5-36.6-214.8c-12.9-32.2-35.2-84.1-44.6-115.5
		C429.5,402.1,317.4,405.2,315.6,413.4z"/>
</g>
</svg>
