<?xml version="1.0" encoding="utf-8"?>
<!-- Generator: Adobe Illustrator 26.0.1, SVG Export Plug-In . SVG Version: 6.00 Build 0)  -->
<svg version="1.1" id="Calque_1" xmlns="http://www.w3.org/2000/svg" xmlns:xlink="http://www.w3.org/1999/xlink" x="0px" y="0px"
	 viewBox="0 0 788 1005.1" style="enable-background:new 0 0 788 1005.1;" xml:space="preserve">
<style type="text/css">
	.st0{fill:none;}
	.st1{fill:#BAA535;}
	.st2{fill:#6B91B1;}
	.st3{fill:#E78367;}
	.st4{fill:#7FADD5;}
	.st5{fill:#3D3D3D;}
	.st6{fill:#5D5E6D;}
</style>
<g id="Calque_3">
	<path class="st0" d="M410.2,419.5c15.4,4,22.1,7.4,25.9,13c3.1,4.5,6.1,15,6.5,20.3c0.9,12.3-6.2,43.5-19.3,54.1
		c-13.3,10.8-79.9,12.2-93.8,1.9c-13.7-10.1-22.4-40.9-22.2-53.3c0.1-5.3,2.6-15.9,5.4-20.5c3.5-5.8,10-9.5,25.2-14.1
		c17.3-5.3,35.1-4.8,35.1-4.8S392.6,414.9,410.2,419.5z"/>
	<path class="st1" d="M366.5,498l-1-35.9c0,0-38-40.9-38.9-40.9c-0.9,0-21.9,18.4-21.9,18.4l-2.4,15.6l-4.5,60.8
		c0,0,13.7,160.9,13.7,162.4c0,0.5,0.5,4.6,1,9.6c1.4,11.9,11.6,20.9,23.6,20.6l0,0c11.3-0.3,17.1-4.7,18.7-16l2.2-15.1
		c0,0,7.6-83.7,6.3-85.7c-0.9-1.3,6-61.3,4-63C365.4,527.2,366.5,498,366.5,498z"/>
	<path class="st2" d="M368.8,400l-32,0.6c-9.4,0.2-17.5,5.7-19.9,13.5l-13.2,29.6c0,0-17.6,42.2-18.8,53
		c-4.7,42.3,22.4,246,24.1,264.6c2.2,23.4,18.9,92.2,18.9,92.2l27.2-6.2c0,0,9.7-67.9,9.6-92.5c-0.1-16.3,3.6-191.3,6.5-222.3
		c0.8-8.6,3.1-37.1,3.1-37.1L368.8,400z"/>
	<path class="st3" d="M349.7,713.3c0.4-0.8,14.2-37.7,25.2-35.7l0,0c10.5,1.9,18,11.3,17.5,22l-0.4,7.3c0,0-7,66.4-8.2,67.7
		s-40,111-40.6,113.7c-1.2,6.4-7.1,10.7-13.6,10l0,0c-7.5-0.9-7.8-5.6-5.6-12.9l10-127L349.7,713.3z"/>
	<path class="st4" d="M369.1,397.6l48.9,7.7c9.2,1.4,16.2,7.9,17.3,16l6.9,31c0,0,9.8,44,9.1,54.9c-2.9,42.4-59.2,241.3-63.8,259.3
		c-5.8,22.8-32.9,88.2-32.9,88.2l-27.5-5c0,0,2.5-74,6.5-98.3c2.6-16.1,23.5-189.5,26.2-220.5c0.7-8.6,3.6-37.1,3.6-37.1l-60.9-38.5
		l12.4-39.3c2.6-10.5,13.2-18,25.5-18.1L369.1,397.6z"/>
	<path class="st5" d="M336,883.9L336,883.9c5.8,0.1,11.1,4.1,13.6,10.3l0,0c5.7,14,29.6,32.6,29.6,32.6c4.3,3.9,6.4,10.3,5.4,16.6
		l0,0l-58-0.1l-3.3-1.2c-3.7-1.3-6.2-5.6-5.8-10.2l3.2-34C322.3,889.6,328.7,883.7,336,883.9z"/>
	<path class="st6" d="M383,943.1L383,943.1c0.8-5.6-20.6-10.6-25.4-11.5l0,0c-3-0.5-22.3,1.3-30.4,4.1c-2.2,0.7-3.3,3.1-2.6,5.2
		c0.3,1,1.1,1.9,2.1,2.4l0,0L383,943.1z"/>
</g>
</svg>
