<svg xmlns="http://www.w3.org/2000/svg" viewBox="0 0 388 660.27"><defs><style>.cls-1{fill:#baa535;}.cls-2{fill:#b26959;}.cls-3{fill:#3d3d3d;}.cls-4{fill:#992314;}</style></defs><g id="Calque_3" data-name="Calque 3"><polygon points="38.15 161.8 38.25 161.76 38.15 161.71 38.15 161.8"/><polygon points="38.25 161.76 38.35 161.8 38.35 161.71 38.25 161.76"/><polygon points="38.15 161.8 38.25 161.76 38.15 161.71 38.15 161.8"/><polygon points="38.25 161.76 38.35 161.8 38.35 161.71 38.25 161.76"/><path class="cls-1" d="M212.77,178.64l-3.22-43.74s35.2-53.53,36.15-53.6S265,103.44,265,103.44L270.47,121l16.73,72.52s-.25,158.61-.13,160.17c.05.56,0,4.8-.1,10a24.13,24.13,0,0,1-22.36,23.65h0c-11.74.86-18.11-3.18-20.92-14.62l-3.77-15.37s-16.25-85.75-15.09-88c.77-1.46-11.23-51-9.3-53.2S212.77,178.64,212.77,178.64Z"/><path class="cls-2" d="M242.57,398.77c.38-.86,14.46-38.43,26-36.39h0a21.93,21.93,0,0,1,18.25,22.39l-.32,7.42s-14.82,63.71-16.1,65.05-32.86,117-33.37,119.81a12.62,12.62,0,0,1-14,10.13h0c-7.84-.95-8.14-5.74-5.93-13.16l9.51-129.43Z"/><path class="cls-2" d="M234.38,510.75c5,.54,12.13,2.92,9.54,17.52-.92,5.14-1.86,20.11,1.68,26.29,1,1.7,45.26,33.46,48.46,36.62a5,5,0,0,1,1.43,4.2l-.63,4.81L259.54,600,210.3,584.21l7.51-42.07,4.89-18,1.38-4.23C226.72,509.88,227.05,510,234.38,510.75Z"/><path class="cls-2" d="M202.83,4.46,227,.1a22.35,22.35,0,0,1,21.36,15.71S283,139.9,289.81,193.73c5.71,45,2.58,181.34,2.58,181.34L247,541.15l-27.73-2.33s-4.38-76.38,1.36-100.9c3.27-14,23.15-52.53,23.15-52.53L209.65,215.44l-10.43-43Z"/><path class="cls-1" d="M194.27,174.15V130.29s-39-50.8-40-50.8-23.68,21.91-23.68,21.91l-3,19-6.5,74.07S133,352.6,133,354.17c0,.56.36,4.78.84,10a24.13,24.13,0,0,0,24,22h0c11.78,0,17.83-4.5,19.79-16.11l2.64-15.61s9.91-86.71,8.59-88.83c-.87-1.4,7.47-51.64,5.38-53.74S194.27,174.15,194.27,174.15Z"/><path class="cls-2" d="M176.93,383.65c-.22-.93-7.52-41.16-19.21-41.16h0a22.08,22.08,0,0,0-21.89,19.23l-1,7.5s-5.12,69.15-4.09,70.73,20.48,120.81,20.5,123.7a12.76,12.76,0,0,0,12,12.68h0c7.88.44,9-4.31,8.14-12.16l13.25-131.66Z"/><path class="cls-2" d="M162.61,530.76c-5-.11-12.41,1.3-11.75,16.12.23,5.21-1.84,28.11-6.16,33.78-1.19,1.56-2,5.94-5.59,8.66a3.69,3.69,0,0,0-1.48,3.48l-1,5.6,35.21,1,10.37-7-7.28-28.37-2.49-18.47-.82-4.38C170.32,530.9,170,530.93,162.61,530.76Z"/><path class="cls-2" d="M202.83,4.46,169,4.43a22.35,22.35,0,0,0-21.44,16l-18.14,86s-19.79,51-21.38,64.2C101.82,222.07,131.43,363,131.43,363s-4.48,58-3.15,77.26c1.68,24.38,18.83,96.18,18.83,96.18l27.14.05s11.5-76.07,12-101.64c.31-16.93-5.2-50.59-5.15-67.53.1-38,13.11-113.18,17.11-150.95,1.11-10.46,4.29-45.2,4.29-45.2Z"/><polygon class="cls-3" points="150.1 557.21 173.69 556.02 183 596.21 176.52 600.91 132.58 600.86 134.84 588.31 141.95 573.25 150.1 557.21"/><polygon class="cls-3" points="217.37 545.64 244.78 549.21 296.07 592.53 296.69 600.8 259.06 600.91 208.91 585.4 217.37 545.64"/><path class="cls-4" d="M137.36,72.25l-25.1,76.15a134,134,0,0,0-6.63,40.16L101,591.35l93.33-4.05,7.61-406.47L225.65,367a41.06,41.06,0,0,1,.13,9.27l-5.17,52.53L208.18,579.39l92.68,12,13.23-208a127.07,127.07,0,0,0-.58-22.66L294.2,193.2a114.08,114.08,0,0,0-3.08-16.27L263.36,72.25Z"/></g></svg>