<svg xmlns="http://www.w3.org/2000/svg" viewBox="0 0 388 660.31"><defs><style>.cls-1{fill:#f7a386;}.cls-2{fill:#55525c;}.cls-3{fill:#3c3d4e;}.cls-4{fill:#5e574f;}</style></defs><g id="Calque_3" data-name="Calque 3"><polygon class="cls-1" points="190.3 568.88 170.92 567.12 163.38 507.35 187.84 499.45 190.3 568.88"/><path class="cls-2" d="M176.75,551.31l-6.33-1.8c-1,.37-2.55,5.58-2.81,6.77L156.3,588.66s13.73,18,23.19,17.07c1.74-.18,23.08-13.69,22.93-15.64h0c0-.66-4.56-14.48-4.56-14.48-.16-.24-3.05-15-8.28-27.86L186,545c-.62-.49-1.94,5.66-2.69,5.72l-5.79.44A3.16,3.16,0,0,0,176.75,551.31Z"/><path class="cls-3" d="M131.72,148.43c.2,2.64,13.69,168.55,13.17,171.24s-3.62,65.2-3.42,67.84S165,524.17,165,524.17l23.41-4.46S194.12,398,194,396.06s-2.88-46.82-3.75-48.74,13.45-190.13,13.45-190.13l-5.51-71.54L157,88.53c-13.65,1-24.29,13.17-24.62,28.28Z"/><path class="cls-1" d="M189.28,540c.55,7.11,9.38,34.17-7.5,38.18-6.94,1.65-14.89-2.29-16.05-9.33-1.2-7.27,3-17.19,5-26.12C172.24,535.8,188.73,532.92,189.28,540Z"/><polygon class="cls-1" points="311.98 568.24 335.8 563.56 328.92 502.2 304.07 505.32 311.98 568.24"/><path class="cls-2" d="M330.06,566.59l3.19-6.57,42.41,26.83s19.49,11.26,16.58,19.74c-1.18,3.44-23.43,6.31-30.81,5.41-13.07-1.6-18.81-16-42.37-19.24-4.09-.56-9.95-7.27-9.55-13.44l1.1-17.05,7.06,1.15Z"/><path class="cls-3" d="M284.19,137.26c.33,2.65,7.72,26.43,8.76,29s29.53,206.67,29.86,209.32,10.41,149.66,10.41,149.66l-27.75,3.53s-32.11-132.2-32.36-134.19-6.61-46.86-6.15-48.93-51.49-185.26-51.49-185.26l-8.53-67.85L248.14,87c13.59-1.83,26.48,8,29.82,22.79Z"/><path class="cls-1" d="M331.57,548.28l-21,14c8.27,3.9,32.47,31.79,54.35,28.57,16-2.35,1.17-10.73.81-10.38S344,568.27,338.59,562.09C336.05,559.16,331.57,548.28,331.57,548.28Z"/><path class="cls-4" d="M268.42,11.22c0,3.17,6.61,19.11,6.61,19.11l-6.84,7.87L293,166.25c1.47,10-27.06,323.15-44.95,322.47-17.31-.67-102.64,0-102.64,0-9.23-2-22.26-317.33-21.14-326.7L146.34,36.17l-3.44-6.84,5.56-18.66"/></g></svg>