<svg xmlns="http://www.w3.org/2000/svg" viewBox="0 0 388 660.31"><defs><style>.cls-1{fill:#b7a77d;}.cls-2{fill:#d18d7e;}.cls-3{fill:#3d3d3d;}.cls-4{fill:#3a61a7;}</style></defs><g id="Calque_3" data-name="Calque 3"><path class="cls-1" d="M185.79,150.19V106.33S147.1,48.09,146.15,48.09s-24,29.35-24,29.35l-3,19-6.5,74.07s11.88,158.16,11.87,159.73c0,.55.36,4.78.84,10a24.13,24.13,0,0,0,24,21.95h0c11.77,0,17.83-4.5,19.79-16.12l2.64-15.6s9.91-86.71,8.59-88.83c-.87-1.4,7.46-51.64,5.38-53.74S185.79,150.19,185.79,150.19Z"/><path class="cls-2" d="M168.45,359.69c-.22-.94-7.52-41.17-19.21-41.17h0a22.08,22.08,0,0,0-21.89,19.23l-1,7.51s-5.13,69.15-4.09,70.72,20.48,120.82,20.5,123.71a12.77,12.77,0,0,0,12.05,12.68h0c7.88.43,9-4.32,8.14-12.16l13.25-131.66Z"/><path class="cls-2" d="M154.13,526.8c-5-.11-12.41,1.3-11.75,16.11.23,5.22-1.84,28.12-6.16,33.78-1.19,1.56-2,5.95-5.6,8.67a3.7,3.7,0,0,0-1.47,3.48l-1,5.59,35.2,1,10.38-7-7.28-28.36L164,541.61l-.82-4.38C161.83,526.93,161.5,527,154.13,526.8Z"/><path class="cls-1" d="M192.74,4.71l-33.86,0a22.33,22.33,0,0,0-21.43,16L120.91,82.46s-19.79,51-21.38,64.2C93.34,198.1,118.47,397,119.8,416.26c1.68,24.37,17.34,96.18,17.34,96.18l29.09,0s11-76.07,11.51-101.64c.31-16.93,8-180.71,12-218.48,1.1-10.46,4.29-45.2,4.29-45.2Z"/><polygon class="cls-3" points="141.62 553.25 165.21 552.06 174.52 592.25 168.04 596.95 124.1 596.9 126.36 584.34 133.47 569.29 141.62 553.25"/><path class="cls-2" d="M218.84,359.69c.23-.94,7.53-41.17,19.22-41.17h0a22.06,22.06,0,0,1,21.88,19.23l1,7.51S266,414.41,265,416s-20.48,120.82-20.5,123.71a12.77,12.77,0,0,1-12,12.68h0c-7.88.43-9-4.32-8.14-12.16L211.07,408.55Z"/><path class="cls-2" d="M233.17,526.8c5-.11,12.4,1.3,11.74,16.11-.23,5.22,1.85,28.12,6.16,33.78,1.19,1.56,2,5.95,5.6,8.67a3.7,3.7,0,0,1,1.47,3.48l1,5.59-35.2,1-10.37-7,7.28-28.36,2.49-18.48.81-4.38C225.46,526.93,225.79,527,233.17,526.8Z"/><path class="cls-1" d="M176.57,4.68h52.52a22.35,22.35,0,0,1,21.44,16l15.86,61.82s19.79,51,21.38,64.2C294,198.1,268.83,397,267.5,416.26c-1.68,24.37-17.34,96.18-17.34,96.18l-29.09,0s-11-76.07-11.51-101.64c-.31-16.93-8-180.71-12-218.48-1.11-10.46-4.29-45.2-4.29-45.2Z"/><polygon class="cls-3" points="245.68 553.25 222.09 552.06 212.77 592.25 219.26 596.95 263.19 596.9 260.93 584.34 253.83 569.29 245.68 553.25"/><path class="cls-1" d="M155.66,6.51l81.68.33a22.76,22.76,0,0,1,22.17,18c6,27.8,17.31,79.75,21.67,95.13,5,17.65,9.37,35.47,10.11,53.8l16.88,414.49h-97.1L194,172.1l-2.32,0L188.93,587.9l-98.45,3.71L97,174.72c.3-19.33,4.59-38.19,9.91-56.77,4-14.07,14.29-60.42,20.48-88.75A28.82,28.82,0,0,1,155.66,6.51Z"/><polygon class="cls-4" points="262.61 48.88 125.47 47.85 125.35 38.17 262.65 38.17 262.61 48.88"/></g></svg>