<svg xmlns="http://www.w3.org/2000/svg" viewBox="0 0 788 1005.07"><defs><style>.cls-1{fill:#286c7c;}.cls-2{fill:#e78367;}.cls-3{fill:#3d3d3d;}</style></defs><g id="Calque_3" data-name="Calque 3"><path class="cls-1" d="M391.45,516l-3.1-42.1s33.88-51.53,34.8-51.6,18.6,21.31,18.6,21.31L447,460.54l16.11,69.82s-3.08,140.07-3,141.58c.05.53,0,4.61-.1,9.64a23.24,23.24,0,0,1-21.52,22.77h0c-11.31.83-17.44-3.06-20.14-14.07l-3.63-14.8s-12.81-69.94-11.69-72.06c.74-1.41-10.81-49.06-8.95-51.22S391.45,516,391.45,516Z"/><path class="cls-2" d="M417.16,716.1c.37-.85,14.06-37.75,25.14-35.78h0a21.24,21.24,0,0,1,17.51,21.9l-.34,7.28S447.83,784.67,446.58,786s-32,114.93-32.53,117.66a12.29,12.29,0,0,1-13.56,10h0c-7.54-.91-7.82-5.61-5.67-12.89l9.59-127Z"/><path class="cls-2" d="M412.25,855c4.77.52,11.68,2.81,9.18,16.86-.88,5-1.78,19.37,1.62,25.32.94,1.64,43.57,32.2,46.65,35.25a4.78,4.78,0,0,1,1.38,4l-.61,4.63-34-.18-47.4-15.21,7.23-40.49,4.7-17.32,1.33-4.07C404.88,854.17,405.19,854.24,412.25,855Z"/><path class="cls-1" d="M380,379.83l32,0a21.51,21.51,0,0,1,20.56,15.13S459,479.74,465.62,531.56c5.49,43.3,5.51,172.9,5.51,172.9l-42.68,161.9-33.78-2.84s-1.2-73.28,4.32-96.88c3.15-13.46,19.46-63.19,19.46-63.19l-30-151-10-41.36Z"/><path class="cls-1" d="M373.64,511.72V469.5s-37.57-48.9-38.49-48.9-22.8,21.09-22.8,21.09L309.48,460l-6.25,71.31S314.67,683.51,314.66,685c0,.54.35,4.6.8,9.61a23.23,23.23,0,0,0,23.14,21.13h0c11.33,0,17.17-4.33,19-15.51l2.54-15s9.54-83.47,8.27-85.51c-.84-1.35,7.19-49.71,5.18-51.73S373.64,511.72,373.64,511.72Z"/><path class="cls-2" d="M357,713.4c-.22-.9-7.25-39.63-18.5-39.63h0a21.26,21.26,0,0,0-21.07,18.52l-.94,7.22s-4.93,66.57-3.93,68.09,19.71,116.3,19.73,119.09a12.29,12.29,0,0,0,11.6,12.2h0c7.59.42,8.68-4.15,7.84-11.71l12.76-126.74Z"/><path class="cls-2" d="M343.16,874.28c-4.8-.11-11.94,1.25-11.31,15.51.22,5-1.77,27.06-5.93,32.52-1.14,1.5-1.93,5.72-5.39,8.34a3.56,3.56,0,0,0-1.41,3.35l-1,5.38,33.89,1,10-6.72-7-27.31-2.4-17.78-.78-4.22C350.58,874.41,350.26,874.44,343.16,874.28Z"/><path class="cls-1" d="M380,378.84l-32.59,0a21.51,21.51,0,0,0-20.63,15.37l-15.6,52.35s-19.05,49.11-20.58,61.81c-6,49.52,22.55,185.16,22.55,185.16s-4.32,55.81-3,74.37c1.62,23.47,16.7,92.59,16.7,92.59l28,0s10.63-73.23,11.08-97.85c.3-16.29-5-48.7-5-65,.09-36.57,12.62-109,16.47-145.32,1.07-10.07,4.13-43.51,4.13-43.51Z"/><polygon class="cls-3" points="331.12 899.74 353.82 898.59 362.79 937.28 356.55 941.8 314.25 941.76 316.43 929.67 323.27 915.18 331.12 899.74"/><polygon class="cls-3" points="395.88 888.6 422.26 892.04 471.64 933.74 472.24 941.7 436.01 941.8 387.74 926.87 395.88 888.6"/></g></svg>