<svg xmlns="http://www.w3.org/2000/svg" viewBox="0 0 788 1005.07"><defs><style>.cls-1{fill:#3c3d4e;}.cls-2{fill:#d18d7e;}.cls-3{fill:#3d3d3d;}.cls-4{fill:#3a61a7;}</style></defs><g id="Calque_3" data-name="Calque 3"><path class="cls-1" d="M386.14,493.17V449.32s-39-50.81-40-50.81-23.68,21.92-23.68,21.92l-3,19L313,513.47s11.88,158.15,11.87,159.72c0,.56.36,4.79.84,10a24.13,24.13,0,0,0,24,22h0c11.78,0,17.83-4.51,19.79-16.12l2.64-15.61s9.91-86.7,8.59-88.82c-.87-1.41,7.47-51.65,5.38-53.74S386.14,493.17,386.14,493.17Z"/><path class="cls-2" d="M368.8,702.67c-.22-.93-7.52-41.16-19.21-41.16h0a22.08,22.08,0,0,0-21.89,19.23l-1,7.51s-5.12,69.14-4.09,70.72,20.48,120.82,20.5,123.71a12.77,12.77,0,0,0,12.05,12.68h0c7.88.43,9-4.32,8.14-12.16l13.25-131.66Z"/><path class="cls-2" d="M354.48,869.79c-5-.11-12.41,1.3-11.75,16.11.24,5.22-1.84,28.12-6.16,33.78-1.19,1.56-2,6-5.59,8.67a3.67,3.67,0,0,0-1.48,3.47l-1,5.6,35.21,1,10.37-7-7.28-28.36-2.49-18.48-.82-4.38C362.19,869.92,361.85,870,354.48,869.79Z"/><path class="cls-1" d="M393.09,345.65l-33.85,0c-9.89,0-29.95,29-32.78,38.45l.8-.61s-25.79,93-27.38,106.2c-6.18,51.44,18.94,250.31,20.27,269.6,1.68,24.37,17.34,96.18,17.34,96.18l29.09.05s11-76.07,11.51-101.64c.31-16.93,8-180.72,12-218.49,1.11-10.46,4.29-45.19,4.29-45.19Z"/><polygon class="cls-3" points="341.97 896.24 365.56 895.04 374.88 935.24 368.39 939.93 324.45 939.89 326.72 927.33 333.82 912.27 341.97 896.24"/><path class="cls-2" d="M419.2,702.67c.22-.93,7.52-41.16,19.21-41.16h0a22.08,22.08,0,0,1,21.89,19.23l1,7.51s5.12,69.14,4.09,70.72-20.48,120.82-20.5,123.71a12.77,12.77,0,0,1-12.05,12.68h0c-7.88.43-9-4.32-8.14-12.16L411.42,751.54Z"/><path class="cls-2" d="M433.52,869.79c5-.11,12.41,1.3,11.75,16.11-.24,5.22,1.84,28.12,6.16,33.78,1.19,1.56,2,6,5.59,8.67a3.67,3.67,0,0,1,1.48,3.47l1,5.6-35.21,1-10.37-7,7.28-28.36,2.49-18.48.82-4.38C425.81,869.92,426.15,870,433.52,869.79Z"/><path class="cls-1" d="M376.92,345.61h52.52c9.89,0,18.27,16,21.1,25.45l10.2,11.39s25.79,94,27.38,107.2c6.18,51.44-18.94,250.31-20.27,269.6-1.68,24.37-17.34,96.18-17.34,96.18l-29.09.05s-11-76.07-11.51-101.64c-.31-16.93-8-180.72-12-218.49-1.11-10.46-4.29-45.19-4.29-45.19Z"/><polygon class="cls-3" points="446.03 896.24 422.44 895.04 413.13 935.24 419.61 939.93 463.55 939.89 461.28 927.33 454.18 912.27 446.03 896.24"/><polygon class="cls-4" points="462.57 392.64 325.43 391.61 325.31 381.93 462.61 381.93 462.57 392.64"/></g></svg>