<?xml version="1.0" encoding="utf-8"?>
<!-- Generator: Adobe Illustrator 26.0.3, SVG Export Plug-In . SVG Version: 6.00 Build 0)  -->
<svg version="1.1" id="Layer_1" xmlns="http://www.w3.org/2000/svg" xmlns:xlink="http://www.w3.org/1999/xlink" x="0px" y="0px"
	 viewBox="0 0 788 1005" style="enable-background:new 0 0 788 1005;" xml:space="preserve">
<style type="text/css">
	.st0{fill:none;stroke:#423522;stroke-width:2;stroke-linecap:round;stroke-miterlimit:10;}
	.st1{fill:#844F3D;}
	.st2{fill:none;stroke:#844F3D;stroke-width:2;stroke-miterlimit:10;}
	.st3{fill:#7F6041;}
	.st4{clip-path:url(#SVGID_00000122686100431302914570000005099963368143829685_);}
	.st5{fill:none;stroke:#9E5B3E;stroke-width:2;stroke-linecap:round;stroke-miterlimit:10;}
	.st6{clip-path:url(#SVGID_00000183968713588163878870000016950411468832419493_);}
	.st7{fill:#FFFFFF;}
	.st8{fill:#423522;}
</style>
<path class="st0" d="M403.6,189.6c0,0,2.8-1.3,8.2-1.3c2.8-0.1,5.6,0.4,8.2,1.3"/>
<path class="st1" d="M400.2,208.5c0,0-4.7,3.7-7.4,3.7s-7-3.6-7-3.6s5.4,0.7,7.2,0.7S400.2,208.5,400.2,208.5z"/>
<path class="st2" d="M384,220.7c3.1,1.2,6.4,1.8,9.7,1.7c3.2,0,6.5-0.7,9.4-2"/>
<path class="st3" d="M411.5,221.1c-1.6,2.2-4.4,3.1-7,2.2c-2.9-0.8-2.6-0.8-11-1.4c-0.1,0,0.2,0,0.1,0h-0.1c-8.4,0.6-9.1,0.6-12,1.4
	c-2.6,0.8-5.4-0.1-7-2.2c-3.2-5.2,0,0,6.1-3.9c4.1-2.6,10.5-1.4,12.7-0.6l0,0c2.2-0.9,8-2.1,12.1,0.6
	C411.5,221.1,414.7,215.9,411.5,221.1z"/>
<path class="st3" d="M404.2,175c-3.5-0.4-2.7,5.3-0.1,4.9c3.3-0.6,6.7-0.3,9.9,0.8c4.3,1.2,7.5,3.5,10,3.3c0.9-0.1,3.4,0,1.6-1.2
	C420,178.9,415.8,176.3,404.2,175z"/>
<path class="st3" d="M382.5,172.6c3,0.8,1.4,5.8-0.7,4.8c-2.7-1.2-5.7-1.7-8.6-1.2c-3.9,0.4-7.9,3.1-8.6,3.6s-2.3,0.2-1.1-1.5
	C366.6,173.3,373.1,170.1,382.5,172.6z"/>
<g id="random">
	<g>
		<defs>
			<rect id="SVGID_1_" x="402.7" y="195.5" width="18.5" height="6"/>
		</defs>
		<clipPath id="SVGID_00000074428141771490185030000012590163760708928393_">
			<use xlink:href="#SVGID_1_"  style="overflow:visible;"/>
		</clipPath>
		<g style="clip-path:url(#SVGID_00000074428141771490185030000012590163760708928393_);">
			<path class="st5" d="M403.7,198.7c0,0,4.8,2.1,8.5,1.8c3.1-0.3,5.9-1.8,8-4"/>
		</g>
	</g>
</g>
<g id="random2">
	<g>
		<defs>
			<rect id="SVGID_00000052799239894804544120000017037172883285295273_" x="366.2" y="195.5" width="18.5" height="6"/>
		</defs>
		<clipPath id="SVGID_00000076589898877824375880000003902436212178455954_">
			<use xlink:href="#SVGID_00000052799239894804544120000017037172883285295273_"  style="overflow:visible;"/>
		</clipPath>
		<g style="clip-path:url(#SVGID_00000076589898877824375880000003902436212178455954_);">
			<path class="st5" d="M383.7,198.7c0,0-4.8,2.1-8.5,1.8c-3.1-0.4-5.9-1.8-8-4"/>
		</g>
	</g>
</g>
<g>
	<g>
		<g>
			<path class="st7" d="M383.2,191.8c0,0-6.3,2.2-12.5,0.8c-6.2-1.4-6.4-2.4-6.4-2.4l5-3.6l3.4-0.8l6,0.5l1.5,1.1l2,2.1L383.2,191.8
				z"/>
			<path class="st8" d="M379.1,186.9c2.1,1.2,3.2,3.1,4.1,5c0.1-0.1,0.2-0.1,0.2-0.2c0-0.3,0-0.6-0.1-0.8c-1.3-2.3-2.8-4.6-5.6-5.3
				c-3.8-0.9-7.5-0.5-10.8,1.9c-1.1,0.8-2.1,1.6-3.2,2.5c1.6,1.5,7,3.2,7.6,2.4c-0.4-0.1-0.7-0.1-1-0.2c-0.8-0.3-1.7-0.6-2.5-1
				c-0.4-0.2-0.2-0.5,0.2-0.5c0.1,0,0.2,0,0.5,0c-1-0.9-1-1.1,0-2.1c0.7-0.7,1.4-1.3,2.1-1.8c0.3-0.2,0.7-0.2,1.1-0.3
				c0,0.4,0.1,0.8,0.1,1.1c-0.2,1.6,0.1,3.1,1.2,4.3c0.5,0.6,1.9,0.9,2.9,0.8c1-0.1,1.7-0.4,2.4-1.3c0.7-1,1-2,0.9-3.1
				C379.2,187.9,379.2,187.5,379.1,186.9z"/>
		</g>
	</g>
</g>
</svg>
