<?xml version="1.0" encoding="utf-8"?>
<!-- Generator: Adobe Illustrator 26.0.3, SVG Export Plug-In . SVG Version: 6.00 Build 0)  -->
<svg version="1.1" id="Layer_1" xmlns="http://www.w3.org/2000/svg" xmlns:xlink="http://www.w3.org/1999/xlink" x="0px" y="0px"
	 viewBox="0 0 788 1005" style="enable-background:new 0 0 788 1005;" xml:space="preserve">
<style type="text/css">
	.st0{fill:none;stroke:#844F3D;stroke-width:2;stroke-miterlimit:10;}
	.st1{fill:#844F3D;}
	.st2{fill:#7F6041;}
	.st3{clip-path:url(#SVGID_00000159462786511971415050000012095379696776958879_);}
	.st4{fill:none;stroke:#9E5B3E;stroke-width:2;stroke-linecap:round;stroke-miterlimit:10;}
	.st5{clip-path:url(#SVGID_00000102515253097838583110000000729965143166262162_);}
	.st6{fill:#FFFFFF;}
	.st7{fill:#423522;}
	.st8{fill:#E2E2E2;}
	.st9{fill:#D1D1D1;}
</style>
<path class="st0" d="M384.4,222.4c3.2,0.8,6.5,1.1,9.7,1.1c3.2,0,6.4-0.4,9.5-1.3"/>
<path class="st1" d="M402,208.8c0,0-4.7,3.7-7.4,3.7s-7-3.6-7-3.6s5.4,0.7,7.2,0.7S402,208.8,402,208.8z"/>
<path class="st2" d="M412.6,221.8c-1.6,2.2-4.4,3.1-7,2.2c-2.9-0.8-2.9-3.1-11.2-3.7h-0.2h-0.2c-8.4,0.6-8.4,3-11.2,3.7
	c-2.6,0.8-5.4-0.1-7-2.2c-3.2-5.2,0,0,6.1-3.9c4.1-2.6,10.2-3.8,12.4-2.9l0,0c2.2-0.9,8.2,0.3,12.4,2.9
	C412.6,221.8,415.8,216.6,412.6,221.8z"/>
<g>
	<path class="st2" d="M405.1,171.2c-3,0.8-1.4,5.8,0.7,4.8c2.7-1.2,5.7-1.6,8.6-1.2c3.9,0.3,7.9,3.1,8.6,3.6s2.3,0.2,1.2-1.5
		C421,171.9,414.5,168.6,405.1,171.2z"/>
	<path class="st2" d="M382.9,171.2c3,0.8,1.4,5.8-0.7,4.8c-2.7-1.2-5.7-1.6-8.6-1.2c-3.9,0.3-7.9,3.1-8.6,3.6s-2.3,0.2-1.2-1.5
		C367,171.9,373.5,168.6,382.9,171.2z"/>
</g>
<g id="random_00000083059276773183481870000012202197801348470455_">
	<g>
		<defs>
			<rect id="SVGID_1_" x="403.1" y="194.8" width="18.5" height="6"/>
		</defs>
		<clipPath id="SVGID_00000140719909436914088760000010030073841083419034_">
			<use xlink:href="#SVGID_1_"  style="overflow:visible;"/>
		</clipPath>
		<g style="clip-path:url(#SVGID_00000140719909436914088760000010030073841083419034_);">
			<path class="st4" d="M404.1,198c0,0,4.8,2.1,8.5,1.8c3.1-0.4,5.9-1.8,8-4"/>
		</g>
	</g>
</g>
<g id="random2_00000102526930449128513020000007078669930876306572_">
	<g>
		<defs>
			<rect id="SVGID_00000002378698745568692500000008892618844611083434_" x="366.6" y="194.8" width="18.5" height="6"/>
		</defs>
		<clipPath id="SVGID_00000049905040717548721910000013260237456415035305_">
			<use xlink:href="#SVGID_00000002378698745568692500000008892618844611083434_"  style="overflow:visible;"/>
		</clipPath>
		<g style="clip-path:url(#SVGID_00000049905040717548721910000013260237456415035305_);">
			<path class="st4" d="M384.1,198c0,0-4.8,2.1-8.5,1.8c-3.1-0.3-5.9-1.8-8-4"/>
		</g>
	</g>
</g>
<g>
	<g>
		<path class="st6" d="M383.6,190.4c0,0-6.3,2.2-12.5,0.8c-6.2-1.4-6.4-2.4-6.4-2.4l5-3.6l3.4-0.8l6,0.5l1.5,1.1l2,2.1L383.6,190.4z
			"/>
		<path class="st7" d="M379.5,185.5c2.1,1.2,3.2,3.1,4.1,5c0.1-0.1,0.2-0.1,0.2-0.2c0-0.3,0-0.6-0.1-0.8c-1.3-2.3-2.8-4.6-5.6-5.3
			c-3.8-0.9-7.5-0.5-10.8,1.9c-1.1,0.8-2.1,1.6-3.2,2.5c1.6,1.5,7,3.2,7.6,2.4c-0.4-0.1-0.7-0.1-1-0.2c-0.8-0.3-1.7-0.6-2.5-1
			c-0.4-0.2-0.2-0.5,0.2-0.5c0.1,0,0.2,0,0.5,0c-1-0.9-1-1.1,0-2.1c0.7-0.7,1.4-1.3,2.1-1.8c0.3-0.2,0.7-0.2,1.1-0.3
			c0,0.4,0.1,0.8,0.1,1.1c-0.2,1.6,0.1,3.1,1.2,4.3c0.5,0.6,1.9,0.9,2.9,0.8c1-0.1,1.7-0.4,2.4-1.3c0.7-1,1-2,0.9-3.1
			C379.6,186.5,379.6,186.1,379.5,185.5z"/>
	</g>
	<g>
		<path class="st6" d="M404.4,190.5c0,0,6.3,2.2,12.5,0.8c6.2-1.4,6.4-2.4,6.4-2.4l-5-3.6l-3.5-0.8l-6,0.5l-1.5,1.1l-2,2.1
			L404.4,190.5z"/>
		<path class="st7" d="M408.5,185.6c-2.1,1.2-3.2,3.1-4.1,5c-0.1-0.1-0.2-0.1-0.2-0.2c0-0.3,0-0.6,0.1-0.8c1.3-2.3,2.8-4.6,5.6-5.3
			c3.8-0.9,7.5-0.5,10.8,1.9c1.1,0.8,2.1,1.6,3.2,2.5c-1.6,1.5-7,3.2-7.6,2.4c0.4-0.1,0.7-0.1,1-0.2c0.8-0.3,1.7-0.6,2.5-1
			c0.4-0.2,0.2-0.5-0.2-0.5c-0.1,0-0.2,0-0.5,0c1-0.9,1-1.1,0-2.1c-0.7-0.7-1.4-1.3-2.1-1.8c-0.3-0.2-0.7-0.2-1.1-0.3
			c0,0.4-0.1,0.8-0.1,1.1c0.2,1.6-0.1,3.1-1.2,4.3c-0.5,0.6-1.9,0.9-2.9,0.8s-1.7-0.4-2.4-1.3c-0.7-1-1-2-0.9-3.1
			C408.4,186.6,408.4,186.3,408.5,185.6z"/>
	</g>
</g>
<g>
	<path class="st8" d="M368.2,213.7c5.6-3.3,14.9-8,18.9-9.8c1.3-0.6,2.7-1,4.2-1h6.5c1.5,0,3.2,0.4,4.6,1.2l16.7,9.1
		c3.4,1.9,5.3,5.6,4.9,9.4l-0.9,8.7c-0.2,2.3-1.4,4.6-3.2,6.1l-13.6,11.9c-1.8,1.5-4,2.3-6.3,2.3h-12.4c-2.3,0-4.4-0.8-6.2-2.3
		l-14.6-12.4c-2.1-1.9-3.3-4.4-3.3-7.2V222C363.6,218.5,365.3,215.4,368.2,213.7z"/>
	<path class="st9" d="M365.1,228.6c2.3-0.6,17.7,5.6,18.9,6.3c1.3,0.6,17.7-0.1,19.2,0c1.5,0.1,14.6-4.4,17.2-5.4s-0.6,5.7-0.6,5.7
		l-15,13.6h-21.4l-15.1-13.7L365.1,228.6z"/>
</g>
</svg>
