<?xml version="1.0" encoding="utf-8"?>
<!-- Generator: Adobe Illustrator 26.0.3, SVG Export Plug-In . SVG Version: 6.00 Build 0)  -->
<svg version="1.1" id="Layer_1" xmlns="http://www.w3.org/2000/svg" xmlns:xlink="http://www.w3.org/1999/xlink" x="0px" y="0px"
	 viewBox="0 0 88 111" style="enable-background:new 0 0 88 111;" xml:space="preserve">
<style type="text/css">
	.st0{fill:#844F3D;}
	.st1{fill:#9E5959;}
	.st2{fill:#7F6041;}
	.st3{clip-path:url(#SVGID_00000002344716292472829800000007115425824917650105_);}
	.st4{fill:none;stroke:#9E5B3E;stroke-width:2;stroke-linecap:round;stroke-miterlimit:10;}
	.st5{clip-path:url(#SVGID_00000060744184399406458120000000608018700641792900_);}
	.st6{fill:#FFFFFF;}
	.st7{fill:#423522;}
</style>
<path class="st0" d="M51.9,64.1c0,0-4.7,3.7-7.4,3.7s-7-3.6-7-3.6s5.4,0.7,7.2,0.7S51.9,64.1,51.9,64.1z"/>
<ellipse class="st1" cx="44.7" cy="81.8" rx="2.9" ry="5.7"/>
<path class="st2" d="M63.2,79.6c-1.6,2.2-4.4,3.1-7,2.2c-2.9-0.8-2.9-6.4-11.2-6.9h-0.2h-0.2c-8.4,0.6-8.4,6.2-11.2,6.9
	c-2.6,0.8-5.4-0.1-7-2.2c-3.2-5.2,0,0,6.1-3.9c4.1-2.6,5.2-6.1,12.4-6.1l0,0C52,69.9,53,73,57.1,75.7C63.2,79.6,66.4,74.4,63.2,79.6
	z"/>
<g>
	<path class="st2" d="M55.1,25c-3,0.8-1.4,5.8,0.7,4.8c2.7-1.2,5.7-1.6,8.6-1.2c3.9,0.3,7.9,3.1,8.6,3.6s2.3,0.2,1.1-1.5
		C71,25.7,64.5,22.5,55.1,25z"/>
	<path class="st2" d="M32.9,25c3,0.8,1.4,5.8-0.7,4.8c-2.7-1.2-5.7-1.6-8.6-1.2c-3.9,0.3-7.9,3.1-8.6,3.6s-2.3,0.2-1.2-1.5
		C17,25.7,23.5,22.5,32.9,25z"/>
</g>
<g id="random">
	<g>
		<defs>
			<rect id="SVGID_1_" x="52.9" y="50.5" width="18.5" height="6"/>
		</defs>
		<clipPath id="SVGID_00000085226815056935731140000007973838846326426294_">
			<use xlink:href="#SVGID_1_"  style="overflow:visible;"/>
		</clipPath>
		<g style="clip-path:url(#SVGID_00000085226815056935731140000007973838846326426294_);">
			<path class="st4" d="M53.9,53.7c0,0,4.8,2.1,8.5,1.8c3.1-0.4,5.9-1.8,8-4"/>
		</g>
	</g>
</g>
<g id="random2">
	<g>
		<defs>
			<rect id="SVGID_00000057137528752185515390000017867585554457589386_" x="15.4" y="50.5" width="18.5" height="6"/>
		</defs>
		<clipPath id="SVGID_00000176035305654854622970000000126602413588329121_">
			<use xlink:href="#SVGID_00000057137528752185515390000017867585554457589386_"  style="overflow:visible;"/>
		</clipPath>
		<g style="clip-path:url(#SVGID_00000176035305654854622970000000126602413588329121_);">
			<path class="st4" d="M32.9,53.7c0,0-4.8,2.1-8.5,1.8c-3.1-0.4-5.9-1.8-8-4"/>
		</g>
	</g>
</g>
<g>
	<g>
		<path class="st6" d="M32.6,43l-2-2.1l-1.5-1.1l-6-0.5l-3.4,0.8l-5,3.6c0,0,0.2,1,6.4,2.4s12.5-0.8,12.5-0.8L32.6,43z"/>
		<path class="st7" d="M21.1,40.3c-0.7,0.5-1.4,1.1-2.1,1.8c-1,1-1,1.2,0,2.1c-0.3,0-0.4,0-0.5,0c-0.4,0-0.6,0.3-0.2,0.5
			c0.8,0.4,1.7,0.7,2.5,1c0.3,0.1,0.6,0.1,1,0.2c-0.6,0.8-6-0.9-7.6-2.4c1.1-0.9,2.1-1.7,3.2-2.5c3.3-2.4,7-2.8,10.8-1.9
			c2.8,0.7,4.3,3,5.6,5.3c0.1,0.2,0.1,0.5,0.1,0.8c0,0.1-0.1,0.1-0.2,0.2c-0.9-1.9-2-3.8-4.1-5C24.2,39.3,21.4,40.1,21.1,40.3z"/>
	</g>
	<g>
		<path class="st6" d="M55.4,43.2l2-2.1l1.5-1.1l6-0.5l3.4,0.8l5,3.6c0,0-0.2,1-6.4,2.4s-12.5-0.8-12.5-0.8L55.4,43.2z"/>
		<path class="st7" d="M65.8,40.2c0.4,0.1,0.8,0.1,1.1,0.3c0.7,0.5,1.4,1.1,2.1,1.8c1,1,1,1.2,0,2.1c0.3,0,0.4,0,0.5,0
			c0.4,0,0.6,0.3,0.2,0.5c-0.8,0.4-1.7,0.7-2.5,1c-0.3,0.1-0.6,0.1-1,0.2c0.6,0.8,6-0.9,7.6-2.4c-1.1-0.9-2.1-1.7-3.2-2.5
			c-3.3-2.4-7-2.8-10.8-1.9c-2.8,0.7-4.3,3-5.6,5.3c-0.1,0.2-0.1,0.5-0.1,0.8c0,0.1,0.1,0.1,0.2,0.2c0.9-1.9,2-3.8,4.1-5
			C60.6,39.7,63.3,39.7,65.8,40.2z"/>
	</g>
	<path class="st7" d="M24.6,42.4c0,2.1,1.6,3.8,3.7,3.9h0.2c0.2,0,0.3,0,0.5,0c2.1-0.3,3.2-1.7,2.9-3.8l0,0c0-0.2-0.3-0.5-0.4-0.8
		c0-0.4-0.6-0.5-0.8-0.8c-0.2-0.1-0.8-0.6-1.1-0.8c-1.3,0-2.5-0.3-3.8-0.3c-0.4,0.3-0.6,0.7-0.8,1L24.9,41
		C24.7,41.5,24.6,42,24.6,42.4z"/>
	<path class="st7" d="M62.3,42.4c0,2.1,1.6,3.8,3.7,3.9h0.2c0.2,0,0.3,0,0.5,0c2.1-0.3,3.2-1.7,2.9-3.8l0,0c0-0.2-0.3-0.5-0.4-0.8
		c0-0.4-0.6-0.5-0.8-0.8c-0.2-0.1-0.8-0.6-1.1-0.8c-1.3,0-2.5-0.3-3.8-0.3c-0.4,0.3-0.6,0.7-0.8,1L62.6,41
		C62.5,41.5,62.4,42,62.3,42.4z"/>
</g>
</svg>
