<?xml version="1.0" encoding="utf-8"?>
<!-- Generator: Adobe Illustrator 26.0.3, SVG Export Plug-In . SVG Version: 6.00 Build 0)  -->
<svg version="1.1" id="Layer_1" xmlns="http://www.w3.org/2000/svg" xmlns:xlink="http://www.w3.org/1999/xlink" x="0px" y="0px"
	 viewBox="0 0 788 1005" style="enable-background:new 0 0 788 1005;" xml:space="preserve">
<style type="text/css">
	.st0{fill:#844F3D;}
	.st1{fill:#9E5959;}
	.st2{fill:#7F6041;}
	.st3{clip-path:url(#SVGID_00000065752799675335503690000005481475366127066531_);}
	.st4{fill:none;stroke:#9E5B3E;stroke-width:2;stroke-linecap:round;stroke-miterlimit:10;}
	.st5{clip-path:url(#SVGID_00000023275187635759971120000013566444148168217738_);}
	.st6{fill:#FFFFFF;}
	.st7{fill:#423522;}
</style>
<path class="st0" d="M401.8,209.1c0,0-4.7,3.7-7.4,3.7s-7-3.6-7-3.6s5.4,0.7,7.2,0.7S401.8,209.1,401.8,209.1z"/>
<ellipse class="st1" cx="394.6" cy="226.8" rx="2.9" ry="5.7"/>
<path class="st2" d="M413.1,224.6c-1.6,2.2-4.4,3.1-7,2.2c-2.9-0.8-2.9-6.4-11.2-6.9h-0.2h-0.2c-8.4,0.6-8.4,6.2-11.2,6.9
	c-2.6,0.8-5.4-0.1-7-2.2c-3.2-5.2,0,0,6.1-3.9c4.1-2.6,5.2-6.1,12.4-6.1l0,0c7.2,0.4,8.3,3.5,12.4,6.1
	C413.1,224.6,416.2,219.4,413.1,224.6z"/>
<g>
	<path class="st2" d="M405,170c-3,0.8-1.4,5.8,0.7,4.8c2.7-1.2,5.7-1.6,8.6-1.2c3.9,0.3,7.9,3.1,8.6,3.6s2.3,0.2,1.1-1.5
		C420.9,170.7,414.4,167.5,405,170z"/>
	<path class="st2" d="M382.8,170c3,0.8,1.4,5.8-0.7,4.8c-2.7-1.2-5.7-1.6-8.6-1.2c-3.9,0.3-7.9,3.1-8.6,3.6s-2.3,0.2-1.2-1.5
		C366.9,170.7,373.4,167.5,382.8,170z"/>
</g>
<g id="random">
	<g>
		<defs>
			<rect id="SVGID_1_" x="402.8" y="195.5" width="18.5" height="6"/>
		</defs>
		<clipPath id="SVGID_00000065771019839610223130000010370204237217635497_">
			<use xlink:href="#SVGID_1_"  style="overflow:visible;"/>
		</clipPath>
		<g style="clip-path:url(#SVGID_00000065771019839610223130000010370204237217635497_);">
			<path class="st4" d="M403.8,198.6c0,0,4.8,2.1,8.5,1.8c3.1-0.4,5.9-1.8,8-4"/>
		</g>
	</g>
</g>
<g id="random2">
	<g>
		<defs>
			<rect id="SVGID_00000085239288586863312570000016672422744718280587_" x="365.3" y="195.5" width="18.5" height="6"/>
		</defs>
		<clipPath id="SVGID_00000004543116053862195930000014486999057986325133_">
			<use xlink:href="#SVGID_00000085239288586863312570000016672422744718280587_"  style="overflow:visible;"/>
		</clipPath>
		<g style="clip-path:url(#SVGID_00000004543116053862195930000014486999057986325133_);">
			<path class="st4" d="M382.8,198.6c0,0-4.8,2.1-8.5,1.8c-3.1-0.4-5.9-1.8-8-4"/>
		</g>
	</g>
</g>
<g>
	<g>
		<path class="st6" d="M382.5,188l-2-2.1l-1.5-1.1l-6-0.5l-3.4,0.8l-5,3.6c0,0,0.2,1,6.4,2.4c6.2,1.4,12.5-0.8,12.5-0.8L382.5,188z"
			/>
		<path class="st7" d="M371,185.3c-0.7,0.5-1.4,1.1-2.1,1.8c-1,1-1,1.2,0,2.1c-0.3,0-0.4,0-0.5,0c-0.4,0-0.6,0.3-0.2,0.5
			c0.8,0.4,1.7,0.7,2.5,1c0.3,0.1,0.6,0.1,1,0.2c-0.6,0.8-6-0.9-7.6-2.4c1.1-0.9,2.1-1.7,3.2-2.5c3.3-2.4,7-2.8,10.8-1.9
			c2.8,0.7,4.3,3,5.6,5.3c0.1,0.2,0.1,0.5,0.1,0.8c0,0.1-0.1,0.1-0.2,0.2c-0.9-1.9-2-3.8-4.1-5C374.1,184.3,371.3,185.1,371,185.3z"
			/>
	</g>
	<g>
		<path class="st6" d="M405.3,188.2l2-2.1l1.5-1.1l6-0.5l3.4,0.8l5,3.6c0,0-0.2,1-6.4,2.4c-6.2,1.4-12.5-0.8-12.5-0.8L405.3,188.2z"
			/>
		<path class="st7" d="M415.7,185.2c0.4,0.1,0.8,0.1,1.1,0.3c0.7,0.5,1.4,1.1,2.1,1.8c1,1,1,1.2,0,2.1c0.3,0,0.4,0,0.5,0
			c0.4,0,0.6,0.3,0.2,0.5c-0.8,0.4-1.7,0.7-2.5,1c-0.3,0.1-0.6,0.1-1,0.2c0.6,0.8,6-0.9,7.6-2.4c-1.1-0.9-2.1-1.7-3.2-2.5
			c-3.3-2.4-7-2.8-10.8-1.9c-2.8,0.7-4.3,3-5.6,5.3c-0.1,0.2-0.1,0.5-0.1,0.8c0,0.1,0.1,0.1,0.2,0.2c0.9-1.9,2-3.8,4.1-5
			C410.5,184.7,413.2,184.7,415.7,185.2z"/>
	</g>
	<path class="st7" d="M374.5,187.4c0,2.1,1.6,3.8,3.7,3.9h0.2c0.2,0,0.3,0,0.5,0c2.1-0.3,3.2-1.7,2.9-3.8l0,0c0-0.2-0.3-0.5-0.4-0.8
		c0-0.4-0.6-0.5-0.8-0.8c-0.2-0.1-0.8-0.6-1.1-0.8c-1.3,0-2.5-0.3-3.8-0.3c-0.4,0.3-0.6,0.7-0.8,1l-0.1,0.2
		C374.6,186.5,374.5,187,374.5,187.4z"/>
	<path class="st7" d="M412.2,187.4c0,2.1,1.6,3.8,3.7,3.9h0.2c0.2,0,0.3,0,0.5,0c2.1-0.3,3.2-1.7,2.9-3.8l0,0c0-0.2-0.3-0.5-0.4-0.8
		c0-0.4-0.6-0.5-0.8-0.8c-0.2-0.1-0.8-0.6-1.1-0.8c-1.3,0-2.5-0.3-3.8-0.3c-0.4,0.3-0.6,0.7-0.8,1l-0.1,0.2
		C412.4,186.5,412.3,187,412.2,187.4z"/>
</g>
</svg>
