<?xml version="1.0" encoding="utf-8"?>
<!-- Generator: Adobe Illustrator 26.0.3, SVG Export Plug-In . SVG Version: 6.00 Build 0)  -->
<svg version="1.1" id="Layer_1" xmlns="http://www.w3.org/2000/svg" xmlns:xlink="http://www.w3.org/1999/xlink" x="0px" y="0px"
	 viewBox="0 0 88 111" style="enable-background:new 0 0 88 111;" xml:space="preserve">
<style type="text/css">
	.st0{fill:none;stroke:#844F3D;stroke-width:2;stroke-miterlimit:10;}
	.st1{fill:#844F3D;}
	.st2{fill:#7F6041;}
	.st3{clip-path:url(#SVGID_00000017510663170991635130000011565339489194809245_);}
	.st4{fill:none;stroke:#9E5B3E;stroke-width:2;stroke-linecap:round;stroke-miterlimit:10;}
	.st5{clip-path:url(#SVGID_00000083773724023841070030000014739737135425694336_);}
	.st6{fill:#FFFFFF;}
	.st7{fill:#423522;}
</style>
<path class="st0" d="M34.4,80.7c3.2,0.8,6.5,1.1,9.7,1.1c3.2,0,6.4-0.4,9.5-1.3"/>
<path class="st1" d="M52,67c0,0-4.7,3.7-7.4,3.7s-7-3.6-7-3.6s5.4,0.7,7.2,0.7S52,67,52,67z"/>
<path class="st2" d="M62.6,80c-1.6,2.2-4.4,3.1-7,2.2c-2.9-0.8-2.9-3.1-11.2-3.7h-0.2h-0.2c-8.4,0.6-8.4,3-11.2,3.7
	c-2.6,0.8-5.4-0.1-7-2.2c-3.2-5.2,0,0,6.1-3.9c4.1-2.6,10.2-3.8,12.4-2.9l0,0c2.2-0.9,8.2,0.3,12.4,2.9C62.6,80,65.8,74.8,62.6,80z"
	/>
<g>
	<path class="st2" d="M55.1,29.4c-3,0.8-1.4,5.8,0.7,4.8c2.7-1.2,5.7-1.6,8.6-1.2c3.9,0.3,7.9,3.1,8.6,3.6s2.3,0.2,1.2-1.5
		C71,30.1,64.5,26.9,55.1,29.4z"/>
	<path class="st2" d="M32.9,29.4c3,0.8,1.4,5.8-0.7,4.8c-2.7-1.2-5.7-1.6-8.6-1.2c-3.9,0.3-7.9,3.1-8.6,3.6s-2.3,0.2-1.2-1.5
		C17,30.1,23.5,26.9,32.9,29.4z"/>
</g>
<g id="random">
	<g>
		<defs>
			<rect id="SVGID_1_" x="53.1" y="53.1" width="18.5" height="6"/>
		</defs>
		<clipPath id="SVGID_00000183244936219539110520000005182762387200093838_">
			<use xlink:href="#SVGID_1_"  style="overflow:visible;"/>
		</clipPath>
		<g style="clip-path:url(#SVGID_00000183244936219539110520000005182762387200093838_);">
			<path class="st4" d="M54.1,56.2c0,0,4.8,2.1,8.5,1.8c3.1-0.4,5.9-1.8,8-4"/>
		</g>
	</g>
</g>
<g id="random2">
	<g>
		<defs>
			<rect id="SVGID_00000139972280888772034640000015345641248323925633_" x="16.6" y="53.1" width="18.5" height="6"/>
		</defs>
		<clipPath id="SVGID_00000083803899389431808990000010219454052201356973_">
			<use xlink:href="#SVGID_00000139972280888772034640000015345641248323925633_"  style="overflow:visible;"/>
		</clipPath>
		<g style="clip-path:url(#SVGID_00000083803899389431808990000010219454052201356973_);">
			<path class="st4" d="M34.1,56.2c0,0-4.8,2.1-8.5,1.8c-3.1-0.3-5.9-1.8-8-4"/>
		</g>
	</g>
</g>
<g>
	<g>
		<path class="st6" d="M33.7,47.6c0,0-6.3,2.2-12.5,0.8S14.8,46,14.8,46l5-3.6l3.4-0.8l6,0.5l1.5,1.1l2,2.1L33.7,47.6z"/>
		<path class="st7" d="M29.5,42.7c2.1,1.2,3.2,3.1,4.1,5c0.1-0.1,0.2-0.1,0.2-0.2c0-0.3,0-0.6-0.1-0.8c-1.3-2.3-2.8-4.6-5.6-5.3
			c-3.8-0.9-7.5-0.5-10.8,1.9c-1.1,0.8-2.1,1.6-3.2,2.5c1.6,1.5,7,3.2,7.6,2.4c-0.4-0.1-0.7-0.1-1-0.2c-0.8-0.3-1.7-0.6-2.5-1
			c-0.4-0.2-0.2-0.5,0.2-0.5c0.1,0,0.2,0,0.5,0c-1-0.9-1-1.1,0-2.1c0.7-0.7,1.4-1.3,2.1-1.8c0.3-0.2,0.7-0.2,1.1-0.3
			c0,0.4,0.1,0.8,0.1,1.1c-0.2,1.6,0.1,3.1,1.2,4.3c0.5,0.6,1.9,0.9,2.9,0.8c1-0.1,1.7-0.4,2.4-1.3c0.7-1,1-2,0.9-3.1
			C29.7,43.7,29.7,43.3,29.5,42.7z"/>
	</g>
	<g>
		<path class="st6" d="M54.3,47.7c0,0,6.3,2.2,12.5,0.8s6.4-2.4,6.4-2.4l-5-3.6l-3.5-0.8l-6,0.5l-1.5,1.1l-2,2.1L54.3,47.7z"/>
		<path class="st7" d="M58.4,42.8c-2.1,1.2-3.2,3.1-4.1,5c-0.1-0.1-0.2-0.1-0.2-0.2c0-0.3,0-0.6,0.1-0.8c1.3-2.3,2.8-4.6,5.6-5.3
			c3.8-0.9,7.5-0.5,10.8,1.9c1.1,0.8,2.1,1.6,3.2,2.5c-1.6,1.5-7,3.2-7.6,2.4c0.4-0.1,0.7-0.1,1-0.2c0.8-0.3,1.7-0.6,2.5-1
			c0.4-0.2,0.2-0.5-0.2-0.5c-0.1,0-0.2,0-0.5,0c1-0.9,1-1.1,0-2.1c-0.7-0.7-1.4-1.3-2.1-1.8c-0.3-0.2-0.7-0.2-1.1-0.3
			c0,0.4-0.1,0.8-0.1,1.1c0.2,1.6-0.1,3.1-1.2,4.3c-0.5,0.6-1.9,0.9-2.9,0.8c-1-0.1-1.7-0.4-2.4-1.3c-0.7-1-1-2-0.9-3.1
			C58.3,43.8,58.3,43.5,58.4,42.8z"/>
	</g>
</g>
</svg>
