<?xml version="1.0" encoding="utf-8"?>
<!-- Generator: Adobe Illustrator 26.0.3, SVG Export Plug-In . SVG Version: 6.00 Build 0)  -->
<svg version="1.1" id="Layer_1" xmlns="http://www.w3.org/2000/svg" xmlns:xlink="http://www.w3.org/1999/xlink" x="0px" y="0px"
	 viewBox="0 0 88 111" style="enable-background:new 0 0 88 111;" xml:space="preserve">
<style type="text/css">
	.st0{fill:#844F3D;}
	.st1{fill:#9E5959;}
	.st2{fill:#BFBFBF;}
	.st3{fill:#7F6041;}
	.st4{clip-path:url(#SVGID_00000057114605719555953740000009979620437892778652_);}
	.st5{fill:none;stroke:#9E5B3E;stroke-width:2;stroke-linecap:round;stroke-miterlimit:10;}
	.st6{clip-path:url(#SVGID_00000174565950674599942510000007999577901029947292_);}
	.st7{fill:#FFFFFF;}
	.st8{fill:#423522;}
</style>
<path class="st0" d="M51.2,63.4c0,0-4.7,3.7-7.4,3.7s-7-3.6-7-3.6s5.4,0.7,7.2,0.7S51.2,63.4,51.2,63.4z"/>
<path class="st1" d="M28.2,75.8c0.3-0.6,1.4-1.6,3.5-2.5c3.4-1.3,6.9-2.1,10.5-2.1c5.9-0.1,11.6,2.1,15.9,6.1
	c0,0-4.6,11.7-15.8,10.9C34.2,87.5,28.2,75.8,28.2,75.8z"/>
<path class="st2" d="M43.2,76.3L34.9,76L32.7,75c3.6-1.5,7.5-2.1,11.4-2c6.7,0.4,10.3,2.9,10.3,2.9l-1.7,0.8L43.2,76.3z"/>
<path class="st3" d="M62,75.5c-1.6,2.2-4.4,3.1-7,2.2c-2.9-0.8-2.9-3.1-11.2-3.7h-0.2h-0.2c-8.4,0.6-8.4,3-11.2,3.7
	c-2.6,0.8-5.4-0.1-7-2.2c-3.2-5.2,0,0,6.1-3.9c4.1-2.6,10.2-3.8,12.4-2.9l0,0c2.2-0.9,8.2,0.3,12.4,2.9C62,75.5,65.2,70.3,62,75.5z"
	/>
<g>
	<path class="st3" d="M55.1,23.5c-3,0.8-1.4,5.8,0.7,4.8c2.7-1.2,5.7-1.6,8.6-1.2c3.9,0.3,7.9,3.1,8.6,3.6s2.3,0.2,1.2-1.5
		C71,24.2,64.5,21,55.1,23.5z"/>
	<path class="st3" d="M32.9,23.5c3,0.8,1.4,5.8-0.7,4.8c-2.7-1.2-5.7-1.6-8.6-1.2c-3.9,0.3-7.9,3.1-8.6,3.6s-2.3,0.2-1.2-1.5
		C17,24.2,23.5,21,32.9,23.5z"/>
</g>
<g id="random">
	<g>
		<defs>
			<rect id="SVGID_1_" x="53" y="50.7" width="18.5" height="6"/>
		</defs>
		<clipPath id="SVGID_00000090993058805460543720000000945563600789241486_">
			<use xlink:href="#SVGID_1_"  style="overflow:visible;"/>
		</clipPath>
		<g style="clip-path:url(#SVGID_00000090993058805460543720000000945563600789241486_);">
			<path class="st5" d="M54,53.9c0,0,4.8,2.1,8.5,1.8c3.1-0.3,5.9-1.8,8-4"/>
		</g>
	</g>
</g>
<g id="random2">
	<g>
		<defs>
			<rect id="SVGID_00000098933911505307955210000004798097427351176085_" x="16.5" y="50.7" width="18.5" height="6"/>
		</defs>
		<clipPath id="SVGID_00000182493915415352062070000005892915602194521735_">
			<use xlink:href="#SVGID_00000098933911505307955210000004798097427351176085_"  style="overflow:visible;"/>
		</clipPath>
		<g style="clip-path:url(#SVGID_00000182493915415352062070000005892915602194521735_);">
			<path class="st5" d="M34,53.9c0,0-4.8,2.1-8.5,1.8c-3.1-0.3-5.9-1.8-8-4"/>
		</g>
	</g>
</g>
<g>
	<g>
		<path class="st7" d="M54.4,45.5c0,0,6.3,2.2,12.5,0.8s6.4-2.4,6.4-2.4l-5-3.6l-3.4-0.8l-6,0.5l-1.5,1.1l-2,2.1L54.4,45.5z"/>
		<path class="st8" d="M58.4,40.6c-2.1,1.2-3.2,3.1-4.1,5c-0.1-0.1-0.2-0.1-0.2-0.2c0-0.3,0-0.6,0.1-0.8c1.3-2.3,2.8-4.6,5.6-5.3
			c3.8-0.9,7.5-0.5,10.8,1.9c1.1,0.8,2.1,1.6,3.2,2.5c-1.6,1.5-7,3.2-7.6,2.4c0.4-0.1,0.7-0.1,1-0.2c0.8-0.3,1.7-0.6,2.5-1
			c0.4-0.2,0.2-0.5-0.2-0.5c-0.1,0-0.2,0-0.5,0c1-0.9,1-1.1,0-2.1c-0.7-0.7-1.4-1.3-2.1-1.8C66.6,40.3,63.8,39.5,58.4,40.6z"/>
	</g>
	<g>
		<path class="st7" d="M33.6,45.7c0,0-6.3,2.2-12.5,0.8s-6.4-2.4-6.4-2.4l5-3.6l3.4-0.8l6,0.5l1.5,1.1l2,2.1L33.6,45.7z"/>
		<path class="st8" d="M29.6,40.8c2.1,1.2,3.2,3.1,4.1,5c0.1-0.1,0.2-0.1,0.2-0.2c0-0.3,0-0.6-0.1-0.8c-1.3-2.3-2.8-4.6-5.6-5.3
			c-3.8-0.9-7.5-0.5-10.8,1.9c-1.1,0.8-2.1,1.6-3.2,2.5c1.6,1.5,7,3.2,7.6,2.4c-0.4-0.1-0.7-0.1-1-0.2c-0.8-0.3-1.7-0.6-2.5-1
			c-0.4-0.2-0.2-0.5,0.2-0.5c0.1,0,0.2,0,0.5,0c-1-0.9-1-1.1,0-2.1c0.7-0.7,1.4-1.3,2.1-1.8c0.3-0.2,0.7-0.2,1.1-0.3
			C24.7,39.9,27.4,39.9,29.6,40.8z"/>
	</g>
	<path class="st8" d="M63.1,41.2L63,41c-0.2-0.3-0.4-0.7-0.8-1c-1.3,0-2.5,0.3-3.8,0.3c-0.3,0.2-0.9,0.7-1.1,0.8
		c-0.2,0.3-0.8,0.4-0.8,0.8c-0.1,0.3-0.4,0.6-0.4,0.8l0,0c-0.3,2.1,0.8,3.5,2.9,3.8c0.2,0,0.3,0,0.5,0h0.2c2.1-0.1,3.7-1.8,3.7-3.9
		C63.4,42.2,63.3,41.7,63.1,41.2z"/>
	<path class="st8" d="M25.4,41.2L25.3,41c-0.2-0.3-0.4-0.7-0.8-1c-1.3,0-2.5,0.3-3.8,0.3c-0.3,0.2-0.9,0.7-1.1,0.8
		c-0.2,0.3-0.8,0.4-0.8,0.8c-0.1,0.3-0.4,0.6-0.4,0.8l0,0c-0.3,2.1,0.8,3.5,2.9,3.8c0.2,0,0.3,0,0.5,0H22c2.1-0.1,3.7-1.8,3.7-3.9
		C25.6,42.2,25.5,41.7,25.4,41.2z"/>
</g>
</svg>
