<?xml version="1.0" encoding="utf-8"?>
<!-- Generator: Adobe Illustrator 26.0.1, SVG Export Plug-In . SVG Version: 6.00 Build 0)  -->
<svg version="1.1" id="Calque_1" xmlns="http://www.w3.org/2000/svg" xmlns:xlink="http://www.w3.org/1999/xlink" x="0px" y="0px"
	 viewBox="0 0 788 1005" style="enable-background:new 0 0 788 1005;" xml:space="preserve">
<style type="text/css">
	.st0{clip-path:url(#SVGID_00000103232714585092764370000014408447797703440014_);fill:#573623;}
	.st1{clip-path:url(#SVGID_00000145021599724862051160000011443730401313580942_);fill:#573623;}
	.st2{clip-path:url(#SVGID_00000080899582185520951870000016524579458556796839_);fill:#573623;}
	.st3{clip-path:url(#SVGID_00000004504015128236775900000005029297719895651495_);fill:#573623;}
	.st4{clip-path:url(#SVGID_00000081644844485781892530000001210879901849643652_);fill:#FFFFFF;}
	.st5{clip-path:url(#SVGID_00000051383337063723271210000015325387133868515753_);fill:#FFFFFF;}
	.st6{clip-path:url(#SVGID_00000046330178045694074260000015716639851175254705_);fill:#090909;}
	.st7{clip-path:url(#SVGID_00000024697653123940213180000003546382959705168780_);fill:#090909;}
	.st8{fill:#9D5E70;}
	.st9{fill:#99533D;}
	.st10{fill:#F4EBE9;}
</style>
<g>
	<defs>
		<polygon id="SVGID_1_" points="411.9,292 411.9,292 455.3,292 455.3,305.2 411.9,305.2 		"/>
	</defs>
	<clipPath id="SVGID_00000183954114421847931900000004874814689466666667_">
		<use xlink:href="#SVGID_1_"  style="overflow:visible;"/>
	</clipPath>
	<path style="clip-path:url(#SVGID_00000183954114421847931900000004874814689466666667_);fill:#573623;" d="M453.2,305.2
		c-0.3,0-0.6-0.1-0.8-0.2c-4.3-1.8-8.8-3.2-13.3-4.3c-14.6-3.3-15.5-1-20.5,0c-1.5,0.3-5-0.6-5.7-1.4c-0.7-0.9-1.4-4-0.5-4.7
		c0.4-0.3,6.9-4.8,23.5-1c6.9,1.6,17.9,7.6,18.2,7.7c1.1,0.4,1.6,1.6,1.2,2.7C454.9,304.7,454.1,305.3,453.2,305.2L453.2,305.2z"/>
</g>
<g>
	<defs>
		<polygon id="SVGID_00000117660312253626227530000000365573721347453577_" points="369.8,292 369.8,292 326.4,292 326.4,305.2 
			369.8,305.2 		"/>
	</defs>
	<clipPath id="SVGID_00000085208964141346501810000005367762753355342979_">
		<use xlink:href="#SVGID_00000117660312253626227530000000365573721347453577_"  style="overflow:visible;"/>
	</clipPath>
	<path style="clip-path:url(#SVGID_00000085208964141346501810000005367762753355342979_);fill:#573623;" d="M328.5,305.2
		c0.3,0,0.6-0.1,0.8-0.2c4.3-1.8,8.8-3.2,13.4-4.3c14.6-3.3,15.5-1,20.5,0c1.5,0.3,5-0.6,5.7-1.4c0.7-0.9,1.4-4,0.5-4.7
		c-0.4-0.3-6.9-4.8-23.5-1c-6.9,1.6-17.9,7.6-18.2,7.7c-1.1,0.4-1.6,1.6-1.2,2.7C326.9,304.7,327.7,305.3,328.5,305.2L328.5,305.2z"
		/>
</g>
<g>
	<defs>
		<rect id="SVGID_00000080193773877708806210000003269054760634888082_" x="410.6" y="292" width="40.1" height="9.2"/>
	</defs>
	<clipPath id="SVGID_00000121254512270028040310000009468093926152788648_">
		<use xlink:href="#SVGID_00000080193773877708806210000003269054760634888082_"  style="overflow:visible;"/>
	</clipPath>
	<path style="clip-path:url(#SVGID_00000121254512270028040310000009468093926152788648_);fill:#573623;" d="M416.8,300.3
		c-1.4,0.3-5.2-0.6-5.9-1.5c-0.7-0.9,0.6-3.6,1.5-4.3c0.4-0.3,6.9-4.8,23.5-1c8,1.8,15.6,5.7,14.8,7.6
		C450.4,301.9,437.2,296.3,416.8,300.3z"/>
</g>
<g>
	<defs>
		<rect id="SVGID_00000015343278444678920680000013332241824671668866_" x="331" y="292" width="40.1" height="9.2"/>
	</defs>
	<clipPath id="SVGID_00000170986873456052667260000000135011444384526006_">
		<use xlink:href="#SVGID_00000015343278444678920680000013332241824671668866_"  style="overflow:visible;"/>
	</clipPath>
	<path style="clip-path:url(#SVGID_00000170986873456052667260000000135011444384526006_);fill:#573623;" d="M365,300.3
		c1.5,0.3,5.2-0.6,5.9-1.5s-0.6-3.6-1.5-4.3c-0.4-0.3-6.9-4.8-23.5-1c-8,1.8-15.6,5.7-14.8,7.6C331.4,301.9,344.5,296.3,365,300.3z"
		/>
</g>
<g>
	<defs>
		<polygon id="SVGID_00000056391650398344177380000014693918649025024147_" points="414.4,317 414.4,317 442.3,317 442.3,343.8 
			414.4,343.8 		"/>
	</defs>
	<clipPath id="SVGID_00000095311828580333515230000007428367724043830198_">
		<use xlink:href="#SVGID_00000056391650398344177380000014693918649025024147_"  style="overflow:visible;"/>
	</clipPath>
	
		<ellipse style="clip-path:url(#SVGID_00000095311828580333515230000007428367724043830198_);fill:#FFFFFF;" cx="428.4" cy="330.4" rx="14" ry="13.4"/>
</g>
<g>
	<defs>
		<polygon id="SVGID_00000060748936282891689050000013084780627541948547_" points="367.3,317 367.3,317 339.4,317 339.4,343.8 
			367.3,343.8 		"/>
	</defs>
	<clipPath id="SVGID_00000173121781425299634870000004503663422994501780_">
		<use xlink:href="#SVGID_00000060748936282891689050000013084780627541948547_"  style="overflow:visible;"/>
	</clipPath>
	
		<ellipse style="clip-path:url(#SVGID_00000173121781425299634870000004503663422994501780_);fill:#FFFFFF;" cx="353.4" cy="330.4" rx="14" ry="13.4"/>
</g>
<g>
	<defs>
		<polygon id="SVGID_00000099660799639048386480000009724384061316130944_" points="418.9,323 418.9,323 437.6,323 437.6,341.7 
			418.9,341.7 		"/>
	</defs>
	<clipPath id="SVGID_00000048473602597691486620000012814653141882971838_">
		<use xlink:href="#SVGID_00000099660799639048386480000009724384061316130944_"  style="overflow:visible;"/>
	</clipPath>
	
		<circle style="clip-path:url(#SVGID_00000048473602597691486620000012814653141882971838_);fill:#090909;" cx="428.3" cy="332.4" r="9.3"/>
</g>
<g>
	<defs>
		<polygon id="SVGID_00000101786474741689858440000011500136940870783651_" points="362.8,323 362.8,323 344.2,323 344.2,341.7 
			362.8,341.7 		"/>
	</defs>
	<clipPath id="SVGID_00000022525306419193209680000006168197800383545731_">
		<use xlink:href="#SVGID_00000101786474741689858440000011500136940870783651_"  style="overflow:visible;"/>
	</clipPath>
	
		<circle style="clip-path:url(#SVGID_00000022525306419193209680000006168197800383545731_);fill:#090909;" cx="353.5" cy="332.4" r="9.3"/>
</g>
<path class="st8" d="M379.1,379.8c0-1.7,1.3-3.8,11.8-3.8c10.5,0,13,1.8,13,3.4s-2.9,6.6-13.4,6.6
	C379.9,386,379.1,381.4,379.1,379.8z"/>
<path class="st9" d="M379.5,358.3c-1,0.1-1.4,0.7-0.6,1c3,1.2,8.6,3.3,12.3,3.3c3.5,0,8.9-2.1,11.7-3.3c0.8-0.3,0.4-0.9-0.6-1
	c-3.3-0.2-4.7,0.6-11.4,0.6C385.1,359,382.8,358.1,379.5,358.3z"/>
<path class="st10" d="M344.2,381l1.7-22.7c0,0,33.3-13.5,45.1-13.4c11.2,0.1,42.7,13.4,42.7,13.4s4.9,23.5,4,24.3
	c-1,0.8-2.6,12.7-4,13.8c-1.3,1.2-21,12.3-21.7,13c-0.4,0.3-12.1,5.7-23.9,5.5c-11.3-0.1-22.9-5.8-22.9-5.8l-19.3-16.3L344.2,381z"
	/>
</svg>
