<?xml version="1.0" encoding="utf-8"?>
<!-- Generator: Adobe Illustrator 26.0.2, SVG Export Plug-In . SVG Version: 6.00 Build 0)  -->
<svg version="1.1" id="Layer_1" xmlns="http://www.w3.org/2000/svg" xmlns:xlink="http://www.w3.org/1999/xlink" x="0px" y="0px"
	 viewBox="0 0 788 1005.1" style="enable-background:new 0 0 788 1005.1;" xml:space="preserve">
<style type="text/css">
	.st0{fill:#374942;}
	.st1{fill:#D34B1C;}
	.st2{fill:#D3D3D3;}
	.st3{fill:#2E3532;}
</style>
<g id="Calque_1">
	<path class="st0" d="M481.8,486.8c-23.3,2.5-44.5,10-69.8,18.3c0,0-11.5,0.5-10.8-0.1l-70.8-16.6l5.9-58.4
		c1.1-10.7,10.1-18.8,20.8-18.8H457c11,0,20.1,8.5,20.8,19.4L481.8,486.8z"/>
</g>
<rect x="334.2" y="851" class="st1" width="22.1" height="63.4"/>
<path class="st2" d="M345.3,897.3l-11.1,2.6l-7,20.7v6.6l-8.1,14.1c0,0,5.5,4.1,7.9,3.3s49.2-1,49.2-1v-4.8l-8.7-14.1l-7-22
	l-6.4-5.3H345.3z"/>
<rect x="455.7" y="854.5" class="st1" width="22.1" height="63.4"/>
<path class="st2" d="M466.7,900.7l11.1,2.6l7,20.7v6.6l8.2,14.1c0,0-5,3.4-7.4,2.5s-49.7-0.3-49.7-0.3v-4.8l8.7-14.2l7-22l6.4-5.3
	H466.7z"/>
<path class="st3" d="M330.7,490c0,2.6,0.7,169.1,0,171.7c-0.6,2.2-9.3,104.4-12.3,139.5c-0.6,7.7,0.2,15.4,2.6,22.7l14,43.2h21.3
	c0,0,11.2-26.1,17-39.6c2.2-5.1,3.4-10.6,3.6-16.2c0.8-28.7,3.5-121.4,5.3-129.5c2.9-13,19.5-177.7,19.5-177.7v-71.7l-41.2-0.3
	c-13.7-0.1-25.2,11.3-26.7,26.3L330.7,490z"/>
<path class="st3" d="M481.8,486.8c0,2.7-0.7,170.6,0,173.3c0.6,2.2,15.2,96.7,20.5,131.1c1.2,8.1,0.2,16.4-2.9,24l-21.8,52.2
	l-21.9-2.5l-17.5-50.7c-2.3-6.6-3.3-13.6-3.1-20.6c0.8-27.7,3.1-100.5,3.7-102.2c0.7-2-28-190.2-28-190.2v-68.4l41.6-0.3
	c13.7-0.1,25.3,11.3,26.8,26.3L481.8,486.8z"/>
<path class="st1" d="M338.7,414.1v8.7c0,1.6,1.2,2.9,2.7,2.9h131c1.5,0,2.7-1.3,2.7-2.9v-8.7c0-1.6-1.2-2.9-2.7-2.9h-131
	C339.9,411.2,338.7,412.5,338.7,414.1z"/>
<path class="st1" d="M341.6,417.3l-0.7,1c-2.6,4.1-4.4,8.6-5.1,13.4l-31.2,200.1c-0.5,3.6,1.9,6.9,5.5,7.4
	c18.8,2.8,73.6,10.7,100.6,10.7c26.5,0,69.8-6.4,85.8-9c3.5-0.6,5.9-3.8,5.4-7.2L478.8,430c-0.4-3.3-1.6-6.5-3.6-9.3l-1.7-2.3
	L341.6,417.3z"/>
<path class="st1" d="M325.5,937.8l-3-2.5l-3.5,6.1l3.5,2.6c1.2,0.9,2.8,1.4,4.3,1.4l49.3-1.8v-4.8l-45.4,1
	C328.9,939.7,327,939,325.5,937.8z"/>
<path class="st1" d="M435.9,942.2v4.8l48.5,2.2c1.5,0.1,3-0.4,4.3-1.3l4.3-3.1l-2.3-4l-3.4,2.9c-1,0.9-2.3,1.3-3.6,1.2L435.9,942.2z
	"/>
</svg>
