<?xml version="1.0" encoding="utf-8"?>
<!-- Generator: Adobe Illustrator 26.0.3, SVG Export Plug-In . SVG Version: 6.00 Build 0)  -->
<svg version="1.1" id="Layer_1" xmlns="http://www.w3.org/2000/svg" xmlns:xlink="http://www.w3.org/1999/xlink" x="0px" y="0px"
	 viewBox="0 0 288 561.6" style="enable-background:new 0 0 288 561.6;" xml:space="preserve">
<style type="text/css">
	.st0{fill:#5A5A5A;}
	.st1{fill:#90573A;}
	.st2{fill:#161615;}
	.st3{fill:#232323;}
</style>
<g id="Calque_1">
	<path class="st0" d="M164,85.3c-23.3,2.5-46.2,14.7-71.5,23c0,0-11.5,0.5-10.8-0.1L13,62.7l3.9-29.5C18,22.5,27,14.4,37.6,14.4
		h99.9c11,0,20.1,8.5,20.8,19.4L164,85.3z"/>
</g>
<polygon class="st1" points="70.8,516.8 51.4,515.1 43.9,455.3 68.3,447.4 "/>
<path class="st2" d="M57.3,499.3l-6.3-1.8c-1,0.4-2.5,5.6-2.8,6.8l-9.6,27.4c-1.1,3.2-0.4,6.7,1.9,9.2c4.7,5.3,13.2,13.4,19.6,12.8
	c1.7-0.2,22.2-6.8,22.9-15.6l0,0c0-0.7-4.6-14.5-4.6-14.5c-0.2-0.2-3-15-8.3-27.9l-3.6-2.8c-0.6-0.5-1.9,5.7-2.7,5.7L58,499
	C57.8,499.1,57.5,499.2,57.3,499.3z"/>
<path class="st0" d="M12.2,96.4C12.5,99,26,264.9,25.5,267.6c-0.3,1.5-1.3,21.3-2.1,39.2c-0.9,18.9,0.3,37.9,3.5,56.6l18.7,108.7
	l23.4-4.5c0,0,5.8-121.7,5.6-123.7s-2.9-46.8-3.8-48.7s13.5-190.1,13.5-190.1l-5.5-71.5l-41.2,2.9c-13.6,1-24.3,13.2-24.6,28.3
	L12.2,96.4z"/>
<path class="st1" d="M69.8,488c0.5,7.1,9.4,34.2-7.5,38.2c-6.9,1.7-14.9-2.3-16-9.3c-1.2-7.3,3-17.2,5-26.1
	C52.8,483.8,69.2,480.9,69.8,488z"/>
<polygon class="st1" points="192.5,516.2 216.3,511.5 209.5,450.2 184.6,453.3 "/>
<path class="st2" d="M210.6,514.5l3.2-6.6l42.4,26.8c0,0,19.5,11.3,16.6,19.8c-1.2,3.4-23.4,6.3-30.8,5.4
	c-13.1-1.6-18.8-16-42.4-19.2c-4.1-0.6-10-7.3-9.5-13.4l1.1-17l7.1,1.2L210.6,514.5z"/>
<path class="st0" d="M162,73.1c1.8,8.1,3.2,16.3,4.2,24.5c4.8,39.1,19.2,157.4,20.1,159.6c0.6,1.4,5.7,21.5,10.2,39.2
	c4.5,18,7.5,36.4,8.8,54.9l8.5,122l-27.8,3.5c0,0-32.1-132.2-32.4-134.2s-6.6-46.9-6.1-48.9S96,108.4,96,108.4l-8.5-67.9l41.2-5.5
	c13.6-1.8,26.5,8,29.8,22.8L162,73.1z"/>
<path class="st1" d="M212.1,496.2l-21,14c8.3,3.9,32.5,31.8,54.3,28.6c16-2.3,1.2-10.7,0.8-10.4s-21.7-12.2-27.1-18.4
	C216.5,507.1,212.1,496.2,212.1,496.2z"/>
<polygon class="st2" points="184,240.2 134.6,245.5 130,228.8 179.6,206.7 "/>
<circle class="st3" cx="59.3" cy="529.1" r="8.7"/>
<circle class="st3" cx="251.8" cy="534.1" r="8.1"/>
</svg>
