<?xml version="1.0" encoding="utf-8"?>
<!-- Generator: Adobe Illustrator 26.0.3, SVG Export Plug-In . SVG Version: 6.00 Build 0)  -->
<svg version="1.1" id="Calque_1" xmlns="http://www.w3.org/2000/svg" xmlns:xlink="http://www.w3.org/1999/xlink" x="0px" y="0px"
	 viewBox="0 0 288 561.6" style="enable-background:new 0 0 288 561.6;" xml:space="preserve">
<style type="text/css">
	.st0{fill:#90573A;}
	.st1{fill:#91B7C6;}
	.st2{fill:#0F2033;}
</style>
<rect x="68.8" y="463.4" class="st0" width="22.1" height="63.4"/>
<path class="st1" d="M79.5,509.8l-8.6,2c-1.3,0.3-2.3,1.2-2.7,2.5l-6.1,18.1c-0.1,0.4-0.2,0.8-0.2,1.2v5c0,0.7-0.2,1.3-0.5,1.9
	L55.3,551c-1,1.7-0.6,3.8,1,4.9c1.5,1.1,3.3,2.2,4.5,1.8c1.9-0.7,35-1.4,46.3-1.7c2.1,0,3.7-1.7,3.7-3.8l0,0c0-0.7-0.2-1.4-0.6-2
	l-7.9-12.8c-0.2-0.3-0.3-0.6-0.4-0.9L95.4,516c-0.2-0.7-0.6-1.3-1.2-1.8l-4.5-3.7c-0.7-0.6-1.6-0.9-2.4-0.9h-6.9
	C80,509.7,79.7,509.7,79.5,509.8z"/>
<rect x="190.3" y="466.9" class="st0" width="22.1" height="63.4"/>
<path class="st1" d="M201.8,513.2l8.6,2c1.3,0.3,2.3,1.2,2.7,2.5l6.1,18.1c0.1,0.4,0.2,0.8,0.2,1.2v4.9c0,0.7,0.2,1.3,0.5,1.9
	l6.1,10.5c1,1.7,0.6,3.8-1,4.9c-1.5,1.1-3.3,2.2-4.5,1.8c-1.9-0.7-35.1-1.4-46.3-1.7c-2.1,0-3.7-1.7-3.7-3.8l0,0
	c0-0.7,0.2-1.4,0.6-2l7.9-12.8c0.2-0.3,0.3-0.6,0.4-0.9l6.5-20.5c0.2-0.7,0.6-1.3,1.2-1.8l4.5-3.7c0.7-0.6,1.5-0.9,2.4-0.9h6.9
	C201.2,513.1,201.5,513.2,201.8,513.2z"/>
<path class="st2" d="M64.8,103.2c0,2.6,0.7,169.1,0,171.7s-8.6,64.7-8.6,67.4s12.9,138,12.9,138L91,509.7c0,0,16.9-152.9,16.9-154.9
	s0.7-46.9,0-48.9s28-188.5,28-188.5V45.7l-41.3-0.3c-13.7-0.1-25.2,11.3-26.7,26.3L64.8,103.2z"/>
<path class="st2" d="M216.4,99.2c0,2.7-0.7,170.6,0,173.3s8.6,65.3,8.6,68s-12.9,139.3-12.9,139.3l-21.9,29.9
	c0,0-16.9-154.6-16.9-156.6s-0.7-47.3,0-49.3s-28-190.2-28-190.2V45.2l41.6-0.3c13.7-0.1,25.3,11.3,26.8,26.3L216.4,99.2z"/>
<path class="st2" d="M216.4,99.2c-23.3,2.5-44.5,10-69.8,18.3c0,0-11.5,0.5-10.8-0.1L65,100.8l5.9-58.4C72,31.7,81,23.6,91.7,23.6
	h99.9c11,0,20.1,8.5,20.8,19.4L216.4,99.2z"/>
</svg>
