<?xml version="1.0" encoding="utf-8"?>
<!-- Generator: Adobe Illustrator 26.0.3, SVG Export Plug-In . SVG Version: 6.00 Build 0)  -->
<svg version="1.1" id="Layer_1" xmlns="http://www.w3.org/2000/svg" xmlns:xlink="http://www.w3.org/1999/xlink" x="0px" y="0px"
	 viewBox="0 0 288 561.6" style="enable-background:new 0 0 288 561.6;" xml:space="preserve">
<style type="text/css">
	.st0{fill:#90573A;}
	.st1{fill:#9CCBF2;}
	.st2{fill:#375D63;}
	.st3{fill:#4D6FAA;}
</style>
<polygon class="st0" points="81.3,507.5 61.9,505.9 54.4,446 78.8,438.1 "/>
<path class="st1" d="M60.4,488.6c-1.1,0.4-2.8,6.1-3.2,7.4l-10.4,28.5c-1.6,4.3-0.5,9.1,2.7,12.5c5.5,5.7,14.3,13.4,21.2,12.8
	c1.9-0.2,22.4-9.2,22.4-16c0-6.8-1.6-16.7-1.6-16.7c-0.2-0.2-4.7-13.4-10.7-27.4L60.4,488.6z"/>
<path class="st2" d="M21.4,82.3c0.2,2.6,15,173.3,14.5,176s-3.6,65.2-3.4,67.8S56,462.9,56,462.9l23.4-4.5c0,0,5.8-121.7,5.6-123.7
	s-2.9-46.8-3.8-48.7S94.8,95.8,94.8,95.8l-5.5-71.5L48,27.2c-13.6,1-15.9,14.9-16.2,30L21.4,82.3z"/>
<polygon class="st0" points="202.3,507 226.8,502.2 220,440.9 195.1,444 "/>
<path class="st1" d="M221.1,506.4l3.2-7.8l52.2,33.2c0,0,6.3,11.4,3.4,21.4c-1.2,4-20,7.6-27.4,6.6c-13.1-1.9-18.8-18.8-42.4-22.6
	c-4.1-0.7-10-8.6-9.5-15.7l1.1-20l7.1,1.4L221.1,506.4z"/>
<path class="st2" d="M175.2,75.9c0.3,2.6,20.6,169.4,21.6,171.9s16.7,63.7,17,66.4s10.4,149.7,10.4,149.7l-27.8,3.5
	c0,0-32.1-132.2-32.4-134.2s-6.6-46.9-6.1-48.9S106.5,99,106.5,99L98,31.1l41.2-5.5c13.6-1.8,26.5,8,29.8,22.8L175.2,75.9z"/>
<path class="st1" d="M225.8,494.1l-24.2,6.8c8.3,3.9,32.5,31.8,54.3,28.6c16-2.3,1.2-10.7,0.8-10.4c-0.4,0.3-21.7-12.2-27.1-18.4
	C227,497.9,225.8,494.1,225.8,494.1z"/>
<path class="st3" d="M232.5,402.9c-0.5-17-3.1-89-8.3-100S210,255.2,211,243.6c1-11.7-12.8-74.7-15.8-83.7c-3.1-9-25.9-130-25.9-130
	l-0.4-5.4c-0.7-10.9-9.8-19.4-20.8-19.4H48.3c-10.7,0-19.7,8.1-20.8,18.8l-2.2,22l0,0c0,0-20.1,152-14.1,174s-5,71.6,0,82.7
	c4.8,10.6,3.4,75.2,10.4,89.2c7.1,14,11.6,24,10.6,41s11.8,26,15.4,34.5c2.6,6.2,5.1,13.7,6.3,17.3c0.4,1.3,1.6,2.1,3,2.1l25.2-0.3
	c1.5,0,2.7-1.2,2.7-2.7c0-6.4,0.5-22.2,4.4-26.9c5-6,6-74,4.5-88s1.7-62,3.6-76s-0.3-59,0.8-80s-2.8-51.1,0-60c3-9.4,0.1-18,5.1-24
	s11,14,15,33s6,33,14,56s8,79,13,96s17.1,50,16.1,68c-1.1,18,2,39.5,8.9,53.5s9,15.3,16,27.4c5.2,8.9,7.7,16,8.6,19.2
	c0.3,1,1.3,1.5,2.3,1.2l28.6-8.2c0.8-0.2,1.3-0.9,1.3-1.8v-20.2C226.8,452.9,233,419.9,232.5,402.9z"/>
<path class="st3" d="M280.6,548c0,0-22.7,5.9-26.6,4.5c-3.9-1.4-31.2-22.4-38.5-22.7c-7.3-0.3-14.9-6.8-14.9-6.8s2.1,13.2,10.7,14.4
	c8.6,1.2,31.8,20.8,39.5,22c7.7,1.2,16.9-0.8,16.9-0.8s10.8-2.1,12-4.9C280.8,550.9,280.6,548,280.6,548z"/>
<path class="st3" d="M46.3,526.2c0,0,10.1,13.9,22.6,13.9s23.9-11.8,23.9-11.8s1.2,4.8,0.2,7.3s-8.8,14.7-23.5,14.8
	C54.9,550.7,42.2,533.8,46.3,526.2z"/>
</svg>
