<?xml version="1.0" encoding="utf-8"?>
<!-- Generator: Adobe Illustrator 26.0.3, SVG Export Plug-In . SVG Version: 6.00 Build 0)  -->
<svg version="1.1" id="Calque_1" xmlns="http://www.w3.org/2000/svg" xmlns:xlink="http://www.w3.org/1999/xlink" x="0px" y="0px"
	 viewBox="0 0 288 561.6" style="enable-background:new 0 0 288 561.6;" xml:space="preserve">
<style type="text/css">
	.st0{fill:#90573A;}
	.st1{fill:#47B2C4;}
	.st2{fill:#ED5875;}
	.st3{fill:none;stroke:#ED5875;stroke-width:3;stroke-linecap:round;stroke-miterlimit:10;}
</style>
<g>
	<rect x="77.1" y="462.8" class="st0" width="22.1" height="63.4"/>
	<path class="st1" d="M87.7,509.2l-8.6,2.1c-1.3,0.3-2.3,1.2-2.7,2.5l-6.1,18.1c-0.1,0.4-0.2,0.8-0.2,1.2v5c0,0.7-0.2,1.3-0.5,1.9
		l-6.1,10.5c-1,1.7-0.6,3.8,1,4.9c1.5,1.1,3.3,2.2,4.5,1.8c1.9-0.7,35-1.5,46.3-1.7c2.1,0,3.7-1.7,3.7-3.8l0,0c0-0.7-0.2-1.4-0.6-2
		l-7.9-12.8c-0.2-0.3-0.3-0.6-0.4-0.9l-6.5-20.5c-0.2-0.7-0.6-1.3-1.2-1.8l-4.5-3.7c-0.7-0.6-1.6-0.9-2.5-0.9h-6.9
		C88.3,509.1,88,509.1,87.7,509.2z"/>
	<rect x="198.5" y="466.3" class="st0" width="22.1" height="63.4"/>
	<path class="st1" d="M210,512.6l8.6,2c1.3,0.3,2.3,1.3,2.7,2.5l6.1,18.1c0.1,0.4,0.2,0.8,0.2,1.2v5c0,0.7,0.2,1.3,0.5,1.9l6.1,10.5
		c1,1.7,0.6,3.8-1,4.9c-1.5,1.1-3.3,2.2-4.5,1.8c-1.9-0.7-35.1-1.5-46.4-1.7c-2.1,0-3.7-1.7-3.7-3.8l0,0c0-0.7,0.2-1.4,0.6-2
		l7.9-12.8c0.2-0.3,0.3-0.6,0.4-0.9l6.5-20.5c0.2-0.7,0.6-1.3,1.2-1.8l4.5-3.7c0.7-0.6,1.6-0.9,2.4-0.9h6.9
		C209.5,512.5,209.8,512.5,210,512.6z"/>
	<path class="st0" d="M73.1,102.5c0,2.6,0.7,169.1,0,171.7c-0.4,1.5-3.1,23.1-5.4,41.5c-2.1,17.1-2.4,34.4-0.8,51.6l10.5,112.3
		l21.9,12.8c0,0,16.9-136.3,16.9-138.3s0.7-46.9,0-48.9s28-188.5,28-188.5V44.9L103,44.6c-13.7-0.1-25.2,11.3-26.7,26.3L73.1,102.5z
		"/>
	<path class="st0" d="M224.7,98.6c0,2.7-0.7,170.6,0,173.3c0.4,1.4,2.9,21.1,5.1,38.9c2.4,19.2,2.7,38.7,0.9,58l-10.2,110.4
		L198.6,498c0,0-16.9-143.5-16.9-145.5s-0.7-47.3,0-49.3s-28-190.2-28-190.2V44.6l41.6-0.3c13.7-0.1,25.3,11.3,26.8,26.3L224.7,98.6
		z"/>
	<path class="st2" d="M224.7,98.6c-23.3,2.5-44.5,10-69.8,18.3c0,0-11.6,0.5-10.8-0.1l-70.8-16.6l5.9-58.4C80.3,31.1,89.3,23,100,23
		h99.9c11,0,20.1,8.5,20.8,19.4L224.7,98.6z"/>
	<path class="st2" d="M73.3,100.2v124.5c0,0,49.3,5.9,53.8,3.6c4.5-2.2,20.4-96.1,20.4-96.1V117c0,0,19.5,110.6,23.6,112.3
		s53.2-6.1,53.2-6.1l0.3-124.7l-42-28.6h-70.9L73.3,100.2z"/>
	<line class="st3" x1="81.5" y1="537.9" x2="100.4" y2="535.6"/>
	<line class="st3" x1="82.3" y1="531.9" x2="98.2" y2="530"/>
	<line class="st3" x1="83.4" y1="525.1" x2="95.5" y2="523.7"/>
	<line class="st3" x1="216.2" y1="540.2" x2="197.4" y2="538"/>
	<line class="st3" x1="215.4" y1="534.2" x2="199.6" y2="532.3"/>
	<line class="st3" x1="214.3" y1="527.5" x2="202.2" y2="526"/>
</g>
</svg>
