<?xml version="1.0" encoding="utf-8"?>
<!-- Generator: Adobe Illustrator 26.0.3, SVG Export Plug-In . SVG Version: 6.00 Build 0)  -->
<svg version="1.1" id="Calque_1" xmlns="http://www.w3.org/2000/svg" xmlns:xlink="http://www.w3.org/1999/xlink" x="0px" y="0px"
	 viewBox="0 0 788 1005.1" style="enable-background:new 0 0 788 1005.1;" xml:space="preserve">
<style type="text/css">
	.st0{fill:#B14A5D;}
	.st1{fill:#90573A;}
	.st2{fill:#DD959D;}
	.st3{fill:none;stroke:#B14A5D;stroke-width:2;stroke-linecap:round;stroke-miterlimit:10;}
</style>
<path class="st0" d="M481.8,486.8c-23.3,2.5-44.5,10-69.8,18.3c0,0-11.5,0.5-10.8-0.1l-70.8-16.6l5.9-58.4
	c1.1-10.7,10.1-18.8,20.8-18.8H457c11,0,20.1,8.5,20.8,19.4L481.8,486.8z"/>
<rect x="334.2" y="851" class="st1" width="22.1" height="63.4"/>
<path class="st2" d="M344.9,897.4l-8.6,2c-1.3,0.3-2.3,1.2-2.7,2.5l-6.1,18.1c-0.1,0.4-0.2,0.8-0.2,1.2v5c0,0.7-0.2,1.3-0.5,1.9
	l-6.1,10.5c-1,1.7-0.6,3.8,1,4.9c1.5,1.1,3.3,2.2,4.5,1.8c1.9-0.7,35-1.4,46.3-1.7c2.1,0,3.7-1.7,3.7-3.8l0,0c0-0.7-0.2-1.4-0.6-2
	l-7.9-12.8c-0.2-0.3-0.3-0.6-0.4-0.9l-6.5-20.5c-0.2-0.7-0.6-1.3-1.2-1.8l-4.5-3.7c-0.7-0.6-1.6-0.9-2.4-0.9h-6.9
	C345.4,897.3,345.1,897.3,344.9,897.4z"/>
<rect x="455.7" y="854.5" class="st1" width="22.1" height="63.4"/>
<path class="st2" d="M467.2,900.8l8.6,2c1.3,0.3,2.3,1.2,2.7,2.5l6.1,18.1c0.1,0.4,0.2,0.8,0.2,1.2v4.9c0,0.7,0.2,1.3,0.5,1.9
	l6.1,10.5c1,1.7,0.6,3.8-1,4.9c-1.5,1.1-3.3,2.2-4.5,1.8c-1.9-0.7-35.1-1.4-46.3-1.7c-2.1,0-3.7-1.7-3.7-3.8l0,0
	c0-0.7,0.2-1.4,0.6-2l7.9-12.8c0.2-0.3,0.3-0.6,0.4-0.9l6.5-20.5c0.2-0.7,0.6-1.3,1.2-1.8l4.5-3.7c0.7-0.6,1.5-0.9,2.4-0.9h6.9
	C466.6,900.7,466.9,900.8,467.2,900.8z"/>
<path class="st0" d="M330.2,490.8c0,2.6,0.7,169.1,0,171.7c-0.5,1.9-4.7,34.4-7.1,53.6c-1.1,8.8-1.2,17.6-0.4,26.4l11.7,125.4
	l21.9,26.5c0,0,16.9-150,16.9-152s0.7-46.9,0-48.9s28-188.5,28-188.5v-71.7L360,433c-13.7-0.1-25.2,11.3-26.7,26.3L330.2,490.8z"/>
<path class="st0" d="M481.8,486.8c0,2.7-0.7,170.6,0,173.3c0.4,1.6,3.5,25.3,5.9,44.3c1.9,15.2,2.1,30.5,0.7,45.7l-10.9,117.3
	l-21.2,27c0,0-17.5-151.6-17.5-153.6s-0.7-47.3,0-49.3s-28-190.2-28-190.2v-68.4l41.6-0.3c13.7-0.1,25.3,11.3,26.8,26.3L481.8,486.8
	z"/>
<g>
	<path class="st2" d="M332,841.1c10.1,8,19.2,17,27.4,27C349.3,860.1,340.1,851.1,332,841.1L332,841.1z"/>
</g>
<g>
	<path class="st2" d="M332,829.2c10.1,8,19.2,17,27.4,27C349.3,848.2,340.1,839.1,332,829.2L332,829.2z"/>
</g>
<g>
	<path class="st2" d="M479.3,843.1c-7.4,9.3-15.9,17.7-25.3,25C461.4,858.8,469.9,850.4,479.3,843.1L479.3,843.1z"/>
</g>
<g>
	<path class="st2" d="M481.3,829.2c-8.1,9.9-17.3,19-27.4,27C462.1,846.2,471.3,837.2,481.3,829.2L481.3,829.2z"/>
</g>
<line class="st3" x1="339.7" y1="923.1" x2="356.4" y2="921.3"/>
<line class="st3" x1="339.7" y1="916.2" x2="356.4" y2="914.4"/>
<line class="st3" x1="473.4" y1="923.1" x2="456.7" y2="921.3"/>
<line class="st3" x1="473.4" y1="916.2" x2="456.7" y2="914.4"/>
</svg>
