<?xml version="1.0" encoding="utf-8"?>
<!-- Generator: Adobe Illustrator 26.0.3, SVG Export Plug-In . SVG Version: 6.00 Build 0)  -->
<svg version="1.1" id="Calque_1" xmlns="http://www.w3.org/2000/svg" xmlns:xlink="http://www.w3.org/1999/xlink" x="0px" y="0px"
	 viewBox="0 0 288 561.6" style="enable-background:new 0 0 288 561.6;" xml:space="preserve">
<style type="text/css">
	.st0{fill:#7F4C36;}
	.st1{fill:#90573A;}
	.st2{fill:#95C1BE;}
</style>
<path class="st0" d="M192.8,276.7c0.1,1.1-0.1,12.6-0.4,25.9c-0.7,27.7-4.4,55.2-11.2,82l-23.9,94.6l-23.3-6c0,0,2.7-121.9,3-123.8
	s6.4-46.5,7.4-48.3s0.1-190.6,0.1-190.6l11-63.7l41.8,5.8c13.9,1.9,23.9,14.9,23.1,30C220.5,82.5,192.5,274,192.8,276.7z"/>
<path class="st1" d="M70,110.5c0.5,2.6,24.3,164.1,24.1,166.8c-0.1,1.6,0.9,24.6,1.8,43.4c0.7,16.2,3.4,32.3,7.8,47.9l31.9,110.6
	l23.7-6.5c0,0-5.6-121.7-5.9-123.7s-7.5-46.4-8.6-48.2s3-190.3,3-190.3s8.2-33.6,8.3-37.3c0.1-14.9,1.8-47,1.8-47l-63.7-4.7
	C79.7,23.7,66.8,63.9,67.9,79L70,110.5z"/>
<g id="Calque_1_00000071519901466194454640000002149211624443550375_">
	<path class="st2" d="M220.3,76.9c-23.3,2.5-46.4,27.8-71.7,36.1c0,0-11.5,0.5-10.8-0.1c-23.6-5.5-46-36.4-69.6-41.9
		c0,0,2.5-12.7,4.3-20.7c2.4-10.5,11.3-28.8,22-28.8l99.1,4.8c11,0,20.1,8.5,20.8,19.4L220.3,76.9z"/>
</g>
<polygon class="st1" points="165.9,521.5 145.2,521.5 131.6,462.6 156.7,452.6 "/>
<path class="st2" d="M148.9,505l-0.9-0.2c-3.3-0.6-6.5,1.6-7.1,5c-0.1,0.3-0.1,0.6-0.1,0.9c0,0.2-0.1,0.5-0.1,0.7l-7.9,29.4
	c-0.6,2.2,0.1,4.6,1.8,6.1c5,4.6,16,13.6,23.4,12.3c1.8-0.3,22.8-9,22.8-17.6l0,0c-0.1-0.7-6.2-14-6.2-14
	c-0.2-0.2-4.3-13.5-10.6-25.5c-0.5-1-1.3-1.8-2.3-2.4l-2.6-1.5c-0.7-0.4-1.5,5.8-2.3,5.9l-6.1,1c-0.1,0-0.1,0-0.2,0
	C149.9,505.2,149.4,505.1,148.9,505z"/>
<path class="st1" d="M162.1,492.9c1.3,7,13.2,33.2-4.3,38.7c-7.2,2.3-16-1-17.9-7.8c-2-7.1,1.5-17.4,2.8-26.5
	C143.7,490.2,160.8,485.8,162.1,492.9z"/>
</svg>
