<?xml version="1.0" encoding="utf-8"?>
<!-- Generator: Adobe Illustrator 26.0.3, SVG Export Plug-In . SVG Version: 6.00 Build 0)  -->
<svg version="1.1" id="Calque_1" xmlns="http://www.w3.org/2000/svg" xmlns:xlink="http://www.w3.org/1999/xlink" x="0px" y="0px"
	 viewBox="0 0 288 561.6" style="enable-background:new 0 0 288 561.6;" xml:space="preserve">
<style type="text/css">
	.st0{fill:#EAD3D3;}
	.st1{fill:#F7A386;}
	.st2{fill:#BC3737;}
	.st3{fill:#90573A;}
</style>
<g id="Calque_1_00000071519901466194454640000002149211624443550375_">
	<path class="st0" d="M216.5,76.4c-23.3,2.5-46.4,27.8-71.7,36.1c0,0-11.5,0.5-10.8-0.1c-23.6-5.5-46-36.4-69.6-41.9
		c0,0,9.1-22.6,10.9-30.6c2.4-10.5,4-14.1,14.7-14.1h99.9c11,0,20.1,8.5,20.8,19.4L216.5,76.4z"/>
</g>
<g id="Calque_3">
	<polygon class="st1" points="140.4,507.1 144.4,521.2 156.4,462.1 132,452.5 	"/>
	<path class="st2" d="M189,276.2c0.2,1.4-0.3,19.6-0.7,36.8c-0.5,20.6-3.3,41-8.3,60.9l-26.5,104.8l-23.6-6.1c0,0,3-121.8,3.3-123.7
		s6.4-46.5,7.4-48.3s0.1-190.6,0.1-190.6L152,25.5h39.7c26.2,4.7,25.7,41.5,24.9,56.6C216.7,82,188.7,273.5,189,276.2z"/>
	<polygon class="st3" points="162.1,521 141.4,521 127.8,462.1 152.9,452.1 	"/>
	<path class="st2" d="M146.1,504.7l-6.9-1.2c-1.1,0.5-2.2,5.8-2.3,7l-7.6,28.5c-0.8,3.1,0.1,6.3,2.5,8.4
		c5.4,4.8,15.4,12.6,22.3,11.3c1.8-0.3,20.1-4.6,22.8-17.6l0,0c-0.1-0.7-6.2-14-6.2-14c-0.2-0.2-4.7-14.7-11.4-27l-4.1-2.4
		c-0.7-0.4-1.5,5.8-2.3,5.9l-6.1,1C146.6,504.6,146.4,504.6,146.1,504.7z"/>
	<path class="st0" d="M66.2,110c0.5,2.6,24.3,164.1,24.1,166.8c-0.1,1.5,0.9,23.6,1.7,42.1c0.8,17.1,3.5,34,8.2,50.4l30.9,109.4
		l24.3-6.5c0,0-5.6-121.7-5.9-123.7s-7.5-46.4-8.6-48.2s3-190.3,3-190.3s8.2-33.6,8.3-37.3c0.1-14.9,1.8-47,1.8-47L90.3,21
		C75.9,23.2,63,63.4,64.1,78.5L66.2,110z"/>
	<path class="st3" d="M158.3,492.4c1.3,7,13.2,33.2-4.3,38.7c-7.2,2.3-16-1-17.9-7.8c-2-7.1,1.5-17.4,2.8-26.5
		C139.9,489.7,157,485.3,158.3,492.4z"/>
</g>
</svg>
