<svg xmlns="http://www.w3.org/2000/svg" viewBox="0 0 158 103.08"><defs><style>.cls-1{fill:#6b313a;}.cls-2{fill:#dfb0a4;}.cls-3{fill:#1f1a19;}.cls-4{fill:#3b2824;}</style></defs><g id="Calque_7" data-name="Calque 7"><polygon class="cls-1" points="92.97 76.12 85.69 81.87 79.28 83.65 72.87 81.87 65.59 76.12 69.64 74.22 75.06 75.15 79.28 75.24 83.49 75.15 88.91 74.22 92.97 76.12"/><path class="cls-2" d="M106.44,38.53c0,2.55-2.23,4.61-6.71,4.61s-8.07-1.56-8.07-4.1c0-1.13,3.87-3.3,3.87-3.3,2-.4,3.38.58,5.88.41S106.44,38.53,106.44,38.53Z"/><path class="cls-3" d="M103.89,38.53a4.62,4.62,0,0,1-4.37,4.61h-.24a3.11,3.11,0,0,1-.61,0,4.6,4.6,0,0,1-4-5.16,4.53,4.53,0,0,1,.21-.9,4.75,4.75,0,0,1,.52-1,4.2,4.2,0,0,1,.56-.7c1.46,0,4.93-.08,6.52-.06a5.17,5.17,0,0,1,.9,1.24l.1.24A4.49,4.49,0,0,1,103.89,38.53Z"/><path class="cls-3" d="M108.26,40.44h-1.57l-1.6,1h0l1.25-2.08.1-.05,0-.06-2.77-2.48h-.11c-1-.08-8-.65-8.35,0l-.25.31c-.54.64-1.79,1.91-2.86,3s-1.82,1.76-1.82,1.76l.18-1.93,1.21-1.31s2.31-3,3.45-3.5c1.92-.76,8.22.24,8.26.26.24.11,4.12,3.24,4.52,4.4C108,40,108.11,40.21,108.26,40.44Z"/><path class="cls-4" d="M84.72,27.94c.06.23.35,2.9.35,2.9l3,.72,13.8-2.84s7.31,1.72,7.31,1.64S113,32.07,113,32.07l-.27-2.62s-9.92-4.76-10.15-4.72S94,25.4,94,25.4Z"/><path class="cls-4" d="M74.35,27.94c-.06.23-.35,2.9-.35,2.9l-3,.71-13.8-2.83s-7.31,1.72-7.31,1.64S46,32.07,46,32.07l.27-2.62s9.91-4.76,10.14-4.72S65,25.4,65,25.4Z"/><path class="cls-2" d="M52.63,38.53c0,2.55,2.22,4.61,6.71,4.61S67.4,41.58,67.4,39c0-1.13-3.87-3.3-3.87-3.3-2-.4-3.37.58-5.88.41S52.63,38.53,52.63,38.53Z"/><path class="cls-3" d="M55.18,38.53a4.62,4.62,0,0,0,4.38,4.61h.24a3,3,0,0,0,.6,0,4.6,4.6,0,0,0,4-5.16,4.53,4.53,0,0,0-.21-.9,4.75,4.75,0,0,0-.52-1,4.2,4.2,0,0,0-.56-.7c-1.46,0-4.93-.08-6.52-.06a5.46,5.46,0,0,0-.9,1.24l-.1.24A4.49,4.49,0,0,0,55.18,38.53Z"/><path class="cls-3" d="M50.81,40.44h1.58l1.59,1h0l-1.24-2.08-.09-.16.05-.06,2.76-2.48h.11c1-.08,8-.65,8.35,0l.25.31c.54.64,1.79,1.91,2.86,3s1.82,1.76,1.82,1.76l-.18-1.93-1.18-1.26s-2.31-3-3.45-3.5c-1.92-.76-8.22.24-8.26.26-.24.11-4.12,3.24-4.52,4.4Q51.05,40.08,50.81,40.44Z"/></g></svg>