<svg id="Calque_1" data-name="Calque 1" xmlns="http://www.w3.org/2000/svg" viewBox="0 0 788 1005.07"><defs><style>.cls-1{fill:#ddb6a8;}.cls-2{fill:#3d332f;}.cls-3{fill:#b53535;}.cls-4{fill:#f77777;}</style></defs><path class="cls-1" d="M418.83,144.09s12.38,7.22,14.92-4.41l-.16-.88-12.25-.36-3.87,4.95Z"/><path class="cls-2" d="M421.42,142c.73,3.9,9.24,6.18,10.34-2.47l-2.21-2.85-4.5.37-3.87,1.82S420.84,139,421.42,142Z"/><circle class="cls-2" cx="426.04" cy="139.64" r="2.8"/><path class="cls-2" d="M416.53,145.16s5.85-7.6,9.92-8.08c3.1-.37,5.31,2.48,5.31,2.48s2.5,3.34,5.79-1.75a14,14,0,0,1-5.39-.73C426.42,134.82,421.23,135.92,416.53,145.16Z"/><path class="cls-2" d="M398,133.49c.41-.49,1.94-1,.64-3.45a9.15,9.15,0,0,0-4.6-3.88c-2.7-1.09-8.9-1-11.65-.07-3.1,1.1-7.66,6.92-7.66,6.92s6.14-3,8.38-3.31a25.59,25.59,0,0,1,8.19,1C393,131.25,398,133.49,398,133.49Z"/><path class="cls-2" d="M415.57,133.4c-.41-.49-1.93-1-.64-3.46a9.17,9.17,0,0,1,4.6-3.87c2.7-1.09,8.91-1,11.65-.07,3.1,1.09,7.67,6.92,7.67,6.92s-6.15-3-8.39-3.31a25.31,25.31,0,0,0-8.19,1C420.62,131.16,415.57,133.4,415.57,133.4Z"/><path class="cls-1" d="M395.37,144.22s-12.38,7.21-14.91-4.42l.16-.87,12.25-.37,3.87,5Z"/><circle class="cls-2" cx="388.2" cy="139.58" r="2.8"/><path class="cls-3" d="M395.23,177.12c.44-.59,6-7.77,8.35-7a5.79,5.79,0,0,1,3.26,2.35l1.87,4.69Z"/><path class="cls-4" d="M406.84,183l1.87-5.86H395.23s4.1,4.25,7.18,5.12A13.5,13.5,0,0,0,406.84,183Z"/><path class="cls-3" d="M418.45,177.12c-.44-.59-6-7.77-8.35-7a5.79,5.79,0,0,0-3.26,2.35l.32,4.69Z"/><path class="cls-4" d="M406.84,183l.32-5.86h11.29s-4.1,4.25-7.18,5.12A13.5,13.5,0,0,1,406.84,183Z"/><path class="cls-2" d="M392.63,141.69c-.73,3.9-9.24,6.18-10.35-2.47l2.21-2.85,4.51.36,3.87,1.83S393.21,138.61,392.63,141.69Z"/><path class="cls-2" d="M398.13,145.16s-5.85-7.6-9.91-8.08c-3.11-.37-5.32,2.48-5.32,2.48s-2.49,3.34-5.78-1.75a14,14,0,0,0,5.38-.73C388.24,134.82,393.43,135.92,398.13,145.16Z"/></svg>