<?xml version="1.0" encoding="utf-8"?>
<!-- Generator: Adobe Illustrator 26.0.1, SVG Export Plug-In . SVG Version: 6.00 Build 0)  -->
<svg version="1.1" id="Calque_1" xmlns="http://www.w3.org/2000/svg" xmlns:xlink="http://www.w3.org/1999/xlink" x="0px" y="0px"
	 viewBox="0 0 788 1005" style="enable-background:new 0 0 788 1005;" xml:space="preserve">
<style type="text/css">
	.st0{fill:#6B313A;}
	.st1{fill:#1F1A19;}
	.st2{fill:#3B2824;}
</style>
<polygon class="st0" points="410.1,154.6 402.3,160.5 395.3,161.6 388.4,160.5 380.6,154.6 385,155 390.8,155.5 395.3,156.5 
	399.9,155.5 405.7,155 "/>
<path class="st1" d="M424.9,120l-3.7-1.2c0,0-9.1,0.1-9.5,0.5c0,0-2.1,0.7-3.4,1.3c-1.3,0.7-2.8,0.3-2.8,0.3l0.2-1.2
	c0,0,3.6-3,5-3.3c2.3-0.5,10.1,0.6,10.2,0.6c0.3,0.1,4.8,1.9,5.3,2.6C426.4,119.7,424.9,120,424.9,120z"/>
<path class="st2" d="M399.7,105.1c0.1,0.2,0.4,2.9,0.4,2.9l3,0.7l13.8-2.8c0,0,7.3,1.7,7.3,1.6s3.9,1.7,3.9,1.7l-0.3-2.6
	c0,0-9.9-4.8-10.1-4.7s-8.6,0.7-8.6,0.7L399.7,105.1z"/>
<path class="st2" d="M389.4,105.1c-0.1,0.2-0.4,2.9-0.4,2.9l-3,0.7l-13.8-2.8c0,0-7.3,1.7-7.3,1.6s-3.9,1.7-3.9,1.7l0.3-2.6
	c0,0,9.9-4.8,10.1-4.7s8.6,0.7,8.6,0.7L389.4,105.1z"/>
<path class="st1" d="M365.8,120l3.7-1.2c0,0,9.1,0.1,9.5,0.5c0,0,2.1,0.7,3.4,1.3c1.3,0.7,2.8,0.3,2.8,0.3l-0.2-1.2c0,0-3.6-3-5-3.3
	c-2.3-0.5-10.1,0.6-10.2,0.6c-0.3,0.1-4.8,1.9-5.3,2.6C364.3,119.7,365.8,120,365.8,120z"/>
</svg>
