<svg xmlns="http://www.w3.org/2000/svg" viewBox="0 0 788 1005"><defs><style>.cls-1{fill:#6d323a;}.cls-2{fill:#e2b2a5;}.cls-3{fill:#1f1a19;}.cls-4{fill:#3c2824;}</style></defs><g id="Calque_6" data-name="Calque 6"><polygon class="cls-1" points="408.61 153.7 401.32 159.46 394.9 161.24 388.48 159.46 381.19 153.7 385.25 151.79 390.68 152.73 394.9 152.82 399.12 152.73 404.55 151.79 408.61 153.7"/><path class="cls-2" d="M422.11,116.05c0,2.55-2.22,4.62-6.71,4.62s-8.08-1.56-8.08-4.11c0-1.13,3.88-3.3,3.88-3.3,2-.4,3.38.58,5.89.41S422.11,116.05,422.11,116.05Z"/><path class="cls-3" d="M419.56,116.05a4.63,4.63,0,0,1-4.38,4.62h-.24a4.08,4.08,0,0,1-.61,0,4.62,4.62,0,0,1-4-4.58,4.51,4.51,0,0,1,.25-1.48,4.64,4.64,0,0,1,.51-1,4.25,4.25,0,0,1,.57-.7c1.46,0,4.94-.08,6.53,0a4.5,4.5,0,0,1,.89,1.23,2.56,2.56,0,0,1,.11.24A4.58,4.58,0,0,1,419.56,116.05Z"/><path class="cls-3" d="M423.94,118l-1.58,0-1.6,1h0L422,117l.1-.16-.05-.05-2.77-2.49h-.11c-1-.08-8-.64-8.36,0-.05.07-.13.18-.25.32-.54.63-1.8,1.9-2.87,3l-1.82,1.77.18-1.94,1.21-1.31s2.32-3,3.46-3.5c1.92-.77,8.23.24,8.27.26.24.11,4.13,3.24,4.53,4.4A6.83,6.83,0,0,0,423.94,118Z"/><path class="cls-4" d="M400.36,105.45c.06.23.35,2.9.35,2.9l3,.72,13.82-2.84s7.32,1.72,7.32,1.64,3.87,1.71,3.87,1.71l-.27-2.62s-9.93-4.77-10.16-4.73-8.6.67-8.6.67Z"/><path class="cls-4" d="M390,105.45c-.06.23-.35,2.9-.35,2.9l-3,.72-13.82-2.84s-7.32,1.72-7.32,1.64-3.87,1.71-3.87,1.71l.27-2.62s9.93-4.77,10.16-4.73,8.59.67,8.59.67Z"/><path class="cls-2" d="M368.22,116.05c0,2.55,2.23,4.62,6.72,4.62s8.08-1.56,8.08-4.11c0-1.13-3.88-3.3-3.88-3.3-2-.4-3.38.58-5.89.41S368.22,116.05,368.22,116.05Z"/><path class="cls-3" d="M370.78,116.05a4.63,4.63,0,0,0,4.38,4.62h.24a4.17,4.17,0,0,0,.61,0,4.62,4.62,0,0,0,4-4.58,4.51,4.51,0,0,0-.25-1.48,4.29,4.29,0,0,0-.52-1,4.2,4.2,0,0,0-.56-.7c-1.46,0-4.94-.08-6.53,0a4.75,4.75,0,0,0-.9,1.23l-.1.24A4.42,4.42,0,0,0,370.78,116.05Z"/><path class="cls-3" d="M366.4,118l1.58,0,1.59,1h0l-1.25-2.1-.09-.16,0-.05,2.77-2.49h.11c1-.08,8-.64,8.36,0a2.66,2.66,0,0,0,.25.32c.54.63,1.79,1.9,2.87,3s1.82,1.77,1.82,1.77l-.18-1.94-1.21-1.31s-2.32-3-3.46-3.5c-1.92-.77-8.23.24-8.27.26-.24.11-4.13,3.24-4.54,4.4A5.67,5.67,0,0,1,366.4,118Z"/></g></svg>