<svg xmlns="http://www.w3.org/2000/svg" viewBox="0 0 788 1005.07"><defs><style>.cls-1{fill:#ddb6a8;}.cls-2{fill:#3d332f;}.cls-3{fill:#b53535;}.cls-4{fill:#f77777;}</style></defs><g id="Calque_3" data-name="Calque 3"><path class="cls-1" d="M418.83,144.09s12.38,7.22,14.92-4.41l-.16-.88-12.25-.36-3.87,4.95Z"/><path class="cls-2" d="M437.54,137.82c-1.55,2.39-2.92,2.92-3.94,2.81a2.91,2.91,0,0,1-1.84-1.07s-2.21-2.85-5.32-2.48a8.68,8.68,0,0,0-3.93,2,39.33,39.33,0,0,0-6,6.12c2-4,4.13-6.42,6.33-7.77,2.93-1.79,6-1.6,9.31-.31a11.34,11.34,0,0,0,1.25.4A15,15,0,0,0,437.54,137.82Z"/><path class="cls-2" d="M398,133.49c.41-.36,1.94-.73.64-2.52a9.06,9.06,0,0,0-4.6-2.83,30.44,30.44,0,0,0-11.65,0c-3.1.79-7.66,5-7.66,5s6.14-2.2,8.38-2.41a34.56,34.56,0,0,1,8.19.74C393,131.86,398,133.49,398,133.49Z"/><path class="cls-2" d="M415.57,133.4c-.41-.35-1.93-.72-.64-2.48a9.16,9.16,0,0,1,4.6-2.79,30.84,30.84,0,0,1,11.65,0c3.1.78,7.67,5,7.67,5s-6.15-2.18-8.39-2.38a34.55,34.55,0,0,0-8.19.73C420.62,131.79,415.57,133.4,415.57,133.4Z"/><path class="cls-1" d="M395.37,144.22s-12.38,7.21-14.91-4.42l.16-.87,6.74-2.85,7.87,4.54,1.51,2.9Z"/><path class="cls-3" d="M413.64,177.28c-.18-.71-1.87-6.54-4.22-7.25a2.29,2.29,0,0,0-2.57.55l.39,7.44Z"/><path class="cls-4" d="M407,184.43l-.48-6.24,7.09-.91s-.05,5.91-3.12,6.79S407,184.43,407,184.43Z"/><path class="cls-2" d="M398.13,145.16s-.74-1-1.87-2.22c-2.06-2.28-3.74-3.89-6.36-4.21a12.4,12.4,0,0,0-1.3-.29c-2.94,0-4.4.22-5.7,1.12s-2.5,3.34-5.79-1.74a13.93,13.93,0,0,0,5.39-.74,12.93,12.93,0,0,1,4.86-1c3.27.06,6.35,1.84,9.25,6.4C397.12,143.28,397.63,144.18,398.13,145.16Z"/><path class="cls-2" d="M433.41,137.48a11.34,11.34,0,0,1-1.25-.4c-3.28-1.29-6.38-1.48-9.31.31"/><path class="cls-2" d="M433.74,139.36a5.88,5.88,0,0,1-.14,1.27,5.63,5.63,0,0,1-11.11-1.27,1.72,1.72,0,0,1,0-.32,5.06,5.06,0,0,1,.34-1.65c2.93-1.79,6-1.6,9.31-.31a11.34,11.34,0,0,0,1.25.4A5.35,5.35,0,0,1,433.74,139.36Z"/><path class="cls-2" d="M396.61,142.48a5.45,5.45,0,0,1-.38.46,6.49,6.49,0,0,1-4.81,2.05c-3.43,0-6.22-2.52-6.22-5.63a5.19,5.19,0,0,1,.5-2.22,5.62,5.62,0,0,1,.68-1.06C390,136.14,393.4,137.92,396.61,142.48Z"/><path class="cls-3" d="M400.15,177.45c.17-.72,1.86-6.55,4.22-7.26a2.3,2.3,0,0,1,2.57.55l-.39,7.45Z"/><path class="cls-4" d="M407.7,184.27l-.46-6.25-7.09-.57s0,5.91,3.12,6.79S407.7,184.27,407.7,184.27Z"/><path class="cls-2" d="M411.26,177.56c0,3.08-2.61,5.43-4.52,5.43s-4.37-2.2-4.37-5.29,2.46-5.89,4.37-5.89S411.26,174.47,411.26,177.56Z"/></g></svg>