<?xml version="1.0" encoding="utf-8"?>
<!-- Generator: Adobe Illustrator 26.0.1, SVG Export Plug-In . SVG Version: 6.00 Build 0)  -->
<svg version="1.1" id="Calque_1" xmlns="http://www.w3.org/2000/svg" xmlns:xlink="http://www.w3.org/1999/xlink" x="0px" y="0px"
	 viewBox="0 0 788 1005" style="enable-background:new 0 0 788 1005;" xml:space="preserve">
<style type="text/css">
	.st0{fill:#3B2824;}
	.st1{fill:#FFFFFF;}
	.st2{fill:#1F1A19;}
	.st3{fill:#6B313A;}
</style>
<g id="Calque_7">
	<path class="st0" d="M399.7,105.1c0.1,0.2,0.4,2.9,0.4,2.9l3,0.7l13.8-2.8c0,0,7.3,1.7,7.3,1.6s3.9,1.7,3.9,1.7l-0.3-2.6
		c0,0-9.9-4.8-10.1-4.7s-8.6,0.7-8.6,0.7L399.7,105.1z"/>
	<path class="st0" d="M389.4,105.1c-0.1,0.2-0.4,2.9-0.4,2.9l-3,0.7l-13.8-2.8c0,0-7.3,1.7-7.3,1.6s-3.9,1.7-3.9,1.7l0.3-2.6
		c0,0,9.9-4.8,10.1-4.7s8.6,0.7,8.6,0.7L389.4,105.1z"/>
	<path class="st1" d="M367.6,115.7c0,2.6,2.2,4.6,6.7,4.6s8.1-1.6,8.1-4.1c0-1.1-3.9-3.3-3.9-3.3c-2-0.4-3.4,0.6-5.9,0.4
		S367.6,115.7,367.6,115.7z"/>
	<path class="st2" d="M370.2,115.7c0,2.5,1.9,4.5,4.4,4.6h0.2c0.2,0,0.4,0,0.6,0c2.5-0.3,4.3-2.6,4-5.1l0,0c0-0.3-0.1-0.6-0.2-0.9
		c-0.1-0.4-0.3-0.7-0.5-1c-0.2-0.2-0.3-0.5-0.6-0.7c-1.5,0-4.9-0.1-6.5-0.1c-0.4,0.4-0.7,0.8-0.9,1.2l-0.1,0.2
		C370.3,114.5,370.2,115.1,370.2,115.7z"/>
	<path class="st2" d="M365.8,117.6h1.6l1.6,1l0,0l-1.2-2.1l-0.1-0.2v-0.1l2.8-2.5h0.1c1-0.1,8-0.7,8.4,0l0.2,0.3
		c0.5,0.6,1.8,1.9,2.9,3s1.8,1.8,1.8,1.8l-0.2-1.9l-1.2-1.3c0,0-2.3-3-3.5-3.5c-1.9-0.8-8.2,0.2-8.3,0.3c-0.2,0.1-4.1,3.2-4.5,4.4
		C366.1,117.1,366,117.3,365.8,117.6z"/>
	<polygon class="st3" points="410.1,152.6 402.3,158.5 395.3,159.6 388.4,158.5 380.6,152.6 385,153 390.8,153.5 395.3,154.5 
		399.9,153.5 405.7,153 	"/>
</g>
<path class="st2" d="M424.9,119.6l-3.7-1.2c0,0-9.1,0.1-9.5,0.5c0,0-2.1,0.7-3.4,1.3c-1.3,0.7-2.8,0.3-2.8,0.3l0.2-1.2
	c0,0,3.6-3,5-3.3c2.3-0.5,10.1,0.6,10.2,0.6c0.3,0.1,4.8,1.9,5.3,2.6C426.4,119.4,424.9,119.6,424.9,119.6z"/>
</svg>
