<svg xmlns="http://www.w3.org/2000/svg" viewBox="0 0 788 1005"><defs><style>.cls-1{fill:#6b313a;}.cls-2{fill:#dfb0a4;}.cls-3{fill:#1f1a19;}.cls-4{fill:#3b2824;}</style></defs><g id="Calque_7" data-name="Calque 7"><polygon class="cls-1" points="407.97 153.26 400.69 159.02 394.28 160.79 387.87 159.02 380.59 153.26 384.64 151.36 390.06 152.3 394.28 152.39 398.49 152.3 403.91 151.36 407.97 153.26"/><path class="cls-2" d="M421.44,115.67c0,2.55-2.23,4.61-6.71,4.61s-8.07-1.55-8.07-4.1c0-1.13,3.87-3.29,3.87-3.29,2-.4,3.38.57,5.88.4S421.44,115.67,421.44,115.67Z"/><path class="cls-3" d="M418.89,115.67a4.61,4.61,0,0,1-4.37,4.61h-.24a3.11,3.11,0,0,1-.61,0,4.6,4.6,0,0,1-4-5.16,4.7,4.7,0,0,1,.21-.9,4.75,4.75,0,0,1,.52-1,4.12,4.12,0,0,1,.56-.69c1.46,0,4.93-.08,6.52-.06a4.93,4.93,0,0,1,.9,1.23l.1.24A4.53,4.53,0,0,1,418.89,115.67Z"/><path class="cls-3" d="M423.26,117.58h-1.57l-1.6,1h0l1.25-2.09.1,0-.05-.06-2.77-2.48h-.11c-1-.08-8-.65-8.35,0l-.25.31c-.54.64-1.79,1.91-2.86,3s-1.82,1.77-1.82,1.77l.18-1.94,1.21-1.31s2.31-3,3.45-3.49c1.92-.77,8.22.24,8.26.26.24.11,4.12,3.23,4.52,4.39A7.84,7.84,0,0,0,423.26,117.58Z"/><path class="cls-4" d="M399.72,105.09c.06.23.35,2.89.35,2.89l3,.72,13.8-2.83s7.31,1.71,7.31,1.63,3.87,1.71,3.87,1.71l-.27-2.62s-9.92-4.76-10.15-4.72-8.59.67-8.59.67Z"/><path class="cls-4" d="M389.35,105.09c-.06.23-.35,2.89-.35,2.89l-3,.71-13.8-2.82s-7.31,1.71-7.31,1.63-3.86,1.71-3.86,1.71l.27-2.62s9.91-4.76,10.14-4.72,8.59.67,8.59.67Z"/><path class="cls-2" d="M367.63,115.67c0,2.55,2.22,4.61,6.71,4.61s8.06-1.55,8.06-4.1c0-1.13-3.87-3.29-3.87-3.29-2-.4-3.37.57-5.88.4S367.63,115.67,367.63,115.67Z"/><path class="cls-3" d="M370.18,115.67a4.61,4.61,0,0,0,4.38,4.61h.24a3,3,0,0,0,.6,0,4.6,4.6,0,0,0,4-5.16,4.7,4.7,0,0,0-.21-.9,4.75,4.75,0,0,0-.52-1,4.12,4.12,0,0,0-.56-.69c-1.46,0-4.93-.08-6.52-.06a5.19,5.19,0,0,0-.9,1.23l-.1.24A4.53,4.53,0,0,0,370.18,115.67Z"/><path class="cls-3" d="M365.81,117.58h1.58l1.59,1h0l-1.24-2.09-.09-.16.05-.06,2.76-2.48h.11c1-.08,8-.65,8.35,0l.25.31c.54.64,1.79,1.91,2.86,3s1.82,1.77,1.82,1.77l-.18-1.94-1.18-1.26s-2.31-3-3.45-3.49c-1.92-.77-8.22.24-8.26.26-.24.11-4.12,3.23-4.52,4.39Q366.05,117.22,365.81,117.58Z"/></g></svg>