<svg xmlns="http://www.w3.org/2000/svg" viewBox="0 0 158 100.4"><defs><style>.cls-1{fill:#6d323a;}.cls-2{fill:#e2b2a5;}.cls-3{fill:#1f1a19;}.cls-4{fill:#3c2824;}</style></defs><g id="Calque_6" data-name="Calque 6"><polygon class="cls-1" points="93.61 77.88 86.32 83.64 79.9 85.42 73.48 83.64 66.19 77.88 70.25 75.97 75.68 76.91 79.9 77 84.12 76.91 89.55 75.97 93.61 77.88"/><path class="cls-2" d="M107.11,40.23c0,2.55-2.22,4.62-6.71,4.62s-8.08-1.56-8.08-4.11c0-1.13,3.88-3.3,3.88-3.3,2-.4,3.38.58,5.89.41S107.11,40.23,107.11,40.23Z"/><path class="cls-3" d="M104.56,40.23a4.63,4.63,0,0,1-4.38,4.62h-.24a4.08,4.08,0,0,1-.61,0,4.61,4.61,0,0,1-3.76-6.07,4.78,4.78,0,0,1,.51-1,4.25,4.25,0,0,1,.57-.7c1.46,0,4.94-.08,6.53-.06a4.7,4.7,0,0,1,.89,1.24,2.56,2.56,0,0,1,.11.24A4.55,4.55,0,0,1,104.56,40.23Z"/><path class="cls-3" d="M108.94,42.14l-1.58,0-1.6,1h0L107,41.13l.1-.16,0-.06-2.77-2.48h-.11c-1-.08-8-.65-8.36,0l-.25.31c-.54.64-1.8,1.91-2.87,3l-1.82,1.77.18-1.94,1.21-1.31s2.32-3,3.46-3.5C97.65,36,104,37,104,37c.24.11,4.13,3.24,4.53,4.4A6.83,6.83,0,0,0,108.94,42.14Z"/><path class="cls-4" d="M85.36,29.63c.06.23.35,2.9.35,2.9l3,.72,13.82-2.84s7.32,1.72,7.32,1.64,3.87,1.71,3.87,1.71l-.27-2.62s-9.93-4.77-10.16-4.73-8.6.67-8.6.67Z"/><path class="cls-4" d="M75,29.63c-.06.23-.35,2.9-.35,2.9l-3,.71L57.85,30.41s-7.32,1.72-7.32,1.64-3.87,1.71-3.87,1.71l.27-2.62s9.93-4.77,10.16-4.73,8.59.67,8.59.67Z"/><path class="cls-2" d="M53.22,40.23c0,2.55,2.23,4.62,6.72,4.62S68,43.29,68,40.74c0-1.13-3.88-3.3-3.88-3.3-2-.4-3.38.58-5.89.41S53.22,40.23,53.22,40.23Z"/><path class="cls-3" d="M55.78,40.23a4.63,4.63,0,0,0,4.38,4.62h.24a4.17,4.17,0,0,0,.61,0,4.61,4.61,0,0,0,3.76-6.07,4.4,4.4,0,0,0-.52-1,4.2,4.2,0,0,0-.56-.7c-1.46,0-4.94-.08-6.53-.06a5,5,0,0,0-.9,1.24l-.1.24A4.38,4.38,0,0,0,55.78,40.23Z"/><path class="cls-3" d="M51.4,42.14l1.58,0,1.59,1h0l-1.25-2.09L53.23,41l.05-.06,2.77-2.48h.11c1-.08,8-.65,8.36,0a2.78,2.78,0,0,0,.25.31c.54.64,1.79,1.91,2.87,3s1.82,1.77,1.82,1.77l-.18-1.94-1.21-1.31s-2.32-3-3.46-3.5c-1.92-.77-8.23.24-8.27.26-.24.11-4.13,3.24-4.54,4.4A5.67,5.67,0,0,1,51.4,42.14Z"/></g></svg>