<?xml version="1.0" encoding="utf-8"?>
<!-- Generator: Adobe Illustrator 26.0.1, SVG Export Plug-In . SVG Version: 6.00 Build 0)  -->
<svg version="1.1" id="Calque_1" xmlns="http://www.w3.org/2000/svg" xmlns:xlink="http://www.w3.org/1999/xlink" x="0px" y="0px"
	 viewBox="0 0 120.8 141.7" style="enable-background:new 0 0 120.8 141.7;" xml:space="preserve">
<style type="text/css">
	.st0{clip-path:url(#SVGID_00000035504567809625431070000000224272991576048259_);fill:#573623;}
	.st1{clip-path:url(#SVGID_00000038397411760577465500000007281235592459046020_);fill:#573623;}
	.st2{fill:#9D5E70;}
</style>
<g>
	<g>
		<defs>
			
				<rect id="SVGID_1_" x="95.7" y="13.5" transform="matrix(0.2712 -0.9625 0.9625 0.2712 40.7945 120.9823)" width="9.2" height="40.1"/>
		</defs>
		<clipPath id="SVGID_00000054951112513124143990000008999269811707015328_">
			<use xlink:href="#SVGID_1_"  style="overflow:visible;"/>
		</clipPath>
		<path style="clip-path:url(#SVGID_00000054951112513124143990000008999269811707015328_);fill:#573623;" d="M85.9,33.3
			c-1.5-0.1-4.8-2-5.3-3s1.6-3.3,2.6-3.7c0.5-0.2,7.9-2.7,22.9,5.4c7.2,3.9,13.5,9.7,12.2,11.3C117.8,44,106.6,35,85.9,33.3z"/>
	</g>
</g>
<g>
	<g>
		<defs>
			
				<rect id="SVGID_00000009580499289766769840000002789409645568795826_" x="0.5" y="28.9" transform="matrix(0.9755 -0.22 0.22 0.9755 -6.8742 5.3472)" width="40.1" height="9.2"/>
		</defs>
		<clipPath id="SVGID_00000047763412638673716380000001515324122093421206_">
			<use xlink:href="#SVGID_00000009580499289766769840000002789409645568795826_"  style="overflow:visible;"/>
		</clipPath>
		<path style="clip-path:url(#SVGID_00000047763412638673716380000001515324122093421206_);fill:#573623;" d="M35,34
			c1.5,0,4.9-1.7,5.5-2.7c0.5-1-1.4-3.3-2.4-3.9c-0.4-0.2-7.7-3.1-23.2,4.2c-7.4,3.5-14,9-12.8,10.7C2.6,43,14.2,34.6,35,34z"/>
	</g>
</g>
<path class="st2" d="M86.9,109.8c0,4.2-23.5,8.2-27.9,8.2s-25-4-25-8.2c0,0,15.1,4.6,27.8,3.9C76.7,112.8,86.9,109.8,86.9,109.8z"/>
<path d="M117.6,63.1c-1.4,2-3.9,2.6-5.9,1.3c-3.6-2.3-14.2-2.5-18.2-1.1c-5.4,1.8-11.8,4.4-13.5,0.8c-0.3-0.6,3-6.8,14-7.5
	C105,56,112.6,62.5,117.6,63.1L117.6,63.1z"/>
<g>
	<path d="M2.6,63.1c1.4,2,3.9,2.6,5.9,1.3c3.6-2.3,14.2-2.5,18.2-1.1c5.4,1.8,11.8,4.4,13.5,0.8c0.3-0.6-3-6.8-14-7.5
		C15.2,56,7.6,62.5,2.6,63.1L2.6,63.1z"/>
</g>
</svg>
