<?xml version="1.0" encoding="utf-8"?>
<!-- Generator: Adobe Illustrator 26.0.1, SVG Export Plug-In . SVG Version: 6.00 Build 0)  -->
<svg version="1.1" id="Calque_1" xmlns="http://www.w3.org/2000/svg" xmlns:xlink="http://www.w3.org/1999/xlink" x="0px" y="0px"
	 viewBox="0 0 788 1005" style="enable-background:new 0 0 788 1005;" xml:space="preserve">
<style type="text/css">
	.st0{clip-path:url(#SVGID_00000054972530163558079630000000878981575393689269_);fill:#573623;}
	.st1{clip-path:url(#SVGID_00000170976082754475070870000017933658715665834129_);fill:#573623;}
	.st2{clip-path:url(#SVGID_00000039846549636764350190000014018419803767090347_);fill:#FFFFFF;}
	.st3{clip-path:url(#SVGID_00000071534823596258411850000007684249283504499880_);fill:#090909;}
	.st4{fill:#9D5E70;}
</style>
<g>
	<defs>
		<polygon id="SVGID_1_" points="411.8,293 411.8,293 455.2,293 455.2,306.2 411.8,306.2 		"/>
	</defs>
	<clipPath id="SVGID_00000003062614868834073460000000736950437744882068_">
		<use xlink:href="#SVGID_1_"  style="overflow:visible;"/>
	</clipPath>
</g>
<g>
	<defs>
		<polygon id="SVGID_00000008121506522627047150000006379798066450269825_" points="369.7,293 369.7,293 326.3,293 326.3,306.2 
			369.7,306.2 		"/>
	</defs>
	<clipPath id="SVGID_00000008107986052590596440000003999032477755215510_">
		<use xlink:href="#SVGID_00000008121506522627047150000006379798066450269825_"  style="overflow:visible;"/>
	</clipPath>
</g>
<g>
	<defs>
		
			<rect id="SVGID_00000163048651905557141950000003569946106018509239_" x="426" y="277.6" transform="matrix(0.2712 -0.9625 0.9625 0.2712 27.3005 631.3372)" width="9.2" height="40.1"/>
	</defs>
	<clipPath id="SVGID_00000096758487726055500720000001452308741861140352_">
		<use xlink:href="#SVGID_00000163048651905557141950000003569946106018509239_"  style="overflow:visible;"/>
	</clipPath>
	<path style="clip-path:url(#SVGID_00000096758487726055500720000001452308741861140352_);fill:#573623;" d="M416.2,297.4
		c-1.5-0.1-4.8-2-5.3-3c-0.5-1,1.6-3.3,2.6-3.7c0.5-0.2,7.9-2.7,22.9,5.4c7.2,3.9,13.5,9.7,12.2,11.3
		C448.1,308.1,436.9,299.1,416.2,297.4z"/>
</g>
<g>
	<defs>
		
			<rect id="SVGID_00000025441314274754704360000003196918765975879077_" x="330.8" y="293" transform="matrix(0.9755 -0.22 0.22 0.9755 -56.8762 84.4705)" width="40.1" height="9.2"/>
	</defs>
	<clipPath id="SVGID_00000123400046681316734530000009873964006314199200_">
		<use xlink:href="#SVGID_00000025441314274754704360000003196918765975879077_"  style="overflow:visible;"/>
	</clipPath>
	<path style="clip-path:url(#SVGID_00000123400046681316734530000009873964006314199200_);fill:#573623;" d="M365.3,298.1
		c1.5,0,4.9-1.7,5.5-2.7c0.5-1-1.4-3.3-2.4-3.9c-0.4-0.2-7.7-3.1-23.2,4.2c-7.4,3.5-14,9-12.8,10.7
		C332.9,307.1,344.5,298.7,365.3,298.1z"/>
</g>
<path d="M447.9,327.2c-1.4,2-3.9,2.6-5.9,1.3c-3.6-2.3-14.2-2.5-18.2-1.1c-5.4,1.8-11.8,4.4-13.5,0.8c-0.3-0.6,3-6.8,14-7.5
	C435.3,320.1,442.9,326.6,447.9,327.2L447.9,327.2z"/>
<g>
	<defs>
		<polygon id="SVGID_00000152947762795927144770000016217002610467054483_" points="370.4,311.9 370.4,311.9 342.5,311.9 
			342.5,338.8 370.4,338.8 		"/>
	</defs>
	<clipPath id="SVGID_00000168095296946394724730000012649684509012045499_">
		<use xlink:href="#SVGID_00000152947762795927144770000016217002610467054483_"  style="overflow:visible;"/>
	</clipPath>
	
		<ellipse style="clip-path:url(#SVGID_00000168095296946394724730000012649684509012045499_);fill:#FFFFFF;" cx="356.4" cy="325.4" rx="14" ry="13.4"/>
</g>
<g>
	<defs>
		<polygon id="SVGID_00000000930294581748304640000017528545288023356837_" points="365.9,318 365.9,318 347.2,318 347.2,336.7 
			365.9,336.7 		"/>
	</defs>
	<clipPath id="SVGID_00000119819586414263701260000014814714091772302779_">
		<use xlink:href="#SVGID_00000000930294581748304640000017528545288023356837_"  style="overflow:visible;"/>
	</clipPath>
	
		<circle style="clip-path:url(#SVGID_00000119819586414263701260000014814714091772302779_);fill:#090909;" cx="356.6" cy="327.3" r="9.3"/>
</g>
<path class="st4" d="M416.9,373.9c0,4.2-23.5,8.2-27.9,8.2s-25-4-25-8.2c0,0,15.1,4.6,27.8,3.9C406.6,376.9,416.9,373.9,416.9,373.9
	z"/>
</svg>
