<?xml version="1.0" encoding="utf-8"?>
<!-- Generator: Adobe Illustrator 26.0.1, SVG Export Plug-In . SVG Version: 6.00 Build 0)  -->
<svg version="1.1" id="Calque_1" xmlns="http://www.w3.org/2000/svg" xmlns:xlink="http://www.w3.org/1999/xlink" x="0px" y="0px"
	 viewBox="0 0 788 1005" style="enable-background:new 0 0 788 1005;" xml:space="preserve">
<style type="text/css">
	.st0{clip-path:url(#SVGID_00000045600596144542539080000004697452069512614534_);}
	.st1{fill:#573623;}
	.st2{clip-path:url(#SVGID_00000057143017647748300630000001162786300409234322_);}
	.st3{clip-path:url(#SVGID_00000166662646431389781480000015656605788485835936_);}
	.st4{fill:#FFFFFF;}
	.st5{clip-path:url(#SVGID_00000047744236974649503060000004531214262270247301_);}
	.st6{clip-path:url(#SVGID_00000075124690837422794350000007521685660526996650_);}
	.st7{fill:#090909;}
	.st8{clip-path:url(#SVGID_00000176753255789453588390000010984401810886947240_);}
	.st9{fill:#9D5E70;}
	.st10{clip-path:url(#SVGID_00000080186361528907786220000016219591407774941570_);}
	.st11{clip-path:url(#SVGID_00000165925599507357018820000013900847576176755626_);}
	.st12{clip-path:url(#SVGID_00000003066115642485430040000009593872631400793758_);}
	.st13{clip-path:url(#SVGID_00000019646642384016848980000009070687347236822207_);}
	.st14{clip-path:url(#SVGID_00000075134138577821427070000013978934246699320767_);}
	.st15{clip-path:url(#SVGID_00000163752323433158093080000007879889382775808150_);}
</style>
<g>
	<defs>
		<polygon id="SVGID_1_" points="411.9,293 411.9,293 455.3,293 455.3,306.2 411.9,306.2 		"/>
	</defs>
	<clipPath id="SVGID_00000119823945678613845860000004812719025706205330_">
		<use xlink:href="#SVGID_1_"  style="overflow:visible;"/>
	</clipPath>
</g>
<g>
	<defs>
		<polygon id="SVGID_00000079473382619108986840000002694173917393533355_" points="369.8,293 369.8,293 326.4,293 326.4,306.2 
			369.8,306.2 		"/>
	</defs>
	<clipPath id="SVGID_00000163052865989028616330000004661630052238936724_">
		<use xlink:href="#SVGID_00000079473382619108986840000002694173917393533355_"  style="overflow:visible;"/>
	</clipPath>
</g>
<g>
	<defs>
		<rect id="SVGID_00000078038322721695781610000011844548321320809603_" x="410.6" y="293" width="40.1" height="9.2"/>
	</defs>
	<clipPath id="SVGID_00000074403858118832767990000007249967088258851461_">
		<use xlink:href="#SVGID_00000078038322721695781610000011844548321320809603_"  style="overflow:visible;"/>
	</clipPath>
	<g style="clip-path:url(#SVGID_00000074403858118832767990000007249967088258851461_);">
		<path class="st1" d="M416.8,301.3c-1.4,0.3-5.2-0.6-5.9-1.5c-0.7-0.9,0.6-3.6,1.5-4.3c0.4-0.3,6.9-4.8,23.5-1
			c8,1.8,15.6,5.7,14.8,7.6C450.4,302.9,437.2,297.3,416.8,301.3z"/>
	</g>
</g>
<g>
	<defs>
		<rect id="SVGID_00000056390077285642034650000011388244479081184654_" x="331" y="293" width="40.1" height="9.2"/>
	</defs>
	<clipPath id="SVGID_00000040563312154592241330000011432587170625033916_">
		<use xlink:href="#SVGID_00000056390077285642034650000011388244479081184654_"  style="overflow:visible;"/>
	</clipPath>
	<g style="clip-path:url(#SVGID_00000040563312154592241330000011432587170625033916_);">
		<path class="st1" d="M365,301.3c1.5,0.3,5.2-0.6,5.9-1.5s-0.6-3.6-1.5-4.3c-0.4-0.3-6.9-4.8-23.5-1c-8,1.8-15.6,5.7-14.8,7.6
			C331.4,302.9,344.5,297.3,365,301.3z"/>
	</g>
</g>
<g>
	<defs>
		<polygon id="SVGID_00000010312399500250652060000018440635528889475518_" points="414.4,318 414.4,318 442.3,318 442.3,344.8 
			414.4,344.8 		"/>
	</defs>
	<clipPath id="SVGID_00000000931143689520070850000018225531619623504282_">
		<use xlink:href="#SVGID_00000010312399500250652060000018440635528889475518_"  style="overflow:visible;"/>
	</clipPath>
	<g style="clip-path:url(#SVGID_00000000931143689520070850000018225531619623504282_);">
		<ellipse class="st4" cx="428.4" cy="331.4" rx="14" ry="13.4"/>
	</g>
</g>
<g>
	<defs>
		<polygon id="SVGID_00000093896597275761404980000001215732796771130802_" points="367.3,318 367.3,318 339.4,318 339.4,344.8 
			367.3,344.8 		"/>
	</defs>
	<clipPath id="SVGID_00000067207347532927512530000002347739829286825636_">
		<use xlink:href="#SVGID_00000093896597275761404980000001215732796771130802_"  style="overflow:visible;"/>
	</clipPath>
	<g style="clip-path:url(#SVGID_00000067207347532927512530000002347739829286825636_);">
		<ellipse class="st4" cx="353.4" cy="331.4" rx="14" ry="13.4"/>
	</g>
</g>
<g>
	<defs>
		<polygon id="SVGID_00000013185893258665277620000010478325977254563221_" points="424.3,322.1 424.3,322.1 442.9,322.1 
			442.9,340.7 424.3,340.7 		"/>
	</defs>
	<clipPath id="SVGID_00000035492409265128576310000003930240900487847308_">
		<use xlink:href="#SVGID_00000013185893258665277620000010478325977254563221_"  style="overflow:visible;"/>
	</clipPath>
	<g style="clip-path:url(#SVGID_00000035492409265128576310000003930240900487847308_);">
		<circle class="st7" cx="433.6" cy="331.4" r="9.3"/>
	</g>
</g>
<g>
	<defs>
		<polygon id="SVGID_00000055687174078124709930000001166919760615341243_" points="368.5,322.1 368.5,322.1 349.9,322.1 
			349.9,340.7 368.5,340.7 		"/>
	</defs>
	<clipPath id="SVGID_00000159447133470966144980000013236092245060522388_">
		<use xlink:href="#SVGID_00000055687174078124709930000001166919760615341243_"  style="overflow:visible;"/>
	</clipPath>
	<g style="clip-path:url(#SVGID_00000159447133470966144980000013236092245060522388_);">
		<circle class="st7" cx="359.2" cy="331.4" r="9.3"/>
	</g>
</g>
<ellipse class="st9" cx="390.9" cy="383.7" rx="5.7" ry="7.6"/>
<g>
	<defs>
		<polygon id="SVGID_00000034771736523624545030000006704600794345828024_" points="411.9,293 411.9,293 455.3,293 455.3,306.2 
			411.9,306.2 		"/>
	</defs>
	<clipPath id="SVGID_00000075120470272122218390000005723394226570062471_">
		<use xlink:href="#SVGID_00000034771736523624545030000006704600794345828024_"  style="overflow:visible;"/>
	</clipPath>
</g>
<g>
	<defs>
		<polygon id="SVGID_00000000902099755701440530000015543801056926905261_" points="369.8,293 369.8,293 326.4,293 326.4,306.2 
			369.8,306.2 		"/>
	</defs>
	<clipPath id="SVGID_00000013180204435877613490000001953947500671877517_">
		<use xlink:href="#SVGID_00000000902099755701440530000015543801056926905261_"  style="overflow:visible;"/>
	</clipPath>
</g>
<g>
	<defs>
		<rect id="SVGID_00000152984532571842168140000004865511177790870704_" x="410.6" y="293" width="40.1" height="9.2"/>
	</defs>
	<clipPath id="SVGID_00000171694301835408599920000002748190844601828251_">
		<use xlink:href="#SVGID_00000152984532571842168140000004865511177790870704_"  style="overflow:visible;"/>
	</clipPath>
	<g style="clip-path:url(#SVGID_00000171694301835408599920000002748190844601828251_);">
		<path class="st1" d="M416.8,301.3c-1.4,0.3-5.2-0.6-5.9-1.5c-0.7-0.9,0.6-3.6,1.5-4.3c0.4-0.3,6.9-4.8,23.5-1
			c8,1.8,15.6,5.7,14.8,7.6C450.4,302.9,437.2,297.3,416.8,301.3z"/>
	</g>
</g>
<g>
	<defs>
		<rect id="SVGID_00000067956367201323048680000000051653468334362526_" x="331" y="293" width="40.1" height="9.2"/>
	</defs>
	<clipPath id="SVGID_00000024718807679618735320000005369773868274719903_">
		<use xlink:href="#SVGID_00000067956367201323048680000000051653468334362526_"  style="overflow:visible;"/>
	</clipPath>
	<g style="clip-path:url(#SVGID_00000024718807679618735320000005369773868274719903_);">
		<path class="st1" d="M365,301.3c1.5,0.3,5.2-0.6,5.9-1.5s-0.6-3.6-1.5-4.3c-0.4-0.3-6.9-4.8-23.5-1c-8,1.8-15.6,5.7-14.8,7.6
			C331.4,302.9,344.5,297.3,365,301.3z"/>
	</g>
</g>
<g>
	<defs>
		<polygon id="SVGID_00000088820255629923949510000006067455663064539313_" points="414.4,318 414.4,318 442.3,318 442.3,344.8 
			414.4,344.8 		"/>
	</defs>
	<clipPath id="SVGID_00000141450708605021369550000014144596023524259253_">
		<use xlink:href="#SVGID_00000088820255629923949510000006067455663064539313_"  style="overflow:visible;"/>
	</clipPath>
	<g style="clip-path:url(#SVGID_00000141450708605021369550000014144596023524259253_);">
		<ellipse class="st4" cx="428.4" cy="331.4" rx="14" ry="13.4"/>
	</g>
</g>
<g>
	<defs>
		<polygon id="SVGID_00000030482998297048754450000012800435863547781506_" points="367.3,318 367.3,318 339.4,318 339.4,344.8 
			367.3,344.8 		"/>
	</defs>
	<clipPath id="SVGID_00000183224915768302422650000017639718945938250640_">
		<use xlink:href="#SVGID_00000030482998297048754450000012800435863547781506_"  style="overflow:visible;"/>
	</clipPath>
	<g style="clip-path:url(#SVGID_00000183224915768302422650000017639718945938250640_);">
		<ellipse class="st4" cx="353.4" cy="331.4" rx="14" ry="13.4"/>
	</g>
</g>
<g>
	<defs>
		<polygon id="SVGID_00000053546466958926835160000003991334956179285408_" points="424.3,322.1 424.3,322.1 442.9,322.1 
			442.9,340.7 424.3,340.7 		"/>
	</defs>
	<clipPath id="SVGID_00000011017382910558276830000012580908953514623677_">
		<use xlink:href="#SVGID_00000053546466958926835160000003991334956179285408_"  style="overflow:visible;"/>
	</clipPath>
	<g style="clip-path:url(#SVGID_00000011017382910558276830000012580908953514623677_);">
		<circle class="st7" cx="433.6" cy="331.4" r="9.3"/>
	</g>
</g>
<g>
	<defs>
		<polygon id="SVGID_00000176745659167548879840000003378195254580391592_" points="368.5,322.1 368.5,322.1 349.9,322.1 
			349.9,340.7 368.5,340.7 		"/>
	</defs>
	<clipPath id="SVGID_00000087376634547622839250000004803577728392505745_">
		<use xlink:href="#SVGID_00000176745659167548879840000003378195254580391592_"  style="overflow:visible;"/>
	</clipPath>
	<g style="clip-path:url(#SVGID_00000087376634547622839250000004803577728392505745_);">
		<circle class="st7" cx="359.2" cy="331.4" r="9.3"/>
	</g>
</g>
<ellipse class="st9" cx="390.9" cy="383.7" rx="5.7" ry="7.6"/>
</svg>
