<svg xmlns="http://www.w3.org/2000/svg" viewBox="0 0 388 327.1"><defs><style>.cls-1{fill:#e78367;}.cls-2{fill:#b85d40;}.cls-3{fill:none;}.cls-4{fill:#968031;}</style></defs><g id="Calque_4" data-name="Calque 4"><path class="cls-1" d="M240.43,123l2.16,18.26-21.08,75.33h-92.1L106.89,141l2.64-18.74-17-36.82,51.25-20.58A20.34,20.34,0,0,0,156.48,46V33.19H195V45.72A20.32,20.32,0,0,0,208.27,64.8l51.37,18.94Z"/><path class="cls-2" d="M156.86,32.76h38.48V43.34h0c-8.64,11-14.34,15.83-20.89,15.77-4.94,0-12.67-9.72-17.67-13.57l.08-1.93Z"/></g><g id="Calque_3" data-name="Calque 3"><polygon points="12.74 315.97 12.84 315.93 12.74 315.88 12.74 315.97"/><polygon points="12.84 315.93 12.93 315.97 12.93 315.88 12.84 315.93"/><polygon points="12.74 315.97 12.84 315.93 12.74 315.88 12.74 315.97"/><polygon points="12.84 315.93 12.93 315.97 12.93 315.88 12.84 315.93"/><path class="cls-3" d="M209.22,226.78c15.55,5.29,22.33,9.75,26,16.77,3,5.69,5.82,18.72,6,25.22.52,15.26-7.48,53.62-21.11,66.42-13.86,13-81.63,13-95.49,0-13.63-12.8-21.64-51.16-21.12-66.42.23-6.5,3.05-19.53,6-25.22,3.7-7,10.48-11.48,26-16.77,17.79-6.06,35.9-5.1,35.9-5.1S191.42,220.72,209.22,226.78Z"/><polygon points="12.38 316.31 12.47 316.27 12.38 316.22 12.38 316.31"/><polygon points="12.47 316.27 12.57 316.31 12.57 316.22 12.47 316.27"/><polygon points="12.38 316.31 12.47 316.27 12.38 316.22 12.38 316.31"/><polygon points="12.47 316.27 12.57 316.31 12.57 316.22 12.47 316.27"/><polygon points="4.64 316.32 4.73 316.28 4.64 316.23 4.64 316.32"/><polygon points="4.73 316.28 4.83 316.32 4.83 316.23 4.73 316.28"/><polygon points="4.64 316.32 4.73 316.28 4.64 316.23 4.64 316.32"/><polygon points="4.73 316.28 4.83 316.32 4.83 316.23 4.73 316.28"/><path class="cls-3" d="M212.61,254.32c15.55,5,22.33,9.27,26,15.95,3,5.4,5.81,17.79,6,24,.52,14.51-7.48,51-21.11,63.14-13.87,12.37-81.63,12.37-95.5,0-13.63-12.17-21.63-48.63-21.11-63.14.23-6.17,3.05-18.56,6-24,3.7-6.68,10.48-10.92,26-15.95,17.8-5.75,35.91-4.84,35.91-4.84S194.81,248.57,212.61,254.32Z"/><path class="cls-1" d="M237.94,175.21l-10.11-5.46S208.16,147.9,207.29,147s-15.61-13.22-16.62-14.22-8.24-10.5-8.24-10.5l-4.59,9.24,7.53,10.93,9,8.92-22.79-4.27s-34.34-10-34.92-8.84-1.42,7.79-.26,8.37,33.48,10.86,33.48,10.86-41-5.65-41.25-3.63-.55,9.23,1.18,9.22,36.63,3.65,36.63,3.65-37.17,2.7-36.59,3.86,2.85,8.08,2.85,8.08L169,177.42l-25.64,8.43s4.35,7.2,5.5,7.19,29.39-8.15,29.39-8.15,28.53,3,30,2.22c4.23-2.12,13.85,4,13.85,4Z"/><path class="cls-3" d="M213.62,254.32c15.55,5,22.33,9.27,26,15.95,3,5.4,5.82,17.79,6,24,.52,14.51-7.48,51-21.11,63.14-13.86,12.37-81.63,12.37-95.49,0-13.63-12.17-21.64-48.63-21.12-63.14.23-6.17,3-18.56,6-24,3.7-6.68,10.48-10.92,26-15.95,17.8-5.75,35.9-4.84,35.9-4.84S195.82,248.57,213.62,254.32Z"/><path class="cls-1" d="M301.6,198.16l2.85,2.87a12.71,12.71,0,0,0,17.76.53h0a14,14,0,0,0,2.63-16.93l-2.74-5S271.32,63.56,245,84.29h0c-9,6.36-15,20.34-8.47,29.54Z"/><path class="cls-1" d="M78.35,160.43,32,197.06l-3.45,2.36a13.89,13.89,0,0,1-18.64-2.77h0a13.88,13.88,0,0,1,.09-17.5l3.7-4.52S42.85,143,51.25,131.36c10.3-14.22,38.05-67.69,58.94-38.17h0c8.36,8.07,12.3,23.24,3.89,31.26Z"/><path class="cls-1" d="M27.46,199.65h0a15.21,15.21,0,0,0,4.11-15.54,8.76,8.76,0,0,0-.51-1.66c-4.77-7.88-18.82-20.4-26.23-25.87-17.22-12.71-73.62-46.29-73.62-46.29h0a8.89,8.89,0,0,0-11.36,4.23l-.46.93A8.87,8.87,0,0,0-78,126.55c.63.47,1.19.91,1.61,1.26,7.31,6.15,51.44,49.3,61.12,57.73,5.67,4.94,18.87,12.58,25.89,15.25C14.59,202.29,23.81,203.1,27.46,199.65Z"/><path class="cls-4" d="M116.13,74.36,92.21,83.21l14.06,59.64,17.46,74.64s-18.15,48.93-21.85,65.88c-2,9.46-9.06,33.65-9.67,48.76-.29,7.16,10.93,13.25,18.08,13.7l64.18,4.1h58.95c9.51,0,29.94-5.44,29.28-14.93-1.13-16.27-15.16-50-21.41-66.23-4.73-12.29-3.35-44-3.35-44l4.47-83.56,3-25.75L249.53,79,223,70"/><path class="cls-1" d="M326.36,194.65h0A17.28,17.28,0,0,1,317,207a9,9,0,0,1-1.45.7c-8,1.8-23.79.44-31.3-1-17.43-3.31-68.71-19.16-68.71-19.16l-7.79-1.89c-3.35-1.69,3.42-4.2,5.46-8.16l.45-.88c1.88-3.66,1.15-8.91,4.22-7.08a12.88,12.88,0,0,0,6.79,2.15c7.95.93,60.33,2.81,71.08,3.87,6.28.62,18.13,4.47,23.42,7.38C322.15,184.61,327.13,190.12,326.36,194.65Z"/><path class="cls-1" d="M217.9,169.57l-13.76-10.66-22.82-9.59s-1.43,4.24-.79,5.5c2,4,8.66,7.62,12.66,10.14.53.34,1.71,2.76,1.5,3.31-.87,2.25-6.54,1.86-6.54,1.86l16.91,6.18Z"/><path class="cls-1" d="M212,169.45l-4.21,16.24-40.08-4.83-37.48-18.21s3.93-4,5.78-4.33c9.66-1.9,28.38,7.31,38,9.25C184.34,169.67,212,169.45,212,169.45Z"/><ellipse class="cls-1" cx="210.63" cy="176.64" rx="10.8" ry="9.5" transform="translate(-5.52 6.8) rotate(-1.83)"/></g></svg>