<?xml version="1.0" encoding="utf-8"?>
<!-- Generator: Adobe Illustrator 26.0.1, SVG Export Plug-In . SVG Version: 6.00 Build 0)  -->
<svg version="1.1" id="Calque_1" xmlns="http://www.w3.org/2000/svg" xmlns:xlink="http://www.w3.org/1999/xlink" x="0px" y="0px"
	 viewBox="0 0 788 1005.1" style="enable-background:new 0 0 788 1005.1;" xml:space="preserve">
<style type="text/css">
	.st0{fill:#E78367;}
	.st1{fill:#B85D40;}
	.st2{fill:#C67864;}
	.st3{fill:#2D2A29;}
</style>
<g id="Calque_4">
	<path class="st0" d="M440.4,283.9l2.2,18.2l-21.1,75.3h-92.1l-22.5-75.6l2.6-18.7l-17-36.8l51.2-20.6c7.7-3.1,12.8-10.6,12.8-18.9
		V194H395v12.5c0,8.5,5.3,16.1,13.3,19.1l51.4,18.9L440.4,283.9z"/>
	<path class="st1" d="M356.9,193.7h38.5v10.6l0,0c-8.6,11-14.3,15.8-20.9,15.8c-4.9,0-12.7-9.7-17.7-13.6l0.1-1.9V193.7z"/>
</g>
<g id="Calque_3">
	<path d="M230.9,515h0.1H230.9z"/>
	<polygon points="231,515 231.1,515 231.1,515 	"/>
	<path d="M230.9,515h0.1H230.9z"/>
	<polygon points="231,515 231.1,515 231.1,515 	"/>
	<path class="st0" d="M235.8,258.9c-0.6-2.3-15.2-37-15.2-37s17.2-20.4,17.1-20.7c-1-2.2-7.6-34.1-7.6-34.1l6-1.9l11.3,38.6
		l6.6-34.4l5.5,3.2l-2.9,37.4l7.5,17.4l-10.4,29.4L235.8,258.9z"/>
	<path class="st0" d="M503.6,358.2l2.9,2.9c4.8,5,12.7,5.2,17.8,0.5l0,0c4.6-4.4,5.7-11.3,2.6-16.9l-2.7-5c0,0-52.4-112.8-77.2-95.3
		l0,0c-9,6.4-15,20.3-8.5,29.5L503.6,358.2z"/>
	<path class="st0" d="M303.6,320.3l-28.4,51.8l-2.3,3.5c-3.9,6.1-11.9,8.1-18.2,4.7l0,0c-5.8-3.1-8.6-9.8-6.8-16.1l1.6-5.6
		c0,0,14.5-40.5,17.7-54.5c3.9-17.1,9.3-69.7,41.3-57.3l-2-0.9c10.9,4.2,20.4,16.6,15.8,27.3L303.6,320.3z"/>
	<path class="st0" d="M522.9,341.4L522.9,341.4c4,3.7,6.1,9,5.5,14.5c0,0.5-0.1,1.1-0.2,1.6c-2.7,7.7-12.2,20.4-17.4,26
		c-12,13-52.6,48.2-52.6,48.2l0,0c-3.2,2-7.5,0.5-9.8-3.3l-0.5-0.9c-2.1-3.5-1.9-8,0.5-10.7c0.4-0.5,0.8-0.9,1.1-1.3
		c5-6.2,34.3-49.7,40.9-58.3c3.9-5,13.4-13,18.7-16C512.2,339.6,519.5,338.3,522.9,341.4z"/>
	<path class="st0" d="M259.8,382.5L259.8,382.5c5.8,0.1,11.1-3.2,13.8-8.3c0.3-0.5,0.6-1,0.8-1.5c2-9,0.6-27.8-0.9-36.8
		c-1.1-6.3-3.4-16.5-6.1-27.6c-6.3-25.8-14.7-56.8-14.7-56.8l0,0c-1.9-4.3-6.7-6.4-11.1-4.9l-1,0.4c-4.1,1.4-6.5,5.6-5.8,9.8
		c0.1,0.8,0.2,1.5,0.3,2c1,9.5,0.3,60.1,3.9,84c1.1,7.4,4.8,22.2,8,29C248.7,375.5,254.8,382.4,259.8,382.5z"/>
	<path class="st2" d="M277.5,345.4c-1-10.1-4.9-29.5-10.8-39.2l0.8-2.6l28.9,30.5c0,0-22.2,41.6-24.7,43.1
		C271.7,377.1,279,361.2,277.5,345.4z"/>
	<path class="st3" d="M267,303.5c0,0,3.4-57.7,18.6-55.2c62.4,10.5,167-9.1,167-9.1s18.6,8.6,28,22.9c5.7,8.7,10.9,17.8,15.5,27.1
		L467.2,313l-21.7-27.7l0.5,18.3l3.9,63.6l11.7,83.3c1.1,6.2-0.2,29.3-1.3,29.4c-13.9,1.7-161.8-7.5-161.8-7.5l-3.5-15.6
		c-0.8-3.6-1-7.3-0.6-10.9l2-57.7l5.4-63.7l-5.2,9.8L267,303.5z"/>
	<path class="st0" d="M463.2,414.5c1.7,1.9,2.9,5.6-0.4,10c0,0-9.5,13.6-14.1,17.1c-2.1,1.6-20.3,11.4-20.3,11.4
		s-15.6-6.5-17.4-10.2c-1-2.1,25.7-18.5,26.8-20.4c0.4-0.8-8.6-6.9-8.6-6.9l-0.2-6c0,0,16,4.2,18.9,3.9c1.6-0.2,3.1-0.6,4.7-1
		C456.2,411.5,461,412,463.2,414.5z"/>
	<polygon class="st0" points="455.6,407.4 453.5,412.2 457,420 460.9,427.5 463.9,423 469.8,417.4 	"/>
</g>
<path class="st1" d="M421.2,230.5c-11.1,8.7-34,13.9-49.7,13.9c-11.1,0-29.6-7-41.1-13.3l13.4-5.4c7.7-3.1,12.8-10.6,12.8-18.9
	v-11.5l0.3-1.3l0.1-0.4h38v13c0,8.5,5.3,16.1,13.3,19.1L421.2,230.5z"/>
</svg>
