<?xml version="1.0" encoding="utf-8"?>
<!-- Generator: Adobe Illustrator 26.0.1, SVG Export Plug-In . SVG Version: 6.00 Build 0)  -->
<svg version="1.1" id="Calque_1" xmlns="http://www.w3.org/2000/svg" xmlns:xlink="http://www.w3.org/1999/xlink" x="0px" y="0px"
	 viewBox="0 0 788 1005.1" style="enable-background:new 0 0 788 1005.1;" xml:space="preserve">
<style type="text/css">
	.st0{fill:#E78367;}
	.st1{fill:#FFC145;}
	.st2{fill:#3C3D4E;}
	.st3{fill:#C35959;}
	.st4{fill:#1A1818;}
	.st5{fill:#B85D40;}
	.st6{fill:#4C56B4;}
</style>
<g id="Calque_4">
	<path class="st0" d="M440.4,283.9l2.2,18.2l-21.1,75.3h-92.1l-22.5-75.6l2.6-18.7l-17-36.8l51.2-20.6c7.7-3.1,12.8-10.6,12.8-18.9
		v-12.8H395v12.5c0,8.5,5.3,16.1,13.3,19.1l51.4,18.9L440.4,283.9z"/>
</g>
<g id="Calque_3">
	<path class="st0" d="M308.5,290.2l-43.2,80.4l0,0c-4.5,5.7-17,5.6-23,1.6l0,0c-5.5-3.6-7.6-10.6-5.2-16.7l2.2-5.4
		c0,0,14.4-28.5,18.9-42.1c5.5-16.7,11.4-50.5,34.2-61.4l18.3-0.4c10.4,5.2,18.7,18.5,13.1,28.6L308.5,290.2z"/>
	<path class="st0" d="M248.2,374.4L248.2,374.4c5.8-0.2,11-3.6,13.4-8.9c0.3-0.5,0.5-1,0.7-1.6c1.7-9.1,3.5-25,1.6-34
		c-4.4-21-24.1-83.6-24.1-83.6l0,0c-2-4.2-7-6.1-11.3-4.4l-1,0.4c-4,1.6-6.3,5.8-5.4,10c0.2,0.8,0.3,1.5,0.4,2
		c1.4,9.4,5.6,71,7.2,83.8c0.9,7.5,1.8,19.1,5.2,25.8C236.8,367.9,243.2,374.6,248.2,374.4z"/>
	
		<rect x="223.3" y="274.6" transform="matrix(0.9927 -0.1207 0.1207 0.9927 -32.0322 30.6945)" class="st1" width="28.4" height="10.6"/>
	<polygon class="st2" points="215.6,510.3 215.7,510.3 215.6,510.2 	"/>
	<polygon class="st2" points="215.7,510.3 215.8,510.3 215.8,510.2 	"/>
	<polygon class="st2" points="215.6,510.3 215.7,510.3 215.6,510.2 	"/>
	<polygon class="st2" points="215.7,510.3 215.8,510.3 215.8,510.2 	"/>
	<polygon class="st2" points="215.2,510.7 215.3,510.6 215.2,510.6 	"/>
	<polygon class="st2" points="215.3,510.6 215.4,510.7 215.4,510.6 	"/>
	<polygon class="st2" points="215.2,510.7 215.3,510.6 215.2,510.6 	"/>
	<polygon class="st2" points="215.3,510.6 215.4,510.7 215.4,510.6 	"/>
	<polygon points="217,510.6 217.1,510.6 217,510.6 	"/>
	<polygon points="217.1,510.6 217.1,510.6 217.1,510.6 	"/>
	<polygon points="217,510.6 217.1,510.6 217,510.6 	"/>
	<path class="st3" d="M440.7,301.1c0,14.3-19.3,41.3-33.6,41.3c-14.3-0.3-25.7-12.1-25.4-26.4c0.3-13.9,11.5-25.1,25.4-25.4
		C421.4,290.7,440.7,286.9,440.7,301.1z"/>
	<circle class="st3" cx="375.5" cy="238.7" r="25.9"/>
	<polygon class="st4" points="216.6,501.1 216.5,501.1 216.5,501 	"/>
	<polygon points="216.7,501 216.7,501.1 216.6,501.1 	"/>
	<polygon class="st4" points="216.6,501.1 216.5,501.1 216.5,501 	"/>
	<polygon points="216.7,501 216.7,501.1 216.6,501.1 	"/>
	<path class="st0" d="M446.4,290.2l-1.2,3.8l-23.7,83.6h-92.1l-22.5-75.6l2.6-18.7l-17-36.8l51.2-20.5c7.7-3.1,12.7-10.6,12.8-18.9
		v-12.8H395v12.5c0,8.5,5.3,16.1,13.3,19.1l51.4,18.9L446.4,290.2z"/>
	<path class="st5" d="M356.6,194.3H395v10.6l0,0c-8.6,11-14.3,15.8-20.9,15.8c-4.9,0-12.7-9.7-17.7-13.6l0.1-1.9L356.6,194.3z"/>
	<path class="st6" d="M334.5,293.9l-24,55.4l0,0c1.1,9.2,1.8,18.4,2.2,27.6c1.8,41.4,0,38.9-11.9,78.5h146.8
		c-13.7-42.6-13.7-33.9-11.1-78.6c0.5-9.1,1.4-18.2,2.6-27.3l0,0l-23.3-58l-41.1,45.8L334.5,293.9z"/>
	<path class="st0" d="M486.9,372L486.9,372c4.5,5.7,17.5,7.2,23.6,3.2l0,0c5.5-3.6,7.6-10.6,5.2-16.7l-2.2-5.4
		c0,0-18.3-39-22.8-52.6c-5.5-16.7-16.2-68.3-44.7-54.1l0,0c-10.4,5.2-6.4,37.5-0.8,47.7L486.9,372z"/>
	<path class="st0" d="M504.4,377.4L504.4,377.4c-5.8-0.2-11-3.6-13.4-8.9c-0.3-0.5-0.5-1-0.7-1.6c-1.7-9,0.5-27.8,2.4-36.8
		c4.4-20.9,24.1-83.6,24.1-83.6l0,0c2-4.2,7-6.1,11.3-4.4l1,0.4c4,1.6,6.3,5.8,5.4,10c-0.2,0.8-0.3,1.5-0.4,2
		c-1.4,9.5-5.6,71-7.2,83.8c-0.9,7.5-5.7,22-9.2,28.6C515.8,370.9,509.5,377.6,504.4,377.4z"/>
	<path class="st0" d="M517.5,245.3c0,0-1,15.9,3.9,14.8l1.8-0.4l39.2-10.2l44.4-21.5l-2.4-2c-2.6-2.2-6-3.4-9.4-3.2l0,0
		c-1.5,0.1-3,0.4-4.4,1l-23.4,9.5c-4.1,1.6-8.6,2-12.8,0.9l-6.7-1.7l11.3-15c2.1-2.8,1.7-6.8-0.9-9.1l-1.1-1l-16.8,15.2l-8.3,5.1
		c-4.7,2.9-8.6,7-11.2,11.8L517.5,245.3z"/>
	<path class="st0" d="M239.2,245.3c0,0,1,15.9-3.9,14.8l-1.8-0.4l-39.2-10.2L150,228.1l2.5-2.1c2.6-2.2,6-3.4,9.4-3.2l0,0
		c1.5,0.1,3,0.4,4.4,1l23.4,9.5c4.1,1.6,8.5,2,12.8,0.9l6.7-1.7l-11.3-15c-2.1-2.8-1.7-6.8,0.9-9.1l1.1-0.9l16.8,15.2l8.3,5.1
		c4.7,2.9,8.6,7,11.2,11.8L239.2,245.3z"/>
	<path class="st6" d="M420.8,378.7h-93.7c-15,0-27.1-46.6-27.1-61.5l13.8-82.1l42.9,41.2l17.9,18.3L395,273l39.6-39.8l16.9,83.1
		C451.6,331.3,435.8,378.7,420.8,378.7z"/>
	<path class="st1" d="M323.5,231.2c0.5,3.2,41.4,52.8,51.5,51s51-52.2,51-52.2l8.7,3.2c0,0-43.4,63.3-60.3,63.3
		c-17.5,0-60.5-61.4-60.5-61.4L323.5,231.2z"/>
</g>
<path class="st6" d="M300,317.2c0,0,4.3,77,4.3,81S292.5,480,292.5,480l88.7,35l88.7-35l-18.4-81.8l0-81.8L300,317.2z"/>
</svg>
