<?xml version="1.0" encoding="utf-8"?>
<!-- Generator: Adobe Illustrator 26.0.3, SVG Export Plug-In . SVG Version: 6.00 Build 0)  -->
<svg version="1.1" id="Calque_1" xmlns="http://www.w3.org/2000/svg" xmlns:xlink="http://www.w3.org/1999/xlink" x="0px" y="0px"
	 viewBox="0 0 788 1005" style="enable-background:new 0 0 788 1005;" xml:space="preserve">
<style type="text/css">
	.st0{fill:#FFFFFF;}
	.st1{fill:#423522;}
	.st2{fill:#AF7C66;}
	.st3{fill:#6B313A;}
	.st4{fill:#635132;}
	.st5{fill:#E2E2E2;}
	.st6{fill:#D1D1D1;}
</style>
<g>
	<g>
		<path class="st0" d="M384.1,118.6c0,0-6.3,2.2-12.5,0.8s-6.4-2.4-6.4-2.4l5-3.6l3.4-0.8l6,0.5l1.5,1.1l2,2.1L384.1,118.6z"/>
		<path class="st1" d="M380.1,113.7c2.1,1.2,3.2,3.1,4.1,5c0.1-0.1,0.2-0.1,0.2-0.2c0-0.3,0-0.6-0.1-0.8c-1.3-2.3-2.8-4.6-5.6-5.3
			c-3.8-0.9-7.5-0.5-10.8,1.9c-1.1,0.8-2.1,1.6-3.2,2.5c1.6,1.5,7,3.2,7.6,2.4c-0.4-0.1-0.7-0.1-1-0.2c-0.8-0.3-1.7-0.6-2.5-1
			c-0.4-0.2-0.2-0.5,0.2-0.5c0.1,0,0.2,0,0.5,0c-1-0.9-1-1.1,0-2.1c0.7-0.7,1.4-1.3,2.1-1.8c0.3-0.2,0.7-0.2,1.1-0.3
			c0,0.4,0.1,0.8,0.1,1.1c-0.2,1.6,0.1,3.1,1.2,4.3c0.5,0.6,1.9,0.9,2.9,0.8c1-0.1,1.7-0.4,2.4-1.3c0.7-1,1-2,0.9-3.1
			C380.2,114.7,380.2,114.3,380.1,113.7z"/>
	</g>
	<g>
		<path class="st0" d="M404.9,118.7c0,0,6.3,2.2,12.5,0.8s6.4-2.4,6.4-2.4l-5-3.6l-3.4-0.8l-6,0.5l-1.5,1.1l-2,2.1L404.9,118.7z"/>
		<path class="st1" d="M408.9,113.8c-2.1,1.2-3.2,3.1-4.1,5c-0.1-0.1-0.2-0.1-0.2-0.2c0-0.3,0-0.6,0.1-0.8c1.3-2.3,2.8-4.6,5.6-5.3
			c3.8-0.9,7.5-0.5,10.8,1.9c1.1,0.8,2.1,1.6,3.2,2.5c-1.6,1.5-7,3.2-7.6,2.4c0.4-0.1,0.7-0.1,1-0.2c0.8-0.3,1.7-0.6,2.5-1
			c0.4-0.2,0.2-0.5-0.2-0.5c-0.1,0-0.2,0-0.5,0c1-0.9,1-1.1,0-2.1c-0.7-0.7-1.4-1.3-2.1-1.8c-0.3-0.2-0.7-0.2-1.1-0.3
			c0,0.4-0.1,0.8-0.1,1.1c0.2,1.6-0.1,3.1-1.2,4.3c-0.5,0.6-1.9,0.9-2.9,0.8c-1-0.1-1.7-0.4-2.4-1.3c-0.7-1-1-2-0.9-3.1
			C408.8,114.8,408.9,114.5,408.9,113.8z"/>
	</g>
	<g>
		<path class="st2" d="M402,138.7c0.7,3.3-4.7,4.9-7.2,4.8c-2.5,0.1-7.9-1.5-7.2-4.8c0.4,0.7,0.9,1,1.5,1.2
			C391.6,140.6,400.7,141.2,402,138.7L402,138.7z"/>
	</g>
</g>
<polygon class="st3" points="408,153.3 400.7,159 394.3,160.8 387.9,159 380.6,153.3 384.6,151.4 390.1,152.3 394.3,152.4 
	398.5,152.3 403.9,151.4 "/>
<path class="st4" d="M399.9,106.1c0.1,0.4,0.1,0.8,0.1,1.1c0.1,0.5,0.4,0.9,0.9,1l2,0.5c0.2,0,0.3,0,0.5,0l13.3-2.7
	c0.2,0,0.3,0,0.5,0c1.2,0.3,7.1,1.6,7.1,1.5s1.1,0.4,2.1,0.9c0.8,0.4,1.7-0.3,1.6-1.2l0,0c0-0.4-0.3-0.7-0.6-0.9
	c-2.1-1-9.4-4.5-9.5-4.4c-0.2,0.1-7.5,0.6-8.5,0.7c-0.1,0-0.1,0-0.2,0l-8.3,2.2C400.1,105,399.8,105.5,399.9,106.1z"/>
<path class="st4" d="M389.2,106.1c-0.1,0.4-0.1,0.8-0.1,1.1c-0.1,0.5-0.4,0.9-0.9,1l-2,0.5c-0.2,0-0.3,0-0.5,0l-13.3-2.7
	c-0.2,0-0.3,0-0.5,0c-1.2,0.3-7.1,1.6-7.1,1.5s-1.1,0.4-2.1,0.9c-0.8,0.4-1.7-0.3-1.6-1.2l0,0c0-0.4,0.3-0.7,0.6-0.9
	c2.1-1,9.4-4.5,9.5-4.4c0.2,0.1,7.5,0.6,8.5,0.7c0.1,0,0.1,0,0.2,0l8.3,2.2C389,105,389.3,105.5,389.2,106.1z"/>
<path class="st5" d="M366.5,137.6c6.2-3.6,16.3-8.7,20.7-10.8c1.4-0.7,3-1.1,4.6-1.1h7.1c1.7,0,3.5,0.4,5,1.3l18.3,10
	c3.7,2,5.8,6.1,5.4,10.3l-1,9.5c-0.3,2.6-1.5,5-3.5,6.7l-14.8,13c-1.9,1.7-4.3,2.6-6.9,2.6h-13.6c-2.5,0-4.9-0.9-6.8-2.5l-16-13.7
	c-2.3-2-3.6-4.9-3.6-7.9v-8.4C361.4,142.9,363.3,139.5,366.5,137.6z"/>
<path class="st6" d="M363.1,153.9c2.5-0.7,19.3,6.2,20.7,6.9s19.4-0.1,21,0s16-4.8,18.8-5.9s-0.7,6.3-0.7,6.3L406.4,176h-23.3
	l-16.5-14.9L363.1,153.9z"/>
</svg>
