<?xml version="1.0" encoding="utf-8"?>
<!-- Generator: Adobe Illustrator 26.0.3, SVG Export Plug-In . SVG Version: 6.00 Build 0)  -->
<svg version="1.1" id="Calque_1" xmlns="http://www.w3.org/2000/svg" xmlns:xlink="http://www.w3.org/1999/xlink" x="0px" y="0px"
	 viewBox="0 0 788 1005" style="enable-background:new 0 0 788 1005;" xml:space="preserve">
<style type="text/css">
	.st0{fill:#FFFFFF;}
	.st1{fill:#423522;}
	.st2{fill:#AD717F;}
	.st3{fill:#635132;}
	.st4{fill:#AF7C66;}
</style>
<g>
	<path class="st0" d="M384,118.4c0,0-6.3,2.2-12.5,0.8s-6.4-2.4-6.4-2.4l5-3.6l3.4-0.8l6,0.5l1.5,1.1l2,2.1L384,118.4z"/>
	<path class="st1" d="M380,113.5c2.1,1.2,3.2,3.1,4.1,5c0.1-0.1,0.2-0.1,0.2-0.2c0-0.3,0-0.6-0.1-0.8c-1.3-2.3-2.8-4.6-5.6-5.3
		c-3.8-0.9-7.5-0.5-10.8,1.9c-1.1,0.8-2.1,1.6-3.2,2.5c1.6,1.5,7,3.2,7.6,2.4c-0.4-0.1-0.7-0.1-1-0.2c-0.8-0.3-1.7-0.6-2.5-1
		c-0.4-0.2-0.2-0.5,0.2-0.5c0.1,0,0.2,0,0.5,0c-1-0.9-1-1.1,0-2.1c0.7-0.7,1.4-1.3,2.1-1.8c0.3-0.2,0.7-0.2,1.1-0.3
		c0,0.4,0.1,0.8,0.1,1.1c-0.2,1.6,0.1,3.1,1.2,4.3c0.5,0.6,1.9,0.9,2.9,0.8c1-0.1,1.7-0.4,2.4-1.3c0.7-1,1-2,0.9-3.1
		C380.1,114.5,380,114.1,380,113.5z"/>
</g>
<path class="st2" d="M407,154.4l-5.7,4.4c-0.1,0.1-0.2,0.2-0.4,0.2l-5.9,1.7c-0.2,0.1-0.4,0.1-0.6,0l-5.9-1.7
	c-0.1,0-0.3-0.1-0.4-0.2l-5.7-4.4c-0.7-0.5-0.5-1.5,0.2-1.9l2-1c0.2-0.1,0.4-0.1,0.7-0.1l5.1,0.8c0.1,0,0.1,0,0.2,0l4.1,0.1l4.1-0.1
	c0.1,0,0.1,0,0.2,0l5-0.8c0.2,0,0.5,0,0.7,0.1l2.1,1C407.6,152.9,407.7,153.9,407,154.4z"/>
<path class="st3" d="M399.9,106.1c0.1,0.4,0.1,0.8,0.1,1.1c0.1,0.5,0.4,0.9,0.9,1l2,0.5c0.2,0,0.3,0,0.5,0l13.3-2.7
	c0.2,0,0.3,0,0.5,0c1.2,0.3,7.1,1.6,7.1,1.5s1.1,0.4,2.1,0.9c0.8,0.4,1.7-0.3,1.6-1.2l0,0c0-0.4-0.3-0.7-0.6-0.9
	c-2.1-1-9.4-4.5-9.5-4.4c-0.2,0.1-7.5,0.6-8.5,0.7c-0.1,0-0.1,0-0.2,0l-8.3,2.2C400.1,105,399.8,105.5,399.9,106.1z"/>
<path class="st3" d="M389.2,106.1c-0.1,0.4-0.1,0.8-0.1,1.1c-0.1,0.5-0.4,0.9-0.9,1l-2,0.5c-0.2,0-0.3,0-0.5,0l-13.3-2.7
	c-0.2,0-0.3,0-0.5,0c-1.2,0.3-7.1,1.6-7.1,1.5s-1.1,0.4-2.1,0.9c-0.8,0.4-1.7-0.3-1.6-1.2l0,0c0-0.4,0.3-0.7,0.6-0.9
	c2.1-1,9.4-4.5,9.5-4.4c0.2,0.1,7.5,0.6,8.5,0.7c0.1,0,0.1,0,0.2,0l8.3,2.2C389,105,389.3,105.5,389.2,106.1z"/>
<path d="M-532.2,300.2c-12.8,0-24.4,0-36,0c-0.1-0.2-0.3-0.5-0.4-0.7c1.6-0.8,3.1-2.2,4.8-2.4c5.5-0.8,11.1-1.5,16.7-1.6
	c6.2-0.1,8.3-2.4,5.5-8.3c-3.5-7.2-8.1-13.9-12.2-20.9c-0.7,0-1.4,0-2.1,0c-1.9,3.1-4.1,6.1-5.6,9.3c-3.3,7.3-7.7,13.5-15.4,16.9
	c-13.5,6-27.6-4.3-32.1-14.4c-1.6-3.6-2.6-7.5-4.1-11.6c-1.9,0.9-3.6,1.7-6.3,3.1c1.6-2.7,2.7-4.6,3.8-6.5c-0.3-0.2-0.6-0.5-0.9-0.7
	c-7,4-14,8-21.9,12.5c6.7,7,13.3,14,20.5,21.5c-3.7-0.2-7.7,0.2-11.4-0.8c-9-2.4-17.8-5.5-26.7-8c-4.7-1.3-9.7-1.7-14.3-3.2
	c-6-1.9-6.6-4-2-8.2c14.1-12.9,29.3-23.4,49.7-23.3c20.7,0.1,41.2,1,61.5,5.6c3.1,0.7,6.4,2.3,8.7,4.6
	C-542.2,273.3-538.3,286.8-532.2,300.2z M-574,266.6c0.4-0.2,0.8-0.4,1.1-0.6c-0.5-1.2-0.8-3.1-1.7-3.6c-2.5-1.4-5.9-0.7-6.8,0.8
	C-578.9,264.3-576.4,265.4-574,266.6z"/>
<path d="M-416.2,26.6c-6.8,1.6-11.3,7.3-12.2,15.3c-1.1-0.5-2.2-0.9-3.3-1.4c-0.3,0.3-0.7,0.5-1,0.8c1.8,3,2.9,6.9,5.5,8.7
	c2.7,1.9,6.8,1.7,10.4,2.4c0,0.4,0,0.8,0.1,1.3c-5.8,0-11.5,0.1-17.3,0c-4.6-0.2-9,0-12.9,4.2c0-1.1-0.4-2.4,0.1-3.3
	c5.3-9.2,10.4-18.6,16.4-27.4c2-2.9,6.3-4.2,9.6-6.1c3.7-2.2,7.3-4.9,11.2-6.4c3-1.2,6.6-1.6,10-1.5c16.1,0.4,32.4-0.4,48.2,2
	c9.4,1.4,18.1,7.9,27.1,12.3c3.1,1.5,6.1,3.5,8.9,5.5c2.7,2,2.6,4-0.7,5.6c-11.9,5.6-23.4,12.1-35.6,16.7
	c-12.3,4.7-25.9,7.1-38.6,3.1c-6.9-2.1-12.6-8.7-18.3-13.9c-4-3.6-6.3-8.5-6.1-14.3C-414.8,28.9-415.7,27.7-416.2,26.6z
	 M-361.6,19.9c-0.5,2.6-0.4,4.7-0.9,4.9c-5.4,1.9-2.7,6.3-3.4,9.7c-0.7,3.2-1.6,6.5-3.2,9.4c-1.7,3.2-3.3,6-1.3,9.1
	c11.7-0.1,16.7-8.2,21.4-17.2C-352.8,31-356.8,25.9-361.6,19.9z M-404.6,23.8c-2.4,12.5-1.7,13.5,8.7,12.5
	C-395.5,22.3-395.5,22.3-404.6,23.8z"/>
<path d="M-620,415.2c0.7,1.4,1.1,2.2,1.7,3.3c-3.8,2-7.4,4.6-11.5,0.4c-0.6-0.7-2.1-0.6-3.2-0.7c-10-1.4-20-2.8-30.6-4.2
	c2.1-2.9-3.3-7.4,3.5-7.7c-1.6-0.9-3.1-1.7-6.2-3.3c7.9-5.3,14.2-10.6,21.4-14c16.9-8.3,35-9.5,53.4-6.1c8.2,1.5,16.5,3.3,25.1,5
	c-7.4-5.8-15.7-8.8-24.4-10.7c21.5-0.6,51.3,24.1,55.9,40.1c-12.7,1.3-25.5,2.6-38.2,3.9c-0.1-0.5-0.1-1-0.2-1.4
	c6.9-1.4,13.9-2.6,20.8-4.1c1.6-0.3,3-1.5,4.5-2.2c-0.8-1.3-1.5-2.8-2.4-4c-1.6-2.1-3.3-4.2-5.1-6.1c-1-1-2.2-1.9-3.4-2.5
	c-4.9-2.6-9.8-5-15.6-8c-1.3,2.5-2.6,5.2-3.9,7.9c-2.3,4.6-4.2,9.4-7,13.6c-2.8,4.4-7,6.7-12.7,5.8c-1.7-0.3-3.6,1.1-5.4,1.6
	c-0.7,0.2-2.2,0.4-2.2,0.3c-1.6-5.8-7.3-3.3-10.7-5.2C-617.5,416.3-618.5,416-620,415.2z M-628,398.4c-2.4,1.7-5,3.5-7.4,5.4
	c-0.6,0.5-1,1.8-0.9,2.7c0.5,4.3,10.8,9.6,14.9,8C-623.5,409.3-625.7,404-628,398.4z"/>
<path d="M-544,51.1c2.5,0.7,5,1.5,7.6,2.2c0,0.3,0.1,0.7,0.1,1c-1.5,0.3-3,1.1-4.3,1c-12.7-1.8-24.4,2.9-36.5,5.4
	c-6.4,1.4-13.1,1.6-19.8,1.5c1.8-0.4,3.6-0.7,6.1-1.2c-3.5-2.6-6.6-4.6-9.4-7c-5.6-4.7-9-10.5-9.4-18c-0.1-2.1-1.3-4.2-2.1-6.7
	c0,0.1,0.6-0.4,0.8-0.9c0.6-1.7,1-3.4,1.5-5.1c-1.7,0.1-3.7-0.2-5.1,0.5c-5.7,3.3-11.2,6.9-16.7,10.6c-5.7,3.9-6,9.9-0.6,14.4
	c2,1.7,4.2,3.3,6.3,4.8c2,1.4,4.2,2.6,6.4,3.9c-0.1,0.4-0.2,0.8-0.4,1.2c-4.7-1.6-9.3-3.2-14-4.7c-0.1,0.3-0.2,0.6-0.4,0.8
	c2.1,1,4.3,2.1,6.5,3.2c-8.5-0.4-15.9-3.7-22.1-9.7c-1-1-2.4-1.8-3.5-2.7c-1.4-1.1-2.8-2.3-5.2-4.2c0.1,0-1.2,0.5-2.7,1.1
	c0-1.1,0.1-2.1,0-3.2c-0.7-7.5-0.3-8.8,6.4-11.5c8.9-3.6,17.7-8.1,27-9.9c14.4-2.8,28.9-4.8,43.9-2c17.2,3.3,28.9,13.9,39.3,26.5
	c1.4,1.7,1,5,1.5,7.6C-543.2,50.3-543.6,50.7-544,51.1z M-553.6,50.2c-0.6-4.6-1.2-8.6-1.9-13.9c-6.3,7.4-11.5,13.6-16.8,19.8
	c0.3,0.4,0.6,0.9,1,1.3C-565.5,55-559.6,52.6-553.6,50.2z M-592.4,36.4c0.1,0,0.1,0,0.2,0c0-1.5,0.1-3,0-4.5c-0.4-3.8-2.8-5-6-3
	c-4.3,2.5-4.7,11.1-0.5,13.9c1.2,0.8,3.2,0.9,4.6,0.5c0.9-0.3,1.4-2.2,1.8-3.4C-592.2,38.8-592.4,37.5-592.4,36.4z"/>
<path d="M-561.2,176c5.4-4.2,11.9-4.8,18.5-5.4c1.7-0.1,3.3-0.7,5-1c-0.7-1.5-1.5-2.9-2.1-4.4c-0.7-2-1.3-4-1.9-6
	c-2.3-8.5-9.5-13.2-15-20c-1,5.4-1.7,10.1-2.8,14.7c-1.5,6.4-5.8,10.8-10.9,14.3c-6.1,4.2-13.5,4.2-19.6-0.6
	c-10.5-8.2-15.6-16.6-9.1-30.7c0.4-0.9,0.7-1.8,1.3-3.3c-7.6-2.4-11.5,3.3-16,6.8c-5.1,4-10.2,8.3-5.9,16.3
	c-1.7-1.9-3.5-3.8-5.2-5.7c-0.4,0.4-0.9,0.8-1.3,1.2c4.9,13.9,14,24,28.9,28.9c-11,0.8-20.4-2.8-29.4-7.9c-5.7-3.2-11.6-6-17.2-9.3
	c-3.8-2.2-7.6-4.7-11-7.6c-2.4-2.1-3.1-4.5,0.8-6.6c9.7-5,19.5-10,28.8-15.7c14.5-8.9,29.7-10.8,45.9-6.1c2.8,0.8,5.9,1.1,8.9,1.2
	c6.5,0.2,11.8,2.7,16.2,7.5c8,8.7,14.8,18,18.1,29.5c0.5,1.7,1.3,3.9,0.7,5.3c-0.8,1.8-2.8,4.3-4.4,4.4
	C-547,176.3-554,176-561.2,176z"/>
<path d="M-360,181.1c7.1-5.5,13.5-10.5,20-15.6c-0.4-0.6-0.8-1.2-1.2-1.9c-2.9,1.2-5.7,2.5-8.6,3.7c-0.4-0.5-0.7-0.9-1.1-1.4
	c2.5-2.8,5-5.5,8.2-8.9c-6.2-5.9-9.1-15.7-20.5-16.9c0.8,1.3,1.5,2.4,1.5,2.4c-1.3,2.1-2.5,3.4-3,5c-1.5,4.7-2,9.8-4.3,14.1
	c-7.2,13.2-22.6,15.3-34,5.4c-6.9-5.9-7.7-14.4-10.9-22.4c-12,4.7-19.4,13.1-20.8,26.3c5.3,3.3,13.2-1,16.9,8
	c-4.5-0.5-7.9-1.1-11.3-1.2c-3.7-0.2-7.5,0-12.3,0c0.4-2.1,0.3-5.4,1.6-8.2c4.9-10.6,10.7-20.3,20.7-27.5
	c10.9-7.8,22.8-9.8,35.7-10.2c13.8-0.5,27.2,2.3,40.3,5.5c12.7,3.1,24.3,9.5,35.1,17.1c2.9,2,1.1,4.2-0.5,5.3
	c-2.9,1.9-6.1,3.3-9.3,4.6c-6.2,2.5-12.5,4.8-18.8,7.3C-344.2,174.8-351.9,177.9-360,181.1z"/>
<path d="M-443,416.8c7.8,0,15.7,0,23.5,0c1.5,0,3.1-0.4,4.6-0.6c-0.6-1.4-1.1-2.9-1.7-4.3c-1.8-4.6-3.5-9.1-5.8-15
	c-4.6,3.9-9.3,7.9-14,11.9c-0.3-0.5-0.7-0.9-1-1.4c3.1-6.9,8.9-11.5,14.9-15.5c5.6-3.8,11.6-7.2,17.9-9.9c2.8-1.2,6.5-0.4,9.8-0.6
	c2.1-0.1,4.3-0.6,6.4-0.4c10.1,0.6,20.2,1,30.2,2.3c4,0.5,7.7,3.6,11.6,5.1c11.3,4.2,21.6,10.1,30.5,18.3c1.4,1.3,2.9,2.9,3.6,4.7
	c0.3,0.9-1,3.5-1.8,3.7c-10.4,1.8-20.9,3.2-31.4,4.8c-2.3,0.3-4.5,1.2-6.8,1.3c-1.1,0-2.3-1-2.7-1.2c3.4-3.2,7-5.3,8.7-8.4
	c2.2-4-0.5-8.3-3.3-11c-3.2-3.1-7.5-5.1-11.5-7.3c-3.6-2-5.6,0.4-7,3.2c-3.3,6.6-6.5,13.3-9.7,20.1c-0.5,1.1-0.5,2.5-0.9,4.4
	c-3.1,0.2-6.5-0.1-9.6,0.7c-6.4,1.5-12.8,0.5-19.1,0c-6.6-0.5-13.1-1.9-19.6-2.5c-3.7-0.4-7.6,0.1-11.3,0c-1.7,0-3.3-0.6-5-0.9
	C-443.3,417.7-443.1,417.3-443,416.8z"/>
<path d="M-428.7,293.4c-3.2,1.1-6.3,2.3-9.5,3.4c-0.3-0.5-0.5-1.1-0.8-1.6c1.3-1.5,2.6-3,3.9-4.6c-3.5-6.2-3-9.9,2-15.3
	c4-4.4,7.5-9.3,11.9-13.2c7.7-6.8,17.5-7.9,27.2-8.1c14.1-0.3,28.3-0.4,42.3,0.9c7,0.7,13.6,4.7,20.3,7.5c2.6,1.1,5,2.7,7.4,4.2
	c2.4,1.5,6,1.9,5.6,6.4c-0.1,1.2,2.3,2.6,3.7,3.8c2.2,1.9,2.1,3.9-0.4,5.1c-8.3,4-16.5,9-25.3,10.9c-4,0.9-9.2,1.9-15.4,1.3
	c5.9-6.3,10.9-11.7,15.9-17.1c-4.3-7.3-11.1-11.5-19.3-13.3c-1.1,0.9-2.2,1.9-2.8,2.4c-2.4,6.5-3.8,13.3-7.1,18.9
	c-6.1,10.4-18.5,13.5-28.5,6.8c-5.3-3.5-9.4-9.2-13.4-14.4c-2.4-3.2-3.5-7.3-5.8-12.5c-4.8,4.6-9.3,8.4-13.2,12.7
	c-5.2,5.6-1.9,10.8,1.4,15.8L-428.7,293.4z M-386.4,262c-0.1,1-0.1,2.1-0.2,3.1c2.5,0.5,5,1.2,7.5,1.3c0.8,0,2-1.4,2.4-2.4
	c0.2-0.4-1.2-2.1-1.9-2.2C-381.2,261.7-383.8,261.9-386.4,262z"/>
<path d="M-433.8-197.7c2.8-5.7,5.2-11.6,8.5-16.8c1.4-2.1,5-2.7,7.6-4c1.2-0.6,2.4-1.1,3.5-1.9c18.8-13.6,39.6-17.2,62.1-12.2
	c14,3.1,25.8,10.8,37.7,18.2c1.4,0.8,2.5,2.2,3.4,3.6c1.8,2.7,1.1,4.7-2.2,5.5c-17.7,4.4-35.3,8.9-53,13.2c-1.5,0.4-3.6,0.5-4.8-0.3
	c-7.7-5.4-16.7-3.3-25.1-4.3c-6.7-0.8-13.4-0.9-20.2-1.1C-421.9-197.8-427.5-197.7-433.8-197.7z M-364-201.8
	c0.4,0.6,0.8,1.2,1.1,1.8c5.8-2.5,11.7-4.7,17.2-7.7c1.4-0.8,2.6-5.3,1.9-5.9c-3.1-2.8-6.8-4.9-10.5-6.8c-0.8-0.4-3.5,1.2-4,2.5
	C-360.4-212.6-362.1-207.2-364-201.8z M-408.9-218.3c-5.2,2.5-9.2,6.2-12.3,11c-0.9,1.4-1.6,2.8-2.4,4.2c1.4,0,2.8,0,4.2,0
	c0.3,0,0.5,0.6,0.8,0.8c5.5,3,11.2,3.7,17,2.8C-404-205.8-406.3-211.7-408.9-218.3z M-396.9-219c0.4,3.9-2.1,8.8,3.4,10.1
	c4.1,1,3.7-2.9,4-5.6C-388.8-220.5-392.7-219.3-396.9-219z"/>
<path d="M-655.7-205.8c3.4-3.8,5.7-7,8.6-9.3c4.2-3.3,8.8-6.5,13.6-8.8c7.2-3.5,14.7-6.4,22.3-9c11.1-3.9,22.4-1.9,33.5-0.3
	c20.6,2.9,30.5,18.9,42,34.8c-4.3,0.6-7.5,1-10.6,1.4c-9.8,1.2-19.6,2.9-29.4,3.3c-8.6,0.4-17.3-0.6-25.9-1.4
	c-6.6-0.6-10.3-5.1-11.5-13.5c-0.6-4.3-0.7-8.6-1.1-13.3c-7.3,0.8-13.4,4.1-18.6,8.7c-2.6,2.3-2.1,5.4,0.5,7.9
	c1.5,1.4,3.1,2.8,4.3,4.9c-1.9-0.6-3.8-1.2-5.7-1.8c-0.2,0.3-0.4,0.6-0.5,0.9c2.7,1.8,5.4,3.5,8.2,5.3
	C-635.3-201.5-648.1-198-655.7-205.8z M-561-213.2c-1.1,0.2-3,0.5-5.4,0.8c0,3.4,0,6.9,0,10.4c12.5-1.8,12.5-1.8,12.8-4.9
	C-556.2-209.1-558.3-211-561-213.2z M-596.9-220.2c-3,1-6.9,1.6-7,2.5c-0.2,3,0.6,6.3,1.7,9.2c0.3,0.8,3,1.2,4.3,0.9
	c0.8-0.2,1.5-2.2,1.6-3.4C-596.2-213.5-596.6-216.1-596.9-220.2z"/>
<g>
	<path class="st0" d="M404.8,118.5c0,0,6.3,2.2,12.5,0.8s6.4-2.4,6.4-2.4l-5-3.6l-3.4-0.8l-6,0.5l-1.5,1.1l-2,2.1L404.8,118.5z"/>
	<path class="st1" d="M408.8,113.6c-2.1,1.2-3.2,3.1-4.1,5c-0.1-0.1-0.2-0.1-0.2-0.2c0-0.3,0-0.6,0.1-0.8c1.3-2.3,2.8-4.6,5.6-5.3
		c3.8-0.9,7.5-0.5,10.8,1.9c1.1,0.8,2.1,1.6,3.2,2.5c-1.6,1.5-7,3.2-7.6,2.4c0.4-0.1,0.7-0.1,1-0.2c0.8-0.3,1.7-0.6,2.5-1
		c0.4-0.2,0.2-0.5-0.2-0.5c-0.1,0-0.2,0-0.5,0c1-0.9,1-1.1,0-2.1c-0.7-0.7-1.4-1.3-2.1-1.8c-0.3-0.2-0.7-0.2-1.1-0.3
		c0,0.4-0.1,0.8-0.1,1.1c0.2,1.6-0.1,3.1-1.2,4.3c-0.5,0.6-1.9,0.9-2.9,0.8c-1-0.1-1.7-0.4-2.4-1.3c-0.7-1-1-2-0.9-3.1
		C408.7,114.6,408.7,114.3,408.8,113.6z"/>
</g>
<path d="M-633-74.1c-2.3,0.6-4,1.1-5.6,1.6c0.7,2.5,1.2,4.4,1.7,6.3c-0.4,0.3-0.7,0.6-1.1,1c-1.8-1.2-3.6-2.3-5.4-3.6
	c-4.5-3.1-8.8-6.6-13.4-9.4c-4-2.5-4.5-3.9-0.9-7c12.8-11.6,27.8-18.2,45.1-18.7c17.1-0.5,34,0.6,49.7,8.2c2.1,1,4,2.6,5.5,4.7
	c-2.3-0.9-4.6-1.8-7.4-3c-0.3,3.3-0.7,5.7-0.6,8.2c0.2,8.2-4,14.3-9.6,19.5c-7.3,6.7-16.7,6.7-24.5,0.6c-9.7-7.6-14-17-10.4-29.3
	c1.6-5.7,0.7-6.5-5.1-5.3c-4.5,1-8.9,1.8-12.1,6c-1.7,2.2-5.3,2.9-8,4.2c-2.2,1.1-3.4,1.8-1.7,4.8C-634.9-81.9-634.2-77.8-633-74.1z
	"/>
<path d="M-650,386.8c9.6-6.8,21.5-9.5,34-10.2C-627.6,380.1-639.2,383.6-650,386.8z"/>
<path d="M-562.4-63.3c5.3-0.7,10.6-1.3,16-2c0,0.3,0.1,0.6,0.1,0.9c-5.3,0.9-10.5,1.8-15.8,2.7C-562.2-62.3-562.3-62.8-562.4-63.3z"
	/>
<path d="M-633.4-64.1c3.3,1.6,6.6,3.1,9.8,4.7C-625.6-56.7-628.5-57.8-633.4-64.1z"/>
<path d="M-428.6,293.5c1.2-0.2,2.6-0.9,3.6-0.6c2.3,0.8,4.3,2.1,7.3,3.7c-3.5,0.2-6.2,0.4-8.8,0.6c-0.8-1.4-1.5-2.6-2.2-3.8
	C-428.7,293.4-428.6,293.5-428.6,293.5z"/>
<path d="M-581.9,178.5c-2.5,1.8-4.6,3.3-6.7,4.9C-589.7,178.8-588.2,177.7-581.9,178.5z"/>
<path class="st0" d="M-574,266.6c-2.4-1.1-4.9-2.2-7.3-3.4c0.8-1.5,4.3-2.2,6.8-0.8c0.9,0.5,1.2,2.4,1.7,3.6
	C-573.2,266.2-573.6,266.4-574,266.6z"/>
<path class="st0" d="M-361.6,19.9c4.8,6,8.8,11.1,12.6,15.9c-4.7,9-9.7,17.1-21.4,17.2c-1.9-3.1-0.3-6,1.3-9.1
	c1.5-2.9,2.5-6.2,3.2-9.4c0.7-3.4-2-7.8,3.4-9.7C-361.9,24.6-362,22.5-361.6,19.9z"/>
<path class="st0" d="M-404.6,23.8c9-1.6,9-1.6,8.7,12.5C-406.2,37.4-407,36.3-404.6,23.8z"/>
<path class="st0" d="M-628,398.4c2.3,5.6,4.4,10.8,6.6,16.1c-4.1,1.6-14.4-3.7-14.9-8c-0.1-0.9,0.3-2.1,0.9-2.7
	C-632.9,401.9-630.3,400.2-628,398.4z"/>
<path class="st0" d="M-553.6,50.2c-6,2.4-11.8,4.8-17.7,7.2c-0.3-0.4-0.6-0.9-1-1.3c5.2-6.2,10.5-12.4,16.8-19.8
	C-554.8,41.6-554.3,45.6-553.6,50.2z"/>
<path class="st0" d="M-592.4,36.4c0,1.2,0.2,2.4-0.1,3.5c-0.3,1.3-0.9,3.1-1.8,3.4c-1.4,0.5-3.4,0.3-4.6-0.5
	c-4.2-2.7-3.7-11.3,0.5-13.9c3.3-1.9,5.6-0.8,6,3c0.2,1.5,0,3,0,4.5C-592.3,36.4-592.4,36.4-592.4,36.4z"/>
<path class="st0" d="M-386.4,262c2.6-0.1,5.2-0.4,7.8-0.2c0.7,0.1,2.1,1.7,1.9,2.2c-0.4,1-1.6,2.4-2.4,2.4c-2.5-0.1-5-0.8-7.5-1.3
	C-386.6,264.1-386.5,263.1-386.4,262z"/>
<path class="st0" d="M-364-201.8c1.9-5.4,3.6-10.9,5.8-16.1c0.5-1.2,3.2-2.8,4-2.5c3.7,1.8,7.4,4,10.5,6.8c0.7,0.6-0.5,5.2-1.9,5.9
	c-5.5,3-11.4,5.2-17.2,7.7C-363.2-200.5-363.6-201.1-364-201.8z"/>
<path class="st0" d="M-408.9-218.3c2.6,6.6,4.9,12.5,7.4,18.8c-5.8,1-11.6,0.2-17-2.8c-0.3-0.2-0.5-0.8-0.8-0.8
	c-1.4-0.1-2.8,0-4.2,0c0.8-1.4,1.5-2.9,2.4-4.2C-418.1-212.1-414.1-215.8-408.9-218.3z"/>
<path class="st0" d="M-396.9-219c4.2-0.3,8.1-1.4,7.4,4.5c-0.3,2.7,0.1,6.6-4,5.6C-399-210.3-396.5-215.1-396.9-219z"/>
<path class="st0" d="M-561-213.2c2.6,2.2,4.8,4.1,7.5,6.3c-0.3,3.1-0.3,3.1-12.8,4.9c0-3.6,0-7,0-10.4
	C-564-212.8-562-213.1-561-213.2z"/>
<path class="st0" d="M-596.9-220.2c0.3,4.1,0.7,6.7,0.7,9.3c0,1.2-0.8,3.2-1.6,3.4c-1.4,0.3-4-0.1-4.3-0.9c-1.1-2.9-2-6.2-1.7-9.2
	C-603.8-218.5-599.9-219.2-596.9-220.2z"/>
<g>
	<path class="st4" d="M401.9,138.5c0.7,3.3-4.7,4.9-7.2,4.8c-2.5,0.1-7.9-1.5-7.2-4.8c0.4,0.7,0.9,1,1.5,1.2
		C391.5,140.4,400.5,141,401.9,138.5L401.9,138.5z"/>
</g>
</svg>
