<?xml version="1.0" encoding="utf-8"?>
<!-- Generator: Adobe Illustrator 26.0.3, SVG Export Plug-In . SVG Version: 6.00 Build 0)  -->
<svg version="1.1" id="Calque_1" xmlns="http://www.w3.org/2000/svg" xmlns:xlink="http://www.w3.org/1999/xlink" x="0px" y="0px"
	 viewBox="0 0 788 1005" style="enable-background:new 0 0 788 1005;" xml:space="preserve">
<style type="text/css">
	.st0{fill:#FFFFFF;}
	.st1{fill:#423522;}
	.st2{fill:#AF7C66;}
	.st3{fill:#635132;}
	.st4{fill:#AD717F;}
</style>
<g>
	<path class="st0" d="M383.8,118.7c0,0-6.3,2.2-12.5,0.8s-6.4-2.4-6.4-2.4l5-3.6l3.4-0.8l6,0.5l1.5,1.1l2,2.1L383.8,118.7z"/>
	<path class="st1" d="M379.8,113.8c2.1,1.2,3.2,3.1,4.1,5c0.1-0.1,0.2-0.1,0.2-0.2c0-0.3,0-0.6-0.1-0.8c-1.3-2.3-2.8-4.6-5.6-5.3
		c-3.8-0.9-7.5-0.5-10.8,1.9c-1.1,0.8-2.1,1.6-3.2,2.5c1.6,1.5,7,3.2,7.6,2.4c-0.4-0.1-0.7-0.1-1-0.2c-0.8-0.3-1.7-0.6-2.5-1
		c-0.4-0.2-0.2-0.5,0.2-0.5c0.1,0,0.2,0,0.5,0c-1-0.9-1-1.1,0-2.1c0.7-0.7,1.4-1.3,2.1-1.8c0.3-0.2,0.7-0.2,1.1-0.3
		c0,0.4,0.1,0.8,0.1,1.1c-0.2,1.6,0.1,3.1,1.2,4.3c0.5,0.6,1.9,0.9,2.9,0.8c1-0.1,1.7-0.4,2.4-1.3c0.7-1,1-2,0.9-3.1
		C379.9,114.8,379.9,114.4,379.8,113.8z"/>
</g>
<g>
	<path class="st2" d="M401.7,138.8c0.7,3.3-4.7,4.9-7.2,4.8c-2.5,0.1-7.9-1.5-7.2-4.8c0.4,0.7,0.9,1,1.5,1.2
		C391.3,140.8,400.4,141.4,401.7,138.8L401.7,138.8z"/>
</g>
<path class="st3" d="M399.9,106.1c0.1,0.4,0.1,0.8,0.1,1.1c0.1,0.5,0.4,0.9,0.9,1l2,0.5c0.2,0,0.3,0,0.5,0l13.3-2.7
	c0.2,0,0.3,0,0.5,0c1.2,0.3,7.1,1.6,7.1,1.5s1.1,0.4,2.1,0.9c0.8,0.4,1.7-0.3,1.6-1.2l0,0c0-0.4-0.3-0.7-0.6-0.9
	c-2.1-1-9.4-4.5-9.5-4.4c-0.2,0.1-7.5,0.6-8.5,0.7c-0.1,0-0.1,0-0.2,0l-8.3,2.2C400.1,105,399.8,105.5,399.9,106.1z"/>
<path class="st3" d="M389.2,106.1c-0.1,0.4-0.1,0.8-0.1,1.1c-0.1,0.5-0.4,0.9-0.9,1l-2,0.5c-0.2,0-0.3,0-0.5,0l-13.3-2.7
	c-0.2,0-0.3,0-0.5,0c-1.2,0.3-7.1,1.6-7.1,1.5s-1.1,0.4-2.1,0.9c-0.8,0.4-1.7-0.3-1.6-1.2l0,0c0-0.4,0.3-0.7,0.6-0.9
	c2.1-1,9.4-4.5,9.5-4.4c0.2,0.1,7.5,0.6,8.5,0.7c0.1,0,0.1,0,0.2,0l8.3,2.2C389,105,389.3,105.5,389.2,106.1z"/>
<path class="st4" d="M409.6,153l-7,5.3c-0.2,0.1-0.4,0.2-0.6,0.2l-6.5,1c-0.1,0-0.3,0-0.4,0l-6.4-1c-0.2,0-0.4-0.1-0.6-0.2l-7-5.3
	c-0.1-0.1-0.1-0.3,0.1-0.3l3.8,0.3l5.7,0.5c0.1,0,0.1,0,0.2,0l4.1,0.9c0.2,0,0.4,0,0.5,0l4.2-0.9c0.1,0,0.1,0,0.2,0l5.7-0.5l3.8-0.3
	C409.6,152.6,409.7,152.9,409.6,153z"/>
<path class="st1" d="M423.1,119.1l-3.4-1c0,0-8.3,0.1-8.6,0.4c0,0-1.9,0.6-3.1,1.1c-1.2,0.6-2.5,0.3-2.5,0.3l0.2-1
	c0,0,3.3-2.6,4.5-2.8c2.1-0.4,9.2,0.5,9.3,0.5c0.3,0.1,4.4,1.6,4.8,2.2C424.5,118.9,423.1,119.1,423.1,119.1z"/>
</svg>
