<?xml version="1.0" encoding="utf-8"?>
<!-- Generator: Adobe Illustrator 26.0.3, SVG Export Plug-In . SVG Version: 6.00 Build 0)  -->
<svg version="1.1" id="Calque_1" xmlns="http://www.w3.org/2000/svg" xmlns:xlink="http://www.w3.org/1999/xlink" x="0px" y="0px"
	 viewBox="0 0 788 1005" style="enable-background:new 0 0 788 1005;" xml:space="preserve">
<style type="text/css">
	.st0{fill:#FFFFFF;}
	.st1{fill:#423522;}
	.st2{fill:#AF7C66;}
	.st3{fill:#635132;}
	.st4{fill:#310800;}
	.st5{fill:#AD717F;}
	.st6{fill:#EBB4C9;}
</style>
<g>
	<g>
		<path class="st0" d="M405.1,118.6c0,0,6.3,2.2,12.5,0.8s6.4-2.4,6.4-2.4l-5-3.6l-3.4-0.8l-6,0.5l-1.5,1.1l-2,2.1L405.1,118.6z"/>
		<path class="st1" d="M409.1,113.7c-2.1,1.2-3.2,3.1-4.1,5c-0.1-0.1-0.2-0.1-0.2-0.2c0-0.3,0-0.6,0.1-0.8c1.3-2.3,2.8-4.6,5.6-5.3
			c3.8-0.9,7.5-0.5,10.8,1.9c1.1,0.8,2.1,1.6,3.2,2.5c-1.6,1.5-7,3.2-7.6,2.4c0.4-0.1,0.7-0.1,1-0.2c0.8-0.3,1.7-0.6,2.5-1
			c0.4-0.2,0.2-0.5-0.2-0.5c-0.1,0-0.2,0-0.5,0c1-0.9,1-1.1,0-2.1c-0.7-0.7-1.4-1.3-2.1-1.8C417.3,113.4,414.5,112.5,409.1,113.7z"
			/>
	</g>
	<g>
		<path class="st0" d="M384.3,118.7c0,0-6.3,2.2-12.5,0.8s-6.4-2.4-6.4-2.4l5-3.6l3.4-0.8l6,0.5l1.5,1.1l2,2.1L384.3,118.7z"/>
		<path class="st1" d="M380.3,113.8c2.1,1.2,3.2,3.1,4.1,5c0.1-0.1,0.2-0.1,0.2-0.2c0-0.3,0-0.6-0.1-0.8c-1.3-2.3-2.8-4.6-5.6-5.3
			c-3.8-0.9-7.5-0.5-10.8,1.9c-1.1,0.8-2.1,1.6-3.2,2.5c1.6,1.5,7,3.2,7.6,2.4c-0.4-0.1-0.7-0.1-1-0.2c-0.8-0.3-1.7-0.6-2.5-1
			c-0.4-0.2-0.2-0.5,0.2-0.5c0.1,0,0.2,0,0.5,0c-1-0.9-1-1.1,0-2.1c0.7-0.7,1.4-1.3,2.1-1.8c0.3-0.2,0.7-0.2,1.1-0.3
			C375.4,112.9,378.1,112.9,380.3,113.8z"/>
	</g>
	<g>
		<path class="st2" d="M387.2,138.7c1.4,2.6,10.4,2,12.9,1.2c0.6-0.2,1.2-0.5,1.5-1.2c0.7,3.3-4.7,4.9-7.2,4.8
			C391.9,143.6,386.5,142,387.2,138.7L387.2,138.7z"/>
	</g>
</g>
<path class="st1" d="M413.8,114.3l-0.1-0.2c-0.2-0.3-0.4-0.7-0.8-1c-1.3,0-2.5,0.3-3.8,0.3c-0.3,0.2-0.9,0.7-1.1,0.8
	c-0.2,0.3-0.8,0.4-0.8,0.8c-0.1,0.3-0.4,0.6-0.4,0.8l0,0c-0.3,2.1,0.8,3.5,2.9,3.8c0.2,0,0.3,0,0.5,0h0.2c2.1-0.1,3.7-1.8,3.7-3.9
	C414.1,115.3,414,114.8,413.8,114.3z"/>
<path class="st1" d="M376.1,114.2l-0.1-0.2c-0.2-0.3-0.4-0.7-0.8-1c-1.3,0-2.5,0.3-3.8,0.3c-0.3,0.2-0.9,0.7-1.1,0.8
	c-0.2,0.3-0.8,0.4-0.8,0.8c-0.1,0.3-0.4,0.6-0.4,0.8l0,0c-0.3,2.1,0.8,3.5,2.9,3.8c0.2,0,0.3,0,0.5,0h0.2c2.1-0.1,3.7-1.8,3.7-3.9
	C376.3,115.2,376.2,114.7,376.1,114.2z"/>
<path class="st3" d="M399.7,98.7c0.1,0.4,0.1,0.8,0.1,1.1c0.1,0.5,0.4,0.9,0.9,1l2,0.5c0.2,0,0.3,0,0.5,0l13.3-2.7
	c0.2,0,0.3,0,0.5,0c1.2,0.3,7.1,1.6,7.1,1.5s1.1,0.4,2.1,0.9c0.8,0.4,1.7-0.3,1.6-1.2l0,0c0-0.4-0.3-0.7-0.6-0.9
	c-2.1-1-9.4-4.5-9.5-4.4c-0.2,0.1-7.5,0.6-8.5,0.7c-0.1,0-0.1,0-0.2,0l-8.3,2.2C399.9,97.6,399.6,98.1,399.7,98.7z"/>
<path class="st3" d="M389,98.7c-0.1,0.4-0.1,0.8-0.1,1.1c-0.1,0.5-0.4,0.9-0.9,1l-2,0.5c-0.2,0-0.3,0-0.5,0l-13.3-2.7
	c-0.2,0-0.3,0-0.5,0c-1.2,0.3-7.1,1.6-7.1,1.5s-1.1,0.4-2.1,0.9c-0.8,0.4-1.7-0.3-1.6-1.2l0,0c0-0.4,0.3-0.7,0.6-0.9
	c2.1-1,9.4-4.5,9.5-4.4c0.2,0.1,7.5,0.6,8.5,0.7c0.1,0,0.1,0,0.2,0l8.3,2.2C388.8,97.6,389.1,98.1,389,98.7z"/>
<g>
	<path class="st4" d="M382.2,153.9c0,0,10.7-2.1,10.8-2.2c0.2-0.1,3.9,0,3.9,0l10.3,2.3l-7.7,10.7l-9.5,0.2L382.2,153.9z"/>
	<path class="st5" d="M405.7,154.5l3.4-1c0,0-6.8,11.9-9.9,12.8c-2.9,1-6,1-8.9,0c-3.1-0.9-9.4-12.8-9.4-12.8l2.9,1
		c0,0,4.4,9,10.8,9.4C400.8,164.3,405.7,154.5,405.7,154.5z"/>
	<path class="st6" d="M384.7,152.4l1,1.5c0.6,0.4,1.3,0.6,2,0.6c0,0,5.4,0.2,7.1,0.2c1.8,0,6.9-0.2,6.9-0.2c0.7,0,1.4-0.2,2-0.6
		l0.4-1.2L384.7,152.4z"/>
	<path class="st5" d="M409.1,153.5l-3.4,1c0,0-8.2-1.8-11-1.8s-10.8,1.8-10.8,1.8l-2.9-1c0.4-0.6,8.2-5,10.5-4.3
		c1.1,0.3,2.1,0.7,3.2,1.1c0,0,1-0.4,3.3-1.1C400.3,148.5,408.6,152.9,409.1,153.5z"/>
</g>
</svg>
