<?xml version="1.0" encoding="utf-8"?>
<!-- Generator: Adobe Illustrator 26.0.3, SVG Export Plug-In . SVG Version: 6.00 Build 0)  -->
<svg version="1.1" id="Calque_1" xmlns="http://www.w3.org/2000/svg" xmlns:xlink="http://www.w3.org/1999/xlink" x="0px" y="0px"
	 viewBox="0 0 788 1005" style="enable-background:new 0 0 788 1005;" xml:space="preserve">
<style type="text/css">
	.st0{fill:#FFFFFF;}
	.st1{fill:#423522;}
	.st2{fill:#AF7C66;}
	.st3{fill:#6B313A;}
	.st4{fill:#635132;}
	.st5{fill:#310800;}
	.st6{fill:#AD717F;}
	.st7{fill:#EBB4C9;}
</style>
<g>
	<g>
		<path class="st0" d="M384.3,118.8c0,0-6.3,2.2-12.5,0.8s-6.4-2.4-6.4-2.4l5-3.6l3.4-0.8l6,0.5l1.5,1.1l2,2.1L384.3,118.8z"/>
		<path class="st1" d="M380.3,113.9c2.1,1.2,3.2,3.1,4.1,5c0.1-0.1,0.2-0.1,0.2-0.2c0-0.3,0-0.6-0.1-0.8c-1.3-2.3-2.8-4.6-5.6-5.3
			c-3.8-0.9-7.5-0.5-10.8,1.9c-1.1,0.8-2.1,1.6-3.2,2.5c1.6,1.5,7,3.2,7.6,2.4c-0.4-0.1-0.7-0.1-1-0.2c-0.8-0.3-1.7-0.6-2.5-1
			c-0.4-0.2-0.2-0.5,0.2-0.5c0.1,0,0.2,0,0.5,0c-1-0.9-1-1.1,0-2.1c0.7-0.7,1.4-1.3,2.1-1.8c0.3-0.2,0.7-0.2,1.1-0.3
			c0,0.4,0.1,0.8,0.1,1.1c-0.2,1.6,0.1,3.1,1.2,4.3c0.5,0.6,1.9,0.9,2.9,0.8c1-0.1,1.7-0.4,2.4-1.3c0.7-1,1-2,0.9-3.1
			C380.4,114.9,380.3,114.5,380.3,113.9z"/>
	</g>
	<g>
		<path class="st0" d="M405.1,119c0,0,6.3,2.2,12.5,0.8s6.4-2.4,6.4-2.4l-5-3.6l-3.4-0.8l-6,0.5l-1.5,1.1l-2,2.1L405.1,119z"/>
		<path class="st1" d="M409.1,114.1c-2.1,1.2-3.2,3.1-4.1,5c-0.1-0.1-0.2-0.1-0.2-0.2c0-0.3,0-0.6,0.1-0.8c1.3-2.3,2.8-4.6,5.6-5.3
			c3.8-0.9,7.5-0.5,10.8,1.9c1.1,0.8,2.1,1.6,3.2,2.5c-1.6,1.5-7,3.2-7.6,2.4c0.4-0.1,0.7-0.1,1-0.2c0.8-0.3,1.7-0.6,2.5-1
			c0.4-0.2,0.2-0.5-0.2-0.5c-0.1,0-0.2,0-0.5,0c1-0.9,1-1.1,0-2.1c-0.7-0.7-1.4-1.3-2.1-1.8c-0.3-0.2-0.7-0.2-1.1-0.3
			c0,0.4-0.1,0.8-0.1,1.1c0.2,1.6-0.1,3.1-1.2,4.3c-0.5,0.6-1.9,0.9-2.9,0.8c-1-0.1-1.7-0.4-2.4-1.3c-0.7-1-1-2-0.9-3.1
			C409,115.1,409,114.7,409.1,114.1z"/>
	</g>
	<g>
		<path class="st2" d="M402.2,138.9c0.7,3.3-4.7,4.9-7.2,4.8c-2.5,0.1-7.9-1.5-7.2-4.8c0.4,0.7,0.9,1,1.5,1.2
			C391.7,140.9,400.8,141.5,402.2,138.9L402.2,138.9z"/>
	</g>
</g>
<polygon class="st3" points="408.8,153.3 401.5,159 395.1,160.8 388.7,159 381.4,153.3 385.4,151.4 390.9,152.3 395.1,152.4 
	399.3,152.3 404.7,151.4 "/>
<path class="st4" d="M399.9,106.1c0.1,0.4,0.1,0.8,0.1,1.1c0.1,0.5,0.4,0.9,0.9,1l2,0.5c0.2,0,0.3,0,0.5,0l13.3-2.7
	c0.2,0,0.3,0,0.5,0c1.2,0.3,7.1,1.6,7.1,1.5s1.1,0.4,2.1,0.9c0.8,0.4,1.7-0.3,1.6-1.2l0,0c0-0.4-0.3-0.7-0.6-0.9
	c-2.1-1-9.4-4.5-9.5-4.4c-0.2,0.1-7.5,0.6-8.5,0.7c-0.1,0-0.1,0-0.2,0l-8.3,2.2C400.1,105,399.8,105.5,399.9,106.1z"/>
<path class="st4" d="M389.2,106.1c-0.1,0.4-0.1,0.8-0.1,1.1c-0.1,0.5-0.4,0.9-0.9,1l-2,0.5c-0.2,0-0.3,0-0.5,0l-13.3-2.7
	c-0.2,0-0.3,0-0.5,0c-1.2,0.3-7.1,1.6-7.1,1.5s-1.1,0.4-2.1,0.9c-0.8,0.4-1.7-0.3-1.6-1.2v-0.1c0-0.3,0.2-0.6,0.5-0.8
	c2-1,9.5-4.6,9.6-4.5c0.2,0.1,7.5,0.6,8.5,0.7c0.1,0,0.1,0,0.2,0l8.3,2.2C389,105,389.3,105.5,389.2,106.1z"/>
<g>
	<path class="st5" d="M382.3,153.7c0,0,10.7-2.1,10.8-2.2s3.9,0,3.9,0l10.3,2.3l-9.7,10.4h-5L382.3,153.7z"/>
	<path class="st6" d="M405.7,154.2l3.4-1c0,0-8.3,12.5-10.7,13.1c-3.6,0.6-4.9,0.7-7.8-0.3c-1.9-1.4-9.6-12.8-9.6-12.8l2.9,1
		c0,0,7.3,8,10.9,8S405.7,154.2,405.7,154.2z"/>
	<path class="st7" d="M385.1,153.2l0.7,1.4c0.4,0.8,1.1,1.3,2,1.4c0,0,5.4,0.4,7.1,0.4s6.9-0.4,6.9-0.4c0.9-0.1,1.6-0.6,2-1.4
		l0.4-0.9L385.1,153.2z"/>
	<path class="st6" d="M409.1,153.2l-3.4,1c0,0-8.2-0.8-11-0.8s-10.9,0.8-10.9,0.8l-2.9-1c0.4-0.6,10.5-4.3,10.5-4.3
		c1.1,0.3,2.1,0.7,3.2,1.1c0,0,1-0.4,3.4-1.1C398.1,148.9,408.7,152.6,409.1,153.2z"/>
</g>
</svg>
