<?xml version="1.0" encoding="utf-8"?>
<!-- Generator: Adobe Illustrator 26.0.3, SVG Export Plug-In . SVG Version: 6.00 Build 0)  -->
<svg version="1.1" id="Calque_1" xmlns="http://www.w3.org/2000/svg" xmlns:xlink="http://www.w3.org/1999/xlink" x="0px" y="0px"
	 viewBox="0 0 158 103.1" style="enable-background:new 0 0 158 103.1;" xml:space="preserve">
<style type="text/css">
	.st0{fill:#AD717F;}
	.st1{fill:#423522;}
	.st2{fill:#635132;}
	.st3{fill:#AF7C66;}
</style>
<path class="st0" d="M93.8,74.5l-6.6,5c-0.3,0.2-0.6,0.4-1,0.4l-6.1,1c-0.2,0-0.5,0-0.7,0l-6-1c-0.4-0.1-0.7-0.2-1-0.4l-6.6-5
	C65.6,74.3,65.7,74,66,74l3.5,0.3l5.6,0.5c0.1,0,0.2,0,0.3,0l3.9,0.9c0.3,0.1,0.7,0.1,1,0l4-0.9c0.1,0,0.2,0,0.3,0l5.7-0.5l3.5-0.3
	C93.9,74.1,94.1,74.4,93.8,74.5z"/>
<path class="st1" d="M109.3,42.4l-3.7-1.2c0,0-9.1,0.1-9.5,0.5c0,0-2.1,0.7-3.4,1.3c-1.3,0.7-2.8,0.3-2.8,0.3l0.2-1.2
	c0,0,3.6-3,5-3.3c2.3-0.5,10.1,0.6,10.2,0.6c0.3,0.1,4.8,1.9,5.3,2.6C110.8,42.1,109.3,42.4,109.3,42.4z"/>
<path class="st2" d="M84.3,27.5c0.1,0.4,0.1,0.8,0.1,1.1c0.1,0.5,0.4,0.9,0.9,1l2,0.5c0.2,0,0.3,0,0.5,0l13.3-2.7c0.2,0,0.3,0,0.5,0
	c1.2,0.3,7.1,1.6,7.1,1.5s1.1,0.4,2.1,0.9c0.8,0.4,1.7-0.3,1.6-1.2l0,0c0-0.4-0.3-0.7-0.6-0.9c-2.1-1-9.4-4.5-9.5-4.4
	c-0.2,0.1-7.5,0.6-8.5,0.7c-0.1,0-0.1,0-0.2,0l-8.3,2.2C84.6,26.4,84.2,26.9,84.3,27.5z"/>
<path class="st2" d="M73.7,27.5c-0.1,0.4-0.1,0.8-0.1,1.1c-0.1,0.5-0.4,0.9-0.9,1l-2,0.5c-0.2,0-0.3,0-0.5,0l-13.3-2.7
	c-0.2,0-0.3,0-0.5,0c-1.2,0.3-7.1,1.6-7.1,1.5s-1.1,0.4-2.1,0.9c-0.8,0.4-1.7-0.3-1.6-1.2l0,0c0-0.4,0.3-0.7,0.6-0.9
	c2.1-1,9.4-4.5,9.5-4.4c0.2,0.1,7.5,0.6,8.5,0.7c0.1,0,0.1,0,0.2,0l8.3,2.2C73.4,26.4,73.7,26.9,73.7,27.5z"/>
<path class="st1" d="M50.2,42.4l3.7-1.2c0,0,9.1,0.1,9.5,0.5c0,0,2.1,0.7,3.4,1.3c1.3,0.7,2.8,0.3,2.8,0.3l-0.2-1.2c0,0-3.6-3-5-3.3
	c-2.3-0.5-10.1,0.6-10.2,0.6c-0.3,0.1-4.8,1.9-5.3,2.6C48.7,42.1,50.2,42.4,50.2,42.4z"/>
<g>
	<path class="st3" d="M87.4,63.7c0.7,3.3-4.7,4.9-7.2,4.8c-2.5,0.1-7.9-1.5-7.2-4.8c0.4,0.7,0.9,1,1.5,1.2
		C76.9,65.7,86,66.2,87.4,63.7L87.4,63.7z"/>
</g>
</svg>
