<?xml version="1.0" encoding="utf-8"?>
<!-- Generator: Adobe Illustrator 26.0.3, SVG Export Plug-In . SVG Version: 6.00 Build 0)  -->
<svg version="1.1" id="Layer_1" xmlns="http://www.w3.org/2000/svg" xmlns:xlink="http://www.w3.org/1999/xlink" x="0px" y="0px"
	 viewBox="0 0 788 1005" style="enable-background:new 0 0 788 1005;" xml:space="preserve">
<style type="text/css">
	.st0{fill:#1C1938;}
	.st1{fill:#E0B9A0;}
	.st2{fill:#CCAA97;}
	.st3{fill:#B22947;}
	.st4{fill:#FAB948;}
	.st5{fill:#E2B440;}
	.st6{fill:#FF9603;}
	.st7{fill:#D8C5A7;}
	.st8{fill:#FEBC6E;}
	.st9{fill:#FFFFFF;}
	.st10{fill:#35912D;}
	.st11{fill:#E0AA4B;}
	.st12{fill:#7097BA;}
	.st13{fill:#BA3E35;}
</style>
<g>
	<path class="st0" d="M131,109c13.4,59.7,21.7,120.8,24.7,181.9C142.2,231.2,134,170.2,131,109L131,109z"/>
</g>
<path class="st1" d="M515.6,243c-0.6,38.4-26.2,33.2-36.9,42.3c-12.6,10.8-8.3,50-17.2,64c-2.5,3.8-11.4,10.1-15.8,9.1
	c-12.5-2.9-24-30.7-34.8-37.7c-6.3-4.1-23.6-3.6-30.2,0c-11.2,6.2-22.3,34.9-34.8,37.7c-4.4,1-13.4-5.2-15.8-9.1
	c-8.9-14-4.6-53.2-17.2-64c-10.6-9.1-36.2-3.9-36.9-42.3c-0.4-26.6,35-37.3,35-37.3l40.1-19.9c2.6-1.3,5-2.9,7.1-4.8
	c0.8-0.7,1.6-1.5,2.3-2.3l0.6-0.7v-0.1c3.9-4.7,6.5-10.4,7.2-16.4c0.2-1.4,0.3-2.8,0.2-4.2v-2.8V150h53.6l0.1,5v1.5v3.2
	c0,0.3,0,0.7,0,1l0,0c0,0.6,0.1,1.3,0.2,1.9c0.2,1.5,0.5,3.1,0.9,4.6c2.2,7.7,7.6,14,14.7,17.6l40.5,20.1c1,0.5,2.1,1,3.2,1.3
	C488.8,208.5,516,219.7,515.6,243z"/>
<path class="st2" d="M423.8,167.4l-1,1.2c-5.2,6.3-28.8,35-41.8,44.3c-3.2,2.3-5.7,3.4-7.2,2.7c-6.8-3.3-14.8-35.1-14.8-35.1
	l0.1-0.1c0.6-0.6,1.2-1.2,1.7-1.9c0.3-0.4,0.7-0.8,1-1.3l0.1-0.1c3.3-4.5,5.5-9.7,6.7-15.2c0-0.2,0.1-0.4,0.1-0.6
	c0.3-1.4,0.5-3,0.7-4.8c0.1-0.7,0.1-1.4,0.2-2.2c0.1-1.4,0.2-2.9,0.3-4.5h52.7v0.2v4.3v6.7l0.1,0.8l0.1,0.7l0.9,4.6L423.8,167.4z"/>
<path class="st1" d="M454.2,236.8c-1.2,27.7,17.9,53.5,17.9,53.5s31.3,53.8,41.5,71.9c4.8,8.5,14.5,26.5,36.1,15.1l0,0
	c17.8-9.4,11.8-28.1,8-36.7c-7.7-17.5-26.9-51.3-31.4-69.7c-3.3-13.7-3.2-36.1-21-52.2c0,0-13.2-14.8-31.9-7.6l-0.7,0.3
	C461.9,215.4,454.7,225.4,454.2,236.8L454.2,236.8z"/>
<path class="st1" d="M228,354.1c14.9-9.8,7.9-32.5,5-40.5s-12.4-23-17-30.3c-11.8-18.8-49.1-67.8-55.6-88.6
	c-4.5-14.5-28.9-3.8-28.9-3.8s13.5,19.9,17.3,30c7.8,21.3,12.1,51.9,23.8,87.6c3.1,9.4,12.6,27.1,18.7,34.7
	C208.5,364.2,223.8,356.9,228,354.1z"/>
<path class="st1" d="M332,252.5c-8.3,25.8-34.5,42.9-34.5,42.9s-46.9,38.6-62.3,51.8c-7.3,6.2-22.2,19.3-38,1.5l0,0
	c-13-14.7-1.2-29.9,5.3-36.5c12.9-13.4,42-37.8,52.4-53.1c7.7-11.4,15.2-32.1,36.9-40.7c0,0,17-9.1,31.6,3.9l0.6,0.5
	C332.3,230.1,335.4,241.8,332,252.5z"/>
<path class="st3" d="M317.2,447.1l1.3-19.7h155l2,19.5l-155.7,2.9C318.3,449.8,317.1,448.5,317.2,447.1z"/>
<path class="st3" d="M304.8,208.9c0.1,15.4,8.7,70.9,9.5,75.8c0,0.2,0.1,0.5,0.1,0.7c0.2,8.6,3.7,171.4,4.3,163.2
	c0.6-8.5,160.2,17.5,158.2-2s0.7-153.3,0.7-153.3l5.5-85.2c0.1-2.2-1-4.2-3-5.2l-20.5-10.6c-2.8-1.5-6.3-0.2-7.5,2.8l-8.2,19.6
	c-2.8,6.6-9.2,10.9-16.3,11l-68.7,0.9c-7.1,0.1-13.6-3.6-17.2-9.7l-10.8-18.4c-1.4-2.4-4.5-3.4-7-2.2l-15.9,7.5
	C306,204.8,304.8,206.8,304.8,208.9z"/>
<path class="st1" d="M547.9,334.4c-16.6-5.3-32.5,11.5-37.9,17.9s-13.3,21-17.1,28.2c-9.9,18.3-24.1,49.9-34.1,67.7
	c-6.5,11.8-10.3,17.9-3.7,22.2c6,3.9,16-5.7,19.9-9.3c16.3-15.3,48.5-45.1,63.1-63.2c6-7.4,16.6-23.2,19.9-31.6
	C567.3,342.9,552.7,335.9,547.9,334.4z"/>
<g>
	<g>
		<g>
			<g>
				<g>
					<polygon class="st4" points="409.3,421.2 396.2,430.9 383.1,421.1 396.2,411.4 					"/>
				</g>
			</g>
			<g>
				<g>
					<polygon class="st4" points="409.4,401.7 396.2,411.4 383.2,401.6 396.3,392 					"/>
				</g>
			</g>
			<g>
				<g>
					<polygon class="st4" points="409.5,382.3 396.3,391.9 383.3,382.1 396.4,372.5 					"/>
				</g>
			</g>
			<g>
				<g>
					<polygon class="st4" points="409.6,362.8 396.4,372.5 383.3,362.7 396.5,353 					"/>
				</g>
			</g>
			<g>
				<g>
					<polygon class="st4" points="409.7,343.3 396.5,353 383.4,343.2 396.6,333.5 					"/>
				</g>
			</g>
			<g>
				<g>
					<polygon class="st4" points="409.7,323.8 396.6,333.5 383.5,323.7 396.7,314 					"/>
				</g>
			</g>
			<g>
				<g>
					<polygon class="st4" points="409.8,304.4 396.7,314 383.6,304.2 396.8,294.6 					"/>
				</g>
			</g>
			<g>
				<g>
					<polygon class="st4" points="409.9,284.9 396.8,294.6 383.7,284.8 396.8,275.1 					"/>
				</g>
			</g>
		</g>
	</g>
</g>
<path class="st5" d="M481.2,309.6l-2.6-4.5c-0.7-1.2-0.3-2.8,0.9-3.5l47.8-27.6c1.2-0.7,2.8-0.3,3.5,0.9l2.6,4.5
	c0.7,1.2,0.3,2.8-0.9,3.5l-47.8,27.6C483.5,311.2,481.9,310.8,481.2,309.6z"/>
<path class="st1" d="M150.2,224.4c0,0-4-9.8-9.6-11.7c-2.5-0.8-10.9-16.1-11.9-24.3c-1-8.1,22.2-23.2,22.2-23.2l-15-25.8
	c-0.3-0.6-0.5-1.2-0.4-1.8c0.1-1.2,0.4-3,1.9-4.4c1.1-1,2.8-1.1,4-0.3c8.7,5.7,19.9,24,22.7,31c3,7.5,3.8,30.1,3.8,37.2
	c0,7.2,4.7,17.3,4.7,17.3L150.2,224.4z"/>
<path class="st1" d="M450.8,476.8l4.2,12c0.1,0.2,0.2,0.5,0.2,0.7l9,17.1c0.4,2.3,2.6,3.9,5,3.3c0.4-0.1,0.8-0.3,1.2-0.5
	c1.5-1.1,1.9-3.1,1.2-4.8l-5.3-12c0.1-3,3.2-4.9,5.8-3.6l4.9,2.2c0.7,0.4,1.4,1,1.8,1.7l5.8,12.4c1.2,1.8,1.3,4.1,0.3,6l-3.2,9
	c-0.6,1.5-0.3,3.5,1.1,4.4c1.8,1.3,4.2,0.5,5.2-1.4c0,0,4.3-9.2,5.9-12.6c0.2-0.5,0.5-1.2,1-1.7c0.7-1.1,1-2.5,0.3-3.9l-6.8-20.5
	l0,0c-0.5-1.3-1.2-2.4-2-3.5L464.8,452l-1.2-1.4c-1.8-2.3-5.7,1.4-8.4,4.6c-1.9,2.3-3.3,5.1-3.8,8l-1.1,5.8
	C449.7,471.8,449.9,474.4,450.8,476.8z"/>
<path class="st6" d="M136.6,106.1c-1.4-1.2-2.8-2.1-3.5-3.2c-1.5-2.4,0.8-9.8,0.8-9.8c-3.4,1.1-8.4,8.1-9.7,14.9
	C128.8,106.1,132.8,109.9,136.6,106.1z"/>
<path class="st7" d="M124.1,108.2c-0.2,0.8-0.3,1.5-0.3,2.3c-0.3,7.5,8.8,11,10.2,10.8s6.1-2.8,5.9-8.5c-0.1-3.2-1.7-5.1-3.4-6.5
	C132.8,109.9,128.8,106.1,124.1,108.2z"/>
<path class="st8" d="M380.1,508.7c-0.6,26.8,20.9,48.7,47.5,48.7c5.3,0,10.2-0.8,15-2.4c4.3-1.5,7.6-5.1,8.6-9.5
	c3.1-13.9-3.2-34.8,3.4-37.6c4.9-2,8.9,3.2,12.9,6c3.3,2.3,7.8,0,7.8-4l0,0c0-26.6-22-48.2-48.7-47.5
	C401.4,462.9,380.9,483.5,380.1,508.7z M461,501.1c0-3,2.3-5.3,5.3-5.3s5.3,2.3,5.3,5.3s-2.3,5.3-5.3,5.3S461,504.1,461,501.1z"/>
<path class="st1" d="M463.1,504.8l3.6,7.2c0.4,0.8,0.7,1.7,1.1,2.5c0.7,1.8,2.6,2.9,4.6,2.3c0.4-0.1,0.8-0.3,1.2-0.5
	c1.5-1.1,1.9-3.1,1.2-4.8l-4.5-9.4C467.8,503.2,465.5,503.8,463.1,504.8z"/>
<g>
	<g>
		<path class="st9" d="M446.2,504.8c3.5,0.6,4.2-12.1,0-12.8c-1.8-0.3-4-1.2-5.8-0.3c-4.2,2-3.9,8.8-3.2,12.5c0.7,3.5,1.4,7,2,10.5
			c0.3,1.9,2.1,4.4,3.9,2.3c2-2.2,1.6-6.2,1.1-8.9c-0.5-2.9-1.1-5.6-1.6-8.3c-0.1-0.6-0.1-1.3-0.3-1.9c-0.1-0.2-0.1-0.3-0.1-0.4
			c-0.1,2.2-0.2,4.5-0.3,6.8c0.2-0.1,0.5,0,0.7,0C443.7,504.6,445.1,504.6,446.2,504.8L446.2,504.8z"/>
	</g>
</g>
<g>
	<g>
		<path class="st10" d="M405.2,505.4c-3.2-2.2-4.9,10.2-1.6,12.5c2.1,1.5,4.2,3,6.3,4.4c0.2-4.3,0.5-8.6,0.7-12.8
			c-4.3-0.5-8.8-1.1-13.2-1.6c-3.8-0.4-3.6,11.3-0.7,12.8c6.1,3.1,12.2,6.1,18.4,9.2c0.2-4.3,0.5-8.6,0.7-12.8
			c-5.1,0.1-10.1,0.2-15.2,0.3c-4.1,0.1-3.9,13.1,0,13c5.1-0.1,10.1-0.2,15.2-0.3c4-0.1,3.7-11.3,0.7-12.8
			c-6.1-3.1-12.2-6.1-18.4-9.2c-0.2,4.3-0.5,8.6-0.7,12.8c4.3,0.5,8.8,1.1,13.2,1.6c2.2,0.3,2.7-4.2,2.9-5.6c0.2-2.1,0-5.7-2-7.1
			C409.5,508.3,407.4,506.8,405.2,505.4L405.2,505.4z"/>
	</g>
</g>
<g>
	<g>
		<path class="st11" d="M423.5,482.4c-0.3-1.6-1.8-3.9-3.4-2c-1.6,2-1.4,5.3-0.8,7.6c0.6,2.9,1.3,5.8,1.9,8.8c0.3,1.5,1.8,3.9,3.4,2
			c1.6-2,1.4-5.3,0.8-7.6C424.8,488.3,424.2,485.4,423.5,482.4L423.5,482.4z"/>
	</g>
</g>
<g>
	<g>
		<path class="st12" d="M401.2,490c1-2.9,1.3-6.3,0-9.2c-1-2.1-3.2-2.5-4,0c-2,5.7-2.1,13.7,2.4,18.3c3.3,3.3,8.6,4.1,12.9,5.5
			s5-11.4,1.5-12.6c-2.5-0.8-5-1.6-7.4-2.4c-1.5-0.4-3.2-1-4.3-2c-0.3-0.3-0.5-0.5-0.7-0.8c-0.3-0.3-0.1,0.5,0,0.1
			c0.1-0.6,0.1,1.2,0.1,1.4c-0.1-1.4-0.1,1.5,0,0.3C401.3,491.2,402.3,486.9,401.2,490L401.2,490z"/>
	</g>
</g>
<g>
	<g>
		<path class="st13" d="M435.3,535.8c2.2,1.5,3.4-3.4,3.6-4.4c0.3-2.4,0.2-6.4-2-8c-3.2-2.2-7.7-3.6-10.7-0.4
			c-3.5,3.7-4.2,9.6-4.5,14.5c-0.1,1.4,0.4,6.5,2.9,6.4c2.5,0,2.7-4.8,2.9-6.4c-0.2,3.1-0.1,1.3,0,0.5c0,0,0.1-1.3,0-0.4
			c-0.1,0.8,0.2-0.7,0.2-0.7c0.1-0.5,0.5-2,1.6-2.6C431,533.1,433.9,534.7,435.3,535.8L435.3,535.8z"/>
	</g>
</g>
</svg>
