<?xml version="1.0" encoding="utf-8"?>
<!-- Generator: Adobe Illustrator 26.0.3, SVG Export Plug-In . SVG Version: 6.00 Build 0)  -->
<svg version="1.1" id="Calque_1" xmlns="http://www.w3.org/2000/svg" xmlns:xlink="http://www.w3.org/1999/xlink" x="0px" y="0px"
	 viewBox="0 0 588 387" style="enable-background:new 0 0 588 387;" xml:space="preserve">
<style type="text/css">
	.st0{fill:#E0B9A0;}
	.st1{fill:#CCAA97;}
	.st2{fill:#EAE0AC;}
</style>
<path class="st0" d="M375.3,137.7c-0.4,28.8-13.5,35.8-25.6,40.2l0,0c-5.9,2.2-11.8,3.8-15.7,7.2c-1.6,1.3-2.9,3-3.9,4.8
	c-9.3,16.3,1.3,52.9-7.5,66.9c-2.8,4.3-12.8,11.3-17.7,10.2c-14-3.3-34.8-34.4-46.9-42.3c-7.1-4.6-26.5-4-33.9,0
	c-12.7,7-25,39.1-39,42.3c-4.9,1.1-15-5.8-17.7-10.2c-6.6-10.4-6.7-33.4-10.2-51.1c-0.6-3.3-1.5-6.4-2.5-9.4
	c-1.6-4.7-3.7-8.6-6.6-11.1c-11.9-10.2-40.6-4.4-41.4-47.4c-0.3-19.6,16.8-31.5,28.5-37.3l0,0l0.7-0.3c3.3-1.6,6.6-2.9,10-4
	l22.9-11.3l0,0l22.2-11c10.7-5.3,17.9-15.5,19.4-27.2c0.2-1.6,0.3-3.1,0.2-4.7V34l-0.1-9.8l0.9,0.1h0.6l28.5,2.2l30.2-2.4h0.1
	l0.1,5.8V34l0.1,6.8v3.6c0,0.3,0,0.8,0,1.1l0,0c0,0.7,0.1,1.5,0.2,2.1c0.2,1.7,0.6,3.5,1,5.2c2.5,8.6,8.5,15.7,16.5,19.7l45.5,22.5
	c1.1,0.6,2.4,1.1,3.6,1.5c4.6,1.7,9.1,3.7,13.3,6.2C362.3,109,375.7,120.3,375.3,137.7z"/>
<path class="st1" d="M272.1,53.2c0,0-0.3,0.8-1.1,2.2c-4.8,9.1-25.1,43.2-54.6,36.3c-2-0.4-4.1-2.2-6.2-4.6
	c-5.9-7-10.9-19.2-10.9-19.2c0.7-0.7,1.5-1.5,2-2.1c4.4-5.4,7.3-11.8,8.7-18.6c0-0.2,0.1-0.4,0.1-0.7c0.3-1.6,0.6-3.4,0.8-5.4
	c0.2-2,0.3-4.6,0.6-7.2c0.1-3,0.2-6.4,0.3-9.6l28.5,2.2l30.2-2.4h0.1l0.1,5.8V34v12.2l0.1,0.9l0.1,0.8l1,5.2L272.1,53.2z"/>
<path class="st0" d="M309.3,119.4c24.4-19.2,60.4-18.5,60.4-18.5s69.5-6.5,92.6-9c10.9-1.2,33.6-4,37.3,23.1l0,0
	c3,22.3-17.9,29-28.3,31.3c-21,4.4-64.3,8.9-84.1,16.7c-14.7,5.8-35,20.6-61.3,14.8c0,0-22.1-2.4-27.8-24.1l-0.2-0.9
	C294.7,140.4,299.2,127.3,309.3,119.4L309.3,119.4z"/>
<path class="st0" d="M474.7,142c-22.1,2.9-32.5-21.5-35.8-30.6s-5.3-28.9-6.4-38.6c-2.7-24.9-3.9-67-7-91.4
	c-1.9-16-3.4-24.4,6.5-28.4c9-3.6,16,10.5,18.8,16c11.7,22.6,35,66.6,43.2,92.3c3.4,10.5,8.3,32.4,8.1,43.5
	C501.6,135.7,481.1,141.2,474.7,142z"/>
<path class="st0" d="M175.4,125.6c5.9,30.5-11,62.2-11,62.2s-25.8,64.9-34.1,86.7c-3.9,10.2-11.7,31.7-37.4,22.8l0,0
	c-21.3-7.4-17.7-29.3-15-39.3c5.6-20.6,21.3-61.4,23.2-82.5c1.5-15.7-2.5-40.5,14.7-61.4c0,0,12.1-18.6,34.1-13.8l0.9,0.2
	C163.3,103.2,173,113,175.4,125.6L175.4,125.6z"/>
<path class="st0" d="M425.3-45l7.3-22l17.9-26.3c0,0,4.6,4.4,4.8,6.3c0.7,6.2-3.9,14.9-6.5,20.6c-0.3,0.8,0.1,4.5,0.8,5
	c2.6,2.2,8.4-1.9,8.4-1.9l-14,18.4L425.3-45z"/>
<path class="st0" d="M431.7-49l16.1,17.5L488-62.9l27.7-46.3c0,0-7.1-2.5-9.4-1.7c-11.9,3.8-25.6,27-34.6,35.5
	C461.9-66.1,431.7-49,431.7-49z"/>
<ellipse transform="matrix(0.4261 -0.9047 0.9047 0.4261 288.6357 373.0254)" class="st0" cx="438.3" cy="-41" rx="13.6" ry="13.7"/>
<path class="st2" d="M135.8,99.5c0,0,22.6,25.1,23.7,46.1c1,21-5,53.9-5,53.9s-3,129.8-1,135s-6.5,21.3-2.7,35.9
	c3.8,14.6,82,15.4,101.7,9.8s68.9,5.3,78.8-4.5c13.8-13.7-2.8-91.5-3.5-115.4c-0.4-13.7,2.9-73,2.9-73c2-2.1,14.7-77.4-5.3-96.1
	l-36.4-18.8l0,0c-2.8,15.6-15.8,27.4-31.6,28.4c-19.8,1.3-40.7,3.8-52.4,5.3c-10,1.3-19.6-3.7-24.4-12.6c-2.1-3.9-2.9-8.5-2.2-13
	L135.8,99.5z"/>
<path class="st0" d="M75,290.7c-9.9-20.1,10-37.7,17.5-43.6c7.5-5.9,25.7-14.3,34.5-18.4c22.8-10.5,62.3-25.2,84.4-35.9
	c14.6-7,22-11.1,28.9-2.9c6.3,7.4-4.8,18.6-9.1,23c-17.7,18.3-51.9,54.5-73.5,70.5c-8.9,6.6-28,18.3-38.7,21.5
	C89.6,314.3,77.9,296.6,75,290.7z"/>
<path class="st0" d="M233,213l18.5-13.8l19.4-25.2c0,0-5.6-3-7.5-2.6c-6.1,1.3-13,8.4-17.5,12.6c-0.6,0.6-4.4,1.3-5,0.9
	c-2.9-1.7-0.9-8.6-0.9-8.6l-13.1,19.1L233,213z"/>
<path class="st0" d="M234.8,205.9l-21.6-10l17.3-47.9l35.3-40.8c0,0,4.5,6.1,4.6,8.4c0.1,12.4-17.7,32.7-23,44.1
	C241.7,171.8,234.8,205.9,234.8,205.9z"/>
<ellipse class="st0" cx="225" cy="202" rx="13.6" ry="13.6"/>
</svg>
