<?xml version="1.0" encoding="utf-8"?>
<!-- Generator: Adobe Illustrator 26.0.3, SVG Export Plug-In . SVG Version: 6.00 Build 0)  -->
<svg version="1.1" id="Calque_1" xmlns="http://www.w3.org/2000/svg" xmlns:xlink="http://www.w3.org/1999/xlink" x="0px" y="0px"
	 viewBox="0 0 588 387" style="enable-background:new 0 0 588 387;" xml:space="preserve">
<style type="text/css">
	.st0{fill:#E0B9A0;}
	.st1{fill:#CCAA97;}
	.st2{fill:none;stroke:#000000;stroke-width:3;stroke-miterlimit:10;}
	.st3{fill:#473415;}
	.st4{fill:#FA9980;}
	.st5{fill:#587CC6;}
	.st6{fill:#9CCBF2;}
	.st7{fill:#DCE8EF;}
	.st8{fill:#4D6FAA;}
</style>
<path d="M129.7,328.5h0.1H129.7z"/>
<polygon points="129.8,328.5 129.9,328.5 129.9,328.5 "/>
<path d="M129.7,328.5h0.1H129.7z"/>
<polygon points="129.8,328.5 129.9,328.5 129.9,328.5 "/>
<path class="st0" d="M415.3,92.8c-0.6,38.4-26.2,33.2-36.9,42.3c-12.6,10.8-8.3,50-17.2,64c-2.5,3.8-11.4,10.1-15.8,9.1
	c-12.5-2.9-24-30.7-34.8-37.7c-6.3-4.1-23.6-3.6-30.2,0c-11.2,6.2-22.3,34.9-34.8,37.7c-4.4,1-13.4-5.2-15.8-9.1
	c-8.9-14-4.6-53.2-17.2-64c-10.6-9.1-36.2-3.9-36.9-42.3c-0.4-26.6,35-37.3,35-37.3l40.1-19.9c9.5-4.7,16-13.8,17.3-24.3
	c0.2-1.4,0.3-2.8,0.2-4.2v-7h53.6l0,0l0.1,6.1v3.2c0,0.3,0,0.7,0,1l0,0c0,0.6,0.1,1.3,0.2,1.9c0.2,1.5,0.5,3.1,0.9,4.6
	c2.2,7.7,7.6,14,14.7,17.6l40.5,20.1c1,0.5,2.1,1,3.2,1.3C388.5,58.4,415.7,69.5,415.3,92.8z"/>
<polygon class="st0" points="323,48 295.5,80.5 280.6,62.8 268.3,48 269,6.4 269.1,0.1 322.1,0.1 322.2,6.2 322.3,10.4 322.3,10.4 
	322.3,11.7 322.4,18.5 "/>
<path class="st1" d="M323.5,17.2l-1,1.2c-5.1,6.3-28.8,35.1-41.8,44.3c-3.2,2.3-5.7,3.4-7.2,2.7c-6.8-3.3-14.8-35.1-14.8-35.1
	c0.6-0.6,1.3-1.3,1.8-1.9c3.9-4.8,6.5-10.5,7.8-16.6c0-0.2,0.1-0.4,0.1-0.6c0.3-1.4,0.5-3,0.7-4.8s0.3-4.1,0.5-6.4h52.7v10.9
	l0.1,0.8l0.1,0.7l0.9,4.6L323.5,17.2z"/>
<path class="st2" d="M357.5,99.6c11.9,25,40.9,38.8,40.9,38.8s53,32.8,70.4,44c8.2,5.3,25.2,16.6,39-3.6l0,0
	c11.3-16.6-2.8-30.4-10.2-36.2c-15-11.8-47.9-32.6-60.5-46.7c-9.4-10.5-19.8-30.3-43.1-36.2c0,0-18.6-6.9-31.8,8.2l-0.5,0.6
	C354.3,77,352.6,89.3,357.5,99.6z"/>
<path class="st0" d="M493.7,144.7c-18.5-7.2-32.7,11.8-37.4,19s-10.7,23.9-13.6,32.1c-7.5,21-17.5,57.3-25.2,77.8
	c-5,13.5-8.1,20.4-0.3,25.9c7,5,16.1-5.8,19.7-9.9c14.8-17.2,44.3-50.4,56.8-70.9c5.1-8.4,14-26.4,16.1-36
	C515.8,155.8,499.2,146.8,493.7,144.7z"/>
<path class="st0" d="M96.9,148.7c18.6-7.2,32.7,11.8,37.4,19s10.7,23.9,13.6,32.1c7.6,21,17.5,57.3,25.2,77.8
	c5,13.5,8.1,20.4,0.3,25.9c-7,5-16.1-5.8-19.7-9.9c-14.9-17.2-44.3-50.4-56.8-70.9c-5.1-8.4-14-26.4-16.1-36
	C74.8,159.8,91.5,150.8,96.9,148.7z"/>
<path class="st2" d="M233.2,103.6c-11.9,25-40.9,38.8-40.9,38.8s-52.9,32.8-70.4,44c-8.2,5.3-25.2,16.6-38.9-3.6l0,0
	c-11.3-16.6,2.8-30.4,10.2-36.2c15-11.8,47.9-32.6,60.5-46.7c9.4-10.5,19.8-30.3,43.1-36.2c0,0,18.6-6.9,31.8,8.2l0.5,0.6
	C236.5,81.1,238.1,93.3,233.2,103.6L233.2,103.6z"/>
<path class="st3" d="M216.4,297.2l1.5-21.8l154.5-1.3l2.1,20.2c0.1,1.4-1,2.7-2.4,2.7l-153.2,2.9
	C217.4,299.8,216.3,298.6,216.4,297.2z"/>
<path class="st4" d="M420.9,297.8c2.5,2.9,4.3,8.5-0.8,15.1c0,0-14.5,22.6-21.6,27.8c-3.2,2.3-11.7,8-14.7,5.5
	c-8.5-7.2-16.1-26.6-15.6-39.9c0.1-4,8.1-9.3,11.9-10.6c4.1-1.5,13.2,0.7,17.6,0.2c2.4-0.3,4.7-0.8,7.1-1.4
	C410.4,293,417.5,293.9,420.9,297.8z"/>
<path d="M130.3,327.8h0.1H130.3z"/>
<polygon points="130.4,327.8 130.5,327.8 130.5,327.8 "/>
<path d="M130.3,327.8h0.1H130.3z"/>
<polygon points="130.4,327.8 130.5,327.8 130.5,327.8 "/>
<path class="st2" d="M358.1,98.9c11.9,25,40.9,38.8,40.9,38.8s53,32.8,70.4,44c8.2,5.3,25.2,16.6,39-3.6l0,0
	c11.3-16.6-2.8-30.4-10.2-36.2c-15-11.8-47.9-32.6-60.5-46.7c-9.4-10.5-19.8-30.3-43.1-36.2c0,0-18.6-6.9-31.8,8.2l-0.5,0.6
	C354.9,76.3,353.2,88.6,358.1,98.9z"/>
<path class="st2" d="M233.8,102.9c-11.9,25-40.9,38.8-40.9,38.8s-52.9,32.8-70.4,44c-8.2,5.3-25.2,16.6-38.9-3.6l0,0
	c-11.3-16.6,2.8-30.4,10.2-36.2c15-11.8,47.9-32.6,60.5-46.7c9.4-10.5,19.8-30.3,43.1-36.2c0,0,18.6-6.9,31.8,8.2l0.5,0.6
	C237.1,80.4,238.7,92.6,233.8,102.9L233.8,102.9z"/>
<path class="st5" d="M329.2,33.4c2.2-2.8,6-3.8,9.3-2.6c9.4,3.4,34.7,14,50.7,20.8c9.2,3.9,17.7,9.1,25.4,15.4
	c25.6,21,85.6,70.4,95,78.9c1.2,1.1,2,2.5,2.5,4.1c1.3,5,4.2,16.6,3.8,21.3c-0.8,11.1-10.2,30.6-15.7,41.8
	c-9.3,18.7-58.5-37.4-58.5-37.4c1.2-3.6-0.3-7.6-3.5-9.7l-42.3-26.7c-5.1-3.2-11.8-0.2-12.7,5.8l-8.1,51.5c-0.1,0.6-0.1,1.3-0.1,1.9
	l13.6,168.4c0.1,1.8-0.3,3.7-1.3,5.2l-2.2,3.3c-2.5,3.8-6.8,6.1-11.4,6.2l-48.4,11.9c-17.5,4.3-35.7,4.6-53.3,0.8l-56.1-11.9
	c-4.5,0-8.7-2.2-11.3-5.8l-2.7-3.8c-1-1.4-1.5-3.1-1.5-4.9L211,201.5c0-0.4,0-0.9-0.1-1.3l-7-47c-0.9-5.9-7.4-9-12.6-6
	c0,0-48.8,32.5-47.2,36.3c0,0-62.6,32.8-71.3,1c-1.5-5.7-0.1-20.9,0.7-27.5c0.2-2.1,1.2-4,2.8-5.3l65.2-57.3L179,63.7
	c9-7.4,19.3-13.2,30.2-17.2l42.6-15.6c3.5-1.2,7.4,0,9.6,3L329.2,33.4z"/>
<path class="st6" d="M421.5,297.1c2.5,2.9,4.3,8.5-0.8,15.1c0,0-14.5,22.6-21.6,27.8c-3.2,2.3-11.7,8-14.7,5.5
	c-8.5-7.2-16.1-26.6-15.6-39.9c0.1-4,8.1-9.3,11.9-10.6c4.1-1.5,13.2,0.7,17.6,0.2c2.4-0.3,4.7-0.8,7.1-1.4
	C411,292.3,418.1,293.2,421.5,297.1z"/>
<polygon class="st6" points="420.1,267.3 406.9,293.4 412,305.3 417.6,316.7 422.3,309.9 443.3,282.1 "/>
<path class="st6" d="M170.4,301.1c-2.5,2.9-4.3,8.5,0.8,15.1c0,0,14.5,22.6,21.6,27.8c3.2,2.3,11.7,8,14.7,5.5
	c8.5-7.2,16.1-26.6,15.6-39.9c-0.1-4-8.1-9.3-11.9-10.6c-4.1-1.5-13.2,0.7-17.5,0.2c-2.4-0.3-4.7-0.8-7.1-1.4
	C180.9,296.3,173.8,297.2,170.4,301.1z"/>
<polygon class="st6" points="173,275.1 185,297.4 179.8,309.3 174.2,320.7 169.5,313.9 151.9,290.2 "/>
<g>
	<ellipse class="st6" cx="222.6" cy="203" rx="7.6" ry="7.6"/>
	<circle class="st7" cx="222.6" cy="203" r="6.1"/>
	<g>
		<path class="st7" d="M222.8,203c0.5,8.9,0.9,17.9,1,26.8c0.3,6.7,0.7,13.3-0.6,20c-0.3,2.3-0.8,4.4-1.5,6.7h-0.5
			c-2.3-8.8-2-17.9-1-26.8c0.6-8.9,1.2-17.7,2.1-26.7H222.8L222.8,203z"/>
	</g>
	<g>
		<path class="st7" d="M242.7,195.3c0.5,8.9,0.9,17.9,1,26.8c0.3,6.7,0.7,13.3-0.6,20c-0.3,2.3-0.8,4.4-1.5,6.7h-0.5
			c-2.3-8.8-2-17.9-1-26.8c0.6-8.9,1.2-17.7,2.1-26.7H242.7L242.7,195.3z"/>
	</g>
	<polygon class="st8" points="203.6,242.7 200.1,296.5 249.7,304.9 260.4,298.3 263,240.2 203.2,231.6 	"/>
	<g>
		<path class="st7" d="M242.2,201.3c-0.1-3.4-0.3-7.9-0.3-10.7c-1.1-5.8,2.8-9.4,8.5-7.7c2.5,0.7,3.2,2.7,2.3,5
			c-0.3,0.8-0.6,1.5-0.8,2.3h-0.2c-0.6-1.4,0.2-3.4-0.5-4.5c-0.3-0.7-2.1-0.8-3.5-0.8c-3.4-0.3-4.5,2.5-4.3,5.4
			c-0.2,3.6-0.6,7.3-0.8,11C242.5,201.3,242.2,201.3,242.2,201.3L242.2,201.3z"/>
	</g>
</g>
<polygon class="st8" points="382.9,239.6 386.4,293.4 336.8,302 326.1,295.3 323.5,237.1 383.3,228.5 "/>
</svg>
