<?xml version="1.0" encoding="utf-8"?>
<!-- Generator: Adobe Illustrator 26.0.3, SVG Export Plug-In . SVG Version: 6.00 Build 0)  -->
<svg version="1.1" id="Calque_1" xmlns="http://www.w3.org/2000/svg" xmlns:xlink="http://www.w3.org/1999/xlink" x="0px" y="0px"
	 viewBox="0 0 788 1005" style="enable-background:new 0 0 788 1005;" xml:space="preserve">
<style type="text/css">
	.st0{fill:none;stroke:#333333;stroke-miterlimit:10;}
	.st1{fill:#D31149;}
	.st2{fill:#C60C4B;}
	.st3{fill:#799995;}
	.st4{fill:#E0B9A0;}
	.st5{fill:#CCAA97;}
	.st6{fill:#9599BA;}
	.st7{fill:#DBDBDB;}
	.st8{fill:#95C1BE;}
	.st9{fill:#85A8A5;}
	.st10{fill:none;}
	.st11{fill:#D3D3D3;}
	.st12{fill:#E8E8E8;}
</style>
<path class="st0" d="M612.3,201.1c0,0-19,52.4-39.3,65.2s-60.8,4-79.9,18.9c-19.1,15-9.6,80.3-31.7,96.1
	c-22,15.8-63.2,5.8-91.3,18.4"/>
<path class="st0" d="M428.4,441.2c0,0,47.8-28.5,56.7-50.8c8.8-22.3-7.6-39.5,3.7-61.1c11.1-21.6,77.1-24.5,88.5-49.2
	s-6.1-63.2,0.9-93.1"/>
<path class="st1" d="M685.2,167.8c-35.4,24.1-107.5,21.9-107.5,21.9s-29-65.4-21.9-107.5c7.4-43.5,94.8-51.6,85.7,11.2
	C696.9,60.2,722.5,142.3,685.2,167.8z"/>
<path class="st2" d="M684.6,204.9c-26.7,18.2-81.5,16.6-81.5,16.6S581.2,172,586.6,140c5.6-32.9,71.7-39.1,64.9,8.4
	C693.5,123.4,712.9,185.6,684.6,204.9z"/>
<path class="st3" d="M342.9,189.1l13.6-13.4c0,0,20.3-6.6,38.5-6.4s36.3,4.3,36.3,4.3l16.5,15.5l1.9,19l-108.4,4.1L342.9,189.1z"/>
<path class="st4" d="M514.2,244.7c-0.6,38.4-26.2,33.2-36.9,42.3c-12.6,10.8-8.3,50-17.2,64c-2.5,3.8-11.4,10.1-15.8,9.1
	c-12.5-2.9-24-30.7-34.8-37.7c-6.3-4.1-23.6-3.6-30.2,0c-11.2,6.2-22.3,34.9-34.8,37.7c-4.4,1-13.4-5.2-15.8-9.1
	c-8.9-14-4.6-53.2-17.2-64c-10.6-9.1-36.2-3.9-36.9-42.3c-0.4-26.6,35-37.3,35-37.3l40.1-19.9c2.6-1.3,5-2.9,7.1-4.8
	c0.8-0.7,1.6-1.5,2.3-2.3l0.6-0.7v-0.1c3.9-4.7,6.5-10.4,7.2-16.4c0.2-1.4,0.3-2.8,0.2-4.2v-2.8v-4.5H421l0.1,5v1.5v3.2
	c0,0.3,0,0.7,0,1l0,0c0,0.6,0.1,1.3,0.2,2c0.2,1.5,0.5,3.1,0.9,4.6c2.3,7.7,7.7,14,14.9,17.5l40.5,20.1c1,0.5,2.1,1,3.2,1.3
	C487.3,210.2,514.5,221.4,514.2,244.7z"/>
<path class="st5" d="M422.3,169.1l-1,1.2c-5.2,6.3-28.8,35-41.8,44.3c-3.2,2.3-5.7,3.4-7.2,2.7c-6.8-3.3-14.8-35.1-14.8-35.1
	l0.1-0.1c0.6-0.6,1.2-1.2,1.7-1.9c0.3-0.4,0.7-0.8,1-1.3l0.1-0.1c3.3-4.5,5.5-9.7,6.7-15.2c0-0.2,0.1-0.4,0.1-0.6
	c0.3-1.4,0.5-3,0.7-4.8c0.1-0.7,0.1-1.4,0.2-2.2c0.1-1.4,0.2-2.9,0.3-4.5H421v0.2v4.3v6.7l0.1,0.8l0.1,0.7l0.9,4.6L422.3,169.1z"/>
<path class="st4" d="M455.9,242c-1.4,27.7,17.5,53.6,17.5,53.6s31,54,41,72.2c4.7,8.6,14.3,26.6,36,15.4l0,0
	c17.9-9.2,12-28,8.3-36.7c-7.6-17.5-26.6-51.5-31-69.9c-3.3-13.7-2.9-36.1-20.7-52.4c0,0-13.1-14.9-31.9-7.8l-0.7,0.3
	C463.8,220.7,456.5,230.7,455.9,242L455.9,242z"/>
<path class="st4" d="M219.1,357.6c15.5-9,9.7-31,7.3-39.2c-2.5-8.2-11-23.7-15.2-31.3c-10.7-19.5-44.1-77.8-49.3-98.9
	c-3.6-14.8-25.3,6.3-25.3,6.3s8.2,15.9,11.3,26.2c6.5,21.7,9,52.6,18.5,88.9c2.5,9.5,10.9,27.8,16.5,35.7
	C198.7,367.6,214.6,360.3,219.1,357.6z"/>
<path class="st4" d="M333.7,251.7c-8.5,26.3-35.5,43.8-35.5,43.8s-48.2,39.4-64.1,52.8c-7.5,6.3-22.8,19.7-39.1,1.5l0,0
	c-13.4-15-1.2-30.5,5.4-37.2c13.3-13.7,43.2-38.6,53.9-54.2c7.9-11.6,25.9-35.6,48.3-44.4c0,0,7.3-6.4,22.3,7l0.6,0.5
	C334,229,337.2,240.9,333.7,251.7L333.7,251.7z"/>
<polygon class="st6" points="390.9,211.8 399.1,231.8 388,222.7 375,236.2 "/>
<polygon class="st6" points="399.1,231.8 403,211 421.7,234.4 408.3,223.8 "/>
<g>
	<path class="st4" d="M555.8,353.8c-11.5-13.1-33.8-6.8-41.7-4.1c-7.9,2.7-22.1,11.2-29.1,15.4c-17.9,10.6-46.2,30.5-63.9,40.7
		c-11.6,6.8-18,10.1-14.6,17.1c3.1,6.4,16.7,3.3,21.9,2.2c21.8-4.8,64.7-13.9,86.6-21.9c8.9-3.3,26.2-11.4,33.3-16.9
		C568.2,371,559.2,357.5,555.8,353.8z"/>
</g>
<ellipse transform="matrix(0.5823 -0.813 0.813 0.5823 -91.2459 197.831)" class="st4" cx="146.9" cy="187.7" rx="12.2" ry="12.1"/>
<path class="st4" d="M160,188.3c-0.6-4.9-0.3-9.8,0.9-14.5l3.9-15.1c0.1-0.3,0.1-0.6,0-0.9l-5.8-24c-0.3-1.4-2.1-2-3.2-1
	c-1.3,1.1-2.6,2.4-3,3.2c-2.5,5,0.5,14.5,0.8,20c0.1,0.7-2.4,2.6-3.1,2.8c-1.8,0.7-6.4-1.3-9.4-2.8c-1.9-0.9-3.4-2.6-4.1-4.6
	c-0.8-2.3-1.9-5.4-2.5-6.9c-0.2-0.6-0.1-1.3,0.3-1.9l7.7-10c2.3-3,3.2-7,2.4-10.7l0,0c-0.3-1.6-2.3-2.1-3.4-0.9l-19.3,21.8
	c-1.4,1.5-2.1,3.5-2.1,5.6v7.3c0,2.3,0.5,4.5,1.5,6.6l14.6,31.3v0.1h0.1l0.6,1.3l0,0c0.4-0.7,1.2-1.1,1.9-1l19.8,2.5
	c1.3,0.2,2.3-0.9,2.2-2.2L160,188.3z"/>
<path class="st7" d="M305.8,208.2c0,0-23.2,4.8-32.6,12.7s-30,47.6-33,49.9c-3,2.2,36.4,46.9,37.3,46.5s12.4-5.2,18.4-10.9
	c6-5.6,14.6-18.6,14.6-18.6l20.5,10.9L305.8,208.2z"/>
<path class="st7" d="M476.6,206.9c0,0,23.2,4.8,32.6,12.7c9.4,7.9,22.7,59.7,25.7,62c3,2.2-42.9,50.3-43.8,49.9s-3.2-4.2-9.2-9.8
	s-10-35.1-10-35.1l-20.5,10.9L476.6,206.9z"/>
<path class="st8" d="M304.1,207.1c-2.5,4.9,9.2,80.8,9.2,80.8l-4.1,192c0.1,2.6,2,4.9,4.6,5.4L347,490c32,6,64.9,5.4,96.7-1.5
	l34-5.7c3.5-0.8,5.9-3.9,5.8-7.4c-1.3-32.7-6.9-179-6.9-179l5.8-88.4l-34.5-18.8L395,313.8l-52-124.6L304.1,207.1z"/>
<g>
	<path class="st9" d="M388.9,325.2c1.1,44.1,1.1,88.7,0.8,132.8l-0.3,22.1c-0.5,6.7,2.2,9.9,8.5,11.9c1.7,0.6,3.5,1.2,5.2,1.8
		c-1.8-0.5-3.6-1-5.3-1.5c-3.5-1-7.4-2.8-8.6-6.6c-0.6-1.8-0.7-3.8-0.7-5.6l-0.3-22.1C387.8,413.9,387.8,369.2,388.9,325.2
		L388.9,325.2z"/>
</g>
<circle class="st9" cx="398" cy="327.5" r="3.9"/>
<circle class="st3" cx="398" cy="327.5" r="2.6"/>
<circle class="st9" cx="398" cy="395" r="3.9"/>
<circle class="st3" cx="398" cy="395" r="2.6"/>
<line class="st10" x1="401.4" y1="327.5" x2="403.7" y2="327.5"/>
<line class="st10" x1="400.8" y1="395" x2="403.1" y2="395"/>
<path class="st11" d="M359.8,180.2l26.6,6.5c2.5,0.6,4.7,2.2,6,4.5l3,5.3l3.4-5.7c1.2-2,3-3.5,5.2-4.2l23.5-7.7l13.1,13.2L395,313.8
	l-51.1-126L359.8,180.2z"/>
<path class="st9" d="M431.3,173.7l-42.4,151.5c0,0,35.8-43.8,62.5-109.9C452,214.4,431.3,173.7,431.3,173.7z"/>
<path class="st9" d="M356.5,175.7l39,133.5l-2.5,5.6c0,0-53.2-66.1-59.4-97.9C333.6,217.5,356.5,175.7,356.5,175.7z"/>
<path class="st9" d="M338.6,208.2l-7.6-13.6c0,0,17-14.9,25.5-18.9L338.6,208.2z"/>
<path class="st9" d="M447.8,206.9l8.1-13.3c0,0-16.3-15.6-24.7-20L447.8,206.9z"/>
<path class="st12" d="M372.7,204.2v-8.6c0-3.4,2.9-6.1,6.3-5.9c6,0.5,14,2.6,14,10.2c0,7.6-8,9.7-14,10.2
	C375.6,210.3,372.7,207.6,372.7,204.2z"/>
<path class="st12" d="M418.2,204.2v-8.6c0-3.4-2.9-6.1-6.3-5.9c-6,0.5-14,2.6-14,10.2c0,7.6,8,9.7,14,10.2
	C415.3,210.3,418.2,207.6,418.2,204.2z"/>
<path class="st7" d="M395.9,207h-1.1c-2,0-3.6-1.6-3.6-3.6v-5c0-2,1.6-3.6,3.6-3.6h1.1c2,0,3.6,1.6,3.6,3.6v5
	C399.5,205.3,397.9,207,395.9,207z"/>
<path class="st12" d="M277.6,318.4l-2.4,2c-0.8,0.6-1.9,0.5-2.6-0.2l-36.4-44.1c-0.6-0.8-0.5-1.9,0.2-2.6l2.4-2
	c0.8-0.6,1.9-0.5,2.6,0.2l36.4,44.1C278.5,316.6,278.4,317.7,277.6,318.4z"/>
<path class="st12" d="M536.4,282.9l2.3,2.1c0.7,0.7,0.8,1.8,0.1,2.6L495.3,335c-0.7,0.7-1.8,0.8-2.6,0.1l-2.3-2.1
	c-0.7-0.7-0.8-1.8-0.1-2.6l43.5-47.4C534.5,282.3,535.6,282.2,536.4,282.9z"/>
<path class="st2" d="M179.8,128c-10.1,6.9-30.8,6.3-30.8,6.3s-8.3-18.7-6.3-30.8c2.1-12.4,27.1-14.8,24.5,3.2
	C183.2,97.3,190.5,120.8,179.8,128z"/>
</svg>
