<?xml version="1.0" encoding="utf-8"?>
<!-- Generator: Adobe Illustrator 26.0.3, SVG Export Plug-In . SVG Version: 6.00 Build 0)  -->
<svg version="1.1" id="Layer_1" xmlns="http://www.w3.org/2000/svg" xmlns:xlink="http://www.w3.org/1999/xlink" x="0px" y="0px"
	 viewBox="0 0 588 387" style="enable-background:new 0 0 588 387;" xml:space="preserve">
<style type="text/css">
	.st0{fill:#1C1938;}
	.st1{fill:#E0B9A0;}
	.st2{fill:#CCAA97;}
	.st3{fill:#B22947;}
	.st4{fill:#FAB948;}
	.st5{fill:#E2B440;}
	.st6{fill:#FF9603;}
	.st7{fill:#D8C5A7;}
	.st8{fill:#FEBC6E;}
	.st9{fill:#FFFFFF;}
	.st10{fill:#35912D;}
	.st11{fill:#E0AA4B;}
	.st12{fill:#7097BA;}
	.st13{fill:#BA3E35;}
</style>
<g>
	<path class="st0" d="M84.1,17.2c14.2,63.2,23,127.9,26.2,192.6C95.9,146.6,87.3,82,84.1,17.2L84.1,17.2z"/>
</g>
<path class="st1" d="M491.3,159.1c-0.6,40.7-27.7,35.2-39.1,44.8c-13.3,11.4-8.8,52.9-18.2,67.8c-2.6,4-12.1,10.7-16.7,9.6
	c-13.2-3.1-25.4-32.5-36.8-39.9c-6.7-4.3-25-3.8-32,0c-11.9,6.6-23.6,37-36.8,39.9c-4.7,1.1-14.2-5.5-16.7-9.6
	c-9.4-14.8-4.9-56.3-18.2-67.8c-11.2-9.6-38.3-4.1-39.1-44.8c-0.4-28.2,37.1-39.5,37.1-39.5l42.5-21.1c2.8-1.4,5.3-3.1,7.5-5.1
	c0.8-0.7,1.7-1.6,2.4-2.4l0.6-0.7v-0.1c4.1-5,6.9-11,7.6-17.4c0.2-1.5,0.3-3,0.2-4.4v-3v-4.8h56.8l0.1,5.3v1.6v3.4
	c0,0.3,0,0.7,0,1.1l0,0c0,0.6,0.1,1.4,0.2,2c0.2,1.6,0.5,3.3,1,4.9c2.3,8.2,8,14.8,15.6,18.6l42.9,21.3c1.1,0.5,2.2,1.1,3.4,1.4
	C463,122.6,491.8,134.4,491.3,159.1z"/>
<path class="st2" d="M394.1,79l-1.1,1.3c-5.5,6.7-30.5,37.1-44.3,46.9c-3.4,2.4-6,3.6-7.6,2.9c-7.2-3.5-15.7-37.2-15.7-37.2l0.1-0.1
	c0.6-0.6,1.3-1.3,1.8-2c0.3-0.4,0.7-0.8,1.1-1.4l0.1-0.1c3.5-4.8,5.8-10.3,7.1-16.1c0-0.2,0.1-0.4,0.1-0.6c0.3-1.5,0.5-3.2,0.7-5.1
	c0.1-0.7,0.1-1.5,0.2-2.3c0.1-1.5,0.2-3.1,0.3-4.8h55.8v0.2v4.6v7.1l0.1,0.8l0.1,0.7l1,4.9L394.1,79z"/>
<path class="st1" d="M426.3,152.5c-1.3,29.3,19,56.7,19,56.7s33.1,57,43.9,76.1c5.1,9,15.4,28.1,38.2,16l0,0
	c18.8-10,12.5-29.8,8.5-38.9c-8.2-18.5-28.5-54.3-33.2-73.8c-3.5-14.5-3.4-38.2-22.2-55.3c0,0-14-15.7-33.8-8l-0.7,0.3
	C434.5,129.9,426.9,140.4,426.3,152.5L426.3,152.5z"/>
<path class="st1" d="M186.8,276.7c15.8-10.4,8.4-34.4,5.3-42.9c-3.1-8.5-13.1-24.4-18-32.1c-12.5-19.9-52-71.8-58.9-93.8
	c-4.8-15.4-30.6-4-30.6-4s14.3,21.1,18.3,31.8c8.3,22.6,12.8,55,25.2,92.8c3.3,10,13.3,28.7,19.8,36.7
	C166.2,287.4,182.4,279.7,186.8,276.7z"/>
<path class="st1" d="M296.9,169.1c-8.8,27.3-36.5,45.4-36.5,45.4s-49.7,40.9-66,54.9c-7.7,6.6-23.5,20.4-40.2,1.6l0,0
	c-13.8-15.6-1.3-31.7,5.6-38.6c13.7-14.2,44.5-40,55.5-56.2c8.2-12.1,16.1-34,39.1-43.1c0,0,18-9.6,33.5,4.1l0.6,0.5
	C297.2,145.4,300.5,157.8,296.9,169.1z"/>
<path class="st3" d="M281.3,375.2l1.4-20.9h164.1l2.1,20.6L284,378.1C282.4,378.1,281.1,376.7,281.3,375.2z"/>
<path class="st3" d="M268.1,123c0.1,16.3,9.2,75.1,10.1,80.3c0,0.2,0.1,0.5,0.1,0.7c0.2,9.1,3.9,181.5,4.6,172.8
	c0.6-9,169.6,18.5,167.5-2.1c-2.1-20.6,0.7-162.3,0.7-162.3l5.8-90.2c0.1-2.3-1.1-4.4-3.2-5.5L432,105.4c-3-1.6-6.7-0.2-7.9,3
	l-8.7,20.8c-3,7-9.7,11.5-17.3,11.6l-72.7,1c-7.5,0.1-14.4-3.8-18.2-10.3L295.8,112c-1.5-2.5-4.8-3.6-7.4-2.3l-16.8,7.9
	C269.4,118.6,268.1,120.8,268.1,123z"/>
<path class="st1" d="M525.5,255.9c-17.6-5.6-34.4,12.2-40.1,19c-5.7,6.8-14.1,22.2-18.1,29.9c-10.5,19.4-25.5,52.8-36.1,71.7
	c-6.9,12.5-10.9,19-3.9,23.5c6.4,4.1,16.9-6,21.1-9.8c17.3-16.2,51.4-47.8,66.8-66.9c6.4-7.8,17.6-24.6,21.1-33.5
	C546.1,264.9,530.6,257.5,525.5,255.9z"/>
<g>
	<g>
		<g>
			<g>
				<g>
					<polygon class="st4" points="378.8,347.8 364.9,358.1 351,347.7 364.9,337.4 					"/>
				</g>
			</g>
			<g>
				<g>
					<polygon class="st4" points="378.9,327.1 364.9,337.4 351.1,327 365,316.9 					"/>
				</g>
			</g>
			<g>
				<g>
					<polygon class="st4" points="379,306.6 365,316.8 351.2,306.4 365.1,296.2 					"/>
				</g>
			</g>
			<g>
				<g>
					<polygon class="st4" points="379.1,285.9 365.1,296.2 351.2,285.8 365.2,275.6 					"/>
				</g>
			</g>
			<g>
				<g>
					<polygon class="st4" points="379.2,265.3 365.2,275.6 351.4,265.2 365.3,254.9 					"/>
				</g>
			</g>
			<g>
				<g>
					<polygon class="st4" points="379.2,244.6 365.3,254.9 351.5,244.5 365.4,234.3 					"/>
				</g>
			</g>
			<g>
				<g>
					<polygon class="st4" points="379.3,224.1 365.4,234.3 351.6,223.9 365.5,213.7 					"/>
				</g>
			</g>
			<g>
				<g>
					<polygon class="st4" points="379.4,203.5 365.5,213.7 351.7,203.3 365.5,193.1 					"/>
				</g>
			</g>
		</g>
	</g>
</g>
<path class="st5" d="M454.9,229.6l-2.8-4.8c-0.7-1.3-0.3-3,1-3.7l50.6-29.2c1.3-0.7,3-0.3,3.7,1l2.8,4.8c0.7,1.3,0.3,3-1,3.7
	l-50.6,29.2C457.3,231.3,455.7,230.9,454.9,229.6z"/>
<path class="st1" d="M104.4,139.4c0,0-4.2-10.4-10.2-12.4c-2.6-0.8-11.5-17-12.6-25.7c-1.1-8.6,23.5-24.6,23.5-24.6L89.3,49.4
	c-0.3-0.6-0.5-1.3-0.4-1.9c0.1-1.3,0.4-3.2,2-4.7c1.2-1.1,3-1.2,4.2-0.3c9.2,6,21.1,25.4,24,32.8c3.2,7.9,4,31.9,4,39.4
	c0,7.6,5,18.3,5,18.3L104.4,139.4z"/>
<path class="st1" d="M422.7,406.7l4.4,12.7c0.1,0.2,0.2,0.5,0.2,0.7l9.5,18.1c0.4,2.4,2.8,4.1,5.3,3.5c0.4-0.1,0.8-0.3,1.3-0.5
	c1.6-1.2,2-3.3,1.3-5.1l-5.6-12.7c0.1-3.2,3.4-5.2,6.1-3.8l5.2,2.3c0.7,0.4,1.5,1.1,1.9,1.8l6.1,13.1c1.3,1.9,1.4,4.3,0.3,6.4
	l-3.4,9.5c-0.6,1.6-0.3,3.7,1.2,4.7c1.9,1.4,4.4,0.5,5.5-1.5c0,0,4.6-9.7,6.2-13.3c0.2-0.5,0.5-1.3,1.1-1.8c0.7-1.2,1.1-2.6,0.3-4.1
	l-7.2-21.7l0,0c-0.5-1.4-1.3-2.5-2.1-3.7l-22.9-30.8l-1.3-1.5c-1.9-2.4-6,1.5-8.9,4.9c-2,2.4-3.5,5.4-4,8.5l-1.2,6.1
	C421.6,401.4,421.8,404.1,422.7,406.7z"/>
<path class="st6" d="M90,14.1c-1.5-1.3-3-2.2-3.7-3.4c-1.6-2.5,0.8-10.4,0.8-10.4c-3.6,1.2-8.9,8.6-10.3,15.8
	C81.8,14.1,86,18.1,90,14.1z"/>
<path class="st7" d="M76.8,16.3c-0.2,0.8-0.3,1.6-0.3,2.4c-0.3,7.9,9.3,11.6,10.8,11.4c1.5-0.2,6.5-3,6.2-9
	c-0.1-3.4-1.8-5.4-3.6-6.9C86,18.1,81.8,14.1,76.8,16.3z"/>
<path class="st8" d="M347.9,440.4c-0.6,28.4,22.1,51.6,50.3,51.6c5.6,0,10.8-0.8,15.9-2.5c4.6-1.6,8-5.4,9.1-10.1
	c3.3-14.7-3.4-36.8,3.6-39.8c5.2-2.1,9.4,3.4,13.7,6.4c3.5,2.4,8.3,0,8.3-4.2l0,0c0-28.2-23.3-51-51.6-50.3
	C370.4,391.9,348.7,413.7,347.9,440.4z M433.5,432.4c0-3.2,2.4-5.6,5.6-5.6c3.2,0,5.6,2.4,5.6,5.6s-2.4,5.6-5.6,5.6
	C436,438,433.5,435.6,433.5,432.4z"/>
<path class="st1" d="M435.7,436.3l3.8,7.6c0.4,0.8,0.7,1.8,1.2,2.6c0.7,1.9,2.8,3.1,4.9,2.4c0.4-0.1,0.8-0.3,1.3-0.5
	c1.6-1.2,2-3.3,1.3-5.1l-4.8-10C440.7,434.6,438.3,435.2,435.7,436.3z"/>
<g>
	<g>
		<path class="st9" d="M417.9,436.3c3.7,0.6,4.4-12.8,0-13.6c-1.9-0.3-4.2-1.3-6.1-0.3c-4.4,2.1-4.1,9.3-3.4,13.2
			c0.7,3.7,1.5,7.4,2.1,11.1c0.3,2,2.2,4.7,4.1,2.4c2.1-2.3,1.7-6.6,1.2-9.4c-0.5-3.1-1.2-5.9-1.7-8.8c-0.1-0.6-0.1-1.4-0.3-2
			c-0.1-0.2-0.1-0.3-0.1-0.4c-0.1,2.3-0.2,4.8-0.3,7.2c0.2-0.1,0.5,0,0.7,0C415.2,436.1,416.7,436.1,417.9,436.3L417.9,436.3z"/>
	</g>
</g>
<g>
	<g>
		<path class="st10" d="M374.4,436.9c-3.4-2.3-5.2,10.8-1.7,13.2c2.2,1.6,4.4,3.2,6.7,4.7c0.2-4.6,0.5-9.1,0.7-13.6
			c-4.6-0.5-9.3-1.2-14-1.7c-4-0.4-3.8,12-0.7,13.6c6.5,3.3,12.9,6.5,19.5,9.7c0.2-4.6,0.5-9.1,0.7-13.6c-5.4,0.1-10.7,0.2-16.1,0.3
			c-4.3,0.1-4.1,13.9,0,13.8c5.4-0.1,10.7-0.2,16.1-0.3c4.2-0.1,3.9-12,0.7-13.6c-6.5-3.3-12.9-6.5-19.5-9.7
			c-0.2,4.6-0.5,9.1-0.7,13.6c4.6,0.5,9.3,1.2,14,1.7c2.3,0.3,2.9-4.4,3.1-5.9c0.2-2.2,0-6-2.1-7.5C379,440,376.8,438.4,374.4,436.9
			L374.4,436.9z"/>
	</g>
</g>
<g>
	<g>
		<path class="st11" d="M393.8,412.6c-0.3-1.7-1.9-4.1-3.6-2.1c-1.7,2.1-1.5,5.6-0.8,8c0.6,3.1,1.4,6.1,2,9.3
			c0.3,1.6,1.9,4.1,3.6,2.1c1.7-2.1,1.5-5.6,0.8-8C395.2,418.8,394.6,415.8,393.8,412.6L393.8,412.6z"/>
	</g>
</g>
<g>
	<g>
		<path class="st12" d="M370.2,420.6c1.1-3.1,1.4-6.7,0-9.7c-1.1-2.2-3.4-2.6-4.2,0c-2.1,6-2.2,14.5,2.5,19.4
			c3.5,3.5,9.1,4.3,13.7,5.8c4.6,1.5,5.3-12.1,1.6-13.3c-2.6-0.8-5.3-1.7-7.8-2.5c-1.6-0.4-3.4-1.1-4.6-2.1
			c-0.3-0.3-0.5-0.5-0.7-0.8c-0.3-0.3-0.1,0.5,0,0.1c0.1-0.6,0.1,1.3,0.1,1.5c-0.1-1.5-0.1,1.6,0,0.3
			C370.3,421.9,371.4,417.3,370.2,420.6L370.2,420.6z"/>
	</g>
</g>
<g>
	<g>
		<path class="st13" d="M406.3,469.1c2.3,1.6,3.6-3.6,3.8-4.7c0.3-2.5,0.2-6.8-2.1-8.5c-3.4-2.3-8.2-3.8-11.3-0.4
			c-3.7,3.9-4.4,10.2-4.8,15.4c-0.1,1.5,0.4,6.9,3.1,6.8c2.6,0,2.9-5.1,3.1-6.8c-0.2,3.3-0.1,1.4,0,0.5c0,0,0.1-1.4,0-0.4
			c-0.1,0.8,0.2-0.7,0.2-0.7c0.1-0.5,0.5-2.1,1.7-2.8C401.8,466.3,404.8,468,406.3,469.1L406.3,469.1z"/>
	</g>
</g>
</svg>
