<?xml version="1.0" encoding="utf-8"?>
<!-- Generator: Adobe Illustrator 26.0.3, SVG Export Plug-In . SVG Version: 6.00 Build 0)  -->
<svg version="1.1" id="Layer_1" xmlns="http://www.w3.org/2000/svg" xmlns:xlink="http://www.w3.org/1999/xlink" x="0px" y="0px"
	 viewBox="0 0 788 1005.1" style="enable-background:new 0 0 788 1005.1;" xml:space="preserve">
<style type="text/css">
	.st0{fill:#375D63;}
	.st1{fill:#9E5E47;}
	.st2{fill:#B56D50;}
	.st3{fill:#F7A386;}
	.st4{fill:#547A87;}
	.st5{fill:#2B2B2B;}
	.st6{fill:none;stroke:#ECF2F2;stroke-width:3;stroke-miterlimit:10.0002;}
	.st7{fill:none;stroke:#ECF2F2;stroke-width:2.9998;stroke-miterlimit:9.9995;}
	.st8{fill:none;stroke:#ECF2F2;stroke-width:5.4389;stroke-miterlimit:10;}
	.st9{fill:#ECF2F2;}
	.st10{fill:none;stroke:#BCBCBC;stroke-width:5;stroke-linecap:round;stroke-miterlimit:10;}
	.st11{fill:none;stroke:#2B2B2B;stroke-width:2;stroke-miterlimit:10;}
</style>
<path class="st0" d="M450.3,480.8c-23.3,2.5-44.5,10-69.8,18.3c0,0-11.5,0.5-10.8-0.1l-70.8-16.6l5.9-58.4
	c1.1-10.7,10.1-18.8,20.8-18.8h99.9c11,0,20.1,8.5,20.8,19.4L450.3,480.8z"/>
<rect x="356.4" y="163.5" class="st1" width="39.5" height="47.4"/>
<path class="st2" d="M545.6,327.9L545.6,327.9L545.6,327.9l-73.2-78.3l0,0c-9.3-10-25.1-10.2-35.3-0.5c-10.2,9.7-10.8,25.7-1.5,35.7
	c0.1,0.2,0.3,0.3,0.4,0.4l85.7,71.4c8.7,7,19.3,6.8,25.1,0C553.4,349,556.9,339.5,545.6,327.9z"/>
<path class="st2" d="M471.1,441.8l-13.2-13.7c-0.8-0.8-1.8-1.4-2.9-1.8l-6.3-2c-1-0.3-2,0.4-2.1,1.5l-0.4,6.6
	c-0.1,1.3-0.5,2.6-1.4,3.7c-5,6.5-23,30.3-21.3,29.6l-0.2,1.6c-0.7,5.7,5.7,9.6,10.5,6.4c6.3-4.3,13.4-9.1,17.3-11.7
	C460.2,455.9,471.1,441.8,471.1,441.8z"/>
<path class="st2" d="M542.7,326.8c-11.1-8.3-24.6-5.3-33.1,5.4c-0.2,0.2-3.5,5.4-3.5,5.4l-50.6,94.6c0,0-5.1,6.9,2.9,12.5
	c7.1,5,12.9-2.9,12.9-2.9l69.3-73.3c8-8.5,14.1-18.4,11.8-29.8C551.2,334.1,546.1,329.3,542.7,326.8z"/>
<path class="st3" d="M553.2,367.3l-0.1-0.1c-0.2,0.2-0.3,0.4-0.5,0.6c0,0.1-0.1,0.1-0.1,0.1L553.2,367.3z"/>
<path class="st2" d="M299.4,319.4l-34.5,50.8l-2.7,3.4c-4.6,5.9-13.1,7.3-19.3,3.1l0,0c-5.7-3.8-7.9-11-5.4-17.4l2.3-5.6
	c0,0,19-40.5,23.7-54.6c5.8-17.3,16.8-71,46.5-56.2l0,0c10.8,5.4,19.5,19.2,13.6,29.8L299.4,319.4z"/>
<path class="st2" d="M248.7,379L248.7,379c6.4-0.2,12.2-4,14.9-9.9c0.3-0.6,0.6-1.1,0.8-1.8c1.9-10.1-0.5-30.9-2.6-40.9
	c-4.9-23.3-26.9-93-26.9-93l0,0c-2.3-4.7-7.7-6.8-12.6-4.9l-1.1,0.4c-4.4,1.8-7,6.5-6,11.2c0.2,0.9,0.3,1.6,0.4,2.2
	c1.5,10.5,6.2,79,8,93.2c1,8.3,6.4,24.4,10.2,31.8C236.1,371.7,243.1,379.2,248.7,379z"/>
<path class="st4" d="M455,238.4c2.5,1.1,3.9,3.9,3.1,6.5c-3.6,13.2-14.8,49.3-14.8,51.8c0,2.9-0.5,72.2-0.6,78.2
	c0,0.3,0,0.6,0.1,0.8l18.8,127.6c1.5,10-5.4,19.2-15.4,20.6c-0.1,0-0.2,0-0.2,0s-53.1,10.1-71,9.5c-17.3-0.7-67.8-14.4-67.8-14.4
	c-9.2-2-15.4-10.6-14.3-20l15.4-127.8c0-0.2,0-0.5,0-0.7l-0.7-77.2c0-0.6-0.1-1.1-0.3-1.7L292,245c-0.9-2.7,0.4-5.7,3.1-6.8
	l53.5-23.2c1.8-0.8,3-2.4,3.3-4.3l1.4-9.8c0.4-2.7,2.8-4.8,5.5-4.8l34.7,0.3c2.8,0,5.1,2.1,5.4,4.9l1.1,10.2c0.2,2,1.5,3.7,3.3,4.5
	L455,238.4z"/>
<path class="st5" d="M438.2,529.6l20.9-7.4c0.7-0.3,1.5-0.5,2.2-0.7c3.3-0.9,6.2-2.7,8.6-4.9c5.8-5.5,7.5-14.1,5-21.6l-25.4-74.1
	c0,0-11.2-21-19.1-39.6c-6.1-14.4-7.2-59.4-7.4-79c-0.1-5.1-4.2-9.3-9.4-9.3h-75.3c-5,0-9.2,4-9.4,9c-0.8,19.8-2.9,65.9-6,75.1
	c-3.9,11.8-15.9,36.3-19.4,45.8c-2.5,6.9-13.1,50-16,74.9c-1.1,9.6,4.5,18.7,13.6,22l5,2C348.5,536.9,394.3,539.6,438.2,529.6z"/>
<g>
	<path class="st5" d="M351,212.6c-6.2,16.7-10,34.2-12.3,51.8c-0.9,7-2,14.1-3.3,21.1c-0.6,3.5-1.2,7-2,10.6H333
		c-1.3-14.4,0.5-28.8,4-42.8c2.5-10.5,5.4-20.9,9.3-30.9c1.3-3.3,2.7-6.7,4.3-9.9L351,212.6L351,212.6z"/>
</g>
<g>
	<path class="st5" d="M401.1,213c6.4,12.8,10.5,26.6,13.9,40.5c3.5,13.9,5.4,28.2,4.1,42.6h-0.4c-0.9-3.5-1.4-7-2-10.5
		c-1.2-6.8-2.4-14.1-3.3-20.9c-1.3-10.5-3.4-20.9-6.1-31.2c-1.8-6.8-3.9-13.6-6.5-20.2L401.1,213L401.1,213z"/>
</g>
<g>
	<ellipse transform="matrix(0.9939 -0.1104 0.1104 0.9939 -38.9623 42.3874)" class="st6" cx="363.3" cy="373" rx="6.6" ry="11.1"/>
	
		<ellipse transform="matrix(0.5527 -0.8334 0.8334 0.5527 -168.8564 458.2118)" class="st7" cx="342.4" cy="386.4" rx="6.6" ry="11.1"/>
	<polyline class="st8" points="364.5,383.6 367.7,402.3 351.4,392.2 	"/>
	<g>
		<path class="st9" d="M363.5,397.9c11.6,7.1,22.3,22.4,24.8,35.7C376.7,426.5,366.1,411.2,363.5,397.9L363.5,397.9z"/>
	</g>
	<g>
		<path class="st9" d="M365.2,396.7c11.6,7.1,22.3,22.4,24.8,35.7C378.4,425.4,367.8,410.1,365.2,396.7L365.2,396.7z"/>
	</g>
</g>
<path class="st4" d="M417.2,441.9l-17.1,1.3c-15.6,1.2-31.3,1.2-47-0.1l-15.6-1.3c-3.2-0.6-5.6-3.8-5.6-7.6v-28.4
	c0-4.7,3.6-8.3,7.6-7.6c0,0,6.8,0.5,14.5,1.1c14.6,1.1,29.3,1.1,43.9,0.1l17.4-1.3c4-0.7,7.5,2.9,7.5,7.6v28.6
	C422.8,438.1,420.4,441.3,417.2,441.9z"/>
<path class="st2" d="M231.9,231.7c0.7-0.4,1.3-0.9,1.7-1.6c1.9-3.4,7.8-14,8-16.2c0.2-2.7-0.5-14.4,0-16.5
	c0.5-2.1,6.6-13.3,5.3-13.8c-0.8-0.3-2.9-0.8-4.6-1.3c-1.6-0.4-3.3,0.2-4.2,1.6l-4.2,5.8c-0.3,0.5-0.6,1.1-0.7,1.6l-0.8,5
	c-0.4,2.2-3.3,2.6-4.3,0.6l-5.9-12.2c-0.1-0.2-0.2-0.4-0.2-0.6c-0.9-3-8.5,0.8-8.5,0.8c-0.1-0.1-5.2,2.9-7,4
	c-0.5,0.3-0.9,0.6-1.3,0.9l-3.9,2.8c-3.4,2.4-5.9,5.8-7.1,9.7c-0.5,1.8-0.7,3.4,0.1,4.3c0.2,0.2,0.4,0.5,0.5,0.8l14.5,27.3
	c0.4,0.8,1.2,1.4,1.9,1.8l4.4,1.9c1.1,0.4,2.3,0.4,3.3-0.1L231.9,231.7z"/>
<path class="st2" d="M209.9,233.3c0,0,3.4,3.5,4.4,5.5s2.2,10.1,2.2,10.1l20.4-8.6c0,0-2.5-7.9-2.2-10c0.3-2.1,3-8.3,3-8.3
	l-10.7-4.9L209.9,233.3z"/>
<path class="st4" d="M212.5,217.8l4,1.4c3.2,1.2,6.7-0.2,8.1-3.1l20-46.1c1.3-2.9-0.2-6.2-3.4-7.4l-4-1.4c-3.2-1.2-6.7,0.2-8.1,3.1
	l-20,46.1C207.7,213.4,209.3,216.7,212.5,217.8z"/>
<line class="st10" x1="218.2" y1="186.6" x2="215.2" y2="194.7"/>
<line class="st10" x1="224" y1="172.2" x2="221" y2="180.3"/>
<ellipse transform="matrix(0.3797 -0.9251 0.9251 0.3797 14.1689 315.6306)" class="st4" cx="242.4" cy="147.2" rx="24.7" ry="29.9"/>
<path class="st4" d="M228.9,161.7l-39.1-21.6c-4.7-1.9-6.9-7.3-4.9-12l3.5-8.3c1.9-4.7,7.3-6.9,12-4.9l42.1,13.6L228.9,161.7z"/>
<path class="st4" d="M240.9,166.2l27,6c2.9,1.2,6.8-1.6,8.7-6.3l3.5-8.3c1.9-4.7,1.2-9.4-1.7-10.6l-23.5-13.8L240.9,166.2z"/>
<g>
	<polygon class="st5" points="215.9,217.7 202.6,246.2 212.2,216.3 	"/>
</g>
<path class="st11" d="M209.5,227.7c0,0-13.2,37.4-16.8,49.2c-18,59,12.4,78.8-1.1,115.6c-5.1,14-18.8,33.7-16,49.5
	c2.8,15.7,17.8,30.3,34.6,14.6c34.9-32.4,105.5-3.3,105.5-3.3"/>
<path class="st2" d="M231,205.7l-22.2,11.6c-3.9,2-8.7,0.5-10.7-3.4l-4.9-9.4c-2-3.9-0.5-8.7,3.4-10.7l22.2-11.5
	c3.9-2,8.7-0.5,10.7,3.4l4.9,9.4C236.4,198.9,234.8,203.7,231,205.7z"/>
</svg>
