<?xml version="1.0" encoding="utf-8"?>
<!-- Generator: Adobe Illustrator 26.0.3, SVG Export Plug-In . SVG Version: 6.00 Build 0)  -->
<svg version="1.1" id="Layer_1" xmlns="http://www.w3.org/2000/svg" xmlns:xlink="http://www.w3.org/1999/xlink" x="0px" y="0px"
	 viewBox="0 0 510 327.1" style="enable-background:new 0 0 510 327.1;" xml:space="preserve">
<style type="text/css">
	.st0{fill:#B56D50;}
	.st1{fill:#9E5E47;}
	.st2{fill:#FFCF2E;stroke:#FFCB45;stroke-width:0.25;stroke-miterlimit:10.0003;}
	.st3{fill:#E5E5E5;stroke:#7FADD5;stroke-width:0.25;stroke-miterlimit:10;}
	.st4{fill:#F4CF31;}
	.st5{fill:#301C0F;}
	.st6{fill:#E8AF49;}
</style>
<path class="st0" d="M443.4,127.3l-2.4,45.5l-16.5,48h-92.1L311,172.1l1.5-45.6l-17-36.8l37.9-15.2l13.4-5.4
	c7.7-3.1,12.8-10.6,12.8-18.9V37.4H398v12.5c0,8.5,5.3,16.1,13.3,19.1l12.9,4.8L462.7,88L443.4,127.3z"/>
<path class="st1" d="M424.2,73.9c-11.1,8.7-34,13.9-49.7,13.9c-11.1,0-29.6-7-41.1-13.3l13.4-5.4c7.7-3.1,12.8-10.6,12.8-18.9V38.7
	l0.3-1.3L360,37h38v13c0,8.5,5.3,16.1,13.3,19.1L424.2,73.9z"/>
<g id="Calque_3_00000178198621069323162600000009031627836151766950_">
	<path class="st0" d="M118.6,234.5c-0.3-0.4-0.7-0.6-1.1-0.8c-2.8-1-13.4-5-15.4-4.8c-2.3,0.2-15,7.3-14.4,10.4c0,0-0.3,3.1,1.8,4.5
		l-5.8,7c-1.9,2.3-2.1,5.6-0.4,8.1c1.1,1.6,2.2,3.2,3.1,4.2c0.7,0.9,1.5,1.6,2.5,2.1l5.8,3c0.6,0.3,1.1,0.5,1.7,0.7
		c1.9,0.7,8.2,3.6,9.5,1.8c0.1-0.2,0.3-0.3,0.4-0.4l19.8-16.3c0.5-0.4,0.8-0.9,0.9-1.6l0.8-4.9c0.1-0.7-0.1-1.4-0.5-1.9L118.6,234.5
		z"/>
	<path class="st0" d="M234.6,187.4c-7.3-11.2-23.1-3.2-29.2-1.1s-18.7,9.5-24.1,12.9c-14.2,8.7-56.3,32.3-71.9,37
		c-10.9,3.2,5.6,18.7,5.6,18.7s11.6-6.7,19.2-9.4c16-5.7,39-8.6,65.7-17.1c7-2.2,20.4-9.1,26.1-13.7
		C242.1,202.2,236.8,190.7,234.6,187.4z"/>
	<path class="st0" d="M620,237.4c0.3-0.3,0.6-0.6,1-0.7c2.7-1,13.5-5,15.5-4.9c2.3,0.2,11.8,2.4,13.6,2.2s12.4-4,12.5-2.6
		c0.1,0.9,0.1,3.3,0.1,5c0,0.9-0.5,1.8-1.4,2.2l-5.4,2.7c-1.1,0.6-2.4,0.9-3.6,0.9h-2.4c-2.2,0-3.1,2.8-1.3,4.2l8.2,6.1
		c0.1,0.1,0.2,0.2,0.3,0.2c2,1,20.4,10.3,21.6,10.6c0.6,0.1,0.5,1.7,0.1,3.3c-0.4,1.8-2.3,2.8-4.1,2.1l-22-9.4
		c-0.1-0.1-0.2,0.1-0.1,0.2l21.2,16.6c1.3,1,1.5,2.9,0.5,4.2l-0.8,1.1c-1,1.3-2.9,1.5-4.1,0.5l-20.8-16.3c-0.3-0.2-0.6,0.2-0.4,0.4
		l17.3,19.3c1.3,1.5,0.9,3.7-0.9,4.6l-1.2,0.6c-1.2,0.6-2.6,0.3-3.5-0.6l-17.2-18c-0.2-0.3-0.7,0-0.5,0.4l8.2,14.5
		c0.9,1.6,0.1,3.6-1.6,4.2c-1.6,0.5-3.2,0.9-3.5,0.1c-0.7-1.4-11.2-15.5-12.6-17.5c-0.1-0.2-0.2-0.3-0.4-0.4l-19.9-16.3
		c-0.4-0.4-0.7-0.9-0.8-1.5l-0.7-5c-0.1-0.6,0.1-1.3,0.5-1.8L620,237.4z"/>
	<path class="st0" d="M502.9,192.5c7.3-11.2,23.4-1.2,29.5,0.9s18.7,9,24.2,12.4c14.2,8.7,55.9,31,71.5,35.7
		c10.9,3.3-5.6,18.7-5.6,18.7s-11.6-6.7-19.2-9.4c-16-5.7-39-8.6-65.7-17.1c-7-2.2-20.3-9.1-26.1-13.7
		C495.4,207.2,500.8,195.7,502.9,192.5z"/>
	<path class="st0" d="M521.5,186.7l1.6,3.8c2.7,6.5-0.1,14-6.4,17.2l0,0c-5.8,2.8-12.7,1.3-16.8-3.7l-3.6-4.5
		c0,0-87.9-89.5-58.7-108.9l0,0c9.4-6.3,24.8-6.9,30.8,2.8L521.5,186.7z"/>
	<path class="st0" d="M284.4,164.2L238,200.9l-3.4,2.4c-6,4.1-14.1,2.9-18.6-2.8l0,0c-4.1-5.1-4.1-12.4,0.1-17.5l3.7-4.5
		c0,0,29.2-31.7,37.6-43.3c10.3-14.2,36.7-66.2,60.9-40.1c0,0,10.4,25.2,2,33.2L284.4,164.2z"/>
</g>
<path class="st2" d="M603.9,227.9l3.8,1.4c1.6,0.6,2.4,2.5,1.6,4.1l-9.3,19.1c-0.7,1.4-2.3,2-3.8,1.5l-3.8-1.4
	c-1.6-0.6-2.4-2.5-1.6-4.1l9.3-19.1C600.8,227.9,602.4,227.3,603.9,227.9z"/>
<path class="st3" d="M457.1,295l-10-63c-1.4-8.8-2.1-17.7-2-26.6l0.2-20.2c0.2-25.8-3.7-51.8-15.6-75l-23.9-41.8
	c0,0,13.9,24.5,11.7,37.8c-2.2,13.3-39,54.2-39.5,72.2v1.2c-0.5-18-37.2-59-39.5-72.2c-2.2-13.3,13.1-40.5,13.1-40.5L331,103.3
	c-14,24.6-21.2,52.1-21.1,80l0,0c0.1,22.5,6.8,42.7,4,65.1l-9.7,46.4"/>
<g>
	<g>
		<ellipse transform="matrix(0.9319 -0.3626 0.3626 0.9319 4.1875 151.8812)" class="st4" cx="406.7" cy="64.8" rx="4.8" ry="4.5"/>
	</g>
	<g>
		
			<ellipse transform="matrix(0.9998 -2.197994e-02 2.197994e-02 0.9998 -1.5496 9.0039)" class="st4" cx="408.8" cy="75" rx="4.8" ry="4.5"/>
	</g>
	<g>
		<ellipse transform="matrix(0.3213 -0.947 0.947 0.3213 195.654 443.3882)" class="st4" cx="407.2" cy="85.2" rx="4.5" ry="4.8"/>
	</g>
	<g>
		<ellipse transform="matrix(0.6258 -0.78 0.78 0.6258 76.7968 349.1057)" class="st4" cx="402.2" cy="94.5" rx="4.5" ry="4.8"/>
	</g>
	<g>
		
			<ellipse transform="matrix(0.8548 -0.5189 0.5189 0.8548 4.6886 219.3088)" class="st4" cx="394.3" cy="101.3" rx="4.5" ry="4.8"/>
	</g>
	<g>
		
			<ellipse transform="matrix(0.9807 -0.1953 0.1953 0.9807 -13.1178 77.1368)" class="st4" cx="384.6" cy="105.1" rx="4.5" ry="4.8"/>
	</g>
	<g>
		
			<ellipse transform="matrix(0.152 -0.9884 0.9884 0.152 213.2191 459.1891)" class="st4" cx="374.2" cy="105.3" rx="4.8" ry="4.5"/>
	</g>
	<g>
		<ellipse transform="matrix(0.4808 -0.8768 0.8768 0.4808 99.707 372.3411)" class="st4" cx="364.3" cy="102" rx="4.8" ry="4.5"/>
	</g>
	<g>
		
			<ellipse transform="matrix(0.7517 -0.6595 0.6595 0.7517 25.4642 258.6292)" class="st4" cx="356.2" cy="95.5" rx="4.8" ry="4.5"/>
	</g>
	<g>
		<ellipse transform="matrix(0.9319 -0.3626 0.3626 0.9319 -7.5224 133.095)" class="st4" cx="350.8" cy="86.6" rx="4.8" ry="4.5"/>
	</g>
	<g>
		
			<ellipse transform="matrix(0.9998 -2.197994e-02 2.197994e-02 0.9998 -1.5949 7.6854)" class="st4" cx="348.8" cy="76.4" rx="4.8" ry="4.5"/>
	</g>
	<g>
		<ellipse transform="matrix(0.3213 -0.947 0.947 0.3213 175.308 376.5925)" class="st4" cx="350.4" cy="66" rx="4.5" ry="4.8"/>
	</g>
</g>
<g>
	<path class="st5" d="M49.3,138.7c3.4,5.9,6.8,11.8,10.1,17.7c5.6,11.5,20.7,42.8,26.4,54.7c5.8,12,20.8,43.1,26.4,54.7
		c2.6,6.2,5.1,12.5,7.6,18.8c-3.4-5.9-6.8-11.8-10-17.7c-5.6-11.5-20.7-42.8-26.4-54.7c-5.8-12-20.8-43.1-26.4-54.7
		C54.3,151.2,51.8,145,49.3,138.7L49.3,138.7z"/>
</g>
<g>
	<path class="st6" d="M25.8,102.8c2.5,2.5,5.1,5.5,7.5,8.1c1.4,1.7,3.4,4,4.9,5.5c2.5,2.9,4,6.2,4.5,10.3c0,0.2-0.2,0.4-0.4,0.3
		c-2.5-1.2-4.4-2.9-6.1-4.7c-1.7-1.8-2.6-4.2-3.8-6.3c-0.9-1.6-2.8-4.8-3.6-6.4c-1.2-2.2-2.3-4.3-3.4-6.6
		C25.2,102.9,25.6,102.6,25.8,102.8L25.8,102.8z"/>
</g>
<g>
	<path class="st6" d="M60.3,91.2c-0.1,4-0.4,8.5-0.7,12.6c-0.2,2.5-0.5,5.9-0.6,8.4c-0.3,4.3-1.7,8.2-4.3,12
		c-0.1,0.2-0.4,0.1-0.5-0.1c-0.9-3-1-5.8-0.8-8.6c0.1-2.8,1.2-5.4,1.9-8.1c0.5-2,1.6-6.1,2.1-8.1c0.8-2.7,1.5-5.4,2.4-8
		C59.9,90.8,60.3,90.9,60.3,91.2L60.3,91.2z"/>
</g>
<g>
	<path class="st6" d="M79.1,129.7c-2.8,0.9-5.9,1.8-8.7,2.5c-1.7,0.4-4.1,1-5.8,1.5c-3.1,0.8-6,0.4-9.2-1.1
		c-0.2-0.1-0.2-0.4-0.1-0.5c3.5-3.1,7.3-3.6,11.6-3.2c1.5,0,4.5,0,6,0c2,0.1,4,0.1,6,0.3C79.3,129.3,79.3,129.7,79.1,129.7
		L79.1,129.7z"/>
</g>
<g>
	<path class="st6" d="M86.1,155c-3.1-0.6-6.5-1.5-9.5-2.3c-1.9-0.5-4.4-1.3-6.3-1.7c-3.3-0.9-5.9-2.8-8.2-5.7
		c-0.1-0.1-0.1-0.3,0.1-0.4c3.6-0.7,6.9-0.1,9.9,1.5c2.6,1.6,5.9,3.2,8.5,4.8c1.9,1.1,3.8,2.2,5.6,3.4
		C86.6,154.7,86.4,155.1,86.1,155L86.1,155z"/>
</g>
<g>
	<path class="st6" d="M52.2,181c-0.8-3.7-1.4-7.8-2-11.5c-0.3-2.3-0.8-5.4-1.2-7.7c-0.6-4-0.1-7.8,1.6-11.7c0.1-0.2,0.4-0.2,0.5,0
		c1.5,2.5,2.2,5,2.6,7.6c0.5,2.6,0,5.2-0.1,7.7c-0.1,1.9-0.2,5.8-0.3,7.7c-0.2,2.6-0.3,5.2-0.6,7.7C52.7,181.2,52.3,181.2,52.2,181
		L52.2,181z"/>
</g>
<g>
	<path class="st6" d="M18,162.4c2.2-2.4,4.8-4.8,7.2-7.1c1.5-1.3,3.5-3.2,4.9-4.6c2.6-2.4,5.6-3.7,9.4-4.1c0.2,0,0.4,0.2,0.3,0.4
		c-1,2.4-2.4,4.2-4,5.8s-3.8,2.4-5.7,3.5c-1.4,0.9-4.3,2.5-5.8,3.3c-2,1.1-3.9,2.1-6,3.1C18.1,162.9,17.8,162.5,18,162.4L18,162.4z"
		/>
</g>
<g>
	<path class="st6" d="M5.4,129.2c3.9,0.2,8.3,0.7,12.2,1.1c2.4,0.3,5.7,0.7,8.1,0.9c4.2,0.5,7.9,2,11.4,4.7c0.2,0.1,0.1,0.4-0.1,0.5
		c-2.9,0.8-5.7,0.8-8.4,0.5c-2.7-0.2-5.2-1.4-7.8-2.2c-1.9-0.6-5.9-1.8-7.8-2.4c-2.6-0.9-5.2-1.7-7.7-2.6
		C5,129.6,5.1,129.2,5.4,129.2L5.4,129.2z"/>
</g>
<g>
	<path class="st6" d="M41.9,93.4c1,1.6,1.9,3.5,2.7,5.2c0.4,1.1,1.1,2.5,1.7,3.5c0.9,2,0.5,3.9-0.8,6.1c-0.1,0.2-0.3,0.2-0.5,0.1
		c-1.6-0.9-2.5-2-3.1-3.2c-0.7-1.2-0.3-2.5-0.4-3.8c-0.1-1-0.2-2.9-0.2-3.9c0-1.3,0-2.6,0.1-3.9C41.4,93.3,41.8,93.2,41.9,93.4
		L41.9,93.4z"/>
</g>
<g>
	<path class="st6" d="M82.7,108.7c-2.2,2.1-4.7,4.3-7.1,6.2c-1.2,0.9-2.2,2.3-3.7,2.8s-3.1,0.8-5.1,0.4c-0.2,0-0.3-0.2-0.3-0.4
		c0.6-2,1.7-3.2,2.9-4.3s2.8-1.3,4.3-1.9c1.1-0.4,3.3-1.3,4.4-1.7c1.5-0.5,3-1,4.5-1.5C82.7,108.2,82.9,108.6,82.7,108.7L82.7,108.7
		z"/>
</g>
<g>
	<path class="st6" d="M96.7,141.6c-2.9,0.4-6,0.7-8.9,0.8c-1.5,0-3,0.5-4.4,0s-2.8-1.2-4.1-2.7c-0.1-0.1-0.1-0.4,0-0.5
		c1.6-1.2,3.1-1.6,4.6-1.8s2.9,0.6,4.3,1c1.1,0.3,3.2,0.9,4.2,1.2c1.4,0.5,2.8,0.9,4.2,1.5C97,141.2,97,141.6,96.7,141.6L96.7,141.6
		z"/>
</g>
<g>
	<path class="st6" d="M67,177.5c-1.2-1.5-2.3-3.2-3.4-4.8c-0.6-1-1.4-2.4-2.1-3.3c-1.2-1.9-1-3.8,0-6.2c0.1-0.2,0.3-0.3,0.5-0.2
		c1.7,0.7,2.7,1.7,3.5,2.7c0.8,1.1,0.7,2.5,0.9,3.7c0.2,0.9,0.6,2.9,0.7,3.8c0.2,1.3,0.4,2.6,0.5,3.9
		C67.4,177.6,67.1,177.7,67,177.5L67,177.5z"/>
</g>
<g>
	<path class="st6" d="M25.9,179.3c0.7-1.9,1.7-3.8,2.6-5.6c0.6-1.1,1.4-2.5,1.8-3.7c1.1-2.1,2.8-3,5.5-3.4c0.2,0,0.4,0.1,0.4,0.3
		c0.3,1.9-0.1,3.3-0.7,4.5c-0.6,1.3-1.9,1.9-2.9,2.9c-0.7,0.7-2.3,2.1-3.1,2.7c-1.1,0.9-2.1,1.7-3.3,2.6
		C26.1,179.8,25.8,179.6,25.9,179.3L25.9,179.3z"/>
</g>
<g>
	<path class="st6" d="M4,150.2c2.3-1.3,5-2.7,7.4-3.8c1.5-0.7,3.6-1.6,5-2.4c2.7-1.3,5.4-1.3,8.5-0.4c0.2,0.1,0.2,0.2,0.2,0.4
		c-1.3,1.9-2.9,3-4.6,3.9c-1.6,0.9-3.6,0.8-5.4,1.2c-1.4,0.3-4.1,0.7-5.4,0.9c-1.8,0.3-3.7,0.5-5.5,0.7C3.9,150.7,3.7,150.4,4,150.2
		L4,150.2z"/>
</g>
<g>
	<path class="st6" d="M7.2,109.4c2.9,1.3,5.9,3,8.7,4.5c1.7,1,4,2.3,5.8,3.1c3,1.7,5.1,4.1,6.6,7.4c0.1,0.2,0,0.3-0.2,0.4
		c-3.7-0.2-6.7-1.5-9.3-3.8c-2.1-2.2-5-4.5-7.2-6.6c-1.6-1.5-3.2-3-4.7-4.6C6.7,109.6,6.9,109.3,7.2,109.4L7.2,109.4z"/>
</g>
<path class="st0" d="M82.6,252.8c0,0,16.5-14.7,18.6-13.9c5,2,2.3,5.5,4.5,5.8s1.5,4.3,1.5,4.9s0.9-0.3,2.1,1.2
	c3.5,4.3,3.4,4.1,5.3,6c3.6,3.5-8.7,14.1-8.7,14.1"/>
<polygon class="st0" points="88.7,236.9 104.6,238.4 101.5,254.8 91.6,251.5 "/>
</svg>
