<?xml version="1.0" encoding="utf-8"?>
<!-- Generator: Adobe Illustrator 26.0.3, SVG Export Plug-In . SVG Version: 6.00 Build 0)  -->
<svg version="1.1" id="Layer_1" xmlns="http://www.w3.org/2000/svg" xmlns:xlink="http://www.w3.org/1999/xlink" x="0px" y="0px"
	 viewBox="0 0 788 1005.1" style="enable-background:new 0 0 788 1005.1;" xml:space="preserve">
<style type="text/css">
	.st0{fill:#B56D50;}
	.st1{fill:#9CCBF2;}
	.st2{fill:#9E5E47;}
	.st3{fill:#EDEDED;}
	.st4{fill:#587CC6;}
	.st5{fill:#DDDDDD;}
	.st6{fill:none;stroke:#9CCBF2;stroke-width:4.5415;stroke-linecap:round;stroke-miterlimit:10;}
</style>
<g>
	<path class="st0" d="M299.4,270l7.9,18.4l135.6,2.4l6.1-16.4c0.5-1.3,2.4-0.7,2.1,0.6l-8.1,30.7l77.6,50.2c8.2,6,19.7,4.4,25.9-3.7
		c5.9-8,4.7-19.2-2.9-25.6L485,276.4l-24.3-25.8c-1.5-1.6-3.3-2.9-5.3-3.8l-14-6.2"/>
	<path class="st0" d="M441.7,239.5l-38.6-17.2c-4.5-2-7.4-6.5-7.4-11.5l0.1-21.7h-40.3l0.5,21.4c0.1,5.1-2.9,9.8-7.6,11.8
		l-30.6,13.1l-2.5,87.6h83.5L441.7,239.5z"/>
	<path class="st0" d="M317.7,236.5l-27.2,11.6c-0.2,0.1-0.3,0.2-0.5,0.4l-21.2,35.3l-43.6,52.7c-6.2,7.5-5.2,18.6,2.3,24.8
		c7.5,6.2,18.6,5.2,24.9-2.3c0.1-0.1,0.2-0.2,0.2-0.3l54.7-58.2l-9.8-29.9c-0.4-1.2,1.4-1.9,1.9-0.7"/>
	<path class="st0" d="M238.5,361.6c-10.6,3.5-15.8-6.2-19.1-15.1c-2.3-6.4-18.7-70.4-23.4-87.8c-2.6-9.8-4.3-15,1.4-17.1
		c5.1-1.9,12.3,12.2,14.5,15.6c20.9,32.4,26.9,46.7,41.4,77.1C261.4,351.6,242.2,360.4,238.5,361.6z"/>
	<path class="st1" d="M192.4,212.3c-2.8-3-5.4-6.3-7.7-9.7c-1-1.4-3.1-1.1-3.6,0.6c-0.3,1.1-0.6,2.3-0.5,3.3
		c0.3,2.1,5.5,11.2,5.5,11.2l0,0c-25.3-14.1-52.6-27.8-55.5-28.5c-0.9-0.2-2.6,0.2-4.1,0.7c-1.6,0.6-1.9,2.7-0.4,3.6
		c6.9,4.1,22,13.2,26.9,16.6c22,15,34.4,29.6,41.2,42.8c1.2,2.3,15.1-0.2,13-5.3c-0.7-1.8,0.5-12-1.3-14.7
		C198.9,222.1,192.7,212.6,192.4,212.3z"/>
	<path class="st2" d="M355.5,189.1h40.3l-0.3,20.1c0,0-31.1,17-39.5,2.6C356,211.8,355.5,189.1,355.5,189.1z"/>
	<path class="st3" d="M498,354.3l18.4-52c0.3-1.2-0.1-2.4-1-3.2l-54.5-50.3l0,0c-1.2-1.4-2.7-2.6-4.5-3.4l-41.7-19.6
		c-6.1-2.6-5.9,0.3-8.7,6.1c-0.1,0.3-0.3,0.5-0.5,0.8l-17.3,19.6c-0.2,0.2-0.3,0.4-0.4,0.6c-4.6,8.7-17,8.9-22.1,0.6
		c-0.3-0.4-0.6-0.8-1-1.1L345.4,239c-0.5-0.4-1-0.9-1.2-1.5c-2.4-5.9-0.5-14.4-6.3-11.8L292.2,246c-2.5,1.1-4.4,2.9-5.7,5l-0.1-0.2
		l-37.6,51.7c-1.8,2.5-2.6,5.7-2.2,8.8l5.5,39.1c1.4,10.2,14,14.1,20.9,6.5l20.4-22.3c2-2.2,5.6-0.9,5.8,2.1l1.9,31.6
		c0,1.3-0.2,2.5-0.5,3.7l-4.1,13.9c-0.9,3.1-0.6,6.4,0.8,9.3c1,2,1.5,4.2,1.3,6.4c-0.2,3.8-0.6,9.9-0.9,14.3l-21.8,105.8
		c-0.4,5.7,3,11,8.4,12.8c0.1,0.1,0.3,0.1,0.5,0.1l24.6,5.3c25.9,5.6,68.7,5.7,94.7,0.3c16.6-3.4,58.1-7.1,67.6-9.3
		c5.9-1.4,10-6.9,9.7-13l-27.9-101.2c-0.3-6.4-1.9-12.4-4.6-17.3h0.6l2.5-2.9c3.1-3.6,4-8.5,2.3-12.9c-2-5.3-4.5-12-4.5-14
		c0.1-13.4,0.2-28.6,0.3-40c0-2.6,2.9-4.2,5.1-2.8l36.5,31.6C493.4,359.4,497.4,356.5,498,354.3z"/>
	<path class="st0" d="M545,353.8l-84.3,84.8c-1.4,1.4-3.2,2.5-5.1,2.9c-8.2,1.9-6.2-3.9-5.1-6.2c0.2-0.4,0.4-0.8,0.7-1.2
		c3.8-6,55.8-90.9,57.5-92.8c1.6-1.7,7-8.2,9-10.6c0.5-0.6,1.1-1.2,1.7-1.7l0.4-0.4c6.6-5.6,16.3-5.6,23-0.1l0,0
		c6.7,5.6,8.5,15.2,4.1,22.8l0,0C546.3,352.1,545.7,353,545,353.8z"/>
	<path class="st4" d="M397.7,543.6h-44.3c-6.6,0-12-5.4-12-12V244.4c0-6.6,5.4-12,12-12h44.3c6.6,0,12,5.4,12,12v287.2
		C409.7,538.2,404.3,543.6,397.7,543.6z"/>
	<path class="st3" d="M402.8,223l-18.2,90.1c-0.7,3.5-1.1,7-1.1,10.6l-1.1,220.4c0,3,2.8,5.2,5.7,4.6l61.6-15.1l-8.5-295.2
		l-36.4-16.2C403.9,221.7,403,222.1,402.8,223z"/>
	<path class="st1" d="M471.6,428.5c0,0,1.7-2.6,2.6-3.4c0.1,0-13.1-7.1-13.1-7.1l-1.5,2.6"/>
	<path class="st3" d="M347.6,223l18.2,90.1c0.7,3.5,1.1,7,1.1,10.6l1.1,220.4c0,3-2.8,5.2-5.7,4.6l-61.9-14.1l8.9-296.2l36.4-16.2
		C346.5,221.7,347.5,222.1,347.6,223z"/>
	<path class="st5" d="M312.9,311.4l0.9,29.1c0.1,1.7,1.4,3.1,3.1,3.3l25.9,1.9c0.8,0.1,1.6-0.2,2.3-0.7l3.6-2.8
		c0.9-0.7,1.4-1.7,1.3-2.9l-1.6-30.1c-0.1-1.7-1.5-3.1-3.2-3.2l-29.2-1.3c-2.1-0.1-3.8,1.7-3.5,3.8l0.3,2.5
		C312.9,311.1,312.9,311.2,312.9,311.4z"/>
	<path class="st1" d="M474,425c-0.2-0.2-12.9-3.8-12.9-3.8c-0.1,0-0.3,0-0.4-0.1c-1.4-0.9-10.6-6.1-12.4-6.1h-9
		c-3.4,0-6.5,2.3-8.1,5.9c-0.3,0.7-0.6,1.2-0.8,1.3l-6.9,6.4l-0.2,0.2c-0.6,0.4-0.8,1.3-0.6,2.1c0.2,0.8,0.7,1.6,1.7,2.1
		c0.1,0.1-0.4,1.8,0.9,2.9c0.4,0.3,0.7,0.8,0.8,1.2c0.1,0.8,0.5,2,1.7,2.7c0.5,0.3,0.8,0.9,0.9,1.6c0.2,1.2,0.7,3,2.4,4.1
		c4.2,0.3,8.9-1.2,9.2-1.3c4.3-1.8,3-5.2,5.3-6.8c0.4-0.2,0.9-0.1,1.1,0.3l4.1,7.9c2.2,6.1,10.7-0.8,12.5-4
		C465.3,437.8,474,425,474,425z"/>
	<g>
		<ellipse transform="matrix(0.9715 -0.237 0.237 0.9715 -67.176 86.4107)" class="st4" cx="325.8" cy="322.6" rx="2.7" ry="3.8"/>
		
			<ellipse transform="matrix(0.9059 -0.4234 0.4234 0.9059 -108.582 166.8338)" class="st4" cx="321.2" cy="327.8" rx="2.7" ry="3.8"/>
		
			<ellipse transform="matrix(0.237 -0.9715 0.9715 0.237 -59.5128 569.5411)" class="st4" cx="332.8" cy="322.7" rx="3.8" ry="2.7"/>
		
			<ellipse transform="matrix(0.4234 -0.9059 0.9059 0.4234 -102.5537 494.7266)" class="st4" cx="337.4" cy="327.9" rx="3.8" ry="2.7"/>
		<path class="st4" d="M335,333.4c0,0-1.1-0.4-1.5-0.8c-0.2-0.2-0.6-0.9-0.9-1.6c-0.1-0.4-0.3-0.8-0.5-1.1v-0.1l0,0
			c-0.6-1-1.6-1.6-2.5-1.5c-1.2-0.1-2.7,0.8-3.4,2.5v0.1c-0.3,0.5-0.7,1.2-1.1,1.6c-0.6,0.6-1.5,0.9-1.5,0.9l0,0
			c-0.1,0-0.2,0-0.2,0.1c-1.3,0.6-1.7,2.7-0.8,4.6c0.9,1.9,2.7,2.9,4,2.3c0.1-0.1,0.3-0.1,0.4-0.2c0.4-0.2,2-0.8,2.5-0.8
			c0.6,0,2.1,0.9,2.5,1.1c1.3,0.6,3.1-0.4,4-2.3C336.7,336.1,336.4,334,335,333.4z"/>
	</g>
	<path class="st6" d="M350.9,218.4l-10.1,9c-2.6,2.6-3.7,6.2-2.9,9.7l10.8,49c0.7,3.3,3.1,6.2,6.4,7.6l17.7,7.9
		c3.5,1.6,7.5,1.4,10.9-0.4l20.4-11.1c3.5-1.9,5.7-5.3,5.8-9.1l1.7-44.9c0.1-3.2-0.3-7.9-2.8-10l-8.8-8"/>
	<line class="st6" x1="377" y1="303" x2="375.9" y2="439.8"/>
	<circle class="st1" cx="375.8" cy="440.6" r="7.9"/>
</g>
</svg>
