<?xml version="1.0" encoding="utf-8"?>
<!-- Generator: Adobe Illustrator 26.0.3, SVG Export Plug-In . SVG Version: 6.00 Build 0)  -->
<svg version="1.1" id="Layer_1" xmlns="http://www.w3.org/2000/svg" xmlns:xlink="http://www.w3.org/1999/xlink" x="0px" y="0px"
	 viewBox="0 0 440 327.1" style="enable-background:new 0 0 440 327.1;" xml:space="preserve">
<style type="text/css">
	.st0{fill:#375D63;}
	.st1{fill:#9E5E47;}
	.st2{fill:#B56D50;}
	.st3{fill:#F7A386;}
	.st4{fill:#547A87;}
	.st5{fill:#2B2B2B;}
	.st6{fill:none;stroke:#ECF2F2;stroke-width:3;stroke-miterlimit:10.0002;}
	.st7{fill:none;stroke:#ECF2F2;stroke-width:2.9998;stroke-miterlimit:9.9995;}
	.st8{fill:none;stroke:#ECF2F2;stroke-width:5.4389;stroke-miterlimit:10;}
	.st9{fill:#ECF2F2;}
	.st10{fill:none;stroke:#BCBCBC;stroke-width:5;stroke-linecap:round;stroke-miterlimit:10;}
	.st11{fill:none;stroke:#2B2B2B;stroke-width:2;stroke-miterlimit:10;}
</style>
<path class="st0" d="M332,367.5c-23.3,2.5-44.5,10-69.8,18.3c0,0-11.5,0.5-10.8-0.1l-70.8-16.6l5.9-58.4
	c1.1-10.7,10.1-18.8,20.8-18.8h99.9c11,0,20.1,8.5,20.8,19.4L332,367.5z"/>
<rect x="238.1" y="50.2" class="st1" width="39.5" height="47.4"/>
<path class="st2" d="M427.2,214.6L427.2,214.6L427.2,214.6L354,136.3l0,0c-9.3-10-25.1-10.2-35.3-0.5s-10.8,25.7-1.5,35.7
	c0.1,0.2,0.3,0.3,0.4,0.4l85.7,71.4c8.7,7,19.3,6.8,25.1,0C435,235.8,438.5,226.2,427.2,214.6z"/>
<path class="st2" d="M352.8,328.5l-13.2-13.7c-0.8-0.8-1.8-1.4-2.9-1.8l-6.3-2c-1-0.3-2,0.4-2.1,1.5l-0.4,6.6
	c-0.1,1.3-0.5,2.6-1.4,3.7c-5,6.5-23,30.3-21.3,29.6l-0.2,1.6c-0.7,5.7,5.7,9.6,10.5,6.4c6.3-4.3,13.4-9.1,17.3-11.7
	C341.8,342.6,352.8,328.5,352.8,328.5z"/>
<path class="st2" d="M424.3,213.6c-11.1-8.3-24.6-5.3-33.1,5.4c-0.2,0.2-3.5,5.4-3.5,5.4l-50.6,94.6c0,0-5.1,6.9,2.9,12.5
	c7.1,5,12.9-2.9,12.9-2.9l69.3-73.3c8-8.5,14.1-18.4,11.8-29.8C432.8,220.9,427.8,216.1,424.3,213.6z"/>
<path class="st3" d="M434.8,254.1l-0.1-0.1c-0.2,0.2-0.3,0.4-0.5,0.6c0,0.1-0.1,0.1-0.1,0.1L434.8,254.1z"/>
<path class="st2" d="M181.1,206.1L146.6,257l-2.7,3.4c-4.6,5.9-13.1,7.3-19.3,3.1l0,0c-5.7-3.8-7.9-11-5.4-17.4l2.3-5.6
	c0,0,19-40.5,23.7-54.6c5.8-17.3,16.8-71,46.5-56.2l0,0c10.8,5.4,19.5,19.2,13.6,29.8L181.1,206.1z"/>
<path class="st2" d="M130.4,265.8L130.4,265.8c6.4-0.2,12.2-4,14.9-9.9c0.3-0.6,0.6-1.1,0.8-1.8c1.9-10.1-0.5-30.9-2.6-40.9
	c-4.9-23.3-26.9-93-26.9-93l0,0c-2.3-4.7-7.7-6.8-12.6-4.9l-1.1,0.4c-4.4,1.8-7,6.5-6,11.2c0.2,0.9,0.3,1.6,0.4,2.2
	c1.5,10.5,6.2,79,8,93.2c1,8.3,6.4,24.4,10.2,31.8C117.8,258.5,124.8,266,130.4,265.8z"/>
<path class="st4" d="M336.7,125.2c2.5,1.1,3.9,3.9,3.1,6.5c-3.6,13.2-14.8,49.3-14.8,51.8c0,2.9-0.5,72.2-0.6,78.2
	c0,0.3,0,0.6,0.1,0.8L343.2,390c1.5,10-5.4,19.2-15.4,20.6c-0.1,0-0.2,0-0.2,0s-53.1,10.1-71,9.5c-17.3-0.7-67.8-14.4-67.8-14.4
	c-9.2-2-15.4-10.6-14.3-20L189.9,258c0-0.2,0-0.5,0-0.7l-0.7-77.2c0-0.6-0.1-1.1-0.3-1.7l-15.3-46.6c-0.9-2.7,0.4-5.7,3.1-6.8
	l53.5-23.2c1.8-0.8,3-2.4,3.3-4.3l1.4-9.8c0.4-2.7,2.8-4.8,5.5-4.8l34.7,0.3c2.8,0,5.1,2.1,5.4,4.9l1.1,10.2c0.2,2,1.5,3.7,3.3,4.5
	L336.7,125.2z"/>
<path class="st5" d="M319.8,416.4l20.9-7.4c0.7-0.3,1.5-0.5,2.2-0.7c3.3-0.9,6.2-2.7,8.6-4.9c5.8-5.5,7.5-14.1,5-21.6l-25.4-74.1
	c0,0-11.2-21-19.1-39.6c-6.1-14.4-7.2-59.4-7.4-79c-0.1-5.1-4.2-9.3-9.4-9.3H220c-5,0-9.2,4-9.4,9c-0.8,19.8-2.9,65.9-6,75.1
	c-3.9,11.8-15.9,36.3-19.4,45.8c-2.5,6.9-13.1,50-16,74.9c-1.1,9.6,4.5,18.7,13.6,22l5,2C230.2,423.6,275.9,426.4,319.8,416.4z"/>
<g>
	<path class="st5" d="M232.7,99.3c-6.2,16.7-10,34.2-12.3,51.8c-0.9,7-2,14.1-3.3,21.1c-0.6,3.5-1.2,7-2,10.6h-0.4
		c-1.3-14.4,0.5-28.8,4-42.8c2.5-10.5,5.4-20.9,9.3-30.9c1.3-3.3,2.7-6.7,4.3-9.9L232.7,99.3L232.7,99.3z"/>
</g>
<g>
	<path class="st5" d="M282.8,99.8c6.4,12.8,10.5,26.6,13.9,40.5c3.5,13.9,5.4,28.2,4.1,42.6h-0.4c-0.9-3.5-1.4-7-2-10.5
		c-1.2-6.8-2.4-14.1-3.3-20.9c-1.3-10.5-3.4-20.9-6.1-31.2c-1.8-6.8-3.9-13.6-6.5-20.2L282.8,99.8L282.8,99.8z"/>
</g>
<g>
	<ellipse transform="matrix(0.9939 -0.1104 0.1104 0.9939 -27.1795 28.6301)" class="st6" cx="245" cy="259.8" rx="6.6" ry="11.1"/>
	
		<ellipse transform="matrix(0.5527 -0.8334 0.8334 0.5527 -127.3851 308.915)" class="st7" cx="224.1" cy="273.1" rx="6.6" ry="11.1"/>
	<polyline class="st8" points="246.2,270.4 249.3,289 233.1,279 	"/>
	<g>
		<path class="st9" d="M245.2,284.6c11.6,7.1,22.3,22.4,24.8,35.7C258.3,313.2,247.8,298,245.2,284.6L245.2,284.6z"/>
	</g>
	<g>
		<path class="st9" d="M246.8,283.5c11.6,7.1,22.3,22.4,24.8,35.7C260,312.1,249.4,296.9,246.8,283.5L246.8,283.5z"/>
	</g>
</g>
<path class="st4" d="M298.8,328.6l-17.1,1.3c-15.6,1.2-31.3,1.2-47-0.1l-15.6-1.3c-3.2-0.6-5.6-3.8-5.6-7.6v-28.4
	c0-4.7,3.6-8.3,7.6-7.6c0,0,6.8,0.5,14.5,1.1c14.6,1.1,29.3,1.1,43.9,0.1l17.4-1.3c4-0.7,7.5,2.9,7.5,7.6v28.6
	C304.5,324.9,302,328,298.8,328.6z"/>
<path class="st2" d="M113.6,118.4c0.7-0.4,1.3-0.9,1.7-1.6c1.9-3.4,7.8-14,8-16.2c0.2-2.7-0.5-14.4,0-16.5s6.6-13.3,5.3-13.8
	c-0.8-0.3-2.9-0.8-4.6-1.3c-1.6-0.4-3.3,0.2-4.2,1.6l-4.2,5.8c-0.3,0.5-0.6,1.1-0.7,1.6l-0.8,5c-0.4,2.2-3.3,2.6-4.3,0.6l-5.9-12.2
	c-0.1-0.2-0.2-0.4-0.2-0.6c-0.9-3-8.5,0.8-8.5,0.8c-0.1-0.1-5.2,2.9-7,4c-0.5,0.3-0.9,0.6-1.3,0.9L83,79.3c-3.4,2.4-5.9,5.8-7.1,9.7
	c-0.5,1.8-0.7,3.4,0.1,4.3c0.2,0.2,0.4,0.5,0.5,0.8L91,121.4c0.4,0.8,1.2,1.4,1.9,1.8l4.4,1.9c1.1,0.4,2.3,0.4,3.3-0.1L113.6,118.4z
	"/>
<path class="st2" d="M91.6,120.1c0,0,3.4,3.5,4.4,5.5s2.2,10.1,2.2,10.1l20.4-8.6c0,0-2.5-7.9-2.2-10s3-8.3,3-8.3l-10.7-4.9
	L91.6,120.1z"/>
<path class="st4" d="M94.2,104.6l4,1.4c3.2,1.2,6.7-0.2,8.1-3.1l20-46.1c1.3-2.9-0.2-6.2-3.4-7.4l-4-1.4c-3.2-1.2-6.7,0.2-8.1,3.1
	l-20,46.1C89.4,100.2,90.9,103.4,94.2,104.6z"/>
<line class="st10" x1="99.9" y1="73.3" x2="96.9" y2="81.4"/>
<line class="st10" x1="105.7" y1="58.9" x2="102.7" y2="67.1"/>
<ellipse transform="matrix(0.3797 -0.9251 0.9251 0.3797 45.5588 135.8829)" class="st4" cx="124.1" cy="34" rx="24.7" ry="29.9"/>
<path class="st4" d="M110.6,48.4L71.4,26.8c-4.7-1.9-6.9-7.3-4.9-12l3.5-8.3c1.9-4.7,7.3-6.9,12-4.9l42.1,13.6L110.6,48.4z"/>
<path class="st4" d="M122.6,52.9l27,6c2.9,1.2,6.8-1.6,8.7-6.3l3.5-8.3c1.9-4.7,1.2-9.4-1.7-10.6l-23.5-13.8L122.6,52.9z"/>
<g>
	<polygon class="st5" points="97.6,104.4 84.2,132.9 93.9,103.1 	"/>
</g>
<path class="st11" d="M91.2,114.4c0,0-13.2,37.4-16.8,49.2c-18,59,12.4,78.8-1.1,115.6c-5.1,14-18.8,33.7-16,49.5
	c2.8,15.7,17.8,30.3,34.6,14.6c34.9-32.4,105.5-3.3,105.5-3.3"/>
<path class="st2" d="M112.7,92.4L90.5,104c-3.9,2-8.7,0.5-10.7-3.4l-4.9-9.4c-2-3.9-0.5-8.7,3.4-10.7L100.5,69
	c3.9-2,8.7-0.5,10.7,3.4l4.9,9.4C118.1,85.7,116.4,90.4,112.7,92.4z"/>
</svg>
