<?xml version="1.0" encoding="utf-8"?>
<!-- Generator: Adobe Illustrator 26.0.2, SVG Export Plug-In . SVG Version: 6.00 Build 0)  -->
<svg version="1.1" id="Layer_1" xmlns="http://www.w3.org/2000/svg" xmlns:xlink="http://www.w3.org/1999/xlink" x="0px" y="0px"
	 viewBox="0 0 148 115.3" style="enable-background:new 0 0 148 115.3;" xml:space="preserve">
<style type="text/css">
	.st0{fill:#7C3838;}
	.st1{fill:#BCBCBC;}
	.st2{fill:none;stroke:#AD7469;stroke-width:2;stroke-linecap:round;stroke-miterlimit:10;}
	.st3{clip-path:url(#SVGID_00000108286775309545077930000012082782899998072986_);}
	.st4{clip-path:url(#SVGID_00000175291159933008993840000015873868089326610106_);}
	.st5{clip-path:url(#SVGID_00000179630385609092358410000008776136299103590295_);}
	.st6{fill:none;stroke:#CDCDCD;stroke-width:2;stroke-linecap:round;stroke-miterlimit:10;}
	.st7{clip-path:url(#SVGID_00000016764158170317055650000003102696508890266793_);}
	.st8{clip-path:url(#SVGID_00000164510429703858267960000013644671061314787991_);}
	.st9{fill:#FFFFFF;}
	.st10{clip-path:url(#SVGID_00000101824476975705697370000007617736352854110097_);}
	.st11{clip-path:url(#SVGID_00000066510466095240327060000003082083926095494301_);}
	.st12{fill:#050505;}
	.st13{clip-path:url(#SVGID_00000111871291629896966760000016716016432943950239_);}
	.st14{fill:#B85D40;}
</style>
<g id="Calque_3">
	<circle cx="55.8" cy="50" r="2.9"/>
	<circle cx="87.7" cy="50" r="2.9"/>
	<path class="st0" d="M59.8,82.2c0.2-0.6,1.2-1.4,3.1-2.2c2.9-1.2,6.1-1.8,9.3-1.8c5.2-0.1,10.1,1.8,13.9,5.3c0,0-4.1,10.3-13.9,9.6
		C65,92.4,59.8,82.2,59.8,82.2z"/>
	<path class="st1" d="M72.5,82.5l-7.2-0.3l-1.9-0.8c3.2-1.3,6.6-1.9,10-1.8c5.9,0.3,9.1,2.6,9.1,2.6l-1.5,0.7L72.5,82.5z"/>
	<path class="st2" d="M65.7,72c0,0,5.7,3.4,7.6,3.3s7.1-3.3,7.1-3.3"/>
	<g>
		<defs>
			<rect id="SVGID_1_" x="81.4" y="69.9" width="7.8" height="7.9"/>
		</defs>
		<clipPath id="SVGID_00000010995852180597862050000014435570331537065651_">
			<use xlink:href="#SVGID_1_"  style="overflow:visible;"/>
		</clipPath>
		<g style="clip-path:url(#SVGID_00000010995852180597862050000014435570331537065651_);">
			<path class="st2" d="M82.4,70.9c0,0,4.2,4.5,5.8,5.9"/>
		</g>
	</g>
	<g>
		<defs>
			<rect id="SVGID_00000125562145138610989040000002326689922545734333_" x="57" y="69.9" width="7.8" height="7.9"/>
		</defs>
		<clipPath id="SVGID_00000128458162733914772580000017373557751648025527_">
			<use xlink:href="#SVGID_00000125562145138610989040000002326689922545734333_"  style="overflow:visible;"/>
		</clipPath>
		<g style="clip-path:url(#SVGID_00000128458162733914772580000017373557751648025527_);">
			<path class="st2" d="M63.8,70.9c0,0-4.2,4.5-5.8,5.9"/>
		</g>
	</g>
	<g>
		<defs>
			<rect id="SVGID_00000117662200515503704830000007259210488606405304_" x="83.9" y="19.3" width="20.1" height="6.4"/>
		</defs>
		<clipPath id="SVGID_00000083787753426112791490000006521425422977289360_">
			<use xlink:href="#SVGID_00000117662200515503704830000007259210488606405304_"  style="overflow:visible;"/>
		</clipPath>
		<g style="clip-path:url(#SVGID_00000083787753426112791490000006521425422977289360_);">
			<path class="st6" d="M84.9,21.6c0,0,4.6-2.9,11.9,0c2.1,0.9,4.2,1.9,6.2,3.1"/>
		</g>
	</g>
	<g>
		<defs>
			<rect id="SVGID_00000182515729048945912820000000826638244113094567_" x="41.5" y="19.3" width="20.1" height="6.4"/>
		</defs>
		<clipPath id="SVGID_00000147928462588228553170000004044975960101122955_">
			<use xlink:href="#SVGID_00000182515729048945912820000000826638244113094567_"  style="overflow:visible;"/>
		</clipPath>
		<g style="clip-path:url(#SVGID_00000147928462588228553170000004044975960101122955_);">
			<path class="st6" d="M60.6,21.6c0,0-4.5-2.9-11.9,0c-2.1,0.9-4.2,1.9-6.2,3.1"/>
		</g>
	</g>
	<g id="_Repetition_miroir_">
		<g>
			<defs>
				<polygon id="SVGID_00000150818650317248036850000016494968715166488738_" points="83,41.4 83,41.4 96.5,41.4 96.5,54.4 83,54.4 
									"/>
			</defs>
			<clipPath id="SVGID_00000029013456498052572270000011332377740260868776_">
				<use xlink:href="#SVGID_00000150818650317248036850000016494968715166488738_"  style="overflow:visible;"/>
			</clipPath>
			<g style="clip-path:url(#SVGID_00000029013456498052572270000011332377740260868776_);">
				<ellipse class="st9" cx="89.7" cy="47.9" rx="6.7" ry="6.5"/>
			</g>
		</g>
	</g>
	<g id="_Repetition_miroir_2">
		<g>
			<defs>
				<polygon id="SVGID_00000096750959279018692960000006781743214356612755_" points="61.7,41.4 61.7,41.4 48.2,41.4 48.2,54.4 
					61.7,54.4 				"/>
			</defs>
			<clipPath id="SVGID_00000178915189635750850990000013579684150893424258_">
				<use xlink:href="#SVGID_00000096750959279018692960000006781743214356612755_"  style="overflow:visible;"/>
			</clipPath>
			<g style="clip-path:url(#SVGID_00000178915189635750850990000013579684150893424258_);">
				<ellipse class="st9" cx="55" cy="47.9" rx="6.7" ry="6.5"/>
			</g>
		</g>
	</g>
	<g>
		<defs>
			<polygon id="SVGID_00000052092543781483871180000008513575967421746567_" points="86,43.4 86,43.4 95,43.4 95,52.4 86,52.4 			
				"/>
		</defs>
		<clipPath id="SVGID_00000021096345844691458840000000507304512980924811_">
			<use xlink:href="#SVGID_00000052092543781483871180000008513575967421746567_"  style="overflow:visible;"/>
		</clipPath>
		<g style="clip-path:url(#SVGID_00000021096345844691458840000000507304512980924811_);">
			<circle class="st12" cx="90.5" cy="47.9" r="4.5"/>
		</g>
	</g>
	<g>
		<defs>
			<polygon id="SVGID_00000088821880555485702540000017397210171870371489_" points="59.6,43.4 59.6,43.4 50.6,43.4 50.6,52.4 
				59.6,52.4 			"/>
		</defs>
		<clipPath id="SVGID_00000183228838665116615150000005807991510239134134_">
			<use xlink:href="#SVGID_00000088821880555485702540000017397210171870371489_"  style="overflow:visible;"/>
		</clipPath>
		<g style="clip-path:url(#SVGID_00000183228838665116615150000005807991510239134134_);">
			<circle class="st12" cx="55.1" cy="47.9" r="4.5"/>
		</g>
	</g>
	<path class="st14" d="M80.4,71.2c0,0-4.7,3.7-7.4,3.7s-7-3.6-7-3.6s5.4,0.7,7.2,0.7S80.4,71.2,80.4,71.2z"/>
</g>
</svg>
