<?xml version="1.0" encoding="utf-8"?>
<!-- Generator: Adobe Illustrator 26.0.2, SVG Export Plug-In . SVG Version: 6.00 Build 0)  -->
<svg version="1.1" id="Calque_1" xmlns="http://www.w3.org/2000/svg" xmlns:xlink="http://www.w3.org/1999/xlink" x="0px" y="0px"
	 viewBox="0 0 788 1005.1" style="enable-background:new 0 0 788 1005.1;" xml:space="preserve">
<style type="text/css">
	.st0{fill:#D9D9D9;stroke:#802D31;stroke-width:2;stroke-linecap:round;stroke-miterlimit:10;}
	.st1{clip-path:url(#SVGID_00000011012290005161812730000006145537469991296148_);}
	.st2{fill:none;stroke:#5B5B5B;stroke-width:2;stroke-linecap:round;stroke-miterlimit:10;}
	.st3{clip-path:url(#SVGID_00000158030223717987790800000003332308684216132785_);}
	.st4{clip-path:url(#SVGID_00000102510387325862873340000013209560773925037209_);}
	.st5{fill:#FFFFFF;}
	.st6{clip-path:url(#SVGID_00000144313107598415135840000000480711604243220650_);}
	.st7{clip-path:url(#SVGID_00000139281395548510999560000010619730028499167369_);}
	.st8{fill:#050505;}
	.st9{clip-path:url(#SVGID_00000123432309418534811950000002839316760699884693_);}
	.st10{fill:none;stroke:#7D4030;stroke-width:2;stroke-linecap:round;stroke-miterlimit:10;}
	.st11{fill:#7D4030;}
	
		.st12{clip-path:url(#SVGID_00000090268788609138874440000011366230454408983454_);fill:none;stroke:#7D4030;stroke-width:2;stroke-linecap:round;stroke-miterlimit:10;}
	
		.st13{clip-path:url(#SVGID_00000161594433447962787260000010732843295063536059_);fill:none;stroke:#7D4030;stroke-width:2;stroke-linecap:round;stroke-miterlimit:10;}
</style>
<path class="st0" d="M363.4,203l9.4,0.2c4.3,0.1,9.4-0.2,9.4-0.2"/>
<g>
	<g>
		<g>
			<defs>
				<rect id="SVGID_1_" x="384" y="151.6" width="20.1" height="6.4"/>
			</defs>
			<clipPath id="SVGID_00000076593393183486702250000001534703524332626336_">
				<use xlink:href="#SVGID_1_"  style="overflow:visible;"/>
			</clipPath>
			<g style="clip-path:url(#SVGID_00000076593393183486702250000001534703524332626336_);">
				<path class="st2" d="M385,153.9c0,0,4.6-2.9,11.9,0c2.1,0.9,4.2,1.9,6.2,3.1"/>
			</g>
		</g>
	</g>
</g>
<g>
	<g>
		<g>
			<defs>
				<rect id="SVGID_00000138550325690289199120000002498988434905776278_" x="341.6" y="151.6" width="20.1" height="6.4"/>
			</defs>
			<clipPath id="SVGID_00000165935653367860497730000017715813960748652165_">
				<use xlink:href="#SVGID_00000138550325690289199120000002498988434905776278_"  style="overflow:visible;"/>
			</clipPath>
			<g style="clip-path:url(#SVGID_00000165935653367860497730000017715813960748652165_);">
				<path class="st2" d="M360.7,153.9c0,0-4.5-2.9-11.9,0c-2.1,0.9-4.2,1.9-6.2,3.1"/>
			</g>
		</g>
	</g>
</g>
<g>
	<g>
		<g>
			<defs>
				<polygon id="SVGID_00000031183655625515613420000004880600316414323389_" points="382,159.6 382,159.6 395.5,159.6 395.5,172.6 
					382,172.6 				"/>
			</defs>
			<clipPath id="SVGID_00000029742903738624743190000009258723665547121794_">
				<use xlink:href="#SVGID_00000031183655625515613420000004880600316414323389_"  style="overflow:visible;"/>
			</clipPath>
			<g style="clip-path:url(#SVGID_00000029742903738624743190000009258723665547121794_);">
				<ellipse class="st5" cx="388.7" cy="166.1" rx="6.7" ry="6.5"/>
			</g>
		</g>
	</g>
</g>
<g>
	<g>
		<g>
			<defs>
				<polygon id="SVGID_00000132077500078165318130000005512777221647164351_" points="360.7,159.6 360.7,159.6 347.2,159.6 
					347.2,172.6 360.7,172.6 				"/>
			</defs>
			<clipPath id="SVGID_00000145758431584359902190000002951100062500500108_">
				<use xlink:href="#SVGID_00000132077500078165318130000005512777221647164351_"  style="overflow:visible;"/>
			</clipPath>
			<g style="clip-path:url(#SVGID_00000145758431584359902190000002951100062500500108_);">
				<ellipse class="st5" cx="353.9" cy="166.1" rx="6.7" ry="6.5"/>
			</g>
		</g>
	</g>
</g>
<g id="_Repetition_miroir_">
	<g>
		<g>
			<g>
				<defs>
					<polygon id="SVGID_00000154406446648667365740000002376255626682147971_" points="384.5,161.6 384.5,161.6 393.5,161.6 
						393.5,170.6 384.5,170.6 					"/>
				</defs>
				<clipPath id="SVGID_00000168095994449491568960000007434858281800441999_">
					<use xlink:href="#SVGID_00000154406446648667365740000002376255626682147971_"  style="overflow:visible;"/>
				</clipPath>
				<g style="clip-path:url(#SVGID_00000168095994449491568960000007434858281800441999_);">
					<circle class="st8" cx="389" cy="166.1" r="4.5"/>
				</g>
			</g>
		</g>
	</g>
</g>
<g id="_Repetition_miroir_2">
	<g>
		<g>
			<g>
				<defs>
					<polygon id="SVGID_00000008870192158579461210000000118672569080838326_" points="358.1,161.6 358.1,161.6 349.1,161.6 
						349.1,170.6 358.1,170.6 					"/>
				</defs>
				<clipPath id="SVGID_00000060032468145680236210000001187305847132762543_">
					<use xlink:href="#SVGID_00000008870192158579461210000000118672569080838326_"  style="overflow:visible;"/>
				</clipPath>
				<g style="clip-path:url(#SVGID_00000060032468145680236210000001187305847132762543_);">
					<circle class="st8" cx="353.6" cy="166.1" r="4.5"/>
				</g>
			</g>
		</g>
	</g>
</g>
<path class="st10" d="M365.8,190.4c0,0,5.7,3.4,7.6,3.3c1.9-0.1,7.1-3.3,7.1-3.3"/>
<g>
	<path class="st11" d="M380.5,189.5c0,0-4.7,3.7-7.4,3.7c-2.6,0-7-3.6-7-3.6s5.4,0.7,7.2,0.7C375.1,190.3,380.5,189.5,380.5,189.5z"
		/>
</g>
<path class="st10" d="M365.6,190.7c0,0,5.7,3.4,7.6,3.3c1.9-0.1,7.1-3.3,7.1-3.3"/>
<g>
	<g>
		<g>
			<defs>
				<rect id="SVGID_00000150790823964601232060000001170551510698786236_" x="379.7" y="189.4" width="9.5" height="6.8"/>
			</defs>
			<clipPath id="SVGID_00000125597439465606289390000002921416007551229094_">
				<use xlink:href="#SVGID_00000150790823964601232060000001170551510698786236_"  style="overflow:visible;"/>
			</clipPath>
			
				<path style="clip-path:url(#SVGID_00000125597439465606289390000002921416007551229094_);fill:none;stroke:#7D4030;stroke-width:2;stroke-linecap:round;stroke-miterlimit:10;" d="
				M380.7,190.4c0,0,5.6,3.7,7.5,4.8"/>
		</g>
	</g>
</g>
<g>
	<g>
		<g>
			<defs>
				<rect id="SVGID_00000013188981552182312030000016966862516376313008_" x="357.1" y="189.4" width="9.5" height="6.8"/>
			</defs>
			<clipPath id="SVGID_00000168809192116012066620000012985214389104552886_">
				<use xlink:href="#SVGID_00000013188981552182312030000016966862516376313008_"  style="overflow:visible;"/>
			</clipPath>
			
				<path style="clip-path:url(#SVGID_00000168809192116012066620000012985214389104552886_);fill:none;stroke:#7D4030;stroke-width:2;stroke-linecap:round;stroke-miterlimit:10;" d="
				M365.6,190.4c0,0-5.6,3.7-7.5,4.8"/>
		</g>
	</g>
</g>
</svg>
