<?xml version="1.0" encoding="utf-8"?>
<!-- Generator: Adobe Illustrator 26.0.2, SVG Export Plug-In . SVG Version: 6.00 Build 0)  -->
<svg version="1.1" id="Calque_1" xmlns="http://www.w3.org/2000/svg" xmlns:xlink="http://www.w3.org/1999/xlink" x="0px" y="0px"
	 viewBox="0 0 788 1005.1" style="enable-background:new 0 0 788 1005.1;" xml:space="preserve">
<style type="text/css">
	.st0{fill:#D9D9D9;stroke:#802D31;stroke-width:2;stroke-linecap:round;stroke-miterlimit:10;}
	.st1{stroke:#802D31;stroke-width:2;stroke-linecap:round;stroke-miterlimit:10;}
	.st2{clip-path:url(#SVGID_00000047760154090915439910000005769862227438731154_);}
	.st3{fill:none;stroke:#5B5B5B;stroke-width:2;stroke-linecap:round;stroke-miterlimit:10;}
	.st4{clip-path:url(#SVGID_00000136400765614555660540000014061107211365255312_);}
	.st5{clip-path:url(#SVGID_00000154394253179512755840000007491661066681524133_);}
	.st6{fill:#FFFFFF;}
	.st7{clip-path:url(#SVGID_00000021111224430513764200000014074196852003061951_);}
	.st8{clip-path:url(#SVGID_00000075879633772837089060000009172207291890355126_);}
	.st9{fill:#050505;}
	.st10{clip-path:url(#SVGID_00000089532744544021116060000001158990414694118809_);}
	.st11{fill:none;stroke:#7D4030;stroke-width:2;stroke-linecap:round;stroke-miterlimit:10;}
	.st12{fill:#7D4030;}
	
		.st13{clip-path:url(#SVGID_00000000938444367190853170000002384081682012466823_);fill:none;stroke:#7D4030;stroke-width:2;stroke-linecap:round;stroke-miterlimit:10;}
	
		.st14{clip-path:url(#SVGID_00000067925203094275470910000013825318210991681690_);fill:none;stroke:#7D4030;stroke-width:2;stroke-linecap:round;stroke-miterlimit:10;}
</style>
<g id="Calque_5">
	<path class="st0" d="M363.5,203.2c0,0,9.9,6.9,13.5,6.1c2-0.4,5.2-6.2,5.2-6.2"/>
	<polyline class="st1" points="382.2,203 372.7,201.5 363.5,203.4 	"/>
	<g>
		<g>
			<g>
				<defs>
					<rect id="SVGID_1_" x="384.1" y="151.8" width="20.1" height="6.4"/>
				</defs>
				<clipPath id="SVGID_00000042012774107302310550000006258018244659909302_">
					<use xlink:href="#SVGID_1_"  style="overflow:visible;"/>
				</clipPath>
				<g style="clip-path:url(#SVGID_00000042012774107302310550000006258018244659909302_);">
					<path class="st3" d="M385.1,154.1c0,0,4.6-2.9,11.9,0c2.1,0.9,4.2,1.9,6.2,3.1"/>
				</g>
			</g>
		</g>
	</g>
	<g>
		<g>
			<g>
				<defs>
					<rect id="SVGID_00000034084207347495786730000010364230730505285013_" x="341.7" y="151.8" width="20.1" height="6.4"/>
				</defs>
				<clipPath id="SVGID_00000139290931134723765410000002000264612899776653_">
					<use xlink:href="#SVGID_00000034084207347495786730000010364230730505285013_"  style="overflow:visible;"/>
				</clipPath>
				<g style="clip-path:url(#SVGID_00000139290931134723765410000002000264612899776653_);">
					<path class="st3" d="M360.8,154.1c0,0-4.5-2.9-11.9,0c-2.1,0.9-4.2,1.9-6.2,3.1"/>
				</g>
			</g>
		</g>
	</g>
	<g>
		<g>
			<g>
				<defs>
					<polygon id="SVGID_00000132067010224158028510000007522935083217441163_" points="382.1,159.8 382.1,159.8 395.6,159.8 
						395.6,172.7 382.1,172.7 					"/>
				</defs>
				<clipPath id="SVGID_00000127008417664974702900000013861688650611968133_">
					<use xlink:href="#SVGID_00000132067010224158028510000007522935083217441163_"  style="overflow:visible;"/>
				</clipPath>
				<g style="clip-path:url(#SVGID_00000127008417664974702900000013861688650611968133_);">
					<ellipse class="st6" cx="388.9" cy="166.2" rx="6.7" ry="6.5"/>
				</g>
			</g>
		</g>
	</g>
	<g>
		<g>
			<g>
				<defs>
					<polygon id="SVGID_00000116954858256673932150000011097790847867040155_" points="360.8,159.8 360.8,159.8 347.3,159.8 
						347.3,172.7 360.8,172.7 					"/>
				</defs>
				<clipPath id="SVGID_00000028308278571043838290000017599611030014867373_">
					<use xlink:href="#SVGID_00000116954858256673932150000011097790847867040155_"  style="overflow:visible;"/>
				</clipPath>
				<g style="clip-path:url(#SVGID_00000028308278571043838290000017599611030014867373_);">
					<ellipse class="st6" cx="354.1" cy="166.2" rx="6.7" ry="6.5"/>
				</g>
			</g>
		</g>
	</g>
	<g>
		<g>
			<g>
				<defs>
					<polygon id="SVGID_00000014631384818392469100000017796807820401211042_" points="387.1,160.5 387.1,160.5 396.1,160.5 
						396.1,169.5 387.1,169.5 					"/>
				</defs>
				<clipPath id="SVGID_00000014619474963140810740000006445676975235600825_">
					<use xlink:href="#SVGID_00000014631384818392469100000017796807820401211042_"  style="overflow:visible;"/>
				</clipPath>
				<g style="clip-path:url(#SVGID_00000014619474963140810740000006445676975235600825_);">
					<circle class="st9" cx="391.6" cy="165" r="4.5"/>
				</g>
			</g>
		</g>
	</g>
	<g>
		<g>
			<g>
				<defs>
					<polygon id="SVGID_00000033341401314118685320000002859809107602671745_" points="360.8,160.5 360.8,160.5 351.8,160.5 
						351.8,169.5 360.8,169.5 					"/>
				</defs>
				<clipPath id="SVGID_00000054950430351541006190000016993335846206488481_">
					<use xlink:href="#SVGID_00000033341401314118685320000002859809107602671745_"  style="overflow:visible;"/>
				</clipPath>
				<g style="clip-path:url(#SVGID_00000054950430351541006190000016993335846206488481_);">
					<circle class="st9" cx="356.3" cy="165" r="4.5"/>
				</g>
			</g>
		</g>
	</g>
</g>
<path class="st11" d="M365.8,190.4c0,0,5.7,3.4,7.6,3.3c1.9-0.1,7.1-3.3,7.1-3.3"/>
<g>
	<path class="st12" d="M380.5,189.5c0,0-4.7,3.7-7.4,3.7c-2.6,0-7-3.6-7-3.6s5.4,0.7,7.2,0.7C375.1,190.3,380.5,189.5,380.5,189.5z"
		/>
</g>
<path class="st11" d="M365.6,190.7c0,0,5.7,3.4,7.6,3.3c1.9-0.1,7.1-3.3,7.1-3.3"/>
<g>
	<g>
		<g>
			<defs>
				<rect id="SVGID_00000131339202228827219720000000593109230501296297_" x="379.7" y="189.4" width="9.5" height="6.8"/>
			</defs>
			<clipPath id="SVGID_00000075162588554759606010000013146518569469074109_">
				<use xlink:href="#SVGID_00000131339202228827219720000000593109230501296297_"  style="overflow:visible;"/>
			</clipPath>
			
				<path style="clip-path:url(#SVGID_00000075162588554759606010000013146518569469074109_);fill:none;stroke:#7D4030;stroke-width:2;stroke-linecap:round;stroke-miterlimit:10;" d="
				M380.7,190.4c0,0,5.6,3.7,7.5,4.8"/>
		</g>
	</g>
</g>
<g>
	<g>
		<g>
			<defs>
				<rect id="SVGID_00000103257559970182203870000016114254878141806765_" x="357.1" y="189.4" width="9.5" height="6.8"/>
			</defs>
			<clipPath id="SVGID_00000047782563979404355180000006842765713007924414_">
				<use xlink:href="#SVGID_00000103257559970182203870000016114254878141806765_"  style="overflow:visible;"/>
			</clipPath>
			
				<path style="clip-path:url(#SVGID_00000047782563979404355180000006842765713007924414_);fill:none;stroke:#7D4030;stroke-width:2;stroke-linecap:round;stroke-miterlimit:10;" d="
				M365.6,190.4c0,0-5.6,3.7-7.5,4.8"/>
		</g>
	</g>
</g>
</svg>
