<?xml version="1.0" encoding="utf-8"?>
<!-- Generator: Adobe Illustrator 26.0.2, SVG Export Plug-In . SVG Version: 6.00 Build 0)  -->
<svg version="1.1" id="Calque_1" xmlns="http://www.w3.org/2000/svg" xmlns:xlink="http://www.w3.org/1999/xlink" x="0px" y="0px"
	 viewBox="0 0 788 1005.1" style="enable-background:new 0 0 788 1005.1;" xml:space="preserve">
<style type="text/css">
	.st0{clip-path:url(#SVGID_00000172440152744326567330000004538219014238056832_);}
	.st1{fill:#FFFFFF;}
	.st2{clip-path:url(#SVGID_00000054964327127898450880000006394364445740573359_);}
	.st3{clip-path:url(#SVGID_00000181067511463911376990000005302571756966921623_);}
	.st4{fill:#090909;}
	.st5{clip-path:url(#SVGID_00000134245613765957394480000010842569618758265486_);}
	.st6{fill:#936170;}
	.st7{fill:#B85D40;}
	.st8{fill:#D8D5D4;}
</style>
<g id="Calque_3">
	<path d="M387.7,132.8c-0.9,0.1-1.9-0.2-2.7-0.7c-0.3-0.4,0.3-1.6,0.7-2c0.2-0.1,3.2-2.2,10.7-0.4c3.6,0.8,7.1,2.6,6.8,3.5
		C403,133.5,397,130.9,387.7,132.8z"/>
	<path d="M364,132.8c0.9,0.1,1.9-0.2,2.7-0.7c0.3-0.4-0.3-1.6-0.7-2c-0.2-0.1-3.2-2.2-10.7-0.4c-3.6,0.8-7.1,2.6-6.8,3.5
		C348.7,133.5,354.7,130.9,364,132.8z"/>
	<g>
		<g>
			<defs>
				<polygon id="SVGID_1_" points="386.6,140.4 386.6,140.4 399.4,140.4 399.4,152.6 386.6,152.6 				"/>
			</defs>
			<clipPath id="SVGID_00000111908215164167661930000003511755640647711676_">
				<use xlink:href="#SVGID_1_"  style="overflow:visible;"/>
			</clipPath>
			<g style="clip-path:url(#SVGID_00000111908215164167661930000003511755640647711676_);">
				<ellipse class="st1" cx="393" cy="146.5" rx="6.4" ry="6.1"/>
			</g>
		</g>
	</g>
	<g>
		<g>
			<defs>
				<polygon id="SVGID_00000026137920214512547280000001159387009530754458_" points="365.1,140.4 365.1,140.4 352.3,140.4 
					352.3,152.6 365.1,152.6 				"/>
			</defs>
			<clipPath id="SVGID_00000085942861720392082530000014545495825008193924_">
				<use xlink:href="#SVGID_00000026137920214512547280000001159387009530754458_"  style="overflow:visible;"/>
			</clipPath>
			<g style="clip-path:url(#SVGID_00000085942861720392082530000014545495825008193924_);">
				<ellipse class="st1" cx="358.7" cy="146.5" rx="6.4" ry="6.1"/>
			</g>
		</g>
	</g>
	<g>
		<g>
			<defs>
				<polygon id="SVGID_00000147908400835516633040000012678359645124103813_" points="388.7,143.1 388.7,143.1 397.2,143.1 
					397.2,151.7 388.7,151.7 				"/>
			</defs>
			<clipPath id="SVGID_00000075135059172106690700000008256689463920373927_">
				<use xlink:href="#SVGID_00000147908400835516633040000012678359645124103813_"  style="overflow:visible;"/>
			</clipPath>
			<g style="clip-path:url(#SVGID_00000075135059172106690700000008256689463920373927_);">
				<circle class="st4" cx="392.9" cy="147.4" r="4.2"/>
			</g>
		</g>
	</g>
	<g>
		<g>
			<defs>
				<polygon id="SVGID_00000056415603622432206100000001546606009435379081_" points="363,143.1 363,143.1 354.5,143.1 354.5,151.7 
					363,151.7 				"/>
			</defs>
			<clipPath id="SVGID_00000032637020550106898310000007387108825115731359_">
				<use xlink:href="#SVGID_00000056415603622432206100000001546606009435379081_"  style="overflow:visible;"/>
			</clipPath>
			<g style="clip-path:url(#SVGID_00000032637020550106898310000007387108825115731359_);">
				<circle class="st4" cx="358.8" cy="147.4" r="4.2"/>
			</g>
		</g>
	</g>
	<path class="st6" d="M370.2,184.9c0-0.8,0.6-1.7,5.4-1.7s5.9,0.8,5.9,1.6s-1.3,3-6.1,3S370.2,185.6,370.2,184.9z"/>
	<path class="st7" d="M383.1,167.8c0,0-4.7,3.7-7.4,3.7c-2.6,0-7-3.6-7-3.6s5.4,0.7,7.2,0.7S383.1,167.8,383.1,167.8z"/>
	<path class="st8" d="M349.1,190c-2.2-2.9-2.7-6.7-1.3-10.1c2.6-6.3,6.6-15.6,6.8-16.4c0.2-0.9,12.9-4.4,18.9-5.9c2-0.5,4-0.4,6,0.2
		l12.3,4.3c3.4,1.2,5.9,4,6.6,7.5c1.5,6.8,3.7,17.4,3.7,18.2c0,1.2-17,21.6-19,21.6c-1.3,0-9.9-0.5-15.4-0.9c-3-0.2-5.7-1.7-7.5-4
		L349.1,190z"/>
</g>
</svg>
