<?xml version="1.0" encoding="utf-8"?>
<!-- Generator: Adobe Illustrator 26.0.2, SVG Export Plug-In . SVG Version: 6.00 Build 0)  -->
<svg version="1.1" id="Calque_1" xmlns="http://www.w3.org/2000/svg" xmlns:xlink="http://www.w3.org/1999/xlink" x="0px" y="0px"
	 viewBox="0 0 788 1005.1" style="enable-background:new 0 0 788 1005.1;" xml:space="preserve">
<style type="text/css">
	.st0{fill:#FFFFFF;}
	.st1{fill:none;stroke:#802D31;stroke-width:2;stroke-linecap:round;stroke-miterlimit:10;}
	.st2{clip-path:url(#SVGID_00000048485296395140156140000006165278632493748146_);}
	.st3{fill:none;stroke:#D3D3D3;stroke-width:2;stroke-linecap:round;stroke-miterlimit:10;}
	.st4{clip-path:url(#SVGID_00000146473877628806147830000012931322195755434175_);}
	.st5{fill:#050505;}
	.st6{fill:none;stroke:#7D4030;stroke-width:2;stroke-linecap:round;stroke-miterlimit:10;}
	.st7{fill:#7D4030;}
	
		.st8{clip-path:url(#SVGID_00000015343674553270448340000008356319264444309932_);fill:none;stroke:#7D4030;stroke-width:2;stroke-linecap:round;stroke-miterlimit:10;}
	
		.st9{clip-path:url(#SVGID_00000035497845584577908890000006713463408057034422_);fill:none;stroke:#7D4030;stroke-width:2;stroke-linecap:round;stroke-miterlimit:10;}
</style>
<g>
	<ellipse class="st0" cx="354.1" cy="166.2" rx="6.7" ry="6.5"/>
	<path class="st1" d="M363.6,203.4c0,0,5.7,4.4,9.4,3.9c2.8-0.4,9.3-4.1,9.3-4.1"/>
	<path class="st1" d="M382.3,203.2L373,206c-2.9,0.5-6.4-2.1-9.4-3"/>
	<g>
		<g>
			<g>
				<defs>
					<rect id="SVGID_1_" x="384.1" y="151.8" width="20.1" height="6.4"/>
				</defs>
				<clipPath id="SVGID_00000065782358356539258350000017343775659616905874_">
					<use xlink:href="#SVGID_1_"  style="overflow:visible;"/>
				</clipPath>
				<g style="clip-path:url(#SVGID_00000065782358356539258350000017343775659616905874_);">
					<path class="st3" d="M385.1,154.1c0,0,4.6-2.9,11.9,0c2.1,0.9,4.2,1.9,6.2,3.1"/>
				</g>
			</g>
		</g>
	</g>
	<g>
		<g>
			<g>
				<defs>
					<rect id="SVGID_00000180336214368290054350000000863963391516080539_" x="341.7" y="151.8" width="20.1" height="6.4"/>
				</defs>
				<clipPath id="SVGID_00000021828821445015779700000014366323163971207582_">
					<use xlink:href="#SVGID_00000180336214368290054350000000863963391516080539_"  style="overflow:visible;"/>
				</clipPath>
				<g style="clip-path:url(#SVGID_00000021828821445015779700000014366323163971207582_);">
					<path class="st3" d="M360.8,154.1c0.1,0-3.9-3-11.9,0c-2.1,0.9-4.2,1.9-6.2,3.1"/>
				</g>
			</g>
		</g>
	</g>
	<circle class="st5" cx="354.1" cy="166.2" r="4.5"/>
	<path class="st6" d="M365.8,190.4c0,0,5.7,3.4,7.6,3.3c1.9-0.1,7.1-3.3,7.1-3.3"/>
	<g>
		<path class="st7" d="M380.5,189.5c0,0-4.7,3.7-7.4,3.7c-2.6,0-7-3.6-7-3.6s5.4,0.7,7.2,0.7C375.1,190.3,380.5,189.5,380.5,189.5z"
			/>
	</g>
	<path class="st6" d="M365.6,190.7c0,0,5.7,3.4,7.6,3.3c1.9-0.1,7.1-3.3,7.1-3.3"/>
	<g>
		<g>
			<g>
				<defs>
					<rect id="SVGID_00000056397158525483408760000006725257374428005310_" x="379.7" y="189.4" width="9.5" height="6.8"/>
				</defs>
				<clipPath id="SVGID_00000163059062190141357000000018358980999655719863_">
					<use xlink:href="#SVGID_00000056397158525483408760000006725257374428005310_"  style="overflow:visible;"/>
				</clipPath>
				
					<path style="clip-path:url(#SVGID_00000163059062190141357000000018358980999655719863_);fill:none;stroke:#7D4030;stroke-width:2;stroke-linecap:round;stroke-miterlimit:10;" d="
					M380.7,190.4c0,0,5.6,3.7,7.5,4.8"/>
			</g>
		</g>
	</g>
	<g>
		<g>
			<g>
				<defs>
					<rect id="SVGID_00000094617578623234662470000016677704158296846777_" x="357.1" y="189.4" width="9.5" height="6.8"/>
				</defs>
				<clipPath id="SVGID_00000084516880279481875250000003428635683628848316_">
					<use xlink:href="#SVGID_00000094617578623234662470000016677704158296846777_"  style="overflow:visible;"/>
				</clipPath>
				
					<path style="clip-path:url(#SVGID_00000084516880279481875250000003428635683628848316_);fill:none;stroke:#7D4030;stroke-width:2;stroke-linecap:round;stroke-miterlimit:10;" d="
					M365.6,190.4c0,0-5.6,3.7-7.5,4.8"/>
			</g>
		</g>
	</g>
</g>
<g id="Calque_3">
	<path d="M403.3,165.9c-0.7,0.9-1.9,1.1-2.9,0.6c-1.8-1-7-1.1-9-0.5c-2.7,0.8-5.8,1.9-6.7,0.4c-0.1-0.3,1.5-2.9,6.9-3.2
		S400.8,165.7,403.3,165.9L403.3,165.9z"/>
</g>
</svg>
