<?xml version="1.0" encoding="utf-8"?>
<!-- Generator: Adobe Illustrator 26.0.2, SVG Export Plug-In . SVG Version: 6.00 Build 0)  -->
<svg version="1.1" id="Layer_1" xmlns="http://www.w3.org/2000/svg" xmlns:xlink="http://www.w3.org/1999/xlink" x="0px" y="0px"
	 viewBox="0 0 150 116.9" style="enable-background:new 0 0 150 116.9;" xml:space="preserve">
<style type="text/css">
	.st0{clip-path:url(#SVGID_00000129183415929856963300000003960284260823150734_);}
	.st1{fill:#FFFFFF;}
	.st2{clip-path:url(#SVGID_00000046332472869608258740000006014979174550305186_);}
	.st3{clip-path:url(#SVGID_00000139973848152337928700000005831421177402112677_);}
	.st4{fill:#090909;}
	.st5{clip-path:url(#SVGID_00000170263886023485166030000014982783547914246568_);}
	.st6{fill:#936170;}
	.st7{fill:#B85D40;}
	.st8{fill:#D8D5D4;}
</style>
<g id="Calque_3">
	<path d="M86,31.5c-1,0.1-1.9-0.2-2.7-0.7c-0.3-0.4,0.3-1.6,0.7-2c0.2-0.1,3.2-2.2,10.7-0.5c3.7,0.8,7.1,2.6,6.8,3.5
		C101.4,32.2,95.3,29.7,86,31.5z"/>
	<path d="M62.4,31.5c0.9,0.1,1.9-0.2,2.7-0.7c0.3-0.4-0.3-1.6-0.7-2c-0.2-0.1-3.2-2.2-10.7-0.5c-3.7,0.8-7.1,2.6-6.8,3.5
		C47,32.2,53,29.7,62.4,31.5z"/>
	<g>
		<defs>
			<polygon id="SVGID_1_" points="85,39.1 85,39.1 97.7,39.1 97.7,51.4 85,51.4 			"/>
		</defs>
		<clipPath id="SVGID_00000092432002280154982470000015989750150011862413_">
			<use xlink:href="#SVGID_1_"  style="overflow:visible;"/>
		</clipPath>
		<g style="clip-path:url(#SVGID_00000092432002280154982470000015989750150011862413_);">
			<ellipse class="st1" cx="91.3" cy="45.2" rx="6.4" ry="6.1"/>
		</g>
	</g>
	<g>
		<defs>
			<polygon id="SVGID_00000072271755027882150250000014590126960905648308_" points="63.4,39.1 63.4,39.1 50.7,39.1 50.7,51.4 
				63.4,51.4 			"/>
		</defs>
		<clipPath id="SVGID_00000045620712714164872310000001362317884867841425_">
			<use xlink:href="#SVGID_00000072271755027882150250000014590126960905648308_"  style="overflow:visible;"/>
		</clipPath>
		<g style="clip-path:url(#SVGID_00000045620712714164872310000001362317884867841425_);">
			<ellipse class="st1" cx="57.1" cy="45.2" rx="6.4" ry="6.1"/>
		</g>
	</g>
	<g>
		<defs>
			<polygon id="SVGID_00000147205802257507854240000013147440883859168439_" points="87,41.9 87,41.9 95.5,41.9 95.5,50.4 87,50.4 
							"/>
		</defs>
		<clipPath id="SVGID_00000141441244075390948200000003841529299946421432_">
			<use xlink:href="#SVGID_00000147205802257507854240000013147440883859168439_"  style="overflow:visible;"/>
		</clipPath>
		<g style="clip-path:url(#SVGID_00000141441244075390948200000003841529299946421432_);">
			<circle class="st4" cx="91.3" cy="46.2" r="4.2"/>
		</g>
	</g>
	<g>
		<defs>
			<polygon id="SVGID_00000121257368317657665320000007609608590908901794_" points="61.4,41.9 61.4,41.9 52.9,41.9 52.9,50.4 
				61.4,50.4 			"/>
		</defs>
		<clipPath id="SVGID_00000131366036847404969780000007471586625602996915_">
			<use xlink:href="#SVGID_00000121257368317657665320000007609608590908901794_"  style="overflow:visible;"/>
		</clipPath>
		<g style="clip-path:url(#SVGID_00000131366036847404969780000007471586625602996915_);">
			<circle class="st4" cx="57.1" cy="46.2" r="4.2"/>
		</g>
	</g>
	<path class="st6" d="M68.5,83.6c0-0.8,0.6-1.7,5.4-1.7s5.9,0.8,5.9,1.6s-1.3,3-6.1,3S68.5,84.4,68.5,83.6z"/>
	<path class="st7" d="M81.4,66.6c0,0-4.7,3.7-7.4,3.7s-7-3.6-7-3.6s5.4,0.7,7.2,0.7S81.4,66.6,81.4,66.6z"/>
	<path class="st8" d="M49.2,91c-3.3-4.3-4.1-10.2-2-15.2c2.5-5.9,5.5-12.9,5.6-13.6c0.2-0.9,11-3.8,17.4-5.5c2.9-0.8,6-0.7,8.9,0.3
		l8.3,2.9c5,1.7,8.8,6,9.9,11.2c1.4,6.6,3.1,14.7,3.1,15.4c0,1.2-17,21.6-19,21.6c-1.2,0-7.8-0.4-13.2-0.8
		c-4.4-0.3-8.4-2.4-11.1-5.9L49.2,91z"/>
</g>
</svg>
