<?xml version="1.0" encoding="utf-8"?>
<!-- Generator: Adobe Illustrator 26.0.2, SVG Export Plug-In . SVG Version: 6.00 Build 0)  -->
<svg version="1.1" id="Calque_1" xmlns="http://www.w3.org/2000/svg" xmlns:xlink="http://www.w3.org/1999/xlink" x="0px" y="0px"
	 viewBox="0 0 788 1005.1" style="enable-background:new 0 0 788 1005.1;" xml:space="preserve">
<style type="text/css">
	.st0{fill:#7C3838;}
	.st1{fill:#BCBCBC;}
	.st2{clip-path:url(#SVGID_00000123420171269882196370000011870835802817531065_);}
	.st3{fill:none;stroke:#F4F4F4;stroke-width:2;stroke-linecap:round;stroke-miterlimit:10;}
	.st4{clip-path:url(#SVGID_00000176045626120319343780000010952115030687735229_);}
	.st5{clip-path:url(#SVGID_00000166662980967462016980000001296901958101094022_);}
	.st6{fill:#FFFFFF;}
	.st7{clip-path:url(#SVGID_00000177458285947486135000000003474850698694144148_);}
	.st8{clip-path:url(#SVGID_00000115506078377603239020000008353632642992951973_);}
	.st9{fill:#050505;}
	.st10{clip-path:url(#SVGID_00000181780946580737105200000011946926978165512838_);}
	.st11{fill:none;stroke:#7D4030;stroke-width:2;stroke-linecap:round;stroke-miterlimit:10;}
	.st12{fill:#7D4030;}
	
		.st13{clip-path:url(#SVGID_00000134955025940169031870000001695187777283866523_);fill:none;stroke:#7D4030;stroke-width:2;stroke-linecap:round;stroke-miterlimit:10;}
	
		.st14{clip-path:url(#SVGID_00000178884011863495096890000004268224994359585666_);fill:none;stroke:#7D4030;stroke-width:2;stroke-linecap:round;stroke-miterlimit:10;}
</style>
<g id="Calque_3">
	<circle cx="355.9" cy="168.4" r="2.9"/>
	<circle cx="387.8" cy="168.4" r="2.9"/>
	<path class="st0" d="M359.9,200.5c0.2-0.6,1.2-1.4,3.1-2.2c3-1.2,6.1-1.8,9.3-1.8c5.2-0.1,10.2,1.8,13.9,5.3c0,0-4,10.3-13.9,9.6
		C365.1,210.8,359.9,200.5,359.9,200.5z"/>
	<path class="st1" d="M372.6,200.9l-7.2-0.3l-1.9-0.8c3.2-1.3,6.6-1.8,10.1-1.7c5.9,0.3,9.1,2.6,9.1,2.6l-1.5,0.7L372.6,200.9z"/>
	<g>
		<g>
			<g>
				<defs>
					<rect id="SVGID_1_" x="384" y="139.7" width="20.1" height="6.4"/>
				</defs>
				<clipPath id="SVGID_00000047777631733621116540000001952894154986441361_">
					<use xlink:href="#SVGID_1_"  style="overflow:visible;"/>
				</clipPath>
				<g style="clip-path:url(#SVGID_00000047777631733621116540000001952894154986441361_);">
					<path class="st3" d="M385,141.9c0,0,4.5-2.9,11.9,0c2.1,0.9,4.2,1.9,6.2,3.1"/>
				</g>
			</g>
		</g>
	</g>
	<g>
		<g>
			<g>
				<defs>
					<rect id="SVGID_00000083052616324603128100000018125774145374697907_" x="341.7" y="139.7" width="20.1" height="6.4"/>
				</defs>
				<clipPath id="SVGID_00000158711901579975143910000015845172953230940321_">
					<use xlink:href="#SVGID_00000083052616324603128100000018125774145374697907_"  style="overflow:visible;"/>
				</clipPath>
				<g style="clip-path:url(#SVGID_00000158711901579975143910000015845172953230940321_);">
					<path class="st3" d="M360.7,141.9c0,0-4.5-2.9-11.9,0c-2.1,0.9-4.2,1.9-6.2,3.1"/>
				</g>
			</g>
		</g>
	</g>
	<g id="_Repetition_miroir_">
		<g>
			<g>
				<g>
					<defs>
						<polygon id="SVGID_00000018938521318062434450000013674198414252374719_" points="383.1,159.8 383.1,159.8 396.6,159.8 
							396.6,172.7 383.1,172.7 						"/>
					</defs>
					<clipPath id="SVGID_00000042010964431257973190000009594710685331962760_">
						<use xlink:href="#SVGID_00000018938521318062434450000013674198414252374719_"  style="overflow:visible;"/>
					</clipPath>
					<g style="clip-path:url(#SVGID_00000042010964431257973190000009594710685331962760_);">
						<ellipse class="st6" cx="389.9" cy="166.2" rx="6.7" ry="6.5"/>
					</g>
				</g>
			</g>
		</g>
	</g>
	<g id="_Repetition_miroir_2">
		<g>
			<g>
				<g>
					<defs>
						<polygon id="SVGID_00000152973863208700988030000013404998374310949250_" points="361.8,159.8 361.8,159.8 348.3,159.8 
							348.3,172.7 361.8,172.7 						"/>
					</defs>
					<clipPath id="SVGID_00000127744326910883288120000000222223414076907441_">
						<use xlink:href="#SVGID_00000152973863208700988030000013404998374310949250_"  style="overflow:visible;"/>
					</clipPath>
					<g style="clip-path:url(#SVGID_00000127744326910883288120000000222223414076907441_);">
						<ellipse class="st6" cx="355.1" cy="166.2" rx="6.7" ry="6.5"/>
					</g>
				</g>
			</g>
		</g>
	</g>
	<g>
		<g>
			<g>
				<defs>
					<polygon id="SVGID_00000161622771220013877060000003654799639081993868_" points="386.1,161.7 386.1,161.7 395.1,161.7 
						395.1,170.7 386.1,170.7 					"/>
				</defs>
				<clipPath id="SVGID_00000136373370115278114830000008396211285124042173_">
					<use xlink:href="#SVGID_00000161622771220013877060000003654799639081993868_"  style="overflow:visible;"/>
				</clipPath>
				<g style="clip-path:url(#SVGID_00000136373370115278114830000008396211285124042173_);">
					<circle class="st9" cx="390.6" cy="166.2" r="4.5"/>
				</g>
			</g>
		</g>
	</g>
	<g>
		<g>
			<g>
				<defs>
					<polygon id="SVGID_00000152266633611467772930000018170066096300757684_" points="359.7,161.7 359.7,161.7 350.7,161.7 
						350.7,170.7 359.7,170.7 					"/>
				</defs>
				<clipPath id="SVGID_00000001627548951329141080000004538949759774061956_">
					<use xlink:href="#SVGID_00000152266633611467772930000018170066096300757684_"  style="overflow:visible;"/>
				</clipPath>
				<g style="clip-path:url(#SVGID_00000001627548951329141080000004538949759774061956_);">
					<circle class="st9" cx="355.2" cy="166.2" r="4.5"/>
				</g>
			</g>
		</g>
	</g>
	<path class="st11" d="M365.8,190.4c0,0,5.7,3.4,7.6,3.3c1.9-0.1,7.1-3.3,7.1-3.3"/>
	<g>
		<path class="st12" d="M380.5,189.5c0,0-4.7,3.7-7.4,3.7c-2.6,0-7-3.6-7-3.6s5.4,0.7,7.2,0.7C375.1,190.3,380.5,189.5,380.5,189.5z
			"/>
	</g>
	<path class="st11" d="M365.6,190.7c0,0,5.7,3.4,7.6,3.3c1.9-0.1,7.1-3.3,7.1-3.3"/>
	<g>
		<g>
			<g>
				<defs>
					<rect id="SVGID_00000032640311675352022130000007863217985428264067_" x="379.7" y="189.4" width="9.5" height="6.8"/>
				</defs>
				<clipPath id="SVGID_00000106106101843881242730000004084554115042086563_">
					<use xlink:href="#SVGID_00000032640311675352022130000007863217985428264067_"  style="overflow:visible;"/>
				</clipPath>
				
					<path style="clip-path:url(#SVGID_00000106106101843881242730000004084554115042086563_);fill:none;stroke:#7D4030;stroke-width:2;stroke-linecap:round;stroke-miterlimit:10;" d="
					M380.7,190.4c0,0,5.6,3.7,7.5,4.8"/>
			</g>
		</g>
	</g>
	<g>
		<g>
			<g>
				<defs>
					<rect id="SVGID_00000058574458703025823820000013202496898970766977_" x="357.1" y="189.4" width="9.5" height="6.8"/>
				</defs>
				<clipPath id="SVGID_00000032622813652749546030000018132249658140451762_">
					<use xlink:href="#SVGID_00000058574458703025823820000013202496898970766977_"  style="overflow:visible;"/>
				</clipPath>
				
					<path style="clip-path:url(#SVGID_00000032622813652749546030000018132249658140451762_);fill:none;stroke:#7D4030;stroke-width:2;stroke-linecap:round;stroke-miterlimit:10;" d="
					M365.6,190.4c0,0-5.6,3.7-7.5,4.8"/>
			</g>
		</g>
	</g>
</g>
</svg>
