<?xml version="1.0" encoding="utf-8"?>
<!-- Generator: Adobe Illustrator 26.0.3, SVG Export Plug-In . SVG Version: 6.00 Build 0)  -->
<svg version="1.1" id="Layer_1" xmlns="http://www.w3.org/2000/svg" xmlns:xlink="http://www.w3.org/1999/xlink" x="0px" y="0px"
	 viewBox="0 0 588 605.7" style="enable-background:new 0 0 588 605.7;" xml:space="preserve">
<style type="text/css">
	.st0{fill:#BAA535;}
	.st1{fill:#90573A;}
	.st2{fill:#E2E2E2;}
	.st3{fill:#C3DFED;}
	.st4{fill:none;stroke:#4D6FAA;stroke-width:3;stroke-linecap:round;stroke-miterlimit:10;}
</style>
<path class="st0" d="M256.3,129.9v-43c0,0-32.8-49.8-33.6-49.8s-19.9,21.5-19.9,21.5l-2.5,18.6l-21.5,72.7c0,0,26,155.1,26,156.7
	c0,0.5,0.3,4.7,0.7,9.8c1,12.2,9.7,21.5,20.2,21.5l0,0c9.9,0,15-4.4,16.6-15.8l2.2-15.3c0,0,8.3-85.1,7.2-87.1
	c-0.7-1.4,6.3-50.7,4.5-52.7S256.3,129.9,256.3,129.9z"/>
<path class="st1" d="M240.9,343.4c-0.2-0.9-6.7-39-17.1-39l0,0c-9.9,0-18.2,7.8-19.5,18.2l-0.9,7.1c0,0-4.6,65.4-3.6,66.9
	S218,510.9,218,513.7c0,6.4,4.7,11.6,10.7,12l0,0c7,0.4,8-4.1,7.2-11.5l11.8-124.6L240.9,343.4z"/>
<path class="st1" d="M228.1,501.5c-4.4-0.1-11,1.2-10.5,15.2c0.2,4.9-1.6,26.6-5.5,32c-1.1,1.5,0.2,5.5-3.1,8.1
	c-1,0.8-0.9,3.8-0.8,5l-3.4,3.6l31.3,1l9.2-6.6l-6.5-26.8l-2.2-17.5l-0.7-4.1C235,501.6,234.7,501.7,228.1,501.5z"/>
<path class="st2" d="M261.9,24.6h-30.1c-8.8,0-15.1,0.9-21.4,12.4c0,0-9.7,15.6-11.9,21.4c-5.9,15.8-27.2,53.2-28.6,66.4
	c-5.5,51.4,30.5,189.9,30.5,189.9s-4,57.9-2.8,77.2C199.1,416.2,213,488,213,488h25.9c0,0,9.8-76,10.2-101.5
	c0.3-16.9-4.6-50.5-4.6-67.5c0.1-37.9,17.7-113.1,21.2-150.8c1-10.5,19.6-52.4,19.6-52.4L261.9,24.6z"/>
<path class="st1" d="M328,343.2c0-0.9-0.8-39.6,9.4-41.8l0,0c9.7-2.1,19.3,3.8,22.5,13.7l2.2,6.8c0,0,16.8,63.1,16.2,64.8
	s3.6,115.9,4.1,118.6c1.2,6.3-2.4,12.4-8.2,14l0,0c-6.8,1.9-8.6-2.3-9.3-9.7l-35-119.5L328,343.2z"/>
<path class="st1" d="M370.3,495.5c4.3-1,11-1.2,13.1,12.7c0.7,4.9,6.6,25.7,11.4,30.2c1.3,1.2,2.8,5.1,6.4,7
	c1.1,0.6,1.8,1.7,1.9,2.9l1.9,5l-30.5,1.9l-5.2-4.9c-3.1-2.9-4.7-7-4.4-11.2l0.6-10.4l-1-17.6l-0.1-4.2
	C363.6,497,363.9,497,370.3,495.5z"/>
<path class="st2" d="M226.9,26.1l7.5-1.2c8.6-2,43.3-1.9,59.1,4.4c0,0,17.2-0.5,52.9,78.1c20.9,46.1,17.6,198.3,17.6,198.3
	s14.2,55.8,16.5,75c2.9,24.2,2,97.6,2,97.6l-25.4,5.9c0,0-23.2-72.2-28.1-97.2c-3.3-16.5-4.5-50.6-7.5-67.1
	c-6.9-37.2-40.6-108.2-50.8-144.3c-2.8-10-16-52.3-16-52.3l-36.3-81.5C215.4,35,219.6,27.3,226.9,26.1z"/>
<path class="st3" d="M404.7,543.6C404.7,543.6,404.7,543.5,404.7,543.6l-8.9-12.7l-9.2-12.3c-0.4-0.6-1.2-0.9-1.9-0.8l-18.1,2.9
	c-0.8,0.1-2.5,1-2.5,1.9l0.5,20.2c0,1.8,0.5,3.6,1.5,5.2l7,10.8c0,0.1,0.1,0.1,0.1,0.2l4.5,10.5l0,0c1.9,2.8,4.6,5,7.6,6.5
	c3,1.4,6.7,3.1,8.6,3.6c4.8,1.3,16.2,2.5,23.4,3.2c3.4,0.3,6.3-2.3,6.3-5.7v-1.2c0-1.5-0.4-2.9-1.2-4.1L404.7,543.6z"/>
<polygon class="st1" points="217.4,525.7 213.6,554.3 238,554.3 237.7,525.2 225.8,518.7 "/>
<path class="st3" d="M225.5,530.5l-8.6,2.1c-1.3,0.3-2.3,1.2-2.7,2.5l-6.1,18.1c-0.1,0.4-0.2,0.8-0.2,1.2v5c0,0.7-0.2,1.3-0.5,1.9
	l-6.1,10.5c-1,1.7-0.6,3.8,1,4.9c1.5,1.1,3.3,2.2,4.5,1.8c1.9-0.7,35-1.5,46.3-1.7c2.1,0,3.7-1.7,3.7-3.8l0,0c0-0.7-0.2-1.4-0.6-2
	l-7.9-12.8c-0.2-0.3-0.3-0.6-0.4-0.9l-6.5-20.5c-0.2-0.7-0.6-1.3-1.2-1.8l-4.5-3.7c-0.7-0.6-1.6-0.9-2.5-0.9h-6.9
	C226.1,530.3,225.8,530.4,225.5,530.5z"/>
<line class="st4" x1="219.3" y1="559.2" x2="238.1" y2="556.9"/>
<line class="st4" x1="220.1" y1="553.2" x2="235.9" y2="551.3"/>
<line class="st4" x1="221.1" y1="546.4" x2="233.3" y2="545"/>
<line class="st4" x1="394.8" y1="545.2" x2="407" y2="543.8"/>
<line class="st4" x1="392.8" y1="537.8" x2="402.2" y2="536.8"/>
<line class="st4" x1="390.7" y1="531.3" x2="397.5" y2="530.5"/>
</svg>
