<svg xmlns="http://www.w3.org/2000/svg" viewBox="0 0 788 1005"><defs><style>.cls-1{fill:#fff;}.cls-2,.cls-4{fill:none;stroke-linecap:round;stroke-miterlimit:10;stroke-width:2px;}.cls-2{stroke:#000;}.cls-3{fill:#844f3d;}.cls-4{stroke:#662c34;}.cls-5{fill:#020202;}</style></defs><g id="Calque_10" data-name="Calque 10"><circle class="cls-1" cx="375.7" cy="245.98" r="5.28"/><circle cx="375.67" cy="246.01" r="4"/><path class="cls-2" d="M403.32,233.89s5.74.68,10.35,1.56a47.49,47.49,0,0,1,10.55,3.39"/><path class="cls-2" d="M384.18,233.39A14.89,14.89,0,0,0,364,234.78"/><path class="cls-3" d="M400.42,265.47s-4.69,3.69-7.42,3.69c-2.58,0-7-3.59-7-3.59s5.4.73,7.21.71S400.42,265.47,400.42,265.47Z"/><path class="cls-4" d="M379.76,280.32a18.62,18.62,0,0,0,13.61,5.52,19,19,0,0,0,13.29-6.49"/><path class="cls-5" d="M366.56,243.86a2.09,2.09,0,0,0,2.88.64c1.77-1.13,3.8-2.75,5.75-2.1,2.66.89,2.55,2.9,5.85,3.28.32,0-.68-6.21-6.07-6.54s-6,4.39-8.41,4.72Z"/><path class="cls-5" d="M419.87,246.46a2.1,2.1,0,0,1-2.89.64c-1.77-1.13-6.93-1.21-8.88-.56-2.66.89-5.77,2.15-6.62.4-.14-.28,1.45-3.33,6.84-3.66s9.11,2.85,11.55,3.18Z"/></g></svg>