<?xml version="1.0" encoding="utf-8"?>
<!-- Generator: Adobe Illustrator 26.0.1, SVG Export Plug-In . SVG Version: 6.00 Build 0)  -->
<svg version="1.1" id="Calque_1" xmlns="http://www.w3.org/2000/svg" xmlns:xlink="http://www.w3.org/1999/xlink" x="0px" y="0px"
	 viewBox="0 0 788 354.5" style="enable-background:new 0 0 788 354.5;" xml:space="preserve">
<style type="text/css">
	.st0{fill:#FD8C75;}
	.st1{fill:#BF673C;}
	.st2{fill:#4694B5;}
</style>
<g id="Calque_10">
	<path class="st0" d="M393,167c-5.5-3.6-8-0.6-13.7,2.5c-9.8,5.3-15.8,23.7-26.7,26.2c-3.9,0.9-12.7-15.1-13.7-21.3
		c-1.5-9.3,2.5-27.5-8.4-36.9c-9.2-7.9-21.5-3.7-25.5-16.3c-7-22,17.3-35.8,27.2-39.7c15.2-5.9,33.3-7.8,39.7-16.9l0.9-27.7
		l0.7-20.2l18.3-0.8h2.2l18.3,0.8l0.7,20.2l0.9,27.7c6.4,9.1,28.4,8.3,43.5,14.2c10,3.9,30.4,20.4,23.4,42.4
		c-4,12.6-16.2,8.4-25.5,16.3c-10.9,9.3-6.9,27.5-8.4,36.8c-1,6.3-9.9,22.2-13.7,21.3c-10.8-2.5-16.9-20.9-26.7-26.2
		C401,166.4,398.5,163.4,393,167"/>
	<path class="st1" d="M372.5,65c0,0,31.8,11.4,41.2-10.8l-1.3-37.4h-38.8L372.5,65z"/>
	<path class="st0" d="M344.1,89.3c8.4,18-0.9,28.2-3.9,37.4c-4.7,14.5-2.5,44.5-4.3,59.3c-0.8,7-5.5,23-16.7,22.5l0,0
		c-14.4-1.3-14.9-18.8-14.8-25.5c0.3-13.7-4-70.6,3.4-86.2c0,0,6.7-16.3,19.5-17.6C335.5,78.3,340.7,81.9,344.1,89.3L344.1,89.3z"/>
	<path class="st0" d="M322.9,208.5c-10.6,3.5-15.8-6.2-19.1-15.1c-2.3-6.4-18.7-70.4-23.4-87.8c-2.6-9.8-4.3-15,1.4-17.1
		c5.1-1.9,10.7,6.9,13,10.3c20.9,32.3,35.1,57.8,38.8,86.5C336,204.2,326.5,207.3,322.9,208.5z"/>
	<path class="st0" d="M276.7,59.2c-3.7-4-6.9-8.3-9.7-12.9c0,0-2.3,4.4-2,7c0.3,2.1,5.5,11.2,5.5,11.2l0,0
		c-25.3-14.1-45.4-21.2-48.4-21.9c-2.1-0.5-7.9,2.3-7.9,2.3s23.9,14.2,30.4,18.7c22,15,27.2,23.1,34,36.3c1.2,2.3,15.1-0.2,13-5.3
		c-0.7-1.8,0.5-12-1.3-14.7C283.3,69,277,59.5,276.7,59.2z"/>
	<path class="st0" d="M438,88.9c-8.4,18,0.9,28.2,3.8,37.4c4.7,14.5,2.5,44.5,4.3,59.3c0.9,7,5.5,23,16.7,22.5l0,0
		c14.4-1.3,14.9-18.8,14.8-25.5c-0.3-13.7,4-70.6-3.4-86.2c0,0-6.7-16.3-19.5-17.6C446.6,77.9,441.5,81.5,438,88.9z"/>
	<path class="st0" d="M459.2,208.1c10.6,3.5,15.8-6.2,19.1-15.1c2.3-6.4,18.7-70.4,23.4-87.8c2.6-9.8,4.3-15-1.4-17.1
		c-5.2-1.9-10.7,6.9-13,10.3c-20.9,32.3-35.1,57.8-38.8,86.5C446.1,203.8,455.6,206.9,459.2,208.1z"/>
	<path class="st0" d="M505.4,58.8c3.7-4,6.9-8.3,9.8-12.9c0,0,2.3,4.4,2,7c-0.3,2.1-5.5,11.2-5.5,11.2l0,0
		C536.9,50,557.1,42.9,560,42.2c2.1-0.5,8,2.3,8,2.3s-24,14.3-30.5,18.7c-22,15-27.2,23-34,36.3c-1.2,2.3-15.1-0.2-13-5.3
		c0.7-1.8-0.5-12,1.3-14.7C498.9,68.6,505.1,59,505.4,58.8z"/>
	<path class="st2" d="M315.1,81.6c0.1,0,17.4,27.7,20.8,104.3c0.8,17.1-4.5,87-4.5,87l122.4-5.8c0,0-9.1-65.8-8-84.9
		c4.3-73.8,19.3-101.8,19.3-101.8l-52.5-18.1l-9.3,27.1L384.9,91l-13.8-27.4L315.1,81.6L315.1,81.6"/>
</g>
</svg>
