<?xml version="1.0" encoding="utf-8"?>
<!-- Generator: Adobe Illustrator 26.0.1, SVG Export Plug-In . SVG Version: 6.00 Build 0)  -->
<svg version="1.1" id="Calque_1" xmlns="http://www.w3.org/2000/svg" xmlns:xlink="http://www.w3.org/1999/xlink" x="0px" y="0px"
	 viewBox="0 0 788 1005" style="enable-background:new 0 0 788 1005;" xml:space="preserve">
<style type="text/css">
	.st0{fill:#FD8C75;}
	.st1{fill:#F06130;}
	.st2{fill:#7C8E7B;}
	.st3{fill:#423632;}
</style>
<g id="Calque_10">
	<path class="st0" d="M421,339.2c0,19.8,12.9,25.2,19.5,32.2c10.5,11.1,21.4,39.3,29.4,51.9c3.8,5.9,14.9,18.5,24.9,13.3l0,0
		c12.6-7.3,5.6-23.3,2.5-29.4c-6.1-12.3-26.6-65.7-40.1-76.7c0,0-13.1-11.9-25.3-7.7C424.1,325.6,421,331.1,421,339.2L421,339.2z"/>
	<path class="st0" d="M394,418.6c-5.5-3.6-8-0.6-13.7,2.5c-9.8,5.4-15.8,23.7-26.7,26.2c-3.9,0.9-1-16.3-2-22.5
		c-1.5-9.3-9.2-26.3-20.1-35.6c-9.2-7.9-14.1-3.6-18.1-16.2c-7-22,6.1-38.6,16-42.5c15.2-5.9,37.1-5.1,43.5-14.2l0.9-27.7l0.7-20.2
		l18.3-0.8h2.2l18.3,0.8l0.7,20.2l0.9,27.7c6.4,9.1,36,3.7,48.3,14.4c2.6,2.3,15.8,17.4,43.5,91.1c4.7,12.4-41-40.5-50.3-32.6
		c-10.9,9.3-6.9,27.5-8.4,36.9c-1,6.2-9.9,22.2-13.7,21.3c-10.8-2.5-16.9-20.9-26.7-26.2C402,418,399.5,415,394,418.6"/>
	<path class="st1" d="M370.8,322c0,0,36.7,44.4,46.1,22.2l-3.5-75.9h-38.8L370.8,322z"/>
	<path class="st2" d="M444.1,500.2c6.5-28,27.4-164.6,19.2-169.5c-15.2-8.9-22.6-12.2-38-14.1c-11.1-1.4-18.7,28-28.8,28.9
		c-6.3,0.6-24-29.1-29.6-28c-14.4,2.7-28.5,7.1-41.8,13.2c-3.7,19.2,7.2,144.8,13.8,172.6"/>
	<path class="st0" d="M343.3,344.3c8.6,17.8-0.5,28.2-3.3,37.4c-4.5,14.5-1.9,44.6-3.4,59.4c-0.7,7-5.2,23.1-16.4,22.8l0,0
		c-14.4-1.1-15.2-18.5-15.1-25.3c0.1-13.7-0.8-73.7,6.4-89.4c0,0,2.2-13.2,14.9-14.7C334.5,333.4,339.7,337,343.3,344.3L343.3,344.3
		z"/>
	<path class="st0" d="M305.5,453.8c-0.4-16.5,5.2-26,12.4-29.4c10.3-4.9,76.1-0.6,93.8-3.7c10-1.8,15.3-3,16.9,2.9
		c1.5,5.3-7.8,10.1-11.5,12c-34.1,18-60.7,29.8-89.6,31C308.6,467.2,305.6,457.6,305.5,453.8z"/>
	<path class="st0" d="M456,421.2c4.3-3.3,8.9-6.2,13.7-8.6c0,0-4.2-2.7-6.8-2.6c-2.1,0.1-11.7,4.5-11.7,4.5l0,0
		c16.3-23.9,25.2-43.4,26.1-46.2c0.7-2-1.6-8.1-1.6-8.1s-16.3,22.6-21.3,28.6c-16.9,20.5-25.4,25.1-39.2,30.7
		c-2.4,1-1.1,15,4.1,13.4c1.8-0.6,11.9,1.5,14.8,0C445.6,426.8,455.7,421.4,456,421.2z"/>
	<rect x="334.9" y="476.8" class="st3" width="109.2" height="23.4"/>
	<path class="st0" d="M389.7,306l14.3-1l20.4,4.7l21.4,21.9c0,0,12.2,22.6,8.9,23.7c-5,1.8-17.9-11.3-21.4-12.6
		c-5.7-2.1-12.2-10.4-12.2-10.4l-13.5-0.6c0,0-9.9,4.6-10.5,4.6c-5.3,0.1-13.5-10.1-13.5-10.1l14.2-11.4l12.4,0.4l-7.3-3.9
		c0,0-7.4,1-8.2,0.6C393.1,311.3,389.7,306,389.7,306z"/>
	<path class="st0" d="M501.5,432.1c9.2-6.6,4.5-16.8-0.8-25c-3.8-5.8-45.8-58.7-57-73.2c-6.4-8.2-9.5-12.7-14.6-9.3
		c-4.6,3.1,4.3,15.5,6.1,19.2c19.7,39.6,20.1,62.3,41.1,83C490.1,440.3,498.4,434.4,501.5,432.1z"/>
	<path class="st2" d="M340,381.7c0,0-0.7-24.5-14.9-51l24.3-8.7l27.4,49L340,381.7z"/>
	<polygon class="st2" points="334.9,500.2 334.9,469.4 450.2,463.1 450.2,500.2 	"/>
</g>
</svg>
