<svg xmlns="http://www.w3.org/2000/svg" viewBox="0 0 788 354.46"><defs><style>.cls-1{fill:#d68f72;}.cls-2{fill:#bf673c;}.cls-3{fill:#92a331;}.cls-4{fill:#abc638;}</style></defs><g id="Calque_10" data-name="Calque 10"><path class="cls-1" d="M355,97c-4.3,21.53-18,24.69-25.91,30.89-12.62,9.84-29.26,38.16-39.71,50.2-4.93,5.67-18.47,17-27.07,9.21h0c-10.65-10.56-2.95-23.87,1.28-29.79,8.62-12,28.34-34.49,34.89-47.79,4.89-9.9,7.65-20.68,23.11-29.77,0,0,15.3-10.16,26.26-3,7,4.6,8.93,11.19,7.15,20.06Z"/><path class="cls-1" d="M285.21,172.07c-3.9-14.54-15.19-11.82-21.43-11C257.06,162,195,185.16,178,191c-9.6,3.32-14.8,4.83-13.37,10.71,1.3,5.34,11.73,5,15.83,4.92,38.51-.85,67.55-3.41,93.37-16.45C290.77,181.67,286.21,175.79,285.21,172.07Z"/><path class="cls-1" d="M138.15,191.25c-7.6,4.14-19.14,9.25-19.14,9.25s5.85,4.63,8.28,4.91c2,.23,10.47-4,10.47-4l8.08,2.61c-3.19,4.53-3.82,6.79-8,11.86-3.22,3.9-13.27,10-18.12,12-2.64,1.08-9,.86-11.22,2.57-1.58,1.22-2.91,7.09-2.91,7.09l15.09-.87s20.64-7.26,27.21-10.3c7-3.24,20.41-11.28,25.75-16.6,1.72-1.71,5-5.14,3.87-10.08-1-4.26-5.44-5.83-8.3-6.66C164.75,191.81,138.48,191.07,138.15,191.25Z"/><path class="cls-1" d="M433.05,102c4.3,21.53,18,24.69,25.91,30.89,12.62,9.84,29.26,38.16,39.71,50.2,4.93,5.67,18.47,17,27.07,9.21h0c10.65-10.56,3-23.87-1.28-29.79-8.62-12-28.34-34.49-34.89-47.79-4.89-9.9-7.65-20.68-23.11-29.77,0,0-15.3-10.16-26.26-3-7,4.6-8.93,11.19-7.15,20.06Z"/><path class="cls-1" d="M502.79,177.07c3.9-14.54,15.19-11.82,21.43-11C530.94,167,593,190.16,610,196c9.6,3.32,14.8,4.83,13.37,10.71-1.3,5.34-11.73,5-15.83,4.92-38.51-.85-67.55-3.41-93.37-16.45C497.23,186.67,501.79,180.79,502.79,177.07Z"/><path class="cls-1" d="M649.85,196.25c7.59,4.14,19.14,9.25,19.14,9.25s-5.85,4.63-8.28,4.91c-2,.23-10.47-4-10.47-4l-8.08,2.61c3.19,4.53,3.82,6.79,8,11.86,3.22,3.9,13.27,10,18.12,12,2.64,1.08,9,.86,11.22,2.57,1.58,1.22,2.91,7.09,2.91,7.09l-15.09-.87s-20.64-7.26-27.21-10.3c-7-3.24-20.41-11.28-25.75-16.6-1.72-1.71-5-5.14-3.87-10.08,1-4.26,5.44-5.83,8.3-6.66C623.25,196.81,649.52,196.07,649.85,196.25Z"/><path class="cls-1" d="M394,166.89c-5.48-3.58-8-.63-13.73,2.52-9.75,5.34-15.83,23.72-26.67,26.21-3.85.88-12.68-15.07-13.71-21.32-1.53-9.32,2.52-27.51-8.39-36.85-9.24-7.91-21.45-3.69-25.46-16.3-7-22,13.45-38.49,23.4-42.34,15.17-5.88,37.14-5.1,43.52-14.23l.94-27.71.69-20.18,18.32-.81h2.18l18.32.81.69,20.18L415,64.58c6.38,9.13,28.35,8.35,43.52,14.23,9.95,3.85,30.39,20.37,23.4,42.34-4,12.61-16.22,8.39-25.46,16.3-10.91,9.34-6.86,27.53-8.39,36.85-1,6.25-9.86,22.2-13.71,21.32-10.84-2.49-16.92-20.87-26.67-26.21-5.74-3.15-8.25-6.1-13.73-2.52"/><path class="cls-2" d="M373.51,64.89s31.77,11.4,41.17-10.81l-1.27-37.39H374.59Z"/><path class="cls-3" d="M324.39,284.62s10.65-53.36,10.46-59.94c-.14-5.05-7.26-87.53-7.26-87.53s137.73-8.63,131.37-4.31S449.89,206,449.89,206l7.77,76.56L394.93,300"/><path class="cls-4" d="M257.8,121.32c9.47-6.17,68.66-47.73,68.66-47.73l138.29.83,67.31,46.9s-66.91,34-106.73,39.09-66-1.07-77.43-1.58S257.8,121.32,257.8,121.32Z"/></g></svg>