<?xml version="1.0" encoding="utf-8"?>
<!-- Generator: Adobe Illustrator 26.0.1, SVG Export Plug-In . SVG Version: 6.00 Build 0)  -->
<svg version="1.1" id="Calque_1" xmlns="http://www.w3.org/2000/svg" xmlns:xlink="http://www.w3.org/1999/xlink" x="0px" y="0px"
	 viewBox="0 0 388 354.5" style="enable-background:new 0 0 388 354.5;" xml:space="preserve">
<style type="text/css">
	.st0{fill:#FD8C75;}
	.st1{fill:#BF673C;}
	.st2{fill:#92A331;}
	.st3{fill:#ABC638;}
</style>
<g id="Calque_10">
	<path class="st0" d="M155,97c-4.3,21.5-18,24.7-25.9,30.9c-12.6,9.8-29.3,38.2-39.7,50.2c-4.9,5.7-18.5,17-27.1,9.2l0,0
		c-10.6-10.6-3-23.9,1.3-29.8c8.6-12,28.3-34.5,34.9-47.8c4.9-9.9,7.6-20.7,23.1-29.8c0,0,15.3-10.2,26.3-3
		C154.8,81.6,156.8,88.1,155,97L155,97z"/>
	<path class="st0" d="M85.2,172.1c-3.9-14.5-15.2-11.8-21.4-11C57.1,162-5,185.2-22,191c-9.6,3.3-14.8,4.8-13.4,10.7
		c1.3,5.3,11.7,5,15.8,4.9c38.5-0.9,67.6-3.4,93.4-16.4C90.8,181.7,86.2,175.8,85.2,172.1z"/>
	<path class="st0" d="M-61.9,191.2c-7.6,4.1-19.1,9.2-19.1,9.2s5.8,4.6,8.3,4.9c2,0.2,10.5-4,10.5-4l8.1,2.6
		c-3.2,4.5-3.8,6.8-8,11.9c-3.2,3.9-13.3,10-18.1,12c-2.6,1.1-9,0.9-11.2,2.6c-1.6,1.2-2.9,7.1-2.9,7.1l15.1-0.9
		c0,0,20.6-7.3,27.2-10.3c7-3.2,20.4-11.3,25.8-16.6c1.7-1.7,5-5.1,3.9-10.1c-1-4.3-5.4-5.8-8.3-6.7
		C-35.2,191.8-61.5,191.1-61.9,191.2z"/>
	<path class="st0" d="M233,102c4.3,21.5,18,24.7,25.9,30.9c12.6,9.8,29.3,38.2,39.7,50.2c4.9,5.7,18.5,17,27.1,9.2l0,0
		c10.7-10.6,3-23.9-1.3-29.8c-8.6-12-28.3-34.5-34.9-47.8c-4.9-9.9-7.6-20.7-23.1-29.8c0,0-15.3-10.2-26.3-3
		C233.2,86.6,231.3,93.1,233,102L233,102z"/>
	<path class="st0" d="M302.8,177.1c3.9-14.5,15.2-11.8,21.4-11c6.7,0.9,68.8,24.1,85.8,29.9c9.6,3.3,14.8,4.8,13.4,10.7
		c-1.3,5.3-11.7,5-15.8,4.9c-38.5-0.9-67.5-3.4-93.4-16.4C297.2,186.7,301.8,180.8,302.8,177.1z"/>
	<path class="st0" d="M449.8,196.2c7.6,4.1,19.1,9.2,19.1,9.2s-5.8,4.6-8.3,4.9c-2,0.2-10.5-4-10.5-4l-8.1,2.6
		c3.2,4.5,3.8,6.8,8,11.9c3.2,3.9,13.3,10,18.1,12c2.6,1.1,9,0.9,11.2,2.6c1.6,1.2,2.9,7.1,2.9,7.1l-15.1-0.9
		c0,0-20.6-7.3-27.2-10.3c-7-3.2-20.4-11.3-25.8-16.6c-1.7-1.7-5-5.1-3.9-10.1c1-4.3,5.4-5.8,8.3-6.7
		C423.2,196.8,449.5,196.1,449.8,196.2z"/>
	<path class="st0" d="M194,166.9c-5.5-3.6-8-0.6-13.7,2.5c-9.8,5.3-15.8,23.7-26.7,26.2c-3.9,0.9-12.7-15.1-13.7-21.3
		c-1.5-9.3,2.5-27.5-8.4-36.9c-9.2-7.9-21.5-3.7-25.5-16.3c-7-22,13.5-38.5,23.4-42.3c15.2-5.9,37.1-5.1,43.5-14.2l0.9-27.7
		l0.7-20.2l18.3-0.8h2.2l18.3,0.8l0.7,20.2l0.9,27.7c6.4,9.1,28.4,8.3,43.5,14.2c10,3.8,30.4,20.4,23.4,42.3
		c-4,12.6-16.2,8.4-25.5,16.3c-10.9,9.3-6.9,27.5-8.4,36.8c-1,6.2-9.9,22.2-13.7,21.3c-10.8-2.5-16.9-20.9-26.7-26.2
		C201.9,166.3,199.4,163.3,194,166.9"/>
	<path class="st1" d="M173.5,64.9c0,0,31.8,11.4,41.2-10.8l-1.3-37.4h-38.8L173.5,64.9z"/>
	<path class="st2" d="M124.4,284.6c0,0,10.6-53.4,10.5-59.9c-0.1-5.1-7.3-87.5-7.3-87.5s137.7-8.6,131.4-4.3s-9.1,73.2-9.1,73.2
		l7.8,76.6L194.9,300"/>
	<path class="st3" d="M57.8,121.3c9.5-6.2,68.7-47.7,68.7-47.7l138.3,0.8l67.3,46.9c0,0-66.9,34-106.7,39.1s-66-1.1-77.4-1.6
		S57.8,121.3,57.8,121.3z"/>
</g>
</svg>
