<?xml version="1.0" encoding="utf-8"?>
<!-- Generator: Adobe Illustrator 26.0.1, SVG Export Plug-In . SVG Version: 6.00 Build 0)  -->
<svg version="1.1" id="Calque_1" xmlns="http://www.w3.org/2000/svg" xmlns:xlink="http://www.w3.org/1999/xlink" x="0px" y="0px"
	 viewBox="0 0 788 1005" style="enable-background:new 0 0 788 1005;" xml:space="preserve">
<style type="text/css">
	.st0{fill:#F06130;}
	.st1{fill:#FD8C75;}
	.st2{fill:#BDB15C;}
	.st3{fill:#AA9D5E;}
</style>
<g id="Calque_10">
	<path class="st0" d="M390.6,420.2c-5.5-3.6-8-0.6-13.7,2.5c-9.8,5.4-15.8,23.7-26.7,26.2c-3.9,0.9-12.7-15.1-13.7-21.3
		c-1.5-9.3,2.5-27.5-8.4-36.9c-9.2-7.9-21.5-3.7-25.5-16.3c-7-22,17.3-35.8,27.2-39.6c15.2-5.9,33.3-7.8,39.7-16.9l0.9-27.7
		l0.7-20.2l18.3-0.8h2.2L410,270l0.7,20.2l0.9,27.7c6.4,9.1,28.4,8.4,43.5,14.2c10,3.9,30.4,20.4,23.4,42.3
		c-4,12.6-16.2,8.4-25.5,16.3c-10.9,9.3-6.9,27.5-8.4,36.9c-1,6.2-9.9,22.2-13.7,21.3c-10.8-2.5-16.9-20.9-26.7-26.2
		C398.6,419.5,396.1,416.6,390.6,420.2"/>
	<path class="st0" d="M370.1,318.2c0,0,31.8,11.4,41.2-10.8L410,270h-38.8L370.1,318.2z"/>
	<path class="st1" d="M194.9,343.7c12.8,5.4,8.2-12.4,8.9-16.6c0.6-3.3-8.9-16.5-8.9-16.5L183.7,295c0,0-4.5-3.4-6.2-4.4
		s-13-8.6-13-8.6l-6.8-10.9l-4.1,7l3.6,7.6l7.6,8.7l-14.4,1.4l-4.9,9.5l8.7,24l19.3,3.1l9.5-2.8L194.9,343.7z"/>
	<path class="st2" d="M349.8,352.8c-4.3,21.5-18,24.7-25.9,30.9c-12.6,9.9-29.3,38.2-39.7,50.2c-4.9,5.7-18.5,17-27.1,9.2l0,0
		c-10.6-10.6-2.9-23.9,1.3-29.8c8.6-12,28.3-34.5,34.9-47.8c4.9-9.9,7.6-20.7,23.1-29.8c0,0,15.3-10.2,26.3-3
		C349.7,337.4,351.6,343.9,349.8,352.8L349.8,352.8z"/>
	<path class="st2" d="M368.6,305.7h43l0.3,11.1l60.7,18.9l35.2,70.4l8.2,28.5l-48.3,48.8l-14.7,5.1c-2.3-0.1-3.5-18.4-5.3-24.1
		c-0.5-1.7,30.3-35,27.3-39.1s-17.4-36.1-17.4-36.1s-7.1,33.5-6.5,35.8s6.1,73.7,6.1,73.7l-4.3,11.7c0,0,5,20.2,4.7,22.3
		c-0.5,2.5-127.8,0.3-127.3-3c1.9-11,5.5-25.4,5.5-25.4s-6.4-9.9-6.1-11.8c1.6-8.1,8.1-49.9,7.5-56.9s-8.2-49.8-9.7-46.4
		s-54.7,61.3-62.4,64.8s-77.6-105.4-77.7-101.8s2-6.3,2-6.3l-4.9-11.1l19.6-14.5l4.8,7.4c0.5,0.8,11.8,3.8,9.4,2.5
		c-1.7-0.9,52.8,66.4,52.8,66.4l36.1-59.9c0,0,62.5-16,61.2-20.7L368.6,305.7z"/>
	<path class="st2" d="M369.6,297.8h41.2c1.8,0,3.2,1.4,3.2,3.2v3.4c0,1.8-1.4,3.2-3.2,3.2h-41.2c-1.8,0-3.2-1.4-3.2-3.2v-3.4
		C366.4,299.3,367.8,297.8,369.6,297.8z"/>
	<polygon class="st3" points="453.7,453.9 453,488.5 467.6,483.3 462.3,445.8 	"/>
</g>
</svg>
