<?xml version="1.0" encoding="utf-8"?>
<!-- Generator: Adobe Illustrator 26.0.2, SVG Export Plug-In . SVG Version: 6.00 Build 0)  -->
<svg version="1.1" id="Calque_1" xmlns="http://www.w3.org/2000/svg" xmlns:xlink="http://www.w3.org/1999/xlink" x="0px" y="0px"
	 viewBox="0 0 388 581.4" style="enable-background:new 0 0 388 581.4;" xml:space="preserve">
<style type="text/css">
	.st0{fill:#9B8762;}
	.st1{fill:#944E31;}
	.st2{fill:#129E8E;}
	.st3{fill:#DDEDEB;}
	.st4{fill:none;stroke:#000000;stroke-width:3;stroke-miterlimit:10;}
	.st5{fill:#A37636;}
	.st6{fill:none;stroke:#DDEDEB;stroke-miterlimit:10;}
	.st7{fill:none;stroke:#927C54;stroke-miterlimit:10;}
	.st8{fill:#BAD6D2;}
</style>
<polygon points="28,115.1 28.1,115.1 28,115 "/>
<polygon points="28.1,115.1 28.2,115.1 28.2,115 "/>
<polygon points="28,115.1 28.1,115.1 28,115 "/>
<polygon points="28.1,115.1 28.2,115.1 28.2,115 "/>
<g>
	<polygon points="-51.7,107.4 -51.6,107.4 -51.7,107.3 	"/>
	<polygon points="-51.6,107.4 -51.5,107.4 -51.5,107.3 	"/>
	<polygon points="-51.7,107.4 -51.6,107.4 -51.7,107.3 	"/>
	<polygon points="-51.6,107.4 -51.5,107.4 -51.5,107.3 	"/>
	<path class="st0" d="M63.8,282.5c3.4,13.2,15.9,21.9,29.5,20.5l0,0c12.9-1.4,23.1-11.8,24.2-24.8c0,0,4.8-92.2,1.8-124.6
		c-0.7-7.7-5.6-30.4-5.6-30.4L102.5,65c0,0-6.6-19.2-32.4-19c-29.7,0.2-28.7,13.1-28.7,13.1s-5.9,85.5-2.7,112.4
		C41.5,196.2,63.8,282.5,63.8,282.5z"/>
	<path class="st1" d="M85.4,261.4c-14,2-21.3,10.3-22.1,22.2c0,0,1.6,56.7,3.9,78.7c3.6,35.2,18.6,101.6,28.9,135.4
		c2.2,7.4,7.8,29.9,7.8,29.9c1.7,6.7,8.3,11,15.1,9.8l0,0c6.7-1.1,11.5-7.1,11.1-13.9c0,0-1.9-26.6-2-35.5
		c-0.4-32.2,3.3-96.7,0.2-128.7c-1.8-19.3-12.7-77.7-12.7-77.7C111.6,262.2,97.3,260,85.4,261.4L85.4,261.4z"/>
	<path class="st2" d="M115.7,519.1L115.7,519.1c-6.2,0.1-11.7,3.7-14.4,9.2l0,0c-6,12.5-31.2,29.2-31.2,29.2
		c-4.5,3.5-6.7,9.2-5.7,14.8l0,0h61.3l3.5-1c4-1.2,6.5-5,6.1-9.1l-3.4-30.5C130.2,524.2,123.5,519,115.7,519.1z"/>
	<path class="st3" d="M66.2,572.1L66.2,572.1c-0.8-5,2.6-9.7,7.6-10.5H74l36.5-5.3c4.7-0.6,9,2.3,10.2,6.9l2,8.6L66.2,572.1z"/>
	<path class="st4" d="M153.6,23.6c15.6,3.7,22.5,6.7,26.2,11.6c3,4,5.8,12.9,6.1,17.4c0.5,10.6-4.4,49.7-18.8,61.1
		c-14.6,11.6-86.2,11.6-100.8,0c-14.4-11.4-19.7-50.5-19.1-61.1c0.2-4.5,3-13.5,6.1-17.4c3.8-4.9,10.6-7.9,26.2-11.6
		c17.9-4.2,36.2-3.6,36.2-3.6S135.8,19.5,153.6,23.6z"/>
	<path class="st1" d="M171.2,278.7c-34.4,3.3-34.7,54.1-34.7,54.1c-2.9,4.9-30.8-64.6-26.6-64.8c0,0,52.6-5.3,65.5-9.6
		C184.5,255.4,191.4,276.9,171.2,278.7z"/>
	<path class="st2" d="M158,274.8c3,6.1,7.6,5.1,10.6,7.3c1.7,1.3,4.3,7.5,2.3,8.7c-21.4,13.7-27.6,66.3-27.6,66.3
		c-3.2,5.9-8.3,7.8-14,7.5l0,0c0,0-15.1-42.9-7.5-68.5c1.5-5.1-4.3-8.6-4.3-8.6s-6.7-22.2,0.3-21.7l42.7-8.1
		C168.3,258.4,152.8,264.3,158,274.8z"/>
	<path class="st3" d="M120.1,333.2c9.1-0.3,14.2-6.2,13.7-7.9c-0.6-2.4-3.3-6.3-4.1-8.6c-1.2-3.9-1.8-16.2-1.8-16.2
		c-0.1-3.2-3.6-5.3-7.9-5l-8.7,0.9c0,0,0,7.5,4.8,24.6C117.1,323.8,120.1,333.2,120.1,333.2z"/>
	<polygon class="st5" points="39.6,71.3 41,53.5 186.1,46.8 185.1,68.7 	"/>
	<path class="st6" d="M98.5,537.9c0,0,4.9-3.4,9-3.4c5.2,0,10.2,3.3,10.2,3.3"/>
	<path class="st6" d="M153.6,304.8c0,0-2.7-4.9-3.4-8.8"/>
	<path class="st6" d="M149.4,311.1c0,0-3-4.7-4-8.5"/>
	<polygon class="st7" points="115.2,117.8 110.2,70.1 124.8,70.1 124.4,110 	"/>
	<path class="st8" d="M33.2,122.7c0,0,58.9-11,150.9-14.4c70.8-2.6,182.5,35.2,192,47.3c9.5,12.1,16.1,39.8,6.9,44.9
		c-30.8,17.4-85.1,82.5-112.2,94.9c-67,30.6-78.2-15.2-86.5-12c-4.8,1.8-9.3,4.4-13.4,7.4l-10.4-33.2c0,0,7.1-11.4,18.3-10.7
		c1,0.1,5.5-8.4,19.6-29.6c9.6-14.3,39.4-11.8,49.7-11.8c0,0-61,33-137.8-10.6C70,172.3,33.2,122.7,33.2,122.7z"/>
	<path class="st8" d="M44.2,46c-1.2,1.8-13.1,72.5-14,123c-0.9,50.5-21,228.9,5.4,261.7s60.1,67,60.1,67l4.3,20
		c8.7-3.8,30.2-6.5,30.2-6.5l-1.8-15.9c4.7-7.9,30.4-74,25.5-106.7c-4.9-32.7-16.2-17.9-23.6-58.5c-7.4-40.6-4.8-98-4.8-98
		c17.8-25.4,16.4-66.9,25.1-88.4s-0.7-100.1-8.5-99.6C134.1,44.6,50.8,36.3,44.2,46z"/>
	<path class="st8" d="M40.7,94.6c-1.3-2.4-1.1-24.2-1.1-24.2s-0.7-20.7,4.5-31.8s37.6-22.7,80.8-20.4s52.4,10.3,59.8,18
		c7.3,7.8,10.9,80.7,8.8,81.7S43.7,109.1,40.8,97.2"/>
</g>
</svg>
