<?xml version="1.0" encoding="utf-8"?>
<!-- Generator: Adobe Illustrator 26.0.2, SVG Export Plug-In . SVG Version: 6.00 Build 0)  -->
<svg version="1.1" id="Calque_1" xmlns="http://www.w3.org/2000/svg" xmlns:xlink="http://www.w3.org/1999/xlink" x="0px" y="0px"
	 viewBox="0 0 788 1005" style="enable-background:new 0 0 788 1005;" xml:space="preserve">
<style type="text/css">
	.st0{fill:#913323;}
	.st1{fill:#944E31;}
	.st2{fill:#FFD7D7;stroke:#893024;stroke-width:0.5;stroke-miterlimit:10;}
	.st3{fill:#893024;}
	.st4{fill:none;stroke:#893124;stroke-miterlimit:10;}
</style>
<g id="Calque_1_00000000915634752664794440000014261876144632733597_">
	<path class="st0" d="M434.8,409c17.3,5.6,24.8,10.2,28.9,17.6c3.3,6,6.5,19.7,6.7,26.5c0.6,16-8.3,56.4-23.4,69.8
		c14.1-12.5-130.5-21.8-105.9,0c-15.1-13.5-24-53.7-23.4-69.8c0.3-6.8-0.2-8.6,0.3-15.4c1.4-16.8,18-23.2,35.2-28.8
		c19.7-6.4,39.8-5.4,39.8-5.4S415,402.6,434.8,409z"/>
</g>
<path class="st1" d="M337.1,629.9c-13.9-0.2-22.3,6.7-24.9,18.2c0,0-7.1,55.4-8.3,77c-1.9,34.7,2.5,101.6,7.2,136
	c1,7.5,3,30.3,3,30.3c0.7,6.8,6.4,11.9,13.2,11.8l0,0c6.7-0.1,12.2-5.2,12.9-11.8c0,0,2.2-26.1,3.5-34.8c4.6-31.3,18-93.5,20-125.2
	c1.2-19-0.4-77.5-0.4-77.5C362.5,634.7,349,630.5,337.1,629.9L337.1,629.9z"/>
<path class="st2" d="M326.6,883.3L326.6,883.3c-6.1,0.1-11.5,3.7-14.1,9.2l0,0c-5.9,12.3-30.6,28.9-30.6,28.9
	c-4.4,3.5-6.6,9.1-5.5,14.6l0,0l60.3-0.3l3.4-1c3.9-1.2,6.4-5,6-9l-3.5-30C340.9,888.3,334.2,883.1,326.6,883.3z"/>
<path class="st3" d="M278.1,935.7L278.1,935.7c-0.8-4.9,2.5-9.5,7.4-10.3h0.1l35.8-5.4c4.6-0.7,9,2.2,10.1,6.8l2.1,8.5L278.1,935.7z
	"/>
<path class="st1" d="M452.9,629.9c12.4-0.2,19.9,6.7,22.2,18.2c0,0,14.4,53.4,15.5,75c1.7,34.7-10.2,103.6-14.5,138
	c-0.9,7.5-2.7,30.3-2.7,30.3c-0.6,6.8-5.7,11.9-11.8,11.8l0,0c-6-0.1-10.9-5.2-11.5-11.8c0,0-2-26.1-3.1-34.8
	c-4.1-31.3-16.1-93.5-17.9-125.2c-1.1-19,0.4-77.5,0.4-77.5C430.2,634.7,442.3,630.5,452.9,629.9L452.9,629.9z"/>
<path class="st1" d="M475.9,879.5c-1.2,34,40.1,38.4,40.1,38.4c4.4,3.5-67,21.8-66.6,17.8c0,0,1.5-52-1-65.2
	C446.6,861.2,476.6,859.5,475.9,879.5z"/>
<path class="st2" d="M463.1,898.3c6.4-2.2,5.9-6.8,8.5-9.4c1.5-1.5,7.9-3.2,8.8-1.2c10.7,22.7,61.2,35.4,61.2,35.4
	c5.3,3.8,6.6,9.1,5.5,14.6l0,0c0,0-43.8,9.4-67.8-1.3c-4.8-2.1-9,3.1-9,3.1s-22.4,3.7-21.1-3.1l-2.5-42.7
	C448.3,886.3,452.1,902.1,463.1,898.3z"/>
<path class="st3" d="M547.5,938.2c0.8-9-4.3-14.7-6-14.4c-2.5,0.3-6.5,2.4-9,2.8c-4,0.7-16-0.3-16-0.3c-3.1-0.3-5.6,2.8-5.9,7.1
	l-0.2,8.6c0,0,7.3,1,24.6-1.6C538.1,940,547.5,938.2,547.5,938.2z"/>
<path class="st0" d="M320.2,432l-2.1,19.1l-30.7,380.3l-7.9,20.7c-1.7,4.5-1,9.5,1.8,13.3l3,4.2c-1.1,14.3,9.7,26.8,24.1,27.9
	c1,0.1,2,0.1,3,0l3.7-0.2l14.2-0.2c15.6-0.3,28.3-12.6,29.1-28.2l11.1-126c0,0,8.8-76.5,11.6-96c4.1-28.4,11.1-143,11.1-143
	l5.6-72.8L320.2,432z"/>
<path class="st0" d="M389.1,443.1l-2.2,63.1c0,0.6,0.4,1.1,1,1.2l3.9,0.5c0.5,0.1,1,0.5,1,1.1L427,867c0.7,18.6,16.3,33.1,34.9,32.4
	c3.1-0.1,6.3-0.7,9.2-1.7l10.8-3.5c15.1-5,24.7-19.8,22.9-35.6c0-0.2,0-0.3,0.1-0.5l2.4-7.1c1.2-3.6,1.1-7.6-0.3-11.1l-6.1-15.1
	c0-0.1-0.1-0.2-0.1-0.4L492,695l-23.5-241.9c-0.1-0.5-0.5-1-1-1l-72.5-9.7l-4.7-0.4C389.7,441.9,389.1,442.5,389.1,443.1z"/>
<path class="st4" d="M309.6,901.9c0,0,4.7-3.4,8.9-3.3c5.1,0,10,3.1,10,3.1"/>
<path class="st4" d="M490.8,897.6c0,0-5.1,2.1-9,2.2"/>
<path class="st4" d="M496.5,902.6c0,0-5,2.4-8.9,2.7"/>
<path class="st3" d="M292.8,697l-3.5,53c-0.1,1.6,1.2,2.9,2.7,2.9h16.5c1.5,0,2.7-1.1,2.7-2.6l2.9-50.1c0.1-1.4-0.9-2.6-2.3-2.9
	l-15.9-2.9C294.4,694.2,292.9,695.4,292.8,697z"/>
<path class="st3" d="M302.8,523.2l-4.7,71c-0.1,1.6,1.2,2.9,2.7,2.9h23.3c1.5,0,2.7-1.1,2.7-2.6l3.9-66.9c0.1-1.4-0.9-2.6-2.3-2.9
	l-22.5-4.1C304.4,520.4,302.9,521.6,302.8,523.2z"/>
<path class="st3" d="M493.9,599.7l4.7,71c0.1,1.6-1.2,2.9-2.7,2.9h-23.3c-1.5,0-2.7-1.1-2.7-2.6l-3.9-66.9c-0.1-1.4,0.9-2.6,2.3-2.9
	l22.5-4.1C492.2,596.9,493.8,598.1,493.9,599.7z"/>
</svg>
