<?xml version="1.0" encoding="utf-8"?>
<!-- Generator: Adobe Illustrator 26.0.2, SVG Export Plug-In . SVG Version: 6.00 Build 0)  -->
<svg version="1.1" id="Calque_1" xmlns="http://www.w3.org/2000/svg" xmlns:xlink="http://www.w3.org/1999/xlink" x="0px" y="0px"
	 viewBox="0 0 788 1005" style="enable-background:new 0 0 788 1005;" xml:space="preserve">
<style type="text/css">
	.st0{fill:none;}
	.st1{fill:#944E31;}
	.st2{fill:#333333;}
	.st3{fill:#DBDBDB;}
	.st4{fill:none;stroke:#DBDBDB;stroke-width:2;stroke-linecap:round;stroke-miterlimit:10;}
</style>
<path class="st0" d="M434.4,404.3c15.6,5,22.4,9.3,26.1,16c3,5.4,5.8,17.8,6.1,24c0.5,14.5-7.5,51-21.2,63.2
	c60.5-53.8-175.3-70.7-95.9,0c-13.7-12.2-21.7-48.6-21.2-63.2c0.2-6.2,3.1-18.6,6.1-24c3.7-6.7,10.5-10.9,26.1-16
	c17.9-5.8,36-4.8,36-4.8S416.6,398.6,434.4,404.3z"/>
<polygon points="232.1,486.8 232.2,486.7 232.1,486.7 "/>
<polygon points="232.2,486.7 232.3,486.8 232.3,486.7 "/>
<polygon points="232.1,486.8 232.2,486.7 232.1,486.7 "/>
<polygon points="232.2,486.7 232.3,486.8 232.3,486.7 "/>
<path class="st1" d="M340.7,634.7c-13.5-0.2-21.6,6.5-24,17.5c0,0-10,59.9-11.2,81.6c-1.9,34.7,2.5,101.6,7.2,136
	c1,7.5,3,30.3,3,30.3c0.7,6.8,6.4,11.9,13.2,11.8l0,0c6.7-0.1,12.2-5.2,12.9-11.8c0,0,2.2-26.1,3.5-34.8c4.6-31.3,18-93.5,20-125.1
	c1.2-19,0.7-82.3,0.7-82.3C365.2,639.4,352.1,635.3,340.7,634.7z"/>
<path class="st2" d="M328.1,892.1L328.1,892.1c-6.1,0.1-11.5,3.7-14.1,9.2l0,0c-5.9,12.4-30.5,28.9-30.5,28.9
	c-4.4,3.5-6.6,9.1-5.5,14.6l0,0l60.3-0.3l3.4-1c3.9-1.2,6.4-5,6-9l-3.5-30C342.4,897,335.7,891.8,328.1,892.1z"/>
<path class="st3" d="M433.4,403.7c16.1,5,23.1,9.3,26.9,15.9c3.1,5.4,6,17.8,6.3,24c0.5,14.5-7.7,51-21.9,63.2
	c62.4-53.8-180.7-70.7-98.8,0c-14.1-12.2-22.4-48.6-21.9-63.2c0.2-6.2,3.2-18.6,6.3-24c3.8-6.7,10.8-10.9,26.9-15.9
	c18.5-5.8,37.1-4.8,37.1-4.8S415,397.9,433.4,403.7z"/>
<path class="st3" d="M474.9,651.4c-1.1,12.9-11.6,22.9-24.6,23.5l0,0c-12.4,0.6-23.4-7.6-26.4-19.6c0,0-25.3-141.5-27.4-172.3
	c-0.5-7.6,11.1-24.4,11.1-24.4s-2.7-21.6,28.3-27.9c27.7-5.6,30.7,11.3,30.7,11.3s14.4,75,15.5,100.6
	C483,566.3,474.9,651.4,474.9,651.4z"/>
<path class="st1" d="M452.6,634.7c12-0.2,19.3,6.5,21.5,17.5c0,0,17,57.9,18.1,79.6c1.7,34.7-10.3,103.6-14.5,138
	c-0.9,7.5-2.7,30.3-2.7,30.3c-0.6,6.8-5.7,11.9-11.8,11.8l0,0c-6-0.1-10.9-5.2-11.5-11.8c0,0-2-26.1-3.1-34.8
	c-4-31.3-16-93.5-17.9-125.1c-1.1-19-0.7-82.3-0.7-82.3C430.7,639.4,442.3,635.3,452.6,634.7L452.6,634.7z"/>
<path class="st1" d="M477.4,888.2c-1.2,34,40.1,38.4,40.1,38.4c4.4,3.5-67,21.8-66.6,17.8c0,0,1.5-52-1-65.2
	C448.1,869.9,478.1,868.2,477.4,888.2z"/>
<path class="st2" d="M464.6,907.1c6.4-2.2,5.9-6.8,8.5-9.4c1.5-1.5,7.9-3.2,8.8-1.2c10.7,22.7,61.2,35.4,61.2,35.4
	c5.4,3.8,6.6,9.1,5.5,14.6l0,0c0,0-43.8,9.4-67.8-1.3c-4.8-2.2-9,3.1-9,3.1s-22.4,3.7-21.2-3.1l-2.5-42.7
	C449.8,895,453.6,910.8,464.6,907.1z"/>
<path class="st3" d="M324.1,443.5l-47.6,461.2c4.3,6.6,95.1-1.5,95.3-3.6L399.2,483l17.8-37.3L324.1,443.5z"/>
<path class="st3" d="M400,421.4l-5.6,41.3l20.3,447.1c0.2,2.9,102.4,0.5,102.4-11.3l-36.1-369l-74.9-107.7L400,421.4z"/>
<path class="st4" d="M311.2,911.6c0,0,4.7-3.4,8.9-3.3c5.1,0,10,3.1,10,3.1"/>
<path class="st4" d="M492.3,907.3c0,0-5.1,2.1-9,2.2"/>
<path class="st4" d="M498,912.3c0,0-5,2.4-8.9,2.7"/>
<path class="st0" d="M433.4,396.5c15.6,5,22.4,9.3,26.1,15.9c3,5.4,5.8,17.8,6.1,24c0.5,14.5-7.5,51-21.2,63.2
	c60.5-53.8-175.4-70.7-95.9,0c-13.7-12.2-21.7-48.6-21.2-63.2c0.2-6.2,3.1-18.6,6.1-24c3.7-6.7,10.5-10.9,26.1-15.9
	c17.9-5.8,36-4.8,36-4.8S415.6,390.8,433.4,396.5z"/>
<polygon points="231.1,478.7 231.2,478.6 231.1,478.6 "/>
<polygon points="231.2,478.6 231.3,478.7 231.3,478.6 "/>
<polygon points="231.1,478.7 231.2,478.6 231.1,478.6 "/>
<polygon points="231.2,478.6 231.3,478.7 231.3,478.6 "/>
</svg>
