<?xml version="1.0" encoding="utf-8"?>
<!-- Generator: Adobe Illustrator 26.0.3, SVG Export Plug-In . SVG Version: 6.00 Build 0)  -->
<svg version="1.1" id="Layer_1" xmlns="http://www.w3.org/2000/svg" xmlns:xlink="http://www.w3.org/1999/xlink" x="0px" y="0px"
	 viewBox="0 0 788 1005.1" style="enable-background:new 0 0 788 1005.1;" xml:space="preserve">
<style type="text/css">
	.st0{clip-path:url(#SVGID_00000025413108804605286730000009622842367708906134_);}
	.st1{fill:#7F4C36;}
	.st2{clip-path:url(#SVGID_00000074438988683601973470000006621516064585332105_);}
	.st3{fill:none;}
	.st4{fill:#90573A;}
	.st5{fill:#72172A;}
	.st6{fill:#3D3D39;}
</style>
<g id="_Repetition_miroir_">
	<g>
		<g>
			<g>
				<g>
					<g>
						<defs>
							<polygon id="SVGID_1_" points="408.6,157.7 408.6,157.7 426.5,157.7 426.5,190.9 408.6,190.9 							"/>
						</defs>
						<clipPath id="SVGID_00000111183634832576749770000009494249148249877683_">
							<use xlink:href="#SVGID_1_"  style="overflow:visible;"/>
						</clipPath>
						<g style="clip-path:url(#SVGID_00000111183634832576749770000009494249148249877683_);">
							<path class="st1" d="M417.3,190.7c4.5-2.1,7-13.2,8.4-18c1-3.6,1.4-12.7-1.7-14.7c-2.7-1.8-12.4,3.8-12.4,3.8l-1,13.2
								l-2.1,14C408.6,189,415.3,191.7,417.3,190.7z"/>
						</g>
					</g>
				</g>
			</g>
		</g>
	</g>
</g>
<g id="_Repetition_miroir_2">
	<g>
		<g>
			<g>
				<g>
					<g>
						<defs>
							<polygon id="SVGID_00000175281603976929319140000012602029680782039434_" points="338.2,157.7 338.2,157.7 320.3,157.7 
								320.3,190.9 338.2,190.9 							"/>
						</defs>
						<clipPath id="SVGID_00000156576017360551394800000013457030545386874787_">
							<use xlink:href="#SVGID_00000175281603976929319140000012602029680782039434_"  style="overflow:visible;"/>
						</clipPath>
						<g style="clip-path:url(#SVGID_00000156576017360551394800000013457030545386874787_);">
							<path class="st1" d="M329.5,190.7c-4.5-2.1-7-13.2-8.4-18c-1-3.6-1.4-12.7,1.7-14.7c2.7-1.8,12.4,3.8,12.4,3.8l1,13.2l2.1,14
								C338.2,189,331.5,191.7,329.5,190.7z"/>
						</g>
					</g>
				</g>
			</g>
		</g>
	</g>
</g>
<rect x="373" y="113.8" class="st3" width="41.7" height="112.3"/>
<path class="st4" d="M413.7,148.9c-1.2-6.9-5.8-19.5-10.8-24.4c-5.8-5.7-17-9.4-26.3-10.4v-0.3c-1.1,0-2.2,0-3.3,0
	c-0.5,0-1.1,0-1.6,0v0.1c-10.6,0.8-22.3,4.7-28.3,10.5c-5,4.9-9.6,17.5-10.8,24.4c-1.8,10.2,3.5,42.1,6.8,51.9
	c7.7,23.2,16.4,18.2,23.1,23.1c2.6,1.9,10.7,1.7,10.7,1.7s8.1,0.1,10.7-1.7c8-5.6,14.8-0.9,23.1-23.1
	C410.5,191,415.5,159.1,413.7,148.9z"/>
<rect x="331.4" y="113.8" class="st3" width="41.7" height="112.3"/>
<path class="st5" d="M332.4,165.1c-11.4-26.6-5.6-48.6,15.5-61.2c14.2-8.6,31-8.6,46-7.4c19.9,1.6,28.8,18.2,33.4,36.6
	c4.2,16.6,5.7,32.3-8.8,45.4c-6.1,5.5-12,11.9,0,18.2c-5,4-9.3,3.6-13.1-0.3c-3.4-3.5-2.9-7.7-1.5-12.1c6.3-19.5,18.2-32.7,0.7-44.1
	c-7-4.5-24.3-1-28-8.2c-5.3-10.5-13.7-7.5-20.6-2.6c-6.1,4.3-14.5,6.1-17.9,12.7C335.1,148.2,335.8,158.1,332.4,165.1z"/>
<circle class="st6" cx="331.4" cy="190.9" r="4.8"/>
<circle class="st6" cx="331.4" cy="199.8" r="3.4"/>
<circle class="st6" cx="331.4" cy="206.4" r="2.5"/>
</svg>
