<?xml version="1.0" encoding="utf-8"?>
<!-- Generator: Adobe Illustrator 26.0.3, SVG Export Plug-In . SVG Version: 6.00 Build 0)  -->
<svg version="1.1" id="Layer_1" xmlns="http://www.w3.org/2000/svg" xmlns:xlink="http://www.w3.org/1999/xlink" x="0px" y="0px"
	 viewBox="0 0 788 1005.1" style="enable-background:new 0 0 788 1005.1;" xml:space="preserve">
<style type="text/css">
	.st0{clip-path:url(#SVGID_00000170958063367447701430000011515625985758451083_);}
	.st1{fill:#7F4C36;}
	.st2{clip-path:url(#SVGID_00000162342918320668531710000000652638341878893722_);}
	.st3{fill:none;}
	.st4{fill:#90573A;}
	.st5{fill:#72172A;}
	.st6{fill:#E8D66D;}
</style>
<g id="_Repetition_miroir_">
	<g>
		<g>
			<g>
				<g>
					<defs>
						<polygon id="SVGID_1_" points="408,157.8 408,157.8 425.7,157.8 425.7,190.8 408,190.8 						"/>
					</defs>
					<clipPath id="SVGID_00000101080467784464707660000008015225810874829446_">
						<use xlink:href="#SVGID_1_"  style="overflow:visible;"/>
					</clipPath>
					<g style="clip-path:url(#SVGID_00000101080467784464707660000008015225810874829446_);">
						<path class="st1" d="M416.6,190.6c4.5-2.1,7-13.1,8.3-17.9c1-3.5,1.4-12.6-1.6-14.6c-2.7-1.8-12.3,3.8-12.3,3.8l-0.9,13.1
							l-2.1,13.8C408,188.9,414.6,191.6,416.6,190.6z"/>
					</g>
				</g>
			</g>
		</g>
	</g>
</g>
<g id="_Repetition_miroir_2">
	<g>
		<g>
			<g>
				<g>
					<defs>
						<polygon id="SVGID_00000168809118954685869020000013899010722763241609_" points="338.1,157.8 338.1,157.8 320.3,157.8 
							320.3,190.8 338.1,190.8 						"/>
					</defs>
					<clipPath id="SVGID_00000070090236762998598530000007267959054762962055_">
						<use xlink:href="#SVGID_00000168809118954685869020000013899010722763241609_"  style="overflow:visible;"/>
					</clipPath>
					<g style="clip-path:url(#SVGID_00000070090236762998598530000007267959054762962055_);">
						<path class="st1" d="M329.4,190.6c-4.5-2.1-7-13.1-8.3-17.9c-1-3.5-1.4-12.6,1.7-14.6c2.7-1.8,12.3,3.8,12.3,3.8l1,13.1
							l2.1,13.9C338.1,188.9,331.4,191.6,329.4,190.6z"/>
					</g>
				</g>
			</g>
		</g>
	</g>
</g>
<rect x="373" y="113.8" class="st3" width="41.7" height="112.3"/>
<path class="st4" d="M413.7,148.9c-1.2-6.9-5.8-19.5-10.8-24.4c-5.8-5.7-17-9.4-26.3-10.4v-0.3c-1.1,0-2.2,0-3.3,0
	c-0.5,0-1.1,0-1.6,0v0.1c-10.6,0.8-22.3,4.7-28.3,10.5c-5,4.9-9.6,17.5-10.8,24.4c-1.8,10.2,3.5,42.1,6.8,51.9
	c7.7,23.2,16.4,18.2,23.1,23.1c2.6,1.9,10.7,1.7,10.7,1.7s8.1,0.1,10.7-1.7c8-5.6,14.8-0.9,23.1-23.1
	C410.5,191,415.5,159.1,413.7,148.9z"/>
<rect x="331.4" y="113.8" class="st3" width="41.7" height="112.3"/>
<path class="st5" d="M411.3,168.1c-1.5-0.6-2.1-11.1-3.9-19.6c-4.1-19.2-41.4-14.5-44.6-15.3c-4.4-1-6.9-2.1-8.3-3.1
	c-0.7,6.6-4.6,10.8-8.5,15.3c-5.1,5.9-10.1,12.3-7.5,25.2c0.3,1.5,5,11.9,6.9,22.7c1.5,8.3,1.4,9.9,0.6,11.4s-3.7,7.7-13.2,9
	c15.4-36.3-41.3-31.6-31.6-63c3.3-10.8,14.7-22.1,23-29.1c2.8-2.5,5.9-4.8,9-6.9c0,0-8-10.2,5.9-20.8c0.6-0.4,1.3-0.9,2-1.3
	c8.6-5.2,18.8-7.3,28.8-6.2c20.2,2.2,53.1,12,53,52C430.6,160.4,412.7,168.7,411.3,168.1z"/>
<path class="st6" d="M417.1,185.8h-1.2c-0.8,0-1.6,0.5-1.9,1.3l-1.2,3.2c-0.2,0.5-0.2,1,0,1.4l1.2,3.2c0.3,0.8,1.1,1.3,1.9,1.3h1.2
	c0.8,0,1.6-0.5,1.9-1.3l1.2-3.2c0.2-0.5,0.2-1,0-1.4l-1.2-3.2C418.7,186.4,417.9,185.8,417.1,185.8z"/>
</svg>
