<?xml version="1.0" encoding="utf-8"?>
<!-- Generator: Adobe Illustrator 26.0.3, SVG Export Plug-In . SVG Version: 6.00 Build 0)  -->
<svg version="1.1" id="Layer_1" xmlns="http://www.w3.org/2000/svg" xmlns:xlink="http://www.w3.org/1999/xlink" x="0px" y="0px"
	 viewBox="0 0 198 187.6" style="enable-background:new 0 0 198 187.6;" xml:space="preserve">
<style type="text/css">
	.st0{fill:#72172A;}
	.st1{clip-path:url(#SVGID_00000148650213369878802650000002522589733344969383_);}
	.st2{fill:#7F4C36;}
	.st3{clip-path:url(#SVGID_00000023994293829979063520000010563262725851781006_);}
	.st4{fill:none;}
	.st5{fill:#90573A;}
	.st6{fill:#353535;}
</style>
<path class="st0" d="M141.8,106.7c-12.1,6.5-12.8-24.2-13.8-25.9c-3-1.2-7,1.4-10.2,0.5c-7.4-1.9-28.7,1.2-31.9,3.3
	c-0.8,0.5,13.1,16,12.3,16.6c-7.3,5.6-17.1,29.2-16.7,40.1c0.6,16.7-24-19.4-36.7-39.1C39.8,94.6,31.6,70.6,34,61.9
	c7.7-28,28.3-43.2,59.2-36.1c12.1,2.8,8,5,11.9,3.8c13-4,67.7-2.2,41.1,63.5C143.5,100.1,143.3,103.5,141.8,106.7z"/>
<g id="_Repetition_miroir_">
	<g>
		<g>
			<g>
				<g>
					<defs>
						<polygon id="SVGID_1_" points="131.6,100.9 131.6,100.9 149.5,100.9 149.5,134.1 131.6,134.1 						"/>
					</defs>
					<clipPath id="SVGID_00000064340440428673195590000001966094413957715638_">
						<use xlink:href="#SVGID_1_"  style="overflow:visible;"/>
					</clipPath>
					<g style="clip-path:url(#SVGID_00000064340440428673195590000001966094413957715638_);">
						<path class="st2" d="M140.3,133.9c4.5-2.1,7-13.2,8.4-18c1-3.6,1.4-12.7-1.7-14.7c-2.7-1.8-12.4,3.8-12.4,3.8l-1,13.2l-2.1,14
							C131.6,132.2,138.3,134.9,140.3,133.9z"/>
					</g>
				</g>
			</g>
		</g>
	</g>
</g>
<g id="_Repetition_miroir_2">
	<g>
		<g>
			<g>
				<g>
					<defs>
						<polygon id="SVGID_00000106858776271004373870000003486434117667343794_" points="61.2,100.9 61.2,100.9 43.3,100.9 
							43.3,134.1 61.2,134.1 						"/>
					</defs>
					<clipPath id="SVGID_00000062885434724626432810000000489489938664279952_">
						<use xlink:href="#SVGID_00000106858776271004373870000003486434117667343794_"  style="overflow:visible;"/>
					</clipPath>
					<g style="clip-path:url(#SVGID_00000062885434724626432810000000489489938664279952_);">
						<path class="st2" d="M52.5,133.9c-4.5-2.1-7-13.2-8.4-18c-1-3.6-1.4-12.7,1.7-14.7c2.7-1.8,12.4,3.8,12.4,3.8l1,13.2l2.1,14
							C61.2,132.2,54.5,134.9,52.5,133.9z"/>
					</g>
				</g>
			</g>
		</g>
	</g>
</g>
<rect x="96" y="57" class="st4" width="41.7" height="112.3"/>
<path class="st5" d="M136.7,92.1c-1.2-6.9-5.8-19.5-10.8-24.4c-5.8-5.7-17-9.4-26.3-10.4V57c-1.1,0-2.2,0-3.3,0c-0.5,0-1.1,0-1.6,0
	v0.1c-10.6,0.8-22.3,4.7-28.3,10.5c-5,4.9-9.6,17.5-10.8,24.4c-1.8,10.2,3.5,42.1,6.8,51.9c7.7,23.2,16.4,18.2,23.1,23.1
	c2.6,1.9,10.7,1.7,10.7,1.7s8.1,0.1,10.7-1.7c8-5.6,14.8-0.9,23.1-23.1C133.5,134.2,138.5,102.3,136.7,92.1z"/>
<rect x="54.4" y="57" class="st4" width="41.7" height="112.3"/>
<path class="st0" d="M54.4,101.7c-0.3-4.2,7.7-31.4,11.7-30.5c11.8,2.7,28.9,4.4,30,4.5c1.9,0.1,18.8-0.8,30.6-4.5
	c5.4-1.7,10.3,31.9,10.3,31.9l6.5-2.3l1.7-49.4l-94.3,0.8L54.4,101.7z"/>
<ellipse class="st6" cx="52.6" cy="134.7" rx="1.8" ry="6.7"/>
<ellipse class="st6" cx="139.5" cy="134.7" rx="1.8" ry="6.7"/>
<path class="st6" d="M56.3,84.4L32.9,66.6c-1.2-0.9-2.8-0.7-3.7,0.4l-3,3.7c-1,1.2-0.7,3.1,0.7,4L51,89.8l0.3-7.2L32.6,94.4
	c-1.3,0.9-1.7,2.8-0.6,4l2.9,3.5c0.9,1.1,2.5,1.3,3.6,0.5l20.8-14.5L56.3,84.4z"/>
<path class="st6" d="M55.9,88.6l12.8-5.1c15.9-6.3,34-6.6,50-0.7l15.8,5.8c3,1.1,6.3,4,7.1,1.1l0.8-3.2c1-3.8-8.2-20.5-16.1-26.5
	c-5.6-4.2-12.3-6.8-19.3-7.7c-6.8-0.7-13.4-0.8-20-0.2c-6.3,0.6-12.3,2.8-17.5,6.2c-9.9,6.4-23,25.6-22,28.6l1.2,3.2
	C49.7,92.8,53,89.7,55.9,88.6z"/>
<path class="st6" d="M56.4,91.1h-2.2c-3.7,0-6.8-3-6.8-6.8v-2.2c0-3.7,3-6.8,6.8-6.8h2.2c3.7,0,6.8,3,6.8,6.8v2.2
	C63.1,88.1,60.1,91.1,56.4,91.1z"/>
</svg>
