<?xml version="1.0" encoding="utf-8"?>
<!-- Generator: Adobe Illustrator 26.0.3, SVG Export Plug-In . SVG Version: 6.00 Build 0)  -->
<svg version="1.1" id="Layer_1" xmlns="http://www.w3.org/2000/svg" xmlns:xlink="http://www.w3.org/1999/xlink" x="0px" y="0px"
	 viewBox="0 0 788 1005.1" style="enable-background:new 0 0 788 1005.1;" xml:space="preserve">
<style type="text/css">
	.st0{fill:#72172A;}
	.st1{clip-path:url(#SVGID_00000135685075512600044740000015978659471086667137_);}
	.st2{fill:#7F4C36;}
	.st3{clip-path:url(#SVGID_00000136405219736580151790000013516543883680281006_);}
	.st4{fill:none;}
	.st5{fill:#90573A;}
	.st6{fill:#353535;}
</style>
<path class="st0" d="M418.8,163.5c-12.1,6.5-12.8-24.2-13.8-25.9c-3-1.2-7,1.4-10.2,0.5c-7.4-1.9-28.7,1.2-31.9,3.3
	c-0.8,0.5,13.1,16,12.3,16.6c-7.3,5.6-17.1,29.2-16.7,40.1c0.6,16.7-24-19.4-36.7-39.1c-4.9-7.6-13.1-31.6-10.7-40.3
	c7.7-28,28.3-43.2,59.2-36.1c12.1,2.8,8,5,11.9,3.8c13-4,67.7-2.2,41.1,63.5C420.5,156.9,420.3,160.3,418.8,163.5z"/>
<g id="_Repetition_miroir_">
	<g>
		<g>
			<g>
				<g>
					<defs>
						<polygon id="SVGID_1_" points="408.6,157.7 408.6,157.7 426.5,157.7 426.5,190.9 408.6,190.9 						"/>
					</defs>
					<clipPath id="SVGID_00000106135621196015810610000015037722306189864068_">
						<use xlink:href="#SVGID_1_"  style="overflow:visible;"/>
					</clipPath>
					<g style="clip-path:url(#SVGID_00000106135621196015810610000015037722306189864068_);">
						<path class="st2" d="M417.3,190.7c4.5-2.1,7-13.2,8.4-18c1-3.6,1.4-12.7-1.7-14.7c-2.7-1.8-12.4,3.8-12.4,3.8l-1,13.2l-2.1,14
							C408.6,189,415.3,191.7,417.3,190.7z"/>
					</g>
				</g>
			</g>
		</g>
	</g>
</g>
<g id="_Repetition_miroir_2">
	<g>
		<g>
			<g>
				<g>
					<defs>
						<polygon id="SVGID_00000098937762591070625970000013568312845855658929_" points="338.2,157.7 338.2,157.7 320.3,157.7 
							320.3,190.9 338.2,190.9 						"/>
					</defs>
					<clipPath id="SVGID_00000078760599610729948040000017058580805701629582_">
						<use xlink:href="#SVGID_00000098937762591070625970000013568312845855658929_"  style="overflow:visible;"/>
					</clipPath>
					<g style="clip-path:url(#SVGID_00000078760599610729948040000017058580805701629582_);">
						<path class="st2" d="M329.5,190.7c-4.5-2.1-7-13.2-8.4-18c-1-3.6-1.4-12.7,1.7-14.7c2.7-1.8,12.4,3.8,12.4,3.8l1,13.2l2.1,14
							C338.2,189,331.5,191.7,329.5,190.7z"/>
					</g>
				</g>
			</g>
		</g>
	</g>
</g>
<rect x="373" y="113.8" class="st4" width="41.7" height="112.3"/>
<path class="st5" d="M413.7,148.9c-1.2-6.9-5.8-19.5-10.8-24.4c-5.8-5.7-17-9.4-26.3-10.4v-0.3c-1.1,0-2.2,0-3.3,0
	c-0.5,0-1.1,0-1.6,0v0.1c-10.6,0.8-22.3,4.7-28.3,10.5c-5,4.9-9.6,17.5-10.8,24.4c-1.8,10.2,3.5,42.1,6.8,51.9
	c7.7,23.2,16.4,18.2,23.1,23.1c2.6,1.9,10.7,1.7,10.7,1.7s8.1,0.1,10.7-1.7c8-5.6,14.8-0.9,23.1-23.1
	C410.5,191,415.5,159.1,413.7,148.9z"/>
<rect x="331.4" y="113.8" class="st4" width="41.7" height="112.3"/>
<path class="st0" d="M331.4,158.5c-0.3-4.2,7.7-31.4,11.7-30.5c11.8,2.7,28.9,4.4,30,4.5c1.9,0.1,18.8-0.8,30.6-4.5
	c5.4-1.7,10.3,31.9,10.3,31.9l6.5-2.3l1.7-49.4l-94.3,0.8L331.4,158.5z"/>
<ellipse class="st6" cx="329.6" cy="191.5" rx="1.8" ry="6.7"/>
<ellipse class="st6" cx="416.5" cy="191.5" rx="1.8" ry="6.7"/>
<path class="st6" d="M333.3,141.2l-23.4-17.8c-1.2-0.9-2.8-0.7-3.7,0.4l-3,3.7c-1,1.2-0.7,3.1,0.7,4l24.1,15.1l0.3-7.2l-18.7,11.8
	c-1.3,0.9-1.7,2.8-0.6,4l2.9,3.5c0.9,1.1,2.5,1.3,3.6,0.5l20.8-14.5L333.3,141.2z"/>
<path class="st6" d="M332.9,145.4l12.8-5.1c15.9-6.3,34-6.6,50-0.7l15.8,5.8c3,1.1,6.3,4,7.1,1.1l0.8-3.2c1-3.8-8.2-20.5-16.1-26.5
	c-5.6-4.2-12.3-6.8-19.3-7.7c-6.8-0.7-13.4-0.8-20-0.2c-6.3,0.6-12.3,2.8-17.5,6.2c-9.9,6.4-23,25.6-22,28.6l1.2,3.2
	C326.7,149.6,330,146.5,332.9,145.4z"/>
<path class="st6" d="M333.4,147.9h-2.2c-3.7,0-6.8-3-6.8-6.8v-2.2c0-3.7,3-6.8,6.8-6.8h2.2c3.7,0,6.8,3,6.8,6.8v2.2
	C340.1,144.9,337.1,147.9,333.4,147.9z"/>
</svg>
