<?xml version="1.0" encoding="utf-8"?>
<!-- Generator: Adobe Illustrator 26.0.3, SVG Export Plug-In . SVG Version: 6.00 Build 0)  -->
<svg version="1.1" id="Layer_1" xmlns="http://www.w3.org/2000/svg" xmlns:xlink="http://www.w3.org/1999/xlink" x="0px" y="0px"
	 viewBox="0 0 198 187.6" style="enable-background:new 0 0 198 187.6;" xml:space="preserve">
<style type="text/css">
	.st0{clip-path:url(#SVGID_00000173140740324640766160000008103129897018108803_);}
	.st1{fill:#7F4B37;}
	.st2{clip-path:url(#SVGID_00000116942259405377984340000001928927915623481770_);}
	.st3{fill:#7F4C36;}
	.st4{fill:none;}
	.st5{fill:#90573A;}
	.st6{fill:#72172A;}
</style>
<g id="_Repetition_miroir_">
	<g>
		<g>
			<g>
				<g>
					<g>
						<defs>
							<polygon id="SVGID_1_" points="135.6,94.8 135.6,94.8 153.5,94.8 153.5,128 135.6,128 							"/>
						</defs>
						<clipPath id="SVGID_00000028315449634939525490000005191416081605234828_">
							<use xlink:href="#SVGID_1_"  style="overflow:visible;"/>
						</clipPath>
						<g style="clip-path:url(#SVGID_00000028315449634939525490000005191416081605234828_);">
							<path class="st1" d="M144.3,127.8c4.5-2.1,7-13.2,8.4-18c1-3.6,1.4-12.7-1.7-14.7c-2.7-1.8-12.4,3.8-12.4,3.8l-1,13.2
								l-2.1,14C135.6,126.1,142.3,128.8,144.3,127.8z"/>
						</g>
					</g>
				</g>
			</g>
		</g>
	</g>
</g>
<g id="_Repetition_miroir_2">
	<g>
		<g>
			<g>
				<g>
					<g>
						<defs>
							<polygon id="SVGID_00000058588252840055852990000015978667418489033360_" points="65.2,94.8 65.2,94.8 47.3,94.8 47.3,128 
								65.2,128 							"/>
						</defs>
						<clipPath id="SVGID_00000091726508823701400690000013954976451443829945_">
							<use xlink:href="#SVGID_00000058588252840055852990000015978667418489033360_"  style="overflow:visible;"/>
						</clipPath>
						<g style="clip-path:url(#SVGID_00000091726508823701400690000013954976451443829945_);">
							<path class="st3" d="M56.5,127.8c-4.5-2.1-7-13.2-8.4-18c-1-3.6-1.4-12.7,1.7-14.7c2.7-1.8,12.4,3.8,12.4,3.8l1,13.2l2.1,14
								C65.2,126.1,58.5,128.8,56.5,127.8z"/>
						</g>
					</g>
				</g>
			</g>
		</g>
	</g>
</g>
<rect x="100" y="50.9" class="st4" width="41.7" height="112.3"/>
<path class="st5" d="M140.7,86c-1.2-6.9-5.8-19.5-10.8-24.4c-5.8-5.7-17-9.4-26.3-10.4v-0.3c-1.1,0-2.2,0-3.3,0c-0.5,0-1.1,0-1.6,0
	V51c-10.6,0.8-22.3,4.7-28.3,10.5c-5,4.9-9.6,17.5-10.8,24.4c-1.8,10.2,3.5,42.1,6.8,51.9c7.7,23.2,16.4,18.2,23.1,23.1
	c2.6,1.9,10.7,1.7,10.7,1.7s8.1,0.1,10.7-1.7c8-5.6,14.8-0.9,23.1-23.1C137.5,128.1,142.5,96.2,140.7,86z"/>
<rect x="58.4" y="50.9" class="st4" width="41.7" height="112.3"/>
<path class="st6" d="M135,155c-19.1-3-20.7-6.3-10.9-19.5c6.9-9.3,11.2-19.7,13.8-30.9c2.9-12.1-15.3-39.4-27.3-42
	c-3.6-0.8-4.5,0.9-5.2,3.2c-5.2,19-26.3,0.3-40.2,7.8c-3.7,2-5.4,18.3-0.6,24.7c-0.7,5.3-9.9,14.8-5.6,16.5
	c7.8,3.2,13.5,7.2,8.3,15.6c-2.1,3.4-0.3,6.4,2.4,9.2c8.9,9.1,6.3,11-1.6,14.6c-3.3,1.5-10.2,4.1-4.5-5.1c2.8-4.5-2.7-6.5-6.7-6.9
	c-4.4-0.4-8.9,0.1-13.3-0.3c-10-1-16.6-4.8-11.1-16.2c2.7-5.5,1.4-9.2-3.5-12.5c-9.9-6.5-8.5-15.1-2.5-22.9
	c6.4-8.4,11.1-17.5,15-27.1c10.2-25.4,30-38.5,56.2-38.5c26.2,0.1,45.7,13.7,55.9,39c2.7,6.8,5.7,13.8,10,19.7
	c8.2,11.2,15.4,21.6-0.5,32.2c-3.4,2.2-2.7,5.7-1.1,9.3c5.8,13.4-1.8,16.8-13.2,17c-3,0-6-0.2-8.9,0.1
	C131.2,142.8,125.4,145.2,135,155z"/>
</svg>
