<?xml version="1.0" encoding="utf-8"?>
<!-- Generator: Adobe Illustrator 26.0.3, SVG Export Plug-In . SVG Version: 6.00 Build 0)  -->
<svg version="1.1" id="Layer_1" xmlns="http://www.w3.org/2000/svg" xmlns:xlink="http://www.w3.org/1999/xlink" x="0px" y="0px"
	 viewBox="0 0 198 187.6" style="enable-background:new 0 0 198 187.6;" xml:space="preserve">
<style type="text/css">
	.st0{clip-path:url(#SVGID_00000061463116335386596920000014286000442277693825_);}
	.st1{fill:#7F4C36;}
	.st2{clip-path:url(#SVGID_00000026161885447241369410000016311282508983152536_);}
	.st3{fill:none;}
	.st4{fill:#90573A;}
	.st5{fill:#72172A;}
	.st6{fill:#3D3D39;}
</style>
<g id="_Repetition_miroir_">
	<g>
		<g>
			<g>
				<g>
					<g>
						<defs>
							<polygon id="SVGID_1_" points="131.2,91 131.2,91 149.1,91 149.1,124.2 131.2,124.2 							"/>
						</defs>
						<clipPath id="SVGID_00000116955566291660232660000010899253583102306489_">
							<use xlink:href="#SVGID_1_"  style="overflow:visible;"/>
						</clipPath>
						<g style="clip-path:url(#SVGID_00000116955566291660232660000010899253583102306489_);">
							<path class="st1" d="M139.9,124c4.5-2.1,7-13.2,8.4-18c1-3.6,1.4-12.7-1.7-14.7c-2.7-1.8-12.4,3.8-12.4,3.8l-1,13.2l-2.1,14
								C131.2,122.3,137.9,125,139.9,124z"/>
						</g>
					</g>
				</g>
			</g>
		</g>
	</g>
</g>
<g id="_Repetition_miroir_2">
	<g>
		<g>
			<g>
				<g>
					<g>
						<defs>
							<polygon id="SVGID_00000013871820402889279690000003339919670743675317_" points="60.9,91 60.9,91 42.9,91 42.9,124.2 
								60.9,124.2 							"/>
						</defs>
						<clipPath id="SVGID_00000014614318944393914970000016185063285694528443_">
							<use xlink:href="#SVGID_00000013871820402889279690000003339919670743675317_"  style="overflow:visible;"/>
						</clipPath>
						<g style="clip-path:url(#SVGID_00000014614318944393914970000016185063285694528443_);">
							<path class="st1" d="M52.1,124c-4.5-2.1-7-13.2-8.4-18c-1-3.6-1.4-12.7,1.7-14.7c2.7-1.8,12.4,3.8,12.4,3.8l1,13.2l2.1,14
								C60.9,122.3,54.1,125,52.1,124z"/>
						</g>
					</g>
				</g>
			</g>
		</g>
	</g>
</g>
<rect x="95.6" y="47.1" class="st3" width="41.7" height="112.3"/>
<path class="st4" d="M136.4,82.2c-1.2-6.9-5.8-19.5-10.8-24.4c-5.8-5.7-17-9.4-26.3-10.4v-0.3c-1.1,0-2.2,0-3.3,0
	c-0.5,0-1.1,0-1.6,0v0.1C83.8,48,72.1,51.9,66.1,57.7c-5,4.9-9.6,17.5-10.8,24.4c-1.8,10.2,3.5,42.1,6.8,51.9
	c7.7,23.2,16.4,18.2,23.1,23.1c2.6,1.9,10.7,1.7,10.7,1.7s8.1,0.1,10.7-1.7c8-5.6,14.8-0.9,23.1-23.1
	C133.1,124.3,138.1,92.4,136.4,82.2z"/>
<rect x="54" y="47.1" class="st3" width="41.7" height="112.3"/>
<path class="st5" d="M55,98.4c-11.4-26.6-5.6-48.6,15.5-61.2c14.2-8.6,31-8.6,46-7.4c19.9,1.6,28.8,18.2,33.4,36.6
	c4.2,16.6,5.7,32.3-8.8,45.4c-6.1,5.5-12,11.9,0,18.2c-5,4-9.3,3.6-13.1-0.3c-3.4-3.5-2.9-7.7-1.5-12.1c6.3-19.5,18.2-32.7,0.7-44.1
	c-7-4.5-24.3-1-28-8.2c-5.3-10.5-13.7-7.5-20.6-2.6c-6.1,4.3-14.5,6.1-17.9,12.7C57.8,81.5,58.4,91.4,55,98.4z"/>
<circle class="st6" cx="54" cy="124.2" r="4.8"/>
<circle class="st6" cx="54" cy="133.1" r="3.4"/>
<circle class="st6" cx="54" cy="139.7" r="2.5"/>
</svg>
