<?xml version="1.0" encoding="utf-8"?>
<!-- Generator: Adobe Illustrator 26.0.3, SVG Export Plug-In . SVG Version: 6.00 Build 0)  -->
<svg version="1.1" id="Layer_1" xmlns="http://www.w3.org/2000/svg" xmlns:xlink="http://www.w3.org/1999/xlink" x="0px" y="0px"
	 viewBox="0 0 198 187.6" style="enable-background:new 0 0 198 187.6;" xml:space="preserve">
<style type="text/css">
	.st0{clip-path:url(#SVGID_00000088813365148522208710000007333504516793746312_);}
	.st1{fill:#7F4C36;}
	.st2{clip-path:url(#SVGID_00000061435934130335726550000010753256152615806380_);}
	.st3{fill:none;}
	.st4{fill:#90573A;}
	.st5{fill:#72172A;}
	.st6{fill:#B22947;}
	.st7{fill:#87213C;}
</style>
<g id="Calque_3">
	<g id="_Repetition_miroir_">
		<g>
			<g>
				<g>
					<g>
						<g>
							<g>
								<defs>
									<polygon id="SVGID_1_" points="145.2,115.7 145.2,115.7 163.1,115.7 163.1,148.9 145.2,148.9 									"/>
								</defs>
								<clipPath id="SVGID_00000010299558371493043860000000900665692900736912_">
									<use xlink:href="#SVGID_1_"  style="overflow:visible;"/>
								</clipPath>
								<g style="clip-path:url(#SVGID_00000010299558371493043860000000900665692900736912_);">
									<path class="st1" d="M153.9,148.8c4.5-2.1,7-13.2,8.4-18c1-3.6,1.4-12.7-1.7-14.7c-2.7-1.8-12.4,3.8-12.4,3.8l-1,13.2
										l-2.1,14C145.2,147,151.9,149.8,153.9,148.8z"/>
								</g>
							</g>
						</g>
					</g>
				</g>
			</g>
		</g>
	</g>
	<g id="_Repetition_miroir_2">
		<g>
			<g>
				<g>
					<g>
						<g>
							<g>
								<defs>
									<polygon id="SVGID_00000120516510974842776990000017451995932028621750_" points="74.9,115.7 74.9,115.7 56.9,115.7 
										56.9,148.9 74.9,148.9 									"/>
								</defs>
								<clipPath id="SVGID_00000173141793650175035460000007758598169927663506_">
									<use xlink:href="#SVGID_00000120516510974842776990000017451995932028621750_"  style="overflow:visible;"/>
								</clipPath>
								<g style="clip-path:url(#SVGID_00000173141793650175035460000007758598169927663506_);">
									<path class="st1" d="M66.1,148.8c-4.5-2.1-7.1-13.2-8.4-18c-1-3.6-1.4-12.7,1.7-14.7c2.7-1.8,12.4,3.8,12.4,3.8l1,13.2
										l2.1,14C74.9,147,68.1,149.8,66.1,148.8z"/>
								</g>
							</g>
						</g>
					</g>
				</g>
			</g>
		</g>
	</g>
	<rect x="109.6" y="71.8" class="st3" width="41.7" height="112.3"/>
	<path class="st4" d="M150.4,106.9c-1.2-6.9-5.8-19.5-10.8-24.4c-5.8-5.7-17-9.4-26.3-10.4v-0.3c-1.1,0-2.2,0-3.3,0
		c-0.5,0-1.1,0-1.6,0v0.1c-10.6,0.8-22.3,4.7-28.3,10.5c-5,4.9-9.6,17.5-10.8,24.4c-1.8,10.2,3.5,42.1,6.8,51.9
		c7.7,23.2,16.4,18.2,23.1,23.1c2.6,1.9,10.7,1.7,10.7,1.7s8.1,0.1,10.7-1.7c8-5.6,14.8-0.9,23.1-23.1
		C147.1,149,152.1,117.2,150.4,106.9z"/>
	<rect x="68" y="71.8" class="st3" width="41.7" height="112.3"/>
	<path class="st5" d="M69.2,122.2c0,0-8.6-3.1-9.6-7.1s-5.7-19.1-3.9-25.3c7-23.9,14.6-5.7,20.3-10.1l0,0c-6.8-6.1-4-13.5,1.3-20.8
		l0.5-0.2c13.1-5.6,27.7-6.8,41.5-3.5l2,0.5c0,0,22.7,4.9,28.5,9.7C155.1,69.8,162.1,83,163,90c0.6,4.8-1.6,17.1-2.6,22.5
		c-0.3,1.7-1.3,3.2-2.7,4.1l-8,5.5l-3.4-15.7c-0.1-0.3-0.2-0.6-0.3-0.9l-5.1-13.6c-1-2.8-3.9-4.5-6.8-4.2l-23.5,2.7
		c-0.4,0-0.8,0.1-1.3,0l-24.4-2c-3.2-0.3-6.1,1.8-6.9,5l-2.9,12"/>
</g>
<g>
	<path class="st6" d="M26.4,79.4c1.8-5.4,5.9-9,9.8-12.7C49.9,53.8,65.4,43,81.6,33c2.4-1.5,3.8-3,2.8-5.6c-1.3-3.1,0.3-5.4,2.8-6.8
		c2.9-1.6,6-1.6,8.1,1.1c1.8,2.3,3.1,1.6,5,0.6c12.3-6.6,24.9-12.4,38.5-16c7.1-1.9,14.3-2.5,21.6-1.5c4.1,0.5,7.5,2.4,8.4,7.1
		c1.1,8.3-5,12.3-10.2,16.7c-14.7,12.7-32,20.8-49.4,29c-11.9,5.5-23.9,10.8-36.5,15.2c-12,4.3-24.1,8.4-36.6,10.8
		C32.1,84.2,28.2,84.1,26.4,79.4z"/>
	<path class="st7" d="M26.4,79.4c1.9,4.6,5.8,4.8,9.8,4c12.5-2.4,24.6-6.5,36.6-10.8c12.5-4.4,24.6-9.5,36.5-15.2
		c17.3-8.1,34.7-16.3,49.4-29c5-4.4,11.2-8.5,10.2-16.7c2.9,6.6,1.5,13.2-0.6,19.4c-3.4,10.2-8.8,19.3-15.4,27.7
		c-2,0.8-3.9-0.6-5.8-0.8c-15-0.9-29.2,3-43.1,7.9c-11.4,4-22.6,8.8-34.3,12.2c-5.4,1.5-11.2,2-16.2,4.9c-6.9,1.3-13.8,2.9-20.9,2.5
		C27.2,85.5,26.2,84.2,26.4,79.4z"/>
	<path class="st6" d="M53.4,83.2c5-2.9,10.8-3.4,16.2-4.9c11.7-3.4,22.8-8.1,34.3-12.2c13.9-4.8,28.1-8.8,43.1-7.9
		c2,0.1,3.8,1.5,5.8,0.8c0.6,3.3,1.1,6.4,1.9,9.7c0.5,2-0.3,2.5-2.1,2.3c-20.2-1.8-39.7,2.1-59,6.9c-12.5,3-25.1,6.4-36.2,13.2
		c-1.9,1.1-2.5,0.3-2.8-1.4C54,87.5,53.8,85.3,53.4,83.2z"/>
</g>
</svg>
