<?xml version="1.0" encoding="utf-8"?>
<!-- Generator: Adobe Illustrator 26.0.3, SVG Export Plug-In . SVG Version: 6.00 Build 0)  -->
<svg version="1.1" id="Layer_1" xmlns="http://www.w3.org/2000/svg" xmlns:xlink="http://www.w3.org/1999/xlink" x="0px" y="0px"
	 viewBox="0 0 788 1005.1" style="enable-background:new 0 0 788 1005.1;" xml:space="preserve">
<style type="text/css">
	.st0{fill:none;}
	.st1{fill:#90573A;}
	.st2{fill:none;stroke:#424242;stroke-miterlimit:10;}
	.st3{fill:#72172A;}
	.st4{clip-path:url(#SVGID_00000075129905047635756310000014880502939730082952_);}
	.st5{fill:#7F4C36;}
	.st6{clip-path:url(#SVGID_00000064343179960388195850000004417944086309161372_);}
	.st7{fill:#D8D8D8;}
</style>
<g id="Calque_3">
	<rect x="373" y="113.8" class="st0" width="41.7" height="112.3"/>
	<path class="st1" d="M413.7,148.9c-1.2-6.9-5.8-19.5-10.8-24.4c-5.8-5.7-17-9.4-26.3-10.4v-0.3c-1.1,0-2.2,0-3.3,0
		c-0.5,0-1.1,0-1.6,0v0.1c-10.6,0.8-22.3,4.7-28.3,10.5c-5,4.9-9.6,17.5-10.8,24.4c-1.8,10.2,3.5,42.1,6.8,51.9
		c7.7,23.2,16.4,18.2,23.1,23.1c2.6,1.9,10.7,1.7,10.7,1.7s8.1,0.1,10.7-1.7c8-5.6,14.8-0.9,23.1-23.1
		C410.5,191,415.5,159.1,413.7,148.9z"/>
	<rect x="331.4" y="113.8" class="st0" width="41.7" height="112.3"/>
	<path class="st2" d="M377.7,92"/>
	<path class="st2" d="M372.6,132.3"/>
	<path class="st3" d="M333.8,142.3c1.3,19.9-2.1,47.2,10.3,65c3.8,5.5,12.9,4.6,7.2,8.3c-5.9,3.8-11.8,4.7-19-2
		c-6-5.6-12-8.8-20-9.9c-4-0.5-8.3-4.2-8-8.5c0.6-8.4-7.9-16.8-7.1-20c4.1-14.9-17.7-27.2-3-41.9c2.6-2.6-1.1-5-1.9-7.4
		c-1.3-3.8-2-9.3,0.8-10.4c15.7-6,14.3-32.1,36.1-30.5c2.8,0.2,3-3,4.3-4.8c1.8-2.6,3.8-7.1,6-7.2c15.7-1.2,28.6-10.7,47.2-7.4
		c18.7,3.3,27,20.5,44.3,22.1c3.7,0.3,6.8,4.1,7.5,7.6c1.6,7.9,5.9,12.8,13.3,15.5c0.8,0.3,1.4,1.2,2,1.9c4.4,5.3,4.9,36.1,0.1,41.5
		c-2.3,2.6-2,4.3-1.3,7.2c4,15.2-12,24.7-11.4,39c-15.8-0.5-24.5,23.3-43,14.3c-6.3-3.1-0.8-0.3,3.6-5.3
		c10.1-11.5,9.7-36.9,11.3-48.4c3.2-15.8-8.7-34.8-24.1-38.8c-3-0.8-4.3,0.3-5.8,2c-2.2,2.4-3.4,6.2-6.5,7.2
		C349.2,140.7,355.7,150.4,333.8,142.3z"/>
	<g id="_Repetition_miroir_">
		<g>
			<g>
				<g>
					<g>
						<defs>
							<polygon id="SVGID_1_" points="409.6,157.7 409.6,157.7 427.5,157.7 427.5,190.9 409.6,190.9 							"/>
						</defs>
						<clipPath id="SVGID_00000004517767126481775420000005994623513566796429_">
							<use xlink:href="#SVGID_1_"  style="overflow:visible;"/>
						</clipPath>
						<g style="clip-path:url(#SVGID_00000004517767126481775420000005994623513566796429_);">
							<path class="st5" d="M418.3,190.7c4.5-2.1,7-13.2,8.4-18c1-3.6,1.4-12.7-1.7-14.7c-2.7-1.8-12.4,3.8-12.4,3.8l-1,13.2
								l-2.1,14C409.6,189,416.3,191.7,418.3,190.7z"/>
						</g>
					</g>
				</g>
			</g>
		</g>
	</g>
	<g id="_Repetition_miroir_2">
		<g>
			<g>
				<g>
					<g>
						<defs>
							<polygon id="SVGID_00000138541685242882940480000004190287152603315855_" points="337.9,158 337.9,158 320,157.3 
								318.7,190.6 336.5,191.3 							"/>
						</defs>
						<clipPath id="SVGID_00000000936431327641261290000008028907598410094466_">
							<use xlink:href="#SVGID_00000138541685242882940480000004190287152603315855_"  style="overflow:visible;"/>
						</clipPath>
						<g style="clip-path:url(#SVGID_00000000936431327641261290000008028907598410094466_);">
							<path class="st5" d="M327.8,190.7c-4.4-2.3-6.5-13.5-7.7-18.3c-0.9-3.6-0.9-12.8,2.3-14.7c2.8-1.7,12.2,4.3,12.2,4.3
								l0.4,13.3l1.6,14C336.6,189.4,329.8,191.8,327.8,190.7z"/>
						</g>
					</g>
				</g>
			</g>
		</g>
	</g>
</g>
<g>
	<path class="st7" d="M332.9,190.4c3.8,3.8,4.4,10.2,2,15c-2,4.3-7.4,6.1-11.3,2.9c-6.1-5.1-5.5-17.2,1.5-21c1-0.5,2.2-0.6,3.1-0.3
		c-1.9,0.7-2.7,2.3-3.2,3.8c-1.2,4-0.7,9.8,2.3,12.7c1.1,1,2.1,0.1,3-1C332.9,199.3,333.6,194.8,332.9,190.4L332.9,190.4z"/>
</g>
<g>
	<path class="st7" d="M413.9,190.4c-0.7,4.3,0,8.8,2.5,12.3c0.9,1,1.9,2,3,1c3-2.9,3.5-8.7,2.3-12.7c-0.5-1.5-1.3-3.1-3.2-3.8
		c1-0.3,2.1-0.2,3.1,0.3c7,3.8,7.6,15.9,1.5,21c-3.9,3.2-9.2,1.4-11.3-2.9C409.5,200.7,410.1,194.2,413.9,190.4L413.9,190.4z"/>
</g>
</svg>
