<?xml version="1.0" encoding="utf-8"?>
<!-- Generator: Adobe Illustrator 26.0.3, SVG Export Plug-In . SVG Version: 6.00 Build 0)  -->
<svg version="1.1" id="Layer_1" xmlns="http://www.w3.org/2000/svg" xmlns:xlink="http://www.w3.org/1999/xlink" x="0px" y="0px"
	 viewBox="0 0 788 1005.1" style="enable-background:new 0 0 788 1005.1;" xml:space="preserve">
<style type="text/css">
	.st0{clip-path:url(#SVGID_00000024705875381410736430000015324417547593797258_);}
	.st1{fill:#7F4C36;}
	.st2{clip-path:url(#SVGID_00000135652339266343603980000013851119137096431270_);}
	.st3{fill:none;}
	.st4{fill:#90573A;}
	.st5{fill:#72172A;}
	.st6{fill:#277A9B;}
	.st7{fill:#22677C;}
</style>
<g id="_Repetition_miroir_">
	<g>
		<g>
			<g>
				<g>
					<g>
						<defs>
							<polygon id="SVGID_1_" points="408,157.8 408,157.8 425.7,157.8 425.7,190.8 408,190.8 							"/>
						</defs>
						<clipPath id="SVGID_00000085963293581826629800000008290285284596215484_">
							<use xlink:href="#SVGID_1_"  style="overflow:visible;"/>
						</clipPath>
						<g style="clip-path:url(#SVGID_00000085963293581826629800000008290285284596215484_);">
							<path class="st1" d="M416.6,190.6c4.5-2.1,7-13.1,8.3-17.9c1-3.5,1.4-12.6-1.6-14.6c-2.7-1.8-12.3,3.8-12.3,3.8l-0.9,13.1
								l-2.1,13.8C408,188.9,414.6,191.6,416.6,190.6z"/>
						</g>
					</g>
				</g>
			</g>
		</g>
	</g>
</g>
<g id="_Repetition_miroir_2">
	<g>
		<g>
			<g>
				<g>
					<g>
						<defs>
							<polygon id="SVGID_00000155104511042885504550000008896852337830708609_" points="338.1,157.8 338.1,157.8 320.3,157.8 
								320.3,190.8 338.1,190.8 							"/>
						</defs>
						<clipPath id="SVGID_00000023247951158981333470000014822351337802271421_">
							<use xlink:href="#SVGID_00000155104511042885504550000008896852337830708609_"  style="overflow:visible;"/>
						</clipPath>
						<g style="clip-path:url(#SVGID_00000023247951158981333470000014822351337802271421_);">
							<path class="st1" d="M329.4,190.6c-4.5-2.1-7-13.1-8.3-17.9c-1-3.5-1.4-12.6,1.7-14.6c2.7-1.8,12.3,3.8,12.3,3.8l1,13.1
								l2.1,13.9C338.1,188.9,331.4,191.6,329.4,190.6z"/>
						</g>
					</g>
				</g>
			</g>
		</g>
	</g>
</g>
<rect x="373" y="113.8" class="st3" width="41.7" height="112.3"/>
<path class="st4" d="M413.7,148.9c-1.2-6.9-5.8-19.5-10.8-24.4c-5.8-5.7-17-9.4-26.3-10.4v-0.3c-1.1,0-2.2,0-3.3,0
	c-0.5,0-1.1,0-1.6,0v0.1c-10.6,0.8-22.3,4.7-28.3,10.5c-5,4.9-9.6,17.5-10.8,24.4c-1.8,10.2,3.5,42.1,6.8,51.9
	c7.7,23.2,16.4,18.2,23.1,23.1c2.6,1.9,10.7,1.7,10.7,1.7s8.1,0.1,10.7-1.7c8-5.6,14.8-0.9,23.1-23.1
	C410.5,191,415.5,159.1,413.7,148.9z"/>
<rect x="331.4" y="113.8" class="st3" width="41.7" height="112.3"/>
<g>
	<path class="st5" d="M401.7,137.4c-10.1-11-42.1,8.6-59.5-1.5c-2.4-2.8-6,2.1-2.9-3.7c-0.1,8.3-1.8,17.5,0.4,26.7
		c-6.4,17.7-0.5,50.6,6.7,60.6c-4.6-3.6-9.5-4.1-10.8-11.6c-4.2-17.1-6.7-32-17.5-43.6c-5.6-6.1-7.2-13.6-7.1-21.8
		c0.2-30.1,27.4-58.8,57.4-60.5c32.8-1.8,62.8,22.5,66.5,53.8c1.4,12.2-0.2,23.4-9.6,32.4c-9.9,9.5-9.3,24.5-11.2,38.2
		c-1.4,10.3-4.9,16.3-18.1,13.9c10.7-2.2,13.1-9.3,14-18.6c1.8-17.5-3.4-37.1-1.6-54.6c2.5-5.3-2.2-9.9-0.9-15.8
		C404.3,135.7,402.1,132.1,401.7,137.4z"/>
	<path class="st5" d="M400.3,137.8c-1.5-7.7,9.2-9-0.3-17.2c11.1,6.5,11.5,16,8.5,26.5C407,142,407.3,136.9,400.3,137.8z"/>
	<path class="st5" d="M339.7,158.9c-3.3-13.8-6.2-27.6,6.6-38.5c-3.3,6.7-7.2,9.8-1.5,16.9C334.5,140.7,342.8,153.2,339.7,158.9z"/>
</g>
<g>
	<path class="st6" d="M421.6,126.2c-1.3,4.8-0.7,10.1-2.5,15.2c-0.8,2.1-2.3,2.7-4.9,2.6c-3.1-0.2-6-1.1-9-1.9
		c-4.1-1-8.3-2.1-12.4-3.3c-11.4-3.4-22.6-2.8-34.1-0.3c-7.9,1.8-15.5,4-23.6,5.1c-6.3,1-7.4,0.5-8.8-4.4c-0.3-1.1-0.5-2.3-0.8-3.5
		c-0.6-3.5-0.5-7.2-1.6-10.7l19.3-2.5c20-2.6,40.6-2.3,60.5,0.9L421.6,126.2z"/>
	<path class="st7" d="M421.4,127.6c0.2-1,0.5-2.1,1-3c-1-10.6-3.5-20.4-7.7-29.8c-2.7-6.2-7.7-10-14.6-12.5
		c-3.3-1.1-6.7-1.9-10.1-2.7c-5.1-1.1-10.7-0.5-15.6-2.7c-1.1-0.6-2.6-0.2-3.4,0.5c-1.4,1-2.8,1-4.4,1.1c-5.5,0.2-10.7,1.3-15.8,2.6
		c-8.9,2.5-15.9,6.7-19,14.9c-2.4,6.3-4.6,12.6-5.8,19.3c-0.6,3.8-2.4,7.5-1.1,11.2l17.3-2.4c21.6-3,43.6-2.5,65.2,1.1L421.4,127.6z
		"/>
</g>
</svg>
