<?xml version="1.0" encoding="utf-8"?>
<!-- Generator: Adobe Illustrator 26.0.3, SVG Export Plug-In . SVG Version: 6.00 Build 0)  -->
<svg version="1.1" id="Layer_1" xmlns="http://www.w3.org/2000/svg" xmlns:xlink="http://www.w3.org/1999/xlink" x="0px" y="0px"
	 viewBox="0 0 198 187.6" style="enable-background:new 0 0 198 187.6;" xml:space="preserve">
<style type="text/css">
	.st0{clip-path:url(#SVGID_00000010277724499627067910000014676290280641329070_);}
	.st1{fill:#7F4C36;}
	.st2{clip-path:url(#SVGID_00000002367673012946354120000005354378280760618931_);}
	.st3{fill:none;}
	.st4{fill:#90573A;}
	.st5{fill:#72172A;}
	.st6{fill:#E8D66D;}
</style>
<g id="_Repetition_miroir_">
	<g>
		<g>
			<g>
				<g>
					<defs>
						<polygon id="SVGID_1_" points="145.9,96.1 145.9,96.1 163.7,96.1 163.7,129.1 145.9,129.1 						"/>
					</defs>
					<clipPath id="SVGID_00000098201431790747626170000004932672765760872638_">
						<use xlink:href="#SVGID_1_"  style="overflow:visible;"/>
					</clipPath>
					<g style="clip-path:url(#SVGID_00000098201431790747626170000004932672765760872638_);">
						<path class="st1" d="M154.6,128.9c4.5-2.1,7-13.1,8.3-17.9c1-3.5,1.4-12.6-1.6-14.6c-2.7-1.8-12.3,3.8-12.3,3.8l-0.9,13.1
							l-2.1,13.8C145.9,127.2,152.6,129.9,154.6,128.9z"/>
					</g>
				</g>
			</g>
		</g>
	</g>
</g>
<g id="_Repetition_miroir_2">
	<g>
		<g>
			<g>
				<g>
					<defs>
						<polygon id="SVGID_00000052069669922948675300000013257853082674790061_" points="76.1,96.1 76.1,96.1 58.2,96.1 58.2,129.1 
							76.1,129.1 						"/>
					</defs>
					<clipPath id="SVGID_00000011737690207338684130000017923094430495923351_">
						<use xlink:href="#SVGID_00000052069669922948675300000013257853082674790061_"  style="overflow:visible;"/>
					</clipPath>
					<g style="clip-path:url(#SVGID_00000011737690207338684130000017923094430495923351_);">
						<path class="st1" d="M67.3,128.9c-4.5-2.1-7-13.1-8.3-17.9c-1-3.5-1.4-12.6,1.7-14.6c2.7-1.8,12.3,3.8,12.3,3.8l1,13.1
							l2.1,13.9C76.1,127.2,69.3,129.9,67.3,128.9z"/>
					</g>
				</g>
			</g>
		</g>
	</g>
</g>
<rect x="110.9" y="52.1" class="st3" width="41.7" height="112.3"/>
<path class="st4" d="M151.7,87.2c-1.2-6.9-5.8-19.5-10.8-24.4c-5.8-5.7-17-9.4-26.3-10.4v-0.3c-1.1,0-2.2,0-3.3,0
	c-0.5,0-1.1,0-1.6,0v0.1C99.1,53,87.4,56.9,81.4,62.7c-5,4.9-9.6,17.5-10.8,24.4c-1.8,10.2,3.5,42.1,6.8,51.9
	c7.7,23.2,16.4,18.2,23.1,23.1c2.6,1.9,10.7,1.7,10.7,1.7s8.1,0.1,10.7-1.7c8-5.6,14.8-0.9,23.1-23.1
	C148.4,129.3,153.4,97.4,151.7,87.2z"/>
<rect x="69.3" y="52.1" class="st3" width="41.7" height="112.3"/>
<path class="st5" d="M149.2,106.4c-1.5-0.6-2.1-11.1-3.9-19.6c-4.1-19.2-41.4-14.5-44.6-15.3c-4.4-1-6.9-2.1-8.3-3.1
	c-0.7,6.6-4.6,10.8-8.5,15.3c-5.1,5.9-10.1,12.3-7.5,25.2c0.3,1.5,5,11.9,6.9,22.7c1.5,8.3,1.4,9.9,0.6,11.4s-3.7,7.7-13.2,9
	c15.4-36.3-41.3-31.6-31.6-63c3.3-10.8,14.7-22.1,23-29.1c2.8-2.5,5.9-4.8,9-6.9c0,0-8-10.2,5.9-20.8c0.6-0.4,1.3-0.9,2-1.3
	c8.6-5.2,18.8-7.3,28.8-6.2c20.2,2.2,53.1,12,53,52C168.6,98.7,150.7,107,149.2,106.4z"/>
<path class="st6" d="M155.1,124.1h-1.2c-0.8,0-1.6,0.5-1.9,1.3l-1.2,3.2c-0.2,0.5-0.2,1,0,1.4l1.2,3.2c0.3,0.8,1.1,1.3,1.9,1.3h1.2
	c0.8,0,1.6-0.5,1.9-1.3l1.2-3.2c0.2-0.5,0.2-1,0-1.4l-1.2-3.2C156.7,124.7,155.8,124.1,155.1,124.1z"/>
</svg>
