<?xml version="1.0" encoding="utf-8"?>
<!-- Generator: Adobe Illustrator 26.0.3, SVG Export Plug-In . SVG Version: 6.00 Build 0)  -->
<svg version="1.1" id="Layer_1" xmlns="http://www.w3.org/2000/svg" xmlns:xlink="http://www.w3.org/1999/xlink" x="0px" y="0px"
	 viewBox="0 0 788 1005.1" style="enable-background:new 0 0 788 1005.1;" xml:space="preserve">
<style type="text/css">
	.st0{fill:#95B9B9;}
	.st1{clip-path:url(#SVGID_00000149374139023918260290000003984418386466419383_);}
	.st2{fill:#7F4B37;}
	.st3{clip-path:url(#SVGID_00000070078097034907871990000002221834320910613182_);}
	.st4{fill:none;}
	.st5{fill:#90573A;}
	.st6{clip-path:url(#SVGID_00000034798049199365743780000004068421808890499004_);}
	.st7{fill:#FFFC01;}
	.st8{fill:#A9D5D5;}
	.st9{fill:#C8E8E7;}
	.st10{fill:#BCB4B2;}
	.st11{fill:#D0C7C5;}
</style>
<ellipse class="st0" cx="374.4" cy="200.3" rx="58.7" ry="35.2"/>
<g id="_Repetition_miroir_">
	<g>
		<g>
			<g>
				<g>
					<g>
						<g>
							<g>
								<g>
									<defs>
										<polygon id="SVGID_1_" points="408.6,157.7 408.6,157.7 426.5,157.7 426.5,190.9 408.6,190.9 										"/>
									</defs>
									<clipPath id="SVGID_00000085932054134652262840000008177595185280044437_">
										<use xlink:href="#SVGID_1_"  style="overflow:visible;"/>
									</clipPath>
									<g style="clip-path:url(#SVGID_00000085932054134652262840000008177595185280044437_);">
										<path class="st2" d="M417.3,190.7c4.5-2.1,7-13.2,8.4-18c1-3.6,1.4-12.7-1.7-14.7c-2.7-1.8-12.4,3.8-12.4,3.8l-1,13.2
											l-2.1,14C408.6,189,415.3,191.7,417.3,190.7z"/>
									</g>
								</g>
							</g>
						</g>
					</g>
				</g>
			</g>
		</g>
	</g>
</g>
<g id="_Repetition_miroir_2">
	<g>
		<g>
			<g>
				<g>
					<g>
						<g>
							<g>
								<g>
									<defs>
										<polygon id="SVGID_00000114047060969919848540000009220389519375450532_" points="338.2,157.7 338.2,157.7 320.3,157.7 
											320.3,190.9 338.2,190.9 										"/>
									</defs>
									<clipPath id="SVGID_00000021839133942205901910000005446888024708985266_">
										<use xlink:href="#SVGID_00000114047060969919848540000009220389519375450532_"  style="overflow:visible;"/>
									</clipPath>
									<g style="clip-path:url(#SVGID_00000021839133942205901910000005446888024708985266_);">
										<path class="st2" d="M329.5,190.7c-4.5-2.1-7-13.2-8.4-18c-1-3.6-1.4-12.7,1.7-14.7c2.7-1.8,12.4,3.8,12.4,3.8l1,13.2
											l2.1,14C338.2,189,331.5,191.7,329.5,190.7z"/>
									</g>
								</g>
							</g>
						</g>
					</g>
				</g>
			</g>
		</g>
	</g>
</g>
<rect x="373" y="113.8" class="st4" width="41.7" height="112.3"/>
<path class="st5" d="M413.7,148.9c-1.2-6.9-5.8-19.5-10.8-24.4c-5.8-5.7-17-9.4-26.3-10.4v-0.3c-1.1,0-2.2,0-3.3,0
	c-0.5,0-1.1,0-1.6,0v0.1c-10.6,0.8-22.3,4.7-28.3,10.5c-5,4.9-9.6,17.5-10.8,24.4c-1.8,10.2,3.5,42.1,6.8,51.9
	c7.7,23.2,16.4,18.2,23.1,23.1c2.6,1.9,10.7,1.7,10.7,1.7s8.1,0.1,10.7-1.7c8-5.6,14.8-0.9,23.1-23.1
	C410.5,191,415.5,159.1,413.7,148.9z"/>
<rect x="331.4" y="113.8" class="st4" width="41.7" height="112.3"/>
<g>
	<g>
		<g>
			<g>
				<g>
					<g>
						<g>
							<g>
								<defs>
									<polygon id="SVGID_00000060718426167721124680000002774360794759837086_" points="414.3,186 414.3,186 424.8,186 
										424.8,202.5 414.3,202.5 									"/>
								</defs>
								<clipPath id="SVGID_00000076561319181824926990000010360661080884652945_">
									<use xlink:href="#SVGID_00000060718426167721124680000002774360794759837086_"  style="overflow:visible;"/>
								</clipPath>
								<g style="clip-path:url(#SVGID_00000076561319181824926990000010360661080884652945_);">
									<path class="st7" d="M419.5,186L419.5,186c2.9,0,5.2,2.4,5.2,5.2v6c0,2.9-2.4,5.2-5.2,5.2l0,0c-2.9,0-5.2-2.4-5.2-5.2v-6
										C414.3,188.4,416.6,186,419.5,186z"/>
								</g>
							</g>
						</g>
					</g>
				</g>
			</g>
		</g>
	</g>
</g>
<g>
	<path class="st8" d="M442.9,185.1c-3.7-26.8-11.6-51.8-27.1-73.1c-6.7-9.2-15.2-16.1-26.2-18c-4.6-0.6-9.1-1.4-13.7-1.8
		c-13.5-1.1-24.5,5.8-33.9,15.5c-17.2,17.8-27.6,40.3-35.6,64.5c-3.4,10.3-3.2,20,1.2,29.3c4.2,8.7,10.2,16.1,17.7,21.5
		c5.5,4,10.2,9.6,17.1,10.9c0.6-3.8-0.8-5.8-3.9-7.8c-11.5-7.5-20.1-17.7-23-33.1c1.7,0.1,1.8,1.3,2.1,2.2
		c4,12.8,12.7,21.1,22.2,28.6c1.7,1.3,3,1.1,4.7-0.5c2.8-2.6,6.1-3.7,10-2.4c-0.9,1.6-2,1.1-3,1.2c-5,0.6-7.1,5-4.8,10.1
		c0.7,1.5,2.6,2.8,0.7,4.7c-0.1,2.8-3.8,3.6-3.2,6.8c-0.1,3.3,3.3,5.6,2.3,9.5c-0.1,0.7,1.2,2,2.5,2.6c9.2,4.3,19,5.2,28.7,7.1
		c1.6,0.3,2-0.8,2.6-2.1c1.4-2.7,3.1-5.2,4.6-7.8c0.3-0.6,0.6-0.7,0.9,0c-1.1,6.2-5.1,10.9-7,16.7c-2.8,8.5-6.4,16.7-9,25.4
		c-2.4,7.9-4.6,15.6-4.5,24c0,0.5,0,1,0,1.4c0.1,1.1-0.4,2.7,1,3c1.6,0.3,1.4-1.6,1.6-2.6c1.1-5,2.4-9.9,4.5-14.4
		c1.1-7.1,4.7-12.2,6.7-18.9c2.7-8.8,5.4-18.6,8.7-27.2c0.7-1.8,1.2-4,4.2-5.5c-7,17.6-12.3,34.8-18.5,51.7c-0.4,4.9-3.2,9-4.1,14.1
		c0.9,0,1.4,0.1,1.6-0.1c3.8-4.7,8.2-4.9,12.9-2.3c4.9,2.6,9.8,5.4,14.9,8.3c1.8,0.8,3.7,2.5,9.9,1.7c0.3-1.8,0.5-3.6,0.8-5.4
		c0.3-7.9-0.4-15.7-0.8-23.6c-1.3-14.8-0.9-29.6-0.8-44.4c0.1-10-0.3-19.4-12-23.2c9.3-0.7,14.9,4.9,14.4,11.8
		c-0.5,7.4-1.1,14.7-1.4,22.1c-0.5,11.3,0.4,22.6,1.4,33.8c4.2-1,8.5-1.1,12.5-3.2c5.2-2.8,5.7-4.7,1.8-9.6
		c-0.4-0.6-0.8-1.2-1.2-1.8c-3-4.1-3.7-9.3-5.1-14.1c-2.2-7.7-3-15.8-5.4-23.5c-0.3-1-0.1-2.1,0.9-3.4c3.1,13.4,6.3,26.7,9.5,40.1
		c4.4-0.6,6.2-4.8,8.7-8c0.8-1.1-0.2-2.5-0.8-3.7c-3.9-7.6-6.6-15.7-9.6-23.7c-3-4.9-6-9.7-9-14.6c0,0,0,0-0.1,0c0.1,0,0.1,0,0.2,0
		c3,4.8,8.2,0.4,9.9-0.8c3.6-2.4,7.3-4.8,10.5-7.7c4.8-4.3,9.5-8.7,10.5-16.1C444.8,201.2,444,193.1,442.9,185.1z M351.3,236.2
		c-0.3-0.1-0.5-0.5-0.8-0.8c0.2-0.2,0.3-0.4,0.6-0.6c0.3,0.2,0.7,0.4,0.8,0.7C352.1,236,351.7,236.3,351.3,236.2z M397.3,242.4
		c-1.2,2.7-1.2,6.2-4.1,7.8c-0.3,0.6-0.6,1.2-0.9,1.8c-0.1,0.4-0.2,0.8-0.3,1.2c-0.1,0-0.3-0.2-0.3-0.2c0.1-0.4,0.3-0.7,0.6-1
		c0.3-0.7,0.5-1.3,0.8-2C393.4,246.7,395.4,244.6,397.3,242.4z M412.3,233.8c-3.4-0.8-6.3-3.2-9.9-3.9c-5.8-1.1-6.9-0.5-8.9,5.5
		c-1.4,4.3-3.5,8.4-5.3,12.6c-1.3,3.2-4.2,2.8-6.3,2.9c-10.1,0.3-20.2,0.9-30.2-1.5c5.3,0,10.5-0.1,15.8,0
		c5.6,0.1,11.1-0.6,16.6-0.9c2.3-0.2,3.4-1.7,3.4-3.6c0-1.9-2-1.7-3.2-1.8c-6.9-0.8-13.7-1.4-20.6-2c-3.3-1.3-7.1-1.1-9.9-4.1
		c3.2,1.4,6.9,1,9.9,3.1c7.4-0.1,14.8,1.3,22.2,1.2c2.9,0,4.2-1.1,4.6-4.1c0.1-0.7,0.2-1.5,0.4-2.2c1.6-7.3,1-8.4-5.5-10.2
		c-0.8-0.2-1.5-0.5-2.3-0.8c-8.1-1.5-16.3-3-24.4-4.5c-0.6,0.9-1.2,1-1.7,0c-3.1,0.1-5.4-1.8-7.8-3.5c-11.1-7.8-19.3-17.2-21.2-32.6
		c-1.2-10-1.2-19.9,2-29.4c0.5-1.7,1.2-3.8,2.7-4.8c0.3-3.3,2-5.1,3.8-7.4c11.8-15.1,27.1-20.8,44.6-19.3c6.5,0.6,11.9,5,16.7,10.3
		c6.3,7,11.5,14.7,14.6,24c-0.3,3.2,3.5,4.1,3.2,7.3c0.4,5.5,2.9,10.5,3.5,16.1c0.7,6.7-0.6,12.6-4,17.8
		c-4.1,6.4-9.4,11.6-15.7,15.2c-3,2.7-5.7,5.8-9.8,6.3c-1.8-0.2-2.6,0.7-2.5,2.7c3,1,5.9,2.1,8.6,3.9s4.7-0.2,6.7-1.6
		c9-6.3,15.6-15.1,20.3-25.7c-1.7,13.6-9.5,22-19.9,28.5C405.9,229.9,411,228.4,412.3,233.8z"/>
	<path class="st0" d="M342.6,233.8c0.5-3.8-0.9-5.8-3.9-7.8c-11.5-7.6-20.4-17.6-23.2-33c1.7,0.1,2,1.3,2.3,2.1
		c4,12.8,12.7,21.1,22.2,28.6c1.7,1.3,3,1,4.7-0.5c2.7-2.6,6-3.7,10-2.4c-0.9,1.5-2.1,1.1-3,1.2c-5,0.7-7.1,5-4.8,10.1
		c0.7,1.5,2.5,2.8,0.7,4.7C345.6,236.1,343.5,236.1,342.6,233.8z"/>
	<path class="st9" d="M412.7,156.6c-3.2-3.3-14-17.3-25.8-20.3c-8.7-2.3-17.7-2.1-26.6-0.4c-14.6,2.6-24.1,17.1-27.5,18.6
		c-1.9-3.2,1-2-0.1-5.3c0.3-3.3,2.3-5.3,4.1-7.6c11.9-15.1,27.2-20.8,44.6-19.3c6.5,0.6,11.9,5,16.7,10.3
		C404.4,139.6,409.6,147.3,412.7,156.6z"/>
	<path class="st0" d="M332.7,149.2c1.1,3.3-1.8,2.1,0.1,5.3c-0.7,4.6-0.1,12.8,0.2,16.7c0.5,6.8,1.5,13.6,2.3,20.4
		c0.3,2.2,2.4,7.1,2.5,7.6c3.2,8.4,10.2,12.3,16.4,17.3c1.1,0.9,2.5,1.1,3.1,2.7c-3.1,0.1-5.4-1.8-7.8-3.5
		c-11.1-7.8-20.1-17.4-22-32.8c-1.2-10-0.6-19.8,2.6-29.3C330.6,152.1,331.2,150.3,332.7,149.2z"/>
	<path class="st0" d="M383.3,223.9c0.6-2.9,2.7-1.5,4.1-1.8c3,1,5.9,2.1,8.6,3.9c2.7,1.8,4.7-0.2,6.7-1.6c9-6.3,15.4-15,20-25.7
		c-1.7,13.6-9.2,22-19.6,28.5c3.1,2.6,8.3,1.2,9.5,6.6l0,0c-3.6-0.7-6.5-3.3-10.2-4c-5.9-1.1-6.9-0.5-8.9,5.5
		c-1.4,4.3-3.6,8.4-5.3,12.6c-1.3,3.2-4.2,2.9-6.3,2.9c-10.1,0.3-20.2,0.9-30.2-1.5c5.3,0,10.5-0.1,15.8,0
		c5.6,0.1,11.1-0.6,16.6-0.9c2.3-0.1,3.4-1.6,3.4-3.6c0-1.9-2-1.7-3.2-1.8c-6.8-0.8-13.7-1.3-20.6-2c0-0.3,0-0.7-0.1-1
		c7.4-0.1,14.8,1.3,22.2,1.2c2.9-0.1,4.2-1.2,4.6-4.1c0.1-0.7,0.3-1.5,0.4-2.2c1.6-7.4,1-8.5-5.5-10.2
		C384.8,224.5,384,224.1,383.3,223.9z"/>
	<path class="st0" d="M398.7,212.9c1-1.9,4-5.3,4.2-5.4c1.6-1.1,6.9-11.4,7.2-15.5c1.4-8.5,2.8-17,4.1-25.5c0.2-1.2,0.1-2.5,1.7-2.6
		c0.4,5.6,2.9,10.5,3.5,16.1c0.7,6.6-0.7,12.5-4,17.8c-4.1,6.4-9.3,11.6-15.7,15.2C399.3,213,399,213,398.7,212.9z"/>
	<path class="st0" d="M410.2,299.2c-0.5,0-1.1,0-1.6,0c-1.3-14.8-0.9-29.6-0.8-44.4c0.1-10-0.2-19.4-12-23.2
		c9.3-0.7,14.9,4.9,14.4,11.8c-0.6,7.3-1.1,14.7-1.4,22.1C408.3,276.8,409.2,288,410.2,299.2z"/>
	<path class="st0" d="M369.4,320.6c-0.3,0-1.4,2.2-1.7,2.1c1.2-9.4,5.6-19.4,8.2-28c3.5-11.5,7.8-22.4,11.8-33.5
		c0.9-2.4,1.5-5.3,4.7-7C383.8,276.7,377.1,298.7,369.4,320.6z"/>
	<path class="st0" d="M423.3,283.7c0,0.3,0,0.6,0,0.9c-3-4.1-3.7-9.3-5.1-14.1c-2.2-7.7-3-15.8-5.4-23.5c-0.3-0.9,0-2.1,0.9-3.4
		C417,257,420.2,270.4,423.3,283.7z"/>
	<path class="st10" d="M398.7,212.9c0.3,0,0.7,0.1,1,0.1c-2.9,2.7-5.7,5.8-9.8,6.3C392.1,216,395.4,214.5,398.7,212.9z"/>
	<path class="st0" d="M363.7,240.1c0,0.3,0,0.7,0.1,1c-3.3-1.2-7.1-1-9.9-4.1C357.1,238.4,360.7,237.9,363.7,240.1z"/>
	<path class="st0" d="M393.1,250.1c0.3-3.3,2.3-5.4,4.2-7.6c-1.2,2.7-1.2,6.1-4.1,7.8C393.2,250.2,393.1,250.1,393.1,250.1z"/>
	<path class="st0" d="M351.1,234.8c0.3,0.2,0.7,0.4,0.8,0.7c0.2,0.5-0.2,0.9-0.6,0.7c-0.3-0.1-0.5-0.5-0.8-0.8
		C350.7,235.2,350.9,235,351.1,234.8z"/>
	<path class="st11" d="M357.2,219.3c0.6,0,1.1,0,1.7,0C358.3,220.2,357.8,220.3,357.2,219.3z"/>
	<path class="st0" d="M392.3,252c0.3-0.6,0.5-1.3,0.8-1.9l0.1,0.2C392.9,250.8,392.6,251.4,392.3,252L392.3,252z"/>
	<path class="st0" d="M392.3,252c-0.1,0.4-0.2,0.8-0.3,1.2c-0.1-0.1-0.3-0.2-0.3-0.2C391.9,252.7,392.1,252.3,392.3,252L392.3,252z"
		/>
</g>
<path class="st5" d="M332.8,164c1.3,13.3,4.4,29.8,6.6,36.4c7.7,23.2,16.4,18.2,23.1,23.1c2.6,1.9,10.7,1.7,10.7,1.7
	s8.1,0.1,10.7-1.7c8-5.6,14.8-0.9,23.1-23.1"/>
</svg>
