<?xml version="1.0" encoding="utf-8"?>
<!-- Generator: Adobe Illustrator 26.0.3, SVG Export Plug-In . SVG Version: 6.00 Build 0)  -->
<svg version="1.1" id="Calque_1" xmlns="http://www.w3.org/2000/svg" xmlns:xlink="http://www.w3.org/1999/xlink" x="0px" y="0px"
	 viewBox="0 0 788 1005" style="enable-background:new 0 0 788 1005;" xml:space="preserve">
<style type="text/css">
	.st0{fill:#D1D1D1;}
	.st1{fill:#B85727;}
	.st2{fill:#924125;}
	.st3{fill:#9CCBF2;}
	.st4{fill:#EDEDED;}
	.st5{fill:#587CC6;}
	.st6{fill:#DDDDDD;}
	.st7{fill:none;stroke:#9CCBF2;stroke-width:3.7248;stroke-linecap:round;stroke-miterlimit:10;}
</style>
<polygon class="st0" points="422.5,425 365.5,425 365.5,409.6 422.5,409.5 "/>
<path class="st1" d="M465.8,459.5c0,0-0.1,3.9-9.3,10c-10.9,7.3-6.9,21.4-8.4,28.7c-1,4.9-9.9,17.3-13.7,16.6
	c-10.8-2-16.9-16.2-26.7-20.4c-5.7-2.4-8.2-4.7-13.7-2c-5.5-2.8-8-0.5-13.7,2c-9.8,4.2-15.8,18.5-26.7,20.4
	c-3.9,0.7-12.7-11.7-13.7-16.6c-1.5-7.3,2.5-21.4-8.4-28.7c-9.2-6.1-11.6-11-11.6-11c-7-17.1-3.2-27.3,3.9-29.7
	c9.9-3.4,29.4-7,38.6-10.1c4.7-1.6,8.5-3.4,10.6-5.8l1.6-37.3l18.3-0.6h2.2l14.3,0.5l4,0.1l0.7,15.7l0.6,12.9v0.5l0.4,8.2
	c0.4,0.5,0.9,0.9,1.5,1.3c2.7,2,6.8,3.2,11.6,4.2c6.5,1.3,23.6,9,30.9,10.4c3.1,0.6,6.9,4.9,9.7,5.8
	C478.6,437.4,472.8,442.4,465.8,459.5z"/>
<path class="st2" d="M416.5,414.1c-5.4,4.2-18.8,11.4-21.3,12.6c-8.2,3.9-28.3-5-32.8-8.1c4.7-1.6,8.5-3.4,10.6-5.8l1.6-37.3h38.8
	l1.2,28.5v0.5l0.4,8.2C415.4,413.2,415.9,413.7,416.5,414.1z"/>
<path class="st1" d="M357.8,438.8C354,454.7,342,457,335,461.6c-11.1,7.2-25.8,28.1-35,37c-4.3,4.2-16.3,12.5-23.8,6.8l0,0
	c-9.4-7.8-2.6-17.6,1.1-22c7.6-8.9,25-25.4,30.7-35.2c4.3-7.3,6.7-15.2,20.3-21.9c0,0,13.5-7.5,23.1-2.2
	C357.6,427.4,359.3,432.3,357.8,438.8L357.8,438.8z"/>
<path class="st1" d="M425.9,438.8c3.8,15.9,15.8,18.2,22.8,22.8c11.1,7.2,25.8,28.1,35,37c4.3,4.2,16.3,12.5,23.8,6.8l0,0
	c9.4-7.8,2.6-17.6-1.1-22c-7.6-8.9-24.9-25.4-30.7-35.2c-4.3-7.3-6.7-15.2-20.3-21.9c0,0-13.5-7.5-23.1-2.2
	C426,427.4,424.4,432.3,425.9,438.8L425.9,438.8z"/>
<path class="st1" d="M492.3,494.9c3-10.8,13-9.1,18.5-8.6c6,0.5,61.3,15.9,76.4,19.8c8.5,2.2,13.2,3.2,12.1,7.5
	c-1,4-10.2,4.4-13.8,4c-38.8-3.8-48.1-4.9-82.7-9.7C486.4,505.7,491.5,497.6,492.3,494.9z"/>
<path class="st3" d="M588.8,506.4c0,0,8-6.2,9.8-6.7s11-3,12.4-3.7s8.3-6.1,8.9-5.3c0.2,0.3,0.6,1.1,1.1,1.8
	c0.8,1.5,0.5,3.2-0.7,4.4l-1.5,1.5c-1.2,1.1-2.6,2-4.1,2.6l-6.1,2.4l14.2,2.8l18.4,0.6c1.2,0,2.3,0.8,2.7,2l0,0
	c0.3,1.4-1,2.7-2.8,2.7l-20,0.1l22.3,4.8c1.4,0.2,2.4,1.5,2.3,2.9c0,0.1,0,0.2,0,0.3l0,0c-0.6,1.5-2.2,2.3-3.8,1.9l-23.9-5.2
	l21.5,8.2c1.3,0.3,2,1.7,1.7,2.9c-0.1,0.2-0.1,0.4-0.2,0.6l0,0c-0.9,1.2-2.5,1.7-3.9,1.2l-20.5-7.2l11.6,7.3c1.1,0.6,1.5,2,0.9,3
	c-0.1,0.3-0.3,0.5-0.5,0.7l0,0c-1,0.9-2.5,1-3.7,0.4l-13.9-6.9l-20.7-5.7l-4.5-3.8L588.8,506.4z"/>
<path class="st1" d="M293,494.8c-3-10.8-13-9.1-18.5-8.6c-6,0.5-61.3,15.9-76.4,19.8c-8.6,2.2-13.2,3.2-12.1,7.5
	c1,4,10.2,4.4,13.8,4c38.8-3.8,48.1-4.9,82.7-9.7C298.9,505.6,293.8,497.6,293,494.8z"/>
<path class="st3" d="M195.8,506.4c0,0-8-6.2-9.8-6.7s-11.1-3-12.4-3.7s-8.3-6.1-8.9-5.3c-0.2,0.3-0.6,1.1-1.1,1.8
	c-0.8,1.4-0.5,3.2,0.7,4.4l1.5,1.5c1.2,1.1,2.6,2,4.1,2.6l6.1,2.4l-14.2,2.8l-18.4,0.6c-1.2,0-2.3,0.8-2.6,2l0,0
	c-0.3,1.4,1,2.7,2.8,2.7l20,0.1l-22.3,4.9c-1.4,0.2-2.4,1.5-2.3,2.9c0,0.1,0,0.2,0,0.3l0,0c0.6,1.5,2.2,2.3,3.8,1.9l23.9-5.2
	l-21.5,8.2c-1.3,0.3-2,1.7-1.7,2.9c0.1,0.2,0.1,0.4,0.2,0.6l0,0c0.9,1.2,2.5,1.7,3.9,1.2l20.6-7.2l-11.6,7.3c-1.1,0.6-1.5,2-0.9,3
	c0.1,0.3,0.3,0.5,0.5,0.7l0,0c1,0.9,2.5,1,3.7,0.4l13.9-6.9l20.7-5.7l4.5-3.8L195.8,506.4z"/>
<path class="st4" d="M494.1,511.5l15.1-41c0.2-0.9-0.1-1.9-0.8-2.5c0,0-14.1-14-24.3-23.9c-6.2-6-13.2-11-20.9-14.9l-37.3-18.9
	c-5-2-4.8,0.2-7.1,4.8c-0.1,0.2-0.2,0.4-0.4,0.6l-14.2,15.4c-0.2,0.2-0.2,0.3-0.3,0.5c-3.8,6.9-13.9,7-18.1,0.5
	c-0.2-0.3-0.5-0.6-0.8-0.9l-15.8-10.6c-0.4-0.3-0.8-0.7-1-1.2c-2-4.6-0.4-11.3-5.2-9.3l-37.4,16c-2,0.9-3.6,2.3-4.7,3.9l-0.1-0.2
	L286,469.5c-1.5,2-2.1,4.5-1.8,6.9l8.5,31.8c1.1,8,11.5,11.1,17.1,5.1l16.7-17.6c1.6-1.7,4.6-0.7,4.7,1.7l-2.4,24.9
	c0,1-0.2,2-0.4,2.9l-3.4,10.9c-0.7,2.4-0.5,5,0.7,7.3c0.8,1.6,1.2,3.3,1.1,5c-0.2,3-0.5,7.8-0.7,11.3L312.3,643
	c-0.3,4.5,2.5,8.7,6.9,10.1c0.1,0.1,0.2,0.1,0.4,0.1l20.1,4.2c21.2,4.4,56.2,4.5,77.5,0.2c13.6-2.7,47.6-5.6,55.3-7.3
	c4.8-1.1,8.2-5.4,7.9-10.2l-18.8-79.7c-0.2-5-1.6-9.8-3.8-13.6h0.5l2-2.3c2.5-2.8,3.3-6.7,1.9-10.2c-1.6-4.2-3.7-9.5-3.7-11
	c0.1-10.6-3.8-22.5-3.8-31.5c0-2,2.4-3.3,4.2-2.2l29.9,24.9C490.3,515.4,493.6,513.2,494.1,511.5z"/>
<path class="st5" d="M412.7,662.5h-37.5c-5.6,0-10.2-4.2-10.2-9.4V427.7c0-5.2,4.6-9.4,10.2-9.4h37.5c5.6,0,10.2,4.2,10.2,9.4v225.4
	C422.8,658.2,418.3,662.5,412.7,662.5z"/>
<path class="st4" d="M417.5,412l-16.3,69.2c-0.6,2.7-0.9,5.4-0.9,8.3l-0.9,171.6c0,2.3,2.3,4,4.7,3.6l54.4-11.8l-7-229.8l-27.7-13.4
	C423.2,409.3,418.1,409.8,417.5,412z"/>
<path class="st4" d="M368.4,411.3l20.6,69.9c0.6,2.7,0.9,5.4,0.9,8.3l0.9,171.6c0,2.3-2.4,4-4.9,3.6l-57.6-11l7.7-230.6l28.3-13.1
	C366.4,409.1,368.3,410.6,368.4,411.3z"/>
<path class="st6" d="M340.9,485.1l0.8,24.6c0.1,1.4,1.2,2.6,2.6,2.8l21.9,1.6c0.7,0.1,1.4-0.2,1.9-0.6l3-2.4
	c0.8-0.6,1.2-1.4,1.1-2.5l-1.4-25.5c-0.1-1.4-1.3-2.6-2.7-2.7l-24.7-1.1c-1.8-0.1-3.2,1.4-3,3.2l0.3,2.1
	C340.9,484.9,340.9,485,340.9,485.1z"/>
<g>
	<ellipse transform="matrix(0.9715 -0.237 0.237 0.9715 -107.2218 97.4727)" class="st5" cx="351.8" cy="494.7" rx="2.3" ry="3.2"/>
	
		<ellipse transform="matrix(0.9059 -0.4234 0.4234 0.9059 -178.5561 194.2426)" class="st5" cx="347.9" cy="499" rx="2.3" ry="3.2"/>
	
		<ellipse transform="matrix(0.237 -0.9715 0.9715 0.237 -207.5184 724.9699)" class="st5" cx="357.8" cy="494.6" rx="3.2" ry="2.3"/>
	
		<ellipse transform="matrix(0.4234 -0.9059 0.9059 0.4234 -243.6909 615.3495)" class="st5" cx="361.6" cy="499.1" rx="3.2" ry="2.3"/>
	<path class="st5" d="M359.6,503.7c0,0-0.9-0.3-1.3-0.7c-0.2-0.2-0.5-0.8-0.8-1.4c-0.1-0.3-0.3-0.7-0.4-0.9v-0.1l0,0
		c-0.5-0.8-1.4-1.4-2.1-1.3c-1-0.1-2.3,0.7-2.9,2.1v0.1c-0.3,0.4-0.6,1-0.9,1.4c-0.5,0.5-1.3,0.8-1.3,0.8l0,0c-0.1,0-0.2,0-0.2,0.1
		c-1.1,0.5-1.4,2.3-0.7,3.9c0.8,1.6,2.3,2.5,3.4,1.9c0.1-0.1,0.3-0.1,0.3-0.2c0.3-0.2,1.7-0.7,2.1-0.7c0.5,0,1.8,0.8,2.1,0.9
		c1.1,0.5,2.6-0.3,3.4-1.9C361.1,506,360.8,504.3,359.6,503.7z"/>
</g>
<path class="st7" d="M371.3,411.8l-5.5,4.3c-2.1,2.1-3,5.1-2.4,8l8.9,35.2c0.6,2.7,2.5,5.1,5.2,6.2L392,472c2.9,1.3,6.2,1.1,8.9-0.3
	l16.7-9.1c2.9-1.6,4.7-4.3,4.8-7.5l1.4-30.8c0.1-2.6-0.2-6.5-2.3-8.2L417,412"/>
<line class="st7" x1="395.5" y1="473.1" x2="394.6" y2="585.3"/>
<circle class="st3" cx="394.5" cy="585.9" r="6.5"/>
</svg>
