<?xml version="1.0" encoding="utf-8"?>
<!-- Generator: Adobe Illustrator 26.0.3, SVG Export Plug-In . SVG Version: 6.00 Build 0)  -->
<svg version="1.1" id="Calque_1" xmlns="http://www.w3.org/2000/svg" xmlns:xlink="http://www.w3.org/1999/xlink" x="0px" y="0px"
	 viewBox="0 0 394.7 218.7" style="enable-background:new 0 0 394.7 218.7;" xml:space="preserve">
<style type="text/css">
	.st0{fill:#B85727;}
	.st1{fill:none;stroke:#BCBCBC;stroke-width:3.9654;stroke-linecap:round;stroke-miterlimit:10;}
	.st2{fill:#924125;}
	.st3{fill:#2B2B2B;}
	.st4{fill:#5A5A5A;}
	.st5{fill:#3D3D3D;}
	.st6{fill:#4C443F;}
	.st7{fill:none;stroke:#9B9B9B;stroke-miterlimit:10;}
</style>
<path class="st0" d="M338.2,112.4c0.5,0.8,1.4,1.3,2.4,1.4l4.2,0.4c0.7,0,1.5-0.1,2.2-0.5l22.6-14.6c0.2-0.2,0.4-0.3,0.8-0.4
	c1-0.3,1.5-1.6,1.9-3.2c0.8-3.5,0.3-7.1-1.3-10.4l-1.8-3.7c-0.2-0.4-0.3-0.8-0.7-1.2c-0.9-1.6-3.5-6-3.6-6c0,0-4.2-6.2-6.2-4.2
	c-0.1,0.1-0.2,0.2-0.4,0.3l-9.4,6.7c-1.6,1.1-3.6-0.4-3-2.3l1.5-4.2c0.1-0.4,0.1-1,0.1-1.5l-0.8-6.2c-0.1-1.4-1.1-2.6-2.5-3
	c-1.5-0.3-3.3-0.9-4.1-1c-1.2-0.2-1.3,11-1.9,12.7c-0.5,1.8-6,10.4-7,12.5c-0.8,1.8-0.8,12.3-0.8,15.7c0,0.7,0.2,1.3,0.7,2
	L338.2,112.4z"/>
<line class="st1" x1="359.5" y1="80.7" x2="360.7" y2="73.3"/>
<g id="Calque_1_00000005947739927398834880000013823124980591568053_">
	<g id="Calque_12">
		<path class="st2" d="M216.6,89.2c0,0-0.1,4.3-10.2,11c-12,8-7.6,23.5-9.2,31.5c-1.1,5.4-10.9,19-15.1,18.2
			c-11.9-2.2-18.6-17.8-29.3-22.4c-6.3-2.6-9-5.2-15.1-2.2c-6-3.1-8.8-0.5-15.1,2.2c-10.8,4.6-17.4,20.3-29.3,22.4
			c-4.3,0.8-14-12.9-15.1-18.2c-1.6-8,2.7-23.5-9.2-31.5c-10.1-6.7-12.7-12.1-12.7-12.1c-7.7-18.8-6.7-29.3,4.3-32.6
			s32.3-7.7,42.4-11.1c5.2-1.8,9.3-3.7,11.6-6.4l1.8-41l20.1-0.7h2.4l15.7,0.5L159-3l0.8,17.2l0.7,14.2V29l0.4,9
			c0.4,0.5,1,1,1.6,1.4c3,2.2,7.5,3.5,12.7,4.6c7.1,1.4,25.2,24.8,33.1,26.4c3.4,0.7-3.1-1,0,0C219.1,73.5,224.3,70.4,216.6,89.2z"
			/>
		<path class="st2" d="M162.4,39.3c-5.9,4.6-20.7,12.5-23.4,13.8c-9,4.3-31.1-5.5-36-8.9c5.2-1.8,9.3-3.7,11.6-6.4l1.8-41H159
			l1.3,31.3v0.5l0.4,9C161.2,38.3,161.8,38.9,162.4,39.3z"/>
	</g>
</g>
<path class="st0" d="M86.4,76.1C89.3,93.5,51,146.6,44,159.2c-3.3,5.9-14,19.1-25.9,16.5c-15.2-4-9.6-19.4-7.1-25.3
	c5.1-12,29.1-73.9,44.1-85c7.6-5.6,13.2-4.2,27.4-2.7C91.5,63.5,85.2,69,86.4,76.1L86.4,76.1z"/>
<path class="st0" d="M176.2,67.1c3.2,21.5,18.9,25.6,27.8,32.2c14,10.5,31,39.7,42.3,52.2c5.3,5.9,20.2,18,31,10.9l0,0
	c13.5-9.8,2.9-26.3-1.6-32.3c-9-12.4-45.9-60.9-63.4-70.9c0,0-11.1-0.9-24.6,5.4C178.9,68.8,174.8,58.2,176.2,67.1L176.2,67.1z"/>
<path class="st0" d="M260.4,158.2c6.9,10.4,19,5.9,28.8,0.8c6.9-3.7,29.3-32,46.8-43.3c9.9-6.4,10.4-9.4,6.8-15.3
	c-3.2-5.3-15.4,2.2-19.7,4.4c-43.6,21.6-54.8,26.5-54.8,26.5C249.8,143,258,154.7,260.4,158.2z"/>
<path class="st3" d="M216.9,244.3l-3.5-56l0,0c1.7-21.4,3.1-45.4,3.9-66.9c1.1-33.4,14.5-56.6,10.7-58.9
	c-10.8-6.3-23.8-11.7-36.2-15.4l-25.9-9.4l-2.2-20.1l-13.4-0.1c-4.4,0-8.2,3-9.3,7.3l-1.6,13.6l-1.6-13.6c-1.1-4.4-5.1-7.5-9.6-7.5
	l-13.2-0.1l-2.7,19.4l-21.9,7.5c-14.9,4-33.3,11-45.2,16.4c-1.3,7,15.4,24.5,15.6,48.9c0.2,23.7,1,51.8,2.4,76.6l-3.4,58.6
	c0,0.2,0,0.4,0.1,0.7c-1.5,7.9-2.8,15.6-3.6,22c-1,8.8,7.4,17,15.7,20l4.6,1.6c31.8,11.3,65.6,14.9,98.9,10.9
	c13.6-1.6,26.8-6.4,38.6-13.6c1.3-0.9,2.4-1.5,2.9-2c5.3-5.1,6.8-12.9,4.5-19.7L216.9,244.3z"/>
<g>
	<path class="st4" d="M342.6,76c0.3-0.1,0.7-0.3,0.9-0.5c2.1-1.6,3.5-1.5,5.4,0.3c4.4,4.5,8.8,9.1,13.1,13.7c2,2,1.9,3.6-0.2,5.6
		c-1.1,1-2.2,2.1-3.4,3.2c-2.1,2-3.6,1.9-5.6-0.2c-4.4-4.5-8.7-9.1-13-13.6c-2-2.1-2-3.4-0.2-5.6c0.3-0.3,0.1-1,0.2-1.5
		c-0.3-0.2-0.5-0.2-0.9-0.4c-6.7,6.3-13.2,12.6-20,19.1c-0.4-0.9-1.1-1.8-1.5-2.7c-0.4-0.8-0.3-1.9-0.9-2.4
		c-4.6-4.9-9.2-9.9-14-14.7c-0.4-0.3-1.2-1-1.5-0.9c-2,0.7-2.4-1-3.5-1.9c0.3-0.4,0.7-0.9,1-1.3c-1.2-1.2-0.9-2.3,0.2-3.3
		c1.2-1.2,2.3-2.5,3.8-0.9c3.2-3.1,6.4-6,9.2-8.8c-0.9-0.8-2-1.4-2.7-2.4c-0.7-1-1.3-1.2-2.3-1.2c-0.7,0-1.2-0.1-1.9-0.2
		c0-1.1,0.1-2.1,0.1-3.2c0.8,0,1.5,0.1,2.3,0c0.5-0.1,1.2-0.3,1.5-0.8c2.7-3.5,6.2-3.4,8.7,0.3c0.7,0.9,1.2,0.9,2,0.3
		c0.2-0.2,0.4-0.4,0.7-0.7c0.9-0.8,1.9-2.3,3.2-0.9c1.4,1.4-0.1,2.4-1.1,3.3c-1.2,1-2.5,2-4,3.2c0.9,1,1.3,1.5,1.9,2.1
		c2.4-1.1,3.2-1,5.1,0.9c2.6,2.9,5.4,5.6,8,8.5c2.1,2.2,2.2,2.9,1,5.4c0.5,0.5,1,1.1,1.4,1.6c2.1-0.8,0-1.5,0.1-2.3
		c0.1-0.1,0.1-0.1,0.2-0.2c0.9-1,2-1.3,3.3-1.8c1.5-0.5,2.7-2.2,4.1-3.4c-0.7-0.9-1.1-1.4-1.4-1.9c0.8-0.8,1.4-1.5,2.1-2.3
		c0.8,0.8,1.4,1.4,2.1,2.1c1.2-0.8,2.2-2.6,3.7-1.1c1.5,1.5-0.3,2.4-1.2,3.6c0.5,0.7,1.2,1.3,1.6,1.9c-0.8,0.8-1.4,1.4-2.2,2.3
		c-0.4-0.4-1-1-1.2-1.2c-1.5,1.3-3,2.5-4.5,3.8C342.3,74.9,342.4,75.2,342.6,76z M316.5,59.8c-1.9,1.9-3.8,3.8-6,5.8
		c0.3,0.3,0.8,0.8,1.3,1.3c2.4-1.2,3.3-1,5.2,1c2.9,3,5.6,5.9,8.5,8.9c1.5,1.6,1.6,2.6,0.3,4.8c0.5,0.5,1.2,1,1.8,1.4
		c2-1.9,4-3.7,6.2-5.8c-0.5-0.4-1.1-0.9-1.9-1.4c-2.1,1.5-3.7,0.4-5.3-1.3c-2.6-2.9-5.3-5.5-7.9-8.3c-1.8-1.9-1.9-2.9-0.5-5.2
		C317.4,60.6,316.8,60.1,316.5,59.8z M304.5,70.6c5.6,5.9,11.3,12,16.9,17.9c1.1-1,2.2-2,3.4-3.2c-0.3-0.3-0.9-0.9-1.4-1.5
		c-2.4,1.6-4.1,0.4-5.6-1.3c-2.6-2.9-5.3-5.5-7.9-8.3c-1.6-1.8-1.8-2.6-0.4-4.9c-0.5-0.4-1.2-0.9-1.9-1.4
		C306.5,68.7,305.4,69.8,304.5,70.6z M314.5,53.6c0-0.7-1-1.5-1.5-1.5s-1.5,1-1.5,1.5c0,0.5,0.8,1.2,1.6,2.3
		C313.9,54.7,314.7,54.1,314.5,53.6z"/>
	<path class="st4" d="M366.8,110.2c-3.2-3.4-6.5-6.7-9.4-9.9c1.3-1.2,2.7-2.5,4.1-3.8c3,3.2,6.2,6.6,9.2,9.9
		C369.2,107.7,367.9,109,366.8,110.2z"/>
	<path class="st5" d="M378.2,119.3c-3.1-2.6-6-5.2-9.2-7.9c1.2-1,1.9-1.5,2.9-2.4c2.4,3.3,4.8,6.5,7.1,9.6
		C378.8,118.8,378.6,119,378.2,119.3z"/>
</g>
<path class="st6" d="M27.8,137.3c-0.6-3.8,2.2-6.5,5.8-5.9c1.6,0.3,3.2,1.1,4.6,1.8c2.3,1.1,4.4,2.7,6.7,3.8c3.6,1.6,8.4-2,7.4-6.3
	c-0.5-2.2-1.7-3.6-3.6-4.7c-3.2-1.6-6.5-1.5-9.8-0.8c-1.3,0.4-2.6,0.7-3.8,0.6c-4-0.3-6.6-3.9-5.9-7.8c0.8-4,4.6-6.8,8.5-6.1
	c1,0.4,2.2,0.8,3.3,1.2c3.5,1.4,7,2.8,10.6,3.9c0.8,0.2,1.7,0.2,2.3-0.2c1.7-1.1,2.4-2.8,2.3-4.8c-0.2-2-1.6-3-3.2-3.7
	c-1.9-0.9-3,0.5-4.2,1.4c-0.7,0.6-1.8,1.3-2.6,1.2c-1.3,0-2.8-0.7-4-1.2c-1.2-0.4-1.1-1.4-0.4-2c0.8-0.9,2-2,3.1-2.4
	c2.9-1.2,5.7-1.4,8.7-0.6c3.9,1,6.5,5.1,5.7,8.7c-0.9,4.7-6,7.9-10.7,6.7c-2.1-0.6-4-1.6-6.1-2.1c-1.8-0.5-3.5-1-5.3-1.3
	c-1-0.1-2.3,0.3-2.6,1.4c-0.3,1.3,0.6,2.3,1.6,2.6c1.2,0.5,2.5,0.7,3.9,0.9c2.4,0.3,4.8,0,7.1,0.4c4.4,0.5,7.6,3.3,8.4,7.2
	c1.3,6.1-2.3,11.7-8.3,12c-2.2,0.1-4.2-0.6-6.2-1.6c-2.2-1.1-4.3-2.3-6.4-3.4c-1.3-0.8-2.5-0.4-3.3,1.1c-0.9,1.6-0.8,3.3,0.2,4.7
	c1.3,1.9,2.8,3.5,4.2,5.4C31.8,145.3,28.7,142.3,27.8,137.3z M48,108.3c0-0.2-0.2-0.3-0.2-0.4c-0.3,0.3-0.7,0.6-1,0.9
	c0.2,0.1,0.3,0.2,0.3,0.3C47.3,108.9,47.8,108.6,48,108.3z"/>
<g>
	<path class="st4" d="M45.7,110.4l6.5,105.2c0.1,2.3,1.6,4.3,3.8,4.9l65.4,20.7c3.5,1.1,7.1-1.4,7.3-5.2l4.1-106.2
		c0.1-2.6-1.6-4.9-4.2-5.6l-75.9-19.7C49,103.7,45.5,106.6,45.7,110.4z"/>
	<g>
		<path class="st7" d="M121.5,127.2c-2.1,0-3.7-1.6-3.7-3.7c0-2.1,1.6-3.7,3.7-3.7c2.1,0,3.7,1.6,3.7,3.7"/>
		<path class="st7" d="M98,121.2c-2.1,0-3.7-1.6-3.7-3.7s1.6-3.7,3.7-3.7c2.1,0,3.7,1.6,3.7,3.7"/>
		<path class="st7" d="M109.7,123.9c-2.1,0-3.7-1.6-3.7-3.7c0-2.1,1.6-3.7,3.7-3.7c2.1,0,3.7,1.6,3.7,3.7"/>
		<path class="st7" d="M85,118c-2.1,0-3.7-1.6-3.7-3.7c0-2.1,1.6-3.7,3.7-3.7c2.1,0,3.7,1.6,3.7,3.7"/>
		<path class="st7" d="M61.5,111.8c-2.1,0-3.7-1.6-3.7-3.7c0-2.1,1.6-3.7,3.7-3.7s3.7,1.6,3.7,3.7"/>
		<path class="st7" d="M73.3,114.7c-2.1,0-3.7-1.6-3.7-3.7c0-2.1,1.6-3.7,3.7-3.7c2.1,0,3.7,1.6,3.7,3.7"/>
	</g>
</g>
<g>
	<path class="st0" d="M9,160.1c3.4-11.9,16.1-10,26.9-6.8c7.7,2.2,43.5,19.5,63.4,27c11.2,4.2,17.3,6.2,15.7,12.7
		c-1.4,5.8-55.9,0.3-90.4-7.8C3,180.1,7.9,164.1,9,160.1z"/>
	<path class="st0" d="M93.9,178.6c5.2,0.1,17.5-4.3,19.4-5.2s18.8-0.3,18.9,0.8c0,1.1-1.4,4.2-1.4,4.2l-10.9,2.2l20.5,7.1
		c0,0,13.2,4.2,16.7,7c1,0.8-2.8,3.6-2.8,3.6l-21.3-3.1l-11.5,8.5c-3.6,2.7-8.4,3-12.4,0.9c-4.4-2.4-9.7-5.3-11-6.5
		c-0.7-0.6-5.6-4.9-4.9-7.8C93.7,188.3,93.9,178.6,93.9,178.6z"/>
</g>
<path class="st6" d="M83.7,183.1c-0.1,0-0.2-0.1-0.3-0.1c-0.1,0.2-0.3,0.4-0.4,0.8c0,0,0.3,0.2,0.5,0.3c-0.2,1.2-0.9,0.2-1.3,0.3
	c-0.1-0.3-0.3-0.7-0.3-1c0-0.2,0.1-0.8,0.2-0.8c0.5-0.1,1.1-0.5,1.6-0.1c0.3,0.2,0.8,0.3,1.2,0.4c-0.2,0.1-0.3,0.3-0.4,0.5
	c0.1,0,0.3,0.1,0.4,0.1c-0.1-0.2-0.1-0.4-0.1-0.7c0.5,0.1,1,0.3,1.4,0.4c-0.3,0.1-0.7,0.2-1,0.3c0,0.1,0,0.1,0,0.2
	c0.3,0,0.5,0.1,1,0.2c-0.1-0.3-0.1-0.5-0.1-0.8c0.5,0.1,1.2,0.3,1.8,0.5c1.2,0.4,1.2,0.5,1.9-0.5c-0.1,0.3-0.1,0.7-0.1,1
	c0.3-0.4,0.5-0.8,0.8-1.2c-0.2,0.1-0.4,0.1-0.7,0.2c0.1,0,0.1-0.1,0.1-0.1c0.3-0.1,0.5-0.2,0.9-0.3c0.1,0,0.3,0.4,0.3,0.4
	c-0.2,0.2-0.4,0.4-0.8,0.9c0.1,0.4,0.3,0.7,1,0.5c0.3-0.1,0.8-0.1,1,0c1.8,1,3.5,1.9,5.2,2.9c0.5,0.3,0.8,0.8,1.3,1.3
	c-0.4,0.1-0.7,0.2-1,0.2c-2.3,0.1-4.5-0.3-6.7-1c-0.2-0.1-0.4-0.3-0.7-0.5c-0.4-0.5-0.8-0.5-1.1-0.2c0,0.5,0.1,0.9,0,1.2
	c0,0-0.5,0.1-0.5,0c-0.2-0.3-0.2-0.7-0.3-1c0-0.1,0.1-0.2,0.1-0.3c0.1-0.4,0-0.9-0.5-1c-0.7-0.2-1.3-0.3-1.9-0.7
	c-1-0.4-2.3-0.2-2.6-1.6C83.5,183.8,83.6,183.4,83.7,183.1z M90.7,186c1,0,1.8,0.9,2.7,0.4c0.7,1.6,2.4,1.5,3.8,2.1
	c-2-1.9-4.1-3.3-6.9-2.9c0.1,0.2,0.1,0.4,0.2,0.8c-0.2,0.1-0.4,0.3-0.7,0.4c1,1,2.1,1.6,3.5,1.9c1.3,0.1,2.6,0.4,4.1,0.1
	c-1.8-1-3.5-1.2-4.6-0.8c-0.5-1-1.5-0.8-2.4-1.2c0.3-0.2,0.4-0.3,0.8-0.4C91.2,186.2,91.1,186,90.7,186z M88.2,184.9
	c-0.2,0.1-0.4,0.5-0.3,0.8c0.3,0.5,0.8,0.2,1.3,0C88.9,185.2,88.8,184.5,88.2,184.9z M86,185.1c-0.3-0.2-0.7-0.4-0.9-0.5
	c0,0.1-0.1,0.1-0.1,0.2C85.1,185,85.2,185.5,86,185.1z M88.8,187.1h-0.1c-0.1,0.4-0.1,0.9-0.2,1.3c0.1,0,0.2,0,0.3,0
	C88.8,188,88.9,187.5,88.8,187.1z M84.1,184.9c0.1,0.1,0.3-0.1,0.4-0.1c0-0.1,0-0.3-0.1-0.3c-0.1-0.1-0.3,0-0.5,0
	C84,184.7,84,184.9,84.1,184.9z M87.3,184.2c-0.1,0-0.1-0.1-0.1-0.2c-0.3,0.1-0.5,0.1-0.8,0.2c0,0.1,0.1,0.2,0.1,0.3
	C86.9,184.5,87.1,184.4,87.3,184.2z M86.7,185.8c0.1,0,0.1-0.1,0.2-0.1c-0.1-0.2-0.3-0.4-0.4-0.7c-0.1,0-0.1,0.1-0.2,0.1
	C86.3,185.3,86.6,185.5,86.7,185.8z"/>
<g>
	<path class="st6" d="M11,168.5c1.2-5.1,4.5-9.1,6.8-13.7c0.3,0.1,0.7,0.3,1,0.4c-2.1,4.7-4.2,9.3-6.3,14.1
		C12,168.9,11.4,168.7,11,168.5z"/>
	<path class="st6" d="M24.4,169.1c-3.6,1-7.4,2.1-11.1,3.1c-0.1-0.7-0.3-1.2-0.4-1.8c3.8-0.9,7.6-1.6,11.3-2.5
		C24.3,168.3,24.4,168.6,24.4,169.1z"/>
	<path class="st6" d="M9.7,159.5c-0.2,2.4-0.3,4.7-0.4,7c-0.4,0-0.9-0.1-1.3-0.1c0.1-2.3,0.2-4.6,0.3-6.9
		C8.7,159.5,9.1,159.5,9.7,159.5z"/>
	<path class="st6" d="M12.7,173.5c1,1.4,2,2.9,3,4.3c-0.3,0.2-0.7,0.4-1,0.7c-1-1.4-2-2.9-3-4.3C12.1,173.9,12.4,173.7,12.7,173.5z"
		/>
</g>
<g>
	<path class="st6" d="M70.8,188.8c-0.1,0-0.2,0.1-0.3,0.1c-1-1.6-1.9-3.2-2.9-4.8c-0.4,0.7-0.1,1.1,0,1.6c0.1,0.3,0.2,0.8,0.1,1.1
		c0,0.4-0.4,0.8-0.4,1.2c-0.1,0.4,0,0.9,0.1,1.3c-0.8-0.2-0.9-0.7-0.9-1.5c0-0.5,0-1.2-0.2-1.8c-0.1-0.5-0.5-1-0.9-1.4
		c-0.9,1.5-1.6,3-2.4,4.5c0,0-0.1-0.1-0.2-0.1c0.4-1.6,0.9-3.3,1.3-4.9c-0.3,0.1-0.8,0.2-1.1,0.3c-0.8,0.1-1.4,0.5-1.9,1.2
		c-0.1,0.3-0.4,0.5-0.7,0.8c-0.4,0.2-0.7,0.2-0.9,0c0.3-0.4,0.8-0.9,1-1.4c0.2-0.8,0.5-1.3,1.3-1.6c0.7-0.2,0.8-0.4,0.8-1
		c-1.8,0.5-3.5,1.1-5.3,1.6c0-0.1-0.1-0.2-0.1-0.3c1.5-1,3.1-1.9,4.7-2.9c-0.5-0.4-1-0.1-1.5,0c-0.3,0.1-0.8,0.2-1.1,0.1
		c-0.4,0-0.8-0.3-1.2-0.4c-0.4-0.1-0.9,0.1-1.3,0.1c0.3-0.7,0.7-0.9,1.5-0.8c0.7,0.1,1.3,0.1,2-0.3c0.4-0.3,0.8-0.5,1.2-0.9
		c-1.5-0.9-3-1.6-4.5-2.4c0-0.1,0.1-0.2,0.1-0.3c1.6,0.3,3.3,0.8,4.9,1.2c-0.1-0.7-0.2-1.2-0.4-1.6c-0.3-0.5-0.9-1.1-1.3-1.5
		c-0.7-0.7-0.8-1-0.5-1.4c0.4,0.3,0.9,0.8,1.4,1c0.7,0.2,1.2,0.4,1.5,1.2c0.2,0.4,0.5,0.9,1.1,0.9c-0.5-1.8-1.1-3.5-1.6-5.3
		c0.1,0,0.2-0.1,0.3-0.1c1,1.6,1.9,3.2,2.9,4.8c0.3-0.5,0.1-1,0-1.5c0-0.4-0.1-1,0-1.3c0.3-0.8,0.7-1.4,0.1-2.3
		c0.9,0.2,1.2,0.5,1,1.3c-0.3,1.4,0.5,2.3,1.2,3.4c0.9-1.5,1.6-3,2.4-4.5c0.1,0,0.2,0.1,0.3,0.1c-0.3,1.6-0.8,3.3-1.2,4.9
		c0.3-0.1,0.7-0.2,1-0.3c0.2-0.1,0.5-0.1,0.8-0.2c0.5-0.4,1-0.8,1.3-1.2c0.5-0.7,1-0.9,1.6-0.4c-0.7,0.3-1.2,0.7-1.3,1.4
		c-0.1,0.7-0.5,1.1-1.2,1.4c-0.4,0.2-0.9,0.4-0.9,1.1c1.8-0.5,3.5-1.1,5.3-1.6c0,0.1,0.1,0.2,0.1,0.3c-1.5,0.9-3.2,1.9-4.7,2.7
		c0.1,0,0.1,0.1,0.1,0.2c0.4-0.1,1-0.1,1.4-0.2c0.4-0.1,0.9-0.2,1.2-0.1c0.9,0.3,1.5,0.9,2.5,0.1c-0.3,0.9-0.7,1.1-1.5,1
		c-0.8-0.1-1.4-0.1-2,0.3c-0.4,0.3-0.9,0.5-1.3,0.9c1.5,0.9,3,1.6,4.5,2.4c0,0.1-0.1,0.2-0.1,0.3c-1.6-0.3-3.3-0.8-4.9-1.2
		c0.1,0.5,0.2,1,0.3,1.4c0.2,0.8,0.7,1.2,1.3,1.6c0.8,0.5,0.9,1,0.4,1.8c-0.1-1.1-1-1.2-1.8-1.5c-0.3-0.1-0.7-0.5-0.9-0.9
		c-0.3-0.4-0.5-1-1.2-1.1C70,185.1,70.5,186.9,70.8,188.8z M68.9,176.1c-0.5-0.5-1.2-0.7-1.9-0.7c-2-0.2-3.8,1.2-4.3,3.3
		c-0.4,1.9,0.7,4,2.6,4.6c1.8,0.5,3.5,0.3,4.8-1.5c1.1-1.5,1-3.6-0.3-5.1c-0.5-0.7-0.8-0.7-1.4,0C68.7,176.5,68.8,176.3,68.9,176.1z
		 M60.7,180.5c0.5-0.2,1.1-0.2,1.8-0.3c0-0.3,0-0.9,0-1.4c-1.3,0.1-2.2,1.6-3.6,1.2C59.4,180.4,60,180.7,60.7,180.5z M70.3,176.6
		c0.2-0.3,0.5-0.8,0.9-0.9c1-0.3,1.3-1.1,1.4-2.1c-0.5,1.5-2.3,1.2-3.4,2C69.6,176.1,70,176.3,70.3,176.6z M63,177.2
		c0.4-0.4,0.8-0.8,1-1.1c-0.4-0.4-0.9-0.9-1.1-1.3c-0.4-0.8-1-1-1.8-1C62.6,174.4,62.2,176.1,63,177.2z M71.3,180.3
		c1.3-0.1,2.1-1.6,3.6-1.2c-0.7-0.5-1.2-0.8-2-0.4c-0.4,0.1-1.1,0.1-1.6,0.2C71.3,179.3,71.3,179.7,71.3,180.3z M65.9,183.8
		c0.1,0.4,0.2,0.9,0.4,1.1c0.7,0.9,1,1.6,0.8,2.9c0.7-0.9,0.9-1.6,0.4-2.5c-0.2-0.3-0.1-0.9-0.1-1.3
		C67.1,183.9,66.6,183.9,65.9,183.8z M66,173.7c0.2,0.4,0.1,0.9,0.1,1.3c0.4,0,0.9,0,1.5,0c-0.1-0.3-0.2-0.8-0.4-1.1
		c-0.7-0.8-1-1.6-0.8-2.7C65.8,172.1,65.7,172.9,66,173.7z M70.6,181.8c-0.3,0.4-0.8,0.8-1,1.1c0.4,0.4,0.9,0.9,1.1,1.3
		c0.4,0.8,1,0.9,1.8,1C71.2,184.5,71.5,182.9,70.6,181.8z M62.5,183.2c-1.3,0.5-1.1,1-1.4,2.1c0.7-1.5,2.4-1.2,3.4-2
		c-0.4-0.3-0.8-0.7-1.1-1C63,182.7,62.8,183.1,62.5,183.2z M70.7,177.3c0.1,0.1,0.1,0.1,0.1,0.2c0.4-0.1,0.9-0.3,1.3-0.4
		c0.1,0,0.1,0.1,0.1,0.1c-0.4,0.2-0.8,0.4-1.2,0.7c0,0.1,0.1,0.1,0.1,0.2c1.2-0.7,2.4-1.3,3.6-2c-0.1-0.1-0.1-0.1-0.1-0.2
		C73.4,176.3,72.1,176.7,70.7,177.3z M68.4,183.7c-0.1,0-0.1,0.1-0.2,0.1c0.7,1.2,1.3,2.4,2,3.6c0.1-0.1,0.1-0.1,0.2-0.1
		c-0.4-1.3-0.9-2.6-1.3-4c-0.1,0.1-0.2,0.1-0.3,0.1c0.2,0.4,0.3,0.9,0.4,1.3h-0.1C68.9,184.4,68.7,184,68.4,183.7z M72.6,181.9
		L72.6,181.9c-0.5-0.1-1.2-0.3-1.8-0.4c-0.1,0-0.1,0.1-0.1,0.2c1.4,0.3,2.7,0.8,4.1,1.1c0.1-0.1,0.1-0.1,0.1-0.2
		c-1.2-0.7-2.5-1.2-3.7-1.9c0,0.1-0.1,0.1-0.1,0.2C71.6,181.1,72.2,181.5,72.6,181.9z M58.8,176.1c-0.1,0.1-0.1,0.1-0.1,0.2
		c1.2,0.7,2.5,1.2,3.7,1.9c0-0.1,0.1-0.1,0.1-0.2c-0.5-0.3-1.1-0.5-1.6-0.9l0,0c0.7,0.2,1.2,0.3,1.9,0.5c0.1,0,0.1-0.1,0.1-0.2
		C61.5,177.1,60.2,176.7,58.8,176.1z M65.2,175.3c0.1,0,0.1-0.1,0.2-0.1c-0.7-1.2-1.3-2.4-2-3.6c-0.1,0.1-0.1,0.1-0.2,0.1
		c0.4,1.3,0.9,2.5,1.3,3.8c0.1-0.1,0.1-0.1,0.2-0.1c-0.1-0.4-0.3-0.9-0.4-1.3h0.1C64.7,174.5,64.9,175,65.2,175.3z M61.5,181.8v-0.1
		c0.4-0.2,0.8-0.4,1.2-0.7c0-0.1-0.1-0.1-0.1-0.2c-1.2,0.7-2.4,1.3-3.6,2c0.1,0.1,0.1,0.1,0.1,0.2c1.3-0.4,2.6-0.9,4-1.3
		c-0.1,0-0.1-0.1-0.1-0.2C62.4,181.6,62,181.7,61.5,181.8z M68.1,175.1c0.1,0,0.1,0.1,0.2,0.1c0.2-0.4,0.4-1,0.7-1.4h0.1
		c-0.2,0.5-0.3,1-0.4,1.5c0.1,0.1,0.1,0.1,0.2,0.1c0.3-1.3,0.8-2.5,1.1-3.8c-0.1,0-0.1-0.1-0.2-0.1
		C69.2,172.7,68.5,173.9,68.1,175.1z M63.7,187.4c0.1,0.1,0.1,0.1,0.2,0.1c0.5-1.2,1.2-2.4,1.8-3.6c-0.1,0-0.1-0.1-0.2-0.1
		c-0.2,0.4-0.5,1-0.8,1.4h-0.1c0.1-0.5,0.3-1,0.4-1.5c-0.1-0.1-0.1-0.1-0.2-0.1C64.5,184.8,64,186.1,63.7,187.4z"/>
	<path class="st6" d="M65.4,182.1c0,0-0.2,0.1-0.3,0.1l-0.1-0.2c0.1-0.1,0.1-0.3,0.2-0.3c0.7-0.1,0.7-0.7,0.5-1
		c-0.1-0.4,0-0.4,0.3-0.5c0.1,0.1,0.2,0.3,0.2,0.4C65.9,181.1,65.7,181.6,65.4,182.1z"/>
	<path class="st6" d="M66.8,177.6c0.1-0.3,0.2-0.5,0.2-0.9c0.1-0.1,0-0.2,0-0.3h0.2c0.1,0.1,0.1,0.3,0.1,0.4c0,0.2-0.2,0.5-0.2,0.8
		c0,0.7,0,0.7-0.8,0.8C66.6,178.1,66.8,178,66.8,177.6z"/>
	<path class="st6" d="M64.7,178.1c-0.1-0.1-0.2-0.2-0.3-0.3c0.1-0.1,0.3-0.2,0.5-0.3c0-0.1-0.1-0.2-0.2-0.3c0.1,0,0.2,0,0.4,0
		C64.9,177.4,64.8,177.7,64.7,178.1z"/>
	<path class="st6" d="M66,178.7c-0.1-0.4-0.3-0.8-0.4-1.1c0.1-0.1,0.1-0.1,0.2-0.1c0.1,0.3,0.2,0.8,0.3,1.1
		C66,178.6,66,178.6,66,178.7z"/>
	<path class="st6" d="M69,176.6c0.2-0.1,0.3-0.1,0.5-0.1c-0.2,0.2-0.3,0.3-0.5,0.5C69,177,69,176.7,69,176.6z"/>
	<path class="st6" d="M65.6,179.8c-0.3,0.1-0.5,0.3-0.9,0.4c0-0.1-0.1-0.1-0.1-0.2c0.3-0.1,0.5-0.3,0.9-0.4
		C65.5,179.6,65.5,179.7,65.6,179.8z"/>
	<path class="st6" d="M68.8,181c0.1-0.5,0.3-1,0.5-1.5C69.1,180,69,180.5,68.8,181z"/>
	<path class="st6" d="M63.7,179.9c0.1-0.1,0.3-0.1,0.4-0.2l0,0c-0.1,0.1-0.1,0.3-0.2,0.5C63.8,180,63.7,179.9,63.7,179.9z"/>
	<path class="st6" d="M64.1,179.5c-0.1-0.1-0.3-0.1-0.4-0.2c0.1-0.1,0.1-0.1,0.1-0.2c0.1,0.1,0.3,0.1,0.4,0.2
		C64.3,179.3,64.3,179.4,64.1,179.5z"/>
	<path class="st6" d="M67.8,179.7c0-0.2,0.1-0.3,0.1-0.4H68c0,0.1,0,0.3,0,0.4C68,179.7,67.9,179.7,67.8,179.7z"/>
	<path class="st6" d="M67.6,180.5c0-0.2,0.1-0.3,0.2-0.4l0.1,0.1C67.8,180.3,67.7,180.4,67.6,180.5
		C67.6,180.5,67.6,180.4,67.6,180.5z"/>
</g>
<path class="st0" d="M344.8,72.9l7.7-5.1c3.2-2.1,7.5-1.2,9.6,2l12.1,18c2.1,3.2,1.2,7.5-2,9.6l-7.7,5.1c-3.2,2.1-7.5,1.2-9.6-2
	l-12.1-18.1C341,79.3,341.6,75,344.8,72.9z"/>
</svg>
