<?xml version="1.0" encoding="utf-8"?>
<!-- Generator: Adobe Illustrator 26.0.3, SVG Export Plug-In . SVG Version: 6.00 Build 0)  -->
<svg version="1.1" id="Calque_1" xmlns="http://www.w3.org/2000/svg" xmlns:xlink="http://www.w3.org/1999/xlink" x="0px" y="0px"
	 viewBox="0 0 381.1 224.1" style="enable-background:new 0 0 381.1 224.1;" xml:space="preserve">
<style type="text/css">
	.st0{fill:#B85727;}
	.st1{fill:none;stroke:#383434;stroke-width:5;stroke-linecap:round;stroke-miterlimit:10;}
	.st2{fill:#383434;}
	.st3{fill:#924125;}
	.st4{fill:#DBD1C1;}
	.st5{fill:#B22947;}
</style>
<g>
	<path class="st0" d="M33.7,77.3c0.6-0.2-4.2-1.8-4-2.4c0.9-2.3,7.8-8.6,8.3-10.4c0.6-2.1,2-11.8,2.7-13.4c0.7-1.7,7.6-9.7,6.5-10.3
		c-0.6-0.4-2.2-1.2-3.6-1.8c-1.3-0.6-2.7-0.4-3.7,0.6l-4.4,4.1c-0.3,0.3-0.6,0.8-0.8,1.2l-1.5,3.9c-0.6,1.8-3.2,1.6-3.6-0.2l0.2-2.9
		c-0.1-0.2-2.9-5.9-2.9-6c-1.4-2.5-7.1-0.7-7.1-0.7c-0.1-0.1-4.7,1.5-6.4,2.1c-0.4,0.2-0.8,0.3-1.3,0.5l-3.7,1.7
		c-3.2,1.4-5.7,3.7-7.4,6.7c-0.6,1.4-1.2,2.6-0.6,3.5c0.2,0.2,0.2,0.5,0.2,0.7l7.3,22c0.2,0.7,0.7,1.4,1.3,1.8l3.3,2.2
		c0.8,0.5,6.2,5.5,7.2,5.3L33.7,77.3z"/>
	<g>
		<line class="st1" x1="15.2" y1="53.8" x2="369.3" y2="53.8"/>
		<path class="st2" d="M367.4,86.8l11.5-5.3c1.9-0.9,3.1-2.9,2.9-4.9c-0.6-7.2-2.2-22.6-4.4-23.9c-2-1.2-8.2-0.9-11.4-0.7
			c-1.3,0.1-0.7,1.9-0.7,1.9s7.2-0.9,6.5,1.6l-9.7,26.4C360.8,85.1,364.1,88.2,367.4,86.8z"/>
	</g>
	<path class="st0" d="M26.5,55.1l-11.3,4.6c-3.5,1.4-7.6-0.2-9.1-3.8l0,0c-1.4-3.5,0.3-7.6,3.9-9.1l11.3-4.6
		c3.5-1.4,7.6,0.2,9.1,3.8l0,0C31.7,49.6,30,53.6,26.5,55.1z"/>
	<path class="st0" d="M238.7,90.5c0,0-0.1,4.1-9.8,10.5c-11.5,7.7-7.3,22.5-8.8,30.2c-1.1,5.2-10.4,18.2-14.4,17.5
		c-11.4-2.1-17.8-17.1-28.1-21.5c-6-2.5-8.6-4.9-14.4-2.1c-5.8-2.9-8.4-0.5-14.4,2.1c-10.3,4.4-16.6,19.5-28.1,21.5
		c-4.1,0.7-13.4-12.3-14.4-17.5c-1.6-7.7,2.6-22.5-8.8-30.2c-9.7-6.4-12.2-11.6-12.2-11.6c-7.4-18-6.4-28.1,4.1-31.3
		c10.5-3.2,30.9-7.4,40.6-10.6c4.9-1.7,8.9-3.6,11.2-6.1l1.7-39.3l19.3-0.6h2.3l15.1,0.5l4.2,0.1l0.7,16.5l0.6,13.6v0.5l0.4,8.6
		c0.4,0.5,0.9,0.9,1.6,1.4c2.8,2.1,7.2,3.4,12.2,4.4c6.8,1.4,32.1,8.4,39.8,9.9c3.3,0.6-2.9-0.9,0,0C249.2,60.1,246,72.5,238.7,90.5
		z"/>
	<path class="st3" d="M186.8,42.8c-5.7,4.4-19.8,12-22.4,13.3c-8.6,4.1-29.8-5.3-34.5-8.5c4.9-1.7,8.9-3.6,11.2-6.1l1.7-39.3h40.8
		l1.3,30v0.5l0.4,8.6C185.6,41.8,186.2,42.3,186.8,42.8z"/>
	<path class="st4" d="M111.1,63.4c9.5,14.2-0.9,22.3-4.3,29.5c-5.4,11.5-2.8,35.2-4.8,46.8c-0.9,5.5-6.2,18.2-18.9,17.8l0,0
		c-16.3-1.1-16.9-14.8-16.7-20.1c0.3-10.8-4.6-55.8,3.8-68.1c0,0,7.6-12.8,22.1-13.9C101.5,54.8,107.3,57.6,111.1,63.4L111.1,63.4z"
		/>
	<path class="st0" d="M91.4,151.8c-10.7,6.3-18.5,0.6-24.1-5.2c-4-4.1-36.7-47-45.8-58.6c-5.2-6.5-8.1-9.9-2.4-13.4
		c5.1-3.3,13.3,1.7,16.5,3.5c30.1,17.5,51.5,32.1,62.2,52.4C104.6,144.1,95,149.7,91.4,151.8z"/>
	<path class="st4" d="M217.6,63.1c-9.5,14.2,0.9,22.3,4.3,29.5c5.4,11.5,2.8,35.2,4.8,46.8c0.9,5.5,6.2,18.2,18.9,17.8l0,0
		c16.3-1.1,16.9-14.8,16.7-20.1c-0.3-10.8,4.6-55.8-3.8-68.1c0,0-7.6-12.8-22.1-13.9C227.3,54.3,221.5,57.3,217.6,63.1L217.6,63.1z"
		/>
	<path class="st0" d="M241.6,147.9c12.1,2.8,17.9-4.8,21.6-12c2.6-5.1,21.3-55.8,26.5-69.5c2.9-7.8,4.8-11.8-1.6-13.5
		c-5.8-1.6-12.2,5.5-14.7,8.2c-23.7,25.6-39.8,45.8-44,68.4C226.8,144.4,237.5,147,241.6,147.9z"/>
	<path class="st0" d="M293.9,29.7c3.1-2.3,6-4.8,8.6-7.6c1.4-1.4,3.8-0.8,4.4,0.9c0.2,0.7,0.3,1.4,0.2,2c-0.3,1.7-6.2,8.8-6.2,8.8
		l0,0c28.6-11.2,51.5-16.8,54.8-17.4c0,0,0,0,0.1,0c2.9-0.4,4.1,3.8,1.4,5.1c-8.6,3.7-22,9.4-26.7,11.6
		c-24.9,11.9-30.8,18.2-38.5,28.7c-1.4,1.9-17.1-0.1-14.7-4.2c0.8-1.4-0.5-9.5,1.5-11.7C286.6,37.5,293.6,29.9,293.9,29.7z"/>
	<path class="st4" d="M223.6,174.6C234,129,238.3,57.9,229.8,55.4c-3.6-1.1-28.6,14.7-66,15.8c-41.2,1.2-67.2-24.9-70.4-10.8
		c-3.3,13.9,2.4,63.6,8.7,102.6l-12.4,59.8c-0.4,2.2-0.1,4.4,0.9,6.4l0,0c1.7,3.1,4.8,4.8,8.2,4.8h124.9c4.3,0,8-2.9,9.1-7.1
		l1.3-5.1c0.4-1.5,0.4-3.1,0-4.6L223.6,174.6z"/>
	<polygon class="st5" points="225.7,160.5 99.4,177.6 102.8,163.2 98.7,125.2 230.7,124.3 	"/>
</g>
</svg>
