<?xml version="1.0" encoding="utf-8"?>
<!-- Generator: Adobe Illustrator 26.0.3, SVG Export Plug-In . SVG Version: 6.00 Build 0)  -->
<svg version="1.1" id="Calque_1" xmlns="http://www.w3.org/2000/svg" xmlns:xlink="http://www.w3.org/1999/xlink" x="0px" y="0px"
	 viewBox="0 0 788 1005" style="enable-background:new 0 0 788 1005;" xml:space="preserve">
<style type="text/css">
	.st0{fill:#718985;}
	.st1{fill:#8E5736;}
	.st2{fill:#924125;}
	.st3{fill:#B85727;}
	.st4{fill:#D68F72;}
	.st5{fill:#DBDBDB;}
	.st6{fill:#95C1BE;}
	.st7{fill:#87AAA7;}
	.st8{fill:#444444;}
	.st9{fill:none;stroke:#444444;stroke-miterlimit:10;}
	.st10{fill:#D3D3D3;}
	.st11{fill:#7C9995;}
	.st12{fill:#E8E8E8;}
	.st13{fill:#888215;}
	.st14{fill:#9E9520;}
</style>
<path class="st0" d="M355.9,409.2l10.2-10c0,0,15.2-4.9,28.8-4.8c13.6,0.1,27.1,3.2,27.1,3.2l12.3,11.6l1.4,14.3l-81.1,3.1
	L355.9,409.2z"/>
<g id="Calque_1_00000096760111556550115690000014583781170777855151_">
	<g id="Calque_12">
		<path class="st1" d="M465.8,459.5c0,0-0.1,3.9-9.3,10c-10.9,7.3-6.9,21.4-8.4,28.7c-1,4.9-9.9,17.3-13.7,16.6
			c-10.8-2-16.9-16.2-26.7-20.4c-5.7-2.4-8.2-4.7-13.7-2c-5.5-2.8-8-0.5-13.7,2c-9.8,4.2-15.8,18.5-26.7,20.4
			c-3.9,0.7-12.7-11.7-13.7-16.6c-1.5-7.3,2.5-21.4-8.4-28.7c-9.2-6.1-11.6-11-11.6-11c-7-17.1-6.1-26.7,3.9-29.7s29.4-7,38.6-10.1
			c4.7-1.6,8.5-3.4,10.6-5.8l1.6-37.3l18.3-0.6h2.2l14.3,0.5l4,0.1l0.7,15.7l0.6,12.9v0.5l0.4,8.2c0.4,0.5,0.9,0.9,1.5,1.3
			c2.7,2,6.8,3.2,11.6,4.2c6.5,1.3,30.5,8,37.8,9.4c3.1,0.6-2.8-0.9,0,0C475.8,430.6,472.8,442.4,465.8,459.5z"/>
		<path class="st2" d="M416.5,414.1c-5.4,4.2-18.8,11.4-21.3,12.6c-8.2,3.9-28.3-5-32.8-8.1c4.7-1.6,8.5-3.4,10.6-5.8l1.6-37.3h38.8
			l1.2,28.5v0.5l0.4,8.2C415.4,413.2,415.9,413.7,416.5,414.1z"/>
	</g>
</g>
<path class="st3" d="M358.6,445.9c-4.6,21.5-19.4,24.7-27.9,30.9c-13.6,9.8-26.2,29.2-37.4,41.2c-5.3,5.7-11.7,6.6-17.8,2.5
	l-4.1-2.5c-11.5-10.5,1-21.4,5.5-27.3c9.3-12,20.7-24.7,27.8-38c5.3-9.9,16.3-12.8,32.9-21.8c0,0,1.5-12.2,13.3-5
	C358.5,430.5,360.5,437.1,358.6,445.9L358.6,445.9z"/>
<path class="st3" d="M286.7,522.3c9.5-5.7,6.4-15.2,4.4-18.5c-2.1-3.6-42.1-40.9-49.5-49.2c-4.2-4.7-6.1,0.6-9.4,2.6
	c-3,1.9-0.4,7.6,0.6,9.9c2.2,5,31,49.8,33.5,53.4C271.5,527.9,284,523.9,286.7,522.3z"/>
<path class="st3" d="M430.7,437c1,18.1,13.7,22.7,20.4,29c10.7,9.9,22.5,35.4,30.8,46.8c4,5.3,15.2,16.6,24.7,11.6l0,0
	c11.8-6.9,6.4-18.9,3.1-24.3c-6.5-11.1-24-37.9-28.4-49.6c-3.3-8.8-2.4-12.4-16-22.2c0,0-13.2-10.6-24.9-6.5
	C433.1,424.5,430.3,429.5,430.7,437L430.7,437z"/>
<path class="st3" d="M513.9,513.4c-6.4-13.7-13.8-10.2-20.3-8.3c-7,2-69.4,35.4-86.6,44c-9.7,4.9-14.9,7.2-12.5,12.8
	c2.2,5,13.2,3,17.6,2.2c40.9-7.3,70.6-16,96.8-32C516.2,527.7,515.5,516.9,513.9,513.4z"/>
<path class="st4" d="M372.6,523.6c-8.2,4.1-20.6,9.2-20.6,9.2s6.3,4.6,8.9,4.9c2.1,0.2,11.3-4,11.3-4l16.3,2.6
	c-3.4,4.5-11.7,6.8-16.2,11.8c-3.5,3.9-14.3,10-19.5,12c-2.9,1.1-9.7,0.9-12.1,2.6c-1.7,1.2-3.1,7.1-3.1,7.1l16.2-0.9
	c0,0,22.2-7.3,29.3-10.3c7.6-3.2,22-11.3,27.7-16.6c1.9-1.7,5.4-5.1,4.2-10.1c-1.1-4.2-5.9-5.8-9-6.7
	C401.3,524.2,373,523.4,372.6,523.6z"/>
<path class="st5" d="M328.2,416.7c0,0-17.6,3.1-27.6,18.6c-4.9,7.6-17.4,32-19.6,33.7c-2.2,1.6,26.8,34.5,27.5,34.2s9.1-3.8,13.5-8
	c4.4-4.1,10.7-13.7,10.7-13.7l15.1,8L328.2,416.7z"/>
<path class="st5" d="M454.4,414.5c0,0,22.5,1.6,31.8,20.8c12.9,26.4,8.9,32.5,11.1,34.1s-31.6,37-32.2,36.7s-2.4-3.1-6.8-7.2
	s-7.4-25.8-7.4-25.8l-15.1,8L454.4,414.5z"/>
<g>
	<path class="st6" d="M326.3,416.2c-1.8,3.6,4.8,66,4.8,66L317.7,623c0.1,1.9,1.5,3.6,3.4,4l18.5,3.5c23.6,4.4,87.8,4,111.2-1.1
		l19.1-4.2c2.6-0.6,4.3-2.9,4.3-5.4c-1-24.1-13.1-130.2-13.1-130.2l-0.9-74l-26.3-6.4L395,500.9L356.7,409L326.3,416.2z"/>
	<g>
		<path class="st7" d="M390.4,509.1c0.8,32.5,0.8,65.3,0.6,97.7l-0.2,16.3c-0.4,4.9,1.6,7.3,6.3,8.8c1.3,0.4,2.6,0.9,3.8,1.3
			c-1.3-0.4-2.6-0.7-3.9-1.1c-2.6-0.7-5.4-2.1-6.3-4.9c-0.4-1.3-0.5-2.8-0.5-4.1l-0.2-16.3C389.6,574.3,389.6,541.4,390.4,509.1
			L390.4,509.1z"/>
	</g>
	<g>
		<circle class="st8" cx="397.1" cy="510.7" r="2.9"/>
		<path class="st7" d="M397.1,508.8c1,0,1.9,0.9,1.9,1.9s-0.9,1.9-1.9,1.9s-1.9-0.9-1.9-1.9S396.1,508.8,397.1,508.8z"/>
	</g>
	<g>
		<circle class="st8" cx="397.1" cy="560.4" r="2.9"/>
		<circle class="st7" cx="397.1" cy="560.4" r="1.9"/>
	</g>
	<line class="st9" x1="399.6" y1="510.7" x2="401.3" y2="510.7"/>
	<line class="st9" x1="399.2" y1="560.4" x2="400.9" y2="560.4"/>
	<path class="st10" d="M369,402.3l19.6,4.8c1.8,0.4,3.5,1.6,4.4,3.3l2.2,3.9l2.5-4.2c0.9-1.5,2.2-2.6,3.8-3.1l17.3-5.7l9.6,9.7
		l-33.6,89.6l-37.6-92.7L369,402.3z"/>
	<path class="st7" d="M421.7,397.6l-31.2,111.5c0,0,26.3-32.2,46-80.9C436.9,427.5,421.7,397.6,421.7,397.6z"/>
	<path class="st7" d="M366.6,399l28.7,98.3l-1.8,4.1c0,0-39.2-48.6-43.7-72.1C349.7,429.8,366.6,399,366.6,399z"/>
	<path class="st11" d="M353.4,422.9l-5.1-12c0,0,12-9,18.2-11.9L353.4,422.9z"/>
	<path class="st11" d="M433.8,422l6.1-11.6c0,0-12.1-9.7-18.3-12.9L433.8,422z"/>
	<path class="st12" d="M378.5,420v-6.3c0-2.5,2.1-4.5,4.6-4.3c4.4,0.4,10.3,1.9,10.3,7.5s-5.9,7.1-10.3,7.5
		C380.7,424.5,378.5,422.5,378.5,420z"/>
	<path class="st12" d="M412,420v-6.3c0-2.5-2.1-4.5-4.6-4.3c-4.4,0.4-10.3,1.9-10.3,7.5s5.9,7.1,10.3,7.5
		C409.9,424.5,412,422.5,412,420z"/>
	<path class="st5" d="M395.6,422.1h-0.8c-1.5,0-2.6-1.2-2.6-2.6v-3.7c0-1.5,1.2-2.6,2.6-2.6h0.8c1.5,0,2.6,1.2,2.6,2.6v3.7
		C398.3,420.8,397.1,422.1,395.6,422.1z"/>
</g>
<path class="st12" d="M308.5,504.1l-1.8,1.5c-0.6,0.4-1.4,0.4-1.9-0.1L278,473c-0.4-0.6-0.4-1.4,0.1-1.9l1.8-1.5
	c0.6-0.4,1.4-0.4,1.9,0.1l26.8,32.5C309.2,502.7,309.1,503.5,308.5,504.1z"/>
<path class="st12" d="M497.6,469.6l1.7,1.5c0.5,0.5,0.6,1.3,0.1,1.9l-32,34.9c-0.5,0.5-1.3,0.6-1.9,0.1l-1.7-1.5
	c-0.5-0.5-0.6-1.3-0.1-1.9l32-34.9C496.2,469.1,497,469,497.6,469.6z"/>
<path class="st3" d="M244,454.8c-1-2.9-1.4-5.9-1.4-8.9l0.4-9.7c0-0.2,0-0.4-0.1-0.5l-6.7-13.8c-0.4-0.8-1.5-0.9-2-0.2
	c-0.7,0.8-1.3,1.8-1.4,2.3c-0.9,3.3,2.2,8.8,3.1,12c0.1,0.4-1.1,1.9-1.5,2.1c-1,0.6-4.1,0-6.1-0.5c-1.3-0.3-2.4-1.1-3.1-2.3
	c-0.8-1.3-1.9-3-2.4-3.9c-0.2-0.3-0.2-0.8-0.1-1.2l7.5-10c0.5-1.1,0.5-2.4,0.4-3.2c-0.1-0.9-0.8-1.7-1.7-1.9c-0.9-0.2-1.8-0.3-2,0.1
	l-11.6,15.2c-0.7,1.1-1,3.9-0.7,5.1l0.9,4.4c0.3,1.4,0.9,2.7,1.8,3.8l13,17.1l0,0.1l0.1,0l0.5,0.7l0,0c0.1-0.5,0.6-0.8,1-0.8
	l12.4-1.1c0.8-0.1,1.3-0.8,1.1-1.6L244,454.8z"/>
<g id="GcAfxX_00000158726393485427391440000013673085389559127732_">
	<g>
		<path class="st13" d="M229.2,402.3c0.4,0.4,0.7,0.9,1.2,1.3c0.1,0.1,0.3,0.2,0.6,0.5c-0.2-0.5-0.3-0.6-0.4-0.8
			c-0.5-1.1-0.9-2.1-1.4-3c0.1,0,0.2,0,0.3-0.1c0.5,0.9,1,1.8,1.6,2.8c0.2,0.6,0.4,1.4,0.6,2.1c0.2,0.9,0.5,1.6,0.8,2.4
			c0.1,0.3,0.2,0.6,0.3,1.1c0.1,0.4,0.2,0.9,0.4,1.5c0.1-1.1,0.1-1.9,0.3-2.8c0.1,0.2,0.2,0.3,0.7,0.8c1.2-3.6,2.2-6.9,3.2-10.1
			c0.3-0.2,0.7-0.6,1.1-1.1c0.1,1.1,0.1,2,0.2,2.8c-0.1,0.1-0.1,0.3-0.1,0.3c0,0.1,0.1,0.1,0,0.1c-0.4,1.1-1,2-1.5,3.1
			c0,0.1,0.1,0.1,0.1,0.1c-0.3,0.7-0.7,1.5-1.2,2.6c-0.1,0.6-0.1,1.5-0.3,2.4c-0.8,1-1.5,2-1.9,2.6c-0.1,3.4,0,6.4,0,9.4
			c-0.1,0,0.1,0.1,0.1,0.1c0,0,0.1,0,0.1-0.1c2.3-2.9,4.5-5.8,6.7-8.7c0.2-0.1,0.4-0.3,1-0.5c-0.3,1.3-0.6,2.1-0.9,3.1
			c-0.3,0.1-0.8,0.2-1,0.2c-0.1,0.4-0.1,0.8-0.1,0.7c-1.5,1.9-3.5,3.2-3.9,5.5c-4.8,3-3.2,10.5-9.3,13.5c3.5-4.5,5.6-8.7,6.4-13.6
			c-0.4-0.3-0.7-0.5-1.2-0.8c-0.1-0.1-0.3-0.2-0.4-0.3l0-0.1c-2.3-3.8-5.1-7.1-8.3-10.1c-0.1-0.5-0.2-1-0.4-1.7
			c0.9,0.4,1.5,0.8,2.1,1.1c0.1,0,0.1,0.1,0.2,0.1c0.1,0,0.2,0.1,0.3,0.2c2.3,2.9,4.5,5.8,6.7,8.7c0.3,0.7,0.5,1.4,1.1,3
			c-0.1-2.8-0.1-4.7-0.2-6.7c-0.1-1-0.2-1.9-0.3-2.9l0-0.1c0-0.1,0-0.1,0-0.2c-0.3-1-0.5-2-0.7-2.9c-0.4-1.2-0.8-2.3-1.2-3.4
			c-0.8-0.1-1.5-0.3-2.2-0.4c-0.2,0-0.3-0.1-0.4-0.1l-0.1,0c-2.5-2.7-6.2-3.7-9.5-5.2c-0.2-0.3-0.3-0.5-0.8-1.1
			c1.5,0.2,2.7,0.3,3.9,0.5C223.8,400.5,226.5,401.5,229.2,402.3z"/>
		<path class="st14" d="M233.3,399.3c1.2-0.5,1.6,0.7,2,1.5c0.8-1,1.5-1.8,2.2-2.8c-1,3.2-2,6.4-3.2,10.1c-0.4-0.5-0.5-0.7-0.7-0.8
			c0.1-0.6,0.1-1.4,0.2-2.1c-0.7,0-1.4,0-2.1,0c-0.2-0.6-0.4-1.4-0.6-2.1C231.4,401.5,231.9,399.9,233.3,399.3z"/>
		<path class="st13" d="M228.8,399.3c-0.1-0.1-0.2-0.3-0.3-0.4c-0.1,0.1-0.1,0.2-0.2,0.3c-0.2-0.8-0.3-1.5-0.5-2.3
			c0.1,0.2,0.3,0.4,0.4,0.6c0.1,0.1,0.1,0.1,0.2,0.2c0.1,0.1,0.1,0.2-0.9-1.1c1.2,1.2,1,1.2,1,1.1c0,0,0-0.1-0.1-0.1
			c-0.2-0.5-0.3-1.1-0.5-1.6c-0.2-3.3-0.3-6.7-0.4-9.9c0.1-0.5,0.3-1,0.6-1.6c2.9,4.7,2.7,9.3,1.1,13.9
			C229,398.7,228.9,399.1,228.8,399.3z"/>
		<path class="st14" d="M231.4,415.4c0,0.1,0.1,0.3,0.2,0.6c0.1,0.2,0.1,0.3,0.2,0.4c0.1,0.3,0.3,0.7,0.4,1.1
			c-2.3-2.9-4.5-5.8-6.7-8.7c0.8,0.5,1.6,1.1,2.5,1.6c0.7-1.3,1.7-1,2.8-0.6c0.7,0.3,1.5,0.6,2.2,1c0.1,1,0.2,1.9,0.3,2.9
			C232.7,414.3,232.1,414.8,231.4,415.4z"/>
		<path class="st14" d="M227.5,400.6c0.5,0.5,1.2,1.1,1.8,1.7c-2.8-0.9-5.5-1.9-7.4-4.2c0.4,0.1,1,0.1,1.4,0.2
			c-1-4.3,1.7-2.6,3.5-2.3c0.1-0.1,0.2,0,0.3-0.1c0.1,0.3,0.4,0.8,0.6,1c0.2,0.8,0.3,1.5,0.5,2.3C228,399.7,227.7,400.2,227.5,400.6
			z"/>
		<path class="st13" d="M225.8,394.1c0.2,0.2,0.3,0.5,0.6,0.7c-0.1,0.1-0.1,0.1-0.2,0.2c-0.6-0.1-1.3-0.2-1.8-0.4
			c-0.1,0-0.3-0.1-0.3-0.1c-0.5-0.1-1.1-0.2-1.7-0.4c-2-2.6-5-3.7-7.9-4.9c-0.2-0.4-0.5-0.7-1-1.3c1.1,0.1,1.8,0.2,2.6,0.3
			c2.3,1.8,4.6,3.3,7.4,3.8c0.4,0.3,0.9,0.7,1.3,1.1S225.6,393.8,225.8,394.1z"/>
		<path class="st14" d="M223.3,409.1c3.2,3,6,6.3,8.3,10.1C227.8,416.7,224.5,413.8,223.3,409.1z"/>
		<path class="st13" d="M213.6,381.6L213.6,381.6c-0.1-0.2-0.2-0.3-0.3-0.4c-0.1-0.3-0.2-0.6-0.4-1.2c0.5,0.1,0.7,0.3,1,0.3
			c2.5,2.4,5.2,4.8,7.8,7.3c0.4,0.8,0.8,1.6,1.4,2.9c-0.9-0.6-1.4-0.8-1.9-1.1C219,386.4,216.6,383.6,213.6,381.6z"/>
		<path class="st14" d="M218.9,398.6c3.2,1.7,6.9,2.5,9.5,5.2C224.6,403.2,221.2,401.9,218.9,398.6z"/>
		<path class="st14" d="M213.5,381.5c3.1,2.1,5.5,4.8,7.7,7.8C217.9,387.6,214.9,385.4,213.5,381.5z"/>
		<path class="st14" d="M241,411.4c-2.3,2.9-4.5,5.8-6.7,8.7C235.4,416.4,237.3,413.1,241,411.4z"/>
		<path class="st14" d="M214.5,389.3c2.9,1.2,5.9,2.3,7.9,4.9C219.2,393.5,216.5,392,214.5,389.3z"/>
		<path class="st14" d="M221.8,387.6c-2.5-2.4-5.2-4.8-7.8-7.3C217.7,381.6,220.1,384.2,221.8,387.6z"/>
		<path class="st14" d="M227.5,386.1c0.2,3.3,0.3,6.7,0.4,9.9C226.8,392.7,226.2,389.4,227.5,386.1z"/>
		<path class="st14" d="M236,420.3c0.3-2.4,2.3-3.6,3.9-5.5c0,0.1,0.1-0.3,0.1-0.7c0.3-0.1,0.8-0.2,1-0.2
			C240.2,416.6,238.4,418.7,236,420.3z"/>
		<path class="st14" d="M235.9,408.2c0.1-1,0.2-1.8,0.3-2.4c0.6-1.1,0.8-1.8,1.2-2.6c0-0.1-0.1-0.1-0.1-0.1c0.4-1.1,1-2,1.5-3.1
			C238.8,403.1,237.7,405.7,235.9,408.2z"/>
		<path class="st14" d="M223.6,392.1c-2.8-0.7-5.1-2.1-7.4-3.8C219.1,388.6,221.5,390.1,223.6,392.1z"/>
		<path class="st14" d="M224.3,392.1c0.1,0,0.2-0.1,0.2-0.1c0.5,0.8,1,1.4,1.4,2.2c-0.4-0.3-0.7-0.7-1.1-1
			C224.7,392.9,224.4,392.5,224.3,392.1z"/>
		<path class="st14" d="M229.6,400.2c-0.1,0-0.2,0-0.3,0.1c-0.2-0.3-0.4-0.8-0.6-1c0.1-0.3,0.2-0.7,0.3-1
			C229.3,399,229.5,399.7,229.6,400.2z"/>
		<path class="st14" d="M232.3,407.8c0.3,1,0.5,2,0.7,2.9C232.8,409.7,232.5,408.8,232.3,407.8z"/>
		<path class="st13" d="M226.2,395.1c0.1-0.1,0.1-0.1,0.2-0.2c0.2,0.4,0.5,0.8,0.7,1.1c-0.1,0.1-0.2,0-0.3,0.1
			C226.6,395.8,226.4,395.4,226.2,395.1z"/>
		<path class="st14" d="M224.1,391.7C223.5,391.1,223.4,391.1,224.1,391.7C223.5,390.9,223.6,391.1,224.1,391.7z"/>
		<path class="st14" d="M228.5,403.8c0.2,0,0.3,0.1,0.4,0.1C228.7,404,228.6,404,228.5,403.8z"/>
		<path class="st14" d="M213.3,381.1c0.1,0.2,0.2,0.3,0.3,0.4C213.5,381.4,213.4,381.3,213.3,381.1z"/>
		<path class="st14" d="M231.6,419.3c0.1,0.1,0.3,0.2,0.4,0.3C231.9,419.4,231.8,419.3,231.6,419.3z"/>
		<path class="st14" d="M238.8,399.9c0.1-0.1,0.1-0.3,0.1-0.3C238.8,399.7,238.8,399.8,238.8,399.9z"/>
		<path class="st14" d="M225.2,408.6c-0.1,0-0.1-0.1-0.2-0.1C225.1,408.5,225.2,408.6,225.2,408.6z"/>
		<path class="st14" d="M228.4,397.7c0,0.1,0,0.1,0.1,0.1l-0.1,0.1c-0.1-0.1-0.1-0.1-0.2-0.2C228.2,397.6,228.3,397.6,228.4,397.7z"
			/>
		<path class="st14" d="M224.1,394.6c0.1,0,0.3,0.1,0.3,0.1C224.3,394.7,224.2,394.6,224.1,394.6z"/>
		<path class="st14" d="M223,390.4c0.1,0.1,0.1,0.2,0.1,0.2l-0.1,0C223,390.5,223,390.4,223,390.4L223,390.4z"/>
		<path class="st14" d="M232.7,407.6c0.1,0.3,0.2,0.6,0.3,1.1C233,408.3,232.9,407.9,232.7,407.6z"/>
		<path class="st14" d="M231.2,404.2c-0.4-0.3-0.6-0.4-0.6-0.5c0.1-0.1,0.1-0.2,0.3-0.2C230.8,403.6,230.9,403.7,231.2,404.2z"/>
		<path class="st14" d="M228.4,397.8c0,0.1,0.1,0.1-1-1.1C228.4,398,228.4,398,228.4,397.8C228.3,397.8,228.4,397.7,228.4,397.8z"/>
		<path class="st13" d="M231.7,416.1c0.1,0.2,0.1,0.3,0.2,0.4C231.8,416.4,231.8,416.2,231.7,416.1z"/>
	</g>
</g>
</svg>
