<?xml version="1.0" encoding="utf-8"?>
<!-- Generator: Adobe Illustrator 26.0.3, SVG Export Plug-In . SVG Version: 6.00 Build 0)  -->
<svg version="1.1" id="Calque_1" xmlns="http://www.w3.org/2000/svg" xmlns:xlink="http://www.w3.org/1999/xlink" x="0px" y="0px"
	 viewBox="0 0 515.9 265.7" style="enable-background:new 0 0 515.9 265.7;" xml:space="preserve">
<style type="text/css">
	.st0{fill:#89777A;}
	.st1{fill:#924125;}
	.st2{fill:#B85727;}
	.st3{fill:#F2D5BD;}
	.st4{fill:#A7B599;}
	.st5{fill:#C4D6B4;}
	.st6{fill:#8E7052;}
	.st7{fill:#493C2F;}
	.st8{fill:#211843;}
	.st9{fill:#221944;}
	.st10{fill:#97A588;}
</style>
<path class="st0" d="M295.6,41.6c0,0,12.5-3.9,30-4c17.4-0.1,29.5,4,29.5,4l6.5,21.5l-53.1,14L295.6,41.6z"/>
<g id="Calque_1_00000129885711243947108220000015607203155872324286_">
	<g id="Calque_12">
		<path class="st1" d="M401.4,100.1c0,0-0.1,4.1-9.7,10.4c-11.4,7.6-7.2,22.3-8.8,30c-1,5.1-10.3,18.1-14.3,17.3
			c-11.3-2.1-17.6-16.9-27.9-21.3c-5.9-2.5-8.6-4.9-14.3-2.1c-5.7-2.9-8.4-0.5-14.3,2.1c-10.2,4.4-16.5,19.3-27.9,21.3
			c-4.1,0.7-13.3-12.2-14.3-17.3c-1.6-7.6,2.6-22.3-8.8-30c-9.6-6.4-12.1-11.5-12.1-11.5c-7.3-17.8-6.4-28,4.1-31.1
			c10.4-3.1,30.7-7.3,40.3-10.5c4.9-1.7,8.9-3.5,11.1-6.1l1.7-38.9l19.1-0.6h2.3l14.9,0.5l4.2,0.1l0.7,16.4l0.6,13.5v0.5l0.4,8.6
			c0.4,0.5,0.9,0.9,1.6,1.4c2.8,2.1,7.1,3.3,12.1,4.4c6.8,1.4,28.2,12.2,35.8,13.7c3.2,0.6,0.6,5.4,3.5,6.4
			C411.8,80.1,408.7,82.1,401.4,100.1z"/>
		<path class="st1" d="M350,52.6c-5.6,4.4-19.6,11.9-22.2,13.2c-8.6,4.1-29.5-5.2-34.2-8.5c4.9-1.7,8.9-3.5,11.1-6.1l1.7-38.9h40.5
			l1.3,29.9v0.5l0.4,8.6C348.8,51.8,349.4,52.3,350,52.6z"/>
	</g>
</g>
<path class="st2" d="M274.4,90.7c-4.1,19.1-17.2,21.8-24.8,27.3c-12.1,8.7-37,44.3-47,54.9c-5.6,2.6-12.3,1.7-17.1-2.3l0,0
	c-10.2-9.4-2.8-21.1,1.3-26.4c8.2-10.6,27.1-30.5,33.4-42.3c4.7-8.8,7.3-18.3,22.1-26.3c0,0,14.7-9,25.2-2.6
	C274.3,77,276.1,82.9,274.4,90.7L274.4,90.7z"/>
<path class="st2" d="M370,90.5c4.1,19.1,17.2,21.8,24.8,27.3c12.1,8.7,35.2,43.7,45.2,54.4c4.7,5,10.5,5.1,18.8-1.8l0,0
	c10.2-9.4,2.8-21.1-1.3-26.4c-8.2-10.6-27.1-30.5-33.4-42.3c-4.7-8.8-7.3-18.3-22.1-26.3c0,0-14.7-9-25.2-2.6
	C370.1,76.8,368.4,82.7,370,90.5L370,90.5z"/>
<path class="st3" d="M230.8,163.4c-2-1.9-40.6-39.6-36.6-42.3c3.5-2.4,3.8-2.5,32.4-37.8c6.8-8.5,16.3-14.3,26.8-16.7l35.9-8.1
	l32.3,50.2L230.8,163.4z"/>
<path class="st4" d="M276,61.7c-0.3-0.4,15.1-3.3,15.3-3.7c0.2-0.4,26.9,16.1,27.5,16.7c0.6,0.6,7.9,5.8,7.9,5.8
	s24.5-23.7,25.1-23.7s19.4,1.5,17.9,2.1c-1.6,0.5-26.7,229-26.7,229s-56.8-3.8-57-3.2C268.3,321.9,276,61.7,276,61.7z"/>
<path class="st3" d="M412.4,160.6c2-1.9,40.6-39.6,36.6-42.3c-2.6-1.8-20.7-23.6-32.5-38.1c-6.8-8.2-16.1-14.1-26.5-16.6L357.5,56
	l9.6,16l-38.5,40.8L412.4,160.6z"/>
<path class="st5" d="M284.4,66l30.3,39.7c3.3,4.4,3.2,10.3-0.2,14.6l0,0c-4.5,5.5-7.1,12.4-7.6,19.5c-0.8,11.1-2,28.8-2.6,45
	c-0.2,5-3.7,76.6-1.8,80.7c2.7,5.9,6.8,11.6,10,15.6c3.8,4.5,3.7,11.1-0.3,15.4c-2.5,2.9-6.4,6.7-12.3,12.2
	c-7.1,6.6-15.1,12.3-24.8,9.7l-24.5-6.6c-5.3-1.5-9-6.4-8.8-11.9c5-140.5,5-140.1,4.9-145.1c0-3.7,5.2-59,7.3-80.6
	c0.5-5.1,4.2-9.3,9.2-10.4l9.2-2.1C276.9,60.5,281.6,62.3,284.4,66z"/>
<path class="st5" d="M368,57.8l-50.4,67c-3,4-4.7,8.8-5,13.8c-1.6,27.9-6.5,122.8-4.4,129.2c1.8,5.3,25.2,30.2,38.6,44.3
	c5.9,5.9,14.6,8.4,22.7,6.1l27.6-9.6c8-2.8,13.3-10.6,12.7-19.2c-2.4-36.8-8.7-131.9-8.7-135.7c0-4.6-8.1-90.2-8.1-90.2L368,57.8z"
	/>
<path class="st3" d="M264.5,241.2h29.9c2.8,0,5.1,2.3,5.1,5.1l0,0c0,2.8-2.3,5.1-5.1,5.1h-29.9c-2.8,0-5.1-2.3-5.1-5.1l0,0
	C259.4,243.5,261.7,241.2,264.5,241.2z"/>
<path class="st3" d="M350.3,238.9H387c2.8,0,5.1,2.3,5.1,5.1v2c0,2.8-2.3,5.1-5.1,5.1h-36.7c-2.8,0-5.1-2.3-5.1-5.1v-2
	C345.2,241.2,347.5,238.9,350.3,238.9z"/>
<path class="st0" d="M317.7,80.3c0.4,0,9.2,6.1,9.2,6.1l10-7.5l-3.8-13.7l-5.6,1.1c0,0-6.8-2.3-7.6-1.1
	C319.1,66.3,317.7,80.3,317.7,80.3z"/>
<polygon class="st3" points="288.1,60.3 295.6,41.6 327.5,66.3 316.3,90.1 "/>
<polygon class="st3" points="367.1,60.3 355.1,41.6 327.5,66.3 338.8,90.1 "/>
<path class="st3" d="M236.6,164.3l-6.2,5.2c-2.2,1.9-5.4,1.7-7.5-0.3l-38.8-39.7c-2.2-2.2-2.1-5.8,0.2-7.9l6.1-5.5
	c2.2-2,5.6-1.9,7.6,0.2l39,40C239.2,158.4,239,162.2,236.6,164.3z"/>
<path class="st3" d="M409.2,164l6.1,5.1c2.2,1.9,5.4,1.7,7.4-0.3l38.7-38.8c2.3-2.3,2.1-5.9-0.3-8l-6.6-5.7
	c-2.2-1.9-5.5-1.8-7.6,0.3l-38.3,39.4C406.6,158.1,406.8,161.9,409.2,164z"/>
<ellipse class="st6" cx="321.5" cy="146" rx="3.8" ry="3.5"/>
<ellipse class="st7" cx="320" cy="183.2" rx="3.8" ry="3.5"/>
<ellipse class="st7" cx="318.6" cy="219.2" rx="3.8" ry="3.5"/>
<path class="st2" d="M201.3,172.9c9.9-5.9,6.7-15.9,4.6-19.3c-2.2-3.8-43.9-42.7-51.7-51.4c-4.4-4.9-6.4,0.6-9.8,2.7
	c-3.1,2-0.4,7.9,0.6,10.3c2.3,5.2,32.4,52,35,55.7C185.4,178.8,198.5,174.6,201.3,172.9z"/>
<path class="st2" d="M141.5,105.6l-12.9-11.4c0,0,4.8,2.1,6.4,0.1c0.4-0.5,0.2-3.3-0.2-3.9c-2.7-3.8-7.4-9.5-7.8-14.1
	c-0.2-1.5,2.6-5.3,2.6-5.3l17,16.6l8.6,15L141.5,105.6z"/>
<path class="st2" d="M124,80.3c-6.8-6.1-16.8-21.8-25.7-25.1c-1.7-0.5-6.9,0.4-6.9,0.4l16.1,24.5c3,4.6,6.9,8.7,11.5,12.3l23.8,21.3
	l10.9-13.2C153.7,100.6,131.3,86.9,124,80.3z"/>
<ellipse transform="matrix(0.7269 -0.6867 0.6867 0.7269 -33.6566 132.3749)" class="st2" cx="149.6" cy="108.5" rx="8.6" ry="8.5"/>
<path class="st8" d="M149.1,107.1c0.6-0.9,0.5-2.5-0.3-3.3L60.3,7.2L146,107.8c0.8,0.9,2,0.9,2.6-0.1L149.1,107.1z"/>
<path class="st2" d="M128.4,105.9l-12.6-14c-2.2-2.4-2-6.2,0.4-8.4l3.7-3.3c2.4-2.2,6.2-2,8.4,0.4l12.5,13.8c2.2,2.4,2,6.2-0.4,8.4
	l6.5,10.9C144.4,115.9,130.5,108.2,128.4,105.9z"/>
<path class="st9" d="M344.7,230.7V112c0-3.2,2.2-6.1,5.3-6.9l61.2-15.9c4.6-1.1,8.9,2.2,8.9,6.9v118.8c0,3.2-2.2,6.1-5.3,6.9
	l-61.2,15.9C349.2,238.8,344.7,235.4,344.7,230.7z"/>
<g id="I971h2_00000067219755369311645200000005868042954794575240_">
	<g>
		<path class="st10" d="M388.5,213c-2.8-2-3.8-5.5-2.2-8.9c1.4-2.8,4.5-4.2,7.7-3.3c3.1,0.9,5.1,2.8,5.7,5.9c0.7,4-0.4,7.6-3.9,10.1
			c-4.6,3.4-11.9,3.5-16.6,0.2c-2.5-1.7-4.5-4.1-4.4-7.1c0.1-4.1,0.3-8.2,1.6-12.1c1.3-4.5,0.6-7.4-3.2-10.3
			c-6.1-4.6-7.4-10.5-5.1-17.6c2.3-6.9,7.2-10.8,14.6-11.4c0.6,0,1.5-0.2,1.8-0.6c2.5-3.3,2.5-9.2-0.3-12.5
			c-6.1-7.4-8.7-16.1-9.6-25.3c-0.4-4.2-0.2-8.2,2.3-12c3.7-5.3,9.6-5.5,13.4-0.3c1,1.6,2,3.3,2.5,5.2c2.2,7.3,2.2,14.8,0.2,22.1
			c-0.9,3.3,0,5.3,2.1,7.7c3.7,4,7.5,8,10.4,12.6c5.4,8.2,5.6,17.2,0.8,25.8c-4.9,8.9-13,12.5-23,12.2c-1.3-0.1-2.4-0.3-2.9,1.4
			c-2.1,5.5-2.5,11.2,0,16.7c1.9,4.3,5.6,5.5,10.3,3.3C389.9,214,389.2,213.6,388.5,213z M382,188.3c5.8,1.6,10.8,0.6,15.1-2.9
			c4.7-4,6.8-9.1,5.4-15c-0.7-3.2-2.2-6.5-4.1-9.3c-2.2-3.2-5-6.1-7.8-9.5c-0.8,2.8-1.6,5.2-2.2,7.4c7.1,5.8,9.6,13,7,19.9
			c-1.6,4.1-5,6.5-9.7,6.2c1-1.1,1.7-2.2,2.6-3c5.2-4.6,4.6-9.6-2.1-13.2C384.9,175.3,383.6,181.8,382,188.3z M386.8,115.2
			c-0.5-1.4-2.7-3-3.4-2.7c-1.5,0.4-2.7,2.2-3.4,3.7c-0.4,0.9-0.3,2.6,0,3.9c1.3,6.2,4.5,11.3,9.5,16.2
			C390.3,128.5,389.9,121.7,386.8,115.2z M382.5,168.2c-3.5-0.3-6.2,1.6-7.5,5.2c-1.9,5.2-0.5,10.6,3.7,13.6
			C380,180.6,381.3,174.4,382.5,168.2z"/>
	</g>
</g>
<g id="I971h2_00000031198194278168428470000017436679332327562150_">
	<g>
		<path class="st9" d="M111.2,122.8c-1.1-0.4-1.9-1.5-1.9-2.8c0.1-1.1,1-2,2.3-2.1c1.1-0.1,2.2,0.4,2.7,1.4c0.7,1.3,0.7,2.6-0.1,4
			c-1.1,1.8-3.8,2.6-5.7,2.1c-1.1-0.3-2-0.8-2.4-1.9c-0.4-1.5-0.8-2.9-0.9-4.4c-0.1-1.8-0.6-2.6-2.4-3.2c-2.6-0.8-3.9-2.7-4-5.5
			c-0.1-2.8,1.1-4.7,3.7-5.7c0.2-0.1,0.4-0.3,0.5-0.4c0.4-1.5-0.3-3.4-1.7-4.3c-3-1.8-5-4.4-6.5-7.5c-0.6-1.4-1-2.8-0.6-4.4
			c0.5-2.3,2.6-3.1,4.6-1.8c0.6,0.4,1.1,0.9,1.6,1.5c1.8,2.3,2.6,4.9,2.8,7.7c0.1,1.1,0.6,1.9,1.7,2.4c1.8,1,3.5,1.9,5.1,3.1
			c2.9,2.3,4.1,5.3,3.4,8.9c-0.6,3.7-3,5.9-6.5,7.1c-0.4,0.1-0.8,0.2-0.8,0.8c-0.1,2.2,0.4,4.1,2,5.7c1.1,1.3,2.6,1.3,4.1-0.1
			C111.9,123.1,111.7,123,111.2,122.8z M106,115.2c2.2-0.2,3.8-1.1,4.8-2.9c1.1-1.9,1.1-4,0-5.8c-0.6-1.1-1.6-2-2.6-2.7
			c-1.1-0.9-2.5-1.6-4-2.4c0.1,1.1,0.1,2,0.2,2.8c3.2,1.1,4.9,3.3,4.8,6.1c-0.1,1.7-1,2.9-2.6,3.3c0.3-0.5,0.4-1,0.5-1.4
			c1.3-2.2,0.4-4-2.3-4.3C105.4,110.4,105.8,112.7,106,115.2z M98.7,89.1c-0.4-0.4-1.3-0.7-1.6-0.5c-0.4,0.4-0.6,1.1-0.7,1.8
			c-0.1,0.4,0.2,1,0.4,1.4c1.1,2,2.9,3.3,5.2,4.5C101.5,93.4,100.6,91.1,98.7,89.1z M103.6,108.2c-1.3,0.4-1.9,1.3-1.9,2.7
			c0,2,1.1,3.8,2.9,4.2C104.3,112.7,104,110.4,103.6,108.2z"/>
	</g>
</g>
<path class="st9" d="M43.9,43.5c1-0.7,2-0.7,2.7-0.1c0.4,0.4,0.6,0.8,0.5,1.4c-0.1,0.4-0.4,0.8-0.9,1c-1.3,0.4-2.5-0.3-2.8-1.6
	c-0.3-1.3-0.5-2.6-0.8-3.9c-0.1-0.4-0.3-0.7-0.7-0.8c-0.9-0.3-1.8-0.5-2.6-0.8c-0.4-0.1-0.8-0.2-1.3-0.4c0.1,1.1,0.3,2.3,0.4,3.4
	c0.8-0.5,1.7-0.6,2.5,0c0.5,0.3,0.8,0.7,0.7,1.4c-0.1,0.5-0.4,0.9-0.9,1.1c-1.1,0.5-2.6-0.2-2.8-1.4c-0.2-0.7-0.3-1.4-0.4-2.1
	c-0.4-1.8-0.8-3.5-1.3-5.4c2.3,0.3,4.6,0.5,7,0.8C43.3,38.6,43.5,41,43.9,43.5z M38.7,38c1.1,0.3,2.3,0.5,3.3,0.8
	c0.1-0.7-0.1-0.9-0.6-1.1c-1.1-0.3-2.4-0.5-3.7-0.9C37.6,37.9,37.6,37.9,38.7,38z"/>
<path class="st9" d="M60.5,70c0.2-0.3,0.3-0.7,0.2-1c-0.4-1.1-0.1-2.3,0.6-3.1s1.8-1.5,2.6-2.3c0.6-0.6,1.4-1.3,1.7-2
	c0.4-1.1,1-1.5,2.1-1.1c0.2,0.1,0.4,0.1,0.6,0.1c0.7,0,1,0.3,0.8,1c-0.2,0.6-0.3,1.3-0.4,1.9c-1,3.8-1.9,7.5-2.9,11.5
	c1.9-0.7,3.4-0.3,4.7,1.1c0.8,0.8,1.1,1.9,0.6,3.1c-0.4,1.1-1.4,1.5-2.5,1.6c-2.4,0.1-4.4-2.2-4.1-4.6c0.4-2.7,0.7-5.5,1.1-8.5
	c-2,1.4-4.8,1.8-4.7,5C60.3,71.8,60.4,70.8,60.5,70z M61.3,69.1c1.6-1.7,3.8-2.3,4.5-4.8C64,65.6,61.4,65.9,61.3,69.1z"/>
<path class="st9" d="M41,9.5c0.7-0.5,1.5-0.5,2.2-0.1c0.4,0.3,0.6,0.6,0.5,1.1c0,0.4-0.3,0.6-0.7,0.8c-1.1,0.4-2.2-0.3-2.4-1.5
	c-0.3-1-0.4-2.1-0.6-3.2c-0.2-1-0.5-2.2-0.6-3.3c0.4-0.1,0.8-0.2,1.3-0.3C40.8,5.2,40.9,7.3,41,9.5z"/>
<g>
	<path class="st2" d="M335.2,187.4l-15.4,2.1c0,0,6.1-5,5.6-7.2c-0.1-0.5-1.4-0.9-1.9-1c-4.1-0.4-13.3,1.1-16.6-1.3
		c-1-0.8-2.1-4.9-2.1-4.9l21.3-1.7l15.2,3L335.2,187.4z"/>
	<path class="st2" d="M312.7,191.7c-6.9,2.2-22.7,2.5-28,7.6c-0.5,0.6-1,2.3-1.4,3.7c-0.2,0.9,0.5,1.9,1.5,1.9l23.7-0.4
		c3.9-0.1,7.7-0.8,11.3-2.3l22.5-9.1l-4.6-14.3C337.7,178.7,320.2,189.4,312.7,191.7z"/>
	<ellipse class="st2" cx="339.3" cy="184.7" rx="8.8" ry="8.8"/>
	<path class="st2" d="M463.3,155.9c-4.4-15.1-12.5-12.7-19.5-11.9c-7.5,0.9-77.3,25.2-96.4,31.2c-10.8,3.4-16.6,5-15,11.2
		c1.5,5.5,13.2,5.2,17.7,5.1c43.3-0.8,75.4-4.9,105-17.1C463.3,171.1,464.3,159.8,463.3,155.9z"/>
</g>
</svg>
