<?xml version="1.0" encoding="utf-8"?>
<!-- Generator: Adobe Illustrator 26.0.3, SVG Export Plug-In . SVG Version: 6.00 Build 0)  -->
<svg version="1.1" id="Calque_1" xmlns="http://www.w3.org/2000/svg" xmlns:xlink="http://www.w3.org/1999/xlink" x="0px" y="0px"
	 viewBox="0 0 788 1005" style="enable-background:new 0 0 788 1005;" xml:space="preserve">
<style type="text/css">
	.st0{fill:#B85727;}
	.st1{fill:none;stroke:#BCBCBC;stroke-width:3.9654;stroke-linecap:round;stroke-miterlimit:10;}
	.st2{fill:#924125;}
	.st3{fill:#2B2B2B;}
	.st4{fill:#5A5A5A;}
	.st5{fill:#3D3D3D;}
	.st6{fill:#4C443F;}
	.st7{fill:none;stroke:#9B9B9B;stroke-miterlimit:10;}
</style>
<path class="st0" d="M576.5,480.6c0.5,0.7,1.3,1.2,2.2,1.3l3.8,0.4c0.6,0,1.4-0.1,2-0.5l20.6-13.3c0.2-0.2,0.4-0.3,0.7-0.4
	c0.9-0.3,1.4-1.5,1.7-2.9c0.7-3.2,0.3-6.5-1.2-9.5l-1.6-3.4c-0.2-0.4-0.3-0.7-0.6-1.1c-0.8-1.5-3.2-5.5-3.3-5.5c0,0-3.8-5.6-5.6-3.8
	c-0.1,0.1-0.2,0.2-0.4,0.3l-8.6,6.1c-1.5,1-3.3-0.4-2.7-2.1l1.4-3.8c0.1-0.4,0.1-0.9,0.1-1.4l-0.7-5.6c-0.1-1.3-1-2.4-2.3-2.7
	c-1.4-0.3-3-0.8-3.7-0.9c-1.1-0.2-1.2,10-1.7,11.6s-5.5,9.5-6.4,11.4c-0.7,1.6-0.7,11.2-0.7,14.3c0,0.6,0.2,1.2,0.6,1.8L576.5,480.6
	z"/>
<line class="st1" x1="595.9" y1="451.8" x2="597" y2="445"/>
<g id="Calque_1_00000005947739927398834880000013823124980591568053_">
	<g id="Calque_12">
		<path class="st2" d="M465.8,459.5c0,0-0.1,3.9-9.3,10c-10.9,7.3-6.9,21.4-8.4,28.7c-1,4.9-9.9,17.3-13.7,16.6
			c-10.8-2-16.9-16.2-26.7-20.4c-5.7-2.4-8.2-4.7-13.7-2c-5.5-2.8-8-0.5-13.7,2c-9.8,4.2-15.8,18.5-26.7,20.4
			c-3.9,0.7-12.7-11.7-13.7-16.6c-1.5-7.3,2.5-21.4-8.4-28.7c-9.2-6.1-11.6-11-11.6-11c-7-17.1-6.1-26.7,3.9-29.7s29.4-7,38.6-10.1
			c4.7-1.6,8.5-3.4,10.6-5.8l1.6-37.3l18.3-0.6h2.2l14.3,0.5l4,0.1l0.7,15.7l0.6,12.9v0.5l0.4,8.2c0.4,0.5,0.9,0.9,1.5,1.3
			c2.7,2,6.8,3.2,11.6,4.2c6.5,1.3,22.9,22.6,30.1,24c3.1,0.6-2.8-0.9,0,0C468.1,445.2,472.8,442.4,465.8,459.5z"/>
		<path class="st2" d="M416.5,414.1c-5.4,4.2-18.8,11.4-21.3,12.6c-8.2,3.9-28.3-5-32.8-8.1c4.7-1.6,8.5-3.4,10.6-5.8l1.6-37.3h38.8
			l1.2,28.5v0.5l0.4,8.2C415.4,413.2,415.9,413.7,416.5,414.1z"/>
	</g>
</g>
<path class="st0" d="M347.3,447.6c2.6,15.8-32.2,64.2-38.6,75.6c-3,5.4-12.7,17.4-23.6,15c-13.8-3.6-8.7-17.7-6.5-23
	c4.6-10.9,26.5-67.3,40.1-77.4c6.9-5.1,12-3.8,24.9-2.5C351.9,436.1,346.2,441.1,347.3,447.6L347.3,447.6z"/>
<path class="st0" d="M429,439.4c2.9,19.6,17.2,23.3,25.3,29.3c12.7,9.6,28.2,36.1,38.5,47.5c4.8,5.4,18.4,16.4,28.2,9.9l0,0
	c12.3-8.9,2.6-23.9-1.5-29.4c-8.2-11.3-41.8-55.4-57.7-64.5c0,0-10.1-0.8-22.4,4.9C431.5,440.9,427.8,431.3,429,439.4L429,439.4z"/>
<path class="st0" d="M505.7,522.3c6.3,9.5,17.3,5.4,26.2,0.7c6.3-3.4,26.7-29.1,42.6-39.4c9-5.8,9.5-8.6,6.2-13.9
	c-2.9-4.8-14,2-17.9,4c-39.7,19.7-49.9,24.1-49.9,24.1C496,508.5,503.5,519.1,505.7,522.3z"/>
<path class="st3" d="M466.1,600.6l-3.2-50.9l0,0c1.6-19.5,2.9-41.3,3.5-60.9c1-30.4,13.2-51.5,9.7-53.6c-9.8-5.7-21.6-10.7-32.9-14
	l-23.6-8.5l-2-18.3l-12.2-0.1c-4,0-7.5,2.7-8.5,6.6l-1.5,12.4l-1.5-12.4c-1-4-4.6-6.8-8.7-6.8l-12-0.1l-2.5,17.7l-20,6.8
	c-13.6,3.7-30.3,10-41.1,15c-1.2,6.4,14,22.3,14.2,44.5c0.1,21.6,0.9,47.1,2.2,69.7l-3.1,53.4c0,0.2,0,0.4,0,0.6
	c-1.4,7.2-2.6,14.2-3.2,20c-0.9,8,6.7,15.5,14.3,18.2l4.2,1.5c28.9,10.3,59.7,13.6,90,9.9c12.4-1.5,24.4-5.8,35.1-12.4
	c1.2-0.8,2.2-1.4,2.6-1.8c4.8-4.6,6.2-11.7,4.1-17.9L466.1,600.6z"/>
<g>
	<path class="st4" d="M580.5,447.5c0.3-0.1,0.6-0.3,0.8-0.5c1.9-1.5,3.2-1.4,4.9,0.3c4,4.1,8,8.3,11.9,12.5c1.8,1.8,1.7,3.3-0.2,5.1
		c-1,0.9-2,1.9-3.1,2.9c-1.9,1.8-3.3,1.7-5.1-0.2c-4-4.1-7.9-8.3-11.8-12.4c-1.8-1.9-1.8-3.1-0.2-5.1c0.3-0.3,0.1-0.9,0.2-1.4
		c-0.3-0.2-0.5-0.2-0.8-0.4c-6.1,5.7-12,11.5-18.2,17.4c-0.4-0.8-1-1.6-1.4-2.5c-0.4-0.7-0.3-1.7-0.8-2.2c-4.2-4.5-8.4-9-12.7-13.4
		c-0.4-0.3-1.1-0.9-1.4-0.8c-1.8,0.6-2.2-0.9-3.2-1.7c0.3-0.4,0.6-0.8,0.9-1.2c-1.1-1.1-0.8-2.1,0.2-3c1.1-1.1,2.1-2.3,3.5-0.8
		c2.9-2.8,5.8-5.5,8.4-8c-0.8-0.7-1.8-1.3-2.5-2.2c-0.6-0.9-1.2-1.1-2.1-1.1c-0.6,0-1.1-0.1-1.7-0.2c0-1,0.1-1.9,0.1-2.9
		c0.7,0,1.4,0.1,2.1,0c0.5-0.1,1.1-0.3,1.4-0.7c2.5-3.2,5.6-3.1,7.9,0.3c0.6,0.8,1.1,0.8,1.8,0.3c0.2-0.2,0.4-0.4,0.6-0.6
		c0.8-0.7,1.7-2.1,2.9-0.8c1.3,1.3-0.1,2.2-1,3c-1.1,0.9-2.3,1.8-3.6,2.9c0.8,0.9,1.2,1.4,1.7,1.9c2.2-1,2.9-0.9,4.6,0.8
		c2.4,2.6,4.9,5.1,7.3,7.7c1.9,2,2,2.6,0.9,4.9c0.5,0.5,0.9,1,1.3,1.5c1.9-0.7,0-1.4,0.1-2.1c0.1-0.1,0.1-0.1,0.2-0.2
		c0.8-0.9,1.8-1.2,3-1.6c1.4-0.5,2.5-2,3.7-3.1c-0.6-0.8-1-1.3-1.3-1.7c0.7-0.7,1.3-1.4,1.9-2.1c0.7,0.7,1.3,1.3,1.9,1.9
		c1.1-0.7,2-2.4,3.4-1c1.4,1.4-0.3,2.2-1.1,3.3c0.5,0.6,1.1,1.2,1.5,1.7c-0.7,0.7-1.3,1.3-2,2.1c-0.4-0.4-0.9-0.9-1.1-1.1
		c-1.4,1.2-2.7,2.3-4.1,3.5C580.2,446.5,580.3,446.7,580.5,447.5z M556.7,432.7c-1.7,1.7-3.5,3.5-5.5,5.3c0.3,0.3,0.7,0.7,1.2,1.2
		c2.2-1.1,3-0.9,4.7,0.9c2.6,2.7,5.1,5.4,7.7,8.1c1.4,1.5,1.5,2.4,0.3,4.4c0.5,0.5,1.1,0.9,1.6,1.3c1.8-1.7,3.6-3.4,5.6-5.3
		c-0.5-0.4-1-0.8-1.7-1.3c-1.9,1.4-3.4,0.4-4.8-1.2c-2.4-2.6-4.8-5-7.2-7.6c-1.6-1.7-1.7-2.6-0.5-4.7
		C557.5,433.4,557,433,556.7,432.7z M545.8,442.5c5.1,5.4,10.3,10.9,15.4,16.3c1-0.9,2-1.8,3.1-2.9c-0.3-0.3-0.8-0.8-1.3-1.4
		c-2.2,1.5-3.7,0.4-5.1-1.2c-2.4-2.6-4.8-5-7.2-7.6c-1.5-1.6-1.6-2.4-0.4-4.5c-0.5-0.4-1.1-0.8-1.7-1.3
		C547.6,440.8,546.6,441.8,545.8,442.5z M554.9,427.1c0-0.6-0.9-1.4-1.4-1.4s-1.4,0.9-1.4,1.4s0.7,1.1,1.5,2.1
		C554.3,428.1,555.1,427.5,554.9,427.1z"/>
	<path class="st4" d="M602.5,478.6c-2.9-3.1-5.9-6.1-8.6-9c1.2-1.1,2.5-2.3,3.7-3.5c2.7,2.9,5.6,6,8.4,9
		C604.7,476.3,603.5,477.5,602.5,478.6z"/>
	<path class="st5" d="M612.9,486.9c-2.8-2.4-5.5-4.7-8.4-7.2c1.1-0.9,1.7-1.4,2.6-2.2c2.2,3,4.4,5.9,6.5,8.7
		C613.4,486.4,613.2,486.6,612.9,486.9z"/>
</g>
<path class="st6" d="M294,503.3c-0.6-3.4,2-5.9,5.3-5.4c1.5,0.2,2.9,1,4.2,1.7c2.1,1,4,2.5,6.1,3.4c3.2,1.5,7.7-1.8,6.8-5.7
	c-0.5-2-1.6-3.3-3.3-4.3c-2.9-1.5-5.9-1.4-9-0.7c-1.2,0.3-2.4,0.6-3.5,0.5c-3.6-0.2-6-3.6-5.4-7.1c0.7-3.7,4.2-6.2,7.7-5.5
	c0.9,0.3,2,0.7,3,1c3.2,1.2,6.3,2.5,9.7,3.6c0.7,0.1,1.6,0.2,2.1-0.2c1.5-1,2.2-2.5,2.1-4.3c-0.2-1.8-1.4-2.8-2.9-3.3
	c-1.7-0.8-2.7,0.5-3.8,1.3c-0.6,0.5-1.6,1.2-2.4,1.1c-1.2,0-2.5-0.6-3.7-1.1c-1.1-0.4-1-1.3-0.3-1.8c0.8-0.9,1.8-1.8,2.8-2.2
	c2.6-1.1,5.2-1.2,7.9-0.5c3.6,0.9,5.9,4.6,5.2,7.9c-0.8,4.2-5.5,7.2-9.8,6.1c-1.9-0.5-3.7-1.4-5.6-2c-1.6-0.5-3.2-0.9-4.8-1.1
	c-0.9-0.1-2.1,0.3-2.4,1.3c-0.3,1.2,0.5,2.1,1.5,2.4c1.1,0.5,2.2,0.7,3.5,0.8c2.2,0.2,4.3,0,6.4,0.3c4,0.5,6.9,3,7.7,6.6
	c1.2,5.6-2.1,10.6-7.5,10.9c-2,0.1-3.9-0.6-5.6-1.5c-2-1-3.9-2.1-5.9-3.1c-1.2-0.8-2.3-0.4-3,1c-0.8,1.5-0.7,3,0.2,4.3
	c1.2,1.8,2.6,3.2,3.8,4.9C297.5,510.6,294.8,507.8,294,503.3z M312.3,476.9c0-0.1-0.2-0.3-0.2-0.3c-0.3,0.3-0.6,0.5-0.9,0.8
	c0.2,0.1,0.2,0.2,0.3,0.3C311.7,477.5,312.1,477.2,312.3,476.9z"/>
<g>
	<path class="st4" d="M310.2,478.8l5.9,95.8c0.1,2.1,1.5,3.9,3.5,4.5l59.5,18.8c3.2,1,6.5-1.3,6.6-4.7l3.7-96.7
		c0.1-2.4-1.5-4.5-3.8-5.1l-69.1-17.9C313.2,472.7,310,475.3,310.2,478.8z"/>
	<g>
		<path class="st7" d="M379.2,494.1c-1.9,0-3.4-1.5-3.4-3.4s1.5-3.4,3.4-3.4s3.4,1.5,3.4,3.4"/>
		<path class="st7" d="M357.8,488.6c-1.9,0-3.4-1.5-3.4-3.4s1.5-3.4,3.4-3.4s3.4,1.5,3.4,3.4"/>
		<path class="st7" d="M368.5,491.1c-1.9,0-3.4-1.5-3.4-3.4s1.5-3.4,3.4-3.4s3.4,1.5,3.4,3.4"/>
		<path class="st7" d="M346,485.7c-1.9,0-3.4-1.5-3.4-3.4s1.5-3.4,3.4-3.4s3.4,1.5,3.4,3.4"/>
		<path class="st7" d="M324.6,480.1c-1.9,0-3.4-1.5-3.4-3.4s1.5-3.4,3.4-3.4s3.4,1.5,3.4,3.4"/>
		<path class="st7" d="M335.3,482.7c-1.9,0-3.4-1.5-3.4-3.4s1.5-3.4,3.4-3.4s3.4,1.5,3.4,3.4"/>
	</g>
</g>
<g>
	<path class="st0" d="M276.9,524c3.1-10.9,14.7-9.1,24.5-6.2c7,2,39.6,17.8,57.7,24.6c10.2,3.9,15.7,5.6,14.3,11.6
		c-1.3,5.3-50.8,0.3-82.3-7.1C271.4,542.2,275.9,527.7,276.9,524z"/>
	<path class="st0" d="M354.2,540.9c4.7,0.1,15.9-3.9,17.6-4.7c1.7-0.8,17.2-0.3,17.2,0.7c0,1-1.3,3.8-1.3,3.8l-10,2l18.7,6.5
		c0,0,12,3.8,15.2,6.4c0.9,0.7-2.6,3.3-2.6,3.3l-19.4-2.9l-10.5,7.7c-3.3,2.4-7.7,2.8-11.3,0.8c-4-2.2-8.9-4.8-10-5.9
		c-0.6-0.6-5.1-4.5-4.4-7.1C354,549.7,354.2,540.9,354.2,540.9z"/>
</g>
<path class="st6" d="M344.8,545c-0.1,0-0.2-0.1-0.3-0.1c-0.1,0.2-0.3,0.4-0.4,0.7c0,0,0.3,0.2,0.5,0.3c-0.2,1.1-0.8,0.2-1.2,0.3
	c-0.1-0.3-0.3-0.6-0.3-0.9c0-0.2,0.1-0.7,0.2-0.7c0.5-0.1,1-0.5,1.5-0.1c0.3,0.2,0.7,0.3,1.1,0.4c-0.2,0.1-0.3,0.3-0.4,0.5
	c0.1,0,0.3,0.1,0.4,0.1c-0.1-0.2-0.1-0.4-0.1-0.6c0.5,0.1,0.9,0.3,1.3,0.4c-0.3,0.1-0.6,0.2-0.9,0.3c0,0.1,0,0.1,0,0.2
	c0.3,0,0.5,0.1,0.9,0.2c-0.1-0.3-0.1-0.5-0.1-0.7c0.5,0.1,1.1,0.3,1.6,0.5c1.1,0.4,1.1,0.5,1.7-0.5c-0.1,0.3-0.1,0.6-0.1,0.9
	c0.3-0.4,0.5-0.7,0.7-1.1c-0.2,0.1-0.4,0.1-0.6,0.2c0.1,0,0.1-0.1,0.1-0.1c0.3-0.1,0.5-0.2,0.8-0.3c0.1,0,0.3,0.4,0.3,0.4
	c-0.2,0.2-0.4,0.4-0.7,0.8c0.1,0.4,0.3,0.6,0.9,0.5c0.3-0.1,0.7-0.1,0.9,0c1.6,0.9,3.2,1.7,4.7,2.6c0.5,0.3,0.7,0.7,1.2,1.2
	c-0.4,0.1-0.6,0.2-0.9,0.2c-2.1,0.1-4.1-0.3-6.1-0.9c-0.2-0.1-0.4-0.3-0.6-0.5c-0.4-0.5-0.7-0.5-1-0.2c0,0.5,0.1,0.8,0,1.1
	c0,0-0.5,0.1-0.5,0c-0.2-0.3-0.2-0.6-0.3-0.9c0-0.1,0.1-0.2,0.1-0.3c0.1-0.4,0-0.8-0.5-0.9c-0.6-0.2-1.2-0.3-1.7-0.6
	c-0.9-0.4-2.1-0.2-2.4-1.5C344.6,545.6,344.7,545.3,344.8,545z M351.2,547.6c0.9,0,1.6,0.8,2.5,0.4c0.6,1.5,2.2,1.4,3.5,1.9
	c-1.8-1.7-3.7-3-6.3-2.6c0.1,0.2,0.1,0.4,0.2,0.7c-0.2,0.1-0.4,0.3-0.6,0.4c0.9,0.9,1.9,1.5,3.2,1.7c1.2,0.1,2.4,0.4,3.7,0.1
	c-1.6-0.9-3.2-1.1-4.2-0.7c-0.5-0.9-1.4-0.7-2.2-1.1c0.3-0.2,0.4-0.3,0.7-0.4C351.6,547.8,351.5,547.6,351.2,547.6z M348.9,546.6
	c-0.2,0.1-0.4,0.5-0.3,0.7c0.3,0.5,0.7,0.2,1.2,0C349.5,546.9,349.4,546.3,348.9,546.6z M346.9,546.8c-0.3-0.2-0.6-0.4-0.8-0.5
	c0,0.1-0.1,0.1-0.1,0.2C346.1,546.7,346.2,547.2,346.9,546.8z M349.4,548.6h-0.1c-0.1,0.4-0.1,0.8-0.2,1.2c0.1,0,0.2,0,0.3,0
	C349.4,549.4,349.5,549,349.4,548.6z M345.2,546.6c0.1,0.1,0.3-0.1,0.4-0.1c0-0.1,0-0.3-0.1-0.3c-0.1-0.1-0.3,0-0.5,0
	C345.1,546.4,345.1,546.6,345.2,546.6z M348.1,546c-0.1,0-0.1-0.1-0.1-0.2c-0.3,0.1-0.5,0.1-0.7,0.2c0,0.1,0.1,0.2,0.1,0.3
	C347.7,546.3,347.9,546.2,348.1,546z M347.5,547.4c0.1,0,0.1-0.1,0.2-0.1c-0.1-0.2-0.3-0.4-0.4-0.6c-0.1,0-0.1,0.1-0.2,0.1
	C347.2,547,347.4,547.2,347.5,547.4z"/>
<g>
	<path class="st6" d="M278.6,531.7c1.1-4.6,4.1-8.3,6.2-12.5c0.3,0.1,0.6,0.3,0.9,0.4c-1.9,4.3-3.8,8.5-5.7,12.8
		C279.5,532.1,279,531.9,278.6,531.7z"/>
	<path class="st6" d="M290.8,532.2c-3.3,0.9-6.7,1.9-10.1,2.8c-0.1-0.6-0.3-1.1-0.4-1.6c3.5-0.8,6.9-1.5,10.3-2.3
		C290.7,531.5,290.8,531.8,290.8,532.2z"/>
	<path class="st6" d="M277.4,523.5c-0.2,2.2-0.3,4.3-0.4,6.4c-0.4,0-0.8-0.1-1.2-0.1c0.1-2.1,0.2-4.2,0.3-6.3
		C276.5,523.5,276.9,523.5,277.4,523.5z"/>
	<path class="st6" d="M280.2,536.2c0.9,1.3,1.8,2.6,2.7,3.9c-0.3,0.2-0.6,0.4-0.9,0.6c-0.9-1.3-1.8-2.6-2.7-3.9
		C279.6,536.6,279.9,536.4,280.2,536.2z"/>
</g>
<g>
	<path class="st6" d="M333.1,550.2c-0.1,0-0.2,0.1-0.3,0.1c-0.9-1.5-1.7-2.9-2.6-4.4c-0.4,0.6-0.1,1,0,1.5c0.1,0.3,0.2,0.7,0.1,1
		c0,0.4-0.4,0.7-0.4,1.1c-0.1,0.4,0,0.8,0.1,1.2c-0.7-0.2-0.8-0.6-0.8-1.4c0-0.5,0-1.1-0.2-1.6c-0.1-0.5-0.5-0.9-0.8-1.3
		c-0.8,1.4-1.5,2.7-2.2,4.1c0,0-0.1-0.1-0.2-0.1c0.4-1.5,0.8-3,1.2-4.5c-0.3,0.1-0.7,0.2-1,0.3c-0.7,0.1-1.3,0.5-1.7,1.1
		c-0.1,0.3-0.4,0.5-0.6,0.7c-0.4,0.2-0.6,0.2-0.8,0c0.3-0.4,0.7-0.8,0.9-1.3c0.2-0.7,0.5-1.2,1.2-1.5c0.6-0.2,0.7-0.4,0.7-0.9
		c-1.6,0.5-3.2,1-4.8,1.5c0-0.1-0.1-0.2-0.1-0.3c1.4-0.9,2.8-1.7,4.3-2.6c-0.5-0.4-0.9-0.1-1.4,0c-0.3,0.1-0.7,0.2-1,0.1
		c-0.4,0-0.7-0.3-1.1-0.4c-0.4-0.1-0.8,0.1-1.2,0.1c0.3-0.6,0.6-0.8,1.4-0.7c0.6,0.1,1.2,0.1,1.8-0.3c0.4-0.3,0.7-0.5,1.1-0.8
		c-1.4-0.8-2.7-1.5-4.1-2.2c0-0.1,0.1-0.2,0.1-0.3c1.5,0.3,3,0.7,4.5,1.1c-0.1-0.6-0.2-1.1-0.4-1.5c-0.3-0.5-0.8-1-1.2-1.4
		c-0.6-0.6-0.7-0.9-0.5-1.3c0.4,0.3,0.8,0.7,1.3,0.9c0.6,0.2,1.1,0.4,1.4,1.1c0.2,0.4,0.5,0.8,1,0.8c-0.5-1.6-1-3.2-1.5-4.8
		c0.1,0,0.2-0.1,0.3-0.1c0.9,1.5,1.7,2.9,2.6,4.4c0.3-0.5,0.1-0.9,0-1.4c0-0.4-0.1-0.9,0-1.2c0.3-0.7,0.6-1.3,0.1-2.1
		c0.8,0.2,1.1,0.5,0.9,1.2c-0.3,1.3,0.5,2.1,1.1,3.1c0.8-1.4,1.5-2.7,2.2-4.1c0.1,0,0.2,0.1,0.3,0.1c-0.3,1.5-0.7,3-1.1,4.5
		c0.3-0.1,0.6-0.2,0.9-0.3c0.2-0.1,0.5-0.1,0.7-0.2c0.5-0.4,0.9-0.7,1.2-1.1c0.5-0.6,0.9-0.8,1.5-0.4c-0.6,0.3-1.1,0.6-1.2,1.3
		c-0.1,0.6-0.5,1-1.1,1.3c-0.4,0.2-0.8,0.4-0.8,1c1.6-0.5,3.2-1,4.8-1.5c0,0.1,0.1,0.2,0.1,0.3c-1.4,0.8-2.9,1.7-4.3,2.5
		c0.1,0,0.1,0.1,0.1,0.2c0.4-0.1,0.9-0.1,1.3-0.2c0.4-0.1,0.8-0.2,1.1-0.1c0.8,0.3,1.4,0.8,2.3,0.1c-0.3,0.8-0.6,1-1.4,0.9
		c-0.7-0.1-1.3-0.1-1.8,0.3c-0.4,0.3-0.8,0.5-1.2,0.8c1.4,0.8,2.7,1.5,4.1,2.2c0,0.1-0.1,0.2-0.1,0.3c-1.5-0.3-3-0.7-4.5-1.1
		c0.1,0.5,0.2,0.9,0.3,1.3c0.2,0.7,0.6,1.1,1.2,1.5c0.7,0.5,0.8,0.9,0.4,1.6c-0.1-1-0.9-1.1-1.6-1.4c-0.3-0.1-0.6-0.5-0.8-0.8
		c-0.3-0.4-0.5-0.9-1.1-1C332.3,546.8,332.8,548.4,333.1,550.2z M331.3,538.6c-0.5-0.5-1.1-0.6-1.7-0.6c-1.8-0.2-3.5,1.1-3.9,3
		c-0.4,1.7,0.6,3.6,2.4,4.2c1.6,0.5,3.2,0.3,4.4-1.4c1-1.4,0.9-3.3-0.3-4.6c-0.5-0.6-0.7-0.6-1.3,0
		C331.1,539,331.2,538.8,331.3,538.6z M323.9,542.6c0.5-0.2,1-0.2,1.6-0.3c0-0.3,0-0.8,0-1.3c-1.2,0.1-2,1.5-3.3,1.1
		C322.7,542.5,323.2,542.8,323.9,542.6z M332.6,539.1c0.2-0.3,0.5-0.7,0.8-0.8c0.9-0.3,1.2-1,1.3-1.9c-0.5,1.4-2.1,1.1-3.1,1.8
		C332,538.6,332.3,538.8,332.6,539.1z M326,539.6c0.4-0.4,0.7-0.7,0.9-1c-0.4-0.4-0.8-0.8-1-1.2c-0.4-0.7-0.9-0.9-1.6-0.9
		C325.6,537.1,325.2,538.6,326,539.6z M333.5,542.4c1.2-0.1,1.9-1.5,3.3-1.1c-0.6-0.5-1.1-0.7-1.8-0.4c-0.4,0.1-1,0.1-1.5,0.2
		C333.5,541.5,333.5,541.9,333.5,542.4z M328.6,545.6c0.1,0.4,0.2,0.8,0.4,1c0.6,0.8,0.9,1.5,0.7,2.6c0.6-0.8,0.8-1.5,0.4-2.3
		c-0.2-0.3-0.1-0.8-0.1-1.2C329.7,545.7,329.2,545.7,328.6,545.6z M328.7,536.4c0.2,0.4,0.1,0.8,0.1,1.2c0.4,0,0.8,0,1.4,0
		c-0.1-0.3-0.2-0.7-0.4-1c-0.6-0.7-0.9-1.5-0.7-2.5C328.5,535,328.4,535.7,328.7,536.4z M332.9,543.8c-0.3,0.4-0.7,0.7-0.9,1
		c0.4,0.4,0.8,0.8,1,1.2c0.4,0.7,0.9,0.8,1.6,0.9C333.4,546.3,333.7,544.8,332.9,543.8z M325.5,545.1c-1.2,0.5-1,0.9-1.3,1.9
		c0.6-1.4,2.2-1.1,3.1-1.8c-0.4-0.3-0.7-0.6-1-0.9C326,544.6,325.8,545,325.5,545.1z M333,539.7c0.1,0.1,0.1,0.1,0.1,0.2
		c0.4-0.1,0.8-0.3,1.2-0.4c0.1,0,0.1,0.1,0.1,0.1c-0.4,0.2-0.7,0.4-1.1,0.6c0,0.1,0.1,0.1,0.1,0.2c1.1-0.6,2.2-1.2,3.3-1.8
		c-0.1-0.1-0.1-0.1-0.1-0.2C335.4,538.8,334.2,539.2,333,539.7z M330.9,545.5c-0.1,0-0.1,0.1-0.2,0.1c0.6,1.1,1.2,2.2,1.8,3.3
		c0.1-0.1,0.1-0.1,0.2-0.1c-0.4-1.2-0.8-2.4-1.2-3.6c-0.1,0.1-0.2,0.1-0.3,0.1c0.2,0.4,0.3,0.8,0.4,1.2h-0.1
		C331.3,546.2,331.1,545.8,330.9,545.5z M334.7,543.9L334.7,543.9c-0.5-0.1-1.1-0.3-1.6-0.4c-0.1,0-0.1,0.1-0.1,0.2
		c1.3,0.3,2.5,0.7,3.7,1c0.1-0.1,0.1-0.1,0.1-0.2c-1.1-0.6-2.3-1.1-3.4-1.7c0,0.1-0.1,0.1-0.1,0.2
		C333.8,543.2,334.3,543.5,334.7,543.9z M322.1,538.6c-0.1,0.1-0.1,0.1-0.1,0.2c1.1,0.6,2.3,1.1,3.4,1.7c0-0.1,0.1-0.1,0.1-0.2
		c-0.5-0.3-1-0.5-1.5-0.8l0,0c0.6,0.2,1.1,0.3,1.7,0.5c0.1,0,0.1-0.1,0.1-0.2C324.6,539.5,323.4,539.2,322.1,538.6z M328,537.9
		c0.1,0,0.1-0.1,0.2-0.1c-0.6-1.1-1.2-2.2-1.8-3.3c-0.1,0.1-0.1,0.1-0.2,0.1c0.4,1.2,0.8,2.3,1.2,3.5c0.1-0.1,0.1-0.1,0.2-0.1
		c-0.1-0.4-0.3-0.8-0.4-1.2h0.1C327.5,537.2,327.7,537.6,328,537.9z M324.6,543.8L324.6,543.8c0.4-0.3,0.7-0.5,1.1-0.7
		c0-0.1-0.1-0.1-0.1-0.2c-1.1,0.6-2.2,1.2-3.3,1.8c0.1,0.1,0.1,0.1,0.1,0.2c1.2-0.4,2.4-0.8,3.6-1.2c-0.1,0-0.1-0.1-0.1-0.2
		C325.4,543.6,325,543.7,324.6,543.8z M330.6,537.7c0.1,0,0.1,0.1,0.2,0.1c0.2-0.4,0.4-0.9,0.6-1.3h0.1c-0.2,0.5-0.3,0.9-0.4,1.4
		c0.1,0.1,0.1,0.1,0.2,0.1c0.3-1.2,0.7-2.3,1-3.5c-0.1,0-0.1-0.1-0.2-0.1C331.6,535.5,331,536.6,330.6,537.7z M326.6,548.9
		c0.1,0.1,0.1,0.1,0.2,0.1c0.5-1.1,1.1-2.2,1.6-3.3c-0.1,0-0.1-0.1-0.2-0.1c-0.2,0.4-0.5,0.9-0.7,1.3h-0.1c0.1-0.5,0.3-0.9,0.4-1.4
		c-0.1-0.1-0.1-0.1-0.2-0.1C327.3,546.5,326.9,547.7,326.6,548.9z"/>
	<path class="st6" d="M328.1,544.1c0,0-0.2,0.1-0.3,0.1l-0.1-0.2c0.1-0.1,0.1-0.3,0.2-0.3c0.6-0.1,0.6-0.6,0.5-0.9
		c-0.1-0.4,0-0.4,0.3-0.5c0.1,0.1,0.2,0.3,0.2,0.4C328.6,543.2,328.4,543.6,328.1,544.1z"/>
	<path class="st6" d="M329.4,540c0.1-0.3,0.2-0.5,0.2-0.8c0.1-0.1,0-0.2,0-0.3h0.2c0.1,0.1,0.1,0.3,0.1,0.4c0,0.2-0.2,0.5-0.2,0.7
		c0,0.6,0,0.6-0.7,0.7C329.2,540.4,329.4,540.3,329.4,540z"/>
	<path class="st6" d="M327.5,540.4c-0.1-0.1-0.2-0.2-0.3-0.3c0.1-0.1,0.3-0.2,0.5-0.3c0-0.1-0.1-0.2-0.2-0.3c0.1,0,0.2,0,0.4,0
		C327.7,539.8,327.6,540.1,327.5,540.4z"/>
	<path class="st6" d="M328.7,541c-0.1-0.4-0.3-0.7-0.4-1c0.1-0.1,0.1-0.1,0.2-0.1c0.1,0.3,0.2,0.7,0.3,1
		C328.7,540.9,328.7,540.9,328.7,541z"/>
	<path class="st6" d="M331.4,539.1c0.2-0.1,0.3-0.1,0.5-0.1c-0.2,0.2-0.3,0.3-0.5,0.5C331.4,539.4,331.4,539.2,331.4,539.1z"/>
	<path class="st6" d="M328.3,542c-0.3,0.1-0.5,0.3-0.8,0.4c0-0.1-0.1-0.1-0.1-0.2c0.3-0.1,0.5-0.3,0.8-0.4
		C328.2,541.8,328.2,541.9,328.3,542z"/>
	<path class="st6" d="M331.2,543.1c0.1-0.5,0.3-0.9,0.5-1.4C331.5,542.2,331.4,542.6,331.2,543.1z"/>
	<path class="st6" d="M326.6,542.1c0.1-0.1,0.3-0.1,0.4-0.2l0,0c-0.1,0.1-0.1,0.3-0.2,0.5C326.7,542.2,326.6,542.1,326.6,542.1z"/>
	<path class="st6" d="M327,541.7c-0.1-0.1-0.3-0.1-0.4-0.2c0.1-0.1,0.1-0.1,0.1-0.2c0.1,0.1,0.3,0.1,0.4,0.2
		C327.1,541.5,327.1,541.6,327,541.7z"/>
	<path class="st6" d="M330.3,541.9c0-0.2,0.1-0.3,0.1-0.4h0.1c0,0.1,0,0.3,0,0.4C330.5,541.9,330.4,541.9,330.3,541.9z"/>
	<path class="st6" d="M330.1,542.6c0-0.2,0.1-0.3,0.2-0.4l0.1,0.1C330.3,542.4,330.2,542.5,330.1,542.6
		C330.1,542.6,330.1,542.5,330.1,542.6z"/>
</g>
<path class="st0" d="M582.5,444.7l7-4.6c2.9-1.9,6.8-1.1,8.7,1.8l11,16.4c1.9,2.9,1.1,6.8-1.8,8.7l-7,4.6c-2.9,1.9-6.8,1.1-8.7-1.8
	l-11-16.5C579,450.5,579.6,446.6,582.5,444.7z"/>
</svg>
